tick,type,time,meta,track,numerator,denominator,clocks_per_click,notated_32nd_notes_per_beat,key,tempo,port,program,channel,control,value,note,velocity
0,track_name,0,1,0,,,,,,,,,,,,,
0,control_change,0,0,2,,,,,,,,,1,7,127,,
0,control_change,0,0,2,,,,,,,,,1,10,97,,
0,note_on,0,0,1,,,,,,,,,0,,,67,49
0,control_change,0,0,1,,,,,,,,,0,7,127,,
0,program_change,0,0,1,,,,,,,,0,0,,,,
0,track_name,0,1,1,,,,,,,,,,,,,
0,midi_port,0,1,1,,,,,,,0,,,,,,
0,midi_port,0,1,2,,,,,,,0,,,,,,
0,program_change,0,0,2,,,,,,,,0,1,,,,
0,control_change,0,0,4,,,,,,,,,3,10,30,,
0,program_change,0,0,4,,,,,,,,0,3,,,,
0,track_name,0,1,4,,,,,,,,,,,,,
0,midi_port,0,1,4,,,,,,,0,,,,,,
0,midi_port,0,1,3,,,,,,,0,,,,,,
0,track_name,0,1,3,,,,,,,,,,,,,
0,program_change,0,0,3,,,,,,,,0,2,,,,
0,control_change,0,0,3,,,,,,,,,2,7,127,,
0,control_change,0,0,3,,,,,,,,,2,10,30,,
0,control_change,0,0,4,,,,,,,,,3,7,127,,
0,track_name,0,1,2,,,,,,,,,,,,,
0,control_change,0,0,1,,,,,,,,,0,10,97,,
0,text,0,1,0,,,,,,,,,,,,,
0,key_signature,0,1,0,,,,,C,,,,,,,,
0,set_tempo,0,1,0,,,,,,363636,,,,,,,
0,time_signature,0,1,0,5,16,6,8,,,,,,,,,
0,copyright,0,1,0,,,,,,,,,,,,,
30,note_on,30,0,1,,,,,,,,,0,,,67,0
30,note_on,0,0,1,,,,,,,,,0,,,67,49
90,note_on,60,0,1,,,,,,,,,0,,,67,0
90,note_on,0,0,1,,,,,,,,,0,,,69,49
150,note_on,150,0,3,,,,,,,,,2,,,48,36
150,note_on,60,0,1,,,,,,,,,0,,,69,0
150,note_on,0,0,1,,,,,,,,,0,,,67,49
150,time_signature,150,1,0,3,4,24,8,,,,,,,,,
270,note_on,0,0,3,,,,,,,,,2,,,55,36
270,note_on,0,0,3,,,,,,,,,2,,,60,36
270,note_on,0,0,3,,,,,,,,,2,,,64,36
270,note_on,120,0,1,,,,,,,,,0,,,67,0
270,note_on,120,0,3,,,,,,,,,2,,,48,0
270,note_on,0,0,1,,,,,,,,,0,,,76,49
270,note_on,0,0,1,,,,,,,,,0,,,79,49
282,note_on,12,0,3,,,,,,,,,2,,,64,0
282,note_on,0,0,3,,,,,,,,,2,,,60,0
282,note_on,0,0,3,,,,,,,,,2,,,55,0
390,note_on,0,0,1,,,,,,,,,0,,,67,49
390,note_on,0,0,1,,,,,,,,,0,,,76,0
390,note_on,0,0,3,,,,,,,,,2,,,60,36
390,note_on,108,0,3,,,,,,,,,2,,,55,36
390,note_on,120,0,1,,,,,,,,,0,,,79,0
390,note_on,0,0,3,,,,,,,,,2,,,64,36
402,note_on,0,0,3,,,,,,,,,2,,,55,0
402,note_on,0,0,3,,,,,,,,,2,,,60,0
402,note_on,12,0,3,,,,,,,,,2,,,64,0
450,note_on,0,0,1,,,,,,,,,0,,,69,49
450,note_on,60,0,1,,,,,,,,,0,,,67,0
510,note_on,0,0,1,,,,,,,,,0,,,67,49
510,note_on,108,0,3,,,,,,,,,2,,,48,36
510,note_on,60,0,1,,,,,,,,,0,,,69,0
630,note_on,120,0,1,,,,,,,,,0,,,67,0
630,note_on,0,0,1,,,,,,,,,0,,,76,49
630,note_on,0,0,1,,,,,,,,,0,,,79,49
630,note_on,0,0,3,,,,,,,,,2,,,64,36
630,note_on,0,0,3,,,,,,,,,2,,,60,36
630,note_on,120,0,3,,,,,,,,,2,,,48,0
630,note_on,0,0,3,,,,,,,,,2,,,55,36
642,note_on,0,0,3,,,,,,,,,2,,,60,0
642,note_on,0,0,3,,,,,,,,,2,,,55,0
642,note_on,12,0,3,,,,,,,,,2,,,64,0
750,note_on,0,0,3,,,,,,,,,2,,,60,36
750,note_on,108,0,3,,,,,,,,,2,,,55,36
750,note_on,0,0,1,,,,,,,,,0,,,76,0
750,note_on,0,0,3,,,,,,,,,2,,,64,36
750,note_on,0,0,1,,,,,,,,,0,,,72,49
750,note_on,120,0,1,,,,,,,,,0,,,79,0
762,note_on,0,0,3,,,,,,,,,2,,,55,0
762,note_on,0,0,3,,,,,,,,,2,,,60,0
762,note_on,12,0,3,,,,,,,,,2,,,64,0
810,note_on,60,0,1,,,,,,,,,0,,,72,0
810,note_on,0,0,1,,,,,,,,,0,,,74,49
870,note_on,0,0,1,,,,,,,,,0,,,72,62
870,note_on,60,0,1,,,,,,,,,0,,,74,0
870,note_on,108,0,3,,,,,,,,,2,,,48,36
930,note_on,60,0,1,,,,,,,,,0,,,72,0
930,note_on,0,0,1,,,,,,,,,0,,,81,62
930,note_on,0,0,1,,,,,,,,,0,,,84,62
990,note_on,0,0,3,,,,,,,,,2,,,65,49
990,note_on,0,0,3,,,,,,,,,2,,,57,49
990,note_on,120,0,3,,,,,,,,,2,,,48,0
990,note_on,60,0,1,,,,,,,,,0,,,84,0
990,note_on,0,0,1,,,,,,,,,0,,,81,0
990,note_on,0,0,1,,,,,,,,,0,,,81,75
990,note_on,0,0,1,,,,,,,,,0,,,84,75
990,note_on,0,0,3,,,,,,,,,2,,,60,49
1002,note_on,0,0,3,,,,,,,,,2,,,57,0
1002,note_on,0,0,3,,,,,,,,,2,,,60,0
1002,note_on,12,0,3,,,,,,,,,2,,,65,0
1050,note_on,0,0,1,,,,,,,,,0,,,77,75
1050,note_on,0,0,1,,,,,,,,,0,,,81,0
1050,note_on,60,0,1,,,,,,,,,0,,,84,0
1110,note_on,0,0,1,,,,,,,,,0,,,81,75
1110,note_on,108,0,3,,,,,,,,,2,,,57,36
1110,note_on,0,0,3,,,,,,,,,2,,,60,36
1110,note_on,0,0,3,,,,,,,,,2,,,65,36
1110,note_on,0,0,1,,,,,,,,,0,,,77,75
1110,note_on,60,0,1,,,,,,,,,0,,,77,0
1122,note_on,0,0,3,,,,,,,,,2,,,57,0
1122,note_on,12,0,3,,,,,,,,,2,,,65,0
1122,note_on,0,0,3,,,,,,,,,2,,,60,0
1170,note_on,60,0,1,,,,,,,,,0,,,81,0
1170,note_on,0,0,1,,,,,,,,,0,,,78,62
1170,note_on,0,0,1,,,,,,,,,0,,,75,62
1170,note_on,0,0,1,,,,,,,,,0,,,77,0
1230,note_on,108,0,3,,,,,,,,,2,,,48,36
1230,note_on,0,0,1,,,,,,,,,0,,,75,0
1230,note_on,0,0,1,,,,,,,,,0,,,79,49
1230,note_on,0,0,1,,,,,,,,,0,,,76,49
1230,note_on,60,0,1,,,,,,,,,0,,,78,0
1350,note_on,120,0,3,,,,,,,,,2,,,48,0
1350,note_on,0,0,3,,,,,,,,,2,,,55,36
1350,note_on,0,0,3,,,,,,,,,2,,,60,36
1350,note_on,0,0,3,,,,,,,,,2,,,64,36
1362,note_on,0,0,3,,,,,,,,,2,,,55,0
1362,note_on,12,0,3,,,,,,,,,2,,,64,0
1362,note_on,0,0,3,,,,,,,,,2,,,60,0
1440,note_on,0,0,1,,,,,,,,,0,,,67,49
1440,note_on,0,0,1,,,,,,,,,0,,,76,0
1440,note_on,210,0,1,,,,,,,,,0,,,79,0
1470,note_on,0,0,3,,,,,,,,,2,,,60,36
1470,note_on,0,0,3,,,,,,,,,2,,,64,36
1470,note_on,30,0,1,,,,,,,,,0,,,67,0
1470,note_on,0,0,1,,,,,,,,,0,,,67,49
1470,note_on,108,0,3,,,,,,,,,2,,,55,36
1482,note_on,12,0,3,,,,,,,,,2,,,64,0
1482,note_on,0,0,3,,,,,,,,,2,,,60,0
1482,note_on,0,0,3,,,,,,,,,2,,,55,0
1530,note_on,0,0,1,,,,,,,,,0,,,69,49
1530,note_on,60,0,1,,,,,,,,,0,,,67,0
1590,note_on,108,0,3,,,,,,,,,2,,,48,36
1590,note_on,60,0,1,,,,,,,,,0,,,69,0
1590,note_on,0,0,1,,,,,,,,,0,,,67,49
1710,note_on,0,0,1,,,,,,,,,0,,,76,49
1710,note_on,120,0,3,,,,,,,,,2,,,48,0
1710,note_on,0,0,3,,,,,,,,,2,,,55,36
1710,note_on,0,0,3,,,,,,,,,2,,,60,36
1710,note_on,120,0,1,,,,,,,,,0,,,67,0
1710,note_on,0,0,1,,,,,,,,,0,,,79,49
1710,note_on,0,0,3,,,,,,,,,2,,,64,36
1722,note_on,0,0,3,,,,,,,,,2,,,55,0
1722,note_on,0,0,3,,,,,,,,,2,,,60,0
1722,note_on,12,0,3,,,,,,,,,2,,,64,0
1830,note_on,0,0,3,,,,,,,,,2,,,60,36
1830,note_on,120,0,1,,,,,,,,,0,,,79,0
1830,note_on,0,0,3,,,,,,,,,2,,,64,36
1830,note_on,0,0,1,,,,,,,,,0,,,76,0
1830,note_on,0,0,1,,,,,,,,,0,,,67,49
1830,note_on,108,0,3,,,,,,,,,2,,,55,36
1842,note_on,0,0,3,,,,,,,,,2,,,60,0
1842,note_on,12,0,3,,,,,,,,,2,,,64,0
1842,note_on,0,0,3,,,,,,,,,2,,,55,0
1890,note_on,0,0,1,,,,,,,,,0,,,69,49
1890,note_on,60,0,1,,,,,,,,,0,,,67,0
1950,note_on,0,0,1,,,,,,,,,0,,,67,49
1950,note_on,60,0,1,,,,,,,,,0,,,69,0
1950,note_on,108,0,3,,,,,,,,,2,,,48,36
2010,note_on,0,0,1,,,,,,,,,0,,,69,49
2010,note_on,60,0,1,,,,,,,,,0,,,67,0
2070,note_on,60,0,1,,,,,,,,,0,,,69,0
2070,note_on,0,0,1,,,,,,,,,0,,,71,49
2070,note_on,0,0,3,,,,,,,,,2,,,55,36
2070,note_on,0,0,3,,,,,,,,,2,,,64,36
2070,note_on,0,0,3,,,,,,,,,2,,,60,36
2070,note_on,120,0,3,,,,,,,,,2,,,48,0
2082,note_on,12,0,3,,,,,,,,,2,,,64,0
2082,note_on,0,0,3,,,,,,,,,2,,,55,0
2082,note_on,0,0,3,,,,,,,,,2,,,60,0
2130,note_on,0,0,1,,,,,,,,,0,,,72,49
2130,note_on,60,0,1,,,,,,,,,0,,,71,0
2190,note_on,0,0,3,,,,,,,,,2,,,64,36
2190,note_on,108,0,3,,,,,,,,,2,,,55,36
2190,note_on,0,0,1,,,,,,,,,0,,,74,49
2190,note_on,60,0,1,,,,,,,,,0,,,72,0
2190,note_on,2190,0,2,,,,,,,,,1,,,79,36
2190,note_on,0,0,3,,,,,,,,,2,,,60,36
2202,note_on,0,0,3,,,,,,,,,2,,,55,0
2202,note_on,0,0,3,,,,,,,,,2,,,60,0
2202,note_on,12,0,3,,,,,,,,,2,,,64,0
2250,note_on,60,0,1,,,,,,,,,0,,,74,0
2250,note_on,0,0,1,,,,,,,,,0,,,76,49
2310,note_on,60,0,1,,,,,,,,,0,,,76,0
2310,note_on,0,0,1,,,,,,,,,0,,,77,49
2310,note_on,108,0,3,,,,,,,,,2,,,43,36
2430,note_on,0,0,3,,,,,,,,,2,,,65,36
2430,note_on,0,0,3,,,,,,,,,2,,,59,36
2430,note_on,240,0,2,,,,,,,,,1,,,79,0
2430,note_on,0,0,2,,,,,,,,,1,,,79,36
2430,note_on,120,0,1,,,,,,,,,0,,,77,0
2430,note_on,0,0,1,,,,,,,,,0,,,77,49
2430,note_on,0,0,3,,,,,,,,,2,,,55,36
2430,note_on,120,0,3,,,,,,,,,2,,,43,0
2442,note_on,12,0,3,,,,,,,,,2,,,65,0
2442,note_on,0,0,3,,,,,,,,,2,,,55,0
2442,note_on,0,0,3,,,,,,,,,2,,,59,0
2490,note_on,60,0,1,,,,,,,,,0,,,77,0
2490,note_on,0,0,1,,,,,,,,,0,,,76,49
2550,note_on,0,0,3,,,,,,,,,2,,,65,36
2550,note_on,0,0,3,,,,,,,,,2,,,59,36
2550,note_on,108,0,3,,,,,,,,,2,,,55,36
2550,note_on,60,0,1,,,,,,,,,0,,,76,0
2550,note_on,0,0,1,,,,,,,,,0,,,74,49
2562,note_on,0,0,3,,,,,,,,,2,,,55,0
2562,note_on,0,0,3,,,,,,,,,2,,,59,0
2562,note_on,12,0,3,,,,,,,,,2,,,65,0
2670,note_on,0,0,1,,,,,,,,,0,,,76,49
2670,time_signature,2520,1,0,7,16,6,8,,,,,,,,,
2670,note_on,108,0,3,,,,,,,,,2,,,48,36
2670,note_on,120,0,1,,,,,,,,,0,,,74,0
2790,note_on,120,0,3,,,,,,,,,2,,,48,0
2790,note_on,0,0,3,,,,,,,,,2,,,55,36
2790,note_on,0,0,3,,,,,,,,,2,,,60,36
2790,note_on,0,0,3,,,,,,,,,2,,,64,36
2880,note_on,210,0,1,,,,,,,,,0,,,76,0
2880,note_on,450,0,2,,,,,,,,,1,,,79,0
2880,note_on,0,0,3,,,,,,,,,2,,,60,0
2880,note_on,0,0,1,,,,,,,,,0,,,67,49
2880,note_on,90,0,3,,,,,,,,,2,,,64,0
2880,note_on,0,0,3,,,,,,,,,2,,,55,0
2880,time_signature,210,1,0,5,16,6,8,,,,,,,,,
2910,note_on,0,0,1,,,,,,,,,0,,,67,49
2910,note_on,30,0,1,,,,,,,,,0,,,67,0
2970,note_on,0,0,1,,,,,,,,,0,,,69,49
2970,note_on,60,0,1,,,,,,,,,0,,,67,0
3030,time_signature,150,1,0,3,4,24,8,,,,,,,,,
3030,note_on,60,0,1,,,,,,,,,0,,,69,0
3030,note_on,0,0,1,,,,,,,,,0,,,67,49
3030,note_on,150,0,3,,,,,,,,,2,,,48,36
3150,note_on,0,0,1,,,,,,,,,0,,,79,49
3150,note_on,0,0,3,,,,,,,,,2,,,55,36
3150,note_on,0,0,3,,,,,,,,,2,,,60,36
3150,note_on,0,0,3,,,,,,,,,2,,,64,36
3150,note_on,120,0,1,,,,,,,,,0,,,67,0
3150,note_on,120,0,3,,,,,,,,,2,,,48,0
3150,note_on,0,0,1,,,,,,,,,0,,,76,49
3162,note_on,12,0,3,,,,,,,,,2,,,64,0
3162,note_on,0,0,3,,,,,,,,,2,,,60,0
3162,note_on,0,0,3,,,,,,,,,2,,,55,0
3270,note_on,0,0,3,,,,,,,,,2,,,60,36
3270,note_on,120,0,1,,,,,,,,,0,,,79,0
3270,note_on,0,0,1,,,,,,,,,0,,,76,0
3270,note_on,0,0,1,,,,,,,,,0,,,67,49
3270,note_on,0,0,3,,,,,,,,,2,,,64,36
3270,note_on,108,0,3,,,,,,,,,2,,,55,36
3282,note_on,0,0,3,,,,,,,,,2,,,55,0
3282,note_on,0,0,3,,,,,,,,,2,,,60,0
3282,note_on,12,0,3,,,,,,,,,2,,,64,0
3330,note_on,0,0,1,,,,,,,,,0,,,69,49
3330,note_on,60,0,1,,,,,,,,,0,,,67,0
3390,note_on,60,0,1,,,,,,,,,0,,,69,0
3390,note_on,108,0,3,,,,,,,,,2,,,48,36
3390,note_on,0,0,1,,,,,,,,,0,,,67,49
3510,note_on,0,0,1,,,,,,,,,0,,,76,49
3510,note_on,0,0,1,,,,,,,,,0,,,79,49
3510,note_on,0,0,3,,,,,,,,,2,,,64,36
3510,note_on,0,0,3,,,,,,,,,2,,,60,36
3510,note_on,0,0,3,,,,,,,,,2,,,55,36
3510,note_on,120,0,3,,,,,,,,,2,,,48,0
3510,note_on,120,0,1,,,,,,,,,0,,,67,0
3522,note_on,12,0,3,,,,,,,,,2,,,64,0
3522,note_on,0,0,3,,,,,,,,,2,,,55,0
3522,note_on,0,0,3,,,,,,,,,2,,,60,0
3630,note_on,120,0,1,,,,,,,,,0,,,79,0
3630,note_on,0,0,1,,,,,,,,,0,,,72,49
3630,note_on,0,0,1,,,,,,,,,0,,,76,0
3630,note_on,108,0,3,,,,,,,,,2,,,55,36
3630,note_on,0,0,3,,,,,,,,,2,,,60,36
3630,note_on,0,0,3,,,,,,,,,2,,,64,36
3642,note_on,0,0,3,,,,,,,,,2,,,55,0
3642,note_on,0,0,3,,,,,,,,,2,,,60,0
3642,note_on,12,0,3,,,,,,,,,2,,,64,0
3690,note_on,60,0,1,,,,,,,,,0,,,72,0
3690,note_on,0,0,1,,,,,,,,,0,,,74,49
3750,note_on,60,0,1,,,,,,,,,0,,,74,0
3750,note_on,0,0,1,,,,,,,,,0,,,72,62
3750,note_on,108,0,3,,,,,,,,,2,,,48,36
3810,note_on,0,0,1,,,,,,,,,0,,,81,62
3810,note_on,60,0,1,,,,,,,,,0,,,72,0
3810,note_on,0,0,1,,,,,,,,,0,,,84,62
3870,note_on,0,0,3,,,,,,,,,2,,,57,49
3870,note_on,0,0,3,,,,,,,,,2,,,65,49
3870,note_on,0,0,3,,,,,,,,,2,,,60,49
3870,note_on,120,0,3,,,,,,,,,2,,,48,0
3870,note_on,0,0,1,,,,,,,,,0,,,81,0
3870,note_on,0,0,1,,,,,,,,,0,,,81,75
3870,note_on,0,0,1,,,,,,,,,0,,,84,75
3870,note_on,60,0,1,,,,,,,,,0,,,84,0
3882,note_on,12,0,3,,,,,,,,,2,,,65,0
3882,note_on,0,0,3,,,,,,,,,2,,,57,0
3882,note_on,0,0,3,,,,,,,,,2,,,60,0
3930,note_on,60,0,1,,,,,,,,,0,,,84,0
3930,note_on,0,0,1,,,,,,,,,0,,,77,75
3930,note_on,0,0,1,,,,,,,,,0,,,81,0
3990,note_on,0,0,1,,,,,,,,,0,,,81,75
3990,note_on,0,0,1,,,,,,,,,0,,,77,75
3990,note_on,60,0,1,,,,,,,,,0,,,77,0
3990,note_on,108,0,3,,,,,,,,,2,,,57,36
3990,note_on,0,0,3,,,,,,,,,2,,,65,36
3990,note_on,0,0,3,,,,,,,,,2,,,60,36
4002,note_on,12,0,3,,,,,,,,,2,,,65,0
4002,note_on,0,0,3,,,,,,,,,2,,,60,0
4002,note_on,0,0,3,,,,,,,,,2,,,57,0
4050,note_on,0,0,1,,,,,,,,,0,,,78,62
4050,note_on,0,0,1,,,,,,,,,0,,,75,62
4050,note_on,60,0,1,,,,,,,,,0,,,81,0
4050,note_on,0,0,1,,,,,,,,,0,,,77,0
4110,note_on,0,0,1,,,,,,,,,0,,,79,49
4110,note_on,108,0,3,,,,,,,,,2,,,48,36
4110,note_on,0,0,1,,,,,,,,,0,,,75,0
4110,note_on,60,0,1,,,,,,,,,0,,,78,0
4110,note_on,0,0,1,,,,,,,,,0,,,76,49
4230,note_on,0,0,3,,,,,,,,,2,,,55,36
4230,note_on,120,0,3,,,,,,,,,2,,,48,0
4230,note_on,0,0,3,,,,,,,,,2,,,64,36
4230,note_on,0,0,3,,,,,,,,,2,,,60,36
4242,note_on,12,0,3,,,,,,,,,2,,,64,0
4242,note_on,0,0,3,,,,,,,,,2,,,60,0
4242,note_on,0,0,3,,,,,,,,,2,,,55,0
4320,note_on,0,0,1,,,,,,,,,0,,,76,0
4320,note_on,210,0,1,,,,,,,,,0,,,79,0
4320,note_on,0,0,1,,,,,,,,,0,,,67,49
4350,note_on,30,0,1,,,,,,,,,0,,,67,0
4350,note_on,0,0,1,,,,,,,,,0,,,67,49
4350,note_on,108,0,3,,,,,,,,,2,,,55,36
4350,note_on,0,0,3,,,,,,,,,2,,,64,36
4350,note_on,0,0,3,,,,,,,,,2,,,60,36
4362,note_on,0,0,3,,,,,,,,,2,,,55,0
4362,note_on,0,0,3,,,,,,,,,2,,,60,0
4362,note_on,12,0,3,,,,,,,,,2,,,64,0
4410,note_on,60,0,1,,,,,,,,,0,,,67,0
4410,note_on,0,0,1,,,,,,,,,0,,,69,49
4470,note_on,108,0,3,,,,,,,,,2,,,48,36
4470,note_on,60,0,1,,,,,,,,,0,,,69,0
4470,note_on,0,0,1,,,,,,,,,0,,,67,49
4590,note_on,0,0,1,,,,,,,,,0,,,79,49
4590,note_on,0,0,1,,,,,,,,,0,,,76,49
4590,note_on,120,0,3,,,,,,,,,2,,,48,0
4590,note_on,0,0,3,,,,,,,,,2,,,64,36
4590,note_on,120,0,1,,,,,,,,,0,,,67,0
4590,note_on,0,0,3,,,,,,,,,2,,,55,36
4590,note_on,0,0,3,,,,,,,,,2,,,60,36
4602,note_on,12,0,3,,,,,,,,,2,,,64,0
4602,note_on,0,0,3,,,,,,,,,2,,,60,0
4602,note_on,0,0,3,,,,,,,,,2,,,55,0
4710,note_on,0,0,1,,,,,,,,,0,,,67,49
4710,note_on,0,0,1,,,,,,,,,0,,,76,0
4710,note_on,120,0,1,,,,,,,,,0,,,79,0
4710,note_on,0,0,3,,,,,,,,,2,,,64,36
4710,note_on,0,0,3,,,,,,,,,2,,,60,36
4710,note_on,108,0,3,,,,,,,,,2,,,55,36
4722,note_on,0,0,3,,,,,,,,,2,,,60,0
4722,note_on,0,0,3,,,,,,,,,2,,,55,0
4722,note_on,12,0,3,,,,,,,,,2,,,64,0
4770,note_on,60,0,1,,,,,,,,,0,,,67,0
4770,note_on,0,0,1,,,,,,,,,0,,,69,49
4830,note_on,60,0,1,,,,,,,,,0,,,69,0
4830,note_on,0,0,1,,,,,,,,,0,,,67,49
4830,note_on,108,0,3,,,,,,,,,2,,,48,36
4890,note_on,60,0,1,,,,,,,,,0,,,67,0
4890,note_on,0,0,1,,,,,,,,,0,,,69,49
4950,note_on,0,0,3,,,,,,,,,2,,,55,36
4950,note_on,60,0,1,,,,,,,,,0,,,69,0
4950,note_on,0,0,1,,,,,,,,,0,,,71,49
4950,note_on,0,0,3,,,,,,,,,2,,,60,36
4950,note_on,120,0,3,,,,,,,,,2,,,48,0
4950,note_on,0,0,3,,,,,,,,,2,,,64,36
4962,note_on,12,0,3,,,,,,,,,2,,,64,0
4962,note_on,0,0,3,,,,,,,,,2,,,60,0
4962,note_on,0,0,3,,,,,,,,,2,,,55,0
5010,note_on,0,0,1,,,,,,,,,0,,,72,49
5010,note_on,60,0,1,,,,,,,,,0,,,71,0
5070,note_on,0,0,3,,,,,,,,,2,,,64,36
5070,note_on,60,0,1,,,,,,,,,0,,,72,0
5070,note_on,0,0,1,,,,,,,,,0,,,74,49
5070,note_on,108,0,3,,,,,,,,,2,,,55,36
5070,note_on,0,0,3,,,,,,,,,2,,,60,36
5070,note_on,2190,0,2,,,,,,,,,1,,,79,36
5082,note_on,12,0,3,,,,,,,,,2,,,64,0
5082,note_on,0,0,3,,,,,,,,,2,,,60,0
5082,note_on,0,0,3,,,,,,,,,2,,,55,0
5130,note_on,60,0,1,,,,,,,,,0,,,74,0
5130,note_on,0,0,1,,,,,,,,,0,,,76,49
5190,note_on,108,0,3,,,,,,,,,2,,,43,36
5190,note_on,0,0,1,,,,,,,,,0,,,77,49
5190,note_on,60,0,1,,,,,,,,,0,,,76,0
5310,note_on,0,0,1,,,,,,,,,0,,,77,49
5310,note_on,120,0,1,,,,,,,,,0,,,77,0
5310,note_on,0,0,2,,,,,,,,,1,,,79,36
5310,note_on,0,0,3,,,,,,,,,2,,,65,36
5310,note_on,0,0,3,,,,,,,,,2,,,59,36
5310,note_on,0,0,3,,,,,,,,,2,,,55,36
5310,note_on,120,0,3,,,,,,,,,2,,,43,0
5310,note_on,240,0,2,,,,,,,,,1,,,79,0
5322,note_on,0,0,3,,,,,,,,,2,,,59,0
5322,note_on,12,0,3,,,,,,,,,2,,,65,0
5322,note_on,0,0,3,,,,,,,,,2,,,55,0
5370,note_on,0,0,1,,,,,,,,,0,,,76,49
5370,note_on,60,0,1,,,,,,,,,0,,,77,0
5430,note_on,60,0,1,,,,,,,,,0,,,76,0
5430,note_on,0,0,1,,,,,,,,,0,,,74,49
5430,note_on,108,0,3,,,,,,,,,2,,,55,36
5430,note_on,0,0,3,,,,,,,,,2,,,59,36
5430,note_on,0,0,3,,,,,,,,,2,,,65,36
5442,note_on,0,0,3,,,,,,,,,2,,,59,0
5442,note_on,0,0,3,,,,,,,,,2,,,55,0
5442,note_on,12,0,3,,,,,,,,,2,,,65,0
5550,note_on,0,0,1,,,,,,,,,0,,,76,49
5550,note_on,120,0,1,,,,,,,,,0,,,74,0
5550,time_signature,2520,1,0,7,16,6,8,,,,,,,,,
5550,note_on,108,0,3,,,,,,,,,2,,,48,36
5670,note_on,0,0,3,,,,,,,,,2,,,64,36
5670,note_on,0,0,3,,,,,,,,,2,,,60,36
5670,note_on,120,0,3,,,,,,,,,2,,,48,0
5670,note_on,0,0,3,,,,,,,,,2,,,55,36
5760,note_on,210,0,1,,,,,,,,,0,,,76,0
5760,note_on,0,0,3,,,,,,,,,2,,,55,0
5760,note_on,450,0,2,,,,,,,,,1,,,79,0
5760,time_signature,210,1,0,5,16,6,8,,,,,,,,,
5760,note_on,90,0,3,,,,,,,,,2,,,64,0
5760,note_on,0,0,3,,,,,,,,,2,,,60,0
5790,note_on,30,0,1,,,,,,,,,0,,,72,75
5850,note_on,60,0,1,,,,,,,,,0,,,72,0
5850,note_on,0,0,1,,,,,,,,,0,,,74,75
5910,time_signature,150,1,0,3,4,24,8,,,,,,,,,
5910,note_on,150,0,3,,,,,,,,,2,,,57,62
5910,note_on,60,0,1,,,,,,,,,0,,,74,0
5910,note_on,0,0,1,,,,,,,,,0,,,72,75
6030,note_on,120,0,1,,,,,,,,,0,,,72,0
6030,note_on,270,0,2,,,,,,,,,1,,,81,88
6030,note_on,0,0,1,,,,,,,,,0,,,76,101
6030,note_on,120,0,3,,,,,,,,,2,,,57,0
6030,note_on,0,0,3,,,,,,,,,2,,,60,62
6030,note_on,0,0,3,,,,,,,,,2,,,64,62
6042,note_on,12,0,3,,,,,,,,,2,,,64,0
6042,note_on,0,0,3,,,,,,,,,2,,,60,0
6090,note_on,0,0,1,,,,,,,,,0,,,74,75
6090,note_on,60,0,1,,,,,,,,,0,,,76,0
6150,note_on,60,0,1,,,,,,,,,0,,,74,0
6150,note_on,0,0,1,,,,,,,,,0,,,72,75
6150,note_on,108,0,3,,,,,,,,,2,,,60,62
6150,note_on,0,0,3,,,,,,,,,2,,,64,62
6162,note_on,12,0,3,,,,,,,,,2,,,64,0
6162,note_on,0,0,3,,,,,,,,,2,,,60,0
6210,note_on,60,0,1,,,,,,,,,0,,,72,0
6210,note_on,0,0,1,,,,,,,,,0,,,76,75
6270,note_on,240,0,2,,,,,,,,,1,,,81,0
6270,note_on,108,0,3,,,,,,,,,2,,,52,62
6270,note_on,0,0,1,,,,,,,,,0,,,71,88
6270,note_on,60,0,1,,,,,,,,,0,,,76,0
6390,note_on,120,0,3,,,,,,,,,2,,,52,0
6390,note_on,0,0,3,,,,,,,,,2,,,64,62
6390,note_on,0,0,3,,,,,,,,,2,,,68,62
6390,note_on,0,0,1,,,,,,,,,0,,,76,114
6390,note_on,120,0,1,,,,,,,,,0,,,71,0
6390,note_on,120,0,2,,,,,,,,,1,,,80,88
6390,note_on,0,0,3,,,,,,,,,2,,,59,62
6402,note_on,0,0,3,,,,,,,,,2,,,64,0
6402,note_on,12,0,3,,,,,,,,,2,,,68,0
6402,note_on,0,0,3,,,,,,,,,2,,,59,0
6510,note_on,0,0,3,,,,,,,,,2,,,64,62
6510,note_on,0,0,3,,,,,,,,,2,,,68,62
6510,note_on,108,0,3,,,,,,,,,2,,,59,62
6510,note_on,120,0,1,,,,,,,,,0,,,76,0
6510,note_on,0,0,1,,,,,,,,,0,,,71,88
6522,note_on,0,0,3,,,,,,,,,2,,,64,0
6522,note_on,12,0,3,,,,,,,,,2,,,68,0
6522,note_on,0,0,3,,,,,,,,,2,,,59,0
6630,note_on,108,0,3,,,,,,,,,2,,,48,62
6630,note_on,120,0,1,,,,,,,,,0,,,71,0
6630,note_on,0,0,1,,,,,,,,,0,,,70,101
6630,note_on,240,0,2,,,,,,,,,1,,,80,0
6750,note_on,120,0,3,,,,,,,,,2,,,48,0
6750,note_on,0,0,3,,,,,,,,,2,,,58,62
6750,note_on,0,0,3,,,,,,,,,2,,,60,62
6750,note_on,0,0,3,,,,,,,,,2,,,64,62
6750,note_on,120,0,2,,,,,,,,,1,,,79,62
6750,note_on,0,0,1,,,,,,,,,0,,,76,101
6750,note_on,120,0,1,,,,,,,,,0,,,70,0
6762,note_on,12,0,3,,,,,,,,,2,,,64,0
6762,note_on,0,0,3,,,,,,,,,2,,,58,0
6762,note_on,0,0,3,,,,,,,,,2,,,60,0
6810,note_on,0,0,1,,,,,,,,,0,,,74,101
6810,note_on,60,0,1,,,,,,,,,0,,,76,0
6870,note_on,108,0,3,,,,,,,,,2,,,58,62
6870,note_on,0,0,3,,,,,,,,,2,,,60,62
6870,note_on,0,0,3,,,,,,,,,2,,,64,62
6870,note_on,0,0,1,,,,,,,,,0,,,72,101
6870,note_on,60,0,1,,,,,,,,,0,,,74,0
6882,note_on,0,0,3,,,,,,,,,2,,,60,0
6882,note_on,12,0,3,,,,,,,,,2,,,64,0
6882,note_on,0,0,3,,,,,,,,,2,,,58,0
6930,note_on,0,0,1,,,,,,,,,0,,,70,101
6930,note_on,60,0,1,,,,,,,,,0,,,72,0
6990,note_on,240,0,2,,,,,,,,,1,,,79,0
6990,note_on,0,0,1,,,,,,,,,0,,,69,75
6990,note_on,60,0,1,,,,,,,,,0,,,70,0
6990,note_on,108,0,3,,,,,,,,,2,,,53,62
7110,note_on,120,0,3,,,,,,,,,2,,,53,0
7110,note_on,120,0,1,,,,,,,,,0,,,69,0
7110,note_on,0,0,3,,,,,,,,,2,,,60,62
7110,note_on,0,0,3,,,,,,,,,2,,,65,62
7110,note_on,120,0,2,,,,,,,,,1,,,81,88
7110,note_on,0,0,3,,,,,,,,,2,,,57,62
7110,note_on,0,0,1,,,,,,,,,0,,,77,101
7122,note_on,0,0,3,,,,,,,,,2,,,57,0
7122,note_on,0,0,3,,,,,,,,,2,,,60,0
7122,note_on,12,0,3,,,,,,,,,2,,,65,0
7230,note_on,108,0,3,,,,,,,,,2,,,57,62
7230,note_on,0,0,3,,,,,,,,,2,,,60,62
7230,note_on,0,0,3,,,,,,,,,2,,,65,62
7230,note_on,0,0,1,,,,,,,,,0,,,69,75
7230,note_on,120,0,1,,,,,,,,,0,,,77,0
7230,note_on,0,0,2,,,,,,,,,1,,,72,62
7230,note_on,120,0,2,,,,,,,,,1,,,81,0
7242,note_on,0,0,3,,,,,,,,,2,,,60,0
7242,note_on,0,0,3,,,,,,,,,2,,,57,0
7242,note_on,12,0,3,,,,,,,,,2,,,65,0
7350,note_on,0,0,1,,,,,,,,,0,,,74,75
7350,note_on,0,0,1,,,,,,,,,0,,,71,75
7350,note_on,120,0,1,,,,,,,,,0,,,69,0
7350,note_on,120,0,2,,,,,,,,,1,,,72,0
7350,note_on,108,0,3,,,,,,,,,2,,,43,62
7470,note_on,0,0,1,,,,,,,,,0,,,77,75
7470,note_on,0,0,1,,,,,,,,,0,,,81,75
7470,note_on,120,0,3,,,,,,,,,2,,,43,0
7470,note_on,120,0,1,,,,,,,,,0,,,74,0
7470,note_on,0,0,3,,,,,,,,,2,,,59,62
7470,note_on,0,0,3,,,,,,,,,2,,,55,62
7470,note_on,0,0,3,,,,,,,,,2,,,65,62
7470,note_on,0,0,1,,,,,,,,,0,,,71,0
7482,note_on,12,0,3,,,,,,,,,2,,,65,0
7482,note_on,0,0,3,,,,,,,,,2,,,59,0
7482,note_on,0,0,3,,,,,,,,,2,,,55,0
7530,note_on,0,0,1,,,,,,,,,0,,,79,75
7530,note_on,0,0,1,,,,,,,,,0,,,76,75
7530,note_on,0,0,1,,,,,,,,,0,,,77,0
7530,note_on,60,0,1,,,,,,,,,0,,,81,0
7590,note_on,108,0,3,,,,,,,,,2,,,55,62
7590,note_on,0,0,3,,,,,,,,,2,,,59,62
7590,note_on,0,0,3,,,,,,,,,2,,,65,62
7590,note_on,60,0,1,,,,,,,,,0,,,79,0
7590,note_on,0,0,1,,,,,,,,,0,,,76,0
7590,note_on,0,0,1,,,,,,,,,0,,,74,75
7590,note_on,0,0,1,,,,,,,,,0,,,77,75
7602,note_on,12,0,3,,,,,,,,,2,,,65,0
7602,note_on,0,0,3,,,,,,,,,2,,,59,0
7602,note_on,0,0,3,,,,,,,,,2,,,55,0
7650,note_on,60,0,1,,,,,,,,,0,,,77,0
7650,note_on,0,0,1,,,,,,,,,0,,,74,0
7650,note_on,0,0,1,,,,,,,,,0,,,76,75
7650,note_on,0,0,1,,,,,,,,,0,,,79,75
7710,note_on,60,0,1,,,,,,,,,0,,,79,0
7710,note_on,0,0,1,,,,,,,,,0,,,76,0
7710,note_on,108,0,3,,,,,,,,,2,,,48,62
7710,note_on,0,0,1,,,,,,,,,0,,,72,75
7710,note_on,0,0,1,,,,,,,,,0,,,76,75
7830,note_on,0,0,3,,,,,,,,,2,,,55,62
7830,note_on,0,0,1,,,,,,,,,0,,,79,93
7830,note_on,0,0,1,,,,,,,,,0,,,72,0
7830,note_on,120,0,1,,,,,,,,,0,,,76,0
7830,note_on,120,0,3,,,,,,,,,2,,,48,0
7830,note_on,0,0,1,,,,,,,,,0,,,84,101
7830,note_on,0,0,3,,,,,,,,,2,,,64,62
7830,note_on,0,0,3,,,,,,,,,2,,,60,62
7842,note_on,0,0,3,,,,,,,,,2,,,55,0
7842,note_on,0,0,3,,,,,,,,,2,,,60,0
7842,note_on,12,0,3,,,,,,,,,2,,,64,0
7950,note_on,0,0,1,,,,,,,,,0,,,79,0
7950,note_on,0,0,1,,,,,,,,,0,,,72,75
7950,note_on,0,0,1,,,,,,,,,0,,,76,75
7950,note_on,0,0,3,,,,,,,,,2,,,60,62
7950,note_on,0,0,3,,,,,,,,,2,,,64,62
7950,note_on,108,0,3,,,,,,,,,2,,,55,62
7950,note_on,120,0,1,,,,,,,,,0,,,84,0
7962,note_on,12,0,3,,,,,,,,,2,,,64,0
7962,note_on,0,0,3,,,,,,,,,2,,,60,0
7962,note_on,0,0,3,,,,,,,,,2,,,55,0
8070,note_on,0,0,1,,,,,,,,,0,,,77,75
8070,note_on,0,0,1,,,,,,,,,0,,,74,75
8070,note_on,0,0,1,,,,,,,,,0,,,72,0
8070,note_on,120,0,1,,,,,,,,,0,,,76,0
8070,note_on,108,0,3,,,,,,,,,2,,,43,62
8190,note_on,0,0,1,,,,,,,,,0,,,77,75
8190,note_on,0,0,1,,,,,,,,,0,,,74,0
8190,note_on,120,0,1,,,,,,,,,0,,,77,0
8190,note_on,0,0,1,,,,,,,,,0,,,81,75
8190,note_on,0,0,3,,,,,,,,,2,,,55,62
8190,note_on,120,0,3,,,,,,,,,2,,,43,0
8190,note_on,0,0,3,,,,,,,,,2,,,59,62
8190,note_on,0,0,3,,,,,,,,,2,,,65,62
8202,note_on,0,0,3,,,,,,,,,2,,,55,0
8202,note_on,0,0,3,,,,,,,,,2,,,59,0
8202,note_on,12,0,3,,,,,,,,,2,,,65,0
8250,note_on,60,0,1,,,,,,,,,0,,,81,0
8250,note_on,0,0,1,,,,,,,,,0,,,77,0
8250,note_on,0,0,1,,,,,,,,,0,,,76,75
8250,note_on,0,0,1,,,,,,,,,0,,,79,75
8310,note_on,0,0,3,,,,,,,,,2,,,59,62
8310,note_on,108,0,3,,,,,,,,,2,,,55,62
8310,note_on,0,0,1,,,,,,,,,0,,,76,0
8310,note_on,0,0,1,,,,,,,,,0,,,77,75
8310,note_on,60,0,1,,,,,,,,,0,,,79,0
8310,note_on,0,0,3,,,,,,,,,2,,,65,62
8310,note_on,0,0,1,,,,,,,,,0,,,74,75
8322,note_on,0,0,3,,,,,,,,,2,,,59,0
8322,note_on,12,0,3,,,,,,,,,2,,,65,0
8322,note_on,0,0,3,,,,,,,,,2,,,55,0
8370,note_on,0,0,1,,,,,,,,,0,,,79,75
8370,note_on,0,0,1,,,,,,,,,0,,,74,0
8370,note_on,60,0,1,,,,,,,,,0,,,77,0
8370,note_on,0,0,1,,,,,,,,,0,,,76,75
8430,note_on,60,0,1,,,,,,,,,0,,,79,0
8430,note_on,0,0,1,,,,,,,,,0,,,76,0
8430,note_on,0,0,1,,,,,,,,,0,,,72,75
8430,note_on,0,0,1,,,,,,,,,0,,,76,75
8430,time_signature,2520,1,0,7,16,6,8,,,,,,,,,
8430,note_on,108,0,3,,,,,,,,,2,,,48,62
8550,note_on,0,0,3,,,,,,,,,2,,,64,62
8550,note_on,0,0,3,,,,,,,,,2,,,60,62
8550,note_on,0,0,3,,,,,,,,,2,,,55,62
8550,note_on,120,0,3,,,,,,,,,2,,,48,0
8640,note_on,0,0,3,,,,,,,,,2,,,60,0
8640,time_signature,210,1,0,5,16,6,8,,,,,,,,,
8640,note_on,90,0,3,,,,,,,,,2,,,64,0
8640,note_on,0,0,1,,,,,,,,,0,,,72,0
8640,note_on,210,0,1,,,,,,,,,0,,,76,0
8640,note_on,0,0,3,,,,,,,,,2,,,55,0
8670,note_on,30,0,1,,,,,,,,,0,,,72,75
8730,note_on,0,0,1,,,,,,,,,0,,,74,75
8730,note_on,60,0,1,,,,,,,,,0,,,72,0
8790,time_signature,150,1,0,3,4,24,8,,,,,,,,,
8790,note_on,60,0,1,,,,,,,,,0,,,74,0
8790,note_on,0,0,1,,,,,,,,,0,,,72,75
8790,note_on,150,0,3,,,,,,,,,2,,,57,62
8910,note_on,120,0,3,,,,,,,,,2,,,57,0
8910,note_on,0,0,3,,,,,,,,,2,,,64,62
8910,note_on,1560,0,2,,,,,,,,,1,,,81,88
8910,note_on,0,0,3,,,,,,,,,2,,,60,62
8910,note_on,0,0,1,,,,,,,,,0,,,76,101
8910,note_on,120,0,1,,,,,,,,,0,,,72,0
8922,note_on,12,0,3,,,,,,,,,2,,,64,0
8922,note_on,0,0,3,,,,,,,,,2,,,60,0
8970,note_on,0,0,1,,,,,,,,,0,,,74,75
8970,note_on,60,0,1,,,,,,,,,0,,,76,0
9030,note_on,0,0,3,,,,,,,,,2,,,64,62
9030,note_on,108,0,3,,,,,,,,,2,,,60,62
9030,note_on,0,0,1,,,,,,,,,0,,,72,75
9030,note_on,60,0,1,,,,,,,,,0,,,74,0
9042,note_on,0,0,3,,,,,,,,,2,,,60,0
9042,note_on,12,0,3,,,,,,,,,2,,,64,0
9090,note_on,60,0,1,,,,,,,,,0,,,72,0
9090,note_on,0,0,1,,,,,,,,,0,,,76,75
9150,note_on,60,0,1,,,,,,,,,0,,,76,0
9150,note_on,0,0,1,,,,,,,,,0,,,71,88
9150,note_on,240,0,2,,,,,,,,,1,,,81,0
9150,note_on,108,0,3,,,,,,,,,2,,,52,62
9270,note_on,120,0,3,,,,,,,,,2,,,52,0
9270,note_on,0,0,3,,,,,,,,,2,,,59,62
9270,note_on,120,0,2,,,,,,,,,1,,,80,88
9270,note_on,120,0,1,,,,,,,,,0,,,71,0
9270,note_on,0,0,1,,,,,,,,,0,,,76,114
9270,note_on,0,0,3,,,,,,,,,2,,,64,62
9270,note_on,0,0,3,,,,,,,,,2,,,68,62
9282,note_on,12,0,3,,,,,,,,,2,,,68,0
9282,note_on,0,0,3,,,,,,,,,2,,,59,0
9282,note_on,0,0,3,,,,,,,,,2,,,64,0
9390,note_on,0,0,3,,,,,,,,,2,,,68,62
9390,note_on,0,0,3,,,,,,,,,2,,,64,62
9390,note_on,108,0,3,,,,,,,,,2,,,59,62
9390,note_on,120,0,1,,,,,,,,,0,,,76,0
9390,note_on,0,0,1,,,,,,,,,0,,,71,88
9402,note_on,0,0,3,,,,,,,,,2,,,64,0
9402,note_on,0,0,3,,,,,,,,,2,,,59,0
9402,note_on,12,0,3,,,,,,,,,2,,,68,0
9510,note_on,240,0,2,,,,,,,,,1,,,80,0
9510,note_on,108,0,3,,,,,,,,,2,,,48,62
9510,note_on,120,0,1,,,,,,,,,0,,,71,0
9510,note_on,0,0,1,,,,,,,,,0,,,70,101
9630,note_on,120,0,3,,,,,,,,,2,,,48,0
9630,note_on,0,0,3,,,,,,,,,2,,,58,62
9630,note_on,0,0,3,,,,,,,,,2,,,60,62
9630,note_on,0,0,3,,,,,,,,,2,,,64,62
9630,note_on,0,0,1,,,,,,,,,0,,,76,101
9630,note_on,120,0,1,,,,,,,,,0,,,70,0
9630,note_on,120,0,2,,,,,,,,,1,,,79,62
9642,note_on,0,0,3,,,,,,,,,2,,,58,0
9642,note_on,0,0,3,,,,,,,,,2,,,60,0
9642,note_on,12,0,3,,,,,,,,,2,,,64,0
9690,note_on,0,0,1,,,,,,,,,0,,,74,101
9690,note_on,60,0,1,,,,,,,,,0,,,76,0
9750,note_on,0,0,1,,,,,,,,,0,,,72,101
9750,note_on,0,0,3,,,,,,,,,2,,,64,62
9750,note_on,0,0,3,,,,,,,,,2,,,60,62
9750,note_on,108,0,3,,,,,,,,,2,,,58,62
9750,note_on,60,0,1,,,,,,,,,0,,,74,0
9762,note_on,0,0,3,,,,,,,,,2,,,58,0
9762,note_on,0,0,3,,,,,,,,,2,,,60,0
9762,note_on,12,0,3,,,,,,,,,2,,,64,0
9810,note_on,60,0,1,,,,,,,,,0,,,72,0
9810,note_on,0,0,1,,,,,,,,,0,,,70,101
9870,note_on,240,0,2,,,,,,,,,1,,,79,0
9870,note_on,108,0,3,,,,,,,,,2,,,53,62
9870,note_on,60,0,1,,,,,,,,,0,,,70,0
9870,note_on,0,0,1,,,,,,,,,0,,,69,75
9990,note_on,120,0,3,,,,,,,,,2,,,53,0
9990,note_on,0,0,3,,,,,,,,,2,,,57,62
9990,note_on,0,0,3,,,,,,,,,2,,,60,62
9990,note_on,120,0,2,,,,,,,,,1,,,81,88
9990,note_on,0,0,3,,,,,,,,,2,,,65,62
9990,note_on,0,0,1,,,,,,,,,0,,,77,101
9990,note_on,120,0,1,,,,,,,,,0,,,69,0
10002,note_on,0,0,3,,,,,,,,,2,,,60,0
10002,note_on,0,0,3,,,,,,,,,2,,,57,0
10002,note_on,12,0,3,,,,,,,,,2,,,65,0
10110,note_on,0,0,3,,,,,,,,,2,,,65,62
10110,note_on,0,0,2,,,,,,,,,1,,,72,62
10110,note_on,108,0,3,,,,,,,,,2,,,57,62
10110,note_on,120,0,2,,,,,,,,,1,,,81,0
10110,note_on,0,0,3,,,,,,,,,2,,,60,62
10110,note_on,120,0,1,,,,,,,,,0,,,77,0
10110,note_on,0,0,1,,,,,,,,,0,,,69,75
10122,note_on,0,0,3,,,,,,,,,2,,,60,0
10122,note_on,12,0,3,,,,,,,,,2,,,65,0
10122,note_on,0,0,3,,,,,,,,,2,,,57,0
10230,note_on,120,0,1,,,,,,,,,0,,,69,0
10230,note_on,0,0,1,,,,,,,,,0,,,71,75
10230,note_on,0,0,1,,,,,,,,,0,,,74,75
10230,note_on,120,0,2,,,,,,,,,1,,,72,0
10230,note_on,108,0,3,,,,,,,,,2,,,43,62
10350,note_on,120,0,1,,,,,,,,,0,,,74,0
10350,note_on,0,0,3,,,,,,,,,2,,,65,62
10350,note_on,0,0,1,,,,,,,,,0,,,71,0
10350,note_on,0,0,3,,,,,,,,,2,,,59,62
10350,note_on,120,0,3,,,,,,,,,2,,,43,0
10350,note_on,0,0,3,,,,,,,,,2,,,55,62
10350,note_on,0,0,1,,,,,,,,,0,,,77,75
10350,note_on,0,0,1,,,,,,,,,0,,,81,75
10362,note_on,0,0,3,,,,,,,,,2,,,59,0
10362,note_on,12,0,3,,,,,,,,,2,,,65,0
10362,note_on,0,0,3,,,,,,,,,2,,,55,0
10410,note_on,0,0,1,,,,,,,,,0,,,79,75
10410,note_on,60,0,1,,,,,,,,,0,,,81,0
10410,note_on,0,0,1,,,,,,,,,0,,,77,0
10410,note_on,0,0,1,,,,,,,,,0,,,76,75
10470,note_on,0,0,3,,,,,,,,,2,,,65,62
10470,note_on,0,0,3,,,,,,,,,2,,,59,62
10470,note_on,108,0,3,,,,,,,,,2,,,55,62
10470,note_on,60,0,1,,,,,,,,,0,,,79,0
10470,note_on,0,0,1,,,,,,,,,0,,,74,75
10470,note_on,0,0,1,,,,,,,,,0,,,77,75
10470,note_on,0,0,1,,,,,,,,,0,,,76,0
10482,note_on,12,0,3,,,,,,,,,2,,,65,0
10482,note_on,0,0,3,,,,,,,,,2,,,55,0
10482,note_on,0,0,3,,,,,,,,,2,,,59,0
10530,note_on,60,0,1,,,,,,,,,0,,,77,0
10530,note_on,0,0,1,,,,,,,,,0,,,74,0
10530,note_on,0,0,1,,,,,,,,,0,,,76,75
10530,note_on,0,0,1,,,,,,,,,0,,,79,75
10590,note_on,0,0,1,,,,,,,,,0,,,76,75
10590,note_on,0,0,1,,,,,,,,,0,,,72,75
10590,note_on,0,0,1,,,,,,,,,0,,,76,0
10590,note_on,60,0,1,,,,,,,,,0,,,79,0
10590,note_on,108,0,3,,,,,,,,,2,,,48,62
10710,note_on,0,0,3,,,,,,,,,2,,,55,62
10710,note_on,0,0,3,,,,,,,,,2,,,60,62
10710,note_on,0,0,3,,,,,,,,,2,,,64,62
10710,note_on,120,0,1,,,,,,,,,0,,,76,0
10710,note_on,0,0,1,,,,,,,,,0,,,84,101
10710,note_on,0,0,1,,,,,,,,,0,,,79,93
10710,note_on,120,0,3,,,,,,,,,2,,,48,0
10710,note_on,0,0,1,,,,,,,,,0,,,72,0
10722,note_on,0,0,3,,,,,,,,,2,,,55,0
10722,note_on,0,0,3,,,,,,,,,2,,,60,0
10722,note_on,12,0,3,,,,,,,,,2,,,64,0
10830,note_on,108,0,3,,,,,,,,,2,,,55,62
10830,note_on,0,0,3,,,,,,,,,2,,,60,62
10830,note_on,0,0,3,,,,,,,,,2,,,64,62
10830,note_on,0,0,1,,,,,,,,,0,,,76,75
10830,note_on,0,0,1,,,,,,,,,0,,,72,75
10830,note_on,0,0,1,,,,,,,,,0,,,79,0
10830,note_on,120,0,1,,,,,,,,,0,,,84,0
10842,note_on,12,0,3,,,,,,,,,2,,,64,0
10842,note_on,0,0,3,,,,,,,,,2,,,60,0
10842,note_on,0,0,3,,,,,,,,,2,,,55,0
10950,note_on,0,0,1,,,,,,,,,0,,,74,75
10950,note_on,0,0,1,,,,,,,,,0,,,77,75
10950,note_on,120,0,1,,,,,,,,,0,,,76,0
10950,note_on,0,0,1,,,,,,,,,0,,,72,0
10950,note_on,108,0,3,,,,,,,,,2,,,43,62
11070,note_on,0,0,3,,,,,,,,,2,,,65,62
11070,note_on,0,0,3,,,,,,,,,2,,,59,62
11070,note_on,0,0,3,,,,,,,,,2,,,55,62
11070,note_on,0,0,1,,,,,,,,,0,,,81,75
11070,note_on,0,0,1,,,,,,,,,0,,,77,75
11070,note_on,0,0,1,,,,,,,,,0,,,74,0
11070,note_on,120,0,1,,,,,,,,,0,,,77,0
11070,note_on,120,0,3,,,,,,,,,2,,,43,0
11082,note_on,12,0,3,,,,,,,,,2,,,65,0
11082,note_on,0,0,3,,,,,,,,,2,,,55,0
11082,note_on,0,0,3,,,,,,,,,2,,,59,0
11130,note_on,0,0,1,,,,,,,,,0,,,79,75
11130,note_on,0,0,1,,,,,,,,,0,,,77,0
11130,note_on,0,0,1,,,,,,,,,0,,,76,75
11130,note_on,60,0,1,,,,,,,,,0,,,81,0
11190,note_on,0,0,3,,,,,,,,,2,,,65,62
11190,note_on,108,0,3,,,,,,,,,2,,,55,62
11190,note_on,0,0,3,,,,,,,,,2,,,59,62
11190,note_on,60,0,1,,,,,,,,,0,,,79,0
11190,note_on,0,0,1,,,,,,,,,0,,,76,0
11190,note_on,0,0,1,,,,,,,,,0,,,74,75
11190,note_on,0,0,1,,,,,,,,,0,,,77,75
11202,note_on,12,0,3,,,,,,,,,2,,,65,0
11202,note_on,0,0,3,,,,,,,,,2,,,59,0
11202,note_on,0,0,3,,,,,,,,,2,,,55,0
11250,note_on,0,0,1,,,,,,,,,0,,,79,75
11250,note_on,60,0,1,,,,,,,,,0,,,77,0
11250,note_on,0,0,1,,,,,,,,,0,,,74,0
11250,note_on,0,0,1,,,,,,,,,0,,,76,75
11310,note_on,0,0,1,,,,,,,,,0,,,76,0
11310,note_on,0,0,1,,,,,,,,,0,,,72,75
11310,note_on,0,0,1,,,,,,,,,0,,,76,75
11310,note_on,108,0,3,,,,,,,,,2,,,48,62
11310,note_on,60,0,1,,,,,,,,,0,,,79,0
11310,time_signature,2520,1,0,7,16,6,8,,,,,,,,,
11430,note_on,0,0,3,,,,,,,,,2,,,64,62
11430,note_on,0,0,3,,,,,,,,,2,,,60,62
11430,note_on,0,0,3,,,,,,,,,2,,,55,62
11430,note_on,120,0,3,,,,,,,,,2,,,48,0
11520,note_on,0,0,3,,,,,,,,,2,,,55,0
11520,note_on,0,0,2,,,,,,,,,1,,,76,62
11520,note_on,1290,0,2,,,,,,,,,1,,,72,62
11520,note_on,90,0,3,,,,,,,,,2,,,64,0
11520,note_on,0,0,3,,,,,,,,,2,,,60,0
11520,time_signature,210,1,0,5,16,6,8,,,,,,,,,
11520,note_on,0,0,1,,,,,,,,,0,,,79,75
11520,note_on,0,0,1,,,,,,,,,0,,,72,0
11520,note_on,210,0,1,,,,,,,,,0,,,76,0
11550,note_on,0,0,2,,,,,,,,,1,,,72,0
11550,note_on,0,0,1,,,,,,,,,0,,,79,101
11550,note_on,0,0,2,,,,,,,,,1,,,72,80
11550,note_on,30,0,2,,,,,,,,,1,,,76,0
11550,note_on,30,0,1,,,,,,,,,0,,,79,0
11550,note_on,0,0,2,,,,,,,,,1,,,76,88
11610,note_on,0,0,1,,,,,,,,,0,,,81,75
11610,note_on,60,0,1,,,,,,,,,0,,,79,0
11670,note_on,120,0,2,,,,,,,,,1,,,76,0
11670,note_on,150,0,3,,,,,,,,,2,,,48,62
11670,time_signature,150,1,0,3,4,24,8,,,,,,,,,
11670,note_on,0,0,2,,,,,,,,,1,,,72,0
11670,note_on,0,0,1,,,,,,,,,0,,,67,75
11670,note_on,60,0,1,,,,,,,,,0,,,81,0
11670,note_on,0,0,1,,,,,,,,,0,,,76,75
11670,note_on,0,0,1,,,,,,,,,0,,,72,75
11790,note_on,0,0,3,,,,,,,,,2,,,64,62
11790,note_on,0,0,3,,,,,,,,,2,,,60,62
11790,note_on,0,0,3,,,,,,,,,2,,,55,62
11790,note_on,120,0,3,,,,,,,,,2,,,48,0
11790,note_on,120,0,1,,,,,,,,,0,,,76,0
11790,note_on,0,0,1,,,,,,,,,0,,,67,75
11790,note_on,0,0,1,,,,,,,,,0,,,72,0
11790,note_on,0,0,1,,,,,,,,,0,,,76,75
11790,note_on,0,0,1,,,,,,,,,0,,,72,75
11790,note_on,0,0,1,,,,,,,,,0,,,67,0
11802,note_on,0,0,3,,,,,,,,,2,,,55,0
11802,note_on,0,0,3,,,,,,,,,2,,,60,0
11802,note_on,12,0,3,,,,,,,,,2,,,64,0
11910,note_on,108,0,3,,,,,,,,,2,,,55,62
11910,note_on,0,0,1,,,,,,,,,0,,,67,75
11910,note_on,0,0,1,,,,,,,,,0,,,76,75
11910,note_on,0,0,1,,,,,,,,,0,,,72,75
11910,note_on,120,0,1,,,,,,,,,0,,,76,0
11910,note_on,0,0,1,,,,,,,,,0,,,72,0
11910,note_on,0,0,3,,,,,,,,,2,,,60,62
11910,note_on,0,0,1,,,,,,,,,0,,,67,0
11910,note_on,0,0,3,,,,,,,,,2,,,64,62
11922,note_on,0,0,3,,,,,,,,,2,,,60,0
11922,note_on,0,0,3,,,,,,,,,2,,,55,0
11922,note_on,12,0,3,,,,,,,,,2,,,64,0
12030,note_on,120,0,1,,,,,,,,,0,,,76,0
12030,note_on,0,0,1,,,,,,,,,0,,,67,75
12030,note_on,0,0,1,,,,,,,,,0,,,67,0
12030,note_on,0,0,1,,,,,,,,,0,,,72,0
12030,note_on,0,0,1,,,,,,,,,0,,,76,75
12030,note_on,108,0,3,,,,,,,,,2,,,43,62
12030,note_on,0,0,1,,,,,,,,,0,,,72,75
12150,note_on,0,0,3,,,,,,,,,2,,,55,62
12150,note_on,0,0,1,,,,,,,,,0,,,74,75
12150,note_on,0,0,1,,,,,,,,,0,,,71,75
12150,note_on,0,0,1,,,,,,,,,0,,,72,0
12150,note_on,0,0,3,,,,,,,,,2,,,62,62
12150,note_on,0,0,3,,,,,,,,,2,,,59,62
12150,note_on,120,0,3,,,,,,,,,2,,,43,0
12150,note_on,120,0,1,,,,,,,,,0,,,76,0
12162,note_on,0,0,3,,,,,,,,,2,,,55,0
12162,note_on,0,0,3,,,,,,,,,2,,,59,0
12162,note_on,12,0,3,,,,,,,,,2,,,62,0
12240,note_on,0,0,1,,,,,,,,,0,,,67,0
12240,note_on,0,0,1,,,,,,,,,0,,,71,0
12240,note_on,0,0,1,,,,,,,,,0,,,74,75
12240,note_on,0,0,1,,,,,,,,,0,,,71,75
12240,note_on,0,0,1,,,,,,,,,0,,,67,75
12240,note_on,90,0,1,,,,,,,,,0,,,74,0
12270,note_on,30,0,1,,,,,,,,,0,,,74,0
12270,note_on,0,0,1,,,,,,,,,0,,,71,0
12270,note_on,0,0,1,,,,,,,,,0,,,74,101
12270,note_on,0,0,2,,,,,,,,,1,,,71,88
12270,note_on,108,0,3,,,,,,,,,2,,,55,62
12270,note_on,0,0,3,,,,,,,,,2,,,59,62
12270,note_on,0,0,3,,,,,,,,,2,,,62,62
12270,note_on,0,0,1,,,,,,,,,0,,,67,0
12270,note_on,600,0,2,,,,,,,,,1,,,67,80
12282,note_on,12,0,3,,,,,,,,,2,,,62,0
12282,note_on,0,0,3,,,,,,,,,2,,,59,0
12282,note_on,0,0,3,,,,,,,,,2,,,55,0
12330,note_on,0,0,1,,,,,,,,,0,,,76,75
12330,note_on,60,0,1,,,,,,,,,0,,,74,0
12390,note_on,0,0,2,,,,,,,,,1,,,67,0
12390,note_on,0,0,2,,,,,,,,,1,,,66,62
12390,note_on,120,0,2,,,,,,,,,1,,,71,0
12390,note_on,60,0,1,,,,,,,,,0,,,76,0
12390,note_on,0,0,1,,,,,,,,,0,,,76,75
12390,note_on,108,0,3,,,,,,,,,2,,,38,62
12450,note_on,60,0,1,,,,,,,,,0,,,76,0
12450,note_on,0,0,1,,,,,,,,,0,,,74,75
12510,note_on,60,0,1,,,,,,,,,0,,,74,0
12510,note_on,0,0,1,,,,,,,,,0,,,74,75
12510,note_on,120,0,2,,,,,,,,,1,,,66,0
12510,note_on,0,0,2,,,,,,,,,1,,,66,62
12510,note_on,0,0,3,,,,,,,,,2,,,60,62
12510,note_on,0,0,3,,,,,,,,,2,,,57,62
12510,note_on,0,0,3,,,,,,,,,2,,,50,62
12510,note_on,120,0,3,,,,,,,,,2,,,38,0
12522,note_on,12,0,3,,,,,,,,,2,,,60,0
12522,note_on,0,0,3,,,,,,,,,2,,,57,0
12522,note_on,0,0,3,,,,,,,,,2,,,50,0
12570,note_on,0,0,1,,,,,,,,,0,,,76,75
12570,note_on,60,0,1,,,,,,,,,0,,,74,0
12630,note_on,0,0,2,,,,,,,,,1,,,66,62
12630,note_on,0,0,1,,,,,,,,,0,,,72,75
12630,note_on,60,0,1,,,,,,,,,0,,,76,0
12630,note_on,108,0,3,,,,,,,,,2,,,50,62
12630,note_on,0,0,3,,,,,,,,,2,,,60,62
12630,note_on,0,0,3,,,,,,,,,2,,,57,62
12630,note_on,120,0,2,,,,,,,,,1,,,66,0
12642,note_on,12,0,3,,,,,,,,,2,,,60,0
12642,note_on,0,0,3,,,,,,,,,2,,,57,0
12642,note_on,0,0,3,,,,,,,,,2,,,50,0
12690,note_on,60,0,1,,,,,,,,,0,,,72,0
12690,note_on,0,0,1,,,,,,,,,0,,,74,75
12750,note_on,0,0,2,,,,,,,,,1,,,67,62
12750,note_on,120,0,2,,,,,,,,,1,,,66,0
12750,note_on,0,0,1,,,,,,,,,0,,,71,75
12750,note_on,60,0,1,,,,,,,,,0,,,74,0
12750,note_on,108,0,3,,,,,,,,,2,,,43,62
12870,note_on,120,0,3,,,,,,,,,2,,,43,0
12870,note_on,0,0,3,,,,,,,,,2,,,50,62
12870,note_on,0,0,3,,,,,,,,,2,,,59,62
12870,note_on,0,0,3,,,,,,,,,2,,,55,62
12960,note_on,210,0,1,,,,,,,,,0,,,71,0
12960,note_on,0,0,1,,,,,,,,,0,,,74,75
12960,note_on,0,0,1,,,,,,,,,0,,,79,75
12960,note_on,0,0,1,,,,,,,,,0,,,83,75
12960,note_on,210,0,2,,,,,,,,,1,,,67,0
12990,note_on,0,0,2,,,,,,,,,1,,,79,88
12990,note_on,30,0,2,,,,,,,,,1,,,74,80
12990,note_on,0,0,1,,,,,,,,,0,,,74,0
12990,note_on,0,0,1,,,,,,,,,0,,,79,0
12990,note_on,0,0,1,,,,,,,,,0,,,83,101
12990,note_on,30,0,1,,,,,,,,,0,,,83,0
12990,note_on,120,0,3,,,,,,,,,2,,,59,0
12990,note_on,0,0,3,,,,,,,,,2,,,55,0
12990,note_on,0,0,3,,,,,,,,,2,,,50,0
13050,note_on,60,0,1,,,,,,,,,0,,,83,0
13050,note_on,0,0,1,,,,,,,,,0,,,84,75
13110,note_on,0,0,2,,,,,,,,,1,,,74,0
13110,note_on,60,0,1,,,,,,,,,0,,,84,0
13110,note_on,0,0,1,,,,,,,,,0,,,71,75
13110,note_on,120,0,3,,,,,,,,,2,,,43,62
13110,note_on,0,0,1,,,,,,,,,0,,,77,75
13110,note_on,0,0,1,,,,,,,,,0,,,81,75
13110,note_on,120,0,2,,,,,,,,,1,,,79,0
13230,note_on,120,0,1,,,,,,,,,0,,,81,0
13230,note_on,0,0,3,,,,,,,,,2,,,65,62
13230,note_on,0,0,1,,,,,,,,,0,,,81,75
13230,note_on,0,0,1,,,,,,,,,0,,,77,75
13230,note_on,0,0,1,,,,,,,,,0,,,77,0
13230,note_on,0,0,1,,,,,,,,,0,,,71,0
13230,note_on,120,0,3,,,,,,,,,2,,,43,0
13230,note_on,0,0,3,,,,,,,,,2,,,55,62
13230,note_on,0,0,3,,,,,,,,,2,,,62,62
13230,note_on,0,0,1,,,,,,,,,0,,,71,75
13242,note_on,0,0,3,,,,,,,,,2,,,55,0
13242,note_on,12,0,3,,,,,,,,,2,,,65,0
13242,note_on,0,0,3,,,,,,,,,2,,,62,0
13350,note_on,108,0,3,,,,,,,,,2,,,55,62
13350,note_on,0,0,1,,,,,,,,,0,,,81,75
13350,note_on,0,0,1,,,,,,,,,0,,,77,75
13350,note_on,0,0,1,,,,,,,,,0,,,71,0
13350,note_on,0,0,1,,,,,,,,,0,,,71,75
13350,note_on,0,0,3,,,,,,,,,2,,,62,62
13350,note_on,120,0,1,,,,,,,,,0,,,81,0
13350,note_on,0,0,1,,,,,,,,,0,,,77,0
13350,note_on,0,0,3,,,,,,,,,2,,,65,62
13362,note_on,12,0,3,,,,,,,,,2,,,65,0
13362,note_on,0,0,3,,,,,,,,,2,,,62,0
13362,note_on,0,0,3,,,,,,,,,2,,,55,0
13470,note_on,108,0,3,,,,,,,,,2,,,48,62
13470,note_on,0,0,1,,,,,,,,,0,,,77,0
13470,note_on,0,0,1,,,,,,,,,0,,,71,0
13470,note_on,0,0,1,,,,,,,,,0,,,72,75
13470,note_on,0,0,1,,,,,,,,,0,,,77,75
13470,note_on,0,0,1,,,,,,,,,0,,,81,75
13470,note_on,120,0,1,,,,,,,,,0,,,81,0
13590,note_on,0,0,3,,,,,,,,,2,,,64,62
13590,note_on,0,0,3,,,,,,,,,2,,,60,62
13590,note_on,0,0,3,,,,,,,,,2,,,55,62
13590,note_on,120,0,1,,,,,,,,,0,,,81,0
13590,note_on,0,0,1,,,,,,,,,0,,,76,75
13590,note_on,0,0,1,,,,,,,,,0,,,77,0
13590,note_on,120,0,3,,,,,,,,,2,,,48,0
13590,note_on,0,0,1,,,,,,,,,0,,,79,75
13602,note_on,12,0,3,,,,,,,,,2,,,64,0
13602,note_on,0,0,3,,,,,,,,,2,,,60,0
13602,note_on,0,0,3,,,,,,,,,2,,,55,0
13680,note_on,90,0,1,,,,,,,,,0,,,79,0
13680,note_on,0,0,1,,,,,,,,,0,,,76,0
13680,note_on,0,0,1,,,,,,,,,0,,,72,0
13680,note_on,0,0,1,,,,,,,,,0,,,72,75
13680,note_on,0,0,1,,,,,,,,,0,,,76,75
13680,note_on,0,0,1,,,,,,,,,0,,,79,75
13710,note_on,0,0,2,,,,,,,,,1,,,76,88
13710,note_on,108,0,3,,,,,,,,,2,,,55,62
13710,note_on,600,0,2,,,,,,,,,1,,,72,80
13710,note_on,30,0,1,,,,,,,,,0,,,79,0
13710,note_on,0,0,1,,,,,,,,,0,,,79,101
13710,note_on,0,0,3,,,,,,,,,2,,,60,62
13710,note_on,0,0,1,,,,,,,,,0,,,72,0
13710,note_on,0,0,1,,,,,,,,,0,,,76,0
13710,note_on,0,0,3,,,,,,,,,2,,,64,62
13722,note_on,0,0,3,,,,,,,,,2,,,55,0
13722,note_on,12,0,3,,,,,,,,,2,,,64,0
13722,note_on,0,0,3,,,,,,,,,2,,,60,0
13770,note_on,0,0,1,,,,,,,,,0,,,81,75
13770,note_on,60,0,1,,,,,,,,,0,,,79,0
13830,note_on,108,0,3,,,,,,,,,2,,,48,62
13830,note_on,120,0,2,,,,,,,,,1,,,76,0
13830,note_on,0,0,2,,,,,,,,,1,,,72,0
13830,note_on,0,0,2,,,,,,,,,1,,,76,62
13830,note_on,0,0,1,,,,,,,,,0,,,81,75
13830,note_on,60,0,1,,,,,,,,,0,,,81,0
13890,note_on,0,0,1,,,,,,,,,0,,,79,75
13890,note_on,60,0,1,,,,,,,,,0,,,81,0
13950,note_on,0,0,1,,,,,,,,,0,,,79,75
13950,note_on,120,0,2,,,,,,,,,1,,,76,0
13950,note_on,0,0,3,,,,,,,,,2,,,52,62
13950,note_on,60,0,1,,,,,,,,,0,,,79,0
13950,note_on,120,0,3,,,,,,,,,2,,,48,0
13950,note_on,0,0,2,,,,,,,,,1,,,76,62
14010,note_on,60,0,1,,,,,,,,,0,,,79,0
14010,note_on,0,0,1,,,,,,,,,0,,,84,75
14070,note_on,0,0,3,,,,,,,,,2,,,65,62
14070,note_on,0,0,3,,,,,,,,,2,,,55,62
14070,note_on,120,0,3,,,,,,,,,2,,,52,0
14070,note_on,60,0,1,,,,,,,,,0,,,84,0
14070,note_on,0,0,1,,,,,,,,,0,,,74,75
14070,note_on,0,0,2,,,,,,,,,1,,,71,62
14070,note_on,120,0,2,,,,,,,,,1,,,76,0
14130,note_on,60,0,1,,,,,,,,,0,,,74,0
14130,note_on,0,0,1,,,,,,,,,0,,,79,75
14190,note_on,0,0,1,,,,,,,,,0,,,72,75
14190,time_signature,2520,1,0,7,16,6,8,,,,,,,,,
14190,note_on,120,0,2,,,,,,,,,1,,,71,0
14190,note_on,0,0,3,,,,,,,,,2,,,55,0
14190,note_on,0,0,3,,,,,,,,,2,,,48,62
14190,note_on,60,0,1,,,,,,,,,0,,,79,0
14190,note_on,120,0,3,,,,,,,,,2,,,65,0
14310,note_on,0,0,3,,,,,,,,,2,,,64,62
14310,note_on,0,0,3,,,,,,,,,2,,,60,62
14310,note_on,120,0,3,,,,,,,,,2,,,48,0
14400,note_on,0,0,3,,,,,,,,,2,,,60,0
14400,note_on,90,0,3,,,,,,,,,2,,,64,0
14400,note_on,210,0,1,,,,,,,,,0,,,72,0
14400,note_on,0,0,1,,,,,,,,,0,,,79,75
14400,time_signature,210,1,0,5,16,6,8,,,,,,,,,
14400,note_on,210,0,2,,,,,,,,,1,,,72,62
14400,note_on,0,0,2,,,,,,,,,1,,,76,62
14430,note_on,0,0,1,,,,,,,,,0,,,79,101
14430,note_on,0,0,2,,,,,,,,,1,,,76,88
14430,note_on,0,0,2,,,,,,,,,1,,,72,0
14430,note_on,30,0,2,,,,,,,,,1,,,76,0
14430,note_on,30,0,1,,,,,,,,,0,,,79,0
14430,note_on,0,0,2,,,,,,,,,1,,,72,80
14490,note_on,60,0,1,,,,,,,,,0,,,79,0
14490,note_on,0,0,1,,,,,,,,,0,,,81,75
14550,note_on,60,0,1,,,,,,,,,0,,,81,0
14550,note_on,0,0,1,,,,,,,,,0,,,67,75
14550,note_on,0,0,1,,,,,,,,,0,,,72,75
14550,note_on,0,0,1,,,,,,,,,0,,,76,75
14550,note_on,0,0,2,,,,,,,,,1,,,72,0
14550,note_on,120,0,2,,,,,,,,,1,,,76,0
14550,note_on,150,0,3,,,,,,,,,2,,,48,62
14550,time_signature,150,1,0,3,4,24,8,,,,,,,,,
14670,note_on,0,0,1,,,,,,,,,0,,,72,75
14670,note_on,0,0,1,,,,,,,,,0,,,76,75
14670,note_on,0,0,1,,,,,,,,,0,,,67,0
14670,note_on,0,0,1,,,,,,,,,0,,,67,75
14670,note_on,0,0,3,,,,,,,,,2,,,64,62
14670,note_on,0,0,3,,,,,,,,,2,,,60,62
14670,note_on,0,0,3,,,,,,,,,2,,,55,62
14670,note_on,120,0,3,,,,,,,,,2,,,48,0
14670,note_on,0,0,1,,,,,,,,,0,,,72,0
14670,note_on,120,0,1,,,,,,,,,0,,,76,0
14682,note_on,0,0,3,,,,,,,,,2,,,60,0
14682,note_on,0,0,3,,,,,,,,,2,,,55,0
14682,note_on,12,0,3,,,,,,,,,2,,,64,0
14790,note_on,0,0,3,,,,,,,,,2,,,60,62
14790,note_on,108,0,3,,,,,,,,,2,,,55,62
14790,note_on,0,0,3,,,,,,,,,2,,,64,62
14790,note_on,120,0,1,,,,,,,,,0,,,76,0
14790,note_on,0,0,1,,,,,,,,,0,,,72,0
14790,note_on,0,0,1,,,,,,,,,0,,,67,0
14790,note_on,0,0,1,,,,,,,,,0,,,67,75
14790,note_on,0,0,1,,,,,,,,,0,,,72,75
14790,note_on,0,0,1,,,,,,,,,0,,,76,75
14802,note_on,12,0,3,,,,,,,,,2,,,64,0
14802,note_on,0,0,3,,,,,,,,,2,,,55,0
14802,note_on,0,0,3,,,,,,,,,2,,,60,0
14910,note_on,0,0,1,,,,,,,,,0,,,67,75
14910,note_on,0,0,1,,,,,,,,,0,,,67,0
14910,note_on,0,0,1,,,,,,,,,0,,,72,0
14910,note_on,120,0,1,,,,,,,,,0,,,76,0
14910,note_on,0,0,1,,,,,,,,,0,,,76,75
14910,note_on,0,0,1,,,,,,,,,0,,,72,75
14910,note_on,108,0,3,,,,,,,,,2,,,43,62
15030,note_on,120,0,1,,,,,,,,,0,,,76,0
15030,note_on,0,0,1,,,,,,,,,0,,,72,0
15030,note_on,0,0,1,,,,,,,,,0,,,71,75
15030,note_on,0,0,1,,,,,,,,,0,,,74,75
15030,note_on,0,0,3,,,,,,,,,2,,,62,62
15030,note_on,0,0,3,,,,,,,,,2,,,59,62
15030,note_on,0,0,3,,,,,,,,,2,,,55,62
15030,note_on,120,0,3,,,,,,,,,2,,,43,0
15042,note_on,12,0,3,,,,,,,,,2,,,62,0
15042,note_on,0,0,3,,,,,,,,,2,,,55,0
15042,note_on,0,0,3,,,,,,,,,2,,,59,0
15120,note_on,0,0,1,,,,,,,,,0,,,71,0
15120,note_on,0,0,1,,,,,,,,,0,,,67,0
15120,note_on,0,0,1,,,,,,,,,0,,,74,75
15120,note_on,90,0,1,,,,,,,,,0,,,74,0
15120,note_on,0,0,1,,,,,,,,,0,,,67,75
15120,note_on,0,0,1,,,,,,,,,0,,,71,75
15150,note_on,0,0,1,,,,,,,,,0,,,71,0
15150,note_on,30,0,1,,,,,,,,,0,,,74,0
15150,note_on,108,0,3,,,,,,,,,2,,,55,62
15150,note_on,0,0,1,,,,,,,,,0,,,74,101
15150,note_on,0,0,3,,,,,,,,,2,,,62,62
15150,note_on,0,0,3,,,,,,,,,2,,,59,62
15150,note_on,0,0,1,,,,,,,,,0,,,67,0
15150,note_on,600,0,2,,,,,,,,,1,,,67,80
15150,note_on,0,0,2,,,,,,,,,1,,,71,88
15162,note_on,0,0,3,,,,,,,,,2,,,55,0
15162,note_on,0,0,3,,,,,,,,,2,,,59,0
15162,note_on,12,0,3,,,,,,,,,2,,,62,0
15210,note_on,60,0,1,,,,,,,,,0,,,74,0
15210,note_on,0,0,1,,,,,,,,,0,,,76,75
15270,note_on,60,0,1,,,,,,,,,0,,,76,0
15270,note_on,0,0,1,,,,,,,,,0,,,76,75
15270,note_on,0,0,2,,,,,,,,,1,,,67,0
15270,note_on,0,0,2,,,,,,,,,1,,,66,62
15270,note_on,108,0,3,,,,,,,,,2,,,38,62
15270,note_on,120,0,2,,,,,,,,,1,,,71,0
15330,note_on,0,0,1,,,,,,,,,0,,,74,75
15330,note_on,60,0,1,,,,,,,,,0,,,76,0
15390,note_on,120,0,2,,,,,,,,,1,,,66,0
15390,note_on,0,0,2,,,,,,,,,1,,,66,62
15390,note_on,0,0,1,,,,,,,,,0,,,74,75
15390,note_on,60,0,1,,,,,,,,,0,,,74,0
15390,note_on,120,0,3,,,,,,,,,2,,,38,0
15390,note_on,0,0,3,,,,,,,,,2,,,50,62
15390,note_on,0,0,3,,,,,,,,,2,,,57,62
15390,note_on,0,0,3,,,,,,,,,2,,,60,62
15402,note_on,0,0,3,,,,,,,,,2,,,50,0
15402,note_on,0,0,3,,,,,,,,,2,,,57,0
15402,note_on,12,0,3,,,,,,,,,2,,,60,0
15450,note_on,60,0,1,,,,,,,,,0,,,74,0
15450,note_on,0,0,1,,,,,,,,,0,,,76,75
15510,note_on,60,0,1,,,,,,,,,0,,,76,0
15510,note_on,0,0,3,,,,,,,,,2,,,60,62
15510,note_on,0,0,3,,,,,,,,,2,,,57,62
15510,note_on,108,0,3,,,,,,,,,2,,,50,62
15510,note_on,120,0,2,,,,,,,,,1,,,66,0
15510,note_on,0,0,2,,,,,,,,,1,,,66,62
15510,note_on,0,0,1,,,,,,,,,0,,,72,75
15522,note_on,0,0,3,,,,,,,,,2,,,57,0
15522,note_on,12,0,3,,,,,,,,,2,,,60,0
15522,note_on,0,0,3,,,,,,,,,2,,,50,0
15570,note_on,60,0,1,,,,,,,,,0,,,72,0
15570,note_on,0,0,1,,,,,,,,,0,,,74,75
15630,note_on,108,0,3,,,,,,,,,2,,,43,62
15630,note_on,120,0,2,,,,,,,,,1,,,66,0
15630,note_on,60,0,1,,,,,,,,,0,,,74,0
15630,note_on,0,0,1,,,,,,,,,0,,,71,75
15630,note_on,0,0,2,,,,,,,,,1,,,67,62
15750,note_on,0,0,3,,,,,,,,,2,,,59,62
15750,note_on,0,0,3,,,,,,,,,2,,,50,62
15750,note_on,120,0,3,,,,,,,,,2,,,43,0
15750,note_on,0,0,3,,,,,,,,,2,,,55,62
15840,note_on,210,0,2,,,,,,,,,1,,,67,0
15840,note_on,0,0,1,,,,,,,,,0,,,79,75
15840,note_on,0,0,1,,,,,,,,,0,,,83,75
15840,note_on,0,0,1,,,,,,,,,0,,,74,75
15840,note_on,210,0,1,,,,,,,,,0,,,71,0
15870,note_on,0,0,1,,,,,,,,,0,,,83,101
15870,note_on,0,0,1,,,,,,,,,0,,,79,0
15870,note_on,30,0,1,,,,,,,,,0,,,83,0
15870,note_on,0,0,2,,,,,,,,,1,,,79,88
15870,note_on,120,0,3,,,,,,,,,2,,,59,0
15870,note_on,0,0,3,,,,,,,,,2,,,55,0
15870,note_on,0,0,3,,,,,,,,,2,,,50,0
15870,note_on,0,0,1,,,,,,,,,0,,,74,0
15870,note_on,30,0,2,,,,,,,,,1,,,74,80
15930,note_on,60,0,1,,,,,,,,,0,,,83,0
15930,note_on,0,0,1,,,,,,,,,0,,,84,75
15990,note_on,60,0,1,,,,,,,,,0,,,84,0
15990,note_on,0,0,2,,,,,,,,,1,,,74,0
15990,note_on,0,0,1,,,,,,,,,0,,,81,75
15990,note_on,0,0,1,,,,,,,,,0,,,77,75
15990,note_on,0,0,1,,,,,,,,,0,,,71,75
15990,note_on,120,0,3,,,,,,,,,2,,,43,62
15990,note_on,120,0,2,,,,,,,,,1,,,79,0
16110,note_on,0,0,1,,,,,,,,,0,,,71,0
16110,note_on,0,0,1,,,,,,,,,0,,,77,0
16110,note_on,120,0,1,,,,,,,,,0,,,81,0
16110,note_on,0,0,3,,,,,,,,,2,,,65,62
16110,note_on,120,0,3,,,,,,,,,2,,,43,0
16110,note_on,0,0,3,,,,,,,,,2,,,55,62
16110,note_on,0,0,1,,,,,,,,,0,,,71,75
16110,note_on,0,0,1,,,,,,,,,0,,,77,75
16110,note_on,0,0,1,,,,,,,,,0,,,81,75
16110,note_on,0,0,3,,,,,,,,,2,,,62,62
16122,note_on,0,0,3,,,,,,,,,2,,,55,0
16122,note_on,12,0,3,,,,,,,,,2,,,65,0
16122,note_on,0,0,3,,,,,,,,,2,,,62,0
16230,note_on,0,0,1,,,,,,,,,0,,,81,75
16230,note_on,0,0,1,,,,,,,,,0,,,77,75
16230,note_on,0,0,1,,,,,,,,,0,,,71,75
16230,note_on,0,0,1,,,,,,,,,0,,,71,0
16230,note_on,0,0,1,,,,,,,,,0,,,77,0
16230,note_on,0,0,3,,,,,,,,,2,,,65,62
16230,note_on,0,0,3,,,,,,,,,2,,,62,62
16230,note_on,108,0,3,,,,,,,,,2,,,55,62
16230,note_on,120,0,1,,,,,,,,,0,,,81,0
16242,note_on,0,0,3,,,,,,,,,2,,,62,0
16242,note_on,0,0,3,,,,,,,,,2,,,55,0
16242,note_on,12,0,3,,,,,,,,,2,,,65,0
16350,note_on,108,0,3,,,,,,,,,2,,,48,62
16350,note_on,0,0,1,,,,,,,,,0,,,77,75
16350,note_on,120,0,1,,,,,,,,,0,,,81,0
16350,note_on,0,0,1,,,,,,,,,0,,,77,0
16350,note_on,0,0,1,,,,,,,,,0,,,71,0
16350,note_on,0,0,1,,,,,,,,,0,,,72,75
16350,note_on,0,0,1,,,,,,,,,0,,,81,75
16470,note_on,0,0,1,,,,,,,,,0,,,77,0
16470,note_on,0,0,1,,,,,,,,,0,,,76,75
16470,note_on,0,0,3,,,,,,,,,2,,,64,62
16470,note_on,0,0,3,,,,,,,,,2,,,60,62
16470,note_on,0,0,3,,,,,,,,,2,,,55,62
16470,note_on,120,0,3,,,,,,,,,2,,,48,0
16470,note_on,0,0,1,,,,,,,,,0,,,79,75
16470,note_on,120,0,1,,,,,,,,,0,,,81,0
16482,note_on,0,0,3,,,,,,,,,2,,,55,0
16482,note_on,0,0,3,,,,,,,,,2,,,60,0
16482,note_on,12,0,3,,,,,,,,,2,,,64,0
16560,note_on,0,0,1,,,,,,,,,0,,,79,75
16560,note_on,0,0,1,,,,,,,,,0,,,72,0
16560,note_on,0,0,1,,,,,,,,,0,,,72,75
16560,note_on,0,0,1,,,,,,,,,0,,,76,75
16560,note_on,90,0,1,,,,,,,,,0,,,79,0
16560,note_on,0,0,1,,,,,,,,,0,,,76,0
16590,note_on,0,0,3,,,,,,,,,2,,,60,62
16590,note_on,108,0,3,,,,,,,,,2,,,55,62
16590,note_on,0,0,2,,,,,,,,,1,,,76,88
16590,note_on,0,0,1,,,,,,,,,0,,,79,101
16590,note_on,0,0,1,,,,,,,,,0,,,72,0
16590,note_on,0,0,1,,,,,,,,,0,,,76,0
16590,note_on,30,0,1,,,,,,,,,0,,,79,0
16590,note_on,600,0,2,,,,,,,,,1,,,72,80
16590,note_on,0,0,3,,,,,,,,,2,,,64,62
16602,note_on,12,0,3,,,,,,,,,2,,,64,0
16602,note_on,0,0,3,,,,,,,,,2,,,60,0
16602,note_on,0,0,3,,,,,,,,,2,,,55,0
16650,note_on,0,0,1,,,,,,,,,0,,,81,75
16650,note_on,60,0,1,,,,,,,,,0,,,79,0
16710,note_on,120,0,2,,,,,,,,,1,,,76,0
16710,note_on,0,0,2,,,,,,,,,1,,,72,0
16710,note_on,108,0,3,,,,,,,,,2,,,48,62
16710,note_on,60,0,1,,,,,,,,,0,,,81,0
16710,note_on,0,0,1,,,,,,,,,0,,,81,75
16710,note_on,0,0,2,,,,,,,,,1,,,76,62
16770,note_on,0,0,1,,,,,,,,,0,,,79,75
16770,note_on,60,0,1,,,,,,,,,0,,,81,0
16830,note_on,60,0,1,,,,,,,,,0,,,79,0
16830,note_on,0,0,1,,,,,,,,,0,,,79,75
16830,note_on,0,0,2,,,,,,,,,1,,,76,62
16830,note_on,120,0,2,,,,,,,,,1,,,76,0
16830,note_on,120,0,3,,,,,,,,,2,,,48,0
16830,note_on,0,0,3,,,,,,,,,2,,,52,62
16890,note_on,60,0,1,,,,,,,,,0,,,79,0
16890,note_on,0,0,1,,,,,,,,,0,,,84,75
16950,note_on,0,0,3,,,,,,,,,2,,,55,62
16950,note_on,60,0,1,,,,,,,,,0,,,84,0
16950,note_on,0,0,3,,,,,,,,,2,,,65,62
16950,note_on,120,0,2,,,,,,,,,1,,,76,0
16950,note_on,0,0,2,,,,,,,,,1,,,71,62
16950,note_on,120,0,3,,,,,,,,,2,,,52,0
16950,note_on,0,0,1,,,,,,,,,0,,,74,75
17010,note_on,0,0,1,,,,,,,,,0,,,79,75
17010,note_on,60,0,1,,,,,,,,,0,,,74,0
17070,note_on,60,0,1,,,,,,,,,0,,,79,0
17070,note_on,0,0,1,,,,,,,,,0,,,72,75
17070,time_signature,2520,1,0,7,16,6,8,,,,,,,,,
17070,note_on,0,0,3,,,,,,,,,2,,,55,0
17070,note_on,120,0,2,,,,,,,,,1,,,71,0
17070,note_on,120,0,3,,,,,,,,,2,,,65,0
17070,note_on,0,0,3,,,,,,,,,2,,,48,62
17190,note_on,120,0,3,,,,,,,,,2,,,48,0
17190,note_on,0,0,3,,,,,,,,,2,,,60,62
17190,note_on,0,0,3,,,,,,,,,2,,,64,62
17280,note_on,0,0,1,,,,,,,,,0,,,79,49
17280,note_on,0,0,1,,,,,,,,,0,,,75,49
17280,note_on,210,0,1,,,,,,,,,0,,,72,0
17280,note_on,90,0,3,,,,,,,,,2,,,64,0
17280,note_on,0,0,3,,,,,,,,,2,,,60,0
17280,time_signature,210,1,0,5,16,6,8,,,,,,,,,
17310,note_on,0,0,1,,,,,,,,,0,,,75,0
17310,note_on,0,0,1,,,,,,,,,0,,,79,75
17310,note_on,0,0,1,,,,,,,,,0,,,75,67
17310,note_on,30,0,1,,,,,,,,,0,,,79,0
17370,note_on,0,0,1,,,,,,,,,0,,,80,49
17370,note_on,0,0,1,,,,,,,,,0,,,77,49
17370,note_on,0,0,1,,,,,,,,,0,,,75,0
17370,note_on,60,0,1,,,,,,,,,0,,,79,0
17430,note_on,0,0,1,,,,,,,,,0,,,79,49
17430,note_on,0,0,1,,,,,,,,,0,,,75,49
17430,note_on,0,0,1,,,,,,,,,0,,,77,0
17430,note_on,60,0,1,,,,,,,,,0,,,80,0
17430,note_on,150,0,3,,,,,,,,,2,,,51,36
17430,time_signature,150,1,0,3,4,24,8,,,,,,,,,
17550,note_on,120,0,3,,,,,,,,,2,,,51,0
17550,note_on,0,0,1,,,,,,,,,0,,,75,49
17550,note_on,0,0,3,,,,,,,,,2,,,67,36
17550,note_on,0,0,3,,,,,,,,,2,,,63,36
17550,note_on,0,0,3,,,,,,,,,2,,,58,36
17550,note_on,120,0,1,,,,,,,,,0,,,79,0
17550,note_on,0,0,1,,,,,,,,,0,,,75,0
17550,note_on,0,0,1,,,,,,,,,0,,,79,49
17562,note_on,0,0,3,,,,,,,,,2,,,58,0
17562,note_on,0,0,3,,,,,,,,,2,,,63,0
17562,note_on,12,0,3,,,,,,,,,2,,,67,0
17670,note_on,0,0,3,,,,,,,,,2,,,67,36
17670,note_on,0,0,3,,,,,,,,,2,,,63,36
17670,note_on,0,0,1,,,,,,,,,0,,,75,49
17670,note_on,108,0,3,,,,,,,,,2,,,58,36
17670,note_on,0,0,1,,,,,,,,,0,,,79,49
17670,note_on,0,0,1,,,,,,,,,0,,,75,0
17670,note_on,120,0,1,,,,,,,,,0,,,79,0
17682,note_on,0,0,3,,,,,,,,,2,,,58,0
17682,note_on,0,0,3,,,,,,,,,2,,,63,0
17682,note_on,12,0,3,,,,,,,,,2,,,67,0
17790,note_on,120,0,1,,,,,,,,,0,,,79,0
17790,note_on,0,0,1,,,,,,,,,0,,,79,49
17790,note_on,108,0,3,,,,,,,,,2,,,46,36
17790,note_on,0,0,1,,,,,,,,,0,,,75,0
17790,note_on,0,0,1,,,,,,,,,0,,,75,49
17910,note_on,120,0,1,,,,,,,,,0,,,79,0
17910,note_on,0,0,1,,,,,,,,,0,,,75,0
17910,note_on,0,0,1,,,,,,,,,0,,,74,49
17910,note_on,0,0,1,,,,,,,,,0,,,77,49
17910,note_on,120,0,3,,,,,,,,,2,,,46,0
17910,note_on,0,0,3,,,,,,,,,2,,,58,36
17910,note_on,0,0,3,,,,,,,,,2,,,62,36
17910,note_on,0,0,3,,,,,,,,,2,,,65,36
17910,note_on,0,0,3,,,,,,,,,2,,,68,36
17922,note_on,12,0,3,,,,,,,,,2,,,68,0
17922,note_on,0,0,3,,,,,,,,,2,,,65,0
17922,note_on,0,0,3,,,,,,,,,2,,,62,0
17922,note_on,0,0,3,,,,,,,,,2,,,58,0
18000,note_on,0,0,1,,,,,,,,,0,,,77,67
18000,note_on,0,0,1,,,,,,,,,0,,,80,75
18000,note_on,0,0,1,,,,,,,,,0,,,74,0
18000,note_on,90,0,1,,,,,,,,,0,,,77,0
18030,note_on,0,0,1,,,,,,,,,0,,,77,0
18030,note_on,0,0,1,,,,,,,,,0,,,77,49
18030,note_on,0,0,1,,,,,,,,,0,,,80,49
18030,note_on,108,0,3,,,,,,,,,2,,,58,36
18030,note_on,0,0,3,,,,,,,,,2,,,62,36
18030,note_on,0,0,3,,,,,,,,,2,,,65,36
18030,note_on,0,0,3,,,,,,,,,2,,,68,36
18030,note_on,30,0,1,,,,,,,,,0,,,80,0
18042,note_on,0,0,3,,,,,,,,,2,,,62,0
18042,note_on,12,0,3,,,,,,,,,2,,,68,0
18042,note_on,0,0,3,,,,,,,,,2,,,58,0
18042,note_on,0,0,3,,,,,,,,,2,,,65,0
18090,note_on,0,0,1,,,,,,,,,0,,,77,0
18090,note_on,0,0,1,,,,,,,,,0,,,82,49
18090,note_on,0,0,1,,,,,,,,,0,,,79,49
18090,note_on,60,0,1,,,,,,,,,0,,,80,0
18150,note_on,0,0,1,,,,,,,,,0,,,80,49
18150,note_on,0,0,1,,,,,,,,,0,,,77,49
18150,note_on,0,0,1,,,,,,,,,0,,,79,0
18150,note_on,60,0,1,,,,,,,,,0,,,82,0
18150,note_on,108,0,3,,,,,,,,,2,,,46,36
18270,note_on,120,0,3,,,,,,,,,2,,,46,0
18270,note_on,0,0,3,,,,,,,,,2,,,58,36
18270,note_on,0,0,3,,,,,,,,,2,,,68,36
18270,note_on,0,0,3,,,,,,,,,2,,,65,36
18270,note_on,0,0,3,,,,,,,,,2,,,62,36
18270,note_on,0,0,1,,,,,,,,,0,,,80,49
18270,note_on,0,0,1,,,,,,,,,0,,,77,49
18270,note_on,0,0,1,,,,,,,,,0,,,77,0
18270,note_on,120,0,1,,,,,,,,,0,,,80,0
18282,note_on,0,0,3,,,,,,,,,2,,,58,0
18282,note_on,0,0,3,,,,,,,,,2,,,65,0
18282,note_on,0,0,3,,,,,,,,,2,,,62,0
18282,note_on,12,0,3,,,,,,,,,2,,,68,0
18390,note_on,0,0,1,,,,,,,,,0,,,77,0
18390,note_on,120,0,1,,,,,,,,,0,,,80,0
18390,note_on,0,0,3,,,,,,,,,2,,,62,36
18390,note_on,108,0,3,,,,,,,,,2,,,58,36
18390,note_on,0,0,1,,,,,,,,,0,,,80,49
18390,note_on,0,0,3,,,,,,,,,2,,,68,36
18390,note_on,0,0,3,,,,,,,,,2,,,65,36
18390,note_on,0,0,1,,,,,,,,,0,,,77,49
18402,note_on,12,0,3,,,,,,,,,2,,,68,0
18402,note_on,0,0,3,,,,,,,,,2,,,58,0
18402,note_on,0,0,3,,,,,,,,,2,,,62,0
18402,note_on,0,0,3,,,,,,,,,2,,,65,0
18510,note_on,120,0,1,,,,,,,,,0,,,80,0
18510,note_on,108,0,3,,,,,,,,,2,,,51,36
18510,note_on,0,0,1,,,,,,,,,0,,,80,49
18510,note_on,0,0,1,,,,,,,,,0,,,77,49
18510,note_on,0,0,1,,,,,,,,,0,,,77,0
18630,note_on,0,0,3,,,,,,,,,2,,,67,36
18630,note_on,0,0,3,,,,,,,,,2,,,63,36
18630,note_on,120,0,3,,,,,,,,,2,,,51,0
18630,note_on,120,0,1,,,,,,,,,0,,,80,0
18630,note_on,0,0,1,,,,,,,,,0,,,77,0
18630,note_on,0,0,1,,,,,,,,,0,,,75,49
18630,note_on,0,0,1,,,,,,,,,0,,,79,49
18630,note_on,0,0,3,,,,,,,,,2,,,58,36
18642,note_on,12,0,3,,,,,,,,,2,,,67,0
18642,note_on,0,0,3,,,,,,,,,2,,,63,0
18642,note_on,0,0,3,,,,,,,,,2,,,58,0
18720,note_on,0,0,1,,,,,,,,,0,,,82,49
18720,note_on,0,0,1,,,,,,,,,0,,,79,49
18720,note_on,0,0,1,,,,,,,,,0,,,75,0
18720,note_on,90,0,1,,,,,,,,,0,,,79,0
18750,note_on,0,0,1,,,,,,,,,0,,,82,75
18750,note_on,0,0,1,,,,,,,,,0,,,79,67
18750,note_on,0,0,3,,,,,,,,,2,,,67,36
18750,note_on,0,0,3,,,,,,,,,2,,,63,36
18750,note_on,108,0,3,,,,,,,,,2,,,58,36
18750,note_on,30,0,1,,,,,,,,,0,,,82,0
18750,note_on,0,0,1,,,,,,,,,0,,,79,0
18762,note_on,0,0,3,,,,,,,,,2,,,58,0
18762,note_on,0,0,3,,,,,,,,,2,,,63,0
18762,note_on,12,0,3,,,,,,,,,2,,,67,0
18840,note_on,0,0,1,,,,,,,,,0,,,79,0
18840,note_on,0,0,1,,,,,,,,,0,,,80,49
18840,note_on,0,0,1,,,,,,,,,0,,,84,49
18840,note_on,90,0,1,,,,,,,,,0,,,82,0
18870,note_on,30,0,1,,,,,,,,,0,,,84,0
18870,note_on,0,0,1,,,,,,,,,0,,,82,62
18870,note_on,0,0,1,,,,,,,,,0,,,79,62
18870,note_on,0,0,1,,,,,,,,,0,,,80,0
18870,note_on,108,0,3,,,,,,,,,2,,,51,49
18990,note_on,120,0,3,,,,,,,,,2,,,51,0
18990,note_on,0,0,3,,,,,,,,,2,,,61,49
18990,note_on,0,0,3,,,,,,,,,2,,,63,49
18990,note_on,0,0,3,,,,,,,,,2,,,67,49
18990,note_on,0,0,1,,,,,,,,,0,,,82,62
18990,note_on,0,0,1,,,,,,,,,0,,,79,62
18990,note_on,0,0,1,,,,,,,,,0,,,79,0
18990,note_on,120,0,1,,,,,,,,,0,,,82,0
19002,note_on,12,0,3,,,,,,,,,2,,,67,0
19002,note_on,0,0,3,,,,,,,,,2,,,61,0
19002,note_on,0,0,3,,,,,,,,,2,,,63,0
19110,note_on,0,0,1,,,,,,,,,0,,,79,62
19110,note_on,0,0,3,,,,,,,,,2,,,67,49
19110,note_on,0,0,3,,,,,,,,,2,,,63,49
19110,note_on,120,0,1,,,,,,,,,0,,,82,0
19110,note_on,0,0,1,,,,,,,,,0,,,79,0
19110,note_on,108,0,3,,,,,,,,,2,,,61,49
19110,note_on,0,0,1,,,,,,,,,0,,,82,62
19122,note_on,0,0,3,,,,,,,,,2,,,63,0
19122,note_on,0,0,3,,,,,,,,,2,,,61,0
19122,note_on,12,0,3,,,,,,,,,2,,,67,0
19230,note_on,120,0,1,,,,,,,,,0,,,82,0
19230,note_on,0,0,1,,,,,,,,,0,,,84,75
19230,note_on,108,0,3,,,,,,,,,2,,,56,62
19230,note_on,0,0,1,,,,,,,,,0,,,80,75
19230,note_on,0,0,1,,,,,,,,,0,,,79,0
19260,note_on,30,0,1,,,,,,,,,0,,,84,0
19260,note_on,0,0,1,,,,,,,,,0,,,80,0
19260,note_on,0,0,1,,,,,,,,,0,,,87,101
19350,note_on,0,0,3,,,,,,,,,2,,,68,62
19350,note_on,0,0,3,,,,,,,,,2,,,63,62
19350,note_on,90,0,1,,,,,,,,,0,,,87,0
19350,note_on,0,0,1,,,,,,,,,0,,,84,75
19350,note_on,120,0,3,,,,,,,,,2,,,56,0
19350,note_on,0,0,3,,,,,,,,,2,,,60,62
19350,note_on,0,0,1,,,,,,,,,0,,,87,75
19362,note_on,0,0,3,,,,,,,,,2,,,60,0
19362,note_on,0,0,3,,,,,,,,,2,,,63,0
19362,note_on,12,0,3,,,,,,,,,2,,,68,0
19410,note_on,0,0,1,,,,,,,,,0,,,83,75
19410,note_on,0,0,1,,,,,,,,,0,,,84,0
19410,note_on,0,0,1,,,,,,,,,0,,,86,75
19410,note_on,60,0,1,,,,,,,,,0,,,87,0
19470,note_on,108,0,3,,,,,,,,,2,,,60,62
19470,note_on,60,0,1,,,,,,,,,0,,,86,0
19470,note_on,0,0,3,,,,,,,,,2,,,68,62
19470,note_on,0,0,1,,,,,,,,,0,,,84,75
19470,note_on,0,0,1,,,,,,,,,0,,,80,75
19470,note_on,0,0,1,,,,,,,,,0,,,83,0
19470,note_on,0,0,3,,,,,,,,,2,,,63,62
19482,note_on,0,0,3,,,,,,,,,2,,,60,0
19482,note_on,12,0,3,,,,,,,,,2,,,68,0
19482,note_on,0,0,3,,,,,,,,,2,,,63,0
19530,note_on,0,0,1,,,,,,,,,0,,,79,75
19530,note_on,0,0,1,,,,,,,,,0,,,83,75
19530,note_on,60,0,1,,,,,,,,,0,,,84,0
19530,note_on,0,0,1,,,,,,,,,0,,,80,0
19590,note_on,60,0,1,,,,,,,,,0,,,83,0
19590,note_on,0,0,1,,,,,,,,,0,,,80,88
19590,note_on,108,0,3,,,,,,,,,2,,,46,75
19590,note_on,0,0,1,,,,,,,,,0,,,77,88
19590,note_on,0,0,1,,,,,,,,,0,,,79,0
19650,note_on,0,0,1,,,,,,,,,0,,,79,88
19650,note_on,0,0,1,,,,,,,,,0,,,82,88
19650,note_on,60,0,1,,,,,,,,,0,,,80,0
19650,note_on,0,0,1,,,,,,,,,0,,,77,0
19710,note_on,120,0,3,,,,,,,,,2,,,46,0
19710,note_on,0,0,3,,,,,,,,,2,,,58,75
19710,note_on,0,0,3,,,,,,,,,2,,,62,75
19710,note_on,0,0,3,,,,,,,,,2,,,68,75
19710,note_on,60,0,1,,,,,,,,,0,,,82,0
19710,note_on,0,0,1,,,,,,,,,0,,,84,88
19710,note_on,0,0,1,,,,,,,,,0,,,80,88
19710,note_on,0,0,1,,,,,,,,,0,,,79,0
19722,note_on,12,0,3,,,,,,,,,2,,,68,0
19722,note_on,0,0,3,,,,,,,,,2,,,58,0
19722,note_on,0,0,3,,,,,,,,,2,,,62,0
19770,note_on,60,0,1,,,,,,,,,0,,,84,0
19770,note_on,0,0,1,,,,,,,,,0,,,82,88
19770,note_on,0,0,1,,,,,,,,,0,,,79,88
19770,note_on,0,0,1,,,,,,,,,0,,,80,0
19830,note_on,0,0,1,,,,,,,,,0,,,80,88
19830,note_on,0,0,1,,,,,,,,,0,,,79,0
19830,note_on,60,0,1,,,,,,,,,0,,,82,0
19830,note_on,108,0,3,,,,,,,,,2,,,58,75
19830,note_on,0,0,1,,,,,,,,,0,,,77,88
19830,note_on,0,0,3,,,,,,,,,2,,,68,75
19830,note_on,0,0,3,,,,,,,,,2,,,62,75
19842,note_on,12,0,3,,,,,,,,,2,,,68,0
19842,note_on,0,0,3,,,,,,,,,2,,,62,0
19842,note_on,0,0,3,,,,,,,,,2,,,58,0
19890,note_on,0,0,1,,,,,,,,,0,,,82,88
19890,note_on,60,0,1,,,,,,,,,0,,,80,0
19890,note_on,0,0,1,,,,,,,,,0,,,77,0
19950,note_on,108,0,3,,,,,,,,,2,,,51,75
19950,note_on,0,0,1,,,,,,,,,0,,,79,88
19950,note_on,0,0,1,,,,,,,,,0,,,75,88
19950,note_on,60,0,1,,,,,,,,,0,,,82,0
20070,note_on,0,0,3,,,,,,,,,2,,,67,75
20070,note_on,0,0,3,,,,,,,,,2,,,63,75
20070,note_on,120,0,3,,,,,,,,,2,,,51,0
20070,note_on,0,0,3,,,,,,,,,2,,,58,75
20160,note_on,210,0,1,,,,,,,,,0,,,79,0
20160,note_on,0,0,1,,,,,,,,,0,,,75,0
20160,note_on,0,0,1,,,,,,,,,0,,,72,49
20160,note_on,0,0,1,,,,,,,,,0,,,76,49
20160,note_on,0,0,1,,,,,,,,,0,,,79,49
20190,note_on,0,0,1,,,,,,,,,0,,,72,0
20190,note_on,0,0,1,,,,,,,,,0,,,79,75
20190,note_on,120,0,3,,,,,,,,,2,,,67,0
20190,note_on,0,0,1,,,,,,,,,0,,,76,0
20190,note_on,0,0,2,,,,,,,,,1,,,76,62
20190,note_on,3120,0,2,,,,,,,,,1,,,72,54
20190,note_on,30,0,1,,,,,,,,,0,,,79,0
20190,note_on,0,0,3,,,,,,,,,2,,,63,0
20190,note_on,0,0,3,,,,,,,,,2,,,58,0
20250,note_on,60,0,1,,,,,,,,,0,,,79,0
20250,note_on,0,0,1,,,,,,,,,0,,,81,49
20310,note_on,0,0,2,,,,,,,,,1,,,76,36
20310,note_on,60,0,1,,,,,,,,,0,,,81,0
20310,note_on,0,0,1,,,,,,,,,0,,,79,49
20310,note_on,0,0,2,,,,,,,,,1,,,72,36
20310,note_on,120,0,2,,,,,,,,,1,,,76,0
20310,note_on,0,0,2,,,,,,,,,1,,,72,0
20310,note_on,120,0,3,,,,,,,,,2,,,48,36
20430,note_on,120,0,3,,,,,,,,,2,,,48,0
20430,note_on,120,0,2,,,,,,,,,1,,,76,0
20430,note_on,0,0,2,,,,,,,,,1,,,72,0
20430,note_on,0,0,2,,,,,,,,,1,,,72,36
20430,note_on,0,0,1,,,,,,,,,0,,,79,49
20430,note_on,120,0,1,,,,,,,,,0,,,79,0
20430,note_on,0,0,3,,,,,,,,,2,,,64,36
20430,note_on,0,0,3,,,,,,,,,2,,,60,36
20430,note_on,0,0,2,,,,,,,,,1,,,76,36
20430,note_on,0,0,3,,,,,,,,,2,,,55,36
20442,note_on,0,0,3,,,,,,,,,2,,,55,0
20442,note_on,0,0,3,,,,,,,,,2,,,60,0
20442,note_on,12,0,3,,,,,,,,,2,,,64,0
20550,note_on,0,0,2,,,,,,,,,1,,,76,36
20550,note_on,120,0,2,,,,,,,,,1,,,76,0
20550,note_on,0,0,2,,,,,,,,,1,,,72,36
20550,note_on,120,0,1,,,,,,,,,0,,,79,0
20550,note_on,0,0,1,,,,,,,,,0,,,79,49
20550,note_on,0,0,3,,,,,,,,,2,,,64,36
20550,note_on,0,0,3,,,,,,,,,2,,,60,36
20550,note_on,108,0,3,,,,,,,,,2,,,55,36
20550,note_on,0,0,2,,,,,,,,,1,,,72,0
20562,note_on,0,0,3,,,,,,,,,2,,,55,0
20562,note_on,0,0,3,,,,,,,,,2,,,60,0
20562,note_on,12,0,3,,,,,,,,,2,,,64,0
20670,note_on,0,0,2,,,,,,,,,1,,,77,36
20670,note_on,0,0,1,,,,,,,,,0,,,79,49
20670,note_on,0,0,2,,,,,,,,,1,,,71,36
20670,note_on,0,0,2,,,,,,,,,1,,,72,0
20670,note_on,120,0,2,,,,,,,,,1,,,76,0
20670,note_on,120,0,1,,,,,,,,,0,,,79,0
20670,note_on,108,0,3,,,,,,,,,2,,,43,36
20790,note_on,0,0,3,,,,,,,,,2,,,65,36
20790,note_on,0,0,3,,,,,,,,,2,,,62,36
20790,note_on,0,0,3,,,,,,,,,2,,,55,36
20790,note_on,120,0,3,,,,,,,,,2,,,43,0
20790,note_on,120,0,1,,,,,,,,,0,,,79,0
20790,note_on,0,0,1,,,,,,,,,0,,,83,49
20802,note_on,12,0,3,,,,,,,,,2,,,65,0
20802,note_on,0,0,3,,,,,,,,,2,,,55,0
20802,note_on,0,0,3,,,,,,,,,2,,,62,0
20880,note_on,0,0,2,,,,,,,,,1,,,71,36
20880,note_on,0,0,1,,,,,,,,,0,,,79,49
20880,note_on,0,0,2,,,,,,,,,1,,,77,36
20880,note_on,210,0,2,,,,,,,,,1,,,77,0
20880,note_on,0,0,2,,,,,,,,,1,,,71,0
20880,note_on,90,0,1,,,,,,,,,0,,,83,0
20910,note_on,30,0,1,,,,,,,,,0,,,79,0
20910,note_on,0,0,3,,,,,,,,,2,,,62,36
20910,note_on,108,0,3,,,,,,,,,2,,,55,36
20910,note_on,0,0,3,,,,,,,,,2,,,65,36
20910,note_on,0,0,1,,,,,,,,,0,,,79,75
20910,note_on,0,0,2,,,,,,,,,1,,,77,62
20910,note_on,0,0,2,,,,,,,,,1,,,71,54
20910,note_on,0,0,2,,,,,,,,,1,,,71,0
20910,note_on,30,0,2,,,,,,,,,1,,,77,0
20922,note_on,0,0,3,,,,,,,,,2,,,55,0
20922,note_on,0,0,3,,,,,,,,,2,,,62,0
20922,note_on,12,0,3,,,,,,,,,2,,,65,0
20970,note_on,60,0,1,,,,,,,,,0,,,79,0
20970,note_on,0,0,1,,,,,,,,,0,,,81,49
21030,note_on,108,0,3,,,,,,,,,2,,,43,49
21030,note_on,60,0,1,,,,,,,,,0,,,81,0
21030,note_on,0,0,1,,,,,,,,,0,,,79,62
21030,note_on,120,0,2,,,,,,,,,1,,,77,0
21030,note_on,0,0,2,,,,,,,,,1,,,71,0
21030,note_on,0,0,2,,,,,,,,,1,,,71,49
21030,note_on,0,0,2,,,,,,,,,1,,,77,49
21150,note_on,0,0,2,,,,,,,,,1,,,71,49
21150,note_on,0,0,1,,,,,,,,,0,,,79,62
21150,note_on,120,0,2,,,,,,,,,1,,,77,0
21150,note_on,120,0,3,,,,,,,,,2,,,43,0
21150,note_on,0,0,3,,,,,,,,,2,,,55,49
21150,note_on,0,0,3,,,,,,,,,2,,,62,49
21150,note_on,0,0,3,,,,,,,,,2,,,65,49
21150,note_on,0,0,2,,,,,,,,,1,,,77,49
21150,note_on,120,0,1,,,,,,,,,0,,,79,0
21150,note_on,0,0,2,,,,,,,,,1,,,71,0
21162,note_on,0,0,3,,,,,,,,,2,,,55,0
21162,note_on,0,0,3,,,,,,,,,2,,,62,0
21162,note_on,12,0,3,,,,,,,,,2,,,65,0
21270,note_on,108,0,3,,,,,,,,,2,,,55,62
21270,note_on,0,0,2,,,,,,,,,1,,,77,62
21270,note_on,0,0,2,,,,,,,,,1,,,71,62
21270,note_on,0,0,2,,,,,,,,,1,,,71,0
21270,note_on,120,0,2,,,,,,,,,1,,,77,0
21270,note_on,0,0,3,,,,,,,,,2,,,62,62
21270,note_on,120,0,1,,,,,,,,,0,,,79,0
21270,note_on,0,0,1,,,,,,,,,0,,,79,75
21270,note_on,0,0,3,,,,,,,,,2,,,65,62
21282,note_on,0,0,3,,,,,,,,,2,,,62,0
21282,note_on,0,0,3,,,,,,,,,2,,,55,0
21282,note_on,12,0,3,,,,,,,,,2,,,65,0
21390,note_on,0,0,1,,,,,,,,,0,,,79,75
21390,note_on,0,0,2,,,,,,,,,1,,,76,62
21390,note_on,120,0,1,,,,,,,,,0,,,79,0
21390,note_on,0,0,2,,,,,,,,,1,,,72,62
21390,note_on,108,0,3,,,,,,,,,2,,,48,62
21390,note_on,0,0,2,,,,,,,,,1,,,71,0
21390,note_on,120,0,2,,,,,,,,,1,,,77,0
21510,note_on,120,0,1,,,,,,,,,0,,,79,0
21510,note_on,0,0,1,,,,,,,,,0,,,84,75
21510,note_on,0,0,3,,,,,,,,,2,,,64,62
21510,note_on,0,0,3,,,,,,,,,2,,,55,62
21510,note_on,120,0,3,,,,,,,,,2,,,48,0
21510,note_on,0,0,3,,,,,,,,,2,,,60,62
21522,note_on,12,0,3,,,,,,,,,2,,,64,0
21522,note_on,0,0,3,,,,,,,,,2,,,55,0
21522,note_on,0,0,3,,,,,,,,,2,,,60,0
21600,note_on,0,0,2,,,,,,,,,1,,,72,62
21600,note_on,210,0,2,,,,,,,,,1,,,76,0
21600,note_on,0,0,2,,,,,,,,,1,,,72,0
21600,note_on,0,0,2,,,,,,,,,1,,,76,62
21600,note_on,0,0,1,,,,,,,,,0,,,79,75
21600,note_on,90,0,1,,,,,,,,,0,,,84,0
21630,note_on,30,0,1,,,,,,,,,0,,,79,0
21630,note_on,108,0,3,,,,,,,,,2,,,55,75
21630,note_on,0,0,3,,,,,,,,,2,,,60,75
21630,note_on,0,0,3,,,,,,,,,2,,,64,75
21630,note_on,0,0,1,,,,,,,,,0,,,79,114
21630,note_on,0,0,2,,,,,,,,,1,,,72,0
21630,note_on,30,0,2,,,,,,,,,1,,,76,0
21630,note_on,0,0,2,,,,,,,,,1,,,76,101
21630,note_on,0,0,2,,,,,,,,,1,,,72,93
21642,note_on,12,0,3,,,,,,,,,2,,,64,0
21642,note_on,0,0,3,,,,,,,,,2,,,60,0
21642,note_on,0,0,3,,,,,,,,,2,,,55,0
21690,note_on,0,0,1,,,,,,,,,0,,,81,88
21690,note_on,60,0,1,,,,,,,,,0,,,79,0
21750,note_on,60,0,1,,,,,,,,,0,,,81,0
21750,note_on,0,0,1,,,,,,,,,0,,,76,88
21750,note_on,0,0,1,,,,,,,,,0,,,79,88
21750,note_on,0,0,1,,,,,,,,,0,,,72,88
21750,note_on,120,0,2,,,,,,,,,1,,,76,0
21750,note_on,0,0,2,,,,,,,,,1,,,72,0
21750,note_on,108,0,3,,,,,,,,,2,,,48,75
21870,note_on,0,0,3,,,,,,,,,2,,,60,75
21870,note_on,120,0,1,,,,,,,,,0,,,79,0
21870,note_on,0,0,1,,,,,,,,,0,,,76,0
21870,note_on,0,0,1,,,,,,,,,0,,,72,0
21870,note_on,0,0,1,,,,,,,,,0,,,72,88
21870,note_on,0,0,1,,,,,,,,,0,,,76,88
21870,note_on,0,0,1,,,,,,,,,0,,,79,88
21870,note_on,120,0,3,,,,,,,,,2,,,48,0
21870,note_on,0,0,3,,,,,,,,,2,,,58,75
21870,note_on,0,0,3,,,,,,,,,2,,,64,75
21882,note_on,0,0,3,,,,,,,,,2,,,60,0
21882,note_on,12,0,3,,,,,,,,,2,,,64,0
21882,note_on,0,0,3,,,,,,,,,2,,,58,0
21990,note_on,0,0,1,,,,,,,,,0,,,72,88
21990,note_on,0,0,1,,,,,,,,,0,,,72,0
21990,note_on,0,0,1,,,,,,,,,0,,,76,0
21990,note_on,120,0,1,,,,,,,,,0,,,79,0
21990,note_on,0,0,1,,,,,,,,,0,,,79,88
21990,note_on,0,0,3,,,,,,,,,2,,,64,75
21990,note_on,0,0,3,,,,,,,,,2,,,60,75
21990,note_on,108,0,3,,,,,,,,,2,,,58,75
21990,note_on,0,0,1,,,,,,,,,0,,,76,88
22002,note_on,0,0,3,,,,,,,,,2,,,60,0
22002,note_on,12,0,3,,,,,,,,,2,,,64,0
22002,note_on,0,0,3,,,,,,,,,2,,,58,0
22110,note_on,108,0,3,,,,,,,,,2,,,53,75
22110,note_on,0,0,1,,,,,,,,,0,,,77,88
22110,note_on,0,0,1,,,,,,,,,0,,,81,88
22110,note_on,120,0,1,,,,,,,,,0,,,79,0
22110,note_on,0,0,1,,,,,,,,,0,,,72,0
22110,note_on,0,0,1,,,,,,,,,0,,,76,0
22170,note_on,0,0,1,,,,,,,,,0,,,83,88
22170,note_on,0,0,1,,,,,,,,,0,,,77,0
22170,note_on,60,0,1,,,,,,,,,0,,,81,0
22230,note_on,0,0,1,,,,,,,,,0,,,84,88
22230,note_on,60,0,1,,,,,,,,,0,,,83,0
22230,note_on,120,0,3,,,,,,,,,2,,,53,0
22230,note_on,0,0,3,,,,,,,,,2,,,57,75
22230,note_on,0,0,3,,,,,,,,,2,,,60,75
22230,note_on,0,0,3,,,,,,,,,2,,,65,75
22242,note_on,12,0,3,,,,,,,,,2,,,65,0
22242,note_on,0,0,3,,,,,,,,,2,,,57,0
22242,note_on,0,0,3,,,,,,,,,2,,,60,0
22290,note_on,60,0,1,,,,,,,,,0,,,84,0
22290,note_on,0,0,1,,,,,,,,,0,,,86,88
22350,note_on,0,0,3,,,,,,,,,2,,,65,75
22350,note_on,108,0,3,,,,,,,,,2,,,57,75
22350,note_on,0,0,3,,,,,,,,,2,,,60,75
22350,note_on,0,0,1,,,,,,,,,0,,,88,88
22350,note_on,60,0,1,,,,,,,,,0,,,86,0
22362,note_on,0,0,3,,,,,,,,,2,,,57,0
22362,note_on,0,0,3,,,,,,,,,2,,,60,0
22362,note_on,12,0,3,,,,,,,,,2,,,65,0
22410,note_on,0,0,1,,,,,,,,,0,,,89,88
22410,note_on,60,0,1,,,,,,,,,0,,,88,0
22470,note_on,60,0,1,,,,,,,,,0,,,89,0
22470,note_on,0,0,1,,,,,,,,,0,,,91,88
22470,note_on,108,0,3,,,,,,,,,2,,,43,75
22470,note_on,720,0,2,,,,,,,,,1,,,88,75
22590,note_on,0,0,3,,,,,,,,,2,,,64,75
22590,note_on,0,0,3,,,,,,,,,2,,,55,75
22590,note_on,120,0,3,,,,,,,,,2,,,43,0
22590,note_on,0,0,3,,,,,,,,,2,,,60,75
22590,note_on,120,0,2,,,,,,,,,1,,,88,0
22590,note_on,0,0,1,,,,,,,,,0,,,91,88
22590,note_on,120,0,1,,,,,,,,,0,,,91,0
22590,note_on,0,0,2,,,,,,,,,1,,,88,75
22602,note_on,0,0,3,,,,,,,,,2,,,55,0
22602,note_on,12,0,3,,,,,,,,,2,,,64,0
22602,note_on,0,0,3,,,,,,,,,2,,,60,0
22650,note_on,0,0,1,,,,,,,,,0,,,93,88
22650,note_on,60,0,1,,,,,,,,,0,,,91,0
22710,note_on,0,0,2,,,,,,,,,1,,,89,75
22710,note_on,0,0,1,,,,,,,,,0,,,91,88
22710,note_on,60,0,1,,,,,,,,,0,,,93,0
22710,note_on,120,0,2,,,,,,,,,1,,,88,0
22710,note_on,0,0,3,,,,,,,,,2,,,62,75
22710,note_on,108,0,3,,,,,,,,,2,,,55,75
22710,note_on,0,0,3,,,,,,,,,2,,,65,75
22722,note_on,12,0,3,,,,,,,,,2,,,65,0
22722,note_on,0,0,3,,,,,,,,,2,,,62,0
22722,note_on,0,0,3,,,,,,,,,2,,,55,0
22770,note_on,0,0,1,,,,,,,,,0,,,95,88
22770,note_on,60,0,1,,,,,,,,,0,,,91,0
22830,note_on,120,0,2,,,,,,,,,1,,,89,0
22830,note_on,0,0,1,,,,,,,,,0,,,88,88
22830,note_on,60,0,1,,,,,,,,,0,,,95,0
22830,note_on,0,0,1,,,,,,,,,0,,,96,88
22830,note_on,108,0,3,,,,,,,,,2,,,48,75
22830,time_signature,5400,1,0,7,16,6,8,,,,,,,,,
22950,note_on,120,0,3,,,,,,,,,2,,,48,0
22950,note_on,0,0,3,,,,,,,,,2,,,64,75
22950,note_on,0,0,3,,,,,,,,,2,,,60,75
23040,time_signature,210,1,0,5,16,6,8,,,,,,,,,
23040,key_signature,0,1,0,,,,,G,,,,,,,,
23040,note_on,0,0,1,,,,,,,,,0,,,74,49
23040,note_on,0,0,1,,,,,,,,,0,,,88,0
23040,note_on,0,0,3,,,,,,,,,2,,,60,0
23040,note_on,90,0,3,,,,,,,,,2,,,64,0
23040,note_on,210,0,1,,,,,,,,,0,,,96,0
23070,note_on,30,0,1,,,,,,,,,0,,,74,0
23070,note_on,0,0,1,,,,,,,,,0,,,74,75
23130,note_on,60,0,1,,,,,,,,,0,,,74,0
23130,note_on,0,0,1,,,,,,,,,0,,,86,49
23190,time_signature,150,1,0,3,4,24,8,,,,,,,,,
23190,note_on,150,0,3,,,,,,,,,2,,,55,36
23190,note_on,60,0,1,,,,,,,,,0,,,86,0
23190,note_on,0,0,1,,,,,,,,,0,,,74,49
23250,note_on,60,0,1,,,,,,,,,0,,,74,0
23250,note_on,0,0,1,,,,,,,,,0,,,76,49
23310,note_on,0,0,3,,,,,,,,,2,,,67,36
23310,note_on,0,0,1,,,,,,,,,0,,,74,49
23310,note_on,0,0,3,,,,,,,,,2,,,62,36
23310,note_on,0,0,3,,,,,,,,,2,,,71,36
23310,note_on,60,0,1,,,,,,,,,0,,,76,0
23310,note_on,120,0,3,,,,,,,,,2,,,55,0
23322,note_on,0,0,3,,,,,,,,,2,,,62,0
23322,note_on,0,0,3,,,,,,,,,2,,,67,0
23322,note_on,12,0,3,,,,,,,,,2,,,71,0
23370,note_on,60,0,1,,,,,,,,,0,,,74,0
23370,note_on,0,0,1,,,,,,,,,0,,,79,49
23430,note_on,0,0,1,,,,,,,,,0,,,74,49
23430,note_on,0,0,3,,,,,,,,,2,,,71,36
23430,note_on,0,0,3,,,,,,,,,2,,,67,36
23430,note_on,108,0,3,,,,,,,,,2,,,62,36
23430,note_on,60,0,1,,,,,,,,,0,,,79,0
23442,note_on,0,0,3,,,,,,,,,2,,,62,0
23442,note_on,0,0,3,,,,,,,,,2,,,67,0
23442,note_on,12,0,3,,,,,,,,,2,,,71,0
23490,note_on,0,0,1,,,,,,,,,0,,,81,49
23490,note_on,60,0,1,,,,,,,,,0,,,74,0
23550,note_on,60,0,1,,,,,,,,,0,,,81,0
23550,note_on,0,0,1,,,,,,,,,0,,,74,49
23550,note_on,108,0,3,,,,,,,,,2,,,55,36
23610,note_on,0,0,1,,,,,,,,,0,,,83,49
23610,note_on,60,0,1,,,,,,,,,0,,,74,0
23670,note_on,120,0,3,,,,,,,,,2,,,55,0
23670,note_on,0,0,3,,,,,,,,,2,,,62,36
23670,note_on,0,0,3,,,,,,,,,2,,,67,36
23670,note_on,0,0,3,,,,,,,,,2,,,71,36
23670,note_on,0,0,1,,,,,,,,,0,,,74,49
23670,note_on,60,0,1,,,,,,,,,0,,,83,0
23682,note_on,12,0,3,,,,,,,,,2,,,71,0
23682,note_on,0,0,3,,,,,,,,,2,,,67,0
23682,note_on,0,0,3,,,,,,,,,2,,,62,0
23730,note_on,0,0,1,,,,,,,,,0,,,76,49
23730,note_on,60,0,1,,,,,,,,,0,,,74,0
23790,note_on,0,0,3,,,,,,,,,2,,,71,36
23790,note_on,0,0,1,,,,,,,,,0,,,74,49
23790,note_on,108,0,3,,,,,,,,,2,,,62,36
23790,note_on,0,0,3,,,,,,,,,2,,,67,36
23790,note_on,60,0,1,,,,,,,,,0,,,76,0
23802,note_on,0,0,3,,,,,,,,,2,,,62,0
23802,note_on,0,0,3,,,,,,,,,2,,,67,0
23802,note_on,12,0,3,,,,,,,,,2,,,71,0
23850,note_on,0,0,1,,,,,,,,,0,,,79,49
23850,note_on,60,0,1,,,,,,,,,0,,,74,0
23910,note_on,108,0,3,,,,,,,,,2,,,55,36
23910,note_on,60,0,1,,,,,,,,,0,,,79,0
23910,note_on,0,0,1,,,,,,,,,0,,,78,62
23970,note_on,60,0,1,,,,,,,,,0,,,78,0
23970,note_on,0,0,1,,,,,,,,,0,,,81,62
24030,note_on,0,0,3,,,,,,,,,2,,,72,49
24030,note_on,0,0,3,,,,,,,,,2,,,67,49
24030,note_on,0,0,3,,,,,,,,,2,,,64,49
24030,note_on,120,0,3,,,,,,,,,2,,,55,0
24030,note_on,60,0,1,,,,,,,,,0,,,81,0
24030,note_on,0,0,1,,,,,,,,,0,,,76,75
24042,note_on,0,0,3,,,,,,,,,2,,,67,0
24042,note_on,0,0,3,,,,,,,,,2,,,64,0
24042,note_on,12,0,3,,,,,,,,,2,,,72,0
24090,note_on,0,0,1,,,,,,,,,0,,,84,75
24090,note_on,60,0,1,,,,,,,,,0,,,76,0
24150,note_on,0,0,3,,,,,,,,,2,,,67,36
24150,note_on,0,0,1,,,,,,,,,0,,,79,62
24150,note_on,60,0,1,,,,,,,,,0,,,84,0
24150,note_on,0,0,3,,,,,,,,,2,,,72,36
24150,note_on,108,0,3,,,,,,,,,2,,,64,36
24162,note_on,0,0,3,,,,,,,,,2,,,64,0
24162,note_on,0,0,3,,,,,,,,,2,,,67,0
24162,note_on,12,0,3,,,,,,,,,2,,,72,0
24210,note_on,60,0,1,,,,,,,,,0,,,79,0
24210,note_on,0,0,1,,,,,,,,,0,,,76,62
24270,note_on,0,0,1,,,,,,,,,0,,,74,49
24270,note_on,108,0,3,,,,,,,,,2,,,55,36
24270,note_on,60,0,1,,,,,,,,,0,,,76,0
24390,note_on,120,0,3,,,,,,,,,2,,,55,0
24390,note_on,0,0,3,,,,,,,,,2,,,62,36
24390,note_on,0,0,3,,,,,,,,,2,,,67,36
24390,note_on,0,0,3,,,,,,,,,2,,,71,36
24402,note_on,12,0,3,,,,,,,,,2,,,71,0
24402,note_on,0,0,3,,,,,,,,,2,,,67,0
24402,note_on,0,0,3,,,,,,,,,2,,,62,0
24480,note_on,210,0,1,,,,,,,,,0,,,74,0
24480,note_on,0,0,1,,,,,,,,,0,,,74,49
24510,note_on,30,0,1,,,,,,,,,0,,,74,0
24510,note_on,108,0,3,,,,,,,,,2,,,62,36
24510,note_on,0,0,3,,,,,,,,,2,,,71,36
24510,note_on,0,0,3,,,,,,,,,2,,,67,36
24510,note_on,0,0,1,,,,,,,,,0,,,74,75
24522,note_on,12,0,3,,,,,,,,,2,,,71,0
24522,note_on,0,0,3,,,,,,,,,2,,,67,0
24522,note_on,0,0,3,,,,,,,,,2,,,62,0
24570,note_on,0,0,1,,,,,,,,,0,,,86,49
24570,note_on,60,0,1,,,,,,,,,0,,,74,0
24630,note_on,0,0,1,,,,,,,,,0,,,74,49
24630,note_on,108,0,3,,,,,,,,,2,,,55,36
24630,note_on,60,0,1,,,,,,,,,0,,,86,0
24690,note_on,60,0,1,,,,,,,,,0,,,74,0
24690,note_on,0,0,1,,,,,,,,,0,,,76,49
24750,note_on,0,0,1,,,,,,,,,0,,,74,49
24750,note_on,60,0,1,,,,,,,,,0,,,76,0
24750,note_on,0,0,3,,,,,,,,,2,,,71,36
24750,note_on,0,0,3,,,,,,,,,2,,,62,36
24750,note_on,0,0,3,,,,,,,,,2,,,67,36
24750,note_on,120,0,3,,,,,,,,,2,,,55,0
24762,note_on,12,0,3,,,,,,,,,2,,,71,0
24762,note_on,0,0,3,,,,,,,,,2,,,67,0
24762,note_on,0,0,3,,,,,,,,,2,,,62,0
24810,note_on,0,0,1,,,,,,,,,0,,,79,49
24810,note_on,60,0,1,,,,,,,,,0,,,74,0
24870,note_on,60,0,1,,,,,,,,,0,,,79,0
24870,note_on,0,0,1,,,,,,,,,0,,,74,49
24870,note_on,108,0,3,,,,,,,,,2,,,62,36
24870,note_on,0,0,3,,,,,,,,,2,,,67,36
24870,note_on,0,0,3,,,,,,,,,2,,,71,36
24882,note_on,12,0,3,,,,,,,,,2,,,71,0
24882,note_on,0,0,3,,,,,,,,,2,,,62,0
24882,note_on,0,0,3,,,,,,,,,2,,,67,0
24930,note_on,60,0,1,,,,,,,,,0,,,74,0
24930,note_on,0,0,1,,,,,,,,,0,,,81,49
24990,note_on,108,0,3,,,,,,,,,2,,,55,36
24990,note_on,60,0,1,,,,,,,,,0,,,81,0
24990,note_on,0,0,1,,,,,,,,,0,,,74,49
25050,note_on,60,0,1,,,,,,,,,0,,,74,0
25050,note_on,0,0,1,,,,,,,,,0,,,83,49
25110,note_on,0,0,3,,,,,,,,,2,,,62,36
25110,note_on,120,0,3,,,,,,,,,2,,,55,0
25110,note_on,60,0,1,,,,,,,,,0,,,83,0
25110,note_on,0,0,3,,,,,,,,,2,,,67,36
25110,note_on,0,0,1,,,,,,,,,0,,,74,49
25110,note_on,0,0,3,,,,,,,,,2,,,71,36
25122,note_on,0,0,3,,,,,,,,,2,,,67,0
25122,note_on,12,0,3,,,,,,,,,2,,,71,0
25122,note_on,0,0,3,,,,,,,,,2,,,62,0
25170,note_on,0,0,1,,,,,,,,,0,,,76,49
25170,note_on,60,0,1,,,,,,,,,0,,,74,0
25230,note_on,0,0,3,,,,,,,,,2,,,71,36
25230,note_on,0,0,1,,,,,,,,,0,,,74,49
25230,note_on,60,0,1,,,,,,,,,0,,,76,0
25230,note_on,108,0,3,,,,,,,,,2,,,62,36
25230,note_on,0,0,3,,,,,,,,,2,,,67,36
25242,note_on,0,0,3,,,,,,,,,2,,,62,0
25242,note_on,0,0,3,,,,,,,,,2,,,67,0
25242,note_on,12,0,3,,,,,,,,,2,,,71,0
25290,note_on,0,0,1,,,,,,,,,0,,,79,49
25290,note_on,60,0,1,,,,,,,,,0,,,74,0
25350,note_on,108,0,3,,,,,,,,,2,,,50,36
25350,note_on,0,0,1,,,,,,,,,0,,,76,62
25350,note_on,60,0,1,,,,,,,,,0,,,79,0
25410,note_on,0,0,1,,,,,,,,,0,,,79,62
25410,note_on,60,0,1,,,,,,,,,0,,,76,0
25470,note_on,0,0,1,,,,,,,,,0,,,78,75
25470,note_on,0,0,3,,,,,,,,,2,,,72,49
25470,note_on,0,0,3,,,,,,,,,2,,,66,49
25470,note_on,0,0,3,,,,,,,,,2,,,62,49
25470,note_on,120,0,3,,,,,,,,,2,,,50,0
25470,note_on,60,0,1,,,,,,,,,0,,,79,0
25482,note_on,0,0,3,,,,,,,,,2,,,66,0
25482,note_on,0,0,3,,,,,,,,,2,,,62,0
25482,note_on,12,0,3,,,,,,,,,2,,,72,0
25530,note_on,60,0,1,,,,,,,,,0,,,78,0
25530,note_on,0,0,1,,,,,,,,,0,,,81,75
25590,note_on,60,0,1,,,,,,,,,0,,,81,0
25590,note_on,0,0,3,,,,,,,,,2,,,72,36
25590,note_on,108,0,3,,,,,,,,,2,,,62,36
25590,note_on,0,0,1,,,,,,,,,0,,,74,62
25590,note_on,0,0,3,,,,,,,,,2,,,66,36
25602,note_on,0,0,3,,,,,,,,,2,,,66,0
25602,note_on,0,0,3,,,,,,,,,2,,,62,0
25602,note_on,12,0,3,,,,,,,,,2,,,72,0
25650,note_on,60,0,1,,,,,,,,,0,,,74,0
25650,note_on,0,0,1,,,,,,,,,0,,,83,62
25710,note_on,108,0,3,,,,,,,,,2,,,55,36
25710,time_signature,2520,1,0,7,16,6,8,,,,,,,,,
25710,note_on,0,0,1,,,,,,,,,0,,,79,49
25710,note_on,60,0,1,,,,,,,,,0,,,83,0
25830,note_on,0,0,3,,,,,,,,,2,,,71,36
25830,note_on,0,0,3,,,,,,,,,2,,,62,36
25830,note_on,120,0,3,,,,,,,,,2,,,55,0
25830,note_on,0,0,3,,,,,,,,,2,,,67,36
25920,note_on,210,0,1,,,,,,,,,0,,,79,0
25920,note_on,0,0,3,,,,,,,,,2,,,62,0
25920,note_on,0,0,3,,,,,,,,,2,,,67,0
25920,note_on,90,0,3,,,,,,,,,2,,,71,0
25920,time_signature,210,1,0,5,16,6,8,,,,,,,,,
25920,note_on,0,0,1,,,,,,,,,0,,,74,49
25950,note_on,30,0,1,,,,,,,,,0,,,74,0
25950,note_on,0,0,1,,,,,,,,,0,,,74,75
26010,note_on,60,0,1,,,,,,,,,0,,,74,0
26010,note_on,0,0,1,,,,,,,,,0,,,86,49
26070,time_signature,150,1,0,3,4,24,8,,,,,,,,,
26070,note_on,150,0,3,,,,,,,,,2,,,55,36
26070,note_on,60,0,1,,,,,,,,,0,,,86,0
26070,note_on,0,0,1,,,,,,,,,0,,,74,49
26130,note_on,0,0,1,,,,,,,,,0,,,76,49
26130,note_on,60,0,1,,,,,,,,,0,,,74,0
26190,note_on,120,0,3,,,,,,,,,2,,,55,0
26190,note_on,0,0,1,,,,,,,,,0,,,74,49
26190,note_on,60,0,1,,,,,,,,,0,,,76,0
26190,note_on,0,0,3,,,,,,,,,2,,,71,36
26190,note_on,0,0,3,,,,,,,,,2,,,67,36
26190,note_on,0,0,3,,,,,,,,,2,,,62,36
26202,note_on,0,0,3,,,,,,,,,2,,,62,0
26202,note_on,0,0,3,,,,,,,,,2,,,67,0
26202,note_on,12,0,3,,,,,,,,,2,,,71,0
26250,note_on,0,0,1,,,,,,,,,0,,,79,49
26250,note_on,60,0,1,,,,,,,,,0,,,74,0
26310,note_on,108,0,3,,,,,,,,,2,,,62,36
26310,note_on,0,0,3,,,,,,,,,2,,,67,36
26310,note_on,0,0,3,,,,,,,,,2,,,71,36
26310,note_on,60,0,1,,,,,,,,,0,,,79,0
26310,note_on,0,0,1,,,,,,,,,0,,,74,49
26322,note_on,0,0,3,,,,,,,,,2,,,67,0
26322,note_on,0,0,3,,,,,,,,,2,,,62,0
26322,note_on,12,0,3,,,,,,,,,2,,,71,0
26370,note_on,0,0,1,,,,,,,,,0,,,81,49
26370,note_on,60,0,1,,,,,,,,,0,,,74,0
26430,note_on,0,0,1,,,,,,,,,0,,,74,49
26430,note_on,108,0,3,,,,,,,,,2,,,55,36
26430,note_on,60,0,1,,,,,,,,,0,,,81,0
26490,note_on,0,0,1,,,,,,,,,0,,,83,49
26490,note_on,60,0,1,,,,,,,,,0,,,74,0
26550,note_on,0,0,3,,,,,,,,,2,,,67,36
26550,note_on,0,0,3,,,,,,,,,2,,,62,36
26550,note_on,120,0,3,,,,,,,,,2,,,55,0
26550,note_on,0,0,1,,,,,,,,,0,,,74,49
26550,note_on,60,0,1,,,,,,,,,0,,,83,0
26550,note_on,0,0,3,,,,,,,,,2,,,71,36
26562,note_on,0,0,3,,,,,,,,,2,,,67,0
26562,note_on,0,0,3,,,,,,,,,2,,,62,0
26562,note_on,12,0,3,,,,,,,,,2,,,71,0
26610,note_on,60,0,1,,,,,,,,,0,,,74,0
26610,note_on,0,0,1,,,,,,,,,0,,,76,49
26670,note_on,0,0,3,,,,,,,,,2,,,71,36
26670,note_on,60,0,1,,,,,,,,,0,,,76,0
26670,note_on,0,0,1,,,,,,,,,0,,,74,49
26670,note_on,0,0,3,,,,,,,,,2,,,67,36
26670,note_on,108,0,3,,,,,,,,,2,,,62,36
26682,note_on,0,0,3,,,,,,,,,2,,,62,0
26682,note_on,0,0,3,,,,,,,,,2,,,67,0
26682,note_on,12,0,3,,,,,,,,,2,,,71,0
26730,note_on,60,0,1,,,,,,,,,0,,,74,0
26730,note_on,0,0,1,,,,,,,,,0,,,79,49
26790,note_on,0,0,1,,,,,,,,,0,,,78,62
26790,note_on,108,0,3,,,,,,,,,2,,,55,36
26790,note_on,60,0,1,,,,,,,,,0,,,79,0
26850,note_on,60,0,1,,,,,,,,,0,,,78,0
26850,note_on,0,0,1,,,,,,,,,0,,,81,62
26910,note_on,120,0,3,,,,,,,,,2,,,55,0
26910,note_on,0,0,1,,,,,,,,,0,,,76,75
26910,note_on,60,0,1,,,,,,,,,0,,,81,0
26910,note_on,0,0,3,,,,,,,,,2,,,64,49
26910,note_on,0,0,3,,,,,,,,,2,,,72,49
26910,note_on,0,0,3,,,,,,,,,2,,,67,49
26922,note_on,12,0,3,,,,,,,,,2,,,72,0
26922,note_on,0,0,3,,,,,,,,,2,,,64,0
26922,note_on,0,0,3,,,,,,,,,2,,,67,0
26970,note_on,0,0,1,,,,,,,,,0,,,84,75
26970,note_on,60,0,1,,,,,,,,,0,,,76,0
27030,note_on,60,0,1,,,,,,,,,0,,,84,0
27030,note_on,0,0,3,,,,,,,,,2,,,67,36
27030,note_on,0,0,3,,,,,,,,,2,,,72,36
27030,note_on,0,0,1,,,,,,,,,0,,,79,62
27030,note_on,108,0,3,,,,,,,,,2,,,64,36
27042,note_on,12,0,3,,,,,,,,,2,,,72,0
27042,note_on,0,0,3,,,,,,,,,2,,,67,0
27042,note_on,0,0,3,,,,,,,,,2,,,64,0
27090,note_on,0,0,1,,,,,,,,,0,,,76,62
27090,note_on,60,0,1,,,,,,,,,0,,,79,0
27150,note_on,108,0,3,,,,,,,,,2,,,55,36
27150,note_on,60,0,1,,,,,,,,,0,,,76,0
27150,note_on,0,0,1,,,,,,,,,0,,,74,49
27270,note_on,0,0,3,,,,,,,,,2,,,71,36
27270,note_on,0,0,3,,,,,,,,,2,,,62,36
27270,note_on,120,0,3,,,,,,,,,2,,,55,0
27270,note_on,0,0,3,,,,,,,,,2,,,67,36
27282,note_on,0,0,3,,,,,,,,,2,,,62,0
27282,note_on,0,0,3,,,,,,,,,2,,,67,0
27282,note_on,12,0,3,,,,,,,,,2,,,71,0
27360,note_on,210,0,1,,,,,,,,,0,,,74,0
27360,note_on,0,0,1,,,,,,,,,0,,,74,49
27390,note_on,0,0,3,,,,,,,,,2,,,71,36
27390,note_on,0,0,1,,,,,,,,,0,,,74,75
27390,note_on,0,0,3,,,,,,,,,2,,,67,36
27390,note_on,108,0,3,,,,,,,,,2,,,62,36
27390,note_on,30,0,1,,,,,,,,,0,,,74,0
27402,note_on,0,0,3,,,,,,,,,2,,,62,0
27402,note_on,0,0,3,,,,,,,,,2,,,67,0
27402,note_on,12,0,3,,,,,,,,,2,,,71,0
27450,note_on,0,0,1,,,,,,,,,0,,,86,49
27450,note_on,60,0,1,,,,,,,,,0,,,74,0
27510,note_on,60,0,1,,,,,,,,,0,,,86,0
27510,note_on,0,0,1,,,,,,,,,0,,,74,49
27510,note_on,108,0,3,,,,,,,,,2,,,55,36
27570,note_on,60,0,1,,,,,,,,,0,,,74,0
27570,note_on,0,0,1,,,,,,,,,0,,,76,49
27630,note_on,60,0,1,,,,,,,,,0,,,76,0
27630,note_on,0,0,1,,,,,,,,,0,,,74,49
27630,note_on,0,0,3,,,,,,,,,2,,,71,36
27630,note_on,0,0,3,,,,,,,,,2,,,67,36
27630,note_on,0,0,3,,,,,,,,,2,,,62,36
27630,note_on,120,0,3,,,,,,,,,2,,,55,0
27642,note_on,0,0,3,,,,,,,,,2,,,67,0
27642,note_on,12,0,3,,,,,,,,,2,,,71,0
27642,note_on,0,0,3,,,,,,,,,2,,,62,0
27690,note_on,60,0,1,,,,,,,,,0,,,74,0
27690,note_on,0,0,1,,,,,,,,,0,,,79,49
27750,note_on,0,0,3,,,,,,,,,2,,,71,36
27750,note_on,0,0,1,,,,,,,,,0,,,74,49
27750,note_on,108,0,3,,,,,,,,,2,,,62,36
27750,note_on,0,0,3,,,,,,,,,2,,,67,36
27750,note_on,60,0,1,,,,,,,,,0,,,79,0
27762,note_on,12,0,3,,,,,,,,,2,,,71,0
27762,note_on,0,0,3,,,,,,,,,2,,,67,0
27762,note_on,0,0,3,,,,,,,,,2,,,62,0
27810,note_on,60,0,1,,,,,,,,,0,,,74,0
27810,note_on,0,0,1,,,,,,,,,0,,,81,49
27870,note_on,108,0,3,,,,,,,,,2,,,55,36
27870,note_on,0,0,1,,,,,,,,,0,,,74,49
27870,note_on,60,0,1,,,,,,,,,0,,,81,0
27930,note_on,0,0,1,,,,,,,,,0,,,83,49
27930,note_on,60,0,1,,,,,,,,,0,,,74,0
27990,note_on,0,0,3,,,,,,,,,2,,,67,36
27990,note_on,0,0,3,,,,,,,,,2,,,62,36
27990,note_on,120,0,3,,,,,,,,,2,,,55,0
27990,note_on,60,0,1,,,,,,,,,0,,,83,0
27990,note_on,0,0,1,,,,,,,,,0,,,74,49
27990,note_on,0,0,3,,,,,,,,,2,,,71,36
28002,note_on,0,0,3,,,,,,,,,2,,,67,0
28002,note_on,0,0,3,,,,,,,,,2,,,62,0
28002,note_on,12,0,3,,,,,,,,,2,,,71,0
28050,note_on,60,0,1,,,,,,,,,0,,,74,0
28050,note_on,0,0,1,,,,,,,,,0,,,76,49
28110,note_on,108,0,3,,,,,,,,,2,,,62,36
28110,note_on,0,0,3,,,,,,,,,2,,,67,36
28110,note_on,0,0,3,,,,,,,,,2,,,71,36
28110,note_on,60,0,1,,,,,,,,,0,,,76,0
28110,note_on,0,0,1,,,,,,,,,0,,,74,49
28122,note_on,12,0,3,,,,,,,,,2,,,71,0
28122,note_on,0,0,3,,,,,,,,,2,,,67,0
28122,note_on,0,0,3,,,,,,,,,2,,,62,0
28170,note_on,0,0,1,,,,,,,,,0,,,79,49
28170,note_on,60,0,1,,,,,,,,,0,,,74,0
28230,note_on,108,0,3,,,,,,,,,2,,,50,36
28230,note_on,60,0,1,,,,,,,,,0,,,79,0
28230,note_on,0,0,1,,,,,,,,,0,,,76,62
28290,note_on,0,0,1,,,,,,,,,0,,,79,62
28290,note_on,60,0,1,,,,,,,,,0,,,76,0
28350,note_on,0,0,1,,,,,,,,,0,,,78,75
28350,note_on,0,0,3,,,,,,,,,2,,,62,49
28350,note_on,60,0,1,,,,,,,,,0,,,79,0
28350,note_on,120,0,3,,,,,,,,,2,,,50,0
28350,note_on,0,0,3,,,,,,,,,2,,,66,49
28350,note_on,0,0,3,,,,,,,,,2,,,72,49
28362,note_on,0,0,3,,,,,,,,,2,,,62,0
28362,note_on,0,0,3,,,,,,,,,2,,,66,0
28362,note_on,12,0,3,,,,,,,,,2,,,72,0
28410,note_on,0,0,1,,,,,,,,,0,,,81,75
28410,note_on,60,0,1,,,,,,,,,0,,,78,0
28470,note_on,0,0,3,,,,,,,,,2,,,72,36
28470,note_on,108,0,3,,,,,,,,,2,,,62,36
28470,note_on,60,0,1,,,,,,,,,0,,,81,0
28470,note_on,0,0,1,,,,,,,,,0,,,74,62
28470,note_on,0,0,3,,,,,,,,,2,,,66,36
28482,note_on,12,0,3,,,,,,,,,2,,,72,0
28482,note_on,0,0,3,,,,,,,,,2,,,66,0
28482,note_on,0,0,3,,,,,,,,,2,,,62,0
28530,note_on,60,0,1,,,,,,,,,0,,,74,0
28530,note_on,0,0,1,,,,,,,,,0,,,83,62
28590,note_on,0,0,1,,,,,,,,,0,,,79,49
28590,note_on,60,0,1,,,,,,,,,0,,,83,0
28590,time_signature,2520,1,0,7,16,6,8,,,,,,,,,
28590,note_on,108,0,3,,,,,,,,,2,,,55,36
28710,note_on,120,0,3,,,,,,,,,2,,,55,0
28710,note_on,0,0,3,,,,,,,,,2,,,71,36
28710,note_on,0,0,3,,,,,,,,,2,,,67,36
28710,note_on,0,0,3,,,,,,,,,2,,,62,36
28800,note_on,0,0,3,,,,,,,,,2,,,62,0
28800,note_on,0,0,1,,,,,,,,,0,,,86,88
28800,note_on,210,0,1,,,,,,,,,0,,,79,0
28800,time_signature,210,1,0,5,16,6,8,,,,,,,,,
28800,note_on,0,0,3,,,,,,,,,2,,,67,0
28800,note_on,90,0,3,,,,,,,,,2,,,71,0
28815,note_on,0,0,1,,,,,,,,,0,,,88,88
28815,note_on,15,0,1,,,,,,,,,0,,,86,0
28830,note_on,0,0,1,,,,,,,,,0,,,86,88
28830,note_on,15,0,1,,,,,,,,,0,,,88,0
28890,note_on,0,0,1,,,,,,,,,0,,,85,88
28890,note_on,60,0,1,,,,,,,,,0,,,86,0
28950,note_on,0,0,1,,,,,,,,,0,,,83,88
28950,note_on,60,0,1,,,,,,,,,0,,,85,0
28950,time_signature,150,1,0,3,4,24,8,,,,,,,,,
28950,note_on,150,0,3,,,,,,,,,2,,,45,75
29010,note_on,60,0,1,,,,,,,,,0,,,83,0
29010,note_on,0,0,1,,,,,,,,,0,,,86,88
29070,note_on,0,0,3,,,,,,,,,2,,,67,75
29070,note_on,0,0,3,,,,,,,,,2,,,61,75
29070,note_on,0,0,3,,,,,,,,,2,,,57,75
29070,note_on,120,0,3,,,,,,,,,2,,,45,0
29070,note_on,0,0,1,,,,,,,,,0,,,85,88
29070,note_on,60,0,1,,,,,,,,,0,,,86,0
29082,note_on,12,0,3,,,,,,,,,2,,,67,0
29082,note_on,0,0,3,,,,,,,,,2,,,57,0
29082,note_on,0,0,3,,,,,,,,,2,,,61,0
29130,note_on,0,0,1,,,,,,,,,0,,,88,88
29130,note_on,60,0,1,,,,,,,,,0,,,85,0
29190,note_on,0,0,1,,,,,,,,,0,,,81,114
29190,note_on,60,0,1,,,,,,,,,0,,,88,0
29190,note_on,0,0,3,,,,,,,,,2,,,67,101
29190,note_on,0,0,3,,,,,,,,,2,,,61,96
29190,note_on,108,0,3,,,,,,,,,2,,,57,91
29202,note_on,0,0,3,,,,,,,,,2,,,61,0
29202,note_on,12,0,3,,,,,,,,,2,,,67,0
29202,note_on,0,0,3,,,,,,,,,2,,,57,0
29250,note_on,0,0,1,,,,,,,,,0,,,90,88
29250,note_on,60,0,1,,,,,,,,,0,,,81,0
29310,note_on,60,0,1,,,,,,,,,0,,,90,0
29310,note_on,0,0,1,,,,,,,,,0,,,81,88
29310,note_on,108,0,3,,,,,,,,,2,,,50,75
29370,note_on,60,0,1,,,,,,,,,0,,,81,0
29370,note_on,0,0,1,,,,,,,,,0,,,93,88
29430,note_on,120,0,3,,,,,,,,,2,,,50,0
29430,note_on,0,0,3,,,,,,,,,2,,,57,75
29430,note_on,0,0,3,,,,,,,,,2,,,66,75
29430,note_on,0,0,1,,,,,,,,,0,,,90,88
29430,note_on,60,0,1,,,,,,,,,0,,,93,0
29430,note_on,0,0,3,,,,,,,,,2,,,62,75
29442,note_on,12,0,3,,,,,,,,,2,,,66,0
29442,note_on,0,0,3,,,,,,,,,2,,,57,0
29442,note_on,0,0,3,,,,,,,,,2,,,62,0
29490,note_on,0,0,1,,,,,,,,,0,,,86,88
29490,note_on,60,0,1,,,,,,,,,0,,,90,0
29550,note_on,108,0,3,,,,,,,,,2,,,57,91
29550,note_on,60,0,1,,,,,,,,,0,,,86,0
29550,note_on,0,0,1,,,,,,,,,0,,,81,114
29550,note_on,0,0,3,,,,,,,,,2,,,62,96
29550,note_on,0,0,3,,,,,,,,,2,,,66,101
29562,note_on,0,0,3,,,,,,,,,2,,,57,0
29562,note_on,0,0,3,,,,,,,,,2,,,62,0
29562,note_on,12,0,3,,,,,,,,,2,,,66,0
29610,note_on,60,0,1,,,,,,,,,0,,,81,0
29610,note_on,0,0,1,,,,,,,,,0,,,93,88
29670,note_on,108,0,3,,,,,,,,,2,,,45,75
29670,note_on,60,0,1,,,,,,,,,0,,,93,0
29670,note_on,0,0,1,,,,,,,,,0,,,81,88
29730,note_on,0,0,1,,,,,,,,,0,,,93,88
29730,note_on,60,0,1,,,,,,,,,0,,,81,0
29790,note_on,120,0,3,,,,,,,,,2,,,45,0
29790,note_on,60,0,1,,,,,,,,,0,,,93,0
29790,note_on,0,0,3,,,,,,,,,2,,,57,75
29790,note_on,0,0,3,,,,,,,,,2,,,67,75
29790,note_on,0,0,1,,,,,,,,,0,,,91,88
29790,note_on,0,0,3,,,,,,,,,2,,,61,75
29802,note_on,0,0,3,,,,,,,,,2,,,61,0
29802,note_on,0,0,3,,,,,,,,,2,,,57,0
29802,note_on,12,0,3,,,,,,,,,2,,,67,0
29850,note_on,60,0,1,,,,,,,,,0,,,91,0
29850,note_on,0,0,1,,,,,,,,,0,,,88,88
29910,note_on,0,0,3,,,,,,,,,2,,,61,96
29910,note_on,0,0,3,,,,,,,,,2,,,67,101
29910,note_on,0,0,1,,,,,,,,,0,,,81,114
29910,note_on,60,0,1,,,,,,,,,0,,,88,0
29910,note_on,108,0,3,,,,,,,,,2,,,57,91
29922,note_on,0,0,3,,,,,,,,,2,,,57,0
29922,note_on,0,0,3,,,,,,,,,2,,,61,0
29922,note_on,12,0,3,,,,,,,,,2,,,67,0
29970,note_on,0,0,1,,,,,,,,,0,,,93,88
29970,note_on,60,0,1,,,,,,,,,0,,,81,0
30030,note_on,108,0,3,,,,,,,,,2,,,50,75
30030,note_on,0,0,1,,,,,,,,,0,,,81,88
30030,note_on,60,0,1,,,,,,,,,0,,,93,0
30090,note_on,0,0,1,,,,,,,,,0,,,93,88
30090,note_on,60,0,1,,,,,,,,,0,,,81,0
30150,note_on,120,0,3,,,,,,,,,2,,,50,0
30150,note_on,0,0,3,,,,,,,,,2,,,66,75
30150,note_on,0,0,3,,,,,,,,,2,,,62,75
30150,note_on,0,0,3,,,,,,,,,2,,,57,75
30150,note_on,60,0,1,,,,,,,,,0,,,93,0
30150,note_on,0,0,1,,,,,,,,,0,,,90,88
30162,note_on,0,0,3,,,,,,,,,2,,,57,0
30162,note_on,0,0,3,,,,,,,,,2,,,62,0
30162,note_on,12,0,3,,,,,,,,,2,,,66,0
30210,note_on,60,0,1,,,,,,,,,0,,,90,0
30210,note_on,0,0,1,,,,,,,,,0,,,81,88
30240,note_on,30,0,1,,,,,,,,,0,,,86,88
30255,note_on,0,0,1,,,,,,,,,0,,,88,88
30255,note_on,15,0,1,,,,,,,,,0,,,86,0
30270,note_on,0,0,1,,,,,,,,,0,,,86,114
30270,note_on,0,0,1,,,,,,,,,0,,,81,0
30270,note_on,15,0,1,,,,,,,,,0,,,88,0
30270,note_on,0,0,3,,,,,,,,,2,,,66,101
30270,note_on,108,0,3,,,,,,,,,2,,,57,91
30270,note_on,0,0,3,,,,,,,,,2,,,62,96
30282,note_on,0,0,3,,,,,,,,,2,,,57,0
30282,note_on,0,0,3,,,,,,,,,2,,,62,0
30282,note_on,12,0,3,,,,,,,,,2,,,66,0
30330,note_on,60,0,1,,,,,,,,,0,,,86,0
30330,note_on,0,0,1,,,,,,,,,0,,,85,88
30390,note_on,108,0,3,,,,,,,,,2,,,45,75
30390,note_on,60,0,1,,,,,,,,,0,,,85,0
30390,note_on,0,0,1,,,,,,,,,0,,,83,88
30450,note_on,60,0,1,,,,,,,,,0,,,83,0
30450,note_on,0,0,1,,,,,,,,,0,,,86,88
30510,note_on,0,0,1,,,,,,,,,0,,,85,88
30510,note_on,60,0,1,,,,,,,,,0,,,86,0
30510,note_on,120,0,3,,,,,,,,,2,,,45,0
30510,note_on,0,0,3,,,,,,,,,2,,,57,75
30510,note_on,0,0,3,,,,,,,,,2,,,61,75
30510,note_on,0,0,3,,,,,,,,,2,,,67,75
30522,note_on,0,0,3,,,,,,,,,2,,,57,0
30522,note_on,0,0,3,,,,,,,,,2,,,61,0
30522,note_on,12,0,3,,,,,,,,,2,,,67,0
30570,note_on,0,0,1,,,,,,,,,0,,,88,88
30570,note_on,60,0,1,,,,,,,,,0,,,85,0
30630,note_on,0,0,1,,,,,,,,,0,,,81,114
30630,note_on,108,0,3,,,,,,,,,2,,,57,91
30630,note_on,60,0,1,,,,,,,,,0,,,88,0
30630,note_on,0,0,3,,,,,,,,,2,,,67,101
30630,note_on,0,0,3,,,,,,,,,2,,,61,96
30642,note_on,12,0,3,,,,,,,,,2,,,67,0
30642,note_on,0,0,3,,,,,,,,,2,,,57,0
30642,note_on,0,0,3,,,,,,,,,2,,,61,0
30690,note_on,60,0,1,,,,,,,,,0,,,81,0
30690,note_on,0,0,1,,,,,,,,,0,,,90,88
30750,note_on,108,0,3,,,,,,,,,2,,,50,75
30750,note_on,60,0,1,,,,,,,,,0,,,90,0
30750,note_on,0,0,1,,,,,,,,,0,,,81,88
30810,note_on,60,0,1,,,,,,,,,0,,,81,0
30810,note_on,0,0,1,,,,,,,,,0,,,93,88
30870,note_on,0,0,3,,,,,,,,,2,,,66,75
30870,note_on,0,0,3,,,,,,,,,2,,,62,75
30870,note_on,0,0,3,,,,,,,,,2,,,57,75
30870,note_on,120,0,3,,,,,,,,,2,,,50,0
30870,note_on,0,0,1,,,,,,,,,0,,,90,88
30870,note_on,60,0,1,,,,,,,,,0,,,93,0
30882,note_on,12,0,3,,,,,,,,,2,,,66,0
30882,note_on,0,0,3,,,,,,,,,2,,,57,0
30882,note_on,0,0,3,,,,,,,,,2,,,62,0
30930,note_on,60,0,1,,,,,,,,,0,,,90,0
30930,note_on,0,0,1,,,,,,,,,0,,,86,88
30990,note_on,0,0,1,,,,,,,,,0,,,81,114
30990,note_on,60,0,1,,,,,,,,,0,,,86,0
30990,note_on,0,0,3,,,,,,,,,2,,,62,96
30990,note_on,0,0,3,,,,,,,,,2,,,66,101
30990,note_on,108,0,3,,,,,,,,,2,,,57,91
31002,note_on,0,0,3,,,,,,,,,2,,,57,0
31002,note_on,0,0,3,,,,,,,,,2,,,62,0
31002,note_on,12,0,3,,,,,,,,,2,,,66,0
31050,note_on,60,0,1,,,,,,,,,0,,,81,0
31050,note_on,0,0,1,,,,,,,,,0,,,78,88
31110,note_on,60,0,1,,,,,,,,,0,,,78,0
31110,note_on,0,0,1,,,,,,,,,0,,,76,88
31110,note_on,108,0,3,,,,,,,,,2,,,45,75
31170,note_on,0,0,1,,,,,,,,,0,,,83,88
31170,note_on,60,0,1,,,,,,,,,0,,,76,0
31230,note_on,120,0,3,,,,,,,,,2,,,45,0
31230,note_on,0,0,3,,,,,,,,,2,,,61,75
31230,note_on,0,0,3,,,,,,,,,2,,,67,75
31230,note_on,60,0,1,,,,,,,,,0,,,83,0
31230,note_on,0,0,3,,,,,,,,,2,,,57,75
31230,note_on,0,0,1,,,,,,,,,0,,,79,88
31242,note_on,0,0,3,,,,,,,,,2,,,61,0
31242,note_on,12,0,3,,,,,,,,,2,,,67,0
31242,note_on,0,0,3,,,,,,,,,2,,,57,0
31290,note_on,0,0,1,,,,,,,,,0,,,76,88
31290,note_on,60,0,1,,,,,,,,,0,,,79,0
31350,note_on,0,0,3,,,,,,,,,2,,,67,75
31350,note_on,108,0,3,,,,,,,,,2,,,57,75
31350,note_on,0,0,1,,,,,,,,,0,,,73,88
31350,note_on,60,0,1,,,,,,,,,0,,,76,0
31350,note_on,0,0,3,,,,,,,,,2,,,64,75
31362,note_on,0,0,3,,,,,,,,,2,,,64,0
31362,note_on,0,0,3,,,,,,,,,2,,,57,0
31362,note_on,12,0,3,,,,,,,,,2,,,67,0
31410,note_on,60,0,1,,,,,,,,,0,,,73,0
31410,note_on,0,0,1,,,,,,,,,0,,,69,88
31470,note_on,60,0,1,,,,,,,,,0,,,69,0
31470,note_on,0,0,1,,,,,,,,,0,,,74,88
31470,note_on,108,0,3,,,,,,,,,2,,,50,75
31590,note_on,0,0,3,,,,,,,,,2,,,57,75
31590,note_on,120,0,3,,,,,,,,,2,,,50,0
31590,note_on,0,0,3,,,,,,,,,2,,,66,75
31590,note_on,0,0,3,,,,,,,,,2,,,62,75
31680,note_on,0,0,1,,,,,,,,,0,,,74,49
31680,note_on,210,0,1,,,,,,,,,0,,,74,0
31680,note_on,0,0,3,,,,,,,,,2,,,57,0
31680,note_on,0,0,3,,,,,,,,,2,,,62,0
31680,note_on,90,0,3,,,,,,,,,2,,,66,0
31710,note_on,30,0,1,,,,,,,,,0,,,74,0
31710,note_on,0,0,1,,,,,,,,,0,,,74,75
31770,note_on,60,0,1,,,,,,,,,0,,,74,0
31770,note_on,0,0,1,,,,,,,,,0,,,86,49
31830,note_on,60,0,1,,,,,,,,,0,,,86,0
31830,note_on,0,0,1,,,,,,,,,0,,,74,49
31830,note_on,150,0,3,,,,,,,,,2,,,55,36
31890,note_on,0,0,1,,,,,,,,,0,,,76,49
31890,note_on,60,0,1,,,,,,,,,0,,,74,0
31950,note_on,60,0,1,,,,,,,,,0,,,76,0
31950,note_on,0,0,1,,,,,,,,,0,,,74,49
31950,note_on,120,0,3,,,,,,,,,2,,,55,0
31950,note_on,0,0,3,,,,,,,,,2,,,71,36
31950,note_on,0,0,3,,,,,,,,,2,,,62,36
31950,note_on,0,0,3,,,,,,,,,2,,,67,36
31962,note_on,0,0,3,,,,,,,,,2,,,62,0
31962,note_on,0,0,3,,,,,,,,,2,,,67,0
31962,note_on,12,0,3,,,,,,,,,2,,,71,0
32010,note_on,0,0,1,,,,,,,,,0,,,79,49
32010,note_on,60,0,1,,,,,,,,,0,,,74,0
32070,note_on,60,0,1,,,,,,,,,0,,,79,0
32070,note_on,0,0,3,,,,,,,,,2,,,67,36
32070,note_on,108,0,3,,,,,,,,,2,,,62,36
32070,note_on,0,0,3,,,,,,,,,2,,,71,36
32070,note_on,0,0,1,,,,,,,,,0,,,74,49
32082,note_on,0,0,3,,,,,,,,,2,,,62,0
32082,note_on,0,0,3,,,,,,,,,2,,,67,0
32082,note_on,12,0,3,,,,,,,,,2,,,71,0
32130,note_on,0,0,1,,,,,,,,,0,,,81,49
32130,note_on,60,0,1,,,,,,,,,0,,,74,0
32190,note_on,108,0,3,,,,,,,,,2,,,55,36
32190,note_on,0,0,1,,,,,,,,,0,,,74,49
32190,note_on,60,0,1,,,,,,,,,0,,,81,0
32250,note_on,0,0,1,,,,,,,,,0,,,83,49
32250,note_on,60,0,1,,,,,,,,,0,,,74,0
32310,note_on,0,0,1,,,,,,,,,0,,,74,49
32310,note_on,120,0,3,,,,,,,,,2,,,55,0
32310,note_on,0,0,3,,,,,,,,,2,,,67,36
32310,note_on,0,0,3,,,,,,,,,2,,,71,36
32310,note_on,0,0,3,,,,,,,,,2,,,62,36
32310,note_on,60,0,1,,,,,,,,,0,,,83,0
32322,note_on,0,0,3,,,,,,,,,2,,,62,0
32322,note_on,0,0,3,,,,,,,,,2,,,67,0
32322,note_on,12,0,3,,,,,,,,,2,,,71,0
32370,note_on,60,0,1,,,,,,,,,0,,,74,0
32370,note_on,0,0,1,,,,,,,,,0,,,76,49
32430,note_on,108,0,3,,,,,,,,,2,,,62,36
32430,note_on,0,0,3,,,,,,,,,2,,,71,36
32430,note_on,60,0,1,,,,,,,,,0,,,76,0
32430,note_on,0,0,1,,,,,,,,,0,,,74,49
32430,note_on,0,0,3,,,,,,,,,2,,,67,36
32442,note_on,0,0,3,,,,,,,,,2,,,62,0
32442,note_on,12,0,3,,,,,,,,,2,,,71,0
32442,note_on,0,0,3,,,,,,,,,2,,,67,0
32490,note_on,0,0,1,,,,,,,,,0,,,79,49
32490,note_on,60,0,1,,,,,,,,,0,,,74,0
32550,note_on,0,0,1,,,,,,,,,0,,,78,62
32550,note_on,60,0,1,,,,,,,,,0,,,79,0
32550,note_on,108,0,3,,,,,,,,,2,,,55,36
32610,note_on,0,0,1,,,,,,,,,0,,,81,62
32610,note_on,60,0,1,,,,,,,,,0,,,78,0
32670,note_on,60,0,1,,,,,,,,,0,,,81,0
32670,note_on,0,0,1,,,,,,,,,0,,,76,75
32670,note_on,0,0,3,,,,,,,,,2,,,64,49
32670,note_on,0,0,3,,,,,,,,,2,,,72,49
32670,note_on,0,0,3,,,,,,,,,2,,,67,49
32670,note_on,120,0,3,,,,,,,,,2,,,55,0
32682,note_on,0,0,3,,,,,,,,,2,,,64,0
32682,note_on,0,0,3,,,,,,,,,2,,,67,0
32682,note_on,12,0,3,,,,,,,,,2,,,72,0
32730,note_on,60,0,1,,,,,,,,,0,,,76,0
32730,note_on,0,0,1,,,,,,,,,0,,,84,75
32790,note_on,0,0,3,,,,,,,,,2,,,72,36
32790,note_on,0,0,3,,,,,,,,,2,,,67,36
32790,note_on,108,0,3,,,,,,,,,2,,,64,36
32790,note_on,0,0,1,,,,,,,,,0,,,79,62
32790,note_on,60,0,1,,,,,,,,,0,,,84,0
32802,note_on,0,0,3,,,,,,,,,2,,,64,0
32802,note_on,0,0,3,,,,,,,,,2,,,67,0
32802,note_on,12,0,3,,,,,,,,,2,,,72,0
32850,note_on,0,0,1,,,,,,,,,0,,,76,62
32850,note_on,60,0,1,,,,,,,,,0,,,79,0
32910,note_on,0,0,1,,,,,,,,,0,,,74,49
32910,note_on,60,0,1,,,,,,,,,0,,,76,0
32910,note_on,108,0,3,,,,,,,,,2,,,55,36
33030,note_on,0,0,3,,,,,,,,,2,,,67,36
33030,note_on,120,0,3,,,,,,,,,2,,,55,0
33030,note_on,0,0,3,,,,,,,,,2,,,71,36
33030,note_on,0,0,3,,,,,,,,,2,,,62,36
33042,note_on,0,0,3,,,,,,,,,2,,,62,0
33042,note_on,0,0,3,,,,,,,,,2,,,67,0
33042,note_on,12,0,3,,,,,,,,,2,,,71,0
33120,note_on,210,0,1,,,,,,,,,0,,,74,0
33120,note_on,0,0,1,,,,,,,,,0,,,74,49
33150,note_on,0,0,3,,,,,,,,,2,,,67,36
33150,note_on,108,0,3,,,,,,,,,2,,,62,36
33150,note_on,0,0,3,,,,,,,,,2,,,71,36
33150,note_on,30,0,1,,,,,,,,,0,,,74,0
33150,note_on,0,0,1,,,,,,,,,0,,,74,75
33162,note_on,0,0,3,,,,,,,,,2,,,67,0
33162,note_on,0,0,3,,,,,,,,,2,,,62,0
33162,note_on,12,0,3,,,,,,,,,2,,,71,0
33210,note_on,0,0,1,,,,,,,,,0,,,86,49
33210,note_on,60,0,1,,,,,,,,,0,,,74,0
33270,note_on,108,0,3,,,,,,,,,2,,,55,36
33270,note_on,0,0,1,,,,,,,,,0,,,74,49
33270,note_on,60,0,1,,,,,,,,,0,,,86,0
33330,note_on,0,0,1,,,,,,,,,0,,,76,49
33330,note_on,60,0,1,,,,,,,,,0,,,74,0
33390,note_on,0,0,3,,,,,,,,,2,,,71,36
33390,note_on,0,0,3,,,,,,,,,2,,,67,36
33390,note_on,0,0,3,,,,,,,,,2,,,62,36
33390,note_on,120,0,3,,,,,,,,,2,,,55,0
33390,note_on,0,0,1,,,,,,,,,0,,,74,49
33390,note_on,60,0,1,,,,,,,,,0,,,76,0
33402,note_on,12,0,3,,,,,,,,,2,,,71,0
33402,note_on,0,0,3,,,,,,,,,2,,,67,0
33402,note_on,0,0,3,,,,,,,,,2,,,62,0
33450,note_on,60,0,1,,,,,,,,,0,,,74,0
33450,note_on,0,0,1,,,,,,,,,0,,,79,49
33510,note_on,0,0,3,,,,,,,,,2,,,71,36
33510,note_on,108,0,3,,,,,,,,,2,,,62,36
33510,note_on,0,0,3,,,,,,,,,2,,,67,36
33510,note_on,60,0,1,,,,,,,,,0,,,79,0
33510,note_on,0,0,1,,,,,,,,,0,,,74,49
33522,note_on,12,0,3,,,,,,,,,2,,,71,0
33522,note_on,0,0,3,,,,,,,,,2,,,67,0
33522,note_on,0,0,3,,,,,,,,,2,,,62,0
33570,note_on,0,0,1,,,,,,,,,0,,,81,49
33570,note_on,60,0,1,,,,,,,,,0,,,74,0
33630,note_on,0,0,1,,,,,,,,,0,,,74,49
33630,note_on,60,0,1,,,,,,,,,0,,,81,0
33630,note_on,108,0,3,,,,,,,,,2,,,55,36
33690,note_on,60,0,1,,,,,,,,,0,,,74,0
33690,note_on,0,0,1,,,,,,,,,0,,,83,49
33750,note_on,120,0,3,,,,,,,,,2,,,55,0
33750,note_on,0,0,3,,,,,,,,,2,,,67,36
33750,note_on,0,0,3,,,,,,,,,2,,,71,36
33750,note_on,0,0,3,,,,,,,,,2,,,62,36
33750,note_on,0,0,1,,,,,,,,,0,,,74,49
33750,note_on,60,0,1,,,,,,,,,0,,,83,0
33762,note_on,0,0,3,,,,,,,,,2,,,62,0
33762,note_on,0,0,3,,,,,,,,,2,,,67,0
33762,note_on,12,0,3,,,,,,,,,2,,,71,0
33810,note_on,0,0,1,,,,,,,,,0,,,76,49
33810,note_on,60,0,1,,,,,,,,,0,,,74,0
33870,note_on,108,0,3,,,,,,,,,2,,,62,36
33870,note_on,0,0,1,,,,,,,,,0,,,74,49
33870,note_on,60,0,1,,,,,,,,,0,,,76,0
33870,note_on,0,0,3,,,,,,,,,2,,,71,36
33870,note_on,0,0,3,,,,,,,,,2,,,67,36
33882,note_on,0,0,3,,,,,,,,,2,,,62,0
33882,note_on,0,0,3,,,,,,,,,2,,,67,0
33882,note_on,12,0,3,,,,,,,,,2,,,71,0
33930,note_on,0,0,1,,,,,,,,,0,,,79,49
33930,note_on,60,0,1,,,,,,,,,0,,,74,0
33990,note_on,60,0,1,,,,,,,,,0,,,79,0
33990,note_on,0,0,1,,,,,,,,,0,,,76,62
33990,note_on,108,0,3,,,,,,,,,2,,,50,36
34050,note_on,60,0,1,,,,,,,,,0,,,76,0
34050,note_on,0,0,1,,,,,,,,,0,,,79,62
34110,note_on,0,0,3,,,,,,,,,2,,,72,49
34110,note_on,0,0,3,,,,,,,,,2,,,66,49
34110,note_on,0,0,3,,,,,,,,,2,,,62,49
34110,note_on,120,0,3,,,,,,,,,2,,,50,0
34110,note_on,0,0,1,,,,,,,,,0,,,78,75
34110,note_on,60,0,1,,,,,,,,,0,,,79,0
34122,note_on,0,0,3,,,,,,,,,2,,,62,0
34122,note_on,12,0,3,,,,,,,,,2,,,72,0
34122,note_on,0,0,3,,,,,,,,,2,,,66,0
34170,note_on,0,0,1,,,,,,,,,0,,,81,75
34170,note_on,60,0,1,,,,,,,,,0,,,78,0
34230,note_on,60,0,1,,,,,,,,,0,,,81,0
34230,note_on,0,0,1,,,,,,,,,0,,,74,62
34230,note_on,108,0,3,,,,,,,,,2,,,62,36
34230,note_on,0,0,3,,,,,,,,,2,,,66,36
34230,note_on,0,0,3,,,,,,,,,2,,,72,36
34242,note_on,12,0,3,,,,,,,,,2,,,72,0
34242,note_on,0,0,3,,,,,,,,,2,,,66,0
34242,note_on,0,0,3,,,,,,,,,2,,,62,0
34290,note_on,0,0,1,,,,,,,,,0,,,83,62
34290,note_on,60,0,1,,,,,,,,,0,,,74,0
34350,note_on,108,0,3,,,,,,,,,2,,,55,36
34350,time_signature,5400,1,0,7,16,6,8,,,,,,,,,
34350,note_on,60,0,1,,,,,,,,,0,,,83,0
34350,note_on,0,0,1,,,,,,,,,0,,,79,49
34470,note_on,0,0,3,,,,,,,,,2,,,71,36
34470,note_on,120,0,3,,,,,,,,,2,,,55,0
34470,note_on,0,0,3,,,,,,,,,2,,,62,36
34470,note_on,0,0,3,,,,,,,,,2,,,67,36
34560,note_on,0,0,1,,,,,,,,,0,,,86,88
34560,note_on,210,0,1,,,,,,,,,0,,,79,0
34560,note_on,0,0,3,,,,,,,,,2,,,67,0
34560,note_on,0,0,3,,,,,,,,,2,,,62,0
34560,note_on,90,0,3,,,,,,,,,2,,,71,0
34560,time_signature,210,1,0,5,16,6,8,,,,,,,,,
34575,note_on,0,0,1,,,,,,,,,0,,,88,88
34575,note_on,15,0,1,,,,,,,,,0,,,86,0
34590,note_on,0,0,1,,,,,,,,,0,,,86,88
34590,note_on,15,0,1,,,,,,,,,0,,,88,0
34650,note_on,0,0,1,,,,,,,,,0,,,85,88
34650,note_on,60,0,1,,,,,,,,,0,,,86,0
34710,time_signature,150,1,0,3,4,24,8,,,,,,,,,
34710,note_on,0,0,1,,,,,,,,,0,,,83,88
34710,note_on,60,0,1,,,,,,,,,0,,,85,0
34710,note_on,150,0,3,,,,,,,,,2,,,45,75
34770,note_on,0,0,1,,,,,,,,,0,,,86,88
34770,note_on,60,0,1,,,,,,,,,0,,,83,0
34830,note_on,60,0,1,,,,,,,,,0,,,86,0
34830,note_on,0,0,3,,,,,,,,,2,,,57,75
34830,note_on,0,0,3,,,,,,,,,2,,,67,75
34830,note_on,0,0,1,,,,,,,,,0,,,85,88
34830,note_on,0,0,3,,,,,,,,,2,,,61,75
34830,note_on,120,0,3,,,,,,,,,2,,,45,0
34842,note_on,0,0,3,,,,,,,,,2,,,61,0
34842,note_on,12,0,3,,,,,,,,,2,,,67,0
34842,note_on,0,0,3,,,,,,,,,2,,,57,0
34890,note_on,0,0,1,,,,,,,,,0,,,88,88
34890,note_on,60,0,1,,,,,,,,,0,,,85,0
34950,note_on,0,0,3,,,,,,,,,2,,,67,101
34950,note_on,0,0,1,,,,,,,,,0,,,81,114
34950,note_on,108,0,3,,,,,,,,,2,,,57,91
34950,note_on,60,0,1,,,,,,,,,0,,,88,0
34950,note_on,0,0,3,,,,,,,,,2,,,61,96
34962,note_on,0,0,3,,,,,,,,,2,,,61,0
34962,note_on,12,0,3,,,,,,,,,2,,,67,0
34962,note_on,0,0,3,,,,,,,,,2,,,57,0
35010,note_on,60,0,1,,,,,,,,,0,,,81,0
35010,note_on,0,0,1,,,,,,,,,0,,,90,88
35070,note_on,60,0,1,,,,,,,,,0,,,90,0
35070,note_on,0,0,1,,,,,,,,,0,,,81,88
35070,note_on,108,0,3,,,,,,,,,2,,,50,75
35130,note_on,0,0,1,,,,,,,,,0,,,93,88
35130,note_on,60,0,1,,,,,,,,,0,,,81,0
35190,note_on,0,0,3,,,,,,,,,2,,,62,75
35190,note_on,0,0,1,,,,,,,,,0,,,90,88
35190,note_on,60,0,1,,,,,,,,,0,,,93,0
35190,note_on,120,0,3,,,,,,,,,2,,,50,0
35190,note_on,0,0,3,,,,,,,,,2,,,57,75
35190,note_on,0,0,3,,,,,,,,,2,,,66,75
35202,note_on,12,0,3,,,,,,,,,2,,,66,0
35202,note_on,0,0,3,,,,,,,,,2,,,62,0
35202,note_on,0,0,3,,,,,,,,,2,,,57,0
35250,note_on,60,0,1,,,,,,,,,0,,,90,0
35250,note_on,0,0,1,,,,,,,,,0,,,86,88
35310,note_on,108,0,3,,,,,,,,,2,,,57,91
35310,note_on,0,0,3,,,,,,,,,2,,,62,96
35310,note_on,0,0,3,,,,,,,,,2,,,66,101
35310,note_on,60,0,1,,,,,,,,,0,,,86,0
35310,note_on,0,0,1,,,,,,,,,0,,,81,114
35322,note_on,0,0,3,,,,,,,,,2,,,57,0
35322,note_on,0,0,3,,,,,,,,,2,,,62,0
35322,note_on,12,0,3,,,,,,,,,2,,,66,0
35370,note_on,0,0,1,,,,,,,,,0,,,93,88
35370,note_on,60,0,1,,,,,,,,,0,,,81,0
35430,note_on,0,0,1,,,,,,,,,0,,,81,88
35430,note_on,108,0,3,,,,,,,,,2,,,45,75
35430,note_on,60,0,1,,,,,,,,,0,,,93,0
35490,note_on,60,0,1,,,,,,,,,0,,,81,0
35490,note_on,0,0,1,,,,,,,,,0,,,93,88
35550,note_on,120,0,3,,,,,,,,,2,,,45,0
35550,note_on,0,0,3,,,,,,,,,2,,,67,75
35550,note_on,0,0,1,,,,,,,,,0,,,91,88
35550,note_on,60,0,1,,,,,,,,,0,,,93,0
35550,note_on,0,0,3,,,,,,,,,2,,,57,75
35550,note_on,0,0,3,,,,,,,,,2,,,61,75
35562,note_on,12,0,3,,,,,,,,,2,,,67,0
35562,note_on,0,0,3,,,,,,,,,2,,,61,0
35562,note_on,0,0,3,,,,,,,,,2,,,57,0
35610,note_on,0,0,1,,,,,,,,,0,,,88,88
35610,note_on,60,0,1,,,,,,,,,0,,,91,0
35670,note_on,60,0,1,,,,,,,,,0,,,88,0
35670,note_on,108,0,3,,,,,,,,,2,,,57,91
35670,note_on,0,0,3,,,,,,,,,2,,,61,96
35670,note_on,0,0,3,,,,,,,,,2,,,67,101
35670,note_on,0,0,1,,,,,,,,,0,,,81,114
35682,note_on,12,0,3,,,,,,,,,2,,,67,0
35682,note_on,0,0,3,,,,,,,,,2,,,57,0
35682,note_on,0,0,3,,,,,,,,,2,,,61,0
35730,note_on,60,0,1,,,,,,,,,0,,,81,0
35730,note_on,0,0,1,,,,,,,,,0,,,93,88
35790,note_on,60,0,1,,,,,,,,,0,,,93,0
35790,note_on,0,0,1,,,,,,,,,0,,,81,88
35790,note_on,108,0,3,,,,,,,,,2,,,50,75
35850,note_on,60,0,1,,,,,,,,,0,,,81,0
35850,note_on,0,0,1,,,,,,,,,0,,,93,88
35910,note_on,0,0,3,,,,,,,,,2,,,66,75
35910,note_on,0,0,3,,,,,,,,,2,,,62,75
35910,note_on,0,0,3,,,,,,,,,2,,,57,75
35910,note_on,0,0,1,,,,,,,,,0,,,90,88
35910,note_on,60,0,1,,,,,,,,,0,,,93,0
35910,note_on,120,0,3,,,,,,,,,2,,,50,0
35922,note_on,12,0,3,,,,,,,,,2,,,66,0
35922,note_on,0,0,3,,,,,,,,,2,,,62,0
35922,note_on,0,0,3,,,,,,,,,2,,,57,0
35970,note_on,60,0,1,,,,,,,,,0,,,90,0
35970,note_on,0,0,1,,,,,,,,,0,,,81,88
36000,note_on,30,0,1,,,,,,,,,0,,,86,88
36015,note_on,0,0,1,,,,,,,,,0,,,88,88
36015,note_on,15,0,1,,,,,,,,,0,,,86,0
36030,note_on,15,0,1,,,,,,,,,0,,,88,0
36030,note_on,0,0,1,,,,,,,,,0,,,86,114
36030,note_on,0,0,3,,,,,,,,,2,,,66,101
36030,note_on,0,0,3,,,,,,,,,2,,,62,96
36030,note_on,108,0,3,,,,,,,,,2,,,57,91
36030,note_on,0,0,1,,,,,,,,,0,,,81,0
36042,note_on,0,0,3,,,,,,,,,2,,,57,0
36042,note_on,0,0,3,,,,,,,,,2,,,62,0
36042,note_on,12,0,3,,,,,,,,,2,,,66,0
36090,note_on,60,0,1,,,,,,,,,0,,,86,0
36090,note_on,0,0,1,,,,,,,,,0,,,85,88
36150,note_on,108,0,3,,,,,,,,,2,,,45,75
36150,note_on,60,0,1,,,,,,,,,0,,,85,0
36150,note_on,0,0,1,,,,,,,,,0,,,83,88
36210,note_on,60,0,1,,,,,,,,,0,,,83,0
36210,note_on,0,0,1,,,,,,,,,0,,,86,88
36270,note_on,0,0,1,,,,,,,,,0,,,85,88
36270,note_on,60,0,1,,,,,,,,,0,,,86,0
36270,note_on,120,0,3,,,,,,,,,2,,,45,0
36270,note_on,0,0,3,,,,,,,,,2,,,57,75
36270,note_on,0,0,3,,,,,,,,,2,,,67,75
36270,note_on,0,0,3,,,,,,,,,2,,,61,75
36282,note_on,0,0,3,,,,,,,,,2,,,57,0
36282,note_on,0,0,3,,,,,,,,,2,,,61,0
36282,note_on,12,0,3,,,,,,,,,2,,,67,0
36330,note_on,0,0,1,,,,,,,,,0,,,88,88
36330,note_on,60,0,1,,,,,,,,,0,,,85,0
36390,note_on,0,0,3,,,,,,,,,2,,,67,101
36390,note_on,0,0,3,,,,,,,,,2,,,61,96
36390,note_on,108,0,3,,,,,,,,,2,,,57,91
36390,note_on,0,0,1,,,,,,,,,0,,,81,114
36390,note_on,60,0,1,,,,,,,,,0,,,88,0
36402,note_on,12,0,3,,,,,,,,,2,,,67,0
36402,note_on,0,0,3,,,,,,,,,2,,,57,0
36402,note_on,0,0,3,,,,,,,,,2,,,61,0
36450,note_on,0,0,1,,,,,,,,,0,,,90,88
36450,note_on,60,0,1,,,,,,,,,0,,,81,0
36510,note_on,0,0,1,,,,,,,,,0,,,81,88
36510,note_on,60,0,1,,,,,,,,,0,,,90,0
36510,note_on,108,0,3,,,,,,,,,2,,,50,75
36570,note_on,60,0,1,,,,,,,,,0,,,81,0
36570,note_on,0,0,1,,,,,,,,,0,,,93,88
36630,note_on,0,0,3,,,,,,,,,2,,,62,75
36630,note_on,0,0,3,,,,,,,,,2,,,57,75
36630,note_on,120,0,3,,,,,,,,,2,,,50,0
36630,note_on,0,0,3,,,,,,,,,2,,,66,75
36630,note_on,0,0,1,,,,,,,,,0,,,90,88
36630,note_on,60,0,1,,,,,,,,,0,,,93,0
36642,note_on,12,0,3,,,,,,,,,2,,,66,0
36642,note_on,0,0,3,,,,,,,,,2,,,57,0
36642,note_on,0,0,3,,,,,,,,,2,,,62,0
36690,note_on,60,0,1,,,,,,,,,0,,,90,0
36690,note_on,0,0,1,,,,,,,,,0,,,86,88
36750,note_on,108,0,3,,,,,,,,,2,,,57,91
36750,note_on,0,0,3,,,,,,,,,2,,,62,96
36750,note_on,0,0,3,,,,,,,,,2,,,66,101
36750,note_on,60,0,1,,,,,,,,,0,,,86,0
36750,note_on,0,0,1,,,,,,,,,0,,,81,114
36762,note_on,12,0,3,,,,,,,,,2,,,66,0
36762,note_on,0,0,3,,,,,,,,,2,,,62,0
36762,note_on,0,0,3,,,,,,,,,2,,,57,0
36810,note_on,0,0,1,,,,,,,,,0,,,78,88
36810,note_on,60,0,1,,,,,,,,,0,,,81,0
36870,note_on,60,0,1,,,,,,,,,0,,,78,0
36870,note_on,108,0,3,,,,,,,,,2,,,45,75
36870,note_on,0,0,1,,,,,,,,,0,,,76,88
36930,note_on,0,0,1,,,,,,,,,0,,,83,88
36930,note_on,60,0,1,,,,,,,,,0,,,76,0
36990,note_on,60,0,1,,,,,,,,,0,,,83,0
36990,note_on,0,0,1,,,,,,,,,0,,,79,88
36990,note_on,0,0,3,,,,,,,,,2,,,67,75
36990,note_on,0,0,3,,,,,,,,,2,,,61,75
36990,note_on,0,0,3,,,,,,,,,2,,,57,75
36990,note_on,120,0,3,,,,,,,,,2,,,45,0
37002,note_on,0,0,3,,,,,,,,,2,,,61,0
37002,note_on,0,0,3,,,,,,,,,2,,,57,0
37002,note_on,12,0,3,,,,,,,,,2,,,67,0
37050,note_on,0,0,1,,,,,,,,,0,,,76,88
37050,note_on,60,0,1,,,,,,,,,0,,,79,0
37110,note_on,108,0,3,,,,,,,,,2,,,57,75
37110,note_on,0,0,3,,,,,,,,,2,,,67,75
37110,note_on,0,0,1,,,,,,,,,0,,,73,88
37110,note_on,60,0,1,,,,,,,,,0,,,76,0
37110,note_on,0,0,3,,,,,,,,,2,,,64,75
37122,note_on,0,0,3,,,,,,,,,2,,,57,0
37122,note_on,0,0,3,,,,,,,,,2,,,64,0
37122,note_on,12,0,3,,,,,,,,,2,,,67,0
37170,note_on,60,0,1,,,,,,,,,0,,,73,0
37170,note_on,0,0,1,,,,,,,,,0,,,69,88
37230,note_on,60,0,1,,,,,,,,,0,,,69,0
37230,note_on,0,0,1,,,,,,,,,0,,,74,88
37230,note_on,108,0,3,,,,,,,,,2,,,50,75
37350,note_on,0,0,3,,,,,,,,,2,,,66,75
37350,note_on,0,0,3,,,,,,,,,2,,,62,75
37350,note_on,0,0,3,,,,,,,,,2,,,57,75
37350,note_on,120,0,3,,,,,,,,,2,,,50,0
37440,note_on,0,0,1,,,,,,,,,0,,,74,49
37440,note_on,0,0,3,,,,,,,,,2,,,62,0
37440,note_on,0,0,3,,,,,,,,,2,,,57,0
37440,note_on,210,0,1,,,,,,,,,0,,,74,0
37440,note_on,90,0,3,,,,,,,,,2,,,66,0
37470,note_on,30,0,1,,,,,,,,,0,,,74,0
37470,note_on,0,0,1,,,,,,,,,0,,,74,75
37530,note_on,0,0,1,,,,,,,,,0,,,86,49
37530,note_on,60,0,1,,,,,,,,,0,,,74,0
37590,note_on,0,0,1,,,,,,,,,0,,,74,49
37590,note_on,60,0,1,,,,,,,,,0,,,86,0
37590,note_on,150,0,3,,,,,,,,,2,,,55,36
37650,note_on,0,0,1,,,,,,,,,0,,,76,49
37650,note_on,60,0,1,,,,,,,,,0,,,74,0
37710,note_on,0,0,3,,,,,,,,,2,,,62,36
37710,note_on,120,0,3,,,,,,,,,2,,,55,0
37710,note_on,0,0,1,,,,,,,,,0,,,74,49
37710,note_on,60,0,1,,,,,,,,,0,,,76,0
37710,note_on,0,0,3,,,,,,,,,2,,,67,36
37710,note_on,0,0,3,,,,,,,,,2,,,71,36
37722,note_on,12,0,3,,,,,,,,,2,,,71,0
37722,note_on,0,0,3,,,,,,,,,2,,,62,0
37722,note_on,0,0,3,,,,,,,,,2,,,67,0
37770,note_on,0,0,1,,,,,,,,,0,,,79,49
37770,note_on,60,0,1,,,,,,,,,0,,,74,0
37830,note_on,0,0,3,,,,,,,,,2,,,67,36
37830,note_on,108,0,3,,,,,,,,,2,,,62,36
37830,note_on,0,0,1,,,,,,,,,0,,,74,49
37830,note_on,0,0,3,,,,,,,,,2,,,71,36
37830,note_on,60,0,1,,,,,,,,,0,,,79,0
37842,note_on,0,0,3,,,,,,,,,2,,,67,0
37842,note_on,12,0,3,,,,,,,,,2,,,71,0
37842,note_on,0,0,3,,,,,,,,,2,,,62,0
37890,note_on,60,0,1,,,,,,,,,0,,,74,0
37890,note_on,0,0,1,,,,,,,,,0,,,81,49
37950,note_on,108,0,3,,,,,,,,,2,,,55,36
37950,note_on,0,0,1,,,,,,,,,0,,,74,49
37950,note_on,60,0,1,,,,,,,,,0,,,81,0
38010,note_on,0,0,1,,,,,,,,,0,,,83,49
38010,note_on,60,0,1,,,,,,,,,0,,,74,0
38070,note_on,0,0,3,,,,,,,,,2,,,71,36
38070,note_on,0,0,3,,,,,,,,,2,,,62,36
38070,note_on,0,0,1,,,,,,,,,0,,,74,49
38070,note_on,120,0,3,,,,,,,,,2,,,55,0
38070,note_on,60,0,1,,,,,,,,,0,,,83,0
38070,note_on,0,0,3,,,,,,,,,2,,,67,36
38082,note_on,12,0,3,,,,,,,,,2,,,71,0
38082,note_on,0,0,3,,,,,,,,,2,,,67,0
38082,note_on,0,0,3,,,,,,,,,2,,,62,0
38130,note_on,60,0,1,,,,,,,,,0,,,74,0
38130,note_on,0,0,1,,,,,,,,,0,,,76,49
38190,note_on,0,0,3,,,,,,,,,2,,,71,36
38190,note_on,60,0,1,,,,,,,,,0,,,76,0
38190,note_on,0,0,1,,,,,,,,,0,,,74,49
38190,note_on,0,0,3,,,,,,,,,2,,,67,36
38190,note_on,108,0,3,,,,,,,,,2,,,62,36
38202,note_on,12,0,3,,,,,,,,,2,,,71,0
38202,note_on,0,0,3,,,,,,,,,2,,,67,0
38202,note_on,0,0,3,,,,,,,,,2,,,62,0
38250,note_on,60,0,1,,,,,,,,,0,,,74,0
38250,note_on,0,0,1,,,,,,,,,0,,,79,49
38310,note_on,0,0,1,,,,,,,,,0,,,78,62
38310,note_on,108,0,3,,,,,,,,,2,,,55,36
38310,note_on,60,0,1,,,,,,,,,0,,,79,0
38370,note_on,60,0,1,,,,,,,,,0,,,78,0
38370,note_on,0,0,1,,,,,,,,,0,,,81,62
38430,note_on,60,0,1,,,,,,,,,0,,,81,0
38430,note_on,0,0,1,,,,,,,,,0,,,76,75
38430,note_on,0,0,3,,,,,,,,,2,,,64,49
38430,note_on,0,0,3,,,,,,,,,2,,,72,49
38430,note_on,0,0,3,,,,,,,,,2,,,67,49
38430,note_on,120,0,3,,,,,,,,,2,,,55,0
38442,note_on,0,0,3,,,,,,,,,2,,,67,0
38442,note_on,12,0,3,,,,,,,,,2,,,72,0
38442,note_on,0,0,3,,,,,,,,,2,,,64,0
38490,note_on,0,0,1,,,,,,,,,0,,,84,75
38490,note_on,60,0,1,,,,,,,,,0,,,76,0
38550,note_on,60,0,1,,,,,,,,,0,,,84,0
38550,note_on,108,0,3,,,,,,,,,2,,,64,36
38550,note_on,0,0,3,,,,,,,,,2,,,72,36
38550,note_on,0,0,3,,,,,,,,,2,,,67,36
38550,note_on,0,0,1,,,,,,,,,0,,,79,62
38562,note_on,0,0,3,,,,,,,,,2,,,64,0
38562,note_on,0,0,3,,,,,,,,,2,,,67,0
38562,note_on,12,0,3,,,,,,,,,2,,,72,0
38610,note_on,60,0,1,,,,,,,,,0,,,79,0
38610,note_on,0,0,1,,,,,,,,,0,,,76,62
38670,note_on,60,0,1,,,,,,,,,0,,,76,0
38670,note_on,0,0,1,,,,,,,,,0,,,74,49
38670,note_on,108,0,3,,,,,,,,,2,,,55,36
38790,note_on,120,0,3,,,,,,,,,2,,,55,0
38790,note_on,0,0,3,,,,,,,,,2,,,62,36
38790,note_on,0,0,3,,,,,,,,,2,,,71,36
38790,note_on,0,0,3,,,,,,,,,2,,,67,36
38802,note_on,12,0,3,,,,,,,,,2,,,71,0
38802,note_on,0,0,3,,,,,,,,,2,,,67,0
38802,note_on,0,0,3,,,,,,,,,2,,,62,0
38880,note_on,210,0,1,,,,,,,,,0,,,74,0
38880,note_on,0,0,1,,,,,,,,,0,,,74,49
38910,note_on,30,0,1,,,,,,,,,0,,,74,0
38910,note_on,0,0,1,,,,,,,,,0,,,74,75
38910,note_on,0,0,3,,,,,,,,,2,,,71,36
38910,note_on,0,0,3,,,,,,,,,2,,,67,36
38910,note_on,108,0,3,,,,,,,,,2,,,62,36
38922,note_on,12,0,3,,,,,,,,,2,,,71,0
38922,note_on,0,0,3,,,,,,,,,2,,,62,0
38922,note_on,0,0,3,,,,,,,,,2,,,67,0
38970,note_on,60,0,1,,,,,,,,,0,,,74,0
38970,note_on,0,0,1,,,,,,,,,0,,,86,49
39030,note_on,0,0,1,,,,,,,,,0,,,74,49
39030,note_on,60,0,1,,,,,,,,,0,,,86,0
39030,note_on,108,0,3,,,,,,,,,2,,,55,36
39090,note_on,60,0,1,,,,,,,,,0,,,74,0
39090,note_on,0,0,1,,,,,,,,,0,,,76,49
39150,note_on,60,0,1,,,,,,,,,0,,,76,0
39150,note_on,0,0,1,,,,,,,,,0,,,74,49
39150,note_on,0,0,3,,,,,,,,,2,,,71,36
39150,note_on,0,0,3,,,,,,,,,2,,,67,36
39150,note_on,120,0,3,,,,,,,,,2,,,55,0
39150,note_on,0,0,3,,,,,,,,,2,,,62,36
39162,note_on,12,0,3,,,,,,,,,2,,,71,0
39162,note_on,0,0,3,,,,,,,,,2,,,62,0
39162,note_on,0,0,3,,,,,,,,,2,,,67,0
39210,note_on,0,0,1,,,,,,,,,0,,,79,49
39210,note_on,60,0,1,,,,,,,,,0,,,74,0
39270,note_on,108,0,3,,,,,,,,,2,,,62,36
39270,note_on,0,0,1,,,,,,,,,0,,,74,49
39270,note_on,60,0,1,,,,,,,,,0,,,79,0
39270,note_on,0,0,3,,,,,,,,,2,,,67,36
39270,note_on,0,0,3,,,,,,,,,2,,,71,36
39282,note_on,0,0,3,,,,,,,,,2,,,62,0
39282,note_on,0,0,3,,,,,,,,,2,,,67,0
39282,note_on,12,0,3,,,,,,,,,2,,,71,0
39330,note_on,0,0,1,,,,,,,,,0,,,81,49
39330,note_on,60,0,1,,,,,,,,,0,,,74,0
39390,note_on,0,0,1,,,,,,,,,0,,,74,49
39390,note_on,108,0,3,,,,,,,,,2,,,55,36
39390,note_on,60,0,1,,,,,,,,,0,,,81,0
39450,note_on,60,0,1,,,,,,,,,0,,,74,0
39450,note_on,0,0,1,,,,,,,,,0,,,83,49
39510,note_on,0,0,3,,,,,,,,,2,,,67,36
39510,note_on,0,0,3,,,,,,,,,2,,,62,36
39510,note_on,0,0,3,,,,,,,,,2,,,71,36
39510,note_on,60,0,1,,,,,,,,,0,,,83,0
39510,note_on,120,0,3,,,,,,,,,2,,,55,0
39510,note_on,0,0,1,,,,,,,,,0,,,74,49
39522,note_on,12,0,3,,,,,,,,,2,,,71,0
39522,note_on,0,0,3,,,,,,,,,2,,,62,0
39522,note_on,0,0,3,,,,,,,,,2,,,67,0
39570,note_on,60,0,1,,,,,,,,,0,,,74,0
39570,note_on,0,0,1,,,,,,,,,0,,,76,49
39630,note_on,0,0,3,,,,,,,,,2,,,67,36
39630,note_on,108,0,3,,,,,,,,,2,,,62,36
39630,note_on,0,0,1,,,,,,,,,0,,,74,49
39630,note_on,0,0,3,,,,,,,,,2,,,71,36
39630,note_on,60,0,1,,,,,,,,,0,,,76,0
39642,note_on,0,0,3,,,,,,,,,2,,,67,0
39642,note_on,12,0,3,,,,,,,,,2,,,71,0
39642,note_on,0,0,3,,,,,,,,,2,,,62,0
39690,note_on,0,0,1,,,,,,,,,0,,,79,49
39690,note_on,60,0,1,,,,,,,,,0,,,74,0
39750,note_on,60,0,1,,,,,,,,,0,,,79,0
39750,note_on,0,0,1,,,,,,,,,0,,,76,62
39750,note_on,108,0,3,,,,,,,,,2,,,50,36
39810,note_on,60,0,1,,,,,,,,,0,,,76,0
39810,note_on,0,0,1,,,,,,,,,0,,,79,62
39870,note_on,120,0,3,,,,,,,,,2,,,50,0
39870,note_on,0,0,3,,,,,,,,,2,,,62,49
39870,note_on,0,0,3,,,,,,,,,2,,,66,49
39870,note_on,0,0,3,,,,,,,,,2,,,72,49
39870,note_on,0,0,1,,,,,,,,,0,,,78,75
39870,note_on,60,0,1,,,,,,,,,0,,,79,0
39882,note_on,12,0,3,,,,,,,,,2,,,72,0
39882,note_on,0,0,3,,,,,,,,,2,,,62,0
39882,note_on,0,0,3,,,,,,,,,2,,,66,0
39930,note_on,0,0,1,,,,,,,,,0,,,81,75
39930,note_on,60,0,1,,,,,,,,,0,,,78,0
39990,note_on,0,0,3,,,,,,,,,2,,,72,36
39990,note_on,0,0,3,,,,,,,,,2,,,66,36
39990,note_on,108,0,3,,,,,,,,,2,,,62,36
39990,note_on,60,0,1,,,,,,,,,0,,,81,0
39990,note_on,0,0,1,,,,,,,,,0,,,74,62
40002,note_on,0,0,3,,,,,,,,,2,,,62,0
40002,note_on,0,0,3,,,,,,,,,2,,,66,0
40002,note_on,12,0,3,,,,,,,,,2,,,72,0
40050,note_on,60,0,1,,,,,,,,,0,,,74,0
40050,note_on,0,0,1,,,,,,,,,0,,,83,62
40110,note_on,60,0,1,,,,,,,,,0,,,83,0
40110,note_on,0,0,1,,,,,,,,,0,,,79,49
40110,time_signature,5400,1,0,7,16,6,8,,,,,,,,,
40110,note_on,108,0,3,,,,,,,,,2,,,55,36
40230,note_on,120,0,3,,,,,,,,,2,,,55,0
40230,note_on,0,0,3,,,,,,,,,2,,,62,36
40230,note_on,0,0,3,,,,,,,,,2,,,67,36
40230,note_on,0,0,3,,,,,,,,,2,,,71,36
40320,note_on,90,0,3,,,,,,,,,2,,,71,0
40320,note_on,0,0,3,,,,,,,,,2,,,67,0
40320,note_on,0,0,3,,,,,,,,,2,,,62,0
40320,note_on,210,0,1,,,,,,,,,0,,,79,0
40320,note_on,0,0,1,,,,,,,,,0,,,71,75
40320,note_on,0,0,1,,,,,,,,,0,,,79,75
40320,note_on,0,0,1,,,,,,,,,0,,,74,75
40320,time_signature,210,1,0,5,16,6,8,,,,,,,,,
40350,note_on,0,0,1,,,,,,,,,0,,,74,0
40350,note_on,0,0,1,,,,,,,,,0,,,71,0
40350,note_on,0,0,1,,,,,,,,,0,,,71,117
40350,note_on,0,0,1,,,,,,,,,0,,,74,122
40350,note_on,0,0,1,,,,,,,,,0,,,79,127
40350,note_on,30,0,1,,,,,,,,,0,,,79,0
40440,note_on,0,0,1,,,,,,,,,0,,,71,0
40440,note_on,0,0,1,,,,,,,,,0,,,78,75
40440,note_on,90,0,1,,,,,,,,,0,,,79,0
40440,note_on,0,0,1,,,,,,,,,0,,,73,75
40440,note_on,0,0,1,,,,,,,,,0,,,69,75
40440,note_on,0,0,1,,,,,,,,,0,,,74,0
40470,note_on,150,0,3,,,,,,,,,2,,,43,62
40470,time_signature,150,1,0,3,4,24,8,,,,,,,,,
40470,note_on,0,0,1,,,,,,,,,0,,,76,75
40470,note_on,0,0,1,,,,,,,,,0,,,71,75
40470,note_on,0,0,1,,,,,,,,,0,,,67,75
40470,note_on,0,0,1,,,,,,,,,0,,,69,0
40470,note_on,0,0,1,,,,,,,,,0,,,73,0
40470,note_on,30,0,1,,,,,,,,,0,,,78,0
40590,note_on,0,0,3,,,,,,,,,2,,,59,62
40590,note_on,0,0,3,,,,,,,,,2,,,64,62
40590,note_on,0,0,3,,,,,,,,,2,,,55,62
40590,note_on,120,0,3,,,,,,,,,2,,,43,0
40590,note_on,0,0,1,,,,,,,,,0,,,76,75
40590,note_on,120,0,1,,,,,,,,,0,,,76,0
40590,note_on,0,0,1,,,,,,,,,0,,,71,0
40590,note_on,0,0,1,,,,,,,,,0,,,67,0
40590,note_on,0,0,1,,,,,,,,,0,,,67,75
40590,note_on,0,0,1,,,,,,,,,0,,,71,75
40602,note_on,0,0,3,,,,,,,,,2,,,55,0
40602,note_on,0,0,3,,,,,,,,,2,,,59,0
40602,note_on,12,0,3,,,,,,,,,2,,,64,0
40710,note_on,0,0,1,,,,,,,,,0,,,71,0
40710,note_on,0,0,1,,,,,,,,,0,,,67,0
40710,note_on,0,0,1,,,,,,,,,0,,,67,75
40710,note_on,120,0,1,,,,,,,,,0,,,76,0
40710,note_on,0,0,1,,,,,,,,,0,,,76,75
40710,note_on,0,0,1,,,,,,,,,0,,,71,75
40710,note_on,0,0,3,,,,,,,,,2,,,64,62
40710,note_on,108,0,3,,,,,,,,,2,,,55,62
40710,note_on,0,0,3,,,,,,,,,2,,,59,62
40722,note_on,0,0,3,,,,,,,,,2,,,55,0
40722,note_on,12,0,3,,,,,,,,,2,,,64,0
40722,note_on,0,0,3,,,,,,,,,2,,,59,0
40830,note_on,0,0,1,,,,,,,,,0,,,67,0
40830,note_on,0,0,1,,,,,,,,,0,,,71,0
40830,note_on,108,0,3,,,,,,,,,2,,,45,62
40830,note_on,0,0,1,,,,,,,,,0,,,69,75
40830,note_on,0,0,1,,,,,,,,,0,,,76,75
40830,note_on,0,0,1,,,,,,,,,0,,,67,75
40830,note_on,120,0,1,,,,,,,,,0,,,76,0
40950,note_on,0,0,3,,,,,,,,,2,,,57,62
40950,note_on,120,0,1,,,,,,,,,0,,,76,0
40950,note_on,0,0,1,,,,,,,,,0,,,67,0
40950,note_on,0,0,1,,,,,,,,,0,,,66,75
40950,note_on,0,0,1,,,,,,,,,0,,,74,75
40950,note_on,0,0,3,,,,,,,,,2,,,62,62
40950,note_on,0,0,3,,,,,,,,,2,,,54,62
40950,note_on,120,0,3,,,,,,,,,2,,,45,0
40962,note_on,0,0,3,,,,,,,,,2,,,57,0
40962,note_on,12,0,3,,,,,,,,,2,,,62,0
40962,note_on,0,0,3,,,,,,,,,2,,,54,0
41040,note_on,90,0,1,,,,,,,,,0,,,74,0
41040,note_on,0,0,1,,,,,,,,,0,,,74,75
41040,note_on,0,0,1,,,,,,,,,0,,,66,0
41040,note_on,0,0,1,,,,,,,,,0,,,69,0
41070,note_on,0,0,3,,,,,,,,,2,,,62,62
41070,note_on,30,0,1,,,,,,,,,0,,,74,0
41070,note_on,0,0,1,,,,,,,,,0,,,74,101
41070,note_on,0,0,3,,,,,,,,,2,,,57,62
41070,note_on,108,0,3,,,,,,,,,2,,,54,62
41082,note_on,12,0,3,,,,,,,,,2,,,62,0
41082,note_on,0,0,3,,,,,,,,,2,,,57,0
41082,note_on,0,0,3,,,,,,,,,2,,,54,0
41130,note_on,60,0,1,,,,,,,,,0,,,74,0
41130,note_on,0,0,1,,,,,,,,,0,,,76,75
41190,note_on,108,0,3,,,,,,,,,2,,,45,62
41190,note_on,60,0,1,,,,,,,,,0,,,76,0
41190,note_on,0,0,1,,,,,,,,,0,,,74,75
41250,note_on,60,0,1,,,,,,,,,0,,,74,0
41250,note_on,0,0,1,,,,,,,,,0,,,73,75
41256,note_on,6,0,1,,,,,,,,,0,,,73,0
41310,note_on,54,0,1,,,,,,,,,0,,,73,75
41310,note_on,120,0,3,,,,,,,,,2,,,45,0
41310,note_on,0,0,3,,,,,,,,,2,,,64,62
41310,note_on,0,0,3,,,,,,,,,2,,,57,62
41310,note_on,0,0,3,,,,,,,,,2,,,67,62
41322,note_on,0,0,3,,,,,,,,,2,,,64,0
41322,note_on,0,0,3,,,,,,,,,2,,,57,0
41322,note_on,12,0,3,,,,,,,,,2,,,67,0
41370,note_on,0,0,1,,,,,,,,,0,,,81,75
41370,note_on,60,0,1,,,,,,,,,0,,,73,0
41376,note_on,6,0,1,,,,,,,,,0,,,81,0
41430,note_on,0,0,3,,,,,,,,,2,,,67,62
41430,note_on,0,0,3,,,,,,,,,2,,,64,62
41430,note_on,108,0,3,,,,,,,,,2,,,57,62
41430,note_on,54,0,1,,,,,,,,,0,,,73,75
41442,note_on,0,0,3,,,,,,,,,2,,,64,0
41442,note_on,12,0,3,,,,,,,,,2,,,67,0
41442,note_on,0,0,3,,,,,,,,,2,,,57,0
41490,note_on,60,0,1,,,,,,,,,0,,,73,0
41490,note_on,0,0,1,,,,,,,,,0,,,83,75
41496,note_on,6,0,1,,,,,,,,,0,,,83,0
41550,note_on,108,0,3,,,,,,,,,2,,,50,62
41550,note_on,54,0,1,,,,,,,,,0,,,74,75
41670,note_on,0,0,3,,,,,,,,,2,,,62,62
41670,note_on,0,0,3,,,,,,,,,2,,,57,62
41670,note_on,120,0,3,,,,,,,,,2,,,50,0
41670,note_on,0,0,3,,,,,,,,,2,,,66,62
41760,note_on,0,0,1,,,,,,,,,0,,,84,75
41760,note_on,0,0,1,,,,,,,,,0,,,79,75
41760,note_on,0,0,1,,,,,,,,,0,,,76,75
41760,note_on,210,0,1,,,,,,,,,0,,,74,0
41790,note_on,0,0,1,,,,,,,,,0,,,79,122
41790,note_on,0,0,1,,,,,,,,,0,,,84,127
41790,note_on,0,0,1,,,,,,,,,0,,,76,117
41790,note_on,0,0,3,,,,,,,,,2,,,62,0
41790,note_on,0,0,3,,,,,,,,,2,,,57,0
41790,note_on,30,0,1,,,,,,,,,0,,,84,0
41790,note_on,0,0,1,,,,,,,,,0,,,79,0
41790,note_on,0,0,1,,,,,,,,,0,,,76,0
41790,note_on,120,0,3,,,,,,,,,2,,,66,0
41880,note_on,90,0,1,,,,,,,,,0,,,84,0
41880,note_on,0,0,1,,,,,,,,,0,,,79,0
41880,note_on,0,0,1,,,,,,,,,0,,,76,0
41880,note_on,0,0,1,,,,,,,,,0,,,74,75
41880,note_on,0,0,1,,,,,,,,,0,,,78,75
41880,note_on,0,0,1,,,,,,,,,0,,,83,75
41910,note_on,30,0,1,,,,,,,,,0,,,83,0
41910,note_on,0,0,1,,,,,,,,,0,,,78,0
41910,note_on,0,0,1,,,,,,,,,0,,,81,75
41910,note_on,0,0,1,,,,,,,,,0,,,72,75
41910,note_on,0,0,1,,,,,,,,,0,,,76,75
41910,note_on,120,0,3,,,,,,,,,2,,,48,62
41910,note_on,0,0,1,,,,,,,,,0,,,74,0
42030,note_on,0,0,3,,,,,,,,,2,,,69,62
42030,note_on,0,0,3,,,,,,,,,2,,,64,62
42030,note_on,0,0,3,,,,,,,,,2,,,60,62
42030,note_on,120,0,3,,,,,,,,,2,,,48,0
42030,note_on,0,0,1,,,,,,,,,0,,,81,75
42030,note_on,0,0,1,,,,,,,,,0,,,72,75
42030,note_on,0,0,1,,,,,,,,,0,,,72,0
42030,note_on,0,0,1,,,,,,,,,0,,,76,0
42030,note_on,120,0,1,,,,,,,,,0,,,81,0
42030,note_on,0,0,1,,,,,,,,,0,,,76,75
42042,note_on,12,0,3,,,,,,,,,2,,,69,0
42042,note_on,0,0,3,,,,,,,,,2,,,64,0
42042,note_on,0,0,3,,,,,,,,,2,,,60,0
42150,note_on,108,0,3,,,,,,,,,2,,,60,62
42150,note_on,0,0,3,,,,,,,,,2,,,69,62
42150,note_on,120,0,1,,,,,,,,,0,,,81,0
42150,note_on,0,0,1,,,,,,,,,0,,,81,75
42150,note_on,0,0,1,,,,,,,,,0,,,76,75
42150,note_on,0,0,1,,,,,,,,,0,,,72,75
42150,note_on,0,0,1,,,,,,,,,0,,,72,0
42150,note_on,0,0,1,,,,,,,,,0,,,76,0
42150,note_on,0,0,3,,,,,,,,,2,,,64,62
42162,note_on,12,0,3,,,,,,,,,2,,,69,0
42162,note_on,0,0,3,,,,,,,,,2,,,64,0
42162,note_on,0,0,3,,,,,,,,,2,,,60,0
42270,note_on,0,0,1,,,,,,,,,0,,,81,75
42270,note_on,0,0,1,,,,,,,,,0,,,74,75
42270,note_on,0,0,1,,,,,,,,,0,,,72,75
42270,note_on,0,0,1,,,,,,,,,0,,,72,0
42270,note_on,0,0,1,,,,,,,,,0,,,76,0
42270,note_on,120,0,1,,,,,,,,,0,,,81,0
42270,note_on,108,0,3,,,,,,,,,2,,,50,62
42390,note_on,120,0,1,,,,,,,,,0,,,81,0
42390,note_on,0,0,1,,,,,,,,,0,,,72,0
42390,note_on,120,0,3,,,,,,,,,2,,,50,0
42390,note_on,0,0,3,,,,,,,,,2,,,59,62
42390,note_on,0,0,3,,,,,,,,,2,,,62,62
42390,note_on,0,0,1,,,,,,,,,0,,,71,75
42390,note_on,0,0,3,,,,,,,,,2,,,67,62
42390,note_on,0,0,1,,,,,,,,,0,,,79,75
42402,note_on,0,0,3,,,,,,,,,2,,,59,0
42402,note_on,12,0,3,,,,,,,,,2,,,67,0
42402,note_on,0,0,3,,,,,,,,,2,,,62,0
42480,note_on,0,0,1,,,,,,,,,0,,,79,75
42480,note_on,0,0,1,,,,,,,,,0,,,74,0
42480,note_on,0,0,1,,,,,,,,,0,,,71,0
42480,note_on,90,0,1,,,,,,,,,0,,,79,0
42510,note_on,0,0,1,,,,,,,,,0,,,79,101
42510,note_on,30,0,1,,,,,,,,,0,,,79,0
42510,note_on,0,0,3,,,,,,,,,2,,,62,62
42510,note_on,108,0,3,,,,,,,,,2,,,59,62
42510,note_on,0,0,3,,,,,,,,,2,,,67,62
42522,note_on,0,0,3,,,,,,,,,2,,,62,0
42522,note_on,0,0,3,,,,,,,,,2,,,59,0
42522,note_on,12,0,3,,,,,,,,,2,,,67,0
42570,note_on,0,0,1,,,,,,,,,0,,,81,75
42570,note_on,60,0,1,,,,,,,,,0,,,79,0
42630,note_on,108,0,3,,,,,,,,,2,,,50,62
42630,note_on,60,0,1,,,,,,,,,0,,,81,0
42630,note_on,0,0,1,,,,,,,,,0,,,79,75
42690,note_on,0,0,1,,,,,,,,,0,,,78,75
42690,note_on,60,0,1,,,,,,,,,0,,,79,0
42750,note_on,0,0,3,,,,,,,,,2,,,69,83
42750,note_on,0,0,3,,,,,,,,,2,,,62,78
42750,note_on,0,0,3,,,,,,,,,2,,,72,88
42750,note_on,120,0,3,,,,,,,,,2,,,50,0
42750,note_on,0,0,1,,,,,,,,,0,,,78,101
42750,note_on,60,0,1,,,,,,,,,0,,,78,0
42762,note_on,12,0,3,,,,,,,,,2,,,72,0
42762,note_on,0,0,3,,,,,,,,,2,,,69,0
42762,note_on,0,0,3,,,,,,,,,2,,,62,0
42810,note_on,60,0,1,,,,,,,,,0,,,78,0
42810,note_on,0,0,1,,,,,,,,,0,,,88,75
42816,note_on,6,0,1,,,,,,,,,0,,,88,0
42870,note_on,54,0,1,,,,,,,,,0,,,78,75
42870,note_on,108,0,3,,,,,,,,,2,,,62,62
42870,note_on,0,0,3,,,,,,,,,2,,,69,62
42870,note_on,0,0,3,,,,,,,,,2,,,72,62
42882,note_on,12,0,3,,,,,,,,,2,,,72,0
42882,note_on,0,0,3,,,,,,,,,2,,,69,0
42882,note_on,0,0,3,,,,,,,,,2,,,62,0
42930,note_on,60,0,1,,,,,,,,,0,,,78,0
42930,note_on,0,0,1,,,,,,,,,0,,,86,75
42936,note_on,6,0,1,,,,,,,,,0,,,86,0
42990,note_on,108,0,3,,,,,,,,,2,,,55,62
42990,time_signature,2520,1,0,7,16,6,8,,,,,,,,,
42990,note_on,54,0,1,,,,,,,,,0,,,79,75
43110,note_on,120,0,3,,,,,,,,,2,,,55,0
43110,note_on,0,0,3,,,,,,,,,2,,,71,62
43110,note_on,0,0,3,,,,,,,,,2,,,67,62
43110,note_on,0,0,3,,,,,,,,,2,,,62,62
43200,time_signature,210,1,0,5,16,6,8,,,,,,,,,
43200,note_on,90,0,3,,,,,,,,,2,,,71,0
43200,note_on,0,0,3,,,,,,,,,2,,,67,0
43200,note_on,0,0,3,,,,,,,,,2,,,62,0
43200,note_on,0,0,1,,,,,,,,,0,,,79,75
43200,note_on,0,0,1,,,,,,,,,0,,,74,75
43200,note_on,0,0,1,,,,,,,,,0,,,71,75
43200,note_on,210,0,1,,,,,,,,,0,,,79,0
43230,note_on,0,0,1,,,,,,,,,0,,,71,117
43230,note_on,30,0,1,,,,,,,,,0,,,79,0
43230,note_on,0,0,1,,,,,,,,,0,,,74,0
43230,note_on,0,0,1,,,,,,,,,0,,,71,0
43230,note_on,0,0,1,,,,,,,,,0,,,74,122
43230,note_on,0,0,1,,,,,,,,,0,,,79,127
43320,note_on,0,0,1,,,,,,,,,0,,,78,75
43320,note_on,0,0,1,,,,,,,,,0,,,73,75
43320,note_on,0,0,1,,,,,,,,,0,,,69,75
43320,note_on,0,0,1,,,,,,,,,0,,,71,0
43320,note_on,0,0,1,,,,,,,,,0,,,74,0
43320,note_on,90,0,1,,,,,,,,,0,,,79,0
43350,time_signature,150,1,0,3,4,24,8,,,,,,,,,
43350,note_on,0,0,1,,,,,,,,,0,,,76,75
43350,note_on,0,0,1,,,,,,,,,0,,,71,75
43350,note_on,0,0,1,,,,,,,,,0,,,67,75
43350,note_on,0,0,1,,,,,,,,,0,,,69,0
43350,note_on,0,0,1,,,,,,,,,0,,,73,0
43350,note_on,30,0,1,,,,,,,,,0,,,78,0
43350,note_on,150,0,3,,,,,,,,,2,,,43,62
43470,note_on,120,0,3,,,,,,,,,2,,,43,0
43470,note_on,0,0,3,,,,,,,,,2,,,55,62
43470,note_on,0,0,3,,,,,,,,,2,,,64,62
43470,note_on,0,0,3,,,,,,,,,2,,,59,62
43470,note_on,0,0,1,,,,,,,,,0,,,67,0
43470,note_on,120,0,1,,,,,,,,,0,,,76,0
43470,note_on,0,0,1,,,,,,,,,0,,,71,0
43470,note_on,0,0,1,,,,,,,,,0,,,67,75
43470,note_on,0,0,1,,,,,,,,,0,,,76,75
43470,note_on,0,0,1,,,,,,,,,0,,,71,75
43482,note_on,0,0,3,,,,,,,,,2,,,55,0
43482,note_on,12,0,3,,,,,,,,,2,,,64,0
43482,note_on,0,0,3,,,,,,,,,2,,,59,0
43590,note_on,0,0,3,,,,,,,,,2,,,59,62
43590,note_on,0,0,3,,,,,,,,,2,,,64,62
43590,note_on,0,0,1,,,,,,,,,0,,,76,75
43590,note_on,0,0,1,,,,,,,,,0,,,71,75
43590,note_on,0,0,1,,,,,,,,,0,,,67,75
43590,note_on,0,0,1,,,,,,,,,0,,,67,0
43590,note_on,0,0,1,,,,,,,,,0,,,71,0
43590,note_on,120,0,1,,,,,,,,,0,,,76,0
43590,note_on,108,0,3,,,,,,,,,2,,,55,62
43602,note_on,12,0,3,,,,,,,,,2,,,64,0
43602,note_on,0,0,3,,,,,,,,,2,,,59,0
43602,note_on,0,0,3,,,,,,,,,2,,,55,0
43710,note_on,108,0,3,,,,,,,,,2,,,45,62
43710,note_on,0,0,1,,,,,,,,,0,,,76,75
43710,note_on,120,0,1,,,,,,,,,0,,,76,0
43710,note_on,0,0,1,,,,,,,,,0,,,71,0
43710,note_on,0,0,1,,,,,,,,,0,,,67,0
43710,note_on,0,0,1,,,,,,,,,0,,,67,75
43710,note_on,0,0,1,,,,,,,,,0,,,69,75
43830,note_on,0,0,3,,,,,,,,,2,,,62,62
43830,note_on,0,0,3,,,,,,,,,2,,,57,62
43830,note_on,0,0,3,,,,,,,,,2,,,54,62
43830,note_on,0,0,1,,,,,,,,,0,,,66,75
43830,note_on,120,0,3,,,,,,,,,2,,,45,0
43830,note_on,0,0,1,,,,,,,,,0,,,67,0
43830,note_on,120,0,1,,,,,,,,,0,,,76,0
43830,note_on,0,0,1,,,,,,,,,0,,,74,75
43842,note_on,0,0,3,,,,,,,,,2,,,54,0
43842,note_on,0,0,3,,,,,,,,,2,,,57,0
43842,note_on,12,0,3,,,,,,,,,2,,,62,0
43920,note_on,0,0,1,,,,,,,,,0,,,66,0
43920,note_on,0,0,1,,,,,,,,,0,,,69,0
43920,note_on,90,0,1,,,,,,,,,0,,,74,0
43920,note_on,0,0,1,,,,,,,,,0,,,74,75
43950,note_on,30,0,1,,,,,,,,,0,,,74,0
43950,note_on,108,0,3,,,,,,,,,2,,,54,62
43950,note_on,0,0,3,,,,,,,,,2,,,57,62
43950,note_on,0,0,3,,,,,,,,,2,,,62,62
43950,note_on,0,0,1,,,,,,,,,0,,,74,101
43962,note_on,12,0,3,,,,,,,,,2,,,62,0
43962,note_on,0,0,3,,,,,,,,,2,,,57,0
43962,note_on,0,0,3,,,,,,,,,2,,,54,0
44010,note_on,60,0,1,,,,,,,,,0,,,74,0
44010,note_on,0,0,1,,,,,,,,,0,,,76,75
44070,note_on,108,0,3,,,,,,,,,2,,,45,62
44070,note_on,0,0,1,,,,,,,,,0,,,74,75
44070,note_on,60,0,1,,,,,,,,,0,,,76,0
44130,note_on,0,0,1,,,,,,,,,0,,,73,75
44130,note_on,60,0,1,,,,,,,,,0,,,74,0
44136,note_on,6,0,1,,,,,,,,,0,,,73,0
44190,note_on,54,0,1,,,,,,,,,0,,,73,75
44190,note_on,0,0,3,,,,,,,,,2,,,57,62
44190,note_on,120,0,3,,,,,,,,,2,,,45,0
44190,note_on,0,0,3,,,,,,,,,2,,,67,62
44190,note_on,0,0,3,,,,,,,,,2,,,64,62
44202,note_on,12,0,3,,,,,,,,,2,,,67,0
44202,note_on,0,0,3,,,,,,,,,2,,,57,0
44202,note_on,0,0,3,,,,,,,,,2,,,64,0
44250,note_on,0,0,1,,,,,,,,,0,,,81,75
44250,note_on,60,0,1,,,,,,,,,0,,,73,0
44256,note_on,6,0,1,,,,,,,,,0,,,81,0
44310,note_on,108,0,3,,,,,,,,,2,,,57,62
44310,note_on,54,0,1,,,,,,,,,0,,,73,75
44310,note_on,0,0,3,,,,,,,,,2,,,64,62
44310,note_on,0,0,3,,,,,,,,,2,,,67,62
44322,note_on,0,0,3,,,,,,,,,2,,,64,0
44322,note_on,0,0,3,,,,,,,,,2,,,57,0
44322,note_on,12,0,3,,,,,,,,,2,,,67,0
44370,note_on,60,0,1,,,,,,,,,0,,,73,0
44370,note_on,0,0,1,,,,,,,,,0,,,83,75
44376,note_on,6,0,1,,,,,,,,,0,,,83,0
44430,note_on,54,0,1,,,,,,,,,0,,,74,75
44430,note_on,108,0,3,,,,,,,,,2,,,50,62
44550,note_on,0,0,3,,,,,,,,,2,,,62,62
44550,note_on,0,0,3,,,,,,,,,2,,,57,62
44550,note_on,120,0,3,,,,,,,,,2,,,50,0
44550,note_on,0,0,3,,,,,,,,,2,,,66,62
44640,note_on,210,0,1,,,,,,,,,0,,,74,0
44640,note_on,0,0,1,,,,,,,,,0,,,76,75
44640,note_on,0,0,1,,,,,,,,,0,,,79,75
44640,note_on,0,0,1,,,,,,,,,0,,,84,75
44670,note_on,0,0,1,,,,,,,,,0,,,76,117
44670,note_on,30,0,1,,,,,,,,,0,,,84,0
44670,note_on,0,0,1,,,,,,,,,0,,,79,0
44670,note_on,0,0,1,,,,,,,,,0,,,76,0
44670,note_on,0,0,1,,,,,,,,,0,,,84,127
44670,note_on,0,0,1,,,,,,,,,0,,,79,122
44670,note_on,120,0,3,,,,,,,,,2,,,66,0
44670,note_on,0,0,3,,,,,,,,,2,,,62,0
44670,note_on,0,0,3,,,,,,,,,2,,,57,0
44760,note_on,90,0,1,,,,,,,,,0,,,84,0
44760,note_on,0,0,1,,,,,,,,,0,,,76,0
44760,note_on,0,0,1,,,,,,,,,0,,,74,75
44760,note_on,0,0,1,,,,,,,,,0,,,78,75
44760,note_on,0,0,1,,,,,,,,,0,,,83,75
44760,note_on,0,0,1,,,,,,,,,0,,,79,0
44790,note_on,120,0,3,,,,,,,,,2,,,48,62
44790,note_on,0,0,1,,,,,,,,,0,,,81,75
44790,note_on,0,0,1,,,,,,,,,0,,,76,75
44790,note_on,0,0,1,,,,,,,,,0,,,72,75
44790,note_on,0,0,1,,,,,,,,,0,,,74,0
44790,note_on,0,0,1,,,,,,,,,0,,,78,0
44790,note_on,30,0,1,,,,,,,,,0,,,83,0
44910,note_on,0,0,3,,,,,,,,,2,,,64,62
44910,note_on,0,0,3,,,,,,,,,2,,,60,62
44910,note_on,120,0,3,,,,,,,,,2,,,48,0
44910,note_on,0,0,3,,,,,,,,,2,,,69,62
44910,note_on,0,0,1,,,,,,,,,0,,,81,75
44910,note_on,0,0,1,,,,,,,,,0,,,76,0
44910,note_on,120,0,1,,,,,,,,,0,,,81,0
44910,note_on,0,0,1,,,,,,,,,0,,,72,0
44910,note_on,0,0,1,,,,,,,,,0,,,72,75
44910,note_on,0,0,1,,,,,,,,,0,,,76,75
44922,note_on,0,0,3,,,,,,,,,2,,,60,0
44922,note_on,0,0,3,,,,,,,,,2,,,64,0
44922,note_on,12,0,3,,,,,,,,,2,,,69,0
45030,note_on,0,0,3,,,,,,,,,2,,,69,62
45030,note_on,0,0,3,,,,,,,,,2,,,64,62
45030,note_on,108,0,3,,,,,,,,,2,,,60,62
45030,note_on,0,0,1,,,,,,,,,0,,,76,0
45030,note_on,120,0,1,,,,,,,,,0,,,81,0
45030,note_on,0,0,1,,,,,,,,,0,,,72,75
45030,note_on,0,0,1,,,,,,,,,0,,,76,75
45030,note_on,0,0,1,,,,,,,,,0,,,81,75
45030,note_on,0,0,1,,,,,,,,,0,,,72,0
45042,note_on,0,0,3,,,,,,,,,2,,,60,0
45042,note_on,0,0,3,,,,,,,,,2,,,64,0
45042,note_on,12,0,3,,,,,,,,,2,,,69,0
45150,note_on,0,0,1,,,,,,,,,0,,,81,75
45150,note_on,0,0,1,,,,,,,,,0,,,74,75
45150,note_on,0,0,1,,,,,,,,,0,,,72,75
45150,note_on,0,0,1,,,,,,,,,0,,,76,0
45150,note_on,120,0,1,,,,,,,,,0,,,81,0
45150,note_on,0,0,1,,,,,,,,,0,,,72,0
45150,note_on,108,0,3,,,,,,,,,2,,,50,62
45270,note_on,0,0,3,,,,,,,,,2,,,62,62
45270,note_on,0,0,3,,,,,,,,,2,,,67,62
45270,note_on,0,0,3,,,,,,,,,2,,,59,62
45270,note_on,0,0,1,,,,,,,,,0,,,71,75
45270,note_on,0,0,1,,,,,,,,,0,,,79,75
45270,note_on,120,0,1,,,,,,,,,0,,,81,0
45270,note_on,0,0,1,,,,,,,,,0,,,72,0
45270,note_on,120,0,3,,,,,,,,,2,,,50,0
45282,note_on,12,0,3,,,,,,,,,2,,,67,0
45282,note_on,0,0,3,,,,,,,,,2,,,59,0
45282,note_on,0,0,3,,,,,,,,,2,,,62,0
45360,note_on,0,0,1,,,,,,,,,0,,,79,75
45360,note_on,0,0,1,,,,,,,,,0,,,74,0
45360,note_on,90,0,1,,,,,,,,,0,,,79,0
45360,note_on,0,0,1,,,,,,,,,0,,,71,0
45390,note_on,108,0,3,,,,,,,,,2,,,59,62
45390,note_on,0,0,1,,,,,,,,,0,,,79,101
45390,note_on,30,0,1,,,,,,,,,0,,,79,0
45390,note_on,0,0,3,,,,,,,,,2,,,62,62
45390,note_on,0,0,3,,,,,,,,,2,,,67,62
45402,note_on,0,0,3,,,,,,,,,2,,,62,0
45402,note_on,12,0,3,,,,,,,,,2,,,67,0
45402,note_on,0,0,3,,,,,,,,,2,,,59,0
45450,note_on,60,0,1,,,,,,,,,0,,,79,0
45450,note_on,0,0,1,,,,,,,,,0,,,81,75
45510,note_on,60,0,1,,,,,,,,,0,,,81,0
45510,note_on,0,0,1,,,,,,,,,0,,,79,75
45510,note_on,108,0,3,,,,,,,,,2,,,50,62
45570,note_on,60,0,1,,,,,,,,,0,,,79,0
45570,note_on,0,0,1,,,,,,,,,0,,,78,75
45630,note_on,0,0,3,,,,,,,,,2,,,62,78
45630,note_on,0,0,3,,,,,,,,,2,,,69,83
45630,note_on,0,0,3,,,,,,,,,2,,,72,88
45630,note_on,60,0,1,,,,,,,,,0,,,78,0
45630,note_on,0,0,1,,,,,,,,,0,,,78,101
45630,note_on,120,0,3,,,,,,,,,2,,,50,0
45642,note_on,0,0,3,,,,,,,,,2,,,69,0
45642,note_on,0,0,3,,,,,,,,,2,,,62,0
45642,note_on,12,0,3,,,,,,,,,2,,,72,0
45690,note_on,0,0,1,,,,,,,,,0,,,88,75
45690,note_on,60,0,1,,,,,,,,,0,,,78,0
45696,note_on,6,0,1,,,,,,,,,0,,,88,0
45750,note_on,54,0,1,,,,,,,,,0,,,78,75
45750,note_on,108,0,3,,,,,,,,,2,,,62,62
45750,note_on,0,0,3,,,,,,,,,2,,,69,62
45750,note_on,0,0,3,,,,,,,,,2,,,72,62
45762,note_on,12,0,3,,,,,,,,,2,,,72,0
45762,note_on,0,0,3,,,,,,,,,2,,,69,0
45762,note_on,0,0,3,,,,,,,,,2,,,62,0
45810,note_on,60,0,1,,,,,,,,,0,,,78,0
45810,note_on,0,0,1,,,,,,,,,0,,,86,75
45816,note_on,6,0,1,,,,,,,,,0,,,86,0
45870,note_on,108,0,3,,,,,,,,,2,,,55,62
45870,time_signature,2520,1,0,7,16,6,8,,,,,,,,,
45870,note_on,54,0,1,,,,,,,,,0,,,79,75
45990,note_on,120,0,3,,,,,,,,,2,,,55,0
45990,note_on,0,0,3,,,,,,,,,2,,,71,62
45990,note_on,0,0,3,,,,,,,,,2,,,67,62
45990,note_on,0,0,3,,,,,,,,,2,,,62,62
46080,note_on,0,0,3,,,,,,,,,2,,,62,0
46080,time_signature,210,1,0,5,16,6,8,,,,,,,,,
46080,note_on,210,0,1,,,,,,,,,0,,,79,0
46080,note_on,0,0,1,,,,,,,,,0,,,79,88
46080,note_on,0,0,3,,,,,,,,,2,,,67,0
46080,note_on,90,0,3,,,,,,,,,2,,,71,0
46110,note_on,30,0,1,,,,,,,,,0,,,79,0
46110,note_on,0,0,1,,,,,,,,,0,,,79,114
46170,note_on,60,0,1,,,,,,,,,0,,,79,0
46170,note_on,0,0,1,,,,,,,,,0,,,81,88
46230,note_on,150,0,3,,,,,,,,,2,,,50,75
46230,note_on,60,0,1,,,,,,,,,0,,,81,0
46230,note_on,0,0,1,,,,,,,,,0,,,79,88
46230,time_signature,150,1,0,3,4,24,8,,,,,,,,,
46290,note_on,0,0,1,,,,,,,,,0,,,78,88
46290,note_on,60,0,1,,,,,,,,,0,,,79,0
46296,note_on,6,0,1,,,,,,,,,0,,,78,0
46350,note_on,120,0,3,,,,,,,,,2,,,50,0
46350,note_on,0,0,3,,,,,,,,,2,,,62,101
46350,note_on,54,0,1,,,,,,,,,0,,,78,114
46350,note_on,0,0,3,,,,,,,,,2,,,72,101
46350,note_on,0,0,3,,,,,,,,,2,,,69,101
46362,note_on,12,0,3,,,,,,,,,2,,,72,0
46362,note_on,0,0,3,,,,,,,,,2,,,69,0
46362,note_on,0,0,3,,,,,,,,,2,,,62,0
46410,note_on,60,0,1,,,,,,,,,0,,,78,0
46410,note_on,0,0,1,,,,,,,,,0,,,88,88
46416,note_on,6,0,1,,,,,,,,,0,,,88,0
46470,note_on,54,0,1,,,,,,,,,0,,,78,88
46470,note_on,0,0,3,,,,,,,,,2,,,69,75
46470,note_on,0,0,3,,,,,,,,,2,,,72,75
46470,note_on,108,0,3,,,,,,,,,2,,,62,75
46530,note_on,60,0,1,,,,,,,,,0,,,78,0
46530,note_on,0,0,1,,,,,,,,,0,,,86,88
46536,note_on,6,0,1,,,,,,,,,0,,,86,0
46590,note_on,0,0,3,,,,,,,,,2,,,69,0
46590,note_on,0,0,3,,,,,,,,,2,,,62,0
46590,note_on,0,0,3,,,,,,,,,2,,,50,75
46590,note_on,54,0,1,,,,,,,,,0,,,79,88
46590,note_on,120,0,3,,,,,,,,,2,,,72,0
46650,note_on,60,0,1,,,,,,,,,0,,,79,0
46650,note_on,0,0,1,,,,,,,,,0,,,78,88
46656,note_on,6,0,1,,,,,,,,,0,,,78,0
46710,note_on,0,0,3,,,,,,,,,2,,,72,101
46710,note_on,0,0,3,,,,,,,,,2,,,69,101
46710,note_on,0,0,3,,,,,,,,,2,,,62,101
46710,note_on,120,0,3,,,,,,,,,2,,,50,0
46710,note_on,54,0,1,,,,,,,,,0,,,78,114
46722,note_on,12,0,3,,,,,,,,,2,,,72,0
46722,note_on,0,0,3,,,,,,,,,2,,,62,0
46722,note_on,0,0,3,,,,,,,,,2,,,69,0
46770,note_on,60,0,1,,,,,,,,,0,,,78,0
46770,note_on,0,0,1,,,,,,,,,0,,,88,88
46776,note_on,6,0,1,,,,,,,,,0,,,88,0
46830,note_on,108,0,3,,,,,,,,,2,,,62,75
46830,note_on,0,0,3,,,,,,,,,2,,,72,75
46830,note_on,54,0,1,,,,,,,,,0,,,78,88
46830,note_on,0,0,3,,,,,,,,,2,,,69,75
46890,note_on,60,0,1,,,,,,,,,0,,,78,0
46890,note_on,0,0,1,,,,,,,,,0,,,86,88
46896,note_on,6,0,1,,,,,,,,,0,,,86,0
46950,note_on,120,0,3,,,,,,,,,2,,,72,0
46950,note_on,54,0,1,,,,,,,,,0,,,81,88
46950,note_on,0,0,3,,,,,,,,,2,,,69,0
46950,note_on,0,0,3,,,,,,,,,2,,,62,0
46950,note_on,0,0,3,,,,,,,,,2,,,55,75
47010,note_on,60,0,1,,,,,,,,,0,,,81,0
47010,note_on,0,0,1,,,,,,,,,0,,,79,88
47016,note_on,6,0,1,,,,,,,,,0,,,79,0
47070,note_on,0,0,3,,,,,,,,,2,,,71,101
47070,note_on,0,0,3,,,,,,,,,2,,,67,101
47070,note_on,0,0,3,,,,,,,,,2,,,62,101
47070,note_on,120,0,3,,,,,,,,,2,,,55,0
47070,note_on,54,0,1,,,,,,,,,0,,,79,114
47082,note_on,0,0,3,,,,,,,,,2,,,62,0
47082,note_on,0,0,3,,,,,,,,,2,,,67,0
47082,note_on,12,0,3,,,,,,,,,2,,,71,0
47130,note_on,0,0,1,,,,,,,,,0,,,88,114
47130,note_on,60,0,1,,,,,,,,,0,,,79,0
47136,note_on,6,0,1,,,,,,,,,0,,,88,0
47190,note_on,108,0,3,,,,,,,,,2,,,62,75
47190,note_on,54,0,1,,,,,,,,,0,,,79,88
47190,note_on,0,0,3,,,,,,,,,2,,,67,75
47190,note_on,0,0,3,,,,,,,,,2,,,71,75
47202,note_on,0,0,3,,,,,,,,,2,,,62,0
47202,note_on,0,0,3,,,,,,,,,2,,,67,0
47202,note_on,12,0,3,,,,,,,,,2,,,71,0
47250,note_on,60,0,1,,,,,,,,,0,,,79,0
47250,note_on,0,0,1,,,,,,,,,0,,,86,88
47256,note_on,6,0,1,,,,,,,,,0,,,86,0
47310,note_on,54,0,1,,,,,,,,,0,,,81,88
47310,note_on,108,0,3,,,,,,,,,2,,,55,75
47370,note_on,60,0,1,,,,,,,,,0,,,81,0
47370,note_on,0,0,1,,,,,,,,,0,,,79,88
47376,note_on,6,0,1,,,,,,,,,0,,,79,0
47430,note_on,0,0,3,,,,,,,,,2,,,71,101
47430,note_on,0,0,3,,,,,,,,,2,,,67,101
47430,note_on,120,0,3,,,,,,,,,2,,,55,0
47430,note_on,0,0,3,,,,,,,,,2,,,62,101
47430,note_on,54,0,1,,,,,,,,,0,,,79,114
47442,note_on,12,0,3,,,,,,,,,2,,,71,0
47442,note_on,0,0,3,,,,,,,,,2,,,67,0
47442,note_on,0,0,3,,,,,,,,,2,,,62,0
47490,note_on,60,0,1,,,,,,,,,0,,,79,0
47490,note_on,0,0,1,,,,,,,,,0,,,88,114
47496,note_on,6,0,1,,,,,,,,,0,,,88,0
47550,note_on,108,0,3,,,,,,,,,2,,,62,75
47550,note_on,0,0,3,,,,,,,,,2,,,67,75
47550,note_on,0,0,3,,,,,,,,,2,,,71,75
47550,note_on,54,0,1,,,,,,,,,0,,,79,88
47562,note_on,0,0,3,,,,,,,,,2,,,67,0
47562,note_on,12,0,3,,,,,,,,,2,,,71,0
47562,note_on,0,0,3,,,,,,,,,2,,,62,0
47610,note_on,60,0,1,,,,,,,,,0,,,79,0
47610,note_on,0,0,1,,,,,,,,,0,,,86,88
47616,note_on,6,0,1,,,,,,,,,0,,,86,0
47670,note_on,108,0,3,,,,,,,,,2,,,49,88
47670,note_on,54,0,1,,,,,,,,,0,,,81,101
47730,note_on,60,0,1,,,,,,,,,0,,,81,0
47730,note_on,0,0,1,,,,,,,,,0,,,79,101
47736,note_on,6,0,1,,,,,,,,,0,,,79,0
47790,note_on,0,0,3,,,,,,,,,2,,,67,88
47790,note_on,0,0,3,,,,,,,,,2,,,58,88
47790,note_on,0,0,3,,,,,,,,,2,,,64,88
47790,note_on,54,0,1,,,,,,,,,0,,,79,101
47790,note_on,120,0,3,,,,,,,,,2,,,49,0
47802,note_on,0,0,3,,,,,,,,,2,,,64,0
47802,note_on,0,0,3,,,,,,,,,2,,,58,0
47802,note_on,12,0,3,,,,,,,,,2,,,67,0
47850,note_on,60,0,1,,,,,,,,,0,,,79,0
47850,note_on,0,0,1,,,,,,,,,0,,,91,101
47856,note_on,6,0,1,,,,,,,,,0,,,91,0
47910,note_on,54,0,1,,,,,,,,,0,,,76,101
47910,note_on,108,0,3,,,,,,,,,2,,,58,88
47910,note_on,0,0,3,,,,,,,,,2,,,64,88
47910,note_on,0,0,3,,,,,,,,,2,,,67,88
47922,note_on,12,0,3,,,,,,,,,2,,,67,0
47922,note_on,0,0,3,,,,,,,,,2,,,64,0
47922,note_on,0,0,3,,,,,,,,,2,,,58,0
47970,note_on,0,0,1,,,,,,,,,0,,,88,101
47970,note_on,60,0,1,,,,,,,,,0,,,76,0
47976,note_on,6,0,1,,,,,,,,,0,,,88,0
48030,note_on,108,0,3,,,,,,,,,2,,,50,88
48030,note_on,54,0,1,,,,,,,,,0,,,76,101
48090,note_on,60,0,1,,,,,,,,,0,,,76,0
48090,note_on,0,0,1,,,,,,,,,0,,,74,101
48096,note_on,6,0,1,,,,,,,,,0,,,74,0
48150,note_on,0,0,3,,,,,,,,,2,,,67,88
48150,note_on,0,0,3,,,,,,,,,2,,,62,88
48150,note_on,0,0,3,,,,,,,,,2,,,59,88
48150,note_on,54,0,1,,,,,,,,,0,,,74,101
48150,note_on,120,0,3,,,,,,,,,2,,,50,0
48162,note_on,12,0,3,,,,,,,,,2,,,67,0
48162,note_on,0,0,3,,,,,,,,,2,,,62,0
48162,note_on,0,0,3,,,,,,,,,2,,,59,0
48210,note_on,0,0,1,,,,,,,,,0,,,86,101
48210,note_on,60,0,1,,,,,,,,,0,,,74,0
48216,note_on,6,0,1,,,,,,,,,0,,,86,0
48270,note_on,0,0,3,,,,,,,,,2,,,67,88
48270,note_on,0,0,3,,,,,,,,,2,,,62,88
48270,note_on,54,0,1,,,,,,,,,0,,,71,101
48270,note_on,108,0,3,,,,,,,,,2,,,59,88
48282,note_on,0,0,3,,,,,,,,,2,,,59,0
48282,note_on,0,0,3,,,,,,,,,2,,,62,0
48282,note_on,12,0,3,,,,,,,,,2,,,67,0
48330,note_on,0,0,1,,,,,,,,,0,,,83,101
48330,note_on,60,0,1,,,,,,,,,0,,,71,0
48336,note_on,6,0,1,,,,,,,,,0,,,83,0
48390,note_on,54,0,1,,,,,,,,,0,,,86,101
48390,note_on,108,0,3,,,,,,,,,2,,,50,88
48450,note_on,0,0,1,,,,,,,,,0,,,84,101
48450,note_on,60,0,1,,,,,,,,,0,,,86,0
48456,note_on,6,0,1,,,,,,,,,0,,,84,0
48510,note_on,0,0,3,,,,,,,,,2,,,66,88
48510,note_on,0,0,3,,,,,,,,,2,,,60,88
48510,note_on,120,0,3,,,,,,,,,2,,,50,0
48510,note_on,0,0,3,,,,,,,,,2,,,62,88
48510,note_on,54,0,1,,,,,,,,,0,,,84,101
48522,note_on,12,0,3,,,,,,,,,2,,,66,0
48522,note_on,0,0,3,,,,,,,,,2,,,62,0
48522,note_on,0,0,3,,,,,,,,,2,,,60,0
48570,note_on,0,0,1,,,,,,,,,0,,,96,101
48570,note_on,60,0,1,,,,,,,,,0,,,84,0
48576,note_on,6,0,1,,,,,,,,,0,,,96,0
48630,note_on,108,0,3,,,,,,,,,2,,,60,88
48630,note_on,0,0,3,,,,,,,,,2,,,62,88
48630,note_on,0,0,3,,,,,,,,,2,,,66,88
48630,note_on,54,0,1,,,,,,,,,0,,,81,101
48642,note_on,12,0,3,,,,,,,,,2,,,66,0
48642,note_on,0,0,3,,,,,,,,,2,,,62,0
48642,note_on,0,0,3,,,,,,,,,2,,,60,0
48690,note_on,60,0,1,,,,,,,,,0,,,81,0
48690,note_on,0,0,1,,,,,,,,,0,,,93,101
48696,note_on,6,0,1,,,,,,,,,0,,,93,0
48750,note_on,0,0,1,,,,,,,,,0,,,91,101
48750,note_on,54,0,1,,,,,,,,,0,,,79,101
48750,time_signature,2520,1,0,7,16,6,8,,,,,,,,,
48750,note_on,108,0,3,,,,,,,,,2,,,55,88
48870,note_on,0,0,3,,,,,,,,,2,,,59,88
48870,note_on,120,0,3,,,,,,,,,2,,,55,0
48870,note_on,0,0,3,,,,,,,,,2,,,67,88
48870,note_on,0,0,3,,,,,,,,,2,,,62,88
48960,note_on,0,0,3,,,,,,,,,2,,,59,0
48960,note_on,0,0,1,,,,,,,,,0,,,79,0
48960,note_on,0,0,1,,,,,,,,,0,,,79,88
48960,note_on,210,0,1,,,,,,,,,0,,,91,0
48960,note_on,90,0,3,,,,,,,,,2,,,67,0
48960,note_on,0,0,3,,,,,,,,,2,,,62,0
48960,time_signature,210,1,0,5,16,6,8,,,,,,,,,
48990,note_on,30,0,1,,,,,,,,,0,,,79,0
48990,note_on,0,0,1,,,,,,,,,0,,,79,114
49050,note_on,0,0,1,,,,,,,,,0,,,81,88
49050,note_on,60,0,1,,,,,,,,,0,,,79,0
49110,time_signature,150,1,0,3,4,24,8,,,,,,,,,
49110,note_on,0,0,1,,,,,,,,,0,,,79,88
49110,note_on,60,0,1,,,,,,,,,0,,,81,0
49110,note_on,150,0,3,,,,,,,,,2,,,50,75
49170,note_on,0,0,1,,,,,,,,,0,,,78,88
49170,note_on,60,0,1,,,,,,,,,0,,,79,0
49176,note_on,6,0,1,,,,,,,,,0,,,78,0
49230,note_on,120,0,3,,,,,,,,,2,,,50,0
49230,note_on,0,0,3,,,,,,,,,2,,,69,101
49230,note_on,0,0,3,,,,,,,,,2,,,72,101
49230,note_on,54,0,1,,,,,,,,,0,,,78,114
49230,note_on,0,0,3,,,,,,,,,2,,,62,101
49242,note_on,0,0,3,,,,,,,,,2,,,69,0
49242,note_on,12,0,3,,,,,,,,,2,,,72,0
49242,note_on,0,0,3,,,,,,,,,2,,,62,0
49290,note_on,60,0,1,,,,,,,,,0,,,78,0
49290,note_on,0,0,1,,,,,,,,,0,,,88,88
49296,note_on,6,0,1,,,,,,,,,0,,,88,0
49350,note_on,108,0,3,,,,,,,,,2,,,62,75
49350,note_on,0,0,3,,,,,,,,,2,,,69,75
49350,note_on,0,0,3,,,,,,,,,2,,,72,75
49350,note_on,54,0,1,,,,,,,,,0,,,78,88
49410,note_on,0,0,1,,,,,,,,,0,,,86,88
49410,note_on,60,0,1,,,,,,,,,0,,,78,0
49416,note_on,6,0,1,,,,,,,,,0,,,86,0
49470,note_on,0,0,3,,,,,,,,,2,,,62,0
49470,note_on,120,0,3,,,,,,,,,2,,,72,0
49470,note_on,0,0,3,,,,,,,,,2,,,50,75
49470,note_on,0,0,3,,,,,,,,,2,,,69,0
49470,note_on,54,0,1,,,,,,,,,0,,,79,88
49530,note_on,60,0,1,,,,,,,,,0,,,79,0
49530,note_on,0,0,1,,,,,,,,,0,,,78,88
49536,note_on,6,0,1,,,,,,,,,0,,,78,0
49590,note_on,120,0,3,,,,,,,,,2,,,50,0
49590,note_on,0,0,3,,,,,,,,,2,,,72,101
49590,note_on,0,0,3,,,,,,,,,2,,,69,101
49590,note_on,0,0,3,,,,,,,,,2,,,62,101
49590,note_on,54,0,1,,,,,,,,,0,,,78,114
49602,note_on,0,0,3,,,,,,,,,2,,,62,0
49602,note_on,0,0,3,,,,,,,,,2,,,69,0
49602,note_on,12,0,3,,,,,,,,,2,,,72,0
49650,note_on,60,0,1,,,,,,,,,0,,,78,0
49650,note_on,0,0,1,,,,,,,,,0,,,88,88
49656,note_on,6,0,1,,,,,,,,,0,,,88,0
49710,note_on,0,0,3,,,,,,,,,2,,,72,75
49710,note_on,108,0,3,,,,,,,,,2,,,62,75
49710,note_on,54,0,1,,,,,,,,,0,,,78,88
49710,note_on,0,0,3,,,,,,,,,2,,,69,75
49770,note_on,0,0,1,,,,,,,,,0,,,86,88
49770,note_on,60,0,1,,,,,,,,,0,,,78,0
49776,note_on,6,0,1,,,,,,,,,0,,,86,0
49830,note_on,120,0,3,,,,,,,,,2,,,72,0
49830,note_on,54,0,1,,,,,,,,,0,,,81,88
49830,note_on,0,0,3,,,,,,,,,2,,,69,0
49830,note_on,0,0,3,,,,,,,,,2,,,62,0
49830,note_on,0,0,3,,,,,,,,,2,,,55,75
49890,note_on,0,0,1,,,,,,,,,0,,,79,88
49890,note_on,60,0,1,,,,,,,,,0,,,81,0
49896,note_on,6,0,1,,,,,,,,,0,,,79,0
49950,note_on,0,0,3,,,,,,,,,2,,,67,101
49950,note_on,54,0,1,,,,,,,,,0,,,79,114
49950,note_on,120,0,3,,,,,,,,,2,,,55,0
49950,note_on,0,0,3,,,,,,,,,2,,,62,101
49950,note_on,0,0,3,,,,,,,,,2,,,71,101
49962,note_on,12,0,3,,,,,,,,,2,,,71,0
49962,note_on,0,0,3,,,,,,,,,2,,,67,0
49962,note_on,0,0,3,,,,,,,,,2,,,62,0
50010,note_on,0,0,1,,,,,,,,,0,,,88,114
50010,note_on,60,0,1,,,,,,,,,0,,,79,0
50016,note_on,6,0,1,,,,,,,,,0,,,88,0
50070,note_on,108,0,3,,,,,,,,,2,,,62,75
50070,note_on,54,0,1,,,,,,,,,0,,,79,88
50070,note_on,0,0,3,,,,,,,,,2,,,71,75
50070,note_on,0,0,3,,,,,,,,,2,,,67,75
50082,note_on,0,0,3,,,,,,,,,2,,,62,0
50082,note_on,0,0,3,,,,,,,,,2,,,67,0
50082,note_on,12,0,3,,,,,,,,,2,,,71,0
50130,note_on,0,0,1,,,,,,,,,0,,,86,88
50130,note_on,60,0,1,,,,,,,,,0,,,79,0
50136,note_on,6,0,1,,,,,,,,,0,,,86,0
50190,note_on,108,0,3,,,,,,,,,2,,,55,75
50190,note_on,54,0,1,,,,,,,,,0,,,81,88
50250,note_on,60,0,1,,,,,,,,,0,,,81,0
50250,note_on,0,0,1,,,,,,,,,0,,,79,88
50256,note_on,6,0,1,,,,,,,,,0,,,79,0
50310,note_on,120,0,3,,,,,,,,,2,,,55,0
50310,note_on,0,0,3,,,,,,,,,2,,,62,101
50310,note_on,0,0,3,,,,,,,,,2,,,67,101
50310,note_on,0,0,3,,,,,,,,,2,,,71,101
50310,note_on,54,0,1,,,,,,,,,0,,,79,114
50322,note_on,0,0,3,,,,,,,,,2,,,67,0
50322,note_on,12,0,3,,,,,,,,,2,,,71,0
50322,note_on,0,0,3,,,,,,,,,2,,,62,0
50370,note_on,0,0,1,,,,,,,,,0,,,88,114
50370,note_on,60,0,1,,,,,,,,,0,,,79,0
50376,note_on,6,0,1,,,,,,,,,0,,,88,0
50430,note_on,54,0,1,,,,,,,,,0,,,79,88
50430,note_on,0,0,3,,,,,,,,,2,,,71,75
50430,note_on,0,0,3,,,,,,,,,2,,,67,75
50430,note_on,108,0,3,,,,,,,,,2,,,62,75
50442,note_on,12,0,3,,,,,,,,,2,,,71,0
50442,note_on,0,0,3,,,,,,,,,2,,,67,0
50442,note_on,0,0,3,,,,,,,,,2,,,62,0
50490,note_on,60,0,1,,,,,,,,,0,,,79,0
50490,note_on,0,0,1,,,,,,,,,0,,,86,88
50496,note_on,6,0,1,,,,,,,,,0,,,86,0
50550,note_on,108,0,3,,,,,,,,,2,,,49,88
50550,note_on,54,0,1,,,,,,,,,0,,,81,101
50610,note_on,60,0,1,,,,,,,,,0,,,81,0
50610,note_on,0,0,1,,,,,,,,,0,,,79,101
50616,note_on,6,0,1,,,,,,,,,0,,,79,0
50670,note_on,0,0,3,,,,,,,,,2,,,67,88
50670,note_on,0,0,3,,,,,,,,,2,,,58,88
50670,note_on,0,0,3,,,,,,,,,2,,,64,88
50670,note_on,54,0,1,,,,,,,,,0,,,79,101
50670,note_on,120,0,3,,,,,,,,,2,,,49,0
50682,note_on,0,0,3,,,,,,,,,2,,,58,0
50682,note_on,0,0,3,,,,,,,,,2,,,64,0
50682,note_on,12,0,3,,,,,,,,,2,,,67,0
50730,note_on,0,0,1,,,,,,,,,0,,,91,101
50730,note_on,60,0,1,,,,,,,,,0,,,79,0
50736,note_on,6,0,1,,,,,,,,,0,,,91,0
50790,note_on,54,0,1,,,,,,,,,0,,,76,101
50790,note_on,108,0,3,,,,,,,,,2,,,58,88
50790,note_on,0,0,3,,,,,,,,,2,,,64,88
50790,note_on,0,0,3,,,,,,,,,2,,,67,88
50802,note_on,0,0,3,,,,,,,,,2,,,58,0
50802,note_on,0,0,3,,,,,,,,,2,,,64,0
50802,note_on,12,0,3,,,,,,,,,2,,,67,0
50850,note_on,60,0,1,,,,,,,,,0,,,76,0
50850,note_on,0,0,1,,,,,,,,,0,,,88,101
50856,note_on,6,0,1,,,,,,,,,0,,,88,0
50910,note_on,108,0,3,,,,,,,,,2,,,50,88
50910,note_on,54,0,1,,,,,,,,,0,,,76,101
50970,note_on,60,0,1,,,,,,,,,0,,,76,0
50970,note_on,0,0,1,,,,,,,,,0,,,74,101
50976,note_on,6,0,1,,,,,,,,,0,,,74,0
51030,note_on,0,0,3,,,,,,,,,2,,,62,88
51030,note_on,0,0,3,,,,,,,,,2,,,59,88
51030,note_on,54,0,1,,,,,,,,,0,,,74,101
51030,note_on,120,0,3,,,,,,,,,2,,,50,0
51030,note_on,0,0,3,,,,,,,,,2,,,67,88
51042,note_on,0,0,3,,,,,,,,,2,,,59,0
51042,note_on,0,0,3,,,,,,,,,2,,,62,0
51042,note_on,12,0,3,,,,,,,,,2,,,67,0
51090,note_on,60,0,1,,,,,,,,,0,,,74,0
51090,note_on,0,0,1,,,,,,,,,0,,,86,101
51096,note_on,6,0,1,,,,,,,,,0,,,86,0
51150,note_on,0,0,3,,,,,,,,,2,,,62,88
51150,note_on,108,0,3,,,,,,,,,2,,,59,88
51150,note_on,54,0,1,,,,,,,,,0,,,71,101
51150,note_on,0,0,3,,,,,,,,,2,,,67,88
51162,note_on,12,0,3,,,,,,,,,2,,,67,0
51162,note_on,0,0,3,,,,,,,,,2,,,62,0
51162,note_on,0,0,3,,,,,,,,,2,,,59,0
51210,note_on,60,0,1,,,,,,,,,0,,,71,0
51210,note_on,0,0,1,,,,,,,,,0,,,83,101
51216,note_on,6,0,1,,,,,,,,,0,,,83,0
51270,note_on,54,0,1,,,,,,,,,0,,,86,101
51270,note_on,108,0,3,,,,,,,,,2,,,50,88
51330,note_on,0,0,1,,,,,,,,,0,,,84,101
51330,note_on,60,0,1,,,,,,,,,0,,,86,0
51336,note_on,6,0,1,,,,,,,,,0,,,84,0
51390,note_on,0,0,3,,,,,,,,,2,,,66,88
51390,note_on,0,0,3,,,,,,,,,2,,,62,88
51390,note_on,120,0,3,,,,,,,,,2,,,50,0
51390,note_on,0,0,3,,,,,,,,,2,,,60,88
51390,note_on,54,0,1,,,,,,,,,0,,,84,101
51402,note_on,12,0,3,,,,,,,,,2,,,66,0
51402,note_on,0,0,3,,,,,,,,,2,,,62,0
51402,note_on,0,0,3,,,,,,,,,2,,,60,0
51450,note_on,60,0,1,,,,,,,,,0,,,84,0
51450,note_on,0,0,1,,,,,,,,,0,,,96,101
51456,note_on,6,0,1,,,,,,,,,0,,,96,0
51510,note_on,54,0,1,,,,,,,,,0,,,81,101
51510,note_on,0,0,3,,,,,,,,,2,,,62,88
51510,note_on,0,0,3,,,,,,,,,2,,,66,88
51510,note_on,108,0,3,,,,,,,,,2,,,60,88
51522,note_on,12,0,3,,,,,,,,,2,,,66,0
51522,note_on,0,0,3,,,,,,,,,2,,,62,0
51522,note_on,0,0,3,,,,,,,,,2,,,60,0
51570,note_on,0,0,1,,,,,,,,,0,,,93,101
51570,note_on,60,0,1,,,,,,,,,0,,,81,0
51576,note_on,6,0,1,,,,,,,,,0,,,93,0
51630,time_signature,2520,1,0,2,4,24,8,,,,,,,,,
51630,note_on,54,0,1,,,,,,,,,0,,,79,101
51630,note_on,108,0,3,,,,,,,,,2,,,55,88
51630,note_on,0,0,1,,,,,,,,,0,,,91,101
51750,note_on,0,0,3,,,,,,,,,2,,,59,88
51750,note_on,0,0,3,,,,,,,,,2,,,62,88
51750,note_on,0,0,3,,,,,,,,,2,,,67,88
51750,note_on,120,0,3,,,,,,,,,2,,,55,0
51870,note_on,240,0,1,,,,,,,,,0,,,91,0
51870,time_signature,240,1,0,1,4,24,8,,,,,,,,,
51870,note_on,0,0,1,,,,,,,,,0,,,70,49
51870,note_on,0,0,1,,,,,,,,,0,,,79,0
51870,note_on,0,0,3,,,,,,,,,2,,,62,0
51870,note_on,0,0,3,,,,,,,,,2,,,59,0
51870,note_on,120,0,3,,,,,,,,,2,,,67,0
51870,key_signature,0,1,0,,,,,Bb,,,,,,,,
51930,note_on,60,0,1,,,,,,,,,0,,,70,0
51930,note_on,0,0,1,,,,,,,,,0,,,77,49
51990,time_signature,120,1,0,3,4,24,8,,,,,,,,,
51990,note_on,60,0,1,,,,,,,,,0,,,77,0
51990,note_on,0,0,1,,,,,,,,,0,,,74,75
51990,note_on,120,0,3,,,,,,,,,2,,,46,36
52110,note_on,120,0,3,,,,,,,,,2,,,46,0
52110,note_on,0,0,3,,,,,,,,,2,,,53,36
52110,note_on,0,0,3,,,,,,,,,2,,,58,36
52110,note_on,0,0,3,,,,,,,,,2,,,62,36
52110,note_on,120,0,1,,,,,,,,,0,,,74,0
52110,note_on,0,0,1,,,,,,,,,0,,,65,49
52122,note_on,0,0,3,,,,,,,,,2,,,58,0
52122,note_on,12,0,3,,,,,,,,,2,,,62,0
52122,note_on,0,0,3,,,,,,,,,2,,,53,0
52230,note_on,0,0,1,,,,,,,,,0,,,70,49
52230,note_on,120,0,1,,,,,,,,,0,,,65,0
52230,note_on,108,0,3,,,,,,,,,2,,,53,36
52230,note_on,0,0,3,,,,,,,,,2,,,58,36
52230,note_on,0,0,3,,,,,,,,,2,,,62,36
52242,note_on,0,0,3,,,,,,,,,2,,,58,0
52242,note_on,0,0,3,,,,,,,,,2,,,53,0
52242,note_on,12,0,3,,,,,,,,,2,,,62,0
52290,note_on,0,0,1,,,,,,,,,0,,,77,49
52290,note_on,60,0,1,,,,,,,,,0,,,70,0
52350,note_on,0,0,1,,,,,,,,,0,,,75,75
52350,note_on,60,0,1,,,,,,,,,0,,,77,0
52350,note_on,108,0,3,,,,,,,,,2,,,41,36
52470,note_on,120,0,3,,,,,,,,,2,,,41,0
52470,note_on,0,0,1,,,,,,,,,0,,,69,49
52470,note_on,0,0,3,,,,,,,,,2,,,53,36
52470,note_on,0,0,3,,,,,,,,,2,,,60,36
52470,note_on,0,0,3,,,,,,,,,2,,,63,36
52470,note_on,120,0,1,,,,,,,,,0,,,75,0
52482,note_on,0,0,3,,,,,,,,,2,,,60,0
52482,note_on,0,0,3,,,,,,,,,2,,,53,0
52482,note_on,12,0,3,,,,,,,,,2,,,63,0
52590,note_on,120,0,1,,,,,,,,,0,,,69,0
52590,note_on,108,0,3,,,,,,,,,2,,,53,36
52590,note_on,0,0,1,,,,,,,,,0,,,65,49
52590,note_on,0,0,3,,,,,,,,,2,,,60,36
52590,note_on,0,0,3,,,,,,,,,2,,,63,36
52602,note_on,0,0,3,,,,,,,,,2,,,60,0
52602,note_on,0,0,3,,,,,,,,,2,,,53,0
52602,note_on,12,0,3,,,,,,,,,2,,,63,0
52650,note_on,60,0,1,,,,,,,,,0,,,65,0
52650,note_on,0,0,1,,,,,,,,,0,,,72,49
52710,note_on,60,0,1,,,,,,,,,0,,,72,0
52710,note_on,0,0,1,,,,,,,,,0,,,69,49
52710,note_on,108,0,3,,,,,,,,,2,,,41,36
52770,note_on,60,0,1,,,,,,,,,0,,,69,0
52770,note_on,0,0,1,,,,,,,,,0,,,75,49
52830,note_on,120,0,3,,,,,,,,,2,,,41,0
52830,note_on,0,0,3,,,,,,,,,2,,,53,36
52830,note_on,0,0,1,,,,,,,,,0,,,72,49
52830,note_on,0,0,3,,,,,,,,,2,,,57,36
52830,note_on,60,0,1,,,,,,,,,0,,,75,0
52830,note_on,0,0,3,,,,,,,,,2,,,63,36
52842,note_on,12,0,3,,,,,,,,,2,,,63,0
52842,note_on,0,0,3,,,,,,,,,2,,,57,0
52842,note_on,0,0,3,,,,,,,,,2,,,53,0
52890,note_on,60,0,1,,,,,,,,,0,,,72,0
52890,note_on,0,0,1,,,,,,,,,0,,,75,49
52890,note_on,0,0,1,,,,,,,,,0,,,79,49
52950,note_on,0,0,1,,,,,,,,,0,,,77,49
52950,note_on,0,0,1,,,,,,,,,0,,,75,0
52950,note_on,0,0,1,,,,,,,,,0,,,74,49
52950,note_on,108,0,3,,,,,,,,,2,,,53,36
52950,note_on,0,0,3,,,,,,,,,2,,,63,36
52950,note_on,0,0,3,,,,,,,,,2,,,57,36
52950,note_on,60,0,1,,,,,,,,,0,,,79,0
52962,note_on,0,0,3,,,,,,,,,2,,,53,0
52962,note_on,0,0,3,,,,,,,,,2,,,57,0
52962,note_on,12,0,3,,,,,,,,,2,,,63,0
53010,note_on,0,0,1,,,,,,,,,0,,,76,49
53010,note_on,0,0,1,,,,,,,,,0,,,74,0
53010,note_on,0,0,1,,,,,,,,,0,,,73,49
53010,note_on,60,0,1,,,,,,,,,0,,,77,0
53070,note_on,0,0,1,,,,,,,,,0,,,73,0
53070,note_on,0,0,1,,,,,,,,,0,,,74,49
53070,note_on,0,0,1,,,,,,,,,0,,,77,49
53070,note_on,60,0,1,,,,,,,,,0,,,76,0
53070,note_on,108,0,3,,,,,,,,,2,,,46,36
53190,note_on,0,0,3,,,,,,,,,2,,,62,36
53190,note_on,0,0,3,,,,,,,,,2,,,58,36
53190,note_on,0,0,3,,,,,,,,,2,,,53,36
53190,note_on,120,0,3,,,,,,,,,2,,,46,0
53190,note_on,0,0,1,,,,,,,,,0,,,74,0
53190,note_on,120,0,1,,,,,,,,,0,,,77,0
53190,note_on,0,0,1,,,,,,,,,0,,,65,49
53202,note_on,0,0,3,,,,,,,,,2,,,58,0
53202,note_on,12,0,3,,,,,,,,,2,,,62,0
53202,note_on,0,0,3,,,,,,,,,2,,,53,0
53310,note_on,120,0,1,,,,,,,,,0,,,65,0
53310,note_on,0,0,3,,,,,,,,,2,,,62,36
53310,note_on,108,0,3,,,,,,,,,2,,,53,36
53310,note_on,0,0,3,,,,,,,,,2,,,58,36
53310,note_on,0,0,1,,,,,,,,,0,,,70,49
53322,note_on,0,0,3,,,,,,,,,2,,,58,0
53322,note_on,0,0,3,,,,,,,,,2,,,53,0
53322,note_on,12,0,3,,,,,,,,,2,,,62,0
53370,note_on,60,0,1,,,,,,,,,0,,,70,0
53370,note_on,0,0,1,,,,,,,,,0,,,77,49
53430,note_on,108,0,3,,,,,,,,,2,,,46,36
53430,note_on,60,0,1,,,,,,,,,0,,,77,0
53430,note_on,0,0,1,,,,,,,,,0,,,74,49
53550,note_on,120,0,1,,,,,,,,,0,,,74,0
53550,note_on,120,0,3,,,,,,,,,2,,,46,0
53550,note_on,0,0,3,,,,,,,,,2,,,53,36
53550,note_on,0,0,1,,,,,,,,,0,,,82,49
53550,note_on,0,0,3,,,,,,,,,2,,,62,36
53550,note_on,0,0,3,,,,,,,,,2,,,58,36
53562,note_on,0,0,3,,,,,,,,,2,,,58,0
53562,note_on,0,0,3,,,,,,,,,2,,,53,0
53562,note_on,12,0,3,,,,,,,,,2,,,62,0
53670,note_on,108,0,3,,,,,,,,,2,,,53,36
53670,note_on,0,0,3,,,,,,,,,2,,,58,36
53670,note_on,0,0,3,,,,,,,,,2,,,62,36
53670,note_on,120,0,1,,,,,,,,,0,,,82,0
53670,note_on,0,0,1,,,,,,,,,0,,,81,49
53682,note_on,12,0,3,,,,,,,,,2,,,62,0
53682,note_on,0,0,3,,,,,,,,,2,,,58,0
53682,note_on,0,0,3,,,,,,,,,2,,,53,0
53730,note_on,60,0,1,,,,,,,,,0,,,81,0
53730,note_on,0,0,1,,,,,,,,,0,,,79,49
53790,note_on,0,0,1,,,,,,,,,0,,,77,49
53790,note_on,0,0,1,,,,,,,,,0,,,75,49
53790,note_on,60,0,1,,,,,,,,,0,,,79,0
53790,note_on,108,0,3,,,,,,,,,2,,,41,36
53910,note_on,0,0,1,,,,,,,,,0,,,75,0
53910,note_on,0,0,1,,,,,,,,,0,,,69,49
53910,note_on,120,0,1,,,,,,,,,0,,,77,0
53910,note_on,0,0,3,,,,,,,,,2,,,63,36
53910,note_on,0,0,3,,,,,,,,,2,,,60,36
53910,note_on,0,0,3,,,,,,,,,2,,,53,36
53910,note_on,120,0,3,,,,,,,,,2,,,41,0
53922,note_on,12,0,3,,,,,,,,,2,,,63,0
53922,note_on,0,0,3,,,,,,,,,2,,,53,0
53922,note_on,0,0,3,,,,,,,,,2,,,60,0
54030,note_on,0,0,3,,,,,,,,,2,,,63,36
54030,note_on,0,0,3,,,,,,,,,2,,,60,36
54030,note_on,108,0,3,,,,,,,,,2,,,53,36
54030,note_on,120,0,1,,,,,,,,,0,,,69,0
54030,note_on,0,0,1,,,,,,,,,0,,,65,49
54042,note_on,0,0,3,,,,,,,,,2,,,60,0
54042,note_on,12,0,3,,,,,,,,,2,,,63,0
54042,note_on,0,0,3,,,,,,,,,2,,,53,0
54090,note_on,60,0,1,,,,,,,,,0,,,65,0
54090,note_on,0,0,1,,,,,,,,,0,,,72,49
54150,note_on,0,0,1,,,,,,,,,0,,,69,49
54150,note_on,108,0,3,,,,,,,,,2,,,41,36
54150,note_on,60,0,1,,,,,,,,,0,,,72,0
54210,note_on,0,0,1,,,,,,,,,0,,,75,49
54210,note_on,60,0,1,,,,,,,,,0,,,69,0
54270,note_on,60,0,1,,,,,,,,,0,,,75,0
54270,note_on,120,0,3,,,,,,,,,2,,,41,0
54270,note_on,0,0,3,,,,,,,,,2,,,53,36
54270,note_on,0,0,3,,,,,,,,,2,,,57,36
54270,note_on,0,0,3,,,,,,,,,2,,,63,36
54270,note_on,0,0,1,,,,,,,,,0,,,72,49
54282,note_on,0,0,3,,,,,,,,,2,,,53,0
54282,note_on,0,0,3,,,,,,,,,2,,,57,0
54282,note_on,12,0,3,,,,,,,,,2,,,63,0
54330,note_on,0,0,1,,,,,,,,,0,,,79,49
54330,note_on,60,0,1,,,,,,,,,0,,,72,0
54390,note_on,60,0,1,,,,,,,,,0,,,79,0
54390,note_on,0,0,1,,,,,,,,,0,,,77,49
54390,note_on,0,0,3,,,,,,,,,2,,,63,36
54390,note_on,108,0,3,,,,,,,,,2,,,53,36
54390,note_on,0,0,3,,,,,,,,,2,,,60,36
54402,note_on,0,0,3,,,,,,,,,2,,,60,0
54402,note_on,12,0,3,,,,,,,,,2,,,63,0
54402,note_on,0,0,3,,,,,,,,,2,,,53,0
54450,note_on,0,0,1,,,,,,,,,0,,,69,49
54450,note_on,60,0,1,,,,,,,,,0,,,77,0
54510,note_on,0,0,1,,,,,,,,,0,,,70,49
54510,note_on,60,0,1,,,,,,,,,0,,,69,0
54510,time_signature,2520,1,0,2,4,24,8,,,,,,,,,
54510,note_on,108,0,3,,,,,,,,,2,,,46,36
54630,note_on,0,0,3,,,,,,,,,2,,,62,36
54630,note_on,0,0,3,,,,,,,,,2,,,58,36
54630,note_on,120,0,3,,,,,,,,,2,,,46,0
54630,note_on,0,0,3,,,,,,,,,2,,,53,36
54750,note_on,0,0,3,,,,,,,,,2,,,53,0
54750,note_on,0,0,3,,,,,,,,,2,,,58,0
54750,note_on,120,0,3,,,,,,,,,2,,,62,0
54750,time_signature,240,1,0,1,4,24,8,,,,,,,,,
54750,note_on,240,0,1,,,,,,,,,0,,,70,0
54750,note_on,0,0,1,,,,,,,,,0,,,70,49
54810,note_on,0,0,1,,,,,,,,,0,,,77,49
54810,note_on,60,0,1,,,,,,,,,0,,,70,0
54870,note_on,0,0,1,,,,,,,,,0,,,74,75
54870,note_on,60,0,1,,,,,,,,,0,,,77,0
54870,note_on,120,0,3,,,,,,,,,2,,,46,36
54870,time_signature,120,1,0,3,4,24,8,,,,,,,,,
54990,note_on,0,0,1,,,,,,,,,0,,,65,49
54990,note_on,120,0,1,,,,,,,,,0,,,74,0
54990,note_on,0,0,3,,,,,,,,,2,,,62,36
54990,note_on,120,0,3,,,,,,,,,2,,,46,0
54990,note_on,0,0,3,,,,,,,,,2,,,53,36
54990,note_on,0,0,3,,,,,,,,,2,,,58,36
55002,note_on,0,0,3,,,,,,,,,2,,,53,0
55002,note_on,0,0,3,,,,,,,,,2,,,58,0
55002,note_on,12,0,3,,,,,,,,,2,,,62,0
55110,note_on,120,0,1,,,,,,,,,0,,,65,0
55110,note_on,0,0,1,,,,,,,,,0,,,70,49
55110,note_on,108,0,3,,,,,,,,,2,,,53,36
55110,note_on,0,0,3,,,,,,,,,2,,,58,36
55110,note_on,0,0,3,,,,,,,,,2,,,62,36
55122,note_on,12,0,3,,,,,,,,,2,,,62,0
55122,note_on,0,0,3,,,,,,,,,2,,,58,0
55122,note_on,0,0,3,,,,,,,,,2,,,53,0
55170,note_on,0,0,1,,,,,,,,,0,,,77,49
55170,note_on,60,0,1,,,,,,,,,0,,,70,0
55230,note_on,108,0,3,,,,,,,,,2,,,41,36
55230,note_on,0,0,1,,,,,,,,,0,,,75,75
55230,note_on,60,0,1,,,,,,,,,0,,,77,0
55350,note_on,0,0,3,,,,,,,,,2,,,60,36
55350,note_on,0,0,3,,,,,,,,,2,,,63,36
55350,note_on,0,0,1,,,,,,,,,0,,,69,49
55350,note_on,120,0,1,,,,,,,,,0,,,75,0
55350,note_on,120,0,3,,,,,,,,,2,,,41,0
55350,note_on,0,0,3,,,,,,,,,2,,,53,36
55362,note_on,0,0,3,,,,,,,,,2,,,60,0
55362,note_on,0,0,3,,,,,,,,,2,,,53,0
55362,note_on,12,0,3,,,,,,,,,2,,,63,0
55470,note_on,0,0,3,,,,,,,,,2,,,60,36
55470,note_on,108,0,3,,,,,,,,,2,,,53,36
55470,note_on,120,0,1,,,,,,,,,0,,,69,0
55470,note_on,0,0,3,,,,,,,,,2,,,63,36
55470,note_on,0,0,1,,,,,,,,,0,,,65,49
55482,note_on,12,0,3,,,,,,,,,2,,,63,0
55482,note_on,0,0,3,,,,,,,,,2,,,53,0
55482,note_on,0,0,3,,,,,,,,,2,,,60,0
55530,note_on,60,0,1,,,,,,,,,0,,,65,0
55530,note_on,0,0,1,,,,,,,,,0,,,72,49
55590,note_on,60,0,1,,,,,,,,,0,,,72,0
55590,note_on,0,0,1,,,,,,,,,0,,,69,49
55590,note_on,108,0,3,,,,,,,,,2,,,41,36
55650,note_on,60,0,1,,,,,,,,,0,,,69,0
55650,note_on,0,0,1,,,,,,,,,0,,,75,49
55710,note_on,0,0,1,,,,,,,,,0,,,72,49
55710,note_on,60,0,1,,,,,,,,,0,,,75,0
55710,note_on,0,0,3,,,,,,,,,2,,,57,36
55710,note_on,0,0,3,,,,,,,,,2,,,63,36
55710,note_on,120,0,3,,,,,,,,,2,,,41,0
55710,note_on,0,0,3,,,,,,,,,2,,,53,36
55722,note_on,12,0,3,,,,,,,,,2,,,63,0
55722,note_on,0,0,3,,,,,,,,,2,,,53,0
55722,note_on,0,0,3,,,,,,,,,2,,,57,0
55770,note_on,0,0,1,,,,,,,,,0,,,79,49
55770,note_on,0,0,1,,,,,,,,,0,,,75,49
55770,note_on,60,0,1,,,,,,,,,0,,,72,0
55830,note_on,0,0,3,,,,,,,,,2,,,57,36
55830,note_on,108,0,3,,,,,,,,,2,,,53,36
55830,note_on,60,0,1,,,,,,,,,0,,,79,0
55830,note_on,0,0,1,,,,,,,,,0,,,77,49
55830,note_on,0,0,1,,,,,,,,,0,,,74,49
55830,note_on,0,0,1,,,,,,,,,0,,,75,0
55830,note_on,0,0,3,,,,,,,,,2,,,63,36
55842,note_on,12,0,3,,,,,,,,,2,,,63,0
55842,note_on,0,0,3,,,,,,,,,2,,,53,0
55842,note_on,0,0,3,,,,,,,,,2,,,57,0
55890,note_on,0,0,1,,,,,,,,,0,,,73,49
55890,note_on,0,0,1,,,,,,,,,0,,,74,0
55890,note_on,60,0,1,,,,,,,,,0,,,77,0
55890,note_on,0,0,1,,,,,,,,,0,,,76,49
55950,note_on,0,0,1,,,,,,,,,0,,,77,49
55950,note_on,0,0,1,,,,,,,,,0,,,74,49
55950,note_on,0,0,1,,,,,,,,,0,,,73,0
55950,note_on,60,0,1,,,,,,,,,0,,,76,0
55950,note_on,108,0,3,,,,,,,,,2,,,46,36
56070,note_on,0,0,1,,,,,,,,,0,,,65,49
56070,note_on,120,0,1,,,,,,,,,0,,,77,0
56070,note_on,0,0,1,,,,,,,,,0,,,74,0
56070,note_on,0,0,3,,,,,,,,,2,,,58,36
56070,note_on,0,0,3,,,,,,,,,2,,,62,36
56070,note_on,120,0,3,,,,,,,,,2,,,46,0
56070,note_on,0,0,3,,,,,,,,,2,,,53,36
56082,note_on,0,0,3,,,,,,,,,2,,,58,0
56082,note_on,12,0,3,,,,,,,,,2,,,62,0
56082,note_on,0,0,3,,,,,,,,,2,,,53,0
56190,note_on,0,0,3,,,,,,,,,2,,,62,36
56190,note_on,0,0,1,,,,,,,,,0,,,70,49
56190,note_on,120,0,1,,,,,,,,,0,,,65,0
56190,note_on,0,0,3,,,,,,,,,2,,,58,36
56190,note_on,108,0,3,,,,,,,,,2,,,53,36
56202,note_on,0,0,3,,,,,,,,,2,,,53,0
56202,note_on,12,0,3,,,,,,,,,2,,,62,0
56202,note_on,0,0,3,,,,,,,,,2,,,58,0
56250,note_on,60,0,1,,,,,,,,,0,,,70,0
56250,note_on,0,0,1,,,,,,,,,0,,,77,49
56310,note_on,60,0,1,,,,,,,,,0,,,77,0
56310,note_on,0,0,1,,,,,,,,,0,,,74,49
56310,note_on,108,0,3,,,,,,,,,2,,,46,36
56430,note_on,0,0,1,,,,,,,,,0,,,82,49
56430,note_on,0,0,3,,,,,,,,,2,,,58,36
56430,note_on,0,0,3,,,,,,,,,2,,,62,36
56430,note_on,120,0,1,,,,,,,,,0,,,74,0
56430,note_on,120,0,3,,,,,,,,,2,,,46,0
56430,note_on,0,0,3,,,,,,,,,2,,,53,36
56442,note_on,12,0,3,,,,,,,,,2,,,62,0
56442,note_on,0,0,3,,,,,,,,,2,,,58,0
56442,note_on,0,0,3,,,,,,,,,2,,,53,0
56550,note_on,108,0,3,,,,,,,,,2,,,53,36
56550,note_on,0,0,1,,,,,,,,,0,,,81,49
56550,note_on,0,0,3,,,,,,,,,2,,,62,36
56550,note_on,0,0,3,,,,,,,,,2,,,58,36
56550,note_on,120,0,1,,,,,,,,,0,,,82,0
56562,note_on,0,0,3,,,,,,,,,2,,,53,0
56562,note_on,0,0,3,,,,,,,,,2,,,58,0
56562,note_on,12,0,3,,,,,,,,,2,,,62,0
56610,note_on,60,0,1,,,,,,,,,0,,,81,0
56610,note_on,0,0,1,,,,,,,,,0,,,79,49
56670,note_on,60,0,1,,,,,,,,,0,,,79,0
56670,note_on,0,0,1,,,,,,,,,0,,,75,49
56670,note_on,0,0,1,,,,,,,,,0,,,77,49
56670,note_on,108,0,3,,,,,,,,,2,,,41,36
56790,note_on,0,0,3,,,,,,,,,2,,,60,36
56790,note_on,0,0,3,,,,,,,,,2,,,63,36
56790,note_on,0,0,1,,,,,,,,,0,,,75,0
56790,note_on,0,0,1,,,,,,,,,0,,,69,49
56790,note_on,120,0,1,,,,,,,,,0,,,77,0
56790,note_on,120,0,3,,,,,,,,,2,,,41,0
56790,note_on,0,0,3,,,,,,,,,2,,,53,36
56802,note_on,0,0,3,,,,,,,,,2,,,53,0
56802,note_on,0,0,3,,,,,,,,,2,,,60,0
56802,note_on,12,0,3,,,,,,,,,2,,,63,0
56910,note_on,0,0,3,,,,,,,,,2,,,60,36
56910,note_on,108,0,3,,,,,,,,,2,,,53,36
56910,note_on,0,0,3,,,,,,,,,2,,,63,36
56910,note_on,120,0,1,,,,,,,,,0,,,69,0
56910,note_on,0,0,1,,,,,,,,,0,,,65,49
56922,note_on,0,0,3,,,,,,,,,2,,,53,0
56922,note_on,0,0,3,,,,,,,,,2,,,60,0
56922,note_on,12,0,3,,,,,,,,,2,,,63,0
56970,note_on,0,0,1,,,,,,,,,0,,,72,49
56970,note_on,60,0,1,,,,,,,,,0,,,65,0
57030,note_on,108,0,3,,,,,,,,,2,,,41,36
57030,note_on,0,0,1,,,,,,,,,0,,,69,49
57030,note_on,60,0,1,,,,,,,,,0,,,72,0
57090,note_on,0,0,1,,,,,,,,,0,,,75,49
57090,note_on,60,0,1,,,,,,,,,0,,,69,0
57150,note_on,0,0,3,,,,,,,,,2,,,57,36
57150,note_on,0,0,3,,,,,,,,,2,,,53,36
57150,note_on,120,0,3,,,,,,,,,2,,,41,0
57150,note_on,60,0,1,,,,,,,,,0,,,75,0
57150,note_on,0,0,1,,,,,,,,,0,,,72,49
57150,note_on,0,0,3,,,,,,,,,2,,,63,36
57162,note_on,0,0,3,,,,,,,,,2,,,53,0
57162,note_on,0,0,3,,,,,,,,,2,,,57,0
57162,note_on,12,0,3,,,,,,,,,2,,,63,0
57210,note_on,0,0,1,,,,,,,,,0,,,79,49
57210,note_on,60,0,1,,,,,,,,,0,,,72,0
57270,note_on,108,0,3,,,,,,,,,2,,,53,36
57270,note_on,0,0,3,,,,,,,,,2,,,60,36
57270,note_on,0,0,1,,,,,,,,,0,,,77,49
57270,note_on,60,0,1,,,,,,,,,0,,,79,0
57270,note_on,0,0,3,,,,,,,,,2,,,63,36
57282,note_on,0,0,3,,,,,,,,,2,,,53,0
57282,note_on,0,0,3,,,,,,,,,2,,,60,0
57282,note_on,12,0,3,,,,,,,,,2,,,63,0
57330,note_on,0,0,1,,,,,,,,,0,,,69,49
57330,note_on,60,0,1,,,,,,,,,0,,,77,0
57390,note_on,108,0,3,,,,,,,,,2,,,46,36
57390,time_signature,2520,1,0,2,4,24,8,,,,,,,,,
57390,note_on,0,0,1,,,,,,,,,0,,,70,49
57390,note_on,60,0,1,,,,,,,,,0,,,69,0
57510,note_on,120,0,3,,,,,,,,,2,,,46,0
57510,note_on,0,0,3,,,,,,,,,2,,,53,36
57510,note_on,0,0,3,,,,,,,,,2,,,58,36
57510,note_on,0,0,3,,,,,,,,,2,,,62,36
57630,note_on,120,0,3,,,,,,,,,2,,,62,0
57630,time_signature,240,1,0,1,4,24,8,,,,,,,,,
57630,note_on,0,0,3,,,,,,,,,2,,,58,0
57630,note_on,0,0,1,,,,,,,,,0,,,69,88
57630,note_on,0,0,3,,,,,,,,,2,,,53,0
57630,note_on,0,0,1,,,,,,,,,0,,,72,88
57630,note_on,240,0,1,,,,,,,,,0,,,70,0
57690,note_on,0,0,1,,,,,,,,,0,,,69,0
57690,note_on,60,0,1,,,,,,,,,0,,,72,0
57690,note_on,0,0,1,,,,,,,,,0,,,81,88
57750,time_signature,120,1,0,3,4,24,8,,,,,,,,,
57750,note_on,60,0,1,,,,,,,,,0,,,81,0
57750,note_on,0,0,1,,,,,,,,,0,,,81,88
57750,note_on,0,0,1,,,,,,,,,0,,,84,88
57750,note_on,120,0,3,,,,,,,,,2,,,53,75
57870,note_on,0,0,3,,,,,,,,,2,,,57,75
57870,note_on,120,0,3,,,,,,,,,2,,,53,0
57870,note_on,120,0,1,,,,,,,,,0,,,84,0
57870,note_on,0,0,1,,,,,,,,,0,,,81,0
57870,note_on,0,0,1,,,,,,,,,0,,,72,88
57870,note_on,0,0,3,,,,,,,,,2,,,65,75
57882,note_on,12,0,3,,,,,,,,,2,,,65,0
57882,note_on,0,0,3,,,,,,,,,2,,,57,0
57990,note_on,108,0,3,,,,,,,,,2,,,57,75
57990,note_on,0,0,3,,,,,,,,,2,,,65,75
57990,note_on,0,0,1,,,,,,,,,0,,,72,88
57990,note_on,0,0,1,,,,,,,,,0,,,69,88
57990,note_on,120,0,1,,,,,,,,,0,,,72,0
58002,note_on,12,0,3,,,,,,,,,2,,,65,0
58002,note_on,0,0,3,,,,,,,,,2,,,57,0
58050,note_on,60,0,1,,,,,,,,,0,,,72,0
58050,note_on,0,0,1,,,,,,,,,0,,,81,88
58050,note_on,0,0,1,,,,,,,,,0,,,69,0
58110,note_on,0,0,1,,,,,,,,,0,,,82,88
58110,note_on,0,0,1,,,,,,,,,0,,,84,88
58110,note_on,60,0,1,,,,,,,,,0,,,81,0
58110,note_on,108,0,3,,,,,,,,,2,,,52,75
58230,note_on,120,0,3,,,,,,,,,2,,,52,0
58230,note_on,120,0,1,,,,,,,,,0,,,84,0
58230,note_on,0,0,3,,,,,,,,,2,,,67,75
58230,note_on,0,0,1,,,,,,,,,0,,,72,88
58230,note_on,0,0,1,,,,,,,,,0,,,82,0
58230,note_on,0,0,3,,,,,,,,,2,,,60,75
58242,note_on,12,0,3,,,,,,,,,2,,,67,0
58242,note_on,0,0,3,,,,,,,,,2,,,60,0
58350,note_on,0,0,1,,,,,,,,,0,,,82,88
58350,note_on,120,0,1,,,,,,,,,0,,,72,0
58350,note_on,0,0,1,,,,,,,,,0,,,86,88
58350,note_on,108,0,3,,,,,,,,,2,,,60,75
58350,note_on,0,0,3,,,,,,,,,2,,,67,75
58362,note_on,12,0,3,,,,,,,,,2,,,67,0
58362,note_on,0,0,3,,,,,,,,,2,,,60,0
58410,note_on,0,0,1,,,,,,,,,0,,,82,0
58410,note_on,0,0,1,,,,,,,,,0,,,81,88
58410,note_on,60,0,1,,,,,,,,,0,,,86,0
58410,note_on,0,0,1,,,,,,,,,0,,,84,88
58470,note_on,0,0,1,,,,,,,,,0,,,79,88
58470,note_on,60,0,1,,,,,,,,,0,,,84,0
58470,note_on,0,0,1,,,,,,,,,0,,,81,0
58470,note_on,0,0,1,,,,,,,,,0,,,82,88
58470,note_on,108,0,3,,,,,,,,,2,,,48,75
58530,note_on,60,0,1,,,,,,,,,0,,,82,0
58530,note_on,0,0,1,,,,,,,,,0,,,79,0
58530,note_on,0,0,1,,,,,,,,,0,,,81,88
58530,note_on,0,0,1,,,,,,,,,0,,,84,88
58590,note_on,0,0,1,,,,,,,,,0,,,79,88
58590,note_on,0,0,1,,,,,,,,,0,,,82,88
58590,note_on,60,0,1,,,,,,,,,0,,,84,0
58590,note_on,0,0,3,,,,,,,,,2,,,60,75
58590,note_on,120,0,3,,,,,,,,,2,,,48,0
58590,note_on,0,0,3,,,,,,,,,2,,,67,75
58590,note_on,0,0,1,,,,,,,,,0,,,81,0
58602,note_on,0,0,3,,,,,,,,,2,,,60,0
58602,note_on,12,0,3,,,,,,,,,2,,,67,0
58650,note_on,60,0,1,,,,,,,,,0,,,82,0
58650,note_on,0,0,1,,,,,,,,,0,,,79,0
58650,note_on,0,0,1,,,,,,,,,0,,,77,88
58650,note_on,0,0,1,,,,,,,,,0,,,81,88
58710,note_on,108,0,3,,,,,,,,,2,,,60,75
58710,note_on,0,0,1,,,,,,,,,0,,,79,88
58710,note_on,60,0,1,,,,,,,,,0,,,81,0
58710,note_on,0,0,1,,,,,,,,,0,,,77,0
58710,note_on,0,0,1,,,,,,,,,0,,,76,88
58710,note_on,0,0,3,,,,,,,,,2,,,67,75
58722,note_on,12,0,3,,,,,,,,,2,,,67,0
58722,note_on,0,0,3,,,,,,,,,2,,,60,0
58770,note_on,0,0,1,,,,,,,,,0,,,84,88
58770,note_on,0,0,1,,,,,,,,,0,,,81,88
58770,note_on,0,0,1,,,,,,,,,0,,,76,0
58770,note_on,60,0,1,,,,,,,,,0,,,79,0
58830,note_on,0,0,1,,,,,,,,,0,,,84,88
58830,note_on,60,0,1,,,,,,,,,0,,,84,0
58830,note_on,108,0,3,,,,,,,,,2,,,53,75
58830,note_on,0,0,1,,,,,,,,,0,,,81,0
58830,note_on,0,0,1,,,,,,,,,0,,,81,88
58950,note_on,120,0,3,,,,,,,,,2,,,53,0
58950,note_on,0,0,1,,,,,,,,,0,,,81,0
58950,note_on,0,0,1,,,,,,,,,0,,,72,88
58950,note_on,120,0,1,,,,,,,,,0,,,84,0
58950,note_on,0,0,3,,,,,,,,,2,,,57,75
58950,note_on,0,0,3,,,,,,,,,2,,,65,75
58962,note_on,12,0,3,,,,,,,,,2,,,65,0
58962,note_on,0,0,3,,,,,,,,,2,,,57,0
59070,note_on,120,0,1,,,,,,,,,0,,,72,0
59070,note_on,0,0,1,,,,,,,,,0,,,69,88
59070,note_on,0,0,1,,,,,,,,,0,,,72,88
59070,note_on,0,0,3,,,,,,,,,2,,,65,75
59070,note_on,108,0,3,,,,,,,,,2,,,57,75
59082,note_on,12,0,3,,,,,,,,,2,,,65,0
59082,note_on,0,0,3,,,,,,,,,2,,,57,0
59130,note_on,0,0,1,,,,,,,,,0,,,81,88
59130,note_on,0,0,1,,,,,,,,,0,,,69,0
59130,note_on,60,0,1,,,,,,,,,0,,,72,0
59190,note_on,60,0,1,,,,,,,,,0,,,81,0
59190,note_on,108,0,3,,,,,,,,,2,,,53,75
59190,note_on,0,0,1,,,,,,,,,0,,,84,88
59190,note_on,0,0,1,,,,,,,,,0,,,81,88
59310,note_on,120,0,1,,,,,,,,,0,,,84,0
59310,note_on,120,0,3,,,,,,,,,2,,,53,0
59310,note_on,0,0,3,,,,,,,,,2,,,57,75
59310,note_on,0,0,3,,,,,,,,,2,,,65,75
59310,note_on,0,0,1,,,,,,,,,0,,,81,0
59310,note_on,0,0,1,,,,,,,,,0,,,72,88
59322,note_on,12,0,3,,,,,,,,,2,,,65,0
59322,note_on,0,0,3,,,,,,,,,2,,,57,0
59430,note_on,120,0,1,,,,,,,,,0,,,72,0
59430,note_on,108,0,3,,,,,,,,,2,,,57,75
59430,note_on,0,0,3,,,,,,,,,2,,,65,75
59430,note_on,0,0,1,,,,,,,,,0,,,69,88
59430,note_on,0,0,1,,,,,,,,,0,,,77,88
59442,note_on,0,0,3,,,,,,,,,2,,,57,0
59442,note_on,12,0,3,,,,,,,,,2,,,65,0
59490,note_on,0,0,1,,,,,,,,,0,,,69,0
59490,note_on,60,0,1,,,,,,,,,0,,,77,0
59490,note_on,0,0,1,,,,,,,,,0,,,81,88
59550,note_on,60,0,1,,,,,,,,,0,,,81,0
59550,note_on,0,0,1,,,,,,,,,0,,,81,88
59550,note_on,108,0,3,,,,,,,,,2,,,53,75
59550,note_on,0,0,1,,,,,,,,,0,,,89,88
59670,note_on,0,0,3,,,,,,,,,2,,,65,75
59670,note_on,0,0,3,,,,,,,,,2,,,57,75
59670,note_on,120,0,3,,,,,,,,,2,,,53,0
59670,note_on,0,0,1,,,,,,,,,0,,,77,88
59670,note_on,120,0,1,,,,,,,,,0,,,89,0
59670,note_on,0,0,1,,,,,,,,,0,,,81,0
59682,note_on,12,0,3,,,,,,,,,2,,,65,0
59682,note_on,0,0,3,,,,,,,,,2,,,57,0
59790,note_on,120,0,1,,,,,,,,,0,,,77,0
59790,note_on,108,0,3,,,,,,,,,2,,,57,75
59790,note_on,0,0,3,,,,,,,,,2,,,65,75
59790,note_on,0,0,1,,,,,,,,,0,,,89,88
59802,note_on,12,0,3,,,,,,,,,2,,,65,0
59802,note_on,0,0,3,,,,,,,,,2,,,57,0
59850,note_on,60,0,1,,,,,,,,,0,,,89,0
59850,note_on,0,0,1,,,,,,,,,0,,,88,88
59910,note_on,0,0,1,,,,,,,,,0,,,88,88
59910,note_on,108,0,3,,,,,,,,,2,,,46,75
59910,note_on,60,0,1,,,,,,,,,0,,,88,0
59970,note_on,0,0,1,,,,,,,,,0,,,86,88
59970,note_on,60,0,1,,,,,,,,,0,,,88,0
60030,note_on,0,0,1,,,,,,,,,0,,,85,88
60030,note_on,0,0,3,,,,,,,,,2,,,58,75
60030,note_on,0,0,3,,,,,,,,,2,,,62,75
60030,note_on,120,0,3,,,,,,,,,2,,,46,0
60030,note_on,60,0,1,,,,,,,,,0,,,86,0
60042,note_on,12,0,3,,,,,,,,,2,,,62,0
60042,note_on,0,0,3,,,,,,,,,2,,,58,0
60090,note_on,60,0,1,,,,,,,,,0,,,85,0
60090,note_on,0,0,1,,,,,,,,,0,,,86,88
60150,note_on,60,0,1,,,,,,,,,0,,,86,0
60150,note_on,108,0,3,,,,,,,,,2,,,48,75
60150,note_on,0,0,3,,,,,,,,,2,,,58,75
60150,note_on,0,0,3,,,,,,,,,2,,,60,75
60150,note_on,0,0,1,,,,,,,,,0,,,74,88
60162,note_on,0,0,3,,,,,,,,,2,,,58,0
60162,note_on,0,0,3,,,,,,,,,2,,,48,0
60162,note_on,12,0,3,,,,,,,,,2,,,60,0
60210,note_on,60,0,1,,,,,,,,,0,,,74,0
60210,note_on,0,0,1,,,,,,,,,0,,,76,88
60270,note_on,0,0,1,,,,,,,,,0,,,77,88
60270,note_on,0,0,3,,,,,,,,,2,,,60,75
60270,note_on,108,0,3,,,,,,,,,2,,,53,75
60270,note_on,60,0,1,,,,,,,,,0,,,76,0
60270,note_on,0,0,3,,,,,,,,,2,,,57,75
60510,note_on,240,0,1,,,,,,,,,0,,,77,0
60510,note_on,0,0,1,,,,,,,,,0,,,70,49
60510,note_on,240,0,3,,,,,,,,,2,,,60,0
60510,note_on,0,0,3,,,,,,,,,2,,,57,0
60510,note_on,0,0,3,,,,,,,,,2,,,53,0
60570,note_on,60,0,1,,,,,,,,,0,,,70,0
60570,note_on,0,0,1,,,,,,,,,0,,,77,49
60630,note_on,0,0,1,,,,,,,,,0,,,74,75
60630,note_on,60,0,1,,,,,,,,,0,,,77,0
60630,note_on,120,0,3,,,,,,,,,2,,,46,36
60750,note_on,0,0,3,,,,,,,,,2,,,58,36
60750,note_on,0,0,3,,,,,,,,,2,,,53,36
60750,note_on,120,0,1,,,,,,,,,0,,,74,0
60750,note_on,0,0,1,,,,,,,,,0,,,65,49
60750,note_on,0,0,3,,,,,,,,,2,,,62,36
60750,note_on,120,0,3,,,,,,,,,2,,,46,0
60762,note_on,12,0,3,,,,,,,,,2,,,62,0
60762,note_on,0,0,3,,,,,,,,,2,,,58,0
60762,note_on,0,0,3,,,,,,,,,2,,,53,0
60870,note_on,0,0,3,,,,,,,,,2,,,58,36
60870,note_on,0,0,3,,,,,,,,,2,,,62,36
60870,note_on,120,0,1,,,,,,,,,0,,,65,0
60870,note_on,108,0,3,,,,,,,,,2,,,53,36
60870,note_on,0,0,1,,,,,,,,,0,,,70,49
60882,note_on,12,0,3,,,,,,,,,2,,,62,0
60882,note_on,0,0,3,,,,,,,,,2,,,58,0
60882,note_on,0,0,3,,,,,,,,,2,,,53,0
60930,note_on,60,0,1,,,,,,,,,0,,,70,0
60930,note_on,0,0,1,,,,,,,,,0,,,77,49
60990,note_on,60,0,1,,,,,,,,,0,,,77,0
60990,note_on,0,0,1,,,,,,,,,0,,,75,75
60990,note_on,108,0,3,,,,,,,,,2,,,41,36
61110,note_on,120,0,3,,,,,,,,,2,,,41,0
61110,note_on,0,0,3,,,,,,,,,2,,,63,36
61110,note_on,0,0,3,,,,,,,,,2,,,60,36
61110,note_on,0,0,3,,,,,,,,,2,,,53,36
61110,note_on,0,0,1,,,,,,,,,0,,,69,49
61110,note_on,120,0,1,,,,,,,,,0,,,75,0
61122,note_on,0,0,3,,,,,,,,,2,,,53,0
61122,note_on,0,0,3,,,,,,,,,2,,,60,0
61122,note_on,12,0,3,,,,,,,,,2,,,63,0
61230,note_on,120,0,1,,,,,,,,,0,,,69,0
61230,note_on,0,0,1,,,,,,,,,0,,,65,49
61230,note_on,108,0,3,,,,,,,,,2,,,53,36
61230,note_on,0,0,3,,,,,,,,,2,,,60,36
61230,note_on,0,0,3,,,,,,,,,2,,,63,36
61242,note_on,0,0,3,,,,,,,,,2,,,53,0
61242,note_on,0,0,3,,,,,,,,,2,,,60,0
61242,note_on,12,0,3,,,,,,,,,2,,,63,0
61290,note_on,60,0,1,,,,,,,,,0,,,65,0
61290,note_on,0,0,1,,,,,,,,,0,,,72,49
61350,note_on,108,0,3,,,,,,,,,2,,,41,36
61350,note_on,60,0,1,,,,,,,,,0,,,72,0
61350,note_on,0,0,1,,,,,,,,,0,,,69,49
61410,note_on,60,0,1,,,,,,,,,0,,,69,0
61410,note_on,0,0,1,,,,,,,,,0,,,75,49
61470,note_on,120,0,3,,,,,,,,,2,,,41,0
61470,note_on,0,0,3,,,,,,,,,2,,,53,36
61470,note_on,0,0,3,,,,,,,,,2,,,57,36
61470,note_on,0,0,3,,,,,,,,,2,,,63,36
61470,note_on,60,0,1,,,,,,,,,0,,,75,0
61470,note_on,0,0,1,,,,,,,,,0,,,72,49
61482,note_on,12,0,3,,,,,,,,,2,,,63,0
61482,note_on,0,0,3,,,,,,,,,2,,,57,0
61482,note_on,0,0,3,,,,,,,,,2,,,53,0
61530,note_on,0,0,1,,,,,,,,,0,,,79,49
61530,note_on,0,0,1,,,,,,,,,0,,,75,49
61530,note_on,60,0,1,,,,,,,,,0,,,72,0
61590,note_on,0,0,1,,,,,,,,,0,,,77,49
61590,note_on,0,0,1,,,,,,,,,0,,,75,0
61590,note_on,0,0,3,,,,,,,,,2,,,63,36
61590,note_on,0,0,3,,,,,,,,,2,,,57,36
61590,note_on,108,0,3,,,,,,,,,2,,,53,36
61590,note_on,0,0,1,,,,,,,,,0,,,74,49
61590,note_on,60,0,1,,,,,,,,,0,,,79,0
61602,note_on,12,0,3,,,,,,,,,2,,,63,0
61602,note_on,0,0,3,,,,,,,,,2,,,57,0
61602,note_on,0,0,3,,,,,,,,,2,,,53,0
61650,note_on,0,0,1,,,,,,,,,0,,,76,49
61650,note_on,60,0,1,,,,,,,,,0,,,77,0
61650,note_on,0,0,1,,,,,,,,,0,,,74,0
61650,note_on,0,0,1,,,,,,,,,0,,,73,49
61710,note_on,0,0,1,,,,,,,,,0,,,74,49
61710,note_on,108,0,3,,,,,,,,,2,,,46,36
61710,note_on,60,0,1,,,,,,,,,0,,,76,0
61710,note_on,0,0,1,,,,,,,,,0,,,73,0
61710,note_on,0,0,1,,,,,,,,,0,,,77,49
61830,note_on,0,0,3,,,,,,,,,2,,,62,36
61830,note_on,0,0,3,,,,,,,,,2,,,58,36
61830,note_on,0,0,3,,,,,,,,,2,,,53,36
61830,note_on,120,0,3,,,,,,,,,2,,,46,0
61830,note_on,0,0,1,,,,,,,,,0,,,65,49
61830,note_on,0,0,1,,,,,,,,,0,,,74,0
61830,note_on,120,0,1,,,,,,,,,0,,,77,0
61842,note_on,0,0,3,,,,,,,,,2,,,53,0
61842,note_on,12,0,3,,,,,,,,,2,,,62,0
61842,note_on,0,0,3,,,,,,,,,2,,,58,0
61950,note_on,0,0,3,,,,,,,,,2,,,62,36
61950,note_on,0,0,3,,,,,,,,,2,,,58,36
61950,note_on,108,0,3,,,,,,,,,2,,,53,36
61950,note_on,120,0,1,,,,,,,,,0,,,65,0
61950,note_on,0,0,1,,,,,,,,,0,,,70,49
61962,note_on,0,0,3,,,,,,,,,2,,,58,0
61962,note_on,0,0,3,,,,,,,,,2,,,53,0
61962,note_on,12,0,3,,,,,,,,,2,,,62,0
62010,note_on,60,0,1,,,,,,,,,0,,,70,0
62010,note_on,0,0,1,,,,,,,,,0,,,77,49
62070,note_on,108,0,3,,,,,,,,,2,,,46,36
62070,note_on,60,0,1,,,,,,,,,0,,,77,0
62070,note_on,0,0,1,,,,,,,,,0,,,74,49
62190,note_on,0,0,3,,,,,,,,,2,,,62,36
62190,note_on,0,0,3,,,,,,,,,2,,,58,36
62190,note_on,0,0,3,,,,,,,,,2,,,53,36
62190,note_on,120,0,3,,,,,,,,,2,,,46,0
62190,note_on,120,0,1,,,,,,,,,0,,,74,0
62190,note_on,0,0,1,,,,,,,,,0,,,82,49
62202,note_on,0,0,3,,,,,,,,,2,,,53,0
62202,note_on,12,0,3,,,,,,,,,2,,,62,0
62202,note_on,0,0,3,,,,,,,,,2,,,58,0
62310,note_on,120,0,1,,,,,,,,,0,,,82,0
62310,note_on,0,0,1,,,,,,,,,0,,,81,49
62310,note_on,108,0,3,,,,,,,,,2,,,53,36
62310,note_on,0,0,3,,,,,,,,,2,,,58,36
62310,note_on,0,0,3,,,,,,,,,2,,,62,36
62322,note_on,0,0,3,,,,,,,,,2,,,58,0
62322,note_on,0,0,3,,,,,,,,,2,,,53,0
62322,note_on,12,0,3,,,,,,,,,2,,,62,0
62370,note_on,0,0,1,,,,,,,,,0,,,79,49
62370,note_on,60,0,1,,,,,,,,,0,,,81,0
62430,note_on,60,0,1,,,,,,,,,0,,,79,0
62430,note_on,0,0,1,,,,,,,,,0,,,75,49
62430,note_on,0,0,1,,,,,,,,,0,,,77,49
62430,note_on,108,0,3,,,,,,,,,2,,,41,36
62550,note_on,0,0,1,,,,,,,,,0,,,69,49
62550,note_on,120,0,1,,,,,,,,,0,,,77,0
62550,note_on,120,0,3,,,,,,,,,2,,,41,0
62550,note_on,0,0,3,,,,,,,,,2,,,53,36
62550,note_on,0,0,3,,,,,,,,,2,,,60,36
62550,note_on,0,0,3,,,,,,,,,2,,,63,36
62550,note_on,0,0,1,,,,,,,,,0,,,75,0
62562,note_on,12,0,3,,,,,,,,,2,,,63,0
62562,note_on,0,0,3,,,,,,,,,2,,,60,0
62562,note_on,0,0,3,,,,,,,,,2,,,53,0
62670,note_on,0,0,3,,,,,,,,,2,,,63,36
62670,note_on,120,0,1,,,,,,,,,0,,,69,0
62670,note_on,0,0,1,,,,,,,,,0,,,65,49
62670,note_on,108,0,3,,,,,,,,,2,,,53,36
62670,note_on,0,0,3,,,,,,,,,2,,,60,36
62682,note_on,12,0,3,,,,,,,,,2,,,63,0
62682,note_on,0,0,3,,,,,,,,,2,,,53,0
62682,note_on,0,0,3,,,,,,,,,2,,,60,0
62730,note_on,60,0,1,,,,,,,,,0,,,65,0
62730,note_on,0,0,1,,,,,,,,,0,,,72,49
62790,note_on,60,0,1,,,,,,,,,0,,,72,0
62790,note_on,0,0,1,,,,,,,,,0,,,69,49
62790,note_on,108,0,3,,,,,,,,,2,,,41,36
62850,note_on,0,0,1,,,,,,,,,0,,,75,49
62850,note_on,60,0,1,,,,,,,,,0,,,69,0
62910,note_on,60,0,1,,,,,,,,,0,,,75,0
62910,note_on,0,0,1,,,,,,,,,0,,,72,49
62910,note_on,120,0,3,,,,,,,,,2,,,41,0
62910,note_on,0,0,3,,,,,,,,,2,,,53,36
62910,note_on,0,0,3,,,,,,,,,2,,,57,36
62910,note_on,0,0,3,,,,,,,,,2,,,63,36
62922,note_on,12,0,3,,,,,,,,,2,,,63,0
62922,note_on,0,0,3,,,,,,,,,2,,,57,0
62922,note_on,0,0,3,,,,,,,,,2,,,53,0
62970,note_on,0,0,1,,,,,,,,,0,,,79,49
62970,note_on,60,0,1,,,,,,,,,0,,,72,0
63030,note_on,0,0,3,,,,,,,,,2,,,60,36
63030,note_on,0,0,3,,,,,,,,,2,,,63,36
63030,note_on,60,0,1,,,,,,,,,0,,,79,0
63030,note_on,0,0,1,,,,,,,,,0,,,77,49
63030,note_on,108,0,3,,,,,,,,,2,,,53,36
63042,note_on,0,0,3,,,,,,,,,2,,,60,0
63042,note_on,0,0,3,,,,,,,,,2,,,53,0
63042,note_on,12,0,3,,,,,,,,,2,,,63,0
63090,note_on,0,0,1,,,,,,,,,0,,,69,49
63090,note_on,60,0,1,,,,,,,,,0,,,77,0
63150,note_on,0,0,1,,,,,,,,,0,,,70,49
63150,note_on,60,0,1,,,,,,,,,0,,,69,0
63150,time_signature,5400,1,0,2,4,24,8,,,,,,,,,
63150,note_on,108,0,3,,,,,,,,,2,,,46,36
63270,note_on,0,0,3,,,,,,,,,2,,,62,36
63270,note_on,0,0,3,,,,,,,,,2,,,58,36
63270,note_on,0,0,3,,,,,,,,,2,,,53,36
63270,note_on,120,0,3,,,,,,,,,2,,,46,0
63390,note_on,240,0,1,,,,,,,,,0,,,70,0
63390,note_on,0,0,3,,,,,,,,,2,,,58,0
63390,note_on,120,0,3,,,,,,,,,2,,,62,0
63390,note_on,0,0,3,,,,,,,,,2,,,53,0
63390,note_on,0,0,1,,,,,,,,,0,,,72,88
63390,note_on,0,0,1,,,,,,,,,0,,,69,88
63390,time_signature,240,1,0,1,4,24,8,,,,,,,,,
63450,note_on,60,0,1,,,,,,,,,0,,,72,0
63450,note_on,0,0,1,,,,,,,,,0,,,81,88
63450,note_on,0,0,1,,,,,,,,,0,,,69,0
63510,note_on,60,0,1,,,,,,,,,0,,,81,0
63510,note_on,0,0,1,,,,,,,,,0,,,81,88
63510,note_on,0,0,1,,,,,,,,,0,,,84,88
63510,time_signature,120,1,0,3,4,24,8,,,,,,,,,
63510,note_on,120,0,3,,,,,,,,,2,,,53,75
63630,note_on,0,0,3,,,,,,,,,2,,,65,75
63630,note_on,0,0,3,,,,,,,,,2,,,57,75
63630,note_on,120,0,3,,,,,,,,,2,,,53,0
63630,note_on,120,0,1,,,,,,,,,0,,,84,0
63630,note_on,0,0,1,,,,,,,,,0,,,81,0
63630,note_on,0,0,1,,,,,,,,,0,,,72,88
63642,note_on,0,0,3,,,,,,,,,2,,,57,0
63642,note_on,12,0,3,,,,,,,,,2,,,65,0
63750,note_on,0,0,1,,,,,,,,,0,,,69,88
63750,note_on,108,0,3,,,,,,,,,2,,,57,75
63750,note_on,120,0,1,,,,,,,,,0,,,72,0
63750,note_on,0,0,1,,,,,,,,,0,,,72,88
63750,note_on,0,0,3,,,,,,,,,2,,,65,75
63762,note_on,12,0,3,,,,,,,,,2,,,65,0
63762,note_on,0,0,3,,,,,,,,,2,,,57,0
63810,note_on,0,0,1,,,,,,,,,0,,,81,88
63810,note_on,0,0,1,,,,,,,,,0,,,69,0
63810,note_on,60,0,1,,,,,,,,,0,,,72,0
63870,note_on,60,0,1,,,,,,,,,0,,,81,0
63870,note_on,0,0,1,,,,,,,,,0,,,84,88
63870,note_on,0,0,1,,,,,,,,,0,,,82,88
63870,note_on,108,0,3,,,,,,,,,2,,,52,75
63990,note_on,0,0,3,,,,,,,,,2,,,67,75
63990,note_on,0,0,3,,,,,,,,,2,,,60,75
63990,note_on,120,0,3,,,,,,,,,2,,,52,0
63990,note_on,120,0,1,,,,,,,,,0,,,84,0
63990,note_on,0,0,1,,,,,,,,,0,,,72,88
63990,note_on,0,0,1,,,,,,,,,0,,,82,0
64002,note_on,12,0,3,,,,,,,,,2,,,67,0
64002,note_on,0,0,3,,,,,,,,,2,,,60,0
64110,note_on,0,0,1,,,,,,,,,0,,,82,88
64110,note_on,0,0,3,,,,,,,,,2,,,67,75
64110,note_on,120,0,1,,,,,,,,,0,,,72,0
64110,note_on,108,0,3,,,,,,,,,2,,,60,75
64110,note_on,0,0,1,,,,,,,,,0,,,86,88
64122,note_on,0,0,3,,,,,,,,,2,,,60,0
64122,note_on,12,0,3,,,,,,,,,2,,,67,0
64170,note_on,0,0,1,,,,,,,,,0,,,82,0
64170,note_on,0,0,1,,,,,,,,,0,,,81,88
64170,note_on,0,0,1,,,,,,,,,0,,,84,88
64170,note_on,60,0,1,,,,,,,,,0,,,86,0
64230,note_on,60,0,1,,,,,,,,,0,,,84,0
64230,note_on,0,0,1,,,,,,,,,0,,,81,0
64230,note_on,0,0,1,,,,,,,,,0,,,79,88
64230,note_on,0,0,1,,,,,,,,,0,,,82,88
64230,note_on,108,0,3,,,,,,,,,2,,,48,75
64290,note_on,0,0,1,,,,,,,,,0,,,79,0
64290,note_on,60,0,1,,,,,,,,,0,,,82,0
64290,note_on,0,0,1,,,,,,,,,0,,,81,88
64290,note_on,0,0,1,,,,,,,,,0,,,84,88
64350,note_on,0,0,3,,,,,,,,,2,,,67,75
64350,note_on,0,0,3,,,,,,,,,2,,,60,75
64350,note_on,120,0,3,,,,,,,,,2,,,48,0
64350,note_on,60,0,1,,,,,,,,,0,,,84,0
64350,note_on,0,0,1,,,,,,,,,0,,,81,0
64350,note_on,0,0,1,,,,,,,,,0,,,79,88
64350,note_on,0,0,1,,,,,,,,,0,,,82,88
64362,note_on,0,0,3,,,,,,,,,2,,,60,0
64362,note_on,12,0,3,,,,,,,,,2,,,67,0
64410,note_on,60,0,1,,,,,,,,,0,,,82,0
64410,note_on,0,0,1,,,,,,,,,0,,,79,0
64410,note_on,0,0,1,,,,,,,,,0,,,77,88
64410,note_on,0,0,1,,,,,,,,,0,,,81,88
64470,note_on,0,0,1,,,,,,,,,0,,,79,88
64470,note_on,0,0,3,,,,,,,,,2,,,67,75
64470,note_on,108,0,3,,,,,,,,,2,,,60,75
64470,note_on,60,0,1,,,,,,,,,0,,,81,0
64470,note_on,0,0,1,,,,,,,,,0,,,77,0
64470,note_on,0,0,1,,,,,,,,,0,,,76,88
64482,note_on,0,0,3,,,,,,,,,2,,,60,0
64482,note_on,12,0,3,,,,,,,,,2,,,67,0
64530,note_on,0,0,1,,,,,,,,,0,,,84,88
64530,note_on,0,0,1,,,,,,,,,0,,,76,0
64530,note_on,60,0,1,,,,,,,,,0,,,79,0
64530,note_on,0,0,1,,,,,,,,,0,,,81,88
64590,note_on,108,0,3,,,,,,,,,2,,,53,75
64590,note_on,60,0,1,,,,,,,,,0,,,84,0
64590,note_on,0,0,1,,,,,,,,,0,,,81,0
64590,note_on,0,0,1,,,,,,,,,0,,,81,88
64590,note_on,0,0,1,,,,,,,,,0,,,84,88
64710,note_on,0,0,3,,,,,,,,,2,,,57,75
64710,note_on,120,0,3,,,,,,,,,2,,,53,0
64710,note_on,120,0,1,,,,,,,,,0,,,84,0
64710,note_on,0,0,1,,,,,,,,,0,,,81,0
64710,note_on,0,0,1,,,,,,,,,0,,,72,88
64710,note_on,0,0,3,,,,,,,,,2,,,65,75
64722,note_on,0,0,3,,,,,,,,,2,,,57,0
64722,note_on,12,0,3,,,,,,,,,2,,,65,0
64830,note_on,0,0,1,,,,,,,,,0,,,69,88
64830,note_on,0,0,3,,,,,,,,,2,,,65,75
64830,note_on,108,0,3,,,,,,,,,2,,,57,75
64830,note_on,120,0,1,,,,,,,,,0,,,72,0
64830,note_on,0,0,1,,,,,,,,,0,,,72,88
64842,note_on,12,0,3,,,,,,,,,2,,,65,0
64842,note_on,0,0,3,,,,,,,,,2,,,57,0
64890,note_on,0,0,1,,,,,,,,,0,,,81,88
64890,note_on,0,0,1,,,,,,,,,0,,,69,0
64890,note_on,60,0,1,,,,,,,,,0,,,72,0
64950,note_on,0,0,1,,,,,,,,,0,,,81,88
64950,note_on,0,0,1,,,,,,,,,0,,,84,88
64950,note_on,108,0,3,,,,,,,,,2,,,53,75
64950,note_on,60,0,1,,,,,,,,,0,,,81,0
65070,note_on,120,0,3,,,,,,,,,2,,,53,0
65070,note_on,0,0,1,,,,,,,,,0,,,72,88
65070,note_on,0,0,1,,,,,,,,,0,,,81,0
65070,note_on,120,0,1,,,,,,,,,0,,,84,0
65070,note_on,0,0,3,,,,,,,,,2,,,57,75
65070,note_on,0,0,3,,,,,,,,,2,,,65,75
65082,note_on,0,0,3,,,,,,,,,2,,,57,0
65082,note_on,12,0,3,,,,,,,,,2,,,65,0
65190,note_on,108,0,3,,,,,,,,,2,,,57,75
65190,note_on,0,0,3,,,,,,,,,2,,,65,75
65190,note_on,0,0,1,,,,,,,,,0,,,77,88
65190,note_on,0,0,1,,,,,,,,,0,,,69,88
65190,note_on,120,0,1,,,,,,,,,0,,,72,0
65202,note_on,12,0,3,,,,,,,,,2,,,65,0
65202,note_on,0,0,3,,,,,,,,,2,,,57,0
65250,note_on,60,0,1,,,,,,,,,0,,,77,0
65250,note_on,0,0,1,,,,,,,,,0,,,69,0
65250,note_on,0,0,1,,,,,,,,,0,,,81,88
65310,note_on,108,0,3,,,,,,,,,2,,,53,75
65310,note_on,60,0,1,,,,,,,,,0,,,81,0
65310,note_on,0,0,1,,,,,,,,,0,,,81,88
65310,note_on,0,0,1,,,,,,,,,0,,,89,88
65430,note_on,120,0,1,,,,,,,,,0,,,89,0
65430,note_on,120,0,3,,,,,,,,,2,,,53,0
65430,note_on,0,0,3,,,,,,,,,2,,,65,75
65430,note_on,0,0,1,,,,,,,,,0,,,77,88
65430,note_on,0,0,3,,,,,,,,,2,,,57,75
65430,note_on,0,0,1,,,,,,,,,0,,,81,0
65442,note_on,12,0,3,,,,,,,,,2,,,65,0
65442,note_on,0,0,3,,,,,,,,,2,,,57,0
65550,note_on,0,0,1,,,,,,,,,0,,,89,88
65550,note_on,120,0,1,,,,,,,,,0,,,77,0
65550,note_on,0,0,3,,,,,,,,,2,,,65,75
65550,note_on,108,0,3,,,,,,,,,2,,,57,75
65562,note_on,12,0,3,,,,,,,,,2,,,65,0
65562,note_on,0,0,3,,,,,,,,,2,,,57,0
65610,note_on,0,0,1,,,,,,,,,0,,,88,88
65610,note_on,60,0,1,,,,,,,,,0,,,89,0
65670,note_on,60,0,1,,,,,,,,,0,,,88,0
65670,note_on,108,0,3,,,,,,,,,2,,,46,75
65670,note_on,0,0,1,,,,,,,,,0,,,88,88
65730,note_on,0,0,1,,,,,,,,,0,,,86,88
65730,note_on,60,0,1,,,,,,,,,0,,,88,0
65790,note_on,0,0,1,,,,,,,,,0,,,85,88
65790,note_on,60,0,1,,,,,,,,,0,,,86,0
65790,note_on,0,0,3,,,,,,,,,2,,,62,75
65790,note_on,120,0,3,,,,,,,,,2,,,46,0
65790,note_on,0,0,3,,,,,,,,,2,,,58,75
65802,note_on,0,0,3,,,,,,,,,2,,,58,0
65802,note_on,12,0,3,,,,,,,,,2,,,62,0
65850,note_on,0,0,1,,,,,,,,,0,,,86,88
65850,note_on,60,0,1,,,,,,,,,0,,,85,0
65910,note_on,60,0,1,,,,,,,,,0,,,86,0
65910,note_on,0,0,1,,,,,,,,,0,,,74,88
65910,note_on,108,0,3,,,,,,,,,2,,,48,75
65910,note_on,0,0,3,,,,,,,,,2,,,60,75
65910,note_on,0,0,3,,,,,,,,,2,,,58,75
65922,note_on,12,0,3,,,,,,,,,2,,,60,0
65922,note_on,0,0,3,,,,,,,,,2,,,48,0
65922,note_on,0,0,3,,,,,,,,,2,,,58,0
65970,note_on,0,0,1,,,,,,,,,0,,,76,88
65970,note_on,60,0,1,,,,,,,,,0,,,74,0
66030,note_on,0,0,1,,,,,,,,,0,,,77,88
66030,note_on,60,0,1,,,,,,,,,0,,,76,0
66030,note_on,0,0,3,,,,,,,,,2,,,60,75
66030,note_on,0,0,3,,,,,,,,,2,,,57,75
66030,note_on,108,0,3,,,,,,,,,2,,,53,75
66270,note_on,240,0,3,,,,,,,,,2,,,60,0
66270,note_on,0,0,3,,,,,,,,,2,,,57,0
66270,note_on,0,0,3,,,,,,,,,2,,,53,0
66270,note_on,240,0,1,,,,,,,,,0,,,77,0
66270,note_on,0,0,1,,,,,,,,,0,,,70,49
66330,note_on,0,0,1,,,,,,,,,0,,,77,49
66330,note_on,60,0,1,,,,,,,,,0,,,70,0
66390,note_on,120,0,3,,,,,,,,,2,,,46,36
66390,note_on,0,0,1,,,,,,,,,0,,,74,75
66390,note_on,60,0,1,,,,,,,,,0,,,77,0
66510,note_on,120,0,3,,,,,,,,,2,,,46,0
66510,note_on,0,0,3,,,,,,,,,2,,,58,36
66510,note_on,0,0,3,,,,,,,,,2,,,62,36
66510,note_on,0,0,1,,,,,,,,,0,,,65,49
66510,note_on,120,0,1,,,,,,,,,0,,,74,0
66510,note_on,0,0,3,,,,,,,,,2,,,53,36
66522,note_on,12,0,3,,,,,,,,,2,,,62,0
66522,note_on,0,0,3,,,,,,,,,2,,,58,0
66522,note_on,0,0,3,,,,,,,,,2,,,53,0
66630,note_on,108,0,3,,,,,,,,,2,,,53,36
66630,note_on,120,0,1,,,,,,,,,0,,,65,0
66630,note_on,0,0,3,,,,,,,,,2,,,58,36
66630,note_on,0,0,1,,,,,,,,,0,,,70,49
66630,note_on,0,0,3,,,,,,,,,2,,,62,36
66642,note_on,0,0,3,,,,,,,,,2,,,53,0
66642,note_on,12,0,3,,,,,,,,,2,,,62,0
66642,note_on,0,0,3,,,,,,,,,2,,,58,0
66690,note_on,0,0,1,,,,,,,,,0,,,77,49
66690,note_on,60,0,1,,,,,,,,,0,,,70,0
66750,note_on,60,0,1,,,,,,,,,0,,,77,0
66750,note_on,108,0,3,,,,,,,,,2,,,41,36
66750,note_on,0,0,1,,,,,,,,,0,,,75,75
66870,note_on,120,0,1,,,,,,,,,0,,,75,0
66870,note_on,0,0,1,,,,,,,,,0,,,69,49
66870,note_on,0,0,3,,,,,,,,,2,,,63,36
66870,note_on,0,0,3,,,,,,,,,2,,,60,36
66870,note_on,0,0,3,,,,,,,,,2,,,53,36
66870,note_on,120,0,3,,,,,,,,,2,,,41,0
66882,note_on,0,0,3,,,,,,,,,2,,,60,0
66882,note_on,0,0,3,,,,,,,,,2,,,53,0
66882,note_on,12,0,3,,,,,,,,,2,,,63,0
66990,note_on,108,0,3,,,,,,,,,2,,,53,36
66990,note_on,0,0,1,,,,,,,,,0,,,65,49
66990,note_on,120,0,1,,,,,,,,,0,,,69,0
66990,note_on,0,0,3,,,,,,,,,2,,,60,36
66990,note_on,0,0,3,,,,,,,,,2,,,63,36
67002,note_on,0,0,3,,,,,,,,,2,,,53,0
67002,note_on,0,0,3,,,,,,,,,2,,,60,0
67002,note_on,12,0,3,,,,,,,,,2,,,63,0
67050,note_on,60,0,1,,,,,,,,,0,,,65,0
67050,note_on,0,0,1,,,,,,,,,0,,,72,49
67110,note_on,60,0,1,,,,,,,,,0,,,72,0
67110,note_on,0,0,1,,,,,,,,,0,,,69,49
67110,note_on,108,0,3,,,,,,,,,2,,,41,36
67170,note_on,60,0,1,,,,,,,,,0,,,69,0
67170,note_on,0,0,1,,,,,,,,,0,,,75,49
67230,note_on,120,0,3,,,,,,,,,2,,,41,0
67230,note_on,60,0,1,,,,,,,,,0,,,75,0
67230,note_on,0,0,1,,,,,,,,,0,,,72,49
67230,note_on,0,0,3,,,,,,,,,2,,,63,36
67230,note_on,0,0,3,,,,,,,,,2,,,53,36
67230,note_on,0,0,3,,,,,,,,,2,,,57,36
67242,note_on,0,0,3,,,,,,,,,2,,,57,0
67242,note_on,0,0,3,,,,,,,,,2,,,53,0
67242,note_on,12,0,3,,,,,,,,,2,,,63,0
67290,note_on,60,0,1,,,,,,,,,0,,,72,0
67290,note_on,0,0,1,,,,,,,,,0,,,75,49
67290,note_on,0,0,1,,,,,,,,,0,,,79,49
67350,note_on,0,0,3,,,,,,,,,2,,,63,36
67350,note_on,0,0,3,,,,,,,,,2,,,57,36
67350,note_on,108,0,3,,,,,,,,,2,,,53,36
67350,note_on,60,0,1,,,,,,,,,0,,,79,0
67350,note_on,0,0,1,,,,,,,,,0,,,75,0
67350,note_on,0,0,1,,,,,,,,,0,,,74,49
67350,note_on,0,0,1,,,,,,,,,0,,,77,49
67362,note_on,12,0,3,,,,,,,,,2,,,63,0
67362,note_on,0,0,3,,,,,,,,,2,,,53,0
67362,note_on,0,0,3,,,,,,,,,2,,,57,0
67410,note_on,60,0,1,,,,,,,,,0,,,77,0
67410,note_on,0,0,1,,,,,,,,,0,,,74,0
67410,note_on,0,0,1,,,,,,,,,0,,,73,49
67410,note_on,0,0,1,,,,,,,,,0,,,76,49
67470,note_on,60,0,1,,,,,,,,,0,,,76,0
67470,note_on,0,0,1,,,,,,,,,0,,,73,0
67470,note_on,0,0,1,,,,,,,,,0,,,74,49
67470,note_on,108,0,3,,,,,,,,,2,,,46,36
67470,note_on,0,0,1,,,,,,,,,0,,,77,49
67590,note_on,0,0,3,,,,,,,,,2,,,53,36
67590,note_on,0,0,3,,,,,,,,,2,,,62,36
67590,note_on,120,0,1,,,,,,,,,0,,,77,0
67590,note_on,0,0,1,,,,,,,,,0,,,74,0
67590,note_on,0,0,3,,,,,,,,,2,,,58,36
67590,note_on,120,0,3,,,,,,,,,2,,,46,0
67590,note_on,0,0,1,,,,,,,,,0,,,65,49
67602,note_on,12,0,3,,,,,,,,,2,,,62,0
67602,note_on,0,0,3,,,,,,,,,2,,,58,0
67602,note_on,0,0,3,,,,,,,,,2,,,53,0
67710,note_on,120,0,1,,,,,,,,,0,,,65,0
67710,note_on,0,0,1,,,,,,,,,0,,,70,49
67710,note_on,108,0,3,,,,,,,,,2,,,53,36
67710,note_on,0,0,3,,,,,,,,,2,,,58,36
67710,note_on,0,0,3,,,,,,,,,2,,,62,36
67722,note_on,12,0,3,,,,,,,,,2,,,62,0
67722,note_on,0,0,3,,,,,,,,,2,,,58,0
67722,note_on,0,0,3,,,,,,,,,2,,,53,0
67770,note_on,0,0,1,,,,,,,,,0,,,77,49
67770,note_on,60,0,1,,,,,,,,,0,,,70,0
67830,note_on,108,0,3,,,,,,,,,2,,,46,36
67830,note_on,0,0,1,,,,,,,,,0,,,74,49
67830,note_on,60,0,1,,,,,,,,,0,,,77,0
67950,note_on,0,0,3,,,,,,,,,2,,,53,36
67950,note_on,0,0,3,,,,,,,,,2,,,58,36
67950,note_on,0,0,3,,,,,,,,,2,,,62,36
67950,note_on,0,0,1,,,,,,,,,0,,,82,49
67950,note_on,120,0,1,,,,,,,,,0,,,74,0
67950,note_on,120,0,3,,,,,,,,,2,,,46,0
67962,note_on,12,0,3,,,,,,,,,2,,,62,0
67962,note_on,0,0,3,,,,,,,,,2,,,58,0
67962,note_on,0,0,3,,,,,,,,,2,,,53,0
68070,note_on,108,0,3,,,,,,,,,2,,,53,36
68070,note_on,0,0,3,,,,,,,,,2,,,58,36
68070,note_on,0,0,3,,,,,,,,,2,,,62,36
68070,note_on,0,0,1,,,,,,,,,0,,,81,49
68070,note_on,120,0,1,,,,,,,,,0,,,82,0
68082,note_on,0,0,3,,,,,,,,,2,,,53,0
68082,note_on,0,0,3,,,,,,,,,2,,,58,0
68082,note_on,12,0,3,,,,,,,,,2,,,62,0
68130,note_on,0,0,1,,,,,,,,,0,,,79,49
68130,note_on,60,0,1,,,,,,,,,0,,,81,0
68190,note_on,108,0,3,,,,,,,,,2,,,41,36
68190,note_on,0,0,1,,,,,,,,,0,,,77,49
68190,note_on,0,0,1,,,,,,,,,0,,,75,49
68190,note_on,60,0,1,,,,,,,,,0,,,79,0
68310,note_on,120,0,3,,,,,,,,,2,,,41,0
68310,note_on,0,0,1,,,,,,,,,0,,,75,0
68310,note_on,0,0,1,,,,,,,,,0,,,69,49
68310,note_on,0,0,3,,,,,,,,,2,,,53,36
68310,note_on,0,0,3,,,,,,,,,2,,,60,36
68310,note_on,120,0,1,,,,,,,,,0,,,77,0
68310,note_on,0,0,3,,,,,,,,,2,,,63,36
68322,note_on,12,0,3,,,,,,,,,2,,,63,0
68322,note_on,0,0,3,,,,,,,,,2,,,60,0
68322,note_on,0,0,3,,,,,,,,,2,,,53,0
68430,note_on,0,0,1,,,,,,,,,0,,,65,49
68430,note_on,108,0,3,,,,,,,,,2,,,53,36
68430,note_on,0,0,3,,,,,,,,,2,,,63,36
68430,note_on,120,0,1,,,,,,,,,0,,,69,0
68430,note_on,0,0,3,,,,,,,,,2,,,60,36
68442,note_on,0,0,3,,,,,,,,,2,,,53,0
68442,note_on,0,0,3,,,,,,,,,2,,,60,0
68442,note_on,12,0,3,,,,,,,,,2,,,63,0
68490,note_on,60,0,1,,,,,,,,,0,,,65,0
68490,note_on,0,0,1,,,,,,,,,0,,,72,49
68550,note_on,108,0,3,,,,,,,,,2,,,41,36
68550,note_on,60,0,1,,,,,,,,,0,,,72,0
68550,note_on,0,0,1,,,,,,,,,0,,,69,49
68610,note_on,60,0,1,,,,,,,,,0,,,69,0
68610,note_on,0,0,1,,,,,,,,,0,,,75,49
68670,note_on,0,0,3,,,,,,,,,2,,,57,36
68670,note_on,0,0,3,,,,,,,,,2,,,63,36
68670,note_on,60,0,1,,,,,,,,,0,,,75,0
68670,note_on,0,0,1,,,,,,,,,0,,,72,49
68670,note_on,0,0,3,,,,,,,,,2,,,53,36
68670,note_on,120,0,3,,,,,,,,,2,,,41,0
68682,note_on,0,0,3,,,,,,,,,2,,,53,0
68682,note_on,0,0,3,,,,,,,,,2,,,57,0
68682,note_on,12,0,3,,,,,,,,,2,,,63,0
68730,note_on,0,0,1,,,,,,,,,0,,,79,49
68730,note_on,60,0,1,,,,,,,,,0,,,72,0
68790,note_on,0,0,3,,,,,,,,,2,,,63,36
68790,note_on,108,0,3,,,,,,,,,2,,,53,36
68790,note_on,0,0,1,,,,,,,,,0,,,77,49
68790,note_on,60,0,1,,,,,,,,,0,,,79,0
68790,note_on,0,0,3,,,,,,,,,2,,,60,36
68802,note_on,12,0,3,,,,,,,,,2,,,63,0
68802,note_on,0,0,3,,,,,,,,,2,,,60,0
68802,note_on,0,0,3,,,,,,,,,2,,,53,0
68850,note_on,0,0,1,,,,,,,,,0,,,69,49
68850,note_on,60,0,1,,,,,,,,,0,,,77,0
68910,note_on,108,0,3,,,,,,,,,2,,,46,36
68910,time_signature,5400,1,0,3,8,12,8,,,,,,,,,
68910,note_on,60,0,1,,,,,,,,,0,,,69,0
68910,note_on,0,0,1,,,,,,,,,0,,,70,49
69030,note_on,0,0,3,,,,,,,,,2,,,62,36
69030,note_on,0,0,3,,,,,,,,,2,,,58,36
69030,note_on,0,0,3,,,,,,,,,2,,,53,36
69030,note_on,120,0,3,,,,,,,,,2,,,46,0
69090,note_on,0,0,3,,,,,,,,,2,,,53,0
69090,note_on,0,0,3,,,,,,,,,2,,,58,0
69090,note_on,60,0,3,,,,,,,,,2,,,62,0
69090,note_on,0,0,1,,,,,,,,,0,,,70,75
69090,note_on,0,0,1,,,,,,,,,0,,,74,75
69090,note_on,0,0,1,,,,,,,,,0,,,65,75
69090,note_on,180,0,1,,,,,,,,,0,,,70,0
69150,note_on,60,0,1,,,,,,,,,0,,,74,0
69150,note_on,0,0,1,,,,,,,,,0,,,70,0
69150,note_on,0,0,1,,,,,,,,,0,,,65,0
69150,note_on,0,0,1,,,,,,,,,0,,,65,75
69150,note_on,0,0,1,,,,,,,,,0,,,70,75
69150,note_on,0,0,1,,,,,,,,,0,,,74,75
69210,note_on,60,0,1,,,,,,,,,0,,,74,0
69210,note_on,0,0,1,,,,,,,,,0,,,70,0
69210,note_on,0,0,1,,,,,,,,,0,,,74,75
69210,note_on,0,0,1,,,,,,,,,0,,,70,75
69210,note_on,0,0,1,,,,,,,,,0,,,65,0
69210,note_on,0,0,1,,,,,,,,,0,,,65,75
69270,note_on,180,0,3,,,,,,,,,2,,,46,62
69270,note_on,0,0,1,,,,,,,,,0,,,74,75
69270,note_on,0,0,1,,,,,,,,,0,,,70,75
69270,note_on,0,0,1,,,,,,,,,0,,,65,75
69270,note_on,0,0,1,,,,,,,,,0,,,65,0
69270,note_on,0,0,1,,,,,,,,,0,,,70,0
69270,time_signature,360,1,0,3,4,24,8,,,,,,,,,
69270,note_on,60,0,1,,,,,,,,,0,,,74,0
69390,note_on,0,0,1,,,,,,,,,0,,,65,75
69390,note_on,0,0,3,,,,,,,,,2,,,53,62
69390,note_on,0,0,3,,,,,,,,,2,,,58,62
69390,note_on,0,0,3,,,,,,,,,2,,,62,62
69390,note_on,0,0,1,,,,,,,,,0,,,70,75
69390,note_on,120,0,1,,,,,,,,,0,,,74,0
69390,note_on,0,0,1,,,,,,,,,0,,,70,0
69390,note_on,0,0,1,,,,,,,,,0,,,65,0
69390,note_on,120,0,3,,,,,,,,,2,,,46,0
69390,note_on,0,0,1,,,,,,,,,0,,,74,75
69402,note_on,12,0,3,,,,,,,,,2,,,62,0
69402,note_on,0,0,3,,,,,,,,,2,,,58,0
69402,note_on,0,0,3,,,,,,,,,2,,,53,0
69510,note_on,0,0,1,,,,,,,,,0,,,77,101
69510,note_on,0,0,1,,,,,,,,,0,,,70,0
69510,note_on,0,0,1,,,,,,,,,0,,,65,0
69510,note_on,0,0,1,,,,,,,,,0,,,65,91
69510,note_on,0,0,1,,,,,,,,,0,,,74,96
69510,note_on,108,0,3,,,,,,,,,2,,,53,62
69510,note_on,0,0,3,,,,,,,,,2,,,62,62
69510,note_on,120,0,1,,,,,,,,,0,,,74,0
69510,note_on,0,0,3,,,,,,,,,2,,,58,62
69522,note_on,12,0,3,,,,,,,,,2,,,62,0
69522,note_on,0,0,3,,,,,,,,,2,,,58,0
69522,note_on,0,0,3,,,,,,,,,2,,,53,0
69630,note_on,108,0,3,,,,,,,,,2,,,46,62
69630,note_on,0,0,1,,,,,,,,,0,,,74,75
69630,note_on,0,0,1,,,,,,,,,0,,,70,75
69630,note_on,0,0,1,,,,,,,,,0,,,65,75
69630,note_on,0,0,1,,,,,,,,,0,,,65,0
69630,note_on,0,0,1,,,,,,,,,0,,,74,0
69630,note_on,120,0,1,,,,,,,,,0,,,77,0
69750,note_on,0,0,3,,,,,,,,,2,,,53,62
69750,note_on,120,0,3,,,,,,,,,2,,,46,0
69750,note_on,0,0,3,,,,,,,,,2,,,62,62
69750,note_on,0,0,3,,,,,,,,,2,,,58,62
69750,note_on,0,0,1,,,,,,,,,0,,,70,0
69750,note_on,120,0,1,,,,,,,,,0,,,74,0
69750,note_on,0,0,1,,,,,,,,,0,,,65,0
69750,note_on,0,0,1,,,,,,,,,0,,,65,75
69750,note_on,0,0,1,,,,,,,,,0,,,70,75
69750,note_on,0,0,1,,,,,,,,,0,,,74,75
69762,note_on,12,0,3,,,,,,,,,2,,,62,0
69762,note_on,0,0,3,,,,,,,,,2,,,58,0
69762,note_on,0,0,3,,,,,,,,,2,,,53,0
69870,note_on,108,0,3,,,,,,,,,2,,,53,62
69870,note_on,0,0,3,,,,,,,,,2,,,58,62
69870,note_on,0,0,3,,,,,,,,,2,,,62,62
69870,note_on,0,0,1,,,,,,,,,0,,,74,96
69870,note_on,120,0,1,,,,,,,,,0,,,74,0
69870,note_on,0,0,1,,,,,,,,,0,,,70,0
69870,note_on,0,0,1,,,,,,,,,0,,,65,0
69870,note_on,0,0,1,,,,,,,,,0,,,77,101
69870,note_on,0,0,1,,,,,,,,,0,,,65,91
69882,note_on,0,0,3,,,,,,,,,2,,,53,0
69882,note_on,0,0,3,,,,,,,,,2,,,58,0
69882,note_on,12,0,3,,,,,,,,,2,,,62,0
69990,note_on,0,0,1,,,,,,,,,0,,,70,75
69990,note_on,120,0,1,,,,,,,,,0,,,77,0
69990,note_on,0,0,1,,,,,,,,,0,,,74,0
69990,note_on,0,0,1,,,,,,,,,0,,,65,0
69990,note_on,108,0,3,,,,,,,,,2,,,46,62
69990,note_on,0,0,1,,,,,,,,,0,,,79,75
69990,note_on,0,0,1,,,,,,,,,0,,,75,75
70110,note_on,0,0,3,,,,,,,,,2,,,58,62
70110,note_on,0,0,3,,,,,,,,,2,,,63,62
70110,note_on,120,0,3,,,,,,,,,2,,,46,0
70110,note_on,120,0,1,,,,,,,,,0,,,79,0
70110,note_on,0,0,1,,,,,,,,,0,,,75,0
70110,note_on,0,0,1,,,,,,,,,0,,,70,0
70110,note_on,0,0,1,,,,,,,,,0,,,70,75
70110,note_on,0,0,1,,,,,,,,,0,,,75,75
70110,note_on,0,0,1,,,,,,,,,0,,,79,75
70110,note_on,0,0,3,,,,,,,,,2,,,55,62
70122,note_on,0,0,3,,,,,,,,,2,,,58,0
70122,note_on,12,0,3,,,,,,,,,2,,,63,0
70122,note_on,0,0,3,,,,,,,,,2,,,55,0
70230,note_on,0,0,1,,,,,,,,,0,,,79,96
70230,note_on,108,0,3,,,,,,,,,2,,,55,62
70230,note_on,0,0,3,,,,,,,,,2,,,58,62
70230,note_on,0,0,3,,,,,,,,,2,,,63,62
70230,note_on,120,0,1,,,,,,,,,0,,,79,0
70230,note_on,0,0,1,,,,,,,,,0,,,75,0
70230,note_on,0,0,1,,,,,,,,,0,,,82,101
70230,note_on,0,0,1,,,,,,,,,0,,,70,91
70230,note_on,0,0,1,,,,,,,,,0,,,70,0
70242,note_on,12,0,3,,,,,,,,,2,,,63,0
70242,note_on,0,0,3,,,,,,,,,2,,,58,0
70242,note_on,0,0,3,,,,,,,,,2,,,55,0
70350,note_on,0,0,1,,,,,,,,,0,,,70,0
70350,note_on,0,0,1,,,,,,,,,0,,,77,75
70350,note_on,0,0,1,,,,,,,,,0,,,74,75
70350,note_on,0,0,1,,,,,,,,,0,,,70,75
70350,note_on,0,0,1,,,,,,,,,0,,,79,0
70350,note_on,120,0,1,,,,,,,,,0,,,82,0
70350,note_on,108,0,3,,,,,,,,,2,,,46,62
70470,note_on,120,0,3,,,,,,,,,2,,,46,0
70470,note_on,0,0,3,,,,,,,,,2,,,53,62
70470,note_on,0,0,3,,,,,,,,,2,,,58,62
70470,note_on,0,0,3,,,,,,,,,2,,,62,62
70482,note_on,0,0,3,,,,,,,,,2,,,58,0
70482,note_on,0,0,3,,,,,,,,,2,,,53,0
70482,note_on,12,0,3,,,,,,,,,2,,,62,0
70530,note_on,180,0,1,,,,,,,,,0,,,77,0
70530,note_on,0,0,1,,,,,,,,,0,,,74,0
70530,note_on,0,0,1,,,,,,,,,0,,,70,0
70530,note_on,0,0,1,,,,,,,,,0,,,77,49
70530,note_on,0,0,1,,,,,,,,,0,,,89,49
70590,note_on,0,0,3,,,,,,,,,2,,,62,36
70590,note_on,0,0,3,,,,,,,,,2,,,58,36
70590,note_on,108,0,3,,,,,,,,,2,,,53,36
70590,note_on,0,0,1,,,,,,,,,0,,,89,49
70590,note_on,0,0,1,,,,,,,,,0,,,77,49
70590,note_on,0,0,1,,,,,,,,,0,,,77,0
70590,note_on,60,0,1,,,,,,,,,0,,,89,0
70602,note_on,12,0,3,,,,,,,,,2,,,62,0
70602,note_on,0,0,3,,,,,,,,,2,,,58,0
70602,note_on,0,0,3,,,,,,,,,2,,,53,0
70650,note_on,0,0,1,,,,,,,,,0,,,77,49
70650,note_on,0,0,1,,,,,,,,,0,,,89,49
70650,note_on,0,0,1,,,,,,,,,0,,,77,0
70650,note_on,60,0,1,,,,,,,,,0,,,89,0
70710,note_on,0,0,1,,,,,,,,,0,,,89,49
70710,note_on,0,0,1,,,,,,,,,0,,,77,49
70710,note_on,108,0,3,,,,,,,,,2,,,46,36
70710,note_on,0,0,1,,,,,,,,,0,,,77,0
70710,note_on,60,0,1,,,,,,,,,0,,,89,0
70830,note_on,0,0,3,,,,,,,,,2,,,53,36
70830,note_on,0,0,1,,,,,,,,,0,,,89,49
70830,note_on,0,0,1,,,,,,,,,0,,,77,49
70830,note_on,0,0,1,,,,,,,,,0,,,77,0
70830,note_on,120,0,1,,,,,,,,,0,,,89,0
70830,note_on,0,0,3,,,,,,,,,2,,,58,36
70830,note_on,0,0,3,,,,,,,,,2,,,62,36
70830,note_on,120,0,3,,,,,,,,,2,,,46,0
70842,note_on,0,0,3,,,,,,,,,2,,,58,0
70842,note_on,12,0,3,,,,,,,,,2,,,62,0
70842,note_on,0,0,3,,,,,,,,,2,,,53,0
70950,note_on,108,0,3,,,,,,,,,2,,,54,36
70950,note_on,0,0,3,,,,,,,,,2,,,58,36
70950,note_on,0,0,3,,,,,,,,,2,,,62,36
70950,note_on,0,0,1,,,,,,,,,0,,,86,75
70950,note_on,0,0,1,,,,,,,,,0,,,74,67
70950,note_on,0,0,1,,,,,,,,,0,,,77,0
70950,note_on,120,0,1,,,,,,,,,0,,,89,0
70962,note_on,12,0,3,,,,,,,,,2,,,62,0
70962,note_on,0,0,3,,,,,,,,,2,,,58,0
70962,note_on,0,0,3,,,,,,,,,2,,,54,0
71070,note_on,0,0,1,,,,,,,,,0,,,74,0
71070,note_on,120,0,1,,,,,,,,,0,,,86,0
71070,note_on,0,0,1,,,,,,,,,0,,,74,49
71070,note_on,108,0,3,,,,,,,,,2,,,46,36
71070,note_on,0,0,1,,,,,,,,,0,,,86,49
71190,note_on,0,0,3,,,,,,,,,2,,,55,36
71190,note_on,120,0,3,,,,,,,,,2,,,46,0
71190,note_on,0,0,1,,,,,,,,,0,,,86,49
71190,note_on,0,0,1,,,,,,,,,0,,,74,49
71190,note_on,0,0,1,,,,,,,,,0,,,74,0
71190,note_on,120,0,1,,,,,,,,,0,,,86,0
71190,note_on,0,0,3,,,,,,,,,2,,,62,36
71190,note_on,0,0,3,,,,,,,,,2,,,58,36
71202,note_on,12,0,3,,,,,,,,,2,,,62,0
71202,note_on,0,0,3,,,,,,,,,2,,,55,0
71202,note_on,0,0,3,,,,,,,,,2,,,58,0
71310,note_on,0,0,1,,,,,,,,,0,,,74,0
71310,note_on,108,0,3,,,,,,,,,2,,,55,36
71310,note_on,0,0,3,,,,,,,,,2,,,58,36
71310,note_on,120,0,1,,,,,,,,,0,,,86,0
71310,note_on,0,0,3,,,,,,,,,2,,,62,36
71310,note_on,0,0,1,,,,,,,,,0,,,82,75
71310,note_on,0,0,1,,,,,,,,,0,,,70,67
71322,note_on,0,0,3,,,,,,,,,2,,,58,0
71322,note_on,0,0,3,,,,,,,,,2,,,55,0
71322,note_on,12,0,3,,,,,,,,,2,,,62,0
71430,note_on,0,0,1,,,,,,,,,0,,,79,49
71430,note_on,0,0,1,,,,,,,,,0,,,70,0
71430,note_on,0,0,1,,,,,,,,,0,,,67,49
71430,note_on,108,0,3,,,,,,,,,2,,,48,36
71430,note_on,120,0,1,,,,,,,,,0,,,82,0
71550,note_on,0,0,1,,,,,,,,,0,,,67,0
71550,note_on,0,0,3,,,,,,,,,2,,,52,36
71550,note_on,0,0,3,,,,,,,,,2,,,58,36
71550,note_on,0,0,3,,,,,,,,,2,,,60,36
71550,note_on,0,0,1,,,,,,,,,0,,,79,49
71550,note_on,0,0,1,,,,,,,,,0,,,67,49
71550,note_on,120,0,3,,,,,,,,,2,,,48,0
71550,note_on,120,0,1,,,,,,,,,0,,,79,0
71562,note_on,12,0,3,,,,,,,,,2,,,60,0
71562,note_on,0,0,3,,,,,,,,,2,,,58,0
71562,note_on,0,0,3,,,,,,,,,2,,,52,0
71670,note_on,0,0,3,,,,,,,,,2,,,60,36
71670,note_on,0,0,3,,,,,,,,,2,,,58,36
71670,note_on,108,0,3,,,,,,,,,2,,,52,36
71670,note_on,120,0,1,,,,,,,,,0,,,79,0
71670,note_on,0,0,1,,,,,,,,,0,,,67,0
71670,note_on,0,0,1,,,,,,,,,0,,,72,67
71670,note_on,0,0,1,,,,,,,,,0,,,84,75
71682,note_on,12,0,3,,,,,,,,,2,,,60,0
71682,note_on,0,0,3,,,,,,,,,2,,,58,0
71682,note_on,0,0,3,,,,,,,,,2,,,52,0
71790,time_signature,2520,1,0,3,8,12,8,,,,,,,,,
71790,note_on,108,0,3,,,,,,,,,2,,,41,36
71790,note_on,120,0,1,,,,,,,,,0,,,84,0
71790,note_on,0,0,1,,,,,,,,,0,,,72,0
71790,note_on,0,0,1,,,,,,,,,0,,,65,49
71790,note_on,0,0,1,,,,,,,,,0,,,77,49
71910,note_on,0,0,3,,,,,,,,,2,,,57,36
71910,note_on,120,0,3,,,,,,,,,2,,,41,0
71910,note_on,0,0,3,,,,,,,,,2,,,60,36
71910,note_on,0,0,3,,,,,,,,,2,,,53,36
71970,note_on,60,0,3,,,,,,,,,2,,,60,0
71970,note_on,180,0,1,,,,,,,,,0,,,77,0
71970,note_on,0,0,1,,,,,,,,,0,,,65,0
71970,note_on,0,0,1,,,,,,,,,0,,,65,75
71970,note_on,0,0,1,,,,,,,,,0,,,74,75
71970,note_on,0,0,1,,,,,,,,,0,,,70,75
71970,note_on,0,0,3,,,,,,,,,2,,,57,0
71970,note_on,0,0,3,,,,,,,,,2,,,53,0
72030,note_on,0,0,1,,,,,,,,,0,,,74,75
72030,note_on,0,0,1,,,,,,,,,0,,,70,75
72030,note_on,0,0,1,,,,,,,,,0,,,65,0
72030,note_on,0,0,1,,,,,,,,,0,,,70,0
72030,note_on,60,0,1,,,,,,,,,0,,,74,0
72030,note_on,0,0,1,,,,,,,,,0,,,65,75
72090,note_on,0,0,1,,,,,,,,,0,,,70,0
72090,note_on,0,0,1,,,,,,,,,0,,,65,0
72090,note_on,0,0,1,,,,,,,,,0,,,65,75
72090,note_on,0,0,1,,,,,,,,,0,,,70,75
72090,note_on,0,0,1,,,,,,,,,0,,,74,75
72090,note_on,60,0,1,,,,,,,,,0,,,74,0
72150,note_on,0,0,1,,,,,,,,,0,,,70,75
72150,note_on,180,0,3,,,,,,,,,2,,,46,62
72150,note_on,0,0,1,,,,,,,,,0,,,65,75
72150,time_signature,360,1,0,3,4,24,8,,,,,,,,,
72150,note_on,60,0,1,,,,,,,,,0,,,74,0
72150,note_on,0,0,1,,,,,,,,,0,,,70,0
72150,note_on,0,0,1,,,,,,,,,0,,,65,0
72150,note_on,0,0,1,,,,,,,,,0,,,74,75
72270,note_on,0,0,3,,,,,,,,,2,,,58,62
72270,note_on,120,0,3,,,,,,,,,2,,,46,0
72270,note_on,0,0,3,,,,,,,,,2,,,53,62
72270,note_on,0,0,3,,,,,,,,,2,,,62,62
72270,note_on,0,0,1,,,,,,,,,0,,,70,0
72270,note_on,0,0,1,,,,,,,,,0,,,70,75
72270,note_on,120,0,1,,,,,,,,,0,,,74,0
72270,note_on,0,0,1,,,,,,,,,0,,,65,0
72270,note_on,0,0,1,,,,,,,,,0,,,65,75
72270,note_on,0,0,1,,,,,,,,,0,,,74,75
72282,note_on,0,0,3,,,,,,,,,2,,,58,0
72282,note_on,12,0,3,,,,,,,,,2,,,62,0
72282,note_on,0,0,3,,,,,,,,,2,,,53,0
72390,note_on,0,0,3,,,,,,,,,2,,,62,62
72390,note_on,0,0,3,,,,,,,,,2,,,58,62
72390,note_on,108,0,3,,,,,,,,,2,,,53,62
72390,note_on,0,0,1,,,,,,,,,0,,,70,0
72390,note_on,0,0,1,,,,,,,,,0,,,65,0
72390,note_on,0,0,1,,,,,,,,,0,,,65,91
72390,note_on,0,0,1,,,,,,,,,0,,,74,96
72390,note_on,0,0,1,,,,,,,,,0,,,77,101
72390,note_on,120,0,1,,,,,,,,,0,,,74,0
72402,note_on,0,0,3,,,,,,,,,2,,,53,0
72402,note_on,12,0,3,,,,,,,,,2,,,62,0
72402,note_on,0,0,3,,,,,,,,,2,,,58,0
72510,note_on,0,0,1,,,,,,,,,0,,,65,0
72510,note_on,0,0,1,,,,,,,,,0,,,74,0
72510,note_on,0,0,1,,,,,,,,,0,,,65,75
72510,note_on,0,0,1,,,,,,,,,0,,,70,75
72510,note_on,0,0,1,,,,,,,,,0,,,74,75
72510,note_on,120,0,1,,,,,,,,,0,,,77,0
72510,note_on,108,0,3,,,,,,,,,2,,,46,62
72630,note_on,0,0,3,,,,,,,,,2,,,62,62
72630,note_on,0,0,3,,,,,,,,,2,,,58,62
72630,note_on,0,0,3,,,,,,,,,2,,,53,62
72630,note_on,120,0,3,,,,,,,,,2,,,46,0
72630,note_on,0,0,1,,,,,,,,,0,,,74,75
72630,note_on,0,0,1,,,,,,,,,0,,,70,75
72630,note_on,0,0,1,,,,,,,,,0,,,65,75
72630,note_on,0,0,1,,,,,,,,,0,,,65,0
72630,note_on,0,0,1,,,,,,,,,0,,,70,0
72630,note_on,120,0,1,,,,,,,,,0,,,74,0
72642,note_on,12,0,3,,,,,,,,,2,,,62,0
72642,note_on,0,0,3,,,,,,,,,2,,,58,0
72642,note_on,0,0,3,,,,,,,,,2,,,53,0
72750,note_on,108,0,3,,,,,,,,,2,,,53,62
72750,note_on,0,0,1,,,,,,,,,0,,,77,101
72750,note_on,0,0,1,,,,,,,,,0,,,74,96
72750,note_on,0,0,1,,,,,,,,,0,,,65,91
72750,note_on,0,0,1,,,,,,,,,0,,,65,0
72750,note_on,0,0,1,,,,,,,,,0,,,70,0
72750,note_on,120,0,1,,,,,,,,,0,,,74,0
72750,note_on,0,0,3,,,,,,,,,2,,,62,62
72750,note_on,0,0,3,,,,,,,,,2,,,58,62
72762,note_on,12,0,3,,,,,,,,,2,,,62,0
72762,note_on,0,0,3,,,,,,,,,2,,,58,0
72762,note_on,0,0,3,,,,,,,,,2,,,53,0
72870,note_on,108,0,3,,,,,,,,,2,,,46,62
72870,note_on,0,0,1,,,,,,,,,0,,,74,0
72870,note_on,0,0,1,,,,,,,,,0,,,65,0
72870,note_on,0,0,1,,,,,,,,,0,,,70,75
72870,note_on,0,0,1,,,,,,,,,0,,,75,75
72870,note_on,0,0,1,,,,,,,,,0,,,79,75
72870,note_on,120,0,1,,,,,,,,,0,,,77,0
72990,note_on,0,0,3,,,,,,,,,2,,,55,62
72990,note_on,0,0,3,,,,,,,,,2,,,58,62
72990,note_on,0,0,3,,,,,,,,,2,,,63,62
72990,note_on,0,0,1,,,,,,,,,0,,,79,75
72990,note_on,120,0,3,,,,,,,,,2,,,46,0
72990,note_on,120,0,1,,,,,,,,,0,,,79,0
72990,note_on,0,0,1,,,,,,,,,0,,,75,0
72990,note_on,0,0,1,,,,,,,,,0,,,70,0
72990,note_on,0,0,1,,,,,,,,,0,,,70,75
72990,note_on,0,0,1,,,,,,,,,0,,,75,75
73002,note_on,12,0,3,,,,,,,,,2,,,63,0
73002,note_on,0,0,3,,,,,,,,,2,,,58,0
73002,note_on,0,0,3,,,,,,,,,2,,,55,0
73110,note_on,120,0,1,,,,,,,,,0,,,79,0
73110,note_on,108,0,3,,,,,,,,,2,,,55,62
73110,note_on,0,0,3,,,,,,,,,2,,,63,62
73110,note_on,0,0,1,,,,,,,,,0,,,82,101
73110,note_on,0,0,1,,,,,,,,,0,,,70,91
73110,note_on,0,0,1,,,,,,,,,0,,,70,0
73110,note_on,0,0,1,,,,,,,,,0,,,75,0
73110,note_on,0,0,3,,,,,,,,,2,,,58,62
73110,note_on,0,0,1,,,,,,,,,0,,,79,96
73122,note_on,12,0,3,,,,,,,,,2,,,63,0
73122,note_on,0,0,3,,,,,,,,,2,,,58,0
73122,note_on,0,0,3,,,,,,,,,2,,,55,0
73230,note_on,108,0,3,,,,,,,,,2,,,46,62
73230,note_on,120,0,1,,,,,,,,,0,,,82,0
73230,note_on,0,0,1,,,,,,,,,0,,,79,0
73230,note_on,0,0,1,,,,,,,,,0,,,70,0
73230,note_on,0,0,1,,,,,,,,,0,,,70,75
73230,note_on,0,0,1,,,,,,,,,0,,,74,75
73230,note_on,0,0,1,,,,,,,,,0,,,77,75
73350,note_on,0,0,3,,,,,,,,,2,,,62,62
73350,note_on,0,0,3,,,,,,,,,2,,,58,62
73350,note_on,120,0,3,,,,,,,,,2,,,46,0
73350,note_on,0,0,3,,,,,,,,,2,,,53,62
73362,note_on,12,0,3,,,,,,,,,2,,,62,0
73362,note_on,0,0,3,,,,,,,,,2,,,58,0
73362,note_on,0,0,3,,,,,,,,,2,,,53,0
73410,note_on,0,0,1,,,,,,,,,0,,,77,49
73410,note_on,0,0,1,,,,,,,,,0,,,89,49
73410,note_on,180,0,1,,,,,,,,,0,,,77,0
73410,note_on,0,0,1,,,,,,,,,0,,,74,0
73410,note_on,0,0,1,,,,,,,,,0,,,70,0
73470,note_on,108,0,3,,,,,,,,,2,,,53,36
73470,note_on,0,0,3,,,,,,,,,2,,,58,36
73470,note_on,0,0,1,,,,,,,,,0,,,77,0
73470,note_on,0,0,1,,,,,,,,,0,,,89,49
73470,note_on,0,0,1,,,,,,,,,0,,,77,49
73470,note_on,60,0,1,,,,,,,,,0,,,89,0
73470,note_on,0,0,3,,,,,,,,,2,,,62,36
73482,note_on,0,0,3,,,,,,,,,2,,,58,0
73482,note_on,0,0,3,,,,,,,,,2,,,53,0
73482,note_on,12,0,3,,,,,,,,,2,,,62,0
73530,note_on,60,0,1,,,,,,,,,0,,,89,0
73530,note_on,0,0,1,,,,,,,,,0,,,77,0
73530,note_on,0,0,1,,,,,,,,,0,,,77,49
73530,note_on,0,0,1,,,,,,,,,0,,,89,49
73590,note_on,0,0,1,,,,,,,,,0,,,77,49
73590,note_on,108,0,3,,,,,,,,,2,,,46,36
73590,note_on,60,0,1,,,,,,,,,0,,,89,0
73590,note_on,0,0,1,,,,,,,,,0,,,77,0
73590,note_on,0,0,1,,,,,,,,,0,,,89,49
73710,note_on,0,0,3,,,,,,,,,2,,,62,36
73710,note_on,0,0,1,,,,,,,,,0,,,89,49
73710,note_on,0,0,1,,,,,,,,,0,,,77,0
73710,note_on,0,0,1,,,,,,,,,0,,,77,49
73710,note_on,0,0,3,,,,,,,,,2,,,58,36
73710,note_on,120,0,3,,,,,,,,,2,,,46,0
73710,note_on,120,0,1,,,,,,,,,0,,,89,0
73710,note_on,0,0,3,,,,,,,,,2,,,53,36
73722,note_on,12,0,3,,,,,,,,,2,,,62,0
73722,note_on,0,0,3,,,,,,,,,2,,,58,0
73722,note_on,0,0,3,,,,,,,,,2,,,53,0
73830,note_on,0,0,1,,,,,,,,,0,,,74,67
73830,note_on,120,0,1,,,,,,,,,0,,,89,0
73830,note_on,0,0,3,,,,,,,,,2,,,62,36
73830,note_on,0,0,3,,,,,,,,,2,,,58,36
73830,note_on,108,0,3,,,,,,,,,2,,,54,36
73830,note_on,0,0,1,,,,,,,,,0,,,77,0
73830,note_on,0,0,1,,,,,,,,,0,,,86,75
73842,note_on,12,0,3,,,,,,,,,2,,,62,0
73842,note_on,0,0,3,,,,,,,,,2,,,58,0
73842,note_on,0,0,3,,,,,,,,,2,,,54,0
73950,note_on,108,0,3,,,,,,,,,2,,,46,36
73950,note_on,120,0,1,,,,,,,,,0,,,86,0
73950,note_on,0,0,1,,,,,,,,,0,,,74,0
73950,note_on,0,0,1,,,,,,,,,0,,,74,49
73950,note_on,0,0,1,,,,,,,,,0,,,86,49
74070,note_on,0,0,3,,,,,,,,,2,,,62,36
74070,note_on,0,0,3,,,,,,,,,2,,,58,36
74070,note_on,120,0,1,,,,,,,,,0,,,86,0
74070,note_on,0,0,1,,,,,,,,,0,,,74,0
74070,note_on,0,0,1,,,,,,,,,0,,,74,49
74070,note_on,0,0,1,,,,,,,,,0,,,86,49
74070,note_on,0,0,3,,,,,,,,,2,,,55,36
74070,note_on,120,0,3,,,,,,,,,2,,,46,0
74082,note_on,12,0,3,,,,,,,,,2,,,62,0
74082,note_on,0,0,3,,,,,,,,,2,,,58,0
74082,note_on,0,0,3,,,,,,,,,2,,,55,0
74190,note_on,120,0,1,,,,,,,,,0,,,86,0
74190,note_on,0,0,1,,,,,,,,,0,,,74,0
74190,note_on,108,0,3,,,,,,,,,2,,,55,36
74190,note_on,0,0,3,,,,,,,,,2,,,58,36
74190,note_on,0,0,3,,,,,,,,,2,,,62,36
74190,note_on,0,0,1,,,,,,,,,0,,,70,67
74190,note_on,0,0,1,,,,,,,,,0,,,82,75
74202,note_on,12,0,3,,,,,,,,,2,,,62,0
74202,note_on,0,0,3,,,,,,,,,2,,,58,0
74202,note_on,0,0,3,,,,,,,,,2,,,55,0
74310,note_on,0,0,1,,,,,,,,,0,,,70,0
74310,note_on,120,0,1,,,,,,,,,0,,,82,0
74310,note_on,108,0,3,,,,,,,,,2,,,48,36
74310,note_on,0,0,1,,,,,,,,,0,,,79,49
74310,note_on,0,0,1,,,,,,,,,0,,,67,49
74430,note_on,0,0,3,,,,,,,,,2,,,60,36
74430,note_on,0,0,3,,,,,,,,,2,,,52,36
74430,note_on,120,0,3,,,,,,,,,2,,,48,0
74430,note_on,0,0,1,,,,,,,,,0,,,67,0
74430,note_on,0,0,1,,,,,,,,,0,,,79,49
74430,note_on,0,0,1,,,,,,,,,0,,,67,49
74430,note_on,0,0,3,,,,,,,,,2,,,58,36
74430,note_on,120,0,1,,,,,,,,,0,,,79,0
74442,note_on,0,0,3,,,,,,,,,2,,,58,0
74442,note_on,0,0,3,,,,,,,,,2,,,52,0
74442,note_on,12,0,3,,,,,,,,,2,,,60,0
74550,note_on,0,0,3,,,,,,,,,2,,,58,36
74550,note_on,108,0,3,,,,,,,,,2,,,52,36
74550,note_on,120,0,1,,,,,,,,,0,,,79,0
74550,note_on,0,0,1,,,,,,,,,0,,,67,0
74550,note_on,0,0,1,,,,,,,,,0,,,72,67
74550,note_on,0,0,1,,,,,,,,,0,,,84,75
74550,note_on,0,0,3,,,,,,,,,2,,,60,36
74562,note_on,12,0,3,,,,,,,,,2,,,60,0
74562,note_on,0,0,3,,,,,,,,,2,,,58,0
74562,note_on,0,0,3,,,,,,,,,2,,,52,0
74670,note_on,108,0,3,,,,,,,,,2,,,41,36
74670,note_on,0,0,1,,,,,,,,,0,,,65,49
74670,note_on,120,0,1,,,,,,,,,0,,,84,0
74670,note_on,0,0,1,,,,,,,,,0,,,77,49
74670,note_on,0,0,1,,,,,,,,,0,,,72,0
74670,time_signature,2520,1,0,3,8,12,8,,,,,,,,,
74790,note_on,0,0,3,,,,,,,,,2,,,60,36
74790,note_on,0,0,3,,,,,,,,,2,,,57,36
74790,note_on,0,0,3,,,,,,,,,2,,,53,36
74790,note_on,120,0,3,,,,,,,,,2,,,41,0
74850,note_on,0,0,3,,,,,,,,,2,,,53,0
74850,note_on,0,0,1,,,,,,,,,0,,,75,75
74850,note_on,0,0,1,,,,,,,,,0,,,72,75
74850,note_on,0,0,1,,,,,,,,,0,,,69,75
74850,note_on,0,0,1,,,,,,,,,0,,,65,75
74850,note_on,0,0,1,,,,,,,,,0,,,65,0
74850,note_on,0,0,3,,,,,,,,,2,,,57,0
74850,note_on,60,0,3,,,,,,,,,2,,,60,0
74850,note_on,180,0,1,,,,,,,,,0,,,77,0
74910,note_on,0,0,1,,,,,,,,,0,,,75,75
74910,note_on,0,0,1,,,,,,,,,0,,,65,0
74910,note_on,60,0,1,,,,,,,,,0,,,75,0
74910,note_on,0,0,1,,,,,,,,,0,,,65,75
74910,note_on,0,0,1,,,,,,,,,0,,,69,0
74910,note_on,0,0,1,,,,,,,,,0,,,69,75
74910,note_on,0,0,1,,,,,,,,,0,,,72,75
74910,note_on,0,0,1,,,,,,,,,0,,,72,0
74970,note_on,0,0,1,,,,,,,,,0,,,69,0
74970,note_on,0,0,1,,,,,,,,,0,,,75,75
74970,note_on,0,0,1,,,,,,,,,0,,,72,75
74970,note_on,0,0,1,,,,,,,,,0,,,69,75
74970,note_on,60,0,1,,,,,,,,,0,,,75,0
74970,note_on,0,0,1,,,,,,,,,0,,,72,0
74970,note_on,0,0,1,,,,,,,,,0,,,65,0
74970,note_on,0,0,1,,,,,,,,,0,,,65,75
75030,note_on,60,0,1,,,,,,,,,0,,,75,0
75030,note_on,0,0,1,,,,,,,,,0,,,65,0
75030,note_on,0,0,1,,,,,,,,,0,,,69,0
75030,note_on,0,0,1,,,,,,,,,0,,,72,0
75030,note_on,0,0,1,,,,,,,,,0,,,75,75
75030,note_on,0,0,1,,,,,,,,,0,,,72,75
75030,note_on,180,0,3,,,,,,,,,2,,,41,62
75030,note_on,0,0,1,,,,,,,,,0,,,69,75
75030,note_on,0,0,3,,,,,,,,,2,,,53,62
75030,time_signature,360,1,0,3,4,24,8,,,,,,,,,
75030,note_on,0,0,1,,,,,,,,,0,,,65,75
75150,note_on,120,0,1,,,,,,,,,0,,,75,0
75150,note_on,0,0,1,,,,,,,,,0,,,65,0
75150,note_on,0,0,1,,,,,,,,,0,,,69,0
75150,note_on,0,0,1,,,,,,,,,0,,,72,0
75150,note_on,0,0,1,,,,,,,,,0,,,65,75
75150,note_on,0,0,1,,,,,,,,,0,,,69,75
75150,note_on,0,0,1,,,,,,,,,0,,,72,75
75150,note_on,0,0,1,,,,,,,,,0,,,75,75
75150,note_on,120,0,3,,,,,,,,,2,,,53,0
75150,note_on,0,0,3,,,,,,,,,2,,,41,0
75150,note_on,0,0,3,,,,,,,,,2,,,53,62
75150,note_on,0,0,3,,,,,,,,,2,,,57,62
75150,note_on,0,0,3,,,,,,,,,2,,,60,62
75162,note_on,0,0,3,,,,,,,,,2,,,53,0
75162,note_on,12,0,3,,,,,,,,,2,,,60,0
75162,note_on,0,0,3,,,,,,,,,2,,,57,0
75270,note_on,0,0,3,,,,,,,,,2,,,60,62
75270,note_on,0,0,1,,,,,,,,,0,,,64,75
75270,note_on,120,0,1,,,,,,,,,0,,,75,0
75270,note_on,0,0,1,,,,,,,,,0,,,65,0
75270,note_on,0,0,1,,,,,,,,,0,,,69,0
75270,note_on,0,0,1,,,,,,,,,0,,,72,0
75270,note_on,0,0,3,,,,,,,,,2,,,58,62
75270,note_on,0,0,1,,,,,,,,,0,,,70,75
75270,note_on,0,0,1,,,,,,,,,0,,,72,75
75270,note_on,108,0,3,,,,,,,,,2,,,55,62
75282,note_on,0,0,3,,,,,,,,,2,,,58,0
75282,note_on,0,0,3,,,,,,,,,2,,,55,0
75282,note_on,12,0,3,,,,,,,,,2,,,60,0
75390,note_on,0,0,1,,,,,,,,,0,,,70,0
75390,note_on,0,0,3,,,,,,,,,2,,,57,101
75390,note_on,0,0,3,,,,,,,,,2,,,60,101
75390,note_on,120,0,1,,,,,,,,,0,,,72,0
75390,note_on,0,0,1,,,,,,,,,0,,,64,0
75390,note_on,0,0,1,,,,,,,,,0,,,65,114
75390,note_on,0,0,1,,,,,,,,,0,,,69,114
75390,note_on,0,0,1,,,,,,,,,0,,,72,114
75390,note_on,0,0,1,,,,,,,,,0,,,77,114
75390,note_on,108,0,3,,,,,,,,,2,,,53,101
75570,note_on,180,0,1,,,,,,,,,0,,,77,0
75570,note_on,0,0,1,,,,,,,,,0,,,65,0
75570,note_on,0,0,1,,,,,,,,,0,,,69,0
75570,note_on,0,0,1,,,,,,,,,0,,,72,0
75570,note_on,0,0,1,,,,,,,,,0,,,65,75
75570,note_on,0,0,1,,,,,,,,,0,,,72,75
75570,note_on,0,0,1,,,,,,,,,0,,,75,75
75570,note_on,0,0,3,,,,,,,,,2,,,53,0
75570,note_on,0,0,3,,,,,,,,,2,,,57,0
75570,note_on,180,0,3,,,,,,,,,2,,,60,0
75570,note_on,0,0,1,,,,,,,,,0,,,69,75
75630,note_on,60,0,1,,,,,,,,,0,,,75,0
75630,note_on,0,0,1,,,,,,,,,0,,,65,0
75630,note_on,0,0,1,,,,,,,,,0,,,72,0
75630,note_on,0,0,1,,,,,,,,,0,,,65,75
75630,note_on,0,0,1,,,,,,,,,0,,,69,75
75630,note_on,0,0,1,,,,,,,,,0,,,72,75
75630,note_on,0,0,1,,,,,,,,,0,,,75,75
75630,note_on,0,0,1,,,,,,,,,0,,,69,0
75690,note_on,0,0,1,,,,,,,,,0,,,72,75
75690,note_on,60,0,1,,,,,,,,,0,,,75,0
75690,note_on,0,0,1,,,,,,,,,0,,,65,0
75690,note_on,0,0,1,,,,,,,,,0,,,75,75
75690,note_on,0,0,1,,,,,,,,,0,,,69,75
75690,note_on,0,0,1,,,,,,,,,0,,,65,75
75690,note_on,0,0,1,,,,,,,,,0,,,72,0
75690,note_on,0,0,1,,,,,,,,,0,,,69,0
75750,note_on,0,0,1,,,,,,,,,0,,,72,0
75750,note_on,0,0,1,,,,,,,,,0,,,65,0
75750,note_on,60,0,1,,,,,,,,,0,,,75,0
75750,note_on,180,0,3,,,,,,,,,2,,,41,62
75750,note_on,0,0,1,,,,,,,,,0,,,69,75
75750,note_on,0,0,1,,,,,,,,,0,,,69,0
75750,note_on,0,0,1,,,,,,,,,0,,,72,75
75750,note_on,0,0,1,,,,,,,,,0,,,75,75
75750,note_on,0,0,3,,,,,,,,,2,,,53,62
75750,note_on,0,0,1,,,,,,,,,0,,,65,75
75870,note_on,120,0,3,,,,,,,,,2,,,53,0
75870,note_on,0,0,3,,,,,,,,,2,,,41,0
75870,note_on,0,0,3,,,,,,,,,2,,,53,62
75870,note_on,0,0,3,,,,,,,,,2,,,57,62
75870,note_on,0,0,3,,,,,,,,,2,,,60,62
75870,note_on,0,0,1,,,,,,,,,0,,,75,75
75870,note_on,0,0,1,,,,,,,,,0,,,65,0
75870,note_on,120,0,1,,,,,,,,,0,,,75,0
75870,note_on,0,0,1,,,,,,,,,0,,,69,0
75870,note_on,0,0,1,,,,,,,,,0,,,72,0
75870,note_on,0,0,1,,,,,,,,,0,,,65,75
75870,note_on,0,0,1,,,,,,,,,0,,,69,75
75870,note_on,0,0,1,,,,,,,,,0,,,72,75
75882,note_on,0,0,3,,,,,,,,,2,,,53,0
75882,note_on,0,0,3,,,,,,,,,2,,,57,0
75882,note_on,12,0,3,,,,,,,,,2,,,60,0
75990,note_on,0,0,1,,,,,,,,,0,,,72,75
75990,note_on,0,0,1,,,,,,,,,0,,,70,75
75990,note_on,0,0,1,,,,,,,,,0,,,64,75
75990,note_on,0,0,1,,,,,,,,,0,,,72,0
75990,note_on,0,0,1,,,,,,,,,0,,,69,0
75990,note_on,0,0,1,,,,,,,,,0,,,65,0
75990,note_on,120,0,1,,,,,,,,,0,,,75,0
75990,note_on,108,0,3,,,,,,,,,2,,,55,62
75990,note_on,0,0,3,,,,,,,,,2,,,58,62
75990,note_on,0,0,3,,,,,,,,,2,,,60,62
76002,note_on,12,0,3,,,,,,,,,2,,,60,0
76002,note_on,0,0,3,,,,,,,,,2,,,58,0
76002,note_on,0,0,3,,,,,,,,,2,,,55,0
76110,note_on,0,0,3,,,,,,,,,2,,,57,101
76110,note_on,0,0,1,,,,,,,,,0,,,72,114
76110,note_on,0,0,1,,,,,,,,,0,,,65,114
76110,note_on,120,0,1,,,,,,,,,0,,,72,0
76110,note_on,0,0,1,,,,,,,,,0,,,70,0
76110,note_on,0,0,1,,,,,,,,,0,,,64,0
76110,note_on,0,0,3,,,,,,,,,2,,,60,101
76110,note_on,108,0,3,,,,,,,,,2,,,53,101
76110,note_on,0,0,1,,,,,,,,,0,,,77,114
76110,note_on,0,0,1,,,,,,,,,0,,,69,114
76290,note_on,180,0,3,,,,,,,,,2,,,60,0
76290,note_on,180,0,1,,,,,,,,,0,,,77,0
76290,note_on,0,0,3,,,,,,,,,2,,,53,0
76290,note_on,0,0,3,,,,,,,,,2,,,57,0
76290,note_on,0,0,1,,,,,,,,,0,,,69,0
76290,note_on,0,0,1,,,,,,,,,0,,,72,0
76290,note_on,0,0,1,,,,,,,,,0,,,65,75
76290,note_on,0,0,1,,,,,,,,,0,,,77,75
76290,note_on,0,0,1,,,,,,,,,0,,,65,0
76350,note_on,60,0,1,,,,,,,,,0,,,77,0
76350,note_on,0,0,1,,,,,,,,,0,,,65,0
76350,note_on,0,0,1,,,,,,,,,0,,,65,75
76350,note_on,0,0,1,,,,,,,,,0,,,77,75
76410,note_on,60,0,1,,,,,,,,,0,,,77,0
76410,note_on,0,0,1,,,,,,,,,0,,,65,0
76410,note_on,0,0,1,,,,,,,,,0,,,65,75
76410,note_on,0,0,1,,,,,,,,,0,,,77,75
76470,note_on,60,0,1,,,,,,,,,0,,,77,0
76470,note_on,0,0,1,,,,,,,,,0,,,65,0
76470,note_on,0,0,1,,,,,,,,,0,,,65,75
76470,note_on,0,0,1,,,,,,,,,0,,,77,75
76470,note_on,180,0,3,,,,,,,,,2,,,46,62
76590,note_on,120,0,1,,,,,,,,,0,,,77,0
76590,note_on,0,0,1,,,,,,,,,0,,,65,0
76590,note_on,0,0,1,,,,,,,,,0,,,65,75
76590,note_on,0,0,1,,,,,,,,,0,,,77,75
76590,note_on,120,0,3,,,,,,,,,2,,,46,0
76590,note_on,0,0,3,,,,,,,,,2,,,53,62
76590,note_on,0,0,3,,,,,,,,,2,,,62,62
76590,note_on,0,0,3,,,,,,,,,2,,,58,62
76602,note_on,12,0,3,,,,,,,,,2,,,62,0
76602,note_on,0,0,3,,,,,,,,,2,,,58,0
76602,note_on,0,0,3,,,,,,,,,2,,,53,0
76710,note_on,0,0,1,,,,,,,,,0,,,70,93
76710,note_on,0,0,1,,,,,,,,,0,,,82,101
76710,note_on,0,0,1,,,,,,,,,0,,,65,0
76710,note_on,0,0,3,,,,,,,,,2,,,62,62
76710,note_on,108,0,3,,,,,,,,,2,,,53,62
76710,note_on,0,0,3,,,,,,,,,2,,,58,62
76710,note_on,120,0,1,,,,,,,,,0,,,77,0
76722,note_on,12,0,3,,,,,,,,,2,,,62,0
76722,note_on,0,0,3,,,,,,,,,2,,,58,0
76722,note_on,0,0,3,,,,,,,,,2,,,53,0
76830,note_on,120,0,1,,,,,,,,,0,,,82,0
76830,note_on,0,0,1,,,,,,,,,0,,,70,0
76830,note_on,0,0,1,,,,,,,,,0,,,77,75
76830,note_on,108,0,3,,,,,,,,,2,,,46,62
76830,note_on,0,0,1,,,,,,,,,0,,,65,75
76950,note_on,0,0,1,,,,,,,,,0,,,65,75
76950,note_on,0,0,3,,,,,,,,,2,,,62,62
76950,note_on,0,0,3,,,,,,,,,2,,,58,62
76950,note_on,0,0,3,,,,,,,,,2,,,53,62
76950,note_on,120,0,1,,,,,,,,,0,,,77,0
76950,note_on,0,0,1,,,,,,,,,0,,,77,75
76950,note_on,120,0,3,,,,,,,,,2,,,46,0
76950,note_on,0,0,1,,,,,,,,,0,,,65,0
76962,note_on,0,0,3,,,,,,,,,2,,,58,0
76962,note_on,0,0,3,,,,,,,,,2,,,53,0
76962,note_on,12,0,3,,,,,,,,,2,,,62,0
77070,note_on,0,0,1,,,,,,,,,0,,,86,101
77070,note_on,0,0,1,,,,,,,,,0,,,74,93
77070,note_on,0,0,1,,,,,,,,,0,,,65,0
77070,note_on,0,0,3,,,,,,,,,2,,,62,62
77070,note_on,0,0,3,,,,,,,,,2,,,58,62
77070,note_on,108,0,3,,,,,,,,,2,,,53,62
77070,note_on,120,0,1,,,,,,,,,0,,,77,0
77082,note_on,12,0,3,,,,,,,,,2,,,62,0
77082,note_on,0,0,3,,,,,,,,,2,,,58,0
77082,note_on,0,0,3,,,,,,,,,2,,,53,0
77190,note_on,120,0,1,,,,,,,,,0,,,86,0
77190,note_on,108,0,3,,,,,,,,,2,,,41,62
77190,note_on,0,0,1,,,,,,,,,0,,,72,75
77190,note_on,0,0,1,,,,,,,,,0,,,74,0
77190,note_on,0,0,1,,,,,,,,,0,,,84,75
77310,note_on,0,0,1,,,,,,,,,0,,,84,75
77310,note_on,120,0,1,,,,,,,,,0,,,84,0
77310,note_on,0,0,1,,,,,,,,,0,,,72,0
77310,note_on,120,0,3,,,,,,,,,2,,,41,0
77310,note_on,0,0,3,,,,,,,,,2,,,53,62
77310,note_on,0,0,3,,,,,,,,,2,,,57,62
77310,note_on,0,0,3,,,,,,,,,2,,,60,62
77310,note_on,0,0,3,,,,,,,,,2,,,63,62
77310,note_on,0,0,1,,,,,,,,,0,,,72,75
77322,note_on,0,0,3,,,,,,,,,2,,,60,0
77322,note_on,12,0,3,,,,,,,,,2,,,63,0
77322,note_on,0,0,3,,,,,,,,,2,,,53,0
77322,note_on,0,0,3,,,,,,,,,2,,,57,0
77430,note_on,0,0,3,,,,,,,,,2,,,57,62
77430,note_on,0,0,3,,,,,,,,,2,,,60,62
77430,note_on,108,0,3,,,,,,,,,2,,,53,62
77430,note_on,0,0,1,,,,,,,,,0,,,89,101
77430,note_on,0,0,1,,,,,,,,,0,,,77,93
77430,note_on,120,0,1,,,,,,,,,0,,,84,0
77430,note_on,0,0,1,,,,,,,,,0,,,72,0
77430,note_on,0,0,3,,,,,,,,,2,,,63,62
77442,note_on,0,0,3,,,,,,,,,2,,,53,0
77442,note_on,12,0,3,,,,,,,,,2,,,63,0
77442,note_on,0,0,3,,,,,,,,,2,,,57,0
77442,note_on,0,0,3,,,,,,,,,2,,,60,0
77550,time_signature,2520,1,0,3,8,12,8,,,,,,,,,
77550,note_on,120,0,1,,,,,,,,,0,,,89,0
77550,note_on,0,0,1,,,,,,,,,0,,,77,0
77550,note_on,0,0,1,,,,,,,,,0,,,70,75
77550,note_on,0,0,1,,,,,,,,,0,,,82,75
77550,note_on,108,0,3,,,,,,,,,2,,,46,62
77670,note_on,120,0,3,,,,,,,,,2,,,46,0
77670,note_on,0,0,3,,,,,,,,,2,,,62,62
77670,note_on,0,0,3,,,,,,,,,2,,,58,62
77670,note_on,0,0,3,,,,,,,,,2,,,53,62
77730,note_on,180,0,1,,,,,,,,,0,,,82,0
77730,note_on,0,0,1,,,,,,,,,0,,,69,75
77730,note_on,0,0,1,,,,,,,,,0,,,72,75
77730,note_on,0,0,1,,,,,,,,,0,,,75,75
77730,note_on,60,0,3,,,,,,,,,2,,,62,0
77730,note_on,0,0,3,,,,,,,,,2,,,58,0
77730,note_on,0,0,3,,,,,,,,,2,,,53,0
77730,note_on,0,0,1,,,,,,,,,0,,,70,0
77730,note_on,0,0,1,,,,,,,,,0,,,65,75
77790,note_on,60,0,1,,,,,,,,,0,,,75,0
77790,note_on,0,0,1,,,,,,,,,0,,,65,0
77790,note_on,0,0,1,,,,,,,,,0,,,72,75
77790,note_on,0,0,1,,,,,,,,,0,,,72,0
77790,note_on,0,0,1,,,,,,,,,0,,,65,75
77790,note_on,0,0,1,,,,,,,,,0,,,69,75
77790,note_on,0,0,1,,,,,,,,,0,,,75,75
77790,note_on,0,0,1,,,,,,,,,0,,,69,0
77850,note_on,0,0,1,,,,,,,,,0,,,75,75
77850,note_on,0,0,1,,,,,,,,,0,,,72,75
77850,note_on,0,0,1,,,,,,,,,0,,,69,75
77850,note_on,0,0,1,,,,,,,,,0,,,65,75
77850,note_on,0,0,1,,,,,,,,,0,,,72,0
77850,note_on,0,0,1,,,,,,,,,0,,,69,0
77850,note_on,0,0,1,,,,,,,,,0,,,65,0
77850,note_on,60,0,1,,,,,,,,,0,,,75,0
77910,time_signature,360,1,0,3,4,24,8,,,,,,,,,
77910,note_on,0,0,3,,,,,,,,,2,,,53,62
77910,note_on,180,0,3,,,,,,,,,2,,,41,62
77910,note_on,0,0,1,,,,,,,,,0,,,75,75
77910,note_on,0,0,1,,,,,,,,,0,,,72,75
77910,note_on,0,0,1,,,,,,,,,0,,,69,0
77910,note_on,0,0,1,,,,,,,,,0,,,65,75
77910,note_on,0,0,1,,,,,,,,,0,,,72,0
77910,note_on,0,0,1,,,,,,,,,0,,,65,0
77910,note_on,60,0,1,,,,,,,,,0,,,75,0
77910,note_on,0,0,1,,,,,,,,,0,,,69,75
78030,note_on,120,0,3,,,,,,,,,2,,,53,0
78030,note_on,0,0,3,,,,,,,,,2,,,41,0
78030,note_on,0,0,3,,,,,,,,,2,,,53,62
78030,note_on,0,0,3,,,,,,,,,2,,,57,62
78030,note_on,0,0,3,,,,,,,,,2,,,60,62
78030,note_on,0,0,1,,,,,,,,,0,,,65,75
78030,note_on,0,0,1,,,,,,,,,0,,,72,0
78030,note_on,0,0,1,,,,,,,,,0,,,72,75
78030,note_on,0,0,1,,,,,,,,,0,,,69,0
78030,note_on,0,0,1,,,,,,,,,0,,,75,75
78030,note_on,0,0,1,,,,,,,,,0,,,65,0
78030,note_on,0,0,1,,,,,,,,,0,,,69,75
78030,note_on,120,0,1,,,,,,,,,0,,,75,0
78042,note_on,0,0,3,,,,,,,,,2,,,53,0
78042,note_on,0,0,3,,,,,,,,,2,,,57,0
78042,note_on,12,0,3,,,,,,,,,2,,,60,0
78150,note_on,0,0,1,,,,,,,,,0,,,70,75
78150,note_on,0,0,1,,,,,,,,,0,,,72,75
78150,note_on,0,0,1,,,,,,,,,0,,,72,0
78150,note_on,0,0,1,,,,,,,,,0,,,69,0
78150,note_on,0,0,1,,,,,,,,,0,,,65,0
78150,note_on,0,0,3,,,,,,,,,2,,,60,62
78150,note_on,0,0,3,,,,,,,,,2,,,58,62
78150,note_on,108,0,3,,,,,,,,,2,,,55,62
78150,note_on,120,0,1,,,,,,,,,0,,,75,0
78150,note_on,0,0,1,,,,,,,,,0,,,64,75
78162,note_on,0,0,3,,,,,,,,,2,,,55,0
78162,note_on,0,0,3,,,,,,,,,2,,,58,0
78162,note_on,12,0,3,,,,,,,,,2,,,60,0
78270,note_on,0,0,3,,,,,,,,,2,,,60,101
78270,note_on,108,0,3,,,,,,,,,2,,,53,101
78270,note_on,0,0,3,,,,,,,,,2,,,57,101
78270,note_on,0,0,1,,,,,,,,,0,,,77,114
78270,note_on,120,0,1,,,,,,,,,0,,,72,0
78270,note_on,0,0,1,,,,,,,,,0,,,64,0
78270,note_on,0,0,1,,,,,,,,,0,,,65,114
78270,note_on,0,0,1,,,,,,,,,0,,,69,114
78270,note_on,0,0,1,,,,,,,,,0,,,72,114
78270,note_on,0,0,1,,,,,,,,,0,,,70,0
78450,note_on,0,0,3,,,,,,,,,2,,,57,0
78450,note_on,0,0,3,,,,,,,,,2,,,53,0
78450,note_on,180,0,3,,,,,,,,,2,,,60,0
78450,note_on,0,0,1,,,,,,,,,0,,,65,0
78450,note_on,0,0,1,,,,,,,,,0,,,65,75
78450,note_on,0,0,1,,,,,,,,,0,,,69,75
78450,note_on,0,0,1,,,,,,,,,0,,,72,75
78450,note_on,0,0,1,,,,,,,,,0,,,75,75
78450,note_on,180,0,1,,,,,,,,,0,,,77,0
78450,note_on,0,0,1,,,,,,,,,0,,,69,0
78450,note_on,0,0,1,,,,,,,,,0,,,72,0
78510,note_on,0,0,1,,,,,,,,,0,,,69,0
78510,note_on,0,0,1,,,,,,,,,0,,,65,0
78510,note_on,0,0,1,,,,,,,,,0,,,75,75
78510,note_on,60,0,1,,,,,,,,,0,,,75,0
78510,note_on,0,0,1,,,,,,,,,0,,,72,0
78510,note_on,0,0,1,,,,,,,,,0,,,65,75
78510,note_on,0,0,1,,,,,,,,,0,,,69,75
78510,note_on,0,0,1,,,,,,,,,0,,,72,75
78570,note_on,60,0,1,,,,,,,,,0,,,75,0
78570,note_on,0,0,1,,,,,,,,,0,,,75,75
78570,note_on,0,0,1,,,,,,,,,0,,,72,75
78570,note_on,0,0,1,,,,,,,,,0,,,69,75
78570,note_on,0,0,1,,,,,,,,,0,,,72,0
78570,note_on,0,0,1,,,,,,,,,0,,,69,0
78570,note_on,0,0,1,,,,,,,,,0,,,65,0
78570,note_on,0,0,1,,,,,,,,,0,,,65,75
78630,note_on,0,0,1,,,,,,,,,0,,,72,0
78630,note_on,0,0,1,,,,,,,,,0,,,75,75
78630,note_on,0,0,1,,,,,,,,,0,,,72,75
78630,note_on,0,0,1,,,,,,,,,0,,,69,75
78630,note_on,0,0,1,,,,,,,,,0,,,65,75
78630,note_on,0,0,1,,,,,,,,,0,,,69,0
78630,note_on,60,0,1,,,,,,,,,0,,,75,0
78630,note_on,180,0,3,,,,,,,,,2,,,41,62
78630,note_on,0,0,3,,,,,,,,,2,,,53,62
78630,note_on,0,0,1,,,,,,,,,0,,,65,0
78750,note_on,0,0,1,,,,,,,,,0,,,72,75
78750,note_on,0,0,3,,,,,,,,,2,,,41,0
78750,note_on,0,0,3,,,,,,,,,2,,,53,62
78750,note_on,0,0,1,,,,,,,,,0,,,69,75
78750,note_on,0,0,3,,,,,,,,,2,,,57,62
78750,note_on,0,0,1,,,,,,,,,0,,,75,75
78750,note_on,0,0,3,,,,,,,,,2,,,60,62
78750,note_on,0,0,1,,,,,,,,,0,,,65,75
78750,note_on,120,0,3,,,,,,,,,2,,,53,0
78750,note_on,0,0,1,,,,,,,,,0,,,72,0
78750,note_on,120,0,1,,,,,,,,,0,,,75,0
78750,note_on,0,0,1,,,,,,,,,0,,,65,0
78750,note_on,0,0,1,,,,,,,,,0,,,69,0
78762,note_on,0,0,3,,,,,,,,,2,,,57,0
78762,note_on,12,0,3,,,,,,,,,2,,,60,0
78762,note_on,0,0,3,,,,,,,,,2,,,53,0
78870,note_on,0,0,1,,,,,,,,,0,,,65,0
78870,note_on,0,0,3,,,,,,,,,2,,,60,62
78870,note_on,120,0,1,,,,,,,,,0,,,75,0
78870,note_on,0,0,3,,,,,,,,,2,,,58,62
78870,note_on,108,0,3,,,,,,,,,2,,,55,62
78870,note_on,0,0,1,,,,,,,,,0,,,69,0
78870,note_on,0,0,1,,,,,,,,,0,,,72,0
78870,note_on,0,0,1,,,,,,,,,0,,,72,75
78870,note_on,0,0,1,,,,,,,,,0,,,64,75
78870,note_on,0,0,1,,,,,,,,,0,,,70,75
78882,note_on,0,0,3,,,,,,,,,2,,,55,0
78882,note_on,0,0,3,,,,,,,,,2,,,58,0
78882,note_on,12,0,3,,,,,,,,,2,,,60,0
78990,note_on,0,0,1,,,,,,,,,0,,,72,114
78990,note_on,0,0,1,,,,,,,,,0,,,77,114
78990,note_on,0,0,1,,,,,,,,,0,,,69,114
78990,note_on,0,0,1,,,,,,,,,0,,,65,114
78990,note_on,0,0,1,,,,,,,,,0,,,64,0
78990,note_on,0,0,1,,,,,,,,,0,,,70,0
78990,note_on,120,0,1,,,,,,,,,0,,,72,0
78990,note_on,0,0,3,,,,,,,,,2,,,57,101
78990,note_on,0,0,3,,,,,,,,,2,,,60,101
78990,note_on,108,0,3,,,,,,,,,2,,,53,101
79170,note_on,180,0,3,,,,,,,,,2,,,60,0
79170,note_on,0,0,3,,,,,,,,,2,,,57,0
79170,note_on,0,0,3,,,,,,,,,2,,,53,0
79170,note_on,180,0,1,,,,,,,,,0,,,77,0
79170,note_on,0,0,1,,,,,,,,,0,,,65,0
79170,note_on,0,0,1,,,,,,,,,0,,,69,0
79170,note_on,0,0,1,,,,,,,,,0,,,72,0
79170,note_on,0,0,1,,,,,,,,,0,,,65,75
79170,note_on,0,0,1,,,,,,,,,0,,,77,75
79230,note_on,0,0,1,,,,,,,,,0,,,65,75
79230,note_on,60,0,1,,,,,,,,,0,,,77,0
79230,note_on,0,0,1,,,,,,,,,0,,,77,75
79230,note_on,0,0,1,,,,,,,,,0,,,65,0
79290,note_on,0,0,1,,,,,,,,,0,,,65,0
79290,note_on,0,0,1,,,,,,,,,0,,,65,75
79290,note_on,0,0,1,,,,,,,,,0,,,77,75
79290,note_on,60,0,1,,,,,,,,,0,,,77,0
79350,note_on,180,0,3,,,,,,,,,2,,,46,62
79350,note_on,0,0,1,,,,,,,,,0,,,77,75
79350,note_on,60,0,1,,,,,,,,,0,,,77,0
79350,note_on,0,0,1,,,,,,,,,0,,,65,75
79350,note_on,0,0,1,,,,,,,,,0,,,65,0
79470,note_on,0,0,1,,,,,,,,,0,,,77,75
79470,note_on,120,0,1,,,,,,,,,0,,,77,0
79470,note_on,0,0,1,,,,,,,,,0,,,65,0
79470,note_on,0,0,1,,,,,,,,,0,,,65,75
79470,note_on,0,0,3,,,,,,,,,2,,,62,62
79470,note_on,0,0,3,,,,,,,,,2,,,58,62
79470,note_on,0,0,3,,,,,,,,,2,,,53,62
79470,note_on,120,0,3,,,,,,,,,2,,,46,0
79482,note_on,0,0,3,,,,,,,,,2,,,58,0
79482,note_on,0,0,3,,,,,,,,,2,,,53,0
79482,note_on,12,0,3,,,,,,,,,2,,,62,0
79590,note_on,0,0,1,,,,,,,,,0,,,70,93
79590,note_on,0,0,1,,,,,,,,,0,,,65,0
79590,note_on,108,0,3,,,,,,,,,2,,,53,62
79590,note_on,0,0,1,,,,,,,,,0,,,82,101
79590,note_on,0,0,3,,,,,,,,,2,,,62,62
79590,note_on,120,0,1,,,,,,,,,0,,,77,0
79590,note_on,0,0,3,,,,,,,,,2,,,58,62
79602,note_on,0,0,3,,,,,,,,,2,,,58,0
79602,note_on,0,0,3,,,,,,,,,2,,,53,0
79602,note_on,12,0,3,,,,,,,,,2,,,62,0
79710,note_on,120,0,1,,,,,,,,,0,,,82,0
79710,note_on,0,0,1,,,,,,,,,0,,,77,75
79710,note_on,108,0,3,,,,,,,,,2,,,46,62
79710,note_on,0,0,1,,,,,,,,,0,,,70,0
79710,note_on,0,0,1,,,,,,,,,0,,,65,75
79830,note_on,0,0,3,,,,,,,,,2,,,62,62
79830,note_on,120,0,3,,,,,,,,,2,,,46,0
79830,note_on,0,0,3,,,,,,,,,2,,,58,62
79830,note_on,0,0,3,,,,,,,,,2,,,53,62
79830,note_on,120,0,1,,,,,,,,,0,,,77,0
79830,note_on,0,0,1,,,,,,,,,0,,,77,75
79830,note_on,0,0,1,,,,,,,,,0,,,65,75
79830,note_on,0,0,1,,,,,,,,,0,,,65,0
79842,note_on,12,0,3,,,,,,,,,2,,,62,0
79842,note_on,0,0,3,,,,,,,,,2,,,58,0
79842,note_on,0,0,3,,,,,,,,,2,,,53,0
79950,note_on,0,0,1,,,,,,,,,0,,,65,0
79950,note_on,108,0,3,,,,,,,,,2,,,53,62
79950,note_on,0,0,3,,,,,,,,,2,,,58,62
79950,note_on,0,0,3,,,,,,,,,2,,,62,62
79950,note_on,0,0,1,,,,,,,,,0,,,86,101
79950,note_on,0,0,1,,,,,,,,,0,,,74,93
79950,note_on,120,0,1,,,,,,,,,0,,,77,0
79962,note_on,12,0,3,,,,,,,,,2,,,62,0
79962,note_on,0,0,3,,,,,,,,,2,,,53,0
79962,note_on,0,0,3,,,,,,,,,2,,,58,0
80070,note_on,120,0,1,,,,,,,,,0,,,86,0
80070,note_on,108,0,3,,,,,,,,,2,,,41,62
80070,note_on,0,0,1,,,,,,,,,0,,,84,75
80070,note_on,0,0,1,,,,,,,,,0,,,72,75
80070,note_on,0,0,1,,,,,,,,,0,,,74,0
80190,note_on,120,0,3,,,,,,,,,2,,,41,0
80190,note_on,0,0,3,,,,,,,,,2,,,53,62
80190,note_on,0,0,3,,,,,,,,,2,,,57,62
80190,note_on,0,0,3,,,,,,,,,2,,,60,62
80190,note_on,0,0,1,,,,,,,,,0,,,84,75
80190,note_on,0,0,1,,,,,,,,,0,,,72,75
80190,note_on,120,0,1,,,,,,,,,0,,,84,0
80190,note_on,0,0,3,,,,,,,,,2,,,63,62
80190,note_on,0,0,1,,,,,,,,,0,,,72,0
80202,note_on,12,0,3,,,,,,,,,2,,,63,0
80202,note_on,0,0,3,,,,,,,,,2,,,53,0
80202,note_on,0,0,3,,,,,,,,,2,,,60,0
80202,note_on,0,0,3,,,,,,,,,2,,,57,0
80310,note_on,0,0,3,,,,,,,,,2,,,63,62
80310,note_on,0,0,3,,,,,,,,,2,,,57,62
80310,note_on,120,0,1,,,,,,,,,0,,,84,0
80310,note_on,0,0,1,,,,,,,,,0,,,72,0
80310,note_on,0,0,3,,,,,,,,,2,,,60,62
80310,note_on,0,0,1,,,,,,,,,0,,,77,93
80310,note_on,0,0,1,,,,,,,,,0,,,89,101
80310,note_on,108,0,3,,,,,,,,,2,,,53,62
80322,note_on,0,0,3,,,,,,,,,2,,,60,0
80322,note_on,0,0,3,,,,,,,,,2,,,57,0
80322,note_on,0,0,3,,,,,,,,,2,,,53,0
80322,note_on,12,0,3,,,,,,,,,2,,,63,0
80430,time_signature,2520,1,0,3,8,12,8,,,,,,,,,
80430,note_on,0,0,1,,,,,,,,,0,,,70,75
80430,note_on,0,0,1,,,,,,,,,0,,,77,0
80430,note_on,0,0,1,,,,,,,,,0,,,82,75
80430,note_on,108,0,3,,,,,,,,,2,,,46,62
80430,note_on,120,0,1,,,,,,,,,0,,,89,0
80550,note_on,120,0,3,,,,,,,,,2,,,46,0
80550,note_on,0,0,3,,,,,,,,,2,,,53,62
80550,note_on,0,0,3,,,,,,,,,2,,,58,62
80550,note_on,0,0,3,,,,,,,,,2,,,62,62
80610,note_on,0,0,3,,,,,,,,,2,,,58,0
80610,note_on,60,0,3,,,,,,,,,2,,,62,0
80610,note_on,180,0,1,,,,,,,,,0,,,82,0
80610,note_on,0,0,1,,,,,,,,,0,,,70,0
80610,note_on,0,0,1,,,,,,,,,0,,,86,49
80610,note_on,0,0,3,,,,,,,,,2,,,53,0
80670,note_on,60,0,1,,,,,,,,,0,,,86,0
80670,note_on,0,0,1,,,,,,,,,0,,,82,49
80730,note_on,60,0,1,,,,,,,,,0,,,82,0
80730,note_on,0,0,1,,,,,,,,,0,,,81,49
80760,note_on,30,0,1,,,,,,,,,0,,,79,49
80775,note_on,15,0,1,,,,,,,,,0,,,79,0
80775,note_on,0,0,1,,,,,,,,,0,,,81,49
80790,time_signature,360,1,0,3,4,24,8,,,,,,,,,
80790,note_on,15,0,1,,,,,,,,,0,,,81,0
80790,note_on,0,0,1,,,,,,,,,0,,,81,0
80790,note_on,0,0,1,,,,,,,,,0,,,79,49
80790,note_on,180,0,3,,,,,,,,,2,,,43,36
80850,note_on,0,0,1,,,,,,,,,0,,,78,49
80850,note_on,60,0,1,,,,,,,,,0,,,79,0
80910,note_on,120,0,3,,,,,,,,,2,,,43,0
80910,note_on,0,0,1,,,,,,,,,0,,,79,49
80910,note_on,60,0,1,,,,,,,,,0,,,78,0
80910,note_on,0,0,3,,,,,,,,,2,,,58,36
80910,note_on,0,0,3,,,,,,,,,2,,,62,36
80910,note_on,0,0,3,,,,,,,,,2,,,55,36
80922,note_on,0,0,3,,,,,,,,,2,,,58,0
80922,note_on,0,0,3,,,,,,,,,2,,,55,0
80922,note_on,12,0,3,,,,,,,,,2,,,62,0
80970,note_on,60,0,1,,,,,,,,,0,,,79,0
80970,note_on,0,0,1,,,,,,,,,0,,,82,49
81030,note_on,0,0,1,,,,,,,,,0,,,81,49
81030,note_on,108,0,3,,,,,,,,,2,,,55,36
81030,note_on,0,0,3,,,,,,,,,2,,,58,36
81030,note_on,60,0,1,,,,,,,,,0,,,82,0
81030,note_on,0,0,3,,,,,,,,,2,,,62,36
81042,note_on,0,0,3,,,,,,,,,2,,,58,0
81042,note_on,0,0,3,,,,,,,,,2,,,55,0
81042,note_on,12,0,3,,,,,,,,,2,,,62,0
81090,note_on,60,0,1,,,,,,,,,0,,,81,0
81090,note_on,0,0,1,,,,,,,,,0,,,79,49
81120,note_on,30,0,1,,,,,,,,,0,,,77,49
81135,note_on,15,0,1,,,,,,,,,0,,,77,0
81135,note_on,0,0,1,,,,,,,,,0,,,79,49
81150,note_on,15,0,1,,,,,,,,,0,,,79,0
81150,note_on,0,0,1,,,,,,,,,0,,,79,0
81150,note_on,0,0,1,,,,,,,,,0,,,77,49
81150,note_on,108,0,3,,,,,,,,,2,,,45,36
81210,note_on,60,0,1,,,,,,,,,0,,,77,0
81210,note_on,0,0,1,,,,,,,,,0,,,76,49
81270,note_on,120,0,3,,,,,,,,,2,,,45,0
81270,note_on,0,0,3,,,,,,,,,2,,,65,36
81270,note_on,0,0,3,,,,,,,,,2,,,57,36
81270,note_on,0,0,3,,,,,,,,,2,,,62,36
81270,note_on,0,0,1,,,,,,,,,0,,,77,49
81270,note_on,60,0,1,,,,,,,,,0,,,76,0
81282,note_on,12,0,3,,,,,,,,,2,,,65,0
81282,note_on,0,0,3,,,,,,,,,2,,,62,0
81282,note_on,0,0,3,,,,,,,,,2,,,57,0
81330,note_on,60,0,1,,,,,,,,,0,,,77,0
81330,note_on,0,0,1,,,,,,,,,0,,,81,49
81390,note_on,108,0,3,,,,,,,,,2,,,57,36
81390,note_on,0,0,3,,,,,,,,,2,,,62,36
81390,note_on,60,0,1,,,,,,,,,0,,,81,0
81390,note_on,0,0,1,,,,,,,,,0,,,79,49
81390,note_on,0,0,3,,,,,,,,,2,,,65,36
81402,note_on,0,0,3,,,,,,,,,2,,,62,0
81402,note_on,0,0,3,,,,,,,,,2,,,57,0
81402,note_on,12,0,3,,,,,,,,,2,,,65,0
81450,note_on,60,0,1,,,,,,,,,0,,,79,0
81450,note_on,0,0,1,,,,,,,,,0,,,77,49
81510,note_on,60,0,1,,,,,,,,,0,,,77,0
81510,note_on,0,0,1,,,,,,,,,0,,,76,49
81510,note_on,108,0,3,,,,,,,,,2,,,45,36
81570,note_on,0,0,1,,,,,,,,,0,,,81,49
81570,note_on,60,0,1,,,,,,,,,0,,,76,0
81630,note_on,120,0,3,,,,,,,,,2,,,45,0
81630,note_on,0,0,3,,,,,,,,,2,,,57,36
81630,note_on,0,0,3,,,,,,,,,2,,,61,36
81630,note_on,0,0,3,,,,,,,,,2,,,67,36
81630,note_on,0,0,1,,,,,,,,,0,,,76,49
81630,note_on,60,0,1,,,,,,,,,0,,,81,0
81642,note_on,12,0,3,,,,,,,,,2,,,67,0
81642,note_on,0,0,3,,,,,,,,,2,,,61,0
81642,note_on,0,0,3,,,,,,,,,2,,,57,0
81690,note_on,60,0,1,,,,,,,,,0,,,76,0
81690,note_on,0,0,1,,,,,,,,,0,,,85,49
81750,note_on,0,0,3,,,,,,,,,2,,,67,36
81750,note_on,0,0,3,,,,,,,,,2,,,61,36
81750,note_on,108,0,3,,,,,,,,,2,,,57,36
81750,note_on,0,0,1,,,,,,,,,0,,,81,49
81750,note_on,60,0,1,,,,,,,,,0,,,85,0
81762,note_on,0,0,3,,,,,,,,,2,,,61,0
81762,note_on,12,0,3,,,,,,,,,2,,,67,0
81762,note_on,0,0,3,,,,,,,,,2,,,57,0
81810,note_on,0,0,1,,,,,,,,,0,,,88,49
81810,note_on,60,0,1,,,,,,,,,0,,,81,0
81870,note_on,108,0,3,,,,,,,,,2,,,50,36
81870,note_on,0,0,1,,,,,,,,,0,,,86,49
81870,note_on,60,0,1,,,,,,,,,0,,,88,0
81990,note_on,0,0,3,,,,,,,,,2,,,57,36
81990,note_on,0,0,3,,,,,,,,,2,,,62,36
81990,note_on,120,0,3,,,,,,,,,2,,,50,0
81990,note_on,0,0,3,,,,,,,,,2,,,65,36
82002,note_on,0,0,3,,,,,,,,,2,,,62,0
82002,note_on,0,0,3,,,,,,,,,2,,,57,0
82002,note_on,12,0,3,,,,,,,,,2,,,65,0
82050,note_on,0,0,1,,,,,,,,,0,,,93,49
82050,note_on,180,0,1,,,,,,,,,0,,,86,0
82110,note_on,60,0,1,,,,,,,,,0,,,93,0
82110,note_on,0,0,3,,,,,,,,,2,,,65,36
82110,note_on,108,0,3,,,,,,,,,2,,,57,36
82110,note_on,0,0,3,,,,,,,,,2,,,62,36
82110,note_on,0,0,1,,,,,,,,,0,,,89,49
82122,note_on,12,0,3,,,,,,,,,2,,,65,0
82122,note_on,0,0,3,,,,,,,,,2,,,57,0
82122,note_on,0,0,3,,,,,,,,,2,,,62,0
82170,note_on,60,0,1,,,,,,,,,0,,,89,0
82170,note_on,0,0,1,,,,,,,,,0,,,86,49
82200,note_on,30,0,1,,,,,,,,,0,,,84,49
82215,note_on,15,0,1,,,,,,,,,0,,,84,0
82215,note_on,0,0,1,,,,,,,,,0,,,86,49
82230,note_on,108,0,3,,,,,,,,,2,,,51,36
82230,note_on,15,0,1,,,,,,,,,0,,,86,0
82230,note_on,0,0,1,,,,,,,,,0,,,84,49
82230,note_on,0,0,1,,,,,,,,,0,,,86,0
82290,note_on,60,0,1,,,,,,,,,0,,,84,0
82290,note_on,0,0,1,,,,,,,,,0,,,83,49
82350,note_on,0,0,3,,,,,,,,,2,,,60,36
82350,note_on,120,0,3,,,,,,,,,2,,,51,0
82350,note_on,0,0,1,,,,,,,,,0,,,84,49
82350,note_on,0,0,3,,,,,,,,,2,,,67,36
82350,note_on,60,0,1,,,,,,,,,0,,,83,0
82362,note_on,12,0,3,,,,,,,,,2,,,67,0
82362,note_on,0,0,3,,,,,,,,,2,,,60,0
82410,note_on,0,0,1,,,,,,,,,0,,,87,49
82410,note_on,60,0,1,,,,,,,,,0,,,84,0
82470,note_on,60,0,1,,,,,,,,,0,,,87,0
82470,note_on,108,0,3,,,,,,,,,2,,,60,36
82470,note_on,0,0,3,,,,,,,,,2,,,67,36
82470,note_on,0,0,1,,,,,,,,,0,,,86,49
82482,note_on,12,0,3,,,,,,,,,2,,,67,0
82482,note_on,0,0,3,,,,,,,,,2,,,60,0
82530,note_on,0,0,1,,,,,,,,,0,,,84,49
82530,note_on,60,0,1,,,,,,,,,0,,,86,0
82560,note_on,30,0,1,,,,,,,,,0,,,82,49
82575,note_on,15,0,1,,,,,,,,,0,,,82,0
82575,note_on,0,0,1,,,,,,,,,0,,,84,49
82590,note_on,108,0,3,,,,,,,,,2,,,55,36
82590,note_on,15,0,1,,,,,,,,,0,,,84,0
82590,note_on,0,0,1,,,,,,,,,0,,,84,0
82590,note_on,0,0,1,,,,,,,,,0,,,82,49
82650,note_on,60,0,1,,,,,,,,,0,,,82,0
82650,note_on,0,0,1,,,,,,,,,0,,,81,49
82710,note_on,0,0,3,,,,,,,,,2,,,67,36
82710,note_on,0,0,3,,,,,,,,,2,,,62,36
82710,note_on,120,0,3,,,,,,,,,2,,,55,0
82710,note_on,60,0,1,,,,,,,,,0,,,81,0
82710,note_on,0,0,3,,,,,,,,,2,,,58,36
82710,note_on,0,0,1,,,,,,,,,0,,,82,49
82722,note_on,0,0,3,,,,,,,,,2,,,58,0
82722,note_on,0,0,3,,,,,,,,,2,,,62,0
82722,note_on,12,0,3,,,,,,,,,2,,,67,0
82770,note_on,0,0,1,,,,,,,,,0,,,91,49
82770,note_on,60,0,1,,,,,,,,,0,,,82,0
82830,note_on,60,0,1,,,,,,,,,0,,,91,0
82830,note_on,0,0,1,,,,,,,,,0,,,86,49
82830,note_on,0,0,3,,,,,,,,,2,,,67,36
82830,note_on,0,0,3,,,,,,,,,2,,,62,36
82830,note_on,108,0,3,,,,,,,,,2,,,58,36
82842,note_on,0,0,3,,,,,,,,,2,,,58,0
82842,note_on,12,0,3,,,,,,,,,2,,,67,0
82842,note_on,0,0,3,,,,,,,,,2,,,62,0
82890,note_on,60,0,1,,,,,,,,,0,,,86,0
82890,note_on,0,0,1,,,,,,,,,0,,,82,49
82950,note_on,0,0,1,,,,,,,,,0,,,81,49
82950,note_on,60,0,1,,,,,,,,,0,,,82,0
82950,note_on,108,0,3,,,,,,,,,2,,,50,36
83010,note_on,0,0,1,,,,,,,,,0,,,82,49
83010,note_on,60,0,1,,,,,,,,,0,,,81,0
83070,note_on,60,0,1,,,,,,,,,0,,,82,0
83070,note_on,0,0,1,,,,,,,,,0,,,81,49
83070,note_on,120,0,3,,,,,,,,,2,,,50,0
83070,note_on,0,0,3,,,,,,,,,2,,,66,36
83070,note_on,0,0,3,,,,,,,,,2,,,62,36
83070,note_on,0,0,3,,,,,,,,,2,,,60,36
83082,note_on,12,0,3,,,,,,,,,2,,,66,0
83082,note_on,0,0,3,,,,,,,,,2,,,62,0
83082,note_on,0,0,3,,,,,,,,,2,,,60,0
83130,note_on,0,0,1,,,,,,,,,0,,,86,49
83130,note_on,60,0,1,,,,,,,,,0,,,81,0
83190,note_on,0,0,1,,,,,,,,,0,,,84,49
83190,note_on,108,0,3,,,,,,,,,2,,,60,36
83190,note_on,0,0,3,,,,,,,,,2,,,62,36
83190,note_on,0,0,3,,,,,,,,,2,,,66,36
83190,note_on,60,0,1,,,,,,,,,0,,,86,0
83202,note_on,12,0,3,,,,,,,,,2,,,66,0
83202,note_on,0,0,3,,,,,,,,,2,,,62,0
83202,note_on,0,0,3,,,,,,,,,2,,,60,0
83250,note_on,0,0,1,,,,,,,,,0,,,81,49
83250,note_on,60,0,1,,,,,,,,,0,,,84,0
83310,time_signature,2520,1,0,3,8,12,8,,,,,,,,,
83310,note_on,108,0,3,,,,,,,,,2,,,55,36
83310,note_on,60,0,1,,,,,,,,,0,,,81,0
83310,note_on,0,0,1,,,,,,,,,0,,,79,49
83430,note_on,0,0,3,,,,,,,,,2,,,58,36
83430,note_on,0,0,3,,,,,,,,,2,,,62,36
83430,note_on,0,0,3,,,,,,,,,2,,,67,36
83430,note_on,120,0,3,,,,,,,,,2,,,55,0
83490,note_on,60,0,3,,,,,,,,,2,,,67,0
83490,note_on,0,0,3,,,,,,,,,2,,,62,0
83490,note_on,0,0,3,,,,,,,,,2,,,58,0
83490,note_on,180,0,1,,,,,,,,,0,,,79,0
83490,note_on,0,0,1,,,,,,,,,0,,,86,49
83550,note_on,60,0,1,,,,,,,,,0,,,86,0
83550,note_on,0,0,1,,,,,,,,,0,,,82,49
83610,note_on,0,0,1,,,,,,,,,0,,,81,49
83610,note_on,60,0,1,,,,,,,,,0,,,82,0
83640,note_on,30,0,1,,,,,,,,,0,,,79,49
83655,note_on,0,0,1,,,,,,,,,0,,,81,49
83655,note_on,15,0,1,,,,,,,,,0,,,79,0
83670,note_on,15,0,1,,,,,,,,,0,,,81,0
83670,note_on,0,0,1,,,,,,,,,0,,,81,0
83670,note_on,0,0,1,,,,,,,,,0,,,79,49
83670,note_on,180,0,3,,,,,,,,,2,,,43,36
83670,time_signature,360,1,0,3,4,24,8,,,,,,,,,
83730,note_on,0,0,1,,,,,,,,,0,,,78,49
83730,note_on,60,0,1,,,,,,,,,0,,,79,0
83790,note_on,0,0,1,,,,,,,,,0,,,79,49
83790,note_on,60,0,1,,,,,,,,,0,,,78,0
83790,note_on,0,0,3,,,,,,,,,2,,,55,36
83790,note_on,120,0,3,,,,,,,,,2,,,43,0
83790,note_on,0,0,3,,,,,,,,,2,,,62,36
83790,note_on,0,0,3,,,,,,,,,2,,,58,36
83802,note_on,12,0,3,,,,,,,,,2,,,62,0
83802,note_on,0,0,3,,,,,,,,,2,,,58,0
83802,note_on,0,0,3,,,,,,,,,2,,,55,0
83850,note_on,0,0,1,,,,,,,,,0,,,82,49
83850,note_on,60,0,1,,,,,,,,,0,,,79,0
83910,note_on,60,0,1,,,,,,,,,0,,,82,0
83910,note_on,108,0,3,,,,,,,,,2,,,55,36
83910,note_on,0,0,3,,,,,,,,,2,,,58,36
83910,note_on,0,0,3,,,,,,,,,2,,,62,36
83910,note_on,0,0,1,,,,,,,,,0,,,81,49
83922,note_on,12,0,3,,,,,,,,,2,,,62,0
83922,note_on,0,0,3,,,,,,,,,2,,,55,0
83922,note_on,0,0,3,,,,,,,,,2,,,58,0
83970,note_on,60,0,1,,,,,,,,,0,,,81,0
83970,note_on,0,0,1,,,,,,,,,0,,,79,49
84000,note_on,30,0,1,,,,,,,,,0,,,77,49
84015,note_on,15,0,1,,,,,,,,,0,,,77,0
84015,note_on,0,0,1,,,,,,,,,0,,,79,49
84030,note_on,0,0,1,,,,,,,,,0,,,77,49
84030,note_on,0,0,1,,,,,,,,,0,,,79,0
84030,note_on,15,0,1,,,,,,,,,0,,,79,0
84030,note_on,108,0,3,,,,,,,,,2,,,45,36
84090,note_on,0,0,1,,,,,,,,,0,,,76,49
84090,note_on,60,0,1,,,,,,,,,0,,,77,0
84150,note_on,0,0,3,,,,,,,,,2,,,65,36
84150,note_on,0,0,3,,,,,,,,,2,,,62,36
84150,note_on,120,0,3,,,,,,,,,2,,,45,0
84150,note_on,60,0,1,,,,,,,,,0,,,76,0
84150,note_on,0,0,1,,,,,,,,,0,,,77,49
84150,note_on,0,0,3,,,,,,,,,2,,,57,36
84162,note_on,0,0,3,,,,,,,,,2,,,62,0
84162,note_on,12,0,3,,,,,,,,,2,,,65,0
84162,note_on,0,0,3,,,,,,,,,2,,,57,0
84210,note_on,60,0,1,,,,,,,,,0,,,77,0
84210,note_on,0,0,1,,,,,,,,,0,,,81,49
84270,note_on,0,0,3,,,,,,,,,2,,,65,36
84270,note_on,0,0,3,,,,,,,,,2,,,62,36
84270,note_on,108,0,3,,,,,,,,,2,,,57,36
84270,note_on,60,0,1,,,,,,,,,0,,,81,0
84270,note_on,0,0,1,,,,,,,,,0,,,79,49
84282,note_on,0,0,3,,,,,,,,,2,,,62,0
84282,note_on,12,0,3,,,,,,,,,2,,,65,0
84282,note_on,0,0,3,,,,,,,,,2,,,57,0
84330,note_on,0,0,1,,,,,,,,,0,,,77,49
84330,note_on,60,0,1,,,,,,,,,0,,,79,0
84390,note_on,108,0,3,,,,,,,,,2,,,45,36
84390,note_on,0,0,1,,,,,,,,,0,,,76,49
84390,note_on,60,0,1,,,,,,,,,0,,,77,0
84450,note_on,0,0,1,,,,,,,,,0,,,81,49
84450,note_on,60,0,1,,,,,,,,,0,,,76,0
84510,note_on,0,0,3,,,,,,,,,2,,,61,36
84510,note_on,0,0,1,,,,,,,,,0,,,76,49
84510,note_on,60,0,1,,,,,,,,,0,,,81,0
84510,note_on,120,0,3,,,,,,,,,2,,,45,0
84510,note_on,0,0,3,,,,,,,,,2,,,57,36
84510,note_on,0,0,3,,,,,,,,,2,,,67,36
84522,note_on,12,0,3,,,,,,,,,2,,,67,0
84522,note_on,0,0,3,,,,,,,,,2,,,61,0
84522,note_on,0,0,3,,,,,,,,,2,,,57,0
84570,note_on,60,0,1,,,,,,,,,0,,,76,0
84570,note_on,0,0,1,,,,,,,,,0,,,85,49
84630,note_on,0,0,3,,,,,,,,,2,,,67,36
84630,note_on,0,0,3,,,,,,,,,2,,,61,36
84630,note_on,108,0,3,,,,,,,,,2,,,57,36
84630,note_on,60,0,1,,,,,,,,,0,,,85,0
84630,note_on,0,0,1,,,,,,,,,0,,,81,49
84642,note_on,0,0,3,,,,,,,,,2,,,57,0
84642,note_on,0,0,3,,,,,,,,,2,,,61,0
84642,note_on,12,0,3,,,,,,,,,2,,,67,0
84690,note_on,60,0,1,,,,,,,,,0,,,81,0
84690,note_on,0,0,1,,,,,,,,,0,,,88,49
84750,note_on,60,0,1,,,,,,,,,0,,,88,0
84750,note_on,108,0,3,,,,,,,,,2,,,50,36
84750,note_on,0,0,1,,,,,,,,,0,,,86,49
84870,note_on,120,0,3,,,,,,,,,2,,,50,0
84870,note_on,0,0,3,,,,,,,,,2,,,57,36
84870,note_on,0,0,3,,,,,,,,,2,,,62,36
84870,note_on,0,0,3,,,,,,,,,2,,,65,36
84882,note_on,12,0,3,,,,,,,,,2,,,65,0
84882,note_on,0,0,3,,,,,,,,,2,,,57,0
84882,note_on,0,0,3,,,,,,,,,2,,,62,0
84930,note_on,0,0,1,,,,,,,,,0,,,93,49
84930,note_on,180,0,1,,,,,,,,,0,,,86,0
84990,note_on,0,0,3,,,,,,,,,2,,,62,36
84990,note_on,108,0,3,,,,,,,,,2,,,57,36
84990,note_on,60,0,1,,,,,,,,,0,,,93,0
84990,note_on,0,0,1,,,,,,,,,0,,,89,49
84990,note_on,0,0,3,,,,,,,,,2,,,65,36
85002,note_on,0,0,3,,,,,,,,,2,,,62,0
85002,note_on,0,0,3,,,,,,,,,2,,,57,0
85002,note_on,12,0,3,,,,,,,,,2,,,65,0
85050,note_on,60,0,1,,,,,,,,,0,,,89,0
85050,note_on,0,0,1,,,,,,,,,0,,,86,49
85080,note_on,30,0,1,,,,,,,,,0,,,84,49
85095,note_on,15,0,1,,,,,,,,,0,,,84,0
85095,note_on,0,0,1,,,,,,,,,0,,,86,49
85110,note_on,108,0,3,,,,,,,,,2,,,51,36
85110,note_on,0,0,1,,,,,,,,,0,,,86,0
85110,note_on,15,0,1,,,,,,,,,0,,,86,0
85110,note_on,0,0,1,,,,,,,,,0,,,84,49
85170,note_on,0,0,1,,,,,,,,,0,,,83,49
85170,note_on,60,0,1,,,,,,,,,0,,,84,0
85230,note_on,0,0,1,,,,,,,,,0,,,84,49
85230,note_on,0,0,3,,,,,,,,,2,,,60,36
85230,note_on,60,0,1,,,,,,,,,0,,,83,0
85230,note_on,0,0,3,,,,,,,,,2,,,67,36
85230,note_on,120,0,3,,,,,,,,,2,,,51,0
85242,note_on,0,0,3,,,,,,,,,2,,,60,0
85242,note_on,12,0,3,,,,,,,,,2,,,67,0
85290,note_on,60,0,1,,,,,,,,,0,,,84,0
85290,note_on,0,0,1,,,,,,,,,0,,,87,49
85350,note_on,60,0,1,,,,,,,,,0,,,87,0
85350,note_on,0,0,1,,,,,,,,,0,,,86,49
85350,note_on,0,0,3,,,,,,,,,2,,,67,36
85350,note_on,108,0,3,,,,,,,,,2,,,60,36
85362,note_on,12,0,3,,,,,,,,,2,,,67,0
85362,note_on,0,0,3,,,,,,,,,2,,,60,0
85410,note_on,60,0,1,,,,,,,,,0,,,86,0
85410,note_on,0,0,1,,,,,,,,,0,,,84,49
85440,note_on,30,0,1,,,,,,,,,0,,,82,49
85455,note_on,0,0,1,,,,,,,,,0,,,84,49
85455,note_on,15,0,1,,,,,,,,,0,,,82,0
85470,note_on,108,0,3,,,,,,,,,2,,,55,36
85470,note_on,15,0,1,,,,,,,,,0,,,84,0
85470,note_on,0,0,1,,,,,,,,,0,,,84,0
85470,note_on,0,0,1,,,,,,,,,0,,,82,49
85530,note_on,60,0,1,,,,,,,,,0,,,82,0
85530,note_on,0,0,1,,,,,,,,,0,,,81,49
85590,note_on,0,0,3,,,,,,,,,2,,,58,36
85590,note_on,0,0,3,,,,,,,,,2,,,62,36
85590,note_on,0,0,3,,,,,,,,,2,,,67,36
85590,note_on,0,0,1,,,,,,,,,0,,,82,49
85590,note_on,60,0,1,,,,,,,,,0,,,81,0
85590,note_on,120,0,3,,,,,,,,,2,,,55,0
85602,note_on,12,0,3,,,,,,,,,2,,,67,0
85602,note_on,0,0,3,,,,,,,,,2,,,62,0
85602,note_on,0,0,3,,,,,,,,,2,,,58,0
85650,note_on,0,0,1,,,,,,,,,0,,,91,49
85650,note_on,60,0,1,,,,,,,,,0,,,82,0
85710,note_on,60,0,1,,,,,,,,,0,,,91,0
85710,note_on,0,0,3,,,,,,,,,2,,,62,36
85710,note_on,0,0,3,,,,,,,,,2,,,67,36
85710,note_on,108,0,3,,,,,,,,,2,,,58,36
85710,note_on,0,0,1,,,,,,,,,0,,,86,49
85722,note_on,0,0,3,,,,,,,,,2,,,62,0
85722,note_on,12,0,3,,,,,,,,,2,,,67,0
85722,note_on,0,0,3,,,,,,,,,2,,,58,0
85770,note_on,60,0,1,,,,,,,,,0,,,86,0
85770,note_on,0,0,1,,,,,,,,,0,,,82,49
85830,note_on,60,0,1,,,,,,,,,0,,,82,0
85830,note_on,0,0,1,,,,,,,,,0,,,81,49
85830,note_on,108,0,3,,,,,,,,,2,,,50,36
85890,note_on,60,0,1,,,,,,,,,0,,,81,0
85890,note_on,0,0,1,,,,,,,,,0,,,82,49
85950,note_on,0,0,3,,,,,,,,,2,,,60,36
85950,note_on,0,0,3,,,,,,,,,2,,,62,36
85950,note_on,0,0,3,,,,,,,,,2,,,66,36
85950,note_on,0,0,1,,,,,,,,,0,,,81,49
85950,note_on,60,0,1,,,,,,,,,0,,,82,0
85950,note_on,120,0,3,,,,,,,,,2,,,50,0
85962,note_on,12,0,3,,,,,,,,,2,,,66,0
85962,note_on,0,0,3,,,,,,,,,2,,,62,0
85962,note_on,0,0,3,,,,,,,,,2,,,60,0
86010,note_on,60,0,1,,,,,,,,,0,,,81,0
86010,note_on,0,0,1,,,,,,,,,0,,,86,49
86070,note_on,0,0,3,,,,,,,,,2,,,62,36
86070,note_on,0,0,3,,,,,,,,,2,,,66,36
86070,note_on,108,0,3,,,,,,,,,2,,,60,36
86070,note_on,60,0,1,,,,,,,,,0,,,86,0
86070,note_on,0,0,1,,,,,,,,,0,,,84,49
86082,note_on,0,0,3,,,,,,,,,2,,,62,0
86082,note_on,0,0,3,,,,,,,,,2,,,60,0
86082,note_on,12,0,3,,,,,,,,,2,,,66,0
86130,note_on,60,0,1,,,,,,,,,0,,,84,0
86130,note_on,0,0,1,,,,,,,,,0,,,81,49
86190,note_on,0,0,1,,,,,,,,,0,,,79,49
86190,note_on,60,0,1,,,,,,,,,0,,,81,0
86190,time_signature,2520,1,0,3,8,12,8,,,,,,,,,
86190,note_on,108,0,3,,,,,,,,,2,,,55,36
86310,note_on,120,0,3,,,,,,,,,2,,,55,0
86310,note_on,0,0,3,,,,,,,,,2,,,67,36
86310,note_on,0,0,3,,,,,,,,,2,,,62,36
86310,note_on,0,0,3,,,,,,,,,2,,,58,36
86370,note_on,180,0,1,,,,,,,,,0,,,79,0
86370,note_on,0,0,1,,,,,,,,,0,,,82,88
86370,note_on,0,0,3,,,,,,,,,2,,,58,0
86370,note_on,0,0,3,,,,,,,,,2,,,62,0
86370,note_on,60,0,3,,,,,,,,,2,,,67,0
86430,note_on,0,0,1,,,,,,,,,0,,,81,88
86430,note_on,60,0,1,,,,,,,,,0,,,82,0
86490,note_on,0,0,1,,,,,,,,,0,,,79,88
86490,note_on,60,0,1,,,,,,,,,0,,,81,0
86520,note_on,30,0,1,,,,,,,,,0,,,77,88
86535,note_on,0,0,1,,,,,,,,,0,,,79,88
86535,note_on,15,0,1,,,,,,,,,0,,,77,0
86550,time_signature,360,1,0,3,4,24,8,,,,,,,,,
86550,note_on,0,0,1,,,,,,,,,0,,,77,88
86550,note_on,0,0,1,,,,,,,,,0,,,79,0
86550,note_on,180,0,3,,,,,,,,,2,,,46,75
86550,note_on,15,0,1,,,,,,,,,0,,,79,0
86610,note_on,60,0,1,,,,,,,,,0,,,77,0
86610,note_on,0,0,1,,,,,,,,,0,,,76,88
86670,note_on,60,0,1,,,,,,,,,0,,,76,0
86670,note_on,0,0,1,,,,,,,,,0,,,77,88
86670,note_on,0,0,3,,,,,,,,,2,,,58,75
86670,note_on,120,0,3,,,,,,,,,2,,,46,0
86670,note_on,0,0,3,,,,,,,,,2,,,62,75
86670,note_on,0,0,3,,,,,,,,,2,,,53,75
86682,note_on,12,0,3,,,,,,,,,2,,,62,0
86682,note_on,0,0,3,,,,,,,,,2,,,58,0
86682,note_on,0,0,3,,,,,,,,,2,,,53,0
86730,note_on,60,0,1,,,,,,,,,0,,,77,0
86730,note_on,0,0,1,,,,,,,,,0,,,82,88
86790,note_on,108,0,3,,,,,,,,,2,,,53,75
86790,note_on,60,0,1,,,,,,,,,0,,,82,0
86790,note_on,0,0,1,,,,,,,,,0,,,77,88
86790,note_on,0,0,3,,,,,,,,,2,,,62,75
86790,note_on,0,0,3,,,,,,,,,2,,,58,75
86802,note_on,0,0,3,,,,,,,,,2,,,58,0
86802,note_on,12,0,3,,,,,,,,,2,,,62,0
86802,note_on,0,0,3,,,,,,,,,2,,,53,0
86850,note_on,0,0,1,,,,,,,,,0,,,74,88
86850,note_on,60,0,1,,,,,,,,,0,,,77,0
86910,note_on,60,0,1,,,,,,,,,0,,,74,0
86910,note_on,108,0,3,,,,,,,,,2,,,41,75
86910,note_on,0,0,1,,,,,,,,,0,,,72,88
86970,note_on,0,0,1,,,,,,,,,0,,,77,88
86970,note_on,60,0,1,,,,,,,,,0,,,72,0
87030,note_on,0,0,1,,,,,,,,,0,,,72,88
87030,note_on,60,0,1,,,,,,,,,0,,,77,0
87030,note_on,0,0,3,,,,,,,,,2,,,53,75
87030,note_on,0,0,3,,,,,,,,,2,,,57,75
87030,note_on,0,0,3,,,,,,,,,2,,,63,75
87030,note_on,120,0,3,,,,,,,,,2,,,41,0
87042,note_on,12,0,3,,,,,,,,,2,,,63,0
87042,note_on,0,0,3,,,,,,,,,2,,,57,0
87042,note_on,0,0,3,,,,,,,,,2,,,53,0
87090,note_on,60,0,1,,,,,,,,,0,,,72,0
87090,note_on,0,0,1,,,,,,,,,0,,,81,88
87150,note_on,0,0,1,,,,,,,,,0,,,77,88
87150,note_on,0,0,3,,,,,,,,,2,,,63,75
87150,note_on,0,0,3,,,,,,,,,2,,,57,75
87150,note_on,108,0,3,,,,,,,,,2,,,53,75
87150,note_on,60,0,1,,,,,,,,,0,,,81,0
87162,note_on,0,0,3,,,,,,,,,2,,,57,0
87162,note_on,12,0,3,,,,,,,,,2,,,63,0
87162,note_on,0,0,3,,,,,,,,,2,,,53,0
87210,note_on,0,0,1,,,,,,,,,0,,,84,88
87210,note_on,60,0,1,,,,,,,,,0,,,77,0
87270,note_on,108,0,3,,,,,,,,,2,,,41,75
87270,note_on,60,0,1,,,,,,,,,0,,,84,0
87270,note_on,0,0,1,,,,,,,,,0,,,81,88
87330,note_on,60,0,1,,,,,,,,,0,,,81,0
87330,note_on,0,0,1,,,,,,,,,0,,,84,88
87390,note_on,0,0,3,,,,,,,,,2,,,63,75
87390,note_on,0,0,3,,,,,,,,,2,,,57,75
87390,note_on,0,0,1,,,,,,,,,0,,,81,88
87390,note_on,0,0,3,,,,,,,,,2,,,53,75
87390,note_on,60,0,1,,,,,,,,,0,,,84,0
87390,note_on,120,0,3,,,,,,,,,2,,,41,0
87402,note_on,12,0,3,,,,,,,,,2,,,63,0
87402,note_on,0,0,3,,,,,,,,,2,,,57,0
87402,note_on,0,0,3,,,,,,,,,2,,,53,0
87450,note_on,0,0,1,,,,,,,,,0,,,89,88
87450,note_on,60,0,1,,,,,,,,,0,,,81,0
87510,note_on,0,0,1,,,,,,,,,0,,,84,88
87510,note_on,60,0,1,,,,,,,,,0,,,89,0
87510,note_on,0,0,3,,,,,,,,,2,,,57,75
87510,note_on,108,0,3,,,,,,,,,2,,,53,75
87510,note_on,0,0,3,,,,,,,,,2,,,63,75
87522,note_on,12,0,3,,,,,,,,,2,,,63,0
87522,note_on,0,0,3,,,,,,,,,2,,,53,0
87522,note_on,0,0,3,,,,,,,,,2,,,57,0
87570,note_on,0,0,1,,,,,,,,,0,,,93,88
87570,note_on,60,0,1,,,,,,,,,0,,,84,0
87630,note_on,108,0,3,,,,,,,,,2,,,46,75
87630,note_on,0,0,1,,,,,,,,,0,,,94,88
87630,note_on,60,0,1,,,,,,,,,0,,,93,0
87690,note_on,60,0,1,,,,,,,,,0,,,94,0
87690,note_on,0,0,1,,,,,,,,,0,,,98,88
87750,note_on,60,0,1,,,,,,,,,0,,,98,0
87750,note_on,0,0,1,,,,,,,,,0,,,94,88
87750,note_on,120,0,3,,,,,,,,,2,,,46,0
87750,note_on,0,0,3,,,,,,,,,2,,,62,75
87750,note_on,0,0,3,,,,,,,,,2,,,58,75
87750,note_on,0,0,3,,,,,,,,,2,,,53,75
87762,note_on,0,0,3,,,,,,,,,2,,,58,0
87762,note_on,0,0,3,,,,,,,,,2,,,53,0
87762,note_on,12,0,3,,,,,,,,,2,,,62,0
87810,note_on,60,0,1,,,,,,,,,0,,,94,0
87810,note_on,0,0,1,,,,,,,,,0,,,89,88
87870,note_on,60,0,1,,,,,,,,,0,,,89,0
87870,note_on,0,0,1,,,,,,,,,0,,,86,88
87870,note_on,0,0,3,,,,,,,,,2,,,62,75
87870,note_on,0,0,3,,,,,,,,,2,,,58,75
87870,note_on,108,0,3,,,,,,,,,2,,,53,75
87882,note_on,12,0,3,,,,,,,,,2,,,62,0
87882,note_on,0,0,3,,,,,,,,,2,,,58,0
87882,note_on,0,0,3,,,,,,,,,2,,,53,0
87930,note_on,0,0,1,,,,,,,,,0,,,82,88
87930,note_on,60,0,1,,,,,,,,,0,,,86,0
87960,note_on,30,0,1,,,,,,,,,0,,,77,88
87975,note_on,15,0,1,,,,,,,,,0,,,77,0
87975,note_on,0,0,1,,,,,,,,,0,,,79,88
87990,note_on,0,0,1,,,,,,,,,0,,,77,88
87990,note_on,0,0,1,,,,,,,,,0,,,82,0
87990,note_on,15,0,1,,,,,,,,,0,,,79,0
87990,note_on,108,0,3,,,,,,,,,2,,,46,75
88050,note_on,0,0,1,,,,,,,,,0,,,76,88
88050,note_on,60,0,1,,,,,,,,,0,,,77,0
88110,note_on,0,0,3,,,,,,,,,2,,,58,75
88110,note_on,0,0,3,,,,,,,,,2,,,62,75
88110,note_on,60,0,1,,,,,,,,,0,,,76,0
88110,note_on,0,0,3,,,,,,,,,2,,,53,75
88110,note_on,120,0,3,,,,,,,,,2,,,46,0
88110,note_on,0,0,1,,,,,,,,,0,,,77,88
88122,note_on,12,0,3,,,,,,,,,2,,,62,0
88122,note_on,0,0,3,,,,,,,,,2,,,53,0
88122,note_on,0,0,3,,,,,,,,,2,,,58,0
88170,note_on,0,0,1,,,,,,,,,0,,,82,88
88170,note_on,60,0,1,,,,,,,,,0,,,77,0
88230,note_on,60,0,1,,,,,,,,,0,,,82,0
88230,note_on,0,0,1,,,,,,,,,0,,,77,88
88230,note_on,108,0,3,,,,,,,,,2,,,53,75
88230,note_on,0,0,3,,,,,,,,,2,,,58,75
88230,note_on,0,0,3,,,,,,,,,2,,,62,75
88242,note_on,12,0,3,,,,,,,,,2,,,62,0
88242,note_on,0,0,3,,,,,,,,,2,,,58,0
88242,note_on,0,0,3,,,,,,,,,2,,,53,0
88290,note_on,0,0,1,,,,,,,,,0,,,74,88
88290,note_on,60,0,1,,,,,,,,,0,,,77,0
88350,note_on,0,0,1,,,,,,,,,0,,,72,88
88350,note_on,60,0,1,,,,,,,,,0,,,74,0
88350,note_on,108,0,3,,,,,,,,,2,,,41,75
88410,note_on,0,0,1,,,,,,,,,0,,,77,88
88410,note_on,60,0,1,,,,,,,,,0,,,72,0
88470,note_on,60,0,1,,,,,,,,,0,,,77,0
88470,note_on,0,0,1,,,,,,,,,0,,,72,88
88470,note_on,0,0,3,,,,,,,,,2,,,53,75
88470,note_on,120,0,3,,,,,,,,,2,,,41,0
88470,note_on,0,0,3,,,,,,,,,2,,,63,75
88470,note_on,0,0,3,,,,,,,,,2,,,57,75
88482,note_on,0,0,3,,,,,,,,,2,,,53,0
88482,note_on,0,0,3,,,,,,,,,2,,,57,0
88482,note_on,12,0,3,,,,,,,,,2,,,63,0
88530,note_on,0,0,1,,,,,,,,,0,,,81,88
88530,note_on,60,0,1,,,,,,,,,0,,,72,0
88590,note_on,60,0,1,,,,,,,,,0,,,81,0
88590,note_on,0,0,3,,,,,,,,,2,,,63,75
88590,note_on,0,0,1,,,,,,,,,0,,,77,88
88590,note_on,108,0,3,,,,,,,,,2,,,53,75
88590,note_on,0,0,3,,,,,,,,,2,,,57,75
88602,note_on,0,0,3,,,,,,,,,2,,,57,0
88602,note_on,12,0,3,,,,,,,,,2,,,63,0
88602,note_on,0,0,3,,,,,,,,,2,,,53,0
88650,note_on,60,0,1,,,,,,,,,0,,,77,0
88650,note_on,0,0,1,,,,,,,,,0,,,84,88
88710,note_on,0,0,1,,,,,,,,,0,,,81,88
88710,note_on,60,0,1,,,,,,,,,0,,,84,0
88710,note_on,108,0,3,,,,,,,,,2,,,41,75
88770,note_on,0,0,1,,,,,,,,,0,,,84,88
88770,note_on,60,0,1,,,,,,,,,0,,,81,0
88830,note_on,0,0,1,,,,,,,,,0,,,81,88
88830,note_on,60,0,1,,,,,,,,,0,,,84,0
88830,note_on,120,0,3,,,,,,,,,2,,,41,0
88830,note_on,0,0,3,,,,,,,,,2,,,53,75
88830,note_on,0,0,3,,,,,,,,,2,,,57,75
88830,note_on,0,0,3,,,,,,,,,2,,,63,75
88842,note_on,0,0,3,,,,,,,,,2,,,53,0
88842,note_on,0,0,3,,,,,,,,,2,,,57,0
88842,note_on,12,0,3,,,,,,,,,2,,,63,0
88890,note_on,0,0,1,,,,,,,,,0,,,89,88
88890,note_on,60,0,1,,,,,,,,,0,,,81,0
88950,note_on,108,0,3,,,,,,,,,2,,,53,75
88950,note_on,60,0,1,,,,,,,,,0,,,89,0
88950,note_on,0,0,1,,,,,,,,,0,,,84,88
88950,note_on,0,0,3,,,,,,,,,2,,,63,75
88950,note_on,0,0,3,,,,,,,,,2,,,57,75
88962,note_on,0,0,3,,,,,,,,,2,,,57,0
88962,note_on,0,0,3,,,,,,,,,2,,,53,0
88962,note_on,12,0,3,,,,,,,,,2,,,63,0
89010,note_on,60,0,1,,,,,,,,,0,,,84,0
89010,note_on,0,0,1,,,,,,,,,0,,,93,88
89070,time_signature,2520,1,0,3,8,12,8,,,,,,,,,
89070,note_on,0,0,1,,,,,,,,,0,,,94,88
89070,note_on,60,0,1,,,,,,,,,0,,,93,0
89070,note_on,0,0,1,,,,,,,,,0,,,82,88
89070,note_on,108,0,3,,,,,,,,,2,,,46,75
89190,note_on,120,0,3,,,,,,,,,2,,,46,0
89190,note_on,0,0,3,,,,,,,,,2,,,53,75
89190,note_on,0,0,3,,,,,,,,,2,,,58,75
89190,note_on,0,0,3,,,,,,,,,2,,,62,75
89250,note_on,60,0,3,,,,,,,,,2,,,62,0
89250,note_on,0,0,3,,,,,,,,,2,,,58,0
89250,note_on,0,0,3,,,,,,,,,2,,,53,0
89250,note_on,180,0,1,,,,,,,,,0,,,94,0
89250,note_on,0,0,1,,,,,,,,,0,,,82,0
89250,note_on,0,0,1,,,,,,,,,0,,,82,88
89310,note_on,0,0,1,,,,,,,,,0,,,81,88
89310,note_on,60,0,1,,,,,,,,,0,,,82,0
89370,note_on,60,0,1,,,,,,,,,0,,,81,0
89370,note_on,0,0,1,,,,,,,,,0,,,79,88
89400,note_on,30,0,1,,,,,,,,,0,,,77,88
89415,note_on,15,0,1,,,,,,,,,0,,,77,0
89415,note_on,0,0,1,,,,,,,,,0,,,79,88
89430,note_on,180,0,3,,,,,,,,,2,,,46,75
89430,time_signature,360,1,0,3,4,24,8,,,,,,,,,
89430,note_on,0,0,1,,,,,,,,,0,,,77,88
89430,note_on,0,0,1,,,,,,,,,0,,,79,0
89430,note_on,15,0,1,,,,,,,,,0,,,79,0
89490,note_on,0,0,1,,,,,,,,,0,,,76,88
89490,note_on,60,0,1,,,,,,,,,0,,,77,0
89550,note_on,120,0,3,,,,,,,,,2,,,46,0
89550,note_on,60,0,1,,,,,,,,,0,,,76,0
89550,note_on,0,0,3,,,,,,,,,2,,,53,75
89550,note_on,0,0,3,,,,,,,,,2,,,58,75
89550,note_on,0,0,3,,,,,,,,,2,,,62,75
89550,note_on,0,0,1,,,,,,,,,0,,,77,88
89562,note_on,12,0,3,,,,,,,,,2,,,62,0
89562,note_on,0,0,3,,,,,,,,,2,,,53,0
89562,note_on,0,0,3,,,,,,,,,2,,,58,0
89610,note_on,0,0,1,,,,,,,,,0,,,82,88
89610,note_on,60,0,1,,,,,,,,,0,,,77,0
89670,note_on,108,0,3,,,,,,,,,2,,,53,75
89670,note_on,0,0,3,,,,,,,,,2,,,58,75
89670,note_on,0,0,1,,,,,,,,,0,,,77,88
89670,note_on,0,0,3,,,,,,,,,2,,,62,75
89670,note_on,60,0,1,,,,,,,,,0,,,82,0
89682,note_on,12,0,3,,,,,,,,,2,,,62,0
89682,note_on,0,0,3,,,,,,,,,2,,,58,0
89682,note_on,0,0,3,,,,,,,,,2,,,53,0
89730,note_on,60,0,1,,,,,,,,,0,,,77,0
89730,note_on,0,0,1,,,,,,,,,0,,,74,88
89790,note_on,60,0,1,,,,,,,,,0,,,74,0
89790,note_on,0,0,1,,,,,,,,,0,,,72,88
89790,note_on,108,0,3,,,,,,,,,2,,,41,75
89850,note_on,60,0,1,,,,,,,,,0,,,72,0
89850,note_on,0,0,1,,,,,,,,,0,,,77,88
89910,note_on,120,0,3,,,,,,,,,2,,,41,0
89910,note_on,0,0,3,,,,,,,,,2,,,53,75
89910,note_on,0,0,3,,,,,,,,,2,,,57,75
89910,note_on,0,0,3,,,,,,,,,2,,,63,75
89910,note_on,60,0,1,,,,,,,,,0,,,77,0
89910,note_on,0,0,1,,,,,,,,,0,,,72,88
89922,note_on,12,0,3,,,,,,,,,2,,,63,0
89922,note_on,0,0,3,,,,,,,,,2,,,57,0
89922,note_on,0,0,3,,,,,,,,,2,,,53,0
89970,note_on,60,0,1,,,,,,,,,0,,,72,0
89970,note_on,0,0,1,,,,,,,,,0,,,81,88
90030,note_on,0,0,1,,,,,,,,,0,,,77,88
90030,note_on,60,0,1,,,,,,,,,0,,,81,0
90030,note_on,108,0,3,,,,,,,,,2,,,53,75
90030,note_on,0,0,3,,,,,,,,,2,,,63,75
90030,note_on,0,0,3,,,,,,,,,2,,,57,75
90042,note_on,12,0,3,,,,,,,,,2,,,63,0
90042,note_on,0,0,3,,,,,,,,,2,,,57,0
90042,note_on,0,0,3,,,,,,,,,2,,,53,0
90090,note_on,0,0,1,,,,,,,,,0,,,84,88
90090,note_on,60,0,1,,,,,,,,,0,,,77,0
90150,note_on,60,0,1,,,,,,,,,0,,,84,0
90150,note_on,108,0,3,,,,,,,,,2,,,41,75
90150,note_on,0,0,1,,,,,,,,,0,,,81,88
90210,note_on,60,0,1,,,,,,,,,0,,,81,0
90210,note_on,0,0,1,,,,,,,,,0,,,84,88
90270,note_on,0,0,3,,,,,,,,,2,,,53,75
90270,note_on,0,0,3,,,,,,,,,2,,,63,75
90270,note_on,0,0,3,,,,,,,,,2,,,57,75
90270,note_on,0,0,1,,,,,,,,,0,,,81,88
90270,note_on,120,0,3,,,,,,,,,2,,,41,0
90270,note_on,60,0,1,,,,,,,,,0,,,84,0
90282,note_on,0,0,3,,,,,,,,,2,,,53,0
90282,note_on,0,0,3,,,,,,,,,2,,,57,0
90282,note_on,12,0,3,,,,,,,,,2,,,63,0
90330,note_on,60,0,1,,,,,,,,,0,,,81,0
90330,note_on,0,0,1,,,,,,,,,0,,,89,88
90390,note_on,0,0,3,,,,,,,,,2,,,63,75
90390,note_on,0,0,3,,,,,,,,,2,,,57,75
90390,note_on,108,0,3,,,,,,,,,2,,,53,75
90390,note_on,0,0,1,,,,,,,,,0,,,84,88
90390,note_on,60,0,1,,,,,,,,,0,,,89,0
90402,note_on,12,0,3,,,,,,,,,2,,,63,0
90402,note_on,0,0,3,,,,,,,,,2,,,53,0
90402,note_on,0,0,3,,,,,,,,,2,,,57,0
90450,note_on,60,0,1,,,,,,,,,0,,,84,0
90450,note_on,0,0,1,,,,,,,,,0,,,93,88
90510,note_on,60,0,1,,,,,,,,,0,,,93,0
90510,note_on,108,0,3,,,,,,,,,2,,,46,75
90510,note_on,0,0,1,,,,,,,,,0,,,94,88
90570,note_on,0,0,1,,,,,,,,,0,,,98,88
90570,note_on,60,0,1,,,,,,,,,0,,,94,0
90630,note_on,120,0,3,,,,,,,,,2,,,46,0
90630,note_on,60,0,1,,,,,,,,,0,,,98,0
90630,note_on,0,0,3,,,,,,,,,2,,,53,75
90630,note_on,0,0,3,,,,,,,,,2,,,58,75
90630,note_on,0,0,3,,,,,,,,,2,,,62,75
90630,note_on,0,0,1,,,,,,,,,0,,,94,88
90642,note_on,12,0,3,,,,,,,,,2,,,62,0
90642,note_on,0,0,3,,,,,,,,,2,,,58,0
90642,note_on,0,0,3,,,,,,,,,2,,,53,0
90690,note_on,60,0,1,,,,,,,,,0,,,94,0
90690,note_on,0,0,1,,,,,,,,,0,,,89,88
90750,note_on,60,0,1,,,,,,,,,0,,,89,0
90750,note_on,0,0,3,,,,,,,,,2,,,58,75
90750,note_on,108,0,3,,,,,,,,,2,,,53,75
90750,note_on,0,0,1,,,,,,,,,0,,,86,88
90750,note_on,0,0,3,,,,,,,,,2,,,62,75
90762,note_on,12,0,3,,,,,,,,,2,,,62,0
90762,note_on,0,0,3,,,,,,,,,2,,,58,0
90762,note_on,0,0,3,,,,,,,,,2,,,53,0
90810,note_on,60,0,1,,,,,,,,,0,,,86,0
90810,note_on,0,0,1,,,,,,,,,0,,,82,88
90840,note_on,30,0,1,,,,,,,,,0,,,77,88
90855,note_on,15,0,1,,,,,,,,,0,,,77,0
90855,note_on,0,0,1,,,,,,,,,0,,,79,88
90870,note_on,0,0,1,,,,,,,,,0,,,82,0
90870,note_on,15,0,1,,,,,,,,,0,,,79,0
90870,note_on,0,0,1,,,,,,,,,0,,,77,88
90870,note_on,108,0,3,,,,,,,,,2,,,46,75
90930,note_on,0,0,1,,,,,,,,,0,,,76,88
90930,note_on,60,0,1,,,,,,,,,0,,,77,0
90990,note_on,120,0,3,,,,,,,,,2,,,46,0
90990,note_on,0,0,3,,,,,,,,,2,,,53,75
90990,note_on,60,0,1,,,,,,,,,0,,,76,0
90990,note_on,0,0,3,,,,,,,,,2,,,58,75
90990,note_on,0,0,1,,,,,,,,,0,,,77,88
90990,note_on,0,0,3,,,,,,,,,2,,,62,75
91002,note_on,0,0,3,,,,,,,,,2,,,58,0
91002,note_on,0,0,3,,,,,,,,,2,,,53,0
91002,note_on,12,0,3,,,,,,,,,2,,,62,0
91050,note_on,60,0,1,,,,,,,,,0,,,77,0
91050,note_on,0,0,1,,,,,,,,,0,,,82,88
91110,note_on,0,0,1,,,,,,,,,0,,,77,88
91110,note_on,60,0,1,,,,,,,,,0,,,82,0
91110,note_on,0,0,3,,,,,,,,,2,,,58,75
91110,note_on,0,0,3,,,,,,,,,2,,,62,75
91110,note_on,108,0,3,,,,,,,,,2,,,53,75
91122,note_on,0,0,3,,,,,,,,,2,,,58,0
91122,note_on,0,0,3,,,,,,,,,2,,,53,0
91122,note_on,12,0,3,,,,,,,,,2,,,62,0
91170,note_on,60,0,1,,,,,,,,,0,,,77,0
91170,note_on,0,0,1,,,,,,,,,0,,,74,88
91230,note_on,0,0,1,,,,,,,,,0,,,72,88
91230,note_on,60,0,1,,,,,,,,,0,,,74,0
91230,note_on,108,0,3,,,,,,,,,2,,,41,75
91290,note_on,0,0,1,,,,,,,,,0,,,77,88
91290,note_on,60,0,1,,,,,,,,,0,,,72,0
91350,note_on,0,0,1,,,,,,,,,0,,,72,88
91350,note_on,60,0,1,,,,,,,,,0,,,77,0
91350,note_on,120,0,3,,,,,,,,,2,,,41,0
91350,note_on,0,0,3,,,,,,,,,2,,,57,75
91350,note_on,0,0,3,,,,,,,,,2,,,53,75
91350,note_on,0,0,3,,,,,,,,,2,,,63,75
91362,note_on,0,0,3,,,,,,,,,2,,,57,0
91362,note_on,0,0,3,,,,,,,,,2,,,53,0
91362,note_on,12,0,3,,,,,,,,,2,,,63,0
91410,note_on,60,0,1,,,,,,,,,0,,,72,0
91410,note_on,0,0,1,,,,,,,,,0,,,81,88
91470,note_on,0,0,3,,,,,,,,,2,,,63,75
91470,note_on,60,0,1,,,,,,,,,0,,,81,0
91470,note_on,108,0,3,,,,,,,,,2,,,53,75
91470,note_on,0,0,3,,,,,,,,,2,,,57,75
91470,note_on,0,0,1,,,,,,,,,0,,,77,88
91482,note_on,0,0,3,,,,,,,,,2,,,53,0
91482,note_on,0,0,3,,,,,,,,,2,,,57,0
91482,note_on,12,0,3,,,,,,,,,2,,,63,0
91530,note_on,0,0,1,,,,,,,,,0,,,84,88
91530,note_on,60,0,1,,,,,,,,,0,,,77,0
91590,note_on,108,0,3,,,,,,,,,2,,,41,75
91590,note_on,60,0,1,,,,,,,,,0,,,84,0
91590,note_on,0,0,1,,,,,,,,,0,,,81,88
91650,note_on,0,0,1,,,,,,,,,0,,,84,88
91650,note_on,60,0,1,,,,,,,,,0,,,81,0
91710,note_on,0,0,1,,,,,,,,,0,,,81,88
91710,note_on,0,0,3,,,,,,,,,2,,,63,75
91710,note_on,0,0,3,,,,,,,,,2,,,57,75
91710,note_on,0,0,3,,,,,,,,,2,,,53,75
91710,note_on,60,0,1,,,,,,,,,0,,,84,0
91710,note_on,120,0,3,,,,,,,,,2,,,41,0
91722,note_on,12,0,3,,,,,,,,,2,,,63,0
91722,note_on,0,0,3,,,,,,,,,2,,,57,0
91722,note_on,0,0,3,,,,,,,,,2,,,53,0
91770,note_on,0,0,1,,,,,,,,,0,,,89,88
91770,note_on,60,0,1,,,,,,,,,0,,,81,0
91830,note_on,0,0,1,,,,,,,,,0,,,84,88
91830,note_on,60,0,1,,,,,,,,,0,,,89,0
91830,note_on,0,0,3,,,,,,,,,2,,,63,75
91830,note_on,0,0,3,,,,,,,,,2,,,57,75
91830,note_on,108,0,3,,,,,,,,,2,,,53,75
91842,note_on,0,0,3,,,,,,,,,2,,,57,0
91842,note_on,0,0,3,,,,,,,,,2,,,53,0
91842,note_on,12,0,3,,,,,,,,,2,,,63,0
91890,note_on,0,0,1,,,,,,,,,0,,,93,88
91890,note_on,60,0,1,,,,,,,,,0,,,84,0
91950,note_on,108,0,3,,,,,,,,,2,,,46,75
91950,note_on,0,0,1,,,,,,,,,0,,,94,88
91950,note_on,0,0,1,,,,,,,,,0,,,82,88
91950,note_on,60,0,1,,,,,,,,,0,,,93,0
91950,time_signature,2520,1,0,3,8,12,8,,,,,,,,,
92070,note_on,0,0,3,,,,,,,,,2,,,53,75
92070,note_on,120,0,3,,,,,,,,,2,,,46,0
92070,note_on,0,0,3,,,,,,,,,2,,,62,75
92070,note_on,0,0,3,,,,,,,,,2,,,58,75
92130,note_on,0,0,3,,,,,,,,,2,,,53,0
92130,note_on,60,0,3,,,,,,,,,2,,,62,0
92130,note_on,180,0,1,,,,,,,,,0,,,94,0
92130,key_signature,180,1,0,,,,,D,,,,,,,,
92130,note_on,0,0,1,,,,,,,,,0,,,82,0
92130,note_on,0,0,1,,,,,,,,,0,,,66,101
92130,note_on,0,0,1,,,,,,,,,0,,,69,101
92130,note_on,0,0,3,,,,,,,,,2,,,58,0
92190,note_on,60,0,1,,,,,,,,,0,,,69,0
92190,note_on,0,0,1,,,,,,,,,0,,,66,101
92190,note_on,0,0,1,,,,,,,,,0,,,69,101
92190,note_on,0,0,1,,,,,,,,,0,,,66,0
92250,note_on,60,0,1,,,,,,,,,0,,,69,0
92250,note_on,0,0,1,,,,,,,,,0,,,66,0
92250,note_on,0,0,1,,,,,,,,,0,,,66,101
92250,note_on,0,0,1,,,,,,,,,0,,,69,101
92310,time_signature,180,1,0,3,4,24,8,,,,,,,,,
92310,note_on,60,0,1,,,,,,,,,0,,,69,0
92310,note_on,0,0,1,,,,,,,,,0,,,69,101
92310,note_on,0,0,1,,,,,,,,,0,,,66,0
92310,note_on,0,0,3,,,,,,,,,2,,,50,88
92310,note_on,69480,0,2,,,,,,,,,1,,,66,88
92310,note_on,180,0,3,,,,,,,,,2,,,38,88
92370,note_on,0,0,1,,,,,,,,,0,,,74,101
92370,note_on,60,0,1,,,,,,,,,0,,,69,0
92430,note_on,120,0,3,,,,,,,,,2,,,50,0
92430,note_on,0,0,3,,,,,,,,,2,,,38,0
92430,note_on,0,0,3,,,,,,,,,2,,,42,88
92430,note_on,0,0,3,,,,,,,,,2,,,54,88
92430,note_on,0,0,2,,,,,,,,,1,,,66,88
92430,note_on,120,0,2,,,,,,,,,1,,,66,0
92430,note_on,0,0,1,,,,,,,,,0,,,74,101
92430,note_on,60,0,1,,,,,,,,,0,,,74,0
92490,note_on,60,0,1,,,,,,,,,0,,,74,0
92490,note_on,0,0,1,,,,,,,,,0,,,69,101
92550,note_on,60,0,1,,,,,,,,,0,,,69,0
92550,note_on,0,0,3,,,,,,,,,2,,,42,0
92550,note_on,120,0,3,,,,,,,,,2,,,54,0
92550,note_on,120,0,2,,,,,,,,,1,,,66,0
92550,note_on,0,0,2,,,,,,,,,1,,,66,88
92550,note_on,0,0,3,,,,,,,,,2,,,50,88
92550,note_on,0,0,3,,,,,,,,,2,,,38,88
92550,note_on,0,0,1,,,,,,,,,0,,,69,101
92610,note_on,60,0,1,,,,,,,,,0,,,69,0
92610,note_on,0,0,1,,,,,,,,,0,,,74,101
92670,note_on,120,0,2,,,,,,,,,1,,,66,0
92670,note_on,60,0,1,,,,,,,,,0,,,74,0
92670,note_on,0,0,1,,,,,,,,,0,,,66,101
92670,note_on,0,0,1,,,,,,,,,0,,,74,101
92670,note_on,0,0,1,,,,,,,,,0,,,78,101
92670,note_on,0,0,3,,,,,,,,,2,,,47,88
92670,note_on,0,0,3,,,,,,,,,2,,,35,88
92670,note_on,0,0,3,,,,,,,,,2,,,38,0
92670,note_on,120,0,3,,,,,,,,,2,,,50,0
92790,note_on,0,0,3,,,,,,,,,2,,,38,88
92790,note_on,0,0,3,,,,,,,,,2,,,50,88
92790,note_on,0,0,3,,,,,,,,,2,,,35,0
92790,note_on,120,0,1,,,,,,,,,0,,,78,0
92790,note_on,120,0,3,,,,,,,,,2,,,47,0
92850,note_on,0,0,1,,,,,,,,,0,,,66,101
92850,note_on,0,0,1,,,,,,,,,0,,,66,0
92850,note_on,60,0,1,,,,,,,,,0,,,74,0
92850,note_on,0,0,1,,,,,,,,,0,,,74,101
92910,note_on,0,0,1,,,,,,,,,0,,,66,0
92910,note_on,120,0,3,,,,,,,,,2,,,50,0
92910,note_on,0,0,3,,,,,,,,,2,,,38,0
92910,note_on,0,0,3,,,,,,,,,2,,,35,88
92910,note_on,60,0,1,,,,,,,,,0,,,74,0
92910,note_on,0,0,3,,,,,,,,,2,,,47,88
92910,note_on,0,0,1,,,,,,,,,0,,,74,101
92910,note_on,0,0,1,,,,,,,,,0,,,66,101
92970,note_on,0,0,1,,,,,,,,,0,,,66,0
92970,note_on,60,0,1,,,,,,,,,0,,,74,0
92970,note_on,0,0,1,,,,,,,,,0,,,66,101
92970,note_on,0,0,1,,,,,,,,,0,,,74,101
93030,note_on,0,0,3,,,,,,,,,2,,,34,88
93030,note_on,120,0,3,,,,,,,,,2,,,47,0
93030,note_on,360,0,2,,,,,,,,,1,,,66,88
93030,note_on,60,0,1,,,,,,,,,0,,,74,0
93030,note_on,0,0,1,,,,,,,,,0,,,66,0
93030,note_on,0,0,1,,,,,,,,,0,,,73,101
93030,note_on,0,0,3,,,,,,,,,2,,,46,88
93030,note_on,0,0,3,,,,,,,,,2,,,35,0
93090,note_on,0,0,1,,,,,,,,,0,,,78,101
93090,note_on,60,0,1,,,,,,,,,0,,,73,0
93150,note_on,0,0,2,,,,,,,,,1,,,66,88
93150,note_on,0,0,3,,,,,,,,,2,,,34,0
93150,note_on,60,0,1,,,,,,,,,0,,,78,0
93150,note_on,0,0,1,,,,,,,,,0,,,78,101
93150,note_on,120,0,3,,,,,,,,,2,,,46,0
93150,note_on,0,0,3,,,,,,,,,2,,,42,88
93150,note_on,0,0,3,,,,,,,,,2,,,54,88
93150,note_on,120,0,2,,,,,,,,,1,,,66,0
93210,note_on,60,0,1,,,,,,,,,0,,,78,0
93210,note_on,0,0,1,,,,,,,,,0,,,73,101
93270,note_on,60,0,1,,,,,,,,,0,,,73,0
93270,note_on,0,0,1,,,,,,,,,0,,,73,101
93270,note_on,0,0,3,,,,,,,,,2,,,46,88
93270,note_on,120,0,2,,,,,,,,,1,,,66,0
93270,note_on,0,0,3,,,,,,,,,2,,,42,0
93270,note_on,0,0,2,,,,,,,,,1,,,66,88
93270,note_on,0,0,3,,,,,,,,,2,,,34,88
93270,note_on,120,0,3,,,,,,,,,2,,,54,0
93330,note_on,0,0,1,,,,,,,,,0,,,78,101
93330,note_on,60,0,1,,,,,,,,,0,,,73,0
93390,note_on,60,0,1,,,,,,,,,0,,,78,0
93390,note_on,0,0,1,,,,,,,,,0,,,74,127
93390,note_on,0,0,3,,,,,,,,,2,,,35,88
93390,note_on,0,0,3,,,,,,,,,2,,,47,88
93390,note_on,0,0,3,,,,,,,,,2,,,34,0
93390,note_on,120,0,3,,,,,,,,,2,,,46,0
93390,note_on,0,0,2,,,,,,,,,1,,,66,114
93390,note_on,120,0,2,,,,,,,,,1,,,66,0
93510,note_on,0,0,3,,,,,,,,,2,,,38,88
93510,note_on,0,0,3,,,,,,,,,2,,,35,0
93510,note_on,120,0,3,,,,,,,,,2,,,47,0
93510,note_on,120,0,1,,,,,,,,,0,,,74,0
93510,note_on,0,0,3,,,,,,,,,2,,,50,88
93510,note_on,0,0,1,,,,,,,,,0,,,71,101
93630,note_on,0,0,3,,,,,,,,,2,,,38,0
93630,note_on,0,0,1,,,,,,,,,0,,,74,101
93630,note_on,0,0,3,,,,,,,,,2,,,35,88
93630,note_on,120,0,3,,,,,,,,,2,,,50,0
93630,note_on,0,0,2,,,,,,,,,1,,,66,88
93630,note_on,240,0,2,,,,,,,,,1,,,66,0
93630,note_on,120,0,1,,,,,,,,,0,,,71,0
93630,note_on,0,0,3,,,,,,,,,2,,,47,88
93690,note_on,60,0,1,,,,,,,,,0,,,74,0
93690,note_on,0,0,1,,,,,,,,,0,,,78,101
93750,note_on,0,0,3,,,,,,,,,2,,,33,88
93750,note_on,0,0,3,,,,,,,,,2,,,35,0
93750,note_on,120,0,3,,,,,,,,,2,,,47,0
93750,note_on,0,0,3,,,,,,,,,2,,,45,88
93750,note_on,0,0,2,,,,,,,,,1,,,69,106
93750,note_on,60,0,1,,,,,,,,,0,,,78,0
93750,note_on,0,0,2,,,,,,,,,1,,,73,114
93750,note_on,120,0,2,,,,,,,,,1,,,66,0
93750,note_on,0,0,1,,,,,,,,,0,,,81,127
93870,note_on,0,0,3,,,,,,,,,2,,,49,88
93870,note_on,0,0,3,,,,,,,,,2,,,37,88
93870,note_on,0,0,3,,,,,,,,,2,,,33,0
93870,note_on,120,0,3,,,,,,,,,2,,,45,0
93870,note_on,120,0,1,,,,,,,,,0,,,81,0
93870,note_on,0,0,1,,,,,,,,,0,,,76,101
93990,note_on,240,0,2,,,,,,,,,1,,,73,0
93990,note_on,0,0,2,,,,,,,,,1,,,76,88
93990,note_on,0,0,1,,,,,,,,,0,,,81,101
93990,note_on,0,0,2,,,,,,,,,1,,,69,0
93990,note_on,120,0,3,,,,,,,,,2,,,49,0
93990,note_on,0,0,3,,,,,,,,,2,,,37,0
93990,note_on,0,0,3,,,,,,,,,2,,,31,88
93990,note_on,0,0,3,,,,,,,,,2,,,43,88
93990,note_on,120,0,1,,,,,,,,,0,,,76,0
94050,note_on,0,0,1,,,,,,,,,0,,,85,101
94050,note_on,60,0,1,,,,,,,,,0,,,81,0
94110,note_on,0,0,2,,,,,,,,,1,,,74,114
94110,note_on,0,0,3,,,,,,,,,2,,,42,88
94110,note_on,0,0,3,,,,,,,,,2,,,30,88
94110,note_on,0,0,3,,,,,,,,,2,,,31,0
94110,note_on,120,0,3,,,,,,,,,2,,,43,0
94110,note_on,120,0,2,,,,,,,,,1,,,76,0
94110,note_on,60,0,1,,,,,,,,,0,,,85,0
94110,note_on,0,0,1,,,,,,,,,0,,,86,127
94230,note_on,0,0,3,,,,,,,,,2,,,42,88
94230,note_on,0,0,3,,,,,,,,,2,,,30,0
94230,note_on,120,0,3,,,,,,,,,2,,,42,0
94230,note_on,0,0,1,,,,,,,,,0,,,81,101
94230,note_on,0,0,3,,,,,,,,,2,,,54,88
94230,note_on,120,0,1,,,,,,,,,0,,,86,0
94350,note_on,120,0,3,,,,,,,,,2,,,54,0
94350,note_on,120,0,1,,,,,,,,,0,,,81,0
94350,note_on,0,0,1,,,,,,,,,0,,,81,101
94350,note_on,0,0,2,,,,,,,,,1,,,74,88
94350,note_on,240,0,2,,,,,,,,,1,,,74,0
94350,note_on,0,0,3,,,,,,,,,2,,,53,88
94350,note_on,0,0,3,,,,,,,,,2,,,41,88
94350,note_on,0,0,3,,,,,,,,,2,,,42,0
94410,note_on,0,0,1,,,,,,,,,0,,,86,101
94410,note_on,60,0,1,,,,,,,,,0,,,81,0
94470,note_on,0,0,3,,,,,,,,,2,,,41,0
94470,note_on,0,0,2,,,,,,,,,1,,,80,88
94470,note_on,120,0,3,,,,,,,,,2,,,53,0
94470,note_on,120,0,2,,,,,,,,,1,,,74,0
94470,note_on,0,0,2,,,,,,,,,1,,,76,88
94470,note_on,0,0,3,,,,,,,,,2,,,40,88
94470,note_on,60,0,1,,,,,,,,,0,,,86,0
94470,note_on,0,0,1,,,,,,,,,0,,,83,101
94470,note_on,0,0,3,,,,,,,,,2,,,52,88
94530,note_on,60,0,1,,,,,,,,,0,,,83,0
94530,note_on,0,0,1,,,,,,,,,0,,,88,101
94590,note_on,0,0,3,,,,,,,,,2,,,59,88
94590,note_on,0,0,3,,,,,,,,,2,,,52,88
94590,note_on,0,0,3,,,,,,,,,2,,,40,0
94590,note_on,120,0,3,,,,,,,,,2,,,52,0
94590,note_on,60,0,1,,,,,,,,,0,,,88,0
94590,note_on,0,0,2,,,,,,,,,1,,,80,88
94590,note_on,0,0,2,,,,,,,,,1,,,76,0
94590,note_on,120,0,2,,,,,,,,,1,,,80,0
94590,note_on,0,0,1,,,,,,,,,0,,,88,101
94590,note_on,0,0,2,,,,,,,,,1,,,76,88
94710,note_on,120,0,3,,,,,,,,,2,,,59,0
94710,note_on,0,0,3,,,,,,,,,2,,,52,0
94710,note_on,0,0,3,,,,,,,,,2,,,52,88
94710,note_on,0,0,3,,,,,,,,,2,,,59,88
94710,note_on,0,0,2,,,,,,,,,1,,,80,88
94710,note_on,0,0,2,,,,,,,,,1,,,76,0
94710,note_on,120,0,2,,,,,,,,,1,,,80,0
94710,note_on,120,0,1,,,,,,,,,0,,,88,0
94710,note_on,0,0,1,,,,,,,,,0,,,86,101
94710,note_on,0,0,2,,,,,,,,,1,,,74,88
94770,note_on,60,0,1,,,,,,,,,0,,,86,0
94770,note_on,0,0,1,,,,,,,,,0,,,83,101
94830,note_on,0,0,2,,,,,,,,,1,,,74,0
94830,note_on,0,0,3,,,,,,,,,2,,,57,88
94830,note_on,0,0,3,,,,,,,,,2,,,45,88
94830,note_on,0,0,3,,,,,,,,,2,,,52,0
94830,note_on,120,0,3,,,,,,,,,2,,,59,0
94830,note_on,60,0,1,,,,,,,,,0,,,83,0
94830,note_on,0,0,1,,,,,,,,,0,,,73,101
94830,note_on,120,0,2,,,,,,,,,1,,,80,0
94830,time_signature,2520,1,0,3,8,12,8,,,,,,,,,
94830,note_on,0,0,1,,,,,,,,,0,,,81,101
95010,note_on,180,0,1,,,,,,,,,0,,,81,0
95010,note_on,0,0,1,,,,,,,,,0,,,69,101
95010,note_on,0,0,1,,,,,,,,,0,,,66,101
95010,note_on,0,0,1,,,,,,,,,0,,,73,0
95010,note_on,0,0,3,,,,,,,,,2,,,45,0
95010,note_on,180,0,3,,,,,,,,,2,,,57,0
95070,note_on,0,0,1,,,,,,,,,0,,,69,101
95070,note_on,0,0,1,,,,,,,,,0,,,66,0
95070,note_on,60,0,1,,,,,,,,,0,,,69,0
95070,note_on,0,0,1,,,,,,,,,0,,,66,101
95130,note_on,60,0,1,,,,,,,,,0,,,69,0
95130,note_on,0,0,1,,,,,,,,,0,,,66,0
95130,note_on,0,0,1,,,,,,,,,0,,,66,101
95130,note_on,0,0,1,,,,,,,,,0,,,69,101
95190,note_on,0,0,3,,,,,,,,,2,,,50,88
95190,note_on,360,0,2,,,,,,,,,1,,,66,88
95190,note_on,0,0,1,,,,,,,,,0,,,69,101
95190,time_signature,360,1,0,3,4,24,8,,,,,,,,,
95190,note_on,180,0,3,,,,,,,,,2,,,38,88
95190,note_on,0,0,1,,,,,,,,,0,,,66,0
95190,note_on,60,0,1,,,,,,,,,0,,,69,0
95250,note_on,0,0,1,,,,,,,,,0,,,74,101
95250,note_on,60,0,1,,,,,,,,,0,,,69,0
95310,note_on,120,0,3,,,,,,,,,2,,,50,0
95310,note_on,0,0,3,,,,,,,,,2,,,38,0
95310,note_on,0,0,3,,,,,,,,,2,,,42,88
95310,note_on,0,0,3,,,,,,,,,2,,,54,88
95310,note_on,120,0,2,,,,,,,,,1,,,66,0
95310,note_on,0,0,2,,,,,,,,,1,,,66,88
95310,note_on,0,0,1,,,,,,,,,0,,,74,101
95310,note_on,60,0,1,,,,,,,,,0,,,74,0
95370,note_on,0,0,1,,,,,,,,,0,,,69,101
95370,note_on,60,0,1,,,,,,,,,0,,,74,0
95430,note_on,0,0,3,,,,,,,,,2,,,42,0
95430,note_on,120,0,3,,,,,,,,,2,,,54,0
95430,note_on,0,0,3,,,,,,,,,2,,,50,88
95430,note_on,60,0,1,,,,,,,,,0,,,69,0
95430,note_on,0,0,2,,,,,,,,,1,,,66,88
95430,note_on,120,0,2,,,,,,,,,1,,,66,0
95430,note_on,0,0,3,,,,,,,,,2,,,38,88
95430,note_on,0,0,1,,,,,,,,,0,,,69,101
95490,note_on,0,0,1,,,,,,,,,0,,,74,101
95490,note_on,60,0,1,,,,,,,,,0,,,69,0
95550,note_on,0,0,3,,,,,,,,,2,,,38,0
95550,note_on,0,0,3,,,,,,,,,2,,,35,88
95550,note_on,0,0,3,,,,,,,,,2,,,47,88
95550,note_on,120,0,3,,,,,,,,,2,,,50,0
95550,note_on,0,0,1,,,,,,,,,0,,,78,101
95550,note_on,0,0,1,,,,,,,,,0,,,74,101
95550,note_on,0,0,1,,,,,,,,,0,,,66,101
95550,note_on,60,0,1,,,,,,,,,0,,,74,0
95550,note_on,120,0,2,,,,,,,,,1,,,66,0
95670,note_on,120,0,3,,,,,,,,,2,,,47,0
95670,note_on,0,0,3,,,,,,,,,2,,,35,0
95670,note_on,0,0,3,,,,,,,,,2,,,38,88
95670,note_on,120,0,1,,,,,,,,,0,,,78,0
95670,note_on,0,0,3,,,,,,,,,2,,,50,88
95730,note_on,60,0,1,,,,,,,,,0,,,74,0
95730,note_on,0,0,1,,,,,,,,,0,,,66,101
95730,note_on,0,0,1,,,,,,,,,0,,,74,101
95730,note_on,0,0,1,,,,,,,,,0,,,66,0
95790,note_on,0,0,1,,,,,,,,,0,,,74,101
95790,note_on,0,0,3,,,,,,,,,2,,,47,88
95790,note_on,0,0,1,,,,,,,,,0,,,66,101
95790,note_on,0,0,3,,,,,,,,,2,,,35,88
95790,note_on,120,0,3,,,,,,,,,2,,,50,0
95790,note_on,0,0,1,,,,,,,,,0,,,66,0
95790,note_on,60,0,1,,,,,,,,,0,,,74,0
95790,note_on,0,0,3,,,,,,,,,2,,,38,0
95850,note_on,60,0,1,,,,,,,,,0,,,74,0
95850,note_on,0,0,1,,,,,,,,,0,,,66,0
95850,note_on,0,0,1,,,,,,,,,0,,,66,101
95850,note_on,0,0,1,,,,,,,,,0,,,74,101
95910,note_on,60,0,1,,,,,,,,,0,,,74,0
95910,note_on,360,0,2,,,,,,,,,1,,,66,88
95910,note_on,0,0,1,,,,,,,,,0,,,73,101
95910,note_on,0,0,3,,,,,,,,,2,,,46,88
95910,note_on,0,0,3,,,,,,,,,2,,,34,88
95910,note_on,0,0,3,,,,,,,,,2,,,35,0
95910,note_on,120,0,3,,,,,,,,,2,,,47,0
95910,note_on,0,0,1,,,,,,,,,0,,,66,0
95970,note_on,0,0,1,,,,,,,,,0,,,78,101
95970,note_on,60,0,1,,,,,,,,,0,,,73,0
96030,note_on,0,0,1,,,,,,,,,0,,,78,101
96030,note_on,120,0,3,,,,,,,,,2,,,46,0
96030,note_on,0,0,3,,,,,,,,,2,,,34,0
96030,note_on,0,0,3,,,,,,,,,2,,,42,88
96030,note_on,0,0,3,,,,,,,,,2,,,54,88
96030,note_on,120,0,2,,,,,,,,,1,,,66,0
96030,note_on,0,0,2,,,,,,,,,1,,,66,88
96030,note_on,60,0,1,,,,,,,,,0,,,78,0
96090,note_on,60,0,1,,,,,,,,,0,,,78,0
96090,note_on,0,0,1,,,,,,,,,0,,,73,101
96150,note_on,120,0,3,,,,,,,,,2,,,54,0
96150,note_on,0,0,3,,,,,,,,,2,,,42,0
96150,note_on,0,0,3,,,,,,,,,2,,,34,88
96150,note_on,0,0,3,,,,,,,,,2,,,46,88
96150,note_on,0,0,2,,,,,,,,,1,,,66,88
96150,note_on,0,0,1,,,,,,,,,0,,,73,101
96150,note_on,60,0,1,,,,,,,,,0,,,73,0
96150,note_on,120,0,2,,,,,,,,,1,,,66,0
96210,note_on,0,0,1,,,,,,,,,0,,,78,101
96210,note_on,60,0,1,,,,,,,,,0,,,73,0
96270,note_on,0,0,3,,,,,,,,,2,,,34,0
96270,note_on,0,0,3,,,,,,,,,2,,,35,88
96270,note_on,120,0,3,,,,,,,,,2,,,46,0
96270,note_on,0,0,2,,,,,,,,,1,,,66,114
96270,note_on,0,0,1,,,,,,,,,0,,,74,127
96270,note_on,60,0,1,,,,,,,,,0,,,78,0
96270,note_on,120,0,2,,,,,,,,,1,,,66,0
96270,note_on,0,0,3,,,,,,,,,2,,,47,88
96390,note_on,0,0,1,,,,,,,,,0,,,71,101
96390,note_on,120,0,1,,,,,,,,,0,,,74,0
96390,note_on,0,0,3,,,,,,,,,2,,,50,88
96390,note_on,0,0,3,,,,,,,,,2,,,38,88
96390,note_on,0,0,3,,,,,,,,,2,,,35,0
96390,note_on,120,0,3,,,,,,,,,2,,,47,0
96510,note_on,0,0,1,,,,,,,,,0,,,74,101
96510,note_on,120,0,1,,,,,,,,,0,,,71,0
96510,note_on,0,0,3,,,,,,,,,2,,,35,88
96510,note_on,0,0,3,,,,,,,,,2,,,38,0
96510,note_on,120,0,3,,,,,,,,,2,,,50,0
96510,note_on,0,0,2,,,,,,,,,1,,,66,88
96510,note_on,240,0,2,,,,,,,,,1,,,66,0
96510,note_on,0,0,3,,,,,,,,,2,,,47,88
96570,note_on,0,0,1,,,,,,,,,0,,,78,101
96570,note_on,60,0,1,,,,,,,,,0,,,74,0
96630,note_on,0,0,1,,,,,,,,,0,,,81,127
96630,note_on,0,0,3,,,,,,,,,2,,,35,0
96630,note_on,120,0,3,,,,,,,,,2,,,47,0
96630,note_on,60,0,1,,,,,,,,,0,,,78,0
96630,note_on,0,0,2,,,,,,,,,1,,,73,114
96630,note_on,0,0,3,,,,,,,,,2,,,33,88
96630,note_on,120,0,2,,,,,,,,,1,,,66,0
96630,note_on,0,0,3,,,,,,,,,2,,,45,88
96630,note_on,0,0,2,,,,,,,,,1,,,69,106
96750,note_on,0,0,3,,,,,,,,,2,,,49,88
96750,note_on,0,0,3,,,,,,,,,2,,,37,88
96750,note_on,0,0,3,,,,,,,,,2,,,33,0
96750,note_on,120,0,3,,,,,,,,,2,,,45,0
96750,note_on,0,0,1,,,,,,,,,0,,,76,101
96750,note_on,120,0,1,,,,,,,,,0,,,81,0
96870,note_on,240,0,2,,,,,,,,,1,,,73,0
96870,note_on,0,0,2,,,,,,,,,1,,,76,88
96870,note_on,0,0,2,,,,,,,,,1,,,69,0
96870,note_on,120,0,1,,,,,,,,,0,,,76,0
96870,note_on,0,0,3,,,,,,,,,2,,,43,88
96870,note_on,0,0,3,,,,,,,,,2,,,31,88
96870,note_on,0,0,3,,,,,,,,,2,,,37,0
96870,note_on,120,0,3,,,,,,,,,2,,,49,0
96870,note_on,0,0,1,,,,,,,,,0,,,81,101
96930,note_on,0,0,1,,,,,,,,,0,,,85,101
96930,note_on,60,0,1,,,,,,,,,0,,,81,0
96990,note_on,0,0,2,,,,,,,,,1,,,74,114
96990,note_on,60,0,1,,,,,,,,,0,,,85,0
96990,note_on,0,0,1,,,,,,,,,0,,,86,127
96990,note_on,120,0,2,,,,,,,,,1,,,76,0
96990,note_on,120,0,3,,,,,,,,,2,,,43,0
96990,note_on,0,0,3,,,,,,,,,2,,,31,0
96990,note_on,0,0,3,,,,,,,,,2,,,30,88
96990,note_on,0,0,3,,,,,,,,,2,,,42,88
97110,note_on,120,0,1,,,,,,,,,0,,,86,0
97110,note_on,0,0,1,,,,,,,,,0,,,81,101
97110,note_on,0,0,3,,,,,,,,,2,,,30,0
97110,note_on,0,0,3,,,,,,,,,2,,,42,88
97110,note_on,0,0,3,,,,,,,,,2,,,54,88
97110,note_on,120,0,3,,,,,,,,,2,,,42,0
97230,note_on,240,0,2,,,,,,,,,1,,,74,0
97230,note_on,0,0,2,,,,,,,,,1,,,74,88
97230,note_on,0,0,3,,,,,,,,,2,,,53,88
97230,note_on,0,0,3,,,,,,,,,2,,,41,88
97230,note_on,0,0,3,,,,,,,,,2,,,42,0
97230,note_on,120,0,3,,,,,,,,,2,,,54,0
97230,note_on,0,0,1,,,,,,,,,0,,,81,101
97230,note_on,120,0,1,,,,,,,,,0,,,81,0
97290,note_on,0,0,1,,,,,,,,,0,,,86,101
97290,note_on,60,0,1,,,,,,,,,0,,,81,0
97350,note_on,120,0,3,,,,,,,,,2,,,53,0
97350,note_on,60,0,1,,,,,,,,,0,,,86,0
97350,note_on,0,0,3,,,,,,,,,2,,,41,0
97350,note_on,0,0,2,,,,,,,,,1,,,80,88
97350,note_on,0,0,1,,,,,,,,,0,,,83,101
97350,note_on,0,0,3,,,,,,,,,2,,,52,88
97350,note_on,0,0,3,,,,,,,,,2,,,40,88
97350,note_on,0,0,2,,,,,,,,,1,,,76,88
97350,note_on,120,0,2,,,,,,,,,1,,,74,0
97410,note_on,0,0,1,,,,,,,,,0,,,88,101
97410,note_on,60,0,1,,,,,,,,,0,,,83,0
97470,note_on,0,0,2,,,,,,,,,1,,,80,88
97470,note_on,0,0,1,,,,,,,,,0,,,88,101
97470,note_on,60,0,1,,,,,,,,,0,,,88,0
97470,note_on,0,0,2,,,,,,,,,1,,,76,0
97470,note_on,0,0,2,,,,,,,,,1,,,76,88
97470,note_on,120,0,2,,,,,,,,,1,,,80,0
97470,note_on,0,0,3,,,,,,,,,2,,,59,88
97470,note_on,0,0,3,,,,,,,,,2,,,52,88
97470,note_on,0,0,3,,,,,,,,,2,,,40,0
97470,note_on,120,0,3,,,,,,,,,2,,,52,0
97590,note_on,0,0,2,,,,,,,,,1,,,74,88
97590,note_on,120,0,2,,,,,,,,,1,,,80,0
97590,note_on,0,0,2,,,,,,,,,1,,,80,88
97590,note_on,0,0,2,,,,,,,,,1,,,76,0
97590,note_on,0,0,3,,,,,,,,,2,,,59,88
97590,note_on,0,0,1,,,,,,,,,0,,,86,101
97590,note_on,120,0,1,,,,,,,,,0,,,88,0
97590,note_on,0,0,3,,,,,,,,,2,,,52,88
97590,note_on,120,0,3,,,,,,,,,2,,,59,0
97590,note_on,0,0,3,,,,,,,,,2,,,52,0
97650,note_on,60,0,1,,,,,,,,,0,,,86,0
97650,note_on,0,0,1,,,,,,,,,0,,,83,101
97710,note_on,120,0,2,,,,,,,,,1,,,80,0
97710,note_on,0,0,2,,,,,,,,,1,,,74,0
97710,note_on,0,0,1,,,,,,,,,0,,,81,101
97710,note_on,60,0,1,,,,,,,,,0,,,83,0
97710,note_on,0,0,3,,,,,,,,,2,,,45,88
97710,time_signature,2520,1,0,3,8,12,8,,,,,,,,,
97710,note_on,0,0,1,,,,,,,,,0,,,73,101
97710,note_on,0,0,3,,,,,,,,,2,,,52,0
97710,note_on,120,0,3,,,,,,,,,2,,,59,0
97710,note_on,0,0,3,,,,,,,,,2,,,57,88
97890,note_on,180,0,1,,,,,,,,,0,,,81,0
97890,note_on,0,0,1,,,,,,,,,0,,,73,0
97890,note_on,0,0,1,,,,,,,,,0,,,73,75
97890,note_on,0,0,1,,,,,,,,,0,,,79,75
97890,note_on,180,0,3,,,,,,,,,2,,,57,0
97890,note_on,0,0,3,,,,,,,,,2,,,45,0
97950,note_on,60,0,1,,,,,,,,,0,,,79,0
97950,note_on,0,0,1,,,,,,,,,0,,,73,75
97950,note_on,0,0,1,,,,,,,,,0,,,79,75
97950,note_on,0,0,1,,,,,,,,,0,,,73,0
98010,note_on,0,0,1,,,,,,,,,0,,,73,75
98010,note_on,60,0,1,,,,,,,,,0,,,79,0
98010,note_on,0,0,1,,,,,,,,,0,,,73,0
98010,note_on,0,0,1,,,,,,,,,0,,,79,75
98070,note_on,0,0,1,,,,,,,,,0,,,79,114
98070,note_on,0,0,1,,,,,,,,,0,,,73,114
98070,note_on,0,0,1,,,,,,,,,0,,,73,0
98070,note_on,0,0,3,,,,,,,,,2,,,45,101
98070,note_on,60,0,1,,,,,,,,,0,,,79,0
98070,time_signature,360,1,0,3,4,24,8,,,,,,,,,
98070,note_on,180,0,3,,,,,,,,,2,,,33,101
98130,note_on,0,0,1,,,,,,,,,0,,,83,75
98130,note_on,0,0,1,,,,,,,,,0,,,73,0
98130,note_on,60,0,1,,,,,,,,,0,,,79,0
98136,note_on,6,0,1,,,,,,,,,0,,,83,0
98190,note_on,120,0,3,,,,,,,,,2,,,45,0
98190,note_on,0,0,3,,,,,,,,,2,,,33,0
98190,note_on,0,0,3,,,,,,,,,2,,,52,88
98190,note_on,54,0,1,,,,,,,,,0,,,79,75
98190,note_on,0,0,1,,,,,,,,,0,,,83,75
98202,note_on,12,0,3,,,,,,,,,2,,,52,0
98250,note_on,0,0,1,,,,,,,,,0,,,79,0
98250,note_on,0,0,1,,,,,,,,,0,,,73,75
98250,note_on,60,0,1,,,,,,,,,0,,,83,0
98256,note_on,6,0,1,,,,,,,,,0,,,73,0
98310,note_on,54,0,1,,,,,,,,,0,,,73,75
98310,note_on,0,0,1,,,,,,,,,0,,,79,75
98310,note_on,108,0,3,,,,,,,,,2,,,57,88
98322,note_on,12,0,3,,,,,,,,,2,,,57,0
98370,note_on,0,0,1,,,,,,,,,0,,,73,0
98370,note_on,60,0,1,,,,,,,,,0,,,79,0
98370,note_on,0,0,1,,,,,,,,,0,,,83,75
98376,note_on,6,0,1,,,,,,,,,0,,,83,0
98430,note_on,0,0,3,,,,,,,,,2,,,45,101
98430,note_on,108,0,3,,,,,,,,,2,,,33,101
98430,note_on,0,0,1,,,,,,,,,0,,,79,114
98430,note_on,54,0,1,,,,,,,,,0,,,73,114
98550,note_on,0,0,3,,,,,,,,,2,,,52,88
98550,note_on,0,0,3,,,,,,,,,2,,,33,0
98550,note_on,120,0,3,,,,,,,,,2,,,45,0
98562,note_on,12,0,3,,,,,,,,,2,,,52,0
98610,note_on,0,0,1,,,,,,,,,0,,,73,0
98610,note_on,180,0,1,,,,,,,,,0,,,79,0
98610,note_on,0,0,1,,,,,,,,,0,,,73,75
98610,note_on,0,0,1,,,,,,,,,0,,,79,75
98670,note_on,0,0,1,,,,,,,,,0,,,73,75
98670,note_on,0,0,1,,,,,,,,,0,,,79,75
98670,note_on,108,0,3,,,,,,,,,2,,,57,88
98670,note_on,0,0,1,,,,,,,,,0,,,73,0
98670,note_on,60,0,1,,,,,,,,,0,,,79,0
98682,note_on,12,0,3,,,,,,,,,2,,,57,0
98730,note_on,0,0,1,,,,,,,,,0,,,73,0
98730,note_on,0,0,1,,,,,,,,,0,,,73,75
98730,note_on,0,0,1,,,,,,,,,0,,,79,75
98730,note_on,60,0,1,,,,,,,,,0,,,79,0
98790,note_on,60,0,1,,,,,,,,,0,,,79,0
98790,note_on,0,0,1,,,,,,,,,0,,,73,114
98790,note_on,0,0,1,,,,,,,,,0,,,79,114
98790,note_on,0,0,3,,,,,,,,,2,,,45,101
98790,note_on,108,0,3,,,,,,,,,2,,,33,101
98790,note_on,0,0,1,,,,,,,,,0,,,73,0
98850,note_on,0,0,1,,,,,,,,,0,,,73,0
98850,note_on,60,0,1,,,,,,,,,0,,,79,0
98850,note_on,0,0,1,,,,,,,,,0,,,83,75
98856,note_on,6,0,1,,,,,,,,,0,,,83,0
98910,note_on,0,0,3,,,,,,,,,2,,,33,0
98910,note_on,54,0,1,,,,,,,,,0,,,79,75
98910,note_on,0,0,1,,,,,,,,,0,,,83,75
98910,note_on,120,0,3,,,,,,,,,2,,,45,0
98910,note_on,0,0,3,,,,,,,,,2,,,52,88
98922,note_on,12,0,3,,,,,,,,,2,,,52,0
98970,note_on,0,0,1,,,,,,,,,0,,,73,75
98970,note_on,0,0,1,,,,,,,,,0,,,79,0
98970,note_on,60,0,1,,,,,,,,,0,,,83,0
98976,note_on,6,0,1,,,,,,,,,0,,,73,0
99030,note_on,0,0,1,,,,,,,,,0,,,79,75
99030,note_on,108,0,3,,,,,,,,,2,,,57,88
99030,note_on,54,0,1,,,,,,,,,0,,,73,75
99042,note_on,12,0,3,,,,,,,,,2,,,57,0
99090,note_on,60,0,1,,,,,,,,,0,,,79,0
99090,note_on,0,0,1,,,,,,,,,0,,,83,75
99090,note_on,0,0,1,,,,,,,,,0,,,73,0
99096,note_on,6,0,1,,,,,,,,,0,,,83,0
99150,note_on,108,0,3,,,,,,,,,2,,,33,101
99150,note_on,0,0,3,,,,,,,,,2,,,45,101
99150,note_on,0,0,1,,,,,,,,,0,,,79,114
99150,note_on,54,0,1,,,,,,,,,0,,,73,114
99270,note_on,120,0,3,,,,,,,,,2,,,45,0
99270,note_on,0,0,3,,,,,,,,,2,,,33,0
99270,note_on,0,0,3,,,,,,,,,2,,,52,88
99282,note_on,12,0,3,,,,,,,,,2,,,52,0
99330,note_on,0,0,1,,,,,,,,,0,,,79,75
99330,note_on,0,0,1,,,,,,,,,0,,,73,75
99330,note_on,0,0,1,,,,,,,,,0,,,73,0
99330,note_on,180,0,1,,,,,,,,,0,,,79,0
99390,note_on,108,0,3,,,,,,,,,2,,,57,88
99390,note_on,60,0,1,,,,,,,,,0,,,79,0
99390,note_on,0,0,1,,,,,,,,,0,,,73,0
99390,note_on,0,0,1,,,,,,,,,0,,,73,75
99390,note_on,0,0,1,,,,,,,,,0,,,79,75
99402,note_on,12,0,3,,,,,,,,,2,,,57,0
99450,note_on,60,0,1,,,,,,,,,0,,,79,0
99450,note_on,0,0,1,,,,,,,,,0,,,73,0
99450,note_on,0,0,1,,,,,,,,,0,,,73,75
99450,note_on,0,0,1,,,,,,,,,0,,,79,75
99510,note_on,1800,0,2,,,,,,,,,1,,,73,88
99510,note_on,108,0,3,,,,,,,,,2,,,33,88
99510,note_on,0,0,3,,,,,,,,,2,,,45,88
99510,note_on,60,0,1,,,,,,,,,0,,,79,0
99510,note_on,0,0,1,,,,,,,,,0,,,73,0
99510,note_on,0,0,1,,,,,,,,,0,,,79,101
99570,note_on,60,0,1,,,,,,,,,0,,,79,0
99570,note_on,0,0,1,,,,,,,,,0,,,83,101
99576,note_on,6,0,1,,,,,,,,,0,,,83,0
99630,note_on,0,0,3,,,,,,,,,2,,,47,88
99630,note_on,120,0,2,,,,,,,,,1,,,73,0
99630,note_on,54,0,1,,,,,,,,,0,,,79,101
99630,note_on,0,0,2,,,,,,,,,1,,,74,88
99630,note_on,120,0,3,,,,,,,,,2,,,45,0
99630,note_on,0,0,3,,,,,,,,,2,,,33,0
99630,note_on,0,0,3,,,,,,,,,2,,,35,88
99690,note_on,0,0,1,,,,,,,,,0,,,83,101
99690,note_on,60,0,1,,,,,,,,,0,,,79,0
99696,note_on,6,0,1,,,,,,,,,0,,,83,0
99750,note_on,120,0,3,,,,,,,,,2,,,47,0
99750,note_on,0,0,3,,,,,,,,,2,,,35,0
99750,note_on,0,0,3,,,,,,,,,2,,,37,88
99750,note_on,0,0,2,,,,,,,,,1,,,78,88
99750,note_on,120,0,2,,,,,,,,,1,,,74,0
99750,note_on,0,0,3,,,,,,,,,2,,,49,88
99750,note_on,54,0,1,,,,,,,,,0,,,81,101
99810,note_on,0,0,1,,,,,,,,,0,,,79,101
99810,note_on,60,0,2,,,,,,,,,1,,,78,0
99810,note_on,0,0,2,,,,,,,,,1,,,76,88
99810,note_on,60,0,1,,,,,,,,,0,,,81,0
99816,note_on,6,0,2,,,,,,,,,1,,,76,0
99816,note_on,6,0,1,,,,,,,,,0,,,79,0
99870,note_on,54,0,1,,,,,,,,,0,,,74,101
99870,note_on,0,0,3,,,,,,,,,2,,,50,88
99870,note_on,120,0,3,,,,,,,,,2,,,49,0
99870,note_on,0,0,3,,,,,,,,,2,,,37,0
99870,note_on,0,0,3,,,,,,,,,2,,,38,88
99870,note_on,54,0,2,,,,,,,,,1,,,66,88
99930,note_on,0,0,1,,,,,,,,,0,,,78,101
99930,note_on,60,0,1,,,,,,,,,0,,,74,0
99936,note_on,6,0,1,,,,,,,,,0,,,78,0
99990,note_on,0,0,3,,,,,,,,,2,,,52,88
99990,note_on,0,0,3,,,,,,,,,2,,,40,88
99990,note_on,120,0,2,,,,,,,,,1,,,66,0
99990,note_on,120,0,3,,,,,,,,,2,,,50,0
99990,note_on,54,0,1,,,,,,,,,0,,,74,101
99990,note_on,0,0,3,,,,,,,,,2,,,38,0
99990,note_on,0,0,2,,,,,,,,,1,,,67,88
100050,note_on,60,0,1,,,,,,,,,0,,,74,0
100050,note_on,0,0,1,,,,,,,,,0,,,78,101
100056,note_on,6,0,1,,,,,,,,,0,,,78,0
100110,note_on,0,0,3,,,,,,,,,2,,,54,88
100110,note_on,0,0,3,,,,,,,,,2,,,42,88
100110,note_on,54,0,1,,,,,,,,,0,,,76,101
100110,note_on,0,0,3,,,,,,,,,2,,,40,0
100110,note_on,120,0,3,,,,,,,,,2,,,52,0
100110,note_on,120,0,2,,,,,,,,,1,,,67,0
100110,note_on,0,0,2,,,,,,,,,1,,,69,88
100170,note_on,0,0,1,,,,,,,,,0,,,74,101
100170,note_on,60,0,1,,,,,,,,,0,,,76,0
100176,note_on,6,0,1,,,,,,,,,0,,,74,0
100230,note_on,0,0,3,,,,,,,,,2,,,43,88
100230,note_on,120,0,2,,,,,,,,,1,,,69,0
100230,note_on,0,0,3,,,,,,,,,2,,,55,88
100230,note_on,54,0,1,,,,,,,,,0,,,73,101
100230,note_on,0,0,3,,,,,,,,,2,,,42,0
100230,note_on,120,0,3,,,,,,,,,2,,,54,0
100290,note_on,60,0,1,,,,,,,,,0,,,73,0
100290,note_on,0,0,1,,,,,,,,,0,,,71,101
100296,note_on,6,0,1,,,,,,,,,0,,,71,0
100350,note_on,0,0,3,,,,,,,,,2,,,40,88
100350,note_on,0,0,3,,,,,,,,,2,,,52,88
100350,note_on,120,0,2,,,,,,,,,1,,,71,88
100350,note_on,0,0,3,,,,,,,,,2,,,43,0
100350,note_on,120,0,3,,,,,,,,,2,,,55,0
100350,note_on,54,0,1,,,,,,,,,0,,,81,101
100410,note_on,60,0,1,,,,,,,,,0,,,81,0
100410,note_on,0,0,1,,,,,,,,,0,,,79,101
100416,note_on,6,0,1,,,,,,,,,0,,,79,0
100470,note_on,0,0,3,,,,,,,,,2,,,40,0
100470,note_on,120,0,3,,,,,,,,,2,,,52,0
100470,note_on,0,0,3,,,,,,,,,2,,,57,88
100470,note_on,120,0,2,,,,,,,,,1,,,71,0
100470,note_on,0,0,2,,,,,,,,,1,,,67,88
100470,note_on,0,0,2,,,,,,,,,1,,,73,88
100470,note_on,0,0,3,,,,,,,,,2,,,45,88
100470,note_on,54,0,1,,,,,,,,,0,,,76,101
100530,note_on,60,0,1,,,,,,,,,0,,,76,0
100530,note_on,0,0,1,,,,,,,,,0,,,78,101
100536,note_on,6,0,1,,,,,,,,,0,,,78,0
100590,note_on,0,0,2,,,,,,,,,1,,,66,88
100590,time_signature,2520,1,0,3,8,12,8,,,,,,,,,
100590,note_on,54,0,1,,,,,,,,,0,,,74,101
100590,note_on,0,0,3,,,,,,,,,2,,,50,88
100590,note_on,0,0,3,,,,,,,,,2,,,38,88
100590,note_on,0,0,3,,,,,,,,,2,,,45,0
100590,note_on,120,0,3,,,,,,,,,2,,,57,0
100590,note_on,0,0,2,,,,,,,,,1,,,67,0
100590,note_on,120,0,2,,,,,,,,,1,,,73,0
100770,note_on,180,0,1,,,,,,,,,0,,,74,0
100770,note_on,0,0,1,,,,,,,,,0,,,73,75
100770,note_on,0,0,1,,,,,,,,,0,,,79,75
100770,note_on,180,0,3,,,,,,,,,2,,,50,0
100770,note_on,180,0,2,,,,,,,,,1,,,66,0
100770,note_on,0,0,3,,,,,,,,,2,,,38,0
100830,note_on,60,0,1,,,,,,,,,0,,,79,0
100830,note_on,0,0,1,,,,,,,,,0,,,79,75
100830,note_on,0,0,1,,,,,,,,,0,,,73,0
100830,note_on,0,0,1,,,,,,,,,0,,,73,75
100890,note_on,0,0,1,,,,,,,,,0,,,79,75
100890,note_on,0,0,1,,,,,,,,,0,,,73,75
100890,note_on,0,0,1,,,,,,,,,0,,,73,0
100890,note_on,60,0,1,,,,,,,,,0,,,79,0
100950,note_on,180,0,3,,,,,,,,,2,,,33,101
100950,note_on,0,0,3,,,,,,,,,2,,,45,101
100950,time_signature,360,1,0,3,4,24,8,,,,,,,,,
100950,note_on,0,0,1,,,,,,,,,0,,,79,114
100950,note_on,0,0,1,,,,,,,,,0,,,73,114
100950,note_on,0,0,1,,,,,,,,,0,,,73,0
100950,note_on,60,0,1,,,,,,,,,0,,,79,0
101010,note_on,60,0,1,,,,,,,,,0,,,79,0
101010,note_on,0,0,1,,,,,,,,,0,,,83,75
101010,note_on,0,0,1,,,,,,,,,0,,,73,0
101016,note_on,6,0,1,,,,,,,,,0,,,83,0
101070,note_on,120,0,3,,,,,,,,,2,,,45,0
101070,note_on,0,0,3,,,,,,,,,2,,,33,0
101070,note_on,0,0,1,,,,,,,,,0,,,83,75
101070,note_on,54,0,1,,,,,,,,,0,,,79,75
101070,note_on,0,0,3,,,,,,,,,2,,,52,88
101082,note_on,12,0,3,,,,,,,,,2,,,52,0
101130,note_on,0,0,1,,,,,,,,,0,,,73,75
101130,note_on,0,0,1,,,,,,,,,0,,,79,0
101130,note_on,60,0,1,,,,,,,,,0,,,83,0
101136,note_on,6,0,1,,,,,,,,,0,,,73,0
101190,note_on,0,0,1,,,,,,,,,0,,,79,75
101190,note_on,54,0,1,,,,,,,,,0,,,73,75
101190,note_on,108,0,3,,,,,,,,,2,,,57,88
101202,note_on,12,0,3,,,,,,,,,2,,,57,0
101250,note_on,0,0,1,,,,,,,,,0,,,83,75
101250,note_on,0,0,1,,,,,,,,,0,,,73,0
101250,note_on,60,0,1,,,,,,,,,0,,,79,0
101256,note_on,6,0,1,,,,,,,,,0,,,83,0
101310,note_on,108,0,3,,,,,,,,,2,,,33,101
101310,note_on,0,0,3,,,,,,,,,2,,,45,101
101310,note_on,0,0,1,,,,,,,,,0,,,79,114
101310,note_on,54,0,1,,,,,,,,,0,,,73,114
101430,note_on,120,0,3,,,,,,,,,2,,,45,0
101430,note_on,0,0,3,,,,,,,,,2,,,33,0
101430,note_on,0,0,3,,,,,,,,,2,,,52,88
101442,note_on,12,0,3,,,,,,,,,2,,,52,0
101490,note_on,0,0,1,,,,,,,,,0,,,73,0
101490,note_on,0,0,1,,,,,,,,,0,,,79,75
101490,note_on,180,0,1,,,,,,,,,0,,,79,0
101490,note_on,0,0,1,,,,,,,,,0,,,73,75
101550,note_on,60,0,1,,,,,,,,,0,,,79,0
101550,note_on,0,0,1,,,,,,,,,0,,,73,0
101550,note_on,0,0,1,,,,,,,,,0,,,73,75
101550,note_on,108,0,3,,,,,,,,,2,,,57,88
101550,note_on,0,0,1,,,,,,,,,0,,,79,75
101562,note_on,12,0,3,,,,,,,,,2,,,57,0
101610,note_on,60,0,1,,,,,,,,,0,,,79,0
101610,note_on,0,0,1,,,,,,,,,0,,,73,0
101610,note_on,0,0,1,,,,,,,,,0,,,73,75
101610,note_on,0,0,1,,,,,,,,,0,,,79,75
101670,note_on,0,0,1,,,,,,,,,0,,,73,0
101670,note_on,0,0,1,,,,,,,,,0,,,73,114
101670,note_on,0,0,1,,,,,,,,,0,,,79,114
101670,note_on,60,0,1,,,,,,,,,0,,,79,0
101670,note_on,108,0,3,,,,,,,,,2,,,33,101
101670,note_on,0,0,3,,,,,,,,,2,,,45,101
101730,note_on,60,0,1,,,,,,,,,0,,,79,0
101730,note_on,0,0,1,,,,,,,,,0,,,83,75
101730,note_on,0,0,1,,,,,,,,,0,,,73,0
101736,note_on,6,0,1,,,,,,,,,0,,,83,0
101790,note_on,0,0,1,,,,,,,,,0,,,83,75
101790,note_on,0,0,3,,,,,,,,,2,,,33,0
101790,note_on,120,0,3,,,,,,,,,2,,,45,0
101790,note_on,0,0,3,,,,,,,,,2,,,52,88
101790,note_on,54,0,1,,,,,,,,,0,,,79,75
101802,note_on,12,0,3,,,,,,,,,2,,,52,0
101850,note_on,0,0,1,,,,,,,,,0,,,73,75
101850,note_on,0,0,1,,,,,,,,,0,,,79,0
101850,note_on,60,0,1,,,,,,,,,0,,,83,0
101856,note_on,6,0,1,,,,,,,,,0,,,73,0
101910,note_on,108,0,3,,,,,,,,,2,,,57,88
101910,note_on,0,0,1,,,,,,,,,0,,,79,75
101910,note_on,54,0,1,,,,,,,,,0,,,73,75
101922,note_on,12,0,3,,,,,,,,,2,,,57,0
101970,note_on,0,0,1,,,,,,,,,0,,,83,75
101970,note_on,60,0,1,,,,,,,,,0,,,79,0
101970,note_on,0,0,1,,,,,,,,,0,,,73,0
101976,note_on,6,0,1,,,,,,,,,0,,,83,0
102030,note_on,0,0,3,,,,,,,,,2,,,45,101
102030,note_on,108,0,3,,,,,,,,,2,,,33,101
102030,note_on,54,0,1,,,,,,,,,0,,,73,114
102030,note_on,0,0,1,,,,,,,,,0,,,79,114
102150,note_on,0,0,3,,,,,,,,,2,,,52,88
102150,note_on,0,0,3,,,,,,,,,2,,,33,0
102150,note_on,120,0,3,,,,,,,,,2,,,45,0
102162,note_on,12,0,3,,,,,,,,,2,,,52,0
102210,note_on,180,0,1,,,,,,,,,0,,,79,0
102210,note_on,0,0,1,,,,,,,,,0,,,73,0
102210,note_on,0,0,1,,,,,,,,,0,,,73,75
102210,note_on,0,0,1,,,,,,,,,0,,,79,75
102270,note_on,0,0,1,,,,,,,,,0,,,73,0
102270,note_on,60,0,1,,,,,,,,,0,,,79,0
102270,note_on,0,0,1,,,,,,,,,0,,,73,75
102270,note_on,0,0,1,,,,,,,,,0,,,79,75
102270,note_on,108,0,3,,,,,,,,,2,,,57,88
102282,note_on,12,0,3,,,,,,,,,2,,,57,0
102330,note_on,0,0,1,,,,,,,,,0,,,73,0
102330,note_on,0,0,1,,,,,,,,,0,,,73,75
102330,note_on,0,0,1,,,,,,,,,0,,,79,75
102330,note_on,60,0,1,,,,,,,,,0,,,79,0
102390,note_on,1620,0,2,,,,,,,,,1,,,73,88
102390,note_on,108,0,3,,,,,,,,,2,,,33,88
102390,note_on,0,0,3,,,,,,,,,2,,,45,88
102390,note_on,0,0,1,,,,,,,,,0,,,73,0
102390,note_on,0,0,1,,,,,,,,,0,,,79,101
102390,note_on,60,0,1,,,,,,,,,0,,,79,0
102450,note_on,0,0,1,,,,,,,,,0,,,83,101
102450,note_on,60,0,1,,,,,,,,,0,,,79,0
102456,note_on,6,0,1,,,,,,,,,0,,,83,0
102510,note_on,0,0,2,,,,,,,,,1,,,74,88
102510,note_on,120,0,2,,,,,,,,,1,,,73,0
102510,note_on,120,0,3,,,,,,,,,2,,,45,0
102510,note_on,54,0,1,,,,,,,,,0,,,79,101
102510,note_on,0,0,3,,,,,,,,,2,,,33,0
102510,note_on,0,0,3,,,,,,,,,2,,,35,88
102510,note_on,0,0,3,,,,,,,,,2,,,47,88
102570,note_on,60,0,1,,,,,,,,,0,,,79,0
102570,note_on,0,0,1,,,,,,,,,0,,,83,101
102576,note_on,6,0,1,,,,,,,,,0,,,83,0
102630,note_on,0,0,2,,,,,,,,,1,,,78,88
102630,note_on,54,0,1,,,,,,,,,0,,,81,101
102630,note_on,0,0,3,,,,,,,,,2,,,37,88
102630,note_on,0,0,3,,,,,,,,,2,,,35,0
102630,note_on,0,0,3,,,,,,,,,2,,,49,88
102630,note_on,120,0,2,,,,,,,,,1,,,74,0
102630,note_on,120,0,3,,,,,,,,,2,,,47,0
102690,note_on,0,0,2,,,,,,,,,1,,,76,88
102690,note_on,0,0,1,,,,,,,,,0,,,79,101
102690,note_on,60,0,1,,,,,,,,,0,,,81,0
102690,note_on,60,0,2,,,,,,,,,1,,,78,0
102696,note_on,6,0,1,,,,,,,,,0,,,79,0
102696,note_on,6,0,2,,,,,,,,,1,,,76,0
102750,note_on,0,0,3,,,,,,,,,2,,,38,88
102750,note_on,0,0,3,,,,,,,,,2,,,37,0
102750,note_on,120,0,3,,,,,,,,,2,,,49,0
102750,note_on,54,0,1,,,,,,,,,0,,,74,101
102750,note_on,54,0,2,,,,,,,,,1,,,66,88
102750,note_on,0,0,3,,,,,,,,,2,,,50,88
102810,note_on,0,0,1,,,,,,,,,0,,,78,101
102810,note_on,60,0,1,,,,,,,,,0,,,74,0
102816,note_on,6,0,1,,,,,,,,,0,,,78,0
102870,note_on,120,0,2,,,,,,,,,1,,,66,0
102870,note_on,0,0,2,,,,,,,,,1,,,67,88
102870,note_on,120,0,3,,,,,,,,,2,,,50,0
102870,note_on,0,0,3,,,,,,,,,2,,,38,0
102870,note_on,0,0,3,,,,,,,,,2,,,40,88
102870,note_on,0,0,3,,,,,,,,,2,,,52,88
102870,note_on,54,0,1,,,,,,,,,0,,,74,101
102930,note_on,0,0,1,,,,,,,,,0,,,78,101
102930,note_on,60,0,1,,,,,,,,,0,,,74,0
102936,note_on,6,0,1,,,,,,,,,0,,,78,0
102990,note_on,54,0,1,,,,,,,,,0,,,76,101
102990,note_on,120,0,2,,,,,,,,,1,,,67,0
102990,note_on,0,0,3,,,,,,,,,2,,,54,88
102990,note_on,0,0,3,,,,,,,,,2,,,42,88
102990,note_on,0,0,3,,,,,,,,,2,,,40,0
102990,note_on,120,0,3,,,,,,,,,2,,,52,0
102990,note_on,0,0,2,,,,,,,,,1,,,69,88
103050,note_on,0,0,1,,,,,,,,,0,,,74,101
103050,note_on,60,0,1,,,,,,,,,0,,,76,0
103056,note_on,6,0,1,,,,,,,,,0,,,74,0
103110,note_on,54,0,1,,,,,,,,,0,,,73,101
103110,note_on,0,0,3,,,,,,,,,2,,,43,88
103110,note_on,0,0,3,,,,,,,,,2,,,55,88
103110,note_on,120,0,3,,,,,,,,,2,,,54,0
103110,note_on,0,0,3,,,,,,,,,2,,,42,0
103110,note_on,120,0,2,,,,,,,,,1,,,69,0
103170,note_on,60,0,1,,,,,,,,,0,,,73,0
103170,note_on,0,0,1,,,,,,,,,0,,,71,101
103176,note_on,6,0,1,,,,,,,,,0,,,71,0
103230,note_on,120,0,2,,,,,,,,,1,,,71,88
103230,note_on,0,0,3,,,,,,,,,2,,,52,88
103230,note_on,54,0,1,,,,,,,,,0,,,81,101
103230,note_on,0,0,3,,,,,,,,,2,,,40,88
103230,note_on,0,0,3,,,,,,,,,2,,,43,0
103230,note_on,120,0,3,,,,,,,,,2,,,55,0
103290,note_on,60,0,1,,,,,,,,,0,,,81,0
103290,note_on,0,0,1,,,,,,,,,0,,,79,101
103296,note_on,6,0,1,,,,,,,,,0,,,79,0
103350,note_on,0,0,3,,,,,,,,,2,,,45,88
103350,note_on,0,0,3,,,,,,,,,2,,,57,88
103350,note_on,0,0,2,,,,,,,,,1,,,67,88
103350,note_on,120,0,2,,,,,,,,,1,,,71,0
103350,note_on,54,0,1,,,,,,,,,0,,,76,101
103350,note_on,0,0,3,,,,,,,,,2,,,40,0
103350,note_on,0,0,2,,,,,,,,,1,,,73,88
103350,note_on,120,0,3,,,,,,,,,2,,,52,0
103410,note_on,0,0,1,,,,,,,,,0,,,78,101
103410,note_on,60,0,1,,,,,,,,,0,,,76,0
103416,note_on,6,0,1,,,,,,,,,0,,,78,0
103470,note_on,120,0,3,,,,,,,,,2,,,57,0
103470,note_on,54,0,1,,,,,,,,,0,,,74,101
103470,note_on,0,0,3,,,,,,,,,2,,,45,0
103470,time_signature,2520,1,0,2,4,24,8,,,,,,,,,
103470,note_on,0,0,3,,,,,,,,,2,,,50,88
103470,note_on,120,0,2,,,,,,,,,1,,,73,0
103470,note_on,0,0,2,,,,,,,,,1,,,67,0
103470,note_on,0,0,2,,,,,,,,,1,,,66,88
103470,note_on,0,0,3,,,,,,,,,2,,,38,88
103710,note_on,0,0,1,,,,,,,,,0,,,69,75
103710,note_on,240,0,2,,,,,,,,,1,,,66,0
103710,note_on,240,0,3,,,,,,,,,2,,,50,0
103710,note_on,0,0,3,,,,,,,,,2,,,38,0
103710,note_on,240,0,1,,,,,,,,,0,,,74,0
103710,time_signature,240,1,0,1,4,24,8,,,,,,,,,
103830,note_on,120,0,3,,,,,,,,,2,,,45,62
103830,note_on,120,0,1,,,,,,,,,0,,,69,0
103830,note_on,0,0,1,,,,,,,,,0,,,68,75
103830,time_signature,120,1,0,3,4,24,8,,,,,,,,,
103890,note_on,0,0,1,,,,,,,,,0,,,69,75
103890,note_on,60,0,1,,,,,,,,,0,,,68,0
103950,note_on,120,0,3,,,,,,,,,2,,,45,0
103950,note_on,0,0,3,,,,,,,,,2,,,64,62
103950,note_on,60,0,1,,,,,,,,,0,,,69,0
103950,note_on,0,0,1,,,,,,,,,0,,,73,75
103950,note_on,0,0,3,,,,,,,,,2,,,57,62
103962,note_on,12,0,3,,,,,,,,,2,,,64,0
103962,note_on,0,0,3,,,,,,,,,2,,,57,0
104010,note_on,60,0,1,,,,,,,,,0,,,73,0
104010,note_on,0,0,1,,,,,,,,,0,,,76,75
104070,note_on,108,0,3,,,,,,,,,2,,,57,62
104070,note_on,0,0,3,,,,,,,,,2,,,64,62
104070,note_on,60,0,1,,,,,,,,,0,,,76,0
104070,note_on,0,0,1,,,,,,,,,0,,,68,75
104082,note_on,12,0,3,,,,,,,,,2,,,64,0
104082,note_on,0,0,3,,,,,,,,,2,,,57,0
104130,note_on,60,0,1,,,,,,,,,0,,,68,0
104130,note_on,0,0,1,,,,,,,,,0,,,69,75
104190,note_on,60,0,1,,,,,,,,,0,,,69,0
104190,note_on,108,0,3,,,,,,,,,2,,,45,62
104190,note_on,0,0,1,,,,,,,,,0,,,73,75
104250,note_on,60,0,1,,,,,,,,,0,,,73,0
104250,note_on,0,0,1,,,,,,,,,0,,,76,75
104310,note_on,60,0,1,,,,,,,,,0,,,76,0
104310,note_on,0,0,1,,,,,,,,,0,,,79,101
104310,note_on,0,0,3,,,,,,,,,2,,,64,62
104310,note_on,0,0,3,,,,,,,,,2,,,57,62
104310,note_on,120,0,3,,,,,,,,,2,,,45,0
104322,note_on,12,0,3,,,,,,,,,2,,,64,0
104322,note_on,0,0,3,,,,,,,,,2,,,57,0
104370,note_on,60,0,1,,,,,,,,,0,,,79,0
104370,note_on,0,0,1,,,,,,,,,0,,,83,75
104430,note_on,60,0,1,,,,,,,,,0,,,83,0
104430,note_on,0,0,3,,,,,,,,,2,,,64,62
104430,note_on,108,0,3,,,,,,,,,2,,,57,62
104430,note_on,0,0,1,,,,,,,,,0,,,81,75
104442,note_on,0,0,3,,,,,,,,,2,,,57,0
104442,note_on,12,0,3,,,,,,,,,2,,,64,0
104490,note_on,60,0,1,,,,,,,,,0,,,81,0
104490,note_on,0,0,1,,,,,,,,,0,,,79,75
104550,note_on,108,0,3,,,,,,,,,2,,,50,62
104550,note_on,0,0,1,,,,,,,,,0,,,78,75
104550,note_on,60,0,1,,,,,,,,,0,,,79,0
104610,note_on,0,0,1,,,,,,,,,0,,,81,75
104610,note_on,60,0,1,,,,,,,,,0,,,78,0
104670,note_on,0,0,3,,,,,,,,,2,,,62,62
104670,note_on,60,0,1,,,,,,,,,0,,,81,0
104670,note_on,0,0,1,,,,,,,,,0,,,85,75
104670,note_on,120,0,3,,,,,,,,,2,,,50,0
104670,note_on,0,0,3,,,,,,,,,2,,,54,62
104682,note_on,12,0,3,,,,,,,,,2,,,62,0
104682,note_on,0,0,3,,,,,,,,,2,,,54,0
104730,note_on,60,0,1,,,,,,,,,0,,,85,0
104730,note_on,0,0,1,,,,,,,,,0,,,86,75
104790,note_on,60,0,1,,,,,,,,,0,,,86,0
104790,note_on,0,0,1,,,,,,,,,0,,,78,75
104790,note_on,108,0,3,,,,,,,,,2,,,54,62
104790,note_on,0,0,3,,,,,,,,,2,,,62,62
104802,note_on,12,0,3,,,,,,,,,2,,,62,0
104802,note_on,0,0,3,,,,,,,,,2,,,54,0
104850,note_on,60,0,1,,,,,,,,,0,,,78,0
104850,note_on,0,0,1,,,,,,,,,0,,,81,75
104910,note_on,108,0,3,,,,,,,,,2,,,50,62
104910,note_on,0,0,1,,,,,,,,,0,,,85,75
104910,note_on,60,0,1,,,,,,,,,0,,,81,0
104970,note_on,60,0,1,,,,,,,,,0,,,85,0
104970,note_on,0,0,1,,,,,,,,,0,,,86,75
105030,note_on,0,0,1,,,,,,,,,0,,,90,101
105030,note_on,0,0,3,,,,,,,,,2,,,54,62
105030,note_on,60,0,1,,,,,,,,,0,,,86,0
105030,note_on,0,0,3,,,,,,,,,2,,,62,62
105030,note_on,120,0,3,,,,,,,,,2,,,50,0
105042,note_on,0,0,3,,,,,,,,,2,,,54,0
105042,note_on,12,0,3,,,,,,,,,2,,,62,0
105090,note_on,60,0,1,,,,,,,,,0,,,90,0
105090,note_on,0,0,1,,,,,,,,,0,,,93,75
105150,note_on,108,0,3,,,,,,,,,2,,,54,62
105150,note_on,60,0,1,,,,,,,,,0,,,93,0
105150,note_on,0,0,1,,,,,,,,,0,,,91,75
105150,note_on,0,0,3,,,,,,,,,2,,,62,62
105162,note_on,0,0,3,,,,,,,,,2,,,54,0
105162,note_on,12,0,3,,,,,,,,,2,,,62,0
105210,note_on,0,0,1,,,,,,,,,0,,,90,75
105210,note_on,60,0,1,,,,,,,,,0,,,91,0
105270,note_on,60,0,1,,,,,,,,,0,,,90,0
105270,note_on,0,0,1,,,,,,,,,0,,,68,75
105270,note_on,108,0,3,,,,,,,,,2,,,45,62
105330,note_on,60,0,1,,,,,,,,,0,,,68,0
105330,note_on,0,0,1,,,,,,,,,0,,,69,75
105390,note_on,0,0,3,,,,,,,,,2,,,64,62
105390,note_on,0,0,3,,,,,,,,,2,,,57,62
105390,note_on,120,0,3,,,,,,,,,2,,,45,0
105390,note_on,0,0,1,,,,,,,,,0,,,73,75
105390,note_on,60,0,1,,,,,,,,,0,,,69,0
105402,note_on,12,0,3,,,,,,,,,2,,,64,0
105402,note_on,0,0,3,,,,,,,,,2,,,57,0
105450,note_on,60,0,1,,,,,,,,,0,,,73,0
105450,note_on,0,0,1,,,,,,,,,0,,,76,75
105510,note_on,0,0,1,,,,,,,,,0,,,68,75
105510,note_on,108,0,3,,,,,,,,,2,,,57,62
105510,note_on,0,0,3,,,,,,,,,2,,,64,62
105510,note_on,60,0,1,,,,,,,,,0,,,76,0
105522,note_on,12,0,3,,,,,,,,,2,,,64,0
105522,note_on,0,0,3,,,,,,,,,2,,,57,0
105570,note_on,60,0,1,,,,,,,,,0,,,68,0
105570,note_on,0,0,1,,,,,,,,,0,,,69,75
105630,note_on,0,0,1,,,,,,,,,0,,,73,75
105630,note_on,60,0,1,,,,,,,,,0,,,69,0
105630,note_on,108,0,3,,,,,,,,,2,,,45,62
105690,note_on,0,0,1,,,,,,,,,0,,,76,75
105690,note_on,60,0,1,,,,,,,,,0,,,73,0
105750,note_on,0,0,3,,,,,,,,,2,,,64,62
105750,note_on,0,0,3,,,,,,,,,2,,,57,62
105750,note_on,120,0,3,,,,,,,,,2,,,45,0
105750,note_on,60,0,1,,,,,,,,,0,,,76,0
105750,note_on,0,0,1,,,,,,,,,0,,,79,101
105762,note_on,12,0,3,,,,,,,,,2,,,64,0
105762,note_on,0,0,3,,,,,,,,,2,,,57,0
105810,note_on,0,0,1,,,,,,,,,0,,,83,75
105810,note_on,60,0,1,,,,,,,,,0,,,79,0
105870,note_on,0,0,1,,,,,,,,,0,,,81,75
105870,note_on,60,0,1,,,,,,,,,0,,,83,0
105870,note_on,0,0,3,,,,,,,,,2,,,64,62
105870,note_on,108,0,3,,,,,,,,,2,,,57,62
105882,note_on,12,0,3,,,,,,,,,2,,,64,0
105882,note_on,0,0,3,,,,,,,,,2,,,57,0
105930,note_on,0,0,1,,,,,,,,,0,,,79,75
105930,note_on,60,0,1,,,,,,,,,0,,,81,0
105990,note_on,108,0,3,,,,,,,,,2,,,50,62
105990,note_on,60,0,1,,,,,,,,,0,,,79,0
105990,note_on,0,0,1,,,,,,,,,0,,,78,75
106050,note_on,60,0,1,,,,,,,,,0,,,78,0
106050,note_on,0,0,1,,,,,,,,,0,,,81,75
106110,note_on,60,0,1,,,,,,,,,0,,,81,0
106110,note_on,0,0,1,,,,,,,,,0,,,86,75
106110,note_on,0,0,1,,,,,,,,,0,,,90,75
106110,note_on,0,0,3,,,,,,,,,2,,,66,62
106110,note_on,0,0,3,,,,,,,,,2,,,62,62
106110,note_on,0,0,3,,,,,,,,,2,,,57,62
106110,note_on,120,0,3,,,,,,,,,2,,,50,0
106122,note_on,0,0,3,,,,,,,,,2,,,57,0
106122,note_on,0,0,3,,,,,,,,,2,,,62,0
106122,note_on,12,0,3,,,,,,,,,2,,,66,0
106170,note_on,0,0,1,,,,,,,,,0,,,81,75
106170,note_on,0,0,1,,,,,,,,,0,,,86,0
106170,note_on,60,0,1,,,,,,,,,0,,,90,0
106230,note_on,0,0,1,,,,,,,,,0,,,88,75
106230,note_on,0,0,1,,,,,,,,,0,,,85,75
106230,note_on,108,0,3,,,,,,,,,2,,,57,62
106230,note_on,0,0,3,,,,,,,,,2,,,64,62
106230,note_on,0,0,3,,,,,,,,,2,,,67,62
106230,note_on,60,0,1,,,,,,,,,0,,,81,0
106242,note_on,12,0,3,,,,,,,,,2,,,67,0
106242,note_on,0,0,3,,,,,,,,,2,,,64,0
106242,note_on,0,0,3,,,,,,,,,2,,,57,0
106290,note_on,60,0,1,,,,,,,,,0,,,88,0
106290,note_on,0,0,1,,,,,,,,,0,,,81,75
106290,note_on,0,0,1,,,,,,,,,0,,,85,0
106350,note_on,60,0,1,,,,,,,,,0,,,81,0
106350,note_on,0,0,1,,,,,,,,,0,,,86,75
106350,note_on,108,0,3,,,,,,,,,2,,,50,62
106350,time_signature,2520,1,0,2,4,24,8,,,,,,,,,
106470,note_on,0,0,3,,,,,,,,,2,,,57,62
106470,note_on,120,0,3,,,,,,,,,2,,,50,0
106470,note_on,0,0,3,,,,,,,,,2,,,66,62
106470,note_on,0,0,3,,,,,,,,,2,,,62,62
106590,note_on,120,0,3,,,,,,,,,2,,,66,0
106590,note_on,0,0,3,,,,,,,,,2,,,62,0
106590,note_on,0,0,3,,,,,,,,,2,,,57,0
106590,note_on,0,0,1,,,,,,,,,0,,,69,75
106590,note_on,240,0,1,,,,,,,,,0,,,86,0
106590,time_signature,240,1,0,1,4,24,8,,,,,,,,,
106710,time_signature,120,1,0,3,4,24,8,,,,,,,,,
106710,note_on,120,0,3,,,,,,,,,2,,,45,62
106710,note_on,120,0,1,,,,,,,,,0,,,69,0
106710,note_on,0,0,1,,,,,,,,,0,,,68,75
106770,note_on,60,0,1,,,,,,,,,0,,,68,0
106770,note_on,0,0,1,,,,,,,,,0,,,69,75
106830,note_on,0,0,3,,,,,,,,,2,,,57,62
106830,note_on,60,0,1,,,,,,,,,0,,,69,0
106830,note_on,0,0,1,,,,,,,,,0,,,73,75
106830,note_on,120,0,3,,,,,,,,,2,,,45,0
106830,note_on,0,0,3,,,,,,,,,2,,,64,62
106842,note_on,0,0,3,,,,,,,,,2,,,57,0
106842,note_on,12,0,3,,,,,,,,,2,,,64,0
106890,note_on,60,0,1,,,,,,,,,0,,,73,0
106890,note_on,0,0,1,,,,,,,,,0,,,76,75
106950,note_on,108,0,3,,,,,,,,,2,,,57,62
106950,note_on,0,0,3,,,,,,,,,2,,,64,62
106950,note_on,60,0,1,,,,,,,,,0,,,76,0
106950,note_on,0,0,1,,,,,,,,,0,,,68,75
106962,note_on,12,0,3,,,,,,,,,2,,,64,0
106962,note_on,0,0,3,,,,,,,,,2,,,57,0
107010,note_on,60,0,1,,,,,,,,,0,,,68,0
107010,note_on,0,0,1,,,,,,,,,0,,,69,75
107070,note_on,0,0,1,,,,,,,,,0,,,73,75
107070,note_on,108,0,3,,,,,,,,,2,,,45,62
107070,note_on,60,0,1,,,,,,,,,0,,,69,0
107130,note_on,0,0,1,,,,,,,,,0,,,76,75
107130,note_on,60,0,1,,,,,,,,,0,,,73,0
107190,note_on,0,0,1,,,,,,,,,0,,,79,101
107190,note_on,120,0,3,,,,,,,,,2,,,45,0
107190,note_on,60,0,1,,,,,,,,,0,,,76,0
107190,note_on,0,0,3,,,,,,,,,2,,,57,62
107190,note_on,0,0,3,,,,,,,,,2,,,64,62
107202,note_on,12,0,3,,,,,,,,,2,,,64,0
107202,note_on,0,0,3,,,,,,,,,2,,,57,0
107250,note_on,60,0,1,,,,,,,,,0,,,79,0
107250,note_on,0,0,1,,,,,,,,,0,,,83,75
107310,note_on,0,0,3,,,,,,,,,2,,,64,62
107310,note_on,0,0,1,,,,,,,,,0,,,81,75
107310,note_on,60,0,1,,,,,,,,,0,,,83,0
107310,note_on,108,0,3,,,,,,,,,2,,,57,62
107322,note_on,12,0,3,,,,,,,,,2,,,64,0
107322,note_on,0,0,3,,,,,,,,,2,,,57,0
107370,note_on,0,0,1,,,,,,,,,0,,,79,75
107370,note_on,60,0,1,,,,,,,,,0,,,81,0
107430,note_on,108,0,3,,,,,,,,,2,,,50,62
107430,note_on,60,0,1,,,,,,,,,0,,,79,0
107430,note_on,0,0,1,,,,,,,,,0,,,78,75
107490,note_on,60,0,1,,,,,,,,,0,,,78,0
107490,note_on,0,0,1,,,,,,,,,0,,,81,75
107550,note_on,120,0,3,,,,,,,,,2,,,50,0
107550,note_on,0,0,3,,,,,,,,,2,,,54,62
107550,note_on,0,0,3,,,,,,,,,2,,,62,62
107550,note_on,60,0,1,,,,,,,,,0,,,81,0
107550,note_on,0,0,1,,,,,,,,,0,,,85,75
107562,note_on,0,0,3,,,,,,,,,2,,,54,0
107562,note_on,12,0,3,,,,,,,,,2,,,62,0
107610,note_on,60,0,1,,,,,,,,,0,,,85,0
107610,note_on,0,0,1,,,,,,,,,0,,,86,75
107670,note_on,60,0,1,,,,,,,,,0,,,86,0
107670,note_on,0,0,1,,,,,,,,,0,,,78,75
107670,note_on,0,0,3,,,,,,,,,2,,,62,62
107670,note_on,108,0,3,,,,,,,,,2,,,54,62
107682,note_on,12,0,3,,,,,,,,,2,,,62,0
107682,note_on,0,0,3,,,,,,,,,2,,,54,0
107730,note_on,60,0,1,,,,,,,,,0,,,78,0
107730,note_on,0,0,1,,,,,,,,,0,,,81,75
107790,note_on,108,0,3,,,,,,,,,2,,,50,62
107790,note_on,0,0,1,,,,,,,,,0,,,85,75
107790,note_on,60,0,1,,,,,,,,,0,,,81,0
107850,note_on,0,0,1,,,,,,,,,0,,,86,75
107850,note_on,60,0,1,,,,,,,,,0,,,85,0
107910,note_on,0,0,3,,,,,,,,,2,,,62,62
107910,note_on,0,0,3,,,,,,,,,2,,,54,62
107910,note_on,0,0,1,,,,,,,,,0,,,90,101
107910,note_on,60,0,1,,,,,,,,,0,,,86,0
107910,note_on,120,0,3,,,,,,,,,2,,,50,0
107922,note_on,12,0,3,,,,,,,,,2,,,62,0
107922,note_on,0,0,3,,,,,,,,,2,,,54,0
107970,note_on,0,0,1,,,,,,,,,0,,,93,75
107970,note_on,60,0,1,,,,,,,,,0,,,90,0
108030,note_on,0,0,3,,,,,,,,,2,,,62,62
108030,note_on,108,0,3,,,,,,,,,2,,,54,62
108030,note_on,60,0,1,,,,,,,,,0,,,93,0
108030,note_on,0,0,1,,,,,,,,,0,,,91,75
108042,note_on,0,0,3,,,,,,,,,2,,,54,0
108042,note_on,12,0,3,,,,,,,,,2,,,62,0
108090,note_on,60,0,1,,,,,,,,,0,,,91,0
108090,note_on,0,0,1,,,,,,,,,0,,,90,75
108150,note_on,108,0,3,,,,,,,,,2,,,45,62
108150,note_on,60,0,1,,,,,,,,,0,,,90,0
108150,note_on,0,0,1,,,,,,,,,0,,,68,75
108210,note_on,0,0,1,,,,,,,,,0,,,69,75
108210,note_on,60,0,1,,,,,,,,,0,,,68,0
108270,note_on,60,0,1,,,,,,,,,0,,,69,0
108270,note_on,0,0,3,,,,,,,,,2,,,57,62
108270,note_on,0,0,3,,,,,,,,,2,,,64,62
108270,note_on,0,0,1,,,,,,,,,0,,,73,75
108270,note_on,120,0,3,,,,,,,,,2,,,45,0
108282,note_on,12,0,3,,,,,,,,,2,,,64,0
108282,note_on,0,0,3,,,,,,,,,2,,,57,0
108330,note_on,60,0,1,,,,,,,,,0,,,73,0
108330,note_on,0,0,1,,,,,,,,,0,,,76,75
108390,note_on,0,0,1,,,,,,,,,0,,,68,75
108390,note_on,108,0,3,,,,,,,,,2,,,57,62
108390,note_on,0,0,3,,,,,,,,,2,,,64,62
108390,note_on,60,0,1,,,,,,,,,0,,,76,0
108402,note_on,12,0,3,,,,,,,,,2,,,64,0
108402,note_on,0,0,3,,,,,,,,,2,,,57,0
108450,note_on,0,0,1,,,,,,,,,0,,,69,75
108450,note_on,60,0,1,,,,,,,,,0,,,68,0
108510,note_on,60,0,1,,,,,,,,,0,,,69,0
108510,note_on,108,0,3,,,,,,,,,2,,,45,62
108510,note_on,0,0,1,,,,,,,,,0,,,73,75
108570,note_on,0,0,1,,,,,,,,,0,,,76,75
108570,note_on,60,0,1,,,,,,,,,0,,,73,0
108630,note_on,0,0,3,,,,,,,,,2,,,64,62
108630,note_on,0,0,3,,,,,,,,,2,,,57,62
108630,note_on,120,0,3,,,,,,,,,2,,,45,0
108630,note_on,0,0,1,,,,,,,,,0,,,79,101
108630,note_on,60,0,1,,,,,,,,,0,,,76,0
108642,note_on,12,0,3,,,,,,,,,2,,,64,0
108642,note_on,0,0,3,,,,,,,,,2,,,57,0
108690,note_on,60,0,1,,,,,,,,,0,,,79,0
108690,note_on,0,0,1,,,,,,,,,0,,,83,75
108750,note_on,0,0,3,,,,,,,,,2,,,64,62
108750,note_on,108,0,3,,,,,,,,,2,,,57,62
108750,note_on,60,0,1,,,,,,,,,0,,,83,0
108750,note_on,0,0,1,,,,,,,,,0,,,81,75
108762,note_on,12,0,3,,,,,,,,,2,,,64,0
108762,note_on,0,0,3,,,,,,,,,2,,,57,0
108810,note_on,60,0,1,,,,,,,,,0,,,81,0
108810,note_on,0,0,1,,,,,,,,,0,,,79,75
108870,note_on,60,0,1,,,,,,,,,0,,,79,0
108870,note_on,0,0,1,,,,,,,,,0,,,78,75
108870,note_on,108,0,3,,,,,,,,,2,,,50,62
108930,note_on,0,0,1,,,,,,,,,0,,,81,75
108930,note_on,60,0,1,,,,,,,,,0,,,78,0
108990,note_on,0,0,1,,,,,,,,,0,,,86,75
108990,note_on,0,0,1,,,,,,,,,0,,,90,75
108990,note_on,60,0,1,,,,,,,,,0,,,81,0
108990,note_on,0,0,3,,,,,,,,,2,,,66,62
108990,note_on,0,0,3,,,,,,,,,2,,,57,62
108990,note_on,0,0,3,,,,,,,,,2,,,62,62
108990,note_on,120,0,3,,,,,,,,,2,,,50,0
109002,note_on,12,0,3,,,,,,,,,2,,,66,0
109002,note_on,0,0,3,,,,,,,,,2,,,62,0
109002,note_on,0,0,3,,,,,,,,,2,,,57,0
109050,note_on,60,0,1,,,,,,,,,0,,,90,0
109050,note_on,0,0,1,,,,,,,,,0,,,86,0
109050,note_on,0,0,1,,,,,,,,,0,,,81,75
109110,note_on,0,0,1,,,,,,,,,0,,,88,75
109110,note_on,0,0,1,,,,,,,,,0,,,85,75
109110,note_on,60,0,1,,,,,,,,,0,,,81,0
109110,note_on,0,0,3,,,,,,,,,2,,,67,62
109110,note_on,0,0,3,,,,,,,,,2,,,64,62
109110,note_on,108,0,3,,,,,,,,,2,,,57,62
109122,note_on,0,0,3,,,,,,,,,2,,,57,0
109122,note_on,12,0,3,,,,,,,,,2,,,67,0
109122,note_on,0,0,3,,,,,,,,,2,,,64,0
109170,note_on,60,0,1,,,,,,,,,0,,,88,0
109170,note_on,0,0,1,,,,,,,,,0,,,85,0
109170,note_on,0,0,1,,,,,,,,,0,,,81,75
109230,note_on,60,0,1,,,,,,,,,0,,,81,0
109230,note_on,0,0,1,,,,,,,,,0,,,86,75
109230,time_signature,2520,1,0,2,4,24,8,,,,,,,,,
109230,note_on,108,0,3,,,,,,,,,2,,,50,62
109350,note_on,120,0,3,,,,,,,,,2,,,50,0
109350,note_on,0,0,3,,,,,,,,,2,,,57,62
109350,note_on,0,0,3,,,,,,,,,2,,,62,62
109350,note_on,0,0,3,,,,,,,,,2,,,66,62
109470,note_on,120,0,3,,,,,,,,,2,,,66,0
109470,note_on,0,0,1,,,,,,,,,0,,,71,114
109470,note_on,240,0,1,,,,,,,,,0,,,86,0
109470,note_on,0,0,3,,,,,,,,,2,,,62,0
109470,note_on,0,0,3,,,,,,,,,2,,,57,0
109470,time_signature,240,1,0,1,4,24,8,,,,,,,,,
109590,note_on,120,0,1,,,,,,,,,0,,,71,0
109590,time_signature,120,1,0,3,4,24,8,,,,,,,,,
109590,note_on,0,0,1,,,,,,,,,0,,,70,88
109590,note_on,120,0,3,,,,,,,,,2,,,47,75
109650,note_on,60,0,1,,,,,,,,,0,,,70,0
109650,note_on,0,0,1,,,,,,,,,0,,,71,88
109710,note_on,60,0,1,,,,,,,,,0,,,71,0
109710,note_on,0,0,3,,,,,,,,,2,,,69,75
109710,note_on,0,0,3,,,,,,,,,2,,,66,75
109710,note_on,0,0,3,,,,,,,,,2,,,63,75
109710,note_on,0,0,3,,,,,,,,,2,,,59,75
109710,note_on,0,0,1,,,,,,,,,0,,,76,106
109710,note_on,0,0,1,,,,,,,,,0,,,79,114
109710,note_on,120,0,3,,,,,,,,,2,,,47,0
109722,note_on,0,0,3,,,,,,,,,2,,,63,0
109722,note_on,12,0,3,,,,,,,,,2,,,69,0
109722,note_on,0,0,3,,,,,,,,,2,,,59,0
109722,note_on,0,0,3,,,,,,,,,2,,,66,0
109770,note_on,0,0,1,,,,,,,,,0,,,76,0
109770,note_on,0,0,1,,,,,,,,,0,,,71,88
109770,note_on,60,0,1,,,,,,,,,0,,,79,0
109830,note_on,0,0,3,,,,,,,,,2,,,66,75
109830,note_on,0,0,1,,,,,,,,,0,,,75,88
109830,note_on,0,0,1,,,,,,,,,0,,,78,88
109830,note_on,0,0,3,,,,,,,,,2,,,63,75
109830,note_on,60,0,1,,,,,,,,,0,,,71,0
109830,note_on,0,0,3,,,,,,,,,2,,,69,75
109830,note_on,108,0,3,,,,,,,,,2,,,59,75
109842,note_on,0,0,3,,,,,,,,,2,,,59,0
109842,note_on,12,0,3,,,,,,,,,2,,,69,0
109842,note_on,0,0,3,,,,,,,,,2,,,63,0
109842,note_on,0,0,3,,,,,,,,,2,,,66,0
109890,note_on,60,0,1,,,,,,,,,0,,,78,0
109890,note_on,0,0,1,,,,,,,,,0,,,71,88
109890,note_on,0,0,1,,,,,,,,,0,,,75,0
109950,note_on,0,0,1,,,,,,,,,0,,,81,88
109950,note_on,0,0,1,,,,,,,,,0,,,78,88
109950,note_on,60,0,1,,,,,,,,,0,,,71,0
109950,note_on,108,0,3,,,,,,,,,2,,,52,75
110010,note_on,0,0,1,,,,,,,,,0,,,78,0
110010,note_on,60,0,1,,,,,,,,,0,,,81,0
110010,note_on,0,0,1,,,,,,,,,0,,,71,88
110070,note_on,0,0,3,,,,,,,,,2,,,64,75
110070,note_on,0,0,3,,,,,,,,,2,,,67,75
110070,note_on,0,0,3,,,,,,,,,2,,,59,75
110070,note_on,120,0,3,,,,,,,,,2,,,52,0
110070,note_on,60,0,1,,,,,,,,,0,,,71,0
110070,note_on,0,0,1,,,,,,,,,0,,,79,88
110070,note_on,0,0,1,,,,,,,,,0,,,76,88
110082,note_on,0,0,3,,,,,,,,,2,,,59,0
110082,note_on,0,0,3,,,,,,,,,2,,,64,0
110082,note_on,12,0,3,,,,,,,,,2,,,67,0
110130,note_on,0,0,1,,,,,,,,,0,,,71,88
110130,note_on,0,0,1,,,,,,,,,0,,,76,0
110130,note_on,60,0,1,,,,,,,,,0,,,79,0
110190,note_on,0,0,3,,,,,,,,,2,,,67,75
110190,note_on,0,0,3,,,,,,,,,2,,,64,75
110190,note_on,108,0,3,,,,,,,,,2,,,59,75
110190,note_on,60,0,1,,,,,,,,,0,,,71,0
110190,note_on,0,0,1,,,,,,,,,0,,,83,114
110190,note_on,0,0,1,,,,,,,,,0,,,79,106
110202,note_on,0,0,3,,,,,,,,,2,,,64,0
110202,note_on,12,0,3,,,,,,,,,2,,,67,0
110202,note_on,0,0,3,,,,,,,,,2,,,59,0
110310,note_on,0,0,1,,,,,,,,,0,,,68,88
110310,note_on,120,0,1,,,,,,,,,0,,,83,0
110310,note_on,0,0,1,,,,,,,,,0,,,79,0
110310,note_on,108,0,3,,,,,,,,,2,,,45,75
110370,note_on,60,0,1,,,,,,,,,0,,,68,0
110370,note_on,0,0,1,,,,,,,,,0,,,69,88
110430,note_on,120,0,3,,,,,,,,,2,,,45,0
110430,note_on,0,0,3,,,,,,,,,2,,,57,75
110430,note_on,0,0,3,,,,,,,,,2,,,61,75
110430,note_on,0,0,3,,,,,,,,,2,,,64,75
110430,note_on,0,0,3,,,,,,,,,2,,,67,75
110430,note_on,0,0,1,,,,,,,,,0,,,78,114
110430,note_on,0,0,1,,,,,,,,,0,,,74,106
110430,note_on,60,0,1,,,,,,,,,0,,,69,0
110442,note_on,12,0,3,,,,,,,,,2,,,67,0
110442,note_on,0,0,3,,,,,,,,,2,,,57,0
110442,note_on,0,0,3,,,,,,,,,2,,,61,0
110442,note_on,0,0,3,,,,,,,,,2,,,64,0
110490,note_on,0,0,1,,,,,,,,,0,,,69,88
110490,note_on,0,0,1,,,,,,,,,0,,,74,0
110490,note_on,60,0,1,,,,,,,,,0,,,78,0
110550,note_on,0,0,1,,,,,,,,,0,,,76,88
110550,note_on,0,0,1,,,,,,,,,0,,,73,88
110550,note_on,60,0,1,,,,,,,,,0,,,69,0
110550,note_on,0,0,3,,,,,,,,,2,,,67,75
110550,note_on,0,0,3,,,,,,,,,2,,,64,75
110550,note_on,0,0,3,,,,,,,,,2,,,61,75
110550,note_on,108,0,3,,,,,,,,,2,,,57,75
110562,note_on,0,0,3,,,,,,,,,2,,,64,0
110562,note_on,0,0,3,,,,,,,,,2,,,57,0
110562,note_on,12,0,3,,,,,,,,,2,,,67,0
110562,note_on,0,0,3,,,,,,,,,2,,,61,0
110610,note_on,60,0,1,,,,,,,,,0,,,76,0
110610,note_on,0,0,1,,,,,,,,,0,,,69,88
110610,note_on,0,0,1,,,,,,,,,0,,,73,0
110670,note_on,0,0,1,,,,,,,,,0,,,79,88
110670,note_on,60,0,1,,,,,,,,,0,,,69,0
110670,note_on,108,0,3,,,,,,,,,2,,,50,75
110670,note_on,0,0,1,,,,,,,,,0,,,76,88
110730,note_on,0,0,1,,,,,,,,,0,,,69,88
110730,note_on,0,0,1,,,,,,,,,0,,,76,0
110730,note_on,60,0,1,,,,,,,,,0,,,79,0
110790,note_on,0,0,3,,,,,,,,,2,,,57,75
110790,note_on,120,0,3,,,,,,,,,2,,,50,0
110790,note_on,0,0,1,,,,,,,,,0,,,78,88
110790,note_on,0,0,1,,,,,,,,,0,,,74,88
110790,note_on,60,0,1,,,,,,,,,0,,,69,0
110790,note_on,0,0,3,,,,,,,,,2,,,62,75
110790,note_on,0,0,3,,,,,,,,,2,,,66,75
110802,note_on,0,0,3,,,,,,,,,2,,,62,0
110802,note_on,0,0,3,,,,,,,,,2,,,57,0
110802,note_on,12,0,3,,,,,,,,,2,,,66,0
110850,note_on,60,0,1,,,,,,,,,0,,,78,0
110850,note_on,0,0,1,,,,,,,,,0,,,74,0
110850,note_on,0,0,1,,,,,,,,,0,,,69,88
110910,note_on,0,0,1,,,,,,,,,0,,,81,114
110910,note_on,108,0,3,,,,,,,,,2,,,57,75
110910,note_on,60,0,1,,,,,,,,,0,,,69,0
110910,note_on,0,0,3,,,,,,,,,2,,,62,75
110910,note_on,0,0,1,,,,,,,,,0,,,78,106
110910,note_on,0,0,3,,,,,,,,,2,,,66,75
110922,note_on,0,0,3,,,,,,,,,2,,,57,0
110922,note_on,0,0,3,,,,,,,,,2,,,62,0
110922,note_on,12,0,3,,,,,,,,,2,,,66,0
111030,note_on,120,0,1,,,,,,,,,0,,,81,0
111030,note_on,0,0,1,,,,,,,,,0,,,78,0
111030,note_on,0,0,1,,,,,,,,,0,,,68,88
111030,note_on,108,0,3,,,,,,,,,2,,,50,75
111090,note_on,60,0,1,,,,,,,,,0,,,68,0
111090,note_on,0,0,1,,,,,,,,,0,,,69,88
111150,note_on,0,0,3,,,,,,,,,2,,,66,75
111150,note_on,0,0,3,,,,,,,,,2,,,57,75
111150,note_on,0,0,1,,,,,,,,,0,,,74,88
111150,note_on,60,0,1,,,,,,,,,0,,,69,0
111150,note_on,120,0,3,,,,,,,,,2,,,50,0
111150,note_on,0,0,3,,,,,,,,,2,,,62,75
111162,note_on,0,0,3,,,,,,,,,2,,,62,0
111162,note_on,0,0,3,,,,,,,,,2,,,57,0
111162,note_on,12,0,3,,,,,,,,,2,,,66,0
111210,note_on,60,0,1,,,,,,,,,0,,,74,0
111210,note_on,0,0,1,,,,,,,,,0,,,78,88
111270,note_on,60,0,1,,,,,,,,,0,,,78,0
111270,note_on,0,0,1,,,,,,,,,0,,,68,88
111270,note_on,0,0,3,,,,,,,,,2,,,62,75
111270,note_on,108,0,3,,,,,,,,,2,,,57,75
111270,note_on,0,0,3,,,,,,,,,2,,,66,75
111282,note_on,0,0,3,,,,,,,,,2,,,62,0
111282,note_on,0,0,3,,,,,,,,,2,,,57,0
111282,note_on,12,0,3,,,,,,,,,2,,,66,0
111330,note_on,0,0,1,,,,,,,,,0,,,69,88
111330,note_on,60,0,1,,,,,,,,,0,,,68,0
111390,note_on,108,0,3,,,,,,,,,2,,,50,75
111390,note_on,0,0,1,,,,,,,,,0,,,74,88
111390,note_on,60,0,1,,,,,,,,,0,,,69,0
111450,note_on,60,0,1,,,,,,,,,0,,,74,0
111450,note_on,0,0,1,,,,,,,,,0,,,78,88
111510,note_on,0,0,3,,,,,,,,,2,,,66,75
111510,note_on,60,0,1,,,,,,,,,0,,,78,0
111510,note_on,0,0,3,,,,,,,,,2,,,62,75
111510,note_on,0,0,3,,,,,,,,,2,,,57,75
111510,note_on,120,0,3,,,,,,,,,2,,,50,0
111510,note_on,0,0,1,,,,,,,,,0,,,81,114
111522,note_on,12,0,3,,,,,,,,,2,,,66,0
111522,note_on,0,0,3,,,,,,,,,2,,,57,0
111522,note_on,0,0,3,,,,,,,,,2,,,62,0
111570,note_on,0,0,1,,,,,,,,,0,,,86,88
111570,note_on,60,0,1,,,,,,,,,0,,,81,0
111630,note_on,0,0,3,,,,,,,,,2,,,62,75
111630,note_on,0,0,3,,,,,,,,,2,,,66,75
111630,note_on,60,0,1,,,,,,,,,0,,,86,0
111630,note_on,0,0,1,,,,,,,,,0,,,90,88
111630,note_on,108,0,3,,,,,,,,,2,,,57,75
111642,note_on,0,0,3,,,,,,,,,2,,,57,0
111642,note_on,12,0,3,,,,,,,,,2,,,66,0
111642,note_on,0,0,3,,,,,,,,,2,,,62,0
111690,note_on,60,0,1,,,,,,,,,0,,,90,0
111690,note_on,0,0,1,,,,,,,,,0,,,93,88
111750,note_on,60,0,1,,,,,,,,,0,,,93,0
111750,note_on,0,0,1,,,,,,,,,0,,,91,101
111750,note_on,0,0,1,,,,,,,,,0,,,95,101
111750,note_on,108,0,3,,,,,,,,,2,,,45,88
111810,note_on,60,0,1,,,,,,,,,0,,,95,0
111810,note_on,0,0,1,,,,,,,,,0,,,91,0
111810,note_on,0,0,1,,,,,,,,,0,,,81,101
111870,note_on,0,0,3,,,,,,,,,2,,,67,88
111870,note_on,0,0,3,,,,,,,,,2,,,57,88
111870,note_on,120,0,3,,,,,,,,,2,,,45,0
111870,note_on,0,0,3,,,,,,,,,2,,,61,88
111870,note_on,60,0,1,,,,,,,,,0,,,81,0
111870,note_on,0,0,1,,,,,,,,,0,,,88,101
111870,note_on,0,0,1,,,,,,,,,0,,,91,101
111882,note_on,0,0,3,,,,,,,,,2,,,57,0
111882,note_on,0,0,3,,,,,,,,,2,,,61,0
111882,note_on,12,0,3,,,,,,,,,2,,,67,0
111930,note_on,60,0,1,,,,,,,,,0,,,91,0
111930,note_on,0,0,1,,,,,,,,,0,,,81,101
111930,note_on,0,0,1,,,,,,,,,0,,,88,0
111990,note_on,0,0,1,,,,,,,,,0,,,88,101
111990,note_on,0,0,1,,,,,,,,,0,,,85,101
111990,note_on,0,0,3,,,,,,,,,2,,,64,88
111990,note_on,108,0,3,,,,,,,,,2,,,57,88
111990,note_on,0,0,3,,,,,,,,,2,,,67,88
111990,note_on,60,0,1,,,,,,,,,0,,,81,0
112002,note_on,12,0,3,,,,,,,,,2,,,67,0
112002,note_on,0,0,3,,,,,,,,,2,,,64,0
112002,note_on,0,0,3,,,,,,,,,2,,,57,0
112050,note_on,0,0,1,,,,,,,,,0,,,81,101
112050,note_on,60,0,1,,,,,,,,,0,,,88,0
112050,note_on,0,0,1,,,,,,,,,0,,,85,0
112110,time_signature,2520,1,0,2,4,24,8,,,,,,,,,
112110,note_on,60,0,1,,,,,,,,,0,,,81,0
112110,note_on,0,0,1,,,,,,,,,0,,,86,101
112110,note_on,108,0,3,,,,,,,,,2,,,50,88
112230,note_on,0,0,3,,,,,,,,,2,,,66,88
112230,note_on,0,0,3,,,,,,,,,2,,,57,88
112230,note_on,0,0,3,,,,,,,,,2,,,62,88
112230,note_on,120,0,3,,,,,,,,,2,,,50,0
112350,note_on,240,0,1,,,,,,,,,0,,,86,0
112350,note_on,120,0,3,,,,,,,,,2,,,66,0
112350,note_on,0,0,3,,,,,,,,,2,,,62,0
112350,note_on,0,0,3,,,,,,,,,2,,,57,0
112350,note_on,0,0,1,,,,,,,,,0,,,71,114
112350,time_signature,240,1,0,1,4,24,8,,,,,,,,,
112470,time_signature,120,1,0,3,4,24,8,,,,,,,,,
112470,note_on,120,0,3,,,,,,,,,2,,,47,75
112470,note_on,120,0,1,,,,,,,,,0,,,71,0
112470,note_on,0,0,1,,,,,,,,,0,,,70,88
112530,note_on,60,0,1,,,,,,,,,0,,,70,0
112530,note_on,0,0,1,,,,,,,,,0,,,71,88
112590,note_on,120,0,3,,,,,,,,,2,,,47,0
112590,note_on,0,0,3,,,,,,,,,2,,,59,75
112590,note_on,0,0,3,,,,,,,,,2,,,69,75
112590,note_on,0,0,3,,,,,,,,,2,,,63,75
112590,note_on,60,0,1,,,,,,,,,0,,,71,0
112590,note_on,0,0,3,,,,,,,,,2,,,66,75
112590,note_on,0,0,1,,,,,,,,,0,,,76,106
112590,note_on,0,0,1,,,,,,,,,0,,,79,114
112602,note_on,12,0,3,,,,,,,,,2,,,69,0
112602,note_on,0,0,3,,,,,,,,,2,,,59,0
112602,note_on,0,0,3,,,,,,,,,2,,,63,0
112602,note_on,0,0,3,,,,,,,,,2,,,66,0
112650,note_on,0,0,1,,,,,,,,,0,,,71,88
112650,note_on,0,0,1,,,,,,,,,0,,,76,0
112650,note_on,60,0,1,,,,,,,,,0,,,79,0
112710,note_on,0,0,1,,,,,,,,,0,,,78,88
112710,note_on,0,0,1,,,,,,,,,0,,,75,88
112710,note_on,60,0,1,,,,,,,,,0,,,71,0
112710,note_on,0,0,3,,,,,,,,,2,,,69,75
112710,note_on,0,0,3,,,,,,,,,2,,,66,75
112710,note_on,0,0,3,,,,,,,,,2,,,63,75
112710,note_on,108,0,3,,,,,,,,,2,,,59,75
112722,note_on,0,0,3,,,,,,,,,2,,,66,0
112722,note_on,0,0,3,,,,,,,,,2,,,63,0
112722,note_on,0,0,3,,,,,,,,,2,,,59,0
112722,note_on,12,0,3,,,,,,,,,2,,,69,0
112770,note_on,60,0,1,,,,,,,,,0,,,78,0
112770,note_on,0,0,1,,,,,,,,,0,,,71,88
112770,note_on,0,0,1,,,,,,,,,0,,,75,0
112830,note_on,0,0,1,,,,,,,,,0,,,78,88
112830,note_on,108,0,3,,,,,,,,,2,,,52,75
112830,note_on,60,0,1,,,,,,,,,0,,,71,0
112830,note_on,0,0,1,,,,,,,,,0,,,81,88
112890,note_on,60,0,1,,,,,,,,,0,,,81,0
112890,note_on,0,0,1,,,,,,,,,0,,,78,0
112890,note_on,0,0,1,,,,,,,,,0,,,71,88
112950,note_on,60,0,1,,,,,,,,,0,,,71,0
112950,note_on,0,0,1,,,,,,,,,0,,,76,88
112950,note_on,0,0,1,,,,,,,,,0,,,79,88
112950,note_on,0,0,3,,,,,,,,,2,,,67,75
112950,note_on,0,0,3,,,,,,,,,2,,,64,75
112950,note_on,0,0,3,,,,,,,,,2,,,59,75
112950,note_on,120,0,3,,,,,,,,,2,,,52,0
112962,note_on,0,0,3,,,,,,,,,2,,,59,0
112962,note_on,0,0,3,,,,,,,,,2,,,64,0
112962,note_on,12,0,3,,,,,,,,,2,,,67,0
113010,note_on,0,0,1,,,,,,,,,0,,,76,0
113010,note_on,60,0,1,,,,,,,,,0,,,79,0
113010,note_on,0,0,1,,,,,,,,,0,,,71,88
113070,note_on,0,0,3,,,,,,,,,2,,,64,75
113070,note_on,108,0,3,,,,,,,,,2,,,59,75
113070,note_on,0,0,3,,,,,,,,,2,,,67,75
113070,note_on,0,0,1,,,,,,,,,0,,,83,114
113070,note_on,0,0,1,,,,,,,,,0,,,79,106
113070,note_on,60,0,1,,,,,,,,,0,,,71,0
113082,note_on,0,0,3,,,,,,,,,2,,,64,0
113082,note_on,12,0,3,,,,,,,,,2,,,67,0
113082,note_on,0,0,3,,,,,,,,,2,,,59,0
113190,note_on,0,0,1,,,,,,,,,0,,,68,88
113190,note_on,0,0,1,,,,,,,,,0,,,79,0
113190,note_on,120,0,1,,,,,,,,,0,,,83,0
113190,note_on,108,0,3,,,,,,,,,2,,,45,75
113250,note_on,60,0,1,,,,,,,,,0,,,68,0
113250,note_on,0,0,1,,,,,,,,,0,,,69,88
113310,note_on,0,0,3,,,,,,,,,2,,,64,75
113310,note_on,0,0,3,,,,,,,,,2,,,61,75
113310,note_on,0,0,3,,,,,,,,,2,,,57,75
113310,note_on,120,0,3,,,,,,,,,2,,,45,0
113310,note_on,0,0,1,,,,,,,,,0,,,78,114
113310,note_on,0,0,3,,,,,,,,,2,,,67,75
113310,note_on,60,0,1,,,,,,,,,0,,,69,0
113310,note_on,0,0,1,,,,,,,,,0,,,74,106
113322,note_on,0,0,3,,,,,,,,,2,,,64,0
113322,note_on,0,0,3,,,,,,,,,2,,,61,0
113322,note_on,0,0,3,,,,,,,,,2,,,57,0
113322,note_on,12,0,3,,,,,,,,,2,,,67,0
113370,note_on,0,0,1,,,,,,,,,0,,,74,0
113370,note_on,60,0,1,,,,,,,,,0,,,78,0
113370,note_on,0,0,1,,,,,,,,,0,,,69,88
113430,note_on,0,0,3,,,,,,,,,2,,,67,75
113430,note_on,0,0,3,,,,,,,,,2,,,64,75
113430,note_on,0,0,1,,,,,,,,,0,,,73,88
113430,note_on,108,0,3,,,,,,,,,2,,,57,75
113430,note_on,60,0,1,,,,,,,,,0,,,69,0
113430,note_on,0,0,1,,,,,,,,,0,,,76,88
113430,note_on,0,0,3,,,,,,,,,2,,,61,75
113442,note_on,12,0,3,,,,,,,,,2,,,67,0
113442,note_on,0,0,3,,,,,,,,,2,,,57,0
113442,note_on,0,0,3,,,,,,,,,2,,,64,0
113442,note_on,0,0,3,,,,,,,,,2,,,61,0
113490,note_on,0,0,1,,,,,,,,,0,,,73,0
113490,note_on,60,0,1,,,,,,,,,0,,,76,0
113490,note_on,0,0,1,,,,,,,,,0,,,69,88
113550,note_on,108,0,3,,,,,,,,,2,,,50,75
113550,note_on,0,0,1,,,,,,,,,0,,,79,88
113550,note_on,0,0,1,,,,,,,,,0,,,76,88
113550,note_on,60,0,1,,,,,,,,,0,,,69,0
113610,note_on,0,0,1,,,,,,,,,0,,,69,88
113610,note_on,0,0,1,,,,,,,,,0,,,76,0
113610,note_on,60,0,1,,,,,,,,,0,,,79,0
113670,note_on,60,0,1,,,,,,,,,0,,,69,0
113670,note_on,0,0,1,,,,,,,,,0,,,74,88
113670,note_on,0,0,3,,,,,,,,,2,,,66,75
113670,note_on,0,0,3,,,,,,,,,2,,,62,75
113670,note_on,0,0,3,,,,,,,,,2,,,57,75
113670,note_on,120,0,3,,,,,,,,,2,,,50,0
113670,note_on,0,0,1,,,,,,,,,0,,,78,88
113682,note_on,12,0,3,,,,,,,,,2,,,66,0
113682,note_on,0,0,3,,,,,,,,,2,,,62,0
113682,note_on,0,0,3,,,,,,,,,2,,,57,0
113730,note_on,60,0,1,,,,,,,,,0,,,78,0
113730,note_on,0,0,1,,,,,,,,,0,,,74,0
113730,note_on,0,0,1,,,,,,,,,0,,,69,88
113790,note_on,0,0,3,,,,,,,,,2,,,66,75
113790,note_on,0,0,3,,,,,,,,,2,,,62,75
113790,note_on,60,0,1,,,,,,,,,0,,,69,0
113790,note_on,0,0,1,,,,,,,,,0,,,78,106
113790,note_on,0,0,1,,,,,,,,,0,,,81,114
113790,note_on,108,0,3,,,,,,,,,2,,,57,75
113802,note_on,0,0,3,,,,,,,,,2,,,62,0
113802,note_on,12,0,3,,,,,,,,,2,,,66,0
113802,note_on,0,0,3,,,,,,,,,2,,,57,0
113910,note_on,120,0,1,,,,,,,,,0,,,81,0
113910,note_on,108,0,3,,,,,,,,,2,,,50,75
113910,note_on,0,0,1,,,,,,,,,0,,,78,0
113910,note_on,0,0,1,,,,,,,,,0,,,68,88
113970,note_on,60,0,1,,,,,,,,,0,,,68,0
113970,note_on,0,0,1,,,,,,,,,0,,,69,88
114030,note_on,0,0,3,,,,,,,,,2,,,57,75
114030,note_on,0,0,3,,,,,,,,,2,,,62,75
114030,note_on,0,0,3,,,,,,,,,2,,,66,75
114030,note_on,0,0,1,,,,,,,,,0,,,74,88
114030,note_on,60,0,1,,,,,,,,,0,,,69,0
114030,note_on,120,0,3,,,,,,,,,2,,,50,0
114042,note_on,12,0,3,,,,,,,,,2,,,66,0
114042,note_on,0,0,3,,,,,,,,,2,,,62,0
114042,note_on,0,0,3,,,,,,,,,2,,,57,0
114090,note_on,0,0,1,,,,,,,,,0,,,78,88
114090,note_on,60,0,1,,,,,,,,,0,,,74,0
114150,note_on,0,0,3,,,,,,,,,2,,,62,75
114150,note_on,108,0,3,,,,,,,,,2,,,57,75
114150,note_on,60,0,1,,,,,,,,,0,,,78,0
114150,note_on,0,0,3,,,,,,,,,2,,,66,75
114150,note_on,0,0,1,,,,,,,,,0,,,68,88
114162,note_on,12,0,3,,,,,,,,,2,,,66,0
114162,note_on,0,0,3,,,,,,,,,2,,,62,0
114162,note_on,0,0,3,,,,,,,,,2,,,57,0
114210,note_on,60,0,1,,,,,,,,,0,,,68,0
114210,note_on,0,0,1,,,,,,,,,0,,,69,88
114270,note_on,108,0,3,,,,,,,,,2,,,50,75
114270,note_on,60,0,1,,,,,,,,,0,,,69,0
114270,note_on,0,0,1,,,,,,,,,0,,,74,88
114330,note_on,60,0,1,,,,,,,,,0,,,74,0
114330,note_on,0,0,1,,,,,,,,,0,,,78,88
114390,note_on,60,0,1,,,,,,,,,0,,,78,0
114390,note_on,0,0,3,,,,,,,,,2,,,62,75
114390,note_on,0,0,1,,,,,,,,,0,,,81,114
114390,note_on,0,0,3,,,,,,,,,2,,,57,75
114390,note_on,0,0,3,,,,,,,,,2,,,66,75
114390,note_on,120,0,3,,,,,,,,,2,,,50,0
114402,note_on,0,0,3,,,,,,,,,2,,,57,0
114402,note_on,0,0,3,,,,,,,,,2,,,62,0
114402,note_on,12,0,3,,,,,,,,,2,,,66,0
114450,note_on,60,0,1,,,,,,,,,0,,,81,0
114450,note_on,0,0,1,,,,,,,,,0,,,86,88
114510,note_on,0,0,3,,,,,,,,,2,,,66,75
114510,note_on,60,0,1,,,,,,,,,0,,,86,0
114510,note_on,0,0,1,,,,,,,,,0,,,90,88
114510,note_on,0,0,3,,,,,,,,,2,,,62,75
114510,note_on,108,0,3,,,,,,,,,2,,,57,75
114522,note_on,12,0,3,,,,,,,,,2,,,66,0
114522,note_on,0,0,3,,,,,,,,,2,,,62,0
114522,note_on,0,0,3,,,,,,,,,2,,,57,0
114570,note_on,0,0,1,,,,,,,,,0,,,93,88
114570,note_on,60,0,1,,,,,,,,,0,,,90,0
114630,note_on,0,0,1,,,,,,,,,0,,,95,101
114630,note_on,108,0,3,,,,,,,,,2,,,45,88
114630,note_on,0,0,1,,,,,,,,,0,,,91,101
114630,note_on,60,0,1,,,,,,,,,0,,,93,0
114690,note_on,60,0,1,,,,,,,,,0,,,95,0
114690,note_on,0,0,1,,,,,,,,,0,,,91,0
114690,note_on,0,0,1,,,,,,,,,0,,,81,101
114750,note_on,0,0,3,,,,,,,,,2,,,67,88
114750,note_on,0,0,3,,,,,,,,,2,,,57,88
114750,note_on,60,0,1,,,,,,,,,0,,,81,0
114750,note_on,0,0,1,,,,,,,,,0,,,88,101
114750,note_on,0,0,1,,,,,,,,,0,,,91,101
114750,note_on,120,0,3,,,,,,,,,2,,,45,0
114750,note_on,0,0,3,,,,,,,,,2,,,61,88
114762,note_on,12,0,3,,,,,,,,,2,,,67,0
114762,note_on,0,0,3,,,,,,,,,2,,,61,0
114762,note_on,0,0,3,,,,,,,,,2,,,57,0
114810,note_on,0,0,1,,,,,,,,,0,,,81,101
114810,note_on,0,0,1,,,,,,,,,0,,,88,0
114810,note_on,60,0,1,,,,,,,,,0,,,91,0
114870,note_on,0,0,3,,,,,,,,,2,,,67,88
114870,note_on,0,0,3,,,,,,,,,2,,,64,88
114870,note_on,0,0,1,,,,,,,,,0,,,85,101
114870,note_on,60,0,1,,,,,,,,,0,,,81,0
114870,note_on,0,0,1,,,,,,,,,0,,,88,101
114870,note_on,108,0,3,,,,,,,,,2,,,57,88
114882,note_on,0,0,3,,,,,,,,,2,,,64,0
114882,note_on,12,0,3,,,,,,,,,2,,,67,0
114882,note_on,0,0,3,,,,,,,,,2,,,57,0
114930,note_on,0,0,1,,,,,,,,,0,,,81,101
114930,note_on,0,0,1,,,,,,,,,0,,,85,0
114930,note_on,60,0,1,,,,,,,,,0,,,88,0
114990,note_on,60,0,1,,,,,,,,,0,,,81,0
114990,note_on,108,0,3,,,,,,,,,2,,,50,88
114990,time_signature,2520,1,0,7,16,6,8,,,,,,,,,
114990,note_on,0,0,1,,,,,,,,,0,,,86,101
115110,note_on,0,0,3,,,,,,,,,2,,,62,88
115110,note_on,0,0,3,,,,,,,,,2,,,66,88
115110,note_on,120,0,3,,,,,,,,,2,,,50,0
115110,note_on,0,0,3,,,,,,,,,2,,,57,88
115200,note_on,90,0,3,,,,,,,,,2,,,66,0
115200,note_on,0,0,3,,,,,,,,,2,,,62,0
115200,note_on,0,0,1,,,,,,,,,0,,,74,49
115200,note_on,210,0,1,,,,,,,,,0,,,86,0
115200,time_signature,210,1,0,5,16,6,8,,,,,,,,,
115200,note_on,0,0,3,,,,,,,,,2,,,57,0
115200,key_signature,0,1,0,,,,,G,,,,,,,,
115204,note_on,4,0,1,,,,,,,,,0,,,74,0
115230,note_on,26,0,1,,,,,,,,,0,,,74,49
115239,note_on,9,0,1,,,,,,,,,0,,,74,0
115320,note_on,81,0,1,,,,,,,,,0,,,74,49
115324,note_on,4,0,1,,,,,,,,,0,,,74,0
115350,note_on,26,0,1,,,,,,,,,0,,,74,49
115350,note_on,150,0,3,,,,,,,,,2,,,43,36
115350,time_signature,150,1,0,3,4,24,8,,,,,,,,,
115410,note_on,60,0,1,,,,,,,,,0,,,74,0
115410,note_on,0,0,1,,,,,,,,,0,,,73,49
115416,note_on,6,0,1,,,,,,,,,0,,,73,0
115470,note_on,54,0,1,,,,,,,,,0,,,73,75
115470,note_on,0,0,3,,,,,,,,,2,,,50,36
115470,note_on,0,0,3,,,,,,,,,2,,,55,36
115470,note_on,0,0,3,,,,,,,,,2,,,59,36
115470,note_on,120,0,3,,,,,,,,,2,,,43,0
115482,note_on,0,0,3,,,,,,,,,2,,,55,0
115482,note_on,0,0,3,,,,,,,,,2,,,50,0
115482,note_on,12,0,3,,,,,,,,,2,,,59,0
115530,note_on,60,0,1,,,,,,,,,0,,,73,0
115530,note_on,0,0,1,,,,,,,,,0,,,74,49
115536,note_on,6,0,1,,,,,,,,,0,,,74,0
115590,note_on,108,0,3,,,,,,,,,2,,,50,36
115590,note_on,0,0,3,,,,,,,,,2,,,59,36
115590,note_on,0,0,3,,,,,,,,,2,,,55,36
115590,note_on,54,0,1,,,,,,,,,0,,,74,49
115602,note_on,0,0,3,,,,,,,,,2,,,50,0
115602,note_on,0,0,3,,,,,,,,,2,,,55,0
115602,note_on,12,0,3,,,,,,,,,2,,,59,0
115650,note_on,60,0,1,,,,,,,,,0,,,74,0
115650,note_on,0,0,1,,,,,,,,,0,,,71,49
115656,note_on,6,0,1,,,,,,,,,0,,,71,0
115710,note_on,108,0,3,,,,,,,,,2,,,43,36
115710,note_on,54,0,1,,,,,,,,,0,,,71,49
115770,note_on,0,0,1,,,,,,,,,0,,,74,49
115770,note_on,60,0,1,,,,,,,,,0,,,71,0
115776,note_on,6,0,1,,,,,,,,,0,,,74,0
115830,note_on,0,0,3,,,,,,,,,2,,,59,36
115830,note_on,0,0,3,,,,,,,,,2,,,55,36
115830,note_on,0,0,3,,,,,,,,,2,,,50,36
115830,note_on,54,0,1,,,,,,,,,0,,,74,49
115830,note_on,120,0,3,,,,,,,,,2,,,43,0
115842,note_on,0,0,3,,,,,,,,,2,,,50,0
115842,note_on,0,0,3,,,,,,,,,2,,,55,0
115842,note_on,12,0,3,,,,,,,,,2,,,59,0
115890,note_on,0,0,1,,,,,,,,,0,,,79,49
115890,note_on,60,0,1,,,,,,,,,0,,,74,0
115896,note_on,6,0,1,,,,,,,,,0,,,79,0
115950,note_on,54,0,1,,,,,,,,,0,,,79,49
115950,note_on,108,0,3,,,,,,,,,2,,,50,36
115950,note_on,0,0,3,,,,,,,,,2,,,55,36
115950,note_on,0,0,3,,,,,,,,,2,,,59,36
115962,note_on,12,0,3,,,,,,,,,2,,,59,0
115962,note_on,0,0,3,,,,,,,,,2,,,50,0
115962,note_on,0,0,3,,,,,,,,,2,,,55,0
116010,note_on,0,0,1,,,,,,,,,0,,,74,49
116010,note_on,60,0,1,,,,,,,,,0,,,79,0
116016,note_on,6,0,1,,,,,,,,,0,,,74,0
116070,note_on,54,0,1,,,,,,,,,0,,,74,49
116070,note_on,108,0,3,,,,,,,,,2,,,42,36
116130,note_on,0,0,1,,,,,,,,,0,,,73,49
116130,note_on,60,0,1,,,,,,,,,0,,,74,0
116136,note_on,6,0,1,,,,,,,,,0,,,73,0
116190,note_on,54,0,1,,,,,,,,,0,,,73,49
116190,note_on,0,0,3,,,,,,,,,2,,,50,36
116190,note_on,120,0,3,,,,,,,,,2,,,42,0
116190,note_on,0,0,3,,,,,,,,,2,,,57,36
116190,note_on,0,0,3,,,,,,,,,2,,,60,36
116202,note_on,12,0,3,,,,,,,,,2,,,60,0
116202,note_on,0,0,3,,,,,,,,,2,,,57,0
116202,note_on,0,0,3,,,,,,,,,2,,,50,0
116250,note_on,60,0,1,,,,,,,,,0,,,73,0
116250,note_on,0,0,1,,,,,,,,,0,,,74,49
116256,note_on,6,0,1,,,,,,,,,0,,,74,0
116310,note_on,0,0,3,,,,,,,,,2,,,57,36
116310,note_on,108,0,3,,,,,,,,,2,,,50,36
116310,note_on,0,0,3,,,,,,,,,2,,,60,36
116310,note_on,54,0,1,,,,,,,,,0,,,74,49
116322,note_on,0,0,3,,,,,,,,,2,,,50,0
116322,note_on,0,0,3,,,,,,,,,2,,,57,0
116322,note_on,12,0,3,,,,,,,,,2,,,60,0
116370,note_on,60,0,1,,,,,,,,,0,,,74,0
116370,note_on,0,0,1,,,,,,,,,0,,,69,49
116376,note_on,6,0,1,,,,,,,,,0,,,69,0
116430,note_on,54,0,1,,,,,,,,,0,,,69,49
116430,note_on,108,0,3,,,,,,,,,2,,,42,36
116490,note_on,60,0,1,,,,,,,,,0,,,69,0
116490,note_on,0,0,1,,,,,,,,,0,,,74,49
116496,note_on,6,0,1,,,,,,,,,0,,,74,0
116550,note_on,54,0,1,,,,,,,,,0,,,74,49
116550,note_on,120,0,3,,,,,,,,,2,,,42,0
116550,note_on,0,0,3,,,,,,,,,2,,,50,36
116550,note_on,0,0,3,,,,,,,,,2,,,57,36
116550,note_on,0,0,3,,,,,,,,,2,,,60,36
116562,note_on,12,0,3,,,,,,,,,2,,,60,0
116562,note_on,0,0,3,,,,,,,,,2,,,57,0
116562,note_on,0,0,3,,,,,,,,,2,,,50,0
116610,note_on,0,0,1,,,,,,,,,0,,,81,49
116610,note_on,60,0,1,,,,,,,,,0,,,74,0
116616,note_on,6,0,1,,,,,,,,,0,,,81,0
116670,note_on,108,0,3,,,,,,,,,2,,,50,36
116670,note_on,0,0,3,,,,,,,,,2,,,60,36
116670,note_on,0,0,3,,,,,,,,,2,,,57,36
116670,note_on,54,0,1,,,,,,,,,0,,,81,49
116682,note_on,0,0,3,,,,,,,,,2,,,50,0
116682,note_on,12,0,3,,,,,,,,,2,,,60,0
116682,note_on,0,0,3,,,,,,,,,2,,,57,0
116730,note_on,0,0,1,,,,,,,,,0,,,74,49
116730,note_on,60,0,1,,,,,,,,,0,,,81,0
116736,note_on,6,0,1,,,,,,,,,0,,,74,0
116790,note_on,108,0,3,,,,,,,,,2,,,43,36
116790,note_on,54,0,1,,,,,,,,,0,,,74,49
116850,note_on,60,0,1,,,,,,,,,0,,,74,0
116850,note_on,0,0,1,,,,,,,,,0,,,73,49
116856,note_on,6,0,1,,,,,,,,,0,,,73,0
116910,note_on,0,0,3,,,,,,,,,2,,,59,36
116910,note_on,0,0,3,,,,,,,,,2,,,55,36
116910,note_on,54,0,1,,,,,,,,,0,,,73,49
116910,note_on,0,0,3,,,,,,,,,2,,,50,36
116910,note_on,120,0,3,,,,,,,,,2,,,43,0
116922,note_on,0,0,3,,,,,,,,,2,,,50,0
116922,note_on,12,0,3,,,,,,,,,2,,,59,0
116922,note_on,0,0,3,,,,,,,,,2,,,55,0
116970,note_on,60,0,1,,,,,,,,,0,,,73,0
116970,note_on,0,0,1,,,,,,,,,0,,,74,49
116976,note_on,6,0,1,,,,,,,,,0,,,74,0
117030,note_on,54,0,1,,,,,,,,,0,,,74,49
117030,note_on,0,0,3,,,,,,,,,2,,,55,36
117030,note_on,0,0,3,,,,,,,,,2,,,59,36
117030,note_on,108,0,3,,,,,,,,,2,,,50,36
117042,note_on,12,0,3,,,,,,,,,2,,,59,0
117042,note_on,0,0,3,,,,,,,,,2,,,55,0
117042,note_on,0,0,3,,,,,,,,,2,,,50,0
117090,note_on,0,0,1,,,,,,,,,0,,,71,49
117090,note_on,60,0,1,,,,,,,,,0,,,74,0
117096,note_on,6,0,1,,,,,,,,,0,,,71,0
117150,note_on,108,0,3,,,,,,,,,2,,,43,36
117150,note_on,54,0,1,,,,,,,,,0,,,71,49
117210,note_on,0,0,1,,,,,,,,,0,,,74,49
117210,note_on,60,0,1,,,,,,,,,0,,,71,0
117216,note_on,6,0,1,,,,,,,,,0,,,74,0
117270,note_on,0,0,3,,,,,,,,,2,,,55,36
117270,note_on,0,0,3,,,,,,,,,2,,,59,36
117270,note_on,0,0,3,,,,,,,,,2,,,50,36
117270,note_on,120,0,3,,,,,,,,,2,,,43,0
117270,note_on,54,0,1,,,,,,,,,0,,,74,49
117282,note_on,0,0,3,,,,,,,,,2,,,50,0
117282,note_on,0,0,3,,,,,,,,,2,,,55,0
117282,note_on,12,0,3,,,,,,,,,2,,,59,0
117330,note_on,60,0,1,,,,,,,,,0,,,74,0
117330,note_on,0,0,1,,,,,,,,,0,,,79,49
117336,note_on,6,0,1,,,,,,,,,0,,,79,0
117390,note_on,0,0,3,,,,,,,,,2,,,59,36
117390,note_on,0,0,3,,,,,,,,,2,,,55,36
117390,note_on,108,0,3,,,,,,,,,2,,,50,36
117390,note_on,54,0,1,,,,,,,,,0,,,79,49
117402,note_on,0,0,3,,,,,,,,,2,,,50,0
117402,note_on,12,0,3,,,,,,,,,2,,,59,0
117402,note_on,0,0,3,,,,,,,,,2,,,55,0
117450,note_on,60,0,1,,,,,,,,,0,,,79,0
117450,note_on,0,0,1,,,,,,,,,0,,,83,49
117456,note_on,6,0,1,,,,,,,,,0,,,83,0
117510,note_on,54,0,1,,,,,,,,,0,,,83,49
117510,note_on,108,0,3,,,,,,,,,2,,,38,36
117570,note_on,60,0,1,,,,,,,,,0,,,83,0
117570,note_on,0,0,1,,,,,,,,,0,,,81,49
117576,note_on,6,0,1,,,,,,,,,0,,,81,0
117600,note_on,24,0,1,,,,,,,,,0,,,81,49
117615,note_on,15,0,1,,,,,,,,,0,,,81,0
117615,note_on,0,0,1,,,,,,,,,0,,,83,49
117630,note_on,0,0,1,,,,,,,,,0,,,81,49
117630,note_on,0,0,3,,,,,,,,,2,,,50,36
117630,note_on,0,0,3,,,,,,,,,2,,,54,36
117630,note_on,0,0,3,,,,,,,,,2,,,60,36
117630,note_on,15,0,1,,,,,,,,,0,,,83,0
117630,note_on,120,0,3,,,,,,,,,2,,,38,0
117642,note_on,12,0,3,,,,,,,,,2,,,60,0
117642,note_on,0,0,3,,,,,,,,,2,,,50,0
117642,note_on,0,0,3,,,,,,,,,2,,,54,0
117690,note_on,0,0,1,,,,,,,,,0,,,79,49
117690,note_on,60,0,1,,,,,,,,,0,,,81,0
117750,note_on,0,0,3,,,,,,,,,2,,,54,36
117750,note_on,0,0,3,,,,,,,,,2,,,60,36
117750,note_on,108,0,3,,,,,,,,,2,,,50,36
117750,note_on,0,0,1,,,,,,,,,0,,,81,49
117750,note_on,60,0,1,,,,,,,,,0,,,79,0
117762,note_on,12,0,3,,,,,,,,,2,,,60,0
117762,note_on,0,0,3,,,,,,,,,2,,,54,0
117762,note_on,0,0,3,,,,,,,,,2,,,50,0
117810,note_on,0,0,1,,,,,,,,,0,,,83,49
117810,note_on,60,0,1,,,,,,,,,0,,,81,0
117870,note_on,0,0,1,,,,,,,,,0,,,79,49
117870,note_on,60,0,1,,,,,,,,,0,,,83,0
117870,time_signature,2520,1,0,7,16,6,8,,,,,,,,,
117870,note_on,108,0,3,,,,,,,,,2,,,43,36
117990,note_on,120,0,3,,,,,,,,,2,,,43,0
117990,note_on,0,0,3,,,,,,,,,2,,,50,36
117990,note_on,0,0,3,,,,,,,,,2,,,55,36
117990,note_on,0,0,3,,,,,,,,,2,,,59,36
118080,note_on,0,0,3,,,,,,,,,2,,,55,0
118080,note_on,0,0,3,,,,,,,,,2,,,50,0
118080,note_on,90,0,3,,,,,,,,,2,,,59,0
118080,time_signature,210,1,0,5,16,6,8,,,,,,,,,
118080,note_on,0,0,1,,,,,,,,,0,,,74,49
118080,note_on,210,0,1,,,,,,,,,0,,,79,0
118084,note_on,4,0,1,,,,,,,,,0,,,74,0
118110,note_on,26,0,1,,,,,,,,,0,,,74,49
118119,note_on,9,0,1,,,,,,,,,0,,,74,0
118200,note_on,81,0,1,,,,,,,,,0,,,74,49
118204,note_on,4,0,1,,,,,,,,,0,,,74,0
118230,time_signature,150,1,0,3,4,24,8,,,,,,,,,
118230,note_on,26,0,1,,,,,,,,,0,,,74,49
118230,note_on,150,0,3,,,,,,,,,2,,,43,36
118290,note_on,0,0,1,,,,,,,,,0,,,73,49
118290,note_on,60,0,1,,,,,,,,,0,,,74,0
118296,note_on,6,0,1,,,,,,,,,0,,,73,0
118350,note_on,120,0,3,,,,,,,,,2,,,43,0
118350,note_on,0,0,3,,,,,,,,,2,,,59,36
118350,note_on,0,0,3,,,,,,,,,2,,,55,36
118350,note_on,0,0,3,,,,,,,,,2,,,50,36
118350,note_on,54,0,1,,,,,,,,,0,,,73,75
118362,note_on,12,0,3,,,,,,,,,2,,,59,0
118362,note_on,0,0,3,,,,,,,,,2,,,55,0
118362,note_on,0,0,3,,,,,,,,,2,,,50,0
118410,note_on,0,0,1,,,,,,,,,0,,,74,49
118410,note_on,60,0,1,,,,,,,,,0,,,73,0
118416,note_on,6,0,1,,,,,,,,,0,,,74,0
118470,note_on,0,0,3,,,,,,,,,2,,,59,36
118470,note_on,0,0,3,,,,,,,,,2,,,55,36
118470,note_on,108,0,3,,,,,,,,,2,,,50,36
118470,note_on,54,0,1,,,,,,,,,0,,,74,49
118482,note_on,0,0,3,,,,,,,,,2,,,55,0
118482,note_on,12,0,3,,,,,,,,,2,,,59,0
118482,note_on,0,0,3,,,,,,,,,2,,,50,0
118530,note_on,0,0,1,,,,,,,,,0,,,71,49
118530,note_on,60,0,1,,,,,,,,,0,,,74,0
118536,note_on,6,0,1,,,,,,,,,0,,,71,0
118590,note_on,108,0,3,,,,,,,,,2,,,43,36
118590,note_on,54,0,1,,,,,,,,,0,,,71,49
118650,note_on,0,0,1,,,,,,,,,0,,,74,49
118650,note_on,60,0,1,,,,,,,,,0,,,71,0
118656,note_on,6,0,1,,,,,,,,,0,,,74,0
118710,note_on,0,0,3,,,,,,,,,2,,,50,36
118710,note_on,0,0,3,,,,,,,,,2,,,59,36
118710,note_on,0,0,3,,,,,,,,,2,,,55,36
118710,note_on,54,0,1,,,,,,,,,0,,,74,49
118710,note_on,120,0,3,,,,,,,,,2,,,43,0
118722,note_on,0,0,3,,,,,,,,,2,,,50,0
118722,note_on,0,0,3,,,,,,,,,2,,,55,0
118722,note_on,12,0,3,,,,,,,,,2,,,59,0
118770,note_on,0,0,1,,,,,,,,,0,,,79,49
118770,note_on,60,0,1,,,,,,,,,0,,,74,0
118776,note_on,6,0,1,,,,,,,,,0,,,79,0
118830,note_on,0,0,3,,,,,,,,,2,,,59,36
118830,note_on,54,0,1,,,,,,,,,0,,,79,49
118830,note_on,108,0,3,,,,,,,,,2,,,50,36
118830,note_on,0,0,3,,,,,,,,,2,,,55,36
118842,note_on,0,0,3,,,,,,,,,2,,,55,0
118842,note_on,0,0,3,,,,,,,,,2,,,50,0
118842,note_on,12,0,3,,,,,,,,,2,,,59,0
118890,note_on,60,0,1,,,,,,,,,0,,,79,0
118890,note_on,0,0,1,,,,,,,,,0,,,74,49
118896,note_on,6,0,1,,,,,,,,,0,,,74,0
118950,note_on,108,0,3,,,,,,,,,2,,,42,36
118950,note_on,54,0,1,,,,,,,,,0,,,74,49
119010,note_on,0,0,1,,,,,,,,,0,,,73,49
119010,note_on,60,0,1,,,,,,,,,0,,,74,0
119016,note_on,6,0,1,,,,,,,,,0,,,73,0
119070,note_on,54,0,1,,,,,,,,,0,,,73,49
119070,note_on,120,0,3,,,,,,,,,2,,,42,0
119070,note_on,0,0,3,,,,,,,,,2,,,50,36
119070,note_on,0,0,3,,,,,,,,,2,,,57,36
119070,note_on,0,0,3,,,,,,,,,2,,,60,36
119082,note_on,12,0,3,,,,,,,,,2,,,60,0
119082,note_on,0,0,3,,,,,,,,,2,,,57,0
119082,note_on,0,0,3,,,,,,,,,2,,,50,0
119130,note_on,0,0,1,,,,,,,,,0,,,74,49
119130,note_on,60,0,1,,,,,,,,,0,,,73,0
119136,note_on,6,0,1,,,,,,,,,0,,,74,0
119190,note_on,54,0,1,,,,,,,,,0,,,74,49
119190,note_on,0,0,3,,,,,,,,,2,,,57,36
119190,note_on,0,0,3,,,,,,,,,2,,,60,36
119190,note_on,108,0,3,,,,,,,,,2,,,50,36
119202,note_on,12,0,3,,,,,,,,,2,,,60,0
119202,note_on,0,0,3,,,,,,,,,2,,,57,0
119202,note_on,0,0,3,,,,,,,,,2,,,50,0
119250,note_on,0,0,1,,,,,,,,,0,,,69,49
119250,note_on,60,0,1,,,,,,,,,0,,,74,0
119256,note_on,6,0,1,,,,,,,,,0,,,69,0
119310,note_on,108,0,3,,,,,,,,,2,,,42,36
119310,note_on,54,0,1,,,,,,,,,0,,,69,49
119370,note_on,0,0,1,,,,,,,,,0,,,74,49
119370,note_on,60,0,1,,,,,,,,,0,,,69,0
119376,note_on,6,0,1,,,,,,,,,0,,,74,0
119430,note_on,0,0,3,,,,,,,,,2,,,57,36
119430,note_on,0,0,3,,,,,,,,,2,,,50,36
119430,note_on,120,0,3,,,,,,,,,2,,,42,0
119430,note_on,0,0,3,,,,,,,,,2,,,60,36
119430,note_on,54,0,1,,,,,,,,,0,,,74,49
119442,note_on,12,0,3,,,,,,,,,2,,,60,0
119442,note_on,0,0,3,,,,,,,,,2,,,57,0
119442,note_on,0,0,3,,,,,,,,,2,,,50,0
119490,note_on,60,0,1,,,,,,,,,0,,,74,0
119490,note_on,0,0,1,,,,,,,,,0,,,81,49
119496,note_on,6,0,1,,,,,,,,,0,,,81,0
119550,note_on,0,0,3,,,,,,,,,2,,,57,36
119550,note_on,54,0,1,,,,,,,,,0,,,81,49
119550,note_on,108,0,3,,,,,,,,,2,,,50,36
119550,note_on,0,0,3,,,,,,,,,2,,,60,36
119562,note_on,12,0,3,,,,,,,,,2,,,60,0
119562,note_on,0,0,3,,,,,,,,,2,,,50,0
119562,note_on,0,0,3,,,,,,,,,2,,,57,0
119610,note_on,0,0,1,,,,,,,,,0,,,74,49
119610,note_on,60,0,1,,,,,,,,,0,,,81,0
119616,note_on,6,0,1,,,,,,,,,0,,,74,0
119670,note_on,108,0,3,,,,,,,,,2,,,43,36
119670,note_on,54,0,1,,,,,,,,,0,,,74,49
119730,note_on,0,0,1,,,,,,,,,0,,,73,49
119730,note_on,60,0,1,,,,,,,,,0,,,74,0
119736,note_on,6,0,1,,,,,,,,,0,,,73,0
119790,note_on,0,0,3,,,,,,,,,2,,,55,36
119790,note_on,0,0,3,,,,,,,,,2,,,50,36
119790,note_on,120,0,3,,,,,,,,,2,,,43,0
119790,note_on,0,0,3,,,,,,,,,2,,,59,36
119790,note_on,54,0,1,,,,,,,,,0,,,73,49
119802,note_on,0,0,3,,,,,,,,,2,,,50,0
119802,note_on,0,0,3,,,,,,,,,2,,,55,0
119802,note_on,12,0,3,,,,,,,,,2,,,59,0
119850,note_on,60,0,1,,,,,,,,,0,,,73,0
119850,note_on,0,0,1,,,,,,,,,0,,,74,49
119856,note_on,6,0,1,,,,,,,,,0,,,74,0
119910,note_on,0,0,3,,,,,,,,,2,,,55,36
119910,note_on,108,0,3,,,,,,,,,2,,,50,36
119910,note_on,54,0,1,,,,,,,,,0,,,74,49
119910,note_on,0,0,3,,,,,,,,,2,,,59,36
119922,note_on,0,0,3,,,,,,,,,2,,,50,0
119922,note_on,0,0,3,,,,,,,,,2,,,55,0
119922,note_on,12,0,3,,,,,,,,,2,,,59,0
119970,note_on,0,0,1,,,,,,,,,0,,,71,49
119970,note_on,60,0,1,,,,,,,,,0,,,74,0
119976,note_on,6,0,1,,,,,,,,,0,,,71,0
120030,note_on,54,0,1,,,,,,,,,0,,,71,49
120030,note_on,108,0,3,,,,,,,,,2,,,43,36
120090,note_on,0,0,1,,,,,,,,,0,,,74,49
120090,note_on,60,0,1,,,,,,,,,0,,,71,0
120096,note_on,6,0,1,,,,,,,,,0,,,74,0
120150,note_on,120,0,3,,,,,,,,,2,,,43,0
120150,note_on,54,0,1,,,,,,,,,0,,,74,49
120150,note_on,0,0,3,,,,,,,,,2,,,50,36
120150,note_on,0,0,3,,,,,,,,,2,,,55,36
120150,note_on,0,0,3,,,,,,,,,2,,,59,36
120162,note_on,12,0,3,,,,,,,,,2,,,59,0
120162,note_on,0,0,3,,,,,,,,,2,,,55,0
120162,note_on,0,0,3,,,,,,,,,2,,,50,0
120210,note_on,0,0,1,,,,,,,,,0,,,79,49
120210,note_on,60,0,1,,,,,,,,,0,,,74,0
120216,note_on,6,0,1,,,,,,,,,0,,,79,0
120270,note_on,108,0,3,,,,,,,,,2,,,50,36
120270,note_on,54,0,1,,,,,,,,,0,,,79,49
120270,note_on,0,0,3,,,,,,,,,2,,,59,36
120270,note_on,0,0,3,,,,,,,,,2,,,55,36
120282,note_on,0,0,3,,,,,,,,,2,,,50,0
120282,note_on,0,0,3,,,,,,,,,2,,,55,0
120282,note_on,12,0,3,,,,,,,,,2,,,59,0
120330,note_on,0,0,1,,,,,,,,,0,,,83,49
120330,note_on,60,0,1,,,,,,,,,0,,,79,0
120336,note_on,6,0,1,,,,,,,,,0,,,83,0
120390,note_on,108,0,3,,,,,,,,,2,,,38,36
120390,note_on,54,0,1,,,,,,,,,0,,,83,49
120450,note_on,0,0,1,,,,,,,,,0,,,81,49
120450,note_on,60,0,1,,,,,,,,,0,,,83,0
120456,note_on,6,0,1,,,,,,,,,0,,,81,0
120480,note_on,24,0,1,,,,,,,,,0,,,81,49
120495,note_on,15,0,1,,,,,,,,,0,,,81,0
120495,note_on,0,0,1,,,,,,,,,0,,,83,49
120510,note_on,15,0,1,,,,,,,,,0,,,83,0
120510,note_on,0,0,1,,,,,,,,,0,,,81,49
120510,note_on,0,0,3,,,,,,,,,2,,,54,36
120510,note_on,120,0,3,,,,,,,,,2,,,38,0
120510,note_on,0,0,3,,,,,,,,,2,,,50,36
120510,note_on,0,0,3,,,,,,,,,2,,,60,36
120522,note_on,0,0,3,,,,,,,,,2,,,54,0
120522,note_on,0,0,3,,,,,,,,,2,,,50,0
120522,note_on,12,0,3,,,,,,,,,2,,,60,0
120570,note_on,0,0,1,,,,,,,,,0,,,79,49
120570,note_on,60,0,1,,,,,,,,,0,,,81,0
120630,note_on,108,0,3,,,,,,,,,2,,,50,36
120630,note_on,0,0,1,,,,,,,,,0,,,81,49
120630,note_on,60,0,1,,,,,,,,,0,,,79,0
120630,note_on,0,0,3,,,,,,,,,2,,,54,36
120630,note_on,0,0,3,,,,,,,,,2,,,60,36
120642,note_on,0,0,3,,,,,,,,,2,,,54,0
120642,note_on,0,0,3,,,,,,,,,2,,,50,0
120642,note_on,12,0,3,,,,,,,,,2,,,60,0
120690,note_on,0,0,1,,,,,,,,,0,,,83,49
120690,note_on,60,0,1,,,,,,,,,0,,,81,0
120750,time_signature,2520,1,0,7,16,6,8,,,,,,,,,
120750,note_on,0,0,1,,,,,,,,,0,,,79,49
120750,note_on,60,0,1,,,,,,,,,0,,,83,0
120750,note_on,108,0,3,,,,,,,,,2,,,43,36
120870,note_on,120,0,3,,,,,,,,,2,,,43,0
120870,note_on,0,0,3,,,,,,,,,2,,,50,36
120870,note_on,0,0,3,,,,,,,,,2,,,55,36
120870,note_on,0,0,3,,,,,,,,,2,,,59,36
120960,note_on,0,0,1,,,,,,,,,0,,,79,75
120960,note_on,90,0,3,,,,,,,,,2,,,59,0
120960,note_on,0,0,3,,,,,,,,,2,,,50,0
120960,time_signature,210,1,0,5,16,6,8,,,,,,,,,
120960,note_on,210,0,1,,,,,,,,,0,,,79,0
120960,note_on,0,0,3,,,,,,,,,2,,,55,0
120990,note_on,0,0,1,,,,,,,,,0,,,79,75
120990,note_on,30,0,1,,,,,,,,,0,,,79,0
121080,note_on,0,0,1,,,,,,,,,0,,,79,75
121080,note_on,90,0,1,,,,,,,,,0,,,79,0
121110,note_on,30,0,1,,,,,,,,,0,,,79,0
121110,time_signature,150,1,0,3,4,24,8,,,,,,,,,
121110,note_on,0,0,1,,,,,,,,,0,,,81,75
121110,note_on,150,0,3,,,,,,,,,2,,,43,62
121170,note_on,60,0,1,,,,,,,,,0,,,81,0
121170,note_on,0,0,1,,,,,,,,,0,,,79,75
121176,note_on,6,0,1,,,,,,,,,0,,,79,0
121230,note_on,120,0,3,,,,,,,,,2,,,43,0
121230,note_on,0,0,3,,,,,,,,,2,,,52,62
121230,note_on,0,0,3,,,,,,,,,2,,,55,62
121230,note_on,54,0,1,,,,,,,,,0,,,79,75
121230,note_on,0,0,3,,,,,,,,,2,,,60,62
121242,note_on,12,0,3,,,,,,,,,2,,,60,0
121242,note_on,0,0,3,,,,,,,,,2,,,55,0
121242,note_on,0,0,3,,,,,,,,,2,,,52,0
121290,note_on,0,0,1,,,,,,,,,0,,,78,75
121290,note_on,60,0,1,,,,,,,,,0,,,79,0
121296,note_on,6,0,1,,,,,,,,,0,,,78,0
121350,note_on,0,0,3,,,,,,,,,2,,,55,62
121350,note_on,54,0,1,,,,,,,,,0,,,78,75
121350,note_on,108,0,3,,,,,,,,,2,,,52,62
121350,note_on,0,0,3,,,,,,,,,2,,,60,62
121362,note_on,0,0,3,,,,,,,,,2,,,52,0
121362,note_on,0,0,3,,,,,,,,,2,,,55,0
121362,note_on,12,0,3,,,,,,,,,2,,,60,0
121410,note_on,60,0,1,,,,,,,,,0,,,78,0
121410,note_on,0,0,1,,,,,,,,,0,,,76,75
121416,note_on,6,0,1,,,,,,,,,0,,,76,0
121470,note_on,54,0,1,,,,,,,,,0,,,76,75
121470,note_on,108,0,3,,,,,,,,,2,,,43,62
121530,note_on,60,0,1,,,,,,,,,0,,,76,0
121530,note_on,0,0,1,,,,,,,,,0,,,74,75
121536,note_on,6,0,1,,,,,,,,,0,,,74,0
121590,note_on,0,0,3,,,,,,,,,2,,,55,62
121590,note_on,120,0,3,,,,,,,,,2,,,43,0
121590,note_on,54,0,1,,,,,,,,,0,,,74,75
121590,note_on,0,0,3,,,,,,,,,2,,,59,62
121590,note_on,0,0,3,,,,,,,,,2,,,50,62
121602,note_on,12,0,3,,,,,,,,,2,,,59,0
121602,note_on,0,0,3,,,,,,,,,2,,,55,0
121602,note_on,0,0,3,,,,,,,,,2,,,50,0
121650,note_on,60,0,1,,,,,,,,,0,,,74,0
121650,note_on,0,0,1,,,,,,,,,0,,,72,75
121656,note_on,6,0,1,,,,,,,,,0,,,72,0
121710,note_on,0,0,3,,,,,,,,,2,,,59,62
121710,note_on,0,0,3,,,,,,,,,2,,,55,62
121710,note_on,108,0,3,,,,,,,,,2,,,50,62
121710,note_on,54,0,1,,,,,,,,,0,,,72,75
121722,note_on,0,0,3,,,,,,,,,2,,,55,0
121722,note_on,0,0,3,,,,,,,,,2,,,50,0
121722,note_on,12,0,3,,,,,,,,,2,,,59,0
121770,note_on,0,0,1,,,,,,,,,0,,,71,75
121770,note_on,60,0,1,,,,,,,,,0,,,72,0
121830,note_on,0,0,1,,,,,,,,,0,,,74,75
121830,note_on,60,0,1,,,,,,,,,0,,,71,0
121830,note_on,108,0,3,,,,,,,,,2,,,38,62
121890,note_on,0,0,1,,,,,,,,,0,,,72,75
121890,note_on,60,0,1,,,,,,,,,0,,,74,0
121896,note_on,6,0,1,,,,,,,,,0,,,72,0
121950,note_on,54,0,1,,,,,,,,,0,,,72,75
121950,note_on,0,0,3,,,,,,,,,2,,,60,62
121950,note_on,120,0,3,,,,,,,,,2,,,38,0
121950,note_on,0,0,3,,,,,,,,,2,,,50,62
121950,note_on,0,0,3,,,,,,,,,2,,,54,62
121962,note_on,0,0,3,,,,,,,,,2,,,50,0
121962,note_on,0,0,3,,,,,,,,,2,,,54,0
121962,note_on,12,0,3,,,,,,,,,2,,,60,0
122010,note_on,0,0,1,,,,,,,,,0,,,71,75
122010,note_on,60,0,1,,,,,,,,,0,,,72,0
122016,note_on,6,0,1,,,,,,,,,0,,,71,0
122070,note_on,0,0,3,,,,,,,,,2,,,54,62
122070,note_on,54,0,1,,,,,,,,,0,,,71,75
122070,note_on,108,0,3,,,,,,,,,2,,,50,62
122070,note_on,0,0,3,,,,,,,,,2,,,60,62
122082,note_on,12,0,3,,,,,,,,,2,,,60,0
122082,note_on,0,0,3,,,,,,,,,2,,,54,0
122082,note_on,0,0,3,,,,,,,,,2,,,50,0
122130,note_on,0,0,1,,,,,,,,,0,,,69,75
122130,note_on,60,0,1,,,,,,,,,0,,,71,0
122136,note_on,6,0,1,,,,,,,,,0,,,69,0
122190,note_on,108,0,3,,,,,,,,,2,,,43,62
122190,note_on,54,0,1,,,,,,,,,0,,,72,75
122250,note_on,60,0,1,,,,,,,,,0,,,72,0
122250,note_on,0,0,1,,,,,,,,,0,,,71,75
122256,note_on,6,0,1,,,,,,,,,0,,,71,0
122310,note_on,120,0,3,,,,,,,,,2,,,43,0
122310,note_on,0,0,3,,,,,,,,,2,,,50,62
122310,note_on,0,0,3,,,,,,,,,2,,,55,62
122310,note_on,0,0,3,,,,,,,,,2,,,59,62
122310,note_on,54,0,1,,,,,,,,,0,,,71,75
122322,note_on,12,0,3,,,,,,,,,2,,,59,0
122322,note_on,0,0,3,,,,,,,,,2,,,50,0
122322,note_on,0,0,3,,,,,,,,,2,,,55,0
122370,note_on,60,0,1,,,,,,,,,0,,,71,0
122370,note_on,0,0,1,,,,,,,,,0,,,69,75
122376,note_on,6,0,1,,,,,,,,,0,,,69,0
122430,note_on,108,0,3,,,,,,,,,2,,,50,62
122430,note_on,54,0,1,,,,,,,,,0,,,69,75
122430,note_on,0,0,3,,,,,,,,,2,,,59,62
122430,note_on,0,0,3,,,,,,,,,2,,,55,62
122442,note_on,0,0,3,,,,,,,,,2,,,55,0
122442,note_on,0,0,3,,,,,,,,,2,,,50,0
122442,note_on,12,0,3,,,,,,,,,2,,,59,0
122490,note_on,60,0,1,,,,,,,,,0,,,69,0
122490,note_on,0,0,1,,,,,,,,,0,,,67,75
122496,note_on,6,0,1,,,,,,,,,0,,,67,0
122550,note_on,54,0,1,,,,,,,,,0,,,90,75
122550,note_on,0,0,1,,,,,,,,,0,,,93,75
122550,note_on,108,0,3,,,,,,,,,2,,,43,62
122610,note_on,0,0,1,,,,,,,,,0,,,90,0
122610,note_on,0,0,1,,,,,,,,,0,,,88,75
122610,note_on,0,0,1,,,,,,,,,0,,,91,75
122610,note_on,60,0,1,,,,,,,,,0,,,93,0
122616,note_on,6,0,1,,,,,,,,,0,,,91,0
122616,note_on,0,0,1,,,,,,,,,0,,,88,0
122670,note_on,0,0,1,,,,,,,,,0,,,91,75
122670,note_on,120,0,3,,,,,,,,,2,,,43,0
122670,note_on,0,0,3,,,,,,,,,2,,,52,62
122670,note_on,0,0,3,,,,,,,,,2,,,55,62
122670,note_on,0,0,3,,,,,,,,,2,,,60,62
122670,note_on,54,0,1,,,,,,,,,0,,,88,75
122682,note_on,12,0,3,,,,,,,,,2,,,60,0
122682,note_on,0,0,3,,,,,,,,,2,,,55,0
122682,note_on,0,0,3,,,,,,,,,2,,,52,0
122730,note_on,0,0,1,,,,,,,,,0,,,90,75
122730,note_on,60,0,1,,,,,,,,,0,,,91,0
122730,note_on,0,0,1,,,,,,,,,0,,,88,0
122730,note_on,0,0,1,,,,,,,,,0,,,86,75
122736,note_on,6,0,1,,,,,,,,,0,,,90,0
122736,note_on,0,0,1,,,,,,,,,0,,,86,0
122790,note_on,54,0,1,,,,,,,,,0,,,86,75
122790,note_on,0,0,1,,,,,,,,,0,,,90,75
122790,note_on,108,0,3,,,,,,,,,2,,,52,62
122790,note_on,0,0,3,,,,,,,,,2,,,55,62
122790,note_on,0,0,3,,,,,,,,,2,,,60,62
122802,note_on,0,0,3,,,,,,,,,2,,,55,0
122802,note_on,0,0,3,,,,,,,,,2,,,52,0
122802,note_on,12,0,3,,,,,,,,,2,,,60,0
122850,note_on,0,0,1,,,,,,,,,0,,,84,75
122850,note_on,0,0,1,,,,,,,,,0,,,88,75
122850,note_on,0,0,1,,,,,,,,,0,,,86,0
122850,note_on,60,0,1,,,,,,,,,0,,,90,0
122856,note_on,0,0,1,,,,,,,,,0,,,84,0
122856,note_on,6,0,1,,,,,,,,,0,,,88,0
122910,note_on,0,0,1,,,,,,,,,0,,,88,75
122910,note_on,54,0,1,,,,,,,,,0,,,84,75
122910,note_on,108,0,3,,,,,,,,,2,,,43,62
122970,note_on,0,0,1,,,,,,,,,0,,,83,75
122970,note_on,0,0,1,,,,,,,,,0,,,84,0
122970,note_on,60,0,1,,,,,,,,,0,,,88,0
122970,note_on,0,0,1,,,,,,,,,0,,,86,75
122976,note_on,6,0,1,,,,,,,,,0,,,86,0
122976,note_on,0,0,1,,,,,,,,,0,,,83,0
123030,note_on,0,0,3,,,,,,,,,2,,,59,62
123030,note_on,0,0,1,,,,,,,,,0,,,86,75
123030,note_on,120,0,3,,,,,,,,,2,,,43,0
123030,note_on,0,0,3,,,,,,,,,2,,,50,62
123030,note_on,0,0,3,,,,,,,,,2,,,55,62
123030,note_on,54,0,1,,,,,,,,,0,,,83,75
123042,note_on,0,0,3,,,,,,,,,2,,,50,0
123042,note_on,0,0,3,,,,,,,,,2,,,55,0
123042,note_on,12,0,3,,,,,,,,,2,,,59,0
123090,note_on,60,0,1,,,,,,,,,0,,,86,0
123090,note_on,0,0,1,,,,,,,,,0,,,83,0
123090,note_on,0,0,1,,,,,,,,,0,,,81,75
123090,note_on,0,0,1,,,,,,,,,0,,,84,75
123096,note_on,0,0,1,,,,,,,,,0,,,81,0
123096,note_on,6,0,1,,,,,,,,,0,,,84,0
123150,note_on,0,0,1,,,,,,,,,0,,,84,75
123150,note_on,54,0,1,,,,,,,,,0,,,81,75
123150,note_on,0,0,3,,,,,,,,,2,,,55,62
123150,note_on,0,0,3,,,,,,,,,2,,,59,62
123150,note_on,108,0,3,,,,,,,,,2,,,50,62
123162,note_on,12,0,3,,,,,,,,,2,,,59,0
123162,note_on,0,0,3,,,,,,,,,2,,,55,0
123162,note_on,0,0,3,,,,,,,,,2,,,50,0
123210,note_on,60,0,1,,,,,,,,,0,,,84,0
123210,note_on,0,0,1,,,,,,,,,0,,,81,0
123210,note_on,0,0,1,,,,,,,,,0,,,79,75
123210,note_on,0,0,1,,,,,,,,,0,,,83,75
123216,note_on,6,0,1,,,,,,,,,0,,,83,0
123216,note_on,0,0,1,,,,,,,,,0,,,79,0
123270,note_on,0,0,1,,,,,,,,,0,,,86,75
123270,note_on,54,0,1,,,,,,,,,0,,,83,75
123270,note_on,108,0,3,,,,,,,,,2,,,38,62
123330,note_on,0,0,1,,,,,,,,,0,,,84,75
123330,note_on,0,0,1,,,,,,,,,0,,,81,75
123330,note_on,0,0,1,,,,,,,,,0,,,83,0
123330,note_on,60,0,1,,,,,,,,,0,,,86,0
123336,note_on,0,0,1,,,,,,,,,0,,,81,0
123336,note_on,6,0,1,,,,,,,,,0,,,84,0
123390,note_on,54,0,1,,,,,,,,,0,,,81,75
123390,note_on,0,0,1,,,,,,,,,0,,,84,75
123390,note_on,120,0,3,,,,,,,,,2,,,38,0
123390,note_on,0,0,3,,,,,,,,,2,,,50,62
123390,note_on,0,0,3,,,,,,,,,2,,,54,62
123390,note_on,0,0,3,,,,,,,,,2,,,60,62
123402,note_on,0,0,3,,,,,,,,,2,,,50,0
123402,note_on,0,0,3,,,,,,,,,2,,,54,0
123402,note_on,12,0,3,,,,,,,,,2,,,60,0
123450,note_on,60,0,1,,,,,,,,,0,,,84,0
123450,note_on,0,0,1,,,,,,,,,0,,,81,0
123450,note_on,0,0,1,,,,,,,,,0,,,79,75
123450,note_on,0,0,1,,,,,,,,,0,,,83,75
123456,note_on,0,0,1,,,,,,,,,0,,,79,0
123456,note_on,6,0,1,,,,,,,,,0,,,83,0
123510,note_on,54,0,1,,,,,,,,,0,,,79,75
123510,note_on,0,0,3,,,,,,,,,2,,,60,62
123510,note_on,0,0,3,,,,,,,,,2,,,54,62
123510,note_on,108,0,3,,,,,,,,,2,,,50,62
123510,note_on,0,0,1,,,,,,,,,0,,,83,75
123522,note_on,12,0,3,,,,,,,,,2,,,60,0
123522,note_on,0,0,3,,,,,,,,,2,,,50,0
123522,note_on,0,0,3,,,,,,,,,2,,,54,0
123570,note_on,0,0,1,,,,,,,,,0,,,81,75
123570,note_on,0,0,1,,,,,,,,,0,,,74,75
123570,note_on,0,0,1,,,,,,,,,0,,,79,0
123570,note_on,60,0,1,,,,,,,,,0,,,83,0
123576,note_on,0,0,1,,,,,,,,,0,,,74,0
123576,note_on,6,0,1,,,,,,,,,0,,,81,0
123630,note_on,54,0,1,,,,,,,,,0,,,71,75
123630,note_on,108,0,3,,,,,,,,,2,,,43,62
123630,time_signature,2520,1,0,7,16,6,8,,,,,,,,,
123630,note_on,0,0,1,,,,,,,,,0,,,79,75
123750,note_on,120,0,3,,,,,,,,,2,,,43,0
123750,note_on,0,0,3,,,,,,,,,2,,,50,62
123750,note_on,0,0,3,,,,,,,,,2,,,55,62
123750,note_on,0,0,3,,,,,,,,,2,,,59,62
123840,time_signature,210,1,0,5,16,6,8,,,,,,,,,
123840,note_on,0,0,1,,,,,,,,,0,,,79,75
123840,note_on,0,0,1,,,,,,,,,0,,,71,0
123840,note_on,210,0,1,,,,,,,,,0,,,79,0
123840,note_on,0,0,3,,,,,,,,,2,,,55,0
123840,note_on,0,0,3,,,,,,,,,2,,,50,0
123840,note_on,90,0,3,,,,,,,,,2,,,59,0
123870,note_on,30,0,1,,,,,,,,,0,,,79,0
123870,note_on,0,0,1,,,,,,,,,0,,,79,75
123960,note_on,90,0,1,,,,,,,,,0,,,79,0
123960,note_on,0,0,1,,,,,,,,,0,,,79,75
123990,note_on,30,0,1,,,,,,,,,0,,,79,0
123990,note_on,150,0,3,,,,,,,,,2,,,43,62
123990,note_on,0,0,1,,,,,,,,,0,,,81,75
123990,time_signature,150,1,0,3,4,24,8,,,,,,,,,
124050,note_on,60,0,1,,,,,,,,,0,,,81,0
124050,note_on,0,0,1,,,,,,,,,0,,,79,75
124056,note_on,6,0,1,,,,,,,,,0,,,79,0
124110,note_on,120,0,3,,,,,,,,,2,,,43,0
124110,note_on,0,0,3,,,,,,,,,2,,,55,62
124110,note_on,0,0,3,,,,,,,,,2,,,52,62
124110,note_on,0,0,3,,,,,,,,,2,,,60,62
124110,note_on,54,0,1,,,,,,,,,0,,,79,75
124122,note_on,0,0,3,,,,,,,,,2,,,52,0
124122,note_on,0,0,3,,,,,,,,,2,,,55,0
124122,note_on,12,0,3,,,,,,,,,2,,,60,0
124170,note_on,0,0,1,,,,,,,,,0,,,78,75
124170,note_on,60,0,1,,,,,,,,,0,,,79,0
124176,note_on,6,0,1,,,,,,,,,0,,,78,0
124230,note_on,0,0,3,,,,,,,,,2,,,60,62
124230,note_on,54,0,1,,,,,,,,,0,,,78,75
124230,note_on,0,0,3,,,,,,,,,2,,,55,62
124230,note_on,108,0,3,,,,,,,,,2,,,52,62
124242,note_on,0,0,3,,,,,,,,,2,,,52,0
124242,note_on,0,0,3,,,,,,,,,2,,,55,0
124242,note_on,12,0,3,,,,,,,,,2,,,60,0
124290,note_on,0,0,1,,,,,,,,,0,,,76,75
124290,note_on,60,0,1,,,,,,,,,0,,,78,0
124296,note_on,6,0,1,,,,,,,,,0,,,76,0
124350,note_on,54,0,1,,,,,,,,,0,,,76,75
124350,note_on,108,0,3,,,,,,,,,2,,,43,62
124410,note_on,0,0,1,,,,,,,,,0,,,74,75
124410,note_on,60,0,1,,,,,,,,,0,,,76,0
124416,note_on,6,0,1,,,,,,,,,0,,,74,0
124470,note_on,0,0,3,,,,,,,,,2,,,55,62
124470,note_on,54,0,1,,,,,,,,,0,,,74,75
124470,note_on,120,0,3,,,,,,,,,2,,,43,0
124470,note_on,0,0,3,,,,,,,,,2,,,50,62
124470,note_on,0,0,3,,,,,,,,,2,,,59,62
124482,note_on,0,0,3,,,,,,,,,2,,,50,0
124482,note_on,0,0,3,,,,,,,,,2,,,55,0
124482,note_on,12,0,3,,,,,,,,,2,,,59,0
124530,note_on,0,0,1,,,,,,,,,0,,,72,75
124530,note_on,60,0,1,,,,,,,,,0,,,74,0
124536,note_on,6,0,1,,,,,,,,,0,,,72,0
124590,note_on,108,0,3,,,,,,,,,2,,,50,62
124590,note_on,0,0,3,,,,,,,,,2,,,55,62
124590,note_on,0,0,3,,,,,,,,,2,,,59,62
124590,note_on,54,0,1,,,,,,,,,0,,,72,75
124602,note_on,0,0,3,,,,,,,,,2,,,55,0
124602,note_on,12,0,3,,,,,,,,,2,,,59,0
124602,note_on,0,0,3,,,,,,,,,2,,,50,0
124650,note_on,0,0,1,,,,,,,,,0,,,71,75
124650,note_on,60,0,1,,,,,,,,,0,,,72,0
124710,note_on,108,0,3,,,,,,,,,2,,,38,62
124710,note_on,60,0,1,,,,,,,,,0,,,71,0
124710,note_on,0,0,1,,,,,,,,,0,,,74,75
124770,note_on,60,0,1,,,,,,,,,0,,,74,0
124770,note_on,0,0,1,,,,,,,,,0,,,72,75
124776,note_on,6,0,1,,,,,,,,,0,,,72,0
124830,note_on,0,0,3,,,,,,,,,2,,,54,62
124830,note_on,0,0,3,,,,,,,,,2,,,50,62
124830,note_on,120,0,3,,,,,,,,,2,,,38,0
124830,note_on,54,0,1,,,,,,,,,0,,,72,75
124830,note_on,0,0,3,,,,,,,,,2,,,60,62
124842,note_on,12,0,3,,,,,,,,,2,,,60,0
124842,note_on,0,0,3,,,,,,,,,2,,,54,0
124842,note_on,0,0,3,,,,,,,,,2,,,50,0
124890,note_on,0,0,1,,,,,,,,,0,,,71,75
124890,note_on,60,0,1,,,,,,,,,0,,,72,0
124896,note_on,6,0,1,,,,,,,,,0,,,71,0
124950,note_on,0,0,3,,,,,,,,,2,,,60,62
124950,note_on,0,0,3,,,,,,,,,2,,,54,62
124950,note_on,108,0,3,,,,,,,,,2,,,50,62
124950,note_on,54,0,1,,,,,,,,,0,,,71,75
124962,note_on,0,0,3,,,,,,,,,2,,,50,0
124962,note_on,0,0,3,,,,,,,,,2,,,54,0
124962,note_on,12,0,3,,,,,,,,,2,,,60,0
125010,note_on,60,0,1,,,,,,,,,0,,,71,0
125010,note_on,0,0,1,,,,,,,,,0,,,69,75
125016,note_on,6,0,1,,,,,,,,,0,,,69,0
125070,note_on,108,0,3,,,,,,,,,2,,,43,62
125070,note_on,54,0,1,,,,,,,,,0,,,72,75
125130,note_on,0,0,1,,,,,,,,,0,,,71,75
125130,note_on,60,0,1,,,,,,,,,0,,,72,0
125136,note_on,6,0,1,,,,,,,,,0,,,71,0
125190,note_on,120,0,3,,,,,,,,,2,,,43,0
125190,note_on,0,0,3,,,,,,,,,2,,,50,62
125190,note_on,0,0,3,,,,,,,,,2,,,55,62
125190,note_on,0,0,3,,,,,,,,,2,,,59,62
125190,note_on,54,0,1,,,,,,,,,0,,,71,75
125202,note_on,12,0,3,,,,,,,,,2,,,59,0
125202,note_on,0,0,3,,,,,,,,,2,,,55,0
125202,note_on,0,0,3,,,,,,,,,2,,,50,0
125250,note_on,60,0,1,,,,,,,,,0,,,71,0
125250,note_on,0,0,1,,,,,,,,,0,,,69,75
125256,note_on,6,0,1,,,,,,,,,0,,,69,0
125310,note_on,0,0,3,,,,,,,,,2,,,59,62
125310,note_on,0,0,3,,,,,,,,,2,,,55,62
125310,note_on,108,0,3,,,,,,,,,2,,,50,62
125310,note_on,54,0,1,,,,,,,,,0,,,69,75
125322,note_on,0,0,3,,,,,,,,,2,,,50,0
125322,note_on,0,0,3,,,,,,,,,2,,,55,0
125322,note_on,12,0,3,,,,,,,,,2,,,59,0
125370,note_on,60,0,1,,,,,,,,,0,,,69,0
125370,note_on,0,0,1,,,,,,,,,0,,,67,75
125376,note_on,6,0,1,,,,,,,,,0,,,67,0
125430,note_on,54,0,1,,,,,,,,,0,,,90,75
125430,note_on,0,0,1,,,,,,,,,0,,,93,75
125430,note_on,108,0,3,,,,,,,,,2,,,43,62
125490,note_on,0,0,1,,,,,,,,,0,,,90,0
125490,note_on,0,0,1,,,,,,,,,0,,,88,75
125490,note_on,0,0,1,,,,,,,,,0,,,91,75
125490,note_on,60,0,1,,,,,,,,,0,,,93,0
125496,note_on,0,0,1,,,,,,,,,0,,,88,0
125496,note_on,6,0,1,,,,,,,,,0,,,91,0
125550,note_on,120,0,3,,,,,,,,,2,,,43,0
125550,note_on,0,0,1,,,,,,,,,0,,,91,75
125550,note_on,54,0,1,,,,,,,,,0,,,88,75
125550,note_on,0,0,3,,,,,,,,,2,,,60,62
125550,note_on,0,0,3,,,,,,,,,2,,,55,62
125550,note_on,0,0,3,,,,,,,,,2,,,52,62
125562,note_on,0,0,3,,,,,,,,,2,,,52,0
125562,note_on,0,0,3,,,,,,,,,2,,,55,0
125562,note_on,12,0,3,,,,,,,,,2,,,60,0
125610,note_on,0,0,1,,,,,,,,,0,,,90,75
125610,note_on,0,0,1,,,,,,,,,0,,,86,75
125610,note_on,60,0,1,,,,,,,,,0,,,91,0
125610,note_on,0,0,1,,,,,,,,,0,,,88,0
125616,note_on,0,0,1,,,,,,,,,0,,,86,0
125616,note_on,6,0,1,,,,,,,,,0,,,90,0
125670,note_on,0,0,3,,,,,,,,,2,,,55,62
125670,note_on,0,0,3,,,,,,,,,2,,,60,62
125670,note_on,108,0,3,,,,,,,,,2,,,52,62
125670,note_on,0,0,1,,,,,,,,,0,,,90,75
125670,note_on,54,0,1,,,,,,,,,0,,,86,75
125682,note_on,0,0,3,,,,,,,,,2,,,52,0
125682,note_on,12,0,3,,,,,,,,,2,,,60,0
125682,note_on,0,0,3,,,,,,,,,2,,,55,0
125730,note_on,0,0,1,,,,,,,,,0,,,86,0
125730,note_on,0,0,1,,,,,,,,,0,,,84,75
125730,note_on,0,0,1,,,,,,,,,0,,,88,75
125730,note_on,60,0,1,,,,,,,,,0,,,90,0
125736,note_on,6,0,1,,,,,,,,,0,,,88,0
125736,note_on,0,0,1,,,,,,,,,0,,,84,0
125790,note_on,108,0,3,,,,,,,,,2,,,43,62
125790,note_on,54,0,1,,,,,,,,,0,,,84,75
125790,note_on,0,0,1,,,,,,,,,0,,,88,75
125850,note_on,0,0,1,,,,,,,,,0,,,86,75
125850,note_on,60,0,1,,,,,,,,,0,,,88,0
125850,note_on,0,0,1,,,,,,,,,0,,,84,0
125850,note_on,0,0,1,,,,,,,,,0,,,83,75
125856,note_on,6,0,1,,,,,,,,,0,,,86,0
125856,note_on,0,0,1,,,,,,,,,0,,,83,0
125910,note_on,120,0,3,,,,,,,,,2,,,43,0
125910,note_on,0,0,3,,,,,,,,,2,,,50,62
125910,note_on,0,0,3,,,,,,,,,2,,,55,62
125910,note_on,0,0,1,,,,,,,,,0,,,86,75
125910,note_on,0,0,3,,,,,,,,,2,,,59,62
125910,note_on,54,0,1,,,,,,,,,0,,,83,75
125922,note_on,0,0,3,,,,,,,,,2,,,50,0
125922,note_on,0,0,3,,,,,,,,,2,,,55,0
125922,note_on,12,0,3,,,,,,,,,2,,,59,0
125970,note_on,0,0,1,,,,,,,,,0,,,84,75
125970,note_on,0,0,1,,,,,,,,,0,,,81,75
125970,note_on,0,0,1,,,,,,,,,0,,,83,0
125970,note_on,60,0,1,,,,,,,,,0,,,86,0
125976,note_on,0,0,1,,,,,,,,,0,,,81,0
125976,note_on,6,0,1,,,,,,,,,0,,,84,0
126030,note_on,0,0,3,,,,,,,,,2,,,55,62
126030,note_on,0,0,1,,,,,,,,,0,,,84,75
126030,note_on,108,0,3,,,,,,,,,2,,,50,62
126030,note_on,54,0,1,,,,,,,,,0,,,81,75
126030,note_on,0,0,3,,,,,,,,,2,,,59,62
126042,note_on,0,0,3,,,,,,,,,2,,,55,0
126042,note_on,12,0,3,,,,,,,,,2,,,59,0
126042,note_on,0,0,3,,,,,,,,,2,,,50,0
126090,note_on,0,0,1,,,,,,,,,0,,,79,75
126090,note_on,60,0,1,,,,,,,,,0,,,84,0
126090,note_on,0,0,1,,,,,,,,,0,,,81,0
126090,note_on,0,0,1,,,,,,,,,0,,,83,75
126096,note_on,6,0,1,,,,,,,,,0,,,83,0
126096,note_on,0,0,1,,,,,,,,,0,,,79,0
126150,note_on,0,0,1,,,,,,,,,0,,,86,75
126150,note_on,54,0,1,,,,,,,,,0,,,83,75
126150,note_on,108,0,3,,,,,,,,,2,,,38,62
126210,note_on,0,0,1,,,,,,,,,0,,,84,75
126210,note_on,0,0,1,,,,,,,,,0,,,83,0
126210,note_on,0,0,1,,,,,,,,,0,,,81,75
126210,note_on,60,0,1,,,,,,,,,0,,,86,0
126216,note_on,0,0,1,,,,,,,,,0,,,81,0
126216,note_on,6,0,1,,,,,,,,,0,,,84,0
126270,note_on,120,0,3,,,,,,,,,2,,,38,0
126270,note_on,0,0,3,,,,,,,,,2,,,54,62
126270,note_on,0,0,3,,,,,,,,,2,,,60,62
126270,note_on,54,0,1,,,,,,,,,0,,,81,75
126270,note_on,0,0,1,,,,,,,,,0,,,84,75
126270,note_on,0,0,3,,,,,,,,,2,,,50,62
126282,note_on,0,0,3,,,,,,,,,2,,,50,0
126282,note_on,0,0,3,,,,,,,,,2,,,54,0
126282,note_on,12,0,3,,,,,,,,,2,,,60,0
126330,note_on,0,0,1,,,,,,,,,0,,,81,0
126330,note_on,60,0,1,,,,,,,,,0,,,84,0
126330,note_on,0,0,1,,,,,,,,,0,,,79,75
126330,note_on,0,0,1,,,,,,,,,0,,,83,75
126336,note_on,0,0,1,,,,,,,,,0,,,79,0
126336,note_on,6,0,1,,,,,,,,,0,,,83,0
126390,note_on,108,0,3,,,,,,,,,2,,,50,62
126390,note_on,0,0,1,,,,,,,,,0,,,83,75
126390,note_on,0,0,3,,,,,,,,,2,,,60,62
126390,note_on,54,0,1,,,,,,,,,0,,,79,75
126390,note_on,0,0,3,,,,,,,,,2,,,54,62
126402,note_on,12,0,3,,,,,,,,,2,,,60,0
126402,note_on,0,0,3,,,,,,,,,2,,,54,0
126402,note_on,0,0,3,,,,,,,,,2,,,50,0
126450,note_on,0,0,1,,,,,,,,,0,,,81,75
126450,note_on,0,0,1,,,,,,,,,0,,,74,75
126450,note_on,0,0,1,,,,,,,,,0,,,79,0
126450,note_on,60,0,1,,,,,,,,,0,,,83,0
126456,note_on,6,0,1,,,,,,,,,0,,,81,0
126456,note_on,0,0,1,,,,,,,,,0,,,74,0
126510,note_on,54,0,1,,,,,,,,,0,,,71,75
126510,note_on,108,0,3,,,,,,,,,2,,,43,62
126510,time_signature,2520,1,0,3,8,12,8,,,,,,,,,
126510,note_on,0,0,1,,,,,,,,,0,,,79,75
126630,note_on,0,0,3,,,,,,,,,2,,,59,62
126630,note_on,0,0,3,,,,,,,,,2,,,55,62
126630,note_on,0,0,3,,,,,,,,,2,,,50,62
126630,note_on,120,0,3,,,,,,,,,2,,,43,0
126690,note_on,0,0,3,,,,,,,,,2,,,55,0
126690,note_on,60,0,3,,,,,,,,,2,,,59,0
126690,note_on,180,0,1,,,,,,,,,0,,,79,0
126690,note_on,0,0,1,,,,,,,,,0,,,71,0
126690,note_on,0,0,1,,,,,,,,,0,,,78,88
126690,note_on,0,0,3,,,,,,,,,2,,,50,0
126750,note_on,60,0,1,,,,,,,,,0,,,78,0
126750,note_on,0,0,1,,,,,,,,,0,,,79,88
126810,note_on,60,0,1,,,,,,,,,0,,,79,0
126810,note_on,0,0,1,,,,,,,,,0,,,83,88
126870,note_on,180,0,3,,,,,,,,,2,,,43,75
126870,note_on,60,0,1,,,,,,,,,0,,,83,0
126870,note_on,0,0,1,,,,,,,,,0,,,74,88
126870,time_signature,360,1,0,3,4,24,8,,,,,,,,,
126990,note_on,0,0,3,,,,,,,,,2,,,59,75
126990,note_on,120,0,3,,,,,,,,,2,,,43,0
126990,note_on,0,0,3,,,,,,,,,2,,,50,75
126990,note_on,0,0,3,,,,,,,,,2,,,55,75
127002,note_on,12,0,3,,,,,,,,,2,,,59,0
127002,note_on,0,0,3,,,,,,,,,2,,,50,0
127002,note_on,0,0,3,,,,,,,,,2,,,55,0
127050,note_on,180,0,1,,,,,,,,,0,,,74,0
127050,note_on,0,0,1,,,,,,,,,0,,,78,88
127110,note_on,108,0,3,,,,,,,,,2,,,50,75
127110,note_on,0,0,3,,,,,,,,,2,,,59,75
127110,note_on,60,0,1,,,,,,,,,0,,,78,0
127110,note_on,0,0,1,,,,,,,,,0,,,79,88
127110,note_on,0,0,3,,,,,,,,,2,,,55,75
127122,note_on,12,0,3,,,,,,,,,2,,,59,0
127122,note_on,0,0,3,,,,,,,,,2,,,55,0
127122,note_on,0,0,3,,,,,,,,,2,,,50,0
127170,note_on,60,0,1,,,,,,,,,0,,,79,0
127170,note_on,0,0,1,,,,,,,,,0,,,83,88
127230,note_on,108,0,3,,,,,,,,,2,,,43,75
127230,note_on,60,0,1,,,,,,,,,0,,,83,0
127230,note_on,0,0,1,,,,,,,,,0,,,86,88
127350,note_on,0,0,3,,,,,,,,,2,,,55,75
127350,note_on,0,0,3,,,,,,,,,2,,,50,75
127350,note_on,120,0,3,,,,,,,,,2,,,43,0
127350,note_on,0,0,3,,,,,,,,,2,,,59,75
127362,note_on,0,0,3,,,,,,,,,2,,,55,0
127362,note_on,12,0,3,,,,,,,,,2,,,59,0
127362,note_on,0,0,3,,,,,,,,,2,,,50,0
127410,note_on,180,0,1,,,,,,,,,0,,,86,0
127410,note_on,0,0,1,,,,,,,,,0,,,78,88
127470,note_on,0,0,1,,,,,,,,,0,,,79,88
127470,note_on,60,0,1,,,,,,,,,0,,,78,0
127470,note_on,108,0,3,,,,,,,,,2,,,50,75
127470,note_on,0,0,3,,,,,,,,,2,,,55,75
127470,note_on,0,0,3,,,,,,,,,2,,,59,75
127482,note_on,0,0,3,,,,,,,,,2,,,50,0
127482,note_on,0,0,3,,,,,,,,,2,,,55,0
127482,note_on,12,0,3,,,,,,,,,2,,,59,0
127530,note_on,0,0,1,,,,,,,,,0,,,83,88
127530,note_on,60,0,1,,,,,,,,,0,,,79,0
127590,note_on,0,0,1,,,,,,,,,0,,,74,88
127590,note_on,108,0,3,,,,,,,,,2,,,43,75
127590,note_on,60,0,1,,,,,,,,,0,,,83,0
127650,note_on,0,0,1,,,,,,,,,0,,,79,88
127650,note_on,60,0,1,,,,,,,,,0,,,74,0
127710,note_on,60,0,1,,,,,,,,,0,,,79,0
127710,note_on,0,0,3,,,,,,,,,2,,,50,75
127710,note_on,0,0,1,,,,,,,,,0,,,83,88
127710,note_on,0,0,3,,,,,,,,,2,,,55,75
127710,note_on,120,0,3,,,,,,,,,2,,,43,0
127710,note_on,0,0,3,,,,,,,,,2,,,59,75
127722,note_on,0,0,3,,,,,,,,,2,,,50,0
127722,note_on,0,0,3,,,,,,,,,2,,,55,0
127722,note_on,12,0,3,,,,,,,,,2,,,59,0
127770,note_on,0,0,1,,,,,,,,,0,,,86,88
127770,note_on,60,0,1,,,,,,,,,0,,,83,0
127830,note_on,0,0,1,,,,,,,,,0,,,91,88
127830,note_on,108,0,3,,,,,,,,,2,,,50,75
127830,note_on,0,0,3,,,,,,,,,2,,,55,75
127830,note_on,0,0,3,,,,,,,,,2,,,59,75
127830,note_on,60,0,1,,,,,,,,,0,,,86,0
127842,note_on,12,0,3,,,,,,,,,2,,,59,0
127842,note_on,0,0,3,,,,,,,,,2,,,55,0
127842,note_on,0,0,3,,,,,,,,,2,,,50,0
127890,note_on,60,0,1,,,,,,,,,0,,,91,0
127890,note_on,0,0,1,,,,,,,,,0,,,95,88
127950,note_on,108,0,3,,,,,,,,,2,,,43,101
127950,note_on,0,0,1,,,,,,,,,0,,,98,114
127950,note_on,60,0,1,,,,,,,,,0,,,95,0
128070,note_on,0,0,3,,,,,,,,,2,,,55,75
128070,note_on,0,0,3,,,,,,,,,2,,,50,75
128070,note_on,120,0,3,,,,,,,,,2,,,43,0
128070,note_on,0,0,3,,,,,,,,,2,,,59,75
128082,note_on,0,0,3,,,,,,,,,2,,,55,0
128082,note_on,0,0,3,,,,,,,,,2,,,50,0
128082,note_on,12,0,3,,,,,,,,,2,,,59,0
128130,note_on,0,0,1,,,,,,,,,0,,,86,88
128130,note_on,180,0,1,,,,,,,,,0,,,98,0
128190,note_on,60,0,1,,,,,,,,,0,,,86,0
128190,note_on,0,0,1,,,,,,,,,0,,,84,88
128190,note_on,0,0,3,,,,,,,,,2,,,55,75
128190,note_on,0,0,3,,,,,,,,,2,,,59,75
128190,note_on,108,0,3,,,,,,,,,2,,,50,75
128202,note_on,0,0,3,,,,,,,,,2,,,55,0
128202,note_on,0,0,3,,,,,,,,,2,,,50,0
128202,note_on,12,0,3,,,,,,,,,2,,,59,0
128250,note_on,60,0,1,,,,,,,,,0,,,84,0
128250,note_on,0,0,1,,,,,,,,,0,,,83,88
128310,note_on,108,0,3,,,,,,,,,2,,,36,36
128310,note_on,0,0,1,,,,,,,,,0,,,80,49
128310,note_on,60,0,1,,,,,,,,,0,,,83,0
128370,note_on,0,0,1,,,,,,,,,0,,,81,49
128370,note_on,60,0,1,,,,,,,,,0,,,80,0
128376,note_on,6,0,1,,,,,,,,,0,,,81,0
128430,note_on,0,0,3,,,,,,,,,2,,,48,36
128430,note_on,0,0,3,,,,,,,,,2,,,52,36
128430,note_on,0,0,3,,,,,,,,,2,,,57,36
128430,note_on,120,0,3,,,,,,,,,2,,,36,0
128430,note_on,54,0,1,,,,,,,,,0,,,91,75
128442,note_on,12,0,3,,,,,,,,,2,,,57,0
128442,note_on,0,0,3,,,,,,,,,2,,,52,0
128442,note_on,0,0,3,,,,,,,,,2,,,48,0
128490,note_on,0,0,1,,,,,,,,,0,,,88,49
128490,note_on,60,0,1,,,,,,,,,0,,,91,0
128550,note_on,108,0,3,,,,,,,,,2,,,48,36
128550,note_on,0,0,1,,,,,,,,,0,,,84,49
128550,note_on,0,0,3,,,,,,,,,2,,,52,36
128550,note_on,60,0,1,,,,,,,,,0,,,88,0
128550,note_on,0,0,3,,,,,,,,,2,,,57,36
128562,note_on,12,0,3,,,,,,,,,2,,,57,0
128562,note_on,0,0,3,,,,,,,,,2,,,52,0
128562,note_on,0,0,3,,,,,,,,,2,,,48,0
128610,note_on,60,0,1,,,,,,,,,0,,,84,0
128610,note_on,0,0,1,,,,,,,,,0,,,81,49
128670,note_on,60,0,1,,,,,,,,,0,,,81,0
128670,note_on,0,0,1,,,,,,,,,0,,,78,49
128670,note_on,108,0,3,,,,,,,,,2,,,38,36
128730,note_on,0,0,1,,,,,,,,,0,,,79,49
128730,note_on,60,0,1,,,,,,,,,0,,,78,0
128736,note_on,6,0,1,,,,,,,,,0,,,79,0
128790,note_on,120,0,3,,,,,,,,,2,,,38,0
128790,note_on,0,0,3,,,,,,,,,2,,,50,36
128790,note_on,0,0,3,,,,,,,,,2,,,55,36
128790,note_on,0,0,3,,,,,,,,,2,,,59,36
128790,note_on,54,0,1,,,,,,,,,0,,,88,75
128802,note_on,12,0,3,,,,,,,,,2,,,59,0
128802,note_on,0,0,3,,,,,,,,,2,,,50,0
128802,note_on,0,0,3,,,,,,,,,2,,,55,0
128850,note_on,60,0,1,,,,,,,,,0,,,88,0
128850,note_on,0,0,1,,,,,,,,,0,,,86,49
128910,note_on,60,0,1,,,,,,,,,0,,,86,0
128910,note_on,0,0,3,,,,,,,,,2,,,59,36
128910,note_on,0,0,1,,,,,,,,,0,,,83,49
128910,note_on,0,0,3,,,,,,,,,2,,,55,36
128910,note_on,108,0,3,,,,,,,,,2,,,50,36
128922,note_on,0,0,3,,,,,,,,,2,,,50,0
128922,note_on,0,0,3,,,,,,,,,2,,,55,0
128922,note_on,12,0,3,,,,,,,,,2,,,59,0
128970,note_on,60,0,1,,,,,,,,,0,,,83,0
128970,note_on,0,0,1,,,,,,,,,0,,,79,49
129030,note_on,0,0,1,,,,,,,,,0,,,85,49
129030,note_on,108,0,3,,,,,,,,,2,,,38,36
129030,note_on,60,0,1,,,,,,,,,0,,,79,0
129090,note_on,0,0,1,,,,,,,,,0,,,86,49
129090,note_on,60,0,1,,,,,,,,,0,,,85,0
129096,note_on,6,0,1,,,,,,,,,0,,,86,0
129150,note_on,0,0,3,,,,,,,,,2,,,60,36
129150,note_on,0,0,3,,,,,,,,,2,,,54,36
129150,note_on,0,0,3,,,,,,,,,2,,,50,36
129150,note_on,120,0,3,,,,,,,,,2,,,38,0
129150,note_on,54,0,1,,,,,,,,,0,,,98,75
129162,note_on,12,0,3,,,,,,,,,2,,,60,0
129162,note_on,0,0,3,,,,,,,,,2,,,54,0
129162,note_on,0,0,3,,,,,,,,,2,,,50,0
129210,note_on,0,0,1,,,,,,,,,0,,,96,49
129210,note_on,60,0,1,,,,,,,,,0,,,98,0
129270,note_on,0,0,3,,,,,,,,,2,,,60,36
129270,note_on,60,0,1,,,,,,,,,0,,,96,0
129270,note_on,0,0,3,,,,,,,,,2,,,54,36
129270,note_on,0,0,1,,,,,,,,,0,,,93,49
129270,note_on,108,0,3,,,,,,,,,2,,,50,36
129282,note_on,0,0,3,,,,,,,,,2,,,54,0
129282,note_on,0,0,3,,,,,,,,,2,,,50,0
129282,note_on,12,0,3,,,,,,,,,2,,,60,0
129330,note_on,0,0,1,,,,,,,,,0,,,95,49
129330,note_on,60,0,1,,,,,,,,,0,,,93,0
129390,note_on,108,0,3,,,,,,,,,2,,,43,36
129390,time_signature,2520,1,0,3,8,12,8,,,,,,,,,
129390,note_on,0,0,1,,,,,,,,,0,,,91,49
129390,note_on,60,0,1,,,,,,,,,0,,,95,0
129510,note_on,120,0,3,,,,,,,,,2,,,43,0
129510,note_on,0,0,3,,,,,,,,,2,,,50,36
129510,note_on,0,0,3,,,,,,,,,2,,,55,36
129510,note_on,0,0,3,,,,,,,,,2,,,59,36
129570,note_on,0,0,1,,,,,,,,,0,,,78,88
129570,note_on,180,0,1,,,,,,,,,0,,,91,0
129570,note_on,60,0,3,,,,,,,,,2,,,59,0
129570,note_on,0,0,3,,,,,,,,,2,,,50,0
129570,note_on,0,0,3,,,,,,,,,2,,,55,0
129630,note_on,0,0,1,,,,,,,,,0,,,79,88
129630,note_on,60,0,1,,,,,,,,,0,,,78,0
129690,note_on,60,0,1,,,,,,,,,0,,,79,0
129690,note_on,0,0,1,,,,,,,,,0,,,83,88
129750,time_signature,360,1,0,3,4,24,8,,,,,,,,,
129750,note_on,0,0,1,,,,,,,,,0,,,74,88
129750,note_on,60,0,1,,,,,,,,,0,,,83,0
129750,note_on,180,0,3,,,,,,,,,2,,,43,75
129870,note_on,0,0,3,,,,,,,,,2,,,59,75
129870,note_on,0,0,3,,,,,,,,,2,,,55,75
129870,note_on,0,0,3,,,,,,,,,2,,,50,75
129870,note_on,120,0,3,,,,,,,,,2,,,43,0
129882,note_on,12,0,3,,,,,,,,,2,,,59,0
129882,note_on,0,0,3,,,,,,,,,2,,,55,0
129882,note_on,0,0,3,,,,,,,,,2,,,50,0
129930,note_on,180,0,1,,,,,,,,,0,,,74,0
129930,note_on,0,0,1,,,,,,,,,0,,,78,88
129990,note_on,0,0,3,,,,,,,,,2,,,59,75
129990,note_on,0,0,3,,,,,,,,,2,,,55,75
129990,note_on,108,0,3,,,,,,,,,2,,,50,75
129990,note_on,60,0,1,,,,,,,,,0,,,78,0
129990,note_on,0,0,1,,,,,,,,,0,,,79,88
130002,note_on,0,0,3,,,,,,,,,2,,,50,0
130002,note_on,0,0,3,,,,,,,,,2,,,55,0
130002,note_on,12,0,3,,,,,,,,,2,,,59,0
130050,note_on,0,0,1,,,,,,,,,0,,,83,88
130050,note_on,60,0,1,,,,,,,,,0,,,79,0
130110,note_on,0,0,1,,,,,,,,,0,,,86,88
130110,note_on,60,0,1,,,,,,,,,0,,,83,0
130110,note_on,108,0,3,,,,,,,,,2,,,43,75
130230,note_on,0,0,3,,,,,,,,,2,,,59,75
130230,note_on,0,0,3,,,,,,,,,2,,,55,75
130230,note_on,0,0,3,,,,,,,,,2,,,50,75
130230,note_on,120,0,3,,,,,,,,,2,,,43,0
130242,note_on,0,0,3,,,,,,,,,2,,,55,0
130242,note_on,0,0,3,,,,,,,,,2,,,50,0
130242,note_on,12,0,3,,,,,,,,,2,,,59,0
130290,note_on,180,0,1,,,,,,,,,0,,,86,0
130290,note_on,0,0,1,,,,,,,,,0,,,78,88
130350,note_on,60,0,1,,,,,,,,,0,,,78,0
130350,note_on,0,0,1,,,,,,,,,0,,,79,88
130350,note_on,0,0,3,,,,,,,,,2,,,59,75
130350,note_on,0,0,3,,,,,,,,,2,,,55,75
130350,note_on,108,0,3,,,,,,,,,2,,,50,75
130362,note_on,12,0,3,,,,,,,,,2,,,59,0
130362,note_on,0,0,3,,,,,,,,,2,,,55,0
130362,note_on,0,0,3,,,,,,,,,2,,,50,0
130410,note_on,0,0,1,,,,,,,,,0,,,83,88
130410,note_on,60,0,1,,,,,,,,,0,,,79,0
130470,note_on,108,0,3,,,,,,,,,2,,,43,75
130470,note_on,0,0,1,,,,,,,,,0,,,74,88
130470,note_on,60,0,1,,,,,,,,,0,,,83,0
130530,note_on,0,0,1,,,,,,,,,0,,,79,88
130530,note_on,60,0,1,,,,,,,,,0,,,74,0
130590,note_on,0,0,1,,,,,,,,,0,,,83,88
130590,note_on,0,0,3,,,,,,,,,2,,,55,75
130590,note_on,120,0,3,,,,,,,,,2,,,43,0
130590,note_on,0,0,3,,,,,,,,,2,,,59,75
130590,note_on,60,0,1,,,,,,,,,0,,,79,0
130590,note_on,0,0,3,,,,,,,,,2,,,50,75
130602,note_on,0,0,3,,,,,,,,,2,,,55,0
130602,note_on,12,0,3,,,,,,,,,2,,,59,0
130602,note_on,0,0,3,,,,,,,,,2,,,50,0
130650,note_on,0,0,1,,,,,,,,,0,,,86,88
130650,note_on,60,0,1,,,,,,,,,0,,,83,0
130710,note_on,0,0,3,,,,,,,,,2,,,55,75
130710,note_on,0,0,3,,,,,,,,,2,,,59,75
130710,note_on,60,0,1,,,,,,,,,0,,,86,0
130710,note_on,108,0,3,,,,,,,,,2,,,50,75
130710,note_on,0,0,1,,,,,,,,,0,,,91,88
130722,note_on,0,0,3,,,,,,,,,2,,,50,0
130722,note_on,12,0,3,,,,,,,,,2,,,59,0
130722,note_on,0,0,3,,,,,,,,,2,,,55,0
130770,note_on,0,0,1,,,,,,,,,0,,,95,88
130770,note_on,60,0,1,,,,,,,,,0,,,91,0
130830,note_on,0,0,1,,,,,,,,,0,,,98,114
130830,note_on,60,0,1,,,,,,,,,0,,,95,0
130830,note_on,108,0,3,,,,,,,,,2,,,43,101
130950,note_on,120,0,3,,,,,,,,,2,,,43,0
130950,note_on,0,0,3,,,,,,,,,2,,,55,75
130950,note_on,0,0,3,,,,,,,,,2,,,59,75
130950,note_on,0,0,3,,,,,,,,,2,,,50,75
130962,note_on,0,0,3,,,,,,,,,2,,,50,0
130962,note_on,0,0,3,,,,,,,,,2,,,55,0
130962,note_on,12,0,3,,,,,,,,,2,,,59,0
131010,note_on,0,0,1,,,,,,,,,0,,,86,88
131010,note_on,180,0,1,,,,,,,,,0,,,98,0
131070,note_on,0,0,3,,,,,,,,,2,,,55,75
131070,note_on,0,0,1,,,,,,,,,0,,,84,88
131070,note_on,60,0,1,,,,,,,,,0,,,86,0
131070,note_on,108,0,3,,,,,,,,,2,,,50,75
131070,note_on,0,0,3,,,,,,,,,2,,,59,75
131082,note_on,0,0,3,,,,,,,,,2,,,50,0
131082,note_on,12,0,3,,,,,,,,,2,,,59,0
131082,note_on,0,0,3,,,,,,,,,2,,,55,0
131130,note_on,60,0,1,,,,,,,,,0,,,84,0
131130,note_on,0,0,1,,,,,,,,,0,,,83,88
131190,note_on,60,0,1,,,,,,,,,0,,,83,0
131190,note_on,108,0,3,,,,,,,,,2,,,36,36
131190,note_on,0,0,1,,,,,,,,,0,,,80,49
131250,note_on,0,0,1,,,,,,,,,0,,,81,49
131250,note_on,60,0,1,,,,,,,,,0,,,80,0
131256,note_on,6,0,1,,,,,,,,,0,,,81,0
131310,note_on,0,0,3,,,,,,,,,2,,,57,36
131310,note_on,0,0,3,,,,,,,,,2,,,52,36
131310,note_on,0,0,3,,,,,,,,,2,,,48,36
131310,note_on,54,0,1,,,,,,,,,0,,,91,75
131310,note_on,120,0,3,,,,,,,,,2,,,36,0
131322,note_on,12,0,3,,,,,,,,,2,,,57,0
131322,note_on,0,0,3,,,,,,,,,2,,,48,0
131322,note_on,0,0,3,,,,,,,,,2,,,52,0
131370,note_on,0,0,1,,,,,,,,,0,,,88,49
131370,note_on,60,0,1,,,,,,,,,0,,,91,0
131430,note_on,60,0,1,,,,,,,,,0,,,88,0
131430,note_on,0,0,1,,,,,,,,,0,,,84,49
131430,note_on,0,0,3,,,,,,,,,2,,,57,36
131430,note_on,108,0,3,,,,,,,,,2,,,48,36
131430,note_on,0,0,3,,,,,,,,,2,,,52,36
131442,note_on,12,0,3,,,,,,,,,2,,,57,0
131442,note_on,0,0,3,,,,,,,,,2,,,48,0
131442,note_on,0,0,3,,,,,,,,,2,,,52,0
131490,note_on,60,0,1,,,,,,,,,0,,,84,0
131490,note_on,0,0,1,,,,,,,,,0,,,81,49
131550,note_on,60,0,1,,,,,,,,,0,,,81,0
131550,note_on,0,0,1,,,,,,,,,0,,,78,49
131550,note_on,108,0,3,,,,,,,,,2,,,38,36
131610,note_on,0,0,1,,,,,,,,,0,,,79,49
131610,note_on,60,0,1,,,,,,,,,0,,,78,0
131616,note_on,6,0,1,,,,,,,,,0,,,79,0
131670,note_on,54,0,1,,,,,,,,,0,,,88,75
131670,note_on,0,0,3,,,,,,,,,2,,,59,36
131670,note_on,0,0,3,,,,,,,,,2,,,55,36
131670,note_on,0,0,3,,,,,,,,,2,,,50,36
131670,note_on,120,0,3,,,,,,,,,2,,,38,0
131682,note_on,0,0,3,,,,,,,,,2,,,50,0
131682,note_on,12,0,3,,,,,,,,,2,,,59,0
131682,note_on,0,0,3,,,,,,,,,2,,,55,0
131730,note_on,0,0,1,,,,,,,,,0,,,86,49
131730,note_on,60,0,1,,,,,,,,,0,,,88,0
131790,note_on,108,0,3,,,,,,,,,2,,,50,36
131790,note_on,60,0,1,,,,,,,,,0,,,86,0
131790,note_on,0,0,3,,,,,,,,,2,,,55,36
131790,note_on,0,0,1,,,,,,,,,0,,,83,49
131790,note_on,0,0,3,,,,,,,,,2,,,59,36
131802,note_on,12,0,3,,,,,,,,,2,,,59,0
131802,note_on,0,0,3,,,,,,,,,2,,,55,0
131802,note_on,0,0,3,,,,,,,,,2,,,50,0
131850,note_on,0,0,1,,,,,,,,,0,,,79,49
131850,note_on,60,0,1,,,,,,,,,0,,,83,0
131910,note_on,108,0,3,,,,,,,,,2,,,38,36
131910,note_on,0,0,1,,,,,,,,,0,,,85,49
131910,note_on,60,0,1,,,,,,,,,0,,,79,0
131970,note_on,0,0,1,,,,,,,,,0,,,86,49
131970,note_on,60,0,1,,,,,,,,,0,,,85,0
131976,note_on,6,0,1,,,,,,,,,0,,,86,0
132030,note_on,0,0,3,,,,,,,,,2,,,60,36
132030,note_on,0,0,3,,,,,,,,,2,,,54,36
132030,note_on,0,0,3,,,,,,,,,2,,,50,36
132030,note_on,120,0,3,,,,,,,,,2,,,38,0
132030,note_on,54,0,1,,,,,,,,,0,,,98,75
132042,note_on,0,0,3,,,,,,,,,2,,,50,0
132042,note_on,12,0,3,,,,,,,,,2,,,60,0
132042,note_on,0,0,3,,,,,,,,,2,,,54,0
132090,note_on,60,0,1,,,,,,,,,0,,,98,0
132090,note_on,0,0,1,,,,,,,,,0,,,96,49
132150,note_on,108,0,3,,,,,,,,,2,,,50,36
132150,note_on,60,0,1,,,,,,,,,0,,,96,0
132150,note_on,0,0,3,,,,,,,,,2,,,60,36
132150,note_on,0,0,3,,,,,,,,,2,,,54,36
132150,note_on,0,0,1,,,,,,,,,0,,,93,49
132162,note_on,12,0,3,,,,,,,,,2,,,60,0
132162,note_on,0,0,3,,,,,,,,,2,,,50,0
132162,note_on,0,0,3,,,,,,,,,2,,,54,0
132210,note_on,60,0,1,,,,,,,,,0,,,93,0
132210,note_on,0,0,1,,,,,,,,,0,,,95,49
132270,note_on,108,0,3,,,,,,,,,2,,,43,36
132270,note_on,0,0,1,,,,,,,,,0,,,91,49
132270,time_signature,2520,1,0,3,8,12,8,,,,,,,,,
132270,note_on,60,0,1,,,,,,,,,0,,,95,0
132390,note_on,120,0,3,,,,,,,,,2,,,43,0
132390,note_on,0,0,3,,,,,,,,,2,,,59,36
132390,note_on,0,0,3,,,,,,,,,2,,,55,36
132390,note_on,0,0,3,,,,,,,,,2,,,50,36
132450,note_on,0,0,1,,,,,,,,,0,,,79,88
132450,note_on,0,0,3,,,,,,,,,2,,,55,0
132450,note_on,60,0,3,,,,,,,,,2,,,59,0
132450,note_on,0,0,3,,,,,,,,,2,,,50,0
132450,note_on,180,0,1,,,,,,,,,0,,,91,0
132510,note_on,60,0,1,,,,,,,,,0,,,79,0
132510,note_on,0,0,1,,,,,,,,,0,,,81,88
132570,note_on,60,0,1,,,,,,,,,0,,,81,0
132570,note_on,0,0,1,,,,,,,,,0,,,83,88
132630,note_on,60,0,1,,,,,,,,,0,,,83,0
132630,note_on,180,0,3,,,,,,,,,2,,,52,75
132630,time_signature,360,1,0,3,4,24,8,,,,,,,,,
132630,note_on,0,0,1,,,,,,,,,0,,,82,88
132690,note_on,60,0,1,,,,,,,,,0,,,82,0
132690,note_on,0,0,1,,,,,,,,,0,,,83,88
132696,note_on,6,0,1,,,,,,,,,0,,,83,0
132750,note_on,120,0,3,,,,,,,,,2,,,52,0
132750,note_on,0,0,3,,,,,,,,,2,,,55,75
132750,note_on,0,0,3,,,,,,,,,2,,,59,75
132750,note_on,54,0,1,,,,,,,,,0,,,95,114
132750,note_on,0,0,3,,,,,,,,,2,,,64,75
132762,note_on,12,0,3,,,,,,,,,2,,,64,0
132762,note_on,0,0,3,,,,,,,,,2,,,59,0
132762,note_on,0,0,3,,,,,,,,,2,,,55,0
132810,note_on,60,0,1,,,,,,,,,0,,,95,0
132810,note_on,0,0,1,,,,,,,,,0,,,91,88
132870,note_on,108,0,3,,,,,,,,,2,,,55,75
132870,note_on,0,0,3,,,,,,,,,2,,,59,75
132870,note_on,0,0,3,,,,,,,,,2,,,64,75
132870,note_on,60,0,1,,,,,,,,,0,,,91,0
132870,note_on,0,0,1,,,,,,,,,0,,,88,88
132882,note_on,12,0,3,,,,,,,,,2,,,64,0
132882,note_on,0,0,3,,,,,,,,,2,,,59,0
132882,note_on,0,0,3,,,,,,,,,2,,,55,0
132930,note_on,0,0,1,,,,,,,,,0,,,83,88
132930,note_on,60,0,1,,,,,,,,,0,,,88,0
132990,note_on,108,0,3,,,,,,,,,2,,,51,75
132990,note_on,0,0,1,,,,,,,,,0,,,82,88
132990,note_on,60,0,1,,,,,,,,,0,,,83,0
133050,note_on,0,0,1,,,,,,,,,0,,,83,88
133050,note_on,60,0,1,,,,,,,,,0,,,82,0
133056,note_on,6,0,1,,,,,,,,,0,,,83,0
133110,note_on,0,0,3,,,,,,,,,2,,,59,75
133110,note_on,120,0,3,,,,,,,,,2,,,51,0
133110,note_on,0,0,3,,,,,,,,,2,,,66,75
133110,note_on,0,0,3,,,,,,,,,2,,,57,75
133110,note_on,54,0,1,,,,,,,,,0,,,95,114
133122,note_on,12,0,3,,,,,,,,,2,,,66,0
133122,note_on,0,0,3,,,,,,,,,2,,,59,0
133122,note_on,0,0,3,,,,,,,,,2,,,57,0
133170,note_on,0,0,1,,,,,,,,,0,,,93,88
133170,note_on,60,0,1,,,,,,,,,0,,,95,0
133230,note_on,108,0,3,,,,,,,,,2,,,57,75
133230,note_on,0,0,3,,,,,,,,,2,,,59,75
133230,note_on,0,0,3,,,,,,,,,2,,,66,75
133230,note_on,0,0,1,,,,,,,,,0,,,90,88
133230,note_on,60,0,1,,,,,,,,,0,,,93,0
133242,note_on,0,0,3,,,,,,,,,2,,,59,0
133242,note_on,12,0,3,,,,,,,,,2,,,66,0
133242,note_on,0,0,3,,,,,,,,,2,,,57,0
133290,note_on,60,0,1,,,,,,,,,0,,,90,0
133290,note_on,0,0,1,,,,,,,,,0,,,83,88
133350,note_on,108,0,3,,,,,,,,,2,,,47,75
133350,note_on,60,0,1,,,,,,,,,0,,,83,0
133350,note_on,0,0,1,,,,,,,,,0,,,82,88
133410,note_on,0,0,1,,,,,,,,,0,,,83,88
133410,note_on,60,0,1,,,,,,,,,0,,,82,0
133416,note_on,6,0,1,,,,,,,,,0,,,83,0
133470,note_on,54,0,1,,,,,,,,,0,,,95,114
133470,note_on,0,0,3,,,,,,,,,2,,,63,75
133470,note_on,120,0,3,,,,,,,,,2,,,47,0
133470,note_on,0,0,3,,,,,,,,,2,,,59,75
133470,note_on,0,0,3,,,,,,,,,2,,,57,75
133482,note_on,0,0,3,,,,,,,,,2,,,57,0
133482,note_on,0,0,3,,,,,,,,,2,,,59,0
133482,note_on,12,0,3,,,,,,,,,2,,,63,0
133530,note_on,0,0,1,,,,,,,,,0,,,90,88
133530,note_on,60,0,1,,,,,,,,,0,,,95,0
133590,note_on,0,0,3,,,,,,,,,2,,,59,75
133590,note_on,0,0,1,,,,,,,,,0,,,93,88
133590,note_on,60,0,1,,,,,,,,,0,,,90,0
133590,note_on,108,0,3,,,,,,,,,2,,,57,75
133590,note_on,0,0,3,,,,,,,,,2,,,63,75
133602,note_on,12,0,3,,,,,,,,,2,,,63,0
133602,note_on,0,0,3,,,,,,,,,2,,,59,0
133602,note_on,0,0,3,,,,,,,,,2,,,57,0
133650,note_on,60,0,1,,,,,,,,,0,,,93,0
133650,note_on,0,0,1,,,,,,,,,0,,,96,88
133710,note_on,108,0,3,,,,,,,,,2,,,52,75
133710,note_on,0,0,1,,,,,,,,,0,,,95,88
133710,note_on,60,0,1,,,,,,,,,0,,,96,0
133830,note_on,0,0,3,,,,,,,,,2,,,64,75
133830,note_on,0,0,3,,,,,,,,,2,,,59,75
133830,note_on,0,0,3,,,,,,,,,2,,,55,75
133830,note_on,120,0,3,,,,,,,,,2,,,52,0
133842,note_on,0,0,3,,,,,,,,,2,,,55,0
133842,note_on,0,0,3,,,,,,,,,2,,,59,0
133842,note_on,12,0,3,,,,,,,,,2,,,64,0
133890,note_on,0,0,1,,,,,,,,,0,,,79,88
133890,note_on,180,0,1,,,,,,,,,0,,,95,0
133950,note_on,0,0,3,,,,,,,,,2,,,59,75
133950,note_on,0,0,3,,,,,,,,,2,,,64,75
133950,note_on,0,0,1,,,,,,,,,0,,,78,88
133950,note_on,108,0,3,,,,,,,,,2,,,55,75
133950,note_on,60,0,1,,,,,,,,,0,,,79,0
133962,note_on,0,0,3,,,,,,,,,2,,,59,0
133962,note_on,0,0,3,,,,,,,,,2,,,55,0
133962,note_on,12,0,3,,,,,,,,,2,,,64,0
134010,note_on,60,0,1,,,,,,,,,0,,,78,0
134010,note_on,0,0,1,,,,,,,,,0,,,76,88
134070,note_on,0,0,1,,,,,,,,,0,,,73,49
134070,note_on,108,0,3,,,,,,,,,2,,,43,36
134070,note_on,60,0,1,,,,,,,,,0,,,76,0
134130,note_on,0,0,1,,,,,,,,,0,,,74,49
134130,note_on,60,0,1,,,,,,,,,0,,,73,0
134136,note_on,6,0,1,,,,,,,,,0,,,74,0
134190,note_on,0,0,3,,,,,,,,,2,,,50,36
134190,note_on,0,0,3,,,,,,,,,2,,,59,36
134190,note_on,0,0,3,,,,,,,,,2,,,55,36
134190,note_on,120,0,3,,,,,,,,,2,,,43,0
134190,note_on,54,0,1,,,,,,,,,0,,,86,75
134202,note_on,0,0,3,,,,,,,,,2,,,50,0
134202,note_on,0,0,3,,,,,,,,,2,,,55,0
134202,note_on,12,0,3,,,,,,,,,2,,,59,0
134250,note_on,60,0,1,,,,,,,,,0,,,86,0
134250,note_on,0,0,1,,,,,,,,,0,,,83,49
134310,note_on,108,0,3,,,,,,,,,2,,,50,36
134310,note_on,0,0,3,,,,,,,,,2,,,59,36
134310,note_on,60,0,1,,,,,,,,,0,,,83,0
134310,note_on,0,0,3,,,,,,,,,2,,,55,36
134310,note_on,0,0,1,,,,,,,,,0,,,79,49
134322,note_on,0,0,3,,,,,,,,,2,,,55,0
134322,note_on,12,0,3,,,,,,,,,2,,,59,0
134322,note_on,0,0,3,,,,,,,,,2,,,50,0
134370,note_on,60,0,1,,,,,,,,,0,,,79,0
134370,note_on,0,0,1,,,,,,,,,0,,,74,49
134430,note_on,108,0,3,,,,,,,,,2,,,36,36
134430,note_on,60,0,1,,,,,,,,,0,,,74,0
134430,note_on,0,0,1,,,,,,,,,0,,,80,49
134490,note_on,0,0,1,,,,,,,,,0,,,81,49
134490,note_on,60,0,1,,,,,,,,,0,,,80,0
134496,note_on,6,0,1,,,,,,,,,0,,,81,0
134550,note_on,120,0,3,,,,,,,,,2,,,36,0
134550,note_on,0,0,3,,,,,,,,,2,,,48,36
134550,note_on,0,0,3,,,,,,,,,2,,,52,36
134550,note_on,0,0,3,,,,,,,,,2,,,57,36
134550,note_on,54,0,1,,,,,,,,,0,,,91,75
134562,note_on,0,0,3,,,,,,,,,2,,,52,0
134562,note_on,0,0,3,,,,,,,,,2,,,48,0
134562,note_on,12,0,3,,,,,,,,,2,,,57,0
134610,note_on,60,0,1,,,,,,,,,0,,,91,0
134610,note_on,0,0,1,,,,,,,,,0,,,88,49
134670,note_on,108,0,3,,,,,,,,,2,,,48,36
134670,note_on,0,0,3,,,,,,,,,2,,,52,36
134670,note_on,0,0,3,,,,,,,,,2,,,57,36
134670,note_on,0,0,1,,,,,,,,,0,,,84,49
134670,note_on,60,0,1,,,,,,,,,0,,,88,0
134682,note_on,12,0,3,,,,,,,,,2,,,57,0
134682,note_on,0,0,3,,,,,,,,,2,,,52,0
134682,note_on,0,0,3,,,,,,,,,2,,,48,0
134730,note_on,0,0,1,,,,,,,,,0,,,81,49
134730,note_on,60,0,1,,,,,,,,,0,,,84,0
134790,note_on,0,0,1,,,,,,,,,0,,,77,49
134790,note_on,108,0,3,,,,,,,,,2,,,38,36
134790,note_on,60,0,1,,,,,,,,,0,,,81,0
134850,note_on,0,0,1,,,,,,,,,0,,,78,49
134850,note_on,60,0,1,,,,,,,,,0,,,77,0
134856,note_on,6,0,1,,,,,,,,,0,,,78,0
134910,note_on,54,0,1,,,,,,,,,0,,,88,75
134910,note_on,0,0,3,,,,,,,,,2,,,60,36
134910,note_on,0,0,3,,,,,,,,,2,,,54,36
134910,note_on,0,0,3,,,,,,,,,2,,,50,36
134910,note_on,120,0,3,,,,,,,,,2,,,38,0
134922,note_on,0,0,3,,,,,,,,,2,,,50,0
134922,note_on,12,0,3,,,,,,,,,2,,,60,0
134922,note_on,0,0,3,,,,,,,,,2,,,54,0
134970,note_on,60,0,1,,,,,,,,,0,,,88,0
134970,note_on,0,0,1,,,,,,,,,0,,,86,49
135030,note_on,108,0,3,,,,,,,,,2,,,50,36
135030,note_on,0,0,3,,,,,,,,,2,,,54,36
135030,note_on,0,0,3,,,,,,,,,2,,,60,36
135030,note_on,0,0,1,,,,,,,,,0,,,81,49
135030,note_on,60,0,1,,,,,,,,,0,,,86,0
135042,note_on,12,0,3,,,,,,,,,2,,,60,0
135042,note_on,0,0,3,,,,,,,,,2,,,54,0
135042,note_on,0,0,3,,,,,,,,,2,,,50,0
135090,note_on,60,0,1,,,,,,,,,0,,,81,0
135090,note_on,0,0,1,,,,,,,,,0,,,83,49
135150,note_on,60,0,1,,,,,,,,,0,,,83,0
135150,note_on,0,0,1,,,,,,,,,0,,,79,49
135150,time_signature,2520,1,0,3,8,12,8,,,,,,,,,
135150,note_on,108,0,3,,,,,,,,,2,,,43,36
135270,note_on,0,0,3,,,,,,,,,2,,,59,36
135270,note_on,0,0,3,,,,,,,,,2,,,55,36
135270,note_on,0,0,3,,,,,,,,,2,,,50,36
135270,note_on,120,0,3,,,,,,,,,2,,,43,0
135330,note_on,0,0,3,,,,,,,,,2,,,55,0
135330,note_on,60,0,3,,,,,,,,,2,,,59,0
135330,note_on,0,0,3,,,,,,,,,2,,,50,0
135330,note_on,0,0,1,,,,,,,,,0,,,79,88
135330,note_on,180,0,1,,,,,,,,,0,,,79,0
135390,note_on,0,0,1,,,,,,,,,0,,,81,88
135390,note_on,60,0,1,,,,,,,,,0,,,79,0
135450,note_on,0,0,1,,,,,,,,,0,,,83,88
135450,note_on,60,0,1,,,,,,,,,0,,,81,0
135510,note_on,180,0,3,,,,,,,,,2,,,52,75
135510,time_signature,360,1,0,3,4,24,8,,,,,,,,,
135510,note_on,0,0,1,,,,,,,,,0,,,82,88
135510,note_on,60,0,1,,,,,,,,,0,,,83,0
135570,note_on,0,0,1,,,,,,,,,0,,,83,88
135570,note_on,60,0,1,,,,,,,,,0,,,82,0
135576,note_on,6,0,1,,,,,,,,,0,,,83,0
135630,note_on,0,0,3,,,,,,,,,2,,,64,75
135630,note_on,54,0,1,,,,,,,,,0,,,95,114
135630,note_on,120,0,3,,,,,,,,,2,,,52,0
135630,note_on,0,0,3,,,,,,,,,2,,,55,75
135630,note_on,0,0,3,,,,,,,,,2,,,59,75
135642,note_on,0,0,3,,,,,,,,,2,,,59,0
135642,note_on,12,0,3,,,,,,,,,2,,,64,0
135642,note_on,0,0,3,,,,,,,,,2,,,55,0
135690,note_on,0,0,1,,,,,,,,,0,,,91,88
135690,note_on,60,0,1,,,,,,,,,0,,,95,0
135750,note_on,108,0,3,,,,,,,,,2,,,55,75
135750,note_on,0,0,3,,,,,,,,,2,,,59,75
135750,note_on,0,0,3,,,,,,,,,2,,,64,75
135750,note_on,60,0,1,,,,,,,,,0,,,91,0
135750,note_on,0,0,1,,,,,,,,,0,,,88,88
135762,note_on,0,0,3,,,,,,,,,2,,,55,0
135762,note_on,12,0,3,,,,,,,,,2,,,64,0
135762,note_on,0,0,3,,,,,,,,,2,,,59,0
135810,note_on,0,0,1,,,,,,,,,0,,,83,88
135810,note_on,60,0,1,,,,,,,,,0,,,88,0
135870,note_on,0,0,1,,,,,,,,,0,,,82,88
135870,note_on,60,0,1,,,,,,,,,0,,,83,0
135870,note_on,108,0,3,,,,,,,,,2,,,51,75
135930,note_on,60,0,1,,,,,,,,,0,,,82,0
135930,note_on,0,0,1,,,,,,,,,0,,,83,88
135936,note_on,6,0,1,,,,,,,,,0,,,83,0
135990,note_on,0,0,3,,,,,,,,,2,,,66,75
135990,note_on,54,0,1,,,,,,,,,0,,,95,114
135990,note_on,0,0,3,,,,,,,,,2,,,59,75
135990,note_on,0,0,3,,,,,,,,,2,,,57,75
135990,note_on,120,0,3,,,,,,,,,2,,,51,0
136002,note_on,0,0,3,,,,,,,,,2,,,57,0
136002,note_on,0,0,3,,,,,,,,,2,,,59,0
136002,note_on,12,0,3,,,,,,,,,2,,,66,0
136050,note_on,60,0,1,,,,,,,,,0,,,95,0
136050,note_on,0,0,1,,,,,,,,,0,,,93,88
136110,note_on,0,0,3,,,,,,,,,2,,,66,75
136110,note_on,0,0,3,,,,,,,,,2,,,59,75
136110,note_on,108,0,3,,,,,,,,,2,,,57,75
136110,note_on,0,0,1,,,,,,,,,0,,,90,88
136110,note_on,60,0,1,,,,,,,,,0,,,93,0
136122,note_on,0,0,3,,,,,,,,,2,,,57,0
136122,note_on,0,0,3,,,,,,,,,2,,,59,0
136122,note_on,12,0,3,,,,,,,,,2,,,66,0
136170,note_on,60,0,1,,,,,,,,,0,,,90,0
136170,note_on,0,0,1,,,,,,,,,0,,,83,88
136230,note_on,108,0,3,,,,,,,,,2,,,47,75
136230,note_on,0,0,1,,,,,,,,,0,,,82,88
136230,note_on,60,0,1,,,,,,,,,0,,,83,0
136290,note_on,0,0,1,,,,,,,,,0,,,83,88
136290,note_on,60,0,1,,,,,,,,,0,,,82,0
136296,note_on,6,0,1,,,,,,,,,0,,,83,0
136350,note_on,0,0,3,,,,,,,,,2,,,57,75
136350,note_on,0,0,3,,,,,,,,,2,,,59,75
136350,note_on,0,0,3,,,,,,,,,2,,,63,75
136350,note_on,120,0,3,,,,,,,,,2,,,47,0
136350,note_on,54,0,1,,,,,,,,,0,,,95,114
136362,note_on,12,0,3,,,,,,,,,2,,,63,0
136362,note_on,0,0,3,,,,,,,,,2,,,57,0
136362,note_on,0,0,3,,,,,,,,,2,,,59,0
136410,note_on,60,0,1,,,,,,,,,0,,,95,0
136410,note_on,0,0,1,,,,,,,,,0,,,90,88
136470,note_on,0,0,3,,,,,,,,,2,,,63,75
136470,note_on,0,0,3,,,,,,,,,2,,,59,75
136470,note_on,60,0,1,,,,,,,,,0,,,90,0
136470,note_on,108,0,3,,,,,,,,,2,,,57,75
136470,note_on,0,0,1,,,,,,,,,0,,,93,88
136482,note_on,12,0,3,,,,,,,,,2,,,63,0
136482,note_on,0,0,3,,,,,,,,,2,,,59,0
136482,note_on,0,0,3,,,,,,,,,2,,,57,0
136530,note_on,60,0,1,,,,,,,,,0,,,93,0
136530,note_on,0,0,1,,,,,,,,,0,,,96,88
136590,note_on,60,0,1,,,,,,,,,0,,,96,0
136590,note_on,0,0,1,,,,,,,,,0,,,95,88
136590,note_on,108,0,3,,,,,,,,,2,,,52,75
136710,note_on,0,0,3,,,,,,,,,2,,,55,75
136710,note_on,0,0,3,,,,,,,,,2,,,64,75
136710,note_on,120,0,3,,,,,,,,,2,,,52,0
136710,note_on,0,0,3,,,,,,,,,2,,,59,75
136722,note_on,12,0,3,,,,,,,,,2,,,64,0
136722,note_on,0,0,3,,,,,,,,,2,,,59,0
136722,note_on,0,0,3,,,,,,,,,2,,,55,0
136770,note_on,0,0,1,,,,,,,,,0,,,79,88
136770,note_on,180,0,1,,,,,,,,,0,,,95,0
136830,note_on,0,0,1,,,,,,,,,0,,,78,88
136830,note_on,60,0,1,,,,,,,,,0,,,79,0
136830,note_on,108,0,3,,,,,,,,,2,,,55,75
136830,note_on,0,0,3,,,,,,,,,2,,,59,75
136830,note_on,0,0,3,,,,,,,,,2,,,64,75
136842,note_on,12,0,3,,,,,,,,,2,,,64,0
136842,note_on,0,0,3,,,,,,,,,2,,,59,0
136842,note_on,0,0,3,,,,,,,,,2,,,55,0
136890,note_on,0,0,1,,,,,,,,,0,,,76,88
136890,note_on,60,0,1,,,,,,,,,0,,,78,0
136950,note_on,60,0,1,,,,,,,,,0,,,76,0
136950,note_on,108,0,3,,,,,,,,,2,,,43,36
136950,note_on,0,0,1,,,,,,,,,0,,,73,49
137010,note_on,60,0,1,,,,,,,,,0,,,73,0
137010,note_on,0,0,1,,,,,,,,,0,,,74,49
137016,note_on,6,0,1,,,,,,,,,0,,,74,0
137070,note_on,54,0,1,,,,,,,,,0,,,86,75
137070,note_on,0,0,3,,,,,,,,,2,,,50,36
137070,note_on,0,0,3,,,,,,,,,2,,,55,36
137070,note_on,0,0,3,,,,,,,,,2,,,59,36
137070,note_on,120,0,3,,,,,,,,,2,,,43,0
137082,note_on,12,0,3,,,,,,,,,2,,,59,0
137082,note_on,0,0,3,,,,,,,,,2,,,55,0
137082,note_on,0,0,3,,,,,,,,,2,,,50,0
137130,note_on,60,0,1,,,,,,,,,0,,,86,0
137130,note_on,0,0,1,,,,,,,,,0,,,83,49
137190,note_on,60,0,1,,,,,,,,,0,,,83,0
137190,note_on,108,0,3,,,,,,,,,2,,,50,36
137190,note_on,0,0,3,,,,,,,,,2,,,55,36
137190,note_on,0,0,3,,,,,,,,,2,,,59,36
137190,note_on,0,0,1,,,,,,,,,0,,,79,49
137202,note_on,0,0,3,,,,,,,,,2,,,50,0
137202,note_on,0,0,3,,,,,,,,,2,,,55,0
137202,note_on,12,0,3,,,,,,,,,2,,,59,0
137250,note_on,60,0,1,,,,,,,,,0,,,79,0
137250,note_on,0,0,1,,,,,,,,,0,,,74,49
137310,note_on,108,0,3,,,,,,,,,2,,,36,36
137310,note_on,0,0,1,,,,,,,,,0,,,80,49
137310,note_on,60,0,1,,,,,,,,,0,,,74,0
137370,note_on,60,0,1,,,,,,,,,0,,,80,0
137370,note_on,0,0,1,,,,,,,,,0,,,81,49
137376,note_on,6,0,1,,,,,,,,,0,,,81,0
137430,note_on,54,0,1,,,,,,,,,0,,,91,75
137430,note_on,120,0,3,,,,,,,,,2,,,36,0
137430,note_on,0,0,3,,,,,,,,,2,,,48,36
137430,note_on,0,0,3,,,,,,,,,2,,,52,36
137430,note_on,0,0,3,,,,,,,,,2,,,57,36
137442,note_on,12,0,3,,,,,,,,,2,,,57,0
137442,note_on,0,0,3,,,,,,,,,2,,,48,0
137442,note_on,0,0,3,,,,,,,,,2,,,52,0
137490,note_on,0,0,1,,,,,,,,,0,,,88,49
137490,note_on,60,0,1,,,,,,,,,0,,,91,0
137550,note_on,0,0,3,,,,,,,,,2,,,52,36
137550,note_on,0,0,3,,,,,,,,,2,,,57,36
137550,note_on,60,0,1,,,,,,,,,0,,,88,0
137550,note_on,0,0,1,,,,,,,,,0,,,84,49
137550,note_on,108,0,3,,,,,,,,,2,,,48,36
137562,note_on,12,0,3,,,,,,,,,2,,,57,0
137562,note_on,0,0,3,,,,,,,,,2,,,52,0
137562,note_on,0,0,3,,,,,,,,,2,,,48,0
137610,note_on,60,0,1,,,,,,,,,0,,,84,0
137610,note_on,0,0,1,,,,,,,,,0,,,81,49
137670,note_on,108,0,3,,,,,,,,,2,,,38,36
137670,note_on,60,0,1,,,,,,,,,0,,,81,0
137670,note_on,0,0,1,,,,,,,,,0,,,77,49
137730,note_on,60,0,1,,,,,,,,,0,,,77,0
137730,note_on,0,0,1,,,,,,,,,0,,,78,49
137736,note_on,6,0,1,,,,,,,,,0,,,78,0
137790,note_on,120,0,3,,,,,,,,,2,,,38,0
137790,note_on,0,0,3,,,,,,,,,2,,,50,36
137790,note_on,0,0,3,,,,,,,,,2,,,54,36
137790,note_on,0,0,3,,,,,,,,,2,,,60,36
137790,note_on,54,0,1,,,,,,,,,0,,,88,75
137802,note_on,12,0,3,,,,,,,,,2,,,60,0
137802,note_on,0,0,3,,,,,,,,,2,,,54,0
137802,note_on,0,0,3,,,,,,,,,2,,,50,0
137850,note_on,0,0,1,,,,,,,,,0,,,86,49
137850,note_on,60,0,1,,,,,,,,,0,,,88,0
137910,note_on,0,0,3,,,,,,,,,2,,,54,36
137910,note_on,0,0,3,,,,,,,,,2,,,60,36
137910,note_on,0,0,1,,,,,,,,,0,,,81,49
137910,note_on,108,0,3,,,,,,,,,2,,,50,36
137910,note_on,60,0,1,,,,,,,,,0,,,86,0
137922,note_on,12,0,3,,,,,,,,,2,,,60,0
137922,note_on,0,0,3,,,,,,,,,2,,,54,0
137922,note_on,0,0,3,,,,,,,,,2,,,50,0
137970,note_on,60,0,1,,,,,,,,,0,,,81,0
137970,note_on,0,0,1,,,,,,,,,0,,,83,49
138030,note_on,60,0,1,,,,,,,,,0,,,83,0
138030,note_on,0,0,1,,,,,,,,,0,,,79,49
138030,note_on,108,0,3,,,,,,,,,2,,,43,36
138030,time_signature,2520,1,0,2,4,24,8,,,,,,,,,
138150,note_on,120,0,3,,,,,,,,,2,,,43,0
138150,note_on,0,0,3,,,,,,,,,2,,,50,36
138150,note_on,0,0,3,,,,,,,,,2,,,55,36
138150,note_on,0,0,3,,,,,,,,,2,,,59,36
138270,note_on,0,0,3,,,,,,,,,2,,,55,0
138270,note_on,0,0,3,,,,,,,,,2,,,50,0
138270,key_signature,0,1,0,,,,,D,,,,,,,,
138270,time_signature,240,1,0,1,4,24,8,,,,,,,,,
138270,note_on,0,0,1,,,,,,,,,0,,,69,49
138270,note_on,240,0,1,,,,,,,,,0,,,79,0
138270,note_on,120,0,3,,,,,,,,,2,,,59,0
138390,time_signature,120,1,0,3,4,24,8,,,,,,,,,
138390,note_on,34680,0,2,,,,,,,,,1,,,69,36
138390,note_on,120,0,3,,,,,,,,,2,,,50,36
138390,note_on,120,0,1,,,,,,,,,0,,,69,0
138390,note_on,0,0,1,,,,,,,,,0,,,78,49
138510,note_on,0,0,3,,,,,,,,,2,,,62,36
138510,note_on,120,0,1,,,,,,,,,0,,,78,0
138510,note_on,0,0,1,,,,,,,,,0,,,79,49
138510,note_on,0,0,3,,,,,,,,,2,,,57,36
138510,note_on,120,0,3,,,,,,,,,2,,,50,0
138522,note_on,12,0,3,,,,,,,,,2,,,62,0
138522,note_on,0,0,3,,,,,,,,,2,,,57,0
138570,note_on,0,0,1,,,,,,,,,0,,,78,49
138570,note_on,60,0,1,,,,,,,,,0,,,79,0
138630,note_on,0,0,2,,,,,,,,,1,,,68,62
138630,note_on,108,0,3,,,,,,,,,2,,,59,36
138630,note_on,240,0,2,,,,,,,,,1,,,69,0
138630,note_on,0,0,3,,,,,,,,,2,,,62,36
138630,note_on,60,0,1,,,,,,,,,0,,,78,0
138630,note_on,0,0,1,,,,,,,,,0,,,77,75
138642,note_on,0,0,3,,,,,,,,,2,,,59,0
138642,note_on,12,0,2,,,,,,,,,1,,,68,0
138642,note_on,12,0,1,,,,,,,,,0,,,77,0
138642,note_on,12,0,3,,,,,,,,,2,,,62,0
138750,note_on,108,0,2,,,,,,,,,1,,,69,36
138750,note_on,108,0,1,,,,,,,,,0,,,78,49
138750,note_on,108,0,3,,,,,,,,,2,,,50,36
138870,note_on,0,0,3,,,,,,,,,2,,,62,36
138870,note_on,120,0,3,,,,,,,,,2,,,50,0
138870,note_on,0,0,3,,,,,,,,,2,,,57,36
138882,note_on,12,0,3,,,,,,,,,2,,,62,0
138882,note_on,0,0,3,,,,,,,,,2,,,57,0
138990,note_on,0,0,1,,,,,,,,,0,,,74,49
138990,note_on,240,0,1,,,,,,,,,0,,,78,0
138990,note_on,108,0,3,,,,,,,,,2,,,57,36
138990,note_on,0,0,3,,,,,,,,,2,,,66,36
139002,note_on,0,0,3,,,,,,,,,2,,,57,0
139002,note_on,12,0,3,,,,,,,,,2,,,66,0
139110,note_on,360,0,2,,,,,,,,,1,,,69,0
139110,note_on,0,0,1,,,,,,,,,0,,,78,49
139110,note_on,108,0,3,,,,,,,,,2,,,50,36
139110,note_on,120,0,1,,,,,,,,,0,,,74,0
139110,note_on,0,0,2,,,,,,,,,1,,,69,36
139230,note_on,120,0,3,,,,,,,,,2,,,50,0
139230,note_on,0,0,3,,,,,,,,,2,,,57,36
139230,note_on,0,0,1,,,,,,,,,0,,,79,49
139230,note_on,120,0,1,,,,,,,,,0,,,78,0
139230,note_on,0,0,3,,,,,,,,,2,,,62,36
139242,note_on,12,0,3,,,,,,,,,2,,,62,0
139242,note_on,0,0,3,,,,,,,,,2,,,57,0
139290,note_on,0,0,1,,,,,,,,,0,,,78,49
139290,note_on,60,0,1,,,,,,,,,0,,,79,0
139350,note_on,0,0,1,,,,,,,,,0,,,77,75
139350,note_on,0,0,2,,,,,,,,,1,,,68,62
139350,note_on,240,0,2,,,,,,,,,1,,,69,0
139350,note_on,108,0,3,,,,,,,,,2,,,59,36
139350,note_on,0,0,3,,,,,,,,,2,,,62,36
139350,note_on,60,0,1,,,,,,,,,0,,,78,0
139362,note_on,12,0,1,,,,,,,,,0,,,77,0
139362,note_on,12,0,2,,,,,,,,,1,,,68,0
139362,note_on,12,0,3,,,,,,,,,2,,,62,0
139362,note_on,0,0,3,,,,,,,,,2,,,59,0
139470,note_on,108,0,1,,,,,,,,,0,,,78,49
139470,note_on,108,0,2,,,,,,,,,1,,,69,36
139470,note_on,108,0,3,,,,,,,,,2,,,50,36
139590,note_on,0,0,3,,,,,,,,,2,,,57,36
139590,note_on,120,0,3,,,,,,,,,2,,,50,0
139590,note_on,0,0,3,,,,,,,,,2,,,62,36
139602,note_on,12,0,3,,,,,,,,,2,,,62,0
139602,note_on,0,0,3,,,,,,,,,2,,,57,0
139710,note_on,0,0,3,,,,,,,,,2,,,66,36
139710,note_on,108,0,3,,,,,,,,,2,,,57,36
139710,note_on,0,0,1,,,,,,,,,0,,,74,49
139710,note_on,240,0,1,,,,,,,,,0,,,78,0
139722,note_on,0,0,3,,,,,,,,,2,,,57,0
139722,note_on,12,0,3,,,,,,,,,2,,,66,0
139830,note_on,108,0,3,,,,,,,,,2,,,45,36
139830,note_on,120,0,1,,,,,,,,,0,,,74,0
139830,note_on,0,0,1,,,,,,,,,0,,,67,67
139830,note_on,0,0,1,,,,,,,,,0,,,73,75
139830,note_on,360,0,2,,,,,,,,,1,,,69,0
139950,note_on,0,0,3,,,,,,,,,2,,,64,36
139950,note_on,120,0,3,,,,,,,,,2,,,45,0
139950,note_on,0,0,3,,,,,,,,,2,,,57,36
139950,note_on,0,0,1,,,,,,,,,0,,,81,49
139950,note_on,120,0,1,,,,,,,,,0,,,73,0
139950,note_on,0,0,1,,,,,,,,,0,,,67,0
139962,note_on,0,0,3,,,,,,,,,2,,,57,0
139962,note_on,12,0,3,,,,,,,,,2,,,64,0
140010,note_on,60,0,1,,,,,,,,,0,,,81,0
140070,note_on,0,0,3,,,,,,,,,2,,,64,36
140070,note_on,108,0,3,,,,,,,,,2,,,57,36
140070,note_on,60,0,1,,,,,,,,,0,,,67,67
140070,note_on,0,0,1,,,,,,,,,0,,,73,75
140082,note_on,0,0,3,,,,,,,,,2,,,57,0
140082,note_on,12,0,3,,,,,,,,,2,,,64,0
140190,note_on,0,0,1,,,,,,,,,0,,,83,49
140190,note_on,0,0,1,,,,,,,,,0,,,67,0
140190,note_on,120,0,1,,,,,,,,,0,,,73,0
140190,note_on,108,0,3,,,,,,,,,2,,,45,36
140250,note_on,60,0,1,,,,,,,,,0,,,83,0
140310,note_on,0,0,3,,,,,,,,,2,,,67,36
140310,note_on,0,0,3,,,,,,,,,2,,,61,36
140310,note_on,120,0,3,,,,,,,,,2,,,45,0
140310,note_on,60,0,1,,,,,,,,,0,,,81,49
140310,note_on,0,0,3,,,,,,,,,2,,,57,36
140322,note_on,12,0,3,,,,,,,,,2,,,67,0
140322,note_on,0,0,3,,,,,,,,,2,,,61,0
140322,note_on,0,0,3,,,,,,,,,2,,,57,0
140370,note_on,60,0,1,,,,,,,,,0,,,81,0
140370,note_on,0,0,1,,,,,,,,,0,,,79,49
140430,note_on,0,0,3,,,,,,,,,2,,,67,36
140430,note_on,0,0,1,,,,,,,,,0,,,78,49
140430,note_on,0,0,3,,,,,,,,,2,,,61,36
140430,note_on,108,0,3,,,,,,,,,2,,,57,36
140430,note_on,60,0,1,,,,,,,,,0,,,79,0
140442,note_on,0,0,3,,,,,,,,,2,,,57,0
140442,note_on,0,0,3,,,,,,,,,2,,,61,0
140442,note_on,12,0,3,,,,,,,,,2,,,67,0
140490,note_on,60,0,1,,,,,,,,,0,,,78,0
140490,note_on,0,0,1,,,,,,,,,0,,,76,49
140550,note_on,60,0,1,,,,,,,,,0,,,76,0
140550,note_on,0,0,1,,,,,,,,,0,,,66,49
140550,note_on,0,0,1,,,,,,,,,0,,,74,49
140550,note_on,108,0,3,,,,,,,,,2,,,50,36
140670,note_on,0,0,3,,,,,,,,,2,,,54,36
140670,note_on,0,0,3,,,,,,,,,2,,,62,36
140670,note_on,120,0,3,,,,,,,,,2,,,50,0
140670,note_on,120,0,1,,,,,,,,,0,,,74,0
140670,note_on,0,0,1,,,,,,,,,0,,,66,0
140670,note_on,0,0,1,,,,,,,,,0,,,69,49
140682,note_on,0,0,3,,,,,,,,,2,,,54,0
140682,note_on,12,0,3,,,,,,,,,2,,,62,0
140730,note_on,60,0,1,,,,,,,,,0,,,69,0
140790,note_on,0,0,3,,,,,,,,,2,,,66,36
140790,note_on,60,0,1,,,,,,,,,0,,,69,65
140790,note_on,108,0,3,,,,,,,,,2,,,62,36
140790,note_on,0,0,1,,,,,,,,,0,,,74,70
140790,note_on,0,0,1,,,,,,,,,0,,,78,75
140802,note_on,0,0,3,,,,,,,,,2,,,62,0
140802,note_on,12,0,3,,,,,,,,,2,,,66,0
140910,note_on,0,0,1,,,,,,,,,0,,,69,49
140910,note_on,0,0,1,,,,,,,,,0,,,69,0
140910,note_on,0,0,3,,,,,,,,,2,,,64,36
140910,note_on,108,0,3,,,,,,,,,2,,,57,36
140910,note_on,0,0,3,,,,,,,,,2,,,61,36
140910,note_on,0,0,1,,,,,,,,,0,,,74,0
140910,note_on,0,0,1,,,,,,,,,0,,,73,49
140910,note_on,120,0,1,,,,,,,,,0,,,78,0
140910,note_on,0,0,1,,,,,,,,,0,,,76,49
141150,note_on,240,0,3,,,,,,,,,2,,,64,0
141150,note_on,0,0,3,,,,,,,,,2,,,57,0
141150,note_on,0,0,1,,,,,,,,,0,,,69,49
141150,note_on,0,0,1,,,,,,,,,0,,,69,0
141150,note_on,0,0,1,,,,,,,,,0,,,73,0
141150,note_on,240,0,1,,,,,,,,,0,,,76,0
141150,note_on,0,0,3,,,,,,,,,2,,,61,0
141270,note_on,1440,0,2,,,,,,,,,1,,,69,36
141270,note_on,120,0,3,,,,,,,,,2,,,50,36
141270,note_on,120,0,1,,,,,,,,,0,,,69,0
141270,note_on,0,0,1,,,,,,,,,0,,,78,49
141390,note_on,120,0,3,,,,,,,,,2,,,50,0
141390,note_on,0,0,3,,,,,,,,,2,,,62,36
141390,note_on,0,0,1,,,,,,,,,0,,,79,49
141390,note_on,120,0,1,,,,,,,,,0,,,78,0
141390,note_on,0,0,3,,,,,,,,,2,,,57,36
141402,note_on,0,0,3,,,,,,,,,2,,,57,0
141402,note_on,12,0,3,,,,,,,,,2,,,62,0
141450,note_on,60,0,1,,,,,,,,,0,,,79,0
141450,note_on,0,0,1,,,,,,,,,0,,,78,49
141510,note_on,108,0,3,,,,,,,,,2,,,59,36
141510,note_on,0,0,3,,,,,,,,,2,,,62,36
141510,note_on,240,0,2,,,,,,,,,1,,,69,0
141510,note_on,0,0,2,,,,,,,,,1,,,68,62
141510,note_on,0,0,1,,,,,,,,,0,,,77,75
141510,note_on,60,0,1,,,,,,,,,0,,,78,0
141522,note_on,12,0,2,,,,,,,,,1,,,68,0
141522,note_on,0,0,3,,,,,,,,,2,,,59,0
141522,note_on,12,0,3,,,,,,,,,2,,,62,0
141522,note_on,12,0,1,,,,,,,,,0,,,77,0
141630,note_on,108,0,1,,,,,,,,,0,,,78,49
141630,note_on,108,0,3,,,,,,,,,2,,,50,36
141630,note_on,108,0,2,,,,,,,,,1,,,69,36
141750,note_on,0,0,3,,,,,,,,,2,,,57,36
141750,note_on,0,0,3,,,,,,,,,2,,,62,36
141750,note_on,120,0,3,,,,,,,,,2,,,50,0
141762,note_on,0,0,3,,,,,,,,,2,,,57,0
141762,note_on,12,0,3,,,,,,,,,2,,,62,0
141870,note_on,0,0,3,,,,,,,,,2,,,66,36
141870,note_on,240,0,1,,,,,,,,,0,,,78,0
141870,note_on,0,0,1,,,,,,,,,0,,,74,49
141870,note_on,108,0,3,,,,,,,,,2,,,57,36
141882,note_on,12,0,3,,,,,,,,,2,,,66,0
141882,note_on,0,0,3,,,,,,,,,2,,,57,0
141990,note_on,120,0,1,,,,,,,,,0,,,74,0
141990,note_on,0,0,1,,,,,,,,,0,,,78,49
141990,note_on,0,0,2,,,,,,,,,1,,,69,36
141990,note_on,108,0,3,,,,,,,,,2,,,50,36
141990,note_on,360,0,2,,,,,,,,,1,,,69,0
142110,note_on,120,0,3,,,,,,,,,2,,,50,0
142110,note_on,0,0,3,,,,,,,,,2,,,57,36
142110,note_on,0,0,3,,,,,,,,,2,,,62,36
142110,note_on,0,0,1,,,,,,,,,0,,,79,49
142110,note_on,120,0,1,,,,,,,,,0,,,78,0
142122,note_on,0,0,3,,,,,,,,,2,,,57,0
142122,note_on,12,0,3,,,,,,,,,2,,,62,0
142170,note_on,0,0,1,,,,,,,,,0,,,78,49
142170,note_on,60,0,1,,,,,,,,,0,,,79,0
142230,note_on,240,0,2,,,,,,,,,1,,,69,0
142230,note_on,108,0,3,,,,,,,,,2,,,59,36
142230,note_on,0,0,1,,,,,,,,,0,,,77,75
142230,note_on,0,0,3,,,,,,,,,2,,,62,36
142230,note_on,0,0,2,,,,,,,,,1,,,68,62
142230,note_on,60,0,1,,,,,,,,,0,,,78,0
142242,note_on,12,0,2,,,,,,,,,1,,,68,0
142242,note_on,12,0,1,,,,,,,,,0,,,77,0
142242,note_on,0,0,3,,,,,,,,,2,,,59,0
142242,note_on,12,0,3,,,,,,,,,2,,,62,0
142350,note_on,108,0,1,,,,,,,,,0,,,78,49
142350,note_on,108,0,3,,,,,,,,,2,,,50,36
142350,note_on,108,0,2,,,,,,,,,1,,,69,36
142470,note_on,120,0,3,,,,,,,,,2,,,50,0
142470,note_on,0,0,3,,,,,,,,,2,,,62,36
142470,note_on,0,0,3,,,,,,,,,2,,,57,36
142482,note_on,0,0,3,,,,,,,,,2,,,57,0
142482,note_on,12,0,3,,,,,,,,,2,,,62,0
142590,note_on,240,0,1,,,,,,,,,0,,,78,0
142590,note_on,0,0,1,,,,,,,,,0,,,74,49
142590,note_on,0,0,3,,,,,,,,,2,,,66,36
142590,note_on,108,0,3,,,,,,,,,2,,,57,36
142602,note_on,0,0,3,,,,,,,,,2,,,57,0
142602,note_on,12,0,3,,,,,,,,,2,,,66,0
142710,note_on,0,0,1,,,,,,,,,0,,,73,75
142710,note_on,108,0,3,,,,,,,,,2,,,45,36
142710,note_on,0,0,1,,,,,,,,,0,,,67,67
142710,note_on,120,0,1,,,,,,,,,0,,,74,0
142710,note_on,360,0,2,,,,,,,,,1,,,69,0
142830,note_on,0,0,3,,,,,,,,,2,,,64,36
142830,note_on,0,0,1,,,,,,,,,0,,,81,49
142830,note_on,0,0,1,,,,,,,,,0,,,67,0
142830,note_on,120,0,1,,,,,,,,,0,,,73,0
142830,note_on,120,0,3,,,,,,,,,2,,,45,0
142830,note_on,0,0,3,,,,,,,,,2,,,57,36
142842,note_on,12,0,3,,,,,,,,,2,,,64,0
142842,note_on,0,0,3,,,,,,,,,2,,,57,0
142890,note_on,60,0,1,,,,,,,,,0,,,81,0
142950,note_on,108,0,3,,,,,,,,,2,,,57,36
142950,note_on,0,0,1,,,,,,,,,0,,,73,75
142950,note_on,60,0,1,,,,,,,,,0,,,67,67
142950,note_on,0,0,3,,,,,,,,,2,,,64,36
142962,note_on,0,0,3,,,,,,,,,2,,,57,0
142962,note_on,12,0,3,,,,,,,,,2,,,64,0
143070,note_on,108,0,3,,,,,,,,,2,,,45,36
143070,note_on,0,0,1,,,,,,,,,0,,,67,0
143070,note_on,0,0,1,,,,,,,,,0,,,83,49
143070,note_on,120,0,1,,,,,,,,,0,,,73,0
143130,note_on,60,0,1,,,,,,,,,0,,,83,0
143190,note_on,60,0,1,,,,,,,,,0,,,81,49
143190,note_on,120,0,3,,,,,,,,,2,,,45,0
143190,note_on,0,0,3,,,,,,,,,2,,,57,36
143190,note_on,0,0,3,,,,,,,,,2,,,61,36
143190,note_on,0,0,3,,,,,,,,,2,,,67,36
143202,note_on,12,0,3,,,,,,,,,2,,,67,0
143202,note_on,0,0,3,,,,,,,,,2,,,61,0
143202,note_on,0,0,3,,,,,,,,,2,,,57,0
143250,note_on,0,0,1,,,,,,,,,0,,,79,49
143250,note_on,60,0,1,,,,,,,,,0,,,81,0
143310,note_on,0,0,1,,,,,,,,,0,,,78,49
143310,note_on,60,0,1,,,,,,,,,0,,,79,0
143310,note_on,108,0,3,,,,,,,,,2,,,57,36
143310,note_on,0,0,3,,,,,,,,,2,,,67,36
143310,note_on,0,0,3,,,,,,,,,2,,,61,36
143322,note_on,12,0,3,,,,,,,,,2,,,67,0
143322,note_on,0,0,3,,,,,,,,,2,,,57,0
143322,note_on,0,0,3,,,,,,,,,2,,,61,0
143370,note_on,60,0,1,,,,,,,,,0,,,78,0
143370,note_on,0,0,1,,,,,,,,,0,,,76,49
143430,note_on,60,0,1,,,,,,,,,0,,,76,0
143430,note_on,0,0,1,,,,,,,,,0,,,66,49
143430,note_on,0,0,1,,,,,,,,,0,,,74,49
143430,note_on,108,0,3,,,,,,,,,2,,,50,36
143490,note_on,0,0,1,,,,,,,,,0,,,69,49
143490,note_on,0,0,1,,,,,,,,,0,,,66,0
143490,note_on,60,0,1,,,,,,,,,0,,,74,0
143550,note_on,60,0,1,,,,,,,,,0,,,69,0
143550,note_on,0,0,1,,,,,,,,,0,,,78,49
143550,note_on,0,0,3,,,,,,,,,2,,,66,36
143550,note_on,0,0,3,,,,,,,,,2,,,62,36
143550,note_on,0,0,3,,,,,,,,,2,,,57,36
143550,note_on,120,0,3,,,,,,,,,2,,,50,0
143550,note_on,0,0,1,,,,,,,,,0,,,74,49
143562,note_on,0,0,3,,,,,,,,,2,,,57,0
143562,note_on,12,0,3,,,,,,,,,2,,,66,0
143562,note_on,0,0,3,,,,,,,,,2,,,62,0
143670,note_on,120,0,1,,,,,,,,,0,,,78,0
143670,note_on,0,0,1,,,,,,,,,0,,,74,0
143670,note_on,0,0,1,,,,,,,,,0,,,69,49
143670,note_on,0,0,3,,,,,,,,,2,,,64,36
143670,note_on,0,0,3,,,,,,,,,2,,,67,36
143670,note_on,108,0,3,,,,,,,,,2,,,57,36
143670,note_on,0,0,1,,,,,,,,,0,,,73,49
143670,note_on,0,0,1,,,,,,,,,0,,,76,49
143682,note_on,12,0,3,,,,,,,,,2,,,67,0
143682,note_on,0,0,3,,,,,,,,,2,,,64,0
143682,note_on,0,0,3,,,,,,,,,2,,,57,0
143790,note_on,0,0,3,,,,,,,,,2,,,66,36
143790,note_on,108,0,3,,,,,,,,,2,,,62,36
143790,time_signature,5400,1,0,3,8,12,8,,,,,,,,,
143790,note_on,120,0,1,,,,,,,,,0,,,76,0
143790,note_on,0,0,1,,,,,,,,,0,,,73,0
143790,note_on,0,0,1,,,,,,,,,0,,,69,0
143790,note_on,0,0,1,,,,,,,,,0,,,69,49
143790,note_on,0,0,1,,,,,,,,,0,,,74,49
143970,note_on,180,0,3,,,,,,,,,2,,,66,0
143970,note_on,0,0,3,,,,,,,,,2,,,62,0
143970,note_on,0,0,1,,,,,,,,,0,,,69,0
143970,note_on,180,0,1,,,,,,,,,0,,,74,0
143970,note_on,0,0,1,,,,,,,,,0,,,74,75
144030,note_on,60,0,1,,,,,,,,,0,,,74,0
144030,note_on,0,0,1,,,,,,,,,0,,,76,75
144090,note_on,60,0,1,,,,,,,,,0,,,76,0
144090,note_on,0,0,1,,,,,,,,,0,,,77,75
144150,note_on,60,0,1,,,,,,,,,0,,,77,0
144150,note_on,0,0,1,,,,,,,,,0,,,74,75
144150,time_signature,360,1,0,3,4,24,8,,,,,,,,,
144150,note_on,0,0,1,,,,,,,,,0,,,78,75
144150,note_on,180,0,3,,,,,,,,,2,,,47,62
144270,note_on,0,0,3,,,,,,,,,2,,,54,62
144270,note_on,120,0,1,,,,,,,,,0,,,78,0
144270,note_on,0,0,1,,,,,,,,,0,,,74,0
144270,note_on,0,0,1,,,,,,,,,0,,,86,75
144270,note_on,120,0,3,,,,,,,,,2,,,47,0
144270,note_on,0,0,3,,,,,,,,,2,,,62,62
144270,note_on,0,0,3,,,,,,,,,2,,,59,62
144282,note_on,12,0,3,,,,,,,,,2,,,62,0
144282,note_on,0,0,3,,,,,,,,,2,,,59,0
144282,note_on,0,0,3,,,,,,,,,2,,,54,0
144330,note_on,60,0,1,,,,,,,,,0,,,86,0
144390,note_on,1680,0,2,,,,,,,,,1,,,74,62
144390,note_on,108,0,3,,,,,,,,,2,,,54,62
144390,note_on,0,0,3,,,,,,,,,2,,,59,62
144390,note_on,0,0,3,,,,,,,,,2,,,62,62
144390,note_on,60,0,1,,,,,,,,,0,,,78,75
144402,note_on,0,0,3,,,,,,,,,2,,,59,0
144402,note_on,0,0,3,,,,,,,,,2,,,54,0
144402,note_on,12,0,3,,,,,,,,,2,,,62,0
144510,note_on,120,0,2,,,,,,,,,1,,,74,0
144510,note_on,0,0,1,,,,,,,,,0,,,86,101
144510,note_on,108,0,3,,,,,,,,,2,,,42,88
144510,note_on,0,0,2,,,,,,,,,1,,,76,88
144510,note_on,120,0,1,,,,,,,,,0,,,78,0
144630,note_on,0,0,3,,,,,,,,,2,,,54,62
144630,note_on,0,0,3,,,,,,,,,2,,,64,62
144630,note_on,0,0,3,,,,,,,,,2,,,58,62
144630,note_on,120,0,3,,,,,,,,,2,,,42,0
144630,note_on,120,0,1,,,,,,,,,0,,,86,0
144630,note_on,0,0,1,,,,,,,,,0,,,85,75
144642,note_on,0,0,3,,,,,,,,,2,,,54,0
144642,note_on,0,0,3,,,,,,,,,2,,,58,0
144642,note_on,12,0,3,,,,,,,,,2,,,64,0
144690,note_on,0,0,1,,,,,,,,,0,,,83,75
144690,note_on,60,0,1,,,,,,,,,0,,,85,0
144750,note_on,60,0,1,,,,,,,,,0,,,83,0
144750,note_on,108,0,3,,,,,,,,,2,,,54,62
144750,note_on,0,0,1,,,,,,,,,0,,,82,75
144750,note_on,0,0,3,,,,,,,,,2,,,58,62
144750,note_on,0,0,3,,,,,,,,,2,,,64,62
144762,note_on,0,0,3,,,,,,,,,2,,,58,0
144762,note_on,0,0,3,,,,,,,,,2,,,54,0
144762,note_on,12,0,3,,,,,,,,,2,,,64,0
144810,note_on,0,0,1,,,,,,,,,0,,,83,75
144810,note_on,60,0,1,,,,,,,,,0,,,82,0
144870,note_on,0,0,1,,,,,,,,,0,,,74,75
144870,note_on,0,0,1,,,,,,,,,0,,,71,75
144870,note_on,60,0,1,,,,,,,,,0,,,83,0
144870,note_on,360,0,2,,,,,,,,,1,,,76,0
144870,note_on,108,0,3,,,,,,,,,2,,,55,62
144990,note_on,0,0,1,,,,,,,,,0,,,83,75
144990,note_on,0,0,1,,,,,,,,,0,,,71,0
144990,note_on,120,0,1,,,,,,,,,0,,,74,0
144990,note_on,0,0,3,,,,,,,,,2,,,67,62
144990,note_on,0,0,3,,,,,,,,,2,,,62,62
144990,note_on,0,0,3,,,,,,,,,2,,,59,62
144990,note_on,120,0,3,,,,,,,,,2,,,55,0
145002,note_on,12,0,3,,,,,,,,,2,,,67,0
145002,note_on,0,0,3,,,,,,,,,2,,,62,0
145002,note_on,0,0,3,,,,,,,,,2,,,59,0
145050,note_on,60,0,1,,,,,,,,,0,,,83,0
145110,note_on,60,0,1,,,,,,,,,0,,,74,75
145110,note_on,0,0,3,,,,,,,,,2,,,67,62
145110,note_on,240,0,2,,,,,,,,,1,,,71,62
145110,note_on,108,0,3,,,,,,,,,2,,,59,62
145110,note_on,0,0,3,,,,,,,,,2,,,62,62
145122,note_on,0,0,3,,,,,,,,,2,,,59,0
145122,note_on,0,0,3,,,,,,,,,2,,,62,0
145122,note_on,12,0,3,,,,,,,,,2,,,67,0
145230,note_on,0,0,1,,,,,,,,,0,,,83,101
145230,note_on,120,0,1,,,,,,,,,0,,,74,0
145230,note_on,120,0,2,,,,,,,,,1,,,71,0
145230,note_on,0,0,2,,,,,,,,,1,,,72,88
145230,note_on,108,0,3,,,,,,,,,2,,,51,88
145350,note_on,0,0,1,,,,,,,,,0,,,81,75
145350,note_on,0,0,3,,,,,,,,,2,,,66,62
145350,note_on,0,0,3,,,,,,,,,2,,,69,62
145350,note_on,120,0,3,,,,,,,,,2,,,51,0
145350,note_on,0,0,3,,,,,,,,,2,,,60,62
145350,note_on,120,0,1,,,,,,,,,0,,,83,0
145362,note_on,0,0,3,,,,,,,,,2,,,66,0
145362,note_on,12,0,3,,,,,,,,,2,,,69,0
145362,note_on,0,0,3,,,,,,,,,2,,,60,0
145410,note_on,60,0,1,,,,,,,,,0,,,81,0
145410,note_on,0,0,1,,,,,,,,,0,,,79,75
145470,note_on,60,0,1,,,,,,,,,0,,,79,0
145470,note_on,0,0,3,,,,,,,,,2,,,69,62
145470,note_on,0,0,1,,,,,,,,,0,,,78,75
145470,note_on,108,0,3,,,,,,,,,2,,,60,62
145470,note_on,0,0,3,,,,,,,,,2,,,66,62
145482,note_on,12,0,3,,,,,,,,,2,,,69,0
145482,note_on,0,0,3,,,,,,,,,2,,,66,0
145482,note_on,0,0,3,,,,,,,,,2,,,60,0
145530,note_on,60,0,1,,,,,,,,,0,,,78,0
145530,note_on,0,0,1,,,,,,,,,0,,,81,75
145590,note_on,0,0,1,,,,,,,,,0,,,71,75
145590,note_on,0,0,1,,,,,,,,,0,,,67,75
145590,note_on,108,0,3,,,,,,,,,2,,,52,62
145590,note_on,360,0,2,,,,,,,,,1,,,72,0
145590,note_on,60,0,1,,,,,,,,,0,,,81,0
145710,note_on,0,0,1,,,,,,,,,0,,,67,0
145710,note_on,0,0,3,,,,,,,,,2,,,64,62
145710,note_on,0,0,3,,,,,,,,,2,,,59,62
145710,note_on,0,0,3,,,,,,,,,2,,,55,62
145710,note_on,120,0,3,,,,,,,,,2,,,52,0
145710,note_on,0,0,1,,,,,,,,,0,,,79,75
145710,note_on,120,0,1,,,,,,,,,0,,,71,0
145722,note_on,0,0,3,,,,,,,,,2,,,59,0
145722,note_on,12,0,3,,,,,,,,,2,,,64,0
145722,note_on,0,0,3,,,,,,,,,2,,,55,0
145770,note_on,60,0,1,,,,,,,,,0,,,79,0
145830,note_on,60,0,1,,,,,,,,,0,,,67,75
145830,note_on,108,0,3,,,,,,,,,2,,,55,62
145830,note_on,0,0,3,,,,,,,,,2,,,59,62
145830,note_on,0,0,3,,,,,,,,,2,,,64,62
145830,note_on,0,0,1,,,,,,,,,0,,,71,75
145842,note_on,0,0,3,,,,,,,,,2,,,55,0
145842,note_on,0,0,3,,,,,,,,,2,,,59,0
145842,note_on,12,0,3,,,,,,,,,2,,,64,0
145950,note_on,108,0,3,,,,,,,,,2,,,45,62
145950,note_on,0,0,1,,,,,,,,,0,,,83,75
145950,note_on,0,0,1,,,,,,,,,0,,,67,0
145950,note_on,120,0,1,,,,,,,,,0,,,71,0
146010,note_on,60,0,1,,,,,,,,,0,,,83,0
146070,note_on,120,0,3,,,,,,,,,2,,,45,0
146070,note_on,0,0,3,,,,,,,,,2,,,61,62
146070,note_on,0,0,3,,,,,,,,,2,,,67,62
146070,note_on,0,0,3,,,,,,,,,2,,,57,62
146070,note_on,60,0,1,,,,,,,,,0,,,81,75
146082,note_on,12,0,3,,,,,,,,,2,,,67,0
146082,note_on,0,0,3,,,,,,,,,2,,,61,0
146082,note_on,0,0,3,,,,,,,,,2,,,57,0
146130,note_on,60,0,1,,,,,,,,,0,,,81,0
146130,note_on,0,0,1,,,,,,,,,0,,,79,75
146190,note_on,60,0,1,,,,,,,,,0,,,79,0
146190,note_on,0,0,1,,,,,,,,,0,,,78,75
146190,note_on,108,0,3,,,,,,,,,2,,,57,62
146190,note_on,0,0,3,,,,,,,,,2,,,61,62
146190,note_on,0,0,3,,,,,,,,,2,,,67,62
146202,note_on,0,0,3,,,,,,,,,2,,,57,0
146202,note_on,0,0,3,,,,,,,,,2,,,61,0
146202,note_on,12,0,3,,,,,,,,,2,,,67,0
146250,note_on,60,0,1,,,,,,,,,0,,,78,0
146250,note_on,0,0,1,,,,,,,,,0,,,76,75
146310,note_on,60,0,1,,,,,,,,,0,,,76,0
146310,note_on,0,0,1,,,,,,,,,0,,,66,75
146310,note_on,0,0,1,,,,,,,,,0,,,74,75
146310,note_on,108,0,3,,,,,,,,,2,,,50,62
146370,note_on,0,0,1,,,,,,,,,0,,,69,75
146370,note_on,0,0,1,,,,,,,,,0,,,66,0
146370,note_on,60,0,1,,,,,,,,,0,,,74,0
146430,note_on,120,0,3,,,,,,,,,2,,,50,0
146430,note_on,0,0,3,,,,,,,,,2,,,57,62
146430,note_on,0,0,3,,,,,,,,,2,,,62,62
146430,note_on,0,0,3,,,,,,,,,2,,,66,62
146430,note_on,60,0,1,,,,,,,,,0,,,69,0
146430,note_on,0,0,1,,,,,,,,,0,,,74,75
146430,note_on,0,0,1,,,,,,,,,0,,,78,75
146442,note_on,0,0,3,,,,,,,,,2,,,57,0
146442,note_on,0,0,3,,,,,,,,,2,,,62,0
146442,note_on,12,0,3,,,,,,,,,2,,,66,0
146550,note_on,0,0,3,,,,,,,,,2,,,67,62
146550,note_on,0,0,1,,,,,,,,,0,,,76,75
146550,note_on,0,0,1,,,,,,,,,0,,,73,75
146550,note_on,120,0,1,,,,,,,,,0,,,78,0
146550,note_on,0,0,1,,,,,,,,,0,,,74,0
146550,note_on,0,0,1,,,,,,,,,0,,,69,75
146550,note_on,108,0,3,,,,,,,,,2,,,57,62
146550,note_on,0,0,3,,,,,,,,,2,,,64,62
146562,note_on,0,0,3,,,,,,,,,2,,,57,0
146562,note_on,0,0,3,,,,,,,,,2,,,64,0
146562,note_on,12,0,3,,,,,,,,,2,,,67,0
146670,note_on,0,0,1,,,,,,,,,0,,,69,0
146670,note_on,0,0,3,,,,,,,,,2,,,66,62
146670,note_on,108,0,3,,,,,,,,,2,,,62,62
146670,time_signature,2520,1,0,3,8,12,8,,,,,,,,,
146670,note_on,120,0,1,,,,,,,,,0,,,76,0
146670,note_on,0,0,1,,,,,,,,,0,,,73,0
146670,note_on,0,0,1,,,,,,,,,0,,,69,75
146670,note_on,0,0,1,,,,,,,,,0,,,74,75
146850,note_on,0,0,1,,,,,,,,,0,,,74,75
146850,note_on,0,0,1,,,,,,,,,0,,,69,0
146850,note_on,0,0,3,,,,,,,,,2,,,62,0
146850,note_on,180,0,3,,,,,,,,,2,,,66,0
146850,note_on,180,0,1,,,,,,,,,0,,,74,0
146910,note_on,60,0,1,,,,,,,,,0,,,74,0
146910,note_on,0,0,1,,,,,,,,,0,,,76,75
146970,note_on,60,0,1,,,,,,,,,0,,,76,0
146970,note_on,0,0,1,,,,,,,,,0,,,77,75
147030,note_on,0,0,1,,,,,,,,,0,,,74,75
147030,note_on,60,0,1,,,,,,,,,0,,,77,0
147030,note_on,0,0,1,,,,,,,,,0,,,78,75
147030,time_signature,360,1,0,3,4,24,8,,,,,,,,,
147030,note_on,180,0,3,,,,,,,,,2,,,47,62
147150,note_on,0,0,1,,,,,,,,,0,,,74,0
147150,note_on,0,0,1,,,,,,,,,0,,,86,75
147150,note_on,0,0,3,,,,,,,,,2,,,62,62
147150,note_on,0,0,3,,,,,,,,,2,,,59,62
147150,note_on,0,0,3,,,,,,,,,2,,,54,62
147150,note_on,120,0,3,,,,,,,,,2,,,47,0
147150,note_on,120,0,1,,,,,,,,,0,,,78,0
147162,note_on,12,0,3,,,,,,,,,2,,,62,0
147162,note_on,0,0,3,,,,,,,,,2,,,59,0
147162,note_on,0,0,3,,,,,,,,,2,,,54,0
147210,note_on,60,0,1,,,,,,,,,0,,,86,0
147270,note_on,0,0,3,,,,,,,,,2,,,62,62
147270,note_on,0,0,3,,,,,,,,,2,,,59,62
147270,note_on,108,0,3,,,,,,,,,2,,,54,62
147270,note_on,1680,0,2,,,,,,,,,1,,,74,62
147270,note_on,60,0,1,,,,,,,,,0,,,78,75
147282,note_on,0,0,3,,,,,,,,,2,,,59,0
147282,note_on,0,0,3,,,,,,,,,2,,,54,0
147282,note_on,12,0,3,,,,,,,,,2,,,62,0
147390,note_on,120,0,2,,,,,,,,,1,,,74,0
147390,note_on,108,0,3,,,,,,,,,2,,,42,88
147390,note_on,0,0,1,,,,,,,,,0,,,86,101
147390,note_on,120,0,1,,,,,,,,,0,,,78,0
147390,note_on,0,0,2,,,,,,,,,1,,,76,88
147510,note_on,0,0,3,,,,,,,,,2,,,58,62
147510,note_on,0,0,3,,,,,,,,,2,,,54,62
147510,note_on,0,0,1,,,,,,,,,0,,,85,75
147510,note_on,120,0,1,,,,,,,,,0,,,86,0
147510,note_on,0,0,3,,,,,,,,,2,,,64,62
147510,note_on,120,0,3,,,,,,,,,2,,,42,0
147522,note_on,12,0,3,,,,,,,,,2,,,64,0
147522,note_on,0,0,3,,,,,,,,,2,,,58,0
147522,note_on,0,0,3,,,,,,,,,2,,,54,0
147570,note_on,60,0,1,,,,,,,,,0,,,85,0
147570,note_on,0,0,1,,,,,,,,,0,,,83,75
147630,note_on,0,0,1,,,,,,,,,0,,,82,75
147630,note_on,108,0,3,,,,,,,,,2,,,54,62
147630,note_on,0,0,3,,,,,,,,,2,,,58,62
147630,note_on,0,0,3,,,,,,,,,2,,,64,62
147630,note_on,60,0,1,,,,,,,,,0,,,83,0
147642,note_on,12,0,3,,,,,,,,,2,,,64,0
147642,note_on,0,0,3,,,,,,,,,2,,,58,0
147642,note_on,0,0,3,,,,,,,,,2,,,54,0
147690,note_on,60,0,1,,,,,,,,,0,,,82,0
147690,note_on,0,0,1,,,,,,,,,0,,,83,75
147750,note_on,60,0,1,,,,,,,,,0,,,83,0
147750,note_on,0,0,1,,,,,,,,,0,,,71,75
147750,note_on,0,0,1,,,,,,,,,0,,,74,75
147750,note_on,108,0,3,,,,,,,,,2,,,55,62
147750,note_on,360,0,2,,,,,,,,,1,,,76,0
147870,note_on,0,0,3,,,,,,,,,2,,,59,62
147870,note_on,0,0,3,,,,,,,,,2,,,62,62
147870,note_on,120,0,3,,,,,,,,,2,,,55,0
147870,note_on,0,0,3,,,,,,,,,2,,,67,62
147870,note_on,0,0,1,,,,,,,,,0,,,83,75
147870,note_on,0,0,1,,,,,,,,,0,,,71,0
147870,note_on,120,0,1,,,,,,,,,0,,,74,0
147882,note_on,12,0,3,,,,,,,,,2,,,67,0
147882,note_on,0,0,3,,,,,,,,,2,,,62,0
147882,note_on,0,0,3,,,,,,,,,2,,,59,0
147930,note_on,60,0,1,,,,,,,,,0,,,83,0
147990,note_on,108,0,3,,,,,,,,,2,,,59,62
147990,note_on,0,0,3,,,,,,,,,2,,,62,62
147990,note_on,0,0,3,,,,,,,,,2,,,67,62
147990,note_on,60,0,1,,,,,,,,,0,,,74,75
147990,note_on,240,0,2,,,,,,,,,1,,,71,62
148002,note_on,12,0,3,,,,,,,,,2,,,67,0
148002,note_on,0,0,3,,,,,,,,,2,,,62,0
148002,note_on,0,0,3,,,,,,,,,2,,,59,0
148110,note_on,120,0,1,,,,,,,,,0,,,74,0
148110,note_on,0,0,2,,,,,,,,,1,,,72,88
148110,note_on,0,0,1,,,,,,,,,0,,,83,101
148110,note_on,120,0,2,,,,,,,,,1,,,71,0
148110,note_on,108,0,3,,,,,,,,,2,,,51,88
148230,note_on,0,0,3,,,,,,,,,2,,,66,62
148230,note_on,0,0,3,,,,,,,,,2,,,60,62
148230,note_on,0,0,1,,,,,,,,,0,,,81,75
148230,note_on,120,0,1,,,,,,,,,0,,,83,0
148230,note_on,120,0,3,,,,,,,,,2,,,51,0
148230,note_on,0,0,3,,,,,,,,,2,,,69,62
148242,note_on,12,0,3,,,,,,,,,2,,,69,0
148242,note_on,0,0,3,,,,,,,,,2,,,66,0
148242,note_on,0,0,3,,,,,,,,,2,,,60,0
148290,note_on,0,0,1,,,,,,,,,0,,,79,75
148290,note_on,60,0,1,,,,,,,,,0,,,81,0
148350,note_on,60,0,1,,,,,,,,,0,,,79,0
148350,note_on,0,0,3,,,,,,,,,2,,,69,62
148350,note_on,0,0,3,,,,,,,,,2,,,66,62
148350,note_on,108,0,3,,,,,,,,,2,,,60,62
148350,note_on,0,0,1,,,,,,,,,0,,,78,75
148362,note_on,0,0,3,,,,,,,,,2,,,60,0
148362,note_on,0,0,3,,,,,,,,,2,,,66,0
148362,note_on,12,0,3,,,,,,,,,2,,,69,0
148410,note_on,60,0,1,,,,,,,,,0,,,78,0
148410,note_on,0,0,1,,,,,,,,,0,,,81,75
148470,note_on,360,0,2,,,,,,,,,1,,,72,0
148470,note_on,108,0,3,,,,,,,,,2,,,52,62
148470,note_on,0,0,1,,,,,,,,,0,,,71,75
148470,note_on,0,0,1,,,,,,,,,0,,,67,75
148470,note_on,60,0,1,,,,,,,,,0,,,81,0
148590,note_on,0,0,3,,,,,,,,,2,,,55,62
148590,note_on,0,0,3,,,,,,,,,2,,,59,62
148590,note_on,120,0,1,,,,,,,,,0,,,71,0
148590,note_on,0,0,1,,,,,,,,,0,,,79,75
148590,note_on,0,0,1,,,,,,,,,0,,,67,0
148590,note_on,0,0,3,,,,,,,,,2,,,64,62
148590,note_on,120,0,3,,,,,,,,,2,,,52,0
148602,note_on,12,0,3,,,,,,,,,2,,,64,0
148602,note_on,0,0,3,,,,,,,,,2,,,59,0
148602,note_on,0,0,3,,,,,,,,,2,,,55,0
148650,note_on,60,0,1,,,,,,,,,0,,,79,0
148710,note_on,0,0,3,,,,,,,,,2,,,59,62
148710,note_on,0,0,1,,,,,,,,,0,,,71,75
148710,note_on,60,0,1,,,,,,,,,0,,,67,75
148710,note_on,108,0,3,,,,,,,,,2,,,55,62
148710,note_on,0,0,3,,,,,,,,,2,,,64,62
148722,note_on,0,0,3,,,,,,,,,2,,,59,0
148722,note_on,0,0,3,,,,,,,,,2,,,55,0
148722,note_on,12,0,3,,,,,,,,,2,,,64,0
148830,note_on,108,0,3,,,,,,,,,2,,,45,62
148830,note_on,120,0,1,,,,,,,,,0,,,71,0
148830,note_on,0,0,1,,,,,,,,,0,,,67,0
148830,note_on,0,0,1,,,,,,,,,0,,,83,75
148890,note_on,60,0,1,,,,,,,,,0,,,83,0
148950,note_on,0,0,3,,,,,,,,,2,,,67,62
148950,note_on,0,0,3,,,,,,,,,2,,,61,62
148950,note_on,0,0,3,,,,,,,,,2,,,57,62
148950,note_on,120,0,3,,,,,,,,,2,,,45,0
148950,note_on,60,0,1,,,,,,,,,0,,,81,75
148962,note_on,12,0,3,,,,,,,,,2,,,67,0
148962,note_on,0,0,3,,,,,,,,,2,,,61,0
148962,note_on,0,0,3,,,,,,,,,2,,,57,0
149010,note_on,0,0,1,,,,,,,,,0,,,79,75
149010,note_on,60,0,1,,,,,,,,,0,,,81,0
149070,note_on,0,0,1,,,,,,,,,0,,,78,75
149070,note_on,108,0,3,,,,,,,,,2,,,57,62
149070,note_on,0,0,3,,,,,,,,,2,,,67,62
149070,note_on,0,0,3,,,,,,,,,2,,,61,62
149070,note_on,60,0,1,,,,,,,,,0,,,79,0
149082,note_on,0,0,3,,,,,,,,,2,,,57,0
149082,note_on,12,0,3,,,,,,,,,2,,,67,0
149082,note_on,0,0,3,,,,,,,,,2,,,61,0
149130,note_on,0,0,1,,,,,,,,,0,,,76,75
149130,note_on,60,0,1,,,,,,,,,0,,,78,0
149190,note_on,0,0,1,,,,,,,,,0,,,74,75
149190,note_on,0,0,1,,,,,,,,,0,,,66,75
149190,note_on,60,0,1,,,,,,,,,0,,,76,0
149190,note_on,108,0,3,,,,,,,,,2,,,50,62
149250,note_on,0,0,1,,,,,,,,,0,,,69,75
149250,note_on,60,0,1,,,,,,,,,0,,,74,0
149250,note_on,0,0,1,,,,,,,,,0,,,66,0
149310,note_on,0,0,3,,,,,,,,,2,,,66,62
149310,note_on,0,0,3,,,,,,,,,2,,,62,62
149310,note_on,0,0,1,,,,,,,,,0,,,78,75
149310,note_on,120,0,3,,,,,,,,,2,,,50,0
149310,note_on,60,0,1,,,,,,,,,0,,,69,0
149310,note_on,0,0,3,,,,,,,,,2,,,57,62
149310,note_on,0,0,1,,,,,,,,,0,,,74,75
149322,note_on,0,0,3,,,,,,,,,2,,,57,0
149322,note_on,12,0,3,,,,,,,,,2,,,66,0
149322,note_on,0,0,3,,,,,,,,,2,,,62,0
149430,note_on,0,0,1,,,,,,,,,0,,,76,75
149430,note_on,0,0,1,,,,,,,,,0,,,73,75
149430,note_on,0,0,1,,,,,,,,,0,,,69,75
149430,note_on,0,0,1,,,,,,,,,0,,,74,0
149430,note_on,120,0,1,,,,,,,,,0,,,78,0
149430,note_on,108,0,3,,,,,,,,,2,,,57,62
149430,note_on,0,0,3,,,,,,,,,2,,,67,62
149430,note_on,0,0,3,,,,,,,,,2,,,64,62
149442,note_on,0,0,3,,,,,,,,,2,,,57,0
149442,note_on,0,0,3,,,,,,,,,2,,,64,0
149442,note_on,12,0,3,,,,,,,,,2,,,67,0
149550,note_on,0,0,1,,,,,,,,,0,,,74,75
149550,note_on,0,0,1,,,,,,,,,0,,,69,75
149550,note_on,0,0,1,,,,,,,,,0,,,69,0
149550,note_on,108,0,3,,,,,,,,,2,,,62,62
149550,note_on,0,0,3,,,,,,,,,2,,,66,62
149550,note_on,120,0,1,,,,,,,,,0,,,76,0
149550,note_on,0,0,1,,,,,,,,,0,,,73,0
149910,note_on,360,0,3,,,,,,,,,2,,,66,0
149910,note_on,0,0,3,,,,,,,,,2,,,45,49
149910,note_on,0,0,3,,,,,,,,,2,,,62,0
149910,key_signature,2880,1,0,,,,,A,,,,,,,,
149910,note_on,0,0,1,,,,,,,,,0,,,69,0
149910,note_on,360,0,1,,,,,,,,,0,,,74,0
150030,note_on,120,0,3,,,,,,,,,2,,,45,0
150030,note_on,0,0,3,,,,,,,,,2,,,61,49
150030,note_on,0,0,3,,,,,,,,,2,,,64,49
150030,note_on,0,0,3,,,,,,,,,2,,,57,49
150042,note_on,12,0,3,,,,,,,,,2,,,64,0
150042,note_on,0,0,3,,,,,,,,,2,,,61,0
150042,note_on,0,0,3,,,,,,,,,2,,,57,0
150150,note_on,108,0,3,,,,,,,,,2,,,57,49
150150,note_on,0,0,3,,,,,,,,,2,,,61,49
150150,note_on,0,0,3,,,,,,,,,2,,,64,49
150162,note_on,0,0,3,,,,,,,,,2,,,57,0
150162,note_on,12,0,3,,,,,,,,,2,,,64,0
150162,note_on,0,0,3,,,,,,,,,2,,,61,0
150270,note_on,108,0,3,,,,,,,,,2,,,45,36
150390,note_on,0,0,3,,,,,,,,,2,,,64,36
150390,note_on,0,0,3,,,,,,,,,2,,,61,36
150390,note_on,0,0,3,,,,,,,,,2,,,57,36
150390,note_on,120,0,3,,,,,,,,,2,,,45,0
150390,note_on,480,0,1,,,,,,,,,0,,,73,49
150402,note_on,0,0,3,,,,,,,,,2,,,57,0
150402,note_on,12,0,3,,,,,,,,,2,,,64,0
150402,note_on,0,0,3,,,,,,,,,2,,,61,0
150450,note_on,0,0,1,,,,,,,,,0,,,76,49
150450,note_on,60,0,1,,,,,,,,,0,,,73,0
150510,note_on,0,0,1,,,,,,,,,0,,,74,49
150510,note_on,60,0,1,,,,,,,,,0,,,76,0
150510,note_on,0,0,3,,,,,,,,,2,,,64,36
150510,note_on,108,0,3,,,,,,,,,2,,,57,36
150510,note_on,0,0,3,,,,,,,,,2,,,61,36
150522,note_on,0,0,3,,,,,,,,,2,,,57,0
150522,note_on,0,0,3,,,,,,,,,2,,,61,0
150522,note_on,12,0,3,,,,,,,,,2,,,64,0
150570,note_on,60,0,1,,,,,,,,,0,,,74,0
150570,note_on,0,0,1,,,,,,,,,0,,,73,49
150630,note_on,2160,0,2,,,,,,,,,1,,,78,62
150630,note_on,0,0,1,,,,,,,,,0,,,73,75
150630,note_on,60,0,1,,,,,,,,,0,,,73,0
150630,note_on,108,0,3,,,,,,,,,2,,,50,36
150750,note_on,120,0,3,,,,,,,,,2,,,50,0
150750,note_on,0,0,3,,,,,,,,,2,,,66,36
150750,note_on,0,0,3,,,,,,,,,2,,,62,36
150762,note_on,12,0,3,,,,,,,,,2,,,66,0
150762,note_on,0,0,3,,,,,,,,,2,,,62,0
150870,note_on,108,0,3,,,,,,,,,2,,,62,36
150870,note_on,240,0,1,,,,,,,,,0,,,73,0
150870,note_on,0,0,1,,,,,,,,,0,,,71,49
150870,note_on,240,0,2,,,,,,,,,1,,,78,0
150870,note_on,0,0,2,,,,,,,,,1,,,78,36
150870,note_on,0,0,3,,,,,,,,,2,,,66,36
150882,note_on,0,0,3,,,,,,,,,2,,,62,0
150882,note_on,12,0,3,,,,,,,,,2,,,66,0
150990,note_on,108,0,3,,,,,,,,,2,,,50,36
151110,note_on,0,0,3,,,,,,,,,2,,,62,36
151110,note_on,240,0,2,,,,,,,,,1,,,78,0
151110,note_on,0,0,2,,,,,,,,,1,,,71,36
151110,note_on,240,0,1,,,,,,,,,0,,,71,0
151110,note_on,0,0,1,,,,,,,,,0,,,78,49
151110,note_on,120,0,3,,,,,,,,,2,,,50,0
151110,note_on,0,0,3,,,,,,,,,2,,,66,36
151122,note_on,0,0,3,,,,,,,,,2,,,62,0
151122,note_on,12,0,3,,,,,,,,,2,,,66,0
151170,note_on,0,0,1,,,,,,,,,0,,,81,49
151170,note_on,60,0,1,,,,,,,,,0,,,78,0
151230,note_on,60,0,1,,,,,,,,,0,,,81,0
151230,note_on,108,0,3,,,,,,,,,2,,,62,36
151230,note_on,0,0,3,,,,,,,,,2,,,66,36
151230,note_on,0,0,1,,,,,,,,,0,,,80,49
151242,note_on,12,0,3,,,,,,,,,2,,,66,0
151242,note_on,0,0,3,,,,,,,,,2,,,62,0
151290,note_on,0,0,1,,,,,,,,,0,,,78,49
151290,note_on,60,0,1,,,,,,,,,0,,,80,0
151350,note_on,240,0,2,,,,,,,,,1,,,71,0
151350,note_on,108,0,3,,,,,,,,,2,,,52,36
151350,note_on,60,0,1,,,,,,,,,0,,,78,0
151350,note_on,0,0,1,,,,,,,,,0,,,71,75
151350,note_on,0,0,2,,,,,,,,,1,,,76,62
151470,note_on,120,0,3,,,,,,,,,2,,,52,0
151470,note_on,0,0,3,,,,,,,,,2,,,61,36
151470,note_on,0,0,3,,,,,,,,,2,,,64,36
151482,note_on,12,0,3,,,,,,,,,2,,,64,0
151482,note_on,0,0,3,,,,,,,,,2,,,61,0
151590,note_on,240,0,2,,,,,,,,,1,,,76,0
151590,note_on,0,0,1,,,,,,,,,0,,,69,49
151590,note_on,240,0,1,,,,,,,,,0,,,71,0
151590,note_on,0,0,3,,,,,,,,,2,,,64,36
151590,note_on,108,0,3,,,,,,,,,2,,,61,36
151590,note_on,0,0,2,,,,,,,,,1,,,76,36
151602,note_on,0,0,3,,,,,,,,,2,,,61,0
151602,note_on,12,0,3,,,,,,,,,2,,,64,0
151710,note_on,108,0,3,,,,,,,,,2,,,52,36
151830,note_on,240,0,2,,,,,,,,,1,,,76,0
151830,note_on,120,0,3,,,,,,,,,2,,,52,0
151830,note_on,0,0,3,,,,,,,,,2,,,64,36
151830,note_on,0,0,1,,,,,,,,,0,,,69,49
151830,note_on,240,0,1,,,,,,,,,0,,,69,0
151830,note_on,0,0,2,,,,,,,,,1,,,76,36
151830,note_on,0,0,3,,,,,,,,,2,,,61,36
151842,note_on,12,0,3,,,,,,,,,2,,,64,0
151842,note_on,0,0,3,,,,,,,,,2,,,61,0
151890,note_on,60,0,1,,,,,,,,,0,,,69,0
151890,note_on,0,0,1,,,,,,,,,0,,,73,49
151950,note_on,0,0,3,,,,,,,,,2,,,64,36
151950,note_on,108,0,3,,,,,,,,,2,,,61,36
151950,note_on,60,0,1,,,,,,,,,0,,,73,0
151950,note_on,0,0,1,,,,,,,,,0,,,71,49
151962,note_on,0,0,3,,,,,,,,,2,,,61,0
151962,note_on,12,0,3,,,,,,,,,2,,,64,0
152010,note_on,60,0,1,,,,,,,,,0,,,71,0
152010,note_on,0,0,1,,,,,,,,,0,,,69,49
152070,note_on,60,0,1,,,,,,,,,0,,,69,0
152070,note_on,108,0,3,,,,,,,,,2,,,52,36
152070,note_on,0,0,1,,,,,,,,,0,,,69,49
152070,note_on,240,0,2,,,,,,,,,1,,,76,0
152070,note_on,0,0,2,,,,,,,,,1,,,76,36
152190,note_on,120,0,3,,,,,,,,,2,,,52,0
152190,note_on,0,0,3,,,,,,,,,2,,,64,36
152190,note_on,0,0,3,,,,,,,,,2,,,62,36
152190,note_on,0,0,3,,,,,,,,,2,,,59,36
152202,note_on,0,0,3,,,,,,,,,2,,,62,0
152202,note_on,12,0,3,,,,,,,,,2,,,64,0
152202,note_on,0,0,3,,,,,,,,,2,,,59,0
152310,note_on,0,0,1,,,,,,,,,0,,,68,49
152310,note_on,108,0,3,,,,,,,,,2,,,59,36
152310,note_on,0,0,3,,,,,,,,,2,,,62,36
152310,note_on,240,0,2,,,,,,,,,1,,,76,0
152310,note_on,0,0,3,,,,,,,,,2,,,64,36
152310,note_on,240,0,1,,,,,,,,,0,,,69,0
152310,note_on,0,0,2,,,,,,,,,1,,,76,36
152322,note_on,12,0,3,,,,,,,,,2,,,64,0
152322,note_on,0,0,3,,,,,,,,,2,,,62,0
152322,note_on,0,0,3,,,,,,,,,2,,,59,0
152430,note_on,108,0,3,,,,,,,,,2,,,52,36
152550,note_on,0,0,3,,,,,,,,,2,,,64,36
152550,note_on,0,0,1,,,,,,,,,0,,,76,49
152550,note_on,240,0,2,,,,,,,,,1,,,76,0
152550,note_on,240,0,1,,,,,,,,,0,,,68,0
152550,note_on,0,0,2,,,,,,,,,1,,,68,36
152550,note_on,120,0,3,,,,,,,,,2,,,52,0
152550,note_on,0,0,3,,,,,,,,,2,,,59,36
152550,note_on,0,0,3,,,,,,,,,2,,,62,36
152562,note_on,12,0,3,,,,,,,,,2,,,64,0
152562,note_on,0,0,3,,,,,,,,,2,,,59,0
152562,note_on,0,0,3,,,,,,,,,2,,,62,0
152610,note_on,60,0,1,,,,,,,,,0,,,76,0
152610,note_on,0,0,1,,,,,,,,,0,,,80,49
152670,note_on,108,0,3,,,,,,,,,2,,,59,36
152670,note_on,0,0,3,,,,,,,,,2,,,62,36
152670,note_on,60,0,1,,,,,,,,,0,,,80,0
152670,note_on,0,0,1,,,,,,,,,0,,,78,49
152670,note_on,0,0,3,,,,,,,,,2,,,64,36
152682,note_on,12,0,3,,,,,,,,,2,,,64,0
152682,note_on,0,0,3,,,,,,,,,2,,,62,0
152682,note_on,0,0,3,,,,,,,,,2,,,59,0
152730,note_on,60,0,1,,,,,,,,,0,,,78,0
152730,note_on,0,0,1,,,,,,,,,0,,,76,49
152790,note_on,108,0,3,,,,,,,,,2,,,45,36
152790,note_on,0,0,1,,,,,,,,,0,,,78,49
152790,note_on,60,0,1,,,,,,,,,0,,,76,0
152790,note_on,240,0,2,,,,,,,,,1,,,68,0
152790,note_on,0,0,2,,,,,,,,,1,,,69,36
152910,note_on,120,0,3,,,,,,,,,2,,,45,0
152910,note_on,0,0,3,,,,,,,,,2,,,61,36
152910,note_on,0,0,3,,,,,,,,,2,,,64,36
152910,note_on,0,0,3,,,,,,,,,2,,,57,36
152922,note_on,0,0,3,,,,,,,,,2,,,57,0
152922,note_on,0,0,3,,,,,,,,,2,,,61,0
152922,note_on,12,0,3,,,,,,,,,2,,,64,0
153030,note_on,0,0,1,,,,,,,,,0,,,76,49
153030,note_on,0,0,2,,,,,,,,,1,,,69,36
153030,note_on,240,0,2,,,,,,,,,1,,,69,0
153030,note_on,0,0,3,,,,,,,,,2,,,64,36
153030,note_on,0,0,3,,,,,,,,,2,,,61,36
153030,note_on,108,0,3,,,,,,,,,2,,,57,36
153030,note_on,240,0,1,,,,,,,,,0,,,78,0
153042,note_on,0,0,3,,,,,,,,,2,,,61,0
153042,note_on,12,0,3,,,,,,,,,2,,,64,0
153042,note_on,0,0,3,,,,,,,,,2,,,57,0
153150,note_on,108,0,3,,,,,,,,,2,,,45,36
153270,note_on,240,0,1,,,,,,,,,0,,,76,0
153270,note_on,0,0,2,,,,,,,,,1,,,76,36
153270,note_on,240,0,2,,,,,,,,,1,,,69,0
153270,note_on,0,0,1,,,,,,,,,0,,,73,49
153270,note_on,0,0,3,,,,,,,,,2,,,64,36
153270,note_on,0,0,3,,,,,,,,,2,,,61,36
153270,note_on,120,0,3,,,,,,,,,2,,,45,0
153270,note_on,0,0,3,,,,,,,,,2,,,57,36
153282,note_on,0,0,3,,,,,,,,,2,,,57,0
153282,note_on,12,0,3,,,,,,,,,2,,,64,0
153282,note_on,0,0,3,,,,,,,,,2,,,61,0
153330,note_on,0,0,1,,,,,,,,,0,,,71,49
153330,note_on,60,0,1,,,,,,,,,0,,,73,0
153390,note_on,60,0,1,,,,,,,,,0,,,71,0
153390,note_on,0,0,1,,,,,,,,,0,,,69,49
153390,note_on,0,0,3,,,,,,,,,2,,,64,36
153390,note_on,108,0,3,,,,,,,,,2,,,57,36
153390,note_on,0,0,3,,,,,,,,,2,,,61,36
153402,note_on,0,0,3,,,,,,,,,2,,,61,0
153402,note_on,12,0,3,,,,,,,,,2,,,64,0
153402,note_on,0,0,3,,,,,,,,,2,,,57,0
153450,note_on,60,0,1,,,,,,,,,0,,,69,0
153450,note_on,0,0,1,,,,,,,,,0,,,67,49
153510,note_on,0,0,2,,,,,,,,,1,,,78,36
153510,note_on,240,0,2,,,,,,,,,1,,,76,0
153510,note_on,0,0,1,,,,,,,,,0,,,73,49
153510,note_on,60,0,1,,,,,,,,,0,,,67,0
153510,note_on,0,0,1,,,,,,,,,0,,,66,49
153510,note_on,108,0,3,,,,,,,,,2,,,50,36
153630,note_on,0,0,3,,,,,,,,,2,,,62,36
153630,note_on,120,0,3,,,,,,,,,2,,,50,0
153642,note_on,12,0,3,,,,,,,,,2,,,62,0
153750,note_on,0,0,3,,,,,,,,,2,,,66,36
153750,note_on,108,0,3,,,,,,,,,2,,,62,36
153750,note_on,0,0,1,,,,,,,,,0,,,66,0
153750,note_on,0,0,1,,,,,,,,,0,,,71,49
153750,note_on,240,0,1,,,,,,,,,0,,,73,0
153750,note_on,0,0,2,,,,,,,,,1,,,78,36
153750,note_on,240,0,2,,,,,,,,,1,,,78,0
153762,note_on,12,0,3,,,,,,,,,2,,,66,0
153762,note_on,0,0,3,,,,,,,,,2,,,62,0
153870,note_on,108,0,3,,,,,,,,,2,,,50,36
153990,note_on,0,0,1,,,,,,,,,0,,,83,49
153990,note_on,120,0,3,,,,,,,,,2,,,50,0
153990,note_on,0,0,2,,,,,,,,,1,,,71,36
153990,note_on,240,0,2,,,,,,,,,1,,,78,0
153990,note_on,240,0,1,,,,,,,,,0,,,71,0
153990,note_on,0,0,3,,,,,,,,,2,,,62,36
153990,note_on,0,0,3,,,,,,,,,2,,,66,36
154002,note_on,12,0,3,,,,,,,,,2,,,66,0
154002,note_on,0,0,3,,,,,,,,,2,,,62,0
154050,note_on,60,0,1,,,,,,,,,0,,,83,0
154050,note_on,0,0,1,,,,,,,,,0,,,81,49
154110,note_on,0,0,1,,,,,,,,,0,,,80,49
154110,note_on,60,0,1,,,,,,,,,0,,,81,0
154110,note_on,0,0,3,,,,,,,,,2,,,66,36
154110,note_on,108,0,3,,,,,,,,,2,,,62,36
154122,note_on,0,0,3,,,,,,,,,2,,,62,0
154122,note_on,12,0,3,,,,,,,,,2,,,66,0
154170,note_on,0,0,1,,,,,,,,,0,,,78,49
154170,note_on,60,0,1,,,,,,,,,0,,,80,0
154230,note_on,60,0,1,,,,,,,,,0,,,78,0
154230,note_on,0,0,1,,,,,,,,,0,,,71,49
154230,note_on,0,0,2,,,,,,,,,1,,,76,36
154230,note_on,108,0,3,,,,,,,,,2,,,52,36
154230,note_on,240,0,2,,,,,,,,,1,,,71,0
154350,note_on,0,0,3,,,,,,,,,2,,,64,36
154350,note_on,120,0,3,,,,,,,,,2,,,52,0
154350,note_on,0,0,3,,,,,,,,,2,,,61,36
154362,note_on,12,0,3,,,,,,,,,2,,,64,0
154362,note_on,0,0,3,,,,,,,,,2,,,61,0
154470,note_on,108,0,3,,,,,,,,,2,,,61,36
154470,note_on,240,0,2,,,,,,,,,1,,,76,0
154470,note_on,0,0,2,,,,,,,,,1,,,76,36
154470,note_on,240,0,1,,,,,,,,,0,,,71,0
154470,note_on,0,0,1,,,,,,,,,0,,,69,49
154470,note_on,0,0,3,,,,,,,,,2,,,64,36
154482,note_on,12,0,3,,,,,,,,,2,,,64,0
154482,note_on,0,0,3,,,,,,,,,2,,,61,0
154590,note_on,108,0,3,,,,,,,,,2,,,52,36
154710,note_on,120,0,3,,,,,,,,,2,,,52,0
154710,note_on,240,0,2,,,,,,,,,1,,,76,0
154710,note_on,0,0,2,,,,,,,,,1,,,76,36
154710,note_on,0,0,1,,,,,,,,,0,,,74,49
154710,note_on,240,0,1,,,,,,,,,0,,,69,0
154710,note_on,0,0,3,,,,,,,,,2,,,64,36
154710,note_on,0,0,3,,,,,,,,,2,,,61,36
154722,note_on,12,0,3,,,,,,,,,2,,,64,0
154722,note_on,0,0,3,,,,,,,,,2,,,61,0
154770,note_on,60,0,1,,,,,,,,,0,,,74,0
154770,note_on,0,0,1,,,,,,,,,0,,,73,49
154830,note_on,0,0,1,,,,,,,,,0,,,71,49
154830,note_on,60,0,1,,,,,,,,,0,,,73,0
154830,note_on,108,0,3,,,,,,,,,2,,,61,36
154830,note_on,0,0,3,,,,,,,,,2,,,64,36
154842,note_on,0,0,3,,,,,,,,,2,,,61,0
154842,note_on,12,0,3,,,,,,,,,2,,,64,0
154890,note_on,0,0,1,,,,,,,,,0,,,69,49
154890,note_on,60,0,1,,,,,,,,,0,,,71,0
154950,note_on,240,0,2,,,,,,,,,1,,,76,0
154950,note_on,108,0,3,,,,,,,,,2,,,52,36
154950,note_on,0,0,1,,,,,,,,,0,,,78,75
154950,note_on,60,0,1,,,,,,,,,0,,,69,0
154950,note_on,0,0,2,,,,,,,,,1,,,69,62
155070,note_on,120,0,3,,,,,,,,,2,,,52,0
155070,note_on,0,0,3,,,,,,,,,2,,,62,36
155070,note_on,0,0,3,,,,,,,,,2,,,64,36
155082,note_on,0,0,3,,,,,,,,,2,,,62,0
155082,note_on,12,0,3,,,,,,,,,2,,,64,0
155190,note_on,240,0,1,,,,,,,,,0,,,78,0
155190,note_on,0,0,2,,,,,,,,,1,,,68,36
155190,note_on,0,0,3,,,,,,,,,2,,,64,36
155190,note_on,240,0,2,,,,,,,,,1,,,69,0
155190,note_on,0,0,1,,,,,,,,,0,,,76,49
155190,note_on,108,0,3,,,,,,,,,2,,,62,36
155202,note_on,0,0,3,,,,,,,,,2,,,62,0
155202,note_on,12,0,3,,,,,,,,,2,,,64,0
155310,note_on,108,0,3,,,,,,,,,2,,,52,36
155430,note_on,240,0,1,,,,,,,,,0,,,76,0
155430,note_on,120,0,3,,,,,,,,,2,,,52,0
155430,note_on,0,0,3,,,,,,,,,2,,,64,36
155430,note_on,0,0,1,,,,,,,,,0,,,78,49
155430,note_on,0,0,3,,,,,,,,,2,,,62,36
155430,note_on,0,0,2,,,,,,,,,1,,,69,36
155430,note_on,240,0,2,,,,,,,,,1,,,68,0
155442,note_on,12,0,3,,,,,,,,,2,,,64,0
155442,note_on,0,0,3,,,,,,,,,2,,,62,0
155550,note_on,120,0,1,,,,,,,,,0,,,78,0
155550,note_on,108,0,3,,,,,,,,,2,,,62,36
155550,note_on,0,0,3,,,,,,,,,2,,,64,36
155550,note_on,0,0,2,,,,,,,,,1,,,71,36
155550,note_on,120,0,2,,,,,,,,,1,,,69,0
155550,note_on,0,0,1,,,,,,,,,0,,,80,49
155562,note_on,0,0,3,,,,,,,,,2,,,62,0
155562,note_on,12,0,3,,,,,,,,,2,,,64,0
155670,note_on,120,0,2,,,,,,,,,1,,,71,0
155670,note_on,0,0,2,,,,,,,,,1,,,69,36
155670,note_on,0,0,2,,,,,,,,,1,,,73,36
155670,note_on,108,0,3,,,,,,,,,2,,,45,36
155670,note_on,0,0,1,,,,,,,,,0,,,81,49
155670,note_on,120,0,1,,,,,,,,,0,,,80,0
155790,note_on,0,0,3,,,,,,,,,2,,,64,36
155790,note_on,120,0,3,,,,,,,,,2,,,45,0
155790,note_on,0,0,3,,,,,,,,,2,,,61,36
155790,note_on,0,0,3,,,,,,,,,2,,,57,36
155802,note_on,0,0,3,,,,,,,,,2,,,61,0
155802,note_on,0,0,3,,,,,,,,,2,,,57,0
155802,note_on,12,0,3,,,,,,,,,2,,,64,0
155910,note_on,108,0,3,,,,,,,,,2,,,57,36
155910,note_on,0,0,3,,,,,,,,,2,,,61,36
155910,note_on,0,0,3,,,,,,,,,2,,,64,36
155910,note_on,0,0,2,,,,,,,,,1,,,69,36
155910,note_on,240,0,1,,,,,,,,,0,,,81,0
155910,note_on,0,0,2,,,,,,,,,1,,,73,36
155910,note_on,0,0,1,,,,,,,,,0,,,76,49
155910,note_on,0,0,2,,,,,,,,,1,,,69,0
155910,note_on,240,0,2,,,,,,,,,1,,,73,0
155922,note_on,12,0,3,,,,,,,,,2,,,64,0
155922,note_on,0,0,3,,,,,,,,,2,,,61,0
155922,note_on,0,0,3,,,,,,,,,2,,,57,0
156030,note_on,108,0,3,,,,,,,,,2,,,45,36
156150,note_on,0,0,3,,,,,,,,,2,,,64,36
156150,note_on,0,0,1,,,,,,,,,0,,,73,49
156150,note_on,0,0,3,,,,,,,,,2,,,61,36
156150,note_on,240,0,2,,,,,,,,,1,,,73,0
156150,note_on,120,0,3,,,,,,,,,2,,,45,0
156150,note_on,0,0,3,,,,,,,,,2,,,57,36
156150,note_on,0,0,2,,,,,,,,,1,,,69,0
156150,note_on,240,0,1,,,,,,,,,0,,,76,0
156162,note_on,12,0,3,,,,,,,,,2,,,64,0
156162,note_on,0,0,3,,,,,,,,,2,,,61,0
156162,note_on,0,0,3,,,,,,,,,2,,,57,0
156210,note_on,60,0,1,,,,,,,,,0,,,73,0
156210,note_on,0,0,1,,,,,,,,,0,,,76,49
156270,note_on,60,0,1,,,,,,,,,0,,,76,0
156270,note_on,108,0,3,,,,,,,,,2,,,57,36
156270,note_on,0,0,3,,,,,,,,,2,,,61,36
156270,note_on,0,0,1,,,,,,,,,0,,,75,49
156270,note_on,0,0,3,,,,,,,,,2,,,64,36
156282,note_on,0,0,3,,,,,,,,,2,,,57,0
156282,note_on,0,0,3,,,,,,,,,2,,,61,0
156282,note_on,12,0,3,,,,,,,,,2,,,64,0
156330,note_on,0,0,1,,,,,,,,,0,,,73,49
156330,note_on,60,0,1,,,,,,,,,0,,,75,0
156390,note_on,108,0,3,,,,,,,,,2,,,49,62
156390,note_on,0,0,1,,,,,,,,,0,,,73,101
156390,note_on,60,0,1,,,,,,,,,0,,,73,0
156510,note_on,120,0,3,,,,,,,,,2,,,49,0
156510,note_on,0,0,3,,,,,,,,,2,,,61,62
156510,note_on,0,0,3,,,,,,,,,2,,,56,62
156510,note_on,0,0,3,,,,,,,,,2,,,65,62
156522,note_on,12,0,3,,,,,,,,,2,,,65,0
156522,note_on,0,0,3,,,,,,,,,2,,,61,0
156522,note_on,0,0,3,,,,,,,,,2,,,56,0
156630,note_on,108,0,3,,,,,,,,,2,,,56,62
156630,note_on,0,0,3,,,,,,,,,2,,,61,62
156630,note_on,240,0,1,,,,,,,,,0,,,73,0
156630,note_on,0,0,3,,,,,,,,,2,,,65,62
156630,note_on,0,0,1,,,,,,,,,0,,,73,101
156642,note_on,0,0,3,,,,,,,,,2,,,56,0
156642,note_on,0,0,3,,,,,,,,,2,,,61,0
156642,note_on,12,0,3,,,,,,,,,2,,,65,0
156750,note_on,108,0,3,,,,,,,,,2,,,49,62
156870,note_on,240,0,1,,,,,,,,,0,,,73,0
156870,note_on,0,0,1,,,,,,,,,0,,,73,75
156870,note_on,120,0,3,,,,,,,,,2,,,49,0
156870,note_on,0,0,3,,,,,,,,,2,,,56,62
156870,note_on,0,0,3,,,,,,,,,2,,,61,62
156870,note_on,0,0,3,,,,,,,,,2,,,65,62
156870,note_on,720,0,2,,,,,,,,,1,,,80,62
156882,note_on,12,0,3,,,,,,,,,2,,,65,0
156882,note_on,0,0,3,,,,,,,,,2,,,61,0
156882,note_on,0,0,3,,,,,,,,,2,,,56,0
156930,note_on,60,0,1,,,,,,,,,0,,,73,0
156930,note_on,0,0,1,,,,,,,,,0,,,77,75
156990,note_on,108,0,3,,,,,,,,,2,,,56,62
156990,note_on,0,0,3,,,,,,,,,2,,,61,62
156990,note_on,0,0,3,,,,,,,,,2,,,65,62
156990,note_on,60,0,1,,,,,,,,,0,,,77,0
156990,note_on,0,0,1,,,,,,,,,0,,,75,75
157002,note_on,12,0,3,,,,,,,,,2,,,65,0
157002,note_on,0,0,3,,,,,,,,,2,,,61,0
157002,note_on,0,0,3,,,,,,,,,2,,,56,0
157050,note_on,0,0,1,,,,,,,,,0,,,73,75
157050,note_on,60,0,1,,,,,,,,,0,,,75,0
157110,note_on,108,0,3,,,,,,,,,2,,,44,62
157110,note_on,60,0,1,,,,,,,,,0,,,73,0
157110,note_on,0,0,1,,,,,,,,,0,,,80,75
157110,note_on,0,0,2,,,,,,,,,1,,,78,62
157110,note_on,0,0,2,,,,,,,,,1,,,73,62
157110,note_on,240,0,2,,,,,,,,,1,,,80,0
157230,note_on,120,0,3,,,,,,,,,2,,,44,0
157230,note_on,0,0,3,,,,,,,,,2,,,63,62
157230,note_on,0,0,3,,,,,,,,,2,,,66,62
157230,note_on,0,0,3,,,,,,,,,2,,,56,62
157242,note_on,12,0,3,,,,,,,,,2,,,66,0
157242,note_on,0,0,3,,,,,,,,,2,,,63,0
157242,note_on,0,0,3,,,,,,,,,2,,,56,0
157350,note_on,0,0,2,,,,,,,,,1,,,72,80
157350,note_on,108,0,3,,,,,,,,,2,,,56,62
157350,note_on,0,0,3,,,,,,,,,2,,,63,62
157350,note_on,0,0,3,,,,,,,,,2,,,66,62
157350,note_on,0,0,2,,,,,,,,,1,,,73,0
157350,note_on,0,0,2,,,,,,,,,1,,,78,88
157350,note_on,240,0,2,,,,,,,,,1,,,78,0
157350,note_on,240,0,1,,,,,,,,,0,,,80,0
157350,note_on,0,0,1,,,,,,,,,0,,,80,101
157362,note_on,0,0,3,,,,,,,,,2,,,56,0
157362,note_on,0,0,3,,,,,,,,,2,,,63,0
157362,note_on,12,0,3,,,,,,,,,2,,,66,0
157470,note_on,108,0,3,,,,,,,,,2,,,44,62
157590,note_on,0,0,2,,,,,,,,,1,,,72,0
157590,note_on,0,0,2,,,,,,,,,1,,,73,80
157590,note_on,0,0,3,,,,,,,,,2,,,66,62
157590,note_on,0,0,3,,,,,,,,,2,,,63,62
157590,note_on,0,0,2,,,,,,,,,1,,,78,88
157590,note_on,0,0,3,,,,,,,,,2,,,56,62
157590,note_on,120,0,3,,,,,,,,,2,,,44,0
157590,note_on,240,0,1,,,,,,,,,0,,,80,0
157590,note_on,240,0,2,,,,,,,,,1,,,78,0
157590,note_on,0,0,1,,,,,,,,,0,,,82,101
157602,note_on,0,0,3,,,,,,,,,2,,,63,0
157602,note_on,0,0,2,,,,,,,,,1,,,73,0
157602,note_on,12,0,2,,,,,,,,,1,,,78,0
157602,note_on,0,0,3,,,,,,,,,2,,,56,0
157602,note_on,12,0,3,,,,,,,,,2,,,66,0
157602,note_on,12,0,1,,,,,,,,,0,,,82,0
157710,note_on,0,0,3,,,,,,,,,2,,,66,62
157710,note_on,0,0,3,,,,,,,,,2,,,63,62
157710,note_on,108,0,3,,,,,,,,,2,,,56,62
157710,note_on,0,0,2,,,,,,,,,1,,,78,88
157710,note_on,108,0,2,,,,,,,,,1,,,75,80
157710,note_on,108,0,1,,,,,,,,,0,,,84,101
157722,note_on,0,0,3,,,,,,,,,2,,,63,0
157722,note_on,12,0,3,,,,,,,,,2,,,66,0
157722,note_on,0,0,3,,,,,,,,,2,,,56,0
157722,note_on,12,0,2,,,,,,,,,1,,,78,0
157722,note_on,0,0,2,,,,,,,,,1,,,75,0
157722,note_on,12,0,1,,,,,,,,,0,,,84,0
157830,note_on,108,0,2,,,,,,,,,1,,,73,62
157830,note_on,108,0,1,,,,,,,,,0,,,85,75
157830,note_on,0,0,2,,,,,,,,,1,,,77,62
157830,note_on,108,0,3,,,,,,,,,2,,,49,62
157950,note_on,0,0,3,,,,,,,,,2,,,65,62
157950,note_on,0,0,3,,,,,,,,,2,,,61,62
157950,note_on,0,0,3,,,,,,,,,2,,,56,62
157950,note_on,120,0,3,,,,,,,,,2,,,49,0
157962,note_on,0,0,3,,,,,,,,,2,,,56,0
157962,note_on,0,0,3,,,,,,,,,2,,,61,0
157962,note_on,12,0,3,,,,,,,,,2,,,65,0
158070,note_on,0,0,2,,,,,,,,,1,,,73,0
158070,note_on,0,0,3,,,,,,,,,2,,,61,62
158070,note_on,0,0,3,,,,,,,,,2,,,65,62
158070,note_on,240,0,1,,,,,,,,,0,,,85,0
158070,note_on,240,0,2,,,,,,,,,1,,,77,0
158070,note_on,108,0,3,,,,,,,,,2,,,56,62
158070,note_on,0,0,2,,,,,,,,,1,,,73,80
158070,note_on,0,0,2,,,,,,,,,1,,,77,88
158070,note_on,0,0,1,,,,,,,,,0,,,80,101
158082,note_on,12,0,3,,,,,,,,,2,,,65,0
158082,note_on,0,0,3,,,,,,,,,2,,,61,0
158082,note_on,0,0,3,,,,,,,,,2,,,56,0
158190,note_on,108,0,3,,,,,,,,,2,,,49,62
158310,note_on,0,0,1,,,,,,,,,0,,,73,75
158310,note_on,240,0,2,,,,,,,,,1,,,77,0
158310,note_on,0,0,2,,,,,,,,,1,,,73,0
158310,note_on,0,0,2,,,,,,,,,1,,,80,62
158310,note_on,240,0,1,,,,,,,,,0,,,80,0
158310,note_on,0,0,3,,,,,,,,,2,,,65,62
158310,note_on,120,0,3,,,,,,,,,2,,,49,0
158310,note_on,0,0,3,,,,,,,,,2,,,56,62
158310,note_on,0,0,3,,,,,,,,,2,,,61,62
158322,note_on,12,0,3,,,,,,,,,2,,,65,0
158322,note_on,0,0,3,,,,,,,,,2,,,56,0
158322,note_on,0,0,3,,,,,,,,,2,,,61,0
158370,note_on,0,0,1,,,,,,,,,0,,,77,75
158370,note_on,60,0,1,,,,,,,,,0,,,73,0
158430,note_on,108,0,3,,,,,,,,,2,,,56,62
158430,note_on,0,0,3,,,,,,,,,2,,,65,62
158430,note_on,0,0,1,,,,,,,,,0,,,75,75
158430,note_on,60,0,1,,,,,,,,,0,,,77,0
158430,note_on,0,0,3,,,,,,,,,2,,,61,62
158442,note_on,0,0,3,,,,,,,,,2,,,56,0
158442,note_on,12,0,3,,,,,,,,,2,,,65,0
158442,note_on,0,0,3,,,,,,,,,2,,,61,0
158490,note_on,0,0,1,,,,,,,,,0,,,73,75
158490,note_on,60,0,1,,,,,,,,,0,,,75,0
158550,note_on,60,0,1,,,,,,,,,0,,,73,0
158550,note_on,240,0,2,,,,,,,,,1,,,80,0
158550,note_on,0,0,2,,,,,,,,,1,,,73,62
158550,note_on,108,0,3,,,,,,,,,2,,,44,62
158550,note_on,0,0,1,,,,,,,,,0,,,80,75
158550,note_on,0,0,2,,,,,,,,,1,,,78,62
158670,note_on,0,0,3,,,,,,,,,2,,,66,62
158670,note_on,120,0,3,,,,,,,,,2,,,44,0
158670,note_on,0,0,3,,,,,,,,,2,,,56,62
158670,note_on,0,0,3,,,,,,,,,2,,,63,62
158682,note_on,12,0,3,,,,,,,,,2,,,66,0
158682,note_on,0,0,3,,,,,,,,,2,,,63,0
158682,note_on,0,0,3,,,,,,,,,2,,,56,0
158790,note_on,0,0,2,,,,,,,,,1,,,73,0
158790,note_on,240,0,2,,,,,,,,,1,,,78,0
158790,note_on,0,0,2,,,,,,,,,1,,,72,80
158790,note_on,108,0,3,,,,,,,,,2,,,56,62
158790,note_on,240,0,1,,,,,,,,,0,,,80,0
158790,note_on,0,0,3,,,,,,,,,2,,,63,62
158790,note_on,0,0,3,,,,,,,,,2,,,66,62
158790,note_on,0,0,1,,,,,,,,,0,,,80,101
158790,note_on,0,0,2,,,,,,,,,1,,,78,88
158802,note_on,12,0,3,,,,,,,,,2,,,66,0
158802,note_on,0,0,3,,,,,,,,,2,,,63,0
158802,note_on,0,0,3,,,,,,,,,2,,,56,0
158910,note_on,108,0,3,,,,,,,,,2,,,44,62
159030,note_on,0,0,2,,,,,,,,,1,,,73,80
159030,note_on,0,0,2,,,,,,,,,1,,,72,0
159030,note_on,240,0,2,,,,,,,,,1,,,78,0
159030,note_on,0,0,2,,,,,,,,,1,,,78,88
159030,note_on,0,0,3,,,,,,,,,2,,,63,62
159030,note_on,0,0,3,,,,,,,,,2,,,66,62
159030,note_on,240,0,1,,,,,,,,,0,,,80,0
159030,note_on,120,0,3,,,,,,,,,2,,,44,0
159030,note_on,0,0,1,,,,,,,,,0,,,82,101
159030,note_on,0,0,3,,,,,,,,,2,,,56,62
159042,note_on,12,0,1,,,,,,,,,0,,,82,0
159042,note_on,0,0,3,,,,,,,,,2,,,63,0
159042,note_on,0,0,3,,,,,,,,,2,,,56,0
159042,note_on,12,0,3,,,,,,,,,2,,,66,0
159042,note_on,12,0,2,,,,,,,,,1,,,78,0
159042,note_on,0,0,2,,,,,,,,,1,,,73,0
159150,note_on,108,0,3,,,,,,,,,2,,,56,62
159150,note_on,0,0,3,,,,,,,,,2,,,63,62
159150,note_on,0,0,3,,,,,,,,,2,,,66,62
159150,note_on,108,0,1,,,,,,,,,0,,,84,101
159150,note_on,108,0,2,,,,,,,,,1,,,75,80
159150,note_on,0,0,2,,,,,,,,,1,,,78,88
159162,note_on,12,0,2,,,,,,,,,1,,,78,0
159162,note_on,0,0,2,,,,,,,,,1,,,75,0
159162,note_on,0,0,3,,,,,,,,,2,,,56,0
159162,note_on,0,0,3,,,,,,,,,2,,,63,0
159162,note_on,12,0,3,,,,,,,,,2,,,66,0
159162,note_on,12,0,1,,,,,,,,,0,,,84,0
159270,note_on,108,0,1,,,,,,,,,0,,,85,75
159270,note_on,108,0,2,,,,,,,,,1,,,73,62
159270,note_on,0,0,2,,,,,,,,,1,,,77,62
159270,note_on,108,0,3,,,,,,,,,2,,,49,62
159390,note_on,120,0,3,,,,,,,,,2,,,49,0
159390,note_on,0,0,3,,,,,,,,,2,,,56,62
159390,note_on,0,0,3,,,,,,,,,2,,,61,62
159390,note_on,0,0,3,,,,,,,,,2,,,65,62
159402,note_on,12,0,3,,,,,,,,,2,,,65,0
159402,note_on,0,0,3,,,,,,,,,2,,,61,0
159402,note_on,0,0,3,,,,,,,,,2,,,56,0
159510,note_on,0,0,2,,,,,,,,,1,,,73,80
159510,note_on,0,0,3,,,,,,,,,2,,,65,62
159510,note_on,240,0,1,,,,,,,,,0,,,85,0
159510,note_on,108,0,3,,,,,,,,,2,,,56,62
159510,note_on,0,0,3,,,,,,,,,2,,,61,62
159510,note_on,240,0,2,,,,,,,,,1,,,77,0
159510,note_on,0,0,2,,,,,,,,,1,,,73,0
159510,note_on,0,0,1,,,,,,,,,0,,,80,101
159510,note_on,0,0,2,,,,,,,,,1,,,77,88
159522,note_on,12,0,3,,,,,,,,,2,,,65,0
159522,note_on,0,0,3,,,,,,,,,2,,,61,0
159522,note_on,0,0,3,,,,,,,,,2,,,56,0
159630,note_on,108,0,3,,,,,,,,,2,,,49,62
159750,note_on,240,0,2,,,,,,,,,1,,,77,0
159750,note_on,0,0,2,,,,,,,,,1,,,73,0
159750,note_on,120,0,3,,,,,,,,,2,,,49,0
159750,note_on,0,0,3,,,,,,,,,2,,,56,36
159750,note_on,0,0,3,,,,,,,,,2,,,61,36
159750,note_on,0,0,3,,,,,,,,,2,,,65,36
159750,note_on,240,0,1,,,,,,,,,0,,,80,0
159750,note_on,0,0,1,,,,,,,,,0,,,73,49
159750,note_on,0,0,1,,,,,,,,,0,,,80,49
159750,note_on,0,0,1,,,,,,,,,0,,,85,49
159762,note_on,0,0,3,,,,,,,,,2,,,61,0
159762,note_on,0,0,3,,,,,,,,,2,,,56,0
159762,note_on,12,0,3,,,,,,,,,2,,,65,0
159870,note_on,0,0,1,,,,,,,,,0,,,85,49
159870,note_on,108,0,3,,,,,,,,,2,,,56,36
159870,note_on,0,0,3,,,,,,,,,2,,,61,36
159870,note_on,0,0,1,,,,,,,,,0,,,80,49
159870,note_on,0,0,1,,,,,,,,,0,,,80,0
159870,note_on,0,0,1,,,,,,,,,0,,,73,0
159870,note_on,120,0,1,,,,,,,,,0,,,85,0
159870,note_on,0,0,3,,,,,,,,,2,,,65,36
159870,note_on,0,0,1,,,,,,,,,0,,,73,49
159882,note_on,0,0,3,,,,,,,,,2,,,56,0
159882,note_on,0,0,3,,,,,,,,,2,,,61,0
159882,note_on,12,0,3,,,,,,,,,2,,,65,0
159990,note_on,0,0,1,,,,,,,,,0,,,73,49
159990,note_on,108,0,3,,,,,,,,,2,,,45,36
159990,note_on,0,0,1,,,,,,,,,0,,,79,49
159990,note_on,0,0,1,,,,,,,,,0,,,80,0
159990,note_on,120,0,1,,,,,,,,,0,,,85,0
159990,note_on,0,0,1,,,,,,,,,0,,,73,0
159990,note_on,0,0,1,,,,,,,,,0,,,85,49
160110,note_on,0,0,3,,,,,,,,,2,,,57,36
160110,note_on,0,0,3,,,,,,,,,2,,,64,36
160110,note_on,120,0,3,,,,,,,,,2,,,45,0
160122,note_on,0,0,3,,,,,,,,,2,,,57,0
160122,note_on,12,0,3,,,,,,,,,2,,,64,0
160230,note_on,0,0,1,,,,,,,,,0,,,79,0
160230,note_on,0,0,3,,,,,,,,,2,,,64,36
160230,note_on,108,0,3,,,,,,,,,2,,,57,36
160230,note_on,240,0,1,,,,,,,,,0,,,85,0
160230,note_on,0,0,1,,,,,,,,,0,,,79,49
160230,note_on,0,0,1,,,,,,,,,0,,,73,49
160230,note_on,0,0,1,,,,,,,,,0,,,73,0
160230,note_on,0,0,1,,,,,,,,,0,,,85,49
160242,note_on,12,0,3,,,,,,,,,2,,,64,0
160242,note_on,0,0,3,,,,,,,,,2,,,57,0
160350,note_on,108,0,3,,,,,,,,,2,,,45,36
160470,note_on,0,0,3,,,,,,,,,2,,,64,36
160470,note_on,120,0,3,,,,,,,,,2,,,45,0
160470,note_on,0,0,3,,,,,,,,,2,,,57,36
160470,note_on,720,0,2,,,,,,,,,1,,,85,62
160470,note_on,0,0,1,,,,,,,,,0,,,79,0
160470,note_on,240,0,1,,,,,,,,,0,,,85,0
160470,note_on,0,0,1,,,,,,,,,0,,,73,0
160470,note_on,0,0,1,,,,,,,,,0,,,79,49
160482,note_on,0,0,3,,,,,,,,,2,,,57,0
160482,note_on,12,0,3,,,,,,,,,2,,,64,0
160530,note_on,60,0,1,,,,,,,,,0,,,79,0
160530,note_on,0,0,1,,,,,,,,,0,,,83,49
160590,note_on,108,0,3,,,,,,,,,2,,,57,36
160590,note_on,0,0,1,,,,,,,,,0,,,81,49
160590,note_on,0,0,3,,,,,,,,,2,,,64,36
160590,note_on,60,0,1,,,,,,,,,0,,,83,0
160602,note_on,12,0,3,,,,,,,,,2,,,64,0
160602,note_on,0,0,3,,,,,,,,,2,,,57,0
160650,note_on,0,0,1,,,,,,,,,0,,,79,49
160650,note_on,60,0,1,,,,,,,,,0,,,81,0
160710,note_on,60,0,1,,,,,,,,,0,,,79,0
160710,note_on,0,0,1,,,,,,,,,0,,,90,49
160710,note_on,0,0,1,,,,,,,,,0,,,85,49
160710,note_on,240,0,2,,,,,,,,,1,,,85,0
160710,note_on,108,0,3,,,,,,,,,2,,,50,36
160710,note_on,0,0,1,,,,,,,,,0,,,78,49
160830,note_on,120,0,3,,,,,,,,,2,,,50,0
160830,note_on,0,0,3,,,,,,,,,2,,,66,36
160830,note_on,0,0,3,,,,,,,,,2,,,62,36
160842,note_on,0,0,3,,,,,,,,,2,,,62,0
160842,note_on,12,0,3,,,,,,,,,2,,,66,0
160950,note_on,108,0,3,,,,,,,,,2,,,62,36
160950,note_on,0,0,3,,,,,,,,,2,,,66,36
160950,note_on,0,0,1,,,,,,,,,0,,,90,49
160950,note_on,0,0,1,,,,,,,,,0,,,83,49
160950,note_on,0,0,1,,,,,,,,,0,,,78,49
160950,note_on,0,0,1,,,,,,,,,0,,,78,0
160950,note_on,0,0,1,,,,,,,,,0,,,85,0
160950,note_on,240,0,1,,,,,,,,,0,,,90,0
160962,note_on,12,0,3,,,,,,,,,2,,,66,0
160962,note_on,0,0,3,,,,,,,,,2,,,62,0
161070,note_on,108,0,3,,,,,,,,,2,,,50,36
161190,note_on,0,0,1,,,,,,,,,0,,,83,0
161190,note_on,120,0,3,,,,,,,,,2,,,50,0
161190,note_on,0,0,3,,,,,,,,,2,,,62,36
161190,note_on,0,0,3,,,,,,,,,2,,,66,36
161190,note_on,480,0,2,,,,,,,,,1,,,83,62
161190,note_on,240,0,1,,,,,,,,,0,,,90,0
161190,note_on,0,0,1,,,,,,,,,0,,,90,49
161190,note_on,0,0,1,,,,,,,,,0,,,78,0
161202,note_on,12,0,3,,,,,,,,,2,,,66,0
161202,note_on,0,0,3,,,,,,,,,2,,,62,0
161250,note_on,0,0,1,,,,,,,,,0,,,93,49
161250,note_on,60,0,1,,,,,,,,,0,,,90,0
161310,note_on,108,0,3,,,,,,,,,2,,,62,36
161310,note_on,0,0,1,,,,,,,,,0,,,92,49
161310,note_on,60,0,1,,,,,,,,,0,,,93,0
161310,note_on,0,0,3,,,,,,,,,2,,,66,36
161322,note_on,12,0,3,,,,,,,,,2,,,66,0
161322,note_on,0,0,3,,,,,,,,,2,,,62,0
161370,note_on,0,0,1,,,,,,,,,0,,,90,49
161370,note_on,60,0,1,,,,,,,,,0,,,92,0
161430,note_on,0,0,1,,,,,,,,,0,,,83,49
161430,note_on,60,0,1,,,,,,,,,0,,,90,0
161430,note_on,240,0,2,,,,,,,,,1,,,83,0
161430,note_on,0,0,2,,,,,,,,,1,,,88,62
161430,note_on,108,0,3,,,,,,,,,2,,,52,36
161550,note_on,120,0,3,,,,,,,,,2,,,52,0
161550,note_on,0,0,3,,,,,,,,,2,,,61,36
161550,note_on,0,0,3,,,,,,,,,2,,,64,36
161562,note_on,12,0,3,,,,,,,,,2,,,64,0
161562,note_on,0,0,3,,,,,,,,,2,,,61,0
161670,note_on,240,0,2,,,,,,,,,1,,,88,0
161670,note_on,0,0,2,,,,,,,,,1,,,88,62
161670,note_on,108,0,3,,,,,,,,,2,,,61,36
161670,note_on,0,0,1,,,,,,,,,0,,,81,49
161670,note_on,240,0,1,,,,,,,,,0,,,83,0
161670,note_on,0,0,3,,,,,,,,,2,,,64,36
161682,note_on,12,0,3,,,,,,,,,2,,,64,0
161682,note_on,0,0,3,,,,,,,,,2,,,61,0
161790,note_on,108,0,3,,,,,,,,,2,,,52,36
161910,note_on,240,0,2,,,,,,,,,1,,,88,0
161910,note_on,0,0,3,,,,,,,,,2,,,61,36
161910,note_on,0,0,3,,,,,,,,,2,,,64,36
161910,note_on,240,0,1,,,,,,,,,0,,,81,0
161910,note_on,0,0,1,,,,,,,,,0,,,69,49
161910,note_on,120,0,3,,,,,,,,,2,,,52,0
161910,note_on,0,0,2,,,,,,,,,1,,,76,62
161922,note_on,12,0,3,,,,,,,,,2,,,64,0
161922,note_on,0,0,3,,,,,,,,,2,,,61,0
161970,note_on,60,0,1,,,,,,,,,0,,,69,0
161970,note_on,0,0,1,,,,,,,,,0,,,73,49
162030,note_on,0,0,1,,,,,,,,,0,,,71,49
162030,note_on,60,0,1,,,,,,,,,0,,,73,0
162030,note_on,108,0,3,,,,,,,,,2,,,61,36
162030,note_on,0,0,3,,,,,,,,,2,,,64,36
162042,note_on,0,0,3,,,,,,,,,2,,,61,0
162042,note_on,12,0,3,,,,,,,,,2,,,64,0
162090,note_on,60,0,1,,,,,,,,,0,,,71,0
162090,note_on,0,0,1,,,,,,,,,0,,,69,49
162150,note_on,60,0,1,,,,,,,,,0,,,69,0
162150,note_on,0,0,1,,,,,,,,,0,,,78,49
162150,note_on,0,0,2,,,,,,,,,1,,,69,62
162150,note_on,240,0,2,,,,,,,,,1,,,76,0
162150,note_on,108,0,3,,,,,,,,,2,,,52,36
162270,note_on,0,0,3,,,,,,,,,2,,,62,36
162270,note_on,120,0,3,,,,,,,,,2,,,52,0
162270,note_on,0,0,3,,,,,,,,,2,,,64,36
162282,note_on,12,0,3,,,,,,,,,2,,,64,0
162282,note_on,0,0,3,,,,,,,,,2,,,62,0
162390,note_on,0,0,3,,,,,,,,,2,,,64,36
162390,note_on,0,0,1,,,,,,,,,0,,,76,49
162390,note_on,240,0,2,,,,,,,,,1,,,69,0
162390,note_on,0,0,2,,,,,,,,,1,,,68,62
162390,note_on,240,0,1,,,,,,,,,0,,,78,0
162390,note_on,108,0,3,,,,,,,,,2,,,62,36
162402,note_on,12,0,3,,,,,,,,,2,,,64,0
162402,note_on,0,0,3,,,,,,,,,2,,,62,0
162510,note_on,108,0,3,,,,,,,,,2,,,52,36
162630,note_on,240,0,1,,,,,,,,,0,,,76,0
162630,note_on,0,0,2,,,,,,,,,1,,,69,88
162630,note_on,240,0,2,,,,,,,,,1,,,68,0
162630,note_on,0,0,3,,,,,,,,,2,,,62,36
162630,note_on,0,0,3,,,,,,,,,2,,,64,36
162630,note_on,0,0,1,,,,,,,,,0,,,78,75
162630,note_on,120,0,3,,,,,,,,,2,,,52,0
162642,note_on,12,0,2,,,,,,,,,1,,,69,0
162642,note_on,0,0,3,,,,,,,,,2,,,62,0
162642,note_on,12,0,3,,,,,,,,,2,,,64,0
162642,note_on,12,0,1,,,,,,,,,0,,,78,0
162750,note_on,108,0,1,,,,,,,,,0,,,80,75
162750,note_on,0,0,3,,,,,,,,,2,,,64,36
162750,note_on,108,0,3,,,,,,,,,2,,,62,36
162750,note_on,108,0,2,,,,,,,,,1,,,71,88
162762,note_on,12,0,2,,,,,,,,,1,,,71,0
162762,note_on,12,0,3,,,,,,,,,2,,,64,0
162762,note_on,0,0,3,,,,,,,,,2,,,62,0
162762,note_on,12,0,1,,,,,,,,,0,,,80,0
162870,note_on,0,0,2,,,,,,,,,1,,,73,62
162870,note_on,108,0,2,,,,,,,,,1,,,69,62
162870,note_on,108,0,3,,,,,,,,,2,,,45,36
162870,note_on,108,0,1,,,,,,,,,0,,,81,49
162990,note_on,120,0,3,,,,,,,,,2,,,45,0
162990,note_on,0,0,3,,,,,,,,,2,,,64,36
162990,note_on,0,0,3,,,,,,,,,2,,,61,36
162990,note_on,0,0,3,,,,,,,,,2,,,57,36
163002,note_on,0,0,3,,,,,,,,,2,,,57,0
163002,note_on,0,0,3,,,,,,,,,2,,,61,0
163002,note_on,12,0,3,,,,,,,,,2,,,64,0
163110,note_on,0,0,2,,,,,,,,,1,,,73,62
163110,note_on,0,0,3,,,,,,,,,2,,,61,36
163110,note_on,108,0,3,,,,,,,,,2,,,57,36
163110,note_on,0,0,3,,,,,,,,,2,,,64,36
163110,note_on,0,0,2,,,,,,,,,1,,,69,62
163110,note_on,240,0,2,,,,,,,,,1,,,73,0
163110,note_on,240,0,1,,,,,,,,,0,,,81,0
163110,note_on,0,0,1,,,,,,,,,0,,,76,49
163110,note_on,0,0,2,,,,,,,,,1,,,69,0
163122,note_on,12,0,3,,,,,,,,,2,,,64,0
163122,note_on,0,0,3,,,,,,,,,2,,,61,0
163122,note_on,0,0,3,,,,,,,,,2,,,57,0
163230,note_on,108,0,3,,,,,,,,,2,,,45,36
163350,note_on,0,0,3,,,,,,,,,2,,,57,36
163350,note_on,0,0,3,,,,,,,,,2,,,61,36
163350,note_on,0,0,1,,,,,,,,,0,,,73,49
163350,note_on,240,0,1,,,,,,,,,0,,,76,0
163350,note_on,0,0,2,,,,,,,,,1,,,69,0
163350,note_on,240,0,2,,,,,,,,,1,,,73,0
163350,note_on,120,0,3,,,,,,,,,2,,,45,0
163350,note_on,0,0,3,,,,,,,,,2,,,64,36
163362,note_on,12,0,3,,,,,,,,,2,,,64,0
163362,note_on,0,0,3,,,,,,,,,2,,,61,0
163362,note_on,0,0,3,,,,,,,,,2,,,57,0
163410,note_on,60,0,1,,,,,,,,,0,,,73,0
163410,note_on,0,0,1,,,,,,,,,0,,,76,49
163470,note_on,0,0,3,,,,,,,,,2,,,64,36
163470,note_on,0,0,3,,,,,,,,,2,,,61,36
163470,note_on,108,0,3,,,,,,,,,2,,,57,36
163470,note_on,60,0,1,,,,,,,,,0,,,76,0
163470,note_on,0,0,1,,,,,,,,,0,,,75,49
163482,note_on,0,0,3,,,,,,,,,2,,,61,0
163482,note_on,12,0,3,,,,,,,,,2,,,64,0
163482,note_on,0,0,3,,,,,,,,,2,,,57,0
163530,note_on,0,0,1,,,,,,,,,0,,,73,49
163530,note_on,60,0,1,,,,,,,,,0,,,75,0
163590,note_on,108,0,3,,,,,,,,,2,,,49,62
163590,note_on,60,0,1,,,,,,,,,0,,,73,0
163590,note_on,0,0,1,,,,,,,,,0,,,73,101
163710,note_on,0,0,3,,,,,,,,,2,,,65,62
163710,note_on,120,0,3,,,,,,,,,2,,,49,0
163710,note_on,0,0,3,,,,,,,,,2,,,56,62
163710,note_on,0,0,3,,,,,,,,,2,,,61,62
163722,note_on,0,0,3,,,,,,,,,2,,,61,0
163722,note_on,12,0,3,,,,,,,,,2,,,65,0
163722,note_on,0,0,3,,,,,,,,,2,,,56,0
163830,note_on,108,0,3,,,,,,,,,2,,,56,62
163830,note_on,0,0,3,,,,,,,,,2,,,61,62
163830,note_on,240,0,1,,,,,,,,,0,,,73,0
163830,note_on,0,0,1,,,,,,,,,0,,,73,101
163830,note_on,0,0,3,,,,,,,,,2,,,65,62
163842,note_on,12,0,3,,,,,,,,,2,,,65,0
163842,note_on,0,0,3,,,,,,,,,2,,,61,0
163842,note_on,0,0,3,,,,,,,,,2,,,56,0
163950,note_on,108,0,3,,,,,,,,,2,,,49,62
164070,note_on,720,0,2,,,,,,,,,1,,,80,62
164070,note_on,0,0,3,,,,,,,,,2,,,61,62
164070,note_on,0,0,3,,,,,,,,,2,,,65,62
164070,note_on,240,0,1,,,,,,,,,0,,,73,0
164070,note_on,0,0,1,,,,,,,,,0,,,73,75
164070,note_on,0,0,3,,,,,,,,,2,,,56,62
164070,note_on,120,0,3,,,,,,,,,2,,,49,0
164082,note_on,0,0,3,,,,,,,,,2,,,56,0
164082,note_on,0,0,3,,,,,,,,,2,,,61,0
164082,note_on,12,0,3,,,,,,,,,2,,,65,0
164130,note_on,60,0,1,,,,,,,,,0,,,73,0
164130,note_on,0,0,1,,,,,,,,,0,,,77,75
164190,note_on,60,0,1,,,,,,,,,0,,,77,0
164190,note_on,0,0,1,,,,,,,,,0,,,75,75
164190,note_on,108,0,3,,,,,,,,,2,,,56,62
164190,note_on,0,0,3,,,,,,,,,2,,,61,62
164190,note_on,0,0,3,,,,,,,,,2,,,65,62
164202,note_on,0,0,3,,,,,,,,,2,,,56,0
164202,note_on,0,0,3,,,,,,,,,2,,,61,0
164202,note_on,12,0,3,,,,,,,,,2,,,65,0
164250,note_on,0,0,1,,,,,,,,,0,,,73,75
164250,note_on,60,0,1,,,,,,,,,0,,,75,0
164310,note_on,240,0,2,,,,,,,,,1,,,80,0
164310,note_on,0,0,2,,,,,,,,,1,,,73,62
164310,note_on,0,0,2,,,,,,,,,1,,,78,62
164310,note_on,0,0,1,,,,,,,,,0,,,80,75
164310,note_on,60,0,1,,,,,,,,,0,,,73,0
164310,note_on,108,0,3,,,,,,,,,2,,,44,62
164430,note_on,120,0,3,,,,,,,,,2,,,44,0
164430,note_on,0,0,3,,,,,,,,,2,,,66,62
164430,note_on,0,0,3,,,,,,,,,2,,,63,62
164430,note_on,0,0,3,,,,,,,,,2,,,56,62
164442,note_on,12,0,3,,,,,,,,,2,,,66,0
164442,note_on,0,0,3,,,,,,,,,2,,,63,0
164442,note_on,0,0,3,,,,,,,,,2,,,56,0
164550,note_on,108,0,3,,,,,,,,,2,,,56,62
164550,note_on,0,0,3,,,,,,,,,2,,,63,62
164550,note_on,240,0,1,,,,,,,,,0,,,80,0
164550,note_on,240,0,2,,,,,,,,,1,,,78,0
164550,note_on,0,0,2,,,,,,,,,1,,,73,0
164550,note_on,0,0,2,,,,,,,,,1,,,72,80
164550,note_on,0,0,2,,,,,,,,,1,,,78,88
164550,note_on,0,0,1,,,,,,,,,0,,,80,101
164550,note_on,0,0,3,,,,,,,,,2,,,66,62
164562,note_on,12,0,3,,,,,,,,,2,,,66,0
164562,note_on,0,0,3,,,,,,,,,2,,,63,0
164562,note_on,0,0,3,,,,,,,,,2,,,56,0
164670,note_on,108,0,3,,,,,,,,,2,,,44,62
164790,note_on,0,0,3,,,,,,,,,2,,,56,62
164790,note_on,0,0,1,,,,,,,,,0,,,82,101
164790,note_on,120,0,3,,,,,,,,,2,,,44,0
164790,note_on,240,0,2,,,,,,,,,1,,,78,0
164790,note_on,0,0,2,,,,,,,,,1,,,73,80
164790,note_on,0,0,2,,,,,,,,,1,,,78,88
164790,note_on,240,0,1,,,,,,,,,0,,,80,0
164790,note_on,0,0,3,,,,,,,,,2,,,66,62
164790,note_on,0,0,3,,,,,,,,,2,,,63,62
164790,note_on,0,0,2,,,,,,,,,1,,,72,0
164802,note_on,0,0,2,,,,,,,,,1,,,73,0
164802,note_on,12,0,2,,,,,,,,,1,,,78,0
164802,note_on,12,0,1,,,,,,,,,0,,,82,0
164802,note_on,0,0,3,,,,,,,,,2,,,63,0
164802,note_on,12,0,3,,,,,,,,,2,,,66,0
164802,note_on,0,0,3,,,,,,,,,2,,,56,0
164910,note_on,0,0,2,,,,,,,,,1,,,78,88
164910,note_on,108,0,2,,,,,,,,,1,,,75,80
164910,note_on,108,0,3,,,,,,,,,2,,,56,62
164910,note_on,108,0,1,,,,,,,,,0,,,84,101
164910,note_on,0,0,3,,,,,,,,,2,,,66,62
164910,note_on,0,0,3,,,,,,,,,2,,,63,62
164922,note_on,12,0,3,,,,,,,,,2,,,66,0
164922,note_on,0,0,3,,,,,,,,,2,,,63,0
164922,note_on,0,0,3,,,,,,,,,2,,,56,0
164922,note_on,12,0,2,,,,,,,,,1,,,78,0
164922,note_on,0,0,2,,,,,,,,,1,,,75,0
164922,note_on,12,0,1,,,,,,,,,0,,,84,0
165030,note_on,0,0,2,,,,,,,,,1,,,77,62
165030,note_on,108,0,2,,,,,,,,,1,,,73,62
165030,note_on,108,0,1,,,,,,,,,0,,,85,75
165030,note_on,108,0,3,,,,,,,,,2,,,49,62
165150,note_on,0,0,3,,,,,,,,,2,,,65,62
165150,note_on,0,0,3,,,,,,,,,2,,,61,62
165150,note_on,0,0,3,,,,,,,,,2,,,56,62
165150,note_on,120,0,3,,,,,,,,,2,,,49,0
165162,note_on,0,0,3,,,,,,,,,2,,,61,0
165162,note_on,0,0,3,,,,,,,,,2,,,56,0
165162,note_on,12,0,3,,,,,,,,,2,,,65,0
165270,note_on,108,0,3,,,,,,,,,2,,,56,62
165270,note_on,0,0,1,,,,,,,,,0,,,80,101
165270,note_on,240,0,1,,,,,,,,,0,,,85,0
165270,note_on,0,0,2,,,,,,,,,1,,,73,80
165270,note_on,0,0,2,,,,,,,,,1,,,73,0
165270,note_on,0,0,2,,,,,,,,,1,,,77,88
165270,note_on,0,0,3,,,,,,,,,2,,,61,62
165270,note_on,0,0,3,,,,,,,,,2,,,65,62
165270,note_on,240,0,2,,,,,,,,,1,,,77,0
165282,note_on,12,0,3,,,,,,,,,2,,,65,0
165282,note_on,0,0,3,,,,,,,,,2,,,61,0
165282,note_on,0,0,3,,,,,,,,,2,,,56,0
165390,note_on,108,0,3,,,,,,,,,2,,,49,62
165510,note_on,240,0,1,,,,,,,,,0,,,80,0
165510,note_on,0,0,2,,,,,,,,,1,,,80,62
165510,note_on,120,0,3,,,,,,,,,2,,,49,0
165510,note_on,0,0,3,,,,,,,,,2,,,61,62
165510,note_on,0,0,3,,,,,,,,,2,,,65,62
165510,note_on,0,0,2,,,,,,,,,1,,,73,0
165510,note_on,240,0,2,,,,,,,,,1,,,77,0
165510,note_on,0,0,1,,,,,,,,,0,,,73,75
165510,note_on,0,0,3,,,,,,,,,2,,,56,62
165522,note_on,12,0,3,,,,,,,,,2,,,65,0
165522,note_on,0,0,3,,,,,,,,,2,,,61,0
165522,note_on,0,0,3,,,,,,,,,2,,,56,0
165570,note_on,60,0,1,,,,,,,,,0,,,73,0
165570,note_on,0,0,1,,,,,,,,,0,,,77,75
165630,note_on,60,0,1,,,,,,,,,0,,,77,0
165630,note_on,108,0,3,,,,,,,,,2,,,56,62
165630,note_on,0,0,3,,,,,,,,,2,,,61,62
165630,note_on,0,0,3,,,,,,,,,2,,,65,62
165630,note_on,0,0,1,,,,,,,,,0,,,75,75
165642,note_on,12,0,3,,,,,,,,,2,,,65,0
165642,note_on,0,0,3,,,,,,,,,2,,,61,0
165642,note_on,0,0,3,,,,,,,,,2,,,56,0
165690,note_on,0,0,1,,,,,,,,,0,,,73,75
165690,note_on,60,0,1,,,,,,,,,0,,,75,0
165750,note_on,0,0,1,,,,,,,,,0,,,80,75
165750,note_on,60,0,1,,,,,,,,,0,,,73,0
165750,note_on,240,0,2,,,,,,,,,1,,,80,0
165750,note_on,0,0,2,,,,,,,,,1,,,78,62
165750,note_on,108,0,3,,,,,,,,,2,,,44,62
165750,note_on,0,0,2,,,,,,,,,1,,,73,62
165870,note_on,0,0,3,,,,,,,,,2,,,56,62
165870,note_on,120,0,3,,,,,,,,,2,,,44,0
165870,note_on,0,0,3,,,,,,,,,2,,,63,62
165870,note_on,0,0,3,,,,,,,,,2,,,66,62
165882,note_on,0,0,3,,,,,,,,,2,,,63,0
165882,note_on,12,0,3,,,,,,,,,2,,,66,0
165882,note_on,0,0,3,,,,,,,,,2,,,56,0
165990,note_on,0,0,3,,,,,,,,,2,,,66,62
165990,note_on,0,0,3,,,,,,,,,2,,,63,62
165990,note_on,0,0,1,,,,,,,,,0,,,80,101
165990,note_on,240,0,2,,,,,,,,,1,,,78,0
165990,note_on,0,0,2,,,,,,,,,1,,,73,0
165990,note_on,0,0,2,,,,,,,,,1,,,72,80
165990,note_on,0,0,2,,,,,,,,,1,,,78,88
165990,note_on,240,0,1,,,,,,,,,0,,,80,0
165990,note_on,108,0,3,,,,,,,,,2,,,56,62
166002,note_on,12,0,3,,,,,,,,,2,,,66,0
166002,note_on,0,0,3,,,,,,,,,2,,,63,0
166002,note_on,0,0,3,,,,,,,,,2,,,56,0
166110,note_on,108,0,3,,,,,,,,,2,,,44,62
166230,note_on,0,0,2,,,,,,,,,1,,,73,80
166230,note_on,0,0,2,,,,,,,,,1,,,78,88
166230,note_on,240,0,1,,,,,,,,,0,,,80,0
166230,note_on,0,0,1,,,,,,,,,0,,,82,101
166230,note_on,0,0,3,,,,,,,,,2,,,66,62
166230,note_on,0,0,3,,,,,,,,,2,,,63,62
166230,note_on,0,0,3,,,,,,,,,2,,,56,62
166230,note_on,120,0,3,,,,,,,,,2,,,44,0
166230,note_on,240,0,2,,,,,,,,,1,,,78,0
166230,note_on,0,0,2,,,,,,,,,1,,,72,0
166242,note_on,12,0,1,,,,,,,,,0,,,82,0
166242,note_on,12,0,2,,,,,,,,,1,,,78,0
166242,note_on,0,0,2,,,,,,,,,1,,,73,0
166242,note_on,12,0,3,,,,,,,,,2,,,66,0
166242,note_on,0,0,3,,,,,,,,,2,,,63,0
166242,note_on,0,0,3,,,,,,,,,2,,,56,0
166350,note_on,108,0,3,,,,,,,,,2,,,56,62
166350,note_on,108,0,1,,,,,,,,,0,,,84,101
166350,note_on,0,0,3,,,,,,,,,2,,,66,62
166350,note_on,0,0,3,,,,,,,,,2,,,63,62
166350,note_on,0,0,2,,,,,,,,,1,,,78,88
166350,note_on,108,0,2,,,,,,,,,1,,,75,80
166362,note_on,0,0,3,,,,,,,,,2,,,63,0
166362,note_on,0,0,3,,,,,,,,,2,,,56,0
166362,note_on,0,0,2,,,,,,,,,1,,,75,0
166362,note_on,12,0,2,,,,,,,,,1,,,78,0
166362,note_on,12,0,1,,,,,,,,,0,,,84,0
166362,note_on,12,0,3,,,,,,,,,2,,,66,0
166470,note_on,108,0,1,,,,,,,,,0,,,85,75
166470,note_on,108,0,3,,,,,,,,,2,,,49,62
166470,note_on,108,0,2,,,,,,,,,1,,,73,62
166470,note_on,0,0,2,,,,,,,,,1,,,77,62
166590,note_on,120,0,3,,,,,,,,,2,,,49,0
166590,note_on,0,0,3,,,,,,,,,2,,,56,62
166590,note_on,0,0,3,,,,,,,,,2,,,61,62
166590,note_on,0,0,3,,,,,,,,,2,,,65,62
166602,note_on,12,0,3,,,,,,,,,2,,,65,0
166602,note_on,0,0,3,,,,,,,,,2,,,61,0
166602,note_on,0,0,3,,,,,,,,,2,,,56,0
166710,note_on,240,0,2,,,,,,,,,1,,,77,0
166710,note_on,0,0,2,,,,,,,,,1,,,73,0
166710,note_on,0,0,2,,,,,,,,,1,,,73,80
166710,note_on,0,0,2,,,,,,,,,1,,,77,88
166710,note_on,0,0,1,,,,,,,,,0,,,80,101
166710,note_on,240,0,1,,,,,,,,,0,,,85,0
166710,note_on,108,0,3,,,,,,,,,2,,,56,62
166710,note_on,0,0,3,,,,,,,,,2,,,61,62
166710,note_on,0,0,3,,,,,,,,,2,,,65,62
166722,note_on,0,0,3,,,,,,,,,2,,,56,0
166722,note_on,12,0,3,,,,,,,,,2,,,65,0
166722,note_on,0,0,3,,,,,,,,,2,,,61,0
166830,note_on,108,0,3,,,,,,,,,2,,,49,62
166950,note_on,0,0,1,,,,,,,,,0,,,80,49
166950,note_on,0,0,1,,,,,,,,,0,,,85,49
166950,note_on,0,0,3,,,,,,,,,2,,,56,36
166950,note_on,240,0,2,,,,,,,,,1,,,77,0
166950,note_on,0,0,2,,,,,,,,,1,,,73,0
166950,note_on,120,0,3,,,,,,,,,2,,,49,0
166950,note_on,0,0,1,,,,,,,,,0,,,73,49
166950,note_on,0,0,3,,,,,,,,,2,,,61,36
166950,note_on,240,0,1,,,,,,,,,0,,,80,0
166950,note_on,0,0,3,,,,,,,,,2,,,65,36
166962,note_on,12,0,3,,,,,,,,,2,,,65,0
166962,note_on,0,0,3,,,,,,,,,2,,,56,0
166962,note_on,0,0,3,,,,,,,,,2,,,61,0
167070,note_on,0,0,3,,,,,,,,,2,,,61,36
167070,note_on,120,0,1,,,,,,,,,0,,,85,0
167070,note_on,0,0,1,,,,,,,,,0,,,80,0
167070,note_on,0,0,1,,,,,,,,,0,,,73,0
167070,note_on,0,0,1,,,,,,,,,0,,,73,49
167070,note_on,0,0,1,,,,,,,,,0,,,80,49
167070,note_on,0,0,1,,,,,,,,,0,,,85,49
167070,note_on,108,0,3,,,,,,,,,2,,,56,36
167070,note_on,0,0,3,,,,,,,,,2,,,65,36
167082,note_on,12,0,3,,,,,,,,,2,,,65,0
167082,note_on,0,0,3,,,,,,,,,2,,,61,0
167082,note_on,0,0,3,,,,,,,,,2,,,56,0
167190,note_on,108,0,3,,,,,,,,,2,,,45,36
167190,note_on,0,0,1,,,,,,,,,0,,,85,49
167190,note_on,0,0,1,,,,,,,,,0,,,80,0
167190,note_on,0,0,1,,,,,,,,,0,,,73,49
167190,note_on,0,0,1,,,,,,,,,0,,,73,0
167190,note_on,120,0,1,,,,,,,,,0,,,85,0
167190,note_on,0,0,1,,,,,,,,,0,,,79,49
167310,note_on,120,0,3,,,,,,,,,2,,,45,0
167310,note_on,0,0,3,,,,,,,,,2,,,64,36
167310,note_on,0,0,3,,,,,,,,,2,,,57,36
167322,note_on,12,0,3,,,,,,,,,2,,,64,0
167322,note_on,0,0,3,,,,,,,,,2,,,57,0
167430,note_on,0,0,1,,,,,,,,,0,,,85,49
167430,note_on,0,0,1,,,,,,,,,0,,,79,49
167430,note_on,0,0,3,,,,,,,,,2,,,64,36
167430,note_on,0,0,1,,,,,,,,,0,,,73,49
167430,note_on,0,0,1,,,,,,,,,0,,,73,0
167430,note_on,240,0,1,,,,,,,,,0,,,85,0
167430,note_on,108,0,3,,,,,,,,,2,,,57,36
167430,note_on,0,0,1,,,,,,,,,0,,,79,0
167442,note_on,12,0,3,,,,,,,,,2,,,64,0
167442,note_on,0,0,3,,,,,,,,,2,,,57,0
167550,note_on,108,0,3,,,,,,,,,2,,,45,36
167670,note_on,0,0,1,,,,,,,,,0,,,79,0
167670,note_on,0,0,1,,,,,,,,,0,,,73,0
167670,note_on,720,0,2,,,,,,,,,1,,,85,62
167670,note_on,240,0,1,,,,,,,,,0,,,85,0
167670,note_on,0,0,1,,,,,,,,,0,,,79,49
167670,note_on,0,0,3,,,,,,,,,2,,,64,36
167670,note_on,0,0,3,,,,,,,,,2,,,57,36
167670,note_on,120,0,3,,,,,,,,,2,,,45,0
167682,note_on,0,0,3,,,,,,,,,2,,,57,0
167682,note_on,12,0,3,,,,,,,,,2,,,64,0
167730,note_on,60,0,1,,,,,,,,,0,,,79,0
167730,note_on,0,0,1,,,,,,,,,0,,,83,49
167790,note_on,108,0,3,,,,,,,,,2,,,57,36
167790,note_on,0,0,3,,,,,,,,,2,,,64,36
167790,note_on,0,0,1,,,,,,,,,0,,,81,49
167790,note_on,60,0,1,,,,,,,,,0,,,83,0
167802,note_on,12,0,3,,,,,,,,,2,,,64,0
167802,note_on,0,0,3,,,,,,,,,2,,,57,0
167850,note_on,0,0,1,,,,,,,,,0,,,79,49
167850,note_on,60,0,1,,,,,,,,,0,,,81,0
167910,note_on,108,0,3,,,,,,,,,2,,,50,36
167910,note_on,240,0,2,,,,,,,,,1,,,85,0
167910,note_on,0,0,1,,,,,,,,,0,,,78,49
167910,note_on,60,0,1,,,,,,,,,0,,,79,0
167910,note_on,0,0,1,,,,,,,,,0,,,90,49
167910,note_on,0,0,1,,,,,,,,,0,,,85,49
168030,note_on,0,0,3,,,,,,,,,2,,,66,36
168030,note_on,0,0,3,,,,,,,,,2,,,62,36
168030,note_on,120,0,3,,,,,,,,,2,,,50,0
168042,note_on,0,0,3,,,,,,,,,2,,,62,0
168042,note_on,12,0,3,,,,,,,,,2,,,66,0
168150,note_on,0,0,1,,,,,,,,,0,,,85,0
168150,note_on,0,0,1,,,,,,,,,0,,,90,49
168150,note_on,0,0,1,,,,,,,,,0,,,78,49
168150,note_on,0,0,1,,,,,,,,,0,,,78,0
168150,note_on,0,0,1,,,,,,,,,0,,,83,49
168150,note_on,240,0,1,,,,,,,,,0,,,90,0
168150,note_on,108,0,3,,,,,,,,,2,,,62,36
168150,note_on,0,0,3,,,,,,,,,2,,,66,36
168162,note_on,0,0,3,,,,,,,,,2,,,62,0
168162,note_on,12,0,3,,,,,,,,,2,,,66,0
168270,note_on,108,0,3,,,,,,,,,2,,,50,36
168390,note_on,240,0,1,,,,,,,,,0,,,90,0
168390,note_on,480,0,2,,,,,,,,,1,,,83,62
168390,note_on,0,0,1,,,,,,,,,0,,,78,0
168390,note_on,0,0,1,,,,,,,,,0,,,90,49
168390,note_on,0,0,1,,,,,,,,,0,,,83,0
168390,note_on,0,0,3,,,,,,,,,2,,,66,36
168390,note_on,0,0,3,,,,,,,,,2,,,62,36
168390,note_on,120,0,3,,,,,,,,,2,,,50,0
168402,note_on,12,0,3,,,,,,,,,2,,,66,0
168402,note_on,0,0,3,,,,,,,,,2,,,62,0
168450,note_on,0,0,1,,,,,,,,,0,,,93,49
168450,note_on,60,0,1,,,,,,,,,0,,,90,0
168510,note_on,0,0,1,,,,,,,,,0,,,92,49
168510,note_on,60,0,1,,,,,,,,,0,,,93,0
168510,note_on,108,0,3,,,,,,,,,2,,,62,36
168510,note_on,0,0,3,,,,,,,,,2,,,66,36
168522,note_on,0,0,3,,,,,,,,,2,,,62,0
168522,note_on,12,0,3,,,,,,,,,2,,,66,0
168570,note_on,60,0,1,,,,,,,,,0,,,92,0
168570,note_on,0,0,1,,,,,,,,,0,,,90,49
168630,note_on,0,0,2,,,,,,,,,1,,,88,62
168630,note_on,108,0,3,,,,,,,,,2,,,52,36
168630,note_on,240,0,2,,,,,,,,,1,,,83,0
168630,note_on,60,0,1,,,,,,,,,0,,,90,0
168630,note_on,0,0,1,,,,,,,,,0,,,83,49
168750,note_on,0,0,3,,,,,,,,,2,,,64,36
168750,note_on,0,0,3,,,,,,,,,2,,,61,36
168750,note_on,120,0,3,,,,,,,,,2,,,52,0
168762,note_on,12,0,3,,,,,,,,,2,,,64,0
168762,note_on,0,0,3,,,,,,,,,2,,,61,0
168870,note_on,0,0,3,,,,,,,,,2,,,64,36
168870,note_on,240,0,1,,,,,,,,,0,,,83,0
168870,note_on,0,0,1,,,,,,,,,0,,,81,49
168870,note_on,0,0,2,,,,,,,,,1,,,88,62
168870,note_on,240,0,2,,,,,,,,,1,,,88,0
168870,note_on,108,0,3,,,,,,,,,2,,,61,36
168882,note_on,12,0,3,,,,,,,,,2,,,64,0
168882,note_on,0,0,3,,,,,,,,,2,,,61,0
168990,note_on,108,0,3,,,,,,,,,2,,,52,36
169110,note_on,0,0,3,,,,,,,,,2,,,64,36
169110,note_on,120,0,3,,,,,,,,,2,,,52,0
169110,note_on,0,0,3,,,,,,,,,2,,,61,36
169110,note_on,0,0,2,,,,,,,,,1,,,76,62
169110,note_on,0,0,1,,,,,,,,,0,,,69,49
169110,note_on,240,0,1,,,,,,,,,0,,,81,0
169110,note_on,240,0,2,,,,,,,,,1,,,88,0
169122,note_on,0,0,3,,,,,,,,,2,,,61,0
169122,note_on,12,0,3,,,,,,,,,2,,,64,0
169170,note_on,60,0,1,,,,,,,,,0,,,69,0
169170,note_on,0,0,1,,,,,,,,,0,,,73,49
169230,note_on,60,0,1,,,,,,,,,0,,,73,0
169230,note_on,0,0,3,,,,,,,,,2,,,64,36
169230,note_on,0,0,1,,,,,,,,,0,,,71,49
169230,note_on,108,0,3,,,,,,,,,2,,,61,36
169242,note_on,0,0,3,,,,,,,,,2,,,61,0
169242,note_on,12,0,3,,,,,,,,,2,,,64,0
169290,note_on,60,0,1,,,,,,,,,0,,,71,0
169290,note_on,0,0,1,,,,,,,,,0,,,69,49
169350,note_on,60,0,1,,,,,,,,,0,,,69,0
169350,note_on,0,0,1,,,,,,,,,0,,,78,49
169350,note_on,0,0,2,,,,,,,,,1,,,69,62
169350,note_on,240,0,2,,,,,,,,,1,,,76,0
169350,note_on,108,0,3,,,,,,,,,2,,,52,36
169470,note_on,0,0,3,,,,,,,,,2,,,64,36
169470,note_on,0,0,3,,,,,,,,,2,,,62,36
169470,note_on,120,0,3,,,,,,,,,2,,,52,0
169482,note_on,0,0,3,,,,,,,,,2,,,62,0
169482,note_on,12,0,3,,,,,,,,,2,,,64,0
169590,note_on,108,0,3,,,,,,,,,2,,,62,36
169590,note_on,0,0,3,,,,,,,,,2,,,64,36
169590,note_on,240,0,2,,,,,,,,,1,,,69,0
169590,note_on,0,0,2,,,,,,,,,1,,,68,62
169590,note_on,0,0,1,,,,,,,,,0,,,76,49
169590,note_on,240,0,1,,,,,,,,,0,,,78,0
169602,note_on,12,0,3,,,,,,,,,2,,,64,0
169602,note_on,0,0,3,,,,,,,,,2,,,62,0
169710,note_on,108,0,3,,,,,,,,,2,,,52,36
169830,note_on,120,0,3,,,,,,,,,2,,,52,0
169830,note_on,0,0,3,,,,,,,,,2,,,62,36
169830,note_on,0,0,3,,,,,,,,,2,,,64,36
169830,note_on,0,0,2,,,,,,,,,1,,,69,88
169830,note_on,240,0,1,,,,,,,,,0,,,76,0
169830,note_on,240,0,2,,,,,,,,,1,,,68,0
169830,note_on,0,0,1,,,,,,,,,0,,,78,75
169842,note_on,12,0,1,,,,,,,,,0,,,78,0
169842,note_on,0,0,3,,,,,,,,,2,,,62,0
169842,note_on,12,0,3,,,,,,,,,2,,,64,0
169842,note_on,12,0,2,,,,,,,,,1,,,69,0
169950,note_on,108,0,3,,,,,,,,,2,,,62,36
169950,note_on,0,0,3,,,,,,,,,2,,,64,36
169950,note_on,108,0,1,,,,,,,,,0,,,80,75
169950,note_on,108,0,2,,,,,,,,,1,,,71,88
169962,note_on,12,0,1,,,,,,,,,0,,,80,0
169962,note_on,0,0,3,,,,,,,,,2,,,62,0
169962,note_on,12,0,3,,,,,,,,,2,,,64,0
169962,note_on,12,0,2,,,,,,,,,1,,,71,0
170070,note_on,108,0,1,,,,,,,,,0,,,69,49
170070,note_on,108,0,3,,,,,,,,,2,,,45,36
170070,note_on,0,0,1,,,,,,,,,0,,,81,49
170070,note_on,0,0,1,,,,,,,,,0,,,73,49
170190,note_on,120,0,3,,,,,,,,,2,,,45,0
170190,note_on,0,0,3,,,,,,,,,2,,,61,36
170190,note_on,0,0,3,,,,,,,,,2,,,64,36
170202,note_on,12,0,3,,,,,,,,,2,,,64,0
170202,note_on,0,0,3,,,,,,,,,2,,,61,0
170310,note_on,108,0,3,,,,,,,,,2,,,61,36
170310,note_on,0,0,3,,,,,,,,,2,,,64,36
170322,note_on,12,0,3,,,,,,,,,2,,,64,0
170322,note_on,0,0,3,,,,,,,,,2,,,61,0
170430,note_on,0,0,3,,,,,,,,,2,,,61,36
170430,note_on,108,0,3,,,,,,,,,2,,,57,36
170430,time_signature,20520,1,0,2,4,24,8,,,,,,,,,
170550,note_on,120,0,3,,,,,,,,,2,,,61,0
170550,note_on,0,0,3,,,,,,,,,2,,,57,0
170550,note_on,480,0,1,,,,,,,,,0,,,81,0
170550,note_on,0,0,1,,,,,,,,,0,,,69,0
170550,note_on,0,0,1,,,,,,,,,0,,,73,0
170670,note_on,120,0,1,,,,,,,,,0,,,69,49
170670,time_signature,240,1,0,1,4,24,8,,,,,,,,,
170670,key_signature,0,1,0,,,,,D,,,,,,,,
170790,note_on,120,0,1,,,,,,,,,0,,,69,0
170790,note_on,240,0,3,,,,,,,,,2,,,50,36
170790,time_signature,120,1,0,3,4,24,8,,,,,,,,,
170790,note_on,0,0,1,,,,,,,,,0,,,66,49
170790,note_on,0,0,1,,,,,,,,,0,,,74,49
170850,note_on,0,0,1,,,,,,,,,0,,,66,0
170850,note_on,60,0,1,,,,,,,,,0,,,74,0
170910,note_on,60,0,1,,,,,,,,,0,,,69,49
170910,note_on,120,0,3,,,,,,,,,2,,,50,0
170910,note_on,0,0,3,,,,,,,,,2,,,54,36
170910,note_on,0,0,3,,,,,,,,,2,,,62,36
170922,note_on,12,0,3,,,,,,,,,2,,,62,0
170922,note_on,0,0,3,,,,,,,,,2,,,54,0
170949,note_on,39,0,1,,,,,,,,,0,,,71,49
170950,note_on,1,0,1,,,,,,,,,0,,,69,0
170989,note_on,39,0,1,,,,,,,,,0,,,71,0
170990,note_on,1,0,1,,,,,,,,,0,,,69,49
171030,note_on,0,0,3,,,,,,,,,2,,,62,36
171030,note_on,108,0,3,,,,,,,,,2,,,54,36
171030,note_on,40,0,1,,,,,,,,,0,,,69,0
171030,note_on,0,0,1,,,,,,,,,0,,,78,49
171030,note_on,0,0,1,,,,,,,,,0,,,74,49
171042,note_on,12,0,3,,,,,,,,,2,,,62,0
171042,note_on,0,0,3,,,,,,,,,2,,,54,0
171150,note_on,108,0,3,,,,,,,,,2,,,45,36
171150,note_on,0,0,1,,,,,,,,,0,,,76,49
171150,note_on,0,0,1,,,,,,,,,0,,,73,49
171150,note_on,0,0,1,,,,,,,,,0,,,74,0
171150,note_on,120,0,1,,,,,,,,,0,,,78,0
171210,note_on,60,0,1,,,,,,,,,0,,,76,0
171210,note_on,0,0,1,,,,,,,,,0,,,73,0
171270,note_on,0,0,3,,,,,,,,,2,,,57,36
171270,note_on,120,0,3,,,,,,,,,2,,,45,0
171270,note_on,60,0,1,,,,,,,,,0,,,69,49
171270,note_on,0,0,3,,,,,,,,,2,,,64,36
171282,note_on,0,0,3,,,,,,,,,2,,,57,0
171282,note_on,12,0,3,,,,,,,,,2,,,64,0
171309,note_on,39,0,1,,,,,,,,,0,,,71,49
171310,note_on,1,0,1,,,,,,,,,0,,,69,0
171349,note_on,39,0,1,,,,,,,,,0,,,71,0
171350,note_on,1,0,1,,,,,,,,,0,,,69,49
171390,note_on,108,0,3,,,,,,,,,2,,,57,36
171390,note_on,0,0,3,,,,,,,,,2,,,64,36
171390,note_on,40,0,1,,,,,,,,,0,,,69,0
171390,note_on,0,0,1,,,,,,,,,0,,,76,49
171390,note_on,0,0,1,,,,,,,,,0,,,79,49
171402,note_on,12,0,3,,,,,,,,,2,,,64,0
171402,note_on,0,0,3,,,,,,,,,2,,,57,0
171510,note_on,0,0,1,,,,,,,,,0,,,78,62
171510,note_on,0,0,1,,,,,,,,,0,,,74,62
171510,note_on,120,0,1,,,,,,,,,0,,,79,0
171510,note_on,108,0,3,,,,,,,,,2,,,50,49
171510,note_on,0,0,1,,,,,,,,,0,,,76,0
171570,note_on,0,0,1,,,,,,,,,0,,,76,62
171570,note_on,60,0,1,,,,,,,,,0,,,78,0
171570,note_on,0,0,1,,,,,,,,,0,,,74,0
171570,note_on,0,0,1,,,,,,,,,0,,,79,62
171630,note_on,60,0,1,,,,,,,,,0,,,79,0
171630,note_on,0,0,1,,,,,,,,,0,,,78,75
171630,note_on,0,0,3,,,,,,,,,2,,,62,62
171630,note_on,0,0,3,,,,,,,,,2,,,54,62
171630,note_on,120,0,3,,,,,,,,,2,,,50,0
171630,note_on,0,0,1,,,,,,,,,0,,,76,0
171630,note_on,0,0,1,,,,,,,,,0,,,81,75
171642,note_on,0,0,3,,,,,,,,,2,,,54,0
171642,note_on,12,0,3,,,,,,,,,2,,,62,0
171690,note_on,0,0,1,,,,,,,,,0,,,78,0
171690,note_on,0,0,1,,,,,,,,,0,,,79,75
171690,note_on,0,0,1,,,,,,,,,0,,,83,75
171690,note_on,60,0,1,,,,,,,,,0,,,81,0
171750,note_on,0,0,1,,,,,,,,,0,,,85,88
171750,note_on,0,0,1,,,,,,,,,0,,,81,88
171750,note_on,0,0,1,,,,,,,,,0,,,79,0
171750,note_on,60,0,1,,,,,,,,,0,,,83,0
171750,note_on,108,0,3,,,,,,,,,2,,,54,75
171750,note_on,0,0,3,,,,,,,,,2,,,62,75
171762,note_on,12,0,3,,,,,,,,,2,,,62,0
171762,note_on,0,0,3,,,,,,,,,2,,,54,0
171810,note_on,0,0,1,,,,,,,,,0,,,86,88
171810,note_on,0,0,1,,,,,,,,,0,,,83,88
171810,note_on,0,0,1,,,,,,,,,0,,,81,0
171810,note_on,60,0,1,,,,,,,,,0,,,85,0
171870,note_on,0,0,1,,,,,,,,,0,,,81,88
171870,note_on,0,0,1,,,,,,,,,0,,,85,88
171870,note_on,0,0,1,,,,,,,,,0,,,83,0
171870,note_on,60,0,1,,,,,,,,,0,,,86,0
171870,note_on,108,0,3,,,,,,,,,2,,,45,75
171990,note_on,0,0,1,,,,,,,,,0,,,81,117
171990,note_on,0,0,1,,,,,,,,,0,,,85,122
171990,note_on,0,0,1,,,,,,,,,0,,,93,127
171990,note_on,120,0,1,,,,,,,,,0,,,85,0
171990,note_on,0,0,3,,,,,,,,,2,,,57,88
171990,note_on,0,0,3,,,,,,,,,2,,,64,88
171990,note_on,120,0,3,,,,,,,,,2,,,45,0
171990,note_on,0,0,1,,,,,,,,,0,,,81,0
172002,note_on,12,0,1,,,,,,,,,0,,,93,0
172002,note_on,0,0,1,,,,,,,,,0,,,85,0
172002,note_on,0,0,3,,,,,,,,,2,,,57,0
172002,note_on,12,0,3,,,,,,,,,2,,,64,0
172002,note_on,0,0,1,,,,,,,,,0,,,81,0
172110,note_on,0,0,1,,,,,,,,,0,,,85,122
172110,note_on,0,0,1,,,,,,,,,0,,,93,127
172110,note_on,108,0,1,,,,,,,,,0,,,81,117
172110,note_on,108,0,3,,,,,,,,,2,,,57,88
172110,note_on,0,0,3,,,,,,,,,2,,,64,88
172122,note_on,12,0,3,,,,,,,,,2,,,64,0
172122,note_on,0,0,1,,,,,,,,,0,,,85,0
172122,note_on,12,0,1,,,,,,,,,0,,,93,0
172122,note_on,0,0,1,,,,,,,,,0,,,81,0
172122,note_on,0,0,3,,,,,,,,,2,,,57,0
172230,note_on,108,0,3,,,,,,,,,2,,,50,36
172230,note_on,0,0,1,,,,,,,,,0,,,74,49
172230,note_on,108,0,1,,,,,,,,,0,,,66,49
172290,note_on,0,0,1,,,,,,,,,0,,,66,0
172290,note_on,60,0,1,,,,,,,,,0,,,74,0
172350,note_on,60,0,1,,,,,,,,,0,,,69,49
172350,note_on,0,0,3,,,,,,,,,2,,,62,36
172350,note_on,120,0,3,,,,,,,,,2,,,50,0
172350,note_on,0,0,3,,,,,,,,,2,,,54,36
172362,note_on,12,0,3,,,,,,,,,2,,,62,0
172362,note_on,0,0,3,,,,,,,,,2,,,54,0
172389,note_on,39,0,1,,,,,,,,,0,,,71,49
172390,note_on,1,0,1,,,,,,,,,0,,,69,0
172429,note_on,39,0,1,,,,,,,,,0,,,71,0
172430,note_on,1,0,1,,,,,,,,,0,,,69,49
172470,note_on,40,0,1,,,,,,,,,0,,,69,0
172470,note_on,0,0,1,,,,,,,,,0,,,74,49
172470,note_on,0,0,1,,,,,,,,,0,,,78,49
172470,note_on,108,0,3,,,,,,,,,2,,,54,36
172470,note_on,0,0,3,,,,,,,,,2,,,62,36
172482,note_on,0,0,3,,,,,,,,,2,,,54,0
172482,note_on,12,0,3,,,,,,,,,2,,,62,0
172590,note_on,108,0,3,,,,,,,,,2,,,45,36
172590,note_on,0,0,1,,,,,,,,,0,,,74,0
172590,note_on,0,0,1,,,,,,,,,0,,,76,49
172590,note_on,0,0,1,,,,,,,,,0,,,73,49
172590,note_on,120,0,1,,,,,,,,,0,,,78,0
172650,note_on,60,0,1,,,,,,,,,0,,,76,0
172650,note_on,0,0,1,,,,,,,,,0,,,73,0
172710,note_on,60,0,1,,,,,,,,,0,,,69,49
172710,note_on,120,0,3,,,,,,,,,2,,,45,0
172710,note_on,0,0,3,,,,,,,,,2,,,57,36
172710,note_on,0,0,3,,,,,,,,,2,,,64,36
172722,note_on,12,0,3,,,,,,,,,2,,,64,0
172722,note_on,0,0,3,,,,,,,,,2,,,57,0
172749,note_on,39,0,1,,,,,,,,,0,,,71,49
172750,note_on,1,0,1,,,,,,,,,0,,,69,0
172789,note_on,39,0,1,,,,,,,,,0,,,71,0
172790,note_on,1,0,1,,,,,,,,,0,,,69,49
172830,note_on,0,0,1,,,,,,,,,0,,,79,49
172830,note_on,0,0,3,,,,,,,,,2,,,64,36
172830,note_on,40,0,1,,,,,,,,,0,,,69,0
172830,note_on,108,0,3,,,,,,,,,2,,,57,36
172830,note_on,0,0,1,,,,,,,,,0,,,76,49
172842,note_on,0,0,3,,,,,,,,,2,,,57,0
172842,note_on,12,0,3,,,,,,,,,2,,,64,0
172950,note_on,120,0,1,,,,,,,,,0,,,79,0
172950,note_on,0,0,1,,,,,,,,,0,,,74,49
172950,note_on,0,0,1,,,,,,,,,0,,,78,49
172950,note_on,0,0,1,,,,,,,,,0,,,76,0
172950,note_on,108,0,3,,,,,,,,,2,,,50,36
173010,note_on,0,0,1,,,,,,,,,0,,,74,0
173010,note_on,0,0,1,,,,,,,,,0,,,79,49
173010,note_on,0,0,1,,,,,,,,,0,,,76,49
173010,note_on,60,0,1,,,,,,,,,0,,,78,0
173070,note_on,120,0,3,,,,,,,,,2,,,50,0
173070,note_on,0,0,3,,,,,,,,,2,,,54,36
173070,note_on,0,0,3,,,,,,,,,2,,,62,36
173070,note_on,60,0,1,,,,,,,,,0,,,79,0
173070,note_on,0,0,1,,,,,,,,,0,,,76,0
173070,note_on,0,0,1,,,,,,,,,0,,,78,49
173070,note_on,0,0,1,,,,,,,,,0,,,81,49
173130,note_on,60,0,1,,,,,,,,,0,,,81,0
173130,note_on,0,0,1,,,,,,,,,0,,,78,0
173130,note_on,0,0,1,,,,,,,,,0,,,79,49
173130,note_on,0,0,1,,,,,,,,,0,,,83,49
173190,note_on,0,0,1,,,,,,,,,0,,,81,49
173190,note_on,0,0,3,,,,,,,,,2,,,57,36
173190,note_on,0,0,3,,,,,,,,,2,,,54,0
173190,note_on,120,0,3,,,,,,,,,2,,,62,0
173190,note_on,60,0,1,,,,,,,,,0,,,83,0
173190,note_on,0,0,1,,,,,,,,,0,,,79,0
173190,note_on,0,0,1,,,,,,,,,0,,,78,49
173190,note_on,0,0,3,,,,,,,,,2,,,64,36
173280,note_on,90,0,1,,,,,,,,,0,,,81,0
173280,note_on,0,0,1,,,,,,,,,0,,,78,0
173280,note_on,0,0,1,,,,,,,,,0,,,73,49
173310,note_on,30,0,1,,,,,,,,,0,,,73,0
173310,time_signature,2520,1,0,2,4,24,8,,,,,,,,,
173310,note_on,0,0,3,,,,,,,,,2,,,50,36
173310,note_on,0,0,3,,,,,,,,,2,,,57,0
173310,note_on,120,0,3,,,,,,,,,2,,,64,0
173310,note_on,0,0,1,,,,,,,,,0,,,66,49
173310,note_on,0,0,1,,,,,,,,,0,,,74,49
173430,note_on,0,0,3,,,,,,,,,2,,,62,36
173430,note_on,120,0,3,,,,,,,,,2,,,50,0
173550,note_on,0,0,1,,,,,,,,,0,,,69,49
173550,time_signature,240,1,0,1,4,24,8,,,,,,,,,
173550,note_on,240,0,1,,,,,,,,,0,,,74,0
173550,note_on,0,0,1,,,,,,,,,0,,,66,0
173550,note_on,120,0,3,,,,,,,,,2,,,62,0
173670,time_signature,120,1,0,3,4,24,8,,,,,,,,,
173670,note_on,120,0,1,,,,,,,,,0,,,69,0
173670,note_on,0,0,1,,,,,,,,,0,,,66,49
173670,note_on,0,0,1,,,,,,,,,0,,,74,49
173670,note_on,120,0,3,,,,,,,,,2,,,50,36
173730,note_on,0,0,1,,,,,,,,,0,,,66,0
173730,note_on,60,0,1,,,,,,,,,0,,,74,0
173790,note_on,60,0,1,,,,,,,,,0,,,69,49
173790,note_on,120,0,3,,,,,,,,,2,,,50,0
173790,note_on,0,0,3,,,,,,,,,2,,,54,36
173790,note_on,0,0,3,,,,,,,,,2,,,62,36
173802,note_on,0,0,3,,,,,,,,,2,,,54,0
173802,note_on,12,0,3,,,,,,,,,2,,,62,0
173829,note_on,39,0,1,,,,,,,,,0,,,71,49
173830,note_on,1,0,1,,,,,,,,,0,,,69,0
173869,note_on,39,0,1,,,,,,,,,0,,,71,0
173870,note_on,1,0,1,,,,,,,,,0,,,69,49
173910,note_on,0,0,3,,,,,,,,,2,,,62,36
173910,note_on,40,0,1,,,,,,,,,0,,,69,0
173910,note_on,0,0,1,,,,,,,,,0,,,74,49
173910,note_on,0,0,1,,,,,,,,,0,,,78,49
173910,note_on,108,0,3,,,,,,,,,2,,,54,36
173922,note_on,12,0,3,,,,,,,,,2,,,62,0
173922,note_on,0,0,3,,,,,,,,,2,,,54,0
174030,note_on,0,0,1,,,,,,,,,0,,,74,0
174030,note_on,0,0,1,,,,,,,,,0,,,73,49
174030,note_on,0,0,1,,,,,,,,,0,,,76,49
174030,note_on,108,0,3,,,,,,,,,2,,,45,36
174030,note_on,120,0,1,,,,,,,,,0,,,78,0
174090,note_on,0,0,1,,,,,,,,,0,,,73,0
174090,note_on,60,0,1,,,,,,,,,0,,,76,0
174150,note_on,60,0,1,,,,,,,,,0,,,69,49
174150,note_on,0,0,3,,,,,,,,,2,,,64,36
174150,note_on,0,0,3,,,,,,,,,2,,,57,36
174150,note_on,120,0,3,,,,,,,,,2,,,45,0
174162,note_on,0,0,3,,,,,,,,,2,,,57,0
174162,note_on,12,0,3,,,,,,,,,2,,,64,0
174189,note_on,39,0,1,,,,,,,,,0,,,71,49
174190,note_on,1,0,1,,,,,,,,,0,,,69,0
174229,note_on,39,0,1,,,,,,,,,0,,,71,0
174230,note_on,1,0,1,,,,,,,,,0,,,69,49
174270,note_on,40,0,1,,,,,,,,,0,,,69,0
174270,note_on,0,0,3,,,,,,,,,2,,,64,36
174270,note_on,0,0,1,,,,,,,,,0,,,76,49
174270,note_on,0,0,1,,,,,,,,,0,,,79,49
174270,note_on,108,0,3,,,,,,,,,2,,,57,36
174282,note_on,12,0,3,,,,,,,,,2,,,64,0
174282,note_on,0,0,3,,,,,,,,,2,,,57,0
174390,note_on,108,0,3,,,,,,,,,2,,,50,49
174390,note_on,0,0,1,,,,,,,,,0,,,78,62
174390,note_on,0,0,1,,,,,,,,,0,,,74,62
174390,note_on,0,0,1,,,,,,,,,0,,,76,0
174390,note_on,120,0,1,,,,,,,,,0,,,79,0
174450,note_on,0,0,1,,,,,,,,,0,,,79,62
174450,note_on,0,0,1,,,,,,,,,0,,,76,62
174450,note_on,0,0,1,,,,,,,,,0,,,74,0
174450,note_on,60,0,1,,,,,,,,,0,,,78,0
174510,note_on,0,0,1,,,,,,,,,0,,,76,0
174510,note_on,0,0,3,,,,,,,,,2,,,54,62
174510,note_on,0,0,1,,,,,,,,,0,,,81,75
174510,note_on,0,0,3,,,,,,,,,2,,,62,62
174510,note_on,0,0,1,,,,,,,,,0,,,78,75
174510,note_on,60,0,1,,,,,,,,,0,,,79,0
174510,note_on,120,0,3,,,,,,,,,2,,,50,0
174522,note_on,12,0,3,,,,,,,,,2,,,62,0
174522,note_on,0,0,3,,,,,,,,,2,,,54,0
174570,note_on,60,0,1,,,,,,,,,0,,,81,0
174570,note_on,0,0,1,,,,,,,,,0,,,78,0
174570,note_on,0,0,1,,,,,,,,,0,,,79,75
174570,note_on,0,0,1,,,,,,,,,0,,,83,75
174630,note_on,108,0,3,,,,,,,,,2,,,54,75
174630,note_on,60,0,1,,,,,,,,,0,,,83,0
174630,note_on,0,0,1,,,,,,,,,0,,,79,0
174630,note_on,0,0,1,,,,,,,,,0,,,81,88
174630,note_on,0,0,1,,,,,,,,,0,,,85,88
174630,note_on,0,0,3,,,,,,,,,2,,,62,75
174642,note_on,0,0,3,,,,,,,,,2,,,54,0
174642,note_on,12,0,3,,,,,,,,,2,,,62,0
174690,note_on,0,0,1,,,,,,,,,0,,,86,88
174690,note_on,0,0,1,,,,,,,,,0,,,81,0
174690,note_on,60,0,1,,,,,,,,,0,,,85,0
174690,note_on,0,0,1,,,,,,,,,0,,,83,88
174750,note_on,108,0,3,,,,,,,,,2,,,45,75
174750,note_on,0,0,1,,,,,,,,,0,,,83,0
174750,note_on,0,0,1,,,,,,,,,0,,,85,88
174750,note_on,0,0,1,,,,,,,,,0,,,81,88
174750,note_on,60,0,1,,,,,,,,,0,,,86,0
174870,note_on,0,0,1,,,,,,,,,0,,,81,0
174870,note_on,0,0,1,,,,,,,,,0,,,81,117
174870,note_on,0,0,1,,,,,,,,,0,,,93,127
174870,note_on,120,0,3,,,,,,,,,2,,,45,0
174870,note_on,0,0,3,,,,,,,,,2,,,57,88
174870,note_on,0,0,3,,,,,,,,,2,,,64,88
174870,note_on,120,0,1,,,,,,,,,0,,,85,0
174870,note_on,0,0,1,,,,,,,,,0,,,85,122
174882,note_on,0,0,3,,,,,,,,,2,,,57,0
174882,note_on,12,0,3,,,,,,,,,2,,,64,0
174882,note_on,12,0,1,,,,,,,,,0,,,93,0
174882,note_on,0,0,1,,,,,,,,,0,,,85,0
174882,note_on,0,0,1,,,,,,,,,0,,,81,0
174990,note_on,0,0,1,,,,,,,,,0,,,93,127
174990,note_on,108,0,1,,,,,,,,,0,,,81,117
174990,note_on,0,0,1,,,,,,,,,0,,,85,122
174990,note_on,108,0,3,,,,,,,,,2,,,57,88
174990,note_on,0,0,3,,,,,,,,,2,,,64,88
175002,note_on,0,0,1,,,,,,,,,0,,,85,0
175002,note_on,0,0,3,,,,,,,,,2,,,57,0
175002,note_on,0,0,1,,,,,,,,,0,,,81,0
175002,note_on,12,0,1,,,,,,,,,0,,,93,0
175002,note_on,12,0,3,,,,,,,,,2,,,64,0
175110,note_on,0,0,1,,,,,,,,,0,,,74,49
175110,note_on,108,0,1,,,,,,,,,0,,,66,49
175110,note_on,108,0,3,,,,,,,,,2,,,50,36
175170,note_on,60,0,1,,,,,,,,,0,,,74,0
175170,note_on,0,0,1,,,,,,,,,0,,,66,0
175230,note_on,120,0,3,,,,,,,,,2,,,50,0
175230,note_on,0,0,3,,,,,,,,,2,,,54,36
175230,note_on,0,0,3,,,,,,,,,2,,,62,36
175230,note_on,60,0,1,,,,,,,,,0,,,69,49
175242,note_on,12,0,3,,,,,,,,,2,,,62,0
175242,note_on,0,0,3,,,,,,,,,2,,,54,0
175269,note_on,39,0,1,,,,,,,,,0,,,71,49
175270,note_on,1,0,1,,,,,,,,,0,,,69,0
175309,note_on,39,0,1,,,,,,,,,0,,,71,0
175310,note_on,1,0,1,,,,,,,,,0,,,69,49
175350,note_on,40,0,1,,,,,,,,,0,,,69,0
175350,note_on,0,0,1,,,,,,,,,0,,,74,49
175350,note_on,0,0,1,,,,,,,,,0,,,78,49
175350,note_on,108,0,3,,,,,,,,,2,,,54,36
175350,note_on,0,0,3,,,,,,,,,2,,,62,36
175362,note_on,12,0,3,,,,,,,,,2,,,62,0
175362,note_on,0,0,3,,,,,,,,,2,,,54,0
175470,note_on,108,0,3,,,,,,,,,2,,,45,36
175470,note_on,120,0,1,,,,,,,,,0,,,78,0
175470,note_on,0,0,1,,,,,,,,,0,,,74,0
175470,note_on,0,0,1,,,,,,,,,0,,,73,49
175470,note_on,0,0,1,,,,,,,,,0,,,76,49
175530,note_on,60,0,1,,,,,,,,,0,,,76,0
175530,note_on,0,0,1,,,,,,,,,0,,,73,0
175590,note_on,0,0,3,,,,,,,,,2,,,64,36
175590,note_on,120,0,3,,,,,,,,,2,,,45,0
175590,note_on,60,0,1,,,,,,,,,0,,,69,49
175590,note_on,0,0,3,,,,,,,,,2,,,57,36
175602,note_on,12,0,3,,,,,,,,,2,,,64,0
175602,note_on,0,0,3,,,,,,,,,2,,,57,0
175629,note_on,39,0,1,,,,,,,,,0,,,71,49
175630,note_on,1,0,1,,,,,,,,,0,,,69,0
175669,note_on,39,0,1,,,,,,,,,0,,,71,0
175670,note_on,1,0,1,,,,,,,,,0,,,69,49
175710,note_on,0,0,1,,,,,,,,,0,,,76,49
175710,note_on,0,0,1,,,,,,,,,0,,,79,49
175710,note_on,0,0,3,,,,,,,,,2,,,64,36
175710,note_on,108,0,3,,,,,,,,,2,,,57,36
175710,note_on,40,0,1,,,,,,,,,0,,,69,0
175722,note_on,0,0,3,,,,,,,,,2,,,57,0
175722,note_on,12,0,3,,,,,,,,,2,,,64,0
175830,note_on,120,0,1,,,,,,,,,0,,,79,0
175830,note_on,0,0,1,,,,,,,,,0,,,76,0
175830,note_on,0,0,1,,,,,,,,,0,,,74,49
175830,note_on,0,0,1,,,,,,,,,0,,,78,49
175830,note_on,108,0,3,,,,,,,,,2,,,50,36
175890,note_on,0,0,1,,,,,,,,,0,,,79,49
175890,note_on,60,0,1,,,,,,,,,0,,,78,0
175890,note_on,0,0,1,,,,,,,,,0,,,74,0
175890,note_on,0,0,1,,,,,,,,,0,,,76,49
175950,note_on,120,0,3,,,,,,,,,2,,,50,0
175950,note_on,0,0,3,,,,,,,,,2,,,62,36
175950,note_on,60,0,1,,,,,,,,,0,,,79,0
175950,note_on,0,0,1,,,,,,,,,0,,,76,0
175950,note_on,0,0,1,,,,,,,,,0,,,78,49
175950,note_on,0,0,1,,,,,,,,,0,,,81,49
175950,note_on,0,0,3,,,,,,,,,2,,,54,36
176010,note_on,0,0,1,,,,,,,,,0,,,78,0
176010,note_on,0,0,1,,,,,,,,,0,,,79,49
176010,note_on,0,0,1,,,,,,,,,0,,,83,49
176010,note_on,60,0,1,,,,,,,,,0,,,81,0
176070,note_on,120,0,3,,,,,,,,,2,,,62,0
176070,note_on,0,0,3,,,,,,,,,2,,,64,36
176070,note_on,0,0,3,,,,,,,,,2,,,57,36
176070,note_on,0,0,3,,,,,,,,,2,,,54,0
176070,note_on,60,0,1,,,,,,,,,0,,,83,0
176070,note_on,0,0,1,,,,,,,,,0,,,81,49
176070,note_on,0,0,1,,,,,,,,,0,,,78,49
176070,note_on,0,0,1,,,,,,,,,0,,,79,0
176160,note_on,90,0,1,,,,,,,,,0,,,81,0
176160,note_on,0,0,1,,,,,,,,,0,,,78,0
176160,note_on,0,0,1,,,,,,,,,0,,,73,49
176190,note_on,0,0,1,,,,,,,,,0,,,74,49
176190,note_on,0,0,1,,,,,,,,,0,,,66,49
176190,note_on,30,0,1,,,,,,,,,0,,,73,0
176190,note_on,120,0,3,,,,,,,,,2,,,64,0
176190,note_on,0,0,3,,,,,,,,,2,,,57,0
176190,note_on,0,0,3,,,,,,,,,2,,,50,36
176190,time_signature,2520,1,0,2,4,24,8,,,,,,,,,
176310,note_on,120,0,3,,,,,,,,,2,,,50,0
176310,note_on,0,0,3,,,,,,,,,2,,,62,36
176430,note_on,120,0,3,,,,,,,,,2,,,62,0
176430,time_signature,240,1,0,1,4,24,8,,,,,,,,,
176430,note_on,240,0,1,,,,,,,,,0,,,74,0
176430,note_on,0,0,1,,,,,,,,,0,,,66,0
176430,note_on,0,0,1,,,,,,,,,0,,,73,49
176550,time_signature,120,1,0,3,4,24,8,,,,,,,,,
176550,note_on,120,0,1,,,,,,,,,0,,,73,0
176550,note_on,0,0,1,,,,,,,,,0,,,78,49
176550,note_on,0,0,1,,,,,,,,,0,,,81,49
176550,note_on,120,0,3,,,,,,,,,2,,,54,36
176610,note_on,60,0,1,,,,,,,,,0,,,81,0
176610,note_on,0,0,1,,,,,,,,,0,,,78,0
176670,note_on,0,0,3,,,,,,,,,2,,,66,36
176670,note_on,60,0,1,,,,,,,,,0,,,73,49
176670,note_on,120,0,3,,,,,,,,,2,,,54,0
176670,note_on,0,0,3,,,,,,,,,2,,,61,36
176670,note_on,0,0,3,,,,,,,,,2,,,69,36
176682,note_on,12,0,3,,,,,,,,,2,,,69,0
176682,note_on,0,0,3,,,,,,,,,2,,,66,0
176682,note_on,0,0,3,,,,,,,,,2,,,61,0
176709,note_on,39,0,1,,,,,,,,,0,,,74,49
176710,note_on,1,0,1,,,,,,,,,0,,,73,0
176749,note_on,39,0,1,,,,,,,,,0,,,74,0
176750,note_on,1,0,1,,,,,,,,,0,,,73,49
176790,note_on,0,0,1,,,,,,,,,0,,,81,49
176790,note_on,108,0,3,,,,,,,,,2,,,61,36
176790,note_on,40,0,1,,,,,,,,,0,,,73,0
176790,note_on,0,0,3,,,,,,,,,2,,,66,36
176790,note_on,0,0,3,,,,,,,,,2,,,69,36
176790,note_on,0,0,1,,,,,,,,,0,,,78,49
176802,note_on,0,0,3,,,,,,,,,2,,,61,0
176802,note_on,0,0,3,,,,,,,,,2,,,66,0
176802,note_on,12,0,3,,,,,,,,,2,,,69,0
176910,note_on,120,0,1,,,,,,,,,0,,,81,0
176910,note_on,0,0,1,,,,,,,,,0,,,78,0
176910,note_on,0,0,1,,,,,,,,,0,,,77,49
176910,note_on,0,0,1,,,,,,,,,0,,,80,49
176910,note_on,108,0,3,,,,,,,,,2,,,49,36
176970,note_on,60,0,1,,,,,,,,,0,,,80,0
176970,note_on,0,0,1,,,,,,,,,0,,,77,0
177030,note_on,0,0,1,,,,,,,,,0,,,77,122
177030,note_on,60,0,1,,,,,,,,,0,,,73,117
177030,note_on,0,0,1,,,,,,,,,0,,,85,127
177030,note_on,120,0,3,,,,,,,,,2,,,49,0
177030,note_on,0,0,3,,,,,,,,,2,,,61,88
177030,note_on,0,0,3,,,,,,,,,2,,,65,88
177030,note_on,0,0,3,,,,,,,,,2,,,68,88
177042,note_on,12,0,3,,,,,,,,,2,,,68,0
177042,note_on,0,0,3,,,,,,,,,2,,,65,0
177042,note_on,0,0,3,,,,,,,,,2,,,61,0
177042,note_on,12,0,1,,,,,,,,,0,,,85,0
177042,note_on,0,0,1,,,,,,,,,0,,,77,0
177042,note_on,0,0,1,,,,,,,,,0,,,73,0
177150,note_on,108,0,1,,,,,,,,,0,,,73,117
177150,note_on,108,0,3,,,,,,,,,2,,,61,88
177150,note_on,0,0,1,,,,,,,,,0,,,77,122
177150,note_on,0,0,1,,,,,,,,,0,,,85,127
177150,note_on,0,0,3,,,,,,,,,2,,,65,88
177150,note_on,0,0,3,,,,,,,,,2,,,68,88
177162,note_on,12,0,1,,,,,,,,,0,,,85,0
177162,note_on,0,0,1,,,,,,,,,0,,,73,0
177162,note_on,0,0,3,,,,,,,,,2,,,61,0
177162,note_on,0,0,3,,,,,,,,,2,,,65,0
177162,note_on,12,0,3,,,,,,,,,2,,,68,0
177162,note_on,0,0,1,,,,,,,,,0,,,77,0
177270,note_on,108,0,3,,,,,,,,,2,,,52,36
177270,note_on,0,0,1,,,,,,,,,0,,,79,49
177270,note_on,108,0,1,,,,,,,,,0,,,76,49
177330,note_on,0,0,1,,,,,,,,,0,,,76,0
177330,note_on,60,0,1,,,,,,,,,0,,,79,0
177390,note_on,0,0,3,,,,,,,,,2,,,67,36
177390,note_on,60,0,1,,,,,,,,,0,,,71,49
177390,note_on,0,0,3,,,,,,,,,2,,,59,36
177390,note_on,120,0,3,,,,,,,,,2,,,52,0
177390,note_on,0,0,3,,,,,,,,,2,,,64,36
177402,note_on,0,0,3,,,,,,,,,2,,,59,0
177402,note_on,12,0,3,,,,,,,,,2,,,67,0
177402,note_on,0,0,3,,,,,,,,,2,,,64,0
177429,note_on,39,0,1,,,,,,,,,0,,,72,49
177430,note_on,1,0,1,,,,,,,,,0,,,71,0
177469,note_on,39,0,1,,,,,,,,,0,,,72,0
177470,note_on,1,0,1,,,,,,,,,0,,,71,49
177510,note_on,0,0,1,,,,,,,,,0,,,76,49
177510,note_on,40,0,1,,,,,,,,,0,,,71,0
177510,note_on,108,0,3,,,,,,,,,2,,,59,36
177510,note_on,0,0,3,,,,,,,,,2,,,64,36
177510,note_on,0,0,3,,,,,,,,,2,,,67,36
177510,note_on,0,0,1,,,,,,,,,0,,,79,49
177522,note_on,0,0,3,,,,,,,,,2,,,64,0
177522,note_on,12,0,3,,,,,,,,,2,,,67,0
177522,note_on,0,0,3,,,,,,,,,2,,,59,0
177630,note_on,0,0,1,,,,,,,,,0,,,75,49
177630,note_on,0,0,1,,,,,,,,,0,,,78,49
177630,note_on,0,0,1,,,,,,,,,0,,,76,0
177630,note_on,108,0,3,,,,,,,,,2,,,47,36
177630,note_on,120,0,1,,,,,,,,,0,,,79,0
177750,note_on,0,0,1,,,,,,,,,0,,,75,0
177750,note_on,0,0,1,,,,,,,,,0,,,71,117
177750,note_on,0,0,1,,,,,,,,,0,,,75,122
177750,note_on,0,0,1,,,,,,,,,0,,,83,127
177750,note_on,120,0,1,,,,,,,,,0,,,78,0
177750,note_on,120,0,3,,,,,,,,,2,,,47,0
177750,note_on,0,0,3,,,,,,,,,2,,,59,88
177750,note_on,0,0,3,,,,,,,,,2,,,63,88
177750,note_on,0,0,3,,,,,,,,,2,,,66,88
177762,note_on,12,0,3,,,,,,,,,2,,,66,0
177762,note_on,0,0,3,,,,,,,,,2,,,63,0
177762,note_on,0,0,3,,,,,,,,,2,,,59,0
177762,note_on,12,0,1,,,,,,,,,0,,,83,0
177762,note_on,0,0,1,,,,,,,,,0,,,71,0
177762,note_on,0,0,1,,,,,,,,,0,,,75,0
177870,note_on,108,0,3,,,,,,,,,2,,,59,88
177870,note_on,0,0,1,,,,,,,,,0,,,83,127
177870,note_on,0,0,1,,,,,,,,,0,,,75,122
177870,note_on,108,0,1,,,,,,,,,0,,,71,117
177870,note_on,0,0,3,,,,,,,,,2,,,66,88
177870,note_on,0,0,3,,,,,,,,,2,,,63,88
177882,note_on,0,0,1,,,,,,,,,0,,,71,0
177882,note_on,0,0,1,,,,,,,,,0,,,75,0
177882,note_on,12,0,1,,,,,,,,,0,,,83,0
177882,note_on,0,0,3,,,,,,,,,2,,,59,0
177882,note_on,0,0,3,,,,,,,,,2,,,63,0
177882,note_on,12,0,3,,,,,,,,,2,,,66,0
177990,note_on,108,0,3,,,,,,,,,2,,,50,36
177990,note_on,0,0,1,,,,,,,,,0,,,78,49
177990,note_on,108,0,1,,,,,,,,,0,,,74,49
178050,note_on,0,0,1,,,,,,,,,0,,,74,0
178050,note_on,60,0,1,,,,,,,,,0,,,78,0
178110,note_on,0,0,3,,,,,,,,,2,,,57,36
178110,note_on,120,0,3,,,,,,,,,2,,,50,0
178110,note_on,0,0,3,,,,,,,,,2,,,66,36
178110,note_on,0,0,3,,,,,,,,,2,,,62,36
178110,note_on,60,0,1,,,,,,,,,0,,,69,49
178122,note_on,0,0,3,,,,,,,,,2,,,62,0
178122,note_on,12,0,3,,,,,,,,,2,,,66,0
178122,note_on,0,0,3,,,,,,,,,2,,,57,0
178149,note_on,39,0,1,,,,,,,,,0,,,71,49
178150,note_on,1,0,1,,,,,,,,,0,,,69,0
178189,note_on,39,0,1,,,,,,,,,0,,,71,0
178190,note_on,1,0,1,,,,,,,,,0,,,69,49
178230,note_on,108,0,3,,,,,,,,,2,,,57,36
178230,note_on,40,0,1,,,,,,,,,0,,,69,0
178230,note_on,0,0,3,,,,,,,,,2,,,62,36
178230,note_on,0,0,3,,,,,,,,,2,,,66,36
178230,note_on,0,0,1,,,,,,,,,0,,,74,49
178230,note_on,0,0,1,,,,,,,,,0,,,78,49
178242,note_on,12,0,3,,,,,,,,,2,,,66,0
178242,note_on,0,0,3,,,,,,,,,2,,,57,0
178242,note_on,0,0,3,,,,,,,,,2,,,62,0
178350,note_on,108,0,3,,,,,,,,,2,,,45,36
178350,note_on,120,0,1,,,,,,,,,0,,,78,0
178350,note_on,0,0,1,,,,,,,,,0,,,74,0
178350,note_on,0,0,1,,,,,,,,,0,,,73,49
178350,note_on,0,0,1,,,,,,,,,0,,,76,49
178410,note_on,0,0,1,,,,,,,,,0,,,73,0
178410,note_on,60,0,1,,,,,,,,,0,,,76,0
178470,note_on,120,0,3,,,,,,,,,2,,,45,0
178470,note_on,0,0,3,,,,,,,,,2,,,67,88
178470,note_on,0,0,1,,,,,,,,,0,,,76,101
178470,note_on,0,0,1,,,,,,,,,0,,,83,101
178470,note_on,0,0,3,,,,,,,,,2,,,64,88
178470,note_on,60,0,1,,,,,,,,,0,,,73,101
178470,note_on,0,0,3,,,,,,,,,2,,,57,88
178482,note_on,12,0,3,,,,,,,,,2,,,67,0
178482,note_on,0,0,3,,,,,,,,,2,,,64,0
178482,note_on,0,0,3,,,,,,,,,2,,,57,0
178590,note_on,108,0,3,,,,,,,,,2,,,57,88
178590,note_on,0,0,3,,,,,,,,,2,,,64,88
178590,note_on,0,0,3,,,,,,,,,2,,,67,88
178590,note_on,0,0,1,,,,,,,,,0,,,76,101
178590,note_on,120,0,1,,,,,,,,,0,,,83,0
178590,note_on,0,0,1,,,,,,,,,0,,,76,0
178590,note_on,0,0,1,,,,,,,,,0,,,73,0
178590,note_on,0,0,1,,,,,,,,,0,,,73,101
178590,note_on,0,0,1,,,,,,,,,0,,,83,101
178602,note_on,12,0,3,,,,,,,,,2,,,67,0
178602,note_on,0,0,3,,,,,,,,,2,,,64,0
178602,note_on,0,0,3,,,,,,,,,2,,,57,0
178710,note_on,108,0,3,,,,,,,,,2,,,45,101
178710,note_on,0,0,1,,,,,,,,,0,,,73,0
178710,note_on,0,0,1,,,,,,,,,0,,,81,114
178710,note_on,0,0,1,,,,,,,,,0,,,76,0
178710,note_on,120,0,1,,,,,,,,,0,,,83,0
178740,note_on,0,0,1,,,,,,,,,0,,,91,114
178740,note_on,0,0,1,,,,,,,,,0,,,95,114
178740,note_on,30,0,1,,,,,,,,,0,,,81,0
178830,note_on,0,0,1,,,,,,,,,0,,,93,114
178830,note_on,0,0,1,,,,,,,,,0,,,90,114
178830,note_on,0,0,1,,,,,,,,,0,,,91,0
178830,note_on,90,0,1,,,,,,,,,0,,,95,0
178830,note_on,0,0,3,,,,,,,,,2,,,57,101
178830,note_on,0,0,3,,,,,,,,,2,,,61,101
178830,note_on,0,0,3,,,,,,,,,2,,,67,101
178830,note_on,120,0,3,,,,,,,,,2,,,45,0
178842,note_on,0,0,3,,,,,,,,,2,,,57,0
178842,note_on,0,0,3,,,,,,,,,2,,,61,0
178842,note_on,12,0,3,,,,,,,,,2,,,67,0
178890,note_on,60,0,1,,,,,,,,,0,,,93,0
178890,note_on,0,0,1,,,,,,,,,0,,,91,114
178890,note_on,0,0,1,,,,,,,,,0,,,88,114
178890,note_on,0,0,1,,,,,,,,,0,,,90,0
178950,note_on,0,0,1,,,,,,,,,0,,,90,114
178950,note_on,0,0,1,,,,,,,,,0,,,86,114
178950,note_on,0,0,1,,,,,,,,,0,,,88,0
178950,note_on,60,0,1,,,,,,,,,0,,,91,0
178950,note_on,0,0,3,,,,,,,,,2,,,67,101
178950,note_on,0,0,3,,,,,,,,,2,,,64,101
178950,note_on,108,0,3,,,,,,,,,2,,,57,101
178962,note_on,12,0,3,,,,,,,,,2,,,67,0
178962,note_on,0,0,3,,,,,,,,,2,,,57,0
178962,note_on,0,0,3,,,,,,,,,2,,,64,0
179010,note_on,60,0,1,,,,,,,,,0,,,90,0
179010,note_on,0,0,1,,,,,,,,,0,,,88,114
179010,note_on,0,0,1,,,,,,,,,0,,,85,114
179010,note_on,0,0,1,,,,,,,,,0,,,86,0
179070,note_on,0,0,1,,,,,,,,,0,,,86,114
179070,time_signature,2520,1,0,2,4,24,8,,,,,,,,,
179070,note_on,0,0,1,,,,,,,,,0,,,85,0
179070,note_on,60,0,1,,,,,,,,,0,,,88,0
179070,note_on,108,0,3,,,,,,,,,2,,,50,101
179190,note_on,0,0,3,,,,,,,,,2,,,62,101
179190,note_on,0,0,3,,,,,,,,,2,,,66,101
179190,note_on,0,0,3,,,,,,,,,2,,,57,101
179190,note_on,120,0,3,,,,,,,,,2,,,50,0
179310,note_on,120,0,3,,,,,,,,,2,,,66,0
179310,time_signature,240,1,0,1,4,24,8,,,,,,,,,
179310,note_on,0,0,3,,,,,,,,,2,,,62,0
179310,note_on,240,0,1,,,,,,,,,0,,,86,0
179310,note_on,0,0,1,,,,,,,,,0,,,73,49
179310,note_on,0,0,3,,,,,,,,,2,,,57,0
179430,note_on,120,0,3,,,,,,,,,2,,,54,36
179430,note_on,0,0,1,,,,,,,,,0,,,81,49
179430,note_on,0,0,1,,,,,,,,,0,,,78,49
179430,note_on,120,0,1,,,,,,,,,0,,,73,0
179430,time_signature,120,1,0,3,4,24,8,,,,,,,,,
179490,note_on,60,0,1,,,,,,,,,0,,,81,0
179490,note_on,0,0,1,,,,,,,,,0,,,78,0
179550,note_on,60,0,1,,,,,,,,,0,,,73,49
179550,note_on,0,0,3,,,,,,,,,2,,,69,36
179550,note_on,0,0,3,,,,,,,,,2,,,66,36
179550,note_on,0,0,3,,,,,,,,,2,,,61,36
179550,note_on,120,0,3,,,,,,,,,2,,,54,0
179562,note_on,0,0,3,,,,,,,,,2,,,61,0
179562,note_on,0,0,3,,,,,,,,,2,,,66,0
179562,note_on,12,0,3,,,,,,,,,2,,,69,0
179589,note_on,39,0,1,,,,,,,,,0,,,74,49
179590,note_on,1,0,1,,,,,,,,,0,,,73,0
179629,note_on,39,0,1,,,,,,,,,0,,,74,0
179630,note_on,1,0,1,,,,,,,,,0,,,73,49
179670,note_on,0,0,3,,,,,,,,,2,,,66,36
179670,note_on,0,0,3,,,,,,,,,2,,,69,36
179670,note_on,108,0,3,,,,,,,,,2,,,61,36
179670,note_on,0,0,1,,,,,,,,,0,,,81,49
179670,note_on,0,0,1,,,,,,,,,0,,,78,49
179670,note_on,40,0,1,,,,,,,,,0,,,73,0
179682,note_on,0,0,3,,,,,,,,,2,,,61,0
179682,note_on,0,0,3,,,,,,,,,2,,,66,0
179682,note_on,12,0,3,,,,,,,,,2,,,69,0
179790,note_on,108,0,3,,,,,,,,,2,,,49,36
179790,note_on,0,0,1,,,,,,,,,0,,,80,49
179790,note_on,0,0,1,,,,,,,,,0,,,78,0
179790,note_on,120,0,1,,,,,,,,,0,,,81,0
179790,note_on,0,0,1,,,,,,,,,0,,,77,49
179850,note_on,60,0,1,,,,,,,,,0,,,80,0
179850,note_on,0,0,1,,,,,,,,,0,,,77,0
179910,note_on,120,0,3,,,,,,,,,2,,,49,0
179910,note_on,0,0,1,,,,,,,,,0,,,77,122
179910,note_on,0,0,1,,,,,,,,,0,,,85,127
179910,note_on,0,0,3,,,,,,,,,2,,,61,88
179910,note_on,60,0,1,,,,,,,,,0,,,73,117
179910,note_on,0,0,3,,,,,,,,,2,,,68,88
179910,note_on,0,0,3,,,,,,,,,2,,,65,88
179922,note_on,12,0,3,,,,,,,,,2,,,68,0
179922,note_on,0,0,3,,,,,,,,,2,,,65,0
179922,note_on,0,0,3,,,,,,,,,2,,,61,0
179922,note_on,0,0,1,,,,,,,,,0,,,77,0
179922,note_on,12,0,1,,,,,,,,,0,,,85,0
179922,note_on,0,0,1,,,,,,,,,0,,,73,0
180030,note_on,108,0,3,,,,,,,,,2,,,61,88
180030,note_on,0,0,1,,,,,,,,,0,,,77,122
180030,note_on,0,0,3,,,,,,,,,2,,,65,88
180030,note_on,108,0,1,,,,,,,,,0,,,73,117
180030,note_on,0,0,3,,,,,,,,,2,,,68,88
180030,note_on,0,0,1,,,,,,,,,0,,,85,127
180042,note_on,0,0,1,,,,,,,,,0,,,73,0
180042,note_on,0,0,1,,,,,,,,,0,,,77,0
180042,note_on,12,0,3,,,,,,,,,2,,,68,0
180042,note_on,12,0,1,,,,,,,,,0,,,85,0
180042,note_on,0,0,3,,,,,,,,,2,,,65,0
180042,note_on,0,0,3,,,,,,,,,2,,,61,0
180150,note_on,108,0,1,,,,,,,,,0,,,76,49
180150,note_on,0,0,1,,,,,,,,,0,,,79,49
180150,note_on,108,0,3,,,,,,,,,2,,,52,36
180210,note_on,60,0,1,,,,,,,,,0,,,79,0
180210,note_on,0,0,1,,,,,,,,,0,,,76,0
180270,note_on,60,0,1,,,,,,,,,0,,,71,49
180270,note_on,120,0,3,,,,,,,,,2,,,52,0
180270,note_on,0,0,3,,,,,,,,,2,,,59,36
180270,note_on,0,0,3,,,,,,,,,2,,,67,36
180270,note_on,0,0,3,,,,,,,,,2,,,64,36
180282,note_on,0,0,3,,,,,,,,,2,,,59,0
180282,note_on,0,0,3,,,,,,,,,2,,,64,0
180282,note_on,12,0,3,,,,,,,,,2,,,67,0
180309,note_on,39,0,1,,,,,,,,,0,,,72,49
180310,note_on,1,0,1,,,,,,,,,0,,,71,0
180349,note_on,39,0,1,,,,,,,,,0,,,72,0
180350,note_on,1,0,1,,,,,,,,,0,,,71,49
180390,note_on,0,0,1,,,,,,,,,0,,,79,49
180390,note_on,0,0,3,,,,,,,,,2,,,64,36
180390,note_on,40,0,1,,,,,,,,,0,,,71,0
180390,note_on,108,0,3,,,,,,,,,2,,,59,36
180390,note_on,0,0,3,,,,,,,,,2,,,67,36
180390,note_on,0,0,1,,,,,,,,,0,,,76,49
180402,note_on,12,0,3,,,,,,,,,2,,,67,0
180402,note_on,0,0,3,,,,,,,,,2,,,64,0
180402,note_on,0,0,3,,,,,,,,,2,,,59,0
180510,note_on,120,0,1,,,,,,,,,0,,,79,0
180510,note_on,108,0,3,,,,,,,,,2,,,47,36
180510,note_on,0,0,1,,,,,,,,,0,,,78,49
180510,note_on,0,0,1,,,,,,,,,0,,,75,49
180510,note_on,0,0,1,,,,,,,,,0,,,76,0
180630,note_on,0,0,3,,,,,,,,,2,,,66,88
180630,note_on,0,0,3,,,,,,,,,2,,,63,88
180630,note_on,0,0,3,,,,,,,,,2,,,59,88
180630,note_on,120,0,3,,,,,,,,,2,,,47,0
180630,note_on,120,0,1,,,,,,,,,0,,,78,0
180630,note_on,0,0,1,,,,,,,,,0,,,75,0
180630,note_on,0,0,1,,,,,,,,,0,,,71,117
180630,note_on,0,0,1,,,,,,,,,0,,,75,122
180630,note_on,0,0,1,,,,,,,,,0,,,83,127
180642,note_on,0,0,1,,,,,,,,,0,,,75,0
180642,note_on,12,0,3,,,,,,,,,2,,,66,0
180642,note_on,0,0,3,,,,,,,,,2,,,63,0
180642,note_on,0,0,3,,,,,,,,,2,,,59,0
180642,note_on,12,0,1,,,,,,,,,0,,,83,0
180642,note_on,0,0,1,,,,,,,,,0,,,71,0
180750,note_on,0,0,1,,,,,,,,,0,,,83,127
180750,note_on,108,0,3,,,,,,,,,2,,,59,88
180750,note_on,0,0,1,,,,,,,,,0,,,75,122
180750,note_on,108,0,1,,,,,,,,,0,,,71,117
180750,note_on,0,0,3,,,,,,,,,2,,,63,88
180750,note_on,0,0,3,,,,,,,,,2,,,66,88
180762,note_on,0,0,3,,,,,,,,,2,,,63,0
180762,note_on,12,0,3,,,,,,,,,2,,,66,0
180762,note_on,12,0,1,,,,,,,,,0,,,83,0
180762,note_on,0,0,1,,,,,,,,,0,,,75,0
180762,note_on,0,0,1,,,,,,,,,0,,,71,0
180762,note_on,0,0,3,,,,,,,,,2,,,59,0
180870,note_on,108,0,1,,,,,,,,,0,,,74,49
180870,note_on,0,0,1,,,,,,,,,0,,,78,49
180870,note_on,108,0,3,,,,,,,,,2,,,50,36
180930,note_on,0,0,1,,,,,,,,,0,,,74,0
180930,note_on,60,0,1,,,,,,,,,0,,,78,0
180990,note_on,60,0,1,,,,,,,,,0,,,69,49
180990,note_on,0,0,3,,,,,,,,,2,,,66,36
180990,note_on,0,0,3,,,,,,,,,2,,,62,36
180990,note_on,0,0,3,,,,,,,,,2,,,57,36
180990,note_on,120,0,3,,,,,,,,,2,,,50,0
181002,note_on,0,0,3,,,,,,,,,2,,,57,0
181002,note_on,0,0,3,,,,,,,,,2,,,62,0
181002,note_on,12,0,3,,,,,,,,,2,,,66,0
181029,note_on,39,0,1,,,,,,,,,0,,,71,49
181030,note_on,1,0,1,,,,,,,,,0,,,69,0
181069,note_on,39,0,1,,,,,,,,,0,,,71,0
181070,note_on,1,0,1,,,,,,,,,0,,,69,49
181110,note_on,0,0,3,,,,,,,,,2,,,66,36
181110,note_on,0,0,3,,,,,,,,,2,,,62,36
181110,note_on,0,0,1,,,,,,,,,0,,,78,49
181110,note_on,0,0,1,,,,,,,,,0,,,74,49
181110,note_on,40,0,1,,,,,,,,,0,,,69,0
181110,note_on,108,0,3,,,,,,,,,2,,,57,36
181122,note_on,12,0,3,,,,,,,,,2,,,66,0
181122,note_on,0,0,3,,,,,,,,,2,,,57,0
181122,note_on,0,0,3,,,,,,,,,2,,,62,0
181230,note_on,108,0,3,,,,,,,,,2,,,45,36
181230,note_on,0,0,1,,,,,,,,,0,,,76,49
181230,note_on,0,0,1,,,,,,,,,0,,,73,49
181230,note_on,0,0,1,,,,,,,,,0,,,74,0
181230,note_on,120,0,1,,,,,,,,,0,,,78,0
181290,note_on,60,0,1,,,,,,,,,0,,,76,0
181290,note_on,0,0,1,,,,,,,,,0,,,73,0
181350,note_on,0,0,1,,,,,,,,,0,,,76,101
181350,note_on,0,0,3,,,,,,,,,2,,,67,88
181350,note_on,0,0,3,,,,,,,,,2,,,64,88
181350,note_on,0,0,3,,,,,,,,,2,,,57,88
181350,note_on,120,0,3,,,,,,,,,2,,,45,0
181350,note_on,0,0,1,,,,,,,,,0,,,83,101
181350,note_on,60,0,1,,,,,,,,,0,,,73,101
181362,note_on,0,0,3,,,,,,,,,2,,,57,0
181362,note_on,0,0,3,,,,,,,,,2,,,64,0
181362,note_on,12,0,3,,,,,,,,,2,,,67,0
181470,note_on,0,0,1,,,,,,,,,0,,,76,101
181470,note_on,120,0,1,,,,,,,,,0,,,83,0
181470,note_on,0,0,1,,,,,,,,,0,,,76,0
181470,note_on,0,0,1,,,,,,,,,0,,,73,0
181470,note_on,0,0,1,,,,,,,,,0,,,73,101
181470,note_on,0,0,1,,,,,,,,,0,,,83,101
181470,note_on,0,0,3,,,,,,,,,2,,,67,88
181470,note_on,0,0,3,,,,,,,,,2,,,64,88
181470,note_on,108,0,3,,,,,,,,,2,,,57,88
181482,note_on,12,0,3,,,,,,,,,2,,,67,0
181482,note_on,0,0,3,,,,,,,,,2,,,64,0
181482,note_on,0,0,3,,,,,,,,,2,,,57,0
181590,note_on,0,0,1,,,,,,,,,0,,,81,114
181590,note_on,0,0,1,,,,,,,,,0,,,73,0
181590,note_on,0,0,1,,,,,,,,,0,,,76,0
181590,note_on,120,0,1,,,,,,,,,0,,,83,0
181590,note_on,108,0,3,,,,,,,,,2,,,45,101
181620,note_on,0,0,1,,,,,,,,,0,,,95,114
181620,note_on,0,0,1,,,,,,,,,0,,,91,114
181620,note_on,30,0,1,,,,,,,,,0,,,81,0
181710,note_on,0,0,1,,,,,,,,,0,,,93,114
181710,note_on,0,0,1,,,,,,,,,0,,,91,0
181710,note_on,90,0,1,,,,,,,,,0,,,95,0
181710,note_on,120,0,3,,,,,,,,,2,,,45,0
181710,note_on,0,0,1,,,,,,,,,0,,,90,114
181710,note_on,0,0,3,,,,,,,,,2,,,61,101
181710,note_on,0,0,3,,,,,,,,,2,,,67,101
181710,note_on,0,0,3,,,,,,,,,2,,,57,101
181722,note_on,12,0,3,,,,,,,,,2,,,67,0
181722,note_on,0,0,3,,,,,,,,,2,,,61,0
181722,note_on,0,0,3,,,,,,,,,2,,,57,0
181770,note_on,0,0,1,,,,,,,,,0,,,91,114
181770,note_on,0,0,1,,,,,,,,,0,,,88,114
181770,note_on,0,0,1,,,,,,,,,0,,,90,0
181770,note_on,60,0,1,,,,,,,,,0,,,93,0
181830,note_on,0,0,1,,,,,,,,,0,,,90,114
181830,note_on,0,0,1,,,,,,,,,0,,,86,114
181830,note_on,60,0,1,,,,,,,,,0,,,91,0
181830,note_on,0,0,1,,,,,,,,,0,,,88,0
181830,note_on,0,0,3,,,,,,,,,2,,,67,101
181830,note_on,0,0,3,,,,,,,,,2,,,64,101
181830,note_on,108,0,3,,,,,,,,,2,,,57,101
181842,note_on,0,0,3,,,,,,,,,2,,,64,0
181842,note_on,12,0,3,,,,,,,,,2,,,67,0
181842,note_on,0,0,3,,,,,,,,,2,,,57,0
181890,note_on,60,0,1,,,,,,,,,0,,,90,0
181890,note_on,0,0,1,,,,,,,,,0,,,86,0
181890,note_on,0,0,1,,,,,,,,,0,,,85,114
181890,note_on,0,0,1,,,,,,,,,0,,,88,114
181950,note_on,60,0,1,,,,,,,,,0,,,88,0
181950,time_signature,2520,1,0,2,4,24,8,,,,,,,,,
181950,note_on,108,0,3,,,,,,,,,2,,,50,101
181950,note_on,0,0,1,,,,,,,,,0,,,85,0
181950,note_on,0,0,1,,,,,,,,,0,,,86,114
182070,note_on,0,0,3,,,,,,,,,2,,,57,101
182070,note_on,0,0,3,,,,,,,,,2,,,62,101
182070,note_on,0,0,3,,,,,,,,,2,,,66,101
182070,note_on,120,0,3,,,,,,,,,2,,,50,0
182190,note_on,240,0,1,,,,,,,,,0,,,86,0
182190,note_on,0,0,1,,,,,,,,,0,,,81,49
182190,key_signature,0,1,0,,,,,F,,,,,,,,
182190,time_signature,240,1,0,1,4,24,8,,,,,,,,,
182190,note_on,0,0,3,,,,,,,,,2,,,62,0
182190,note_on,0,0,3,,,,,,,,,2,,,57,0
182190,note_on,120,0,3,,,,,,,,,2,,,66,0
182250,note_on,0,0,1,,,,,,,,,0,,,79,49
182250,note_on,60,0,1,,,,,,,,,0,,,81,0
182310,note_on,120,0,3,,,,,,,,,2,,,53,36
182310,time_signature,120,1,0,3,4,24,8,,,,,,,,,
182310,note_on,0,0,1,,,,,,,,,0,,,77,49
182310,note_on,60,0,1,,,,,,,,,0,,,79,0
182370,note_on,0,0,1,,,,,,,,,0,,,76,49
182370,note_on,60,0,1,,,,,,,,,0,,,77,0
182430,note_on,0,0,3,,,,,,,,,2,,,65,36
182430,note_on,0,0,3,,,,,,,,,2,,,57,36
182430,note_on,120,0,3,,,,,,,,,2,,,53,0
182430,note_on,60,0,1,,,,,,,,,0,,,76,0
182430,note_on,0,0,3,,,,,,,,,2,,,60,36
182430,note_on,0,0,1,,,,,,,,,0,,,74,49
182442,note_on,0,0,3,,,,,,,,,2,,,57,0
182442,note_on,0,0,3,,,,,,,,,2,,,60,0
182442,note_on,12,0,3,,,,,,,,,2,,,65,0
182490,note_on,60,0,1,,,,,,,,,0,,,74,0
182490,note_on,0,0,1,,,,,,,,,0,,,72,49
182550,note_on,0,0,3,,,,,,,,,2,,,65,36
182550,note_on,60,0,1,,,,,,,,,0,,,72,0
182550,note_on,0,0,1,,,,,,,,,0,,,71,49
182550,note_on,0,0,3,,,,,,,,,2,,,59,36
182550,note_on,108,0,3,,,,,,,,,2,,,56,36
182562,note_on,12,0,3,,,,,,,,,2,,,65,0
182562,note_on,0,0,3,,,,,,,,,2,,,59,0
182562,note_on,0,0,3,,,,,,,,,2,,,56,0
182610,note_on,60,0,1,,,,,,,,,0,,,71,0
182610,note_on,0,0,1,,,,,,,,,0,,,74,49
182670,note_on,108,0,3,,,,,,,,,2,,,53,36
182670,note_on,60,0,1,,,,,,,,,0,,,74,0
182670,note_on,0,0,1,,,,,,,,,0,,,72,114
182682,note_on,12,0,1,,,,,,,,,0,,,72,0
182790,note_on,120,0,3,,,,,,,,,2,,,53,0
182790,note_on,0,0,3,,,,,,,,,2,,,65,36
182790,note_on,0,0,3,,,,,,,,,2,,,60,36
182790,note_on,0,0,3,,,,,,,,,2,,,57,36
182790,note_on,108,0,1,,,,,,,,,0,,,69,75
182802,note_on,0,0,3,,,,,,,,,2,,,57,0
182802,note_on,12,0,3,,,,,,,,,2,,,65,0
182802,note_on,0,0,3,,,,,,,,,2,,,60,0
182802,note_on,12,0,1,,,,,,,,,0,,,69,0
182910,note_on,0,0,3,,,,,,,,,2,,,65,36
182910,note_on,108,0,3,,,,,,,,,2,,,57,36
182910,note_on,108,0,1,,,,,,,,,0,,,72,75
182910,note_on,0,0,3,,,,,,,,,2,,,60,36
182922,note_on,12,0,3,,,,,,,,,2,,,65,0
182922,note_on,0,0,3,,,,,,,,,2,,,57,0
182922,note_on,12,0,1,,,,,,,,,0,,,72,0
182922,note_on,0,0,3,,,,,,,,,2,,,60,0
183030,note_on,0,0,1,,,,,,,,,0,,,79,114
183030,note_on,108,0,1,,,,,,,,,0,,,72,106
183030,note_on,108,0,3,,,,,,,,,2,,,48,36
183042,note_on,0,0,1,,,,,,,,,0,,,72,0
183042,note_on,12,0,1,,,,,,,,,0,,,79,0
183150,note_on,120,0,3,,,,,,,,,2,,,48,0
183150,note_on,0,0,3,,,,,,,,,2,,,58,36
183150,note_on,0,0,3,,,,,,,,,2,,,64,36
183150,note_on,0,0,3,,,,,,,,,2,,,60,36
183150,note_on,0,0,1,,,,,,,,,0,,,82,75
183150,note_on,108,0,1,,,,,,,,,0,,,79,67
183162,note_on,0,0,1,,,,,,,,,0,,,79,0
183162,note_on,12,0,1,,,,,,,,,0,,,82,0
183162,note_on,12,0,3,,,,,,,,,2,,,64,0
183162,note_on,0,0,3,,,,,,,,,2,,,60,0
183162,note_on,0,0,3,,,,,,,,,2,,,58,0
183270,note_on,108,0,1,,,,,,,,,0,,,72,67
183270,note_on,0,0,1,,,,,,,,,0,,,79,75
183270,note_on,108,0,3,,,,,,,,,2,,,58,36
183270,note_on,0,0,3,,,,,,,,,2,,,60,36
183270,note_on,0,0,3,,,,,,,,,2,,,64,36
183282,note_on,0,0,3,,,,,,,,,2,,,58,0
183282,note_on,0,0,3,,,,,,,,,2,,,60,0
183282,note_on,12,0,3,,,,,,,,,2,,,64,0
183282,note_on,12,0,1,,,,,,,,,0,,,79,0
183282,note_on,0,0,1,,,,,,,,,0,,,72,0
183390,note_on,108,0,3,,,,,,,,,2,,,53,36
183390,note_on,0,0,1,,,,,,,,,0,,,84,75
183390,note_on,108,0,1,,,,,,,,,0,,,81,67
183510,note_on,0,0,1,,,,,,,,,0,,,81,49
183510,note_on,120,0,1,,,,,,,,,0,,,84,0
183510,note_on,0,0,1,,,,,,,,,0,,,77,49
183510,note_on,0,0,1,,,,,,,,,0,,,81,0
183510,note_on,0,0,3,,,,,,,,,2,,,65,36
183510,note_on,0,0,3,,,,,,,,,2,,,60,36
183510,note_on,0,0,3,,,,,,,,,2,,,57,36
183510,note_on,120,0,3,,,,,,,,,2,,,53,0
183522,note_on,0,0,3,,,,,,,,,2,,,57,0
183522,note_on,0,0,3,,,,,,,,,2,,,60,0
183522,note_on,12,0,3,,,,,,,,,2,,,65,0
183570,note_on,0,0,1,,,,,,,,,0,,,77,0
183570,note_on,60,0,1,,,,,,,,,0,,,81,0
183630,note_on,0,0,3,,,,,,,,,2,,,60,36
183630,note_on,60,0,1,,,,,,,,,0,,,81,49
183630,note_on,108,0,3,,,,,,,,,2,,,57,36
183630,note_on,0,0,3,,,,,,,,,2,,,65,36
183642,note_on,0,0,3,,,,,,,,,2,,,57,0
183642,note_on,0,0,3,,,,,,,,,2,,,60,0
183642,note_on,12,0,3,,,,,,,,,2,,,65,0
183690,note_on,0,0,1,,,,,,,,,0,,,79,49
183690,note_on,60,0,1,,,,,,,,,0,,,81,0
183750,note_on,0,0,1,,,,,,,,,0,,,77,49
183750,note_on,60,0,1,,,,,,,,,0,,,79,0
183750,note_on,108,0,3,,,,,,,,,2,,,53,36
183810,note_on,0,0,1,,,,,,,,,0,,,76,49
183810,note_on,60,0,1,,,,,,,,,0,,,77,0
183870,note_on,0,0,3,,,,,,,,,2,,,57,36
183870,note_on,0,0,3,,,,,,,,,2,,,60,36
183870,note_on,0,0,3,,,,,,,,,2,,,65,36
183870,note_on,0,0,1,,,,,,,,,0,,,74,49
183870,note_on,60,0,1,,,,,,,,,0,,,76,0
183870,note_on,120,0,3,,,,,,,,,2,,,53,0
183882,note_on,12,0,3,,,,,,,,,2,,,65,0
183882,note_on,0,0,3,,,,,,,,,2,,,60,0
183882,note_on,0,0,3,,,,,,,,,2,,,57,0
183930,note_on,60,0,1,,,,,,,,,0,,,74,0
183930,note_on,0,0,1,,,,,,,,,0,,,72,49
183990,note_on,0,0,3,,,,,,,,,2,,,59,36
183990,note_on,108,0,3,,,,,,,,,2,,,56,36
183990,note_on,60,0,1,,,,,,,,,0,,,72,0
183990,note_on,0,0,1,,,,,,,,,0,,,71,49
183990,note_on,0,0,3,,,,,,,,,2,,,65,36
184002,note_on,0,0,3,,,,,,,,,2,,,56,0
184002,note_on,0,0,3,,,,,,,,,2,,,59,0
184002,note_on,12,0,3,,,,,,,,,2,,,65,0
184050,note_on,60,0,1,,,,,,,,,0,,,71,0
184050,note_on,0,0,1,,,,,,,,,0,,,74,49
184110,note_on,60,0,1,,,,,,,,,0,,,74,0
184110,note_on,0,0,1,,,,,,,,,0,,,72,114
184110,note_on,108,0,3,,,,,,,,,2,,,53,36
184122,note_on,12,0,1,,,,,,,,,0,,,72,0
184230,note_on,108,0,1,,,,,,,,,0,,,69,75
184230,note_on,0,0,3,,,,,,,,,2,,,57,36
184230,note_on,120,0,3,,,,,,,,,2,,,53,0
184230,note_on,0,0,3,,,,,,,,,2,,,60,36
184230,note_on,0,0,3,,,,,,,,,2,,,65,36
184242,note_on,12,0,3,,,,,,,,,2,,,65,0
184242,note_on,0,0,3,,,,,,,,,2,,,60,0
184242,note_on,12,0,1,,,,,,,,,0,,,69,0
184242,note_on,0,0,3,,,,,,,,,2,,,57,0
184350,note_on,108,0,1,,,,,,,,,0,,,72,75
184350,note_on,108,0,3,,,,,,,,,2,,,57,36
184350,note_on,0,0,3,,,,,,,,,2,,,60,36
184350,note_on,0,0,3,,,,,,,,,2,,,65,36
184362,note_on,0,0,3,,,,,,,,,2,,,57,0
184362,note_on,12,0,1,,,,,,,,,0,,,72,0
184362,note_on,0,0,3,,,,,,,,,2,,,60,0
184362,note_on,12,0,3,,,,,,,,,2,,,65,0
184470,note_on,0,0,1,,,,,,,,,0,,,79,114
184470,note_on,108,0,1,,,,,,,,,0,,,72,106
184470,note_on,108,0,3,,,,,,,,,2,,,48,36
184482,note_on,0,0,1,,,,,,,,,0,,,72,0
184482,note_on,12,0,1,,,,,,,,,0,,,79,0
184590,note_on,0,0,3,,,,,,,,,2,,,64,36
184590,note_on,0,0,3,,,,,,,,,2,,,58,36
184590,note_on,0,0,3,,,,,,,,,2,,,60,36
184590,note_on,0,0,1,,,,,,,,,0,,,82,75
184590,note_on,120,0,3,,,,,,,,,2,,,48,0
184590,note_on,108,0,1,,,,,,,,,0,,,79,67
184602,note_on,12,0,3,,,,,,,,,2,,,64,0
184602,note_on,0,0,3,,,,,,,,,2,,,60,0
184602,note_on,0,0,3,,,,,,,,,2,,,58,0
184602,note_on,12,0,1,,,,,,,,,0,,,82,0
184602,note_on,0,0,1,,,,,,,,,0,,,79,0
184710,note_on,108,0,3,,,,,,,,,2,,,58,36
184710,note_on,0,0,3,,,,,,,,,2,,,60,36
184710,note_on,0,0,3,,,,,,,,,2,,,64,36
184710,note_on,108,0,1,,,,,,,,,0,,,72,67
184710,note_on,0,0,1,,,,,,,,,0,,,79,75
184722,note_on,0,0,1,,,,,,,,,0,,,72,0
184722,note_on,12,0,1,,,,,,,,,0,,,79,0
184722,note_on,12,0,3,,,,,,,,,2,,,64,0
184722,note_on,0,0,3,,,,,,,,,2,,,60,0
184722,note_on,0,0,3,,,,,,,,,2,,,58,0
184830,note_on,108,0,1,,,,,,,,,0,,,69,49
184830,note_on,108,0,3,,,,,,,,,2,,,53,36
184830,note_on,0,0,1,,,,,,,,,0,,,77,49
184830,time_signature,2520,1,0,2,4,24,8,,,,,,,,,
184950,note_on,0,0,3,,,,,,,,,2,,,60,36
184950,note_on,0,0,3,,,,,,,,,2,,,65,36
184950,note_on,0,0,3,,,,,,,,,2,,,57,36
184950,note_on,120,0,3,,,,,,,,,2,,,53,0
185070,note_on,120,0,3,,,,,,,,,2,,,65,0
185070,note_on,0,0,3,,,,,,,,,2,,,60,0
185070,note_on,0,0,3,,,,,,,,,2,,,57,0
185070,time_signature,240,1,0,1,4,24,8,,,,,,,,,
185070,note_on,240,0,1,,,,,,,,,0,,,77,0
185070,note_on,0,0,1,,,,,,,,,0,,,69,0
185070,note_on,0,0,1,,,,,,,,,0,,,81,49
185130,note_on,60,0,1,,,,,,,,,0,,,81,0
185130,note_on,0,0,1,,,,,,,,,0,,,79,49
185190,note_on,60,0,1,,,,,,,,,0,,,79,0
185190,note_on,120,0,3,,,,,,,,,2,,,53,36
185190,time_signature,120,1,0,3,4,24,8,,,,,,,,,
185190,note_on,0,0,1,,,,,,,,,0,,,77,49
185250,note_on,0,0,1,,,,,,,,,0,,,76,49
185250,note_on,60,0,1,,,,,,,,,0,,,77,0
185310,note_on,0,0,1,,,,,,,,,0,,,74,49
185310,note_on,60,0,1,,,,,,,,,0,,,76,0
185310,note_on,0,0,3,,,,,,,,,2,,,65,36
185310,note_on,0,0,3,,,,,,,,,2,,,60,36
185310,note_on,0,0,3,,,,,,,,,2,,,57,36
185310,note_on,120,0,3,,,,,,,,,2,,,53,0
185322,note_on,0,0,3,,,,,,,,,2,,,57,0
185322,note_on,0,0,3,,,,,,,,,2,,,60,0
185322,note_on,12,0,3,,,,,,,,,2,,,65,0
185370,note_on,0,0,1,,,,,,,,,0,,,72,49
185370,note_on,60,0,1,,,,,,,,,0,,,74,0
185430,note_on,0,0,3,,,,,,,,,2,,,59,36
185430,note_on,0,0,1,,,,,,,,,0,,,71,49
185430,note_on,60,0,1,,,,,,,,,0,,,72,0
185430,note_on,0,0,3,,,,,,,,,2,,,65,36
185430,note_on,108,0,3,,,,,,,,,2,,,56,36
185442,note_on,12,0,3,,,,,,,,,2,,,65,0
185442,note_on,0,0,3,,,,,,,,,2,,,56,0
185442,note_on,0,0,3,,,,,,,,,2,,,59,0
185490,note_on,0,0,1,,,,,,,,,0,,,74,49
185490,note_on,60,0,1,,,,,,,,,0,,,71,0
185550,note_on,0,0,1,,,,,,,,,0,,,72,114
185550,note_on,60,0,1,,,,,,,,,0,,,74,0
185550,note_on,108,0,3,,,,,,,,,2,,,53,36
185562,note_on,12,0,1,,,,,,,,,0,,,72,0
185670,note_on,120,0,3,,,,,,,,,2,,,53,0
185670,note_on,108,0,1,,,,,,,,,0,,,69,75
185670,note_on,0,0,3,,,,,,,,,2,,,65,36
185670,note_on,0,0,3,,,,,,,,,2,,,60,36
185670,note_on,0,0,3,,,,,,,,,2,,,57,36
185682,note_on,0,0,3,,,,,,,,,2,,,57,0
185682,note_on,0,0,3,,,,,,,,,2,,,60,0
185682,note_on,12,0,1,,,,,,,,,0,,,69,0
185682,note_on,12,0,3,,,,,,,,,2,,,65,0
185790,note_on,0,0,3,,,,,,,,,2,,,60,36
185790,note_on,108,0,1,,,,,,,,,0,,,72,75
185790,note_on,108,0,3,,,,,,,,,2,,,57,36
185790,note_on,0,0,3,,,,,,,,,2,,,65,36
185802,note_on,12,0,1,,,,,,,,,0,,,72,0
185802,note_on,0,0,3,,,,,,,,,2,,,57,0
185802,note_on,12,0,3,,,,,,,,,2,,,65,0
185802,note_on,0,0,3,,,,,,,,,2,,,60,0
185910,note_on,0,0,1,,,,,,,,,0,,,79,114
185910,note_on,108,0,1,,,,,,,,,0,,,72,106
185910,note_on,108,0,3,,,,,,,,,2,,,48,36
185922,note_on,12,0,1,,,,,,,,,0,,,79,0
185922,note_on,0,0,1,,,,,,,,,0,,,72,0
186030,note_on,108,0,1,,,,,,,,,0,,,79,67
186030,note_on,0,0,3,,,,,,,,,2,,,60,36
186030,note_on,0,0,3,,,,,,,,,2,,,64,36
186030,note_on,0,0,3,,,,,,,,,2,,,58,36
186030,note_on,120,0,3,,,,,,,,,2,,,48,0
186030,note_on,0,0,1,,,,,,,,,0,,,82,75
186042,note_on,12,0,1,,,,,,,,,0,,,82,0
186042,note_on,12,0,3,,,,,,,,,2,,,64,0
186042,note_on,0,0,3,,,,,,,,,2,,,60,0
186042,note_on,0,0,1,,,,,,,,,0,,,79,0
186042,note_on,0,0,3,,,,,,,,,2,,,58,0
186150,note_on,108,0,1,,,,,,,,,0,,,72,67
186150,note_on,108,0,3,,,,,,,,,2,,,58,36
186150,note_on,0,0,1,,,,,,,,,0,,,79,75
186150,note_on,0,0,3,,,,,,,,,2,,,64,36
186150,note_on,0,0,3,,,,,,,,,2,,,60,36
186162,note_on,12,0,1,,,,,,,,,0,,,79,0
186162,note_on,12,0,3,,,,,,,,,2,,,64,0
186162,note_on,0,0,3,,,,,,,,,2,,,58,0
186162,note_on,0,0,1,,,,,,,,,0,,,72,0
186162,note_on,0,0,3,,,,,,,,,2,,,60,0
186270,note_on,0,0,1,,,,,,,,,0,,,84,75
186270,note_on,108,0,1,,,,,,,,,0,,,81,67
186270,note_on,108,0,3,,,,,,,,,2,,,53,36
186390,note_on,120,0,3,,,,,,,,,2,,,53,0
186390,note_on,0,0,1,,,,,,,,,0,,,81,0
186390,note_on,0,0,3,,,,,,,,,2,,,57,36
186390,note_on,120,0,1,,,,,,,,,0,,,84,0
186390,note_on,0,0,1,,,,,,,,,0,,,77,49
186390,note_on,0,0,1,,,,,,,,,0,,,81,49
186390,note_on,0,0,3,,,,,,,,,2,,,60,36
186390,note_on,0,0,3,,,,,,,,,2,,,65,36
186402,note_on,0,0,3,,,,,,,,,2,,,60,0
186402,note_on,0,0,3,,,,,,,,,2,,,57,0
186402,note_on,12,0,3,,,,,,,,,2,,,65,0
186450,note_on,60,0,1,,,,,,,,,0,,,81,0
186450,note_on,0,0,1,,,,,,,,,0,,,77,0
186510,note_on,108,0,3,,,,,,,,,2,,,57,36
186510,note_on,0,0,3,,,,,,,,,2,,,60,36
186510,note_on,0,0,3,,,,,,,,,2,,,65,36
186510,note_on,60,0,1,,,,,,,,,0,,,81,49
186522,note_on,0,0,3,,,,,,,,,2,,,60,0
186522,note_on,12,0,3,,,,,,,,,2,,,65,0
186522,note_on,0,0,3,,,,,,,,,2,,,57,0
186570,note_on,0,0,1,,,,,,,,,0,,,79,49
186570,note_on,60,0,1,,,,,,,,,0,,,81,0
186630,note_on,60,0,1,,,,,,,,,0,,,79,0
186630,note_on,0,0,1,,,,,,,,,0,,,77,49
186630,note_on,108,0,3,,,,,,,,,2,,,53,36
186690,note_on,60,0,1,,,,,,,,,0,,,77,0
186690,note_on,0,0,1,,,,,,,,,0,,,76,49
186750,note_on,0,0,3,,,,,,,,,2,,,65,36
186750,note_on,0,0,3,,,,,,,,,2,,,60,36
186750,note_on,0,0,1,,,,,,,,,0,,,74,49
186750,note_on,60,0,1,,,,,,,,,0,,,76,0
186750,note_on,120,0,3,,,,,,,,,2,,,53,0
186750,note_on,0,0,3,,,,,,,,,2,,,57,36
186762,note_on,0,0,3,,,,,,,,,2,,,57,0
186762,note_on,0,0,3,,,,,,,,,2,,,60,0
186762,note_on,12,0,3,,,,,,,,,2,,,65,0
186810,note_on,0,0,1,,,,,,,,,0,,,72,49
186810,note_on,60,0,1,,,,,,,,,0,,,74,0
186870,note_on,0,0,3,,,,,,,,,2,,,65,36
186870,note_on,0,0,3,,,,,,,,,2,,,59,36
186870,note_on,108,0,3,,,,,,,,,2,,,56,36
186870,note_on,0,0,1,,,,,,,,,0,,,71,49
186870,note_on,60,0,1,,,,,,,,,0,,,72,0
186882,note_on,0,0,3,,,,,,,,,2,,,56,0
186882,note_on,12,0,3,,,,,,,,,2,,,65,0
186882,note_on,0,0,3,,,,,,,,,2,,,59,0
186930,note_on,60,0,1,,,,,,,,,0,,,71,0
186930,note_on,0,0,1,,,,,,,,,0,,,74,49
186990,note_on,60,0,1,,,,,,,,,0,,,74,0
186990,note_on,0,0,1,,,,,,,,,0,,,72,114
186990,note_on,108,0,3,,,,,,,,,2,,,53,36
187002,note_on,12,0,1,,,,,,,,,0,,,72,0
187110,note_on,108,0,1,,,,,,,,,0,,,69,75
187110,note_on,0,0,3,,,,,,,,,2,,,57,36
187110,note_on,0,0,3,,,,,,,,,2,,,60,36
187110,note_on,0,0,3,,,,,,,,,2,,,65,36
187110,note_on,120,0,3,,,,,,,,,2,,,53,0
187122,note_on,12,0,3,,,,,,,,,2,,,65,0
187122,note_on,12,0,1,,,,,,,,,0,,,69,0
187122,note_on,0,0,3,,,,,,,,,2,,,57,0
187122,note_on,0,0,3,,,,,,,,,2,,,60,0
187230,note_on,0,0,3,,,,,,,,,2,,,60,36
187230,note_on,0,0,3,,,,,,,,,2,,,65,36
187230,note_on,108,0,3,,,,,,,,,2,,,57,36
187230,note_on,108,0,1,,,,,,,,,0,,,72,75
187242,note_on,0,0,3,,,,,,,,,2,,,57,0
187242,note_on,12,0,3,,,,,,,,,2,,,65,0
187242,note_on,12,0,1,,,,,,,,,0,,,72,0
187242,note_on,0,0,3,,,,,,,,,2,,,60,0
187350,note_on,0,0,1,,,,,,,,,0,,,79,114
187350,note_on,108,0,1,,,,,,,,,0,,,72,106
187350,note_on,108,0,3,,,,,,,,,2,,,48,36
187362,note_on,12,0,1,,,,,,,,,0,,,79,0
187362,note_on,0,0,1,,,,,,,,,0,,,72,0
187470,note_on,120,0,3,,,,,,,,,2,,,48,0
187470,note_on,108,0,1,,,,,,,,,0,,,79,67
187470,note_on,0,0,1,,,,,,,,,0,,,82,75
187470,note_on,0,0,3,,,,,,,,,2,,,64,36
187470,note_on,0,0,3,,,,,,,,,2,,,58,36
187470,note_on,0,0,3,,,,,,,,,2,,,60,36
187482,note_on,12,0,1,,,,,,,,,0,,,82,0
187482,note_on,0,0,1,,,,,,,,,0,,,79,0
187482,note_on,12,0,3,,,,,,,,,2,,,64,0
187482,note_on,0,0,3,,,,,,,,,2,,,60,0
187482,note_on,0,0,3,,,,,,,,,2,,,58,0
187590,note_on,108,0,3,,,,,,,,,2,,,58,36
187590,note_on,0,0,3,,,,,,,,,2,,,60,36
187590,note_on,0,0,3,,,,,,,,,2,,,64,36
187590,note_on,108,0,1,,,,,,,,,0,,,72,67
187590,note_on,0,0,1,,,,,,,,,0,,,79,75
187602,note_on,0,0,1,,,,,,,,,0,,,72,0
187602,note_on,0,0,3,,,,,,,,,2,,,58,0
187602,note_on,0,0,3,,,,,,,,,2,,,60,0
187602,note_on,12,0,3,,,,,,,,,2,,,64,0
187602,note_on,12,0,1,,,,,,,,,0,,,79,0
187710,time_signature,2520,1,0,2,4,24,8,,,,,,,,,
187710,note_on,108,0,1,,,,,,,,,0,,,69,49
187710,note_on,0,0,1,,,,,,,,,0,,,77,49
187710,note_on,108,0,3,,,,,,,,,2,,,53,36
187830,note_on,120,0,3,,,,,,,,,2,,,53,0
187830,note_on,0,0,3,,,,,,,,,2,,,65,36
187830,note_on,0,0,3,,,,,,,,,2,,,57,36
187830,note_on,0,0,3,,,,,,,,,2,,,60,36
187950,note_on,240,0,1,,,,,,,,,0,,,77,0
187950,note_on,0,0,1,,,,,,,,,0,,,77,88
187950,time_signature,240,1,0,1,4,24,8,,,,,,,,,
187950,note_on,0,0,1,,,,,,,,,0,,,69,0
187950,note_on,120,0,3,,,,,,,,,2,,,65,0
187950,note_on,0,0,3,,,,,,,,,2,,,60,0
187950,note_on,0,0,3,,,,,,,,,2,,,57,0
188010,note_on,60,0,1,,,,,,,,,0,,,77,0
188010,note_on,0,0,1,,,,,,,,,0,,,79,88
188070,time_signature,120,1,0,3,4,24,8,,,,,,,,,
188070,note_on,120,0,3,,,,,,,,,2,,,50,75
188070,note_on,60,0,1,,,,,,,,,0,,,79,0
188070,note_on,0,0,1,,,,,,,,,0,,,81,114
188130,note_on,0,0,1,,,,,,,,,0,,,82,88
188130,note_on,60,0,1,,,,,,,,,0,,,81,0
188190,note_on,0,0,3,,,,,,,,,2,,,65,75
188190,note_on,0,0,3,,,,,,,,,2,,,62,75
188190,note_on,0,0,3,,,,,,,,,2,,,57,75
188190,note_on,120,0,3,,,,,,,,,2,,,50,0
188190,note_on,60,0,1,,,,,,,,,0,,,82,0
188190,note_on,0,0,1,,,,,,,,,0,,,81,88
188202,note_on,0,0,3,,,,,,,,,2,,,57,0
188202,note_on,0,0,3,,,,,,,,,2,,,62,0
188202,note_on,12,0,3,,,,,,,,,2,,,65,0
188250,note_on,60,0,1,,,,,,,,,0,,,81,0
188250,note_on,0,0,1,,,,,,,,,0,,,79,88
188310,note_on,0,0,3,,,,,,,,,2,,,65,75
188310,note_on,60,0,1,,,,,,,,,0,,,79,0
188310,note_on,0,0,1,,,,,,,,,0,,,77,88
188310,note_on,0,0,3,,,,,,,,,2,,,62,75
188310,note_on,108,0,3,,,,,,,,,2,,,57,75
188322,note_on,0,0,3,,,,,,,,,2,,,62,0
188322,note_on,0,0,3,,,,,,,,,2,,,57,0
188322,note_on,12,0,3,,,,,,,,,2,,,65,0
188370,note_on,0,0,1,,,,,,,,,0,,,76,88
188370,note_on,60,0,1,,,,,,,,,0,,,77,0
188430,note_on,108,0,3,,,,,,,,,2,,,50,75
188430,note_on,0,0,1,,,,,,,,,0,,,77,114
188430,note_on,60,0,1,,,,,,,,,0,,,76,0
188490,note_on,60,0,1,,,,,,,,,0,,,77,0
188490,note_on,0,0,1,,,,,,,,,0,,,79,88
188550,note_on,120,0,3,,,,,,,,,2,,,50,0
188550,note_on,60,0,1,,,,,,,,,0,,,79,0
188550,note_on,0,0,3,,,,,,,,,2,,,65,75
188550,note_on,0,0,1,,,,,,,,,0,,,77,88
188550,note_on,0,0,3,,,,,,,,,2,,,57,75
188550,note_on,0,0,3,,,,,,,,,2,,,62,75
188562,note_on,12,0,3,,,,,,,,,2,,,65,0
188562,note_on,0,0,3,,,,,,,,,2,,,57,0
188562,note_on,0,0,3,,,,,,,,,2,,,62,0
188610,note_on,60,0,1,,,,,,,,,0,,,77,0
188610,note_on,0,0,1,,,,,,,,,0,,,76,88
188670,note_on,0,0,3,,,,,,,,,2,,,65,75
188670,note_on,0,0,3,,,,,,,,,2,,,62,75
188670,note_on,60,0,1,,,,,,,,,0,,,76,0
188670,note_on,0,0,1,,,,,,,,,0,,,74,88
188670,note_on,108,0,3,,,,,,,,,2,,,57,75
188682,note_on,0,0,3,,,,,,,,,2,,,57,0
188682,note_on,0,0,3,,,,,,,,,2,,,62,0
188682,note_on,12,0,3,,,,,,,,,2,,,65,0
188730,note_on,60,0,1,,,,,,,,,0,,,74,0
188730,note_on,0,0,1,,,,,,,,,0,,,77,88
188790,note_on,0,0,1,,,,,,,,,0,,,81,88
188790,note_on,108,0,3,,,,,,,,,2,,,50,75
188790,note_on,60,0,1,,,,,,,,,0,,,77,0
188850,note_on,0,0,1,,,,,,,,,0,,,82,88
188850,note_on,60,0,1,,,,,,,,,0,,,81,0
188910,note_on,0,0,3,,,,,,,,,2,,,65,75
188910,note_on,0,0,1,,,,,,,,,0,,,81,88
188910,note_on,60,0,1,,,,,,,,,0,,,82,0
188910,note_on,120,0,3,,,,,,,,,2,,,50,0
188910,note_on,0,0,3,,,,,,,,,2,,,57,75
188910,note_on,0,0,3,,,,,,,,,2,,,62,75
188922,note_on,0,0,3,,,,,,,,,2,,,62,0
188922,note_on,0,0,3,,,,,,,,,2,,,57,0
188922,note_on,12,0,3,,,,,,,,,2,,,65,0
188970,note_on,0,0,1,,,,,,,,,0,,,86,88
188970,note_on,60,0,1,,,,,,,,,0,,,81,0
189030,note_on,108,0,3,,,,,,,,,2,,,57,75
189030,note_on,0,0,3,,,,,,,,,2,,,64,75
189030,note_on,0,0,3,,,,,,,,,2,,,67,75
189030,note_on,0,0,1,,,,,,,,,0,,,81,88
189030,note_on,60,0,1,,,,,,,,,0,,,86,0
189042,note_on,0,0,3,,,,,,,,,2,,,57,0
189042,note_on,0,0,3,,,,,,,,,2,,,64,0
189042,note_on,12,0,3,,,,,,,,,2,,,67,0
189090,note_on,60,0,1,,,,,,,,,0,,,81,0
189090,note_on,0,0,1,,,,,,,,,0,,,85,88
189090,note_on,0,0,1,,,,,,,,,0,,,88,88
189150,note_on,0,0,1,,,,,,,,,0,,,85,0
189150,note_on,0,0,1,,,,,,,,,0,,,86,106
189150,note_on,0,0,1,,,,,,,,,0,,,89,114
189150,note_on,108,0,3,,,,,,,,,2,,,50,75
189150,note_on,60,0,1,,,,,,,,,0,,,88,0
189270,note_on,0,0,3,,,,,,,,,2,,,57,75
189270,note_on,0,0,3,,,,,,,,,2,,,62,75
189270,note_on,120,0,3,,,,,,,,,2,,,50,0
189270,note_on,0,0,3,,,,,,,,,2,,,65,75
189282,note_on,12,0,3,,,,,,,,,2,,,65,0
189282,note_on,0,0,3,,,,,,,,,2,,,62,0
189282,note_on,0,0,3,,,,,,,,,2,,,57,0
189390,note_on,108,0,3,,,,,,,,,2,,,57,75
189390,note_on,0,0,3,,,,,,,,,2,,,62,75
189390,note_on,0,0,3,,,,,,,,,2,,,65,75
189390,note_on,0,0,1,,,,,,,,,0,,,86,0
189390,note_on,240,0,1,,,,,,,,,0,,,89,0
189390,note_on,0,0,1,,,,,,,,,0,,,77,88
189402,note_on,12,0,3,,,,,,,,,2,,,65,0
189402,note_on,0,0,3,,,,,,,,,2,,,62,0
189402,note_on,0,0,3,,,,,,,,,2,,,57,0
189450,note_on,60,0,1,,,,,,,,,0,,,77,0
189450,note_on,0,0,1,,,,,,,,,0,,,79,88
189510,note_on,0,0,1,,,,,,,,,0,,,81,114
189510,note_on,60,0,1,,,,,,,,,0,,,79,0
189510,note_on,108,0,3,,,,,,,,,2,,,50,75
189570,note_on,0,0,1,,,,,,,,,0,,,82,88
189570,note_on,60,0,1,,,,,,,,,0,,,81,0
189630,note_on,0,0,3,,,,,,,,,2,,,62,75
189630,note_on,0,0,3,,,,,,,,,2,,,57,75
189630,note_on,120,0,3,,,,,,,,,2,,,50,0
189630,note_on,0,0,3,,,,,,,,,2,,,65,75
189630,note_on,0,0,1,,,,,,,,,0,,,81,88
189630,note_on,60,0,1,,,,,,,,,0,,,82,0
189642,note_on,0,0,3,,,,,,,,,2,,,62,0
189642,note_on,12,0,3,,,,,,,,,2,,,65,0
189642,note_on,0,0,3,,,,,,,,,2,,,57,0
189690,note_on,0,0,1,,,,,,,,,0,,,79,88
189690,note_on,60,0,1,,,,,,,,,0,,,81,0
189750,note_on,108,0,3,,,,,,,,,2,,,57,75
189750,note_on,0,0,3,,,,,,,,,2,,,65,75
189750,note_on,0,0,1,,,,,,,,,0,,,77,88
189750,note_on,60,0,1,,,,,,,,,0,,,79,0
189750,note_on,0,0,3,,,,,,,,,2,,,62,75
189762,note_on,12,0,3,,,,,,,,,2,,,65,0
189762,note_on,0,0,3,,,,,,,,,2,,,62,0
189762,note_on,0,0,3,,,,,,,,,2,,,57,0
189810,note_on,60,0,1,,,,,,,,,0,,,77,0
189810,note_on,0,0,1,,,,,,,,,0,,,76,88
189870,note_on,0,0,1,,,,,,,,,0,,,77,114
189870,note_on,60,0,1,,,,,,,,,0,,,76,0
189870,note_on,108,0,3,,,,,,,,,2,,,50,75
189930,note_on,0,0,1,,,,,,,,,0,,,79,88
189930,note_on,60,0,1,,,,,,,,,0,,,77,0
189990,note_on,0,0,1,,,,,,,,,0,,,77,88
189990,note_on,0,0,3,,,,,,,,,2,,,65,75
189990,note_on,0,0,3,,,,,,,,,2,,,62,75
189990,note_on,0,0,3,,,,,,,,,2,,,57,75
189990,note_on,120,0,3,,,,,,,,,2,,,50,0
189990,note_on,60,0,1,,,,,,,,,0,,,79,0
190002,note_on,0,0,3,,,,,,,,,2,,,62,0
190002,note_on,12,0,3,,,,,,,,,2,,,65,0
190002,note_on,0,0,3,,,,,,,,,2,,,57,0
190050,note_on,60,0,1,,,,,,,,,0,,,77,0
190050,note_on,0,0,1,,,,,,,,,0,,,76,88
190110,note_on,0,0,3,,,,,,,,,2,,,65,75
190110,note_on,0,0,3,,,,,,,,,2,,,62,75
190110,note_on,108,0,3,,,,,,,,,2,,,57,75
190110,note_on,0,0,1,,,,,,,,,0,,,74,88
190110,note_on,60,0,1,,,,,,,,,0,,,76,0
190122,note_on,0,0,3,,,,,,,,,2,,,57,0
190122,note_on,12,0,3,,,,,,,,,2,,,65,0
190122,note_on,0,0,3,,,,,,,,,2,,,62,0
190170,note_on,0,0,1,,,,,,,,,0,,,77,88
190170,note_on,60,0,1,,,,,,,,,0,,,74,0
190230,note_on,0,0,1,,,,,,,,,0,,,81,88
190230,note_on,60,0,1,,,,,,,,,0,,,77,0
190230,note_on,108,0,3,,,,,,,,,2,,,50,75
190290,note_on,60,0,1,,,,,,,,,0,,,81,0
190290,note_on,0,0,1,,,,,,,,,0,,,82,88
190350,note_on,60,0,1,,,,,,,,,0,,,82,0
190350,note_on,0,0,3,,,,,,,,,2,,,65,75
190350,note_on,0,0,3,,,,,,,,,2,,,62,75
190350,note_on,0,0,3,,,,,,,,,2,,,57,75
190350,note_on,120,0,3,,,,,,,,,2,,,50,0
190350,note_on,0,0,1,,,,,,,,,0,,,81,88
190362,note_on,0,0,3,,,,,,,,,2,,,62,0
190362,note_on,0,0,3,,,,,,,,,2,,,57,0
190362,note_on,12,0,3,,,,,,,,,2,,,65,0
190410,note_on,60,0,1,,,,,,,,,0,,,81,0
190410,note_on,0,0,1,,,,,,,,,0,,,86,88
190470,note_on,0,0,1,,,,,,,,,0,,,81,88
190470,note_on,0,0,3,,,,,,,,,2,,,67,75
190470,note_on,0,0,3,,,,,,,,,2,,,64,75
190470,note_on,60,0,1,,,,,,,,,0,,,86,0
190470,note_on,108,0,3,,,,,,,,,2,,,57,75
190482,note_on,0,0,3,,,,,,,,,2,,,57,0
190482,note_on,0,0,3,,,,,,,,,2,,,64,0
190482,note_on,12,0,3,,,,,,,,,2,,,67,0
190530,note_on,60,0,1,,,,,,,,,0,,,81,0
190530,note_on,0,0,1,,,,,,,,,0,,,85,88
190530,note_on,0,0,1,,,,,,,,,0,,,88,88
190590,note_on,108,0,3,,,,,,,,,2,,,50,75
190590,note_on,0,0,1,,,,,,,,,0,,,86,114
190590,note_on,0,0,1,,,,,,,,,0,,,85,0
190590,note_on,60,0,1,,,,,,,,,0,,,88,0
190710,note_on,0,0,3,,,,,,,,,2,,,65,75
190710,note_on,120,0,3,,,,,,,,,2,,,50,0
190710,note_on,0,0,3,,,,,,,,,2,,,57,75
190710,note_on,0,0,3,,,,,,,,,2,,,62,75
190830,note_on,120,0,3,,,,,,,,,2,,,65,0
190830,note_on,0,0,3,,,,,,,,,2,,,62,0
190830,note_on,0,0,3,,,,,,,,,2,,,57,0
190830,note_on,0,0,1,,,,,,,,,0,,,81,49
190830,note_on,240,0,1,,,,,,,,,0,,,86,0
190890,note_on,60,0,1,,,,,,,,,0,,,81,0
190890,note_on,0,0,1,,,,,,,,,0,,,79,49
190950,note_on,0,0,1,,,,,,,,,0,,,77,49
190950,note_on,120,0,3,,,,,,,,,2,,,53,36
190950,note_on,60,0,1,,,,,,,,,0,,,79,0
191010,note_on,60,0,1,,,,,,,,,0,,,77,0
191010,note_on,0,0,1,,,,,,,,,0,,,76,49
191070,note_on,0,0,3,,,,,,,,,2,,,57,36
191070,note_on,120,0,3,,,,,,,,,2,,,53,0
191070,note_on,60,0,1,,,,,,,,,0,,,76,0
191070,note_on,0,0,1,,,,,,,,,0,,,74,49
191070,note_on,0,0,3,,,,,,,,,2,,,65,36
191070,note_on,0,0,3,,,,,,,,,2,,,60,36
191082,note_on,12,0,3,,,,,,,,,2,,,65,0
191082,note_on,0,0,3,,,,,,,,,2,,,60,0
191082,note_on,0,0,3,,,,,,,,,2,,,57,0
191130,note_on,60,0,1,,,,,,,,,0,,,74,0
191130,note_on,0,0,1,,,,,,,,,0,,,72,49
191190,note_on,60,0,1,,,,,,,,,0,,,72,0
191190,note_on,0,0,1,,,,,,,,,0,,,71,49
191190,note_on,0,0,3,,,,,,,,,2,,,65,36
191190,note_on,108,0,3,,,,,,,,,2,,,56,36
191190,note_on,0,0,3,,,,,,,,,2,,,59,36
191202,note_on,0,0,3,,,,,,,,,2,,,56,0
191202,note_on,0,0,3,,,,,,,,,2,,,59,0
191202,note_on,12,0,3,,,,,,,,,2,,,65,0
191250,note_on,60,0,1,,,,,,,,,0,,,71,0
191250,note_on,0,0,1,,,,,,,,,0,,,74,49
191310,note_on,108,0,3,,,,,,,,,2,,,53,36
191310,note_on,60,0,1,,,,,,,,,0,,,74,0
191310,note_on,0,0,1,,,,,,,,,0,,,72,114
191322,note_on,12,0,1,,,,,,,,,0,,,72,0
191430,note_on,0,0,3,,,,,,,,,2,,,65,36
191430,note_on,0,0,3,,,,,,,,,2,,,60,36
191430,note_on,0,0,3,,,,,,,,,2,,,57,36
191430,note_on,120,0,3,,,,,,,,,2,,,53,0
191430,note_on,108,0,1,,,,,,,,,0,,,69,75
191442,note_on,12,0,1,,,,,,,,,0,,,69,0
191442,note_on,0,0,3,,,,,,,,,2,,,57,0
191442,note_on,0,0,3,,,,,,,,,2,,,60,0
191442,note_on,12,0,3,,,,,,,,,2,,,65,0
191550,note_on,0,0,3,,,,,,,,,2,,,60,36
191550,note_on,108,0,3,,,,,,,,,2,,,57,36
191550,note_on,0,0,3,,,,,,,,,2,,,65,36
191550,note_on,108,0,1,,,,,,,,,0,,,72,75
191562,note_on,0,0,3,,,,,,,,,2,,,57,0
191562,note_on,0,0,3,,,,,,,,,2,,,60,0
191562,note_on,12,0,3,,,,,,,,,2,,,65,0
191562,note_on,12,0,1,,,,,,,,,0,,,72,0
191670,note_on,108,0,3,,,,,,,,,2,,,48,36
191670,note_on,108,0,1,,,,,,,,,0,,,72,106
191670,note_on,0,0,1,,,,,,,,,0,,,79,114
191682,note_on,0,0,1,,,,,,,,,0,,,72,0
191682,note_on,12,0,1,,,,,,,,,0,,,79,0
191790,note_on,0,0,3,,,,,,,,,2,,,64,36
191790,note_on,0,0,3,,,,,,,,,2,,,60,36
191790,note_on,0,0,3,,,,,,,,,2,,,58,36
191790,note_on,120,0,3,,,,,,,,,2,,,48,0
191790,note_on,108,0,1,,,,,,,,,0,,,79,67
191790,note_on,0,0,1,,,,,,,,,0,,,82,75
191802,note_on,0,0,3,,,,,,,,,2,,,58,0
191802,note_on,0,0,3,,,,,,,,,2,,,60,0
191802,note_on,0,0,1,,,,,,,,,0,,,79,0
191802,note_on,12,0,1,,,,,,,,,0,,,82,0
191802,note_on,12,0,3,,,,,,,,,2,,,64,0
191910,note_on,0,0,3,,,,,,,,,2,,,60,36
191910,note_on,0,0,3,,,,,,,,,2,,,64,36
191910,note_on,108,0,3,,,,,,,,,2,,,58,36
191910,note_on,0,0,1,,,,,,,,,0,,,79,75
191910,note_on,108,0,1,,,,,,,,,0,,,72,67
191922,note_on,0,0,1,,,,,,,,,0,,,72,0
191922,note_on,12,0,1,,,,,,,,,0,,,79,0
191922,note_on,0,0,3,,,,,,,,,2,,,60,0
191922,note_on,0,0,3,,,,,,,,,2,,,58,0
191922,note_on,12,0,3,,,,,,,,,2,,,64,0
192030,note_on,108,0,1,,,,,,,,,0,,,81,67
192030,note_on,108,0,3,,,,,,,,,2,,,53,36
192030,note_on,0,0,1,,,,,,,,,0,,,84,75
192150,note_on,0,0,3,,,,,,,,,2,,,65,36
192150,note_on,0,0,3,,,,,,,,,2,,,60,36
192150,note_on,0,0,3,,,,,,,,,2,,,57,36
192150,note_on,120,0,3,,,,,,,,,2,,,53,0
192150,note_on,0,0,1,,,,,,,,,0,,,81,49
192150,note_on,0,0,1,,,,,,,,,0,,,77,49
192150,note_on,0,0,1,,,,,,,,,0,,,81,0
192150,note_on,120,0,1,,,,,,,,,0,,,84,0
192162,note_on,0,0,3,,,,,,,,,2,,,60,0
192162,note_on,0,0,3,,,,,,,,,2,,,57,0
192162,note_on,12,0,3,,,,,,,,,2,,,65,0
192210,note_on,60,0,1,,,,,,,,,0,,,81,0
192210,note_on,0,0,1,,,,,,,,,0,,,77,0
192270,note_on,60,0,1,,,,,,,,,0,,,81,49
192270,note_on,108,0,3,,,,,,,,,2,,,57,36
192270,note_on,0,0,3,,,,,,,,,2,,,60,36
192270,note_on,0,0,3,,,,,,,,,2,,,65,36
192282,note_on,0,0,3,,,,,,,,,2,,,57,0
192282,note_on,12,0,3,,,,,,,,,2,,,65,0
192282,note_on,0,0,3,,,,,,,,,2,,,60,0
192330,note_on,60,0,1,,,,,,,,,0,,,81,0
192330,note_on,0,0,1,,,,,,,,,0,,,79,49
192390,note_on,60,0,1,,,,,,,,,0,,,79,0
192390,note_on,0,0,1,,,,,,,,,0,,,77,49
192390,note_on,108,0,3,,,,,,,,,2,,,53,36
192450,note_on,60,0,1,,,,,,,,,0,,,77,0
192450,note_on,0,0,1,,,,,,,,,0,,,76,49
192510,note_on,0,0,1,,,,,,,,,0,,,74,49
192510,note_on,60,0,1,,,,,,,,,0,,,76,0
192510,note_on,0,0,3,,,,,,,,,2,,,57,36
192510,note_on,0,0,3,,,,,,,,,2,,,60,36
192510,note_on,120,0,3,,,,,,,,,2,,,53,0
192510,note_on,0,0,3,,,,,,,,,2,,,65,36
192522,note_on,12,0,3,,,,,,,,,2,,,65,0
192522,note_on,0,0,3,,,,,,,,,2,,,60,0
192522,note_on,0,0,3,,,,,,,,,2,,,57,0
192570,note_on,60,0,1,,,,,,,,,0,,,74,0
192570,note_on,0,0,1,,,,,,,,,0,,,72,49
192630,note_on,0,0,3,,,,,,,,,2,,,59,36
192630,note_on,0,0,3,,,,,,,,,2,,,65,36
192630,note_on,108,0,3,,,,,,,,,2,,,56,36
192630,note_on,0,0,1,,,,,,,,,0,,,71,49
192630,note_on,60,0,1,,,,,,,,,0,,,72,0
192642,note_on,12,0,3,,,,,,,,,2,,,65,0
192642,note_on,0,0,3,,,,,,,,,2,,,59,0
192642,note_on,0,0,3,,,,,,,,,2,,,56,0
192690,note_on,60,0,1,,,,,,,,,0,,,71,0
192690,note_on,0,0,1,,,,,,,,,0,,,74,49
192750,note_on,108,0,3,,,,,,,,,2,,,53,36
192750,note_on,0,0,1,,,,,,,,,0,,,72,114
192750,note_on,60,0,1,,,,,,,,,0,,,74,0
192762,note_on,12,0,1,,,,,,,,,0,,,72,0
192870,note_on,0,0,3,,,,,,,,,2,,,60,36
192870,note_on,120,0,3,,,,,,,,,2,,,53,0
192870,note_on,0,0,3,,,,,,,,,2,,,57,36
192870,note_on,0,0,3,,,,,,,,,2,,,65,36
192870,note_on,108,0,1,,,,,,,,,0,,,69,75
192882,note_on,0,0,3,,,,,,,,,2,,,57,0
192882,note_on,0,0,3,,,,,,,,,2,,,60,0
192882,note_on,12,0,3,,,,,,,,,2,,,65,0
192882,note_on,12,0,1,,,,,,,,,0,,,69,0
192990,note_on,108,0,1,,,,,,,,,0,,,72,75
192990,note_on,108,0,3,,,,,,,,,2,,,57,36
192990,note_on,0,0,3,,,,,,,,,2,,,60,36
192990,note_on,0,0,3,,,,,,,,,2,,,65,36
193002,note_on,0,0,3,,,,,,,,,2,,,57,0
193002,note_on,12,0,1,,,,,,,,,0,,,72,0
193002,note_on,0,0,3,,,,,,,,,2,,,60,0
193002,note_on,12,0,3,,,,,,,,,2,,,65,0
193110,note_on,108,0,3,,,,,,,,,2,,,48,36
193110,note_on,108,0,1,,,,,,,,,0,,,72,106
193110,note_on,0,0,1,,,,,,,,,0,,,79,114
193122,note_on,0,0,1,,,,,,,,,0,,,72,0
193122,note_on,12,0,1,,,,,,,,,0,,,79,0
193230,note_on,0,0,3,,,,,,,,,2,,,58,36
193230,note_on,120,0,3,,,,,,,,,2,,,48,0
193230,note_on,108,0,1,,,,,,,,,0,,,79,67
193230,note_on,0,0,1,,,,,,,,,0,,,82,75
193230,note_on,0,0,3,,,,,,,,,2,,,60,36
193230,note_on,0,0,3,,,,,,,,,2,,,64,36
193242,note_on,0,0,3,,,,,,,,,2,,,58,0
193242,note_on,0,0,3,,,,,,,,,2,,,60,0
193242,note_on,0,0,1,,,,,,,,,0,,,79,0
193242,note_on,12,0,1,,,,,,,,,0,,,82,0
193242,note_on,12,0,3,,,,,,,,,2,,,64,0
193350,note_on,108,0,3,,,,,,,,,2,,,58,36
193350,note_on,0,0,3,,,,,,,,,2,,,60,36
193350,note_on,0,0,1,,,,,,,,,0,,,79,75
193350,note_on,108,0,1,,,,,,,,,0,,,72,67
193350,note_on,0,0,3,,,,,,,,,2,,,64,36
193362,note_on,12,0,1,,,,,,,,,0,,,79,0
193362,note_on,12,0,3,,,,,,,,,2,,,64,0
193362,note_on,0,0,3,,,,,,,,,2,,,60,0
193362,note_on,0,0,3,,,,,,,,,2,,,58,0
193362,note_on,0,0,1,,,,,,,,,0,,,72,0
193470,note_on,108,0,1,,,,,,,,,0,,,69,49
193470,note_on,0,0,1,,,,,,,,,0,,,77,49
193470,note_on,108,0,3,,,,,,,,,2,,,53,36
193470,time_signature,5400,1,0,2,4,24,8,,,,,,,,,
193590,note_on,120,0,3,,,,,,,,,2,,,53,0
193590,note_on,0,0,3,,,,,,,,,2,,,57,36
193590,note_on,0,0,3,,,,,,,,,2,,,60,36
193590,note_on,0,0,3,,,,,,,,,2,,,65,36
193710,time_signature,240,1,0,1,4,24,8,,,,,,,,,
193710,key_signature,0,1,0,,,,,C,,,,,,,,
193710,note_on,0,0,1,,,,,,,,,0,,,69,0
193710,note_on,120,0,3,,,,,,,,,2,,,65,0
193710,note_on,0,0,3,,,,,,,,,2,,,60,0
193710,note_on,0,0,3,,,,,,,,,2,,,57,0
193710,note_on,0,0,1,,,,,,,,,0,,,79,101
193710,note_on,240,0,1,,,,,,,,,0,,,77,0
193830,note_on,0,0,1,,,,,,,,,0,,,84,114
193830,note_on,0,0,1,,,,,,,,,0,,,79,114
193830,note_on,0,0,1,,,,,,,,,0,,,76,114
193830,note_on,0,0,1,,,,,,,,,0,,,72,114
193830,note_on,120,0,1,,,,,,,,,0,,,79,0
193830,note_on,0,0,3,,,,,,,,,2,,,48,101
193830,note_on,120,0,3,,,,,,,,,2,,,36,101
193830,time_signature,120,1,0,3,4,24,8,,,,,,,,,
193950,note_on,0,0,1,,,,,,,,,0,,,72,0
193950,note_on,0,0,3,,,,,,,,,2,,,58,101
193950,note_on,0,0,3,,,,,,,,,2,,,55,101
193950,note_on,0,0,3,,,,,,,,,2,,,48,101
193950,note_on,0,0,3,,,,,,,,,2,,,36,0
193950,note_on,120,0,1,,,,,,,,,0,,,84,0
193950,note_on,0,0,1,,,,,,,,,0,,,76,0
193950,note_on,0,0,1,,,,,,,,,0,,,79,0
193950,note_on,0,0,1,,,,,,,,,0,,,72,114
193950,note_on,0,0,1,,,,,,,,,0,,,84,114
193950,note_on,120,0,3,,,,,,,,,2,,,48,0
193950,note_on,0,0,1,,,,,,,,,0,,,76,114
193950,note_on,0,0,1,,,,,,,,,0,,,79,114
194010,note_on,0,0,3,,,,,,,,,2,,,58,101
194010,note_on,0,0,3,,,,,,,,,2,,,55,101
194010,note_on,0,0,3,,,,,,,,,2,,,48,101
194010,note_on,0,0,3,,,,,,,,,2,,,48,0
194010,note_on,0,0,3,,,,,,,,,2,,,55,0
194010,note_on,0,0,1,,,,,,,,,0,,,84,114
194010,note_on,60,0,3,,,,,,,,,2,,,58,0
194010,note_on,0,0,1,,,,,,,,,0,,,76,114
194010,note_on,0,0,1,,,,,,,,,0,,,72,114
194010,note_on,0,0,1,,,,,,,,,0,,,79,0
194010,note_on,0,0,1,,,,,,,,,0,,,76,0
194010,note_on,0,0,1,,,,,,,,,0,,,72,0
194010,note_on,60,0,1,,,,,,,,,0,,,84,0
194010,note_on,0,0,1,,,,,,,,,0,,,79,114
194070,note_on,0,0,3,,,,,,,,,2,,,55,101
194070,note_on,0,0,1,,,,,,,,,0,,,84,114
194070,note_on,60,0,3,,,,,,,,,2,,,58,0
194070,note_on,0,0,3,,,,,,,,,2,,,55,0
194070,note_on,0,0,3,,,,,,,,,2,,,48,0
194070,note_on,0,0,3,,,,,,,,,2,,,48,101
194070,note_on,0,0,1,,,,,,,,,0,,,79,114
194070,note_on,0,0,3,,,,,,,,,2,,,58,101
194070,note_on,60,0,1,,,,,,,,,0,,,84,0
194070,note_on,0,0,1,,,,,,,,,0,,,72,0
194070,note_on,0,0,1,,,,,,,,,0,,,76,0
194070,note_on,0,0,1,,,,,,,,,0,,,79,0
194070,note_on,0,0,1,,,,,,,,,0,,,72,114
194070,note_on,0,0,1,,,,,,,,,0,,,76,114
194190,note_on,0,0,3,,,,,,,,,2,,,53,101
194190,note_on,0,0,1,,,,,,,,,0,,,81,114
194190,note_on,0,0,1,,,,,,,,,0,,,77,114
194190,note_on,0,0,1,,,,,,,,,0,,,72,114
194190,note_on,0,0,1,,,,,,,,,0,,,79,0
194190,note_on,0,0,1,,,,,,,,,0,,,76,0
194190,note_on,0,0,1,,,,,,,,,0,,,72,0
194190,note_on,120,0,1,,,,,,,,,0,,,84,0
194190,note_on,0,0,3,,,,,,,,,2,,,41,101
194190,note_on,0,0,3,,,,,,,,,2,,,48,0
194190,note_on,0,0,3,,,,,,,,,2,,,55,0
194190,note_on,120,0,3,,,,,,,,,2,,,58,0
194310,note_on,120,0,1,,,,,,,,,0,,,81,0
194310,note_on,0,0,1,,,,,,,,,0,,,77,114
194310,note_on,0,0,1,,,,,,,,,0,,,81,114
194310,note_on,0,0,1,,,,,,,,,0,,,77,0
194310,note_on,0,0,1,,,,,,,,,0,,,72,114
194310,note_on,0,0,3,,,,,,,,,2,,,45,101
194310,note_on,0,0,3,,,,,,,,,2,,,57,101
194310,note_on,120,0,3,,,,,,,,,2,,,53,0
194310,note_on,0,0,1,,,,,,,,,0,,,72,0
194310,note_on,0,0,3,,,,,,,,,2,,,41,0
194430,note_on,0,0,3,,,,,,,,,2,,,53,101
194430,note_on,0,0,1,,,,,,,,,0,,,81,114
194430,note_on,0,0,1,,,,,,,,,0,,,77,114
194430,note_on,0,0,1,,,,,,,,,0,,,72,114
194430,note_on,0,0,1,,,,,,,,,0,,,72,0
194430,note_on,120,0,3,,,,,,,,,2,,,57,0
194430,note_on,0,0,1,,,,,,,,,0,,,77,0
194430,note_on,120,0,1,,,,,,,,,0,,,81,0
194430,note_on,0,0,3,,,,,,,,,2,,,45,0
194430,note_on,0,0,3,,,,,,,,,2,,,41,101
194550,note_on,0,0,3,,,,,,,,,2,,,50,101
194550,note_on,0,0,3,,,,,,,,,2,,,41,0
194550,note_on,0,0,3,,,,,,,,,2,,,38,101
194550,note_on,120,0,1,,,,,,,,,0,,,81,0
194550,note_on,0,0,1,,,,,,,,,0,,,77,0
194550,note_on,0,0,1,,,,,,,,,0,,,72,0
194550,note_on,0,0,1,,,,,,,,,0,,,74,114
194550,note_on,0,0,1,,,,,,,,,0,,,78,114
194550,note_on,0,0,1,,,,,,,,,0,,,81,114
194550,note_on,0,0,1,,,,,,,,,0,,,86,114
194550,note_on,120,0,3,,,,,,,,,2,,,53,0
194670,note_on,120,0,1,,,,,,,,,0,,,86,0
194670,note_on,0,0,1,,,,,,,,,0,,,74,0
194670,note_on,0,0,1,,,,,,,,,0,,,78,0
194670,note_on,0,0,1,,,,,,,,,0,,,81,0
194670,note_on,0,0,1,,,,,,,,,0,,,74,114
194670,note_on,0,0,1,,,,,,,,,0,,,78,114
194670,note_on,0,0,1,,,,,,,,,0,,,86,114
194670,note_on,0,0,3,,,,,,,,,2,,,60,101
194670,note_on,0,0,3,,,,,,,,,2,,,57,101
194670,note_on,0,0,3,,,,,,,,,2,,,50,101
194670,note_on,0,0,3,,,,,,,,,2,,,38,0
194670,note_on,120,0,3,,,,,,,,,2,,,50,0
194670,note_on,0,0,1,,,,,,,,,0,,,81,114
194730,note_on,60,0,1,,,,,,,,,0,,,86,0
194730,note_on,0,0,1,,,,,,,,,0,,,74,0
194730,note_on,0,0,1,,,,,,,,,0,,,78,0
194730,note_on,0,0,1,,,,,,,,,0,,,81,0
194730,note_on,0,0,1,,,,,,,,,0,,,74,114
194730,note_on,0,0,1,,,,,,,,,0,,,78,114
194730,note_on,0,0,1,,,,,,,,,0,,,81,114
194730,note_on,0,0,3,,,,,,,,,2,,,50,0
194730,note_on,0,0,1,,,,,,,,,0,,,86,114
194730,note_on,0,0,3,,,,,,,,,2,,,50,101
194730,note_on,0,0,3,,,,,,,,,2,,,57,0
194730,note_on,0,0,3,,,,,,,,,2,,,60,101
194730,note_on,60,0,3,,,,,,,,,2,,,60,0
194730,note_on,0,0,3,,,,,,,,,2,,,57,101
194790,note_on,60,0,3,,,,,,,,,2,,,60,0
194790,note_on,60,0,1,,,,,,,,,0,,,86,0
194790,note_on,0,0,1,,,,,,,,,0,,,86,114
194790,note_on,0,0,1,,,,,,,,,0,,,78,114
194790,note_on,0,0,1,,,,,,,,,0,,,74,114
194790,note_on,0,0,1,,,,,,,,,0,,,81,0
194790,note_on,0,0,1,,,,,,,,,0,,,78,0
194790,note_on,0,0,1,,,,,,,,,0,,,74,0
194790,note_on,0,0,1,,,,,,,,,0,,,81,114
194790,note_on,0,0,3,,,,,,,,,2,,,57,0
194790,note_on,0,0,3,,,,,,,,,2,,,50,0
194790,note_on,0,0,3,,,,,,,,,2,,,60,101
194790,note_on,0,0,3,,,,,,,,,2,,,57,101
194790,note_on,0,0,3,,,,,,,,,2,,,50,101
194910,note_on,0,0,3,,,,,,,,,2,,,59,101
194910,note_on,0,0,1,,,,,,,,,0,,,79,114
194910,note_on,0,0,1,,,,,,,,,0,,,74,114
194910,note_on,0,0,3,,,,,,,,,2,,,55,101
194910,note_on,0,0,1,,,,,,,,,0,,,78,0
194910,note_on,0,0,1,,,,,,,,,0,,,74,0
194910,note_on,0,0,1,,,,,,,,,0,,,81,0
194910,note_on,120,0,3,,,,,,,,,2,,,60,0
194910,note_on,0,0,3,,,,,,,,,2,,,57,0
194910,note_on,0,0,3,,,,,,,,,2,,,50,0
194910,note_on,120,0,1,,,,,,,,,0,,,86,0
194910,note_on,0,0,1,,,,,,,,,0,,,83,114
195090,note_on,180,0,1,,,,,,,,,0,,,83,0
195090,note_on,0,0,1,,,,,,,,,0,,,66,49
195090,note_on,0,0,1,,,,,,,,,0,,,74,0
195090,note_on,0,0,1,,,,,,,,,0,,,79,0
195150,note_on,0,0,3,,,,,,,,,2,,,55,0
195150,note_on,240,0,3,,,,,,,,,2,,,59,0
195150,note_on,0,0,1,,,,,,,,,0,,,67,49
195150,note_on,60,0,1,,,,,,,,,0,,,66,0
195210,note_on,0,0,1,,,,,,,,,0,,,69,49
195210,note_on,60,0,1,,,,,,,,,0,,,67,0
195270,note_on,0,0,1,,,,,,,,,0,,,67,49
195270,note_on,120,0,3,,,,,,,,,2,,,43,36
195270,note_on,60,0,1,,,,,,,,,0,,,69,0
195330,note_on,60,0,1,,,,,,,,,0,,,67,0
195330,note_on,0,0,1,,,,,,,,,0,,,81,49
195390,note_on,60,0,1,,,,,,,,,0,,,81,0
195390,note_on,0,0,1,,,,,,,,,0,,,79,49
195390,note_on,0,0,3,,,,,,,,,2,,,65,36
195390,note_on,0,0,3,,,,,,,,,2,,,59,36
195390,note_on,0,0,3,,,,,,,,,2,,,55,36
195390,note_on,120,0,3,,,,,,,,,2,,,43,0
195402,note_on,0,0,3,,,,,,,,,2,,,55,0
195402,note_on,0,0,3,,,,,,,,,2,,,59,0
195402,note_on,12,0,3,,,,,,,,,2,,,65,0
195450,note_on,0,0,1,,,,,,,,,0,,,77,49
195450,note_on,60,0,1,,,,,,,,,0,,,79,0
195510,note_on,60,0,1,,,,,,,,,0,,,77,0
195510,note_on,0,0,3,,,,,,,,,2,,,65,36
195510,note_on,0,0,1,,,,,,,,,0,,,76,49
195510,note_on,108,0,3,,,,,,,,,2,,,55,36
195510,note_on,0,0,3,,,,,,,,,2,,,59,36
195522,note_on,0,0,3,,,,,,,,,2,,,55,0
195522,note_on,0,0,3,,,,,,,,,2,,,59,0
195522,note_on,12,0,3,,,,,,,,,2,,,65,0
195570,note_on,60,0,1,,,,,,,,,0,,,76,0
195570,note_on,0,0,1,,,,,,,,,0,,,74,49
195630,note_on,60,0,1,,,,,,,,,0,,,74,0
195630,note_on,0,0,1,,,,,,,,,0,,,67,49
195630,note_on,108,0,3,,,,,,,,,2,,,48,36
195690,note_on,60,0,1,,,,,,,,,0,,,67,0
195690,note_on,0,0,1,,,,,,,,,0,,,76,49
195750,note_on,120,0,3,,,,,,,,,2,,,48,0
195750,note_on,60,0,1,,,,,,,,,0,,,76,0
195750,note_on,0,0,3,,,,,,,,,2,,,64,36
195750,note_on,0,0,3,,,,,,,,,2,,,60,36
195750,note_on,0,0,3,,,,,,,,,2,,,55,36
195750,note_on,0,0,1,,,,,,,,,0,,,67,49
195762,note_on,0,0,3,,,,,,,,,2,,,55,0
195762,note_on,0,0,3,,,,,,,,,2,,,60,0
195762,note_on,12,0,3,,,,,,,,,2,,,64,0
195810,note_on,0,0,1,,,,,,,,,0,,,79,49
195810,note_on,60,0,1,,,,,,,,,0,,,67,0
195870,note_on,108,0,3,,,,,,,,,2,,,55,36
195870,note_on,0,0,3,,,,,,,,,2,,,64,36
195870,note_on,0,0,1,,,,,,,,,0,,,77,49
195870,note_on,0,0,3,,,,,,,,,2,,,60,36
195870,note_on,60,0,1,,,,,,,,,0,,,79,0
195882,note_on,12,0,3,,,,,,,,,2,,,64,0
195882,note_on,0,0,3,,,,,,,,,2,,,60,0
195882,note_on,0,0,3,,,,,,,,,2,,,55,0
195930,note_on,60,0,1,,,,,,,,,0,,,77,0
195930,note_on,0,0,1,,,,,,,,,0,,,76,49
195990,note_on,60,0,1,,,,,,,,,0,,,76,0
195990,note_on,0,0,1,,,,,,,,,0,,,76,49
195990,note_on,108,0,3,,,,,,,,,2,,,43,36
196110,note_on,120,0,1,,,,,,,,,0,,,76,0
196110,note_on,0,0,1,,,,,,,,,0,,,74,49
196110,note_on,0,0,3,,,,,,,,,2,,,65,36
196110,note_on,0,0,3,,,,,,,,,2,,,59,36
196110,note_on,0,0,3,,,,,,,,,2,,,55,36
196110,note_on,120,0,3,,,,,,,,,2,,,43,0
196122,note_on,0,0,3,,,,,,,,,2,,,59,0
196122,note_on,12,0,3,,,,,,,,,2,,,65,0
196122,note_on,0,0,3,,,,,,,,,2,,,55,0
196170,note_on,0,0,1,,,,,,,,,0,,,89,49
196170,note_on,60,0,1,,,,,,,,,0,,,74,0
196230,note_on,0,0,3,,,,,,,,,2,,,65,36
196230,note_on,0,0,3,,,,,,,,,2,,,59,36
196230,note_on,108,0,3,,,,,,,,,2,,,55,36
196230,note_on,60,0,1,,,,,,,,,0,,,89,0
196230,note_on,0,0,1,,,,,,,,,0,,,88,49
196242,note_on,0,0,3,,,,,,,,,2,,,55,0
196242,note_on,12,0,3,,,,,,,,,2,,,65,0
196242,note_on,0,0,3,,,,,,,,,2,,,59,0
196290,note_on,0,0,1,,,,,,,,,0,,,86,49
196290,note_on,60,0,1,,,,,,,,,0,,,88,0
196350,note_on,108,0,3,,,,,,,,,2,,,48,36
196350,note_on,0,0,1,,,,,,,,,0,,,84,49
196350,note_on,60,0,1,,,,,,,,,0,,,86,0
196470,note_on,0,0,3,,,,,,,,,2,,,64,36
196470,note_on,0,0,3,,,,,,,,,2,,,60,36
196470,note_on,0,0,3,,,,,,,,,2,,,55,36
196470,note_on,120,0,3,,,,,,,,,2,,,48,0
196530,note_on,0,0,1,,,,,,,,,0,,,79,49
196530,note_on,180,0,1,,,,,,,,,0,,,84,0
196590,note_on,120,0,3,,,,,,,,,2,,,64,0
196590,note_on,0,0,1,,,,,,,,,0,,,81,49
196590,note_on,60,0,1,,,,,,,,,0,,,79,0
196590,note_on,0,0,3,,,,,,,,,2,,,60,0
196590,note_on,0,0,3,,,,,,,,,2,,,55,0
196650,note_on,60,0,1,,,,,,,,,0,,,81,0
196650,note_on,0,0,1,,,,,,,,,0,,,83,49
196710,note_on,0,0,1,,,,,,,,,0,,,72,114
196710,note_on,0,0,3,,,,,,,,,2,,,48,101
196710,note_on,120,0,3,,,,,,,,,2,,,36,101
196710,note_on,60,0,1,,,,,,,,,0,,,83,0
196710,note_on,0,0,1,,,,,,,,,0,,,76,114
196710,note_on,0,0,1,,,,,,,,,0,,,79,114
196710,note_on,0,0,1,,,,,,,,,0,,,84,114
196830,note_on,0,0,1,,,,,,,,,0,,,76,114
196830,note_on,0,0,1,,,,,,,,,0,,,72,114
196830,note_on,0,0,1,,,,,,,,,0,,,79,0
196830,note_on,0,0,1,,,,,,,,,0,,,72,0
196830,note_on,0,0,3,,,,,,,,,2,,,58,101
196830,note_on,0,0,3,,,,,,,,,2,,,55,101
196830,note_on,0,0,1,,,,,,,,,0,,,79,114
196830,note_on,120,0,3,,,,,,,,,2,,,48,0
196830,note_on,0,0,3,,,,,,,,,2,,,36,0
196830,note_on,0,0,3,,,,,,,,,2,,,48,101
196830,note_on,120,0,1,,,,,,,,,0,,,84,0
196830,note_on,0,0,1,,,,,,,,,0,,,84,114
196830,note_on,0,0,1,,,,,,,,,0,,,76,0
196890,note_on,0,0,1,,,,,,,,,0,,,79,0
196890,note_on,0,0,3,,,,,,,,,2,,,55,0
196890,note_on,60,0,3,,,,,,,,,2,,,58,0
196890,note_on,0,0,3,,,,,,,,,2,,,55,101
196890,note_on,0,0,3,,,,,,,,,2,,,58,101
196890,note_on,60,0,1,,,,,,,,,0,,,84,0
196890,note_on,0,0,1,,,,,,,,,0,,,72,0
196890,note_on,0,0,1,,,,,,,,,0,,,76,0
196890,note_on,0,0,3,,,,,,,,,2,,,48,0
196890,note_on,0,0,3,,,,,,,,,2,,,48,101
196890,note_on,0,0,1,,,,,,,,,0,,,76,114
196890,note_on,0,0,1,,,,,,,,,0,,,79,114
196890,note_on,0,0,1,,,,,,,,,0,,,84,114
196890,note_on,0,0,1,,,,,,,,,0,,,72,114
196950,note_on,0,0,3,,,,,,,,,2,,,55,0
196950,note_on,60,0,3,,,,,,,,,2,,,58,0
196950,note_on,0,0,3,,,,,,,,,2,,,48,0
196950,note_on,0,0,3,,,,,,,,,2,,,48,101
196950,note_on,0,0,3,,,,,,,,,2,,,55,101
196950,note_on,0,0,3,,,,,,,,,2,,,58,101
196950,note_on,0,0,1,,,,,,,,,0,,,76,114
196950,note_on,0,0,1,,,,,,,,,0,,,79,114
196950,note_on,0,0,1,,,,,,,,,0,,,84,114
196950,note_on,60,0,1,,,,,,,,,0,,,84,0
196950,note_on,0,0,1,,,,,,,,,0,,,72,0
196950,note_on,0,0,1,,,,,,,,,0,,,76,0
196950,note_on,0,0,1,,,,,,,,,0,,,79,0
196950,note_on,0,0,1,,,,,,,,,0,,,72,114
197070,note_on,120,0,3,,,,,,,,,2,,,58,0
197070,note_on,0,0,3,,,,,,,,,2,,,48,0
197070,note_on,0,0,3,,,,,,,,,2,,,53,101
197070,note_on,0,0,3,,,,,,,,,2,,,41,101
197070,note_on,0,0,3,,,,,,,,,2,,,55,0
197070,note_on,0,0,1,,,,,,,,,0,,,79,0
197070,note_on,120,0,1,,,,,,,,,0,,,84,0
197070,note_on,0,0,1,,,,,,,,,0,,,72,0
197070,note_on,0,0,1,,,,,,,,,0,,,81,114
197070,note_on,0,0,1,,,,,,,,,0,,,77,114
197070,note_on,0,0,1,,,,,,,,,0,,,76,0
197070,note_on,0,0,1,,,,,,,,,0,,,72,114
197190,note_on,0,0,1,,,,,,,,,0,,,72,114
197190,note_on,0,0,1,,,,,,,,,0,,,72,0
197190,note_on,120,0,1,,,,,,,,,0,,,81,0
197190,note_on,0,0,1,,,,,,,,,0,,,77,0
197190,note_on,0,0,3,,,,,,,,,2,,,57,101
197190,note_on,0,0,3,,,,,,,,,2,,,45,101
197190,note_on,0,0,3,,,,,,,,,2,,,41,0
197190,note_on,120,0,3,,,,,,,,,2,,,53,0
197190,note_on,0,0,1,,,,,,,,,0,,,81,114
197190,note_on,0,0,1,,,,,,,,,0,,,77,114
197310,note_on,120,0,3,,,,,,,,,2,,,57,0
197310,note_on,0,0,1,,,,,,,,,0,,,77,114
197310,note_on,0,0,1,,,,,,,,,0,,,81,114
197310,note_on,0,0,1,,,,,,,,,0,,,77,0
197310,note_on,0,0,3,,,,,,,,,2,,,45,0
197310,note_on,0,0,3,,,,,,,,,2,,,41,101
197310,note_on,0,0,1,,,,,,,,,0,,,72,114
197310,note_on,120,0,1,,,,,,,,,0,,,81,0
197310,note_on,0,0,3,,,,,,,,,2,,,53,101
197310,note_on,0,0,1,,,,,,,,,0,,,72,0
197430,note_on,0,0,3,,,,,,,,,2,,,38,101
197430,note_on,120,0,1,,,,,,,,,0,,,81,0
197430,note_on,120,0,3,,,,,,,,,2,,,53,0
197430,note_on,0,0,3,,,,,,,,,2,,,41,0
197430,note_on,0,0,1,,,,,,,,,0,,,86,114
197430,note_on,0,0,1,,,,,,,,,0,,,78,114
197430,note_on,0,0,1,,,,,,,,,0,,,74,114
197430,note_on,0,0,1,,,,,,,,,0,,,72,0
197430,note_on,0,0,1,,,,,,,,,0,,,77,0
197430,note_on,0,0,3,,,,,,,,,2,,,50,101
197430,note_on,0,0,1,,,,,,,,,0,,,81,114
197550,note_on,0,0,3,,,,,,,,,2,,,50,101
197550,note_on,0,0,3,,,,,,,,,2,,,38,0
197550,note_on,0,0,3,,,,,,,,,2,,,57,101
197550,note_on,0,0,3,,,,,,,,,2,,,60,101
197550,note_on,120,0,3,,,,,,,,,2,,,50,0
197550,note_on,0,0,1,,,,,,,,,0,,,86,114
197550,note_on,0,0,1,,,,,,,,,0,,,81,114
197550,note_on,0,0,1,,,,,,,,,0,,,78,114
197550,note_on,0,0,1,,,,,,,,,0,,,74,114
197550,note_on,0,0,1,,,,,,,,,0,,,81,0
197550,note_on,0,0,1,,,,,,,,,0,,,78,0
197550,note_on,0,0,1,,,,,,,,,0,,,74,0
197550,note_on,120,0,1,,,,,,,,,0,,,86,0
197610,note_on,60,0,1,,,,,,,,,0,,,86,0
197610,note_on,0,0,3,,,,,,,,,2,,,50,0
197610,note_on,0,0,3,,,,,,,,,2,,,50,101
197610,note_on,0,0,3,,,,,,,,,2,,,57,101
197610,note_on,0,0,3,,,,,,,,,2,,,60,101
197610,note_on,0,0,1,,,,,,,,,0,,,86,114
197610,note_on,0,0,1,,,,,,,,,0,,,74,114
197610,note_on,0,0,1,,,,,,,,,0,,,78,114
197610,note_on,0,0,3,,,,,,,,,2,,,57,0
197610,note_on,0,0,1,,,,,,,,,0,,,81,0
197610,note_on,0,0,1,,,,,,,,,0,,,78,0
197610,note_on,0,0,1,,,,,,,,,0,,,74,0
197610,note_on,0,0,1,,,,,,,,,0,,,81,114
197610,note_on,60,0,3,,,,,,,,,2,,,60,0
197670,note_on,0,0,3,,,,,,,,,2,,,50,0
197670,note_on,0,0,3,,,,,,,,,2,,,50,101
197670,note_on,0,0,3,,,,,,,,,2,,,60,101
197670,note_on,0,0,3,,,,,,,,,2,,,57,101
197670,note_on,0,0,1,,,,,,,,,0,,,81,0
197670,note_on,0,0,1,,,,,,,,,0,,,78,0
197670,note_on,0,0,1,,,,,,,,,0,,,78,114
197670,note_on,0,0,1,,,,,,,,,0,,,81,114
197670,note_on,0,0,1,,,,,,,,,0,,,86,114
197670,note_on,0,0,3,,,,,,,,,2,,,57,0
197670,note_on,0,0,1,,,,,,,,,0,,,74,0
197670,note_on,60,0,1,,,,,,,,,0,,,86,0
197670,note_on,0,0,1,,,,,,,,,0,,,74,114
197670,note_on,60,0,3,,,,,,,,,2,,,60,0
197790,note_on,0,0,1,,,,,,,,,0,,,74,0
197790,note_on,120,0,3,,,,,,,,,2,,,60,0
197790,note_on,0,0,1,,,,,,,,,0,,,83,114
197790,note_on,0,0,1,,,,,,,,,0,,,74,114
197790,note_on,0,0,1,,,,,,,,,0,,,81,0
197790,note_on,0,0,1,,,,,,,,,0,,,78,0
197790,note_on,120,0,1,,,,,,,,,0,,,86,0
197790,note_on,0,0,1,,,,,,,,,0,,,79,114
197790,note_on,0,0,3,,,,,,,,,2,,,59,101
197790,note_on,0,0,3,,,,,,,,,2,,,55,101
197790,note_on,0,0,3,,,,,,,,,2,,,50,0
197790,note_on,0,0,3,,,,,,,,,2,,,57,0
197970,note_on,0,0,1,,,,,,,,,0,,,74,0
197970,note_on,180,0,1,,,,,,,,,0,,,83,0
197970,note_on,0,0,1,,,,,,,,,0,,,79,0
197970,note_on,0,0,1,,,,,,,,,0,,,66,49
198030,note_on,240,0,3,,,,,,,,,2,,,59,0
198030,note_on,0,0,3,,,,,,,,,2,,,55,0
198030,note_on,60,0,1,,,,,,,,,0,,,66,0
198030,note_on,0,0,1,,,,,,,,,0,,,67,49
198090,note_on,60,0,1,,,,,,,,,0,,,67,0
198090,note_on,0,0,1,,,,,,,,,0,,,69,49
198150,note_on,0,0,1,,,,,,,,,0,,,67,49
198150,note_on,120,0,3,,,,,,,,,2,,,43,36
198150,note_on,60,0,1,,,,,,,,,0,,,69,0
198210,note_on,0,0,1,,,,,,,,,0,,,81,49
198210,note_on,60,0,1,,,,,,,,,0,,,67,0
198270,note_on,0,0,3,,,,,,,,,2,,,65,36
198270,note_on,0,0,3,,,,,,,,,2,,,55,36
198270,note_on,0,0,3,,,,,,,,,2,,,59,36
198270,note_on,120,0,3,,,,,,,,,2,,,43,0
198270,note_on,60,0,1,,,,,,,,,0,,,81,0
198270,note_on,0,0,1,,,,,,,,,0,,,79,49
198282,note_on,12,0,3,,,,,,,,,2,,,65,0
198282,note_on,0,0,3,,,,,,,,,2,,,59,0
198282,note_on,0,0,3,,,,,,,,,2,,,55,0
198330,note_on,60,0,1,,,,,,,,,0,,,79,0
198330,note_on,0,0,1,,,,,,,,,0,,,77,49
198390,note_on,0,0,3,,,,,,,,,2,,,65,36
198390,note_on,0,0,3,,,,,,,,,2,,,59,36
198390,note_on,60,0,1,,,,,,,,,0,,,77,0
198390,note_on,0,0,1,,,,,,,,,0,,,76,49
198390,note_on,108,0,3,,,,,,,,,2,,,55,36
198402,note_on,0,0,3,,,,,,,,,2,,,55,0
198402,note_on,0,0,3,,,,,,,,,2,,,59,0
198402,note_on,12,0,3,,,,,,,,,2,,,65,0
198450,note_on,0,0,1,,,,,,,,,0,,,74,49
198450,note_on,60,0,1,,,,,,,,,0,,,76,0
198510,note_on,0,0,1,,,,,,,,,0,,,67,49
198510,note_on,60,0,1,,,,,,,,,0,,,74,0
198510,note_on,108,0,3,,,,,,,,,2,,,48,36
198570,note_on,0,0,1,,,,,,,,,0,,,76,49
198570,note_on,60,0,1,,,,,,,,,0,,,67,0
198630,note_on,0,0,3,,,,,,,,,2,,,64,36
198630,note_on,0,0,3,,,,,,,,,2,,,60,36
198630,note_on,60,0,1,,,,,,,,,0,,,76,0
198630,note_on,120,0,3,,,,,,,,,2,,,48,0
198630,note_on,0,0,3,,,,,,,,,2,,,55,36
198630,note_on,0,0,1,,,,,,,,,0,,,67,49
198642,note_on,0,0,3,,,,,,,,,2,,,55,0
198642,note_on,0,0,3,,,,,,,,,2,,,60,0
198642,note_on,12,0,3,,,,,,,,,2,,,64,0
198690,note_on,60,0,1,,,,,,,,,0,,,67,0
198690,note_on,0,0,1,,,,,,,,,0,,,79,49
198750,note_on,0,0,3,,,,,,,,,2,,,60,36
198750,note_on,60,0,1,,,,,,,,,0,,,79,0
198750,note_on,0,0,1,,,,,,,,,0,,,77,49
198750,note_on,108,0,3,,,,,,,,,2,,,55,36
198750,note_on,0,0,3,,,,,,,,,2,,,64,36
198762,note_on,0,0,3,,,,,,,,,2,,,55,0
198762,note_on,0,0,3,,,,,,,,,2,,,60,0
198762,note_on,12,0,3,,,,,,,,,2,,,64,0
198810,note_on,60,0,1,,,,,,,,,0,,,77,0
198810,note_on,0,0,1,,,,,,,,,0,,,76,49
198870,note_on,60,0,1,,,,,,,,,0,,,76,0
198870,note_on,108,0,3,,,,,,,,,2,,,43,36
198870,note_on,0,0,1,,,,,,,,,0,,,76,49
198990,note_on,0,0,1,,,,,,,,,0,,,74,49
198990,note_on,120,0,3,,,,,,,,,2,,,43,0
198990,note_on,0,0,3,,,,,,,,,2,,,55,36
198990,note_on,0,0,3,,,,,,,,,2,,,59,36
198990,note_on,0,0,3,,,,,,,,,2,,,65,36
198990,note_on,120,0,1,,,,,,,,,0,,,76,0
199002,note_on,12,0,3,,,,,,,,,2,,,65,0
199002,note_on,0,0,3,,,,,,,,,2,,,59,0
199002,note_on,0,0,3,,,,,,,,,2,,,55,0
199050,note_on,0,0,1,,,,,,,,,0,,,89,49
199050,note_on,60,0,1,,,,,,,,,0,,,74,0
199110,note_on,0,0,3,,,,,,,,,2,,,65,36
199110,note_on,0,0,3,,,,,,,,,2,,,59,36
199110,note_on,108,0,3,,,,,,,,,2,,,55,36
199110,note_on,0,0,1,,,,,,,,,0,,,88,49
199110,note_on,60,0,1,,,,,,,,,0,,,89,0
199122,note_on,0,0,3,,,,,,,,,2,,,55,0
199122,note_on,0,0,3,,,,,,,,,2,,,59,0
199122,note_on,12,0,3,,,,,,,,,2,,,65,0
199170,note_on,0,0,1,,,,,,,,,0,,,86,49
199170,note_on,60,0,1,,,,,,,,,0,,,88,0
199230,note_on,108,0,3,,,,,,,,,2,,,48,36
199230,note_on,0,0,1,,,,,,,,,0,,,84,49
199230,note_on,60,0,1,,,,,,,,,0,,,86,0
199350,note_on,120,0,3,,,,,,,,,2,,,48,0
199350,note_on,0,0,3,,,,,,,,,2,,,55,36
199350,note_on,0,0,3,,,,,,,,,2,,,60,36
199350,note_on,0,0,3,,,,,,,,,2,,,64,36
199410,note_on,0,0,1,,,,,,,,,0,,,79,49
199410,note_on,180,0,1,,,,,,,,,0,,,84,0
199470,note_on,60,0,1,,,,,,,,,0,,,79,0
199470,note_on,120,0,3,,,,,,,,,2,,,64,0
199470,note_on,0,0,3,,,,,,,,,2,,,60,0
199470,note_on,0,0,3,,,,,,,,,2,,,55,0
199470,note_on,0,0,1,,,,,,,,,0,,,81,49
199530,note_on,60,0,1,,,,,,,,,0,,,81,0
199530,note_on,0,0,1,,,,,,,,,0,,,83,49
199590,note_on,0,0,1,,,,,,,,,0,,,72,101
199590,note_on,0,0,1,,,,,,,,,0,,,76,101
199590,note_on,0,0,1,,,,,,,,,0,,,79,101
199590,note_on,0,0,1,,,,,,,,,0,,,84,101
199590,note_on,120,0,3,,,,,,,,,2,,,36,88
199590,note_on,0,0,3,,,,,,,,,2,,,48,88
199590,note_on,60,0,1,,,,,,,,,0,,,83,0
199710,note_on,0,0,3,,,,,,,,,2,,,58,88
199710,note_on,0,0,3,,,,,,,,,2,,,55,88
199710,note_on,0,0,3,,,,,,,,,2,,,48,88
199710,note_on,0,0,3,,,,,,,,,2,,,36,0
199710,note_on,120,0,3,,,,,,,,,2,,,48,0
199710,note_on,0,0,1,,,,,,,,,0,,,84,101
199710,note_on,0,0,1,,,,,,,,,0,,,76,101
199710,note_on,0,0,1,,,,,,,,,0,,,72,101
199710,note_on,0,0,1,,,,,,,,,0,,,79,0
199710,note_on,0,0,1,,,,,,,,,0,,,76,0
199710,note_on,0,0,1,,,,,,,,,0,,,72,0
199710,note_on,120,0,1,,,,,,,,,0,,,84,0
199710,note_on,0,0,1,,,,,,,,,0,,,79,101
199770,note_on,60,0,3,,,,,,,,,2,,,58,0
199770,note_on,0,0,3,,,,,,,,,2,,,58,88
199770,note_on,0,0,3,,,,,,,,,2,,,55,0
199770,note_on,0,0,1,,,,,,,,,0,,,76,101
199770,note_on,0,0,3,,,,,,,,,2,,,48,88
199770,note_on,0,0,3,,,,,,,,,2,,,55,88
199770,note_on,0,0,1,,,,,,,,,0,,,84,101
199770,note_on,0,0,1,,,,,,,,,0,,,79,101
199770,note_on,0,0,1,,,,,,,,,0,,,72,101
199770,note_on,0,0,1,,,,,,,,,0,,,79,0
199770,note_on,0,0,1,,,,,,,,,0,,,76,0
199770,note_on,0,0,1,,,,,,,,,0,,,72,0
199770,note_on,60,0,1,,,,,,,,,0,,,84,0
199770,note_on,0,0,3,,,,,,,,,2,,,48,0
199830,note_on,0,0,3,,,,,,,,,2,,,55,0
199830,note_on,0,0,1,,,,,,,,,0,,,76,101
199830,note_on,0,0,3,,,,,,,,,2,,,48,88
199830,note_on,0,0,3,,,,,,,,,2,,,55,88
199830,note_on,0,0,3,,,,,,,,,2,,,58,88
199830,note_on,0,0,1,,,,,,,,,0,,,84,101
199830,note_on,0,0,1,,,,,,,,,0,,,79,101
199830,note_on,0,0,1,,,,,,,,,0,,,72,101
199830,note_on,0,0,1,,,,,,,,,0,,,79,0
199830,note_on,0,0,1,,,,,,,,,0,,,76,0
199830,note_on,0,0,1,,,,,,,,,0,,,72,0
199830,note_on,60,0,1,,,,,,,,,0,,,84,0
199830,note_on,0,0,3,,,,,,,,,2,,,48,0
199830,note_on,60,0,3,,,,,,,,,2,,,58,0
199950,note_on,120,0,3,,,,,,,,,2,,,58,0
199950,note_on,0,0,3,,,,,,,,,2,,,55,0
199950,note_on,0,0,3,,,,,,,,,2,,,48,0
199950,note_on,0,0,1,,,,,,,,,0,,,76,0
199950,note_on,0,0,1,,,,,,,,,0,,,80,101
199950,note_on,0,0,1,,,,,,,,,0,,,75,101
199950,note_on,0,0,1,,,,,,,,,0,,,72,101
199950,note_on,0,0,1,,,,,,,,,0,,,79,0
199950,note_on,0,0,3,,,,,,,,,2,,,32,88
199950,note_on,0,0,1,,,,,,,,,0,,,72,0
199950,note_on,120,0,1,,,,,,,,,0,,,84,0
199950,note_on,0,0,1,,,,,,,,,0,,,84,101
199950,note_on,0,0,3,,,,,,,,,2,,,44,88
200070,note_on,0,0,1,,,,,,,,,0,,,80,0
200070,note_on,0,0,3,,,,,,,,,2,,,32,0
200070,note_on,0,0,3,,,,,,,,,2,,,51,88
200070,note_on,0,0,3,,,,,,,,,2,,,56,88
200070,note_on,0,0,3,,,,,,,,,2,,,60,88
200070,note_on,120,0,1,,,,,,,,,0,,,84,0
200070,note_on,0,0,1,,,,,,,,,0,,,72,0
200070,note_on,0,0,1,,,,,,,,,0,,,75,0
200070,note_on,0,0,1,,,,,,,,,0,,,72,101
200070,note_on,0,0,1,,,,,,,,,0,,,75,101
200070,note_on,0,0,1,,,,,,,,,0,,,80,101
200070,note_on,0,0,1,,,,,,,,,0,,,84,101
200070,note_on,120,0,3,,,,,,,,,2,,,44,0
200130,note_on,60,0,1,,,,,,,,,0,,,84,0
200130,note_on,0,0,1,,,,,,,,,0,,,75,0
200130,note_on,0,0,1,,,,,,,,,0,,,75,101
200130,note_on,0,0,1,,,,,,,,,0,,,72,101
200130,note_on,0,0,1,,,,,,,,,0,,,80,101
200130,note_on,0,0,1,,,,,,,,,0,,,84,101
200130,note_on,0,0,3,,,,,,,,,2,,,60,88
200130,note_on,0,0,3,,,,,,,,,2,,,56,88
200130,note_on,0,0,3,,,,,,,,,2,,,51,88
200130,note_on,0,0,3,,,,,,,,,2,,,51,0
200130,note_on,0,0,3,,,,,,,,,2,,,56,0
200130,note_on,60,0,3,,,,,,,,,2,,,60,0
200130,note_on,0,0,1,,,,,,,,,0,,,80,0
200130,note_on,0,0,1,,,,,,,,,0,,,72,0
200190,note_on,0,0,1,,,,,,,,,0,,,84,101
200190,note_on,0,0,1,,,,,,,,,0,,,72,0
200190,note_on,0,0,3,,,,,,,,,2,,,60,88
200190,note_on,0,0,3,,,,,,,,,2,,,56,88
200190,note_on,0,0,3,,,,,,,,,2,,,51,88
200190,note_on,0,0,3,,,,,,,,,2,,,56,0
200190,note_on,60,0,3,,,,,,,,,2,,,60,0
200190,note_on,0,0,3,,,,,,,,,2,,,51,0
200190,note_on,0,0,1,,,,,,,,,0,,,75,101
200190,note_on,0,0,1,,,,,,,,,0,,,72,101
200190,note_on,0,0,1,,,,,,,,,0,,,80,0
200190,note_on,0,0,1,,,,,,,,,0,,,75,0
200190,note_on,0,0,1,,,,,,,,,0,,,80,101
200190,note_on,60,0,1,,,,,,,,,0,,,84,0
200310,note_on,0,0,3,,,,,,,,,2,,,51,88
200310,note_on,120,0,3,,,,,,,,,2,,,60,0
200310,note_on,0,0,3,,,,,,,,,2,,,56,0
200310,note_on,0,0,3,,,,,,,,,2,,,51,0
200310,note_on,0,0,3,,,,,,,,,2,,,39,88
200310,note_on,120,0,1,,,,,,,,,0,,,84,0
200310,note_on,0,0,1,,,,,,,,,0,,,72,0
200310,note_on,0,0,1,,,,,,,,,0,,,75,0
200310,note_on,0,0,1,,,,,,,,,0,,,80,0
200310,note_on,0,0,1,,,,,,,,,0,,,75,101
200310,note_on,0,0,1,,,,,,,,,0,,,79,101
200310,note_on,0,0,1,,,,,,,,,0,,,82,101
200310,note_on,0,0,1,,,,,,,,,0,,,87,101
200430,note_on,0,0,1,,,,,,,,,0,,,82,101
200430,note_on,120,0,1,,,,,,,,,0,,,87,0
200430,note_on,0,0,1,,,,,,,,,0,,,75,0
200430,note_on,0,0,1,,,,,,,,,0,,,79,0
200430,note_on,0,0,1,,,,,,,,,0,,,82,0
200430,note_on,120,0,3,,,,,,,,,2,,,51,0
200430,note_on,0,0,3,,,,,,,,,2,,,39,0
200430,note_on,0,0,3,,,,,,,,,2,,,51,88
200430,note_on,0,0,3,,,,,,,,,2,,,58,88
200430,note_on,0,0,3,,,,,,,,,2,,,61,88
200430,note_on,0,0,1,,,,,,,,,0,,,75,101
200430,note_on,0,0,1,,,,,,,,,0,,,87,101
200430,note_on,0,0,1,,,,,,,,,0,,,79,101
200490,note_on,0,0,1,,,,,,,,,0,,,79,101
200490,note_on,0,0,1,,,,,,,,,0,,,75,101
200490,note_on,0,0,1,,,,,,,,,0,,,82,0
200490,note_on,0,0,1,,,,,,,,,0,,,79,0
200490,note_on,60,0,1,,,,,,,,,0,,,87,0
200490,note_on,0,0,1,,,,,,,,,0,,,75,0
200490,note_on,0,0,1,,,,,,,,,0,,,87,101
200490,note_on,0,0,3,,,,,,,,,2,,,51,0
200490,note_on,0,0,1,,,,,,,,,0,,,82,101
200490,note_on,0,0,3,,,,,,,,,2,,,61,88
200490,note_on,0,0,3,,,,,,,,,2,,,58,88
200490,note_on,0,0,3,,,,,,,,,2,,,51,88
200490,note_on,0,0,3,,,,,,,,,2,,,58,0
200490,note_on,60,0,3,,,,,,,,,2,,,61,0
200550,note_on,0,0,3,,,,,,,,,2,,,58,88
200550,note_on,0,0,3,,,,,,,,,2,,,61,88
200550,note_on,0,0,3,,,,,,,,,2,,,58,0
200550,note_on,60,0,3,,,,,,,,,2,,,61,0
200550,note_on,60,0,1,,,,,,,,,0,,,87,0
200550,note_on,0,0,1,,,,,,,,,0,,,75,0
200550,note_on,0,0,3,,,,,,,,,2,,,51,88
200550,note_on,0,0,1,,,,,,,,,0,,,82,0
200550,note_on,0,0,1,,,,,,,,,0,,,75,101
200550,note_on,0,0,1,,,,,,,,,0,,,79,0
200550,note_on,0,0,1,,,,,,,,,0,,,82,101
200550,note_on,0,0,1,,,,,,,,,0,,,79,101
200550,note_on,0,0,3,,,,,,,,,2,,,51,0
200550,note_on,0,0,1,,,,,,,,,0,,,87,101
200670,note_on,0,0,1,,,,,,,,,0,,,75,0
200670,note_on,0,0,1,,,,,,,,,0,,,79,0
200670,note_on,0,0,1,,,,,,,,,0,,,82,0
200670,note_on,0,0,1,,,,,,,,,0,,,75,101
200670,note_on,0,0,1,,,,,,,,,0,,,80,101
200670,note_on,0,0,1,,,,,,,,,0,,,84,101
200670,note_on,120,0,3,,,,,,,,,2,,,61,0
200670,note_on,0,0,3,,,,,,,,,2,,,58,0
200670,note_on,120,0,1,,,,,,,,,0,,,87,0
200670,note_on,0,0,3,,,,,,,,,2,,,60,88
200670,note_on,0,0,3,,,,,,,,,2,,,56,88
200670,note_on,0,0,3,,,,,,,,,2,,,51,0
200850,note_on,0,0,1,,,,,,,,,0,,,71,49
200850,note_on,180,0,1,,,,,,,,,0,,,84,0
200850,note_on,0,0,1,,,,,,,,,0,,,75,0
200850,note_on,0,0,1,,,,,,,,,0,,,80,0
200910,note_on,60,0,1,,,,,,,,,0,,,71,0
200910,note_on,0,0,1,,,,,,,,,0,,,72,49
200910,note_on,0,0,3,,,,,,,,,2,,,56,0
200910,note_on,240,0,3,,,,,,,,,2,,,60,0
200970,note_on,0,0,1,,,,,,,,,0,,,74,49
200970,note_on,60,0,1,,,,,,,,,0,,,72,0
201030,note_on,0,0,1,,,,,,,,,0,,,72,49
201030,note_on,120,0,3,,,,,,,,,2,,,44,36
201030,note_on,60,0,1,,,,,,,,,0,,,74,0
201090,note_on,60,0,1,,,,,,,,,0,,,72,0
201090,note_on,0,0,1,,,,,,,,,0,,,84,49
201150,note_on,120,0,3,,,,,,,,,2,,,44,0
201150,note_on,0,0,3,,,,,,,,,2,,,56,36
201150,note_on,0,0,3,,,,,,,,,2,,,60,36
201150,note_on,0,0,3,,,,,,,,,2,,,66,36
201150,note_on,60,0,1,,,,,,,,,0,,,84,0
201150,note_on,0,0,1,,,,,,,,,0,,,83,49
201162,note_on,0,0,3,,,,,,,,,2,,,56,0
201162,note_on,0,0,3,,,,,,,,,2,,,60,0
201162,note_on,12,0,3,,,,,,,,,2,,,66,0
201210,note_on,60,0,1,,,,,,,,,0,,,83,0
201210,note_on,0,0,1,,,,,,,,,0,,,84,49
201270,note_on,0,0,1,,,,,,,,,0,,,86,49
201270,note_on,60,0,1,,,,,,,,,0,,,84,0
201270,note_on,0,0,3,,,,,,,,,2,,,66,36
201270,note_on,0,0,3,,,,,,,,,2,,,60,36
201270,note_on,108,0,3,,,,,,,,,2,,,56,36
201282,note_on,0,0,3,,,,,,,,,2,,,60,0
201282,note_on,12,0,3,,,,,,,,,2,,,66,0
201282,note_on,0,0,3,,,,,,,,,2,,,56,0
201330,note_on,0,0,1,,,,,,,,,0,,,87,49
201330,note_on,60,0,1,,,,,,,,,0,,,86,0
201390,note_on,0,0,1,,,,,,,,,0,,,79,49
201390,note_on,60,0,1,,,,,,,,,0,,,87,0
201390,note_on,108,0,3,,,,,,,,,2,,,43,36
201510,note_on,120,0,1,,,,,,,,,0,,,79,0
201510,note_on,0,0,3,,,,,,,,,2,,,67,36
201510,note_on,0,0,3,,,,,,,,,2,,,64,36
201510,note_on,0,0,3,,,,,,,,,2,,,55,36
201510,note_on,120,0,3,,,,,,,,,2,,,43,0
201510,note_on,0,0,1,,,,,,,,,0,,,93,49
201510,note_on,0,0,3,,,,,,,,,2,,,60,36
201522,note_on,0,0,3,,,,,,,,,2,,,60,0
201522,note_on,0,0,3,,,,,,,,,2,,,64,0
201522,note_on,0,0,3,,,,,,,,,2,,,55,0
201522,note_on,12,0,3,,,,,,,,,2,,,67,0
201570,note_on,0,0,1,,,,,,,,,0,,,91,49
201570,note_on,60,0,1,,,,,,,,,0,,,93,0
201630,note_on,0,0,3,,,,,,,,,2,,,60,36
201630,note_on,0,0,3,,,,,,,,,2,,,67,36
201630,note_on,60,0,1,,,,,,,,,0,,,91,0
201630,note_on,0,0,3,,,,,,,,,2,,,64,36
201630,note_on,0,0,1,,,,,,,,,0,,,89,49
201630,note_on,108,0,3,,,,,,,,,2,,,55,36
201642,note_on,0,0,3,,,,,,,,,2,,,55,0
201642,note_on,0,0,3,,,,,,,,,2,,,60,0
201642,note_on,12,0,3,,,,,,,,,2,,,67,0
201642,note_on,0,0,3,,,,,,,,,2,,,64,0
201690,note_on,0,0,1,,,,,,,,,0,,,88,49
201690,note_on,60,0,1,,,,,,,,,0,,,89,0
201750,note_on,0,0,1,,,,,,,,,0,,,88,49
201750,note_on,60,0,1,,,,,,,,,0,,,88,0
201750,note_on,108,0,3,,,,,,,,,2,,,43,36
201870,note_on,0,0,1,,,,,,,,,0,,,86,49
201870,note_on,0,0,3,,,,,,,,,2,,,65,36
201870,note_on,0,0,3,,,,,,,,,2,,,59,36
201870,note_on,0,0,3,,,,,,,,,2,,,55,36
201870,note_on,120,0,3,,,,,,,,,2,,,43,0
201870,note_on,120,0,1,,,,,,,,,0,,,88,0
201882,note_on,0,0,3,,,,,,,,,2,,,55,0
201882,note_on,0,0,3,,,,,,,,,2,,,59,0
201882,note_on,12,0,3,,,,,,,,,2,,,65,0
201930,note_on,60,0,1,,,,,,,,,0,,,86,0
201930,note_on,0,0,1,,,,,,,,,0,,,101,49
201990,note_on,108,0,3,,,,,,,,,2,,,55,36
201990,note_on,0,0,3,,,,,,,,,2,,,59,36
201990,note_on,0,0,3,,,,,,,,,2,,,65,36
201990,note_on,60,0,1,,,,,,,,,0,,,101,0
201990,note_on,0,0,1,,,,,,,,,0,,,100,49
202002,note_on,12,0,3,,,,,,,,,2,,,65,0
202002,note_on,0,0,3,,,,,,,,,2,,,59,0
202002,note_on,0,0,3,,,,,,,,,2,,,55,0
202050,note_on,60,0,1,,,,,,,,,0,,,100,0
202050,note_on,0,0,1,,,,,,,,,0,,,98,49
202110,note_on,108,0,3,,,,,,,,,2,,,48,36
202110,note_on,60,0,1,,,,,,,,,0,,,98,0
202110,note_on,0,0,1,,,,,,,,,0,,,96,49
202230,note_on,120,0,3,,,,,,,,,2,,,48,0
202230,note_on,0,0,3,,,,,,,,,2,,,55,36
202230,note_on,0,0,3,,,,,,,,,2,,,60,36
202230,note_on,0,0,3,,,,,,,,,2,,,64,36
202290,note_on,180,0,1,,,,,,,,,0,,,96,0
202290,note_on,0,0,1,,,,,,,,,0,,,79,49
202350,note_on,120,0,3,,,,,,,,,2,,,64,0
202350,note_on,0,0,3,,,,,,,,,2,,,60,0
202350,note_on,0,0,3,,,,,,,,,2,,,55,0
202350,note_on,60,0,1,,,,,,,,,0,,,79,0
202350,note_on,0,0,1,,,,,,,,,0,,,81,49
202410,note_on,60,0,1,,,,,,,,,0,,,81,0
202410,note_on,0,0,1,,,,,,,,,0,,,83,49
202470,note_on,0,0,1,,,,,,,,,0,,,76,101
202470,note_on,60,0,1,,,,,,,,,0,,,83,0
202470,note_on,0,0,1,,,,,,,,,0,,,72,101
202470,note_on,0,0,1,,,,,,,,,0,,,79,101
202470,note_on,0,0,1,,,,,,,,,0,,,84,101
202470,note_on,0,0,3,,,,,,,,,2,,,48,88
202470,note_on,120,0,3,,,,,,,,,2,,,36,88
202590,note_on,0,0,1,,,,,,,,,0,,,84,101
202590,note_on,0,0,3,,,,,,,,,2,,,36,0
202590,note_on,0,0,3,,,,,,,,,2,,,48,88
202590,note_on,0,0,3,,,,,,,,,2,,,55,88
202590,note_on,0,0,3,,,,,,,,,2,,,58,88
202590,note_on,120,0,3,,,,,,,,,2,,,48,0
202590,note_on,0,0,1,,,,,,,,,0,,,72,0
202590,note_on,0,0,1,,,,,,,,,0,,,76,0
202590,note_on,0,0,1,,,,,,,,,0,,,79,0
202590,note_on,0,0,1,,,,,,,,,0,,,72,101
202590,note_on,0,0,1,,,,,,,,,0,,,76,101
202590,note_on,0,0,1,,,,,,,,,0,,,79,101
202590,note_on,120,0,1,,,,,,,,,0,,,84,0
202650,note_on,0,0,3,,,,,,,,,2,,,55,88
202650,note_on,0,0,3,,,,,,,,,2,,,48,0
202650,note_on,0,0,3,,,,,,,,,2,,,55,0
202650,note_on,60,0,3,,,,,,,,,2,,,58,0
202650,note_on,0,0,3,,,,,,,,,2,,,48,88
202650,note_on,0,0,1,,,,,,,,,0,,,79,101
202650,note_on,60,0,1,,,,,,,,,0,,,84,0
202650,note_on,0,0,1,,,,,,,,,0,,,76,101
202650,note_on,0,0,1,,,,,,,,,0,,,72,101
202650,note_on,0,0,1,,,,,,,,,0,,,79,0
202650,note_on,0,0,1,,,,,,,,,0,,,76,0
202650,note_on,0,0,1,,,,,,,,,0,,,72,0
202650,note_on,0,0,3,,,,,,,,,2,,,58,88
202650,note_on,0,0,1,,,,,,,,,0,,,84,101
202710,note_on,0,0,3,,,,,,,,,2,,,55,88
202710,note_on,0,0,3,,,,,,,,,2,,,48,88
202710,note_on,0,0,1,,,,,,,,,0,,,76,101
202710,note_on,0,0,3,,,,,,,,,2,,,55,0
202710,note_on,0,0,3,,,,,,,,,2,,,58,88
202710,note_on,0,0,3,,,,,,,,,2,,,48,0
202710,note_on,0,0,1,,,,,,,,,0,,,79,101
202710,note_on,60,0,3,,,,,,,,,2,,,58,0
202710,note_on,0,0,1,,,,,,,,,0,,,72,0
202710,note_on,60,0,1,,,,,,,,,0,,,84,0
202710,note_on,0,0,1,,,,,,,,,0,,,84,101
202710,note_on,0,0,1,,,,,,,,,0,,,76,0
202710,note_on,0,0,1,,,,,,,,,0,,,72,101
202710,note_on,0,0,1,,,,,,,,,0,,,79,0
202830,note_on,120,0,1,,,,,,,,,0,,,84,0
202830,note_on,0,0,1,,,,,,,,,0,,,72,0
202830,note_on,0,0,1,,,,,,,,,0,,,76,0
202830,note_on,0,0,1,,,,,,,,,0,,,79,0
202830,note_on,0,0,3,,,,,,,,,2,,,32,88
202830,note_on,0,0,1,,,,,,,,,0,,,75,101
202830,note_on,0,0,1,,,,,,,,,0,,,80,101
202830,note_on,0,0,1,,,,,,,,,0,,,84,101
202830,note_on,120,0,3,,,,,,,,,2,,,58,0
202830,note_on,0,0,3,,,,,,,,,2,,,55,0
202830,note_on,0,0,3,,,,,,,,,2,,,44,88
202830,note_on,0,0,1,,,,,,,,,0,,,72,101
202830,note_on,0,0,3,,,,,,,,,2,,,48,0
202950,note_on,0,0,1,,,,,,,,,0,,,84,101
202950,note_on,120,0,3,,,,,,,,,2,,,44,0
202950,note_on,0,0,1,,,,,,,,,0,,,72,0
202950,note_on,0,0,1,,,,,,,,,0,,,75,0
202950,note_on,0,0,1,,,,,,,,,0,,,80,0
202950,note_on,0,0,3,,,,,,,,,2,,,32,0
202950,note_on,0,0,1,,,,,,,,,0,,,75,101
202950,note_on,0,0,1,,,,,,,,,0,,,80,101
202950,note_on,0,0,3,,,,,,,,,2,,,60,88
202950,note_on,0,0,3,,,,,,,,,2,,,56,88
202950,note_on,0,0,3,,,,,,,,,2,,,51,88
202950,note_on,0,0,1,,,,,,,,,0,,,72,101
202950,note_on,120,0,1,,,,,,,,,0,,,84,0
203010,note_on,60,0,1,,,,,,,,,0,,,84,0
203010,note_on,0,0,1,,,,,,,,,0,,,72,0
203010,note_on,0,0,1,,,,,,,,,0,,,75,0
203010,note_on,0,0,1,,,,,,,,,0,,,80,0
203010,note_on,0,0,1,,,,,,,,,0,,,72,101
203010,note_on,0,0,1,,,,,,,,,0,,,75,101
203010,note_on,0,0,1,,,,,,,,,0,,,80,101
203010,note_on,0,0,1,,,,,,,,,0,,,84,101
203010,note_on,0,0,3,,,,,,,,,2,,,56,88
203010,note_on,60,0,3,,,,,,,,,2,,,60,0
203010,note_on,0,0,3,,,,,,,,,2,,,56,0
203010,note_on,0,0,3,,,,,,,,,2,,,51,0
203010,note_on,0,0,3,,,,,,,,,2,,,51,88
203010,note_on,0,0,3,,,,,,,,,2,,,60,88
203070,note_on,0,0,1,,,,,,,,,0,,,72,0
203070,note_on,0,0,3,,,,,,,,,2,,,56,88
203070,note_on,0,0,3,,,,,,,,,2,,,51,88
203070,note_on,0,0,1,,,,,,,,,0,,,84,101
203070,note_on,0,0,1,,,,,,,,,0,,,80,101
203070,note_on,0,0,1,,,,,,,,,0,,,75,101
203070,note_on,0,0,1,,,,,,,,,0,,,72,101
203070,note_on,0,0,1,,,,,,,,,0,,,80,0
203070,note_on,0,0,3,,,,,,,,,2,,,60,88
203070,note_on,60,0,1,,,,,,,,,0,,,84,0
203070,note_on,0,0,3,,,,,,,,,2,,,51,0
203070,note_on,0,0,3,,,,,,,,,2,,,56,0
203070,note_on,60,0,3,,,,,,,,,2,,,60,0
203070,note_on,0,0,1,,,,,,,,,0,,,75,0
203190,note_on,120,0,3,,,,,,,,,2,,,60,0
203190,note_on,0,0,3,,,,,,,,,2,,,51,88
203190,note_on,0,0,1,,,,,,,,,0,,,80,0
203190,note_on,0,0,3,,,,,,,,,2,,,56,0
203190,note_on,0,0,3,,,,,,,,,2,,,51,0
203190,note_on,0,0,3,,,,,,,,,2,,,39,88
203190,note_on,0,0,1,,,,,,,,,0,,,75,0
203190,note_on,0,0,1,,,,,,,,,0,,,79,101
203190,note_on,0,0,1,,,,,,,,,0,,,72,0
203190,note_on,120,0,1,,,,,,,,,0,,,84,0
203190,note_on,0,0,1,,,,,,,,,0,,,75,101
203190,note_on,0,0,1,,,,,,,,,0,,,82,101
203190,note_on,0,0,1,,,,,,,,,0,,,87,101
203310,note_on,0,0,1,,,,,,,,,0,,,75,101
203310,note_on,0,0,1,,,,,,,,,0,,,82,0
203310,note_on,0,0,1,,,,,,,,,0,,,79,0
203310,note_on,0,0,1,,,,,,,,,0,,,75,0
203310,note_on,120,0,1,,,,,,,,,0,,,87,0
203310,note_on,0,0,3,,,,,,,,,2,,,39,0
203310,note_on,120,0,3,,,,,,,,,2,,,51,0
203310,note_on,0,0,3,,,,,,,,,2,,,51,88
203310,note_on,0,0,3,,,,,,,,,2,,,58,88
203310,note_on,0,0,3,,,,,,,,,2,,,61,88
203310,note_on,0,0,1,,,,,,,,,0,,,79,101
203310,note_on,0,0,1,,,,,,,,,0,,,82,101
203310,note_on,0,0,1,,,,,,,,,0,,,87,101
203370,note_on,0,0,3,,,,,,,,,2,,,61,88
203370,note_on,60,0,1,,,,,,,,,0,,,87,0
203370,note_on,0,0,1,,,,,,,,,0,,,75,0
203370,note_on,0,0,1,,,,,,,,,0,,,79,0
203370,note_on,0,0,1,,,,,,,,,0,,,82,0
203370,note_on,0,0,1,,,,,,,,,0,,,75,101
203370,note_on,0,0,1,,,,,,,,,0,,,79,101
203370,note_on,0,0,1,,,,,,,,,0,,,87,101
203370,note_on,0,0,1,,,,,,,,,0,,,82,101
203370,note_on,60,0,3,,,,,,,,,2,,,61,0
203370,note_on,0,0,3,,,,,,,,,2,,,58,0
203370,note_on,0,0,3,,,,,,,,,2,,,51,0
203370,note_on,0,0,3,,,,,,,,,2,,,51,88
203370,note_on,0,0,3,,,,,,,,,2,,,58,88
203430,note_on,0,0,3,,,,,,,,,2,,,61,88
203430,note_on,0,0,3,,,,,,,,,2,,,58,0
203430,note_on,60,0,3,,,,,,,,,2,,,61,0
203430,note_on,0,0,3,,,,,,,,,2,,,51,88
203430,note_on,0,0,3,,,,,,,,,2,,,58,88
203430,note_on,0,0,3,,,,,,,,,2,,,51,0
203430,note_on,0,0,1,,,,,,,,,0,,,87,101
203430,note_on,0,0,1,,,,,,,,,0,,,82,101
203430,note_on,0,0,1,,,,,,,,,0,,,79,101
203430,note_on,0,0,1,,,,,,,,,0,,,75,101
203430,note_on,0,0,1,,,,,,,,,0,,,82,0
203430,note_on,0,0,1,,,,,,,,,0,,,79,0
203430,note_on,0,0,1,,,,,,,,,0,,,75,0
203430,note_on,60,0,1,,,,,,,,,0,,,87,0
203550,note_on,0,0,1,,,,,,,,,0,,,75,101
203550,note_on,0,0,1,,,,,,,,,0,,,82,0
203550,note_on,0,0,3,,,,,,,,,2,,,60,88
203550,note_on,0,0,1,,,,,,,,,0,,,79,0
203550,note_on,120,0,3,,,,,,,,,2,,,61,0
203550,note_on,0,0,3,,,,,,,,,2,,,58,0
203550,note_on,120,0,1,,,,,,,,,0,,,87,0
203550,note_on,0,0,3,,,,,,,,,2,,,51,0
203550,note_on,0,0,1,,,,,,,,,0,,,84,101
203550,note_on,0,0,1,,,,,,,,,0,,,80,101
203550,note_on,0,0,1,,,,,,,,,0,,,75,0
203550,note_on,0,0,3,,,,,,,,,2,,,56,88
203730,note_on,0,0,1,,,,,,,,,0,,,80,0
203730,note_on,0,0,1,,,,,,,,,0,,,71,49
203730,note_on,0,0,1,,,,,,,,,0,,,75,0
203730,note_on,180,0,1,,,,,,,,,0,,,84,0
203790,note_on,0,0,3,,,,,,,,,2,,,56,0
203790,note_on,0,0,1,,,,,,,,,0,,,72,49
203790,note_on,60,0,1,,,,,,,,,0,,,71,0
203790,note_on,240,0,3,,,,,,,,,2,,,60,0
203850,note_on,0,0,1,,,,,,,,,0,,,74,49
203850,note_on,60,0,1,,,,,,,,,0,,,72,0
203910,note_on,120,0,3,,,,,,,,,2,,,44,36
203910,note_on,0,0,1,,,,,,,,,0,,,72,49
203910,note_on,60,0,1,,,,,,,,,0,,,74,0
203970,note_on,60,0,1,,,,,,,,,0,,,72,0
203970,note_on,0,0,1,,,,,,,,,0,,,84,49
204030,note_on,120,0,3,,,,,,,,,2,,,44,0
204030,note_on,0,0,3,,,,,,,,,2,,,56,36
204030,note_on,0,0,3,,,,,,,,,2,,,60,36
204030,note_on,0,0,3,,,,,,,,,2,,,66,36
204030,note_on,60,0,1,,,,,,,,,0,,,84,0
204030,note_on,0,0,1,,,,,,,,,0,,,83,49
204042,note_on,12,0,3,,,,,,,,,2,,,66,0
204042,note_on,0,0,3,,,,,,,,,2,,,60,0
204042,note_on,0,0,3,,,,,,,,,2,,,56,0
204090,note_on,0,0,1,,,,,,,,,0,,,84,49
204090,note_on,60,0,1,,,,,,,,,0,,,83,0
204150,note_on,108,0,3,,,,,,,,,2,,,56,36
204150,note_on,0,0,3,,,,,,,,,2,,,60,36
204150,note_on,60,0,1,,,,,,,,,0,,,84,0
204150,note_on,0,0,3,,,,,,,,,2,,,66,36
204150,note_on,0,0,1,,,,,,,,,0,,,86,49
204162,note_on,0,0,3,,,,,,,,,2,,,56,0
204162,note_on,0,0,3,,,,,,,,,2,,,60,0
204162,note_on,12,0,3,,,,,,,,,2,,,66,0
204210,note_on,0,0,1,,,,,,,,,0,,,87,49
204210,note_on,60,0,1,,,,,,,,,0,,,86,0
204270,note_on,60,0,1,,,,,,,,,0,,,87,0
204270,note_on,0,0,1,,,,,,,,,0,,,79,49
204270,note_on,108,0,3,,,,,,,,,2,,,43,36
204390,note_on,0,0,1,,,,,,,,,0,,,93,49
204390,note_on,120,0,1,,,,,,,,,0,,,79,0
204390,note_on,0,0,3,,,,,,,,,2,,,64,36
204390,note_on,0,0,3,,,,,,,,,2,,,67,36
204390,note_on,0,0,3,,,,,,,,,2,,,60,36
204390,note_on,0,0,3,,,,,,,,,2,,,55,36
204390,note_on,120,0,3,,,,,,,,,2,,,43,0
204402,note_on,0,0,3,,,,,,,,,2,,,64,0
204402,note_on,0,0,3,,,,,,,,,2,,,60,0
204402,note_on,0,0,3,,,,,,,,,2,,,55,0
204402,note_on,12,0,3,,,,,,,,,2,,,67,0
204450,note_on,0,0,1,,,,,,,,,0,,,91,49
204450,note_on,60,0,1,,,,,,,,,0,,,93,0
204510,note_on,0,0,3,,,,,,,,,2,,,64,36
204510,note_on,0,0,1,,,,,,,,,0,,,89,49
204510,note_on,60,0,1,,,,,,,,,0,,,91,0
204510,note_on,0,0,3,,,,,,,,,2,,,67,36
204510,note_on,108,0,3,,,,,,,,,2,,,55,36
204510,note_on,0,0,3,,,,,,,,,2,,,60,36
204522,note_on,0,0,3,,,,,,,,,2,,,55,0
204522,note_on,0,0,3,,,,,,,,,2,,,64,0
204522,note_on,12,0,3,,,,,,,,,2,,,67,0
204522,note_on,0,0,3,,,,,,,,,2,,,60,0
204570,note_on,60,0,1,,,,,,,,,0,,,89,0
204570,note_on,0,0,1,,,,,,,,,0,,,88,49
204630,note_on,108,0,3,,,,,,,,,2,,,43,36
204630,note_on,60,0,1,,,,,,,,,0,,,88,0
204630,note_on,0,0,1,,,,,,,,,0,,,88,49
204750,note_on,120,0,3,,,,,,,,,2,,,43,0
204750,note_on,0,0,3,,,,,,,,,2,,,65,36
204750,note_on,0,0,3,,,,,,,,,2,,,59,36
204750,note_on,120,0,1,,,,,,,,,0,,,88,0
204750,note_on,0,0,1,,,,,,,,,0,,,86,49
204750,note_on,0,0,3,,,,,,,,,2,,,55,36
204762,note_on,0,0,3,,,,,,,,,2,,,59,0
204762,note_on,12,0,3,,,,,,,,,2,,,65,0
204762,note_on,0,0,3,,,,,,,,,2,,,55,0
204810,note_on,0,0,1,,,,,,,,,0,,,101,49
204810,note_on,60,0,1,,,,,,,,,0,,,86,0
204870,note_on,0,0,3,,,,,,,,,2,,,59,36
204870,note_on,108,0,3,,,,,,,,,2,,,55,36
204870,note_on,60,0,1,,,,,,,,,0,,,101,0
204870,note_on,0,0,3,,,,,,,,,2,,,65,36
204870,note_on,0,0,1,,,,,,,,,0,,,100,49
204882,note_on,12,0,3,,,,,,,,,2,,,65,0
204882,note_on,0,0,3,,,,,,,,,2,,,59,0
204882,note_on,0,0,3,,,,,,,,,2,,,55,0
204930,note_on,0,0,1,,,,,,,,,0,,,98,49
204930,note_on,60,0,1,,,,,,,,,0,,,100,0
204990,note_on,0,0,1,,,,,,,,,0,,,96,49
204990,note_on,60,0,1,,,,,,,,,0,,,98,0
204990,note_on,108,0,3,,,,,,,,,2,,,48,36
204990,time_signature,11160,1,0,2,4,24,8,,,,,,,,,
205110,note_on,120,0,3,,,,,,,,,2,,,48,0
205110,note_on,0,0,3,,,,,,,,,2,,,64,36
205110,note_on,0,0,3,,,,,,,,,2,,,60,36
205110,note_on,0,0,3,,,,,,,,,2,,,55,36
205230,note_on,0,0,3,,,,,,,,,2,,,60,0
205230,note_on,0,0,3,,,,,,,,,2,,,55,0
205230,note_on,0,0,1,,,,,,,,,0,,,76,49
205230,time_signature,240,1,0,1,4,24,8,,,,,,,,,
205230,note_on,120,0,3,,,,,,,,,2,,,64,0
205230,note_on,240,0,1,,,,,,,,,0,,,96,0
205350,note_on,120,0,3,,,,,,,,,2,,,43,36
205350,note_on,0,0,1,,,,,,,,,0,,,73,75
205350,note_on,120,0,1,,,,,,,,,0,,,76,0
205350,time_signature,120,1,0,3,4,24,8,,,,,,,,,
205470,note_on,120,0,3,,,,,,,,,2,,,43,0
205470,note_on,0,0,3,,,,,,,,,2,,,55,36
205470,note_on,0,0,3,,,,,,,,,2,,,59,36
205470,note_on,0,0,1,,,,,,,,,0,,,74,49
205470,note_on,0,0,3,,,,,,,,,2,,,65,36
205470,note_on,120,0,1,,,,,,,,,0,,,73,0
205482,note_on,0,0,3,,,,,,,,,2,,,55,0
205482,note_on,0,0,3,,,,,,,,,2,,,59,0
205482,note_on,12,0,3,,,,,,,,,2,,,65,0
205530,note_on,60,0,1,,,,,,,,,0,,,74,0
205590,note_on,108,0,3,,,,,,,,,2,,,55,36
205590,note_on,0,0,3,,,,,,,,,2,,,62,36
205590,note_on,0,0,3,,,,,,,,,2,,,65,36
205590,note_on,0,0,1,,,,,,,,,0,,,74,49
205590,note_on,0,0,1,,,,,,,,,0,,,81,49
205590,note_on,60,0,1,,,,,,,,,0,,,71,49
205602,note_on,0,0,3,,,,,,,,,2,,,55,0
205602,note_on,12,0,3,,,,,,,,,2,,,65,0
205602,note_on,0,0,3,,,,,,,,,2,,,62,0
205710,note_on,0,0,1,,,,,,,,,0,,,74,0
205710,note_on,120,0,1,,,,,,,,,0,,,81,0
205710,note_on,108,0,3,,,,,,,,,2,,,48,36
205710,note_on,0,0,1,,,,,,,,,0,,,71,0
205710,note_on,35748,0,2,,,,,,,,,1,,,72,62
205710,note_on,0,0,2,,,,,,,,,1,,,76,62
205710,note_on,0,0,1,,,,,,,,,0,,,81,49
205830,note_on,0,0,3,,,,,,,,,2,,,64,36
205830,note_on,0,0,3,,,,,,,,,2,,,55,36
205830,note_on,120,0,3,,,,,,,,,2,,,48,0
205830,note_on,0,0,3,,,,,,,,,2,,,60,36
205842,note_on,0,0,3,,,,,,,,,2,,,60,0
205842,note_on,0,0,3,,,,,,,,,2,,,55,0
205842,note_on,12,0,3,,,,,,,,,2,,,64,0
205950,note_on,0,0,3,,,,,,,,,2,,,64,36
205950,note_on,0,0,3,,,,,,,,,2,,,60,36
205950,note_on,108,0,3,,,,,,,,,2,,,55,36
205950,note_on,240,0,1,,,,,,,,,0,,,81,0
205950,note_on,0,0,1,,,,,,,,,0,,,79,49
205962,note_on,12,0,3,,,,,,,,,2,,,64,0
205962,note_on,0,0,3,,,,,,,,,2,,,55,0
205962,note_on,0,0,3,,,,,,,,,2,,,60,0
206070,note_on,120,0,1,,,,,,,,,0,,,79,0
206070,note_on,0,0,1,,,,,,,,,0,,,77,49
206070,note_on,360,0,2,,,,,,,,,1,,,76,0
206070,note_on,108,0,3,,,,,,,,,2,,,43,36
206070,note_on,0,0,2,,,,,,,,,1,,,72,0
206130,note_on,0,0,1,,,,,,,,,0,,,76,49
206130,note_on,60,0,1,,,,,,,,,0,,,77,0
206190,note_on,0,0,3,,,,,,,,,2,,,62,36
206190,note_on,0,0,3,,,,,,,,,2,,,55,36
206190,note_on,120,0,3,,,,,,,,,2,,,43,0
206190,note_on,0,0,3,,,,,,,,,2,,,65,36
206190,note_on,0,0,1,,,,,,,,,0,,,77,49
206190,note_on,60,0,1,,,,,,,,,0,,,76,0
206202,note_on,0,0,3,,,,,,,,,2,,,62,0
206202,note_on,0,0,3,,,,,,,,,2,,,55,0
206202,note_on,12,0,3,,,,,,,,,2,,,65,0
206250,note_on,60,0,1,,,,,,,,,0,,,77,0
206250,note_on,0,0,1,,,,,,,,,0,,,67,49
206310,note_on,108,0,3,,,,,,,,,2,,,55,36
206310,note_on,0,0,3,,,,,,,,,2,,,65,36
206310,note_on,0,0,3,,,,,,,,,2,,,62,36
206310,note_on,60,0,1,,,,,,,,,0,,,67,0
206310,note_on,0,0,1,,,,,,,,,0,,,71,49
206322,note_on,0,0,3,,,,,,,,,2,,,55,0
206322,note_on,0,0,3,,,,,,,,,2,,,62,0
206322,note_on,12,0,3,,,,,,,,,2,,,65,0
206370,note_on,60,0,1,,,,,,,,,0,,,71,0
206370,note_on,0,0,1,,,,,,,,,0,,,77,49
206430,note_on,60,0,1,,,,,,,,,0,,,77,0
206430,note_on,108,0,3,,,,,,,,,2,,,48,36
206430,note_on,0,0,1,,,,,,,,,0,,,67,49
206490,note_on,60,0,1,,,,,,,,,0,,,67,0
206490,note_on,0,0,1,,,,,,,,,0,,,76,49
206550,note_on,60,0,1,,,,,,,,,0,,,76,0
206550,note_on,0,0,3,,,,,,,,,2,,,64,36
206550,note_on,0,0,1,,,,,,,,,0,,,72,49
206550,note_on,120,0,3,,,,,,,,,2,,,48,0
206550,note_on,0,0,3,,,,,,,,,2,,,60,36
206550,note_on,0,0,3,,,,,,,,,2,,,55,36
206562,note_on,12,0,3,,,,,,,,,2,,,64,0
206562,note_on,0,0,3,,,,,,,,,2,,,55,0
206562,note_on,0,0,3,,,,,,,,,2,,,60,0
206610,note_on,60,0,1,,,,,,,,,0,,,72,0
206610,note_on,0,0,1,,,,,,,,,0,,,67,49
206670,note_on,108,0,3,,,,,,,,,2,,,55,36
206670,note_on,0,0,1,,,,,,,,,0,,,72,49
206670,note_on,0,0,3,,,,,,,,,2,,,60,36
206670,note_on,0,0,3,,,,,,,,,2,,,64,36
206670,note_on,60,0,1,,,,,,,,,0,,,67,0
206682,note_on,12,0,3,,,,,,,,,2,,,64,0
206682,note_on,0,0,3,,,,,,,,,2,,,60,0
206682,note_on,0,0,3,,,,,,,,,2,,,55,0
206730,note_on,0,0,1,,,,,,,,,0,,,76,49
206730,note_on,60,0,1,,,,,,,,,0,,,72,0
206790,note_on,0,0,1,,,,,,,,,0,,,73,75
206790,note_on,60,0,1,,,,,,,,,0,,,76,0
206790,note_on,108,0,3,,,,,,,,,2,,,43,36
206910,note_on,0,0,3,,,,,,,,,2,,,65,36
206910,note_on,0,0,3,,,,,,,,,2,,,59,36
206910,note_on,0,0,3,,,,,,,,,2,,,55,36
206910,note_on,120,0,3,,,,,,,,,2,,,43,0
206910,note_on,120,0,1,,,,,,,,,0,,,73,0
206910,note_on,0,0,1,,,,,,,,,0,,,74,49
206922,note_on,0,0,3,,,,,,,,,2,,,55,0
206922,note_on,0,0,3,,,,,,,,,2,,,59,0
206922,note_on,12,0,3,,,,,,,,,2,,,65,0
206970,note_on,60,0,1,,,,,,,,,0,,,74,0
207030,note_on,0,0,1,,,,,,,,,0,,,81,49
207030,note_on,0,0,1,,,,,,,,,0,,,74,49
207030,note_on,0,0,3,,,,,,,,,2,,,65,36
207030,note_on,0,0,3,,,,,,,,,2,,,62,36
207030,note_on,108,0,3,,,,,,,,,2,,,55,36
207030,note_on,60,0,1,,,,,,,,,0,,,71,49
207042,note_on,0,0,3,,,,,,,,,2,,,62,0
207042,note_on,12,0,3,,,,,,,,,2,,,65,0
207042,note_on,0,0,3,,,,,,,,,2,,,55,0
207150,note_on,0,0,2,,,,,,,,,1,,,76,62
207150,note_on,1080,0,2,,,,,,,,,1,,,72,62
207150,note_on,120,0,1,,,,,,,,,0,,,81,0
207150,note_on,0,0,1,,,,,,,,,0,,,81,49
207150,note_on,0,0,1,,,,,,,,,0,,,71,0
207150,note_on,0,0,1,,,,,,,,,0,,,74,0
207150,note_on,108,0,3,,,,,,,,,2,,,48,36
207270,note_on,0,0,3,,,,,,,,,2,,,64,36
207270,note_on,0,0,3,,,,,,,,,2,,,60,36
207270,note_on,0,0,3,,,,,,,,,2,,,55,36
207270,note_on,120,0,3,,,,,,,,,2,,,48,0
207282,note_on,12,0,3,,,,,,,,,2,,,64,0
207282,note_on,0,0,3,,,,,,,,,2,,,55,0
207282,note_on,0,0,3,,,,,,,,,2,,,60,0
207390,note_on,0,0,1,,,,,,,,,0,,,79,49
207390,note_on,240,0,1,,,,,,,,,0,,,81,0
207390,note_on,0,0,3,,,,,,,,,2,,,60,36
207390,note_on,108,0,3,,,,,,,,,2,,,55,36
207390,note_on,0,0,3,,,,,,,,,2,,,64,36
207402,note_on,12,0,3,,,,,,,,,2,,,64,0
207402,note_on,0,0,3,,,,,,,,,2,,,60,0
207402,note_on,0,0,3,,,,,,,,,2,,,55,0
207510,note_on,108,0,3,,,,,,,,,2,,,43,36
207510,note_on,360,0,2,,,,,,,,,1,,,76,0
207510,note_on,0,0,2,,,,,,,,,1,,,72,0
207510,note_on,0,0,1,,,,,,,,,0,,,77,49
207510,note_on,120,0,1,,,,,,,,,0,,,79,0
207570,note_on,0,0,1,,,,,,,,,0,,,76,49
207570,note_on,60,0,1,,,,,,,,,0,,,77,0
207630,note_on,60,0,1,,,,,,,,,0,,,76,0
207630,note_on,0,0,1,,,,,,,,,0,,,77,49
207630,note_on,120,0,3,,,,,,,,,2,,,43,0
207630,note_on,0,0,3,,,,,,,,,2,,,55,36
207630,note_on,0,0,3,,,,,,,,,2,,,59,36
207630,note_on,0,0,3,,,,,,,,,2,,,65,36
207642,note_on,0,0,3,,,,,,,,,2,,,55,0
207642,note_on,12,0,3,,,,,,,,,2,,,65,0
207642,note_on,0,0,3,,,,,,,,,2,,,59,0
207690,note_on,60,0,1,,,,,,,,,0,,,77,0
207690,note_on,0,0,1,,,,,,,,,0,,,67,49
207750,note_on,60,0,1,,,,,,,,,0,,,67,0
207750,note_on,0,0,1,,,,,,,,,0,,,71,49
207750,note_on,108,0,3,,,,,,,,,2,,,55,36
207750,note_on,0,0,3,,,,,,,,,2,,,62,36
207750,note_on,0,0,3,,,,,,,,,2,,,65,36
207762,note_on,12,0,3,,,,,,,,,2,,,65,0
207762,note_on,0,0,3,,,,,,,,,2,,,62,0
207762,note_on,0,0,3,,,,,,,,,2,,,55,0
207810,note_on,0,0,1,,,,,,,,,0,,,76,49
207810,note_on,60,0,1,,,,,,,,,0,,,71,0
207870,time_signature,2520,1,0,2,4,24,8,,,,,,,,,
207870,note_on,108,0,3,,,,,,,,,2,,,48,36
207870,note_on,0,0,1,,,,,,,,,0,,,72,49
207870,note_on,60,0,1,,,,,,,,,0,,,76,0
207990,note_on,0,0,3,,,,,,,,,2,,,64,36
207990,note_on,0,0,3,,,,,,,,,2,,,55,36
207990,note_on,120,0,3,,,,,,,,,2,,,48,0
207990,note_on,0,0,3,,,,,,,,,2,,,60,36
208110,note_on,0,0,3,,,,,,,,,2,,,60,0
208110,note_on,120,0,3,,,,,,,,,2,,,64,0
208110,time_signature,240,1,0,1,4,24,8,,,,,,,,,
208110,note_on,0,0,1,,,,,,,,,0,,,76,49
208110,note_on,240,0,1,,,,,,,,,0,,,72,0
208110,note_on,0,0,3,,,,,,,,,2,,,55,0
208230,time_signature,120,1,0,3,4,24,8,,,,,,,,,
208230,note_on,0,0,1,,,,,,,,,0,,,73,75
208230,note_on,120,0,3,,,,,,,,,2,,,43,36
208230,note_on,120,0,1,,,,,,,,,0,,,76,0
208350,note_on,120,0,1,,,,,,,,,0,,,73,0
208350,note_on,0,0,1,,,,,,,,,0,,,74,49
208350,note_on,0,0,3,,,,,,,,,2,,,65,36
208350,note_on,0,0,3,,,,,,,,,2,,,59,36
208350,note_on,0,0,3,,,,,,,,,2,,,55,36
208350,note_on,120,0,3,,,,,,,,,2,,,43,0
208362,note_on,0,0,3,,,,,,,,,2,,,55,0
208362,note_on,0,0,3,,,,,,,,,2,,,59,0
208362,note_on,12,0,3,,,,,,,,,2,,,65,0
208410,note_on,60,0,1,,,,,,,,,0,,,74,0
208470,note_on,0,0,1,,,,,,,,,0,,,81,49
208470,note_on,0,0,1,,,,,,,,,0,,,74,49
208470,note_on,60,0,1,,,,,,,,,0,,,71,49
208470,note_on,108,0,3,,,,,,,,,2,,,55,36
208470,note_on,0,0,3,,,,,,,,,2,,,62,36
208470,note_on,0,0,3,,,,,,,,,2,,,65,36
208482,note_on,12,0,3,,,,,,,,,2,,,65,0
208482,note_on,0,0,3,,,,,,,,,2,,,62,0
208482,note_on,0,0,3,,,,,,,,,2,,,55,0
208590,note_on,1080,0,2,,,,,,,,,1,,,72,62
208590,note_on,120,0,1,,,,,,,,,0,,,81,0
208590,note_on,0,0,1,,,,,,,,,0,,,74,0
208590,note_on,0,0,1,,,,,,,,,0,,,71,0
208590,note_on,0,0,1,,,,,,,,,0,,,81,49
208590,note_on,108,0,3,,,,,,,,,2,,,48,36
208590,note_on,0,0,2,,,,,,,,,1,,,76,62
208710,note_on,0,0,3,,,,,,,,,2,,,55,36
208710,note_on,0,0,3,,,,,,,,,2,,,60,36
208710,note_on,0,0,3,,,,,,,,,2,,,64,36
208710,note_on,120,0,3,,,,,,,,,2,,,48,0
208722,note_on,0,0,3,,,,,,,,,2,,,60,0
208722,note_on,12,0,3,,,,,,,,,2,,,64,0
208722,note_on,0,0,3,,,,,,,,,2,,,55,0
208830,note_on,240,0,1,,,,,,,,,0,,,81,0
208830,note_on,0,0,3,,,,,,,,,2,,,64,36
208830,note_on,0,0,3,,,,,,,,,2,,,60,36
208830,note_on,0,0,1,,,,,,,,,0,,,79,49
208830,note_on,108,0,3,,,,,,,,,2,,,55,36
208842,note_on,12,0,3,,,,,,,,,2,,,64,0
208842,note_on,0,0,3,,,,,,,,,2,,,55,0
208842,note_on,0,0,3,,,,,,,,,2,,,60,0
208950,note_on,0,0,2,,,,,,,,,1,,,72,0
208950,note_on,120,0,1,,,,,,,,,0,,,79,0
208950,note_on,360,0,2,,,,,,,,,1,,,76,0
208950,note_on,0,0,1,,,,,,,,,0,,,77,49
208950,note_on,108,0,3,,,,,,,,,2,,,43,36
209010,note_on,0,0,1,,,,,,,,,0,,,76,49
209010,note_on,60,0,1,,,,,,,,,0,,,77,0
209070,note_on,0,0,3,,,,,,,,,2,,,55,36
209070,note_on,0,0,3,,,,,,,,,2,,,62,36
209070,note_on,0,0,3,,,,,,,,,2,,,65,36
209070,note_on,0,0,1,,,,,,,,,0,,,77,49
209070,note_on,60,0,1,,,,,,,,,0,,,76,0
209070,note_on,120,0,3,,,,,,,,,2,,,43,0
209082,note_on,12,0,3,,,,,,,,,2,,,65,0
209082,note_on,0,0,3,,,,,,,,,2,,,62,0
209082,note_on,0,0,3,,,,,,,,,2,,,55,0
209130,note_on,60,0,1,,,,,,,,,0,,,77,0
209130,note_on,0,0,1,,,,,,,,,0,,,67,49
209190,note_on,0,0,3,,,,,,,,,2,,,62,36
209190,note_on,0,0,1,,,,,,,,,0,,,71,49
209190,note_on,108,0,3,,,,,,,,,2,,,55,36
209190,note_on,60,0,1,,,,,,,,,0,,,67,0
209190,note_on,0,0,3,,,,,,,,,2,,,65,36
209202,note_on,0,0,3,,,,,,,,,2,,,62,0
209202,note_on,0,0,3,,,,,,,,,2,,,55,0
209202,note_on,12,0,3,,,,,,,,,2,,,65,0
209250,note_on,60,0,1,,,,,,,,,0,,,71,0
209250,note_on,0,0,1,,,,,,,,,0,,,77,49
209310,note_on,60,0,1,,,,,,,,,0,,,77,0
209310,note_on,108,0,3,,,,,,,,,2,,,48,36
209310,note_on,0,0,1,,,,,,,,,0,,,67,49
209370,note_on,0,0,1,,,,,,,,,0,,,76,49
209370,note_on,60,0,1,,,,,,,,,0,,,67,0
209430,note_on,60,0,1,,,,,,,,,0,,,76,0
209430,note_on,0,0,3,,,,,,,,,2,,,64,36
209430,note_on,0,0,3,,,,,,,,,2,,,60,36
209430,note_on,120,0,3,,,,,,,,,2,,,48,0
209430,note_on,0,0,1,,,,,,,,,0,,,72,49
209430,note_on,0,0,3,,,,,,,,,2,,,55,36
209442,note_on,0,0,3,,,,,,,,,2,,,60,0
209442,note_on,12,0,3,,,,,,,,,2,,,64,0
209442,note_on,0,0,3,,,,,,,,,2,,,55,0
209490,note_on,0,0,1,,,,,,,,,0,,,67,49
209490,note_on,60,0,1,,,,,,,,,0,,,72,0
209550,note_on,0,0,3,,,,,,,,,2,,,64,36
209550,note_on,0,0,3,,,,,,,,,2,,,60,36
209550,note_on,0,0,1,,,,,,,,,0,,,72,49
209550,note_on,60,0,1,,,,,,,,,0,,,67,0
209550,note_on,108,0,3,,,,,,,,,2,,,55,36
209562,note_on,12,0,3,,,,,,,,,2,,,64,0
209562,note_on,0,0,3,,,,,,,,,2,,,60,0
209562,note_on,0,0,3,,,,,,,,,2,,,55,0
209610,note_on,0,0,1,,,,,,,,,0,,,76,49
209610,note_on,60,0,1,,,,,,,,,0,,,72,0
209670,note_on,0,0,1,,,,,,,,,0,,,73,75
209670,note_on,60,0,1,,,,,,,,,0,,,76,0
209670,note_on,108,0,3,,,,,,,,,2,,,43,36
209790,note_on,0,0,3,,,,,,,,,2,,,55,36
209790,note_on,0,0,1,,,,,,,,,0,,,74,49
209790,note_on,120,0,3,,,,,,,,,2,,,43,0
209790,note_on,0,0,3,,,,,,,,,2,,,59,36
209790,note_on,120,0,1,,,,,,,,,0,,,73,0
209790,note_on,0,0,3,,,,,,,,,2,,,65,36
209802,note_on,0,0,3,,,,,,,,,2,,,59,0
209802,note_on,12,0,3,,,,,,,,,2,,,65,0
209802,note_on,0,0,3,,,,,,,,,2,,,55,0
209850,note_on,60,0,1,,,,,,,,,0,,,74,0
209910,note_on,0,0,1,,,,,,,,,0,,,81,49
209910,note_on,60,0,1,,,,,,,,,0,,,71,49
209910,note_on,0,0,3,,,,,,,,,2,,,65,36
209910,note_on,0,0,1,,,,,,,,,0,,,74,49
209910,note_on,0,0,3,,,,,,,,,2,,,62,36
209910,note_on,108,0,3,,,,,,,,,2,,,55,36
209922,note_on,0,0,3,,,,,,,,,2,,,62,0
209922,note_on,12,0,3,,,,,,,,,2,,,65,0
209922,note_on,0,0,3,,,,,,,,,2,,,55,0
210030,note_on,1080,0,2,,,,,,,,,1,,,72,62
210030,note_on,0,0,2,,,,,,,,,1,,,76,62
210030,note_on,0,0,1,,,,,,,,,0,,,81,49
210030,note_on,0,0,1,,,,,,,,,0,,,71,0
210030,note_on,0,0,1,,,,,,,,,0,,,74,0
210030,note_on,108,0,3,,,,,,,,,2,,,48,36
210030,note_on,120,0,1,,,,,,,,,0,,,81,0
210150,note_on,0,0,3,,,,,,,,,2,,,60,36
210150,note_on,0,0,3,,,,,,,,,2,,,55,36
210150,note_on,0,0,3,,,,,,,,,2,,,64,36
210150,note_on,120,0,3,,,,,,,,,2,,,48,0
210162,note_on,0,0,3,,,,,,,,,2,,,60,0
210162,note_on,0,0,3,,,,,,,,,2,,,55,0
210162,note_on,12,0,3,,,,,,,,,2,,,64,0
210270,note_on,108,0,3,,,,,,,,,2,,,55,36
210270,note_on,0,0,3,,,,,,,,,2,,,60,36
210270,note_on,0,0,3,,,,,,,,,2,,,64,36
210270,note_on,0,0,1,,,,,,,,,0,,,79,49
210270,note_on,240,0,1,,,,,,,,,0,,,81,0
210282,note_on,0,0,3,,,,,,,,,2,,,55,0
210282,note_on,0,0,3,,,,,,,,,2,,,60,0
210282,note_on,12,0,3,,,,,,,,,2,,,64,0
210390,note_on,120,0,1,,,,,,,,,0,,,79,0
210390,note_on,0,0,2,,,,,,,,,1,,,72,0
210390,note_on,360,0,2,,,,,,,,,1,,,76,0
210390,note_on,0,0,1,,,,,,,,,0,,,77,49
210390,note_on,108,0,3,,,,,,,,,2,,,43,36
210450,note_on,0,0,1,,,,,,,,,0,,,76,49
210450,note_on,60,0,1,,,,,,,,,0,,,77,0
210510,note_on,120,0,3,,,,,,,,,2,,,43,0
210510,note_on,60,0,1,,,,,,,,,0,,,76,0
210510,note_on,0,0,1,,,,,,,,,0,,,77,49
210510,note_on,0,0,3,,,,,,,,,2,,,65,36
210510,note_on,0,0,3,,,,,,,,,2,,,55,36
210510,note_on,0,0,3,,,,,,,,,2,,,59,36
210522,note_on,12,0,3,,,,,,,,,2,,,65,0
210522,note_on,0,0,3,,,,,,,,,2,,,59,0
210522,note_on,0,0,3,,,,,,,,,2,,,55,0
210570,note_on,0,0,1,,,,,,,,,0,,,67,49
210570,note_on,60,0,1,,,,,,,,,0,,,77,0
210630,note_on,0,0,1,,,,,,,,,0,,,71,49
210630,note_on,60,0,1,,,,,,,,,0,,,67,0
210630,note_on,0,0,3,,,,,,,,,2,,,62,36
210630,note_on,108,0,3,,,,,,,,,2,,,55,36
210630,note_on,0,0,3,,,,,,,,,2,,,65,36
210642,note_on,12,0,3,,,,,,,,,2,,,65,0
210642,note_on,0,0,3,,,,,,,,,2,,,62,0
210642,note_on,0,0,3,,,,,,,,,2,,,55,0
210690,note_on,0,0,1,,,,,,,,,0,,,76,49
210690,note_on,60,0,1,,,,,,,,,0,,,71,0
210750,note_on,0,0,1,,,,,,,,,0,,,72,49
210750,note_on,108,0,3,,,,,,,,,2,,,48,36
210750,note_on,60,0,1,,,,,,,,,0,,,76,0
210870,note_on,120,0,3,,,,,,,,,2,,,48,0
210870,note_on,0,0,3,,,,,,,,,2,,,60,36
210870,note_on,0,0,3,,,,,,,,,2,,,55,36
210870,note_on,0,0,3,,,,,,,,,2,,,64,36
210930,note_on,0,0,1,,,,,,,,,0,,,74,49
210930,note_on,180,0,1,,,,,,,,,0,,,72,0
210990,note_on,0,0,3,,,,,,,,,2,,,60,0
210990,note_on,0,0,3,,,,,,,,,2,,,55,0
210990,note_on,120,0,3,,,,,,,,,2,,,64,0
210990,note_on,0,0,1,,,,,,,,,0,,,72,49
210990,note_on,60,0,1,,,,,,,,,0,,,74,0
211050,note_on,0,0,1,,,,,,,,,0,,,71,49
211050,note_on,60,0,1,,,,,,,,,0,,,72,0
211110,note_on,120,0,3,,,,,,,,,2,,,50,36
211110,note_on,0,0,1,,,,,,,,,0,,,69,49
211110,note_on,60,0,1,,,,,,,,,0,,,71,0
211170,note_on,0,0,1,,,,,,,,,0,,,71,49
211170,note_on,60,0,1,,,,,,,,,0,,,69,0
211230,note_on,60,0,1,,,,,,,,,0,,,71,0
211230,note_on,120,0,3,,,,,,,,,2,,,50,0
211230,note_on,0,0,3,,,,,,,,,2,,,69,36
211230,note_on,0,0,3,,,,,,,,,2,,,62,36
211230,note_on,0,0,1,,,,,,,,,0,,,72,49
211242,note_on,0,0,3,,,,,,,,,2,,,62,0
211242,note_on,12,0,3,,,,,,,,,2,,,69,0
211290,note_on,0,0,1,,,,,,,,,0,,,74,49
211290,note_on,60,0,1,,,,,,,,,0,,,72,0
211350,note_on,0,0,1,,,,,,,,,0,,,76,49
211350,note_on,0,0,3,,,,,,,,,2,,,69,36
211350,note_on,108,0,3,,,,,,,,,2,,,62,36
211350,note_on,60,0,1,,,,,,,,,0,,,74,0
211362,note_on,0,0,3,,,,,,,,,2,,,62,0
211362,note_on,12,0,3,,,,,,,,,2,,,69,0
211410,note_on,0,0,1,,,,,,,,,0,,,78,49
211410,note_on,60,0,1,,,,,,,,,0,,,76,0
211470,note_on,108,0,3,,,,,,,,,2,,,55,36
211470,note_on,60,0,1,,,,,,,,,0,,,78,0
211470,note_on,0,0,1,,,,,,,,,0,,,79,49
211530,note_on,60,0,1,,,,,,,,,0,,,79,0
211530,note_on,0,0,1,,,,,,,,,0,,,81,49
211590,note_on,0,0,3,,,,,,,,,2,,,67,36
211590,note_on,60,0,1,,,,,,,,,0,,,81,0
211590,note_on,0,0,1,,,,,,,,,0,,,83,49
211590,note_on,0,0,3,,,,,,,,,2,,,59,36
211590,note_on,120,0,3,,,,,,,,,2,,,55,0
211602,note_on,12,0,3,,,,,,,,,2,,,67,0
211602,note_on,0,0,3,,,,,,,,,2,,,59,0
211650,note_on,60,0,1,,,,,,,,,0,,,83,0
211650,note_on,0,0,1,,,,,,,,,0,,,84,49
211710,note_on,108,0,3,,,,,,,,,2,,,59,36
211710,note_on,60,0,1,,,,,,,,,0,,,84,0
211710,note_on,0,0,1,,,,,,,,,0,,,86,49
211710,note_on,0,0,3,,,,,,,,,2,,,67,36
211722,note_on,0,0,3,,,,,,,,,2,,,59,0
211722,note_on,12,0,3,,,,,,,,,2,,,67,0
211770,note_on,60,0,1,,,,,,,,,0,,,86,0
211770,note_on,0,0,1,,,,,,,,,0,,,88,49
211830,note_on,0,0,1,,,,,,,,,0,,,85,75
211830,note_on,1440,0,2,,,,,,,,,1,,,78,54
211830,note_on,0,0,2,,,,,,,,,1,,,81,62
211830,note_on,108,0,3,,,,,,,,,2,,,50,62
211830,note_on,60,0,1,,,,,,,,,0,,,88,0
211950,note_on,120,0,3,,,,,,,,,2,,,50,0
211950,note_on,0,0,3,,,,,,,,,2,,,62,36
211950,note_on,0,0,3,,,,,,,,,2,,,69,36
211950,note_on,0,0,3,,,,,,,,,2,,,72,36
211962,note_on,12,0,3,,,,,,,,,2,,,72,0
211962,note_on,0,0,3,,,,,,,,,2,,,62,0
211962,note_on,0,0,3,,,,,,,,,2,,,69,0
212070,note_on,108,0,3,,,,,,,,,2,,,62,36
212070,note_on,0,0,3,,,,,,,,,2,,,69,36
212070,note_on,0,0,3,,,,,,,,,2,,,72,36
212070,note_on,240,0,1,,,,,,,,,0,,,85,0
212070,note_on,0,0,1,,,,,,,,,0,,,86,49
212082,note_on,0,0,3,,,,,,,,,2,,,69,0
212082,note_on,0,0,3,,,,,,,,,2,,,62,0
212082,note_on,12,0,3,,,,,,,,,2,,,72,0
212190,note_on,120,0,1,,,,,,,,,0,,,86,0
212190,note_on,108,0,3,,,,,,,,,2,,,55,36
212190,note_on,360,0,2,,,,,,,,,1,,,81,0
212190,note_on,0,0,2,,,,,,,,,1,,,78,0
212190,note_on,0,0,2,,,,,,,,,1,,,79,36
212190,note_on,0,0,2,,,,,,,,,1,,,83,36
212190,note_on,0,0,1,,,,,,,,,0,,,88,49
212310,note_on,120,0,3,,,,,,,,,2,,,55,0
212310,note_on,0,0,3,,,,,,,,,2,,,62,36
212310,note_on,0,0,3,,,,,,,,,2,,,67,36
212310,note_on,0,0,3,,,,,,,,,2,,,71,36
212322,note_on,0,0,3,,,,,,,,,2,,,67,0
212322,note_on,12,0,3,,,,,,,,,2,,,71,0
212322,note_on,0,0,3,,,,,,,,,2,,,62,0
212430,note_on,240,0,1,,,,,,,,,0,,,88,0
212430,note_on,0,0,1,,,,,,,,,0,,,86,49
212430,note_on,0,0,3,,,,,,,,,2,,,71,36
212430,note_on,0,0,3,,,,,,,,,2,,,67,36
212430,note_on,108,0,3,,,,,,,,,2,,,62,36
212442,note_on,0,0,3,,,,,,,,,2,,,62,0
212442,note_on,0,0,3,,,,,,,,,2,,,67,0
212442,note_on,12,0,3,,,,,,,,,2,,,71,0
212550,note_on,108,0,3,,,,,,,,,2,,,50,36
212550,note_on,120,0,1,,,,,,,,,0,,,86,0
212550,note_on,0,0,1,,,,,,,,,0,,,69,49
212550,note_on,360,0,2,,,,,,,,,1,,,83,0
212550,note_on,0,0,2,,,,,,,,,1,,,79,0
212610,note_on,60,0,1,,,,,,,,,0,,,69,0
212610,note_on,0,0,1,,,,,,,,,0,,,71,49
212670,note_on,0,0,3,,,,,,,,,2,,,62,36
212670,note_on,0,0,3,,,,,,,,,2,,,69,36
212670,note_on,0,0,1,,,,,,,,,0,,,72,49
212670,note_on,60,0,1,,,,,,,,,0,,,71,0
212670,note_on,120,0,3,,,,,,,,,2,,,50,0
212682,note_on,0,0,3,,,,,,,,,2,,,62,0
212682,note_on,12,0,3,,,,,,,,,2,,,69,0
212730,note_on,0,0,1,,,,,,,,,0,,,74,49
212730,note_on,60,0,1,,,,,,,,,0,,,72,0
212790,note_on,0,0,3,,,,,,,,,2,,,69,36
212790,note_on,0,0,1,,,,,,,,,0,,,76,49
212790,note_on,60,0,1,,,,,,,,,0,,,74,0
212790,note_on,108,0,3,,,,,,,,,2,,,62,36
212802,note_on,0,0,3,,,,,,,,,2,,,62,0
212802,note_on,12,0,3,,,,,,,,,2,,,69,0
212850,note_on,60,0,1,,,,,,,,,0,,,76,0
212850,note_on,0,0,1,,,,,,,,,0,,,78,49
212910,note_on,108,0,3,,,,,,,,,2,,,55,36
212910,note_on,0,0,1,,,,,,,,,0,,,79,49
212910,note_on,60,0,1,,,,,,,,,0,,,78,0
212970,note_on,0,0,1,,,,,,,,,0,,,81,49
212970,note_on,60,0,1,,,,,,,,,0,,,79,0
213030,note_on,60,0,1,,,,,,,,,0,,,81,0
213030,note_on,120,0,3,,,,,,,,,2,,,55,0
213030,note_on,0,0,3,,,,,,,,,2,,,59,36
213030,note_on,0,0,3,,,,,,,,,2,,,67,36
213030,note_on,0,0,1,,,,,,,,,0,,,83,49
213042,note_on,12,0,3,,,,,,,,,2,,,67,0
213042,note_on,0,0,3,,,,,,,,,2,,,59,0
213090,note_on,60,0,1,,,,,,,,,0,,,83,0
213090,note_on,0,0,1,,,,,,,,,0,,,84,49
213150,note_on,108,0,3,,,,,,,,,2,,,59,36
213150,note_on,60,0,1,,,,,,,,,0,,,84,0
213150,note_on,0,0,1,,,,,,,,,0,,,86,49
213150,note_on,0,0,3,,,,,,,,,2,,,67,36
213162,note_on,12,0,3,,,,,,,,,2,,,67,0
213162,note_on,0,0,3,,,,,,,,,2,,,59,0
213210,note_on,60,0,1,,,,,,,,,0,,,86,0
213210,note_on,0,0,1,,,,,,,,,0,,,88,49
213240,note_on,30,0,1,,,,,,,,,0,,,90,49
213255,note_on,0,0,1,,,,,,,,,0,,,91,49
213255,note_on,15,0,1,,,,,,,,,0,,,90,0
213270,note_on,108,0,3,,,,,,,,,2,,,50,36
213270,note_on,0,0,1,,,,,,,,,0,,,90,49
213270,note_on,0,0,1,,,,,,,,,0,,,88,0
213270,note_on,15,0,1,,,,,,,,,0,,,91,0
213330,note_on,0,0,1,,,,,,,,,0,,,88,49
213330,note_on,60,0,1,,,,,,,,,0,,,90,0
213390,note_on,0,0,3,,,,,,,,,2,,,69,36
213390,note_on,0,0,1,,,,,,,,,0,,,90,49
213390,note_on,60,0,1,,,,,,,,,0,,,88,0
213390,note_on,120,0,3,,,,,,,,,2,,,50,0
213390,note_on,0,0,3,,,,,,,,,2,,,72,36
213390,note_on,0,0,3,,,,,,,,,2,,,62,36
213402,note_on,0,0,3,,,,,,,,,2,,,62,0
213402,note_on,0,0,3,,,,,,,,,2,,,69,0
213402,note_on,12,0,3,,,,,,,,,2,,,72,0
213450,note_on,0,0,1,,,,,,,,,0,,,96,49
213450,note_on,60,0,1,,,,,,,,,0,,,90,0
213510,note_on,60,0,1,,,,,,,,,0,,,96,0
213510,note_on,0,0,1,,,,,,,,,0,,,95,49
213510,note_on,0,0,3,,,,,,,,,2,,,72,36
213510,note_on,108,0,3,,,,,,,,,2,,,62,36
213510,note_on,0,0,3,,,,,,,,,2,,,66,36
213522,note_on,0,0,3,,,,,,,,,2,,,66,0
213522,note_on,0,0,3,,,,,,,,,2,,,62,0
213522,note_on,12,0,3,,,,,,,,,2,,,72,0
213570,note_on,0,0,1,,,,,,,,,0,,,93,49
213570,note_on,60,0,1,,,,,,,,,0,,,95,0
213630,note_on,60,0,1,,,,,,,,,0,,,93,0
213630,note_on,108,0,3,,,,,,,,,2,,,67,36
213630,note_on,0,0,3,,,,,,,,,2,,,71,36
213630,note_on,0,0,1,,,,,,,,,0,,,91,49
213870,note_on,0,0,1,,,,,,,,,0,,,76,49
213870,note_on,240,0,3,,,,,,,,,2,,,71,0
213870,note_on,0,0,3,,,,,,,,,2,,,67,0
213870,note_on,240,0,1,,,,,,,,,0,,,91,0
213990,note_on,120,0,3,,,,,,,,,2,,,43,36
213990,note_on,120,0,1,,,,,,,,,0,,,76,0
213990,note_on,0,0,1,,,,,,,,,0,,,73,75
214110,note_on,0,0,3,,,,,,,,,2,,,65,36
214110,note_on,0,0,3,,,,,,,,,2,,,59,36
214110,note_on,0,0,3,,,,,,,,,2,,,55,36
214110,note_on,120,0,3,,,,,,,,,2,,,43,0
214110,note_on,0,0,1,,,,,,,,,0,,,74,49
214110,note_on,120,0,1,,,,,,,,,0,,,73,0
214122,note_on,0,0,3,,,,,,,,,2,,,55,0
214122,note_on,0,0,3,,,,,,,,,2,,,59,0
214122,note_on,12,0,3,,,,,,,,,2,,,65,0
214170,note_on,60,0,1,,,,,,,,,0,,,74,0
214230,note_on,0,0,1,,,,,,,,,0,,,74,49
214230,note_on,0,0,1,,,,,,,,,0,,,81,49
214230,note_on,60,0,1,,,,,,,,,0,,,71,49
214230,note_on,0,0,3,,,,,,,,,2,,,65,36
214230,note_on,0,0,3,,,,,,,,,2,,,62,36
214230,note_on,108,0,3,,,,,,,,,2,,,55,36
214242,note_on,0,0,3,,,,,,,,,2,,,55,0
214242,note_on,0,0,3,,,,,,,,,2,,,62,0
214242,note_on,12,0,3,,,,,,,,,2,,,65,0
214350,note_on,108,0,3,,,,,,,,,2,,,48,36
214350,note_on,1800,0,2,,,,,,,,,1,,,72,36
214350,note_on,0,0,2,,,,,,,,,1,,,76,36
214350,note_on,0,0,1,,,,,,,,,0,,,81,49
214350,note_on,0,0,1,,,,,,,,,0,,,71,0
214350,note_on,0,0,1,,,,,,,,,0,,,74,0
214350,note_on,120,0,1,,,,,,,,,0,,,81,0
214470,note_on,0,0,3,,,,,,,,,2,,,64,36
214470,note_on,120,0,3,,,,,,,,,2,,,48,0
214470,note_on,0,0,3,,,,,,,,,2,,,55,36
214470,note_on,0,0,3,,,,,,,,,2,,,60,36
214482,note_on,0,0,3,,,,,,,,,2,,,60,0
214482,note_on,12,0,3,,,,,,,,,2,,,64,0
214482,note_on,0,0,3,,,,,,,,,2,,,55,0
214590,note_on,240,0,1,,,,,,,,,0,,,81,0
214590,note_on,0,0,1,,,,,,,,,0,,,79,49
214590,note_on,108,0,3,,,,,,,,,2,,,55,36
214590,note_on,0,0,3,,,,,,,,,2,,,60,36
214590,note_on,0,0,3,,,,,,,,,2,,,64,36
214602,note_on,12,0,3,,,,,,,,,2,,,64,0
214602,note_on,0,0,3,,,,,,,,,2,,,60,0
214602,note_on,0,0,3,,,,,,,,,2,,,55,0
214710,note_on,0,0,1,,,,,,,,,0,,,77,49
214710,note_on,120,0,1,,,,,,,,,0,,,79,0
214710,note_on,360,0,2,,,,,,,,,1,,,76,0
214710,note_on,0,0,2,,,,,,,,,1,,,72,0
214710,note_on,108,0,3,,,,,,,,,2,,,43,36
214770,note_on,0,0,1,,,,,,,,,0,,,76,49
214770,note_on,60,0,1,,,,,,,,,0,,,77,0
214830,note_on,0,0,1,,,,,,,,,0,,,77,49
214830,note_on,0,0,3,,,,,,,,,2,,,55,36
214830,note_on,120,0,3,,,,,,,,,2,,,43,0
214830,note_on,0,0,3,,,,,,,,,2,,,65,36
214830,note_on,0,0,3,,,,,,,,,2,,,62,36
214830,note_on,60,0,1,,,,,,,,,0,,,76,0
214842,note_on,0,0,3,,,,,,,,,2,,,55,0
214842,note_on,0,0,3,,,,,,,,,2,,,62,0
214842,note_on,12,0,3,,,,,,,,,2,,,65,0
214890,note_on,60,0,1,,,,,,,,,0,,,77,0
214890,note_on,0,0,1,,,,,,,,,0,,,67,49
214950,note_on,108,0,3,,,,,,,,,2,,,55,36
214950,note_on,60,0,1,,,,,,,,,0,,,67,0
214950,note_on,0,0,1,,,,,,,,,0,,,71,49
214950,note_on,0,0,3,,,,,,,,,2,,,65,36
214950,note_on,0,0,3,,,,,,,,,2,,,62,36
214962,note_on,0,0,3,,,,,,,,,2,,,55,0
214962,note_on,0,0,3,,,,,,,,,2,,,62,0
214962,note_on,12,0,3,,,,,,,,,2,,,65,0
215010,note_on,60,0,1,,,,,,,,,0,,,71,0
215010,note_on,0,0,1,,,,,,,,,0,,,77,49
215070,note_on,0,0,1,,,,,,,,,0,,,67,49
215070,note_on,60,0,1,,,,,,,,,0,,,77,0
215070,note_on,108,0,3,,,,,,,,,2,,,48,36
215130,note_on,0,0,1,,,,,,,,,0,,,76,49
215130,note_on,60,0,1,,,,,,,,,0,,,67,0
215190,note_on,60,0,1,,,,,,,,,0,,,76,0
215190,note_on,0,0,1,,,,,,,,,0,,,72,49
215190,note_on,0,0,3,,,,,,,,,2,,,64,36
215190,note_on,120,0,3,,,,,,,,,2,,,48,0
215190,note_on,0,0,3,,,,,,,,,2,,,55,36
215190,note_on,0,0,3,,,,,,,,,2,,,60,36
215202,note_on,0,0,3,,,,,,,,,2,,,60,0
215202,note_on,12,0,3,,,,,,,,,2,,,64,0
215202,note_on,0,0,3,,,,,,,,,2,,,55,0
215250,note_on,0,0,1,,,,,,,,,0,,,67,49
215250,note_on,60,0,1,,,,,,,,,0,,,72,0
215310,note_on,108,0,3,,,,,,,,,2,,,55,36
215310,note_on,0,0,3,,,,,,,,,2,,,60,36
215310,note_on,60,0,1,,,,,,,,,0,,,67,0
215310,note_on,0,0,1,,,,,,,,,0,,,72,49
215310,note_on,0,0,3,,,,,,,,,2,,,64,36
215322,note_on,0,0,3,,,,,,,,,2,,,60,0
215322,note_on,0,0,3,,,,,,,,,2,,,55,0
215322,note_on,12,0,3,,,,,,,,,2,,,64,0
215370,note_on,60,0,1,,,,,,,,,0,,,72,0
215370,note_on,0,0,1,,,,,,,,,0,,,76,49
215430,note_on,60,0,1,,,,,,,,,0,,,76,0
215430,note_on,0,0,1,,,,,,,,,0,,,73,75
215430,note_on,108,0,3,,,,,,,,,2,,,43,36
215550,note_on,0,0,3,,,,,,,,,2,,,55,36
215550,note_on,120,0,1,,,,,,,,,0,,,73,0
215550,note_on,0,0,1,,,,,,,,,0,,,74,49
215550,note_on,120,0,3,,,,,,,,,2,,,43,0
215550,note_on,0,0,3,,,,,,,,,2,,,59,36
215550,note_on,0,0,3,,,,,,,,,2,,,65,36
215562,note_on,0,0,3,,,,,,,,,2,,,55,0
215562,note_on,12,0,3,,,,,,,,,2,,,65,0
215562,note_on,0,0,3,,,,,,,,,2,,,59,0
215610,note_on,60,0,1,,,,,,,,,0,,,74,0
215670,note_on,108,0,3,,,,,,,,,2,,,55,36
215670,note_on,0,0,3,,,,,,,,,2,,,62,36
215670,note_on,0,0,3,,,,,,,,,2,,,65,36
215670,note_on,0,0,1,,,,,,,,,0,,,81,49
215670,note_on,0,0,1,,,,,,,,,0,,,74,49
215670,note_on,60,0,1,,,,,,,,,0,,,71,49
215682,note_on,12,0,3,,,,,,,,,2,,,65,0
215682,note_on,0,0,3,,,,,,,,,2,,,55,0
215682,note_on,0,0,3,,,,,,,,,2,,,62,0
215790,note_on,0,0,2,,,,,,,,,1,,,76,36
215790,note_on,120,0,1,,,,,,,,,0,,,81,0
215790,note_on,0,0,1,,,,,,,,,0,,,74,0
215790,note_on,0,0,1,,,,,,,,,0,,,71,0
215790,note_on,0,0,1,,,,,,,,,0,,,81,49
215790,note_on,108,0,3,,,,,,,,,2,,,48,36
215790,note_on,1080,0,2,,,,,,,,,1,,,72,36
215910,note_on,120,0,3,,,,,,,,,2,,,48,0
215910,note_on,0,0,3,,,,,,,,,2,,,55,36
215910,note_on,0,0,3,,,,,,,,,2,,,60,36
215910,note_on,0,0,3,,,,,,,,,2,,,64,36
215922,note_on,12,0,3,,,,,,,,,2,,,64,0
215922,note_on,0,0,3,,,,,,,,,2,,,60,0
215922,note_on,0,0,3,,,,,,,,,2,,,55,0
216030,note_on,108,0,3,,,,,,,,,2,,,55,36
216030,note_on,240,0,1,,,,,,,,,0,,,81,0
216030,note_on,0,0,3,,,,,,,,,2,,,60,36
216030,note_on,0,0,3,,,,,,,,,2,,,64,36
216030,note_on,0,0,1,,,,,,,,,0,,,79,49
216042,note_on,12,0,3,,,,,,,,,2,,,64,0
216042,note_on,0,0,3,,,,,,,,,2,,,60,0
216042,note_on,0,0,3,,,,,,,,,2,,,55,0
216150,note_on,120,0,1,,,,,,,,,0,,,79,0
216150,note_on,0,0,1,,,,,,,,,0,,,77,49
216150,note_on,0,0,2,,,,,,,,,1,,,72,0
216150,note_on,360,0,2,,,,,,,,,1,,,76,0
216150,note_on,108,0,3,,,,,,,,,2,,,43,36
216210,note_on,60,0,1,,,,,,,,,0,,,77,0
216210,note_on,0,0,1,,,,,,,,,0,,,76,49
216270,note_on,120,0,3,,,,,,,,,2,,,43,0
216270,note_on,0,0,3,,,,,,,,,2,,,59,36
216270,note_on,60,0,1,,,,,,,,,0,,,76,0
216270,note_on,0,0,1,,,,,,,,,0,,,77,49
216270,note_on,0,0,3,,,,,,,,,2,,,65,36
216270,note_on,0,0,3,,,,,,,,,2,,,55,36
216282,note_on,12,0,3,,,,,,,,,2,,,65,0
216282,note_on,0,0,3,,,,,,,,,2,,,59,0
216282,note_on,0,0,3,,,,,,,,,2,,,55,0
216330,note_on,0,0,1,,,,,,,,,0,,,67,49
216330,note_on,60,0,1,,,,,,,,,0,,,77,0
216390,note_on,60,0,1,,,,,,,,,0,,,67,0
216390,note_on,0,0,3,,,,,,,,,2,,,62,36
216390,note_on,108,0,3,,,,,,,,,2,,,55,36
216390,note_on,0,0,1,,,,,,,,,0,,,71,49
216390,note_on,0,0,3,,,,,,,,,2,,,65,36
216402,note_on,0,0,3,,,,,,,,,2,,,55,0
216402,note_on,0,0,3,,,,,,,,,2,,,62,0
216402,note_on,12,0,3,,,,,,,,,2,,,65,0
216450,note_on,0,0,1,,,,,,,,,0,,,76,49
216450,note_on,60,0,1,,,,,,,,,0,,,71,0
216510,note_on,0,0,1,,,,,,,,,0,,,72,49
216510,note_on,108,0,3,,,,,,,,,2,,,48,36
216510,note_on,60,0,1,,,,,,,,,0,,,76,0
216630,note_on,0,0,3,,,,,,,,,2,,,60,36
216630,note_on,0,0,3,,,,,,,,,2,,,55,36
216630,note_on,120,0,3,,,,,,,,,2,,,48,0
216630,note_on,0,0,3,,,,,,,,,2,,,64,36
216690,note_on,180,0,1,,,,,,,,,0,,,72,0
216690,note_on,0,0,1,,,,,,,,,0,,,74,49
216750,note_on,60,0,1,,,,,,,,,0,,,74,0
216750,note_on,0,0,1,,,,,,,,,0,,,72,49
216750,note_on,0,0,3,,,,,,,,,2,,,55,0
216750,note_on,0,0,3,,,,,,,,,2,,,60,0
216750,note_on,120,0,3,,,,,,,,,2,,,64,0
216810,note_on,60,0,1,,,,,,,,,0,,,72,0
216810,note_on,0,0,1,,,,,,,,,0,,,71,49
216870,note_on,120,0,3,,,,,,,,,2,,,50,36
216870,note_on,0,0,1,,,,,,,,,0,,,69,49
216870,note_on,60,0,1,,,,,,,,,0,,,71,0
216930,note_on,0,0,1,,,,,,,,,0,,,71,49
216930,note_on,60,0,1,,,,,,,,,0,,,69,0
216990,note_on,0,0,3,,,,,,,,,2,,,69,36
216990,note_on,0,0,3,,,,,,,,,2,,,62,36
216990,note_on,120,0,3,,,,,,,,,2,,,50,0
216990,note_on,0,0,1,,,,,,,,,0,,,72,49
216990,note_on,60,0,1,,,,,,,,,0,,,71,0
217002,note_on,0,0,3,,,,,,,,,2,,,62,0
217002,note_on,12,0,3,,,,,,,,,2,,,69,0
217050,note_on,0,0,1,,,,,,,,,0,,,74,49
217050,note_on,60,0,1,,,,,,,,,0,,,72,0
217110,note_on,108,0,3,,,,,,,,,2,,,62,36
217110,note_on,0,0,1,,,,,,,,,0,,,76,49
217110,note_on,60,0,1,,,,,,,,,0,,,74,0
217110,note_on,0,0,3,,,,,,,,,2,,,69,36
217122,note_on,12,0,3,,,,,,,,,2,,,69,0
217122,note_on,0,0,3,,,,,,,,,2,,,62,0
217170,note_on,0,0,1,,,,,,,,,0,,,78,49
217170,note_on,60,0,1,,,,,,,,,0,,,76,0
217230,note_on,108,0,3,,,,,,,,,2,,,55,36
217230,note_on,60,0,1,,,,,,,,,0,,,78,0
217230,note_on,0,0,1,,,,,,,,,0,,,79,49
217290,note_on,60,0,1,,,,,,,,,0,,,79,0
217290,note_on,0,0,1,,,,,,,,,0,,,81,49
217350,note_on,60,0,1,,,,,,,,,0,,,81,0
217350,note_on,0,0,3,,,,,,,,,2,,,67,36
217350,note_on,0,0,3,,,,,,,,,2,,,59,36
217350,note_on,120,0,3,,,,,,,,,2,,,55,0
217350,note_on,0,0,1,,,,,,,,,0,,,83,49
217362,note_on,0,0,3,,,,,,,,,2,,,59,0
217362,note_on,12,0,3,,,,,,,,,2,,,67,0
217410,note_on,60,0,1,,,,,,,,,0,,,83,0
217410,note_on,0,0,1,,,,,,,,,0,,,84,49
217470,note_on,0,0,1,,,,,,,,,0,,,86,49
217470,note_on,108,0,3,,,,,,,,,2,,,59,36
217470,note_on,0,0,3,,,,,,,,,2,,,67,36
217470,note_on,60,0,1,,,,,,,,,0,,,84,0
217482,note_on,0,0,3,,,,,,,,,2,,,59,0
217482,note_on,12,0,3,,,,,,,,,2,,,67,0
217530,note_on,0,0,1,,,,,,,,,0,,,88,49
217530,note_on,60,0,1,,,,,,,,,0,,,86,0
217590,note_on,60,0,1,,,,,,,,,0,,,88,0
217590,note_on,0,0,1,,,,,,,,,0,,,85,75
217590,note_on,108,0,3,,,,,,,,,2,,,50,62
217590,note_on,0,0,2,,,,,,,,,1,,,81,62
217590,note_on,1440,0,2,,,,,,,,,1,,,78,54
217710,note_on,0,0,3,,,,,,,,,2,,,72,36
217710,note_on,0,0,3,,,,,,,,,2,,,69,36
217710,note_on,0,0,3,,,,,,,,,2,,,62,36
217710,note_on,120,0,3,,,,,,,,,2,,,50,0
217722,note_on,0,0,3,,,,,,,,,2,,,62,0
217722,note_on,12,0,3,,,,,,,,,2,,,72,0
217722,note_on,0,0,3,,,,,,,,,2,,,69,0
217830,note_on,240,0,1,,,,,,,,,0,,,85,0
217830,note_on,108,0,3,,,,,,,,,2,,,62,36
217830,note_on,0,0,3,,,,,,,,,2,,,69,36
217830,note_on,0,0,3,,,,,,,,,2,,,72,36
217830,note_on,0,0,1,,,,,,,,,0,,,86,49
217842,note_on,12,0,3,,,,,,,,,2,,,72,0
217842,note_on,0,0,3,,,,,,,,,2,,,69,0
217842,note_on,0,0,3,,,,,,,,,2,,,62,0
217950,note_on,120,0,1,,,,,,,,,0,,,86,0
217950,note_on,108,0,3,,,,,,,,,2,,,55,36
217950,note_on,0,0,2,,,,,,,,,1,,,83,36
217950,note_on,0,0,2,,,,,,,,,1,,,79,36
217950,note_on,0,0,2,,,,,,,,,1,,,78,0
217950,note_on,360,0,2,,,,,,,,,1,,,81,0
217950,note_on,0,0,1,,,,,,,,,0,,,88,49
218070,note_on,0,0,3,,,,,,,,,2,,,67,36
218070,note_on,0,0,3,,,,,,,,,2,,,71,36
218070,note_on,0,0,3,,,,,,,,,2,,,62,36
218070,note_on,120,0,3,,,,,,,,,2,,,55,0
218082,note_on,0,0,3,,,,,,,,,2,,,67,0
218082,note_on,12,0,3,,,,,,,,,2,,,71,0
218082,note_on,0,0,3,,,,,,,,,2,,,62,0
218190,note_on,0,0,3,,,,,,,,,2,,,67,36
218190,note_on,0,0,3,,,,,,,,,2,,,71,36
218190,note_on,108,0,3,,,,,,,,,2,,,62,36
218190,note_on,0,0,1,,,,,,,,,0,,,86,49
218190,note_on,240,0,1,,,,,,,,,0,,,88,0
218202,note_on,12,0,3,,,,,,,,,2,,,71,0
218202,note_on,0,0,3,,,,,,,,,2,,,67,0
218202,note_on,0,0,3,,,,,,,,,2,,,62,0
218310,note_on,0,0,2,,,,,,,,,1,,,79,0
218310,note_on,108,0,3,,,,,,,,,2,,,50,36
218310,note_on,0,0,1,,,,,,,,,0,,,69,49
218310,note_on,120,0,1,,,,,,,,,0,,,86,0
218310,note_on,360,0,2,,,,,,,,,1,,,83,0
218370,note_on,0,0,1,,,,,,,,,0,,,71,49
218370,note_on,60,0,1,,,,,,,,,0,,,69,0
218430,note_on,60,0,1,,,,,,,,,0,,,71,0
218430,note_on,0,0,1,,,,,,,,,0,,,72,49
218430,note_on,0,0,3,,,,,,,,,2,,,62,36
218430,note_on,120,0,3,,,,,,,,,2,,,50,0
218430,note_on,0,0,3,,,,,,,,,2,,,69,36
218442,note_on,12,0,3,,,,,,,,,2,,,69,0
218442,note_on,0,0,3,,,,,,,,,2,,,62,0
218490,note_on,0,0,1,,,,,,,,,0,,,74,49
218490,note_on,60,0,1,,,,,,,,,0,,,72,0
218550,note_on,0,0,3,,,,,,,,,2,,,69,36
218550,note_on,0,0,1,,,,,,,,,0,,,76,49
218550,note_on,60,0,1,,,,,,,,,0,,,74,0
218550,note_on,108,0,3,,,,,,,,,2,,,62,36
218562,note_on,12,0,3,,,,,,,,,2,,,69,0
218562,note_on,0,0,3,,,,,,,,,2,,,62,0
218610,note_on,0,0,1,,,,,,,,,0,,,78,49
218610,note_on,60,0,1,,,,,,,,,0,,,76,0
218670,note_on,108,0,3,,,,,,,,,2,,,55,36
218670,note_on,60,0,1,,,,,,,,,0,,,78,0
218670,note_on,0,0,1,,,,,,,,,0,,,79,49
218730,note_on,60,0,1,,,,,,,,,0,,,79,0
218730,note_on,0,0,1,,,,,,,,,0,,,81,49
218790,note_on,0,0,1,,,,,,,,,0,,,83,49
218790,note_on,0,0,3,,,,,,,,,2,,,67,36
218790,note_on,0,0,3,,,,,,,,,2,,,59,36
218790,note_on,120,0,3,,,,,,,,,2,,,55,0
218790,note_on,60,0,1,,,,,,,,,0,,,81,0
218802,note_on,12,0,3,,,,,,,,,2,,,67,0
218802,note_on,0,0,3,,,,,,,,,2,,,59,0
218850,note_on,0,0,1,,,,,,,,,0,,,84,49
218850,note_on,60,0,1,,,,,,,,,0,,,83,0
218910,note_on,0,0,3,,,,,,,,,2,,,67,36
218910,note_on,0,0,1,,,,,,,,,0,,,86,49
218910,note_on,108,0,3,,,,,,,,,2,,,59,36
218910,note_on,60,0,1,,,,,,,,,0,,,84,0
218922,note_on,0,0,3,,,,,,,,,2,,,59,0
218922,note_on,12,0,3,,,,,,,,,2,,,67,0
218970,note_on,0,0,1,,,,,,,,,0,,,88,49
218970,note_on,60,0,1,,,,,,,,,0,,,86,0
219000,note_on,30,0,1,,,,,,,,,0,,,90,49
219015,note_on,0,0,1,,,,,,,,,0,,,91,49
219015,note_on,15,0,1,,,,,,,,,0,,,90,0
219030,note_on,0,0,1,,,,,,,,,0,,,88,0
219030,note_on,108,0,3,,,,,,,,,2,,,50,36
219030,note_on,15,0,1,,,,,,,,,0,,,91,0
219030,note_on,0,0,1,,,,,,,,,0,,,90,49
219090,note_on,0,0,1,,,,,,,,,0,,,88,49
219090,note_on,60,0,1,,,,,,,,,0,,,90,0
219150,note_on,60,0,1,,,,,,,,,0,,,88,0
219150,note_on,0,0,3,,,,,,,,,2,,,69,36
219150,note_on,120,0,3,,,,,,,,,2,,,50,0
219150,note_on,0,0,3,,,,,,,,,2,,,62,36
219150,note_on,0,0,1,,,,,,,,,0,,,90,49
219150,note_on,0,0,3,,,,,,,,,2,,,72,36
219162,note_on,12,0,3,,,,,,,,,2,,,72,0
219162,note_on,0,0,3,,,,,,,,,2,,,69,0
219162,note_on,0,0,3,,,,,,,,,2,,,62,0
219210,note_on,60,0,1,,,,,,,,,0,,,90,0
219210,note_on,0,0,1,,,,,,,,,0,,,96,49
219270,note_on,0,0,1,,,,,,,,,0,,,95,49
219270,note_on,60,0,1,,,,,,,,,0,,,96,0
219270,note_on,108,0,3,,,,,,,,,2,,,62,36
219270,note_on,0,0,3,,,,,,,,,2,,,66,36
219270,note_on,0,0,3,,,,,,,,,2,,,72,36
219282,note_on,0,0,3,,,,,,,,,2,,,66,0
219282,note_on,0,0,3,,,,,,,,,2,,,62,0
219282,note_on,12,0,3,,,,,,,,,2,,,72,0
219330,note_on,0,0,1,,,,,,,,,0,,,93,49
219330,note_on,60,0,1,,,,,,,,,0,,,95,0
219390,note_on,60,0,1,,,,,,,,,0,,,93,0
219390,note_on,0,0,1,,,,,,,,,0,,,91,49
219390,note_on,0,0,3,,,,,,,,,2,,,71,36
219390,note_on,108,0,3,,,,,,,,,2,,,67,36
219630,note_on,0,0,3,,,,,,,,,2,,,67,0
219630,note_on,240,0,3,,,,,,,,,2,,,71,0
219630,note_on,0,0,1,,,,,,,,,0,,,76,49
219630,note_on,240,0,1,,,,,,,,,0,,,91,0
219750,note_on,120,0,1,,,,,,,,,0,,,76,0
219750,note_on,120,0,3,,,,,,,,,2,,,43,36
219750,note_on,0,0,1,,,,,,,,,0,,,73,75
219870,note_on,120,0,3,,,,,,,,,2,,,43,0
219870,note_on,0,0,3,,,,,,,,,2,,,59,36
219870,note_on,0,0,3,,,,,,,,,2,,,55,36
219870,note_on,0,0,1,,,,,,,,,0,,,74,49
219870,note_on,0,0,3,,,,,,,,,2,,,65,36
219870,note_on,120,0,1,,,,,,,,,0,,,73,0
219882,note_on,12,0,3,,,,,,,,,2,,,65,0
219882,note_on,0,0,3,,,,,,,,,2,,,55,0
219882,note_on,0,0,3,,,,,,,,,2,,,59,0
219930,note_on,60,0,1,,,,,,,,,0,,,74,0
219990,note_on,108,0,3,,,,,,,,,2,,,55,36
219990,note_on,0,0,3,,,,,,,,,2,,,62,36
219990,note_on,0,0,3,,,,,,,,,2,,,65,36
219990,note_on,60,0,1,,,,,,,,,0,,,71,49
219990,note_on,0,0,1,,,,,,,,,0,,,74,49
219990,note_on,0,0,1,,,,,,,,,0,,,81,49
220002,note_on,0,0,3,,,,,,,,,2,,,62,0
220002,note_on,0,0,3,,,,,,,,,2,,,55,0
220002,note_on,12,0,3,,,,,,,,,2,,,65,0
220110,note_on,0,0,1,,,,,,,,,0,,,71,0
220110,note_on,0,0,1,,,,,,,,,0,,,74,0
220110,note_on,120,0,1,,,,,,,,,0,,,81,0
220110,note_on,108,0,3,,,,,,,,,2,,,48,36
220110,note_on,0,0,1,,,,,,,,,0,,,81,49
220110,note_on,1800,0,2,,,,,,,,,1,,,72,36
220110,note_on,0,0,2,,,,,,,,,1,,,76,36
220230,note_on,0,0,3,,,,,,,,,2,,,64,36
220230,note_on,0,0,3,,,,,,,,,2,,,55,36
220230,note_on,120,0,3,,,,,,,,,2,,,48,0
220230,note_on,0,0,3,,,,,,,,,2,,,60,36
220242,note_on,12,0,3,,,,,,,,,2,,,64,0
220242,note_on,0,0,3,,,,,,,,,2,,,55,0
220242,note_on,0,0,3,,,,,,,,,2,,,60,0
220350,note_on,240,0,1,,,,,,,,,0,,,81,0
220350,note_on,0,0,1,,,,,,,,,0,,,79,49
220350,note_on,0,0,3,,,,,,,,,2,,,64,36
220350,note_on,0,0,3,,,,,,,,,2,,,60,36
220350,note_on,108,0,3,,,,,,,,,2,,,55,36
220362,note_on,0,0,3,,,,,,,,,2,,,55,0
220362,note_on,0,0,3,,,,,,,,,2,,,60,0
220362,note_on,12,0,3,,,,,,,,,2,,,64,0
220470,note_on,108,0,3,,,,,,,,,2,,,43,36
220470,note_on,0,0,2,,,,,,,,,1,,,72,0
220470,note_on,360,0,2,,,,,,,,,1,,,76,0
220470,note_on,0,0,1,,,,,,,,,0,,,77,49
220470,note_on,120,0,1,,,,,,,,,0,,,79,0
220530,note_on,0,0,1,,,,,,,,,0,,,76,49
220530,note_on,60,0,1,,,,,,,,,0,,,77,0
220590,note_on,60,0,1,,,,,,,,,0,,,76,0
220590,note_on,120,0,3,,,,,,,,,2,,,43,0
220590,note_on,0,0,3,,,,,,,,,2,,,55,36
220590,note_on,0,0,3,,,,,,,,,2,,,62,36
220590,note_on,0,0,3,,,,,,,,,2,,,65,36
220590,note_on,0,0,1,,,,,,,,,0,,,77,49
220602,note_on,12,0,3,,,,,,,,,2,,,65,0
220602,note_on,0,0,3,,,,,,,,,2,,,62,0
220602,note_on,0,0,3,,,,,,,,,2,,,55,0
220650,note_on,0,0,1,,,,,,,,,0,,,67,49
220650,note_on,60,0,1,,,,,,,,,0,,,77,0
220710,note_on,0,0,3,,,,,,,,,2,,,62,36
220710,note_on,108,0,3,,,,,,,,,2,,,55,36
220710,note_on,0,0,3,,,,,,,,,2,,,65,36
220710,note_on,60,0,1,,,,,,,,,0,,,67,0
220710,note_on,0,0,1,,,,,,,,,0,,,71,49
220722,note_on,0,0,3,,,,,,,,,2,,,62,0
220722,note_on,12,0,3,,,,,,,,,2,,,65,0
220722,note_on,0,0,3,,,,,,,,,2,,,55,0
220770,note_on,60,0,1,,,,,,,,,0,,,71,0
220770,note_on,0,0,1,,,,,,,,,0,,,77,49
220830,note_on,60,0,1,,,,,,,,,0,,,77,0
220830,note_on,0,0,1,,,,,,,,,0,,,67,49
220830,note_on,108,0,3,,,,,,,,,2,,,48,36
220890,note_on,0,0,1,,,,,,,,,0,,,76,49
220890,note_on,60,0,1,,,,,,,,,0,,,67,0
220950,note_on,120,0,3,,,,,,,,,2,,,48,0
220950,note_on,0,0,3,,,,,,,,,2,,,55,36
220950,note_on,0,0,3,,,,,,,,,2,,,60,36
220950,note_on,0,0,3,,,,,,,,,2,,,64,36
220950,note_on,0,0,1,,,,,,,,,0,,,72,49
220950,note_on,60,0,1,,,,,,,,,0,,,76,0
220962,note_on,12,0,3,,,,,,,,,2,,,64,0
220962,note_on,0,0,3,,,,,,,,,2,,,60,0
220962,note_on,0,0,3,,,,,,,,,2,,,55,0
221010,note_on,0,0,1,,,,,,,,,0,,,67,49
221010,note_on,60,0,1,,,,,,,,,0,,,72,0
221070,note_on,108,0,3,,,,,,,,,2,,,55,36
221070,note_on,0,0,3,,,,,,,,,2,,,60,36
221070,note_on,0,0,3,,,,,,,,,2,,,64,36
221070,note_on,0,0,1,,,,,,,,,0,,,72,49
221070,note_on,60,0,1,,,,,,,,,0,,,67,0
221082,note_on,0,0,3,,,,,,,,,2,,,60,0
221082,note_on,12,0,3,,,,,,,,,2,,,64,0
221082,note_on,0,0,3,,,,,,,,,2,,,55,0
221130,note_on,0,0,1,,,,,,,,,0,,,76,49
221130,note_on,60,0,1,,,,,,,,,0,,,72,0
221190,note_on,0,0,1,,,,,,,,,0,,,73,75
221190,note_on,60,0,1,,,,,,,,,0,,,76,0
221190,note_on,108,0,3,,,,,,,,,2,,,43,36
221310,note_on,0,0,1,,,,,,,,,0,,,74,49
221310,note_on,120,0,1,,,,,,,,,0,,,73,0
221310,note_on,0,0,3,,,,,,,,,2,,,59,36
221310,note_on,120,0,3,,,,,,,,,2,,,43,0
221310,note_on,0,0,3,,,,,,,,,2,,,65,36
221310,note_on,0,0,3,,,,,,,,,2,,,55,36
221322,note_on,0,0,3,,,,,,,,,2,,,55,0
221322,note_on,0,0,3,,,,,,,,,2,,,59,0
221322,note_on,12,0,3,,,,,,,,,2,,,65,0
221370,note_on,60,0,1,,,,,,,,,0,,,74,0
221430,note_on,0,0,3,,,,,,,,,2,,,65,36
221430,note_on,0,0,3,,,,,,,,,2,,,62,36
221430,note_on,0,0,1,,,,,,,,,0,,,74,49
221430,note_on,0,0,1,,,,,,,,,0,,,81,49
221430,note_on,60,0,1,,,,,,,,,0,,,71,49
221430,note_on,108,0,3,,,,,,,,,2,,,55,36
221442,note_on,0,0,3,,,,,,,,,2,,,55,0
221442,note_on,0,0,3,,,,,,,,,2,,,62,0
221442,note_on,12,0,3,,,,,,,,,2,,,65,0
221550,note_on,120,0,1,,,,,,,,,0,,,81,0
221550,note_on,0,0,1,,,,,,,,,0,,,74,0
221550,note_on,0,0,1,,,,,,,,,0,,,71,0
221550,note_on,0,0,1,,,,,,,,,0,,,81,49
221550,note_on,1080,0,2,,,,,,,,,1,,,72,36
221550,note_on,108,0,3,,,,,,,,,2,,,48,36
221550,note_on,0,0,2,,,,,,,,,1,,,76,36
221670,note_on,120,0,3,,,,,,,,,2,,,48,0
221670,note_on,0,0,3,,,,,,,,,2,,,55,36
221670,note_on,0,0,3,,,,,,,,,2,,,60,36
221670,note_on,0,0,3,,,,,,,,,2,,,64,36
221682,note_on,12,0,3,,,,,,,,,2,,,64,0
221682,note_on,0,0,3,,,,,,,,,2,,,60,0
221682,note_on,0,0,3,,,,,,,,,2,,,55,0
221790,note_on,0,0,1,,,,,,,,,0,,,79,49
221790,note_on,240,0,1,,,,,,,,,0,,,81,0
221790,note_on,108,0,3,,,,,,,,,2,,,55,36
221790,note_on,0,0,3,,,,,,,,,2,,,60,36
221790,note_on,0,0,3,,,,,,,,,2,,,64,36
221802,note_on,12,0,3,,,,,,,,,2,,,64,0
221802,note_on,0,0,3,,,,,,,,,2,,,60,0
221802,note_on,0,0,3,,,,,,,,,2,,,55,0
221910,note_on,120,0,1,,,,,,,,,0,,,79,0
221910,note_on,0,0,1,,,,,,,,,0,,,77,49
221910,note_on,360,0,2,,,,,,,,,1,,,76,0
221910,note_on,108,0,3,,,,,,,,,2,,,43,36
221910,note_on,0,0,2,,,,,,,,,1,,,72,0
221970,note_on,0,0,1,,,,,,,,,0,,,76,49
221970,note_on,60,0,1,,,,,,,,,0,,,77,0
222030,note_on,120,0,3,,,,,,,,,2,,,43,0
222030,note_on,0,0,1,,,,,,,,,0,,,77,49
222030,note_on,60,0,1,,,,,,,,,0,,,76,0
222030,note_on,0,0,3,,,,,,,,,2,,,55,36
222030,note_on,0,0,3,,,,,,,,,2,,,59,36
222030,note_on,0,0,3,,,,,,,,,2,,,65,36
222042,note_on,0,0,3,,,,,,,,,2,,,59,0
222042,note_on,0,0,3,,,,,,,,,2,,,55,0
222042,note_on,12,0,3,,,,,,,,,2,,,65,0
222090,note_on,60,0,1,,,,,,,,,0,,,77,0
222090,note_on,0,0,1,,,,,,,,,0,,,67,49
222150,note_on,60,0,1,,,,,,,,,0,,,67,0
222150,note_on,108,0,3,,,,,,,,,2,,,55,36
222150,note_on,0,0,3,,,,,,,,,2,,,62,36
222150,note_on,0,0,3,,,,,,,,,2,,,65,36
222150,note_on,0,0,1,,,,,,,,,0,,,71,49
222162,note_on,0,0,3,,,,,,,,,2,,,62,0
222162,note_on,0,0,3,,,,,,,,,2,,,55,0
222162,note_on,12,0,3,,,,,,,,,2,,,65,0
222210,note_on,0,0,1,,,,,,,,,0,,,76,49
222210,note_on,60,0,1,,,,,,,,,0,,,71,0
222270,time_signature,14040,1,0,3,8,12,8,,,,,,,,,
222270,note_on,108,0,3,,,,,,,,,2,,,48,36
222270,note_on,60,0,1,,,,,,,,,0,,,76,0
222270,note_on,0,0,1,,,,,,,,,0,,,72,49
222390,note_on,0,0,3,,,,,,,,,2,,,64,36
222390,note_on,0,0,3,,,,,,,,,2,,,60,36
222390,note_on,0,0,3,,,,,,,,,2,,,55,36
222390,note_on,120,0,3,,,,,,,,,2,,,48,0
222450,note_on,0,0,1,,,,,,,,,0,,,63,49
222450,note_on,0,0,3,,,,,,,,,2,,,55,0
222450,note_on,180,0,1,,,,,,,,,0,,,72,0
222450,key_signature,180,1,0,,,,,Ab,,,,,,,,
222450,note_on,0,0,3,,,,,,,,,2,,,60,0
222450,note_on,60,0,3,,,,,,,,,2,,,64,0
222510,note_on,0,0,1,,,,,,,,,0,,,68,49
222510,note_on,60,0,1,,,,,,,,,0,,,63,0
222570,note_on,0,0,1,,,,,,,,,0,,,70,49
222570,note_on,60,0,1,,,,,,,,,0,,,68,0
222630,time_signature,180,1,0,3,4,24,8,,,,,,,,,
222630,note_on,0,0,1,,,,,,,,,0,,,72,49
222630,note_on,60,0,1,,,,,,,,,0,,,70,0
222630,note_on,180,0,3,,,,,,,,,2,,,44,36
222750,note_on,0,0,3,,,,,,,,,2,,,56,36
222750,note_on,0,0,3,,,,,,,,,2,,,51,36
222750,note_on,0,0,3,,,,,,,,,2,,,60,36
222750,note_on,120,0,3,,,,,,,,,2,,,44,0
222762,note_on,0,0,3,,,,,,,,,2,,,56,0
222762,note_on,0,0,3,,,,,,,,,2,,,51,0
222762,note_on,12,0,3,,,,,,,,,2,,,60,0
222810,note_on,180,0,1,,,,,,,,,0,,,72,0
222810,note_on,0,0,1,,,,,,,,,0,,,75,49
222870,note_on,108,0,3,,,,,,,,,2,,,51,36
222870,note_on,0,0,3,,,,,,,,,2,,,56,36
222870,note_on,0,0,3,,,,,,,,,2,,,60,36
222870,note_on,0,0,1,,,,,,,,,0,,,72,49
222870,note_on,60,0,1,,,,,,,,,0,,,75,0
222882,note_on,12,0,3,,,,,,,,,2,,,60,0
222882,note_on,0,0,3,,,,,,,,,2,,,56,0
222882,note_on,0,0,3,,,,,,,,,2,,,51,0
222930,note_on,60,0,1,,,,,,,,,0,,,72,0
222930,note_on,0,0,1,,,,,,,,,0,,,68,49
222990,note_on,0,0,1,,,,,,,,,0,,,63,49
222990,note_on,60,0,1,,,,,,,,,0,,,68,0
222990,note_on,108,0,3,,,,,,,,,2,,,44,36
223110,note_on,0,0,3,,,,,,,,,2,,,60,36
223110,note_on,120,0,3,,,,,,,,,2,,,44,0
223110,note_on,0,0,3,,,,,,,,,2,,,51,36
223110,note_on,0,0,3,,,,,,,,,2,,,56,36
223122,note_on,0,0,3,,,,,,,,,2,,,56,0
223122,note_on,0,0,3,,,,,,,,,2,,,51,0
223122,note_on,12,0,3,,,,,,,,,2,,,60,0
223170,note_on,180,0,1,,,,,,,,,0,,,63,0
223170,note_on,0,0,1,,,,,,,,,0,,,63,49
223230,note_on,108,0,3,,,,,,,,,2,,,51,36
223230,note_on,0,0,3,,,,,,,,,2,,,56,36
223230,note_on,0,0,3,,,,,,,,,2,,,60,36
223230,note_on,0,0,1,,,,,,,,,0,,,68,49
223230,note_on,60,0,1,,,,,,,,,0,,,63,0
223242,note_on,12,0,3,,,,,,,,,2,,,60,0
223242,note_on,0,0,3,,,,,,,,,2,,,51,0
223242,note_on,0,0,3,,,,,,,,,2,,,56,0
223290,note_on,60,0,1,,,,,,,,,0,,,68,0
223290,note_on,0,0,1,,,,,,,,,0,,,72,49
223350,note_on,60,0,1,,,,,,,,,0,,,72,0
223350,note_on,0,0,1,,,,,,,,,0,,,70,49
223350,note_on,108,0,3,,,,,,,,,2,,,39,36
223470,note_on,0,0,3,,,,,,,,,2,,,55,36
223470,note_on,0,0,3,,,,,,,,,2,,,61,36
223470,note_on,0,0,3,,,,,,,,,2,,,51,36
223470,note_on,120,0,3,,,,,,,,,2,,,39,0
223482,note_on,0,0,3,,,,,,,,,2,,,51,0
223482,note_on,0,0,3,,,,,,,,,2,,,55,0
223482,note_on,12,0,3,,,,,,,,,2,,,61,0
223530,note_on,180,0,1,,,,,,,,,0,,,70,0
223530,note_on,0,0,1,,,,,,,,,0,,,77,49
223590,note_on,108,0,3,,,,,,,,,2,,,51,36
223590,note_on,60,0,1,,,,,,,,,0,,,77,0
223590,note_on,0,0,3,,,,,,,,,2,,,61,36
223590,note_on,0,0,1,,,,,,,,,0,,,73,49
223590,note_on,0,0,3,,,,,,,,,2,,,55,36
223602,note_on,12,0,3,,,,,,,,,2,,,61,0
223602,note_on,0,0,3,,,,,,,,,2,,,55,0
223602,note_on,0,0,3,,,,,,,,,2,,,51,0
223650,note_on,0,0,1,,,,,,,,,0,,,70,49
223650,note_on,60,0,1,,,,,,,,,0,,,73,0
223710,note_on,60,0,1,,,,,,,,,0,,,70,0
223710,note_on,0,0,1,,,,,,,,,0,,,63,49
223710,note_on,108,0,3,,,,,,,,,2,,,39,36
223830,note_on,120,0,3,,,,,,,,,2,,,39,0
223830,note_on,0,0,3,,,,,,,,,2,,,51,36
223830,note_on,0,0,3,,,,,,,,,2,,,55,36
223830,note_on,0,0,3,,,,,,,,,2,,,61,36
223842,note_on,12,0,3,,,,,,,,,2,,,61,0
223842,note_on,0,0,3,,,,,,,,,2,,,55,0
223842,note_on,0,0,3,,,,,,,,,2,,,51,0
223890,note_on,0,0,1,,,,,,,,,0,,,63,49
223890,note_on,180,0,1,,,,,,,,,0,,,63,0
223950,note_on,108,0,3,,,,,,,,,2,,,51,36
223950,note_on,60,0,1,,,,,,,,,0,,,63,0
223950,note_on,0,0,1,,,,,,,,,0,,,70,49
223950,note_on,0,0,3,,,,,,,,,2,,,61,36
223950,note_on,0,0,3,,,,,,,,,2,,,55,36
223962,note_on,0,0,3,,,,,,,,,2,,,51,0
223962,note_on,0,0,3,,,,,,,,,2,,,55,0
223962,note_on,12,0,3,,,,,,,,,2,,,61,0
224010,note_on,0,0,1,,,,,,,,,0,,,73,49
224010,note_on,60,0,1,,,,,,,,,0,,,70,0
224070,note_on,60,0,1,,,,,,,,,0,,,73,0
224070,note_on,108,0,3,,,,,,,,,2,,,44,36
224070,note_on,0,0,1,,,,,,,,,0,,,72,49
224190,note_on,120,0,3,,,,,,,,,2,,,44,0
224190,note_on,0,0,3,,,,,,,,,2,,,51,36
224190,note_on,0,0,3,,,,,,,,,2,,,56,36
224190,note_on,0,0,3,,,,,,,,,2,,,60,36
224202,note_on,12,0,3,,,,,,,,,2,,,60,0
224202,note_on,0,0,3,,,,,,,,,2,,,51,0
224202,note_on,0,0,3,,,,,,,,,2,,,56,0
224250,note_on,180,0,1,,,,,,,,,0,,,72,0
224250,note_on,0,0,1,,,,,,,,,0,,,80,49
224310,note_on,108,0,3,,,,,,,,,2,,,51,36
224310,note_on,60,0,1,,,,,,,,,0,,,80,0
224310,note_on,0,0,3,,,,,,,,,2,,,56,36
224310,note_on,0,0,1,,,,,,,,,0,,,75,49
224310,note_on,0,0,3,,,,,,,,,2,,,60,36
224322,note_on,12,0,3,,,,,,,,,2,,,60,0
224322,note_on,0,0,3,,,,,,,,,2,,,51,0
224322,note_on,0,0,3,,,,,,,,,2,,,56,0
224370,note_on,0,0,1,,,,,,,,,0,,,72,49
224370,note_on,60,0,1,,,,,,,,,0,,,75,0
224430,note_on,0,0,1,,,,,,,,,0,,,84,75
224430,note_on,0,0,1,,,,,,,,,0,,,80,67
224430,note_on,60,0,1,,,,,,,,,0,,,72,0
224430,note_on,108,0,3,,,,,,,,,2,,,44,36
224550,note_on,120,0,3,,,,,,,,,2,,,44,0
224550,note_on,0,0,3,,,,,,,,,2,,,60,36
224550,note_on,0,0,3,,,,,,,,,2,,,56,36
224550,note_on,0,0,3,,,,,,,,,2,,,51,36
224562,note_on,0,0,3,,,,,,,,,2,,,51,0
224562,note_on,0,0,3,,,,,,,,,2,,,56,0
224562,note_on,12,0,3,,,,,,,,,2,,,60,0
224610,note_on,180,0,1,,,,,,,,,0,,,84,0
224610,note_on,0,0,1,,,,,,,,,0,,,80,0
224610,note_on,0,0,1,,,,,,,,,0,,,82,49
224670,note_on,0,0,1,,,,,,,,,0,,,80,49
224670,note_on,60,0,1,,,,,,,,,0,,,82,0
224670,note_on,0,0,3,,,,,,,,,2,,,60,36
224670,note_on,0,0,3,,,,,,,,,2,,,56,36
224670,note_on,108,0,3,,,,,,,,,2,,,51,36
224682,note_on,0,0,3,,,,,,,,,2,,,51,0
224682,note_on,0,0,3,,,,,,,,,2,,,56,0
224682,note_on,12,0,3,,,,,,,,,2,,,60,0
224730,note_on,0,0,1,,,,,,,,,0,,,72,49
224730,note_on,60,0,1,,,,,,,,,0,,,80,0
224790,note_on,0,0,1,,,,,,,,,0,,,73,67
224790,note_on,0,0,1,,,,,,,,,0,,,77,75
224790,note_on,108,0,3,,,,,,,,,2,,,39,36
224790,note_on,60,0,1,,,,,,,,,0,,,72,0
224910,note_on,120,0,3,,,,,,,,,2,,,39,0
224910,note_on,0,0,3,,,,,,,,,2,,,51,36
224910,note_on,0,0,3,,,,,,,,,2,,,61,36
224910,note_on,0,0,3,,,,,,,,,2,,,58,36
224922,note_on,0,0,3,,,,,,,,,2,,,58,0
224922,note_on,0,0,3,,,,,,,,,2,,,51,0
224922,note_on,12,0,3,,,,,,,,,2,,,61,0
224970,note_on,0,0,1,,,,,,,,,0,,,75,49
224970,note_on,0,0,1,,,,,,,,,0,,,73,0
224970,note_on,180,0,1,,,,,,,,,0,,,77,0
225030,note_on,60,0,1,,,,,,,,,0,,,75,0
225030,note_on,0,0,1,,,,,,,,,0,,,73,49
225030,note_on,0,0,3,,,,,,,,,2,,,61,36
225030,note_on,0,0,3,,,,,,,,,2,,,58,36
225030,note_on,108,0,3,,,,,,,,,2,,,51,36
225042,note_on,0,0,3,,,,,,,,,2,,,51,0
225042,note_on,0,0,3,,,,,,,,,2,,,58,0
225042,note_on,12,0,3,,,,,,,,,2,,,61,0
225090,note_on,60,0,1,,,,,,,,,0,,,73,0
225090,note_on,0,0,1,,,,,,,,,0,,,67,49
225150,note_on,108,0,3,,,,,,,,,2,,,44,36
225150,note_on,0,0,1,,,,,,,,,0,,,68,49
225150,note_on,60,0,1,,,,,,,,,0,,,67,0
225150,time_signature,2520,1,0,3,8,12,8,,,,,,,,,
225270,note_on,120,0,3,,,,,,,,,2,,,44,0
225270,note_on,0,0,3,,,,,,,,,2,,,60,36
225270,note_on,0,0,3,,,,,,,,,2,,,56,36
225270,note_on,120,0,1,,,,,,,,,0,,,68,0
225270,note_on,0,0,3,,,,,,,,,2,,,51,36
225330,note_on,0,0,3,,,,,,,,,2,,,51,0
225330,note_on,60,0,1,,,,,,,,,0,,,63,49
225330,note_on,0,0,3,,,,,,,,,2,,,56,0
225330,note_on,60,0,3,,,,,,,,,2,,,60,0
225390,note_on,60,0,1,,,,,,,,,0,,,63,0
225390,note_on,0,0,1,,,,,,,,,0,,,68,49
225450,note_on,60,0,1,,,,,,,,,0,,,68,0
225450,note_on,0,0,1,,,,,,,,,0,,,70,49
225510,note_on,60,0,1,,,,,,,,,0,,,70,0
225510,note_on,0,0,1,,,,,,,,,0,,,72,49
225510,time_signature,360,1,0,3,4,24,8,,,,,,,,,
225510,note_on,180,0,3,,,,,,,,,2,,,44,36
225630,note_on,0,0,3,,,,,,,,,2,,,56,36
225630,note_on,0,0,3,,,,,,,,,2,,,51,36
225630,note_on,120,0,3,,,,,,,,,2,,,44,0
225630,note_on,0,0,3,,,,,,,,,2,,,60,36
225642,note_on,12,0,3,,,,,,,,,2,,,60,0
225642,note_on,0,0,3,,,,,,,,,2,,,56,0
225642,note_on,0,0,3,,,,,,,,,2,,,51,0
225690,note_on,0,0,1,,,,,,,,,0,,,75,49
225690,note_on,180,0,1,,,,,,,,,0,,,72,0
225750,note_on,108,0,3,,,,,,,,,2,,,51,36
225750,note_on,0,0,1,,,,,,,,,0,,,72,49
225750,note_on,0,0,3,,,,,,,,,2,,,56,36
225750,note_on,0,0,3,,,,,,,,,2,,,60,36
225750,note_on,60,0,1,,,,,,,,,0,,,75,0
225762,note_on,12,0,3,,,,,,,,,2,,,60,0
225762,note_on,0,0,3,,,,,,,,,2,,,56,0
225762,note_on,0,0,3,,,,,,,,,2,,,51,0
225810,note_on,60,0,1,,,,,,,,,0,,,72,0
225810,note_on,0,0,1,,,,,,,,,0,,,68,49
225870,note_on,60,0,1,,,,,,,,,0,,,68,0
225870,note_on,0,0,1,,,,,,,,,0,,,63,49
225870,note_on,108,0,3,,,,,,,,,2,,,44,36
225990,note_on,0,0,3,,,,,,,,,2,,,51,36
225990,note_on,0,0,3,,,,,,,,,2,,,56,36
225990,note_on,0,0,3,,,,,,,,,2,,,60,36
225990,note_on,120,0,3,,,,,,,,,2,,,44,0
226002,note_on,0,0,3,,,,,,,,,2,,,51,0
226002,note_on,0,0,3,,,,,,,,,2,,,56,0
226002,note_on,12,0,3,,,,,,,,,2,,,60,0
226050,note_on,180,0,1,,,,,,,,,0,,,63,0
226050,note_on,0,0,1,,,,,,,,,0,,,63,49
226110,note_on,0,0,3,,,,,,,,,2,,,56,36
226110,note_on,60,0,1,,,,,,,,,0,,,63,0
226110,note_on,0,0,1,,,,,,,,,0,,,68,49
226110,note_on,0,0,3,,,,,,,,,2,,,60,36
226110,note_on,108,0,3,,,,,,,,,2,,,51,36
226122,note_on,0,0,3,,,,,,,,,2,,,51,0
226122,note_on,12,0,3,,,,,,,,,2,,,60,0
226122,note_on,0,0,3,,,,,,,,,2,,,56,0
226170,note_on,0,0,1,,,,,,,,,0,,,72,49
226170,note_on,60,0,1,,,,,,,,,0,,,68,0
226230,note_on,108,0,3,,,,,,,,,2,,,39,36
226230,note_on,60,0,1,,,,,,,,,0,,,72,0
226230,note_on,0,0,1,,,,,,,,,0,,,70,49
226350,note_on,0,0,3,,,,,,,,,2,,,55,36
226350,note_on,0,0,3,,,,,,,,,2,,,51,36
226350,note_on,120,0,3,,,,,,,,,2,,,39,0
226350,note_on,0,0,3,,,,,,,,,2,,,61,36
226362,note_on,12,0,3,,,,,,,,,2,,,61,0
226362,note_on,0,0,3,,,,,,,,,2,,,55,0
226362,note_on,0,0,3,,,,,,,,,2,,,51,0
226410,note_on,180,0,1,,,,,,,,,0,,,70,0
226410,note_on,0,0,1,,,,,,,,,0,,,77,49
226470,note_on,108,0,3,,,,,,,,,2,,,51,36
226470,note_on,0,0,3,,,,,,,,,2,,,55,36
226470,note_on,0,0,1,,,,,,,,,0,,,73,49
226470,note_on,60,0,1,,,,,,,,,0,,,77,0
226470,note_on,0,0,3,,,,,,,,,2,,,61,36
226482,note_on,0,0,3,,,,,,,,,2,,,51,0
226482,note_on,0,0,3,,,,,,,,,2,,,55,0
226482,note_on,12,0,3,,,,,,,,,2,,,61,0
226530,note_on,60,0,1,,,,,,,,,0,,,73,0
226530,note_on,0,0,1,,,,,,,,,0,,,70,49
226590,note_on,0,0,1,,,,,,,,,0,,,63,49
226590,note_on,108,0,3,,,,,,,,,2,,,39,36
226590,note_on,60,0,1,,,,,,,,,0,,,70,0
226710,note_on,0,0,3,,,,,,,,,2,,,55,36
226710,note_on,0,0,3,,,,,,,,,2,,,51,36
226710,note_on,120,0,3,,,,,,,,,2,,,39,0
226710,note_on,0,0,3,,,,,,,,,2,,,61,36
226722,note_on,12,0,3,,,,,,,,,2,,,61,0
226722,note_on,0,0,3,,,,,,,,,2,,,55,0
226722,note_on,0,0,3,,,,,,,,,2,,,51,0
226770,note_on,0,0,1,,,,,,,,,0,,,63,49
226770,note_on,180,0,1,,,,,,,,,0,,,63,0
226830,note_on,0,0,1,,,,,,,,,0,,,70,49
226830,note_on,60,0,1,,,,,,,,,0,,,63,0
226830,note_on,108,0,3,,,,,,,,,2,,,51,36
226830,note_on,0,0,3,,,,,,,,,2,,,55,36
226830,note_on,0,0,3,,,,,,,,,2,,,61,36
226842,note_on,0,0,3,,,,,,,,,2,,,55,0
226842,note_on,12,0,3,,,,,,,,,2,,,61,0
226842,note_on,0,0,3,,,,,,,,,2,,,51,0
226890,note_on,60,0,1,,,,,,,,,0,,,70,0
226890,note_on,0,0,1,,,,,,,,,0,,,73,49
226950,note_on,0,0,1,,,,,,,,,0,,,72,49
226950,note_on,108,0,3,,,,,,,,,2,,,44,36
226950,note_on,60,0,1,,,,,,,,,0,,,73,0
227070,note_on,0,0,3,,,,,,,,,2,,,56,36
227070,note_on,0,0,3,,,,,,,,,2,,,51,36
227070,note_on,120,0,3,,,,,,,,,2,,,44,0
227070,note_on,0,0,3,,,,,,,,,2,,,60,36
227082,note_on,12,0,3,,,,,,,,,2,,,60,0
227082,note_on,0,0,3,,,,,,,,,2,,,56,0
227082,note_on,0,0,3,,,,,,,,,2,,,51,0
227130,note_on,0,0,1,,,,,,,,,0,,,80,49
227130,note_on,180,0,1,,,,,,,,,0,,,72,0
227190,note_on,0,0,1,,,,,,,,,0,,,75,49
227190,note_on,108,0,3,,,,,,,,,2,,,51,36
227190,note_on,0,0,3,,,,,,,,,2,,,56,36
227190,note_on,0,0,3,,,,,,,,,2,,,60,36
227190,note_on,60,0,1,,,,,,,,,0,,,80,0
227202,note_on,0,0,3,,,,,,,,,2,,,51,0
227202,note_on,0,0,3,,,,,,,,,2,,,56,0
227202,note_on,12,0,3,,,,,,,,,2,,,60,0
227250,note_on,60,0,1,,,,,,,,,0,,,75,0
227250,note_on,0,0,1,,,,,,,,,0,,,72,49
227310,note_on,108,0,3,,,,,,,,,2,,,44,36
227310,note_on,0,0,1,,,,,,,,,0,,,80,67
227310,note_on,60,0,1,,,,,,,,,0,,,72,0
227310,note_on,0,0,1,,,,,,,,,0,,,84,75
227430,note_on,0,0,3,,,,,,,,,2,,,51,36
227430,note_on,0,0,3,,,,,,,,,2,,,56,36
227430,note_on,0,0,3,,,,,,,,,2,,,60,36
227430,note_on,120,0,3,,,,,,,,,2,,,44,0
227442,note_on,12,0,3,,,,,,,,,2,,,60,0
227442,note_on,0,0,3,,,,,,,,,2,,,51,0
227442,note_on,0,0,3,,,,,,,,,2,,,56,0
227490,note_on,180,0,1,,,,,,,,,0,,,84,0
227490,note_on,0,0,1,,,,,,,,,0,,,82,49
227490,note_on,0,0,1,,,,,,,,,0,,,80,0
227550,note_on,108,0,3,,,,,,,,,2,,,51,36
227550,note_on,0,0,3,,,,,,,,,2,,,56,36
227550,note_on,0,0,3,,,,,,,,,2,,,60,36
227550,note_on,0,0,1,,,,,,,,,0,,,80,49
227550,note_on,60,0,1,,,,,,,,,0,,,82,0
227562,note_on,0,0,3,,,,,,,,,2,,,56,0
227562,note_on,0,0,3,,,,,,,,,2,,,51,0
227562,note_on,12,0,3,,,,,,,,,2,,,60,0
227610,note_on,0,0,1,,,,,,,,,0,,,72,49
227610,note_on,60,0,1,,,,,,,,,0,,,80,0
227670,note_on,108,0,3,,,,,,,,,2,,,39,36
227670,note_on,0,0,1,,,,,,,,,0,,,77,75
227670,note_on,60,0,1,,,,,,,,,0,,,72,0
227670,note_on,0,0,1,,,,,,,,,0,,,73,67
227790,note_on,120,0,3,,,,,,,,,2,,,39,0
227790,note_on,0,0,3,,,,,,,,,2,,,51,36
227790,note_on,0,0,3,,,,,,,,,2,,,58,36
227790,note_on,0,0,3,,,,,,,,,2,,,61,36
227802,note_on,12,0,3,,,,,,,,,2,,,61,0
227802,note_on,0,0,3,,,,,,,,,2,,,58,0
227802,note_on,0,0,3,,,,,,,,,2,,,51,0
227850,note_on,180,0,1,,,,,,,,,0,,,77,0
227850,note_on,0,0,1,,,,,,,,,0,,,73,0
227850,note_on,0,0,1,,,,,,,,,0,,,75,49
227910,note_on,0,0,3,,,,,,,,,2,,,61,36
227910,note_on,0,0,3,,,,,,,,,2,,,58,36
227910,note_on,108,0,3,,,,,,,,,2,,,51,36
227910,note_on,60,0,1,,,,,,,,,0,,,75,0
227910,note_on,0,0,1,,,,,,,,,0,,,73,49
227922,note_on,0,0,3,,,,,,,,,2,,,51,0
227922,note_on,0,0,3,,,,,,,,,2,,,58,0
227922,note_on,12,0,3,,,,,,,,,2,,,61,0
227970,note_on,60,0,1,,,,,,,,,0,,,73,0
227970,note_on,0,0,1,,,,,,,,,0,,,67,49
228030,note_on,108,0,3,,,,,,,,,2,,,44,36
228030,note_on,60,0,1,,,,,,,,,0,,,67,0
228030,note_on,0,0,1,,,,,,,,,0,,,68,49
228030,time_signature,2520,1,0,2,4,24,8,,,,,,,,,
228150,note_on,120,0,1,,,,,,,,,0,,,68,0
228150,note_on,120,0,3,,,,,,,,,2,,,44,0
228150,note_on,0,0,3,,,,,,,,,2,,,60,36
228150,note_on,0,0,3,,,,,,,,,2,,,56,36
228150,note_on,0,0,3,,,,,,,,,2,,,51,36
228270,note_on,120,0,3,,,,,,,,,2,,,60,0
228270,note_on,120,0,1,,,,,,,,,0,,,72,49
228270,time_signature,240,1,0,1,4,24,8,,,,,,,,,
228270,note_on,0,0,3,,,,,,,,,2,,,51,0
228270,note_on,0,0,3,,,,,,,,,2,,,56,0
228390,time_signature,120,1,0,3,4,24,8,,,,,,,,,
228390,note_on,0,0,1,,,,,,,,,0,,,77,88
228390,note_on,0,0,1,,,,,,,,,0,,,73,88
228390,note_on,120,0,3,,,,,,,,,2,,,39,75
228390,note_on,120,0,1,,,,,,,,,0,,,72,0
228510,note_on,0,0,3,,,,,,,,,2,,,58,75
228510,note_on,0,0,3,,,,,,,,,2,,,51,75
228510,note_on,0,0,3,,,,,,,,,2,,,61,75
228510,note_on,120,0,3,,,,,,,,,2,,,39,0
228522,note_on,0,0,3,,,,,,,,,2,,,51,0
228522,note_on,0,0,3,,,,,,,,,2,,,58,0
228522,note_on,12,0,3,,,,,,,,,2,,,61,0
228570,note_on,180,0,1,,,,,,,,,0,,,77,0
228570,note_on,0,0,1,,,,,,,,,0,,,73,0
228570,note_on,0,0,1,,,,,,,,,0,,,75,88
228630,note_on,0,0,3,,,,,,,,,2,,,61,75
228630,note_on,0,0,3,,,,,,,,,2,,,58,75
228630,note_on,108,0,3,,,,,,,,,2,,,51,75
228630,note_on,60,0,1,,,,,,,,,0,,,75,0
228630,note_on,0,0,1,,,,,,,,,0,,,73,88
228642,note_on,0,0,3,,,,,,,,,2,,,51,0
228642,note_on,12,0,3,,,,,,,,,2,,,61,0
228642,note_on,0,0,3,,,,,,,,,2,,,58,0
228690,note_on,60,0,1,,,,,,,,,0,,,73,0
228690,note_on,0,0,1,,,,,,,,,0,,,67,88
228750,note_on,60,0,1,,,,,,,,,0,,,67,0
228750,note_on,0,0,1,,,,,,,,,0,,,77,114
228750,note_on,108,0,3,,,,,,,,,2,,,39,75
228750,note_on,0,0,1,,,,,,,,,0,,,73,106
228810,note_on,60,0,1,,,,,,,,,0,,,77,0
228810,note_on,0,0,1,,,,,,,,,0,,,73,0
228810,note_on,0,0,1,,,,,,,,,0,,,75,88
228870,note_on,0,0,3,,,,,,,,,2,,,51,75
228870,note_on,120,0,3,,,,,,,,,2,,,39,0
228870,note_on,0,0,3,,,,,,,,,2,,,61,75
228870,note_on,0,0,1,,,,,,,,,0,,,73,88
228870,note_on,60,0,1,,,,,,,,,0,,,75,0
228870,note_on,0,0,3,,,,,,,,,2,,,58,75
228882,note_on,12,0,3,,,,,,,,,2,,,61,0
228882,note_on,0,0,3,,,,,,,,,2,,,58,0
228882,note_on,0,0,3,,,,,,,,,2,,,51,0
228930,note_on,60,0,1,,,,,,,,,0,,,73,0
228930,note_on,0,0,1,,,,,,,,,0,,,67,88
228990,note_on,108,0,3,,,,,,,,,2,,,51,101
228990,note_on,0,0,3,,,,,,,,,2,,,58,101
228990,note_on,0,0,1,,,,,,,,,0,,,77,114
228990,note_on,0,0,3,,,,,,,,,2,,,61,101
228990,note_on,0,0,1,,,,,,,,,0,,,73,114
228990,note_on,60,0,1,,,,,,,,,0,,,67,0
229002,note_on,0,0,3,,,,,,,,,2,,,51,0
229002,note_on,12,0,3,,,,,,,,,2,,,61,0
229002,note_on,0,0,3,,,,,,,,,2,,,58,0
229050,note_on,0,0,1,,,,,,,,,0,,,67,114
229050,note_on,0,0,1,,,,,,,,,0,,,73,0
229050,note_on,60,0,1,,,,,,,,,0,,,77,0
229110,note_on,0,0,1,,,,,,,,,0,,,84,114
229110,note_on,0,0,1,,,,,,,,,0,,,80,106
229110,note_on,60,0,1,,,,,,,,,0,,,67,0
229110,note_on,108,0,3,,,,,,,,,2,,,44,75
229230,note_on,120,0,3,,,,,,,,,2,,,44,0
229230,note_on,0,0,3,,,,,,,,,2,,,51,75
229230,note_on,0,0,3,,,,,,,,,2,,,56,75
229230,note_on,0,0,3,,,,,,,,,2,,,60,75
229242,note_on,0,0,3,,,,,,,,,2,,,56,0
229242,note_on,0,0,3,,,,,,,,,2,,,51,0
229242,note_on,12,0,3,,,,,,,,,2,,,60,0
229290,note_on,0,0,1,,,,,,,,,0,,,82,88
229290,note_on,180,0,1,,,,,,,,,0,,,84,0
229290,note_on,0,0,1,,,,,,,,,0,,,80,0
229350,note_on,0,0,3,,,,,,,,,2,,,60,75
229350,note_on,108,0,3,,,,,,,,,2,,,51,75
229350,note_on,60,0,1,,,,,,,,,0,,,82,0
229350,note_on,0,0,1,,,,,,,,,0,,,80,88
229350,note_on,0,0,3,,,,,,,,,2,,,56,75
229362,note_on,12,0,3,,,,,,,,,2,,,60,0
229362,note_on,0,0,3,,,,,,,,,2,,,56,0
229362,note_on,0,0,3,,,,,,,,,2,,,51,0
229410,note_on,60,0,1,,,,,,,,,0,,,80,0
229410,note_on,0,0,1,,,,,,,,,0,,,72,88
229470,note_on,60,0,1,,,,,,,,,0,,,72,0
229470,note_on,0,0,1,,,,,,,,,0,,,80,106
229470,note_on,0,0,1,,,,,,,,,0,,,84,114
229470,note_on,108,0,3,,,,,,,,,2,,,44,75
229530,note_on,60,0,1,,,,,,,,,0,,,84,0
229530,note_on,0,0,1,,,,,,,,,0,,,80,0
229530,note_on,0,0,1,,,,,,,,,0,,,82,88
229590,note_on,120,0,3,,,,,,,,,2,,,44,0
229590,note_on,60,0,1,,,,,,,,,0,,,82,0
229590,note_on,0,0,3,,,,,,,,,2,,,51,75
229590,note_on,0,0,1,,,,,,,,,0,,,80,88
229590,note_on,0,0,3,,,,,,,,,2,,,56,75
229590,note_on,0,0,3,,,,,,,,,2,,,60,75
229602,note_on,0,0,3,,,,,,,,,2,,,51,0
229602,note_on,0,0,3,,,,,,,,,2,,,56,0
229602,note_on,12,0,3,,,,,,,,,2,,,60,0
229650,note_on,60,0,1,,,,,,,,,0,,,80,0
229650,note_on,0,0,1,,,,,,,,,0,,,72,88
229710,note_on,0,0,1,,,,,,,,,0,,,80,114
229710,note_on,108,0,3,,,,,,,,,2,,,51,101
229710,note_on,0,0,3,,,,,,,,,2,,,60,101
229710,note_on,0,0,1,,,,,,,,,0,,,84,114
229710,note_on,0,0,3,,,,,,,,,2,,,56,101
229710,note_on,60,0,1,,,,,,,,,0,,,72,0
229722,note_on,12,0,3,,,,,,,,,2,,,60,0
229722,note_on,0,0,3,,,,,,,,,2,,,51,0
229722,note_on,0,0,3,,,,,,,,,2,,,56,0
229770,note_on,0,0,1,,,,,,,,,0,,,80,0
229770,note_on,0,0,1,,,,,,,,,0,,,72,114
229770,note_on,60,0,1,,,,,,,,,0,,,84,0
229830,note_on,108,0,3,,,,,,,,,2,,,49,101
229830,note_on,0,0,1,,,,,,,,,0,,,89,127
229830,note_on,0,0,1,,,,,,,,,0,,,85,127
229830,note_on,60,0,1,,,,,,,,,0,,,72,0
229950,note_on,0,0,3,,,,,,,,,2,,,65,101
229950,note_on,0,0,3,,,,,,,,,2,,,56,101
229950,note_on,120,0,3,,,,,,,,,2,,,49,0
229950,note_on,0,0,3,,,,,,,,,2,,,61,101
229962,note_on,0,0,3,,,,,,,,,2,,,56,0
229962,note_on,0,0,3,,,,,,,,,2,,,61,0
229962,note_on,12,0,3,,,,,,,,,2,,,65,0
230010,note_on,0,0,1,,,,,,,,,0,,,87,114
230010,note_on,180,0,1,,,,,,,,,0,,,89,0
230010,note_on,0,0,1,,,,,,,,,0,,,85,0
230070,note_on,0,0,1,,,,,,,,,0,,,85,114
230070,note_on,60,0,1,,,,,,,,,0,,,87,0
230070,note_on,0,0,3,,,,,,,,,2,,,65,101
230070,note_on,0,0,3,,,,,,,,,2,,,61,101
230070,note_on,108,0,3,,,,,,,,,2,,,56,101
230082,note_on,0,0,3,,,,,,,,,2,,,56,0
230082,note_on,0,0,3,,,,,,,,,2,,,61,0
230082,note_on,12,0,3,,,,,,,,,2,,,65,0
230130,note_on,0,0,1,,,,,,,,,0,,,80,114
230130,note_on,60,0,1,,,,,,,,,0,,,85,0
230190,note_on,60,0,1,,,,,,,,,0,,,80,0
230190,note_on,0,0,1,,,,,,,,,0,,,89,127
230190,note_on,0,0,1,,,,,,,,,0,,,92,127
230190,note_on,108,0,3,,,,,,,,,2,,,49,101
230310,note_on,0,0,3,,,,,,,,,2,,,61,101
230310,note_on,0,0,3,,,,,,,,,2,,,65,101
230310,note_on,0,0,3,,,,,,,,,2,,,56,101
230310,note_on,120,0,3,,,,,,,,,2,,,49,0
230322,note_on,12,0,3,,,,,,,,,2,,,65,0
230322,note_on,0,0,3,,,,,,,,,2,,,61,0
230322,note_on,0,0,3,,,,,,,,,2,,,56,0
230370,note_on,0,0,1,,,,,,,,,0,,,89,0
230370,note_on,180,0,1,,,,,,,,,0,,,92,0
230370,note_on,0,0,1,,,,,,,,,0,,,91,114
230430,note_on,0,0,3,,,,,,,,,2,,,65,101
230430,note_on,60,0,1,,,,,,,,,0,,,91,0
230430,note_on,0,0,1,,,,,,,,,0,,,89,114
230430,note_on,0,0,3,,,,,,,,,2,,,61,101
230430,note_on,108,0,3,,,,,,,,,2,,,56,101
230442,note_on,0,0,3,,,,,,,,,2,,,61,0
230442,note_on,12,0,3,,,,,,,,,2,,,65,0
230442,note_on,0,0,3,,,,,,,,,2,,,56,0
230490,note_on,0,0,1,,,,,,,,,0,,,80,114
230490,note_on,60,0,1,,,,,,,,,0,,,89,0
230550,note_on,0,0,1,,,,,,,,,0,,,96,101
230550,note_on,0,0,1,,,,,,,,,0,,,92,101
230550,note_on,60,0,1,,,,,,,,,0,,,80,0
230550,note_on,108,0,3,,,,,,,,,2,,,51,88
230610,note_on,0,0,1,,,,,,,,,0,,,92,0
230610,note_on,60,0,1,,,,,,,,,0,,,96,0
230610,note_on,0,0,1,,,,,,,,,0,,,87,101
230670,note_on,0,0,3,,,,,,,,,2,,,63,88
230670,note_on,0,0,3,,,,,,,,,2,,,60,88
230670,note_on,0,0,3,,,,,,,,,2,,,56,88
230670,note_on,120,0,3,,,,,,,,,2,,,51,0
230670,note_on,60,0,1,,,,,,,,,0,,,87,0
230670,note_on,0,0,1,,,,,,,,,0,,,84,101
230682,note_on,0,0,3,,,,,,,,,2,,,56,0
230682,note_on,0,0,3,,,,,,,,,2,,,60,0
230682,note_on,12,0,3,,,,,,,,,2,,,63,0
230730,note_on,0,0,1,,,,,,,,,0,,,80,101
230730,note_on,60,0,1,,,,,,,,,0,,,84,0
230790,note_on,108,0,3,,,,,,,,,2,,,58,88
230790,note_on,60,0,1,,,,,,,,,0,,,80,0
230790,note_on,0,0,3,,,,,,,,,2,,,61,88
230790,note_on,0,0,1,,,,,,,,,0,,,79,101
230790,note_on,0,0,3,,,,,,,,,2,,,63,88
230790,note_on,0,0,1,,,,,,,,,0,,,82,101
230802,note_on,0,0,3,,,,,,,,,2,,,58,0
230802,note_on,0,0,3,,,,,,,,,2,,,61,0
230802,note_on,12,0,3,,,,,,,,,2,,,63,0
230850,note_on,0,0,1,,,,,,,,,0,,,87,101
230850,note_on,0,0,1,,,,,,,,,0,,,79,0
230850,note_on,60,0,1,,,,,,,,,0,,,82,0
230910,time_signature,2520,1,0,2,4,24,8,,,,,,,,,
230910,note_on,0,0,1,,,,,,,,,0,,,80,101
230910,note_on,60,0,1,,,,,,,,,0,,,87,0
230910,note_on,108,0,3,,,,,,,,,2,,,44,88
231030,note_on,0,0,3,,,,,,,,,2,,,60,88
231030,note_on,0,0,3,,,,,,,,,2,,,63,88
231030,note_on,0,0,3,,,,,,,,,2,,,56,88
231030,note_on,120,0,3,,,,,,,,,2,,,44,0
231030,note_on,120,0,1,,,,,,,,,0,,,80,0
231150,note_on,0,0,3,,,,,,,,,2,,,60,0
231150,time_signature,240,1,0,1,4,24,8,,,,,,,,,
231150,note_on,0,0,3,,,,,,,,,2,,,56,0
231150,note_on,120,0,3,,,,,,,,,2,,,63,0
231150,note_on,120,0,1,,,,,,,,,0,,,72,101
231270,note_on,120,0,1,,,,,,,,,0,,,72,0
231270,note_on,0,0,1,,,,,,,,,0,,,77,88
231270,note_on,120,0,3,,,,,,,,,2,,,39,75
231270,time_signature,120,1,0,3,4,24,8,,,,,,,,,
231270,note_on,0,0,1,,,,,,,,,0,,,73,88
231390,note_on,0,0,3,,,,,,,,,2,,,51,75
231390,note_on,0,0,3,,,,,,,,,2,,,58,75
231390,note_on,0,0,3,,,,,,,,,2,,,61,75
231390,note_on,120,0,3,,,,,,,,,2,,,39,0
231402,note_on,0,0,3,,,,,,,,,2,,,51,0
231402,note_on,0,0,3,,,,,,,,,2,,,58,0
231402,note_on,12,0,3,,,,,,,,,2,,,61,0
231450,note_on,180,0,1,,,,,,,,,0,,,77,0
231450,note_on,0,0,1,,,,,,,,,0,,,73,0
231450,note_on,0,0,1,,,,,,,,,0,,,75,88
231510,note_on,0,0,3,,,,,,,,,2,,,58,75
231510,note_on,108,0,3,,,,,,,,,2,,,51,75
231510,note_on,0,0,3,,,,,,,,,2,,,61,75
231510,note_on,60,0,1,,,,,,,,,0,,,75,0
231510,note_on,0,0,1,,,,,,,,,0,,,73,88
231522,note_on,0,0,3,,,,,,,,,2,,,51,0
231522,note_on,0,0,3,,,,,,,,,2,,,58,0
231522,note_on,12,0,3,,,,,,,,,2,,,61,0
231570,note_on,60,0,1,,,,,,,,,0,,,73,0
231570,note_on,0,0,1,,,,,,,,,0,,,67,88
231630,note_on,0,0,1,,,,,,,,,0,,,77,114
231630,note_on,0,0,1,,,,,,,,,0,,,73,106
231630,note_on,60,0,1,,,,,,,,,0,,,67,0
231630,note_on,108,0,3,,,,,,,,,2,,,39,75
231690,note_on,0,0,1,,,,,,,,,0,,,75,88
231690,note_on,0,0,1,,,,,,,,,0,,,73,0
231690,note_on,60,0,1,,,,,,,,,0,,,77,0
231750,note_on,0,0,3,,,,,,,,,2,,,58,75
231750,note_on,0,0,1,,,,,,,,,0,,,73,88
231750,note_on,60,0,1,,,,,,,,,0,,,75,0
231750,note_on,120,0,3,,,,,,,,,2,,,39,0
231750,note_on,0,0,3,,,,,,,,,2,,,51,75
231750,note_on,0,0,3,,,,,,,,,2,,,61,75
231762,note_on,0,0,3,,,,,,,,,2,,,58,0
231762,note_on,0,0,3,,,,,,,,,2,,,51,0
231762,note_on,12,0,3,,,,,,,,,2,,,61,0
231810,note_on,60,0,1,,,,,,,,,0,,,73,0
231810,note_on,0,0,1,,,,,,,,,0,,,67,88
231870,note_on,0,0,1,,,,,,,,,0,,,77,114
231870,note_on,60,0,1,,,,,,,,,0,,,67,0
231870,note_on,108,0,3,,,,,,,,,2,,,51,101
231870,note_on,0,0,3,,,,,,,,,2,,,58,101
231870,note_on,0,0,3,,,,,,,,,2,,,61,101
231870,note_on,0,0,1,,,,,,,,,0,,,73,114
231882,note_on,12,0,3,,,,,,,,,2,,,61,0
231882,note_on,0,0,3,,,,,,,,,2,,,58,0
231882,note_on,0,0,3,,,,,,,,,2,,,51,0
231930,note_on,60,0,1,,,,,,,,,0,,,77,0
231930,note_on,0,0,1,,,,,,,,,0,,,67,114
231930,note_on,0,0,1,,,,,,,,,0,,,73,0
231990,note_on,0,0,1,,,,,,,,,0,,,84,114
231990,note_on,0,0,1,,,,,,,,,0,,,80,106
231990,note_on,60,0,1,,,,,,,,,0,,,67,0
231990,note_on,108,0,3,,,,,,,,,2,,,44,75
232110,note_on,0,0,3,,,,,,,,,2,,,60,75
232110,note_on,120,0,3,,,,,,,,,2,,,44,0
232110,note_on,0,0,3,,,,,,,,,2,,,56,75
232110,note_on,0,0,3,,,,,,,,,2,,,51,75
232122,note_on,12,0,3,,,,,,,,,2,,,60,0
232122,note_on,0,0,3,,,,,,,,,2,,,56,0
232122,note_on,0,0,3,,,,,,,,,2,,,51,0
232170,note_on,180,0,1,,,,,,,,,0,,,84,0
232170,note_on,0,0,1,,,,,,,,,0,,,80,0
232170,note_on,0,0,1,,,,,,,,,0,,,82,88
232230,note_on,0,0,3,,,,,,,,,2,,,56,75
232230,note_on,0,0,3,,,,,,,,,2,,,60,75
232230,note_on,60,0,1,,,,,,,,,0,,,82,0
232230,note_on,0,0,1,,,,,,,,,0,,,80,88
232230,note_on,108,0,3,,,,,,,,,2,,,51,75
232242,note_on,0,0,3,,,,,,,,,2,,,51,0
232242,note_on,12,0,3,,,,,,,,,2,,,60,0
232242,note_on,0,0,3,,,,,,,,,2,,,56,0
232290,note_on,60,0,1,,,,,,,,,0,,,80,0
232290,note_on,0,0,1,,,,,,,,,0,,,72,88
232350,note_on,108,0,3,,,,,,,,,2,,,44,75
232350,note_on,60,0,1,,,,,,,,,0,,,72,0
232350,note_on,0,0,1,,,,,,,,,0,,,80,106
232350,note_on,0,0,1,,,,,,,,,0,,,84,114
232410,note_on,0,0,1,,,,,,,,,0,,,80,0
232410,note_on,60,0,1,,,,,,,,,0,,,84,0
232410,note_on,0,0,1,,,,,,,,,0,,,82,88
232470,note_on,120,0,3,,,,,,,,,2,,,44,0
232470,note_on,0,0,1,,,,,,,,,0,,,80,88
232470,note_on,0,0,3,,,,,,,,,2,,,51,75
232470,note_on,0,0,3,,,,,,,,,2,,,60,75
232470,note_on,0,0,3,,,,,,,,,2,,,56,75
232470,note_on,60,0,1,,,,,,,,,0,,,82,0
232482,note_on,0,0,3,,,,,,,,,2,,,51,0
232482,note_on,0,0,3,,,,,,,,,2,,,56,0
232482,note_on,12,0,3,,,,,,,,,2,,,60,0
232530,note_on,60,0,1,,,,,,,,,0,,,80,0
232530,note_on,0,0,1,,,,,,,,,0,,,72,88
232590,note_on,0,0,3,,,,,,,,,2,,,60,101
232590,note_on,0,0,3,,,,,,,,,2,,,56,101
232590,note_on,60,0,1,,,,,,,,,0,,,72,0
232590,note_on,108,0,3,,,,,,,,,2,,,51,101
232590,note_on,0,0,1,,,,,,,,,0,,,80,114
232590,note_on,0,0,1,,,,,,,,,0,,,84,114
232602,note_on,0,0,3,,,,,,,,,2,,,56,0
232602,note_on,12,0,3,,,,,,,,,2,,,60,0
232602,note_on,0,0,3,,,,,,,,,2,,,51,0
232650,note_on,0,0,1,,,,,,,,,0,,,80,0
232650,note_on,60,0,1,,,,,,,,,0,,,84,0
232650,note_on,0,0,1,,,,,,,,,0,,,72,114
232710,note_on,60,0,1,,,,,,,,,0,,,72,0
232710,note_on,0,0,1,,,,,,,,,0,,,89,127
232710,note_on,108,0,3,,,,,,,,,2,,,49,101
232710,note_on,0,0,1,,,,,,,,,0,,,85,127
232830,note_on,0,0,3,,,,,,,,,2,,,61,101
232830,note_on,0,0,3,,,,,,,,,2,,,56,101
232830,note_on,120,0,3,,,,,,,,,2,,,49,0
232830,note_on,0,0,3,,,,,,,,,2,,,65,101
232842,note_on,12,0,3,,,,,,,,,2,,,65,0
232842,note_on,0,0,3,,,,,,,,,2,,,61,0
232842,note_on,0,0,3,,,,,,,,,2,,,56,0
232890,note_on,180,0,1,,,,,,,,,0,,,89,0
232890,note_on,0,0,1,,,,,,,,,0,,,85,0
232890,note_on,0,0,1,,,,,,,,,0,,,87,114
232950,note_on,0,0,1,,,,,,,,,0,,,85,114
232950,note_on,108,0,3,,,,,,,,,2,,,56,101
232950,note_on,0,0,3,,,,,,,,,2,,,65,101
232950,note_on,0,0,3,,,,,,,,,2,,,61,101
232950,note_on,60,0,1,,,,,,,,,0,,,87,0
232962,note_on,0,0,3,,,,,,,,,2,,,56,0
232962,note_on,0,0,3,,,,,,,,,2,,,61,0
232962,note_on,12,0,3,,,,,,,,,2,,,65,0
233010,note_on,60,0,1,,,,,,,,,0,,,85,0
233010,note_on,0,0,1,,,,,,,,,0,,,80,114
233070,note_on,108,0,3,,,,,,,,,2,,,49,101
233070,note_on,60,0,1,,,,,,,,,0,,,80,0
233070,note_on,0,0,1,,,,,,,,,0,,,89,127
233070,note_on,0,0,1,,,,,,,,,0,,,92,127
233190,note_on,0,0,3,,,,,,,,,2,,,56,101
233190,note_on,0,0,3,,,,,,,,,2,,,61,101
233190,note_on,0,0,3,,,,,,,,,2,,,65,101
233190,note_on,120,0,3,,,,,,,,,2,,,49,0
233202,note_on,0,0,3,,,,,,,,,2,,,61,0
233202,note_on,12,0,3,,,,,,,,,2,,,65,0
233202,note_on,0,0,3,,,,,,,,,2,,,56,0
233250,note_on,180,0,1,,,,,,,,,0,,,92,0
233250,note_on,0,0,1,,,,,,,,,0,,,89,0
233250,note_on,0,0,1,,,,,,,,,0,,,91,114
233310,note_on,0,0,3,,,,,,,,,2,,,65,101
233310,note_on,108,0,3,,,,,,,,,2,,,56,101
233310,note_on,0,0,3,,,,,,,,,2,,,61,101
233310,note_on,60,0,1,,,,,,,,,0,,,91,0
233310,note_on,0,0,1,,,,,,,,,0,,,89,114
233322,note_on,0,0,3,,,,,,,,,2,,,56,0
233322,note_on,0,0,3,,,,,,,,,2,,,61,0
233322,note_on,12,0,3,,,,,,,,,2,,,65,0
233370,note_on,60,0,1,,,,,,,,,0,,,89,0
233370,note_on,0,0,1,,,,,,,,,0,,,80,114
233430,note_on,60,0,1,,,,,,,,,0,,,80,0
233430,note_on,0,0,1,,,,,,,,,0,,,96,101
233430,note_on,0,0,1,,,,,,,,,0,,,92,101
233430,note_on,108,0,3,,,,,,,,,2,,,51,88
233490,note_on,0,0,1,,,,,,,,,0,,,92,0
233490,note_on,0,0,1,,,,,,,,,0,,,87,101
233490,note_on,60,0,1,,,,,,,,,0,,,96,0
233550,note_on,120,0,3,,,,,,,,,2,,,51,0
233550,note_on,0,0,3,,,,,,,,,2,,,56,88
233550,note_on,0,0,3,,,,,,,,,2,,,60,88
233550,note_on,0,0,3,,,,,,,,,2,,,63,88
233550,note_on,0,0,1,,,,,,,,,0,,,84,101
233550,note_on,60,0,1,,,,,,,,,0,,,87,0
233562,note_on,12,0,3,,,,,,,,,2,,,63,0
233562,note_on,0,0,3,,,,,,,,,2,,,56,0
233562,note_on,0,0,3,,,,,,,,,2,,,60,0
233610,note_on,60,0,1,,,,,,,,,0,,,84,0
233610,note_on,0,0,1,,,,,,,,,0,,,80,101
233670,note_on,0,0,1,,,,,,,,,0,,,82,101
233670,note_on,60,0,1,,,,,,,,,0,,,80,0
233670,note_on,0,0,3,,,,,,,,,2,,,61,88
233670,note_on,0,0,3,,,,,,,,,2,,,63,88
233670,note_on,0,0,1,,,,,,,,,0,,,79,101
233670,note_on,108,0,3,,,,,,,,,2,,,58,88
233682,note_on,0,0,3,,,,,,,,,2,,,61,0
233682,note_on,0,0,3,,,,,,,,,2,,,58,0
233682,note_on,12,0,3,,,,,,,,,2,,,63,0
233730,note_on,0,0,1,,,,,,,,,0,,,87,101
233730,note_on,0,0,1,,,,,,,,,0,,,79,0
233730,note_on,60,0,1,,,,,,,,,0,,,82,0
233790,note_on,0,0,1,,,,,,,,,0,,,80,101
233790,note_on,108,0,3,,,,,,,,,2,,,44,88
233790,time_signature,2520,1,0,2,4,24,8,,,,,,,,,
233790,note_on,60,0,1,,,,,,,,,0,,,87,0
233910,note_on,0,0,3,,,,,,,,,2,,,56,88
233910,note_on,120,0,3,,,,,,,,,2,,,44,0
233910,note_on,0,0,3,,,,,,,,,2,,,63,88
233910,note_on,120,0,1,,,,,,,,,0,,,80,0
233910,note_on,0,0,3,,,,,,,,,2,,,60,88
234030,note_on,0,0,3,,,,,,,,,2,,,56,0
234030,time_signature,240,1,0,1,4,24,8,,,,,,,,,
234030,note_on,120,0,3,,,,,,,,,2,,,63,0
234030,note_on,12120,0,2,,,,,,,,,1,,,72,36
234030,note_on,120,0,1,,,,,,,,,0,,,72,49
234030,note_on,0,0,3,,,,,,,,,2,,,60,0
234090,note_on,0,0,1,,,,,,,,,0,,,75,49
234090,note_on,60,0,1,,,,,,,,,0,,,72,0
234150,note_on,0,0,2,,,,,,,,,1,,,72,36
234150,note_on,120,0,2,,,,,,,,,1,,,72,0
234150,time_signature,120,1,0,3,4,24,8,,,,,,,,,
234150,note_on,60,0,1,,,,,,,,,0,,,75,0
234150,note_on,0,0,1,,,,,,,,,0,,,72,49
234150,note_on,120,0,3,,,,,,,,,2,,,39,88
234210,note_on,60,0,1,,,,,,,,,0,,,72,0
234210,note_on,0,0,1,,,,,,,,,0,,,75,49
234270,note_on,120,0,3,,,,,,,,,2,,,39,0
234270,note_on,0,0,2,,,,,,,,,1,,,70,49
234270,note_on,120,0,2,,,,,,,,,1,,,72,0
234270,note_on,60,0,1,,,,,,,,,0,,,75,0
234270,note_on,0,0,1,,,,,,,,,0,,,70,62
234270,note_on,0,0,3,,,,,,,,,2,,,61,49
234270,note_on,0,0,3,,,,,,,,,2,,,55,49
234270,note_on,0,0,3,,,,,,,,,2,,,51,49
234330,note_on,0,0,1,,,,,,,,,0,,,75,62
234330,note_on,60,0,1,,,,,,,,,0,,,70,0
234390,note_on,0,0,3,,,,,,,,,2,,,61,62
234390,note_on,0,0,3,,,,,,,,,2,,,56,62
234390,note_on,0,0,3,,,,,,,,,2,,,51,62
234390,note_on,0,0,3,,,,,,,,,2,,,51,0
234390,note_on,0,0,3,,,,,,,,,2,,,55,0
234390,note_on,120,0,3,,,,,,,,,2,,,61,0
234390,note_on,0,0,2,,,,,,,,,1,,,68,62
234390,note_on,120,0,2,,,,,,,,,1,,,70,0
234390,note_on,60,0,1,,,,,,,,,0,,,75,0
234390,note_on,0,0,1,,,,,,,,,0,,,68,75
234450,note_on,0,0,1,,,,,,,,,0,,,75,75
234450,note_on,60,0,1,,,,,,,,,0,,,68,0
234510,note_on,0,0,3,,,,,,,,,2,,,61,62
234510,note_on,0,0,3,,,,,,,,,2,,,58,62
234510,note_on,0,0,3,,,,,,,,,2,,,51,62
234510,note_on,0,0,3,,,,,,,,,2,,,51,0
234510,note_on,0,0,3,,,,,,,,,2,,,56,0
234510,note_on,120,0,3,,,,,,,,,2,,,61,0
234510,note_on,0,0,1,,,,,,,,,0,,,67,75
234510,note_on,60,0,1,,,,,,,,,0,,,75,0
234510,note_on,0,0,2,,,,,,,,,1,,,67,62
234510,note_on,120,0,2,,,,,,,,,1,,,68,0
234570,note_on,0,0,1,,,,,,,,,0,,,75,75
234570,note_on,60,0,1,,,,,,,,,0,,,67,0
234630,note_on,0,0,3,,,,,,,,,2,,,51,0
234630,note_on,60,0,1,,,,,,,,,0,,,75,0
234630,note_on,0,0,3,,,,,,,,,2,,,61,49
234630,note_on,120,0,2,,,,,,,,,1,,,67,0
234630,note_on,0,0,3,,,,,,,,,2,,,51,49
234630,note_on,0,0,2,,,,,,,,,1,,,65,49
234630,note_on,0,0,1,,,,,,,,,0,,,65,62
234630,note_on,120,0,3,,,,,,,,,2,,,61,0
234630,note_on,0,0,3,,,,,,,,,2,,,58,0
234630,note_on,0,0,3,,,,,,,,,2,,,56,49
234690,note_on,0,0,1,,,,,,,,,0,,,75,62
234690,note_on,60,0,1,,,,,,,,,0,,,65,0
234750,note_on,0,0,3,,,,,,,,,2,,,55,36
234750,note_on,0,0,2,,,,,,,,,1,,,63,36
234750,note_on,0,0,3,,,,,,,,,2,,,51,36
234750,note_on,60,0,1,,,,,,,,,0,,,75,0
234750,note_on,120,0,2,,,,,,,,,1,,,65,0
234750,note_on,0,0,1,,,,,,,,,0,,,63,49
234750,note_on,0,0,3,,,,,,,,,2,,,61,36
234750,note_on,120,0,3,,,,,,,,,2,,,61,0
234750,note_on,0,0,3,,,,,,,,,2,,,51,0
234750,note_on,0,0,3,,,,,,,,,2,,,56,0
234810,note_on,0,0,1,,,,,,,,,0,,,75,49
234810,note_on,60,0,1,,,,,,,,,0,,,63,0
234870,note_on,0,0,3,,,,,,,,,2,,,44,36
234870,note_on,0,0,1,,,,,,,,,0,,,63,49
234870,note_on,60,0,1,,,,,,,,,0,,,75,0
234870,note_on,120,0,3,,,,,,,,,2,,,61,0
234870,note_on,0,0,3,,,,,,,,,2,,,55,0
234870,note_on,0,0,3,,,,,,,,,2,,,51,0
234870,note_on,0,0,2,,,,,,,,,1,,,63,36
234870,note_on,120,0,2,,,,,,,,,1,,,63,0
234930,note_on,60,0,1,,,,,,,,,0,,,63,0
234930,note_on,0,0,1,,,,,,,,,0,,,75,49
234990,note_on,120,0,2,,,,,,,,,1,,,63,0
234990,note_on,0,0,2,,,,,,,,,1,,,68,36
234990,note_on,0,0,3,,,,,,,,,2,,,56,36
234990,note_on,0,0,3,,,,,,,,,2,,,51,36
234990,note_on,0,0,3,,,,,,,,,2,,,60,36
234990,note_on,0,0,1,,,,,,,,,0,,,68,49
234990,note_on,120,0,3,,,,,,,,,2,,,44,0
234990,note_on,60,0,1,,,,,,,,,0,,,75,0
235002,note_on,12,0,3,,,,,,,,,2,,,60,0
235002,note_on,0,0,3,,,,,,,,,2,,,56,0
235002,note_on,0,0,3,,,,,,,,,2,,,51,0
235050,note_on,0,0,1,,,,,,,,,0,,,75,49
235050,note_on,60,0,1,,,,,,,,,0,,,68,0
235110,note_on,120,0,2,,,,,,,,,1,,,68,0
235110,note_on,0,0,2,,,,,,,,,1,,,70,36
235110,note_on,0,0,3,,,,,,,,,2,,,61,36
235110,note_on,108,0,3,,,,,,,,,2,,,51,36
235110,note_on,0,0,1,,,,,,,,,0,,,70,49
235110,note_on,0,0,3,,,,,,,,,2,,,55,36
235110,note_on,60,0,1,,,,,,,,,0,,,75,0
235122,note_on,12,0,3,,,,,,,,,2,,,61,0
235122,note_on,0,0,3,,,,,,,,,2,,,55,0
235122,note_on,0,0,3,,,,,,,,,2,,,51,0
235170,note_on,0,0,1,,,,,,,,,0,,,75,49
235170,note_on,60,0,1,,,,,,,,,0,,,70,0
235230,note_on,120,0,2,,,,,,,,,1,,,70,0
235230,note_on,108,0,3,,,,,,,,,2,,,44,36
235230,note_on,0,0,1,,,,,,,,,0,,,72,49
235230,note_on,60,0,1,,,,,,,,,0,,,75,0
235230,note_on,0,0,2,,,,,,,,,1,,,72,36
235290,note_on,0,0,1,,,,,,,,,0,,,75,49
235290,note_on,60,0,1,,,,,,,,,0,,,72,0
235350,note_on,0,0,3,,,,,,,,,2,,,60,36
235350,note_on,0,0,3,,,,,,,,,2,,,56,36
235350,note_on,120,0,3,,,,,,,,,2,,,44,0
235350,note_on,0,0,3,,,,,,,,,2,,,51,36
235350,note_on,120,0,2,,,,,,,,,1,,,72,0
235350,note_on,60,0,1,,,,,,,,,0,,,75,0
235350,note_on,0,0,1,,,,,,,,,0,,,63,49
235362,note_on,12,0,3,,,,,,,,,2,,,60,0
235362,note_on,0,0,3,,,,,,,,,2,,,56,0
235362,note_on,0,0,3,,,,,,,,,2,,,51,0
235410,note_on,60,0,1,,,,,,,,,0,,,63,0
235410,note_on,0,0,1,,,,,,,,,0,,,68,49
235470,note_on,60,0,1,,,,,,,,,0,,,68,0
235470,note_on,108,0,3,,,,,,,,,2,,,51,36
235470,note_on,0,0,3,,,,,,,,,2,,,56,36
235470,note_on,0,0,3,,,,,,,,,2,,,60,36
235470,note_on,0,0,1,,,,,,,,,0,,,70,49
235482,note_on,12,0,3,,,,,,,,,2,,,60,0
235482,note_on,0,0,3,,,,,,,,,2,,,56,0
235482,note_on,0,0,3,,,,,,,,,2,,,51,0
235530,note_on,60,0,1,,,,,,,,,0,,,70,0
235530,note_on,0,0,1,,,,,,,,,0,,,72,49
235590,note_on,240,0,2,,,,,,,,,1,,,72,36
235590,note_on,60,0,1,,,,,,,,,0,,,72,0
235590,note_on,108,0,3,,,,,,,,,2,,,39,36
235590,note_on,0,0,1,,,,,,,,,0,,,72,49
235650,note_on,60,0,1,,,,,,,,,0,,,72,0
235650,note_on,0,0,1,,,,,,,,,0,,,75,49
235710,note_on,60,0,1,,,,,,,,,0,,,75,0
235710,note_on,120,0,2,,,,,,,,,1,,,72,0
235710,note_on,0,0,2,,,,,,,,,1,,,70,49
235710,note_on,120,0,3,,,,,,,,,2,,,39,0
235710,note_on,0,0,3,,,,,,,,,2,,,51,49
235710,note_on,0,0,3,,,,,,,,,2,,,55,49
235710,note_on,0,0,3,,,,,,,,,2,,,61,49
235710,note_on,0,0,1,,,,,,,,,0,,,70,62
235770,note_on,0,0,1,,,,,,,,,0,,,75,62
235770,note_on,60,0,1,,,,,,,,,0,,,70,0
235830,note_on,0,0,2,,,,,,,,,1,,,68,62
235830,note_on,0,0,3,,,,,,,,,2,,,56,62
235830,note_on,0,0,3,,,,,,,,,2,,,61,62
235830,note_on,0,0,3,,,,,,,,,2,,,55,0
235830,note_on,120,0,3,,,,,,,,,2,,,61,0
235830,note_on,120,0,2,,,,,,,,,1,,,70,0
235830,note_on,0,0,3,,,,,,,,,2,,,51,62
235830,note_on,60,0,1,,,,,,,,,0,,,75,0
235830,note_on,0,0,1,,,,,,,,,0,,,68,75
235830,note_on,0,0,3,,,,,,,,,2,,,51,0
235890,note_on,0,0,1,,,,,,,,,0,,,75,75
235890,note_on,60,0,1,,,,,,,,,0,,,68,0
235950,note_on,0,0,1,,,,,,,,,0,,,67,75
235950,note_on,0,0,3,,,,,,,,,2,,,61,62
235950,note_on,0,0,3,,,,,,,,,2,,,58,62
235950,note_on,0,0,3,,,,,,,,,2,,,51,62
235950,note_on,0,0,3,,,,,,,,,2,,,56,0
235950,note_on,120,0,3,,,,,,,,,2,,,61,0
235950,note_on,0,0,2,,,,,,,,,1,,,67,62
235950,note_on,0,0,3,,,,,,,,,2,,,51,0
235950,note_on,60,0,1,,,,,,,,,0,,,75,0
235950,note_on,120,0,2,,,,,,,,,1,,,68,0
236010,note_on,0,0,1,,,,,,,,,0,,,75,75
236010,note_on,60,0,1,,,,,,,,,0,,,67,0
236070,note_on,0,0,2,,,,,,,,,1,,,65,49
236070,note_on,0,0,1,,,,,,,,,0,,,65,62
236070,note_on,0,0,3,,,,,,,,,2,,,56,49
236070,note_on,60,0,1,,,,,,,,,0,,,75,0
236070,note_on,120,0,2,,,,,,,,,1,,,67,0
236070,note_on,120,0,3,,,,,,,,,2,,,61,0
236070,note_on,0,0,3,,,,,,,,,2,,,58,0
236070,note_on,0,0,3,,,,,,,,,2,,,51,0
236070,note_on,0,0,3,,,,,,,,,2,,,51,49
236070,note_on,0,0,3,,,,,,,,,2,,,61,49
236130,note_on,60,0,1,,,,,,,,,0,,,65,0
236130,note_on,0,0,1,,,,,,,,,0,,,75,62
236190,note_on,0,0,3,,,,,,,,,2,,,55,36
236190,note_on,0,0,3,,,,,,,,,2,,,56,0
236190,note_on,0,0,3,,,,,,,,,2,,,51,0
236190,note_on,0,0,3,,,,,,,,,2,,,51,36
236190,note_on,0,0,3,,,,,,,,,2,,,61,36
236190,note_on,60,0,1,,,,,,,,,0,,,75,0
236190,note_on,0,0,2,,,,,,,,,1,,,63,36
236190,note_on,120,0,2,,,,,,,,,1,,,65,0
236190,note_on,120,0,3,,,,,,,,,2,,,61,0
236190,note_on,0,0,1,,,,,,,,,0,,,63,49
236250,note_on,60,0,1,,,,,,,,,0,,,63,0
236250,note_on,0,0,1,,,,,,,,,0,,,75,49
236310,note_on,0,0,1,,,,,,,,,0,,,63,49
236310,note_on,0,0,2,,,,,,,,,1,,,63,36
236310,note_on,120,0,2,,,,,,,,,1,,,63,0
236310,note_on,60,0,1,,,,,,,,,0,,,75,0
236310,note_on,0,0,3,,,,,,,,,2,,,55,0
236310,note_on,0,0,3,,,,,,,,,2,,,51,0
236310,note_on,0,0,3,,,,,,,,,2,,,44,36
236310,note_on,120,0,3,,,,,,,,,2,,,61,0
236370,note_on,60,0,1,,,,,,,,,0,,,63,0
236370,note_on,0,0,1,,,,,,,,,0,,,75,49
236430,note_on,120,0,3,,,,,,,,,2,,,44,0
236430,note_on,0,0,3,,,,,,,,,2,,,51,36
236430,note_on,0,0,3,,,,,,,,,2,,,56,36
236430,note_on,0,0,3,,,,,,,,,2,,,60,36
236430,note_on,120,0,2,,,,,,,,,1,,,63,0
236430,note_on,0,0,2,,,,,,,,,1,,,68,36
236430,note_on,60,0,1,,,,,,,,,0,,,75,0
236430,note_on,0,0,1,,,,,,,,,0,,,68,49
236442,note_on,12,0,3,,,,,,,,,2,,,60,0
236442,note_on,0,0,3,,,,,,,,,2,,,51,0
236442,note_on,0,0,3,,,,,,,,,2,,,56,0
236490,note_on,0,0,1,,,,,,,,,0,,,75,49
236490,note_on,60,0,1,,,,,,,,,0,,,68,0
236550,note_on,108,0,3,,,,,,,,,2,,,51,36
236550,note_on,0,0,3,,,,,,,,,2,,,55,36
236550,note_on,0,0,3,,,,,,,,,2,,,61,36
236550,note_on,60,0,1,,,,,,,,,0,,,75,0
236550,note_on,120,0,2,,,,,,,,,1,,,68,0
236550,note_on,0,0,1,,,,,,,,,0,,,72,49
236550,note_on,0,0,2,,,,,,,,,1,,,72,36
236562,note_on,0,0,3,,,,,,,,,2,,,55,0
236562,note_on,12,0,3,,,,,,,,,2,,,61,0
236562,note_on,0,0,3,,,,,,,,,2,,,51,0
236610,note_on,0,0,1,,,,,,,,,0,,,70,49
236610,note_on,60,0,1,,,,,,,,,0,,,72,0
236670,time_signature,2520,1,0,2,4,24,8,,,,,,,,,
236670,note_on,120,0,2,,,,,,,,,1,,,72,0
236670,note_on,0,0,2,,,,,,,,,1,,,68,36
236670,note_on,0,0,1,,,,,,,,,0,,,68,49
236670,note_on,60,0,1,,,,,,,,,0,,,70,0
236670,note_on,108,0,3,,,,,,,,,2,,,44,36
236790,note_on,120,0,3,,,,,,,,,2,,,44,0
236790,note_on,0,0,3,,,,,,,,,2,,,51,36
236790,note_on,0,0,3,,,,,,,,,2,,,56,36
236790,note_on,0,0,3,,,,,,,,,2,,,60,36
236910,time_signature,240,1,0,1,4,24,8,,,,,,,,,
236910,note_on,0,0,2,,,,,,,,,1,,,72,36
236910,note_on,120,0,3,,,,,,,,,2,,,60,0
236910,note_on,240,0,2,,,,,,,,,1,,,68,0
236910,note_on,0,0,3,,,,,,,,,2,,,56,0
236910,note_on,0,0,3,,,,,,,,,2,,,51,0
236910,note_on,240,0,1,,,,,,,,,0,,,68,0
236910,note_on,0,0,1,,,,,,,,,0,,,72,49
236970,note_on,60,0,1,,,,,,,,,0,,,72,0
236970,note_on,0,0,1,,,,,,,,,0,,,75,49
237030,note_on,0,0,1,,,,,,,,,0,,,72,49
237030,time_signature,120,1,0,3,4,24,8,,,,,,,,,
237030,note_on,0,0,2,,,,,,,,,1,,,72,36
237030,note_on,120,0,2,,,,,,,,,1,,,72,0
237030,note_on,60,0,1,,,,,,,,,0,,,75,0
237030,note_on,120,0,3,,,,,,,,,2,,,39,36
237090,note_on,60,0,1,,,,,,,,,0,,,72,0
237090,note_on,0,0,1,,,,,,,,,0,,,75,49
237150,note_on,0,0,3,,,,,,,,,2,,,61,49
237150,note_on,60,0,1,,,,,,,,,0,,,75,0
237150,note_on,0,0,1,,,,,,,,,0,,,70,62
237150,note_on,0,0,3,,,,,,,,,2,,,55,49
237150,note_on,0,0,3,,,,,,,,,2,,,51,49
237150,note_on,0,0,2,,,,,,,,,1,,,70,49
237150,note_on,120,0,2,,,,,,,,,1,,,72,0
237150,note_on,120,0,3,,,,,,,,,2,,,39,0
237210,note_on,60,0,1,,,,,,,,,0,,,70,0
237210,note_on,0,0,1,,,,,,,,,0,,,75,62
237270,note_on,0,0,3,,,,,,,,,2,,,55,0
237270,note_on,60,0,1,,,,,,,,,0,,,75,0
237270,note_on,0,0,1,,,,,,,,,0,,,68,75
237270,note_on,120,0,3,,,,,,,,,2,,,61,0
237270,note_on,120,0,2,,,,,,,,,1,,,70,0
237270,note_on,0,0,3,,,,,,,,,2,,,51,0
237270,note_on,0,0,3,,,,,,,,,2,,,51,62
237270,note_on,0,0,3,,,,,,,,,2,,,56,62
237270,note_on,0,0,3,,,,,,,,,2,,,61,62
237270,note_on,0,0,2,,,,,,,,,1,,,68,62
237330,note_on,0,0,1,,,,,,,,,0,,,75,75
237330,note_on,60,0,1,,,,,,,,,0,,,68,0
237390,note_on,120,0,2,,,,,,,,,1,,,68,0
237390,note_on,60,0,1,,,,,,,,,0,,,75,0
237390,note_on,0,0,1,,,,,,,,,0,,,67,75
237390,note_on,0,0,3,,,,,,,,,2,,,58,62
237390,note_on,120,0,3,,,,,,,,,2,,,61,0
237390,note_on,0,0,3,,,,,,,,,2,,,56,0
237390,note_on,0,0,3,,,,,,,,,2,,,61,62
237390,note_on,0,0,2,,,,,,,,,1,,,67,62
237390,note_on,0,0,3,,,,,,,,,2,,,51,0
237390,note_on,0,0,3,,,,,,,,,2,,,51,62
237450,note_on,0,0,1,,,,,,,,,0,,,75,75
237450,note_on,60,0,1,,,,,,,,,0,,,67,0
237510,note_on,60,0,1,,,,,,,,,0,,,75,0
237510,note_on,0,0,1,,,,,,,,,0,,,65,62
237510,note_on,120,0,2,,,,,,,,,1,,,67,0
237510,note_on,120,0,3,,,,,,,,,2,,,61,0
237510,note_on,0,0,3,,,,,,,,,2,,,58,0
237510,note_on,0,0,3,,,,,,,,,2,,,51,0
237510,note_on,0,0,3,,,,,,,,,2,,,51,49
237510,note_on,0,0,2,,,,,,,,,1,,,65,49
237510,note_on,0,0,3,,,,,,,,,2,,,56,49
237510,note_on,0,0,3,,,,,,,,,2,,,61,49
237570,note_on,60,0,1,,,,,,,,,0,,,65,0
237570,note_on,0,0,1,,,,,,,,,0,,,75,62
237630,note_on,0,0,1,,,,,,,,,0,,,63,49
237630,note_on,0,0,3,,,,,,,,,2,,,61,36
237630,note_on,0,0,3,,,,,,,,,2,,,55,36
237630,note_on,0,0,3,,,,,,,,,2,,,51,0
237630,note_on,0,0,3,,,,,,,,,2,,,56,0
237630,note_on,120,0,3,,,,,,,,,2,,,61,0
237630,note_on,60,0,1,,,,,,,,,0,,,75,0
237630,note_on,120,0,2,,,,,,,,,1,,,65,0
237630,note_on,0,0,2,,,,,,,,,1,,,63,36
237630,note_on,0,0,3,,,,,,,,,2,,,51,36
237690,note_on,0,0,1,,,,,,,,,0,,,75,49
237690,note_on,60,0,1,,,,,,,,,0,,,63,0
237750,note_on,120,0,2,,,,,,,,,1,,,63,0
237750,note_on,0,0,2,,,,,,,,,1,,,63,36
237750,note_on,0,0,1,,,,,,,,,0,,,63,49
237750,note_on,120,0,3,,,,,,,,,2,,,61,0
237750,note_on,0,0,3,,,,,,,,,2,,,55,0
237750,note_on,0,0,3,,,,,,,,,2,,,51,0
237750,note_on,0,0,3,,,,,,,,,2,,,44,36
237750,note_on,60,0,1,,,,,,,,,0,,,75,0
237810,note_on,60,0,1,,,,,,,,,0,,,63,0
237810,note_on,0,0,1,,,,,,,,,0,,,75,49
237870,note_on,60,0,1,,,,,,,,,0,,,75,0
237870,note_on,0,0,3,,,,,,,,,2,,,60,36
237870,note_on,0,0,1,,,,,,,,,0,,,68,49
237870,note_on,0,0,3,,,,,,,,,2,,,56,36
237870,note_on,0,0,3,,,,,,,,,2,,,51,36
237870,note_on,120,0,3,,,,,,,,,2,,,44,0
237870,note_on,120,0,2,,,,,,,,,1,,,63,0
237870,note_on,0,0,2,,,,,,,,,1,,,68,36
237882,note_on,0,0,3,,,,,,,,,2,,,56,0
237882,note_on,12,0,3,,,,,,,,,2,,,60,0
237882,note_on,0,0,3,,,,,,,,,2,,,51,0
237930,note_on,60,0,1,,,,,,,,,0,,,68,0
237930,note_on,0,0,1,,,,,,,,,0,,,75,49
237990,note_on,0,0,2,,,,,,,,,1,,,70,36
237990,note_on,0,0,1,,,,,,,,,0,,,70,49
237990,note_on,0,0,3,,,,,,,,,2,,,61,36
237990,note_on,0,0,3,,,,,,,,,2,,,55,36
237990,note_on,108,0,3,,,,,,,,,2,,,51,36
237990,note_on,120,0,2,,,,,,,,,1,,,68,0
237990,note_on,60,0,1,,,,,,,,,0,,,75,0
238002,note_on,12,0,3,,,,,,,,,2,,,61,0
238002,note_on,0,0,3,,,,,,,,,2,,,51,0
238002,note_on,0,0,3,,,,,,,,,2,,,55,0
238050,note_on,60,0,1,,,,,,,,,0,,,70,0
238050,note_on,0,0,1,,,,,,,,,0,,,75,49
238110,note_on,0,0,1,,,,,,,,,0,,,72,49
238110,note_on,0,0,2,,,,,,,,,1,,,72,36
238110,note_on,60,0,1,,,,,,,,,0,,,75,0
238110,note_on,108,0,3,,,,,,,,,2,,,44,36
238110,note_on,120,0,2,,,,,,,,,1,,,70,0
238170,note_on,0,0,1,,,,,,,,,0,,,75,49
238170,note_on,60,0,1,,,,,,,,,0,,,72,0
238230,note_on,0,0,3,,,,,,,,,2,,,60,36
238230,note_on,0,0,3,,,,,,,,,2,,,56,36
238230,note_on,120,0,2,,,,,,,,,1,,,72,0
238230,note_on,120,0,3,,,,,,,,,2,,,44,0
238230,note_on,0,0,1,,,,,,,,,0,,,63,49
238230,note_on,60,0,1,,,,,,,,,0,,,75,0
238230,note_on,0,0,3,,,,,,,,,2,,,51,36
238242,note_on,12,0,3,,,,,,,,,2,,,60,0
238242,note_on,0,0,3,,,,,,,,,2,,,56,0
238242,note_on,0,0,3,,,,,,,,,2,,,51,0
238290,note_on,60,0,1,,,,,,,,,0,,,63,0
238290,note_on,0,0,1,,,,,,,,,0,,,68,49
238350,note_on,0,0,3,,,,,,,,,2,,,60,36
238350,note_on,0,0,3,,,,,,,,,2,,,56,36
238350,note_on,60,0,1,,,,,,,,,0,,,68,0
238350,note_on,108,0,3,,,,,,,,,2,,,51,36
238350,note_on,0,0,1,,,,,,,,,0,,,70,49
238362,note_on,0,0,3,,,,,,,,,2,,,56,0
238362,note_on,0,0,3,,,,,,,,,2,,,51,0
238362,note_on,12,0,3,,,,,,,,,2,,,60,0
238410,note_on,0,0,1,,,,,,,,,0,,,72,49
238410,note_on,60,0,1,,,,,,,,,0,,,70,0
238470,note_on,108,0,3,,,,,,,,,2,,,39,36
238470,note_on,240,0,2,,,,,,,,,1,,,72,36
238470,note_on,0,0,1,,,,,,,,,0,,,72,49
238470,note_on,60,0,1,,,,,,,,,0,,,72,0
238530,note_on,0,0,1,,,,,,,,,0,,,75,49
238530,note_on,60,0,1,,,,,,,,,0,,,72,0
238590,note_on,120,0,2,,,,,,,,,1,,,72,0
238590,note_on,0,0,2,,,,,,,,,1,,,70,49
238590,note_on,0,0,3,,,,,,,,,2,,,61,49
238590,note_on,0,0,3,,,,,,,,,2,,,51,49
238590,note_on,0,0,3,,,,,,,,,2,,,55,49
238590,note_on,120,0,3,,,,,,,,,2,,,39,0
238590,note_on,60,0,1,,,,,,,,,0,,,75,0
238590,note_on,0,0,1,,,,,,,,,0,,,70,62
238650,note_on,60,0,1,,,,,,,,,0,,,70,0
238650,note_on,0,0,1,,,,,,,,,0,,,75,62
238710,note_on,0,0,3,,,,,,,,,2,,,51,0
238710,note_on,0,0,3,,,,,,,,,2,,,51,62
238710,note_on,0,0,3,,,,,,,,,2,,,61,62
238710,note_on,60,0,1,,,,,,,,,0,,,75,0
238710,note_on,0,0,1,,,,,,,,,0,,,68,75
238710,note_on,0,0,3,,,,,,,,,2,,,55,0
238710,note_on,0,0,2,,,,,,,,,1,,,68,62
238710,note_on,120,0,2,,,,,,,,,1,,,70,0
238710,note_on,0,0,3,,,,,,,,,2,,,56,62
238710,note_on,120,0,3,,,,,,,,,2,,,61,0
238770,note_on,0,0,1,,,,,,,,,0,,,75,75
238770,note_on,60,0,1,,,,,,,,,0,,,68,0
238830,note_on,0,0,3,,,,,,,,,2,,,58,62
238830,note_on,0,0,1,,,,,,,,,0,,,67,75
238830,note_on,60,0,1,,,,,,,,,0,,,75,0
238830,note_on,0,0,3,,,,,,,,,2,,,51,62
238830,note_on,0,0,3,,,,,,,,,2,,,51,0
238830,note_on,0,0,3,,,,,,,,,2,,,61,62
238830,note_on,120,0,3,,,,,,,,,2,,,61,0
238830,note_on,120,0,2,,,,,,,,,1,,,68,0
238830,note_on,0,0,2,,,,,,,,,1,,,67,62
238830,note_on,0,0,3,,,,,,,,,2,,,56,0
238890,note_on,60,0,1,,,,,,,,,0,,,67,0
238890,note_on,0,0,1,,,,,,,,,0,,,75,75
238950,note_on,120,0,2,,,,,,,,,1,,,67,0
238950,note_on,0,0,2,,,,,,,,,1,,,65,49
238950,note_on,0,0,1,,,,,,,,,0,,,65,62
238950,note_on,60,0,1,,,,,,,,,0,,,75,0
238950,note_on,120,0,3,,,,,,,,,2,,,61,0
238950,note_on,0,0,3,,,,,,,,,2,,,56,49
238950,note_on,0,0,3,,,,,,,,,2,,,51,49
238950,note_on,0,0,3,,,,,,,,,2,,,51,0
238950,note_on,0,0,3,,,,,,,,,2,,,58,0
238950,note_on,0,0,3,,,,,,,,,2,,,61,49
239010,note_on,0,0,1,,,,,,,,,0,,,75,62
239010,note_on,60,0,1,,,,,,,,,0,,,65,0
239070,note_on,120,0,3,,,,,,,,,2,,,61,0
239070,note_on,120,0,2,,,,,,,,,1,,,65,0
239070,note_on,0,0,2,,,,,,,,,1,,,63,36
239070,note_on,60,0,1,,,,,,,,,0,,,75,0
239070,note_on,0,0,3,,,,,,,,,2,,,61,36
239070,note_on,0,0,3,,,,,,,,,2,,,55,36
239070,note_on,0,0,3,,,,,,,,,2,,,51,36
239070,note_on,0,0,3,,,,,,,,,2,,,51,0
239070,note_on,0,0,3,,,,,,,,,2,,,56,0
239070,note_on,0,0,1,,,,,,,,,0,,,63,49
239130,note_on,0,0,1,,,,,,,,,0,,,75,49
239130,note_on,60,0,1,,,,,,,,,0,,,63,0
239190,note_on,60,0,1,,,,,,,,,0,,,75,0
239190,note_on,0,0,1,,,,,,,,,0,,,63,49
239190,note_on,120,0,3,,,,,,,,,2,,,61,0
239190,note_on,120,0,2,,,,,,,,,1,,,63,0
239190,note_on,0,0,3,,,,,,,,,2,,,55,0
239190,note_on,0,0,3,,,,,,,,,2,,,51,0
239190,note_on,0,0,3,,,,,,,,,2,,,44,36
239190,note_on,0,0,2,,,,,,,,,1,,,63,36
239250,note_on,60,0,1,,,,,,,,,0,,,63,0
239250,note_on,0,0,1,,,,,,,,,0,,,75,49
239310,note_on,120,0,2,,,,,,,,,1,,,63,0
239310,note_on,0,0,2,,,,,,,,,1,,,68,36
239310,note_on,60,0,1,,,,,,,,,0,,,75,0
239310,note_on,120,0,3,,,,,,,,,2,,,44,0
239310,note_on,0,0,3,,,,,,,,,2,,,51,36
239310,note_on,0,0,3,,,,,,,,,2,,,56,36
239310,note_on,0,0,1,,,,,,,,,0,,,68,49
239310,note_on,0,0,3,,,,,,,,,2,,,60,36
239322,note_on,12,0,3,,,,,,,,,2,,,60,0
239322,note_on,0,0,3,,,,,,,,,2,,,56,0
239322,note_on,0,0,3,,,,,,,,,2,,,51,0
239370,note_on,60,0,1,,,,,,,,,0,,,68,0
239370,note_on,0,0,1,,,,,,,,,0,,,75,49
239430,note_on,108,0,3,,,,,,,,,2,,,51,36
239430,note_on,0,0,3,,,,,,,,,2,,,55,36
239430,note_on,0,0,3,,,,,,,,,2,,,61,36
239430,note_on,0,0,2,,,,,,,,,1,,,72,36
239430,note_on,120,0,2,,,,,,,,,1,,,68,0
239430,note_on,60,0,1,,,,,,,,,0,,,75,0
239430,note_on,0,0,1,,,,,,,,,0,,,72,49
239442,note_on,12,0,3,,,,,,,,,2,,,61,0
239442,note_on,0,0,3,,,,,,,,,2,,,55,0
239442,note_on,0,0,3,,,,,,,,,2,,,51,0
239490,note_on,0,0,1,,,,,,,,,0,,,70,49
239490,note_on,60,0,1,,,,,,,,,0,,,72,0
239550,note_on,60,0,1,,,,,,,,,0,,,70,0
239550,note_on,0,0,2,,,,,,,,,1,,,68,36
239550,time_signature,2520,1,0,2,4,24,8,,,,,,,,,
239550,note_on,120,0,2,,,,,,,,,1,,,72,0
239550,note_on,108,0,3,,,,,,,,,2,,,44,36
239550,note_on,0,0,1,,,,,,,,,0,,,68,49
239670,note_on,120,0,3,,,,,,,,,2,,,44,0
239670,note_on,0,0,3,,,,,,,,,2,,,56,36
239670,note_on,0,0,3,,,,,,,,,2,,,60,36
239670,note_on,0,0,3,,,,,,,,,2,,,51,36
239790,time_signature,240,1,0,1,4,24,8,,,,,,,,,
239790,note_on,120,0,3,,,,,,,,,2,,,60,0
239790,note_on,0,0,3,,,,,,,,,2,,,56,0
239790,note_on,240,0,2,,,,,,,,,1,,,68,0
239790,note_on,0,0,3,,,,,,,,,2,,,51,0
239790,note_on,0,0,1,,,,,,,,,0,,,68,88
239790,note_on,240,0,1,,,,,,,,,0,,,68,0
239910,note_on,120,0,1,,,,,,,,,0,,,68,0
239910,note_on,120,0,3,,,,,,,,,2,,,49,75
239910,note_on,0,0,1,,,,,,,,,0,,,68,88
239910,time_signature,120,1,0,3,4,24,8,,,,,,,,,
239910,note_on,120,0,2,,,,,,,,,1,,,68,75
239970,note_on,60,0,1,,,,,,,,,0,,,68,0
239970,note_on,0,0,1,,,,,,,,,0,,,80,88
240030,note_on,120,0,3,,,,,,,,,2,,,49,0
240030,note_on,0,0,3,,,,,,,,,2,,,56,75
240030,note_on,0,0,3,,,,,,,,,2,,,61,75
240030,note_on,60,0,1,,,,,,,,,0,,,80,0
240030,note_on,0,0,1,,,,,,,,,0,,,73,88
240030,note_on,0,0,3,,,,,,,,,2,,,65,75
240030,note_on,0,0,2,,,,,,,,,1,,,73,75
240030,note_on,120,0,2,,,,,,,,,1,,,68,0
240042,note_on,12,0,3,,,,,,,,,2,,,65,0
240042,note_on,0,0,3,,,,,,,,,2,,,61,0
240042,note_on,0,0,3,,,,,,,,,2,,,56,0
240090,note_on,0,0,1,,,,,,,,,0,,,80,88
240090,note_on,60,0,1,,,,,,,,,0,,,73,0
240150,note_on,108,0,3,,,,,,,,,2,,,56,75
240150,note_on,120,0,2,,,,,,,,,1,,,73,0
240150,note_on,0,0,3,,,,,,,,,2,,,60,75
240150,note_on,0,0,3,,,,,,,,,2,,,66,75
240150,note_on,0,0,1,,,,,,,,,0,,,77,88
240150,note_on,60,0,1,,,,,,,,,0,,,80,0
240150,note_on,0,0,2,,,,,,,,,1,,,77,75
240162,note_on,0,0,3,,,,,,,,,2,,,56,0
240162,note_on,0,0,3,,,,,,,,,2,,,60,0
240162,note_on,12,0,3,,,,,,,,,2,,,66,0
240210,note_on,60,0,2,,,,,,,,,1,,,77,0
240210,note_on,0,0,2,,,,,,,,,1,,,75,75
240210,note_on,60,0,1,,,,,,,,,0,,,77,0
240210,note_on,0,0,1,,,,,,,,,0,,,75,88
240270,note_on,108,0,3,,,,,,,,,2,,,49,75
240270,note_on,0,0,2,,,,,,,,,1,,,73,75
240270,note_on,60,0,1,,,,,,,,,0,,,75,0
240270,note_on,0,0,1,,,,,,,,,0,,,73,88
240270,note_on,60,0,2,,,,,,,,,1,,,75,0
240330,note_on,60,0,1,,,,,,,,,0,,,73,0
240330,note_on,0,0,1,,,,,,,,,0,,,80,88
240390,note_on,120,0,2,,,,,,,,,1,,,73,0
240390,note_on,60,0,1,,,,,,,,,0,,,80,0
240390,note_on,120,0,3,,,,,,,,,2,,,49,0
240390,note_on,0,0,3,,,,,,,,,2,,,56,75
240390,note_on,0,0,3,,,,,,,,,2,,,61,75
240390,note_on,0,0,1,,,,,,,,,0,,,68,88
240390,note_on,0,0,3,,,,,,,,,2,,,65,75
240390,note_on,0,0,2,,,,,,,,,1,,,68,75
240402,note_on,0,0,3,,,,,,,,,2,,,61,0
240402,note_on,0,0,3,,,,,,,,,2,,,56,0
240402,note_on,12,0,3,,,,,,,,,2,,,65,0
240450,note_on,0,0,1,,,,,,,,,0,,,80,88
240450,note_on,60,0,1,,,,,,,,,0,,,68,0
240510,note_on,0,0,1,,,,,,,,,0,,,73,88
240510,note_on,120,0,2,,,,,,,,,1,,,68,0
240510,note_on,0,0,3,,,,,,,,,2,,,61,75
240510,note_on,0,0,2,,,,,,,,,1,,,73,75
240510,note_on,108,0,3,,,,,,,,,2,,,56,75
240510,note_on,60,0,1,,,,,,,,,0,,,80,0
240510,note_on,0,0,3,,,,,,,,,2,,,65,75
240522,note_on,0,0,3,,,,,,,,,2,,,61,0
240522,note_on,0,0,3,,,,,,,,,2,,,56,0
240522,note_on,12,0,3,,,,,,,,,2,,,65,0
240570,note_on,0,0,1,,,,,,,,,0,,,80,88
240570,note_on,60,0,1,,,,,,,,,0,,,73,0
240630,note_on,108,0,3,,,,,,,,,2,,,53,75
240630,note_on,0,0,1,,,,,,,,,0,,,72,88
240630,note_on,0,0,2,,,,,,,,,1,,,72,75
240630,note_on,120,0,2,,,,,,,,,1,,,73,0
240630,note_on,60,0,1,,,,,,,,,0,,,80,0
240690,note_on,0,0,1,,,,,,,,,0,,,81,88
240690,note_on,60,0,1,,,,,,,,,0,,,72,0
240750,note_on,0,0,1,,,,,,,,,0,,,69,88
240750,note_on,0,0,2,,,,,,,,,1,,,69,75
240750,note_on,120,0,2,,,,,,,,,1,,,72,0
240750,note_on,60,0,1,,,,,,,,,0,,,81,0
240750,note_on,0,0,3,,,,,,,,,2,,,65,75
240750,note_on,0,0,3,,,,,,,,,2,,,63,75
240750,note_on,0,0,3,,,,,,,,,2,,,60,75
240750,note_on,120,0,3,,,,,,,,,2,,,53,0
240762,note_on,0,0,3,,,,,,,,,2,,,60,0
240762,note_on,0,0,3,,,,,,,,,2,,,63,0
240762,note_on,12,0,3,,,,,,,,,2,,,65,0
240810,note_on,0,0,1,,,,,,,,,0,,,81,88
240810,note_on,60,0,1,,,,,,,,,0,,,69,0
240870,note_on,0,0,3,,,,,,,,,2,,,65,75
240870,note_on,0,0,3,,,,,,,,,2,,,63,75
240870,note_on,108,0,3,,,,,,,,,2,,,60,75
240870,note_on,120,0,2,,,,,,,,,1,,,69,0
240870,note_on,60,0,1,,,,,,,,,0,,,81,0
240870,note_on,0,0,1,,,,,,,,,0,,,72,88
240870,note_on,0,0,2,,,,,,,,,1,,,72,75
240882,note_on,0,0,3,,,,,,,,,2,,,63,0
240882,note_on,0,0,3,,,,,,,,,2,,,60,0
240882,note_on,12,0,3,,,,,,,,,2,,,65,0
240930,note_on,0,0,1,,,,,,,,,0,,,81,88
240930,note_on,60,0,1,,,,,,,,,0,,,72,0
240990,note_on,0,0,1,,,,,,,,,0,,,70,88
240990,note_on,120,0,2,,,,,,,,,1,,,72,0
240990,note_on,60,0,1,,,,,,,,,0,,,81,0
240990,note_on,108,0,3,,,,,,,,,2,,,46,75
240990,note_on,0,0,1,,,,,,,,,0,,,82,88
240990,note_on,0,0,1,,,,,,,,,0,,,73,88
241110,note_on,0,0,3,,,,,,,,,2,,,65,75
241110,note_on,0,0,3,,,,,,,,,2,,,61,75
241110,note_on,0,0,3,,,,,,,,,2,,,58,75
241110,note_on,120,0,3,,,,,,,,,2,,,46,0
241122,note_on,0,0,3,,,,,,,,,2,,,61,0
241122,note_on,0,0,3,,,,,,,,,2,,,58,0
241122,note_on,12,0,3,,,,,,,,,2,,,65,0
241170,note_on,0,0,1,,,,,,,,,0,,,70,88
241170,note_on,0,0,1,,,,,,,,,0,,,70,0
241170,note_on,0,0,1,,,,,,,,,0,,,73,0
241170,note_on,180,0,1,,,,,,,,,0,,,82,0
241230,note_on,108,0,3,,,,,,,,,2,,,58,75
241230,note_on,0,0,3,,,,,,,,,2,,,61,75
241230,note_on,0,0,3,,,,,,,,,2,,,65,75
241230,note_on,0,0,1,,,,,,,,,0,,,73,88
241230,note_on,60,0,1,,,,,,,,,0,,,70,0
241242,note_on,0,0,3,,,,,,,,,2,,,61,0
241242,note_on,0,0,3,,,,,,,,,2,,,58,0
241242,note_on,12,0,3,,,,,,,,,2,,,65,0
241290,note_on,60,0,1,,,,,,,,,0,,,73,0
241290,note_on,0,0,1,,,,,,,,,0,,,77,88
241350,note_on,108,0,3,,,,,,,,,2,,,39,75
241350,note_on,0,0,1,,,,,,,,,0,,,75,88
241350,note_on,60,0,1,,,,,,,,,0,,,77,0
241350,note_on,360,0,2,,,,,,,,,1,,,75,75
241410,note_on,60,0,1,,,,,,,,,0,,,75,0
241410,note_on,0,0,1,,,,,,,,,0,,,87,88
241470,note_on,0,0,3,,,,,,,,,2,,,61,75
241470,note_on,0,0,3,,,,,,,,,2,,,55,75
241470,note_on,120,0,3,,,,,,,,,2,,,39,0
241470,note_on,0,0,2,,,,,,,,,1,,,79,75
241470,note_on,120,0,2,,,,,,,,,1,,,75,0
241470,note_on,0,0,3,,,,,,,,,2,,,51,75
241470,note_on,0,0,1,,,,,,,,,0,,,79,88
241470,note_on,60,0,1,,,,,,,,,0,,,87,0
241482,note_on,0,0,3,,,,,,,,,2,,,51,0
241482,note_on,0,0,3,,,,,,,,,2,,,55,0
241482,note_on,12,0,3,,,,,,,,,2,,,61,0
241530,note_on,0,0,1,,,,,,,,,0,,,87,88
241530,note_on,60,0,1,,,,,,,,,0,,,79,0
241590,note_on,0,0,3,,,,,,,,,2,,,61,75
241590,note_on,0,0,3,,,,,,,,,2,,,55,75
241590,note_on,108,0,3,,,,,,,,,2,,,51,75
241590,note_on,0,0,2,,,,,,,,,1,,,84,75
241590,note_on,60,0,1,,,,,,,,,0,,,87,0
241590,note_on,0,0,1,,,,,,,,,0,,,84,88
241590,note_on,120,0,2,,,,,,,,,1,,,79,0
241602,note_on,12,0,3,,,,,,,,,2,,,61,0
241602,note_on,0,0,3,,,,,,,,,2,,,55,0
241602,note_on,0,0,3,,,,,,,,,2,,,51,0
241650,note_on,60,0,1,,,,,,,,,0,,,84,0
241650,note_on,0,0,2,,,,,,,,,1,,,82,75
241650,note_on,60,0,2,,,,,,,,,1,,,84,0
241650,note_on,0,0,1,,,,,,,,,0,,,82,88
241710,note_on,0,0,1,,,,,,,,,0,,,80,88
241710,note_on,60,0,1,,,,,,,,,0,,,82,0
241710,note_on,108,0,3,,,,,,,,,2,,,44,75
241710,note_on,60,0,2,,,,,,,,,1,,,82,0
241710,note_on,0,0,2,,,,,,,,,1,,,80,75
241770,note_on,0,0,1,,,,,,,,,0,,,87,88
241770,note_on,60,0,1,,,,,,,,,0,,,80,0
241830,note_on,0,0,2,,,,,,,,,1,,,75,75
241830,note_on,120,0,2,,,,,,,,,1,,,80,0
241830,note_on,60,0,1,,,,,,,,,0,,,87,0
241830,note_on,0,0,3,,,,,,,,,2,,,60,75
241830,note_on,0,0,3,,,,,,,,,2,,,56,75
241830,note_on,0,0,3,,,,,,,,,2,,,51,75
241830,note_on,120,0,3,,,,,,,,,2,,,44,0
241830,note_on,0,0,1,,,,,,,,,0,,,75,88
241842,note_on,0,0,3,,,,,,,,,2,,,56,0
241842,note_on,12,0,3,,,,,,,,,2,,,60,0
241842,note_on,0,0,3,,,,,,,,,2,,,51,0
241890,note_on,60,0,1,,,,,,,,,0,,,75,0
241890,note_on,0,0,1,,,,,,,,,0,,,87,88
241950,note_on,108,0,3,,,,,,,,,2,,,51,75
241950,note_on,0,0,2,,,,,,,,,1,,,80,75
241950,note_on,120,0,2,,,,,,,,,1,,,75,0
241950,note_on,0,0,1,,,,,,,,,0,,,80,88
241950,note_on,0,0,3,,,,,,,,,2,,,60,75
241950,note_on,0,0,3,,,,,,,,,2,,,56,75
241950,note_on,60,0,1,,,,,,,,,0,,,87,0
241962,note_on,0,0,3,,,,,,,,,2,,,51,0
241962,note_on,0,0,3,,,,,,,,,2,,,56,0
241962,note_on,12,0,3,,,,,,,,,2,,,60,0
242010,note_on,60,0,1,,,,,,,,,0,,,80,0
242010,note_on,0,0,1,,,,,,,,,0,,,87,88
242070,note_on,0,0,2,,,,,,,,,1,,,82,75
242070,note_on,0,0,3,,,,,,,,,2,,,61,75
242070,note_on,0,0,3,,,,,,,,,2,,,55,75
242070,note_on,108,0,3,,,,,,,,,2,,,51,75
242070,note_on,0,0,1,,,,,,,,,0,,,82,88
242070,note_on,60,0,1,,,,,,,,,0,,,87,0
242070,note_on,120,0,2,,,,,,,,,1,,,80,0
242130,note_on,0,0,1,,,,,,,,,0,,,87,88
242130,note_on,60,0,1,,,,,,,,,0,,,82,0
242190,note_on,0,0,3,,,,,,,,,2,,,51,0
242190,note_on,0,0,2,,,,,,,,,1,,,84,75
242190,note_on,60,0,1,,,,,,,,,0,,,87,0
242190,note_on,0,0,3,,,,,,,,,2,,,63,75
242190,note_on,0,0,3,,,,,,,,,2,,,55,75
242190,note_on,120,0,3,,,,,,,,,2,,,61,0
242190,note_on,0,0,3,,,,,,,,,2,,,55,0
242190,note_on,120,0,2,,,,,,,,,1,,,82,0
242190,note_on,0,0,1,,,,,,,,,0,,,84,88
242190,note_on,0,0,3,,,,,,,,,2,,,51,75
242250,note_on,0,0,1,,,,,,,,,0,,,87,88
242250,note_on,60,0,1,,,,,,,,,0,,,84,0
242310,note_on,0,0,3,,,,,,,,,2,,,61,75
242310,note_on,120,0,3,,,,,,,,,2,,,63,0
242310,note_on,0,0,3,,,,,,,,,2,,,55,0
242310,note_on,0,0,3,,,,,,,,,2,,,55,75
242310,note_on,0,0,3,,,,,,,,,2,,,51,75
242310,note_on,0,0,2,,,,,,,,,1,,,82,75
242310,note_on,0,0,1,,,,,,,,,0,,,82,88
242310,note_on,60,0,1,,,,,,,,,0,,,87,0
242310,note_on,0,0,3,,,,,,,,,2,,,51,0
242310,note_on,120,0,2,,,,,,,,,1,,,84,0
242370,note_on,0,0,1,,,,,,,,,0,,,87,88
242370,note_on,60,0,1,,,,,,,,,0,,,82,0
242430,note_on,0,0,1,,,,,,,,,0,,,80,88
242430,note_on,60,0,1,,,,,,,,,0,,,87,0
242430,note_on,120,0,2,,,,,,,,,1,,,82,0
242430,note_on,0,0,2,,,,,,,,,1,,,80,75
242430,note_on,120,0,3,,,,,,,,,2,,,61,0
242430,note_on,0,0,3,,,,,,,,,2,,,55,0
242430,note_on,0,0,3,,,,,,,,,2,,,51,0
242430,note_on,0,0,3,,,,,,,,,2,,,44,75
242430,time_signature,2520,1,0,2,4,24,8,,,,,,,,,
242550,note_on,120,0,3,,,,,,,,,2,,,44,0
242550,note_on,0,0,3,,,,,,,,,2,,,56,75
242550,note_on,0,0,3,,,,,,,,,2,,,60,75
242550,note_on,0,0,3,,,,,,,,,2,,,51,75
242670,note_on,240,0,2,,,,,,,,,1,,,80,0
242670,time_signature,240,1,0,1,4,24,8,,,,,,,,,
242670,note_on,240,0,1,,,,,,,,,0,,,80,0
242670,note_on,0,0,1,,,,,,,,,0,,,68,88
242670,note_on,0,0,3,,,,,,,,,2,,,51,0
242670,note_on,0,0,3,,,,,,,,,2,,,56,0
242670,note_on,120,0,3,,,,,,,,,2,,,60,0
242790,note_on,120,0,2,,,,,,,,,1,,,68,75
242790,note_on,120,0,1,,,,,,,,,0,,,68,0
242790,note_on,0,0,1,,,,,,,,,0,,,68,88
242790,note_on,120,0,3,,,,,,,,,2,,,49,75
242790,time_signature,120,1,0,3,4,24,8,,,,,,,,,
242850,note_on,60,0,1,,,,,,,,,0,,,68,0
242850,note_on,0,0,1,,,,,,,,,0,,,80,88
242910,note_on,120,0,2,,,,,,,,,1,,,68,0
242910,note_on,60,0,1,,,,,,,,,0,,,80,0
242910,note_on,0,0,1,,,,,,,,,0,,,73,88
242910,note_on,120,0,3,,,,,,,,,2,,,49,0
242910,note_on,0,0,3,,,,,,,,,2,,,56,75
242910,note_on,0,0,3,,,,,,,,,2,,,61,75
242910,note_on,0,0,3,,,,,,,,,2,,,65,75
242910,note_on,0,0,2,,,,,,,,,1,,,73,75
242922,note_on,0,0,3,,,,,,,,,2,,,56,0
242922,note_on,0,0,3,,,,,,,,,2,,,61,0
242922,note_on,12,0,3,,,,,,,,,2,,,65,0
242970,note_on,60,0,1,,,,,,,,,0,,,73,0
242970,note_on,0,0,1,,,,,,,,,0,,,80,88
243030,note_on,120,0,2,,,,,,,,,1,,,73,0
243030,note_on,0,0,2,,,,,,,,,1,,,77,75
243030,note_on,0,0,3,,,,,,,,,2,,,66,75
243030,note_on,0,0,1,,,,,,,,,0,,,77,88
243030,note_on,60,0,1,,,,,,,,,0,,,80,0
243030,note_on,0,0,3,,,,,,,,,2,,,60,75
243030,note_on,108,0,3,,,,,,,,,2,,,56,75
243042,note_on,12,0,3,,,,,,,,,2,,,66,0
243042,note_on,0,0,3,,,,,,,,,2,,,56,0
243042,note_on,0,0,3,,,,,,,,,2,,,60,0
243090,note_on,0,0,1,,,,,,,,,0,,,75,88
243090,note_on,60,0,2,,,,,,,,,1,,,77,0
243090,note_on,0,0,2,,,,,,,,,1,,,75,75
243090,note_on,60,0,1,,,,,,,,,0,,,77,0
243150,note_on,108,0,3,,,,,,,,,2,,,49,75
243150,note_on,0,0,2,,,,,,,,,1,,,73,75
243150,note_on,60,0,2,,,,,,,,,1,,,75,0
243150,note_on,0,0,1,,,,,,,,,0,,,73,88
243150,note_on,60,0,1,,,,,,,,,0,,,75,0
243210,note_on,0,0,1,,,,,,,,,0,,,80,88
243210,note_on,60,0,1,,,,,,,,,0,,,73,0
243270,note_on,120,0,3,,,,,,,,,2,,,49,0
243270,note_on,0,0,3,,,,,,,,,2,,,56,75
243270,note_on,0,0,2,,,,,,,,,1,,,68,75
243270,note_on,120,0,2,,,,,,,,,1,,,73,0
243270,note_on,0,0,3,,,,,,,,,2,,,65,75
243270,note_on,60,0,1,,,,,,,,,0,,,80,0
243270,note_on,0,0,1,,,,,,,,,0,,,68,88
243270,note_on,0,0,3,,,,,,,,,2,,,61,75
243282,note_on,12,0,3,,,,,,,,,2,,,65,0
243282,note_on,0,0,3,,,,,,,,,2,,,61,0
243282,note_on,0,0,3,,,,,,,,,2,,,56,0
243330,note_on,60,0,1,,,,,,,,,0,,,68,0
243330,note_on,0,0,1,,,,,,,,,0,,,80,88
243390,note_on,120,0,2,,,,,,,,,1,,,68,0
243390,note_on,0,0,2,,,,,,,,,1,,,73,75
243390,note_on,0,0,3,,,,,,,,,2,,,65,75
243390,note_on,0,0,3,,,,,,,,,2,,,61,75
243390,note_on,108,0,3,,,,,,,,,2,,,56,75
243390,note_on,60,0,1,,,,,,,,,0,,,80,0
243390,note_on,0,0,1,,,,,,,,,0,,,73,88
243402,note_on,0,0,3,,,,,,,,,2,,,56,0
243402,note_on,0,0,3,,,,,,,,,2,,,61,0
243402,note_on,12,0,3,,,,,,,,,2,,,65,0
243450,note_on,60,0,1,,,,,,,,,0,,,73,0
243450,note_on,0,0,1,,,,,,,,,0,,,80,88
243510,note_on,0,0,1,,,,,,,,,0,,,72,88
243510,note_on,108,0,3,,,,,,,,,2,,,53,75
243510,note_on,60,0,1,,,,,,,,,0,,,80,0
243510,note_on,0,0,2,,,,,,,,,1,,,72,75
243510,note_on,120,0,2,,,,,,,,,1,,,73,0
243570,note_on,60,0,1,,,,,,,,,0,,,72,0
243570,note_on,0,0,1,,,,,,,,,0,,,81,88
243630,note_on,60,0,1,,,,,,,,,0,,,81,0
243630,note_on,0,0,1,,,,,,,,,0,,,69,88
243630,note_on,120,0,2,,,,,,,,,1,,,72,0
243630,note_on,0,0,2,,,,,,,,,1,,,69,75
243630,note_on,0,0,3,,,,,,,,,2,,,65,75
243630,note_on,0,0,3,,,,,,,,,2,,,63,75
243630,note_on,0,0,3,,,,,,,,,2,,,60,75
243630,note_on,120,0,3,,,,,,,,,2,,,53,0
243642,note_on,12,0,3,,,,,,,,,2,,,65,0
243642,note_on,0,0,3,,,,,,,,,2,,,60,0
243642,note_on,0,0,3,,,,,,,,,2,,,63,0
243690,note_on,0,0,1,,,,,,,,,0,,,81,88
243690,note_on,60,0,1,,,,,,,,,0,,,69,0
243750,note_on,60,0,1,,,,,,,,,0,,,81,0
243750,note_on,0,0,3,,,,,,,,,2,,,63,75
243750,note_on,108,0,3,,,,,,,,,2,,,60,75
243750,note_on,120,0,2,,,,,,,,,1,,,69,0
243750,note_on,0,0,2,,,,,,,,,1,,,72,75
243750,note_on,0,0,1,,,,,,,,,0,,,72,88
243750,note_on,0,0,3,,,,,,,,,2,,,65,75
243762,note_on,0,0,3,,,,,,,,,2,,,63,0
243762,note_on,12,0,3,,,,,,,,,2,,,65,0
243762,note_on,0,0,3,,,,,,,,,2,,,60,0
243810,note_on,0,0,1,,,,,,,,,0,,,81,88
243810,note_on,60,0,1,,,,,,,,,0,,,72,0
243870,note_on,60,0,1,,,,,,,,,0,,,81,0
243870,note_on,120,0,2,,,,,,,,,1,,,72,0
243870,note_on,0,0,1,,,,,,,,,0,,,82,88
243870,note_on,0,0,1,,,,,,,,,0,,,73,88
243870,note_on,0,0,1,,,,,,,,,0,,,70,88
243870,note_on,108,0,3,,,,,,,,,2,,,46,75
243990,note_on,120,0,3,,,,,,,,,2,,,46,0
243990,note_on,0,0,3,,,,,,,,,2,,,58,75
243990,note_on,0,0,3,,,,,,,,,2,,,61,75
243990,note_on,0,0,3,,,,,,,,,2,,,65,75
244002,note_on,0,0,3,,,,,,,,,2,,,58,0
244002,note_on,0,0,3,,,,,,,,,2,,,61,0
244002,note_on,12,0,3,,,,,,,,,2,,,65,0
244050,note_on,0,0,1,,,,,,,,,0,,,73,0
244050,note_on,0,0,1,,,,,,,,,0,,,70,0
244050,note_on,0,0,1,,,,,,,,,0,,,70,88
244050,note_on,180,0,1,,,,,,,,,0,,,82,0
244110,note_on,60,0,1,,,,,,,,,0,,,70,0
244110,note_on,108,0,3,,,,,,,,,2,,,58,75
244110,note_on,0,0,3,,,,,,,,,2,,,61,75
244110,note_on,0,0,3,,,,,,,,,2,,,65,75
244110,note_on,0,0,1,,,,,,,,,0,,,73,88
244122,note_on,0,0,3,,,,,,,,,2,,,61,0
244122,note_on,0,0,3,,,,,,,,,2,,,58,0
244122,note_on,12,0,3,,,,,,,,,2,,,65,0
244170,note_on,60,0,1,,,,,,,,,0,,,73,0
244170,note_on,0,0,1,,,,,,,,,0,,,77,88
244230,note_on,0,0,1,,,,,,,,,0,,,75,88
244230,note_on,360,0,2,,,,,,,,,1,,,75,75
244230,note_on,108,0,3,,,,,,,,,2,,,39,75
244230,note_on,60,0,1,,,,,,,,,0,,,77,0
244290,note_on,0,0,1,,,,,,,,,0,,,87,88
244290,note_on,60,0,1,,,,,,,,,0,,,75,0
244350,note_on,120,0,2,,,,,,,,,1,,,75,0
244350,note_on,0,0,3,,,,,,,,,2,,,61,75
244350,note_on,0,0,3,,,,,,,,,2,,,55,75
244350,note_on,120,0,3,,,,,,,,,2,,,39,0
244350,note_on,0,0,3,,,,,,,,,2,,,51,75
244350,note_on,60,0,1,,,,,,,,,0,,,87,0
244350,note_on,0,0,1,,,,,,,,,0,,,79,88
244350,note_on,0,0,2,,,,,,,,,1,,,79,75
244362,note_on,0,0,3,,,,,,,,,2,,,55,0
244362,note_on,0,0,3,,,,,,,,,2,,,51,0
244362,note_on,12,0,3,,,,,,,,,2,,,61,0
244410,note_on,60,0,1,,,,,,,,,0,,,79,0
244410,note_on,0,0,1,,,,,,,,,0,,,87,88
244470,note_on,108,0,3,,,,,,,,,2,,,51,75
244470,note_on,0,0,3,,,,,,,,,2,,,55,75
244470,note_on,0,0,3,,,,,,,,,2,,,61,75
244470,note_on,120,0,2,,,,,,,,,1,,,79,0
244470,note_on,0,0,2,,,,,,,,,1,,,84,75
244470,note_on,60,0,1,,,,,,,,,0,,,87,0
244470,note_on,0,0,1,,,,,,,,,0,,,84,88
244482,note_on,0,0,3,,,,,,,,,2,,,51,0
244482,note_on,12,0,3,,,,,,,,,2,,,61,0
244482,note_on,0,0,3,,,,,,,,,2,,,55,0
244530,note_on,0,0,2,,,,,,,,,1,,,82,75
244530,note_on,60,0,1,,,,,,,,,0,,,84,0
244530,note_on,0,0,1,,,,,,,,,0,,,82,88
244530,note_on,60,0,2,,,,,,,,,1,,,84,0
244590,note_on,108,0,3,,,,,,,,,2,,,44,75
244590,note_on,0,0,1,,,,,,,,,0,,,80,88
244590,note_on,0,0,2,,,,,,,,,1,,,80,75
244590,note_on,60,0,1,,,,,,,,,0,,,82,0
244590,note_on,60,0,2,,,,,,,,,1,,,82,0
244650,note_on,0,0,1,,,,,,,,,0,,,87,88
244650,note_on,60,0,1,,,,,,,,,0,,,80,0
244710,note_on,60,0,1,,,,,,,,,0,,,87,0
244710,note_on,0,0,1,,,,,,,,,0,,,75,88
244710,note_on,0,0,3,,,,,,,,,2,,,60,75
244710,note_on,0,0,2,,,,,,,,,1,,,75,75
244710,note_on,0,0,3,,,,,,,,,2,,,56,75
244710,note_on,120,0,3,,,,,,,,,2,,,44,0
244710,note_on,0,0,3,,,,,,,,,2,,,51,75
244710,note_on,120,0,2,,,,,,,,,1,,,80,0
244722,note_on,0,0,3,,,,,,,,,2,,,51,0
244722,note_on,0,0,3,,,,,,,,,2,,,56,0
244722,note_on,12,0,3,,,,,,,,,2,,,60,0
244770,note_on,0,0,1,,,,,,,,,0,,,87,88
244770,note_on,60,0,1,,,,,,,,,0,,,75,0
244830,note_on,0,0,3,,,,,,,,,2,,,56,75
244830,note_on,108,0,3,,,,,,,,,2,,,51,75
244830,note_on,0,0,3,,,,,,,,,2,,,60,75
244830,note_on,0,0,2,,,,,,,,,1,,,80,75
244830,note_on,0,0,1,,,,,,,,,0,,,80,88
244830,note_on,60,0,1,,,,,,,,,0,,,87,0
244830,note_on,120,0,2,,,,,,,,,1,,,75,0
244842,note_on,0,0,3,,,,,,,,,2,,,56,0
244842,note_on,12,0,3,,,,,,,,,2,,,60,0
244842,note_on,0,0,3,,,,,,,,,2,,,51,0
244890,note_on,0,0,1,,,,,,,,,0,,,87,88
244890,note_on,60,0,1,,,,,,,,,0,,,80,0
244950,note_on,0,0,1,,,,,,,,,0,,,82,88
244950,note_on,60,0,1,,,,,,,,,0,,,87,0
244950,note_on,0,0,2,,,,,,,,,1,,,82,75
244950,note_on,120,0,2,,,,,,,,,1,,,80,0
244950,note_on,108,0,3,,,,,,,,,2,,,51,75
244950,note_on,0,0,3,,,,,,,,,2,,,55,75
244950,note_on,0,0,3,,,,,,,,,2,,,61,75
245010,note_on,60,0,1,,,,,,,,,0,,,82,0
245010,note_on,0,0,1,,,,,,,,,0,,,87,88
245070,note_on,0,0,3,,,,,,,,,2,,,63,75
245070,note_on,0,0,3,,,,,,,,,2,,,55,75
245070,note_on,0,0,3,,,,,,,,,2,,,51,75
245070,note_on,0,0,3,,,,,,,,,2,,,51,0
245070,note_on,0,0,3,,,,,,,,,2,,,55,0
245070,note_on,120,0,3,,,,,,,,,2,,,61,0
245070,note_on,0,0,2,,,,,,,,,1,,,84,75
245070,note_on,120,0,2,,,,,,,,,1,,,82,0
245070,note_on,60,0,1,,,,,,,,,0,,,87,0
245070,note_on,0,0,1,,,,,,,,,0,,,84,88
245130,note_on,60,0,1,,,,,,,,,0,,,84,0
245130,note_on,0,0,1,,,,,,,,,0,,,87,88
245190,note_on,120,0,3,,,,,,,,,2,,,63,0
245190,note_on,0,0,2,,,,,,,,,1,,,82,75
245190,note_on,0,0,1,,,,,,,,,0,,,82,88
245190,note_on,120,0,2,,,,,,,,,1,,,84,0
245190,note_on,0,0,3,,,,,,,,,2,,,55,0
245190,note_on,60,0,1,,,,,,,,,0,,,87,0
245190,note_on,0,0,3,,,,,,,,,2,,,51,75
245190,note_on,0,0,3,,,,,,,,,2,,,55,75
245190,note_on,0,0,3,,,,,,,,,2,,,61,75
245190,note_on,0,0,3,,,,,,,,,2,,,51,0
245250,note_on,60,0,1,,,,,,,,,0,,,82,0
245250,note_on,0,0,1,,,,,,,,,0,,,87,88
245310,time_signature,2520,1,0,2,4,24,8,,,,,,,,,
245310,note_on,120,0,2,,,,,,,,,1,,,82,0
245310,note_on,0,0,2,,,,,,,,,1,,,80,75
245310,note_on,0,0,3,,,,,,,,,2,,,51,0
245310,note_on,60,0,1,,,,,,,,,0,,,87,0
245310,note_on,0,0,3,,,,,,,,,2,,,44,75
245310,note_on,0,0,3,,,,,,,,,2,,,55,0
245310,note_on,120,0,3,,,,,,,,,2,,,61,0
245310,note_on,0,0,1,,,,,,,,,0,,,80,88
245430,note_on,120,0,3,,,,,,,,,2,,,44,0
245430,note_on,0,0,3,,,,,,,,,2,,,51,75
245430,note_on,0,0,3,,,,,,,,,2,,,56,75
245430,note_on,0,0,3,,,,,,,,,2,,,60,75
245550,note_on,0,0,1,,,,,,,,,0,,,80,49
245550,note_on,240,0,1,,,,,,,,,0,,,80,0
245550,note_on,240,0,2,,,,,,,,,1,,,80,0
245550,note_on,0,0,3,,,,,,,,,2,,,56,0
245550,note_on,0,0,3,,,,,,,,,2,,,51,0
245550,note_on,120,0,3,,,,,,,,,2,,,60,0
245550,time_signature,240,1,0,1,4,24,8,,,,,,,,,
245610,note_on,60,0,1,,,,,,,,,0,,,80,0
245610,note_on,0,0,1,,,,,,,,,0,,,82,49
245670,note_on,120,0,3,,,,,,,,,2,,,56,36
245670,time_signature,120,1,0,3,4,24,8,,,,,,,,,
245670,note_on,0,0,1,,,,,,,,,0,,,84,49
245670,note_on,60,0,1,,,,,,,,,0,,,82,0
245670,note_on,0,0,1,,,,,,,,,0,,,72,49
245790,note_on,120,0,3,,,,,,,,,2,,,56,0
245790,note_on,0,0,3,,,,,,,,,2,,,60,36
245790,note_on,0,0,3,,,,,,,,,2,,,63,36
245790,note_on,0,0,3,,,,,,,,,2,,,68,36
245802,note_on,0,0,3,,,,,,,,,2,,,60,0
245802,note_on,12,0,3,,,,,,,,,2,,,68,0
245802,note_on,0,0,3,,,,,,,,,2,,,63,0
245850,note_on,0,0,1,,,,,,,,,0,,,84,49
245850,note_on,0,0,1,,,,,,,,,0,,,72,0
245850,note_on,180,0,1,,,,,,,,,0,,,84,0
245850,note_on,0,0,1,,,,,,,,,0,,,72,49
245910,note_on,0,0,1,,,,,,,,,0,,,72,0
245910,note_on,0,0,1,,,,,,,,,0,,,72,49
245910,note_on,0,0,1,,,,,,,,,0,,,84,49
245910,note_on,0,0,3,,,,,,,,,2,,,63,36
245910,note_on,0,0,3,,,,,,,,,2,,,68,36
245910,note_on,108,0,3,,,,,,,,,2,,,60,36
245910,note_on,60,0,1,,,,,,,,,0,,,84,0
245922,note_on,12,0,3,,,,,,,,,2,,,68,0
245922,note_on,0,0,3,,,,,,,,,2,,,63,0
245922,note_on,0,0,3,,,,,,,,,2,,,60,0
246030,note_on,0,0,1,,,,,,,,,0,,,72,0
246030,note_on,0,0,1,,,,,,,,,0,,,73,67
246030,note_on,0,0,1,,,,,,,,,0,,,85,75
246030,note_on,108,0,3,,,,,,,,,2,,,58,36
246030,note_on,120,0,1,,,,,,,,,0,,,84,0
246150,note_on,120,0,3,,,,,,,,,2,,,58,0
246150,note_on,0,0,3,,,,,,,,,2,,,61,36
246150,note_on,0,0,3,,,,,,,,,2,,,63,36
246150,note_on,0,0,3,,,,,,,,,2,,,67,36
246162,note_on,0,0,3,,,,,,,,,2,,,61,0
246162,note_on,12,0,3,,,,,,,,,2,,,67,0
246162,note_on,0,0,3,,,,,,,,,2,,,63,0
246270,note_on,0,0,1,,,,,,,,,0,,,73,49
246270,note_on,0,0,1,,,,,,,,,0,,,73,0
246270,note_on,240,0,1,,,,,,,,,0,,,85,0
246270,note_on,108,0,3,,,,,,,,,2,,,61,36
246270,note_on,0,0,3,,,,,,,,,2,,,63,36
246270,note_on,0,0,3,,,,,,,,,2,,,67,36
246270,note_on,0,0,1,,,,,,,,,0,,,85,49
246282,note_on,12,0,3,,,,,,,,,2,,,67,0
246282,note_on,0,0,3,,,,,,,,,2,,,61,0
246282,note_on,0,0,3,,,,,,,,,2,,,63,0
246330,note_on,60,0,1,,,,,,,,,0,,,85,0
246330,note_on,0,0,1,,,,,,,,,0,,,73,0
246330,note_on,0,0,1,,,,,,,,,0,,,72,49
246330,note_on,0,0,1,,,,,,,,,0,,,84,49
246390,note_on,0,0,1,,,,,,,,,0,,,82,49
246390,note_on,0,0,1,,,,,,,,,0,,,70,49
246390,note_on,0,0,1,,,,,,,,,0,,,72,0
246390,note_on,60,0,1,,,,,,,,,0,,,84,0
246390,note_on,108,0,3,,,,,,,,,2,,,51,36
246510,note_on,0,0,3,,,,,,,,,2,,,67,36
246510,note_on,0,0,3,,,,,,,,,2,,,63,36
246510,note_on,0,0,3,,,,,,,,,2,,,61,36
246510,note_on,120,0,3,,,,,,,,,2,,,51,0
246522,note_on,0,0,3,,,,,,,,,2,,,61,0
246522,note_on,12,0,3,,,,,,,,,2,,,67,0
246522,note_on,0,0,3,,,,,,,,,2,,,63,0
246570,note_on,0,0,1,,,,,,,,,0,,,70,0
246570,note_on,0,0,1,,,,,,,,,0,,,82,49
246570,note_on,0,0,1,,,,,,,,,0,,,70,49
246570,note_on,180,0,1,,,,,,,,,0,,,82,0
246630,note_on,0,0,3,,,,,,,,,2,,,63,36
246630,note_on,0,0,3,,,,,,,,,2,,,67,36
246630,note_on,108,0,3,,,,,,,,,2,,,61,36
246630,note_on,0,0,1,,,,,,,,,0,,,82,49
246630,note_on,60,0,1,,,,,,,,,0,,,82,0
246630,note_on,0,0,1,,,,,,,,,0,,,70,0
246630,note_on,0,0,1,,,,,,,,,0,,,70,49
246642,note_on,12,0,3,,,,,,,,,2,,,67,0
246642,note_on,0,0,3,,,,,,,,,2,,,63,0
246642,note_on,0,0,3,,,,,,,,,2,,,61,0
246750,note_on,0,0,1,,,,,,,,,0,,,72,67
246750,note_on,108,0,3,,,,,,,,,2,,,56,36
246750,note_on,0,0,1,,,,,,,,,0,,,70,0
246750,note_on,120,0,1,,,,,,,,,0,,,82,0
246750,note_on,0,0,1,,,,,,,,,0,,,84,75
246870,note_on,0,0,3,,,,,,,,,2,,,68,36
246870,note_on,0,0,3,,,,,,,,,2,,,63,36
246870,note_on,0,0,3,,,,,,,,,2,,,60,36
246870,note_on,120,0,3,,,,,,,,,2,,,56,0
246882,note_on,12,0,3,,,,,,,,,2,,,68,0
246882,note_on,0,0,3,,,,,,,,,2,,,60,0
246882,note_on,0,0,3,,,,,,,,,2,,,63,0
246990,note_on,240,0,1,,,,,,,,,0,,,84,0
246990,note_on,0,0,1,,,,,,,,,0,,,72,0
246990,note_on,0,0,1,,,,,,,,,0,,,84,49
246990,note_on,0,0,3,,,,,,,,,2,,,68,36
246990,note_on,0,0,3,,,,,,,,,2,,,63,36
246990,note_on,108,0,3,,,,,,,,,2,,,60,36
247002,note_on,0,0,3,,,,,,,,,2,,,63,0
247002,note_on,12,0,3,,,,,,,,,2,,,68,0
247002,note_on,0,0,3,,,,,,,,,2,,,60,0
247050,note_on,60,0,1,,,,,,,,,0,,,84,0
247050,note_on,0,0,1,,,,,,,,,0,,,85,49
247110,note_on,60,0,1,,,,,,,,,0,,,85,0
247110,note_on,0,0,1,,,,,,,,,0,,,75,49
247110,note_on,0,0,1,,,,,,,,,0,,,87,49
247110,note_on,247110,0,4,,,,,,,,,3,,,60,36
247230,note_on,0,0,3,,,,,,,,,2,,,68,36
247230,note_on,228,0,3,,,,,,,,,2,,,63,36
247242,note_on,12,0,3,,,,,,,,,2,,,68,0
247242,note_on,0,0,3,,,,,,,,,2,,,63,0
247290,note_on,180,0,1,,,,,,,,,0,,,87,0
247290,note_on,0,0,1,,,,,,,,,0,,,75,0
247290,note_on,0,0,1,,,,,,,,,0,,,87,49
247290,note_on,0,0,1,,,,,,,,,0,,,75,49
247350,note_on,60,0,1,,,,,,,,,0,,,87,0
247350,note_on,0,0,1,,,,,,,,,0,,,75,0
247350,note_on,108,0,3,,,,,,,,,2,,,63,36
247350,note_on,0,0,1,,,,,,,,,0,,,87,49
247350,note_on,0,0,1,,,,,,,,,0,,,75,49
247350,note_on,0,0,3,,,,,,,,,2,,,68,36
247362,note_on,12,0,3,,,,,,,,,2,,,68,0
247362,note_on,0,0,3,,,,,,,,,2,,,63,0
247470,note_on,360,0,4,,,,,,,,,3,,,60,0
247470,note_on,0,0,1,,,,,,,,,0,,,77,49
247470,note_on,120,0,1,,,,,,,,,0,,,87,0
247470,note_on,0,0,4,,,,,,,,,3,,,59,36
247470,note_on,0,0,1,,,,,,,,,0,,,89,49
247470,note_on,0,0,1,,,,,,,,,0,,,75,0
247590,note_on,0,0,3,,,,,,,,,2,,,68,36
247590,note_on,228,0,3,,,,,,,,,2,,,62,36
247602,note_on,12,0,3,,,,,,,,,2,,,68,0
247602,note_on,0,0,3,,,,,,,,,2,,,62,0
247650,note_on,180,0,1,,,,,,,,,0,,,89,0
247650,note_on,0,0,1,,,,,,,,,0,,,77,0
247650,note_on,0,0,1,,,,,,,,,0,,,91,62
247650,note_on,0,0,1,,,,,,,,,0,,,79,62
247710,note_on,0,0,3,,,,,,,,,2,,,68,62
247710,note_on,108,0,3,,,,,,,,,2,,,62,62
247710,note_on,0,0,1,,,,,,,,,0,,,92,75
247710,note_on,0,0,1,,,,,,,,,0,,,80,75
247710,note_on,0,0,1,,,,,,,,,0,,,79,0
247710,note_on,60,0,1,,,,,,,,,0,,,91,0
247722,note_on,0,0,3,,,,,,,,,2,,,62,0
247722,note_on,12,0,3,,,,,,,,,2,,,68,0
247770,note_on,0,0,1,,,,,,,,,0,,,93,88
247770,note_on,0,0,1,,,,,,,,,0,,,81,88
247770,note_on,0,0,1,,,,,,,,,0,,,80,0
247770,note_on,60,0,1,,,,,,,,,0,,,92,0
247830,note_on,0,0,4,,,,,,,,,3,,,58,62
247830,note_on,360,0,4,,,,,,,,,3,,,59,0
247830,note_on,0,0,1,,,,,,,,,0,,,81,0
247830,note_on,0,0,1,,,,,,,,,0,,,94,88
247830,note_on,60,0,1,,,,,,,,,0,,,93,0
247830,note_on,0,0,1,,,,,,,,,0,,,82,88
247950,note_on,228,0,3,,,,,,,,,2,,,62,62
247950,note_on,0,0,3,,,,,,,,,2,,,68,62
247962,note_on,12,0,3,,,,,,,,,2,,,68,0
247962,note_on,0,0,3,,,,,,,,,2,,,62,0
248010,note_on,0,0,1,,,,,,,,,0,,,82,49
248010,note_on,0,0,1,,,,,,,,,0,,,82,0
248010,note_on,0,0,1,,,,,,,,,0,,,94,49
248010,note_on,180,0,1,,,,,,,,,0,,,94,0
248070,note_on,60,0,1,,,,,,,,,0,,,94,0
248070,note_on,0,0,3,,,,,,,,,2,,,68,36
248070,note_on,0,0,1,,,,,,,,,0,,,82,0
248070,note_on,0,0,1,,,,,,,,,0,,,82,49
248070,note_on,0,0,1,,,,,,,,,0,,,94,49
248070,note_on,108,0,3,,,,,,,,,2,,,62,36
248082,note_on,0,0,3,,,,,,,,,2,,,62,0
248082,note_on,12,0,3,,,,,,,,,2,,,68,0
248190,note_on,0,0,1,,,,,,,,,0,,,75,49
248190,note_on,120,0,1,,,,,,,,,0,,,94,0
248190,note_on,0,0,1,,,,,,,,,0,,,82,0
248190,note_on,0,0,1,,,,,,,,,0,,,87,49
248190,time_signature,2520,1,0,2,4,24,8,,,,,,,,,
248190,note_on,0,0,3,,,,,,,,,2,,,67,36
248190,note_on,360,0,4,,,,,,,,,3,,,58,0
248190,note_on,108,0,3,,,,,,,,,2,,,63,36
248430,note_on,0,0,1,,,,,,,,,0,,,75,0
248430,note_on,0,0,1,,,,,,,,,0,,,80,49
248430,time_signature,240,1,0,1,4,24,8,,,,,,,,,
248430,note_on,0,0,3,,,,,,,,,2,,,63,0
248430,note_on,240,0,3,,,,,,,,,2,,,67,0
248430,note_on,240,0,1,,,,,,,,,0,,,87,0
248490,note_on,0,0,1,,,,,,,,,0,,,82,49
248490,note_on,60,0,1,,,,,,,,,0,,,80,0
248550,note_on,0,0,1,,,,,,,,,0,,,84,49
248550,note_on,0,0,1,,,,,,,,,0,,,72,49
248550,note_on,60,0,1,,,,,,,,,0,,,82,0
248550,time_signature,120,1,0,3,4,24,8,,,,,,,,,
248550,note_on,120,0,3,,,,,,,,,2,,,56,36
248670,note_on,0,0,3,,,,,,,,,2,,,60,36
248670,note_on,120,0,3,,,,,,,,,2,,,56,0
248670,note_on,0,0,3,,,,,,,,,2,,,68,36
248670,note_on,0,0,3,,,,,,,,,2,,,63,36
248682,note_on,0,0,3,,,,,,,,,2,,,63,0
248682,note_on,12,0,3,,,,,,,,,2,,,68,0
248682,note_on,0,0,3,,,,,,,,,2,,,60,0
248730,note_on,180,0,1,,,,,,,,,0,,,84,0
248730,note_on,0,0,1,,,,,,,,,0,,,72,0
248730,note_on,0,0,1,,,,,,,,,0,,,72,49
248730,note_on,0,0,1,,,,,,,,,0,,,84,49
248790,note_on,108,0,3,,,,,,,,,2,,,60,36
248790,note_on,0,0,1,,,,,,,,,0,,,72,0
248790,note_on,0,0,3,,,,,,,,,2,,,63,36
248790,note_on,0,0,3,,,,,,,,,2,,,68,36
248790,note_on,60,0,1,,,,,,,,,0,,,84,0
248790,note_on,0,0,1,,,,,,,,,0,,,72,49
248790,note_on,0,0,1,,,,,,,,,0,,,84,49
248802,note_on,0,0,3,,,,,,,,,2,,,60,0
248802,note_on,12,0,3,,,,,,,,,2,,,68,0
248802,note_on,0,0,3,,,,,,,,,2,,,63,0
248910,note_on,108,0,3,,,,,,,,,2,,,58,36
248910,note_on,120,0,1,,,,,,,,,0,,,84,0
248910,note_on,0,0,1,,,,,,,,,0,,,85,75
248910,note_on,0,0,1,,,,,,,,,0,,,73,67
248910,note_on,0,0,1,,,,,,,,,0,,,72,0
249030,note_on,0,0,3,,,,,,,,,2,,,67,36
249030,note_on,0,0,3,,,,,,,,,2,,,63,36
249030,note_on,0,0,3,,,,,,,,,2,,,61,36
249030,note_on,120,0,3,,,,,,,,,2,,,58,0
249042,note_on,0,0,3,,,,,,,,,2,,,63,0
249042,note_on,12,0,3,,,,,,,,,2,,,67,0
249042,note_on,0,0,3,,,,,,,,,2,,,61,0
249150,note_on,108,0,3,,,,,,,,,2,,,61,36
249150,note_on,0,0,3,,,,,,,,,2,,,63,36
249150,note_on,0,0,3,,,,,,,,,2,,,67,36
249150,note_on,240,0,1,,,,,,,,,0,,,85,0
249150,note_on,0,0,1,,,,,,,,,0,,,73,0
249150,note_on,0,0,1,,,,,,,,,0,,,73,49
249150,note_on,0,0,1,,,,,,,,,0,,,85,49
249162,note_on,12,0,3,,,,,,,,,2,,,67,0
249162,note_on,0,0,3,,,,,,,,,2,,,63,0
249162,note_on,0,0,3,,,,,,,,,2,,,61,0
249210,note_on,0,0,1,,,,,,,,,0,,,73,0
249210,note_on,0,0,1,,,,,,,,,0,,,84,49
249210,note_on,0,0,1,,,,,,,,,0,,,72,49
249210,note_on,60,0,1,,,,,,,,,0,,,85,0
249270,note_on,0,0,1,,,,,,,,,0,,,82,49
249270,note_on,0,0,1,,,,,,,,,0,,,70,49
249270,note_on,0,0,1,,,,,,,,,0,,,72,0
249270,note_on,60,0,1,,,,,,,,,0,,,84,0
249270,note_on,108,0,3,,,,,,,,,2,,,51,36
249390,note_on,0,0,3,,,,,,,,,2,,,63,36
249390,note_on,0,0,3,,,,,,,,,2,,,61,36
249390,note_on,120,0,3,,,,,,,,,2,,,51,0
249390,note_on,0,0,3,,,,,,,,,2,,,67,36
249402,note_on,12,0,3,,,,,,,,,2,,,67,0
249402,note_on,0,0,3,,,,,,,,,2,,,63,0
249402,note_on,0,0,3,,,,,,,,,2,,,61,0
249450,note_on,0,0,1,,,,,,,,,0,,,70,0
249450,note_on,180,0,1,,,,,,,,,0,,,82,0
249450,note_on,0,0,1,,,,,,,,,0,,,82,49
249450,note_on,0,0,1,,,,,,,,,0,,,70,49
249510,note_on,0,0,3,,,,,,,,,2,,,63,36
249510,note_on,0,0,3,,,,,,,,,2,,,67,36
249510,note_on,60,0,1,,,,,,,,,0,,,82,0
249510,note_on,0,0,1,,,,,,,,,0,,,70,0
249510,note_on,0,0,1,,,,,,,,,0,,,70,49
249510,note_on,0,0,1,,,,,,,,,0,,,82,49
249510,note_on,108,0,3,,,,,,,,,2,,,61,36
249522,note_on,12,0,3,,,,,,,,,2,,,67,0
249522,note_on,0,0,3,,,,,,,,,2,,,61,0
249522,note_on,0,0,3,,,,,,,,,2,,,63,0
249630,note_on,108,0,3,,,,,,,,,2,,,56,36
249630,note_on,120,0,1,,,,,,,,,0,,,82,0
249630,note_on,0,0,1,,,,,,,,,0,,,70,0
249630,note_on,0,0,1,,,,,,,,,0,,,72,67
249630,note_on,0,0,1,,,,,,,,,0,,,84,75
249750,note_on,120,0,3,,,,,,,,,2,,,56,0
249750,note_on,0,0,3,,,,,,,,,2,,,60,36
249750,note_on,0,0,3,,,,,,,,,2,,,68,36
249750,note_on,0,0,3,,,,,,,,,2,,,63,36
249762,note_on,12,0,3,,,,,,,,,2,,,68,0
249762,note_on,0,0,3,,,,,,,,,2,,,63,0
249762,note_on,0,0,3,,,,,,,,,2,,,60,0
249870,note_on,108,0,3,,,,,,,,,2,,,60,36
249870,note_on,0,0,3,,,,,,,,,2,,,63,36
249870,note_on,0,0,3,,,,,,,,,2,,,68,36
249870,note_on,240,0,1,,,,,,,,,0,,,84,0
249870,note_on,0,0,1,,,,,,,,,0,,,72,0
249870,note_on,0,0,1,,,,,,,,,0,,,84,49
249882,note_on,0,0,3,,,,,,,,,2,,,63,0
249882,note_on,0,0,3,,,,,,,,,2,,,60,0
249882,note_on,12,0,3,,,,,,,,,2,,,68,0
249930,note_on,60,0,1,,,,,,,,,0,,,84,0
249930,note_on,0,0,1,,,,,,,,,0,,,85,49
249990,note_on,1800,0,4,,,,,,,,,3,,,60,36
249990,note_on,60,0,1,,,,,,,,,0,,,85,0
249990,note_on,0,0,1,,,,,,,,,0,,,87,49
249990,note_on,0,0,1,,,,,,,,,0,,,75,49
250110,note_on,228,0,3,,,,,,,,,2,,,63,36
250110,note_on,0,0,3,,,,,,,,,2,,,68,36
250122,note_on,0,0,3,,,,,,,,,2,,,63,0
250122,note_on,12,0,3,,,,,,,,,2,,,68,0
250170,note_on,0,0,1,,,,,,,,,0,,,75,0
250170,note_on,180,0,1,,,,,,,,,0,,,87,0
250170,note_on,0,0,1,,,,,,,,,0,,,87,49
250170,note_on,0,0,1,,,,,,,,,0,,,75,49
250230,note_on,0,0,1,,,,,,,,,0,,,75,0
250230,note_on,0,0,1,,,,,,,,,0,,,75,49
250230,note_on,0,0,1,,,,,,,,,0,,,87,49
250230,note_on,60,0,1,,,,,,,,,0,,,87,0
250230,note_on,0,0,3,,,,,,,,,2,,,68,36
250230,note_on,108,0,3,,,,,,,,,2,,,63,36
250242,note_on,12,0,3,,,,,,,,,2,,,68,0
250242,note_on,0,0,3,,,,,,,,,2,,,63,0
250350,note_on,0,0,4,,,,,,,,,3,,,59,36
250350,note_on,360,0,4,,,,,,,,,3,,,60,0
250350,note_on,120,0,1,,,,,,,,,0,,,87,0
250350,note_on,0,0,1,,,,,,,,,0,,,89,49
250350,note_on,0,0,1,,,,,,,,,0,,,77,49
250350,note_on,0,0,1,,,,,,,,,0,,,75,0
250470,note_on,0,0,3,,,,,,,,,2,,,68,36
250470,note_on,228,0,3,,,,,,,,,2,,,62,36
250482,note_on,12,0,3,,,,,,,,,2,,,68,0
250482,note_on,0,0,3,,,,,,,,,2,,,62,0
250530,note_on,0,0,1,,,,,,,,,0,,,91,62
250530,note_on,0,0,1,,,,,,,,,0,,,77,0
250530,note_on,180,0,1,,,,,,,,,0,,,89,0
250530,note_on,0,0,1,,,,,,,,,0,,,79,62
250590,note_on,108,0,3,,,,,,,,,2,,,62,62
250590,note_on,0,0,1,,,,,,,,,0,,,92,75
250590,note_on,60,0,1,,,,,,,,,0,,,91,0
250590,note_on,0,0,1,,,,,,,,,0,,,79,0
250590,note_on,0,0,1,,,,,,,,,0,,,80,75
250590,note_on,0,0,3,,,,,,,,,2,,,68,62
250602,note_on,0,0,3,,,,,,,,,2,,,62,0
250602,note_on,12,0,3,,,,,,,,,2,,,68,0
250650,note_on,0,0,1,,,,,,,,,0,,,81,88
250650,note_on,0,0,1,,,,,,,,,0,,,93,88
250650,note_on,0,0,1,,,,,,,,,0,,,80,0
250650,note_on,60,0,1,,,,,,,,,0,,,92,0
250710,note_on,0,0,1,,,,,,,,,0,,,94,88
250710,note_on,0,0,1,,,,,,,,,0,,,82,88
250710,note_on,0,0,1,,,,,,,,,0,,,81,0
250710,note_on,360,0,4,,,,,,,,,3,,,59,0
250710,note_on,0,0,4,,,,,,,,,3,,,58,62
250710,note_on,60,0,1,,,,,,,,,0,,,93,0
250830,note_on,0,0,3,,,,,,,,,2,,,68,62
250830,note_on,228,0,3,,,,,,,,,2,,,62,62
250842,note_on,12,0,3,,,,,,,,,2,,,68,0
250842,note_on,0,0,3,,,,,,,,,2,,,62,0
250890,note_on,180,0,1,,,,,,,,,0,,,94,0
250890,note_on,0,0,1,,,,,,,,,0,,,82,0
250890,note_on,0,0,1,,,,,,,,,0,,,82,49
250890,note_on,0,0,1,,,,,,,,,0,,,94,49
250950,note_on,0,0,3,,,,,,,,,2,,,68,36
250950,note_on,60,0,1,,,,,,,,,0,,,94,0
250950,note_on,0,0,1,,,,,,,,,0,,,82,0
250950,note_on,108,0,3,,,,,,,,,2,,,62,36
250950,note_on,0,0,1,,,,,,,,,0,,,82,49
250950,note_on,0,0,1,,,,,,,,,0,,,94,49
250962,note_on,0,0,3,,,,,,,,,2,,,62,0
250962,note_on,12,0,3,,,,,,,,,2,,,68,0
251070,note_on,108,0,3,,,,,,,,,2,,,63,36
251070,note_on,360,0,4,,,,,,,,,3,,,58,0
251070,time_signature,2520,1,0,2,4,24,8,,,,,,,,,
251070,note_on,0,0,1,,,,,,,,,0,,,87,49
251070,note_on,0,0,1,,,,,,,,,0,,,75,49
251070,note_on,0,0,1,,,,,,,,,0,,,82,0
251070,note_on,120,0,1,,,,,,,,,0,,,94,0
251070,note_on,0,0,3,,,,,,,,,2,,,67,36
251310,note_on,0,0,1,,,,,,,,,0,,,75,88
251310,note_on,0,0,3,,,,,,,,,2,,,63,0
251310,note_on,240,0,3,,,,,,,,,2,,,67,0
251310,time_signature,240,1,0,1,4,24,8,,,,,,,,,
251310,note_on,0,0,1,,,,,,,,,0,,,75,0
251310,note_on,240,0,1,,,,,,,,,0,,,87,0
251430,note_on,120,0,3,,,,,,,,,2,,,51,75
251430,note_on,0,0,1,,,,,,,,,0,,,73,109
251430,time_signature,120,1,0,3,4,24,8,,,,,,,,,
251430,note_on,120,0,1,,,,,,,,,0,,,75,0
251430,note_on,0,0,1,,,,,,,,,0,,,67,104
251430,note_on,0,0,1,,,,,,,,,0,,,77,114
251550,note_on,0,0,3,,,,,,,,,2,,,58,75
251550,note_on,0,0,3,,,,,,,,,2,,,63,75
251550,note_on,120,0,3,,,,,,,,,2,,,51,0
251562,note_on,12,0,3,,,,,,,,,2,,,63,0
251562,note_on,0,0,3,,,,,,,,,2,,,58,0
251610,note_on,0,0,1,,,,,,,,,0,,,73,0
251610,note_on,180,0,1,,,,,,,,,0,,,77,0
251610,note_on,0,0,1,,,,,,,,,0,,,67,88
251610,note_on,0,0,1,,,,,,,,,0,,,73,88
251610,note_on,0,0,1,,,,,,,,,0,,,77,88
251610,note_on,0,0,1,,,,,,,,,0,,,67,0
251670,note_on,0,0,1,,,,,,,,,0,,,77,88
251670,note_on,108,0,3,,,,,,,,,2,,,58,75
251670,note_on,60,0,1,,,,,,,,,0,,,77,0
251670,note_on,0,0,1,,,,,,,,,0,,,73,0
251670,note_on,0,0,1,,,,,,,,,0,,,67,0
251670,note_on,0,0,1,,,,,,,,,0,,,67,88
251670,note_on,0,0,3,,,,,,,,,2,,,63,75
251670,note_on,0,0,1,,,,,,,,,0,,,73,88
251682,note_on,0,0,3,,,,,,,,,2,,,58,0
251682,note_on,12,0,3,,,,,,,,,2,,,63,0
251790,note_on,0,0,1,,,,,,,,,0,,,67,0
251790,note_on,120,0,1,,,,,,,,,0,,,77,0
251790,note_on,108,0,3,,,,,,,,,2,,,56,75
251790,note_on,0,0,1,,,,,,,,,0,,,75,88
251790,note_on,0,0,1,,,,,,,,,0,,,72,88
251790,note_on,0,0,1,,,,,,,,,0,,,68,88
251790,note_on,0,0,1,,,,,,,,,0,,,73,0
251910,note_on,120,0,3,,,,,,,,,2,,,56,0
251910,note_on,0,0,3,,,,,,,,,2,,,60,75
251910,note_on,0,0,3,,,,,,,,,2,,,63,75
251922,note_on,0,0,3,,,,,,,,,2,,,60,0
251922,note_on,12,0,3,,,,,,,,,2,,,63,0
251970,note_on,180,0,1,,,,,,,,,0,,,75,0
251970,note_on,0,0,1,,,,,,,,,0,,,72,0
251970,note_on,0,0,1,,,,,,,,,0,,,72,88
251970,note_on,0,0,1,,,,,,,,,0,,,68,0
252030,note_on,108,0,3,,,,,,,,,2,,,60,75
252030,note_on,0,0,3,,,,,,,,,2,,,63,75
252030,note_on,0,0,3,,,,,,,,,2,,,68,75
252030,note_on,60,0,1,,,,,,,,,0,,,72,0
252030,note_on,0,0,1,,,,,,,,,0,,,75,88
252042,note_on,12,0,3,,,,,,,,,2,,,68,0
252042,note_on,0,0,3,,,,,,,,,2,,,63,0
252042,note_on,0,0,3,,,,,,,,,2,,,60,0
252090,note_on,60,0,1,,,,,,,,,0,,,75,0
252090,note_on,0,0,1,,,,,,,,,0,,,80,88
252150,note_on,60,0,1,,,,,,,,,0,,,80,0
252150,note_on,0,0,1,,,,,,,,,0,,,79,106
252150,note_on,0,0,1,,,,,,,,,0,,,85,114
252150,note_on,108,0,3,,,,,,,,,2,,,51,75
252270,note_on,0,0,3,,,,,,,,,2,,,58,75
252270,note_on,0,0,3,,,,,,,,,2,,,63,75
252270,note_on,0,0,3,,,,,,,,,2,,,67,75
252270,note_on,120,0,3,,,,,,,,,2,,,51,0
252282,note_on,0,0,3,,,,,,,,,2,,,58,0
252282,note_on,0,0,3,,,,,,,,,2,,,63,0
252282,note_on,12,0,3,,,,,,,,,2,,,67,0
252330,note_on,0,0,1,,,,,,,,,0,,,85,88
252330,note_on,180,0,1,,,,,,,,,0,,,85,0
252330,note_on,0,0,1,,,,,,,,,0,,,79,88
252330,note_on,0,0,1,,,,,,,,,0,,,79,0
252390,note_on,0,0,3,,,,,,,,,2,,,67,75
252390,note_on,0,0,3,,,,,,,,,2,,,63,75
252390,note_on,108,0,3,,,,,,,,,2,,,58,75
252390,note_on,0,0,1,,,,,,,,,0,,,85,88
252390,note_on,0,0,1,,,,,,,,,0,,,79,88
252390,note_on,60,0,1,,,,,,,,,0,,,85,0
252390,note_on,0,0,1,,,,,,,,,0,,,79,0
252402,note_on,0,0,3,,,,,,,,,2,,,58,0
252402,note_on,0,0,3,,,,,,,,,2,,,63,0
252402,note_on,12,0,3,,,,,,,,,2,,,67,0
252510,note_on,108,0,3,,,,,,,,,2,,,56,75
252510,note_on,120,0,1,,,,,,,,,0,,,85,0
252510,note_on,0,0,1,,,,,,,,,0,,,84,88
252510,note_on,0,0,1,,,,,,,,,0,,,79,0
252510,note_on,0,0,1,,,,,,,,,0,,,80,88
252570,note_on,0,0,1,,,,,,,,,0,,,75,88
252570,note_on,0,0,1,,,,,,,,,0,,,80,0
252570,note_on,60,0,1,,,,,,,,,0,,,84,0
252630,note_on,60,0,1,,,,,,,,,0,,,75,0
252630,note_on,0,0,1,,,,,,,,,0,,,72,88
252630,note_on,120,0,3,,,,,,,,,2,,,56,0
252630,note_on,0,0,3,,,,,,,,,2,,,63,75
252630,note_on,0,0,3,,,,,,,,,2,,,60,75
252630,note_on,0,0,3,,,,,,,,,2,,,68,75
252642,note_on,0,0,3,,,,,,,,,2,,,63,0
252642,note_on,0,0,3,,,,,,,,,2,,,60,0
252642,note_on,12,0,3,,,,,,,,,2,,,68,0
252690,note_on,60,0,1,,,,,,,,,0,,,72,0
252690,note_on,0,0,1,,,,,,,,,0,,,68,88
252750,note_on,60,0,1,,,,,,,,,0,,,68,0
252750,note_on,0,0,3,,,,,,,,,2,,,68,75
252750,note_on,108,0,3,,,,,,,,,2,,,60,75
252750,note_on,0,0,1,,,,,,,,,0,,,72,88
252750,note_on,0,0,3,,,,,,,,,2,,,63,75
252762,note_on,0,0,3,,,,,,,,,2,,,60,0
252762,note_on,12,0,3,,,,,,,,,2,,,68,0
252762,note_on,0,0,3,,,,,,,,,2,,,63,0
252810,note_on,60,0,1,,,,,,,,,0,,,72,0
252810,note_on,0,0,1,,,,,,,,,0,,,75,88
252870,note_on,0,0,1,,,,,,,,,0,,,73,109
252870,note_on,0,0,1,,,,,,,,,0,,,67,104
252870,note_on,0,0,1,,,,,,,,,0,,,77,114
252870,note_on,108,0,3,,,,,,,,,2,,,51,75
252870,note_on,60,0,1,,,,,,,,,0,,,75,0
252990,note_on,120,0,3,,,,,,,,,2,,,51,0
252990,note_on,0,0,3,,,,,,,,,2,,,58,75
252990,note_on,0,0,3,,,,,,,,,2,,,63,75
253002,note_on,12,0,3,,,,,,,,,2,,,63,0
253002,note_on,0,0,3,,,,,,,,,2,,,58,0
253050,note_on,0,0,1,,,,,,,,,0,,,73,0
253050,note_on,0,0,1,,,,,,,,,0,,,77,88
253050,note_on,180,0,1,,,,,,,,,0,,,77,0
253050,note_on,0,0,1,,,,,,,,,0,,,67,0
253050,note_on,0,0,1,,,,,,,,,0,,,67,88
253050,note_on,0,0,1,,,,,,,,,0,,,73,88
253110,note_on,0,0,3,,,,,,,,,2,,,63,75
253110,note_on,0,0,1,,,,,,,,,0,,,73,0
253110,note_on,108,0,3,,,,,,,,,2,,,58,75
253110,note_on,0,0,1,,,,,,,,,0,,,67,0
253110,note_on,60,0,1,,,,,,,,,0,,,77,0
253110,note_on,0,0,1,,,,,,,,,0,,,77,88
253110,note_on,0,0,1,,,,,,,,,0,,,73,88
253110,note_on,0,0,1,,,,,,,,,0,,,67,88
253122,note_on,12,0,3,,,,,,,,,2,,,63,0
253122,note_on,0,0,3,,,,,,,,,2,,,58,0
253230,note_on,0,0,1,,,,,,,,,0,,,75,88
253230,note_on,0,0,1,,,,,,,,,0,,,67,0
253230,note_on,0,0,1,,,,,,,,,0,,,73,0
253230,note_on,120,0,1,,,,,,,,,0,,,77,0
253230,note_on,108,0,3,,,,,,,,,2,,,56,75
253230,note_on,0,0,1,,,,,,,,,0,,,72,88
253230,note_on,0,0,1,,,,,,,,,0,,,68,88
253350,note_on,0,0,3,,,,,,,,,2,,,63,75
253350,note_on,120,0,3,,,,,,,,,2,,,56,0
253350,note_on,0,0,3,,,,,,,,,2,,,60,75
253362,note_on,12,0,3,,,,,,,,,2,,,63,0
253362,note_on,0,0,3,,,,,,,,,2,,,60,0
253410,note_on,180,0,1,,,,,,,,,0,,,75,0
253410,note_on,0,0,1,,,,,,,,,0,,,72,0
253410,note_on,0,0,1,,,,,,,,,0,,,68,0
253410,note_on,0,0,1,,,,,,,,,0,,,72,88
253470,note_on,60,0,1,,,,,,,,,0,,,72,0
253470,note_on,0,0,1,,,,,,,,,0,,,75,88
253470,note_on,108,0,3,,,,,,,,,2,,,60,75
253470,note_on,0,0,3,,,,,,,,,2,,,63,75
253470,note_on,0,0,3,,,,,,,,,2,,,68,75
253482,note_on,12,0,3,,,,,,,,,2,,,68,0
253482,note_on,0,0,3,,,,,,,,,2,,,63,0
253482,note_on,0,0,3,,,,,,,,,2,,,60,0
253530,note_on,60,0,1,,,,,,,,,0,,,75,0
253530,note_on,0,0,1,,,,,,,,,0,,,80,88
253590,note_on,0,0,1,,,,,,,,,0,,,79,106
253590,note_on,60,0,1,,,,,,,,,0,,,80,0
253590,note_on,0,0,1,,,,,,,,,0,,,85,114
253590,note_on,108,0,3,,,,,,,,,2,,,51,75
253710,note_on,120,0,3,,,,,,,,,2,,,51,0
253710,note_on,0,0,3,,,,,,,,,2,,,58,75
253710,note_on,0,0,3,,,,,,,,,2,,,67,75
253710,note_on,0,0,3,,,,,,,,,2,,,63,75
253722,note_on,12,0,3,,,,,,,,,2,,,67,0
253722,note_on,0,0,3,,,,,,,,,2,,,63,0
253722,note_on,0,0,3,,,,,,,,,2,,,58,0
253770,note_on,0,0,1,,,,,,,,,0,,,79,0
253770,note_on,180,0,1,,,,,,,,,0,,,85,0
253770,note_on,0,0,1,,,,,,,,,0,,,85,88
253770,note_on,0,0,1,,,,,,,,,0,,,79,88
253830,note_on,0,0,1,,,,,,,,,0,,,85,88
253830,note_on,0,0,1,,,,,,,,,0,,,79,0
253830,note_on,60,0,1,,,,,,,,,0,,,85,0
253830,note_on,8280,0,2,,,,,,,,,1,,,79,75
253830,note_on,0,0,3,,,,,,,,,2,,,63,75
253830,note_on,0,0,3,,,,,,,,,2,,,67,75
253830,note_on,108,0,3,,,,,,,,,2,,,58,75
253842,note_on,12,0,3,,,,,,,,,2,,,67,0
253842,note_on,0,0,3,,,,,,,,,2,,,63,0
253842,note_on,0,0,3,,,,,,,,,2,,,58,0
253890,note_on,60,0,1,,,,,,,,,0,,,85,0
253890,note_on,0,0,1,,,,,,,,,0,,,73,88
253950,time_signature,2520,1,0,2,4,24,8,,,,,,,,,
253950,note_on,108,0,3,,,,,,,,,2,,,56,75
253950,note_on,120,0,2,,,,,,,,,1,,,79,0
253950,note_on,0,0,1,,,,,,,,,0,,,72,88
253950,note_on,0,0,1,,,,,,,,,0,,,80,88
253950,note_on,60,0,1,,,,,,,,,0,,,73,0
254070,note_on,0,0,3,,,,,,,,,2,,,68,75
254070,note_on,0,0,3,,,,,,,,,2,,,63,75
254070,note_on,0,0,3,,,,,,,,,2,,,60,75
254070,note_on,120,0,3,,,,,,,,,2,,,56,0
254190,note_on,0,0,3,,,,,,,,,2,,,63,0
254190,note_on,0,0,1,,,,,,,,,0,,,75,88
254190,note_on,0,0,1,,,,,,,,,0,,,72,0
254190,note_on,240,0,1,,,,,,,,,0,,,80,0
254190,note_on,120,0,3,,,,,,,,,2,,,68,0
254190,note_on,0,0,3,,,,,,,,,2,,,60,0
254190,time_signature,240,1,0,1,4,24,8,,,,,,,,,
254310,note_on,120,0,1,,,,,,,,,0,,,75,0
254310,note_on,0,0,1,,,,,,,,,0,,,67,104
254310,note_on,0,0,1,,,,,,,,,0,,,77,114
254310,note_on,0,0,1,,,,,,,,,0,,,73,109
254310,time_signature,120,1,0,3,4,24,8,,,,,,,,,
254310,note_on,120,0,3,,,,,,,,,2,,,51,75
254430,note_on,0,0,3,,,,,,,,,2,,,63,75
254430,note_on,0,0,3,,,,,,,,,2,,,58,75
254430,note_on,120,0,3,,,,,,,,,2,,,51,0
254442,note_on,0,0,3,,,,,,,,,2,,,58,0
254442,note_on,12,0,3,,,,,,,,,2,,,63,0
254490,note_on,0,0,1,,,,,,,,,0,,,77,88
254490,note_on,180,0,1,,,,,,,,,0,,,77,0
254490,note_on,0,0,1,,,,,,,,,0,,,73,0
254490,note_on,0,0,1,,,,,,,,,0,,,67,0
254490,note_on,0,0,1,,,,,,,,,0,,,67,88
254490,note_on,0,0,1,,,,,,,,,0,,,73,88
254550,note_on,108,0,3,,,,,,,,,2,,,58,75
254550,note_on,0,0,1,,,,,,,,,0,,,77,88
254550,note_on,0,0,1,,,,,,,,,0,,,73,88
254550,note_on,0,0,1,,,,,,,,,0,,,67,88
254550,note_on,0,0,1,,,,,,,,,0,,,67,0
254550,note_on,0,0,3,,,,,,,,,2,,,63,75
254550,note_on,60,0,1,,,,,,,,,0,,,77,0
254550,note_on,0,0,1,,,,,,,,,0,,,73,0
254562,note_on,12,0,3,,,,,,,,,2,,,63,0
254562,note_on,0,0,3,,,,,,,,,2,,,58,0
254670,note_on,120,0,1,,,,,,,,,0,,,77,0
254670,note_on,0,0,1,,,,,,,,,0,,,73,0
254670,note_on,0,0,1,,,,,,,,,0,,,67,0
254670,note_on,0,0,1,,,,,,,,,0,,,68,88
254670,note_on,0,0,1,,,,,,,,,0,,,72,88
254670,note_on,0,0,1,,,,,,,,,0,,,75,88
254670,note_on,108,0,3,,,,,,,,,2,,,56,75
254790,note_on,0,0,3,,,,,,,,,2,,,60,75
254790,note_on,120,0,3,,,,,,,,,2,,,56,0
254790,note_on,0,0,3,,,,,,,,,2,,,63,75
254802,note_on,0,0,3,,,,,,,,,2,,,60,0
254802,note_on,12,0,3,,,,,,,,,2,,,63,0
254850,note_on,0,0,1,,,,,,,,,0,,,72,88
254850,note_on,0,0,1,,,,,,,,,0,,,68,0
254850,note_on,0,0,1,,,,,,,,,0,,,72,0
254850,note_on,180,0,1,,,,,,,,,0,,,75,0
254910,note_on,0,0,3,,,,,,,,,2,,,68,75
254910,note_on,0,0,3,,,,,,,,,2,,,63,75
254910,note_on,0,0,1,,,,,,,,,0,,,75,88
254910,note_on,108,0,3,,,,,,,,,2,,,60,75
254910,note_on,60,0,1,,,,,,,,,0,,,72,0
254922,note_on,12,0,3,,,,,,,,,2,,,68,0
254922,note_on,0,0,3,,,,,,,,,2,,,60,0
254922,note_on,0,0,3,,,,,,,,,2,,,63,0
254970,note_on,0,0,1,,,,,,,,,0,,,80,88
254970,note_on,60,0,1,,,,,,,,,0,,,75,0
255030,note_on,0,0,1,,,,,,,,,0,,,79,106
255030,note_on,60,0,1,,,,,,,,,0,,,80,0
255030,note_on,108,0,3,,,,,,,,,2,,,51,75
255030,note_on,0,0,1,,,,,,,,,0,,,85,114
255150,note_on,0,0,3,,,,,,,,,2,,,58,75
255150,note_on,0,0,3,,,,,,,,,2,,,67,75
255150,note_on,0,0,3,,,,,,,,,2,,,63,75
255150,note_on,120,0,3,,,,,,,,,2,,,51,0
255162,note_on,0,0,3,,,,,,,,,2,,,63,0
255162,note_on,0,0,3,,,,,,,,,2,,,58,0
255162,note_on,12,0,3,,,,,,,,,2,,,67,0
255210,note_on,180,0,1,,,,,,,,,0,,,85,0
255210,note_on,0,0,1,,,,,,,,,0,,,79,0
255210,note_on,0,0,1,,,,,,,,,0,,,79,88
255210,note_on,0,0,1,,,,,,,,,0,,,85,88
255270,note_on,0,0,1,,,,,,,,,0,,,79,88
255270,note_on,60,0,1,,,,,,,,,0,,,85,0
255270,note_on,0,0,3,,,,,,,,,2,,,67,75
255270,note_on,0,0,3,,,,,,,,,2,,,63,75
255270,note_on,108,0,3,,,,,,,,,2,,,58,75
255270,note_on,0,0,1,,,,,,,,,0,,,79,0
255270,note_on,0,0,1,,,,,,,,,0,,,85,88
255282,note_on,0,0,3,,,,,,,,,2,,,58,0
255282,note_on,0,0,3,,,,,,,,,2,,,63,0
255282,note_on,12,0,3,,,,,,,,,2,,,67,0
255390,note_on,0,0,1,,,,,,,,,0,,,79,0
255390,note_on,120,0,1,,,,,,,,,0,,,85,0
255390,note_on,108,0,3,,,,,,,,,2,,,56,75
255390,note_on,0,0,1,,,,,,,,,0,,,84,88
255390,note_on,0,0,1,,,,,,,,,0,,,80,88
255450,note_on,60,0,1,,,,,,,,,0,,,84,0
255450,note_on,0,0,1,,,,,,,,,0,,,80,0
255450,note_on,0,0,1,,,,,,,,,0,,,75,88
255510,note_on,0,0,3,,,,,,,,,2,,,60,75
255510,note_on,0,0,3,,,,,,,,,2,,,63,75
255510,note_on,0,0,3,,,,,,,,,2,,,68,75
255510,note_on,120,0,3,,,,,,,,,2,,,56,0
255510,note_on,0,0,1,,,,,,,,,0,,,72,88
255510,note_on,60,0,1,,,,,,,,,0,,,75,0
255522,note_on,0,0,3,,,,,,,,,2,,,63,0
255522,note_on,12,0,3,,,,,,,,,2,,,68,0
255522,note_on,0,0,3,,,,,,,,,2,,,60,0
255570,note_on,60,0,1,,,,,,,,,0,,,72,0
255570,note_on,0,0,1,,,,,,,,,0,,,68,88
255630,note_on,60,0,1,,,,,,,,,0,,,68,0
255630,note_on,0,0,1,,,,,,,,,0,,,72,88
255630,note_on,0,0,3,,,,,,,,,2,,,63,75
255630,note_on,0,0,3,,,,,,,,,2,,,68,75
255630,note_on,108,0,3,,,,,,,,,2,,,60,75
255642,note_on,12,0,3,,,,,,,,,2,,,68,0
255642,note_on,0,0,3,,,,,,,,,2,,,63,0
255642,note_on,0,0,3,,,,,,,,,2,,,60,0
255690,note_on,0,0,1,,,,,,,,,0,,,75,88
255690,note_on,60,0,1,,,,,,,,,0,,,72,0
255750,note_on,0,0,1,,,,,,,,,0,,,77,114
255750,note_on,0,0,1,,,,,,,,,0,,,73,109
255750,note_on,0,0,1,,,,,,,,,0,,,67,104
255750,note_on,60,0,1,,,,,,,,,0,,,75,0
255750,note_on,108,0,3,,,,,,,,,2,,,51,75
255870,note_on,0,0,3,,,,,,,,,2,,,63,75
255870,note_on,120,0,3,,,,,,,,,2,,,51,0
255870,note_on,0,0,3,,,,,,,,,2,,,58,75
255882,note_on,0,0,3,,,,,,,,,2,,,58,0
255882,note_on,12,0,3,,,,,,,,,2,,,63,0
255930,note_on,180,0,1,,,,,,,,,0,,,77,0
255930,note_on,0,0,1,,,,,,,,,0,,,73,0
255930,note_on,0,0,1,,,,,,,,,0,,,67,0
255930,note_on,0,0,1,,,,,,,,,0,,,67,88
255930,note_on,0,0,1,,,,,,,,,0,,,77,88
255930,note_on,0,0,1,,,,,,,,,0,,,73,88
255990,note_on,0,0,1,,,,,,,,,0,,,73,0
255990,note_on,60,0,1,,,,,,,,,0,,,77,0
255990,note_on,0,0,1,,,,,,,,,0,,,73,88
255990,note_on,0,0,1,,,,,,,,,0,,,77,88
255990,note_on,0,0,3,,,,,,,,,2,,,63,75
255990,note_on,108,0,3,,,,,,,,,2,,,58,75
255990,note_on,0,0,1,,,,,,,,,0,,,67,88
255990,note_on,0,0,1,,,,,,,,,0,,,67,0
256002,note_on,0,0,3,,,,,,,,,2,,,58,0
256002,note_on,12,0,3,,,,,,,,,2,,,63,0
256110,note_on,0,0,1,,,,,,,,,0,,,75,88
256110,note_on,120,0,1,,,,,,,,,0,,,77,0
256110,note_on,0,0,1,,,,,,,,,0,,,73,0
256110,note_on,0,0,1,,,,,,,,,0,,,67,0
256110,note_on,0,0,1,,,,,,,,,0,,,68,88
256110,note_on,0,0,1,,,,,,,,,0,,,72,88
256110,note_on,108,0,3,,,,,,,,,2,,,56,75
256230,note_on,120,0,3,,,,,,,,,2,,,56,0
256230,note_on,0,0,3,,,,,,,,,2,,,60,75
256230,note_on,0,0,3,,,,,,,,,2,,,63,75
256242,note_on,12,0,3,,,,,,,,,2,,,63,0
256242,note_on,0,0,3,,,,,,,,,2,,,60,0
256290,note_on,180,0,1,,,,,,,,,0,,,75,0
256290,note_on,0,0,1,,,,,,,,,0,,,72,0
256290,note_on,0,0,1,,,,,,,,,0,,,72,88
256290,note_on,0,0,1,,,,,,,,,0,,,68,0
256350,note_on,60,0,1,,,,,,,,,0,,,72,0
256350,note_on,0,0,1,,,,,,,,,0,,,75,88
256350,note_on,0,0,3,,,,,,,,,2,,,63,75
256350,note_on,108,0,3,,,,,,,,,2,,,60,75
256350,note_on,0,0,3,,,,,,,,,2,,,68,75
256362,note_on,0,0,3,,,,,,,,,2,,,63,0
256362,note_on,12,0,3,,,,,,,,,2,,,68,0
256362,note_on,0,0,3,,,,,,,,,2,,,60,0
256410,note_on,60,0,1,,,,,,,,,0,,,75,0
256410,note_on,0,0,1,,,,,,,,,0,,,80,88
256470,note_on,60,0,1,,,,,,,,,0,,,80,0
256470,note_on,0,0,1,,,,,,,,,0,,,79,106
256470,note_on,0,0,1,,,,,,,,,0,,,85,114
256470,note_on,108,0,3,,,,,,,,,2,,,51,75
256590,note_on,120,0,3,,,,,,,,,2,,,51,0
256590,note_on,0,0,3,,,,,,,,,2,,,63,75
256590,note_on,0,0,3,,,,,,,,,2,,,67,75
256590,note_on,0,0,3,,,,,,,,,2,,,58,75
256602,note_on,0,0,3,,,,,,,,,2,,,58,0
256602,note_on,12,0,3,,,,,,,,,2,,,67,0
256602,note_on,0,0,3,,,,,,,,,2,,,63,0
256650,note_on,0,0,1,,,,,,,,,0,,,85,88
256650,note_on,0,0,1,,,,,,,,,0,,,79,0
256650,note_on,180,0,1,,,,,,,,,0,,,85,0
256650,note_on,0,0,1,,,,,,,,,0,,,79,88
256710,note_on,108,0,3,,,,,,,,,2,,,58,75
256710,note_on,0,0,3,,,,,,,,,2,,,63,75
256710,note_on,0,0,3,,,,,,,,,2,,,67,75
256710,note_on,60,0,1,,,,,,,,,0,,,85,0
256710,note_on,0,0,1,,,,,,,,,0,,,85,88
256710,note_on,0,0,1,,,,,,,,,0,,,79,0
256710,note_on,2760,0,2,,,,,,,,,1,,,79,75
256722,note_on,0,0,3,,,,,,,,,2,,,58,0
256722,note_on,12,0,3,,,,,,,,,2,,,67,0
256722,note_on,0,0,3,,,,,,,,,2,,,63,0
256770,note_on,0,0,1,,,,,,,,,0,,,73,88
256770,note_on,60,0,1,,,,,,,,,0,,,85,0
256830,note_on,0,0,1,,,,,,,,,0,,,72,88
256830,note_on,60,0,1,,,,,,,,,0,,,73,0
256830,note_on,120,0,2,,,,,,,,,1,,,79,0
256830,note_on,0,0,1,,,,,,,,,0,,,80,88
256830,note_on,108,0,3,,,,,,,,,2,,,56,75
256830,time_signature,2520,1,0,2,4,24,8,,,,,,,,,
256950,note_on,0,0,3,,,,,,,,,2,,,68,75
256950,note_on,0,0,3,,,,,,,,,2,,,63,75
256950,note_on,0,0,3,,,,,,,,,2,,,60,75
256950,note_on,120,0,3,,,,,,,,,2,,,56,0
257070,note_on,0,0,1,,,,,,,,,0,,,72,0
257070,note_on,0,0,3,,,,,,,,,2,,,63,0
257070,note_on,120,0,3,,,,,,,,,2,,,68,0
257070,time_signature,240,1,0,1,4,24,8,,,,,,,,,
257070,note_on,0,0,3,,,,,,,,,2,,,60,0
257070,note_on,240,0,1,,,,,,,,,0,,,80,0
257070,key_signature,0,1,0,,,,,Eb,,,,,,,,
257070,note_on,0,0,1,,,,,,,,,0,,,70,49
257190,note_on,120,0,1,,,,,,,,,0,,,70,0
257190,note_on,0,0,1,,,,,,,,,0,,,67,49
257190,note_on,0,0,1,,,,,,,,,0,,,79,49
257190,time_signature,120,1,0,3,4,24,8,,,,,,,,,
257190,note_on,120,0,3,,,,,,,,,2,,,51,36
257310,note_on,0,0,3,,,,,,,,,2,,,58,36
257310,note_on,0,0,3,,,,,,,,,2,,,63,36
257310,note_on,120,0,3,,,,,,,,,2,,,51,0
257322,note_on,12,0,3,,,,,,,,,2,,,63,0
257322,note_on,0,0,3,,,,,,,,,2,,,58,0
257370,note_on,180,0,1,,,,,,,,,0,,,79,0
257370,note_on,0,0,1,,,,,,,,,0,,,67,0
257370,note_on,0,0,1,,,,,,,,,0,,,68,49
257370,note_on,0,0,1,,,,,,,,,0,,,80,49
257430,note_on,0,0,1,,,,,,,,,0,,,79,49
257430,note_on,108,0,3,,,,,,,,,2,,,58,36
257430,note_on,60,0,1,,,,,,,,,0,,,80,0
257430,note_on,0,0,1,,,,,,,,,0,,,68,0
257430,note_on,0,0,1,,,,,,,,,0,,,67,49
257430,note_on,0,0,3,,,,,,,,,2,,,63,36
257442,note_on,0,0,3,,,,,,,,,2,,,58,0
257442,note_on,12,0,3,,,,,,,,,2,,,63,0
257550,note_on,0,0,1,,,,,,,,,0,,,82,75
257550,note_on,0,0,1,,,,,,,,,0,,,67,0
257550,note_on,120,0,1,,,,,,,,,0,,,79,0
257550,note_on,0,0,1,,,,,,,,,0,,,70,67
257550,note_on,108,0,3,,,,,,,,,2,,,50,36
257670,note_on,0,0,3,,,,,,,,,2,,,68,36
257670,note_on,0,0,3,,,,,,,,,2,,,65,36
257670,note_on,0,0,3,,,,,,,,,2,,,58,36
257670,note_on,120,0,3,,,,,,,,,2,,,50,0
257682,note_on,12,0,3,,,,,,,,,2,,,68,0
257682,note_on,0,0,3,,,,,,,,,2,,,58,0
257682,note_on,0,0,3,,,,,,,,,2,,,65,0
257790,note_on,108,0,3,,,,,,,,,2,,,58,36
257790,note_on,0,0,3,,,,,,,,,2,,,65,36
257790,note_on,0,0,3,,,,,,,,,2,,,68,36
257802,note_on,0,0,3,,,,,,,,,2,,,65,0
257802,note_on,12,0,3,,,,,,,,,2,,,68,0
257802,note_on,0,0,3,,,,,,,,,2,,,58,0
257910,note_on,360,0,1,,,,,,,,,0,,,82,0
257910,note_on,0,0,1,,,,,,,,,0,,,67,49
257910,note_on,0,0,1,,,,,,,,,0,,,70,0
257910,note_on,108,0,3,,,,,,,,,2,,,51,36
257910,note_on,0,0,1,,,,,,,,,0,,,79,49
258030,note_on,120,0,3,,,,,,,,,2,,,51,0
258030,note_on,0,0,3,,,,,,,,,2,,,58,36
258030,note_on,0,0,3,,,,,,,,,2,,,63,36
258042,note_on,12,0,3,,,,,,,,,2,,,63,0
258042,note_on,0,0,3,,,,,,,,,2,,,58,0
258090,note_on,0,0,1,,,,,,,,,0,,,80,49
258090,note_on,0,0,1,,,,,,,,,0,,,68,49
258090,note_on,0,0,1,,,,,,,,,0,,,67,0
258090,note_on,180,0,1,,,,,,,,,0,,,79,0
258150,note_on,0,0,1,,,,,,,,,0,,,68,0
258150,note_on,60,0,1,,,,,,,,,0,,,80,0
258150,note_on,0,0,3,,,,,,,,,2,,,63,36
258150,note_on,108,0,3,,,,,,,,,2,,,58,36
258150,note_on,0,0,1,,,,,,,,,0,,,79,49
258150,note_on,0,0,1,,,,,,,,,0,,,67,49
258162,note_on,12,0,3,,,,,,,,,2,,,63,0
258162,note_on,0,0,3,,,,,,,,,2,,,58,0
258270,note_on,108,0,3,,,,,,,,,2,,,50,36
258270,note_on,120,0,1,,,,,,,,,0,,,79,0
258270,note_on,0,0,1,,,,,,,,,0,,,67,0
258270,note_on,0,0,1,,,,,,,,,0,,,70,67
258270,note_on,0,0,1,,,,,,,,,0,,,82,75
258390,note_on,120,0,3,,,,,,,,,2,,,50,0
258390,note_on,0,0,3,,,,,,,,,2,,,65,36
258390,note_on,0,0,3,,,,,,,,,2,,,68,36
258390,note_on,0,0,3,,,,,,,,,2,,,58,36
258402,note_on,12,0,3,,,,,,,,,2,,,68,0
258402,note_on,0,0,3,,,,,,,,,2,,,58,0
258402,note_on,0,0,3,,,,,,,,,2,,,65,0
258510,note_on,108,0,3,,,,,,,,,2,,,58,36
258510,note_on,0,0,3,,,,,,,,,2,,,65,36
258510,note_on,0,0,3,,,,,,,,,2,,,68,36
258522,note_on,0,0,3,,,,,,,,,2,,,65,0
258522,note_on,0,0,3,,,,,,,,,2,,,58,0
258522,note_on,12,0,3,,,,,,,,,2,,,68,0
258630,note_on,0,0,1,,,,,,,,,0,,,67,49
258630,note_on,108,0,3,,,,,,,,,2,,,51,36
258630,note_on,0,0,1,,,,,,,,,0,,,70,0
258630,note_on,360,0,1,,,,,,,,,0,,,82,0
258630,note_on,0,0,1,,,,,,,,,0,,,79,49
258750,note_on,0,0,3,,,,,,,,,2,,,63,36
258750,note_on,0,0,3,,,,,,,,,2,,,58,36
258750,note_on,120,0,3,,,,,,,,,2,,,51,0
258762,note_on,0,0,3,,,,,,,,,2,,,58,0
258762,note_on,12,0,3,,,,,,,,,2,,,63,0
258810,note_on,0,0,1,,,,,,,,,0,,,80,49
258810,note_on,0,0,1,,,,,,,,,0,,,68,49
258810,note_on,0,0,1,,,,,,,,,0,,,67,0
258810,note_on,180,0,1,,,,,,,,,0,,,79,0
258870,note_on,0,0,1,,,,,,,,,0,,,68,0
258870,note_on,60,0,1,,,,,,,,,0,,,80,0
258870,note_on,0,0,3,,,,,,,,,2,,,63,36
258870,note_on,0,0,1,,,,,,,,,0,,,79,49
258870,note_on,108,0,3,,,,,,,,,2,,,58,36
258870,note_on,0,0,1,,,,,,,,,0,,,67,49
258882,note_on,0,0,3,,,,,,,,,2,,,58,0
258882,note_on,12,0,3,,,,,,,,,2,,,63,0
258990,note_on,108,0,3,,,,,,,,,2,,,55,36
258990,note_on,0,0,1,,,,,,,,,0,,,94,49
258990,note_on,0,0,1,,,,,,,,,0,,,82,49
258990,note_on,0,0,1,,,,,,,,,0,,,67,0
258990,note_on,120,0,1,,,,,,,,,0,,,79,0
259110,note_on,0,0,3,,,,,,,,,2,,,63,36
259110,note_on,0,0,3,,,,,,,,,2,,,67,36
259110,note_on,120,0,3,,,,,,,,,2,,,55,0
259110,note_on,0,0,3,,,,,,,,,2,,,58,36
259122,note_on,0,0,3,,,,,,,,,2,,,58,0
259122,note_on,0,0,3,,,,,,,,,2,,,63,0
259122,note_on,12,0,3,,,,,,,,,2,,,67,0
259230,note_on,0,0,1,,,,,,,,,0,,,80,49
259230,note_on,240,0,1,,,,,,,,,0,,,94,0
259230,note_on,108,0,3,,,,,,,,,2,,,58,36
259230,note_on,0,0,3,,,,,,,,,2,,,63,36
259230,note_on,0,0,3,,,,,,,,,2,,,67,36
259230,note_on,0,0,1,,,,,,,,,0,,,92,49
259230,note_on,0,0,1,,,,,,,,,0,,,82,0
259242,note_on,12,0,3,,,,,,,,,2,,,67,0
259242,note_on,0,0,3,,,,,,,,,2,,,63,0
259242,note_on,0,0,3,,,,,,,,,2,,,58,0
259290,note_on,0,0,1,,,,,,,,,0,,,79,49
259290,note_on,0,0,1,,,,,,,,,0,,,91,49
259290,note_on,60,0,1,,,,,,,,,0,,,92,0
259290,note_on,0,0,1,,,,,,,,,0,,,80,0
259350,note_on,60,0,1,,,,,,,,,0,,,91,0
259350,note_on,108,0,3,,,,,,,,,2,,,46,36
259350,note_on,0,0,1,,,,,,,,,0,,,79,0
259350,note_on,0,0,1,,,,,,,,,0,,,79,49
259350,note_on,0,0,1,,,,,,,,,0,,,91,49
259470,note_on,120,0,3,,,,,,,,,2,,,46,0
259470,note_on,0,0,3,,,,,,,,,2,,,68,36
259470,note_on,0,0,3,,,,,,,,,2,,,58,36
259470,note_on,0,0,3,,,,,,,,,2,,,62,36
259482,note_on,12,0,3,,,,,,,,,2,,,68,0
259482,note_on,0,0,3,,,,,,,,,2,,,58,0
259482,note_on,0,0,3,,,,,,,,,2,,,62,0
259530,note_on,0,0,1,,,,,,,,,0,,,89,49
259530,note_on,0,0,1,,,,,,,,,0,,,77,49
259530,note_on,0,0,1,,,,,,,,,0,,,79,0
259530,note_on,180,0,1,,,,,,,,,0,,,91,0
259590,note_on,0,0,1,,,,,,,,,0,,,89,49
259590,note_on,60,0,1,,,,,,,,,0,,,89,0
259590,note_on,0,0,1,,,,,,,,,0,,,77,0
259590,note_on,108,0,3,,,,,,,,,2,,,58,36
259590,note_on,0,0,3,,,,,,,,,2,,,62,36
259590,note_on,0,0,3,,,,,,,,,2,,,68,36
259590,note_on,0,0,1,,,,,,,,,0,,,77,49
259602,note_on,12,0,3,,,,,,,,,2,,,68,0
259602,note_on,0,0,3,,,,,,,,,2,,,62,0
259602,note_on,0,0,3,,,,,,,,,2,,,58,0
259710,time_signature,2520,1,0,2,4,24,8,,,,,,,,,
259710,note_on,108,0,3,,,,,,,,,2,,,51,36
259710,note_on,120,0,1,,,,,,,,,0,,,89,0
259710,note_on,0,0,1,,,,,,,,,0,,,77,0
259710,note_on,0,0,1,,,,,,,,,0,,,75,49
259710,note_on,0,0,1,,,,,,,,,0,,,87,49
259830,note_on,120,0,1,,,,,,,,,0,,,87,0
259830,note_on,0,0,3,,,,,,,,,2,,,63,36
259830,note_on,0,0,3,,,,,,,,,2,,,67,36
259830,note_on,0,0,3,,,,,,,,,2,,,58,36
259830,note_on,120,0,3,,,,,,,,,2,,,51,0
259830,note_on,0,0,1,,,,,,,,,0,,,75,0
259950,note_on,120,0,3,,,,,,,,,2,,,67,0
259950,note_on,0,0,3,,,,,,,,,2,,,63,0
259950,note_on,0,0,3,,,,,,,,,2,,,58,0
259950,time_signature,240,1,0,1,4,24,8,,,,,,,,,
259950,note_on,120,0,1,,,,,,,,,0,,,70,49
260070,note_on,120,0,1,,,,,,,,,0,,,70,0
260070,note_on,0,0,1,,,,,,,,,0,,,67,49
260070,note_on,0,0,1,,,,,,,,,0,,,79,49
260070,note_on,120,0,3,,,,,,,,,2,,,51,36
260070,time_signature,120,1,0,3,4,24,8,,,,,,,,,
260190,note_on,0,0,3,,,,,,,,,2,,,63,36
260190,note_on,0,0,3,,,,,,,,,2,,,58,36
260190,note_on,120,0,3,,,,,,,,,2,,,51,0
260202,note_on,12,0,3,,,,,,,,,2,,,63,0
260202,note_on,0,0,3,,,,,,,,,2,,,58,0
260250,note_on,180,0,1,,,,,,,,,0,,,79,0
260250,note_on,0,0,1,,,,,,,,,0,,,67,0
260250,note_on,0,0,1,,,,,,,,,0,,,68,49
260250,note_on,0,0,1,,,,,,,,,0,,,80,49
260310,note_on,0,0,1,,,,,,,,,0,,,79,49
260310,note_on,0,0,1,,,,,,,,,0,,,67,49
260310,note_on,0,0,1,,,,,,,,,0,,,68,0
260310,note_on,60,0,1,,,,,,,,,0,,,80,0
260310,note_on,0,0,3,,,,,,,,,2,,,63,36
260310,note_on,108,0,3,,,,,,,,,2,,,58,36
260322,note_on,12,0,3,,,,,,,,,2,,,63,0
260322,note_on,0,0,3,,,,,,,,,2,,,58,0
260430,note_on,108,0,3,,,,,,,,,2,,,50,36
260430,note_on,0,0,1,,,,,,,,,0,,,82,75
260430,note_on,0,0,1,,,,,,,,,0,,,67,0
260430,note_on,120,0,1,,,,,,,,,0,,,79,0
260430,note_on,0,0,1,,,,,,,,,0,,,70,67
260550,note_on,120,0,3,,,,,,,,,2,,,50,0
260550,note_on,0,0,3,,,,,,,,,2,,,58,36
260550,note_on,0,0,3,,,,,,,,,2,,,65,36
260550,note_on,0,0,3,,,,,,,,,2,,,68,36
260562,note_on,12,0,3,,,,,,,,,2,,,68,0
260562,note_on,0,0,3,,,,,,,,,2,,,58,0
260562,note_on,0,0,3,,,,,,,,,2,,,65,0
260670,note_on,108,0,3,,,,,,,,,2,,,58,36
260670,note_on,0,0,3,,,,,,,,,2,,,65,36
260670,note_on,0,0,3,,,,,,,,,2,,,68,36
260682,note_on,0,0,3,,,,,,,,,2,,,65,0
260682,note_on,0,0,3,,,,,,,,,2,,,58,0
260682,note_on,12,0,3,,,,,,,,,2,,,68,0
260790,note_on,108,0,3,,,,,,,,,2,,,51,36
260790,note_on,360,0,1,,,,,,,,,0,,,82,0
260790,note_on,0,0,1,,,,,,,,,0,,,70,0
260790,note_on,0,0,1,,,,,,,,,0,,,67,49
260790,note_on,0,0,1,,,,,,,,,0,,,79,49
260910,note_on,0,0,3,,,,,,,,,2,,,63,36
260910,note_on,0,0,3,,,,,,,,,2,,,58,36
260910,note_on,120,0,3,,,,,,,,,2,,,51,0
260922,note_on,0,0,3,,,,,,,,,2,,,58,0
260922,note_on,12,0,3,,,,,,,,,2,,,63,0
260970,note_on,0,0,1,,,,,,,,,0,,,80,49
260970,note_on,0,0,1,,,,,,,,,0,,,68,49
260970,note_on,0,0,1,,,,,,,,,0,,,67,0
260970,note_on,180,0,1,,,,,,,,,0,,,79,0
261030,note_on,0,0,1,,,,,,,,,0,,,67,49
261030,note_on,0,0,3,,,,,,,,,2,,,63,36
261030,note_on,60,0,1,,,,,,,,,0,,,80,0
261030,note_on,108,0,3,,,,,,,,,2,,,58,36
261030,note_on,0,0,1,,,,,,,,,0,,,79,49
261030,note_on,0,0,1,,,,,,,,,0,,,68,0
261042,note_on,0,0,3,,,,,,,,,2,,,58,0
261042,note_on,12,0,3,,,,,,,,,2,,,63,0
261150,note_on,120,0,1,,,,,,,,,0,,,79,0
261150,note_on,0,0,1,,,,,,,,,0,,,67,0
261150,note_on,0,0,1,,,,,,,,,0,,,70,67
261150,note_on,0,0,1,,,,,,,,,0,,,82,75
261150,note_on,108,0,3,,,,,,,,,2,,,50,36
261270,note_on,120,0,3,,,,,,,,,2,,,50,0
261270,note_on,0,0,3,,,,,,,,,2,,,58,36
261270,note_on,0,0,3,,,,,,,,,2,,,65,36
261270,note_on,0,0,3,,,,,,,,,2,,,68,36
261282,note_on,12,0,3,,,,,,,,,2,,,68,0
261282,note_on,0,0,3,,,,,,,,,2,,,65,0
261282,note_on,0,0,3,,,,,,,,,2,,,58,0
261390,note_on,0,0,3,,,,,,,,,2,,,65,36
261390,note_on,108,0,3,,,,,,,,,2,,,58,36
261390,note_on,0,0,3,,,,,,,,,2,,,68,36
261402,note_on,0,0,3,,,,,,,,,2,,,65,0
261402,note_on,0,0,3,,,,,,,,,2,,,58,0
261402,note_on,12,0,3,,,,,,,,,2,,,68,0
261510,note_on,108,0,3,,,,,,,,,2,,,51,36
261510,note_on,360,0,1,,,,,,,,,0,,,82,0
261510,note_on,0,0,1,,,,,,,,,0,,,70,0
261510,note_on,0,0,1,,,,,,,,,0,,,67,49
261510,note_on,0,0,1,,,,,,,,,0,,,79,49
261630,note_on,0,0,3,,,,,,,,,2,,,58,36
261630,note_on,120,0,3,,,,,,,,,2,,,51,0
261630,note_on,0,0,3,,,,,,,,,2,,,63,36
261642,note_on,0,0,3,,,,,,,,,2,,,58,0
261642,note_on,12,0,3,,,,,,,,,2,,,63,0
261690,note_on,0,0,1,,,,,,,,,0,,,80,49
261690,note_on,0,0,1,,,,,,,,,0,,,68,49
261690,note_on,0,0,1,,,,,,,,,0,,,67,0
261690,note_on,180,0,1,,,,,,,,,0,,,79,0
261750,note_on,108,0,3,,,,,,,,,2,,,58,36
261750,note_on,0,0,3,,,,,,,,,2,,,63,36
261750,note_on,0,0,1,,,,,,,,,0,,,67,49
261750,note_on,0,0,1,,,,,,,,,0,,,68,0
261750,note_on,60,0,1,,,,,,,,,0,,,80,0
261750,note_on,0,0,1,,,,,,,,,0,,,79,49
261762,note_on,12,0,3,,,,,,,,,2,,,63,0
261762,note_on,0,0,3,,,,,,,,,2,,,58,0
261870,note_on,0,0,1,,,,,,,,,0,,,82,49
261870,note_on,0,0,1,,,,,,,,,0,,,67,0
261870,note_on,0,0,1,,,,,,,,,0,,,94,49
261870,note_on,120,0,1,,,,,,,,,0,,,79,0
261870,note_on,108,0,3,,,,,,,,,2,,,55,36
261990,note_on,0,0,3,,,,,,,,,2,,,67,36
261990,note_on,0,0,3,,,,,,,,,2,,,63,36
261990,note_on,0,0,3,,,,,,,,,2,,,58,36
261990,note_on,120,0,3,,,,,,,,,2,,,55,0
262002,note_on,12,0,3,,,,,,,,,2,,,67,0
262002,note_on,0,0,3,,,,,,,,,2,,,63,0
262002,note_on,0,0,3,,,,,,,,,2,,,58,0
262110,note_on,108,0,3,,,,,,,,,2,,,58,36
262110,note_on,0,0,3,,,,,,,,,2,,,63,36
262110,note_on,0,0,3,,,,,,,,,2,,,67,36
262110,note_on,0,0,1,,,,,,,,,0,,,92,49
262110,note_on,0,0,1,,,,,,,,,0,,,80,49
262110,note_on,0,0,1,,,,,,,,,0,,,82,0
262110,note_on,240,0,1,,,,,,,,,0,,,94,0
262122,note_on,0,0,3,,,,,,,,,2,,,58,0
262122,note_on,0,0,3,,,,,,,,,2,,,63,0
262122,note_on,12,0,3,,,,,,,,,2,,,67,0
262170,note_on,0,0,1,,,,,,,,,0,,,91,49
262170,note_on,60,0,1,,,,,,,,,0,,,92,0
262170,note_on,0,0,1,,,,,,,,,0,,,80,0
262170,note_on,0,0,1,,,,,,,,,0,,,79,49
262230,note_on,0,0,1,,,,,,,,,0,,,79,0
262230,note_on,0,0,1,,,,,,,,,0,,,91,49
262230,note_on,108,0,3,,,,,,,,,2,,,46,36
262230,note_on,0,0,1,,,,,,,,,0,,,79,49
262230,note_on,60,0,1,,,,,,,,,0,,,91,0
262350,note_on,120,0,3,,,,,,,,,2,,,46,0
262350,note_on,0,0,3,,,,,,,,,2,,,58,36
262350,note_on,0,0,3,,,,,,,,,2,,,68,36
262350,note_on,0,0,3,,,,,,,,,2,,,62,36
262362,note_on,12,0,3,,,,,,,,,2,,,68,0
262362,note_on,0,0,3,,,,,,,,,2,,,58,0
262362,note_on,0,0,3,,,,,,,,,2,,,62,0
262410,note_on,0,0,1,,,,,,,,,0,,,89,49
262410,note_on,180,0,1,,,,,,,,,0,,,91,0
262410,note_on,0,0,1,,,,,,,,,0,,,77,49
262410,note_on,0,0,1,,,,,,,,,0,,,79,0
262470,note_on,0,0,1,,,,,,,,,0,,,77,0
262470,note_on,0,0,1,,,,,,,,,0,,,77,49
262470,note_on,0,0,3,,,,,,,,,2,,,68,36
262470,note_on,0,0,3,,,,,,,,,2,,,62,36
262470,note_on,60,0,1,,,,,,,,,0,,,89,0
262470,note_on,108,0,3,,,,,,,,,2,,,58,36
262470,note_on,0,0,1,,,,,,,,,0,,,89,49
262482,note_on,0,0,3,,,,,,,,,2,,,58,0
262482,note_on,0,0,3,,,,,,,,,2,,,62,0
262482,note_on,12,0,3,,,,,,,,,2,,,68,0
262590,note_on,108,0,3,,,,,,,,,2,,,51,36
262590,note_on,120,0,1,,,,,,,,,0,,,89,0
262590,note_on,0,0,1,,,,,,,,,0,,,75,49
262590,note_on,0,0,1,,,,,,,,,0,,,77,0
262590,time_signature,2520,1,0,2,4,24,8,,,,,,,,,
262590,note_on,0,0,1,,,,,,,,,0,,,87,49
262710,note_on,120,0,1,,,,,,,,,0,,,87,0
262710,note_on,0,0,3,,,,,,,,,2,,,67,36
262710,note_on,0,0,3,,,,,,,,,2,,,63,36
262710,note_on,0,0,3,,,,,,,,,2,,,58,36
262710,note_on,0,0,1,,,,,,,,,0,,,75,0
262710,note_on,120,0,3,,,,,,,,,2,,,51,0
262830,time_signature,240,1,0,1,4,24,8,,,,,,,,,
262830,note_on,120,0,1,,,,,,,,,0,,,75,49
262830,note_on,120,0,3,,,,,,,,,2,,,67,0
262830,note_on,0,0,3,,,,,,,,,2,,,63,0
262830,note_on,0,0,1,,,,,,,,,0,,,87,49
262830,note_on,0,0,3,,,,,,,,,2,,,58,0
262950,note_on,120,0,3,,,,,,,,,2,,,51,36
262950,note_on,0,0,1,,,,,,,,,0,,,75,0
262950,time_signature,120,1,0,3,4,24,8,,,,,,,,,
262950,note_on,120,0,1,,,,,,,,,0,,,87,0
262950,note_on,0,0,1,,,,,,,,,0,,,87,49
262950,note_on,0,0,1,,,,,,,,,0,,,75,49
263070,note_on,0,0,3,,,,,,,,,2,,,58,36
263070,note_on,120,0,3,,,,,,,,,2,,,51,0
263070,note_on,0,0,3,,,,,,,,,2,,,67,36
263070,note_on,0,0,3,,,,,,,,,2,,,63,36
263082,note_on,12,0,3,,,,,,,,,2,,,67,0
263082,note_on,0,0,3,,,,,,,,,2,,,63,0
263082,note_on,0,0,3,,,,,,,,,2,,,58,0
263130,note_on,0,0,1,,,,,,,,,0,,,73,49
263130,note_on,0,0,1,,,,,,,,,0,,,75,0
263130,note_on,180,0,1,,,,,,,,,0,,,87,0
263130,note_on,0,0,1,,,,,,,,,0,,,85,49
263190,note_on,0,0,3,,,,,,,,,2,,,67,36
263190,note_on,0,0,3,,,,,,,,,2,,,63,36
263190,note_on,108,0,3,,,,,,,,,2,,,58,36
263190,note_on,60,0,1,,,,,,,,,0,,,85,0
263190,note_on,0,0,1,,,,,,,,,0,,,85,49
263190,note_on,0,0,1,,,,,,,,,0,,,73,49
263190,note_on,0,0,1,,,,,,,,,0,,,73,0
263202,note_on,0,0,3,,,,,,,,,2,,,63,0
263202,note_on,12,0,3,,,,,,,,,2,,,67,0
263202,note_on,0,0,3,,,,,,,,,2,,,58,0
263310,note_on,0,0,1,,,,,,,,,0,,,73,49
263310,note_on,0,0,1,,,,,,,,,0,,,73,0
263310,note_on,120,0,1,,,,,,,,,0,,,85,0
263310,note_on,108,0,3,,,,,,,,,2,,,56,36
263310,note_on,0,0,1,,,,,,,,,0,,,85,49
263430,note_on,0,0,3,,,,,,,,,2,,,63,36
263430,note_on,0,0,3,,,,,,,,,2,,,60,36
263430,note_on,0,0,3,,,,,,,,,2,,,68,36
263430,note_on,120,0,3,,,,,,,,,2,,,56,0
263442,note_on,0,0,3,,,,,,,,,2,,,60,0
263442,note_on,0,0,3,,,,,,,,,2,,,63,0
263442,note_on,12,0,3,,,,,,,,,2,,,68,0
263490,note_on,180,0,1,,,,,,,,,0,,,85,0
263490,note_on,0,0,1,,,,,,,,,0,,,73,0
263490,note_on,0,0,1,,,,,,,,,0,,,72,49
263490,note_on,0,0,1,,,,,,,,,0,,,84,49
263550,note_on,0,0,3,,,,,,,,,2,,,68,36
263550,note_on,0,0,3,,,,,,,,,2,,,63,36
263550,note_on,108,0,3,,,,,,,,,2,,,60,36
263550,note_on,60,0,1,,,,,,,,,0,,,84,0
263550,note_on,0,0,1,,,,,,,,,0,,,72,0
263550,note_on,0,0,1,,,,,,,,,0,,,72,49
263550,note_on,0,0,1,,,,,,,,,0,,,84,49
263562,note_on,0,0,3,,,,,,,,,2,,,60,0
263562,note_on,0,0,3,,,,,,,,,2,,,63,0
263562,note_on,12,0,3,,,,,,,,,2,,,68,0
263670,note_on,0,0,1,,,,,,,,,0,,,84,49
263670,note_on,0,0,1,,,,,,,,,0,,,72,49
263670,note_on,0,0,1,,,,,,,,,0,,,72,0
263670,note_on,120,0,1,,,,,,,,,0,,,84,0
263670,note_on,108,0,3,,,,,,,,,2,,,48,36
263790,note_on,0,0,3,,,,,,,,,2,,,64,36
263790,note_on,0,0,1,,,,,,,,,0,,,72,0
263790,note_on,0,0,3,,,,,,,,,2,,,60,36
263790,note_on,0,0,3,,,,,,,,,2,,,55,36
263790,note_on,120,0,1,,,,,,,,,0,,,84,0
263790,note_on,0,0,1,,,,,,,,,0,,,85,49
263790,note_on,0,0,1,,,,,,,,,0,,,73,49
263790,note_on,120,0,3,,,,,,,,,2,,,48,0
263794,note_on,0,0,1,,,,,,,,,0,,,73,0
263794,note_on,4,0,1,,,,,,,,,0,,,85,0
263802,note_on,12,0,3,,,,,,,,,2,,,64,0
263802,note_on,0,0,3,,,,,,,,,2,,,60,0
263802,note_on,0,0,3,,,,,,,,,2,,,55,0
263910,note_on,0,0,1,,,,,,,,,0,,,82,49
263910,note_on,108,0,3,,,,,,,,,2,,,55,36
263910,note_on,0,0,3,,,,,,,,,2,,,60,36
263910,note_on,0,0,3,,,,,,,,,2,,,64,36
263910,note_on,116,0,1,,,,,,,,,0,,,70,49
263922,note_on,12,0,3,,,,,,,,,2,,,64,0
263922,note_on,0,0,3,,,,,,,,,2,,,60,0
263922,note_on,0,0,3,,,,,,,,,2,,,55,0
264030,note_on,0,0,1,,,,,,,,,0,,,82,49
264030,note_on,0,0,1,,,,,,,,,0,,,70,0
264030,note_on,0,0,1,,,,,,,,,0,,,70,49
264030,note_on,108,0,3,,,,,,,,,2,,,53,36
264030,note_on,120,0,1,,,,,,,,,0,,,82,0
264150,note_on,120,0,3,,,,,,,,,2,,,53,0
264150,note_on,0,0,3,,,,,,,,,2,,,56,36
264150,note_on,0,0,3,,,,,,,,,2,,,60,36
264150,note_on,0,0,3,,,,,,,,,2,,,65,36
264162,note_on,12,0,3,,,,,,,,,2,,,65,0
264162,note_on,0,0,3,,,,,,,,,2,,,60,0
264162,note_on,0,0,3,,,,,,,,,2,,,56,0
264210,note_on,180,0,1,,,,,,,,,0,,,82,0
264210,note_on,0,0,1,,,,,,,,,0,,,70,0
264210,note_on,0,0,1,,,,,,,,,0,,,68,49
264210,note_on,0,0,1,,,,,,,,,0,,,80,49
264270,note_on,60,0,1,,,,,,,,,0,,,80,0
264270,note_on,0,0,1,,,,,,,,,0,,,68,0
264270,note_on,0,0,1,,,,,,,,,0,,,68,49
264270,note_on,108,0,3,,,,,,,,,2,,,56,36
264270,note_on,0,0,3,,,,,,,,,2,,,60,36
264270,note_on,0,0,3,,,,,,,,,2,,,65,36
264270,note_on,0,0,1,,,,,,,,,0,,,80,49
264282,note_on,12,0,1,,,,,,,,,0,,,80,0
264282,note_on,12,0,3,,,,,,,,,2,,,65,0
264282,note_on,0,0,3,,,,,,,,,2,,,56,0
264282,note_on,0,0,1,,,,,,,,,0,,,68,0
264282,note_on,0,0,3,,,,,,,,,2,,,60,0
264375,note_on,93,0,1,,,,,,,,,0,,,80,49
264390,note_on,108,0,3,,,,,,,,,2,,,50,36
264390,note_on,0,0,1,,,,,,,,,0,,,84,75
264390,note_on,0,0,1,,,,,,,,,0,,,72,67
264390,note_on,15,0,1,,,,,,,,,0,,,80,0
264510,note_on,0,0,3,,,,,,,,,2,,,65,36
264510,note_on,0,0,3,,,,,,,,,2,,,58,36
264510,note_on,0,0,3,,,,,,,,,2,,,56,36
264510,note_on,120,0,3,,,,,,,,,2,,,50,0
264522,note_on,12,0,3,,,,,,,,,2,,,65,0
264522,note_on,0,0,3,,,,,,,,,2,,,56,0
264522,note_on,0,0,3,,,,,,,,,2,,,58,0
264570,note_on,180,0,1,,,,,,,,,0,,,84,0
264570,note_on,0,0,1,,,,,,,,,0,,,72,0
264570,note_on,0,0,1,,,,,,,,,0,,,82,49
264570,note_on,0,0,1,,,,,,,,,0,,,70,49
264630,note_on,0,0,3,,,,,,,,,2,,,58,36
264630,note_on,0,0,1,,,,,,,,,0,,,70,0
264630,note_on,108,0,3,,,,,,,,,2,,,56,36
264630,note_on,60,0,1,,,,,,,,,0,,,82,0
264630,note_on,0,0,1,,,,,,,,,0,,,70,49
264630,note_on,0,0,1,,,,,,,,,0,,,82,49
264630,note_on,0,0,3,,,,,,,,,2,,,65,36
264642,note_on,12,0,3,,,,,,,,,2,,,65,0
264642,note_on,0,0,3,,,,,,,,,2,,,56,0
264642,note_on,0,0,3,,,,,,,,,2,,,58,0
264750,note_on,0,0,1,,,,,,,,,0,,,82,75
264750,note_on,0,0,1,,,,,,,,,0,,,70,67
264750,note_on,0,0,1,,,,,,,,,0,,,70,0
264750,note_on,120,0,1,,,,,,,,,0,,,82,0
264750,note_on,108,0,3,,,,,,,,,2,,,51,36
264870,note_on,0,0,1,,,,,,,,,0,,,87,49
264870,note_on,120,0,1,,,,,,,,,0,,,82,0
264870,note_on,0,0,3,,,,,,,,,2,,,63,36
264870,note_on,0,0,3,,,,,,,,,2,,,58,36
264870,note_on,0,0,3,,,,,,,,,2,,,55,36
264870,note_on,120,0,3,,,,,,,,,2,,,51,0
264870,note_on,0,0,1,,,,,,,,,0,,,75,49
264870,note_on,0,0,1,,,,,,,,,0,,,70,0
264882,note_on,0,0,3,,,,,,,,,2,,,58,0
264882,note_on,0,0,3,,,,,,,,,2,,,55,0
264882,note_on,12,0,3,,,,,,,,,2,,,63,0
264990,note_on,0,0,3,,,,,,,,,2,,,58,36
264990,note_on,108,0,3,,,,,,,,,2,,,55,36
264990,note_on,0,0,3,,,,,,,,,2,,,63,36
264990,note_on,0,0,1,,,,,,,,,0,,,77,67
264990,note_on,120,0,1,,,,,,,,,0,,,87,0
264990,note_on,0,0,1,,,,,,,,,0,,,89,75
264990,note_on,0,0,1,,,,,,,,,0,,,75,0
265002,note_on,0,0,3,,,,,,,,,2,,,55,0
265002,note_on,0,0,3,,,,,,,,,2,,,58,0
265002,note_on,12,0,3,,,,,,,,,2,,,63,0
265002,note_on,0,0,1,,,,,,,,,0,,,77,0
265002,note_on,12,0,1,,,,,,,,,0,,,89,0
265110,note_on,108,0,3,,,,,,,,,2,,,46,36
265110,note_on,108,0,1,,,,,,,,,0,,,79,67
265110,note_on,0,0,1,,,,,,,,,0,,,91,75
265230,note_on,120,0,1,,,,,,,,,0,,,91,0
265230,note_on,0,0,1,,,,,,,,,0,,,92,49
265230,note_on,120,0,3,,,,,,,,,2,,,46,0
265230,note_on,0,0,3,,,,,,,,,2,,,58,36
265230,note_on,0,0,3,,,,,,,,,2,,,65,36
265230,note_on,0,0,3,,,,,,,,,2,,,68,36
265230,note_on,0,0,1,,,,,,,,,0,,,80,49
265230,note_on,0,0,1,,,,,,,,,0,,,79,0
265242,note_on,0,0,3,,,,,,,,,2,,,65,0
265242,note_on,0,0,1,,,,,,,,,0,,,80,0
265242,note_on,12,0,1,,,,,,,,,0,,,92,0
265242,note_on,0,0,3,,,,,,,,,2,,,58,0
265242,note_on,12,0,3,,,,,,,,,2,,,68,0
265350,note_on,0,0,3,,,,,,,,,2,,,68,36
265350,note_on,108,0,3,,,,,,,,,2,,,58,36
265350,note_on,108,0,1,,,,,,,,,0,,,74,67
265350,note_on,0,0,1,,,,,,,,,0,,,86,75
265350,note_on,0,0,3,,,,,,,,,2,,,65,36
265362,note_on,12,0,3,,,,,,,,,2,,,68,0
265362,note_on,0,0,3,,,,,,,,,2,,,65,0
265362,note_on,0,0,3,,,,,,,,,2,,,58,0
265362,note_on,12,0,1,,,,,,,,,0,,,86,0
265362,note_on,0,0,1,,,,,,,,,0,,,74,0
265470,note_on,108,0,1,,,,,,,,,0,,,75,49
265470,note_on,0,0,1,,,,,,,,,0,,,87,49
265470,note_on,108,0,3,,,,,,,,,2,,,51,36
265470,time_signature,2520,1,0,2,4,24,8,,,,,,,,,
265590,note_on,120,0,3,,,,,,,,,2,,,51,0
265590,note_on,0,0,3,,,,,,,,,2,,,58,36
265590,note_on,0,0,3,,,,,,,,,2,,,63,36
265590,note_on,0,0,3,,,,,,,,,2,,,67,36
265710,note_on,240,0,1,,,,,,,,,0,,,87,0
265710,note_on,120,0,3,,,,,,,,,2,,,67,0
265710,note_on,0,0,3,,,,,,,,,2,,,63,0
265710,note_on,0,0,3,,,,,,,,,2,,,58,0
265710,time_signature,240,1,0,1,4,24,8,,,,,,,,,
265710,note_on,0,0,1,,,,,,,,,0,,,75,0
265710,note_on,0,0,1,,,,,,,,,0,,,75,49
265710,note_on,0,0,1,,,,,,,,,0,,,87,49
265830,note_on,120,0,1,,,,,,,,,0,,,87,0
265830,time_signature,120,1,0,3,4,24,8,,,,,,,,,
265830,note_on,120,0,3,,,,,,,,,2,,,51,36
265830,note_on,0,0,1,,,,,,,,,0,,,75,0
265830,note_on,0,0,1,,,,,,,,,0,,,75,49
265830,note_on,0,0,1,,,,,,,,,0,,,87,49
265950,note_on,0,0,3,,,,,,,,,2,,,67,36
265950,note_on,0,0,3,,,,,,,,,2,,,63,36
265950,note_on,0,0,3,,,,,,,,,2,,,58,36
265950,note_on,120,0,3,,,,,,,,,2,,,51,0
265962,note_on,0,0,3,,,,,,,,,2,,,58,0
265962,note_on,0,0,3,,,,,,,,,2,,,63,0
265962,note_on,12,0,3,,,,,,,,,2,,,67,0
266010,note_on,0,0,1,,,,,,,,,0,,,75,0
266010,note_on,0,0,1,,,,,,,,,0,,,73,49
266010,note_on,0,0,1,,,,,,,,,0,,,85,49
266010,note_on,180,0,1,,,,,,,,,0,,,87,0
266070,note_on,60,0,1,,,,,,,,,0,,,85,0
266070,note_on,0,0,1,,,,,,,,,0,,,73,0
266070,note_on,0,0,1,,,,,,,,,0,,,73,49
266070,note_on,0,0,1,,,,,,,,,0,,,85,49
266070,note_on,108,0,3,,,,,,,,,2,,,58,36
266070,note_on,0,0,3,,,,,,,,,2,,,63,36
266070,note_on,0,0,3,,,,,,,,,2,,,67,36
266082,note_on,0,0,3,,,,,,,,,2,,,58,0
266082,note_on,0,0,3,,,,,,,,,2,,,63,0
266082,note_on,12,0,3,,,,,,,,,2,,,67,0
266190,note_on,108,0,3,,,,,,,,,2,,,56,36
266190,note_on,0,0,1,,,,,,,,,0,,,73,49
266190,note_on,0,0,1,,,,,,,,,0,,,73,0
266190,note_on,120,0,1,,,,,,,,,0,,,85,0
266190,note_on,0,0,1,,,,,,,,,0,,,85,49
266310,note_on,0,0,3,,,,,,,,,2,,,63,36
266310,note_on,120,0,3,,,,,,,,,2,,,56,0
266310,note_on,0,0,3,,,,,,,,,2,,,68,36
266310,note_on,0,0,3,,,,,,,,,2,,,60,36
266322,note_on,0,0,3,,,,,,,,,2,,,63,0
266322,note_on,0,0,3,,,,,,,,,2,,,60,0
266322,note_on,12,0,3,,,,,,,,,2,,,68,0
266370,note_on,180,0,1,,,,,,,,,0,,,85,0
266370,note_on,0,0,1,,,,,,,,,0,,,73,0
266370,note_on,0,0,1,,,,,,,,,0,,,72,49
266370,note_on,0,0,1,,,,,,,,,0,,,84,49
266430,note_on,108,0,3,,,,,,,,,2,,,60,36
266430,note_on,0,0,3,,,,,,,,,2,,,63,36
266430,note_on,0,0,3,,,,,,,,,2,,,68,36
266430,note_on,60,0,1,,,,,,,,,0,,,84,0
266430,note_on,0,0,1,,,,,,,,,0,,,72,0
266430,note_on,0,0,1,,,,,,,,,0,,,72,49
266430,note_on,0,0,1,,,,,,,,,0,,,84,49
266442,note_on,12,0,3,,,,,,,,,2,,,68,0
266442,note_on,0,0,3,,,,,,,,,2,,,63,0
266442,note_on,0,0,3,,,,,,,,,2,,,60,0
266550,note_on,120,0,1,,,,,,,,,0,,,84,0
266550,note_on,0,0,1,,,,,,,,,0,,,84,49
266550,note_on,0,0,1,,,,,,,,,0,,,72,49
266550,note_on,108,0,3,,,,,,,,,2,,,48,36
266550,note_on,0,0,1,,,,,,,,,0,,,72,0
266670,note_on,0,0,1,,,,,,,,,0,,,73,49
266670,note_on,0,0,3,,,,,,,,,2,,,64,36
266670,note_on,0,0,3,,,,,,,,,2,,,60,36
266670,note_on,0,0,1,,,,,,,,,0,,,72,0
266670,note_on,0,0,1,,,,,,,,,0,,,85,49
266670,note_on,0,0,3,,,,,,,,,2,,,55,36
266670,note_on,120,0,3,,,,,,,,,2,,,48,0
266670,note_on,120,0,1,,,,,,,,,0,,,84,0
266674,note_on,0,0,1,,,,,,,,,0,,,73,0
266674,note_on,4,0,1,,,,,,,,,0,,,85,0
266682,note_on,12,0,3,,,,,,,,,2,,,64,0
266682,note_on,0,0,3,,,,,,,,,2,,,60,0
266682,note_on,0,0,3,,,,,,,,,2,,,55,0
266790,note_on,0,0,1,,,,,,,,,0,,,82,49
266790,note_on,116,0,1,,,,,,,,,0,,,70,49
266790,note_on,108,0,3,,,,,,,,,2,,,55,36
266790,note_on,0,0,3,,,,,,,,,2,,,60,36
266790,note_on,0,0,3,,,,,,,,,2,,,64,36
266802,note_on,12,0,3,,,,,,,,,2,,,64,0
266802,note_on,0,0,3,,,,,,,,,2,,,55,0
266802,note_on,0,0,3,,,,,,,,,2,,,60,0
266910,note_on,120,0,1,,,,,,,,,0,,,82,0
266910,note_on,108,0,3,,,,,,,,,2,,,53,36
266910,note_on,0,0,1,,,,,,,,,0,,,70,0
266910,note_on,0,0,1,,,,,,,,,0,,,70,49
266910,note_on,0,0,1,,,,,,,,,0,,,82,49
267030,note_on,0,0,3,,,,,,,,,2,,,56,36
267030,note_on,0,0,3,,,,,,,,,2,,,60,36
267030,note_on,0,0,3,,,,,,,,,2,,,65,36
267030,note_on,120,0,3,,,,,,,,,2,,,53,0
267042,note_on,0,0,3,,,,,,,,,2,,,56,0
267042,note_on,0,0,3,,,,,,,,,2,,,60,0
267042,note_on,12,0,3,,,,,,,,,2,,,65,0
267090,note_on,0,0,1,,,,,,,,,0,,,80,49
267090,note_on,180,0,1,,,,,,,,,0,,,82,0
267090,note_on,0,0,1,,,,,,,,,0,,,70,0
267090,note_on,0,0,1,,,,,,,,,0,,,68,49
267150,note_on,0,0,3,,,,,,,,,2,,,60,36
267150,note_on,108,0,3,,,,,,,,,2,,,56,36
267150,note_on,0,0,1,,,,,,,,,0,,,68,0
267150,note_on,0,0,3,,,,,,,,,2,,,65,36
267150,note_on,60,0,1,,,,,,,,,0,,,80,0
267150,note_on,0,0,1,,,,,,,,,0,,,68,49
267150,note_on,0,0,1,,,,,,,,,0,,,80,49
267162,note_on,12,0,1,,,,,,,,,0,,,80,0
267162,note_on,12,0,3,,,,,,,,,2,,,65,0
267162,note_on,0,0,3,,,,,,,,,2,,,60,0
267162,note_on,0,0,3,,,,,,,,,2,,,56,0
267162,note_on,0,0,1,,,,,,,,,0,,,68,0
267255,note_on,93,0,1,,,,,,,,,0,,,80,49
267270,note_on,15,0,1,,,,,,,,,0,,,80,0
267270,note_on,0,0,1,,,,,,,,,0,,,72,67
267270,note_on,0,0,1,,,,,,,,,0,,,84,75
267270,note_on,108,0,3,,,,,,,,,2,,,50,36
267390,note_on,0,0,3,,,,,,,,,2,,,65,36
267390,note_on,0,0,3,,,,,,,,,2,,,58,36
267390,note_on,0,0,3,,,,,,,,,2,,,56,36
267390,note_on,120,0,3,,,,,,,,,2,,,50,0
267402,note_on,0,0,3,,,,,,,,,2,,,58,0
267402,note_on,0,0,3,,,,,,,,,2,,,56,0
267402,note_on,12,0,3,,,,,,,,,2,,,65,0
267450,note_on,0,0,1,,,,,,,,,0,,,72,0
267450,note_on,0,0,1,,,,,,,,,0,,,82,49
267450,note_on,180,0,1,,,,,,,,,0,,,84,0
267450,note_on,0,0,1,,,,,,,,,0,,,70,49
267510,note_on,0,0,3,,,,,,,,,2,,,58,36
267510,note_on,60,0,1,,,,,,,,,0,,,82,0
267510,note_on,0,0,1,,,,,,,,,0,,,70,0
267510,note_on,0,0,1,,,,,,,,,0,,,70,49
267510,note_on,0,0,1,,,,,,,,,0,,,82,49
267510,note_on,0,0,3,,,,,,,,,2,,,65,36
267510,note_on,108,0,3,,,,,,,,,2,,,56,36
267522,note_on,0,0,3,,,,,,,,,2,,,58,0
267522,note_on,12,0,3,,,,,,,,,2,,,65,0
267522,note_on,0,0,3,,,,,,,,,2,,,56,0
267630,note_on,0,0,1,,,,,,,,,0,,,70,67
267630,note_on,0,0,1,,,,,,,,,0,,,82,75
267630,note_on,120,0,1,,,,,,,,,0,,,82,0
267630,note_on,108,0,3,,,,,,,,,2,,,51,36
267630,note_on,0,0,1,,,,,,,,,0,,,70,0
267750,note_on,0,0,3,,,,,,,,,2,,,63,36
267750,note_on,0,0,3,,,,,,,,,2,,,58,36
267750,note_on,0,0,3,,,,,,,,,2,,,55,36
267750,note_on,120,0,3,,,,,,,,,2,,,51,0
267750,note_on,120,0,1,,,,,,,,,0,,,82,0
267750,note_on,0,0,1,,,,,,,,,0,,,70,0
267750,note_on,0,0,1,,,,,,,,,0,,,75,49
267750,note_on,0,0,1,,,,,,,,,0,,,87,49
267762,note_on,0,0,3,,,,,,,,,2,,,55,0
267762,note_on,0,0,3,,,,,,,,,2,,,58,0
267762,note_on,12,0,3,,,,,,,,,2,,,63,0
267870,note_on,108,0,3,,,,,,,,,2,,,55,36
267870,note_on,0,0,1,,,,,,,,,0,,,75,0
267870,note_on,0,0,1,,,,,,,,,0,,,89,75
267870,note_on,0,0,1,,,,,,,,,0,,,77,67
267870,note_on,120,0,1,,,,,,,,,0,,,87,0
267870,note_on,0,0,3,,,,,,,,,2,,,63,36
267870,note_on,0,0,3,,,,,,,,,2,,,58,36
267882,note_on,12,0,1,,,,,,,,,0,,,89,0
267882,note_on,0,0,3,,,,,,,,,2,,,55,0
267882,note_on,0,0,3,,,,,,,,,2,,,58,0
267882,note_on,12,0,3,,,,,,,,,2,,,63,0
267882,note_on,0,0,1,,,,,,,,,0,,,77,0
267990,note_on,108,0,1,,,,,,,,,0,,,79,67
267990,note_on,0,0,1,,,,,,,,,0,,,91,75
267990,note_on,108,0,3,,,,,,,,,2,,,46,36
268110,note_on,120,0,1,,,,,,,,,0,,,91,0
268110,note_on,0,0,1,,,,,,,,,0,,,79,0
268110,note_on,0,0,1,,,,,,,,,0,,,80,49
268110,note_on,0,0,1,,,,,,,,,0,,,92,49
268110,note_on,0,0,3,,,,,,,,,2,,,58,36
268110,note_on,0,0,3,,,,,,,,,2,,,68,36
268110,note_on,0,0,3,,,,,,,,,2,,,65,36
268110,note_on,120,0,3,,,,,,,,,2,,,46,0
268122,note_on,0,0,3,,,,,,,,,2,,,65,0
268122,note_on,0,0,3,,,,,,,,,2,,,58,0
268122,note_on,0,0,1,,,,,,,,,0,,,80,0
268122,note_on,12,0,3,,,,,,,,,2,,,68,0
268122,note_on,12,0,1,,,,,,,,,0,,,92,0
268230,note_on,0,0,1,,,,,,,,,0,,,86,75
268230,note_on,0,0,3,,,,,,,,,2,,,68,36
268230,note_on,0,0,3,,,,,,,,,2,,,65,36
268230,note_on,108,0,3,,,,,,,,,2,,,58,36
268230,note_on,108,0,1,,,,,,,,,0,,,74,67
268242,note_on,12,0,1,,,,,,,,,0,,,86,0
268242,note_on,0,0,3,,,,,,,,,2,,,58,0
268242,note_on,0,0,3,,,,,,,,,2,,,65,0
268242,note_on,12,0,3,,,,,,,,,2,,,68,0
268242,note_on,0,0,1,,,,,,,,,0,,,74,0
268350,note_on,108,0,1,,,,,,,,,0,,,75,49
268350,note_on,0,0,1,,,,,,,,,0,,,87,49
268350,note_on,108,0,3,,,,,,,,,2,,,51,36
268350,time_signature,2520,1,0,2,4,24,8,,,,,,,,,
268470,note_on,0,0,3,,,,,,,,,2,,,63,36
268470,note_on,0,0,3,,,,,,,,,2,,,58,36
268470,note_on,0,0,3,,,,,,,,,2,,,67,36
268470,note_on,120,0,3,,,,,,,,,2,,,51,0
268590,note_on,0,0,3,,,,,,,,,2,,,63,0
268590,note_on,120,0,3,,,,,,,,,2,,,67,0
268590,note_on,240,0,1,,,,,,,,,0,,,87,0
268590,note_on,0,0,1,,,,,,,,,0,,,75,0
268590,note_on,0,0,1,,,,,,,,,0,,,70,49
268590,time_signature,240,1,0,1,4,24,8,,,,,,,,,
268590,note_on,0,0,3,,,,,,,,,2,,,58,0
268710,note_on,120,0,3,,,,,,,,,2,,,51,36
268710,time_signature,120,1,0,3,4,24,8,,,,,,,,,
268710,note_on,0,0,1,,,,,,,,,0,,,79,75
268710,note_on,120,0,1,,,,,,,,,0,,,70,0
268830,note_on,120,0,1,,,,,,,,,0,,,79,0
268830,note_on,0,0,3,,,,,,,,,2,,,63,36
268830,note_on,0,0,3,,,,,,,,,2,,,58,36
268830,note_on,120,0,3,,,,,,,,,2,,,51,0
268830,note_on,0,0,1,,,,,,,,,0,,,70,49
268842,note_on,12,0,3,,,,,,,,,2,,,63,0
268842,note_on,0,0,3,,,,,,,,,2,,,58,0
268890,note_on,0,0,1,,,,,,,,,0,,,67,49
268890,note_on,60,0,1,,,,,,,,,0,,,70,0
268950,note_on,108,0,3,,,,,,,,,2,,,58,36
268950,note_on,0,0,3,,,,,,,,,2,,,63,36
268950,note_on,60,0,1,,,,,,,,,0,,,67,0
268950,note_on,0,0,1,,,,,,,,,0,,,70,49
268962,note_on,12,0,3,,,,,,,,,2,,,63,0
268962,note_on,0,0,3,,,,,,,,,2,,,58,0
269010,note_on,0,0,1,,,,,,,,,0,,,79,49
269010,note_on,60,0,1,,,,,,,,,0,,,70,0
269070,note_on,60,0,1,,,,,,,,,0,,,79,0
269070,note_on,0,0,1,,,,,,,,,0,,,82,75
269070,note_on,108,0,3,,,,,,,,,2,,,55,36
269190,note_on,120,0,1,,,,,,,,,0,,,82,0
269190,note_on,0,0,1,,,,,,,,,0,,,75,49
269190,note_on,0,0,3,,,,,,,,,2,,,67,36
269190,note_on,0,0,3,,,,,,,,,2,,,63,36
269190,note_on,0,0,3,,,,,,,,,2,,,58,36
269190,note_on,120,0,3,,,,,,,,,2,,,55,0
269202,note_on,0,0,3,,,,,,,,,2,,,58,0
269202,note_on,12,0,3,,,,,,,,,2,,,67,0
269202,note_on,0,0,3,,,,,,,,,2,,,63,0
269250,note_on,60,0,1,,,,,,,,,0,,,75,0
269250,note_on,0,0,1,,,,,,,,,0,,,70,49
269310,note_on,0,0,3,,,,,,,,,2,,,67,36
269310,note_on,0,0,1,,,,,,,,,0,,,75,49
269310,note_on,60,0,1,,,,,,,,,0,,,70,0
269310,note_on,108,0,3,,,,,,,,,2,,,58,36
269310,note_on,0,0,3,,,,,,,,,2,,,63,36
269322,note_on,12,0,3,,,,,,,,,2,,,67,0
269322,note_on,0,0,3,,,,,,,,,2,,,58,0
269322,note_on,0,0,3,,,,,,,,,2,,,63,0
269370,note_on,0,0,1,,,,,,,,,0,,,82,49
269370,note_on,60,0,1,,,,,,,,,0,,,75,0
269430,note_on,0,0,1,,,,,,,,,0,,,80,75
269430,note_on,108,0,3,,,,,,,,,2,,,46,36
269430,note_on,60,0,1,,,,,,,,,0,,,82,0
269550,note_on,120,0,1,,,,,,,,,0,,,80,0
269550,note_on,120,0,3,,,,,,,,,2,,,46,0
269550,note_on,0,0,3,,,,,,,,,2,,,58,36
269550,note_on,0,0,3,,,,,,,,,2,,,65,36
269550,note_on,0,0,1,,,,,,,,,0,,,74,49
269562,note_on,0,0,3,,,,,,,,,2,,,58,0
269562,note_on,12,0,3,,,,,,,,,2,,,65,0
269610,note_on,0,0,1,,,,,,,,,0,,,70,49
269610,note_on,60,0,1,,,,,,,,,0,,,74,0
269670,note_on,0,0,1,,,,,,,,,0,,,74,49
269670,note_on,60,0,1,,,,,,,,,0,,,70,0
269670,note_on,108,0,3,,,,,,,,,2,,,58,36
269670,note_on,0,0,3,,,,,,,,,2,,,65,36
269682,note_on,12,0,3,,,,,,,,,2,,,65,0
269682,note_on,0,0,3,,,,,,,,,2,,,58,0
269730,note_on,60,0,1,,,,,,,,,0,,,74,0
269730,note_on,0,0,1,,,,,,,,,0,,,80,49
269790,note_on,108,0,3,,,,,,,,,2,,,51,36
269790,note_on,60,0,1,,,,,,,,,0,,,80,0
269790,note_on,0,0,1,,,,,,,,,0,,,79,75
269850,note_on,0,0,1,,,,,,,,,0,,,67,49
269850,note_on,60,0,1,,,,,,,,,0,,,79,0
269910,note_on,120,0,3,,,,,,,,,2,,,51,0
269910,note_on,0,0,3,,,,,,,,,2,,,58,36
269910,note_on,0,0,3,,,,,,,,,2,,,63,36
269910,note_on,0,0,3,,,,,,,,,2,,,67,36
269910,note_on,0,0,1,,,,,,,,,0,,,70,49
269910,note_on,60,0,1,,,,,,,,,0,,,67,0
269922,note_on,0,0,3,,,,,,,,,2,,,58,0
269922,note_on,12,0,3,,,,,,,,,2,,,67,0
269922,note_on,0,0,3,,,,,,,,,2,,,63,0
269970,note_on,60,0,1,,,,,,,,,0,,,70,0
269970,note_on,0,0,1,,,,,,,,,0,,,75,49
270030,note_on,60,0,1,,,,,,,,,0,,,75,0
270030,note_on,0,0,1,,,,,,,,,0,,,79,49
270030,note_on,108,0,3,,,,,,,,,2,,,58,36
270030,note_on,0,0,3,,,,,,,,,2,,,63,36
270030,note_on,0,0,3,,,,,,,,,2,,,67,36
270042,note_on,12,0,3,,,,,,,,,2,,,67,0
270042,note_on,0,0,3,,,,,,,,,2,,,63,0
270042,note_on,0,0,3,,,,,,,,,2,,,58,0
270090,note_on,60,0,1,,,,,,,,,0,,,79,0
270090,note_on,0,0,1,,,,,,,,,0,,,82,49
270150,note_on,0,0,1,,,,,,,,,0,,,91,75
270150,note_on,108,0,3,,,,,,,,,2,,,51,36
270150,note_on,60,0,1,,,,,,,,,0,,,82,0
270270,note_on,0,0,1,,,,,,,,,0,,,82,49
270270,note_on,120,0,1,,,,,,,,,0,,,91,0
270270,note_on,120,0,3,,,,,,,,,2,,,51,0
270270,note_on,0,0,3,,,,,,,,,2,,,58,36
270270,note_on,0,0,3,,,,,,,,,2,,,63,36
270270,note_on,0,0,3,,,,,,,,,2,,,67,36
270282,note_on,12,0,3,,,,,,,,,2,,,67,0
270282,note_on,0,0,3,,,,,,,,,2,,,63,0
270282,note_on,0,0,3,,,,,,,,,2,,,58,0
270330,note_on,60,0,1,,,,,,,,,0,,,82,0
270330,note_on,0,0,1,,,,,,,,,0,,,79,49
270390,note_on,0,0,3,,,,,,,,,2,,,67,36
270390,note_on,0,0,3,,,,,,,,,2,,,63,36
270390,note_on,108,0,3,,,,,,,,,2,,,58,36
270390,note_on,0,0,1,,,,,,,,,0,,,82,49
270390,note_on,60,0,1,,,,,,,,,0,,,79,0
270402,note_on,0,0,3,,,,,,,,,2,,,58,0
270402,note_on,0,0,3,,,,,,,,,2,,,63,0
270402,note_on,12,0,3,,,,,,,,,2,,,67,0
270450,note_on,60,0,1,,,,,,,,,0,,,82,0
270450,note_on,0,0,1,,,,,,,,,0,,,91,49
270510,note_on,108,0,3,,,,,,,,,2,,,55,36
270510,note_on,0,0,1,,,,,,,,,0,,,94,75
270510,note_on,60,0,1,,,,,,,,,0,,,91,0
270630,note_on,120,0,1,,,,,,,,,0,,,94,0
270630,note_on,0,0,1,,,,,,,,,0,,,87,49
270630,note_on,120,0,3,,,,,,,,,2,,,55,0
270630,note_on,0,0,3,,,,,,,,,2,,,67,36
270630,note_on,0,0,3,,,,,,,,,2,,,63,36
270630,note_on,0,0,3,,,,,,,,,2,,,58,36
270642,note_on,0,0,3,,,,,,,,,2,,,63,0
270642,note_on,0,0,3,,,,,,,,,2,,,58,0
270642,note_on,12,0,3,,,,,,,,,2,,,67,0
270690,note_on,60,0,1,,,,,,,,,0,,,87,0
270690,note_on,0,0,1,,,,,,,,,0,,,82,49
270750,note_on,0,0,3,,,,,,,,,2,,,63,36
270750,note_on,0,0,3,,,,,,,,,2,,,67,36
270750,note_on,0,0,1,,,,,,,,,0,,,87,49
270750,note_on,60,0,1,,,,,,,,,0,,,82,0
270750,note_on,108,0,3,,,,,,,,,2,,,58,36
270762,note_on,12,0,3,,,,,,,,,2,,,67,0
270762,note_on,0,0,3,,,,,,,,,2,,,63,0
270762,note_on,0,0,3,,,,,,,,,2,,,58,0
270810,note_on,0,0,1,,,,,,,,,0,,,94,49
270810,note_on,60,0,1,,,,,,,,,0,,,87,0
270870,note_on,108,0,3,,,,,,,,,2,,,46,36
270870,note_on,0,0,1,,,,,,,,,0,,,98,75
270870,note_on,60,0,1,,,,,,,,,0,,,94,0
270990,note_on,0,0,1,,,,,,,,,0,,,89,49
270990,note_on,120,0,1,,,,,,,,,0,,,98,0
270990,note_on,0,0,3,,,,,,,,,2,,,58,36
270990,note_on,0,0,3,,,,,,,,,2,,,68,36
270990,note_on,0,0,3,,,,,,,,,2,,,65,36
270990,note_on,120,0,3,,,,,,,,,2,,,46,0
271002,note_on,0,0,3,,,,,,,,,2,,,58,0
271002,note_on,0,0,3,,,,,,,,,2,,,65,0
271002,note_on,12,0,3,,,,,,,,,2,,,68,0
271050,note_on,60,0,1,,,,,,,,,0,,,89,0
271050,note_on,0,0,1,,,,,,,,,0,,,86,49
271110,note_on,108,0,3,,,,,,,,,2,,,58,36
271110,note_on,60,0,1,,,,,,,,,0,,,86,0
271110,note_on,0,0,1,,,,,,,,,0,,,89,49
271110,note_on,0,0,3,,,,,,,,,2,,,65,36
271110,note_on,0,0,3,,,,,,,,,2,,,68,36
271122,note_on,0,0,3,,,,,,,,,2,,,58,0
271122,note_on,0,0,3,,,,,,,,,2,,,65,0
271122,note_on,12,0,3,,,,,,,,,2,,,68,0
271170,note_on,0,0,1,,,,,,,,,0,,,98,49
271170,note_on,60,0,1,,,,,,,,,0,,,89,0
271230,note_on,60,0,1,,,,,,,,,0,,,98,0
271230,note_on,0,0,1,,,,,,,,,0,,,99,49
271230,note_on,0,0,1,,,,,,,,,0,,,87,49
271230,note_on,108,0,3,,,,,,,,,2,,,51,36
271230,time_signature,2520,1,0,2,4,24,8,,,,,,,,,
271350,note_on,0,0,3,,,,,,,,,2,,,58,36
271350,note_on,0,0,3,,,,,,,,,2,,,63,36
271350,note_on,0,0,3,,,,,,,,,2,,,67,36
271350,note_on,120,0,3,,,,,,,,,2,,,51,0
271470,note_on,0,0,3,,,,,,,,,2,,,58,0
271470,note_on,0,0,3,,,,,,,,,2,,,63,0
271470,note_on,120,0,3,,,,,,,,,2,,,67,0
271470,note_on,240,0,1,,,,,,,,,0,,,99,0
271470,note_on,0,0,1,,,,,,,,,0,,,87,0
271470,note_on,0,0,1,,,,,,,,,0,,,70,49
271470,time_signature,240,1,0,1,4,24,8,,,,,,,,,
271590,note_on,120,0,1,,,,,,,,,0,,,70,0
271590,note_on,0,0,1,,,,,,,,,0,,,79,75
271590,time_signature,120,1,0,3,4,24,8,,,,,,,,,
271590,note_on,120,0,3,,,,,,,,,2,,,51,36
271710,note_on,120,0,3,,,,,,,,,2,,,51,0
271710,note_on,0,0,3,,,,,,,,,2,,,58,36
271710,note_on,0,0,3,,,,,,,,,2,,,63,36
271710,note_on,120,0,1,,,,,,,,,0,,,79,0
271710,note_on,0,0,1,,,,,,,,,0,,,70,49
271722,note_on,12,0,3,,,,,,,,,2,,,63,0
271722,note_on,0,0,3,,,,,,,,,2,,,58,0
271770,note_on,0,0,1,,,,,,,,,0,,,67,49
271770,note_on,60,0,1,,,,,,,,,0,,,70,0
271830,note_on,108,0,3,,,,,,,,,2,,,58,36
271830,note_on,0,0,3,,,,,,,,,2,,,63,36
271830,note_on,0,0,1,,,,,,,,,0,,,70,49
271830,note_on,60,0,1,,,,,,,,,0,,,67,0
271842,note_on,12,0,3,,,,,,,,,2,,,63,0
271842,note_on,0,0,3,,,,,,,,,2,,,58,0
271890,note_on,0,0,1,,,,,,,,,0,,,79,49
271890,note_on,60,0,1,,,,,,,,,0,,,70,0
271950,note_on,108,0,3,,,,,,,,,2,,,55,36
271950,note_on,0,0,1,,,,,,,,,0,,,82,75
271950,note_on,60,0,1,,,,,,,,,0,,,79,0
272070,note_on,0,0,3,,,,,,,,,2,,,67,36
272070,note_on,120,0,1,,,,,,,,,0,,,82,0
272070,note_on,0,0,1,,,,,,,,,0,,,75,49
272070,note_on,120,0,3,,,,,,,,,2,,,55,0
272070,note_on,0,0,3,,,,,,,,,2,,,58,36
272070,note_on,0,0,3,,,,,,,,,2,,,63,36
272082,note_on,0,0,3,,,,,,,,,2,,,58,0
272082,note_on,0,0,3,,,,,,,,,2,,,63,0
272082,note_on,12,0,3,,,,,,,,,2,,,67,0
272130,note_on,60,0,1,,,,,,,,,0,,,75,0
272130,note_on,0,0,1,,,,,,,,,0,,,70,49
272190,note_on,0,0,1,,,,,,,,,0,,,75,49
272190,note_on,108,0,3,,,,,,,,,2,,,58,36
272190,note_on,60,0,1,,,,,,,,,0,,,70,0
272190,note_on,0,0,3,,,,,,,,,2,,,67,36
272190,note_on,0,0,3,,,,,,,,,2,,,63,36
272202,note_on,12,0,3,,,,,,,,,2,,,67,0
272202,note_on,0,0,3,,,,,,,,,2,,,58,0
272202,note_on,0,0,3,,,,,,,,,2,,,63,0
272250,note_on,60,0,1,,,,,,,,,0,,,75,0
272250,note_on,0,0,1,,,,,,,,,0,,,82,49
272310,note_on,0,0,1,,,,,,,,,0,,,80,75
272310,note_on,60,0,1,,,,,,,,,0,,,82,0
272310,note_on,108,0,3,,,,,,,,,2,,,46,36
272430,note_on,120,0,3,,,,,,,,,2,,,46,0
272430,note_on,0,0,1,,,,,,,,,0,,,74,49
272430,note_on,120,0,1,,,,,,,,,0,,,80,0
272430,note_on,0,0,3,,,,,,,,,2,,,65,36
272430,note_on,0,0,3,,,,,,,,,2,,,58,36
272442,note_on,0,0,3,,,,,,,,,2,,,58,0
272442,note_on,12,0,3,,,,,,,,,2,,,65,0
272490,note_on,60,0,1,,,,,,,,,0,,,74,0
272490,note_on,0,0,1,,,,,,,,,0,,,70,49
272550,note_on,108,0,3,,,,,,,,,2,,,58,36
272550,note_on,0,0,1,,,,,,,,,0,,,74,49
272550,note_on,60,0,1,,,,,,,,,0,,,70,0
272550,note_on,0,0,3,,,,,,,,,2,,,65,36
272562,note_on,12,0,3,,,,,,,,,2,,,65,0
272562,note_on,0,0,3,,,,,,,,,2,,,58,0
272610,note_on,60,0,1,,,,,,,,,0,,,74,0
272610,note_on,0,0,1,,,,,,,,,0,,,80,49
272670,note_on,60,0,1,,,,,,,,,0,,,80,0
272670,note_on,108,0,3,,,,,,,,,2,,,51,36
272670,note_on,0,0,1,,,,,,,,,0,,,79,75
272730,note_on,60,0,1,,,,,,,,,0,,,79,0
272730,note_on,0,0,1,,,,,,,,,0,,,67,49
272790,note_on,60,0,1,,,,,,,,,0,,,67,0
272790,note_on,0,0,1,,,,,,,,,0,,,70,49
272790,note_on,0,0,3,,,,,,,,,2,,,67,36
272790,note_on,0,0,3,,,,,,,,,2,,,63,36
272790,note_on,0,0,3,,,,,,,,,2,,,58,36
272790,note_on,120,0,3,,,,,,,,,2,,,51,0
272802,note_on,0,0,3,,,,,,,,,2,,,63,0
272802,note_on,12,0,3,,,,,,,,,2,,,67,0
272802,note_on,0,0,3,,,,,,,,,2,,,58,0
272850,note_on,60,0,1,,,,,,,,,0,,,70,0
272850,note_on,0,0,1,,,,,,,,,0,,,75,49
272910,note_on,60,0,1,,,,,,,,,0,,,75,0
272910,note_on,0,0,1,,,,,,,,,0,,,79,49
272910,note_on,0,0,3,,,,,,,,,2,,,67,36
272910,note_on,0,0,3,,,,,,,,,2,,,63,36
272910,note_on,108,0,3,,,,,,,,,2,,,58,36
272922,note_on,0,0,3,,,,,,,,,2,,,63,0
272922,note_on,12,0,3,,,,,,,,,2,,,67,0
272922,note_on,0,0,3,,,,,,,,,2,,,58,0
272970,note_on,0,0,1,,,,,,,,,0,,,82,49
272970,note_on,60,0,1,,,,,,,,,0,,,79,0
273030,note_on,0,0,1,,,,,,,,,0,,,91,75
273030,note_on,60,0,1,,,,,,,,,0,,,82,0
273030,note_on,108,0,3,,,,,,,,,2,,,51,36
273150,note_on,0,0,3,,,,,,,,,2,,,67,36
273150,note_on,0,0,1,,,,,,,,,0,,,82,49
273150,note_on,120,0,1,,,,,,,,,0,,,91,0
273150,note_on,0,0,3,,,,,,,,,2,,,63,36
273150,note_on,0,0,3,,,,,,,,,2,,,58,36
273150,note_on,120,0,3,,,,,,,,,2,,,51,0
273162,note_on,0,0,3,,,,,,,,,2,,,58,0
273162,note_on,0,0,3,,,,,,,,,2,,,63,0
273162,note_on,12,0,3,,,,,,,,,2,,,67,0
273210,note_on,60,0,1,,,,,,,,,0,,,82,0
273210,note_on,0,0,1,,,,,,,,,0,,,79,49
273270,note_on,0,0,3,,,,,,,,,2,,,63,36
273270,note_on,0,0,3,,,,,,,,,2,,,67,36
273270,note_on,108,0,3,,,,,,,,,2,,,58,36
273270,note_on,0,0,1,,,,,,,,,0,,,82,49
273270,note_on,60,0,1,,,,,,,,,0,,,79,0
273282,note_on,0,0,3,,,,,,,,,2,,,63,0
273282,note_on,12,0,3,,,,,,,,,2,,,67,0
273282,note_on,0,0,3,,,,,,,,,2,,,58,0
273330,note_on,60,0,1,,,,,,,,,0,,,82,0
273330,note_on,0,0,1,,,,,,,,,0,,,91,49
273390,note_on,60,0,1,,,,,,,,,0,,,91,0
273390,note_on,108,0,3,,,,,,,,,2,,,55,36
273390,note_on,0,0,1,,,,,,,,,0,,,94,75
273510,note_on,0,0,1,,,,,,,,,0,,,87,49
273510,note_on,120,0,1,,,,,,,,,0,,,94,0
273510,note_on,0,0,3,,,,,,,,,2,,,67,36
273510,note_on,0,0,3,,,,,,,,,2,,,63,36
273510,note_on,0,0,3,,,,,,,,,2,,,58,36
273510,note_on,120,0,3,,,,,,,,,2,,,55,0
273522,note_on,0,0,3,,,,,,,,,2,,,58,0
273522,note_on,0,0,3,,,,,,,,,2,,,63,0
273522,note_on,12,0,3,,,,,,,,,2,,,67,0
273570,note_on,0,0,1,,,,,,,,,0,,,82,49
273570,note_on,60,0,1,,,,,,,,,0,,,87,0
273630,note_on,0,0,3,,,,,,,,,2,,,63,36
273630,note_on,0,0,1,,,,,,,,,0,,,87,49
273630,note_on,60,0,1,,,,,,,,,0,,,82,0
273630,note_on,108,0,3,,,,,,,,,2,,,58,36
273630,note_on,0,0,3,,,,,,,,,2,,,67,36
273642,note_on,12,0,3,,,,,,,,,2,,,67,0
273642,note_on,0,0,3,,,,,,,,,2,,,63,0
273642,note_on,0,0,3,,,,,,,,,2,,,58,0
273690,note_on,0,0,1,,,,,,,,,0,,,94,49
273690,note_on,60,0,1,,,,,,,,,0,,,87,0
273750,note_on,108,0,3,,,,,,,,,2,,,46,36
273750,note_on,0,0,1,,,,,,,,,0,,,98,75
273750,note_on,60,0,1,,,,,,,,,0,,,94,0
273870,note_on,0,0,3,,,,,,,,,2,,,58,36
273870,note_on,120,0,3,,,,,,,,,2,,,46,0
273870,note_on,0,0,1,,,,,,,,,0,,,89,49
273870,note_on,120,0,1,,,,,,,,,0,,,98,0
273870,note_on,0,0,3,,,,,,,,,2,,,68,36
273870,note_on,0,0,3,,,,,,,,,2,,,65,36
273882,note_on,12,0,3,,,,,,,,,2,,,68,0
273882,note_on,0,0,3,,,,,,,,,2,,,65,0
273882,note_on,0,0,3,,,,,,,,,2,,,58,0
273930,note_on,60,0,1,,,,,,,,,0,,,89,0
273930,note_on,0,0,1,,,,,,,,,0,,,86,49
273990,note_on,60,0,1,,,,,,,,,0,,,86,0
273990,note_on,0,0,1,,,,,,,,,0,,,89,49
273990,note_on,108,0,3,,,,,,,,,2,,,58,36
273990,note_on,0,0,3,,,,,,,,,2,,,68,36
273990,note_on,0,0,3,,,,,,,,,2,,,65,36
274002,note_on,0,0,3,,,,,,,,,2,,,58,0
274002,note_on,0,0,3,,,,,,,,,2,,,65,0
274002,note_on,12,0,3,,,,,,,,,2,,,68,0
274050,note_on,0,0,1,,,,,,,,,0,,,98,49
274050,note_on,60,0,1,,,,,,,,,0,,,89,0
274110,time_signature,2520,1,0,2,4,24,8,,,,,,,,,
274110,note_on,0,0,1,,,,,,,,,0,,,99,49
274110,note_on,0,0,1,,,,,,,,,0,,,87,49
274110,note_on,60,0,1,,,,,,,,,0,,,98,0
274110,note_on,108,0,3,,,,,,,,,2,,,51,36
274230,note_on,120,0,3,,,,,,,,,2,,,51,0
274230,note_on,0,0,3,,,,,,,,,2,,,58,36
274230,note_on,0,0,3,,,,,,,,,2,,,67,36
274230,note_on,0,0,3,,,,,,,,,2,,,63,36
274350,note_on,0,0,1,,,,,,,,,0,,,70,49
274350,time_signature,240,1,0,1,4,24,8,,,,,,,,,
274350,note_on,0,0,1,,,,,,,,,0,,,87,0
274350,note_on,240,0,1,,,,,,,,,0,,,99,0
274350,note_on,120,0,3,,,,,,,,,2,,,67,0
274350,note_on,0,0,3,,,,,,,,,2,,,63,0
274350,note_on,0,0,3,,,,,,,,,2,,,58,0
274470,time_signature,120,1,0,3,4,24,8,,,,,,,,,
274470,note_on,0,0,1,,,,,,,,,0,,,74,106
274470,note_on,0,0,1,,,,,,,,,0,,,77,114
274470,note_on,120,0,1,,,,,,,,,0,,,70,0
274470,note_on,120,0,3,,,,,,,,,2,,,46,75
274590,note_on,120,0,1,,,,,,,,,0,,,77,0
274590,note_on,0,0,1,,,,,,,,,0,,,74,0
274590,note_on,0,0,3,,,,,,,,,2,,,65,75
274590,note_on,0,0,3,,,,,,,,,2,,,58,75
274590,note_on,0,0,3,,,,,,,,,2,,,62,75
274590,note_on,0,0,1,,,,,,,,,0,,,70,88
274590,note_on,120,0,3,,,,,,,,,2,,,46,0
274602,note_on,0,0,3,,,,,,,,,2,,,62,0
274602,note_on,0,0,3,,,,,,,,,2,,,58,0
274602,note_on,12,0,3,,,,,,,,,2,,,65,0
274650,note_on,60,0,1,,,,,,,,,0,,,70,0
274650,note_on,0,0,1,,,,,,,,,0,,,65,88
274710,note_on,108,0,3,,,,,,,,,2,,,58,75
274710,note_on,0,0,3,,,,,,,,,2,,,62,75
274710,note_on,0,0,3,,,,,,,,,2,,,65,75
274710,note_on,60,0,1,,,,,,,,,0,,,65,0
274710,note_on,0,0,1,,,,,,,,,0,,,70,88
274722,note_on,0,0,3,,,,,,,,,2,,,62,0
274722,note_on,12,0,3,,,,,,,,,2,,,65,0
274722,note_on,0,0,3,,,,,,,,,2,,,58,0
274770,note_on,60,0,1,,,,,,,,,0,,,70,0
274770,note_on,0,0,1,,,,,,,,,0,,,74,88
274830,note_on,60,0,1,,,,,,,,,0,,,74,0
274830,note_on,0,0,1,,,,,,,,,0,,,77,106
274830,note_on,0,0,1,,,,,,,,,0,,,82,114
274830,note_on,108,0,3,,,,,,,,,2,,,46,75
274950,note_on,0,0,3,,,,,,,,,2,,,65,75
274950,note_on,0,0,3,,,,,,,,,2,,,62,75
274950,note_on,0,0,3,,,,,,,,,2,,,58,75
274950,note_on,120,0,3,,,,,,,,,2,,,46,0
274950,note_on,120,0,1,,,,,,,,,0,,,82,0
274950,note_on,0,0,1,,,,,,,,,0,,,77,0
274950,note_on,0,0,1,,,,,,,,,0,,,74,88
274962,note_on,12,0,3,,,,,,,,,2,,,65,0
274962,note_on,0,0,3,,,,,,,,,2,,,58,0
274962,note_on,0,0,3,,,,,,,,,2,,,62,0
275010,note_on,60,0,1,,,,,,,,,0,,,74,0
275010,note_on,0,0,1,,,,,,,,,0,,,70,88
275070,note_on,0,0,3,,,,,,,,,2,,,65,75
275070,note_on,0,0,3,,,,,,,,,2,,,62,75
275070,note_on,108,0,3,,,,,,,,,2,,,58,75
275070,note_on,60,0,1,,,,,,,,,0,,,70,0
275070,note_on,0,0,1,,,,,,,,,0,,,74,88
275082,note_on,0,0,3,,,,,,,,,2,,,62,0
275082,note_on,0,0,3,,,,,,,,,2,,,58,0
275082,note_on,12,0,3,,,,,,,,,2,,,65,0
275130,note_on,0,0,1,,,,,,,,,0,,,77,88
275130,note_on,60,0,1,,,,,,,,,0,,,74,0
275190,note_on,60,0,1,,,,,,,,,0,,,77,0
275190,note_on,0,0,1,,,,,,,,,0,,,81,106
275190,note_on,0,0,1,,,,,,,,,0,,,84,114
275190,note_on,108,0,3,,,,,,,,,2,,,53,75
275310,note_on,0,0,1,,,,,,,,,0,,,81,0
275310,note_on,0,0,1,,,,,,,,,0,,,77,88
275310,note_on,0,0,3,,,,,,,,,2,,,60,75
275310,note_on,0,0,3,,,,,,,,,2,,,63,75
275310,note_on,0,0,3,,,,,,,,,2,,,65,75
275310,note_on,120,0,3,,,,,,,,,2,,,53,0
275310,note_on,120,0,1,,,,,,,,,0,,,84,0
275322,note_on,12,0,3,,,,,,,,,2,,,65,0
275322,note_on,0,0,3,,,,,,,,,2,,,63,0
275322,note_on,0,0,3,,,,,,,,,2,,,60,0
275370,note_on,60,0,1,,,,,,,,,0,,,77,0
275370,note_on,0,0,1,,,,,,,,,0,,,72,88
275430,note_on,0,0,3,,,,,,,,,2,,,65,75
275430,note_on,0,0,3,,,,,,,,,2,,,63,75
275430,note_on,108,0,3,,,,,,,,,2,,,60,75
275430,note_on,0,0,1,,,,,,,,,0,,,77,88
275430,note_on,60,0,1,,,,,,,,,0,,,72,0
275442,note_on,0,0,3,,,,,,,,,2,,,63,0
275442,note_on,0,0,3,,,,,,,,,2,,,60,0
275442,note_on,12,0,3,,,,,,,,,2,,,65,0
275490,note_on,60,0,1,,,,,,,,,0,,,77,0
275490,note_on,0,0,1,,,,,,,,,0,,,81,88
275550,note_on,0,0,1,,,,,,,,,0,,,86,88
275550,note_on,108,0,3,,,,,,,,,2,,,46,75
275550,note_on,0,0,1,,,,,,,,,0,,,82,88
275550,note_on,60,0,1,,,,,,,,,0,,,81,0
275610,note_on,0,0,1,,,,,,,,,0,,,77,88
275610,note_on,0,0,1,,,,,,,,,0,,,82,0
275610,note_on,60,0,1,,,,,,,,,0,,,86,0
275670,note_on,0,0,3,,,,,,,,,2,,,58,75
275670,note_on,0,0,1,,,,,,,,,0,,,74,88
275670,note_on,60,0,1,,,,,,,,,0,,,77,0
275670,note_on,0,0,3,,,,,,,,,2,,,65,75
275670,note_on,0,0,3,,,,,,,,,2,,,62,75
275670,note_on,120,0,3,,,,,,,,,2,,,46,0
275682,note_on,12,0,3,,,,,,,,,2,,,65,0
275682,note_on,0,0,3,,,,,,,,,2,,,62,0
275682,note_on,0,0,3,,,,,,,,,2,,,58,0
275730,note_on,0,0,1,,,,,,,,,0,,,77,88
275730,note_on,60,0,1,,,,,,,,,0,,,74,0
275790,note_on,60,0,1,,,,,,,,,0,,,77,0
275790,note_on,0,0,1,,,,,,,,,0,,,82,88
275790,note_on,108,0,3,,,,,,,,,2,,,58,75
275790,note_on,0,0,3,,,,,,,,,2,,,65,75
275790,note_on,0,0,3,,,,,,,,,2,,,62,75
275802,note_on,0,0,3,,,,,,,,,2,,,58,0
275802,note_on,0,0,3,,,,,,,,,2,,,62,0
275802,note_on,12,0,3,,,,,,,,,2,,,65,0
275850,note_on,60,0,1,,,,,,,,,0,,,82,0
275850,note_on,0,0,1,,,,,,,,,0,,,86,88
275910,note_on,108,0,3,,,,,,,,,2,,,46,88
275910,note_on,60,0,1,,,,,,,,,0,,,86,0
275910,note_on,0,0,1,,,,,,,,,0,,,86,101
275910,note_on,0,0,1,,,,,,,,,0,,,89,101
276030,note_on,120,0,3,,,,,,,,,2,,,46,0
276030,note_on,0,0,3,,,,,,,,,2,,,65,88
276030,note_on,0,0,3,,,,,,,,,2,,,58,88
276030,note_on,120,0,1,,,,,,,,,0,,,89,0
276030,note_on,0,0,1,,,,,,,,,0,,,86,0
276030,note_on,0,0,3,,,,,,,,,2,,,62,88
276030,note_on,0,0,1,,,,,,,,,0,,,86,101
276042,note_on,12,0,3,,,,,,,,,2,,,65,0
276042,note_on,0,0,3,,,,,,,,,2,,,62,0
276042,note_on,0,0,3,,,,,,,,,2,,,58,0
276090,note_on,0,0,1,,,,,,,,,0,,,82,101
276090,note_on,60,0,1,,,,,,,,,0,,,86,0
276150,note_on,0,0,1,,,,,,,,,0,,,86,101
276150,note_on,0,0,3,,,,,,,,,2,,,65,88
276150,note_on,0,0,3,,,,,,,,,2,,,62,88
276150,note_on,108,0,3,,,,,,,,,2,,,58,88
276150,note_on,60,0,1,,,,,,,,,0,,,82,0
276162,note_on,0,0,3,,,,,,,,,2,,,62,0
276162,note_on,0,0,3,,,,,,,,,2,,,58,0
276162,note_on,12,0,3,,,,,,,,,2,,,65,0
276210,note_on,60,0,1,,,,,,,,,0,,,86,0
276210,note_on,0,0,1,,,,,,,,,0,,,89,101
276270,note_on,0,0,1,,,,,,,,,0,,,94,101
276270,note_on,0,0,1,,,,,,,,,0,,,89,101
276270,note_on,108,0,3,,,,,,,,,2,,,46,88
276270,note_on,60,0,1,,,,,,,,,0,,,89,0
276390,note_on,0,0,3,,,,,,,,,2,,,58,88
276390,note_on,0,0,1,,,,,,,,,0,,,89,0
276390,note_on,120,0,1,,,,,,,,,0,,,94,0
276390,note_on,120,0,3,,,,,,,,,2,,,46,0
276390,note_on,0,0,1,,,,,,,,,0,,,86,101
276390,note_on,0,0,3,,,,,,,,,2,,,65,88
276390,note_on,0,0,3,,,,,,,,,2,,,62,88
276402,note_on,0,0,3,,,,,,,,,2,,,58,0
276402,note_on,0,0,3,,,,,,,,,2,,,62,0
276402,note_on,12,0,3,,,,,,,,,2,,,65,0
276450,note_on,60,0,1,,,,,,,,,0,,,86,0
276450,note_on,0,0,1,,,,,,,,,0,,,82,101
276510,note_on,60,0,1,,,,,,,,,0,,,82,0
276510,note_on,0,0,1,,,,,,,,,0,,,86,101
276510,note_on,108,0,3,,,,,,,,,2,,,58,88
276510,note_on,0,0,3,,,,,,,,,2,,,62,88
276510,note_on,0,0,3,,,,,,,,,2,,,65,88
276522,note_on,12,0,3,,,,,,,,,2,,,65,0
276522,note_on,0,0,3,,,,,,,,,2,,,62,0
276522,note_on,0,0,3,,,,,,,,,2,,,58,0
276570,note_on,60,0,1,,,,,,,,,0,,,86,0
276570,note_on,0,0,1,,,,,,,,,0,,,89,101
276630,note_on,108,0,3,,,,,,,,,2,,,53,88
276630,note_on,0,0,1,,,,,,,,,0,,,93,101
276630,note_on,0,0,1,,,,,,,,,0,,,96,101
276630,note_on,60,0,1,,,,,,,,,0,,,89,0
276690,note_on,0,0,1,,,,,,,,,0,,,93,0
276690,note_on,0,0,1,,,,,,,,,0,,,89,101
276690,note_on,60,0,1,,,,,,,,,0,,,96,0
276750,note_on,0,0,3,,,,,,,,,2,,,65,88
276750,note_on,0,0,1,,,,,,,,,0,,,94,101
276750,note_on,0,0,1,,,,,,,,,0,,,98,101
276750,note_on,0,0,3,,,,,,,,,2,,,63,88
276750,note_on,0,0,3,,,,,,,,,2,,,60,88
276750,note_on,120,0,3,,,,,,,,,2,,,53,0
276750,note_on,60,0,1,,,,,,,,,0,,,89,0
276762,note_on,0,0,3,,,,,,,,,2,,,60,0
276762,note_on,0,0,3,,,,,,,,,2,,,63,0
276762,note_on,12,0,3,,,,,,,,,2,,,65,0
276810,note_on,60,0,1,,,,,,,,,0,,,98,0
276810,note_on,0,0,1,,,,,,,,,0,,,94,0
276810,note_on,0,0,1,,,,,,,,,0,,,89,101
276870,note_on,0,0,3,,,,,,,,,2,,,65,88
276870,note_on,0,0,1,,,,,,,,,0,,,93,101
276870,note_on,0,0,1,,,,,,,,,0,,,96,101
276870,note_on,0,0,3,,,,,,,,,2,,,63,88
276870,note_on,60,0,1,,,,,,,,,0,,,89,0
276870,note_on,108,0,3,,,,,,,,,2,,,60,88
276882,note_on,0,0,3,,,,,,,,,2,,,60,0
276882,note_on,0,0,3,,,,,,,,,2,,,63,0
276882,note_on,12,0,3,,,,,,,,,2,,,65,0
276930,note_on,60,0,1,,,,,,,,,0,,,96,0
276930,note_on,0,0,1,,,,,,,,,0,,,93,0
276930,note_on,0,0,1,,,,,,,,,0,,,89,101
276990,note_on,60,0,1,,,,,,,,,0,,,89,0
276990,note_on,108,0,3,,,,,,,,,2,,,46,88
276990,note_on,0,0,1,,,,,,,,,0,,,94,101
277110,note_on,120,0,3,,,,,,,,,2,,,46,0
277110,note_on,0,0,3,,,,,,,,,2,,,58,88
277110,note_on,0,0,3,,,,,,,,,2,,,62,88
277110,note_on,0,0,3,,,,,,,,,2,,,65,88
277230,note_on,120,0,3,,,,,,,,,2,,,65,0
277230,note_on,0,0,3,,,,,,,,,2,,,62,0
277230,note_on,0,0,3,,,,,,,,,2,,,58,0
277230,note_on,240,0,1,,,,,,,,,0,,,94,0
277230,note_on,0,0,1,,,,,,,,,0,,,70,36
277350,note_on,0,0,1,,,,,,,,,0,,,79,62
277350,note_on,120,0,3,,,,,,,,,2,,,51,36
277350,note_on,120,0,1,,,,,,,,,0,,,70,0
277470,note_on,0,0,3,,,,,,,,,2,,,63,36
277470,note_on,0,0,3,,,,,,,,,2,,,58,36
277470,note_on,120,0,3,,,,,,,,,2,,,51,0
277470,note_on,0,0,1,,,,,,,,,0,,,70,36
277470,note_on,120,0,1,,,,,,,,,0,,,79,0
277482,note_on,0,0,3,,,,,,,,,2,,,58,0
277482,note_on,12,0,3,,,,,,,,,2,,,63,0
277530,note_on,0,0,1,,,,,,,,,0,,,67,36
277530,note_on,60,0,1,,,,,,,,,0,,,70,0
277590,note_on,0,0,1,,,,,,,,,0,,,70,36
277590,note_on,0,0,3,,,,,,,,,2,,,63,36
277590,note_on,108,0,3,,,,,,,,,2,,,58,36
277590,note_on,60,0,1,,,,,,,,,0,,,67,0
277602,note_on,0,0,3,,,,,,,,,2,,,58,0
277602,note_on,12,0,3,,,,,,,,,2,,,63,0
277650,note_on,0,0,1,,,,,,,,,0,,,79,36
277650,note_on,60,0,1,,,,,,,,,0,,,70,0
277710,note_on,0,0,1,,,,,,,,,0,,,82,62
277710,note_on,108,0,3,,,,,,,,,2,,,55,36
277710,note_on,60,0,1,,,,,,,,,0,,,79,0
277830,note_on,0,0,1,,,,,,,,,0,,,75,36
277830,note_on,120,0,1,,,,,,,,,0,,,82,0
277830,note_on,0,0,3,,,,,,,,,2,,,63,36
277830,note_on,0,0,3,,,,,,,,,2,,,58,36
277830,note_on,120,0,3,,,,,,,,,2,,,55,0
277842,note_on,0,0,3,,,,,,,,,2,,,58,0
277842,note_on,12,0,3,,,,,,,,,2,,,63,0
277890,note_on,60,0,1,,,,,,,,,0,,,75,0
277890,note_on,0,0,1,,,,,,,,,0,,,70,36
277950,note_on,0,0,3,,,,,,,,,2,,,63,36
277950,note_on,108,0,3,,,,,,,,,2,,,58,36
277950,note_on,60,0,1,,,,,,,,,0,,,70,0
277950,note_on,0,0,1,,,,,,,,,0,,,75,36
277962,note_on,12,0,3,,,,,,,,,2,,,63,0
277962,note_on,0,0,3,,,,,,,,,2,,,58,0
278010,note_on,60,0,1,,,,,,,,,0,,,75,0
278010,note_on,0,0,1,,,,,,,,,0,,,82,36
278070,note_on,0,0,1,,,,,,,,,0,,,80,62
278070,note_on,60,0,1,,,,,,,,,0,,,82,0
278070,note_on,108,0,3,,,,,,,,,2,,,53,36
278190,note_on,0,0,3,,,,,,,,,2,,,62,36
278190,note_on,0,0,3,,,,,,,,,2,,,58,36
278190,note_on,120,0,3,,,,,,,,,2,,,53,0
278190,note_on,120,0,1,,,,,,,,,0,,,80,0
278190,note_on,0,0,1,,,,,,,,,0,,,74,36
278202,note_on,12,0,3,,,,,,,,,2,,,62,0
278202,note_on,0,0,3,,,,,,,,,2,,,58,0
278250,note_on,0,0,1,,,,,,,,,0,,,70,36
278250,note_on,60,0,1,,,,,,,,,0,,,74,0
278310,note_on,0,0,3,,,,,,,,,2,,,62,36
278310,note_on,108,0,3,,,,,,,,,2,,,58,36
278310,note_on,0,0,1,,,,,,,,,0,,,74,36
278310,note_on,60,0,1,,,,,,,,,0,,,70,0
278322,note_on,12,0,3,,,,,,,,,2,,,62,0
278322,note_on,0,0,3,,,,,,,,,2,,,58,0
278370,note_on,60,0,1,,,,,,,,,0,,,74,0
278370,note_on,0,0,1,,,,,,,,,0,,,80,36
278430,note_on,108,0,3,,,,,,,,,2,,,52,36
278430,note_on,0,0,1,,,,,,,,,0,,,79,62
278430,note_on,60,0,1,,,,,,,,,0,,,80,0
278550,note_on,120,0,1,,,,,,,,,0,,,79,0
278550,note_on,0,0,1,,,,,,,,,0,,,73,36
278550,note_on,0,0,3,,,,,,,,,2,,,61,36
278550,note_on,0,0,3,,,,,,,,,2,,,58,36
278550,note_on,120,0,3,,,,,,,,,2,,,52,0
278562,note_on,0,0,3,,,,,,,,,2,,,58,0
278562,note_on,12,0,3,,,,,,,,,2,,,61,0
278610,note_on,60,0,1,,,,,,,,,0,,,73,0
278610,note_on,0,0,1,,,,,,,,,0,,,70,36
278670,note_on,60,0,1,,,,,,,,,0,,,70,0
278670,note_on,0,0,1,,,,,,,,,0,,,73,36
278670,note_on,108,0,3,,,,,,,,,2,,,58,36
278670,note_on,0,0,3,,,,,,,,,2,,,61,36
278682,note_on,12,0,3,,,,,,,,,2,,,61,0
278682,note_on,0,0,3,,,,,,,,,2,,,58,0
278730,note_on,0,0,1,,,,,,,,,0,,,79,36
278730,note_on,60,0,1,,,,,,,,,0,,,73,0
278790,note_on,60,0,1,,,,,,,,,0,,,79,0
278790,note_on,108,0,3,,,,,,,,,2,,,53,36
278790,note_on,0,0,1,,,,,,,,,0,,,79,62
278910,note_on,0,0,3,,,,,,,,,2,,,60,36
278910,note_on,0,0,3,,,,,,,,,2,,,56,36
278910,note_on,120,0,3,,,,,,,,,2,,,53,0
278910,note_on,120,0,1,,,,,,,,,0,,,79,0
278910,note_on,0,0,1,,,,,,,,,0,,,72,36
278922,note_on,0,0,3,,,,,,,,,2,,,56,0
278922,note_on,12,0,3,,,,,,,,,2,,,60,0
278970,note_on,0,0,1,,,,,,,,,0,,,68,36
278970,note_on,60,0,1,,,,,,,,,0,,,72,0
279030,note_on,0,0,1,,,,,,,,,0,,,72,36
279030,note_on,60,0,1,,,,,,,,,0,,,68,0
279030,note_on,0,0,3,,,,,,,,,2,,,60,36
279030,note_on,108,0,3,,,,,,,,,2,,,56,36
279042,note_on,0,0,3,,,,,,,,,2,,,56,0
279042,note_on,12,0,3,,,,,,,,,2,,,60,0
279090,note_on,0,0,1,,,,,,,,,0,,,79,36
279090,note_on,60,0,1,,,,,,,,,0,,,72,0
279150,note_on,0,0,1,,,,,,,,,0,,,77,62
279150,note_on,108,0,3,,,,,,,,,2,,,44,36
279150,note_on,60,0,1,,,,,,,,,0,,,79,0
279270,note_on,120,0,1,,,,,,,,,0,,,77,0
279270,note_on,120,0,3,,,,,,,,,2,,,44,0
279270,note_on,0,0,3,,,,,,,,,2,,,56,36
279270,note_on,0,0,3,,,,,,,,,2,,,59,36
279270,note_on,0,0,1,,,,,,,,,0,,,71,36
279282,note_on,0,0,3,,,,,,,,,2,,,56,0
279282,note_on,12,0,3,,,,,,,,,2,,,59,0
279330,note_on,60,0,1,,,,,,,,,0,,,71,0
279330,note_on,0,0,1,,,,,,,,,0,,,68,36
279390,note_on,108,0,3,,,,,,,,,2,,,56,36
279390,note_on,0,0,3,,,,,,,,,2,,,59,36
279390,note_on,0,0,1,,,,,,,,,0,,,71,36
279390,note_on,60,0,1,,,,,,,,,0,,,68,0
279402,note_on,0,0,3,,,,,,,,,2,,,56,0
279402,note_on,12,0,3,,,,,,,,,2,,,59,0
279450,note_on,0,0,1,,,,,,,,,0,,,77,36
279450,note_on,60,0,1,,,,,,,,,0,,,71,0
279510,note_on,0,0,1,,,,,,,,,0,,,74,62
279510,note_on,60,0,1,,,,,,,,,0,,,77,0
279510,note_on,108,0,3,,,,,,,,,2,,,46,36
279630,note_on,0,0,1,,,,,,,,,0,,,70,36
279630,note_on,120,0,1,,,,,,,,,0,,,74,0
279630,note_on,0,0,3,,,,,,,,,2,,,62,36
279630,note_on,0,0,3,,,,,,,,,2,,,58,36
279630,note_on,0,0,3,,,,,,,,,2,,,56,36
279630,note_on,120,0,3,,,,,,,,,2,,,46,0
279642,note_on,0,0,3,,,,,,,,,2,,,56,0
279642,note_on,0,0,3,,,,,,,,,2,,,58,0
279642,note_on,12,0,3,,,,,,,,,2,,,62,0
279690,note_on,0,0,1,,,,,,,,,0,,,68,36
279690,note_on,60,0,1,,,,,,,,,0,,,70,0
279750,note_on,0,0,1,,,,,,,,,0,,,70,36
279750,note_on,0,0,3,,,,,,,,,2,,,58,36
279750,note_on,0,0,3,,,,,,,,,2,,,62,36
279750,note_on,108,0,3,,,,,,,,,2,,,56,36
279750,note_on,60,0,1,,,,,,,,,0,,,68,0
279762,note_on,0,0,3,,,,,,,,,2,,,58,0
279762,note_on,0,0,3,,,,,,,,,2,,,56,0
279762,note_on,12,0,3,,,,,,,,,2,,,62,0
279810,note_on,60,0,1,,,,,,,,,0,,,70,0
279810,note_on,0,0,1,,,,,,,,,0,,,77,36
279870,note_on,108,0,3,,,,,,,,,2,,,51,36
279870,note_on,0,0,1,,,,,,,,,0,,,70,36
279870,time_signature,5400,1,0,2,4,24,8,,,,,,,,,
279870,note_on,60,0,1,,,,,,,,,0,,,77,0
279870,note_on,0,0,1,,,,,,,,,0,,,67,36
279870,note_on,0,0,1,,,,,,,,,0,,,75,36
279990,note_on,0,0,3,,,,,,,,,2,,,58,36
279990,note_on,120,0,3,,,,,,,,,2,,,51,0
279990,note_on,0,0,3,,,,,,,,,2,,,63,36
279990,note_on,0,0,3,,,,,,,,,2,,,55,36
280110,note_on,0,0,1,,,,,,,,,0,,,67,0
280110,note_on,0,0,1,,,,,,,,,0,,,70,0
280110,time_signature,240,1,0,1,4,24,8,,,,,,,,,
280110,note_on,0,0,3,,,,,,,,,2,,,58,0
280110,note_on,0,0,3,,,,,,,,,2,,,55,0
280110,note_on,120,0,3,,,,,,,,,2,,,63,0
280110,note_on,0,0,1,,,,,,,,,0,,,70,36
280110,note_on,240,0,1,,,,,,,,,0,,,75,0
280230,note_on,120,0,3,,,,,,,,,2,,,46,75
280230,time_signature,120,1,0,3,4,24,8,,,,,,,,,
280230,note_on,0,0,1,,,,,,,,,0,,,77,114
280230,note_on,120,0,1,,,,,,,,,0,,,70,0
280230,note_on,0,0,1,,,,,,,,,0,,,74,106
280350,note_on,0,0,1,,,,,,,,,0,,,70,88
280350,note_on,0,0,1,,,,,,,,,0,,,74,0
280350,note_on,120,0,1,,,,,,,,,0,,,77,0
280350,note_on,0,0,3,,,,,,,,,2,,,65,75
280350,note_on,120,0,3,,,,,,,,,2,,,46,0
280350,note_on,0,0,3,,,,,,,,,2,,,58,75
280350,note_on,0,0,3,,,,,,,,,2,,,62,75
280362,note_on,0,0,3,,,,,,,,,2,,,58,0
280362,note_on,0,0,3,,,,,,,,,2,,,62,0
280362,note_on,12,0,3,,,,,,,,,2,,,65,0
280410,note_on,60,0,1,,,,,,,,,0,,,70,0
280410,note_on,0,0,1,,,,,,,,,0,,,65,88
280470,note_on,60,0,1,,,,,,,,,0,,,65,0
280470,note_on,0,0,1,,,,,,,,,0,,,70,88
280470,note_on,0,0,3,,,,,,,,,2,,,65,75
280470,note_on,108,0,3,,,,,,,,,2,,,58,75
280470,note_on,0,0,3,,,,,,,,,2,,,62,75
280482,note_on,12,0,3,,,,,,,,,2,,,65,0
280482,note_on,0,0,3,,,,,,,,,2,,,58,0
280482,note_on,0,0,3,,,,,,,,,2,,,62,0
280530,note_on,0,0,1,,,,,,,,,0,,,74,88
280530,note_on,60,0,1,,,,,,,,,0,,,70,0
280590,note_on,60,0,1,,,,,,,,,0,,,74,0
280590,note_on,0,0,1,,,,,,,,,0,,,77,106
280590,note_on,0,0,1,,,,,,,,,0,,,82,114
280590,note_on,108,0,3,,,,,,,,,2,,,46,75
280710,note_on,120,0,1,,,,,,,,,0,,,82,0
280710,note_on,0,0,1,,,,,,,,,0,,,77,0
280710,note_on,0,0,1,,,,,,,,,0,,,74,88
280710,note_on,120,0,3,,,,,,,,,2,,,46,0
280710,note_on,0,0,3,,,,,,,,,2,,,58,75
280710,note_on,0,0,3,,,,,,,,,2,,,65,75
280710,note_on,0,0,3,,,,,,,,,2,,,62,75
280722,note_on,12,0,3,,,,,,,,,2,,,65,0
280722,note_on,0,0,3,,,,,,,,,2,,,62,0
280722,note_on,0,0,3,,,,,,,,,2,,,58,0
280770,note_on,60,0,1,,,,,,,,,0,,,74,0
280770,note_on,0,0,1,,,,,,,,,0,,,70,88
280830,note_on,60,0,1,,,,,,,,,0,,,70,0
280830,note_on,0,0,1,,,,,,,,,0,,,74,88
280830,note_on,108,0,3,,,,,,,,,2,,,58,75
280830,note_on,0,0,3,,,,,,,,,2,,,62,75
280830,note_on,0,0,3,,,,,,,,,2,,,65,75
280842,note_on,12,0,3,,,,,,,,,2,,,65,0
280842,note_on,0,0,3,,,,,,,,,2,,,62,0
280842,note_on,0,0,3,,,,,,,,,2,,,58,0
280890,note_on,60,0,1,,,,,,,,,0,,,74,0
280890,note_on,0,0,1,,,,,,,,,0,,,77,88
280950,note_on,0,0,1,,,,,,,,,0,,,84,114
280950,note_on,0,0,1,,,,,,,,,0,,,81,106
280950,note_on,60,0,1,,,,,,,,,0,,,77,0
280950,note_on,108,0,3,,,,,,,,,2,,,53,75
281070,note_on,0,0,3,,,,,,,,,2,,,65,75
281070,note_on,0,0,1,,,,,,,,,0,,,77,88
281070,note_on,0,0,3,,,,,,,,,2,,,63,75
281070,note_on,120,0,3,,,,,,,,,2,,,53,0
281070,note_on,0,0,3,,,,,,,,,2,,,60,75
281070,note_on,0,0,1,,,,,,,,,0,,,81,0
281070,note_on,120,0,1,,,,,,,,,0,,,84,0
281082,note_on,0,0,3,,,,,,,,,2,,,60,0
281082,note_on,0,0,3,,,,,,,,,2,,,63,0
281082,note_on,12,0,3,,,,,,,,,2,,,65,0
281130,note_on,0,0,1,,,,,,,,,0,,,72,88
281130,note_on,60,0,1,,,,,,,,,0,,,77,0
281190,note_on,60,0,1,,,,,,,,,0,,,72,0
281190,note_on,0,0,3,,,,,,,,,2,,,65,75
281190,note_on,0,0,3,,,,,,,,,2,,,63,75
281190,note_on,108,0,3,,,,,,,,,2,,,60,75
281190,note_on,0,0,1,,,,,,,,,0,,,77,88
281202,note_on,0,0,3,,,,,,,,,2,,,60,0
281202,note_on,0,0,3,,,,,,,,,2,,,63,0
281202,note_on,12,0,3,,,,,,,,,2,,,65,0
281250,note_on,60,0,1,,,,,,,,,0,,,77,0
281250,note_on,0,0,1,,,,,,,,,0,,,81,88
281310,note_on,0,0,1,,,,,,,,,0,,,82,88
281310,note_on,60,0,1,,,,,,,,,0,,,81,0
281310,note_on,0,0,1,,,,,,,,,0,,,86,88
281310,note_on,108,0,3,,,,,,,,,2,,,46,75
281370,note_on,60,0,1,,,,,,,,,0,,,86,0
281370,note_on,0,0,1,,,,,,,,,0,,,82,0
281370,note_on,0,0,1,,,,,,,,,0,,,77,88
281430,note_on,0,0,3,,,,,,,,,2,,,65,75
281430,note_on,120,0,3,,,,,,,,,2,,,46,0
281430,note_on,0,0,3,,,,,,,,,2,,,62,75
281430,note_on,0,0,3,,,,,,,,,2,,,58,75
281430,note_on,0,0,1,,,,,,,,,0,,,74,88
281430,note_on,60,0,1,,,,,,,,,0,,,77,0
281442,note_on,0,0,3,,,,,,,,,2,,,58,0
281442,note_on,0,0,3,,,,,,,,,2,,,62,0
281442,note_on,12,0,3,,,,,,,,,2,,,65,0
281490,note_on,60,0,1,,,,,,,,,0,,,74,0
281490,note_on,0,0,1,,,,,,,,,0,,,77,88
281550,note_on,0,0,3,,,,,,,,,2,,,65,75
281550,note_on,0,0,3,,,,,,,,,2,,,62,75
281550,note_on,108,0,3,,,,,,,,,2,,,58,75
281550,note_on,60,0,1,,,,,,,,,0,,,77,0
281550,note_on,0,0,1,,,,,,,,,0,,,82,88
281562,note_on,0,0,3,,,,,,,,,2,,,58,0
281562,note_on,0,0,3,,,,,,,,,2,,,62,0
281562,note_on,12,0,3,,,,,,,,,2,,,65,0
281610,note_on,0,0,1,,,,,,,,,0,,,86,88
281610,note_on,60,0,1,,,,,,,,,0,,,82,0
281670,note_on,60,0,1,,,,,,,,,0,,,86,0
281670,note_on,108,0,3,,,,,,,,,2,,,46,88
281670,note_on,0,0,1,,,,,,,,,0,,,89,101
281670,note_on,0,0,1,,,,,,,,,0,,,86,101
281790,note_on,0,0,1,,,,,,,,,0,,,86,101
281790,note_on,0,0,1,,,,,,,,,0,,,86,0
281790,note_on,120,0,1,,,,,,,,,0,,,89,0
281790,note_on,0,0,3,,,,,,,,,2,,,58,88
281790,note_on,0,0,3,,,,,,,,,2,,,62,88
281790,note_on,0,0,3,,,,,,,,,2,,,65,88
281790,note_on,120,0,3,,,,,,,,,2,,,46,0
281802,note_on,12,0,3,,,,,,,,,2,,,65,0
281802,note_on,0,0,3,,,,,,,,,2,,,58,0
281802,note_on,0,0,3,,,,,,,,,2,,,62,0
281850,note_on,60,0,1,,,,,,,,,0,,,86,0
281850,note_on,0,0,1,,,,,,,,,0,,,82,101
281910,note_on,0,0,1,,,,,,,,,0,,,86,101
281910,note_on,60,0,1,,,,,,,,,0,,,82,0
281910,note_on,0,0,3,,,,,,,,,2,,,65,88
281910,note_on,0,0,3,,,,,,,,,2,,,62,88
281910,note_on,108,0,3,,,,,,,,,2,,,58,88
281922,note_on,0,0,3,,,,,,,,,2,,,62,0
281922,note_on,0,0,3,,,,,,,,,2,,,58,0
281922,note_on,12,0,3,,,,,,,,,2,,,65,0
281970,note_on,60,0,1,,,,,,,,,0,,,86,0
281970,note_on,0,0,1,,,,,,,,,0,,,89,101
282030,note_on,108,0,3,,,,,,,,,2,,,46,88
282030,note_on,0,0,1,,,,,,,,,0,,,89,101
282030,note_on,0,0,1,,,,,,,,,0,,,94,101
282030,note_on,60,0,1,,,,,,,,,0,,,89,0
282150,note_on,0,0,3,,,,,,,,,2,,,65,88
282150,note_on,0,0,3,,,,,,,,,2,,,62,88
282150,note_on,0,0,3,,,,,,,,,2,,,58,88
282150,note_on,120,0,3,,,,,,,,,2,,,46,0
282150,note_on,120,0,1,,,,,,,,,0,,,94,0
282150,note_on,0,0,1,,,,,,,,,0,,,89,0
282150,note_on,0,0,1,,,,,,,,,0,,,86,101
282162,note_on,12,0,3,,,,,,,,,2,,,65,0
282162,note_on,0,0,3,,,,,,,,,2,,,62,0
282162,note_on,0,0,3,,,,,,,,,2,,,58,0
282210,note_on,60,0,1,,,,,,,,,0,,,86,0
282210,note_on,0,0,1,,,,,,,,,0,,,82,101
282270,note_on,0,0,3,,,,,,,,,2,,,65,88
282270,note_on,0,0,3,,,,,,,,,2,,,62,88
282270,note_on,108,0,3,,,,,,,,,2,,,58,88
282270,note_on,0,0,1,,,,,,,,,0,,,86,101
282270,note_on,60,0,1,,,,,,,,,0,,,82,0
282282,note_on,0,0,3,,,,,,,,,2,,,58,0
282282,note_on,0,0,3,,,,,,,,,2,,,62,0
282282,note_on,12,0,3,,,,,,,,,2,,,65,0
282330,note_on,60,0,1,,,,,,,,,0,,,86,0
282330,note_on,0,0,1,,,,,,,,,0,,,89,101
282390,note_on,0,0,1,,,,,,,,,0,,,93,101
282390,note_on,108,0,3,,,,,,,,,2,,,53,88
282390,note_on,60,0,1,,,,,,,,,0,,,89,0
282390,note_on,0,0,1,,,,,,,,,0,,,96,101
282450,note_on,0,0,1,,,,,,,,,0,,,89,101
282450,note_on,0,0,1,,,,,,,,,0,,,93,0
282450,note_on,60,0,1,,,,,,,,,0,,,96,0
282510,note_on,0,0,3,,,,,,,,,2,,,65,88
282510,note_on,0,0,3,,,,,,,,,2,,,63,88
282510,note_on,0,0,3,,,,,,,,,2,,,60,88
282510,note_on,120,0,3,,,,,,,,,2,,,53,0
282510,note_on,0,0,1,,,,,,,,,0,,,98,101
282510,note_on,0,0,1,,,,,,,,,0,,,94,101
282510,note_on,60,0,1,,,,,,,,,0,,,89,0
282522,note_on,0,0,3,,,,,,,,,2,,,60,0
282522,note_on,0,0,3,,,,,,,,,2,,,63,0
282522,note_on,12,0,3,,,,,,,,,2,,,65,0
282570,note_on,0,0,1,,,,,,,,,0,,,89,101
282570,note_on,60,0,1,,,,,,,,,0,,,98,0
282570,note_on,0,0,1,,,,,,,,,0,,,94,0
282630,note_on,0,0,1,,,,,,,,,0,,,96,101
282630,note_on,0,0,1,,,,,,,,,0,,,93,101
282630,note_on,60,0,1,,,,,,,,,0,,,89,0
282630,note_on,0,0,3,,,,,,,,,2,,,65,88
282630,note_on,0,0,3,,,,,,,,,2,,,63,88
282630,note_on,108,0,3,,,,,,,,,2,,,60,88
282642,note_on,0,0,3,,,,,,,,,2,,,60,0
282642,note_on,0,0,3,,,,,,,,,2,,,63,0
282642,note_on,12,0,3,,,,,,,,,2,,,65,0
282690,note_on,0,0,1,,,,,,,,,0,,,89,101
282690,note_on,0,0,1,,,,,,,,,0,,,93,0
282690,note_on,60,0,1,,,,,,,,,0,,,96,0
282750,note_on,0,0,1,,,,,,,,,0,,,94,101
282750,note_on,108,0,3,,,,,,,,,2,,,46,88
282750,note_on,60,0,1,,,,,,,,,0,,,89,0
282870,note_on,0,0,3,,,,,,,,,2,,,65,88
282870,note_on,0,0,3,,,,,,,,,2,,,62,88
282870,note_on,0,0,3,,,,,,,,,2,,,58,88
282870,note_on,120,0,3,,,,,,,,,2,,,46,0
282990,note_on,0,0,3,,,,,,,,,2,,,58,0
282990,note_on,0,0,3,,,,,,,,,2,,,62,0
282990,note_on,240,0,1,,,,,,,,,0,,,94,0
282990,note_on,0,0,1,,,,,,,,,0,,,70,36
282990,note_on,120,0,3,,,,,,,,,2,,,65,0
283110,note_on,0,0,1,,,,,,,,,0,,,79,62
283110,note_on,120,0,1,,,,,,,,,0,,,70,0
283110,note_on,120,0,3,,,,,,,,,2,,,51,36
283230,note_on,0,0,3,,,,,,,,,2,,,63,36
283230,note_on,0,0,1,,,,,,,,,0,,,70,36
283230,note_on,120,0,1,,,,,,,,,0,,,79,0
283230,note_on,0,0,3,,,,,,,,,2,,,58,36
283230,note_on,120,0,3,,,,,,,,,2,,,51,0
283242,note_on,0,0,3,,,,,,,,,2,,,58,0
283242,note_on,12,0,3,,,,,,,,,2,,,63,0
283290,note_on,0,0,1,,,,,,,,,0,,,67,36
283290,note_on,60,0,1,,,,,,,,,0,,,70,0
283350,note_on,108,0,3,,,,,,,,,2,,,58,36
283350,note_on,0,0,3,,,,,,,,,2,,,63,36
283350,note_on,0,0,1,,,,,,,,,0,,,70,36
283350,note_on,60,0,1,,,,,,,,,0,,,67,0
283362,note_on,0,0,3,,,,,,,,,2,,,58,0
283362,note_on,12,0,3,,,,,,,,,2,,,63,0
283410,note_on,60,0,1,,,,,,,,,0,,,70,0
283410,note_on,0,0,1,,,,,,,,,0,,,79,36
283470,note_on,108,0,3,,,,,,,,,2,,,55,36
283470,note_on,0,0,1,,,,,,,,,0,,,82,62
283470,note_on,60,0,1,,,,,,,,,0,,,79,0
283590,note_on,120,0,3,,,,,,,,,2,,,55,0
283590,note_on,0,0,3,,,,,,,,,2,,,63,36
283590,note_on,0,0,3,,,,,,,,,2,,,58,36
283590,note_on,0,0,1,,,,,,,,,0,,,75,36
283590,note_on,120,0,1,,,,,,,,,0,,,82,0
283602,note_on,0,0,3,,,,,,,,,2,,,58,0
283602,note_on,12,0,3,,,,,,,,,2,,,63,0
283650,note_on,60,0,1,,,,,,,,,0,,,75,0
283650,note_on,0,0,1,,,,,,,,,0,,,70,36
283710,note_on,0,0,1,,,,,,,,,0,,,75,36
283710,note_on,60,0,1,,,,,,,,,0,,,70,0
283710,note_on,0,0,3,,,,,,,,,2,,,63,36
283710,note_on,108,0,3,,,,,,,,,2,,,58,36
283722,note_on,12,0,3,,,,,,,,,2,,,63,0
283722,note_on,0,0,3,,,,,,,,,2,,,58,0
283770,note_on,60,0,1,,,,,,,,,0,,,75,0
283770,note_on,0,0,1,,,,,,,,,0,,,82,36
283830,note_on,60,0,1,,,,,,,,,0,,,82,0
283830,note_on,0,0,1,,,,,,,,,0,,,80,62
283830,note_on,108,0,3,,,,,,,,,2,,,53,36
283950,note_on,0,0,1,,,,,,,,,0,,,74,36
283950,note_on,0,0,3,,,,,,,,,2,,,58,36
283950,note_on,0,0,3,,,,,,,,,2,,,62,36
283950,note_on,120,0,3,,,,,,,,,2,,,53,0
283950,note_on,120,0,1,,,,,,,,,0,,,80,0
283962,note_on,12,0,3,,,,,,,,,2,,,62,0
283962,note_on,0,0,3,,,,,,,,,2,,,58,0
284010,note_on,0,0,1,,,,,,,,,0,,,70,36
284010,note_on,60,0,1,,,,,,,,,0,,,74,0
284070,note_on,108,0,3,,,,,,,,,2,,,58,36
284070,note_on,60,0,1,,,,,,,,,0,,,70,0
284070,note_on,0,0,1,,,,,,,,,0,,,74,36
284070,note_on,0,0,3,,,,,,,,,2,,,62,36
284082,note_on,12,0,3,,,,,,,,,2,,,62,0
284082,note_on,0,0,3,,,,,,,,,2,,,58,0
284130,note_on,60,0,1,,,,,,,,,0,,,74,0
284130,note_on,0,0,1,,,,,,,,,0,,,80,36
284190,note_on,0,0,1,,,,,,,,,0,,,79,62
284190,note_on,108,0,3,,,,,,,,,2,,,52,36
284190,note_on,60,0,1,,,,,,,,,0,,,80,0
284310,note_on,120,0,1,,,,,,,,,0,,,79,0
284310,note_on,120,0,3,,,,,,,,,2,,,52,0
284310,note_on,0,0,3,,,,,,,,,2,,,58,36
284310,note_on,0,0,3,,,,,,,,,2,,,61,36
284310,note_on,0,0,1,,,,,,,,,0,,,73,36
284322,note_on,0,0,3,,,,,,,,,2,,,58,0
284322,note_on,12,0,3,,,,,,,,,2,,,61,0
284370,note_on,60,0,1,,,,,,,,,0,,,73,0
284370,note_on,0,0,1,,,,,,,,,0,,,70,36
284430,note_on,0,0,1,,,,,,,,,0,,,73,36
284430,note_on,0,0,3,,,,,,,,,2,,,61,36
284430,note_on,108,0,3,,,,,,,,,2,,,58,36
284430,note_on,60,0,1,,,,,,,,,0,,,70,0
284442,note_on,12,0,3,,,,,,,,,2,,,61,0
284442,note_on,0,0,3,,,,,,,,,2,,,58,0
284490,note_on,60,0,1,,,,,,,,,0,,,73,0
284490,note_on,0,0,1,,,,,,,,,0,,,79,36
284550,note_on,60,0,1,,,,,,,,,0,,,79,0
284550,note_on,0,0,1,,,,,,,,,0,,,79,62
284550,note_on,108,0,3,,,,,,,,,2,,,53,36
284670,note_on,120,0,1,,,,,,,,,0,,,79,0
284670,note_on,0,0,1,,,,,,,,,0,,,72,36
284670,note_on,0,0,3,,,,,,,,,2,,,60,36
284670,note_on,0,0,3,,,,,,,,,2,,,56,36
284670,note_on,120,0,3,,,,,,,,,2,,,53,0
284682,note_on,0,0,3,,,,,,,,,2,,,56,0
284682,note_on,12,0,3,,,,,,,,,2,,,60,0
284730,note_on,60,0,1,,,,,,,,,0,,,72,0
284730,note_on,0,0,1,,,,,,,,,0,,,68,36
284790,note_on,108,0,3,,,,,,,,,2,,,56,36
284790,note_on,0,0,1,,,,,,,,,0,,,72,36
284790,note_on,60,0,1,,,,,,,,,0,,,68,0
284790,note_on,0,0,3,,,,,,,,,2,,,60,36
284802,note_on,0,0,3,,,,,,,,,2,,,56,0
284802,note_on,12,0,3,,,,,,,,,2,,,60,0
284850,note_on,0,0,1,,,,,,,,,0,,,79,36
284850,note_on,60,0,1,,,,,,,,,0,,,72,0
284910,note_on,108,0,3,,,,,,,,,2,,,44,36
284910,note_on,0,0,1,,,,,,,,,0,,,77,62
284910,note_on,60,0,1,,,,,,,,,0,,,79,0
285030,note_on,0,0,3,,,,,,,,,2,,,56,36
285030,note_on,120,0,3,,,,,,,,,2,,,44,0
285030,note_on,0,0,3,,,,,,,,,2,,,59,36
285030,note_on,120,0,1,,,,,,,,,0,,,77,0
285030,note_on,0,0,1,,,,,,,,,0,,,71,36
285042,note_on,0,0,3,,,,,,,,,2,,,56,0
285042,note_on,12,0,3,,,,,,,,,2,,,59,0
285090,note_on,60,0,1,,,,,,,,,0,,,71,0
285090,note_on,0,0,1,,,,,,,,,0,,,68,36
285150,note_on,60,0,1,,,,,,,,,0,,,68,0
285150,note_on,0,0,1,,,,,,,,,0,,,71,36
285150,note_on,0,0,3,,,,,,,,,2,,,59,36
285150,note_on,108,0,3,,,,,,,,,2,,,56,36
285162,note_on,0,0,3,,,,,,,,,2,,,56,0
285162,note_on,12,0,3,,,,,,,,,2,,,59,0
285210,note_on,60,0,1,,,,,,,,,0,,,71,0
285210,note_on,0,0,1,,,,,,,,,0,,,77,36
285270,note_on,60,0,1,,,,,,,,,0,,,77,0
285270,note_on,0,0,1,,,,,,,,,0,,,74,62
285270,note_on,108,0,3,,,,,,,,,2,,,46,36
285390,note_on,120,0,3,,,,,,,,,2,,,46,0
285390,note_on,0,0,3,,,,,,,,,2,,,56,36
285390,note_on,120,0,1,,,,,,,,,0,,,74,0
285390,note_on,0,0,3,,,,,,,,,2,,,58,36
285390,note_on,0,0,3,,,,,,,,,2,,,62,36
285390,note_on,0,0,1,,,,,,,,,0,,,70,36
285402,note_on,12,0,3,,,,,,,,,2,,,62,0
285402,note_on,0,0,3,,,,,,,,,2,,,56,0
285402,note_on,0,0,3,,,,,,,,,2,,,58,0
285450,note_on,0,0,1,,,,,,,,,0,,,68,36
285450,note_on,60,0,1,,,,,,,,,0,,,70,0
285510,note_on,0,0,1,,,,,,,,,0,,,70,36
285510,note_on,108,0,3,,,,,,,,,2,,,56,36
285510,note_on,0,0,3,,,,,,,,,2,,,58,36
285510,note_on,0,0,3,,,,,,,,,2,,,62,36
285510,note_on,60,0,1,,,,,,,,,0,,,68,0
285522,note_on,0,0,3,,,,,,,,,2,,,56,0
285522,note_on,12,0,3,,,,,,,,,2,,,62,0
285522,note_on,0,0,3,,,,,,,,,2,,,58,0
285570,note_on,60,0,1,,,,,,,,,0,,,70,0
285570,note_on,0,0,1,,,,,,,,,0,,,77,36
285630,time_signature,5400,1,0,2,4,24,8,,,,,,,,,
285630,note_on,0,0,1,,,,,,,,,0,,,75,36
285630,note_on,0,0,1,,,,,,,,,0,,,70,36
285630,note_on,0,0,1,,,,,,,,,0,,,67,36
285630,note_on,108,0,3,,,,,,,,,2,,,51,36
285630,note_on,60,0,1,,,,,,,,,0,,,77,0
285750,note_on,0,0,3,,,,,,,,,2,,,63,36
285750,note_on,0,0,3,,,,,,,,,2,,,55,36
285750,note_on,0,0,3,,,,,,,,,2,,,58,36
285750,note_on,120,0,3,,,,,,,,,2,,,51,0
285870,note_on,240,0,1,,,,,,,,,0,,,75,0
285870,note_on,0,0,1,,,,,,,,,0,,,70,0
285870,note_on,0,0,1,,,,,,,,,0,,,67,0
285870,note_on,0,0,1,,,,,,,,,0,,,82,49
285870,note_on,120,0,3,,,,,,,,,2,,,63,0
285870,note_on,0,0,3,,,,,,,,,2,,,55,0
285870,note_on,0,0,3,,,,,,,,,2,,,58,0
285870,time_signature,240,1,0,1,4,24,8,,,,,,,,,
285990,note_on,120,0,3,,,,,,,,,2,,,48,36
285990,time_signature,120,1,0,3,4,24,8,,,,,,,,,
285990,note_on,120,0,1,,,,,,,,,0,,,82,0
285990,note_on,0,0,1,,,,,,,,,0,,,81,75
286110,note_on,0,0,3,,,,,,,,,2,,,60,36
286110,note_on,120,0,3,,,,,,,,,2,,,48,0
286110,note_on,0,0,3,,,,,,,,,2,,,69,36
286110,note_on,0,0,3,,,,,,,,,2,,,63,36
286122,note_on,0,0,3,,,,,,,,,2,,,60,0
286122,note_on,0,0,3,,,,,,,,,2,,,63,0
286122,note_on,12,0,3,,,,,,,,,2,,,69,0
286170,note_on,0,0,1,,,,,,,,,0,,,84,49
286170,note_on,180,0,1,,,,,,,,,0,,,81,0
286230,note_on,0,0,3,,,,,,,,,2,,,63,36
286230,note_on,60,0,1,,,,,,,,,0,,,84,0
286230,note_on,108,0,3,,,,,,,,,2,,,60,36
286230,note_on,0,0,3,,,,,,,,,2,,,69,36
286230,note_on,0,0,1,,,,,,,,,0,,,82,49
286242,note_on,12,0,3,,,,,,,,,2,,,69,0
286242,note_on,0,0,3,,,,,,,,,2,,,63,0
286242,note_on,0,0,3,,,,,,,,,2,,,60,0
286290,note_on,0,0,1,,,,,,,,,0,,,81,49
286290,note_on,60,0,1,,,,,,,,,0,,,82,0
286350,note_on,108,0,3,,,,,,,,,2,,,50,36
286350,note_on,0,0,1,,,,,,,,,0,,,79,75
286350,note_on,60,0,1,,,,,,,,,0,,,81,0
286470,note_on,0,0,3,,,,,,,,,2,,,58,36
286470,note_on,0,0,3,,,,,,,,,2,,,62,36
286470,note_on,0,0,3,,,,,,,,,2,,,67,36
286470,note_on,120,0,3,,,,,,,,,2,,,50,0
286482,note_on,12,0,3,,,,,,,,,2,,,67,0
286482,note_on,0,0,3,,,,,,,,,2,,,62,0
286482,note_on,0,0,3,,,,,,,,,2,,,58,0
286530,note_on,180,0,1,,,,,,,,,0,,,79,0
286530,note_on,0,0,1,,,,,,,,,0,,,82,49
286590,note_on,60,0,1,,,,,,,,,0,,,82,0
286590,note_on,0,0,3,,,,,,,,,2,,,67,36
286590,note_on,108,0,3,,,,,,,,,2,,,58,36
286590,note_on,0,0,3,,,,,,,,,2,,,62,36
286590,note_on,0,0,1,,,,,,,,,0,,,81,49
286602,note_on,0,0,3,,,,,,,,,2,,,62,0
286602,note_on,0,0,3,,,,,,,,,2,,,58,0
286602,note_on,12,0,3,,,,,,,,,2,,,67,0
286650,note_on,60,0,1,,,,,,,,,0,,,81,0
286650,note_on,0,0,1,,,,,,,,,0,,,79,49
286710,note_on,108,0,3,,,,,,,,,2,,,50,36
286710,note_on,60,0,1,,,,,,,,,0,,,79,0
286710,note_on,0,0,1,,,,,,,,,0,,,78,49
286830,note_on,0,0,3,,,,,,,,,2,,,66,36
286830,note_on,120,0,3,,,,,,,,,2,,,50,0
286830,note_on,0,0,3,,,,,,,,,2,,,57,36
286830,note_on,0,0,3,,,,,,,,,2,,,60,36
286842,note_on,12,0,3,,,,,,,,,2,,,66,0
286842,note_on,0,0,3,,,,,,,,,2,,,60,0
286842,note_on,0,0,3,,,,,,,,,2,,,57,0
286890,note_on,180,0,1,,,,,,,,,0,,,78,0
286890,note_on,0,0,1,,,,,,,,,0,,,78,49
286950,note_on,0,0,1,,,,,,,,,0,,,79,49
286950,note_on,60,0,1,,,,,,,,,0,,,78,0
286950,note_on,0,0,3,,,,,,,,,2,,,66,36
286950,note_on,108,0,3,,,,,,,,,2,,,57,36
286950,note_on,0,0,3,,,,,,,,,2,,,60,36
286962,note_on,0,0,3,,,,,,,,,2,,,57,0
286962,note_on,0,0,3,,,,,,,,,2,,,60,0
286962,note_on,12,0,3,,,,,,,,,2,,,66,0
287010,note_on,60,0,1,,,,,,,,,0,,,79,0
287010,note_on,0,0,1,,,,,,,,,0,,,81,49
287070,note_on,60,0,1,,,,,,,,,0,,,81,0
287070,note_on,108,0,3,,,,,,,,,2,,,51,36
287070,note_on,0,0,1,,,,,,,,,0,,,79,49
287190,note_on,120,0,3,,,,,,,,,2,,,51,0
287190,note_on,0,0,3,,,,,,,,,2,,,55,36
287190,note_on,0,0,3,,,,,,,,,2,,,58,36
287190,note_on,0,0,3,,,,,,,,,2,,,67,36
287202,note_on,12,0,3,,,,,,,,,2,,,67,0
287202,note_on,0,0,3,,,,,,,,,2,,,55,0
287202,note_on,0,0,3,,,,,,,,,2,,,58,0
287310,note_on,0,0,3,,,,,,,,,2,,,67,36
287310,note_on,0,0,3,,,,,,,,,2,,,58,36
287310,note_on,108,0,3,,,,,,,,,2,,,55,36
287310,note_on,0,0,1,,,,,,,,,0,,,79,49
287310,note_on,240,0,1,,,,,,,,,0,,,79,0
287322,note_on,12,0,3,,,,,,,,,2,,,67,0
287322,note_on,0,0,3,,,,,,,,,2,,,55,0
287322,note_on,0,0,3,,,,,,,,,2,,,58,0
287430,note_on,108,0,3,,,,,,,,,2,,,44,36
287430,note_on,0,0,1,,,,,,,,,0,,,77,49
287430,note_on,120,0,1,,,,,,,,,0,,,79,0
287490,note_on,60,0,1,,,,,,,,,0,,,77,0
287490,note_on,0,0,1,,,,,,,,,0,,,79,49
287550,note_on,0,0,3,,,,,,,,,2,,,65,36
287550,note_on,0,0,3,,,,,,,,,2,,,60,36
287550,note_on,0,0,3,,,,,,,,,2,,,56,36
287550,note_on,120,0,3,,,,,,,,,2,,,44,0
287550,note_on,0,0,1,,,,,,,,,0,,,77,49
287550,note_on,60,0,1,,,,,,,,,0,,,79,0
287562,note_on,0,0,3,,,,,,,,,2,,,56,0
287562,note_on,0,0,3,,,,,,,,,2,,,60,0
287562,note_on,12,0,3,,,,,,,,,2,,,65,0
287610,note_on,60,0,1,,,,,,,,,0,,,77,0
287610,note_on,0,0,1,,,,,,,,,0,,,80,49
287670,note_on,0,0,3,,,,,,,,,2,,,60,36
287670,note_on,0,0,3,,,,,,,,,2,,,65,36
287670,note_on,60,0,1,,,,,,,,,0,,,80,0
287670,note_on,108,0,3,,,,,,,,,2,,,56,36
287670,note_on,0,0,1,,,,,,,,,0,,,79,49
287682,note_on,0,0,3,,,,,,,,,2,,,56,0
287682,note_on,0,0,3,,,,,,,,,2,,,60,0
287682,note_on,12,0,3,,,,,,,,,2,,,65,0
287730,note_on,0,0,1,,,,,,,,,0,,,77,49
287730,note_on,60,0,1,,,,,,,,,0,,,79,0
287790,note_on,0,0,1,,,,,,,,,0,,,75,62
287790,note_on,60,0,1,,,,,,,,,0,,,77,0
287790,note_on,108,0,3,,,,,,,,,2,,,46,49
287850,note_on,60,0,1,,,,,,,,,0,,,75,0
287850,note_on,0,0,1,,,,,,,,,0,,,77,62
287910,note_on,60,0,1,,,,,,,,,0,,,77,0
287910,note_on,0,0,1,,,,,,,,,0,,,75,62
287910,note_on,120,0,3,,,,,,,,,2,,,46,0
287910,note_on,0,0,3,,,,,,,,,2,,,55,49
287910,note_on,0,0,3,,,,,,,,,2,,,58,49
287910,note_on,0,0,3,,,,,,,,,2,,,63,49
287922,note_on,0,0,3,,,,,,,,,2,,,55,0
287922,note_on,0,0,3,,,,,,,,,2,,,58,0
287922,note_on,12,0,3,,,,,,,,,2,,,63,0
287970,note_on,0,0,1,,,,,,,,,0,,,79,62
287970,note_on,60,0,1,,,,,,,,,0,,,75,0
288030,note_on,60,0,1,,,,,,,,,0,,,79,0
288030,note_on,0,0,1,,,,,,,,,0,,,77,62
288030,note_on,0,0,3,,,,,,,,,2,,,58,49
288030,note_on,108,0,3,,,,,,,,,2,,,55,49
288030,note_on,0,0,3,,,,,,,,,2,,,63,49
288042,note_on,12,0,3,,,,,,,,,2,,,63,0
288042,note_on,0,0,3,,,,,,,,,2,,,58,0
288042,note_on,0,0,3,,,,,,,,,2,,,55,0
288090,note_on,60,0,1,,,,,,,,,0,,,77,0
288090,note_on,0,0,1,,,,,,,,,0,,,75,62
288150,note_on,60,0,1,,,,,,,,,0,,,75,0
288150,note_on,0,0,1,,,,,,,,,0,,,74,75
288150,note_on,108,0,3,,,,,,,,,2,,,46,62
288210,note_on,0,0,1,,,,,,,,,0,,,75,75
288210,note_on,60,0,1,,,,,,,,,0,,,74,0
288270,note_on,60,0,1,,,,,,,,,0,,,75,0
288270,note_on,0,0,3,,,,,,,,,2,,,62,62
288270,note_on,0,0,3,,,,,,,,,2,,,58,62
288270,note_on,0,0,3,,,,,,,,,2,,,56,62
288270,note_on,120,0,3,,,,,,,,,2,,,46,0
288270,note_on,0,0,1,,,,,,,,,0,,,74,75
288282,note_on,12,0,3,,,,,,,,,2,,,62,0
288282,note_on,0,0,3,,,,,,,,,2,,,58,0
288282,note_on,0,0,3,,,,,,,,,2,,,56,0
288330,note_on,0,0,1,,,,,,,,,0,,,82,75
288330,note_on,60,0,1,,,,,,,,,0,,,74,0
288390,note_on,108,0,3,,,,,,,,,2,,,56,62
288390,note_on,0,0,3,,,,,,,,,2,,,58,62
288390,note_on,60,0,1,,,,,,,,,0,,,82,0
288390,note_on,0,0,3,,,,,,,,,2,,,62,62
288390,note_on,0,0,1,,,,,,,,,0,,,80,75
288402,note_on,0,0,3,,,,,,,,,2,,,58,0
288402,note_on,0,0,3,,,,,,,,,2,,,56,0
288402,note_on,12,0,3,,,,,,,,,2,,,62,0
288450,note_on,0,0,1,,,,,,,,,0,,,77,75
288450,note_on,60,0,1,,,,,,,,,0,,,80,0
288510,note_on,108,0,3,,,,,,,,,2,,,51,62
288510,time_signature,2520,1,0,2,4,24,8,,,,,,,,,
288510,note_on,60,0,1,,,,,,,,,0,,,77,0
288510,note_on,0,0,1,,,,,,,,,0,,,75,75
288630,note_on,0,0,3,,,,,,,,,2,,,63,62
288630,note_on,120,0,3,,,,,,,,,2,,,51,0
288630,note_on,0,0,3,,,,,,,,,2,,,55,62
288630,note_on,0,0,3,,,,,,,,,2,,,58,62
288750,note_on,0,0,3,,,,,,,,,2,,,58,0
288750,note_on,0,0,3,,,,,,,,,2,,,55,0
288750,note_on,120,0,3,,,,,,,,,2,,,63,0
288750,note_on,0,0,1,,,,,,,,,0,,,82,49
288750,time_signature,240,1,0,1,4,24,8,,,,,,,,,
288750,note_on,240,0,1,,,,,,,,,0,,,75,0
288870,time_signature,120,1,0,3,4,24,8,,,,,,,,,
288870,note_on,0,0,1,,,,,,,,,0,,,81,75
288870,note_on,120,0,1,,,,,,,,,0,,,82,0
288870,note_on,120,0,3,,,,,,,,,2,,,48,36
288990,note_on,120,0,3,,,,,,,,,2,,,48,0
288990,note_on,0,0,3,,,,,,,,,2,,,60,36
288990,note_on,0,0,3,,,,,,,,,2,,,63,36
288990,note_on,0,0,3,,,,,,,,,2,,,69,36
289002,note_on,12,0,3,,,,,,,,,2,,,69,0
289002,note_on,0,0,3,,,,,,,,,2,,,63,0
289002,note_on,0,0,3,,,,,,,,,2,,,60,0
289050,note_on,180,0,1,,,,,,,,,0,,,81,0
289050,note_on,0,0,1,,,,,,,,,0,,,84,49
289110,note_on,60,0,1,,,,,,,,,0,,,84,0
289110,note_on,0,0,3,,,,,,,,,2,,,63,36
289110,note_on,0,0,3,,,,,,,,,2,,,69,36
289110,note_on,0,0,1,,,,,,,,,0,,,82,49
289110,note_on,108,0,3,,,,,,,,,2,,,60,36
289122,note_on,0,0,3,,,,,,,,,2,,,60,0
289122,note_on,0,0,3,,,,,,,,,2,,,63,0
289122,note_on,12,0,3,,,,,,,,,2,,,69,0
289170,note_on,0,0,1,,,,,,,,,0,,,81,49
289170,note_on,60,0,1,,,,,,,,,0,,,82,0
289230,note_on,0,0,1,,,,,,,,,0,,,79,75
289230,note_on,60,0,1,,,,,,,,,0,,,81,0
289230,note_on,108,0,3,,,,,,,,,2,,,50,36
289350,note_on,0,0,3,,,,,,,,,2,,,62,36
289350,note_on,0,0,3,,,,,,,,,2,,,58,36
289350,note_on,120,0,3,,,,,,,,,2,,,50,0
289350,note_on,0,0,3,,,,,,,,,2,,,67,36
289362,note_on,0,0,3,,,,,,,,,2,,,58,0
289362,note_on,0,0,3,,,,,,,,,2,,,62,0
289362,note_on,12,0,3,,,,,,,,,2,,,67,0
289410,note_on,180,0,1,,,,,,,,,0,,,79,0
289410,note_on,0,0,1,,,,,,,,,0,,,82,49
289470,note_on,0,0,3,,,,,,,,,2,,,67,36
289470,note_on,0,0,3,,,,,,,,,2,,,62,36
289470,note_on,108,0,3,,,,,,,,,2,,,58,36
289470,note_on,0,0,1,,,,,,,,,0,,,81,49
289470,note_on,60,0,1,,,,,,,,,0,,,82,0
289482,note_on,0,0,3,,,,,,,,,2,,,58,0
289482,note_on,12,0,3,,,,,,,,,2,,,67,0
289482,note_on,0,0,3,,,,,,,,,2,,,62,0
289530,note_on,60,0,1,,,,,,,,,0,,,81,0
289530,note_on,0,0,1,,,,,,,,,0,,,79,49
289590,note_on,60,0,1,,,,,,,,,0,,,79,0
289590,note_on,0,0,1,,,,,,,,,0,,,78,49
289590,note_on,108,0,3,,,,,,,,,2,,,50,36
289710,note_on,0,0,3,,,,,,,,,2,,,57,36
289710,note_on,0,0,3,,,,,,,,,2,,,60,36
289710,note_on,0,0,3,,,,,,,,,2,,,66,36
289710,note_on,120,0,3,,,,,,,,,2,,,50,0
289722,note_on,12,0,3,,,,,,,,,2,,,66,0
289722,note_on,0,0,3,,,,,,,,,2,,,60,0
289722,note_on,0,0,3,,,,,,,,,2,,,57,0
289770,note_on,0,0,1,,,,,,,,,0,,,78,49
289770,note_on,180,0,1,,,,,,,,,0,,,78,0
289830,note_on,0,0,1,,,,,,,,,0,,,79,49
289830,note_on,60,0,1,,,,,,,,,0,,,78,0
289830,note_on,108,0,3,,,,,,,,,2,,,57,36
289830,note_on,0,0,3,,,,,,,,,2,,,60,36
289830,note_on,0,0,3,,,,,,,,,2,,,66,36
289842,note_on,12,0,3,,,,,,,,,2,,,66,0
289842,note_on,0,0,3,,,,,,,,,2,,,60,0
289842,note_on,0,0,3,,,,,,,,,2,,,57,0
289890,note_on,0,0,1,,,,,,,,,0,,,81,49
289890,note_on,60,0,1,,,,,,,,,0,,,79,0
289950,note_on,0,0,1,,,,,,,,,0,,,79,49
289950,note_on,60,0,1,,,,,,,,,0,,,81,0
289950,note_on,108,0,3,,,,,,,,,2,,,51,36
290070,note_on,120,0,3,,,,,,,,,2,,,51,0
290070,note_on,0,0,3,,,,,,,,,2,,,58,36
290070,note_on,0,0,3,,,,,,,,,2,,,55,36
290070,note_on,0,0,3,,,,,,,,,2,,,67,36
290082,note_on,0,0,3,,,,,,,,,2,,,55,0
290082,note_on,12,0,3,,,,,,,,,2,,,67,0
290082,note_on,0,0,3,,,,,,,,,2,,,58,0
290190,note_on,108,0,3,,,,,,,,,2,,,55,36
290190,note_on,0,0,3,,,,,,,,,2,,,58,36
290190,note_on,0,0,3,,,,,,,,,2,,,67,36
290190,note_on,0,0,1,,,,,,,,,0,,,79,49
290190,note_on,240,0,1,,,,,,,,,0,,,79,0
290202,note_on,12,0,3,,,,,,,,,2,,,67,0
290202,note_on,0,0,3,,,,,,,,,2,,,58,0
290202,note_on,0,0,3,,,,,,,,,2,,,55,0
290310,note_on,108,0,3,,,,,,,,,2,,,44,36
290310,note_on,0,0,1,,,,,,,,,0,,,77,49
290310,note_on,120,0,1,,,,,,,,,0,,,79,0
290370,note_on,60,0,1,,,,,,,,,0,,,77,0
290370,note_on,0,0,1,,,,,,,,,0,,,79,49
290430,note_on,120,0,3,,,,,,,,,2,,,44,0
290430,note_on,0,0,3,,,,,,,,,2,,,56,36
290430,note_on,0,0,3,,,,,,,,,2,,,60,36
290430,note_on,0,0,3,,,,,,,,,2,,,65,36
290430,note_on,60,0,1,,,,,,,,,0,,,79,0
290430,note_on,0,0,1,,,,,,,,,0,,,77,49
290442,note_on,0,0,3,,,,,,,,,2,,,60,0
290442,note_on,0,0,3,,,,,,,,,2,,,56,0
290442,note_on,12,0,3,,,,,,,,,2,,,65,0
290490,note_on,60,0,1,,,,,,,,,0,,,77,0
290490,note_on,0,0,1,,,,,,,,,0,,,80,49
290550,note_on,108,0,3,,,,,,,,,2,,,56,36
290550,note_on,0,0,3,,,,,,,,,2,,,60,36
290550,note_on,0,0,3,,,,,,,,,2,,,65,36
290550,note_on,0,0,1,,,,,,,,,0,,,79,49
290550,note_on,60,0,1,,,,,,,,,0,,,80,0
290562,note_on,0,0,3,,,,,,,,,2,,,56,0
290562,note_on,0,0,3,,,,,,,,,2,,,60,0
290562,note_on,12,0,3,,,,,,,,,2,,,65,0
290610,note_on,0,0,1,,,,,,,,,0,,,77,49
290610,note_on,60,0,1,,,,,,,,,0,,,79,0
290670,note_on,60,0,1,,,,,,,,,0,,,77,0
290670,note_on,0,0,1,,,,,,,,,0,,,75,62
290670,note_on,108,0,3,,,,,,,,,2,,,46,49
290730,note_on,60,0,1,,,,,,,,,0,,,75,0
290730,note_on,0,0,1,,,,,,,,,0,,,77,62
290790,note_on,60,0,1,,,,,,,,,0,,,77,0
290790,note_on,0,0,3,,,,,,,,,2,,,63,49
290790,note_on,0,0,3,,,,,,,,,2,,,58,49
290790,note_on,0,0,3,,,,,,,,,2,,,55,49
290790,note_on,120,0,3,,,,,,,,,2,,,46,0
290790,note_on,0,0,1,,,,,,,,,0,,,75,62
290802,note_on,0,0,3,,,,,,,,,2,,,55,0
290802,note_on,12,0,3,,,,,,,,,2,,,63,0
290802,note_on,0,0,3,,,,,,,,,2,,,58,0
290850,note_on,60,0,1,,,,,,,,,0,,,75,0
290850,note_on,0,0,1,,,,,,,,,0,,,79,62
290910,note_on,60,0,1,,,,,,,,,0,,,79,0
290910,note_on,0,0,1,,,,,,,,,0,,,77,62
290910,note_on,0,0,3,,,,,,,,,2,,,58,49
290910,note_on,0,0,3,,,,,,,,,2,,,63,49
290910,note_on,108,0,3,,,,,,,,,2,,,55,49
290922,note_on,0,0,3,,,,,,,,,2,,,58,0
290922,note_on,12,0,3,,,,,,,,,2,,,63,0
290922,note_on,0,0,3,,,,,,,,,2,,,55,0
290970,note_on,60,0,1,,,,,,,,,0,,,77,0
290970,note_on,0,0,1,,,,,,,,,0,,,75,62
291030,note_on,108,0,3,,,,,,,,,2,,,46,62
291030,note_on,0,0,1,,,,,,,,,0,,,74,75
291030,note_on,60,0,1,,,,,,,,,0,,,75,0
291090,note_on,60,0,1,,,,,,,,,0,,,74,0
291090,note_on,0,0,1,,,,,,,,,0,,,75,75
291150,note_on,0,0,3,,,,,,,,,2,,,58,62
291150,note_on,0,0,3,,,,,,,,,2,,,62,62
291150,note_on,0,0,1,,,,,,,,,0,,,74,75
291150,note_on,120,0,3,,,,,,,,,2,,,46,0
291150,note_on,0,0,3,,,,,,,,,2,,,56,62
291150,note_on,60,0,1,,,,,,,,,0,,,75,0
291162,note_on,12,0,3,,,,,,,,,2,,,62,0
291162,note_on,0,0,3,,,,,,,,,2,,,58,0
291162,note_on,0,0,3,,,,,,,,,2,,,56,0
291210,note_on,0,0,1,,,,,,,,,0,,,82,75
291210,note_on,60,0,1,,,,,,,,,0,,,74,0
291270,note_on,60,0,1,,,,,,,,,0,,,82,0
291270,note_on,0,0,1,,,,,,,,,0,,,80,75
291270,note_on,0,0,3,,,,,,,,,2,,,62,62
291270,note_on,0,0,3,,,,,,,,,2,,,58,62
291270,note_on,108,0,3,,,,,,,,,2,,,56,62
291282,note_on,0,0,3,,,,,,,,,2,,,58,0
291282,note_on,0,0,3,,,,,,,,,2,,,56,0
291282,note_on,12,0,3,,,,,,,,,2,,,62,0
291330,note_on,60,0,1,,,,,,,,,0,,,80,0
291330,note_on,0,0,1,,,,,,,,,0,,,77,75
291390,note_on,60,0,1,,,,,,,,,0,,,77,0
291390,note_on,0,0,1,,,,,,,,,0,,,75,75
291390,note_on,108,0,3,,,,,,,,,2,,,51,62
291390,time_signature,2520,1,0,2,4,24,8,,,,,,,,,
291510,note_on,0,0,3,,,,,,,,,2,,,63,62
291510,note_on,0,0,3,,,,,,,,,2,,,55,62
291510,note_on,120,0,3,,,,,,,,,2,,,51,0
291510,note_on,0,0,3,,,,,,,,,2,,,58,62
291630,time_signature,240,1,0,1,4,24,8,,,,,,,,,
291630,note_on,0,0,3,,,,,,,,,2,,,58,0
291630,note_on,0,0,3,,,,,,,,,2,,,55,0
291630,note_on,240,0,1,,,,,,,,,0,,,75,0
291630,note_on,120,0,3,,,,,,,,,2,,,63,0
291630,note_on,0,0,1,,,,,,,,,0,,,75,88
291750,note_on,120,0,3,,,,,,,,,2,,,46,75
291750,time_signature,120,1,0,3,4,24,8,,,,,,,,,
291750,note_on,0,0,1,,,,,,,,,0,,,74,88
291750,note_on,120,0,1,,,,,,,,,0,,,75,0
291810,note_on,60,0,1,,,,,,,,,0,,,74,0
291810,note_on,0,0,1,,,,,,,,,0,,,75,88
291870,note_on,60,0,1,,,,,,,,,0,,,75,0
291870,note_on,0,0,1,,,,,,,,,0,,,74,114
291870,note_on,0,0,3,,,,,,,,,2,,,68,75
291870,note_on,120,0,3,,,,,,,,,2,,,46,0
291870,note_on,0,0,3,,,,,,,,,2,,,58,75
291870,note_on,0,0,3,,,,,,,,,2,,,65,75
291882,note_on,0,0,3,,,,,,,,,2,,,65,0
291882,note_on,0,0,3,,,,,,,,,2,,,58,0
291882,note_on,12,0,3,,,,,,,,,2,,,68,0
291930,note_on,60,0,1,,,,,,,,,0,,,74,0
291930,note_on,0,0,1,,,,,,,,,0,,,82,88
291990,note_on,60,0,1,,,,,,,,,0,,,82,0
291990,note_on,108,0,3,,,,,,,,,2,,,58,75
291990,note_on,0,0,3,,,,,,,,,2,,,65,75
291990,note_on,0,0,3,,,,,,,,,2,,,68,75
291990,note_on,0,0,1,,,,,,,,,0,,,80,88
292002,note_on,12,0,3,,,,,,,,,2,,,68,0
292002,note_on,0,0,3,,,,,,,,,2,,,65,0
292002,note_on,0,0,3,,,,,,,,,2,,,58,0
292050,note_on,0,0,1,,,,,,,,,0,,,77,88
292050,note_on,60,0,1,,,,,,,,,0,,,80,0
292110,note_on,108,0,3,,,,,,,,,2,,,46,75
292110,note_on,60,0,1,,,,,,,,,0,,,77,0
292110,note_on,0,0,1,,,,,,,,,0,,,74,88
292170,note_on,60,0,1,,,,,,,,,0,,,74,0
292170,note_on,0,0,1,,,,,,,,,0,,,75,88
292230,note_on,0,0,3,,,,,,,,,2,,,58,75
292230,note_on,0,0,3,,,,,,,,,2,,,65,75
292230,note_on,60,0,1,,,,,,,,,0,,,75,0
292230,note_on,0,0,1,,,,,,,,,0,,,74,114
292230,note_on,120,0,3,,,,,,,,,2,,,46,0
292230,note_on,0,0,3,,,,,,,,,2,,,68,75
292242,note_on,0,0,3,,,,,,,,,2,,,65,0
292242,note_on,0,0,3,,,,,,,,,2,,,58,0
292242,note_on,12,0,3,,,,,,,,,2,,,68,0
292290,note_on,60,0,1,,,,,,,,,0,,,74,0
292290,note_on,0,0,1,,,,,,,,,0,,,82,88
292350,note_on,0,0,1,,,,,,,,,0,,,80,88
292350,note_on,108,0,3,,,,,,,,,2,,,58,75
292350,note_on,0,0,3,,,,,,,,,2,,,68,75
292350,note_on,0,0,3,,,,,,,,,2,,,65,75
292350,note_on,60,0,1,,,,,,,,,0,,,82,0
292362,note_on,0,0,3,,,,,,,,,2,,,65,0
292362,note_on,0,0,3,,,,,,,,,2,,,58,0
292362,note_on,12,0,3,,,,,,,,,2,,,68,0
292410,note_on,60,0,1,,,,,,,,,0,,,80,0
292410,note_on,0,0,1,,,,,,,,,0,,,77,88
292470,note_on,0,0,1,,,,,,,,,0,,,79,88
292470,note_on,108,0,3,,,,,,,,,2,,,51,75
292470,note_on,60,0,1,,,,,,,,,0,,,77,0
292530,note_on,60,0,1,,,,,,,,,0,,,79,0
292530,note_on,0,0,1,,,,,,,,,0,,,87,88
292530,note_on,0,0,1,,,,,,,,,0,,,91,88
292590,note_on,0,0,1,,,,,,,,,0,,,87,0
292590,note_on,120,0,3,,,,,,,,,2,,,51,0
292590,note_on,0,0,3,,,,,,,,,2,,,67,88
292590,note_on,0,0,3,,,,,,,,,2,,,63,88
292590,note_on,60,0,1,,,,,,,,,0,,,91,0
292590,note_on,0,0,3,,,,,,,,,2,,,58,88
292590,note_on,0,0,1,,,,,,,,,0,,,86,101
292590,note_on,0,0,1,,,,,,,,,0,,,89,101
292602,note_on,0,0,3,,,,,,,,,2,,,63,0
292602,note_on,12,0,3,,,,,,,,,2,,,67,0
292602,note_on,0,0,3,,,,,,,,,2,,,58,0
292650,note_on,60,0,1,,,,,,,,,0,,,89,0
292650,note_on,0,0,1,,,,,,,,,0,,,86,0
292650,note_on,0,0,1,,,,,,,,,0,,,84,101
292650,note_on,0,0,1,,,,,,,,,0,,,87,101
292710,note_on,60,0,1,,,,,,,,,0,,,87,0
292710,note_on,0,0,1,,,,,,,,,0,,,86,114
292710,note_on,108,0,3,,,,,,,,,2,,,60,101
292710,note_on,0,0,1,,,,,,,,,0,,,82,114
292710,note_on,0,0,3,,,,,,,,,2,,,68,101
292710,note_on,0,0,1,,,,,,,,,0,,,84,0
292710,note_on,0,0,3,,,,,,,,,2,,,63,101
292722,note_on,0,0,3,,,,,,,,,2,,,63,0
292722,note_on,0,0,3,,,,,,,,,2,,,60,0
292722,note_on,12,0,3,,,,,,,,,2,,,68,0
292770,note_on,60,0,1,,,,,,,,,0,,,86,0
292770,note_on,0,0,1,,,,,,,,,0,,,84,114
292770,note_on,0,0,1,,,,,,,,,0,,,80,114
292770,note_on,0,0,1,,,,,,,,,0,,,82,0
292830,note_on,0,0,1,,,,,,,,,0,,,80,0
292830,note_on,60,0,1,,,,,,,,,0,,,84,0
292830,note_on,0,0,1,,,,,,,,,0,,,82,114
292830,note_on,108,0,3,,,,,,,,,2,,,51,101
292830,note_on,0,0,1,,,,,,,,,0,,,79,114
292890,note_on,0,0,1,,,,,,,,,0,,,84,114
292890,note_on,0,0,1,,,,,,,,,0,,,80,114
292890,note_on,0,0,1,,,,,,,,,0,,,79,0
292890,note_on,60,0,1,,,,,,,,,0,,,82,0
292950,note_on,0,0,3,,,,,,,,,2,,,58,88
292950,note_on,0,0,3,,,,,,,,,2,,,63,88
292950,note_on,0,0,3,,,,,,,,,2,,,67,88
292950,note_on,0,0,1,,,,,,,,,0,,,82,101
292950,note_on,0,0,1,,,,,,,,,0,,,79,101
292950,note_on,0,0,1,,,,,,,,,0,,,80,0
292950,note_on,60,0,1,,,,,,,,,0,,,84,0
292950,note_on,120,0,3,,,,,,,,,2,,,51,0
292962,note_on,12,0,3,,,,,,,,,2,,,67,0
292962,note_on,0,0,3,,,,,,,,,2,,,63,0
292962,note_on,0,0,3,,,,,,,,,2,,,58,0
293010,note_on,0,0,1,,,,,,,,,0,,,80,101
293010,note_on,0,0,1,,,,,,,,,0,,,84,101
293010,note_on,0,0,1,,,,,,,,,0,,,79,0
293010,note_on,60,0,1,,,,,,,,,0,,,82,0
293070,note_on,0,0,3,,,,,,,,,2,,,63,75
293070,note_on,0,0,3,,,,,,,,,2,,,67,75
293070,note_on,108,0,3,,,,,,,,,2,,,58,75
293070,note_on,60,0,1,,,,,,,,,0,,,84,0
293070,note_on,0,0,1,,,,,,,,,0,,,80,0
293070,note_on,0,0,1,,,,,,,,,0,,,79,88
293070,note_on,0,0,1,,,,,,,,,0,,,82,88
293082,note_on,0,0,3,,,,,,,,,2,,,63,0
293082,note_on,0,0,3,,,,,,,,,2,,,58,0
293082,note_on,12,0,3,,,,,,,,,2,,,67,0
293130,note_on,0,0,1,,,,,,,,,0,,,79,0
293130,note_on,0,0,1,,,,,,,,,0,,,75,88
293130,note_on,60,0,1,,,,,,,,,0,,,82,0
293190,note_on,60,0,1,,,,,,,,,0,,,75,0
293190,note_on,0,0,1,,,,,,,,,0,,,74,88
293190,note_on,108,0,3,,,,,,,,,2,,,46,75
293250,note_on,0,0,1,,,,,,,,,0,,,75,88
293250,note_on,60,0,1,,,,,,,,,0,,,74,0
293310,note_on,120,0,3,,,,,,,,,2,,,46,0
293310,note_on,0,0,3,,,,,,,,,2,,,58,75
293310,note_on,0,0,3,,,,,,,,,2,,,65,75
293310,note_on,0,0,3,,,,,,,,,2,,,68,75
293310,note_on,0,0,1,,,,,,,,,0,,,74,114
293310,note_on,60,0,1,,,,,,,,,0,,,75,0
293322,note_on,12,0,3,,,,,,,,,2,,,68,0
293322,note_on,0,0,3,,,,,,,,,2,,,65,0
293322,note_on,0,0,3,,,,,,,,,2,,,58,0
293370,note_on,60,0,1,,,,,,,,,0,,,74,0
293370,note_on,0,0,1,,,,,,,,,0,,,82,88
293430,note_on,0,0,3,,,,,,,,,2,,,68,75
293430,note_on,0,0,1,,,,,,,,,0,,,80,88
293430,note_on,60,0,1,,,,,,,,,0,,,82,0
293430,note_on,108,0,3,,,,,,,,,2,,,58,75
293430,note_on,0,0,3,,,,,,,,,2,,,65,75
293442,note_on,12,0,3,,,,,,,,,2,,,68,0
293442,note_on,0,0,3,,,,,,,,,2,,,65,0
293442,note_on,0,0,3,,,,,,,,,2,,,58,0
293490,note_on,0,0,1,,,,,,,,,0,,,77,88
293490,note_on,60,0,1,,,,,,,,,0,,,80,0
293550,note_on,0,0,1,,,,,,,,,0,,,74,88
293550,note_on,60,0,1,,,,,,,,,0,,,77,0
293550,note_on,108,0,3,,,,,,,,,2,,,46,75
293610,note_on,0,0,1,,,,,,,,,0,,,75,88
293610,note_on,60,0,1,,,,,,,,,0,,,74,0
293670,note_on,0,0,3,,,,,,,,,2,,,58,75
293670,note_on,0,0,3,,,,,,,,,2,,,65,75
293670,note_on,0,0,3,,,,,,,,,2,,,68,75
293670,note_on,120,0,3,,,,,,,,,2,,,46,0
293670,note_on,60,0,1,,,,,,,,,0,,,75,0
293670,note_on,0,0,1,,,,,,,,,0,,,74,114
293682,note_on,12,0,3,,,,,,,,,2,,,68,0
293682,note_on,0,0,3,,,,,,,,,2,,,65,0
293682,note_on,0,0,3,,,,,,,,,2,,,58,0
293730,note_on,0,0,1,,,,,,,,,0,,,82,88
293730,note_on,60,0,1,,,,,,,,,0,,,74,0
293790,note_on,0,0,1,,,,,,,,,0,,,80,88
293790,note_on,108,0,3,,,,,,,,,2,,,58,75
293790,note_on,0,0,3,,,,,,,,,2,,,65,75
293790,note_on,0,0,3,,,,,,,,,2,,,68,75
293790,note_on,60,0,1,,,,,,,,,0,,,82,0
293802,note_on,0,0,3,,,,,,,,,2,,,65,0
293802,note_on,0,0,3,,,,,,,,,2,,,58,0
293802,note_on,12,0,3,,,,,,,,,2,,,68,0
293850,note_on,0,0,1,,,,,,,,,0,,,77,88
293850,note_on,60,0,1,,,,,,,,,0,,,80,0
293910,note_on,108,0,3,,,,,,,,,2,,,51,75
293910,note_on,60,0,1,,,,,,,,,0,,,77,0
293910,note_on,0,0,1,,,,,,,,,0,,,75,88
293970,note_on,60,0,1,,,,,,,,,0,,,75,0
293970,note_on,0,0,1,,,,,,,,,0,,,79,88
294030,note_on,0,0,1,,,,,,,,,0,,,82,114
294030,note_on,60,0,1,,,,,,,,,0,,,79,0
294030,note_on,120,0,3,,,,,,,,,2,,,51,0
294030,note_on,0,0,3,,,,,,,,,2,,,58,75
294030,note_on,0,0,3,,,,,,,,,2,,,63,75
294030,note_on,0,0,3,,,,,,,,,2,,,67,75
294042,note_on,0,0,3,,,,,,,,,2,,,58,0
294042,note_on,12,0,3,,,,,,,,,2,,,67,0
294042,note_on,0,0,3,,,,,,,,,2,,,63,0
294090,note_on,0,0,1,,,,,,,,,0,,,91,88
294090,note_on,60,0,1,,,,,,,,,0,,,82,0
294150,note_on,0,0,1,,,,,,,,,0,,,89,88
294150,note_on,0,0,1,,,,,,,,,0,,,86,88
294150,note_on,60,0,1,,,,,,,,,0,,,91,0
294150,note_on,108,0,3,,,,,,,,,2,,,60,75
294150,note_on,0,0,3,,,,,,,,,2,,,65,75
294150,note_on,0,0,3,,,,,,,,,2,,,68,75
294162,note_on,0,0,3,,,,,,,,,2,,,60,0
294162,note_on,0,0,3,,,,,,,,,2,,,65,0
294162,note_on,12,0,3,,,,,,,,,2,,,68,0
294210,note_on,0,0,1,,,,,,,,,0,,,82,88
294210,note_on,60,0,1,,,,,,,,,0,,,89,0
294210,note_on,0,0,1,,,,,,,,,0,,,86,0
294270,time_signature,2520,1,0,2,4,24,8,,,,,,,,,
294270,note_on,0,0,1,,,,,,,,,0,,,87,88
294270,note_on,60,0,1,,,,,,,,,0,,,82,0
294270,note_on,108,0,3,,,,,,,,,2,,,51,75
294390,note_on,120,0,3,,,,,,,,,2,,,51,0
294390,note_on,0,0,3,,,,,,,,,2,,,58,75
294390,note_on,0,0,3,,,,,,,,,2,,,63,75
294390,note_on,0,0,3,,,,,,,,,2,,,67,75
294510,note_on,0,0,3,,,,,,,,,2,,,58,0
294510,note_on,0,0,3,,,,,,,,,2,,,63,0
294510,time_signature,240,1,0,1,4,24,8,,,,,,,,,
294510,note_on,120,0,3,,,,,,,,,2,,,67,0
294510,note_on,0,0,1,,,,,,,,,0,,,75,88
294510,note_on,240,0,1,,,,,,,,,0,,,87,0
294630,time_signature,120,1,0,3,4,24,8,,,,,,,,,
294630,note_on,120,0,1,,,,,,,,,0,,,75,0
294630,note_on,120,0,3,,,,,,,,,2,,,46,75
294630,note_on,0,0,1,,,,,,,,,0,,,74,88
294690,note_on,0,0,1,,,,,,,,,0,,,75,88
294690,note_on,60,0,1,,,,,,,,,0,,,74,0
294750,note_on,0,0,3,,,,,,,,,2,,,65,75
294750,note_on,60,0,1,,,,,,,,,0,,,75,0
294750,note_on,0,0,3,,,,,,,,,2,,,68,75
294750,note_on,120,0,3,,,,,,,,,2,,,46,0
294750,note_on,0,0,3,,,,,,,,,2,,,58,75
294750,note_on,0,0,1,,,,,,,,,0,,,74,114
294762,note_on,0,0,3,,,,,,,,,2,,,58,0
294762,note_on,12,0,3,,,,,,,,,2,,,68,0
294762,note_on,0,0,3,,,,,,,,,2,,,65,0
294810,note_on,60,0,1,,,,,,,,,0,,,74,0
294810,note_on,0,0,1,,,,,,,,,0,,,82,88
294870,note_on,108,0,3,,,,,,,,,2,,,58,75
294870,note_on,0,0,3,,,,,,,,,2,,,65,75
294870,note_on,0,0,3,,,,,,,,,2,,,68,75
294870,note_on,0,0,1,,,,,,,,,0,,,80,88
294870,note_on,60,0,1,,,,,,,,,0,,,82,0
294882,note_on,12,0,3,,,,,,,,,2,,,68,0
294882,note_on,0,0,3,,,,,,,,,2,,,65,0
294882,note_on,0,0,3,,,,,,,,,2,,,58,0
294930,note_on,60,0,1,,,,,,,,,0,,,80,0
294930,note_on,0,0,1,,,,,,,,,0,,,77,88
294990,note_on,108,0,3,,,,,,,,,2,,,46,75
294990,note_on,0,0,1,,,,,,,,,0,,,74,88
294990,note_on,60,0,1,,,,,,,,,0,,,77,0
295050,note_on,0,0,1,,,,,,,,,0,,,75,88
295050,note_on,60,0,1,,,,,,,,,0,,,74,0
295110,note_on,0,0,3,,,,,,,,,2,,,68,75
295110,note_on,60,0,1,,,,,,,,,0,,,75,0
295110,note_on,0,0,3,,,,,,,,,2,,,65,75
295110,note_on,0,0,3,,,,,,,,,2,,,58,75
295110,note_on,120,0,3,,,,,,,,,2,,,46,0
295110,note_on,0,0,1,,,,,,,,,0,,,74,114
295122,note_on,0,0,3,,,,,,,,,2,,,65,0
295122,note_on,0,0,3,,,,,,,,,2,,,58,0
295122,note_on,12,0,3,,,,,,,,,2,,,68,0
295170,note_on,0,0,1,,,,,,,,,0,,,82,88
295170,note_on,60,0,1,,,,,,,,,0,,,74,0
295230,note_on,0,0,3,,,,,,,,,2,,,68,75
295230,note_on,0,0,3,,,,,,,,,2,,,65,75
295230,note_on,108,0,3,,,,,,,,,2,,,58,75
295230,note_on,60,0,1,,,,,,,,,0,,,82,0
295230,note_on,0,0,1,,,,,,,,,0,,,80,88
295242,note_on,0,0,3,,,,,,,,,2,,,58,0
295242,note_on,12,0,3,,,,,,,,,2,,,68,0
295242,note_on,0,0,3,,,,,,,,,2,,,65,0
295290,note_on,60,0,1,,,,,,,,,0,,,80,0
295290,note_on,0,0,1,,,,,,,,,0,,,77,88
295350,note_on,108,0,3,,,,,,,,,2,,,51,75
295350,note_on,60,0,1,,,,,,,,,0,,,77,0
295350,note_on,0,0,1,,,,,,,,,0,,,79,88
295410,note_on,60,0,1,,,,,,,,,0,,,79,0
295410,note_on,0,0,1,,,,,,,,,0,,,87,88
295410,note_on,0,0,1,,,,,,,,,0,,,91,88
295470,note_on,0,0,3,,,,,,,,,2,,,67,88
295470,note_on,0,0,3,,,,,,,,,2,,,63,88
295470,note_on,0,0,3,,,,,,,,,2,,,58,88
295470,note_on,120,0,3,,,,,,,,,2,,,51,0
295470,note_on,0,0,1,,,,,,,,,0,,,89,101
295470,note_on,60,0,1,,,,,,,,,0,,,91,0
295470,note_on,0,0,1,,,,,,,,,0,,,87,0
295470,note_on,0,0,1,,,,,,,,,0,,,86,101
295482,note_on,0,0,3,,,,,,,,,2,,,63,0
295482,note_on,12,0,3,,,,,,,,,2,,,67,0
295482,note_on,0,0,3,,,,,,,,,2,,,58,0
295530,note_on,60,0,1,,,,,,,,,0,,,89,0
295530,note_on,0,0,1,,,,,,,,,0,,,84,101
295530,note_on,0,0,1,,,,,,,,,0,,,87,101
295530,note_on,0,0,1,,,,,,,,,0,,,86,0
295590,note_on,60,0,1,,,,,,,,,0,,,87,0
295590,note_on,0,0,3,,,,,,,,,2,,,68,101
295590,note_on,0,0,3,,,,,,,,,2,,,63,101
295590,note_on,108,0,3,,,,,,,,,2,,,60,101
295590,note_on,0,0,1,,,,,,,,,0,,,84,0
295590,note_on,0,0,1,,,,,,,,,0,,,82,114
295590,note_on,0,0,1,,,,,,,,,0,,,86,114
295602,note_on,0,0,3,,,,,,,,,2,,,60,0
295602,note_on,0,0,3,,,,,,,,,2,,,63,0
295602,note_on,12,0,3,,,,,,,,,2,,,68,0
295650,note_on,60,0,1,,,,,,,,,0,,,86,0
295650,note_on,0,0,1,,,,,,,,,0,,,80,114
295650,note_on,0,0,1,,,,,,,,,0,,,84,114
295650,note_on,0,0,1,,,,,,,,,0,,,82,0
295710,note_on,108,0,3,,,,,,,,,2,,,51,101
295710,note_on,60,0,1,,,,,,,,,0,,,84,0
295710,note_on,0,0,1,,,,,,,,,0,,,82,114
295710,note_on,0,0,1,,,,,,,,,0,,,79,114
295710,note_on,0,0,1,,,,,,,,,0,,,80,0
295770,note_on,0,0,1,,,,,,,,,0,,,84,114
295770,note_on,0,0,1,,,,,,,,,0,,,80,114
295770,note_on,0,0,1,,,,,,,,,0,,,79,0
295770,note_on,60,0,1,,,,,,,,,0,,,82,0
295830,note_on,60,0,1,,,,,,,,,0,,,84,0
295830,note_on,0,0,3,,,,,,,,,2,,,67,88
295830,note_on,0,0,1,,,,,,,,,0,,,79,101
295830,note_on,0,0,1,,,,,,,,,0,,,82,101
295830,note_on,0,0,3,,,,,,,,,2,,,63,88
295830,note_on,0,0,3,,,,,,,,,2,,,58,88
295830,note_on,120,0,3,,,,,,,,,2,,,51,0
295830,note_on,0,0,1,,,,,,,,,0,,,80,0
295842,note_on,0,0,3,,,,,,,,,2,,,58,0
295842,note_on,0,0,3,,,,,,,,,2,,,63,0
295842,note_on,12,0,3,,,,,,,,,2,,,67,0
295890,note_on,0,0,1,,,,,,,,,0,,,80,101
295890,note_on,0,0,1,,,,,,,,,0,,,84,101
295890,note_on,0,0,1,,,,,,,,,0,,,79,0
295890,note_on,60,0,1,,,,,,,,,0,,,82,0
295950,note_on,108,0,3,,,,,,,,,2,,,58,75
295950,note_on,60,0,1,,,,,,,,,0,,,84,0
295950,note_on,0,0,1,,,,,,,,,0,,,80,0
295950,note_on,0,0,1,,,,,,,,,0,,,79,88
295950,note_on,0,0,1,,,,,,,,,0,,,82,88
295950,note_on,0,0,3,,,,,,,,,2,,,67,75
295950,note_on,0,0,3,,,,,,,,,2,,,63,75
295962,note_on,0,0,3,,,,,,,,,2,,,63,0
295962,note_on,0,0,3,,,,,,,,,2,,,58,0
295962,note_on,12,0,3,,,,,,,,,2,,,67,0
296010,note_on,60,0,1,,,,,,,,,0,,,82,0
296010,note_on,0,0,1,,,,,,,,,0,,,75,88
296010,note_on,0,0,1,,,,,,,,,0,,,79,0
296070,note_on,0,0,1,,,,,,,,,0,,,74,88
296070,note_on,60,0,1,,,,,,,,,0,,,75,0
296070,note_on,108,0,3,,,,,,,,,2,,,46,75
296130,note_on,0,0,1,,,,,,,,,0,,,75,88
296130,note_on,60,0,1,,,,,,,,,0,,,74,0
296190,note_on,120,0,3,,,,,,,,,2,,,46,0
296190,note_on,0,0,3,,,,,,,,,2,,,58,75
296190,note_on,0,0,3,,,,,,,,,2,,,68,75
296190,note_on,0,0,3,,,,,,,,,2,,,65,75
296190,note_on,60,0,1,,,,,,,,,0,,,75,0
296190,note_on,0,0,1,,,,,,,,,0,,,74,114
296202,note_on,12,0,3,,,,,,,,,2,,,68,0
296202,note_on,0,0,3,,,,,,,,,2,,,65,0
296202,note_on,0,0,3,,,,,,,,,2,,,58,0
296250,note_on,60,0,1,,,,,,,,,0,,,74,0
296250,note_on,0,0,1,,,,,,,,,0,,,82,88
296310,note_on,108,0,3,,,,,,,,,2,,,58,75
296310,note_on,0,0,3,,,,,,,,,2,,,65,75
296310,note_on,0,0,3,,,,,,,,,2,,,68,75
296310,note_on,60,0,1,,,,,,,,,0,,,82,0
296310,note_on,0,0,1,,,,,,,,,0,,,80,88
296322,note_on,0,0,3,,,,,,,,,2,,,65,0
296322,note_on,12,0,3,,,,,,,,,2,,,68,0
296322,note_on,0,0,3,,,,,,,,,2,,,58,0
296370,note_on,0,0,1,,,,,,,,,0,,,77,88
296370,note_on,60,0,1,,,,,,,,,0,,,80,0
296430,note_on,60,0,1,,,,,,,,,0,,,77,0
296430,note_on,0,0,1,,,,,,,,,0,,,74,88
296430,note_on,108,0,3,,,,,,,,,2,,,46,75
296490,note_on,60,0,1,,,,,,,,,0,,,74,0
296490,note_on,0,0,1,,,,,,,,,0,,,75,88
296550,note_on,0,0,3,,,,,,,,,2,,,68,75
296550,note_on,0,0,3,,,,,,,,,2,,,65,75
296550,note_on,0,0,3,,,,,,,,,2,,,58,75
296550,note_on,120,0,3,,,,,,,,,2,,,46,0
296550,note_on,0,0,1,,,,,,,,,0,,,74,114
296550,note_on,60,0,1,,,,,,,,,0,,,75,0
296562,note_on,0,0,3,,,,,,,,,2,,,58,0
296562,note_on,0,0,3,,,,,,,,,2,,,65,0
296562,note_on,12,0,3,,,,,,,,,2,,,68,0
296610,note_on,60,0,1,,,,,,,,,0,,,74,0
296610,note_on,0,0,1,,,,,,,,,0,,,82,88
296670,note_on,108,0,3,,,,,,,,,2,,,58,75
296670,note_on,0,0,3,,,,,,,,,2,,,65,75
296670,note_on,0,0,3,,,,,,,,,2,,,68,75
296670,note_on,0,0,1,,,,,,,,,0,,,80,88
296670,note_on,60,0,1,,,,,,,,,0,,,82,0
296682,note_on,0,0,3,,,,,,,,,2,,,58,0
296682,note_on,0,0,3,,,,,,,,,2,,,65,0
296682,note_on,12,0,3,,,,,,,,,2,,,68,0
296730,note_on,60,0,1,,,,,,,,,0,,,80,0
296730,note_on,0,0,1,,,,,,,,,0,,,77,88
296790,note_on,108,0,3,,,,,,,,,2,,,51,75
296790,note_on,60,0,1,,,,,,,,,0,,,77,0
296790,note_on,0,0,1,,,,,,,,,0,,,75,88
296850,note_on,60,0,1,,,,,,,,,0,,,75,0
296850,note_on,0,0,1,,,,,,,,,0,,,79,88
296910,note_on,60,0,1,,,,,,,,,0,,,79,0
296910,note_on,0,0,1,,,,,,,,,0,,,82,114
296910,note_on,120,0,3,,,,,,,,,2,,,51,0
296910,note_on,0,0,3,,,,,,,,,2,,,58,75
296910,note_on,0,0,3,,,,,,,,,2,,,63,75
296910,note_on,0,0,3,,,,,,,,,2,,,67,75
296922,note_on,12,0,3,,,,,,,,,2,,,67,0
296922,note_on,0,0,3,,,,,,,,,2,,,58,0
296922,note_on,0,0,3,,,,,,,,,2,,,63,0
296970,note_on,60,0,1,,,,,,,,,0,,,82,0
296970,note_on,0,0,1,,,,,,,,,0,,,91,88
297030,note_on,0,0,1,,,,,,,,,0,,,86,88
297030,note_on,0,0,3,,,,,,,,,2,,,65,75
297030,note_on,0,0,3,,,,,,,,,2,,,68,75
297030,note_on,60,0,1,,,,,,,,,0,,,91,0
297030,note_on,0,0,1,,,,,,,,,0,,,89,88
297030,note_on,108,0,3,,,,,,,,,2,,,60,75
297042,note_on,0,0,3,,,,,,,,,2,,,65,0
297042,note_on,0,0,3,,,,,,,,,2,,,60,0
297042,note_on,12,0,3,,,,,,,,,2,,,68,0
297090,note_on,0,0,1,,,,,,,,,0,,,82,88
297090,note_on,0,0,1,,,,,,,,,0,,,86,0
297090,note_on,60,0,1,,,,,,,,,0,,,89,0
297150,note_on,108,0,3,,,,,,,,,2,,,51,75
297150,note_on,60,0,1,,,,,,,,,0,,,82,0
297150,time_signature,2520,1,0,2,4,24,8,,,,,,,,,
297150,note_on,0,0,1,,,,,,,,,0,,,87,88
297270,note_on,0,0,3,,,,,,,,,2,,,58,75
297270,note_on,0,0,3,,,,,,,,,2,,,63,75
297270,note_on,0,0,3,,,,,,,,,2,,,67,75
297270,note_on,120,0,3,,,,,,,,,2,,,51,0
297390,time_signature,240,1,0,1,4,24,8,,,,,,,,,
297390,note_on,120,0,3,,,,,,,,,2,,,67,0
297390,note_on,0,0,1,,,,,,,,,0,,,70,49
297390,note_on,240,0,1,,,,,,,,,0,,,87,0
297390,key_signature,0,1,0,,,,,Bb,,,,,,,,
297390,note_on,0,0,3,,,,,,,,,2,,,63,0
297390,note_on,0,0,3,,,,,,,,,2,,,58,0
297450,note_on,0,0,1,,,,,,,,,0,,,72,49
297450,note_on,60,0,1,,,,,,,,,0,,,70,0
297480,note_on,30,0,1,,,,,,,,,0,,,74,49
297495,note_on,15,0,1,,,,,,,,,0,,,74,0
297495,note_on,0,0,1,,,,,,,,,0,,,75,49
297510,time_signature,120,1,0,3,4,24,8,,,,,,,,,
297510,note_on,0,0,1,,,,,,,,,0,,,74,49
297510,note_on,15,0,1,,,,,,,,,0,,,75,0
297510,note_on,46440,0,4,,,,,,,,,3,,,55,36
297510,note_on,0,0,1,,,,,,,,,0,,,72,0
297570,note_on,60,0,1,,,,,,,,,0,,,74,0
297570,note_on,0,0,1,,,,,,,,,0,,,72,49
297630,note_on,60,0,1,,,,,,,,,0,,,72,0
297630,note_on,0,0,3,,,,,,,,,2,,,67,36
297630,note_on,0,0,3,,,,,,,,,2,,,62,36
297630,note_on,240,0,3,,,,,,,,,2,,,58,36
297630,note_on,0,0,1,,,,,,,,,0,,,74,49
297642,note_on,12,0,3,,,,,,,,,2,,,67,0
297642,note_on,0,0,3,,,,,,,,,2,,,62,0
297642,note_on,0,0,3,,,,,,,,,2,,,58,0
297690,note_on,60,0,1,,,,,,,,,0,,,74,0
297690,note_on,0,0,1,,,,,,,,,0,,,79,49
297750,note_on,0,0,3,,,,,,,,,2,,,67,36
297750,note_on,108,0,3,,,,,,,,,2,,,57,36
297750,note_on,0,0,3,,,,,,,,,2,,,63,36
297750,note_on,0,0,1,,,,,,,,,0,,,74,49
297750,note_on,60,0,1,,,,,,,,,0,,,79,0
297762,note_on,12,0,3,,,,,,,,,2,,,67,0
297762,note_on,0,0,3,,,,,,,,,2,,,63,0
297762,note_on,0,0,3,,,,,,,,,2,,,57,0
297810,note_on,0,0,1,,,,,,,,,0,,,72,49
297810,note_on,60,0,1,,,,,,,,,0,,,74,0
297870,note_on,60,0,1,,,,,,,,,0,,,72,0
297870,note_on,0,0,1,,,,,,,,,0,,,74,75
297870,note_on,360,0,4,,,,,,,,,3,,,55,0
297870,note_on,0,0,4,,,,,,,,,3,,,55,36
297882,note_on,12,0,1,,,,,,,,,0,,,74,0
297990,note_on,0,0,3,,,,,,,,,2,,,67,36
297990,note_on,108,0,1,,,,,,,,,0,,,70,75
297990,note_on,0,0,3,,,,,,,,,2,,,62,36
297990,note_on,228,0,3,,,,,,,,,2,,,58,36
297994,note_on,0,0,3,,,,,,,,,2,,,58,0
297994,note_on,0,0,3,,,,,,,,,2,,,62,0
297994,note_on,4,0,3,,,,,,,,,2,,,67,0
298002,note_on,12,0,1,,,,,,,,,0,,,70,0
298110,note_on,0,0,3,,,,,,,,,2,,,62,36
298110,note_on,116,0,3,,,,,,,,,2,,,58,36
298110,note_on,0,0,3,,,,,,,,,2,,,67,36
298110,note_on,108,0,1,,,,,,,,,0,,,74,101
298122,note_on,0,0,3,,,,,,,,,2,,,58,0
298122,note_on,0,0,3,,,,,,,,,2,,,62,0
298122,note_on,12,0,1,,,,,,,,,0,,,74,0
298122,note_on,12,0,3,,,,,,,,,2,,,67,0
298230,note_on,108,0,1,,,,,,,,,0,,,75,75
298230,note_on,0,0,4,,,,,,,,,3,,,55,36
298230,note_on,360,0,4,,,,,,,,,3,,,55,0
298242,note_on,12,0,1,,,,,,,,,0,,,75,0
298350,note_on,228,0,3,,,,,,,,,2,,,60,36
298350,note_on,0,0,3,,,,,,,,,2,,,62,36
298350,note_on,108,0,1,,,,,,,,,0,,,69,49
298350,note_on,0,0,3,,,,,,,,,2,,,66,36
298362,note_on,0,0,3,,,,,,,,,2,,,60,0
298362,note_on,12,0,3,,,,,,,,,2,,,66,0
298362,note_on,0,0,3,,,,,,,,,2,,,62,0
298410,note_on,0,0,1,,,,,,,,,0,,,72,49
298410,note_on,60,0,1,,,,,,,,,0,,,69,0
298470,note_on,108,0,3,,,,,,,,,2,,,57,36
298470,note_on,60,0,1,,,,,,,,,0,,,72,0
298470,note_on,0,0,3,,,,,,,,,2,,,66,36
298470,note_on,0,0,1,,,,,,,,,0,,,75,49
298470,note_on,0,0,3,,,,,,,,,2,,,62,36
298482,note_on,0,0,3,,,,,,,,,2,,,57,0
298482,note_on,0,0,3,,,,,,,,,2,,,62,0
298482,note_on,12,0,3,,,,,,,,,2,,,66,0
298590,note_on,120,0,1,,,,,,,,,0,,,75,0
298590,note_on,0,0,1,,,,,,,,,0,,,74,49
298590,note_on,0,0,4,,,,,,,,,3,,,55,36
298590,note_on,360,0,4,,,,,,,,,3,,,55,0
298710,note_on,228,0,3,,,,,,,,,2,,,58,36
298710,note_on,0,0,3,,,,,,,,,2,,,62,36
298710,note_on,0,0,3,,,,,,,,,2,,,67,36
298722,note_on,0,0,3,,,,,,,,,2,,,58,0
298722,note_on,12,0,3,,,,,,,,,2,,,67,0
298722,note_on,0,0,3,,,,,,,,,2,,,62,0
298830,note_on,108,0,3,,,,,,,,,2,,,58,36
298830,note_on,0,0,3,,,,,,,,,2,,,67,36
298830,note_on,240,0,1,,,,,,,,,0,,,74,0
298830,note_on,0,0,1,,,,,,,,,0,,,70,49
298830,note_on,0,0,3,,,,,,,,,2,,,62,36
298842,note_on,12,0,3,,,,,,,,,2,,,67,0
298842,note_on,0,0,3,,,,,,,,,2,,,62,0
298842,note_on,0,0,3,,,,,,,,,2,,,58,0
298890,note_on,60,0,1,,,,,,,,,0,,,70,0
298890,note_on,0,0,1,,,,,,,,,0,,,72,49
298920,note_on,30,0,1,,,,,,,,,0,,,74,49
298935,note_on,15,0,1,,,,,,,,,0,,,74,0
298935,note_on,0,0,1,,,,,,,,,0,,,75,49
298950,note_on,0,0,1,,,,,,,,,0,,,74,49
298950,note_on,360,0,4,,,,,,,,,3,,,55,0
298950,note_on,0,0,4,,,,,,,,,3,,,55,36
298950,note_on,15,0,1,,,,,,,,,0,,,75,0
298950,note_on,0,0,1,,,,,,,,,0,,,72,0
299010,note_on,0,0,1,,,,,,,,,0,,,72,49
299010,note_on,60,0,1,,,,,,,,,0,,,74,0
299070,note_on,60,0,1,,,,,,,,,0,,,72,0
299070,note_on,0,0,1,,,,,,,,,0,,,74,49
299070,note_on,0,0,3,,,,,,,,,2,,,67,36
299070,note_on,0,0,3,,,,,,,,,2,,,62,36
299070,note_on,228,0,3,,,,,,,,,2,,,58,36
299082,note_on,0,0,3,,,,,,,,,2,,,58,0
299082,note_on,0,0,3,,,,,,,,,2,,,62,0
299082,note_on,12,0,3,,,,,,,,,2,,,67,0
299130,note_on,60,0,1,,,,,,,,,0,,,74,0
299130,note_on,0,0,1,,,,,,,,,0,,,79,49
299190,note_on,0,0,1,,,,,,,,,0,,,74,49
299190,note_on,60,0,1,,,,,,,,,0,,,79,0
299190,note_on,0,0,3,,,,,,,,,2,,,67,36
299190,note_on,0,0,3,,,,,,,,,2,,,63,36
299190,note_on,108,0,3,,,,,,,,,2,,,57,36
299194,note_on,0,0,3,,,,,,,,,2,,,57,0
299194,note_on,0,0,3,,,,,,,,,2,,,63,0
299194,note_on,4,0,3,,,,,,,,,2,,,67,0
299250,note_on,0,0,1,,,,,,,,,0,,,72,49
299250,note_on,60,0,1,,,,,,,,,0,,,74,0
299310,note_on,360,0,4,,,,,,,,,3,,,55,0
299310,note_on,0,0,4,,,,,,,,,3,,,55,36
299310,note_on,60,0,1,,,,,,,,,0,,,72,0
299310,note_on,0,0,1,,,,,,,,,0,,,74,101
299322,note_on,12,0,1,,,,,,,,,0,,,74,0
299430,note_on,0,0,3,,,,,,,,,2,,,67,36
299430,note_on,108,0,1,,,,,,,,,0,,,79,75
299430,note_on,236,0,3,,,,,,,,,2,,,58,36
299430,note_on,0,0,3,,,,,,,,,2,,,62,36
299442,note_on,12,0,3,,,,,,,,,2,,,67,0
299442,note_on,12,0,1,,,,,,,,,0,,,79,0
299442,note_on,0,0,3,,,,,,,,,2,,,62,0
299442,note_on,0,0,3,,,,,,,,,2,,,58,0
299550,note_on,108,0,1,,,,,,,,,0,,,74,49
299550,note_on,0,0,3,,,,,,,,,2,,,67,36
299550,note_on,108,0,3,,,,,,,,,2,,,58,36
299550,note_on,0,0,3,,,,,,,,,2,,,62,36
299562,note_on,0,0,3,,,,,,,,,2,,,62,0
299562,note_on,0,0,3,,,,,,,,,2,,,58,0
299562,note_on,12,0,3,,,,,,,,,2,,,67,0
299610,note_on,0,0,1,,,,,,,,,0,,,82,49
299610,note_on,60,0,1,,,,,,,,,0,,,74,0
299670,note_on,0,0,4,,,,,,,,,3,,,55,36
299670,note_on,0,0,1,,,,,,,,,0,,,82,49
299670,note_on,60,0,1,,,,,,,,,0,,,82,0
299670,note_on,360,0,4,,,,,,,,,3,,,55,0
299730,note_on,60,0,1,,,,,,,,,0,,,82,0
299730,note_on,0,0,1,,,,,,,,,0,,,81,49
299736,note_on,6,0,1,,,,,,,,,0,,,81,0
299790,note_on,54,0,1,,,,,,,,,0,,,81,75
299790,note_on,0,0,3,,,,,,,,,2,,,66,36
299790,note_on,0,0,3,,,,,,,,,2,,,62,36
299790,note_on,228,0,3,,,,,,,,,2,,,60,36
299796,note_on,6,0,1,,,,,,,,,0,,,81,0
299802,note_on,0,0,3,,,,,,,,,2,,,62,0
299802,note_on,12,0,3,,,,,,,,,2,,,66,0
299802,note_on,0,0,3,,,,,,,,,2,,,60,0
299850,note_on,54,0,1,,,,,,,,,0,,,81,75
299856,note_on,6,0,1,,,,,,,,,0,,,81,0
299910,note_on,0,0,3,,,,,,,,,2,,,66,36
299910,note_on,0,0,3,,,,,,,,,2,,,62,36
299910,note_on,108,0,3,,,,,,,,,2,,,60,36
299910,note_on,54,0,1,,,,,,,,,0,,,81,49
299914,note_on,0,0,3,,,,,,,,,2,,,62,0
299914,note_on,4,0,3,,,,,,,,,2,,,66,0
299914,note_on,0,0,3,,,,,,,,,2,,,60,0
299970,note_on,0,0,1,,,,,,,,,0,,,82,49
299970,note_on,60,0,1,,,,,,,,,0,,,81,0
299976,note_on,6,0,1,,,,,,,,,0,,,82,0
300030,note_on,0,0,4,,,,,,,,,3,,,55,36
300030,note_on,360,0,4,,,,,,,,,3,,,55,0
300030,time_signature,2520,1,0,2,4,24,8,,,,,,,,,
300030,note_on,54,0,1,,,,,,,,,0,,,79,49
300150,note_on,236,0,3,,,,,,,,,2,,,58,36
300150,note_on,0,0,3,,,,,,,,,2,,,62,36
300150,note_on,0,0,3,,,,,,,,,2,,,67,36
300270,note_on,240,0,4,,,,,,,,,3,,,55,0
300270,note_on,240,0,1,,,,,,,,,0,,,79,0
300270,note_on,0,0,3,,,,,,,,,2,,,58,0
300270,note_on,0,0,1,,,,,,,,,0,,,70,49
300270,time_signature,240,1,0,1,4,24,8,,,,,,,,,
300270,note_on,0,0,3,,,,,,,,,2,,,62,0
300270,note_on,120,0,3,,,,,,,,,2,,,67,0
300330,note_on,0,0,1,,,,,,,,,0,,,72,49
300330,note_on,60,0,1,,,,,,,,,0,,,70,0
300360,note_on,30,0,1,,,,,,,,,0,,,74,49
300375,note_on,0,0,1,,,,,,,,,0,,,75,49
300375,note_on,15,0,1,,,,,,,,,0,,,74,0
300390,time_signature,120,1,0,3,4,24,8,,,,,,,,,
300390,note_on,120,0,4,,,,,,,,,3,,,55,36
300390,note_on,15,0,1,,,,,,,,,0,,,75,0
300390,note_on,0,0,1,,,,,,,,,0,,,72,0
300390,note_on,0,0,1,,,,,,,,,0,,,74,49
300450,note_on,60,0,1,,,,,,,,,0,,,74,0
300450,note_on,0,0,1,,,,,,,,,0,,,72,49
300510,note_on,0,0,3,,,,,,,,,2,,,67,36
300510,note_on,240,0,3,,,,,,,,,2,,,58,36
300510,note_on,0,0,3,,,,,,,,,2,,,62,36
300510,note_on,0,0,1,,,,,,,,,0,,,74,49
300510,note_on,60,0,1,,,,,,,,,0,,,72,0
300522,note_on,0,0,3,,,,,,,,,2,,,58,0
300522,note_on,12,0,3,,,,,,,,,2,,,67,0
300522,note_on,0,0,3,,,,,,,,,2,,,62,0
300570,note_on,0,0,1,,,,,,,,,0,,,79,49
300570,note_on,60,0,1,,,,,,,,,0,,,74,0
300630,note_on,60,0,1,,,,,,,,,0,,,79,0
300630,note_on,0,0,1,,,,,,,,,0,,,74,49
300630,note_on,108,0,3,,,,,,,,,2,,,57,36
300630,note_on,0,0,3,,,,,,,,,2,,,63,36
300630,note_on,0,0,3,,,,,,,,,2,,,67,36
300642,note_on,0,0,3,,,,,,,,,2,,,57,0
300642,note_on,0,0,3,,,,,,,,,2,,,63,0
300642,note_on,12,0,3,,,,,,,,,2,,,67,0
300690,note_on,60,0,1,,,,,,,,,0,,,74,0
300690,note_on,0,0,1,,,,,,,,,0,,,72,49
300750,note_on,0,0,4,,,,,,,,,3,,,55,36
300750,note_on,60,0,1,,,,,,,,,0,,,72,0
300750,note_on,0,0,1,,,,,,,,,0,,,74,75
300750,note_on,360,0,4,,,,,,,,,3,,,55,0
300762,note_on,12,0,1,,,,,,,,,0,,,74,0
300870,note_on,0,0,3,,,,,,,,,2,,,67,36
300870,note_on,0,0,3,,,,,,,,,2,,,62,36
300870,note_on,228,0,3,,,,,,,,,2,,,58,36
300870,note_on,108,0,1,,,,,,,,,0,,,70,75
300874,note_on,0,0,3,,,,,,,,,2,,,62,0
300874,note_on,0,0,3,,,,,,,,,2,,,58,0
300874,note_on,4,0,3,,,,,,,,,2,,,67,0
300882,note_on,12,0,1,,,,,,,,,0,,,70,0
300990,note_on,108,0,1,,,,,,,,,0,,,74,101
300990,note_on,116,0,3,,,,,,,,,2,,,58,36
300990,note_on,0,0,3,,,,,,,,,2,,,62,36
300990,note_on,0,0,3,,,,,,,,,2,,,67,36
301002,note_on,12,0,3,,,,,,,,,2,,,67,0
301002,note_on,12,0,1,,,,,,,,,0,,,74,0
301002,note_on,0,0,3,,,,,,,,,2,,,58,0
301002,note_on,0,0,3,,,,,,,,,2,,,62,0
301110,note_on,108,0,1,,,,,,,,,0,,,75,75
301110,note_on,0,0,4,,,,,,,,,3,,,55,36
301110,note_on,360,0,4,,,,,,,,,3,,,55,0
301122,note_on,12,0,1,,,,,,,,,0,,,75,0
301230,note_on,0,0,3,,,,,,,,,2,,,62,36
301230,note_on,228,0,3,,,,,,,,,2,,,60,36
301230,note_on,0,0,3,,,,,,,,,2,,,66,36
301230,note_on,108,0,1,,,,,,,,,0,,,69,49
301242,note_on,0,0,3,,,,,,,,,2,,,60,0
301242,note_on,0,0,3,,,,,,,,,2,,,62,0
301242,note_on,12,0,3,,,,,,,,,2,,,66,0
301290,note_on,60,0,1,,,,,,,,,0,,,69,0
301290,note_on,0,0,1,,,,,,,,,0,,,72,49
301350,note_on,0,0,1,,,,,,,,,0,,,75,49
301350,note_on,60,0,1,,,,,,,,,0,,,72,0
301350,note_on,0,0,3,,,,,,,,,2,,,66,36
301350,note_on,0,0,3,,,,,,,,,2,,,62,36
301350,note_on,108,0,3,,,,,,,,,2,,,57,36
301362,note_on,12,0,3,,,,,,,,,2,,,66,0
301362,note_on,0,0,3,,,,,,,,,2,,,57,0
301362,note_on,0,0,3,,,,,,,,,2,,,62,0
301470,note_on,360,0,4,,,,,,,,,3,,,55,0
301470,note_on,0,0,4,,,,,,,,,3,,,55,36
301470,note_on,0,0,1,,,,,,,,,0,,,74,49
301470,note_on,120,0,1,,,,,,,,,0,,,75,0
301590,note_on,0,0,3,,,,,,,,,2,,,62,36
301590,note_on,0,0,3,,,,,,,,,2,,,67,36
301590,note_on,228,0,3,,,,,,,,,2,,,58,36
301602,note_on,0,0,3,,,,,,,,,2,,,62,0
301602,note_on,0,0,3,,,,,,,,,2,,,58,0
301602,note_on,12,0,3,,,,,,,,,2,,,67,0
301710,note_on,108,0,3,,,,,,,,,2,,,58,36
301710,note_on,0,0,1,,,,,,,,,0,,,70,49
301710,note_on,0,0,3,,,,,,,,,2,,,62,36
301710,note_on,240,0,1,,,,,,,,,0,,,74,0
301710,note_on,0,0,3,,,,,,,,,2,,,67,36
301722,note_on,12,0,3,,,,,,,,,2,,,67,0
301722,note_on,0,0,3,,,,,,,,,2,,,62,0
301722,note_on,0,0,3,,,,,,,,,2,,,58,0
301770,note_on,0,0,1,,,,,,,,,0,,,72,49
301770,note_on,60,0,1,,,,,,,,,0,,,70,0
301800,note_on,30,0,1,,,,,,,,,0,,,74,49
301815,note_on,15,0,1,,,,,,,,,0,,,74,0
301815,note_on,0,0,1,,,,,,,,,0,,,75,49
301830,note_on,0,0,4,,,,,,,,,3,,,55,36
301830,note_on,360,0,4,,,,,,,,,3,,,55,0
301830,note_on,15,0,1,,,,,,,,,0,,,75,0
301830,note_on,0,0,1,,,,,,,,,0,,,72,0
301830,note_on,0,0,1,,,,,,,,,0,,,74,49
301890,note_on,60,0,1,,,,,,,,,0,,,74,0
301890,note_on,0,0,1,,,,,,,,,0,,,72,49
301950,note_on,0,0,1,,,,,,,,,0,,,74,49
301950,note_on,60,0,1,,,,,,,,,0,,,72,0
301950,note_on,228,0,3,,,,,,,,,2,,,58,36
301950,note_on,0,0,3,,,,,,,,,2,,,62,36
301950,note_on,0,0,3,,,,,,,,,2,,,67,36
301962,note_on,0,0,3,,,,,,,,,2,,,62,0
301962,note_on,0,0,3,,,,,,,,,2,,,58,0
301962,note_on,12,0,3,,,,,,,,,2,,,67,0
302010,note_on,0,0,1,,,,,,,,,0,,,79,49
302010,note_on,60,0,1,,,,,,,,,0,,,74,0
302070,note_on,0,0,3,,,,,,,,,2,,,63,36
302070,note_on,60,0,1,,,,,,,,,0,,,79,0
302070,note_on,0,0,3,,,,,,,,,2,,,67,36
302070,note_on,108,0,3,,,,,,,,,2,,,57,36
302070,note_on,0,0,1,,,,,,,,,0,,,74,49
302074,note_on,0,0,3,,,,,,,,,2,,,57,0
302074,note_on,4,0,3,,,,,,,,,2,,,67,0
302074,note_on,0,0,3,,,,,,,,,2,,,63,0
302130,note_on,0,0,1,,,,,,,,,0,,,72,49
302130,note_on,60,0,1,,,,,,,,,0,,,74,0
302190,note_on,60,0,1,,,,,,,,,0,,,72,0
302190,note_on,360,0,4,,,,,,,,,3,,,55,0
302190,note_on,0,0,4,,,,,,,,,3,,,55,36
302190,note_on,0,0,1,,,,,,,,,0,,,74,101
302202,note_on,12,0,1,,,,,,,,,0,,,74,0
302310,note_on,108,0,1,,,,,,,,,0,,,79,75
302310,note_on,0,0,3,,,,,,,,,2,,,67,36
302310,note_on,236,0,3,,,,,,,,,2,,,58,36
302310,note_on,0,0,3,,,,,,,,,2,,,62,36
302322,note_on,12,0,3,,,,,,,,,2,,,67,0
302322,note_on,0,0,3,,,,,,,,,2,,,62,0
302322,note_on,0,0,3,,,,,,,,,2,,,58,0
302322,note_on,12,0,1,,,,,,,,,0,,,79,0
302430,note_on,108,0,1,,,,,,,,,0,,,74,49
302430,note_on,108,0,3,,,,,,,,,2,,,58,36
302430,note_on,0,0,3,,,,,,,,,2,,,62,36
302430,note_on,0,0,3,,,,,,,,,2,,,67,36
302442,note_on,0,0,3,,,,,,,,,2,,,58,0
302442,note_on,0,0,3,,,,,,,,,2,,,62,0
302442,note_on,12,0,3,,,,,,,,,2,,,67,0
302490,note_on,60,0,1,,,,,,,,,0,,,74,0
302490,note_on,0,0,1,,,,,,,,,0,,,82,49
302550,note_on,0,0,1,,,,,,,,,0,,,82,49
302550,note_on,60,0,1,,,,,,,,,0,,,82,0
302550,note_on,360,0,4,,,,,,,,,3,,,55,0
302550,note_on,0,0,4,,,,,,,,,3,,,55,36
302610,note_on,0,0,1,,,,,,,,,0,,,81,49
302610,note_on,60,0,1,,,,,,,,,0,,,82,0
302616,note_on,6,0,1,,,,,,,,,0,,,81,0
302670,note_on,0,0,3,,,,,,,,,2,,,62,36
302670,note_on,54,0,1,,,,,,,,,0,,,81,75
302670,note_on,0,0,3,,,,,,,,,2,,,66,36
302670,note_on,228,0,3,,,,,,,,,2,,,60,36
302676,note_on,6,0,1,,,,,,,,,0,,,81,0
302682,note_on,12,0,3,,,,,,,,,2,,,66,0
302682,note_on,0,0,3,,,,,,,,,2,,,62,0
302682,note_on,0,0,3,,,,,,,,,2,,,60,0
302730,note_on,54,0,1,,,,,,,,,0,,,81,75
302736,note_on,6,0,1,,,,,,,,,0,,,81,0
302790,note_on,108,0,3,,,,,,,,,2,,,60,36
302790,note_on,54,0,1,,,,,,,,,0,,,81,49
302790,note_on,0,0,3,,,,,,,,,2,,,62,36
302790,note_on,0,0,3,,,,,,,,,2,,,66,36
302794,note_on,0,0,3,,,,,,,,,2,,,60,0
302794,note_on,0,0,3,,,,,,,,,2,,,62,0
302794,note_on,4,0,3,,,,,,,,,2,,,66,0
302850,note_on,60,0,1,,,,,,,,,0,,,81,0
302850,note_on,0,0,1,,,,,,,,,0,,,82,49
302856,note_on,6,0,1,,,,,,,,,0,,,82,0
302910,note_on,54,0,1,,,,,,,,,0,,,79,49
302910,note_on,360,0,4,,,,,,,,,3,,,55,0
302910,note_on,0,0,4,,,,,,,,,3,,,55,36
302910,time_signature,2520,1,0,2,4,24,8,,,,,,,,,
303030,note_on,236,0,3,,,,,,,,,2,,,58,36
303030,note_on,0,0,3,,,,,,,,,2,,,62,36
303030,note_on,0,0,3,,,,,,,,,2,,,67,36
303150,note_on,120,0,3,,,,,,,,,2,,,67,0
303150,note_on,0,0,3,,,,,,,,,2,,,62,0
303150,note_on,0,0,3,,,,,,,,,2,,,58,0
303150,note_on,240,0,4,,,,,,,,,3,,,55,0
303150,note_on,240,0,1,,,,,,,,,0,,,79,0
303150,note_on,0,0,1,,,,,,,,,0,,,74,88
303150,time_signature,240,1,0,1,4,24,8,,,,,,,,,
303210,note_on,60,0,1,,,,,,,,,0,,,74,0
303210,note_on,0,0,1,,,,,,,,,0,,,75,88
303240,note_on,30,0,1,,,,,,,,,0,,,77,88
303255,note_on,15,0,1,,,,,,,,,0,,,77,0
303255,note_on,0,0,1,,,,,,,,,0,,,79,88
303270,note_on,0,0,1,,,,,,,,,0,,,75,0
303270,note_on,15,0,1,,,,,,,,,0,,,79,0
303270,time_signature,120,1,0,3,4,24,8,,,,,,,,,
303270,note_on,120,0,3,,,,,,,,,2,,,46,75
303270,note_on,46440,0,2,,,,,,,,,1,,,74,75
303270,note_on,0,0,1,,,,,,,,,0,,,77,88
303330,note_on,60,0,1,,,,,,,,,0,,,77,0
303330,note_on,0,0,1,,,,,,,,,0,,,76,88
303390,note_on,60,0,1,,,,,,,,,0,,,76,0
303390,note_on,0,0,1,,,,,,,,,0,,,77,88
303390,note_on,0,0,3,,,,,,,,,2,,,53,75
303390,note_on,0,0,3,,,,,,,,,2,,,62,75
303390,note_on,120,0,3,,,,,,,,,2,,,46,0
303390,note_on,0,0,3,,,,,,,,,2,,,58,75
303402,note_on,0,0,3,,,,,,,,,2,,,53,0
303402,note_on,0,0,3,,,,,,,,,2,,,58,0
303402,note_on,12,0,3,,,,,,,,,2,,,62,0
303450,note_on,60,0,1,,,,,,,,,0,,,77,0
303450,note_on,0,0,1,,,,,,,,,0,,,82,88
303510,note_on,0,0,3,,,,,,,,,2,,,62,75
303510,note_on,0,0,3,,,,,,,,,2,,,58,75
303510,note_on,60,0,1,,,,,,,,,0,,,82,0
303510,note_on,0,0,1,,,,,,,,,0,,,77,88
303510,note_on,108,0,3,,,,,,,,,2,,,53,75
303510,note_on,0,0,2,,,,,,,,,1,,,74,75
303510,note_on,240,0,2,,,,,,,,,1,,,74,0
303522,note_on,0,0,3,,,,,,,,,2,,,53,0
303522,note_on,0,0,3,,,,,,,,,2,,,58,0
303522,note_on,12,0,3,,,,,,,,,2,,,62,0
303570,note_on,60,0,2,,,,,,,,,1,,,74,0
303570,note_on,0,0,1,,,,,,,,,0,,,76,88
303570,note_on,60,0,1,,,,,,,,,0,,,77,0
303570,note_on,0,0,2,,,,,,,,,1,,,73,75
303630,note_on,60,0,2,,,,,,,,,1,,,73,0
303630,note_on,0,0,1,,,,,,,,,0,,,77,114
303630,note_on,0,0,1,,,,,,,,,0,,,74,106
303630,note_on,60,0,1,,,,,,,,,0,,,76,0
303630,note_on,108,0,3,,,,,,,,,2,,,46,75
303642,note_on,0,0,1,,,,,,,,,0,,,74,0
303642,note_on,12,0,1,,,,,,,,,0,,,77,0
303750,note_on,120,0,3,,,,,,,,,2,,,46,0
303750,note_on,0,0,3,,,,,,,,,2,,,53,75
303750,note_on,108,0,1,,,,,,,,,0,,,65,127
303750,note_on,0,0,3,,,,,,,,,2,,,58,75
303750,note_on,0,0,3,,,,,,,,,2,,,62,75
303762,note_on,0,0,3,,,,,,,,,2,,,53,0
303762,note_on,12,0,1,,,,,,,,,0,,,65,0
303762,note_on,0,0,3,,,,,,,,,2,,,58,0
303762,note_on,12,0,3,,,,,,,,,2,,,62,0
303870,note_on,108,0,3,,,,,,,,,2,,,53,75
303870,note_on,0,0,3,,,,,,,,,2,,,58,75
303870,note_on,108,0,1,,,,,,,,,0,,,74,106
303870,note_on,0,0,1,,,,,,,,,0,,,77,114
303870,note_on,0,0,3,,,,,,,,,2,,,62,75
303882,note_on,12,0,3,,,,,,,,,2,,,62,0
303882,note_on,0,0,1,,,,,,,,,0,,,74,0
303882,note_on,0,0,3,,,,,,,,,2,,,53,0
303882,note_on,0,0,3,,,,,,,,,2,,,58,0
303882,note_on,12,0,1,,,,,,,,,0,,,77,0
303990,note_on,0,0,1,,,,,,,,,0,,,79,88
303990,note_on,108,0,1,,,,,,,,,0,,,75,88
303990,note_on,108,0,3,,,,,,,,,2,,,46,75
304050,note_on,0,0,1,,,,,,,,,0,,,75,0
304050,note_on,0,0,1,,,,,,,,,0,,,82,88
304050,note_on,60,0,1,,,,,,,,,0,,,79,0
304056,note_on,6,0,1,,,,,,,,,0,,,82,0
304110,note_on,120,0,3,,,,,,,,,2,,,46,0
304110,note_on,0,0,3,,,,,,,,,2,,,55,75
304110,note_on,0,0,3,,,,,,,,,2,,,58,75
304110,note_on,0,0,3,,,,,,,,,2,,,63,75
304110,note_on,54,0,1,,,,,,,,,0,,,79,88
304110,note_on,0,0,1,,,,,,,,,0,,,82,88
304122,note_on,12,0,3,,,,,,,,,2,,,63,0
304122,note_on,0,0,3,,,,,,,,,2,,,58,0
304122,note_on,0,0,3,,,,,,,,,2,,,55,0
304170,note_on,0,0,1,,,,,,,,,0,,,87,88
304170,note_on,0,0,1,,,,,,,,,0,,,79,0
304170,note_on,60,0,1,,,,,,,,,0,,,82,0
304176,note_on,6,0,1,,,,,,,,,0,,,87,0
304230,note_on,0,0,3,,,,,,,,,2,,,63,75
304230,note_on,0,0,1,,,,,,,,,0,,,87,88
304230,note_on,0,0,3,,,,,,,,,2,,,58,75
304230,note_on,54,0,1,,,,,,,,,0,,,82,88
304230,note_on,108,0,3,,,,,,,,,2,,,55,75
304242,note_on,0,0,3,,,,,,,,,2,,,58,0
304242,note_on,12,0,3,,,,,,,,,2,,,63,0
304242,note_on,0,0,3,,,,,,,,,2,,,55,0
304290,note_on,0,0,1,,,,,,,,,0,,,91,88
304290,note_on,0,0,1,,,,,,,,,0,,,82,0
304290,note_on,60,0,1,,,,,,,,,0,,,87,0
304296,note_on,6,0,1,,,,,,,,,0,,,91,0
304350,note_on,0,0,1,,,,,,,,,0,,,89,88
304350,note_on,54,0,1,,,,,,,,,0,,,86,88
304350,note_on,108,0,3,,,,,,,,,2,,,46,75
304470,note_on,0,0,3,,,,,,,,,2,,,62,75
304470,note_on,0,0,3,,,,,,,,,2,,,58,75
304470,note_on,0,0,3,,,,,,,,,2,,,53,75
304470,note_on,120,0,3,,,,,,,,,2,,,46,0
304482,note_on,0,0,3,,,,,,,,,2,,,53,0
304482,note_on,0,0,3,,,,,,,,,2,,,58,0
304482,note_on,12,0,3,,,,,,,,,2,,,62,0
304590,note_on,240,0,1,,,,,,,,,0,,,89,0
304590,note_on,0,0,1,,,,,,,,,0,,,86,0
304590,note_on,108,0,3,,,,,,,,,2,,,53,75
304590,note_on,0,0,3,,,,,,,,,2,,,62,75
304590,note_on,0,0,3,,,,,,,,,2,,,58,75
304590,note_on,0,0,1,,,,,,,,,0,,,74,88
304602,note_on,0,0,3,,,,,,,,,2,,,58,0
304602,note_on,12,0,3,,,,,,,,,2,,,62,0
304602,note_on,0,0,3,,,,,,,,,2,,,53,0
304650,note_on,60,0,1,,,,,,,,,0,,,74,0
304650,note_on,0,0,1,,,,,,,,,0,,,75,88
304680,note_on,30,0,1,,,,,,,,,0,,,77,88
304695,note_on,0,0,1,,,,,,,,,0,,,79,88
304695,note_on,15,0,1,,,,,,,,,0,,,77,0
304710,note_on,108,0,3,,,,,,,,,2,,,46,75
304710,note_on,0,0,1,,,,,,,,,0,,,77,88
304710,note_on,0,0,1,,,,,,,,,0,,,75,0
304710,note_on,15,0,1,,,,,,,,,0,,,79,0
304710,note_on,1080,0,2,,,,,,,,,1,,,74,75
304770,note_on,0,0,1,,,,,,,,,0,,,76,88
304770,note_on,60,0,1,,,,,,,,,0,,,77,0
304830,note_on,0,0,3,,,,,,,,,2,,,62,75
304830,note_on,0,0,3,,,,,,,,,2,,,58,75
304830,note_on,120,0,3,,,,,,,,,2,,,46,0
304830,note_on,60,0,1,,,,,,,,,0,,,76,0
304830,note_on,0,0,1,,,,,,,,,0,,,77,88
304830,note_on,0,0,3,,,,,,,,,2,,,53,75
304842,note_on,0,0,3,,,,,,,,,2,,,53,0
304842,note_on,0,0,3,,,,,,,,,2,,,58,0
304842,note_on,12,0,3,,,,,,,,,2,,,62,0
304890,note_on,60,0,1,,,,,,,,,0,,,77,0
304890,note_on,0,0,1,,,,,,,,,0,,,82,88
304950,note_on,0,0,2,,,,,,,,,1,,,74,75
304950,note_on,60,0,1,,,,,,,,,0,,,82,0
304950,note_on,0,0,1,,,,,,,,,0,,,77,88
304950,note_on,240,0,2,,,,,,,,,1,,,74,0
304950,note_on,108,0,3,,,,,,,,,2,,,53,75
304950,note_on,0,0,3,,,,,,,,,2,,,58,75
304950,note_on,0,0,3,,,,,,,,,2,,,62,75
304962,note_on,0,0,3,,,,,,,,,2,,,53,0
304962,note_on,12,0,3,,,,,,,,,2,,,62,0
304962,note_on,0,0,3,,,,,,,,,2,,,58,0
305010,note_on,60,0,1,,,,,,,,,0,,,77,0
305010,note_on,0,0,1,,,,,,,,,0,,,76,88
305010,note_on,60,0,2,,,,,,,,,1,,,74,0
305010,note_on,0,0,2,,,,,,,,,1,,,73,75
305070,note_on,108,0,3,,,,,,,,,2,,,46,75
305070,note_on,60,0,2,,,,,,,,,1,,,73,0
305070,note_on,0,0,1,,,,,,,,,0,,,74,124
305070,note_on,60,0,1,,,,,,,,,0,,,76,0
305070,note_on,0,0,1,,,,,,,,,0,,,77,127
305082,note_on,12,0,1,,,,,,,,,0,,,77,0
305082,note_on,0,0,1,,,,,,,,,0,,,74,0
305190,note_on,0,0,3,,,,,,,,,2,,,62,75
305190,note_on,0,0,3,,,,,,,,,2,,,58,75
305190,note_on,0,0,3,,,,,,,,,2,,,53,75
305190,note_on,120,0,3,,,,,,,,,2,,,46,0
305190,note_on,0,0,1,,,,,,,,,0,,,82,114
305190,note_on,108,0,1,,,,,,,,,0,,,77,106
305202,note_on,12,0,1,,,,,,,,,0,,,82,0
305202,note_on,0,0,3,,,,,,,,,2,,,58,0
305202,note_on,12,0,3,,,,,,,,,2,,,62,0
305202,note_on,0,0,1,,,,,,,,,0,,,77,0
305202,note_on,0,0,3,,,,,,,,,2,,,53,0
305310,note_on,0,0,3,,,,,,,,,2,,,62,75
305310,note_on,0,0,3,,,,,,,,,2,,,58,75
305310,note_on,0,0,1,,,,,,,,,0,,,86,127
305310,note_on,108,0,1,,,,,,,,,0,,,82,124
305310,note_on,108,0,3,,,,,,,,,2,,,53,75
305322,note_on,12,0,3,,,,,,,,,2,,,62,0
305322,note_on,0,0,3,,,,,,,,,2,,,58,0
305322,note_on,0,0,3,,,,,,,,,2,,,53,0
305322,note_on,0,0,1,,,,,,,,,0,,,82,0
305322,note_on,12,0,1,,,,,,,,,0,,,86,0
305430,note_on,108,0,1,,,,,,,,,0,,,86,88
305430,note_on,0,0,1,,,,,,,,,0,,,89,88
305430,note_on,360,0,2,,,,,,,,,1,,,77,75
305430,note_on,108,0,3,,,,,,,,,2,,,41,75
305490,note_on,0,0,1,,,,,,,,,0,,,86,0
305490,note_on,60,0,1,,,,,,,,,0,,,89,0
305490,note_on,0,0,1,,,,,,,,,0,,,84,88
305490,note_on,0,0,1,,,,,,,,,0,,,87,88
305496,note_on,0,0,1,,,,,,,,,0,,,84,0
305496,note_on,6,0,1,,,,,,,,,0,,,87,0
305550,note_on,0,0,1,,,,,,,,,0,,,87,114
305550,note_on,54,0,1,,,,,,,,,0,,,84,106
305550,note_on,120,0,2,,,,,,,,,1,,,77,0
305550,note_on,0,0,3,,,,,,,,,2,,,53,75
305550,note_on,0,0,3,,,,,,,,,2,,,60,75
305550,note_on,120,0,3,,,,,,,,,2,,,41,0
305550,note_on,0,0,2,,,,,,,,,1,,,77,101
305550,note_on,0,0,3,,,,,,,,,2,,,63,75
305556,note_on,6,0,2,,,,,,,,,1,,,77,0
305556,note_on,6,0,1,,,,,,,,,0,,,87,0
305556,note_on,0,0,1,,,,,,,,,0,,,84,0
305562,note_on,12,0,3,,,,,,,,,2,,,63,0
305562,note_on,0,0,3,,,,,,,,,2,,,60,0
305562,note_on,0,0,3,,,,,,,,,2,,,53,0
305610,note_on,54,0,2,,,,,,,,,1,,,77,101
305610,note_on,54,0,1,,,,,,,,,0,,,84,124
305610,note_on,0,0,1,,,,,,,,,0,,,87,127
305614,note_on,4,0,1,,,,,,,,,0,,,87,0
305614,note_on,0,0,1,,,,,,,,,0,,,84,0
305616,note_on,6,0,2,,,,,,,,,1,,,77,0
305670,note_on,54,0,2,,,,,,,,,1,,,77,75
305670,note_on,0,0,2,,,,,,,,,1,,,81,75
305670,note_on,108,0,3,,,,,,,,,2,,,53,75
305670,note_on,0,0,3,,,,,,,,,2,,,60,75
305670,note_on,0,0,3,,,,,,,,,2,,,63,75
305670,note_on,56,0,1,,,,,,,,,0,,,87,88
305682,note_on,0,0,3,,,,,,,,,2,,,60,0
305682,note_on,0,0,3,,,,,,,,,2,,,53,0
305682,note_on,12,0,3,,,,,,,,,2,,,63,0
305730,note_on,60,0,1,,,,,,,,,0,,,87,0
305730,note_on,0,0,1,,,,,,,,,0,,,89,88
305736,note_on,6,0,1,,,,,,,,,0,,,89,0
305790,note_on,120,0,2,,,,,,,,,1,,,81,0
305790,note_on,0,0,2,,,,,,,,,1,,,77,0
305790,note_on,54,0,1,,,,,,,,,0,,,74,88
305790,note_on,0,0,1,,,,,,,,,0,,,77,88
305790,time_signature,2520,1,0,2,4,24,8,,,,,,,,,
305790,note_on,0,0,1,,,,,,,,,0,,,82,88
305790,note_on,108,0,3,,,,,,,,,2,,,46,75
305910,note_on,0,0,3,,,,,,,,,2,,,62,75
305910,note_on,120,0,3,,,,,,,,,2,,,46,0
305910,note_on,0,0,3,,,,,,,,,2,,,53,75
305910,note_on,0,0,3,,,,,,,,,2,,,58,75
306030,note_on,0,0,1,,,,,,,,,0,,,77,0
306030,note_on,0,0,1,,,,,,,,,0,,,74,0
306030,note_on,0,0,1,,,,,,,,,0,,,74,88
306030,note_on,240,0,1,,,,,,,,,0,,,82,0
306030,note_on,0,0,3,,,,,,,,,2,,,53,0
306030,note_on,120,0,3,,,,,,,,,2,,,62,0
306030,note_on,0,0,3,,,,,,,,,2,,,58,0
306030,time_signature,240,1,0,1,4,24,8,,,,,,,,,
306090,note_on,60,0,1,,,,,,,,,0,,,74,0
306090,note_on,0,0,1,,,,,,,,,0,,,75,88
306120,note_on,30,0,1,,,,,,,,,0,,,77,88
306135,note_on,0,0,1,,,,,,,,,0,,,79,88
306135,note_on,15,0,1,,,,,,,,,0,,,77,0
306150,note_on,360,0,2,,,,,,,,,1,,,74,75
306150,time_signature,120,1,0,3,4,24,8,,,,,,,,,
306150,note_on,0,0,1,,,,,,,,,0,,,77,88
306150,note_on,0,0,1,,,,,,,,,0,,,75,0
306150,note_on,15,0,1,,,,,,,,,0,,,79,0
306150,note_on,120,0,3,,,,,,,,,2,,,46,75
306210,note_on,0,0,1,,,,,,,,,0,,,76,88
306210,note_on,60,0,1,,,,,,,,,0,,,77,0
306270,note_on,60,0,1,,,,,,,,,0,,,76,0
306270,note_on,0,0,1,,,,,,,,,0,,,77,88
306270,note_on,120,0,3,,,,,,,,,2,,,46,0
306270,note_on,0,0,3,,,,,,,,,2,,,58,75
306270,note_on,0,0,3,,,,,,,,,2,,,62,75
306270,note_on,0,0,3,,,,,,,,,2,,,53,75
306282,note_on,12,0,3,,,,,,,,,2,,,62,0
306282,note_on,0,0,3,,,,,,,,,2,,,58,0
306282,note_on,0,0,3,,,,,,,,,2,,,53,0
306330,note_on,0,0,1,,,,,,,,,0,,,82,88
306330,note_on,60,0,1,,,,,,,,,0,,,77,0
306390,note_on,0,0,1,,,,,,,,,0,,,77,88
306390,note_on,60,0,1,,,,,,,,,0,,,82,0
306390,note_on,0,0,2,,,,,,,,,1,,,74,75
306390,note_on,240,0,2,,,,,,,,,1,,,74,0
306390,note_on,0,0,3,,,,,,,,,2,,,62,75
306390,note_on,0,0,3,,,,,,,,,2,,,58,75
306390,note_on,108,0,3,,,,,,,,,2,,,53,75
306402,note_on,12,0,3,,,,,,,,,2,,,62,0
306402,note_on,0,0,3,,,,,,,,,2,,,58,0
306402,note_on,0,0,3,,,,,,,,,2,,,53,0
306450,note_on,0,0,1,,,,,,,,,0,,,76,88
306450,note_on,60,0,1,,,,,,,,,0,,,77,0
306450,note_on,0,0,2,,,,,,,,,1,,,73,75
306450,note_on,60,0,2,,,,,,,,,1,,,74,0
306510,note_on,60,0,2,,,,,,,,,1,,,73,0
306510,note_on,60,0,1,,,,,,,,,0,,,76,0
306510,note_on,0,0,1,,,,,,,,,0,,,74,106
306510,note_on,0,0,1,,,,,,,,,0,,,77,114
306510,note_on,108,0,3,,,,,,,,,2,,,46,75
306522,note_on,12,0,1,,,,,,,,,0,,,77,0
306522,note_on,0,0,1,,,,,,,,,0,,,74,0
306630,note_on,0,0,3,,,,,,,,,2,,,53,75
306630,note_on,120,0,3,,,,,,,,,2,,,46,0
306630,note_on,108,0,1,,,,,,,,,0,,,65,127
306630,note_on,0,0,3,,,,,,,,,2,,,58,75
306630,note_on,0,0,3,,,,,,,,,2,,,62,75
306642,note_on,12,0,1,,,,,,,,,0,,,65,0
306642,note_on,12,0,3,,,,,,,,,2,,,62,0
306642,note_on,0,0,3,,,,,,,,,2,,,58,0
306642,note_on,0,0,3,,,,,,,,,2,,,53,0
306750,note_on,0,0,1,,,,,,,,,0,,,77,114
306750,note_on,108,0,1,,,,,,,,,0,,,74,106
306750,note_on,0,0,3,,,,,,,,,2,,,58,75
306750,note_on,108,0,3,,,,,,,,,2,,,53,75
306750,note_on,0,0,3,,,,,,,,,2,,,62,75
306762,note_on,12,0,3,,,,,,,,,2,,,62,0
306762,note_on,0,0,1,,,,,,,,,0,,,74,0
306762,note_on,12,0,1,,,,,,,,,0,,,77,0
306762,note_on,0,0,3,,,,,,,,,2,,,53,0
306762,note_on,0,0,3,,,,,,,,,2,,,58,0
306870,note_on,108,0,1,,,,,,,,,0,,,75,88
306870,note_on,0,0,1,,,,,,,,,0,,,79,88
306870,note_on,108,0,3,,,,,,,,,2,,,46,75
306930,note_on,60,0,1,,,,,,,,,0,,,79,0
306930,note_on,0,0,1,,,,,,,,,0,,,75,0
306930,note_on,0,0,1,,,,,,,,,0,,,82,88
306936,note_on,6,0,1,,,,,,,,,0,,,82,0
306990,note_on,0,0,1,,,,,,,,,0,,,82,88
306990,note_on,54,0,1,,,,,,,,,0,,,79,88
306990,note_on,0,0,3,,,,,,,,,2,,,63,75
306990,note_on,0,0,3,,,,,,,,,2,,,58,75
306990,note_on,0,0,3,,,,,,,,,2,,,55,75
306990,note_on,120,0,3,,,,,,,,,2,,,46,0
307002,note_on,0,0,3,,,,,,,,,2,,,55,0
307002,note_on,0,0,3,,,,,,,,,2,,,58,0
307002,note_on,12,0,3,,,,,,,,,2,,,63,0
307050,note_on,0,0,1,,,,,,,,,0,,,87,88
307050,note_on,60,0,1,,,,,,,,,0,,,82,0
307050,note_on,0,0,1,,,,,,,,,0,,,79,0
307056,note_on,6,0,1,,,,,,,,,0,,,87,0
307110,note_on,0,0,3,,,,,,,,,2,,,58,75
307110,note_on,0,0,1,,,,,,,,,0,,,87,88
307110,note_on,0,0,3,,,,,,,,,2,,,63,75
307110,note_on,54,0,1,,,,,,,,,0,,,82,88
307110,note_on,108,0,3,,,,,,,,,2,,,55,75
307122,note_on,0,0,3,,,,,,,,,2,,,55,0
307122,note_on,0,0,3,,,,,,,,,2,,,58,0
307122,note_on,12,0,3,,,,,,,,,2,,,63,0
307170,note_on,60,0,1,,,,,,,,,0,,,87,0
307170,note_on,0,0,1,,,,,,,,,0,,,82,0
307170,note_on,0,0,1,,,,,,,,,0,,,91,88
307176,note_on,6,0,1,,,,,,,,,0,,,91,0
307230,note_on,0,0,1,,,,,,,,,0,,,89,88
307230,note_on,54,0,1,,,,,,,,,0,,,86,88
307230,note_on,108,0,3,,,,,,,,,2,,,46,75
307350,note_on,120,0,3,,,,,,,,,2,,,46,0
307350,note_on,0,0,3,,,,,,,,,2,,,53,75
307350,note_on,0,0,3,,,,,,,,,2,,,58,75
307350,note_on,0,0,3,,,,,,,,,2,,,62,75
307362,note_on,12,0,3,,,,,,,,,2,,,62,0
307362,note_on,0,0,3,,,,,,,,,2,,,58,0
307362,note_on,0,0,3,,,,,,,,,2,,,53,0
307470,note_on,0,0,1,,,,,,,,,0,,,74,88
307470,note_on,108,0,3,,,,,,,,,2,,,53,75
307470,note_on,0,0,3,,,,,,,,,2,,,58,75
307470,note_on,0,0,3,,,,,,,,,2,,,62,75
307470,note_on,240,0,1,,,,,,,,,0,,,89,0
307470,note_on,0,0,1,,,,,,,,,0,,,86,0
307482,note_on,0,0,3,,,,,,,,,2,,,53,0
307482,note_on,0,0,3,,,,,,,,,2,,,58,0
307482,note_on,12,0,3,,,,,,,,,2,,,62,0
307530,note_on,60,0,1,,,,,,,,,0,,,74,0
307530,note_on,0,0,1,,,,,,,,,0,,,75,88
307560,note_on,30,0,1,,,,,,,,,0,,,77,88
307575,note_on,15,0,1,,,,,,,,,0,,,77,0
307575,note_on,0,0,1,,,,,,,,,0,,,79,88
307590,note_on,108,0,3,,,,,,,,,2,,,46,75
307590,note_on,1080,0,2,,,,,,,,,1,,,74,75
307590,note_on,15,0,1,,,,,,,,,0,,,79,0
307590,note_on,0,0,1,,,,,,,,,0,,,75,0
307590,note_on,0,0,1,,,,,,,,,0,,,77,88
307650,note_on,0,0,1,,,,,,,,,0,,,76,88
307650,note_on,60,0,1,,,,,,,,,0,,,77,0
307710,note_on,60,0,1,,,,,,,,,0,,,76,0
307710,note_on,120,0,3,,,,,,,,,2,,,46,0
307710,note_on,0,0,3,,,,,,,,,2,,,53,75
307710,note_on,0,0,3,,,,,,,,,2,,,58,75
307710,note_on,0,0,3,,,,,,,,,2,,,62,75
307710,note_on,0,0,1,,,,,,,,,0,,,77,88
307722,note_on,12,0,3,,,,,,,,,2,,,62,0
307722,note_on,0,0,3,,,,,,,,,2,,,58,0
307722,note_on,0,0,3,,,,,,,,,2,,,53,0
307770,note_on,60,0,1,,,,,,,,,0,,,77,0
307770,note_on,0,0,1,,,,,,,,,0,,,82,88
307830,note_on,0,0,1,,,,,,,,,0,,,77,88
307830,note_on,60,0,1,,,,,,,,,0,,,82,0
307830,note_on,0,0,3,,,,,,,,,2,,,62,75
307830,note_on,240,0,2,,,,,,,,,1,,,74,0
307830,note_on,0,0,2,,,,,,,,,1,,,74,75
307830,note_on,108,0,3,,,,,,,,,2,,,53,75
307830,note_on,0,0,3,,,,,,,,,2,,,58,75
307842,note_on,12,0,3,,,,,,,,,2,,,62,0
307842,note_on,0,0,3,,,,,,,,,2,,,58,0
307842,note_on,0,0,3,,,,,,,,,2,,,53,0
307890,note_on,60,0,2,,,,,,,,,1,,,74,0
307890,note_on,0,0,2,,,,,,,,,1,,,73,75
307890,note_on,60,0,1,,,,,,,,,0,,,77,0
307890,note_on,0,0,1,,,,,,,,,0,,,76,88
307950,note_on,60,0,1,,,,,,,,,0,,,76,0
307950,note_on,0,0,1,,,,,,,,,0,,,74,124
307950,note_on,0,0,1,,,,,,,,,0,,,77,127
307950,note_on,108,0,3,,,,,,,,,2,,,46,75
307950,note_on,60,0,2,,,,,,,,,1,,,73,0
307962,note_on,12,0,1,,,,,,,,,0,,,77,0
307962,note_on,0,0,1,,,,,,,,,0,,,74,0
308070,note_on,0,0,1,,,,,,,,,0,,,82,114
308070,note_on,0,0,3,,,,,,,,,2,,,62,75
308070,note_on,0,0,3,,,,,,,,,2,,,58,75
308070,note_on,0,0,3,,,,,,,,,2,,,53,75
308070,note_on,120,0,3,,,,,,,,,2,,,46,0
308070,note_on,108,0,1,,,,,,,,,0,,,77,106
308082,note_on,0,0,3,,,,,,,,,2,,,53,0
308082,note_on,0,0,3,,,,,,,,,2,,,58,0
308082,note_on,12,0,3,,,,,,,,,2,,,62,0
308082,note_on,0,0,1,,,,,,,,,0,,,77,0
308082,note_on,12,0,1,,,,,,,,,0,,,82,0
308190,note_on,0,0,1,,,,,,,,,0,,,86,127
308190,note_on,108,0,1,,,,,,,,,0,,,82,124
308190,note_on,0,0,3,,,,,,,,,2,,,62,75
308190,note_on,108,0,3,,,,,,,,,2,,,53,75
308190,note_on,0,0,3,,,,,,,,,2,,,58,75
308202,note_on,0,0,3,,,,,,,,,2,,,53,0
308202,note_on,0,0,3,,,,,,,,,2,,,58,0
308202,note_on,12,0,1,,,,,,,,,0,,,86,0
308202,note_on,0,0,1,,,,,,,,,0,,,82,0
308202,note_on,12,0,3,,,,,,,,,2,,,62,0
308310,note_on,108,0,1,,,,,,,,,0,,,86,88
308310,note_on,360,0,2,,,,,,,,,1,,,77,75
308310,note_on,108,0,3,,,,,,,,,2,,,41,75
308310,note_on,0,0,1,,,,,,,,,0,,,89,88
308370,note_on,60,0,1,,,,,,,,,0,,,89,0
308370,note_on,0,0,1,,,,,,,,,0,,,86,0
308370,note_on,0,0,1,,,,,,,,,0,,,84,88
308370,note_on,0,0,1,,,,,,,,,0,,,87,88
308376,note_on,6,0,1,,,,,,,,,0,,,87,0
308376,note_on,0,0,1,,,,,,,,,0,,,84,0
308430,note_on,120,0,2,,,,,,,,,1,,,77,0
308430,note_on,0,0,1,,,,,,,,,0,,,87,114
308430,note_on,120,0,3,,,,,,,,,2,,,41,0
308430,note_on,0,0,3,,,,,,,,,2,,,53,75
308430,note_on,0,0,3,,,,,,,,,2,,,60,75
308430,note_on,54,0,1,,,,,,,,,0,,,84,106
308430,note_on,0,0,2,,,,,,,,,1,,,77,101
308430,note_on,0,0,3,,,,,,,,,2,,,63,75
308436,note_on,6,0,2,,,,,,,,,1,,,77,0
308436,note_on,0,0,1,,,,,,,,,0,,,84,0
308436,note_on,6,0,1,,,,,,,,,0,,,87,0
308442,note_on,12,0,3,,,,,,,,,2,,,63,0
308442,note_on,0,0,3,,,,,,,,,2,,,60,0
308442,note_on,0,0,3,,,,,,,,,2,,,53,0
308490,note_on,54,0,2,,,,,,,,,1,,,77,101
308490,note_on,0,0,1,,,,,,,,,0,,,87,127
308490,note_on,54,0,1,,,,,,,,,0,,,84,124
308494,note_on,0,0,1,,,,,,,,,0,,,84,0
308494,note_on,4,0,1,,,,,,,,,0,,,87,0
308496,note_on,6,0,2,,,,,,,,,1,,,77,0
308550,note_on,0,0,3,,,,,,,,,2,,,63,75
308550,note_on,0,0,3,,,,,,,,,2,,,60,75
308550,note_on,56,0,1,,,,,,,,,0,,,87,88
308550,note_on,0,0,2,,,,,,,,,1,,,81,75
308550,note_on,108,0,3,,,,,,,,,2,,,53,75
308550,note_on,54,0,2,,,,,,,,,1,,,77,75
308562,note_on,0,0,3,,,,,,,,,2,,,60,0
308562,note_on,0,0,3,,,,,,,,,2,,,53,0
308562,note_on,12,0,3,,,,,,,,,2,,,63,0
308610,note_on,60,0,1,,,,,,,,,0,,,87,0
308610,note_on,0,0,1,,,,,,,,,0,,,89,88
308616,note_on,6,0,1,,,,,,,,,0,,,89,0
308670,note_on,0,0,1,,,,,,,,,0,,,82,88
308670,note_on,0,0,2,,,,,,,,,1,,,77,0
308670,time_signature,2520,1,0,2,4,24,8,,,,,,,,,
308670,note_on,54,0,1,,,,,,,,,0,,,74,88
308670,note_on,0,0,1,,,,,,,,,0,,,77,88
308670,note_on,108,0,3,,,,,,,,,2,,,46,75
308670,note_on,120,0,2,,,,,,,,,1,,,81,0
308790,note_on,120,0,3,,,,,,,,,2,,,46,0
308790,note_on,0,0,3,,,,,,,,,2,,,58,75
308790,note_on,0,0,3,,,,,,,,,2,,,53,75
308790,note_on,0,0,3,,,,,,,,,2,,,62,75
308910,note_on,120,0,3,,,,,,,,,2,,,62,0
308910,note_on,0,0,3,,,,,,,,,2,,,58,0
308910,note_on,0,0,3,,,,,,,,,2,,,53,0
308910,key_signature,0,1,0,,,,,G,,,,,,,,
308910,note_on,0,0,1,,,,,,,,,0,,,74,49
308910,time_signature,240,1,0,1,4,24,8,,,,,,,,,
308910,note_on,240,0,1,,,,,,,,,0,,,82,0
308910,note_on,0,0,1,,,,,,,,,0,,,77,0
308910,note_on,0,0,1,,,,,,,,,0,,,74,0
308910,note_on,0,0,1,,,,,,,,,0,,,71,49
308970,note_on,60,0,1,,,,,,,,,0,,,74,0
308970,note_on,0,0,1,,,,,,,,,0,,,74,49
308970,note_on,0,0,1,,,,,,,,,0,,,71,49
308970,note_on,0,0,1,,,,,,,,,0,,,71,0
309030,note_on,0,0,1,,,,,,,,,0,,,74,49
309030,time_signature,120,1,0,3,4,24,8,,,,,,,,,
309030,note_on,120,0,3,,,,,,,,,2,,,55,36
309030,note_on,0,0,1,,,,,,,,,0,,,71,0
309030,note_on,60,0,1,,,,,,,,,0,,,74,0
309030,note_on,0,0,1,,,,,,,,,0,,,71,49
309150,note_on,0,0,3,,,,,,,,,2,,,59,36
309150,note_on,120,0,3,,,,,,,,,2,,,55,0
309150,note_on,0,0,3,,,,,,,,,2,,,62,36
309150,note_on,0,0,1,,,,,,,,,0,,,74,49
309150,note_on,0,0,3,,,,,,,,,2,,,67,36
309150,note_on,120,0,1,,,,,,,,,0,,,74,0
309150,note_on,0,0,1,,,,,,,,,0,,,71,0
309150,note_on,0,0,1,,,,,,,,,0,,,71,49
309162,note_on,12,0,3,,,,,,,,,2,,,67,0
309162,note_on,0,0,3,,,,,,,,,2,,,62,0
309162,note_on,0,0,3,,,,,,,,,2,,,59,0
309270,note_on,108,0,3,,,,,,,,,2,,,59,36
309270,note_on,0,0,1,,,,,,,,,0,,,71,0
309270,note_on,0,0,3,,,,,,,,,2,,,62,36
309270,note_on,0,0,1,,,,,,,,,0,,,71,49
309270,note_on,0,0,1,,,,,,,,,0,,,74,49
309270,note_on,120,0,1,,,,,,,,,0,,,74,0
309270,note_on,0,0,3,,,,,,,,,2,,,67,36
309282,note_on,12,0,3,,,,,,,,,2,,,67,0
309282,note_on,0,0,3,,,,,,,,,2,,,62,0
309282,note_on,0,0,1,,,,,,,,,0,,,71,0
309282,note_on,0,0,3,,,,,,,,,2,,,59,0
309282,note_on,12,0,1,,,,,,,,,0,,,74,0
309375,note_on,93,0,1,,,,,,,,,0,,,74,49
309390,note_on,108,0,3,,,,,,,,,2,,,55,36
309390,note_on,15,0,1,,,,,,,,,0,,,74,0
309390,note_on,720,0,2,,,,,,,,,1,,,71,36
309390,note_on,0,0,1,,,,,,,,,0,,,79,49
309510,note_on,0,0,3,,,,,,,,,2,,,59,36
309510,note_on,0,0,3,,,,,,,,,2,,,62,36
309510,note_on,0,0,3,,,,,,,,,2,,,67,36
309510,note_on,0,0,1,,,,,,,,,0,,,78,49
309510,note_on,120,0,1,,,,,,,,,0,,,79,0
309510,note_on,120,0,3,,,,,,,,,2,,,55,0
309522,note_on,12,0,3,,,,,,,,,2,,,67,0
309522,note_on,0,0,3,,,,,,,,,2,,,59,0
309522,note_on,0,0,3,,,,,,,,,2,,,62,0
309570,note_on,0,0,1,,,,,,,,,0,,,76,49
309570,note_on,60,0,1,,,,,,,,,0,,,78,0
309630,note_on,0,0,3,,,,,,,,,2,,,62,36
309630,note_on,0,0,3,,,,,,,,,2,,,67,36
309630,note_on,0,0,1,,,,,,,,,0,,,74,49
309630,note_on,60,0,1,,,,,,,,,0,,,76,0
309630,note_on,108,0,3,,,,,,,,,2,,,59,36
309642,note_on,12,0,3,,,,,,,,,2,,,67,0
309642,note_on,0,0,3,,,,,,,,,2,,,62,0
309642,note_on,0,0,3,,,,,,,,,2,,,59,0
309690,note_on,60,0,1,,,,,,,,,0,,,74,0
309690,note_on,300,0,2,,,,,,,,,1,,,71,0
309750,note_on,60,0,2,,,,,,,,,1,,,72,36
309750,note_on,60,0,1,,,,,,,,,0,,,81,49
309750,note_on,0,0,2,,,,,,,,,1,,,74,36
309750,note_on,108,0,3,,,,,,,,,2,,,54,36
309870,note_on,120,0,3,,,,,,,,,2,,,54,0
309870,note_on,0,0,1,,,,,,,,,0,,,78,49
309870,note_on,120,0,1,,,,,,,,,0,,,81,0
309870,note_on,0,0,3,,,,,,,,,2,,,69,36
309870,note_on,0,0,3,,,,,,,,,2,,,62,36
309870,note_on,0,0,3,,,,,,,,,2,,,60,36
309882,note_on,12,0,3,,,,,,,,,2,,,69,0
309882,note_on,0,0,3,,,,,,,,,2,,,62,0
309882,note_on,0,0,3,,,,,,,,,2,,,60,0
309930,note_on,0,0,1,,,,,,,,,0,,,76,49
309930,note_on,60,0,1,,,,,,,,,0,,,78,0
309990,note_on,0,0,1,,,,,,,,,0,,,74,49
309990,note_on,60,0,1,,,,,,,,,0,,,76,0
309990,note_on,240,0,2,,,,,,,,,1,,,74,0
309990,note_on,0,0,3,,,,,,,,,2,,,69,36
309990,note_on,0,0,3,,,,,,,,,2,,,62,36
309990,note_on,108,0,3,,,,,,,,,2,,,60,36
310002,note_on,12,0,3,,,,,,,,,2,,,69,0
310002,note_on,0,0,3,,,,,,,,,2,,,62,0
310002,note_on,0,0,3,,,,,,,,,2,,,60,0
310050,note_on,60,0,2,,,,,,,,,1,,,72,0
310050,note_on,60,0,1,,,,,,,,,0,,,74,0
310110,note_on,0,0,1,,,,,,,,,0,,,74,49
310110,note_on,60,0,1,,,,,,,,,0,,,71,49
310110,note_on,108,0,3,,,,,,,,,2,,,55,36
310230,note_on,120,0,3,,,,,,,,,2,,,55,0
310230,note_on,0,0,3,,,,,,,,,2,,,59,36
310230,note_on,0,0,3,,,,,,,,,2,,,62,36
310230,note_on,0,0,3,,,,,,,,,2,,,67,36
310242,note_on,0,0,3,,,,,,,,,2,,,59,0
310242,note_on,12,0,3,,,,,,,,,2,,,67,0
310242,note_on,0,0,3,,,,,,,,,2,,,62,0
310350,note_on,0,0,1,,,,,,,,,0,,,74,49
310350,note_on,0,0,3,,,,,,,,,2,,,67,36
310350,note_on,0,0,3,,,,,,,,,2,,,62,36
310350,note_on,108,0,3,,,,,,,,,2,,,59,36
310350,note_on,240,0,1,,,,,,,,,0,,,74,0
310350,note_on,0,0,1,,,,,,,,,0,,,71,0
310350,note_on,0,0,1,,,,,,,,,0,,,71,49
310362,note_on,0,0,3,,,,,,,,,2,,,59,0
310362,note_on,12,0,3,,,,,,,,,2,,,67,0
310362,note_on,0,0,3,,,,,,,,,2,,,62,0
310410,note_on,60,0,1,,,,,,,,,0,,,74,0
310410,note_on,0,0,1,,,,,,,,,0,,,74,49
310410,note_on,0,0,1,,,,,,,,,0,,,71,49
310410,note_on,0,0,1,,,,,,,,,0,,,71,0
310470,note_on,108,0,3,,,,,,,,,2,,,55,36
310470,note_on,0,0,1,,,,,,,,,0,,,74,75
310470,note_on,0,0,1,,,,,,,,,0,,,71,67
310470,note_on,0,0,1,,,,,,,,,0,,,71,0
310470,note_on,60,0,1,,,,,,,,,0,,,74,0
310482,note_on,0,0,1,,,,,,,,,0,,,71,0
310482,note_on,12,0,1,,,,,,,,,0,,,74,0
310590,note_on,0,0,1,,,,,,,,,0,,,79,101
310590,note_on,108,0,1,,,,,,,,,0,,,74,85
310590,note_on,0,0,3,,,,,,,,,2,,,67,36
310590,note_on,0,0,3,,,,,,,,,2,,,59,36
310590,note_on,0,0,3,,,,,,,,,2,,,62,36
310590,note_on,120,0,3,,,,,,,,,2,,,55,0
310602,note_on,0,0,3,,,,,,,,,2,,,59,0
310602,note_on,0,0,3,,,,,,,,,2,,,62,0
310602,note_on,12,0,3,,,,,,,,,2,,,67,0
310602,note_on,12,0,1,,,,,,,,,0,,,79,0
310602,note_on,0,0,1,,,,,,,,,0,,,74,0
310710,note_on,0,0,3,,,,,,,,,2,,,67,36
310710,note_on,0,0,3,,,,,,,,,2,,,62,36
310710,note_on,108,0,3,,,,,,,,,2,,,59,36
310710,note_on,108,0,1,,,,,,,,,0,,,79,67
310710,note_on,0,0,1,,,,,,,,,0,,,83,75
310722,note_on,0,0,1,,,,,,,,,0,,,79,0
310722,note_on,12,0,1,,,,,,,,,0,,,83,0
310722,note_on,0,0,3,,,,,,,,,2,,,62,0
310722,note_on,0,0,3,,,,,,,,,2,,,59,0
310722,note_on,12,0,3,,,,,,,,,2,,,67,0
310830,note_on,108,0,1,,,,,,,,,0,,,83,67
310830,note_on,0,0,1,,,,,,,,,0,,,86,75
310830,note_on,7680,0,4,,,,,,,,,3,,,55,36
310950,note_on,228,0,3,,,,,,,,,2,,,59,36
310950,note_on,0,0,3,,,,,,,,,2,,,62,36
310950,note_on,0,0,3,,,,,,,,,2,,,67,36
310950,note_on,0,0,1,,,,,,,,,0,,,84,49
310950,note_on,0,0,1,,,,,,,,,0,,,81,49
310950,note_on,0,0,1,,,,,,,,,0,,,83,0
310950,note_on,120,0,1,,,,,,,,,0,,,86,0
310962,note_on,12,0,3,,,,,,,,,2,,,67,0
310962,note_on,0,0,3,,,,,,,,,2,,,62,0
310962,note_on,0,0,3,,,,,,,,,2,,,59,0
311010,note_on,60,0,1,,,,,,,,,0,,,84,0
311010,note_on,0,0,1,,,,,,,,,0,,,79,49
311010,note_on,0,0,1,,,,,,,,,0,,,83,49
311010,note_on,0,0,1,,,,,,,,,0,,,81,0
311070,note_on,0,0,1,,,,,,,,,0,,,79,0
311070,note_on,0,0,3,,,,,,,,,2,,,66,36
311070,note_on,0,0,1,,,,,,,,,0,,,74,49
311070,note_on,0,0,3,,,,,,,,,2,,,62,36
311070,note_on,108,0,3,,,,,,,,,2,,,60,36
311070,note_on,60,0,1,,,,,,,,,0,,,83,0
311070,note_on,0,0,1,,,,,,,,,0,,,81,49
311082,note_on,0,0,3,,,,,,,,,2,,,60,0
311082,note_on,12,0,3,,,,,,,,,2,,,66,0
311082,note_on,0,0,3,,,,,,,,,2,,,62,0
311130,note_on,0,0,1,,,,,,,,,0,,,74,0
311130,note_on,60,0,1,,,,,,,,,0,,,81,0
311190,note_on,360,0,4,,,,,,,,,3,,,55,0
311190,note_on,1140,0,2,,,,,,,,,1,,,74,62
311190,note_on,0,0,4,,,,,,,,,3,,,55,62
311190,note_on,60,0,1,,,,,,,,,0,,,83,75
311310,note_on,120,0,1,,,,,,,,,0,,,83,0
311310,note_on,0,0,3,,,,,,,,,2,,,67,36
311310,note_on,0,0,3,,,,,,,,,2,,,62,36
311310,note_on,0,0,1,,,,,,,,,0,,,81,49
311310,note_on,228,0,3,,,,,,,,,2,,,59,36
311322,note_on,0,0,3,,,,,,,,,2,,,59,0
311322,note_on,12,0,3,,,,,,,,,2,,,67,0
311322,note_on,0,0,3,,,,,,,,,2,,,62,0
311370,note_on,0,0,1,,,,,,,,,0,,,79,49
311370,note_on,60,0,1,,,,,,,,,0,,,81,0
311430,note_on,0,0,2,,,,,,,,,1,,,72,36
311430,note_on,240,0,2,,,,,,,,,1,,,74,0
311430,note_on,108,0,3,,,,,,,,,2,,,60,36
311430,note_on,0,0,1,,,,,,,,,0,,,78,49
311430,note_on,0,0,1,,,,,,,,,0,,,74,49
311430,note_on,0,0,3,,,,,,,,,2,,,62,36
311430,note_on,0,0,3,,,,,,,,,2,,,69,36
311430,note_on,60,0,1,,,,,,,,,0,,,79,0
311442,note_on,12,0,3,,,,,,,,,2,,,69,0
311442,note_on,0,0,3,,,,,,,,,2,,,62,0
311442,note_on,0,0,3,,,,,,,,,2,,,60,0
311490,note_on,60,0,1,,,,,,,,,0,,,78,0
311490,note_on,0,0,1,,,,,,,,,0,,,74,0
311490,note_on,60,0,2,,,,,,,,,1,,,72,0
311550,note_on,0,0,4,,,,,,,,,3,,,55,36
311550,note_on,360,0,4,,,,,,,,,3,,,55,0
311550,time_signature,2520,1,0,2,4,24,8,,,,,,,,,
311550,note_on,0,0,1,,,,,,,,,0,,,79,49
311550,note_on,60,0,1,,,,,,,,,0,,,71,49
311550,note_on,0,0,1,,,,,,,,,0,,,74,49
311670,note_on,228,0,3,,,,,,,,,2,,,59,36
311670,note_on,0,0,3,,,,,,,,,2,,,62,36
311670,note_on,0,0,3,,,,,,,,,2,,,67,36
311790,note_on,240,0,1,,,,,,,,,0,,,79,0
311790,note_on,0,0,1,,,,,,,,,0,,,74,0
311790,note_on,0,0,1,,,,,,,,,0,,,71,0
311790,note_on,0,0,1,,,,,,,,,0,,,74,49
311790,note_on,120,0,3,,,,,,,,,2,,,67,0
311790,note_on,0,0,3,,,,,,,,,2,,,59,0
311790,note_on,0,0,3,,,,,,,,,2,,,62,0
311790,note_on,0,0,1,,,,,,,,,0,,,71,49
311790,note_on,240,0,4,,,,,,,,,3,,,55,0
311790,time_signature,240,1,0,1,4,24,8,,,,,,,,,
311850,note_on,60,0,1,,,,,,,,,0,,,74,0
311850,note_on,0,0,1,,,,,,,,,0,,,71,0
311850,note_on,0,0,1,,,,,,,,,0,,,71,49
311850,note_on,0,0,1,,,,,,,,,0,,,74,49
311910,note_on,0,0,1,,,,,,,,,0,,,74,49
311910,note_on,60,0,1,,,,,,,,,0,,,74,0
311910,note_on,0,0,1,,,,,,,,,0,,,71,0
311910,note_on,120,0,3,,,,,,,,,2,,,55,36
311910,time_signature,120,1,0,3,4,24,8,,,,,,,,,
311910,note_on,0,0,1,,,,,,,,,0,,,71,49
312030,note_on,0,0,1,,,,,,,,,0,,,74,49
312030,note_on,0,0,1,,,,,,,,,0,,,71,49
312030,note_on,0,0,1,,,,,,,,,0,,,71,0
312030,note_on,120,0,3,,,,,,,,,2,,,55,0
312030,note_on,0,0,3,,,,,,,,,2,,,59,36
312030,note_on,0,0,3,,,,,,,,,2,,,62,36
312030,note_on,0,0,3,,,,,,,,,2,,,67,36
312030,note_on,120,0,1,,,,,,,,,0,,,74,0
312042,note_on,12,0,3,,,,,,,,,2,,,67,0
312042,note_on,0,0,3,,,,,,,,,2,,,62,0
312042,note_on,0,0,3,,,,,,,,,2,,,59,0
312150,note_on,108,0,3,,,,,,,,,2,,,59,36
312150,note_on,0,0,3,,,,,,,,,2,,,62,36
312150,note_on,0,0,3,,,,,,,,,2,,,67,36
312150,note_on,120,0,1,,,,,,,,,0,,,74,0
312150,note_on,0,0,1,,,,,,,,,0,,,71,0
312150,note_on,0,0,1,,,,,,,,,0,,,71,49
312150,note_on,0,0,1,,,,,,,,,0,,,74,49
312162,note_on,0,0,3,,,,,,,,,2,,,59,0
312162,note_on,0,0,3,,,,,,,,,2,,,62,0
312162,note_on,12,0,3,,,,,,,,,2,,,67,0
312162,note_on,12,0,1,,,,,,,,,0,,,74,0
312162,note_on,0,0,1,,,,,,,,,0,,,71,0
312255,note_on,93,0,1,,,,,,,,,0,,,74,49
312270,note_on,15,0,1,,,,,,,,,0,,,74,0
312270,note_on,780,0,2,,,,,,,,,1,,,71,36
312270,note_on,108,0,3,,,,,,,,,2,,,55,36
312270,note_on,0,0,1,,,,,,,,,0,,,79,49
312390,note_on,0,0,1,,,,,,,,,0,,,78,49
312390,note_on,0,0,3,,,,,,,,,2,,,67,36
312390,note_on,0,0,3,,,,,,,,,2,,,59,36
312390,note_on,0,0,3,,,,,,,,,2,,,62,36
312390,note_on,120,0,1,,,,,,,,,0,,,79,0
312390,note_on,120,0,3,,,,,,,,,2,,,55,0
312402,note_on,0,0,3,,,,,,,,,2,,,59,0
312402,note_on,0,0,3,,,,,,,,,2,,,62,0
312402,note_on,12,0,3,,,,,,,,,2,,,67,0
312450,note_on,60,0,1,,,,,,,,,0,,,78,0
312450,note_on,0,0,1,,,,,,,,,0,,,76,49
312510,note_on,108,0,3,,,,,,,,,2,,,59,36
312510,note_on,0,0,3,,,,,,,,,2,,,67,36
312510,note_on,60,0,1,,,,,,,,,0,,,76,0
312510,note_on,0,0,1,,,,,,,,,0,,,74,49
312510,note_on,0,0,3,,,,,,,,,2,,,62,36
312522,note_on,12,0,3,,,,,,,,,2,,,67,0
312522,note_on,0,0,3,,,,,,,,,2,,,62,0
312522,note_on,0,0,3,,,,,,,,,2,,,59,0
312570,note_on,300,0,2,,,,,,,,,1,,,71,0
312570,note_on,60,0,1,,,,,,,,,0,,,74,0
312630,note_on,60,0,1,,,,,,,,,0,,,81,49
312630,note_on,108,0,3,,,,,,,,,2,,,54,36
312630,note_on,0,0,2,,,,,,,,,1,,,74,36
312630,note_on,60,0,2,,,,,,,,,1,,,72,36
312750,note_on,0,0,3,,,,,,,,,2,,,69,36
312750,note_on,120,0,3,,,,,,,,,2,,,54,0
312750,note_on,0,0,1,,,,,,,,,0,,,78,49
312750,note_on,120,0,1,,,,,,,,,0,,,81,0
312750,note_on,0,0,3,,,,,,,,,2,,,60,36
312750,note_on,0,0,3,,,,,,,,,2,,,62,36
312762,note_on,12,0,3,,,,,,,,,2,,,69,0
312762,note_on,0,0,3,,,,,,,,,2,,,62,0
312762,note_on,0,0,3,,,,,,,,,2,,,60,0
312810,note_on,0,0,1,,,,,,,,,0,,,76,49
312810,note_on,60,0,1,,,,,,,,,0,,,78,0
312870,note_on,0,0,3,,,,,,,,,2,,,69,36
312870,note_on,0,0,3,,,,,,,,,2,,,62,36
312870,note_on,240,0,2,,,,,,,,,1,,,74,0
312870,note_on,60,0,1,,,,,,,,,0,,,76,0
312870,note_on,108,0,3,,,,,,,,,2,,,60,36
312870,note_on,0,0,1,,,,,,,,,0,,,74,49
312882,note_on,12,0,3,,,,,,,,,2,,,69,0
312882,note_on,0,0,3,,,,,,,,,2,,,62,0
312882,note_on,0,0,3,,,,,,,,,2,,,60,0
312930,note_on,60,0,2,,,,,,,,,1,,,72,0
312930,note_on,60,0,1,,,,,,,,,0,,,74,0
312990,note_on,60,0,1,,,,,,,,,0,,,71,49
312990,note_on,108,0,3,,,,,,,,,2,,,55,36
312990,note_on,0,0,1,,,,,,,,,0,,,74,49
313110,note_on,120,0,3,,,,,,,,,2,,,55,0
313110,note_on,0,0,3,,,,,,,,,2,,,59,36
313110,note_on,0,0,3,,,,,,,,,2,,,62,36
313110,note_on,0,0,3,,,,,,,,,2,,,67,36
313122,note_on,12,0,3,,,,,,,,,2,,,67,0
313122,note_on,0,0,3,,,,,,,,,2,,,62,0
313122,note_on,0,0,3,,,,,,,,,2,,,59,0
313230,note_on,240,0,1,,,,,,,,,0,,,74,0
313230,note_on,0,0,3,,,,,,,,,2,,,62,36
313230,note_on,0,0,3,,,,,,,,,2,,,67,36
313230,note_on,108,0,3,,,,,,,,,2,,,59,36
313230,note_on,0,0,1,,,,,,,,,0,,,71,0
313230,note_on,0,0,1,,,,,,,,,0,,,74,49
313230,note_on,0,0,1,,,,,,,,,0,,,71,49
313242,note_on,12,0,3,,,,,,,,,2,,,67,0
313242,note_on,0,0,3,,,,,,,,,2,,,62,0
313242,note_on,0,0,3,,,,,,,,,2,,,59,0
313290,note_on,0,0,1,,,,,,,,,0,,,71,49
313290,note_on,0,0,1,,,,,,,,,0,,,71,0
313290,note_on,60,0,1,,,,,,,,,0,,,74,0
313290,note_on,0,0,1,,,,,,,,,0,,,74,49
313350,note_on,0,0,1,,,,,,,,,0,,,71,67
313350,note_on,0,0,1,,,,,,,,,0,,,71,0
313350,note_on,0,0,1,,,,,,,,,0,,,74,75
313350,note_on,60,0,1,,,,,,,,,0,,,74,0
313350,note_on,108,0,3,,,,,,,,,2,,,55,36
313362,note_on,12,0,1,,,,,,,,,0,,,74,0
313362,note_on,0,0,1,,,,,,,,,0,,,71,0
313470,note_on,0,0,3,,,,,,,,,2,,,59,36
313470,note_on,0,0,3,,,,,,,,,2,,,62,36
313470,note_on,0,0,3,,,,,,,,,2,,,67,36
313470,note_on,108,0,1,,,,,,,,,0,,,74,85
313470,note_on,0,0,1,,,,,,,,,0,,,79,101
313470,note_on,120,0,3,,,,,,,,,2,,,55,0
313482,note_on,12,0,1,,,,,,,,,0,,,79,0
313482,note_on,0,0,1,,,,,,,,,0,,,74,0
313482,note_on,0,0,3,,,,,,,,,2,,,62,0
313482,note_on,12,0,3,,,,,,,,,2,,,67,0
313482,note_on,0,0,3,,,,,,,,,2,,,59,0
313590,note_on,108,0,3,,,,,,,,,2,,,59,36
313590,note_on,0,0,3,,,,,,,,,2,,,62,36
313590,note_on,0,0,3,,,,,,,,,2,,,67,36
313590,note_on,108,0,1,,,,,,,,,0,,,79,67
313590,note_on,0,0,1,,,,,,,,,0,,,83,75
313602,note_on,12,0,3,,,,,,,,,2,,,67,0
313602,note_on,0,0,3,,,,,,,,,2,,,59,0
313602,note_on,12,0,1,,,,,,,,,0,,,83,0
313602,note_on,0,0,1,,,,,,,,,0,,,79,0
313602,note_on,0,0,3,,,,,,,,,2,,,62,0
313710,note_on,108,0,1,,,,,,,,,0,,,83,67
313710,note_on,0,0,1,,,,,,,,,0,,,86,75
313710,note_on,1920,0,4,,,,,,,,,3,,,55,36
313830,note_on,120,0,1,,,,,,,,,0,,,86,0
313830,note_on,0,0,3,,,,,,,,,2,,,62,36
313830,note_on,0,0,3,,,,,,,,,2,,,67,36
313830,note_on,0,0,1,,,,,,,,,0,,,83,0
313830,note_on,0,0,1,,,,,,,,,0,,,81,49
313830,note_on,0,0,1,,,,,,,,,0,,,84,49
313830,note_on,228,0,3,,,,,,,,,2,,,59,36
313842,note_on,0,0,3,,,,,,,,,2,,,59,0
313842,note_on,0,0,3,,,,,,,,,2,,,62,0
313842,note_on,12,0,3,,,,,,,,,2,,,67,0
313890,note_on,60,0,1,,,,,,,,,0,,,84,0
313890,note_on,0,0,1,,,,,,,,,0,,,81,0
313890,note_on,0,0,1,,,,,,,,,0,,,79,49
313890,note_on,0,0,1,,,,,,,,,0,,,83,49
313950,note_on,0,0,3,,,,,,,,,2,,,62,36
313950,note_on,108,0,3,,,,,,,,,2,,,60,36
313950,note_on,60,0,1,,,,,,,,,0,,,83,0
313950,note_on,0,0,1,,,,,,,,,0,,,79,0
313950,note_on,0,0,1,,,,,,,,,0,,,74,49
313950,note_on,0,0,1,,,,,,,,,0,,,81,49
313950,note_on,0,0,3,,,,,,,,,2,,,66,36
313962,note_on,0,0,3,,,,,,,,,2,,,60,0
313962,note_on,0,0,3,,,,,,,,,2,,,62,0
313962,note_on,12,0,3,,,,,,,,,2,,,66,0
314010,note_on,0,0,1,,,,,,,,,0,,,74,0
314010,note_on,60,0,1,,,,,,,,,0,,,81,0
314070,note_on,360,0,4,,,,,,,,,3,,,55,0
314070,note_on,60,0,1,,,,,,,,,0,,,83,75
314070,note_on,1140,0,2,,,,,,,,,1,,,74,62
314070,note_on,0,0,4,,,,,,,,,3,,,55,62
314190,note_on,228,0,3,,,,,,,,,2,,,59,36
314190,note_on,0,0,3,,,,,,,,,2,,,62,36
314190,note_on,120,0,1,,,,,,,,,0,,,83,0
314190,note_on,0,0,1,,,,,,,,,0,,,81,49
314190,note_on,0,0,3,,,,,,,,,2,,,67,36
314202,note_on,12,0,3,,,,,,,,,2,,,67,0
314202,note_on,0,0,3,,,,,,,,,2,,,62,0
314202,note_on,0,0,3,,,,,,,,,2,,,59,0
314250,note_on,0,0,1,,,,,,,,,0,,,79,49
314250,note_on,60,0,1,,,,,,,,,0,,,81,0
314310,note_on,108,0,3,,,,,,,,,2,,,60,36
314310,note_on,60,0,1,,,,,,,,,0,,,79,0
314310,note_on,0,0,1,,,,,,,,,0,,,78,49
314310,note_on,0,0,1,,,,,,,,,0,,,74,49
314310,note_on,0,0,3,,,,,,,,,2,,,69,36
314310,note_on,0,0,3,,,,,,,,,2,,,62,36
314310,note_on,0,0,2,,,,,,,,,1,,,72,36
314310,note_on,240,0,2,,,,,,,,,1,,,74,0
314322,note_on,0,0,3,,,,,,,,,2,,,60,0
314322,note_on,0,0,3,,,,,,,,,2,,,62,0
314322,note_on,12,0,3,,,,,,,,,2,,,69,0
314370,note_on,60,0,2,,,,,,,,,1,,,72,0
314370,note_on,0,0,1,,,,,,,,,0,,,74,0
314370,note_on,60,0,1,,,,,,,,,0,,,78,0
314430,note_on,360,0,4,,,,,,,,,3,,,55,0
314430,note_on,0,0,4,,,,,,,,,3,,,55,36
314430,time_signature,2520,1,0,2,4,24,8,,,,,,,,,
314430,note_on,0,0,1,,,,,,,,,0,,,79,49
314430,note_on,0,0,1,,,,,,,,,0,,,74,49
314430,note_on,60,0,1,,,,,,,,,0,,,71,49
314550,note_on,0,0,3,,,,,,,,,2,,,62,36
314550,note_on,228,0,3,,,,,,,,,2,,,59,36
314550,note_on,0,0,3,,,,,,,,,2,,,67,36
314670,note_on,240,0,4,,,,,,,,,3,,,55,0
314670,note_on,0,0,1,,,,,,,,,0,,,79,88
314670,note_on,120,0,3,,,,,,,,,2,,,67,0
314670,note_on,0,0,1,,,,,,,,,0,,,76,88
314670,note_on,0,0,1,,,,,,,,,0,,,72,88
314670,note_on,0,0,1,,,,,,,,,0,,,71,0
314670,note_on,0,0,1,,,,,,,,,0,,,74,0
314670,note_on,240,0,1,,,,,,,,,0,,,79,0
314670,time_signature,240,1,0,1,4,24,8,,,,,,,,,
314670,note_on,0,0,3,,,,,,,,,2,,,59,0
314670,note_on,0,0,3,,,,,,,,,2,,,62,0
314730,note_on,0,0,1,,,,,,,,,0,,,72,88
314730,note_on,60,0,1,,,,,,,,,0,,,79,0
314730,note_on,0,0,1,,,,,,,,,0,,,76,0
314730,note_on,0,0,1,,,,,,,,,0,,,79,88
314730,note_on,0,0,1,,,,,,,,,0,,,76,88
314730,note_on,0,0,1,,,,,,,,,0,,,72,0
314790,time_signature,120,1,0,3,4,24,8,,,,,,,,,
314790,note_on,120,0,3,,,,,,,,,2,,,48,75
314790,note_on,0,0,1,,,,,,,,,0,,,72,88
314790,note_on,0,0,1,,,,,,,,,0,,,76,88
314790,note_on,0,0,1,,,,,,,,,0,,,72,0
314790,note_on,0,0,1,,,,,,,,,0,,,76,0
314790,note_on,60,0,1,,,,,,,,,0,,,79,0
314790,note_on,0,0,1,,,,,,,,,0,,,79,88
314910,note_on,0,0,3,,,,,,,,,2,,,64,75
314910,note_on,0,0,3,,,,,,,,,2,,,60,75
314910,note_on,0,0,3,,,,,,,,,2,,,55,75
314910,note_on,120,0,3,,,,,,,,,2,,,48,0
314910,note_on,120,0,1,,,,,,,,,0,,,79,0
314910,note_on,0,0,1,,,,,,,,,0,,,76,0
314910,note_on,0,0,1,,,,,,,,,0,,,72,0
314910,note_on,0,0,1,,,,,,,,,0,,,72,88
314910,note_on,0,0,1,,,,,,,,,0,,,79,88
314910,note_on,0,0,1,,,,,,,,,0,,,76,88
314922,note_on,0,0,3,,,,,,,,,2,,,55,0
314922,note_on,12,0,3,,,,,,,,,2,,,64,0
314922,note_on,0,0,3,,,,,,,,,2,,,60,0
315030,note_on,108,0,3,,,,,,,,,2,,,52,101
315030,note_on,0,0,3,,,,,,,,,2,,,59,101
315030,note_on,0,0,3,,,,,,,,,2,,,62,101
315030,note_on,0,0,1,,,,,,,,,0,,,80,114
315030,note_on,0,0,1,,,,,,,,,0,,,76,114
315030,note_on,120,0,1,,,,,,,,,0,,,79,0
315030,note_on,0,0,1,,,,,,,,,0,,,76,0
315030,note_on,0,0,1,,,,,,,,,0,,,72,0
315030,note_on,0,0,1,,,,,,,,,0,,,71,114
315042,note_on,0,0,3,,,,,,,,,2,,,59,0
315042,note_on,12,0,3,,,,,,,,,2,,,62,0
315042,note_on,0,0,3,,,,,,,,,2,,,52,0
315150,note_on,0,0,1,,,,,,,,,0,,,76,0
315150,note_on,0,0,1,,,,,,,,,0,,,71,0
315150,note_on,120,0,1,,,,,,,,,0,,,80,0
315150,note_on,0,0,1,,,,,,,,,0,,,76,88
315150,note_on,0,0,1,,,,,,,,,0,,,81,88
315150,note_on,108,0,3,,,,,,,,,2,,,45,75
315150,note_on,0,0,1,,,,,,,,,0,,,72,88
315270,note_on,0,0,1,,,,,,,,,0,,,72,0
315270,note_on,0,0,3,,,,,,,,,2,,,52,75
315270,note_on,0,0,3,,,,,,,,,2,,,60,75
315270,note_on,0,0,1,,,,,,,,,0,,,80,88
315270,note_on,0,0,1,,,,,,,,,0,,,76,0
315270,note_on,0,0,3,,,,,,,,,2,,,57,75
315270,note_on,120,0,3,,,,,,,,,2,,,45,0
315270,note_on,120,0,1,,,,,,,,,0,,,81,0
315282,note_on,12,0,3,,,,,,,,,2,,,60,0
315282,note_on,0,0,3,,,,,,,,,2,,,52,0
315282,note_on,0,0,3,,,,,,,,,2,,,57,0
315330,note_on,0,0,1,,,,,,,,,0,,,81,88
315330,note_on,60,0,1,,,,,,,,,0,,,80,0
315390,note_on,108,0,3,,,,,,,,,2,,,52,101
315390,note_on,0,0,3,,,,,,,,,2,,,59,101
315390,note_on,0,0,3,,,,,,,,,2,,,62,101
315390,note_on,0,0,1,,,,,,,,,0,,,80,114
315390,note_on,0,0,1,,,,,,,,,0,,,83,114
315390,note_on,0,0,1,,,,,,,,,0,,,76,114
315390,note_on,60,0,1,,,,,,,,,0,,,81,0
315402,note_on,0,0,3,,,,,,,,,2,,,52,0
315402,note_on,12,0,3,,,,,,,,,2,,,62,0
315402,note_on,0,0,3,,,,,,,,,2,,,59,0
315510,note_on,0,0,1,,,,,,,,,0,,,84,88
315510,note_on,108,0,3,,,,,,,,,2,,,45,75
315510,note_on,0,0,1,,,,,,,,,0,,,81,88
315510,note_on,120,0,1,,,,,,,,,0,,,83,0
315510,note_on,0,0,1,,,,,,,,,0,,,76,0
315510,note_on,0,0,1,,,,,,,,,0,,,76,88
315510,note_on,0,0,1,,,,,,,,,0,,,80,0
315630,note_on,0,0,3,,,,,,,,,2,,,60,75
315630,note_on,0,0,3,,,,,,,,,2,,,57,75
315630,note_on,120,0,3,,,,,,,,,2,,,45,0
315630,note_on,0,0,1,,,,,,,,,0,,,86,88
315630,note_on,0,0,1,,,,,,,,,0,,,76,0
315630,note_on,0,0,1,,,,,,,,,0,,,81,0
315630,note_on,120,0,1,,,,,,,,,0,,,84,0
315630,note_on,0,0,3,,,,,,,,,2,,,52,75
315642,note_on,0,0,3,,,,,,,,,2,,,57,0
315642,note_on,12,0,3,,,,,,,,,2,,,60,0
315642,note_on,0,0,3,,,,,,,,,2,,,52,0
315690,note_on,0,0,1,,,,,,,,,0,,,84,88
315690,note_on,60,0,1,,,,,,,,,0,,,86,0
315750,note_on,0,0,3,,,,,,,,,2,,,59,101
315750,note_on,0,0,3,,,,,,,,,2,,,62,101
315750,note_on,108,0,3,,,,,,,,,2,,,52,101
315750,note_on,60,0,1,,,,,,,,,0,,,84,0
315750,note_on,0,0,1,,,,,,,,,0,,,83,114
315750,note_on,1380,0,2,,,,,,,,,1,,,76,101
315750,note_on,0,0,2,,,,,,,,,1,,,80,101
315762,note_on,12,0,3,,,,,,,,,2,,,62,0
315762,note_on,0,0,3,,,,,,,,,2,,,59,0
315762,note_on,0,0,3,,,,,,,,,2,,,52,0
315810,note_on,60,0,1,,,,,,,,,0,,,83,0
315810,note_on,0,0,1,,,,,,,,,0,,,84,114
315870,note_on,0,0,1,,,,,,,,,0,,,81,88
315870,note_on,0,0,1,,,,,,,,,0,,,76,88
315870,note_on,0,0,1,,,,,,,,,0,,,72,88
315870,note_on,60,0,1,,,,,,,,,0,,,84,0
315870,note_on,120,0,2,,,,,,,,,1,,,80,0
315870,note_on,108,0,3,,,,,,,,,2,,,45,75
315870,note_on,0,0,2,,,,,,,,,1,,,76,0
315990,note_on,120,0,3,,,,,,,,,2,,,45,0
315990,note_on,0,0,3,,,,,,,,,2,,,60,75
315990,note_on,0,0,3,,,,,,,,,2,,,52,75
315990,note_on,0,0,3,,,,,,,,,2,,,57,75
316110,note_on,240,0,1,,,,,,,,,0,,,81,0
316110,note_on,0,0,1,,,,,,,,,0,,,76,0
316110,note_on,0,0,1,,,,,,,,,0,,,72,0
316110,note_on,0,0,1,,,,,,,,,0,,,74,88
316110,note_on,0,0,1,,,,,,,,,0,,,78,88
316110,note_on,120,0,3,,,,,,,,,2,,,60,0
316110,note_on,0,0,3,,,,,,,,,2,,,57,0
316110,note_on,0,0,3,,,,,,,,,2,,,52,0
316110,note_on,0,0,1,,,,,,,,,0,,,81,88
316170,note_on,0,0,1,,,,,,,,,0,,,81,88
316170,note_on,0,0,1,,,,,,,,,0,,,78,0
316170,note_on,0,0,1,,,,,,,,,0,,,74,0
316170,note_on,0,0,1,,,,,,,,,0,,,74,88
316170,note_on,0,0,1,,,,,,,,,0,,,78,88
316170,note_on,60,0,1,,,,,,,,,0,,,81,0
316230,note_on,0,0,1,,,,,,,,,0,,,74,0
316230,note_on,120,0,3,,,,,,,,,2,,,38,75
316230,note_on,0,0,1,,,,,,,,,0,,,81,88
316230,note_on,0,0,1,,,,,,,,,0,,,78,88
316230,note_on,0,0,1,,,,,,,,,0,,,74,88
316230,note_on,60,0,1,,,,,,,,,0,,,81,0
316230,note_on,0,0,1,,,,,,,,,0,,,78,0
316350,note_on,120,0,3,,,,,,,,,2,,,38,0
316350,note_on,0,0,3,,,,,,,,,2,,,50,75
316350,note_on,0,0,3,,,,,,,,,2,,,57,75
316350,note_on,0,0,3,,,,,,,,,2,,,60,75
316350,note_on,0,0,1,,,,,,,,,0,,,81,88
316350,note_on,0,0,1,,,,,,,,,0,,,78,88
316350,note_on,0,0,1,,,,,,,,,0,,,74,88
316350,note_on,0,0,1,,,,,,,,,0,,,74,0
316350,note_on,0,0,1,,,,,,,,,0,,,78,0
316350,note_on,120,0,1,,,,,,,,,0,,,81,0
316362,note_on,0,0,3,,,,,,,,,2,,,57,0
316362,note_on,12,0,3,,,,,,,,,2,,,60,0
316362,note_on,0,0,3,,,,,,,,,2,,,50,0
316470,note_on,0,0,1,,,,,,,,,0,,,78,0
316470,note_on,108,0,3,,,,,,,,,2,,,50,101
316470,note_on,0,0,1,,,,,,,,,0,,,74,0
316470,note_on,0,0,3,,,,,,,,,2,,,60,101
316470,note_on,120,0,1,,,,,,,,,0,,,81,0
316470,note_on,0,0,1,,,,,,,,,0,,,86,114
316470,note_on,0,0,1,,,,,,,,,0,,,81,114
316470,note_on,0,0,1,,,,,,,,,0,,,78,114
316470,note_on,0,0,1,,,,,,,,,0,,,74,114
316470,note_on,0,0,3,,,,,,,,,2,,,57,101
316482,note_on,12,0,3,,,,,,,,,2,,,60,0
316482,note_on,0,0,3,,,,,,,,,2,,,50,0
316482,note_on,0,0,3,,,,,,,,,2,,,57,0
316590,note_on,0,0,1,,,,,,,,,0,,,83,88
316590,note_on,120,0,1,,,,,,,,,0,,,86,0
316590,note_on,0,0,1,,,,,,,,,0,,,74,0
316590,note_on,0,0,1,,,,,,,,,0,,,78,0
316590,note_on,0,0,1,,,,,,,,,0,,,81,0
316590,note_on,0,0,1,,,,,,,,,0,,,74,88
316590,note_on,0,0,1,,,,,,,,,0,,,79,88
316590,note_on,108,0,3,,,,,,,,,2,,,43,75
316710,note_on,0,0,1,,,,,,,,,0,,,81,88
316710,note_on,0,0,1,,,,,,,,,0,,,74,0
316710,note_on,0,0,1,,,,,,,,,0,,,79,0
316710,note_on,120,0,1,,,,,,,,,0,,,83,0
316710,note_on,0,0,3,,,,,,,,,2,,,50,75
316710,note_on,120,0,3,,,,,,,,,2,,,43,0
316710,note_on,0,0,3,,,,,,,,,2,,,59,75
316710,note_on,0,0,3,,,,,,,,,2,,,55,75
316722,note_on,12,0,3,,,,,,,,,2,,,59,0
316722,note_on,0,0,3,,,,,,,,,2,,,50,0
316722,note_on,0,0,3,,,,,,,,,2,,,55,0
316770,note_on,0,0,1,,,,,,,,,0,,,83,88
316770,note_on,60,0,1,,,,,,,,,0,,,81,0
316830,note_on,0,0,1,,,,,,,,,0,,,86,114
316830,note_on,0,0,1,,,,,,,,,0,,,81,114
316830,note_on,0,0,1,,,,,,,,,0,,,78,114
316830,note_on,0,0,1,,,,,,,,,0,,,74,114
316830,note_on,60,0,1,,,,,,,,,0,,,83,0
316830,note_on,0,0,3,,,,,,,,,2,,,60,101
316830,note_on,108,0,3,,,,,,,,,2,,,50,101
316830,note_on,0,0,3,,,,,,,,,2,,,57,101
316842,note_on,0,0,3,,,,,,,,,2,,,50,0
316842,note_on,0,0,3,,,,,,,,,2,,,57,0
316842,note_on,12,0,3,,,,,,,,,2,,,60,0
316950,note_on,0,0,1,,,,,,,,,0,,,78,0
316950,note_on,120,0,1,,,,,,,,,0,,,86,0
316950,note_on,0,0,1,,,,,,,,,0,,,74,0
316950,note_on,0,0,1,,,,,,,,,0,,,81,0
316950,note_on,0,0,1,,,,,,,,,0,,,74,88
316950,note_on,0,0,1,,,,,,,,,0,,,79,88
316950,note_on,0,0,1,,,,,,,,,0,,,83,88
316950,note_on,108,0,3,,,,,,,,,2,,,43,75
317070,note_on,120,0,3,,,,,,,,,2,,,43,0
317070,note_on,0,0,3,,,,,,,,,2,,,50,75
317070,note_on,0,0,1,,,,,,,,,0,,,74,0
317070,note_on,0,0,1,,,,,,,,,0,,,79,0
317070,note_on,0,0,1,,,,,,,,,0,,,81,88
317070,note_on,0,0,3,,,,,,,,,2,,,59,75
317070,note_on,0,0,3,,,,,,,,,2,,,55,75
317070,note_on,120,0,1,,,,,,,,,0,,,83,0
317082,note_on,0,0,3,,,,,,,,,2,,,55,0
317082,note_on,12,0,3,,,,,,,,,2,,,59,0
317082,note_on,0,0,3,,,,,,,,,2,,,50,0
317130,note_on,60,0,1,,,,,,,,,0,,,81,0
317130,note_on,0,0,1,,,,,,,,,0,,,83,88
317190,note_on,0,0,1,,,,,,,,,0,,,86,114
317190,note_on,0,0,1,,,,,,,,,0,,,81,114
317190,note_on,0,0,1,,,,,,,,,0,,,78,114
317190,note_on,0,0,1,,,,,,,,,0,,,74,114
317190,note_on,60,0,1,,,,,,,,,0,,,83,0
317190,note_on,108,0,3,,,,,,,,,2,,,50,101
317190,note_on,0,0,3,,,,,,,,,2,,,60,101
317190,note_on,0,0,3,,,,,,,,,2,,,57,101
317202,note_on,0,0,3,,,,,,,,,2,,,50,0
317202,note_on,0,0,3,,,,,,,,,2,,,57,0
317202,note_on,12,0,3,,,,,,,,,2,,,60,0
317310,note_on,0,0,1,,,,,,,,,0,,,81,0
317310,note_on,0,0,1,,,,,,,,,0,,,79,88
317310,note_on,0,0,1,,,,,,,,,0,,,83,88
317310,note_on,0,0,1,,,,,,,,,0,,,74,88
317310,note_on,0,0,1,,,,,,,,,0,,,78,0
317310,note_on,0,0,1,,,,,,,,,0,,,74,0
317310,note_on,120,0,1,,,,,,,,,0,,,86,0
317310,note_on,108,0,3,,,,,,,,,2,,,43,75
317430,note_on,120,0,3,,,,,,,,,2,,,43,0
317430,note_on,0,0,3,,,,,,,,,2,,,50,75
317430,note_on,0,0,3,,,,,,,,,2,,,55,75
317430,note_on,0,0,3,,,,,,,,,2,,,59,75
317550,note_on,0,0,1,,,,,,,,,0,,,72,49
317550,note_on,120,0,3,,,,,,,,,2,,,59,0
317550,note_on,0,0,1,,,,,,,,,0,,,74,49
317550,note_on,0,0,1,,,,,,,,,0,,,79,0
317550,note_on,240,0,1,,,,,,,,,0,,,83,0
317550,note_on,0,0,3,,,,,,,,,2,,,55,0
317550,note_on,0,0,3,,,,,,,,,2,,,50,0
317550,note_on,0,0,1,,,,,,,,,0,,,74,0
317610,note_on,0,0,1,,,,,,,,,0,,,74,49
317610,note_on,0,0,1,,,,,,,,,0,,,72,49
317610,note_on,0,0,1,,,,,,,,,0,,,72,0
317610,note_on,60,0,1,,,,,,,,,0,,,74,0
317670,note_on,120,0,3,,,,,,,,,2,,,54,36
317670,note_on,60,0,1,,,,,,,,,0,,,74,0
317670,note_on,0,0,1,,,,,,,,,0,,,72,0
317670,note_on,0,0,1,,,,,,,,,0,,,72,49
317670,note_on,0,0,1,,,,,,,,,0,,,74,49
317790,note_on,0,0,3,,,,,,,,,2,,,69,36
317790,note_on,0,0,3,,,,,,,,,2,,,62,36
317790,note_on,0,0,3,,,,,,,,,2,,,60,36
317790,note_on,120,0,1,,,,,,,,,0,,,74,0
317790,note_on,0,0,1,,,,,,,,,0,,,72,0
317790,note_on,120,0,3,,,,,,,,,2,,,54,0
317790,note_on,0,0,1,,,,,,,,,0,,,74,49
317790,note_on,0,0,1,,,,,,,,,0,,,72,49
317802,note_on,0,0,3,,,,,,,,,2,,,60,0
317802,note_on,0,0,3,,,,,,,,,2,,,62,0
317802,note_on,12,0,3,,,,,,,,,2,,,69,0
317910,note_on,0,0,3,,,,,,,,,2,,,69,36
317910,note_on,0,0,1,,,,,,,,,0,,,72,0
317910,note_on,0,0,1,,,,,,,,,0,,,72,49
317910,note_on,108,0,3,,,,,,,,,2,,,60,36
317910,note_on,0,0,1,,,,,,,,,0,,,74,49
317910,note_on,120,0,1,,,,,,,,,0,,,74,0
317910,note_on,0,0,3,,,,,,,,,2,,,62,36
317922,note_on,12,0,3,,,,,,,,,2,,,69,0
317922,note_on,0,0,3,,,,,,,,,2,,,62,0
317922,note_on,0,0,3,,,,,,,,,2,,,60,0
318030,note_on,120,0,1,,,,,,,,,0,,,74,0
318030,note_on,0,0,1,,,,,,,,,0,,,72,0
318030,note_on,108,0,3,,,,,,,,,2,,,54,36
318030,note_on,2160,0,2,,,,,,,,,1,,,72,36
318030,note_on,0,0,1,,,,,,,,,0,,,81,49
318150,note_on,120,0,1,,,,,,,,,0,,,81,0
318150,note_on,120,0,3,,,,,,,,,2,,,54,0
318150,note_on,0,0,3,,,,,,,,,2,,,60,36
318150,note_on,0,0,3,,,,,,,,,2,,,62,36
318150,note_on,0,0,3,,,,,,,,,2,,,69,36
318150,note_on,0,0,1,,,,,,,,,0,,,78,49
318162,note_on,12,0,3,,,,,,,,,2,,,69,0
318162,note_on,0,0,3,,,,,,,,,2,,,62,0
318162,note_on,0,0,3,,,,,,,,,2,,,60,0
318210,note_on,60,0,1,,,,,,,,,0,,,78,0
318210,note_on,0,0,1,,,,,,,,,0,,,76,49
318270,note_on,60,0,1,,,,,,,,,0,,,76,0
318270,note_on,0,0,1,,,,,,,,,0,,,74,49
318270,note_on,108,0,3,,,,,,,,,2,,,60,36
318270,note_on,0,0,3,,,,,,,,,2,,,62,36
318270,note_on,0,0,3,,,,,,,,,2,,,69,36
318282,note_on,12,0,3,,,,,,,,,2,,,69,0
318282,note_on,0,0,3,,,,,,,,,2,,,62,0
318282,note_on,0,0,3,,,,,,,,,2,,,60,0
318330,note_on,300,0,2,,,,,,,,,1,,,72,0
318330,note_on,60,0,1,,,,,,,,,0,,,74,0
318390,note_on,60,0,1,,,,,,,,,0,,,71,49
318390,note_on,108,0,3,,,,,,,,,2,,,55,36
318390,note_on,0,0,1,,,,,,,,,0,,,74,49
318510,note_on,0,0,3,,,,,,,,,2,,,67,36
318510,note_on,0,0,1,,,,,,,,,0,,,74,49
318510,note_on,0,0,1,,,,,,,,,0,,,71,49
318510,note_on,0,0,1,,,,,,,,,0,,,71,0
318510,note_on,120,0,1,,,,,,,,,0,,,74,0
318510,note_on,120,0,3,,,,,,,,,2,,,55,0
318510,note_on,0,0,3,,,,,,,,,2,,,59,36
318510,note_on,0,0,3,,,,,,,,,2,,,62,36
318522,note_on,0,0,3,,,,,,,,,2,,,62,0
318522,note_on,0,0,3,,,,,,,,,2,,,59,0
318522,note_on,12,0,3,,,,,,,,,2,,,67,0
318630,note_on,0,0,3,,,,,,,,,2,,,62,36
318630,note_on,120,0,1,,,,,,,,,0,,,74,0
318630,note_on,0,0,1,,,,,,,,,0,,,71,0
318630,note_on,0,0,1,,,,,,,,,0,,,71,49
318630,note_on,0,0,1,,,,,,,,,0,,,74,49
318630,note_on,108,0,3,,,,,,,,,2,,,59,36
318630,note_on,0,0,3,,,,,,,,,2,,,67,36
318642,note_on,0,0,3,,,,,,,,,2,,,62,0
318642,note_on,12,0,3,,,,,,,,,2,,,67,0
318642,note_on,0,0,3,,,,,,,,,2,,,59,0
318750,note_on,120,0,1,,,,,,,,,0,,,74,0
318750,note_on,420,0,2,,,,,,,,,1,,,71,36
318750,note_on,108,0,3,,,,,,,,,2,,,55,36
318750,note_on,0,0,1,,,,,,,,,0,,,71,0
318750,note_on,0,0,1,,,,,,,,,0,,,79,49
318870,note_on,0,0,3,,,,,,,,,2,,,62,36
318870,note_on,0,0,3,,,,,,,,,2,,,59,36
318870,note_on,120,0,3,,,,,,,,,2,,,55,0
318870,note_on,120,0,1,,,,,,,,,0,,,79,0
318870,note_on,0,0,1,,,,,,,,,0,,,78,49
318870,note_on,0,0,3,,,,,,,,,2,,,67,36
318882,note_on,0,0,3,,,,,,,,,2,,,59,0
318882,note_on,0,0,3,,,,,,,,,2,,,62,0
318882,note_on,12,0,3,,,,,,,,,2,,,67,0
318930,note_on,0,0,1,,,,,,,,,0,,,76,49
318930,note_on,60,0,1,,,,,,,,,0,,,78,0
318990,note_on,0,0,1,,,,,,,,,0,,,74,49
318990,note_on,0,0,3,,,,,,,,,2,,,62,36
318990,note_on,108,0,3,,,,,,,,,2,,,59,36
318990,note_on,0,0,3,,,,,,,,,2,,,67,36
318990,note_on,60,0,1,,,,,,,,,0,,,76,0
319002,note_on,0,0,3,,,,,,,,,2,,,62,0
319002,note_on,0,0,3,,,,,,,,,2,,,59,0
319002,note_on,12,0,3,,,,,,,,,2,,,67,0
319050,note_on,60,0,1,,,,,,,,,0,,,74,0
319050,note_on,300,0,2,,,,,,,,,1,,,71,0
319110,note_on,108,0,3,,,,,,,,,2,,,55,36
319110,note_on,0,0,1,,,,,,,,,0,,,79,49
319110,note_on,60,0,1,,,,,,,,,0,,,74,49
319230,note_on,0,0,3,,,,,,,,,2,,,67,36
319230,note_on,0,0,3,,,,,,,,,2,,,62,36
319230,note_on,0,0,3,,,,,,,,,2,,,59,36
319230,note_on,120,0,3,,,,,,,,,2,,,55,0
319230,note_on,0,0,1,,,,,,,,,0,,,79,49
319230,note_on,0,0,1,,,,,,,,,0,,,83,49
319230,note_on,120,0,1,,,,,,,,,0,,,79,0
319230,note_on,0,0,1,,,,,,,,,0,,,74,0
319242,note_on,12,0,3,,,,,,,,,2,,,67,0
319242,note_on,0,0,3,,,,,,,,,2,,,62,0
319242,note_on,0,0,3,,,,,,,,,2,,,59,0
319350,note_on,0,0,1,,,,,,,,,0,,,84,49
319350,note_on,0,0,1,,,,,,,,,0,,,79,0
319350,note_on,120,0,1,,,,,,,,,0,,,83,0
319350,note_on,108,0,3,,,,,,,,,2,,,60,36
319350,note_on,0,0,3,,,,,,,,,2,,,64,36
319350,note_on,0,0,3,,,,,,,,,2,,,67,36
319350,note_on,0,0,1,,,,,,,,,0,,,88,49
319362,note_on,0,0,3,,,,,,,,,2,,,64,0
319362,note_on,12,0,3,,,,,,,,,2,,,67,0
319362,note_on,0,0,3,,,,,,,,,2,,,60,0
319470,note_on,120,0,1,,,,,,,,,0,,,88,0
319470,note_on,0,0,1,,,,,,,,,0,,,86,49
319470,note_on,4800,0,4,,,,,,,,,3,,,55,36
319470,note_on,0,0,1,,,,,,,,,0,,,84,0
319470,note_on,0,0,1,,,,,,,,,0,,,83,49
319590,note_on,0,0,1,,,,,,,,,0,,,84,49
319590,note_on,0,0,1,,,,,,,,,0,,,81,49
319590,note_on,0,0,1,,,,,,,,,0,,,83,0
319590,note_on,120,0,1,,,,,,,,,0,,,86,0
319590,note_on,228,0,3,,,,,,,,,2,,,59,36
319590,note_on,0,0,3,,,,,,,,,2,,,67,36
319590,note_on,0,0,3,,,,,,,,,2,,,62,36
319602,note_on,0,0,3,,,,,,,,,2,,,59,0
319602,note_on,0,0,3,,,,,,,,,2,,,62,0
319602,note_on,12,0,3,,,,,,,,,2,,,67,0
319650,note_on,60,0,1,,,,,,,,,0,,,84,0
319650,note_on,0,0,1,,,,,,,,,0,,,81,0
319650,note_on,0,0,1,,,,,,,,,0,,,79,49
319650,note_on,0,0,1,,,,,,,,,0,,,83,49
319710,note_on,0,0,1,,,,,,,,,0,,,79,0
319710,note_on,0,0,1,,,,,,,,,0,,,74,67
319710,note_on,0,0,1,,,,,,,,,0,,,81,75
319710,note_on,0,0,3,,,,,,,,,2,,,66,36
319710,note_on,0,0,3,,,,,,,,,2,,,62,36
319710,note_on,108,0,3,,,,,,,,,2,,,60,36
319710,note_on,60,0,1,,,,,,,,,0,,,83,0
319716,note_on,6,0,1,,,,,,,,,0,,,81,0
319716,note_on,0,0,1,,,,,,,,,0,,,74,0
319722,note_on,0,0,3,,,,,,,,,2,,,62,0
319722,note_on,12,0,3,,,,,,,,,2,,,66,0
319722,note_on,0,0,3,,,,,,,,,2,,,60,0
319830,note_on,780,0,2,,,,,,,,,1,,,74,36
319830,note_on,114,0,1,,,,,,,,,0,,,83,49
319830,note_on,0,0,4,,,,,,,,,3,,,55,36
319830,note_on,360,0,4,,,,,,,,,3,,,55,0
319950,note_on,0,0,3,,,,,,,,,2,,,62,36
319950,note_on,0,0,3,,,,,,,,,2,,,67,36
319950,note_on,228,0,3,,,,,,,,,2,,,59,36
319950,note_on,0,0,1,,,,,,,,,0,,,81,49
319950,note_on,120,0,1,,,,,,,,,0,,,83,0
319962,note_on,12,0,3,,,,,,,,,2,,,67,0
319962,note_on,0,0,3,,,,,,,,,2,,,62,0
319962,note_on,0,0,3,,,,,,,,,2,,,59,0
320010,note_on,0,0,1,,,,,,,,,0,,,79,49
320010,note_on,60,0,1,,,,,,,,,0,,,81,0
320070,note_on,60,0,1,,,,,,,,,0,,,79,0
320070,note_on,0,0,1,,,,,,,,,0,,,78,75
320070,note_on,108,0,3,,,,,,,,,2,,,60,36
320070,note_on,0,0,3,,,,,,,,,2,,,62,36
320070,note_on,0,0,3,,,,,,,,,2,,,69,36
320070,note_on,0,0,1,,,,,,,,,0,,,74,67
320070,note_on,0,0,2,,,,,,,,,1,,,72,62
320070,note_on,240,0,2,,,,,,,,,1,,,74,0
320076,note_on,6,0,1,,,,,,,,,0,,,78,0
320076,note_on,0,0,1,,,,,,,,,0,,,74,0
320076,note_on,6,0,2,,,,,,,,,1,,,72,0
320082,note_on,0,0,3,,,,,,,,,2,,,62,0
320082,note_on,12,0,3,,,,,,,,,2,,,69,0
320082,note_on,0,0,3,,,,,,,,,2,,,60,0
320190,note_on,0,0,4,,,,,,,,,3,,,55,36
320190,time_signature,5400,1,0,2,4,24,8,,,,,,,,,
320190,note_on,114,0,1,,,,,,,,,0,,,71,49
320190,note_on,0,0,1,,,,,,,,,0,,,74,49
320190,note_on,0,0,1,,,,,,,,,0,,,79,49
320190,note_on,360,0,4,,,,,,,,,3,,,55,0
320310,note_on,228,0,3,,,,,,,,,2,,,59,36
320310,note_on,0,0,3,,,,,,,,,2,,,62,36
320310,note_on,0,0,3,,,,,,,,,2,,,67,36
320430,note_on,0,0,3,,,,,,,,,2,,,59,0
320430,note_on,240,0,4,,,,,,,,,3,,,55,0
320430,note_on,240,0,1,,,,,,,,,0,,,79,0
320430,note_on,0,0,1,,,,,,,,,0,,,71,0
320430,note_on,0,0,1,,,,,,,,,0,,,72,88
320430,note_on,0,0,1,,,,,,,,,0,,,76,88
320430,note_on,0,0,1,,,,,,,,,0,,,79,88
320430,note_on,120,0,3,,,,,,,,,2,,,67,0
320430,time_signature,240,1,0,1,4,24,8,,,,,,,,,
320430,note_on,0,0,1,,,,,,,,,0,,,74,0
320430,note_on,0,0,3,,,,,,,,,2,,,62,0
320490,note_on,0,0,1,,,,,,,,,0,,,72,0
320490,note_on,0,0,1,,,,,,,,,0,,,72,88
320490,note_on,60,0,1,,,,,,,,,0,,,79,0
320490,note_on,0,0,1,,,,,,,,,0,,,76,0
320490,note_on,0,0,1,,,,,,,,,0,,,79,88
320490,note_on,0,0,1,,,,,,,,,0,,,76,88
320550,note_on,60,0,1,,,,,,,,,0,,,79,0
320550,note_on,0,0,1,,,,,,,,,0,,,72,88
320550,time_signature,120,1,0,3,4,24,8,,,,,,,,,
320550,note_on,0,0,1,,,,,,,,,0,,,76,0
320550,note_on,0,0,1,,,,,,,,,0,,,79,88
320550,note_on,0,0,1,,,,,,,,,0,,,72,0
320550,note_on,120,0,3,,,,,,,,,2,,,48,75
320550,note_on,0,0,1,,,,,,,,,0,,,76,88
320670,note_on,120,0,1,,,,,,,,,0,,,79,0
320670,note_on,0,0,1,,,,,,,,,0,,,76,0
320670,note_on,0,0,1,,,,,,,,,0,,,72,0
320670,note_on,0,0,1,,,,,,,,,0,,,76,88
320670,note_on,0,0,1,,,,,,,,,0,,,79,88
320670,note_on,0,0,3,,,,,,,,,2,,,64,75
320670,note_on,0,0,3,,,,,,,,,2,,,60,75
320670,note_on,0,0,3,,,,,,,,,2,,,55,75
320670,note_on,120,0,3,,,,,,,,,2,,,48,0
320670,note_on,0,0,1,,,,,,,,,0,,,72,88
320682,note_on,12,0,3,,,,,,,,,2,,,64,0
320682,note_on,0,0,3,,,,,,,,,2,,,60,0
320682,note_on,0,0,3,,,,,,,,,2,,,55,0
320790,note_on,0,0,1,,,,,,,,,0,,,71,114
320790,note_on,0,0,1,,,,,,,,,0,,,80,114
320790,note_on,0,0,3,,,,,,,,,2,,,59,101
320790,note_on,0,0,1,,,,,,,,,0,,,72,0
320790,note_on,0,0,1,,,,,,,,,0,,,76,0
320790,note_on,120,0,1,,,,,,,,,0,,,79,0
320790,note_on,0,0,3,,,,,,,,,2,,,62,101
320790,note_on,0,0,1,,,,,,,,,0,,,76,114
320790,note_on,108,0,3,,,,,,,,,2,,,52,101
320802,note_on,0,0,3,,,,,,,,,2,,,52,0
320802,note_on,0,0,3,,,,,,,,,2,,,59,0
320802,note_on,12,0,3,,,,,,,,,2,,,62,0
320910,note_on,0,0,1,,,,,,,,,0,,,72,88
320910,note_on,0,0,1,,,,,,,,,0,,,71,0
320910,note_on,0,0,1,,,,,,,,,0,,,76,0
320910,note_on,120,0,1,,,,,,,,,0,,,80,0
320910,note_on,0,0,1,,,,,,,,,0,,,81,88
320910,note_on,0,0,1,,,,,,,,,0,,,76,88
320910,note_on,108,0,3,,,,,,,,,2,,,45,75
321030,note_on,120,0,1,,,,,,,,,0,,,81,0
321030,note_on,0,0,1,,,,,,,,,0,,,76,0
321030,note_on,120,0,3,,,,,,,,,2,,,45,0
321030,note_on,0,0,1,,,,,,,,,0,,,72,0
321030,note_on,0,0,3,,,,,,,,,2,,,52,75
321030,note_on,0,0,3,,,,,,,,,2,,,57,75
321030,note_on,0,0,3,,,,,,,,,2,,,60,75
321030,note_on,0,0,1,,,,,,,,,0,,,80,88
321042,note_on,0,0,3,,,,,,,,,2,,,57,0
321042,note_on,12,0,3,,,,,,,,,2,,,60,0
321042,note_on,0,0,3,,,,,,,,,2,,,52,0
321090,note_on,0,0,1,,,,,,,,,0,,,81,88
321090,note_on,60,0,1,,,,,,,,,0,,,80,0
321150,note_on,108,0,3,,,,,,,,,2,,,52,101
321150,note_on,0,0,1,,,,,,,,,0,,,76,114
321150,note_on,60,0,1,,,,,,,,,0,,,81,0
321150,note_on,0,0,3,,,,,,,,,2,,,62,101
321150,note_on,0,0,3,,,,,,,,,2,,,59,101
321150,note_on,0,0,1,,,,,,,,,0,,,83,114
321150,note_on,0,0,1,,,,,,,,,0,,,80,114
321162,note_on,0,0,3,,,,,,,,,2,,,52,0
321162,note_on,12,0,3,,,,,,,,,2,,,62,0
321162,note_on,0,0,3,,,,,,,,,2,,,59,0
321270,note_on,0,0,1,,,,,,,,,0,,,80,0
321270,note_on,0,0,1,,,,,,,,,0,,,76,0
321270,note_on,108,0,3,,,,,,,,,2,,,45,75
321270,note_on,0,0,1,,,,,,,,,0,,,81,88
321270,note_on,0,0,1,,,,,,,,,0,,,84,88
321270,note_on,120,0,1,,,,,,,,,0,,,83,0
321270,note_on,0,0,1,,,,,,,,,0,,,76,88
321390,note_on,0,0,1,,,,,,,,,0,,,76,0
321390,note_on,0,0,1,,,,,,,,,0,,,81,0
321390,note_on,0,0,1,,,,,,,,,0,,,86,88
321390,note_on,120,0,1,,,,,,,,,0,,,84,0
321390,note_on,0,0,3,,,,,,,,,2,,,60,75
321390,note_on,120,0,3,,,,,,,,,2,,,45,0
321390,note_on,0,0,3,,,,,,,,,2,,,52,75
321390,note_on,0,0,3,,,,,,,,,2,,,57,75
321402,note_on,0,0,3,,,,,,,,,2,,,52,0
321402,note_on,0,0,3,,,,,,,,,2,,,57,0
321402,note_on,12,0,3,,,,,,,,,2,,,60,0
321450,note_on,0,0,1,,,,,,,,,0,,,84,88
321450,note_on,60,0,1,,,,,,,,,0,,,86,0
321510,note_on,1434,0,2,,,,,,,,,1,,,76,101
321510,note_on,60,0,1,,,,,,,,,0,,,84,0
321510,note_on,108,0,3,,,,,,,,,2,,,52,101
321510,note_on,0,0,3,,,,,,,,,2,,,59,101
321510,note_on,0,0,3,,,,,,,,,2,,,62,101
321510,note_on,0,0,2,,,,,,,,,1,,,80,101
321510,note_on,0,0,1,,,,,,,,,0,,,83,114
321522,note_on,0,0,3,,,,,,,,,2,,,52,0
321522,note_on,12,0,3,,,,,,,,,2,,,62,0
321522,note_on,0,0,3,,,,,,,,,2,,,59,0
321570,note_on,0,0,1,,,,,,,,,0,,,84,114
321570,note_on,60,0,1,,,,,,,,,0,,,83,0
321630,note_on,108,0,3,,,,,,,,,2,,,45,75
321630,note_on,0,0,1,,,,,,,,,0,,,81,88
321630,note_on,0,0,1,,,,,,,,,0,,,76,88
321630,note_on,0,0,1,,,,,,,,,0,,,72,88
321630,note_on,60,0,1,,,,,,,,,0,,,84,0
321630,note_on,120,0,2,,,,,,,,,1,,,80,0
321630,note_on,0,0,2,,,,,,,,,1,,,76,0
321750,note_on,120,0,3,,,,,,,,,2,,,45,0
321750,note_on,0,0,3,,,,,,,,,2,,,52,75
321750,note_on,0,0,3,,,,,,,,,2,,,57,75
321750,note_on,0,0,3,,,,,,,,,2,,,60,75
321870,note_on,0,0,3,,,,,,,,,2,,,52,0
321870,note_on,240,0,1,,,,,,,,,0,,,81,0
321870,note_on,120,0,3,,,,,,,,,2,,,60,0
321870,note_on,0,0,1,,,,,,,,,0,,,81,88
321870,note_on,0,0,1,,,,,,,,,0,,,78,88
321870,note_on,0,0,3,,,,,,,,,2,,,57,0
321870,note_on,0,0,1,,,,,,,,,0,,,72,0
321870,note_on,0,0,1,,,,,,,,,0,,,76,0
321870,note_on,0,0,1,,,,,,,,,0,,,74,88
321930,note_on,60,0,1,,,,,,,,,0,,,81,0
321930,note_on,0,0,1,,,,,,,,,0,,,78,0
321930,note_on,0,0,1,,,,,,,,,0,,,74,0
321930,note_on,0,0,1,,,,,,,,,0,,,78,88
321930,note_on,0,0,1,,,,,,,,,0,,,81,88
321930,note_on,0,0,1,,,,,,,,,0,,,74,88
321990,note_on,0,0,1,,,,,,,,,0,,,81,88
321990,note_on,0,0,1,,,,,,,,,0,,,78,88
321990,note_on,0,0,1,,,,,,,,,0,,,74,88
321990,note_on,0,0,1,,,,,,,,,0,,,78,0
321990,note_on,60,0,1,,,,,,,,,0,,,81,0
321990,note_on,0,0,1,,,,,,,,,0,,,74,0
321990,note_on,120,0,3,,,,,,,,,2,,,38,75
322110,note_on,120,0,3,,,,,,,,,2,,,38,0
322110,note_on,0,0,3,,,,,,,,,2,,,50,75
322110,note_on,0,0,1,,,,,,,,,0,,,81,88
322110,note_on,0,0,1,,,,,,,,,0,,,78,88
322110,note_on,0,0,1,,,,,,,,,0,,,74,88
322110,note_on,0,0,1,,,,,,,,,0,,,74,0
322110,note_on,0,0,1,,,,,,,,,0,,,78,0
322110,note_on,120,0,1,,,,,,,,,0,,,81,0
322110,note_on,0,0,3,,,,,,,,,2,,,60,75
322110,note_on,0,0,3,,,,,,,,,2,,,57,75
322122,note_on,12,0,3,,,,,,,,,2,,,60,0
322122,note_on,0,0,3,,,,,,,,,2,,,57,0
322122,note_on,0,0,3,,,,,,,,,2,,,50,0
322230,note_on,120,0,1,,,,,,,,,0,,,81,0
322230,note_on,0,0,1,,,,,,,,,0,,,78,0
322230,note_on,0,0,1,,,,,,,,,0,,,74,0
322230,note_on,0,0,1,,,,,,,,,0,,,74,114
322230,note_on,0,0,1,,,,,,,,,0,,,78,114
322230,note_on,0,0,1,,,,,,,,,0,,,81,114
322230,note_on,0,0,1,,,,,,,,,0,,,86,114
322230,note_on,0,0,3,,,,,,,,,2,,,60,101
322230,note_on,0,0,3,,,,,,,,,2,,,57,101
322230,note_on,108,0,3,,,,,,,,,2,,,50,101
322242,note_on,12,0,3,,,,,,,,,2,,,60,0
322242,note_on,0,0,3,,,,,,,,,2,,,50,0
322242,note_on,0,0,3,,,,,,,,,2,,,57,0
322350,note_on,108,0,3,,,,,,,,,2,,,43,75
322350,note_on,0,0,1,,,,,,,,,0,,,78,0
322350,note_on,0,0,1,,,,,,,,,0,,,83,88
322350,note_on,0,0,1,,,,,,,,,0,,,79,88
322350,note_on,0,0,1,,,,,,,,,0,,,81,0
322350,note_on,120,0,1,,,,,,,,,0,,,86,0
322350,note_on,0,0,1,,,,,,,,,0,,,74,0
322350,note_on,0,0,1,,,,,,,,,0,,,74,88
322470,note_on,120,0,1,,,,,,,,,0,,,83,0
322470,note_on,0,0,1,,,,,,,,,0,,,79,0
322470,note_on,120,0,3,,,,,,,,,2,,,43,0
322470,note_on,0,0,3,,,,,,,,,2,,,50,75
322470,note_on,0,0,3,,,,,,,,,2,,,55,75
322470,note_on,0,0,3,,,,,,,,,2,,,59,75
322470,note_on,0,0,1,,,,,,,,,0,,,74,0
322470,note_on,0,0,1,,,,,,,,,0,,,81,88
322482,note_on,0,0,3,,,,,,,,,2,,,50,0
322482,note_on,0,0,3,,,,,,,,,2,,,55,0
322482,note_on,12,0,3,,,,,,,,,2,,,59,0
322530,note_on,60,0,1,,,,,,,,,0,,,81,0
322530,note_on,0,0,1,,,,,,,,,0,,,83,88
322590,note_on,0,0,1,,,,,,,,,0,,,78,114
322590,note_on,0,0,3,,,,,,,,,2,,,60,101
322590,note_on,0,0,3,,,,,,,,,2,,,57,101
322590,note_on,108,0,3,,,,,,,,,2,,,50,101
322590,note_on,60,0,1,,,,,,,,,0,,,83,0
322590,note_on,0,0,1,,,,,,,,,0,,,81,114
322590,note_on,0,0,1,,,,,,,,,0,,,86,114
322590,note_on,0,0,1,,,,,,,,,0,,,74,114
322602,note_on,0,0,3,,,,,,,,,2,,,50,0
322602,note_on,0,0,3,,,,,,,,,2,,,57,0
322602,note_on,12,0,3,,,,,,,,,2,,,60,0
322710,note_on,0,0,1,,,,,,,,,0,,,74,0
322710,note_on,0,0,1,,,,,,,,,0,,,78,0
322710,note_on,0,0,1,,,,,,,,,0,,,81,0
322710,note_on,0,0,1,,,,,,,,,0,,,74,88
322710,note_on,0,0,1,,,,,,,,,0,,,79,88
322710,note_on,0,0,1,,,,,,,,,0,,,83,88
322710,note_on,108,0,3,,,,,,,,,2,,,43,75
322710,note_on,120,0,1,,,,,,,,,0,,,86,0
322830,note_on,120,0,3,,,,,,,,,2,,,43,0
322830,note_on,0,0,1,,,,,,,,,0,,,79,0
322830,note_on,0,0,1,,,,,,,,,0,,,74,0
322830,note_on,120,0,1,,,,,,,,,0,,,83,0
322830,note_on,0,0,3,,,,,,,,,2,,,55,75
322830,note_on,0,0,1,,,,,,,,,0,,,81,88
322830,note_on,0,0,3,,,,,,,,,2,,,59,75
322830,note_on,0,0,3,,,,,,,,,2,,,50,75
322842,note_on,0,0,3,,,,,,,,,2,,,50,0
322842,note_on,0,0,3,,,,,,,,,2,,,55,0
322842,note_on,12,0,3,,,,,,,,,2,,,59,0
322890,note_on,60,0,1,,,,,,,,,0,,,81,0
322890,note_on,0,0,1,,,,,,,,,0,,,83,88
322950,note_on,0,0,3,,,,,,,,,2,,,60,101
322950,note_on,0,0,3,,,,,,,,,2,,,57,101
322950,note_on,108,0,3,,,,,,,,,2,,,50,101
322950,note_on,0,0,1,,,,,,,,,0,,,86,114
322950,note_on,0,0,1,,,,,,,,,0,,,81,114
322950,note_on,0,0,1,,,,,,,,,0,,,78,114
322950,note_on,0,0,1,,,,,,,,,0,,,74,114
322950,note_on,60,0,1,,,,,,,,,0,,,83,0
322962,note_on,0,0,3,,,,,,,,,2,,,57,0
322962,note_on,0,0,3,,,,,,,,,2,,,50,0
322962,note_on,12,0,3,,,,,,,,,2,,,60,0
323070,note_on,0,0,1,,,,,,,,,0,,,74,0
323070,note_on,0,0,1,,,,,,,,,0,,,78,0
323070,note_on,120,0,1,,,,,,,,,0,,,86,0
323070,note_on,0,0,1,,,,,,,,,0,,,79,88
323070,note_on,0,0,1,,,,,,,,,0,,,74,88
323070,note_on,0,0,1,,,,,,,,,0,,,81,0
323070,note_on,108,0,3,,,,,,,,,2,,,43,75
323070,note_on,0,0,1,,,,,,,,,0,,,83,88
323190,note_on,120,0,3,,,,,,,,,2,,,43,0
323190,note_on,0,0,3,,,,,,,,,2,,,50,75
323190,note_on,0,0,3,,,,,,,,,2,,,55,75
323190,note_on,0,0,3,,,,,,,,,2,,,59,75
323310,note_on,0,0,1,,,,,,,,,0,,,74,0
323310,note_on,120,0,3,,,,,,,,,2,,,59,0
323310,note_on,0,0,3,,,,,,,,,2,,,55,0
323310,note_on,0,0,3,,,,,,,,,2,,,50,0
323310,note_on,0,0,1,,,,,,,,,0,,,79,0
323310,note_on,0,0,1,,,,,,,,,0,,,74,49
323310,note_on,240,0,1,,,,,,,,,0,,,83,0
323310,note_on,0,0,1,,,,,,,,,0,,,72,49
323370,note_on,0,0,1,,,,,,,,,0,,,74,49
323370,note_on,0,0,1,,,,,,,,,0,,,72,49
323370,note_on,0,0,1,,,,,,,,,0,,,72,0
323370,note_on,60,0,1,,,,,,,,,0,,,74,0
323430,note_on,0,0,1,,,,,,,,,0,,,74,49
323430,note_on,120,0,3,,,,,,,,,2,,,54,36
323430,note_on,0,0,1,,,,,,,,,0,,,72,49
323430,note_on,0,0,1,,,,,,,,,0,,,72,0
323430,note_on,60,0,1,,,,,,,,,0,,,74,0
323550,note_on,0,0,1,,,,,,,,,0,,,72,49
323550,note_on,0,0,1,,,,,,,,,0,,,74,49
323550,note_on,120,0,1,,,,,,,,,0,,,74,0
323550,note_on,0,0,1,,,,,,,,,0,,,72,0
323550,note_on,120,0,3,,,,,,,,,2,,,54,0
323550,note_on,0,0,3,,,,,,,,,2,,,60,36
323550,note_on,0,0,3,,,,,,,,,2,,,62,36
323550,note_on,0,0,3,,,,,,,,,2,,,69,36
323562,note_on,12,0,3,,,,,,,,,2,,,69,0
323562,note_on,0,0,3,,,,,,,,,2,,,62,0
323562,note_on,0,0,3,,,,,,,,,2,,,60,0
323670,note_on,0,0,1,,,,,,,,,0,,,72,49
323670,note_on,0,0,1,,,,,,,,,0,,,74,49
323670,note_on,0,0,1,,,,,,,,,0,,,72,0
323670,note_on,120,0,1,,,,,,,,,0,,,74,0
323670,note_on,0,0,3,,,,,,,,,2,,,62,36
323670,note_on,108,0,3,,,,,,,,,2,,,60,36
323670,note_on,0,0,3,,,,,,,,,2,,,69,36
323682,note_on,0,0,3,,,,,,,,,2,,,62,0
323682,note_on,0,0,3,,,,,,,,,2,,,60,0
323682,note_on,12,0,3,,,,,,,,,2,,,69,0
323790,note_on,0,0,1,,,,,,,,,0,,,81,49
323790,note_on,0,0,1,,,,,,,,,0,,,72,0
323790,note_on,120,0,1,,,,,,,,,0,,,74,0
323790,note_on,2160,0,2,,,,,,,,,1,,,72,36
323790,note_on,108,0,3,,,,,,,,,2,,,54,36
323910,note_on,0,0,3,,,,,,,,,2,,,69,36
323910,note_on,0,0,3,,,,,,,,,2,,,62,36
323910,note_on,120,0,3,,,,,,,,,2,,,54,0
323910,note_on,120,0,1,,,,,,,,,0,,,81,0
323910,note_on,0,0,1,,,,,,,,,0,,,78,49
323910,note_on,0,0,3,,,,,,,,,2,,,60,36
323922,note_on,0,0,3,,,,,,,,,2,,,60,0
323922,note_on,12,0,3,,,,,,,,,2,,,69,0
323922,note_on,0,0,3,,,,,,,,,2,,,62,0
323970,note_on,0,0,1,,,,,,,,,0,,,76,49
323970,note_on,60,0,1,,,,,,,,,0,,,78,0
324030,note_on,60,0,1,,,,,,,,,0,,,76,0
324030,note_on,0,0,1,,,,,,,,,0,,,74,49
324030,note_on,0,0,3,,,,,,,,,2,,,69,36
324030,note_on,0,0,3,,,,,,,,,2,,,62,36
324030,note_on,108,0,3,,,,,,,,,2,,,60,36
324042,note_on,0,0,3,,,,,,,,,2,,,60,0
324042,note_on,0,0,3,,,,,,,,,2,,,62,0
324042,note_on,12,0,3,,,,,,,,,2,,,69,0
324090,note_on,60,0,1,,,,,,,,,0,,,74,0
324090,note_on,300,0,2,,,,,,,,,1,,,72,0
324150,note_on,60,0,1,,,,,,,,,0,,,71,49
324150,note_on,0,0,1,,,,,,,,,0,,,74,49
324150,note_on,108,0,3,,,,,,,,,2,,,55,36
324270,note_on,120,0,3,,,,,,,,,2,,,55,0
324270,note_on,0,0,3,,,,,,,,,2,,,59,36
324270,note_on,120,0,1,,,,,,,,,0,,,74,0
324270,note_on,0,0,1,,,,,,,,,0,,,71,0
324270,note_on,0,0,1,,,,,,,,,0,,,71,49
324270,note_on,0,0,3,,,,,,,,,2,,,62,36
324270,note_on,0,0,3,,,,,,,,,2,,,67,36
324270,note_on,0,0,1,,,,,,,,,0,,,74,49
324282,note_on,12,0,3,,,,,,,,,2,,,67,0
324282,note_on,0,0,3,,,,,,,,,2,,,62,0
324282,note_on,0,0,3,,,,,,,,,2,,,59,0
324390,note_on,0,0,3,,,,,,,,,2,,,67,36
324390,note_on,0,0,3,,,,,,,,,2,,,62,36
324390,note_on,108,0,3,,,,,,,,,2,,,59,36
324390,note_on,0,0,1,,,,,,,,,0,,,74,49
324390,note_on,120,0,1,,,,,,,,,0,,,74,0
324390,note_on,0,0,1,,,,,,,,,0,,,71,0
324390,note_on,0,0,1,,,,,,,,,0,,,71,49
324402,note_on,12,0,3,,,,,,,,,2,,,67,0
324402,note_on,0,0,3,,,,,,,,,2,,,59,0
324402,note_on,0,0,3,,,,,,,,,2,,,62,0
324510,note_on,0,0,1,,,,,,,,,0,,,79,49
324510,note_on,108,0,3,,,,,,,,,2,,,55,36
324510,note_on,120,0,1,,,,,,,,,0,,,74,0
324510,note_on,0,0,1,,,,,,,,,0,,,71,0
324510,note_on,420,0,2,,,,,,,,,1,,,71,36
324630,note_on,0,0,3,,,,,,,,,2,,,59,36
324630,note_on,0,0,1,,,,,,,,,0,,,78,49
324630,note_on,120,0,1,,,,,,,,,0,,,79,0
324630,note_on,0,0,3,,,,,,,,,2,,,67,36
324630,note_on,0,0,3,,,,,,,,,2,,,62,36
324630,note_on,120,0,3,,,,,,,,,2,,,55,0
324642,note_on,0,0,3,,,,,,,,,2,,,59,0
324642,note_on,0,0,3,,,,,,,,,2,,,62,0
324642,note_on,12,0,3,,,,,,,,,2,,,67,0
324690,note_on,0,0,1,,,,,,,,,0,,,76,49
324690,note_on,60,0,1,,,,,,,,,0,,,78,0
324750,note_on,0,0,3,,,,,,,,,2,,,62,36
324750,note_on,0,0,3,,,,,,,,,2,,,67,36
324750,note_on,0,0,1,,,,,,,,,0,,,74,49
324750,note_on,60,0,1,,,,,,,,,0,,,76,0
324750,note_on,108,0,3,,,,,,,,,2,,,59,36
324762,note_on,0,0,3,,,,,,,,,2,,,62,0
324762,note_on,0,0,3,,,,,,,,,2,,,59,0
324762,note_on,12,0,3,,,,,,,,,2,,,67,0
324810,note_on,60,0,1,,,,,,,,,0,,,74,0
324810,note_on,300,0,2,,,,,,,,,1,,,71,0
324870,note_on,60,0,1,,,,,,,,,0,,,74,49
324870,note_on,0,0,1,,,,,,,,,0,,,79,49
324870,note_on,108,0,3,,,,,,,,,2,,,55,36
324990,note_on,0,0,3,,,,,,,,,2,,,59,36
324990,note_on,0,0,3,,,,,,,,,2,,,62,36
324990,note_on,0,0,3,,,,,,,,,2,,,67,36
324990,note_on,120,0,1,,,,,,,,,0,,,79,0
324990,note_on,0,0,1,,,,,,,,,0,,,74,0
324990,note_on,0,0,1,,,,,,,,,0,,,79,49
324990,note_on,0,0,1,,,,,,,,,0,,,83,49
324990,note_on,120,0,3,,,,,,,,,2,,,55,0
325002,note_on,12,0,3,,,,,,,,,2,,,67,0
325002,note_on,0,0,3,,,,,,,,,2,,,59,0
325002,note_on,0,0,3,,,,,,,,,2,,,62,0
325110,note_on,0,0,3,,,,,,,,,2,,,64,36
325110,note_on,0,0,1,,,,,,,,,0,,,88,49
325110,note_on,0,0,3,,,,,,,,,2,,,67,36
325110,note_on,108,0,3,,,,,,,,,2,,,60,36
325110,note_on,0,0,1,,,,,,,,,0,,,79,0
325110,note_on,120,0,1,,,,,,,,,0,,,83,0
325110,note_on,0,0,1,,,,,,,,,0,,,84,49
325122,note_on,0,0,3,,,,,,,,,2,,,64,0
325122,note_on,12,0,3,,,,,,,,,2,,,67,0
325122,note_on,0,0,3,,,,,,,,,2,,,60,0
325230,note_on,0,0,1,,,,,,,,,0,,,83,49
325230,note_on,120,0,1,,,,,,,,,0,,,88,0
325230,note_on,0,0,1,,,,,,,,,0,,,84,0
325230,note_on,0,0,1,,,,,,,,,0,,,86,49
325230,note_on,4800,0,4,,,,,,,,,3,,,55,36
325350,note_on,0,0,1,,,,,,,,,0,,,83,0
325350,note_on,0,0,1,,,,,,,,,0,,,81,49
325350,note_on,0,0,1,,,,,,,,,0,,,84,49
325350,note_on,0,0,3,,,,,,,,,2,,,67,36
325350,note_on,0,0,3,,,,,,,,,2,,,62,36
325350,note_on,228,0,3,,,,,,,,,2,,,59,36
325350,note_on,120,0,1,,,,,,,,,0,,,86,0
325362,note_on,0,0,3,,,,,,,,,2,,,62,0
325362,note_on,12,0,3,,,,,,,,,2,,,67,0
325362,note_on,0,0,3,,,,,,,,,2,,,59,0
325410,note_on,60,0,1,,,,,,,,,0,,,84,0
325410,note_on,0,0,1,,,,,,,,,0,,,81,0
325410,note_on,0,0,1,,,,,,,,,0,,,79,49
325410,note_on,0,0,1,,,,,,,,,0,,,83,49
325470,note_on,60,0,1,,,,,,,,,0,,,83,0
325470,note_on,0,0,1,,,,,,,,,0,,,79,0
325470,note_on,0,0,1,,,,,,,,,0,,,81,75
325470,note_on,108,0,3,,,,,,,,,2,,,60,36
325470,note_on,0,0,1,,,,,,,,,0,,,74,67
325470,note_on,0,0,3,,,,,,,,,2,,,62,36
325470,note_on,0,0,3,,,,,,,,,2,,,66,36
325476,note_on,6,0,1,,,,,,,,,0,,,81,0
325476,note_on,0,0,1,,,,,,,,,0,,,74,0
325482,note_on,0,0,3,,,,,,,,,2,,,60,0
325482,note_on,12,0,3,,,,,,,,,2,,,66,0
325482,note_on,0,0,3,,,,,,,,,2,,,62,0
325590,note_on,780,0,2,,,,,,,,,1,,,74,36
325590,note_on,0,0,4,,,,,,,,,3,,,55,36
325590,note_on,114,0,1,,,,,,,,,0,,,83,49
325590,note_on,360,0,4,,,,,,,,,3,,,55,0
325710,note_on,228,0,3,,,,,,,,,2,,,59,36
325710,note_on,0,0,3,,,,,,,,,2,,,62,36
325710,note_on,0,0,1,,,,,,,,,0,,,81,49
325710,note_on,120,0,1,,,,,,,,,0,,,83,0
325710,note_on,0,0,3,,,,,,,,,2,,,67,36
325722,note_on,0,0,3,,,,,,,,,2,,,59,0
325722,note_on,0,0,3,,,,,,,,,2,,,62,0
325722,note_on,12,0,3,,,,,,,,,2,,,67,0
325770,note_on,0,0,1,,,,,,,,,0,,,79,49
325770,note_on,60,0,1,,,,,,,,,0,,,81,0
325830,note_on,60,0,1,,,,,,,,,0,,,79,0
325830,note_on,0,0,3,,,,,,,,,2,,,62,36
325830,note_on,0,0,1,,,,,,,,,0,,,74,67
325830,note_on,0,0,3,,,,,,,,,2,,,69,36
325830,note_on,0,0,1,,,,,,,,,0,,,78,75
325830,note_on,108,0,3,,,,,,,,,2,,,60,36
325830,note_on,240,0,2,,,,,,,,,1,,,74,0
325830,note_on,0,0,2,,,,,,,,,1,,,72,62
325836,note_on,0,0,1,,,,,,,,,0,,,74,0
325836,note_on,6,0,1,,,,,,,,,0,,,78,0
325836,note_on,6,0,2,,,,,,,,,1,,,72,0
325842,note_on,12,0,3,,,,,,,,,2,,,69,0
325842,note_on,0,0,3,,,,,,,,,2,,,62,0
325842,note_on,0,0,3,,,,,,,,,2,,,60,0
325950,note_on,0,0,1,,,,,,,,,0,,,79,49
325950,note_on,114,0,1,,,,,,,,,0,,,71,49
325950,note_on,0,0,4,,,,,,,,,3,,,55,36
325950,note_on,0,0,1,,,,,,,,,0,,,74,49
325950,note_on,360,0,4,,,,,,,,,3,,,55,0
325950,time_signature,5400,1,0,2,4,24,8,,,,,,,,,
326070,note_on,0,0,3,,,,,,,,,2,,,62,36
326070,note_on,0,0,3,,,,,,,,,2,,,67,36
326070,note_on,228,0,3,,,,,,,,,2,,,59,36
326190,note_on,240,0,1,,,,,,,,,0,,,79,0
326190,note_on,0,0,1,,,,,,,,,0,,,74,0
326190,note_on,0,0,1,,,,,,,,,0,,,71,0
326190,note_on,0,0,1,,,,,,,,,0,,,76,49
326190,time_signature,240,1,0,1,4,24,8,,,,,,,,,
326190,note_on,0,0,3,,,,,,,,,2,,,59,0
326190,note_on,0,0,3,,,,,,,,,2,,,62,0
326190,note_on,240,0,4,,,,,,,,,3,,,55,0
326190,key_signature,0,1,0,,,,,C,,,,,,,,
326190,note_on,120,0,3,,,,,,,,,2,,,67,0
326250,note_on,0,0,1,,,,,,,,,0,,,77,49
326250,note_on,60,0,1,,,,,,,,,0,,,76,0
326310,note_on,120,0,3,,,,,,,,,2,,,48,36
326310,note_on,60,0,1,,,,,,,,,0,,,77,0
326310,note_on,0,0,1,,,,,,,,,0,,,79,75
326310,time_signature,120,1,0,3,4,24,8,,,,,,,,,
326430,note_on,120,0,1,,,,,,,,,0,,,79,0
326430,note_on,0,0,1,,,,,,,,,0,,,76,49
326430,note_on,120,0,3,,,,,,,,,2,,,48,0
326430,note_on,0,0,3,,,,,,,,,2,,,55,36
326430,note_on,0,0,3,,,,,,,,,2,,,60,36
326430,note_on,0,0,3,,,,,,,,,2,,,64,36
326442,note_on,0,0,3,,,,,,,,,2,,,55,0
326442,note_on,0,0,3,,,,,,,,,2,,,60,0
326442,note_on,12,0,3,,,,,,,,,2,,,64,0
326490,note_on,60,0,1,,,,,,,,,0,,,76,0
326490,note_on,0,0,1,,,,,,,,,0,,,67,49
326550,note_on,0,0,3,,,,,,,,,2,,,60,36
326550,note_on,0,0,3,,,,,,,,,2,,,64,36
326550,note_on,60,0,1,,,,,,,,,0,,,67,0
326550,note_on,0,0,1,,,,,,,,,0,,,76,49
326550,note_on,108,0,3,,,,,,,,,2,,,55,36
326562,note_on,12,0,3,,,,,,,,,2,,,64,0
326562,note_on,0,0,3,,,,,,,,,2,,,60,0
326562,note_on,0,0,3,,,,,,,,,2,,,55,0
326610,note_on,60,0,1,,,,,,,,,0,,,76,0
326610,note_on,0,0,1,,,,,,,,,0,,,79,49
326670,note_on,108,0,3,,,,,,,,,2,,,43,36
326670,note_on,60,0,1,,,,,,,,,0,,,79,0
326670,note_on,0,0,1,,,,,,,,,0,,,76,75
326790,note_on,0,0,3,,,,,,,,,2,,,59,36
326790,note_on,0,0,3,,,,,,,,,2,,,65,36
326790,note_on,120,0,3,,,,,,,,,2,,,43,0
326790,note_on,120,0,1,,,,,,,,,0,,,76,0
326790,note_on,0,0,1,,,,,,,,,0,,,74,49
326790,note_on,0,0,3,,,,,,,,,2,,,55,36
326802,note_on,0,0,3,,,,,,,,,2,,,55,0
326802,note_on,12,0,3,,,,,,,,,2,,,65,0
326802,note_on,0,0,3,,,,,,,,,2,,,59,0
326850,note_on,60,0,1,,,,,,,,,0,,,74,0
326850,note_on,0,0,1,,,,,,,,,0,,,67,49
326910,note_on,0,0,3,,,,,,,,,2,,,65,36
326910,note_on,0,0,3,,,,,,,,,2,,,59,36
326910,note_on,108,0,3,,,,,,,,,2,,,55,36
326910,note_on,60,0,1,,,,,,,,,0,,,67,0
326910,note_on,0,0,1,,,,,,,,,0,,,74,49
326922,note_on,0,0,3,,,,,,,,,2,,,55,0
326922,note_on,12,0,3,,,,,,,,,2,,,65,0
326922,note_on,0,0,3,,,,,,,,,2,,,59,0
326970,note_on,60,0,1,,,,,,,,,0,,,74,0
326970,note_on,0,0,1,,,,,,,,,0,,,77,49
327030,note_on,108,0,3,,,,,,,,,2,,,43,36
327030,note_on,60,0,1,,,,,,,,,0,,,77,0
327030,note_on,0,0,1,,,,,,,,,0,,,81,75
327150,note_on,0,0,3,,,,,,,,,2,,,55,36
327150,note_on,0,0,1,,,,,,,,,0,,,77,49
327150,note_on,120,0,1,,,,,,,,,0,,,81,0
327150,note_on,120,0,3,,,,,,,,,2,,,43,0
327150,note_on,0,0,3,,,,,,,,,2,,,65,36
327150,note_on,0,0,3,,,,,,,,,2,,,59,36
327162,note_on,0,0,3,,,,,,,,,2,,,59,0
327162,note_on,0,0,3,,,,,,,,,2,,,55,0
327162,note_on,12,0,3,,,,,,,,,2,,,65,0
327210,note_on,60,0,1,,,,,,,,,0,,,77,0
327210,note_on,0,0,1,,,,,,,,,0,,,67,49
327270,note_on,108,0,3,,,,,,,,,2,,,55,36
327270,note_on,0,0,1,,,,,,,,,0,,,77,49
327270,note_on,0,0,3,,,,,,,,,2,,,65,36
327270,note_on,60,0,1,,,,,,,,,0,,,67,0
327270,note_on,0,0,3,,,,,,,,,2,,,59,36
327282,note_on,0,0,3,,,,,,,,,2,,,59,0
327282,note_on,12,0,3,,,,,,,,,2,,,65,0
327282,note_on,0,0,3,,,,,,,,,2,,,55,0
327330,note_on,60,0,1,,,,,,,,,0,,,77,0
327330,note_on,0,0,1,,,,,,,,,0,,,81,49
327390,note_on,60,0,1,,,,,,,,,0,,,81,0
327390,note_on,108,0,3,,,,,,,,,2,,,48,36
327390,note_on,0,0,1,,,,,,,,,0,,,77,75
327510,note_on,0,0,3,,,,,,,,,2,,,64,36
327510,note_on,120,0,3,,,,,,,,,2,,,48,0
327510,note_on,0,0,3,,,,,,,,,2,,,55,36
327510,note_on,0,0,3,,,,,,,,,2,,,60,36
327510,note_on,0,0,1,,,,,,,,,0,,,76,49
327510,note_on,120,0,1,,,,,,,,,0,,,77,0
327522,note_on,0,0,3,,,,,,,,,2,,,60,0
327522,note_on,0,0,3,,,,,,,,,2,,,55,0
327522,note_on,12,0,3,,,,,,,,,2,,,64,0
327570,note_on,60,0,1,,,,,,,,,0,,,76,0
327570,note_on,0,0,1,,,,,,,,,0,,,67,49
327630,note_on,60,0,1,,,,,,,,,0,,,67,0
327630,note_on,0,0,1,,,,,,,,,0,,,76,49
327630,note_on,0,0,3,,,,,,,,,2,,,60,36
327630,note_on,0,0,3,,,,,,,,,2,,,64,36
327630,note_on,108,0,3,,,,,,,,,2,,,55,36
327642,note_on,12,0,3,,,,,,,,,2,,,64,0
327642,note_on,0,0,3,,,,,,,,,2,,,55,0
327642,note_on,0,0,3,,,,,,,,,2,,,60,0
327690,note_on,0,0,1,,,,,,,,,0,,,77,49
327690,note_on,60,0,1,,,,,,,,,0,,,76,0
327750,note_on,60,0,1,,,,,,,,,0,,,77,0
327750,note_on,0,0,1,,,,,,,,,0,,,79,75
327750,note_on,108,0,3,,,,,,,,,2,,,48,36
327870,note_on,0,0,3,,,,,,,,,2,,,60,36
327870,note_on,0,0,3,,,,,,,,,2,,,64,36
327870,note_on,120,0,3,,,,,,,,,2,,,48,0
327870,note_on,120,0,1,,,,,,,,,0,,,79,0
327870,note_on,0,0,1,,,,,,,,,0,,,76,49
327870,note_on,0,0,3,,,,,,,,,2,,,55,36
327882,note_on,12,0,3,,,,,,,,,2,,,64,0
327882,note_on,0,0,3,,,,,,,,,2,,,60,0
327882,note_on,0,0,3,,,,,,,,,2,,,55,0
327930,note_on,60,0,1,,,,,,,,,0,,,76,0
327930,note_on,0,0,1,,,,,,,,,0,,,67,49
327990,note_on,60,0,1,,,,,,,,,0,,,67,0
327990,note_on,0,0,1,,,,,,,,,0,,,76,49
327990,note_on,0,0,3,,,,,,,,,2,,,64,36
327990,note_on,0,0,3,,,,,,,,,2,,,60,36
327990,note_on,108,0,3,,,,,,,,,2,,,55,36
328002,note_on,0,0,3,,,,,,,,,2,,,55,0
328002,note_on,0,0,3,,,,,,,,,2,,,60,0
328002,note_on,12,0,3,,,,,,,,,2,,,64,0
328050,note_on,60,0,1,,,,,,,,,0,,,76,0
328050,note_on,0,0,1,,,,,,,,,0,,,79,49
328110,note_on,60,0,1,,,,,,,,,0,,,79,0
328110,note_on,0,0,1,,,,,,,,,0,,,79,75
328110,note_on,108,0,3,,,,,,,,,2,,,50,36
328230,note_on,0,0,3,,,,,,,,,2,,,67,36
328230,note_on,0,0,3,,,,,,,,,2,,,59,36
328230,note_on,0,0,3,,,,,,,,,2,,,62,36
328230,note_on,120,0,3,,,,,,,,,2,,,50,0
328230,note_on,0,0,1,,,,,,,,,0,,,74,49
328230,note_on,120,0,1,,,,,,,,,0,,,79,0
328242,note_on,12,0,3,,,,,,,,,2,,,67,0
328242,note_on,0,0,3,,,,,,,,,2,,,62,0
328242,note_on,0,0,3,,,,,,,,,2,,,59,0
328290,note_on,0,0,1,,,,,,,,,0,,,71,49
328290,note_on,60,0,1,,,,,,,,,0,,,74,0
328350,note_on,0,0,1,,,,,,,,,0,,,74,49
328350,note_on,0,0,3,,,,,,,,,2,,,67,36
328350,note_on,60,0,1,,,,,,,,,0,,,71,0
328350,note_on,108,0,3,,,,,,,,,2,,,59,36
328350,note_on,0,0,3,,,,,,,,,2,,,62,36
328362,note_on,0,0,3,,,,,,,,,2,,,59,0
328362,note_on,0,0,3,,,,,,,,,2,,,62,0
328362,note_on,12,0,3,,,,,,,,,2,,,67,0
328410,note_on,0,0,1,,,,,,,,,0,,,79,49
328410,note_on,60,0,1,,,,,,,,,0,,,74,0
328470,note_on,108,0,3,,,,,,,,,2,,,50,36
328470,note_on,60,0,1,,,,,,,,,0,,,79,0
328470,note_on,0,0,1,,,,,,,,,0,,,79,75
328590,note_on,120,0,1,,,,,,,,,0,,,79,0
328590,note_on,0,0,1,,,,,,,,,0,,,78,49
328590,note_on,120,0,3,,,,,,,,,2,,,50,0
328590,note_on,0,0,3,,,,,,,,,2,,,60,36
328590,note_on,0,0,3,,,,,,,,,2,,,62,36
328590,note_on,0,0,3,,,,,,,,,2,,,66,36
328602,note_on,0,0,3,,,,,,,,,2,,,60,0
328602,note_on,0,0,3,,,,,,,,,2,,,62,0
328602,note_on,12,0,3,,,,,,,,,2,,,66,0
328650,note_on,60,0,1,,,,,,,,,0,,,78,0
328650,note_on,0,0,1,,,,,,,,,0,,,86,49
328710,note_on,0,0,1,,,,,,,,,0,,,84,49
328710,note_on,60,0,1,,,,,,,,,0,,,86,0
328710,note_on,0,0,3,,,,,,,,,2,,,66,36
328710,note_on,108,0,3,,,,,,,,,2,,,60,36
328710,note_on,0,0,3,,,,,,,,,2,,,62,36
328722,note_on,0,0,3,,,,,,,,,2,,,60,0
328722,note_on,12,0,3,,,,,,,,,2,,,66,0
328722,note_on,0,0,3,,,,,,,,,2,,,62,0
328770,note_on,0,0,1,,,,,,,,,0,,,81,49
328770,note_on,60,0,1,,,,,,,,,0,,,84,0
328830,note_on,108,0,3,,,,,,,,,2,,,55,36
328830,note_on,60,0,1,,,,,,,,,0,,,81,0
328830,note_on,0,0,1,,,,,,,,,0,,,79,49
328830,time_signature,2520,1,0,2,4,24,8,,,,,,,,,
328950,note_on,0,0,3,,,,,,,,,2,,,62,36
328950,note_on,0,0,3,,,,,,,,,2,,,59,36
328950,note_on,120,0,3,,,,,,,,,2,,,55,0
328950,note_on,0,0,3,,,,,,,,,2,,,67,36
329070,note_on,0,0,1,,,,,,,,,0,,,76,49
329070,note_on,240,0,1,,,,,,,,,0,,,79,0
329070,note_on,120,0,3,,,,,,,,,2,,,67,0
329070,note_on,0,0,3,,,,,,,,,2,,,59,0
329070,note_on,0,0,3,,,,,,,,,2,,,62,0
329070,time_signature,240,1,0,1,4,24,8,,,,,,,,,
329130,note_on,0,0,1,,,,,,,,,0,,,77,49
329130,note_on,60,0,1,,,,,,,,,0,,,76,0
329190,note_on,0,0,1,,,,,,,,,0,,,79,75
329190,note_on,60,0,1,,,,,,,,,0,,,77,0
329190,time_signature,120,1,0,3,4,24,8,,,,,,,,,
329190,note_on,120,0,3,,,,,,,,,2,,,48,36
329310,note_on,0,0,3,,,,,,,,,2,,,60,36
329310,note_on,0,0,1,,,,,,,,,0,,,76,49
329310,note_on,120,0,1,,,,,,,,,0,,,79,0
329310,note_on,0,0,3,,,,,,,,,2,,,64,36
329310,note_on,0,0,3,,,,,,,,,2,,,55,36
329310,note_on,120,0,3,,,,,,,,,2,,,48,0
329322,note_on,0,0,3,,,,,,,,,2,,,55,0
329322,note_on,0,0,3,,,,,,,,,2,,,60,0
329322,note_on,12,0,3,,,,,,,,,2,,,64,0
329370,note_on,60,0,1,,,,,,,,,0,,,76,0
329370,note_on,0,0,1,,,,,,,,,0,,,67,49
329430,note_on,108,0,3,,,,,,,,,2,,,55,36
329430,note_on,0,0,3,,,,,,,,,2,,,60,36
329430,note_on,0,0,3,,,,,,,,,2,,,64,36
329430,note_on,60,0,1,,,,,,,,,0,,,67,0
329430,note_on,0,0,1,,,,,,,,,0,,,76,49
329442,note_on,0,0,3,,,,,,,,,2,,,60,0
329442,note_on,0,0,3,,,,,,,,,2,,,55,0
329442,note_on,12,0,3,,,,,,,,,2,,,64,0
329490,note_on,60,0,1,,,,,,,,,0,,,76,0
329490,note_on,0,0,1,,,,,,,,,0,,,79,49
329550,note_on,108,0,3,,,,,,,,,2,,,43,36
329550,note_on,60,0,1,,,,,,,,,0,,,79,0
329550,note_on,0,0,1,,,,,,,,,0,,,76,75
329670,note_on,120,0,1,,,,,,,,,0,,,76,0
329670,note_on,0,0,3,,,,,,,,,2,,,65,36
329670,note_on,0,0,3,,,,,,,,,2,,,59,36
329670,note_on,0,0,3,,,,,,,,,2,,,55,36
329670,note_on,120,0,3,,,,,,,,,2,,,43,0
329670,note_on,0,0,1,,,,,,,,,0,,,74,49
329682,note_on,12,0,3,,,,,,,,,2,,,65,0
329682,note_on,0,0,3,,,,,,,,,2,,,55,0
329682,note_on,0,0,3,,,,,,,,,2,,,59,0
329730,note_on,0,0,1,,,,,,,,,0,,,67,49
329730,note_on,60,0,1,,,,,,,,,0,,,74,0
329790,note_on,0,0,3,,,,,,,,,2,,,65,36
329790,note_on,60,0,1,,,,,,,,,0,,,67,0
329790,note_on,108,0,3,,,,,,,,,2,,,55,36
329790,note_on,0,0,3,,,,,,,,,2,,,59,36
329790,note_on,0,0,1,,,,,,,,,0,,,74,49
329802,note_on,12,0,3,,,,,,,,,2,,,65,0
329802,note_on,0,0,3,,,,,,,,,2,,,59,0
329802,note_on,0,0,3,,,,,,,,,2,,,55,0
329850,note_on,60,0,1,,,,,,,,,0,,,74,0
329850,note_on,0,0,1,,,,,,,,,0,,,77,49
329910,note_on,60,0,1,,,,,,,,,0,,,77,0
329910,note_on,0,0,1,,,,,,,,,0,,,81,75
329910,note_on,108,0,3,,,,,,,,,2,,,43,36
330030,note_on,120,0,1,,,,,,,,,0,,,81,0
330030,note_on,0,0,3,,,,,,,,,2,,,65,36
330030,note_on,0,0,1,,,,,,,,,0,,,77,49
330030,note_on,120,0,3,,,,,,,,,2,,,43,0
330030,note_on,0,0,3,,,,,,,,,2,,,55,36
330030,note_on,0,0,3,,,,,,,,,2,,,59,36
330042,note_on,0,0,3,,,,,,,,,2,,,59,0
330042,note_on,0,0,3,,,,,,,,,2,,,55,0
330042,note_on,12,0,3,,,,,,,,,2,,,65,0
330090,note_on,0,0,1,,,,,,,,,0,,,67,49
330090,note_on,60,0,1,,,,,,,,,0,,,77,0
330150,note_on,108,0,3,,,,,,,,,2,,,55,36
330150,note_on,0,0,1,,,,,,,,,0,,,77,49
330150,note_on,60,0,1,,,,,,,,,0,,,67,0
330150,note_on,0,0,3,,,,,,,,,2,,,59,36
330150,note_on,0,0,3,,,,,,,,,2,,,65,36
330162,note_on,0,0,3,,,,,,,,,2,,,59,0
330162,note_on,0,0,3,,,,,,,,,2,,,55,0
330162,note_on,12,0,3,,,,,,,,,2,,,65,0
330210,note_on,0,0,1,,,,,,,,,0,,,81,49
330210,note_on,60,0,1,,,,,,,,,0,,,77,0
330270,note_on,60,0,1,,,,,,,,,0,,,81,0
330270,note_on,0,0,1,,,,,,,,,0,,,77,75
330270,note_on,108,0,3,,,,,,,,,2,,,48,36
330390,note_on,120,0,3,,,,,,,,,2,,,48,0
330390,note_on,0,0,3,,,,,,,,,2,,,55,36
330390,note_on,0,0,3,,,,,,,,,2,,,60,36
330390,note_on,0,0,3,,,,,,,,,2,,,64,36
330390,note_on,120,0,1,,,,,,,,,0,,,77,0
330390,note_on,0,0,1,,,,,,,,,0,,,76,49
330402,note_on,12,0,3,,,,,,,,,2,,,64,0
330402,note_on,0,0,3,,,,,,,,,2,,,60,0
330402,note_on,0,0,3,,,,,,,,,2,,,55,0
330450,note_on,60,0,1,,,,,,,,,0,,,76,0
330450,note_on,0,0,1,,,,,,,,,0,,,67,49
330510,note_on,60,0,1,,,,,,,,,0,,,67,0
330510,note_on,108,0,3,,,,,,,,,2,,,55,36
330510,note_on,0,0,3,,,,,,,,,2,,,60,36
330510,note_on,0,0,3,,,,,,,,,2,,,64,36
330510,note_on,0,0,1,,,,,,,,,0,,,76,49
330522,note_on,12,0,3,,,,,,,,,2,,,64,0
330522,note_on,0,0,3,,,,,,,,,2,,,55,0
330522,note_on,0,0,3,,,,,,,,,2,,,60,0
330570,note_on,60,0,1,,,,,,,,,0,,,76,0
330570,note_on,0,0,1,,,,,,,,,0,,,77,49
330630,note_on,108,0,3,,,,,,,,,2,,,48,36
330630,note_on,60,0,1,,,,,,,,,0,,,77,0
330630,note_on,0,0,1,,,,,,,,,0,,,79,75
330750,note_on,0,0,3,,,,,,,,,2,,,60,36
330750,note_on,0,0,3,,,,,,,,,2,,,64,36
330750,note_on,0,0,3,,,,,,,,,2,,,55,36
330750,note_on,120,0,1,,,,,,,,,0,,,79,0
330750,note_on,0,0,1,,,,,,,,,0,,,76,49
330750,note_on,120,0,3,,,,,,,,,2,,,48,0
330762,note_on,0,0,3,,,,,,,,,2,,,60,0
330762,note_on,0,0,3,,,,,,,,,2,,,55,0
330762,note_on,12,0,3,,,,,,,,,2,,,64,0
330810,note_on,60,0,1,,,,,,,,,0,,,76,0
330810,note_on,0,0,1,,,,,,,,,0,,,67,49
330870,note_on,0,0,3,,,,,,,,,2,,,60,36
330870,note_on,0,0,1,,,,,,,,,0,,,76,49
330870,note_on,60,0,1,,,,,,,,,0,,,67,0
330870,note_on,108,0,3,,,,,,,,,2,,,55,36
330870,note_on,0,0,3,,,,,,,,,2,,,64,36
330882,note_on,0,0,3,,,,,,,,,2,,,55,0
330882,note_on,0,0,3,,,,,,,,,2,,,60,0
330882,note_on,12,0,3,,,,,,,,,2,,,64,0
330930,note_on,60,0,1,,,,,,,,,0,,,76,0
330930,note_on,0,0,1,,,,,,,,,0,,,79,49
330990,note_on,108,0,3,,,,,,,,,2,,,50,36
330990,note_on,60,0,1,,,,,,,,,0,,,79,0
330990,note_on,0,0,1,,,,,,,,,0,,,79,75
331110,note_on,0,0,1,,,,,,,,,0,,,74,49
331110,note_on,0,0,3,,,,,,,,,2,,,62,36
331110,note_on,120,0,3,,,,,,,,,2,,,50,0
331110,note_on,0,0,3,,,,,,,,,2,,,59,36
331110,note_on,120,0,1,,,,,,,,,0,,,79,0
331110,note_on,0,0,3,,,,,,,,,2,,,67,36
331122,note_on,0,0,3,,,,,,,,,2,,,62,0
331122,note_on,12,0,3,,,,,,,,,2,,,67,0
331122,note_on,0,0,3,,,,,,,,,2,,,59,0
331170,note_on,60,0,1,,,,,,,,,0,,,74,0
331170,note_on,0,0,1,,,,,,,,,0,,,71,49
331230,note_on,0,0,1,,,,,,,,,0,,,74,49
331230,note_on,0,0,3,,,,,,,,,2,,,67,36
331230,note_on,0,0,3,,,,,,,,,2,,,62,36
331230,note_on,108,0,3,,,,,,,,,2,,,59,36
331230,note_on,60,0,1,,,,,,,,,0,,,71,0
331242,note_on,0,0,3,,,,,,,,,2,,,62,0
331242,note_on,12,0,3,,,,,,,,,2,,,67,0
331242,note_on,0,0,3,,,,,,,,,2,,,59,0
331290,note_on,0,0,1,,,,,,,,,0,,,79,49
331290,note_on,60,0,1,,,,,,,,,0,,,74,0
331350,note_on,108,0,3,,,,,,,,,2,,,50,36
331350,note_on,0,0,1,,,,,,,,,0,,,79,75
331350,note_on,60,0,1,,,,,,,,,0,,,79,0
331470,note_on,0,0,3,,,,,,,,,2,,,62,36
331470,note_on,0,0,3,,,,,,,,,2,,,60,36
331470,note_on,120,0,3,,,,,,,,,2,,,50,0
331470,note_on,0,0,1,,,,,,,,,0,,,78,49
331470,note_on,120,0,1,,,,,,,,,0,,,79,0
331470,note_on,0,0,3,,,,,,,,,2,,,66,36
331482,note_on,0,0,3,,,,,,,,,2,,,62,0
331482,note_on,12,0,3,,,,,,,,,2,,,66,0
331482,note_on,0,0,3,,,,,,,,,2,,,60,0
331530,note_on,0,0,1,,,,,,,,,0,,,86,49
331530,note_on,60,0,1,,,,,,,,,0,,,78,0
331590,note_on,0,0,1,,,,,,,,,0,,,84,49
331590,note_on,108,0,3,,,,,,,,,2,,,60,36
331590,note_on,0,0,3,,,,,,,,,2,,,62,36
331590,note_on,0,0,3,,,,,,,,,2,,,66,36
331590,note_on,60,0,1,,,,,,,,,0,,,86,0
331602,note_on,0,0,3,,,,,,,,,2,,,62,0
331602,note_on,0,0,3,,,,,,,,,2,,,60,0
331602,note_on,12,0,3,,,,,,,,,2,,,66,0
331650,note_on,60,0,1,,,,,,,,,0,,,84,0
331650,note_on,0,0,1,,,,,,,,,0,,,81,49
331710,note_on,60,0,1,,,,,,,,,0,,,81,0
331710,note_on,0,0,1,,,,,,,,,0,,,79,49
331710,time_signature,2520,1,0,2,4,24,8,,,,,,,,,
331710,note_on,108,0,3,,,,,,,,,2,,,55,36
331830,note_on,120,0,3,,,,,,,,,2,,,55,0
331830,note_on,0,0,3,,,,,,,,,2,,,59,36
331830,note_on,0,0,3,,,,,,,,,2,,,62,36
331830,note_on,0,0,3,,,,,,,,,2,,,67,36
331950,time_signature,240,1,0,1,4,24,8,,,,,,,,,
331950,note_on,120,0,3,,,,,,,,,2,,,67,0
331950,note_on,0,0,3,,,,,,,,,2,,,62,0
331950,note_on,0,0,3,,,,,,,,,2,,,59,0
331950,note_on,240,0,1,,,,,,,,,0,,,79,0
331950,note_on,0,0,1,,,,,,,,,0,,,79,75
332010,note_on,60,0,1,,,,,,,,,0,,,79,0
332010,note_on,0,0,1,,,,,,,,,0,,,81,75
332070,note_on,60,0,1,,,,,,,,,0,,,81,0
332070,time_signature,120,1,0,3,4,24,8,,,,,,,,,
332070,note_on,120,0,3,,,,,,,,,2,,,50,62
332070,note_on,0,0,1,,,,,,,,,0,,,79,75
332190,note_on,120,0,1,,,,,,,,,0,,,79,0
332190,note_on,120,0,3,,,,,,,,,2,,,50,0
332190,note_on,0,0,1,,,,,,,,,0,,,77,75
332190,note_on,0,0,3,,,,,,,,,2,,,57,62
332190,note_on,0,0,3,,,,,,,,,2,,,62,62
332190,note_on,0,0,3,,,,,,,,,2,,,65,62
332202,note_on,12,0,3,,,,,,,,,2,,,65,0
332202,note_on,0,0,3,,,,,,,,,2,,,62,0
332202,note_on,0,0,3,,,,,,,,,2,,,57,0
332250,note_on,60,0,1,,,,,,,,,0,,,77,0
332250,note_on,0,0,1,,,,,,,,,0,,,69,75
332310,note_on,0,0,3,,,,,,,,,2,,,65,62
332310,note_on,0,0,1,,,,,,,,,0,,,77,75
332310,note_on,0,0,3,,,,,,,,,2,,,62,62
332310,note_on,108,0,3,,,,,,,,,2,,,57,62
332310,note_on,60,0,1,,,,,,,,,0,,,69,0
332314,note_on,0,0,3,,,,,,,,,2,,,57,0
332314,note_on,0,0,3,,,,,,,,,2,,,62,0
332314,note_on,4,0,3,,,,,,,,,2,,,65,0
332370,note_on,60,0,1,,,,,,,,,0,,,77,0
332370,note_on,0,0,1,,,,,,,,,0,,,81,75
332430,note_on,0,0,1,,,,,,,,,0,,,77,101
332430,note_on,60,0,1,,,,,,,,,0,,,81,0
332430,note_on,116,0,3,,,,,,,,,2,,,45,62
332550,note_on,0,0,1,,,,,,,,,0,,,76,75
332550,note_on,120,0,1,,,,,,,,,0,,,77,0
332550,note_on,0,0,3,,,,,,,,,2,,,64,62
332550,note_on,0,0,3,,,,,,,,,2,,,57,62
332550,note_on,0,0,3,,,,,,,,,2,,,60,62
332550,note_on,120,0,3,,,,,,,,,2,,,45,0
332562,note_on,12,0,3,,,,,,,,,2,,,64,0
332562,note_on,0,0,3,,,,,,,,,2,,,60,0
332562,note_on,0,0,3,,,,,,,,,2,,,57,0
332610,note_on,0,0,1,,,,,,,,,0,,,69,75
332610,note_on,60,0,1,,,,,,,,,0,,,76,0
332670,note_on,0,0,1,,,,,,,,,0,,,76,75
332670,note_on,60,0,1,,,,,,,,,0,,,69,0
332670,note_on,108,0,3,,,,,,,,,2,,,57,62
332670,note_on,0,0,3,,,,,,,,,2,,,60,62
332670,note_on,0,0,3,,,,,,,,,2,,,64,62
332682,note_on,0,0,3,,,,,,,,,2,,,57,0
332682,note_on,0,0,3,,,,,,,,,2,,,60,0
332682,note_on,12,0,3,,,,,,,,,2,,,64,0
332730,note_on,0,0,1,,,,,,,,,0,,,81,75
332730,note_on,60,0,1,,,,,,,,,0,,,76,0
332790,note_on,0,0,1,,,,,,,,,0,,,76,75
332790,note_on,60,0,1,,,,,,,,,0,,,81,0
332790,note_on,108,0,3,,,,,,,,,2,,,41,62
332910,note_on,120,0,3,,,,,,,,,2,,,41,0
332910,note_on,0,0,3,,,,,,,,,2,,,53,75
332910,note_on,0,0,3,,,,,,,,,2,,,57,75
332910,note_on,0,0,3,,,,,,,,,2,,,60,75
332910,note_on,120,0,1,,,,,,,,,0,,,76,0
332910,note_on,0,0,1,,,,,,,,,0,,,72,88
332922,note_on,0,0,3,,,,,,,,,2,,,53,0
332922,note_on,0,0,3,,,,,,,,,2,,,57,0
332922,note_on,12,0,3,,,,,,,,,2,,,60,0
332970,note_on,0,0,1,,,,,,,,,0,,,81,88
332970,note_on,60,0,1,,,,,,,,,0,,,72,0
333030,note_on,60,0,1,,,,,,,,,0,,,81,0
333030,note_on,0,0,1,,,,,,,,,0,,,74,101
333030,note_on,0,0,3,,,,,,,,,2,,,62,88
333030,note_on,0,0,3,,,,,,,,,2,,,57,88
333030,note_on,108,0,3,,,,,,,,,2,,,53,88
333042,note_on,0,0,3,,,,,,,,,2,,,53,0
333042,note_on,0,0,3,,,,,,,,,2,,,57,0
333042,note_on,12,0,3,,,,,,,,,2,,,62,0
333090,note_on,60,0,1,,,,,,,,,0,,,74,0
333090,note_on,0,0,1,,,,,,,,,0,,,81,101
333150,note_on,60,0,1,,,,,,,,,0,,,81,0
333150,note_on,0,0,1,,,,,,,,,0,,,76,101
333150,note_on,108,0,3,,,,,,,,,2,,,52,88
333150,note_on,0,0,3,,,,,,,,,2,,,64,88
333150,note_on,0,0,3,,,,,,,,,2,,,56,88
333390,note_on,0,0,3,,,,,,,,,2,,,52,0
333390,note_on,0,0,3,,,,,,,,,2,,,56,0
333390,note_on,240,0,3,,,,,,,,,2,,,64,0
333390,note_on,240,0,1,,,,,,,,,0,,,76,0
333390,note_on,0,0,1,,,,,,,,,0,,,76,75
333450,note_on,60,0,1,,,,,,,,,0,,,76,0
333450,note_on,0,0,1,,,,,,,,,0,,,77,75
333510,note_on,60,0,1,,,,,,,,,0,,,77,0
333510,note_on,120,0,3,,,,,,,,,2,,,43,36
333510,note_on,0,0,1,,,,,,,,,0,,,76,62
333630,note_on,0,0,3,,,,,,,,,2,,,55,36
333630,note_on,0,0,1,,,,,,,,,0,,,74,36
333630,note_on,120,0,1,,,,,,,,,0,,,76,0
333630,note_on,0,0,3,,,,,,,,,2,,,65,36
333630,note_on,0,0,3,,,,,,,,,2,,,59,36
333630,note_on,120,0,3,,,,,,,,,2,,,43,0
333642,note_on,0,0,3,,,,,,,,,2,,,55,0
333642,note_on,12,0,3,,,,,,,,,2,,,65,0
333642,note_on,0,0,3,,,,,,,,,2,,,59,0
333690,note_on,60,0,1,,,,,,,,,0,,,74,0
333690,note_on,0,0,1,,,,,,,,,0,,,67,36
333750,note_on,0,0,3,,,,,,,,,2,,,65,36
333750,note_on,0,0,1,,,,,,,,,0,,,74,36
333750,note_on,60,0,1,,,,,,,,,0,,,67,0
333750,note_on,0,0,3,,,,,,,,,2,,,59,36
333750,note_on,108,0,3,,,,,,,,,2,,,55,36
333762,note_on,0,0,3,,,,,,,,,2,,,55,0
333762,note_on,0,0,3,,,,,,,,,2,,,59,0
333762,note_on,12,0,3,,,,,,,,,2,,,65,0
333810,note_on,0,0,1,,,,,,,,,0,,,79,36
333810,note_on,60,0,1,,,,,,,,,0,,,74,0
333870,note_on,108,0,3,,,,,,,,,2,,,43,36
333870,note_on,60,0,1,,,,,,,,,0,,,79,0
333870,note_on,0,0,1,,,,,,,,,0,,,74,62
333990,note_on,0,0,1,,,,,,,,,0,,,73,36
333990,note_on,120,0,3,,,,,,,,,2,,,43,0
333990,note_on,120,0,1,,,,,,,,,0,,,74,0
333990,note_on,0,0,3,,,,,,,,,2,,,55,36
333990,note_on,0,0,3,,,,,,,,,2,,,58,36
333990,note_on,0,0,3,,,,,,,,,2,,,64,36
334002,note_on,12,0,3,,,,,,,,,2,,,64,0
334002,note_on,0,0,3,,,,,,,,,2,,,58,0
334002,note_on,0,0,3,,,,,,,,,2,,,55,0
334050,note_on,0,0,1,,,,,,,,,0,,,67,36
334050,note_on,60,0,1,,,,,,,,,0,,,73,0
334110,note_on,0,0,1,,,,,,,,,0,,,73,36
334110,note_on,60,0,1,,,,,,,,,0,,,67,0
334110,note_on,0,0,3,,,,,,,,,2,,,64,36
334110,note_on,0,0,3,,,,,,,,,2,,,58,36
334110,note_on,108,0,3,,,,,,,,,2,,,55,36
334122,note_on,12,0,3,,,,,,,,,2,,,64,0
334122,note_on,0,0,3,,,,,,,,,2,,,55,0
334122,note_on,0,0,3,,,,,,,,,2,,,58,0
334170,note_on,60,0,1,,,,,,,,,0,,,73,0
334170,note_on,0,0,1,,,,,,,,,0,,,82,36
334230,note_on,108,0,3,,,,,,,,,2,,,41,36
334230,note_on,60,0,1,,,,,,,,,0,,,82,0
334230,note_on,0,0,1,,,,,,,,,0,,,82,49
334290,note_on,60,0,1,,,,,,,,,0,,,82,0
334290,note_on,0,0,1,,,,,,,,,0,,,81,49
334350,note_on,60,0,1,,,,,,,,,0,,,81,0
334350,note_on,0,0,3,,,,,,,,,2,,,57,49
334350,note_on,0,0,3,,,,,,,,,2,,,62,49
334350,note_on,0,0,3,,,,,,,,,2,,,53,49
334350,note_on,120,0,3,,,,,,,,,2,,,41,0
334350,note_on,0,0,1,,,,,,,,,0,,,77,62
334362,note_on,0,0,3,,,,,,,,,2,,,53,0
334362,note_on,0,0,3,,,,,,,,,2,,,57,0
334362,note_on,12,0,3,,,,,,,,,2,,,62,0
334410,note_on,0,0,1,,,,,,,,,0,,,74,62
334410,note_on,60,0,1,,,,,,,,,0,,,77,0
334470,note_on,108,0,3,,,,,,,,,2,,,55,36
334470,note_on,0,0,3,,,,,,,,,2,,,65,36
334470,note_on,0,0,1,,,,,,,,,0,,,71,49
334470,note_on,60,0,1,,,,,,,,,0,,,74,0
334470,note_on,0,0,3,,,,,,,,,2,,,62,36
334474,note_on,0,0,3,,,,,,,,,2,,,62,0
334474,note_on,4,0,3,,,,,,,,,2,,,65,0
334474,note_on,0,0,3,,,,,,,,,2,,,55,0
334530,note_on,0,0,1,,,,,,,,,0,,,79,49
334530,note_on,60,0,1,,,,,,,,,0,,,71,0
334590,note_on,0,0,1,,,,,,,,,0,,,72,49
334590,note_on,60,0,1,,,,,,,,,0,,,79,0
334590,note_on,116,0,3,,,,,,,,,2,,,48,36
334590,time_signature,2520,1,0,2,4,24,8,,,,,,,,,
334710,note_on,0,0,3,,,,,,,,,2,,,64,36
334710,note_on,0,0,3,,,,,,,,,2,,,60,36
334710,note_on,120,0,3,,,,,,,,,2,,,48,0
334830,note_on,0,0,3,,,,,,,,,2,,,60,0
334830,note_on,120,0,3,,,,,,,,,2,,,64,0
334830,note_on,240,0,1,,,,,,,,,0,,,72,0
334830,note_on,0,0,1,,,,,,,,,0,,,79,75
334830,time_signature,240,1,0,1,4,24,8,,,,,,,,,
334890,note_on,0,0,1,,,,,,,,,0,,,81,75
334890,note_on,60,0,1,,,,,,,,,0,,,79,0
334950,time_signature,120,1,0,3,4,24,8,,,,,,,,,
334950,note_on,120,0,3,,,,,,,,,2,,,50,62
334950,note_on,0,0,1,,,,,,,,,0,,,79,75
334950,note_on,60,0,1,,,,,,,,,0,,,81,0
335070,note_on,120,0,3,,,,,,,,,2,,,50,0
335070,note_on,0,0,3,,,,,,,,,2,,,57,62
335070,note_on,0,0,3,,,,,,,,,2,,,62,62
335070,note_on,0,0,3,,,,,,,,,2,,,65,62
335070,note_on,0,0,1,,,,,,,,,0,,,77,75
335070,note_on,120,0,1,,,,,,,,,0,,,79,0
335082,note_on,0,0,3,,,,,,,,,2,,,62,0
335082,note_on,12,0,3,,,,,,,,,2,,,65,0
335082,note_on,0,0,3,,,,,,,,,2,,,57,0
335130,note_on,60,0,1,,,,,,,,,0,,,77,0
335130,note_on,0,0,1,,,,,,,,,0,,,69,75
335190,note_on,60,0,1,,,,,,,,,0,,,69,0
335190,note_on,0,0,1,,,,,,,,,0,,,77,75
335190,note_on,108,0,3,,,,,,,,,2,,,57,62
335190,note_on,0,0,3,,,,,,,,,2,,,62,62
335190,note_on,0,0,3,,,,,,,,,2,,,65,62
335194,note_on,0,0,3,,,,,,,,,2,,,62,0
335194,note_on,4,0,3,,,,,,,,,2,,,65,0
335194,note_on,0,0,3,,,,,,,,,2,,,57,0
335250,note_on,60,0,1,,,,,,,,,0,,,77,0
335250,note_on,0,0,1,,,,,,,,,0,,,81,75
335310,note_on,0,0,1,,,,,,,,,0,,,77,101
335310,note_on,116,0,3,,,,,,,,,2,,,45,62
335310,note_on,60,0,1,,,,,,,,,0,,,81,0
335430,note_on,120,0,1,,,,,,,,,0,,,77,0
335430,note_on,0,0,1,,,,,,,,,0,,,76,75
335430,note_on,120,0,3,,,,,,,,,2,,,45,0
335430,note_on,0,0,3,,,,,,,,,2,,,57,62
335430,note_on,0,0,3,,,,,,,,,2,,,64,62
335430,note_on,0,0,3,,,,,,,,,2,,,60,62
335442,note_on,0,0,3,,,,,,,,,2,,,57,0
335442,note_on,0,0,3,,,,,,,,,2,,,60,0
335442,note_on,12,0,3,,,,,,,,,2,,,64,0
335490,note_on,60,0,1,,,,,,,,,0,,,76,0
335490,note_on,0,0,1,,,,,,,,,0,,,69,75
335550,note_on,108,0,3,,,,,,,,,2,,,57,62
335550,note_on,0,0,1,,,,,,,,,0,,,76,75
335550,note_on,60,0,1,,,,,,,,,0,,,69,0
335550,note_on,0,0,3,,,,,,,,,2,,,64,62
335550,note_on,0,0,3,,,,,,,,,2,,,60,62
335562,note_on,12,0,3,,,,,,,,,2,,,64,0
335562,note_on,0,0,3,,,,,,,,,2,,,57,0
335562,note_on,0,0,3,,,,,,,,,2,,,60,0
335610,note_on,60,0,1,,,,,,,,,0,,,76,0
335610,note_on,0,0,1,,,,,,,,,0,,,81,75
335670,note_on,108,0,3,,,,,,,,,2,,,41,62
335670,note_on,60,0,1,,,,,,,,,0,,,81,0
335670,note_on,0,0,1,,,,,,,,,0,,,76,75
335790,note_on,120,0,1,,,,,,,,,0,,,76,0
335790,note_on,0,0,1,,,,,,,,,0,,,72,88
335790,note_on,120,0,3,,,,,,,,,2,,,41,0
335790,note_on,0,0,3,,,,,,,,,2,,,53,75
335790,note_on,0,0,3,,,,,,,,,2,,,60,75
335790,note_on,0,0,3,,,,,,,,,2,,,57,75
335802,note_on,0,0,3,,,,,,,,,2,,,53,0
335802,note_on,0,0,3,,,,,,,,,2,,,57,0
335802,note_on,12,0,3,,,,,,,,,2,,,60,0
335850,note_on,60,0,1,,,,,,,,,0,,,72,0
335850,note_on,0,0,1,,,,,,,,,0,,,81,88
335910,note_on,108,0,3,,,,,,,,,2,,,53,88
335910,note_on,0,0,1,,,,,,,,,0,,,74,101
335910,note_on,0,0,3,,,,,,,,,2,,,62,88
335910,note_on,60,0,1,,,,,,,,,0,,,81,0
335910,note_on,0,0,3,,,,,,,,,2,,,57,88
335922,note_on,12,0,3,,,,,,,,,2,,,62,0
335922,note_on,0,0,3,,,,,,,,,2,,,57,0
335922,note_on,0,0,3,,,,,,,,,2,,,53,0
335970,note_on,60,0,1,,,,,,,,,0,,,74,0
335970,note_on,0,0,1,,,,,,,,,0,,,81,101
336030,note_on,60,0,1,,,,,,,,,0,,,81,0
336030,note_on,0,0,1,,,,,,,,,0,,,76,101
336030,note_on,0,0,3,,,,,,,,,2,,,64,88
336030,note_on,108,0,3,,,,,,,,,2,,,52,88
336030,note_on,0,0,3,,,,,,,,,2,,,56,88
336270,note_on,0,0,3,,,,,,,,,2,,,56,0
336270,note_on,240,0,1,,,,,,,,,0,,,76,0
336270,note_on,0,0,1,,,,,,,,,0,,,76,75
336270,note_on,0,0,3,,,,,,,,,2,,,52,0
336270,note_on,240,0,3,,,,,,,,,2,,,64,0
336330,note_on,0,0,1,,,,,,,,,0,,,77,75
336330,note_on,60,0,1,,,,,,,,,0,,,76,0
336390,note_on,120,0,3,,,,,,,,,2,,,43,36
336390,note_on,60,0,1,,,,,,,,,0,,,77,0
336390,note_on,0,0,1,,,,,,,,,0,,,76,62
336510,note_on,0,0,3,,,,,,,,,2,,,65,36
336510,note_on,0,0,3,,,,,,,,,2,,,59,36
336510,note_on,0,0,1,,,,,,,,,0,,,74,36
336510,note_on,120,0,1,,,,,,,,,0,,,76,0
336510,note_on,120,0,3,,,,,,,,,2,,,43,0
336510,note_on,0,0,3,,,,,,,,,2,,,55,36
336522,note_on,0,0,3,,,,,,,,,2,,,55,0
336522,note_on,12,0,3,,,,,,,,,2,,,65,0
336522,note_on,0,0,3,,,,,,,,,2,,,59,0
336570,note_on,0,0,1,,,,,,,,,0,,,67,36
336570,note_on,60,0,1,,,,,,,,,0,,,74,0
336630,note_on,60,0,1,,,,,,,,,0,,,67,0
336630,note_on,0,0,1,,,,,,,,,0,,,74,36
336630,note_on,0,0,3,,,,,,,,,2,,,59,36
336630,note_on,108,0,3,,,,,,,,,2,,,55,36
336630,note_on,0,0,3,,,,,,,,,2,,,65,36
336642,note_on,12,0,3,,,,,,,,,2,,,65,0
336642,note_on,0,0,3,,,,,,,,,2,,,55,0
336642,note_on,0,0,3,,,,,,,,,2,,,59,0
336690,note_on,60,0,1,,,,,,,,,0,,,74,0
336690,note_on,0,0,1,,,,,,,,,0,,,79,36
336750,note_on,60,0,1,,,,,,,,,0,,,79,0
336750,note_on,0,0,1,,,,,,,,,0,,,74,62
336750,note_on,108,0,3,,,,,,,,,2,,,43,36
336870,note_on,0,0,3,,,,,,,,,2,,,64,36
336870,note_on,0,0,3,,,,,,,,,2,,,55,36
336870,note_on,120,0,3,,,,,,,,,2,,,43,0
336870,note_on,0,0,1,,,,,,,,,0,,,73,36
336870,note_on,120,0,1,,,,,,,,,0,,,74,0
336870,note_on,0,0,3,,,,,,,,,2,,,58,36
336882,note_on,0,0,3,,,,,,,,,2,,,55,0
336882,note_on,0,0,3,,,,,,,,,2,,,58,0
336882,note_on,12,0,3,,,,,,,,,2,,,64,0
336930,note_on,60,0,1,,,,,,,,,0,,,73,0
336930,note_on,0,0,1,,,,,,,,,0,,,67,36
336990,note_on,60,0,1,,,,,,,,,0,,,67,0
336990,note_on,0,0,1,,,,,,,,,0,,,73,36
336990,note_on,0,0,3,,,,,,,,,2,,,64,36
336990,note_on,0,0,3,,,,,,,,,2,,,58,36
336990,note_on,108,0,3,,,,,,,,,2,,,55,36
337002,note_on,12,0,3,,,,,,,,,2,,,64,0
337002,note_on,0,0,3,,,,,,,,,2,,,55,0
337002,note_on,0,0,3,,,,,,,,,2,,,58,0
337050,note_on,60,0,1,,,,,,,,,0,,,73,0
337050,note_on,0,0,1,,,,,,,,,0,,,82,36
337110,note_on,108,0,3,,,,,,,,,2,,,41,36
337110,note_on,0,0,1,,,,,,,,,0,,,82,49
337110,note_on,60,0,1,,,,,,,,,0,,,82,0
337170,note_on,0,0,1,,,,,,,,,0,,,81,49
337170,note_on,60,0,1,,,,,,,,,0,,,82,0
337230,note_on,0,0,3,,,,,,,,,2,,,62,49
337230,note_on,60,0,1,,,,,,,,,0,,,81,0
337230,note_on,0,0,1,,,,,,,,,0,,,77,62
337230,note_on,0,0,3,,,,,,,,,2,,,57,49
337230,note_on,0,0,3,,,,,,,,,2,,,53,49
337230,note_on,120,0,3,,,,,,,,,2,,,41,0
337242,note_on,0,0,3,,,,,,,,,2,,,57,0
337242,note_on,0,0,3,,,,,,,,,2,,,53,0
337242,note_on,12,0,3,,,,,,,,,2,,,62,0
337290,note_on,60,0,1,,,,,,,,,0,,,77,0
337290,note_on,0,0,1,,,,,,,,,0,,,74,62
337350,note_on,0,0,3,,,,,,,,,2,,,65,36
337350,note_on,0,0,3,,,,,,,,,2,,,62,36
337350,note_on,108,0,3,,,,,,,,,2,,,55,36
337350,note_on,0,0,1,,,,,,,,,0,,,71,49
337350,note_on,60,0,1,,,,,,,,,0,,,74,0
337354,note_on,4,0,3,,,,,,,,,2,,,65,0
337354,note_on,0,0,3,,,,,,,,,2,,,62,0
337354,note_on,0,0,3,,,,,,,,,2,,,55,0
337410,note_on,0,0,1,,,,,,,,,0,,,79,49
337410,note_on,60,0,1,,,,,,,,,0,,,71,0
337470,note_on,0,0,1,,,,,,,,,0,,,72,49
337470,note_on,60,0,1,,,,,,,,,0,,,79,0
337470,time_signature,2520,1,0,2,4,24,8,,,,,,,,,
337470,note_on,116,0,3,,,,,,,,,2,,,48,36
337590,note_on,120,0,3,,,,,,,,,2,,,48,0
337590,note_on,0,0,3,,,,,,,,,2,,,60,36
337590,note_on,0,0,3,,,,,,,,,2,,,64,36
337710,time_signature,240,1,0,1,4,24,8,,,,,,,,,
337710,note_on,0,0,3,,,,,,,,,2,,,60,0
337710,note_on,0,0,1,,,,,,,,,0,,,79,49
337710,note_on,240,0,1,,,,,,,,,0,,,72,0
337710,key_signature,0,1,0,,,,,Eb,,,,,,,,
337710,note_on,120,0,3,,,,,,,,,2,,,64,0
337770,note_on,0,0,1,,,,,,,,,0,,,75,49
337770,note_on,60,0,1,,,,,,,,,0,,,79,0
337830,note_on,120,0,3,,,,,,,,,2,,,51,36
337830,note_on,0,0,1,,,,,,,,,0,,,70,75
337830,note_on,60,0,1,,,,,,,,,0,,,75,0
337830,time_signature,120,1,0,3,4,24,8,,,,,,,,,
337842,note_on,12,0,1,,,,,,,,,0,,,70,0
337950,note_on,0,0,3,,,,,,,,,2,,,63,36
337950,note_on,0,0,3,,,,,,,,,2,,,67,36
337950,note_on,108,0,1,,,,,,,,,0,,,70,75
337950,note_on,0,0,3,,,,,,,,,2,,,58,36
337950,note_on,120,0,3,,,,,,,,,2,,,51,0
337962,note_on,12,0,1,,,,,,,,,0,,,70,0
337962,note_on,12,0,3,,,,,,,,,2,,,67,0
337962,note_on,0,0,3,,,,,,,,,2,,,63,0
337962,note_on,0,0,3,,,,,,,,,2,,,58,0
338040,note_on,78,0,1,,,,,,,,,0,,,72,49
338055,note_on,15,0,1,,,,,,,,,0,,,72,0
338055,note_on,0,0,1,,,,,,,,,0,,,74,49
338070,note_on,15,0,1,,,,,,,,,0,,,74,0
338070,note_on,0,0,1,,,,,,,,,0,,,72,75
338070,note_on,108,0,3,,,,,,,,,2,,,58,36
338070,note_on,0,0,3,,,,,,,,,2,,,62,36
338070,note_on,0,0,3,,,,,,,,,2,,,68,36
338082,note_on,0,0,3,,,,,,,,,2,,,58,0
338082,note_on,0,0,3,,,,,,,,,2,,,62,0
338082,note_on,12,0,3,,,,,,,,,2,,,68,0
338190,note_on,108,0,3,,,,,,,,,2,,,51,36
338190,note_on,0,0,1,,,,,,,,,0,,,70,75
338190,note_on,120,0,1,,,,,,,,,0,,,72,0
338202,note_on,12,0,1,,,,,,,,,0,,,70,0
338310,note_on,108,0,1,,,,,,,,,0,,,70,75
338310,note_on,0,0,3,,,,,,,,,2,,,63,36
338310,note_on,0,0,3,,,,,,,,,2,,,67,36
338310,note_on,0,0,3,,,,,,,,,2,,,58,36
338310,note_on,120,0,3,,,,,,,,,2,,,51,0
338322,note_on,0,0,3,,,,,,,,,2,,,58,0
338322,note_on,0,0,3,,,,,,,,,2,,,63,0
338322,note_on,12,0,3,,,,,,,,,2,,,67,0
338322,note_on,12,0,1,,,,,,,,,0,,,70,0
338400,note_on,78,0,1,,,,,,,,,0,,,72,49
338415,note_on,15,0,1,,,,,,,,,0,,,72,0
338415,note_on,0,0,1,,,,,,,,,0,,,74,49
338430,note_on,0,0,1,,,,,,,,,0,,,72,75
338430,note_on,15,0,1,,,,,,,,,0,,,74,0
338430,note_on,0,0,3,,,,,,,,,2,,,62,36
338430,note_on,0,0,3,,,,,,,,,2,,,68,36
338430,note_on,108,0,3,,,,,,,,,2,,,58,36
338442,note_on,0,0,3,,,,,,,,,2,,,58,0
338442,note_on,0,0,3,,,,,,,,,2,,,62,0
338442,note_on,12,0,3,,,,,,,,,2,,,68,0
338550,note_on,120,0,1,,,,,,,,,0,,,72,0
338550,note_on,0,0,1,,,,,,,,,0,,,70,75
338550,note_on,108,0,3,,,,,,,,,2,,,51,36
338562,note_on,12,0,1,,,,,,,,,0,,,70,0
338670,note_on,108,0,1,,,,,,,,,0,,,79,62
338670,note_on,12834,0,2,,,,,,,,,1,,,75,49
338670,note_on,0,0,3,,,,,,,,,2,,,58,49
338670,note_on,120,0,3,,,,,,,,,2,,,51,0
338670,note_on,0,0,3,,,,,,,,,2,,,63,49
338670,note_on,0,0,3,,,,,,,,,2,,,67,49
338682,note_on,12,0,3,,,,,,,,,2,,,67,0
338682,note_on,0,0,3,,,,,,,,,2,,,63,0
338682,note_on,0,0,3,,,,,,,,,2,,,58,0
338790,note_on,0,0,2,,,,,,,,,1,,,72,62
338790,note_on,120,0,2,,,,,,,,,1,,,75,0
338790,note_on,0,0,2,,,,,,,,,1,,,75,62
338790,note_on,0,0,1,,,,,,,,,0,,,82,75
338790,note_on,120,0,1,,,,,,,,,0,,,79,0
338790,note_on,0,0,3,,,,,,,,,2,,,68,62
338790,note_on,0,0,3,,,,,,,,,2,,,63,62
338790,note_on,108,0,3,,,,,,,,,2,,,60,62
338802,note_on,0,0,3,,,,,,,,,2,,,63,0
338802,note_on,0,0,3,,,,,,,,,2,,,60,0
338802,note_on,12,0,3,,,,,,,,,2,,,68,0
338850,note_on,0,0,1,,,,,,,,,0,,,80,62
338850,note_on,60,0,1,,,,,,,,,0,,,82,0
338910,note_on,120,0,2,,,,,,,,,1,,,75,0
338910,note_on,0,0,2,,,,,,,,,1,,,72,0
338910,note_on,0,0,2,,,,,,,,,1,,,70,36
338910,note_on,0,0,2,,,,,,,,,1,,,75,36
338910,note_on,0,0,1,,,,,,,,,0,,,79,49
338910,note_on,108,0,3,,,,,,,,,2,,,51,36
338910,note_on,60,0,1,,,,,,,,,0,,,80,0
339030,note_on,0,0,3,,,,,,,,,2,,,67,36
339030,note_on,0,0,3,,,,,,,,,2,,,58,36
339030,note_on,120,0,3,,,,,,,,,2,,,51,0
339030,note_on,0,0,3,,,,,,,,,2,,,63,36
339042,note_on,0,0,3,,,,,,,,,2,,,63,0
339042,note_on,12,0,3,,,,,,,,,2,,,67,0
339042,note_on,0,0,3,,,,,,,,,2,,,58,0
339150,note_on,0,0,1,,,,,,,,,0,,,91,49
339150,note_on,240,0,1,,,,,,,,,0,,,79,0
339150,note_on,0,0,2,,,,,,,,,1,,,70,0
339150,note_on,240,0,2,,,,,,,,,1,,,75,0
339150,note_on,0,0,3,,,,,,,,,2,,,67,36
339150,note_on,0,0,3,,,,,,,,,2,,,63,36
339150,note_on,108,0,3,,,,,,,,,2,,,58,36
339162,note_on,12,0,3,,,,,,,,,2,,,67,0
339162,note_on,0,0,3,,,,,,,,,2,,,58,0
339162,note_on,0,0,3,,,,,,,,,2,,,63,0
339210,note_on,0,0,1,,,,,,,,,0,,,87,49
339210,note_on,60,0,1,,,,,,,,,0,,,91,0
339270,note_on,0,0,1,,,,,,,,,0,,,82,75
339270,note_on,60,0,1,,,,,,,,,0,,,87,0
339270,note_on,108,0,3,,,,,,,,,2,,,51,36
339282,note_on,12,0,1,,,,,,,,,0,,,82,0
339390,note_on,120,0,3,,,,,,,,,2,,,51,0
339390,note_on,0,0,3,,,,,,,,,2,,,58,36
339390,note_on,0,0,3,,,,,,,,,2,,,63,36
339390,note_on,108,0,1,,,,,,,,,0,,,82,75
339390,note_on,0,0,3,,,,,,,,,2,,,67,36
339402,note_on,0,0,3,,,,,,,,,2,,,63,0
339402,note_on,12,0,1,,,,,,,,,0,,,82,0
339402,note_on,12,0,3,,,,,,,,,2,,,67,0
339402,note_on,0,0,3,,,,,,,,,2,,,58,0
339480,note_on,78,0,1,,,,,,,,,0,,,84,49
339495,note_on,15,0,1,,,,,,,,,0,,,84,0
339495,note_on,0,0,1,,,,,,,,,0,,,86,49
339510,note_on,0,0,1,,,,,,,,,0,,,84,75
339510,note_on,15,0,1,,,,,,,,,0,,,86,0
339510,note_on,108,0,3,,,,,,,,,2,,,58,36
339510,note_on,0,0,3,,,,,,,,,2,,,62,36
339510,note_on,0,0,3,,,,,,,,,2,,,68,36
339522,note_on,12,0,3,,,,,,,,,2,,,68,0
339522,note_on,0,0,3,,,,,,,,,2,,,58,0
339522,note_on,0,0,3,,,,,,,,,2,,,62,0
339630,note_on,108,0,3,,,,,,,,,2,,,51,36
339630,note_on,120,0,1,,,,,,,,,0,,,84,0
339630,note_on,0,0,1,,,,,,,,,0,,,82,75
339642,note_on,12,0,1,,,,,,,,,0,,,82,0
339750,note_on,120,0,3,,,,,,,,,2,,,51,0
339750,note_on,0,0,3,,,,,,,,,2,,,67,36
339750,note_on,0,0,3,,,,,,,,,2,,,58,36
339750,note_on,0,0,3,,,,,,,,,2,,,63,36
339750,note_on,108,0,1,,,,,,,,,0,,,82,75
339762,note_on,12,0,1,,,,,,,,,0,,,82,0
339762,note_on,12,0,3,,,,,,,,,2,,,67,0
339762,note_on,0,0,3,,,,,,,,,2,,,58,0
339762,note_on,0,0,3,,,,,,,,,2,,,63,0
339840,note_on,78,0,1,,,,,,,,,0,,,84,49
339855,note_on,15,0,1,,,,,,,,,0,,,84,0
339855,note_on,0,0,1,,,,,,,,,0,,,86,49
339870,note_on,15,0,1,,,,,,,,,0,,,86,0
339870,note_on,0,0,1,,,,,,,,,0,,,84,75
339870,note_on,0,0,3,,,,,,,,,2,,,62,36
339870,note_on,108,0,3,,,,,,,,,2,,,58,36
339870,note_on,0,0,3,,,,,,,,,2,,,68,36
339882,note_on,12,0,3,,,,,,,,,2,,,68,0
339882,note_on,0,0,3,,,,,,,,,2,,,62,0
339882,note_on,0,0,3,,,,,,,,,2,,,58,0
339990,note_on,120,0,1,,,,,,,,,0,,,84,0
339990,note_on,108,0,3,,,,,,,,,2,,,51,36
339990,note_on,0,0,1,,,,,,,,,0,,,79,75
340002,note_on,12,0,1,,,,,,,,,0,,,79,0
340110,note_on,0,0,3,,,,,,,,,2,,,63,36
340110,note_on,0,0,3,,,,,,,,,2,,,67,36
340110,note_on,0,0,3,,,,,,,,,2,,,58,36
340110,note_on,120,0,3,,,,,,,,,2,,,51,0
340110,note_on,108,0,1,,,,,,,,,0,,,79,75
340122,note_on,12,0,1,,,,,,,,,0,,,79,0
340122,note_on,12,0,3,,,,,,,,,2,,,67,0
340122,note_on,0,0,3,,,,,,,,,2,,,63,0
340122,note_on,0,0,3,,,,,,,,,2,,,58,0
340230,note_on,108,0,1,,,,,,,,,0,,,77,75
340230,note_on,0,0,3,,,,,,,,,2,,,62,36
340230,note_on,0,0,3,,,,,,,,,2,,,68,36
340230,note_on,108,0,3,,,,,,,,,2,,,58,36
340242,note_on,0,0,3,,,,,,,,,2,,,62,0
340242,note_on,0,0,3,,,,,,,,,2,,,58,0
340242,note_on,12,0,1,,,,,,,,,0,,,77,0
340242,note_on,12,0,3,,,,,,,,,2,,,68,0
340350,note_on,108,0,3,,,,,,,,,2,,,51,36
340350,note_on,108,0,1,,,,,,,,,0,,,75,49
340350,time_signature,2520,1,0,2,4,24,8,,,,,,,,,
340470,note_on,0,0,3,,,,,,,,,2,,,67,36
340470,note_on,0,0,3,,,,,,,,,2,,,58,36
340470,note_on,0,0,3,,,,,,,,,2,,,63,36
340470,note_on,120,0,3,,,,,,,,,2,,,51,0
340590,note_on,120,0,3,,,,,,,,,2,,,67,0
340590,note_on,0,0,3,,,,,,,,,2,,,58,0
340590,note_on,0,0,3,,,,,,,,,2,,,63,0
340590,time_signature,240,1,0,1,4,24,8,,,,,,,,,
340590,note_on,0,0,1,,,,,,,,,0,,,79,49
340590,note_on,240,0,1,,,,,,,,,0,,,75,0
340650,note_on,0,0,1,,,,,,,,,0,,,75,49
340650,note_on,60,0,1,,,,,,,,,0,,,79,0
340710,note_on,0,0,1,,,,,,,,,0,,,70,75
340710,time_signature,120,1,0,3,4,24,8,,,,,,,,,
340710,note_on,60,0,1,,,,,,,,,0,,,75,0
340710,note_on,120,0,3,,,,,,,,,2,,,51,36
340722,note_on,12,0,1,,,,,,,,,0,,,70,0
340830,note_on,0,0,3,,,,,,,,,2,,,67,36
340830,note_on,120,0,3,,,,,,,,,2,,,51,0
340830,note_on,0,0,3,,,,,,,,,2,,,58,36
340830,note_on,0,0,3,,,,,,,,,2,,,63,36
340830,note_on,108,0,1,,,,,,,,,0,,,70,75
340842,note_on,0,0,3,,,,,,,,,2,,,63,0
340842,note_on,12,0,3,,,,,,,,,2,,,67,0
340842,note_on,12,0,1,,,,,,,,,0,,,70,0
340842,note_on,0,0,3,,,,,,,,,2,,,58,0
340920,note_on,78,0,1,,,,,,,,,0,,,72,49
340935,note_on,15,0,1,,,,,,,,,0,,,72,0
340935,note_on,0,0,1,,,,,,,,,0,,,74,49
340950,note_on,15,0,1,,,,,,,,,0,,,74,0
340950,note_on,0,0,1,,,,,,,,,0,,,72,75
340950,note_on,108,0,3,,,,,,,,,2,,,58,36
340950,note_on,0,0,3,,,,,,,,,2,,,62,36
340950,note_on,0,0,3,,,,,,,,,2,,,68,36
340962,note_on,12,0,3,,,,,,,,,2,,,68,0
340962,note_on,0,0,3,,,,,,,,,2,,,58,0
340962,note_on,0,0,3,,,,,,,,,2,,,62,0
341070,note_on,108,0,3,,,,,,,,,2,,,51,36
341070,note_on,120,0,1,,,,,,,,,0,,,72,0
341070,note_on,0,0,1,,,,,,,,,0,,,70,75
341082,note_on,12,0,1,,,,,,,,,0,,,70,0
341190,note_on,120,0,3,,,,,,,,,2,,,51,0
341190,note_on,0,0,3,,,,,,,,,2,,,58,36
341190,note_on,0,0,3,,,,,,,,,2,,,63,36
341190,note_on,0,0,3,,,,,,,,,2,,,67,36
341190,note_on,108,0,1,,,,,,,,,0,,,70,75
341202,note_on,12,0,1,,,,,,,,,0,,,70,0
341202,note_on,12,0,3,,,,,,,,,2,,,67,0
341202,note_on,0,0,3,,,,,,,,,2,,,63,0
341202,note_on,0,0,3,,,,,,,,,2,,,58,0
341280,note_on,78,0,1,,,,,,,,,0,,,72,49
341295,note_on,15,0,1,,,,,,,,,0,,,72,0
341295,note_on,0,0,1,,,,,,,,,0,,,74,49
341310,note_on,0,0,3,,,,,,,,,2,,,62,36
341310,note_on,0,0,3,,,,,,,,,2,,,68,36
341310,note_on,108,0,3,,,,,,,,,2,,,58,36
341310,note_on,15,0,1,,,,,,,,,0,,,74,0
341310,note_on,0,0,1,,,,,,,,,0,,,72,75
341322,note_on,12,0,3,,,,,,,,,2,,,68,0
341322,note_on,0,0,3,,,,,,,,,2,,,62,0
341322,note_on,0,0,3,,,,,,,,,2,,,58,0
341430,note_on,108,0,3,,,,,,,,,2,,,51,36
341430,note_on,120,0,1,,,,,,,,,0,,,72,0
341430,note_on,0,0,1,,,,,,,,,0,,,70,75
341442,note_on,12,0,1,,,,,,,,,0,,,70,0
341550,note_on,108,0,1,,,,,,,,,0,,,79,62
341550,note_on,2400,0,2,,,,,,,,,1,,,75,49
341550,note_on,120,0,3,,,,,,,,,2,,,51,0
341550,note_on,0,0,3,,,,,,,,,2,,,58,49
341550,note_on,0,0,3,,,,,,,,,2,,,67,49
341550,note_on,0,0,3,,,,,,,,,2,,,63,49
341562,note_on,12,0,3,,,,,,,,,2,,,67,0
341562,note_on,0,0,3,,,,,,,,,2,,,63,0
341562,note_on,0,0,3,,,,,,,,,2,,,58,0
341670,note_on,108,0,3,,,,,,,,,2,,,60,62
341670,note_on,0,0,3,,,,,,,,,2,,,63,62
341670,note_on,0,0,3,,,,,,,,,2,,,68,62
341670,note_on,120,0,2,,,,,,,,,1,,,75,0
341670,note_on,0,0,2,,,,,,,,,1,,,72,62
341670,note_on,0,0,2,,,,,,,,,1,,,75,62
341670,note_on,120,0,1,,,,,,,,,0,,,79,0
341670,note_on,0,0,1,,,,,,,,,0,,,82,75
341682,note_on,12,0,3,,,,,,,,,2,,,68,0
341682,note_on,0,0,3,,,,,,,,,2,,,63,0
341682,note_on,0,0,3,,,,,,,,,2,,,60,0
341730,note_on,0,0,1,,,,,,,,,0,,,80,62
341730,note_on,60,0,1,,,,,,,,,0,,,82,0
341790,note_on,108,0,3,,,,,,,,,2,,,51,36
341790,note_on,0,0,2,,,,,,,,,1,,,75,36
341790,note_on,0,0,2,,,,,,,,,1,,,70,36
341790,note_on,0,0,2,,,,,,,,,1,,,72,0
341790,note_on,120,0,2,,,,,,,,,1,,,75,0
341790,note_on,60,0,1,,,,,,,,,0,,,80,0
341790,note_on,0,0,1,,,,,,,,,0,,,79,49
341910,note_on,0,0,3,,,,,,,,,2,,,67,36
341910,note_on,0,0,3,,,,,,,,,2,,,63,36
341910,note_on,0,0,3,,,,,,,,,2,,,58,36
341910,note_on,120,0,3,,,,,,,,,2,,,51,0
341922,note_on,0,0,3,,,,,,,,,2,,,58,0
341922,note_on,0,0,3,,,,,,,,,2,,,63,0
341922,note_on,12,0,3,,,,,,,,,2,,,67,0
342030,note_on,0,0,3,,,,,,,,,2,,,63,36
342030,note_on,0,0,3,,,,,,,,,2,,,67,36
342030,note_on,0,0,2,,,,,,,,,1,,,70,0
342030,note_on,240,0,2,,,,,,,,,1,,,75,0
342030,note_on,108,0,3,,,,,,,,,2,,,58,36
342030,note_on,240,0,1,,,,,,,,,0,,,79,0
342030,note_on,0,0,1,,,,,,,,,0,,,91,49
342042,note_on,12,0,3,,,,,,,,,2,,,67,0
342042,note_on,0,0,3,,,,,,,,,2,,,63,0
342042,note_on,0,0,3,,,,,,,,,2,,,58,0
342090,note_on,60,0,1,,,,,,,,,0,,,91,0
342090,note_on,0,0,1,,,,,,,,,0,,,87,49
342150,note_on,60,0,1,,,,,,,,,0,,,87,0
342150,note_on,0,0,1,,,,,,,,,0,,,82,75
342150,note_on,108,0,3,,,,,,,,,2,,,51,36
342162,note_on,12,0,1,,,,,,,,,0,,,82,0
342270,note_on,0,0,3,,,,,,,,,2,,,67,36
342270,note_on,0,0,3,,,,,,,,,2,,,58,36
342270,note_on,120,0,3,,,,,,,,,2,,,51,0
342270,note_on,0,0,3,,,,,,,,,2,,,63,36
342270,note_on,108,0,1,,,,,,,,,0,,,82,75
342282,note_on,12,0,3,,,,,,,,,2,,,67,0
342282,note_on,0,0,3,,,,,,,,,2,,,58,0
342282,note_on,0,0,3,,,,,,,,,2,,,63,0
342282,note_on,12,0,1,,,,,,,,,0,,,82,0
342360,note_on,78,0,1,,,,,,,,,0,,,84,49
342375,note_on,0,0,1,,,,,,,,,0,,,86,49
342375,note_on,15,0,1,,,,,,,,,0,,,84,0
342390,note_on,108,0,3,,,,,,,,,2,,,58,36
342390,note_on,0,0,3,,,,,,,,,2,,,62,36
342390,note_on,0,0,3,,,,,,,,,2,,,68,36
342390,note_on,15,0,1,,,,,,,,,0,,,86,0
342390,note_on,0,0,1,,,,,,,,,0,,,84,75
342402,note_on,12,0,3,,,,,,,,,2,,,68,0
342402,note_on,0,0,3,,,,,,,,,2,,,62,0
342402,note_on,0,0,3,,,,,,,,,2,,,58,0
342510,note_on,108,0,3,,,,,,,,,2,,,51,36
342510,note_on,0,0,1,,,,,,,,,0,,,82,75
342510,note_on,120,0,1,,,,,,,,,0,,,84,0
342522,note_on,12,0,1,,,,,,,,,0,,,82,0
342630,note_on,120,0,3,,,,,,,,,2,,,51,0
342630,note_on,0,0,3,,,,,,,,,2,,,63,36
342630,note_on,108,0,1,,,,,,,,,0,,,82,75
342630,note_on,0,0,3,,,,,,,,,2,,,67,36
342630,note_on,0,0,3,,,,,,,,,2,,,58,36
342642,note_on,0,0,3,,,,,,,,,2,,,63,0
342642,note_on,12,0,3,,,,,,,,,2,,,67,0
342642,note_on,12,0,1,,,,,,,,,0,,,82,0
342642,note_on,0,0,3,,,,,,,,,2,,,58,0
342720,note_on,78,0,1,,,,,,,,,0,,,84,49
342735,note_on,15,0,1,,,,,,,,,0,,,84,0
342735,note_on,0,0,1,,,,,,,,,0,,,86,49
342750,note_on,108,0,3,,,,,,,,,2,,,58,36
342750,note_on,0,0,3,,,,,,,,,2,,,62,36
342750,note_on,0,0,3,,,,,,,,,2,,,68,36
342750,note_on,15,0,1,,,,,,,,,0,,,86,0
342750,note_on,0,0,1,,,,,,,,,0,,,84,75
342762,note_on,0,0,3,,,,,,,,,2,,,62,0
342762,note_on,0,0,3,,,,,,,,,2,,,58,0
342762,note_on,12,0,3,,,,,,,,,2,,,68,0
342870,note_on,0,0,1,,,,,,,,,0,,,79,75
342870,note_on,120,0,1,,,,,,,,,0,,,84,0
342870,note_on,108,0,3,,,,,,,,,2,,,51,36
342882,note_on,12,0,1,,,,,,,,,0,,,79,0
342990,note_on,0,0,3,,,,,,,,,2,,,67,36
342990,note_on,108,0,1,,,,,,,,,0,,,79,75
342990,note_on,0,0,3,,,,,,,,,2,,,63,36
342990,note_on,0,0,3,,,,,,,,,2,,,58,36
342990,note_on,120,0,3,,,,,,,,,2,,,51,0
343002,note_on,12,0,3,,,,,,,,,2,,,67,0
343002,note_on,0,0,3,,,,,,,,,2,,,58,0
343002,note_on,0,0,3,,,,,,,,,2,,,63,0
343002,note_on,12,0,1,,,,,,,,,0,,,79,0
343110,note_on,0,0,3,,,,,,,,,2,,,68,36
343110,note_on,0,0,3,,,,,,,,,2,,,62,36
343110,note_on,108,0,3,,,,,,,,,2,,,58,36
343110,note_on,108,0,1,,,,,,,,,0,,,77,75
343122,note_on,0,0,3,,,,,,,,,2,,,58,0
343122,note_on,0,0,3,,,,,,,,,2,,,62,0
343122,note_on,12,0,3,,,,,,,,,2,,,68,0
343122,note_on,12,0,1,,,,,,,,,0,,,77,0
343230,time_signature,2520,1,0,2,4,24,8,,,,,,,,,
343230,note_on,108,0,3,,,,,,,,,2,,,51,36
343230,note_on,108,0,1,,,,,,,,,0,,,75,49
343350,note_on,0,0,3,,,,,,,,,2,,,67,36
343350,note_on,0,0,3,,,,,,,,,2,,,58,36
343350,note_on,120,0,3,,,,,,,,,2,,,51,0
343350,note_on,0,0,3,,,,,,,,,2,,,63,36
343470,note_on,0,0,3,,,,,,,,,2,,,58,0
343470,note_on,0,0,3,,,,,,,,,2,,,63,0
343470,note_on,240,0,1,,,,,,,,,0,,,75,0
343470,note_on,0,0,1,,,,,,,,,0,,,87,101
343470,time_signature,240,1,0,1,4,24,8,,,,,,,,,
343470,note_on,120,0,3,,,,,,,,,2,,,67,0
343530,note_on,60,0,1,,,,,,,,,0,,,87,0
343530,note_on,0,0,1,,,,,,,,,0,,,84,101
343590,note_on,120,0,3,,,,,,,,,2,,,48,88
343590,note_on,60,0,1,,,,,,,,,0,,,84,0
343590,note_on,0,0,1,,,,,,,,,0,,,79,127
343590,time_signature,120,1,0,3,4,24,8,,,,,,,,,
343602,note_on,12,0,3,,,,,,,,,2,,,48,0
343602,note_on,12,0,1,,,,,,,,,0,,,79,0
343710,note_on,108,0,3,,,,,,,,,2,,,55,88
343710,note_on,108,0,1,,,,,,,,,0,,,79,127
343710,note_on,0,0,3,,,,,,,,,2,,,63,88
343710,note_on,0,0,3,,,,,,,,,2,,,60,88
343722,note_on,12,0,3,,,,,,,,,2,,,63,0
343722,note_on,12,0,1,,,,,,,,,0,,,79,0
343722,note_on,0,0,3,,,,,,,,,2,,,55,0
343722,note_on,0,0,3,,,,,,,,,2,,,60,0
343800,note_on,78,0,1,,,,,,,,,0,,,84,101
343815,note_on,15,0,1,,,,,,,,,0,,,84,0
343815,note_on,0,0,1,,,,,,,,,0,,,86,101
343830,note_on,0,0,3,,,,,,,,,2,,,63,88
343830,note_on,0,0,3,,,,,,,,,2,,,60,88
343830,note_on,108,0,3,,,,,,,,,2,,,55,88
343830,note_on,15,0,1,,,,,,,,,0,,,86,0
343830,note_on,0,0,1,,,,,,,,,0,,,84,127
343842,note_on,12,0,3,,,,,,,,,2,,,63,0
343842,note_on,0,0,3,,,,,,,,,2,,,55,0
343842,note_on,0,0,3,,,,,,,,,2,,,60,0
343950,note_on,120,0,1,,,,,,,,,0,,,84,0
343950,note_on,0,0,1,,,,,,,,,0,,,79,127
343950,note_on,108,0,3,,,,,,,,,2,,,48,88
343962,note_on,12,0,3,,,,,,,,,2,,,48,0
343962,note_on,12,0,1,,,,,,,,,0,,,79,0
344070,note_on,108,0,1,,,,,,,,,0,,,79,127
344070,note_on,108,0,3,,,,,,,,,2,,,55,88
344070,note_on,0,0,3,,,,,,,,,2,,,60,88
344070,note_on,0,0,3,,,,,,,,,2,,,63,88
344082,note_on,12,0,3,,,,,,,,,2,,,63,0
344082,note_on,0,0,3,,,,,,,,,2,,,55,0
344082,note_on,0,0,3,,,,,,,,,2,,,60,0
344082,note_on,12,0,1,,,,,,,,,0,,,79,0
344160,note_on,78,0,1,,,,,,,,,0,,,84,101
344175,note_on,15,0,1,,,,,,,,,0,,,84,0
344175,note_on,0,0,1,,,,,,,,,0,,,86,101
344190,note_on,0,0,1,,,,,,,,,0,,,84,127
344190,note_on,15,0,1,,,,,,,,,0,,,86,0
344190,note_on,108,0,3,,,,,,,,,2,,,55,88
344190,note_on,0,0,3,,,,,,,,,2,,,60,88
344190,note_on,0,0,3,,,,,,,,,2,,,63,88
344202,note_on,0,0,3,,,,,,,,,2,,,55,0
344202,note_on,12,0,3,,,,,,,,,2,,,63,0
344202,note_on,0,0,3,,,,,,,,,2,,,60,0
344310,note_on,108,0,3,,,,,,,,,2,,,48,88
344310,note_on,120,0,1,,,,,,,,,0,,,84,0
344310,note_on,0,0,1,,,,,,,,,0,,,80,101
344370,note_on,60,0,1,,,,,,,,,0,,,80,0
344370,note_on,0,0,1,,,,,,,,,0,,,84,101
344430,note_on,120,0,3,,,,,,,,,2,,,48,0
344430,note_on,0,0,3,,,,,,,,,2,,,56,101
344430,note_on,0,0,3,,,,,,,,,2,,,60,101
344430,note_on,0,0,3,,,,,,,,,2,,,65,101
344430,note_on,0,0,1,,,,,,,,,0,,,86,114
344430,note_on,60,0,1,,,,,,,,,0,,,84,0
344442,note_on,12,0,3,,,,,,,,,2,,,65,0
344442,note_on,0,0,3,,,,,,,,,2,,,60,0
344442,note_on,0,0,3,,,,,,,,,2,,,56,0
344490,note_on,60,0,1,,,,,,,,,0,,,86,0
344490,note_on,0,0,1,,,,,,,,,0,,,84,114
344550,note_on,0,0,1,,,,,,,,,0,,,87,101
344550,note_on,60,0,1,,,,,,,,,0,,,84,0
344550,note_on,108,0,3,,,,,,,,,2,,,56,88
344550,note_on,0,0,3,,,,,,,,,2,,,65,88
344550,note_on,0,0,3,,,,,,,,,2,,,60,88
344562,note_on,0,0,3,,,,,,,,,2,,,60,0
344562,note_on,0,0,3,,,,,,,,,2,,,56,0
344562,note_on,12,0,3,,,,,,,,,2,,,65,0
344610,note_on,0,0,1,,,,,,,,,0,,,86,101
344610,note_on,60,0,1,,,,,,,,,0,,,87,0
344670,note_on,108,0,3,,,,,,,,,2,,,48,88
344670,note_on,0,0,1,,,,,,,,,0,,,84,101
344670,note_on,60,0,1,,,,,,,,,0,,,86,0
344682,note_on,12,0,3,,,,,,,,,2,,,48,0
344790,note_on,108,0,3,,,,,,,,,2,,,55,88
344790,note_on,0,0,3,,,,,,,,,2,,,63,88
344790,note_on,0,0,3,,,,,,,,,2,,,60,88
344802,note_on,0,0,3,,,,,,,,,2,,,55,0
344802,note_on,0,0,3,,,,,,,,,2,,,60,0
344802,note_on,12,0,3,,,,,,,,,2,,,63,0
344910,note_on,0,0,1,,,,,,,,,0,,,87,101
344910,note_on,240,0,1,,,,,,,,,0,,,84,0
344910,note_on,0,0,3,,,,,,,,,2,,,63,88
344910,note_on,0,0,3,,,,,,,,,2,,,60,88
344910,note_on,108,0,3,,,,,,,,,2,,,55,88
344922,note_on,0,0,3,,,,,,,,,2,,,55,0
344922,note_on,0,0,3,,,,,,,,,2,,,60,0
344922,note_on,12,0,3,,,,,,,,,2,,,63,0
344970,note_on,0,0,1,,,,,,,,,0,,,84,101
344970,note_on,60,0,1,,,,,,,,,0,,,87,0
345030,note_on,0,0,1,,,,,,,,,0,,,79,127
345030,note_on,60,0,1,,,,,,,,,0,,,84,0
345030,note_on,108,0,3,,,,,,,,,2,,,48,88
345042,note_on,12,0,3,,,,,,,,,2,,,48,0
345042,note_on,12,0,1,,,,,,,,,0,,,79,0
345150,note_on,0,0,3,,,,,,,,,2,,,63,88
345150,note_on,0,0,3,,,,,,,,,2,,,60,88
345150,note_on,108,0,3,,,,,,,,,2,,,55,88
345150,note_on,108,0,1,,,,,,,,,0,,,79,127
345162,note_on,0,0,3,,,,,,,,,2,,,55,0
345162,note_on,0,0,3,,,,,,,,,2,,,60,0
345162,note_on,12,0,3,,,,,,,,,2,,,63,0
345162,note_on,12,0,1,,,,,,,,,0,,,79,0
345240,note_on,78,0,1,,,,,,,,,0,,,84,101
345255,note_on,15,0,1,,,,,,,,,0,,,84,0
345255,note_on,0,0,1,,,,,,,,,0,,,86,101
345270,note_on,0,0,3,,,,,,,,,2,,,63,88
345270,note_on,108,0,3,,,,,,,,,2,,,55,88
345270,note_on,0,0,3,,,,,,,,,2,,,60,88
345270,note_on,0,0,1,,,,,,,,,0,,,84,127
345270,note_on,15,0,1,,,,,,,,,0,,,86,0
345282,note_on,0,0,3,,,,,,,,,2,,,55,0
345282,note_on,0,0,3,,,,,,,,,2,,,60,0
345282,note_on,12,0,3,,,,,,,,,2,,,63,0
345390,note_on,120,0,1,,,,,,,,,0,,,84,0
345390,note_on,0,0,1,,,,,,,,,0,,,79,127
345390,note_on,108,0,3,,,,,,,,,2,,,48,88
345402,note_on,12,0,1,,,,,,,,,0,,,79,0
345402,note_on,12,0,3,,,,,,,,,2,,,48,0
345510,note_on,0,0,3,,,,,,,,,2,,,63,88
345510,note_on,108,0,3,,,,,,,,,2,,,55,88
345510,note_on,108,0,1,,,,,,,,,0,,,79,127
345510,note_on,0,0,3,,,,,,,,,2,,,60,88
345522,note_on,12,0,1,,,,,,,,,0,,,79,0
345522,note_on,0,0,3,,,,,,,,,2,,,55,0
345522,note_on,0,0,3,,,,,,,,,2,,,60,0
345522,note_on,12,0,3,,,,,,,,,2,,,63,0
345630,note_on,0,0,3,,,,,,,,,2,,,60,88
345630,note_on,108,0,3,,,,,,,,,2,,,55,88
345630,note_on,108,0,1,,,,,,,,,0,,,91,127
345630,note_on,0,0,3,,,,,,,,,2,,,63,88
345642,note_on,0,0,3,,,,,,,,,2,,,60,0
345642,note_on,12,0,3,,,,,,,,,2,,,63,0
345642,note_on,0,0,3,,,,,,,,,2,,,55,0
345750,note_on,0,0,1,,,,,,,,,0,,,79,101
345750,note_on,120,0,1,,,,,,,,,0,,,91,0
345750,note_on,108,0,3,,,,,,,,,2,,,43,88
345810,note_on,0,0,1,,,,,,,,,0,,,86,101
345810,note_on,60,0,1,,,,,,,,,0,,,79,0
345870,note_on,0,0,3,,,,,,,,,2,,,65,88
345870,note_on,0,0,3,,,,,,,,,2,,,59,88
345870,note_on,0,0,3,,,,,,,,,2,,,55,88
345870,note_on,120,0,3,,,,,,,,,2,,,43,0
345870,note_on,0,0,1,,,,,,,,,0,,,79,101
345870,note_on,60,0,1,,,,,,,,,0,,,86,0
345882,note_on,12,0,3,,,,,,,,,2,,,65,0
345882,note_on,0,0,3,,,,,,,,,2,,,59,0
345882,note_on,0,0,3,,,,,,,,,2,,,55,0
345930,note_on,60,0,1,,,,,,,,,0,,,79,0
345930,note_on,0,0,1,,,,,,,,,0,,,86,101
345990,note_on,108,0,3,,,,,,,,,2,,,55,88
345990,note_on,0,0,3,,,,,,,,,2,,,59,88
345990,note_on,0,0,3,,,,,,,,,2,,,65,88
345990,note_on,60,0,1,,,,,,,,,0,,,86,0
345990,note_on,0,0,1,,,,,,,,,0,,,87,101
346002,note_on,0,0,3,,,,,,,,,2,,,59,0
346002,note_on,12,0,3,,,,,,,,,2,,,65,0
346002,note_on,0,0,3,,,,,,,,,2,,,55,0
346050,note_on,60,0,1,,,,,,,,,0,,,87,0
346050,note_on,0,0,1,,,,,,,,,0,,,86,101
346110,note_on,60,0,1,,,,,,,,,0,,,86,0
346110,note_on,0,0,1,,,,,,,,,0,,,84,101
346110,note_on,108,0,3,,,,,,,,,2,,,48,88
346230,note_on,120,0,3,,,,,,,,,2,,,48,0
346230,note_on,0,0,3,,,,,,,,,2,,,55,88
346230,note_on,0,0,3,,,,,,,,,2,,,60,88
346230,note_on,0,0,3,,,,,,,,,2,,,63,88
346350,note_on,0,0,3,,,,,,,,,2,,,60,0
346350,note_on,0,0,3,,,,,,,,,2,,,55,0
346350,note_on,120,0,3,,,,,,,,,2,,,63,0
346350,note_on,240,0,1,,,,,,,,,0,,,84,0
346350,note_on,0,0,1,,,,,,,,,0,,,79,49
346410,note_on,60,0,1,,,,,,,,,0,,,79,0
346410,note_on,0,0,1,,,,,,,,,0,,,75,49
346470,note_on,60,0,1,,,,,,,,,0,,,75,0
346470,note_on,0,0,1,,,,,,,,,0,,,70,75
346470,note_on,120,0,3,,,,,,,,,2,,,51,36
346482,note_on,12,0,1,,,,,,,,,0,,,70,0
346590,note_on,120,0,3,,,,,,,,,2,,,51,0
346590,note_on,0,0,3,,,,,,,,,2,,,67,36
346590,note_on,108,0,1,,,,,,,,,0,,,70,75
346590,note_on,0,0,3,,,,,,,,,2,,,63,36
346590,note_on,0,0,3,,,,,,,,,2,,,58,36
346602,note_on,12,0,3,,,,,,,,,2,,,67,0
346602,note_on,0,0,3,,,,,,,,,2,,,63,0
346602,note_on,0,0,3,,,,,,,,,2,,,58,0
346602,note_on,12,0,1,,,,,,,,,0,,,70,0
346680,note_on,78,0,1,,,,,,,,,0,,,72,49
346695,note_on,15,0,1,,,,,,,,,0,,,72,0
346695,note_on,0,0,1,,,,,,,,,0,,,74,49
346710,note_on,108,0,3,,,,,,,,,2,,,58,36
346710,note_on,0,0,3,,,,,,,,,2,,,62,36
346710,note_on,0,0,3,,,,,,,,,2,,,68,36
346710,note_on,15,0,1,,,,,,,,,0,,,74,0
346710,note_on,0,0,1,,,,,,,,,0,,,72,75
346722,note_on,12,0,3,,,,,,,,,2,,,68,0
346722,note_on,0,0,3,,,,,,,,,2,,,62,0
346722,note_on,0,0,3,,,,,,,,,2,,,58,0
346830,note_on,0,0,1,,,,,,,,,0,,,70,75
346830,note_on,120,0,1,,,,,,,,,0,,,72,0
346830,note_on,108,0,3,,,,,,,,,2,,,51,36
346842,note_on,12,0,1,,,,,,,,,0,,,70,0
346950,note_on,0,0,3,,,,,,,,,2,,,67,36
346950,note_on,0,0,3,,,,,,,,,2,,,63,36
346950,note_on,0,0,3,,,,,,,,,2,,,58,36
346950,note_on,120,0,3,,,,,,,,,2,,,51,0
346950,note_on,108,0,1,,,,,,,,,0,,,70,75
346962,note_on,0,0,3,,,,,,,,,2,,,63,0
346962,note_on,0,0,3,,,,,,,,,2,,,58,0
346962,note_on,12,0,3,,,,,,,,,2,,,67,0
346962,note_on,12,0,1,,,,,,,,,0,,,70,0
347040,note_on,78,0,1,,,,,,,,,0,,,72,49
347055,note_on,0,0,1,,,,,,,,,0,,,74,49
347055,note_on,15,0,1,,,,,,,,,0,,,72,0
347070,note_on,15,0,1,,,,,,,,,0,,,74,0
347070,note_on,0,0,3,,,,,,,,,2,,,68,36
347070,note_on,108,0,3,,,,,,,,,2,,,58,36
347070,note_on,0,0,1,,,,,,,,,0,,,72,75
347070,note_on,0,0,3,,,,,,,,,2,,,62,36
347082,note_on,0,0,3,,,,,,,,,2,,,62,0
347082,note_on,0,0,3,,,,,,,,,2,,,58,0
347082,note_on,12,0,3,,,,,,,,,2,,,68,0
347190,note_on,0,0,1,,,,,,,,,0,,,70,75
347190,note_on,108,0,3,,,,,,,,,2,,,51,36
347190,note_on,120,0,1,,,,,,,,,0,,,72,0
347202,note_on,12,0,1,,,,,,,,,0,,,70,0
347310,note_on,108,0,1,,,,,,,,,0,,,79,62
347310,note_on,0,0,3,,,,,,,,,2,,,63,49
347310,note_on,120,0,3,,,,,,,,,2,,,51,0
347310,note_on,5280,0,2,,,,,,,,,1,,,75,49
347310,note_on,0,0,3,,,,,,,,,2,,,67,49
347310,note_on,0,0,3,,,,,,,,,2,,,58,49
347322,note_on,0,0,3,,,,,,,,,2,,,63,0
347322,note_on,12,0,3,,,,,,,,,2,,,67,0
347322,note_on,0,0,3,,,,,,,,,2,,,58,0
347430,note_on,108,0,3,,,,,,,,,2,,,60,62
347430,note_on,120,0,1,,,,,,,,,0,,,79,0
347430,note_on,0,0,1,,,,,,,,,0,,,82,75
347430,note_on,0,0,2,,,,,,,,,1,,,75,62
347430,note_on,0,0,2,,,,,,,,,1,,,72,62
347430,note_on,0,0,3,,,,,,,,,2,,,63,62
347430,note_on,0,0,3,,,,,,,,,2,,,68,62
347430,note_on,120,0,2,,,,,,,,,1,,,75,0
347442,note_on,0,0,3,,,,,,,,,2,,,63,0
347442,note_on,0,0,3,,,,,,,,,2,,,60,0
347442,note_on,12,0,3,,,,,,,,,2,,,68,0
347490,note_on,60,0,1,,,,,,,,,0,,,82,0
347490,note_on,0,0,1,,,,,,,,,0,,,80,62
347550,note_on,120,0,2,,,,,,,,,1,,,75,0
347550,note_on,60,0,1,,,,,,,,,0,,,80,0
347550,note_on,108,0,3,,,,,,,,,2,,,51,36
347550,note_on,0,0,2,,,,,,,,,1,,,75,36
347550,note_on,0,0,2,,,,,,,,,1,,,70,36
347550,note_on,0,0,2,,,,,,,,,1,,,72,0
347550,note_on,0,0,1,,,,,,,,,0,,,79,49
347670,note_on,120,0,3,,,,,,,,,2,,,51,0
347670,note_on,0,0,3,,,,,,,,,2,,,67,36
347670,note_on,0,0,3,,,,,,,,,2,,,58,36
347670,note_on,0,0,3,,,,,,,,,2,,,63,36
347682,note_on,0,0,3,,,,,,,,,2,,,58,0
347682,note_on,0,0,3,,,,,,,,,2,,,63,0
347682,note_on,12,0,3,,,,,,,,,2,,,67,0
347790,note_on,0,0,3,,,,,,,,,2,,,67,36
347790,note_on,0,0,3,,,,,,,,,2,,,63,36
347790,note_on,108,0,3,,,,,,,,,2,,,58,36
347790,note_on,240,0,2,,,,,,,,,1,,,75,0
347790,note_on,0,0,2,,,,,,,,,1,,,70,0
347790,note_on,0,0,1,,,,,,,,,0,,,91,49
347790,note_on,240,0,1,,,,,,,,,0,,,79,0
347802,note_on,0,0,3,,,,,,,,,2,,,63,0
347802,note_on,0,0,3,,,,,,,,,2,,,58,0
347802,note_on,12,0,3,,,,,,,,,2,,,67,0
347850,note_on,60,0,1,,,,,,,,,0,,,91,0
347850,note_on,0,0,1,,,,,,,,,0,,,87,49
347910,note_on,60,0,1,,,,,,,,,0,,,87,0
347910,note_on,0,0,1,,,,,,,,,0,,,82,75
347910,note_on,108,0,3,,,,,,,,,2,,,51,36
347922,note_on,12,0,1,,,,,,,,,0,,,82,0
348030,note_on,0,0,3,,,,,,,,,2,,,58,36
348030,note_on,108,0,1,,,,,,,,,0,,,82,75
348030,note_on,0,0,3,,,,,,,,,2,,,63,36
348030,note_on,0,0,3,,,,,,,,,2,,,67,36
348030,note_on,120,0,3,,,,,,,,,2,,,51,0
348042,note_on,12,0,3,,,,,,,,,2,,,67,0
348042,note_on,0,0,3,,,,,,,,,2,,,63,0
348042,note_on,0,0,3,,,,,,,,,2,,,58,0
348042,note_on,12,0,1,,,,,,,,,0,,,82,0
348120,note_on,78,0,1,,,,,,,,,0,,,84,49
348135,note_on,0,0,1,,,,,,,,,0,,,86,49
348135,note_on,15,0,1,,,,,,,,,0,,,84,0
348150,note_on,0,0,3,,,,,,,,,2,,,62,36
348150,note_on,0,0,1,,,,,,,,,0,,,84,75
348150,note_on,15,0,1,,,,,,,,,0,,,86,0
348150,note_on,108,0,3,,,,,,,,,2,,,58,36
348150,note_on,0,0,3,,,,,,,,,2,,,68,36
348162,note_on,0,0,3,,,,,,,,,2,,,62,0
348162,note_on,12,0,3,,,,,,,,,2,,,68,0
348162,note_on,0,0,3,,,,,,,,,2,,,58,0
348270,note_on,108,0,3,,,,,,,,,2,,,51,36
348270,note_on,120,0,1,,,,,,,,,0,,,84,0
348270,note_on,0,0,1,,,,,,,,,0,,,82,75
348282,note_on,12,0,1,,,,,,,,,0,,,82,0
348390,note_on,108,0,1,,,,,,,,,0,,,82,75
348390,note_on,120,0,3,,,,,,,,,2,,,51,0
348390,note_on,0,0,3,,,,,,,,,2,,,67,36
348390,note_on,0,0,3,,,,,,,,,2,,,63,36
348390,note_on,0,0,3,,,,,,,,,2,,,58,36
348402,note_on,12,0,1,,,,,,,,,0,,,82,0
348402,note_on,0,0,3,,,,,,,,,2,,,58,0
348402,note_on,0,0,3,,,,,,,,,2,,,63,0
348402,note_on,12,0,3,,,,,,,,,2,,,67,0
348480,note_on,78,0,1,,,,,,,,,0,,,84,49
348495,note_on,0,0,1,,,,,,,,,0,,,86,49
348495,note_on,15,0,1,,,,,,,,,0,,,84,0
348510,note_on,0,0,1,,,,,,,,,0,,,84,75
348510,note_on,108,0,3,,,,,,,,,2,,,58,36
348510,note_on,0,0,3,,,,,,,,,2,,,62,36
348510,note_on,15,0,1,,,,,,,,,0,,,86,0
348510,note_on,0,0,3,,,,,,,,,2,,,68,36
348522,note_on,12,0,3,,,,,,,,,2,,,68,0
348522,note_on,0,0,3,,,,,,,,,2,,,62,0
348522,note_on,0,0,3,,,,,,,,,2,,,58,0
348630,note_on,0,0,1,,,,,,,,,0,,,79,75
348630,note_on,108,0,3,,,,,,,,,2,,,51,36
348630,note_on,120,0,1,,,,,,,,,0,,,84,0
348642,note_on,12,0,1,,,,,,,,,0,,,79,0
348750,note_on,120,0,3,,,,,,,,,2,,,51,0
348750,note_on,0,0,3,,,,,,,,,2,,,58,36
348750,note_on,0,0,3,,,,,,,,,2,,,63,36
348750,note_on,0,0,3,,,,,,,,,2,,,67,36
348750,note_on,108,0,1,,,,,,,,,0,,,79,75
348762,note_on,12,0,1,,,,,,,,,0,,,79,0
348762,note_on,0,0,3,,,,,,,,,2,,,63,0
348762,note_on,0,0,3,,,,,,,,,2,,,58,0
348762,note_on,12,0,3,,,,,,,,,2,,,67,0
348870,note_on,108,0,3,,,,,,,,,2,,,58,36
348870,note_on,108,0,1,,,,,,,,,0,,,77,75
348870,note_on,0,0,3,,,,,,,,,2,,,68,36
348870,note_on,0,0,3,,,,,,,,,2,,,62,36
348882,note_on,12,0,1,,,,,,,,,0,,,77,0
348882,note_on,0,0,3,,,,,,,,,2,,,62,0
348882,note_on,12,0,3,,,,,,,,,2,,,68,0
348882,note_on,0,0,3,,,,,,,,,2,,,58,0
348990,note_on,108,0,3,,,,,,,,,2,,,51,36
348990,time_signature,5400,1,0,2,4,24,8,,,,,,,,,
348990,note_on,108,0,1,,,,,,,,,0,,,75,49
349110,note_on,0,0,3,,,,,,,,,2,,,63,36
349110,note_on,120,0,3,,,,,,,,,2,,,51,0
349110,note_on,0,0,3,,,,,,,,,2,,,58,36
349110,note_on,0,0,3,,,,,,,,,2,,,67,36
349230,note_on,0,0,3,,,,,,,,,2,,,58,0
349230,note_on,240,0,1,,,,,,,,,0,,,75,0
349230,note_on,0,0,3,,,,,,,,,2,,,63,0
349230,note_on,0,0,1,,,,,,,,,0,,,87,101
349230,time_signature,240,1,0,1,4,24,8,,,,,,,,,
349230,note_on,120,0,3,,,,,,,,,2,,,67,0
349290,note_on,60,0,1,,,,,,,,,0,,,87,0
349290,note_on,0,0,1,,,,,,,,,0,,,84,101
349350,note_on,60,0,1,,,,,,,,,0,,,84,0
349350,note_on,0,0,1,,,,,,,,,0,,,79,127
349350,note_on,120,0,3,,,,,,,,,2,,,48,88
349350,time_signature,120,1,0,3,4,24,8,,,,,,,,,
349362,note_on,12,0,1,,,,,,,,,0,,,79,0
349362,note_on,12,0,3,,,,,,,,,2,,,48,0
349470,note_on,108,0,3,,,,,,,,,2,,,55,88
349470,note_on,0,0,3,,,,,,,,,2,,,60,88
349470,note_on,0,0,3,,,,,,,,,2,,,63,88
349470,note_on,108,0,1,,,,,,,,,0,,,79,127
349482,note_on,0,0,3,,,,,,,,,2,,,55,0
349482,note_on,0,0,3,,,,,,,,,2,,,60,0
349482,note_on,12,0,3,,,,,,,,,2,,,63,0
349482,note_on,12,0,1,,,,,,,,,0,,,79,0
349560,note_on,78,0,1,,,,,,,,,0,,,84,101
349575,note_on,0,0,1,,,,,,,,,0,,,86,101
349575,note_on,15,0,1,,,,,,,,,0,,,84,0
349590,note_on,15,0,1,,,,,,,,,0,,,86,0
349590,note_on,0,0,3,,,,,,,,,2,,,63,88
349590,note_on,108,0,3,,,,,,,,,2,,,55,88
349590,note_on,0,0,1,,,,,,,,,0,,,84,127
349590,note_on,0,0,3,,,,,,,,,2,,,60,88
349602,note_on,0,0,3,,,,,,,,,2,,,55,0
349602,note_on,0,0,3,,,,,,,,,2,,,60,0
349602,note_on,12,0,3,,,,,,,,,2,,,63,0
349710,note_on,120,0,1,,,,,,,,,0,,,84,0
349710,note_on,0,0,1,,,,,,,,,0,,,79,127
349710,note_on,108,0,3,,,,,,,,,2,,,48,88
349722,note_on,12,0,1,,,,,,,,,0,,,79,0
349722,note_on,12,0,3,,,,,,,,,2,,,48,0
349830,note_on,108,0,1,,,,,,,,,0,,,79,127
349830,note_on,0,0,3,,,,,,,,,2,,,63,88
349830,note_on,0,0,3,,,,,,,,,2,,,60,88
349830,note_on,108,0,3,,,,,,,,,2,,,55,88
349842,note_on,12,0,1,,,,,,,,,0,,,79,0
349842,note_on,12,0,3,,,,,,,,,2,,,63,0
349842,note_on,0,0,3,,,,,,,,,2,,,60,0
349842,note_on,0,0,3,,,,,,,,,2,,,55,0
349920,note_on,78,0,1,,,,,,,,,0,,,84,101
349935,note_on,15,0,1,,,,,,,,,0,,,84,0
349935,note_on,0,0,1,,,,,,,,,0,,,86,101
349950,note_on,0,0,1,,,,,,,,,0,,,84,127
349950,note_on,0,0,3,,,,,,,,,2,,,63,88
349950,note_on,15,0,1,,,,,,,,,0,,,86,0
349950,note_on,108,0,3,,,,,,,,,2,,,55,88
349950,note_on,0,0,3,,,,,,,,,2,,,60,88
349962,note_on,0,0,3,,,,,,,,,2,,,60,0
349962,note_on,0,0,3,,,,,,,,,2,,,55,0
349962,note_on,12,0,3,,,,,,,,,2,,,63,0
350070,note_on,108,0,3,,,,,,,,,2,,,48,88
350070,note_on,0,0,1,,,,,,,,,0,,,80,101
350070,note_on,120,0,1,,,,,,,,,0,,,84,0
350130,note_on,0,0,1,,,,,,,,,0,,,84,101
350130,note_on,60,0,1,,,,,,,,,0,,,80,0
350190,note_on,60,0,1,,,,,,,,,0,,,84,0
350190,note_on,0,0,3,,,,,,,,,2,,,60,101
350190,note_on,0,0,3,,,,,,,,,2,,,65,101
350190,note_on,0,0,1,,,,,,,,,0,,,86,114
350190,note_on,0,0,3,,,,,,,,,2,,,56,101
350190,note_on,120,0,3,,,,,,,,,2,,,48,0
350202,note_on,0,0,3,,,,,,,,,2,,,60,0
350202,note_on,12,0,3,,,,,,,,,2,,,65,0
350202,note_on,0,0,3,,,,,,,,,2,,,56,0
350250,note_on,0,0,1,,,,,,,,,0,,,84,114
350250,note_on,60,0,1,,,,,,,,,0,,,86,0
350310,note_on,0,0,1,,,,,,,,,0,,,87,101
350310,note_on,60,0,1,,,,,,,,,0,,,84,0
350310,note_on,0,0,3,,,,,,,,,2,,,60,88
350310,note_on,0,0,3,,,,,,,,,2,,,65,88
350310,note_on,108,0,3,,,,,,,,,2,,,56,88
350322,note_on,0,0,3,,,,,,,,,2,,,56,0
350322,note_on,0,0,3,,,,,,,,,2,,,60,0
350322,note_on,12,0,3,,,,,,,,,2,,,65,0
350370,note_on,60,0,1,,,,,,,,,0,,,87,0
350370,note_on,0,0,1,,,,,,,,,0,,,86,101
350430,note_on,108,0,3,,,,,,,,,2,,,48,88
350430,note_on,0,0,1,,,,,,,,,0,,,84,101
350430,note_on,60,0,1,,,,,,,,,0,,,86,0
350442,note_on,12,0,3,,,,,,,,,2,,,48,0
350550,note_on,0,0,3,,,,,,,,,2,,,60,88
350550,note_on,0,0,3,,,,,,,,,2,,,63,88
350550,note_on,108,0,3,,,,,,,,,2,,,55,88
350562,note_on,0,0,3,,,,,,,,,2,,,55,0
350562,note_on,0,0,3,,,,,,,,,2,,,60,0
350562,note_on,12,0,3,,,,,,,,,2,,,63,0
350670,note_on,0,0,1,,,,,,,,,0,,,87,101
350670,note_on,0,0,3,,,,,,,,,2,,,63,88
350670,note_on,0,0,3,,,,,,,,,2,,,60,88
350670,note_on,108,0,3,,,,,,,,,2,,,55,88
350670,note_on,240,0,1,,,,,,,,,0,,,84,0
350682,note_on,0,0,3,,,,,,,,,2,,,55,0
350682,note_on,0,0,3,,,,,,,,,2,,,60,0
350682,note_on,12,0,3,,,,,,,,,2,,,63,0
350730,note_on,60,0,1,,,,,,,,,0,,,87,0
350730,note_on,0,0,1,,,,,,,,,0,,,84,101
350790,note_on,108,0,3,,,,,,,,,2,,,48,88
350790,note_on,0,0,1,,,,,,,,,0,,,79,127
350790,note_on,60,0,1,,,,,,,,,0,,,84,0
350802,note_on,12,0,1,,,,,,,,,0,,,79,0
350802,note_on,12,0,3,,,,,,,,,2,,,48,0
350910,note_on,108,0,1,,,,,,,,,0,,,79,127
350910,note_on,108,0,3,,,,,,,,,2,,,55,88
350910,note_on,0,0,3,,,,,,,,,2,,,60,88
350910,note_on,0,0,3,,,,,,,,,2,,,63,88
350922,note_on,0,0,3,,,,,,,,,2,,,55,0
350922,note_on,12,0,1,,,,,,,,,0,,,79,0
350922,note_on,12,0,3,,,,,,,,,2,,,63,0
350922,note_on,0,0,3,,,,,,,,,2,,,60,0
351000,note_on,78,0,1,,,,,,,,,0,,,84,101
351015,note_on,0,0,1,,,,,,,,,0,,,86,101
351015,note_on,15,0,1,,,,,,,,,0,,,84,0
351030,note_on,0,0,3,,,,,,,,,2,,,63,88
351030,note_on,15,0,1,,,,,,,,,0,,,86,0
351030,note_on,108,0,3,,,,,,,,,2,,,55,88
351030,note_on,0,0,1,,,,,,,,,0,,,84,127
351030,note_on,0,0,3,,,,,,,,,2,,,60,88
351042,note_on,0,0,3,,,,,,,,,2,,,60,0
351042,note_on,0,0,3,,,,,,,,,2,,,55,0
351042,note_on,12,0,3,,,,,,,,,2,,,63,0
351150,note_on,120,0,1,,,,,,,,,0,,,84,0
351150,note_on,0,0,1,,,,,,,,,0,,,79,127
351150,note_on,108,0,3,,,,,,,,,2,,,48,88
351162,note_on,12,0,1,,,,,,,,,0,,,79,0
351162,note_on,12,0,3,,,,,,,,,2,,,48,0
351270,note_on,0,0,3,,,,,,,,,2,,,63,88
351270,note_on,0,0,3,,,,,,,,,2,,,60,88
351270,note_on,108,0,3,,,,,,,,,2,,,55,88
351270,note_on,108,0,1,,,,,,,,,0,,,79,127
351282,note_on,12,0,1,,,,,,,,,0,,,79,0
351282,note_on,12,0,3,,,,,,,,,2,,,63,0
351282,note_on,0,0,3,,,,,,,,,2,,,60,0
351282,note_on,0,0,3,,,,,,,,,2,,,55,0
351390,note_on,108,0,1,,,,,,,,,0,,,91,127
351390,note_on,108,0,3,,,,,,,,,2,,,55,88
351390,note_on,0,0,3,,,,,,,,,2,,,60,88
351390,note_on,0,0,3,,,,,,,,,2,,,63,88
351402,note_on,12,0,3,,,,,,,,,2,,,63,0
351402,note_on,0,0,3,,,,,,,,,2,,,60,0
351402,note_on,0,0,3,,,,,,,,,2,,,55,0
351510,note_on,0,0,1,,,,,,,,,0,,,79,101
351510,note_on,120,0,1,,,,,,,,,0,,,91,0
351510,note_on,108,0,3,,,,,,,,,2,,,43,88
351570,note_on,60,0,1,,,,,,,,,0,,,79,0
351570,note_on,0,0,1,,,,,,,,,0,,,86,101
351630,note_on,0,0,1,,,,,,,,,0,,,79,101
351630,note_on,60,0,1,,,,,,,,,0,,,86,0
351630,note_on,0,0,3,,,,,,,,,2,,,65,88
351630,note_on,0,0,3,,,,,,,,,2,,,59,88
351630,note_on,0,0,3,,,,,,,,,2,,,55,88
351630,note_on,120,0,3,,,,,,,,,2,,,43,0
351642,note_on,0,0,3,,,,,,,,,2,,,55,0
351642,note_on,0,0,3,,,,,,,,,2,,,59,0
351642,note_on,12,0,3,,,,,,,,,2,,,65,0
351690,note_on,60,0,1,,,,,,,,,0,,,79,0
351690,note_on,0,0,1,,,,,,,,,0,,,86,101
351750,note_on,60,0,1,,,,,,,,,0,,,86,0
351750,note_on,0,0,1,,,,,,,,,0,,,87,101
351750,note_on,0,0,3,,,,,,,,,2,,,59,88
351750,note_on,0,0,3,,,,,,,,,2,,,65,88
351750,note_on,108,0,3,,,,,,,,,2,,,55,88
351762,note_on,0,0,3,,,,,,,,,2,,,55,0
351762,note_on,0,0,3,,,,,,,,,2,,,59,0
351762,note_on,12,0,3,,,,,,,,,2,,,65,0
351810,note_on,60,0,1,,,,,,,,,0,,,87,0
351810,note_on,0,0,1,,,,,,,,,0,,,86,101
351870,note_on,0,0,1,,,,,,,,,0,,,84,101
351870,note_on,108,0,3,,,,,,,,,2,,,48,88
351870,note_on,60,0,1,,,,,,,,,0,,,86,0
351990,note_on,0,0,3,,,,,,,,,2,,,55,88
351990,note_on,0,0,3,,,,,,,,,2,,,60,88
351990,note_on,0,0,3,,,,,,,,,2,,,63,88
351990,note_on,120,0,3,,,,,,,,,2,,,48,0
352110,note_on,0,0,1,,,,,,,,,0,,,79,49
352110,note_on,240,0,1,,,,,,,,,0,,,84,0
352110,note_on,120,0,3,,,,,,,,,2,,,63,0
352110,note_on,0,0,3,,,,,,,,,2,,,60,0
352110,note_on,0,0,3,,,,,,,,,2,,,55,0
352170,note_on,0,0,1,,,,,,,,,0,,,75,49
352170,note_on,60,0,1,,,,,,,,,0,,,79,0
352230,note_on,0,0,1,,,,,,,,,0,,,70,75
352230,note_on,120,0,3,,,,,,,,,2,,,51,36
352230,note_on,60,0,1,,,,,,,,,0,,,75,0
352242,note_on,12,0,1,,,,,,,,,0,,,70,0
352350,note_on,0,0,3,,,,,,,,,2,,,67,36
352350,note_on,0,0,3,,,,,,,,,2,,,63,36
352350,note_on,0,0,3,,,,,,,,,2,,,58,36
352350,note_on,120,0,3,,,,,,,,,2,,,51,0
352350,note_on,108,0,1,,,,,,,,,0,,,70,75
352362,note_on,12,0,1,,,,,,,,,0,,,70,0
352362,note_on,12,0,3,,,,,,,,,2,,,67,0
352362,note_on,0,0,3,,,,,,,,,2,,,58,0
352362,note_on,0,0,3,,,,,,,,,2,,,63,0
352440,note_on,78,0,1,,,,,,,,,0,,,72,49
352455,note_on,0,0,1,,,,,,,,,0,,,74,49
352455,note_on,15,0,1,,,,,,,,,0,,,72,0
352470,note_on,15,0,1,,,,,,,,,0,,,74,0
352470,note_on,0,0,3,,,,,,,,,2,,,68,36
352470,note_on,108,0,3,,,,,,,,,2,,,58,36
352470,note_on,0,0,3,,,,,,,,,2,,,62,36
352470,note_on,0,0,1,,,,,,,,,0,,,72,75
352482,note_on,12,0,3,,,,,,,,,2,,,68,0
352482,note_on,0,0,3,,,,,,,,,2,,,58,0
352482,note_on,0,0,3,,,,,,,,,2,,,62,0
352590,note_on,120,0,1,,,,,,,,,0,,,72,0
352590,note_on,0,0,1,,,,,,,,,0,,,70,75
352590,note_on,108,0,3,,,,,,,,,2,,,51,36
352602,note_on,12,0,1,,,,,,,,,0,,,70,0
352710,note_on,0,0,3,,,,,,,,,2,,,58,36
352710,note_on,108,0,1,,,,,,,,,0,,,70,75
352710,note_on,0,0,3,,,,,,,,,2,,,67,36
352710,note_on,120,0,3,,,,,,,,,2,,,51,0
352710,note_on,0,0,3,,,,,,,,,2,,,63,36
352722,note_on,0,0,3,,,,,,,,,2,,,63,0
352722,note_on,12,0,1,,,,,,,,,0,,,70,0
352722,note_on,0,0,3,,,,,,,,,2,,,58,0
352722,note_on,12,0,3,,,,,,,,,2,,,67,0
352800,note_on,78,0,1,,,,,,,,,0,,,72,49
352815,note_on,15,0,1,,,,,,,,,0,,,72,0
352815,note_on,0,0,1,,,,,,,,,0,,,74,49
352830,note_on,0,0,3,,,,,,,,,2,,,68,36
352830,note_on,0,0,3,,,,,,,,,2,,,62,36
352830,note_on,108,0,3,,,,,,,,,2,,,58,36
352830,note_on,0,0,1,,,,,,,,,0,,,72,75
352830,note_on,15,0,1,,,,,,,,,0,,,74,0
352842,note_on,12,0,3,,,,,,,,,2,,,68,0
352842,note_on,0,0,3,,,,,,,,,2,,,62,0
352842,note_on,0,0,3,,,,,,,,,2,,,58,0
352950,note_on,0,0,1,,,,,,,,,0,,,70,75
352950,note_on,120,0,1,,,,,,,,,0,,,72,0
352950,note_on,108,0,3,,,,,,,,,2,,,51,36
352962,note_on,12,0,1,,,,,,,,,0,,,70,0
353070,note_on,5280,0,2,,,,,,,,,1,,,75,49
353070,note_on,120,0,3,,,,,,,,,2,,,51,0
353070,note_on,0,0,3,,,,,,,,,2,,,58,49
353070,note_on,0,0,3,,,,,,,,,2,,,63,49
353070,note_on,0,0,3,,,,,,,,,2,,,67,49
353070,note_on,108,0,1,,,,,,,,,0,,,79,62
353082,note_on,0,0,3,,,,,,,,,2,,,63,0
353082,note_on,12,0,3,,,,,,,,,2,,,67,0
353082,note_on,0,0,3,,,,,,,,,2,,,58,0
353190,note_on,108,0,3,,,,,,,,,2,,,60,62
353190,note_on,0,0,2,,,,,,,,,1,,,72,62
353190,note_on,120,0,2,,,,,,,,,1,,,75,0
353190,note_on,120,0,1,,,,,,,,,0,,,79,0
353190,note_on,0,0,1,,,,,,,,,0,,,82,75
353190,note_on,0,0,2,,,,,,,,,1,,,75,62
353190,note_on,0,0,3,,,,,,,,,2,,,63,62
353190,note_on,0,0,3,,,,,,,,,2,,,68,62
353202,note_on,12,0,3,,,,,,,,,2,,,68,0
353202,note_on,0,0,3,,,,,,,,,2,,,60,0
353202,note_on,0,0,3,,,,,,,,,2,,,63,0
353250,note_on,0,0,1,,,,,,,,,0,,,80,62
353250,note_on,60,0,1,,,,,,,,,0,,,82,0
353310,note_on,0,0,2,,,,,,,,,1,,,75,36
353310,note_on,0,0,1,,,,,,,,,0,,,79,49
353310,note_on,60,0,1,,,,,,,,,0,,,80,0
353310,note_on,120,0,2,,,,,,,,,1,,,75,0
353310,note_on,0,0,2,,,,,,,,,1,,,70,36
353310,note_on,0,0,2,,,,,,,,,1,,,72,0
353310,note_on,108,0,3,,,,,,,,,2,,,51,36
353430,note_on,0,0,3,,,,,,,,,2,,,67,36
353430,note_on,0,0,3,,,,,,,,,2,,,63,36
353430,note_on,0,0,3,,,,,,,,,2,,,58,36
353430,note_on,120,0,3,,,,,,,,,2,,,51,0
353442,note_on,0,0,3,,,,,,,,,2,,,58,0
353442,note_on,0,0,3,,,,,,,,,2,,,63,0
353442,note_on,12,0,3,,,,,,,,,2,,,67,0
353550,note_on,0,0,1,,,,,,,,,0,,,91,49
353550,note_on,240,0,1,,,,,,,,,0,,,79,0
353550,note_on,0,0,3,,,,,,,,,2,,,67,36
353550,note_on,0,0,3,,,,,,,,,2,,,63,36
353550,note_on,108,0,3,,,,,,,,,2,,,58,36
353550,note_on,240,0,2,,,,,,,,,1,,,75,0
353550,note_on,0,0,2,,,,,,,,,1,,,70,0
353562,note_on,12,0,3,,,,,,,,,2,,,67,0
353562,note_on,0,0,3,,,,,,,,,2,,,58,0
353562,note_on,0,0,3,,,,,,,,,2,,,63,0
353610,note_on,0,0,1,,,,,,,,,0,,,87,49
353610,note_on,60,0,1,,,,,,,,,0,,,91,0
353670,note_on,60,0,1,,,,,,,,,0,,,87,0
353670,note_on,108,0,3,,,,,,,,,2,,,51,36
353670,note_on,0,0,1,,,,,,,,,0,,,82,75
353682,note_on,12,0,1,,,,,,,,,0,,,82,0
353790,note_on,0,0,3,,,,,,,,,2,,,67,36
353790,note_on,0,0,3,,,,,,,,,2,,,63,36
353790,note_on,120,0,3,,,,,,,,,2,,,51,0
353790,note_on,0,0,3,,,,,,,,,2,,,58,36
353790,note_on,108,0,1,,,,,,,,,0,,,82,75
353802,note_on,12,0,1,,,,,,,,,0,,,82,0
353802,note_on,12,0,3,,,,,,,,,2,,,67,0
353802,note_on,0,0,3,,,,,,,,,2,,,63,0
353802,note_on,0,0,3,,,,,,,,,2,,,58,0
353880,note_on,78,0,1,,,,,,,,,0,,,84,49
353895,note_on,15,0,1,,,,,,,,,0,,,84,0
353895,note_on,0,0,1,,,,,,,,,0,,,86,49
353910,note_on,15,0,1,,,,,,,,,0,,,86,0
353910,note_on,108,0,3,,,,,,,,,2,,,58,36
353910,note_on,0,0,3,,,,,,,,,2,,,62,36
353910,note_on,0,0,3,,,,,,,,,2,,,68,36
353910,note_on,0,0,1,,,,,,,,,0,,,84,75
353922,note_on,12,0,3,,,,,,,,,2,,,68,0
353922,note_on,0,0,3,,,,,,,,,2,,,62,0
353922,note_on,0,0,3,,,,,,,,,2,,,58,0
354030,note_on,108,0,3,,,,,,,,,2,,,51,36
354030,note_on,120,0,1,,,,,,,,,0,,,84,0
354030,note_on,0,0,1,,,,,,,,,0,,,82,75
354042,note_on,12,0,1,,,,,,,,,0,,,82,0
354150,note_on,0,0,3,,,,,,,,,2,,,58,36
354150,note_on,0,0,3,,,,,,,,,2,,,67,36
354150,note_on,120,0,3,,,,,,,,,2,,,51,0
354150,note_on,0,0,3,,,,,,,,,2,,,63,36
354150,note_on,108,0,1,,,,,,,,,0,,,82,75
354162,note_on,12,0,1,,,,,,,,,0,,,82,0
354162,note_on,12,0,3,,,,,,,,,2,,,67,0
354162,note_on,0,0,3,,,,,,,,,2,,,63,0
354162,note_on,0,0,3,,,,,,,,,2,,,58,0
354240,note_on,78,0,1,,,,,,,,,0,,,84,49
354255,note_on,0,0,1,,,,,,,,,0,,,86,49
354255,note_on,15,0,1,,,,,,,,,0,,,84,0
354270,note_on,15,0,1,,,,,,,,,0,,,86,0
354270,note_on,0,0,1,,,,,,,,,0,,,84,75
354270,note_on,108,0,3,,,,,,,,,2,,,58,36
354270,note_on,0,0,3,,,,,,,,,2,,,62,36
354270,note_on,0,0,3,,,,,,,,,2,,,68,36
354282,note_on,12,0,3,,,,,,,,,2,,,68,0
354282,note_on,0,0,3,,,,,,,,,2,,,58,0
354282,note_on,0,0,3,,,,,,,,,2,,,62,0
354390,note_on,108,0,3,,,,,,,,,2,,,51,36
354390,note_on,0,0,1,,,,,,,,,0,,,79,75
354390,note_on,120,0,1,,,,,,,,,0,,,84,0
354402,note_on,12,0,1,,,,,,,,,0,,,79,0
354510,note_on,120,0,3,,,,,,,,,2,,,51,0
354510,note_on,0,0,3,,,,,,,,,2,,,58,36
354510,note_on,0,0,3,,,,,,,,,2,,,67,36
354510,note_on,108,0,1,,,,,,,,,0,,,79,75
354510,note_on,0,0,3,,,,,,,,,2,,,63,36
354522,note_on,12,0,1,,,,,,,,,0,,,79,0
354522,note_on,0,0,3,,,,,,,,,2,,,58,0
354522,note_on,0,0,3,,,,,,,,,2,,,63,0
354522,note_on,12,0,3,,,,,,,,,2,,,67,0
354630,note_on,0,0,3,,,,,,,,,2,,,62,36
354630,note_on,108,0,3,,,,,,,,,2,,,58,36
354630,note_on,108,0,1,,,,,,,,,0,,,77,75
354630,note_on,0,0,3,,,,,,,,,2,,,68,36
354642,note_on,12,0,3,,,,,,,,,2,,,68,0
354642,note_on,0,0,3,,,,,,,,,2,,,62,0
354642,note_on,0,0,3,,,,,,,,,2,,,58,0
354642,note_on,12,0,1,,,,,,,,,0,,,77,0
354750,note_on,108,0,1,,,,,,,,,0,,,75,49
354750,note_on,108,0,3,,,,,,,,,2,,,51,36
354750,time_signature,5400,1,0,2,4,24,8,,,,,,,,,
354870,note_on,0,0,3,,,,,,,,,2,,,67,36
354870,note_on,0,0,3,,,,,,,,,2,,,63,36
354870,note_on,0,0,3,,,,,,,,,2,,,58,36
354870,note_on,120,0,3,,,,,,,,,2,,,51,0
354990,time_signature,240,1,0,1,4,24,8,,,,,,,,,
354990,note_on,120,0,3,,,,,,,,,2,,,67,0
354990,note_on,0,0,3,,,,,,,,,2,,,58,0
354990,note_on,0,0,3,,,,,,,,,2,,,63,0
354990,note_on,240,0,1,,,,,,,,,0,,,75,0
354990,note_on,0,0,1,,,,,,,,,0,,,82,75
355110,note_on,0,0,1,,,,,,,,,0,,,91,75
355110,note_on,0,0,1,,,,,,,,,0,,,79,75
355110,note_on,120,0,1,,,,,,,,,0,,,82,0
355110,note_on,120,0,3,,,,,,,,,2,,,51,62
355110,time_signature,120,1,0,3,4,24,8,,,,,,,,,
355230,note_on,0,0,1,,,,,,,,,0,,,91,101
355230,note_on,0,0,1,,,,,,,,,0,,,79,0
355230,note_on,120,0,1,,,,,,,,,0,,,91,0
355230,note_on,120,0,3,,,,,,,,,2,,,51,0
355230,note_on,0,0,3,,,,,,,,,2,,,58,62
355230,note_on,0,0,3,,,,,,,,,2,,,63,62
355230,note_on,0,0,3,,,,,,,,,2,,,67,62
355230,note_on,0,0,1,,,,,,,,,0,,,79,93
355236,note_on,6,0,1,,,,,,,,,0,,,91,0
355236,note_on,0,0,1,,,,,,,,,0,,,79,0
355242,note_on,12,0,3,,,,,,,,,2,,,67,0
355242,note_on,0,0,3,,,,,,,,,2,,,63,0
355242,note_on,0,0,3,,,,,,,,,2,,,58,0
355290,note_on,0,0,1,,,,,,,,,0,,,91,127
355290,note_on,54,0,1,,,,,,,,,0,,,79,111
355296,note_on,0,0,1,,,,,,,,,0,,,79,0
355296,note_on,6,0,1,,,,,,,,,0,,,91,0
355350,note_on,0,0,1,,,,,,,,,0,,,92,75
355350,note_on,54,0,1,,,,,,,,,0,,,80,75
355350,note_on,0,0,3,,,,,,,,,2,,,68,62
355350,note_on,0,0,3,,,,,,,,,2,,,63,62
355350,note_on,108,0,3,,,,,,,,,2,,,60,62
355362,note_on,0,0,3,,,,,,,,,2,,,60,0
355362,note_on,0,0,3,,,,,,,,,2,,,63,0
355362,note_on,12,0,3,,,,,,,,,2,,,68,0
355470,note_on,120,0,1,,,,,,,,,0,,,92,0
355470,note_on,0,0,1,,,,,,,,,0,,,80,0
355470,note_on,0,0,1,,,,,,,,,0,,,79,75
355470,note_on,0,0,1,,,,,,,,,0,,,91,75
355470,note_on,108,0,3,,,,,,,,,2,,,51,62
355590,note_on,0,0,1,,,,,,,,,0,,,91,127
355590,note_on,0,0,1,,,,,,,,,0,,,79,111
355590,note_on,0,0,1,,,,,,,,,0,,,79,0
355590,note_on,120,0,1,,,,,,,,,0,,,91,0
355590,note_on,120,0,3,,,,,,,,,2,,,51,0
355590,note_on,0,0,3,,,,,,,,,2,,,58,62
355590,note_on,0,0,3,,,,,,,,,2,,,63,62
355590,note_on,0,0,3,,,,,,,,,2,,,67,62
355596,note_on,0,0,1,,,,,,,,,0,,,79,0
355596,note_on,6,0,1,,,,,,,,,0,,,91,0
355602,note_on,0,0,3,,,,,,,,,2,,,58,0
355602,note_on,12,0,3,,,,,,,,,2,,,67,0
355602,note_on,0,0,3,,,,,,,,,2,,,63,0
355650,note_on,0,0,1,,,,,,,,,0,,,91,101
355650,note_on,54,0,1,,,,,,,,,0,,,79,93
355656,note_on,6,0,1,,,,,,,,,0,,,91,0
355656,note_on,0,0,1,,,,,,,,,0,,,79,0
355710,note_on,0,0,1,,,,,,,,,0,,,89,75
355710,note_on,54,0,1,,,,,,,,,0,,,77,75
355710,note_on,0,0,3,,,,,,,,,2,,,63,62
355710,note_on,108,0,3,,,,,,,,,2,,,56,62
355710,note_on,0,0,3,,,,,,,,,2,,,65,62
355722,note_on,0,0,3,,,,,,,,,2,,,63,0
355722,note_on,0,0,3,,,,,,,,,2,,,56,0
355722,note_on,12,0,3,,,,,,,,,2,,,65,0
355830,note_on,0,0,1,,,,,,,,,0,,,87,75
355830,note_on,0,0,1,,,,,,,,,0,,,75,75
355830,note_on,0,0,1,,,,,,,,,0,,,77,0
355830,note_on,120,0,1,,,,,,,,,0,,,89,0
355830,note_on,108,0,3,,,,,,,,,2,,,51,62
355950,note_on,0,0,3,,,,,,,,,2,,,63,62
355950,note_on,120,0,1,,,,,,,,,0,,,87,0
355950,note_on,120,0,3,,,,,,,,,2,,,51,0
355950,note_on,0,0,3,,,,,,,,,2,,,55,62
355950,note_on,0,0,1,,,,,,,,,0,,,75,75
355950,note_on,0,0,1,,,,,,,,,0,,,87,75
355950,note_on,0,0,1,,,,,,,,,0,,,75,0
355962,note_on,12,0,3,,,,,,,,,2,,,63,0
355962,note_on,0,0,3,,,,,,,,,2,,,55,0
356010,note_on,0,0,1,,,,,,,,,0,,,75,0
356010,note_on,60,0,1,,,,,,,,,0,,,87,0
356010,note_on,0,0,1,,,,,,,,,0,,,75,75
356010,note_on,0,0,1,,,,,,,,,0,,,87,75
356070,note_on,0,0,3,,,,,,,,,2,,,63,62
356070,note_on,0,0,3,,,,,,,,,2,,,65,62
356070,note_on,108,0,3,,,,,,,,,2,,,56,62
356070,note_on,60,0,1,,,,,,,,,0,,,87,0
356070,note_on,0,0,1,,,,,,,,,0,,,75,0
356070,note_on,0,0,1,,,,,,,,,0,,,77,75
356070,note_on,0,0,1,,,,,,,,,0,,,89,75
356082,note_on,0,0,3,,,,,,,,,2,,,56,0
356082,note_on,12,0,3,,,,,,,,,2,,,65,0
356082,note_on,0,0,3,,,,,,,,,2,,,63,0
356190,note_on,108,0,3,,,,,,,,,2,,,51,62
356190,note_on,0,0,1,,,,,,,,,0,,,91,75
356190,note_on,0,0,1,,,,,,,,,0,,,79,75
356190,note_on,0,0,1,,,,,,,,,0,,,77,0
356190,note_on,120,0,1,,,,,,,,,0,,,89,0
356310,note_on,0,0,3,,,,,,,,,2,,,67,62
356310,note_on,0,0,3,,,,,,,,,2,,,63,62
356310,note_on,0,0,3,,,,,,,,,2,,,58,62
356310,note_on,120,0,3,,,,,,,,,2,,,51,0
356322,note_on,0,0,3,,,,,,,,,2,,,58,0
356322,note_on,0,0,3,,,,,,,,,2,,,63,0
356322,note_on,12,0,3,,,,,,,,,2,,,67,0
356430,note_on,0,0,3,,,,,,,,,2,,,67,62
356430,note_on,0,0,3,,,,,,,,,2,,,63,62
356430,note_on,108,0,3,,,,,,,,,2,,,58,62
356430,note_on,0,0,1,,,,,,,,,0,,,92,75
356430,note_on,240,0,1,,,,,,,,,0,,,91,0
356430,note_on,0,0,1,,,,,,,,,0,,,80,75
356430,note_on,0,0,1,,,,,,,,,0,,,79,0
356442,note_on,0,0,3,,,,,,,,,2,,,63,0
356442,note_on,12,0,3,,,,,,,,,2,,,67,0
356442,note_on,0,0,3,,,,,,,,,2,,,58,0
356490,note_on,0,0,1,,,,,,,,,0,,,80,0
356490,note_on,0,0,1,,,,,,,,,0,,,79,75
356490,note_on,60,0,1,,,,,,,,,0,,,92,0
356490,note_on,0,0,1,,,,,,,,,0,,,91,75
356496,note_on,6,0,1,,,,,,,,,0,,,91,0
356496,note_on,0,0,1,,,,,,,,,0,,,79,0
356550,note_on,0,0,1,,,,,,,,,0,,,89,75
356550,note_on,54,0,1,,,,,,,,,0,,,77,75
356550,note_on,108,0,3,,,,,,,,,2,,,46,62
356670,note_on,0,0,3,,,,,,,,,2,,,58,62
356670,note_on,0,0,3,,,,,,,,,2,,,62,62
356670,note_on,0,0,1,,,,,,,,,0,,,89,101
356670,note_on,0,0,3,,,,,,,,,2,,,65,62
356670,note_on,120,0,1,,,,,,,,,0,,,89,0
356670,note_on,120,0,3,,,,,,,,,2,,,46,0
356670,note_on,0,0,1,,,,,,,,,0,,,77,0
356670,note_on,0,0,1,,,,,,,,,0,,,77,93
356676,note_on,0,0,1,,,,,,,,,0,,,77,0
356676,note_on,6,0,1,,,,,,,,,0,,,89,0
356682,note_on,12,0,3,,,,,,,,,2,,,65,0
356682,note_on,0,0,3,,,,,,,,,2,,,58,0
356682,note_on,0,0,3,,,,,,,,,2,,,62,0
356730,note_on,0,0,1,,,,,,,,,0,,,89,101
356730,note_on,54,0,1,,,,,,,,,0,,,77,93
356736,note_on,6,0,1,,,,,,,,,0,,,89,0
356736,note_on,0,0,1,,,,,,,,,0,,,77,0
356790,note_on,0,0,1,,,,,,,,,0,,,88,75
356790,note_on,54,0,1,,,,,,,,,0,,,76,75
356790,note_on,108,0,3,,,,,,,,,2,,,58,62
356790,note_on,0,0,3,,,,,,,,,2,,,61,62
356790,note_on,0,0,3,,,,,,,,,2,,,64,62
356802,note_on,12,0,3,,,,,,,,,2,,,64,0
356802,note_on,0,0,3,,,,,,,,,2,,,58,0
356802,note_on,0,0,3,,,,,,,,,2,,,61,0
356910,note_on,0,0,1,,,,,,,,,0,,,89,75
356910,note_on,0,0,1,,,,,,,,,0,,,77,75
356910,note_on,108,0,3,,,,,,,,,2,,,46,62
356910,note_on,0,0,1,,,,,,,,,0,,,76,0
356910,note_on,120,0,1,,,,,,,,,0,,,88,0
357030,note_on,0,0,1,,,,,,,,,0,,,89,88
357030,note_on,0,0,1,,,,,,,,,0,,,77,88
357030,note_on,0,0,1,,,,,,,,,0,,,77,0
357030,note_on,120,0,1,,,,,,,,,0,,,89,0
357030,note_on,120,0,3,,,,,,,,,2,,,46,0
357030,note_on,0,0,3,,,,,,,,,2,,,58,75
357030,note_on,0,0,3,,,,,,,,,2,,,65,75
357030,note_on,0,0,3,,,,,,,,,2,,,62,75
357042,note_on,12,0,3,,,,,,,,,2,,,65,0
357042,note_on,0,0,3,,,,,,,,,2,,,62,0
357042,note_on,0,0,3,,,,,,,,,2,,,58,0
357090,note_on,0,0,1,,,,,,,,,0,,,89,88
357090,note_on,0,0,1,,,,,,,,,0,,,77,88
357090,note_on,60,0,1,,,,,,,,,0,,,89,0
357090,note_on,0,0,1,,,,,,,,,0,,,77,0
357150,note_on,108,0,3,,,,,,,,,2,,,58,88
357150,note_on,0,0,3,,,,,,,,,2,,,63,88
357150,note_on,60,0,1,,,,,,,,,0,,,89,0
357150,note_on,0,0,1,,,,,,,,,0,,,77,0
357150,note_on,0,0,1,,,,,,,,,0,,,79,101
357150,note_on,0,0,1,,,,,,,,,0,,,91,101
357150,note_on,0,0,3,,,,,,,,,2,,,67,88
357162,note_on,0,0,3,,,,,,,,,2,,,63,0
357162,note_on,0,0,3,,,,,,,,,2,,,58,0
357162,note_on,12,0,3,,,,,,,,,2,,,67,0
357270,note_on,120,0,1,,,,,,,,,0,,,91,0
357270,note_on,0,0,1,,,,,,,,,0,,,94,101
357270,note_on,0,0,1,,,,,,,,,0,,,79,0
357270,note_on,108,0,3,,,,,,,,,2,,,46,88
357270,note_on,0,0,1,,,,,,,,,0,,,82,101
357390,note_on,120,0,3,,,,,,,,,2,,,46,0
357390,note_on,0,0,3,,,,,,,,,2,,,58,75
357390,note_on,0,0,3,,,,,,,,,2,,,62,75
357390,note_on,0,0,3,,,,,,,,,2,,,65,75
357390,note_on,0,0,3,,,,,,,,,2,,,68,75
357390,note_on,0,0,1,,,,,,,,,0,,,92,88
357390,note_on,0,0,1,,,,,,,,,0,,,80,88
357390,note_on,0,0,1,,,,,,,,,0,,,82,0
357390,note_on,120,0,1,,,,,,,,,0,,,94,0
357402,note_on,12,0,1,,,,,,,,,0,,,92,0
357402,note_on,0,0,1,,,,,,,,,0,,,80,0
357402,note_on,12,0,3,,,,,,,,,2,,,68,0
357402,note_on,0,0,3,,,,,,,,,2,,,58,0
357402,note_on,0,0,3,,,,,,,,,2,,,62,0
357402,note_on,0,0,3,,,,,,,,,2,,,65,0
357510,note_on,108,0,3,,,,,,,,,2,,,58,62
357510,note_on,0,0,1,,,,,,,,,0,,,91,127
357510,note_on,108,0,1,,,,,,,,,0,,,79,111
357510,note_on,0,0,3,,,,,,,,,2,,,63,62
357510,note_on,0,0,3,,,,,,,,,2,,,67,62
357514,note_on,4,0,1,,,,,,,,,0,,,91,0
357514,note_on,0,0,1,,,,,,,,,0,,,79,0
357522,note_on,12,0,3,,,,,,,,,2,,,67,0
357522,note_on,0,0,3,,,,,,,,,2,,,58,0
357522,note_on,0,0,3,,,,,,,,,2,,,63,0
357630,note_on,0,0,1,,,,,,,,,0,,,89,75
357630,note_on,116,0,1,,,,,,,,,0,,,77,75
357630,note_on,108,0,3,,,,,,,,,2,,,46,62
357630,time_signature,2520,1,0,2,4,24,8,,,,,,,,,
357750,note_on,0,0,3,,,,,,,,,2,,,65,62
357750,note_on,0,0,3,,,,,,,,,2,,,62,62
357750,note_on,0,0,3,,,,,,,,,2,,,58,62
357750,note_on,120,0,3,,,,,,,,,2,,,46,0
357870,note_on,120,0,3,,,,,,,,,2,,,65,0
357870,note_on,0,0,1,,,,,,,,,0,,,77,0
357870,note_on,0,0,1,,,,,,,,,0,,,82,75
357870,note_on,0,0,3,,,,,,,,,2,,,58,0
357870,note_on,0,0,3,,,,,,,,,2,,,62,0
357870,note_on,240,0,1,,,,,,,,,0,,,89,0
357870,time_signature,240,1,0,1,4,24,8,,,,,,,,,
357990,note_on,120,0,3,,,,,,,,,2,,,51,62
357990,time_signature,120,1,0,3,4,24,8,,,,,,,,,
357990,note_on,0,0,1,,,,,,,,,0,,,79,75
357990,note_on,120,0,1,,,,,,,,,0,,,82,0
357990,note_on,0,0,1,,,,,,,,,0,,,91,75
358110,note_on,120,0,1,,,,,,,,,0,,,91,0
358110,note_on,0,0,1,,,,,,,,,0,,,79,0
358110,note_on,0,0,1,,,,,,,,,0,,,79,93
358110,note_on,0,0,1,,,,,,,,,0,,,91,101
358110,note_on,0,0,3,,,,,,,,,2,,,67,62
358110,note_on,0,0,3,,,,,,,,,2,,,63,62
358110,note_on,0,0,3,,,,,,,,,2,,,58,62
358110,note_on,120,0,3,,,,,,,,,2,,,51,0
358116,note_on,6,0,1,,,,,,,,,0,,,91,0
358116,note_on,0,0,1,,,,,,,,,0,,,79,0
358122,note_on,12,0,3,,,,,,,,,2,,,67,0
358122,note_on,0,0,3,,,,,,,,,2,,,58,0
358122,note_on,0,0,3,,,,,,,,,2,,,63,0
358170,note_on,54,0,1,,,,,,,,,0,,,79,111
358170,note_on,0,0,1,,,,,,,,,0,,,91,127
358176,note_on,6,0,1,,,,,,,,,0,,,91,0
358176,note_on,0,0,1,,,,,,,,,0,,,79,0
358230,note_on,0,0,3,,,,,,,,,2,,,68,62
358230,note_on,54,0,1,,,,,,,,,0,,,80,75
358230,note_on,0,0,1,,,,,,,,,0,,,92,75
358230,note_on,0,0,3,,,,,,,,,2,,,63,62
358230,note_on,108,0,3,,,,,,,,,2,,,60,62
358242,note_on,0,0,3,,,,,,,,,2,,,60,0
358242,note_on,0,0,3,,,,,,,,,2,,,63,0
358242,note_on,12,0,3,,,,,,,,,2,,,68,0
358350,note_on,108,0,3,,,,,,,,,2,,,51,62
358350,note_on,0,0,1,,,,,,,,,0,,,80,0
358350,note_on,120,0,1,,,,,,,,,0,,,92,0
358350,note_on,0,0,1,,,,,,,,,0,,,79,75
358350,note_on,0,0,1,,,,,,,,,0,,,91,75
358470,note_on,0,0,1,,,,,,,,,0,,,79,111
358470,note_on,0,0,3,,,,,,,,,2,,,67,62
358470,note_on,120,0,3,,,,,,,,,2,,,51,0
358470,note_on,120,0,1,,,,,,,,,0,,,91,0
358470,note_on,0,0,1,,,,,,,,,0,,,79,0
358470,note_on,0,0,1,,,,,,,,,0,,,91,127
358470,note_on,0,0,3,,,,,,,,,2,,,63,62
358470,note_on,0,0,3,,,,,,,,,2,,,58,62
358476,note_on,6,0,1,,,,,,,,,0,,,91,0
358476,note_on,0,0,1,,,,,,,,,0,,,79,0
358482,note_on,0,0,3,,,,,,,,,2,,,58,0
358482,note_on,0,0,3,,,,,,,,,2,,,63,0
358482,note_on,12,0,3,,,,,,,,,2,,,67,0
358530,note_on,0,0,1,,,,,,,,,0,,,91,101
358530,note_on,54,0,1,,,,,,,,,0,,,79,93
358536,note_on,0,0,1,,,,,,,,,0,,,79,0
358536,note_on,6,0,1,,,,,,,,,0,,,91,0
358590,note_on,108,0,3,,,,,,,,,2,,,56,62
358590,note_on,54,0,1,,,,,,,,,0,,,77,75
358590,note_on,0,0,3,,,,,,,,,2,,,65,62
358590,note_on,0,0,1,,,,,,,,,0,,,89,75
358590,note_on,0,0,3,,,,,,,,,2,,,63,62
358602,note_on,12,0,3,,,,,,,,,2,,,65,0
358602,note_on,0,0,3,,,,,,,,,2,,,56,0
358602,note_on,0,0,3,,,,,,,,,2,,,63,0
358710,note_on,0,0,1,,,,,,,,,0,,,75,75
358710,note_on,0,0,1,,,,,,,,,0,,,87,75
358710,note_on,120,0,1,,,,,,,,,0,,,89,0
358710,note_on,0,0,1,,,,,,,,,0,,,77,0
358710,note_on,108,0,3,,,,,,,,,2,,,51,62
358830,note_on,120,0,1,,,,,,,,,0,,,87,0
358830,note_on,0,0,3,,,,,,,,,2,,,55,62
358830,note_on,0,0,3,,,,,,,,,2,,,63,62
358830,note_on,0,0,1,,,,,,,,,0,,,75,0
358830,note_on,0,0,1,,,,,,,,,0,,,75,75
358830,note_on,0,0,1,,,,,,,,,0,,,87,75
358830,note_on,120,0,3,,,,,,,,,2,,,51,0
358842,note_on,12,0,3,,,,,,,,,2,,,63,0
358842,note_on,0,0,3,,,,,,,,,2,,,55,0
358890,note_on,0,0,1,,,,,,,,,0,,,75,75
358890,note_on,60,0,1,,,,,,,,,0,,,87,0
358890,note_on,0,0,1,,,,,,,,,0,,,75,0
358890,note_on,0,0,1,,,,,,,,,0,,,87,75
358950,note_on,0,0,1,,,,,,,,,0,,,75,0
358950,note_on,0,0,3,,,,,,,,,2,,,63,62
358950,note_on,0,0,3,,,,,,,,,2,,,65,62
358950,note_on,0,0,1,,,,,,,,,0,,,89,75
358950,note_on,0,0,1,,,,,,,,,0,,,77,75
358950,note_on,60,0,1,,,,,,,,,0,,,87,0
358950,note_on,108,0,3,,,,,,,,,2,,,56,62
358962,note_on,12,0,3,,,,,,,,,2,,,65,0
358962,note_on,0,0,3,,,,,,,,,2,,,56,0
358962,note_on,0,0,3,,,,,,,,,2,,,63,0
359070,note_on,0,0,1,,,,,,,,,0,,,77,0
359070,note_on,0,0,1,,,,,,,,,0,,,91,75
359070,note_on,0,0,1,,,,,,,,,0,,,79,75
359070,note_on,108,0,3,,,,,,,,,2,,,51,62
359070,note_on,120,0,1,,,,,,,,,0,,,89,0
359190,note_on,0,0,3,,,,,,,,,2,,,67,62
359190,note_on,0,0,3,,,,,,,,,2,,,63,62
359190,note_on,0,0,3,,,,,,,,,2,,,58,62
359190,note_on,120,0,3,,,,,,,,,2,,,51,0
359202,note_on,0,0,3,,,,,,,,,2,,,58,0
359202,note_on,0,0,3,,,,,,,,,2,,,63,0
359202,note_on,12,0,3,,,,,,,,,2,,,67,0
359310,note_on,0,0,3,,,,,,,,,2,,,63,62
359310,note_on,240,0,1,,,,,,,,,0,,,91,0
359310,note_on,0,0,1,,,,,,,,,0,,,79,0
359310,note_on,0,0,1,,,,,,,,,0,,,80,75
359310,note_on,0,0,1,,,,,,,,,0,,,92,75
359310,note_on,108,0,3,,,,,,,,,2,,,58,62
359310,note_on,0,0,3,,,,,,,,,2,,,67,62
359322,note_on,12,0,3,,,,,,,,,2,,,67,0
359322,note_on,0,0,3,,,,,,,,,2,,,63,0
359322,note_on,0,0,3,,,,,,,,,2,,,58,0
359370,note_on,0,0,1,,,,,,,,,0,,,80,0
359370,note_on,0,0,1,,,,,,,,,0,,,91,75
359370,note_on,60,0,1,,,,,,,,,0,,,92,0
359370,note_on,0,0,1,,,,,,,,,0,,,79,75
359376,note_on,0,0,1,,,,,,,,,0,,,79,0
359376,note_on,6,0,1,,,,,,,,,0,,,91,0
359430,note_on,54,0,1,,,,,,,,,0,,,77,75
359430,note_on,0,0,1,,,,,,,,,0,,,89,75
359430,note_on,108,0,3,,,,,,,,,2,,,46,62
359550,note_on,0,0,1,,,,,,,,,0,,,89,101
359550,note_on,120,0,1,,,,,,,,,0,,,89,0
359550,note_on,0,0,1,,,,,,,,,0,,,77,0
359550,note_on,0,0,1,,,,,,,,,0,,,77,93
359550,note_on,0,0,3,,,,,,,,,2,,,58,62
359550,note_on,0,0,3,,,,,,,,,2,,,62,62
359550,note_on,0,0,3,,,,,,,,,2,,,65,62
359550,note_on,120,0,3,,,,,,,,,2,,,46,0
359556,note_on,0,0,1,,,,,,,,,0,,,77,0
359556,note_on,6,0,1,,,,,,,,,0,,,89,0
359562,note_on,12,0,3,,,,,,,,,2,,,65,0
359562,note_on,0,0,3,,,,,,,,,2,,,62,0
359562,note_on,0,0,3,,,,,,,,,2,,,58,0
359610,note_on,0,0,1,,,,,,,,,0,,,89,101
359610,note_on,54,0,1,,,,,,,,,0,,,77,93
359616,note_on,6,0,1,,,,,,,,,0,,,89,0
359616,note_on,0,0,1,,,,,,,,,0,,,77,0
359670,note_on,0,0,3,,,,,,,,,2,,,64,62
359670,note_on,0,0,3,,,,,,,,,2,,,61,62
359670,note_on,108,0,3,,,,,,,,,2,,,58,62
359670,note_on,0,0,1,,,,,,,,,0,,,88,75
359670,note_on,54,0,1,,,,,,,,,0,,,76,75
359682,note_on,12,0,3,,,,,,,,,2,,,64,0
359682,note_on,0,0,3,,,,,,,,,2,,,58,0
359682,note_on,0,0,3,,,,,,,,,2,,,61,0
359790,note_on,0,0,1,,,,,,,,,0,,,89,75
359790,note_on,0,0,1,,,,,,,,,0,,,76,0
359790,note_on,0,0,1,,,,,,,,,0,,,77,75
359790,note_on,108,0,3,,,,,,,,,2,,,46,62
359790,note_on,120,0,1,,,,,,,,,0,,,88,0
359910,note_on,0,0,1,,,,,,,,,0,,,77,88
359910,note_on,0,0,1,,,,,,,,,0,,,77,0
359910,note_on,0,0,3,,,,,,,,,2,,,58,75
359910,note_on,0,0,1,,,,,,,,,0,,,89,88
359910,note_on,120,0,3,,,,,,,,,2,,,46,0
359910,note_on,120,0,1,,,,,,,,,0,,,89,0
359910,note_on,0,0,3,,,,,,,,,2,,,62,75
359910,note_on,0,0,3,,,,,,,,,2,,,65,75
359922,note_on,12,0,3,,,,,,,,,2,,,65,0
359922,note_on,0,0,3,,,,,,,,,2,,,62,0
359922,note_on,0,0,3,,,,,,,,,2,,,58,0
359970,note_on,60,0,1,,,,,,,,,0,,,89,0
359970,note_on,0,0,1,,,,,,,,,0,,,77,0
359970,note_on,0,0,1,,,,,,,,,0,,,77,88
359970,note_on,0,0,1,,,,,,,,,0,,,89,88
360030,note_on,0,0,3,,,,,,,,,2,,,67,88
360030,note_on,0,0,3,,,,,,,,,2,,,63,88
360030,note_on,0,0,1,,,,,,,,,0,,,79,101
360030,note_on,0,0,1,,,,,,,,,0,,,77,0
360030,note_on,60,0,1,,,,,,,,,0,,,89,0
360030,note_on,108,0,3,,,,,,,,,2,,,58,88
360030,note_on,0,0,1,,,,,,,,,0,,,91,101
360042,note_on,0,0,3,,,,,,,,,2,,,63,0
360042,note_on,0,0,3,,,,,,,,,2,,,58,0
360042,note_on,12,0,3,,,,,,,,,2,,,67,0
360150,note_on,0,0,1,,,,,,,,,0,,,94,101
360150,note_on,0,0,1,,,,,,,,,0,,,79,0
360150,note_on,120,0,1,,,,,,,,,0,,,91,0
360150,note_on,108,0,3,,,,,,,,,2,,,46,88
360150,note_on,0,0,1,,,,,,,,,0,,,82,101
360270,note_on,0,0,3,,,,,,,,,2,,,65,75
360270,note_on,0,0,3,,,,,,,,,2,,,62,75
360270,note_on,0,0,3,,,,,,,,,2,,,58,75
360270,note_on,120,0,1,,,,,,,,,0,,,94,0
360270,note_on,0,0,1,,,,,,,,,0,,,82,0
360270,note_on,0,0,1,,,,,,,,,0,,,80,88
360270,note_on,0,0,1,,,,,,,,,0,,,92,88
360270,note_on,120,0,3,,,,,,,,,2,,,46,0
360270,note_on,0,0,3,,,,,,,,,2,,,68,75
360282,note_on,0,0,1,,,,,,,,,0,,,80,0
360282,note_on,12,0,1,,,,,,,,,0,,,92,0
360282,note_on,0,0,3,,,,,,,,,2,,,62,0
360282,note_on,12,0,3,,,,,,,,,2,,,68,0
360282,note_on,0,0,3,,,,,,,,,2,,,58,0
360282,note_on,0,0,3,,,,,,,,,2,,,65,0
360390,note_on,108,0,3,,,,,,,,,2,,,58,62
360390,note_on,0,0,3,,,,,,,,,2,,,63,62
360390,note_on,0,0,1,,,,,,,,,0,,,91,127
360390,note_on,108,0,1,,,,,,,,,0,,,79,111
360390,note_on,0,0,3,,,,,,,,,2,,,67,62
360394,note_on,4,0,1,,,,,,,,,0,,,91,0
360394,note_on,0,0,1,,,,,,,,,0,,,79,0
360402,note_on,12,0,3,,,,,,,,,2,,,67,0
360402,note_on,0,0,3,,,,,,,,,2,,,63,0
360402,note_on,0,0,3,,,,,,,,,2,,,58,0
360510,note_on,0,0,1,,,,,,,,,0,,,89,75
360510,note_on,116,0,1,,,,,,,,,0,,,77,75
360510,time_signature,2520,1,0,2,4,24,8,,,,,,,,,
360510,note_on,108,0,3,,,,,,,,,2,,,46,62
360630,note_on,120,0,3,,,,,,,,,2,,,46,0
360630,note_on,0,0,3,,,,,,,,,2,,,62,62
360630,note_on,0,0,3,,,,,,,,,2,,,58,62
360630,note_on,0,0,3,,,,,,,,,2,,,65,62
360750,note_on,120,0,3,,,,,,,,,2,,,65,0
360750,time_signature,240,1,0,1,4,24,8,,,,,,,,,
360750,note_on,240,0,1,,,,,,,,,0,,,89,0
360750,note_on,0,0,1,,,,,,,,,0,,,77,0
360750,note_on,0,0,1,,,,,,,,,0,,,75,49
360750,note_on,0,0,3,,,,,,,,,2,,,58,0
360750,note_on,0,0,3,,,,,,,,,2,,,62,0
360810,note_on,60,0,1,,,,,,,,,0,,,75,0
360810,note_on,0,0,1,,,,,,,,,0,,,77,49
360816,note_on,6,0,1,,,,,,,,,0,,,77,0
360870,note_on,54,0,1,,,,,,,,,0,,,78,49
360870,note_on,120,0,3,,,,,,,,,2,,,51,36
360870,time_signature,120,1,0,3,4,24,8,,,,,,,,,
360870,note_on,0,0,1,,,,,,,,,0,,,82,49
360990,note_on,0,0,3,,,,,,,,,2,,,58,36
360990,note_on,120,0,3,,,,,,,,,2,,,51,0
360990,note_on,0,0,3,,,,,,,,,2,,,63,36
360990,note_on,0,0,3,,,,,,,,,2,,,66,36
360990,note_on,120,0,1,,,,,,,,,0,,,82,0
360990,note_on,0,0,1,,,,,,,,,0,,,82,49
360990,note_on,0,0,1,,,,,,,,,0,,,78,49
360990,note_on,0,0,1,,,,,,,,,0,,,78,0
361002,note_on,0,0,3,,,,,,,,,2,,,63,0
361002,note_on,12,0,3,,,,,,,,,2,,,66,0
361002,note_on,0,0,3,,,,,,,,,2,,,58,0
361050,note_on,0,0,1,,,,,,,,,0,,,78,49
361050,note_on,0,0,1,,,,,,,,,0,,,78,0
361050,note_on,60,0,1,,,,,,,,,0,,,82,0
361050,note_on,0,0,1,,,,,,,,,0,,,82,49
361110,note_on,108,0,3,,,,,,,,,2,,,58,36
361110,note_on,60,0,1,,,,,,,,,0,,,82,0
361110,note_on,0,0,3,,,,,,,,,2,,,62,36
361110,note_on,0,0,3,,,,,,,,,2,,,65,36
361110,note_on,0,0,1,,,,,,,,,0,,,78,0
361110,note_on,0,0,1,,,,,,,,,0,,,77,49
361110,note_on,0,0,1,,,,,,,,,0,,,82,49
361122,note_on,12,0,3,,,,,,,,,2,,,65,0
361122,note_on,0,0,3,,,,,,,,,2,,,58,0
361122,note_on,0,0,3,,,,,,,,,2,,,62,0
361230,note_on,120,0,1,,,,,,,,,0,,,82,0
361230,note_on,0,0,1,,,,,,,,,0,,,82,49
361230,note_on,0,0,1,,,,,,,,,0,,,75,49
361230,note_on,0,0,1,,,,,,,,,0,,,77,0
361230,note_on,108,0,3,,,,,,,,,2,,,51,36
361350,note_on,120,0,1,,,,,,,,,0,,,82,0
361350,note_on,0,0,1,,,,,,,,,0,,,82,49
361350,note_on,0,0,1,,,,,,,,,0,,,75,49
361350,note_on,0,0,3,,,,,,,,,2,,,58,36
361350,note_on,0,0,3,,,,,,,,,2,,,63,36
361350,note_on,0,0,3,,,,,,,,,2,,,66,36
361350,note_on,120,0,3,,,,,,,,,2,,,51,0
361350,note_on,0,0,1,,,,,,,,,0,,,75,0
361362,note_on,12,0,3,,,,,,,,,2,,,66,0
361362,note_on,0,0,3,,,,,,,,,2,,,63,0
361362,note_on,0,0,3,,,,,,,,,2,,,58,0
361410,note_on,0,0,1,,,,,,,,,0,,,82,49
361410,note_on,0,0,1,,,,,,,,,0,,,75,49
361410,note_on,0,0,1,,,,,,,,,0,,,75,0
361410,note_on,60,0,1,,,,,,,,,0,,,82,0
361470,note_on,108,0,3,,,,,,,,,2,,,58,36
361470,note_on,0,0,1,,,,,,,,,0,,,75,0
361470,note_on,0,0,1,,,,,,,,,0,,,82,49
361470,note_on,0,0,1,,,,,,,,,0,,,77,49
361470,note_on,0,0,3,,,,,,,,,2,,,65,36
361470,note_on,0,0,3,,,,,,,,,2,,,62,36
361470,note_on,60,0,1,,,,,,,,,0,,,82,0
361482,note_on,0,0,3,,,,,,,,,2,,,58,0
361482,note_on,12,0,3,,,,,,,,,2,,,65,0
361482,note_on,0,0,3,,,,,,,,,2,,,62,0
361590,note_on,120,0,1,,,,,,,,,0,,,82,0
361590,note_on,0,0,1,,,,,,,,,0,,,77,0
361590,note_on,0,0,1,,,,,,,,,0,,,78,49
361590,note_on,0,0,1,,,,,,,,,0,,,82,49
361590,note_on,108,0,3,,,,,,,,,2,,,51,36
361710,note_on,120,0,1,,,,,,,,,0,,,82,0
361710,note_on,0,0,3,,,,,,,,,2,,,63,36
361710,note_on,0,0,3,,,,,,,,,2,,,66,36
361710,note_on,0,0,1,,,,,,,,,0,,,78,0
361710,note_on,120,0,3,,,,,,,,,2,,,51,0
361710,note_on,0,0,3,,,,,,,,,2,,,58,36
361710,note_on,0,0,1,,,,,,,,,0,,,78,49
361710,note_on,0,0,1,,,,,,,,,0,,,82,49
361722,note_on,0,0,3,,,,,,,,,2,,,58,0
361722,note_on,0,0,3,,,,,,,,,2,,,63,0
361722,note_on,12,0,3,,,,,,,,,2,,,66,0
361770,note_on,60,0,1,,,,,,,,,0,,,82,0
361770,note_on,0,0,1,,,,,,,,,0,,,78,0
361770,note_on,0,0,1,,,,,,,,,0,,,78,49
361770,note_on,0,0,1,,,,,,,,,0,,,82,49
361830,note_on,0,0,1,,,,,,,,,0,,,77,49
361830,note_on,60,0,1,,,,,,,,,0,,,82,0
361830,note_on,0,0,3,,,,,,,,,2,,,59,36
361830,note_on,0,0,1,,,,,,,,,0,,,80,49
361830,note_on,108,0,3,,,,,,,,,2,,,49,36
361830,note_on,0,0,1,,,,,,,,,0,,,85,49
361830,note_on,0,0,3,,,,,,,,,2,,,61,36
361830,note_on,0,0,1,,,,,,,,,0,,,78,0
361950,note_on,0,0,3,,,,,,,,,2,,,49,0
361950,note_on,120,0,3,,,,,,,,,2,,,61,0
361950,note_on,0,0,3,,,,,,,,,2,,,59,0
361950,note_on,0,0,3,,,,,,,,,2,,,61,36
361950,note_on,0,0,1,,,,,,,,,0,,,85,49
361950,note_on,0,0,1,,,,,,,,,0,,,82,49
361950,note_on,0,0,1,,,,,,,,,0,,,78,49
361950,note_on,0,0,1,,,,,,,,,0,,,77,0
361950,note_on,0,0,1,,,,,,,,,0,,,80,0
361950,note_on,120,0,1,,,,,,,,,0,,,85,0
361950,note_on,0,0,3,,,,,,,,,2,,,54,36
361950,note_on,0,0,3,,,,,,,,,2,,,58,36
362190,note_on,0,0,1,,,,,,,,,0,,,94,49
362190,note_on,0,0,1,,,,,,,,,0,,,82,49
362190,note_on,0,0,1,,,,,,,,,0,,,78,0
362190,note_on,0,0,1,,,,,,,,,0,,,82,0
362190,note_on,240,0,1,,,,,,,,,0,,,85,0
362190,note_on,240,0,3,,,,,,,,,2,,,61,0
362190,note_on,0,0,3,,,,,,,,,2,,,58,0
362190,note_on,0,0,3,,,,,,,,,2,,,54,0
362250,note_on,0,0,1,,,,,,,,,0,,,95,49
362250,note_on,0,0,1,,,,,,,,,0,,,82,0
362250,note_on,60,0,1,,,,,,,,,0,,,94,0
362250,note_on,0,0,1,,,,,,,,,0,,,83,49
362310,note_on,120,0,3,,,,,,,,,2,,,50,36
362310,note_on,60,0,1,,,,,,,,,0,,,95,0
362310,note_on,0,0,1,,,,,,,,,0,,,83,0
362310,note_on,0,0,1,,,,,,,,,0,,,82,49
362310,note_on,0,0,1,,,,,,,,,0,,,94,49
362430,note_on,120,0,1,,,,,,,,,0,,,94,0
362430,note_on,0,0,3,,,,,,,,,2,,,68,36
362430,note_on,0,0,1,,,,,,,,,0,,,82,0
362430,note_on,0,0,3,,,,,,,,,2,,,58,36
362430,note_on,120,0,3,,,,,,,,,2,,,50,0
362430,note_on,0,0,1,,,,,,,,,0,,,82,49
362430,note_on,0,0,1,,,,,,,,,0,,,94,49
362430,note_on,0,0,3,,,,,,,,,2,,,65,36
362442,note_on,12,0,3,,,,,,,,,2,,,68,0
362442,note_on,0,0,3,,,,,,,,,2,,,58,0
362442,note_on,0,0,3,,,,,,,,,2,,,65,0
362490,note_on,0,0,1,,,,,,,,,0,,,94,49
362490,note_on,0,0,1,,,,,,,,,0,,,82,49
362490,note_on,0,0,1,,,,,,,,,0,,,82,0
362490,note_on,60,0,1,,,,,,,,,0,,,94,0
362550,note_on,0,0,1,,,,,,,,,0,,,92,49
362550,note_on,0,0,1,,,,,,,,,0,,,80,49
362550,note_on,0,0,1,,,,,,,,,0,,,82,0
362550,note_on,60,0,1,,,,,,,,,0,,,94,0
362550,note_on,0,0,3,,,,,,,,,2,,,68,36
362550,note_on,0,0,3,,,,,,,,,2,,,65,36
362550,note_on,108,0,3,,,,,,,,,2,,,58,36
362562,note_on,0,0,3,,,,,,,,,2,,,65,0
362562,note_on,0,0,3,,,,,,,,,2,,,58,0
362562,note_on,12,0,3,,,,,,,,,2,,,68,0
362670,note_on,0,0,1,,,,,,,,,0,,,80,0
362670,note_on,108,0,3,,,,,,,,,2,,,51,36
362670,note_on,0,0,1,,,,,,,,,0,,,91,49
362670,note_on,120,0,1,,,,,,,,,0,,,92,0
362670,note_on,0,0,1,,,,,,,,,0,,,79,49
362790,note_on,120,0,1,,,,,,,,,0,,,91,0
362790,note_on,0,0,1,,,,,,,,,0,,,79,0
362790,note_on,0,0,1,,,,,,,,,0,,,79,49
362790,note_on,0,0,1,,,,,,,,,0,,,91,49
362790,note_on,0,0,3,,,,,,,,,2,,,67,36
362790,note_on,120,0,3,,,,,,,,,2,,,51,0
362790,note_on,0,0,3,,,,,,,,,2,,,58,36
362790,note_on,0,0,3,,,,,,,,,2,,,63,36
362802,note_on,0,0,3,,,,,,,,,2,,,63,0
362802,note_on,12,0,3,,,,,,,,,2,,,67,0
362802,note_on,0,0,3,,,,,,,,,2,,,58,0
362850,note_on,60,0,1,,,,,,,,,0,,,91,0
362850,note_on,0,0,1,,,,,,,,,0,,,79,0
362850,note_on,0,0,1,,,,,,,,,0,,,91,49
362850,note_on,0,0,1,,,,,,,,,0,,,79,49
362910,note_on,0,0,3,,,,,,,,,2,,,66,62
362910,note_on,0,0,3,,,,,,,,,2,,,63,57
362910,note_on,108,0,3,,,,,,,,,2,,,57,52
362910,note_on,0,0,1,,,,,,,,,0,,,99,75
362910,note_on,60,0,1,,,,,,,,,0,,,91,0
362910,note_on,0,0,1,,,,,,,,,0,,,79,0
362910,note_on,0,0,1,,,,,,,,,0,,,87,67
362922,note_on,0,0,3,,,,,,,,,2,,,57,0
362922,note_on,0,0,3,,,,,,,,,2,,,63,0
362922,note_on,12,0,3,,,,,,,,,2,,,66,0
363030,note_on,108,0,3,,,,,,,,,2,,,46,36
363030,note_on,0,0,1,,,,,,,,,0,,,79,49
363030,note_on,0,0,1,,,,,,,,,0,,,91,49
363030,note_on,120,0,1,,,,,,,,,0,,,99,0
363030,note_on,0,0,1,,,,,,,,,0,,,87,0
363150,note_on,0,0,3,,,,,,,,,2,,,63,36
363150,note_on,0,0,1,,,,,,,,,0,,,79,49
363150,note_on,0,0,1,,,,,,,,,0,,,79,0
363150,note_on,120,0,1,,,,,,,,,0,,,91,0
363150,note_on,0,0,3,,,,,,,,,2,,,67,36
363150,note_on,0,0,3,,,,,,,,,2,,,58,36
363150,note_on,0,0,1,,,,,,,,,0,,,91,49
363150,note_on,120,0,3,,,,,,,,,2,,,46,0
363162,note_on,0,0,3,,,,,,,,,2,,,58,0
363162,note_on,0,0,3,,,,,,,,,2,,,63,0
363162,note_on,12,0,3,,,,,,,,,2,,,67,0
363210,note_on,60,0,1,,,,,,,,,0,,,91,0
363210,note_on,0,0,1,,,,,,,,,0,,,79,49
363210,note_on,0,0,1,,,,,,,,,0,,,91,49
363210,note_on,0,0,1,,,,,,,,,0,,,79,0
363270,note_on,60,0,1,,,,,,,,,0,,,91,0
363270,note_on,0,0,1,,,,,,,,,0,,,89,49
363270,note_on,0,0,1,,,,,,,,,0,,,77,49
363270,note_on,108,0,3,,,,,,,,,2,,,58,36
363270,note_on,0,0,3,,,,,,,,,2,,,62,36
363270,note_on,0,0,3,,,,,,,,,2,,,68,36
363270,note_on,0,0,1,,,,,,,,,0,,,79,0
363282,note_on,12,0,3,,,,,,,,,2,,,68,0
363282,note_on,0,0,3,,,,,,,,,2,,,62,0
363282,note_on,0,0,3,,,,,,,,,2,,,58,0
363390,note_on,0,0,1,,,,,,,,,0,,,77,0
363390,note_on,120,0,1,,,,,,,,,0,,,89,0
363390,note_on,0,0,1,,,,,,,,,0,,,75,49
363390,note_on,0,0,1,,,,,,,,,0,,,87,49
363390,time_signature,2520,1,0,2,4,24,8,,,,,,,,,
363390,note_on,108,0,3,,,,,,,,,2,,,51,36
363510,note_on,120,0,3,,,,,,,,,2,,,51,0
363510,note_on,0,0,3,,,,,,,,,2,,,67,36
363510,note_on,0,0,3,,,,,,,,,2,,,58,36
363510,note_on,0,0,3,,,,,,,,,2,,,63,36
363630,time_signature,240,1,0,1,4,24,8,,,,,,,,,
363630,note_on,240,0,1,,,,,,,,,0,,,87,0
363630,note_on,0,0,1,,,,,,,,,0,,,75,49
363630,note_on,120,0,3,,,,,,,,,2,,,67,0
363630,note_on,0,0,3,,,,,,,,,2,,,63,0
363630,note_on,0,0,3,,,,,,,,,2,,,58,0
363630,note_on,0,0,1,,,,,,,,,0,,,75,0
363690,note_on,60,0,1,,,,,,,,,0,,,75,0
363690,note_on,0,0,1,,,,,,,,,0,,,77,49
363696,note_on,6,0,1,,,,,,,,,0,,,77,0
363750,note_on,120,0,3,,,,,,,,,2,,,51,36
363750,time_signature,120,1,0,3,4,24,8,,,,,,,,,
363750,note_on,0,0,1,,,,,,,,,0,,,82,49
363750,note_on,54,0,1,,,,,,,,,0,,,78,49
363870,note_on,0,0,3,,,,,,,,,2,,,66,36
363870,note_on,0,0,3,,,,,,,,,2,,,63,36
363870,note_on,0,0,1,,,,,,,,,0,,,82,49
363870,note_on,0,0,3,,,,,,,,,2,,,58,36
363870,note_on,120,0,3,,,,,,,,,2,,,51,0
363870,note_on,0,0,1,,,,,,,,,0,,,78,49
363870,note_on,0,0,1,,,,,,,,,0,,,78,0
363870,note_on,120,0,1,,,,,,,,,0,,,82,0
363882,note_on,12,0,3,,,,,,,,,2,,,66,0
363882,note_on,0,0,3,,,,,,,,,2,,,58,0
363882,note_on,0,0,3,,,,,,,,,2,,,63,0
363930,note_on,0,0,1,,,,,,,,,0,,,78,49
363930,note_on,0,0,1,,,,,,,,,0,,,82,49
363930,note_on,60,0,1,,,,,,,,,0,,,82,0
363930,note_on,0,0,1,,,,,,,,,0,,,78,0
363990,note_on,0,0,3,,,,,,,,,2,,,62,36
363990,note_on,60,0,1,,,,,,,,,0,,,82,0
363990,note_on,108,0,3,,,,,,,,,2,,,58,36
363990,note_on,0,0,1,,,,,,,,,0,,,78,0
363990,note_on,0,0,1,,,,,,,,,0,,,82,49
363990,note_on,0,0,3,,,,,,,,,2,,,65,36
363990,note_on,0,0,1,,,,,,,,,0,,,77,49
364002,note_on,0,0,3,,,,,,,,,2,,,58,0
364002,note_on,0,0,3,,,,,,,,,2,,,62,0
364002,note_on,12,0,3,,,,,,,,,2,,,65,0
364110,note_on,0,0,1,,,,,,,,,0,,,77,0
364110,note_on,108,0,3,,,,,,,,,2,,,51,36
364110,note_on,0,0,1,,,,,,,,,0,,,82,49
364110,note_on,0,0,1,,,,,,,,,0,,,75,49
364110,note_on,120,0,1,,,,,,,,,0,,,82,0
364230,note_on,120,0,1,,,,,,,,,0,,,82,0
364230,note_on,0,0,1,,,,,,,,,0,,,75,0
364230,note_on,0,0,1,,,,,,,,,0,,,75,49
364230,note_on,0,0,1,,,,,,,,,0,,,82,49
364230,note_on,120,0,3,,,,,,,,,2,,,51,0
364230,note_on,0,0,3,,,,,,,,,2,,,58,36
364230,note_on,0,0,3,,,,,,,,,2,,,66,36
364230,note_on,0,0,3,,,,,,,,,2,,,63,36
364242,note_on,0,0,3,,,,,,,,,2,,,58,0
364242,note_on,0,0,3,,,,,,,,,2,,,63,0
364242,note_on,12,0,3,,,,,,,,,2,,,66,0
364290,note_on,0,0,1,,,,,,,,,0,,,75,49
364290,note_on,0,0,1,,,,,,,,,0,,,75,0
364290,note_on,60,0,1,,,,,,,,,0,,,82,0
364290,note_on,0,0,1,,,,,,,,,0,,,82,49
364350,note_on,0,0,3,,,,,,,,,2,,,62,36
364350,note_on,108,0,3,,,,,,,,,2,,,58,36
364350,note_on,0,0,1,,,,,,,,,0,,,77,49
364350,note_on,0,0,1,,,,,,,,,0,,,82,49
364350,note_on,0,0,3,,,,,,,,,2,,,65,36
364350,note_on,0,0,1,,,,,,,,,0,,,75,0
364350,note_on,60,0,1,,,,,,,,,0,,,82,0
364362,note_on,12,0,3,,,,,,,,,2,,,65,0
364362,note_on,0,0,3,,,,,,,,,2,,,62,0
364362,note_on,0,0,3,,,,,,,,,2,,,58,0
364470,note_on,108,0,3,,,,,,,,,2,,,51,36
364470,note_on,0,0,1,,,,,,,,,0,,,77,0
364470,note_on,120,0,1,,,,,,,,,0,,,82,0
364470,note_on,0,0,1,,,,,,,,,0,,,78,49
364470,note_on,0,0,1,,,,,,,,,0,,,82,49
364590,note_on,120,0,1,,,,,,,,,0,,,82,0
364590,note_on,120,0,3,,,,,,,,,2,,,51,0
364590,note_on,0,0,3,,,,,,,,,2,,,58,36
364590,note_on,0,0,3,,,,,,,,,2,,,63,36
364590,note_on,0,0,3,,,,,,,,,2,,,66,36
364590,note_on,0,0,1,,,,,,,,,0,,,82,49
364590,note_on,0,0,1,,,,,,,,,0,,,78,49
364590,note_on,0,0,1,,,,,,,,,0,,,78,0
364602,note_on,0,0,3,,,,,,,,,2,,,63,0
364602,note_on,0,0,3,,,,,,,,,2,,,58,0
364602,note_on,12,0,3,,,,,,,,,2,,,66,0
364650,note_on,60,0,1,,,,,,,,,0,,,82,0
364650,note_on,0,0,1,,,,,,,,,0,,,82,49
364650,note_on,0,0,1,,,,,,,,,0,,,78,49
364650,note_on,0,0,1,,,,,,,,,0,,,78,0
364710,note_on,60,0,1,,,,,,,,,0,,,82,0
364710,note_on,0,0,1,,,,,,,,,0,,,77,49
364710,note_on,0,0,1,,,,,,,,,0,,,80,49
364710,note_on,0,0,1,,,,,,,,,0,,,85,49
364710,note_on,0,0,3,,,,,,,,,2,,,59,36
364710,note_on,0,0,3,,,,,,,,,2,,,61,36
364710,note_on,108,0,3,,,,,,,,,2,,,49,36
364710,note_on,0,0,1,,,,,,,,,0,,,78,0
364830,note_on,0,0,1,,,,,,,,,0,,,80,0
364830,note_on,0,0,1,,,,,,,,,0,,,77,0
364830,note_on,0,0,1,,,,,,,,,0,,,78,49
364830,note_on,120,0,1,,,,,,,,,0,,,85,0
364830,note_on,120,0,3,,,,,,,,,2,,,61,0
364830,note_on,0,0,3,,,,,,,,,2,,,59,0
364830,note_on,0,0,3,,,,,,,,,2,,,49,0
364830,note_on,0,0,3,,,,,,,,,2,,,54,36
364830,note_on,0,0,3,,,,,,,,,2,,,58,36
364830,note_on,0,0,3,,,,,,,,,2,,,61,36
364830,note_on,0,0,1,,,,,,,,,0,,,82,49
364830,note_on,0,0,1,,,,,,,,,0,,,85,49
365070,note_on,0,0,1,,,,,,,,,0,,,82,0
365070,note_on,0,0,1,,,,,,,,,0,,,78,0
365070,note_on,0,0,1,,,,,,,,,0,,,82,49
365070,note_on,0,0,1,,,,,,,,,0,,,94,49
365070,note_on,240,0,1,,,,,,,,,0,,,85,0
365070,note_on,240,0,3,,,,,,,,,2,,,61,0
365070,note_on,0,0,3,,,,,,,,,2,,,58,0
365070,note_on,0,0,3,,,,,,,,,2,,,54,0
365130,note_on,60,0,1,,,,,,,,,0,,,94,0
365130,note_on,0,0,1,,,,,,,,,0,,,82,0
365130,note_on,0,0,1,,,,,,,,,0,,,83,49
365130,note_on,0,0,1,,,,,,,,,0,,,95,49
365190,note_on,120,0,3,,,,,,,,,2,,,50,36
365190,note_on,60,0,1,,,,,,,,,0,,,95,0
365190,note_on,0,0,1,,,,,,,,,0,,,83,0
365190,note_on,0,0,1,,,,,,,,,0,,,82,49
365190,note_on,0,0,1,,,,,,,,,0,,,94,49
365310,note_on,0,0,3,,,,,,,,,2,,,68,36
365310,note_on,0,0,1,,,,,,,,,0,,,94,49
365310,note_on,0,0,1,,,,,,,,,0,,,82,49
365310,note_on,0,0,1,,,,,,,,,0,,,82,0
365310,note_on,120,0,1,,,,,,,,,0,,,94,0
365310,note_on,120,0,3,,,,,,,,,2,,,50,0
365310,note_on,0,0,3,,,,,,,,,2,,,65,36
365310,note_on,0,0,3,,,,,,,,,2,,,58,36
365322,note_on,0,0,3,,,,,,,,,2,,,58,0
365322,note_on,0,0,3,,,,,,,,,2,,,65,0
365322,note_on,12,0,3,,,,,,,,,2,,,68,0
365370,note_on,60,0,1,,,,,,,,,0,,,94,0
365370,note_on,0,0,1,,,,,,,,,0,,,82,0
365370,note_on,0,0,1,,,,,,,,,0,,,82,49
365370,note_on,0,0,1,,,,,,,,,0,,,94,49
365430,note_on,0,0,3,,,,,,,,,2,,,68,36
365430,note_on,0,0,3,,,,,,,,,2,,,65,36
365430,note_on,108,0,3,,,,,,,,,2,,,58,36
365430,note_on,0,0,1,,,,,,,,,0,,,82,0
365430,note_on,0,0,1,,,,,,,,,0,,,92,49
365430,note_on,0,0,1,,,,,,,,,0,,,80,49
365430,note_on,60,0,1,,,,,,,,,0,,,94,0
365442,note_on,0,0,3,,,,,,,,,2,,,65,0
365442,note_on,12,0,3,,,,,,,,,2,,,68,0
365442,note_on,0,0,3,,,,,,,,,2,,,58,0
365550,note_on,0,0,1,,,,,,,,,0,,,91,49
365550,note_on,0,0,1,,,,,,,,,0,,,79,49
365550,note_on,0,0,1,,,,,,,,,0,,,80,0
365550,note_on,120,0,1,,,,,,,,,0,,,92,0
365550,note_on,108,0,3,,,,,,,,,2,,,51,36
365670,note_on,0,0,1,,,,,,,,,0,,,79,49
365670,note_on,0,0,1,,,,,,,,,0,,,91,49
365670,note_on,120,0,1,,,,,,,,,0,,,91,0
365670,note_on,0,0,1,,,,,,,,,0,,,79,0
365670,note_on,0,0,3,,,,,,,,,2,,,63,36
365670,note_on,0,0,3,,,,,,,,,2,,,67,36
365670,note_on,0,0,3,,,,,,,,,2,,,58,36
365670,note_on,120,0,3,,,,,,,,,2,,,51,0
365682,note_on,12,0,3,,,,,,,,,2,,,67,0
365682,note_on,0,0,3,,,,,,,,,2,,,63,0
365682,note_on,0,0,3,,,,,,,,,2,,,58,0
365730,note_on,0,0,1,,,,,,,,,0,,,79,0
365730,note_on,60,0,1,,,,,,,,,0,,,91,0
365730,note_on,0,0,1,,,,,,,,,0,,,79,49
365730,note_on,0,0,1,,,,,,,,,0,,,91,49
365790,note_on,0,0,3,,,,,,,,,2,,,66,62
365790,note_on,0,0,3,,,,,,,,,2,,,63,57
365790,note_on,108,0,3,,,,,,,,,2,,,57,52
365790,note_on,60,0,1,,,,,,,,,0,,,91,0
365790,note_on,0,0,1,,,,,,,,,0,,,79,0
365790,note_on,0,0,1,,,,,,,,,0,,,87,67
365790,note_on,0,0,1,,,,,,,,,0,,,99,75
365802,note_on,12,0,3,,,,,,,,,2,,,66,0
365802,note_on,0,0,3,,,,,,,,,2,,,63,0
365802,note_on,0,0,3,,,,,,,,,2,,,57,0
365910,note_on,0,0,1,,,,,,,,,0,,,87,0
365910,note_on,120,0,1,,,,,,,,,0,,,99,0
365910,note_on,0,0,1,,,,,,,,,0,,,91,49
365910,note_on,108,0,3,,,,,,,,,2,,,46,36
365910,note_on,0,0,1,,,,,,,,,0,,,79,49
366030,note_on,0,0,3,,,,,,,,,2,,,63,36
366030,note_on,0,0,3,,,,,,,,,2,,,58,36
366030,note_on,0,0,3,,,,,,,,,2,,,67,36
366030,note_on,120,0,3,,,,,,,,,2,,,46,0
366030,note_on,0,0,1,,,,,,,,,0,,,91,49
366030,note_on,0,0,1,,,,,,,,,0,,,79,49
366030,note_on,0,0,1,,,,,,,,,0,,,79,0
366030,note_on,120,0,1,,,,,,,,,0,,,91,0
366042,note_on,12,0,3,,,,,,,,,2,,,67,0
366042,note_on,0,0,3,,,,,,,,,2,,,58,0
366042,note_on,0,0,3,,,,,,,,,2,,,63,0
366090,note_on,60,0,1,,,,,,,,,0,,,91,0
366090,note_on,0,0,1,,,,,,,,,0,,,91,49
366090,note_on,0,0,1,,,,,,,,,0,,,79,0
366090,note_on,0,0,1,,,,,,,,,0,,,79,49
366150,note_on,0,0,3,,,,,,,,,2,,,62,36
366150,note_on,0,0,3,,,,,,,,,2,,,68,36
366150,note_on,60,0,1,,,,,,,,,0,,,91,0
366150,note_on,0,0,1,,,,,,,,,0,,,79,0
366150,note_on,0,0,1,,,,,,,,,0,,,77,49
366150,note_on,0,0,1,,,,,,,,,0,,,89,49
366150,note_on,108,0,3,,,,,,,,,2,,,58,36
366162,note_on,0,0,3,,,,,,,,,2,,,62,0
366162,note_on,12,0,3,,,,,,,,,2,,,68,0
366162,note_on,0,0,3,,,,,,,,,2,,,58,0
366270,time_signature,2520,1,0,7,16,6,8,,,,,,,,,
366270,note_on,0,0,1,,,,,,,,,0,,,87,49
366270,note_on,120,0,1,,,,,,,,,0,,,89,0
366270,note_on,0,0,1,,,,,,,,,0,,,77,0
366270,note_on,108,0,3,,,,,,,,,2,,,51,36
366270,note_on,0,0,1,,,,,,,,,0,,,75,49
366390,note_on,120,0,3,,,,,,,,,2,,,51,0
366390,note_on,0,0,3,,,,,,,,,2,,,58,36
366390,note_on,0,0,3,,,,,,,,,2,,,63,36
366390,note_on,0,0,3,,,,,,,,,2,,,67,36
366480,note_on,0,0,1,,,,,,,,,0,,,70,49
366480,note_on,0,0,1,,,,,,,,,0,,,67,49
366480,note_on,0,0,1,,,,,,,,,0,,,75,0
366480,note_on,210,0,1,,,,,,,,,0,,,87,0
366480,note_on,0,0,3,,,,,,,,,2,,,58,0
366480,time_signature,210,1,0,5,16,6,8,,,,,,,,,
366480,note_on,90,0,3,,,,,,,,,2,,,67,0
366480,note_on,0,0,3,,,,,,,,,2,,,63,0
366510,note_on,30,0,1,,,,,,,,,0,,,70,0
366510,note_on,0,0,1,,,,,,,,,0,,,67,0
366510,note_on,0,0,1,,,,,,,,,0,,,67,49
366510,note_on,0,0,1,,,,,,,,,0,,,70,49
366510,note_on,30,0,3,,,,,,,,,2,,,51,36
366510,note_on,0,0,3,,,,,,,,,2,,,58,36
366570,note_on,60,0,1,,,,,,,,,0,,,70,0
366570,note_on,0,0,1,,,,,,,,,0,,,67,0
366570,note_on,0,0,1,,,,,,,,,0,,,75,49
366630,note_on,0,0,1,,,,,,,,,0,,,68,49
366630,note_on,0,0,1,,,,,,,,,0,,,65,49
366630,note_on,60,0,1,,,,,,,,,0,,,75,0
366630,note_on,13080,0,2,,,,,,,,,1,,,68,36
366630,note_on,120,0,3,,,,,,,,,2,,,58,0
366630,time_signature,150,1,0,3,4,24,8,,,,,,,,,
366630,note_on,40440,0,4,,,,,,,,,3,,,46,36
366630,note_on,0,0,3,,,,,,,,,2,,,51,0
366690,note_on,60,0,1,,,,,,,,,0,,,68,0
366690,note_on,0,0,1,,,,,,,,,0,,,65,0
366690,note_on,0,0,1,,,,,,,,,0,,,75,49
366750,note_on,120,0,3,,,,,,,,,2,,,58,36
366750,note_on,0,0,1,,,,,,,,,0,,,74,49
366750,note_on,60,0,1,,,,,,,,,0,,,75,0
366762,note_on,12,0,3,,,,,,,,,2,,,58,0
366810,note_on,60,0,1,,,,,,,,,0,,,74,0
366810,note_on,0,0,1,,,,,,,,,0,,,65,49
366870,note_on,108,0,3,,,,,,,,,2,,,58,36
366870,note_on,0,0,2,,,,,,,,,1,,,68,36
366870,note_on,0,0,1,,,,,,,,,0,,,68,49
366870,note_on,240,0,2,,,,,,,,,1,,,68,0
366870,note_on,0,0,1,,,,,,,,,0,,,63,49
366870,note_on,60,0,1,,,,,,,,,0,,,65,0
366882,note_on,12,0,3,,,,,,,,,2,,,58,0
366930,note_on,60,0,1,,,,,,,,,0,,,68,0
366930,note_on,0,0,1,,,,,,,,,0,,,63,0
366930,note_on,0,0,1,,,,,,,,,0,,,72,49
366990,note_on,120,0,2,,,,,,,,,1,,,68,0
366990,note_on,60,0,1,,,,,,,,,0,,,72,0
366990,note_on,0,0,1,,,,,,,,,0,,,62,49
366990,note_on,360,0,4,,,,,,,,,3,,,46,0
366990,note_on,0,0,4,,,,,,,,,3,,,46,36
366990,note_on,0,0,2,,,,,,,,,1,,,62,36
367050,note_on,60,0,1,,,,,,,,,0,,,62,0
367050,note_on,0,0,1,,,,,,,,,0,,,70,49
367110,note_on,0,0,1,,,,,,,,,0,,,68,49
367110,note_on,228,0,3,,,,,,,,,2,,,58,36
367110,note_on,60,0,1,,,,,,,,,0,,,70,0
367122,note_on,12,0,3,,,,,,,,,2,,,58,0
367170,note_on,60,0,1,,,,,,,,,0,,,68,0
367170,note_on,0,0,1,,,,,,,,,0,,,62,49
367230,note_on,0,0,2,,,,,,,,,1,,,62,36
367230,note_on,0,0,1,,,,,,,,,0,,,68,49
367230,note_on,240,0,2,,,,,,,,,1,,,62,0
367230,note_on,108,0,3,,,,,,,,,2,,,58,36
367230,note_on,60,0,1,,,,,,,,,0,,,62,0
367242,note_on,12,0,3,,,,,,,,,2,,,58,0
367290,note_on,0,0,1,,,,,,,,,0,,,70,49
367290,note_on,60,0,1,,,,,,,,,0,,,68,0
367350,note_on,120,0,2,,,,,,,,,1,,,62,0
367350,note_on,0,0,2,,,,,,,,,1,,,63,36
367350,note_on,360,0,4,,,,,,,,,3,,,46,0
367350,note_on,0,0,4,,,,,,,,,3,,,51,36
367350,note_on,60,0,1,,,,,,,,,0,,,70,0
367350,note_on,0,0,1,,,,,,,,,0,,,67,49
367410,note_on,60,0,1,,,,,,,,,0,,,67,0
367410,note_on,0,0,1,,,,,,,,,0,,,72,49
367470,note_on,60,0,1,,,,,,,,,0,,,72,0
367470,note_on,0,0,1,,,,,,,,,0,,,70,49
367470,note_on,228,0,3,,,,,,,,,2,,,58,36
367482,note_on,12,0,3,,,,,,,,,2,,,58,0
367530,note_on,60,0,1,,,,,,,,,0,,,70,0
367530,note_on,0,0,1,,,,,,,,,0,,,67,49
367590,note_on,240,0,2,,,,,,,,,1,,,63,0
367590,note_on,0,0,2,,,,,,,,,1,,,63,36
367590,note_on,108,0,3,,,,,,,,,2,,,58,36
367590,note_on,0,0,1,,,,,,,,,0,,,67,49
367590,note_on,60,0,1,,,,,,,,,0,,,67,0
367602,note_on,12,0,3,,,,,,,,,2,,,58,0
367650,note_on,60,0,1,,,,,,,,,0,,,67,0
367650,note_on,0,0,1,,,,,,,,,0,,,70,49
367710,note_on,60,0,1,,,,,,,,,0,,,70,0
367710,note_on,0,0,1,,,,,,,,,0,,,63,49
367710,note_on,0,0,1,,,,,,,,,0,,,68,49
367710,note_on,120,0,2,,,,,,,,,1,,,63,0
367710,note_on,0,0,4,,,,,,,,,3,,,51,36
367710,note_on,360,0,4,,,,,,,,,3,,,51,0
367770,note_on,60,0,1,,,,,,,,,0,,,68,0
367770,note_on,0,0,1,,,,,,,,,0,,,72,49
367770,note_on,0,0,1,,,,,,,,,0,,,63,0
367830,note_on,228,0,3,,,,,,,,,2,,,58,36
367830,note_on,60,0,1,,,,,,,,,0,,,72,0
367830,note_on,0,0,1,,,,,,,,,0,,,67,49
367830,note_on,0,0,1,,,,,,,,,0,,,70,49
367842,note_on,12,0,3,,,,,,,,,2,,,58,0
367890,note_on,60,0,1,,,,,,,,,0,,,70,0
367890,note_on,0,0,1,,,,,,,,,0,,,67,0
367890,note_on,0,0,1,,,,,,,,,0,,,75,49
367950,note_on,108,0,3,,,,,,,,,2,,,58,36
367950,note_on,0,0,1,,,,,,,,,0,,,79,49
367950,note_on,60,0,1,,,,,,,,,0,,,75,0
367962,note_on,12,0,3,,,,,,,,,2,,,58,0
368010,note_on,0,0,1,,,,,,,,,0,,,75,49
368010,note_on,60,0,1,,,,,,,,,0,,,79,0
368070,note_on,0,0,1,,,,,,,,,0,,,65,49
368070,note_on,0,0,1,,,,,,,,,0,,,68,49
368070,note_on,360,0,4,,,,,,,,,3,,,51,0
368070,note_on,360,0,2,,,,,,,,,1,,,68,36
368070,note_on,60,0,1,,,,,,,,,0,,,75,0
368070,note_on,0,0,4,,,,,,,,,3,,,46,36
368130,note_on,0,0,1,,,,,,,,,0,,,75,49
368130,note_on,0,0,1,,,,,,,,,0,,,65,0
368130,note_on,60,0,1,,,,,,,,,0,,,68,0
368190,note_on,0,0,1,,,,,,,,,0,,,74,49
368190,note_on,60,0,1,,,,,,,,,0,,,75,0
368190,note_on,228,0,3,,,,,,,,,2,,,58,36
368202,note_on,12,0,3,,,,,,,,,2,,,58,0
368250,note_on,0,0,1,,,,,,,,,0,,,65,49
368250,note_on,60,0,1,,,,,,,,,0,,,74,0
368310,note_on,0,0,1,,,,,,,,,0,,,68,49
368310,note_on,60,0,1,,,,,,,,,0,,,65,0
368310,note_on,240,0,2,,,,,,,,,1,,,68,0
368310,note_on,0,0,2,,,,,,,,,1,,,68,36
368310,note_on,0,0,1,,,,,,,,,0,,,63,49
368310,note_on,108,0,3,,,,,,,,,2,,,58,36
368322,note_on,12,0,3,,,,,,,,,2,,,58,0
368370,note_on,0,0,1,,,,,,,,,0,,,72,49
368370,note_on,0,0,1,,,,,,,,,0,,,63,0
368370,note_on,60,0,1,,,,,,,,,0,,,68,0
368430,note_on,0,0,2,,,,,,,,,1,,,62,36
368430,note_on,0,0,4,,,,,,,,,3,,,46,36
368430,note_on,360,0,4,,,,,,,,,3,,,46,0
368430,note_on,0,0,1,,,,,,,,,0,,,68,49
368430,note_on,60,0,1,,,,,,,,,0,,,72,0
368430,note_on,120,0,2,,,,,,,,,1,,,68,0
368490,note_on,60,0,1,,,,,,,,,0,,,68,0
368490,note_on,0,0,1,,,,,,,,,0,,,70,49
368550,note_on,0,0,1,,,,,,,,,0,,,68,49
368550,note_on,120,0,2,,,,,,,,,1,,,62,0
368550,note_on,0,0,2,,,,,,,,,1,,,63,36
368550,note_on,228,0,3,,,,,,,,,2,,,58,36
368550,note_on,60,0,1,,,,,,,,,0,,,70,0
368562,note_on,12,0,3,,,,,,,,,2,,,58,0
368610,note_on,0,0,1,,,,,,,,,0,,,72,49
368610,note_on,60,0,1,,,,,,,,,0,,,68,0
368670,note_on,120,0,2,,,,,,,,,1,,,63,0
368670,note_on,60,0,1,,,,,,,,,0,,,72,0
368670,note_on,0,0,1,,,,,,,,,0,,,68,49
368670,note_on,0,0,2,,,,,,,,,1,,,65,36
368670,note_on,108,0,3,,,,,,,,,2,,,58,36
368682,note_on,12,0,3,,,,,,,,,2,,,58,0
368730,note_on,0,0,1,,,,,,,,,0,,,74,49
368730,note_on,60,0,1,,,,,,,,,0,,,68,0
368790,note_on,60,0,1,,,,,,,,,0,,,74,0
368790,note_on,0,0,1,,,,,,,,,0,,,67,49
368790,note_on,120,0,2,,,,,,,,,1,,,65,0
368790,note_on,108,0,3,,,,,,,,,2,,,51,36
368790,note_on,360,0,4,,,,,,,,,3,,,46,0
368850,note_on,0,0,1,,,,,,,,,0,,,75,49
368850,note_on,60,0,1,,,,,,,,,0,,,67,0
368910,note_on,0,0,1,,,,,,,,,0,,,70,49
368910,note_on,0,0,1,,,,,,,,,0,,,67,49
368910,note_on,0,0,3,,,,,,,,,2,,,58,36
368910,note_on,60,0,1,,,,,,,,,0,,,75,0
368910,note_on,120,0,3,,,,,,,,,2,,,51,0
368970,note_on,0,0,1,,,,,,,,,0,,,67,0
368970,note_on,0,0,1,,,,,,,,,0,,,79,49
368970,note_on,60,0,1,,,,,,,,,0,,,70,0
369030,note_on,0,0,1,,,,,,,,,0,,,70,49
369030,note_on,0,0,1,,,,,,,,,0,,,68,49
369030,note_on,0,0,3,,,,,,,,,2,,,46,36
369030,note_on,120,0,3,,,,,,,,,2,,,58,0
369030,note_on,60,0,1,,,,,,,,,0,,,79,0
369090,note_on,60,0,1,,,,,,,,,0,,,70,0
369090,note_on,0,0,1,,,,,,,,,0,,,68,0
369090,note_on,0,0,1,,,,,,,,,0,,,77,49
369150,note_on,60,0,1,,,,,,,,,0,,,77,0
369150,note_on,0,0,3,,,,,,,,,2,,,51,36
369150,note_on,0,0,1,,,,,,,,,0,,,67,49
369150,note_on,0,0,1,,,,,,,,,0,,,70,49
369150,note_on,0,0,1,,,,,,,,,0,,,75,49
369150,note_on,120,0,3,,,,,,,,,2,,,46,0
369150,time_signature,2520,1,0,7,16,6,8,,,,,,,,,
369360,note_on,210,0,1,,,,,,,,,0,,,75,0
369360,note_on,210,0,3,,,,,,,,,2,,,51,0
369360,note_on,0,0,1,,,,,,,,,0,,,70,49
369360,note_on,0,0,1,,,,,,,,,0,,,67,49
369360,note_on,0,0,1,,,,,,,,,0,,,67,0
369360,note_on,0,0,1,,,,,,,,,0,,,70,0
369360,time_signature,210,1,0,5,16,6,8,,,,,,,,,
369390,note_on,0,0,1,,,,,,,,,0,,,67,0
369390,note_on,30,0,1,,,,,,,,,0,,,70,0
369390,note_on,0,0,1,,,,,,,,,0,,,67,49
369390,note_on,30,0,3,,,,,,,,,2,,,51,36
369390,note_on,0,0,1,,,,,,,,,0,,,70,49
369390,note_on,0,0,3,,,,,,,,,2,,,58,36
369450,note_on,60,0,1,,,,,,,,,0,,,70,0
369450,note_on,0,0,1,,,,,,,,,0,,,67,0
369450,note_on,0,0,1,,,,,,,,,0,,,75,49
369510,note_on,720,0,2,,,,,,,,,1,,,68,36
369510,note_on,0,0,3,,,,,,,,,2,,,51,0
369510,note_on,120,0,3,,,,,,,,,2,,,58,0
369510,note_on,720,0,4,,,,,,,,,3,,,46,36
369510,time_signature,150,1,0,3,4,24,8,,,,,,,,,
369510,note_on,0,0,1,,,,,,,,,0,,,65,49
369510,note_on,60,0,1,,,,,,,,,0,,,75,0
369510,note_on,0,0,1,,,,,,,,,0,,,68,49
369570,note_on,60,0,1,,,,,,,,,0,,,68,0
369570,note_on,0,0,1,,,,,,,,,0,,,75,49
369570,note_on,0,0,1,,,,,,,,,0,,,65,0
369630,note_on,60,0,1,,,,,,,,,0,,,75,0
369630,note_on,0,0,1,,,,,,,,,0,,,74,49
369630,note_on,120,0,3,,,,,,,,,2,,,58,36
369642,note_on,12,0,3,,,,,,,,,2,,,58,0
369690,note_on,60,0,1,,,,,,,,,0,,,74,0
369690,note_on,0,0,1,,,,,,,,,0,,,65,49
369750,note_on,240,0,2,,,,,,,,,1,,,68,0
369750,note_on,108,0,3,,,,,,,,,2,,,58,36
369750,note_on,0,0,2,,,,,,,,,1,,,68,36
369750,note_on,0,0,1,,,,,,,,,0,,,63,49
369750,note_on,60,0,1,,,,,,,,,0,,,65,0
369750,note_on,0,0,1,,,,,,,,,0,,,68,49
369762,note_on,12,0,3,,,,,,,,,2,,,58,0
369810,note_on,60,0,1,,,,,,,,,0,,,68,0
369810,note_on,0,0,1,,,,,,,,,0,,,72,49
369810,note_on,0,0,1,,,,,,,,,0,,,63,0
369870,note_on,360,0,4,,,,,,,,,3,,,46,0
369870,note_on,0,0,1,,,,,,,,,0,,,62,49
369870,note_on,0,0,2,,,,,,,,,1,,,62,36
369870,note_on,60,0,1,,,,,,,,,0,,,72,0
369870,note_on,120,0,2,,,,,,,,,1,,,68,0
369870,note_on,0,0,4,,,,,,,,,3,,,46,36
369930,note_on,60,0,1,,,,,,,,,0,,,62,0
369930,note_on,0,0,1,,,,,,,,,0,,,70,49
369990,note_on,60,0,1,,,,,,,,,0,,,70,0
369990,note_on,0,0,1,,,,,,,,,0,,,68,49
369990,note_on,228,0,3,,,,,,,,,2,,,58,36
370002,note_on,12,0,3,,,,,,,,,2,,,58,0
370050,note_on,60,0,1,,,,,,,,,0,,,68,0
370050,note_on,0,0,1,,,,,,,,,0,,,62,49
370110,note_on,240,0,2,,,,,,,,,1,,,62,0
370110,note_on,0,0,1,,,,,,,,,0,,,68,49
370110,note_on,60,0,1,,,,,,,,,0,,,62,0
370110,note_on,108,0,3,,,,,,,,,2,,,58,36
370110,note_on,0,0,2,,,,,,,,,1,,,62,36
370122,note_on,12,0,3,,,,,,,,,2,,,58,0
370170,note_on,0,0,1,,,,,,,,,0,,,70,49
370170,note_on,60,0,1,,,,,,,,,0,,,68,0
370230,note_on,360,0,4,,,,,,,,,3,,,46,0
370230,note_on,0,0,4,,,,,,,,,3,,,51,36
370230,note_on,0,0,1,,,,,,,,,0,,,67,49
370230,note_on,60,0,1,,,,,,,,,0,,,70,0
370230,note_on,120,0,2,,,,,,,,,1,,,62,0
370230,note_on,0,0,2,,,,,,,,,1,,,63,36
370290,note_on,0,0,1,,,,,,,,,0,,,72,49
370290,note_on,60,0,1,,,,,,,,,0,,,67,0
370350,note_on,0,0,1,,,,,,,,,0,,,70,49
370350,note_on,60,0,1,,,,,,,,,0,,,72,0
370350,note_on,228,0,3,,,,,,,,,2,,,58,36
370362,note_on,12,0,3,,,,,,,,,2,,,58,0
370410,note_on,0,0,1,,,,,,,,,0,,,67,49
370410,note_on,60,0,1,,,,,,,,,0,,,70,0
370470,note_on,60,0,1,,,,,,,,,0,,,67,0
370470,note_on,0,0,1,,,,,,,,,0,,,67,49
370470,note_on,108,0,3,,,,,,,,,2,,,58,36
370470,note_on,0,0,2,,,,,,,,,1,,,63,36
370470,note_on,240,0,2,,,,,,,,,1,,,63,0
370482,note_on,12,0,3,,,,,,,,,2,,,58,0
370530,note_on,0,0,1,,,,,,,,,0,,,70,49
370530,note_on,60,0,1,,,,,,,,,0,,,67,0
370590,note_on,120,0,2,,,,,,,,,1,,,63,0
370590,note_on,360,0,4,,,,,,,,,3,,,51,0
370590,note_on,0,0,4,,,,,,,,,3,,,51,36
370590,note_on,60,0,1,,,,,,,,,0,,,70,0
370590,note_on,0,0,1,,,,,,,,,0,,,63,49
370590,note_on,0,0,1,,,,,,,,,0,,,68,49
370650,note_on,0,0,1,,,,,,,,,0,,,72,49
370650,note_on,60,0,1,,,,,,,,,0,,,68,0
370650,note_on,0,0,1,,,,,,,,,0,,,63,0
370710,note_on,60,0,1,,,,,,,,,0,,,72,0
370710,note_on,228,0,3,,,,,,,,,2,,,58,36
370710,note_on,0,0,1,,,,,,,,,0,,,67,49
370710,note_on,0,0,1,,,,,,,,,0,,,70,49
370722,note_on,12,0,3,,,,,,,,,2,,,58,0
370770,note_on,0,0,1,,,,,,,,,0,,,67,0
370770,note_on,60,0,1,,,,,,,,,0,,,70,0
370770,note_on,0,0,1,,,,,,,,,0,,,75,49
370830,note_on,108,0,3,,,,,,,,,2,,,58,36
370830,note_on,0,0,1,,,,,,,,,0,,,79,49
370830,note_on,60,0,1,,,,,,,,,0,,,75,0
370842,note_on,12,0,3,,,,,,,,,2,,,58,0
370890,note_on,60,0,1,,,,,,,,,0,,,79,0
370890,note_on,0,0,1,,,,,,,,,0,,,75,49
370950,note_on,60,0,1,,,,,,,,,0,,,75,0
370950,note_on,0,0,1,,,,,,,,,0,,,65,49
370950,note_on,0,0,1,,,,,,,,,0,,,68,49
370950,note_on,360,0,4,,,,,,,,,3,,,51,0
370950,note_on,0,0,4,,,,,,,,,3,,,46,36
370950,note_on,360,0,2,,,,,,,,,1,,,68,36
371010,note_on,0,0,1,,,,,,,,,0,,,75,49
371010,note_on,0,0,1,,,,,,,,,0,,,65,0
371010,note_on,60,0,1,,,,,,,,,0,,,68,0
371070,note_on,60,0,1,,,,,,,,,0,,,75,0
371070,note_on,0,0,1,,,,,,,,,0,,,74,49
371070,note_on,228,0,3,,,,,,,,,2,,,58,36
371082,note_on,12,0,3,,,,,,,,,2,,,58,0
371130,note_on,0,0,1,,,,,,,,,0,,,65,49
371130,note_on,60,0,1,,,,,,,,,0,,,74,0
371190,note_on,60,0,1,,,,,,,,,0,,,65,0
371190,note_on,0,0,1,,,,,,,,,0,,,63,49
371190,note_on,0,0,2,,,,,,,,,1,,,68,36
371190,note_on,240,0,2,,,,,,,,,1,,,68,0
371190,note_on,0,0,1,,,,,,,,,0,,,68,49
371190,note_on,108,0,3,,,,,,,,,2,,,58,36
371202,note_on,12,0,3,,,,,,,,,2,,,58,0
371250,note_on,0,0,1,,,,,,,,,0,,,72,49
371250,note_on,0,0,1,,,,,,,,,0,,,63,0
371250,note_on,60,0,1,,,,,,,,,0,,,68,0
371310,note_on,60,0,1,,,,,,,,,0,,,72,0
371310,note_on,360,0,4,,,,,,,,,3,,,46,0
371310,note_on,0,0,1,,,,,,,,,0,,,68,49
371310,note_on,120,0,2,,,,,,,,,1,,,68,0
371310,note_on,0,0,2,,,,,,,,,1,,,62,36
371310,note_on,0,0,4,,,,,,,,,3,,,46,36
371370,note_on,60,0,1,,,,,,,,,0,,,68,0
371370,note_on,0,0,1,,,,,,,,,0,,,70,49
371430,note_on,120,0,2,,,,,,,,,1,,,62,0
371430,note_on,60,0,1,,,,,,,,,0,,,70,0
371430,note_on,0,0,1,,,,,,,,,0,,,68,49
371430,note_on,228,0,3,,,,,,,,,2,,,58,36
371430,note_on,0,0,2,,,,,,,,,1,,,63,36
371442,note_on,12,0,3,,,,,,,,,2,,,58,0
371490,note_on,60,0,1,,,,,,,,,0,,,68,0
371490,note_on,0,0,1,,,,,,,,,0,,,72,49
371550,note_on,120,0,2,,,,,,,,,1,,,63,0
371550,note_on,0,0,2,,,,,,,,,1,,,65,36
371550,note_on,60,0,1,,,,,,,,,0,,,72,0
371550,note_on,0,0,1,,,,,,,,,0,,,68,49
371550,note_on,108,0,3,,,,,,,,,2,,,58,36
371562,note_on,12,0,3,,,,,,,,,2,,,58,0
371610,note_on,60,0,1,,,,,,,,,0,,,68,0
371610,note_on,0,0,1,,,,,,,,,0,,,74,49
371670,note_on,0,0,1,,,,,,,,,0,,,67,49
371670,note_on,108,0,3,,,,,,,,,2,,,51,36
371670,note_on,60,0,1,,,,,,,,,0,,,74,0
371670,note_on,120,0,2,,,,,,,,,1,,,65,0
371670,note_on,360,0,4,,,,,,,,,3,,,46,0
371730,note_on,0,0,1,,,,,,,,,0,,,75,49
371730,note_on,60,0,1,,,,,,,,,0,,,67,0
371790,note_on,60,0,1,,,,,,,,,0,,,75,0
371790,note_on,0,0,1,,,,,,,,,0,,,67,49
371790,note_on,0,0,1,,,,,,,,,0,,,70,49
371790,note_on,0,0,3,,,,,,,,,2,,,58,36
371790,note_on,120,0,3,,,,,,,,,2,,,51,0
371850,note_on,0,0,1,,,,,,,,,0,,,79,49
371850,note_on,0,0,1,,,,,,,,,0,,,67,0
371850,note_on,60,0,1,,,,,,,,,0,,,70,0
371910,note_on,0,0,1,,,,,,,,,0,,,68,49
371910,note_on,0,0,1,,,,,,,,,0,,,70,49
371910,note_on,0,0,3,,,,,,,,,2,,,46,36
371910,note_on,120,0,3,,,,,,,,,2,,,58,0
371910,note_on,60,0,1,,,,,,,,,0,,,79,0
371970,note_on,60,0,1,,,,,,,,,0,,,70,0
371970,note_on,0,0,1,,,,,,,,,0,,,68,0
371970,note_on,0,0,1,,,,,,,,,0,,,77,49
372030,time_signature,2520,1,0,7,16,6,8,,,,,,,,,
372030,note_on,0,0,1,,,,,,,,,0,,,75,49
372030,note_on,0,0,1,,,,,,,,,0,,,70,49
372030,note_on,120,0,3,,,,,,,,,2,,,46,0
372030,note_on,0,0,3,,,,,,,,,2,,,51,36
372030,note_on,60,0,1,,,,,,,,,0,,,77,0
372030,note_on,0,0,1,,,,,,,,,0,,,67,49
372240,note_on,210,0,1,,,,,,,,,0,,,75,0
372240,note_on,0,0,1,,,,,,,,,0,,,70,0
372240,note_on,0,0,1,,,,,,,,,0,,,67,0
372240,note_on,0,0,1,,,,,,,,,0,,,70,75
372240,note_on,0,0,1,,,,,,,,,0,,,74,75
372240,time_signature,210,1,0,5,16,6,8,,,,,,,,,
372240,note_on,210,0,3,,,,,,,,,2,,,51,0
372270,note_on,0,0,1,,,,,,,,,0,,,74,101
372270,note_on,0,0,1,,,,,,,,,0,,,70,93
372270,note_on,0,0,1,,,,,,,,,0,,,70,0
372270,note_on,30,0,1,,,,,,,,,0,,,74,0
372270,note_on,30,0,3,,,,,,,,,2,,,58,62
372330,note_on,0,0,1,,,,,,,,,0,,,77,75
372330,note_on,60,0,1,,,,,,,,,0,,,74,0
372330,note_on,0,0,1,,,,,,,,,0,,,70,0
372390,note_on,120,0,3,,,,,,,,,2,,,58,0
372390,time_signature,150,1,0,3,4,24,8,,,,,,,,,
372390,note_on,720,0,4,,,,,,,,,3,,,57,62
372390,note_on,60,0,1,,,,,,,,,0,,,77,0
372390,note_on,0,0,1,,,,,,,,,0,,,71,75
372390,note_on,0,0,1,,,,,,,,,0,,,74,75
372450,note_on,60,0,1,,,,,,,,,0,,,74,0
372450,note_on,0,0,1,,,,,,,,,0,,,77,75
372450,note_on,0,0,1,,,,,,,,,0,,,71,0
372510,note_on,0,0,1,,,,,,,,,0,,,75,75
372510,note_on,0,0,1,,,,,,,,,0,,,72,75
372510,note_on,60,0,1,,,,,,,,,0,,,77,0
372510,note_on,120,0,3,,,,,,,,,2,,,65,62
372570,note_on,60,0,1,,,,,,,,,0,,,75,0
372570,note_on,0,0,1,,,,,,,,,0,,,72,0
372570,note_on,0,0,1,,,,,,,,,0,,,77,75
372600,note_on,30,0,1,,,,,,,,,0,,,77,0
372600,note_on,0,0,1,,,,,,,,,0,,,69,75
372600,note_on,0,0,1,,,,,,,,,0,,,72,75
372630,note_on,0,0,4,,,,,,,,,3,,,53,62
372630,note_on,0,0,1,,,,,,,,,0,,,72,101
372630,note_on,30,0,1,,,,,,,,,0,,,72,0
372630,note_on,0,0,1,,,,,,,,,0,,,69,93
372630,note_on,240,0,4,,,,,,,,,3,,,57,0
372630,note_on,0,0,1,,,,,,,,,0,,,69,0
372690,note_on,60,0,1,,,,,,,,,0,,,72,0
372690,note_on,0,0,1,,,,,,,,,0,,,77,75
372690,note_on,0,0,1,,,,,,,,,0,,,69,0
372750,note_on,120,0,4,,,,,,,,,3,,,53,0
372750,note_on,0,0,4,,,,,,,,,3,,,58,62
372750,note_on,0,0,1,,,,,,,,,0,,,73,75
372750,note_on,0,0,1,,,,,,,,,0,,,69,75
372750,note_on,60,0,1,,,,,,,,,0,,,77,0
372810,note_on,0,0,1,,,,,,,,,0,,,77,75
372810,note_on,0,0,1,,,,,,,,,0,,,69,0
372810,note_on,60,0,1,,,,,,,,,0,,,73,0
372870,note_on,360,0,3,,,,,,,,,2,,,65,0
372870,note_on,60,0,1,,,,,,,,,0,,,77,0
372870,note_on,0,0,1,,,,,,,,,0,,,70,75
372870,note_on,0,0,1,,,,,,,,,0,,,74,75
372870,note_on,0,0,3,,,,,,,,,2,,,65,62
372930,note_on,60,0,1,,,,,,,,,0,,,74,0
372930,note_on,0,0,1,,,,,,,,,0,,,70,0
372930,note_on,0,0,1,,,,,,,,,0,,,77,75
372960,note_on,0,0,1,,,,,,,,,0,,,74,75
372960,note_on,30,0,1,,,,,,,,,0,,,77,0
372960,note_on,0,0,1,,,,,,,,,0,,,70,75
372990,note_on,0,0,4,,,,,,,,,3,,,58,62
372990,note_on,0,0,1,,,,,,,,,0,,,74,75
372990,note_on,240,0,4,,,,,,,,,3,,,58,0
372990,note_on,0,0,1,,,,,,,,,0,,,70,0
372990,note_on,30,0,1,,,,,,,,,0,,,74,0
372990,note_on,0,0,1,,,,,,,,,0,,,70,75
373050,note_on,60,0,1,,,,,,,,,0,,,74,0
373050,note_on,0,0,1,,,,,,,,,0,,,70,0
373050,note_on,0,0,1,,,,,,,,,0,,,77,75
373110,note_on,60,0,1,,,,,,,,,0,,,77,0
373110,note_on,0,0,1,,,,,,,,,0,,,67,75
373110,note_on,120,0,4,,,,,,,,,3,,,58,0
373110,note_on,0,0,4,,,,,,,,,3,,,51,62
373110,note_on,240,0,3,,,,,,,,,2,,,65,0
373110,note_on,0,0,1,,,,,,,,,0,,,74,75
373170,note_on,60,0,1,,,,,,,,,0,,,74,0
373170,note_on,0,0,1,,,,,,,,,0,,,67,0
373170,note_on,0,0,1,,,,,,,,,0,,,79,75
373230,note_on,120,0,3,,,,,,,,,2,,,60,62
373230,note_on,0,0,1,,,,,,,,,0,,,72,75
373230,note_on,0,0,1,,,,,,,,,0,,,67,75
373230,note_on,60,0,1,,,,,,,,,0,,,79,0
373290,note_on,0,0,1,,,,,,,,,0,,,67,0
373290,note_on,60,0,1,,,,,,,,,0,,,72,0
373290,note_on,0,0,1,,,,,,,,,0,,,79,75
373350,note_on,0,0,1,,,,,,,,,0,,,71,75
373350,note_on,120,0,3,,,,,,,,,2,,,60,0
373350,note_on,60,0,1,,,,,,,,,0,,,79,0
373350,note_on,0,0,3,,,,,,,,,2,,,65,62
373350,note_on,0,0,4,,,,,,,,,3,,,55,62
373350,note_on,240,0,4,,,,,,,,,3,,,51,0
373350,note_on,0,0,1,,,,,,,,,0,,,67,75
373410,note_on,0,0,1,,,,,,,,,0,,,67,0
373410,note_on,0,0,1,,,,,,,,,0,,,79,75
373410,note_on,60,0,1,,,,,,,,,0,,,71,0
373470,note_on,120,0,3,,,,,,,,,2,,,65,0
373470,note_on,120,0,4,,,,,,,,,3,,,55,0
373470,note_on,0,0,3,,,,,,,,,2,,,60,62
373470,note_on,0,0,3,,,,,,,,,2,,,63,62
373470,note_on,0,0,1,,,,,,,,,0,,,79,75
373470,note_on,0,0,1,,,,,,,,,0,,,67,75
373470,note_on,60,0,1,,,,,,,,,0,,,79,0
373470,note_on,0,0,1,,,,,,,,,0,,,72,75
373680,note_on,0,0,1,,,,,,,,,0,,,79,75
373680,note_on,0,0,1,,,,,,,,,0,,,75,75
373680,note_on,0,0,1,,,,,,,,,0,,,67,0
373680,note_on,0,0,1,,,,,,,,,0,,,72,0
373680,note_on,210,0,1,,,,,,,,,0,,,79,0
373710,note_on,0,0,3,,,,,,,,,2,,,60,0
373710,note_on,0,0,3,,,,,,,,,2,,,48,62
373710,note_on,0,0,1,,,,,,,,,0,,,75,93
373710,note_on,240,0,3,,,,,,,,,2,,,63,0
373710,note_on,0,0,1,,,,,,,,,0,,,75,0
373710,note_on,30,0,1,,,,,,,,,0,,,79,0
373710,note_on,0,0,1,,,,,,,,,0,,,79,101
373770,note_on,0,0,1,,,,,,,,,0,,,84,75
373770,note_on,60,0,1,,,,,,,,,0,,,79,0
373770,note_on,0,0,1,,,,,,,,,0,,,75,0
373830,note_on,120,0,3,,,,,,,,,2,,,48,0
373830,note_on,360,0,4,,,,,,,,,3,,,53,62
373830,note_on,0,0,1,,,,,,,,,0,,,77,75
373830,note_on,0,0,1,,,,,,,,,0,,,74,75
373830,note_on,60,0,1,,,,,,,,,0,,,84,0
373890,note_on,0,0,1,,,,,,,,,0,,,82,75
373890,note_on,0,0,1,,,,,,,,,0,,,74,0
373890,note_on,60,0,1,,,,,,,,,0,,,77,0
373950,note_on,0,0,1,,,,,,,,,0,,,72,75
373950,note_on,0,0,1,,,,,,,,,0,,,77,75
373950,note_on,60,0,1,,,,,,,,,0,,,82,0
373950,note_on,120,0,3,,,,,,,,,2,,,65,62
374010,note_on,0,0,1,,,,,,,,,0,,,81,75
374010,note_on,60,0,1,,,,,,,,,0,,,77,0
374010,note_on,0,0,1,,,,,,,,,0,,,72,0
374040,note_on,30,0,1,,,,,,,,,0,,,81,0
374040,note_on,0,0,1,,,,,,,,,0,,,77,75
374070,note_on,0,0,1,,,,,,,,,0,,,77,101
374070,note_on,30,0,1,,,,,,,,,0,,,77,0
374070,note_on,0,0,4,,,,,,,,,3,,,50,62
374070,note_on,240,0,4,,,,,,,,,3,,,53,0
374070,note_on,120,0,3,,,,,,,,,2,,,65,0
374130,note_on,0,0,1,,,,,,,,,0,,,86,75
374130,note_on,60,0,1,,,,,,,,,0,,,77,0
374190,note_on,0,0,4,,,,,,,,,3,,,55,62
374190,note_on,120,0,4,,,,,,,,,3,,,50,0
374190,note_on,60,0,1,,,,,,,,,0,,,86,0
374190,note_on,0,0,1,,,,,,,,,0,,,75,75
374250,note_on,60,0,1,,,,,,,,,0,,,75,0
374250,note_on,0,0,1,,,,,,,,,0,,,84,75
374310,note_on,60,0,1,,,,,,,,,0,,,84,0
374310,note_on,0,0,1,,,,,,,,,0,,,74,75
374310,note_on,240,0,3,,,,,,,,,2,,,67,62
374370,note_on,60,0,1,,,,,,,,,0,,,74,0
374370,note_on,0,0,1,,,,,,,,,0,,,82,75
374430,note_on,240,0,4,,,,,,,,,3,,,55,0
374430,note_on,60,0,1,,,,,,,,,0,,,82,0
374430,note_on,2760,0,2,,,,,,,,,1,,,75,36
374430,note_on,0,0,4,,,,,,,,,3,,,51,62
374430,note_on,120,0,3,,,,,,,,,2,,,67,0
374430,note_on,0,0,1,,,,,,,,,0,,,81,75
374490,note_on,60,0,1,,,,,,,,,0,,,81,0
374490,note_on,0,0,1,,,,,,,,,0,,,79,75
374550,note_on,0,0,2,,,,,,,,,1,,,69,36
374550,note_on,0,0,1,,,,,,,,,0,,,75,75
374550,note_on,0,0,4,,,,,,,,,3,,,53,62
374550,note_on,120,0,4,,,,,,,,,3,,,51,0
374550,note_on,60,0,1,,,,,,,,,0,,,79,0
374550,note_on,120,0,2,,,,,,,,,1,,,75,0
374610,note_on,60,0,1,,,,,,,,,0,,,75,0
374610,note_on,0,0,1,,,,,,,,,0,,,77,75
374670,note_on,60,0,1,,,,,,,,,0,,,77,0
374670,note_on,0,0,1,,,,,,,,,0,,,75,75
374670,note_on,0,0,2,,,,,,,,,1,,,70,36
374670,note_on,240,0,3,,,,,,,,,2,,,65,62
374670,note_on,120,0,2,,,,,,,,,1,,,69,0
374682,note_on,12,0,3,,,,,,,,,2,,,65,0
374730,note_on,60,0,1,,,,,,,,,0,,,75,0
374730,note_on,0,0,1,,,,,,,,,0,,,79,75
374790,note_on,0,0,1,,,,,,,,,0,,,75,75
374790,note_on,120,0,2,,,,,,,,,1,,,70,0
374790,note_on,0,0,2,,,,,,,,,1,,,72,36
374790,note_on,108,0,3,,,,,,,,,2,,,65,62
374790,note_on,60,0,1,,,,,,,,,0,,,79,0
374802,note_on,12,0,3,,,,,,,,,2,,,65,0
374850,note_on,0,0,1,,,,,,,,,0,,,81,75
374850,note_on,60,0,1,,,,,,,,,0,,,75,0
374910,note_on,0,0,1,,,,,,,,,0,,,70,75
374910,note_on,0,0,3,,,,,,,,,2,,,65,62
374910,note_on,0,0,1,,,,,,,,,0,,,74,75
374910,note_on,60,0,1,,,,,,,,,0,,,81,0
374910,note_on,108,0,3,,,,,,,,,2,,,58,62
374910,note_on,360,0,4,,,,,,,,,3,,,53,0
374910,note_on,120,0,2,,,,,,,,,1,,,72,0
374910,note_on,0,0,1,,,,,,,,,0,,,82,75
375120,note_on,210,0,3,,,,,,,,,2,,,65,0
375120,note_on,0,0,3,,,,,,,,,2,,,58,0
375120,note_on,0,0,1,,,,,,,,,0,,,67,49
375120,note_on,210,0,1,,,,,,,,,0,,,82,0
375120,note_on,0,0,1,,,,,,,,,0,,,70,0
375120,note_on,0,0,1,,,,,,,,,0,,,70,49
375120,note_on,0,0,1,,,,,,,,,0,,,74,0
375150,note_on,0,0,3,,,,,,,,,2,,,58,36
375150,note_on,30,0,1,,,,,,,,,0,,,70,0
375150,note_on,0,0,1,,,,,,,,,0,,,67,0
375150,note_on,0,0,1,,,,,,,,,0,,,67,49
375150,note_on,0,0,1,,,,,,,,,0,,,70,49
375150,note_on,30,0,3,,,,,,,,,2,,,51,36
375210,note_on,60,0,1,,,,,,,,,0,,,70,0
375210,note_on,0,0,1,,,,,,,,,0,,,75,49
375210,note_on,0,0,1,,,,,,,,,0,,,67,0
375270,note_on,0,0,3,,,,,,,,,2,,,51,0
375270,note_on,360,0,2,,,,,,,,,1,,,68,36
375270,note_on,360,0,4,,,,,,,,,3,,,46,36
375270,note_on,120,0,3,,,,,,,,,2,,,58,0
375270,note_on,0,0,1,,,,,,,,,0,,,68,49
375270,note_on,0,0,1,,,,,,,,,0,,,65,49
375270,note_on,60,0,1,,,,,,,,,0,,,75,0
375330,note_on,60,0,1,,,,,,,,,0,,,68,0
375330,note_on,0,0,1,,,,,,,,,0,,,75,49
375330,note_on,0,0,1,,,,,,,,,0,,,65,0
375390,note_on,120,0,3,,,,,,,,,2,,,58,36
375390,note_on,60,0,1,,,,,,,,,0,,,75,0
375390,note_on,0,0,1,,,,,,,,,0,,,74,49
375402,note_on,12,0,3,,,,,,,,,2,,,58,0
375450,note_on,60,0,1,,,,,,,,,0,,,74,0
375450,note_on,0,0,1,,,,,,,,,0,,,65,49
375510,note_on,108,0,3,,,,,,,,,2,,,58,36
375510,note_on,60,0,1,,,,,,,,,0,,,65,0
375510,note_on,0,0,1,,,,,,,,,0,,,68,49
375510,note_on,0,0,1,,,,,,,,,0,,,63,49
375510,note_on,240,0,2,,,,,,,,,1,,,68,0
375510,note_on,0,0,2,,,,,,,,,1,,,68,36
375522,note_on,12,0,3,,,,,,,,,2,,,58,0
375570,note_on,0,0,1,,,,,,,,,0,,,72,49
375570,note_on,60,0,1,,,,,,,,,0,,,68,0
375570,note_on,0,0,1,,,,,,,,,0,,,63,0
375630,note_on,0,0,1,,,,,,,,,0,,,62,49
375630,note_on,60,0,1,,,,,,,,,0,,,72,0
375630,note_on,0,0,4,,,,,,,,,3,,,46,36
375630,note_on,360,0,4,,,,,,,,,3,,,46,0
375630,note_on,0,0,2,,,,,,,,,1,,,62,36
375630,note_on,120,0,2,,,,,,,,,1,,,68,0
375690,note_on,60,0,1,,,,,,,,,0,,,62,0
375690,note_on,0,0,1,,,,,,,,,0,,,70,49
375750,note_on,228,0,3,,,,,,,,,2,,,58,36
375750,note_on,60,0,1,,,,,,,,,0,,,70,0
375750,note_on,0,0,1,,,,,,,,,0,,,68,49
375762,note_on,12,0,3,,,,,,,,,2,,,58,0
375810,note_on,0,0,1,,,,,,,,,0,,,62,49
375810,note_on,60,0,1,,,,,,,,,0,,,68,0
375870,note_on,60,0,1,,,,,,,,,0,,,62,0
375870,note_on,240,0,2,,,,,,,,,1,,,62,0
375870,note_on,0,0,2,,,,,,,,,1,,,62,36
375870,note_on,108,0,3,,,,,,,,,2,,,58,36
375870,note_on,0,0,1,,,,,,,,,0,,,68,49
375882,note_on,12,0,3,,,,,,,,,2,,,58,0
375930,note_on,0,0,1,,,,,,,,,0,,,70,49
375930,note_on,60,0,1,,,,,,,,,0,,,68,0
375990,note_on,360,0,4,,,,,,,,,3,,,46,0
375990,note_on,0,0,4,,,,,,,,,3,,,51,36
375990,note_on,0,0,1,,,,,,,,,0,,,67,49
375990,note_on,60,0,1,,,,,,,,,0,,,70,0
375990,note_on,0,0,2,,,,,,,,,1,,,63,36
375990,note_on,120,0,2,,,,,,,,,1,,,62,0
376050,note_on,0,0,1,,,,,,,,,0,,,72,49
376050,note_on,60,0,1,,,,,,,,,0,,,67,0
376110,note_on,0,0,1,,,,,,,,,0,,,70,49
376110,note_on,228,0,3,,,,,,,,,2,,,58,36
376110,note_on,60,0,1,,,,,,,,,0,,,72,0
376122,note_on,12,0,3,,,,,,,,,2,,,58,0
376170,note_on,60,0,1,,,,,,,,,0,,,70,0
376170,note_on,0,0,1,,,,,,,,,0,,,67,49
376230,note_on,60,0,1,,,,,,,,,0,,,67,0
376230,note_on,240,0,2,,,,,,,,,1,,,63,0
376230,note_on,0,0,2,,,,,,,,,1,,,63,36
376230,note_on,0,0,1,,,,,,,,,0,,,67,49
376230,note_on,108,0,3,,,,,,,,,2,,,58,36
376242,note_on,12,0,3,,,,,,,,,2,,,58,0
376290,note_on,60,0,1,,,,,,,,,0,,,67,0
376290,note_on,0,0,1,,,,,,,,,0,,,70,49
376350,note_on,120,0,2,,,,,,,,,1,,,63,0
376350,note_on,360,0,4,,,,,,,,,3,,,51,0
376350,note_on,0,0,4,,,,,,,,,3,,,51,36
376350,note_on,60,0,1,,,,,,,,,0,,,70,0
376350,note_on,0,0,1,,,,,,,,,0,,,63,49
376350,note_on,0,0,1,,,,,,,,,0,,,68,49
376410,note_on,0,0,1,,,,,,,,,0,,,63,0
376410,note_on,60,0,1,,,,,,,,,0,,,68,0
376410,note_on,0,0,1,,,,,,,,,0,,,72,49
376470,note_on,60,0,1,,,,,,,,,0,,,72,0
376470,note_on,0,0,1,,,,,,,,,0,,,67,49
376470,note_on,0,0,1,,,,,,,,,0,,,70,49
376470,note_on,228,0,3,,,,,,,,,2,,,58,36
376482,note_on,12,0,3,,,,,,,,,2,,,58,0
376530,note_on,60,0,1,,,,,,,,,0,,,70,0
376530,note_on,0,0,1,,,,,,,,,0,,,67,0
376530,note_on,0,0,1,,,,,,,,,0,,,75,49
376590,note_on,60,0,1,,,,,,,,,0,,,75,0
376590,note_on,0,0,1,,,,,,,,,0,,,79,49
376590,note_on,108,0,3,,,,,,,,,2,,,58,36
376602,note_on,12,0,3,,,,,,,,,2,,,58,0
376650,note_on,0,0,1,,,,,,,,,0,,,75,49
376650,note_on,60,0,1,,,,,,,,,0,,,79,0
376710,note_on,60,0,1,,,,,,,,,0,,,75,0
376710,note_on,360,0,2,,,,,,,,,1,,,68,36
376710,note_on,0,0,1,,,,,,,,,0,,,65,49
376710,note_on,0,0,1,,,,,,,,,0,,,68,49
376710,note_on,360,0,4,,,,,,,,,3,,,51,0
376710,note_on,0,0,4,,,,,,,,,3,,,46,36
376770,note_on,0,0,1,,,,,,,,,0,,,75,49
376770,note_on,0,0,1,,,,,,,,,0,,,65,0
376770,note_on,60,0,1,,,,,,,,,0,,,68,0
376830,note_on,0,0,1,,,,,,,,,0,,,74,49
376830,note_on,60,0,1,,,,,,,,,0,,,75,0
376830,note_on,228,0,3,,,,,,,,,2,,,58,36
376842,note_on,12,0,3,,,,,,,,,2,,,58,0
376890,note_on,60,0,1,,,,,,,,,0,,,74,0
376890,note_on,0,0,1,,,,,,,,,0,,,65,49
376950,note_on,0,0,1,,,,,,,,,0,,,63,49
376950,note_on,0,0,1,,,,,,,,,0,,,68,49
376950,note_on,0,0,2,,,,,,,,,1,,,68,36
376950,note_on,240,0,2,,,,,,,,,1,,,68,0
376950,note_on,60,0,1,,,,,,,,,0,,,65,0
376950,note_on,108,0,3,,,,,,,,,2,,,58,36
376962,note_on,12,0,3,,,,,,,,,2,,,58,0
377010,note_on,60,0,1,,,,,,,,,0,,,68,0
377010,note_on,0,0,1,,,,,,,,,0,,,63,0
377010,note_on,0,0,1,,,,,,,,,0,,,72,49
377070,note_on,120,0,2,,,,,,,,,1,,,68,0
377070,note_on,0,0,2,,,,,,,,,1,,,62,36
377070,note_on,360,0,4,,,,,,,,,3,,,46,0
377070,note_on,0,0,4,,,,,,,,,3,,,46,36
377070,note_on,60,0,1,,,,,,,,,0,,,72,0
377070,note_on,0,0,1,,,,,,,,,0,,,68,49
377130,note_on,60,0,1,,,,,,,,,0,,,68,0
377130,note_on,0,0,1,,,,,,,,,0,,,70,49
377190,note_on,60,0,1,,,,,,,,,0,,,70,0
377190,note_on,228,0,3,,,,,,,,,2,,,58,36
377190,note_on,0,0,1,,,,,,,,,0,,,68,49
377190,note_on,0,0,2,,,,,,,,,1,,,63,36
377190,note_on,120,0,2,,,,,,,,,1,,,62,0
377202,note_on,12,0,3,,,,,,,,,2,,,58,0
377250,note_on,60,0,1,,,,,,,,,0,,,68,0
377250,note_on,0,0,1,,,,,,,,,0,,,72,49
377310,note_on,0,0,1,,,,,,,,,0,,,68,49
377310,note_on,60,0,1,,,,,,,,,0,,,72,0
377310,note_on,120,0,2,,,,,,,,,1,,,63,0
377310,note_on,0,0,2,,,,,,,,,1,,,65,36
377310,note_on,108,0,3,,,,,,,,,2,,,58,36
377322,note_on,12,0,3,,,,,,,,,2,,,58,0
377370,note_on,0,0,1,,,,,,,,,0,,,74,49
377370,note_on,60,0,1,,,,,,,,,0,,,68,0
377430,note_on,360,0,4,,,,,,,,,3,,,46,0
377430,note_on,108,0,3,,,,,,,,,2,,,51,36
377430,note_on,120,0,2,,,,,,,,,1,,,65,0
377430,note_on,60,0,1,,,,,,,,,0,,,74,0
377430,note_on,0,0,1,,,,,,,,,0,,,67,49
377490,note_on,60,0,1,,,,,,,,,0,,,67,0
377490,note_on,0,0,1,,,,,,,,,0,,,75,49
377550,note_on,0,0,1,,,,,,,,,0,,,70,49
377550,note_on,0,0,3,,,,,,,,,2,,,58,36
377550,note_on,120,0,3,,,,,,,,,2,,,51,0
377550,note_on,0,0,1,,,,,,,,,0,,,67,49
377550,note_on,60,0,1,,,,,,,,,0,,,75,0
377610,note_on,0,0,1,,,,,,,,,0,,,79,49
377610,note_on,0,0,1,,,,,,,,,0,,,67,0
377610,note_on,60,0,1,,,,,,,,,0,,,70,0
377670,note_on,0,0,1,,,,,,,,,0,,,68,49
377670,note_on,120,0,3,,,,,,,,,2,,,58,0
377670,note_on,0,0,3,,,,,,,,,2,,,46,36
377670,note_on,0,0,1,,,,,,,,,0,,,70,49
377670,note_on,60,0,1,,,,,,,,,0,,,79,0
377730,note_on,0,0,1,,,,,,,,,0,,,77,49
377730,note_on,0,0,1,,,,,,,,,0,,,68,0
377730,note_on,60,0,1,,,,,,,,,0,,,70,0
377790,note_on,0,0,3,,,,,,,,,2,,,51,36
377790,note_on,0,0,1,,,,,,,,,0,,,75,49
377790,note_on,0,0,1,,,,,,,,,0,,,70,49
377790,note_on,0,0,1,,,,,,,,,0,,,67,49
377790,note_on,60,0,1,,,,,,,,,0,,,77,0
377790,note_on,120,0,3,,,,,,,,,2,,,46,0
377790,time_signature,5400,1,0,7,16,6,8,,,,,,,,,
378000,note_on,210,0,3,,,,,,,,,2,,,51,0
378000,note_on,0,0,1,,,,,,,,,0,,,70,75
378000,note_on,0,0,1,,,,,,,,,0,,,74,75
378000,note_on,0,0,1,,,,,,,,,0,,,67,0
378000,note_on,0,0,1,,,,,,,,,0,,,70,0
378000,note_on,210,0,1,,,,,,,,,0,,,75,0
378000,time_signature,210,1,0,5,16,6,8,,,,,,,,,
378030,note_on,0,0,1,,,,,,,,,0,,,74,101
378030,note_on,0,0,1,,,,,,,,,0,,,70,93
378030,note_on,0,0,1,,,,,,,,,0,,,70,0
378030,note_on,30,0,1,,,,,,,,,0,,,74,0
378030,note_on,30,0,3,,,,,,,,,2,,,58,62
378090,note_on,0,0,1,,,,,,,,,0,,,77,75
378090,note_on,0,0,1,,,,,,,,,0,,,70,0
378090,note_on,60,0,1,,,,,,,,,0,,,74,0
378150,note_on,120,0,3,,,,,,,,,2,,,58,0
378150,time_signature,150,1,0,3,4,24,8,,,,,,,,,
378150,note_on,60,0,1,,,,,,,,,0,,,77,0
378150,note_on,0,0,1,,,,,,,,,0,,,71,75
378150,note_on,0,0,1,,,,,,,,,0,,,74,75
378150,note_on,720,0,4,,,,,,,,,3,,,57,62
378210,note_on,60,0,1,,,,,,,,,0,,,74,0
378210,note_on,0,0,1,,,,,,,,,0,,,71,0
378210,note_on,0,0,1,,,,,,,,,0,,,77,75
378270,note_on,0,0,1,,,,,,,,,0,,,72,75
378270,note_on,120,0,3,,,,,,,,,2,,,65,62
378270,note_on,60,0,1,,,,,,,,,0,,,77,0
378270,note_on,0,0,1,,,,,,,,,0,,,75,75
378330,note_on,60,0,1,,,,,,,,,0,,,75,0
378330,note_on,0,0,1,,,,,,,,,0,,,72,0
378330,note_on,0,0,1,,,,,,,,,0,,,77,75
378360,note_on,0,0,1,,,,,,,,,0,,,69,75
378360,note_on,30,0,1,,,,,,,,,0,,,77,0
378360,note_on,0,0,1,,,,,,,,,0,,,72,75
378390,note_on,0,0,4,,,,,,,,,3,,,53,62
378390,note_on,240,0,4,,,,,,,,,3,,,57,0
378390,note_on,0,0,1,,,,,,,,,0,,,72,101
378390,note_on,0,0,1,,,,,,,,,0,,,69,93
378390,note_on,0,0,1,,,,,,,,,0,,,69,0
378390,note_on,30,0,1,,,,,,,,,0,,,72,0
378450,note_on,0,0,1,,,,,,,,,0,,,77,75
378450,note_on,60,0,1,,,,,,,,,0,,,72,0
378450,note_on,0,0,1,,,,,,,,,0,,,69,0
378510,note_on,0,0,1,,,,,,,,,0,,,69,75
378510,note_on,0,0,1,,,,,,,,,0,,,73,75
378510,note_on,120,0,4,,,,,,,,,3,,,53,0
378510,note_on,0,0,4,,,,,,,,,3,,,58,62
378510,note_on,60,0,1,,,,,,,,,0,,,77,0
378570,note_on,0,0,1,,,,,,,,,0,,,77,75
378570,note_on,0,0,1,,,,,,,,,0,,,69,0
378570,note_on,60,0,1,,,,,,,,,0,,,73,0
378630,note_on,0,0,1,,,,,,,,,0,,,74,75
378630,note_on,60,0,1,,,,,,,,,0,,,77,0
378630,note_on,0,0,3,,,,,,,,,2,,,65,62
378630,note_on,360,0,3,,,,,,,,,2,,,65,0
378630,note_on,0,0,1,,,,,,,,,0,,,70,75
378690,note_on,0,0,1,,,,,,,,,0,,,70,0
378690,note_on,60,0,1,,,,,,,,,0,,,74,0
378690,note_on,0,0,1,,,,,,,,,0,,,77,75
378720,note_on,30,0,1,,,,,,,,,0,,,77,0
378720,note_on,0,0,1,,,,,,,,,0,,,70,75
378720,note_on,0,0,1,,,,,,,,,0,,,74,75
378750,note_on,0,0,1,,,,,,,,,0,,,70,0
378750,note_on,0,0,1,,,,,,,,,0,,,74,75
378750,note_on,0,0,1,,,,,,,,,0,,,70,75
378750,note_on,30,0,1,,,,,,,,,0,,,74,0
378750,note_on,240,0,4,,,,,,,,,3,,,58,0
378750,note_on,0,0,4,,,,,,,,,3,,,58,62
378810,note_on,0,0,1,,,,,,,,,0,,,77,75
378810,note_on,60,0,1,,,,,,,,,0,,,74,0
378810,note_on,0,0,1,,,,,,,,,0,,,70,0
378870,note_on,120,0,4,,,,,,,,,3,,,58,0
378870,note_on,0,0,4,,,,,,,,,3,,,51,62
378870,note_on,60,0,1,,,,,,,,,0,,,77,0
378870,note_on,0,0,1,,,,,,,,,0,,,67,75
378870,note_on,0,0,1,,,,,,,,,0,,,74,75
378870,note_on,240,0,3,,,,,,,,,2,,,65,0
378930,note_on,0,0,1,,,,,,,,,0,,,67,0
378930,note_on,0,0,1,,,,,,,,,0,,,79,75
378930,note_on,60,0,1,,,,,,,,,0,,,74,0
378990,note_on,60,0,1,,,,,,,,,0,,,79,0
378990,note_on,0,0,1,,,,,,,,,0,,,72,75
378990,note_on,0,0,1,,,,,,,,,0,,,67,75
378990,note_on,120,0,3,,,,,,,,,2,,,60,62
379050,note_on,0,0,1,,,,,,,,,0,,,79,75
379050,note_on,0,0,1,,,,,,,,,0,,,67,0
379050,note_on,60,0,1,,,,,,,,,0,,,72,0
379110,note_on,0,0,3,,,,,,,,,2,,,65,62
379110,note_on,120,0,3,,,,,,,,,2,,,60,0
379110,note_on,0,0,4,,,,,,,,,3,,,55,62
379110,note_on,60,0,1,,,,,,,,,0,,,79,0
379110,note_on,240,0,4,,,,,,,,,3,,,51,0
379110,note_on,0,0,1,,,,,,,,,0,,,71,75
379110,note_on,0,0,1,,,,,,,,,0,,,67,75
379170,note_on,0,0,1,,,,,,,,,0,,,67,0
379170,note_on,0,0,1,,,,,,,,,0,,,79,75
379170,note_on,60,0,1,,,,,,,,,0,,,71,0
379230,note_on,120,0,3,,,,,,,,,2,,,65,0
379230,note_on,0,0,3,,,,,,,,,2,,,63,62
379230,note_on,0,0,3,,,,,,,,,2,,,60,62
379230,note_on,120,0,4,,,,,,,,,3,,,55,0
379230,note_on,0,0,1,,,,,,,,,0,,,72,75
379230,note_on,0,0,1,,,,,,,,,0,,,67,75
379230,note_on,60,0,1,,,,,,,,,0,,,79,0
379230,note_on,0,0,1,,,,,,,,,0,,,79,75
379440,note_on,210,0,1,,,,,,,,,0,,,79,0
379440,note_on,0,0,1,,,,,,,,,0,,,72,0
379440,note_on,0,0,1,,,,,,,,,0,,,67,0
379440,note_on,0,0,1,,,,,,,,,0,,,79,75
379440,note_on,0,0,1,,,,,,,,,0,,,75,75
379470,note_on,0,0,3,,,,,,,,,2,,,48,62
379470,note_on,240,0,3,,,,,,,,,2,,,63,0
379470,note_on,0,0,3,,,,,,,,,2,,,60,0
379470,note_on,0,0,1,,,,,,,,,0,,,79,101
379470,note_on,0,0,1,,,,,,,,,0,,,75,0
379470,note_on,30,0,1,,,,,,,,,0,,,79,0
379470,note_on,0,0,1,,,,,,,,,0,,,75,93
379530,note_on,0,0,1,,,,,,,,,0,,,75,0
379530,note_on,60,0,1,,,,,,,,,0,,,79,0
379530,note_on,0,0,1,,,,,,,,,0,,,84,75
379590,note_on,120,0,3,,,,,,,,,2,,,48,0
379590,note_on,60,0,1,,,,,,,,,0,,,84,0
379590,note_on,0,0,1,,,,,,,,,0,,,77,75
379590,note_on,0,0,1,,,,,,,,,0,,,74,75
379590,note_on,360,0,4,,,,,,,,,3,,,53,62
379650,note_on,0,0,1,,,,,,,,,0,,,82,75
379650,note_on,0,0,1,,,,,,,,,0,,,74,0
379650,note_on,60,0,1,,,,,,,,,0,,,77,0
379710,note_on,60,0,1,,,,,,,,,0,,,82,0
379710,note_on,0,0,1,,,,,,,,,0,,,72,75
379710,note_on,120,0,3,,,,,,,,,2,,,65,62
379710,note_on,0,0,1,,,,,,,,,0,,,77,75
379770,note_on,60,0,1,,,,,,,,,0,,,77,0
379770,note_on,0,0,1,,,,,,,,,0,,,72,0
379770,note_on,0,0,1,,,,,,,,,0,,,81,75
379800,note_on,30,0,1,,,,,,,,,0,,,81,0
379800,note_on,0,0,1,,,,,,,,,0,,,77,75
379830,note_on,240,0,4,,,,,,,,,3,,,53,0
379830,note_on,0,0,4,,,,,,,,,3,,,50,62
379830,note_on,120,0,3,,,,,,,,,2,,,65,0
379830,note_on,0,0,1,,,,,,,,,0,,,77,101
379830,note_on,30,0,1,,,,,,,,,0,,,77,0
379890,note_on,60,0,1,,,,,,,,,0,,,77,0
379890,note_on,0,0,1,,,,,,,,,0,,,86,75
379950,note_on,60,0,1,,,,,,,,,0,,,86,0
379950,note_on,0,0,4,,,,,,,,,3,,,55,62
379950,note_on,120,0,4,,,,,,,,,3,,,50,0
379950,note_on,0,0,1,,,,,,,,,0,,,75,75
380010,note_on,60,0,1,,,,,,,,,0,,,75,0
380010,note_on,0,0,1,,,,,,,,,0,,,84,75
380070,note_on,240,0,3,,,,,,,,,2,,,67,62
380070,note_on,0,0,1,,,,,,,,,0,,,74,75
380070,note_on,60,0,1,,,,,,,,,0,,,84,0
380130,note_on,0,0,1,,,,,,,,,0,,,82,75
380130,note_on,60,0,1,,,,,,,,,0,,,74,0
380190,note_on,120,0,3,,,,,,,,,2,,,67,0
380190,note_on,240,0,4,,,,,,,,,3,,,55,0
380190,note_on,2760,0,2,,,,,,,,,1,,,75,36
380190,note_on,0,0,4,,,,,,,,,3,,,51,62
380190,note_on,0,0,1,,,,,,,,,0,,,81,75
380190,note_on,60,0,1,,,,,,,,,0,,,82,0
380250,note_on,0,0,1,,,,,,,,,0,,,79,75
380250,note_on,60,0,1,,,,,,,,,0,,,81,0
380310,note_on,60,0,1,,,,,,,,,0,,,79,0
380310,note_on,120,0,2,,,,,,,,,1,,,75,0
380310,note_on,0,0,2,,,,,,,,,1,,,69,36
380310,note_on,0,0,1,,,,,,,,,0,,,75,75
380310,note_on,0,0,4,,,,,,,,,3,,,53,62
380310,note_on,120,0,4,,,,,,,,,3,,,51,0
380370,note_on,60,0,1,,,,,,,,,0,,,75,0
380370,note_on,0,0,1,,,,,,,,,0,,,77,75
380430,note_on,240,0,3,,,,,,,,,2,,,65,62
380430,note_on,60,0,1,,,,,,,,,0,,,77,0
380430,note_on,120,0,2,,,,,,,,,1,,,69,0
380430,note_on,0,0,2,,,,,,,,,1,,,70,36
380430,note_on,0,0,1,,,,,,,,,0,,,75,75
380442,note_on,12,0,3,,,,,,,,,2,,,65,0
380490,note_on,60,0,1,,,,,,,,,0,,,75,0
380490,note_on,0,0,1,,,,,,,,,0,,,79,75
380550,note_on,108,0,3,,,,,,,,,2,,,65,62
380550,note_on,0,0,1,,,,,,,,,0,,,75,75
380550,note_on,60,0,1,,,,,,,,,0,,,79,0
380550,note_on,0,0,2,,,,,,,,,1,,,72,36
380550,note_on,120,0,2,,,,,,,,,1,,,70,0
380562,note_on,12,0,3,,,,,,,,,2,,,65,0
380610,note_on,0,0,1,,,,,,,,,0,,,81,75
380610,note_on,60,0,1,,,,,,,,,0,,,75,0
380670,note_on,120,0,2,,,,,,,,,1,,,72,0
380670,note_on,60,0,1,,,,,,,,,0,,,81,0
380670,note_on,0,0,1,,,,,,,,,0,,,70,75
380670,note_on,0,0,1,,,,,,,,,0,,,74,75
380670,note_on,0,0,1,,,,,,,,,0,,,82,75
380670,note_on,108,0,3,,,,,,,,,2,,,58,62
380670,note_on,360,0,4,,,,,,,,,3,,,53,0
380670,note_on,0,0,3,,,,,,,,,2,,,65,62
380880,note_on,210,0,3,,,,,,,,,2,,,65,0
380880,note_on,0,0,3,,,,,,,,,2,,,58,0
380880,note_on,0,0,1,,,,,,,,,0,,,74,0
380880,note_on,210,0,1,,,,,,,,,0,,,82,0
380880,note_on,0,0,1,,,,,,,,,0,,,67,49
380880,note_on,0,0,1,,,,,,,,,0,,,70,49
380880,note_on,0,0,1,,,,,,,,,0,,,70,0
380910,note_on,30,0,1,,,,,,,,,0,,,70,0
380910,note_on,0,0,1,,,,,,,,,0,,,67,0
380910,note_on,30,0,3,,,,,,,,,2,,,51,36
380910,note_on,0,0,3,,,,,,,,,2,,,58,36
380910,note_on,0,0,1,,,,,,,,,0,,,67,49
380910,note_on,0,0,1,,,,,,,,,0,,,70,49
380970,note_on,0,0,1,,,,,,,,,0,,,75,49
380970,note_on,0,0,1,,,,,,,,,0,,,67,0
380970,note_on,60,0,1,,,,,,,,,0,,,70,0
381030,note_on,0,0,3,,,,,,,,,2,,,51,0
381030,note_on,360,0,4,,,,,,,,,3,,,46,36
381030,note_on,360,0,2,,,,,,,,,1,,,68,36
381030,note_on,60,0,1,,,,,,,,,0,,,75,0
381030,note_on,120,0,3,,,,,,,,,2,,,58,0
381030,note_on,0,0,1,,,,,,,,,0,,,65,49
381030,note_on,0,0,1,,,,,,,,,0,,,68,49
381090,note_on,60,0,1,,,,,,,,,0,,,68,0
381090,note_on,0,0,1,,,,,,,,,0,,,65,0
381090,note_on,0,0,1,,,,,,,,,0,,,75,49
381150,note_on,120,0,3,,,,,,,,,2,,,58,36
381150,note_on,60,0,1,,,,,,,,,0,,,75,0
381150,note_on,0,0,1,,,,,,,,,0,,,74,49
381162,note_on,12,0,3,,,,,,,,,2,,,58,0
381210,note_on,60,0,1,,,,,,,,,0,,,74,0
381210,note_on,0,0,1,,,,,,,,,0,,,65,49
381270,note_on,108,0,3,,,,,,,,,2,,,58,36
381270,note_on,0,0,2,,,,,,,,,1,,,68,36
381270,note_on,0,0,1,,,,,,,,,0,,,68,49
381270,note_on,0,0,1,,,,,,,,,0,,,63,49
381270,note_on,240,0,2,,,,,,,,,1,,,68,0
381270,note_on,60,0,1,,,,,,,,,0,,,65,0
381282,note_on,12,0,3,,,,,,,,,2,,,58,0
381330,note_on,0,0,1,,,,,,,,,0,,,72,49
381330,note_on,0,0,1,,,,,,,,,0,,,63,0
381330,note_on,60,0,1,,,,,,,,,0,,,68,0
381390,note_on,0,0,1,,,,,,,,,0,,,62,49
381390,note_on,60,0,1,,,,,,,,,0,,,72,0
381390,note_on,360,0,4,,,,,,,,,3,,,46,0
381390,note_on,120,0,2,,,,,,,,,1,,,68,0
381390,note_on,0,0,2,,,,,,,,,1,,,62,36
381390,note_on,0,0,4,,,,,,,,,3,,,46,36
381450,note_on,0,0,1,,,,,,,,,0,,,70,49
381450,note_on,60,0,1,,,,,,,,,0,,,62,0
381510,note_on,0,0,1,,,,,,,,,0,,,68,49
381510,note_on,60,0,1,,,,,,,,,0,,,70,0
381510,note_on,228,0,3,,,,,,,,,2,,,58,36
381522,note_on,12,0,3,,,,,,,,,2,,,58,0
381570,note_on,60,0,1,,,,,,,,,0,,,68,0
381570,note_on,0,0,1,,,,,,,,,0,,,62,49
381630,note_on,0,0,2,,,,,,,,,1,,,62,36
381630,note_on,240,0,2,,,,,,,,,1,,,62,0
381630,note_on,60,0,1,,,,,,,,,0,,,62,0
381630,note_on,0,0,1,,,,,,,,,0,,,68,49
381630,note_on,108,0,3,,,,,,,,,2,,,58,36
381642,note_on,12,0,3,,,,,,,,,2,,,58,0
381690,note_on,0,0,1,,,,,,,,,0,,,70,49
381690,note_on,60,0,1,,,,,,,,,0,,,68,0
381750,note_on,120,0,2,,,,,,,,,1,,,62,0
381750,note_on,0,0,4,,,,,,,,,3,,,51,36
381750,note_on,0,0,1,,,,,,,,,0,,,67,49
381750,note_on,60,0,1,,,,,,,,,0,,,70,0
381750,note_on,360,0,4,,,,,,,,,3,,,46,0
381750,note_on,0,0,2,,,,,,,,,1,,,63,36
381810,note_on,60,0,1,,,,,,,,,0,,,67,0
381810,note_on,0,0,1,,,,,,,,,0,,,72,49
381870,note_on,60,0,1,,,,,,,,,0,,,72,0
381870,note_on,0,0,1,,,,,,,,,0,,,70,49
381870,note_on,228,0,3,,,,,,,,,2,,,58,36
381882,note_on,12,0,3,,,,,,,,,2,,,58,0
381930,note_on,60,0,1,,,,,,,,,0,,,70,0
381930,note_on,0,0,1,,,,,,,,,0,,,67,49
381990,note_on,108,0,3,,,,,,,,,2,,,58,36
381990,note_on,0,0,2,,,,,,,,,1,,,63,36
381990,note_on,60,0,1,,,,,,,,,0,,,67,0
381990,note_on,0,0,1,,,,,,,,,0,,,67,49
381990,note_on,240,0,2,,,,,,,,,1,,,63,0
382002,note_on,12,0,3,,,,,,,,,2,,,58,0
382050,note_on,60,0,1,,,,,,,,,0,,,67,0
382050,note_on,0,0,1,,,,,,,,,0,,,70,49
382110,note_on,360,0,4,,,,,,,,,3,,,51,0
382110,note_on,0,0,4,,,,,,,,,3,,,51,36
382110,note_on,0,0,1,,,,,,,,,0,,,63,49
382110,note_on,0,0,1,,,,,,,,,0,,,68,49
382110,note_on,120,0,2,,,,,,,,,1,,,63,0
382110,note_on,60,0,1,,,,,,,,,0,,,70,0
382170,note_on,60,0,1,,,,,,,,,0,,,68,0
382170,note_on,0,0,1,,,,,,,,,0,,,63,0
382170,note_on,0,0,1,,,,,,,,,0,,,72,49
382230,note_on,60,0,1,,,,,,,,,0,,,72,0
382230,note_on,0,0,1,,,,,,,,,0,,,67,49
382230,note_on,0,0,1,,,,,,,,,0,,,70,49
382230,note_on,228,0,3,,,,,,,,,2,,,58,36
382242,note_on,12,0,3,,,,,,,,,2,,,58,0
382290,note_on,0,0,1,,,,,,,,,0,,,75,49
382290,note_on,0,0,1,,,,,,,,,0,,,67,0
382290,note_on,60,0,1,,,,,,,,,0,,,70,0
382350,note_on,0,0,1,,,,,,,,,0,,,79,49
382350,note_on,108,0,3,,,,,,,,,2,,,58,36
382350,note_on,60,0,1,,,,,,,,,0,,,75,0
382362,note_on,12,0,3,,,,,,,,,2,,,58,0
382410,note_on,60,0,1,,,,,,,,,0,,,79,0
382410,note_on,0,0,1,,,,,,,,,0,,,75,49
382470,note_on,60,0,1,,,,,,,,,0,,,75,0
382470,note_on,0,0,1,,,,,,,,,0,,,65,49
382470,note_on,0,0,1,,,,,,,,,0,,,68,49
382470,note_on,360,0,4,,,,,,,,,3,,,51,0
382470,note_on,0,0,4,,,,,,,,,3,,,46,36
382470,note_on,360,0,2,,,,,,,,,1,,,68,36
382530,note_on,0,0,1,,,,,,,,,0,,,75,49
382530,note_on,0,0,1,,,,,,,,,0,,,65,0
382530,note_on,60,0,1,,,,,,,,,0,,,68,0
382590,note_on,0,0,1,,,,,,,,,0,,,74,49
382590,note_on,60,0,1,,,,,,,,,0,,,75,0
382590,note_on,228,0,3,,,,,,,,,2,,,58,36
382602,note_on,12,0,3,,,,,,,,,2,,,58,0
382650,note_on,0,0,1,,,,,,,,,0,,,65,49
382650,note_on,60,0,1,,,,,,,,,0,,,74,0
382710,note_on,60,0,1,,,,,,,,,0,,,65,0
382710,note_on,240,0,2,,,,,,,,,1,,,68,0
382710,note_on,0,0,1,,,,,,,,,0,,,63,49
382710,note_on,108,0,3,,,,,,,,,2,,,58,36
382710,note_on,0,0,2,,,,,,,,,1,,,68,36
382710,note_on,0,0,1,,,,,,,,,0,,,68,49
382722,note_on,12,0,3,,,,,,,,,2,,,58,0
382770,note_on,0,0,1,,,,,,,,,0,,,72,49
382770,note_on,0,0,1,,,,,,,,,0,,,63,0
382770,note_on,60,0,1,,,,,,,,,0,,,68,0
382830,note_on,120,0,2,,,,,,,,,1,,,68,0
382830,note_on,0,0,1,,,,,,,,,0,,,68,49
382830,note_on,60,0,1,,,,,,,,,0,,,72,0
382830,note_on,0,0,4,,,,,,,,,3,,,46,36
382830,note_on,360,0,4,,,,,,,,,3,,,46,0
382830,note_on,0,0,2,,,,,,,,,1,,,62,36
382890,note_on,0,0,1,,,,,,,,,0,,,70,49
382890,note_on,60,0,1,,,,,,,,,0,,,68,0
382950,note_on,60,0,1,,,,,,,,,0,,,70,0
382950,note_on,0,0,1,,,,,,,,,0,,,68,49
382950,note_on,0,0,2,,,,,,,,,1,,,63,36
382950,note_on,228,0,3,,,,,,,,,2,,,58,36
382950,note_on,120,0,2,,,,,,,,,1,,,62,0
382962,note_on,12,0,3,,,,,,,,,2,,,58,0
383010,note_on,60,0,1,,,,,,,,,0,,,68,0
383010,note_on,0,0,1,,,,,,,,,0,,,72,49
383070,note_on,108,0,3,,,,,,,,,2,,,58,36
383070,note_on,0,0,2,,,,,,,,,1,,,65,36
383070,note_on,120,0,2,,,,,,,,,1,,,63,0
383070,note_on,60,0,1,,,,,,,,,0,,,72,0
383070,note_on,0,0,1,,,,,,,,,0,,,68,49
383082,note_on,12,0,3,,,,,,,,,2,,,58,0
383130,note_on,60,0,1,,,,,,,,,0,,,68,0
383130,note_on,0,0,1,,,,,,,,,0,,,74,49
383190,note_on,0,0,1,,,,,,,,,0,,,67,49
383190,note_on,60,0,1,,,,,,,,,0,,,74,0
383190,note_on,108,0,3,,,,,,,,,2,,,51,36
383190,note_on,360,0,4,,,,,,,,,3,,,46,0
383190,note_on,120,0,2,,,,,,,,,1,,,65,0
383250,note_on,60,0,1,,,,,,,,,0,,,67,0
383250,note_on,0,0,1,,,,,,,,,0,,,75,49
383310,note_on,60,0,1,,,,,,,,,0,,,75,0
383310,note_on,0,0,1,,,,,,,,,0,,,70,49
383310,note_on,0,0,3,,,,,,,,,2,,,58,36
383310,note_on,120,0,3,,,,,,,,,2,,,51,0
383310,note_on,0,0,1,,,,,,,,,0,,,67,49
383370,note_on,0,0,1,,,,,,,,,0,,,67,0
383370,note_on,60,0,1,,,,,,,,,0,,,70,0
383370,note_on,0,0,1,,,,,,,,,0,,,79,49
383430,note_on,60,0,1,,,,,,,,,0,,,79,0
383430,note_on,0,0,1,,,,,,,,,0,,,68,49
383430,note_on,0,0,1,,,,,,,,,0,,,70,49
383430,note_on,120,0,3,,,,,,,,,2,,,58,0
383430,note_on,0,0,3,,,,,,,,,2,,,46,36
383490,note_on,60,0,1,,,,,,,,,0,,,70,0
383490,note_on,0,0,1,,,,,,,,,0,,,77,49
383490,note_on,0,0,1,,,,,,,,,0,,,68,0
383550,time_signature,5400,1,0,2,4,24,8,,,,,,,,,
383550,note_on,120,0,3,,,,,,,,,2,,,46,0
383550,note_on,0,0,3,,,,,,,,,2,,,51,36
383550,note_on,0,0,1,,,,,,,,,0,,,70,49
383550,note_on,0,0,1,,,,,,,,,0,,,75,49
383550,note_on,60,0,1,,,,,,,,,0,,,77,0
383550,note_on,0,0,1,,,,,,,,,0,,,67,49
383790,note_on,0,0,1,,,,,,,,,0,,,72,49
383790,note_on,240,0,3,,,,,,,,,2,,,51,0
383790,note_on,240,0,1,,,,,,,,,0,,,75,0
383790,note_on,0,0,1,,,,,,,,,0,,,67,0
383790,time_signature,240,1,0,1,4,24,8,,,,,,,,,
383790,note_on,0,0,1,,,,,,,,,0,,,70,0
383790,key_signature,0,1,0,,,,,C,,,,,,,,
383850,note_on,60,0,1,,,,,,,,,0,,,72,0
383850,note_on,0,0,1,,,,,,,,,0,,,67,49
383910,time_signature,120,1,0,3,4,24,8,,,,,,,,,
383910,note_on,120,0,3,,,,,,,,,2,,,48,36
383910,note_on,0,0,1,,,,,,,,,0,,,64,49
383910,note_on,60,0,1,,,,,,,,,0,,,67,0
383970,note_on,60,0,1,,,,,,,,,0,,,64,0
384030,note_on,60,0,1,,,,,,,,,0,,,72,49
384030,note_on,0,0,3,,,,,,,,,2,,,64,36
384030,note_on,0,0,3,,,,,,,,,2,,,60,36
384030,note_on,0,0,3,,,,,,,,,2,,,55,36
384030,note_on,120,0,3,,,,,,,,,2,,,48,0
384042,note_on,12,0,3,,,,,,,,,2,,,64,0
384042,note_on,0,0,3,,,,,,,,,2,,,55,0
384042,note_on,0,0,3,,,,,,,,,2,,,60,0
384090,note_on,0,0,1,,,,,,,,,0,,,76,49
384090,note_on,60,0,1,,,,,,,,,0,,,72,0
384150,note_on,60,0,1,,,,,,,,,0,,,76,0
384150,note_on,0,0,1,,,,,,,,,0,,,79,49
384150,note_on,0,0,3,,,,,,,,,2,,,60,36
384150,note_on,0,0,3,,,,,,,,,2,,,64,36
384150,note_on,108,0,3,,,,,,,,,2,,,55,36
384162,note_on,0,0,3,,,,,,,,,2,,,55,0
384162,note_on,0,0,3,,,,,,,,,2,,,60,0
384162,note_on,12,0,3,,,,,,,,,2,,,64,0
384270,note_on,108,0,3,,,,,,,,,2,,,43,36
384270,note_on,120,0,1,,,,,,,,,0,,,79,0
384270,note_on,0,0,1,,,,,,,,,0,,,71,75
384390,note_on,0,0,3,,,,,,,,,2,,,65,36
384390,note_on,0,0,3,,,,,,,,,2,,,59,36
384390,note_on,0,0,3,,,,,,,,,2,,,55,36
384390,note_on,120,0,3,,,,,,,,,2,,,43,0
384390,note_on,0,0,1,,,,,,,,,0,,,77,49
384390,note_on,120,0,1,,,,,,,,,0,,,71,0
384402,note_on,0,0,3,,,,,,,,,2,,,59,0
384402,note_on,12,0,3,,,,,,,,,2,,,65,0
384402,note_on,0,0,3,,,,,,,,,2,,,55,0
384450,note_on,60,0,1,,,,,,,,,0,,,77,0
384510,note_on,60,0,1,,,,,,,,,0,,,74,49
384510,note_on,108,0,3,,,,,,,,,2,,,55,36
384510,note_on,0,0,3,,,,,,,,,2,,,59,36
384510,note_on,0,0,3,,,,,,,,,2,,,65,36
384522,note_on,12,0,3,,,,,,,,,2,,,65,0
384522,note_on,0,0,3,,,,,,,,,2,,,59,0
384522,note_on,0,0,3,,,,,,,,,2,,,55,0
384570,note_on,0,0,1,,,,,,,,,0,,,67,49
384570,note_on,60,0,1,,,,,,,,,0,,,74,0
384630,note_on,60,0,1,,,,,,,,,0,,,67,0
384630,note_on,0,0,1,,,,,,,,,0,,,65,49
384630,note_on,108,0,3,,,,,,,,,2,,,43,36
384690,note_on,60,0,1,,,,,,,,,0,,,65,0
384750,note_on,120,0,3,,,,,,,,,2,,,43,0
384750,note_on,0,0,3,,,,,,,,,2,,,59,36
384750,note_on,0,0,3,,,,,,,,,2,,,65,36
384750,note_on,60,0,1,,,,,,,,,0,,,71,49
384750,note_on,0,0,3,,,,,,,,,2,,,55,36
384762,note_on,12,0,3,,,,,,,,,2,,,65,0
384762,note_on,0,0,3,,,,,,,,,2,,,59,0
384762,note_on,0,0,3,,,,,,,,,2,,,55,0
384810,note_on,60,0,1,,,,,,,,,0,,,71,0
384810,note_on,0,0,1,,,,,,,,,0,,,77,49
384870,note_on,108,0,3,,,,,,,,,2,,,55,36
384870,note_on,60,0,1,,,,,,,,,0,,,77,0
384870,note_on,0,0,1,,,,,,,,,0,,,79,49
384870,note_on,0,0,3,,,,,,,,,2,,,65,36
384870,note_on,0,0,3,,,,,,,,,2,,,59,36
384882,note_on,0,0,3,,,,,,,,,2,,,55,0
384882,note_on,0,0,3,,,,,,,,,2,,,59,0
384882,note_on,12,0,3,,,,,,,,,2,,,65,0
384990,note_on,0,0,1,,,,,,,,,0,,,67,101
384990,note_on,108,0,3,,,,,,,,,2,,,48,36
384990,note_on,120,0,1,,,,,,,,,0,,,79,0
385110,note_on,120,0,3,,,,,,,,,2,,,48,0
385110,note_on,0,0,3,,,,,,,,,2,,,55,36
385110,note_on,0,0,1,,,,,,,,,0,,,76,49
385110,note_on,120,0,1,,,,,,,,,0,,,67,0
385110,note_on,0,0,3,,,,,,,,,2,,,60,36
385110,note_on,0,0,3,,,,,,,,,2,,,64,36
385122,note_on,12,0,3,,,,,,,,,2,,,64,0
385122,note_on,0,0,3,,,,,,,,,2,,,60,0
385122,note_on,0,0,3,,,,,,,,,2,,,55,0
385170,note_on,60,0,1,,,,,,,,,0,,,76,0
385230,note_on,60,0,1,,,,,,,,,0,,,72,49
385230,note_on,0,0,3,,,,,,,,,2,,,60,36
385230,note_on,0,0,3,,,,,,,,,2,,,64,36
385230,note_on,108,0,3,,,,,,,,,2,,,55,36
385242,note_on,12,0,3,,,,,,,,,2,,,64,0
385242,note_on,0,0,3,,,,,,,,,2,,,60,0
385242,note_on,0,0,3,,,,,,,,,2,,,55,0
385290,note_on,60,0,1,,,,,,,,,0,,,72,0
385290,note_on,0,0,1,,,,,,,,,0,,,67,49
385350,note_on,0,0,1,,,,,,,,,0,,,64,49
385350,note_on,108,0,3,,,,,,,,,2,,,48,36
385350,note_on,60,0,1,,,,,,,,,0,,,67,0
385410,note_on,60,0,1,,,,,,,,,0,,,64,0
385470,note_on,0,0,3,,,,,,,,,2,,,55,36
385470,note_on,0,0,3,,,,,,,,,2,,,60,36
385470,note_on,0,0,3,,,,,,,,,2,,,64,36
385470,note_on,60,0,1,,,,,,,,,0,,,72,49
385470,note_on,120,0,3,,,,,,,,,2,,,48,0
385482,note_on,12,0,3,,,,,,,,,2,,,64,0
385482,note_on,0,0,3,,,,,,,,,2,,,60,0
385482,note_on,0,0,3,,,,,,,,,2,,,55,0
385530,note_on,0,0,1,,,,,,,,,0,,,76,49
385530,note_on,60,0,1,,,,,,,,,0,,,72,0
385590,note_on,0,0,1,,,,,,,,,0,,,79,49
385590,note_on,60,0,1,,,,,,,,,0,,,76,0
385590,note_on,0,0,3,,,,,,,,,2,,,64,36
385590,note_on,0,0,3,,,,,,,,,2,,,60,36
385590,note_on,108,0,3,,,,,,,,,2,,,55,36
385602,note_on,12,0,3,,,,,,,,,2,,,64,0
385602,note_on,0,0,3,,,,,,,,,2,,,60,0
385602,note_on,0,0,3,,,,,,,,,2,,,55,0
385710,note_on,120,0,1,,,,,,,,,0,,,79,0
385710,note_on,0,0,1,,,,,,,,,0,,,69,62
385710,note_on,108,0,3,,,,,,,,,2,,,41,49
385830,note_on,120,0,3,,,,,,,,,2,,,41,0
385830,note_on,120,0,1,,,,,,,,,0,,,69,0
385830,note_on,0,0,3,,,,,,,,,2,,,60,62
385830,note_on,0,0,1,,,,,,,,,0,,,81,75
385830,note_on,0,0,3,,,,,,,,,2,,,65,62
385830,note_on,0,0,1,,,,,,,,,0,,,77,75
385830,note_on,0,0,3,,,,,,,,,2,,,57,62
385842,note_on,12,0,3,,,,,,,,,2,,,65,0
385842,note_on,0,0,3,,,,,,,,,2,,,57,0
385842,note_on,0,0,3,,,,,,,,,2,,,60,0
385890,note_on,60,0,1,,,,,,,,,0,,,81,0
385890,note_on,0,0,1,,,,,,,,,0,,,77,0
385890,note_on,0,0,1,,,,,,,,,0,,,79,75
385890,note_on,0,0,1,,,,,,,,,0,,,76,75
385950,note_on,60,0,1,,,,,,,,,0,,,79,0
385950,note_on,0,0,1,,,,,,,,,0,,,76,0
385950,note_on,0,0,1,,,,,,,,,0,,,77,62
385950,note_on,108,0,3,,,,,,,,,2,,,57,49
385950,note_on,0,0,3,,,,,,,,,2,,,60,49
385950,note_on,0,0,3,,,,,,,,,2,,,65,49
385950,note_on,0,0,1,,,,,,,,,0,,,74,62
385962,note_on,0,0,3,,,,,,,,,2,,,60,0
385962,note_on,0,0,3,,,,,,,,,2,,,57,0
385962,note_on,12,0,3,,,,,,,,,2,,,65,0
386010,note_on,60,0,1,,,,,,,,,0,,,77,0
386010,note_on,0,0,1,,,,,,,,,0,,,72,62
386010,note_on,0,0,1,,,,,,,,,0,,,76,62
386010,note_on,0,0,1,,,,,,,,,0,,,74,0
386070,note_on,60,0,1,,,,,,,,,0,,,76,0
386070,note_on,0,0,1,,,,,,,,,0,,,71,62
386070,note_on,0,0,1,,,,,,,,,0,,,72,0
386070,note_on,108,0,3,,,,,,,,,2,,,43,36
386070,note_on,0,0,1,,,,,,,,,0,,,74,62
386130,note_on,0,0,1,,,,,,,,,0,,,71,0
386130,note_on,60,0,1,,,,,,,,,0,,,74,0
386130,note_on,0,0,1,,,,,,,,,0,,,72,62
386130,note_on,0,0,1,,,,,,,,,0,,,76,62
386190,note_on,0,0,1,,,,,,,,,0,,,77,62
386190,note_on,60,0,1,,,,,,,,,0,,,76,0
386190,note_on,0,0,1,,,,,,,,,0,,,72,0
386190,note_on,0,0,1,,,,,,,,,0,,,74,62
386190,note_on,120,0,3,,,,,,,,,2,,,43,0
386190,note_on,0,0,3,,,,,,,,,2,,,55,36
386190,note_on,0,0,3,,,,,,,,,2,,,62,36
386190,note_on,0,0,3,,,,,,,,,2,,,65,36
386202,note_on,12,0,3,,,,,,,,,2,,,65,0
386202,note_on,0,0,3,,,,,,,,,2,,,62,0
386202,note_on,0,0,3,,,,,,,,,2,,,55,0
386250,note_on,0,0,1,,,,,,,,,0,,,74,0
386250,note_on,0,0,1,,,,,,,,,0,,,79,62
386250,note_on,60,0,1,,,,,,,,,0,,,77,0
386250,note_on,0,0,1,,,,,,,,,0,,,71,62
386310,note_on,108,0,3,,,,,,,,,2,,,55,36
386310,note_on,0,0,1,,,,,,,,,0,,,77,62
386310,note_on,0,0,1,,,,,,,,,0,,,74,62
386310,note_on,60,0,1,,,,,,,,,0,,,79,0
386310,note_on,0,0,1,,,,,,,,,0,,,71,0
386310,note_on,0,0,3,,,,,,,,,2,,,65,36
386310,note_on,0,0,3,,,,,,,,,2,,,62,36
386322,note_on,0,0,3,,,,,,,,,2,,,62,0
386322,note_on,12,0,3,,,,,,,,,2,,,65,0
386322,note_on,0,0,3,,,,,,,,,2,,,55,0
386370,note_on,60,0,1,,,,,,,,,0,,,77,0
386370,note_on,0,0,1,,,,,,,,,0,,,79,62
386370,note_on,0,0,1,,,,,,,,,0,,,71,62
386370,note_on,0,0,1,,,,,,,,,0,,,74,0
386430,note_on,0,0,1,,,,,,,,,0,,,76,62
386430,note_on,0,0,1,,,,,,,,,0,,,72,62
386430,note_on,0,0,1,,,,,,,,,0,,,71,0
386430,note_on,60,0,1,,,,,,,,,0,,,79,0
386430,note_on,108,0,3,,,,,,,,,2,,,48,36
386430,time_signature,2520,1,0,2,4,24,8,,,,,,,,,
386550,note_on,0,0,3,,,,,,,,,2,,,64,36
386550,note_on,0,0,3,,,,,,,,,2,,,60,36
386550,note_on,120,0,3,,,,,,,,,2,,,48,0
386550,note_on,0,0,3,,,,,,,,,2,,,55,36
386670,note_on,0,0,3,,,,,,,,,2,,,55,0
386670,note_on,120,0,3,,,,,,,,,2,,,64,0
386670,note_on,0,0,3,,,,,,,,,2,,,60,0
386670,time_signature,240,1,0,1,4,24,8,,,,,,,,,
386670,note_on,0,0,1,,,,,,,,,0,,,72,0
386670,note_on,240,0,1,,,,,,,,,0,,,76,0
386670,note_on,0,0,1,,,,,,,,,0,,,72,49
386730,note_on,0,0,1,,,,,,,,,0,,,67,49
386730,note_on,60,0,1,,,,,,,,,0,,,72,0
386790,time_signature,120,1,0,3,4,24,8,,,,,,,,,
386790,note_on,60,0,1,,,,,,,,,0,,,67,0
386790,note_on,0,0,1,,,,,,,,,0,,,64,49
386790,note_on,120,0,3,,,,,,,,,2,,,48,36
386850,note_on,60,0,1,,,,,,,,,0,,,64,0
386910,note_on,120,0,3,,,,,,,,,2,,,48,0
386910,note_on,60,0,1,,,,,,,,,0,,,72,49
386910,note_on,0,0,3,,,,,,,,,2,,,60,36
386910,note_on,0,0,3,,,,,,,,,2,,,55,36
386910,note_on,0,0,3,,,,,,,,,2,,,64,36
386922,note_on,12,0,3,,,,,,,,,2,,,64,0
386922,note_on,0,0,3,,,,,,,,,2,,,60,0
386922,note_on,0,0,3,,,,,,,,,2,,,55,0
386970,note_on,0,0,1,,,,,,,,,0,,,76,49
386970,note_on,60,0,1,,,,,,,,,0,,,72,0
387030,note_on,0,0,1,,,,,,,,,0,,,79,49
387030,note_on,60,0,1,,,,,,,,,0,,,76,0
387030,note_on,108,0,3,,,,,,,,,2,,,55,36
387030,note_on,0,0,3,,,,,,,,,2,,,60,36
387030,note_on,0,0,3,,,,,,,,,2,,,64,36
387042,note_on,12,0,3,,,,,,,,,2,,,64,0
387042,note_on,0,0,3,,,,,,,,,2,,,60,0
387042,note_on,0,0,3,,,,,,,,,2,,,55,0
387150,note_on,0,0,1,,,,,,,,,0,,,71,75
387150,note_on,120,0,1,,,,,,,,,0,,,79,0
387150,note_on,108,0,3,,,,,,,,,2,,,43,36
387270,note_on,120,0,3,,,,,,,,,2,,,43,0
387270,note_on,0,0,3,,,,,,,,,2,,,55,36
387270,note_on,0,0,3,,,,,,,,,2,,,59,36
387270,note_on,0,0,3,,,,,,,,,2,,,65,36
387270,note_on,120,0,1,,,,,,,,,0,,,71,0
387270,note_on,0,0,1,,,,,,,,,0,,,77,49
387282,note_on,12,0,3,,,,,,,,,2,,,65,0
387282,note_on,0,0,3,,,,,,,,,2,,,59,0
387282,note_on,0,0,3,,,,,,,,,2,,,55,0
387330,note_on,60,0,1,,,,,,,,,0,,,77,0
387390,note_on,0,0,3,,,,,,,,,2,,,59,36
387390,note_on,108,0,3,,,,,,,,,2,,,55,36
387390,note_on,60,0,1,,,,,,,,,0,,,74,49
387390,note_on,0,0,3,,,,,,,,,2,,,65,36
387402,note_on,12,0,3,,,,,,,,,2,,,65,0
387402,note_on,0,0,3,,,,,,,,,2,,,55,0
387402,note_on,0,0,3,,,,,,,,,2,,,59,0
387450,note_on,60,0,1,,,,,,,,,0,,,74,0
387450,note_on,0,0,1,,,,,,,,,0,,,67,49
387510,note_on,60,0,1,,,,,,,,,0,,,67,0
387510,note_on,0,0,1,,,,,,,,,0,,,65,49
387510,note_on,108,0,3,,,,,,,,,2,,,43,36
387570,note_on,60,0,1,,,,,,,,,0,,,65,0
387630,note_on,60,0,1,,,,,,,,,0,,,71,49
387630,note_on,120,0,3,,,,,,,,,2,,,43,0
387630,note_on,0,0,3,,,,,,,,,2,,,55,36
387630,note_on,0,0,3,,,,,,,,,2,,,65,36
387630,note_on,0,0,3,,,,,,,,,2,,,59,36
387642,note_on,12,0,3,,,,,,,,,2,,,65,0
387642,note_on,0,0,3,,,,,,,,,2,,,55,0
387642,note_on,0,0,3,,,,,,,,,2,,,59,0
387690,note_on,60,0,1,,,,,,,,,0,,,71,0
387690,note_on,0,0,1,,,,,,,,,0,,,77,49
387750,note_on,108,0,3,,,,,,,,,2,,,55,36
387750,note_on,0,0,3,,,,,,,,,2,,,65,36
387750,note_on,0,0,3,,,,,,,,,2,,,59,36
387750,note_on,60,0,1,,,,,,,,,0,,,77,0
387750,note_on,0,0,1,,,,,,,,,0,,,79,49
387762,note_on,0,0,3,,,,,,,,,2,,,59,0
387762,note_on,0,0,3,,,,,,,,,2,,,55,0
387762,note_on,12,0,3,,,,,,,,,2,,,65,0
387870,note_on,120,0,1,,,,,,,,,0,,,79,0
387870,note_on,0,0,1,,,,,,,,,0,,,67,101
387870,note_on,108,0,3,,,,,,,,,2,,,48,36
387990,note_on,120,0,3,,,,,,,,,2,,,48,0
387990,note_on,0,0,3,,,,,,,,,2,,,60,36
387990,note_on,0,0,3,,,,,,,,,2,,,55,36
387990,note_on,120,0,1,,,,,,,,,0,,,67,0
387990,note_on,0,0,3,,,,,,,,,2,,,64,36
387990,note_on,0,0,1,,,,,,,,,0,,,76,49
388002,note_on,0,0,3,,,,,,,,,2,,,55,0
388002,note_on,0,0,3,,,,,,,,,2,,,60,0
388002,note_on,12,0,3,,,,,,,,,2,,,64,0
388050,note_on,60,0,1,,,,,,,,,0,,,76,0
388110,note_on,60,0,1,,,,,,,,,0,,,72,49
388110,note_on,0,0,3,,,,,,,,,2,,,64,36
388110,note_on,0,0,3,,,,,,,,,2,,,60,36
388110,note_on,108,0,3,,,,,,,,,2,,,55,36
388122,note_on,12,0,3,,,,,,,,,2,,,64,0
388122,note_on,0,0,3,,,,,,,,,2,,,60,0
388122,note_on,0,0,3,,,,,,,,,2,,,55,0
388170,note_on,60,0,1,,,,,,,,,0,,,72,0
388170,note_on,0,0,1,,,,,,,,,0,,,67,49
388230,note_on,108,0,3,,,,,,,,,2,,,48,36
388230,note_on,60,0,1,,,,,,,,,0,,,67,0
388230,note_on,0,0,1,,,,,,,,,0,,,64,49
388290,note_on,60,0,1,,,,,,,,,0,,,64,0
388350,note_on,120,0,3,,,,,,,,,2,,,48,0
388350,note_on,0,0,3,,,,,,,,,2,,,64,36
388350,note_on,60,0,1,,,,,,,,,0,,,72,49
388350,note_on,0,0,3,,,,,,,,,2,,,55,36
388350,note_on,0,0,3,,,,,,,,,2,,,60,36
388362,note_on,0,0,3,,,,,,,,,2,,,60,0
388362,note_on,12,0,3,,,,,,,,,2,,,64,0
388362,note_on,0,0,3,,,,,,,,,2,,,55,0
388410,note_on,60,0,1,,,,,,,,,0,,,72,0
388410,note_on,0,0,1,,,,,,,,,0,,,76,49
388470,note_on,0,0,1,,,,,,,,,0,,,79,49
388470,note_on,0,0,3,,,,,,,,,2,,,64,36
388470,note_on,0,0,3,,,,,,,,,2,,,60,36
388470,note_on,108,0,3,,,,,,,,,2,,,55,36
388470,note_on,60,0,1,,,,,,,,,0,,,76,0
388482,note_on,0,0,3,,,,,,,,,2,,,60,0
388482,note_on,0,0,3,,,,,,,,,2,,,55,0
388482,note_on,12,0,3,,,,,,,,,2,,,64,0
388590,note_on,0,0,1,,,,,,,,,0,,,69,62
388590,note_on,108,0,3,,,,,,,,,2,,,41,49
388590,note_on,120,0,1,,,,,,,,,0,,,79,0
388710,note_on,120,0,3,,,,,,,,,2,,,41,0
388710,note_on,0,0,3,,,,,,,,,2,,,60,62
388710,note_on,0,0,1,,,,,,,,,0,,,81,75
388710,note_on,0,0,1,,,,,,,,,0,,,77,75
388710,note_on,120,0,1,,,,,,,,,0,,,69,0
388710,note_on,0,0,3,,,,,,,,,2,,,57,62
388710,note_on,0,0,3,,,,,,,,,2,,,65,62
388722,note_on,12,0,3,,,,,,,,,2,,,65,0
388722,note_on,0,0,3,,,,,,,,,2,,,60,0
388722,note_on,0,0,3,,,,,,,,,2,,,57,0
388770,note_on,0,0,1,,,,,,,,,0,,,79,75
388770,note_on,0,0,1,,,,,,,,,0,,,76,75
388770,note_on,0,0,1,,,,,,,,,0,,,77,0
388770,note_on,60,0,1,,,,,,,,,0,,,81,0
388830,note_on,0,0,1,,,,,,,,,0,,,74,62
388830,note_on,108,0,3,,,,,,,,,2,,,57,49
388830,note_on,0,0,3,,,,,,,,,2,,,60,49
388830,note_on,0,0,3,,,,,,,,,2,,,65,49
388830,note_on,60,0,1,,,,,,,,,0,,,79,0
388830,note_on,0,0,1,,,,,,,,,0,,,76,0
388830,note_on,0,0,1,,,,,,,,,0,,,77,62
388842,note_on,12,0,3,,,,,,,,,2,,,65,0
388842,note_on,0,0,3,,,,,,,,,2,,,57,0
388842,note_on,0,0,3,,,,,,,,,2,,,60,0
388890,note_on,60,0,1,,,,,,,,,0,,,77,0
388890,note_on,0,0,1,,,,,,,,,0,,,74,0
388890,note_on,0,0,1,,,,,,,,,0,,,72,62
388890,note_on,0,0,1,,,,,,,,,0,,,76,62
388950,note_on,0,0,1,,,,,,,,,0,,,72,0
388950,note_on,108,0,3,,,,,,,,,2,,,43,36
388950,note_on,60,0,1,,,,,,,,,0,,,76,0
388950,note_on,0,0,1,,,,,,,,,0,,,74,62
388950,note_on,0,0,1,,,,,,,,,0,,,71,62
389010,note_on,0,0,1,,,,,,,,,0,,,76,62
389010,note_on,0,0,1,,,,,,,,,0,,,72,62
389010,note_on,60,0,1,,,,,,,,,0,,,74,0
389010,note_on,0,0,1,,,,,,,,,0,,,71,0
389070,note_on,0,0,3,,,,,,,,,2,,,55,36
389070,note_on,0,0,3,,,,,,,,,2,,,62,36
389070,note_on,0,0,3,,,,,,,,,2,,,65,36
389070,note_on,120,0,3,,,,,,,,,2,,,43,0
389070,note_on,60,0,1,,,,,,,,,0,,,76,0
389070,note_on,0,0,1,,,,,,,,,0,,,72,0
389070,note_on,0,0,1,,,,,,,,,0,,,74,62
389070,note_on,0,0,1,,,,,,,,,0,,,77,62
389082,note_on,0,0,3,,,,,,,,,2,,,55,0
389082,note_on,12,0,3,,,,,,,,,2,,,65,0
389082,note_on,0,0,3,,,,,,,,,2,,,62,0
389130,note_on,0,0,1,,,,,,,,,0,,,74,0
389130,note_on,0,0,1,,,,,,,,,0,,,71,62
389130,note_on,0,0,1,,,,,,,,,0,,,79,62
389130,note_on,60,0,1,,,,,,,,,0,,,77,0
389190,note_on,0,0,3,,,,,,,,,2,,,65,36
389190,note_on,60,0,1,,,,,,,,,0,,,79,0
389190,note_on,108,0,3,,,,,,,,,2,,,55,36
389190,note_on,0,0,3,,,,,,,,,2,,,62,36
389190,note_on,0,0,1,,,,,,,,,0,,,71,0
389190,note_on,0,0,1,,,,,,,,,0,,,74,62
389190,note_on,0,0,1,,,,,,,,,0,,,77,62
389202,note_on,12,0,3,,,,,,,,,2,,,65,0
389202,note_on,0,0,3,,,,,,,,,2,,,55,0
389202,note_on,0,0,3,,,,,,,,,2,,,62,0
389250,note_on,60,0,1,,,,,,,,,0,,,77,0
389250,note_on,0,0,1,,,,,,,,,0,,,79,62
389250,note_on,0,0,1,,,,,,,,,0,,,71,62
389250,note_on,0,0,1,,,,,,,,,0,,,74,0
389310,note_on,108,0,3,,,,,,,,,2,,,48,36
389310,note_on,0,0,1,,,,,,,,,0,,,76,62
389310,note_on,0,0,1,,,,,,,,,0,,,72,62
389310,note_on,0,0,1,,,,,,,,,0,,,71,0
389310,note_on,60,0,1,,,,,,,,,0,,,79,0
389310,time_signature,2520,1,0,2,4,24,8,,,,,,,,,
389430,note_on,0,0,3,,,,,,,,,2,,,55,36
389430,note_on,0,0,3,,,,,,,,,2,,,60,36
389430,note_on,120,0,3,,,,,,,,,2,,,48,0
389430,note_on,0,0,3,,,,,,,,,2,,,64,36
389550,time_signature,240,1,0,1,4,24,8,,,,,,,,,
389550,note_on,0,0,3,,,,,,,,,2,,,55,0
389550,note_on,0,0,3,,,,,,,,,2,,,48,75
389550,note_on,120,0,3,,,,,,,,,2,,,64,0
389550,note_on,0,0,1,,,,,,,,,0,,,76,88
389550,note_on,0,0,1,,,,,,,,,0,,,72,0
389550,note_on,240,0,1,,,,,,,,,0,,,76,0
389550,note_on,0,0,3,,,,,,,,,2,,,60,0
389610,note_on,0,0,1,,,,,,,,,0,,,67,88
389610,note_on,60,0,1,,,,,,,,,0,,,76,0
389670,note_on,0,0,3,,,,,,,,,2,,,55,75
389670,note_on,120,0,3,,,,,,,,,2,,,48,0
389670,note_on,60,0,1,,,,,,,,,0,,,67,0
389670,note_on,0,0,1,,,,,,,,,0,,,60,88
389670,time_signature,120,1,0,3,4,24,8,,,,,,,,,
389670,note_on,0,0,3,,,,,,,,,2,,,52,75
389730,note_on,60,0,3,,,,,,,,,2,,,55,0
389730,note_on,0,0,3,,,,,,,,,2,,,52,0
389730,note_on,60,0,1,,,,,,,,,0,,,60,0
389790,note_on,60,0,1,,,,,,,,,0,,,67,88
389790,note_on,60,0,3,,,,,,,,,2,,,48,101
389850,note_on,60,0,1,,,,,,,,,0,,,67,0
389850,note_on,0,0,1,,,,,,,,,0,,,72,88
389910,note_on,60,0,1,,,,,,,,,0,,,72,0
389910,note_on,0,0,1,,,,,,,,,0,,,76,88
389910,note_on,120,0,3,,,,,,,,,2,,,48,0
389910,note_on,0,0,3,,,,,,,,,2,,,52,75
389910,note_on,0,0,3,,,,,,,,,2,,,60,75
389910,note_on,0,0,3,,,,,,,,,2,,,55,75
389970,note_on,0,0,3,,,,,,,,,2,,,52,0
389970,note_on,0,0,3,,,,,,,,,2,,,55,0
389970,note_on,60,0,3,,,,,,,,,2,,,60,0
390030,note_on,60,0,3,,,,,,,,,2,,,47,101
390030,note_on,120,0,1,,,,,,,,,0,,,76,0
390030,note_on,0,0,1,,,,,,,,,0,,,59,114
390150,note_on,0,0,3,,,,,,,,,2,,,50,75
390150,note_on,120,0,3,,,,,,,,,2,,,47,0
390150,note_on,0,0,3,,,,,,,,,2,,,59,75
390150,note_on,0,0,1,,,,,,,,,0,,,67,88
390150,note_on,0,0,1,,,,,,,,,0,,,74,88
390150,note_on,120,0,1,,,,,,,,,0,,,59,0
390150,note_on,0,0,3,,,,,,,,,2,,,55,75
390210,note_on,0,0,3,,,,,,,,,2,,,55,0
390210,note_on,60,0,1,,,,,,,,,0,,,74,0
390210,note_on,0,0,1,,,,,,,,,0,,,67,0
390210,note_on,0,0,3,,,,,,,,,2,,,50,0
390210,note_on,60,0,3,,,,,,,,,2,,,59,0
390270,note_on,60,0,3,,,,,,,,,2,,,45,101
390270,note_on,60,0,1,,,,,,,,,0,,,72,88
390330,note_on,0,0,1,,,,,,,,,0,,,66,88
390330,note_on,60,0,1,,,,,,,,,0,,,72,0
390390,note_on,120,0,3,,,,,,,,,2,,,45,0
390390,note_on,0,0,3,,,,,,,,,2,,,50,75
390390,note_on,0,0,3,,,,,,,,,2,,,54,75
390390,note_on,0,0,3,,,,,,,,,2,,,57,75
390390,note_on,0,0,1,,,,,,,,,0,,,60,88
390390,note_on,60,0,1,,,,,,,,,0,,,66,0
390450,note_on,0,0,3,,,,,,,,,2,,,50,0
390450,note_on,0,0,3,,,,,,,,,2,,,54,0
390450,note_on,60,0,1,,,,,,,,,0,,,60,0
390450,note_on,60,0,3,,,,,,,,,2,,,57,0
390510,note_on,60,0,1,,,,,,,,,0,,,62,88
390510,note_on,60,0,3,,,,,,,,,2,,,45,101
390570,note_on,60,0,1,,,,,,,,,0,,,62,0
390570,note_on,0,0,1,,,,,,,,,0,,,66,88
390630,note_on,0,0,1,,,,,,,,,0,,,72,88
390630,note_on,60,0,1,,,,,,,,,0,,,66,0
390630,note_on,120,0,3,,,,,,,,,2,,,45,0
390630,note_on,0,0,3,,,,,,,,,2,,,50,75
390630,note_on,0,0,3,,,,,,,,,2,,,54,75
390630,note_on,0,0,3,,,,,,,,,2,,,57,75
390690,note_on,0,0,3,,,,,,,,,2,,,54,0
390690,note_on,60,0,3,,,,,,,,,2,,,57,0
390690,note_on,0,0,3,,,,,,,,,2,,,50,0
390750,note_on,0,0,1,,,,,,,,,0,,,55,114
390750,note_on,120,0,1,,,,,,,,,0,,,72,0
390750,note_on,60,0,3,,,,,,,,,2,,,43,75
390870,note_on,120,0,3,,,,,,,,,2,,,43,0
390870,note_on,0,0,3,,,,,,,,,2,,,50,75
390870,note_on,0,0,3,,,,,,,,,2,,,55,75
390870,note_on,120,0,1,,,,,,,,,0,,,55,0
390870,note_on,0,0,1,,,,,,,,,0,,,62,88
390870,note_on,0,0,1,,,,,,,,,0,,,71,88
390930,note_on,60,0,1,,,,,,,,,0,,,71,0
390930,note_on,0,0,1,,,,,,,,,0,,,62,0
390930,note_on,0,0,3,,,,,,,,,2,,,50,0
390930,note_on,60,0,3,,,,,,,,,2,,,55,0
390990,note_on,60,0,1,,,,,,,,,0,,,81,49
391050,note_on,60,0,1,,,,,,,,,0,,,81,0
391050,note_on,0,0,1,,,,,,,,,0,,,77,49
391110,note_on,60,0,1,,,,,,,,,0,,,77,0
391110,note_on,0,0,1,,,,,,,,,0,,,71,49
391110,note_on,180,0,3,,,,,,,,,2,,,43,36
391170,note_on,60,0,1,,,,,,,,,0,,,71,0
391230,note_on,60,0,1,,,,,,,,,0,,,77,49
391230,note_on,0,0,3,,,,,,,,,2,,,59,36
391230,note_on,0,0,3,,,,,,,,,2,,,65,36
391230,note_on,0,0,3,,,,,,,,,2,,,55,36
391230,note_on,120,0,3,,,,,,,,,2,,,43,0
391242,note_on,12,0,3,,,,,,,,,2,,,65,0
391242,note_on,0,0,3,,,,,,,,,2,,,59,0
391242,note_on,0,0,3,,,,,,,,,2,,,55,0
391290,note_on,0,0,1,,,,,,,,,0,,,81,49
391290,note_on,60,0,1,,,,,,,,,0,,,77,0
391350,note_on,0,0,3,,,,,,,,,2,,,65,36
391350,note_on,0,0,1,,,,,,,,,0,,,86,75
391350,note_on,60,0,1,,,,,,,,,0,,,81,0
391350,note_on,108,0,3,,,,,,,,,2,,,55,36
391350,note_on,0,0,3,,,,,,,,,2,,,59,36
391362,note_on,12,0,3,,,,,,,,,2,,,65,0
391362,note_on,0,0,3,,,,,,,,,2,,,59,0
391362,note_on,0,0,3,,,,,,,,,2,,,55,0
391470,note_on,108,0,3,,,,,,,,,2,,,48,36
391470,note_on,0,0,1,,,,,,,,,0,,,76,49
391470,note_on,120,0,1,,,,,,,,,0,,,86,0
391590,note_on,0,0,1,,,,,,,,,0,,,84,49
391590,note_on,0,0,3,,,,,,,,,2,,,55,36
391590,note_on,0,0,3,,,,,,,,,2,,,60,36
391590,note_on,0,0,3,,,,,,,,,2,,,64,36
391590,note_on,120,0,3,,,,,,,,,2,,,48,0
391590,note_on,120,0,1,,,,,,,,,0,,,76,0
391602,note_on,12,0,3,,,,,,,,,2,,,64,0
391602,note_on,0,0,3,,,,,,,,,2,,,60,0
391602,note_on,0,0,3,,,,,,,,,2,,,55,0
391650,note_on,0,0,1,,,,,,,,,0,,,83,49
391650,note_on,60,0,1,,,,,,,,,0,,,84,0
391710,note_on,60,0,1,,,,,,,,,0,,,83,0
391710,note_on,0,0,3,,,,,,,,,2,,,60,36
391710,note_on,0,0,3,,,,,,,,,2,,,64,36
391710,note_on,0,0,1,,,,,,,,,0,,,81,49
391710,note_on,108,0,3,,,,,,,,,2,,,55,36
391722,note_on,12,0,3,,,,,,,,,2,,,64,0
391722,note_on,0,0,3,,,,,,,,,2,,,55,0
391722,note_on,0,0,3,,,,,,,,,2,,,60,0
391770,note_on,60,0,1,,,,,,,,,0,,,81,0
391770,note_on,0,0,1,,,,,,,,,0,,,79,49
391830,note_on,0,0,1,,,,,,,,,0,,,76,49
391830,note_on,60,0,1,,,,,,,,,0,,,79,0
391830,note_on,108,0,3,,,,,,,,,2,,,43,36
391890,note_on,60,0,1,,,,,,,,,0,,,76,0
391890,note_on,0,0,1,,,,,,,,,0,,,77,49
391950,note_on,0,0,3,,,,,,,,,2,,,55,36
391950,note_on,0,0,3,,,,,,,,,2,,,59,36
391950,note_on,120,0,3,,,,,,,,,2,,,43,0
391950,note_on,0,0,3,,,,,,,,,2,,,65,36
391950,note_on,60,0,1,,,,,,,,,0,,,77,0
391950,note_on,0,0,1,,,,,,,,,0,,,81,49
391962,note_on,12,0,3,,,,,,,,,2,,,65,0
391962,note_on,0,0,3,,,,,,,,,2,,,59,0
391962,note_on,0,0,3,,,,,,,,,2,,,55,0
392010,note_on,0,0,1,,,,,,,,,0,,,77,49
392010,note_on,60,0,1,,,,,,,,,0,,,81,0
392070,note_on,0,0,3,,,,,,,,,2,,,65,36
392070,note_on,0,0,3,,,,,,,,,2,,,62,36
392070,note_on,108,0,3,,,,,,,,,2,,,55,36
392070,note_on,0,0,1,,,,,,,,,0,,,74,49
392070,note_on,60,0,1,,,,,,,,,0,,,77,0
392082,note_on,12,0,3,,,,,,,,,2,,,65,0
392082,note_on,0,0,3,,,,,,,,,2,,,62,0
392082,note_on,0,0,3,,,,,,,,,2,,,55,0
392130,note_on,60,0,1,,,,,,,,,0,,,74,0
392130,note_on,0,0,1,,,,,,,,,0,,,71,49
392190,note_on,0,0,1,,,,,,,,,0,,,72,49
392190,note_on,60,0,1,,,,,,,,,0,,,71,0
392190,time_signature,2520,1,0,2,4,24,8,,,,,,,,,
392190,note_on,108,0,3,,,,,,,,,2,,,48,36
392310,note_on,0,0,3,,,,,,,,,2,,,55,36
392310,note_on,120,0,3,,,,,,,,,2,,,48,0
392310,note_on,0,0,3,,,,,,,,,2,,,64,36
392310,note_on,0,0,3,,,,,,,,,2,,,60,36
392430,time_signature,240,1,0,1,4,24,8,,,,,,,,,
392430,note_on,0,0,1,,,,,,,,,0,,,76,88
392430,note_on,240,0,1,,,,,,,,,0,,,72,0
392430,note_on,0,0,3,,,,,,,,,2,,,48,75
392430,note_on,120,0,3,,,,,,,,,2,,,64,0
392430,note_on,0,0,3,,,,,,,,,2,,,55,0
392430,note_on,0,0,3,,,,,,,,,2,,,60,0
392490,note_on,0,0,1,,,,,,,,,0,,,67,88
392490,note_on,60,0,1,,,,,,,,,0,,,76,0
392550,note_on,0,0,3,,,,,,,,,2,,,52,75
392550,note_on,120,0,3,,,,,,,,,2,,,48,0
392550,note_on,0,0,1,,,,,,,,,0,,,60,88
392550,note_on,0,0,3,,,,,,,,,2,,,55,75
392550,note_on,60,0,1,,,,,,,,,0,,,67,0
392550,time_signature,120,1,0,3,4,24,8,,,,,,,,,
392610,note_on,60,0,1,,,,,,,,,0,,,60,0
392610,note_on,0,0,3,,,,,,,,,2,,,52,0
392610,note_on,60,0,3,,,,,,,,,2,,,55,0
392670,note_on,60,0,1,,,,,,,,,0,,,67,88
392670,note_on,60,0,3,,,,,,,,,2,,,48,101
392730,note_on,0,0,1,,,,,,,,,0,,,72,88
392730,note_on,60,0,1,,,,,,,,,0,,,67,0
392790,note_on,60,0,1,,,,,,,,,0,,,72,0
392790,note_on,0,0,1,,,,,,,,,0,,,76,88
392790,note_on,0,0,3,,,,,,,,,2,,,60,75
392790,note_on,0,0,3,,,,,,,,,2,,,55,75
392790,note_on,0,0,3,,,,,,,,,2,,,52,75
392790,note_on,120,0,3,,,,,,,,,2,,,48,0
392850,note_on,60,0,3,,,,,,,,,2,,,60,0
392850,note_on,0,0,3,,,,,,,,,2,,,52,0
392850,note_on,0,0,3,,,,,,,,,2,,,55,0
392910,note_on,60,0,3,,,,,,,,,2,,,47,101
392910,note_on,120,0,1,,,,,,,,,0,,,76,0
392910,note_on,0,0,1,,,,,,,,,0,,,59,114
393030,note_on,0,0,1,,,,,,,,,0,,,67,88
393030,note_on,120,0,1,,,,,,,,,0,,,59,0
393030,note_on,0,0,3,,,,,,,,,2,,,50,75
393030,note_on,120,0,3,,,,,,,,,2,,,47,0
393030,note_on,0,0,3,,,,,,,,,2,,,55,75
393030,note_on,0,0,3,,,,,,,,,2,,,59,75
393030,note_on,0,0,1,,,,,,,,,0,,,74,88
393090,note_on,0,0,1,,,,,,,,,0,,,67,0
393090,note_on,60,0,3,,,,,,,,,2,,,59,0
393090,note_on,0,0,3,,,,,,,,,2,,,55,0
393090,note_on,0,0,3,,,,,,,,,2,,,50,0
393090,note_on,60,0,1,,,,,,,,,0,,,74,0
393150,note_on,60,0,3,,,,,,,,,2,,,45,101
393150,note_on,60,0,1,,,,,,,,,0,,,72,88
393210,note_on,0,0,1,,,,,,,,,0,,,66,88
393210,note_on,60,0,1,,,,,,,,,0,,,72,0
393270,note_on,0,0,3,,,,,,,,,2,,,54,75
393270,note_on,0,0,3,,,,,,,,,2,,,50,75
393270,note_on,120,0,3,,,,,,,,,2,,,45,0
393270,note_on,0,0,1,,,,,,,,,0,,,60,88
393270,note_on,60,0,1,,,,,,,,,0,,,66,0
393270,note_on,0,0,3,,,,,,,,,2,,,57,75
393330,note_on,0,0,3,,,,,,,,,2,,,54,0
393330,note_on,60,0,1,,,,,,,,,0,,,60,0
393330,note_on,0,0,3,,,,,,,,,2,,,50,0
393330,note_on,60,0,3,,,,,,,,,2,,,57,0
393390,note_on,60,0,3,,,,,,,,,2,,,45,101
393390,note_on,60,0,1,,,,,,,,,0,,,62,88
393450,note_on,0,0,1,,,,,,,,,0,,,66,88
393450,note_on,60,0,1,,,,,,,,,0,,,62,0
393510,note_on,0,0,1,,,,,,,,,0,,,72,88
393510,note_on,120,0,3,,,,,,,,,2,,,45,0
393510,note_on,0,0,3,,,,,,,,,2,,,50,75
393510,note_on,0,0,3,,,,,,,,,2,,,54,75
393510,note_on,60,0,1,,,,,,,,,0,,,66,0
393510,note_on,0,0,3,,,,,,,,,2,,,57,75
393570,note_on,60,0,3,,,,,,,,,2,,,57,0
393570,note_on,0,0,3,,,,,,,,,2,,,50,0
393570,note_on,0,0,3,,,,,,,,,2,,,54,0
393630,note_on,60,0,3,,,,,,,,,2,,,43,75
393630,note_on,120,0,1,,,,,,,,,0,,,72,0
393630,note_on,0,0,1,,,,,,,,,0,,,55,114
393750,note_on,120,0,1,,,,,,,,,0,,,55,0
393750,note_on,0,0,1,,,,,,,,,0,,,62,88
393750,note_on,0,0,1,,,,,,,,,0,,,71,88
393750,note_on,0,0,3,,,,,,,,,2,,,55,75
393750,note_on,0,0,3,,,,,,,,,2,,,50,75
393750,note_on,120,0,3,,,,,,,,,2,,,43,0
393810,note_on,0,0,3,,,,,,,,,2,,,50,0
393810,note_on,60,0,3,,,,,,,,,2,,,55,0
393810,note_on,0,0,1,,,,,,,,,0,,,62,0
393810,note_on,60,0,1,,,,,,,,,0,,,71,0
393870,note_on,60,0,1,,,,,,,,,0,,,81,49
393930,note_on,0,0,1,,,,,,,,,0,,,77,49
393930,note_on,60,0,1,,,,,,,,,0,,,81,0
393990,note_on,0,0,1,,,,,,,,,0,,,71,49
393990,note_on,60,0,1,,,,,,,,,0,,,77,0
393990,note_on,180,0,3,,,,,,,,,2,,,43,36
394050,note_on,60,0,1,,,,,,,,,0,,,71,0
394110,note_on,0,0,3,,,,,,,,,2,,,65,36
394110,note_on,0,0,3,,,,,,,,,2,,,59,36
394110,note_on,0,0,3,,,,,,,,,2,,,55,36
394110,note_on,120,0,3,,,,,,,,,2,,,43,0
394110,note_on,60,0,1,,,,,,,,,0,,,77,49
394122,note_on,12,0,3,,,,,,,,,2,,,65,0
394122,note_on,0,0,3,,,,,,,,,2,,,59,0
394122,note_on,0,0,3,,,,,,,,,2,,,55,0
394170,note_on,0,0,1,,,,,,,,,0,,,81,49
394170,note_on,60,0,1,,,,,,,,,0,,,77,0
394230,note_on,60,0,1,,,,,,,,,0,,,81,0
394230,note_on,108,0,3,,,,,,,,,2,,,55,36
394230,note_on,0,0,3,,,,,,,,,2,,,59,36
394230,note_on,0,0,3,,,,,,,,,2,,,65,36
394230,note_on,0,0,1,,,,,,,,,0,,,86,75
394242,note_on,12,0,3,,,,,,,,,2,,,65,0
394242,note_on,0,0,3,,,,,,,,,2,,,55,0
394242,note_on,0,0,3,,,,,,,,,2,,,59,0
394350,note_on,0,0,1,,,,,,,,,0,,,76,49
394350,note_on,120,0,1,,,,,,,,,0,,,86,0
394350,note_on,108,0,3,,,,,,,,,2,,,48,36
394470,note_on,120,0,3,,,,,,,,,2,,,48,0
394470,note_on,120,0,1,,,,,,,,,0,,,76,0
394470,note_on,0,0,1,,,,,,,,,0,,,84,49
394470,note_on,0,0,3,,,,,,,,,2,,,60,36
394470,note_on,0,0,3,,,,,,,,,2,,,55,36
394470,note_on,0,0,3,,,,,,,,,2,,,64,36
394482,note_on,12,0,3,,,,,,,,,2,,,64,0
394482,note_on,0,0,3,,,,,,,,,2,,,60,0
394482,note_on,0,0,3,,,,,,,,,2,,,55,0
394530,note_on,60,0,1,,,,,,,,,0,,,84,0
394530,note_on,0,0,1,,,,,,,,,0,,,83,49
394590,note_on,108,0,3,,,,,,,,,2,,,55,36
394590,note_on,0,0,1,,,,,,,,,0,,,81,49
394590,note_on,0,0,3,,,,,,,,,2,,,60,36
394590,note_on,0,0,3,,,,,,,,,2,,,64,36
394590,note_on,60,0,1,,,,,,,,,0,,,83,0
394602,note_on,12,0,3,,,,,,,,,2,,,64,0
394602,note_on,0,0,3,,,,,,,,,2,,,55,0
394602,note_on,0,0,3,,,,,,,,,2,,,60,0
394650,note_on,0,0,1,,,,,,,,,0,,,79,49
394650,note_on,60,0,1,,,,,,,,,0,,,81,0
394710,note_on,0,0,1,,,,,,,,,0,,,76,49
394710,note_on,60,0,1,,,,,,,,,0,,,79,0
394710,note_on,108,0,3,,,,,,,,,2,,,43,36
394770,note_on,60,0,1,,,,,,,,,0,,,76,0
394770,note_on,0,0,1,,,,,,,,,0,,,77,49
394830,note_on,0,0,3,,,,,,,,,2,,,59,36
394830,note_on,60,0,1,,,,,,,,,0,,,77,0
394830,note_on,0,0,3,,,,,,,,,2,,,65,36
394830,note_on,0,0,3,,,,,,,,,2,,,55,36
394830,note_on,120,0,3,,,,,,,,,2,,,43,0
394830,note_on,0,0,1,,,,,,,,,0,,,81,49
394842,note_on,0,0,3,,,,,,,,,2,,,55,0
394842,note_on,0,0,3,,,,,,,,,2,,,59,0
394842,note_on,12,0,3,,,,,,,,,2,,,65,0
394890,note_on,0,0,1,,,,,,,,,0,,,77,49
394890,note_on,60,0,1,,,,,,,,,0,,,81,0
394950,note_on,0,0,3,,,,,,,,,2,,,65,36
394950,note_on,60,0,1,,,,,,,,,0,,,77,0
394950,note_on,108,0,3,,,,,,,,,2,,,55,36
394950,note_on,0,0,3,,,,,,,,,2,,,62,36
394950,note_on,0,0,1,,,,,,,,,0,,,74,49
394962,note_on,12,0,3,,,,,,,,,2,,,65,0
394962,note_on,0,0,3,,,,,,,,,2,,,55,0
394962,note_on,0,0,3,,,,,,,,,2,,,62,0
395010,note_on,0,0,1,,,,,,,,,0,,,71,49
395010,note_on,60,0,1,,,,,,,,,0,,,74,0
395070,time_signature,2520,1,0,2,4,24,8,,,,,,,,,
395070,note_on,60,0,1,,,,,,,,,0,,,71,0
395070,note_on,108,0,3,,,,,,,,,2,,,48,36
395070,note_on,0,0,1,,,,,,,,,0,,,72,49
395190,note_on,0,0,3,,,,,,,,,2,,,60,36
395190,note_on,0,0,3,,,,,,,,,2,,,64,36
395190,note_on,120,0,3,,,,,,,,,2,,,48,0
395190,note_on,0,0,3,,,,,,,,,2,,,55,36
395310,note_on,240,0,1,,,,,,,,,0,,,72,0
395310,note_on,0,0,3,,,,,,,,,2,,,55,0
395310,note_on,0,0,3,,,,,,,,,2,,,60,0
395310,note_on,120,0,3,,,,,,,,,2,,,64,0
395310,time_signature,240,1,0,1,4,24,8,,,,,,,,,
395310,note_on,0,0,1,,,,,,,,,0,,,76,49
395370,note_on,0,0,1,,,,,,,,,0,,,74,49
395370,note_on,60,0,1,,,,,,,,,0,,,76,0
395400,note_on,30,0,1,,,,,,,,,0,,,72,49
395415,note_on,15,0,1,,,,,,,,,0,,,72,0
395415,note_on,0,0,1,,,,,,,,,0,,,74,49
395430,note_on,15,0,1,,,,,,,,,0,,,74,0
395430,note_on,120,0,3,,,,,,,,,2,,,45,36
395430,time_signature,120,1,0,3,4,24,8,,,,,,,,,
395430,note_on,0,0,1,,,,,,,,,0,,,74,0
395430,note_on,0,0,1,,,,,,,,,0,,,72,49
395490,note_on,60,0,1,,,,,,,,,0,,,72,0
395490,note_on,0,0,1,,,,,,,,,0,,,71,49
395550,note_on,120,0,3,,,,,,,,,2,,,45,0
395550,note_on,0,0,3,,,,,,,,,2,,,52,36
395550,note_on,0,0,3,,,,,,,,,2,,,57,36
395550,note_on,0,0,3,,,,,,,,,2,,,60,36
395550,note_on,60,0,1,,,,,,,,,0,,,71,0
395550,note_on,0,0,1,,,,,,,,,0,,,72,49
395562,note_on,0,0,3,,,,,,,,,2,,,57,0
395562,note_on,12,0,3,,,,,,,,,2,,,60,0
395562,note_on,0,0,3,,,,,,,,,2,,,52,0
395610,note_on,0,0,1,,,,,,,,,0,,,74,49
395610,note_on,60,0,1,,,,,,,,,0,,,72,0
395670,note_on,0,0,3,,,,,,,,,2,,,56,36
395670,note_on,0,0,1,,,,,,,,,0,,,71,49
395670,note_on,60,0,1,,,,,,,,,0,,,74,0
395670,note_on,0,0,3,,,,,,,,,2,,,62,36
395670,note_on,108,0,3,,,,,,,,,2,,,52,36
395682,note_on,0,0,3,,,,,,,,,2,,,52,0
395682,note_on,0,0,3,,,,,,,,,2,,,56,0
395682,note_on,12,0,3,,,,,,,,,2,,,62,0
395730,note_on,0,0,1,,,,,,,,,0,,,72,49
395730,note_on,60,0,1,,,,,,,,,0,,,71,0
395790,note_on,0,0,1,,,,,,,,,0,,,69,49
395790,note_on,60,0,1,,,,,,,,,0,,,72,0
395790,note_on,108,0,3,,,,,,,,,2,,,45,36
395850,note_on,60,0,1,,,,,,,,,0,,,69,0
395850,note_on,0,0,1,,,,,,,,,0,,,76,49
395910,note_on,60,0,1,,,,,,,,,0,,,76,0
395910,note_on,0,0,1,,,,,,,,,0,,,75,49
395910,note_on,0,0,3,,,,,,,,,2,,,60,36
395910,note_on,0,0,3,,,,,,,,,2,,,52,36
395910,note_on,0,0,3,,,,,,,,,2,,,57,36
395910,note_on,120,0,3,,,,,,,,,2,,,45,0
395922,note_on,12,0,3,,,,,,,,,2,,,60,0
395922,note_on,0,0,3,,,,,,,,,2,,,57,0
395922,note_on,0,0,3,,,,,,,,,2,,,52,0
395970,note_on,60,0,1,,,,,,,,,0,,,75,0
395970,note_on,0,0,1,,,,,,,,,0,,,76,49
396030,note_on,60,0,1,,,,,,,,,0,,,76,0
396030,note_on,108,0,3,,,,,,,,,2,,,52,36
396030,note_on,0,0,3,,,,,,,,,2,,,57,36
396030,note_on,0,0,3,,,,,,,,,2,,,60,36
396030,note_on,0,0,1,,,,,,,,,0,,,81,75
396042,note_on,0,0,3,,,,,,,,,2,,,57,0
396042,note_on,0,0,3,,,,,,,,,2,,,52,0
396042,note_on,12,0,3,,,,,,,,,2,,,60,0
396090,note_on,0,0,1,,,,,,,,,0,,,69,49
396090,note_on,60,0,1,,,,,,,,,0,,,81,0
396150,note_on,108,0,3,,,,,,,,,2,,,45,36
396150,note_on,0,0,1,,,,,,,,,0,,,69,49
396150,note_on,60,0,1,,,,,,,,,0,,,69,0
396210,note_on,0,0,1,,,,,,,,,0,,,77,49
396210,note_on,60,0,1,,,,,,,,,0,,,69,0
396270,note_on,0,0,3,,,,,,,,,2,,,62,36
396270,note_on,0,0,3,,,,,,,,,2,,,57,36
396270,note_on,0,0,3,,,,,,,,,2,,,53,36
396270,note_on,60,0,1,,,,,,,,,0,,,77,0
396270,note_on,0,0,1,,,,,,,,,0,,,76,49
396270,note_on,120,0,3,,,,,,,,,2,,,45,0
396282,note_on,0,0,3,,,,,,,,,2,,,53,0
396282,note_on,12,0,3,,,,,,,,,2,,,62,0
396282,note_on,0,0,3,,,,,,,,,2,,,57,0
396330,note_on,60,0,1,,,,,,,,,0,,,76,0
396330,note_on,0,0,1,,,,,,,,,0,,,77,49
396390,note_on,60,0,1,,,,,,,,,0,,,77,0
396390,note_on,0,0,1,,,,,,,,,0,,,81,75
396390,note_on,0,0,3,,,,,,,,,2,,,62,36
396390,note_on,0,0,3,,,,,,,,,2,,,57,36
396390,note_on,108,0,3,,,,,,,,,2,,,53,36
396402,note_on,0,0,3,,,,,,,,,2,,,57,0
396402,note_on,0,0,3,,,,,,,,,2,,,53,0
396402,note_on,12,0,3,,,,,,,,,2,,,62,0
396450,note_on,60,0,1,,,,,,,,,0,,,81,0
396450,note_on,0,0,1,,,,,,,,,0,,,77,49
396510,note_on,108,0,3,,,,,,,,,2,,,45,36
396510,note_on,60,0,1,,,,,,,,,0,,,77,0
396510,note_on,0,0,1,,,,,,,,,0,,,76,49
396630,note_on,0,0,3,,,,,,,,,2,,,60,36
396630,note_on,0,0,3,,,,,,,,,2,,,57,36
396630,note_on,120,0,3,,,,,,,,,2,,,45,0
396630,note_on,0,0,3,,,,,,,,,2,,,52,36
396642,note_on,12,0,3,,,,,,,,,2,,,60,0
396642,note_on,0,0,3,,,,,,,,,2,,,57,0
396642,note_on,0,0,3,,,,,,,,,2,,,52,0
396750,note_on,240,0,1,,,,,,,,,0,,,76,0
396750,note_on,0,0,3,,,,,,,,,2,,,57,36
396750,note_on,0,0,3,,,,,,,,,2,,,60,36
396750,note_on,0,0,1,,,,,,,,,0,,,84,49
396750,note_on,108,0,3,,,,,,,,,2,,,52,36
396754,note_on,4,0,3,,,,,,,,,2,,,60,0
396754,note_on,0,0,3,,,,,,,,,2,,,57,0
396754,note_on,0,0,3,,,,,,,,,2,,,52,0
396810,note_on,60,0,1,,,,,,,,,0,,,84,0
396810,note_on,0,0,1,,,,,,,,,0,,,83,49
396840,note_on,30,0,1,,,,,,,,,0,,,81,49
396855,note_on,0,0,1,,,,,,,,,0,,,83,49
396855,note_on,15,0,1,,,,,,,,,0,,,81,0
396870,note_on,15,0,1,,,,,,,,,0,,,83,0
396870,note_on,116,0,3,,,,,,,,,2,,,45,36
396870,note_on,0,0,1,,,,,,,,,0,,,83,0
396870,note_on,0,0,1,,,,,,,,,0,,,81,49
396930,note_on,0,0,1,,,,,,,,,0,,,80,49
396930,note_on,60,0,1,,,,,,,,,0,,,81,0
396990,note_on,0,0,3,,,,,,,,,2,,,60,36
396990,note_on,0,0,3,,,,,,,,,2,,,57,36
396990,note_on,0,0,3,,,,,,,,,2,,,52,36
396990,note_on,120,0,3,,,,,,,,,2,,,45,0
396990,note_on,0,0,1,,,,,,,,,0,,,81,49
396990,note_on,60,0,1,,,,,,,,,0,,,80,0
397002,note_on,0,0,3,,,,,,,,,2,,,57,0
397002,note_on,12,0,3,,,,,,,,,2,,,60,0
397002,note_on,0,0,3,,,,,,,,,2,,,52,0
397050,note_on,60,0,1,,,,,,,,,0,,,81,0
397050,note_on,0,0,1,,,,,,,,,0,,,83,49
397110,note_on,60,0,1,,,,,,,,,0,,,83,0
397110,note_on,0,0,1,,,,,,,,,0,,,79,49
397110,note_on,0,0,3,,,,,,,,,2,,,61,36
397110,note_on,0,0,3,,,,,,,,,2,,,57,36
397110,note_on,108,0,3,,,,,,,,,2,,,52,36
397122,note_on,0,0,3,,,,,,,,,2,,,52,0
397122,note_on,0,0,3,,,,,,,,,2,,,57,0
397122,note_on,12,0,3,,,,,,,,,2,,,61,0
397170,note_on,60,0,1,,,,,,,,,0,,,79,0
397170,note_on,0,0,1,,,,,,,,,0,,,81,49
397200,note_on,30,0,1,,,,,,,,,0,,,77,49
397215,note_on,0,0,1,,,,,,,,,0,,,79,49
397215,note_on,15,0,1,,,,,,,,,0,,,77,0
397230,note_on,0,0,1,,,,,,,,,0,,,77,49
397230,note_on,15,0,1,,,,,,,,,0,,,79,0
397230,note_on,108,0,3,,,,,,,,,2,,,45,36
397230,note_on,0,0,1,,,,,,,,,0,,,81,0
397290,note_on,60,0,1,,,,,,,,,0,,,77,0
397290,note_on,0,0,1,,,,,,,,,0,,,76,49
397350,note_on,120,0,3,,,,,,,,,2,,,45,0
397350,note_on,0,0,3,,,,,,,,,2,,,53,36
397350,note_on,0,0,3,,,,,,,,,2,,,57,36
397350,note_on,60,0,1,,,,,,,,,0,,,76,0
397350,note_on,0,0,1,,,,,,,,,0,,,77,49
397350,note_on,0,0,3,,,,,,,,,2,,,62,36
397362,note_on,0,0,3,,,,,,,,,2,,,57,0
397362,note_on,0,0,3,,,,,,,,,2,,,53,0
397362,note_on,12,0,3,,,,,,,,,2,,,62,0
397410,note_on,60,0,1,,,,,,,,,0,,,77,0
397410,note_on,0,0,1,,,,,,,,,0,,,86,49
397470,note_on,0,0,3,,,,,,,,,2,,,60,36
397470,note_on,108,0,3,,,,,,,,,2,,,57,36
397470,note_on,0,0,1,,,,,,,,,0,,,76,49
397470,note_on,60,0,1,,,,,,,,,0,,,86,0
397482,note_on,12,0,3,,,,,,,,,2,,,60,0
397482,note_on,0,0,3,,,,,,,,,2,,,57,0
397530,note_on,0,0,1,,,,,,,,,0,,,84,49
397530,note_on,60,0,1,,,,,,,,,0,,,76,0
397590,note_on,108,0,3,,,,,,,,,2,,,40,36
397590,note_on,60,0,1,,,,,,,,,0,,,84,0
397590,note_on,0,0,1,,,,,,,,,0,,,83,49
397650,note_on,60,0,1,,,,,,,,,0,,,83,0
397650,note_on,0,0,1,,,,,,,,,0,,,87,49
397710,note_on,60,0,1,,,,,,,,,0,,,87,0
397710,note_on,0,0,1,,,,,,,,,0,,,88,49
397710,note_on,0,0,3,,,,,,,,,2,,,52,36
397710,note_on,0,0,3,,,,,,,,,2,,,56,36
397710,note_on,120,0,3,,,,,,,,,2,,,40,0
397710,note_on,0,0,3,,,,,,,,,2,,,62,36
397722,note_on,0,0,3,,,,,,,,,2,,,56,0
397722,note_on,12,0,3,,,,,,,,,2,,,62,0
397722,note_on,0,0,3,,,,,,,,,2,,,52,0
397770,note_on,60,0,1,,,,,,,,,0,,,88,0
397770,note_on,0,0,1,,,,,,,,,0,,,86,49
397830,note_on,60,0,1,,,,,,,,,0,,,86,0
397830,note_on,108,0,3,,,,,,,,,2,,,52,36
397830,note_on,0,0,3,,,,,,,,,2,,,56,36
397830,note_on,0,0,3,,,,,,,,,2,,,62,36
397830,note_on,0,0,1,,,,,,,,,0,,,84,49
397842,note_on,12,0,3,,,,,,,,,2,,,62,0
397842,note_on,0,0,3,,,,,,,,,2,,,56,0
397842,note_on,0,0,3,,,,,,,,,2,,,52,0
397890,note_on,0,0,1,,,,,,,,,0,,,83,49
397890,note_on,60,0,1,,,,,,,,,0,,,84,0
397950,time_signature,2520,1,0,2,4,24,8,,,,,,,,,
397950,note_on,108,0,3,,,,,,,,,2,,,45,36
397950,note_on,60,0,1,,,,,,,,,0,,,83,0
397950,note_on,0,0,1,,,,,,,,,0,,,81,49
398070,note_on,120,0,3,,,,,,,,,2,,,45,0
398070,note_on,0,0,3,,,,,,,,,2,,,60,36
398070,note_on,0,0,3,,,,,,,,,2,,,57,36
398070,note_on,0,0,3,,,,,,,,,2,,,52,36
398190,note_on,240,0,1,,,,,,,,,0,,,81,0
398190,note_on,0,0,1,,,,,,,,,0,,,76,49
398190,note_on,0,0,3,,,,,,,,,2,,,57,0
398190,note_on,0,0,3,,,,,,,,,2,,,52,0
398190,note_on,120,0,3,,,,,,,,,2,,,60,0
398190,time_signature,240,1,0,1,4,24,8,,,,,,,,,
398250,note_on,60,0,1,,,,,,,,,0,,,76,0
398250,note_on,0,0,1,,,,,,,,,0,,,74,49
398280,note_on,30,0,1,,,,,,,,,0,,,72,49
398295,note_on,0,0,1,,,,,,,,,0,,,74,49
398295,note_on,15,0,1,,,,,,,,,0,,,72,0
398310,time_signature,120,1,0,3,4,24,8,,,,,,,,,
398310,note_on,120,0,3,,,,,,,,,2,,,45,36
398310,note_on,0,0,1,,,,,,,,,0,,,72,49
398310,note_on,0,0,1,,,,,,,,,0,,,74,0
398310,note_on,15,0,1,,,,,,,,,0,,,74,0
398370,note_on,60,0,1,,,,,,,,,0,,,72,0
398370,note_on,0,0,1,,,,,,,,,0,,,71,49
398430,note_on,60,0,1,,,,,,,,,0,,,71,0
398430,note_on,0,0,1,,,,,,,,,0,,,72,49
398430,note_on,0,0,3,,,,,,,,,2,,,60,36
398430,note_on,0,0,3,,,,,,,,,2,,,57,36
398430,note_on,0,0,3,,,,,,,,,2,,,52,36
398430,note_on,120,0,3,,,,,,,,,2,,,45,0
398442,note_on,0,0,3,,,,,,,,,2,,,57,0
398442,note_on,12,0,3,,,,,,,,,2,,,60,0
398442,note_on,0,0,3,,,,,,,,,2,,,52,0
398490,note_on,0,0,1,,,,,,,,,0,,,74,49
398490,note_on,60,0,1,,,,,,,,,0,,,72,0
398550,note_on,0,0,1,,,,,,,,,0,,,71,49
398550,note_on,108,0,3,,,,,,,,,2,,,52,36
398550,note_on,0,0,3,,,,,,,,,2,,,62,36
398550,note_on,0,0,3,,,,,,,,,2,,,56,36
398550,note_on,60,0,1,,,,,,,,,0,,,74,0
398562,note_on,0,0,3,,,,,,,,,2,,,56,0
398562,note_on,0,0,3,,,,,,,,,2,,,52,0
398562,note_on,12,0,3,,,,,,,,,2,,,62,0
398610,note_on,0,0,1,,,,,,,,,0,,,72,49
398610,note_on,60,0,1,,,,,,,,,0,,,71,0
398670,note_on,60,0,1,,,,,,,,,0,,,72,0
398670,note_on,0,0,1,,,,,,,,,0,,,69,49
398670,note_on,108,0,3,,,,,,,,,2,,,45,36
398730,note_on,0,0,1,,,,,,,,,0,,,76,49
398730,note_on,60,0,1,,,,,,,,,0,,,69,0
398790,note_on,120,0,3,,,,,,,,,2,,,45,0
398790,note_on,0,0,3,,,,,,,,,2,,,60,36
398790,note_on,0,0,3,,,,,,,,,2,,,57,36
398790,note_on,0,0,3,,,,,,,,,2,,,52,36
398790,note_on,0,0,1,,,,,,,,,0,,,75,49
398790,note_on,60,0,1,,,,,,,,,0,,,76,0
398802,note_on,0,0,3,,,,,,,,,2,,,57,0
398802,note_on,12,0,3,,,,,,,,,2,,,60,0
398802,note_on,0,0,3,,,,,,,,,2,,,52,0
398850,note_on,0,0,1,,,,,,,,,0,,,76,49
398850,note_on,60,0,1,,,,,,,,,0,,,75,0
398910,note_on,108,0,3,,,,,,,,,2,,,52,36
398910,note_on,0,0,3,,,,,,,,,2,,,60,36
398910,note_on,0,0,3,,,,,,,,,2,,,57,36
398910,note_on,0,0,1,,,,,,,,,0,,,81,75
398910,note_on,60,0,1,,,,,,,,,0,,,76,0
398922,note_on,12,0,3,,,,,,,,,2,,,60,0
398922,note_on,0,0,3,,,,,,,,,2,,,52,0
398922,note_on,0,0,3,,,,,,,,,2,,,57,0
398970,note_on,60,0,1,,,,,,,,,0,,,81,0
398970,note_on,0,0,1,,,,,,,,,0,,,69,49
399030,note_on,0,0,1,,,,,,,,,0,,,69,49
399030,note_on,60,0,1,,,,,,,,,0,,,69,0
399030,note_on,108,0,3,,,,,,,,,2,,,45,36
399090,note_on,60,0,1,,,,,,,,,0,,,69,0
399090,note_on,0,0,1,,,,,,,,,0,,,77,49
399150,note_on,60,0,1,,,,,,,,,0,,,77,0
399150,note_on,0,0,1,,,,,,,,,0,,,76,49
399150,note_on,0,0,3,,,,,,,,,2,,,57,36
399150,note_on,120,0,3,,,,,,,,,2,,,45,0
399150,note_on,0,0,3,,,,,,,,,2,,,62,36
399150,note_on,0,0,3,,,,,,,,,2,,,53,36
399162,note_on,12,0,3,,,,,,,,,2,,,62,0
399162,note_on,0,0,3,,,,,,,,,2,,,57,0
399162,note_on,0,0,3,,,,,,,,,2,,,53,0
399210,note_on,0,0,1,,,,,,,,,0,,,77,49
399210,note_on,60,0,1,,,,,,,,,0,,,76,0
399270,note_on,0,0,3,,,,,,,,,2,,,62,36
399270,note_on,0,0,3,,,,,,,,,2,,,57,36
399270,note_on,108,0,3,,,,,,,,,2,,,53,36
399270,note_on,60,0,1,,,,,,,,,0,,,77,0
399270,note_on,0,0,1,,,,,,,,,0,,,81,75
399282,note_on,12,0,3,,,,,,,,,2,,,62,0
399282,note_on,0,0,3,,,,,,,,,2,,,57,0
399282,note_on,0,0,3,,,,,,,,,2,,,53,0
399330,note_on,0,0,1,,,,,,,,,0,,,77,49
399330,note_on,60,0,1,,,,,,,,,0,,,81,0
399390,note_on,108,0,3,,,,,,,,,2,,,45,36
399390,note_on,0,0,1,,,,,,,,,0,,,76,49
399390,note_on,60,0,1,,,,,,,,,0,,,77,0
399510,note_on,0,0,3,,,,,,,,,2,,,60,36
399510,note_on,0,0,3,,,,,,,,,2,,,52,36
399510,note_on,120,0,3,,,,,,,,,2,,,45,0
399510,note_on,0,0,3,,,,,,,,,2,,,57,36
399522,note_on,0,0,3,,,,,,,,,2,,,57,0
399522,note_on,0,0,3,,,,,,,,,2,,,52,0
399522,note_on,12,0,3,,,,,,,,,2,,,60,0
399630,note_on,0,0,3,,,,,,,,,2,,,60,36
399630,note_on,0,0,3,,,,,,,,,2,,,57,36
399630,note_on,108,0,3,,,,,,,,,2,,,52,36
399630,note_on,0,0,1,,,,,,,,,0,,,84,49
399630,note_on,240,0,1,,,,,,,,,0,,,76,0
399634,note_on,0,0,3,,,,,,,,,2,,,52,0
399634,note_on,0,0,3,,,,,,,,,2,,,57,0
399634,note_on,4,0,3,,,,,,,,,2,,,60,0
399690,note_on,0,0,1,,,,,,,,,0,,,83,49
399690,note_on,60,0,1,,,,,,,,,0,,,84,0
399720,note_on,30,0,1,,,,,,,,,0,,,81,49
399735,note_on,15,0,1,,,,,,,,,0,,,81,0
399735,note_on,0,0,1,,,,,,,,,0,,,83,49
399750,note_on,0,0,1,,,,,,,,,0,,,81,49
399750,note_on,0,0,1,,,,,,,,,0,,,83,0
399750,note_on,15,0,1,,,,,,,,,0,,,83,0
399750,note_on,116,0,3,,,,,,,,,2,,,45,36
399810,note_on,0,0,1,,,,,,,,,0,,,80,49
399810,note_on,60,0,1,,,,,,,,,0,,,81,0
399870,note_on,0,0,3,,,,,,,,,2,,,60,36
399870,note_on,0,0,3,,,,,,,,,2,,,57,36
399870,note_on,0,0,3,,,,,,,,,2,,,52,36
399870,note_on,0,0,1,,,,,,,,,0,,,81,49
399870,note_on,60,0,1,,,,,,,,,0,,,80,0
399870,note_on,120,0,3,,,,,,,,,2,,,45,0
399882,note_on,0,0,3,,,,,,,,,2,,,57,0
399882,note_on,12,0,3,,,,,,,,,2,,,60,0
399882,note_on,0,0,3,,,,,,,,,2,,,52,0
399930,note_on,0,0,1,,,,,,,,,0,,,83,49
399930,note_on,60,0,1,,,,,,,,,0,,,81,0
399990,note_on,0,0,3,,,,,,,,,2,,,61,36
399990,note_on,60,0,1,,,,,,,,,0,,,83,0
399990,note_on,0,0,3,,,,,,,,,2,,,57,36
399990,note_on,108,0,3,,,,,,,,,2,,,52,36
399990,note_on,0,0,1,,,,,,,,,0,,,79,49
400002,note_on,0,0,3,,,,,,,,,2,,,52,0
400002,note_on,12,0,3,,,,,,,,,2,,,61,0
400002,note_on,0,0,3,,,,,,,,,2,,,57,0
400050,note_on,0,0,1,,,,,,,,,0,,,81,49
400050,note_on,60,0,1,,,,,,,,,0,,,79,0
400080,note_on,30,0,1,,,,,,,,,0,,,77,49
400095,note_on,15,0,1,,,,,,,,,0,,,77,0
400095,note_on,0,0,1,,,,,,,,,0,,,79,49
400110,note_on,0,0,1,,,,,,,,,0,,,77,49
400110,note_on,108,0,3,,,,,,,,,2,,,45,36
400110,note_on,0,0,1,,,,,,,,,0,,,81,0
400110,note_on,15,0,1,,,,,,,,,0,,,79,0
400170,note_on,60,0,1,,,,,,,,,0,,,77,0
400170,note_on,0,0,1,,,,,,,,,0,,,76,49
400230,note_on,60,0,1,,,,,,,,,0,,,76,0
400230,note_on,0,0,1,,,,,,,,,0,,,77,49
400230,note_on,0,0,3,,,,,,,,,2,,,62,36
400230,note_on,0,0,3,,,,,,,,,2,,,57,36
400230,note_on,0,0,3,,,,,,,,,2,,,53,36
400230,note_on,120,0,3,,,,,,,,,2,,,45,0
400242,note_on,0,0,3,,,,,,,,,2,,,53,0
400242,note_on,12,0,3,,,,,,,,,2,,,62,0
400242,note_on,0,0,3,,,,,,,,,2,,,57,0
400290,note_on,0,0,1,,,,,,,,,0,,,86,49
400290,note_on,60,0,1,,,,,,,,,0,,,77,0
400350,note_on,108,0,3,,,,,,,,,2,,,57,36
400350,note_on,0,0,3,,,,,,,,,2,,,60,36
400350,note_on,60,0,1,,,,,,,,,0,,,86,0
400350,note_on,0,0,1,,,,,,,,,0,,,76,49
400362,note_on,12,0,3,,,,,,,,,2,,,60,0
400362,note_on,0,0,3,,,,,,,,,2,,,57,0
400410,note_on,0,0,1,,,,,,,,,0,,,84,49
400410,note_on,60,0,1,,,,,,,,,0,,,76,0
400470,note_on,108,0,3,,,,,,,,,2,,,40,36
400470,note_on,0,0,1,,,,,,,,,0,,,83,49
400470,note_on,60,0,1,,,,,,,,,0,,,84,0
400530,note_on,60,0,1,,,,,,,,,0,,,83,0
400530,note_on,0,0,1,,,,,,,,,0,,,87,49
400590,note_on,0,0,3,,,,,,,,,2,,,56,36
400590,note_on,0,0,3,,,,,,,,,2,,,62,36
400590,note_on,0,0,3,,,,,,,,,2,,,52,36
400590,note_on,0,0,1,,,,,,,,,0,,,88,49
400590,note_on,60,0,1,,,,,,,,,0,,,87,0
400590,note_on,120,0,3,,,,,,,,,2,,,40,0
400602,note_on,12,0,3,,,,,,,,,2,,,62,0
400602,note_on,0,0,3,,,,,,,,,2,,,56,0
400602,note_on,0,0,3,,,,,,,,,2,,,52,0
400650,note_on,0,0,1,,,,,,,,,0,,,86,49
400650,note_on,60,0,1,,,,,,,,,0,,,88,0
400710,note_on,0,0,3,,,,,,,,,2,,,62,36
400710,note_on,0,0,3,,,,,,,,,2,,,56,36
400710,note_on,108,0,3,,,,,,,,,2,,,52,36
400710,note_on,60,0,1,,,,,,,,,0,,,86,0
400710,note_on,0,0,1,,,,,,,,,0,,,84,49
400722,note_on,0,0,3,,,,,,,,,2,,,52,0
400722,note_on,0,0,3,,,,,,,,,2,,,56,0
400722,note_on,12,0,3,,,,,,,,,2,,,62,0
400770,note_on,60,0,1,,,,,,,,,0,,,84,0
400770,note_on,0,0,1,,,,,,,,,0,,,83,49
400830,time_signature,2520,1,0,2,4,24,8,,,,,,,,,
400830,note_on,108,0,3,,,,,,,,,2,,,45,36
400830,note_on,0,0,1,,,,,,,,,0,,,81,49
400830,note_on,60,0,1,,,,,,,,,0,,,83,0
400950,note_on,120,0,3,,,,,,,,,2,,,45,0
400950,note_on,0,0,3,,,,,,,,,2,,,60,36
400950,note_on,0,0,3,,,,,,,,,2,,,57,36
400950,note_on,0,0,3,,,,,,,,,2,,,52,36
401070,note_on,0,0,1,,,,,,,,,0,,,76,49
401070,time_signature,240,1,0,1,4,24,8,,,,,,,,,
401070,note_on,0,0,1,,,,,,,,,0,,,79,49
401070,note_on,240,0,1,,,,,,,,,0,,,81,0
401070,note_on,0,0,3,,,,,,,,,2,,,52,0
401070,note_on,120,0,3,,,,,,,,,2,,,60,0
401070,note_on,0,0,3,,,,,,,,,2,,,57,0
401130,note_on,60,0,1,,,,,,,,,0,,,79,0
401130,note_on,0,0,1,,,,,,,,,0,,,76,0
401130,note_on,0,0,1,,,,,,,,,0,,,67,49
401160,note_on,30,0,1,,,,,,,,,0,,,67,49
401175,note_on,0,0,1,,,,,,,,,0,,,69,49
401175,note_on,15,0,1,,,,,,,,,0,,,67,0
401190,note_on,0,0,1,,,,,,,,,0,,,67,49
401190,note_on,0,0,1,,,,,,,,,0,,,67,0
401190,note_on,120,0,3,,,,,,,,,2,,,48,36
401190,time_signature,120,1,0,3,4,24,8,,,,,,,,,
401190,note_on,15,0,1,,,,,,,,,0,,,69,0
401250,note_on,0,0,1,,,,,,,,,0,,,66,49
401250,note_on,60,0,1,,,,,,,,,0,,,67,0
401310,note_on,0,0,3,,,,,,,,,2,,,55,36
401310,note_on,0,0,3,,,,,,,,,2,,,60,36
401310,note_on,0,0,3,,,,,,,,,2,,,64,36
401310,note_on,0,0,1,,,,,,,,,0,,,67,49
401310,note_on,60,0,1,,,,,,,,,0,,,66,0
401310,note_on,120,0,3,,,,,,,,,2,,,48,0
401322,note_on,12,0,3,,,,,,,,,2,,,64,0
401322,note_on,0,0,3,,,,,,,,,2,,,60,0
401322,note_on,0,0,3,,,,,,,,,2,,,55,0
401370,note_on,0,0,1,,,,,,,,,0,,,79,49
401370,note_on,60,0,1,,,,,,,,,0,,,67,0
401430,note_on,0,0,3,,,,,,,,,2,,,64,36
401430,note_on,0,0,1,,,,,,,,,0,,,77,67
401430,note_on,0,0,1,,,,,,,,,0,,,81,75
401430,note_on,108,0,3,,,,,,,,,2,,,55,36
401430,note_on,0,0,3,,,,,,,,,2,,,60,36
401430,note_on,60,0,1,,,,,,,,,0,,,79,0
401442,note_on,0,0,3,,,,,,,,,2,,,55,0
401442,note_on,0,0,3,,,,,,,,,2,,,60,0
401442,note_on,12,0,3,,,,,,,,,2,,,64,0
401490,note_on,0,0,1,,,,,,,,,0,,,77,0
401490,note_on,0,0,1,,,,,,,,,0,,,76,49
401490,note_on,0,0,1,,,,,,,,,0,,,79,49
401490,note_on,60,0,1,,,,,,,,,0,,,81,0
401550,note_on,0,0,1,,,,,,,,,0,,,77,49
401550,note_on,0,0,1,,,,,,,,,0,,,74,49
401550,note_on,60,0,1,,,,,,,,,0,,,79,0
401550,note_on,108,0,3,,,,,,,,,2,,,43,36
401550,note_on,0,0,1,,,,,,,,,0,,,76,0
401670,note_on,0,0,3,,,,,,,,,2,,,55,36
401670,note_on,120,0,3,,,,,,,,,2,,,43,0
401670,note_on,0,0,3,,,,,,,,,2,,,59,36
401670,note_on,0,0,3,,,,,,,,,2,,,62,36
401670,note_on,0,0,3,,,,,,,,,2,,,65,36
401682,note_on,0,0,3,,,,,,,,,2,,,62,0
401682,note_on,12,0,3,,,,,,,,,2,,,65,0
401682,note_on,0,0,3,,,,,,,,,2,,,55,0
401682,note_on,0,0,3,,,,,,,,,2,,,59,0
401790,note_on,0,0,3,,,,,,,,,2,,,65,36
401790,note_on,0,0,3,,,,,,,,,2,,,62,36
401790,note_on,0,0,3,,,,,,,,,2,,,59,36
401790,note_on,108,0,3,,,,,,,,,2,,,55,36
401790,note_on,240,0,1,,,,,,,,,0,,,77,0
401790,note_on,0,0,1,,,,,,,,,0,,,74,0
401790,note_on,0,0,1,,,,,,,,,0,,,77,75
401790,note_on,0,0,1,,,,,,,,,0,,,74,67
401802,note_on,12,0,3,,,,,,,,,2,,,65,0
401802,note_on,0,0,3,,,,,,,,,2,,,55,0
401802,note_on,0,0,3,,,,,,,,,2,,,59,0
401802,note_on,0,0,3,,,,,,,,,2,,,62,0
401850,note_on,60,0,1,,,,,,,,,0,,,77,0
401850,note_on,0,0,1,,,,,,,,,0,,,67,49
401850,note_on,0,0,1,,,,,,,,,0,,,74,0
401880,note_on,30,0,1,,,,,,,,,0,,,67,49
401895,note_on,15,0,1,,,,,,,,,0,,,67,0
401895,note_on,0,0,1,,,,,,,,,0,,,69,49
401910,note_on,0,0,1,,,,,,,,,0,,,67,49
401910,note_on,0,0,1,,,,,,,,,0,,,67,0
401910,note_on,15,0,1,,,,,,,,,0,,,69,0
401910,note_on,108,0,3,,,,,,,,,2,,,43,36
401970,note_on,0,0,1,,,,,,,,,0,,,66,49
401970,note_on,60,0,1,,,,,,,,,0,,,67,0
402030,note_on,60,0,1,,,,,,,,,0,,,66,0
402030,note_on,0,0,3,,,,,,,,,2,,,55,36
402030,note_on,0,0,3,,,,,,,,,2,,,65,36
402030,note_on,0,0,1,,,,,,,,,0,,,67,49
402030,note_on,0,0,3,,,,,,,,,2,,,59,36
402030,note_on,120,0,3,,,,,,,,,2,,,43,0
402030,note_on,0,0,3,,,,,,,,,2,,,62,36
402042,note_on,0,0,3,,,,,,,,,2,,,59,0
402042,note_on,0,0,3,,,,,,,,,2,,,62,0
402042,note_on,0,0,3,,,,,,,,,2,,,55,0
402042,note_on,12,0,3,,,,,,,,,2,,,65,0
402090,note_on,0,0,1,,,,,,,,,0,,,77,49
402090,note_on,0,0,1,,,,,,,,,0,,,74,49
402090,note_on,60,0,1,,,,,,,,,0,,,67,0
402150,note_on,60,0,1,,,,,,,,,0,,,77,0
402150,note_on,0,0,1,,,,,,,,,0,,,74,0
402150,note_on,0,0,1,,,,,,,,,0,,,76,67
402150,note_on,0,0,3,,,,,,,,,2,,,62,36
402150,note_on,0,0,3,,,,,,,,,2,,,65,36
402150,note_on,108,0,3,,,,,,,,,2,,,55,36
402150,note_on,0,0,1,,,,,,,,,0,,,79,75
402150,note_on,0,0,3,,,,,,,,,2,,,59,36
402162,note_on,12,0,3,,,,,,,,,2,,,65,0
402162,note_on,0,0,3,,,,,,,,,2,,,55,0
402162,note_on,0,0,3,,,,,,,,,2,,,59,0
402162,note_on,0,0,3,,,,,,,,,2,,,62,0
402210,note_on,60,0,1,,,,,,,,,0,,,79,0
402210,note_on,0,0,1,,,,,,,,,0,,,77,49
402210,note_on,0,0,1,,,,,,,,,0,,,74,49
402210,note_on,0,0,1,,,,,,,,,0,,,76,0
402270,note_on,0,0,1,,,,,,,,,0,,,72,49
402270,note_on,108,0,3,,,,,,,,,2,,,48,36
402270,note_on,0,0,1,,,,,,,,,0,,,76,49
402270,note_on,0,0,1,,,,,,,,,0,,,74,0
402270,note_on,60,0,1,,,,,,,,,0,,,77,0
402390,note_on,120,0,3,,,,,,,,,2,,,48,0
402390,note_on,0,0,3,,,,,,,,,2,,,55,36
402390,note_on,0,0,3,,,,,,,,,2,,,60,36
402390,note_on,0,0,3,,,,,,,,,2,,,64,36
402402,note_on,12,0,3,,,,,,,,,2,,,64,0
402402,note_on,0,0,3,,,,,,,,,2,,,60,0
402402,note_on,0,0,3,,,,,,,,,2,,,55,0
402510,note_on,0,0,3,,,,,,,,,2,,,64,36
402510,note_on,0,0,1,,,,,,,,,0,,,84,75
402510,note_on,0,0,3,,,,,,,,,2,,,60,36
402510,note_on,0,0,1,,,,,,,,,0,,,72,0
402510,note_on,240,0,1,,,,,,,,,0,,,76,0
402510,note_on,108,0,3,,,,,,,,,2,,,55,36
402510,note_on,0,0,1,,,,,,,,,0,,,76,67
402514,note_on,0,0,3,,,,,,,,,2,,,55,0
402514,note_on,0,0,3,,,,,,,,,2,,,60,0
402514,note_on,4,0,3,,,,,,,,,2,,,64,0
402570,note_on,60,0,1,,,,,,,,,0,,,84,0
402570,note_on,0,0,1,,,,,,,,,0,,,76,0
402570,note_on,0,0,1,,,,,,,,,0,,,72,49
402600,note_on,30,0,1,,,,,,,,,0,,,72,49
402615,note_on,15,0,1,,,,,,,,,0,,,72,0
402615,note_on,0,0,1,,,,,,,,,0,,,74,49
402630,note_on,15,0,1,,,,,,,,,0,,,74,0
402630,note_on,116,0,3,,,,,,,,,2,,,48,36
402630,note_on,0,0,1,,,,,,,,,0,,,72,49
402630,note_on,0,0,1,,,,,,,,,0,,,72,0
402690,note_on,60,0,1,,,,,,,,,0,,,72,0
402690,note_on,0,0,1,,,,,,,,,0,,,71,49
402750,note_on,120,0,3,,,,,,,,,2,,,48,0
402750,note_on,0,0,3,,,,,,,,,2,,,55,36
402750,note_on,0,0,3,,,,,,,,,2,,,60,36
402750,note_on,0,0,3,,,,,,,,,2,,,64,36
402750,note_on,60,0,1,,,,,,,,,0,,,71,0
402750,note_on,0,0,1,,,,,,,,,0,,,72,49
402762,note_on,0,0,3,,,,,,,,,2,,,55,0
402762,note_on,0,0,3,,,,,,,,,2,,,60,0
402762,note_on,12,0,3,,,,,,,,,2,,,64,0
402810,note_on,0,0,1,,,,,,,,,0,,,76,49
402810,note_on,60,0,1,,,,,,,,,0,,,72,0
402870,note_on,0,0,1,,,,,,,,,0,,,84,80
402870,note_on,60,0,1,,,,,,,,,0,,,76,0
402870,note_on,0,0,1,,,,,,,,,0,,,88,88
402870,note_on,108,0,3,,,,,,,,,2,,,55,49
402870,note_on,0,0,3,,,,,,,,,2,,,60,49
402870,note_on,0,0,3,,,,,,,,,2,,,64,49
402882,note_on,12,0,3,,,,,,,,,2,,,64,0
402882,note_on,0,0,3,,,,,,,,,2,,,60,0
402882,note_on,0,0,3,,,,,,,,,2,,,55,0
402930,note_on,60,0,1,,,,,,,,,0,,,88,0
402930,note_on,0,0,1,,,,,,,,,0,,,84,0
402930,note_on,0,0,1,,,,,,,,,0,,,76,62
402960,note_on,30,0,1,,,,,,,,,0,,,76,62
402975,note_on,15,0,1,,,,,,,,,0,,,76,0
402975,note_on,0,0,1,,,,,,,,,0,,,77,62
402990,note_on,15,0,1,,,,,,,,,0,,,77,0
402990,note_on,108,0,3,,,,,,,,,2,,,48,49
402990,note_on,0,0,1,,,,,,,,,0,,,76,0
402990,note_on,0,0,1,,,,,,,,,0,,,76,62
403050,note_on,60,0,1,,,,,,,,,0,,,76,0
403050,note_on,0,0,1,,,,,,,,,0,,,75,62
403110,note_on,0,0,3,,,,,,,,,2,,,64,62
403110,note_on,60,0,1,,,,,,,,,0,,,75,0
403110,note_on,0,0,3,,,,,,,,,2,,,55,62
403110,note_on,120,0,3,,,,,,,,,2,,,48,0
403110,note_on,0,0,1,,,,,,,,,0,,,76,75
403110,note_on,0,0,3,,,,,,,,,2,,,60,62
403122,note_on,0,0,3,,,,,,,,,2,,,55,0
403122,note_on,0,0,3,,,,,,,,,2,,,60,0
403122,note_on,12,0,3,,,,,,,,,2,,,64,0
403170,note_on,60,0,1,,,,,,,,,0,,,76,0
403170,note_on,0,0,1,,,,,,,,,0,,,79,75
403230,note_on,60,0,1,,,,,,,,,0,,,79,0
403230,note_on,0,0,1,,,,,,,,,0,,,88,106
403230,note_on,0,0,1,,,,,,,,,0,,,91,114
403230,note_on,0,0,3,,,,,,,,,2,,,60,75
403230,note_on,0,0,3,,,,,,,,,2,,,64,75
403230,note_on,108,0,3,,,,,,,,,2,,,55,75
403242,note_on,0,0,3,,,,,,,,,2,,,55,0
403242,note_on,12,0,3,,,,,,,,,2,,,64,0
403242,note_on,0,0,3,,,,,,,,,2,,,60,0
403290,note_on,60,0,1,,,,,,,,,0,,,91,0
403290,note_on,0,0,1,,,,,,,,,0,,,88,0
403290,note_on,0,0,1,,,,,,,,,0,,,79,88
403350,note_on,0,0,1,,,,,,,,,0,,,79,101
403350,note_on,108,0,3,,,,,,,,,2,,,43,88
403350,note_on,60,0,1,,,,,,,,,0,,,79,0
403410,note_on,0,0,1,,,,,,,,,0,,,89,101
403410,note_on,0,0,1,,,,,,,,,0,,,93,101
403410,note_on,60,0,1,,,,,,,,,0,,,79,0
403470,note_on,60,0,1,,,,,,,,,0,,,93,0
403470,note_on,0,0,1,,,,,,,,,0,,,89,0
403470,note_on,0,0,1,,,,,,,,,0,,,88,101
403470,note_on,0,0,1,,,,,,,,,0,,,91,101
403470,note_on,0,0,3,,,,,,,,,2,,,65,88
403470,note_on,0,0,3,,,,,,,,,2,,,62,88
403470,note_on,0,0,3,,,,,,,,,2,,,55,88
403470,note_on,120,0,3,,,,,,,,,2,,,43,0
403470,note_on,0,0,3,,,,,,,,,2,,,59,88
403482,note_on,0,0,3,,,,,,,,,2,,,62,0
403482,note_on,0,0,3,,,,,,,,,2,,,59,0
403482,note_on,0,0,3,,,,,,,,,2,,,55,0
403482,note_on,12,0,3,,,,,,,,,2,,,65,0
403530,note_on,60,0,1,,,,,,,,,0,,,91,0
403530,note_on,0,0,1,,,,,,,,,0,,,88,0
403530,note_on,0,0,1,,,,,,,,,0,,,89,101
403530,note_on,0,0,1,,,,,,,,,0,,,86,101
403590,note_on,60,0,1,,,,,,,,,0,,,89,0
403590,note_on,0,0,1,,,,,,,,,0,,,86,0
403590,note_on,0,0,1,,,,,,,,,0,,,84,101
403590,note_on,0,0,1,,,,,,,,,0,,,88,101
403590,note_on,108,0,3,,,,,,,,,2,,,55,88
403590,note_on,0,0,3,,,,,,,,,2,,,59,88
403590,note_on,0,0,3,,,,,,,,,2,,,62,88
403590,note_on,0,0,3,,,,,,,,,2,,,65,88
403602,note_on,12,0,3,,,,,,,,,2,,,65,0
403602,note_on,0,0,3,,,,,,,,,2,,,55,0
403602,note_on,0,0,3,,,,,,,,,2,,,59,0
403602,note_on,0,0,3,,,,,,,,,2,,,62,0
403650,note_on,60,0,1,,,,,,,,,0,,,88,0
403650,note_on,0,0,1,,,,,,,,,0,,,84,0
403650,note_on,0,0,1,,,,,,,,,0,,,83,101
403650,note_on,0,0,1,,,,,,,,,0,,,86,101
403710,note_on,108,0,3,,,,,,,,,2,,,48,88
403710,note_on,60,0,1,,,,,,,,,0,,,86,0
403710,note_on,0,0,1,,,,,,,,,0,,,84,101
403710,time_signature,2520,1,0,2,4,24,8,,,,,,,,,
403710,note_on,0,0,1,,,,,,,,,0,,,83,0
403830,note_on,0,0,3,,,,,,,,,2,,,64,88
403830,note_on,0,0,3,,,,,,,,,2,,,60,88
403830,note_on,0,0,3,,,,,,,,,2,,,55,88
403830,note_on,120,0,3,,,,,,,,,2,,,48,0
403950,note_on,240,0,1,,,,,,,,,0,,,84,0
403950,time_signature,240,1,0,1,4,24,8,,,,,,,,,
403950,note_on,0,0,1,,,,,,,,,0,,,79,49
403950,note_on,0,0,1,,,,,,,,,0,,,76,49
403950,note_on,120,0,3,,,,,,,,,2,,,64,0
403950,note_on,0,0,3,,,,,,,,,2,,,60,0
403950,note_on,0,0,3,,,,,,,,,2,,,55,0
404010,note_on,60,0,1,,,,,,,,,0,,,79,0
404010,note_on,0,0,1,,,,,,,,,0,,,76,0
404010,note_on,0,0,1,,,,,,,,,0,,,67,49
404040,note_on,30,0,1,,,,,,,,,0,,,67,49
404055,note_on,0,0,1,,,,,,,,,0,,,69,49
404055,note_on,15,0,1,,,,,,,,,0,,,67,0
404070,note_on,0,0,1,,,,,,,,,0,,,67,0
404070,note_on,0,0,1,,,,,,,,,0,,,67,49
404070,time_signature,120,1,0,3,4,24,8,,,,,,,,,
404070,note_on,120,0,3,,,,,,,,,2,,,48,36
404070,note_on,15,0,1,,,,,,,,,0,,,69,0
404130,note_on,60,0,1,,,,,,,,,0,,,67,0
404130,note_on,0,0,1,,,,,,,,,0,,,66,49
404190,note_on,0,0,3,,,,,,,,,2,,,60,36
404190,note_on,120,0,3,,,,,,,,,2,,,48,0
404190,note_on,0,0,3,,,,,,,,,2,,,55,36
404190,note_on,0,0,3,,,,,,,,,2,,,64,36
404190,note_on,60,0,1,,,,,,,,,0,,,66,0
404190,note_on,0,0,1,,,,,,,,,0,,,67,49
404202,note_on,12,0,3,,,,,,,,,2,,,64,0
404202,note_on,0,0,3,,,,,,,,,2,,,60,0
404202,note_on,0,0,3,,,,,,,,,2,,,55,0
404250,note_on,60,0,1,,,,,,,,,0,,,67,0
404250,note_on,0,0,1,,,,,,,,,0,,,79,49
404310,note_on,0,0,3,,,,,,,,,2,,,64,36
404310,note_on,108,0,3,,,,,,,,,2,,,55,36
404310,note_on,60,0,1,,,,,,,,,0,,,79,0
404310,note_on,0,0,1,,,,,,,,,0,,,77,67
404310,note_on,0,0,1,,,,,,,,,0,,,81,75
404310,note_on,0,0,3,,,,,,,,,2,,,60,36
404322,note_on,12,0,3,,,,,,,,,2,,,64,0
404322,note_on,0,0,3,,,,,,,,,2,,,60,0
404322,note_on,0,0,3,,,,,,,,,2,,,55,0
404370,note_on,60,0,1,,,,,,,,,0,,,81,0
404370,note_on,0,0,1,,,,,,,,,0,,,79,49
404370,note_on,0,0,1,,,,,,,,,0,,,76,49
404370,note_on,0,0,1,,,,,,,,,0,,,77,0
404430,note_on,108,0,3,,,,,,,,,2,,,43,36
404430,note_on,0,0,1,,,,,,,,,0,,,77,49
404430,note_on,0,0,1,,,,,,,,,0,,,74,49
404430,note_on,0,0,1,,,,,,,,,0,,,76,0
404430,note_on,60,0,1,,,,,,,,,0,,,79,0
404550,note_on,0,0,3,,,,,,,,,2,,,59,36
404550,note_on,0,0,3,,,,,,,,,2,,,62,36
404550,note_on,0,0,3,,,,,,,,,2,,,65,36
404550,note_on,120,0,3,,,,,,,,,2,,,43,0
404550,note_on,0,0,3,,,,,,,,,2,,,55,36
404562,note_on,0,0,3,,,,,,,,,2,,,62,0
404562,note_on,0,0,3,,,,,,,,,2,,,59,0
404562,note_on,0,0,3,,,,,,,,,2,,,55,0
404562,note_on,12,0,3,,,,,,,,,2,,,65,0
404670,note_on,0,0,1,,,,,,,,,0,,,77,75
404670,note_on,0,0,1,,,,,,,,,0,,,74,67
404670,note_on,240,0,1,,,,,,,,,0,,,77,0
404670,note_on,0,0,1,,,,,,,,,0,,,74,0
404670,note_on,0,0,3,,,,,,,,,2,,,62,36
404670,note_on,0,0,3,,,,,,,,,2,,,65,36
404670,note_on,0,0,3,,,,,,,,,2,,,59,36
404670,note_on,108,0,3,,,,,,,,,2,,,55,36
404682,note_on,0,0,3,,,,,,,,,2,,,62,0
404682,note_on,0,0,3,,,,,,,,,2,,,59,0
404682,note_on,0,0,3,,,,,,,,,2,,,55,0
404682,note_on,12,0,3,,,,,,,,,2,,,65,0
404730,note_on,0,0,1,,,,,,,,,0,,,74,0
404730,note_on,0,0,1,,,,,,,,,0,,,67,49
404730,note_on,60,0,1,,,,,,,,,0,,,77,0
404760,note_on,30,0,1,,,,,,,,,0,,,67,49
404775,note_on,15,0,1,,,,,,,,,0,,,67,0
404775,note_on,0,0,1,,,,,,,,,0,,,69,49
404790,note_on,108,0,3,,,,,,,,,2,,,43,36
404790,note_on,15,0,1,,,,,,,,,0,,,69,0
404790,note_on,0,0,1,,,,,,,,,0,,,67,0
404790,note_on,0,0,1,,,,,,,,,0,,,67,49
404850,note_on,60,0,1,,,,,,,,,0,,,67,0
404850,note_on,0,0,1,,,,,,,,,0,,,66,49
404910,note_on,60,0,1,,,,,,,,,0,,,66,0
404910,note_on,0,0,1,,,,,,,,,0,,,67,49
404910,note_on,0,0,3,,,,,,,,,2,,,55,36
404910,note_on,120,0,3,,,,,,,,,2,,,43,0
404910,note_on,0,0,3,,,,,,,,,2,,,59,36
404910,note_on,0,0,3,,,,,,,,,2,,,62,36
404910,note_on,0,0,3,,,,,,,,,2,,,65,36
404922,note_on,0,0,3,,,,,,,,,2,,,59,0
404922,note_on,12,0,3,,,,,,,,,2,,,65,0
404922,note_on,0,0,3,,,,,,,,,2,,,55,0
404922,note_on,0,0,3,,,,,,,,,2,,,62,0
404970,note_on,60,0,1,,,,,,,,,0,,,67,0
404970,note_on,0,0,1,,,,,,,,,0,,,77,49
404970,note_on,0,0,1,,,,,,,,,0,,,74,49
405030,note_on,0,0,3,,,,,,,,,2,,,65,36
405030,note_on,108,0,3,,,,,,,,,2,,,55,36
405030,note_on,0,0,3,,,,,,,,,2,,,59,36
405030,note_on,0,0,1,,,,,,,,,0,,,79,75
405030,note_on,0,0,3,,,,,,,,,2,,,62,36
405030,note_on,0,0,1,,,,,,,,,0,,,76,67
405030,note_on,0,0,1,,,,,,,,,0,,,74,0
405030,note_on,60,0,1,,,,,,,,,0,,,77,0
405042,note_on,0,0,3,,,,,,,,,2,,,62,0
405042,note_on,0,0,3,,,,,,,,,2,,,59,0
405042,note_on,0,0,3,,,,,,,,,2,,,55,0
405042,note_on,12,0,3,,,,,,,,,2,,,65,0
405090,note_on,60,0,1,,,,,,,,,0,,,79,0
405090,note_on,0,0,1,,,,,,,,,0,,,76,0
405090,note_on,0,0,1,,,,,,,,,0,,,74,49
405090,note_on,0,0,1,,,,,,,,,0,,,77,49
405150,note_on,60,0,1,,,,,,,,,0,,,77,0
405150,note_on,0,0,1,,,,,,,,,0,,,76,49
405150,note_on,0,0,1,,,,,,,,,0,,,72,49
405150,note_on,0,0,1,,,,,,,,,0,,,74,0
405150,note_on,108,0,3,,,,,,,,,2,,,48,36
405270,note_on,0,0,3,,,,,,,,,2,,,64,36
405270,note_on,120,0,3,,,,,,,,,2,,,48,0
405270,note_on,0,0,3,,,,,,,,,2,,,55,36
405270,note_on,0,0,3,,,,,,,,,2,,,60,36
405282,note_on,12,0,3,,,,,,,,,2,,,64,0
405282,note_on,0,0,3,,,,,,,,,2,,,55,0
405282,note_on,0,0,3,,,,,,,,,2,,,60,0
405390,note_on,108,0,3,,,,,,,,,2,,,55,36
405390,note_on,0,0,3,,,,,,,,,2,,,60,36
405390,note_on,0,0,3,,,,,,,,,2,,,64,36
405390,note_on,0,0,1,,,,,,,,,0,,,72,0
405390,note_on,240,0,1,,,,,,,,,0,,,76,0
405390,note_on,0,0,1,,,,,,,,,0,,,76,67
405390,note_on,0,0,1,,,,,,,,,0,,,84,75
405394,note_on,4,0,3,,,,,,,,,2,,,64,0
405394,note_on,0,0,3,,,,,,,,,2,,,60,0
405394,note_on,0,0,3,,,,,,,,,2,,,55,0
405450,note_on,0,0,1,,,,,,,,,0,,,72,49
405450,note_on,0,0,1,,,,,,,,,0,,,76,0
405450,note_on,60,0,1,,,,,,,,,0,,,84,0
405480,note_on,30,0,1,,,,,,,,,0,,,72,49
405495,note_on,0,0,1,,,,,,,,,0,,,74,49
405495,note_on,15,0,1,,,,,,,,,0,,,72,0
405510,note_on,15,0,1,,,,,,,,,0,,,74,0
405510,note_on,116,0,3,,,,,,,,,2,,,48,36
405510,note_on,0,0,1,,,,,,,,,0,,,72,0
405510,note_on,0,0,1,,,,,,,,,0,,,72,49
405570,note_on,0,0,1,,,,,,,,,0,,,71,49
405570,note_on,60,0,1,,,,,,,,,0,,,72,0
405630,note_on,0,0,3,,,,,,,,,2,,,64,36
405630,note_on,0,0,3,,,,,,,,,2,,,60,36
405630,note_on,0,0,3,,,,,,,,,2,,,55,36
405630,note_on,120,0,3,,,,,,,,,2,,,48,0
405630,note_on,60,0,1,,,,,,,,,0,,,71,0
405630,note_on,0,0,1,,,,,,,,,0,,,72,49
405642,note_on,12,0,3,,,,,,,,,2,,,64,0
405642,note_on,0,0,3,,,,,,,,,2,,,60,0
405642,note_on,0,0,3,,,,,,,,,2,,,55,0
405690,note_on,60,0,1,,,,,,,,,0,,,72,0
405690,note_on,0,0,1,,,,,,,,,0,,,76,49
405750,note_on,0,0,1,,,,,,,,,0,,,84,80
405750,note_on,0,0,1,,,,,,,,,0,,,88,88
405750,note_on,0,0,3,,,,,,,,,2,,,64,49
405750,note_on,0,0,3,,,,,,,,,2,,,60,49
405750,note_on,108,0,3,,,,,,,,,2,,,55,49
405750,note_on,60,0,1,,,,,,,,,0,,,76,0
405762,note_on,12,0,3,,,,,,,,,2,,,64,0
405762,note_on,0,0,3,,,,,,,,,2,,,60,0
405762,note_on,0,0,3,,,,,,,,,2,,,55,0
405810,note_on,0,0,1,,,,,,,,,0,,,76,62
405810,note_on,0,0,1,,,,,,,,,0,,,84,0
405810,note_on,60,0,1,,,,,,,,,0,,,88,0
405840,note_on,30,0,1,,,,,,,,,0,,,76,62
405855,note_on,15,0,1,,,,,,,,,0,,,76,0
405855,note_on,0,0,1,,,,,,,,,0,,,77,62
405870,note_on,15,0,1,,,,,,,,,0,,,77,0
405870,note_on,0,0,1,,,,,,,,,0,,,76,0
405870,note_on,0,0,1,,,,,,,,,0,,,76,62
405870,note_on,108,0,3,,,,,,,,,2,,,48,49
405930,note_on,60,0,1,,,,,,,,,0,,,76,0
405930,note_on,0,0,1,,,,,,,,,0,,,75,62
405990,note_on,60,0,1,,,,,,,,,0,,,75,0
405990,note_on,0,0,1,,,,,,,,,0,,,76,75
405990,note_on,120,0,3,,,,,,,,,2,,,48,0
405990,note_on,0,0,3,,,,,,,,,2,,,64,62
405990,note_on,0,0,3,,,,,,,,,2,,,60,62
405990,note_on,0,0,3,,,,,,,,,2,,,55,62
406002,note_on,0,0,3,,,,,,,,,2,,,55,0
406002,note_on,0,0,3,,,,,,,,,2,,,60,0
406002,note_on,12,0,3,,,,,,,,,2,,,64,0
406050,note_on,60,0,1,,,,,,,,,0,,,76,0
406050,note_on,0,0,1,,,,,,,,,0,,,79,75
406110,note_on,0,0,1,,,,,,,,,0,,,88,106
406110,note_on,0,0,3,,,,,,,,,2,,,64,75
406110,note_on,0,0,1,,,,,,,,,0,,,91,114
406110,note_on,60,0,1,,,,,,,,,0,,,79,0
406110,note_on,108,0,3,,,,,,,,,2,,,55,75
406110,note_on,0,0,3,,,,,,,,,2,,,60,75
406122,note_on,12,0,3,,,,,,,,,2,,,64,0
406122,note_on,0,0,3,,,,,,,,,2,,,60,0
406122,note_on,0,0,3,,,,,,,,,2,,,55,0
406170,note_on,0,0,1,,,,,,,,,0,,,88,0
406170,note_on,60,0,1,,,,,,,,,0,,,91,0
406170,note_on,0,0,1,,,,,,,,,0,,,79,88
406230,note_on,60,0,1,,,,,,,,,0,,,79,0
406230,note_on,0,0,1,,,,,,,,,0,,,79,101
406230,note_on,108,0,3,,,,,,,,,2,,,43,88
406290,note_on,0,0,1,,,,,,,,,0,,,93,101
406290,note_on,60,0,1,,,,,,,,,0,,,79,0
406290,note_on,0,0,1,,,,,,,,,0,,,89,101
406350,note_on,120,0,3,,,,,,,,,2,,,43,0
406350,note_on,0,0,3,,,,,,,,,2,,,55,88
406350,note_on,0,0,3,,,,,,,,,2,,,59,88
406350,note_on,0,0,3,,,,,,,,,2,,,62,88
406350,note_on,0,0,3,,,,,,,,,2,,,65,88
406350,note_on,0,0,1,,,,,,,,,0,,,88,101
406350,note_on,0,0,1,,,,,,,,,0,,,91,101
406350,note_on,0,0,1,,,,,,,,,0,,,89,0
406350,note_on,60,0,1,,,,,,,,,0,,,93,0
406362,note_on,0,0,3,,,,,,,,,2,,,62,0
406362,note_on,12,0,3,,,,,,,,,2,,,65,0
406362,note_on,0,0,3,,,,,,,,,2,,,55,0
406362,note_on,0,0,3,,,,,,,,,2,,,59,0
406410,note_on,60,0,1,,,,,,,,,0,,,91,0
406410,note_on,0,0,1,,,,,,,,,0,,,88,0
406410,note_on,0,0,1,,,,,,,,,0,,,86,101
406410,note_on,0,0,1,,,,,,,,,0,,,89,101
406470,note_on,60,0,1,,,,,,,,,0,,,89,0
406470,note_on,0,0,1,,,,,,,,,0,,,86,0
406470,note_on,0,0,1,,,,,,,,,0,,,84,101
406470,note_on,0,0,1,,,,,,,,,0,,,88,101
406470,note_on,108,0,3,,,,,,,,,2,,,55,88
406470,note_on,0,0,3,,,,,,,,,2,,,59,88
406470,note_on,0,0,3,,,,,,,,,2,,,62,88
406470,note_on,0,0,3,,,,,,,,,2,,,65,88
406482,note_on,12,0,3,,,,,,,,,2,,,65,0
406482,note_on,0,0,3,,,,,,,,,2,,,55,0
406482,note_on,0,0,3,,,,,,,,,2,,,59,0
406482,note_on,0,0,3,,,,,,,,,2,,,62,0
406530,note_on,0,0,1,,,,,,,,,0,,,84,0
406530,note_on,0,0,1,,,,,,,,,0,,,86,101
406530,note_on,0,0,1,,,,,,,,,0,,,83,101
406530,note_on,60,0,1,,,,,,,,,0,,,88,0
406590,time_signature,2520,1,0,3,8,12,8,,,,,,,,,
406590,note_on,108,0,3,,,,,,,,,2,,,48,88
406590,note_on,60,0,1,,,,,,,,,0,,,86,0
406590,note_on,0,0,1,,,,,,,,,0,,,83,0
406590,note_on,0,0,1,,,,,,,,,0,,,84,101
406710,note_on,0,0,3,,,,,,,,,2,,,60,88
406710,note_on,0,0,3,,,,,,,,,2,,,64,88
406710,note_on,0,0,3,,,,,,,,,2,,,55,88
406710,note_on,120,0,3,,,,,,,,,2,,,48,0
406770,note_on,0,0,3,,,,,,,,,2,,,55,0
406770,note_on,180,0,1,,,,,,,,,0,,,84,0
406770,note_on,0,0,1,,,,,,,,,0,,,67,49
406770,note_on,0,0,3,,,,,,,,,2,,,60,0
406770,note_on,60,0,3,,,,,,,,,2,,,64,0
406830,note_on,0,0,1,,,,,,,,,0,,,72,49
406830,note_on,60,0,1,,,,,,,,,0,,,67,0
406890,note_on,0,0,1,,,,,,,,,0,,,76,49
406890,note_on,60,0,1,,,,,,,,,0,,,72,0
406950,note_on,60,0,1,,,,,,,,,0,,,76,0
406950,note_on,0,0,1,,,,,,,,,0,,,76,49
406950,note_on,180,0,3,,,,,,,,,2,,,48,36
406950,time_signature,360,1,0,3,4,24,8,,,,,,,,,
407070,note_on,0,0,3,,,,,,,,,2,,,64,36
407070,note_on,0,0,3,,,,,,,,,2,,,60,36
407070,note_on,0,0,3,,,,,,,,,2,,,55,36
407070,note_on,120,0,3,,,,,,,,,2,,,48,0
407082,note_on,0,0,3,,,,,,,,,2,,,55,0
407082,note_on,12,0,3,,,,,,,,,2,,,64,0
407082,note_on,0,0,3,,,,,,,,,2,,,60,0
407130,note_on,0,0,1,,,,,,,,,0,,,67,49
407130,note_on,180,0,1,,,,,,,,,0,,,76,0
407190,note_on,0,0,1,,,,,,,,,0,,,72,49
407190,note_on,0,0,3,,,,,,,,,2,,,64,36
407190,note_on,0,0,3,,,,,,,,,2,,,60,36
407190,note_on,108,0,3,,,,,,,,,2,,,55,36
407190,note_on,60,0,1,,,,,,,,,0,,,67,0
407202,note_on,12,0,3,,,,,,,,,2,,,64,0
407202,note_on,0,0,3,,,,,,,,,2,,,55,0
407202,note_on,0,0,3,,,,,,,,,2,,,60,0
407250,note_on,60,0,1,,,,,,,,,0,,,72,0
407250,note_on,0,0,1,,,,,,,,,0,,,76,49
407310,note_on,108,0,3,,,,,,,,,2,,,48,36
407310,note_on,60,0,1,,,,,,,,,0,,,76,0
407310,note_on,0,0,1,,,,,,,,,0,,,76,75
407430,note_on,0,0,3,,,,,,,,,2,,,55,36
407430,note_on,120,0,3,,,,,,,,,2,,,48,0
407430,note_on,0,0,3,,,,,,,,,2,,,64,36
407430,note_on,0,0,3,,,,,,,,,2,,,60,36
407442,note_on,12,0,3,,,,,,,,,2,,,64,0
407442,note_on,0,0,3,,,,,,,,,2,,,60,0
407442,note_on,0,0,3,,,,,,,,,2,,,55,0
407490,note_on,0,0,1,,,,,,,,,0,,,67,49
407490,note_on,180,0,1,,,,,,,,,0,,,76,0
407550,note_on,0,0,1,,,,,,,,,0,,,76,49
407550,note_on,60,0,1,,,,,,,,,0,,,67,0
407550,note_on,108,0,3,,,,,,,,,2,,,55,36
407550,note_on,0,0,3,,,,,,,,,2,,,60,36
407550,note_on,0,0,3,,,,,,,,,2,,,64,36
407562,note_on,0,0,3,,,,,,,,,2,,,55,0
407562,note_on,12,0,3,,,,,,,,,2,,,64,0
407562,note_on,0,0,3,,,,,,,,,2,,,60,0
407610,note_on,0,0,1,,,,,,,,,0,,,79,49
407610,note_on,60,0,1,,,,,,,,,0,,,76,0
407670,note_on,0,0,1,,,,,,,,,0,,,67,104
407670,note_on,0,0,1,,,,,,,,,0,,,79,114
407670,note_on,108,0,3,,,,,,,,,2,,,43,75
407670,note_on,60,0,1,,,,,,,,,0,,,79,0
407670,note_on,0,0,1,,,,,,,,,0,,,76,109
407790,note_on,120,0,3,,,,,,,,,2,,,43,0
407790,note_on,0,0,3,,,,,,,,,2,,,55,36
407790,note_on,0,0,3,,,,,,,,,2,,,59,36
407790,note_on,0,0,3,,,,,,,,,2,,,65,36
407802,note_on,12,0,3,,,,,,,,,2,,,65,0
407802,note_on,0,0,3,,,,,,,,,2,,,59,0
407802,note_on,0,0,3,,,,,,,,,2,,,55,0
407850,note_on,0,0,1,,,,,,,,,0,,,67,0
407850,note_on,0,0,1,,,,,,,,,0,,,74,49
407850,note_on,0,0,1,,,,,,,,,0,,,76,0
407850,note_on,180,0,1,,,,,,,,,0,,,79,0
407850,note_on,0,0,1,,,,,,,,,0,,,77,49
407850,note_on,0,0,1,,,,,,,,,0,,,67,49
407910,note_on,108,0,3,,,,,,,,,2,,,55,36
407910,note_on,0,0,3,,,,,,,,,2,,,65,36
407910,note_on,0,0,3,,,,,,,,,2,,,59,36
407910,note_on,60,0,1,,,,,,,,,0,,,77,0
407910,note_on,0,0,1,,,,,,,,,0,,,77,49
407910,note_on,0,0,1,,,,,,,,,0,,,74,49
407910,note_on,0,0,1,,,,,,,,,0,,,67,49
407910,note_on,0,0,1,,,,,,,,,0,,,74,0
407910,note_on,0,0,1,,,,,,,,,0,,,67,0
407922,note_on,12,0,3,,,,,,,,,2,,,65,0
407922,note_on,0,0,3,,,,,,,,,2,,,59,0
407922,note_on,0,0,3,,,,,,,,,2,,,55,0
408030,note_on,0,0,1,,,,,,,,,0,,,72,49
408030,note_on,0,0,1,,,,,,,,,0,,,76,49
408030,note_on,0,0,1,,,,,,,,,0,,,74,0
408030,note_on,120,0,1,,,,,,,,,0,,,77,0
408030,note_on,108,0,3,,,,,,,,,2,,,48,36
408030,note_on,0,0,1,,,,,,,,,0,,,67,49
408030,note_on,0,0,1,,,,,,,,,0,,,67,0
408150,note_on,120,0,3,,,,,,,,,2,,,48,0
408150,note_on,0,0,3,,,,,,,,,2,,,55,36
408150,note_on,0,0,3,,,,,,,,,2,,,60,36
408150,note_on,0,0,3,,,,,,,,,2,,,64,36
408162,note_on,12,0,3,,,,,,,,,2,,,64,0
408162,note_on,0,0,3,,,,,,,,,2,,,60,0
408162,note_on,0,0,3,,,,,,,,,2,,,55,0
408210,note_on,0,0,1,,,,,,,,,0,,,72,0
408210,note_on,0,0,1,,,,,,,,,0,,,67,0
408210,note_on,180,0,1,,,,,,,,,0,,,76,0
408210,note_on,0,0,1,,,,,,,,,0,,,67,49
408270,note_on,108,0,3,,,,,,,,,2,,,55,36
408270,note_on,0,0,1,,,,,,,,,0,,,76,49
408270,note_on,60,0,1,,,,,,,,,0,,,67,0
408270,note_on,0,0,3,,,,,,,,,2,,,60,36
408270,note_on,0,0,3,,,,,,,,,2,,,64,36
408282,note_on,0,0,3,,,,,,,,,2,,,55,0
408282,note_on,0,0,3,,,,,,,,,2,,,60,0
408282,note_on,12,0,3,,,,,,,,,2,,,64,0
408330,note_on,60,0,1,,,,,,,,,0,,,76,0
408330,note_on,0,0,1,,,,,,,,,0,,,79,49
408390,note_on,0,0,1,,,,,,,,,0,,,79,75
408390,note_on,108,0,3,,,,,,,,,2,,,48,36
408390,note_on,60,0,1,,,,,,,,,0,,,79,0
408390,note_on,0,0,1,,,,,,,,,0,,,76,67
408510,note_on,0,0,3,,,,,,,,,2,,,60,36
408510,note_on,120,0,3,,,,,,,,,2,,,48,0
408510,note_on,0,0,3,,,,,,,,,2,,,64,36
408510,note_on,0,0,3,,,,,,,,,2,,,55,36
408522,note_on,0,0,3,,,,,,,,,2,,,60,0
408522,note_on,0,0,3,,,,,,,,,2,,,55,0
408522,note_on,12,0,3,,,,,,,,,2,,,64,0
408570,note_on,0,0,1,,,,,,,,,0,,,67,49
408570,note_on,180,0,1,,,,,,,,,0,,,79,0
408570,note_on,0,0,1,,,,,,,,,0,,,76,0
408630,note_on,0,0,3,,,,,,,,,2,,,60,36
408630,note_on,108,0,3,,,,,,,,,2,,,55,36
408630,note_on,60,0,1,,,,,,,,,0,,,67,0
408630,note_on,0,0,1,,,,,,,,,0,,,76,49
408630,note_on,0,0,3,,,,,,,,,2,,,64,36
408642,note_on,12,0,3,,,,,,,,,2,,,64,0
408642,note_on,0,0,3,,,,,,,,,2,,,60,0
408642,note_on,0,0,3,,,,,,,,,2,,,55,0
408690,note_on,60,0,1,,,,,,,,,0,,,76,0
408690,note_on,0,0,1,,,,,,,,,0,,,79,49
408750,note_on,108,0,3,,,,,,,,,2,,,48,36
408750,note_on,0,0,1,,,,,,,,,0,,,76,67
408750,note_on,0,0,1,,,,,,,,,0,,,79,75
408750,note_on,60,0,1,,,,,,,,,0,,,79,0
408870,note_on,0,0,3,,,,,,,,,2,,,55,36
408870,note_on,0,0,3,,,,,,,,,2,,,64,36
408870,note_on,0,0,3,,,,,,,,,2,,,60,36
408870,note_on,120,0,3,,,,,,,,,2,,,48,0
408882,note_on,0,0,3,,,,,,,,,2,,,55,0
408882,note_on,0,0,3,,,,,,,,,2,,,60,0
408882,note_on,12,0,3,,,,,,,,,2,,,64,0
408930,note_on,0,0,1,,,,,,,,,0,,,76,0
408930,note_on,0,0,1,,,,,,,,,0,,,67,49
408930,note_on,180,0,1,,,,,,,,,0,,,79,0
408990,note_on,60,0,1,,,,,,,,,0,,,67,0
408990,note_on,0,0,1,,,,,,,,,0,,,76,49
408990,note_on,108,0,3,,,,,,,,,2,,,55,36
408990,note_on,0,0,3,,,,,,,,,2,,,60,36
408990,note_on,0,0,3,,,,,,,,,2,,,64,36
409002,note_on,0,0,3,,,,,,,,,2,,,55,0
409002,note_on,0,0,3,,,,,,,,,2,,,60,0
409002,note_on,12,0,3,,,,,,,,,2,,,64,0
409050,note_on,60,0,1,,,,,,,,,0,,,76,0
409050,note_on,0,0,1,,,,,,,,,0,,,79,49
409110,note_on,108,0,3,,,,,,,,,2,,,48,75
409110,note_on,0,0,1,,,,,,,,,0,,,81,88
409110,note_on,60,0,1,,,,,,,,,0,,,79,0
409110,note_on,0,0,1,,,,,,,,,0,,,72,88
409110,note_on,0,0,1,,,,,,,,,0,,,84,88
409230,note_on,0,0,3,,,,,,,,,2,,,65,36
409230,note_on,0,0,3,,,,,,,,,2,,,60,36
409230,note_on,0,0,3,,,,,,,,,2,,,57,36
409230,note_on,120,0,3,,,,,,,,,2,,,48,0
409242,note_on,12,0,3,,,,,,,,,2,,,65,0
409242,note_on,0,0,3,,,,,,,,,2,,,57,0
409242,note_on,0,0,3,,,,,,,,,2,,,60,0
409290,note_on,180,0,1,,,,,,,,,0,,,84,0
409290,note_on,0,0,1,,,,,,,,,0,,,81,0
409290,note_on,0,0,1,,,,,,,,,0,,,72,0
409290,note_on,0,0,1,,,,,,,,,0,,,69,49
409290,note_on,0,0,1,,,,,,,,,0,,,77,49
409290,note_on,0,0,1,,,,,,,,,0,,,81,49
409350,note_on,108,0,3,,,,,,,,,2,,,57,36
409350,note_on,0,0,3,,,,,,,,,2,,,65,36
409350,note_on,0,0,1,,,,,,,,,0,,,81,49
409350,note_on,0,0,3,,,,,,,,,2,,,60,36
409350,note_on,60,0,1,,,,,,,,,0,,,81,0
409350,note_on,0,0,1,,,,,,,,,0,,,77,0
409350,note_on,0,0,1,,,,,,,,,0,,,69,49
409350,note_on,0,0,1,,,,,,,,,0,,,69,0
409350,note_on,0,0,1,,,,,,,,,0,,,77,49
409362,note_on,12,0,3,,,,,,,,,2,,,65,0
409362,note_on,0,0,3,,,,,,,,,2,,,60,0
409362,note_on,0,0,3,,,,,,,,,2,,,57,0
409470,note_on,120,0,1,,,,,,,,,0,,,81,0
409470,note_on,108,0,3,,,,,,,,,2,,,48,36
409470,note_on,0,0,1,,,,,,,,,0,,,67,49
409470,note_on,0,0,1,,,,,,,,,0,,,79,49
409470,note_on,0,0,1,,,,,,,,,0,,,76,49
409470,note_on,0,0,1,,,,,,,,,0,,,69,0
409470,note_on,0,0,1,,,,,,,,,0,,,77,0
409590,note_on,120,0,3,,,,,,,,,2,,,48,0
409590,note_on,0,0,3,,,,,,,,,2,,,64,36
409590,note_on,0,0,3,,,,,,,,,2,,,60,36
409590,note_on,0,0,3,,,,,,,,,2,,,55,36
409602,note_on,12,0,3,,,,,,,,,2,,,64,0
409602,note_on,0,0,3,,,,,,,,,2,,,55,0
409602,note_on,0,0,3,,,,,,,,,2,,,60,0
409650,note_on,180,0,1,,,,,,,,,0,,,79,0
409650,note_on,0,0,1,,,,,,,,,0,,,76,0
409650,note_on,0,0,1,,,,,,,,,0,,,67,0
409650,note_on,0,0,1,,,,,,,,,0,,,67,49
409710,note_on,0,0,3,,,,,,,,,2,,,64,36
409710,note_on,0,0,3,,,,,,,,,2,,,60,36
409710,note_on,108,0,3,,,,,,,,,2,,,55,36
409710,note_on,60,0,1,,,,,,,,,0,,,67,0
409710,note_on,0,0,1,,,,,,,,,0,,,72,49
409722,note_on,0,0,3,,,,,,,,,2,,,55,0
409722,note_on,0,0,3,,,,,,,,,2,,,60,0
409722,note_on,12,0,3,,,,,,,,,2,,,64,0
409770,note_on,60,0,1,,,,,,,,,0,,,72,0
409770,note_on,0,0,1,,,,,,,,,0,,,76,49
409830,note_on,108,0,3,,,,,,,,,2,,,48,36
409830,note_on,60,0,1,,,,,,,,,0,,,76,0
409830,note_on,0,0,1,,,,,,,,,0,,,76,75
409950,note_on,0,0,3,,,,,,,,,2,,,55,36
409950,note_on,120,0,3,,,,,,,,,2,,,48,0
409950,note_on,0,0,3,,,,,,,,,2,,,60,36
409950,note_on,0,0,3,,,,,,,,,2,,,64,36
409962,note_on,0,0,3,,,,,,,,,2,,,60,0
409962,note_on,12,0,3,,,,,,,,,2,,,64,0
409962,note_on,0,0,3,,,,,,,,,2,,,55,0
410010,note_on,0,0,1,,,,,,,,,0,,,67,49
410010,note_on,180,0,1,,,,,,,,,0,,,76,0
410070,note_on,0,0,1,,,,,,,,,0,,,72,49
410070,note_on,60,0,1,,,,,,,,,0,,,67,0
410070,note_on,108,0,3,,,,,,,,,2,,,55,36
410070,note_on,0,0,3,,,,,,,,,2,,,60,36
410070,note_on,0,0,3,,,,,,,,,2,,,64,36
410082,note_on,12,0,3,,,,,,,,,2,,,64,0
410082,note_on,0,0,3,,,,,,,,,2,,,60,0
410082,note_on,0,0,3,,,,,,,,,2,,,55,0
410130,note_on,0,0,1,,,,,,,,,0,,,76,49
410130,note_on,60,0,1,,,,,,,,,0,,,72,0
410190,note_on,108,0,3,,,,,,,,,2,,,48,36
410190,note_on,60,0,1,,,,,,,,,0,,,76,0
410190,note_on,0,0,1,,,,,,,,,0,,,76,75
410310,note_on,0,0,3,,,,,,,,,2,,,60,36
410310,note_on,0,0,3,,,,,,,,,2,,,64,36
410310,note_on,0,0,3,,,,,,,,,2,,,55,36
410310,note_on,120,0,3,,,,,,,,,2,,,48,0
410322,note_on,12,0,3,,,,,,,,,2,,,64,0
410322,note_on,0,0,3,,,,,,,,,2,,,60,0
410322,note_on,0,0,3,,,,,,,,,2,,,55,0
410370,note_on,180,0,1,,,,,,,,,0,,,76,0
410370,note_on,0,0,1,,,,,,,,,0,,,67,49
410430,note_on,60,0,1,,,,,,,,,0,,,67,0
410430,note_on,0,0,1,,,,,,,,,0,,,76,49
410430,note_on,108,0,3,,,,,,,,,2,,,55,36
410430,note_on,0,0,3,,,,,,,,,2,,,60,36
410430,note_on,0,0,3,,,,,,,,,2,,,64,36
410442,note_on,0,0,3,,,,,,,,,2,,,60,0
410442,note_on,12,0,3,,,,,,,,,2,,,64,0
410442,note_on,0,0,3,,,,,,,,,2,,,55,0
410490,note_on,60,0,1,,,,,,,,,0,,,76,0
410490,note_on,0,0,1,,,,,,,,,0,,,79,49
410550,note_on,0,0,1,,,,,,,,,0,,,79,88
410550,note_on,60,0,1,,,,,,,,,0,,,79,0
410550,note_on,0,0,1,,,,,,,,,0,,,67,88
410550,note_on,0,0,1,,,,,,,,,0,,,76,88
410550,note_on,108,0,3,,,,,,,,,2,,,43,75
410670,note_on,120,0,3,,,,,,,,,2,,,43,0
410670,note_on,0,0,3,,,,,,,,,2,,,55,36
410670,note_on,0,0,3,,,,,,,,,2,,,59,36
410670,note_on,0,0,3,,,,,,,,,2,,,65,36
410682,note_on,0,0,3,,,,,,,,,2,,,59,0
410682,note_on,0,0,3,,,,,,,,,2,,,55,0
410682,note_on,12,0,3,,,,,,,,,2,,,65,0
410730,note_on,180,0,1,,,,,,,,,0,,,79,0
410730,note_on,0,0,1,,,,,,,,,0,,,76,0
410730,note_on,0,0,1,,,,,,,,,0,,,67,0
410730,note_on,0,0,1,,,,,,,,,0,,,67,49
410730,note_on,0,0,1,,,,,,,,,0,,,74,49
410730,note_on,0,0,1,,,,,,,,,0,,,77,49
410790,note_on,108,0,3,,,,,,,,,2,,,55,36
410790,note_on,60,0,1,,,,,,,,,0,,,77,0
410790,note_on,0,0,1,,,,,,,,,0,,,74,0
410790,note_on,0,0,1,,,,,,,,,0,,,67,0
410790,note_on,0,0,1,,,,,,,,,0,,,67,49
410790,note_on,0,0,1,,,,,,,,,0,,,74,49
410790,note_on,0,0,1,,,,,,,,,0,,,77,49
410790,note_on,0,0,3,,,,,,,,,2,,,59,36
410790,note_on,0,0,3,,,,,,,,,2,,,65,36
410802,note_on,12,0,3,,,,,,,,,2,,,65,0
410802,note_on,0,0,3,,,,,,,,,2,,,59,0
410802,note_on,0,0,3,,,,,,,,,2,,,55,0
410910,note_on,0,0,1,,,,,,,,,0,,,72,49
410910,note_on,0,0,1,,,,,,,,,0,,,67,49
410910,note_on,0,0,1,,,,,,,,,0,,,67,0
410910,note_on,0,0,1,,,,,,,,,0,,,74,0
410910,note_on,120,0,1,,,,,,,,,0,,,77,0
410910,note_on,0,0,1,,,,,,,,,0,,,76,49
410910,note_on,108,0,3,,,,,,,,,2,,,48,36
411030,note_on,0,0,3,,,,,,,,,2,,,55,36
411030,note_on,0,0,3,,,,,,,,,2,,,60,36
411030,note_on,120,0,3,,,,,,,,,2,,,48,0
411030,note_on,0,0,3,,,,,,,,,2,,,64,36
411042,note_on,12,0,3,,,,,,,,,2,,,64,0
411042,note_on,0,0,3,,,,,,,,,2,,,60,0
411042,note_on,0,0,3,,,,,,,,,2,,,55,0
411090,note_on,180,0,1,,,,,,,,,0,,,76,0
411090,note_on,0,0,1,,,,,,,,,0,,,67,49
411090,note_on,0,0,1,,,,,,,,,0,,,67,0
411090,note_on,0,0,1,,,,,,,,,0,,,72,0
411150,note_on,0,0,1,,,,,,,,,0,,,76,49
411150,note_on,60,0,1,,,,,,,,,0,,,67,0
411150,note_on,0,0,3,,,,,,,,,2,,,60,36
411150,note_on,0,0,3,,,,,,,,,2,,,64,36
411150,note_on,108,0,3,,,,,,,,,2,,,55,36
411162,note_on,0,0,3,,,,,,,,,2,,,55,0
411162,note_on,0,0,3,,,,,,,,,2,,,60,0
411162,note_on,12,0,3,,,,,,,,,2,,,64,0
411210,note_on,60,0,1,,,,,,,,,0,,,76,0
411210,note_on,0,0,1,,,,,,,,,0,,,79,49
411270,note_on,0,0,1,,,,,,,,,0,,,76,67
411270,note_on,60,0,1,,,,,,,,,0,,,79,0
411270,note_on,108,0,3,,,,,,,,,2,,,48,36
411270,note_on,0,0,1,,,,,,,,,0,,,79,75
411390,note_on,0,0,3,,,,,,,,,2,,,64,36
411390,note_on,0,0,3,,,,,,,,,2,,,60,36
411390,note_on,120,0,3,,,,,,,,,2,,,48,0
411390,note_on,0,0,3,,,,,,,,,2,,,55,36
411402,note_on,12,0,3,,,,,,,,,2,,,64,0
411402,note_on,0,0,3,,,,,,,,,2,,,60,0
411402,note_on,0,0,3,,,,,,,,,2,,,55,0
411450,note_on,180,0,1,,,,,,,,,0,,,79,0
411450,note_on,0,0,1,,,,,,,,,0,,,76,0
411450,note_on,0,0,1,,,,,,,,,0,,,67,49
411510,note_on,60,0,1,,,,,,,,,0,,,67,0
411510,note_on,0,0,1,,,,,,,,,0,,,76,49
411510,note_on,108,0,3,,,,,,,,,2,,,55,36
411510,note_on,0,0,3,,,,,,,,,2,,,60,36
411510,note_on,0,0,3,,,,,,,,,2,,,64,36
411522,note_on,12,0,3,,,,,,,,,2,,,64,0
411522,note_on,0,0,3,,,,,,,,,2,,,60,0
411522,note_on,0,0,3,,,,,,,,,2,,,55,0
411570,note_on,0,0,1,,,,,,,,,0,,,79,49
411570,note_on,60,0,1,,,,,,,,,0,,,76,0
411630,note_on,108,0,3,,,,,,,,,2,,,48,36
411630,note_on,60,0,1,,,,,,,,,0,,,79,0
411630,note_on,0,0,1,,,,,,,,,0,,,76,67
411630,note_on,0,0,1,,,,,,,,,0,,,79,75
411750,note_on,120,0,3,,,,,,,,,2,,,48,0
411750,note_on,0,0,3,,,,,,,,,2,,,55,36
411750,note_on,0,0,3,,,,,,,,,2,,,59,36
411750,note_on,0,0,3,,,,,,,,,2,,,64,36
411762,note_on,12,0,3,,,,,,,,,2,,,64,0
411762,note_on,0,0,3,,,,,,,,,2,,,55,0
411762,note_on,0,0,3,,,,,,,,,2,,,59,0
411810,note_on,180,0,1,,,,,,,,,0,,,79,0
411810,note_on,0,0,1,,,,,,,,,0,,,76,0
411810,note_on,0,0,1,,,,,,,,,0,,,67,49
411870,note_on,60,0,1,,,,,,,,,0,,,67,0
411870,note_on,0,0,1,,,,,,,,,0,,,76,49
411870,note_on,0,0,3,,,,,,,,,2,,,64,36
411870,note_on,0,0,3,,,,,,,,,2,,,59,36
411870,note_on,108,0,3,,,,,,,,,2,,,55,36
411882,note_on,12,0,3,,,,,,,,,2,,,64,0
411882,note_on,0,0,3,,,,,,,,,2,,,59,0
411882,note_on,0,0,3,,,,,,,,,2,,,55,0
411930,note_on,0,0,1,,,,,,,,,0,,,79,49
411930,note_on,60,0,1,,,,,,,,,0,,,76,0
411990,note_on,0,0,1,,,,,,,,,0,,,79,88
411990,note_on,0,0,1,,,,,,,,,0,,,71,88
411990,note_on,60,0,1,,,,,,,,,0,,,79,0
411990,note_on,108,0,3,,,,,,,,,2,,,47,75
411990,note_on,0,0,1,,,,,,,,,0,,,83,88
412110,note_on,120,0,3,,,,,,,,,2,,,47,0
412110,note_on,0,0,3,,,,,,,,,2,,,59,75
412110,note_on,0,0,3,,,,,,,,,2,,,66,75
412110,note_on,0,0,3,,,,,,,,,2,,,69,75
412122,note_on,0,0,3,,,,,,,,,2,,,59,0
412122,note_on,0,0,3,,,,,,,,,2,,,66,0
412122,note_on,12,0,3,,,,,,,,,2,,,69,0
412170,note_on,0,0,1,,,,,,,,,0,,,87,88
412170,note_on,180,0,1,,,,,,,,,0,,,83,0
412170,note_on,0,0,1,,,,,,,,,0,,,79,0
412170,note_on,0,0,1,,,,,,,,,0,,,71,0
412170,note_on,0,0,1,,,,,,,,,0,,,75,88
412170,note_on,0,0,1,,,,,,,,,0,,,78,88
412170,note_on,0,0,1,,,,,,,,,0,,,83,88
412230,note_on,60,0,1,,,,,,,,,0,,,87,0
412230,note_on,0,0,3,,,,,,,,,2,,,69,75
412230,note_on,0,0,3,,,,,,,,,2,,,66,75
412230,note_on,108,0,3,,,,,,,,,2,,,59,75
412230,note_on,0,0,1,,,,,,,,,0,,,75,0
412230,note_on,0,0,1,,,,,,,,,0,,,78,0
412230,note_on,0,0,1,,,,,,,,,0,,,83,0
412230,note_on,0,0,1,,,,,,,,,0,,,75,88
412230,note_on,0,0,1,,,,,,,,,0,,,83,88
412230,note_on,0,0,1,,,,,,,,,0,,,87,88
412230,note_on,0,0,1,,,,,,,,,0,,,78,88
412242,note_on,0,0,3,,,,,,,,,2,,,59,0
412242,note_on,0,0,3,,,,,,,,,2,,,66,0
412242,note_on,12,0,3,,,,,,,,,2,,,69,0
412350,note_on,120,0,1,,,,,,,,,0,,,87,0
412350,note_on,0,0,1,,,,,,,,,0,,,78,0
412350,note_on,0,0,1,,,,,,,,,0,,,83,0
412350,note_on,0,0,1,,,,,,,,,0,,,76,88
412350,note_on,0,0,1,,,,,,,,,0,,,79,88
412350,note_on,0,0,1,,,,,,,,,0,,,83,88
412350,note_on,0,0,1,,,,,,,,,0,,,88,88
412350,note_on,108,0,3,,,,,,,,,2,,,52,75
412350,note_on,0,0,1,,,,,,,,,0,,,75,0
412350,time_signature,5400,1,0,3,8,12,8,,,,,,,,,
412470,note_on,120,0,3,,,,,,,,,2,,,52,0
412470,note_on,0,0,3,,,,,,,,,2,,,67,75
412470,note_on,0,0,3,,,,,,,,,2,,,64,75
412470,note_on,0,0,3,,,,,,,,,2,,,59,75
412530,note_on,60,0,3,,,,,,,,,2,,,67,0
412530,note_on,0,0,1,,,,,,,,,0,,,83,0
412530,note_on,0,0,1,,,,,,,,,0,,,79,0
412530,note_on,0,0,1,,,,,,,,,0,,,76,0
412530,note_on,180,0,1,,,,,,,,,0,,,88,0
412530,note_on,0,0,3,,,,,,,,,2,,,59,0
412530,note_on,0,0,3,,,,,,,,,2,,,64,0
412530,note_on,0,0,1,,,,,,,,,0,,,67,88
412590,note_on,0,0,1,,,,,,,,,0,,,71,88
412590,note_on,60,0,1,,,,,,,,,0,,,67,0
412650,note_on,60,0,1,,,,,,,,,0,,,71,0
412650,note_on,0,0,1,,,,,,,,,0,,,77,88
412710,note_on,0,0,1,,,,,,,,,0,,,77,114
412710,time_signature,360,1,0,3,4,24,8,,,,,,,,,
412710,note_on,60,0,1,,,,,,,,,0,,,77,0
412710,note_on,180,0,3,,,,,,,,,2,,,43,75
412830,note_on,0,0,3,,,,,,,,,2,,,55,75
412830,note_on,0,0,3,,,,,,,,,2,,,65,75
412830,note_on,120,0,3,,,,,,,,,2,,,43,0
412830,note_on,0,0,3,,,,,,,,,2,,,59,75
412842,note_on,12,0,3,,,,,,,,,2,,,65,0
412842,note_on,0,0,3,,,,,,,,,2,,,59,0
412842,note_on,0,0,3,,,,,,,,,2,,,55,0
412890,note_on,180,0,1,,,,,,,,,0,,,77,0
412890,note_on,0,0,1,,,,,,,,,0,,,77,88
412950,note_on,108,0,3,,,,,,,,,2,,,55,75
412950,note_on,0,0,3,,,,,,,,,2,,,59,75
412950,note_on,0,0,3,,,,,,,,,2,,,65,75
412950,note_on,60,0,1,,,,,,,,,0,,,77,0
412950,note_on,0,0,1,,,,,,,,,0,,,79,88
412962,note_on,0,0,3,,,,,,,,,2,,,55,0
412962,note_on,12,0,3,,,,,,,,,2,,,65,0
412962,note_on,0,0,3,,,,,,,,,2,,,59,0
413010,note_on,60,0,1,,,,,,,,,0,,,79,0
413010,note_on,0,0,1,,,,,,,,,0,,,86,88
413070,note_on,108,0,3,,,,,,,,,2,,,43,75
413070,note_on,0,0,1,,,,,,,,,0,,,86,114
413070,note_on,60,0,1,,,,,,,,,0,,,86,0
413190,note_on,120,0,3,,,,,,,,,2,,,43,0
413190,note_on,0,0,3,,,,,,,,,2,,,55,75
413190,note_on,0,0,3,,,,,,,,,2,,,59,75
413190,note_on,0,0,3,,,,,,,,,2,,,65,75
413202,note_on,12,0,3,,,,,,,,,2,,,65,0
413202,note_on,0,0,3,,,,,,,,,2,,,59,0
413202,note_on,0,0,3,,,,,,,,,2,,,55,0
413250,note_on,180,0,1,,,,,,,,,0,,,86,0
413250,note_on,0,0,1,,,,,,,,,0,,,67,88
413310,note_on,108,0,3,,,,,,,,,2,,,55,75
413310,note_on,0,0,3,,,,,,,,,2,,,59,75
413310,note_on,0,0,3,,,,,,,,,2,,,65,75
413310,note_on,60,0,1,,,,,,,,,0,,,67,0
413310,note_on,0,0,1,,,,,,,,,0,,,72,88
413322,note_on,12,0,3,,,,,,,,,2,,,65,0
413322,note_on,0,0,3,,,,,,,,,2,,,55,0
413322,note_on,0,0,3,,,,,,,,,2,,,59,0
413370,note_on,0,0,1,,,,,,,,,0,,,76,88
413370,note_on,60,0,1,,,,,,,,,0,,,72,0
413430,note_on,0,0,1,,,,,,,,,0,,,76,114
413430,note_on,60,0,1,,,,,,,,,0,,,76,0
413430,note_on,108,0,3,,,,,,,,,2,,,48,75
413550,note_on,0,0,3,,,,,,,,,2,,,60,75
413550,note_on,120,0,3,,,,,,,,,2,,,48,0
413550,note_on,0,0,3,,,,,,,,,2,,,55,75
413550,note_on,0,0,3,,,,,,,,,2,,,64,75
413562,note_on,12,0,3,,,,,,,,,2,,,64,0
413562,note_on,0,0,3,,,,,,,,,2,,,60,0
413562,note_on,0,0,3,,,,,,,,,2,,,55,0
413610,note_on,180,0,1,,,,,,,,,0,,,76,0
413610,note_on,0,0,1,,,,,,,,,0,,,76,88
413670,note_on,0,0,3,,,,,,,,,2,,,60,75
413670,note_on,108,0,3,,,,,,,,,2,,,55,75
413670,note_on,0,0,3,,,,,,,,,2,,,64,75
413670,note_on,60,0,1,,,,,,,,,0,,,76,0
413670,note_on,0,0,1,,,,,,,,,0,,,79,88
413682,note_on,12,0,3,,,,,,,,,2,,,64,0
413682,note_on,0,0,3,,,,,,,,,2,,,60,0
413682,note_on,0,0,3,,,,,,,,,2,,,55,0
413730,note_on,0,0,1,,,,,,,,,0,,,84,88
413730,note_on,60,0,1,,,,,,,,,0,,,79,0
413790,note_on,60,0,1,,,,,,,,,0,,,84,0
413790,note_on,108,0,3,,,,,,,,,2,,,48,75
413790,note_on,0,0,1,,,,,,,,,0,,,84,114
413910,note_on,0,0,3,,,,,,,,,2,,,60,75
413910,note_on,0,0,3,,,,,,,,,2,,,64,75
413910,note_on,0,0,3,,,,,,,,,2,,,55,75
413910,note_on,120,0,3,,,,,,,,,2,,,48,0
413922,note_on,12,0,3,,,,,,,,,2,,,64,0
413922,note_on,0,0,3,,,,,,,,,2,,,60,0
413922,note_on,0,0,3,,,,,,,,,2,,,55,0
413970,note_on,0,0,1,,,,,,,,,0,,,72,88
413970,note_on,180,0,1,,,,,,,,,0,,,84,0
414030,note_on,60,0,1,,,,,,,,,0,,,72,0
414030,note_on,0,0,1,,,,,,,,,0,,,76,88
414030,note_on,108,0,3,,,,,,,,,2,,,55,75
414030,note_on,0,0,3,,,,,,,,,2,,,60,75
414030,note_on,0,0,3,,,,,,,,,2,,,64,75
414042,note_on,0,0,3,,,,,,,,,2,,,55,0
414042,note_on,12,0,3,,,,,,,,,2,,,64,0
414042,note_on,0,0,3,,,,,,,,,2,,,60,0
414090,note_on,60,0,1,,,,,,,,,0,,,76,0
414090,note_on,0,0,1,,,,,,,,,0,,,79,88
414150,note_on,0,0,1,,,,,,,,,0,,,79,114
414150,note_on,60,0,1,,,,,,,,,0,,,79,0
414150,note_on,108,0,3,,,,,,,,,2,,,52,75
414270,note_on,0,0,3,,,,,,,,,2,,,55,75
414270,note_on,0,0,3,,,,,,,,,2,,,60,75
414270,note_on,120,0,3,,,,,,,,,2,,,52,0
414270,note_on,0,0,3,,,,,,,,,2,,,64,75
414282,note_on,0,0,3,,,,,,,,,2,,,55,0
414282,note_on,0,0,3,,,,,,,,,2,,,60,0
414282,note_on,12,0,3,,,,,,,,,2,,,64,0
414330,note_on,180,0,1,,,,,,,,,0,,,79,0
414330,note_on,0,0,1,,,,,,,,,0,,,76,88
414390,note_on,60,0,1,,,,,,,,,0,,,76,0
414390,note_on,0,0,1,,,,,,,,,0,,,79,88
414390,note_on,0,0,3,,,,,,,,,2,,,64,75
414390,note_on,108,0,3,,,,,,,,,2,,,55,75
414390,note_on,0,0,3,,,,,,,,,2,,,60,75
414402,note_on,0,0,3,,,,,,,,,2,,,55,0
414402,note_on,0,0,3,,,,,,,,,2,,,60,0
414402,note_on,12,0,3,,,,,,,,,2,,,64,0
414450,note_on,60,0,1,,,,,,,,,0,,,79,0
414450,note_on,0,0,1,,,,,,,,,0,,,84,88
414510,note_on,108,0,3,,,,,,,,,2,,,48,75
414510,note_on,0,0,1,,,,,,,,,0,,,84,114
414510,note_on,60,0,1,,,,,,,,,0,,,84,0
414630,note_on,120,0,3,,,,,,,,,2,,,48,0
414630,note_on,0,0,3,,,,,,,,,2,,,55,75
414630,note_on,0,0,3,,,,,,,,,2,,,60,75
414630,note_on,0,0,3,,,,,,,,,2,,,64,75
414642,note_on,0,0,3,,,,,,,,,2,,,55,0
414642,note_on,12,0,3,,,,,,,,,2,,,64,0
414642,note_on,0,0,3,,,,,,,,,2,,,60,0
414690,note_on,0,0,1,,,,,,,,,0,,,79,88
414690,note_on,180,0,1,,,,,,,,,0,,,84,0
414750,note_on,0,0,1,,,,,,,,,0,,,84,88
414750,note_on,60,0,1,,,,,,,,,0,,,79,0
414750,note_on,0,0,3,,,,,,,,,2,,,64,75
414750,note_on,108,0,3,,,,,,,,,2,,,55,75
414750,note_on,0,0,3,,,,,,,,,2,,,60,75
414762,note_on,0,0,3,,,,,,,,,2,,,60,0
414762,note_on,12,0,3,,,,,,,,,2,,,64,0
414762,note_on,0,0,3,,,,,,,,,2,,,55,0
414810,note_on,60,0,1,,,,,,,,,0,,,84,0
414810,note_on,0,0,1,,,,,,,,,0,,,88,88
414870,note_on,108,0,3,,,,,,,,,2,,,43,88
414870,note_on,60,0,1,,,,,,,,,0,,,88,0
414870,note_on,0,0,1,,,,,,,,,0,,,88,101
414870,note_on,0,0,1,,,,,,,,,0,,,91,101
414930,note_on,60,0,1,,,,,,,,,0,,,91,0
414930,note_on,0,0,1,,,,,,,,,0,,,88,0
414930,note_on,0,0,1,,,,,,,,,0,,,76,101
414990,note_on,0,0,3,,,,,,,,,2,,,62,88
414990,note_on,0,0,1,,,,,,,,,0,,,89,101
414990,note_on,0,0,3,,,,,,,,,2,,,65,88
414990,note_on,0,0,3,,,,,,,,,2,,,59,88
414990,note_on,0,0,3,,,,,,,,,2,,,55,88
414990,note_on,120,0,3,,,,,,,,,2,,,43,0
414990,note_on,0,0,1,,,,,,,,,0,,,86,101
414990,note_on,60,0,1,,,,,,,,,0,,,76,0
415002,note_on,0,0,3,,,,,,,,,2,,,55,0
415002,note_on,12,0,3,,,,,,,,,2,,,65,0
415002,note_on,0,0,3,,,,,,,,,2,,,59,0
415002,note_on,0,0,3,,,,,,,,,2,,,62,0
415050,note_on,0,0,1,,,,,,,,,0,,,76,101
415050,note_on,0,0,1,,,,,,,,,0,,,86,0
415050,note_on,60,0,1,,,,,,,,,0,,,89,0
415110,note_on,0,0,3,,,,,,,,,2,,,59,88
415110,note_on,60,0,1,,,,,,,,,0,,,76,0
415110,note_on,0,0,1,,,,,,,,,0,,,83,101
415110,note_on,0,0,1,,,,,,,,,0,,,86,101
415110,note_on,0,0,3,,,,,,,,,2,,,65,88
415110,note_on,0,0,3,,,,,,,,,2,,,62,88
415110,note_on,108,0,3,,,,,,,,,2,,,55,88
415122,note_on,0,0,3,,,,,,,,,2,,,59,0
415122,note_on,0,0,3,,,,,,,,,2,,,62,0
415122,note_on,0,0,3,,,,,,,,,2,,,55,0
415122,note_on,12,0,3,,,,,,,,,2,,,65,0
415170,note_on,60,0,1,,,,,,,,,0,,,86,0
415170,note_on,0,0,1,,,,,,,,,0,,,83,0
415170,note_on,0,0,1,,,,,,,,,0,,,76,101
415230,note_on,108,0,3,,,,,,,,,2,,,48,88
415230,note_on,60,0,1,,,,,,,,,0,,,76,0
415230,note_on,0,0,1,,,,,,,,,0,,,79,101
415230,note_on,0,0,1,,,,,,,,,0,,,84,101
415230,note_on,0,0,1,,,,,,,,,0,,,76,101
415230,time_signature,2520,1,0,3,8,12,8,,,,,,,,,
415350,note_on,0,0,3,,,,,,,,,2,,,64,88
415350,note_on,0,0,3,,,,,,,,,2,,,60,88
415350,note_on,0,0,3,,,,,,,,,2,,,55,88
415350,note_on,120,0,3,,,,,,,,,2,,,48,0
415410,note_on,0,0,3,,,,,,,,,2,,,60,0
415410,note_on,0,0,3,,,,,,,,,2,,,55,0
415410,note_on,60,0,3,,,,,,,,,2,,,64,0
415410,note_on,180,0,1,,,,,,,,,0,,,84,0
415410,note_on,0,0,1,,,,,,,,,0,,,76,0
415410,note_on,0,0,1,,,,,,,,,0,,,67,88
415410,note_on,0,0,1,,,,,,,,,0,,,79,0
415470,note_on,60,0,1,,,,,,,,,0,,,67,0
415470,note_on,0,0,1,,,,,,,,,0,,,71,88
415530,note_on,60,0,1,,,,,,,,,0,,,71,0
415530,note_on,0,0,1,,,,,,,,,0,,,77,88
415590,note_on,0,0,1,,,,,,,,,0,,,77,114
415590,note_on,60,0,1,,,,,,,,,0,,,77,0
415590,time_signature,360,1,0,3,4,24,8,,,,,,,,,
415590,note_on,180,0,3,,,,,,,,,2,,,43,75
415710,note_on,0,0,3,,,,,,,,,2,,,65,75
415710,note_on,0,0,3,,,,,,,,,2,,,55,75
415710,note_on,0,0,3,,,,,,,,,2,,,59,75
415710,note_on,120,0,3,,,,,,,,,2,,,43,0
415722,note_on,0,0,3,,,,,,,,,2,,,55,0
415722,note_on,0,0,3,,,,,,,,,2,,,59,0
415722,note_on,12,0,3,,,,,,,,,2,,,65,0
415770,note_on,0,0,1,,,,,,,,,0,,,77,88
415770,note_on,180,0,1,,,,,,,,,0,,,77,0
415830,note_on,108,0,3,,,,,,,,,2,,,55,75
415830,note_on,0,0,3,,,,,,,,,2,,,65,75
415830,note_on,0,0,1,,,,,,,,,0,,,79,88
415830,note_on,60,0,1,,,,,,,,,0,,,77,0
415830,note_on,0,0,3,,,,,,,,,2,,,59,75
415842,note_on,0,0,3,,,,,,,,,2,,,55,0
415842,note_on,0,0,3,,,,,,,,,2,,,59,0
415842,note_on,12,0,3,,,,,,,,,2,,,65,0
415890,note_on,60,0,1,,,,,,,,,0,,,79,0
415890,note_on,0,0,1,,,,,,,,,0,,,86,88
415950,note_on,60,0,1,,,,,,,,,0,,,86,0
415950,note_on,0,0,1,,,,,,,,,0,,,86,114
415950,note_on,108,0,3,,,,,,,,,2,,,43,75
416070,note_on,0,0,3,,,,,,,,,2,,,65,75
416070,note_on,0,0,3,,,,,,,,,2,,,59,75
416070,note_on,0,0,3,,,,,,,,,2,,,55,75
416070,note_on,120,0,3,,,,,,,,,2,,,43,0
416082,note_on,12,0,3,,,,,,,,,2,,,65,0
416082,note_on,0,0,3,,,,,,,,,2,,,55,0
416082,note_on,0,0,3,,,,,,,,,2,,,59,0
416130,note_on,0,0,1,,,,,,,,,0,,,67,88
416130,note_on,180,0,1,,,,,,,,,0,,,86,0
416190,note_on,60,0,1,,,,,,,,,0,,,67,0
416190,note_on,0,0,1,,,,,,,,,0,,,72,88
416190,note_on,108,0,3,,,,,,,,,2,,,55,75
416190,note_on,0,0,3,,,,,,,,,2,,,59,75
416190,note_on,0,0,3,,,,,,,,,2,,,65,75
416202,note_on,12,0,3,,,,,,,,,2,,,65,0
416202,note_on,0,0,3,,,,,,,,,2,,,59,0
416202,note_on,0,0,3,,,,,,,,,2,,,55,0
416250,note_on,60,0,1,,,,,,,,,0,,,72,0
416250,note_on,0,0,1,,,,,,,,,0,,,76,88
416310,note_on,108,0,3,,,,,,,,,2,,,48,75
416310,note_on,60,0,1,,,,,,,,,0,,,76,0
416310,note_on,0,0,1,,,,,,,,,0,,,76,114
416430,note_on,0,0,3,,,,,,,,,2,,,64,75
416430,note_on,120,0,3,,,,,,,,,2,,,48,0
416430,note_on,0,0,3,,,,,,,,,2,,,55,75
416430,note_on,0,0,3,,,,,,,,,2,,,60,75
416442,note_on,0,0,3,,,,,,,,,2,,,55,0
416442,note_on,0,0,3,,,,,,,,,2,,,60,0
416442,note_on,12,0,3,,,,,,,,,2,,,64,0
416490,note_on,0,0,1,,,,,,,,,0,,,76,88
416490,note_on,180,0,1,,,,,,,,,0,,,76,0
416550,note_on,0,0,1,,,,,,,,,0,,,79,88
416550,note_on,108,0,3,,,,,,,,,2,,,55,75
416550,note_on,0,0,3,,,,,,,,,2,,,60,75
416550,note_on,0,0,3,,,,,,,,,2,,,64,75
416550,note_on,60,0,1,,,,,,,,,0,,,76,0
416562,note_on,0,0,3,,,,,,,,,2,,,55,0
416562,note_on,0,0,3,,,,,,,,,2,,,60,0
416562,note_on,12,0,3,,,,,,,,,2,,,64,0
416610,note_on,60,0,1,,,,,,,,,0,,,79,0
416610,note_on,0,0,1,,,,,,,,,0,,,84,88
416670,note_on,60,0,1,,,,,,,,,0,,,84,0
416670,note_on,0,0,1,,,,,,,,,0,,,84,114
416670,note_on,108,0,3,,,,,,,,,2,,,48,75
416790,note_on,0,0,3,,,,,,,,,2,,,64,75
416790,note_on,120,0,3,,,,,,,,,2,,,48,0
416790,note_on,0,0,3,,,,,,,,,2,,,60,75
416790,note_on,0,0,3,,,,,,,,,2,,,55,75
416802,note_on,12,0,3,,,,,,,,,2,,,64,0
416802,note_on,0,0,3,,,,,,,,,2,,,55,0
416802,note_on,0,0,3,,,,,,,,,2,,,60,0
416850,note_on,180,0,1,,,,,,,,,0,,,84,0
416850,note_on,0,0,1,,,,,,,,,0,,,72,88
416910,note_on,0,0,3,,,,,,,,,2,,,60,75
416910,note_on,108,0,3,,,,,,,,,2,,,55,75
416910,note_on,0,0,1,,,,,,,,,0,,,76,88
416910,note_on,0,0,3,,,,,,,,,2,,,64,75
416910,note_on,60,0,1,,,,,,,,,0,,,72,0
416922,note_on,0,0,3,,,,,,,,,2,,,60,0
416922,note_on,12,0,3,,,,,,,,,2,,,64,0
416922,note_on,0,0,3,,,,,,,,,2,,,55,0
416970,note_on,0,0,1,,,,,,,,,0,,,79,88
416970,note_on,60,0,1,,,,,,,,,0,,,76,0
417030,note_on,108,0,3,,,,,,,,,2,,,52,75
417030,note_on,0,0,1,,,,,,,,,0,,,79,114
417030,note_on,60,0,1,,,,,,,,,0,,,79,0
417150,note_on,120,0,3,,,,,,,,,2,,,52,0
417150,note_on,0,0,3,,,,,,,,,2,,,55,75
417150,note_on,0,0,3,,,,,,,,,2,,,60,75
417150,note_on,0,0,3,,,,,,,,,2,,,64,75
417162,note_on,12,0,3,,,,,,,,,2,,,64,0
417162,note_on,0,0,3,,,,,,,,,2,,,60,0
417162,note_on,0,0,3,,,,,,,,,2,,,55,0
417210,note_on,0,0,1,,,,,,,,,0,,,76,88
417210,note_on,180,0,1,,,,,,,,,0,,,79,0
417270,note_on,0,0,3,,,,,,,,,2,,,64,75
417270,note_on,0,0,3,,,,,,,,,2,,,60,75
417270,note_on,108,0,3,,,,,,,,,2,,,55,75
417270,note_on,60,0,1,,,,,,,,,0,,,76,0
417270,note_on,0,0,1,,,,,,,,,0,,,79,88
417282,note_on,12,0,3,,,,,,,,,2,,,64,0
417282,note_on,0,0,3,,,,,,,,,2,,,60,0
417282,note_on,0,0,3,,,,,,,,,2,,,55,0
417330,note_on,0,0,1,,,,,,,,,0,,,84,88
417330,note_on,60,0,1,,,,,,,,,0,,,79,0
417390,note_on,60,0,1,,,,,,,,,0,,,84,0
417390,note_on,0,0,1,,,,,,,,,0,,,84,114
417390,note_on,108,0,3,,,,,,,,,2,,,48,75
417510,note_on,120,0,3,,,,,,,,,2,,,48,0
417510,note_on,0,0,3,,,,,,,,,2,,,64,75
417510,note_on,0,0,3,,,,,,,,,2,,,60,75
417510,note_on,0,0,3,,,,,,,,,2,,,55,75
417522,note_on,0,0,3,,,,,,,,,2,,,55,0
417522,note_on,0,0,3,,,,,,,,,2,,,60,0
417522,note_on,12,0,3,,,,,,,,,2,,,64,0
417570,note_on,180,0,1,,,,,,,,,0,,,84,0
417570,note_on,0,0,1,,,,,,,,,0,,,79,88
417630,note_on,0,0,1,,,,,,,,,0,,,84,88
417630,note_on,0,0,3,,,,,,,,,2,,,64,75
417630,note_on,0,0,3,,,,,,,,,2,,,60,75
417630,note_on,108,0,3,,,,,,,,,2,,,55,75
417630,note_on,60,0,1,,,,,,,,,0,,,79,0
417642,note_on,12,0,3,,,,,,,,,2,,,64,0
417642,note_on,0,0,3,,,,,,,,,2,,,55,0
417642,note_on,0,0,3,,,,,,,,,2,,,60,0
417690,note_on,0,0,1,,,,,,,,,0,,,88,88
417690,note_on,60,0,1,,,,,,,,,0,,,84,0
417750,note_on,108,0,3,,,,,,,,,2,,,43,88
417750,note_on,0,0,1,,,,,,,,,0,,,91,101
417750,note_on,0,0,1,,,,,,,,,0,,,88,101
417750,note_on,60,0,1,,,,,,,,,0,,,88,0
417810,note_on,0,0,1,,,,,,,,,0,,,76,101
417810,note_on,0,0,1,,,,,,,,,0,,,88,0
417810,note_on,60,0,1,,,,,,,,,0,,,91,0
417870,note_on,0,0,1,,,,,,,,,0,,,89,101
417870,note_on,0,0,1,,,,,,,,,0,,,86,101
417870,note_on,60,0,1,,,,,,,,,0,,,76,0
417870,note_on,120,0,3,,,,,,,,,2,,,43,0
417870,note_on,0,0,3,,,,,,,,,2,,,59,88
417870,note_on,0,0,3,,,,,,,,,2,,,62,88
417870,note_on,0,0,3,,,,,,,,,2,,,65,88
417870,note_on,0,0,3,,,,,,,,,2,,,55,88
417882,note_on,12,0,3,,,,,,,,,2,,,65,0
417882,note_on,0,0,3,,,,,,,,,2,,,55,0
417882,note_on,0,0,3,,,,,,,,,2,,,59,0
417882,note_on,0,0,3,,,,,,,,,2,,,62,0
417930,note_on,0,0,1,,,,,,,,,0,,,76,101
417930,note_on,60,0,1,,,,,,,,,0,,,89,0
417930,note_on,0,0,1,,,,,,,,,0,,,86,0
417990,note_on,0,0,3,,,,,,,,,2,,,62,88
417990,note_on,0,0,1,,,,,,,,,0,,,86,101
417990,note_on,0,0,1,,,,,,,,,0,,,83,101
417990,note_on,0,0,3,,,,,,,,,2,,,59,88
417990,note_on,60,0,1,,,,,,,,,0,,,76,0
417990,note_on,108,0,3,,,,,,,,,2,,,55,88
417990,note_on,0,0,3,,,,,,,,,2,,,65,88
418002,note_on,12,0,3,,,,,,,,,2,,,65,0
418002,note_on,0,0,3,,,,,,,,,2,,,55,0
418002,note_on,0,0,3,,,,,,,,,2,,,59,0
418002,note_on,0,0,3,,,,,,,,,2,,,62,0
418050,note_on,0,0,1,,,,,,,,,0,,,76,101
418050,note_on,0,0,1,,,,,,,,,0,,,83,0
418050,note_on,60,0,1,,,,,,,,,0,,,86,0
418110,note_on,60,0,1,,,,,,,,,0,,,76,0
418110,note_on,0,0,1,,,,,,,,,0,,,79,101
418110,note_on,0,0,1,,,,,,,,,0,,,84,101
418110,note_on,0,0,1,,,,,,,,,0,,,76,101
418110,note_on,108,0,3,,,,,,,,,2,,,48,88
418110,time_signature,2520,1,0,2,4,24,8,,,,,,,,,
418230,note_on,0,0,3,,,,,,,,,2,,,60,88
418230,note_on,0,0,3,,,,,,,,,2,,,55,88
418230,note_on,0,0,3,,,,,,,,,2,,,64,88
418230,note_on,120,0,3,,,,,,,,,2,,,48,0
418350,note_on,0,0,1,,,,,,,,,0,,,79,0
418350,note_on,0,0,3,,,,,,,,,2,,,55,0
418350,note_on,0,0,3,,,,,,,,,2,,,60,0
418350,note_on,0,0,1,,,,,,,,,0,,,76,0
418350,note_on,120,0,3,,,,,,,,,2,,,64,0
418350,note_on,0,0,1,,,,,,,,,0,,,68,49
418350,note_on,240,0,1,,,,,,,,,0,,,84,0
418350,key_signature,0,1,0,,,,,Ab,,,,,,,,
418350,time_signature,240,1,0,1,4,24,8,,,,,,,,,
418470,time_signature,120,1,0,3,4,24,8,,,,,,,,,
418470,note_on,120,0,3,,,,,,,,,2,,,39,36
418470,note_on,120,0,1,,,,,,,,,0,,,68,0
418470,note_on,0,0,1,,,,,,,,,0,,,67,49
418530,note_on,60,0,1,,,,,,,,,0,,,67,0
418530,note_on,0,0,1,,,,,,,,,0,,,70,49
418590,note_on,0,0,3,,,,,,,,,2,,,61,36
418590,note_on,0,0,3,,,,,,,,,2,,,51,36
418590,note_on,120,0,3,,,,,,,,,2,,,39,0
418590,note_on,60,0,1,,,,,,,,,0,,,70,0
418590,note_on,0,0,1,,,,,,,,,0,,,67,49
418590,note_on,0,0,3,,,,,,,,,2,,,58,36
418602,note_on,0,0,3,,,,,,,,,2,,,51,0
418602,note_on,0,0,3,,,,,,,,,2,,,58,0
418602,note_on,12,0,3,,,,,,,,,2,,,61,0
418650,note_on,0,0,1,,,,,,,,,0,,,70,49
418650,note_on,60,0,1,,,,,,,,,0,,,67,0
418710,note_on,0,0,3,,,,,,,,,2,,,58,36
418710,note_on,108,0,3,,,,,,,,,2,,,51,36
418710,note_on,0,0,3,,,,,,,,,2,,,61,36
418710,note_on,0,0,1,,,,,,,,,0,,,73,75
418710,note_on,0,0,1,,,,,,,,,0,,,67,70
418710,note_on,0,0,1,,,,,,,,,0,,,63,65
418710,note_on,60,0,1,,,,,,,,,0,,,70,0
418722,note_on,0,0,3,,,,,,,,,2,,,51,0
418722,note_on,12,0,3,,,,,,,,,2,,,61,0
418722,note_on,0,0,3,,,,,,,,,2,,,58,0
418830,note_on,120,0,1,,,,,,,,,0,,,73,0
418830,note_on,0,0,1,,,,,,,,,0,,,63,75
418830,note_on,0,0,1,,,,,,,,,0,,,67,0
418830,note_on,108,0,3,,,,,,,,,2,,,39,36
418830,note_on,0,0,1,,,,,,,,,0,,,63,0
418842,note_on,12,0,1,,,,,,,,,0,,,63,0
418950,note_on,0,0,3,,,,,,,,,2,,,51,36
418950,note_on,0,0,3,,,,,,,,,2,,,58,36
418950,note_on,0,0,3,,,,,,,,,2,,,61,36
418950,note_on,108,0,1,,,,,,,,,0,,,65,75
418950,note_on,120,0,3,,,,,,,,,2,,,39,0
418962,note_on,12,0,3,,,,,,,,,2,,,61,0
418962,note_on,0,0,3,,,,,,,,,2,,,58,0
418962,note_on,0,0,3,,,,,,,,,2,,,51,0
418962,note_on,12,0,1,,,,,,,,,0,,,65,0
419070,note_on,0,0,3,,,,,,,,,2,,,61,36
419070,note_on,108,0,1,,,,,,,,,0,,,67,75
419070,note_on,108,0,3,,,,,,,,,2,,,51,36
419070,note_on,0,0,3,,,,,,,,,2,,,58,36
419082,note_on,12,0,1,,,,,,,,,0,,,67,0
419082,note_on,0,0,3,,,,,,,,,2,,,51,0
419082,note_on,0,0,3,,,,,,,,,2,,,58,0
419082,note_on,12,0,3,,,,,,,,,2,,,61,0
419190,note_on,108,0,1,,,,,,,,,0,,,68,49
419190,note_on,108,0,3,,,,,,,,,2,,,44,36
419250,note_on,0,0,1,,,,,,,,,0,,,63,49
419250,note_on,60,0,1,,,,,,,,,0,,,68,0
419310,note_on,0,0,1,,,,,,,,,0,,,68,49
419310,note_on,120,0,3,,,,,,,,,2,,,44,0
419310,note_on,0,0,3,,,,,,,,,2,,,51,36
419310,note_on,0,0,3,,,,,,,,,2,,,56,36
419310,note_on,0,0,3,,,,,,,,,2,,,60,36
419310,note_on,60,0,1,,,,,,,,,0,,,63,0
419322,note_on,0,0,3,,,,,,,,,2,,,51,0
419322,note_on,12,0,3,,,,,,,,,2,,,60,0
419322,note_on,0,0,3,,,,,,,,,2,,,56,0
419370,note_on,0,0,1,,,,,,,,,0,,,67,49
419370,note_on,60,0,1,,,,,,,,,0,,,68,0
419430,note_on,60,0,1,,,,,,,,,0,,,67,0
419430,note_on,108,0,3,,,,,,,,,2,,,51,36
419430,note_on,0,0,3,,,,,,,,,2,,,60,36
419430,note_on,0,0,3,,,,,,,,,2,,,56,36
419430,note_on,0,0,1,,,,,,,,,0,,,68,49
419442,note_on,12,0,3,,,,,,,,,2,,,60,0
419442,note_on,0,0,3,,,,,,,,,2,,,56,0
419442,note_on,0,0,3,,,,,,,,,2,,,51,0
419490,note_on,0,0,1,,,,,,,,,0,,,67,49
419490,note_on,0,0,1,,,,,,,,,0,,,70,49
419490,note_on,60,0,1,,,,,,,,,0,,,68,0
419550,note_on,108,0,3,,,,,,,,,2,,,44,36
419550,note_on,60,0,1,,,,,,,,,0,,,70,0
419550,note_on,0,0,1,,,,,,,,,0,,,67,0
419550,note_on,0,0,1,,,,,,,,,0,,,68,49
419550,note_on,0,0,1,,,,,,,,,0,,,72,49
419610,note_on,60,0,1,,,,,,,,,0,,,72,0
419610,note_on,0,0,1,,,,,,,,,0,,,68,0
419610,note_on,0,0,1,,,,,,,,,0,,,70,49
419610,note_on,0,0,1,,,,,,,,,0,,,73,49
419670,note_on,0,0,1,,,,,,,,,0,,,72,49
419670,note_on,0,0,1,,,,,,,,,0,,,70,0
419670,note_on,0,0,3,,,,,,,,,2,,,60,36
419670,note_on,60,0,1,,,,,,,,,0,,,73,0
419670,note_on,0,0,3,,,,,,,,,2,,,51,36
419670,note_on,120,0,3,,,,,,,,,2,,,44,0
419670,note_on,0,0,3,,,,,,,,,2,,,56,36
419670,note_on,0,0,1,,,,,,,,,0,,,75,49
419682,note_on,0,0,3,,,,,,,,,2,,,56,0
419682,note_on,0,0,3,,,,,,,,,2,,,51,0
419682,note_on,12,0,3,,,,,,,,,2,,,60,0
419730,note_on,0,0,1,,,,,,,,,0,,,73,49
419730,note_on,60,0,1,,,,,,,,,0,,,75,0
419730,note_on,0,0,1,,,,,,,,,0,,,72,0
419730,note_on,0,0,1,,,,,,,,,0,,,77,49
419790,note_on,0,0,3,,,,,,,,,2,,,60,36
419790,note_on,0,0,3,,,,,,,,,2,,,56,36
419790,note_on,108,0,3,,,,,,,,,2,,,51,36
419790,note_on,60,0,1,,,,,,,,,0,,,77,0
419790,note_on,0,0,1,,,,,,,,,0,,,73,0
419790,note_on,0,0,1,,,,,,,,,0,,,72,49
419790,note_on,0,0,1,,,,,,,,,0,,,75,49
419802,note_on,0,0,3,,,,,,,,,2,,,51,0
419802,note_on,0,0,3,,,,,,,,,2,,,56,0
419802,note_on,12,0,3,,,,,,,,,2,,,60,0
419910,note_on,108,0,3,,,,,,,,,2,,,51,36
419910,note_on,0,0,1,,,,,,,,,0,,,79,49
419910,note_on,120,0,1,,,,,,,,,0,,,75,0
419910,note_on,0,0,1,,,,,,,,,0,,,72,0
419970,note_on,60,0,1,,,,,,,,,0,,,79,0
419970,note_on,0,0,1,,,,,,,,,0,,,82,49
420030,note_on,0,0,3,,,,,,,,,2,,,73,36
420030,note_on,0,0,3,,,,,,,,,2,,,70,36
420030,note_on,0,0,3,,,,,,,,,2,,,63,36
420030,note_on,120,0,3,,,,,,,,,2,,,51,0
420030,note_on,60,0,1,,,,,,,,,0,,,82,0
420030,note_on,0,0,1,,,,,,,,,0,,,79,49
420042,note_on,0,0,3,,,,,,,,,2,,,63,0
420042,note_on,0,0,3,,,,,,,,,2,,,70,0
420042,note_on,12,0,3,,,,,,,,,2,,,73,0
420090,note_on,60,0,1,,,,,,,,,0,,,79,0
420090,note_on,0,0,1,,,,,,,,,0,,,82,49
420150,note_on,60,0,1,,,,,,,,,0,,,82,0
420150,note_on,108,0,3,,,,,,,,,2,,,63,36
420150,note_on,0,0,1,,,,,,,,,0,,,75,65
420150,note_on,0,0,1,,,,,,,,,0,,,85,75
420150,note_on,0,0,3,,,,,,,,,2,,,73,36
420150,note_on,0,0,1,,,,,,,,,0,,,79,70
420150,note_on,0,0,3,,,,,,,,,2,,,70,36
420162,note_on,12,0,3,,,,,,,,,2,,,73,0
420162,note_on,0,0,3,,,,,,,,,2,,,70,0
420162,note_on,0,0,3,,,,,,,,,2,,,63,0
420270,note_on,120,0,1,,,,,,,,,0,,,85,0
420270,note_on,0,0,1,,,,,,,,,0,,,79,0
420270,note_on,0,0,1,,,,,,,,,0,,,75,0
420270,note_on,0,0,1,,,,,,,,,0,,,75,75
420270,note_on,108,0,3,,,,,,,,,2,,,51,36
420282,note_on,12,0,1,,,,,,,,,0,,,75,0
420390,note_on,120,0,3,,,,,,,,,2,,,51,0
420390,note_on,0,0,3,,,,,,,,,2,,,73,36
420390,note_on,108,0,1,,,,,,,,,0,,,77,75
420390,note_on,0,0,3,,,,,,,,,2,,,70,36
420390,note_on,0,0,3,,,,,,,,,2,,,63,36
420402,note_on,12,0,1,,,,,,,,,0,,,77,0
420402,note_on,12,0,3,,,,,,,,,2,,,73,0
420402,note_on,0,0,3,,,,,,,,,2,,,70,0
420402,note_on,0,0,3,,,,,,,,,2,,,63,0
420510,note_on,108,0,1,,,,,,,,,0,,,79,75
420510,note_on,108,0,3,,,,,,,,,2,,,63,36
420510,note_on,0,0,3,,,,,,,,,2,,,70,36
420510,note_on,0,0,3,,,,,,,,,2,,,73,36
420522,note_on,12,0,3,,,,,,,,,2,,,73,0
420522,note_on,0,0,3,,,,,,,,,2,,,63,0
420522,note_on,12,0,1,,,,,,,,,0,,,79,0
420522,note_on,0,0,3,,,,,,,,,2,,,70,0
420630,note_on,108,0,3,,,,,,,,,2,,,56,36
420630,note_on,108,0,1,,,,,,,,,0,,,80,49
420690,note_on,60,0,1,,,,,,,,,0,,,80,0
420690,note_on,0,0,1,,,,,,,,,0,,,82,49
420750,note_on,60,0,1,,,,,,,,,0,,,82,0
420750,note_on,0,0,1,,,,,,,,,0,,,80,49
420750,note_on,0,0,3,,,,,,,,,2,,,72,36
420750,note_on,120,0,3,,,,,,,,,2,,,56,0
420750,note_on,0,0,3,,,,,,,,,2,,,63,36
420750,note_on,0,0,3,,,,,,,,,2,,,68,36
420762,note_on,0,0,3,,,,,,,,,2,,,63,0
420762,note_on,0,0,3,,,,,,,,,2,,,68,0
420762,note_on,12,0,3,,,,,,,,,2,,,72,0
420810,note_on,0,0,1,,,,,,,,,0,,,84,49
420810,note_on,60,0,1,,,,,,,,,0,,,80,0
420870,note_on,60,0,1,,,,,,,,,0,,,84,0
420870,note_on,108,0,3,,,,,,,,,2,,,63,36
420870,note_on,0,0,3,,,,,,,,,2,,,67,36
420870,note_on,0,0,3,,,,,,,,,2,,,73,36
420870,note_on,0,0,1,,,,,,,,,0,,,82,49
420882,note_on,0,0,3,,,,,,,,,2,,,63,0
420882,note_on,0,0,3,,,,,,,,,2,,,67,0
420882,note_on,12,0,3,,,,,,,,,2,,,73,0
420930,note_on,60,0,1,,,,,,,,,0,,,82,0
420930,note_on,0,0,1,,,,,,,,,0,,,84,49
420990,note_on,108,0,3,,,,,,,,,2,,,56,36
420990,note_on,60,0,1,,,,,,,,,0,,,84,0
420990,note_on,0,0,1,,,,,,,,,0,,,80,49
420990,time_signature,2520,1,0,2,4,24,8,,,,,,,,,
421110,note_on,0,0,3,,,,,,,,,2,,,72,36
421110,note_on,0,0,3,,,,,,,,,2,,,68,36
421110,note_on,0,0,3,,,,,,,,,2,,,63,36
421110,note_on,120,0,3,,,,,,,,,2,,,56,0
421230,note_on,0,0,3,,,,,,,,,2,,,68,0
421230,note_on,120,0,3,,,,,,,,,2,,,72,0
421230,note_on,240,0,1,,,,,,,,,0,,,80,0
421230,note_on,0,0,1,,,,,,,,,0,,,68,49
421230,note_on,0,0,3,,,,,,,,,2,,,63,0
421230,time_signature,240,1,0,1,4,24,8,,,,,,,,,
421350,time_signature,120,1,0,3,4,24,8,,,,,,,,,
421350,note_on,0,0,1,,,,,,,,,0,,,67,49
421350,note_on,120,0,1,,,,,,,,,0,,,68,0
421350,note_on,120,0,3,,,,,,,,,2,,,39,36
421410,note_on,60,0,1,,,,,,,,,0,,,67,0
421410,note_on,0,0,1,,,,,,,,,0,,,70,49
421470,note_on,60,0,1,,,,,,,,,0,,,70,0
421470,note_on,0,0,1,,,,,,,,,0,,,67,49
421470,note_on,0,0,3,,,,,,,,,2,,,51,36
421470,note_on,0,0,3,,,,,,,,,2,,,58,36
421470,note_on,120,0,3,,,,,,,,,2,,,39,0
421470,note_on,0,0,3,,,,,,,,,2,,,61,36
421482,note_on,12,0,3,,,,,,,,,2,,,61,0
421482,note_on,0,0,3,,,,,,,,,2,,,58,0
421482,note_on,0,0,3,,,,,,,,,2,,,51,0
421530,note_on,0,0,1,,,,,,,,,0,,,70,49
421530,note_on,60,0,1,,,,,,,,,0,,,67,0
421590,note_on,0,0,1,,,,,,,,,0,,,73,75
421590,note_on,0,0,1,,,,,,,,,0,,,67,70
421590,note_on,0,0,1,,,,,,,,,0,,,63,65
421590,note_on,0,0,3,,,,,,,,,2,,,61,36
421590,note_on,0,0,3,,,,,,,,,2,,,58,36
421590,note_on,108,0,3,,,,,,,,,2,,,51,36
421590,note_on,60,0,1,,,,,,,,,0,,,70,0
421602,note_on,0,0,3,,,,,,,,,2,,,58,0
421602,note_on,0,0,3,,,,,,,,,2,,,51,0
421602,note_on,12,0,3,,,,,,,,,2,,,61,0
421710,note_on,108,0,3,,,,,,,,,2,,,39,36
421710,note_on,120,0,1,,,,,,,,,0,,,73,0
421710,note_on,0,0,1,,,,,,,,,0,,,67,0
421710,note_on,0,0,1,,,,,,,,,0,,,63,0
421710,note_on,0,0,1,,,,,,,,,0,,,63,75
421722,note_on,12,0,1,,,,,,,,,0,,,63,0
421830,note_on,120,0,3,,,,,,,,,2,,,39,0
421830,note_on,0,0,3,,,,,,,,,2,,,51,36
421830,note_on,0,0,3,,,,,,,,,2,,,58,36
421830,note_on,0,0,3,,,,,,,,,2,,,61,36
421830,note_on,108,0,1,,,,,,,,,0,,,65,75
421842,note_on,12,0,1,,,,,,,,,0,,,65,0
421842,note_on,0,0,3,,,,,,,,,2,,,51,0
421842,note_on,0,0,3,,,,,,,,,2,,,58,0
421842,note_on,12,0,3,,,,,,,,,2,,,61,0
421950,note_on,108,0,1,,,,,,,,,0,,,67,75
421950,note_on,0,0,3,,,,,,,,,2,,,61,36
421950,note_on,0,0,3,,,,,,,,,2,,,58,36
421950,note_on,108,0,3,,,,,,,,,2,,,51,36
421962,note_on,12,0,1,,,,,,,,,0,,,67,0
421962,note_on,0,0,3,,,,,,,,,2,,,58,0
421962,note_on,12,0,3,,,,,,,,,2,,,61,0
421962,note_on,0,0,3,,,,,,,,,2,,,51,0
422070,note_on,108,0,1,,,,,,,,,0,,,68,49
422070,note_on,108,0,3,,,,,,,,,2,,,44,36
422130,note_on,0,0,1,,,,,,,,,0,,,63,49
422130,note_on,60,0,1,,,,,,,,,0,,,68,0
422190,note_on,60,0,1,,,,,,,,,0,,,63,0
422190,note_on,0,0,3,,,,,,,,,2,,,60,36
422190,note_on,0,0,3,,,,,,,,,2,,,56,36
422190,note_on,0,0,3,,,,,,,,,2,,,51,36
422190,note_on,120,0,3,,,,,,,,,2,,,44,0
422190,note_on,0,0,1,,,,,,,,,0,,,68,49
422202,note_on,0,0,3,,,,,,,,,2,,,51,0
422202,note_on,0,0,3,,,,,,,,,2,,,56,0
422202,note_on,12,0,3,,,,,,,,,2,,,60,0
422250,note_on,0,0,1,,,,,,,,,0,,,67,49
422250,note_on,60,0,1,,,,,,,,,0,,,68,0
422310,note_on,0,0,3,,,,,,,,,2,,,56,36
422310,note_on,0,0,3,,,,,,,,,2,,,60,36
422310,note_on,108,0,3,,,,,,,,,2,,,51,36
422310,note_on,60,0,1,,,,,,,,,0,,,67,0
422310,note_on,0,0,1,,,,,,,,,0,,,68,49
422322,note_on,12,0,3,,,,,,,,,2,,,60,0
422322,note_on,0,0,3,,,,,,,,,2,,,56,0
422322,note_on,0,0,3,,,,,,,,,2,,,51,0
422370,note_on,60,0,1,,,,,,,,,0,,,68,0
422370,note_on,0,0,1,,,,,,,,,0,,,70,49
422370,note_on,0,0,1,,,,,,,,,0,,,67,49
422430,note_on,108,0,3,,,,,,,,,2,,,44,36
422430,note_on,0,0,1,,,,,,,,,0,,,72,49
422430,note_on,0,0,1,,,,,,,,,0,,,68,49
422430,note_on,60,0,1,,,,,,,,,0,,,70,0
422430,note_on,0,0,1,,,,,,,,,0,,,67,0
422490,note_on,0,0,1,,,,,,,,,0,,,73,49
422490,note_on,0,0,1,,,,,,,,,0,,,70,49
422490,note_on,0,0,1,,,,,,,,,0,,,68,0
422490,note_on,60,0,1,,,,,,,,,0,,,72,0
422550,note_on,0,0,3,,,,,,,,,2,,,51,36
422550,note_on,0,0,3,,,,,,,,,2,,,56,36
422550,note_on,0,0,3,,,,,,,,,2,,,60,36
422550,note_on,120,0,3,,,,,,,,,2,,,44,0
422550,note_on,60,0,1,,,,,,,,,0,,,73,0
422550,note_on,0,0,1,,,,,,,,,0,,,70,0
422550,note_on,0,0,1,,,,,,,,,0,,,72,49
422550,note_on,0,0,1,,,,,,,,,0,,,75,49
422562,note_on,0,0,3,,,,,,,,,2,,,51,0
422562,note_on,0,0,3,,,,,,,,,2,,,56,0
422562,note_on,12,0,3,,,,,,,,,2,,,60,0
422610,note_on,60,0,1,,,,,,,,,0,,,75,0
422610,note_on,0,0,1,,,,,,,,,0,,,72,0
422610,note_on,0,0,1,,,,,,,,,0,,,77,49
422610,note_on,0,0,1,,,,,,,,,0,,,73,49
422670,note_on,0,0,1,,,,,,,,,0,,,73,0
422670,note_on,0,0,1,,,,,,,,,0,,,72,49
422670,note_on,0,0,1,,,,,,,,,0,,,75,49
422670,note_on,0,0,3,,,,,,,,,2,,,56,36
422670,note_on,0,0,3,,,,,,,,,2,,,60,36
422670,note_on,108,0,3,,,,,,,,,2,,,51,36
422670,note_on,60,0,1,,,,,,,,,0,,,77,0
422682,note_on,12,0,3,,,,,,,,,2,,,60,0
422682,note_on,0,0,3,,,,,,,,,2,,,51,0
422682,note_on,0,0,3,,,,,,,,,2,,,56,0
422790,note_on,0,0,1,,,,,,,,,0,,,72,0
422790,note_on,0,0,1,,,,,,,,,0,,,79,49
422790,note_on,108,0,3,,,,,,,,,2,,,51,36
422790,note_on,120,0,1,,,,,,,,,0,,,75,0
422850,note_on,60,0,1,,,,,,,,,0,,,79,0
422850,note_on,0,0,1,,,,,,,,,0,,,82,49
422910,note_on,120,0,3,,,,,,,,,2,,,51,0
422910,note_on,0,0,3,,,,,,,,,2,,,63,36
422910,note_on,0,0,3,,,,,,,,,2,,,70,36
422910,note_on,0,0,1,,,,,,,,,0,,,79,49
422910,note_on,60,0,1,,,,,,,,,0,,,82,0
422910,note_on,0,0,3,,,,,,,,,2,,,73,36
422922,note_on,0,0,3,,,,,,,,,2,,,70,0
422922,note_on,0,0,3,,,,,,,,,2,,,63,0
422922,note_on,12,0,3,,,,,,,,,2,,,73,0
422970,note_on,60,0,1,,,,,,,,,0,,,79,0
422970,note_on,0,0,1,,,,,,,,,0,,,82,49
423030,note_on,108,0,3,,,,,,,,,2,,,63,36
423030,note_on,0,0,3,,,,,,,,,2,,,70,36
423030,note_on,0,0,3,,,,,,,,,2,,,73,36
423030,note_on,60,0,1,,,,,,,,,0,,,82,0
423030,note_on,0,0,1,,,,,,,,,0,,,75,65
423030,note_on,0,0,1,,,,,,,,,0,,,79,70
423030,note_on,0,0,1,,,,,,,,,0,,,85,75
423042,note_on,12,0,3,,,,,,,,,2,,,73,0
423042,note_on,0,0,3,,,,,,,,,2,,,70,0
423042,note_on,0,0,3,,,,,,,,,2,,,63,0
423150,note_on,0,0,1,,,,,,,,,0,,,75,0
423150,note_on,120,0,1,,,,,,,,,0,,,85,0
423150,note_on,0,0,1,,,,,,,,,0,,,75,75
423150,note_on,0,0,1,,,,,,,,,0,,,79,0
423150,note_on,108,0,3,,,,,,,,,2,,,51,36
423162,note_on,12,0,1,,,,,,,,,0,,,75,0
423270,note_on,120,0,3,,,,,,,,,2,,,51,0
423270,note_on,0,0,3,,,,,,,,,2,,,63,36
423270,note_on,0,0,3,,,,,,,,,2,,,70,36
423270,note_on,108,0,1,,,,,,,,,0,,,77,75
423270,note_on,0,0,3,,,,,,,,,2,,,73,36
423282,note_on,0,0,3,,,,,,,,,2,,,70,0
423282,note_on,12,0,1,,,,,,,,,0,,,77,0
423282,note_on,0,0,3,,,,,,,,,2,,,63,0
423282,note_on,12,0,3,,,,,,,,,2,,,73,0
423390,note_on,108,0,3,,,,,,,,,2,,,63,36
423390,note_on,108,0,1,,,,,,,,,0,,,79,75
423390,note_on,0,0,3,,,,,,,,,2,,,73,36
423390,note_on,0,0,3,,,,,,,,,2,,,70,36
423402,note_on,0,0,3,,,,,,,,,2,,,63,0
423402,note_on,0,0,3,,,,,,,,,2,,,70,0
423402,note_on,12,0,3,,,,,,,,,2,,,73,0
423402,note_on,12,0,1,,,,,,,,,0,,,79,0
423510,note_on,108,0,1,,,,,,,,,0,,,80,49
423510,note_on,108,0,3,,,,,,,,,2,,,56,36
423570,note_on,60,0,1,,,,,,,,,0,,,80,0
423570,note_on,0,0,1,,,,,,,,,0,,,82,49
423630,note_on,0,0,3,,,,,,,,,2,,,68,36
423630,note_on,0,0,3,,,,,,,,,2,,,72,36
423630,note_on,0,0,3,,,,,,,,,2,,,63,36
423630,note_on,120,0,3,,,,,,,,,2,,,56,0
423630,note_on,60,0,1,,,,,,,,,0,,,82,0
423630,note_on,0,0,1,,,,,,,,,0,,,80,49
423642,note_on,0,0,3,,,,,,,,,2,,,63,0
423642,note_on,0,0,3,,,,,,,,,2,,,68,0
423642,note_on,12,0,3,,,,,,,,,2,,,72,0
423690,note_on,60,0,1,,,,,,,,,0,,,80,0
423690,note_on,0,0,1,,,,,,,,,0,,,84,49
423750,note_on,0,0,3,,,,,,,,,2,,,67,36
423750,note_on,0,0,3,,,,,,,,,2,,,73,36
423750,note_on,60,0,1,,,,,,,,,0,,,84,0
423750,note_on,0,0,1,,,,,,,,,0,,,82,49
423750,note_on,108,0,3,,,,,,,,,2,,,63,36
423762,note_on,0,0,3,,,,,,,,,2,,,63,0
423762,note_on,0,0,3,,,,,,,,,2,,,67,0
423762,note_on,12,0,3,,,,,,,,,2,,,73,0
423810,note_on,60,0,1,,,,,,,,,0,,,82,0
423810,note_on,0,0,1,,,,,,,,,0,,,84,49
423870,note_on,0,0,1,,,,,,,,,0,,,80,49
423870,time_signature,2520,1,0,2,4,24,8,,,,,,,,,
423870,note_on,108,0,3,,,,,,,,,2,,,56,36
423870,note_on,60,0,1,,,,,,,,,0,,,84,0
423990,note_on,0,0,3,,,,,,,,,2,,,72,36
423990,note_on,0,0,3,,,,,,,,,2,,,68,36
423990,note_on,120,0,3,,,,,,,,,2,,,56,0
423990,note_on,0,0,3,,,,,,,,,2,,,63,36
424110,note_on,0,0,1,,,,,,,,,0,,,75,88
424110,note_on,240,0,1,,,,,,,,,0,,,80,0
424110,note_on,120,0,3,,,,,,,,,2,,,72,0
424110,note_on,0,0,3,,,,,,,,,2,,,68,0
424110,note_on,0,0,3,,,,,,,,,2,,,63,0
424110,time_signature,240,1,0,1,4,24,8,,,,,,,,,
424230,note_on,120,0,3,,,,,,,,,2,,,48,75
424230,time_signature,120,1,0,3,4,24,8,,,,,,,,,
424230,note_on,120,0,1,,,,,,,,,0,,,75,0
424230,note_on,0,0,1,,,,,,,,,0,,,76,88
424290,note_on,60,0,1,,,,,,,,,0,,,76,0
424290,note_on,0,0,1,,,,,,,,,0,,,79,88
424350,note_on,0,0,3,,,,,,,,,2,,,70,75
424350,note_on,120,0,3,,,,,,,,,2,,,48,0
424350,note_on,0,0,3,,,,,,,,,2,,,67,75
424350,note_on,0,0,1,,,,,,,,,0,,,76,88
424350,note_on,0,0,3,,,,,,,,,2,,,60,75
424350,note_on,60,0,1,,,,,,,,,0,,,79,0
424362,note_on,0,0,3,,,,,,,,,2,,,60,0
424362,note_on,0,0,3,,,,,,,,,2,,,67,0
424362,note_on,12,0,3,,,,,,,,,2,,,70,0
424410,note_on,0,0,1,,,,,,,,,0,,,79,88
424410,note_on,60,0,1,,,,,,,,,0,,,76,0
424470,note_on,0,0,1,,,,,,,,,0,,,84,114
424470,note_on,0,0,1,,,,,,,,,0,,,76,106
424470,note_on,60,0,1,,,,,,,,,0,,,79,0
424470,note_on,0,0,3,,,,,,,,,2,,,70,75
424470,note_on,108,0,3,,,,,,,,,2,,,60,75
424470,note_on,0,0,3,,,,,,,,,2,,,67,75
424482,note_on,12,0,3,,,,,,,,,2,,,70,0
424482,note_on,0,0,3,,,,,,,,,2,,,60,0
424482,note_on,0,0,3,,,,,,,,,2,,,67,0
424590,note_on,108,0,3,,,,,,,,,2,,,53,75
424590,note_on,120,0,1,,,,,,,,,0,,,84,0
424590,note_on,0,0,1,,,,,,,,,0,,,76,0
424590,note_on,0,0,1,,,,,,,,,0,,,72,88
424650,note_on,60,0,1,,,,,,,,,0,,,72,0
424650,note_on,0,0,1,,,,,,,,,0,,,77,88
424710,note_on,0,0,3,,,,,,,,,2,,,60,75
424710,note_on,0,0,3,,,,,,,,,2,,,68,75
424710,note_on,0,0,3,,,,,,,,,2,,,65,75
424710,note_on,120,0,3,,,,,,,,,2,,,53,0
424710,note_on,0,0,1,,,,,,,,,0,,,72,88
424710,note_on,60,0,1,,,,,,,,,0,,,77,0
424722,note_on,0,0,3,,,,,,,,,2,,,60,0
424722,note_on,0,0,3,,,,,,,,,2,,,65,0
424722,note_on,12,0,3,,,,,,,,,2,,,68,0
424770,note_on,0,0,1,,,,,,,,,0,,,77,88
424770,note_on,60,0,1,,,,,,,,,0,,,72,0
424830,note_on,0,0,1,,,,,,,,,0,,,72,106
424830,note_on,0,0,3,,,,,,,,,2,,,68,75
424830,note_on,0,0,3,,,,,,,,,2,,,65,75
424830,note_on,108,0,3,,,,,,,,,2,,,60,75
424830,note_on,0,0,1,,,,,,,,,0,,,80,114
424830,note_on,60,0,1,,,,,,,,,0,,,77,0
424842,note_on,0,0,3,,,,,,,,,2,,,65,0
424842,note_on,12,0,3,,,,,,,,,2,,,68,0
424842,note_on,0,0,3,,,,,,,,,2,,,60,0
424950,note_on,120,0,1,,,,,,,,,0,,,80,0
424950,note_on,0,0,1,,,,,,,,,0,,,72,0
424950,note_on,0,0,1,,,,,,,,,0,,,72,88
424950,note_on,108,0,3,,,,,,,,,2,,,44,75
425010,note_on,60,0,1,,,,,,,,,0,,,72,0
425010,note_on,0,0,1,,,,,,,,,0,,,75,88
425070,note_on,120,0,3,,,,,,,,,2,,,44,0
425070,note_on,0,0,1,,,,,,,,,0,,,72,88
425070,note_on,0,0,3,,,,,,,,,2,,,56,75
425070,note_on,60,0,1,,,,,,,,,0,,,75,0
425070,note_on,0,0,3,,,,,,,,,2,,,66,75
425070,note_on,0,0,3,,,,,,,,,2,,,63,75
425082,note_on,12,0,3,,,,,,,,,2,,,66,0
425082,note_on,0,0,3,,,,,,,,,2,,,63,0
425082,note_on,0,0,3,,,,,,,,,2,,,56,0
425130,note_on,60,0,1,,,,,,,,,0,,,72,0
425130,note_on,0,0,1,,,,,,,,,0,,,75,88
425190,note_on,0,0,1,,,,,,,,,0,,,72,106
425190,note_on,60,0,1,,,,,,,,,0,,,75,0
425190,note_on,0,0,1,,,,,,,,,0,,,80,114
425190,note_on,0,0,3,,,,,,,,,2,,,66,75
425190,note_on,0,0,3,,,,,,,,,2,,,63,75
425190,note_on,108,0,3,,,,,,,,,2,,,56,75
425202,note_on,12,0,3,,,,,,,,,2,,,66,0
425202,note_on,0,0,3,,,,,,,,,2,,,63,0
425202,note_on,0,0,3,,,,,,,,,2,,,56,0
425310,note_on,108,0,3,,,,,,,,,2,,,49,75
425310,note_on,0,0,1,,,,,,,,,0,,,68,88
425310,note_on,0,0,1,,,,,,,,,0,,,72,0
425310,note_on,120,0,1,,,,,,,,,0,,,80,0
425370,note_on,60,0,1,,,,,,,,,0,,,68,0
425370,note_on,0,0,1,,,,,,,,,0,,,73,88
425430,note_on,0,0,1,,,,,,,,,0,,,68,88
425430,note_on,60,0,1,,,,,,,,,0,,,73,0
425430,note_on,0,0,3,,,,,,,,,2,,,65,75
425430,note_on,0,0,3,,,,,,,,,2,,,61,75
425430,note_on,0,0,3,,,,,,,,,2,,,56,75
425430,note_on,120,0,3,,,,,,,,,2,,,49,0
425442,note_on,0,0,3,,,,,,,,,2,,,56,0
425442,note_on,0,0,3,,,,,,,,,2,,,61,0
425442,note_on,12,0,3,,,,,,,,,2,,,65,0
425490,note_on,0,0,1,,,,,,,,,0,,,73,88
425490,note_on,60,0,1,,,,,,,,,0,,,68,0
425550,note_on,60,0,1,,,,,,,,,0,,,73,0
425550,note_on,0,0,1,,,,,,,,,0,,,68,106
425550,note_on,0,0,1,,,,,,,,,0,,,77,114
425550,note_on,0,0,3,,,,,,,,,2,,,65,75
425550,note_on,0,0,3,,,,,,,,,2,,,61,75
425550,note_on,108,0,3,,,,,,,,,2,,,56,75
425562,note_on,0,0,3,,,,,,,,,2,,,61,0
425562,note_on,0,0,3,,,,,,,,,2,,,56,0
425562,note_on,12,0,3,,,,,,,,,2,,,65,0
425670,note_on,0,0,1,,,,,,,,,0,,,67,88
425670,note_on,0,0,1,,,,,,,,,0,,,68,0
425670,note_on,120,0,1,,,,,,,,,0,,,77,0
425670,note_on,108,0,3,,,,,,,,,2,,,39,75
425730,note_on,60,0,1,,,,,,,,,0,,,67,0
425730,note_on,0,0,1,,,,,,,,,0,,,73,88
425790,note_on,60,0,1,,,,,,,,,0,,,73,0
425790,note_on,0,0,1,,,,,,,,,0,,,67,88
425790,note_on,0,0,3,,,,,,,,,2,,,58,75
425790,note_on,0,0,3,,,,,,,,,2,,,51,75
425790,note_on,120,0,3,,,,,,,,,2,,,39,0
425790,note_on,0,0,3,,,,,,,,,2,,,61,75
425802,note_on,0,0,3,,,,,,,,,2,,,51,0
425802,note_on,0,0,3,,,,,,,,,2,,,58,0
425802,note_on,12,0,3,,,,,,,,,2,,,61,0
425850,note_on,0,0,1,,,,,,,,,0,,,73,88
425850,note_on,60,0,1,,,,,,,,,0,,,67,0
425910,note_on,0,0,1,,,,,,,,,0,,,67,104
425910,note_on,60,0,1,,,,,,,,,0,,,73,0
425910,note_on,0,0,1,,,,,,,,,0,,,73,109
425910,note_on,0,0,1,,,,,,,,,0,,,77,114
425910,note_on,0,0,3,,,,,,,,,2,,,61,75
425910,note_on,0,0,3,,,,,,,,,2,,,58,75
425910,note_on,108,0,3,,,,,,,,,2,,,51,75
425922,note_on,0,0,3,,,,,,,,,2,,,58,0
425922,note_on,12,0,3,,,,,,,,,2,,,61,0
425922,note_on,0,0,3,,,,,,,,,2,,,51,0
426030,note_on,0,0,1,,,,,,,,,0,,,77,114
426030,note_on,0,0,1,,,,,,,,,0,,,67,104
426030,note_on,0,0,1,,,,,,,,,0,,,67,0
426030,note_on,0,0,1,,,,,,,,,0,,,73,109
426030,note_on,120,0,1,,,,,,,,,0,,,77,0
426030,note_on,108,0,3,,,,,,,,,2,,,39,101
426030,note_on,0,0,1,,,,,,,,,0,,,73,0
426042,note_on,12,0,3,,,,,,,,,2,,,39,0
426042,note_on,12,0,1,,,,,,,,,0,,,77,0
426042,note_on,0,0,1,,,,,,,,,0,,,73,0
426042,note_on,0,0,1,,,,,,,,,0,,,67,0
426150,note_on,0,0,1,,,,,,,,,0,,,75,114
426150,note_on,108,0,3,,,,,,,,,2,,,41,101
426150,note_on,108,0,1,,,,,,,,,0,,,68,104
426150,note_on,0,0,1,,,,,,,,,0,,,72,109
426162,note_on,0,0,1,,,,,,,,,0,,,72,0
426162,note_on,12,0,1,,,,,,,,,0,,,75,0
426162,note_on,0,0,1,,,,,,,,,0,,,68,0
426162,note_on,12,0,3,,,,,,,,,2,,,41,0
426270,note_on,108,0,1,,,,,,,,,0,,,70,106
426270,note_on,0,0,1,,,,,,,,,0,,,73,114
426270,note_on,108,0,3,,,,,,,,,2,,,43,101
426282,note_on,12,0,3,,,,,,,,,2,,,43,0
426282,note_on,12,0,1,,,,,,,,,0,,,73,0
426282,note_on,0,0,1,,,,,,,,,0,,,70,0
426390,note_on,108,0,3,,,,,,,,,2,,,44,101
426390,note_on,108,0,1,,,,,,,,,0,,,68,88
426390,note_on,0,0,1,,,,,,,,,0,,,72,88
426402,note_on,12,0,3,,,,,,,,,2,,,44,0
426450,note_on,0,0,1,,,,,,,,,0,,,68,0
426450,note_on,60,0,1,,,,,,,,,0,,,72,0
426450,note_on,0,0,1,,,,,,,,,0,,,75,88
426510,note_on,108,0,3,,,,,,,,,2,,,48,101
426510,note_on,0,0,1,,,,,,,,,0,,,72,88
426510,note_on,0,0,1,,,,,,,,,0,,,68,88
426510,note_on,60,0,1,,,,,,,,,0,,,75,0
426522,note_on,12,0,3,,,,,,,,,2,,,48,0
426570,note_on,0,0,1,,,,,,,,,0,,,68,0
426570,note_on,0,0,1,,,,,,,,,0,,,63,88
426570,note_on,60,0,1,,,,,,,,,0,,,72,0
426630,note_on,0,0,1,,,,,,,,,0,,,70,88
426630,note_on,0,0,3,,,,,,,,,2,,,61,75
426630,note_on,108,0,3,,,,,,,,,2,,,51,75
426630,note_on,60,0,1,,,,,,,,,0,,,63,0
426630,note_on,0,0,1,,,,,,,,,0,,,67,88
426690,note_on,0,0,1,,,,,,,,,0,,,72,88
426690,note_on,60,0,1,,,,,,,,,0,,,70,0
426690,note_on,0,0,1,,,,,,,,,0,,,67,0
426750,time_signature,2520,1,0,2,4,24,8,,,,,,,,,
426750,note_on,0,0,3,,,,,,,,,2,,,60,75
426750,note_on,60,0,1,,,,,,,,,0,,,72,0
426750,note_on,0,0,3,,,,,,,,,2,,,51,0
426750,note_on,0,0,3,,,,,,,,,2,,,56,75
426750,note_on,0,0,1,,,,,,,,,0,,,68,88
426750,note_on,120,0,3,,,,,,,,,2,,,61,0
426990,note_on,240,0,1,,,,,,,,,0,,,68,0
426990,time_signature,240,1,0,1,4,24,8,,,,,,,,,
426990,note_on,240,0,3,,,,,,,,,2,,,60,0
426990,note_on,0,0,3,,,,,,,,,2,,,56,0
426990,note_on,0,0,1,,,,,,,,,0,,,75,88
427110,time_signature,120,1,0,3,4,24,8,,,,,,,,,
427110,note_on,120,0,3,,,,,,,,,2,,,48,75
427110,note_on,120,0,1,,,,,,,,,0,,,75,0
427110,note_on,0,0,1,,,,,,,,,0,,,76,88
427170,note_on,60,0,1,,,,,,,,,0,,,76,0
427170,note_on,0,0,1,,,,,,,,,0,,,79,88
427230,note_on,0,0,3,,,,,,,,,2,,,60,75
427230,note_on,0,0,3,,,,,,,,,2,,,67,75
427230,note_on,120,0,3,,,,,,,,,2,,,48,0
427230,note_on,0,0,1,,,,,,,,,0,,,76,88
427230,note_on,60,0,1,,,,,,,,,0,,,79,0
427230,note_on,0,0,3,,,,,,,,,2,,,70,75
427242,note_on,12,0,3,,,,,,,,,2,,,70,0
427242,note_on,0,0,3,,,,,,,,,2,,,67,0
427242,note_on,0,0,3,,,,,,,,,2,,,60,0
427290,note_on,60,0,1,,,,,,,,,0,,,76,0
427290,note_on,0,0,1,,,,,,,,,0,,,79,88
427350,note_on,108,0,3,,,,,,,,,2,,,60,75
427350,note_on,0,0,3,,,,,,,,,2,,,67,75
427350,note_on,0,0,3,,,,,,,,,2,,,70,75
427350,note_on,0,0,1,,,,,,,,,0,,,76,106
427350,note_on,0,0,1,,,,,,,,,0,,,84,114
427350,note_on,60,0,1,,,,,,,,,0,,,79,0
427362,note_on,12,0,3,,,,,,,,,2,,,70,0
427362,note_on,0,0,3,,,,,,,,,2,,,67,0
427362,note_on,0,0,3,,,,,,,,,2,,,60,0
427470,note_on,108,0,3,,,,,,,,,2,,,53,75
427470,note_on,120,0,1,,,,,,,,,0,,,84,0
427470,note_on,0,0,1,,,,,,,,,0,,,76,0
427470,note_on,0,0,1,,,,,,,,,0,,,72,88
427530,note_on,60,0,1,,,,,,,,,0,,,72,0
427530,note_on,0,0,1,,,,,,,,,0,,,77,88
427590,note_on,0,0,3,,,,,,,,,2,,,68,75
427590,note_on,0,0,1,,,,,,,,,0,,,72,88
427590,note_on,60,0,1,,,,,,,,,0,,,77,0
427590,note_on,120,0,3,,,,,,,,,2,,,53,0
427590,note_on,0,0,3,,,,,,,,,2,,,65,75
427590,note_on,0,0,3,,,,,,,,,2,,,60,75
427602,note_on,12,0,3,,,,,,,,,2,,,68,0
427602,note_on,0,0,3,,,,,,,,,2,,,65,0
427602,note_on,0,0,3,,,,,,,,,2,,,60,0
427650,note_on,60,0,1,,,,,,,,,0,,,72,0
427650,note_on,0,0,1,,,,,,,,,0,,,77,88
427710,note_on,60,0,1,,,,,,,,,0,,,77,0
427710,note_on,108,0,3,,,,,,,,,2,,,60,75
427710,note_on,0,0,3,,,,,,,,,2,,,65,75
427710,note_on,0,0,3,,,,,,,,,2,,,68,75
427710,note_on,0,0,1,,,,,,,,,0,,,72,106
427710,note_on,0,0,1,,,,,,,,,0,,,80,114
427722,note_on,12,0,3,,,,,,,,,2,,,68,0
427722,note_on,0,0,3,,,,,,,,,2,,,60,0
427722,note_on,0,0,3,,,,,,,,,2,,,65,0
427830,note_on,0,0,1,,,,,,,,,0,,,72,88
427830,note_on,0,0,1,,,,,,,,,0,,,72,0
427830,note_on,120,0,1,,,,,,,,,0,,,80,0
427830,note_on,108,0,3,,,,,,,,,2,,,44,75
427890,note_on,60,0,1,,,,,,,,,0,,,72,0
427890,note_on,0,0,1,,,,,,,,,0,,,75,88
427950,note_on,120,0,3,,,,,,,,,2,,,44,0
427950,note_on,0,0,3,,,,,,,,,2,,,56,75
427950,note_on,0,0,3,,,,,,,,,2,,,63,75
427950,note_on,0,0,3,,,,,,,,,2,,,66,75
427950,note_on,60,0,1,,,,,,,,,0,,,75,0
427950,note_on,0,0,1,,,,,,,,,0,,,72,88
427962,note_on,12,0,3,,,,,,,,,2,,,66,0
427962,note_on,0,0,3,,,,,,,,,2,,,63,0
427962,note_on,0,0,3,,,,,,,,,2,,,56,0
428010,note_on,60,0,1,,,,,,,,,0,,,72,0
428010,note_on,0,0,1,,,,,,,,,0,,,75,88
428070,note_on,0,0,3,,,,,,,,,2,,,66,75
428070,note_on,0,0,1,,,,,,,,,0,,,80,114
428070,note_on,60,0,1,,,,,,,,,0,,,75,0
428070,note_on,108,0,3,,,,,,,,,2,,,56,75
428070,note_on,0,0,1,,,,,,,,,0,,,72,106
428070,note_on,0,0,3,,,,,,,,,2,,,63,75
428082,note_on,0,0,3,,,,,,,,,2,,,56,0
428082,note_on,12,0,3,,,,,,,,,2,,,66,0
428082,note_on,0,0,3,,,,,,,,,2,,,63,0
428190,note_on,0,0,1,,,,,,,,,0,,,68,88
428190,note_on,108,0,3,,,,,,,,,2,,,49,75
428190,note_on,120,0,1,,,,,,,,,0,,,80,0
428190,note_on,0,0,1,,,,,,,,,0,,,72,0
428250,note_on,60,0,1,,,,,,,,,0,,,68,0
428250,note_on,0,0,1,,,,,,,,,0,,,73,88
428310,note_on,60,0,1,,,,,,,,,0,,,73,0
428310,note_on,0,0,1,,,,,,,,,0,,,68,88
428310,note_on,120,0,3,,,,,,,,,2,,,49,0
428310,note_on,0,0,3,,,,,,,,,2,,,56,75
428310,note_on,0,0,3,,,,,,,,,2,,,65,75
428310,note_on,0,0,3,,,,,,,,,2,,,61,75
428322,note_on,0,0,3,,,,,,,,,2,,,56,0
428322,note_on,0,0,3,,,,,,,,,2,,,61,0
428322,note_on,12,0,3,,,,,,,,,2,,,65,0
428370,note_on,60,0,1,,,,,,,,,0,,,68,0
428370,note_on,0,0,1,,,,,,,,,0,,,73,88
428430,note_on,0,0,3,,,,,,,,,2,,,65,75
428430,note_on,0,0,3,,,,,,,,,2,,,61,75
428430,note_on,108,0,3,,,,,,,,,2,,,56,75
428430,note_on,60,0,1,,,,,,,,,0,,,73,0
428430,note_on,0,0,1,,,,,,,,,0,,,68,106
428430,note_on,0,0,1,,,,,,,,,0,,,77,114
428442,note_on,0,0,3,,,,,,,,,2,,,61,0
428442,note_on,12,0,3,,,,,,,,,2,,,65,0
428442,note_on,0,0,3,,,,,,,,,2,,,56,0
428550,note_on,0,0,1,,,,,,,,,0,,,67,88
428550,note_on,0,0,1,,,,,,,,,0,,,68,0
428550,note_on,120,0,1,,,,,,,,,0,,,77,0
428550,note_on,108,0,3,,,,,,,,,2,,,39,75
428610,note_on,60,0,1,,,,,,,,,0,,,67,0
428610,note_on,0,0,1,,,,,,,,,0,,,73,88
428670,note_on,0,0,3,,,,,,,,,2,,,51,75
428670,note_on,120,0,3,,,,,,,,,2,,,39,0
428670,note_on,0,0,3,,,,,,,,,2,,,58,75
428670,note_on,0,0,3,,,,,,,,,2,,,61,75
428670,note_on,0,0,1,,,,,,,,,0,,,67,88
428670,note_on,60,0,1,,,,,,,,,0,,,73,0
428682,note_on,0,0,3,,,,,,,,,2,,,58,0
428682,note_on,0,0,3,,,,,,,,,2,,,51,0
428682,note_on,12,0,3,,,,,,,,,2,,,61,0
428730,note_on,0,0,1,,,,,,,,,0,,,73,88
428730,note_on,60,0,1,,,,,,,,,0,,,67,0
428790,note_on,60,0,1,,,,,,,,,0,,,73,0
428790,note_on,108,0,3,,,,,,,,,2,,,51,75
428790,note_on,0,0,3,,,,,,,,,2,,,58,75
428790,note_on,0,0,3,,,,,,,,,2,,,61,75
428790,note_on,0,0,1,,,,,,,,,0,,,67,104
428790,note_on,0,0,1,,,,,,,,,0,,,73,109
428790,note_on,0,0,1,,,,,,,,,0,,,77,114
428802,note_on,0,0,3,,,,,,,,,2,,,51,0
428802,note_on,0,0,3,,,,,,,,,2,,,58,0
428802,note_on,12,0,3,,,,,,,,,2,,,61,0
428910,note_on,0,0,1,,,,,,,,,0,,,73,0
428910,note_on,0,0,1,,,,,,,,,0,,,67,0
428910,note_on,0,0,1,,,,,,,,,0,,,67,104
428910,note_on,0,0,1,,,,,,,,,0,,,73,109
428910,note_on,0,0,1,,,,,,,,,0,,,77,114
428910,note_on,120,0,1,,,,,,,,,0,,,77,0
428910,note_on,108,0,3,,,,,,,,,2,,,39,101
428922,note_on,0,0,1,,,,,,,,,0,,,67,0
428922,note_on,12,0,3,,,,,,,,,2,,,39,0
428922,note_on,0,0,1,,,,,,,,,0,,,73,0
428922,note_on,12,0,1,,,,,,,,,0,,,77,0
429030,note_on,0,0,1,,,,,,,,,0,,,75,114
429030,note_on,108,0,1,,,,,,,,,0,,,68,104
429030,note_on,0,0,1,,,,,,,,,0,,,72,109
429030,note_on,108,0,3,,,,,,,,,2,,,41,101
429042,note_on,12,0,3,,,,,,,,,2,,,41,0
429042,note_on,12,0,1,,,,,,,,,0,,,75,0
429042,note_on,0,0,1,,,,,,,,,0,,,72,0
429042,note_on,0,0,1,,,,,,,,,0,,,68,0
429150,note_on,108,0,1,,,,,,,,,0,,,70,106
429150,note_on,108,0,3,,,,,,,,,2,,,43,101
429150,note_on,0,0,1,,,,,,,,,0,,,73,114
429162,note_on,0,0,1,,,,,,,,,0,,,70,0
429162,note_on,12,0,3,,,,,,,,,2,,,43,0
429162,note_on,12,0,1,,,,,,,,,0,,,73,0
429270,note_on,0,0,1,,,,,,,,,0,,,72,88
429270,note_on,108,0,1,,,,,,,,,0,,,68,88
429270,note_on,108,0,3,,,,,,,,,2,,,44,101
429282,note_on,12,0,3,,,,,,,,,2,,,44,0
429330,note_on,0,0,1,,,,,,,,,0,,,75,88
429330,note_on,0,0,1,,,,,,,,,0,,,68,0
429330,note_on,60,0,1,,,,,,,,,0,,,72,0
429390,note_on,0,0,1,,,,,,,,,0,,,72,88
429390,note_on,60,0,1,,,,,,,,,0,,,75,0
429390,note_on,0,0,1,,,,,,,,,0,,,68,88
429390,note_on,108,0,3,,,,,,,,,2,,,48,101
429402,note_on,12,0,3,,,,,,,,,2,,,48,0
429450,note_on,60,0,1,,,,,,,,,0,,,72,0
429450,note_on,0,0,1,,,,,,,,,0,,,63,88
429450,note_on,0,0,1,,,,,,,,,0,,,68,0
429510,note_on,0,0,1,,,,,,,,,0,,,70,88
429510,note_on,0,0,1,,,,,,,,,0,,,67,88
429510,note_on,108,0,3,,,,,,,,,2,,,51,75
429510,note_on,60,0,1,,,,,,,,,0,,,63,0
429510,note_on,0,0,3,,,,,,,,,2,,,61,75
429570,note_on,0,0,1,,,,,,,,,0,,,72,88
429570,note_on,0,0,1,,,,,,,,,0,,,67,0
429570,note_on,60,0,1,,,,,,,,,0,,,70,0
429630,note_on,0,0,1,,,,,,,,,0,,,68,88
429630,note_on,60,0,1,,,,,,,,,0,,,72,0
429630,note_on,120,0,3,,,,,,,,,2,,,61,0
429630,note_on,0,0,3,,,,,,,,,2,,,60,75
429630,note_on,0,0,3,,,,,,,,,2,,,56,75
429630,note_on,0,0,3,,,,,,,,,2,,,51,0
429630,time_signature,2520,1,0,2,4,24,8,,,,,,,,,
429870,note_on,0,0,1,,,,,,,,,0,,,60,88
429870,note_on,0,0,3,,,,,,,,,2,,,56,101
429870,note_on,0,0,3,,,,,,,,,2,,,44,93
429870,note_on,0,0,3,,,,,,,,,2,,,56,0
429870,note_on,240,0,3,,,,,,,,,2,,,60,0
429870,note_on,240,0,1,,,,,,,,,0,,,68,0
429870,note_on,0,0,1,,,,,,,,,0,,,63,88
429870,time_signature,240,1,0,1,4,24,8,,,,,,,,,
429870,note_on,0,0,1,,,,,,,,,0,,,68,88
429882,note_on,12,0,3,,,,,,,,,2,,,56,0
429882,note_on,0,0,3,,,,,,,,,2,,,44,0
429990,note_on,0,0,3,,,,,,,,,2,,,58,101
429990,note_on,108,0,3,,,,,,,,,2,,,46,93
429990,note_on,0,0,2,,,,,,,,,1,,,63,75
429990,time_signature,120,1,0,3,4,24,8,,,,,,,,,
429990,note_on,120,0,1,,,,,,,,,0,,,68,0
429990,note_on,0,0,1,,,,,,,,,0,,,67,88
429990,note_on,0,0,1,,,,,,,,,0,,,60,0
429990,note_on,0,0,1,,,,,,,,,0,,,63,0
429990,note_on,46800,0,2,,,,,,,,,1,,,61,75
430002,note_on,12,0,3,,,,,,,,,2,,,58,0
430002,note_on,0,0,3,,,,,,,,,2,,,46,0
430050,note_on,0,0,1,,,,,,,,,0,,,65,88
430050,note_on,60,0,1,,,,,,,,,0,,,67,0
430110,note_on,108,0,3,,,,,,,,,2,,,43,93
430110,note_on,0,0,3,,,,,,,,,2,,,55,101
430110,note_on,0,0,2,,,,,,,,,1,,,61,101
430110,note_on,0,0,2,,,,,,,,,1,,,61,0
430110,note_on,120,0,2,,,,,,,,,1,,,63,0
430110,note_on,60,0,1,,,,,,,,,0,,,65,0
430110,note_on,0,0,1,,,,,,,,,0,,,63,114
430122,note_on,0,0,3,,,,,,,,,2,,,43,0
430122,note_on,12,0,3,,,,,,,,,2,,,55,0
430230,note_on,108,0,3,,,,,,,,,2,,,39,93
430230,note_on,0,0,3,,,,,,,,,2,,,51,101
430242,note_on,0,0,3,,,,,,,,,2,,,39,0
430242,note_on,12,0,3,,,,,,,,,2,,,51,0
430290,note_on,180,0,1,,,,,,,,,0,,,63,0
430290,note_on,0,0,1,,,,,,,,,0,,,65,88
430350,note_on,0,0,2,,,,,,,,,1,,,60,75
430350,note_on,60,0,1,,,,,,,,,0,,,65,0
430350,note_on,0,0,1,,,,,,,,,0,,,63,88
430350,note_on,240,0,2,,,,,,,,,1,,,61,0
430350,note_on,0,0,3,,,,,,,,,2,,,56,101
430350,note_on,108,0,3,,,,,,,,,2,,,44,93
430362,note_on,12,0,3,,,,,,,,,2,,,56,0
430362,note_on,0,0,3,,,,,,,,,2,,,44,0
430410,note_on,60,0,1,,,,,,,,,0,,,63,0
430410,note_on,0,0,1,,,,,,,,,0,,,65,88
430470,note_on,60,0,1,,,,,,,,,0,,,65,0
430470,note_on,120,0,2,,,,,,,,,1,,,60,0
430470,note_on,0,0,2,,,,,,,,,1,,,60,101
430470,note_on,108,0,3,,,,,,,,,2,,,39,93
430470,note_on,0,0,3,,,,,,,,,2,,,51,101
430470,note_on,0,0,1,,,,,,,,,0,,,63,114
430482,note_on,12,0,3,,,,,,,,,2,,,51,0
430482,note_on,0,0,3,,,,,,,,,2,,,39,0
430590,note_on,108,0,3,,,,,,,,,2,,,36,93
430590,note_on,0,0,3,,,,,,,,,2,,,48,101
430602,note_on,12,0,3,,,,,,,,,2,,,48,0
430602,note_on,0,0,3,,,,,,,,,2,,,36,0
430650,note_on,0,0,1,,,,,,,,,0,,,68,88
430650,note_on,180,0,1,,,,,,,,,0,,,63,0
430710,note_on,0,0,1,,,,,,,,,0,,,70,88
430710,note_on,0,0,2,,,,,,,,,1,,,63,75
430710,note_on,0,0,2,,,,,,,,,1,,,61,75
430710,note_on,240,0,2,,,,,,,,,1,,,60,0
430710,note_on,108,0,3,,,,,,,,,2,,,39,93
430710,note_on,0,0,3,,,,,,,,,2,,,51,101
430710,note_on,60,0,1,,,,,,,,,0,,,68,0
430722,note_on,12,0,3,,,,,,,,,2,,,51,0
430722,note_on,0,0,3,,,,,,,,,2,,,39,0
430770,note_on,60,0,1,,,,,,,,,0,,,70,0
430770,note_on,0,0,1,,,,,,,,,0,,,72,88
430830,note_on,60,0,1,,,,,,,,,0,,,72,0
430830,note_on,108,0,3,,,,,,,,,2,,,43,93
430830,note_on,0,0,1,,,,,,,,,0,,,73,114
430830,note_on,120,0,2,,,,,,,,,1,,,63,0
430830,note_on,0,0,2,,,,,,,,,1,,,61,0
430830,note_on,0,0,2,,,,,,,,,1,,,61,93
430830,note_on,0,0,2,,,,,,,,,1,,,63,101
430830,note_on,0,0,3,,,,,,,,,2,,,55,101
430836,note_on,6,0,2,,,,,,,,,1,,,63,0
430836,note_on,0,0,2,,,,,,,,,1,,,61,0
430836,note_on,6,0,1,,,,,,,,,0,,,73,0
430842,note_on,12,0,3,,,,,,,,,2,,,55,0
430842,note_on,0,0,3,,,,,,,,,2,,,43,0
430890,note_on,0,0,2,,,,,,,,,1,,,63,101
430890,note_on,54,0,2,,,,,,,,,1,,,61,93
430890,note_on,54,0,1,,,,,,,,,0,,,73,114
430896,note_on,6,0,2,,,,,,,,,1,,,63,0
430896,note_on,0,0,2,,,,,,,,,1,,,61,0
430896,note_on,6,0,1,,,,,,,,,0,,,73,0
430950,note_on,0,0,3,,,,,,,,,2,,,51,101
430950,note_on,108,0,3,,,,,,,,,2,,,39,93
430950,note_on,0,0,2,,,,,,,,,1,,,63,101
430950,note_on,54,0,2,,,,,,,,,1,,,61,93
430950,note_on,54,0,1,,,,,,,,,0,,,73,114
430956,note_on,6,0,1,,,,,,,,,0,,,73,0
430956,note_on,0,0,2,,,,,,,,,1,,,61,0
430956,note_on,6,0,2,,,,,,,,,1,,,63,0
430962,note_on,12,0,3,,,,,,,,,2,,,51,0
430962,note_on,0,0,3,,,,,,,,,2,,,39,0
431010,note_on,54,0,2,,,,,,,,,1,,,61,93
431010,note_on,0,0,2,,,,,,,,,1,,,63,101
431010,note_on,54,0,1,,,,,,,,,0,,,73,114
431016,note_on,6,0,1,,,,,,,,,0,,,73,0
431016,note_on,6,0,2,,,,,,,,,1,,,63,0
431016,note_on,0,0,2,,,,,,,,,1,,,61,0
431070,note_on,54,0,1,,,,,,,,,0,,,61,88
431070,note_on,0,0,1,,,,,,,,,0,,,73,88
431070,note_on,54,0,2,,,,,,,,,1,,,63,75
431070,note_on,108,0,3,,,,,,,,,2,,,44,75
431070,note_on,0,0,3,,,,,,,,,2,,,56,75
431190,note_on,0,0,1,,,,,,,,,0,,,60,88
431190,note_on,0,0,1,,,,,,,,,0,,,72,88
431190,note_on,120,0,3,,,,,,,,,2,,,56,0
431190,note_on,0,0,3,,,,,,,,,2,,,44,0
431190,note_on,0,0,3,,,,,,,,,2,,,44,75
431190,note_on,120,0,1,,,,,,,,,0,,,73,0
431190,note_on,0,0,1,,,,,,,,,0,,,61,0
431310,note_on,120,0,3,,,,,,,,,2,,,44,0
431310,note_on,240,0,2,,,,,,,,,1,,,63,0
431310,note_on,0,0,2,,,,,,,,,1,,,60,75
431310,note_on,0,0,2,,,,,,,,,1,,,63,75
431310,note_on,0,0,3,,,,,,,,,2,,,44,75
431310,note_on,0,0,3,,,,,,,,,2,,,56,75
431310,note_on,120,0,1,,,,,,,,,0,,,72,0
431310,note_on,0,0,1,,,,,,,,,0,,,70,88
431310,note_on,0,0,1,,,,,,,,,0,,,60,0
431370,note_on,60,0,1,,,,,,,,,0,,,70,0
431370,note_on,0,0,1,,,,,,,,,0,,,68,88
431430,note_on,0,0,3,,,,,,,,,2,,,58,101
431430,note_on,0,0,3,,,,,,,,,2,,,46,93
431430,note_on,0,0,3,,,,,,,,,2,,,44,0
431430,note_on,120,0,3,,,,,,,,,2,,,56,0
431430,note_on,120,0,2,,,,,,,,,1,,,63,0
431430,note_on,0,0,2,,,,,,,,,1,,,60,0
431430,note_on,0,0,2,,,,,,,,,1,,,61,75
431430,note_on,0,0,2,,,,,,,,,1,,,63,75
431430,note_on,0,0,1,,,,,,,,,0,,,67,88
431430,note_on,60,0,1,,,,,,,,,0,,,68,0
431442,note_on,12,0,3,,,,,,,,,2,,,58,0
431442,note_on,0,0,3,,,,,,,,,2,,,46,0
431490,note_on,0,0,1,,,,,,,,,0,,,65,88
431490,note_on,60,0,1,,,,,,,,,0,,,67,0
431550,note_on,120,0,2,,,,,,,,,1,,,63,0
431550,note_on,0,0,2,,,,,,,,,1,,,61,0
431550,note_on,108,0,3,,,,,,,,,2,,,43,93
431550,note_on,0,0,2,,,,,,,,,1,,,61,101
431550,note_on,0,0,3,,,,,,,,,2,,,55,101
431550,note_on,0,0,1,,,,,,,,,0,,,63,114
431550,note_on,60,0,1,,,,,,,,,0,,,65,0
431562,note_on,12,0,3,,,,,,,,,2,,,55,0
431562,note_on,0,0,3,,,,,,,,,2,,,43,0
431670,note_on,108,0,3,,,,,,,,,2,,,39,93
431670,note_on,0,0,3,,,,,,,,,2,,,51,101
431682,note_on,12,0,3,,,,,,,,,2,,,51,0
431682,note_on,0,0,3,,,,,,,,,2,,,39,0
431730,note_on,180,0,1,,,,,,,,,0,,,63,0
431730,note_on,0,0,1,,,,,,,,,0,,,65,88
431790,note_on,240,0,2,,,,,,,,,1,,,61,0
431790,note_on,108,0,3,,,,,,,,,2,,,44,93
431790,note_on,0,0,3,,,,,,,,,2,,,56,101
431790,note_on,0,0,2,,,,,,,,,1,,,60,75
431790,note_on,0,0,1,,,,,,,,,0,,,63,88
431790,note_on,60,0,1,,,,,,,,,0,,,65,0
431802,note_on,0,0,3,,,,,,,,,2,,,44,0
431802,note_on,12,0,3,,,,,,,,,2,,,56,0
431850,note_on,0,0,1,,,,,,,,,0,,,65,88
431850,note_on,60,0,1,,,,,,,,,0,,,63,0
431910,note_on,120,0,2,,,,,,,,,1,,,60,0
431910,note_on,60,0,1,,,,,,,,,0,,,65,0
431910,note_on,0,0,1,,,,,,,,,0,,,63,114
431910,note_on,0,0,2,,,,,,,,,1,,,60,101
431910,note_on,0,0,3,,,,,,,,,2,,,51,101
431910,note_on,108,0,3,,,,,,,,,2,,,39,93
431922,note_on,12,0,3,,,,,,,,,2,,,51,0
431922,note_on,0,0,3,,,,,,,,,2,,,39,0
432030,note_on,0,0,3,,,,,,,,,2,,,48,101
432030,note_on,108,0,3,,,,,,,,,2,,,36,93
432042,note_on,0,0,3,,,,,,,,,2,,,36,0
432042,note_on,12,0,3,,,,,,,,,2,,,48,0
432090,note_on,180,0,1,,,,,,,,,0,,,63,0
432090,note_on,0,0,1,,,,,,,,,0,,,68,88
432150,note_on,0,0,2,,,,,,,,,1,,,63,101
432150,note_on,0,0,1,,,,,,,,,0,,,70,114
432150,note_on,0,0,2,,,,,,,,,1,,,61,93
432150,note_on,108,0,3,,,,,,,,,2,,,39,75
432150,note_on,0,0,3,,,,,,,,,2,,,51,75
432150,note_on,240,0,2,,,,,,,,,1,,,60,0
432150,note_on,60,0,1,,,,,,,,,0,,,68,0
432156,note_on,6,0,1,,,,,,,,,0,,,70,0
432156,note_on,6,0,2,,,,,,,,,1,,,63,0
432156,note_on,0,0,2,,,,,,,,,1,,,61,0
432210,note_on,54,0,2,,,,,,,,,1,,,61,93
432210,note_on,0,0,2,,,,,,,,,1,,,63,101
432210,note_on,54,0,1,,,,,,,,,0,,,70,114
432216,note_on,6,0,1,,,,,,,,,0,,,70,0
432216,note_on,6,0,2,,,,,,,,,1,,,63,0
432216,note_on,0,0,2,,,,,,,,,1,,,61,0
432270,note_on,0,0,3,,,,,,,,,2,,,55,75
432270,note_on,120,0,3,,,,,,,,,2,,,51,0
432270,note_on,0,0,3,,,,,,,,,2,,,39,0
432270,note_on,54,0,2,,,,,,,,,1,,,61,93
432270,note_on,0,0,2,,,,,,,,,1,,,63,101
432270,note_on,54,0,1,,,,,,,,,0,,,70,114
432270,note_on,0,0,3,,,,,,,,,2,,,43,75
432276,note_on,6,0,1,,,,,,,,,0,,,70,0
432276,note_on,0,0,2,,,,,,,,,1,,,61,0
432276,note_on,6,0,2,,,,,,,,,1,,,63,0
432330,note_on,0,0,2,,,,,,,,,1,,,63,101
432330,note_on,54,0,2,,,,,,,,,1,,,61,93
432330,note_on,54,0,1,,,,,,,,,0,,,70,114
432336,note_on,0,0,2,,,,,,,,,1,,,61,0
432336,note_on,6,0,1,,,,,,,,,0,,,70,0
432336,note_on,6,0,2,,,,,,,,,1,,,63,0
432390,note_on,54,0,1,,,,,,,,,0,,,70,88
432390,note_on,0,0,3,,,,,,,,,2,,,43,0
432390,note_on,0,0,3,,,,,,,,,2,,,39,75
432390,note_on,0,0,3,,,,,,,,,2,,,51,75
432390,note_on,120,0,3,,,,,,,,,2,,,55,0
432390,note_on,0,0,2,,,,,,,,,1,,,63,75
432390,note_on,54,0,2,,,,,,,,,1,,,61,75
432450,note_on,60,0,1,,,,,,,,,0,,,70,0
432450,note_on,0,0,1,,,,,,,,,0,,,72,88
432510,note_on,120,0,3,,,,,,,,,2,,,51,0
432510,note_on,0,0,2,,,,,,,,,1,,,60,75
432510,note_on,0,0,2,,,,,,,,,1,,,61,0
432510,note_on,0,0,1,,,,,,,,,0,,,68,88
432510,note_on,0,0,1,,,,,,,,,0,,,63,88
432510,note_on,60,0,1,,,,,,,,,0,,,72,0
432510,time_signature,2520,1,0,2,4,24,8,,,,,,,,,
432510,note_on,120,0,2,,,,,,,,,1,,,63,0
432510,note_on,0,0,3,,,,,,,,,2,,,56,75
432510,note_on,0,0,3,,,,,,,,,2,,,44,75
432510,note_on,0,0,3,,,,,,,,,2,,,39,0
432630,note_on,0,0,3,,,,,,,,,2,,,44,75
432630,note_on,0,0,3,,,,,,,,,2,,,44,0
432630,note_on,120,0,3,,,,,,,,,2,,,56,0
432750,note_on,240,0,2,,,,,,,,,1,,,60,0
432750,note_on,0,0,1,,,,,,,,,0,,,63,88
432750,note_on,0,0,1,,,,,,,,,0,,,68,88
432750,note_on,0,0,3,,,,,,,,,2,,,44,93
432750,note_on,120,0,3,,,,,,,,,2,,,44,0
432750,note_on,240,0,1,,,,,,,,,0,,,68,0
432750,note_on,0,0,1,,,,,,,,,0,,,63,0
432750,note_on,0,0,1,,,,,,,,,0,,,60,88
432750,time_signature,240,1,0,1,4,24,8,,,,,,,,,
432750,note_on,0,0,3,,,,,,,,,2,,,56,101
432762,note_on,0,0,3,,,,,,,,,2,,,44,0
432762,note_on,12,0,3,,,,,,,,,2,,,56,0
432870,note_on,0,0,1,,,,,,,,,0,,,60,0
432870,note_on,120,0,1,,,,,,,,,0,,,68,0
432870,note_on,0,0,1,,,,,,,,,0,,,63,0
432870,note_on,0,0,1,,,,,,,,,0,,,67,88
432870,note_on,0,0,2,,,,,,,,,1,,,63,75
432870,note_on,120,0,2,,,,,,,,,1,,,61,75
432870,note_on,108,0,3,,,,,,,,,2,,,46,93
432870,note_on,0,0,3,,,,,,,,,2,,,58,101
432870,time_signature,120,1,0,3,4,24,8,,,,,,,,,
432882,note_on,12,0,3,,,,,,,,,2,,,58,0
432882,note_on,0,0,3,,,,,,,,,2,,,46,0
432930,note_on,60,0,1,,,,,,,,,0,,,67,0
432930,note_on,0,0,1,,,,,,,,,0,,,65,88
432990,note_on,0,0,2,,,,,,,,,1,,,61,101
432990,note_on,120,0,2,,,,,,,,,1,,,63,0
432990,note_on,0,0,3,,,,,,,,,2,,,55,101
432990,note_on,108,0,3,,,,,,,,,2,,,43,93
432990,note_on,0,0,1,,,,,,,,,0,,,63,114
432990,note_on,60,0,1,,,,,,,,,0,,,65,0
432990,note_on,0,0,2,,,,,,,,,1,,,61,0
433002,note_on,12,0,3,,,,,,,,,2,,,55,0
433002,note_on,0,0,3,,,,,,,,,2,,,43,0
433110,note_on,108,0,3,,,,,,,,,2,,,39,93
433110,note_on,0,0,3,,,,,,,,,2,,,51,101
433122,note_on,12,0,3,,,,,,,,,2,,,51,0
433122,note_on,0,0,3,,,,,,,,,2,,,39,0
433170,note_on,180,0,1,,,,,,,,,0,,,63,0
433170,note_on,0,0,1,,,,,,,,,0,,,65,88
433230,note_on,108,0,3,,,,,,,,,2,,,44,93
433230,note_on,0,0,3,,,,,,,,,2,,,56,101
433230,note_on,0,0,2,,,,,,,,,1,,,60,75
433230,note_on,240,0,2,,,,,,,,,1,,,61,0
433230,note_on,60,0,1,,,,,,,,,0,,,65,0
433230,note_on,0,0,1,,,,,,,,,0,,,63,88
433242,note_on,12,0,3,,,,,,,,,2,,,56,0
433242,note_on,0,0,3,,,,,,,,,2,,,44,0
433290,note_on,60,0,1,,,,,,,,,0,,,63,0
433290,note_on,0,0,1,,,,,,,,,0,,,65,88
433350,note_on,0,0,2,,,,,,,,,1,,,60,101
433350,note_on,0,0,1,,,,,,,,,0,,,63,114
433350,note_on,120,0,2,,,,,,,,,1,,,60,0
433350,note_on,60,0,1,,,,,,,,,0,,,65,0
433350,note_on,108,0,3,,,,,,,,,2,,,39,93
433350,note_on,0,0,3,,,,,,,,,2,,,51,101
433362,note_on,12,0,3,,,,,,,,,2,,,51,0
433362,note_on,0,0,3,,,,,,,,,2,,,39,0
433470,note_on,108,0,3,,,,,,,,,2,,,36,93
433470,note_on,0,0,3,,,,,,,,,2,,,48,101
433482,note_on,12,0,3,,,,,,,,,2,,,48,0
433482,note_on,0,0,3,,,,,,,,,2,,,36,0
433530,note_on,180,0,1,,,,,,,,,0,,,63,0
433530,note_on,0,0,1,,,,,,,,,0,,,68,88
433590,note_on,108,0,3,,,,,,,,,2,,,39,93
433590,note_on,0,0,3,,,,,,,,,2,,,51,101
433590,note_on,0,0,2,,,,,,,,,1,,,63,75
433590,note_on,0,0,2,,,,,,,,,1,,,61,75
433590,note_on,60,0,1,,,,,,,,,0,,,68,0
433590,note_on,240,0,2,,,,,,,,,1,,,60,0
433590,note_on,0,0,1,,,,,,,,,0,,,70,88
433602,note_on,0,0,3,,,,,,,,,2,,,39,0
433602,note_on,12,0,3,,,,,,,,,2,,,51,0
433650,note_on,60,0,1,,,,,,,,,0,,,70,0
433650,note_on,0,0,1,,,,,,,,,0,,,72,88
433710,note_on,108,0,3,,,,,,,,,2,,,43,93
433710,note_on,0,0,1,,,,,,,,,0,,,73,114
433710,note_on,120,0,2,,,,,,,,,1,,,63,0
433710,note_on,0,0,2,,,,,,,,,1,,,61,0
433710,note_on,0,0,2,,,,,,,,,1,,,61,93
433710,note_on,0,0,2,,,,,,,,,1,,,63,101
433710,note_on,0,0,3,,,,,,,,,2,,,55,101
433710,note_on,60,0,1,,,,,,,,,0,,,72,0
433716,note_on,6,0,2,,,,,,,,,1,,,63,0
433716,note_on,6,0,1,,,,,,,,,0,,,73,0
433716,note_on,0,0,2,,,,,,,,,1,,,61,0
433722,note_on,12,0,3,,,,,,,,,2,,,55,0
433722,note_on,0,0,3,,,,,,,,,2,,,43,0
433770,note_on,54,0,1,,,,,,,,,0,,,73,114
433770,note_on,54,0,2,,,,,,,,,1,,,61,93
433770,note_on,0,0,2,,,,,,,,,1,,,63,101
433776,note_on,6,0,2,,,,,,,,,1,,,63,0
433776,note_on,0,0,2,,,,,,,,,1,,,61,0
433776,note_on,6,0,1,,,,,,,,,0,,,73,0
433830,note_on,108,0,3,,,,,,,,,2,,,39,93
433830,note_on,0,0,3,,,,,,,,,2,,,51,101
433830,note_on,0,0,2,,,,,,,,,1,,,63,101
433830,note_on,54,0,1,,,,,,,,,0,,,73,114
433830,note_on,54,0,2,,,,,,,,,1,,,61,93
433836,note_on,0,0,2,,,,,,,,,1,,,61,0
433836,note_on,6,0,2,,,,,,,,,1,,,63,0
433836,note_on,6,0,1,,,,,,,,,0,,,73,0
433842,note_on,12,0,3,,,,,,,,,2,,,51,0
433842,note_on,0,0,3,,,,,,,,,2,,,39,0
433890,note_on,0,0,2,,,,,,,,,1,,,63,101
433890,note_on,54,0,2,,,,,,,,,1,,,61,93
433890,note_on,54,0,1,,,,,,,,,0,,,73,114
433896,note_on,6,0,2,,,,,,,,,1,,,63,0
433896,note_on,6,0,1,,,,,,,,,0,,,73,0
433896,note_on,0,0,2,,,,,,,,,1,,,61,0
433950,note_on,0,0,3,,,,,,,,,2,,,56,75
433950,note_on,54,0,1,,,,,,,,,0,,,61,88
433950,note_on,0,0,1,,,,,,,,,0,,,73,88
433950,note_on,108,0,3,,,,,,,,,2,,,44,75
433950,note_on,54,0,2,,,,,,,,,1,,,63,75
434070,note_on,0,0,1,,,,,,,,,0,,,60,88
434070,note_on,120,0,1,,,,,,,,,0,,,73,0
434070,note_on,0,0,1,,,,,,,,,0,,,61,0
434070,note_on,0,0,1,,,,,,,,,0,,,72,88
434070,note_on,120,0,3,,,,,,,,,2,,,56,0
434070,note_on,0,0,3,,,,,,,,,2,,,44,0
434070,note_on,0,0,3,,,,,,,,,2,,,44,75
434190,note_on,120,0,1,,,,,,,,,0,,,72,0
434190,note_on,0,0,2,,,,,,,,,1,,,63,75
434190,note_on,0,0,2,,,,,,,,,1,,,60,75
434190,note_on,240,0,2,,,,,,,,,1,,,63,0
434190,note_on,0,0,3,,,,,,,,,2,,,56,75
434190,note_on,0,0,3,,,,,,,,,2,,,44,75
434190,note_on,120,0,3,,,,,,,,,2,,,44,0
434190,note_on,0,0,1,,,,,,,,,0,,,70,88
434190,note_on,0,0,1,,,,,,,,,0,,,60,0
434250,note_on,0,0,1,,,,,,,,,0,,,68,88
434250,note_on,60,0,1,,,,,,,,,0,,,70,0
434310,note_on,60,0,1,,,,,,,,,0,,,68,0
434310,note_on,0,0,2,,,,,,,,,1,,,63,75
434310,note_on,120,0,3,,,,,,,,,2,,,56,0
434310,note_on,0,0,3,,,,,,,,,2,,,44,0
434310,note_on,0,0,3,,,,,,,,,2,,,46,93
434310,note_on,0,0,3,,,,,,,,,2,,,58,101
434310,note_on,0,0,2,,,,,,,,,1,,,61,75
434310,note_on,0,0,2,,,,,,,,,1,,,60,0
434310,note_on,0,0,1,,,,,,,,,0,,,67,88
434310,note_on,120,0,2,,,,,,,,,1,,,63,0
434322,note_on,0,0,3,,,,,,,,,2,,,46,0
434322,note_on,12,0,3,,,,,,,,,2,,,58,0
434370,note_on,60,0,1,,,,,,,,,0,,,67,0
434370,note_on,0,0,1,,,,,,,,,0,,,65,88
434430,note_on,0,0,1,,,,,,,,,0,,,63,114
434430,note_on,60,0,1,,,,,,,,,0,,,65,0
434430,note_on,120,0,2,,,,,,,,,1,,,63,0
434430,note_on,0,0,2,,,,,,,,,1,,,61,0
434430,note_on,0,0,2,,,,,,,,,1,,,61,101
434430,note_on,0,0,3,,,,,,,,,2,,,55,101
434430,note_on,108,0,3,,,,,,,,,2,,,43,93
434442,note_on,12,0,3,,,,,,,,,2,,,55,0
434442,note_on,0,0,3,,,,,,,,,2,,,43,0
434550,note_on,0,0,3,,,,,,,,,2,,,51,101
434550,note_on,108,0,3,,,,,,,,,2,,,39,93
434562,note_on,0,0,3,,,,,,,,,2,,,39,0
434562,note_on,12,0,3,,,,,,,,,2,,,51,0
434610,note_on,180,0,1,,,,,,,,,0,,,63,0
434610,note_on,0,0,1,,,,,,,,,0,,,65,88
434670,note_on,60,0,1,,,,,,,,,0,,,65,0
434670,note_on,0,0,1,,,,,,,,,0,,,63,88
434670,note_on,0,0,3,,,,,,,,,2,,,56,101
434670,note_on,108,0,3,,,,,,,,,2,,,44,93
434670,note_on,240,0,2,,,,,,,,,1,,,61,0
434670,note_on,0,0,2,,,,,,,,,1,,,60,75
434682,note_on,12,0,3,,,,,,,,,2,,,56,0
434682,note_on,0,0,3,,,,,,,,,2,,,44,0
434730,note_on,0,0,1,,,,,,,,,0,,,65,88
434730,note_on,60,0,1,,,,,,,,,0,,,63,0
434790,note_on,0,0,3,,,,,,,,,2,,,51,101
434790,note_on,120,0,2,,,,,,,,,1,,,60,0
434790,note_on,0,0,2,,,,,,,,,1,,,60,101
434790,note_on,0,0,1,,,,,,,,,0,,,63,114
434790,note_on,60,0,1,,,,,,,,,0,,,65,0
434790,note_on,108,0,3,,,,,,,,,2,,,39,93
434802,note_on,12,0,3,,,,,,,,,2,,,51,0
434802,note_on,0,0,3,,,,,,,,,2,,,39,0
434910,note_on,108,0,3,,,,,,,,,2,,,36,93
434910,note_on,0,0,3,,,,,,,,,2,,,48,101
434922,note_on,12,0,3,,,,,,,,,2,,,48,0
434922,note_on,0,0,3,,,,,,,,,2,,,36,0
434970,note_on,180,0,1,,,,,,,,,0,,,63,0
434970,note_on,0,0,1,,,,,,,,,0,,,68,88
435030,note_on,0,0,3,,,,,,,,,2,,,51,75
435030,note_on,240,0,2,,,,,,,,,1,,,60,0
435030,note_on,60,0,1,,,,,,,,,0,,,68,0
435030,note_on,0,0,2,,,,,,,,,1,,,61,93
435030,note_on,0,0,2,,,,,,,,,1,,,63,101
435030,note_on,0,0,1,,,,,,,,,0,,,70,114
435030,note_on,108,0,3,,,,,,,,,2,,,39,75
435036,note_on,6,0,1,,,,,,,,,0,,,70,0
435036,note_on,0,0,2,,,,,,,,,1,,,61,0
435036,note_on,6,0,2,,,,,,,,,1,,,63,0
435090,note_on,0,0,2,,,,,,,,,1,,,63,101
435090,note_on,54,0,1,,,,,,,,,0,,,70,114
435090,note_on,54,0,2,,,,,,,,,1,,,61,93
435096,note_on,6,0,1,,,,,,,,,0,,,70,0
435096,note_on,6,0,2,,,,,,,,,1,,,63,0
435096,note_on,0,0,2,,,,,,,,,1,,,61,0
435150,note_on,0,0,3,,,,,,,,,2,,,39,0
435150,note_on,0,0,3,,,,,,,,,2,,,55,75
435150,note_on,54,0,2,,,,,,,,,1,,,61,93
435150,note_on,0,0,2,,,,,,,,,1,,,63,101
435150,note_on,120,0,3,,,,,,,,,2,,,51,0
435150,note_on,54,0,1,,,,,,,,,0,,,70,114
435150,note_on,0,0,3,,,,,,,,,2,,,43,75
435156,note_on,6,0,2,,,,,,,,,1,,,63,0
435156,note_on,0,0,2,,,,,,,,,1,,,61,0
435156,note_on,6,0,1,,,,,,,,,0,,,70,0
435210,note_on,54,0,1,,,,,,,,,0,,,70,114
435210,note_on,54,0,2,,,,,,,,,1,,,61,93
435210,note_on,0,0,2,,,,,,,,,1,,,63,101
435216,note_on,6,0,1,,,,,,,,,0,,,70,0
435216,note_on,6,0,2,,,,,,,,,1,,,63,0
435216,note_on,0,0,2,,,,,,,,,1,,,61,0
435270,note_on,54,0,1,,,,,,,,,0,,,70,88
435270,note_on,0,0,3,,,,,,,,,2,,,39,75
435270,note_on,0,0,3,,,,,,,,,2,,,43,0
435270,note_on,54,0,2,,,,,,,,,1,,,61,75
435270,note_on,0,0,2,,,,,,,,,1,,,63,75
435270,note_on,120,0,3,,,,,,,,,2,,,55,0
435270,note_on,0,0,3,,,,,,,,,2,,,51,75
435330,note_on,0,0,1,,,,,,,,,0,,,72,88
435330,note_on,60,0,1,,,,,,,,,0,,,70,0
435390,note_on,0,0,1,,,,,,,,,0,,,68,88
435390,note_on,60,0,1,,,,,,,,,0,,,72,0
435390,note_on,0,0,1,,,,,,,,,0,,,63,88
435390,note_on,120,0,3,,,,,,,,,2,,,51,0
435390,note_on,0,0,3,,,,,,,,,2,,,39,0
435390,note_on,0,0,3,,,,,,,,,2,,,56,75
435390,note_on,120,0,2,,,,,,,,,1,,,63,0
435390,note_on,0,0,2,,,,,,,,,1,,,61,0
435390,note_on,0,0,2,,,,,,,,,1,,,60,75
435390,time_signature,2520,1,0,2,4,24,8,,,,,,,,,
435390,note_on,0,0,3,,,,,,,,,2,,,44,75
435510,note_on,120,0,3,,,,,,,,,2,,,56,0
435510,note_on,0,0,3,,,,,,,,,2,,,44,0
435510,note_on,0,0,3,,,,,,,,,2,,,44,75
435630,note_on,120,0,3,,,,,,,,,2,,,44,0
435630,time_signature,240,1,0,1,4,24,8,,,,,,,,,
435630,note_on,240,0,1,,,,,,,,,0,,,68,0
435630,note_on,0,0,1,,,,,,,,,0,,,75,101
435630,note_on,240,0,2,,,,,,,,,1,,,60,0
435630,note_on,0,0,1,,,,,,,,,0,,,63,0
435630,note_on,0,0,1,,,,,,,,,0,,,72,101
435750,time_signature,120,1,0,3,4,24,8,,,,,,,,,
435750,note_on,120,0,1,,,,,,,,,0,,,75,0
435750,note_on,0,0,1,,,,,,,,,0,,,72,0
435750,note_on,0,0,1,,,,,,,,,0,,,73,101
435750,note_on,0,0,1,,,,,,,,,0,,,77,101
435750,note_on,120,0,3,,,,,,,,,2,,,49,88
435750,note_on,0,0,3,,,,,,,,,2,,,56,88
435810,note_on,60,0,1,,,,,,,,,0,,,77,0
435810,note_on,0,0,1,,,,,,,,,0,,,73,0
435810,note_on,0,0,1,,,,,,,,,0,,,65,101
435840,note_on,30,0,1,,,,,,,,,0,,,65,0
435870,note_on,0,0,3,,,,,,,,,2,,,49,0
435870,note_on,0,0,3,,,,,,,,,2,,,53,88
435870,note_on,0,0,3,,,,,,,,,2,,,56,88
435870,note_on,120,0,3,,,,,,,,,2,,,56,0
435870,note_on,0,0,1,,,,,,,,,0,,,65,127
435870,note_on,30,0,1,,,,,,,,,0,,,61,119
435876,note_on,0,0,1,,,,,,,,,0,,,61,0
435876,note_on,6,0,1,,,,,,,,,0,,,65,0
435930,note_on,0,0,1,,,,,,,,,0,,,65,127
435930,note_on,54,0,1,,,,,,,,,0,,,61,119
435936,note_on,6,0,1,,,,,,,,,0,,,65,0
435936,note_on,0,0,1,,,,,,,,,0,,,61,0
435990,note_on,120,0,3,,,,,,,,,2,,,56,0
435990,note_on,0,0,3,,,,,,,,,2,,,53,0
435990,note_on,0,0,3,,,,,,,,,2,,,49,88
435990,note_on,0,0,3,,,,,,,,,2,,,56,88
435990,note_on,0,0,1,,,,,,,,,0,,,65,127
435990,note_on,54,0,1,,,,,,,,,0,,,61,119
435996,note_on,0,0,1,,,,,,,,,0,,,61,0
435996,note_on,6,0,1,,,,,,,,,0,,,65,0
436050,note_on,54,0,1,,,,,,,,,0,,,61,119
436050,note_on,0,0,1,,,,,,,,,0,,,65,127
436056,note_on,6,0,1,,,,,,,,,0,,,65,0
436056,note_on,0,0,1,,,,,,,,,0,,,61,0
436110,note_on,0,0,3,,,,,,,,,2,,,56,88
436110,note_on,120,0,3,,,,,,,,,2,,,56,0
436110,note_on,0,0,3,,,,,,,,,2,,,44,88
436110,note_on,0,0,1,,,,,,,,,0,,,65,101
436110,note_on,54,0,1,,,,,,,,,0,,,61,101
436110,note_on,0,0,3,,,,,,,,,2,,,49,0
436230,note_on,0,0,1,,,,,,,,,0,,,60,101
436230,note_on,0,0,1,,,,,,,,,0,,,61,0
436230,note_on,120,0,1,,,,,,,,,0,,,65,0
436230,note_on,0,0,3,,,,,,,,,2,,,56,88
436230,note_on,0,0,3,,,,,,,,,2,,,44,0
436230,note_on,120,0,3,,,,,,,,,2,,,56,0
436230,note_on,0,0,1,,,,,,,,,0,,,63,101
436230,note_on,0,0,3,,,,,,,,,2,,,48,88
436350,note_on,0,0,3,,,,,,,,,2,,,48,0
436350,note_on,0,0,3,,,,,,,,,2,,,44,88
436350,note_on,0,0,3,,,,,,,,,2,,,56,88
436350,note_on,120,0,3,,,,,,,,,2,,,56,0
436410,note_on,180,0,1,,,,,,,,,0,,,63,0
436410,note_on,0,0,1,,,,,,,,,0,,,60,0
436410,note_on,0,0,1,,,,,,,,,0,,,61,101
436410,note_on,0,0,1,,,,,,,,,0,,,65,101
436470,note_on,840,0,2,,,,,,,,,1,,,60,36
436470,note_on,60,0,1,,,,,,,,,0,,,65,0
436470,note_on,0,0,1,,,,,,,,,0,,,61,0
436470,note_on,0,0,1,,,,,,,,,0,,,63,49
436470,note_on,0,0,3,,,,,,,,,2,,,44,0
436470,note_on,0,0,3,,,,,,,,,2,,,43,36
436470,note_on,0,0,3,,,,,,,,,2,,,51,36
436470,note_on,120,0,3,,,,,,,,,2,,,56,0
436530,note_on,0,0,1,,,,,,,,,0,,,61,49
436530,note_on,60,0,1,,,,,,,,,0,,,63,0
436530,note_on,60,0,2,,,,,,,,,1,,,60,0
436530,note_on,0,0,2,,,,,,,,,1,,,58,36
436590,note_on,0,0,1,,,,,,,,,0,,,61,49
436590,note_on,60,0,1,,,,,,,,,0,,,61,0
436590,note_on,0,0,3,,,,,,,,,2,,,39,36
436590,note_on,0,0,3,,,,,,,,,2,,,43,0
436590,note_on,120,0,3,,,,,,,,,2,,,51,0
436590,note_on,0,0,2,,,,,,,,,1,,,58,36
436590,note_on,60,0,2,,,,,,,,,1,,,58,0
436590,note_on,0,0,3,,,,,,,,,2,,,51,36
436650,note_on,60,0,1,,,,,,,,,0,,,61,0
436650,note_on,0,0,1,,,,,,,,,0,,,65,49
436710,note_on,120,0,2,,,,,,,,,1,,,58,0
436710,note_on,0,0,2,,,,,,,,,1,,,60,36
436710,note_on,120,0,3,,,,,,,,,2,,,51,0
436710,note_on,0,0,3,,,,,,,,,2,,,43,36
436710,note_on,0,0,3,,,,,,,,,2,,,39,0
436710,note_on,60,0,1,,,,,,,,,0,,,65,0
436710,note_on,0,0,1,,,,,,,,,0,,,63,49
436710,note_on,0,0,3,,,,,,,,,2,,,51,36
436770,note_on,0,0,1,,,,,,,,,0,,,61,49
436770,note_on,60,0,2,,,,,,,,,1,,,60,0
436770,note_on,0,0,2,,,,,,,,,1,,,58,36
436770,note_on,60,0,1,,,,,,,,,0,,,63,0
436830,note_on,60,0,2,,,,,,,,,1,,,58,0
436830,note_on,0,0,2,,,,,,,,,1,,,56,36
436830,note_on,120,0,3,,,,,,,,,2,,,51,0
436830,note_on,60,0,1,,,,,,,,,0,,,61,0
436830,note_on,0,0,1,,,,,,,,,0,,,60,49
436830,note_on,0,0,3,,,,,,,,,2,,,51,36
436830,note_on,0,0,3,,,,,,,,,2,,,44,36
436830,note_on,0,0,3,,,,,,,,,2,,,43,0
436890,note_on,60,0,1,,,,,,,,,0,,,60,0
436890,note_on,0,0,1,,,,,,,,,0,,,63,49
436950,note_on,0,0,2,,,,,,,,,1,,,58,36
436950,note_on,120,0,2,,,,,,,,,1,,,56,0
436950,note_on,0,0,3,,,,,,,,,2,,,51,36
436950,note_on,0,0,3,,,,,,,,,2,,,39,36
436950,note_on,120,0,3,,,,,,,,,2,,,51,0
436950,note_on,0,0,3,,,,,,,,,2,,,44,0
436950,note_on,60,0,1,,,,,,,,,0,,,63,0
436950,note_on,0,0,1,,,,,,,,,0,,,61,49
437010,note_on,0,0,1,,,,,,,,,0,,,65,49
437010,note_on,60,0,1,,,,,,,,,0,,,61,0
437070,note_on,0,0,3,,,,,,,,,2,,,51,36
437070,note_on,0,0,3,,,,,,,,,2,,,44,36
437070,note_on,0,0,3,,,,,,,,,2,,,39,0
437070,note_on,0,0,2,,,,,,,,,1,,,60,36
437070,note_on,120,0,2,,,,,,,,,1,,,58,0
437070,note_on,60,0,1,,,,,,,,,0,,,65,0
437070,note_on,0,0,1,,,,,,,,,0,,,63,49
437070,note_on,120,0,3,,,,,,,,,2,,,51,0
437190,note_on,0,0,1,,,,,,,,,0,,,73,88
437190,note_on,120,0,3,,,,,,,,,2,,,51,0
437190,note_on,0,0,3,,,,,,,,,2,,,44,0
437190,note_on,0,0,3,,,,,,,,,2,,,49,75
437190,note_on,0,0,3,,,,,,,,,2,,,56,75
437190,note_on,0,0,1,,,,,,,,,0,,,77,88
437190,note_on,120,0,2,,,,,,,,,1,,,60,0
437190,note_on,120,0,1,,,,,,,,,0,,,63,0
437250,note_on,60,0,1,,,,,,,,,0,,,77,0
437250,note_on,0,0,1,,,,,,,,,0,,,73,0
437250,note_on,0,0,1,,,,,,,,,0,,,65,88
437280,note_on,30,0,1,,,,,,,,,0,,,65,0
437310,note_on,120,0,3,,,,,,,,,2,,,56,0
437310,note_on,0,0,1,,,,,,,,,0,,,65,114
437310,note_on,30,0,1,,,,,,,,,0,,,61,106
437310,note_on,0,0,3,,,,,,,,,2,,,49,0
437310,note_on,0,0,3,,,,,,,,,2,,,56,75
437310,note_on,0,0,3,,,,,,,,,2,,,53,75
437316,note_on,0,0,1,,,,,,,,,0,,,61,0
437316,note_on,6,0,1,,,,,,,,,0,,,65,0
437370,note_on,54,0,1,,,,,,,,,0,,,61,106
437370,note_on,0,0,1,,,,,,,,,0,,,65,114
437376,note_on,6,0,1,,,,,,,,,0,,,65,0
437376,note_on,0,0,1,,,,,,,,,0,,,61,0
437430,note_on,0,0,3,,,,,,,,,2,,,53,0
437430,note_on,0,0,3,,,,,,,,,2,,,49,75
437430,note_on,0,0,3,,,,,,,,,2,,,56,75
437430,note_on,54,0,1,,,,,,,,,0,,,61,106
437430,note_on,0,0,1,,,,,,,,,0,,,65,114
437430,note_on,120,0,3,,,,,,,,,2,,,56,0
437436,note_on,0,0,1,,,,,,,,,0,,,61,0
437436,note_on,6,0,1,,,,,,,,,0,,,65,0
437490,note_on,0,0,1,,,,,,,,,0,,,65,114
437490,note_on,54,0,1,,,,,,,,,0,,,61,106
437496,note_on,0,0,1,,,,,,,,,0,,,61,0
437496,note_on,6,0,1,,,,,,,,,0,,,65,0
437550,note_on,0,0,1,,,,,,,,,0,,,65,88
437550,note_on,0,0,3,,,,,,,,,2,,,44,75
437550,note_on,0,0,3,,,,,,,,,2,,,56,75
437550,note_on,0,0,3,,,,,,,,,2,,,49,0
437550,note_on,120,0,3,,,,,,,,,2,,,56,0
437550,note_on,54,0,1,,,,,,,,,0,,,61,88
437670,note_on,0,0,3,,,,,,,,,2,,,44,0
437670,note_on,0,0,3,,,,,,,,,2,,,48,75
437670,note_on,120,0,3,,,,,,,,,2,,,56,0
437670,note_on,0,0,3,,,,,,,,,2,,,56,75
437670,note_on,120,0,1,,,,,,,,,0,,,65,0
437670,note_on,0,0,1,,,,,,,,,0,,,61,0
437670,note_on,0,0,1,,,,,,,,,0,,,63,88
437670,note_on,0,0,1,,,,,,,,,0,,,60,88
437790,note_on,0,0,3,,,,,,,,,2,,,44,75
437790,note_on,0,0,3,,,,,,,,,2,,,56,75
437790,note_on,120,0,3,,,,,,,,,2,,,56,0
437790,note_on,0,0,3,,,,,,,,,2,,,48,0
437850,note_on,0,0,1,,,,,,,,,0,,,60,0
437850,note_on,0,0,1,,,,,,,,,0,,,73,75
437850,note_on,180,0,1,,,,,,,,,0,,,63,0
437850,note_on,0,0,1,,,,,,,,,0,,,77,75
437910,note_on,120,0,3,,,,,,,,,2,,,56,0
437910,note_on,0,0,3,,,,,,,,,2,,,44,0
437910,note_on,0,0,3,,,,,,,,,2,,,43,62
437910,note_on,0,0,3,,,,,,,,,2,,,51,62
437910,note_on,0,0,1,,,,,,,,,0,,,73,0
437910,note_on,60,0,1,,,,,,,,,0,,,77,0
437910,note_on,0,0,1,,,,,,,,,0,,,75,75
437910,note_on,0,0,1,,,,,,,,,0,,,72,75
437970,note_on,0,0,1,,,,,,,,,0,,,73,75
437970,note_on,0,0,1,,,,,,,,,0,,,70,75
437970,note_on,0,0,1,,,,,,,,,0,,,72,0
437970,note_on,60,0,1,,,,,,,,,0,,,75,0
438030,note_on,0,0,3,,,,,,,,,2,,,39,62
438030,note_on,0,0,3,,,,,,,,,2,,,43,0
438030,note_on,120,0,3,,,,,,,,,2,,,51,0
438030,note_on,60,0,1,,,,,,,,,0,,,73,0
438030,note_on,0,0,1,,,,,,,,,0,,,70,0
438030,note_on,0,0,3,,,,,,,,,2,,,51,62
438030,note_on,0,0,1,,,,,,,,,0,,,73,75
438030,note_on,0,0,1,,,,,,,,,0,,,70,75
438090,note_on,60,0,1,,,,,,,,,0,,,73,0
438090,note_on,0,0,1,,,,,,,,,0,,,70,0
438090,note_on,0,0,1,,,,,,,,,0,,,77,75
438150,note_on,0,0,1,,,,,,,,,0,,,72,75
438150,note_on,0,0,3,,,,,,,,,2,,,51,62
438150,note_on,0,0,1,,,,,,,,,0,,,75,75
438150,note_on,120,0,3,,,,,,,,,2,,,51,0
438150,note_on,60,0,1,,,,,,,,,0,,,77,0
438150,note_on,0,0,3,,,,,,,,,2,,,39,0
438210,note_on,60,0,1,,,,,,,,,0,,,75,0
438210,note_on,0,0,1,,,,,,,,,0,,,72,0
438210,note_on,0,0,1,,,,,,,,,0,,,73,75
438210,note_on,0,0,1,,,,,,,,,0,,,79,75
438270,note_on,60,0,1,,,,,,,,,0,,,79,0
438270,note_on,0,0,1,,,,,,,,,0,,,73,0
438270,note_on,0,0,1,,,,,,,,,0,,,72,75
438270,note_on,0,0,1,,,,,,,,,0,,,80,75
438270,time_signature,2520,1,0,2,4,24,8,,,,,,,,,
438270,note_on,120,0,3,,,,,,,,,2,,,51,0
438270,note_on,0,0,3,,,,,,,,,2,,,44,62
438270,note_on,0,0,3,,,,,,,,,2,,,51,62
438510,note_on,0,0,1,,,,,,,,,0,,,75,101
438510,time_signature,240,1,0,1,4,24,8,,,,,,,,,
438510,note_on,240,0,3,,,,,,,,,2,,,51,0
438510,note_on,0,0,3,,,,,,,,,2,,,44,0
438510,note_on,0,0,1,,,,,,,,,0,,,72,101
438510,note_on,0,0,1,,,,,,,,,0,,,72,0
438510,note_on,240,0,1,,,,,,,,,0,,,80,0
438630,note_on,0,0,1,,,,,,,,,0,,,73,101
438630,note_on,120,0,3,,,,,,,,,2,,,49,88
438630,note_on,0,0,1,,,,,,,,,0,,,77,101
438630,note_on,0,0,3,,,,,,,,,2,,,56,88
438630,note_on,120,0,1,,,,,,,,,0,,,75,0
438630,time_signature,120,1,0,3,4,24,8,,,,,,,,,
438630,note_on,0,0,1,,,,,,,,,0,,,72,0
438690,note_on,0,0,1,,,,,,,,,0,,,65,101
438690,note_on,0,0,1,,,,,,,,,0,,,73,0
438690,note_on,60,0,1,,,,,,,,,0,,,77,0
438720,note_on,30,0,1,,,,,,,,,0,,,65,0
438750,note_on,0,0,1,,,,,,,,,0,,,65,127
438750,note_on,30,0,1,,,,,,,,,0,,,61,119
438750,note_on,0,0,3,,,,,,,,,2,,,53,88
438750,note_on,0,0,3,,,,,,,,,2,,,49,0
438750,note_on,120,0,3,,,,,,,,,2,,,56,0
438750,note_on,0,0,3,,,,,,,,,2,,,56,88
438756,note_on,6,0,1,,,,,,,,,0,,,65,0
438756,note_on,0,0,1,,,,,,,,,0,,,61,0
438810,note_on,0,0,1,,,,,,,,,0,,,65,127
438810,note_on,54,0,1,,,,,,,,,0,,,61,119
438816,note_on,0,0,1,,,,,,,,,0,,,61,0
438816,note_on,6,0,1,,,,,,,,,0,,,65,0
438870,note_on,0,0,3,,,,,,,,,2,,,53,0
438870,note_on,0,0,1,,,,,,,,,0,,,65,127
438870,note_on,54,0,1,,,,,,,,,0,,,61,119
438870,note_on,0,0,3,,,,,,,,,2,,,49,88
438870,note_on,120,0,3,,,,,,,,,2,,,56,0
438870,note_on,0,0,3,,,,,,,,,2,,,56,88
438876,note_on,0,0,1,,,,,,,,,0,,,61,0
438876,note_on,6,0,1,,,,,,,,,0,,,65,0
438930,note_on,0,0,1,,,,,,,,,0,,,65,127
438930,note_on,54,0,1,,,,,,,,,0,,,61,119
438936,note_on,0,0,1,,,,,,,,,0,,,61,0
438936,note_on,6,0,1,,,,,,,,,0,,,65,0
438990,note_on,54,0,1,,,,,,,,,0,,,61,101
438990,note_on,0,0,1,,,,,,,,,0,,,65,101
438990,note_on,120,0,3,,,,,,,,,2,,,56,0
438990,note_on,0,0,3,,,,,,,,,2,,,49,0
438990,note_on,0,0,3,,,,,,,,,2,,,44,88
438990,note_on,0,0,3,,,,,,,,,2,,,56,88
439110,note_on,0,0,1,,,,,,,,,0,,,60,101
439110,note_on,120,0,3,,,,,,,,,2,,,56,0
439110,note_on,0,0,3,,,,,,,,,2,,,44,0
439110,note_on,0,0,1,,,,,,,,,0,,,61,0
439110,note_on,0,0,3,,,,,,,,,2,,,56,88
439110,note_on,120,0,1,,,,,,,,,0,,,65,0
439110,note_on,0,0,3,,,,,,,,,2,,,48,88
439110,note_on,0,0,1,,,,,,,,,0,,,63,101
439230,note_on,0,0,3,,,,,,,,,2,,,44,88
439230,note_on,120,0,3,,,,,,,,,2,,,56,0
439230,note_on,0,0,3,,,,,,,,,2,,,56,88
439230,note_on,0,0,3,,,,,,,,,2,,,48,0
439290,note_on,0,0,1,,,,,,,,,0,,,65,101
439290,note_on,0,0,1,,,,,,,,,0,,,61,101
439290,note_on,0,0,1,,,,,,,,,0,,,60,0
439290,note_on,180,0,1,,,,,,,,,0,,,63,0
439350,note_on,0,0,3,,,,,,,,,2,,,44,0
439350,note_on,0,0,3,,,,,,,,,2,,,43,36
439350,note_on,0,0,3,,,,,,,,,2,,,51,36
439350,note_on,0,0,1,,,,,,,,,0,,,61,0
439350,note_on,60,0,1,,,,,,,,,0,,,65,0
439350,note_on,120,0,3,,,,,,,,,2,,,56,0
439350,note_on,0,0,1,,,,,,,,,0,,,63,49
439350,note_on,2160,0,2,,,,,,,,,1,,,60,36
439410,note_on,60,0,1,,,,,,,,,0,,,63,0
439410,note_on,0,0,1,,,,,,,,,0,,,61,49
439410,note_on,0,0,2,,,,,,,,,1,,,58,36
439410,note_on,60,0,2,,,,,,,,,1,,,60,0
439470,note_on,0,0,1,,,,,,,,,0,,,61,49
439470,note_on,60,0,2,,,,,,,,,1,,,58,0
439470,note_on,60,0,1,,,,,,,,,0,,,61,0
439470,note_on,0,0,2,,,,,,,,,1,,,58,36
439470,note_on,120,0,3,,,,,,,,,2,,,51,0
439470,note_on,0,0,3,,,,,,,,,2,,,51,36
439470,note_on,0,0,3,,,,,,,,,2,,,39,36
439470,note_on,0,0,3,,,,,,,,,2,,,43,0
439530,note_on,0,0,1,,,,,,,,,0,,,65,49
439530,note_on,60,0,1,,,,,,,,,0,,,61,0
439590,note_on,0,0,3,,,,,,,,,2,,,51,36
439590,note_on,0,0,3,,,,,,,,,2,,,43,36
439590,note_on,0,0,3,,,,,,,,,2,,,39,0
439590,note_on,120,0,3,,,,,,,,,2,,,51,0
439590,note_on,60,0,1,,,,,,,,,0,,,65,0
439590,note_on,0,0,1,,,,,,,,,0,,,63,49
439590,note_on,0,0,2,,,,,,,,,1,,,60,36
439590,note_on,120,0,2,,,,,,,,,1,,,58,0
439650,note_on,0,0,1,,,,,,,,,0,,,61,49
439650,note_on,60,0,1,,,,,,,,,0,,,63,0
439650,note_on,0,0,2,,,,,,,,,1,,,58,36
439650,note_on,60,0,2,,,,,,,,,1,,,60,0
439710,note_on,60,0,1,,,,,,,,,0,,,61,0
439710,note_on,120,0,3,,,,,,,,,2,,,51,0
439710,note_on,0,0,2,,,,,,,,,1,,,56,36
439710,note_on,60,0,2,,,,,,,,,1,,,58,0
439710,note_on,0,0,3,,,,,,,,,2,,,44,36
439710,note_on,0,0,3,,,,,,,,,2,,,51,36
439710,note_on,0,0,3,,,,,,,,,2,,,43,0
439710,note_on,0,0,1,,,,,,,,,0,,,60,49
439770,note_on,0,0,1,,,,,,,,,0,,,63,49
439770,note_on,60,0,1,,,,,,,,,0,,,60,0
439830,note_on,120,0,3,,,,,,,,,2,,,51,0
439830,note_on,0,0,3,,,,,,,,,2,,,44,0
439830,note_on,0,0,1,,,,,,,,,0,,,61,49
439830,note_on,0,0,3,,,,,,,,,2,,,39,36
439830,note_on,60,0,1,,,,,,,,,0,,,63,0
439830,note_on,0,0,2,,,,,,,,,1,,,58,36
439830,note_on,0,0,3,,,,,,,,,2,,,51,36
439830,note_on,120,0,2,,,,,,,,,1,,,56,0
439890,note_on,0,0,1,,,,,,,,,0,,,65,49
439890,note_on,60,0,1,,,,,,,,,0,,,61,0
439950,note_on,0,0,2,,,,,,,,,1,,,60,36
439950,note_on,60,0,1,,,,,,,,,0,,,65,0
439950,note_on,0,0,1,,,,,,,,,0,,,63,49
439950,note_on,120,0,3,,,,,,,,,2,,,51,0
439950,note_on,0,0,3,,,,,,,,,2,,,39,0
439950,note_on,0,0,3,,,,,,,,,2,,,44,36
439950,note_on,120,0,2,,,,,,,,,1,,,58,0
439950,note_on,0,0,3,,,,,,,,,2,,,51,36
440070,note_on,120,0,3,,,,,,,,,2,,,51,0
440070,note_on,0,0,3,,,,,,,,,2,,,44,0
440070,note_on,0,0,3,,,,,,,,,2,,,49,75
440070,note_on,0,0,1,,,,,,,,,0,,,77,88
440070,note_on,0,0,1,,,,,,,,,0,,,73,88
440070,note_on,120,0,1,,,,,,,,,0,,,63,0
440070,note_on,0,0,3,,,,,,,,,2,,,56,75
440070,note_on,120,0,2,,,,,,,,,1,,,60,0
440130,note_on,0,0,1,,,,,,,,,0,,,65,88
440130,note_on,0,0,1,,,,,,,,,0,,,73,0
440130,note_on,60,0,1,,,,,,,,,0,,,77,0
440160,note_on,30,0,1,,,,,,,,,0,,,65,0
440190,note_on,0,0,1,,,,,,,,,0,,,65,114
440190,note_on,0,0,3,,,,,,,,,2,,,56,75
440190,note_on,30,0,1,,,,,,,,,0,,,61,106
440190,note_on,0,0,3,,,,,,,,,2,,,53,75
440190,note_on,0,0,3,,,,,,,,,2,,,49,0
440190,note_on,120,0,3,,,,,,,,,2,,,56,0
440196,note_on,6,0,1,,,,,,,,,0,,,65,0
440196,note_on,0,0,1,,,,,,,,,0,,,61,0
440250,note_on,54,0,1,,,,,,,,,0,,,61,106
440250,note_on,0,0,1,,,,,,,,,0,,,65,114
440256,note_on,6,0,1,,,,,,,,,0,,,65,0
440256,note_on,0,0,1,,,,,,,,,0,,,61,0
440310,note_on,0,0,3,,,,,,,,,2,,,56,75
440310,note_on,120,0,3,,,,,,,,,2,,,56,0
440310,note_on,0,0,3,,,,,,,,,2,,,49,75
440310,note_on,0,0,1,,,,,,,,,0,,,65,114
440310,note_on,54,0,1,,,,,,,,,0,,,61,106
440310,note_on,0,0,3,,,,,,,,,2,,,53,0
440316,note_on,0,0,1,,,,,,,,,0,,,61,0
440316,note_on,6,0,1,,,,,,,,,0,,,65,0
440370,note_on,54,0,1,,,,,,,,,0,,,61,106
440370,note_on,0,0,1,,,,,,,,,0,,,65,114
440376,note_on,6,0,1,,,,,,,,,0,,,65,0
440376,note_on,0,0,1,,,,,,,,,0,,,61,0
440430,note_on,54,0,1,,,,,,,,,0,,,61,88
440430,note_on,0,0,1,,,,,,,,,0,,,65,88
440430,note_on,0,0,3,,,,,,,,,2,,,56,75
440430,note_on,0,0,3,,,,,,,,,2,,,44,75
440430,note_on,0,0,3,,,,,,,,,2,,,49,0
440430,note_on,120,0,3,,,,,,,,,2,,,56,0
440550,note_on,120,0,1,,,,,,,,,0,,,65,0
440550,note_on,0,0,1,,,,,,,,,0,,,60,88
440550,note_on,0,0,1,,,,,,,,,0,,,63,88
440550,note_on,0,0,1,,,,,,,,,0,,,61,0
440550,note_on,0,0,3,,,,,,,,,2,,,44,0
440550,note_on,0,0,3,,,,,,,,,2,,,48,75
440550,note_on,0,0,3,,,,,,,,,2,,,56,75
440550,note_on,120,0,3,,,,,,,,,2,,,56,0
440670,note_on,0,0,3,,,,,,,,,2,,,44,75
440670,note_on,0,0,3,,,,,,,,,2,,,56,75
440670,note_on,120,0,3,,,,,,,,,2,,,56,0
440670,note_on,0,0,3,,,,,,,,,2,,,48,0
440730,note_on,0,0,1,,,,,,,,,0,,,77,75
440730,note_on,0,0,1,,,,,,,,,0,,,73,75
440730,note_on,0,0,1,,,,,,,,,0,,,60,0
440730,note_on,180,0,1,,,,,,,,,0,,,63,0
440790,note_on,0,0,1,,,,,,,,,0,,,75,75
440790,note_on,0,0,1,,,,,,,,,0,,,73,0
440790,note_on,60,0,1,,,,,,,,,0,,,77,0
440790,note_on,0,0,3,,,,,,,,,2,,,51,62
440790,note_on,0,0,3,,,,,,,,,2,,,43,62
440790,note_on,0,0,3,,,,,,,,,2,,,44,0
440790,note_on,120,0,3,,,,,,,,,2,,,56,0
440790,note_on,0,0,1,,,,,,,,,0,,,72,75
440850,note_on,0,0,1,,,,,,,,,0,,,70,75
440850,note_on,0,0,1,,,,,,,,,0,,,72,0
440850,note_on,0,0,1,,,,,,,,,0,,,73,75
440850,set_tempo,2220,1,0,,,,,,382166,,,,,,,
440850,note_on,60,0,1,,,,,,,,,0,,,75,0
440910,note_on,0,0,1,,,,,,,,,0,,,70,0
440910,note_on,0,0,1,,,,,,,,,0,,,70,75
440910,note_on,0,0,1,,,,,,,,,0,,,73,75
440910,note_on,60,0,1,,,,,,,,,0,,,73,0
440910,note_on,120,0,3,,,,,,,,,2,,,51,0
440910,note_on,0,0,3,,,,,,,,,2,,,43,0
440910,note_on,0,0,3,,,,,,,,,2,,,39,62
440910,note_on,0,0,3,,,,,,,,,2,,,51,62
440910,set_tempo,60,1,0,,,,,,402685,,,,,,,
440970,set_tempo,60,1,0,,,,,,425532,,,,,,,
440970,note_on,60,0,1,,,,,,,,,0,,,73,0
440970,note_on,0,0,1,,,,,,,,,0,,,70,0
440970,note_on,0,0,1,,,,,,,,,0,,,77,75
441030,note_on,120,0,3,,,,,,,,,2,,,51,0
441030,note_on,0,0,1,,,,,,,,,0,,,75,75
441030,note_on,0,0,3,,,,,,,,,2,,,39,0
441030,note_on,60,0,1,,,,,,,,,0,,,77,0
441030,set_tempo,60,1,0,,,,,,451128,,,,,,,
441030,note_on,0,0,1,,,,,,,,,0,,,72,75
441030,note_on,0,0,3,,,,,,,,,2,,,51,62
441090,set_tempo,60,1,0,,,,,,480000,,,,,,,
441090,note_on,0,0,1,,,,,,,,,0,,,73,75
441090,note_on,60,0,1,,,,,,,,,0,,,75,0
441090,note_on,0,0,1,,,,,,,,,0,,,79,75
441090,note_on,0,0,1,,,,,,,,,0,,,72,0
441150,note_on,0,0,3,,,,,,,,,2,,,51,62
441150,note_on,0,0,3,,,,,,,,,2,,,44,62
441150,note_on,120,0,3,,,,,,,,,2,,,51,0
441150,note_on,60,0,1,,,,,,,,,0,,,79,0
441150,note_on,0,0,1,,,,,,,,,0,,,80,75
441150,note_on,0,0,1,,,,,,,,,0,,,72,75
441150,note_on,0,0,1,,,,,,,,,0,,,73,0
441150,set_tempo,60,1,0,,,,,,512821,,,,,,,
441210,set_tempo,60,1,0,,,,,,550459,,,,,,,
441270,end_of_track,0,1,0,,,,,,,,,,,,,
441270,set_tempo,60,1,0,,,,,,594059,,,,,,,
441390,note_on,0,0,1,,,,,,,,,0,,,72,0
441390,note_on,240,0,1,,,,,,,,,0,,,80,0
441390,note_on,240,0,3,,,,,,,,,2,,,51,0
441390,note_on,0,0,3,,,,,,,,,2,,,44,0
441870,control_change,1800,0,2,,,,,,,,,1,64,0,,
441870,control_change,480,0,3,,,,,,,,,2,64,0,,
441870,end_of_track,0,1,2,,,,,,,,,,,,,
441870,control_change,480,0,1,,,,,,,,,0,64,0,,
441870,end_of_track,0,1,1,,,,,,,,,,,,,
441870,control_change,58680,0,4,,,,,,,,,3,64,0,,
441870,end_of_track,0,1,3,,,,,,,,,,,,,
441870,end_of_track,0,1,4,,,,,,,,,,,,,
