tick,type,time,meta,track,program,channel,pitch,tempo,note,velocity
0,copyright,0,1,0,,,,,,
0,program_change,0,0,0,6,0,,,,
0,pitchwheel,0,0,0,,0,0,,,
0,program_change,0,0,0,6,1,,,,
0,pitchwheel,0,0,0,,1,-590,,,
0,program_change,0,0,0,6,2,,,,
0,pitchwheel,0,0,0,,2,-272,,,
0,program_change,0,0,0,6,3,,,,
0,pitchwheel,0,0,0,,3,-353,,,
0,program_change,0,0,0,6,4,,,,
0,pitchwheel,0,0,0,,4,-560,,,
0,program_change,0,0,0,6,5,,,,
0,pitchwheel,0,0,0,,5,-80,,,
0,program_change,0,0,0,6,6,,,,
0,pitchwheel,0,0,0,,6,-625,,,
0,program_change,0,0,0,6,7,,,,
0,pitchwheel,0,0,0,,7,-130,,,
0,program_change,0,0,0,6,8,,,,
0,pitchwheel,0,0,0,,8,-512,,,
0,program_change,0,0,0,6,10,,,,
0,pitchwheel,0,0,0,,10,-464,,,
0,program_change,0,0,0,6,11,,,,
0,pitchwheel,0,0,0,,11,-208,,,
0,program_change,0,0,0,6,12,,,,
0,pitchwheel,0,0,0,,12,-553,,,
0,set_tempo,0,1,0,,,,500000,,
110,note_on,110,0,0,,2,,,74,127
219,note_off,109,0,0,,2,,,74,127
220,note_on,1,0,0,,4,,,76,127
329,note_off,109,0,0,,4,,,76,127
330,note_on,1,0,0,,5,,,77,127
439,note_off,109,0,0,,5,,,77,127
440,note_on,1,0,0,,7,,,79,127
549,note_off,109,0,0,,7,,,79,127
550,note_on,1,0,0,,10,,,81,127
660,note_on,110,0,0,,10,,,69,127
767,note_off,107,0,0,,10,,,81,127
768,note_off,1,0,0,,10,,,69,127
769,note_on,1,0,0,,1,,,73,127
879,note_on,110,0,0,,10,,,69,127
895,note_off,16,0,0,,1,,,73,127
988,note_off,93,0,0,,10,,,69,127
989,note_on,1,0,0,,2,,,62,127
989,note_on,0,0,0,,2,,,74,127
1098,note_off,109,0,0,,2,,,62,127
1099,note_on,1,0,0,,4,,,64,127
1208,note_off,109,0,0,,4,,,64,127
1209,note_on,1,0,0,,5,,,65,127
1318,note_off,109,0,0,,5,,,65,127
1319,note_on,1,0,0,,7,,,67,127
1428,note_off,109,0,0,,7,,,67,127
1429,note_on,1,0,0,,10,,,69,127
1539,note_on,110,0,0,,10,,,57,127
1555,note_off,16,0,0,,10,,,69,127
1648,note_off,93,0,0,,10,,,57,127
1648,note_off,0,0,0,,2,,,74,127
1649,note_on,1,0,0,,1,,,61,127
1649,note_on,0,0,0,,4,,,76,127
1759,note_on,110,0,0,,10,,,57,127
1775,note_off,16,0,0,,1,,,61,127
1868,note_off,93,0,0,,10,,,57,127
1868,note_off,0,0,0,,4,,,76,127
1869,note_on,1,0,0,,2,,,62,127
1869,note_on,0,0,0,,5,,,77,127
1978,note_off,109,0,0,,5,,,77,127
1979,note_on,1,0,0,,2,,,74,127
2088,note_off,109,0,0,,2,,,74,127
2088,note_off,0,0,0,,2,,,62,127
2089,note_on,1,0,0,,4,,,64,127
2089,note_on,0,0,0,,7,,,79,127
2198,note_off,109,0,0,,7,,,79,127
2199,note_on,1,0,0,,4,,,76,127
2308,note_off,109,0,0,,4,,,76,127
2308,note_off,0,0,0,,4,,,64,127
2309,note_on,1,0,0,,5,,,65,127
2309,note_on,0,0,0,,10,,,81,127
2418,note_off,109,0,0,,10,,,81,127
2419,note_on,1,0,0,,5,,,77,127
2528,note_off,109,0,0,,5,,,77,127
2528,note_off,0,0,0,,5,,,65,127
2529,note_on,1,0,0,,7,,,67,127
2529,note_on,0,0,0,,4,,,76,127
2638,note_off,109,0,0,,4,,,76,127
2639,note_on,1,0,0,,2,,,74,127
2748,note_off,109,0,0,,2,,,74,127
2748,note_off,0,0,0,,7,,,67,127
2749,note_on,1,0,0,,10,,,69,127
2749,note_on,0,0,0,,1,,,73,127
2967,note_off,218,0,0,,1,,,73,127
2967,note_off,0,0,0,,10,,,69,127
2968,note_on,1,0,0,,10,,,69,127
2968,note_on,0,0,0,,10,,,81,127
3186,note_off,218,0,0,,10,,,81,127
3186,note_off,0,0,0,,10,,,69,127
3187,note_on,1,0,0,,10,,,69,127
3187,note_on,0,0,0,,11,,,82,127
3241,note_off,54,0,0,,11,,,82,127
3242,note_on,1,0,0,,10,,,81,127
3296,note_off,54,0,0,,10,,,81,127
3297,note_on,1,0,0,,11,,,82,127
3351,note_off,54,0,0,,11,,,82,127
3352,note_on,1,0,0,,10,,,81,127
3406,note_off,54,0,0,,10,,,81,127
3406,note_off,0,0,0,,10,,,69,127
3407,note_on,1,0,0,,10,,,69,127
3407,note_on,0,0,0,,11,,,82,127
3461,note_off,54,0,0,,11,,,82,127
3462,note_on,1,0,0,,10,,,81,127
3516,note_off,54,0,0,,10,,,81,127
3517,note_on,1,0,0,,11,,,82,127
3571,note_off,54,0,0,,11,,,82,127
3572,note_on,1,0,0,,10,,,81,127
3626,note_off,54,0,0,,10,,,69,127
3627,note_on,1,0,0,,5,,,65,127
3627,note_on,0,0,0,,10,,,69,127
3736,note_off,109,0,0,,10,,,81,127
3737,note_on,1,0,0,,7,,,79,127
3846,note_off,109,0,0,,7,,,79,127
3846,note_off,0,0,0,,10,,,69,127
3846,note_off,0,0,0,,5,,,65,127
3847,note_on,1,0,0,,5,,,65,127
3847,note_on,0,0,0,,10,,,69,127
3847,note_on,0,0,0,,5,,,77,127
3956,note_off,109,0,0,,5,,,77,127
3957,note_on,1,0,0,,4,,,76,127
4066,note_off,109,0,0,,4,,,76,127
4066,note_off,0,0,0,,10,,,69,127
4066,note_off,0,0,0,,5,,,65,127
4067,note_on,1,0,0,,5,,,65,127
4067,note_on,0,0,0,,10,,,69,127
4067,note_on,0,0,0,,2,,,74,127
4176,note_off,109,0,0,,2,,,74,127
4177,note_on,1,0,0,,0,,,72,127
4286,note_off,109,0,0,,0,,,72,127
4286,note_off,0,0,0,,10,,,69,127
4286,note_off,0,0,0,,5,,,65,127
4287,note_on,1,0,0,,5,,,65,127
4287,note_on,0,0,0,,11,,,70,127
4396,note_off,109,0,0,,11,,,70,127
4397,note_on,1,0,0,,10,,,69,127
4506,note_off,109,0,0,,10,,,69,127
4506,note_off,0,0,0,,5,,,65,127
4507,note_on,1,0,0,,7,,,55,127
4507,note_on,0,0,0,,11,,,70,127
4725,note_off,218,0,0,,11,,,70,127
4725,note_off,0,0,0,,7,,,55,127
4726,note_on,1,0,0,,7,,,67,127
4726,note_on,0,0,0,,11,,,70,127
4726,note_on,0,0,0,,7,,,79,127
4944,note_off,218,0,0,,7,,,79,127
4944,note_off,0,0,0,,11,,,70,127
4944,note_off,0,0,0,,7,,,67,127
4945,note_on,1,0,0,,11,,,70,127
4945,note_on,0,0,0,,7,,,67,127
4945,note_on,0,0,0,,10,,,81,127
4999,note_off,54,0,0,,10,,,81,127
5000,note_on,1,0,0,,7,,,79,127
5054,note_off,54,0,0,,7,,,79,127
5055,note_on,1,0,0,,10,,,81,127
5109,note_off,54,0,0,,10,,,81,127
5110,note_on,1,0,0,,7,,,79,127
5164,note_off,54,0,0,,7,,,79,127
5164,note_off,0,0,0,,7,,,67,127
5164,note_off,0,0,0,,11,,,70,127
5165,note_on,1,0,0,,7,,,67,127
5165,note_on,0,0,0,,11,,,70,127
5165,note_on,0,0,0,,10,,,81,127
5219,note_off,54,0,0,,10,,,81,127
5220,note_on,1,0,0,,7,,,79,127
5274,note_off,54,0,0,,7,,,79,127
5275,note_on,1,0,0,,10,,,81,127
5329,note_off,54,0,0,,10,,,81,127
5330,note_on,1,0,0,,7,,,79,127
5384,note_off,54,0,0,,11,,,70,127
5384,note_off,0,0,0,,7,,,67,127
5385,note_on,1,0,0,,7,,,67,127
5385,note_on,0,0,0,,4,,,64,127
5494,note_off,109,0,0,,7,,,79,127
5495,note_on,1,0,0,,5,,,77,127
5604,note_off,109,0,0,,5,,,77,127
5604,note_off,0,0,0,,4,,,64,127
5604,note_off,0,0,0,,7,,,67,127
5605,note_on,1,0,0,,7,,,67,127
5605,note_on,0,0,0,,4,,,64,127
5605,note_on,0,0,0,,4,,,76,127
5714,note_off,109,0,0,,4,,,76,127
5715,note_on,1,0,0,,2,,,74,127
5824,note_off,109,0,0,,2,,,74,127
5824,note_off,0,0,0,,4,,,64,127
5824,note_off,0,0,0,,7,,,67,127
5825,note_on,1,0,0,,7,,,67,127
5825,note_on,0,0,0,,4,,,64,127
5825,note_on,0,0,0,,0,,,72,127
5934,note_off,109,0,0,,0,,,72,127
5935,note_on,1,0,0,,11,,,70,127
6044,note_off,109,0,0,,11,,,70,127
6044,note_off,0,0,0,,4,,,64,127
6044,note_off,0,0,0,,7,,,67,127
6045,note_on,1,0,0,,4,,,64,127
6045,note_on,0,0,0,,10,,,69,127
6154,note_off,109,0,0,,10,,,69,127
6155,note_on,1,0,0,,7,,,67,127
6264,note_off,109,0,0,,7,,,67,127
6264,note_off,0,0,0,,4,,,64,127
6265,note_on,1,0,0,,5,,,53,127
6265,note_on,0,0,0,,10,,,69,127
6483,note_off,218,0,0,,10,,,69,127
6483,note_off,0,0,0,,5,,,53,127
6484,note_on,1,0,0,,5,,,65,127
6484,note_on,0,0,0,,10,,,69,127
6484,note_on,0,0,0,,5,,,77,127
6702,note_off,218,0,0,,5,,,77,127
6702,note_off,0,0,0,,10,,,69,127
6702,note_off,0,0,0,,5,,,65,127
6703,note_on,1,0,0,,10,,,69,127
6703,note_on,0,0,0,,5,,,65,127
6703,note_on,0,0,0,,7,,,79,127
6757,note_off,54,0,0,,7,,,79,127
6758,note_on,1,0,0,,5,,,77,127
6812,note_off,54,0,0,,5,,,77,127
6813,note_on,1,0,0,,7,,,79,127
6867,note_off,54,0,0,,7,,,79,127
6868,note_on,1,0,0,,5,,,77,127
6922,note_off,54,0,0,,5,,,77,127
6922,note_off,0,0,0,,5,,,65,127
6922,note_off,0,0,0,,10,,,69,127
6923,note_on,1,0,0,,5,,,65,127
6923,note_on,0,0,0,,10,,,69,127
6923,note_on,0,0,0,,7,,,79,127
6977,note_off,54,0,0,,7,,,79,127
6978,note_on,1,0,0,,5,,,77,127
7032,note_off,54,0,0,,5,,,77,127
7033,note_on,1,0,0,,7,,,79,127
7087,note_off,54,0,0,,7,,,79,127
7088,note_on,1,0,0,,5,,,77,127
7142,note_off,54,0,0,,10,,,69,127
7142,note_off,0,0,0,,5,,,65,127
7143,note_on,1,0,0,,5,,,65,127
7143,note_on,0,0,0,,2,,,62,127
7252,note_off,109,0,0,,5,,,77,127
7253,note_on,1,0,0,,4,,,76,127
7362,note_off,109,0,0,,4,,,76,127
7362,note_off,0,0,0,,2,,,62,127
7362,note_off,0,0,0,,5,,,65,127
7363,note_on,1,0,0,,2,,,62,127
7363,note_on,0,0,0,,5,,,65,127
7363,note_on,0,0,0,,2,,,74,127
7472,note_off,109,0,0,,2,,,74,127
7473,note_on,1,0,0,,0,,,72,127
7582,note_off,109,0,0,,0,,,72,127
7582,note_off,0,0,0,,5,,,65,127
7582,note_off,0,0,0,,2,,,62,127
7583,note_on,1,0,0,,5,,,65,127
7583,note_on,0,0,0,,2,,,62,127
7583,note_on,0,0,0,,11,,,70,127
7692,note_off,109,0,0,,11,,,70,127
7693,note_on,1,0,0,,10,,,69,127
7802,note_off,109,0,0,,10,,,69,127
7802,note_off,0,0,0,,2,,,62,127
7802,note_off,0,0,0,,5,,,65,127
7803,note_on,1,0,0,,2,,,62,127
7803,note_on,0,0,0,,7,,,67,127
7912,note_off,109,0,0,,7,,,67,127
7913,note_on,1,0,0,,5,,,65,127
8022,note_off,109,0,0,,5,,,65,127
8022,note_off,0,0,0,,2,,,62,127
8023,note_on,1,0,0,,4,,,52,127
8023,note_on,0,0,0,,7,,,67,127
8241,note_off,218,0,0,,7,,,67,127
8241,note_off,0,0,0,,4,,,52,127
8242,note_on,1,0,0,,4,,,64,127
8242,note_on,0,0,0,,7,,,67,127
8242,note_on,0,0,0,,4,,,76,127
8460,note_off,218,0,0,,4,,,76,127
8460,note_off,0,0,0,,7,,,67,127
8460,note_off,0,0,0,,4,,,64,127
8461,note_on,1,0,0,,7,,,67,127
8461,note_on,0,0,0,,4,,,64,127
8461,note_on,0,0,0,,5,,,77,127
8515,note_off,54,0,0,,5,,,77,127
8516,note_on,1,0,0,,4,,,76,127
8570,note_off,54,0,0,,4,,,76,127
8571,note_on,1,0,0,,5,,,77,127
8625,note_off,54,0,0,,5,,,77,127
8626,note_on,1,0,0,,4,,,76,127
8680,note_off,54,0,0,,4,,,76,127
8680,note_off,0,0,0,,4,,,64,127
8680,note_off,0,0,0,,7,,,67,127
8681,note_on,1,0,0,,7,,,67,127
8681,note_on,0,0,0,,4,,,64,127
8681,note_on,0,0,0,,5,,,77,127
8735,note_off,54,0,0,,5,,,77,127
8736,note_on,1,0,0,,4,,,76,127
8790,note_off,54,0,0,,4,,,76,127
8791,note_on,1,0,0,,5,,,77,127
8845,note_off,54,0,0,,5,,,77,127
8846,note_on,1,0,0,,4,,,76,127
8900,note_off,54,0,0,,4,,,64,127
8900,note_off,0,0,0,,7,,,67,127
8901,note_on,1,0,0,,10,,,57,127
8901,note_on,0,0,0,,4,,,64,127
9010,note_off,109,0,0,,4,,,76,127
9011,note_on,1,0,0,,2,,,74,127
9120,note_off,109,0,0,,2,,,74,127
9120,note_off,0,0,0,,4,,,64,127
9120,note_off,0,0,0,,10,,,57,127
9121,note_on,1,0,0,,4,,,64,127
9121,note_on,0,0,0,,10,,,57,127
9121,note_on,0,0,0,,1,,,73,127
9230,note_off,109,0,0,,1,,,73,127
9231,note_on,1,0,0,,12,,,71,127
9340,note_off,109,0,0,,12,,,71,127
9340,note_off,0,0,0,,10,,,57,127
9340,note_off,0,0,0,,4,,,64,127
9341,note_on,1,0,0,,4,,,64,127
9341,note_on,0,0,0,,10,,,57,127
9341,note_on,0,0,0,,10,,,69,127
9450,note_off,109,0,0,,10,,,69,127
9451,note_on,1,0,0,,7,,,67,127
9560,note_off,109,0,0,,7,,,67,127
9560,note_off,0,0,0,,10,,,57,127
9560,note_off,0,0,0,,4,,,64,127
9561,note_on,1,0,0,,10,,,57,127
9561,note_on,0,0,0,,5,,,65,127
9670,note_off,109,0,0,,5,,,65,127
9671,note_on,1,0,0,,4,,,64,127
9780,note_off,109,0,0,,4,,,64,127
9780,note_off,0,0,0,,10,,,57,127
9781,note_on,1,0,0,,2,,,50,127
9781,note_on,0,0,0,,2,,,62,127
9781,note_on,0,0,0,,5,,,65,127
9888,note_off,107,0,0,,2,,,62,127
9889,note_off,1,0,0,,5,,,65,127
9890,note_on,1,0,0,,2,,,62,127
9999,note_off,109,0,0,,2,,,62,127
9999,note_off,0,0,0,,2,,,50,127
10000,note_on,1,0,0,,4,,,52,127
10000,note_on,0,0,0,,7,,,67,127
10109,note_off,109,0,0,,7,,,67,127
10110,note_on,1,0,0,,4,,,64,127
10219,note_off,109,0,0,,4,,,64,127
10219,note_off,0,0,0,,4,,,52,127
10220,note_on,1,0,0,,5,,,53,127
10220,note_on,0,0,0,,10,,,69,127
10329,note_off,109,0,0,,10,,,69,127
10330,note_on,1,0,0,,5,,,65,127
10439,note_off,109,0,0,,5,,,65,127
10439,note_off,0,0,0,,5,,,53,127
10440,note_on,1,0,0,,7,,,55,127
10440,note_on,0,0,0,,4,,,64,127
10549,note_off,109,0,0,,4,,,64,127
10550,note_on,1,0,0,,2,,,62,127
10659,note_off,109,0,0,,2,,,62,127
10659,note_off,0,0,0,,7,,,55,127
10660,note_on,1,0,0,,10,,,57,127
10660,note_on,0,0,0,,1,,,61,127
10767,note_off,107,0,0,,10,,,57,127
10768,note_off,1,0,0,,1,,,61,127
10769,note_on,1,0,0,,10,,,57,127
10878,note_off,109,0,0,,10,,,57,127
10879,note_on,1,0,0,,12,,,59,127
10879,note_on,0,0,0,,2,,,62,127
10986,note_off,107,0,0,,12,,,59,127
10987,note_off,1,0,0,,2,,,62,127
10988,note_on,1,0,0,,12,,,59,127
11097,note_off,109,0,0,,12,,,59,127
11098,note_on,1,0,0,,1,,,61,127
11098,note_on,0,0,0,,4,,,64,127
11205,note_off,107,0,0,,1,,,61,127
11206,note_off,1,0,0,,4,,,64,127
11207,note_on,1,0,0,,1,,,61,127
11316,note_off,109,0,0,,1,,,61,127
11317,note_on,1,0,0,,2,,,62,127
11317,note_on,0,0,0,,5,,,65,127
11424,note_off,107,0,0,,2,,,62,127
11425,note_off,1,0,0,,5,,,65,127
11426,note_on,1,0,0,,2,,,62,127
11535,note_off,109,0,0,,2,,,62,127
11536,note_on,1,0,0,,4,,,64,127
11536,note_on,0,0,0,,7,,,67,127
11643,note_off,107,0,0,,4,,,64,127
11644,note_off,1,0,0,,7,,,67,127
11645,note_on,1,0,0,,4,,,64,127
11754,note_off,109,0,0,,4,,,64,127
11755,note_on,1,0,0,,5,,,65,127
11755,note_on,0,0,0,,10,,,69,127
11862,note_off,107,0,0,,5,,,65,127
11863,note_off,1,0,0,,10,,,69,127
11864,note_on,1,0,0,,5,,,65,127
11973,note_off,109,0,0,,5,,,65,127
11974,note_on,1,0,0,,7,,,67,127
11974,note_on,0,0,0,,12,,,71,127
12081,note_off,107,0,0,,7,,,67,127
12082,note_off,1,0,0,,12,,,71,127
12083,note_on,1,0,0,,7,,,67,127
12192,note_off,109,0,0,,7,,,67,127
12193,note_on,1,0,0,,10,,,69,127
12193,note_on,0,0,0,,1,,,73,127
12300,note_off,107,0,0,,10,,,69,127
12301,note_off,1,0,0,,1,,,73,127
12302,note_on,1,0,0,,10,,,69,127
12411,note_off,109,0,0,,10,,,69,127
12412,note_on,1,0,0,,12,,,71,127
12412,note_on,0,0,0,,2,,,74,127
12519,note_off,107,0,0,,12,,,71,127
12520,note_off,1,0,0,,2,,,74,127
12521,note_on,1,0,0,,12,,,71,127
12630,note_off,109,0,0,,12,,,71,127
12631,note_on,1,0,0,,1,,,73,127
12631,note_on,0,0,0,,4,,,76,127
12738,note_off,107,0,0,,1,,,73,127
12739,note_off,1,0,0,,4,,,76,127
12740,note_on,1,0,0,,1,,,73,127
12849,note_off,109,0,0,,1,,,73,127
12850,note_on,1,0,0,,2,,,74,127
12850,note_on,0,0,0,,5,,,77,127
12957,note_off,107,0,0,,2,,,74,127
12958,note_off,1,0,0,,5,,,77,127
12959,note_on,1,0,0,,2,,,74,127
13068,note_off,109,0,0,,2,,,74,127
13069,note_on,1,0,0,,4,,,76,127
13069,note_on,0,0,0,,7,,,79,127
13176,note_off,107,0,0,,4,,,76,127
13177,note_off,1,0,0,,7,,,79,127
13178,note_on,1,0,0,,4,,,76,127
13287,note_off,109,0,0,,4,,,76,127
13288,note_on,1,0,0,,5,,,77,127
13288,note_on,0,0,0,,10,,,81,127
13397,note_off,109,0,0,,5,,,77,127
13398,note_on,1,0,0,,2,,,74,127
13507,note_off,109,0,0,,2,,,74,127
13508,note_on,1,0,0,,11,,,70,127
13617,note_off,109,0,0,,11,,,70,127
13618,note_on,1,0,0,,7,,,67,127
13727,note_off,109,0,0,,7,,,67,127
13728,note_on,1,0,0,,4,,,76,127
13781,note_off,53,0,0,,10,,,81,127
13783,note_on,2,0,0,,7,,,79,127
13837,note_off,54,0,0,,7,,,79,127
13837,note_off,0,0,0,,4,,,76,127
13838,note_on,1,0,0,,1,,,73,127
13838,note_on,0,0,0,,10,,,81,127
13892,note_off,54,0,0,,10,,,81,127
13893,note_on,1,0,0,,7,,,79,127
13947,note_off,54,0,0,,7,,,79,127
13947,note_off,0,0,0,,1,,,73,127
13948,note_on,1,0,0,,10,,,69,127
13948,note_on,0,0,0,,10,,,81,127
14002,note_off,54,0,0,,10,,,81,127
14003,note_on,1,0,0,,7,,,79,127
14057,note_off,54,0,0,,7,,,79,127
14057,note_off,0,0,0,,10,,,69,127
14058,note_on,1,0,0,,1,,,73,127
14058,note_on,0,0,0,,5,,,77,127
14112,note_off,54,0,0,,5,,,77,127
14113,note_on,1,0,0,,7,,,79,127
14167,note_off,54,0,0,,7,,,79,127
14167,note_off,0,0,0,,1,,,73,127
14168,note_on,1,0,0,,5,,,77,127
14168,note_on,0,0,0,,10,,,81,127
14277,note_off,109,0,0,,5,,,77,127
14278,note_on,1,0,0,,2,,,74,127
14387,note_off,109,0,0,,2,,,74,127
14388,note_on,1,0,0,,11,,,70,127
14497,note_off,109,0,0,,11,,,70,127
14498,note_on,1,0,0,,7,,,67,127
14607,note_off,109,0,0,,7,,,67,127
14608,note_on,1,0,0,,4,,,76,127
14661,note_off,53,0,0,,10,,,81,127
14663,note_on,2,0,0,,7,,,79,127
14717,note_off,54,0,0,,7,,,79,127
14717,note_off,0,0,0,,4,,,76,127
14718,note_on,1,0,0,,1,,,73,127
14718,note_on,0,0,0,,10,,,81,127
14772,note_off,54,0,0,,10,,,81,127
14773,note_on,1,0,0,,7,,,79,127
14827,note_off,54,0,0,,7,,,79,127
14827,note_off,0,0,0,,1,,,73,127
14828,note_on,1,0,0,,10,,,69,127
14828,note_on,0,0,0,,10,,,81,127
14882,note_off,54,0,0,,10,,,81,127
14883,note_on,1,0,0,,7,,,79,127
14937,note_off,54,0,0,,7,,,79,127
14937,note_off,0,0,0,,10,,,69,127
14938,note_on,1,0,0,,1,,,73,127
14938,note_on,0,0,0,,10,,,81,127
14992,note_off,54,0,0,,10,,,81,127
14993,note_on,1,0,0,,7,,,79,127
15047,note_off,54,0,0,,7,,,79,127
15047,note_off,0,0,0,,1,,,73,127
15048,note_on,1,0,0,,5,,,77,127
15103,note_on,55,0,0,,7,,,79,127
15157,note_off,54,0,0,,7,,,79,127
15157,note_off,0,0,0,,5,,,77,127
15158,note_on,1,0,0,,2,,,74,127
15158,note_on,0,0,0,,10,,,81,127
15267,note_off,109,0,0,,2,,,74,127
15268,note_on,1,0,0,,11,,,70,127
15377,note_off,109,0,0,,11,,,70,127
15378,note_on,1,0,0,,7,,,67,127
15487,note_off,109,0,0,,7,,,67,127
15488,note_on,1,0,0,,4,,,76,127
15541,note_off,53,0,0,,10,,,81,127
15543,note_on,2,0,0,,7,,,79,127
15597,note_off,54,0,0,,7,,,79,127
15597,note_off,0,0,0,,4,,,76,127
15598,note_on,1,0,0,,1,,,73,127
15598,note_on,0,0,0,,10,,,81,127
15652,note_off,54,0,0,,10,,,81,127
15653,note_on,1,0,0,,7,,,79,127
15707,note_off,54,0,0,,7,,,79,127
15707,note_off,0,0,0,,1,,,73,127
15708,note_on,1,0,0,,10,,,69,127
15708,note_on,0,0,0,,10,,,81,127
15762,note_off,54,0,0,,10,,,81,127
15763,note_on,1,0,0,,7,,,79,127
15817,note_off,54,0,0,,7,,,79,127
15817,note_off,0,0,0,,10,,,69,127
15818,note_on,1,0,0,,1,,,73,127
15818,note_on,0,0,0,,5,,,77,127
15872,note_off,54,0,0,,5,,,77,127
15873,note_on,1,0,0,,7,,,79,127
15927,note_off,54,0,0,,7,,,79,127
15927,note_off,0,0,0,,1,,,73,127
15928,note_on,1,0,0,,2,,,62,127
15928,note_on,0,0,0,,2,,,74,127
15928,note_on,0,0,0,,5,,,77,127
16037,note_off,109,0,0,,5,,,77,127
16037,note_off,0,0,0,,2,,,74,127
16038,note_on,1,0,0,,2,,,74,127
16147,note_off,109,0,0,,2,,,74,127
16147,note_off,0,0,0,,2,,,62,127
16148,note_on,1,0,0,,4,,,64,127
16148,note_on,0,0,0,,7,,,79,127
16257,note_off,109,0,0,,7,,,79,127
16258,note_on,1,0,0,,4,,,76,127
16367,note_off,109,0,0,,4,,,76,127
16367,note_off,0,0,0,,4,,,64,127
16368,note_on,1,0,0,,5,,,65,127
16368,note_on,0,0,0,,10,,,81,127
16478,note_on,110,0,0,,5,,,77,127
16505,note_off,27,0,0,,10,,,81,127
16586,note_off,81,0,0,,5,,,77,127
16586,note_off,0,0,0,,5,,,65,127
16587,note_on,1,0,0,,7,,,67,127
16587,note_on,0,0,0,,4,,,76,127
16696,note_off,109,0,0,,4,,,76,127
16697,note_on,1,0,0,,2,,,74,127
16806,note_off,109,0,0,,2,,,74,127
16806,note_off,0,0,0,,7,,,67,127
16807,note_on,1,0,0,,10,,,57,127
16807,note_on,0,0,0,,10,,,69,127
16807,note_on,0,0,0,,1,,,73,127
16914,note_off,107,0,0,,10,,,69,127
16915,note_off,1,0,0,,1,,,73,127
16916,note_on,1,0,0,,10,,,69,127
17025,note_off,109,0,0,,10,,,69,127
17025,note_off,0,0,0,,10,,,57,127
17026,note_on,1,0,0,,12,,,59,127
17026,note_on,0,0,0,,2,,,74,127
17135,note_off,109,0,0,,2,,,74,127
17136,note_on,1,0,0,,12,,,71,127
17245,note_off,109,0,0,,12,,,71,127
17245,note_off,0,0,0,,12,,,59,127
17246,note_on,1,0,0,,1,,,61,127
17246,note_on,0,0,0,,4,,,76,127
17356,note_on,110,0,0,,7,,,67,127
17383,note_off,27,0,0,,4,,,76,127
17464,note_off,81,0,0,,7,,,67,127
17464,note_off,0,0,0,,1,,,61,127
17465,note_on,1,0,0,,10,,,57,127
17465,note_on,0,0,0,,5,,,65,127
17574,note_off,109,0,0,,5,,,65,127
17575,note_on,1,0,0,,4,,,64,127
17684,note_off,109,0,0,,4,,,64,127
17684,note_off,0,0,0,,10,,,57,127
17685,note_on,1,0,0,,2,,,62,127
17685,note_on,0,0,0,,2,,,50,127
17685,note_on,0,0,0,,5,,,65,127
17792,note_off,107,0,0,,2,,,62,127
17793,note_off,1,0,0,,5,,,65,127
17794,note_on,1,0,0,,2,,,62,127
17903,note_off,109,0,0,,2,,,62,127
17903,note_off,0,0,0,,2,,,50,127
17904,note_on,1,0,0,,4,,,52,127
17904,note_on,0,0,0,,7,,,67,127
18013,note_off,109,0,0,,7,,,67,127
18014,note_on,1,0,0,,4,,,64,127
18123,note_off,109,0,0,,4,,,64,127
18123,note_off,0,0,0,,4,,,52,127
18124,note_on,1,0,0,,5,,,53,127
18124,note_on,0,0,0,,10,,,69,127
18234,note_on,110,0,0,,5,,,65,127
18261,note_off,27,0,0,,10,,,69,127
18342,note_off,81,0,0,,5,,,65,127
18342,note_off,0,0,0,,5,,,53,127
18343,note_on,1,0,0,,7,,,55,127
18343,note_on,0,0,0,,4,,,64,127
18452,note_off,109,0,0,,4,,,64,127
18453,note_on,1,0,0,,2,,,62,127
18562,note_off,109,0,0,,2,,,62,127
18562,note_off,0,0,0,,7,,,55,127
18563,note_on,1,0,0,,10,,,57,127
18563,note_on,0,0,0,,1,,,61,127
18670,note_off,107,0,0,,10,,,57,127
18671,note_off,1,0,0,,1,,,61,127
18672,note_on,1,0,0,,10,,,57,127
18781,note_off,109,0,0,,10,,,57,127
18782,note_on,1,0,0,,12,,,59,127
18782,note_on,0,0,0,,2,,,62,127
18889,note_off,107,0,0,,12,,,59,127
18890,note_off,1,0,0,,2,,,62,127
18891,note_on,1,0,0,,12,,,59,127
19000,note_off,109,0,0,,12,,,59,127
19001,note_on,1,0,0,,1,,,61,127
19001,note_on,0,0,0,,4,,,64,127
19108,note_off,107,0,0,,1,,,61,127
19109,note_off,1,0,0,,4,,,64,127
19110,note_on,1,0,0,,1,,,61,127
19219,note_off,109,0,0,,1,,,61,127
19220,note_on,1,0,0,,2,,,62,127
19220,note_on,0,0,0,,5,,,65,127
19327,note_off,107,0,0,,2,,,62,127
19328,note_off,1,0,0,,5,,,65,127
19329,note_on,1,0,0,,2,,,62,127
19438,note_off,109,0,0,,2,,,62,127
19439,note_on,1,0,0,,4,,,52,127
19439,note_on,0,0,0,,7,,,67,127
19546,note_off,107,0,0,,7,,,67,127
19547,note_off,1,0,0,,4,,,52,127
19548,note_on,1,0,0,,4,,,64,127
19548,note_on,0,0,0,,7,,,67,127
19657,note_off,109,0,0,,7,,,67,127
19657,note_off,0,0,0,,4,,,64,127
19658,note_on,1,0,0,,2,,,62,127
19658,note_on,0,0,0,,5,,,65,127
19767,note_off,109,0,0,,5,,,65,127
19767,note_off,0,0,0,,2,,,62,127
19768,note_on,1,0,0,,1,,,61,127
19768,note_on,0,0,0,,4,,,64,127
19877,note_off,109,0,0,,4,,,64,127
19877,note_off,0,0,0,,1,,,61,127
19878,note_on,1,0,0,,2,,,62,127
19878,note_on,0,0,0,,5,,,65,127
20096,note_off,218,0,0,,5,,,65,127
20096,note_off,0,0,0,,2,,,62,127
20097,note_on,1,0,0,,11,,,58,127
20097,note_on,0,0,0,,10,,,69,127
20151,note_off,54,0,0,,10,,,69,127
20152,note_on,1,0,0,,7,,,67,127
20206,note_off,54,0,0,,7,,,67,127
20207,note_on,1,0,0,,5,,,65,127
20261,note_off,54,0,0,,5,,,65,127
20262,note_on,1,0,0,,7,,,67,127
20316,note_off,54,0,0,,7,,,67,127
20316,note_off,0,0,0,,11,,,58,127
20317,note_on,1,0,0,,10,,,45,127
20317,note_on,0,0,0,,10,,,69,127
20426,note_off,109,0,0,,10,,,69,127
20427,note_on,1,0,0,,4,,,64,127
20536,note_off,109,0,0,,4,,,64,127
20537,note_on,1,0,0,,5,,,65,127
20646,note_off,109,0,0,,5,,,65,127
20647,note_on,1,0,0,,2,,,62,127
20756,note_off,109,0,0,,2,,,62,127
20757,note_on,1,0,0,,4,,,64,127
20866,note_off,109,0,0,,4,,,64,127
20867,note_on,1,0,0,,1,,,61,127
20976,note_off,109,0,0,,1,,,61,127
20976,note_off,0,0,0,,10,,,45,127
20977,note_on,1,0,0,,2,,,62,127
20977,note_on,0,0,0,,5,,,65,127
21086,note_off,109,0,0,,2,,,62,127
21087,note_on,1,0,0,,12,,,59,127
21196,note_off,109,0,0,,12,,,59,127
21196,note_off,0,0,0,,5,,,65,127
21197,note_on,1,0,0,,1,,,61,127
21197,note_on,0,0,0,,4,,,64,127
21306,note_off,109,0,0,,1,,,61,127
21307,note_on,1,0,0,,10,,,57,127
21416,note_off,109,0,0,,10,,,57,127
21416,note_off,0,0,0,,4,,,64,127
21417,note_on,1,0,0,,12,,,59,127
21417,note_on,0,0,0,,2,,,62,127
21526,note_off,109,0,0,,12,,,59,127
21527,note_on,1,0,0,,8,,,56,127
21636,note_off,109,0,0,,8,,,56,127
21636,note_off,0,0,0,,2,,,62,127
21637,note_on,1,0,0,,10,,,57,127
21637,note_on,0,0,0,,1,,,61,127
21746,note_off,109,0,0,,10,,,57,127
21747,note_on,1,0,0,,4,,,52,127
21856,note_off,109,0,0,,4,,,52,127
21857,note_on,1,0,0,,1,,,49,127
21966,note_off,109,0,0,,1,,,49,127
21967,note_on,1,0,0,,4,,,52,127
22076,note_off,109,0,0,,4,,,52,127
22076,note_off,0,0,0,,1,,,61,127
22077,note_on,1,0,0,,12,,,47,127
22131,note_off,54,0,0,,12,,,47,127
22132,note_on,1,0,0,,10,,,45,127
22186,note_off,54,0,0,,10,,,45,127
22187,note_on,1,0,0,,12,,,47,127
22241,note_off,54,0,0,,12,,,47,127
22242,note_on,1,0,0,,10,,,45,127
22955,note_on,713,0,0,,10,,,69,127
23064,note_off,109,0,0,,10,,,69,127
23065,note_on,1,0,0,,12,,,71,127
23119,note_off,54,0,0,,10,,,45,127
23174,note_off,55,0,0,,12,,,71,127
23175,note_on,1,0,0,,1,,,73,127
23284,note_off,109,0,0,,1,,,73,127
23285,note_on,1,0,0,,2,,,74,127
23394,note_off,109,0,0,,2,,,74,127
23395,note_on,1,0,0,,4,,,76,127
23504,note_off,109,0,0,,4,,,76,127
23505,note_on,1,0,0,,1,,,73,127
23614,note_off,109,0,0,,1,,,73,127
23615,note_on,1,0,0,,5,,,77,127
23724,note_off,109,0,0,,5,,,77,127
23725,note_on,1,0,0,,2,,,74,127
23834,note_off,109,0,0,,2,,,74,127
23835,note_on,1,0,0,,10,,,57,127
23835,note_on,0,0,0,,4,,,76,127
23944,note_off,109,0,0,,10,,,57,127
23945,note_on,1,0,0,,12,,,59,127
24054,note_off,109,0,0,,12,,,59,127
24055,note_on,1,0,0,,1,,,61,127
24164,note_off,109,0,0,,1,,,61,127
24165,note_on,1,0,0,,2,,,62,127
24274,note_off,109,0,0,,2,,,62,127
24275,note_on,1,0,0,,4,,,64,127
24384,note_off,109,0,0,,4,,,64,127
24385,note_on,1,0,0,,1,,,61,127
24494,note_off,109,0,0,,1,,,61,127
24494,note_off,0,0,0,,4,,,76,127
24495,note_on,1,0,0,,5,,,65,127
24495,note_on,0,0,0,,10,,,69,127
24604,note_off,109,0,0,,5,,,65,127
24605,note_on,1,0,0,,2,,,62,127
24714,note_off,109,0,0,,2,,,62,127
24714,note_off,0,0,0,,10,,,69,127
24715,note_on,1,0,0,,7,,,67,127
24715,note_on,0,0,0,,12,,,71,127
24822,note_off,107,0,0,,7,,,67,127
24823,note_off,1,0,0,,12,,,71,127
24824,note_on,1,0,0,,7,,,67,127
24933,note_off,109,0,0,,7,,,67,127
24934,note_on,1,0,0,,10,,,69,127
24934,note_on,0,0,0,,1,,,73,127
25041,note_off,107,0,0,,10,,,69,127
25042,note_off,1,0,0,,1,,,73,127
25043,note_on,1,0,0,,10,,,69,127
25152,note_off,109,0,0,,10,,,69,127
25153,note_on,1,0,0,,12,,,71,127
25153,note_on,0,0,0,,2,,,74,127
25260,note_off,107,0,0,,12,,,71,127
25261,note_off,1,0,0,,2,,,74,127
25262,note_on,1,0,0,,12,,,71,127
25371,note_off,109,0,0,,12,,,71,127
25372,note_on,1,0,0,,1,,,73,127
25372,note_on,0,0,0,,4,,,76,127
25479,note_off,107,0,0,,1,,,73,127
25480,note_off,1,0,0,,4,,,76,127
25481,note_on,1,0,0,,1,,,73,127
25590,note_off,109,0,0,,1,,,73,127
25591,note_on,1,0,0,,2,,,62,127
25591,note_on,0,0,0,,2,,,74,127
25591,note_on,0,0,0,,6,,,78,127
25698,note_off,107,0,0,,2,,,74,127
25699,note_off,1,0,0,,6,,,78,127
25700,note_on,1,0,0,,2,,,74,127
25809,note_off,109,0,0,,2,,,74,127
25809,note_off,0,0,0,,2,,,62,127
25810,note_on,1,0,0,,4,,,64,127
25810,note_on,0,0,0,,7,,,79,127
25919,note_off,109,0,0,,7,,,79,127
25920,note_on,1,0,0,,4,,,76,127
26029,note_off,109,0,0,,4,,,76,127
26029,note_off,0,0,0,,4,,,64,127
26030,note_on,1,0,0,,6,,,66,127
26030,note_on,0,0,0,,10,,,81,127
26140,note_on,110,0,0,,0,,,72,127
26167,note_off,27,0,0,,10,,,81,127
26248,note_off,81,0,0,,0,,,72,127
26248,note_off,0,0,0,,6,,,66,127
26249,note_on,1,0,0,,2,,,62,127
26249,note_on,0,0,0,,11,,,70,127
26358,note_off,109,0,0,,11,,,70,127
26359,note_on,1,0,0,,10,,,69,127
26468,note_off,109,0,0,,10,,,69,127
26468,note_off,0,0,0,,2,,,62,127
26469,note_on,1,0,0,,7,,,55,127
26469,note_on,0,0,0,,7,,,67,127
26469,note_on,0,0,0,,11,,,70,127
26576,note_off,107,0,0,,7,,,67,127
26577,note_off,1,0,0,,11,,,70,127
26578,note_on,1,0,0,,7,,,67,127
26687,note_off,109,0,0,,7,,,67,127
26687,note_off,0,0,0,,7,,,55,127
26688,note_on,1,0,0,,10,,,57,127
26688,note_on,0,0,0,,0,,,72,127
26797,note_off,109,0,0,,0,,,72,127
26798,note_on,1,0,0,,10,,,69,127
26907,note_off,109,0,0,,10,,,69,127
26907,note_off,0,0,0,,10,,,57,127
26908,note_on,1,0,0,,11,,,58,127
26908,note_on,0,0,0,,2,,,74,127
27018,note_on,110,0,0,,11,,,70,127
27045,note_off,27,0,0,,2,,,74,127
27126,note_off,81,0,0,,11,,,70,127
27126,note_off,0,0,0,,11,,,58,127
27127,note_on,1,0,0,,0,,,60,127
27127,note_on,0,0,0,,10,,,69,127
27236,note_off,109,0,0,,10,,,69,127
27237,note_on,1,0,0,,7,,,67,127
27346,note_off,109,0,0,,7,,,67,127
27346,note_off,0,0,0,,0,,,60,127
27347,note_on,1,0,0,,2,,,50,127
27347,note_on,0,0,0,,2,,,62,127
27347,note_on,0,0,0,,6,,,66,127
27454,note_off,107,0,0,,2,,,62,127
27455,note_off,1,0,0,,6,,,66,127
27456,note_on,1,0,0,,2,,,62,127
27565,note_off,109,0,0,,2,,,62,127
27565,note_off,0,0,0,,2,,,50,127
27566,note_on,1,0,0,,4,,,52,127
27566,note_on,0,0,0,,7,,,67,127
27675,note_off,109,0,0,,7,,,67,127
27676,note_on,1,0,0,,4,,,64,127
27785,note_off,109,0,0,,4,,,64,127
27785,note_off,0,0,0,,4,,,52,127
27786,note_on,1,0,0,,6,,,54,127
27786,note_on,0,0,0,,10,,,69,127
27896,note_on,110,0,0,,0,,,60,127
27923,note_off,27,0,0,,10,,,69,127
28004,note_off,81,0,0,,0,,,60,127
28004,note_off,0,0,0,,6,,,54,127
28005,note_on,1,0,0,,2,,,50,127
28005,note_on,0,0,0,,11,,,58,127
28114,note_off,109,0,0,,11,,,58,127
28115,note_on,1,0,0,,10,,,57,127
28224,note_off,109,0,0,,10,,,57,127
28224,note_off,0,0,0,,2,,,50,127
28225,note_on,1,0,0,,7,,,55,127
28225,note_on,0,0,0,,11,,,58,127
28332,note_off,107,0,0,,7,,,55,127
28333,note_off,1,0,0,,11,,,58,127
28334,note_on,1,0,0,,7,,,55,127
28443,note_off,109,0,0,,7,,,55,127
28444,note_on,1,0,0,,10,,,57,127
28444,note_on,0,0,0,,0,,,60,127
28551,note_off,107,0,0,,10,,,57,127
28552,note_off,1,0,0,,0,,,60,127
28553,note_on,1,0,0,,10,,,57,127
28662,note_off,109,0,0,,10,,,57,127
28663,note_on,1,0,0,,11,,,58,127
28663,note_on,0,0,0,,2,,,62,127
28770,note_off,107,0,0,,11,,,58,127
28771,note_off,1,0,0,,2,,,62,127
28772,note_on,1,0,0,,11,,,58,127
28881,note_off,109,0,0,,11,,,58,127
28882,note_on,1,0,0,,0,,,60,127
28882,note_on,0,0,0,,4,,,64,127
28989,note_off,107,0,0,,0,,,60,127
28990,note_off,1,0,0,,4,,,64,127
28991,note_on,1,0,0,,0,,,60,127
29100,note_off,109,0,0,,0,,,60,127
29101,note_on,1,0,0,,2,,,62,127
29101,note_on,0,0,0,,5,,,65,127
29208,note_off,107,0,0,,2,,,62,127
29209,note_off,1,0,0,,5,,,65,127
29210,note_on,1,0,0,,2,,,62,127
29319,note_off,109,0,0,,2,,,62,127
29320,note_on,1,0,0,,4,,,64,127
29320,note_on,0,0,0,,7,,,67,127
29427,note_off,107,0,0,,4,,,64,127
29428,note_off,1,0,0,,7,,,67,127
29429,note_on,1,0,0,,4,,,64,127
29538,note_off,109,0,0,,4,,,64,127
29539,note_on,1,0,0,,5,,,65,127
29539,note_on,0,0,0,,10,,,69,127
29646,note_off,107,0,0,,5,,,65,127
29647,note_off,1,0,0,,10,,,69,127
29648,note_on,1,0,0,,5,,,65,127
29757,note_off,109,0,0,,5,,,65,127
29758,note_on,1,0,0,,7,,,67,127
29758,note_on,0,0,0,,11,,,70,127
29865,note_off,107,0,0,,7,,,67,127
29866,note_off,1,0,0,,11,,,70,127
29867,note_on,1,0,0,,7,,,67,127
29976,note_off,109,0,0,,7,,,67,127
29977,note_on,1,0,0,,10,,,69,127
29977,note_on,0,0,0,,0,,,72,127
30086,note_off,109,0,0,,10,,,69,127
30087,note_on,1,0,0,,5,,,65,127
30196,note_off,109,0,0,,5,,,65,127
30197,note_on,1,0,0,,2,,,62,127
30306,note_off,109,0,0,,2,,,62,127
30307,note_on,1,0,0,,11,,,58,127
30416,note_off,109,0,0,,11,,,58,127
30417,note_on,1,0,0,,7,,,67,127
30470,note_off,53,0,0,,0,,,72,127
30472,note_on,2,0,0,,11,,,70,127
30526,note_off,54,0,0,,11,,,70,127
30526,note_off,0,0,0,,7,,,67,127
30527,note_on,1,0,0,,4,,,64,127
30527,note_on,0,0,0,,0,,,72,127
30581,note_off,54,0,0,,0,,,72,127
30582,note_on,1,0,0,,11,,,70,127
30636,note_off,54,0,0,,11,,,70,127
30636,note_off,0,0,0,,4,,,64,127
30637,note_on,1,0,0,,0,,,60,127
30637,note_on,0,0,0,,0,,,72,127
30691,note_off,54,0,0,,0,,,72,127
30692,note_on,1,0,0,,11,,,70,127
30746,note_off,54,0,0,,11,,,70,127
30746,note_off,0,0,0,,0,,,60,127
30747,note_on,1,0,0,,4,,,64,127
30747,note_on,0,0,0,,0,,,72,127
30801,note_off,54,0,0,,0,,,72,127
30802,note_on,1,0,0,,11,,,70,127
30856,note_off,54,0,0,,11,,,70,127
30856,note_off,0,0,0,,4,,,64,127
30857,note_on,1,0,0,,10,,,69,127
30912,note_on,55,0,0,,11,,,70,127
30966,note_off,54,0,0,,11,,,70,127
30966,note_off,0,0,0,,10,,,69,127
30967,note_on,1,0,0,,5,,,65,127
30967,note_on,0,0,0,,0,,,72,127
31076,note_off,109,0,0,,5,,,65,127
31077,note_on,1,0,0,,2,,,62,127
31186,note_off,109,0,0,,2,,,62,127
31187,note_on,1,0,0,,11,,,58,127
31296,note_off,109,0,0,,11,,,58,127
31297,note_on,1,0,0,,7,,,67,127
31350,note_off,53,0,0,,0,,,72,127
31352,note_on,2,0,0,,11,,,70,127
31406,note_off,54,0,0,,11,,,70,127
31406,note_off,0,0,0,,7,,,67,127
31407,note_on,1,0,0,,4,,,64,127
31407,note_on,0,0,0,,0,,,72,127
31461,note_off,54,0,0,,0,,,72,127
31462,note_on,1,0,0,,11,,,70,127
31516,note_off,54,0,0,,11,,,70,127
31516,note_off,0,0,0,,4,,,64,127
31517,note_on,1,0,0,,0,,,60,127
31517,note_on,0,0,0,,0,,,72,127
31571,note_off,54,0,0,,0,,,72,127
31572,note_on,1,0,0,,11,,,70,127
31626,note_off,54,0,0,,11,,,70,127
31626,note_off,0,0,0,,0,,,60,127
31627,note_on,1,0,0,,4,,,64,127
31627,note_on,0,0,0,,10,,,69,127
31681,note_off,54,0,0,,10,,,69,127
31682,note_on,1,0,0,,11,,,70,127
31736,note_off,54,0,0,,11,,,70,127
31736,note_off,0,0,0,,4,,,64,127
31737,note_on,1,0,0,,10,,,69,127
31737,note_on,0,0,0,,0,,,72,127
31846,note_off,109,0,0,,10,,,69,127
31847,note_on,1,0,0,,5,,,65,127
31956,note_off,109,0,0,,5,,,65,127
31956,note_off,0,0,0,,0,,,72,127
31957,note_on,1,0,0,,2,,,62,127
31957,note_on,0,0,0,,5,,,77,127
31957,note_on,0,0,0,,10,,,81,127
32066,note_off,109,0,0,,2,,,62,127
32067,note_on,1,0,0,,11,,,58,127
32176,note_off,109,0,0,,11,,,58,127
32176,note_off,0,0,0,,10,,,81,127
32176,note_off,0,0,0,,5,,,77,127
32177,note_on,1,0,0,,7,,,67,127
32177,note_on,0,0,0,,11,,,70,127
32286,note_off,109,0,0,,7,,,67,127
32287,note_on,1,0,0,,4,,,64,127
32396,note_off,109,0,0,,4,,,64,127
32396,note_off,0,0,0,,11,,,70,127
32397,note_on,1,0,0,,0,,,60,127
32397,note_on,0,0,0,,4,,,76,127
32397,note_on,0,0,0,,7,,,79,127
32506,note_off,109,0,0,,0,,,60,127
32507,note_on,1,0,0,,4,,,64,127
32616,note_off,109,0,0,,4,,,64,127
32616,note_off,0,0,0,,7,,,79,127
32616,note_off,0,0,0,,4,,,76,127
32617,note_on,1,0,0,,5,,,65,127
32617,note_on,0,0,0,,10,,,69,127
32724,note_off,107,0,0,,5,,,65,127
32725,note_off,1,0,0,,10,,,69,127
32726,note_on,1,0,0,,5,,,65,127
32835,note_off,109,0,0,,5,,,65,127
32836,note_on,1,0,0,,5,,,53,127
32836,note_on,0,0,0,,0,,,72,127
32945,note_off,109,0,0,,0,,,72,127
32946,note_on,1,0,0,,10,,,69,127
33055,note_off,109,0,0,,10,,,69,127
33055,note_off,0,0,0,,5,,,53,127
33056,note_on,1,0,0,,5,,,53,127
33056,note_on,0,0,0,,5,,,77,127
33165,note_off,109,0,0,,5,,,77,127
33166,note_on,1,0,0,,0,,,72,127
33275,note_off,109,0,0,,0,,,72,127
33276,note_on,1,0,0,,5,,,41,127
33276,note_on,0,0,0,,10,,,81,127
33385,note_off,109,0,0,,10,,,81,127
33386,note_on,1,0,0,,5,,,77,127
33491,note_off,105,0,0,,5,,,53,127
33494,note_off,3,0,0,,5,,,77,127
33494,note_off,0,0,0,,5,,,41,127
33495,note_on,1,0,0,,0,,,48,127
33495,note_on,0,0,0,,4,,,76,127
33604,note_off,109,0,0,,4,,,76,127
33605,note_on,1,0,0,,7,,,79,127
33714,note_off,109,0,0,,7,,,79,127
33714,note_off,0,0,0,,0,,,48,127
33715,note_on,1,0,0,,0,,,60,127
33715,note_on,0,0,0,,0,,,72,127
33824,note_off,109,0,0,,0,,,72,127
33825,note_on,1,0,0,,4,,,76,127
33934,note_off,109,0,0,,4,,,76,127
33934,note_off,0,0,0,,0,,,60,127
33935,note_on,1,0,0,,0,,,60,127
33935,note_on,0,0,0,,7,,,67,127
34044,note_off,109,0,0,,7,,,67,127
34045,note_on,1,0,0,,0,,,72,127
34154,note_off,109,0,0,,0,,,72,127
34154,note_off,0,0,0,,0,,,60,127
34155,note_on,1,0,0,,6,,,66,127
34155,note_on,0,0,0,,11,,,70,127
34264,note_off,109,0,0,,11,,,70,127
34265,note_on,1,0,0,,10,,,69,127
34374,note_off,109,0,0,,10,,,69,127
34374,note_off,0,0,0,,6,,,66,127
34375,note_on,1,0,0,,7,,,67,127
34375,note_on,0,0,0,,11,,,70,127
34482,note_off,107,0,0,,7,,,67,127
34483,note_off,1,0,0,,11,,,70,127
34484,note_on,1,0,0,,7,,,67,127
34593,note_off,109,0,0,,7,,,67,127
34594,note_on,1,0,0,,7,,,55,127
34594,note_on,0,0,0,,2,,,74,127
34703,note_off,109,0,0,,2,,,74,127
34704,note_on,1,0,0,,11,,,70,127
34813,note_off,109,0,0,,11,,,70,127
34813,note_off,0,0,0,,7,,,55,127
34814,note_on,1,0,0,,7,,,55,127
34814,note_on,0,0,0,,7,,,79,127
34923,note_off,109,0,0,,7,,,79,127
34924,note_on,1,0,0,,2,,,74,127
35033,note_off,109,0,0,,2,,,74,127
35034,note_on,1,0,0,,7,,,43,127
35034,note_on,0,0,0,,11,,,82,127
35143,note_off,109,0,0,,11,,,82,127
35144,note_on,1,0,0,,7,,,79,127
35249,note_off,105,0,0,,7,,,55,127
35252,note_off,3,0,0,,7,,,79,127
35252,note_off,0,0,0,,7,,,43,127
35253,note_on,1,0,0,,2,,,50,127
35253,note_on,0,0,0,,5,,,77,127
35362,note_off,109,0,0,,5,,,77,127
35363,note_on,1,0,0,,10,,,81,127
35472,note_off,109,0,0,,10,,,81,127
35472,note_off,0,0,0,,2,,,50,127
35473,note_on,1,0,0,,2,,,62,127
35473,note_on,0,0,0,,2,,,74,127
35582,note_off,109,0,0,,2,,,74,127
35583,note_on,1,0,0,,5,,,77,127
35692,note_off,109,0,0,,5,,,77,127
35692,note_off,0,0,0,,2,,,62,127
35693,note_on,1,0,0,,2,,,62,127
35693,note_on,0,0,0,,10,,,69,127
35802,note_off,109,0,0,,10,,,69,127
35803,note_on,1,0,0,,2,,,74,127
35912,note_off,109,0,0,,2,,,74,127
35912,note_off,0,0,0,,2,,,62,127
35913,note_on,1,0,0,,8,,,68,127
35913,note_on,0,0,0,,0,,,72,127
36022,note_off,109,0,0,,0,,,72,127
36023,note_on,1,0,0,,12,,,71,127
36132,note_off,109,0,0,,12,,,71,127
36132,note_off,0,0,0,,8,,,68,127
36133,note_on,1,0,0,,10,,,69,127
36133,note_on,0,0,0,,0,,,72,127
36240,note_off,107,0,0,,10,,,69,127
36241,note_off,1,0,0,,0,,,72,127
36242,note_on,1,0,0,,10,,,69,127
36351,note_off,109,0,0,,10,,,69,127
36352,note_on,1,0,0,,10,,,57,127
36352,note_on,0,0,0,,4,,,76,127
36461,note_off,109,0,0,,4,,,76,127
36462,note_on,1,0,0,,0,,,72,127
36571,note_off,109,0,0,,0,,,72,127
36571,note_off,0,0,0,,10,,,57,127
36572,note_on,1,0,0,,10,,,57,127
36572,note_on,0,0,0,,10,,,81,127
36681,note_off,109,0,0,,10,,,81,127
36682,note_on,1,0,0,,4,,,76,127
36791,note_off,109,0,0,,4,,,76,127
36792,note_on,1,0,0,,10,,,45,127
36792,note_on,0,0,0,,0,,,84,127
36901,note_off,109,0,0,,0,,,84,127
36902,note_on,1,0,0,,10,,,81,127
37007,note_off,105,0,0,,10,,,57,127
37010,note_off,3,0,0,,10,,,81,127
37010,note_off,0,0,0,,10,,,45,127
37011,note_on,1,0,0,,4,,,52,127
37011,note_on,0,0,0,,8,,,80,127
37120,note_off,109,0,0,,8,,,80,127
37121,note_on,1,0,0,,12,,,83,127
37230,note_off,109,0,0,,12,,,83,127
37231,note_on,1,0,0,,4,,,40,127
37231,note_on,0,0,0,,4,,,76,127
37340,note_off,109,0,0,,4,,,76,127
37341,note_on,1,0,0,,8,,,80,127
37450,note_off,109,0,0,,8,,,80,127
37450,note_off,0,0,0,,4,,,40,127
37451,note_on,1,0,0,,4,,,40,127
37451,note_on,0,0,0,,12,,,71,127
37560,note_off,109,0,0,,12,,,71,127
37561,note_on,1,0,0,,2,,,74,127
37670,note_off,109,0,0,,2,,,74,127
37670,note_off,0,0,0,,4,,,40,127
37671,note_on,1,0,0,,4,,,40,127
37671,note_on,0,0,0,,1,,,73,127
37780,note_off,109,0,0,,1,,,73,127
37781,note_on,1,0,0,,12,,,71,127
37890,note_off,109,0,0,,12,,,71,127
37890,note_off,0,0,0,,4,,,40,127
37890,note_off,0,0,0,,4,,,52,127
37891,note_on,1,0,0,,10,,,45,127
37891,note_on,0,0,0,,1,,,73,127
38109,note_off,218,0,0,,1,,,73,127
38109,note_off,0,0,0,,10,,,45,127
38110,note_on,1,0,0,,10,,,69,127
38110,note_on,0,0,0,,10,,,81,127
38328,note_off,218,0,0,,10,,,81,127
38328,note_off,0,0,0,,10,,,69,127
38329,note_on,1,0,0,,10,,,69,127
38329,note_on,0,0,0,,11,,,82,127
38383,note_off,54,0,0,,11,,,82,127
38384,note_on,1,0,0,,10,,,81,127
38438,note_off,54,0,0,,10,,,81,127
38439,note_on,1,0,0,,11,,,82,127
38493,note_off,54,0,0,,11,,,82,127
38494,note_on,1,0,0,,10,,,81,127
38548,note_off,54,0,0,,10,,,81,127
38548,note_off,0,0,0,,10,,,69,127
38549,note_on,1,0,0,,10,,,69,127
38549,note_on,0,0,0,,11,,,82,127
38603,note_off,54,0,0,,11,,,82,127
38604,note_on,1,0,0,,10,,,81,127
38658,note_off,54,0,0,,10,,,81,127
38659,note_on,1,0,0,,11,,,82,127
38713,note_off,54,0,0,,11,,,82,127
38714,note_on,1,0,0,,10,,,81,127
38768,note_off,54,0,0,,10,,,69,127
38769,note_on,1,0,0,,5,,,41,127
38878,note_off,109,0,0,,10,,,81,127
38879,note_on,1,0,0,,7,,,79,127
38988,note_off,109,0,0,,7,,,79,127
38988,note_off,0,0,0,,5,,,41,127
38989,note_on,1,0,0,,10,,,69,127
38989,note_on,0,0,0,,5,,,65,127
38989,note_on,0,0,0,,5,,,77,127
39098,note_off,109,0,0,,5,,,77,127
39099,note_on,1,0,0,,4,,,76,127
39208,note_off,109,0,0,,4,,,76,127
39208,note_off,0,0,0,,5,,,65,127
39208,note_off,0,0,0,,10,,,69,127
39209,note_on,1,0,0,,5,,,65,127
39209,note_on,0,0,0,,10,,,69,127
39209,note_on,0,0,0,,2,,,74,127
39318,note_off,109,0,0,,2,,,74,127
39319,note_on,1,0,0,,0,,,72,127
39428,note_off,109,0,0,,0,,,72,127
39428,note_off,0,0,0,,10,,,69,127
39428,note_off,0,0,0,,5,,,65,127
39429,note_on,1,0,0,,5,,,65,127
39429,note_on,0,0,0,,11,,,70,127
39538,note_off,109,0,0,,11,,,70,127
39539,note_on,1,0,0,,10,,,69,127
39648,note_off,109,0,0,,10,,,69,127
39648,note_off,0,0,0,,5,,,65,127
39649,note_on,1,0,0,,7,,,43,127
39649,note_on,0,0,0,,11,,,70,127
39867,note_off,218,0,0,,11,,,70,127
39867,note_off,0,0,0,,7,,,43,127
39868,note_on,1,0,0,,11,,,70,127
39868,note_on,0,0,0,,7,,,67,127
39868,note_on,0,0,0,,7,,,79,127
40086,note_off,218,0,0,,7,,,79,127
40086,note_off,0,0,0,,7,,,67,127
40086,note_off,0,0,0,,11,,,70,127
40087,note_on,1,0,0,,11,,,70,127
40087,note_on,0,0,0,,7,,,67,127
40087,note_on,0,0,0,,10,,,81,127
40141,note_off,54,0,0,,10,,,81,127
40142,note_on,1,0,0,,7,,,79,127
40196,note_off,54,0,0,,7,,,79,127
40197,note_on,1,0,0,,10,,,81,127
40251,note_off,54,0,0,,10,,,81,127
40252,note_on,1,0,0,,7,,,79,127
40306,note_off,54,0,0,,7,,,79,127
40306,note_off,0,0,0,,7,,,67,127
40306,note_off,0,0,0,,11,,,70,127
40307,note_on,1,0,0,,11,,,70,127
40307,note_on,0,0,0,,7,,,67,127
40307,note_on,0,0,0,,10,,,81,127
40361,note_off,54,0,0,,10,,,81,127
40362,note_on,1,0,0,,7,,,79,127
40416,note_off,54,0,0,,7,,,79,127
40417,note_on,1,0,0,,10,,,81,127
40471,note_off,54,0,0,,10,,,81,127
40472,note_on,1,0,0,,7,,,79,127
40526,note_off,54,0,0,,7,,,67,127
40526,note_off,0,0,0,,11,,,70,127
40527,note_on,1,0,0,,4,,,40,127
40636,note_off,109,0,0,,7,,,79,127
40637,note_on,1,0,0,,5,,,77,127
40746,note_off,109,0,0,,5,,,77,127
40746,note_off,0,0,0,,4,,,40,127
40747,note_on,1,0,0,,4,,,64,127
40747,note_on,0,0,0,,7,,,67,127
40747,note_on,0,0,0,,4,,,76,127
40856,note_off,109,0,0,,4,,,76,127
40857,note_on,1,0,0,,2,,,74,127
40966,note_off,109,0,0,,2,,,74,127
40966,note_off,0,0,0,,7,,,67,127
40966,note_off,0,0,0,,4,,,64,127
40967,note_on,1,0,0,,7,,,67,127
40967,note_on,0,0,0,,4,,,64,127
40967,note_on,0,0,0,,0,,,72,127
41076,note_off,109,0,0,,0,,,72,127
41077,note_on,1,0,0,,11,,,70,127
41186,note_off,109,0,0,,11,,,70,127
41186,note_off,0,0,0,,4,,,64,127
41186,note_off,0,0,0,,7,,,67,127
41187,note_on,1,0,0,,4,,,64,127
41187,note_on,0,0,0,,10,,,69,127
41296,note_off,109,0,0,,10,,,69,127
41297,note_on,1,0,0,,7,,,67,127
41406,note_off,109,0,0,,7,,,67,127
41406,note_off,0,0,0,,4,,,64,127
41407,note_on,1,0,0,,5,,,41,127
41407,note_on,0,0,0,,10,,,69,127
41625,note_off,218,0,0,,10,,,69,127
41625,note_off,0,0,0,,5,,,41,127
41626,note_on,1,0,0,,5,,,65,127
41626,note_on,0,0,0,,10,,,69,127
41626,note_on,0,0,0,,5,,,77,127
41844,note_off,218,0,0,,5,,,77,127
41844,note_off,0,0,0,,10,,,69,127
41844,note_off,0,0,0,,5,,,65,127
41845,note_on,1,0,0,,5,,,65,127
41845,note_on,0,0,0,,10,,,69,127
41845,note_on,0,0,0,,7,,,79,127
41899,note_off,54,0,0,,7,,,79,127
41900,note_on,1,0,0,,5,,,77,127
41954,note_off,54,0,0,,5,,,77,127
41955,note_on,1,0,0,,7,,,79,127
42009,note_off,54,0,0,,7,,,79,127
42010,note_on,1,0,0,,5,,,77,127
42064,note_off,54,0,0,,5,,,77,127
42064,note_off,0,0,0,,10,,,69,127
42064,note_off,0,0,0,,5,,,65,127
42065,note_on,1,0,0,,5,,,65,127
42065,note_on,0,0,0,,10,,,69,127
42065,note_on,0,0,0,,7,,,79,127
42119,note_off,54,0,0,,7,,,79,127
42120,note_on,1,0,0,,5,,,77,127
42174,note_off,54,0,0,,5,,,77,127
42175,note_on,1,0,0,,7,,,79,127
42229,note_off,54,0,0,,7,,,79,127
42230,note_on,1,0,0,,5,,,77,127
42284,note_off,54,0,0,,10,,,69,127
42284,note_off,0,0,0,,5,,,65,127
42285,note_on,1,0,0,,2,,,38,127
42394,note_off,109,0,0,,5,,,77,127
42395,note_on,1,0,0,,4,,,76,127
42504,note_off,109,0,0,,4,,,76,127
42504,note_off,0,0,0,,2,,,38,127
42505,note_on,1,0,0,,2,,,62,127
42505,note_on,0,0,0,,5,,,65,127
42505,note_on,0,0,0,,2,,,74,127
42614,note_off,109,0,0,,2,,,74,127
42615,note_on,1,0,0,,0,,,72,127
42724,note_off,109,0,0,,0,,,72,127
42724,note_off,0,0,0,,5,,,65,127
42724,note_off,0,0,0,,2,,,62,127
42725,note_on,1,0,0,,5,,,65,127
42725,note_on,0,0,0,,2,,,62,127
42725,note_on,0,0,0,,11,,,70,127
42834,note_off,109,0,0,,11,,,70,127
42835,note_on,1,0,0,,10,,,69,127
42944,note_off,109,0,0,,10,,,69,127
42944,note_off,0,0,0,,2,,,62,127
42944,note_off,0,0,0,,5,,,65,127
42945,note_on,1,0,0,,2,,,62,127
42945,note_on,0,0,0,,7,,,67,127
43054,note_off,109,0,0,,7,,,67,127
43055,note_on,1,0,0,,5,,,65,127
43164,note_off,109,0,0,,5,,,65,127
43164,note_off,0,0,0,,2,,,62,127
43165,note_on,1,0,0,,4,,,40,127
43165,note_on,0,0,0,,7,,,67,127
43383,note_off,218,0,0,,7,,,67,127
43383,note_off,0,0,0,,4,,,40,127
43384,note_on,1,0,0,,7,,,67,127
43384,note_on,0,0,0,,4,,,64,127
43384,note_on,0,0,0,,4,,,76,127
43602,note_off,218,0,0,,4,,,76,127
43602,note_off,0,0,0,,4,,,64,127
43602,note_off,0,0,0,,7,,,67,127
43603,note_on,1,0,0,,7,,,67,127
43603,note_on,0,0,0,,4,,,64,127
43603,note_on,0,0,0,,5,,,77,127
43657,note_off,54,0,0,,5,,,77,127
43658,note_on,1,0,0,,4,,,76,127
43712,note_off,54,0,0,,4,,,76,127
43713,note_on,1,0,0,,5,,,77,127
43767,note_off,54,0,0,,5,,,77,127
43768,note_on,1,0,0,,4,,,76,127
43822,note_off,54,0,0,,4,,,76,127
43822,note_off,0,0,0,,4,,,64,127
43822,note_off,0,0,0,,7,,,67,127
43823,note_on,1,0,0,,7,,,67,127
43823,note_on,0,0,0,,4,,,64,127
43823,note_on,0,0,0,,5,,,77,127
43877,note_off,54,0,0,,5,,,77,127
43878,note_on,1,0,0,,4,,,76,127
43932,note_off,54,0,0,,4,,,76,127
43933,note_on,1,0,0,,5,,,77,127
43987,note_off,54,0,0,,5,,,77,127
43988,note_on,1,0,0,,4,,,76,127
44042,note_off,54,0,0,,4,,,64,127
44042,note_off,0,0,0,,7,,,67,127
44043,note_on,1,0,0,,10,,,45,127
44152,note_off,109,0,0,,4,,,76,127
44153,note_on,1,0,0,,2,,,74,127
44262,note_off,109,0,0,,2,,,74,127
44262,note_off,0,0,0,,10,,,45,127
44263,note_on,1,0,0,,10,,,57,127
44263,note_on,0,0,0,,4,,,64,127
44263,note_on,0,0,0,,1,,,73,127
44372,note_off,109,0,0,,1,,,73,127
44373,note_on,1,0,0,,12,,,71,127
44482,note_off,109,0,0,,12,,,71,127
44482,note_off,0,0,0,,4,,,64,127
44482,note_off,0,0,0,,10,,,57,127
44483,note_on,1,0,0,,4,,,64,127
44483,note_on,0,0,0,,10,,,57,127
44483,note_on,0,0,0,,10,,,69,127
44592,note_off,109,0,0,,10,,,69,127
44593,note_on,1,0,0,,7,,,67,127
44702,note_off,109,0,0,,7,,,67,127
44702,note_off,0,0,0,,10,,,57,127
44702,note_off,0,0,0,,4,,,64,127
44703,note_on,1,0,0,,10,,,57,127
44703,note_on,0,0,0,,5,,,65,127
44812,note_off,109,0,0,,5,,,65,127
44813,note_on,1,0,0,,4,,,64,127
44922,note_off,109,0,0,,4,,,64,127
44922,note_off,0,0,0,,10,,,57,127
44923,note_on,1,0,0,,2,,,62,127
44923,note_on,0,0,0,,5,,,65,127
44923,note_on,0,0,0,,2,,,74,127
45030,note_off,107,0,0,,2,,,62,127
45031,note_off,1,0,0,,5,,,65,127
45032,note_on,1,0,0,,2,,,62,127
45141,note_off,109,0,0,,2,,,62,127
45142,note_on,1,0,0,,4,,,64,127
45142,note_on,0,0,0,,7,,,67,127
45249,note_off,107,0,0,,4,,,64,127
45250,note_off,1,0,0,,7,,,67,127
45251,note_on,1,0,0,,4,,,64,127
45360,note_off,109,0,0,,4,,,64,127
45361,note_on,1,0,0,,5,,,65,127
45361,note_on,0,0,0,,10,,,69,127
45468,note_off,107,0,0,,5,,,65,127
45469,note_off,1,0,0,,10,,,69,127
45470,note_on,1,0,0,,5,,,65,127
45579,note_off,109,0,0,,5,,,65,127
45580,note_on,1,0,0,,7,,,67,127
45580,note_on,0,0,0,,11,,,70,127
45687,note_off,107,0,0,,7,,,67,127
45688,note_off,1,0,0,,11,,,70,127
45689,note_on,1,0,0,,7,,,67,127
45798,note_off,109,0,0,,7,,,67,127
45798,note_off,0,0,0,,2,,,74,127
45799,note_on,1,0,0,,2,,,62,127
45799,note_on,0,0,0,,2,,,74,127
45799,note_on,0,0,0,,5,,,65,127
45906,note_off,107,0,0,,2,,,62,127
45907,note_off,1,0,0,,5,,,65,127
45908,note_on,1,0,0,,2,,,62,127
46017,note_off,109,0,0,,2,,,62,127
46018,note_on,1,0,0,,4,,,64,127
46018,note_on,0,0,0,,7,,,67,127
46125,note_off,107,0,0,,4,,,64,127
46126,note_off,1,0,0,,7,,,67,127
46127,note_on,1,0,0,,4,,,64,127
46236,note_off,109,0,0,,4,,,64,127
46237,note_on,1,0,0,,5,,,65,127
46237,note_on,0,0,0,,10,,,69,127
46344,note_off,107,0,0,,5,,,65,127
46345,note_off,1,0,0,,10,,,69,127
46346,note_on,1,0,0,,5,,,65,127
46455,note_off,109,0,0,,5,,,65,127
46456,note_on,1,0,0,,7,,,67,127
46456,note_on,0,0,0,,11,,,70,127
46563,note_off,107,0,0,,7,,,67,127
46564,note_off,1,0,0,,11,,,70,127
46565,note_on,1,0,0,,7,,,67,127
46674,note_off,109,0,0,,7,,,67,127
46674,note_off,0,0,0,,2,,,74,127
46675,note_on,1,0,0,,2,,,62,127
46675,note_on,0,0,0,,2,,,74,127
46675,note_on,0,0,0,,5,,,65,127
46782,note_off,107,0,0,,2,,,62,127
46783,note_off,1,0,0,,5,,,65,127
46784,note_on,1,0,0,,2,,,62,127
46893,note_off,109,0,0,,2,,,62,127
46894,note_on,1,0,0,,4,,,64,127
46894,note_on,0,0,0,,7,,,67,127
47001,note_off,107,0,0,,4,,,64,127
47002,note_off,1,0,0,,7,,,67,127
47003,note_on,1,0,0,,4,,,64,127
47112,note_off,109,0,0,,4,,,64,127
47113,note_on,1,0,0,,5,,,65,127
47113,note_on,0,0,0,,10,,,69,127
47220,note_off,107,0,0,,5,,,65,127
47221,note_off,1,0,0,,10,,,69,127
47222,note_on,1,0,0,,5,,,65,127
47331,note_off,109,0,0,,5,,,65,127
47332,note_on,1,0,0,,7,,,67,127
47332,note_on,0,0,0,,11,,,70,127
47439,note_off,107,0,0,,7,,,67,127
47440,note_off,1,0,0,,11,,,70,127
47441,note_on,1,0,0,,7,,,67,127
47550,note_off,109,0,0,,7,,,67,127
47550,note_off,0,0,0,,2,,,74,127
47551,note_on,1,0,0,,5,,,65,127
47551,note_on,0,0,0,,10,,,69,127
47660,note_off,109,0,0,,5,,,65,127
47661,note_on,1,0,0,,2,,,62,127
47770,note_off,109,0,0,,2,,,62,127
47770,note_off,0,0,0,,10,,,69,127
47771,note_on,1,0,0,,11,,,58,127
47771,note_on,0,0,0,,2,,,74,127
47771,note_on,0,0,0,,5,,,77,127
47880,note_off,109,0,0,,11,,,58,127
47881,note_on,1,0,0,,7,,,55,127
47990,note_off,109,0,0,,7,,,55,127
47990,note_off,0,0,0,,2,,,74,127
47991,note_on,1,0,0,,4,,,64,127
47991,note_on,0,0,0,,7,,,67,127
48100,note_off,109,0,0,,4,,,64,127
48101,note_on,1,0,0,,1,,,61,127
48210,note_off,109,0,0,,1,,,61,127
48210,note_off,0,0,0,,7,,,67,127
48210,note_off,0,0,0,,5,,,77,127
48211,note_on,1,0,0,,10,,,57,127
48211,note_on,0,0,0,,1,,,73,127
48211,note_on,0,0,0,,4,,,76,127
48320,note_off,109,0,0,,10,,,57,127
48321,note_on,1,0,0,,1,,,61,127
48430,note_off,109,0,0,,1,,,61,127
48430,note_off,0,0,0,,1,,,73,127
48431,note_on,1,0,0,,5,,,65,127
48431,note_on,0,0,0,,10,,,69,127
48540,note_off,109,0,0,,5,,,65,127
48541,note_off,1,0,0,,4,,,76,127
48541,note_on,0,0,0,,2,,,62,127
48650,note_off,109,0,0,,2,,,62,127
48650,note_off,0,0,0,,10,,,69,127
48651,note_on,1,0,0,,11,,,58,127
48651,note_on,0,0,0,,5,,,77,127
48651,note_on,0,0,0,,2,,,74,127
48760,note_off,109,0,0,,11,,,58,127
48761,note_on,1,0,0,,7,,,55,127
48870,note_off,109,0,0,,7,,,55,127
48870,note_off,0,0,0,,2,,,74,127
48871,note_on,1,0,0,,4,,,64,127
48871,note_on,0,0,0,,7,,,67,127
48980,note_off,109,0,0,,4,,,64,127
48981,note_on,1,0,0,,1,,,61,127
49090,note_off,109,0,0,,1,,,61,127
49090,note_off,0,0,0,,7,,,67,127
49090,note_off,0,0,0,,5,,,77,127
49091,note_on,1,0,0,,10,,,57,127
49091,note_on,0,0,0,,1,,,73,127
49091,note_on,0,0,0,,4,,,76,127
49200,note_off,109,0,0,,10,,,57,127
49201,note_on,1,0,0,,1,,,61,127
49310,note_off,109,0,0,,1,,,61,127
49310,note_off,0,0,0,,1,,,73,127
49311,note_on,1,0,0,,5,,,65,127
49311,note_on,0,0,0,,10,,,69,127
49420,note_off,109,0,0,,5,,,65,127
49421,note_off,1,0,0,,4,,,76,127
49421,note_on,0,0,0,,2,,,62,127
49530,note_off,109,0,0,,2,,,62,127
49530,note_off,0,0,0,,10,,,69,127
49531,note_on,1,0,0,,11,,,58,127
49531,note_on,0,0,0,,5,,,77,127
49531,note_on,0,0,0,,2,,,74,127
49640,note_off,109,0,0,,11,,,58,127
49641,note_on,1,0,0,,7,,,55,127
49750,note_off,109,0,0,,7,,,55,127
49750,note_off,0,0,0,,2,,,74,127
49751,note_on,1,0,0,,4,,,64,127
49751,note_on,0,0,0,,7,,,67,127
49860,note_off,109,0,0,,4,,,64,127
49861,note_off,1,0,0,,5,,,77,127
49861,note_on,0,0,0,,1,,,61,127
49970,note_off,109,0,0,,1,,,61,127
49970,note_off,0,0,0,,7,,,67,127
49971,note_on,1,0,0,,10,,,57,127
49971,note_on,0,0,0,,1,,,73,127
49971,note_on,0,0,0,,4,,,76,127
50080,note_off,109,0,0,,10,,,57,127
50081,note_on,1,0,0,,1,,,61,127
50190,note_off,109,0,0,,1,,,61,127
50190,note_off,0,0,0,,4,,,76,127
50190,note_off,0,0,0,,1,,,73,127
50191,note_on,1,0,0,,2,,,50,127
50191,note_on,0,0,0,,2,,,62,127
50191,note_on,0,0,0,,5,,,65,127
50191,note_on,0,0,0,,2,,,74,127
50298,note_off,107,0,0,,2,,,62,127
50299,note_off,1,0,0,,5,,,65,127
50300,note_on,1,0,0,,2,,,62,127
50407,note_off,107,0,0,,2,,,74,127
50408,note_off,1,0,0,,2,,,62,127
50408,note_off,0,0,0,,2,,,50,127
50409,note_on,1,0,0,,4,,,52,127
50409,note_on,0,0,0,,7,,,67,127
50518,note_off,109,0,0,,7,,,67,127
50519,note_on,1,0,0,,4,,,64,127
50628,note_off,109,0,0,,4,,,64,127
50628,note_off,0,0,0,,4,,,52,127
50629,note_on,1,0,0,,5,,,53,127
50629,note_on,0,0,0,,10,,,69,127
50738,note_off,109,0,0,,10,,,69,127
50739,note_on,1,0,0,,5,,,65,127
50848,note_off,109,0,0,,5,,,65,127
50848,note_off,0,0,0,,5,,,53,127
50849,note_on,1,0,0,,7,,,55,127
50849,note_on,0,0,0,,12,,,71,127
50958,note_off,109,0,0,,12,,,71,127
50959,note_on,1,0,0,,7,,,67,127
51068,note_off,109,0,0,,7,,,67,127
51068,note_off,0,0,0,,7,,,55,127
51069,note_on,1,0,0,,10,,,57,127
51069,note_on,0,0,0,,1,,,73,127
51178,note_off,109,0,0,,1,,,73,127
51179,note_on,1,0,0,,10,,,69,127
51288,note_off,109,0,0,,10,,,69,127
51288,note_off,0,0,0,,10,,,57,127
51289,note_on,1,0,0,,7,,,55,127
51289,note_on,0,0,0,,2,,,74,127
51398,note_off,109,0,0,,2,,,74,127
51399,note_on,1,0,0,,4,,,76,127
51508,note_off,109,0,0,,4,,,76,127
51508,note_off,0,0,0,,7,,,55,127
51509,note_on,1,0,0,,10,,,57,127
51509,note_on,0,0,0,,5,,,77,127
51618,note_off,109,0,0,,5,,,77,127
51619,note_on,1,0,0,,2,,,74,127
51728,note_off,109,0,0,,2,,,74,127
51729,note_on,1,0,0,,10,,,45,127
51729,note_on,0,0,0,,4,,,76,127
51838,note_off,109,0,0,,4,,,76,127
51839,note_on,1,0,0,,1,,,73,127
51944,note_off,105,0,0,,10,,,57,127
51947,note_off,3,0,0,,1,,,73,127
51947,note_off,0,0,0,,10,,,45,127
51948,note_on,1,0,0,,2,,,50,127
51948,note_on,0,0,0,,2,,,74,127
52057,note_off,109,0,0,,2,,,74,127
52058,note_on,1,0,0,,10,,,69,127
52167,note_off,109,0,0,,10,,,69,127
52168,note_on,1,0,0,,11,,,70,127
52277,note_off,109,0,0,,11,,,70,127
52278,note_on,1,0,0,,7,,,67,127
52387,note_off,109,0,0,,7,,,67,127
52388,note_on,1,0,0,,10,,,69,127
52497,note_off,109,0,0,,10,,,69,127
52498,note_on,1,0,0,,5,,,65,127
52607,note_off,109,0,0,,5,,,65,127
52607,note_off,0,0,0,,2,,,50,127
52608,note_on,1,0,0,,7,,,67,127
52608,note_on,0,0,0,,11,,,70,127
52717,note_off,109,0,0,,7,,,67,127
52718,note_on,1,0,0,,4,,,64,127
52827,note_off,109,0,0,,4,,,64,127
52827,note_off,0,0,0,,11,,,70,127
52828,note_on,1,0,0,,5,,,65,127
52828,note_on,0,0,0,,10,,,69,127
52937,note_off,109,0,0,,5,,,65,127
52938,note_on,1,0,0,,2,,,62,127
53047,note_off,109,0,0,,2,,,62,127
53047,note_off,0,0,0,,10,,,69,127
53048,note_on,1,0,0,,4,,,64,127
53048,note_on,0,0,0,,7,,,67,127
53157,note_off,109,0,0,,4,,,64,127
53158,note_on,1,0,0,,1,,,61,127
53267,note_off,109,0,0,,1,,,61,127
53267,note_off,0,0,0,,7,,,67,127
53268,note_on,1,0,0,,2,,,62,127
53268,note_on,0,0,0,,5,,,65,127
53377,note_off,109,0,0,,2,,,62,127
53378,note_on,1,0,0,,10,,,57,127
53487,note_off,109,0,0,,10,,,57,127
53488,note_on,1,0,0,,5,,,53,127
53597,note_off,109,0,0,,5,,,53,127
53598,note_off,1,0,0,,5,,,65,127
53598,note_on,0,0,0,,10,,,57,127
53707,note_off,109,0,0,,10,,,57,127
53708,note_on,1,0,0,,4,,,52,127
53762,note_off,54,0,0,,4,,,52,127
53763,note_on,1,0,0,,2,,,50,127
53817,note_off,54,0,0,,2,,,50,127
53818,note_on,1,0,0,,4,,,52,127
53872,note_off,54,0,0,,4,,,52,127
53873,note_on,1,0,0,,2,,,50,127
55587,note_off,1714,0,0,,2,,,50,127
59904,end_of_track,4317,1,0,,,,,,
