tick,type,time,meta,track,program,channel,pitch,tempo,note,velocity
0,copyright,0,1,0,,,,,,
0,program_change,0,0,0,6,0,,,,
0,pitchwheel,0,0,0,,0,0,,,
0,program_change,0,0,0,6,1,,,,
0,pitchwheel,0,0,0,,1,-590,,,
0,program_change,0,0,0,6,2,,,,
0,pitchwheel,0,0,0,,2,-272,,,
0,program_change,0,0,0,6,3,,,,
0,pitchwheel,0,0,0,,3,-353,,,
0,program_change,0,0,0,6,4,,,,
0,pitchwheel,0,0,0,,4,-560,,,
0,program_change,0,0,0,6,5,,,,
0,pitchwheel,0,0,0,,5,-80,,,
0,program_change,0,0,0,6,6,,,,
0,pitchwheel,0,0,0,,6,-625,,,
0,program_change,0,0,0,6,7,,,,
0,pitchwheel,0,0,0,,7,-130,,,
0,program_change,0,0,0,6,8,,,,
0,pitchwheel,0,0,0,,8,-512,,,
0,program_change,0,0,0,6,10,,,,
0,pitchwheel,0,0,0,,10,-464,,,
0,program_change,0,0,0,6,11,,,,
0,pitchwheel,0,0,0,,11,-208,,,
0,program_change,0,0,0,6,12,,,,
0,pitchwheel,0,0,0,,12,-553,,,
0,set_tempo,0,1,0,,,,500000,,
121,note_on,121,0,0,,7,,,67,127
192,note_off,71,0,0,,7,,,67,127
234,note_on,42,0,0,,7,,,67,127
364,note_on,130,0,0,,11,,,70,127
385,note_off,21,0,0,,7,,,67,127
484,note_off,99,0,0,,11,,,70,127
485,note_on,1,0,0,,10,,,69,127
605,note_off,120,0,0,,10,,,69,127
606,note_on,1,0,0,,0,,,72,127
726,note_off,120,0,0,,0,,,72,127
727,note_on,1,0,0,,11,,,70,127
847,note_off,120,0,0,,11,,,70,127
848,note_on,1,0,0,,2,,,74,127
968,note_off,120,0,0,,2,,,74,127
969,note_on,1,0,0,,0,,,72,127
1089,note_off,120,0,0,,0,,,72,127
1090,note_on,1,0,0,,7,,,55,127
1090,note_on,0,0,0,,3,,,75,127
1201,note_off,111,0,0,,7,,,55,127
1210,note_off,9,0,0,,3,,,75,127
1211,note_on,1,0,0,,7,,,55,127
1211,note_on,0,0,0,,2,,,74,127
1331,note_off,120,0,0,,7,,,55,127
1332,note_on,1,0,0,,11,,,58,127
1452,note_off,120,0,0,,11,,,58,127
1453,note_on,1,0,0,,10,,,57,127
1573,note_off,120,0,0,,10,,,57,127
1574,note_on,1,0,0,,0,,,60,127
1694,note_off,120,0,0,,0,,,60,127
1695,note_on,1,0,0,,11,,,58,127
1815,note_off,120,0,0,,11,,,58,127
1816,note_on,1,0,0,,2,,,62,127
1936,note_off,120,0,0,,2,,,62,127
1936,note_off,0,0,0,,2,,,74,127
1937,note_on,1,0,0,,0,,,60,127
1937,note_on,0,0,0,,7,,,79,127
2057,note_off,120,0,0,,0,,,60,127
2058,note_on,1,0,0,,3,,,63,127
2178,note_off,120,0,0,,3,,,63,127
2178,note_off,0,0,0,,7,,,79,127
2179,note_on,1,0,0,,2,,,62,127
2179,note_on,0,0,0,,6,,,78,127
2299,note_off,120,0,0,,2,,,62,127
2300,note_on,1,0,0,,6,,,66,127
2420,note_off,120,0,0,,6,,,66,127
2420,note_off,0,0,0,,6,,,78,127
2421,note_on,1,0,0,,4,,,64,127
2421,note_on,0,0,0,,7,,,79,127
2541,note_off,120,0,0,,4,,,64,127
2542,note_on,1,0,0,,7,,,67,127
2662,note_off,120,0,0,,7,,,67,127
2662,note_off,0,0,0,,7,,,79,127
2663,note_on,1,0,0,,6,,,66,127
2663,note_on,0,0,0,,10,,,81,127
2783,note_off,120,0,0,,6,,,66,127
2784,note_on,1,0,0,,10,,,69,127
2904,note_off,120,0,0,,10,,,69,127
2904,note_off,0,0,0,,10,,,81,127
2905,note_on,1,0,0,,2,,,62,127
2905,note_on,0,0,0,,0,,,72,127
3025,note_off,120,0,0,,2,,,62,127
3026,note_on,1,0,0,,6,,,66,127
3146,note_off,120,0,0,,6,,,66,127
3146,note_off,0,0,0,,0,,,72,127
3147,note_on,1,0,0,,7,,,55,127
3147,note_on,0,0,0,,11,,,70,127
3267,note_off,120,0,0,,7,,,55,127
3268,note_on,1,0,0,,11,,,58,127
3388,note_off,120,0,0,,11,,,58,127
3388,note_off,0,0,0,,11,,,70,127
3389,note_on,1,0,0,,10,,,57,127
3389,note_on,0,0,0,,0,,,72,127
3509,note_off,120,0,0,,10,,,57,127
3510,note_on,1,0,0,,0,,,60,127
3630,note_off,120,0,0,,0,,,60,127
3630,note_off,0,0,0,,0,,,72,127
3631,note_on,1,0,0,,11,,,58,127
3631,note_on,0,0,0,,2,,,74,127
3751,note_off,120,0,0,,11,,,58,127
3752,note_on,1,0,0,,2,,,62,127
3872,note_off,120,0,0,,2,,,62,127
3872,note_off,0,0,0,,2,,,74,127
3873,note_on,1,0,0,,0,,,60,127
3873,note_on,0,0,0,,7,,,67,127
3993,note_off,120,0,0,,0,,,60,127
3994,note_on,1,0,0,,3,,,63,127
4114,note_off,120,0,0,,3,,,63,127
4114,note_off,0,0,0,,7,,,67,127
4115,note_on,1,0,0,,2,,,50,127
4115,note_on,0,0,0,,6,,,66,127
4235,note_off,120,0,0,,2,,,50,127
4236,note_on,1,0,0,,6,,,54,127
4356,note_off,120,0,0,,6,,,54,127
4356,note_off,0,0,0,,6,,,66,127
4357,note_on,1,0,0,,4,,,52,127
4357,note_on,0,0,0,,7,,,67,127
4477,note_off,120,0,0,,4,,,52,127
4478,note_on,1,0,0,,7,,,55,127
4598,note_off,120,0,0,,7,,,55,127
4598,note_off,0,0,0,,7,,,67,127
4599,note_on,1,0,0,,6,,,54,127
4599,note_on,0,0,0,,10,,,69,127
4719,note_off,120,0,0,,6,,,54,127
4720,note_on,1,0,0,,10,,,57,127
4840,note_off,120,0,0,,10,,,57,127
4840,note_off,0,0,0,,10,,,69,127
4841,note_on,1,0,0,,2,,,50,127
4841,note_on,0,0,0,,0,,,60,127
4961,note_off,120,0,0,,2,,,50,127
4962,note_on,1,0,0,,6,,,54,127
5082,note_off,120,0,0,,6,,,54,127
5082,note_off,0,0,0,,0,,,60,127
5083,note_on,1,0,0,,7,,,43,127
5083,note_on,0,0,0,,11,,,58,127
5203,note_off,120,0,0,,7,,,43,127
5204,note_on,1,0,0,,11,,,46,127
5324,note_off,120,0,0,,11,,,46,127
5324,note_off,0,0,0,,11,,,58,127
5325,note_on,1,0,0,,10,,,45,127
5325,note_on,0,0,0,,0,,,60,127
5445,note_off,120,0,0,,10,,,45,127
5446,note_on,1,0,0,,0,,,48,127
5566,note_off,120,0,0,,0,,,48,127
5566,note_off,0,0,0,,0,,,60,127
5567,note_on,1,0,0,,11,,,46,127
5567,note_on,0,0,0,,2,,,62,127
5687,note_off,120,0,0,,11,,,46,127
5688,note_on,1,0,0,,2,,,50,127
5808,note_off,120,0,0,,2,,,50,127
5808,note_off,0,0,0,,2,,,62,127
5809,note_on,1,0,0,,0,,,48,127
5809,note_on,0,0,0,,7,,,67,127
5929,note_off,120,0,0,,0,,,48,127
5930,note_on,1,0,0,,3,,,51,127
6050,note_off,120,0,0,,3,,,51,127
6050,note_off,0,0,0,,7,,,67,127
6051,note_on,1,0,0,,2,,,50,127
6051,note_on,0,0,0,,6,,,66,127
6171,note_off,120,0,0,,2,,,50,127
6172,note_on,1,0,0,,6,,,54,127
6292,note_off,120,0,0,,6,,,54,127
6292,note_off,0,0,0,,6,,,66,127
6293,note_on,1,0,0,,4,,,52,127
6293,note_on,0,0,0,,7,,,67,127
6413,note_off,120,0,0,,4,,,52,127
6414,note_on,1,0,0,,7,,,55,127
6534,note_off,120,0,0,,7,,,55,127
6534,note_off,0,0,0,,7,,,67,127
6535,note_on,1,0,0,,6,,,54,127
6535,note_on,0,0,0,,10,,,69,127
6656,note_on,121,0,0,,0,,,60,127
6686,note_off,30,0,0,,10,,,69,127
6776,note_off,90,0,0,,0,,,60,127
6776,note_off,0,0,0,,6,,,54,127
6777,note_on,1,0,0,,2,,,50,127
6777,note_on,0,0,0,,11,,,58,127
6897,note_off,120,0,0,,11,,,58,127
6898,note_on,1,0,0,,10,,,57,127
7018,note_off,120,0,0,,10,,,57,127
7018,note_off,0,0,0,,2,,,50,127
7019,note_on,1,0,0,,7,,,55,127
7019,note_on,0,0,0,,11,,,58,127
7140,note_on,121,0,0,,2,,,62,127
7170,note_off,30,0,0,,11,,,58,127
7260,note_off,90,0,0,,2,,,62,127
7260,note_off,0,0,0,,7,,,55,127
7261,note_on,1,0,0,,11,,,46,127
7261,note_on,0,0,0,,7,,,67,127
7382,note_on,121,0,0,,11,,,58,127
7502,note_off,120,0,0,,11,,,58,127
7502,note_off,0,0,0,,11,,,46,127
7503,note_on,1,0,0,,0,,,48,127
7503,note_on,0,0,0,,10,,,57,127
7623,note_off,120,0,0,,7,,,67,127
7624,note_on,1,0,0,,10,,,69,127
7744,note_off,120,0,0,,10,,,69,127
7744,note_off,0,0,0,,0,,,48,127
7745,note_on,1,0,0,,2,,,50,127
7745,note_on,0,0,0,,6,,,66,127
7865,note_off,120,0,0,,10,,,57,127
7866,note_on,1,0,0,,0,,,60,127
7986,note_off,120,0,0,,0,,,60,127
7986,note_off,0,0,0,,6,,,66,127
7986,note_off,0,0,0,,2,,,50,127
7987,note_on,1,0,0,,7,,,43,127
7987,note_on,0,0,0,,11,,,58,127
7987,note_on,0,0,0,,7,,,67,127
8107,note_off,120,0,0,,11,,,58,127
8108,note_on,1,0,0,,3,,,63,127
8228,note_off,120,0,0,,3,,,63,127
8228,note_off,0,0,0,,7,,,67,127
8228,note_off,0,0,0,,7,,,43,127
8229,note_on,1,0,0,,7,,,55,127
8229,note_on,0,0,0,,2,,,62,127
8349,note_off,120,0,0,,2,,,62,127
8350,note_on,1,0,0,,0,,,60,127
8470,note_off,120,0,0,,0,,,60,127
8471,note_on,1,0,0,,2,,,62,127
8591,note_off,120,0,0,,7,,,55,127
8592,note_on,1,0,0,,11,,,58,127
8712,note_off,120,0,0,,11,,,58,127
8712,note_off,0,0,0,,2,,,62,127
8713,note_on,1,0,0,,10,,,57,127
8713,note_on,0,0,0,,3,,,63,127
8833,note_off,120,0,0,,10,,,57,127
8834,note_on,1,0,0,,7,,,55,127
8954,note_off,120,0,0,,7,,,55,127
8954,note_off,0,0,0,,3,,,63,127
8955,note_on,1,0,0,,10,,,57,127
8955,note_on,0,0,0,,5,,,65,127
9075,note_off,120,0,0,,10,,,57,127
9076,note_on,1,0,0,,3,,,63,127
9196,note_off,120,0,0,,3,,,63,127
9196,note_off,0,0,0,,5,,,65,127
9197,note_on,1,0,0,,2,,,62,127
9197,note_on,0,0,0,,10,,,69,127
9317,note_off,120,0,0,,2,,,62,127
9318,note_on,1,0,0,,0,,,60,127
9438,note_off,120,0,0,,0,,,60,127
9438,note_off,0,0,0,,10,,,69,127
9439,note_on,1,0,0,,2,,,62,127
9439,note_on,0,0,0,,11,,,70,127
9559,note_off,120,0,0,,11,,,70,127
9560,note_on,1,0,0,,3,,,75,127
9680,note_off,120,0,0,,3,,,75,127
9680,note_off,0,0,0,,2,,,62,127
9681,note_on,1,0,0,,10,,,57,127
9681,note_on,0,0,0,,2,,,74,127
9801,note_off,120,0,0,,2,,,74,127
9802,note_on,1,0,0,,0,,,72,127
9922,note_off,120,0,0,,0,,,72,127
9922,note_off,0,0,0,,10,,,57,127
9923,note_on,1,0,0,,11,,,58,127
9923,note_on,0,0,0,,2,,,74,127
10043,note_off,120,0,0,,11,,,58,127
10044,note_on,1,0,0,,2,,,62,127
10164,note_off,120,0,0,,2,,,62,127
10164,note_off,0,0,0,,2,,,74,127
10165,note_on,1,0,0,,0,,,60,127
10165,note_on,0,0,0,,3,,,75,127
10285,note_off,120,0,0,,0,,,60,127
10286,note_on,1,0,0,,3,,,63,127
10406,note_off,120,0,0,,3,,,63,127
10406,note_off,0,0,0,,3,,,75,127
10407,note_on,1,0,0,,2,,,62,127
10407,note_on,0,0,0,,5,,,77,127
10527,note_off,120,0,0,,2,,,62,127
10528,note_on,1,0,0,,5,,,65,127
10648,note_off,120,0,0,,5,,,65,127
10648,note_off,0,0,0,,5,,,77,127
10649,note_on,1,0,0,,3,,,63,127
10649,note_on,0,0,0,,11,,,70,127
10769,note_off,120,0,0,,3,,,63,127
10770,note_on,1,0,0,,7,,,67,127
10890,note_off,120,0,0,,7,,,67,127
10890,note_off,0,0,0,,11,,,70,127
10891,note_on,1,0,0,,5,,,65,127
10891,note_on,0,0,0,,10,,,69,127
11011,note_off,120,0,0,,10,,,69,127
11012,note_on,1,0,0,,0,,,72,127
11132,note_off,120,0,0,,0,,,72,127
11132,note_off,0,0,0,,5,,,65,127
11133,note_on,1,0,0,,2,,,62,127
11133,note_on,0,0,0,,12,,,71,127
11253,note_off,120,0,0,,12,,,71,127
11254,note_on,1,0,0,,2,,,74,127
11374,note_off,120,0,0,,2,,,74,127
11374,note_off,0,0,0,,2,,,62,127
11375,note_on,1,0,0,,3,,,63,127
11375,note_on,0,0,0,,0,,,72,127
11495,note_off,120,0,0,,3,,,63,127
11496,note_on,1,0,0,,7,,,67,127
11616,note_off,120,0,0,,7,,,67,127
11616,note_off,0,0,0,,0,,,72,127
11617,note_on,1,0,0,,12,,,59,127
11617,note_on,0,0,0,,2,,,74,127
11737,note_off,120,0,0,,12,,,59,127
11738,note_on,1,0,0,,2,,,62,127
11858,note_off,120,0,0,,2,,,62,127
11858,note_off,0,0,0,,2,,,74,127
11859,note_on,1,0,0,,0,,,60,127
11859,note_on,0,0,0,,3,,,75,127
11979,note_off,120,0,0,,0,,,60,127
11980,note_on,1,0,0,,3,,,63,127
12100,note_off,120,0,0,,3,,,63,127
12100,note_off,0,0,0,,3,,,75,127
12101,note_on,1,0,0,,2,,,62,127
12101,note_on,0,0,0,,5,,,77,127
12221,note_off,120,0,0,,2,,,62,127
12222,note_on,1,0,0,,5,,,65,127
12342,note_off,120,0,0,,5,,,65,127
12342,note_off,0,0,0,,5,,,77,127
12343,note_on,1,0,0,,3,,,63,127
12343,note_on,0,0,0,,7,,,79,127
12463,note_off,120,0,0,,3,,,63,127
12464,note_on,1,0,0,,7,,,67,127
12584,note_off,120,0,0,,7,,,67,127
12584,note_off,0,0,0,,7,,,79,127
12585,note_on,1,0,0,,5,,,65,127
12585,note_on,0,0,0,,0,,,72,127
12705,note_off,120,0,0,,5,,,65,127
12706,note_on,1,0,0,,8,,,68,127
12826,note_off,120,0,0,,8,,,68,127
12826,note_off,0,0,0,,0,,,72,127
12827,note_on,1,0,0,,7,,,67,127
12827,note_on,0,0,0,,12,,,71,127
12947,note_off,120,0,0,,12,,,71,127
12948,note_on,1,0,0,,2,,,74,127
13068,note_off,120,0,0,,2,,,74,127
13068,note_off,0,0,0,,7,,,67,127
13069,note_on,1,0,0,,4,,,64,127
13069,note_on,0,0,0,,1,,,73,127
13189,note_off,120,0,0,,1,,,73,127
13190,note_on,1,0,0,,4,,,76,127
13310,note_off,120,0,0,,4,,,76,127
13310,note_off,0,0,0,,4,,,64,127
13311,note_on,1,0,0,,5,,,65,127
13311,note_on,0,0,0,,2,,,74,127
13431,note_off,120,0,0,,5,,,65,127
13432,note_on,1,0,0,,10,,,69,127
13552,note_off,120,0,0,,10,,,69,127
13552,note_off,0,0,0,,2,,,74,127
13553,note_on,1,0,0,,1,,,61,127
13553,note_on,0,0,0,,4,,,76,127
13673,note_off,120,0,0,,1,,,61,127
13674,note_on,1,0,0,,4,,,64,127
13794,note_off,120,0,0,,4,,,64,127
13794,note_off,0,0,0,,4,,,76,127
13795,note_on,1,0,0,,2,,,62,127
13795,note_on,0,0,0,,5,,,77,127
13915,note_off,120,0,0,,2,,,62,127
13916,note_on,1,0,0,,5,,,65,127
14036,note_off,120,0,0,,5,,,65,127
14036,note_off,0,0,0,,5,,,77,127
14037,note_on,1,0,0,,4,,,64,127
14037,note_on,0,0,0,,7,,,79,127
14157,note_off,120,0,0,,4,,,64,127
14158,note_on,1,0,0,,7,,,67,127
14278,note_off,120,0,0,,7,,,67,127
14278,note_off,0,0,0,,7,,,79,127
14279,note_on,1,0,0,,5,,,65,127
14279,note_on,0,0,0,,10,,,81,127
14399,note_off,120,0,0,,5,,,65,127
14400,note_on,1,0,0,,10,,,69,127
14520,note_off,120,0,0,,10,,,69,127
14520,note_off,0,0,0,,10,,,81,127
14521,note_on,1,0,0,,7,,,67,127
14521,note_on,0,0,0,,2,,,74,127
14641,note_off,120,0,0,,7,,,67,127
14642,note_on,1,0,0,,11,,,70,127
14762,note_off,120,0,0,,11,,,70,127
14762,note_off,0,0,0,,2,,,74,127
14763,note_on,1,0,0,,10,,,57,127
14763,note_on,0,0,0,,1,,,73,127
14883,note_off,120,0,0,,10,,,57,127
14884,note_on,1,0,0,,1,,,61,127
15004,note_off,120,0,0,,1,,,61,127
15004,note_off,0,0,0,,1,,,73,127
15005,note_on,1,0,0,,12,,,59,127
15005,note_on,0,0,0,,2,,,74,127
15125,note_off,120,0,0,,12,,,59,127
15126,note_on,1,0,0,,2,,,62,127
15246,note_off,120,0,0,,2,,,62,127
15246,note_off,0,0,0,,2,,,74,127
15247,note_on,1,0,0,,1,,,61,127
15247,note_on,0,0,0,,4,,,76,127
15367,note_off,120,0,0,,1,,,61,127
15368,note_on,1,0,0,,4,,,64,127
15488,note_off,120,0,0,,4,,,64,127
15488,note_off,0,0,0,,4,,,76,127
15489,note_on,1,0,0,,10,,,57,127
15489,note_on,0,0,0,,7,,,67,127
15609,note_off,120,0,0,,10,,,57,127
15610,note_on,1,0,0,,1,,,61,127
15730,note_off,120,0,0,,1,,,61,127
15730,note_off,0,0,0,,7,,,67,127
15731,note_on,1,0,0,,2,,,50,127
15731,note_on,0,0,0,,5,,,65,127
15851,note_off,120,0,0,,2,,,50,127
15852,note_on,1,0,0,,5,,,53,127
15972,note_off,120,0,0,,5,,,53,127
15972,note_off,0,0,0,,5,,,65,127
15973,note_on,1,0,0,,4,,,52,127
15973,note_on,0,0,0,,7,,,67,127
16093,note_off,120,0,0,,4,,,52,127
16094,note_on,1,0,0,,7,,,55,127
16214,note_off,120,0,0,,7,,,55,127
16214,note_off,0,0,0,,7,,,67,127
16215,note_on,1,0,0,,5,,,53,127
16215,note_on,0,0,0,,10,,,69,127
16335,note_off,120,0,0,,5,,,53,127
16336,note_on,1,0,0,,10,,,57,127
16456,note_off,120,0,0,,10,,,57,127
16456,note_off,0,0,0,,10,,,69,127
16457,note_on,1,0,0,,7,,,55,127
16457,note_on,0,0,0,,2,,,62,127
16577,note_off,120,0,0,,7,,,55,127
16578,note_on,1,0,0,,11,,,58,127
16698,note_off,120,0,0,,11,,,58,127
16698,note_off,0,0,0,,2,,,62,127
16699,note_on,1,0,0,,10,,,45,127
16699,note_on,0,0,0,,1,,,61,127
16819,note_off,120,0,0,,10,,,45,127
16820,note_on,1,0,0,,1,,,49,127
16940,note_off,120,0,0,,1,,,49,127
16940,note_off,0,0,0,,1,,,61,127
16941,note_on,1,0,0,,12,,,47,127
16941,note_on,0,0,0,,2,,,62,127
17061,note_off,120,0,0,,12,,,47,127
17062,note_on,1,0,0,,2,,,50,127
17182,note_off,120,0,0,,2,,,50,127
17182,note_off,0,0,0,,2,,,62,127
17183,note_on,1,0,0,,1,,,49,127
17183,note_on,0,0,0,,4,,,64,127
17303,note_off,120,0,0,,4,,,64,127
17304,note_on,1,0,0,,7,,,67,127
17424,note_off,120,0,0,,7,,,67,127
17424,note_off,0,0,0,,1,,,49,127
17425,note_on,1,0,0,,10,,,45,127
17425,note_on,0,0,0,,5,,,65,127
17545,note_off,120,0,0,,5,,,65,127
17546,note_on,1,0,0,,4,,,64,127
17666,note_off,120,0,0,,4,,,64,127
17666,note_off,0,0,0,,10,,,45,127
17667,note_on,1,0,0,,2,,,50,127
17667,note_on,0,0,0,,5,,,65,127
17787,note_off,120,0,0,,5,,,65,127
17788,note_on,1,0,0,,10,,,69,127
17908,note_off,120,0,0,,10,,,69,127
17908,note_off,0,0,0,,2,,,50,127
17909,note_on,1,0,0,,5,,,53,127
17909,note_on,0,0,0,,2,,,74,127
18030,note_on,121,0,0,,5,,,65,127
18150,note_off,120,0,0,,5,,,65,127
18150,note_off,0,0,0,,5,,,53,127
18151,note_on,1,0,0,,7,,,55,127
18151,note_on,0,0,0,,4,,,64,127
18271,note_off,120,0,0,,2,,,74,127
18272,note_on,1,0,0,,4,,,76,127
18392,note_off,120,0,0,,4,,,76,127
18392,note_off,0,0,0,,7,,,55,127
18393,note_on,1,0,0,,10,,,57,127
18393,note_on,0,0,0,,0,,,72,127
18513,note_off,120,0,0,,4,,,64,127
18514,note_on,1,0,0,,7,,,67,127
18634,note_off,120,0,0,,7,,,67,127
18634,note_off,0,0,0,,10,,,57,127
18635,note_on,1,0,0,,2,,,50,127
18635,note_on,0,0,0,,6,,,66,127
18755,note_off,120,0,0,,0,,,72,127
18756,note_on,1,0,0,,2,,,74,127
18876,note_off,120,0,0,,2,,,74,127
18876,note_off,0,0,0,,6,,,66,127
18876,note_off,0,0,0,,2,,,50,127
18877,note_on,1,0,0,,7,,,55,127
18877,note_on,0,0,0,,11,,,70,127
18998,note_on,121,0,0,,7,,,67,127
19118,note_off,120,0,0,,7,,,67,127
19118,note_off,0,0,0,,11,,,70,127
19118,note_off,0,0,0,,7,,,55,127
19119,note_on,1,0,0,,1,,,49,127
19119,note_on,0,0,0,,10,,,69,127
19240,note_on,121,0,0,,4,,,76,127
19360,note_off,120,0,0,,4,,,76,127
19360,note_off,0,0,0,,1,,,49,127
19361,note_on,1,0,0,,2,,,50,127
19361,note_on,0,0,0,,5,,,77,127
19481,note_off,120,0,0,,10,,,69,127
19482,note_on,1,0,0,,2,,,74,127
19602,note_off,120,0,0,,2,,,74,127
19602,note_off,0,0,0,,5,,,77,127
19602,note_off,0,0,0,,2,,,50,127
19603,note_on,1,0,0,,10,,,57,127
19603,note_on,0,0,0,,1,,,73,127
19603,note_on,0,0,0,,4,,,76,127
19723,note_off,120,0,0,,1,,,73,127
19724,note_on,1,0,0,,4,,,64,127
19844,note_off,120,0,0,,4,,,64,127
19844,note_off,0,0,0,,4,,,76,127
19845,note_on,1,0,0,,5,,,65,127
19845,note_on,0,0,0,,2,,,74,127
19965,note_off,120,0,0,,5,,,65,127
19966,note_on,1,0,0,,2,,,62,127
20086,note_off,120,0,0,,2,,,62,127
20087,note_on,1,0,0,,4,,,64,127
20207,note_off,120,0,0,,4,,,64,127
20208,note_on,1,0,0,,5,,,65,127
20328,note_off,120,0,0,,5,,,65,127
20329,note_on,1,0,0,,7,,,67,127
20449,note_off,120,0,0,,2,,,74,127
20450,note_on,1,0,0,,1,,,73,127
20570,note_off,120,0,0,,1,,,73,127
20570,note_off,0,0,0,,7,,,67,127
20570,note_off,0,0,0,,10,,,57,127
20571,note_on,1,0,0,,2,,,62,127
20571,note_on,0,0,0,,2,,,74,127
20692,note_on,121,0,0,,11,,,70,127
20812,note_off,120,0,0,,11,,,70,127
20813,note_on,1,0,0,,6,,,66,127
20813,note_on,0,0,0,,10,,,69,127
20933,note_off,120,0,0,,10,,,69,127
20933,note_off,0,0,0,,6,,,66,127
20934,note_off,1,0,0,,2,,,74,127
20934,note_on,0,0,0,,4,,,64,127
20934,note_on,0,0,0,,7,,,67,127
21054,note_off,120,0,0,,7,,,67,127
21054,note_off,0,0,0,,4,,,64,127
21055,note_on,1,0,0,,6,,,66,127
21055,note_on,0,0,0,,10,,,69,127
21175,note_off,120,0,0,,10,,,69,127
21175,note_off,0,0,0,,6,,,66,127
21176,note_on,1,0,0,,7,,,67,127
21176,note_on,0,0,0,,11,,,70,127
21296,note_off,120,0,0,,11,,,70,127
21296,note_off,0,0,0,,7,,,67,127
21297,note_on,1,0,0,,10,,,69,127
21297,note_on,0,0,0,,0,,,72,127
21417,note_off,120,0,0,,0,,,72,127
21417,note_off,0,0,0,,10,,,69,127
21418,note_on,1,0,0,,6,,,66,127
21418,note_on,0,0,0,,10,,,69,127
21538,note_off,120,0,0,,10,,,69,127
21538,note_off,0,0,0,,6,,,66,127
21538,note_off,0,0,0,,2,,,62,127
21539,note_on,1,0,0,,7,,,67,127
21539,note_on,0,0,0,,11,,,70,127
21659,note_off,120,0,0,,11,,,70,127
21660,note_on,1,0,0,,1,,,73,127
21780,note_off,120,0,0,,1,,,73,127
21780,note_off,0,0,0,,7,,,67,127
21781,note_on,1,0,0,,4,,,64,127
21781,note_on,0,0,0,,2,,,74,127
21901,note_off,120,0,0,,2,,,74,127
21902,note_on,1,0,0,,4,,,76,127
22022,note_off,120,0,0,,4,,,76,127
22022,note_off,0,0,0,,4,,,64,127
22023,note_on,1,0,0,,5,,,65,127
22023,note_on,0,0,0,,10,,,69,127
22143,note_off,120,0,0,,10,,,69,127
22144,note_on,1,0,0,,7,,,79,127
22264,note_off,120,0,0,,7,,,79,127
22264,note_off,0,0,0,,5,,,65,127
22265,note_on,1,0,0,,1,,,61,127
22265,note_on,0,0,0,,5,,,77,127
22385,note_off,120,0,0,,5,,,77,127
22386,note_on,1,0,0,,4,,,76,127
22506,note_off,120,0,0,,4,,,76,127
22506,note_off,0,0,0,,1,,,61,127
22507,note_on,1,0,0,,2,,,62,127
22507,note_on,0,0,0,,5,,,77,127
22627,note_off,120,0,0,,5,,,77,127
22628,note_on,1,0,0,,4,,,76,127
22748,note_off,120,0,0,,4,,,76,127
22748,note_off,0,0,0,,2,,,62,127
22749,note_on,1,0,0,,10,,,57,127
22749,note_on,0,0,0,,10,,,69,127
22749,note_on,0,0,0,,2,,,74,127
22869,note_off,120,0,0,,2,,,74,127
22870,note_on,1,0,0,,0,,,72,127
22990,note_off,120,0,0,,0,,,72,127
22990,note_off,0,0,0,,10,,,57,127
22991,note_on,1,0,0,,11,,,58,127
22991,note_on,0,0,0,,2,,,74,127
23111,note_off,120,0,0,,2,,,74,127
23112,note_on,1,0,0,,4,,,76,127
23232,note_off,120,0,0,,4,,,76,127
23232,note_off,0,0,0,,10,,,69,127
23233,note_on,1,0,0,,7,,,67,127
23233,note_on,0,0,0,,5,,,77,127
23353,note_off,120,0,0,,5,,,77,127
23354,note_on,1,0,0,,7,,,79,127
23474,note_off,120,0,0,,7,,,79,127
23474,note_off,0,0,0,,7,,,67,127
23474,note_off,0,0,0,,11,,,58,127
23475,note_on,1,0,0,,10,,,45,127
23475,note_on,0,0,0,,10,,,81,127
23596,note_on,121,0,0,,1,,,73,127
23626,note_off,30,0,0,,10,,,81,127
23716,note_off,90,0,0,,1,,,73,127
23717,note_on,1,0,0,,2,,,74,127
23837,note_off,120,0,0,,2,,,74,127
23838,note_on,1,0,0,,4,,,76,127
23958,note_off,120,0,0,,4,,,76,127
23959,note_on,1,0,0,,10,,,69,127
24079,note_off,120,0,0,,10,,,69,127
24079,note_off,0,0,0,,10,,,45,127
24080,note_on,1,0,0,,5,,,65,127
24080,note_on,0,0,0,,2,,,74,127
24200,note_off,120,0,0,,2,,,74,127
24200,note_off,0,0,0,,5,,,65,127
24201,note_on,1,0,0,,4,,,64,127
24201,note_on,0,0,0,,1,,,73,127
24321,note_off,120,0,0,,1,,,73,127
24321,note_off,0,0,0,,4,,,64,127
24322,note_on,1,0,0,,2,,,62,127
24322,note_on,0,0,0,,12,,,71,127
24442,note_off,120,0,0,,12,,,71,127
24442,note_off,0,0,0,,2,,,62,127
24443,note_on,1,0,0,,10,,,45,127
24443,note_on,0,0,0,,10,,,81,127
24564,note_on,121,0,0,,1,,,73,127
24594,note_off,30,0,0,,10,,,81,127
24684,note_off,90,0,0,,1,,,73,127
24685,note_on,1,0,0,,2,,,74,127
24805,note_off,120,0,0,,2,,,74,127
24806,note_on,1,0,0,,4,,,76,127
24926,note_off,120,0,0,,4,,,76,127
24927,note_on,1,0,0,,10,,,69,127
25047,note_off,120,0,0,,10,,,69,127
25047,note_off,0,0,0,,10,,,45,127
25048,note_on,1,0,0,,5,,,65,127
25048,note_on,0,0,0,,2,,,74,127
25168,note_off,120,0,0,,2,,,74,127
25168,note_off,0,0,0,,5,,,65,127
25169,note_on,1,0,0,,4,,,64,127
25169,note_on,0,0,0,,1,,,73,127
25289,note_off,120,0,0,,1,,,73,127
25289,note_off,0,0,0,,4,,,64,127
25290,note_on,1,0,0,,2,,,62,127
25290,note_on,0,0,0,,12,,,71,127
25410,note_off,120,0,0,,12,,,71,127
25410,note_off,0,0,0,,2,,,62,127
25411,note_on,1,0,0,,10,,,45,127
25411,note_on,0,0,0,,10,,,81,127
25532,note_on,121,0,0,,1,,,73,127
25562,note_off,30,0,0,,10,,,81,127
25652,note_off,90,0,0,,1,,,73,127
25653,note_on,1,0,0,,2,,,74,127
25773,note_off,120,0,0,,2,,,74,127
25774,note_on,1,0,0,,4,,,76,127
25894,note_off,120,0,0,,4,,,76,127
25895,note_on,1,0,0,,10,,,69,127
26015,note_off,120,0,0,,10,,,69,127
26015,note_off,0,0,0,,10,,,45,127
26016,note_on,1,0,0,,5,,,65,127
26016,note_on,0,0,0,,2,,,74,127
26136,note_off,120,0,0,,2,,,74,127
26136,note_off,0,0,0,,5,,,65,127
26137,note_on,1,0,0,,4,,,64,127
26137,note_on,0,0,0,,1,,,73,127
26257,note_off,120,0,0,,1,,,73,127
26257,note_off,0,0,0,,4,,,64,127
26258,note_on,1,0,0,,2,,,62,127
26258,note_on,0,0,0,,12,,,71,127
26378,note_off,120,0,0,,12,,,71,127
26378,note_off,0,0,0,,2,,,62,127
26379,note_on,1,0,0,,10,,,69,127
26379,note_on,0,0,0,,1,,,73,127
26499,note_off,120,0,0,,10,,,69,127
26500,note_on,1,0,0,,4,,,64,127
26620,note_off,120,0,0,,4,,,64,127
26621,note_on,1,0,0,,1,,,61,127
26741,note_off,120,0,0,,1,,,61,127
26742,note_on,1,0,0,,4,,,64,127
26862,note_off,120,0,0,,4,,,64,127
26863,note_on,1,0,0,,10,,,57,127
26983,note_off,120,0,0,,10,,,57,127
26983,note_off,0,0,0,,1,,,73,127
26984,note_on,1,0,0,,7,,,67,127
26984,note_on,0,0,0,,1,,,73,127
27104,note_off,120,0,0,,1,,,73,127
27104,note_off,0,0,0,,7,,,67,127
27105,note_on,1,0,0,,5,,,65,127
27105,note_on,0,0,0,,2,,,74,127
27225,note_off,120,0,0,,2,,,74,127
27225,note_off,0,0,0,,5,,,65,127
27226,note_on,1,0,0,,4,,,64,127
27226,note_on,0,0,0,,4,,,76,127
27346,note_off,120,0,0,,4,,,76,127
27346,note_off,0,0,0,,4,,,64,127
27347,note_on,1,0,0,,10,,,57,127
27347,note_on,0,0,0,,10,,,69,127
27467,note_off,120,0,0,,10,,,57,127
27468,note_on,1,0,0,,5,,,65,127
27588,note_off,120,0,0,,5,,,65,127
27589,note_on,1,0,0,,4,,,64,127
27589,note_on,0,0,0,,10,,,81,127
27709,note_off,120,0,0,,4,,,64,127
27710,note_on,1,0,0,,2,,,62,127
27826,note_off,116,0,0,,10,,,69,127
27830,note_off,4,0,0,,2,,,62,127
27831,note_on,1,0,0,,10,,,57,127
27951,note_off,120,0,0,,10,,,57,127
27951,note_off,0,0,0,,10,,,81,127
27952,note_on,1,0,0,,4,,,64,127
27952,note_on,0,0,0,,7,,,79,127
28072,note_off,120,0,0,,7,,,79,127
28072,note_off,0,0,0,,4,,,64,127
28073,note_on,1,0,0,,2,,,62,127
28073,note_on,0,0,0,,5,,,77,127
28193,note_off,120,0,0,,5,,,77,127
28193,note_off,0,0,0,,2,,,62,127
28194,note_on,1,0,0,,1,,,61,127
28194,note_on,0,0,0,,4,,,76,127
28314,note_off,120,0,0,,4,,,76,127
28314,note_off,0,0,0,,1,,,61,127
28315,note_on,1,0,0,,2,,,62,127
28315,note_on,0,0,0,,5,,,77,127
28436,note_on,121,0,0,,10,,,69,127
28556,note_off,120,0,0,,10,,,69,127
28556,note_off,0,0,0,,5,,,77,127
28556,note_off,0,0,0,,2,,,62,127
28557,note_on,1,0,0,,7,,,55,127
28557,note_on,0,0,0,,11,,,70,127
28557,note_on,0,0,0,,4,,,76,127
28677,note_off,120,0,0,,4,,,76,127
28678,note_on,1,0,0,,2,,,74,127
28798,note_off,120,0,0,,2,,,74,127
28798,note_off,0,0,0,,7,,,55,127
28799,note_on,1,0,0,,10,,,57,127
28799,note_on,0,0,0,,1,,,73,127
28919,note_off,120,0,0,,11,,,70,127
28920,note_on,1,0,0,,10,,,69,127
29040,note_off,120,0,0,,1,,,73,127
29040,note_off,0,0,0,,10,,,57,127
29041,note_on,1,0,0,,11,,,58,127
29041,note_on,0,0,0,,2,,,74,127
29161,note_off,120,0,0,,10,,,69,127
29162,note_on,1,0,0,,7,,,67,127
29282,note_off,120,0,0,,7,,,67,127
29282,note_off,0,0,0,,2,,,74,127
29282,note_off,0,0,0,,11,,,58,127
29283,note_on,1,0,0,,10,,,45,127
29283,note_on,0,0,0,,4,,,76,127
29283,note_on,0,0,0,,10,,,69,127
29283,note_on,0,0,0,,1,,,73,127
29403,note_off,120,0,0,,1,,,73,127
29403,note_off,0,0,0,,10,,,69,127
29403,note_off,0,0,0,,4,,,76,127
29404,note_on,1,0,0,,4,,,64,127
29524,note_off,120,0,0,,4,,,64,127
29525,note_on,1,0,0,,5,,,65,127
29645,note_off,120,0,0,,5,,,65,127
29646,note_on,1,0,0,,7,,,67,127
29766,note_off,120,0,0,,7,,,67,127
29767,note_on,1,0,0,,4,,,64,127
29767,note_on,0,0,0,,1,,,61,127
29887,note_off,120,0,0,,10,,,45,127
29888,note_on,1,0,0,,10,,,57,127
30008,note_off,120,0,0,,10,,,57,127
30008,note_off,0,0,0,,1,,,61,127
30008,note_off,0,0,0,,4,,,64,127
30009,note_on,1,0,0,,7,,,55,127
30009,note_on,0,0,0,,2,,,62,127
30009,note_on,0,0,0,,5,,,65,127
30129,note_off,120,0,0,,7,,,55,127
30130,note_on,1,0,0,,5,,,53,127
30250,note_off,120,0,0,,5,,,53,127
30250,note_off,0,0,0,,5,,,65,127
30250,note_off,0,0,0,,2,,,62,127
30251,note_on,1,0,0,,4,,,52,127
30251,note_on,0,0,0,,7,,,67,127
30372,note_on,121,0,0,,4,,,64,127
30492,note_off,120,0,0,,4,,,64,127
30492,note_off,0,0,0,,7,,,67,127
30492,note_off,0,0,0,,4,,,52,127
30493,note_on,1,0,0,,10,,,57,127
30493,note_on,0,0,0,,2,,,62,127
30493,note_on,0,0,0,,5,,,65,127
30613,note_off,120,0,0,,5,,,65,127
30613,note_off,0,0,0,,2,,,62,127
30614,note_on,1,0,0,,1,,,61,127
30614,note_on,0,0,0,,4,,,64,127
30734,note_off,120,0,0,,4,,,64,127
30734,note_off,0,0,0,,1,,,61,127
30734,note_off,0,0,0,,10,,,57,127
30735,note_on,1,0,0,,2,,,50,127
30735,note_on,0,0,0,,5,,,65,127
30735,note_on,0,0,0,,2,,,62,127
30855,note_off,120,0,0,,2,,,62,127
30855,note_off,0,0,0,,2,,,50,127
30856,note_on,1,0,0,,2,,,62,127
30976,note_off,120,0,0,,2,,,62,127
30976,note_off,0,0,0,,5,,,65,127
30977,note_on,1,0,0,,1,,,61,127
30977,note_on,0,0,0,,7,,,67,127
31097,note_off,120,0,0,,1,,,61,127
31098,note_on,1,0,0,,12,,,59,127
31218,note_off,120,0,0,,12,,,59,127
31218,note_off,0,0,0,,7,,,67,127
31219,note_on,1,0,0,,10,,,45,127
31219,note_on,0,0,0,,10,,,69,127
31340,note_on,121,0,0,,1,,,61,127
31370,note_off,30,0,0,,10,,,69,127
31460,note_off,90,0,0,,1,,,61,127
31461,note_on,1,0,0,,2,,,62,127
31581,note_off,120,0,0,,2,,,62,127
31582,note_on,1,0,0,,4,,,64,127
31702,note_off,120,0,0,,4,,,64,127
31703,note_on,1,0,0,,10,,,57,127
31823,note_off,120,0,0,,10,,,57,127
31823,note_off,0,0,0,,10,,,45,127
31824,note_on,1,0,0,,5,,,53,127
31824,note_on,0,0,0,,2,,,62,127
31944,note_off,120,0,0,,2,,,62,127
31944,note_off,0,0,0,,5,,,53,127
31945,note_on,1,0,0,,4,,,52,127
31945,note_on,0,0,0,,1,,,61,127
32065,note_off,120,0,0,,1,,,61,127
32065,note_off,0,0,0,,4,,,52,127
32066,note_on,1,0,0,,2,,,50,127
32066,note_on,0,0,0,,12,,,59,127
32186,note_off,120,0,0,,12,,,59,127
32186,note_off,0,0,0,,2,,,50,127
32187,note_on,1,0,0,,10,,,45,127
32187,note_on,0,0,0,,10,,,69,127
32308,note_on,121,0,0,,1,,,61,127
32338,note_off,30,0,0,,10,,,69,127
32428,note_off,90,0,0,,1,,,61,127
32429,note_on,1,0,0,,2,,,62,127
32549,note_off,120,0,0,,2,,,62,127
32550,note_on,1,0,0,,4,,,64,127
32670,note_off,120,0,0,,4,,,64,127
32671,note_on,1,0,0,,10,,,57,127
32791,note_off,120,0,0,,10,,,57,127
32791,note_off,0,0,0,,10,,,45,127
32792,note_on,1,0,0,,5,,,53,127
32792,note_on,0,0,0,,2,,,62,127
32912,note_off,120,0,0,,2,,,62,127
32912,note_off,0,0,0,,5,,,53,127
32913,note_on,1,0,0,,4,,,52,127
32913,note_on,0,0,0,,1,,,61,127
33033,note_off,120,0,0,,1,,,61,127
33033,note_off,0,0,0,,4,,,52,127
33034,note_on,1,0,0,,2,,,50,127
33034,note_on,0,0,0,,12,,,59,127
33154,note_off,120,0,0,,12,,,59,127
33154,note_off,0,0,0,,2,,,50,127
33155,note_on,1,0,0,,10,,,57,127
33155,note_on,0,0,0,,1,,,61,127
33275,note_off,120,0,0,,10,,,57,127
33276,note_on,1,0,0,,4,,,52,127
33396,note_off,120,0,0,,4,,,52,127
33397,note_on,1,0,0,,1,,,49,127
33517,note_off,120,0,0,,1,,,49,127
33518,note_on,1,0,0,,4,,,52,127
33638,note_off,120,0,0,,4,,,52,127
33639,note_on,1,0,0,,10,,,45,127
33759,note_off,120,0,0,,10,,,45,127
33759,note_off,0,0,0,,1,,,61,127
33760,note_on,1,0,0,,7,,,55,127
33760,note_on,0,0,0,,1,,,61,127
33880,note_off,120,0,0,,1,,,61,127
33880,note_off,0,0,0,,7,,,55,127
33881,note_on,1,0,0,,5,,,53,127
33881,note_on,0,0,0,,2,,,62,127
34001,note_off,120,0,0,,2,,,62,127
34001,note_off,0,0,0,,5,,,53,127
34002,note_on,1,0,0,,4,,,52,127
34002,note_on,0,0,0,,4,,,64,127
34122,note_off,120,0,0,,4,,,64,127
34122,note_off,0,0,0,,4,,,52,127
34123,note_on,1,0,0,,10,,,45,127
34123,note_on,0,0,0,,10,,,57,127
34243,note_off,120,0,0,,10,,,45,127
34244,note_on,1,0,0,,5,,,53,127
34364,note_off,120,0,0,,5,,,53,127
34365,note_on,1,0,0,,4,,,52,127
34365,note_on,0,0,0,,10,,,69,127
34485,note_off,120,0,0,,4,,,52,127
34486,note_on,1,0,0,,2,,,50,127
34602,note_off,116,0,0,,10,,,57,127
34606,note_off,4,0,0,,2,,,50,127
34607,note_on,1,0,0,,10,,,45,127
34727,note_off,120,0,0,,10,,,45,127
34727,note_off,0,0,0,,10,,,69,127
34728,note_on,1,0,0,,4,,,52,127
34728,note_on,0,0,0,,7,,,67,127
34848,note_off,120,0,0,,7,,,67,127
34848,note_off,0,0,0,,4,,,52,127
34849,note_on,1,0,0,,2,,,50,127
34849,note_on,0,0,0,,5,,,65,127
34969,note_off,120,0,0,,5,,,65,127
34969,note_off,0,0,0,,2,,,50,127
34970,note_on,1,0,0,,1,,,49,127
34970,note_on,0,0,0,,4,,,64,127
35090,note_off,120,0,0,,4,,,64,127
35090,note_off,0,0,0,,1,,,49,127
35091,note_on,1,0,0,,2,,,50,127
35091,note_on,0,0,0,,5,,,65,127
35211,note_off,120,0,0,,5,,,65,127
35212,note_on,1,0,0,,10,,,69,127
35332,note_off,120,0,0,,10,,,69,127
35332,note_off,0,0,0,,2,,,50,127
35333,note_on,1,0,0,,7,,,55,127
35333,note_on,0,0,0,,2,,,74,127
35454,note_on,121,0,0,,5,,,65,127
35574,note_off,120,0,0,,5,,,65,127
35574,note_off,0,0,0,,7,,,55,127
35575,note_on,1,0,0,,10,,,57,127
35575,note_on,0,0,0,,4,,,64,127
35695,note_off,120,0,0,,2,,,74,127
35696,note_on,1,0,0,,4,,,76,127
35816,note_off,120,0,0,,4,,,76,127
35816,note_off,0,0,0,,10,,,57,127
35817,note_on,1,0,0,,10,,,45,127
35817,note_on,0,0,0,,1,,,73,127
35937,note_off,120,0,0,,4,,,64,127
35938,note_on,1,0,0,,7,,,67,127
36058,note_off,120,0,0,,1,,,73,127
36058,note_off,0,0,0,,10,,,45,127
36059,note_on,1,0,0,,2,,,38,127
36059,note_on,0,0,0,,2,,,74,127
36179,note_off,120,0,0,,7,,,67,127
36180,note_on,1,0,0,,11,,,70,127
36300,note_off,120,0,0,,11,,,70,127
36301,note_on,1,0,0,,10,,,69,127
36421,note_off,120,0,0,,10,,,69,127
36422,note_on,1,0,0,,7,,,67,127
36542,note_off,120,0,0,,7,,,67,127
36542,note_off,0,0,0,,2,,,74,127
36543,note_on,1,0,0,,6,,,66,127
36543,note_on,0,0,0,,10,,,69,127
36663,note_off,120,0,0,,6,,,66,127
36664,note_on,1,0,0,,2,,,62,127
36784,note_off,120,0,0,,2,,,62,127
36784,note_off,0,0,0,,10,,,69,127
36785,note_on,1,0,0,,7,,,67,127
36785,note_on,0,0,0,,4,,,64,127
36905,note_off,120,0,0,,4,,,64,127
36906,note_on,1,0,0,,1,,,61,127
37026,note_off,120,0,0,,1,,,61,127
37026,note_off,0,0,0,,7,,,67,127
37026,note_off,0,0,0,,2,,,38,127
37027,note_on,1,0,0,,2,,,38,127
37027,note_on,0,0,0,,2,,,62,127
37027,note_on,0,0,0,,6,,,66,127
37147,note_off,120,0,0,,2,,,62,127
37148,note_on,1,0,0,,0,,,60,127
37268,note_off,120,0,0,,0,,,60,127
37268,note_off,0,0,0,,6,,,66,127
37269,note_on,1,0,0,,11,,,58,127
37269,note_on,0,0,0,,2,,,62,127
37389,note_off,120,0,0,,11,,,58,127
37390,note_on,1,0,0,,10,,,57,127
37510,note_off,120,0,0,,10,,,57,127
37511,note_on,1,0,0,,7,,,55,127
37631,note_off,120,0,0,,7,,,55,127
37632,note_on,1,0,0,,11,,,58,127
37752,note_off,120,0,0,,11,,,58,127
37752,note_off,0,0,0,,2,,,62,127
37753,note_on,1,0,0,,10,,,57,127
37753,note_on,0,0,0,,1,,,61,127
37873,note_off,120,0,0,,10,,,57,127
37874,note_on,1,0,0,,7,,,55,127
37994,note_off,120,0,0,,7,,,55,127
37994,note_off,0,0,0,,1,,,61,127
37994,note_off,0,0,0,,2,,,38,127
37995,note_on,1,0,0,,2,,,38,127
37995,note_on,0,0,0,,6,,,54,127
37995,note_on,0,0,0,,2,,,62,127
38115,note_off,120,0,0,,6,,,54,127
38116,note_on,1,0,0,,10,,,57,127
38236,note_off,120,0,0,,10,,,57,127
38237,note_on,1,0,0,,7,,,55,127
38357,note_off,120,0,0,,2,,,62,127
38358,note_on,1,0,0,,4,,,64,127
38478,note_off,120,0,0,,4,,,64,127
38478,note_off,0,0,0,,7,,,55,127
38479,note_on,1,0,0,,6,,,66,127
38479,note_on,0,0,0,,10,,,57,127
38599,note_off,120,0,0,,10,,,57,127
38600,note_on,1,0,0,,2,,,62,127
38720,note_off,120,0,0,,2,,,62,127
38721,note_on,1,0,0,,11,,,58,127
38841,note_off,120,0,0,,6,,,66,127
38842,note_on,1,0,0,,7,,,67,127
38962,note_off,120,0,0,,11,,,58,127
38962,note_off,0,0,0,,2,,,38,127
38963,note_on,1,0,0,,2,,,38,127
38963,note_on,0,0,0,,1,,,61,127
39083,note_off,120,0,0,,7,,,67,127
39084,note_on,1,0,0,,10,,,69,127
39204,note_off,120,0,0,,1,,,61,127
39205,note_on,1,0,0,,2,,,62,127
39325,note_off,120,0,0,,10,,,69,127
39326,note_on,1,0,0,,6,,,66,127
39446,note_off,120,0,0,,6,,,66,127
39447,note_on,1,0,0,,11,,,70,127
39567,note_off,120,0,0,,2,,,62,127
39568,note_on,1,0,0,,7,,,67,127
39688,note_off,120,0,0,,7,,,67,127
39689,note_on,1,0,0,,4,,,64,127
39809,note_off,120,0,0,,11,,,70,127
39810,note_on,1,0,0,,1,,,73,127
39810,note_on,0,0,0,,10,,,69,127
39810,note_on,0,0,0,,7,,,67,127
39930,note_off,120,0,0,,7,,,67,127
39930,note_off,0,0,0,,1,,,73,127
39930,note_off,0,0,0,,4,,,64,127
39931,note_on,1,0,0,,2,,,74,127
39931,note_on,0,0,0,,6,,,66,127
39931,note_on,0,0,0,,2,,,62,127
40656,note_off,725,0,0,,2,,,62,127
40657,note_off,1,0,0,,6,,,66,127
40657,note_off,0,0,0,,2,,,74,127
40658,note_off,1,0,0,,10,,,69,127
40658,note_off,0,0,0,,2,,,38,127
40666,note_on,8,0,0,,2,,,62,127
40747,note_off,81,0,0,,2,,,62,127
40780,note_on,33,0,0,,2,,,62,127
40901,note_on,121,0,0,,6,,,66,127
40931,note_off,30,0,0,,2,,,62,127
41021,note_off,90,0,0,,6,,,66,127
41022,note_on,1,0,0,,4,,,64,127
41142,note_off,120,0,0,,4,,,64,127
41143,note_on,1,0,0,,7,,,67,127
41263,note_off,120,0,0,,7,,,67,127
41264,note_on,1,0,0,,6,,,66,127
41384,note_off,120,0,0,,6,,,66,127
41385,note_on,1,0,0,,10,,,69,127
41505,note_off,120,0,0,,10,,,69,127
41506,note_on,1,0,0,,7,,,67,127
41626,note_off,120,0,0,,7,,,67,127
41627,note_on,1,0,0,,11,,,70,127
41627,note_on,0,0,0,,2,,,50,127
41738,note_off,111,0,0,,2,,,50,127
41747,note_off,9,0,0,,11,,,70,127
41748,note_on,1,0,0,,10,,,69,127
41748,note_on,0,0,0,,2,,,50,127
41868,note_off,120,0,0,,2,,,50,127
41869,note_on,1,0,0,,6,,,54,127
41989,note_off,120,0,0,,6,,,54,127
41990,note_on,1,0,0,,4,,,52,127
42110,note_off,120,0,0,,4,,,52,127
42111,note_on,1,0,0,,7,,,55,127
42231,note_off,120,0,0,,7,,,55,127
42232,note_on,1,0,0,,6,,,54,127
42352,note_off,120,0,0,,6,,,54,127
42353,note_on,1,0,0,,10,,,57,127
42473,note_off,120,0,0,,10,,,57,127
42473,note_off,0,0,0,,10,,,69,127
42474,note_on,1,0,0,,11,,,70,127
42474,note_on,0,0,0,,7,,,55,127
42594,note_off,120,0,0,,7,,,55,127
42595,note_on,1,0,0,,11,,,58,127
42715,note_off,120,0,0,,11,,,58,127
42715,note_off,0,0,0,,11,,,70,127
42716,note_on,1,0,0,,0,,,72,127
42716,note_on,0,0,0,,10,,,57,127
42836,note_off,120,0,0,,10,,,57,127
42837,note_on,1,0,0,,0,,,60,127
42957,note_off,120,0,0,,0,,,60,127
42957,note_off,0,0,0,,0,,,72,127
42958,note_on,1,0,0,,2,,,74,127
42958,note_on,0,0,0,,11,,,58,127
43078,note_off,120,0,0,,11,,,58,127
43079,note_on,1,0,0,,2,,,62,127
43199,note_off,120,0,0,,2,,,62,127
43199,note_off,0,0,0,,2,,,74,127
43200,note_on,1,0,0,,3,,,75,127
43200,note_on,0,0,0,,0,,,60,127
43320,note_off,120,0,0,,0,,,60,127
43321,note_on,1,0,0,,3,,,63,127
43441,note_off,120,0,0,,3,,,63,127
43441,note_off,0,0,0,,3,,,75,127
43442,note_on,1,0,0,,6,,,66,127
43442,note_on,0,0,0,,2,,,62,127
43562,note_off,120,0,0,,2,,,62,127
43563,note_on,1,0,0,,0,,,60,127
43683,note_off,120,0,0,,0,,,60,127
43683,note_off,0,0,0,,6,,,66,127
43684,note_on,1,0,0,,7,,,67,127
43684,note_on,0,0,0,,11,,,58,127
43804,note_off,120,0,0,,11,,,58,127
43805,note_on,1,0,0,,0,,,60,127
43925,note_off,120,0,0,,0,,,60,127
43925,note_off,0,0,0,,7,,,67,127
43926,note_on,1,0,0,,10,,,69,127
43926,note_on,0,0,0,,10,,,57,127
44046,note_off,120,0,0,,10,,,57,127
44047,note_on,1,0,0,,11,,,58,127
44167,note_off,120,0,0,,11,,,58,127
44167,note_off,0,0,0,,10,,,69,127
44168,note_on,1,0,0,,11,,,70,127
44168,note_on,0,0,0,,7,,,55,127
44288,note_off,120,0,0,,7,,,55,127
44289,note_on,1,0,0,,10,,,57,127
44409,note_off,120,0,0,,10,,,57,127
44409,note_off,0,0,0,,11,,,70,127
44410,note_on,1,0,0,,12,,,71,127
44410,note_on,0,0,0,,2,,,62,127
44410,note_on,0,0,0,,5,,,53,127
44530,note_off,120,0,0,,5,,,53,127
44531,note_on,1,0,0,,7,,,55,127
44651,note_off,120,0,0,,7,,,55,127
44651,note_off,0,0,0,,2,,,62,127
44651,note_off,0,0,0,,12,,,71,127
44652,note_on,1,0,0,,0,,,72,127
44652,note_on,0,0,0,,3,,,63,127
44652,note_on,0,0,0,,3,,,51,127
44772,note_off,120,0,0,,3,,,51,127
44773,note_on,1,0,0,,5,,,53,127
44893,note_off,120,0,0,,5,,,53,127
44893,note_off,0,0,0,,3,,,63,127
44893,note_off,0,0,0,,0,,,72,127
44894,note_on,1,0,0,,2,,,74,127
44894,note_on,0,0,0,,5,,,65,127
44894,note_on,0,0,0,,2,,,50,127
45014,note_off,120,0,0,,2,,,50,127
45015,note_on,1,0,0,,3,,,51,127
45135,note_off,120,0,0,,3,,,51,127
45135,note_off,0,0,0,,5,,,65,127
45135,note_off,0,0,0,,2,,,74,127
45136,note_on,1,0,0,,3,,,75,127
45136,note_on,0,0,0,,7,,,67,127
45136,note_on,0,0,0,,0,,,48,127
45256,note_off,120,0,0,,0,,,48,127
45257,note_on,1,0,0,,2,,,50,127
45377,note_off,120,0,0,,2,,,50,127
45377,note_off,0,0,0,,3,,,75,127
45378,note_on,1,0,0,,7,,,79,127
45378,note_on,0,0,0,,11,,,46,127
45498,note_off,120,0,0,,11,,,46,127
45499,note_on,1,0,0,,0,,,48,127
45619,note_off,120,0,0,,0,,,48,127
45619,note_off,0,0,0,,7,,,79,127
45619,note_off,0,0,0,,7,,,67,127
45620,note_on,1,0,0,,5,,,77,127
45620,note_on,0,0,0,,8,,,44,127
45740,note_off,120,0,0,,8,,,44,127
45741,note_on,1,0,0,,11,,,46,127
45861,note_off,120,0,0,,11,,,46,127
45861,note_off,0,0,0,,5,,,77,127
45862,note_on,1,0,0,,3,,,75,127
45862,note_on,0,0,0,,7,,,43,127
45982,note_off,120,0,0,,7,,,43,127
45983,note_on,1,0,0,,8,,,44,127
46103,note_off,120,0,0,,8,,,44,127
46103,note_off,0,0,0,,3,,,75,127
46104,note_on,1,0,0,,2,,,74,127
46104,note_on,0,0,0,,5,,,41,127
46224,note_off,120,0,0,,5,,,41,127
46225,note_on,1,0,0,,8,,,44,127
46345,note_off,120,0,0,,8,,,44,127
46345,note_off,0,0,0,,2,,,74,127
46346,note_on,1,0,0,,0,,,72,127
46346,note_on,0,0,0,,7,,,43,127
46466,note_off,120,0,0,,7,,,43,127
46467,note_on,1,0,0,,5,,,41,127
46587,note_off,120,0,0,,5,,,41,127
46587,note_off,0,0,0,,0,,,72,127
46588,note_on,1,0,0,,7,,,79,127
46588,note_on,0,0,0,,7,,,43,127
46709,note_on,121,0,0,,12,,,71,127
46739,note_off,30,0,0,,7,,,79,127
46829,note_off,90,0,0,,12,,,71,127
46830,note_on,1,0,0,,0,,,72,127
46950,note_off,120,0,0,,0,,,72,127
46951,note_on,1,0,0,,2,,,74,127
47071,note_off,120,0,0,,2,,,74,127
47072,note_on,1,0,0,,7,,,67,127
47192,note_off,120,0,0,,7,,,67,127
47192,note_off,0,0,0,,7,,,43,127
47193,note_on,1,0,0,,0,,,72,127
47193,note_on,0,0,0,,3,,,63,127
47313,note_off,120,0,0,,3,,,63,127
47313,note_off,0,0,0,,0,,,72,127
47314,note_on,1,0,0,,12,,,71,127
47314,note_on,0,0,0,,2,,,62,127
47434,note_off,120,0,0,,2,,,62,127
47434,note_off,0,0,0,,12,,,71,127
47435,note_on,1,0,0,,10,,,69,127
47435,note_on,0,0,0,,0,,,60,127
47555,note_off,120,0,0,,0,,,60,127
47555,note_off,0,0,0,,10,,,69,127
47556,note_on,1,0,0,,7,,,79,127
47556,note_on,0,0,0,,7,,,43,127
47677,note_on,121,0,0,,12,,,71,127
47707,note_off,30,0,0,,7,,,79,127
47797,note_off,90,0,0,,12,,,71,127
47798,note_on,1,0,0,,0,,,72,127
47918,note_off,120,0,0,,0,,,72,127
47919,note_on,1,0,0,,2,,,74,127
48039,note_off,120,0,0,,2,,,74,127
48040,note_on,1,0,0,,7,,,67,127
48160,note_off,120,0,0,,7,,,67,127
48160,note_off,0,0,0,,7,,,43,127
48161,note_on,1,0,0,,0,,,72,127
48161,note_on,0,0,0,,3,,,63,127
48281,note_off,120,0,0,,3,,,63,127
48281,note_off,0,0,0,,0,,,72,127
48282,note_on,1,0,0,,12,,,71,127
48282,note_on,0,0,0,,2,,,62,127
48402,note_off,120,0,0,,2,,,62,127
48402,note_off,0,0,0,,12,,,71,127
48403,note_on,1,0,0,,10,,,69,127
48403,note_on,0,0,0,,0,,,60,127
48523,note_off,120,0,0,,0,,,60,127
48523,note_off,0,0,0,,10,,,69,127
48524,note_on,1,0,0,,7,,,79,127
48524,note_on,0,0,0,,7,,,43,127
48645,note_on,121,0,0,,12,,,71,127
48675,note_off,30,0,0,,7,,,79,127
48765,note_off,90,0,0,,12,,,71,127
48766,note_on,1,0,0,,0,,,72,127
48886,note_off,120,0,0,,0,,,72,127
48887,note_on,1,0,0,,2,,,74,127
49007,note_off,120,0,0,,2,,,74,127
49008,note_on,1,0,0,,7,,,67,127
49128,note_off,120,0,0,,7,,,67,127
49128,note_off,0,0,0,,7,,,43,127
49129,note_on,1,0,0,,0,,,72,127
49129,note_on,0,0,0,,3,,,63,127
49249,note_off,120,0,0,,3,,,63,127
49249,note_off,0,0,0,,0,,,72,127
49250,note_on,1,0,0,,12,,,71,127
49250,note_on,0,0,0,,2,,,62,127
49370,note_off,120,0,0,,2,,,62,127
49370,note_off,0,0,0,,12,,,71,127
49371,note_on,1,0,0,,10,,,69,127
49371,note_on,0,0,0,,0,,,60,127
49491,note_off,120,0,0,,0,,,60,127
49491,note_off,0,0,0,,10,,,69,127
49492,note_on,1,0,0,,12,,,71,127
49492,note_on,0,0,0,,7,,,67,127
49612,note_off,120,0,0,,7,,,67,127
49613,note_on,1,0,0,,2,,,62,127
49733,note_off,120,0,0,,2,,,62,127
49734,note_on,1,0,0,,12,,,59,127
49854,note_off,120,0,0,,12,,,59,127
49855,note_on,1,0,0,,2,,,62,127
49975,note_off,120,0,0,,2,,,62,127
49976,note_on,1,0,0,,7,,,55,127
50096,note_off,120,0,0,,7,,,55,127
50096,note_off,0,0,0,,12,,,71,127
50097,note_on,1,0,0,,12,,,71,127
50097,note_on,0,0,0,,5,,,65,127
50217,note_off,120,0,0,,5,,,65,127
50217,note_off,0,0,0,,12,,,71,127
50218,note_on,1,0,0,,0,,,72,127
50218,note_on,0,0,0,,3,,,63,127
50338,note_off,120,0,0,,3,,,63,127
50338,note_off,0,0,0,,0,,,72,127
50339,note_on,1,0,0,,2,,,74,127
50339,note_on,0,0,0,,2,,,62,127
50459,note_off,120,0,0,,2,,,62,127
50459,note_off,0,0,0,,2,,,74,127
50460,note_on,1,0,0,,7,,,67,127
50460,note_on,0,0,0,,7,,,55,127
50580,note_off,120,0,0,,7,,,55,127
50581,note_on,1,0,0,,3,,,63,127
50701,note_off,120,0,0,,3,,,63,127
50702,note_on,1,0,0,,7,,,79,127
50702,note_on,0,0,0,,2,,,62,127
50822,note_off,120,0,0,,2,,,62,127
50823,note_on,1,0,0,,0,,,60,127
50939,note_off,116,0,0,,7,,,67,127
50943,note_off,4,0,0,,0,,,60,127
50944,note_on,1,0,0,,7,,,55,127
51064,note_off,120,0,0,,7,,,55,127
51064,note_off,0,0,0,,7,,,79,127
51065,note_on,1,0,0,,5,,,77,127
51065,note_on,0,0,0,,2,,,62,127
51185,note_off,120,0,0,,2,,,62,127
51185,note_off,0,0,0,,5,,,77,127
51186,note_on,1,0,0,,3,,,75,127
51186,note_on,0,0,0,,0,,,60,127
51306,note_off,120,0,0,,0,,,60,127
51306,note_off,0,0,0,,3,,,75,127
51307,note_on,1,0,0,,2,,,74,127
51307,note_on,0,0,0,,12,,,59,127
51427,note_off,120,0,0,,12,,,59,127
51427,note_off,0,0,0,,2,,,74,127
51428,note_on,1,0,0,,3,,,75,127
51428,note_on,0,0,0,,0,,,60,127
51549,note_on,121,0,0,,7,,,67,127
51669,note_off,120,0,0,,7,,,67,127
51669,note_off,0,0,0,,0,,,60,127
51669,note_off,0,0,0,,3,,,75,127
51670,note_on,1,0,0,,2,,,74,127
51670,note_on,0,0,0,,8,,,68,127
51670,note_on,0,0,0,,5,,,53,127
51790,note_off,120,0,0,,2,,,74,127
51791,note_on,1,0,0,,0,,,72,127
51911,note_off,120,0,0,,0,,,72,127
51911,note_off,0,0,0,,5,,,53,127
51912,note_on,1,0,0,,12,,,71,127
51912,note_on,0,0,0,,7,,,55,127
52032,note_off,120,0,0,,8,,,68,127
52033,note_on,1,0,0,,7,,,67,127
52153,note_off,120,0,0,,7,,,55,127
52153,note_off,0,0,0,,12,,,71,127
52154,note_on,1,0,0,,0,,,72,127
52154,note_on,0,0,0,,8,,,56,127
52274,note_off,120,0,0,,7,,,67,127
52275,note_on,1,0,0,,5,,,65,127
52395,note_off,120,0,0,,5,,,65,127
52395,note_off,0,0,0,,8,,,56,127
52395,note_off,0,0,0,,0,,,72,127
52396,note_on,1,0,0,,2,,,74,127
52396,note_on,0,0,0,,12,,,71,127
52396,note_on,0,0,0,,7,,,67,127
52396,note_on,0,0,0,,7,,,43,127
52516,note_off,120,0,0,,7,,,67,127
52516,note_off,0,0,0,,12,,,71,127
52516,note_off,0,0,0,,2,,,74,127
52517,note_on,1,0,0,,2,,,62,127
52637,note_off,120,0,0,,2,,,62,127
52637,note_off,0,0,0,,7,,,43,127
52638,note_on,1,0,0,,3,,,63,127
52638,note_on,0,0,0,,7,,,55,127
52758,note_off,120,0,0,,3,,,63,127
52759,note_on,1,0,0,,5,,,65,127
52879,note_off,120,0,0,,5,,,65,127
52880,note_on,1,0,0,,12,,,59,127
52880,note_on,0,0,0,,2,,,62,127
53000,note_off,120,0,0,,7,,,55,127
53001,note_on,1,0,0,,7,,,55,127
53121,note_off,120,0,0,,7,,,55,127
53121,note_off,0,0,0,,2,,,62,127
53121,note_off,0,0,0,,12,,,59,127
53122,note_on,1,0,0,,3,,,63,127
53122,note_on,0,0,0,,0,,,60,127
53122,note_on,0,0,0,,5,,,53,127
53242,note_off,120,0,0,,5,,,53,127
53243,note_on,1,0,0,,3,,,51,127
53363,note_off,120,0,0,,3,,,51,127
53363,note_off,0,0,0,,3,,,63,127
53364,note_on,1,0,0,,5,,,65,127
53364,note_on,0,0,0,,2,,,50,127
53484,note_off,120,0,0,,0,,,60,127
53485,note_on,1,0,0,,2,,,62,127
53605,note_off,120,0,0,,2,,,62,127
53605,note_off,0,0,0,,2,,,50,127
53605,note_off,0,0,0,,5,,,65,127
53606,note_on,1,0,0,,7,,,67,127
53606,note_on,0,0,0,,3,,,63,127
53606,note_on,0,0,0,,7,,,55,127
53726,note_off,120,0,0,,3,,,63,127
53727,note_on,1,0,0,,2,,,62,127
53847,note_off,120,0,0,,2,,,62,127
53847,note_off,0,0,0,,7,,,55,127
53847,note_off,0,0,0,,7,,,67,127
53848,note_on,1,0,0,,7,,,67,127
53848,note_on,0,0,0,,3,,,63,127
53848,note_on,0,0,0,,0,,,48,127
53968,note_off,120,0,0,,0,,,48,127
53969,note_on,1,0,0,,0,,,60,127
54089,note_off,120,0,0,,0,,,60,127
54089,note_off,0,0,0,,3,,,63,127
54089,note_off,0,0,0,,7,,,67,127
54090,note_on,1,0,0,,10,,,69,127
54090,note_on,0,0,0,,6,,,66,127
54090,note_on,0,0,0,,11,,,58,127
54210,note_off,120,0,0,,11,,,58,127
54211,note_on,1,0,0,,10,,,57,127
54331,note_off,120,0,0,,10,,,57,127
54331,note_off,0,0,0,,6,,,66,127
54331,note_off,0,0,0,,10,,,69,127
54332,note_on,1,0,0,,7,,,67,127
54332,note_on,0,0,0,,11,,,70,127
54332,note_on,0,0,0,,7,,,55,127
54452,note_off,120,0,0,,7,,,55,127
54452,note_off,0,0,0,,7,,,67,127
54453,note_on,1,0,0,,7,,,67,127
54573,note_off,120,0,0,,7,,,67,127
54573,note_off,0,0,0,,11,,,70,127
54574,note_on,1,0,0,,1,,,73,127
54574,note_on,0,0,0,,6,,,66,127
54694,note_off,120,0,0,,6,,,66,127
54695,note_on,1,0,0,,4,,,64,127
54815,note_off,120,0,0,,4,,,64,127
54815,note_off,0,0,0,,1,,,73,127
54816,note_on,1,0,0,,2,,,74,127
54816,note_on,0,0,0,,6,,,66,127
54936,note_off,120,0,0,,2,,,74,127
54937,note_on,1,0,0,,0,,,84,127
55057,note_off,120,0,0,,0,,,84,127
55057,note_off,0,0,0,,6,,,66,127
55058,note_on,1,0,0,,11,,,82,127
55058,note_on,0,0,0,,2,,,62,127
55178,note_off,120,0,0,,11,,,82,127
55179,note_on,1,0,0,,10,,,81,127
55299,note_off,120,0,0,,10,,,81,127
55299,note_off,0,0,0,,2,,,62,127
55300,note_on,1,0,0,,11,,,82,127
55300,note_on,0,0,0,,7,,,67,127
55421,note_on,121,0,0,,2,,,74,127
55541,note_off,120,0,0,,2,,,74,127
55541,note_off,0,0,0,,7,,,67,127
55541,note_off,0,0,0,,11,,,82,127
55542,note_on,1,0,0,,10,,,81,127
55542,note_on,0,0,0,,3,,,75,127
55542,note_on,0,0,0,,0,,,60,127
55662,note_off,120,0,0,,10,,,81,127
55663,note_on,1,0,0,,7,,,79,127
55783,note_off,120,0,0,,7,,,79,127
55783,note_off,0,0,0,,0,,,60,127
55784,note_on,1,0,0,,6,,,78,127
55784,note_on,0,0,0,,2,,,62,127
55904,note_off,120,0,0,,3,,,75,127
55905,note_on,1,0,0,,2,,,74,127
56025,note_off,120,0,0,,2,,,62,127
56025,note_off,0,0,0,,6,,,78,127
56026,note_on,1,0,0,,7,,,79,127
56026,note_on,0,0,0,,3,,,63,127
56146,note_off,120,0,0,,2,,,74,127
56147,note_on,1,0,0,,0,,,72,127
56267,note_off,120,0,0,,0,,,72,127
56267,note_off,0,0,0,,3,,,63,127
56267,note_off,0,0,0,,7,,,79,127
56268,note_on,1,0,0,,10,,,81,127
56268,note_on,0,0,0,,2,,,38,127
56388,note_off,120,0,0,,10,,,81,127
56389,note_on,1,0,0,,6,,,78,127
56509,note_off,120,0,0,,6,,,78,127
56510,note_on,1,0,0,,7,,,79,127
56630,note_off,120,0,0,,7,,,79,127
56631,note_on,1,0,0,,10,,,81,127
56751,note_off,120,0,0,,10,,,81,127
56752,note_on,1,0,0,,2,,,74,127
56872,note_off,120,0,0,,2,,,74,127
56872,note_off,0,0,0,,2,,,38,127
56873,note_on,1,0,0,,7,,,79,127
56873,note_on,0,0,0,,11,,,70,127
56993,note_off,120,0,0,,11,,,70,127
56993,note_off,0,0,0,,7,,,79,127
56994,note_on,1,0,0,,6,,,78,127
56994,note_on,0,0,0,,10,,,69,127
57114,note_off,120,0,0,,10,,,69,127
57114,note_off,0,0,0,,6,,,78,127
57115,note_on,1,0,0,,4,,,76,127
57115,note_on,0,0,0,,7,,,67,127
57235,note_off,120,0,0,,7,,,67,127
57235,note_off,0,0,0,,4,,,76,127
57236,note_on,1,0,0,,6,,,78,127
57236,note_on,0,0,0,,2,,,38,127
57355,note_off,119,0,0,,6,,,78,127
57358,note_on,3,0,0,,6,,,78,127
57478,note_off,120,0,0,,6,,,78,127
57479,note_on,1,0,0,,7,,,79,127
57599,note_off,120,0,0,,7,,,79,127
57600,note_on,1,0,0,,10,,,81,127
57720,note_off,120,0,0,,10,,,81,127
57721,note_on,1,0,0,,2,,,74,127
57841,note_off,120,0,0,,2,,,74,127
57841,note_off,0,0,0,,2,,,38,127
57842,note_on,1,0,0,,7,,,79,127
57842,note_on,0,0,0,,11,,,70,127
57962,note_off,120,0,0,,11,,,70,127
57962,note_off,0,0,0,,7,,,79,127
57963,note_on,1,0,0,,6,,,78,127
57963,note_on,0,0,0,,10,,,69,127
58083,note_off,120,0,0,,10,,,69,127
58083,note_off,0,0,0,,6,,,78,127
58084,note_on,1,0,0,,4,,,76,127
58084,note_on,0,0,0,,7,,,67,127
58204,note_off,120,0,0,,7,,,67,127
58204,note_off,0,0,0,,4,,,76,127
58205,note_on,1,0,0,,6,,,78,127
58205,note_on,0,0,0,,2,,,50,127
58324,note_off,119,0,0,,6,,,78,127
58327,note_on,3,0,0,,6,,,78,127
58447,note_off,120,0,0,,6,,,78,127
58448,note_on,1,0,0,,7,,,79,127
58568,note_off,120,0,0,,7,,,79,127
58569,note_on,1,0,0,,10,,,81,127
58689,note_off,120,0,0,,10,,,81,127
58690,note_on,1,0,0,,2,,,74,127
58810,note_off,120,0,0,,2,,,74,127
58810,note_off,0,0,0,,2,,,50,127
58811,note_on,1,0,0,,7,,,79,127
58811,note_on,0,0,0,,11,,,70,127
58931,note_off,120,0,0,,11,,,70,127
58931,note_off,0,0,0,,7,,,79,127
58932,note_on,1,0,0,,6,,,78,127
58932,note_on,0,0,0,,10,,,69,127
59052,note_off,120,0,0,,10,,,69,127
59052,note_off,0,0,0,,6,,,78,127
59053,note_on,1,0,0,,4,,,76,127
59053,note_on,0,0,0,,7,,,67,127
59173,note_off,120,0,0,,7,,,67,127
59173,note_off,0,0,0,,4,,,76,127
59174,note_on,1,0,0,,6,,,78,127
59174,note_on,0,0,0,,2,,,74,127
59294,note_off,120,0,0,,2,,,74,127
59295,note_on,1,0,0,,10,,,69,127
59415,note_off,120,0,0,,10,,,69,127
59416,note_on,1,0,0,,6,,,66,127
59536,note_off,120,0,0,,6,,,66,127
59537,note_on,1,0,0,,10,,,69,127
59657,note_off,120,0,0,,10,,,69,127
59658,note_on,1,0,0,,2,,,62,127
59778,note_off,120,0,0,,2,,,62,127
59778,note_off,0,0,0,,6,,,78,127
59779,note_on,1,0,0,,6,,,78,127
59779,note_on,0,0,0,,0,,,72,127
59899,note_off,120,0,0,,0,,,72,127
59899,note_off,0,0,0,,6,,,78,127
59900,note_on,1,0,0,,7,,,79,127
59900,note_on,0,0,0,,11,,,70,127
60020,note_off,120,0,0,,11,,,70,127
60020,note_off,0,0,0,,7,,,79,127
60021,note_on,1,0,0,,10,,,81,127
60021,note_on,0,0,0,,10,,,69,127
60141,note_off,120,0,0,,10,,,69,127
60141,note_off,0,0,0,,10,,,81,127
60142,note_on,1,0,0,,2,,,74,127
60142,note_on,0,0,0,,2,,,62,127
60262,note_off,120,0,0,,2,,,62,127
60263,note_on,1,0,0,,11,,,70,127
60383,note_off,120,0,0,,11,,,70,127
60383,note_off,0,0,0,,2,,,74,127
60384,note_on,1,0,0,,7,,,79,127
60384,note_on,0,0,0,,10,,,69,127
60504,note_off,120,0,0,,10,,,69,127
60505,note_on,1,0,0,,7,,,67,127
60625,note_off,120,0,0,,7,,,67,127
60626,note_on,1,0,0,,2,,,62,127
60746,note_off,120,0,0,,2,,,62,127
60746,note_off,0,0,0,,7,,,79,127
60747,note_on,1,0,0,,0,,,84,127
60747,note_on,0,0,0,,10,,,69,127
60867,note_off,120,0,0,,10,,,69,127
60867,note_off,0,0,0,,0,,,84,127
60868,note_on,1,0,0,,11,,,82,127
60868,note_on,0,0,0,,7,,,67,127
60988,note_off,120,0,0,,7,,,67,127
60988,note_off,0,0,0,,11,,,82,127
60989,note_on,1,0,0,,10,,,81,127
60989,note_on,0,0,0,,6,,,66,127
61109,note_off,120,0,0,,6,,,66,127
61109,note_off,0,0,0,,10,,,81,127
61110,note_on,1,0,0,,11,,,82,127
61110,note_on,0,0,0,,7,,,67,127
61231,note_on,121,0,0,,2,,,74,127
61351,note_off,120,0,0,,2,,,74,127
61351,note_off,0,0,0,,7,,,67,127
61351,note_off,0,0,0,,11,,,82,127
61352,note_on,1,0,0,,10,,,81,127
61352,note_on,0,0,0,,3,,,75,127
61352,note_on,0,0,0,,0,,,60,127
61472,note_off,120,0,0,,10,,,81,127
61473,note_on,1,0,0,,7,,,79,127
61593,note_off,120,0,0,,7,,,79,127
61593,note_off,0,0,0,,0,,,60,127
61594,note_on,1,0,0,,6,,,78,127
61594,note_on,0,0,0,,2,,,62,127
61714,note_off,120,0,0,,3,,,75,127
61715,note_on,1,0,0,,2,,,74,127
61835,note_off,120,0,0,,2,,,62,127
61835,note_off,0,0,0,,6,,,78,127
61836,note_on,1,0,0,,7,,,79,127
61836,note_on,0,0,0,,3,,,63,127
61956,note_off,120,0,0,,2,,,74,127
61957,note_on,1,0,0,,0,,,72,127
62077,note_off,120,0,0,,0,,,72,127
62077,note_off,0,0,0,,3,,,63,127
62077,note_off,0,0,0,,7,,,79,127
62078,note_on,1,0,0,,10,,,81,127
62078,note_on,0,0,0,,2,,,50,127
62199,note_on,121,0,0,,10,,,69,127
62318,note_off,119,0,0,,10,,,81,127
62319,note_off,1,0,0,,10,,,69,127
62319,note_off,0,0,0,,2,,,50,127
62320,note_on,1,0,0,,11,,,70,127
62320,note_on,0,0,0,,2,,,62,127
62440,note_off,120,0,0,,11,,,70,127
62441,note_on,1,0,0,,0,,,72,127
62561,note_off,120,0,0,,0,,,72,127
62562,note_on,1,0,0,,10,,,69,127
62562,note_on,0,0,0,,6,,,66,127
62682,note_off,120,0,0,,2,,,62,127
62683,note_on,1,0,0,,2,,,62,127
62803,note_off,120,0,0,,2,,,62,127
62803,note_off,0,0,0,,6,,,66,127
62803,note_off,0,0,0,,10,,,69,127
62804,note_on,1,0,0,,7,,,67,127
62804,note_on,0,0,0,,11,,,70,127
62804,note_on,0,0,0,,0,,,60,127
62924,note_off,120,0,0,,0,,,60,127
62925,note_on,1,0,0,,11,,,58,127
63045,note_off,120,0,0,,11,,,58,127
63045,note_off,0,0,0,,11,,,70,127
63045,note_off,0,0,0,,7,,,67,127
63046,note_on,1,0,0,,0,,,72,127
63046,note_on,0,0,0,,10,,,57,127
63167,note_on,121,0,0,,7,,,67,127
63287,note_off,120,0,0,,10,,,57,127
63287,note_off,0,0,0,,0,,,72,127
63288,note_on,1,0,0,,11,,,70,127
63288,note_on,0,0,0,,2,,,50,127
63408,note_off,120,0,0,,11,,,70,127
63408,note_off,0,0,0,,7,,,67,127
63409,note_on,1,0,0,,10,,,69,127
63409,note_on,0,0,0,,6,,,66,127
63529,note_off,120,0,0,,6,,,66,127
63529,note_off,0,0,0,,10,,,69,127
63529,note_off,0,0,0,,2,,,50,127
63530,note_on,1,0,0,,11,,,70,127
63530,note_on,0,0,0,,7,,,55,127
63650,note_off,120,0,0,,7,,,55,127
63651,note_on,1,0,0,,7,,,67,127
63771,note_off,120,0,0,,7,,,67,127
63771,note_off,0,0,0,,11,,,70,127
63772,note_on,1,0,0,,0,,,72,127
63772,note_on,0,0,0,,5,,,65,127
63892,note_off,120,0,0,,5,,,65,127
63893,note_on,1,0,0,,3,,,63,127
64013,note_off,120,0,0,,3,,,63,127
64013,note_off,0,0,0,,0,,,72,127
64014,note_on,1,0,0,,2,,,74,127
64014,note_on,0,0,0,,2,,,50,127
64135,note_on,121,0,0,,6,,,66,127
64165,note_off,30,0,0,,2,,,74,127
64255,note_off,90,0,0,,6,,,66,127
64256,note_on,1,0,0,,7,,,67,127
64376,note_off,120,0,0,,7,,,67,127
64377,note_on,1,0,0,,10,,,69,127
64497,note_off,120,0,0,,10,,,69,127
64498,note_on,1,0,0,,2,,,62,127
64618,note_off,120,0,0,,2,,,62,127
64618,note_off,0,0,0,,2,,,50,127
64619,note_on,1,0,0,,7,,,67,127
64619,note_on,0,0,0,,11,,,58,127
64739,note_off,120,0,0,,11,,,58,127
64739,note_off,0,0,0,,7,,,67,127
64740,note_on,1,0,0,,6,,,66,127
64740,note_on,0,0,0,,10,,,57,127
64860,note_off,120,0,0,,10,,,57,127
64860,note_off,0,0,0,,6,,,66,127
64861,note_on,1,0,0,,4,,,64,127
64861,note_on,0,0,0,,7,,,55,127
64981,note_off,120,0,0,,7,,,55,127
64981,note_off,0,0,0,,4,,,64,127
64982,note_on,1,0,0,,2,,,74,127
64982,note_on,0,0,0,,2,,,38,127
65103,note_on,121,0,0,,6,,,66,127
65133,note_off,30,0,0,,2,,,74,127
65223,note_off,90,0,0,,6,,,66,127
65224,note_on,1,0,0,,7,,,67,127
65344,note_off,120,0,0,,7,,,67,127
65345,note_on,1,0,0,,10,,,69,127
65465,note_off,120,0,0,,10,,,69,127
65466,note_on,1,0,0,,2,,,62,127
65586,note_off,120,0,0,,2,,,62,127
65586,note_off,0,0,0,,2,,,38,127
65587,note_on,1,0,0,,7,,,67,127
65587,note_on,0,0,0,,11,,,58,127
65707,note_off,120,0,0,,11,,,58,127
65707,note_off,0,0,0,,7,,,67,127
65708,note_on,1,0,0,,6,,,66,127
65708,note_on,0,0,0,,10,,,57,127
65828,note_off,120,0,0,,10,,,57,127
65828,note_off,0,0,0,,6,,,66,127
65829,note_on,1,0,0,,4,,,64,127
65829,note_on,0,0,0,,7,,,55,127
65949,note_off,120,0,0,,7,,,55,127
65949,note_off,0,0,0,,4,,,64,127
65950,note_on,1,0,0,,2,,,74,127
65950,note_on,0,0,0,,2,,,38,127
66071,note_on,121,0,0,,6,,,66,127
66101,note_off,30,0,0,,2,,,74,127
66191,note_off,90,0,0,,6,,,66,127
66192,note_on,1,0,0,,7,,,67,127
66312,note_off,120,0,0,,7,,,67,127
66313,note_on,1,0,0,,10,,,69,127
66433,note_off,120,0,0,,10,,,69,127
66434,note_on,1,0,0,,2,,,62,127
66554,note_off,120,0,0,,2,,,62,127
66554,note_off,0,0,0,,2,,,38,127
66555,note_on,1,0,0,,7,,,67,127
66555,note_on,0,0,0,,11,,,58,127
66675,note_off,120,0,0,,11,,,58,127
66675,note_off,0,0,0,,7,,,67,127
66676,note_on,1,0,0,,6,,,66,127
66676,note_on,0,0,0,,10,,,57,127
66796,note_off,120,0,0,,10,,,57,127
66796,note_off,0,0,0,,6,,,66,127
66797,note_on,1,0,0,,4,,,64,127
66797,note_on,0,0,0,,7,,,55,127
66917,note_off,120,0,0,,7,,,55,127
66917,note_off,0,0,0,,4,,,64,127
66918,note_on,1,0,0,,2,,,74,127
66918,note_on,0,0,0,,2,,,38,127
67039,note_on,121,0,0,,6,,,66,127
67069,note_off,30,0,0,,2,,,74,127
67159,note_off,90,0,0,,6,,,66,127
67160,note_on,1,0,0,,7,,,67,127
67280,note_off,120,0,0,,7,,,67,127
67281,note_on,1,0,0,,10,,,69,127
67401,note_off,120,0,0,,10,,,69,127
67402,note_on,1,0,0,,2,,,62,127
67522,note_off,120,0,0,,2,,,62,127
67522,note_off,0,0,0,,2,,,38,127
67523,note_on,1,0,0,,7,,,67,127
67523,note_on,0,0,0,,11,,,58,127
67643,note_off,120,0,0,,11,,,58,127
67643,note_off,0,0,0,,7,,,67,127
67644,note_on,1,0,0,,6,,,66,127
67644,note_on,0,0,0,,10,,,57,127
67764,note_off,120,0,0,,10,,,57,127
67764,note_off,0,0,0,,6,,,66,127
67765,note_on,1,0,0,,4,,,64,127
67765,note_on,0,0,0,,7,,,55,127
67885,note_off,120,0,0,,7,,,55,127
67885,note_off,0,0,0,,4,,,64,127
67886,note_on,1,0,0,,2,,,74,127
67886,note_on,0,0,0,,6,,,66,127
67886,note_on,0,0,0,,2,,,62,127
68006,note_off,120,0,0,,2,,,62,127
68007,note_on,1,0,0,,10,,,57,127
68127,note_off,120,0,0,,10,,,57,127
68128,note_on,1,0,0,,6,,,54,127
68248,note_off,120,0,0,,6,,,54,127
68249,note_on,1,0,0,,10,,,57,127
68369,note_off,120,0,0,,10,,,57,127
68370,note_on,1,0,0,,2,,,50,127
68490,note_off,120,0,0,,2,,,50,127
68490,note_off,0,0,0,,6,,,66,127
68490,note_off,0,0,0,,2,,,74,127
68491,note_on,1,0,0,,6,,,66,127
68491,note_on,0,0,0,,0,,,60,127
68611,note_off,120,0,0,,0,,,60,127
68611,note_off,0,0,0,,6,,,66,127
68612,note_on,1,0,0,,7,,,67,127
68612,note_on,0,0,0,,11,,,58,127
68732,note_off,120,0,0,,11,,,58,127
68732,note_off,0,0,0,,7,,,67,127
68733,note_on,1,0,0,,10,,,69,127
68733,note_on,0,0,0,,10,,,57,127
68853,note_off,120,0,0,,10,,,57,127
68853,note_off,0,0,0,,10,,,69,127
68854,note_on,1,0,0,,2,,,62,127
68854,note_on,0,0,0,,2,,,50,127
68974,note_off,120,0,0,,2,,,50,127
68975,note_on,1,0,0,,11,,,58,127
69095,note_off,120,0,0,,11,,,58,127
69096,note_on,1,0,0,,2,,,74,127
69096,note_on,0,0,0,,10,,,57,127
69216,note_off,120,0,0,,10,,,57,127
69217,note_on,1,0,0,,7,,,55,127
69333,note_off,116,0,0,,2,,,62,127
69337,note_off,4,0,0,,7,,,55,127
69338,note_on,1,0,0,,2,,,50,127
69458,note_off,120,0,0,,2,,,50,127
69458,note_off,0,0,0,,2,,,74,127
69459,note_on,1,0,0,,0,,,72,127
69459,note_on,0,0,0,,10,,,57,127
69579,note_off,120,0,0,,10,,,57,127
69579,note_off,0,0,0,,0,,,72,127
69580,note_on,1,0,0,,11,,,70,127
69580,note_on,0,0,0,,7,,,55,127
69700,note_off,120,0,0,,7,,,55,127
69700,note_off,0,0,0,,11,,,70,127
69701,note_on,1,0,0,,10,,,69,127
69701,note_on,0,0,0,,6,,,54,127
69821,note_off,120,0,0,,6,,,54,127
69821,note_off,0,0,0,,10,,,69,127
69822,note_on,1,0,0,,11,,,70,127
69822,note_on,0,0,0,,7,,,55,127
69942,note_off,120,0,0,,11,,,70,127
69943,note_on,1,0,0,,2,,,74,127
70063,note_off,120,0,0,,2,,,74,127
70063,note_off,0,0,0,,7,,,55,127
70064,note_on,1,0,0,,7,,,79,127
70064,note_on,0,0,0,,3,,,51,127
70185,note_on,121,0,0,,0,,,72,127
70305,note_off,120,0,0,,0,,,72,127
70305,note_off,0,0,0,,3,,,51,127
70306,note_on,1,0,0,,11,,,70,127
70306,note_on,0,0,0,,2,,,50,127
70426,note_off,120,0,0,,7,,,79,127
70427,note_on,1,0,0,,10,,,81,127
70547,note_off,120,0,0,,2,,,50,127
70547,note_off,0,0,0,,11,,,70,127
70548,note_on,1,0,0,,10,,,69,127
70548,note_on,0,0,0,,2,,,38,127
70668,note_off,120,0,0,,10,,,81,127
70669,note_on,1,0,0,,6,,,78,127
70789,note_off,120,0,0,,6,,,78,127
70789,note_off,0,0,0,,2,,,38,127
70789,note_off,0,0,0,,10,,,69,127
70790,note_on,1,0,0,,7,,,79,127
70790,note_on,0,0,0,,7,,,43,127
70911,note_on,121,0,0,,3,,,75,127
71031,note_off,120,0,0,,3,,,75,127
71031,note_off,0,0,0,,7,,,79,127
71032,note_on,1,0,0,,2,,,74,127
71152,note_off,120,0,0,,2,,,74,127
71153,note_on,1,0,0,,0,,,72,127
71273,note_off,120,0,0,,0,,,72,127
71274,note_on,1,0,0,,11,,,70,127
71394,note_off,120,0,0,,11,,,70,127
71395,note_on,1,0,0,,7,,,67,127
71515,note_off,120,0,0,,7,,,67,127
71516,note_on,1,0,0,,10,,,69,127
71636,note_off,120,0,0,,10,,,69,127
71637,note_on,1,0,0,,6,,,66,127
71757,note_off,120,0,0,,6,,,66,127
71757,note_off,0,0,0,,7,,,43,127
71758,note_on,1,0,0,,11,,,70,127
71758,note_on,0,0,0,,7,,,67,127
71758,note_on,0,0,0,,7,,,43,127
71878,note_off,120,0,0,,7,,,67,127
71879,note_on,1,0,0,,5,,,65,127
71999,note_off,120,0,0,,5,,,65,127
71999,note_off,0,0,0,,11,,,70,127
72000,note_on,1,0,0,,7,,,67,127
72000,note_on,0,0,0,,3,,,63,127
72120,note_off,120,0,0,,3,,,63,127
72121,note_on,1,0,0,,2,,,62,127
72241,note_off,120,0,0,,2,,,62,127
72242,note_on,1,0,0,,0,,,60,127
72362,note_off,120,0,0,,0,,,60,127
72363,note_on,1,0,0,,3,,,63,127
72483,note_off,120,0,0,,3,,,63,127
72483,note_off,0,0,0,,7,,,67,127
72484,note_on,1,0,0,,6,,,66,127
72484,note_on,0,0,0,,2,,,62,127
72604,note_off,120,0,0,,2,,,62,127
72605,note_on,1,0,0,,0,,,60,127
72725,note_off,120,0,0,,0,,,60,127
72725,note_off,0,0,0,,6,,,66,127
72725,note_off,0,0,0,,7,,,43,127
72726,note_on,1,0,0,,7,,,67,127
72726,note_on,0,0,0,,7,,,43,127
72847,note_on,121,0,0,,11,,,58,127
72967,note_off,120,0,0,,11,,,58,127
72968,note_on,1,0,0,,0,,,60,127
73088,note_off,120,0,0,,7,,,67,127
73089,note_on,1,0,0,,10,,,69,127
73209,note_off,120,0,0,,10,,,69,127
73210,note_on,1,0,0,,11,,,70,127
73330,note_off,120,0,0,,0,,,60,127
73331,note_on,1,0,0,,2,,,62,127
73451,note_off,120,0,0,,11,,,70,127
73452,note_on,1,0,0,,0,,,72,127
73572,note_off,120,0,0,,2,,,62,127
73573,note_on,1,0,0,,6,,,66,127
73693,note_off,120,0,0,,0,,,72,127
73693,note_off,0,0,0,,7,,,43,127
73694,note_on,1,0,0,,2,,,74,127
73694,note_on,0,0,0,,7,,,43,127
73814,note_off,120,0,0,,6,,,66,127
73815,note_on,1,0,0,,10,,,69,127
73935,note_off,120,0,0,,10,,,69,127
73936,note_on,1,0,0,,11,,,70,127
74056,note_off,120,0,0,,11,,,70,127
74056,note_off,0,0,0,,2,,,74,127
74057,note_on,1,0,0,,2,,,74,127
74057,note_on,0,0,0,,7,,,67,127
74177,note_off,120,0,0,,2,,,74,127
74178,note_on,1,0,0,,3,,,75,127
74299,note_on,121,0,0,,0,,,72,127
74419,note_off,120,0,0,,3,,,75,127
74419,note_off,0,0,0,,7,,,67,127
74420,note_on,1,0,0,,10,,,69,127
74420,note_on,0,0,0,,6,,,78,127
74541,note_on,121,0,0,,2,,,74,127
74661,note_off,120,0,0,,6,,,78,127
74661,note_off,0,0,0,,10,,,69,127
74661,note_off,0,0,0,,0,,,72,127
74661,note_off,0,0,0,,7,,,43,127
74662,note_on,1,0,0,,11,,,70,127
74662,note_on,0,0,0,,7,,,67,127
74662,note_on,0,0,0,,7,,,79,127
74662,note_on,0,0,0,,7,,,43,127
76117,note_off,1455,0,0,,7,,,43,127
76117,note_off,0,0,0,,7,,,79,127
76117,note_off,0,0,0,,7,,,67,127
76117,note_off,0,0,0,,11,,,70,127
76117,note_off,0,0,0,,2,,,74,127
79872,end_of_track,3755,1,0,,,,,,
