tick,type,time,meta,track,program,channel,pitch,tempo,note,velocity
0,copyright,0,1,0,,,,,,
0,program_change,0,0,0,6,0,,,,
0,pitchwheel,0,0,0,,0,0,,,
0,program_change,0,0,0,6,1,,,,
0,pitchwheel,0,0,0,,1,-590,,,
0,program_change,0,0,0,6,2,,,,
0,pitchwheel,0,0,0,,2,-272,,,
0,program_change,0,0,0,6,3,,,,
0,pitchwheel,0,0,0,,3,-353,,,
0,program_change,0,0,0,6,4,,,,
0,pitchwheel,0,0,0,,4,-560,,,
0,program_change,0,0,0,6,5,,,,
0,pitchwheel,0,0,0,,5,-80,,,
0,program_change,0,0,0,6,6,,,,
0,pitchwheel,0,0,0,,6,-625,,,
0,program_change,0,0,0,6,7,,,,
0,pitchwheel,0,0,0,,7,-130,,,
0,program_change,0,0,0,6,8,,,,
0,pitchwheel,0,0,0,,8,-512,,,
0,program_change,0,0,0,6,10,,,,
0,pitchwheel,0,0,0,,10,-464,,,
0,program_change,0,0,0,6,11,,,,
0,pitchwheel,0,0,0,,11,-208,,,
0,program_change,0,0,0,6,12,,,,
0,pitchwheel,0,0,0,,12,-553,,,
0,set_tempo,0,1,0,,,,500000,,
144,note_on,144,0,0,,5,,,65,127
144,note_on,0,0,0,,2,,,62,127
144,note_on,0,0,0,,2,,,74,127
430,note_off,286,0,0,,2,,,74,127
430,note_off,0,0,0,,2,,,62,127
430,note_off,0,0,0,,5,,,65,127
432,note_on,2,0,0,,7,,,67,127
432,note_on,0,0,0,,4,,,64,127
432,note_on,0,0,0,,2,,,74,127
502,note_off,70,0,0,,2,,,74,127
504,note_on,2,0,0,,1,,,73,127
574,note_off,70,0,0,,1,,,73,127
576,note_on,2,0,0,,2,,,74,127
646,note_off,70,0,0,,2,,,74,127
648,note_on,2,0,0,,1,,,73,127
718,note_off,70,0,0,,1,,,73,127
720,note_on,2,0,0,,2,,,74,127
790,note_off,70,0,0,,2,,,74,127
792,note_on,2,0,0,,1,,,73,127
862,note_off,70,0,0,,1,,,73,127
864,note_on,2,0,0,,12,,,71,127
934,note_off,70,0,0,,12,,,71,127
936,note_on,2,0,0,,1,,,73,127
1006,note_off,70,0,0,,1,,,73,127
1006,note_off,0,0,0,,4,,,64,127
1006,note_off,0,0,0,,7,,,67,127
1008,note_on,2,0,0,,10,,,69,127
1008,note_on,0,0,0,,5,,,65,127
1008,note_on,0,0,0,,2,,,74,127
1149,note_off,141,0,0,,10,,,69,127
1152,note_on,3,0,0,,10,,,69,127
1293,note_off,141,0,0,,2,,,74,127
1296,note_on,3,0,0,,2,,,74,127
1438,note_off,142,0,0,,2,,,74,127
1440,note_on,2,0,0,,4,,,76,127
1582,note_off,142,0,0,,4,,,76,127
1584,note_on,2,0,0,,5,,,77,127
1726,note_off,142,0,0,,5,,,77,127
1728,note_on,2,0,0,,7,,,79,127
1870,note_off,142,0,0,,7,,,79,127
1870,note_off,0,0,0,,10,,,69,127
1870,note_off,0,0,0,,5,,,65,127
1872,note_on,2,0,0,,5,,,65,127
1872,note_on,0,0,0,,10,,,69,127
1872,note_on,0,0,0,,10,,,81,127
2158,note_off,286,0,0,,10,,,81,127
2158,note_off,0,0,0,,10,,,69,127
2158,note_off,0,0,0,,5,,,65,127
2160,note_on,2,0,0,,7,,,67,127
2160,note_on,0,0,0,,4,,,64,127
2160,note_on,0,0,0,,10,,,81,127
2230,note_off,70,0,0,,10,,,81,127
2232,note_on,2,0,0,,7,,,79,127
2302,note_off,70,0,0,,7,,,79,127
2304,note_on,2,0,0,,10,,,81,127
2374,note_off,70,0,0,,10,,,81,127
2376,note_on,2,0,0,,7,,,79,127
2446,note_off,70,0,0,,7,,,79,127
2446,note_off,0,0,0,,7,,,67,127
2448,note_on,2,0,0,,10,,,57,127
2448,note_on,0,0,0,,10,,,81,127
2518,note_off,70,0,0,,10,,,81,127
2520,note_on,2,0,0,,7,,,79,127
2590,note_off,70,0,0,,7,,,79,127
2592,note_on,2,0,0,,10,,,81,127
2662,note_off,70,0,0,,10,,,81,127
2664,note_on,2,0,0,,7,,,79,127
2730,note_off,66,0,0,,4,,,64,127
2734,note_off,4,0,0,,10,,,57,127
2736,note_on,2,0,0,,2,,,50,127
2806,note_off,70,0,0,,7,,,79,127
2808,note_on,2,0,0,,5,,,77,127
2878,note_off,70,0,0,,5,,,77,127
2880,note_on,2,0,0,,7,,,79,127
2950,note_off,70,0,0,,7,,,79,127
2952,note_on,2,0,0,,5,,,77,127
3022,note_off,70,0,0,,5,,,77,127
3024,note_on,2,0,0,,4,,,76,127
3310,note_off,286,0,0,,4,,,76,127
3312,note_on,2,0,0,,2,,,74,127
3567,note_off,255,0,0,,2,,,74,127
3599,note_off,32,0,0,,2,,,50,127
3601,note_on,2,0,0,,10,,,57,127
3601,note_on,0,0,0,,10,,,81,127
3745,note_on,144,0,0,,4,,,76,127
3781,note_off,36,0,0,,10,,,81,127
3887,note_off,106,0,0,,4,,,76,127
3889,note_on,2,0,0,,1,,,73,127
4031,note_off,142,0,0,,1,,,73,127
4033,note_on,2,0,0,,10,,,69,127
4175,note_off,142,0,0,,10,,,69,127
4175,note_off,0,0,0,,10,,,57,127
4177,note_on,2,0,0,,1,,,61,127
4177,note_on,0,0,0,,7,,,79,127
4463,note_off,286,0,0,,1,,,61,127
4465,note_on,2,0,0,,2,,,62,127
4537,note_off,72,0,0,,7,,,79,127
4537,note_on,0,0,0,,5,,,77,127
4607,note_off,70,0,0,,5,,,77,127
4609,note_on,2,0,0,,7,,,79,127
4679,note_off,70,0,0,,7,,,79,127
4681,note_on,2,0,0,,5,,,77,127
4751,note_off,70,0,0,,5,,,77,127
4751,note_off,0,0,0,,2,,,62,127
4753,note_on,2,0,0,,4,,,64,127
4753,note_on,0,0,0,,4,,,76,127
5039,note_off,286,0,0,,4,,,76,127
5039,note_off,0,0,0,,4,,,64,127
5041,note_on,2,0,0,,5,,,65,127
5041,note_on,0,0,0,,2,,,74,127
5327,note_off,286,0,0,,2,,,74,127
5327,note_off,0,0,0,,5,,,65,127
5329,note_on,2,0,0,,10,,,57,127
5329,note_on,0,0,0,,10,,,81,127
5473,note_on,144,0,0,,4,,,76,127
5509,note_off,36,0,0,,10,,,81,127
5615,note_off,106,0,0,,4,,,76,127
5617,note_on,2,0,0,,1,,,73,127
5759,note_off,142,0,0,,1,,,73,127
5761,note_on,2,0,0,,10,,,69,127
5903,note_off,142,0,0,,10,,,69,127
5903,note_off,0,0,0,,10,,,57,127
5905,note_on,2,0,0,,1,,,61,127
5905,note_on,0,0,0,,7,,,79,127
6191,note_off,286,0,0,,1,,,61,127
6193,note_on,2,0,0,,2,,,62,127
6265,note_off,72,0,0,,7,,,79,127
6265,note_on,0,0,0,,5,,,77,127
6335,note_off,70,0,0,,5,,,77,127
6337,note_on,2,0,0,,7,,,79,127
6407,note_off,70,0,0,,7,,,79,127
6409,note_on,2,0,0,,5,,,77,127
6479,note_off,70,0,0,,5,,,77,127
6479,note_off,0,0,0,,2,,,62,127
6481,note_on,2,0,0,,4,,,64,127
6481,note_on,0,0,0,,4,,,76,127
6767,note_off,286,0,0,,4,,,76,127
6767,note_off,0,0,0,,4,,,64,127
6769,note_on,2,0,0,,5,,,65,127
6769,note_on,0,0,0,,2,,,74,127
7055,note_off,286,0,0,,2,,,74,127
7055,note_off,0,0,0,,5,,,65,127
7057,note_on,2,0,0,,10,,,57,127
7057,note_on,0,0,0,,10,,,81,127
7201,note_on,144,0,0,,4,,,76,127
7237,note_off,36,0,0,,10,,,81,127
7343,note_off,106,0,0,,4,,,76,127
7345,note_on,2,0,0,,1,,,73,127
7487,note_off,142,0,0,,1,,,73,127
7489,note_on,2,0,0,,10,,,69,127
7631,note_off,142,0,0,,10,,,69,127
7631,note_off,0,0,0,,10,,,57,127
7633,note_on,2,0,0,,1,,,61,127
7633,note_on,0,0,0,,7,,,79,127
7919,note_off,286,0,0,,7,,,79,127
7919,note_off,0,0,0,,1,,,61,127
7921,note_on,2,0,0,,2,,,62,127
7921,note_on,0,0,0,,5,,,77,127
8207,note_off,286,0,0,,5,,,77,127
8207,note_off,0,0,0,,2,,,62,127
8209,note_on,2,0,0,,4,,,64,127
8209,note_on,0,0,0,,7,,,79,127
8495,note_off,286,0,0,,7,,,79,127
8495,note_off,0,0,0,,4,,,64,127
8497,note_on,2,0,0,,5,,,65,127
8497,note_on,0,0,0,,10,,,81,127
8783,note_off,286,0,0,,10,,,81,127
8783,note_off,0,0,0,,5,,,65,127
8785,note_on,2,0,0,,7,,,67,127
8785,note_on,0,0,0,,11,,,82,127
8927,note_off,142,0,0,,7,,,67,127
8929,note_on,2,0,0,,10,,,69,127
9071,note_off,142,0,0,,10,,,69,127
9073,note_on,2,0,0,,7,,,67,127
9215,note_off,142,0,0,,7,,,67,127
9217,note_on,2,0,0,,5,,,65,127
9359,note_off,142,0,0,,5,,,65,127
9361,note_on,2,0,0,,4,,,64,127
9503,note_off,142,0,0,,4,,,64,127
9505,note_on,2,0,0,,2,,,62,127
9647,note_off,142,0,0,,2,,,62,127
9649,note_on,2,0,0,,0,,,60,127
9791,note_off,142,0,0,,11,,,82,127
9793,note_on,2,0,0,,10,,,81,127
9935,note_off,142,0,0,,10,,,81,127
9937,note_on,2,0,0,,7,,,79,127
10079,note_off,142,0,0,,7,,,79,127
10081,note_on,2,0,0,,5,,,77,127
10223,note_off,142,0,0,,5,,,77,127
10225,note_on,2,0,0,,4,,,76,127
10367,note_off,142,0,0,,4,,,76,127
10369,note_on,2,0,0,,2,,,74,127
10511,note_off,142,0,0,,2,,,74,127
10513,note_on,2,0,0,,0,,,72,127
10655,note_off,142,0,0,,0,,,60,127
10657,note_on,2,0,0,,2,,,62,127
10799,note_off,142,0,0,,2,,,62,127
10801,note_on,2,0,0,,4,,,64,127
10943,note_off,142,0,0,,4,,,64,127
10945,note_on,2,0,0,,5,,,65,127
11087,note_off,142,0,0,,5,,,65,127
11089,note_on,2,0,0,,7,,,67,127
11231,note_off,142,0,0,,7,,,67,127
11233,note_on,2,0,0,,10,,,69,127
11375,note_off,142,0,0,,10,,,69,127
11377,note_on,2,0,0,,0,,,60,127
11519,note_off,142,0,0,,0,,,72,127
11521,note_on,2,0,0,,2,,,74,127
11663,note_off,142,0,0,,2,,,74,127
11665,note_on,2,0,0,,4,,,76,127
11807,note_off,142,0,0,,4,,,76,127
11809,note_on,2,0,0,,5,,,77,127
11951,note_off,142,0,0,,5,,,77,127
11953,note_on,2,0,0,,7,,,79,127
12095,note_off,142,0,0,,7,,,79,127
12097,note_on,2,0,0,,10,,,81,127
12239,note_off,142,0,0,,10,,,81,127
12241,note_on,2,0,0,,0,,,72,127
12383,note_off,142,0,0,,0,,,60,127
12385,note_on,2,0,0,,2,,,62,127
12527,note_off,142,0,0,,2,,,62,127
12529,note_on,2,0,0,,4,,,64,127
12671,note_off,142,0,0,,4,,,64,127
12673,note_on,2,0,0,,5,,,65,127
12815,note_off,142,0,0,,5,,,65,127
12817,note_on,2,0,0,,7,,,67,127
12959,note_off,142,0,0,,7,,,67,127
12961,note_on,2,0,0,,10,,,69,127
13103,note_off,142,0,0,,10,,,69,127
13105,note_on,2,0,0,,2,,,62,127
13165,note_on,60,0,0,,0,,,60,127
13201,note_off,36,0,0,,2,,,62,127
13225,note_on,24,0,0,,2,,,62,127
13247,note_off,22,0,0,,0,,,72,127
13249,note_on,2,0,0,,2,,,74,127
13261,note_off,12,0,0,,0,,,60,127
13285,note_on,24,0,0,,0,,,60,127
13321,note_off,36,0,0,,2,,,62,127
13345,note_on,24,0,0,,2,,,62,127
13381,note_off,36,0,0,,0,,,60,127
13391,note_off,10,0,0,,2,,,74,127
13393,note_on,2,0,0,,4,,,76,127
13405,note_on,12,0,0,,0,,,60,127
13441,note_off,36,0,0,,2,,,62,127
13465,note_on,24,0,0,,2,,,62,127
13501,note_off,36,0,0,,0,,,60,127
13525,note_on,24,0,0,,0,,,60,127
13535,note_off,10,0,0,,4,,,76,127
13537,note_on,2,0,0,,5,,,77,127
13561,note_off,24,0,0,,2,,,62,127
13585,note_on,24,0,0,,2,,,62,127
13621,note_off,36,0,0,,0,,,60,127
13645,note_on,24,0,0,,0,,,60,127
13679,note_off,34,0,0,,5,,,77,127
13681,note_off,2,0,0,,2,,,62,127
13681,note_on,0,0,0,,7,,,79,127
13705,note_on,24,0,0,,2,,,62,127
13741,note_off,36,0,0,,0,,,60,127
13765,note_on,24,0,0,,0,,,60,127
13801,note_off,36,0,0,,2,,,62,127
13823,note_off,22,0,0,,7,,,79,127
13825,note_on,2,0,0,,2,,,62,127
13825,note_on,0,0,0,,10,,,81,127
13861,note_off,36,0,0,,0,,,60,127
13885,note_on,24,0,0,,0,,,60,127
13921,note_off,36,0,0,,2,,,62,127
13945,note_on,24,0,0,,2,,,62,127
13967,note_off,22,0,0,,10,,,81,127
13969,note_on,2,0,0,,11,,,82,127
13981,note_off,12,0,0,,0,,,60,127
14005,note_on,24,0,0,,0,,,60,127
14041,note_off,36,0,0,,2,,,62,127
14065,note_on,24,0,0,,2,,,62,127
14101,note_off,36,0,0,,0,,,60,127
14111,note_off,10,0,0,,11,,,82,127
14113,note_on,2,0,0,,10,,,81,127
14125,note_on,12,0,0,,0,,,60,127
14161,note_off,36,0,0,,2,,,62,127
14185,note_on,24,0,0,,2,,,62,127
14221,note_off,36,0,0,,0,,,60,127
14245,note_on,24,0,0,,0,,,60,127
14255,note_off,10,0,0,,10,,,81,127
14257,note_on,2,0,0,,7,,,79,127
14281,note_off,24,0,0,,2,,,62,127
14305,note_on,24,0,0,,2,,,62,127
14341,note_off,36,0,0,,0,,,60,127
14365,note_on,24,0,0,,0,,,60,127
14399,note_off,34,0,0,,7,,,79,127
14401,note_off,2,0,0,,2,,,62,127
14401,note_on,0,0,0,,5,,,77,127
14425,note_on,24,0,0,,2,,,62,127
14461,note_off,36,0,0,,0,,,60,127
14485,note_on,24,0,0,,0,,,60,127
14521,note_off,36,0,0,,2,,,62,127
14543,note_off,22,0,0,,5,,,77,127
14545,note_on,2,0,0,,2,,,62,127
14545,note_on,0,0,0,,4,,,76,127
14581,note_off,36,0,0,,0,,,60,127
14605,note_on,24,0,0,,0,,,60,127
14641,note_off,36,0,0,,2,,,62,127
14665,note_on,24,0,0,,2,,,62,127
14687,note_off,22,0,0,,4,,,76,127
14689,note_on,2,0,0,,2,,,74,127
14701,note_off,12,0,0,,0,,,60,127
14725,note_on,24,0,0,,0,,,60,127
14761,note_off,36,0,0,,2,,,62,127
14785,note_on,24,0,0,,2,,,62,127
14821,note_off,36,0,0,,0,,,60,127
14831,note_off,10,0,0,,2,,,74,127
14833,note_on,2,0,0,,0,,,72,127
14845,note_on,12,0,0,,0,,,60,127
14881,note_off,36,0,0,,2,,,62,127
14905,note_on,24,0,0,,2,,,62,127
14941,note_off,36,0,0,,0,,,60,127
14965,note_on,24,0,0,,0,,,60,127
14975,note_off,10,0,0,,0,,,72,127
14977,note_on,2,0,0,,2,,,74,127
15001,note_off,24,0,0,,2,,,62,127
15025,note_on,24,0,0,,2,,,62,127
15061,note_off,36,0,0,,0,,,60,127
15085,note_on,24,0,0,,0,,,60,127
15119,note_off,34,0,0,,2,,,74,127
15121,note_off,2,0,0,,2,,,62,127
15121,note_on,0,0,0,,4,,,76,127
15145,note_on,24,0,0,,2,,,62,127
15181,note_off,36,0,0,,0,,,60,127
15205,note_on,24,0,0,,0,,,60,127
15241,note_off,36,0,0,,2,,,62,127
15263,note_off,22,0,0,,4,,,76,127
15265,note_on,2,0,0,,2,,,62,127
15265,note_on,0,0,0,,5,,,77,127
15301,note_off,36,0,0,,0,,,60,127
15325,note_on,24,0,0,,0,,,60,127
15361,note_off,36,0,0,,2,,,62,127
15385,note_on,24,0,0,,2,,,62,127
15407,note_off,22,0,0,,5,,,77,127
15409,note_on,2,0,0,,7,,,79,127
15421,note_off,12,0,0,,0,,,60,127
15445,note_on,24,0,0,,0,,,60,127
15481,note_off,36,0,0,,2,,,62,127
15505,note_on,24,0,0,,2,,,62,127
15541,note_off,36,0,0,,0,,,60,127
15551,note_off,10,0,0,,7,,,79,127
15553,note_on,2,0,0,,10,,,81,127
15565,note_on,12,0,0,,0,,,60,127
15601,note_off,36,0,0,,2,,,62,127
15625,note_on,24,0,0,,2,,,62,127
15661,note_off,36,0,0,,0,,,60,127
15685,note_on,24,0,0,,0,,,60,127
15695,note_off,10,0,0,,10,,,81,127
15697,note_on,2,0,0,,11,,,82,127
15721,note_off,24,0,0,,2,,,62,127
15745,note_on,24,0,0,,2,,,62,127
15781,note_off,36,0,0,,0,,,60,127
15805,note_on,24,0,0,,0,,,60,127
15839,note_off,34,0,0,,11,,,82,127
15841,note_off,2,0,0,,2,,,62,127
15841,note_on,0,0,0,,10,,,81,127
15865,note_on,24,0,0,,2,,,62,127
15901,note_off,36,0,0,,0,,,60,127
15925,note_on,24,0,0,,0,,,60,127
15961,note_off,36,0,0,,2,,,62,127
15983,note_off,22,0,0,,10,,,81,127
15985,note_on,2,0,0,,2,,,62,127
15985,note_on,0,0,0,,7,,,79,127
16021,note_off,36,0,0,,0,,,60,127
16045,note_on,24,0,0,,0,,,60,127
16081,note_off,36,0,0,,2,,,62,127
16105,note_on,24,0,0,,2,,,62,127
16127,note_off,22,0,0,,7,,,79,127
16129,note_on,2,0,0,,5,,,77,127
16141,note_off,12,0,0,,0,,,60,127
16165,note_on,24,0,0,,0,,,60,127
16201,note_off,36,0,0,,2,,,62,127
16225,note_on,24,0,0,,2,,,62,127
16261,note_off,36,0,0,,0,,,60,127
16271,note_off,10,0,0,,5,,,77,127
16273,note_on,2,0,0,,4,,,76,127
16285,note_on,12,0,0,,0,,,60,127
16321,note_off,36,0,0,,2,,,62,127
16345,note_on,24,0,0,,2,,,62,127
16381,note_off,36,0,0,,0,,,60,127
16405,note_on,24,0,0,,0,,,60,127
16415,note_off,10,0,0,,4,,,76,127
16417,note_on,2,0,0,,2,,,74,127
16441,note_off,24,0,0,,2,,,62,127
16465,note_on,24,0,0,,2,,,62,127
16501,note_off,36,0,0,,0,,,60,127
16525,note_on,24,0,0,,0,,,60,127
16559,note_off,34,0,0,,2,,,74,127
16561,note_off,2,0,0,,2,,,62,127
16561,note_on,0,0,0,,0,,,72,127
16703,note_off,142,0,0,,0,,,72,127
16705,note_on,2,0,0,,2,,,74,127
16825,note_off,120,0,0,,0,,,60,127
16847,note_off,22,0,0,,2,,,74,127
16849,note_on,2,0,0,,2,,,62,127
16849,note_on,0,0,0,,0,,,72,127
16991,note_off,142,0,0,,0,,,72,127
16993,note_on,2,0,0,,11,,,70,127
17135,note_off,142,0,0,,11,,,70,127
17135,note_off,0,0,0,,2,,,62,127
17137,note_on,2,0,0,,4,,,64,127
17137,note_on,0,0,0,,10,,,69,127
17279,note_off,142,0,0,,10,,,69,127
17281,note_on,2,0,0,,7,,,67,127
17423,note_off,142,0,0,,7,,,67,127
17423,note_off,0,0,0,,4,,,64,127
17425,note_on,2,0,0,,5,,,65,127
17425,note_on,0,0,0,,10,,,69,127
17615,note_off,190,0,0,,10,,,69,127
17617,note_on,2,0,0,,7,,,67,127
17663,note_off,46,0,0,,7,,,67,127
17665,note_on,2,0,0,,10,,,69,127
17711,note_off,46,0,0,,10,,,69,127
17713,note_on,2,0,0,,11,,,70,127
17761,note_on,48,0,0,,0,,,72,127
17763,note_off,2,0,0,,11,,,70,127
17808,note_off,45,0,0,,0,,,72,127
17810,note_on,2,0,0,,2,,,74,127
17856,note_off,46,0,0,,2,,,74,127
17858,note_on,2,0,0,,4,,,76,127
17904,note_off,46,0,0,,4,,,76,127
17906,note_on,2,0,0,,5,,,77,127
17952,note_off,46,0,0,,5,,,77,127
17954,note_on,2,0,0,,7,,,79,127
18000,note_off,46,0,0,,7,,,79,127
18000,note_off,0,0,0,,5,,,65,127
18002,note_on,2,0,0,,10,,,69,127
18002,note_on,0,0,0,,5,,,65,127
18002,note_on,0,0,0,,10,,,81,127
18288,note_off,286,0,0,,10,,,81,127
18288,note_off,0,0,0,,5,,,65,127
18288,note_off,0,0,0,,10,,,69,127
18290,note_on,2,0,0,,11,,,58,127
18290,note_on,0,0,0,,11,,,70,127
18290,note_on,0,0,0,,7,,,79,127
18432,note_off,142,0,0,,7,,,79,127
18434,note_on,2,0,0,,2,,,74,127
18576,note_off,142,0,0,,2,,,74,127
18576,note_off,0,0,0,,11,,,70,127
18576,note_off,0,0,0,,11,,,58,127
18578,note_on,2,0,0,,0,,,60,127
18578,note_on,0,0,0,,10,,,69,127
18578,note_on,0,0,0,,5,,,77,127
18648,note_off,70,0,0,,5,,,77,127
18650,note_on,2,0,0,,4,,,76,127
18720,note_off,70,0,0,,4,,,76,127
18722,note_on,2,0,0,,5,,,77,127
18792,note_off,70,0,0,,5,,,77,127
18794,note_on,2,0,0,,4,,,76,127
18864,note_off,70,0,0,,4,,,76,127
18864,note_off,0,0,0,,10,,,69,127
18866,note_on,2,0,0,,7,,,67,127
18866,note_on,0,0,0,,5,,,77,127
18936,note_off,70,0,0,,5,,,77,127
18938,note_on,2,0,0,,4,,,76,127
19008,note_off,70,0,0,,4,,,76,127
19010,note_on,2,0,0,,2,,,74,127
19080,note_off,70,0,0,,2,,,74,127
19082,note_on,2,0,0,,4,,,76,127
19152,note_off,70,0,0,,7,,,67,127
19152,note_off,0,0,0,,0,,,60,127
19154,note_on,2,0,0,,5,,,53,127
19224,note_off,70,0,0,,4,,,76,127
19298,note_on,74,0,0,,5,,,77,127
19440,note_off,142,0,0,,5,,,77,127
19442,note_on,2,0,0,,4,,,76,127
19584,note_off,142,0,0,,4,,,76,127
19586,note_on,2,0,0,,5,,,77,127
19728,note_off,142,0,0,,5,,,77,127
19730,note_on,2,0,0,,0,,,72,127
19874,note_on,144,0,0,,10,,,81,127
19910,note_off,36,0,0,,0,,,72,127
20016,note_off,106,0,0,,10,,,81,127
20016,note_off,0,0,0,,5,,,53,127
20018,note_on,2,0,0,,10,,,69,127
20018,note_on,0,0,0,,0,,,72,127
20304,note_off,286,0,0,,10,,,69,127
20306,note_on,2,0,0,,7,,,67,127
20378,note_off,72,0,0,,0,,,72,127
20378,note_on,0,0,0,,11,,,70,127
20448,note_off,70,0,0,,11,,,70,127
20450,note_on,2,0,0,,0,,,72,127
20520,note_off,70,0,0,,0,,,72,127
20522,note_on,2,0,0,,11,,,70,127
20592,note_off,70,0,0,,11,,,70,127
20592,note_off,0,0,0,,7,,,67,127
20594,note_on,2,0,0,,0,,,60,127
20594,note_on,0,0,0,,0,,,72,127
20664,note_off,70,0,0,,0,,,72,127
20666,note_on,2,0,0,,11,,,70,127
20736,note_off,70,0,0,,11,,,70,127
20738,note_on,2,0,0,,10,,,69,127
20808,note_off,70,0,0,,10,,,69,127
20810,note_on,2,0,0,,11,,,70,127
20880,note_off,70,0,0,,11,,,70,127
20880,note_off,0,0,0,,0,,,60,127
20882,note_on,2,0,0,,5,,,53,127
20882,note_on,0,0,0,,10,,,69,127
21026,note_on,144,0,0,,5,,,77,127
21062,note_off,36,0,0,,10,,,69,127
21168,note_off,106,0,0,,5,,,77,127
21170,note_on,2,0,0,,4,,,76,127
21312,note_off,142,0,0,,4,,,76,127
21314,note_on,2,0,0,,5,,,77,127
21456,note_off,142,0,0,,5,,,77,127
21458,note_on,2,0,0,,0,,,72,127
21602,note_on,144,0,0,,10,,,81,127
21638,note_off,36,0,0,,0,,,72,127
21744,note_off,106,0,0,,10,,,81,127
21744,note_off,0,0,0,,5,,,53,127
21746,note_on,2,0,0,,10,,,69,127
21746,note_on,0,0,0,,0,,,72,127
22032,note_off,286,0,0,,10,,,69,127
22034,note_on,2,0,0,,7,,,67,127
22106,note_off,72,0,0,,0,,,72,127
22106,note_on,0,0,0,,11,,,70,127
22176,note_off,70,0,0,,11,,,70,127
22178,note_on,2,0,0,,0,,,72,127
22248,note_off,70,0,0,,0,,,72,127
22250,note_on,2,0,0,,11,,,70,127
22320,note_off,70,0,0,,11,,,70,127
22320,note_off,0,0,0,,7,,,67,127
22322,note_on,2,0,0,,0,,,60,127
22322,note_on,0,0,0,,0,,,72,127
22392,note_off,70,0,0,,0,,,72,127
22394,note_on,2,0,0,,11,,,70,127
22464,note_off,70,0,0,,11,,,70,127
22466,note_on,2,0,0,,10,,,69,127
22536,note_off,70,0,0,,10,,,69,127
22538,note_on,2,0,0,,11,,,70,127
22608,note_off,70,0,0,,11,,,70,127
22608,note_off,0,0,0,,0,,,60,127
22610,note_on,2,0,0,,5,,,53,127
22610,note_on,0,0,0,,10,,,69,127
22754,note_on,144,0,0,,10,,,81,127
22895,note_off,141,0,0,,10,,,69,127
22897,note_off,2,0,0,,10,,,81,127
22899,note_on,2,0,0,,7,,,79,127
23041,note_off,142,0,0,,7,,,79,127
23043,note_on,2,0,0,,10,,,81,127
23185,note_off,142,0,0,,10,,,81,127
23187,note_on,2,0,0,,5,,,77,127
23331,note_on,144,0,0,,10,,,81,127
23367,note_off,36,0,0,,5,,,77,127
23473,note_off,106,0,0,,10,,,81,127
23473,note_off,0,0,0,,5,,,53,127
23475,note_on,2,0,0,,10,,,69,127
23475,note_on,0,0,0,,0,,,72,127
23617,note_off,142,0,0,,0,,,72,127
23619,note_on,2,0,0,,0,,,84,127
23761,note_off,142,0,0,,10,,,69,127
23763,note_on,2,0,0,,7,,,67,127
23829,note_off,66,0,0,,0,,,84,127
23835,note_on,6,0,0,,11,,,82,127
23905,note_off,70,0,0,,11,,,82,127
23907,note_on,2,0,0,,0,,,84,127
23977,note_off,70,0,0,,0,,,84,127
23979,note_on,2,0,0,,11,,,82,127
24049,note_off,70,0,0,,11,,,82,127
24049,note_off,0,0,0,,7,,,67,127
24051,note_on,2,0,0,,0,,,60,127
24051,note_on,0,0,0,,0,,,84,127
24121,note_off,70,0,0,,0,,,84,127
24123,note_on,2,0,0,,11,,,82,127
24193,note_off,70,0,0,,11,,,82,127
24195,note_on,2,0,0,,10,,,81,127
24265,note_off,70,0,0,,10,,,81,127
24267,note_on,2,0,0,,11,,,82,127
24337,note_off,70,0,0,,11,,,82,127
24337,note_off,0,0,0,,0,,,60,127
24339,note_on,2,0,0,,5,,,53,127
24339,note_on,0,0,0,,10,,,81,127
24480,note_off,141,0,0,,10,,,81,127
24483,note_on,3,0,0,,10,,,81,127
24625,note_off,142,0,0,,10,,,81,127
24627,note_on,2,0,0,,7,,,79,127
24769,note_off,142,0,0,,7,,,79,127
24771,note_on,2,0,0,,10,,,81,127
24913,note_off,142,0,0,,10,,,81,127
24915,note_on,2,0,0,,5,,,77,127
25059,note_on,144,0,0,,10,,,81,127
25095,note_off,36,0,0,,5,,,77,127
25201,note_off,106,0,0,,10,,,81,127
25201,note_off,0,0,0,,5,,,53,127
25203,note_on,2,0,0,,10,,,69,127
25203,note_on,0,0,0,,0,,,72,127
25345,note_off,142,0,0,,0,,,72,127
25347,note_on,2,0,0,,0,,,84,127
25489,note_off,142,0,0,,10,,,69,127
25491,note_on,2,0,0,,7,,,67,127
25557,note_off,66,0,0,,0,,,84,127
25563,note_on,6,0,0,,11,,,82,127
25633,note_off,70,0,0,,11,,,82,127
25635,note_on,2,0,0,,0,,,84,127
25705,note_off,70,0,0,,0,,,84,127
25707,note_on,2,0,0,,11,,,82,127
25777,note_off,70,0,0,,11,,,82,127
25777,note_off,0,0,0,,7,,,67,127
25779,note_on,2,0,0,,0,,,60,127
25779,note_on,0,0,0,,0,,,84,127
25849,note_off,70,0,0,,0,,,84,127
25851,note_on,2,0,0,,11,,,82,127
25921,note_off,70,0,0,,11,,,82,127
25923,note_on,2,0,0,,10,,,81,127
25993,note_off,70,0,0,,10,,,81,127
25995,note_on,2,0,0,,11,,,82,127
26065,note_off,70,0,0,,11,,,82,127
26065,note_off,0,0,0,,0,,,60,127
26067,note_on,2,0,0,,5,,,77,127
26067,note_on,0,0,0,,10,,,81,127
26211,note_on,144,0,0,,0,,,84,127
26247,note_off,36,0,0,,10,,,81,127
26353,note_off,106,0,0,,5,,,77,127
26355,note_on,2,0,0,,4,,,76,127
26355,note_on,0,0,0,,7,,,79,127
26391,note_off,36,0,0,,0,,,84,127
26499,note_on,108,0,0,,0,,,84,127
26535,note_off,36,0,0,,7,,,79,127
26641,note_off,106,0,0,,4,,,76,127
26643,note_on,2,0,0,,2,,,74,127
26643,note_on,0,0,0,,5,,,77,127
26679,note_off,36,0,0,,0,,,84,127
26787,note_on,108,0,0,,0,,,84,127
26823,note_off,36,0,0,,5,,,77,127
26929,note_off,106,0,0,,2,,,74,127
26931,note_on,2,0,0,,0,,,72,127
26931,note_on,0,0,0,,4,,,76,127
26967,note_off,36,0,0,,0,,,84,127
27075,note_on,108,0,0,,0,,,84,127
27111,note_off,36,0,0,,4,,,76,127
27217,note_off,106,0,0,,0,,,72,127
27219,note_on,2,0,0,,11,,,70,127
27219,note_on,0,0,0,,2,,,74,127
27255,note_off,36,0,0,,0,,,84,127
27363,note_on,108,0,0,,0,,,84,127
27399,note_off,36,0,0,,2,,,74,127
27505,note_off,106,0,0,,11,,,70,127
27507,note_on,2,0,0,,10,,,69,127
27507,note_on,0,0,0,,0,,,72,127
27543,note_off,36,0,0,,0,,,84,127
27651,note_on,108,0,0,,0,,,84,127
27792,note_off,141,0,0,,0,,,72,127
27794,note_off,2,0,0,,10,,,69,127
27796,note_on,2,0,0,,7,,,67,127
27796,note_on,0,0,0,,11,,,70,127
27832,note_off,36,0,0,,0,,,84,127
27940,note_on,108,0,0,,11,,,82,127
28081,note_off,141,0,0,,11,,,70,127
28083,note_off,2,0,0,,11,,,82,127
28083,note_off,0,0,0,,7,,,67,127
28085,note_on,2,0,0,,5,,,65,127
28085,note_on,0,0,0,,10,,,81,127
28227,note_off,142,0,0,,10,,,81,127
28227,note_off,0,0,0,,5,,,65,127
28229,note_on,2,0,0,,4,,,64,127
28229,note_on,0,0,0,,7,,,79,127
28371,note_off,142,0,0,,7,,,79,127
28371,note_off,0,0,0,,4,,,64,127
28373,note_on,2,0,0,,5,,,65,127
28373,note_on,0,0,0,,10,,,81,127
28515,note_off,142,0,0,,10,,,81,127
28517,note_on,2,0,0,,5,,,77,127
28659,note_off,142,0,0,,5,,,77,127
28659,note_off,0,0,0,,5,,,65,127
28661,note_on,2,0,0,,11,,,70,127
28661,note_on,0,0,0,,11,,,58,127
28661,note_on,0,0,0,,7,,,79,127
28803,note_off,142,0,0,,7,,,79,127
28805,note_on,2,0,0,,2,,,74,127
28947,note_off,142,0,0,,2,,,74,127
28947,note_off,0,0,0,,11,,,58,127
28947,note_off,0,0,0,,11,,,70,127
28949,note_on,2,0,0,,0,,,60,127
28949,note_on,0,0,0,,10,,,69,127
28949,note_on,0,0,0,,5,,,77,127
29019,note_off,70,0,0,,5,,,77,127
29021,note_on,2,0,0,,4,,,76,127
29091,note_off,70,0,0,,4,,,76,127
29093,note_on,2,0,0,,5,,,77,127
29163,note_off,70,0,0,,5,,,77,127
29165,note_on,2,0,0,,4,,,76,127
29235,note_off,70,0,0,,4,,,76,127
29235,note_off,0,0,0,,10,,,69,127
29237,note_on,2,0,0,,7,,,67,127
29237,note_on,0,0,0,,5,,,77,127
29307,note_off,70,0,0,,5,,,77,127
29309,note_on,2,0,0,,4,,,76,127
29379,note_off,70,0,0,,4,,,76,127
29381,note_on,2,0,0,,2,,,74,127
29451,note_off,70,0,0,,2,,,74,127
29453,note_on,2,0,0,,4,,,76,127
29523,note_off,70,0,0,,4,,,76,127
29523,note_off,0,0,0,,7,,,67,127
29523,note_off,0,0,0,,0,,,60,127
29525,note_on,2,0,0,,10,,,69,127
29525,note_on,0,0,0,,5,,,65,127
29525,note_on,0,0,0,,5,,,77,127
29669,note_on,144,0,0,,10,,,81,127
29705,note_off,36,0,0,,5,,,77,127
29811,note_off,106,0,0,,5,,,65,127
29811,note_off,0,0,0,,10,,,69,127
29813,note_on,2,0,0,,4,,,64,127
29813,note_on,0,0,0,,7,,,67,127
29813,note_on,0,0,0,,0,,,72,127
29849,note_off,36,0,0,,10,,,81,127
29957,note_on,108,0,0,,7,,,79,127
29993,note_off,36,0,0,,0,,,72,127
30099,note_off,106,0,0,,7,,,67,127
30099,note_off,0,0,0,,4,,,64,127
30101,note_on,2,0,0,,2,,,62,127
30101,note_on,0,0,0,,5,,,65,127
30101,note_on,0,0,0,,11,,,70,127
30137,note_off,36,0,0,,7,,,79,127
30245,note_on,108,0,0,,5,,,77,127
30281,note_off,36,0,0,,11,,,70,127
30387,note_off,106,0,0,,5,,,65,127
30387,note_off,0,0,0,,2,,,62,127
30389,note_on,2,0,0,,0,,,60,127
30389,note_on,0,0,0,,4,,,64,127
30389,note_on,0,0,0,,10,,,69,127
30425,note_off,36,0,0,,5,,,77,127
30533,note_on,108,0,0,,4,,,76,127
30569,note_off,36,0,0,,10,,,69,127
30675,note_off,106,0,0,,4,,,64,127
30675,note_off,0,0,0,,0,,,60,127
30677,note_on,2,0,0,,11,,,58,127
30677,note_on,0,0,0,,2,,,62,127
30677,note_on,0,0,0,,7,,,67,127
30713,note_off,36,0,0,,4,,,76,127
30821,note_on,108,0,0,,2,,,74,127
30857,note_off,36,0,0,,7,,,67,127
30963,note_off,106,0,0,,2,,,62,127
30963,note_off,0,0,0,,11,,,58,127
30965,note_on,2,0,0,,0,,,60,127
30965,note_on,0,0,0,,10,,,57,127
30965,note_on,0,0,0,,5,,,65,127
31001,note_off,36,0,0,,2,,,74,127
31109,note_on,108,0,0,,0,,,72,127
31145,note_off,36,0,0,,5,,,65,127
31251,note_off,106,0,0,,10,,,57,127
31251,note_off,0,0,0,,0,,,60,127
31253,note_on,2,0,0,,11,,,58,127
31253,note_on,0,0,0,,7,,,55,127
31253,note_on,0,0,0,,4,,,64,127
31289,note_off,36,0,0,,0,,,72,127
31397,note_on,108,0,0,,11,,,70,127
31433,note_off,36,0,0,,4,,,64,127
31539,note_off,106,0,0,,11,,,70,127
31539,note_off,0,0,0,,7,,,55,127
31539,note_off,0,0,0,,11,,,58,127
31541,note_on,2,0,0,,5,,,53,127
31541,note_on,0,0,0,,10,,,69,127
31683,note_off,142,0,0,,10,,,69,127
31683,note_off,0,0,0,,5,,,53,127
31685,note_on,2,0,0,,4,,,52,127
31685,note_on,0,0,0,,7,,,67,127
31827,note_off,142,0,0,,7,,,67,127
31827,note_off,0,0,0,,4,,,52,127
31829,note_on,2,0,0,,5,,,53,127
31829,note_on,0,0,0,,10,,,69,127
31973,note_on,144,0,0,,5,,,65,127
32009,note_off,36,0,0,,10,,,69,127
32115,note_off,106,0,0,,5,,,65,127
32115,note_off,0,0,0,,5,,,53,127
32117,note_on,2,0,0,,11,,,46,127
32117,note_on,0,0,0,,11,,,58,127
32117,note_on,0,0,0,,7,,,67,127
32261,note_on,144,0,0,,2,,,62,127
32402,note_off,141,0,0,,7,,,67,127
32404,note_off,2,0,0,,2,,,62,127
32404,note_off,0,0,0,,11,,,58,127
32404,note_off,0,0,0,,11,,,46,127
32406,note_on,2,0,0,,10,,,57,127
32406,note_on,0,0,0,,0,,,48,127
32406,note_on,0,0,0,,5,,,65,127
32476,note_off,70,0,0,,5,,,65,127
32478,note_on,2,0,0,,4,,,64,127
32548,note_off,70,0,0,,4,,,64,127
32550,note_on,2,0,0,,5,,,65,127
32620,note_off,70,0,0,,5,,,65,127
32622,note_on,2,0,0,,4,,,64,127
32692,note_off,70,0,0,,4,,,64,127
32692,note_off,0,0,0,,10,,,57,127
32694,note_on,2,0,0,,7,,,55,127
32694,note_on,0,0,0,,5,,,65,127
32764,note_off,70,0,0,,5,,,65,127
32766,note_on,2,0,0,,4,,,64,127
32836,note_off,70,0,0,,4,,,64,127
32838,note_on,2,0,0,,2,,,62,127
32908,note_off,70,0,0,,2,,,62,127
32910,note_on,2,0,0,,4,,,64,127
32980,note_off,70,0,0,,4,,,64,127
32980,note_off,0,0,0,,7,,,55,127
32980,note_off,0,0,0,,0,,,48,127
32982,note_on,2,0,0,,5,,,41,127
32982,note_on,0,0,0,,5,,,53,127
32982,note_on,0,0,0,,5,,,65,127
33126,note_on,144,0,0,,10,,,69,127
33198,note_off,72,0,0,,5,,,65,127
33268,note_off,70,0,0,,10,,,69,127
33270,note_on,2,0,0,,5,,,65,127
33412,note_off,142,0,0,,5,,,65,127
33414,note_on,2,0,0,,0,,,60,127
33556,note_off,142,0,0,,0,,,60,127
33558,note_on,2,0,0,,10,,,57,127
33700,note_off,142,0,0,,10,,,57,127
33702,note_on,2,0,0,,10,,,57,127
33844,note_off,142,0,0,,10,,,57,127
33844,note_off,0,0,0,,5,,,53,127
33844,note_off,0,0,0,,5,,,41,127
33846,note_on,2,0,0,,5,,,41,127
33846,note_on,0,0,0,,5,,,53,127
33846,note_on,0,0,0,,10,,,57,127
33990,note_on,144,0,0,,10,,,69,127
34062,note_off,72,0,0,,10,,,57,127
34132,note_off,70,0,0,,10,,,69,127
34134,note_on,2,0,0,,5,,,65,127
34276,note_off,142,0,0,,5,,,65,127
34278,note_on,2,0,0,,0,,,60,127
34420,note_off,142,0,0,,0,,,60,127
34422,note_on,2,0,0,,10,,,57,127
34564,note_off,142,0,0,,10,,,57,127
34566,note_on,2,0,0,,10,,,57,127
34708,note_off,142,0,0,,10,,,57,127
34708,note_off,0,0,0,,5,,,53,127
34708,note_off,0,0,0,,5,,,41,127
34710,note_on,2,0,0,,5,,,53,127
34710,note_on,0,0,0,,5,,,41,127
34710,note_on,0,0,0,,10,,,57,127
34854,note_on,144,0,0,,10,,,69,127
34926,note_off,72,0,0,,10,,,57,127
34996,note_off,70,0,0,,10,,,69,127
34998,note_on,2,0,0,,5,,,65,127
35140,note_off,142,0,0,,5,,,65,127
35142,note_on,2,0,0,,0,,,60,127
35284,note_off,142,0,0,,0,,,60,127
35286,note_on,2,0,0,,10,,,57,127
35428,note_off,142,0,0,,10,,,57,127
35430,note_on,2,0,0,,10,,,57,127
35572,note_off,142,0,0,,10,,,57,127
35572,note_off,0,0,0,,5,,,41,127
35572,note_off,0,0,0,,5,,,53,127
35574,note_on,2,0,0,,5,,,53,127
35574,note_on,0,0,0,,5,,,41,127
35574,note_on,0,0,0,,10,,,57,127
35718,note_on,144,0,0,,5,,,65,127
35790,note_off,72,0,0,,10,,,57,127
35860,note_off,70,0,0,,5,,,65,127
35862,note_on,2,0,0,,0,,,60,127
36004,note_off,142,0,0,,0,,,60,127
36006,note_on,2,0,0,,10,,,57,127
36144,note_off,138,0,0,,5,,,53,127
36148,note_off,4,0,0,,10,,,57,127
36150,note_on,2,0,0,,5,,,53,127
36292,note_off,142,0,0,,5,,,53,127
36294,note_on,2,0,0,,5,,,53,127
36436,note_off,142,0,0,,5,,,53,127
36436,note_off,0,0,0,,5,,,41,127
36438,note_on,2,0,0,,5,,,41,127
36438,note_on,0,0,0,,7,,,55,127
36484,note_off,46,0,0,,7,,,55,127
36486,note_on,2,0,0,,5,,,53,127
36532,note_off,46,0,0,,5,,,53,127
36534,note_on,2,0,0,,7,,,55,127
36580,note_off,46,0,0,,7,,,55,127
36582,note_on,2,0,0,,5,,,53,127
37300,note_off,718,0,0,,5,,,53,127
37300,note_off,0,0,0,,5,,,41,127
37302,note_on,2,0,0,,10,,,69,127
37302,note_on,0,0,0,,5,,,65,127
37302,note_on,0,0,0,,5,,,77,127
37588,note_off,286,0,0,,5,,,77,127
37588,note_off,0,0,0,,5,,,65,127
37588,note_off,0,0,0,,10,,,69,127
37590,note_on,2,0,0,,7,,,67,127
37590,note_on,0,0,0,,11,,,70,127
37590,note_on,0,0,0,,5,,,77,127
37660,note_off,70,0,0,,5,,,77,127
37662,note_on,2,0,0,,4,,,76,127
37732,note_off,70,0,0,,4,,,76,127
37734,note_on,2,0,0,,5,,,77,127
37804,note_off,70,0,0,,5,,,77,127
37806,note_on,2,0,0,,4,,,76,127
37876,note_off,70,0,0,,4,,,76,127
37878,note_on,2,0,0,,5,,,77,127
37948,note_off,70,0,0,,5,,,77,127
37950,note_on,2,0,0,,4,,,76,127
38020,note_off,70,0,0,,4,,,76,127
38022,note_on,2,0,0,,2,,,74,127
38092,note_off,70,0,0,,2,,,74,127
38094,note_on,2,0,0,,4,,,76,127
38164,note_off,70,0,0,,4,,,76,127
38164,note_off,0,0,0,,11,,,70,127
38164,note_off,0,0,0,,7,,,67,127
38166,note_on,2,0,0,,10,,,69,127
38166,note_on,0,0,0,,5,,,77,127
38310,note_on,144,0,0,,0,,,72,127
38346,note_off,36,0,0,,5,,,77,127
38452,note_off,106,0,0,,0,,,72,127
38454,note_on,2,0,0,,5,,,77,127
38596,note_off,142,0,0,,5,,,77,127
38596,note_off,0,0,0,,10,,,69,127
38598,note_on,2,0,0,,11,,,70,127
38598,note_on,0,0,0,,7,,,79,127
38740,note_off,142,0,0,,7,,,79,127
38740,note_off,0,0,0,,11,,,70,127
38742,note_on,2,0,0,,10,,,69,127
38742,note_on,0,0,0,,10,,,81,127
38884,note_off,142,0,0,,10,,,81,127
38884,note_off,0,0,0,,10,,,69,127
38886,note_on,2,0,0,,7,,,67,127
38886,note_on,0,0,0,,11,,,82,127
39028,note_off,142,0,0,,11,,,82,127
39028,note_off,0,0,0,,7,,,67,127
39030,note_on,2,0,0,,10,,,69,127
39030,note_on,0,0,0,,5,,,65,127
39030,note_on,0,0,0,,10,,,81,127
39316,note_off,286,0,0,,10,,,81,127
39316,note_off,0,0,0,,5,,,65,127
39316,note_off,0,0,0,,10,,,69,127
39318,note_on,2,0,0,,0,,,60,127
39318,note_on,0,0,0,,7,,,67,127
39318,note_on,0,0,0,,10,,,81,127
39388,note_off,70,0,0,,10,,,81,127
39390,note_on,2,0,0,,7,,,79,127
39460,note_off,70,0,0,,7,,,79,127
39462,note_on,2,0,0,,10,,,81,127
39532,note_off,70,0,0,,10,,,81,127
39534,note_on,2,0,0,,7,,,79,127
39604,note_off,70,0,0,,7,,,79,127
39606,note_on,2,0,0,,10,,,81,127
39676,note_off,70,0,0,,10,,,81,127
39678,note_on,2,0,0,,7,,,79,127
39748,note_off,70,0,0,,7,,,79,127
39750,note_on,2,0,0,,5,,,77,127
39820,note_off,70,0,0,,5,,,77,127
39822,note_on,2,0,0,,7,,,79,127
39892,note_off,70,0,0,,7,,,79,127
39892,note_off,0,0,0,,7,,,67,127
39892,note_off,0,0,0,,0,,,60,127
39894,note_on,2,0,0,,5,,,53,127
39894,note_on,0,0,0,,7,,,79,127
40180,note_off,286,0,0,,5,,,53,127
40182,note_on,2,0,0,,5,,,65,127
40468,note_off,286,0,0,,7,,,79,127
40470,note_on,2,0,0,,10,,,81,127
40740,note_off,270,0,0,,10,,,81,127
40756,note_off,16,0,0,,5,,,65,127
40758,note_on,2,0,0,,10,,,69,127
40758,note_on,0,0,0,,5,,,65,127
40758,note_on,0,0,0,,10,,,81,127
40902,note_on,144,0,0,,1,,,73,127
40938,note_off,36,0,0,,10,,,81,127
41044,note_off,106,0,0,,1,,,73,127
41046,note_on,2,0,0,,2,,,74,127
41190,note_on,144,0,0,,7,,,79,127
41226,note_off,36,0,0,,2,,,74,127
41332,note_off,106,0,0,,7,,,79,127
41332,note_off,0,0,0,,5,,,65,127
41332,note_off,0,0,0,,10,,,69,127
41334,note_on,2,0,0,,7,,,67,127
41334,note_on,0,0,0,,4,,,64,127
41334,note_on,0,0,0,,5,,,77,127
41334,note_on,0,0,0,,7,,,79,127
41476,note_off,142,0,0,,7,,,79,127
41476,note_off,0,0,0,,5,,,77,127
41478,note_on,2,0,0,,4,,,76,127
41620,note_off,142,0,0,,4,,,76,127
41620,note_off,0,0,0,,4,,,64,127
41620,note_off,0,0,0,,7,,,67,127
41622,note_on,2,0,0,,2,,,62,127
41622,note_on,0,0,0,,5,,,65,127
41622,note_on,0,0,0,,5,,,77,127
41766,note_on,144,0,0,,8,,,68,127
41802,note_off,36,0,0,,5,,,77,127
41908,note_off,106,0,0,,8,,,68,127
41910,note_on,2,0,0,,10,,,69,127
42054,note_on,144,0,0,,4,,,76,127
42090,note_off,36,0,0,,10,,,69,127
42196,note_off,106,0,0,,4,,,76,127
42196,note_off,0,0,0,,5,,,65,127
42196,note_off,0,0,0,,2,,,62,127
42198,note_on,2,0,0,,4,,,64,127
42198,note_on,0,0,0,,0,,,60,127
42198,note_on,0,0,0,,2,,,74,127
42198,note_on,0,0,0,,4,,,76,127
42340,note_off,142,0,0,,4,,,76,127
42340,note_off,0,0,0,,2,,,74,127
42342,note_on,2,0,0,,1,,,73,127
42484,note_off,142,0,0,,1,,,73,127
42484,note_off,0,0,0,,0,,,60,127
42484,note_off,0,0,0,,4,,,64,127
42486,note_on,2,0,0,,11,,,58,127
42486,note_on,0,0,0,,2,,,62,127
42486,note_on,0,0,0,,2,,,74,127
42630,note_on,144,0,0,,6,,,66,127
42666,note_off,36,0,0,,2,,,74,127
42772,note_off,106,0,0,,6,,,66,127
42774,note_on,2,0,0,,7,,,67,127
42918,note_on,144,0,0,,0,,,72,127
42954,note_off,36,0,0,,7,,,67,127
43060,note_off,106,0,0,,0,,,72,127
43060,note_off,0,0,0,,2,,,62,127
43060,note_off,0,0,0,,11,,,58,127
43062,note_on,2,0,0,,0,,,60,127
43062,note_on,0,0,0,,10,,,57,127
43062,note_on,0,0,0,,11,,,70,127
43062,note_on,0,0,0,,0,,,72,127
43204,note_off,142,0,0,,0,,,72,127
43204,note_off,0,0,0,,11,,,70,127
43206,note_on,2,0,0,,10,,,69,127
43348,note_off,142,0,0,,10,,,69,127
43348,note_off,0,0,0,,10,,,57,127
43348,note_off,0,0,0,,0,,,60,127
43350,note_on,2,0,0,,11,,,58,127
43350,note_on,0,0,0,,7,,,55,127
43350,note_on,0,0,0,,11,,,70,127
43494,note_on,144,0,0,,1,,,61,127
43530,note_off,36,0,0,,11,,,70,127
43636,note_off,106,0,0,,1,,,61,127
43638,note_on,2,0,0,,2,,,62,127
43782,note_on,144,0,0,,10,,,69,127
43818,note_off,36,0,0,,2,,,62,127
43924,note_off,106,0,0,,10,,,69,127
43924,note_off,0,0,0,,7,,,55,127
43924,note_off,0,0,0,,11,,,58,127
43926,note_on,2,0,0,,5,,,53,127
43926,note_on,0,0,0,,10,,,57,127
43926,note_on,0,0,0,,7,,,67,127
43926,note_on,0,0,0,,10,,,69,127
44068,note_off,142,0,0,,10,,,69,127
44068,note_off,0,0,0,,7,,,67,127
44070,note_on,2,0,0,,6,,,66,127
44212,note_off,142,0,0,,6,,,66,127
44212,note_off,0,0,0,,10,,,57,127
44212,note_off,0,0,0,,5,,,53,127
44214,note_on,2,0,0,,7,,,55,127
44214,note_on,0,0,0,,4,,,52,127
44214,note_on,0,0,0,,7,,,67,127
44358,note_on,144,0,0,,11,,,70,127
44394,note_off,36,0,0,,7,,,67,127
44500,note_off,106,0,0,,11,,,70,127
44500,note_off,0,0,0,,4,,,52,127
44502,note_on,2,0,0,,1,,,49,127
44502,note_on,0,0,0,,10,,,69,127
44644,note_off,142,0,0,,10,,,69,127
44646,note_on,2,0,0,,7,,,67,127
44788,note_off,142,0,0,,7,,,67,127
44788,note_off,0,0,0,,1,,,49,127
44788,note_off,0,0,0,,7,,,55,127
44790,note_on,2,0,0,,10,,,45,127
44790,note_on,0,0,0,,5,,,65,127
44932,note_off,142,0,0,,5,,,65,127
44934,note_on,2,0,0,,4,,,64,127
45076,note_off,142,0,0,,4,,,64,127
45076,note_off,0,0,0,,10,,,45,127
45078,note_on,2,0,0,,2,,,38,127
45078,note_on,0,0,0,,7,,,67,127
45148,note_off,70,0,0,,7,,,67,127
45150,note_on,2,0,0,,5,,,65,127
45220,note_off,70,0,0,,5,,,65,127
45222,note_on,2,0,0,,7,,,67,127
45292,note_off,70,0,0,,7,,,67,127
45294,note_on,2,0,0,,5,,,65,127
45364,note_off,70,0,0,,5,,,65,127
45366,note_on,2,0,0,,4,,,64,127
45652,note_off,286,0,0,,4,,,64,127
45654,note_on,2,0,0,,2,,,62,127
45940,note_off,286,0,0,,2,,,62,127
45940,note_off,0,0,0,,2,,,38,127
45942,note_on,2,0,0,,2,,,50,127
45942,note_on,0,0,0,,2,,,74,127
46086,note_on,144,0,0,,10,,,69,127
46122,note_off,36,0,0,,2,,,74,127
46228,note_off,106,0,0,,10,,,69,127
46230,note_on,2,0,0,,6,,,66,127
46372,note_off,142,0,0,,6,,,66,127
46374,note_on,2,0,0,,2,,,62,127
46516,note_off,142,0,0,,2,,,62,127
46516,note_off,0,0,0,,2,,,50,127
46518,note_on,2,0,0,,6,,,54,127
46518,note_on,0,0,0,,0,,,72,127
46804,note_off,286,0,0,,6,,,54,127
46806,note_on,2,0,0,,7,,,55,127
46878,note_off,72,0,0,,0,,,72,127
46878,note_on,0,0,0,,11,,,70,127
46948,note_off,70,0,0,,11,,,70,127
46950,note_on,2,0,0,,0,,,72,127
47020,note_off,70,0,0,,0,,,72,127
47022,note_on,2,0,0,,11,,,70,127
47092,note_off,70,0,0,,11,,,70,127
47092,note_off,0,0,0,,7,,,55,127
47094,note_on,2,0,0,,10,,,57,127
47094,note_on,0,0,0,,10,,,69,127
47380,note_off,286,0,0,,10,,,69,127
47380,note_off,0,0,0,,10,,,57,127
47382,note_on,2,0,0,,11,,,58,127
47382,note_on,0,0,0,,7,,,67,127
47668,note_off,286,0,0,,7,,,67,127
47668,note_off,0,0,0,,11,,,58,127
47670,note_on,2,0,0,,2,,,50,127
47670,note_on,0,0,0,,2,,,74,127
47814,note_on,144,0,0,,10,,,69,127
47850,note_off,36,0,0,,2,,,74,127
47956,note_off,106,0,0,,10,,,69,127
47958,note_on,2,0,0,,6,,,66,127
48100,note_off,142,0,0,,6,,,66,127
48102,note_on,2,0,0,,2,,,62,127
48244,note_off,142,0,0,,2,,,62,127
48244,note_off,0,0,0,,2,,,50,127
48246,note_on,2,0,0,,6,,,54,127
48246,note_on,0,0,0,,0,,,72,127
48532,note_off,286,0,0,,6,,,54,127
48534,note_on,2,0,0,,7,,,55,127
48606,note_off,72,0,0,,0,,,72,127
48606,note_on,0,0,0,,11,,,70,127
48676,note_off,70,0,0,,11,,,70,127
48678,note_on,2,0,0,,0,,,72,127
48748,note_off,70,0,0,,0,,,72,127
48750,note_on,2,0,0,,11,,,70,127
48820,note_off,70,0,0,,11,,,70,127
48820,note_off,0,0,0,,7,,,55,127
48822,note_on,2,0,0,,10,,,57,127
48822,note_on,0,0,0,,10,,,69,127
49108,note_off,286,0,0,,10,,,69,127
49108,note_off,0,0,0,,10,,,57,127
49110,note_on,2,0,0,,11,,,58,127
49110,note_on,0,0,0,,7,,,67,127
49396,note_off,286,0,0,,7,,,67,127
49396,note_off,0,0,0,,11,,,58,127
49398,note_on,2,0,0,,4,,,52,127
49398,note_on,0,0,0,,4,,,76,127
49542,note_on,144,0,0,,12,,,71,127
49578,note_off,36,0,0,,4,,,76,127
49684,note_off,106,0,0,,12,,,71,127
49686,note_on,2,0,0,,8,,,68,127
49828,note_off,142,0,0,,8,,,68,127
49830,note_on,2,0,0,,4,,,64,127
49972,note_off,142,0,0,,4,,,64,127
49972,note_off,0,0,0,,4,,,52,127
49974,note_on,2,0,0,,8,,,56,127
49974,note_on,0,0,0,,2,,,74,127
50260,note_off,286,0,0,,8,,,56,127
50262,note_on,2,0,0,,10,,,57,127
50334,note_off,72,0,0,,2,,,74,127
50334,note_on,0,0,0,,0,,,72,127
50404,note_off,70,0,0,,0,,,72,127
50406,note_on,2,0,0,,2,,,74,127
50476,note_off,70,0,0,,2,,,74,127
50478,note_on,2,0,0,,0,,,72,127
50548,note_off,70,0,0,,0,,,72,127
50548,note_off,0,0,0,,10,,,57,127
50550,note_on,2,0,0,,12,,,59,127
50550,note_on,0,0,0,,12,,,71,127
50836,note_off,286,0,0,,12,,,71,127
50836,note_off,0,0,0,,12,,,59,127
50838,note_on,2,0,0,,0,,,60,127
50838,note_on,0,0,0,,10,,,69,127
51124,note_off,286,0,0,,10,,,69,127
51124,note_off,0,0,0,,0,,,60,127
51126,note_on,2,0,0,,4,,,52,127
51126,note_on,0,0,0,,4,,,76,127
51270,note_on,144,0,0,,12,,,71,127
51306,note_off,36,0,0,,4,,,76,127
51412,note_off,106,0,0,,12,,,71,127
51414,note_on,2,0,0,,8,,,68,127
51556,note_off,142,0,0,,8,,,68,127
51558,note_on,2,0,0,,4,,,64,127
51700,note_off,142,0,0,,4,,,64,127
51700,note_off,0,0,0,,4,,,52,127
51702,note_on,2,0,0,,8,,,56,127
51702,note_on,0,0,0,,2,,,74,127
51988,note_off,286,0,0,,2,,,74,127
51988,note_off,0,0,0,,8,,,56,127
51990,note_on,2,0,0,,10,,,57,127
51990,note_on,0,0,0,,1,,,73,127
52132,note_off,142,0,0,,1,,,73,127
52134,note_on,2,0,0,,2,,,74,127
52276,note_off,142,0,0,,2,,,74,127
52276,note_off,0,0,0,,10,,,57,127
52278,note_on,2,0,0,,11,,,58,127
52278,note_on,0,0,0,,4,,,76,127
52420,note_off,142,0,0,,4,,,76,127
52422,note_on,2,0,0,,5,,,77,127
52564,note_off,142,0,0,,5,,,77,127
52564,note_off,0,0,0,,11,,,58,127
52566,note_on,2,0,0,,10,,,57,127
52566,note_on,0,0,0,,7,,,79,127
52708,note_off,142,0,0,,7,,,79,127
52710,note_on,2,0,0,,10,,,81,127
52852,note_off,142,0,0,,10,,,81,127
52852,note_off,0,0,0,,10,,,57,127
52854,note_on,2,0,0,,7,,,55,127
52854,note_on,0,0,0,,11,,,82,127
52996,note_off,142,0,0,,11,,,82,127
52998,note_on,2,0,0,,10,,,81,127
53140,note_off,142,0,0,,10,,,81,127
53140,note_off,0,0,0,,7,,,55,127
53142,note_on,2,0,0,,10,,,57,127
53142,note_on,0,0,0,,7,,,79,127
53284,note_off,142,0,0,,7,,,79,127
53286,note_on,2,0,0,,5,,,77,127
53428,note_off,142,0,0,,5,,,77,127
53428,note_off,0,0,0,,10,,,57,127
53430,note_on,2,0,0,,11,,,58,127
53430,note_on,0,0,0,,4,,,76,127
53572,note_off,142,0,0,,4,,,76,127
53574,note_on,2,0,0,,2,,,74,127
53716,note_off,142,0,0,,2,,,74,127
53716,note_off,0,0,0,,11,,,58,127
53718,note_on,2,0,0,,10,,,57,127
53718,note_on,0,0,0,,1,,,73,127
53860,note_off,142,0,0,,1,,,73,127
53862,note_on,2,0,0,,2,,,74,127
54004,note_off,142,0,0,,2,,,74,127
54004,note_off,0,0,0,,10,,,57,127
54006,note_on,2,0,0,,11,,,58,127
54006,note_on,0,0,0,,4,,,76,127
54148,note_off,142,0,0,,4,,,76,127
54150,note_on,2,0,0,,5,,,77,127
54292,note_off,142,0,0,,5,,,77,127
54292,note_off,0,0,0,,11,,,58,127
54294,note_on,2,0,0,,10,,,57,127
54294,note_on,0,0,0,,7,,,79,127
54436,note_off,142,0,0,,7,,,79,127
54438,note_on,2,0,0,,10,,,81,127
54580,note_off,142,0,0,,10,,,81,127
54580,note_off,0,0,0,,10,,,57,127
54582,note_on,2,0,0,,7,,,55,127
54582,note_on,0,0,0,,11,,,82,127
54724,note_off,142,0,0,,11,,,82,127
54726,note_on,2,0,0,,10,,,81,127
54868,note_off,142,0,0,,10,,,81,127
54868,note_off,0,0,0,,7,,,55,127
54870,note_on,2,0,0,,10,,,57,127
54870,note_on,0,0,0,,7,,,79,127
55012,note_off,142,0,0,,7,,,79,127
55014,note_on,2,0,0,,5,,,77,127
55156,note_off,142,0,0,,5,,,77,127
55156,note_off,0,0,0,,10,,,57,127
55158,note_on,2,0,0,,11,,,58,127
55158,note_on,0,0,0,,4,,,76,127
55300,note_off,142,0,0,,4,,,76,127
55302,note_on,2,0,0,,2,,,74,127
55444,note_off,142,0,0,,2,,,74,127
55444,note_off,0,0,0,,11,,,58,127
55446,note_on,2,0,0,,10,,,57,127
55446,note_on,0,0,0,,1,,,73,127
55588,note_off,142,0,0,,1,,,73,127
55590,note_on,2,0,0,,2,,,74,127
55732,note_off,142,0,0,,2,,,74,127
55732,note_off,0,0,0,,10,,,57,127
55734,note_on,2,0,0,,11,,,58,127
55734,note_on,0,0,0,,4,,,76,127
55876,note_off,142,0,0,,4,,,76,127
55878,note_on,2,0,0,,5,,,77,127
56020,note_off,142,0,0,,5,,,77,127
56020,note_off,0,0,0,,11,,,58,127
56022,note_on,2,0,0,,10,,,57,127
56022,note_on,0,0,0,,7,,,79,127
56164,note_off,142,0,0,,7,,,79,127
56166,note_on,2,0,0,,10,,,81,127
56308,note_off,142,0,0,,10,,,81,127
56308,note_off,0,0,0,,10,,,57,127
56310,note_on,2,0,0,,7,,,55,127
56310,note_on,0,0,0,,11,,,82,127
56452,note_off,142,0,0,,11,,,82,127
56454,note_on,2,0,0,,10,,,81,127
56596,note_off,142,0,0,,10,,,81,127
56596,note_off,0,0,0,,7,,,55,127
56598,note_on,2,0,0,,10,,,57,127
56598,note_on,0,0,0,,7,,,79,127
56740,note_off,142,0,0,,7,,,79,127
56742,note_on,2,0,0,,5,,,77,127
56884,note_off,142,0,0,,5,,,77,127
56884,note_off,0,0,0,,10,,,57,127
56886,note_on,2,0,0,,11,,,58,127
56886,note_on,0,0,0,,4,,,76,127
57028,note_off,142,0,0,,4,,,76,127
57030,note_on,2,0,0,,2,,,74,127
57172,note_off,142,0,0,,2,,,74,127
57172,note_off,0,0,0,,11,,,58,127
57174,note_on,2,0,0,,10,,,57,127
57174,note_on,0,0,0,,1,,,73,127
57316,note_off,142,0,0,,1,,,73,127
57318,note_on,2,0,0,,2,,,74,127
57460,note_off,142,0,0,,2,,,74,127
57460,note_off,0,0,0,,10,,,57,127
57462,note_on,2,0,0,,12,,,59,127
57462,note_on,0,0,0,,1,,,73,127
57604,note_off,142,0,0,,1,,,73,127
57606,note_on,2,0,0,,12,,,71,127
57748,note_off,142,0,0,,12,,,71,127
57748,note_off,0,0,0,,12,,,59,127
57750,note_on,2,0,0,,1,,,61,127
57750,note_on,0,0,0,,10,,,69,127
57892,note_off,142,0,0,,10,,,69,127
57894,note_on,2,0,0,,7,,,67,127
58036,note_off,142,0,0,,7,,,67,127
58036,note_off,0,0,0,,1,,,61,127
58038,note_on,2,0,0,,2,,,62,127
58038,note_on,0,0,0,,5,,,65,127
58134,note_on,96,0,0,,4,,,64,127
58138,note_off,4,0,0,,5,,,65,127
58180,note_off,42,0,0,,4,,,64,127
58182,note_on,2,0,0,,5,,,65,127
58228,note_off,46,0,0,,5,,,65,127
58230,note_on,2,0,0,,7,,,67,127
58276,note_off,46,0,0,,7,,,67,127
58278,note_on,2,0,0,,10,,,69,127
58324,note_off,46,0,0,,10,,,69,127
58326,note_on,2,0,0,,11,,,70,127
58374,note_on,48,0,0,,0,,,72,127
58382,note_off,8,0,0,,11,,,70,127
58421,note_off,39,0,0,,0,,,72,127
58423,note_on,2,0,0,,2,,,74,127
58469,note_off,46,0,0,,2,,,74,127
58471,note_on,2,0,0,,4,,,76,127
58519,note_off,48,0,0,,4,,,76,127
58519,note_on,0,0,0,,5,,,77,127
58565,note_off,46,0,0,,5,,,77,127
58567,note_on,2,0,0,,7,,,79,127
58613,note_off,46,0,0,,7,,,79,127
58613,note_off,0,0,0,,2,,,62,127
58615,note_on,2,0,0,,5,,,65,127
58615,note_on,0,0,0,,2,,,62,127
58615,note_on,0,0,0,,10,,,81,127
58901,note_off,286,0,0,,10,,,81,127
58901,note_off,0,0,0,,2,,,62,127
58901,note_off,0,0,0,,5,,,65,127
58903,note_on,2,0,0,,7,,,67,127
58903,note_on,0,0,0,,7,,,55,127
58903,note_on,0,0,0,,7,,,79,127
59189,note_off,286,0,0,,7,,,79,127
59189,note_off,0,0,0,,7,,,55,127
59189,note_off,0,0,0,,7,,,67,127
59191,note_on,2,0,0,,10,,,57,127
59191,note_on,0,0,0,,2,,,62,127
59191,note_on,0,0,0,,5,,,65,127
59191,note_on,0,0,0,,5,,,77,127
59333,note_off,142,0,0,,5,,,77,127
59335,note_on,2,0,0,,4,,,76,127
59477,note_off,142,0,0,,4,,,76,127
59477,note_off,0,0,0,,5,,,65,127
59477,note_off,0,0,0,,2,,,62,127
59479,note_on,2,0,0,,4,,,64,127
59479,note_on,0,0,0,,7,,,67,127
59479,note_on,0,0,0,,2,,,74,127
59621,note_off,142,0,0,,2,,,74,127
59623,note_on,2,0,0,,1,,,73,127
59765,note_off,142,0,0,,1,,,73,127
59765,note_off,0,0,0,,7,,,67,127
59765,note_off,0,0,0,,4,,,64,127
59765,note_off,0,0,0,,10,,,57,127
59767,note_on,2,0,0,,2,,,50,127
59767,note_on,0,0,0,,2,,,74,127
59908,note_off,141,0,0,,2,,,74,127
59911,note_on,3,0,0,,2,,,74,127
60053,note_off,142,0,0,,2,,,74,127
60055,note_on,2,0,0,,1,,,73,127
60197,note_off,142,0,0,,1,,,73,127
60199,note_on,2,0,0,,2,,,74,127
60341,note_off,142,0,0,,2,,,74,127
60343,note_on,2,0,0,,10,,,69,127
60487,note_on,144,0,0,,5,,,77,127
60559,note_off,72,0,0,,10,,,69,127
60629,note_off,70,0,0,,5,,,77,127
60629,note_off,0,0,0,,2,,,50,127
60631,note_on,2,0,0,,5,,,65,127
60631,note_on,0,0,0,,10,,,69,127
60917,note_off,286,0,0,,5,,,65,127
60919,note_on,2,0,0,,4,,,64,127
60991,note_off,72,0,0,,10,,,69,127
60991,note_on,0,0,0,,7,,,67,127
61061,note_off,70,0,0,,7,,,67,127
61063,note_on,2,0,0,,10,,,69,127
61133,note_off,70,0,0,,10,,,69,127
61135,note_on,2,0,0,,7,,,67,127
61205,note_off,70,0,0,,7,,,67,127
61205,note_off,0,0,0,,4,,,64,127
61207,note_on,2,0,0,,10,,,57,127
61207,note_on,0,0,0,,10,,,69,127
61277,note_off,70,0,0,,10,,,69,127
61279,note_on,2,0,0,,7,,,67,127
61349,note_off,70,0,0,,7,,,67,127
61351,note_on,2,0,0,,5,,,65,127
61421,note_off,70,0,0,,5,,,65,127
61423,note_on,2,0,0,,7,,,67,127
61493,note_off,70,0,0,,7,,,67,127
61493,note_off,0,0,0,,10,,,57,127
61495,note_on,2,0,0,,2,,,50,127
61495,note_on,0,0,0,,5,,,65,127
61639,note_on,144,0,0,,2,,,74,127
61675,note_off,36,0,0,,5,,,65,127
61781,note_off,106,0,0,,2,,,74,127
61783,note_on,2,0,0,,1,,,73,127
61925,note_off,142,0,0,,1,,,73,127
61927,note_on,2,0,0,,2,,,74,127
62069,note_off,142,0,0,,2,,,74,127
62071,note_on,2,0,0,,10,,,69,127
62215,note_on,144,0,0,,5,,,77,127
62287,note_off,72,0,0,,10,,,69,127
62357,note_off,70,0,0,,5,,,77,127
62357,note_off,0,0,0,,2,,,50,127
62359,note_on,2,0,0,,5,,,65,127
62359,note_on,0,0,0,,10,,,69,127
62645,note_off,286,0,0,,5,,,65,127
62647,note_on,2,0,0,,4,,,64,127
62719,note_off,72,0,0,,10,,,69,127
62719,note_on,0,0,0,,7,,,67,127
62789,note_off,70,0,0,,7,,,67,127
62791,note_on,2,0,0,,10,,,69,127
62861,note_off,70,0,0,,10,,,69,127
62863,note_on,2,0,0,,7,,,67,127
62933,note_off,70,0,0,,7,,,67,127
62933,note_off,0,0,0,,4,,,64,127
62935,note_on,2,0,0,,10,,,57,127
62935,note_on,0,0,0,,10,,,69,127
63005,note_off,70,0,0,,10,,,69,127
63007,note_on,2,0,0,,7,,,67,127
63077,note_off,70,0,0,,7,,,67,127
63079,note_on,2,0,0,,5,,,65,127
63149,note_off,70,0,0,,5,,,65,127
63151,note_on,2,0,0,,7,,,67,127
63221,note_off,70,0,0,,7,,,67,127
63221,note_off,0,0,0,,10,,,57,127
63223,note_on,2,0,0,,2,,,50,127
63223,note_on,0,0,0,,5,,,65,127
63367,note_on,144,0,0,,5,,,77,127
63508,note_off,141,0,0,,5,,,65,127
63510,note_off,2,0,0,,5,,,77,127
63512,note_on,2,0,0,,4,,,76,127
63654,note_off,142,0,0,,4,,,76,127
63656,note_on,2,0,0,,5,,,77,127
63798,note_off,142,0,0,,5,,,77,127
63800,note_on,2,0,0,,2,,,74,127
63944,note_on,144,0,0,,5,,,77,127
63980,note_off,36,0,0,,2,,,74,127
64086,note_off,106,0,0,,5,,,77,127
64086,note_off,0,0,0,,2,,,50,127
64088,note_on,2,0,0,,5,,,65,127
64088,note_on,0,0,0,,10,,,69,127
64232,note_on,144,0,0,,10,,,81,127
64373,note_off,141,0,0,,10,,,69,127
64375,note_off,2,0,0,,5,,,65,127
64377,note_on,2,0,0,,4,,,64,127
64443,note_off,66,0,0,,10,,,81,127
64449,note_on,6,0,0,,7,,,79,127
64519,note_off,70,0,0,,7,,,79,127
64521,note_on,2,0,0,,10,,,81,127
64591,note_off,70,0,0,,10,,,81,127
64593,note_on,2,0,0,,7,,,79,127
64663,note_off,70,0,0,,7,,,79,127
64663,note_off,0,0,0,,4,,,64,127
64665,note_on,2,0,0,,10,,,57,127
64665,note_on,0,0,0,,10,,,81,127
64735,note_off,70,0,0,,10,,,81,127
64737,note_on,2,0,0,,7,,,79,127
64807,note_off,70,0,0,,7,,,79,127
64809,note_on,2,0,0,,5,,,77,127
64879,note_off,70,0,0,,5,,,77,127
64881,note_on,2,0,0,,7,,,79,127
64951,note_off,70,0,0,,7,,,79,127
64951,note_off,0,0,0,,10,,,57,127
64953,note_on,2,0,0,,2,,,50,127
64953,note_on,0,0,0,,5,,,77,127
65094,note_off,141,0,0,,5,,,77,127
65097,note_on,3,0,0,,5,,,77,127
65239,note_off,142,0,0,,5,,,77,127
65241,note_on,2,0,0,,4,,,76,127
65383,note_off,142,0,0,,4,,,76,127
65385,note_on,2,0,0,,5,,,77,127
65527,note_off,142,0,0,,5,,,77,127
65529,note_on,2,0,0,,2,,,74,127
65673,note_on,144,0,0,,5,,,77,127
65709,note_off,36,0,0,,2,,,74,127
65815,note_off,106,0,0,,5,,,77,127
65815,note_off,0,0,0,,2,,,50,127
65817,note_on,2,0,0,,5,,,65,127
65817,note_on,0,0,0,,10,,,69,127
65961,note_on,144,0,0,,10,,,81,127
66102,note_off,141,0,0,,10,,,69,127
66104,note_off,2,0,0,,5,,,65,127
66106,note_on,2,0,0,,4,,,64,127
66172,note_off,66,0,0,,10,,,81,127
66178,note_on,6,0,0,,7,,,79,127
66248,note_off,70,0,0,,7,,,79,127
66250,note_on,2,0,0,,10,,,81,127
66320,note_off,70,0,0,,10,,,81,127
66322,note_on,2,0,0,,7,,,79,127
66392,note_off,70,0,0,,7,,,79,127
66392,note_off,0,0,0,,4,,,64,127
66394,note_on,2,0,0,,10,,,57,127
66394,note_on,0,0,0,,10,,,81,127
66464,note_off,70,0,0,,10,,,81,127
66466,note_on,2,0,0,,7,,,79,127
66536,note_off,70,0,0,,7,,,79,127
66538,note_on,2,0,0,,5,,,77,127
66608,note_off,70,0,0,,5,,,77,127
66610,note_on,2,0,0,,7,,,79,127
66680,note_off,70,0,0,,7,,,79,127
66680,note_off,0,0,0,,10,,,57,127
66682,note_on,2,0,0,,2,,,74,127
66682,note_on,0,0,0,,5,,,77,127
66826,note_on,144,0,0,,10,,,81,127
66862,note_off,36,0,0,,5,,,77,127
66968,note_off,106,0,0,,2,,,74,127
66970,note_on,2,0,0,,0,,,72,127
66970,note_on,0,0,0,,4,,,76,127
67006,note_off,36,0,0,,10,,,81,127
67114,note_on,108,0,0,,10,,,81,127
67150,note_off,36,0,0,,4,,,76,127
67256,note_off,106,0,0,,0,,,72,127
67258,note_on,2,0,0,,11,,,70,127
67258,note_on,0,0,0,,2,,,74,127
67294,note_off,36,0,0,,10,,,81,127
67402,note_on,108,0,0,,10,,,81,127
67438,note_off,36,0,0,,2,,,74,127
67544,note_off,106,0,0,,11,,,70,127
67546,note_on,2,0,0,,10,,,69,127
67546,note_on,0,0,0,,0,,,72,127
67582,note_off,36,0,0,,10,,,81,127
67690,note_on,108,0,0,,10,,,81,127
67726,note_off,36,0,0,,0,,,72,127
67832,note_off,106,0,0,,10,,,69,127
67834,note_on,2,0,0,,7,,,67,127
67834,note_on,0,0,0,,11,,,70,127
67870,note_off,36,0,0,,10,,,81,127
67978,note_on,108,0,0,,10,,,81,127
68014,note_off,36,0,0,,11,,,70,127
68120,note_off,106,0,0,,7,,,67,127
68122,note_on,2,0,0,,5,,,65,127
68122,note_on,0,0,0,,10,,,69,127
68158,note_off,36,0,0,,10,,,81,127
68266,note_on,108,0,0,,10,,,81,127
68407,note_off,141,0,0,,10,,,69,127
68409,note_off,2,0,0,,5,,,65,127
68411,note_on,2,0,0,,4,,,64,127
68411,note_on,0,0,0,,10,,,69,127
68552,note_off,141,0,0,,10,,,81,127
68555,note_on,3,0,0,,7,,,79,127
68591,note_off,36,0,0,,10,,,69,127
68697,note_off,106,0,0,,7,,,79,127
68697,note_off,0,0,0,,4,,,64,127
68699,note_on,2,0,0,,2,,,62,127
68699,note_on,0,0,0,,5,,,77,127
68841,note_off,142,0,0,,5,,,77,127
68841,note_off,0,0,0,,2,,,62,127
68843,note_on,2,0,0,,1,,,61,127
68843,note_on,0,0,0,,4,,,76,127
68985,note_off,142,0,0,,4,,,76,127
68985,note_off,0,0,0,,1,,,61,127
68987,note_on,2,0,0,,2,,,62,127
68987,note_on,0,0,0,,5,,,77,127
69131,note_on,144,0,0,,2,,,74,127
69152,note_off,21,0,0,,5,,,77,127
69274,note_off,122,0,0,,2,,,74,127
69274,note_off,0,0,0,,2,,,62,127
69276,note_on,2,0,0,,7,,,67,127
69276,note_on,0,0,0,,7,,,55,127
69276,note_on,0,0,0,,4,,,76,127
69420,note_on,144,0,0,,12,,,71,127
69492,note_off,72,0,0,,4,,,76,127
69562,note_off,70,0,0,,12,,,71,127
69562,note_off,0,0,0,,7,,,55,127
69562,note_off,0,0,0,,7,,,67,127
69564,note_on,2,0,0,,5,,,65,127
69564,note_on,0,0,0,,10,,,57,127
69564,note_on,0,0,0,,2,,,74,127
69634,note_off,70,0,0,,2,,,74,127
69636,note_on,2,0,0,,1,,,73,127
69706,note_off,70,0,0,,1,,,73,127
69708,note_on,2,0,0,,2,,,74,127
69778,note_off,70,0,0,,2,,,74,127
69780,note_on,2,0,0,,1,,,73,127
69850,note_off,70,0,0,,1,,,73,127
69850,note_off,0,0,0,,5,,,65,127
69852,note_on,2,0,0,,4,,,64,127
69852,note_on,0,0,0,,2,,,74,127
69922,note_off,70,0,0,,2,,,74,127
69924,note_on,2,0,0,,1,,,73,127
69994,note_off,70,0,0,,1,,,73,127
69996,note_on,2,0,0,,12,,,71,127
70066,note_off,70,0,0,,12,,,71,127
70068,note_on,2,0,0,,1,,,73,127
70138,note_off,70,0,0,,1,,,73,127
70138,note_off,0,0,0,,4,,,64,127
70138,note_off,0,0,0,,10,,,57,127
70140,note_on,2,0,0,,5,,,65,127
70140,note_on,0,0,0,,2,,,62,127
70140,note_on,0,0,0,,2,,,74,127
70284,note_on,144,0,0,,5,,,77,127
70320,note_off,36,0,0,,2,,,74,127
70426,note_off,106,0,0,,2,,,62,127
70426,note_off,0,0,0,,5,,,65,127
70428,note_on,2,0,0,,4,,,64,127
70428,note_on,0,0,0,,0,,,60,127
70428,note_on,0,0,0,,10,,,69,127
70464,note_off,36,0,0,,5,,,77,127
70572,note_on,108,0,0,,4,,,76,127
70608,note_off,36,0,0,,10,,,69,127
70714,note_off,106,0,0,,0,,,60,127
70714,note_off,0,0,0,,4,,,64,127
70716,note_on,2,0,0,,2,,,62,127
70716,note_on,0,0,0,,11,,,58,127
70716,note_on,0,0,0,,7,,,67,127
70752,note_off,36,0,0,,4,,,76,127
70860,note_on,108,0,0,,2,,,74,127
70896,note_off,36,0,0,,7,,,67,127
71002,note_off,106,0,0,,11,,,58,127
71002,note_off,0,0,0,,2,,,62,127
71004,note_on,2,0,0,,0,,,60,127
71004,note_on,0,0,0,,10,,,57,127
71004,note_on,0,0,0,,5,,,65,127
71040,note_off,36,0,0,,2,,,74,127
71148,note_on,108,0,0,,0,,,72,127
71184,note_off,36,0,0,,5,,,65,127
71290,note_off,106,0,0,,10,,,57,127
71290,note_off,0,0,0,,0,,,60,127
71292,note_on,2,0,0,,11,,,58,127
71292,note_on,0,0,0,,7,,,55,127
71292,note_on,0,0,0,,4,,,64,127
71328,note_off,36,0,0,,0,,,72,127
71436,note_on,108,0,0,,11,,,70,127
71472,note_off,36,0,0,,4,,,64,127
71578,note_off,106,0,0,,7,,,55,127
71578,note_off,0,0,0,,11,,,58,127
71580,note_on,2,0,0,,10,,,57,127
71580,note_on,0,0,0,,5,,,53,127
71580,note_on,0,0,0,,2,,,62,127
71616,note_off,36,0,0,,11,,,70,127
71724,note_on,108,0,0,,10,,,69,127
71760,note_off,36,0,0,,2,,,62,127
71866,note_off,106,0,0,,5,,,53,127
71866,note_off,0,0,0,,10,,,57,127
71868,note_on,2,0,0,,7,,,55,127
71868,note_on,0,0,0,,4,,,52,127
71868,note_on,0,0,0,,1,,,61,127
71904,note_off,36,0,0,,10,,,69,127
72012,note_on,108,0,0,,7,,,67,127
72048,note_off,36,0,0,,1,,,61,127
72154,note_off,106,0,0,,7,,,67,127
72154,note_off,0,0,0,,4,,,52,127
72154,note_off,0,0,0,,7,,,55,127
72156,note_on,2,0,0,,2,,,50,127
72156,note_on,0,0,0,,5,,,65,127
72298,note_off,142,0,0,,5,,,65,127
72298,note_off,0,0,0,,2,,,50,127
72300,note_on,2,0,0,,1,,,49,127
72300,note_on,0,0,0,,4,,,64,127
72442,note_off,142,0,0,,4,,,64,127
72442,note_off,0,0,0,,1,,,49,127
72444,note_on,2,0,0,,2,,,50,127
72444,note_on,0,0,0,,5,,,65,127
72588,note_on,144,0,0,,2,,,62,127
72624,note_off,36,0,0,,5,,,65,127
72730,note_off,106,0,0,,2,,,62,127
72730,note_off,0,0,0,,2,,,50,127
72732,note_on,2,0,0,,7,,,55,127
72732,note_on,0,0,0,,7,,,43,127
72732,note_on,0,0,0,,4,,,64,127
72876,note_on,144,0,0,,12,,,59,127
72912,note_off,36,0,0,,4,,,64,127
73018,note_off,106,0,0,,12,,,59,127
73018,note_off,0,0,0,,7,,,43,127
73018,note_off,0,0,0,,7,,,55,127
73020,note_on,2,0,0,,10,,,45,127
73020,note_on,0,0,0,,5,,,53,127
73020,note_on,0,0,0,,2,,,62,127
73090,note_off,70,0,0,,2,,,62,127
73092,note_on,2,0,0,,1,,,61,127
73162,note_off,70,0,0,,1,,,61,127
73164,note_on,2,0,0,,2,,,62,127
73234,note_off,70,0,0,,2,,,62,127
73236,note_on,2,0,0,,1,,,61,127
73306,note_off,70,0,0,,1,,,61,127
73306,note_off,0,0,0,,5,,,53,127
73308,note_on,2,0,0,,4,,,52,127
73308,note_on,0,0,0,,2,,,62,127
73378,note_off,70,0,0,,2,,,62,127
73380,note_on,2,0,0,,1,,,61,127
73450,note_off,70,0,0,,1,,,61,127
73452,note_on,2,0,0,,12,,,59,127
73522,note_off,70,0,0,,12,,,59,127
73524,note_on,2,0,0,,1,,,61,127
73594,note_off,70,0,0,,1,,,61,127
73594,note_off,0,0,0,,4,,,52,127
73594,note_off,0,0,0,,10,,,45,127
73596,note_on,2,0,0,,2,,,50,127
73596,note_on,0,0,0,,2,,,38,127
73596,note_on,0,0,0,,2,,,62,127
73740,note_on,144,0,0,,5,,,65,127
73812,note_off,72,0,0,,2,,,62,127
73882,note_off,70,0,0,,5,,,65,127
73884,note_on,2,0,0,,2,,,62,127
74026,note_off,142,0,0,,2,,,62,127
74028,note_on,2,0,0,,10,,,57,127
74170,note_off,142,0,0,,10,,,57,127
74172,note_on,2,0,0,,5,,,53,127
74314,note_off,142,0,0,,5,,,53,127
74316,note_on,2,0,0,,5,,,53,127
74458,note_off,142,0,0,,5,,,53,127
74458,note_off,0,0,0,,2,,,38,127
74458,note_off,0,0,0,,2,,,50,127
74460,note_on,2,0,0,,2,,,50,127
74460,note_on,0,0,0,,2,,,38,127
74460,note_on,0,0,0,,5,,,53,127
74604,note_on,144,0,0,,5,,,65,127
74676,note_off,72,0,0,,5,,,53,127
74746,note_off,70,0,0,,5,,,65,127
74748,note_on,2,0,0,,2,,,62,127
74890,note_off,142,0,0,,2,,,62,127
74892,note_on,2,0,0,,10,,,57,127
75034,note_off,142,0,0,,10,,,57,127
75036,note_on,2,0,0,,5,,,53,127
75178,note_off,142,0,0,,5,,,53,127
75180,note_on,2,0,0,,5,,,53,127
75322,note_off,142,0,0,,5,,,53,127
75322,note_off,0,0,0,,2,,,38,127
75322,note_off,0,0,0,,2,,,50,127
75324,note_on,2,0,0,,2,,,50,127
75324,note_on,0,0,0,,2,,,38,127
75324,note_on,0,0,0,,5,,,53,127
75468,note_on,144,0,0,,5,,,65,127
75540,note_off,72,0,0,,5,,,53,127
75610,note_off,70,0,0,,5,,,65,127
75612,note_on,2,0,0,,2,,,62,127
75754,note_off,142,0,0,,2,,,62,127
75756,note_on,2,0,0,,10,,,57,127
75898,note_off,142,0,0,,10,,,57,127
75900,note_on,2,0,0,,5,,,53,127
76042,note_off,142,0,0,,5,,,53,127
76044,note_on,2,0,0,,5,,,53,127
76186,note_off,142,0,0,,5,,,53,127
76186,note_off,0,0,0,,2,,,38,127
76186,note_off,0,0,0,,2,,,50,127
76188,note_on,2,0,0,,2,,,38,127
76188,note_on,0,0,0,,2,,,50,127
76188,note_on,0,0,0,,5,,,53,127
76332,note_on,144,0,0,,2,,,62,127
76404,note_off,72,0,0,,5,,,53,127
76474,note_off,70,0,0,,2,,,62,127
76476,note_on,2,0,0,,10,,,57,127
76618,note_off,142,0,0,,10,,,57,127
76620,note_on,2,0,0,,5,,,53,127
76758,note_off,138,0,0,,2,,,50,127
76762,note_off,4,0,0,,5,,,53,127
76764,note_on,2,0,0,,2,,,50,127
76906,note_off,142,0,0,,2,,,50,127
76908,note_on,2,0,0,,2,,,50,127
77050,note_off,142,0,0,,2,,,50,127
77050,note_off,0,0,0,,2,,,38,127
77052,note_on,2,0,0,,2,,,38,127
77052,note_on,0,0,0,,4,,,52,127
77098,note_off,46,0,0,,4,,,52,127
77100,note_on,2,0,0,,2,,,50,127
77146,note_off,46,0,0,,2,,,50,127
77148,note_on,2,0,0,,4,,,52,127
77194,note_off,46,0,0,,4,,,52,127
77196,note_on,2,0,0,,2,,,50,127
78770,note_off,1574,0,0,,2,,,50,127
78780,note_off,10,0,0,,2,,,38,127
84480,end_of_track,5700,1,0,,,,,,
