tick,type,time,meta,track,program,channel,pitch,tempo,note,velocity
0,copyright,0,1,0,,,,,,
0,program_change,0,0,0,6,0,,,,
0,pitchwheel,0,0,0,,0,0,,,
0,program_change,0,0,0,6,1,,,,
0,pitchwheel,0,0,0,,1,-590,,,
0,program_change,0,0,0,6,2,,,,
0,pitchwheel,0,0,0,,2,-272,,,
0,program_change,0,0,0,6,3,,,,
0,pitchwheel,0,0,0,,3,-353,,,
0,program_change,0,0,0,6,4,,,,
0,pitchwheel,0,0,0,,4,-560,,,
0,program_change,0,0,0,6,5,,,,
0,pitchwheel,0,0,0,,5,-80,,,
0,program_change,0,0,0,6,6,,,,
0,pitchwheel,0,0,0,,6,-625,,,
0,program_change,0,0,0,6,7,,,,
0,pitchwheel,0,0,0,,7,-130,,,
0,program_change,0,0,0,6,8,,,,
0,pitchwheel,0,0,0,,8,-512,,,
0,program_change,0,0,0,6,10,,,,
0,pitchwheel,0,0,0,,10,-464,,,
0,program_change,0,0,0,6,11,,,,
0,pitchwheel,0,0,0,,11,-208,,,
0,program_change,0,0,0,6,12,,,,
0,pitchwheel,0,0,0,,12,-553,,,
0,set_tempo,0,1,0,,,,500000,,
121,note_on,121,0,0,,10,,,69,127
364,note_on,243,0,0,,10,,,81,127
601,note_off,237,0,0,,10,,,69,127
605,note_off,4,0,0,,10,,,81,127
606,note_on,1,0,0,,4,,,76,127
847,note_off,241,0,0,,4,,,76,127
848,note_on,1,0,0,,10,,,57,127
848,note_on,0,0,0,,2,,,74,127
909,note_on,61,0,0,,0,,,72,127
928,note_off,19,0,0,,2,,,74,127
970,note_on,42,0,0,,2,,,74,127
989,note_off,19,0,0,,0,,,72,127
1031,note_on,42,0,0,,0,,,72,127
1050,note_off,19,0,0,,2,,,74,127
1092,note_on,42,0,0,,10,,,69,127
1092,note_on,0,0,0,,2,,,74,127
1111,note_off,19,0,0,,0,,,72,127
1153,note_on,42,0,0,,0,,,72,127
1172,note_off,19,0,0,,2,,,74,127
1214,note_on,42,0,0,,2,,,74,127
1233,note_off,19,0,0,,0,,,72,127
1275,note_on,42,0,0,,0,,,72,127
1294,note_off,19,0,0,,2,,,74,127
1331,note_off,37,0,0,,10,,,57,127
1335,note_off,4,0,0,,0,,,72,127
1335,note_off,0,0,0,,10,,,69,127
1336,note_on,1,0,0,,12,,,71,127
1336,note_on,0,0,0,,4,,,64,127
1500,note_off,164,0,0,,12,,,71,127
1577,note_off,77,0,0,,4,,,64,127
1578,note_on,1,0,0,,10,,,69,127
1578,note_on,0,0,0,,2,,,62,127
1639,note_on,61,0,0,,0,,,60,127
1658,note_off,19,0,0,,2,,,62,127
1700,note_on,42,0,0,,2,,,62,127
1719,note_off,19,0,0,,0,,,60,127
1761,note_on,42,0,0,,0,,,60,127
1780,note_off,19,0,0,,2,,,62,127
1820,note_off,40,0,0,,10,,,69,127
1821,note_on,1,0,0,,4,,,64,127
1821,note_on,0,0,0,,2,,,62,127
1840,note_off,19,0,0,,0,,,60,127
1882,note_on,42,0,0,,0,,,60,127
1901,note_off,19,0,0,,2,,,62,127
1943,note_on,42,0,0,,2,,,62,127
1962,note_off,19,0,0,,0,,,60,127
2004,note_on,42,0,0,,0,,,60,127
2023,note_off,19,0,0,,2,,,62,127
2063,note_off,40,0,0,,0,,,60,127
2063,note_off,0,0,0,,4,,,64,127
2064,note_on,1,0,0,,8,,,68,127
2064,note_on,0,0,0,,2,,,74,127
2064,note_on,0,0,0,,12,,,59,127
2305,note_off,241,0,0,,12,,,59,127
2305,note_off,0,0,0,,2,,,74,127
2305,note_off,0,0,0,,8,,,68,127
2306,note_on,1,0,0,,10,,,57,127
2306,note_on,0,0,0,,10,,,69,127
2306,note_on,0,0,0,,2,,,74,127
2367,note_on,61,0,0,,0,,,72,127
2386,note_off,19,0,0,,2,,,74,127
2428,note_on,42,0,0,,2,,,74,127
2447,note_off,19,0,0,,0,,,72,127
2489,note_on,42,0,0,,0,,,72,127
2508,note_off,19,0,0,,2,,,74,127
2550,note_on,42,0,0,,4,,,52,127
2550,note_on,0,0,0,,2,,,74,127
2569,note_off,19,0,0,,0,,,72,127
2609,note_off,40,0,0,,10,,,57,127
2610,note_on,1,0,0,,0,,,72,127
2629,note_off,19,0,0,,2,,,74,127
2671,note_on,42,0,0,,2,,,74,127
2690,note_off,19,0,0,,0,,,72,127
2732,note_on,42,0,0,,0,,,72,127
2751,note_off,19,0,0,,2,,,74,127
2791,note_off,40,0,0,,0,,,72,127
2791,note_off,0,0,0,,4,,,52,127
2791,note_off,0,0,0,,10,,,69,127
2792,note_on,1,0,0,,5,,,65,127
2792,note_on,0,0,0,,12,,,71,127
2792,note_on,0,0,0,,2,,,62,127
2956,note_off,164,0,0,,12,,,71,127
3033,note_off,77,0,0,,2,,,62,127
3033,note_off,0,0,0,,5,,,65,127
3034,note_on,1,0,0,,2,,,62,127
3034,note_on,0,0,0,,10,,,69,127
3095,note_on,61,0,0,,0,,,60,127
3114,note_off,19,0,0,,2,,,62,127
3156,note_on,42,0,0,,2,,,62,127
3175,note_off,19,0,0,,0,,,60,127
3217,note_on,42,0,0,,0,,,60,127
3236,note_off,19,0,0,,2,,,62,127
3276,note_off,40,0,0,,10,,,69,127
3277,note_on,1,0,0,,4,,,64,127
3277,note_on,0,0,0,,2,,,62,127
3296,note_off,19,0,0,,0,,,60,127
3338,note_on,42,0,0,,0,,,60,127
3357,note_off,19,0,0,,2,,,62,127
3399,note_on,42,0,0,,2,,,62,127
3418,note_off,19,0,0,,0,,,60,127
3460,note_on,42,0,0,,0,,,60,127
3479,note_off,19,0,0,,2,,,62,127
3519,note_off,40,0,0,,0,,,60,127
3519,note_off,0,0,0,,4,,,64,127
3520,note_on,1,0,0,,8,,,68,127
3520,note_on,0,0,0,,2,,,74,127
3520,note_on,0,0,0,,12,,,59,127
3761,note_off,241,0,0,,12,,,59,127
3761,note_off,0,0,0,,2,,,74,127
3761,note_off,0,0,0,,8,,,68,127
3762,note_on,1,0,0,,10,,,57,127
3762,note_on,0,0,0,,10,,,69,127
3762,note_on,0,0,0,,2,,,74,127
3823,note_on,61,0,0,,0,,,72,127
3842,note_off,19,0,0,,2,,,74,127
3884,note_on,42,0,0,,2,,,74,127
3903,note_off,19,0,0,,0,,,72,127
3945,note_on,42,0,0,,0,,,72,127
3964,note_off,19,0,0,,2,,,74,127
4006,note_on,42,0,0,,4,,,52,127
4006,note_on,0,0,0,,2,,,74,127
4025,note_off,19,0,0,,0,,,72,127
4065,note_off,40,0,0,,10,,,57,127
4066,note_on,1,0,0,,0,,,72,127
4085,note_off,19,0,0,,2,,,74,127
4127,note_on,42,0,0,,2,,,74,127
4146,note_off,19,0,0,,0,,,72,127
4186,note_off,40,0,0,,2,,,74,127
4187,note_on,1,0,0,,0,,,72,127
4246,note_off,59,0,0,,4,,,52,127
4246,note_off,0,0,0,,10,,,69,127
4247,note_on,1,0,0,,12,,,71,127
4247,note_on,0,0,0,,5,,,65,127
4247,note_on,0,0,0,,2,,,62,127
4266,note_off,19,0,0,,0,,,72,127
4449,note_off,183,0,0,,12,,,71,127
4488,note_off,39,0,0,,2,,,62,127
4488,note_off,0,0,0,,5,,,65,127
4489,note_on,1,0,0,,0,,,60,127
4489,note_on,0,0,0,,10,,,69,127
4489,note_on,0,0,0,,4,,,64,127
4730,note_off,241,0,0,,10,,,69,127
4730,note_off,0,0,0,,0,,,60,127
4731,note_on,1,0,0,,2,,,50,127
4731,note_on,0,0,0,,0,,,72,127
4792,note_on,61,0,0,,12,,,71,127
4811,note_off,19,0,0,,0,,,72,127
4853,note_on,42,0,0,,0,,,72,127
4872,note_off,19,0,0,,12,,,71,127
4914,note_on,42,0,0,,12,,,71,127
4933,note_off,19,0,0,,0,,,72,127
4973,note_off,40,0,0,,2,,,50,127
4973,note_off,0,0,0,,4,,,64,127
4974,note_on,1,0,0,,0,,,72,127
4974,note_on,0,0,0,,4,,,52,127
4974,note_on,0,0,0,,12,,,59,127
4993,note_off,19,0,0,,12,,,71,127
5035,note_on,42,0,0,,12,,,71,127
5054,note_off,19,0,0,,0,,,72,127
5096,note_on,42,0,0,,10,,,69,127
5115,note_off,19,0,0,,12,,,71,127
5157,note_on,42,0,0,,12,,,71,127
5176,note_off,19,0,0,,10,,,69,127
5215,note_off,39,0,0,,12,,,59,127
5216,note_off,1,0,0,,4,,,52,127
5217,note_on,1,0,0,,0,,,72,127
5217,note_on,0,0,0,,10,,,57,127
5217,note_on,0,0,0,,10,,,45,127
5236,note_off,19,0,0,,12,,,71,127
5458,note_off,222,0,0,,0,,,72,127
5459,note_on,1,0,0,,12,,,71,127
5579,note_off,120,0,0,,12,,,71,127
5580,note_on,1,0,0,,0,,,72,127
5700,note_off,120,0,0,,0,,,72,127
5700,note_off,0,0,0,,10,,,45,127
5700,note_off,0,0,0,,10,,,57,127
5701,note_on,1,0,0,,10,,,69,127
5903,note_off,202,0,0,,10,,,69,127
5943,note_on,40,0,0,,10,,,81,127
5943,note_on,0,0,0,,0,,,72,127
6063,note_off,120,0,0,,0,,,72,127
6064,note_on,1,0,0,,4,,,76,127
6184,note_off,120,0,0,,4,,,76,127
6184,note_off,0,0,0,,10,,,81,127
6185,note_on,1,0,0,,0,,,72,127
6185,note_on,0,0,0,,0,,,84,127
6305,note_off,120,0,0,,0,,,72,127
6306,note_on,1,0,0,,10,,,69,127
6426,note_off,120,0,0,,10,,,69,127
6426,note_off,0,0,0,,0,,,84,127
6427,note_on,1,0,0,,0,,,72,127
6427,note_on,0,0,0,,10,,,81,127
6547,note_off,120,0,0,,0,,,72,127
6548,note_on,1,0,0,,4,,,76,127
6668,note_off,120,0,0,,4,,,76,127
6668,note_off,0,0,0,,10,,,81,127
6669,note_on,1,0,0,,3,,,75,127
6669,note_on,0,0,0,,10,,,81,127
6910,note_off,241,0,0,,10,,,81,127
6910,note_off,0,0,0,,3,,,75,127
6911,note_on,1,0,0,,8,,,80,127
6911,note_on,0,0,0,,4,,,76,127
7031,note_off,120,0,0,,4,,,76,127
7031,note_off,0,0,0,,8,,,80,127
7032,note_on,1,0,0,,3,,,75,127
7032,note_on,0,0,0,,6,,,78,127
7152,note_off,120,0,0,,6,,,78,127
7152,note_off,0,0,0,,3,,,75,127
7153,note_on,1,0,0,,4,,,76,127
7153,note_on,0,0,0,,8,,,80,127
7368,note_off,215,0,0,,8,,,80,127
7395,note_off,27,0,0,,4,,,76,127
7396,note_on,1,0,0,,12,,,71,127
7396,note_on,0,0,0,,7,,,79,127
7516,note_off,120,0,0,,12,,,71,127
7517,note_on,1,0,0,,2,,,74,127
7637,note_off,120,0,0,,2,,,74,127
7637,note_off,0,0,0,,7,,,79,127
7638,note_on,1,0,0,,12,,,83,127
7638,note_on,0,0,0,,12,,,71,127
7758,note_off,120,0,0,,12,,,71,127
7759,note_on,1,0,0,,7,,,67,127
7879,note_off,120,0,0,,7,,,67,127
7879,note_off,0,0,0,,12,,,83,127
7880,note_on,1,0,0,,12,,,71,127
7880,note_on,0,0,0,,7,,,79,127
8000,note_off,120,0,0,,12,,,71,127
8001,note_on,1,0,0,,2,,,74,127
8121,note_off,120,0,0,,2,,,74,127
8121,note_off,0,0,0,,7,,,79,127
8122,note_on,1,0,0,,1,,,73,127
8122,note_on,0,0,0,,7,,,79,127
8363,note_off,241,0,0,,7,,,79,127
8363,note_off,0,0,0,,1,,,73,127
8364,note_on,1,0,0,,5,,,77,127
8364,note_on,0,0,0,,2,,,74,127
8484,note_off,120,0,0,,2,,,74,127
8484,note_off,0,0,0,,5,,,77,127
8485,note_on,1,0,0,,4,,,76,127
8485,note_on,0,0,0,,1,,,73,127
8605,note_off,120,0,0,,1,,,73,127
8605,note_off,0,0,0,,4,,,76,127
8606,note_on,1,0,0,,5,,,77,127
8606,note_on,0,0,0,,2,,,74,127
8833,note_off,227,0,0,,5,,,77,127
8847,note_off,14,0,0,,2,,,74,127
8848,note_on,1,0,0,,5,,,77,127
8848,note_on,0,0,0,,10,,,69,127
8968,note_off,120,0,0,,10,,,69,127
8969,note_on,1,0,0,,0,,,72,127
9089,note_off,120,0,0,,0,,,72,127
9089,note_off,0,0,0,,5,,,77,127
9090,note_on,1,0,0,,10,,,69,127
9090,note_on,0,0,0,,10,,,81,127
9210,note_off,120,0,0,,10,,,69,127
9211,note_on,1,0,0,,5,,,65,127
9331,note_off,120,0,0,,5,,,65,127
9331,note_off,0,0,0,,10,,,81,127
9332,note_on,1,0,0,,10,,,69,127
9332,note_on,0,0,0,,5,,,77,127
9452,note_off,120,0,0,,10,,,69,127
9453,note_on,1,0,0,,0,,,72,127
9573,note_off,120,0,0,,0,,,72,127
9573,note_off,0,0,0,,5,,,77,127
9574,note_on,1,0,0,,12,,,71,127
9574,note_on,0,0,0,,5,,,77,127
9815,note_off,241,0,0,,5,,,77,127
9815,note_off,0,0,0,,12,,,71,127
9816,note_on,1,0,0,,0,,,72,127
9816,note_on,0,0,0,,4,,,76,127
9936,note_off,120,0,0,,4,,,76,127
9936,note_off,0,0,0,,0,,,72,127
9937,note_on,1,0,0,,12,,,71,127
9937,note_on,0,0,0,,2,,,74,127
10057,note_off,120,0,0,,2,,,74,127
10057,note_off,0,0,0,,12,,,71,127
10058,note_on,1,0,0,,0,,,72,127
10058,note_on,0,0,0,,4,,,76,127
10290,note_off,232,0,0,,4,,,76,127
10290,note_off,0,0,0,,0,,,72,127
10300,note_on,10,0,0,,0,,,72,127
10300,note_on,0,0,0,,3,,,75,127
10420,note_off,120,0,0,,0,,,72,127
10421,note_on,1,0,0,,7,,,67,127
10541,note_off,120,0,0,,7,,,67,127
10541,note_off,0,0,0,,3,,,75,127
10542,note_on,1,0,0,,6,,,66,127
10542,note_on,0,0,0,,2,,,74,127
10662,note_off,120,0,0,,6,,,66,127
10663,note_on,1,0,0,,10,,,69,127
10783,note_off,120,0,0,,10,,,69,127
10783,note_off,0,0,0,,2,,,74,127
10784,note_on,1,0,0,,7,,,67,127
10784,note_on,0,0,0,,0,,,72,127
10904,note_off,120,0,0,,7,,,67,127
10905,note_on,1,0,0,,6,,,66,127
11005,note_off,100,0,0,,0,,,72,127
11025,note_off,20,0,0,,6,,,66,127
11026,note_on,1,0,0,,7,,,67,127
11026,note_on,0,0,0,,12,,,71,127
11146,note_off,120,0,0,,12,,,71,127
11147,note_on,1,0,0,,7,,,79,127
11267,note_off,120,0,0,,7,,,79,127
11267,note_off,0,0,0,,7,,,67,127
11268,note_on,1,0,0,,6,,,78,127
11268,note_on,0,0,0,,12,,,71,127
11388,note_off,120,0,0,,6,,,78,127
11389,note_on,1,0,0,,7,,,79,127
11509,note_off,120,0,0,,7,,,79,127
11509,note_off,0,0,0,,12,,,71,127
11510,note_on,1,0,0,,6,,,78,127
11510,note_on,0,0,0,,7,,,67,127
11630,note_off,120,0,0,,6,,,78,127
11631,note_on,1,0,0,,7,,,79,127
11745,note_off,114,0,0,,7,,,79,127
11751,note_off,6,0,0,,7,,,67,127
11752,note_on,1,0,0,,3,,,75,127
11752,note_on,0,0,0,,0,,,72,127
11872,note_off,120,0,0,,0,,,72,127
11873,note_on,1,0,0,,7,,,67,127
11993,note_off,120,0,0,,7,,,67,127
11993,note_off,0,0,0,,3,,,75,127
11994,note_on,1,0,0,,6,,,66,127
11994,note_on,0,0,0,,2,,,74,127
12114,note_off,120,0,0,,6,,,66,127
12115,note_on,1,0,0,,10,,,69,127
12235,note_off,120,0,0,,10,,,69,127
12235,note_off,0,0,0,,2,,,74,127
12236,note_on,1,0,0,,7,,,67,127
12236,note_on,0,0,0,,0,,,72,127
12356,note_off,120,0,0,,7,,,67,127
12357,note_on,1,0,0,,6,,,66,127
12457,note_off,100,0,0,,0,,,72,127
12477,note_off,20,0,0,,6,,,66,127
12478,note_on,1,0,0,,12,,,71,127
12478,note_on,0,0,0,,7,,,67,127
12598,note_off,120,0,0,,12,,,71,127
12599,note_on,1,0,0,,7,,,79,127
12719,note_off,120,0,0,,7,,,79,127
12719,note_off,0,0,0,,7,,,67,127
12720,note_on,1,0,0,,6,,,78,127
12720,note_on,0,0,0,,12,,,71,127
12840,note_off,120,0,0,,6,,,78,127
12841,note_on,1,0,0,,7,,,79,127
12961,note_off,120,0,0,,7,,,79,127
12961,note_off,0,0,0,,12,,,71,127
12962,note_on,1,0,0,,6,,,78,127
12962,note_on,0,0,0,,7,,,67,127
13082,note_off,120,0,0,,6,,,78,127
13083,note_on,1,0,0,,7,,,79,127
13176,note_off,93,0,0,,7,,,67,127
13190,note_off,14,0,0,,7,,,79,127
13204,note_on,14,0,0,,3,,,75,127
13204,note_on,0,0,0,,0,,,72,127
13324,note_off,120,0,0,,0,,,72,127
13325,note_on,1,0,0,,7,,,67,127
13445,note_off,120,0,0,,7,,,67,127
13445,note_off,0,0,0,,3,,,75,127
13446,note_on,1,0,0,,6,,,66,127
13446,note_on,0,0,0,,2,,,74,127
13566,note_off,120,0,0,,6,,,66,127
13567,note_on,1,0,0,,10,,,69,127
13687,note_off,120,0,0,,10,,,69,127
13687,note_off,0,0,0,,2,,,74,127
13688,note_on,1,0,0,,7,,,67,127
13688,note_on,0,0,0,,0,,,72,127
13808,note_off,120,0,0,,7,,,67,127
13809,note_on,1,0,0,,6,,,66,127
13929,note_off,120,0,0,,6,,,66,127
13929,note_off,0,0,0,,0,,,72,127
13930,note_on,1,0,0,,7,,,67,127
13930,note_on,0,0,0,,12,,,71,127
14050,note_off,120,0,0,,7,,,67,127
14051,note_on,1,0,0,,8,,,68,127
14171,note_off,120,0,0,,8,,,68,127
14171,note_off,0,0,0,,12,,,71,127
14172,note_on,1,0,0,,7,,,67,127
14172,note_on,0,0,0,,0,,,72,127
14292,note_off,120,0,0,,7,,,67,127
14293,note_on,1,0,0,,5,,,65,127
14413,note_off,120,0,0,,5,,,65,127
14413,note_off,0,0,0,,0,,,72,127
14414,note_on,1,0,0,,3,,,63,127
14414,note_on,0,0,0,,2,,,74,127
14534,note_off,120,0,0,,3,,,63,127
14535,note_on,1,0,0,,2,,,62,127
14628,note_off,93,0,0,,2,,,74,127
14655,note_off,27,0,0,,2,,,62,127
14656,note_on,1,0,0,,0,,,60,127
14656,note_on,0,0,0,,3,,,75,127
14776,note_off,120,0,0,,3,,,75,127
14777,note_on,1,0,0,,7,,,79,127
14897,note_off,120,0,0,,7,,,79,127
14897,note_off,0,0,0,,0,,,60,127
14898,note_on,1,0,0,,3,,,63,127
14898,note_on,0,0,0,,5,,,77,127
15018,note_off,120,0,0,,5,,,77,127
15019,note_on,1,0,0,,3,,,75,127
15139,note_off,120,0,0,,3,,,75,127
15139,note_off,0,0,0,,3,,,63,127
15140,note_on,1,0,0,,5,,,65,127
15140,note_on,0,0,0,,2,,,74,127
15260,note_off,120,0,0,,2,,,74,127
15261,note_on,1,0,0,,0,,,72,127
15381,note_off,120,0,0,,0,,,72,127
15381,note_off,0,0,0,,5,,,65,127
15382,note_on,1,0,0,,7,,,67,127
15382,note_on,0,0,0,,12,,,71,127
15502,note_off,120,0,0,,7,,,67,127
15503,note_on,1,0,0,,8,,,68,127
15623,note_off,120,0,0,,8,,,68,127
15623,note_off,0,0,0,,12,,,71,127
15624,note_on,1,0,0,,7,,,67,127
15624,note_on,0,0,0,,0,,,72,127
15744,note_off,120,0,0,,7,,,67,127
15745,note_on,1,0,0,,5,,,65,127
15865,note_off,120,0,0,,5,,,65,127
15865,note_off,0,0,0,,0,,,72,127
15866,note_on,1,0,0,,3,,,63,127
15866,note_on,0,0,0,,2,,,74,127
15986,note_off,120,0,0,,3,,,63,127
15987,note_on,1,0,0,,2,,,62,127
16080,note_off,93,0,0,,2,,,74,127
16107,note_off,27,0,0,,2,,,62,127
16108,note_on,1,0,0,,0,,,60,127
16108,note_on,0,0,0,,3,,,75,127
16228,note_off,120,0,0,,3,,,75,127
16229,note_on,1,0,0,,7,,,79,127
16349,note_off,120,0,0,,7,,,79,127
16349,note_off,0,0,0,,0,,,60,127
16350,note_on,1,0,0,,3,,,63,127
16350,note_on,0,0,0,,5,,,77,127
16470,note_off,120,0,0,,5,,,77,127
16471,note_on,1,0,0,,3,,,75,127
16591,note_off,120,0,0,,3,,,75,127
16591,note_off,0,0,0,,3,,,63,127
16592,note_on,1,0,0,,2,,,74,127
16592,note_on,0,0,0,,5,,,65,127
16712,note_off,120,0,0,,2,,,74,127
16713,note_on,1,0,0,,0,,,72,127
16833,note_off,120,0,0,,0,,,72,127
16833,note_off,0,0,0,,5,,,65,127
16834,note_on,1,0,0,,7,,,67,127
16834,note_on,0,0,0,,12,,,71,127
16954,note_off,120,0,0,,7,,,67,127
16955,note_on,1,0,0,,8,,,68,127
17075,note_off,120,0,0,,8,,,68,127
17076,note_on,1,0,0,,7,,,67,127
17196,note_off,120,0,0,,7,,,67,127
17196,note_off,0,0,0,,12,,,71,127
17197,note_on,1,0,0,,5,,,65,127
17197,note_on,0,0,0,,2,,,74,127
17317,note_off,120,0,0,,2,,,74,127
17317,note_off,0,0,0,,5,,,65,127
17318,note_on,1,0,0,,3,,,63,127
17318,note_on,0,0,0,,0,,,72,127
17438,note_off,120,0,0,,0,,,72,127
17438,note_off,0,0,0,,3,,,63,127
17439,note_on,1,0,0,,2,,,62,127
17439,note_on,0,0,0,,12,,,71,127
17559,note_off,120,0,0,,12,,,71,127
17559,note_off,0,0,0,,2,,,62,127
17560,note_on,1,0,0,,5,,,65,127
17560,note_on,0,0,0,,2,,,74,127
17621,note_on,61,0,0,,0,,,72,127
17621,note_on,0,0,0,,3,,,63,127
17640,note_off,19,0,0,,2,,,74,127
17640,note_off,0,0,0,,5,,,65,127
17682,note_on,42,0,0,,5,,,65,127
17682,note_on,0,0,0,,2,,,74,127
17701,note_off,19,0,0,,3,,,63,127
17701,note_off,0,0,0,,0,,,72,127
17743,note_on,42,0,0,,0,,,72,127
17743,note_on,0,0,0,,3,,,63,127
17762,note_off,19,0,0,,2,,,74,127
17762,note_off,0,0,0,,5,,,65,127
17804,note_on,42,0,0,,12,,,71,127
17804,note_on,0,0,0,,2,,,62,127
17823,note_off,19,0,0,,3,,,63,127
17823,note_off,0,0,0,,0,,,72,127
18045,note_off,222,0,0,,2,,,62,127
18045,note_off,0,0,0,,12,,,71,127
18046,note_on,1,0,0,,0,,,72,127
18046,note_on,0,0,0,,3,,,63,127
18287,note_off,241,0,0,,3,,,63,127
18287,note_off,0,0,0,,0,,,72,127
18288,note_on,1,0,0,,12,,,71,127
18288,note_on,0,0,0,,2,,,62,127
18529,note_off,241,0,0,,2,,,62,127
18529,note_off,0,0,0,,12,,,71,127
18530,note_on,1,0,0,,3,,,63,127
18530,note_on,0,0,0,,0,,,72,127
18650,note_off,120,0,0,,0,,,72,127
18650,note_off,0,0,0,,3,,,63,127
18651,note_on,1,0,0,,2,,,74,127
18651,note_on,0,0,0,,5,,,65,127
18771,note_off,120,0,0,,5,,,65,127
18771,note_off,0,0,0,,2,,,74,127
18772,note_on,1,0,0,,3,,,75,127
18772,note_on,0,0,0,,7,,,67,127
18892,note_off,120,0,0,,7,,,67,127
18892,note_off,0,0,0,,3,,,75,127
18893,note_on,1,0,0,,8,,,68,127
18893,note_on,0,0,0,,5,,,77,127
19013,note_off,120,0,0,,5,,,77,127
19013,note_off,0,0,0,,8,,,68,127
19014,note_on,1,0,0,,5,,,77,127
19014,note_on,0,0,0,,8,,,68,127
19075,note_on,61,0,0,,3,,,75,127
19075,note_on,0,0,0,,7,,,67,127
19094,note_off,19,0,0,,8,,,68,127
19094,note_off,0,0,0,,5,,,77,127
19136,note_on,42,0,0,,8,,,68,127
19136,note_on,0,0,0,,5,,,77,127
19155,note_off,19,0,0,,7,,,67,127
19155,note_off,0,0,0,,3,,,75,127
19197,note_on,42,0,0,,3,,,75,127
19197,note_on,0,0,0,,7,,,67,127
19216,note_off,19,0,0,,5,,,77,127
19216,note_off,0,0,0,,8,,,68,127
19258,note_on,42,0,0,,5,,,65,127
19258,note_on,0,0,0,,2,,,74,127
19277,note_off,19,0,0,,7,,,67,127
19277,note_off,0,0,0,,3,,,75,127
19499,note_off,222,0,0,,2,,,74,127
19499,note_off,0,0,0,,5,,,65,127
19500,note_on,1,0,0,,3,,,63,127
19500,note_on,0,0,0,,0,,,72,127
19741,note_off,241,0,0,,0,,,72,127
19741,note_off,0,0,0,,3,,,63,127
19742,note_on,1,0,0,,2,,,62,127
19742,note_on,0,0,0,,12,,,71,127
19983,note_off,241,0,0,,12,,,71,127
19983,note_off,0,0,0,,2,,,62,127
19984,note_on,1,0,0,,5,,,65,127
19984,note_on,0,0,0,,2,,,74,127
20064,note_off,80,0,0,,2,,,74,127
20064,note_off,0,0,0,,5,,,65,127
20065,note_on,1,0,0,,3,,,63,127
20065,note_on,0,0,0,,0,,,72,127
20145,note_off,80,0,0,,0,,,72,127
20145,note_off,0,0,0,,3,,,63,127
20146,note_on,1,0,0,,2,,,62,127
20146,note_on,0,0,0,,12,,,71,127
20226,note_off,80,0,0,,12,,,71,127
20226,note_off,0,0,0,,2,,,62,127
20227,note_on,1,0,0,,0,,,72,127
20227,note_on,0,0,0,,3,,,63,127
20468,note_off,241,0,0,,3,,,63,127
20468,note_off,0,0,0,,0,,,72,127
20469,note_on,1,0,0,,0,,,72,127
20469,note_on,0,0,0,,3,,,63,127
20530,note_on,61,0,0,,2,,,62,127
20530,note_on,0,0,0,,12,,,71,127
20549,note_off,19,0,0,,3,,,63,127
20549,note_off,0,0,0,,0,,,72,127
20591,note_on,42,0,0,,0,,,72,127
20591,note_on,0,0,0,,3,,,63,127
20610,note_off,19,0,0,,12,,,71,127
20610,note_off,0,0,0,,2,,,62,127
20652,note_on,42,0,0,,12,,,71,127
20652,note_on,0,0,0,,2,,,62,127
20671,note_off,19,0,0,,3,,,63,127
20671,note_off,0,0,0,,0,,,72,127
20713,note_on,42,0,0,,3,,,63,127
20713,note_on,0,0,0,,0,,,72,127
20732,note_off,19,0,0,,2,,,62,127
20732,note_off,0,0,0,,12,,,71,127
20833,note_off,101,0,0,,0,,,72,127
20833,note_off,0,0,0,,3,,,63,127
20834,note_on,1,0,0,,5,,,65,127
20834,note_on,0,0,0,,2,,,74,127
20954,note_off,120,0,0,,2,,,74,127
20954,note_off,0,0,0,,5,,,65,127
20955,note_on,1,0,0,,3,,,75,127
20955,note_on,0,0,0,,7,,,67,127
21196,note_off,241,0,0,,7,,,67,127
21196,note_off,0,0,0,,3,,,75,127
21197,note_on,1,0,0,,2,,,74,127
21197,note_on,0,0,0,,5,,,65,127
21438,note_off,241,0,0,,5,,,65,127
21438,note_off,0,0,0,,2,,,74,127
21439,note_on,1,0,0,,2,,,74,127
21439,note_on,0,0,0,,5,,,65,127
21500,note_on,61,0,0,,3,,,63,127
21500,note_on,0,0,0,,0,,,72,127
21519,note_off,19,0,0,,5,,,65,127
21519,note_off,0,0,0,,2,,,74,127
21561,note_on,42,0,0,,5,,,65,127
21561,note_on,0,0,0,,2,,,74,127
21580,note_off,19,0,0,,0,,,72,127
21580,note_off,0,0,0,,3,,,63,127
21622,note_on,42,0,0,,3,,,63,127
21622,note_on,0,0,0,,0,,,72,127
21641,note_off,19,0,0,,2,,,74,127
21641,note_off,0,0,0,,5,,,65,127
21683,note_on,42,0,0,,5,,,65,127
21683,note_on,0,0,0,,2,,,74,127
21702,note_off,19,0,0,,0,,,72,127
21702,note_off,0,0,0,,3,,,63,127
21744,note_on,42,0,0,,0,,,72,127
21744,note_on,0,0,0,,3,,,63,127
21763,note_off,19,0,0,,2,,,74,127
21763,note_off,0,0,0,,5,,,65,127
21805,note_on,42,0,0,,12,,,71,127
21805,note_on,0,0,0,,2,,,62,127
21824,note_off,19,0,0,,3,,,63,127
21824,note_off,0,0,0,,0,,,72,127
21866,note_on,42,0,0,,0,,,72,127
21866,note_on,0,0,0,,3,,,63,127
21885,note_off,19,0,0,,2,,,62,127
21885,note_off,0,0,0,,12,,,71,127
21927,note_on,42,0,0,,7,,,43,127
21927,note_on,0,0,0,,5,,,65,127
21946,note_off,19,0,0,,3,,,63,127
21946,note_off,0,0,0,,0,,,72,127
21988,note_on,42,0,0,,3,,,63,127
22007,note_off,19,0,0,,5,,,65,127
22049,note_on,42,0,0,,5,,,65,127
22068,note_off,19,0,0,,3,,,63,127
22110,note_on,42,0,0,,3,,,63,127
22129,note_off,19,0,0,,5,,,65,127
22171,note_on,42,0,0,,2,,,62,127
22190,note_off,19,0,0,,3,,,63,127
22373,note_off,183,0,0,,2,,,62,127
22413,note_on,40,0,0,,2,,,74,127
22413,note_on,0,0,0,,7,,,67,127
22413,note_on,0,0,0,,5,,,77,127
22413,note_on,0,0,0,,12,,,71,127
22654,note_off,241,0,0,,12,,,71,127
22654,note_off,0,0,0,,5,,,77,127
22654,note_off,0,0,0,,7,,,67,127
22654,note_off,0,0,0,,2,,,74,127
22654,note_off,0,0,0,,7,,,43,127
22655,note_on,1,0,0,,0,,,72,127
22655,note_on,0,0,0,,5,,,77,127
22655,note_on,0,0,0,,7,,,43,127
22716,note_on,61,0,0,,4,,,76,127
22735,note_off,19,0,0,,5,,,77,127
22777,note_on,42,0,0,,5,,,77,127
22796,note_off,19,0,0,,4,,,76,127
22838,note_on,42,0,0,,4,,,76,127
22857,note_off,19,0,0,,5,,,77,127
22897,note_off,40,0,0,,0,,,72,127
22898,note_on,1,0,0,,7,,,67,127
22898,note_on,0,0,0,,5,,,77,127
22917,note_off,19,0,0,,4,,,76,127
22959,note_on,42,0,0,,4,,,76,127
22978,note_off,19,0,0,,5,,,77,127
23020,note_on,42,0,0,,5,,,77,127
23039,note_off,19,0,0,,4,,,76,127
23081,note_on,42,0,0,,4,,,76,127
23100,note_off,19,0,0,,5,,,77,127
23140,note_off,40,0,0,,7,,,67,127
23140,note_off,0,0,0,,7,,,43,127
23141,note_on,1,0,0,,12,,,71,127
23141,note_on,0,0,0,,2,,,74,127
23141,note_on,0,0,0,,5,,,65,127
23160,note_off,19,0,0,,4,,,76,127
23382,note_off,222,0,0,,5,,,65,127
23382,note_off,0,0,0,,2,,,74,127
23382,note_off,0,0,0,,12,,,71,127
23383,note_on,1,0,0,,4,,,64,127
23383,note_on,0,0,0,,0,,,72,127
23624,note_off,241,0,0,,0,,,72,127
23625,note_on,1,0,0,,7,,,67,127
23866,note_off,241,0,0,,7,,,67,127
23866,note_off,0,0,0,,4,,,64,127
23867,note_on,1,0,0,,2,,,62,127
23867,note_on,0,0,0,,12,,,71,127
23867,note_on,0,0,0,,5,,,77,127
23867,note_on,0,0,0,,2,,,74,127
24108,note_off,241,0,0,,2,,,74,127
24108,note_off,0,0,0,,5,,,77,127
24108,note_off,0,0,0,,12,,,71,127
24108,note_off,0,0,0,,2,,,62,127
24109,note_on,1,0,0,,0,,,60,127
24109,note_on,0,0,0,,7,,,67,127
24109,note_on,0,0,0,,0,,,72,127
24109,note_on,0,0,0,,5,,,77,127
24350,note_off,241,0,0,,5,,,77,127
24350,note_off,0,0,0,,7,,,67,127
24350,note_off,0,0,0,,0,,,60,127
24351,note_on,1,0,0,,4,,,76,127
24351,note_on,0,0,0,,7,,,55,127
24592,note_off,241,0,0,,7,,,55,127
24592,note_off,0,0,0,,4,,,76,127
24592,note_off,0,0,0,,0,,,72,127
24593,note_on,1,0,0,,2,,,62,127
24593,note_on,0,0,0,,2,,,74,127
24593,note_on,0,0,0,,12,,,71,127
24834,note_off,241,0,0,,12,,,71,127
24834,note_off,0,0,0,,2,,,74,127
24834,note_off,0,0,0,,2,,,62,127
24835,note_on,1,0,0,,0,,,72,127
24835,note_on,0,0,0,,4,,,64,127
25076,note_off,241,0,0,,0,,,72,127
25077,note_on,1,0,0,,7,,,67,127
25318,note_off,241,0,0,,7,,,67,127
25318,note_off,0,0,0,,4,,,64,127
25319,note_on,1,0,0,,2,,,74,127
25319,note_on,0,0,0,,12,,,71,127
25319,note_on,0,0,0,,10,,,81,127
25319,note_on,0,0,0,,5,,,65,127
25560,note_off,241,0,0,,5,,,65,127
25560,note_off,0,0,0,,10,,,81,127
25560,note_off,0,0,0,,12,,,71,127
25560,note_off,0,0,0,,2,,,74,127
25561,note_on,1,0,0,,4,,,64,127
25561,note_on,0,0,0,,4,,,76,127
25561,note_on,0,0,0,,0,,,72,127
25561,note_on,0,0,0,,10,,,81,127
25802,note_off,241,0,0,,10,,,81,127
25802,note_off,0,0,0,,4,,,64,127
25803,note_on,1,0,0,,7,,,79,127
25803,note_on,0,0,0,,7,,,55,127
26044,note_off,241,0,0,,7,,,55,127
26044,note_off,0,0,0,,7,,,79,127
26044,note_off,0,0,0,,0,,,72,127
26044,note_off,0,0,0,,4,,,76,127
26045,note_on,1,0,0,,5,,,77,127
26045,note_on,0,0,0,,12,,,71,127
26045,note_on,0,0,0,,7,,,67,127
26045,note_on,0,0,0,,2,,,62,127
26045,note_on,0,0,0,,2,,,74,127
26286,note_off,241,0,0,,2,,,74,127
26286,note_off,0,0,0,,2,,,62,127
26286,note_off,0,0,0,,7,,,67,127
26286,note_off,0,0,0,,12,,,71,127
26286,note_off,0,0,0,,5,,,77,127
26287,note_on,1,0,0,,4,,,76,127
26287,note_on,0,0,0,,0,,,60,127
26287,note_on,0,0,0,,7,,,67,127
26528,note_off,241,0,0,,7,,,67,127
26528,note_off,0,0,0,,0,,,60,127
26528,note_off,0,0,0,,4,,,76,127
26529,note_on,1,0,0,,10,,,57,127
26529,note_on,0,0,0,,2,,,74,127
26649,note_off,120,0,0,,2,,,74,127
26650,note_on,1,0,0,,0,,,72,127
26770,note_off,120,0,0,,10,,,57,127
26771,note_on,1,0,0,,0,,,84,127
26771,note_on,0,0,0,,5,,,53,127
26890,note_off,119,0,0,,0,,,72,127
27013,note_off,123,0,0,,5,,,53,127
27013,note_off,0,0,0,,0,,,84,127
27014,note_on,1,0,0,,0,,,72,127
27014,note_on,0,0,0,,7,,,55,127
27134,note_off,120,0,0,,0,,,72,127
27135,note_on,1,0,0,,2,,,74,127
27255,note_off,120,0,0,,2,,,74,127
27256,note_on,1,0,0,,4,,,76,127
27317,note_on,61,0,0,,2,,,74,127
27336,note_off,19,0,0,,4,,,76,127
27378,note_on,42,0,0,,4,,,76,127
27397,note_off,19,0,0,,2,,,74,127
27439,note_on,42,0,0,,2,,,74,127
27458,note_off,19,0,0,,4,,,76,127
27500,note_on,42,0,0,,4,,,76,127
27500,note_on,0,0,0,,7,,,43,127
27519,note_off,19,0,0,,2,,,74,127
27561,note_on,42,0,0,,2,,,74,127
27580,note_off,19,0,0,,4,,,76,127
27622,note_on,42,0,0,,0,,,72,127
27641,note_off,19,0,0,,2,,,74,127
27742,note_off,101,0,0,,7,,,43,127
27742,note_off,0,0,0,,7,,,55,127
27743,note_on,1,0,0,,0,,,48,127
27743,note_on,0,0,0,,0,,,60,127
27799,note_off,56,0,0,,0,,,72,127
27986,note_on,187,0,0,,0,,,84,127
27986,note_on,0,0,0,,4,,,76,127
28227,note_off,241,0,0,,4,,,76,127
28227,note_off,0,0,0,,0,,,84,127
28227,note_off,0,0,0,,0,,,60,127
28227,note_off,0,0,0,,0,,,48,127
28228,note_on,1,0,0,,0,,,72,127
28228,note_on,0,0,0,,10,,,81,127
28469,note_off,241,0,0,,10,,,81,127
28469,note_off,0,0,0,,0,,,72,127
28470,note_on,1,0,0,,5,,,41,127
28470,note_on,0,0,0,,5,,,77,127
28470,note_on,0,0,0,,5,,,53,127
28470,note_on,0,0,0,,10,,,69,127
28711,note_off,241,0,0,,10,,,69,127
28711,note_off,0,0,0,,5,,,77,127
28712,note_on,1,0,0,,2,,,74,127
28712,note_on,0,0,0,,5,,,65,127
28953,note_off,241,0,0,,5,,,65,127
28953,note_off,0,0,0,,2,,,74,127
28953,note_off,0,0,0,,5,,,53,127
28953,note_off,0,0,0,,5,,,41,127
28954,note_on,1,0,0,,7,,,43,127
28954,note_on,0,0,0,,7,,,55,127
28954,note_on,0,0,0,,2,,,62,127
28954,note_on,0,0,0,,12,,,71,127
29181,note_off,227,0,0,,12,,,71,127
29181,note_off,0,0,0,,2,,,62,127
29195,note_off,14,0,0,,7,,,55,127
29195,note_off,0,0,0,,7,,,43,127
29196,note_on,1,0,0,,5,,,53,127
29257,note_on,61,0,0,,4,,,52,127
29276,note_off,19,0,0,,5,,,53,127
29318,note_on,42,0,0,,5,,,53,127
29337,note_off,19,0,0,,4,,,52,127
29379,note_on,42,0,0,,4,,,52,127
29398,note_off,19,0,0,,5,,,53,127
29440,note_on,42,0,0,,0,,,84,127
29440,note_on,0,0,0,,4,,,76,127
29440,note_on,0,0,0,,2,,,50,127
29459,note_off,19,0,0,,4,,,52,127
29681,note_off,222,0,0,,2,,,50,127
29681,note_off,0,0,0,,4,,,76,127
29681,note_off,0,0,0,,0,,,84,127
29682,note_on,1,0,0,,10,,,81,127
29682,note_on,0,0,0,,0,,,72,127
29682,note_on,0,0,0,,0,,,48,127
29923,note_off,241,0,0,,0,,,48,127
29923,note_off,0,0,0,,0,,,72,127
29923,note_off,0,0,0,,10,,,81,127
29924,note_on,1,0,0,,10,,,69,127
29924,note_on,0,0,0,,5,,,77,127
29924,note_on,0,0,0,,5,,,41,127
29924,note_on,0,0,0,,5,,,53,127
30165,note_off,241,0,0,,5,,,77,127
30165,note_off,0,0,0,,10,,,69,127
30166,note_on,1,0,0,,2,,,74,127
30166,note_on,0,0,0,,5,,,65,127
30407,note_off,241,0,0,,5,,,65,127
30407,note_off,0,0,0,,2,,,74,127
30407,note_off,0,0,0,,5,,,53,127
30407,note_off,0,0,0,,5,,,41,127
30408,note_on,1,0,0,,7,,,43,127
30408,note_on,0,0,0,,7,,,55,127
30408,note_on,0,0,0,,2,,,62,127
30408,note_on,0,0,0,,12,,,71,127
30635,note_off,227,0,0,,12,,,71,127
30635,note_off,0,0,0,,2,,,62,127
30649,note_off,14,0,0,,7,,,55,127
30649,note_off,0,0,0,,7,,,43,127
30650,note_on,1,0,0,,5,,,53,127
30711,note_on,61,0,0,,4,,,52,127
30730,note_off,19,0,0,,5,,,53,127
30772,note_on,42,0,0,,5,,,53,127
30791,note_off,19,0,0,,4,,,52,127
30833,note_on,42,0,0,,4,,,52,127
30852,note_off,19,0,0,,5,,,53,127
30894,note_on,42,0,0,,0,,,84,127
30894,note_on,0,0,0,,4,,,76,127
30894,note_on,0,0,0,,2,,,50,127
30913,note_off,19,0,0,,4,,,52,127
31135,note_off,222,0,0,,2,,,50,127
31135,note_off,0,0,0,,4,,,76,127
31135,note_off,0,0,0,,0,,,84,127
31136,note_on,1,0,0,,10,,,81,127
31136,note_on,0,0,0,,0,,,72,127
31136,note_on,0,0,0,,0,,,48,127
31377,note_off,241,0,0,,0,,,48,127
31377,note_off,0,0,0,,0,,,72,127
31377,note_off,0,0,0,,10,,,81,127
31378,note_on,1,0,0,,10,,,69,127
31378,note_on,0,0,0,,5,,,77,127
31378,note_on,0,0,0,,5,,,41,127
31378,note_on,0,0,0,,5,,,53,127
31619,note_off,241,0,0,,5,,,77,127
31619,note_off,0,0,0,,10,,,69,127
31620,note_on,1,0,0,,2,,,74,127
31620,note_on,0,0,0,,5,,,65,127
31861,note_off,241,0,0,,5,,,65,127
31861,note_off,0,0,0,,2,,,74,127
31861,note_off,0,0,0,,5,,,53,127
31861,note_off,0,0,0,,5,,,41,127
31862,note_on,1,0,0,,7,,,43,127
31862,note_on,0,0,0,,7,,,55,127
31862,note_on,0,0,0,,12,,,71,127
31862,note_on,0,0,0,,2,,,62,127
32103,note_off,241,0,0,,2,,,62,127
32103,note_off,0,0,0,,12,,,71,127
32103,note_off,0,0,0,,7,,,55,127
32103,note_off,0,0,0,,7,,,43,127
32104,note_on,1,0,0,,5,,,53,127
32104,note_on,0,0,0,,4,,,64,127
32104,note_on,0,0,0,,0,,,72,127
32165,note_on,61,0,0,,4,,,52,127
32184,note_off,19,0,0,,5,,,53,127
32224,note_off,40,0,0,,0,,,72,127
32225,note_on,1,0,0,,2,,,74,127
32225,note_on,0,0,0,,5,,,53,127
32244,note_off,19,0,0,,4,,,52,127
32286,note_on,42,0,0,,4,,,52,127
32305,note_off,19,0,0,,5,,,53,127
32345,note_off,40,0,0,,2,,,74,127
32346,note_on,1,0,0,,4,,,76,127
32346,note_on,0,0,0,,5,,,53,127
32365,note_off,19,0,0,,4,,,52,127
32407,note_on,42,0,0,,4,,,52,127
32426,note_off,19,0,0,,5,,,53,127
32466,note_off,40,0,0,,4,,,76,127
32467,note_on,1,0,0,,2,,,50,127
32467,note_on,0,0,0,,5,,,77,127
32486,note_off,19,0,0,,4,,,52,127
32587,note_off,101,0,0,,5,,,77,127
32587,note_off,0,0,0,,2,,,50,127
32588,note_on,1,0,0,,7,,,79,127
32588,note_on,0,0,0,,0,,,48,127
32669,note_on,81,0,0,,5,,,77,127
32702,note_off,33,0,0,,7,,,79,127
32749,note_off,47,0,0,,5,,,77,127
32750,note_on,1,0,0,,4,,,76,127
32830,note_off,80,0,0,,4,,,76,127
32830,note_off,0,0,0,,0,,,48,127
32830,note_off,0,0,0,,4,,,64,127
32831,note_on,1,0,0,,5,,,77,127
32831,note_on,0,0,0,,5,,,53,127
32912,note_on,81,0,0,,4,,,76,127
32945,note_off,33,0,0,,5,,,77,127
32992,note_off,47,0,0,,4,,,76,127
32993,note_on,1,0,0,,2,,,74,127
33073,note_off,80,0,0,,2,,,74,127
33073,note_off,0,0,0,,5,,,53,127
33074,note_on,1,0,0,,4,,,76,127
33074,note_on,0,0,0,,7,,,55,127
33155,note_on,81,0,0,,2,,,74,127
33188,note_off,33,0,0,,4,,,76,127
33235,note_off,47,0,0,,2,,,74,127
33236,note_on,1,0,0,,0,,,72,127
33316,note_off,80,0,0,,0,,,72,127
33317,note_on,1,0,0,,2,,,74,127
33317,note_on,0,0,0,,7,,,43,127
33398,note_on,81,0,0,,0,,,72,127
33431,note_off,33,0,0,,2,,,74,127
33478,note_off,47,0,0,,0,,,72,127
33479,note_on,1,0,0,,12,,,71,127
33555,note_off,76,0,0,,7,,,55,127
33559,note_off,4,0,0,,12,,,71,127
33559,note_off,0,0,0,,7,,,43,127
33560,note_on,1,0,0,,0,,,48,127
33560,note_on,0,0,0,,0,,,60,127
33803,note_on,243,0,0,,0,,,84,127
33803,note_on,0,0,0,,3,,,75,127
34044,note_off,241,0,0,,3,,,75,127
34044,note_off,0,0,0,,0,,,84,127
34045,note_on,1,0,0,,0,,,72,127
34045,note_on,0,0,0,,8,,,80,127
34286,note_off,241,0,0,,8,,,80,127
34286,note_off,0,0,0,,0,,,72,127
34286,note_off,0,0,0,,0,,,60,127
34286,note_off,0,0,0,,0,,,48,127
34287,note_on,1,0,0,,5,,,77,127
34287,note_on,0,0,0,,8,,,68,127
34287,note_on,0,0,0,,5,,,41,127
34287,note_on,0,0,0,,5,,,53,127
34528,note_off,241,0,0,,8,,,68,127
34528,note_off,0,0,0,,5,,,77,127
34529,note_on,1,0,0,,5,,,65,127
34529,note_on,0,0,0,,2,,,74,127
34770,note_off,241,0,0,,2,,,74,127
34770,note_off,0,0,0,,5,,,65,127
34770,note_off,0,0,0,,5,,,53,127
34770,note_off,0,0,0,,5,,,41,127
34771,note_on,1,0,0,,12,,,71,127
34771,note_on,0,0,0,,2,,,62,127
34771,note_on,0,0,0,,7,,,43,127
34771,note_on,0,0,0,,7,,,55,127
34998,note_off,227,0,0,,2,,,62,127
34998,note_off,0,0,0,,12,,,71,127
35012,note_off,14,0,0,,7,,,55,127
35012,note_off,0,0,0,,7,,,43,127
35013,note_on,1,0,0,,5,,,53,127
35074,note_on,61,0,0,,3,,,51,127
35093,note_off,19,0,0,,5,,,53,127
35135,note_on,42,0,0,,5,,,53,127
35154,note_off,19,0,0,,3,,,51,127
35196,note_on,42,0,0,,3,,,51,127
35215,note_off,19,0,0,,5,,,53,127
35257,note_on,42,0,0,,2,,,50,127
35257,note_on,0,0,0,,0,,,84,127
35257,note_on,0,0,0,,3,,,75,127
35276,note_off,19,0,0,,3,,,51,127
35498,note_off,222,0,0,,3,,,75,127
35498,note_off,0,0,0,,0,,,84,127
35498,note_off,0,0,0,,2,,,50,127
35499,note_on,1,0,0,,0,,,72,127
35499,note_on,0,0,0,,8,,,80,127
35499,note_on,0,0,0,,0,,,48,127
35740,note_off,241,0,0,,0,,,48,127
35740,note_off,0,0,0,,8,,,80,127
35740,note_off,0,0,0,,0,,,72,127
35741,note_on,1,0,0,,8,,,68,127
35741,note_on,0,0,0,,5,,,77,127
35741,note_on,0,0,0,,5,,,41,127
35741,note_on,0,0,0,,5,,,53,127
35982,note_off,241,0,0,,5,,,77,127
35982,note_off,0,0,0,,8,,,68,127
35983,note_on,1,0,0,,5,,,65,127
35983,note_on,0,0,0,,2,,,74,127
36224,note_off,241,0,0,,2,,,74,127
36224,note_off,0,0,0,,5,,,65,127
36224,note_off,0,0,0,,5,,,53,127
36224,note_off,0,0,0,,5,,,41,127
36225,note_on,1,0,0,,2,,,62,127
36225,note_on,0,0,0,,12,,,71,127
36225,note_on,0,0,0,,7,,,43,127
36225,note_on,0,0,0,,7,,,55,127
36452,note_off,227,0,0,,12,,,71,127
36452,note_off,0,0,0,,2,,,62,127
36466,note_off,14,0,0,,7,,,55,127
36466,note_off,0,0,0,,7,,,43,127
36467,note_on,1,0,0,,5,,,53,127
36528,note_on,61,0,0,,3,,,51,127
36547,note_off,19,0,0,,5,,,53,127
36589,note_on,42,0,0,,5,,,53,127
36608,note_off,19,0,0,,3,,,51,127
36650,note_on,42,0,0,,3,,,51,127
36669,note_off,19,0,0,,5,,,53,127
36711,note_on,42,0,0,,2,,,50,127
36711,note_on,0,0,0,,0,,,84,127
36711,note_on,0,0,0,,3,,,75,127
36730,note_off,19,0,0,,3,,,51,127
36952,note_off,222,0,0,,3,,,75,127
36952,note_off,0,0,0,,0,,,84,127
36952,note_off,0,0,0,,2,,,50,127
36953,note_on,1,0,0,,0,,,48,127
36953,note_on,0,0,0,,0,,,72,127
36953,note_on,0,0,0,,8,,,80,127
37194,note_off,241,0,0,,8,,,80,127
37194,note_off,0,0,0,,0,,,72,127
37194,note_off,0,0,0,,0,,,48,127
37195,note_on,1,0,0,,5,,,41,127
37195,note_on,0,0,0,,5,,,53,127
37195,note_on,0,0,0,,8,,,68,127
37195,note_on,0,0,0,,5,,,77,127
37436,note_off,241,0,0,,5,,,77,127
37436,note_off,0,0,0,,8,,,68,127
37437,note_on,1,0,0,,5,,,65,127
37437,note_on,0,0,0,,2,,,74,127
37678,note_off,241,0,0,,2,,,74,127
37678,note_off,0,0,0,,5,,,65,127
37678,note_off,0,0,0,,5,,,53,127
37678,note_off,0,0,0,,5,,,41,127
37679,note_on,1,0,0,,2,,,62,127
37679,note_on,0,0,0,,12,,,71,127
37679,note_on,0,0,0,,7,,,43,127
37679,note_on,0,0,0,,7,,,55,127
37920,note_off,241,0,0,,7,,,55,127
37920,note_off,0,0,0,,7,,,43,127
37920,note_off,0,0,0,,12,,,71,127
37920,note_off,0,0,0,,2,,,62,127
37921,note_on,1,0,0,,3,,,63,127
37921,note_on,0,0,0,,0,,,72,127
37921,note_on,0,0,0,,5,,,53,127
37982,note_on,61,0,0,,3,,,51,127
38001,note_off,19,0,0,,5,,,53,127
38041,note_off,40,0,0,,0,,,72,127
38042,note_on,1,0,0,,5,,,53,127
38042,note_on,0,0,0,,2,,,74,127
38061,note_off,19,0,0,,3,,,51,127
38103,note_on,42,0,0,,3,,,51,127
38122,note_off,19,0,0,,5,,,53,127
38162,note_off,40,0,0,,2,,,74,127
38163,note_on,1,0,0,,2,,,50,127
38163,note_on,0,0,0,,3,,,75,127
38182,note_off,19,0,0,,3,,,51,127
38283,note_off,101,0,0,,3,,,75,127
38284,note_on,1,0,0,,5,,,77,127
38404,note_off,120,0,0,,5,,,77,127
38404,note_off,0,0,0,,2,,,50,127
38404,note_off,0,0,0,,3,,,63,127
38405,note_on,1,0,0,,7,,,79,127
38405,note_on,0,0,0,,0,,,48,127
38486,note_on,81,0,0,,5,,,77,127
38519,note_off,33,0,0,,7,,,79,127
38566,note_off,47,0,0,,5,,,77,127
38567,note_on,1,0,0,,3,,,75,127
38647,note_off,80,0,0,,3,,,75,127
38647,note_off,0,0,0,,0,,,48,127
38648,note_on,1,0,0,,5,,,77,127
38648,note_on,0,0,0,,5,,,53,127
38729,note_on,81,0,0,,3,,,75,127
38762,note_off,33,0,0,,5,,,77,127
38809,note_off,47,0,0,,3,,,75,127
38810,note_on,1,0,0,,2,,,74,127
38890,note_off,80,0,0,,2,,,74,127
38890,note_off,0,0,0,,5,,,53,127
38891,note_on,1,0,0,,3,,,75,127
38891,note_on,0,0,0,,7,,,55,127
38972,note_on,81,0,0,,2,,,74,127
39005,note_off,33,0,0,,3,,,75,127
39052,note_off,47,0,0,,2,,,74,127
39053,note_on,1,0,0,,0,,,72,127
39133,note_off,80,0,0,,0,,,72,127
39134,note_on,1,0,0,,2,,,74,127
39134,note_on,0,0,0,,7,,,43,127
39215,note_on,81,0,0,,0,,,72,127
39248,note_off,33,0,0,,2,,,74,127
39295,note_off,47,0,0,,0,,,72,127
39296,note_on,1,0,0,,12,,,71,127
39372,note_off,76,0,0,,7,,,55,127
39376,note_off,4,0,0,,12,,,71,127
39376,note_off,0,0,0,,7,,,43,127
39377,note_on,1,0,0,,0,,,72,127
39377,note_on,0,0,0,,0,,,36,127
39498,note_on,121,0,0,,7,,,79,127
39591,note_off,93,0,0,,0,,,72,127
39618,note_off,27,0,0,,7,,,79,127
39619,note_on,1,0,0,,0,,,48,127
39619,note_on,0,0,0,,4,,,76,127
39739,note_off,120,0,0,,4,,,76,127
39739,note_off,0,0,0,,0,,,36,127
39740,note_on,1,0,0,,0,,,72,127
39860,note_off,120,0,0,,0,,,72,127
39861,note_on,1,0,0,,0,,,60,127
39861,note_on,0,0,0,,7,,,79,127
39981,note_off,120,0,0,,0,,,48,127
39982,note_on,1,0,0,,4,,,76,127
40012,note_off,30,0,0,,7,,,79,127
40102,note_off,90,0,0,,4,,,76,127
40102,note_off,0,0,0,,0,,,60,127
40103,note_on,1,0,0,,0,,,36,127
40103,note_on,0,0,0,,10,,,81,127
40224,note_on,121,0,0,,5,,,77,127
40285,note_off,61,0,0,,10,,,81,127
40344,note_off,59,0,0,,5,,,77,127
40345,note_on,1,0,0,,0,,,72,127
40345,note_on,0,0,0,,0,,,48,127
40465,note_off,120,0,0,,0,,,72,127
40465,note_off,0,0,0,,0,,,36,127
40466,note_on,1,0,0,,5,,,77,127
40586,note_off,120,0,0,,5,,,77,127
40587,note_on,1,0,0,,12,,,83,127
40587,note_on,0,0,0,,0,,,60,127
40707,note_off,120,0,0,,0,,,48,127
40708,note_on,1,0,0,,7,,,79,127
40738,note_off,30,0,0,,12,,,83,127
40828,note_off,90,0,0,,7,,,79,127
40828,note_off,0,0,0,,0,,,60,127
40829,note_on,1,0,0,,0,,,36,127
40829,note_on,0,0,0,,0,,,84,127
40950,note_on,121,0,0,,7,,,79,127
41011,note_off,61,0,0,,0,,,84,127
41070,note_off,59,0,0,,7,,,79,127
41071,note_on,1,0,0,,4,,,76,127
41071,note_on,0,0,0,,0,,,48,127
41191,note_off,120,0,0,,4,,,76,127
41191,note_off,0,0,0,,0,,,36,127
41192,note_on,1,0,0,,0,,,72,127
41312,note_off,120,0,0,,0,,,72,127
41313,note_on,1,0,0,,7,,,79,127
41313,note_on,0,0,0,,0,,,60,127
41433,note_off,120,0,0,,0,,,48,127
41434,note_on,1,0,0,,4,,,76,127
41464,note_off,30,0,0,,7,,,79,127
41554,note_off,90,0,0,,4,,,76,127
41554,note_off,0,0,0,,0,,,60,127
41555,note_on,1,0,0,,10,,,81,127
41555,note_on,0,0,0,,0,,,36,127
41676,note_on,121,0,0,,5,,,77,127
41737,note_off,61,0,0,,10,,,81,127
41796,note_off,59,0,0,,5,,,77,127
41797,note_on,1,0,0,,0,,,48,127
41797,note_on,0,0,0,,0,,,72,127
41917,note_off,120,0,0,,0,,,72,127
41917,note_off,0,0,0,,0,,,36,127
41918,note_on,1,0,0,,5,,,77,127
42038,note_off,120,0,0,,5,,,77,127
42039,note_on,1,0,0,,12,,,83,127
42039,note_on,0,0,0,,0,,,60,127
42159,note_off,120,0,0,,0,,,48,127
42160,note_on,1,0,0,,7,,,79,127
42190,note_off,30,0,0,,12,,,83,127
42280,note_off,90,0,0,,7,,,79,127
42280,note_off,0,0,0,,0,,,60,127
42281,note_on,1,0,0,,0,,,84,127
42281,note_on,0,0,0,,0,,,36,127
42402,note_on,121,0,0,,7,,,79,127
42463,note_off,61,0,0,,0,,,84,127
42522,note_off,59,0,0,,7,,,79,127
42523,note_on,1,0,0,,4,,,76,127
42523,note_on,0,0,0,,0,,,48,127
42643,note_off,120,0,0,,4,,,76,127
42643,note_off,0,0,0,,0,,,36,127
42644,note_on,1,0,0,,0,,,72,127
42764,note_off,120,0,0,,0,,,72,127
42765,note_on,1,0,0,,7,,,79,127
42765,note_on,0,0,0,,0,,,60,127
42885,note_off,120,0,0,,0,,,48,127
42886,note_on,1,0,0,,4,,,76,127
42916,note_off,30,0,0,,7,,,79,127
43006,note_off,90,0,0,,4,,,76,127
43006,note_off,0,0,0,,0,,,60,127
43007,note_on,1,0,0,,10,,,81,127
43007,note_on,0,0,0,,0,,,36,127
43128,note_on,121,0,0,,5,,,77,127
43189,note_off,61,0,0,,10,,,81,127
43248,note_off,59,0,0,,5,,,77,127
43249,note_on,1,0,0,,0,,,72,127
43249,note_on,0,0,0,,0,,,48,127
43369,note_off,120,0,0,,0,,,72,127
43369,note_off,0,0,0,,0,,,36,127
43370,note_on,1,0,0,,5,,,77,127
43490,note_off,120,0,0,,5,,,77,127
43491,note_on,1,0,0,,12,,,83,127
43491,note_on,0,0,0,,0,,,60,127
43611,note_off,120,0,0,,12,,,83,127
43611,note_off,0,0,0,,0,,,48,127
43612,note_on,1,0,0,,7,,,79,127
43732,note_off,120,0,0,,7,,,79,127
43732,note_off,0,0,0,,0,,,60,127
43733,note_on,1,0,0,,0,,,84,127
43733,note_on,0,0,0,,0,,,48,127
43853,note_off,120,0,0,,0,,,84,127
43854,note_on,1,0,0,,12,,,83,127
43974,note_off,120,0,0,,12,,,83,127
43974,note_off,0,0,0,,0,,,48,127
43975,note_on,1,0,0,,2,,,50,127
43975,note_on,0,0,0,,10,,,81,127
44095,note_off,120,0,0,,10,,,81,127
44096,note_on,1,0,0,,7,,,79,127
44216,note_off,120,0,0,,7,,,79,127
44216,note_off,0,0,0,,2,,,50,127
44217,note_on,1,0,0,,5,,,77,127
44217,note_on,0,0,0,,4,,,52,127
44337,note_off,120,0,0,,5,,,77,127
44338,note_on,1,0,0,,4,,,76,127
44458,note_off,120,0,0,,4,,,76,127
44458,note_off,0,0,0,,4,,,52,127
44459,note_on,1,0,0,,2,,,74,127
44459,note_on,0,0,0,,5,,,53,127
44539,note_off,80,0,0,,2,,,74,127
44540,note_on,1,0,0,,4,,,76,127
44620,note_off,80,0,0,,4,,,76,127
44621,note_on,1,0,0,,5,,,77,127
44701,note_off,80,0,0,,5,,,77,127
44701,note_off,0,0,0,,5,,,53,127
44702,note_on,1,0,0,,4,,,76,127
44702,note_on,0,0,0,,7,,,55,127
44822,note_off,120,0,0,,4,,,76,127
44823,note_on,1,0,0,,2,,,74,127
44943,note_off,120,0,0,,2,,,74,127
44944,note_on,1,0,0,,7,,,43,127
44944,note_on,0,0,0,,0,,,72,127
45064,note_off,120,0,0,,0,,,72,127
45065,note_on,1,0,0,,12,,,71,127
45141,note_off,76,0,0,,12,,,71,127
45181,note_off,40,0,0,,7,,,55,127
45185,note_off,4,0,0,,7,,,43,127
45186,note_on,1,0,0,,0,,,36,127
45307,note_on,121,0,0,,7,,,79,127
45427,note_off,120,0,0,,7,,,79,127
45428,note_on,1,0,0,,0,,,48,127
45428,note_on,0,0,0,,4,,,76,127
45548,note_off,120,0,0,,4,,,76,127
45548,note_off,0,0,0,,0,,,36,127
45549,note_on,1,0,0,,0,,,72,127
45669,note_off,120,0,0,,0,,,72,127
45670,note_on,1,0,0,,0,,,60,127
45670,note_on,0,0,0,,7,,,79,127
45790,note_off,120,0,0,,0,,,48,127
45791,note_on,1,0,0,,4,,,76,127
45872,note_off,81,0,0,,7,,,79,127
45911,note_off,39,0,0,,4,,,76,127
45911,note_off,0,0,0,,0,,,60,127
45912,note_on,1,0,0,,0,,,36,127
45912,note_on,0,0,0,,10,,,81,127
46033,note_on,121,0,0,,5,,,77,127
46153,note_off,120,0,0,,5,,,77,127
46154,note_on,1,0,0,,0,,,72,127
46154,note_on,0,0,0,,0,,,48,127
46164,note_off,10,0,0,,10,,,81,127
46274,note_off,110,0,0,,0,,,72,127
46274,note_off,0,0,0,,0,,,36,127
46275,note_on,1,0,0,,5,,,77,127
46395,note_off,120,0,0,,5,,,77,127
46396,note_on,1,0,0,,12,,,83,127
46396,note_on,0,0,0,,0,,,60,127
46516,note_off,120,0,0,,0,,,48,127
46517,note_on,1,0,0,,7,,,79,127
46598,note_off,81,0,0,,12,,,83,127
46637,note_off,39,0,0,,7,,,79,127
46637,note_off,0,0,0,,0,,,60,127
46638,note_on,1,0,0,,0,,,84,127
46638,note_on,0,0,0,,0,,,36,127
46759,note_on,121,0,0,,7,,,79,127
46879,note_off,120,0,0,,7,,,79,127
46880,note_on,1,0,0,,4,,,76,127
46880,note_on,0,0,0,,0,,,48,127
46890,note_off,10,0,0,,0,,,84,127
47000,note_off,110,0,0,,4,,,76,127
47000,note_off,0,0,0,,0,,,36,127
47001,note_on,1,0,0,,0,,,72,127
47121,note_off,120,0,0,,0,,,72,127
47122,note_on,1,0,0,,7,,,79,127
47122,note_on,0,0,0,,0,,,60,127
47242,note_off,120,0,0,,0,,,48,127
47243,note_on,1,0,0,,4,,,76,127
47324,note_off,81,0,0,,7,,,79,127
47363,note_off,39,0,0,,4,,,76,127
47363,note_off,0,0,0,,0,,,60,127
47364,note_on,1,0,0,,10,,,81,127
47364,note_on,0,0,0,,0,,,36,127
47485,note_on,121,0,0,,5,,,77,127
47605,note_off,120,0,0,,5,,,77,127
47606,note_on,1,0,0,,0,,,72,127
47606,note_on,0,0,0,,0,,,48,127
47616,note_off,10,0,0,,10,,,81,127
47726,note_off,110,0,0,,0,,,72,127
47726,note_off,0,0,0,,0,,,36,127
47727,note_on,1,0,0,,5,,,77,127
47847,note_off,120,0,0,,5,,,77,127
47848,note_on,1,0,0,,12,,,83,127
47848,note_on,0,0,0,,0,,,60,127
47968,note_off,120,0,0,,0,,,48,127
47969,note_on,1,0,0,,7,,,79,127
48050,note_off,81,0,0,,12,,,83,127
48089,note_off,39,0,0,,7,,,79,127
48089,note_off,0,0,0,,0,,,60,127
48090,note_on,1,0,0,,0,,,84,127
48090,note_on,0,0,0,,0,,,36,127
48211,note_on,121,0,0,,7,,,79,127
48273,note_off,62,0,0,,0,,,84,127
48331,note_off,58,0,0,,7,,,79,127
48332,note_on,1,0,0,,4,,,76,127
48332,note_on,0,0,0,,0,,,48,127
48452,note_off,120,0,0,,4,,,76,127
48452,note_off,0,0,0,,0,,,36,127
48453,note_on,1,0,0,,0,,,72,127
48573,note_off,120,0,0,,0,,,72,127
48574,note_on,1,0,0,,7,,,79,127
48574,note_on,0,0,0,,0,,,60,127
48694,note_off,120,0,0,,0,,,48,127
48695,note_on,1,0,0,,4,,,76,127
48776,note_off,81,0,0,,7,,,79,127
48815,note_off,39,0,0,,4,,,76,127
48815,note_off,0,0,0,,0,,,60,127
48816,note_on,1,0,0,,10,,,81,127
48816,note_on,0,0,0,,0,,,36,127
48937,note_on,121,0,0,,5,,,77,127
49005,note_off,68,0,0,,10,,,81,127
49057,note_off,52,0,0,,5,,,77,127
49058,note_on,1,0,0,,0,,,72,127
49058,note_on,0,0,0,,0,,,48,127
49178,note_off,120,0,0,,0,,,72,127
49178,note_off,0,0,0,,0,,,36,127
49179,note_on,1,0,0,,5,,,77,127
49299,note_off,120,0,0,,5,,,77,127
49300,note_on,1,0,0,,12,,,83,127
49300,note_on,0,0,0,,0,,,60,127
49414,note_off,114,0,0,,12,,,83,127
49420,note_off,6,0,0,,0,,,48,127
49421,note_on,1,0,0,,7,,,79,127
49535,note_off,114,0,0,,7,,,79,127
49541,note_off,6,0,0,,0,,,60,127
49542,note_on,1,0,0,,0,,,84,127
49542,note_on,0,0,0,,0,,,36,127
49662,note_off,120,0,0,,0,,,84,127
49663,note_on,1,0,0,,12,,,83,127
49783,note_off,120,0,0,,12,,,83,127
49783,note_off,0,0,0,,0,,,36,127
49784,note_on,1,0,0,,10,,,81,127
49784,note_on,0,0,0,,2,,,38,127
49904,note_off,120,0,0,,10,,,81,127
49905,note_on,1,0,0,,7,,,79,127
50025,note_off,120,0,0,,7,,,79,127
50025,note_off,0,0,0,,2,,,38,127
50026,note_on,1,0,0,,5,,,77,127
50026,note_on,0,0,0,,4,,,40,127
50146,note_off,120,0,0,,5,,,77,127
50147,note_on,1,0,0,,4,,,76,127
50267,note_off,120,0,0,,4,,,76,127
50267,note_off,0,0,0,,4,,,40,127
50268,note_on,1,0,0,,2,,,74,127
50268,note_on,0,0,0,,5,,,41,127
50388,note_off,120,0,0,,2,,,74,127
50389,note_on,1,0,0,,0,,,72,127
50509,note_off,120,0,0,,0,,,72,127
50509,note_off,0,0,0,,5,,,41,127
50510,note_on,1,0,0,,7,,,43,127
50510,note_on,0,0,0,,12,,,71,127
50630,note_off,120,0,0,,12,,,71,127
50631,note_on,1,0,0,,10,,,69,127
50751,note_off,120,0,0,,10,,,69,127
50751,note_off,0,0,0,,7,,,43,127
50752,note_on,1,0,0,,12,,,47,127
50752,note_on,0,0,0,,7,,,67,127
50872,note_off,120,0,0,,7,,,67,127
50873,note_on,1,0,0,,5,,,65,127
50993,note_off,120,0,0,,5,,,65,127
50993,note_off,0,0,0,,12,,,47,127
50994,note_on,1,0,0,,0,,,48,127
50994,note_on,0,0,0,,4,,,64,127
51114,note_off,120,0,0,,4,,,64,127
51115,note_on,1,0,0,,2,,,62,127
51235,note_off,120,0,0,,2,,,62,127
51235,note_off,0,0,0,,0,,,48,127
51236,note_on,1,0,0,,0,,,60,127
51236,note_on,0,0,0,,2,,,50,127
51356,note_off,120,0,0,,0,,,60,127
51357,note_on,1,0,0,,12,,,59,127
51477,note_off,120,0,0,,12,,,59,127
51477,note_off,0,0,0,,2,,,50,127
51478,note_on,1,0,0,,0,,,60,127
51478,note_on,0,0,0,,4,,,52,127
51703,note_off,225,0,0,,0,,,60,127
51719,note_off,16,0,0,,4,,,52,127
51720,note_on,1,0,0,,2,,,74,127
51720,note_on,0,0,0,,5,,,53,127
51800,note_off,80,0,0,,2,,,74,127
51801,note_on,1,0,0,,4,,,76,127
51881,note_off,80,0,0,,4,,,76,127
51882,note_on,1,0,0,,5,,,77,127
51962,note_off,80,0,0,,5,,,77,127
51962,note_off,0,0,0,,5,,,53,127
51963,note_on,1,0,0,,4,,,76,127
51963,note_on,0,0,0,,7,,,55,127
52083,note_off,120,0,0,,4,,,76,127
52084,note_on,1,0,0,,2,,,74,127
52204,note_off,120,0,0,,2,,,74,127
52205,note_on,1,0,0,,0,,,72,127
52205,note_on,0,0,0,,7,,,43,127
52325,note_off,120,0,0,,0,,,72,127
52326,note_off,1,0,0,,7,,,55,127
52326,note_on,0,0,0,,12,,,71,127
52446,note_off,120,0,0,,12,,,71,127
52446,note_off,0,0,0,,7,,,43,127
52447,note_on,1,0,0,,12,,,71,127
52447,note_on,0,0,0,,0,,,36,127
52447,note_on,0,0,0,,0,,,48,127
52688,note_off,241,0,0,,12,,,71,127
52689,note_on,1,0,0,,0,,,72,127
53163,note_off,474,0,0,,0,,,72,127
53173,note_off,10,0,0,,0,,,48,127
53173,note_off,0,0,0,,0,,,36,127
53174,note_on,1,0,0,,0,,,72,127
53417,note_on,243,0,0,,0,,,84,127
53654,note_off,237,0,0,,0,,,72,127
53658,note_off,4,0,0,,0,,,84,127
53659,note_on,1,0,0,,7,,,79,127
53900,note_off,241,0,0,,7,,,79,127
53901,note_on,1,0,0,,5,,,77,127
53901,note_on,0,0,0,,0,,,60,127
53962,note_on,61,0,0,,4,,,76,127
53981,note_off,19,0,0,,5,,,77,127
54023,note_on,42,0,0,,5,,,77,127
54042,note_off,19,0,0,,4,,,76,127
54084,note_on,42,0,0,,4,,,76,127
54103,note_off,19,0,0,,5,,,77,127
54145,note_on,42,0,0,,5,,,77,127
54145,note_on,0,0,0,,0,,,72,127
54164,note_off,19,0,0,,4,,,76,127
54206,note_on,42,0,0,,4,,,76,127
54225,note_off,19,0,0,,5,,,77,127
54267,note_on,42,0,0,,5,,,77,127
54286,note_off,19,0,0,,4,,,76,127
54328,note_on,42,0,0,,4,,,76,127
54347,note_off,19,0,0,,5,,,77,127
54384,note_off,37,0,0,,0,,,60,127
54388,note_off,4,0,0,,4,,,76,127
54388,note_off,0,0,0,,0,,,72,127
54389,note_on,1,0,0,,7,,,67,127
54389,note_on,0,0,0,,2,,,74,127
54553,note_off,164,0,0,,2,,,74,127
54630,note_off,77,0,0,,7,,,67,127
54631,note_on,1,0,0,,5,,,65,127
54631,note_on,0,0,0,,0,,,72,127
54692,note_on,61,0,0,,4,,,64,127
54711,note_off,19,0,0,,5,,,65,127
54753,note_on,42,0,0,,5,,,65,127
54772,note_off,19,0,0,,4,,,64,127
54814,note_on,42,0,0,,4,,,64,127
54833,note_off,19,0,0,,5,,,65,127
54873,note_off,40,0,0,,0,,,72,127
54874,note_on,1,0,0,,5,,,65,127
54874,note_on,0,0,0,,7,,,67,127
54893,note_off,19,0,0,,4,,,64,127
54935,note_on,42,0,0,,4,,,64,127
54954,note_off,19,0,0,,5,,,65,127
54996,note_on,42,0,0,,5,,,65,127
55015,note_off,19,0,0,,4,,,64,127
55057,note_on,42,0,0,,4,,,64,127
55076,note_off,19,0,0,,5,,,65,127
55116,note_off,40,0,0,,4,,,64,127
55116,note_off,0,0,0,,7,,,67,127
55117,note_on,1,0,0,,2,,,74,127
55117,note_on,0,0,0,,12,,,71,127
55117,note_on,0,0,0,,5,,,77,127
55117,note_on,0,0,0,,2,,,62,127
55358,note_off,241,0,0,,2,,,62,127
55358,note_off,0,0,0,,5,,,77,127
55358,note_off,0,0,0,,12,,,71,127
55358,note_off,0,0,0,,2,,,74,127
55359,note_on,1,0,0,,0,,,72,127
55359,note_on,0,0,0,,5,,,77,127
55359,note_on,0,0,0,,0,,,60,127
55420,note_on,61,0,0,,4,,,76,127
55439,note_off,19,0,0,,5,,,77,127
55481,note_on,42,0,0,,5,,,77,127
55500,note_off,19,0,0,,4,,,76,127
55542,note_on,42,0,0,,4,,,76,127
55561,note_off,19,0,0,,5,,,77,127
55601,note_off,40,0,0,,0,,,60,127
55602,note_on,1,0,0,,7,,,55,127
55602,note_on,0,0,0,,5,,,77,127
55621,note_off,19,0,0,,4,,,76,127
55663,note_on,42,0,0,,4,,,76,127
55682,note_off,19,0,0,,5,,,77,127
55724,note_on,42,0,0,,5,,,77,127
55743,note_off,19,0,0,,4,,,76,127
55785,note_on,42,0,0,,4,,,76,127
55804,note_off,19,0,0,,5,,,77,127
55844,note_off,40,0,0,,4,,,76,127
55844,note_off,0,0,0,,7,,,55,127
55844,note_off,0,0,0,,0,,,72,127
55845,note_on,1,0,0,,5,,,65,127
55845,note_on,0,0,0,,12,,,71,127
55845,note_on,0,0,0,,2,,,74,127
56009,note_off,164,0,0,,2,,,74,127
56086,note_off,77,0,0,,12,,,71,127
56086,note_off,0,0,0,,5,,,65,127
56087,note_on,1,0,0,,0,,,72,127
56087,note_on,0,0,0,,5,,,65,127
56148,note_on,61,0,0,,4,,,64,127
56167,note_off,19,0,0,,5,,,65,127
56209,note_on,42,0,0,,5,,,65,127
56228,note_off,19,0,0,,4,,,64,127
56270,note_on,42,0,0,,4,,,64,127
56289,note_off,19,0,0,,5,,,65,127
56329,note_off,40,0,0,,0,,,72,127
56330,note_on,1,0,0,,7,,,67,127
56330,note_on,0,0,0,,5,,,65,127
56349,note_off,19,0,0,,4,,,64,127
56391,note_on,42,0,0,,4,,,64,127
56410,note_off,19,0,0,,5,,,65,127
56452,note_on,42,0,0,,5,,,65,127
56471,note_off,19,0,0,,4,,,64,127
56513,note_on,42,0,0,,4,,,64,127
56532,note_off,19,0,0,,5,,,65,127
56572,note_off,40,0,0,,4,,,64,127
56572,note_off,0,0,0,,7,,,67,127
56573,note_on,1,0,0,,12,,,71,127
56573,note_on,0,0,0,,5,,,77,127
56573,note_on,0,0,0,,2,,,74,127
56573,note_on,0,0,0,,2,,,62,127
56814,note_off,241,0,0,,2,,,62,127
56814,note_off,0,0,0,,2,,,74,127
56814,note_off,0,0,0,,5,,,77,127
56814,note_off,0,0,0,,12,,,71,127
56815,note_on,1,0,0,,0,,,72,127
56815,note_on,0,0,0,,5,,,77,127
56815,note_on,0,0,0,,0,,,60,127
56876,note_on,61,0,0,,4,,,76,127
56895,note_off,19,0,0,,5,,,77,127
56937,note_on,42,0,0,,5,,,77,127
56956,note_off,19,0,0,,4,,,76,127
56998,note_on,42,0,0,,4,,,76,127
57017,note_off,19,0,0,,5,,,77,127
57057,note_off,40,0,0,,0,,,60,127
57058,note_on,1,0,0,,7,,,55,127
57058,note_on,0,0,0,,5,,,77,127
57077,note_off,19,0,0,,4,,,76,127
57119,note_on,42,0,0,,4,,,76,127
57138,note_off,19,0,0,,5,,,77,127
57180,note_on,42,0,0,,5,,,77,127
57199,note_off,19,0,0,,4,,,76,127
57241,note_on,42,0,0,,4,,,76,127
57260,note_off,19,0,0,,5,,,77,127
57300,note_off,40,0,0,,4,,,76,127
57300,note_off,0,0,0,,7,,,55,127
57300,note_off,0,0,0,,0,,,72,127
57301,note_on,1,0,0,,2,,,74,127
57301,note_on,0,0,0,,12,,,71,127
57301,note_on,0,0,0,,5,,,65,127
57478,note_off,177,0,0,,2,,,74,127
57542,note_off,64,0,0,,5,,,65,127
57542,note_off,0,0,0,,12,,,71,127
57543,note_on,1,0,0,,0,,,72,127
57543,note_on,0,0,0,,5,,,65,127
57604,note_on,61,0,0,,4,,,64,127
57623,note_off,19,0,0,,5,,,65,127
57665,note_on,42,0,0,,5,,,65,127
57684,note_off,19,0,0,,4,,,64,127
57726,note_on,42,0,0,,4,,,64,127
57745,note_off,19,0,0,,5,,,65,127
57785,note_off,40,0,0,,0,,,72,127
57786,note_on,1,0,0,,7,,,67,127
57786,note_on,0,0,0,,5,,,65,127
57805,note_off,19,0,0,,4,,,64,127
57847,note_on,42,0,0,,4,,,64,127
57866,note_off,19,0,0,,5,,,65,127
57908,note_on,42,0,0,,5,,,65,127
57927,note_off,19,0,0,,4,,,64,127
57969,note_on,42,0,0,,4,,,64,127
57988,note_off,19,0,0,,5,,,65,127
58028,note_off,40,0,0,,4,,,64,127
58028,note_off,0,0,0,,7,,,67,127
58029,note_on,1,0,0,,2,,,62,127
58029,note_on,0,0,0,,12,,,71,127
58029,note_on,0,0,0,,5,,,77,127
58029,note_on,0,0,0,,2,,,74,127
58270,note_off,241,0,0,,2,,,74,127
58270,note_off,0,0,0,,5,,,77,127
58270,note_off,0,0,0,,12,,,71,127
58270,note_off,0,0,0,,2,,,62,127
58271,note_on,1,0,0,,0,,,72,127
58271,note_on,0,0,0,,0,,,60,127
58271,note_on,0,0,0,,7,,,67,127
58271,note_on,0,0,0,,5,,,77,127
58512,note_off,241,0,0,,5,,,77,127
58513,note_on,1,0,0,,0,,,48,127
58513,note_on,0,0,0,,4,,,76,127
58750,note_off,237,0,0,,0,,,60,127
58754,note_off,4,0,0,,4,,,76,127
58754,note_off,0,0,0,,0,,,48,127
58754,note_off,0,0,0,,7,,,67,127
58754,note_off,0,0,0,,0,,,72,127
58755,note_on,1,0,0,,2,,,74,127
58755,note_on,0,0,0,,7,,,67,127
58755,note_on,0,0,0,,11,,,58,127
58996,note_off,241,0,0,,11,,,58,127
58996,note_off,0,0,0,,7,,,67,127
58996,note_off,0,0,0,,2,,,74,127
58997,note_on,1,0,0,,2,,,74,127
58997,note_on,0,0,0,,10,,,69,127
58997,note_on,0,0,0,,10,,,57,127
59058,note_on,61,0,0,,1,,,73,127
59077,note_off,19,0,0,,2,,,74,127
59119,note_on,42,0,0,,2,,,74,127
59138,note_off,19,0,0,,1,,,73,127
59180,note_on,42,0,0,,1,,,73,127
59199,note_off,19,0,0,,2,,,74,127
59241,note_on,42,0,0,,10,,,45,127
59241,note_on,0,0,0,,2,,,74,127
59260,note_off,19,0,0,,1,,,73,127
59302,note_on,42,0,0,,1,,,73,127
59321,note_off,19,0,0,,2,,,74,127
59363,note_on,42,0,0,,2,,,74,127
59382,note_off,19,0,0,,1,,,73,127
59424,note_on,42,0,0,,1,,,73,127
59443,note_off,19,0,0,,2,,,74,127
59480,note_off,37,0,0,,10,,,57,127
59484,note_off,4,0,0,,10,,,45,127
59484,note_off,0,0,0,,10,,,69,127
59485,note_on,1,0,0,,7,,,55,127
59485,note_on,0,0,0,,11,,,70,127
59485,note_on,0,0,0,,4,,,76,127
59504,note_off,19,0,0,,1,,,73,127
59726,note_off,222,0,0,,4,,,76,127
59726,note_off,0,0,0,,11,,,70,127
59726,note_off,0,0,0,,7,,,55,127
59727,note_on,1,0,0,,2,,,74,127
59727,note_on,0,0,0,,7,,,55,127
59788,note_on,61,0,0,,5,,,53,127
59807,note_off,19,0,0,,7,,,55,127
59849,note_on,42,0,0,,7,,,55,127
59868,note_off,19,0,0,,5,,,53,127
59910,note_on,42,0,0,,5,,,53,127
59929,note_off,19,0,0,,7,,,55,127
59969,note_off,40,0,0,,2,,,74,127
59970,note_on,1,0,0,,10,,,69,127
59970,note_on,0,0,0,,7,,,55,127
59989,note_off,19,0,0,,5,,,53,127
60031,note_on,42,0,0,,5,,,53,127
60050,note_off,19,0,0,,7,,,55,127
60092,note_on,42,0,0,,7,,,55,127
60111,note_off,19,0,0,,5,,,53,127
60153,note_on,42,0,0,,5,,,53,127
60212,note_off,59,0,0,,5,,,53,127
60212,note_off,0,0,0,,7,,,55,127
60212,note_off,0,0,0,,10,,,69,127
60213,note_on,1,0,0,,10,,,69,127
60213,note_on,0,0,0,,1,,,73,127
60213,note_on,0,0,0,,7,,,79,127
60213,note_on,0,0,0,,4,,,52,127
60454,note_off,241,0,0,,4,,,52,127
60454,note_off,0,0,0,,7,,,79,127
60454,note_off,0,0,0,,1,,,73,127
60454,note_off,0,0,0,,10,,,69,127
60455,note_on,1,0,0,,2,,,74,127
60455,note_on,0,0,0,,2,,,50,127
60455,note_on,0,0,0,,7,,,79,127
60455,note_on,0,0,0,,10,,,69,127
60516,note_on,61,0,0,,5,,,77,127
60535,note_off,19,0,0,,7,,,79,127
60577,note_on,42,0,0,,7,,,79,127
60596,note_off,19,0,0,,5,,,77,127
60638,note_on,42,0,0,,5,,,77,127
60657,note_off,19,0,0,,7,,,79,127
60697,note_off,40,0,0,,2,,,50,127
60698,note_on,1,0,0,,7,,,79,127
60698,note_on,0,0,0,,10,,,45,127
60717,note_off,19,0,0,,5,,,77,127
60759,note_on,42,0,0,,5,,,77,127
60778,note_off,19,0,0,,7,,,79,127
60820,note_on,42,0,0,,7,,,79,127
60839,note_off,19,0,0,,5,,,77,127
60881,note_on,42,0,0,,5,,,77,127
60900,note_off,19,0,0,,7,,,79,127
60940,note_off,40,0,0,,5,,,77,127
60940,note_off,0,0,0,,10,,,45,127
60940,note_off,0,0,0,,2,,,74,127
60941,note_on,1,0,0,,1,,,73,127
60941,note_on,0,0,0,,4,,,76,127
60941,note_on,0,0,0,,7,,,67,127
61118,note_off,177,0,0,,4,,,76,127
61122,note_off,4,0,0,,7,,,67,127
61183,note_off,61,0,0,,1,,,73,127
61183,note_off,0,0,0,,10,,,69,127
61184,note_on,1,0,0,,2,,,74,127
61184,note_on,0,0,0,,7,,,67,127
61245,note_on,61,0,0,,5,,,65,127
61264,note_off,19,0,0,,7,,,67,127
61306,note_on,42,0,0,,7,,,67,127
61325,note_off,19,0,0,,5,,,65,127
61367,note_on,42,0,0,,5,,,65,127
61386,note_off,19,0,0,,7,,,67,127
61426,note_off,40,0,0,,2,,,74,127
61427,note_on,1,0,0,,10,,,69,127
61427,note_on,0,0,0,,7,,,67,127
61446,note_off,19,0,0,,5,,,65,127
61488,note_on,42,0,0,,5,,,65,127
61507,note_off,19,0,0,,7,,,67,127
61549,note_on,42,0,0,,7,,,67,127
61568,note_off,19,0,0,,5,,,65,127
61610,note_on,42,0,0,,5,,,65,127
61629,note_off,19,0,0,,7,,,67,127
61669,note_off,40,0,0,,5,,,65,127
61669,note_off,0,0,0,,10,,,69,127
61670,note_on,1,0,0,,1,,,73,127
61670,note_on,0,0,0,,4,,,76,127
61670,note_on,0,0,0,,7,,,79,127
61670,note_on,0,0,0,,4,,,64,127
61911,note_off,241,0,0,,4,,,64,127
61911,note_off,0,0,0,,7,,,79,127
61911,note_off,0,0,0,,4,,,76,127
61911,note_off,0,0,0,,1,,,73,127
61912,note_on,1,0,0,,2,,,74,127
61912,note_on,0,0,0,,7,,,79,127
61912,note_on,0,0,0,,2,,,62,127
61973,note_on,61,0,0,,5,,,77,127
61992,note_off,19,0,0,,7,,,79,127
62034,note_on,42,0,0,,7,,,79,127
62053,note_off,19,0,0,,5,,,77,127
62095,note_on,42,0,0,,5,,,77,127
62114,note_off,19,0,0,,7,,,79,127
62154,note_off,40,0,0,,2,,,62,127
62155,note_on,1,0,0,,10,,,57,127
62155,note_on,0,0,0,,7,,,79,127
62174,note_off,19,0,0,,5,,,77,127
62216,note_on,42,0,0,,5,,,77,127
62235,note_off,19,0,0,,7,,,79,127
62277,note_on,42,0,0,,7,,,79,127
62296,note_off,19,0,0,,5,,,77,127
62338,note_on,42,0,0,,5,,,77,127
62357,note_off,19,0,0,,7,,,79,127
62397,note_off,40,0,0,,5,,,77,127
62397,note_off,0,0,0,,10,,,57,127
62397,note_off,0,0,0,,2,,,74,127
62398,note_on,1,0,0,,4,,,76,127
62398,note_on,0,0,0,,1,,,73,127
62398,note_on,0,0,0,,7,,,67,127
62575,note_off,177,0,0,,4,,,76,127
62639,note_off,64,0,0,,7,,,67,127
62639,note_off,0,0,0,,1,,,73,127
62640,note_on,1,0,0,,2,,,74,127
62640,note_on,0,0,0,,7,,,67,127
62701,note_on,61,0,0,,5,,,65,127
62720,note_off,19,0,0,,7,,,67,127
62762,note_on,42,0,0,,7,,,67,127
62781,note_off,19,0,0,,5,,,65,127
62823,note_on,42,0,0,,5,,,65,127
62842,note_off,19,0,0,,7,,,67,127
62882,note_off,40,0,0,,2,,,74,127
62883,note_on,1,0,0,,10,,,69,127
62883,note_on,0,0,0,,7,,,67,127
62902,note_off,19,0,0,,5,,,65,127
62944,note_on,42,0,0,,5,,,65,127
62963,note_off,19,0,0,,7,,,67,127
63005,note_on,42,0,0,,7,,,67,127
63024,note_off,19,0,0,,5,,,65,127
63066,note_on,42,0,0,,5,,,65,127
63085,note_off,19,0,0,,7,,,67,127
63125,note_off,40,0,0,,5,,,65,127
63125,note_off,0,0,0,,10,,,69,127
63126,note_on,1,0,0,,1,,,73,127
63126,note_on,0,0,0,,4,,,76,127
63126,note_on,0,0,0,,7,,,79,127
63126,note_on,0,0,0,,4,,,64,127
63367,note_off,241,0,0,,4,,,64,127
63367,note_off,0,0,0,,7,,,79,127
63367,note_off,0,0,0,,4,,,76,127
63367,note_off,0,0,0,,1,,,73,127
63368,note_on,1,0,0,,10,,,69,127
63368,note_on,0,0,0,,2,,,62,127
63368,note_on,0,0,0,,4,,,76,127
63368,note_on,0,0,0,,7,,,79,127
63609,note_off,241,0,0,,7,,,79,127
63609,note_off,0,0,0,,4,,,76,127
63610,note_on,1,0,0,,6,,,78,127
63610,note_on,0,0,0,,2,,,50,127
63847,note_off,237,0,0,,2,,,62,127
63851,note_off,4,0,0,,2,,,50,127
63851,note_off,0,0,0,,6,,,78,127
63851,note_off,0,0,0,,10,,,69,127
63852,note_on,1,0,0,,10,,,69,127
63852,note_on,0,0,0,,4,,,76,127
63852,note_on,0,0,0,,0,,,60,127
64093,note_off,241,0,0,,0,,,60,127
64093,note_off,0,0,0,,4,,,76,127
64093,note_off,0,0,0,,10,,,69,127
64094,note_on,1,0,0,,12,,,59,127
64094,note_on,0,0,0,,12,,,71,127
64094,note_on,0,0,0,,4,,,76,127
64155,note_on,61,0,0,,3,,,75,127
64174,note_off,19,0,0,,4,,,76,127
64216,note_on,42,0,0,,4,,,76,127
64235,note_off,19,0,0,,3,,,75,127
64277,note_on,42,0,0,,3,,,75,127
64296,note_off,19,0,0,,4,,,76,127
64338,note_on,42,0,0,,12,,,47,127
64338,note_on,0,0,0,,4,,,76,127
64357,note_off,19,0,0,,3,,,75,127
64399,note_on,42,0,0,,3,,,75,127
64418,note_off,19,0,0,,4,,,76,127
64460,note_on,42,0,0,,4,,,76,127
64479,note_off,19,0,0,,3,,,75,127
64521,note_on,42,0,0,,3,,,75,127
64540,note_off,19,0,0,,4,,,76,127
64577,note_off,37,0,0,,12,,,59,127
64581,note_off,4,0,0,,12,,,47,127
64581,note_off,0,0,0,,12,,,71,127
64582,note_on,1,0,0,,6,,,78,127
64582,note_on,0,0,0,,10,,,57,127
64582,note_on,0,0,0,,0,,,72,127
64601,note_off,19,0,0,,3,,,75,127
64823,note_off,222,0,0,,0,,,72,127
64823,note_off,0,0,0,,10,,,57,127
64823,note_off,0,0,0,,6,,,78,127
64824,note_on,1,0,0,,4,,,76,127
64824,note_on,0,0,0,,10,,,57,127
64885,note_on,61,0,0,,7,,,55,127
64904,note_off,19,0,0,,10,,,57,127
64946,note_on,42,0,0,,10,,,57,127
64965,note_off,19,0,0,,7,,,55,127
65007,note_on,42,0,0,,7,,,55,127
65026,note_off,19,0,0,,10,,,57,127
65066,note_off,40,0,0,,4,,,76,127
65067,note_on,1,0,0,,10,,,57,127
65067,note_on,0,0,0,,12,,,71,127
65086,note_off,19,0,0,,7,,,55,127
65128,note_on,42,0,0,,7,,,55,127
65147,note_off,19,0,0,,10,,,57,127
65189,note_on,42,0,0,,10,,,57,127
65208,note_off,19,0,0,,7,,,55,127
65250,note_on,42,0,0,,7,,,55,127
65269,note_off,19,0,0,,10,,,57,127
65309,note_off,40,0,0,,7,,,55,127
65309,note_off,0,0,0,,12,,,71,127
65310,note_on,1,0,0,,6,,,54,127
65310,note_on,0,0,0,,10,,,81,127
65310,note_on,0,0,0,,3,,,75,127
65551,note_off,241,0,0,,3,,,75,127
65551,note_off,0,0,0,,10,,,81,127
65551,note_off,0,0,0,,6,,,54,127
65552,note_on,1,0,0,,12,,,71,127
65552,note_on,0,0,0,,4,,,76,127
65552,note_on,0,0,0,,4,,,52,127
65552,note_on,0,0,0,,10,,,81,127
65613,note_on,61,0,0,,7,,,79,127
65632,note_off,19,0,0,,10,,,81,127
65674,note_on,42,0,0,,10,,,81,127
65693,note_off,19,0,0,,7,,,79,127
65735,note_on,42,0,0,,7,,,79,127
65754,note_off,19,0,0,,10,,,81,127
65794,note_off,40,0,0,,4,,,52,127
65795,note_on,1,0,0,,10,,,81,127
65795,note_on,0,0,0,,12,,,47,127
65814,note_off,19,0,0,,7,,,79,127
65856,note_on,42,0,0,,7,,,79,127
65875,note_off,19,0,0,,10,,,81,127
65917,note_on,42,0,0,,10,,,81,127
65936,note_off,19,0,0,,7,,,79,127
65978,note_on,42,0,0,,7,,,79,127
65997,note_off,19,0,0,,10,,,81,127
66037,note_off,40,0,0,,7,,,79,127
66037,note_off,0,0,0,,12,,,47,127
66037,note_off,0,0,0,,4,,,76,127
66038,note_on,1,0,0,,6,,,78,127
66038,note_on,0,0,0,,3,,,75,127
66038,note_on,0,0,0,,10,,,69,127
66215,note_off,177,0,0,,6,,,78,127
66279,note_off,64,0,0,,10,,,69,127
66279,note_off,0,0,0,,3,,,75,127
66279,note_off,0,0,0,,12,,,71,127
66280,note_on,1,0,0,,10,,,69,127
66280,note_on,0,0,0,,4,,,76,127
66341,note_on,61,0,0,,7,,,67,127
66360,note_off,19,0,0,,10,,,69,127
66402,note_on,42,0,0,,10,,,69,127
66421,note_off,19,0,0,,7,,,67,127
66463,note_on,42,0,0,,7,,,67,127
66482,note_off,19,0,0,,10,,,69,127
66522,note_off,40,0,0,,4,,,76,127
66523,note_on,1,0,0,,12,,,71,127
66523,note_on,0,0,0,,10,,,69,127
66542,note_off,19,0,0,,7,,,67,127
66584,note_on,42,0,0,,7,,,67,127
66603,note_off,19,0,0,,10,,,69,127
66645,note_on,42,0,0,,10,,,69,127
66664,note_off,19,0,0,,7,,,67,127
66706,note_on,42,0,0,,7,,,67,127
66725,note_off,19,0,0,,10,,,69,127
66765,note_off,40,0,0,,7,,,67,127
66766,note_on,1,0,0,,3,,,75,127
66766,note_on,0,0,0,,10,,,81,127
66766,note_on,0,0,0,,6,,,66,127
67007,note_off,241,0,0,,6,,,66,127
67007,note_off,0,0,0,,10,,,81,127
67007,note_off,0,0,0,,3,,,75,127
67007,note_off,0,0,0,,12,,,71,127
67008,note_on,1,0,0,,4,,,64,127
67008,note_on,0,0,0,,4,,,76,127
67008,note_on,0,0,0,,12,,,71,127
67008,note_on,0,0,0,,10,,,81,127
67249,note_off,241,0,0,,10,,,81,127
67249,note_off,0,0,0,,4,,,64,127
67250,note_on,1,0,0,,10,,,57,127
67250,note_on,0,0,0,,7,,,79,127
67491,note_off,241,0,0,,7,,,79,127
67491,note_off,0,0,0,,10,,,57,127
67491,note_off,0,0,0,,12,,,71,127
67491,note_off,0,0,0,,4,,,76,127
67492,note_on,1,0,0,,12,,,59,127
67492,note_on,0,0,0,,3,,,75,127
67492,note_on,0,0,0,,6,,,78,127
67719,note_off,227,0,0,,6,,,78,127
67719,note_off,0,0,0,,3,,,75,127
67733,note_off,14,0,0,,12,,,59,127
67734,note_on,1,0,0,,10,,,81,127
67734,note_on,0,0,0,,4,,,76,127
67734,note_on,0,0,0,,4,,,52,127
67795,note_on,61,0,0,,7,,,79,127
67814,note_off,19,0,0,,10,,,81,127
67856,note_on,42,0,0,,10,,,81,127
67875,note_off,19,0,0,,7,,,79,127
67917,note_on,42,0,0,,7,,,79,127
67936,note_off,19,0,0,,10,,,81,127
67976,note_off,40,0,0,,4,,,76,127
67977,note_on,1,0,0,,6,,,78,127
67996,note_off,19,0,0,,7,,,79,127
68097,note_off,101,0,0,,6,,,78,127
68098,note_on,1,0,0,,7,,,79,127
68218,note_off,120,0,0,,7,,,79,127
68218,note_off,0,0,0,,4,,,52,127
68219,note_on,1,0,0,,4,,,76,127
68434,note_off,215,0,0,,4,,,76,127
68462,note_on,28,0,0,,4,,,76,127
68462,note_on,0,0,0,,7,,,67,127
68582,note_off,120,0,0,,7,,,67,127
68583,note_on,1,0,0,,12,,,71,127
68703,note_off,120,0,0,,12,,,71,127
68703,note_off,0,0,0,,4,,,76,127
68704,note_on,1,0,0,,7,,,67,127
68704,note_on,0,0,0,,7,,,79,127
68824,note_off,120,0,0,,7,,,67,127
68825,note_on,1,0,0,,4,,,64,127
68945,note_off,120,0,0,,4,,,64,127
68945,note_off,0,0,0,,7,,,79,127
68946,note_on,1,0,0,,7,,,67,127
68946,note_on,0,0,0,,4,,,76,127
69066,note_off,120,0,0,,7,,,67,127
69067,note_on,1,0,0,,10,,,69,127
69187,note_off,120,0,0,,10,,,69,127
69187,note_off,0,0,0,,4,,,76,127
69188,note_on,1,0,0,,12,,,71,127
69188,note_on,0,0,0,,4,,,76,127
69429,note_off,241,0,0,,4,,,76,127
69430,note_on,1,0,0,,3,,,75,127
69550,note_off,120,0,0,,3,,,75,127
69551,note_on,1,0,0,,1,,,73,127
69671,note_off,120,0,0,,1,,,73,127
69672,note_on,1,0,0,,3,,,75,127
69869,note_off,197,0,0,,12,,,71,127
69887,note_off,18,0,0,,3,,,75,127
69915,note_on,28,0,0,,6,,,66,127
69915,note_on,0,0,0,,2,,,74,127
70035,note_off,120,0,0,,6,,,66,127
70036,note_on,1,0,0,,12,,,71,127
70156,note_off,120,0,0,,12,,,71,127
70156,note_off,0,0,0,,2,,,74,127
70157,note_on,1,0,0,,6,,,78,127
70157,note_on,0,0,0,,6,,,66,127
70277,note_off,120,0,0,,6,,,66,127
70278,note_on,1,0,0,,2,,,62,127
70398,note_off,120,0,0,,2,,,62,127
70398,note_off,0,0,0,,6,,,78,127
70399,note_on,1,0,0,,2,,,74,127
70399,note_on,0,0,0,,6,,,66,127
70519,note_off,120,0,0,,6,,,66,127
70520,note_on,1,0,0,,7,,,67,127
70640,note_off,120,0,0,,7,,,67,127
70640,note_off,0,0,0,,2,,,74,127
70641,note_on,1,0,0,,10,,,69,127
70641,note_on,0,0,0,,2,,,74,127
70882,note_off,241,0,0,,2,,,74,127
70883,note_on,1,0,0,,0,,,72,127
71003,note_off,120,0,0,,0,,,72,127
71004,note_on,1,0,0,,12,,,71,127
71124,note_off,120,0,0,,12,,,71,127
71125,note_on,1,0,0,,0,,,72,127
71335,note_off,210,0,0,,10,,,69,127
71362,note_off,27,0,0,,0,,,72,127
71368,note_on,6,0,0,,0,,,72,127
71368,note_on,0,0,0,,4,,,64,127
71488,note_off,120,0,0,,4,,,64,127
71489,note_on,1,0,0,,2,,,62,127
71609,note_off,120,0,0,,2,,,62,127
71609,note_off,0,0,0,,0,,,72,127
71610,note_on,1,0,0,,4,,,76,127
71610,note_on,0,0,0,,0,,,60,127
71730,note_off,120,0,0,,0,,,60,127
71731,note_on,1,0,0,,12,,,59,127
71851,note_off,120,0,0,,12,,,59,127
71851,note_off,0,0,0,,4,,,76,127
71852,note_on,1,0,0,,0,,,72,127
71852,note_on,0,0,0,,10,,,57,127
71972,note_off,120,0,0,,10,,,57,127
71973,note_on,1,0,0,,4,,,64,127
72088,note_off,115,0,0,,0,,,72,127
72093,note_off,5,0,0,,4,,,64,127
72094,note_on,1,0,0,,4,,,64,127
72094,note_on,0,0,0,,0,,,72,127
72155,note_on,61,0,0,,3,,,63,127
72174,note_off,19,0,0,,4,,,64,127
72216,note_on,42,0,0,,4,,,64,127
72235,note_off,19,0,0,,3,,,63,127
72277,note_on,42,0,0,,3,,,63,127
72296,note_off,19,0,0,,4,,,64,127
72336,note_off,40,0,0,,0,,,72,127
72337,note_on,1,0,0,,4,,,64,127
72337,note_on,0,0,0,,12,,,71,127
72356,note_off,19,0,0,,3,,,63,127
72398,note_on,42,0,0,,3,,,63,127
72417,note_off,19,0,0,,4,,,64,127
72457,note_off,40,0,0,,12,,,71,127
72458,note_on,1,0,0,,4,,,64,127
72458,note_on,0,0,0,,10,,,69,127
72477,note_off,19,0,0,,3,,,63,127
72519,note_on,42,0,0,,3,,,63,127
72538,note_off,19,0,0,,4,,,64,127
72578,note_off,40,0,0,,10,,,69,127
72579,note_on,1,0,0,,4,,,64,127
72579,note_on,0,0,0,,12,,,71,127
72598,note_off,19,0,0,,3,,,63,127
72640,note_on,42,0,0,,3,,,63,127
72659,note_off,19,0,0,,4,,,64,127
72701,note_on,42,0,0,,1,,,61,127
72720,note_off,19,0,0,,3,,,63,127
72762,note_on,42,0,0,,3,,,63,127
72781,note_off,19,0,0,,1,,,61,127
72805,note_off,24,0,0,,12,,,71,127
72823,note_on,18,0,0,,12,,,83,127
72823,note_on,0,0,0,,12,,,59,127
72842,note_off,19,0,0,,3,,,63,127
72943,note_off,101,0,0,,12,,,83,127
72944,note_on,1,0,0,,10,,,81,127
73064,note_off,120,0,0,,10,,,81,127
73064,note_off,0,0,0,,12,,,59,127
73065,note_on,1,0,0,,1,,,61,127
73065,note_on,0,0,0,,7,,,79,127
73185,note_off,120,0,0,,7,,,79,127
73186,note_on,1,0,0,,6,,,78,127
73306,note_off,120,0,0,,6,,,78,127
73306,note_off,0,0,0,,1,,,61,127
73307,note_on,1,0,0,,3,,,63,127
73307,note_on,0,0,0,,4,,,76,127
73427,note_off,120,0,0,,4,,,76,127
73428,note_on,1,0,0,,3,,,75,127
73548,note_off,120,0,0,,3,,,75,127
73548,note_off,0,0,0,,3,,,63,127
73549,note_on,1,0,0,,4,,,76,127
73549,note_on,0,0,0,,4,,,64,127
73669,note_off,120,0,0,,4,,,64,127
73670,note_on,1,0,0,,7,,,67,127
73790,note_off,120,0,0,,7,,,67,127
73791,note_on,1,0,0,,6,,,66,127
73877,note_off,86,0,0,,4,,,76,127
73911,note_off,34,0,0,,6,,,66,127
73912,note_on,1,0,0,,4,,,64,127
74032,note_off,120,0,0,,4,,,64,127
74033,note_on,1,0,0,,3,,,63,127
74153,note_off,120,0,0,,3,,,63,127
74154,note_on,1,0,0,,1,,,61,127
74274,note_off,120,0,0,,1,,,61,127
74275,note_on,1,0,0,,12,,,59,127
74275,note_on,0,0,0,,12,,,83,127
74395,note_off,120,0,0,,12,,,83,127
74396,note_on,1,0,0,,10,,,81,127
74516,note_off,120,0,0,,10,,,81,127
74516,note_off,0,0,0,,12,,,59,127
74517,note_on,1,0,0,,1,,,61,127
74517,note_on,0,0,0,,7,,,79,127
74637,note_off,120,0,0,,7,,,79,127
74638,note_on,1,0,0,,6,,,78,127
74758,note_off,120,0,0,,6,,,78,127
74758,note_off,0,0,0,,1,,,61,127
74759,note_on,1,0,0,,4,,,76,127
74759,note_on,0,0,0,,3,,,63,127
74879,note_off,120,0,0,,4,,,76,127
74880,note_on,1,0,0,,3,,,75,127
75000,note_off,120,0,0,,3,,,75,127
75000,note_off,0,0,0,,3,,,63,127
75001,note_on,1,0,0,,4,,,64,127
75001,note_on,0,0,0,,4,,,76,127
75121,note_off,120,0,0,,4,,,64,127
75122,note_on,1,0,0,,7,,,67,127
75241,note_off,119,0,0,,4,,,76,127
75242,note_off,1,0,0,,7,,,67,127
75243,note_on,1,0,0,,6,,,66,127
75363,note_off,120,0,0,,6,,,66,127
75364,note_on,1,0,0,,4,,,64,127
75484,note_off,120,0,0,,4,,,64,127
75485,note_on,1,0,0,,3,,,63,127
75605,note_off,120,0,0,,3,,,63,127
75606,note_on,1,0,0,,1,,,61,127
75726,note_off,120,0,0,,1,,,61,127
75727,note_on,1,0,0,,12,,,59,127
75727,note_on,0,0,0,,12,,,83,127
75847,note_off,120,0,0,,12,,,83,127
75848,note_on,1,0,0,,10,,,81,127
75968,note_off,120,0,0,,10,,,81,127
75968,note_off,0,0,0,,12,,,59,127
75969,note_on,1,0,0,,7,,,79,127
75969,note_on,0,0,0,,1,,,61,127
76089,note_off,120,0,0,,7,,,79,127
76090,note_on,1,0,0,,6,,,78,127
76210,note_off,120,0,0,,6,,,78,127
76210,note_off,0,0,0,,1,,,61,127
76211,note_on,1,0,0,,3,,,63,127
76211,note_on,0,0,0,,4,,,76,127
76331,note_off,120,0,0,,4,,,76,127
76332,note_on,1,0,0,,3,,,75,127
76452,note_off,120,0,0,,3,,,75,127
76452,note_off,0,0,0,,3,,,63,127
76453,note_on,1,0,0,,4,,,64,127
76453,note_on,0,0,0,,4,,,76,127
76573,note_off,120,0,0,,4,,,64,127
76574,note_on,1,0,0,,5,,,65,127
76694,note_off,120,0,0,,5,,,65,127
76694,note_off,0,0,0,,4,,,76,127
76695,note_on,1,0,0,,4,,,76,127
76695,note_on,0,0,0,,7,,,67,127
76815,note_off,120,0,0,,7,,,67,127
76816,note_on,1,0,0,,10,,,69,127
76936,note_off,120,0,0,,10,,,69,127
76936,note_off,0,0,0,,4,,,76,127
76937,note_on,1,0,0,,11,,,70,127
76937,note_on,0,0,0,,2,,,74,127
77057,note_off,120,0,0,,11,,,70,127
77058,note_on,1,0,0,,7,,,67,127
77178,note_off,120,0,0,,7,,,67,127
77178,note_off,0,0,0,,2,,,74,127
77179,note_on,1,0,0,,10,,,69,127
77179,note_on,0,0,0,,1,,,73,127
77299,note_off,120,0,0,,10,,,69,127
77300,note_on,1,0,0,,11,,,70,127
77420,note_off,120,0,0,,11,,,70,127
77420,note_off,0,0,0,,1,,,73,127
77421,note_on,1,0,0,,10,,,69,127
77421,note_on,0,0,0,,2,,,74,127
77541,note_off,120,0,0,,10,,,69,127
77542,note_on,1,0,0,,7,,,67,127
77662,note_off,120,0,0,,7,,,67,127
77662,note_off,0,0,0,,2,,,74,127
77663,note_on,1,0,0,,5,,,65,127
77663,note_on,0,0,0,,4,,,76,127
77783,note_off,120,0,0,,5,,,65,127
77784,note_on,1,0,0,,4,,,64,127
77904,note_off,120,0,0,,4,,,64,127
77904,note_off,0,0,0,,4,,,76,127
77905,note_on,1,0,0,,2,,,62,127
77905,note_on,0,0,0,,5,,,77,127
78025,note_off,120,0,0,,2,,,62,127
78026,note_on,1,0,0,,4,,,64,127
78146,note_off,120,0,0,,4,,,64,127
78147,note_on,1,0,0,,5,,,65,127
78147,note_on,0,0,0,,2,,,74,127
78208,note_off,61,0,0,,5,,,77,127
78267,note_off,59,0,0,,5,,,65,127
78268,note_on,1,0,0,,7,,,67,127
78388,note_off,120,0,0,,7,,,67,127
78388,note_off,0,0,0,,2,,,74,127
78389,note_on,1,0,0,,0,,,72,127
78389,note_on,0,0,0,,10,,,69,127
78509,note_off,120,0,0,,10,,,69,127
78510,note_on,1,0,0,,5,,,65,127
78630,note_off,120,0,0,,5,,,65,127
78630,note_off,0,0,0,,0,,,72,127
78631,note_on,1,0,0,,12,,,71,127
78631,note_on,0,0,0,,7,,,67,127
78751,note_off,120,0,0,,7,,,67,127
78752,note_on,1,0,0,,10,,,69,127
78872,note_off,120,0,0,,10,,,69,127
78872,note_off,0,0,0,,12,,,71,127
78873,note_on,1,0,0,,7,,,67,127
78873,note_on,0,0,0,,0,,,72,127
78993,note_off,120,0,0,,7,,,67,127
78994,note_on,1,0,0,,5,,,65,127
79114,note_off,120,0,0,,5,,,65,127
79114,note_off,0,0,0,,0,,,72,127
79115,note_on,1,0,0,,4,,,64,127
79115,note_on,0,0,0,,2,,,74,127
79235,note_off,120,0,0,,4,,,64,127
79236,note_on,1,0,0,,2,,,62,127
79356,note_off,120,0,0,,2,,,62,127
79356,note_off,0,0,0,,2,,,74,127
79357,note_on,1,0,0,,0,,,60,127
79357,note_on,0,0,0,,4,,,76,127
79477,note_off,120,0,0,,0,,,60,127
79478,note_on,1,0,0,,2,,,62,127
79598,note_off,120,0,0,,2,,,62,127
79599,note_on,1,0,0,,4,,,64,127
79599,note_on,0,0,0,,0,,,72,127
79660,note_off,61,0,0,,4,,,76,127
79719,note_off,59,0,0,,4,,,64,127
79720,note_on,1,0,0,,5,,,65,127
79840,note_off,120,0,0,,5,,,65,127
79840,note_off,0,0,0,,0,,,72,127
79841,note_on,1,0,0,,7,,,67,127
79841,note_on,0,0,0,,12,,,71,127
79961,note_off,120,0,0,,7,,,67,127
79962,note_on,1,0,0,,4,,,64,127
80082,note_off,120,0,0,,4,,,64,127
80082,note_off,0,0,0,,12,,,71,127
80083,note_on,1,0,0,,5,,,65,127
80083,note_on,0,0,0,,10,,,69,127
80203,note_off,120,0,0,,5,,,65,127
80204,note_on,1,0,0,,7,,,67,127
80324,note_off,120,0,0,,7,,,67,127
80324,note_off,0,0,0,,10,,,69,127
80325,note_on,1,0,0,,12,,,71,127
80325,note_on,0,0,0,,5,,,65,127
80445,note_off,120,0,0,,5,,,65,127
80446,note_on,1,0,0,,4,,,64,127
80566,note_off,120,0,0,,4,,,64,127
80566,note_off,0,0,0,,12,,,71,127
80567,note_on,1,0,0,,2,,,62,127
80567,note_on,0,0,0,,0,,,72,127
80687,note_off,120,0,0,,2,,,62,127
80688,note_on,1,0,0,,0,,,60,127
80808,note_off,120,0,0,,0,,,60,127
80808,note_off,0,0,0,,0,,,72,127
80809,note_on,1,0,0,,12,,,59,127
80809,note_on,0,0,0,,2,,,74,127
80929,note_off,120,0,0,,12,,,59,127
80930,note_on,1,0,0,,0,,,60,127
81050,note_off,120,0,0,,0,,,60,127
81051,note_on,1,0,0,,2,,,62,127
81051,note_on,0,0,0,,12,,,71,127
81112,note_off,61,0,0,,2,,,74,127
81171,note_off,59,0,0,,2,,,62,127
81172,note_on,1,0,0,,4,,,64,127
81292,note_off,120,0,0,,4,,,64,127
81292,note_off,0,0,0,,12,,,71,127
81293,note_on,1,0,0,,5,,,65,127
81293,note_on,0,0,0,,10,,,69,127
81413,note_off,120,0,0,,5,,,65,127
81414,note_on,1,0,0,,2,,,62,127
81534,note_off,120,0,0,,2,,,62,127
81534,note_off,0,0,0,,10,,,69,127
81535,note_on,1,0,0,,4,,,64,127
81535,note_on,0,0,0,,8,,,68,127
81655,note_off,120,0,0,,4,,,64,127
81656,note_on,1,0,0,,5,,,65,127
81776,note_off,120,0,0,,5,,,65,127
81776,note_off,0,0,0,,8,,,68,127
81777,note_on,1,0,0,,10,,,69,127
81777,note_on,0,0,0,,4,,,64,127
81897,note_off,120,0,0,,4,,,64,127
81898,note_on,1,0,0,,2,,,62,127
82018,note_off,120,0,0,,2,,,62,127
82018,note_off,0,0,0,,10,,,69,127
82019,note_on,1,0,0,,0,,,60,127
82019,note_on,0,0,0,,8,,,68,127
82139,note_off,120,0,0,,0,,,60,127
82140,note_on,1,0,0,,12,,,59,127
82246,note_off,106,0,0,,8,,,68,127
82260,note_off,14,0,0,,12,,,59,127
82261,note_on,1,0,0,,10,,,57,127
82261,note_on,0,0,0,,10,,,69,127
82381,note_off,120,0,0,,10,,,69,127
82382,note_on,1,0,0,,12,,,71,127
82502,note_off,120,0,0,,12,,,71,127
82502,note_off,0,0,0,,10,,,57,127
82503,note_on,1,0,0,,0,,,72,127
82503,note_on,0,0,0,,12,,,59,127
82623,note_off,120,0,0,,0,,,72,127
82624,note_on,1,0,0,,2,,,74,127
82744,note_off,120,0,0,,2,,,74,127
82744,note_off,0,0,0,,12,,,59,127
82745,note_on,1,0,0,,4,,,76,127
82745,note_on,0,0,0,,0,,,60,127
82865,note_off,120,0,0,,4,,,76,127
82866,note_on,1,0,0,,10,,,69,127
82986,note_off,120,0,0,,10,,,69,127
82986,note_off,0,0,0,,0,,,60,127
82987,note_on,1,0,0,,2,,,62,127
82987,note_on,0,0,0,,5,,,77,127
83107,note_off,120,0,0,,5,,,77,127
83108,note_on,1,0,0,,4,,,76,127
83228,note_off,120,0,0,,4,,,76,127
83228,note_off,0,0,0,,2,,,62,127
83229,note_on,1,0,0,,4,,,64,127
83229,note_on,0,0,0,,2,,,74,127
83349,note_off,120,0,0,,2,,,74,127
83350,note_on,1,0,0,,0,,,72,127
83470,note_off,120,0,0,,0,,,72,127
83470,note_off,0,0,0,,4,,,64,127
83471,note_on,1,0,0,,5,,,65,127
83471,note_on,0,0,0,,12,,,71,127
83591,note_off,120,0,0,,12,,,71,127
83592,note_on,1,0,0,,10,,,69,127
83712,note_off,120,0,0,,10,,,69,127
83712,note_off,0,0,0,,5,,,65,127
83713,note_on,1,0,0,,4,,,64,127
83713,note_on,0,0,0,,8,,,68,127
83833,note_off,120,0,0,,4,,,64,127
83834,note_on,1,0,0,,6,,,66,127
83954,note_off,120,0,0,,6,,,66,127
83954,note_off,0,0,0,,8,,,68,127
83955,note_on,1,0,0,,8,,,68,127
84075,note_off,120,0,0,,8,,,68,127
84076,note_on,1,0,0,,10,,,69,127
84196,note_off,120,0,0,,10,,,69,127
84197,note_on,1,0,0,,12,,,71,127
84317,note_off,120,0,0,,12,,,71,127
84318,note_on,1,0,0,,0,,,72,127
84438,note_off,120,0,0,,0,,,72,127
84439,note_on,1,0,0,,2,,,74,127
84439,note_on,0,0,0,,2,,,62,127
84439,note_on,0,0,0,,4,,,52,127
84560,note_on,121,0,0,,5,,,77,127
84679,note_off,119,0,0,,2,,,74,127
84680,note_off,1,0,0,,5,,,77,127
84681,note_on,1,0,0,,4,,,76,127
84801,note_off,120,0,0,,4,,,76,127
84802,note_on,1,0,0,,2,,,74,127
84922,note_off,120,0,0,,2,,,74,127
84923,note_on,1,0,0,,0,,,72,127
85043,note_off,120,0,0,,0,,,72,127
85044,note_on,1,0,0,,12,,,71,127
85164,note_off,120,0,0,,12,,,71,127
85164,note_off,0,0,0,,4,,,52,127
85164,note_off,0,0,0,,2,,,62,127
85165,note_on,1,0,0,,0,,,72,127
85165,note_on,0,0,0,,4,,,52,127
85165,note_on,0,0,0,,0,,,60,127
85165,note_on,0,0,0,,10,,,57,127
85286,note_on,121,0,0,,4,,,76,127
85405,note_off,119,0,0,,0,,,72,127
85406,note_off,1,0,0,,4,,,76,127
85407,note_on,1,0,0,,2,,,74,127
85527,note_off,120,0,0,,2,,,74,127
85528,note_on,1,0,0,,0,,,72,127
85648,note_off,120,0,0,,0,,,72,127
85649,note_on,1,0,0,,12,,,71,127
85769,note_off,120,0,0,,12,,,71,127
85770,note_on,1,0,0,,10,,,69,127
85890,note_off,120,0,0,,10,,,69,127
85890,note_off,0,0,0,,10,,,57,127
85890,note_off,0,0,0,,0,,,60,127
85890,note_off,0,0,0,,4,,,52,127
85891,note_on,1,0,0,,12,,,71,127
85891,note_on,0,0,0,,4,,,52,127
85891,note_on,0,0,0,,2,,,62,127
85891,note_on,0,0,0,,12,,,59,127
86012,note_on,121,0,0,,2,,,74,127
86131,note_off,119,0,0,,12,,,71,127
86132,note_off,1,0,0,,2,,,74,127
86133,note_on,1,0,0,,0,,,72,127
86253,note_off,120,0,0,,0,,,72,127
86254,note_on,1,0,0,,12,,,71,127
86374,note_off,120,0,0,,12,,,71,127
86375,note_on,1,0,0,,10,,,69,127
86495,note_off,120,0,0,,10,,,69,127
86496,note_on,1,0,0,,8,,,68,127
86616,note_off,120,0,0,,8,,,68,127
86616,note_off,0,0,0,,12,,,59,127
86616,note_off,0,0,0,,2,,,62,127
86616,note_off,0,0,0,,4,,,52,127
86617,note_on,1,0,0,,10,,,69,127
86617,note_on,0,0,0,,4,,,52,127
86617,note_on,0,0,0,,0,,,60,127
86617,note_on,0,0,0,,10,,,57,127
86738,note_on,121,0,0,,0,,,72,127
86857,note_off,119,0,0,,10,,,69,127
86858,note_off,1,0,0,,0,,,72,127
86859,note_on,1,0,0,,12,,,71,127
86979,note_off,120,0,0,,12,,,71,127
86980,note_on,1,0,0,,10,,,69,127
87100,note_off,120,0,0,,10,,,69,127
87101,note_on,1,0,0,,8,,,68,127
87221,note_off,120,0,0,,8,,,68,127
87222,note_on,1,0,0,,6,,,66,127
87342,note_off,120,0,0,,6,,,66,127
87342,note_off,0,0,0,,10,,,57,127
87342,note_off,0,0,0,,0,,,60,127
87342,note_off,0,0,0,,4,,,52,127
87343,note_on,1,0,0,,4,,,52,127
87343,note_on,0,0,0,,6,,,66,127
87584,note_off,241,0,0,,6,,,66,127
87585,note_on,1,0,0,,8,,,68,127
87806,note_off,221,0,0,,8,,,68,127
87827,note_on,21,0,0,,12,,,71,127
87827,note_on,0,0,0,,2,,,74,127
88068,note_off,241,0,0,,2,,,74,127
88068,note_off,0,0,0,,12,,,71,127
88069,note_on,1,0,0,,10,,,69,127
88069,note_on,0,0,0,,2,,,74,127
88130,note_on,61,0,0,,0,,,72,127
88149,note_off,19,0,0,,2,,,74,127
88191,note_on,42,0,0,,2,,,74,127
88210,note_off,19,0,0,,0,,,72,127
88252,note_on,42,0,0,,0,,,72,127
88271,note_off,19,0,0,,2,,,74,127
88311,note_off,40,0,0,,10,,,69,127
88311,note_off,0,0,0,,4,,,52,127
88312,note_on,1,0,0,,4,,,64,127
88312,note_on,0,0,0,,2,,,74,127
88312,note_on,0,0,0,,4,,,52,127
88331,note_off,19,0,0,,0,,,72,127
88373,note_on,42,0,0,,0,,,72,127
88392,note_off,19,0,0,,2,,,74,127
88434,note_on,42,0,0,,2,,,74,127
88453,note_off,19,0,0,,0,,,72,127
88495,note_on,42,0,0,,0,,,72,127
88514,note_off,19,0,0,,2,,,74,127
88554,note_off,40,0,0,,0,,,72,127
88554,note_off,0,0,0,,4,,,52,127
88554,note_off,0,0,0,,4,,,64,127
88555,note_on,1,0,0,,5,,,65,127
88555,note_on,0,0,0,,12,,,71,127
88555,note_on,0,0,0,,2,,,62,127
88744,note_off,189,0,0,,12,,,71,127
88796,note_off,52,0,0,,2,,,62,127
88796,note_off,0,0,0,,5,,,65,127
88797,note_on,1,0,0,,2,,,62,127
88797,note_on,0,0,0,,10,,,69,127
88858,note_on,61,0,0,,0,,,60,127
88877,note_off,19,0,0,,2,,,62,127
88919,note_on,42,0,0,,2,,,62,127
88938,note_off,19,0,0,,0,,,60,127
88980,note_on,42,0,0,,0,,,60,127
88999,note_off,19,0,0,,2,,,62,127
89039,note_off,40,0,0,,10,,,69,127
89040,note_on,1,0,0,,4,,,64,127
89040,note_on,0,0,0,,2,,,62,127
89059,note_off,19,0,0,,0,,,60,127
89101,note_on,42,0,0,,0,,,60,127
89120,note_off,19,0,0,,2,,,62,127
89162,note_on,42,0,0,,2,,,62,127
89181,note_off,19,0,0,,0,,,60,127
89223,note_on,42,0,0,,0,,,60,127
89242,note_off,19,0,0,,2,,,62,127
89282,note_off,40,0,0,,0,,,60,127
89282,note_off,0,0,0,,4,,,64,127
89283,note_on,1,0,0,,8,,,68,127
89283,note_on,0,0,0,,2,,,74,127
89283,note_on,0,0,0,,12,,,71,127
89283,note_on,0,0,0,,12,,,59,127
89524,note_off,241,0,0,,12,,,59,127
89524,note_off,0,0,0,,12,,,71,127
89524,note_off,0,0,0,,2,,,74,127
89524,note_off,0,0,0,,8,,,68,127
89525,note_on,1,0,0,,2,,,74,127
89525,note_on,0,0,0,,10,,,69,127
89525,note_on,0,0,0,,10,,,57,127
89586,note_on,61,0,0,,0,,,72,127
89605,note_off,19,0,0,,2,,,74,127
89647,note_on,42,0,0,,2,,,74,127
89666,note_off,19,0,0,,0,,,72,127
89708,note_on,42,0,0,,0,,,72,127
89727,note_off,19,0,0,,2,,,74,127
89767,note_off,40,0,0,,10,,,57,127
89768,note_on,1,0,0,,2,,,74,127
89768,note_on,0,0,0,,4,,,52,127
89787,note_off,19,0,0,,0,,,72,127
89829,note_on,42,0,0,,0,,,72,127
89848,note_off,19,0,0,,2,,,74,127
89890,note_on,42,0,0,,2,,,74,127
89909,note_off,19,0,0,,0,,,72,127
89951,note_on,42,0,0,,0,,,72,127
89970,note_off,19,0,0,,2,,,74,127
90010,note_off,40,0,0,,0,,,72,127
90010,note_off,0,0,0,,4,,,52,127
90010,note_off,0,0,0,,10,,,69,127
90011,note_on,1,0,0,,2,,,62,127
90011,note_on,0,0,0,,8,,,68,127
90011,note_on,0,0,0,,12,,,71,127
90200,note_off,189,0,0,,12,,,71,127
90252,note_off,52,0,0,,8,,,68,127
90252,note_off,0,0,0,,2,,,62,127
90253,note_on,1,0,0,,2,,,62,127
90253,note_on,0,0,0,,10,,,69,127
90314,note_on,61,0,0,,0,,,60,127
90333,note_off,19,0,0,,2,,,62,127
90375,note_on,42,0,0,,2,,,62,127
90394,note_off,19,0,0,,0,,,60,127
90436,note_on,42,0,0,,0,,,60,127
90455,note_off,19,0,0,,2,,,62,127
90495,note_off,40,0,0,,10,,,69,127
90496,note_on,1,0,0,,2,,,62,127
90496,note_on,0,0,0,,4,,,64,127
90515,note_off,19,0,0,,0,,,60,127
90557,note_on,42,0,0,,0,,,60,127
90576,note_off,19,0,0,,2,,,62,127
90618,note_on,42,0,0,,2,,,62,127
90637,note_off,19,0,0,,0,,,60,127
90679,note_on,42,0,0,,0,,,60,127
90698,note_off,19,0,0,,2,,,62,127
90712,note_off,14,0,0,,4,,,64,127
90739,note_off,27,0,0,,0,,,60,127
90740,note_on,1,0,0,,12,,,59,127
90740,note_on,0,0,0,,8,,,68,127
90740,note_on,0,0,0,,5,,,77,127
90981,note_off,241,0,0,,5,,,77,127
90981,note_off,0,0,0,,8,,,68,127
90981,note_off,0,0,0,,12,,,59,127
90982,note_on,1,0,0,,5,,,77,127
90982,note_on,0,0,0,,10,,,69,127
90982,note_on,0,0,0,,0,,,60,127
91043,note_on,61,0,0,,4,,,76,127
91062,note_off,19,0,0,,5,,,77,127
91104,note_on,42,0,0,,5,,,77,127
91123,note_off,19,0,0,,4,,,76,127
91165,note_on,42,0,0,,4,,,76,127
91184,note_off,19,0,0,,5,,,77,127
91224,note_off,40,0,0,,0,,,60,127
91225,note_on,1,0,0,,5,,,77,127
91225,note_on,0,0,0,,4,,,52,127
91244,note_off,19,0,0,,4,,,76,127
91286,note_on,42,0,0,,4,,,76,127
91305,note_off,19,0,0,,5,,,77,127
91347,note_on,42,0,0,,5,,,77,127
91366,note_off,19,0,0,,4,,,76,127
91408,note_on,42,0,0,,4,,,76,127
91427,note_off,19,0,0,,5,,,77,127
91467,note_off,40,0,0,,4,,,76,127
91467,note_off,0,0,0,,4,,,52,127
91467,note_off,0,0,0,,10,,,69,127
91468,note_on,1,0,0,,2,,,74,127
91468,note_on,0,0,0,,8,,,68,127
91468,note_on,0,0,0,,12,,,59,127
91683,note_off,215,0,0,,2,,,74,127
91710,note_off,27,0,0,,12,,,59,127
91710,note_off,0,0,0,,8,,,68,127
91711,note_on,1,0,0,,0,,,72,127
91711,note_on,0,0,0,,10,,,57,127
91831,note_off,120,0,0,,0,,,72,127
91832,note_on,1,0,0,,12,,,71,127
91952,note_off,120,0,0,,12,,,71,127
91952,note_off,0,0,0,,10,,,57,127
91953,note_on,1,0,0,,10,,,69,127
91953,note_on,0,0,0,,5,,,53,127
92194,note_off,241,0,0,,5,,,53,127
92195,note_on,1,0,0,,10,,,81,127
92195,note_on,0,0,0,,0,,,48,127
92432,note_off,237,0,0,,10,,,69,127
92436,note_off,4,0,0,,0,,,48,127
92436,note_off,0,0,0,,10,,,81,127
92437,note_on,1,0,0,,10,,,69,127
92437,note_on,0,0,0,,2,,,50,127
92557,note_off,120,0,0,,10,,,69,127
92558,note_on,1,0,0,,12,,,71,127
92678,note_off,120,0,0,,12,,,71,127
92678,note_off,0,0,0,,2,,,50,127
92679,note_on,1,0,0,,0,,,72,127
92679,note_on,0,0,0,,4,,,52,127
92740,note_on,61,0,0,,12,,,71,127
92759,note_off,19,0,0,,0,,,72,127
92801,note_on,42,0,0,,0,,,72,127
92820,note_off,19,0,0,,12,,,71,127
92862,note_on,42,0,0,,12,,,71,127
92881,note_off,19,0,0,,0,,,72,127
92923,note_on,42,0,0,,4,,,40,127
92923,note_on,0,0,0,,0,,,72,127
92942,note_off,19,0,0,,12,,,71,127
92984,note_on,42,0,0,,12,,,71,127
93003,note_off,19,0,0,,0,,,72,127
93045,note_on,42,0,0,,10,,,69,127
93064,note_off,19,0,0,,12,,,71,127
93161,note_off,97,0,0,,4,,,52,127
93165,note_off,4,0,0,,10,,,69,127
93165,note_off,0,0,0,,4,,,40,127
93166,note_on,1,0,0,,10,,,45,127
93166,note_on,0,0,0,,10,,,57,127
93409,note_on,243,0,0,,10,,,81,127
93409,note_on,0,0,0,,0,,,72,127
93650,note_off,241,0,0,,0,,,72,127
93650,note_off,0,0,0,,10,,,81,127
93651,note_on,1,0,0,,10,,,69,127
93651,note_on,0,0,0,,5,,,77,127
93798,note_off,147,0,0,,10,,,57,127
93798,note_off,0,0,0,,10,,,45,127
93893,note_off,95,0,0,,5,,,77,127
93893,note_off,0,0,0,,10,,,69,127
93894,note_on,1,0,0,,5,,,65,127
93894,note_on,0,0,0,,2,,,74,127
93894,note_on,0,0,0,,2,,,38,127
93894,note_on,0,0,0,,2,,,50,127
94135,note_off,241,0,0,,2,,,74,127
94135,note_off,0,0,0,,5,,,65,127
94136,note_on,1,0,0,,2,,,62,127
94136,note_on,0,0,0,,12,,,71,127
94377,note_off,241,0,0,,12,,,71,127
94377,note_off,0,0,0,,2,,,62,127
94377,note_off,0,0,0,,2,,,50,127
94377,note_off,0,0,0,,2,,,38,127
94378,note_on,1,0,0,,12,,,59,127
94378,note_on,0,0,0,,8,,,68,127
94378,note_on,0,0,0,,4,,,52,127
94378,note_on,0,0,0,,4,,,40,127
94619,note_off,241,0,0,,4,,,40,127
94619,note_off,0,0,0,,4,,,52,127
94619,note_off,0,0,0,,8,,,68,127
94619,note_off,0,0,0,,12,,,59,127
94620,note_on,1,0,0,,2,,,50,127
94681,note_on,61,0,0,,0,,,48,127
94700,note_off,19,0,0,,2,,,50,127
94742,note_on,42,0,0,,2,,,50,127
94761,note_off,19,0,0,,0,,,48,127
94803,note_on,42,0,0,,0,,,48,127
94822,note_off,19,0,0,,2,,,50,127
94864,note_on,42,0,0,,10,,,81,127
94864,note_on,0,0,0,,0,,,72,127
94864,note_on,0,0,0,,12,,,47,127
94883,note_off,19,0,0,,0,,,48,127
95105,note_off,222,0,0,,12,,,47,127
95105,note_off,0,0,0,,0,,,72,127
95105,note_off,0,0,0,,10,,,81,127
95106,note_on,1,0,0,,10,,,45,127
95106,note_on,0,0,0,,10,,,69,127
95106,note_on,0,0,0,,5,,,77,127
95347,note_off,241,0,0,,5,,,77,127
95347,note_off,0,0,0,,10,,,69,127
95347,note_off,0,0,0,,10,,,45,127
95348,note_on,1,0,0,,2,,,38,127
95348,note_on,0,0,0,,2,,,50,127
95348,note_on,0,0,0,,2,,,74,127
95348,note_on,0,0,0,,5,,,65,127
95589,note_off,241,0,0,,5,,,65,127
95589,note_off,0,0,0,,2,,,74,127
95590,note_on,1,0,0,,12,,,71,127
95590,note_on,0,0,0,,2,,,62,127
95831,note_off,241,0,0,,2,,,62,127
95831,note_off,0,0,0,,12,,,71,127
95831,note_off,0,0,0,,2,,,50,127
95831,note_off,0,0,0,,2,,,38,127
95832,note_on,1,0,0,,4,,,52,127
95832,note_on,0,0,0,,4,,,40,127
95832,note_on,0,0,0,,8,,,68,127
95832,note_on,0,0,0,,12,,,59,127
96073,note_off,241,0,0,,12,,,59,127
96073,note_off,0,0,0,,8,,,68,127
96073,note_off,0,0,0,,4,,,40,127
96073,note_off,0,0,0,,4,,,52,127
96074,note_on,1,0,0,,2,,,50,127
96135,note_on,61,0,0,,0,,,48,127
96154,note_off,19,0,0,,2,,,50,127
96196,note_on,42,0,0,,2,,,50,127
96215,note_off,19,0,0,,0,,,48,127
96257,note_on,42,0,0,,0,,,48,127
96276,note_off,19,0,0,,2,,,50,127
96318,note_on,42,0,0,,12,,,47,127
96318,note_on,0,0,0,,10,,,81,127
96318,note_on,0,0,0,,0,,,72,127
96337,note_off,19,0,0,,0,,,48,127
96559,note_off,222,0,0,,0,,,72,127
96559,note_off,0,0,0,,10,,,81,127
96559,note_off,0,0,0,,12,,,47,127
96560,note_on,1,0,0,,5,,,77,127
96560,note_on,0,0,0,,10,,,69,127
96560,note_on,0,0,0,,10,,,45,127
96801,note_off,241,0,0,,10,,,45,127
96801,note_off,0,0,0,,10,,,69,127
96801,note_off,0,0,0,,5,,,77,127
96802,note_on,1,0,0,,5,,,65,127
96802,note_on,0,0,0,,2,,,74,127
96802,note_on,0,0,0,,2,,,38,127
96802,note_on,0,0,0,,2,,,50,127
97043,note_off,241,0,0,,2,,,74,127
97043,note_off,0,0,0,,5,,,65,127
97044,note_on,1,0,0,,12,,,71,127
97044,note_on,0,0,0,,2,,,62,127
97285,note_off,241,0,0,,2,,,62,127
97285,note_off,0,0,0,,12,,,71,127
97285,note_off,0,0,0,,2,,,50,127
97285,note_off,0,0,0,,2,,,38,127
97286,note_on,1,0,0,,8,,,68,127
97286,note_on,0,0,0,,4,,,52,127
97286,note_on,0,0,0,,4,,,40,127
97286,note_on,0,0,0,,12,,,59,127
97527,note_off,241,0,0,,12,,,59,127
97527,note_off,0,0,0,,4,,,40,127
97527,note_off,0,0,0,,4,,,52,127
97527,note_off,0,0,0,,8,,,68,127
97528,note_on,1,0,0,,10,,,69,127
97528,note_on,0,0,0,,0,,,60,127
97528,note_on,0,0,0,,2,,,50,127
97589,note_on,61,0,0,,0,,,48,127
97608,note_off,19,0,0,,2,,,50,127
97648,note_off,40,0,0,,10,,,69,127
97649,note_on,1,0,0,,2,,,50,127
97649,note_on,0,0,0,,12,,,71,127
97668,note_off,19,0,0,,0,,,48,127
97710,note_on,42,0,0,,0,,,48,127
97729,note_off,19,0,0,,2,,,50,127
97769,note_off,40,0,0,,12,,,71,127
97769,note_off,0,0,0,,0,,,60,127
97770,note_on,1,0,0,,0,,,72,127
97770,note_on,0,0,0,,12,,,47,127
97789,note_off,19,0,0,,0,,,48,127
97890,note_off,101,0,0,,0,,,72,127
97891,note_on,1,0,0,,2,,,74,127
98011,note_off,120,0,0,,2,,,74,127
98011,note_off,0,0,0,,12,,,47,127
98012,note_on,1,0,0,,4,,,76,127
98012,note_on,0,0,0,,10,,,45,127
98093,note_on,81,0,0,,2,,,74,127
98126,note_off,33,0,0,,4,,,76,127
98173,note_off,47,0,0,,2,,,74,127
98174,note_on,1,0,0,,0,,,72,127
98254,note_off,80,0,0,,0,,,72,127
98254,note_off,0,0,0,,10,,,45,127
98255,note_on,1,0,0,,2,,,74,127
98255,note_on,0,0,0,,2,,,50,127
98336,note_on,81,0,0,,0,,,72,127
98369,note_off,33,0,0,,2,,,74,127
98416,note_off,47,0,0,,0,,,72,127
98417,note_on,1,0,0,,12,,,71,127
98497,note_off,80,0,0,,12,,,71,127
98497,note_off,0,0,0,,2,,,50,127
98498,note_on,1,0,0,,0,,,72,127
98498,note_on,0,0,0,,4,,,52,127
98579,note_on,81,0,0,,12,,,71,127
98612,note_off,33,0,0,,0,,,72,127
98659,note_off,47,0,0,,12,,,71,127
98660,note_on,1,0,0,,10,,,69,127
98740,note_off,80,0,0,,10,,,69,127
98741,note_on,1,0,0,,12,,,71,127
98741,note_on,0,0,0,,4,,,40,127
98822,note_on,81,0,0,,10,,,69,127
98855,note_off,33,0,0,,12,,,71,127
98863,note_off,8,0,0,,4,,,52,127
98902,note_off,39,0,0,,10,,,69,127
98903,note_on,1,0,0,,8,,,68,127
98983,note_off,80,0,0,,8,,,68,127
98983,note_off,0,0,0,,4,,,40,127
98984,note_on,1,0,0,,10,,,69,127
98984,note_on,0,0,0,,10,,,33,127
99105,note_on,121,0,0,,4,,,76,127
99166,note_off,61,0,0,,10,,,69,127
99225,note_off,59,0,0,,4,,,76,127
99226,note_on,1,0,0,,10,,,45,127
99226,note_on,0,0,0,,0,,,72,127
99346,note_off,120,0,0,,0,,,72,127
99346,note_off,0,0,0,,10,,,33,127
99347,note_on,1,0,0,,10,,,69,127
99467,note_off,120,0,0,,10,,,69,127
99468,note_on,1,0,0,,10,,,57,127
99468,note_on,0,0,0,,4,,,76,127
99588,note_off,120,0,0,,10,,,45,127
99589,note_on,1,0,0,,0,,,72,127
99619,note_off,30,0,0,,4,,,76,127
99709,note_off,90,0,0,,0,,,72,127
99709,note_off,0,0,0,,10,,,57,127
99710,note_on,1,0,0,,5,,,77,127
99710,note_on,0,0,0,,10,,,33,127
99831,note_on,121,0,0,,2,,,74,127
99892,note_off,61,0,0,,5,,,77,127
99951,note_off,59,0,0,,2,,,74,127
99952,note_on,1,0,0,,10,,,69,127
99952,note_on,0,0,0,,10,,,45,127
100072,note_off,120,0,0,,10,,,69,127
100072,note_off,0,0,0,,10,,,33,127
100073,note_on,1,0,0,,2,,,74,127
100193,note_off,120,0,0,,2,,,74,127
100194,note_on,1,0,0,,8,,,80,127
100194,note_on,0,0,0,,10,,,57,127
100314,note_off,120,0,0,,10,,,45,127
100315,note_on,1,0,0,,4,,,76,127
100345,note_off,30,0,0,,8,,,80,127
100435,note_off,90,0,0,,4,,,76,127
100435,note_off,0,0,0,,10,,,57,127
100436,note_on,1,0,0,,10,,,81,127
100436,note_on,0,0,0,,10,,,33,127
100557,note_on,121,0,0,,4,,,76,127
100618,note_off,61,0,0,,10,,,81,127
100677,note_off,59,0,0,,4,,,76,127
100678,note_on,1,0,0,,0,,,72,127
100678,note_on,0,0,0,,10,,,45,127
100798,note_off,120,0,0,,0,,,72,127
100798,note_off,0,0,0,,10,,,33,127
100799,note_on,1,0,0,,10,,,69,127
100919,note_off,120,0,0,,10,,,69,127
100920,note_on,1,0,0,,4,,,76,127
100920,note_on,0,0,0,,10,,,57,127
101040,note_off,120,0,0,,10,,,45,127
101041,note_on,1,0,0,,0,,,72,127
101071,note_off,30,0,0,,4,,,76,127
101161,note_off,90,0,0,,0,,,72,127
101161,note_off,0,0,0,,10,,,57,127
101162,note_on,1,0,0,,5,,,77,127
101162,note_on,0,0,0,,10,,,33,127
101283,note_on,121,0,0,,2,,,74,127
101344,note_off,61,0,0,,5,,,77,127
101403,note_off,59,0,0,,2,,,74,127
101404,note_on,1,0,0,,10,,,45,127
101404,note_on,0,0,0,,10,,,69,127
101524,note_off,120,0,0,,10,,,69,127
101524,note_off,0,0,0,,10,,,33,127
101525,note_on,1,0,0,,2,,,74,127
101645,note_off,120,0,0,,2,,,74,127
101646,note_on,1,0,0,,8,,,80,127
101646,note_on,0,0,0,,10,,,57,127
101766,note_off,120,0,0,,10,,,45,127
101767,note_on,1,0,0,,4,,,76,127
101797,note_off,30,0,0,,8,,,80,127
101887,note_off,90,0,0,,4,,,76,127
101887,note_off,0,0,0,,10,,,57,127
101888,note_on,1,0,0,,10,,,81,127
101888,note_on,0,0,0,,10,,,33,127
102009,note_on,121,0,0,,4,,,76,127
102070,note_off,61,0,0,,10,,,81,127
102129,note_off,59,0,0,,4,,,76,127
102130,note_on,1,0,0,,0,,,72,127
102130,note_on,0,0,0,,10,,,45,127
102250,note_off,120,0,0,,0,,,72,127
102250,note_off,0,0,0,,10,,,33,127
102251,note_on,1,0,0,,10,,,69,127
102371,note_off,120,0,0,,10,,,69,127
102372,note_on,1,0,0,,4,,,76,127
102372,note_on,0,0,0,,10,,,57,127
102492,note_off,120,0,0,,10,,,45,127
102493,note_on,1,0,0,,0,,,72,127
102523,note_off,30,0,0,,4,,,76,127
102613,note_off,90,0,0,,0,,,72,127
102613,note_off,0,0,0,,10,,,57,127
102614,note_on,1,0,0,,5,,,77,127
102614,note_on,0,0,0,,10,,,33,127
102735,note_on,121,0,0,,2,,,74,127
102796,note_off,61,0,0,,5,,,77,127
102855,note_off,59,0,0,,2,,,74,127
102856,note_on,1,0,0,,10,,,69,127
102856,note_on,0,0,0,,10,,,45,127
102976,note_off,120,0,0,,10,,,69,127
102976,note_off,0,0,0,,10,,,33,127
102977,note_on,1,0,0,,2,,,74,127
103097,note_off,120,0,0,,2,,,74,127
103098,note_on,1,0,0,,8,,,80,127
103098,note_on,0,0,0,,10,,,57,127
103218,note_off,120,0,0,,8,,,80,127
103218,note_off,0,0,0,,10,,,45,127
103219,note_on,1,0,0,,4,,,76,127
103339,note_off,120,0,0,,4,,,76,127
103339,note_off,0,0,0,,10,,,57,127
103340,note_on,1,0,0,,10,,,81,127
103340,note_on,0,0,0,,10,,,45,127
103460,note_off,120,0,0,,10,,,81,127
103461,note_on,1,0,0,,7,,,79,127
103581,note_off,120,0,0,,7,,,79,127
103581,note_off,0,0,0,,10,,,45,127
103582,note_on,1,0,0,,5,,,77,127
103582,note_on,0,0,0,,12,,,47,127
103702,note_off,120,0,0,,5,,,77,127
103703,note_on,1,0,0,,4,,,76,127
103823,note_off,120,0,0,,4,,,76,127
103823,note_off,0,0,0,,12,,,47,127
103824,note_on,1,0,0,,2,,,74,127
103824,note_on,0,0,0,,0,,,48,127
103944,note_off,120,0,0,,2,,,74,127
103945,note_on,1,0,0,,0,,,72,127
104065,note_off,120,0,0,,0,,,72,127
104065,note_off,0,0,0,,0,,,48,127
104066,note_on,1,0,0,,12,,,71,127
104066,note_on,0,0,0,,2,,,50,127
104146,note_off,80,0,0,,12,,,71,127
104147,note_on,1,0,0,,0,,,72,127
104227,note_off,80,0,0,,0,,,72,127
104228,note_on,1,0,0,,2,,,74,127
104308,note_off,80,0,0,,2,,,74,127
104308,note_off,0,0,0,,2,,,50,127
104309,note_on,1,0,0,,0,,,72,127
104309,note_on,0,0,0,,4,,,52,127
104429,note_off,120,0,0,,0,,,72,127
104430,note_on,1,0,0,,12,,,71,127
104550,note_off,120,0,0,,12,,,71,127
104551,note_on,1,0,0,,4,,,40,127
104551,note_on,0,0,0,,10,,,69,127
104671,note_off,120,0,0,,10,,,69,127
104672,note_off,1,0,0,,4,,,52,127
104672,note_on,0,0,0,,8,,,68,127
104792,note_off,120,0,0,,8,,,68,127
104792,note_off,0,0,0,,4,,,40,127
104793,note_on,1,0,0,,10,,,33,127
104914,note_on,121,0,0,,4,,,76,127
105034,note_off,120,0,0,,4,,,76,127
105035,note_on,1,0,0,,0,,,72,127
105035,note_on,0,0,0,,10,,,45,127
105155,note_off,120,0,0,,0,,,72,127
105155,note_off,0,0,0,,10,,,33,127
105156,note_on,1,0,0,,10,,,69,127
105276,note_off,120,0,0,,10,,,69,127
105277,note_on,1,0,0,,4,,,76,127
105277,note_on,0,0,0,,10,,,57,127
105397,note_off,120,0,0,,10,,,45,127
105398,note_on,1,0,0,,0,,,72,127
105428,note_off,30,0,0,,4,,,76,127
105518,note_off,90,0,0,,0,,,72,127
105518,note_off,0,0,0,,10,,,57,127
105519,note_on,1,0,0,,5,,,77,127
105519,note_on,0,0,0,,10,,,33,127
105640,note_on,121,0,0,,2,,,74,127
105760,note_off,120,0,0,,2,,,74,127
105761,note_on,1,0,0,,10,,,69,127
105761,note_on,0,0,0,,10,,,45,127
105796,note_off,35,0,0,,5,,,77,127
105881,note_off,85,0,0,,10,,,69,127
105881,note_off,0,0,0,,10,,,33,127
105882,note_on,1,0,0,,2,,,74,127
106002,note_off,120,0,0,,2,,,74,127
106003,note_on,1,0,0,,8,,,80,127
106003,note_on,0,0,0,,10,,,57,127
106123,note_off,120,0,0,,10,,,45,127
106124,note_on,1,0,0,,4,,,76,127
106154,note_off,30,0,0,,8,,,80,127
106244,note_off,90,0,0,,4,,,76,127
106244,note_off,0,0,0,,10,,,57,127
106245,note_on,1,0,0,,10,,,81,127
106245,note_on,0,0,0,,10,,,33,127
106366,note_on,121,0,0,,4,,,76,127
106486,note_off,120,0,0,,4,,,76,127
106487,note_on,1,0,0,,0,,,72,127
106487,note_on,0,0,0,,10,,,45,127
106522,note_off,35,0,0,,10,,,81,127
106607,note_off,85,0,0,,0,,,72,127
106607,note_off,0,0,0,,10,,,33,127
106608,note_on,1,0,0,,10,,,69,127
106728,note_off,120,0,0,,10,,,69,127
106729,note_on,1,0,0,,4,,,76,127
106729,note_on,0,0,0,,10,,,57,127
106849,note_off,120,0,0,,10,,,45,127
106850,note_on,1,0,0,,0,,,72,127
106880,note_off,30,0,0,,4,,,76,127
106970,note_off,90,0,0,,0,,,72,127
106970,note_off,0,0,0,,10,,,57,127
106971,note_on,1,0,0,,5,,,77,127
106971,note_on,0,0,0,,10,,,33,127
107092,note_on,121,0,0,,2,,,74,127
107212,note_off,120,0,0,,2,,,74,127
107213,note_on,1,0,0,,10,,,69,127
107213,note_on,0,0,0,,10,,,45,127
107248,note_off,35,0,0,,5,,,77,127
107333,note_off,85,0,0,,10,,,69,127
107333,note_off,0,0,0,,10,,,33,127
107334,note_on,1,0,0,,2,,,74,127
107454,note_off,120,0,0,,2,,,74,127
107455,note_on,1,0,0,,8,,,80,127
107455,note_on,0,0,0,,10,,,57,127
107575,note_off,120,0,0,,10,,,45,127
107576,note_on,1,0,0,,4,,,76,127
107606,note_off,30,0,0,,8,,,80,127
107696,note_off,90,0,0,,4,,,76,127
107696,note_off,0,0,0,,10,,,57,127
107697,note_on,1,0,0,,10,,,81,127
107697,note_on,0,0,0,,10,,,33,127
107818,note_on,121,0,0,,4,,,76,127
107938,note_off,120,0,0,,4,,,76,127
107939,note_on,1,0,0,,0,,,72,127
107939,note_on,0,0,0,,10,,,45,127
108000,note_off,61,0,0,,10,,,81,127
108059,note_off,59,0,0,,0,,,72,127
108059,note_off,0,0,0,,10,,,33,127
108060,note_on,1,0,0,,10,,,69,127
108180,note_off,120,0,0,,10,,,69,127
108181,note_on,1,0,0,,4,,,76,127
108181,note_on,0,0,0,,10,,,57,127
108301,note_off,120,0,0,,10,,,45,127
108302,note_on,1,0,0,,0,,,72,127
108332,note_off,30,0,0,,4,,,76,127
108422,note_off,90,0,0,,0,,,72,127
108422,note_off,0,0,0,,10,,,57,127
108423,note_on,1,0,0,,5,,,77,127
108423,note_on,0,0,0,,10,,,33,127
108544,note_on,121,0,0,,2,,,74,127
108664,note_off,120,0,0,,2,,,74,127
108665,note_on,1,0,0,,10,,,69,127
108665,note_on,0,0,0,,10,,,45,127
108776,note_off,111,0,0,,5,,,77,127
108785,note_off,9,0,0,,10,,,69,127
108785,note_off,0,0,0,,10,,,33,127
108786,note_on,1,0,0,,2,,,74,127
108906,note_off,120,0,0,,2,,,74,127
108907,note_on,1,0,0,,8,,,80,127
108907,note_on,0,0,0,,12,,,83,127
108907,note_on,0,0,0,,10,,,57,127
109027,note_off,120,0,0,,12,,,83,127
109027,note_off,0,0,0,,8,,,80,127
109027,note_off,0,0,0,,10,,,45,127
109028,note_on,1,0,0,,4,,,76,127
109087,note_off,59,0,0,,10,,,57,127
109140,note_off,53,0,0,,4,,,76,127
109149,note_on,9,0,0,,10,,,45,127
109149,note_on,0,0,0,,10,,,81,127
109149,note_on,0,0,0,,0,,,84,127
109149,note_on,0,0,0,,10,,,33,127
109269,note_off,120,0,0,,0,,,84,127
109270,note_on,1,0,0,,12,,,83,127
109331,note_off,61,0,0,,10,,,81,127
109390,note_off,59,0,0,,12,,,83,127
109390,note_off,0,0,0,,10,,,33,127
109390,note_off,0,0,0,,10,,,45,127
109391,note_on,1,0,0,,12,,,47,127
109391,note_on,0,0,0,,10,,,81,127
109391,note_on,0,0,0,,12,,,35,127
109511,note_off,120,0,0,,10,,,81,127
109512,note_on,1,0,0,,7,,,79,127
109632,note_off,120,0,0,,7,,,79,127
109632,note_off,0,0,0,,12,,,35,127
109632,note_off,0,0,0,,12,,,47,127
109633,note_on,1,0,0,,5,,,77,127
109633,note_on,0,0,0,,0,,,48,127
109633,note_on,0,0,0,,0,,,36,127
109753,note_off,120,0,0,,5,,,77,127
109754,note_on,1,0,0,,4,,,76,127
109874,note_off,120,0,0,,4,,,76,127
109874,note_off,0,0,0,,0,,,36,127
109874,note_off,0,0,0,,0,,,48,127
109875,note_on,1,0,0,,2,,,50,127
109875,note_on,0,0,0,,2,,,38,127
109875,note_on,0,0,0,,2,,,74,127
109995,note_off,120,0,0,,2,,,74,127
109996,note_on,1,0,0,,0,,,72,127
110116,note_off,120,0,0,,0,,,72,127
110116,note_off,0,0,0,,2,,,38,127
110116,note_off,0,0,0,,2,,,50,127
110117,note_on,1,0,0,,12,,,71,127
110117,note_on,0,0,0,,4,,,52,127
110117,note_on,0,0,0,,4,,,40,127
110237,note_off,120,0,0,,12,,,71,127
110238,note_on,1,0,0,,10,,,69,127
110358,note_off,120,0,0,,10,,,69,127
110358,note_off,0,0,0,,4,,,40,127
110358,note_off,0,0,0,,4,,,52,127
110359,note_on,1,0,0,,8,,,68,127
110359,note_on,0,0,0,,5,,,53,127
110359,note_on,0,0,0,,5,,,41,127
110479,note_off,120,0,0,,8,,,68,127
110480,note_on,1,0,0,,10,,,69,127
110600,note_off,120,0,0,,10,,,69,127
110600,note_off,0,0,0,,5,,,41,127
110600,note_off,0,0,0,,5,,,53,127
110601,note_on,1,0,0,,12,,,71,127
110601,note_on,0,0,0,,4,,,40,127
110601,note_on,0,0,0,,4,,,52,127
110722,note_on,121,0,0,,5,,,65,127
110842,note_off,120,0,0,,5,,,65,127
110842,note_off,0,0,0,,4,,,52,127
110842,note_off,0,0,0,,4,,,40,127
110843,note_on,1,0,0,,4,,,64,127
110843,note_on,0,0,0,,6,,,42,127
110843,note_on,0,0,0,,6,,,54,127
110954,note_off,111,0,0,,12,,,71,127
110963,note_off,9,0,0,,4,,,64,127
110964,note_on,1,0,0,,2,,,62,127
111084,note_off,120,0,0,,2,,,62,127
111084,note_off,0,0,0,,6,,,54,127
111084,note_off,0,0,0,,6,,,42,127
111085,note_on,1,0,0,,0,,,60,127
111085,note_on,0,0,0,,8,,,56,127
111085,note_on,0,0,0,,8,,,44,127
111205,note_off,120,0,0,,0,,,60,127
111206,note_on,1,0,0,,12,,,59,127
111306,note_off,100,0,0,,12,,,59,127
111326,note_off,20,0,0,,8,,,44,127
111326,note_off,0,0,0,,8,,,56,127
111337,note_on,11,0,0,,10,,,45,127
111337,note_on,0,0,0,,10,,,69,127
111337,note_on,0,0,0,,0,,,60,127
111337,note_on,0,0,0,,10,,,57,127
111518,note_off,181,0,0,,0,,,60,127
111518,note_off,0,0,0,,10,,,69,127
111579,note_off,61,0,0,,10,,,57,127
111579,note_off,0,0,0,,10,,,45,127
111600,note_on,21,0,0,,2,,,50,127
111600,note_on,0,0,0,,2,,,38,127
111600,note_on,0,0,0,,2,,,62,127
111600,note_on,0,0,0,,12,,,71,127
111781,note_off,181,0,0,,12,,,71,127
111781,note_off,0,0,0,,2,,,62,127
111842,note_off,61,0,0,,2,,,38,127
111842,note_off,0,0,0,,2,,,50,127
111863,note_on,21,0,0,,12,,,59,127
111863,note_on,0,0,0,,4,,,52,127
111863,note_on,0,0,0,,8,,,68,127
111863,note_on,0,0,0,,4,,,40,127
112044,note_off,181,0,0,,8,,,68,127
112044,note_off,0,0,0,,12,,,59,127
112105,note_off,61,0,0,,4,,,40,127
112105,note_off,0,0,0,,4,,,52,127
112126,note_on,21,0,0,,8,,,68,127
112126,note_on,0,0,0,,10,,,57,127
112126,note_on,0,0,0,,10,,,45,127
112528,note_off,402,0,0,,8,,,68,127
112533,note_on,5,0,0,,10,,,69,127
114084,note_off,1551,0,0,,10,,,45,127
114084,note_off,0,0,0,,10,,,57,127
114111,note_off,27,0,0,,10,,,69,127
118272,end_of_track,4161,1,0,,,,,,
