tick,type,time,meta,track,program,channel,pitch,tempo,note,velocity
0,copyright,0,1,0,,,,,,
0,program_change,0,0,0,6,0,,,,
0,pitchwheel,0,0,0,,0,0,,,
0,program_change,0,0,0,6,1,,,,
0,pitchwheel,0,0,0,,1,-590,,,
0,program_change,0,0,0,6,2,,,,
0,pitchwheel,0,0,0,,2,-272,,,
0,program_change,0,0,0,6,3,,,,
0,pitchwheel,0,0,0,,3,-353,,,
0,program_change,0,0,0,6,4,,,,
0,pitchwheel,0,0,0,,4,-560,,,
0,program_change,0,0,0,6,5,,,,
0,pitchwheel,0,0,0,,5,-80,,,
0,program_change,0,0,0,6,6,,,,
0,pitchwheel,0,0,0,,6,-625,,,
0,program_change,0,0,0,6,7,,,,
0,pitchwheel,0,0,0,,7,-130,,,
0,program_change,0,0,0,6,8,,,,
0,pitchwheel,0,0,0,,8,-512,,,
0,program_change,0,0,0,6,10,,,,
0,pitchwheel,0,0,0,,10,-464,,,
0,program_change,0,0,0,6,11,,,,
0,pitchwheel,0,0,0,,11,-208,,,
0,program_change,0,0,0,6,12,,,,
0,pitchwheel,0,0,0,,12,-553,,,
0,set_tempo,0,1,0,,,,500000,,
65,note_on,65,0,0,,2,,,62,127
65,note_on,0,0,0,,7,,,55,127
65,note_on,0,0,0,,7,,,79,127
414,note_on,349,0,0,,11,,,70,127
587,note_off,173,0,0,,11,,,70,127
587,note_off,0,0,0,,7,,,55,127
588,note_on,1,0,0,,10,,,69,127
588,note_on,0,0,0,,2,,,50,127
936,note_off,348,0,0,,7,,,79,127
937,note_on,1,0,0,,10,,,81,127
1110,note_off,173,0,0,,10,,,81,127
1110,note_off,0,0,0,,2,,,62,127
1111,note_on,1,0,0,,0,,,60,127
1111,note_on,0,0,0,,6,,,78,127
1459,note_off,348,0,0,,10,,,69,127
1460,note_on,1,0,0,,0,,,72,127
1633,note_off,173,0,0,,6,,,78,127
1633,note_off,0,0,0,,0,,,60,127
1633,note_off,0,0,0,,2,,,50,127
1634,note_on,1,0,0,,2,,,62,127
1634,note_on,0,0,0,,7,,,55,127
1634,note_on,0,0,0,,7,,,79,127
1759,note_off,125,0,0,,0,,,72,127
1983,note_on,224,0,0,,2,,,74,127
2156,note_off,173,0,0,,2,,,74,127
2157,note_on,1,0,0,,11,,,70,127
2479,note_off,322,0,0,,7,,,55,127
2499,note_off,20,0,0,,7,,,79,127
2504,note_off,5,0,0,,11,,,70,127
2505,note_on,1,0,0,,0,,,72,127
2505,note_on,0,0,0,,10,,,57,127
2678,note_off,173,0,0,,10,,,57,127
2678,note_off,0,0,0,,0,,,72,127
2679,note_on,1,0,0,,2,,,74,127
2679,note_on,0,0,0,,11,,,58,127
3027,note_off,348,0,0,,11,,,58,127
3027,note_off,0,0,0,,2,,,74,127
3028,note_on,1,0,0,,4,,,76,127
3028,note_on,0,0,0,,7,,,55,127
3201,note_off,173,0,0,,7,,,55,127
3201,note_off,0,0,0,,4,,,76,127
3201,note_off,0,0,0,,2,,,62,127
3202,note_on,1,0,0,,0,,,60,127
3202,note_on,0,0,0,,10,,,57,127
3202,note_on,0,0,0,,5,,,77,127
3551,note_on,349,0,0,,0,,,72,127
3724,note_off,173,0,0,,0,,,72,127
3724,note_off,0,0,0,,10,,,57,127
3724,note_off,0,0,0,,0,,,60,127
3725,note_on,1,0,0,,11,,,70,127
3725,note_on,0,0,0,,2,,,62,127
3725,note_on,0,0,0,,7,,,55,127
4073,note_off,348,0,0,,5,,,77,127
4074,note_on,1,0,0,,7,,,79,127
4247,note_off,173,0,0,,7,,,79,127
4247,note_off,0,0,0,,2,,,62,127
4248,note_on,1,0,0,,4,,,64,127
4248,note_on,0,0,0,,4,,,76,127
4596,note_off,348,0,0,,11,,,70,127
4597,note_on,1,0,0,,11,,,70,127
4770,note_off,173,0,0,,4,,,76,127
4770,note_off,0,0,0,,4,,,64,127
4770,note_off,0,0,0,,7,,,55,127
4771,note_on,1,0,0,,5,,,65,127
4771,note_on,0,0,0,,5,,,53,127
4771,note_on,0,0,0,,5,,,77,127
4951,note_off,180,0,0,,11,,,70,127
5120,note_on,169,0,0,,0,,,72,127
5293,note_off,173,0,0,,0,,,72,127
5293,note_off,0,0,0,,5,,,53,127
5294,note_on,1,0,0,,10,,,69,127
5294,note_on,0,0,0,,5,,,53,127
5636,note_off,342,0,0,,5,,,77,127
5641,note_off,5,0,0,,5,,,53,127
5641,note_off,0,0,0,,10,,,69,127
5642,note_on,1,0,0,,11,,,70,127
5642,note_on,0,0,0,,7,,,55,127
5815,note_off,173,0,0,,7,,,55,127
5815,note_off,0,0,0,,11,,,70,127
5816,note_on,1,0,0,,0,,,72,127
5816,note_on,0,0,0,,10,,,57,127
5996,note_off,180,0,0,,5,,,65,127
6164,note_off,168,0,0,,10,,,57,127
6164,note_off,0,0,0,,0,,,72,127
6165,note_on,1,0,0,,2,,,74,127
6165,note_on,0,0,0,,11,,,58,127
6338,note_off,173,0,0,,11,,,58,127
6338,note_off,0,0,0,,2,,,74,127
6339,note_on,1,0,0,,7,,,67,127
6339,note_on,0,0,0,,0,,,60,127
6339,note_on,0,0,0,,3,,,75,127
6687,note_off,348,0,0,,7,,,67,127
6688,note_on,1,0,0,,10,,,69,127
6861,note_off,173,0,0,,10,,,69,127
6861,note_off,0,0,0,,0,,,60,127
6862,note_on,1,0,0,,11,,,70,127
6862,note_on,0,0,0,,2,,,62,127
7210,note_off,348,0,0,,3,,,75,127
7211,note_on,1,0,0,,2,,,74,127
7380,note_off,169,0,0,,2,,,62,127
7384,note_off,4,0,0,,2,,,74,127
7384,note_off,0,0,0,,11,,,70,127
7385,note_on,1,0,0,,7,,,67,127
7385,note_on,0,0,0,,3,,,63,127
7385,note_on,0,0,0,,0,,,72,127
7733,note_off,348,0,0,,0,,,72,127
7734,note_on,1,0,0,,11,,,70,127
7907,note_off,173,0,0,,11,,,70,127
7907,note_off,0,0,0,,7,,,67,127
7908,note_on,1,0,0,,5,,,65,127
7908,note_on,0,0,0,,10,,,69,127
8256,note_off,348,0,0,,3,,,63,127
8257,note_on,1,0,0,,0,,,60,127
8430,note_off,173,0,0,,0,,,60,127
8430,note_off,0,0,0,,10,,,69,127
8431,note_on,1,0,0,,2,,,62,127
8431,note_on,0,0,0,,11,,,70,127
8779,note_off,348,0,0,,5,,,65,127
8780,note_on,1,0,0,,5,,,65,127
8953,note_off,173,0,0,,5,,,65,127
8953,note_off,0,0,0,,2,,,62,127
8954,note_on,1,0,0,,3,,,63,127
8954,note_on,0,0,0,,0,,,60,127
9129,note_off,175,0,0,,11,,,70,127
9304,note_on,175,0,0,,10,,,69,127
9477,note_off,173,0,0,,0,,,60,127
9477,note_off,0,0,0,,3,,,63,127
9478,note_on,1,0,0,,2,,,62,127
9478,note_on,0,0,0,,11,,,58,127
9826,note_off,348,0,0,,10,,,69,127
9827,note_on,1,0,0,,7,,,67,127
10000,note_off,173,0,0,,11,,,58,127
10000,note_off,0,0,0,,2,,,62,127
10001,note_on,1,0,0,,0,,,60,127
10001,note_on,0,0,0,,10,,,57,127
10349,note_off,348,0,0,,7,,,67,127
10350,note_on,1,0,0,,6,,,66,127
10523,note_off,173,0,0,,10,,,57,127
10523,note_off,0,0,0,,0,,,60,127
10524,note_on,1,0,0,,2,,,62,127
10524,note_on,0,0,0,,11,,,58,127
10524,note_on,0,0,0,,7,,,55,127
10872,note_off,348,0,0,,6,,,66,127
10873,note_on,1,0,0,,7,,,67,127
11046,note_off,173,0,0,,7,,,55,127
11046,note_off,0,0,0,,11,,,58,127
11046,note_off,0,0,0,,2,,,62,127
11047,note_on,1,0,0,,2,,,62,127
11047,note_on,0,0,0,,10,,,57,127
11047,note_on,0,0,0,,2,,,50,127
11395,note_off,348,0,0,,7,,,67,127
11396,note_on,1,0,0,,10,,,69,127
11569,note_off,173,0,0,,10,,,69,127
11569,note_off,0,0,0,,2,,,62,127
11570,note_on,1,0,0,,2,,,62,127
11919,note_on,349,0,0,,0,,,60,127
12091,note_off,172,0,0,,0,,,60,127
12092,note_off,1,0,0,,10,,,57,127
12093,note_on,1,0,0,,0,,,60,127
12096,note_off,3,0,0,,2,,,50,127
12266,note_off,170,0,0,,0,,,60,127
12267,note_off,1,0,0,,2,,,62,127
12267,note_on,0,0,0,,11,,,58,127
12440,note_off,173,0,0,,11,,,58,127
12441,note_on,1,0,0,,10,,,57,127
12614,note_off,173,0,0,,10,,,57,127
12615,note_on,1,0,0,,2,,,62,127
12615,note_on,0,0,0,,7,,,55,127
12615,note_on,0,0,0,,11,,,58,127
12615,note_on,0,0,0,,7,,,79,127
12964,note_on,349,0,0,,11,,,70,127
13137,note_off,173,0,0,,11,,,70,127
13137,note_off,0,0,0,,11,,,58,127
13137,note_off,0,0,0,,7,,,55,127
13138,note_on,1,0,0,,10,,,69,127
13138,note_on,0,0,0,,2,,,50,127
13138,note_on,0,0,0,,10,,,57,127
13486,note_off,348,0,0,,7,,,79,127
13487,note_on,1,0,0,,10,,,81,127
13660,note_off,173,0,0,,10,,,81,127
13660,note_off,0,0,0,,2,,,62,127
13661,note_on,1,0,0,,0,,,60,127
13661,note_on,0,0,0,,6,,,78,127
14009,note_off,348,0,0,,10,,,69,127
14010,note_on,1,0,0,,0,,,72,127
14183,note_off,173,0,0,,6,,,78,127
14183,note_off,0,0,0,,0,,,60,127
14183,note_off,0,0,0,,10,,,57,127
14183,note_off,0,0,0,,2,,,50,127
14184,note_off,1,0,0,,0,,,72,127
14184,note_on,0,0,0,,2,,,62,127
14184,note_on,0,0,0,,7,,,55,127
14184,note_on,0,0,0,,7,,,79,127
14533,note_on,349,0,0,,2,,,74,127
14706,note_off,173,0,0,,2,,,74,127
14706,note_off,0,0,0,,7,,,79,127
14707,note_on,1,0,0,,11,,,70,127
15055,note_off,348,0,0,,7,,,55,127
15056,note_on,1,0,0,,0,,,72,127
15056,note_on,0,0,0,,10,,,57,127
15229,note_off,173,0,0,,10,,,57,127
15229,note_off,0,0,0,,0,,,72,127
15230,note_on,1,0,0,,2,,,74,127
15230,note_on,0,0,0,,11,,,58,127
15490,note_off,260,0,0,,11,,,70,127
15577,note_off,87,0,0,,11,,,58,127
15577,note_off,0,0,0,,2,,,74,127
15578,note_on,1,0,0,,4,,,76,127
15578,note_on,0,0,0,,7,,,55,127
15751,note_off,173,0,0,,7,,,55,127
15751,note_off,0,0,0,,4,,,76,127
15751,note_off,0,0,0,,2,,,62,127
15752,note_on,1,0,0,,0,,,60,127
15752,note_on,0,0,0,,10,,,57,127
15752,note_on,0,0,0,,5,,,77,127
16101,note_on,349,0,0,,0,,,72,127
16274,note_off,173,0,0,,0,,,72,127
16274,note_off,0,0,0,,10,,,57,127
16274,note_off,0,0,0,,0,,,60,127
16275,note_on,1,0,0,,11,,,70,127
16275,note_on,0,0,0,,2,,,62,127
16275,note_on,0,0,0,,7,,,55,127
16623,note_off,348,0,0,,5,,,77,127
16624,note_on,1,0,0,,7,,,79,127
16797,note_off,173,0,0,,7,,,79,127
16797,note_off,0,0,0,,2,,,62,127
16798,note_on,1,0,0,,4,,,64,127
16798,note_on,0,0,0,,4,,,76,127
17146,note_off,348,0,0,,11,,,70,127
17147,note_on,1,0,0,,11,,,70,127
17320,note_off,173,0,0,,11,,,70,127
17320,note_off,0,0,0,,4,,,76,127
17320,note_off,0,0,0,,4,,,64,127
17320,note_off,0,0,0,,7,,,55,127
17321,note_on,1,0,0,,5,,,65,127
17321,note_on,0,0,0,,5,,,53,127
17321,note_on,0,0,0,,10,,,81,127
17670,note_on,349,0,0,,10,,,69,127
17843,note_off,173,0,0,,10,,,69,127
17844,note_on,1,0,0,,2,,,74,127
18192,note_off,348,0,0,,5,,,65,127
18193,note_on,1,0,0,,4,,,64,127
18193,note_on,0,0,0,,4,,,76,127
18366,note_off,173,0,0,,4,,,76,127
18366,note_off,0,0,0,,4,,,64,127
18367,note_on,1,0,0,,2,,,62,127
18367,note_on,0,0,0,,5,,,77,127
18397,note_off,30,0,0,,5,,,53,127
18715,note_off,318,0,0,,2,,,74,127
18716,note_on,1,0,0,,10,,,69,127
18889,note_off,173,0,0,,10,,,69,127
18889,note_off,0,0,0,,2,,,62,127
18890,note_on,1,0,0,,11,,,70,127
18890,note_on,0,0,0,,2,,,62,127
18890,note_on,0,0,0,,7,,,55,127
18891,note_off,1,0,0,,10,,,81,127
19064,note_off,173,0,0,,5,,,77,127
19239,note_on,175,0,0,,7,,,79,127
19412,note_off,173,0,0,,7,,,79,127
19413,note_on,1,0,0,,4,,,76,127
19761,note_off,348,0,0,,7,,,55,127
19761,note_off,0,0,0,,11,,,70,127
19762,note_on,1,0,0,,10,,,69,127
19762,note_on,0,0,0,,10,,,57,127
19935,note_off,173,0,0,,10,,,57,127
19935,note_off,0,0,0,,10,,,69,127
19936,note_on,1,0,0,,7,,,67,127
19936,note_on,0,0,0,,11,,,58,127
20231,note_off,295,0,0,,4,,,76,127
20286,note_on,55,0,0,,2,,,74,127
20459,note_off,173,0,0,,11,,,58,127
20459,note_off,0,0,0,,7,,,67,127
20459,note_off,0,0,0,,2,,,62,127
20460,note_on,1,0,0,,10,,,69,127
20460,note_on,0,0,0,,4,,,64,127
20460,note_on,0,0,0,,10,,,57,127
20808,note_off,348,0,0,,2,,,74,127
20809,note_on,1,0,0,,4,,,76,127
20982,note_off,173,0,0,,4,,,76,127
20983,note_on,1,0,0,,2,,,74,127
21113,note_off,130,0,0,,2,,,74,127
21114,note_on,1,0,0,,1,,,73,127
21244,note_off,130,0,0,,1,,,73,127
21245,note_on,1,0,0,,12,,,71,127
21278,note_off,33,0,0,,4,,,64,127
21326,note_off,48,0,0,,10,,,69,127
21375,note_off,49,0,0,,12,,,71,127
21376,note_on,1,0,0,,7,,,67,127
21376,note_on,0,0,0,,10,,,69,127
21506,note_off,130,0,0,,10,,,69,127
21506,note_off,0,0,0,,7,,,67,127
21507,note_on,1,0,0,,5,,,65,127
21507,note_on,0,0,0,,2,,,74,127
21537,note_off,30,0,0,,10,,,57,127
21594,note_on,57,0,0,,4,,,76,127
21636,note_off,42,0,0,,2,,,74,127
21681,note_on,45,0,0,,5,,,77,127
21723,note_off,42,0,0,,4,,,76,127
21833,note_off,110,0,0,,5,,,65,127
21855,note_on,22,0,0,,2,,,62,127
22028,note_off,173,0,0,,2,,,62,127
22029,note_on,1,0,0,,11,,,70,127
22029,note_on,0,0,0,,4,,,64,127
22029,note_on,0,0,0,,7,,,55,127
22289,note_off,260,0,0,,5,,,77,127
22378,note_on,89,0,0,,4,,,76,127
22551,note_off,173,0,0,,7,,,55,127
22551,note_off,0,0,0,,4,,,64,127
22551,note_off,0,0,0,,11,,,70,127
22552,note_on,1,0,0,,10,,,69,127
22552,note_on,0,0,0,,5,,,65,127
22552,note_on,0,0,0,,10,,,57,127
22900,note_off,348,0,0,,4,,,76,127
22901,note_on,1,0,0,,2,,,74,127
23074,note_off,173,0,0,,10,,,57,127
23074,note_off,0,0,0,,5,,,65,127
23074,note_off,0,0,0,,10,,,69,127
23075,note_on,1,0,0,,7,,,67,127
23075,note_on,0,0,0,,4,,,64,127
23075,note_on,0,0,0,,10,,,57,127
23423,note_off,348,0,0,,2,,,74,127
23424,note_on,1,0,0,,1,,,73,127
23593,note_off,169,0,0,,7,,,67,127
23597,note_off,4,0,0,,1,,,73,127
23597,note_off,0,0,0,,10,,,57,127
23597,note_off,0,0,0,,4,,,64,127
23598,note_on,1,0,0,,2,,,62,127
23598,note_on,0,0,0,,2,,,50,127
23598,note_on,0,0,0,,2,,,74,127
23947,note_on,349,0,0,,10,,,69,127
24120,note_off,173,0,0,,10,,,69,127
24120,note_off,0,0,0,,2,,,74,127
24120,note_off,0,0,0,,2,,,50,127
24120,note_off,0,0,0,,2,,,62,127
24121,note_on,1,0,0,,2,,,50,127
24121,note_on,0,0,0,,5,,,65,127
24469,note_off,348,0,0,,2,,,50,127
24470,note_on,1,0,0,,4,,,64,127
24470,note_on,0,0,0,,4,,,52,127
24643,note_off,173,0,0,,4,,,52,127
24643,note_off,0,0,0,,4,,,64,127
24644,note_on,1,0,0,,2,,,62,127
24644,note_on,0,0,0,,5,,,53,127
24992,note_off,348,0,0,,5,,,53,127
24992,note_off,0,0,0,,2,,,62,127
24993,note_on,1,0,0,,0,,,60,127
24993,note_on,0,0,0,,2,,,50,127
25166,note_off,173,0,0,,2,,,50,127
25166,note_off,0,0,0,,0,,,60,127
25166,note_off,0,0,0,,5,,,65,127
25167,note_on,1,0,0,,11,,,58,127
25167,note_on,0,0,0,,7,,,43,127
25516,note_on,349,0,0,,7,,,67,127
25689,note_off,173,0,0,,7,,,67,127
25690,note_on,1,0,0,,4,,,64,127
26038,note_off,348,0,0,,7,,,43,127
26038,note_off,0,0,0,,11,,,58,127
26039,note_on,1,0,0,,10,,,57,127
26039,note_on,0,0,0,,10,,,45,127
26212,note_off,173,0,0,,10,,,45,127
26212,note_off,0,0,0,,10,,,57,127
26213,note_on,1,0,0,,7,,,55,127
26213,note_on,0,0,0,,11,,,46,127
26473,note_off,260,0,0,,4,,,64,127
26562,note_on,89,0,0,,2,,,62,127
26735,note_off,173,0,0,,11,,,46,127
26736,note_on,1,0,0,,10,,,45,127
27069,note_off,333,0,0,,2,,,62,127
27085,note_on,16,0,0,,4,,,64,127
27258,note_off,173,0,0,,4,,,64,127
27259,note_on,1,0,0,,1,,,61,127
27353,note_off,94,0,0,,1,,,61,127
27354,note_on,1,0,0,,12,,,59,127
27448,note_off,94,0,0,,12,,,59,127
27449,note_on,1,0,0,,10,,,57,127
27574,note_off,125,0,0,,7,,,55,127
27607,note_on,33,0,0,,7,,,55,127
27611,note_off,4,0,0,,10,,,57,127
27683,note_off,72,0,0,,10,,,45,127
27780,note_off,97,0,0,,7,,,55,127
27781,note_on,1,0,0,,10,,,57,127
27781,note_on,0,0,0,,5,,,53,127
27781,note_on,0,0,0,,2,,,62,127
27883,note_on,102,0,0,,4,,,64,127
27944,note_off,61,0,0,,2,,,62,127
27985,note_on,41,0,0,,5,,,65,127
28046,note_off,61,0,0,,4,,,64,127
28129,note_on,83,0,0,,2,,,50,127
28162,note_off,33,0,0,,5,,,53,127
28293,note_off,131,0,0,,2,,,50,127
28303,note_off,10,0,0,,10,,,57,127
28304,note_on,1,0,0,,11,,,58,127
28304,note_on,0,0,0,,7,,,55,127
28304,note_on,0,0,0,,7,,,43,127
28558,note_off,254,0,0,,5,,,65,127
28653,note_on,95,0,0,,4,,,64,127
28826,note_off,173,0,0,,7,,,43,127
28826,note_off,0,0,0,,7,,,55,127
28826,note_off,0,0,0,,11,,,58,127
28827,note_on,1,0,0,,10,,,57,127
28827,note_on,0,0,0,,5,,,53,127
28827,note_on,0,0,0,,10,,,45,127
29175,note_off,348,0,0,,4,,,64,127
29176,note_on,1,0,0,,2,,,62,127
29349,note_off,173,0,0,,5,,,53,127
29349,note_off,0,0,0,,10,,,57,127
29350,note_on,1,0,0,,7,,,55,127
29350,note_on,0,0,0,,4,,,52,127
29698,note_off,348,0,0,,2,,,62,127
29699,note_on,1,0,0,,1,,,61,127
29872,note_off,173,0,0,,4,,,52,127
29872,note_off,0,0,0,,10,,,45,127
29873,note_on,1,0,0,,2,,,50,127
29873,note_on,0,0,0,,2,,,38,127
29876,note_off,3,0,0,,1,,,61,127
30004,note_off,128,0,0,,7,,,55,127
30222,note_on,218,0,0,,2,,,62,127
30395,note_off,173,0,0,,2,,,50,127
30396,note_on,1,0,0,,10,,,57,127
30396,note_on,0,0,0,,6,,,54,127
30744,note_off,348,0,0,,2,,,62,127
30745,note_on,1,0,0,,2,,,62,127
30918,note_off,173,0,0,,6,,,54,127
30918,note_off,0,0,0,,10,,,57,127
30919,note_on,1,0,0,,7,,,55,127
30919,note_on,0,0,0,,4,,,52,127
31267,note_off,348,0,0,,2,,,62,127
31268,note_on,1,0,0,,1,,,61,127
31441,note_off,173,0,0,,1,,,61,127
31441,note_off,0,0,0,,4,,,52,127
31441,note_off,0,0,0,,7,,,55,127
31441,note_off,0,0,0,,2,,,38,127
31442,note_on,1,0,0,,10,,,57,127
31442,note_on,0,0,0,,6,,,54,127
31442,note_on,0,0,0,,2,,,38,127
31791,note_on,349,0,0,,2,,,62,127
31964,note_off,173,0,0,,6,,,54,127
31964,note_off,0,0,0,,10,,,57,127
31965,note_on,1,0,0,,11,,,58,127
31965,note_on,0,0,0,,7,,,55,127
32313,note_off,348,0,0,,2,,,62,127
32314,note_on,1,0,0,,2,,,62,127
32487,note_off,173,0,0,,7,,,55,127
32487,note_off,0,0,0,,11,,,58,127
32488,note_on,1,0,0,,7,,,55,127
32488,note_on,0,0,0,,4,,,52,127
32836,note_off,348,0,0,,2,,,62,127
32837,note_on,1,0,0,,1,,,61,127
33010,note_off,173,0,0,,2,,,38,127
33011,note_on,1,0,0,,2,,,38,127
33011,note_on,0,0,0,,2,,,50,127
33205,note_off,194,0,0,,1,,,61,127
33360,note_on,155,0,0,,2,,,62,127
33533,note_off,173,0,0,,4,,,52,127
33533,note_off,0,0,0,,7,,,55,127
33534,note_on,1,0,0,,10,,,57,127
33534,note_on,0,0,0,,6,,,54,127
33882,note_off,348,0,0,,2,,,62,127
33883,note_on,1,0,0,,2,,,62,127
34056,note_off,173,0,0,,6,,,54,127
34056,note_off,0,0,0,,10,,,57,127
34057,note_on,1,0,0,,11,,,58,127
34057,note_on,0,0,0,,7,,,55,127
34405,note_off,348,0,0,,2,,,62,127
34406,note_on,1,0,0,,4,,,64,127
34579,note_off,173,0,0,,7,,,55,127
34579,note_off,0,0,0,,11,,,58,127
34579,note_off,0,0,0,,2,,,50,127
34579,note_off,0,0,0,,2,,,38,127
34580,note_on,1,0,0,,0,,,60,127
34580,note_on,0,0,0,,10,,,57,127
34580,note_on,0,0,0,,2,,,38,127
34580,note_on,0,0,0,,2,,,50,127
34928,note_off,348,0,0,,4,,,64,127
34929,note_on,1,0,0,,6,,,66,127
35102,note_off,173,0,0,,2,,,50,127
35102,note_off,0,0,0,,2,,,38,127
35102,note_off,0,0,0,,10,,,57,127
35102,note_off,0,0,0,,0,,,60,127
35103,note_on,1,0,0,,2,,,62,127
35103,note_on,0,0,0,,11,,,58,127
35103,note_on,0,0,0,,2,,,38,127
35103,note_on,0,0,0,,2,,,50,127
35451,note_off,348,0,0,,6,,,66,127
35452,note_on,1,0,0,,7,,,67,127
35625,note_off,173,0,0,,2,,,50,127
35625,note_off,0,0,0,,2,,,38,127
35625,note_off,0,0,0,,11,,,58,127
35625,note_off,0,0,0,,2,,,62,127
35626,note_on,1,0,0,,3,,,63,127
35626,note_on,0,0,0,,0,,,60,127
35626,note_on,0,0,0,,2,,,38,127
35626,note_on,0,0,0,,2,,,50,127
35974,note_off,348,0,0,,7,,,67,127
35975,note_on,1,0,0,,10,,,69,127
36148,note_off,173,0,0,,2,,,50,127
36148,note_off,0,0,0,,2,,,38,127
36148,note_off,0,0,0,,0,,,60,127
36148,note_off,0,0,0,,3,,,63,127
36149,note_on,1,0,0,,2,,,62,127
36149,note_on,0,0,0,,2,,,50,127
36149,note_on,0,0,0,,2,,,38,127
36497,note_off,348,0,0,,10,,,69,127
36498,note_on,1,0,0,,7,,,67,127
36671,note_off,173,0,0,,7,,,67,127
36672,note_on,1,0,0,,7,,,67,127
36845,note_off,173,0,0,,7,,,67,127
36846,note_on,1,0,0,,6,,,66,127
37019,note_off,173,0,0,,6,,,66,127
37019,note_off,0,0,0,,2,,,62,127
37020,note_on,1,0,0,,0,,,60,127
37020,note_on,0,0,0,,4,,,64,127
37193,note_off,173,0,0,,4,,,64,127
37193,note_off,0,0,0,,0,,,60,127
37193,note_off,0,0,0,,2,,,38,127
37193,note_off,0,0,0,,2,,,50,127
37194,note_on,1,0,0,,11,,,58,127
37194,note_on,0,0,0,,2,,,62,127
37542,note_off,348,0,0,,11,,,58,127
37552,note_on,10,0,0,,10,,,57,127
37707,note_on,155,0,0,,2,,,74,127
37707,note_on,0,0,0,,11,,,58,127
37715,note_off,8,0,0,,10,,,57,127
37716,note_off,1,0,0,,2,,,62,127
38056,note_on,340,0,0,,2,,,62,127
38229,note_off,173,0,0,,2,,,62,127
38229,note_off,0,0,0,,11,,,58,127
38230,note_on,1,0,0,,10,,,57,127
38230,note_on,0,0,0,,0,,,60,127
38230,note_on,0,0,0,,4,,,64,127
38578,note_off,348,0,0,,2,,,74,127
38579,note_on,1,0,0,,0,,,72,127
38752,note_off,173,0,0,,4,,,64,127
38752,note_off,0,0,0,,0,,,60,127
38752,note_off,0,0,0,,10,,,57,127
38753,note_on,1,0,0,,2,,,50,127
38753,note_on,0,0,0,,2,,,62,127
38753,note_on,0,0,0,,6,,,66,127
39101,note_off,348,0,0,,0,,,72,127
39102,note_on,1,0,0,,0,,,72,127
39275,note_off,173,0,0,,6,,,66,127
39275,note_off,0,0,0,,2,,,50,127
39276,note_on,1,0,0,,7,,,55,127
39276,note_on,0,0,0,,7,,,67,127
39624,note_off,348,0,0,,0,,,72,127
39625,note_on,1,0,0,,2,,,74,127
39798,note_off,173,0,0,,2,,,74,127
39798,note_off,0,0,0,,7,,,67,127
39799,note_on,1,0,0,,11,,,70,127
40147,note_off,348,0,0,,2,,,62,127
40148,note_on,1,0,0,,10,,,69,127
40148,note_on,0,0,0,,5,,,65,127
40189,note_off,41,0,0,,7,,,55,127
40317,note_off,128,0,0,,11,,,70,127
40321,note_off,4,0,0,,5,,,65,127
40321,note_off,0,0,0,,10,,,69,127
40322,note_on,1,0,0,,7,,,67,127
40322,note_on,0,0,0,,3,,,63,127
40670,note_off,348,0,0,,3,,,63,127
40671,note_on,1,0,0,,2,,,62,127
40844,note_off,173,0,0,,2,,,62,127
40844,note_off,0,0,0,,7,,,67,127
40845,note_on,1,0,0,,7,,,79,127
40845,note_on,0,0,0,,3,,,63,127
41194,note_on,349,0,0,,7,,,67,127
41367,note_off,173,0,0,,7,,,67,127
41367,note_off,0,0,0,,3,,,63,127
41368,note_on,1,0,0,,2,,,62,127
41368,note_on,0,0,0,,5,,,65,127
41368,note_on,0,0,0,,10,,,69,127
41716,note_off,348,0,0,,7,,,79,127
41717,note_on,1,0,0,,5,,,77,127
41890,note_off,173,0,0,,10,,,69,127
41890,note_off,0,0,0,,5,,,65,127
41890,note_off,0,0,0,,2,,,62,127
41891,note_on,1,0,0,,7,,,55,127
41891,note_on,0,0,0,,7,,,67,127
41891,note_on,0,0,0,,12,,,71,127
42239,note_off,348,0,0,,5,,,77,127
42240,note_on,1,0,0,,5,,,77,127
42413,note_off,173,0,0,,12,,,71,127
42413,note_off,0,0,0,,7,,,55,127
42414,note_on,1,0,0,,0,,,60,127
42414,note_on,0,0,0,,0,,,72,127
42762,note_off,348,0,0,,5,,,77,127
42763,note_on,1,0,0,,7,,,79,127
42936,note_off,173,0,0,,7,,,79,127
42936,note_off,0,0,0,,0,,,72,127
42936,note_off,0,0,0,,7,,,67,127
42937,note_on,1,0,0,,3,,,75,127
43197,note_off,260,0,0,,0,,,60,127
43286,note_on,89,0,0,,2,,,62,127
43286,note_on,0,0,0,,2,,,74,127
43459,note_off,173,0,0,,2,,,74,127
43459,note_off,0,0,0,,2,,,62,127
43460,note_on,1,0,0,,3,,,63,127
43460,note_on,0,0,0,,0,,,72,127
43808,note_off,348,0,0,,0,,,72,127
43808,note_off,0,0,0,,3,,,63,127
43809,note_on,1,0,0,,0,,,60,127
43809,note_on,0,0,0,,11,,,70,127
43982,note_off,173,0,0,,11,,,70,127
43982,note_off,0,0,0,,0,,,60,127
43983,note_on,1,0,0,,5,,,53,127
43983,note_on,0,0,0,,5,,,65,127
43983,note_on,0,0,0,,8,,,68,127
44179,note_off,196,0,0,,3,,,75,127
44332,note_on,153,0,0,,5,,,77,127
44505,note_off,173,0,0,,5,,,77,127
44506,note_on,1,0,0,,2,,,74,127
44637,note_off,131,0,0,,5,,,65,127
44801,note_off,164,0,0,,5,,,53,127
44854,note_off,53,0,0,,8,,,68,127
44855,note_on,1,0,0,,7,,,55,127
44855,note_on,0,0,0,,7,,,67,127
45028,note_off,173,0,0,,7,,,67,127
45028,note_off,0,0,0,,7,,,55,127
45029,note_on,1,0,0,,8,,,56,127
45029,note_on,0,0,0,,5,,,65,127
45377,note_off,348,0,0,,2,,,74,127
45378,note_on,1,0,0,,0,,,72,127
45551,note_off,173,0,0,,5,,,65,127
45551,note_off,0,0,0,,8,,,56,127
45552,note_on,1,0,0,,7,,,55,127
45552,note_on,0,0,0,,2,,,62,127
45552,note_on,0,0,0,,7,,,67,127
45900,note_off,348,0,0,,0,,,72,127
45901,note_on,1,0,0,,2,,,74,127
46074,note_off,173,0,0,,2,,,74,127
46075,note_on,1,0,0,,12,,,71,127
46161,note_off,86,0,0,,12,,,71,127
46162,note_on,1,0,0,,10,,,69,127
46229,note_off,67,0,0,,7,,,67,127
46248,note_off,19,0,0,,10,,,69,127
46249,note_on,1,0,0,,7,,,67,127
46466,note_off,217,0,0,,2,,,62,127
46467,note_on,1,0,0,,5,,,65,127
46509,note_off,42,0,0,,7,,,67,127
46596,note_off,87,0,0,,7,,,55,127
46597,note_off,1,0,0,,5,,,65,127
46597,note_on,0,0,0,,0,,,72,127
46597,note_on,0,0,0,,3,,,63,127
46597,note_on,0,0,0,,7,,,67,127
46684,note_on,87,0,0,,2,,,74,127
46726,note_off,42,0,0,,0,,,72,127
46771,note_on,45,0,0,,3,,,75,127
46813,note_off,42,0,0,,2,,,74,127
46945,note_on,132,0,0,,0,,,60,127
46987,note_off,42,0,0,,3,,,63,127
47118,note_off,131,0,0,,0,,,60,127
47118,note_off,0,0,0,,7,,,67,127
47119,note_on,1,0,0,,5,,,53,127
47119,note_on,0,0,0,,5,,,65,127
47119,note_on,0,0,0,,8,,,68,127
47379,note_off,260,0,0,,3,,,75,127
47468,note_on,89,0,0,,2,,,74,127
47641,note_off,173,0,0,,8,,,68,127
47641,note_off,0,0,0,,5,,,65,127
47641,note_off,0,0,0,,5,,,53,127
47642,note_on,1,0,0,,7,,,55,127
47642,note_on,0,0,0,,3,,,63,127
47642,note_on,0,0,0,,7,,,67,127
47990,note_off,348,0,0,,2,,,74,127
47991,note_on,1,0,0,,0,,,72,127
48164,note_off,173,0,0,,7,,,67,127
48164,note_off,0,0,0,,3,,,63,127
48164,note_off,0,0,0,,7,,,55,127
48165,note_on,1,0,0,,7,,,55,127
48165,note_on,0,0,0,,2,,,62,127
48165,note_on,0,0,0,,5,,,65,127
48513,note_off,348,0,0,,0,,,72,127
48514,note_on,1,0,0,,12,,,71,127
48687,note_off,173,0,0,,12,,,71,127
48687,note_off,0,0,0,,2,,,62,127
48687,note_off,0,0,0,,7,,,55,127
48688,note_on,1,0,0,,0,,,72,127
48688,note_on,0,0,0,,0,,,48,127
48688,note_on,0,0,0,,0,,,60,127
48721,note_off,33,0,0,,5,,,65,127
49037,note_on,316,0,0,,7,,,67,127
49210,note_off,173,0,0,,7,,,67,127
49211,note_on,1,0,0,,3,,,63,127
49506,note_off,295,0,0,,0,,,48,127
49559,note_off,53,0,0,,3,,,63,127
49559,note_off,0,0,0,,0,,,60,127
49560,note_on,1,0,0,,2,,,62,127
49560,note_on,0,0,0,,5,,,65,127
49733,note_off,173,0,0,,5,,,65,127
49733,note_off,0,0,0,,2,,,62,127
49733,note_off,0,0,0,,0,,,72,127
49734,note_on,1,0,0,,3,,,63,127
49734,note_on,0,0,0,,7,,,67,127
50082,note_off,348,0,0,,7,,,67,127
50082,note_off,0,0,0,,3,,,63,127
50083,note_on,1,0,0,,0,,,60,127
50083,note_on,0,0,0,,10,,,69,127
50233,note_off,150,0,0,,10,,,69,127
50247,note_off,14,0,0,,0,,,60,127
50258,note_on,11,0,0,,11,,,70,127
50258,note_on,0,0,0,,2,,,62,127
50607,note_on,349,0,0,,5,,,65,127
50780,note_off,173,0,0,,5,,,65,127
50780,note_off,0,0,0,,2,,,62,127
50781,note_on,1,0,0,,0,,,60,127
50781,note_on,0,0,0,,3,,,63,127
51129,note_off,348,0,0,,11,,,70,127
51130,note_on,1,0,0,,10,,,69,127
51303,note_off,173,0,0,,10,,,69,127
51303,note_off,0,0,0,,3,,,63,127
51303,note_off,0,0,0,,0,,,60,127
51304,note_on,1,0,0,,2,,,74,127
51304,note_on,0,0,0,,11,,,58,127
51304,note_on,0,0,0,,2,,,62,127
51652,note_off,348,0,0,,2,,,62,127
51653,note_on,1,0,0,,7,,,67,127
51826,note_off,173,0,0,,11,,,58,127
51826,note_off,0,0,0,,2,,,74,127
51827,note_on,1,0,0,,0,,,72,127
51827,note_on,0,0,0,,10,,,57,127
51827,note_on,0,0,0,,0,,,60,127
52175,note_off,348,0,0,,7,,,67,127
52176,note_on,1,0,0,,6,,,66,127
52349,note_off,173,0,0,,6,,,66,127
52349,note_off,0,0,0,,0,,,60,127
52349,note_off,0,0,0,,10,,,57,127
52350,note_on,1,0,0,,7,,,55,127
52350,note_on,0,0,0,,2,,,62,127
52350,note_on,0,0,0,,7,,,67,127
52698,note_off,348,0,0,,0,,,72,127
52699,note_on,1,0,0,,11,,,70,127
52872,note_off,173,0,0,,11,,,70,127
52872,note_off,0,0,0,,7,,,67,127
52872,note_off,0,0,0,,2,,,62,127
52872,note_off,0,0,0,,7,,,55,127
52873,note_on,1,0,0,,5,,,53,127
52873,note_on,0,0,0,,2,,,62,127
52873,note_on,0,0,0,,10,,,69,127
53222,note_on,349,0,0,,2,,,74,127
53395,note_off,173,0,0,,2,,,74,127
53395,note_off,0,0,0,,10,,,69,127
53395,note_off,0,0,0,,2,,,62,127
53395,note_off,0,0,0,,5,,,53,127
53396,note_on,1,0,0,,7,,,79,127
53396,note_on,0,0,0,,4,,,52,127
53396,note_on,0,0,0,,7,,,55,127
53745,note_on,349,0,0,,1,,,73,127
53918,note_off,173,0,0,,1,,,73,127
53918,note_off,0,0,0,,7,,,55,127
53918,note_off,0,0,0,,4,,,52,127
53919,note_on,1,0,0,,2,,,50,127
53919,note_on,0,0,0,,10,,,57,127
53919,note_on,0,0,0,,2,,,74,127
54267,note_off,348,0,0,,10,,,57,127
54267,note_off,0,0,0,,7,,,79,127
54268,note_on,1,0,0,,6,,,78,127
54268,note_on,0,0,0,,0,,,60,127
54441,note_off,173,0,0,,0,,,60,127
54441,note_off,0,0,0,,6,,,78,127
54442,note_on,1,0,0,,7,,,79,127
54442,note_on,0,0,0,,11,,,58,127
54790,note_off,348,0,0,,11,,,58,127
54790,note_off,0,0,0,,7,,,79,127
54790,note_off,0,0,0,,2,,,74,127
54791,note_on,1,0,0,,10,,,81,127
54791,note_on,0,0,0,,10,,,57,127
54791,note_on,0,0,0,,0,,,72,127
54805,note_off,14,0,0,,2,,,50,127
54965,note_off,160,0,0,,0,,,72,127
54965,note_off,0,0,0,,10,,,57,127
54965,note_off,0,0,0,,10,,,81,127
54966,note_on,1,0,0,,2,,,74,127
54966,note_on,0,0,0,,7,,,55,127
54966,note_on,0,0,0,,2,,,62,127
54966,note_on,0,0,0,,11,,,70,127
55314,note_off,348,0,0,,2,,,74,127
55315,note_on,1,0,0,,7,,,79,127
55488,note_off,173,0,0,,11,,,70,127
55488,note_off,0,0,0,,7,,,55,127
55489,note_on,1,0,0,,2,,,50,127
55489,note_on,0,0,0,,10,,,69,127
55837,note_off,348,0,0,,7,,,79,127
55838,note_on,1,0,0,,4,,,76,127
56011,note_off,173,0,0,,4,,,76,127
56011,note_off,0,0,0,,2,,,62,127
56012,note_on,1,0,0,,5,,,77,127
56012,note_on,0,0,0,,2,,,62,127
56187,note_off,175,0,0,,2,,,50,127
56360,note_off,173,0,0,,10,,,69,127
56361,note_on,1,0,0,,0,,,72,127
56534,note_off,173,0,0,,0,,,72,127
56535,note_on,1,0,0,,7,,,55,127
56535,note_on,0,0,0,,12,,,71,127
56710,note_off,175,0,0,,5,,,77,127
56885,note_on,175,0,0,,7,,,79,127
57049,note_off,164,0,0,,12,,,71,127
57059,note_off,10,0,0,,7,,,79,127
57059,note_off,0,0,0,,7,,,55,127
57059,note_off,0,0,0,,2,,,62,127
57060,note_on,1,0,0,,3,,,75,127
57060,note_on,0,0,0,,0,,,48,127
57060,note_on,0,0,0,,0,,,60,127
57409,note_on,349,0,0,,0,,,72,127
57582,note_off,173,0,0,,0,,,72,127
57582,note_off,0,0,0,,0,,,48,127
57583,note_on,1,0,0,,5,,,53,127
57583,note_on,0,0,0,,10,,,69,127
57758,note_off,175,0,0,,3,,,75,127
57933,note_on,175,0,0,,5,,,77,127
58106,note_off,173,0,0,,5,,,77,127
58106,note_off,0,0,0,,5,,,53,127
58106,note_off,0,0,0,,0,,,60,127
58107,note_on,1,0,0,,2,,,74,127
58107,note_on,0,0,0,,11,,,58,127
58282,note_off,175,0,0,,10,,,69,127
58457,note_on,175,0,0,,11,,,70,127
58630,note_off,173,0,0,,11,,,70,127
58630,note_off,0,0,0,,11,,,58,127
58631,note_on,1,0,0,,3,,,51,127
58631,note_on,0,0,0,,3,,,63,127
58631,note_on,0,0,0,,7,,,67,127
58806,note_off,175,0,0,,2,,,74,127
58981,note_on,175,0,0,,3,,,75,127
59154,note_off,173,0,0,,3,,,75,127
59154,note_off,0,0,0,,3,,,63,127
59154,note_off,0,0,0,,3,,,51,127
59155,note_on,1,0,0,,0,,,72,127
59155,note_on,0,0,0,,10,,,57,127
59155,note_on,0,0,0,,0,,,60,127
59503,note_off,348,0,0,,7,,,67,127
59504,note_on,1,0,0,,10,,,69,127
59677,note_off,173,0,0,,10,,,69,127
59677,note_off,0,0,0,,0,,,60,127
59677,note_off,0,0,0,,10,,,57,127
59678,note_on,1,0,0,,2,,,50,127
59678,note_on,0,0,0,,2,,,62,127
59678,note_on,0,0,0,,6,,,66,127
59884,note_off,206,0,0,,0,,,72,127
60027,note_on,143,0,0,,2,,,74,127
60200,note_off,173,0,0,,2,,,74,127
60200,note_off,0,0,0,,6,,,66,127
60201,note_on,1,0,0,,11,,,70,127
60201,note_on,0,0,0,,7,,,67,127
60386,note_off,185,0,0,,2,,,50,127
60548,note_off,162,0,0,,7,,,67,127
60548,note_off,0,0,0,,11,,,70,127
60549,note_on,1,0,0,,0,,,72,127
60549,note_on,0,0,0,,0,,,60,127
60549,note_on,0,0,0,,10,,,69,127
60722,note_off,173,0,0,,10,,,69,127
60722,note_off,0,0,0,,0,,,60,127
60722,note_off,0,0,0,,0,,,72,127
60723,note_on,1,0,0,,2,,,74,127
60723,note_on,0,0,0,,11,,,58,127
60723,note_on,0,0,0,,11,,,70,127
60854,note_on,131,0,0,,10,,,57,127
60887,note_off,33,0,0,,11,,,58,127
60991,note_on,104,0,0,,7,,,55,127
61018,note_off,27,0,0,,10,,,57,127
61246,note_off,228,0,0,,2,,,74,127
61246,note_off,0,0,0,,2,,,62,127
61247,note_on,1,0,0,,3,,,75,127
61247,note_on,0,0,0,,0,,,48,127
61247,note_on,0,0,0,,0,,,60,127
61250,note_off,3,0,0,,7,,,55,127
61595,note_off,345,0,0,,11,,,70,127
61596,note_on,1,0,0,,10,,,69,127
61769,note_off,173,0,0,,0,,,60,127
61769,note_off,0,0,0,,0,,,48,127
61769,note_off,0,0,0,,3,,,75,127
61770,note_on,1,0,0,,2,,,74,127
61770,note_on,0,0,0,,2,,,50,127
61770,note_on,0,0,0,,11,,,58,127
62118,note_off,348,0,0,,10,,,69,127
62119,note_on,1,0,0,,7,,,67,127
62292,note_off,173,0,0,,11,,,58,127
62292,note_off,0,0,0,,2,,,50,127
62292,note_off,0,0,0,,2,,,74,127
62293,note_on,1,0,0,,0,,,72,127
62293,note_on,0,0,0,,2,,,50,127
62293,note_on,0,0,0,,10,,,57,127
62641,note_off,348,0,0,,7,,,67,127
62642,note_on,1,0,0,,6,,,66,127
62796,note_off,154,0,0,,0,,,72,127
62800,note_off,4,0,0,,6,,,66,127
62815,note_off,15,0,0,,10,,,57,127
62815,note_off,0,0,0,,2,,,50,127
62816,note_on,1,0,0,,7,,,43,127
62816,note_on,0,0,0,,7,,,55,127
62816,note_on,0,0,0,,7,,,67,127
63165,note_on,349,0,0,,2,,,74,127
63338,note_off,173,0,0,,2,,,74,127
63339,note_on,1,0,0,,11,,,70,127
63685,note_off,346,0,0,,7,,,67,127
63686,note_off,1,0,0,,7,,,55,127
63686,note_off,0,0,0,,7,,,43,127
63687,note_on,1,0,0,,10,,,57,127
63687,note_on,0,0,0,,10,,,69,127
63860,note_off,173,0,0,,10,,,69,127
63860,note_off,0,0,0,,10,,,57,127
63861,note_on,1,0,0,,11,,,58,127
63861,note_on,0,0,0,,7,,,67,127
63955,note_off,94,0,0,,11,,,58,127
63956,note_on,1,0,0,,10,,,57,127
64050,note_off,94,0,0,,10,,,57,127
64051,note_on,1,0,0,,7,,,55,127
64209,note_on,158,0,0,,5,,,65,127
64213,note_off,4,0,0,,7,,,67,127
64373,note_off,160,0,0,,5,,,65,127
64380,note_off,7,0,0,,7,,,55,127
64384,note_on,4,0,0,,0,,,48,127
64384,note_on,0,0,0,,0,,,60,127
64384,note_on,0,0,0,,3,,,63,127
64732,note_off,348,0,0,,11,,,70,127
64733,note_on,1,0,0,,0,,,72,127
64906,note_off,173,0,0,,0,,,72,127
64907,note_on,1,0,0,,10,,,69,127
65255,note_off,348,0,0,,3,,,63,127
65255,note_off,0,0,0,,0,,,48,127
65256,note_on,1,0,0,,2,,,50,127
65256,note_on,0,0,0,,2,,,62,127
65429,note_off,173,0,0,,2,,,62,127
65429,note_off,0,0,0,,2,,,50,127
65429,note_off,0,0,0,,0,,,60,127
65430,note_on,1,0,0,,3,,,51,127
65430,note_on,0,0,0,,0,,,60,127
65778,note_off,348,0,0,,10,,,69,127
65779,note_on,1,0,0,,7,,,67,127
65952,note_off,173,0,0,,0,,,60,127
65952,note_off,0,0,0,,3,,,51,127
65953,note_on,1,0,0,,2,,,50,127
65953,note_on,0,0,0,,2,,,62,127
66301,note_off,348,0,0,,7,,,67,127
66302,note_on,1,0,0,,10,,,69,127
66475,note_off,173,0,0,,10,,,69,127
66476,note_on,1,0,0,,6,,,66,127
66562,note_off,86,0,0,,6,,,66,127
66563,note_on,1,0,0,,4,,,64,127
66638,note_off,75,0,0,,2,,,62,127
66649,note_off,11,0,0,,4,,,64,127
66650,note_on,1,0,0,,2,,,62,127
66825,note_on,175,0,0,,0,,,60,127
66867,note_off,42,0,0,,2,,,50,127
66911,note_off,44,0,0,,2,,,62,127
66998,note_off,87,0,0,,0,,,60,127
66999,note_on,1,0,0,,7,,,67,127
66999,note_on,0,0,0,,11,,,58,127
66999,note_on,0,0,0,,2,,,62,127
67086,note_on,87,0,0,,10,,,69,127
67128,note_off,42,0,0,,7,,,67,127
67173,note_on,45,0,0,,11,,,70,127
67215,note_off,42,0,0,,10,,,69,127
67347,note_on,132,0,0,,7,,,55,127
67389,note_off,42,0,0,,11,,,58,127
67520,note_off,131,0,0,,7,,,55,127
67520,note_off,0,0,0,,11,,,70,127
67520,note_off,0,0,0,,2,,,62,127
67521,note_on,1,0,0,,0,,,48,127
67521,note_on,0,0,0,,0,,,60,127
67521,note_on,0,0,0,,3,,,63,127
67870,note_on,349,0,0,,10,,,69,127
68043,note_off,173,0,0,,3,,,63,127
68043,note_off,0,0,0,,0,,,60,127
68043,note_off,0,0,0,,0,,,48,127
68044,note_on,1,0,0,,2,,,50,127
68044,note_on,0,0,0,,11,,,58,127
68044,note_on,0,0,0,,2,,,62,127
68392,note_off,348,0,0,,10,,,69,127
68393,note_on,1,0,0,,7,,,67,127
68566,note_off,173,0,0,,2,,,62,127
68566,note_off,0,0,0,,11,,,58,127
68566,note_off,0,0,0,,2,,,50,127
68567,note_on,1,0,0,,2,,,50,127
68567,note_on,0,0,0,,10,,,57,127
68567,note_on,0,0,0,,0,,,60,127
68915,note_off,348,0,0,,7,,,67,127
68916,note_on,1,0,0,,6,,,66,127
69080,note_off,164,0,0,,6,,,66,127
69090,note_off,10,0,0,,10,,,57,127
69090,note_off,0,0,0,,2,,,50,127
69091,note_on,1,0,0,,7,,,43,127
69091,note_on,0,0,0,,7,,,55,127
69440,note_on,349,0,0,,7,,,67,127
69613,note_off,173,0,0,,7,,,55,127
69613,note_off,0,0,0,,0,,,60,127
69614,note_on,1,0,0,,11,,,58,127
69614,note_on,0,0,0,,2,,,62,127
69962,note_off,348,0,0,,7,,,67,127
69963,note_on,1,0,0,,7,,,67,127
70136,note_off,173,0,0,,2,,,62,127
70136,note_off,0,0,0,,11,,,58,127
70137,note_on,1,0,0,,10,,,57,127
70137,note_on,0,0,0,,0,,,60,127
70485,note_off,348,0,0,,7,,,67,127
70486,note_on,1,0,0,,6,,,66,127
70659,note_off,173,0,0,,0,,,60,127
70659,note_off,0,0,0,,10,,,57,127
70659,note_off,0,0,0,,7,,,43,127
70660,note_on,1,0,0,,7,,,43,127
70660,note_on,0,0,0,,7,,,55,127
70660,note_on,0,0,0,,2,,,62,127
70660,note_on,0,0,0,,11,,,58,127
70772,note_off,112,0,0,,6,,,66,127
71009,note_on,237,0,0,,7,,,67,127
71182,note_off,173,0,0,,11,,,58,127
71182,note_off,0,0,0,,2,,,62,127
71182,note_off,0,0,0,,7,,,55,127
71183,note_on,1,0,0,,0,,,60,127
71183,note_on,0,0,0,,3,,,63,127
71531,note_off,348,0,0,,7,,,67,127
71532,note_on,1,0,0,,7,,,67,127
71705,note_off,173,0,0,,3,,,63,127
71705,note_off,0,0,0,,0,,,60,127
71706,note_on,1,0,0,,10,,,57,127
71706,note_on,0,0,0,,0,,,60,127
72054,note_off,348,0,0,,7,,,67,127
72055,note_on,1,0,0,,6,,,66,127
72228,note_off,173,0,0,,10,,,57,127
72228,note_off,0,0,0,,7,,,43,127
72229,note_on,1,0,0,,7,,,43,127
72229,note_on,0,0,0,,7,,,55,127
72518,note_off,289,0,0,,6,,,66,127
72604,note_on,86,0,0,,7,,,67,127
72751,note_off,147,0,0,,7,,,55,127
72751,note_off,0,0,0,,0,,,60,127
72840,note_on,89,0,0,,11,,,58,127
72840,note_on,0,0,0,,2,,,62,127
75245,note_off,2405,0,0,,7,,,43,127
75294,note_off,49,0,0,,2,,,62,127
75294,note_off,0,0,0,,11,,,58,127
75384,note_off,90,0,0,,7,,,67,127
81408,end_of_track,6024,1,0,,,,,,
