tick,type,key,time,meta,track,frame_rate,hours,minutes,seconds,frames,sub_frames,tempo,numerator,denominator,clocks_per_click,notated_32nd_notes_per_beat,control,value,channel,note,velocity
0,key_signature,C,0,1,0,,,,,,,,,,,,,,,,
0,smpte_offset,,0,1,0,25,32,0,0,0,0,,,,,,,,,,
0,set_tempo,,0,1,0,,,,,,,500000,,,,,,,,,
0,time_signature,,0,1,0,,,,,,,,4,4,24,8,,,,,
0,end_of_track,,0,1,0,,,,,,,,,,,,,,,,
0,control_change,,0,0,1,,,,,,,,,,,,64,127,0,,
0,control_change,,0,0,1,,,,,,,,,,,,64,0,0,,
0,note_on,,0,0,1,,,,,,,,,,,,,,0,69,31
72,note_on,,72,0,1,,,,,,,,,,,,,,0,69,0
252,note_on,,180,0,1,,,,,,,,,,,,,,0,74,55
276,note_on,,24,0,1,,,,,,,,,,,,,,0,62,25
280,note_on,,4,0,1,,,,,,,,,,,,,,0,65,27
508,note_on,,228,0,1,,,,,,,,,,,,,,0,76,55
562,note_on,,54,0,1,,,,,,,,,,,,,,0,74,0
762,note_on,,200,0,1,,,,,,,,,,,,,,0,77,77
778,note_on,,16,0,1,,,,,,,,,,,,,,0,76,0
1026,note_on,,248,0,1,,,,,,,,,,,,,,0,76,64
1034,note_on,,8,0,1,,,,,,,,,,,,,,0,65,0
1044,note_on,,10,0,1,,,,,,,,,,,,,,0,61,23
1044,note_on,,0,0,1,,,,,,,,,,,,,,0,64,32
1047,note_on,,3,0,1,,,,,,,,,,,,,,0,62,0
1058,note_on,,11,0,1,,,,,,,,,,,,,,0,77,0
1280,note_on,,222,0,1,,,,,,,,,,,,,,0,76,0
1286,note_on,,6,0,1,,,,,,,,,,,,,,0,81,55
1496,note_on,,210,0,1,,,,,,,,,,,,,,0,81,0
1522,note_on,,26,0,1,,,,,,,,,,,,,,0,69,36
1710,control_change,,188,0,1,,,,,,,,,,,,64,127,0,,
1736,note_on,,26,0,1,,,,,,,,,,,,,,0,69,0
1748,note_on,,12,0,1,,,,,,,,,,,,,,0,64,0
1770,note_on,,22,0,1,,,,,,,,,,,,,,0,77,54
1776,note_on,,6,0,1,,,,,,,,,,,,,,0,61,0
1792,note_on,,16,0,1,,,,,,,,,,,,,,0,62,26
1878,control_change,,86,0,1,,,,,,,,,,,,64,0,0,,
1978,note_on,,100,0,1,,,,,,,,,,,,,,0,77,0
1984,note_on,,6,0,1,,,,,,,,,,,,,,0,79,52
2042,note_on,,58,0,1,,,,,,,,,,,,,,0,79,0
2048,note_on,,6,0,1,,,,,,,,,,,,,,0,77,63
2070,note_on,,22,0,1,,,,,,,,,,,,,,0,65,28
2110,note_on,,40,0,1,,,,,,,,,,,,,,0,77,0
2126,control_change,,16,0,1,,,,,,,,,,,,64,127,0,,
2126,note_on,,0,0,1,,,,,,,,,,,,,,0,79,50
2186,note_on,,60,0,1,,,,,,,,,,,,,,0,79,0
2186,note_on,,0,0,1,,,,,,,,,,,,,,0,77,63
2236,note_on,,50,0,1,,,,,,,,,,,,,,0,77,0
2264,note_on,,28,0,1,,,,,,,,,,,,,,0,79,61
2304,note_on,,40,0,1,,,,,,,,,,,,,,0,77,65
2318,note_on,,14,0,1,,,,,,,,,,,,,,0,79,0
2324,note_on,,6,0,1,,,,,,,,,,,,,,0,69,21
2360,note_on,,36,0,1,,,,,,,,,,,,,,0,77,0
2386,note_on,,26,0,1,,,,,,,,,,,,,,0,79,65
2402,control_change,,16,0,1,,,,,,,,,,,,64,0,0,,
2442,note_on,,40,0,1,,,,,,,,,,,,,,0,77,54
2464,note_on,,22,0,1,,,,,,,,,,,,,,0,69,0
2470,note_on,,6,0,1,,,,,,,,,,,,,,0,79,0
2472,note_on,,2,0,1,,,,,,,,,,,,,,0,65,0
2562,note_on,,90,0,1,,,,,,,,,,,,,,0,76,58
2564,note_on,,2,0,1,,,,,,,,,,,,,,0,62,0
2567,note_on,,3,0,1,,,,,,,,,,,,,,0,77,0
2567,note_on,,0,0,1,,,,,,,,,,,,,,0,60,27
2838,note_on,,271,0,1,,,,,,,,,,,,,,0,64,35
2940,control_change,,102,0,1,,,,,,,,,,,,64,127,0,,
3004,note_on,,64,0,1,,,,,,,,,,,,,,0,64,0
3048,note_on,,44,0,1,,,,,,,,,,,,,,0,76,0
3068,note_on,,20,0,1,,,,,,,,,,,,,,0,60,0
3074,note_on,,6,0,1,,,,,,,,,,,,,,0,81,62
3098,note_on,,24,0,1,,,,,,,,,,,,,,0,69,29
3178,note_on,,80,0,1,,,,,,,,,,,,,,0,81,0
3190,note_on,,12,0,1,,,,,,,,,,,,,,0,69,0
3324,note_on,,134,0,1,,,,,,,,,,,,,,0,79,71
3338,note_on,,14,0,1,,,,,,,,,,,,,,0,62,37
3340,note_on,,2,0,1,,,,,,,,,,,,,,0,58,22
3354,control_change,,14,0,1,,,,,,,,,,,,64,0,0,,
3604,note_on,,250,0,1,,,,,,,,,,,,,,0,82,60
3626,note_on,,22,0,1,,,,,,,,,,,,,,0,79,0
3736,note_on,,110,0,1,,,,,,,,,,,,,,0,81,73
3780,note_on,,44,0,1,,,,,,,,,,,,,,0,82,0
3846,control_change,,66,0,1,,,,,,,,,,,,64,127,0,,
3862,note_on,,16,0,1,,,,,,,,,,,,,,0,79,77
3866,note_on,,4,0,1,,,,,,,,,,,,,,0,62,0
3888,note_on,,22,0,1,,,,,,,,,,,,,,0,81,0
3974,note_on,,86,0,1,,,,,,,,,,,,,,0,77,85
3994,note_on,,20,0,1,,,,,,,,,,,,,,0,79,0
4076,control_change,,82,0,1,,,,,,,,,,,,64,0,0,,
4112,note_on,,36,0,1,,,,,,,,,,,,,,0,64,36
4116,note_on,,4,0,1,,,,,,,,,,,,,,0,76,75
4119,note_on,,3,0,1,,,,,,,,,,,,,,0,55,22
4122,note_on,,3,0,1,,,,,,,,,,,,,,0,62,26
4124,note_on,,2,0,1,,,,,,,,,,,,,,0,58,0
4156,note_on,,32,0,1,,,,,,,,,,,,,,0,77,0
4398,note_on,,242,0,1,,,,,,,,,,,,,,0,79,67
4412,note_on,,14,0,1,,,,,,,,,,,,,,0,76,0
4526,note_on,,114,0,1,,,,,,,,,,,,,,0,77,69
4542,note_on,,16,0,1,,,,,,,,,,,,,,0,79,0
4630,control_change,,88,0,1,,,,,,,,,,,,64,127,0,,
4640,note_on,,10,0,1,,,,,,,,,,,,,,0,55,0
4642,note_on,,2,0,1,,,,,,,,,,,,,,0,76,50
4660,note_on,,18,0,1,,,,,,,,,,,,,,0,77,0
4746,note_on,,86,0,1,,,,,,,,,,,,,,0,74,64
4758,note_on,,12,0,1,,,,,,,,,,,,,,0,76,0
4792,note_on,,34,0,1,,,,,,,,,,,,,,0,74,0
4814,control_change,,22,0,1,,,,,,,,,,,,64,0,0,,
4816,note_on,,2,0,1,,,,,,,,,,,,,,0,62,0
4860,note_on,,44,0,1,,,,,,,,,,,,,,0,74,72
4868,note_on,,8,0,1,,,,,,,,,,,,,,0,57,43
4872,note_on,,4,0,1,,,,,,,,,,,,,,0,64,0
5114,note_on,,242,0,1,,,,,,,,,,,,,,0,61,62
5170,note_on,,56,0,1,,,,,,,,,,,,,,0,57,0
5352,note_on,,182,0,1,,,,,,,,,,,,,,0,73,44
5358,note_on,,6,0,1,,,,,,,,,,,,,,0,64,66
5364,note_on,,6,0,1,,,,,,,,,,,,,,0,61,0
5422,note_on,,58,0,1,,,,,,,,,,,,,,0,74,0
5594,note_on,,172,0,1,,,,,,,,,,,,,,0,64,0
5620,note_on,,26,0,1,,,,,,,,,,,,,,0,69,39
5724,note_on,,104,0,1,,,,,,,,,,,,,,0,69,0
5744,note_on,,20,0,1,,,,,,,,,,,,,,0,67,49
5838,note_on,,94,0,1,,,,,,,,,,,,,,0,67,0
5868,note_on,,30,0,1,,,,,,,,,,,,,,0,65,29
5974,note_on,,106,0,1,,,,,,,,,,,,,,0,65,0
5976,note_on,,2,0,1,,,,,,,,,,,,,,0,64,42
6056,note_on,,80,0,1,,,,,,,,,,,,,,0,64,0
6080,note_on,,24,0,1,,,,,,,,,,,,,,0,73,0
6094,note_on,,14,0,1,,,,,,,,,,,,,,0,81,51
6100,note_on,,6,0,1,,,,,,,,,,,,,,0,62,38
6220,note_on,,120,0,1,,,,,,,,,,,,,,0,81,0
6276,note_on,,56,0,1,,,,,,,,,,,,,,0,62,0
6366,note_on,,90,0,1,,,,,,,,,,,,,,0,72,60
6376,note_on,,10,0,1,,,,,,,,,,,,,,0,67,32
6598,note_on,,222,0,1,,,,,,,,,,,,,,0,70,48
6636,note_on,,38,0,1,,,,,,,,,,,,,,0,72,0
6660,note_on,,24,0,1,,,,,,,,,,,,,,0,67,0
6724,note_on,,64,0,1,,,,,,,,,,,,,,0,70,0
6846,note_on,,122,0,1,,,,,,,,,,,,,,0,79,76
6846,note_on,,0,0,1,,,,,,,,,,,,,,0,67,59
6896,note_on,,50,0,1,,,,,,,,,,,,,,0,67,0
6902,note_on,,6,0,1,,,,,,,,,,,,,,0,79,0
7084,note_on,,182,0,1,,,,,,,,,,,,,,0,70,62
7100,note_on,,16,0,1,,,,,,,,,,,,,,0,65,32
7322,note_on,,222,0,1,,,,,,,,,,,,,,0,70,0
7332,note_on,,10,0,1,,,,,,,,,,,,,,0,69,55
7374,note_on,,42,0,1,,,,,,,,,,,,,,0,65,0
7396,note_on,,22,0,1,,,,,,,,,,,,,,0,69,0
7568,note_on,,172,0,1,,,,,,,,,,,,,,0,77,64
7584,note_on,,16,0,1,,,,,,,,,,,,,,0,65,44
7632,note_on,,48,0,1,,,,,,,,,,,,,,0,65,0
7648,note_on,,16,0,1,,,,,,,,,,,,,,0,77,0
7814,note_on,,166,0,1,,,,,,,,,,,,,,0,69,53
7822,note_on,,8,0,1,,,,,,,,,,,,,,0,64,43
8010,control_change,,188,0,1,,,,,,,,,,,,64,127,0,,
8024,note_on,,14,0,1,,,,,,,,,,,,,,0,69,0
8029,note_on,,5,0,1,,,,,,,,,,,,,,0,67,50
8064,note_on,,35,0,1,,,,,,,,,,,,,,0,64,0
8086,control_change,,22,0,1,,,,,,,,,,,,64,0,0,,
8088,note_on,,2,0,1,,,,,,,,,,,,,,0,67,0
8254,note_on,,166,0,1,,,,,,,,,,,,,,0,64,54
8258,note_on,,4,0,1,,,,,,,,,,,,,,0,76,54
8300,note_on,,42,0,1,,,,,,,,,,,,,,0,64,0
8306,note_on,,6,0,1,,,,,,,,,,,,,,0,76,0
8494,note_on,,188,0,1,,,,,,,,,,,,,,0,67,61
8508,note_on,,14,0,1,,,,,,,,,,,,,,0,62,46
8692,note_on,,184,0,1,,,,,,,,,,,,,,0,67,0
8720,note_on,,28,0,1,,,,,,,,,,,,,,0,65,54
8756,note_on,,36,0,1,,,,,,,,,,,,,,0,62,0
8762,control_change,,6,0,1,,,,,,,,,,,,64,127,0,,
8782,note_on,,20,0,1,,,,,,,,,,,,,,0,65,0
8808,control_change,,26,0,1,,,,,,,,,,,,64,0,0,,
8944,note_on,,136,0,1,,,,,,,,,,,,,,0,74,65
8952,note_on,,8,0,1,,,,,,,,,,,,,,0,62,50
8992,note_on,,40,0,1,,,,,,,,,,,,,,0,74,0
9000,note_on,,8,0,1,,,,,,,,,,,,,,0,62,0
9190,note_on,,190,0,1,,,,,,,,,,,,,,0,65,59
9193,note_on,,3,0,1,,,,,,,,,,,,,,0,60,49
9378,note_on,,185,0,1,,,,,,,,,,,,,,0,65,0
9408,control_change,,30,0,1,,,,,,,,,,,,64,127,0,,
9416,note_on,,8,0,1,,,,,,,,,,,,,,0,64,52
9466,note_on,,50,0,1,,,,,,,,,,,,,,0,60,0
9474,note_on,,8,0,1,,,,,,,,,,,,,,0,64,0
9500,control_change,,26,0,1,,,,,,,,,,,,64,0,0,,
9634,note_on,,134,0,1,,,,,,,,,,,,,,0,60,48
9638,note_on,,4,0,1,,,,,,,,,,,,,,0,72,43
9692,note_on,,54,0,1,,,,,,,,,,,,,,0,72,0
9694,note_on,,2,0,1,,,,,,,,,,,,,,0,60,0
9874,note_on,,180,0,1,,,,,,,,,,,,,,0,58,33
9884,note_on,,10,0,1,,,,,,,,,,,,,,0,64,46
9970,note_on,,86,0,1,,,,,,,,,,,,,,0,64,0
10084,control_change,,114,0,1,,,,,,,,,,,,64,127,0,,
10102,note_on,,18,0,1,,,,,,,,,,,,,,0,62,44
10128,note_on,,26,0,1,,,,,,,,,,,,,,0,58,0
10160,note_on,,32,0,1,,,,,,,,,,,,,,0,62,0
10160,control_change,,0,0,1,,,,,,,,,,,,64,0,0,,
10308,note_on,,148,0,1,,,,,,,,,,,,,,0,58,42
10316,note_on,,8,0,1,,,,,,,,,,,,,,0,70,38
10366,note_on,,50,0,1,,,,,,,,,,,,,,0,58,0
10376,note_on,,10,0,1,,,,,,,,,,,,,,0,70,0
10564,note_on,,188,0,1,,,,,,,,,,,,,,0,60,58
10568,note_on,,4,0,1,,,,,,,,,,,,,,0,57,36
10752,note_on,,184,0,1,,,,,,,,,,,,,,0,60,0
10760,note_on,,8,0,1,,,,,,,,,,,,,,0,57,0
10796,note_on,,36,0,1,,,,,,,,,,,,,,0,62,40
10806,note_on,,10,0,1,,,,,,,,,,,,,,0,58,30
10854,note_on,,48,0,1,,,,,,,,,,,,,,0,62,0
10875,note_on,,21,0,1,,,,,,,,,,,,,,0,64,57
10878,note_on,,3,0,1,,,,,,,,,,,,,,0,60,51
10888,note_on,,10,0,1,,,,,,,,,,,,,,0,58,0
10925,note_on,,37,0,1,,,,,,,,,,,,,,0,64,0
10959,note_on,,34,0,1,,,,,,,,,,,,,,0,65,33
10968,note_on,,9,0,1,,,,,,,,,,,,,,0,62,25
10975,note_on,,7,0,1,,,,,,,,,,,,,,0,60,0
11023,note_on,,48,0,1,,,,,,,,,,,,,,0,65,0
11030,note_on,,7,0,1,,,,,,,,,,,,,,0,62,0
11076,note_on,,46,0,1,,,,,,,,,,,,,,0,67,42
11076,note_on,,0,0,1,,,,,,,,,,,,,,0,64,45
11136,note_on,,60,0,1,,,,,,,,,,,,,,0,64,0
11142,note_on,,6,0,1,,,,,,,,,,,,,,0,67,0
11178,note_on,,36,0,1,,,,,,,,,,,,,,0,69,54
11178,note_on,,0,0,1,,,,,,,,,,,,,,0,65,43
11228,note_on,,50,0,1,,,,,,,,,,,,,,0,65,0
11232,note_on,,4,0,1,,,,,,,,,,,,,,0,69,0
11402,note_on,,170,0,1,,,,,,,,,,,,,,0,67,42
11418,note_on,,16,0,1,,,,,,,,,,,,,,0,64,43
11462,note_on,,44,0,1,,,,,,,,,,,,,,0,67,0
11472,note_on,,10,0,1,,,,,,,,,,,,,,0,64,0
11616,note_on,,144,0,1,,,,,,,,,,,,,,0,62,48
11619,note_on,,3,0,1,,,,,,,,,,,,,,0,65,39
11668,note_on,,49,0,1,,,,,,,,,,,,,,0,62,0
11674,note_on,,6,0,1,,,,,,,,,,,,,,0,65,0
11822,note_on,,148,0,1,,,,,,,,,,,,,,0,64,57
11825,note_on,,3,0,1,,,,,,,,,,,,,,0,60,51
11872,note_on,,47,0,1,,,,,,,,,,,,,,0,64,0
11922,note_on,,50,0,1,,,,,,,,,,,,,,0,60,0
11934,note_on,,12,0,1,,,,,,,,,,,,,,0,65,36
11937,note_on,,3,0,1,,,,,,,,,,,,,,0,62,35
11992,note_on,,55,0,1,,,,,,,,,,,,,,0,65,0
12002,note_on,,10,0,1,,,,,,,,,,,,,,0,62,0
12022,note_on,,20,0,1,,,,,,,,,,,,,,0,67,51
12025,note_on,,3,0,1,,,,,,,,,,,,,,0,64,46
12078,note_on,,53,0,1,,,,,,,,,,,,,,0,67,0
12078,note_on,,0,0,1,,,,,,,,,,,,,,0,64,0
12112,note_on,,34,0,1,,,,,,,,,,,,,,0,69,42
12113,note_on,,1,0,1,,,,,,,,,,,,,,0,65,42
12171,note_on,,58,0,1,,,,,,,,,,,,,,0,65,0
12176,note_on,,5,0,1,,,,,,,,,,,,,,0,69,0
12179,note_on,,3,0,1,,,,,,,,,,,,,,0,70,56
12179,note_on,,0,0,1,,,,,,,,,,,,,,0,67,34
12226,note_on,,47,0,1,,,,,,,,,,,,,,0,70,0
12270,note_on,,44,0,1,,,,,,,,,,,,,,0,72,64
12271,note_on,,1,0,1,,,,,,,,,,,,,,0,67,0
12273,note_on,,2,0,1,,,,,,,,,,,,,,0,69,43
12320,note_on,,47,0,1,,,,,,,,,,,,,,0,72,0
12322,note_on,,2,0,1,,,,,,,,,,,,,,0,69,0
12358,note_on,,36,0,1,,,,,,,,,,,,,,0,70,67
12372,note_on,,14,0,1,,,,,,,,,,,,,,0,74,80
12410,note_on,,38,0,1,,,,,,,,,,,,,,0,70,0
12413,note_on,,3,0,1,,,,,,,,,,,,,,0,74,0
12590,note_on,,177,0,1,,,,,,,,,,,,,,0,72,57
12602,note_on,,12,0,1,,,,,,,,,,,,,,0,69,50
12642,note_on,,40,0,1,,,,,,,,,,,,,,0,72,0
12658,note_on,,16,0,1,,,,,,,,,,,,,,0,69,0
12792,note_on,,134,0,1,,,,,,,,,,,,,,0,70,52
12804,note_on,,12,0,1,,,,,,,,,,,,,,0,67,68
12848,note_on,,44,0,1,,,,,,,,,,,,,,0,70,0
12850,note_on,,2,0,1,,,,,,,,,,,,,,0,67,0
13038,note_on,,188,0,1,,,,,,,,,,,,,,0,69,55
13052,note_on,,14,0,1,,,,,,,,,,,,,,0,65,55
13158,control_change,,106,0,1,,,,,,,,,,,,64,127,0,,
13218,note_on,,60,0,1,,,,,,,,,,,,,,0,69,0
13236,note_on,,18,0,1,,,,,,,,,,,,,,0,65,0
13250,note_on,,14,0,1,,,,,,,,,,,,,,0,70,44
13260,note_on,,10,0,1,,,,,,,,,,,,,,0,67,44
13310,note_on,,50,0,1,,,,,,,,,,,,,,0,70,0
13344,note_on,,34,0,1,,,,,,,,,,,,,,0,72,50
13350,note_on,,6,0,1,,,,,,,,,,,,,,0,67,0
13350,note_on,,0,0,1,,,,,,,,,,,,,,0,69,24
13356,control_change,,6,0,1,,,,,,,,,,,,64,0,0,,
13396,note_on,,40,0,1,,,,,,,,,,,,,,0,72,0
13428,note_on,,32,0,1,,,,,,,,,,,,,,0,69,0
13448,note_on,,20,0,1,,,,,,,,,,,,,,0,70,50
13454,note_on,,6,0,1,,,,,,,,,,,,,,0,74,45
13508,note_on,,54,0,1,,,,,,,,,,,,,,0,74,0
13536,note_on,,28,0,1,,,,,,,,,,,,,,0,70,0
13542,note_on,,6,0,1,,,,,,,,,,,,,,0,76,63
13544,note_on,,2,0,1,,,,,,,,,,,,,,0,72,26
13592,note_on,,48,0,1,,,,,,,,,,,,,,0,76,0
13618,note_on,,26,0,1,,,,,,,,,,,,,,0,72,0
13618,note_on,,0,0,1,,,,,,,,,,,,,,0,77,88
13630,note_on,,12,0,1,,,,,,,,,,,,,,0,74,71
13670,note_on,,40,0,1,,,,,,,,,,,,,,0,74,0
13704,note_on,,34,0,1,,,,,,,,,,,,,,0,77,0
13832,note_on,,128,0,1,,,,,,,,,,,,,,0,76,75
13835,note_on,,3,0,1,,,,,,,,,,,,,,0,72,73
13880,note_on,,45,0,1,,,,,,,,,,,,,,0,72,0
13888,note_on,,8,0,1,,,,,,,,,,,,,,0,76,0
14044,note_on,,156,0,1,,,,,,,,,,,,,,0,70,61
14046,note_on,,2,0,1,,,,,,,,,,,,,,0,74,86
14088,note_on,,42,0,1,,,,,,,,,,,,,,0,70,0
14138,note_on,,50,0,1,,,,,,,,,,,,,,0,74,0
14254,note_on,,116,0,1,,,,,,,,,,,,,,0,72,82
14260,note_on,,6,0,1,,,,,,,,,,,,,,0,69,59
14364,note_on,,104,0,1,,,,,,,,,,,,,,0,72,0
14374,note_on,,10,0,1,,,,,,,,,,,,,,0,70,50
14386,note_on,,12,0,1,,,,,,,,,,,,,,0,74,66
14406,note_on,,20,0,1,,,,,,,,,,,,,,0,69,0
14436,note_on,,30,0,1,,,,,,,,,,,,,,0,74,0
14462,note_on,,26,0,1,,,,,,,,,,,,,,0,76,63
14462,control_change,,0,0,1,,,,,,,,,,,,64,127,0,,
14464,note_on,,2,0,1,,,,,,,,,,,,,,0,72,51
14504,note_on,,40,0,1,,,,,,,,,,,,,,0,76,0
14512,note_on,,8,0,1,,,,,,,,,,,,,,0,70,0
14524,control_change,,12,0,1,,,,,,,,,,,,64,0,0,,
14526,note_on,,2,0,1,,,,,,,,,,,,,,0,72,0
14548,note_on,,22,0,1,,,,,,,,,,,,,,0,77,66
14551,note_on,,3,0,1,,,,,,,,,,,,,,0,74,55
14590,note_on,,39,0,1,,,,,,,,,,,,,,0,77,0
14592,note_on,,2,0,1,,,,,,,,,,,,,,0,74,0
14626,note_on,,34,0,1,,,,,,,,,,,,,,0,79,71
14628,note_on,,2,0,1,,,,,,,,,,,,,,0,76,27
14672,note_on,,44,0,1,,,,,,,,,,,,,,0,79,0
14702,note_on,,30,0,1,,,,,,,,,,,,,,0,81,57
14704,note_on,,2,0,1,,,,,,,,,,,,,,0,77,59
14716,note_on,,12,0,1,,,,,,,,,,,,,,0,76,0
14756,note_on,,40,0,1,,,,,,,,,,,,,,0,77,0
14768,note_on,,12,0,1,,,,,,,,,,,,,,0,81,0
14784,note_on,,16,0,1,,,,,,,,,,,,,,0,82,52
14791,note_on,,7,0,1,,,,,,,,,,,,,,0,79,49
14844,note_on,,53,0,1,,,,,,,,,,,,,,0,81,76
14849,note_on,,5,0,1,,,,,,,,,,,,,,0,79,0
14860,note_on,,11,0,1,,,,,,,,,,,,,,0,84,94
14872,note_on,,12,0,1,,,,,,,,,,,,,,0,82,0
14950,note_on,,78,0,1,,,,,,,,,,,,,,0,81,0
14960,note_on,,10,0,1,,,,,,,,,,,,,,0,84,0
15084,note_on,,124,0,1,,,,,,,,,,,,,,0,82,78
15104,note_on,,20,0,1,,,,,,,,,,,,,,0,79,75
15150,note_on,,46,0,1,,,,,,,,,,,,,,0,79,0
15166,note_on,,16,0,1,,,,,,,,,,,,,,0,82,0
15322,note_on,,156,0,1,,,,,,,,,,,,,,0,77,64
15328,note_on,,6,0,1,,,,,,,,,,,,,,0,81,79
15360,note_on,,32,0,1,,,,,,,,,,,,,,0,77,0
15416,note_on,,56,0,1,,,,,,,,,,,,,,0,81,0
15582,note_on,,166,0,1,,,,,,,,,,,,,,0,79,85
15584,note_on,,2,0,1,,,,,,,,,,,,,,0,60,67
15822,note_on,,238,0,1,,,,,,,,,,,,,,0,81,55
15826,note_on,,4,0,1,,,,,,,,,,,,,,0,79,0
15874,note_on,,48,0,1,,,,,,,,,,,,,,0,81,0
15892,control_change,,18,0,1,,,,,,,,,,,,64,127,0,,
15908,note_on,,16,0,1,,,,,,,,,,,,,,0,79,50
15970,note_on,,62,0,1,,,,,,,,,,,,,,0,79,0
15984,note_on,,14,0,1,,,,,,,,,,,,,,0,81,51
16036,note_on,,52,0,1,,,,,,,,,,,,,,0,81,0
16046,note_on,,10,0,1,,,,,,,,,,,,,,0,79,60
16112,note_on,,66,0,1,,,,,,,,,,,,,,0,79,0
16112,note_on,,0,0,1,,,,,,,,,,,,,,0,81,47
16170,note_on,,58,0,1,,,,,,,,,,,,,,0,81,0
16198,note_on,,28,0,1,,,,,,,,,,,,,,0,79,41
16240,note_on,,42,0,1,,,,,,,,,,,,,,0,81,57
16262,control_change,,22,0,1,,,,,,,,,,,,64,0,0,,
16296,note_on,,34,0,1,,,,,,,,,,,,,,0,81,0
16368,note_on,,72,0,1,,,,,,,,,,,,,,0,79,0
16368,note_on,,0,0,1,,,,,,,,,,,,,,0,81,55
16406,note_on,,38,0,1,,,,,,,,,,,,,,0,67,35
16418,note_on,,12,0,1,,,,,,,,,,,,,,0,79,54
16418,note_on,,0,0,1,,,,,,,,,,,,,,0,64,39
16430,note_on,,12,0,1,,,,,,,,,,,,,,0,81,0
16446,note_on,,16,0,1,,,,,,,,,,,,,,0,60,0
16528,note_on,,82,0,1,,,,,,,,,,,,,,0,79,0
16644,note_on,,116,0,1,,,,,,,,,,,,,,0,84,83
16712,note_on,,68,0,1,,,,,,,,,,,,,,0,84,0
16876,note_on,,164,0,1,,,,,,,,,,,,,,0,72,84
16958,note_on,,82,0,1,,,,,,,,,,,,,,0,72,0
17118,note_on,,160,0,1,,,,,,,,,,,,,,0,67,0
17130,note_on,,12,0,1,,,,,,,,,,,,,,0,64,0
17132,note_on,,2,0,1,,,,,,,,,,,,,,0,69,31
17134,note_on,,2,0,1,,,,,,,,,,,,,,0,74,79
17150,note_on,,16,0,1,,,,,,,,,,,,,,0,65,24
17174,note_on,,24,0,1,,,,,,,,,,,,,,0,74,0
17200,note_on,,26,0,1,,,,,,,,,,,,,,0,76,54
17254,note_on,,54,0,1,,,,,,,,,,,,,,0,76,0
17266,note_on,,12,0,1,,,,,,,,,,,,,,0,74,41
17324,note_on,,58,0,1,,,,,,,,,,,,,,0,74,0
17336,note_on,,12,0,1,,,,,,,,,,,,,,0,76,47
17392,note_on,,56,0,1,,,,,,,,,,,,,,0,76,0
17406,note_on,,14,0,1,,,,,,,,,,,,,,0,74,57
17450,note_on,,44,0,1,,,,,,,,,,,,,,0,74,0
17470,note_on,,20,0,1,,,,,,,,,,,,,,0,76,49
17524,note_on,,54,0,1,,,,,,,,,,,,,,0,74,65
17530,note_on,,6,0,1,,,,,,,,,,,,,,0,76,0
17616,note_on,,86,0,1,,,,,,,,,,,,,,0,72,44
17620,note_on,,4,0,1,,,,,,,,,,,,,,0,74,0
17678,note_on,,58,0,1,,,,,,,,,,,,,,0,72,0
17838,note_on,,160,0,1,,,,,,,,,,,,,,0,69,0
17844,note_on,,6,0,1,,,,,,,,,,,,,,0,65,0
17850,note_on,,6,0,1,,,,,,,,,,,,,,0,72,53
17868,note_on,,18,0,1,,,,,,,,,,,,,,0,67,25
17882,note_on,,14,0,1,,,,,,,,,,,,,,0,64,29
17916,note_on,,34,0,1,,,,,,,,,,,,,,0,72,0
18098,note_on,,182,0,1,,,,,,,,,,,,,,0,84,54
18158,note_on,,60,0,1,,,,,,,,,,,,,,0,84,0
18330,note_on,,172,0,1,,,,,,,,,,,,,,0,72,52
18384,note_on,,54,0,1,,,,,,,,,,,,,,0,72,0
18566,note_on,,182,0,1,,,,,,,,,,,,,,0,74,61
18569,note_on,,3,0,1,,,,,,,,,,,,,,0,67,0
18569,note_on,,0,0,1,,,,,,,,,,,,,,0,69,24
18574,note_on,,5,0,1,,,,,,,,,,,,,,0,64,0
18602,note_on,,28,0,1,,,,,,,,,,,,,,0,65,13
18608,note_on,,6,0,1,,,,,,,,,,,,,,0,74,0
18628,note_on,,20,0,1,,,,,,,,,,,,,,0,76,45
18691,note_on,,63,0,1,,,,,,,,,,,,,,0,76,0
18698,note_on,,7,0,1,,,,,,,,,,,,,,0,74,32
18762,note_on,,64,0,1,,,,,,,,,,,,,,0,74,0
18786,note_on,,24,0,1,,,,,,,,,,,,,,0,76,20
18802,note_on,,16,0,1,,,,,,,,,,,,,,0,74,34
18862,note_on,,60,0,1,,,,,,,,,,,,,,0,74,0
18954,note_on,,92,0,1,,,,,,,,,,,,,,0,74,33
19000,note_on,,46,0,1,,,,,,,,,,,,,,0,76,0
19062,note_on,,62,0,1,,,,,,,,,,,,,,0,74,0
19064,note_on,,2,0,1,,,,,,,,,,,,,,0,72,40
19138,note_on,,74,0,1,,,,,,,,,,,,,,0,72,0
19288,note_on,,150,0,1,,,,,,,,,,,,,,0,69,0
19300,note_on,,12,0,1,,,,,,,,,,,,,,0,65,0
19303,note_on,,3,0,1,,,,,,,,,,,,,,0,72,42
19306,note_on,,3,0,1,,,,,,,,,,,,,,0,64,24
19316,note_on,,10,0,1,,,,,,,,,,,,,,0,67,22
19552,note_on,,236,0,1,,,,,,,,,,,,,,0,64,0
19558,note_on,,6,0,1,,,,,,,,,,,,,,0,72,0
19564,control_change,,6,0,1,,,,,,,,,,,,64,127,0,,
19578,note_on,,14,0,1,,,,,,,,,,,,,,0,84,59
19600,note_on,,22,0,1,,,,,,,,,,,,,,0,62,31
19686,note_on,,86,0,1,,,,,,,,,,,,,,0,67,0
19762,note_on,,76,0,1,,,,,,,,,,,,,,0,62,0
19810,note_on,,48,0,1,,,,,,,,,,,,,,0,82,59
19828,note_on,,18,0,1,,,,,,,,,,,,,,0,60,39
19880,note_on,,52,0,1,,,,,,,,,,,,,,0,84,0
20042,control_change,,162,0,1,,,,,,,,,,,,64,0,0,,
20050,note_on,,8,0,1,,,,,,,,,,,,,,0,81,65
20062,note_on,,12,0,1,,,,,,,,,,,,,,0,60,0
20070,note_on,,8,0,1,,,,,,,,,,,,,,0,69,33
20090,note_on,,20,0,1,,,,,,,,,,,,,,0,65,21
20142,note_on,,52,0,1,,,,,,,,,,,,,,0,82,0
20304,note_on,,162,0,1,,,,,,,,,,,,,,0,79,76
20374,note_on,,70,0,1,,,,,,,,,,,,,,0,81,0
20426,control_change,,52,0,1,,,,,,,,,,,,64,127,0,,
20528,note_on,,102,0,1,,,,,,,,,,,,,,0,58,24
20532,note_on,,4,0,1,,,,,,,,,,,,,,0,79,0
20544,note_on,,12,0,1,,,,,,,,,,,,,,0,77,78
20558,note_on,,14,0,1,,,,,,,,,,,,,,0,65,0
20652,note_on,,94,0,1,,,,,,,,,,,,,,0,77,0
20794,control_change,,142,0,1,,,,,,,,,,,,64,0,0,,
20800,note_on,,6,0,1,,,,,,,,,,,,,,0,77,64
20812,note_on,,12,0,1,,,,,,,,,,,,,,0,60,35
20832,note_on,,20,0,1,,,,,,,,,,,,,,0,58,0
21036,note_on,,204,0,1,,,,,,,,,,,,,,0,79,53
21039,note_on,,3,0,1,,,,,,,,,,,,,,0,77,0
21206,note_on,,167,0,1,,,,,,,,,,,,,,0,69,0
21248,note_on,,42,0,1,,,,,,,,,,,,,,0,76,50
21251,note_on,,3,0,1,,,,,,,,,,,,,,0,79,0
21254,note_on,,3,0,1,,,,,,,,,,,,,,0,67,36
21284,note_on,,30,0,1,,,,,,,,,,,,,,0,60,0
21326,note_on,,42,0,1,,,,,,,,,,,,,,0,67,0
21434,note_on,,108,0,1,,,,,,,,,,,,,,0,76,0
21472,note_on,,38,0,1,,,,,,,,,,,,,,0,65,50
21484,note_on,,12,0,1,,,,,,,,,,,,,,0,77,47
21522,note_on,,38,0,1,,,,,,,,,,,,,,0,65,0
21532,note_on,,10,0,1,,,,,,,,,,,,,,0,77,0
21550,note_on,,18,0,1,,,,,,,,,,,,,,0,79,56
21604,note_on,,54,0,1,,,,,,,,,,,,,,0,77,50
21610,note_on,,6,0,1,,,,,,,,,,,,,,0,79,0
21666,note_on,,56,0,1,,,,,,,,,,,,,,0,77,0
21684,note_on,,18,0,1,,,,,,,,,,,,,,0,60,34
21706,note_on,,22,0,1,,,,,,,,,,,,,,0,79,30
21758,note_on,,52,0,1,,,,,,,,,,,,,,0,60,0
21766,note_on,,8,0,1,,,,,,,,,,,,,,0,77,38
21770,note_on,,4,0,1,,,,,,,,,,,,,,0,79,0
21810,note_on,,40,0,1,,,,,,,,,,,,,,0,79,36
21824,note_on,,14,0,1,,,,,,,,,,,,,,0,77,0
21862,note_on,,38,0,1,,,,,,,,,,,,,,0,53,73
21874,note_on,,12,0,1,,,,,,,,,,,,,,0,79,0
21894,note_on,,20,0,1,,,,,,,,,,,,,,0,77,9
21906,note_on,,12,0,1,,,,,,,,,,,,,,0,53,0
21932,note_on,,26,0,1,,,,,,,,,,,,,,0,79,22
22006,note_on,,74,0,1,,,,,,,,,,,,,,0,79,0
22108,note_on,,102,0,1,,,,,,,,,,,,,,0,48,57
22258,note_on,,150,0,1,,,,,,,,,,,,,,0,77,0
22336,note_on,,78,0,1,,,,,,,,,,,,,,0,79,72
22382,note_on,,46,0,1,,,,,,,,,,,,,,0,79,0
22548,note_on,,166,0,1,,,,,,,,,,,,,,0,72,61
22580,note_on,,32,0,1,,,,,,,,,,,,,,0,48,0
22600,note_on,,20,0,1,,,,,,,,,,,,,,0,72,0
22780,note_on,,180,0,1,,,,,,,,,,,,,,0,81,67
22784,note_on,,4,0,1,,,,,,,,,,,,,,0,77,60
22794,note_on,,10,0,1,,,,,,,,,,,,,,0,65,32
22828,note_on,,34,0,1,,,,,,,,,,,,,,0,77,0
22852,note_on,,24,0,1,,,,,,,,,,,,,,0,65,0
22852,note_on,,0,0,1,,,,,,,,,,,,,,0,79,50
22918,note_on,,66,0,1,,,,,,,,,,,,,,0,79,0
22921,note_on,,3,0,1,,,,,,,,,,,,,,0,77,28
22986,note_on,,65,0,1,,,,,,,,,,,,,,0,77,0
22992,note_on,,6,0,1,,,,,,,,,,,,,,0,79,64
23006,note_on,,14,0,1,,,,,,,,,,,,,,0,60,49
23058,note_on,,52,0,1,,,,,,,,,,,,,,0,79,0
23061,note_on,,3,0,1,,,,,,,,,,,,,,0,60,0
23072,note_on,,11,0,1,,,,,,,,,,,,,,0,77,45
23126,note_on,,54,0,1,,,,,,,,,,,,,,0,77,0
23142,note_on,,16,0,1,,,,,,,,,,,,,,0,79,54
23200,note_on,,58,0,1,,,,,,,,,,,,,,0,79,0
23206,note_on,,6,0,1,,,,,,,,,,,,,,0,77,55
23218,note_on,,12,0,1,,,,,,,,,,,,,,0,53,63
23254,note_on,,36,0,1,,,,,,,,,,,,,,0,77,0
23268,note_on,,14,0,1,,,,,,,,,,,,,,0,53,0
23278,note_on,,10,0,1,,,,,,,,,,,,,,0,79,59
23328,note_on,,50,0,1,,,,,,,,,,,,,,0,77,60
23364,note_on,,36,0,1,,,,,,,,,,,,,,0,79,0
23452,note_on,,88,0,1,,,,,,,,,,,,,,0,48,54
23616,note_on,,164,0,1,,,,,,,,,,,,,,0,81,0
23622,note_on,,6,0,1,,,,,,,,,,,,,,0,77,0
23684,note_on,,62,0,1,,,,,,,,,,,,,,0,79,77
23724,note_on,,40,0,1,,,,,,,,,,,,,,0,79,0
23902,note_on,,178,0,1,,,,,,,,,,,,,,0,72,69
23904,note_on,,2,0,1,,,,,,,,,,,,,,0,48,0
23948,note_on,,44,0,1,,,,,,,,,,,,,,0,72,0
24128,note_on,,180,0,1,,,,,,,,,,,,,,0,81,77
24130,note_on,,2,0,1,,,,,,,,,,,,,,0,65,68
24130,note_on,,0,0,1,,,,,,,,,,,,,,0,77,66
24172,note_on,,42,0,1,,,,,,,,,,,,,,0,77,0
24175,note_on,,3,0,1,,,,,,,,,,,,,,0,65,0
24194,note_on,,19,0,1,,,,,,,,,,,,,,0,79,59
24254,note_on,,60,0,1,,,,,,,,,,,,,,0,79,0
24272,note_on,,18,0,1,,,,,,,,,,,,,,0,77,36
24330,note_on,,58,0,1,,,,,,,,,,,,,,0,77,0
24334,note_on,,4,0,1,,,,,,,,,,,,,,0,79,63
24350,note_on,,16,0,1,,,,,,,,,,,,,,0,60,50
24402,note_on,,52,0,1,,,,,,,,,,,,,,0,79,0
24408,note_on,,6,0,1,,,,,,,,,,,,,,0,60,0
24414,note_on,,6,0,1,,,,,,,,,,,,,,0,77,54
24470,note_on,,56,0,1,,,,,,,,,,,,,,0,77,0
24488,note_on,,18,0,1,,,,,,,,,,,,,,0,79,55
24544,note_on,,56,0,1,,,,,,,,,,,,,,0,53,92
24544,note_on,,0,0,1,,,,,,,,,,,,,,0,77,60
24550,note_on,,6,0,1,,,,,,,,,,,,,,0,79,0
24580,note_on,,30,0,1,,,,,,,,,,,,,,0,53,0
24608,note_on,,28,0,1,,,,,,,,,,,,,,0,77,0
24628,note_on,,20,0,1,,,,,,,,,,,,,,0,79,73
24692,note_on,,64,0,1,,,,,,,,,,,,,,0,77,52
24712,note_on,,20,0,1,,,,,,,,,,,,,,0,79,0
24818,note_on,,106,0,1,,,,,,,,,,,,,,0,36,81
25024,note_on,,206,0,1,,,,,,,,,,,,,,0,79,85
25044,note_on,,20,0,1,,,,,,,,,,,,,,0,36,0
25084,note_on,,40,0,1,,,,,,,,,,,,,,0,77,0
25087,note_on,,3,0,1,,,,,,,,,,,,,,0,81,0
25108,note_on,,21,0,1,,,,,,,,,,,,,,0,79,0
25228,note_on,,120,0,1,,,,,,,,,,,,,,0,64,63
25231,note_on,,3,0,1,,,,,,,,,,,,,,0,72,76
25270,note_on,,39,0,1,,,,,,,,,,,,,,0,64,0
25276,note_on,,6,0,1,,,,,,,,,,,,,,0,72,0
25480,note_on,,204,0,1,,,,,,,,,,,,,,0,77,80
25482,note_on,,2,0,1,,,,,,,,,,,,,,0,81,83
25485,note_on,,3,0,1,,,,,,,,,,,,,,0,65,60
25662,note_on,,177,0,1,,,,,,,,,,,,,,0,77,0
25706,note_on,,44,0,1,,,,,,,,,,,,,,0,82,79
25714,note_on,,8,0,1,,,,,,,,,,,,,,0,79,82
25730,note_on,,16,0,1,,,,,,,,,,,,,,0,81,0
25938,note_on,,208,0,1,,,,,,,,,,,,,,0,79,0
25940,note_on,,2,0,1,,,,,,,,,,,,,,0,82,0
25948,note_on,,8,0,1,,,,,,,,,,,,,,0,84,86
25948,note_on,,0,0,1,,,,,,,,,,,,,,0,81,65
26024,note_on,,76,0,1,,,,,,,,,,,,,,0,65,0
26190,note_on,,166,0,1,,,,,,,,,,,,,,0,58,59
26190,note_on,,0,0,1,,,,,,,,,,,,,,0,65,66
26193,note_on,,3,0,1,,,,,,,,,,,,,,0,62,63
26390,note_on,,197,0,1,,,,,,,,,,,,,,0,81,0
26408,note_on,,18,0,1,,,,,,,,,,,,,,0,82,68
26411,note_on,,3,0,1,,,,,,,,,,,,,,0,79,82
26478,note_on,,67,0,1,,,,,,,,,,,,,,0,84,0
26592,note_on,,114,0,1,,,,,,,,,,,,,,0,79,0
26638,note_on,,46,0,1,,,,,,,,,,,,,,0,77,67
26638,note_on,,0,0,1,,,,,,,,,,,,,,0,81,78
26676,note_on,,38,0,1,,,,,,,,,,,,,,0,82,0
26692,note_on,,16,0,1,,,,,,,,,,,,,,0,65,0
26695,note_on,,3,0,1,,,,,,,,,,,,,,0,62,0
26738,note_on,,43,0,1,,,,,,,,,,,,,,0,58,0
26740,control_change,,2,0,1,,,,,,,,,,,,64,127,0,,
26768,note_on,,28,0,1,,,,,,,,,,,,,,0,77,0
26816,control_change,,48,0,1,,,,,,,,,,,,64,0,0,,
26874,note_on,,58,0,1,,,,,,,,,,,,,,0,60,68
26876,note_on,,2,0,1,,,,,,,,,,,,,,0,79,88
26882,note_on,,6,0,1,,,,,,,,,,,,,,0,48,54
26904,note_on,,22,0,1,,,,,,,,,,,,,,0,81,0
26980,note_on,,76,0,1,,,,,,,,,,,,,,0,79,0
26986,note_on,,6,0,1,,,,,,,,,,,,,,0,77,75
27086,note_on,,100,0,1,,,,,,,,,,,,,,0,76,79
27114,note_on,,28,0,1,,,,,,,,,,,,,,0,77,0
27192,note_on,,78,0,1,,,,,,,,,,,,,,0,74,82
27210,note_on,,18,0,1,,,,,,,,,,,,,,0,76,0
27288,note_on,,78,0,1,,,,,,,,,,,,,,0,72,64
27300,note_on,,12,0,1,,,,,,,,,,,,,,0,74,0
27392,note_on,,92,0,1,,,,,,,,,,,,,,0,70,69
27412,note_on,,20,0,1,,,,,,,,,,,,,,0,72,0
27474,note_on,,62,0,1,,,,,,,,,,,,,,0,60,0
27496,note_on,,22,0,1,,,,,,,,,,,,,,0,69,63
27506,note_on,,10,0,1,,,,,,,,,,,,,,0,48,0
27550,note_on,,44,0,1,,,,,,,,,,,,,,0,70,0
27598,note_on,,48,0,1,,,,,,,,,,,,,,0,67,73
27622,note_on,,24,0,1,,,,,,,,,,,,,,0,69,0
27678,note_on,,56,0,1,,,,,,,,,,,,,,0,67,0
27690,note_on,,12,0,1,,,,,,,,,,,,,,0,65,56
27794,note_on,,104,0,1,,,,,,,,,,,,,,0,64,67
27804,note_on,,10,0,1,,,,,,,,,,,,,,0,65,0
27862,note_on,,58,0,1,,,,,,,,,,,,,,0,64,0
27886,note_on,,24,0,1,,,,,,,,,,,,,,0,62,60
27934,note_on,,48,0,1,,,,,,,,,,,,,,0,62,0
27962,note_on,,28,0,1,,,,,,,,,,,,,,0,60,73
28034,note_on,,72,0,1,,,,,,,,,,,,,,0,60,0
28068,note_on,,34,0,1,,,,,,,,,,,,,,0,53,103
28071,note_on,,3,0,1,,,,,,,,,,,,,,0,69,63
28074,note_on,,3,0,1,,,,,,,,,,,,,,0,65,70
28122,note_on,,48,0,1,,,,,,,,,,,,,,0,53,0
28130,note_on,,8,0,1,,,,,,,,,,,,,,0,65,0
28170,note_on,,40,0,1,,,,,,,,,,,,,,0,67,51
28228,note_on,,58,0,1,,,,,,,,,,,,,,0,67,0
28230,note_on,,2,0,1,,,,,,,,,,,,,,0,65,43
28288,note_on,,58,0,1,,,,,,,,,,,,,,0,48,70
28290,note_on,,2,0,1,,,,,,,,,,,,,,0,65,0
28294,note_on,,4,0,1,,,,,,,,,,,,,,0,67,63
28336,note_on,,42,0,1,,,,,,,,,,,,,,0,48,0
28356,note_on,,20,0,1,,,,,,,,,,,,,,0,67,0
28374,note_on,,18,0,1,,,,,,,,,,,,,,0,65,48
28428,note_on,,54,0,1,,,,,,,,,,,,,,0,65,0
28438,note_on,,10,0,1,,,,,,,,,,,,,,0,67,46
28498,note_on,,60,0,1,,,,,,,,,,,,,,0,67,0
28498,note_on,,0,0,1,,,,,,,,,,,,,,0,41,83
28510,note_on,,12,0,1,,,,,,,,,,,,,,0,65,55
28546,note_on,,36,0,1,,,,,,,,,,,,,,0,41,0
28558,note_on,,12,0,1,,,,,,,,,,,,,,0,65,0
28562,note_on,,4,0,1,,,,,,,,,,,,,,0,67,63
28632,note_on,,70,0,1,,,,,,,,,,,,,,0,69,0
28638,note_on,,6,0,1,,,,,,,,,,,,,,0,67,0
28638,note_on,,0,0,1,,,,,,,,,,,,,,0,65,52
28736,note_on,,98,0,1,,,,,,,,,,,,,,0,69,2
28762,note_on,,26,0,1,,,,,,,,,,,,,,0,36,76
28876,note_on,,114,0,1,,,,,,,,,,,,,,0,69,0
28916,note_on,,40,0,1,,,,,,,,,,,,,,0,65,0
28982,note_on,,66,0,1,,,,,,,,,,,,,,0,67,66
29028,note_on,,46,0,1,,,,,,,,,,,,,,0,67,0
29200,note_on,,172,0,1,,,,,,,,,,,,,,0,60,67
29205,note_on,,5,0,1,,,,,,,,,,,,,,0,36,0
29250,note_on,,45,0,1,,,,,,,,,,,,,,0,60,0
29416,note_on,,166,0,1,,,,,,,,,,,,,,0,69,45
29418,note_on,,2,0,1,,,,,,,,,,,,,,0,65,43
29421,note_on,,3,0,1,,,,,,,,,,,,,,0,53,73
29458,note_on,,37,0,1,,,,,,,,,,,,,,0,67,62
29470,note_on,,12,0,1,,,,,,,,,,,,,,0,65,0
29470,note_on,,0,0,1,,,,,,,,,,,,,,0,53,0
29514,note_on,,44,0,1,,,,,,,,,,,,,,0,67,0
29564,note_on,,50,0,1,,,,,,,,,,,,,,0,65,26
29596,note_on,,32,0,1,,,,,,,,,,,,,,0,67,57
29632,note_on,,36,0,1,,,,,,,,,,,,,,0,48,37
29635,note_on,,3,0,1,,,,,,,,,,,,,,0,65,0
29668,note_on,,33,0,1,,,,,,,,,,,,,,0,67,0
29688,note_on,,20,0,1,,,,,,,,,,,,,,0,65,27
29694,note_on,,6,0,1,,,,,,,,,,,,,,0,48,0
29706,note_on,,12,0,1,,,,,,,,,,,,,,0,69,0
29752,note_on,,46,0,1,,,,,,,,,,,,,,0,65,0
29752,note_on,,0,0,1,,,,,,,,,,,,,,0,67,37
29816,note_on,,64,0,1,,,,,,,,,,,,,,0,67,0
29828,note_on,,12,0,1,,,,,,,,,,,,,,0,65,52
29840,note_on,,12,0,1,,,,,,,,,,,,,,0,41,64
29876,note_on,,36,0,1,,,,,,,,,,,,,,0,65,0
29884,note_on,,8,0,1,,,,,,,,,,,,,,0,67,60
29887,note_on,,3,0,1,,,,,,,,,,,,,,0,41,0
29964,note_on,,77,0,1,,,,,,,,,,,,,,0,65,33
29970,note_on,,6,0,1,,,,,,,,,,,,,,0,67,0
30090,note_on,,120,0,1,,,,,,,,,,,,,,0,69,2
30134,note_on,,44,0,1,,,,,,,,,,,,,,0,36,64
30376,note_on,,242,0,1,,,,,,,,,,,,,,0,65,0
30382,note_on,,6,0,1,,,,,,,,,,,,,,0,67,35
30392,note_on,,10,0,1,,,,,,,,,,,,,,0,69,0
30450,note_on,,58,0,1,,,,,,,,,,,,,,0,67,0
30572,note_on,,122,0,1,,,,,,,,,,,,,,0,36,0
30604,note_on,,32,0,1,,,,,,,,,,,,,,0,60,52
30670,note_on,,66,0,1,,,,,,,,,,,,,,0,60,0
30846,note_on,,176,0,1,,,,,,,,,,,,,,0,69,52
30856,note_on,,10,0,1,,,,,,,,,,,,,,0,53,70
30856,note_on,,0,0,1,,,,,,,,,,,,,,0,65,44
31078,note_on,,222,0,1,,,,,,,,,,,,,,0,67,71
31124,note_on,,46,0,1,,,,,,,,,,,,,,0,69,0
31124,note_on,,0,0,1,,,,,,,,,,,,,,0,65,0
31176,note_on,,52,0,1,,,,,,,,,,,,,,0,67,0
31254,note_on,,78,0,1,,,,,,,,,,,,,,0,53,0
31302,note_on,,48,0,1,,,,,,,,,,,,,,0,58,42
31306,note_on,,4,0,1,,,,,,,,,,,,,,0,62,67
31308,note_on,,2,0,1,,,,,,,,,,,,,,0,65,74
31356,note_on,,48,0,1,,,,,,,,,,,,,,0,62,0
31434,note_on,,78,0,1,,,,,,,,,,,,,,0,65,0
31500,note_on,,66,0,1,,,,,,,,,,,,,,0,58,0
31562,note_on,,62,0,1,,,,,,,,,,,,,,0,69,57
31566,note_on,,4,0,1,,,,,,,,,,,,,,0,65,50
31608,note_on,,42,0,1,,,,,,,,,,,,,,0,60,29
31740,note_on,,132,0,1,,,,,,,,,,,,,,0,65,0
31798,note_on,,58,0,1,,,,,,,,,,,,,,0,70,43
31814,note_on,,16,0,1,,,,,,,,,,,,,,0,69,0
31976,note_on,,162,0,1,,,,,,,,,,,,,,0,70,0
31992,note_on,,16,0,1,,,,,,,,,,,,,,0,60,0
32036,note_on,,44,0,1,,,,,,,,,,,,,,0,64,35
32040,control_change,,4,0,1,,,,,,,,,,,,64,127,0,,
32054,note_on,,14,0,1,,,,,,,,,,,,,,0,48,25
32054,note_on,,0,0,1,,,,,,,,,,,,,,0,67,36
32118,note_on,,64,0,1,,,,,,,,,,,,,,0,48,0
32136,note_on,,18,0,1,,,,,,,,,,,,,,0,64,0
32144,note_on,,8,0,1,,,,,,,,,,,,,,0,67,0
32302,control_change,,158,0,1,,,,,,,,,,,,64,0,0,,
32326,note_on,,24,0,1,,,,,,,,,,,,,,0,65,47
32358,note_on,,32,0,1,,,,,,,,,,,,,,0,53,25
32358,note_on,,0,0,1,,,,,,,,,,,,,,0,41,37
32508,note_on,,150,0,1,,,,,,,,,,,,,,0,67,47
32536,note_on,,28,0,1,,,,,,,,,,,,,,0,65,0
32582,note_on,,46,0,1,,,,,,,,,,,,,,0,69,49
32592,note_on,,10,0,1,,,,,,,,,,,,,,0,67,0
32594,control_change,,2,0,1,,,,,,,,,,,,64,127,0,,
32662,note_on,,68,0,1,,,,,,,,,,,,,,0,69,0
32670,note_on,,8,0,1,,,,,,,,,,,,,,0,70,46
32710,note_on,,40,0,1,,,,,,,,,,,,,,0,53,0
32726,note_on,,16,0,1,,,,,,,,,,,,,,0,70,0
32738,note_on,,12,0,1,,,,,,,,,,,,,,0,72,58
32780,note_on,,42,0,1,,,,,,,,,,,,,,0,41,0
32788,note_on,,8,0,1,,,,,,,,,,,,,,0,72,0
32808,note_on,,20,0,1,,,,,,,,,,,,,,0,74,70
32850,note_on,,42,0,1,,,,,,,,,,,,,,0,74,0
32858,note_on,,8,0,1,,,,,,,,,,,,,,0,76,56
32904,note_on,,46,0,1,,,,,,,,,,,,,,0,76,0
32930,note_on,,26,0,1,,,,,,,,,,,,,,0,77,66
32948,control_change,,18,0,1,,,,,,,,,,,,64,0,0,,
32974,note_on,,26,0,1,,,,,,,,,,,,,,0,77,0
33000,note_on,,26,0,1,,,,,,,,,,,,,,0,79,68
33060,note_on,,60,0,1,,,,,,,,,,,,,,0,53,54
33064,note_on,,4,0,1,,,,,,,,,,,,,,0,41,42
33066,note_on,,2,0,1,,,,,,,,,,,,,,0,81,80
33106,note_on,,40,0,1,,,,,,,,,,,,,,0,79,0
33270,control_change,,164,0,1,,,,,,,,,,,,64,127,0,,
33308,note_on,,38,0,1,,,,,,,,,,,,,,0,81,0
33318,note_on,,10,0,1,,,,,,,,,,,,,,0,84,50
33388,note_on,,70,0,1,,,,,,,,,,,,,,0,84,0
33470,control_change,,82,0,1,,,,,,,,,,,,64,0,0,,
33530,note_on,,60,0,1,,,,,,,,,,,,,,0,53,0
33558,note_on,,28,0,1,,,,,,,,,,,,,,0,72,44
33564,note_on,,6,0,1,,,,,,,,,,,,,,0,41,0
33620,note_on,,56,0,1,,,,,,,,,,,,,,0,72,0
33778,note_on,,158,0,1,,,,,,,,,,,,,,0,81,63
33800,note_on,,22,0,1,,,,,,,,,,,,,,0,53,44
33814,note_on,,14,0,1,,,,,,,,,,,,,,0,41,38
34042,note_on,,228,0,1,,,,,,,,,,,,,,0,84,52
34044,note_on,,2,0,1,,,,,,,,,,,,,,0,81,0
34106,note_on,,62,0,1,,,,,,,,,,,,,,0,84,0
34198,note_on,,92,0,1,,,,,,,,,,,,,,0,53,0
34238,note_on,,40,0,1,,,,,,,,,,,,,,0,41,0
34258,note_on,,20,0,1,,,,,,,,,,,,,,0,72,51
34328,note_on,,70,0,1,,,,,,,,,,,,,,0,72,0
34502,note_on,,174,0,1,,,,,,,,,,,,,,0,81,47
34522,note_on,,20,0,1,,,,,,,,,,,,,,0,41,26
34530,note_on,,8,0,1,,,,,,,,,,,,,,0,53,44
34748,note_on,,218,0,1,,,,,,,,,,,,,,0,84,43
34752,note_on,,4,0,1,,,,,,,,,,,,,,0,81,0
34838,note_on,,86,0,1,,,,,,,,,,,,,,0,84,0
34926,note_on,,88,0,1,,,,,,,,,,,,,,0,53,0
34962,note_on,,36,0,1,,,,,,,,,,,,,,0,41,0
34974,note_on,,12,0,1,,,,,,,,,,,,,,0,72,40
35050,note_on,,76,0,1,,,,,,,,,,,,,,0,72,0
35098,control_change,,48,0,1,,,,,,,,,,,,64,127,0,,
35222,control_change,,124,0,1,,,,,,,,,,,,64,0,0,,
35256,note_on,,34,0,1,,,,,,,,,,,,,,0,77,41
35268,note_on,,12,0,1,,,,,,,,,,,,,,0,81,30
35278,note_on,,10,0,1,,,,,,,,,,,,,,0,53,43
35286,note_on,,8,0,1,,,,,,,,,,,,,,0,41,25
35430,note_on,,144,0,1,,,,,,,,,,,,,,0,77,0
35438,control_change,,8,0,1,,,,,,,,,,,,64,127,0,,
35444,note_on,,6,0,1,,,,,,,,,,,,,,0,79,44
35506,note_on,,62,0,1,,,,,,,,,,,,,,0,79,0
35520,note_on,,14,0,1,,,,,,,,,,,,,,0,77,39
35590,note_on,,70,0,1,,,,,,,,,,,,,,0,77,0
35598,note_on,,8,0,1,,,,,,,,,,,,,,0,79,44
35666,note_on,,68,0,1,,,,,,,,,,,,,,0,79,0
35692,note_on,,26,0,1,,,,,,,,,,,,,,0,77,39
35744,note_on,,52,0,1,,,,,,,,,,,,,,0,77,0
35750,note_on,,6,0,1,,,,,,,,,,,,,,0,79,58
35806,note_on,,56,0,1,,,,,,,,,,,,,,0,79,0
35833,note_on,,27,0,1,,,,,,,,,,,,,,0,77,43
35876,note_on,,43,0,1,,,,,,,,,,,,,,0,79,73
35886,note_on,,10,0,1,,,,,,,,,,,,,,0,77,0
35934,note_on,,48,0,1,,,,,,,,,,,,,,0,79,0
35960,note_on,,26,0,1,,,,,,,,,,,,,,0,81,0
35978,note_on,,18,0,1,,,,,,,,,,,,,,0,77,32
36016,note_on,,38,0,1,,,,,,,,,,,,,,0,79,66
36078,note_on,,62,0,1,,,,,,,,,,,,,,0,79,0
36156,note_on,,78,0,1,,,,,,,,,,,,,,0,77,0
36162,note_on,,6,0,1,,,,,,,,,,,,,,0,79,57
36228,note_on,,66,0,1,,,,,,,,,,,,,,0,79,0
36232,note_on,,4,0,1,,,,,,,,,,,,,,0,77,44
36252,control_change,,20,0,1,,,,,,,,,,,,64,0,0,,
36406,note_on,,154,0,1,,,,,,,,,,,,,,0,77,0
36409,note_on,,3,0,1,,,,,,,,,,,,,,0,76,34
36412,note_on,,3,0,1,,,,,,,,,,,,,,0,81,2
36734,note_on,,322,0,1,,,,,,,,,,,,,,0,76,0
36756,note_on,,22,0,1,,,,,,,,,,,,,,0,77,31
36942,control_change,,186,0,1,,,,,,,,,,,,64,127,0,,
37096,control_change,,154,0,1,,,,,,,,,,,,64,0,0,,
37402,note_on,,306,0,1,,,,,,,,,,,,,,0,53,0
37404,note_on,,2,0,1,,,,,,,,,,,,,,0,81,0
37404,control_change,,0,0,1,,,,,,,,,,,,64,127,0,,
37486,note_on,,82,0,1,,,,,,,,,,,,,,0,77,0
37492,note_on,,6,0,1,,,,,,,,,,,,,,0,41,0
37788,control_change,,296,0,1,,,,,,,,,,,,64,0,0,,
37910,note_on,,122,0,1,,,,,,,,,,,,,,0,60,35
37996,note_on,,86,0,1,,,,,,,,,,,,,,0,60,0
38164,note_on,,168,0,1,,,,,,,,,,,,,,0,65,39
38182,note_on,,18,0,1,,,,,,,,,,,,,,0,57,26
38188,note_on,,6,0,1,,,,,,,,,,,,,,0,53,45
38192,note_on,,4,0,1,,,,,,,,,,,,,,0,60,33
38414,note_on,,222,0,1,,,,,,,,,,,,,,0,67,55
38460,note_on,,46,0,1,,,,,,,,,,,,,,0,65,0
38648,note_on,,188,0,1,,,,,,,,,,,,,,0,69,42
38651,note_on,,3,0,1,,,,,,,,,,,,,,0,60,0
38656,note_on,,5,0,1,,,,,,,,,,,,,,0,67,0
38678,control_change,,22,0,1,,,,,,,,,,,,64,127,0,,
38872,note_on,,194,0,1,,,,,,,,,,,,,,0,57,0
38878,control_change,,6,0,1,,,,,,,,,,,,64,0,0,,
38894,note_on,,16,0,1,,,,,,,,,,,,,,0,53,0
38896,note_on,,2,0,1,,,,,,,,,,,,,,0,67,55
38898,note_on,,2,0,1,,,,,,,,,,,,,,0,60,27
38904,note_on,,6,0,1,,,,,,,,,,,,,,0,55,24
38904,note_on,,0,0,1,,,,,,,,,,,,,,0,52,42
38912,note_on,,8,0,1,,,,,,,,,,,,,,0,69,0
39134,note_on,,222,0,1,,,,,,,,,,,,,,0,69,60
39194,note_on,,60,0,1,,,,,,,,,,,,,,0,67,0
39340,note_on,,146,0,1,,,,,,,,,,,,,,0,60,0
39354,note_on,,14,0,1,,,,,,,,,,,,,,0,70,64
39382,note_on,,28,0,1,,,,,,,,,,,,,,0,69,0
39400,control_change,,18,0,1,,,,,,,,,,,,64,127,0,,
39570,control_change,,170,0,1,,,,,,,,,,,,64,0,0,,
39590,note_on,,20,0,1,,,,,,,,,,,,,,0,52,0
39598,note_on,,8,0,1,,,,,,,,,,,,,,0,55,0
39600,note_on,,2,0,1,,,,,,,,,,,,,,0,69,62
39610,note_on,,10,0,1,,,,,,,,,,,,,,0,60,31
39614,note_on,,4,0,1,,,,,,,,,,,,,,0,53,52
39620,note_on,,6,0,1,,,,,,,,,,,,,,0,57,30
39634,note_on,,14,0,1,,,,,,,,,,,,,,0,70,0
39846,note_on,,212,0,1,,,,,,,,,,,,,,0,70,57
39880,note_on,,34,0,1,,,,,,,,,,,,,,0,69,0
40076,note_on,,196,0,1,,,,,,,,,,,,,,0,72,54
40096,note_on,,20,0,1,,,,,,,,,,,,,,0,70,0
40118,note_on,,22,0,1,,,,,,,,,,,,,,0,60,0
40200,control_change,,82,0,1,,,,,,,,,,,,64,127,0,,
40272,note_on,,72,0,1,,,,,,,,,,,,,,0,57,0
40292,control_change,,20,0,1,,,,,,,,,,,,64,0,0,,
40300,note_on,,8,0,1,,,,,,,,,,,,,,0,53,0
40342,note_on,,42,0,1,,,,,,,,,,,,,,0,60,22
40350,note_on,,8,0,1,,,,,,,,,,,,,,0,55,24
40350,note_on,,0,0,1,,,,,,,,,,,,,,0,51,22
40620,note_on,,270,0,1,,,,,,,,,,,,,,0,74,45
40674,note_on,,54,0,1,,,,,,,,,,,,,,0,72,0
40834,note_on,,160,0,1,,,,,,,,,,,,,,0,55,0
40846,control_change,,12,0,1,,,,,,,,,,,,64,127,0,,
40854,note_on,,8,0,1,,,,,,,,,,,,,,0,74,0
40854,note_on,,0,0,1,,,,,,,,,,,,,,0,75,46
40868,note_on,,14,0,1,,,,,,,,,,,,,,0,60,0
40946,note_on,,78,0,1,,,,,,,,,,,,,,0,51,0
41060,control_change,,114,0,1,,,,,,,,,,,,64,0,0,,
41074,note_on,,14,0,1,,,,,,,,,,,,,,0,67,47
41088,note_on,,14,0,1,,,,,,,,,,,,,,0,75,0
41102,note_on,,14,0,1,,,,,,,,,,,,,,0,62,19
41108,note_on,,6,0,1,,,,,,,,,,,,,,0,50,18
41120,note_on,,12,0,1,,,,,,,,,,,,,,0,57,22
41322,note_on,,202,0,1,,,,,,,,,,,,,,0,66,37
41334,note_on,,12,0,1,,,,,,,,,,,,,,0,67,0
41522,note_on,,188,0,1,,,,,,,,,,,,,,0,62,0
41560,note_on,,38,0,1,,,,,,,,,,,,,,0,57,0
41560,note_on,,0,0,1,,,,,,,,,,,,,,0,67,59
41568,control_change,,8,0,1,,,,,,,,,,,,64,127,0,,
41586,note_on,,18,0,1,,,,,,,,,,,,,,0,66,0
41768,control_change,,182,0,1,,,,,,,,,,,,64,0,0,,
41782,note_on,,14,0,1,,,,,,,,,,,,,,0,62,36
41790,note_on,,8,0,1,,,,,,,,,,,,,,0,69,52
41792,note_on,,2,0,1,,,,,,,,,,,,,,0,67,0
41796,note_on,,4,0,1,,,,,,,,,,,,,,0,54,53
41800,note_on,,4,0,1,,,,,,,,,,,,,,0,50,0
41800,note_on,,0,0,1,,,,,,,,,,,,,,0,57,35
42016,note_on,,216,0,1,,,,,,,,,,,,,,0,70,63
42088,note_on,,72,0,1,,,,,,,,,,,,,,0,69,0
42198,control_change,,110,0,1,,,,,,,,,,,,64,127,0,,
42212,note_on,,14,0,1,,,,,,,,,,,,,,0,62,0
42236,note_on,,24,0,1,,,,,,,,,,,,,,0,57,0
42258,note_on,,22,0,1,,,,,,,,,,,,,,0,72,69
42316,note_on,,58,0,1,,,,,,,,,,,,,,0,70,0
42474,control_change,,158,0,1,,,,,,,,,,,,64,0,0,,
42484,note_on,,10,0,1,,,,,,,,,,,,,,0,70,68
42494,note_on,,10,0,1,,,,,,,,,,,,,,0,55,49
42504,note_on,,10,0,1,,,,,,,,,,,,,,0,62,29
42508,note_on,,4,0,1,,,,,,,,,,,,,,0,58,29
42542,note_on,,34,0,1,,,,,,,,,,,,,,0,72,0
42557,note_on,,15,0,1,,,,,,,,,,,,,,0,54,0
42724,note_on,,167,0,1,,,,,,,,,,,,,,0,72,71
42770,note_on,,46,0,1,,,,,,,,,,,,,,0,70,0
42976,note_on,,206,0,1,,,,,,,,,,,,,,0,62,0
42978,note_on,,2,0,1,,,,,,,,,,,,,,0,74,63
43010,note_on,,32,0,1,,,,,,,,,,,,,,0,72,0
43088,control_change,,78,0,1,,,,,,,,,,,,64,127,0,,
43138,note_on,,50,0,1,,,,,,,,,,,,,,0,58,0
43164,control_change,,26,0,1,,,,,,,,,,,,64,0,0,,
43244,note_on,,80,0,1,,,,,,,,,,,,,,0,62,41
43252,note_on,,8,0,1,,,,,,,,,,,,,,0,57,36
43264,note_on,,12,0,1,,,,,,,,,,,,,,0,55,0
43264,note_on,,0,0,1,,,,,,,,,,,,,,0,53,59
43480,note_on,,216,0,1,,,,,,,,,,,,,,0,76,60
43526,note_on,,46,0,1,,,,,,,,,,,,,,0,74,0
43726,note_on,,200,0,1,,,,,,,,,,,,,,0,77,69
43742,note_on,,16,0,1,,,,,,,,,,,,,,0,62,0
43750,control_change,,8,0,1,,,,,,,,,,,,64,127,0,,
43752,note_on,,2,0,1,,,,,,,,,,,,,,0,76,0
43930,note_on,,178,0,1,,,,,,,,,,,,,,0,57,0
43950,note_on,,20,0,1,,,,,,,,,,,,,,0,77,0
43950,note_on,,0,0,1,,,,,,,,,,,,,,0,64,37
43956,note_on,,6,0,1,,,,,,,,,,,,,,0,69,55
43958,note_on,,2,0,1,,,,,,,,,,,,,,0,59,32
43960,note_on,,2,0,1,,,,,,,,,,,,,,0,52,32
43964,control_change,,4,0,1,,,,,,,,,,,,64,0,0,,
43968,note_on,,4,0,1,,,,,,,,,,,,,,0,53,0
44184,note_on,,216,0,1,,,,,,,,,,,,,,0,68,62
44202,note_on,,18,0,1,,,,,,,,,,,,,,0,69,0
44378,control_change,,176,0,1,,,,,,,,,,,,64,127,0,,
44410,note_on,,32,0,1,,,,,,,,,,,,,,0,59,0
44430,note_on,,20,0,1,,,,,,,,,,,,,,0,69,69
44448,note_on,,18,0,1,,,,,,,,,,,,,,0,68,0
44468,note_on,,20,0,1,,,,,,,,,,,,,,0,64,0
44652,note_on,,184,0,1,,,,,,,,,,,,,,0,71,81
44666,note_on,,14,0,1,,,,,,,,,,,,,,0,64,63
44669,control_change,,3,0,1,,,,,,,,,,,,64,0,0,,
44672,note_on,,3,0,1,,,,,,,,,,,,,,0,56,48
44680,note_on,,8,0,1,,,,,,,,,,,,,,0,59,41
44698,note_on,,18,0,1,,,,,,,,,,,,,,0,69,0
44760,note_on,,62,0,1,,,,,,,,,,,,,,0,52,0
44880,note_on,,120,0,1,,,,,,,,,,,,,,0,73,73
44942,note_on,,62,0,1,,,,,,,,,,,,,,0,71,0
45114,note_on,,172,0,1,,,,,,,,,,,,,,0,74,87
45136,note_on,,22,0,1,,,,,,,,,,,,,,0,73,0
45154,note_on,,18,0,1,,,,,,,,,,,,,,0,59,0
45156,note_on,,2,0,1,,,,,,,,,,,,,,0,64,0
45162,control_change,,6,0,1,,,,,,,,,,,,64,127,0,,
45346,control_change,,184,0,1,,,,,,,,,,,,64,0,0,,
45348,note_on,,2,0,1,,,,,,,,,,,,,,0,73,78
45358,note_on,,10,0,1,,,,,,,,,,,,,,0,57,44
45361,note_on,,3,0,1,,,,,,,,,,,,,,0,64,41
45365,note_on,,4,0,1,,,,,,,,,,,,,,0,61,55
45392,note_on,,27,0,1,,,,,,,,,,,,,,0,74,0
45395,note_on,,3,0,1,,,,,,,,,,,,,,0,56,0
45582,note_on,,187,0,1,,,,,,,,,,,,,,0,74,85
45598,note_on,,16,0,1,,,,,,,,,,,,,,0,73,0
45716,control_change,,118,0,1,,,,,,,,,,,,64,127,0,,
45724,note_on,,8,0,1,,,,,,,,,,,,,,0,64,0
45756,note_on,,32,0,1,,,,,,,,,,,,,,0,57,0
45782,note_on,,26,0,1,,,,,,,,,,,,,,0,61,0
45800,note_on,,18,0,1,,,,,,,,,,,,,,0,74,0
45806,note_on,,6,0,1,,,,,,,,,,,,,,0,76,78
46008,control_change,,202,0,1,,,,,,,,,,,,64,0,0,,
46028,note_on,,20,0,1,,,,,,,,,,,,,,0,57,62
46032,note_on,,4,0,1,,,,,,,,,,,,,,0,49,55
46054,note_on,,22,0,1,,,,,,,,,,,,,,0,52,69
46250,note_on,,196,0,1,,,,,,,,,,,,,,0,77,84
46292,note_on,,42,0,1,,,,,,,,,,,,,,0,76,0
46356,note_on,,64,0,1,,,,,,,,,,,,,,0,52,0
46360,control_change,,4,0,1,,,,,,,,,,,,64,127,0,,
46436,note_on,,76,0,1,,,,,,,,,,,,,,0,57,0
46470,note_on,,34,0,1,,,,,,,,,,,,,,0,77,0
46472,note_on,,2,0,1,,,,,,,,,,,,,,0,79,87
46514,note_on,,42,0,1,,,,,,,,,,,,,,0,79,0
46556,note_on,,42,0,1,,,,,,,,,,,,,,0,49,0
46592,note_on,,36,0,1,,,,,,,,,,,,,,0,77,54
46636,note_on,,44,0,1,,,,,,,,,,,,,,0,77,0
46644,note_on,,8,0,1,,,,,,,,,,,,,,0,79,89
46678,note_on,,34,0,1,,,,,,,,,,,,,,0,62,42
46684,control_change,,6,0,1,,,,,,,,,,,,64,0,0,,
46686,note_on,,2,0,1,,,,,,,,,,,,,,0,50,42
46696,note_on,,10,0,1,,,,,,,,,,,,,,0,77,92
46702,note_on,,6,0,1,,,,,,,,,,,,,,0,57,41
46784,note_on,,82,0,1,,,,,,,,,,,,,,0,79,0
46928,note_on,,144,0,1,,,,,,,,,,,,,,0,76,85
46990,note_on,,62,0,1,,,,,,,,,,,,,,0,77,0
47053,note_on,,63,0,1,,,,,,,,,,,,,,0,62,0
47098,control_change,,45,0,1,,,,,,,,,,,,64,127,0,,
47146,note_on,,48,0,1,,,,,,,,,,,,,,0,74,90
47190,note_on,,44,0,1,,,,,,,,,,,,,,0,76,0
47384,note_on,,194,0,1,,,,,,,,,,,,,,0,81,88
47390,control_change,,6,0,1,,,,,,,,,,,,64,0,0,,
47394,note_on,,4,0,1,,,,,,,,,,,,,,0,62,33
47396,note_on,,2,0,1,,,,,,,,,,,,,,0,53,70
47402,note_on,,6,0,1,,,,,,,,,,,,,,0,57,0
47410,note_on,,8,0,1,,,,,,,,,,,,,,0,74,0
47446,note_on,,36,0,1,,,,,,,,,,,,,,0,50,0
47610,note_on,,164,0,1,,,,,,,,,,,,,,0,79,88
47642,note_on,,32,0,1,,,,,,,,,,,,,,0,81,0
47666,note_on,,24,0,1,,,,,,,,,,,,,,0,62,0
47706,note_on,,40,0,1,,,,,,,,,,,,,,0,79,0
47782,note_on,,76,0,1,,,,,,,,,,,,,,0,53,0
47822,note_on,,40,0,1,,,,,,,,,,,,,,0,77,80
47824,note_on,,2,0,1,,,,,,,,,,,,,,0,55,83
47880,note_on,,56,0,1,,,,,,,,,,,,,,0,55,0
47906,note_on,,26,0,1,,,,,,,,,,,,,,0,77,0
48046,note_on,,140,0,1,,,,,,,,,,,,,,0,57,79
48050,note_on,,4,0,1,,,,,,,,,,,,,,0,76,60
48102,note_on,,52,0,1,,,,,,,,,,,,,,0,57,0
48110,note_on,,8,0,1,,,,,,,,,,,,,,0,76,0
48138,note_on,,28,0,1,,,,,,,,,,,,,,0,77,55
48190,note_on,,52,0,1,,,,,,,,,,,,,,0,77,0
48210,note_on,,20,0,1,,,,,,,,,,,,,,0,76,42
48264,note_on,,54,0,1,,,,,,,,,,,,,,0,76,0
48266,note_on,,2,0,1,,,,,,,,,,,,,,0,77,57
48272,note_on,,6,0,1,,,,,,,,,,,,,,0,52,74
48310,note_on,,38,0,1,,,,,,,,,,,,,,0,52,0
48326,note_on,,16,0,1,,,,,,,,,,,,,,0,77,0
48354,note_on,,28,0,1,,,,,,,,,,,,,,0,76,31
48412,note_on,,58,0,1,,,,,,,,,,,,,,0,77,45
48462,note_on,,50,0,1,,,,,,,,,,,,,,0,77,0
48478,note_on,,16,0,1,,,,,,,,,,,,,,0,49,59
48514,note_on,,36,0,1,,,,,,,,,,,,,,0,76,0
48522,note_on,,8,0,1,,,,,,,,,,,,,,0,49,0
48542,note_on,,20,0,1,,,,,,,,,,,,,,0,77,44
48584,note_on,,42,0,1,,,,,,,,,,,,,,0,76,53
48626,note_on,,42,0,1,,,,,,,,,,,,,,0,77,0
48720,note_on,,94,0,1,,,,,,,,,,,,,,0,45,51
48936,note_on,,216,0,1,,,,,,,,,,,,,,0,76,0
48944,note_on,,8,0,1,,,,,,,,,,,,,,0,45,0
48956,note_on,,12,0,1,,,,,,,,,,,,,,0,81,60
48972,control_change,,16,0,1,,,,,,,,,,,,64,127,0,,
49000,note_on,,28,0,1,,,,,,,,,,,,,,0,81,0
49096,control_change,,96,0,1,,,,,,,,,,,,64,0,0,,
49166,note_on,,70,0,1,,,,,,,,,,,,,,0,69,60
49186,note_on,,20,0,1,,,,,,,,,,,,,,0,64,49
49194,note_on,,8,0,1,,,,,,,,,,,,,,0,61,30
49218,note_on,,24,0,1,,,,,,,,,,,,,,0,69,0
49234,note_on,,16,0,1,,,,,,,,,,,,,,0,64,0
49266,note_on,,32,0,1,,,,,,,,,,,,,,0,61,0
49394,note_on,,128,0,1,,,,,,,,,,,,,,0,70,66
49402,note_on,,8,0,1,,,,,,,,,,,,,,0,65,47
49410,note_on,,8,0,1,,,,,,,,,,,,,,0,62,47
49456,note_on,,46,0,1,,,,,,,,,,,,,,0,70,0
49460,note_on,,4,0,1,,,,,,,,,,,,,,0,72,49
49524,note_on,,64,0,1,,,,,,,,,,,,,,0,72,0
49540,note_on,,16,0,1,,,,,,,,,,,,,,0,70,29
49596,note_on,,56,0,1,,,,,,,,,,,,,,0,72,58
49642,note_on,,46,0,1,,,,,,,,,,,,,,0,72,0
49704,note_on,,62,0,1,,,,,,,,,,,,,,0,72,61
49724,note_on,,20,0,1,,,,,,,,,,,,,,0,70,0
49780,note_on,,56,0,1,,,,,,,,,,,,,,0,70,40
49810,note_on,,30,0,1,,,,,,,,,,,,,,0,72,0
49866,note_on,,56,0,1,,,,,,,,,,,,,,0,69,57
49882,note_on,,16,0,1,,,,,,,,,,,,,,0,70,0
49934,note_on,,52,0,1,,,,,,,,,,,,,,0,69,0
50044,note_on,,110,0,1,,,,,,,,,,,,,,0,62,0
50050,note_on,,6,0,1,,,,,,,,,,,,,,0,65,0
50096,note_on,,46,0,1,,,,,,,,,,,,,,0,69,53
50102,note_on,,6,0,1,,,,,,,,,,,,,,0,64,31
50104,note_on,,2,0,1,,,,,,,,,,,,,,0,61,18
50162,note_on,,58,0,1,,,,,,,,,,,,,,0,69,0
50318,note_on,,156,0,1,,,,,,,,,,,,,,0,81,57
50370,note_on,,52,0,1,,,,,,,,,,,,,,0,81,0
50538,note_on,,168,0,1,,,,,,,,,,,,,,0,69,46
50598,note_on,,60,0,1,,,,,,,,,,,,,,0,69,0
50690,note_on,,92,0,1,,,,,,,,,,,,,,0,61,0
50692,note_on,,2,0,1,,,,,,,,,,,,,,0,64,0
50750,note_on,,58,0,1,,,,,,,,,,,,,,0,70,45
50764,note_on,,14,0,1,,,,,,,,,,,,,,0,65,28
50796,note_on,,32,0,1,,,,,,,,,,,,,,0,62,19
50808,note_on,,12,0,1,,,,,,,,,,,,,,0,70,0
50814,note_on,,6,0,1,,,,,,,,,,,,,,0,72,44
50870,note_on,,56,0,1,,,,,,,,,,,,,,0,72,0
50876,note_on,,6,0,1,,,,,,,,,,,,,,0,70,44
50930,note_on,,54,0,1,,,,,,,,,,,,,,0,70,0
50944,note_on,,14,0,1,,,,,,,,,,,,,,0,72,49
50988,note_on,,44,0,1,,,,,,,,,,,,,,0,70,57
50996,note_on,,8,0,1,,,,,,,,,,,,,,0,72,0
51054,note_on,,58,0,1,,,,,,,,,,,,,,0,70,0
51090,note_on,,36,0,1,,,,,,,,,,,,,,0,72,21
51128,note_on,,38,0,1,,,,,,,,,,,,,,0,70,48
51160,note_on,,32,0,1,,,,,,,,,,,,,,0,72,0
51198,note_on,,38,0,1,,,,,,,,,,,,,,0,70,0
51202,note_on,,4,0,1,,,,,,,,,,,,,,0,69,39
51282,note_on,,80,0,1,,,,,,,,,,,,,,0,69,0
51298,note_on,,16,0,1,,,,,,,,,,,,,,0,62,0
51440,note_on,,142,0,1,,,,,,,,,,,,,,0,69,42
51482,note_on,,42,0,1,,,,,,,,,,,,,,0,66,17
51492,note_on,,10,0,1,,,,,,,,,,,,,,0,62,43
51504,note_on,,12,0,1,,,,,,,,,,,,,,0,65,0
51554,control_change,,50,0,1,,,,,,,,,,,,64,127,0,,
51680,note_on,,126,0,1,,,,,,,,,,,,,,0,69,0
51690,note_on,,10,0,1,,,,,,,,,,,,,,0,81,62
51910,note_on,,220,0,1,,,,,,,,,,,,,,0,78,73
51954,note_on,,44,0,1,,,,,,,,,,,,,,0,81,0
52156,note_on,,202,0,1,,,,,,,,,,,,,,0,79,84
52164,note_on,,8,0,1,,,,,,,,,,,,,,0,66,0
52164,note_on,,0,0,1,,,,,,,,,,,,,,0,78,0
52167,note_on,,3,0,1,,,,,,,,,,,,,,0,67,45
52180,note_on,,13,0,1,,,,,,,,,,,,,,0,63,33
52198,note_on,,18,0,1,,,,,,,,,,,,,,0,62,0
52230,control_change,,32,0,1,,,,,,,,,,,,64,0,0,,
52410,note_on,,180,0,1,,,,,,,,,,,,,,0,81,73
52452,note_on,,42,0,1,,,,,,,,,,,,,,0,79,0
52492,control_change,,40,0,1,,,,,,,,,,,,64,127,0,,
52640,note_on,,148,0,1,,,,,,,,,,,,,,0,82,66
52648,note_on,,8,0,1,,,,,,,,,,,,,,0,81,0
52678,note_on,,30,0,1,,,,,,,,,,,,,,0,67,0
52684,note_on,,6,0,1,,,,,,,,,,,,,,0,63,0
52754,note_on,,70,0,1,,,,,,,,,,,,,,0,82,0
52800,note_on,,46,0,1,,,,,,,,,,,,,,0,84,65
52846,note_on,,46,0,1,,,,,,,,,,,,,,0,82,59
52856,note_on,,10,0,1,,,,,,,,,,,,,,0,69,40
52856,note_on,,0,0,1,,,,,,,,,,,,,,0,63,47
52886,note_on,,30,0,1,,,,,,,,,,,,,,0,60,22
52892,control_change,,6,0,1,,,,,,,,,,,,64,0,0,,
52918,note_on,,26,0,1,,,,,,,,,,,,,,0,84,0
53102,note_on,,184,0,1,,,,,,,,,,,,,,0,81,79
53168,control_change,,66,0,1,,,,,,,,,,,,64,127,0,,
53180,note_on,,12,0,1,,,,,,,,,,,,,,0,82,0
53290,note_on,,110,0,1,,,,,,,,,,,,,,0,69,0
53342,note_on,,52,0,1,,,,,,,,,,,,,,0,79,88
53348,note_on,,6,0,1,,,,,,,,,,,,,,0,81,0
53438,note_on,,90,0,1,,,,,,,,,,,,,,0,63,0
53558,note_on,,120,0,1,,,,,,,,,,,,,,0,78,84
53568,note_on,,10,0,1,,,,,,,,,,,,,,0,69,32
53581,note_on,,13,0,1,,,,,,,,,,,,,,0,79,0
53588,note_on,,7,0,1,,,,,,,,,,,,,,0,66,32
53592,note_on,,4,0,1,,,,,,,,,,,,,,0,62,39
53596,note_on,,4,0,1,,,,,,,,,,,,,,0,60,0
53644,control_change,,48,0,1,,,,,,,,,,,,64,0,0,,
53798,note_on,,154,0,1,,,,,,,,,,,,,,0,79,88
53842,note_on,,44,0,1,,,,,,,,,,,,,,0,78,0
53892,note_on,,50,0,1,,,,,,,,,,,,,,0,69,0
53904,control_change,,12,0,1,,,,,,,,,,,,64,127,0,,
53918,note_on,,14,0,1,,,,,,,,,,,,,,0,62,0
53928,note_on,,10,0,1,,,,,,,,,,,,,,0,66,0
54024,note_on,,96,0,1,,,,,,,,,,,,,,0,81,74
54032,note_on,,8,0,1,,,,,,,,,,,,,,0,79,0
54194,note_on,,162,0,1,,,,,,,,,,,,,,0,77,67
54202,note_on,,8,0,1,,,,,,,,,,,,,,0,81,0
54232,note_on,,30,0,1,,,,,,,,,,,,,,0,75,63
54240,note_on,,8,0,1,,,,,,,,,,,,,,0,54,44
54244,note_on,,4,0,1,,,,,,,,,,,,,,0,62,32
54262,note_on,,18,0,1,,,,,,,,,,,,,,0,57,19
54334,control_change,,72,0,1,,,,,,,,,,,,64,0,0,,
54339,note_on,,5,0,1,,,,,,,,,,,,,,0,77,0
54446,note_on,,107,0,1,,,,,,,,,,,,,,0,74,73
54484,note_on,,38,0,1,,,,,,,,,,,,,,0,75,0
54628,note_on,,144,0,1,,,,,,,,,,,,,,0,57,0
54628,control_change,,0,0,1,,,,,,,,,,,,64,127,0,,
54658,note_on,,30,0,1,,,,,,,,,,,,,,0,74,0
54680,note_on,,22,0,1,,,,,,,,,,,,,,0,72,69
54698,note_on,,18,0,1,,,,,,,,,,,,,,0,54,0
54800,note_on,,102,0,1,,,,,,,,,,,,,,0,72,0
54828,note_on,,28,0,1,,,,,,,,,,,,,,0,62,0
54898,note_on,,70,0,1,,,,,,,,,,,,,,0,72,54
54912,note_on,,14,0,1,,,,,,,,,,,,,,0,55,63
54950,control_change,,38,0,1,,,,,,,,,,,,64,0,0,,
55138,note_on,,188,0,1,,,,,,,,,,,,,,0,70,55
55170,note_on,,32,0,1,,,,,,,,,,,,,,0,72,0
55202,note_on,,32,0,1,,,,,,,,,,,,,,0,55,0
55272,note_on,,70,0,1,,,,,,,,,,,,,,0,70,0
55370,note_on,,98,0,1,,,,,,,,,,,,,,0,79,85
55378,note_on,,8,0,1,,,,,,,,,,,,,,0,67,61
55428,note_on,,50,0,1,,,,,,,,,,,,,,0,67,0
55432,note_on,,4,0,1,,,,,,,,,,,,,,0,79,0
55598,note_on,,166,0,1,,,,,,,,,,,,,,0,70,76
55612,note_on,,14,0,1,,,,,,,,,,,,,,0,53,90
55826,note_on,,214,0,1,,,,,,,,,,,,,,0,69,67
55830,note_on,,4,0,1,,,,,,,,,,,,,,0,70,0
55884,note_on,,54,0,1,,,,,,,,,,,,,,0,53,0
55932,note_on,,48,0,1,,,,,,,,,,,,,,0,69,0
56046,note_on,,114,0,1,,,,,,,,,,,,,,0,77,80
56052,note_on,,6,0,1,,,,,,,,,,,,,,0,65,62
56100,note_on,,48,0,1,,,,,,,,,,,,,,0,65,0
56124,note_on,,24,0,1,,,,,,,,,,,,,,0,77,0
56282,note_on,,158,0,1,,,,,,,,,,,,,,0,69,76
56282,note_on,,0,0,1,,,,,,,,,,,,,,0,52,75
56508,note_on,,226,0,1,,,,,,,,,,,,,,0,67,69
56516,note_on,,8,0,1,,,,,,,,,,,,,,0,69,0
56576,note_on,,60,0,1,,,,,,,,,,,,,,0,52,0
56594,note_on,,18,0,1,,,,,,,,,,,,,,0,67,0
56726,note_on,,132,0,1,,,,,,,,,,,,,,0,76,70
56729,note_on,,3,0,1,,,,,,,,,,,,,,0,64,63
56778,note_on,,49,0,1,,,,,,,,,,,,,,0,64,0
56792,note_on,,14,0,1,,,,,,,,,,,,,,0,76,0
56956,note_on,,164,0,1,,,,,,,,,,,,,,0,67,72
56972,note_on,,16,0,1,,,,,,,,,,,,,,0,50,59
57168,note_on,,196,0,1,,,,,,,,,,,,,,0,67,0
57176,note_on,,8,0,1,,,,,,,,,,,,,,0,65,61
57244,note_on,,68,0,1,,,,,,,,,,,,,,0,65,0
57256,note_on,,12,0,1,,,,,,,,,,,,,,0,50,0
57402,note_on,,146,0,1,,,,,,,,,,,,,,0,62,46
57404,note_on,,2,0,1,,,,,,,,,,,,,,0,74,63
57450,note_on,,46,0,1,,,,,,,,,,,,,,0,74,0
57454,note_on,,4,0,1,,,,,,,,,,,,,,0,62,0
57626,note_on,,172,0,1,,,,,,,,,,,,,,0,48,47
57630,note_on,,4,0,1,,,,,,,,,,,,,,0,65,60
57842,note_on,,212,0,1,,,,,,,,,,,,,,0,65,0
57845,note_on,,3,0,1,,,,,,,,,,,,,,0,64,60
57922,note_on,,77,0,1,,,,,,,,,,,,,,0,48,0
57922,note_on,,0,0,1,,,,,,,,,,,,,,0,64,0
58054,note_on,,132,0,1,,,,,,,,,,,,,,0,72,55
58088,note_on,,34,0,1,,,,,,,,,,,,,,0,60,35
58110,note_on,,22,0,1,,,,,,,,,,,,,,0,72,0
58156,note_on,,46,0,1,,,,,,,,,,,,,,0,60,0
58292,note_on,,136,0,1,,,,,,,,,,,,,,0,64,60
58298,note_on,,6,0,1,,,,,,,,,,,,,,0,46,43
58518,note_on,,220,0,1,,,,,,,,,,,,,,0,64,0
58526,note_on,,8,0,1,,,,,,,,,,,,,,0,62,54
58582,note_on,,56,0,1,,,,,,,,,,,,,,0,62,0
58598,note_on,,16,0,1,,,,,,,,,,,,,,0,46,0
58736,note_on,,138,0,1,,,,,,,,,,,,,,0,70,47
58744,note_on,,8,0,1,,,,,,,,,,,,,,0,58,33
58796,note_on,,52,0,1,,,,,,,,,,,,,,0,70,0
58812,note_on,,16,0,1,,,,,,,,,,,,,,0,58,0
58978,note_on,,166,0,1,,,,,,,,,,,,,,0,62,46
58988,note_on,,10,0,1,,,,,,,,,,,,,,0,45,33
59190,note_on,,202,0,1,,,,,,,,,,,,,,0,62,0
59196,note_on,,6,0,1,,,,,,,,,,,,,,0,60,37
59274,note_on,,78,0,1,,,,,,,,,,,,,,0,45,0
59298,note_on,,24,0,1,,,,,,,,,,,,,,0,60,0
59410,note_on,,112,0,1,,,,,,,,,,,,,,0,69,41
59432,note_on,,22,0,1,,,,,,,,,,,,,,0,57,28
59468,note_on,,36,0,1,,,,,,,,,,,,,,0,69,0
59496,note_on,,28,0,1,,,,,,,,,,,,,,0,57,0
59656,note_on,,160,0,1,,,,,,,,,,,,,,0,43,34
59660,note_on,,4,0,1,,,,,,,,,,,,,,0,60,48
59858,note_on,,198,0,1,,,,,,,,,,,,,,0,58,32
59882,note_on,,24,0,1,,,,,,,,,,,,,,0,60,0
59936,note_on,,54,0,1,,,,,,,,,,,,,,0,43,0
59978,note_on,,42,0,1,,,,,,,,,,,,,,0,58,0
60088,note_on,,110,0,1,,,,,,,,,,,,,,0,55,34
60090,note_on,,2,0,1,,,,,,,,,,,,,,0,67,30
60158,note_on,,68,0,1,,,,,,,,,,,,,,0,55,0
60162,note_on,,4,0,1,,,,,,,,,,,,,,0,67,0
60328,note_on,,166,0,1,,,,,,,,,,,,,,0,57,45
60346,note_on,,18,0,1,,,,,,,,,,,,,,0,53,54
60480,control_change,,134,0,1,,,,,,,,,,,,64,127,0,,
60514,note_on,,34,0,1,,,,,,,,,,,,,,0,57,0
60530,note_on,,16,0,1,,,,,,,,,,,,,,0,53,0
60558,control_change,,28,0,1,,,,,,,,,,,,64,0,0,,
60572,note_on,,14,0,1,,,,,,,,,,,,,,0,59,39
60580,note_on,,8,0,1,,,,,,,,,,,,,,0,55,20
60630,note_on,,50,0,1,,,,,,,,,,,,,,0,59,0
60642,note_on,,12,0,1,,,,,,,,,,,,,,0,55,0
60661,note_on,,19,0,1,,,,,,,,,,,,,,0,61,62
60682,note_on,,21,0,1,,,,,,,,,,,,,,0,57,36
60710,note_on,,28,0,1,,,,,,,,,,,,,,0,61,0
60752,note_on,,42,0,1,,,,,,,,,,,,,,0,62,37
60762,note_on,,10,0,1,,,,,,,,,,,,,,0,57,0
60776,note_on,,14,0,1,,,,,,,,,,,,,,0,59,45
60814,note_on,,38,0,1,,,,,,,,,,,,,,0,62,0
60830,note_on,,16,0,1,,,,,,,,,,,,,,0,59,0
60838,note_on,,8,0,1,,,,,,,,,,,,,,0,64,53
60860,note_on,,22,0,1,,,,,,,,,,,,,,0,61,61
60890,note_on,,30,0,1,,,,,,,,,,,,,,0,64,0
60918,note_on,,28,0,1,,,,,,,,,,,,,,0,61,0
60926,note_on,,8,0,1,,,,,,,,,,,,,,0,65,62
60946,note_on,,20,0,1,,,,,,,,,,,,,,0,62,66
60972,note_on,,26,0,1,,,,,,,,,,,,,,0,65,0
60986,note_on,,14,0,1,,,,,,,,,,,,,,0,62,0
61132,note_on,,146,0,1,,,,,,,,,,,,,,0,61,61
61148,note_on,,16,0,1,,,,,,,,,,,,,,0,64,63
61182,note_on,,34,0,1,,,,,,,,,,,,,,0,61,0
61194,note_on,,12,0,1,,,,,,,,,,,,,,0,64,0
61344,note_on,,150,0,1,,,,,,,,,,,,,,0,59,61
61346,note_on,,2,0,1,,,,,,,,,,,,,,0,62,54
61388,note_on,,42,0,1,,,,,,,,,,,,,,0,59,0
61402,note_on,,14,0,1,,,,,,,,,,,,,,0,62,0
61552,note_on,,150,0,1,,,,,,,,,,,,,,0,61,54
61566,note_on,,14,0,1,,,,,,,,,,,,,,0,57,53
61612,note_on,,46,0,1,,,,,,,,,,,,,,0,61,0
61654,note_on,,42,0,1,,,,,,,,,,,,,,0,62,48
61686,note_on,,32,0,1,,,,,,,,,,,,,,0,59,52
61696,note_on,,10,0,1,,,,,,,,,,,,,,0,57,0
61708,note_on,,12,0,1,,,,,,,,,,,,,,0,62,0
61752,note_on,,44,0,1,,,,,,,,,,,,,,0,64,49
61754,note_on,,2,0,1,,,,,,,,,,,,,,0,59,0
61760,note_on,,6,0,1,,,,,,,,,,,,,,0,61,71
61806,note_on,,46,0,1,,,,,,,,,,,,,,0,64,0
61836,note_on,,30,0,1,,,,,,,,,,,,,,0,61,0
61854,note_on,,18,0,1,,,,,,,,,,,,,,0,65,56
61868,note_on,,14,0,1,,,,,,,,,,,,,,0,62,56
61898,note_on,,30,0,1,,,,,,,,,,,,,,0,65,0
61916,note_on,,18,0,1,,,,,,,,,,,,,,0,62,0
61926,note_on,,10,0,1,,,,,,,,,,,,,,0,67,64
61934,note_on,,8,0,1,,,,,,,,,,,,,,0,64,70
61984,note_on,,50,0,1,,,,,,,,,,,,,,0,67,0
61992,note_on,,8,0,1,,,,,,,,,,,,,,0,64,0
62006,note_on,,14,0,1,,,,,,,,,,,,,,0,69,58
62022,note_on,,16,0,1,,,,,,,,,,,,,,0,65,70
62064,note_on,,42,0,1,,,,,,,,,,,,,,0,69,0
62092,note_on,,28,0,1,,,,,,,,,,,,,,0,65,0
62095,note_on,,3,0,1,,,,,,,,,,,,,,0,70,80
62112,note_on,,17,0,1,,,,,,,,,,,,,,0,67,87
62170,note_on,,58,0,1,,,,,,,,,,,,,,0,67,0
62190,note_on,,20,0,1,,,,,,,,,,,,,,0,70,0
62318,note_on,,128,0,1,,,,,,,,,,,,,,0,65,73
62324,note_on,,6,0,1,,,,,,,,,,,,,,0,69,61
62356,note_on,,32,0,1,,,,,,,,,,,,,,0,65,0
62376,note_on,,20,0,1,,,,,,,,,,,,,,0,69,0
62530,note_on,,154,0,1,,,,,,,,,,,,,,0,67,74
62542,note_on,,12,0,1,,,,,,,,,,,,,,0,64,70
62582,note_on,,40,0,1,,,,,,,,,,,,,,0,64,0
62588,note_on,,6,0,1,,,,,,,,,,,,,,0,67,0
62766,note_on,,178,0,1,,,,,,,,,,,,,,0,69,70
62778,note_on,,12,0,1,,,,,,,,,,,,,,0,65,65
62862,control_change,,84,0,1,,,,,,,,,,,,64,127,0,,
62900,note_on,,38,0,1,,,,,,,,,,,,,,0,65,0
62903,note_on,,3,0,1,,,,,,,,,,,,,,0,69,0
63020,note_on,,117,0,1,,,,,,,,,,,,,,0,71,75
63023,note_on,,3,0,1,,,,,,,,,,,,,,0,67,61
63082,note_on,,59,0,1,,,,,,,,,,,,,,0,67,0
63092,note_on,,10,0,1,,,,,,,,,,,,,,0,71,0
63122,note_on,,30,0,1,,,,,,,,,,,,,,0,69,68
63122,note_on,,0,0,1,,,,,,,,,,,,,,0,73,62
63172,note_on,,50,0,1,,,,,,,,,,,,,,0,73,0
63208,note_on,,36,0,1,,,,,,,,,,,,,,0,71,82
63216,control_change,,8,0,1,,,,,,,,,,,,64,0,0,,
63218,note_on,,2,0,1,,,,,,,,,,,,,,0,74,69
63234,note_on,,16,0,1,,,,,,,,,,,,,,0,69,0
63266,note_on,,32,0,1,,,,,,,,,,,,,,0,74,0
63284,note_on,,18,0,1,,,,,,,,,,,,,,0,76,67
63294,note_on,,10,0,1,,,,,,,,,,,,,,0,73,75
63304,note_on,,10,0,1,,,,,,,,,,,,,,0,71,0
63342,note_on,,38,0,1,,,,,,,,,,,,,,0,76,0
63380,note_on,,38,0,1,,,,,,,,,,,,,,0,77,95
63388,note_on,,8,0,1,,,,,,,,,,,,,,0,73,0
63394,note_on,,6,0,1,,,,,,,,,,,,,,0,74,98
63462,note_on,,68,0,1,,,,,,,,,,,,,,0,77,0
63462,note_on,,0,0,1,,,,,,,,,,,,,,0,74,0
63604,note_on,,142,0,1,,,,,,,,,,,,,,0,76,92
63606,note_on,,2,0,1,,,,,,,,,,,,,,0,73,81
63654,note_on,,48,0,1,,,,,,,,,,,,,,0,73,0
63666,note_on,,12,0,1,,,,,,,,,,,,,,0,76,0
63816,note_on,,150,0,1,,,,,,,,,,,,,,0,74,92
63816,note_on,,0,0,1,,,,,,,,,,,,,,0,71,90
63852,note_on,,36,0,1,,,,,,,,,,,,,,0,71,0
63932,note_on,,80,0,1,,,,,,,,,,,,,,0,74,0
64042,note_on,,110,0,1,,,,,,,,,,,,,,0,81,88
64070,note_on,,28,0,1,,,,,,,,,,,,,,0,69,48
64128,note_on,,58,0,1,,,,,,,,,,,,,,0,69,0
64292,note_on,,164,0,1,,,,,,,,,,,,,,0,64,69
64332,note_on,,40,0,1,,,,,,,,,,,,,,0,64,0
64502,note_on,,170,0,1,,,,,,,,,,,,,,0,61,72
64544,note_on,,42,0,1,,,,,,,,,,,,,,0,61,0
64620,note_on,,76,0,1,,,,,,,,,,,,,,0,81,0
64774,note_on,,154,0,1,,,,,,,,,,,,,,0,57,54
65000,note_on,,226,0,1,,,,,,,,,,,,,,0,81,68
65046,note_on,,46,0,1,,,,,,,,,,,,,,0,81,0
65100,note_on,,54,0,1,,,,,,,,,,,,,,0,57,0
65210,note_on,,110,0,1,,,,,,,,,,,,,,0,69,63
65226,note_on,,16,0,1,,,,,,,,,,,,,,0,61,59
65246,note_on,,20,0,1,,,,,,,,,,,,,,0,64,38
65268,note_on,,22,0,1,,,,,,,,,,,,,,0,69,0
65274,note_on,,6,0,1,,,,,,,,,,,,,,0,61,0
65302,note_on,,28,0,1,,,,,,,,,,,,,,0,64,0
65452,note_on,,150,0,1,,,,,,,,,,,,,,0,70,69
65460,note_on,,8,0,1,,,,,,,,,,,,,,0,65,54
65464,note_on,,4,0,1,,,,,,,,,,,,,,0,62,58
65514,note_on,,50,0,1,,,,,,,,,,,,,,0,70,0
65517,note_on,,3,0,1,,,,,,,,,,,,,,0,72,67
65584,note_on,,67,0,1,,,,,,,,,,,,,,0,72,0
65594,note_on,,10,0,1,,,,,,,,,,,,,,0,70,44
65666,note_on,,72,0,1,,,,,,,,,,,,,,0,72,51
65718,note_on,,52,0,1,,,,,,,,,,,,,,0,72,0
65762,note_on,,44,0,1,,,,,,,,,,,,,,0,70,0
65782,note_on,,20,0,1,,,,,,,,,,,,,,0,72,59
65822,note_on,,40,0,1,,,,,,,,,,,,,,0,70,50
65882,note_on,,60,0,1,,,,,,,,,,,,,,0,72,0
65932,note_on,,50,0,1,,,,,,,,,,,,,,0,69,47
65944,note_on,,12,0,1,,,,,,,,,,,,,,0,70,0
66002,note_on,,58,0,1,,,,,,,,,,,,,,0,69,0
66076,note_on,,74,0,1,,,,,,,,,,,,,,0,62,0
66088,note_on,,12,0,1,,,,,,,,,,,,,,0,65,0
66146,note_on,,58,0,1,,,,,,,,,,,,,,0,69,57
66148,note_on,,2,0,1,,,,,,,,,,,,,,0,64,34
66172,note_on,,24,0,1,,,,,,,,,,,,,,0,61,24
66230,note_on,,58,0,1,,,,,,,,,,,,,,0,69,0
66388,note_on,,158,0,1,,,,,,,,,,,,,,0,81,56
66440,note_on,,52,0,1,,,,,,,,,,,,,,0,81,0
66618,note_on,,178,0,1,,,,,,,,,,,,,,0,69,41
66626,note_on,,8,0,1,,,,,,,,,,,,,,0,64,0
66630,note_on,,4,0,1,,,,,,,,,,,,,,0,61,0
66650,note_on,,20,0,1,,,,,,,,,,,,,,0,57,29
66682,note_on,,32,0,1,,,,,,,,,,,,,,0,69,0
66846,note_on,,164,0,1,,,,,,,,,,,,,,0,57,0
66846,note_on,,0,0,1,,,,,,,,,,,,,,0,70,42
66882,note_on,,36,0,1,,,,,,,,,,,,,,0,62,29
66888,note_on,,6,0,1,,,,,,,,,,,,,,0,65,34
66902,note_on,,14,0,1,,,,,,,,,,,,,,0,70,0
66902,note_on,,0,0,1,,,,,,,,,,,,,,0,72,52
66958,note_on,,56,0,1,,,,,,,,,,,,,,0,72,0
66970,note_on,,12,0,1,,,,,,,,,,,,,,0,70,37
67034,note_on,,64,0,1,,,,,,,,,,,,,,0,72,50
67092,note_on,,58,0,1,,,,,,,,,,,,,,0,72,0
67142,note_on,,50,0,1,,,,,,,,,,,,,,0,70,0
67178,note_on,,36,0,1,,,,,,,,,,,,,,0,72,33
67210,note_on,,32,0,1,,,,,,,,,,,,,,0,70,45
67258,note_on,,48,0,1,,,,,,,,,,,,,,0,72,0
67338,note_on,,80,0,1,,,,,,,,,,,,,,0,70,0
67350,note_on,,12,0,1,,,,,,,,,,,,,,0,69,35
67444,note_on,,94,0,1,,,,,,,,,,,,,,0,69,0
67598,note_on,,154,0,1,,,,,,,,,,,,,,0,62,0
67616,note_on,,18,0,1,,,,,,,,,,,,,,0,69,28
67624,note_on,,8,0,1,,,,,,,,,,,,,,0,64,27
67634,note_on,,10,0,1,,,,,,,,,,,,,,0,65,0
67634,note_on,,0,0,1,,,,,,,,,,,,,,0,61,18
67846,note_on,,212,0,1,,,,,,,,,,,,,,0,69,0
67882,note_on,,36,0,1,,,,,,,,,,,,,,0,81,42
68120,note_on,,238,0,1,,,,,,,,,,,,,,0,64,0
68124,note_on,,4,0,1,,,,,,,,,,,,,,0,79,74
68148,control_change,,24,0,1,,,,,,,,,,,,64,127,0,,
68150,note_on,,2,0,1,,,,,,,,,,,,,,0,57,18
68196,note_on,,46,0,1,,,,,,,,,,,,,,0,61,0
68256,note_on,,60,0,1,,,,,,,,,,,,,,0,81,0
68362,note_on,,106,0,1,,,,,,,,,,,,,,0,57,0
68384,note_on,,22,0,1,,,,,,,,,,,,,,0,77,67
68402,note_on,,18,0,1,,,,,,,,,,,,,,0,65,29
68426,control_change,,24,0,1,,,,,,,,,,,,64,0,0,,
68429,note_on,,3,0,1,,,,,,,,,,,,,,0,62,20
68476,note_on,,47,0,1,,,,,,,,,,,,,,0,79,0
68620,note_on,,144,0,1,,,,,,,,,,,,,,0,76,54
68680,note_on,,60,0,1,,,,,,,,,,,,,,0,77,0
68748,control_change,,68,0,1,,,,,,,,,,,,64,127,0,,
68796,note_on,,48,0,1,,,,,,,,,,,,,,0,62,0
68822,note_on,,26,0,1,,,,,,,,,,,,,,0,76,0
68856,note_on,,34,0,1,,,,,,,,,,,,,,0,74,54
68904,note_on,,48,0,1,,,,,,,,,,,,,,0,55,15
68976,note_on,,72,0,1,,,,,,,,,,,,,,0,74,0
69040,control_change,,64,0,1,,,,,,,,,,,,64,0,0,,
69138,note_on,,98,0,1,,,,,,,,,,,,,,0,74,52
69164,note_on,,26,0,1,,,,,,,,,,,,,,0,55,0
69167,note_on,,3,0,1,,,,,,,,,,,,,,0,57,23
69408,note_on,,241,0,1,,,,,,,,,,,,,,0,76,35
69444,note_on,,36,0,1,,,,,,,,,,,,,,0,74,0
69576,note_on,,132,0,1,,,,,,,,,,,,,,0,65,0
69640,note_on,,64,0,1,,,,,,,,,,,,,,0,73,38
69640,note_on,,0,0,1,,,,,,,,,,,,,,0,64,31
69643,note_on,,3,0,1,,,,,,,,,,,,,,0,76,0
69732,control_change,,89,0,1,,,,,,,,,,,,64,127,0,,
69735,note_on,,3,0,1,,,,,,,,,,,,,,0,64,0
69740,note_on,,5,0,1,,,,,,,,,,,,,,0,57,0
69808,control_change,,68,0,1,,,,,,,,,,,,64,0,0,,
69882,note_on,,74,0,1,,,,,,,,,,,,,,0,62,53
69887,note_on,,5,0,1,,,,,,,,,,,,,,0,73,0
69893,note_on,,6,0,1,,,,,,,,,,,,,,0,74,45
69936,note_on,,43,0,1,,,,,,,,,,,,,,0,62,0
69942,note_on,,6,0,1,,,,,,,,,,,,,,0,74,0
69962,note_on,,20,0,1,,,,,,,,,,,,,,0,76,45
70012,note_on,,50,0,1,,,,,,,,,,,,,,0,74,57
70017,note_on,,5,0,1,,,,,,,,,,,,,,0,76,0
70080,note_on,,63,0,1,,,,,,,,,,,,,,0,74,0
70094,note_on,,14,0,1,,,,,,,,,,,,,,0,57,29
70097,note_on,,3,0,1,,,,,,,,,,,,,,0,76,48
70152,note_on,,55,0,1,,,,,,,,,,,,,,0,76,0
70164,note_on,,12,0,1,,,,,,,,,,,,,,0,57,0
70184,note_on,,20,0,1,,,,,,,,,,,,,,0,74,38
70220,note_on,,36,0,1,,,,,,,,,,,,,,0,76,57
70248,note_on,,28,0,1,,,,,,,,,,,,,,0,74,0
70284,note_on,,36,0,1,,,,,,,,,,,,,,0,76,0
70284,note_on,,0,0,1,,,,,,,,,,,,,,0,50,55
70306,note_on,,22,0,1,,,,,,,,,,,,,,0,74,33
70336,note_on,,30,0,1,,,,,,,,,,,,,,0,50,0
70362,note_on,,26,0,1,,,,,,,,,,,,,,0,74,0
70364,note_on,,2,0,1,,,,,,,,,,,,,,0,76,38
70414,note_on,,50,0,1,,,,,,,,,,,,,,0,74,43
70466,note_on,,52,0,1,,,,,,,,,,,,,,0,74,0
70528,note_on,,62,0,1,,,,,,,,,,,,,,0,74,45
70532,note_on,,4,0,1,,,,,,,,,,,,,,0,45,57
70546,note_on,,14,0,1,,,,,,,,,,,,,,0,76,0
70616,note_on,,70,0,1,,,,,,,,,,,,,,0,74,0
70758,note_on,,142,0,1,,,,,,,,,,,,,,0,76,62
70802,note_on,,44,0,1,,,,,,,,,,,,,,0,76,0
70960,note_on,,158,0,1,,,,,,,,,,,,,,0,45,0
70978,note_on,,18,0,1,,,,,,,,,,,,,,0,69,53
71032,note_on,,54,0,1,,,,,,,,,,,,,,0,69,0
71196,note_on,,164,0,1,,,,,,,,,,,,,,0,74,56
71200,note_on,,4,0,1,,,,,,,,,,,,,,0,77,58
71218,note_on,,18,0,1,,,,,,,,,,,,,,0,62,38
71244,note_on,,26,0,1,,,,,,,,,,,,,,0,74,0
71266,note_on,,22,0,1,,,,,,,,,,,,,,0,76,34
71276,note_on,,10,0,1,,,,,,,,,,,,,,0,62,0
71326,note_on,,50,0,1,,,,,,,,,,,,,,0,74,40
71328,note_on,,2,0,1,,,,,,,,,,,,,,0,76,0
71388,note_on,,60,0,1,,,,,,,,,,,,,,0,74,0
71408,note_on,,20,0,1,,,,,,,,,,,,,,0,57,51
71416,note_on,,8,0,1,,,,,,,,,,,,,,0,76,40
71458,note_on,,42,0,1,,,,,,,,,,,,,,0,57,0
71472,note_on,,14,0,1,,,,,,,,,,,,,,0,74,53
71475,note_on,,3,0,1,,,,,,,,,,,,,,0,76,0
71521,note_on,,46,0,1,,,,,,,,,,,,,,0,74,0
71554,note_on,,33,0,1,,,,,,,,,,,,,,0,77,0
71564,note_on,,10,0,1,,,,,,,,,,,,,,0,76,28
71602,note_on,,38,0,1,,,,,,,,,,,,,,0,74,55
71614,note_on,,12,0,1,,,,,,,,,,,,,,0,50,59
71656,note_on,,42,0,1,,,,,,,,,,,,,,0,74,0
71664,note_on,,8,0,1,,,,,,,,,,,,,,0,50,0
71740,note_on,,76,0,1,,,,,,,,,,,,,,0,74,31
71758,note_on,,18,0,1,,,,,,,,,,,,,,0,76,0
71800,note_on,,42,0,1,,,,,,,,,,,,,,0,77,2
71842,note_on,,42,0,1,,,,,,,,,,,,,,0,45,65
71958,note_on,,116,0,1,,,,,,,,,,,,,,0,74,0
71996,note_on,,38,0,1,,,,,,,,,,,,,,0,77,0
72066,note_on,,70,0,1,,,,,,,,,,,,,,0,76,60
72110,note_on,,44,0,1,,,,,,,,,,,,,,0,76,0
72178,note_on,,68,0,1,,,,,,,,,,,,,,0,45,0
72278,note_on,,100,0,1,,,,,,,,,,,,,,0,69,54
72332,note_on,,54,0,1,,,,,,,,,,,,,,0,69,0
72502,note_on,,170,0,1,,,,,,,,,,,,,,0,74,65
72505,note_on,,3,0,1,,,,,,,,,,,,,,0,77,65
72514,note_on,,9,0,1,,,,,,,,,,,,,,0,62,63
72540,note_on,,26,0,1,,,,,,,,,,,,,,0,76,66
72544,note_on,,4,0,1,,,,,,,,,,,,,,0,74,0
72560,note_on,,16,0,1,,,,,,,,,,,,,,0,62,0
72602,note_on,,42,0,1,,,,,,,,,,,,,,0,76,0
72630,note_on,,28,0,1,,,,,,,,,,,,,,0,74,44
72692,note_on,,62,0,1,,,,,,,,,,,,,,0,74,0
72702,note_on,,10,0,1,,,,,,,,,,,,,,0,76,43
72726,note_on,,24,0,1,,,,,,,,,,,,,,0,57,55
72760,note_on,,34,0,1,,,,,,,,,,,,,,0,76,0
72770,note_on,,10,0,1,,,,,,,,,,,,,,0,74,62
72778,note_on,,8,0,1,,,,,,,,,,,,,,0,57,0
72830,note_on,,52,0,1,,,,,,,,,,,,,,0,74,0
72848,note_on,,18,0,1,,,,,,,,,,,,,,0,76,39
72914,note_on,,66,0,1,,,,,,,,,,,,,,0,76,0
72917,note_on,,3,0,1,,,,,,,,,,,,,,0,74,47
72928,note_on,,11,0,1,,,,,,,,,,,,,,0,50,59
72970,note_on,,42,0,1,,,,,,,,,,,,,,0,74,0
72973,note_on,,3,0,1,,,,,,,,,,,,,,0,77,0
72980,note_on,,7,0,1,,,,,,,,,,,,,,0,50,0
72994,note_on,,14,0,1,,,,,,,,,,,,,,0,76,50
73042,note_on,,48,0,1,,,,,,,,,,,,,,0,74,61
73046,note_on,,4,0,1,,,,,,,,,,,,,,0,76,0
73098,note_on,,52,0,1,,,,,,,,,,,,,,0,74,0
73116,note_on,,18,0,1,,,,,,,,,,,,,,0,76,60
73190,note_on,,74,0,1,,,,,,,,,,,,,,0,74,46
73218,note_on,,28,0,1,,,,,,,,,,,,,,0,76,0
73218,note_on,,0,0,1,,,,,,,,,,,,,,0,33,83
73234,note_on,,16,0,1,,,,,,,,,,,,,,0,77,2
73440,note_on,,206,0,1,,,,,,,,,,,,,,0,76,70
73466,note_on,,26,0,1,,,,,,,,,,,,,,0,33,0
73472,note_on,,6,0,1,,,,,,,,,,,,,,0,74,0
73490,note_on,,18,0,1,,,,,,,,,,,,,,0,77,0
73502,note_on,,12,0,1,,,,,,,,,,,,,,0,76,0
73648,note_on,,146,0,1,,,,,,,,,,,,,,0,69,68
73653,note_on,,5,0,1,,,,,,,,,,,,,,0,61,83
73688,note_on,,35,0,1,,,,,,,,,,,,,,0,61,0
73706,note_on,,18,0,1,,,,,,,,,,,,,,0,69,0
73896,note_on,,190,0,1,,,,,,,,,,,,,,0,57,79
73900,note_on,,4,0,1,,,,,,,,,,,,,,0,77,95
73902,note_on,,2,0,1,,,,,,,,,,,,,,0,62,76
73906,note_on,,4,0,1,,,,,,,,,,,,,,0,74,90
73914,note_on,,8,0,1,,,,,,,,,,,,,,0,50,64
74068,note_on,,154,0,1,,,,,,,,,,,,,,0,74,0
74136,note_on,,68,0,1,,,,,,,,,,,,,,0,79,97
74142,note_on,,6,0,1,,,,,,,,,,,,,,0,76,72
74168,note_on,,26,0,1,,,,,,,,,,,,,,0,77,0
74334,note_on,,166,0,1,,,,,,,,,,,,,,0,76,0
74362,note_on,,28,0,1,,,,,,,,,,,,,,0,77,80
74364,note_on,,2,0,1,,,,,,,,,,,,,,0,81,83
74386,note_on,,22,0,1,,,,,,,,,,,,,,0,79,0
74402,note_on,,16,0,1,,,,,,,,,,,,,,0,62,0
74428,note_on,,26,0,1,,,,,,,,,,,,,,0,57,0
74590,note_on,,162,0,1,,,,,,,,,,,,,,0,62,75
74595,note_on,,5,0,1,,,,,,,,,,,,,,0,58,57
74598,note_on,,3,0,1,,,,,,,,,,,,,,0,55,65
74628,note_on,,30,0,1,,,,,,,,,,,,,,0,50,0
74786,note_on,,158,0,1,,,,,,,,,,,,,,0,77,0
74820,note_on,,34,0,1,,,,,,,,,,,,,,0,79,85
74820,note_on,,0,0,1,,,,,,,,,,,,,,0,76,68
74844,note_on,,24,0,1,,,,,,,,,,,,,,0,81,0
74982,note_on,,138,0,1,,,,,,,,,,,,,,0,76,0
75036,note_on,,54,0,1,,,,,,,,,,,,,,0,79,0
75040,note_on,,4,0,1,,,,,,,,,,,,,,0,77,84
75040,note_on,,0,0,1,,,,,,,,,,,,,,0,74,75
75070,note_on,,30,0,1,,,,,,,,,,,,,,0,58,0
75094,note_on,,24,0,1,,,,,,,,,,,,,,0,62,0
75104,note_on,,10,0,1,,,,,,,,,,,,,,0,74,0
75108,note_on,,4,0,1,,,,,,,,,,,,,,0,55,0
75140,control_change,,32,0,1,,,,,,,,,,,,64,127,0,,
75282,note_on,,142,0,1,,,,,,,,,,,,,,0,76,81
75286,note_on,,4,0,1,,,,,,,,,,,,,,0,57,54
75288,note_on,,2,0,1,,,,,,,,,,,,,,0,77,0
75292,note_on,,4,0,1,,,,,,,,,,,,,,0,45,45
75294,control_change,,2,0,1,,,,,,,,,,,,64,0,0,,
75388,note_on,,94,0,1,,,,,,,,,,,,,,0,74,78
75402,note_on,,14,0,1,,,,,,,,,,,,,,0,76,0
75492,note_on,,90,0,1,,,,,,,,,,,,,,0,73,75
75512,note_on,,20,0,1,,,,,,,,,,,,,,0,74,0
75610,note_on,,98,0,1,,,,,,,,,,,,,,0,71,80
75672,note_on,,62,0,1,,,,,,,,,,,,,,0,73,0
75714,note_on,,42,0,1,,,,,,,,,,,,,,0,69,65
75764,note_on,,50,0,1,,,,,,,,,,,,,,0,71,0
75802,note_on,,38,0,1,,,,,,,,,,,,,,0,57,0
75808,note_on,,6,0,1,,,,,,,,,,,,,,0,67,80
75822,note_on,,14,0,1,,,,,,,,,,,,,,0,45,0
75834,note_on,,12,0,1,,,,,,,,,,,,,,0,69,0
75906,note_on,,72,0,1,,,,,,,,,,,,,,0,65,80
75934,note_on,,28,0,1,,,,,,,,,,,,,,0,67,0
76008,note_on,,74,0,1,,,,,,,,,,,,,,0,64,82
76042,note_on,,34,0,1,,,,,,,,,,,,,,0,65,0
76074,note_on,,32,0,1,,,,,,,,,,,,,,0,64,0
76088,note_on,,14,0,1,,,,,,,,,,,,,,0,62,68
76178,note_on,,90,0,1,,,,,,,,,,,,,,0,61,75
76184,note_on,,6,0,1,,,,,,,,,,,,,,0,62,0
76284,note_on,,100,0,1,,,,,,,,,,,,,,0,59,62
76342,note_on,,58,0,1,,,,,,,,,,,,,,0,59,0
76344,note_on,,2,0,1,,,,,,,,,,,,,,0,61,0
76370,note_on,,26,0,1,,,,,,,,,,,,,,0,57,64
76432,note_on,,62,0,1,,,,,,,,,,,,,,0,57,0
76468,note_on,,36,0,1,,,,,,,,,,,,,,0,50,82
76472,note_on,,4,0,1,,,,,,,,,,,,,,0,65,65
76476,note_on,,4,0,1,,,,,,,,,,,,,,0,62,79
76526,note_on,,50,0,1,,,,,,,,,,,,,,0,50,0
76530,note_on,,4,0,1,,,,,,,,,,,,,,0,62,0
76566,note_on,,36,0,1,,,,,,,,,,,,,,0,64,55
76612,note_on,,46,0,1,,,,,,,,,,,,,,0,62,62
76614,note_on,,2,0,1,,,,,,,,,,,,,,0,64,0
76682,note_on,,68,0,1,,,,,,,,,,,,,,0,62,0
76682,note_on,,0,0,1,,,,,,,,,,,,,,0,64,67
76685,note_on,,3,0,1,,,,,,,,,,,,,,0,45,55
76736,note_on,,51,0,1,,,,,,,,,,,,,,0,45,0
76746,note_on,,10,0,1,,,,,,,,,,,,,,0,64,0
76766,note_on,,20,0,1,,,,,,,,,,,,,,0,62,59
76818,note_on,,52,0,1,,,,,,,,,,,,,,0,62,0
76836,note_on,,18,0,1,,,,,,,,,,,,,,0,64,50
76886,note_on,,50,0,1,,,,,,,,,,,,,,0,64,0
76898,note_on,,12,0,1,,,,,,,,,,,,,,0,38,61
76902,note_on,,4,0,1,,,,,,,,,,,,,,0,62,63
76940,note_on,,38,0,1,,,,,,,,,,,,,,0,38,0
76948,note_on,,8,0,1,,,,,,,,,,,,,,0,62,0
76958,note_on,,10,0,1,,,,,,,,,,,,,,0,64,67
77010,note_on,,52,0,1,,,,,,,,,,,,,,0,64,0
77030,note_on,,20,0,1,,,,,,,,,,,,,,0,62,57
77130,note_on,,100,0,1,,,,,,,,,,,,,,0,33,72
77282,note_on,,152,0,1,,,,,,,,,,,,,,0,65,0
77302,note_on,,20,0,1,,,,,,,,,,,,,,0,62,0
77346,note_on,,44,0,1,,,,,,,,,,,,,,0,64,62
77388,note_on,,42,0,1,,,,,,,,,,,,,,0,64,0
77486,note_on,,98,0,1,,,,,,,,,,,,,,0,33,0
77548,note_on,,62,0,1,,,,,,,,,,,,,,0,57,66
77604,note_on,,56,0,1,,,,,,,,,,,,,,0,57,0
77766,note_on,,162,0,1,,,,,,,,,,,,,,0,65,57
77771,note_on,,5,0,1,,,,,,,,,,,,,,0,62,55
77774,note_on,,3,0,1,,,,,,,,,,,,,,0,50,60
77820,note_on,,46,0,1,,,,,,,,,,,,,,0,62,0
77830,note_on,,10,0,1,,,,,,,,,,,,,,0,50,0
77836,note_on,,6,0,1,,,,,,,,,,,,,,0,64,50
77892,note_on,,56,0,1,,,,,,,,,,,,,,0,64,0
77910,note_on,,18,0,1,,,,,,,,,,,,,,0,62,34
77974,note_on,,64,0,1,,,,,,,,,,,,,,0,62,0
77982,note_on,,8,0,1,,,,,,,,,,,,,,0,64,52
77990,note_on,,8,0,1,,,,,,,,,,,,,,0,45,50
78036,note_on,,46,0,1,,,,,,,,,,,,,,0,64,0
78044,note_on,,8,0,1,,,,,,,,,,,,,,0,45,0
78096,note_on,,52,0,1,,,,,,,,,,,,,,0,62,11
78128,note_on,,32,0,1,,,,,,,,,,,,,,0,64,43
78180,note_on,,52,0,1,,,,,,,,,,,,,,0,64,0
78212,note_on,,32,0,1,,,,,,,,,,,,,,0,38,50
78242,note_on,,30,0,1,,,,,,,,,,,,,,0,62,0
78248,note_on,,6,0,1,,,,,,,,,,,,,,0,65,0
78258,note_on,,10,0,1,,,,,,,,,,,,,,0,38,0
78274,note_on,,16,0,1,,,,,,,,,,,,,,0,64,24
78328,note_on,,54,0,1,,,,,,,,,,,,,,0,62,38
78346,note_on,,18,0,1,,,,,,,,,,,,,,0,64,0
78420,note_on,,74,0,1,,,,,,,,,,,,,,0,65,9
78456,note_on,,36,0,1,,,,,,,,,,,,,,0,33,57
78682,note_on,,226,0,1,,,,,,,,,,,,,,0,62,0
78714,note_on,,32,0,1,,,,,,,,,,,,,,0,64,44
78728,note_on,,14,0,1,,,,,,,,,,,,,,0,65,0
78768,note_on,,40,0,1,,,,,,,,,,,,,,0,64,0
78848,note_on,,80,0,1,,,,,,,,,,,,,,0,33,0
78944,note_on,,96,0,1,,,,,,,,,,,,,,0,57,51
79010,note_on,,66,0,1,,,,,,,,,,,,,,0,57,0
79194,note_on,,184,0,1,,,,,,,,,,,,,,0,65,48
79214,note_on,,20,0,1,,,,,,,,,,,,,,0,62,36
79217,note_on,,3,0,1,,,,,,,,,,,,,,0,50,33
79444,note_on,,227,0,1,,,,,,,,,,,,,,0,64,60
79462,note_on,,18,0,1,,,,,,,,,,,,,,0,62,0
79506,note_on,,44,0,1,,,,,,,,,,,,,,0,65,0
79568,note_on,,62,0,1,,,,,,,,,,,,,,0,64,0
79626,control_change,,58,0,1,,,,,,,,,,,,64,127,0,,
79670,note_on,,44,0,1,,,,,,,,,,,,,,0,62,63
79673,note_on,,3,0,1,,,,,,,,,,,,,,0,50,0
79696,note_on,,23,0,1,,,,,,,,,,,,,,0,55,30
79774,note_on,,78,0,1,,,,,,,,,,,,,,0,62,0
79842,control_change,,68,0,1,,,,,,,,,,,,64,0,0,,
79912,note_on,,70,0,1,,,,,,,,,,,,,,0,62,50
79926,note_on,,14,0,1,,,,,,,,,,,,,,0,55,0
79954,note_on,,28,0,1,,,,,,,,,,,,,,0,57,28
80154,note_on,,200,0,1,,,,,,,,,,,,,,0,64,39
80164,note_on,,10,0,1,,,,,,,,,,,,,,0,62,0
80318,note_on,,154,0,1,,,,,,,,,,,,,,0,64,0
80394,note_on,,76,0,1,,,,,,,,,,,,,,0,61,35
80414,note_on,,20,0,1,,,,,,,,,,,,,,0,45,27
80464,note_on,,50,0,1,,,,,,,,,,,,,,0,57,0
80638,note_on,,174,0,1,,,,,,,,,,,,,,0,61,0
80658,note_on,,20,0,1,,,,,,,,,,,,,,0,45,0
80690,note_on,,32,0,1,,,,,,,,,,,,,,0,62,33
80706,note_on,,16,0,1,,,,,,,,,,,,,,0,50,22
80874,note_on,,168,0,1,,,,,,,,,,,,,,0,64,39
80884,note_on,,10,0,1,,,,,,,,,,,,,,0,62,0
80918,control_change,,34,0,1,,,,,,,,,,,,64,127,0,,
80950,note_on,,32,0,1,,,,,,,,,,,,,,0,64,0
80992,note_on,,42,0,1,,,,,,,,,,,,,,0,65,44
81046,note_on,,54,0,1,,,,,,,,,,,,,,0,65,0
81108,note_on,,62,0,1,,,,,,,,,,,,,,0,67,44
81168,note_on,,60,0,1,,,,,,,,,,,,,,0,50,0
81174,note_on,,6,0,1,,,,,,,,,,,,,,0,67,0
81202,note_on,,28,0,1,,,,,,,,,,,,,,0,69,37
81270,note_on,,68,0,1,,,,,,,,,,,,,,0,69,0
81276,note_on,,6,0,1,,,,,,,,,,,,,,0,71,51
81332,control_change,,56,0,1,,,,,,,,,,,,64,0,0,,
81338,note_on,,6,0,1,,,,,,,,,,,,,,0,71,0
81350,note_on,,12,0,1,,,,,,,,,,,,,,0,73,38
81402,note_on,,52,0,1,,,,,,,,,,,,,,0,73,0
81405,note_on,,3,0,1,,,,,,,,,,,,,,0,50,41
81405,note_on,,0,0,1,,,,,,,,,,,,,,0,38,27
81420,note_on,,15,0,1,,,,,,,,,,,,,,0,74,63
81648,note_on,,228,0,1,,,,,,,,,,,,,,0,74,0
81656,note_on,,8,0,1,,,,,,,,,,,,,,0,81,55
81736,note_on,,80,0,1,,,,,,,,,,,,,,0,81,0
81878,note_on,,142,0,1,,,,,,,,,,,,,,0,50,0
81896,note_on,,18,0,1,,,,,,,,,,,,,,0,69,39
81906,note_on,,10,0,1,,,,,,,,,,,,,,0,38,0
81960,note_on,,54,0,1,,,,,,,,,,,,,,0,69,0
81962,control_change,,2,0,1,,,,,,,,,,,,64,127,0,,
82116,note_on,,154,0,1,,,,,,,,,,,,,,0,74,63
82118,note_on,,2,0,1,,,,,,,,,,,,,,0,50,36
82128,note_on,,10,0,1,,,,,,,,,,,,,,0,38,29
82130,control_change,,2,0,1,,,,,,,,,,,,64,0,0,,
82162,note_on,,32,0,1,,,,,,,,,,,,,,0,74,0
82162,note_on,,0,0,1,,,,,,,,,,,,,,0,76,47
82212,note_on,,50,0,1,,,,,,,,,,,,,,0,76,0
82250,note_on,,38,0,1,,,,,,,,,,,,,,0,74,35
82278,note_on,,28,0,1,,,,,,,,,,,,,,0,76,58
82364,note_on,,86,0,1,,,,,,,,,,,,,,0,76,0
82382,note_on,,18,0,1,,,,,,,,,,,,,,0,81,69
82394,note_on,,12,0,1,,,,,,,,,,,,,,0,74,0
82434,note_on,,40,0,1,,,,,,,,,,,,,,0,81,0
82630,note_on,,196,0,1,,,,,,,,,,,,,,0,69,41
82632,note_on,,2,0,1,,,,,,,,,,,,,,0,50,0
82672,note_on,,40,0,1,,,,,,,,,,,,,,0,38,0
82684,control_change,,12,0,1,,,,,,,,,,,,64,127,0,,
82690,note_on,,6,0,1,,,,,,,,,,,,,,0,69,0
82898,control_change,,208,0,1,,,,,,,,,,,,64,0,0,,
82900,note_on,,2,0,1,,,,,,,,,,,,,,0,74,53
82914,note_on,,14,0,1,,,,,,,,,,,,,,0,50,38
82917,note_on,,3,0,1,,,,,,,,,,,,,,0,38,31
82954,note_on,,37,0,1,,,,,,,,,,,,,,0,74,0
82958,note_on,,4,0,1,,,,,,,,,,,,,,0,76,29
83022,note_on,,64,0,1,,,,,,,,,,,,,,0,76,0
83032,note_on,,10,0,1,,,,,,,,,,,,,,0,74,38
83084,note_on,,52,0,1,,,,,,,,,,,,,,0,74,0
83094,note_on,,10,0,1,,,,,,,,,,,,,,0,76,48
83146,note_on,,52,0,1,,,,,,,,,,,,,,0,76,0
83160,note_on,,14,0,1,,,,,,,,,,,,,,0,74,56
83236,note_on,,76,0,1,,,,,,,,,,,,,,0,81,58
83244,note_on,,8,0,1,,,,,,,,,,,,,,0,74,0
83308,note_on,,64,0,1,,,,,,,,,,,,,,0,81,0
83526,note_on,,218,0,1,,,,,,,,,,,,,,0,69,34
83572,note_on,,46,0,1,,,,,,,,,,,,,,0,50,0
83590,control_change,,18,0,1,,,,,,,,,,,,64,127,0,,
83592,note_on,,2,0,1,,,,,,,,,,,,,,0,69,0
83602,note_on,,10,0,1,,,,,,,,,,,,,,0,38,0
83898,control_change,,296,0,1,,,,,,,,,,,,64,0,0,,
83900,note_on,,2,0,1,,,,,,,,,,,,,,0,74,43
83934,note_on,,34,0,1,,,,,,,,,,,,,,0,50,26
83952,note_on,,18,0,1,,,,,,,,,,,,,,0,38,25
84064,note_on,,112,0,1,,,,,,,,,,,,,,0,74,0
84064,note_on,,0,0,1,,,,,,,,,,,,,,0,76,38
84144,note_on,,80,0,1,,,,,,,,,,,,,,0,76,0
84168,note_on,,24,0,1,,,,,,,,,,,,,,0,74,39
84250,note_on,,82,0,1,,,,,,,,,,,,,,0,74,0
84276,note_on,,26,0,1,,,,,,,,,,,,,,0,76,33
84344,note_on,,68,0,1,,,,,,,,,,,,,,0,76,0
84350,note_on,,6,0,1,,,,,,,,,,,,,,0,74,40
84404,control_change,,54,0,1,,,,,,,,,,,,64,127,0,,
84424,note_on,,20,0,1,,,,,,,,,,,,,,0,74,0
84446,note_on,,22,0,1,,,,,,,,,,,,,,0,76,25
84508,note_on,,62,0,1,,,,,,,,,,,,,,0,76,0
84534,note_on,,26,0,1,,,,,,,,,,,,,,0,74,38
84582,note_on,,48,0,1,,,,,,,,,,,,,,0,76,44
84593,note_on,,11,0,1,,,,,,,,,,,,,,0,74,0
84644,note_on,,51,0,1,,,,,,,,,,,,,,0,76,0
84724,note_on,,80,0,1,,,,,,,,,,,,,,0,76,39
84794,note_on,,70,0,1,,,,,,,,,,,,,,0,76,0
84802,note_on,,8,0,1,,,,,,,,,,,,,,0,74,2
84868,note_on,,66,0,1,,,,,,,,,,,,,,0,74,0
84871,note_on,,3,0,1,,,,,,,,,,,,,,0,76,23
84932,note_on,,61,0,1,,,,,,,,,,,,,,0,74,47
84934,note_on,,2,0,1,,,,,,,,,,,,,,0,76,0
84992,note_on,,58,0,1,,,,,,,,,,,,,,0,74,0
85014,note_on,,22,0,1,,,,,,,,,,,,,,0,76,38
85084,note_on,,70,0,1,,,,,,,,,,,,,,0,74,39
85096,note_on,,12,0,1,,,,,,,,,,,,,,0,76,0
85144,note_on,,48,0,1,,,,,,,,,,,,,,0,74,0
85147,note_on,,3,0,1,,,,,,,,,,,,,,0,76,12
85214,note_on,,67,0,1,,,,,,,,,,,,,,0,76,0
85216,note_on,,2,0,1,,,,,,,,,,,,,,0,74,44
85288,note_on,,72,0,1,,,,,,,,,,,,,,0,74,0
85318,note_on,,30,0,1,,,,,,,,,,,,,,0,76,35
85420,control_change,,102,0,1,,,,,,,,,,,,64,0,0,,
85460,note_on,,40,0,1,,,,,,,,,,,,,,0,74,39
85470,note_on,,10,0,1,,,,,,,,,,,,,,0,76,0
85756,control_change,,286,0,1,,,,,,,,,,,,64,127,0,,
85790,note_on,,34,0,1,,,,,,,,,,,,,,0,73,24
85804,note_on,,14,0,1,,,,,,,,,,,,,,0,74,0
85834,control_change,,30,0,1,,,,,,,,,,,,64,0,0,,
86264,control_change,,430,0,1,,,,,,,,,,,,64,127,0,,
86392,note_on,,128,0,1,,,,,,,,,,,,,,0,73,0
86510,control_change,,118,0,1,,,,,,,,,,,,64,0,0,,
86576,note_on,,66,0,1,,,,,,,,,,,,,,0,74,27
87586,control_change,,1010,0,1,,,,,,,,,,,,64,127,0,,
88150,note_on,,564,0,1,,,,,,,,,,,,,,0,38,0
88168,note_on,,18,0,1,,,,,,,,,,,,,,0,50,0
88368,note_on,,200,0,1,,,,,,,,,,,,,,0,74,0
88476,control_change,,108,0,1,,,,,,,,,,,,64,0,0,,
88476,end_of_track,,0,1,1,,,,,,,,,,,,,,,,
