tick,type,time,meta,track,program,channel,pitch,tempo,note,velocity
0,copyright,0,1,0,,,,,,
0,program_change,0,0,0,6,0,,,,
0,pitchwheel,0,0,0,,0,0,,,
0,program_change,0,0,0,6,1,,,,
0,pitchwheel,0,0,0,,1,-590,,,
0,program_change,0,0,0,6,2,,,,
0,pitchwheel,0,0,0,,2,-272,,,
0,program_change,0,0,0,6,3,,,,
0,pitchwheel,0,0,0,,3,-353,,,
0,program_change,0,0,0,6,4,,,,
0,pitchwheel,0,0,0,,4,-560,,,
0,program_change,0,0,0,6,5,,,,
0,pitchwheel,0,0,0,,5,-80,,,
0,program_change,0,0,0,6,6,,,,
0,pitchwheel,0,0,0,,6,-625,,,
0,program_change,0,0,0,6,7,,,,
0,pitchwheel,0,0,0,,7,-130,,,
0,program_change,0,0,0,6,8,,,,
0,pitchwheel,0,0,0,,8,-512,,,
0,program_change,0,0,0,6,10,,,,
0,pitchwheel,0,0,0,,10,-464,,,
0,program_change,0,0,0,6,11,,,,
0,pitchwheel,0,0,0,,11,-208,,,
0,program_change,0,0,0,6,12,,,,
0,pitchwheel,0,0,0,,12,-553,,,
0,set_tempo,0,1,0,,,,500000,,
107,note_on,107,0,0,,10,,,69,127
289,note_off,182,0,0,,10,,,69,127
320,note_on,31,0,0,,2,,,62,127
320,note_on,0,0,0,,5,,,65,127
320,note_on,0,0,0,,2,,,74,127
533,note_on,213,0,0,,4,,,76,127
586,note_off,53,0,0,,2,,,74,127
745,note_off,159,0,0,,4,,,76,127
746,note_on,1,0,0,,5,,,77,127
958,note_off,212,0,0,,5,,,77,127
958,note_off,0,0,0,,5,,,65,127
958,note_off,0,0,0,,2,,,62,127
959,note_on,1,0,0,,4,,,76,127
959,note_on,0,0,0,,1,,,61,127
959,note_on,0,0,0,,4,,,64,127
1171,note_off,212,0,0,,4,,,76,127
1172,note_on,1,0,0,,10,,,81,127
1384,note_off,212,0,0,,10,,,81,127
1385,note_on,1,0,0,,10,,,69,127
1597,note_off,212,0,0,,10,,,69,127
1597,note_off,0,0,0,,4,,,64,127
1597,note_off,0,0,0,,1,,,61,127
1598,note_on,1,0,0,,7,,,79,127
1598,note_on,0,0,0,,2,,,62,127
1650,note_off,52,0,0,,7,,,79,127
1651,note_on,1,0,0,,5,,,77,127
1703,note_off,52,0,0,,5,,,77,127
1704,note_on,1,0,0,,7,,,79,127
1756,note_off,52,0,0,,7,,,79,127
1757,note_on,1,0,0,,5,,,77,127
1809,note_off,52,0,0,,5,,,77,127
1809,note_off,0,0,0,,2,,,62,127
1810,note_on,1,0,0,,7,,,79,127
1810,note_on,0,0,0,,5,,,65,127
1862,note_off,52,0,0,,7,,,79,127
1863,note_on,1,0,0,,5,,,77,127
1915,note_off,52,0,0,,5,,,77,127
1916,note_on,1,0,0,,7,,,79,127
1968,note_off,52,0,0,,7,,,79,127
1969,note_on,1,0,0,,5,,,77,127
2021,note_off,52,0,0,,5,,,77,127
2021,note_off,0,0,0,,5,,,65,127
2022,note_on,1,0,0,,7,,,79,127
2022,note_on,0,0,0,,10,,,69,127
2074,note_off,52,0,0,,7,,,79,127
2075,note_on,1,0,0,,5,,,77,127
2127,note_off,52,0,0,,5,,,77,127
2128,note_on,1,0,0,,7,,,79,127
2180,note_off,52,0,0,,7,,,79,127
2181,note_on,1,0,0,,5,,,77,127
2233,note_off,52,0,0,,5,,,77,127
2233,note_off,0,0,0,,10,,,69,127
2234,note_on,1,0,0,,4,,,76,127
2234,note_on,0,0,0,,0,,,60,127
2446,note_off,212,0,0,,0,,,60,127
2447,note_on,1,0,0,,4,,,64,127
2659,note_off,212,0,0,,4,,,64,127
2659,note_off,0,0,0,,4,,,76,127
2660,note_on,1,0,0,,10,,,81,127
2660,note_on,0,0,0,,10,,,69,127
2872,note_off,212,0,0,,10,,,69,127
2872,note_off,0,0,0,,10,,,81,127
2873,note_on,1,0,0,,7,,,79,127
2873,note_on,0,0,0,,2,,,62,127
2873,note_on,0,0,0,,11,,,58,127
3085,note_off,212,0,0,,7,,,79,127
3086,note_on,1,0,0,,11,,,82,127
3192,note_off,106,0,0,,11,,,82,127
3193,note_on,1,0,0,,10,,,81,127
3299,note_off,106,0,0,,10,,,81,127
3300,note_on,1,0,0,,7,,,79,127
3406,note_off,106,0,0,,7,,,79,127
3407,note_on,1,0,0,,5,,,77,127
3513,note_off,106,0,0,,5,,,77,127
3513,note_off,0,0,0,,11,,,58,127
3513,note_off,0,0,0,,2,,,62,127
3514,note_on,1,0,0,,4,,,76,127
3514,note_on,0,0,0,,2,,,62,127
3514,note_on,0,0,0,,4,,,64,127
3514,note_on,0,0,0,,7,,,55,127
3726,note_off,212,0,0,,4,,,76,127
3727,note_on,1,0,0,,7,,,79,127
3833,note_off,106,0,0,,7,,,79,127
3834,note_on,1,0,0,,5,,,77,127
3940,note_off,106,0,0,,5,,,77,127
3941,note_on,1,0,0,,4,,,76,127
4047,note_off,106,0,0,,4,,,76,127
4048,note_on,1,0,0,,2,,,74,127
4154,note_off,106,0,0,,2,,,74,127
4154,note_off,0,0,0,,7,,,55,127
4154,note_off,0,0,0,,4,,,64,127
4154,note_off,0,0,0,,2,,,62,127
4155,note_on,1,0,0,,2,,,74,127
4155,note_on,0,0,0,,10,,,57,127
4367,note_off,212,0,0,,10,,,57,127
4368,note_on,1,0,0,,1,,,61,127
4580,note_off,212,0,0,,1,,,61,127
4580,note_off,0,0,0,,2,,,74,127
4581,note_on,1,0,0,,1,,,73,127
4581,note_on,0,0,0,,4,,,64,127
4793,note_off,212,0,0,,4,,,64,127
4794,note_on,1,0,0,,10,,,69,127
4900,note_off,106,0,0,,10,,,69,127
4901,note_off,1,0,0,,1,,,73,127
4901,note_on,0,0,0,,7,,,67,127
5007,note_off,106,0,0,,7,,,67,127
5008,note_on,1,0,0,,5,,,65,127
5114,note_off,106,0,0,,5,,,65,127
5115,note_on,1,0,0,,4,,,64,127
5221,note_off,106,0,0,,4,,,64,127
5222,note_on,1,0,0,,10,,,81,127
5222,note_on,0,0,0,,2,,,62,127
5434,note_off,212,0,0,,2,,,62,127
5434,note_off,0,0,0,,10,,,81,127
5435,note_on,1,0,0,,0,,,72,127
5435,note_on,0,0,0,,7,,,67,127
5647,note_off,212,0,0,,0,,,72,127
5648,note_on,1,0,0,,11,,,70,127
5860,note_off,212,0,0,,11,,,70,127
5860,note_off,0,0,0,,7,,,67,127
5861,note_on,1,0,0,,7,,,79,127
5861,note_on,0,0,0,,7,,,67,127
6073,note_off,212,0,0,,7,,,67,127
6073,note_off,0,0,0,,7,,,79,127
6074,note_on,1,0,0,,11,,,70,127
6074,note_on,0,0,0,,5,,,65,127
6286,note_off,212,0,0,,11,,,70,127
6287,note_on,1,0,0,,10,,,69,127
6499,note_off,212,0,0,,10,,,69,127
6499,note_off,0,0,0,,5,,,65,127
6500,note_on,1,0,0,,5,,,77,127
6500,note_on,0,0,0,,5,,,65,127
6712,note_off,212,0,0,,5,,,65,127
6712,note_off,0,0,0,,5,,,77,127
6713,note_on,1,0,0,,10,,,69,127
6713,note_on,0,0,0,,4,,,64,127
6925,note_off,212,0,0,,10,,,69,127
6926,note_on,1,0,0,,7,,,67,127
7138,note_off,212,0,0,,7,,,67,127
7138,note_off,0,0,0,,4,,,64,127
7139,note_on,1,0,0,,4,,,76,127
7139,note_on,0,0,0,,4,,,64,127
7351,note_off,212,0,0,,4,,,64,127
7351,note_off,0,0,0,,4,,,76,127
7352,note_on,1,0,0,,7,,,67,127
7352,note_on,0,0,0,,2,,,62,127
7564,note_off,212,0,0,,7,,,67,127
7565,note_on,1,0,0,,5,,,65,127
7777,note_off,212,0,0,,5,,,65,127
7777,note_off,0,0,0,,2,,,62,127
7778,note_on,1,0,0,,2,,,74,127
7778,note_on,0,0,0,,2,,,62,127
7990,note_off,212,0,0,,2,,,62,127
7990,note_off,0,0,0,,2,,,74,127
7991,note_on,1,0,0,,5,,,65,127
7991,note_on,0,0,0,,0,,,60,127
8203,note_off,212,0,0,,5,,,65,127
8204,note_on,1,0,0,,4,,,64,127
8416,note_off,212,0,0,,4,,,64,127
8416,note_off,0,0,0,,0,,,60,127
8417,note_on,1,0,0,,0,,,72,127
8417,note_on,0,0,0,,0,,,60,127
8629,note_off,212,0,0,,0,,,60,127
8629,note_off,0,0,0,,0,,,72,127
8630,note_on,1,0,0,,4,,,64,127
8630,note_on,0,0,0,,11,,,58,127
8842,note_off,212,0,0,,4,,,64,127
8843,note_on,1,0,0,,2,,,62,127
9055,note_off,212,0,0,,2,,,62,127
9055,note_off,0,0,0,,11,,,58,127
9056,note_on,1,0,0,,11,,,70,127
9056,note_on,0,0,0,,11,,,58,127
9268,note_off,212,0,0,,11,,,58,127
9268,note_off,0,0,0,,11,,,70,127
9269,note_on,1,0,0,,0,,,60,127
9269,note_on,0,0,0,,10,,,57,127
9481,note_off,212,0,0,,10,,,57,127
9481,note_off,0,0,0,,0,,,60,127
9482,note_on,1,0,0,,2,,,62,127
9482,note_on,0,0,0,,11,,,58,127
9588,note_off,106,0,0,,11,,,58,127
9588,note_off,0,0,0,,2,,,62,127
9589,note_on,1,0,0,,4,,,64,127
9589,note_on,0,0,0,,0,,,60,127
9695,note_off,106,0,0,,0,,,60,127
9695,note_off,0,0,0,,4,,,64,127
9696,note_on,1,0,0,,5,,,65,127
9696,note_on,0,0,0,,2,,,62,127
9802,note_off,106,0,0,,2,,,62,127
9802,note_off,0,0,0,,5,,,65,127
9803,note_on,1,0,0,,7,,,67,127
9803,note_on,0,0,0,,4,,,64,127
9909,note_off,106,0,0,,4,,,64,127
9909,note_off,0,0,0,,7,,,67,127
9910,note_on,1,0,0,,10,,,69,127
9910,note_on,0,0,0,,5,,,65,127
10119,note_off,209,0,0,,5,,,65,127
10119,note_off,0,0,0,,10,,,69,127
10123,note_on,4,0,0,,7,,,67,127
10123,note_on,0,0,0,,4,,,64,127
10332,note_off,209,0,0,,7,,,67,127
10335,note_off,3,0,0,,4,,,64,127
10336,note_on,1,0,0,,5,,,65,127
10336,note_on,0,0,0,,2,,,62,127
10545,note_off,209,0,0,,2,,,62,127
10548,note_off,3,0,0,,5,,,65,127
10549,note_on,1,0,0,,4,,,64,127
10549,note_on,0,0,0,,0,,,60,127
10655,note_off,106,0,0,,0,,,60,127
10655,note_off,0,0,0,,4,,,64,127
10656,note_on,1,0,0,,5,,,65,127
10656,note_on,0,0,0,,2,,,62,127
10762,note_off,106,0,0,,2,,,62,127
10762,note_off,0,0,0,,5,,,65,127
10763,note_on,1,0,0,,7,,,67,127
10763,note_on,0,0,0,,4,,,64,127
10869,note_off,106,0,0,,4,,,64,127
10869,note_off,0,0,0,,7,,,67,127
10870,note_on,1,0,0,,10,,,69,127
10870,note_on,0,0,0,,5,,,65,127
10976,note_off,106,0,0,,5,,,65,127
10976,note_off,0,0,0,,10,,,69,127
10977,note_on,1,0,0,,11,,,70,127
10977,note_on,0,0,0,,7,,,67,127
11083,note_off,106,0,0,,7,,,67,127
11083,note_off,0,0,0,,11,,,70,127
11084,note_on,1,0,0,,0,,,72,127
11084,note_on,0,0,0,,10,,,69,127
11190,note_off,106,0,0,,10,,,69,127
11190,note_off,0,0,0,,0,,,72,127
11191,note_on,1,0,0,,2,,,74,127
11191,note_on,0,0,0,,11,,,70,127
11400,note_off,209,0,0,,11,,,70,127
11400,note_off,0,0,0,,2,,,74,127
11404,note_on,4,0,0,,0,,,72,127
11404,note_on,0,0,0,,10,,,69,127
11613,note_off,209,0,0,,10,,,69,127
11613,note_off,0,0,0,,0,,,72,127
11617,note_on,4,0,0,,11,,,70,127
11617,note_on,0,0,0,,7,,,67,127
11826,note_off,209,0,0,,7,,,67,127
11826,note_off,0,0,0,,11,,,70,127
11830,note_on,4,0,0,,10,,,69,127
11830,note_on,0,0,0,,5,,,65,127
12042,note_off,212,0,0,,5,,,65,127
12042,note_off,0,0,0,,10,,,69,127
12043,note_on,1,0,0,,11,,,70,127
12043,note_on,0,0,0,,7,,,67,127
12149,note_off,106,0,0,,7,,,67,127
12149,note_off,0,0,0,,11,,,70,127
12150,note_on,1,0,0,,0,,,72,127
12150,note_on,0,0,0,,10,,,69,127
12256,note_off,106,0,0,,10,,,69,127
12256,note_off,0,0,0,,0,,,72,127
12257,note_on,1,0,0,,2,,,74,127
12257,note_on,0,0,0,,11,,,70,127
12363,note_off,106,0,0,,11,,,70,127
12363,note_off,0,0,0,,2,,,74,127
12364,note_on,1,0,0,,4,,,76,127
12364,note_on,0,0,0,,0,,,72,127
12470,note_off,106,0,0,,0,,,72,127
12470,note_off,0,0,0,,4,,,76,127
12471,note_on,1,0,0,,5,,,77,127
12471,note_on,0,0,0,,2,,,74,127
12680,note_off,209,0,0,,2,,,74,127
12680,note_off,0,0,0,,5,,,77,127
12684,note_on,4,0,0,,4,,,76,127
12684,note_on,0,0,0,,0,,,72,127
12893,note_off,209,0,0,,0,,,72,127
12893,note_off,0,0,0,,4,,,76,127
12897,note_on,4,0,0,,2,,,74,127
12897,note_on,0,0,0,,11,,,70,127
13106,note_off,209,0,0,,11,,,70,127
13106,note_off,0,0,0,,2,,,74,127
13110,note_on,4,0,0,,0,,,72,127
13110,note_on,0,0,0,,10,,,69,127
13216,note_off,106,0,0,,10,,,69,127
13216,note_off,0,0,0,,0,,,72,127
13217,note_on,1,0,0,,2,,,74,127
13217,note_on,0,0,0,,11,,,70,127
13323,note_off,106,0,0,,11,,,70,127
13323,note_off,0,0,0,,2,,,74,127
13324,note_on,1,0,0,,4,,,76,127
13324,note_on,0,0,0,,0,,,72,127
13430,note_off,106,0,0,,0,,,72,127
13430,note_off,0,0,0,,4,,,76,127
13431,note_on,1,0,0,,5,,,77,127
13431,note_on,0,0,0,,2,,,74,127
13537,note_off,106,0,0,,2,,,74,127
13537,note_off,0,0,0,,5,,,77,127
13538,note_on,1,0,0,,7,,,79,127
13538,note_on,0,0,0,,4,,,76,127
13608,note_off,70,0,0,,4,,,76,127
13608,note_off,0,0,0,,7,,,79,127
13609,note_on,1,0,0,,10,,,81,127
13609,note_on,0,0,0,,5,,,77,127
13679,note_off,70,0,0,,5,,,77,127
13679,note_off,0,0,0,,10,,,81,127
13680,note_on,1,0,0,,11,,,82,127
13680,note_on,0,0,0,,7,,,79,127
13750,note_off,70,0,0,,7,,,79,127
13750,note_off,0,0,0,,11,,,82,127
13751,note_on,1,0,0,,0,,,84,127
13751,note_on,0,0,0,,10,,,81,127
13960,note_off,209,0,0,,10,,,81,127
13960,note_off,0,0,0,,0,,,84,127
13964,note_on,4,0,0,,11,,,82,127
13964,note_on,0,0,0,,7,,,79,127
14173,note_off,209,0,0,,7,,,79,127
14173,note_off,0,0,0,,11,,,82,127
14177,note_on,4,0,0,,10,,,81,127
14177,note_on,0,0,0,,5,,,77,127
14386,note_off,209,0,0,,5,,,77,127
14386,note_off,0,0,0,,10,,,81,127
14390,note_on,4,0,0,,10,,,81,127
14390,note_on,0,0,0,,0,,,60,127
14442,note_off,52,0,0,,10,,,81,127
14443,note_on,1,0,0,,7,,,79,127
14495,note_off,52,0,0,,7,,,79,127
14496,note_on,1,0,0,,10,,,81,127
14548,note_off,52,0,0,,10,,,81,127
14549,note_on,1,0,0,,7,,,79,127
14601,note_off,52,0,0,,7,,,79,127
14602,note_on,1,0,0,,10,,,81,127
14654,note_off,52,0,0,,10,,,81,127
14655,note_on,1,0,0,,7,,,79,127
14707,note_off,52,0,0,,7,,,79,127
14708,note_on,1,0,0,,10,,,81,127
14760,note_off,52,0,0,,10,,,81,127
14761,note_on,1,0,0,,7,,,79,127
14813,note_off,52,0,0,,7,,,79,127
14814,note_on,1,0,0,,10,,,81,127
14866,note_off,52,0,0,,10,,,81,127
14867,note_on,1,0,0,,7,,,79,127
14919,note_off,52,0,0,,7,,,79,127
14920,note_on,1,0,0,,10,,,81,127
14972,note_off,52,0,0,,10,,,81,127
14973,note_on,1,0,0,,7,,,79,127
15025,note_off,52,0,0,,0,,,60,127
15026,note_on,1,0,0,,7,,,67,127
15026,note_on,0,0,0,,4,,,64,127
15238,note_off,212,0,0,,7,,,79,127
15239,note_on,1,0,0,,0,,,84,127
15452,note_on,213,0,0,,0,,,72,127
15661,note_off,209,0,0,,0,,,84,127
15664,note_off,3,0,0,,0,,,72,127
15664,note_off,0,0,0,,4,,,64,127
15664,note_off,0,0,0,,7,,,67,127
15665,note_on,1,0,0,,4,,,76,127
15665,note_on,0,0,0,,5,,,65,127
15665,note_on,0,0,0,,10,,,69,127
15717,note_off,52,0,0,,4,,,76,127
15718,note_on,1,0,0,,2,,,74,127
15770,note_off,52,0,0,,2,,,74,127
15771,note_on,1,0,0,,4,,,76,127
15823,note_off,52,0,0,,4,,,76,127
15824,note_on,1,0,0,,2,,,74,127
15876,note_off,52,0,0,,2,,,74,127
15877,note_on,1,0,0,,4,,,76,127
15929,note_off,52,0,0,,4,,,76,127
15930,note_on,1,0,0,,2,,,74,127
15982,note_off,52,0,0,,2,,,74,127
15983,note_on,1,0,0,,4,,,76,127
16035,note_off,52,0,0,,4,,,76,127
16036,note_on,1,0,0,,2,,,74,127
16088,note_off,52,0,0,,2,,,74,127
16089,note_on,1,0,0,,0,,,72,127
16301,note_off,212,0,0,,10,,,69,127
16301,note_off,0,0,0,,5,,,65,127
16302,note_on,1,0,0,,7,,,67,127
16302,note_on,0,0,0,,4,,,64,127
16514,note_off,212,0,0,,4,,,64,127
16514,note_off,0,0,0,,7,,,67,127
16514,note_off,0,0,0,,0,,,72,127
16515,note_on,1,0,0,,0,,,84,127
16515,note_on,0,0,0,,2,,,62,127
16727,note_off,212,0,0,,2,,,62,127
16728,note_on,1,0,0,,0,,,72,127
16728,note_on,0,0,0,,0,,,60,127
16937,note_off,209,0,0,,0,,,84,127
16940,note_off,3,0,0,,0,,,60,127
16940,note_off,0,0,0,,0,,,72,127
16941,note_on,1,0,0,,4,,,76,127
16941,note_on,0,0,0,,5,,,65,127
16941,note_on,0,0,0,,10,,,69,127
16993,note_off,52,0,0,,4,,,76,127
16994,note_on,1,0,0,,2,,,74,127
17046,note_off,52,0,0,,2,,,74,127
17047,note_on,1,0,0,,4,,,76,127
17099,note_off,52,0,0,,4,,,76,127
17100,note_on,1,0,0,,2,,,74,127
17152,note_off,52,0,0,,2,,,74,127
17153,note_on,1,0,0,,4,,,76,127
17205,note_off,52,0,0,,4,,,76,127
17206,note_on,1,0,0,,2,,,74,127
17258,note_off,52,0,0,,2,,,74,127
17259,note_on,1,0,0,,4,,,76,127
17311,note_off,52,0,0,,4,,,76,127
17312,note_on,1,0,0,,2,,,74,127
17364,note_off,52,0,0,,2,,,74,127
17365,note_on,1,0,0,,0,,,72,127
17577,note_off,212,0,0,,10,,,69,127
17577,note_off,0,0,0,,5,,,65,127
17578,note_on,1,0,0,,7,,,67,127
17578,note_on,0,0,0,,4,,,64,127
17790,note_off,212,0,0,,4,,,64,127
17790,note_off,0,0,0,,7,,,67,127
17790,note_off,0,0,0,,0,,,72,127
17791,note_on,1,0,0,,0,,,84,127
17791,note_on,0,0,0,,2,,,62,127
18003,note_off,212,0,0,,2,,,62,127
18003,note_off,0,0,0,,0,,,84,127
18004,note_on,1,0,0,,11,,,82,127
18004,note_on,0,0,0,,0,,,60,127
18216,note_off,212,0,0,,0,,,60,127
18216,note_off,0,0,0,,11,,,82,127
18217,note_on,1,0,0,,10,,,81,127
18217,note_on,0,0,0,,10,,,69,127
18217,note_on,0,0,0,,5,,,65,127
18429,note_off,212,0,0,,10,,,81,127
18430,note_on,1,0,0,,7,,,79,127
18642,note_off,212,0,0,,7,,,79,127
18642,note_off,0,0,0,,5,,,65,127
18643,note_on,1,0,0,,5,,,77,127
18643,note_on,0,0,0,,11,,,58,127
18855,note_off,212,0,0,,11,,,58,127
18856,note_on,1,0,0,,0,,,60,127
19068,note_off,212,0,0,,5,,,77,127
19069,note_on,1,0,0,,7,,,79,127
19281,note_off,212,0,0,,7,,,79,127
19282,note_off,1,0,0,,10,,,69,127
19282,note_on,0,0,0,,4,,,76,127
19282,note_on,0,0,0,,7,,,67,127
19494,note_off,212,0,0,,7,,,67,127
19494,note_off,0,0,0,,4,,,76,127
19494,note_off,0,0,0,,0,,,60,127
19495,note_on,1,0,0,,7,,,79,127
19495,note_on,0,0,0,,5,,,65,127
19547,note_off,52,0,0,,7,,,79,127
19548,note_on,1,0,0,,5,,,77,127
19600,note_off,52,0,0,,5,,,77,127
19601,note_on,1,0,0,,7,,,79,127
19653,note_off,52,0,0,,7,,,79,127
19654,note_on,1,0,0,,5,,,77,127
19706,note_off,52,0,0,,5,,,77,127
19706,note_off,0,0,0,,5,,,65,127
19707,note_on,1,0,0,,7,,,79,127
19707,note_on,0,0,0,,0,,,60,127
19759,note_off,52,0,0,,7,,,79,127
19760,note_on,1,0,0,,5,,,77,127
19812,note_off,52,0,0,,5,,,77,127
19813,note_on,1,0,0,,7,,,79,127
19865,note_off,52,0,0,,7,,,79,127
19866,note_on,1,0,0,,5,,,77,127
19918,note_off,52,0,0,,5,,,77,127
19918,note_off,0,0,0,,0,,,60,127
19919,note_on,1,0,0,,7,,,79,127
19919,note_on,0,0,0,,5,,,53,127
19971,note_off,52,0,0,,7,,,79,127
19972,note_on,1,0,0,,5,,,77,127
20024,note_off,52,0,0,,5,,,77,127
20025,note_on,1,0,0,,7,,,79,127
20077,note_off,52,0,0,,7,,,79,127
20078,note_on,1,0,0,,5,,,77,127
20130,note_off,52,0,0,,5,,,53,127
20131,note_on,1,0,0,,0,,,48,127
20343,note_off,212,0,0,,5,,,77,127
20344,note_on,1,0,0,,7,,,79,127
20556,note_off,212,0,0,,7,,,79,127
20557,note_on,1,0,0,,0,,,72,127
20769,note_off,212,0,0,,0,,,72,127
20769,note_off,0,0,0,,0,,,48,127
20770,note_on,1,0,0,,10,,,81,127
20770,note_on,0,0,0,,7,,,79,127
20770,note_on,0,0,0,,5,,,65,127
20822,note_off,52,0,0,,7,,,79,127
20823,note_on,1,0,0,,5,,,77,127
20875,note_off,52,0,0,,5,,,77,127
20876,note_on,1,0,0,,7,,,79,127
20928,note_off,52,0,0,,7,,,79,127
20929,note_on,1,0,0,,5,,,77,127
20981,note_off,52,0,0,,5,,,77,127
20981,note_off,0,0,0,,5,,,65,127
20982,note_on,1,0,0,,7,,,79,127
20982,note_on,0,0,0,,0,,,60,127
21034,note_off,52,0,0,,7,,,79,127
21035,note_on,1,0,0,,5,,,77,127
21087,note_off,52,0,0,,5,,,77,127
21088,note_on,1,0,0,,7,,,79,127
21140,note_off,52,0,0,,7,,,79,127
21141,note_on,1,0,0,,5,,,77,127
21193,note_off,52,0,0,,5,,,77,127
21193,note_off,0,0,0,,0,,,60,127
21194,note_on,1,0,0,,7,,,79,127
21194,note_on,0,0,0,,5,,,53,127
21246,note_off,52,0,0,,7,,,79,127
21247,note_on,1,0,0,,5,,,77,127
21299,note_off,52,0,0,,5,,,77,127
21300,note_on,1,0,0,,7,,,79,127
21352,note_off,52,0,0,,7,,,79,127
21353,note_on,1,0,0,,5,,,77,127
21405,note_off,52,0,0,,5,,,53,127
21406,note_on,1,0,0,,0,,,48,127
21618,note_off,212,0,0,,5,,,77,127
21618,note_off,0,0,0,,10,,,81,127
21619,note_on,1,0,0,,7,,,79,127
21831,note_off,212,0,0,,7,,,79,127
21832,note_on,1,0,0,,0,,,72,127
22044,note_off,212,0,0,,0,,,72,127
22044,note_off,0,0,0,,0,,,48,127
22045,note_on,1,0,0,,10,,,81,127
22045,note_on,0,0,0,,7,,,79,127
22045,note_on,0,0,0,,5,,,65,127
22097,note_off,52,0,0,,7,,,79,127
22098,note_on,1,0,0,,5,,,77,127
22150,note_off,52,0,0,,5,,,77,127
22151,note_on,1,0,0,,7,,,79,127
22203,note_off,52,0,0,,7,,,79,127
22204,note_on,1,0,0,,5,,,77,127
22256,note_off,52,0,0,,5,,,77,127
22256,note_off,0,0,0,,5,,,65,127
22257,note_on,1,0,0,,7,,,79,127
22257,note_on,0,0,0,,0,,,60,127
22309,note_off,52,0,0,,7,,,79,127
22310,note_on,1,0,0,,5,,,77,127
22362,note_off,52,0,0,,5,,,77,127
22363,note_on,1,0,0,,7,,,79,127
22415,note_off,52,0,0,,7,,,79,127
22416,note_on,1,0,0,,5,,,77,127
22468,note_off,52,0,0,,5,,,77,127
22468,note_off,0,0,0,,0,,,60,127
22469,note_on,1,0,0,,7,,,79,127
22469,note_on,0,0,0,,5,,,53,127
22521,note_off,52,0,0,,7,,,79,127
22522,note_on,1,0,0,,5,,,77,127
22574,note_off,52,0,0,,5,,,77,127
22575,note_on,1,0,0,,7,,,79,127
22627,note_off,52,0,0,,7,,,79,127
22628,note_on,1,0,0,,5,,,77,127
22680,note_off,52,0,0,,5,,,53,127
22681,note_on,1,0,0,,0,,,36,127
22893,note_off,212,0,0,,5,,,77,127
22893,note_off,0,0,0,,10,,,81,127
22894,note_on,1,0,0,,7,,,79,127
23106,note_off,212,0,0,,7,,,79,127
23106,note_off,0,0,0,,0,,,36,127
23107,note_on,1,0,0,,0,,,72,127
23107,note_on,0,0,0,,4,,,64,127
23319,note_off,212,0,0,,4,,,64,127
23319,note_off,0,0,0,,0,,,72,127
23320,note_on,1,0,0,,5,,,77,127
23320,note_on,0,0,0,,10,,,81,127
23320,note_on,0,0,0,,5,,,65,127
23532,note_off,212,0,0,,10,,,81,127
23532,note_off,0,0,0,,5,,,77,127
23533,note_on,1,0,0,,7,,,79,127
23533,note_on,0,0,0,,11,,,82,127
23745,note_off,212,0,0,,11,,,82,127
23745,note_off,0,0,0,,7,,,79,127
23746,note_on,1,0,0,,0,,,84,127
23746,note_on,0,0,0,,10,,,81,127
23958,note_off,212,0,0,,5,,,65,127
23959,note_on,1,0,0,,2,,,62,127
23959,note_on,0,0,0,,5,,,65,127
23959,note_on,0,0,0,,11,,,58,127
24171,note_off,212,0,0,,10,,,81,127
24171,note_off,0,0,0,,0,,,84,127
24172,note_on,1,0,0,,11,,,82,127
24172,note_on,0,0,0,,7,,,79,127
24384,note_off,212,0,0,,7,,,79,127
24384,note_off,0,0,0,,11,,,82,127
24385,note_on,1,0,0,,10,,,81,127
24385,note_on,0,0,0,,5,,,77,127
24597,note_off,212,0,0,,5,,,77,127
24597,note_off,0,0,0,,10,,,81,127
24597,note_off,0,0,0,,11,,,58,127
24597,note_off,0,0,0,,5,,,65,127
24597,note_off,0,0,0,,2,,,62,127
24598,note_on,1,0,0,,7,,,79,127
24598,note_on,0,0,0,,0,,,60,127
24598,note_on,0,0,0,,0,,,48,127
24704,note_off,106,0,0,,7,,,79,127
24705,note_on,1,0,0,,5,,,77,127
24811,note_off,106,0,0,,5,,,77,127
24812,note_on,1,0,0,,4,,,76,127
24918,note_off,106,0,0,,4,,,76,127
24919,note_on,1,0,0,,2,,,74,127
25025,note_off,106,0,0,,2,,,74,127
25026,note_on,1,0,0,,0,,,72,127
25132,note_off,106,0,0,,0,,,72,127
25133,note_on,1,0,0,,11,,,70,127
25239,note_off,106,0,0,,11,,,70,127
25240,note_on,1,0,0,,10,,,69,127
25346,note_off,106,0,0,,10,,,69,127
25347,note_on,1,0,0,,7,,,67,127
25453,note_off,106,0,0,,7,,,67,127
25453,note_off,0,0,0,,0,,,48,127
25453,note_off,0,0,0,,0,,,60,127
25454,note_on,1,0,0,,5,,,65,127
25560,note_off,106,0,0,,5,,,65,127
25561,note_on,1,0,0,,4,,,64,127
25667,note_off,106,0,0,,4,,,64,127
25668,note_on,1,0,0,,2,,,62,127
25774,note_off,106,0,0,,2,,,62,127
25775,note_on,1,0,0,,0,,,60,127
25881,note_off,106,0,0,,0,,,60,127
25882,note_on,1,0,0,,10,,,69,127
25882,note_on,0,0,0,,7,,,67,127
25882,note_on,0,0,0,,5,,,53,127
25934,note_off,52,0,0,,7,,,67,127
25935,note_on,1,0,0,,5,,,65,127
25987,note_off,52,0,0,,5,,,65,127
25988,note_on,1,0,0,,7,,,67,127
26040,note_off,52,0,0,,7,,,67,127
26041,note_on,1,0,0,,5,,,65,127
26093,note_off,52,0,0,,5,,,65,127
26093,note_off,0,0,0,,5,,,53,127
26094,note_on,1,0,0,,7,,,67,127
26094,note_on,0,0,0,,0,,,48,127
26146,note_off,52,0,0,,7,,,67,127
26147,note_on,1,0,0,,5,,,65,127
26199,note_off,52,0,0,,5,,,65,127
26200,note_on,1,0,0,,7,,,67,127
26252,note_off,52,0,0,,7,,,67,127
26253,note_on,1,0,0,,5,,,65,127
26305,note_off,52,0,0,,5,,,65,127
26305,note_off,0,0,0,,0,,,48,127
26306,note_on,1,0,0,,7,,,67,127
26306,note_on,0,0,0,,5,,,41,127
26358,note_off,52,0,0,,7,,,67,127
26359,note_on,1,0,0,,5,,,65,127
26411,note_off,52,0,0,,5,,,65,127
26412,note_on,1,0,0,,7,,,67,127
26464,note_off,52,0,0,,7,,,67,127
26465,note_on,1,0,0,,5,,,65,127
26517,note_off,52,0,0,,5,,,41,127
26518,note_on,1,0,0,,0,,,36,127
26730,note_off,212,0,0,,5,,,65,127
26730,note_off,0,0,0,,10,,,69,127
26731,note_on,1,0,0,,7,,,67,127
26943,note_off,212,0,0,,7,,,67,127
26944,note_on,1,0,0,,0,,,60,127
27156,note_off,212,0,0,,0,,,60,127
27156,note_off,0,0,0,,0,,,36,127
27157,note_on,1,0,0,,10,,,69,127
27157,note_on,0,0,0,,7,,,67,127
27157,note_on,0,0,0,,5,,,53,127
27209,note_off,52,0,0,,7,,,67,127
27210,note_on,1,0,0,,5,,,65,127
27262,note_off,52,0,0,,5,,,65,127
27263,note_on,1,0,0,,7,,,67,127
27315,note_off,52,0,0,,7,,,67,127
27316,note_on,1,0,0,,5,,,65,127
27368,note_off,52,0,0,,5,,,65,127
27368,note_off,0,0,0,,5,,,53,127
27369,note_on,1,0,0,,7,,,67,127
27369,note_on,0,0,0,,0,,,48,127
27421,note_off,52,0,0,,7,,,67,127
27422,note_on,1,0,0,,5,,,65,127
27474,note_off,52,0,0,,5,,,65,127
27475,note_on,1,0,0,,7,,,67,127
27527,note_off,52,0,0,,7,,,67,127
27528,note_on,1,0,0,,5,,,65,127
27580,note_off,52,0,0,,5,,,65,127
27580,note_off,0,0,0,,0,,,48,127
27581,note_on,1,0,0,,7,,,67,127
27581,note_on,0,0,0,,5,,,41,127
27633,note_off,52,0,0,,7,,,67,127
27634,note_on,1,0,0,,5,,,65,127
27686,note_off,52,0,0,,5,,,65,127
27687,note_on,1,0,0,,7,,,67,127
27739,note_off,52,0,0,,7,,,67,127
27740,note_on,1,0,0,,5,,,65,127
27792,note_off,52,0,0,,5,,,41,127
27793,note_on,1,0,0,,0,,,36,127
28005,note_off,212,0,0,,5,,,65,127
28005,note_off,0,0,0,,10,,,69,127
28006,note_on,1,0,0,,7,,,67,127
28218,note_off,212,0,0,,7,,,67,127
28219,note_on,1,0,0,,0,,,60,127
28431,note_off,212,0,0,,0,,,60,127
28431,note_off,0,0,0,,0,,,36,127
28432,note_on,1,0,0,,10,,,69,127
28432,note_on,0,0,0,,5,,,65,127
28432,note_on,0,0,0,,5,,,53,127
28644,note_off,212,0,0,,10,,,69,127
28645,note_on,1,0,0,,7,,,67,127
28857,note_off,212,0,0,,7,,,67,127
28857,note_off,0,0,0,,5,,,53,127
28857,note_off,0,0,0,,5,,,65,127
28858,note_on,1,0,0,,2,,,62,127
28858,note_on,0,0,0,,5,,,65,127
28858,note_on,0,0,0,,11,,,58,127
29070,note_off,212,0,0,,11,,,58,127
29070,note_off,0,0,0,,5,,,65,127
29070,note_off,0,0,0,,2,,,62,127
29071,note_on,1,0,0,,10,,,69,127
29071,note_on,0,0,0,,5,,,65,127
29071,note_on,0,0,0,,0,,,60,127
29283,note_off,212,0,0,,5,,,65,127
29283,note_off,0,0,0,,10,,,69,127
29284,note_on,1,0,0,,7,,,67,127
29284,note_on,0,0,0,,11,,,70,127
29496,note_off,212,0,0,,11,,,70,127
29496,note_off,0,0,0,,7,,,67,127
29496,note_off,0,0,0,,0,,,60,127
29497,note_on,1,0,0,,4,,,64,127
29497,note_on,0,0,0,,7,,,67,127
29497,note_on,0,0,0,,0,,,48,127
29709,note_off,212,0,0,,0,,,48,127
29709,note_off,0,0,0,,7,,,67,127
29709,note_off,0,0,0,,4,,,64,127
29710,note_on,1,0,0,,5,,,65,127
29710,note_on,0,0,0,,5,,,41,127
29922,note_off,212,0,0,,5,,,65,127
29923,note_on,1,0,0,,7,,,67,127
29975,note_off,52,0,0,,7,,,67,127
29976,note_on,1,0,0,,10,,,69,127
30028,note_off,52,0,0,,10,,,69,127
30029,note_on,1,0,0,,11,,,70,127
30081,note_off,52,0,0,,11,,,70,127
30082,note_on,1,0,0,,0,,,72,127
30134,note_off,52,0,0,,0,,,72,127
30135,note_on,1,0,0,,2,,,74,127
30187,note_off,52,0,0,,2,,,74,127
30188,note_on,1,0,0,,4,,,76,127
30240,note_off,52,0,0,,4,,,76,127
30241,note_on,1,0,0,,5,,,77,127
30293,note_off,52,0,0,,5,,,77,127
30294,note_on,1,0,0,,7,,,79,127
30346,note_off,52,0,0,,7,,,79,127
30346,note_off,0,0,0,,5,,,41,127
30347,note_on,1,0,0,,10,,,81,127
30347,note_on,0,0,0,,5,,,53,127
30347,note_on,0,0,0,,5,,,41,127
30559,note_off,212,0,0,,10,,,81,127
30560,note_on,1,0,0,,0,,,84,127
30773,note_on,213,0,0,,0,,,72,127
30982,note_off,209,0,0,,0,,,84,127
30985,note_off,3,0,0,,0,,,72,127
30985,note_off,0,0,0,,5,,,41,127
30985,note_off,0,0,0,,5,,,53,127
30986,note_on,1,0,0,,10,,,81,127
30986,note_on,0,0,0,,5,,,41,127
30986,note_on,0,0,0,,5,,,53,127
31198,note_off,212,0,0,,10,,,81,127
31199,note_on,1,0,0,,0,,,84,127
31412,note_on,213,0,0,,0,,,72,127
31621,note_off,209,0,0,,0,,,84,127
31624,note_off,3,0,0,,0,,,72,127
31624,note_off,0,0,0,,5,,,53,127
31624,note_off,0,0,0,,5,,,41,127
31625,note_on,1,0,0,,10,,,81,127
31625,note_on,0,0,0,,5,,,41,127
31625,note_on,0,0,0,,5,,,53,127
31837,note_off,212,0,0,,10,,,81,127
31838,note_on,1,0,0,,0,,,84,127
32051,note_on,213,0,0,,0,,,72,127
32260,note_off,209,0,0,,0,,,84,127
32263,note_off,3,0,0,,0,,,72,127
32263,note_off,0,0,0,,5,,,53,127
32263,note_off,0,0,0,,5,,,41,127
32264,note_on,1,0,0,,10,,,81,127
32264,note_on,0,0,0,,7,,,79,127
32264,note_on,0,0,0,,5,,,53,127
32264,note_on,0,0,0,,5,,,41,127
32316,note_off,52,0,0,,7,,,79,127
32317,note_on,1,0,0,,5,,,77,127
32369,note_off,52,0,0,,5,,,77,127
32370,note_on,1,0,0,,7,,,79,127
32422,note_off,52,0,0,,7,,,79,127
32423,note_on,1,0,0,,5,,,77,127
32902,note_off,479,0,0,,10,,,81,127
33329,note_off,427,0,0,,5,,,77,127
33330,note_on,1,0,0,,0,,,60,127
33542,note_off,212,0,0,,0,,,60,127
33542,note_off,0,0,0,,5,,,41,127
33542,note_off,0,0,0,,5,,,53,127
33543,note_on,1,0,0,,5,,,65,127
33543,note_on,0,0,0,,5,,,53,127
33543,note_on,0,0,0,,10,,,57,127
33543,note_on,0,0,0,,0,,,60,127
33755,note_off,212,0,0,,5,,,65,127
33756,note_on,1,0,0,,7,,,67,127
33968,note_off,212,0,0,,7,,,67,127
33969,note_on,1,0,0,,10,,,69,127
34181,note_off,212,0,0,,10,,,69,127
34181,note_off,0,0,0,,0,,,60,127
34181,note_off,0,0,0,,10,,,57,127
34181,note_off,0,0,0,,5,,,53,127
34182,note_on,1,0,0,,7,,,67,127
34182,note_on,0,0,0,,4,,,52,127
34182,note_on,0,0,0,,0,,,60,127
34182,note_on,0,0,0,,7,,,55,127
34394,note_off,212,0,0,,7,,,67,127
34395,note_on,1,0,0,,10,,,69,127
34607,note_off,212,0,0,,10,,,69,127
34608,note_on,1,0,0,,11,,,70,127
34820,note_off,212,0,0,,11,,,70,127
34820,note_off,0,0,0,,7,,,55,127
34820,note_off,0,0,0,,0,,,60,127
34820,note_off,0,0,0,,4,,,52,127
34821,note_on,1,0,0,,10,,,69,127
34821,note_on,0,0,0,,0,,,60,127
34821,note_on,0,0,0,,10,,,57,127
34821,note_on,0,0,0,,5,,,53,127
35033,note_off,212,0,0,,10,,,69,127
35034,note_on,1,0,0,,11,,,70,127
35246,note_off,212,0,0,,11,,,70,127
35247,note_on,1,0,0,,0,,,72,127
35459,note_off,212,0,0,,5,,,53,127
35459,note_off,0,0,0,,10,,,57,127
35459,note_off,0,0,0,,0,,,60,127
35460,note_on,1,0,0,,7,,,55,127
35460,note_on,0,0,0,,0,,,60,127
35460,note_on,0,0,0,,3,,,51,127
35672,note_off,212,0,0,,0,,,72,127
35673,note_on,1,0,0,,2,,,74,127
35885,note_off,212,0,0,,2,,,74,127
35886,note_on,1,0,0,,3,,,75,127
36098,note_off,212,0,0,,3,,,75,127
36098,note_off,0,0,0,,3,,,51,127
36098,note_off,0,0,0,,0,,,60,127
36098,note_off,0,0,0,,7,,,55,127
36099,note_on,1,0,0,,7,,,67,127
36099,note_on,0,0,0,,2,,,62,127
36099,note_on,0,0,0,,2,,,50,127
36099,note_on,0,0,0,,10,,,57,127
36099,note_on,0,0,0,,10,,,69,127
36311,note_off,212,0,0,,10,,,69,127
36311,note_off,0,0,0,,7,,,67,127
36312,note_on,1,0,0,,6,,,66,127
36524,note_off,212,0,0,,6,,,66,127
36525,note_on,1,0,0,,7,,,67,127
36737,note_off,212,0,0,,7,,,67,127
36737,note_off,0,0,0,,10,,,57,127
36737,note_off,0,0,0,,2,,,50,127
36737,note_off,0,0,0,,2,,,62,127
36738,note_on,1,0,0,,10,,,69,127
36738,note_on,0,0,0,,2,,,62,127
36738,note_on,0,0,0,,10,,,57,127
36738,note_on,0,0,0,,6,,,54,127
36950,note_off,212,0,0,,10,,,69,127
36951,note_on,1,0,0,,11,,,70,127
37163,note_off,212,0,0,,11,,,70,127
37164,note_on,1,0,0,,0,,,72,127
37376,note_off,212,0,0,,0,,,72,127
37376,note_off,0,0,0,,6,,,54,127
37376,note_off,0,0,0,,10,,,57,127
37376,note_off,0,0,0,,2,,,62,127
37377,note_on,1,0,0,,11,,,70,127
37377,note_on,0,0,0,,2,,,62,127
37377,note_on,0,0,0,,7,,,55,127
37377,note_on,0,0,0,,11,,,58,127
37589,note_off,212,0,0,,11,,,70,127
37590,note_on,1,0,0,,0,,,72,127
37802,note_off,212,0,0,,0,,,72,127
37803,note_on,1,0,0,,2,,,74,127
38015,note_off,212,0,0,,11,,,58,127
38015,note_off,0,0,0,,7,,,55,127
38015,note_off,0,0,0,,2,,,62,127
38016,note_on,1,0,0,,2,,,62,127
38016,note_on,0,0,0,,5,,,53,127
38016,note_on,0,0,0,,10,,,57,127
38228,note_off,212,0,0,,2,,,74,127
38229,note_on,1,0,0,,4,,,76,127
38441,note_off,212,0,0,,4,,,76,127
38442,note_on,1,0,0,,5,,,77,127
38654,note_off,212,0,0,,5,,,77,127
38654,note_off,0,0,0,,10,,,57,127
38654,note_off,0,0,0,,5,,,53,127
38654,note_off,0,0,0,,2,,,62,127
38655,note_on,1,0,0,,10,,,69,127
38655,note_on,0,0,0,,4,,,64,127
38655,note_on,0,0,0,,12,,,59,127
38655,note_on,0,0,0,,4,,,52,127
38655,note_on,0,0,0,,12,,,71,127
38867,note_off,212,0,0,,12,,,71,127
38867,note_off,0,0,0,,10,,,69,127
38868,note_on,1,0,0,,8,,,68,127
39080,note_off,212,0,0,,8,,,68,127
39081,note_on,1,0,0,,10,,,69,127
39293,note_off,212,0,0,,10,,,69,127
39293,note_off,0,0,0,,4,,,52,127
39293,note_off,0,0,0,,12,,,59,127
39293,note_off,0,0,0,,4,,,64,127
39294,note_on,1,0,0,,12,,,71,127
39294,note_on,0,0,0,,8,,,56,127
39294,note_on,0,0,0,,12,,,59,127
39294,note_on,0,0,0,,4,,,64,127
39506,note_off,212,0,0,,12,,,71,127
39507,note_on,1,0,0,,1,,,73,127
39719,note_off,212,0,0,,1,,,73,127
39720,note_on,1,0,0,,2,,,74,127
39932,note_off,212,0,0,,2,,,74,127
39932,note_off,0,0,0,,4,,,64,127
39932,note_off,0,0,0,,12,,,59,127
39932,note_off,0,0,0,,8,,,56,127
39933,note_on,1,0,0,,1,,,73,127
39933,note_on,0,0,0,,10,,,57,127
39933,note_on,0,0,0,,4,,,64,127
39933,note_on,0,0,0,,1,,,61,127
40145,note_off,212,0,0,,1,,,73,127
40146,note_on,1,0,0,,2,,,74,127
40358,note_off,212,0,0,,2,,,74,127
40359,note_on,1,0,0,,4,,,76,127
40571,note_off,212,0,0,,1,,,61,127
40571,note_off,0,0,0,,4,,,64,127
40571,note_off,0,0,0,,10,,,57,127
40572,note_on,1,0,0,,10,,,57,127
40572,note_on,0,0,0,,1,,,49,127
40572,note_on,0,0,0,,4,,,52,127
40784,note_off,212,0,0,,4,,,76,127
40785,note_on,1,0,0,,5,,,77,127
40997,note_off,212,0,0,,5,,,77,127
40998,note_on,1,0,0,,7,,,79,127
41210,note_off,212,0,0,,7,,,79,127
41210,note_off,0,0,0,,4,,,52,127
41210,note_off,0,0,0,,1,,,49,127
41210,note_off,0,0,0,,10,,,57,127
41211,note_on,1,0,0,,7,,,79,127
41211,note_on,0,0,0,,2,,,62,127
41211,note_on,0,0,0,,10,,,57,127
41211,note_on,0,0,0,,2,,,50,127
41317,note_off,106,0,0,,7,,,79,127
41318,note_on,1,0,0,,5,,,77,127
41424,note_off,106,0,0,,5,,,77,127
41425,note_on,1,0,0,,4,,,76,127
41637,note_off,212,0,0,,4,,,76,127
41638,note_on,1,0,0,,2,,,74,127
41850,note_off,212,0,0,,2,,,74,127
41850,note_off,0,0,0,,2,,,50,127
41850,note_off,0,0,0,,10,,,57,127
41850,note_off,0,0,0,,2,,,62,127
41851,note_on,1,0,0,,10,,,81,127
41851,note_on,0,0,0,,2,,,62,127
41851,note_on,0,0,0,,5,,,53,127
42063,note_off,212,0,0,,10,,,81,127
42064,note_on,1,0,0,,7,,,79,127
42276,note_off,212,0,0,,7,,,79,127
42276,note_off,0,0,0,,5,,,53,127
42276,note_off,0,0,0,,2,,,62,127
42277,note_on,1,0,0,,5,,,77,127
42277,note_on,0,0,0,,7,,,55,127
42489,note_off,212,0,0,,7,,,55,127
42490,note_on,1,0,0,,10,,,57,127
42543,note_off,53,0,0,,5,,,77,127
42543,note_on,0,0,0,,4,,,76,127
42595,note_off,52,0,0,,4,,,76,127
42596,note_on,1,0,0,,5,,,77,127
42648,note_off,52,0,0,,5,,,77,127
42649,note_on,1,0,0,,4,,,76,127
42701,note_off,52,0,0,,4,,,76,127
42701,note_off,0,0,0,,10,,,57,127
42702,note_on,1,0,0,,5,,,77,127
42702,note_on,0,0,0,,4,,,52,127
42754,note_off,52,0,0,,5,,,77,127
42755,note_on,1,0,0,,4,,,76,127
42807,note_off,52,0,0,,4,,,76,127
42808,note_on,1,0,0,,5,,,77,127
42860,note_off,52,0,0,,5,,,77,127
42861,note_on,1,0,0,,4,,,76,127
42913,note_off,52,0,0,,4,,,76,127
42913,note_off,0,0,0,,4,,,52,127
42914,note_on,1,0,0,,5,,,77,127
42914,note_on,0,0,0,,1,,,49,127
42966,note_off,52,0,0,,5,,,77,127
42967,note_on,1,0,0,,4,,,76,127
43019,note_off,52,0,0,,4,,,76,127
43020,note_on,1,0,0,,5,,,77,127
43072,note_off,52,0,0,,5,,,77,127
43073,note_on,1,0,0,,4,,,76,127
43125,note_off,52,0,0,,1,,,49,127
43126,note_on,1,0,0,,10,,,45,127
43338,note_off,212,0,0,,4,,,76,127
43339,note_on,1,0,0,,10,,,81,127
43552,note_on,213,0,0,,10,,,69,127
43761,note_off,209,0,0,,10,,,81,127
43764,note_off,3,0,0,,10,,,69,127
43764,note_off,0,0,0,,10,,,45,127
43765,note_on,1,0,0,,0,,,72,127
43765,note_on,0,0,0,,2,,,62,127
43765,note_on,0,0,0,,5,,,65,127
43817,note_off,52,0,0,,0,,,72,127
43818,note_on,1,0,0,,11,,,70,127
43870,note_off,52,0,0,,11,,,70,127
43871,note_on,1,0,0,,0,,,72,127
43923,note_off,52,0,0,,0,,,72,127
43924,note_on,1,0,0,,11,,,70,127
43976,note_off,52,0,0,,11,,,70,127
43977,note_on,1,0,0,,0,,,72,127
44029,note_off,52,0,0,,0,,,72,127
44030,note_on,1,0,0,,11,,,70,127
44082,note_off,52,0,0,,11,,,70,127
44083,note_on,1,0,0,,0,,,72,127
44135,note_off,52,0,0,,0,,,72,127
44136,note_on,1,0,0,,11,,,70,127
44188,note_off,52,0,0,,11,,,70,127
44189,note_on,1,0,0,,10,,,69,127
44401,note_off,212,0,0,,5,,,65,127
44401,note_off,0,0,0,,2,,,62,127
44402,note_on,1,0,0,,1,,,61,127
44402,note_on,0,0,0,,4,,,64,127
44614,note_off,212,0,0,,10,,,69,127
44615,note_on,1,0,0,,10,,,81,127
44828,note_on,213,0,0,,10,,,69,127
45037,note_off,209,0,0,,10,,,81,127
45040,note_off,3,0,0,,10,,,69,127
45040,note_off,0,0,0,,4,,,64,127
45040,note_off,0,0,0,,1,,,61,127
45041,note_on,1,0,0,,0,,,72,127
45041,note_on,0,0,0,,2,,,62,127
45041,note_on,0,0,0,,5,,,65,127
45093,note_off,52,0,0,,0,,,72,127
45094,note_on,1,0,0,,11,,,70,127
45146,note_off,52,0,0,,11,,,70,127
45147,note_on,1,0,0,,0,,,72,127
45199,note_off,52,0,0,,0,,,72,127
45200,note_on,1,0,0,,11,,,70,127
45252,note_off,52,0,0,,11,,,70,127
45253,note_on,1,0,0,,0,,,72,127
45305,note_off,52,0,0,,0,,,72,127
45306,note_on,1,0,0,,11,,,70,127
45358,note_off,52,0,0,,11,,,70,127
45359,note_on,1,0,0,,0,,,72,127
45411,note_off,52,0,0,,0,,,72,127
45412,note_on,1,0,0,,11,,,70,127
45464,note_off,52,0,0,,11,,,70,127
45465,note_on,1,0,0,,10,,,69,127
45677,note_off,212,0,0,,5,,,65,127
45677,note_off,0,0,0,,2,,,62,127
45678,note_on,1,0,0,,6,,,66,127
45678,note_on,0,0,0,,2,,,62,127
45890,note_off,212,0,0,,10,,,69,127
45891,note_on,1,0,0,,10,,,81,127
46103,note_off,212,0,0,,10,,,81,127
46104,note_on,1,0,0,,6,,,78,127
46316,note_off,212,0,0,,6,,,78,127
46316,note_off,0,0,0,,2,,,62,127
46316,note_off,0,0,0,,6,,,66,127
46317,note_on,1,0,0,,7,,,79,127
46317,note_on,0,0,0,,3,,,63,127
46317,note_on,0,0,0,,7,,,67,127
46529,note_off,212,0,0,,7,,,79,127
46530,note_on,1,0,0,,10,,,81,127
46742,note_off,212,0,0,,10,,,81,127
46743,note_on,1,0,0,,11,,,82,127
46955,note_off,212,0,0,,11,,,82,127
46955,note_off,0,0,0,,7,,,67,127
46955,note_off,0,0,0,,3,,,63,127
46956,note_on,1,0,0,,0,,,84,127
46956,note_on,0,0,0,,0,,,60,127
46956,note_on,0,0,0,,10,,,69,127
46956,note_on,0,0,0,,3,,,63,127
47062,note_off,106,0,0,,0,,,84,127
47063,note_on,1,0,0,,11,,,82,127
47169,note_off,106,0,0,,11,,,82,127
47170,note_on,1,0,0,,10,,,81,127
47382,note_off,212,0,0,,10,,,81,127
47383,note_on,1,0,0,,7,,,79,127
47595,note_off,212,0,0,,7,,,79,127
47595,note_off,0,0,0,,3,,,63,127
47595,note_off,0,0,0,,0,,,60,127
47596,note_on,1,0,0,,6,,,78,127
47596,note_on,0,0,0,,2,,,62,127
47596,note_on,0,0,0,,6,,,66,127
47808,note_off,212,0,0,,6,,,78,127
47809,note_on,1,0,0,,7,,,79,127
48021,note_off,212,0,0,,7,,,79,127
48022,note_on,1,0,0,,10,,,81,127
48233,note_off,211,0,0,,10,,,69,127
48234,note_off,1,0,0,,10,,,81,127
48234,note_off,0,0,0,,6,,,66,127
48234,note_off,0,0,0,,2,,,62,127
48235,note_on,1,0,0,,5,,,77,127
48235,note_on,0,0,0,,2,,,62,127
48235,note_on,0,0,0,,10,,,57,127
48235,note_on,0,0,0,,6,,,54,127
48341,note_off,106,0,0,,5,,,77,127
48342,note_on,1,0,0,,3,,,75,127
48448,note_off,106,0,0,,3,,,75,127
48449,note_on,1,0,0,,2,,,74,127
48661,note_off,212,0,0,,2,,,74,127
48662,note_on,1,0,0,,0,,,72,127
48874,note_off,212,0,0,,0,,,72,127
48874,note_off,0,0,0,,6,,,54,127
48874,note_off,0,0,0,,10,,,57,127
48874,note_off,0,0,0,,2,,,62,127
48875,note_on,1,0,0,,0,,,72,127
48875,note_on,0,0,0,,7,,,55,127
49087,note_off,212,0,0,,0,,,72,127
49088,note_on,1,0,0,,11,,,70,127
49300,note_off,212,0,0,,11,,,70,127
49300,note_off,0,0,0,,7,,,55,127
49301,note_on,1,0,0,,7,,,79,127
49301,note_on,0,0,0,,7,,,67,127
49513,note_off,212,0,0,,7,,,67,127
49513,note_off,0,0,0,,7,,,79,127
49514,note_on,1,0,0,,11,,,70,127
49514,note_on,0,0,0,,5,,,53,127
49726,note_off,212,0,0,,11,,,70,127
49727,note_on,1,0,0,,10,,,69,127
49939,note_off,212,0,0,,10,,,69,127
49939,note_off,0,0,0,,5,,,53,127
49940,note_on,1,0,0,,5,,,77,127
49940,note_on,0,0,0,,5,,,65,127
50152,note_off,212,0,0,,5,,,65,127
50152,note_off,0,0,0,,5,,,77,127
50153,note_on,1,0,0,,10,,,69,127
50153,note_on,0,0,0,,4,,,52,127
50365,note_off,212,0,0,,10,,,69,127
50366,note_on,1,0,0,,7,,,67,127
50578,note_off,212,0,0,,7,,,67,127
50578,note_off,0,0,0,,4,,,52,127
50579,note_on,1,0,0,,4,,,76,127
50579,note_on,0,0,0,,4,,,64,127
50791,note_off,212,0,0,,4,,,64,127
50791,note_off,0,0,0,,4,,,76,127
50792,note_on,1,0,0,,7,,,67,127
50792,note_on,0,0,0,,2,,,50,127
51004,note_off,212,0,0,,7,,,67,127
51005,note_on,1,0,0,,5,,,65,127
51217,note_off,212,0,0,,5,,,65,127
51217,note_off,0,0,0,,2,,,50,127
51218,note_on,1,0,0,,2,,,74,127
51218,note_on,0,0,0,,2,,,62,127
51430,note_off,212,0,0,,2,,,62,127
51430,note_off,0,0,0,,2,,,74,127
51431,note_on,1,0,0,,5,,,65,127
51431,note_on,0,0,0,,0,,,48,127
51643,note_off,212,0,0,,5,,,65,127
51644,note_on,1,0,0,,4,,,64,127
51856,note_off,212,0,0,,4,,,64,127
51856,note_off,0,0,0,,0,,,48,127
51857,note_on,1,0,0,,0,,,72,127
51857,note_on,0,0,0,,0,,,60,127
52069,note_off,212,0,0,,0,,,60,127
52069,note_off,0,0,0,,0,,,72,127
52070,note_on,1,0,0,,4,,,64,127
52070,note_on,0,0,0,,11,,,46,127
52282,note_off,212,0,0,,4,,,64,127
52283,note_on,1,0,0,,2,,,62,127
52495,note_off,212,0,0,,2,,,62,127
52495,note_off,0,0,0,,11,,,46,127
52496,note_on,1,0,0,,11,,,70,127
52496,note_on,0,0,0,,11,,,58,127
52708,note_off,212,0,0,,11,,,58,127
52708,note_off,0,0,0,,11,,,70,127
52709,note_on,1,0,0,,2,,,62,127
52709,note_on,0,0,0,,10,,,45,127
52921,note_off,212,0,0,,2,,,62,127
52922,note_on,1,0,0,,0,,,60,127
53134,note_off,212,0,0,,0,,,60,127
53134,note_off,0,0,0,,10,,,45,127
53135,note_on,1,0,0,,10,,,69,127
53135,note_on,0,0,0,,10,,,57,127
53347,note_off,212,0,0,,10,,,57,127
53347,note_off,0,0,0,,10,,,69,127
53348,note_on,1,0,0,,0,,,60,127
53348,note_on,0,0,0,,7,,,43,127
53560,note_off,212,0,0,,0,,,60,127
53561,note_on,1,0,0,,11,,,58,127
53773,note_off,212,0,0,,11,,,58,127
53773,note_off,0,0,0,,7,,,43,127
53774,note_on,1,0,0,,7,,,67,127
53774,note_on,0,0,0,,7,,,55,127
53986,note_off,212,0,0,,7,,,55,127
53986,note_off,0,0,0,,7,,,67,127
53987,note_on,1,0,0,,10,,,57,127
53987,note_on,0,0,0,,5,,,53,127
54199,note_off,212,0,0,,5,,,53,127
54199,note_off,0,0,0,,10,,,57,127
54200,note_on,1,0,0,,12,,,59,127
54200,note_on,0,0,0,,7,,,55,127
54306,note_off,106,0,0,,7,,,55,127
54306,note_off,0,0,0,,12,,,59,127
54307,note_on,1,0,0,,1,,,61,127
54307,note_on,0,0,0,,10,,,57,127
54413,note_off,106,0,0,,10,,,57,127
54413,note_off,0,0,0,,1,,,61,127
54414,note_on,1,0,0,,2,,,62,127
54414,note_on,0,0,0,,12,,,59,127
54520,note_off,106,0,0,,12,,,59,127
54520,note_off,0,0,0,,2,,,62,127
54521,note_on,1,0,0,,4,,,64,127
54521,note_on,0,0,0,,1,,,61,127
54627,note_off,106,0,0,,1,,,61,127
54627,note_off,0,0,0,,4,,,64,127
54628,note_on,1,0,0,,5,,,65,127
54628,note_on,0,0,0,,2,,,62,127
54837,note_off,209,0,0,,2,,,62,127
54837,note_off,0,0,0,,5,,,65,127
54841,note_on,4,0,0,,4,,,64,127
54841,note_on,0,0,0,,1,,,61,127
55050,note_off,209,0,0,,1,,,61,127
55050,note_off,0,0,0,,4,,,64,127
55054,note_on,4,0,0,,2,,,62,127
55054,note_on,0,0,0,,12,,,59,127
55263,note_off,209,0,0,,12,,,59,127
55263,note_off,0,0,0,,2,,,62,127
55267,note_on,4,0,0,,1,,,61,127
55267,note_on,0,0,0,,10,,,57,127
55373,note_off,106,0,0,,10,,,57,127
55373,note_off,0,0,0,,1,,,61,127
55374,note_on,1,0,0,,2,,,62,127
55374,note_on,0,0,0,,12,,,59,127
55480,note_off,106,0,0,,12,,,59,127
55480,note_off,0,0,0,,2,,,62,127
55481,note_on,1,0,0,,4,,,64,127
55481,note_on,0,0,0,,1,,,61,127
55587,note_off,106,0,0,,1,,,61,127
55587,note_off,0,0,0,,4,,,64,127
55588,note_on,1,0,0,,5,,,65,127
55588,note_on,0,0,0,,2,,,62,127
55694,note_off,106,0,0,,2,,,62,127
55694,note_off,0,0,0,,5,,,65,127
55695,note_on,1,0,0,,7,,,67,127
55695,note_on,0,0,0,,4,,,64,127
55801,note_off,106,0,0,,4,,,64,127
55801,note_off,0,0,0,,7,,,67,127
55802,note_on,1,0,0,,10,,,69,127
55802,note_on,0,0,0,,5,,,65,127
55908,note_off,106,0,0,,5,,,65,127
55908,note_off,0,0,0,,10,,,69,127
55909,note_on,1,0,0,,11,,,70,127
55909,note_on,0,0,0,,7,,,67,127
56118,note_off,209,0,0,,7,,,67,127
56118,note_off,0,0,0,,11,,,70,127
56122,note_on,4,0,0,,10,,,69,127
56122,note_on,0,0,0,,5,,,65,127
56331,note_off,209,0,0,,5,,,65,127
56331,note_off,0,0,0,,10,,,69,127
56335,note_on,4,0,0,,7,,,67,127
56335,note_on,0,0,0,,4,,,64,127
56544,note_off,209,0,0,,4,,,64,127
56544,note_off,0,0,0,,7,,,67,127
56548,note_on,4,0,0,,10,,,69,127
56548,note_on,0,0,0,,5,,,65,127
56760,note_off,212,0,0,,5,,,65,127
56760,note_off,0,0,0,,10,,,69,127
56761,note_on,1,0,0,,12,,,71,127
56761,note_on,0,0,0,,7,,,67,127
56867,note_off,106,0,0,,7,,,67,127
56867,note_off,0,0,0,,12,,,71,127
56868,note_on,1,0,0,,1,,,73,127
56868,note_on,0,0,0,,10,,,69,127
56974,note_off,106,0,0,,10,,,69,127
56974,note_off,0,0,0,,1,,,73,127
56975,note_on,1,0,0,,2,,,74,127
56975,note_on,0,0,0,,12,,,71,127
57081,note_off,106,0,0,,12,,,71,127
57081,note_off,0,0,0,,2,,,74,127
57082,note_on,1,0,0,,4,,,76,127
57082,note_on,0,0,0,,1,,,73,127
57188,note_off,106,0,0,,1,,,73,127
57188,note_off,0,0,0,,4,,,76,127
57189,note_on,1,0,0,,5,,,77,127
57189,note_on,0,0,0,,2,,,74,127
57398,note_off,209,0,0,,2,,,74,127
57398,note_off,0,0,0,,5,,,77,127
57402,note_on,4,0,0,,4,,,76,127
57402,note_on,0,0,0,,0,,,72,127
57611,note_off,209,0,0,,0,,,72,127
57611,note_off,0,0,0,,4,,,76,127
57615,note_on,4,0,0,,2,,,74,127
57615,note_on,0,0,0,,11,,,70,127
57824,note_off,209,0,0,,11,,,70,127
57824,note_off,0,0,0,,2,,,74,127
57828,note_on,4,0,0,,11,,,82,127
57828,note_on,0,0,0,,10,,,69,127
57880,note_off,52,0,0,,11,,,82,127
57881,note_on,1,0,0,,10,,,81,127
57933,note_off,52,0,0,,10,,,81,127
57934,note_on,1,0,0,,11,,,82,127
57986,note_off,52,0,0,,11,,,82,127
57987,note_on,1,0,0,,10,,,81,127
58039,note_off,52,0,0,,10,,,81,127
58039,note_off,0,0,0,,10,,,69,127
58040,note_on,1,0,0,,11,,,82,127
58040,note_on,0,0,0,,4,,,64,127
58092,note_off,52,0,0,,11,,,82,127
58093,note_on,1,0,0,,10,,,81,127
58145,note_off,52,0,0,,10,,,81,127
58146,note_on,1,0,0,,11,,,82,127
58198,note_off,52,0,0,,11,,,82,127
58199,note_on,1,0,0,,10,,,81,127
58251,note_off,52,0,0,,10,,,81,127
58251,note_off,0,0,0,,4,,,64,127
58252,note_on,1,0,0,,11,,,82,127
58252,note_on,0,0,0,,1,,,61,127
58304,note_off,52,0,0,,11,,,82,127
58305,note_on,1,0,0,,10,,,81,127
58357,note_off,52,0,0,,10,,,81,127
58358,note_on,1,0,0,,11,,,82,127
58410,note_off,52,0,0,,11,,,82,127
58411,note_on,1,0,0,,10,,,81,127
58463,note_off,52,0,0,,1,,,61,127
58464,note_on,1,0,0,,10,,,57,127
58676,note_off,212,0,0,,10,,,81,127
58677,note_on,1,0,0,,10,,,81,127
58889,note_off,212,0,0,,10,,,81,127
58889,note_off,0,0,0,,10,,,57,127
58890,note_on,1,0,0,,10,,,69,127
58890,note_on,0,0,0,,4,,,64,127
58890,note_on,0,0,0,,1,,,61,127
59102,note_off,212,0,0,,1,,,61,127
59102,note_off,0,0,0,,4,,,64,127
59102,note_off,0,0,0,,10,,,69,127
59103,note_on,1,0,0,,0,,,72,127
59103,note_on,0,0,0,,5,,,65,127
59103,note_on,0,0,0,,2,,,62,127
59155,note_off,52,0,0,,0,,,72,127
59156,note_on,1,0,0,,11,,,70,127
59208,note_off,52,0,0,,11,,,70,127
59209,note_on,1,0,0,,0,,,72,127
59261,note_off,52,0,0,,0,,,72,127
59262,note_on,1,0,0,,11,,,70,127
59314,note_off,52,0,0,,11,,,70,127
59315,note_on,1,0,0,,0,,,72,127
59367,note_off,52,0,0,,0,,,72,127
59368,note_on,1,0,0,,11,,,70,127
59420,note_off,52,0,0,,11,,,70,127
59421,note_on,1,0,0,,0,,,72,127
59473,note_off,52,0,0,,0,,,72,127
59474,note_on,1,0,0,,11,,,70,127
59526,note_off,52,0,0,,11,,,70,127
59527,note_on,1,0,0,,10,,,69,127
59739,note_off,212,0,0,,2,,,62,127
59739,note_off,0,0,0,,5,,,65,127
59740,note_on,1,0,0,,1,,,61,127
59740,note_on,0,0,0,,4,,,64,127
59952,note_off,212,0,0,,10,,,69,127
59953,note_on,1,0,0,,10,,,81,127
60165,note_off,212,0,0,,4,,,64,127
60165,note_off,0,0,0,,1,,,61,127
60166,note_on,1,0,0,,10,,,69,127
60166,note_on,0,0,0,,10,,,57,127
60375,note_off,209,0,0,,10,,,81,127
60378,note_off,3,0,0,,10,,,57,127
60378,note_off,0,0,0,,10,,,69,127
60379,note_on,1,0,0,,0,,,72,127
60379,note_on,0,0,0,,5,,,65,127
60379,note_on,0,0,0,,2,,,62,127
60431,note_off,52,0,0,,0,,,72,127
60432,note_on,1,0,0,,11,,,70,127
60484,note_off,52,0,0,,11,,,70,127
60485,note_on,1,0,0,,0,,,72,127
60537,note_off,52,0,0,,0,,,72,127
60538,note_on,1,0,0,,11,,,70,127
60590,note_off,52,0,0,,11,,,70,127
60591,note_on,1,0,0,,0,,,72,127
60643,note_off,52,0,0,,0,,,72,127
60644,note_on,1,0,0,,11,,,70,127
60696,note_off,52,0,0,,11,,,70,127
60697,note_on,1,0,0,,0,,,72,127
60749,note_off,52,0,0,,0,,,72,127
60750,note_on,1,0,0,,11,,,70,127
60802,note_off,52,0,0,,11,,,70,127
60803,note_on,1,0,0,,10,,,69,127
61015,note_off,212,0,0,,2,,,62,127
61015,note_off,0,0,0,,5,,,65,127
61016,note_on,1,0,0,,1,,,61,127
61016,note_on,0,0,0,,4,,,64,127
61228,note_off,212,0,0,,10,,,69,127
61229,note_on,1,0,0,,10,,,81,127
61441,note_off,212,0,0,,10,,,81,127
61441,note_off,0,0,0,,4,,,64,127
61441,note_off,0,0,0,,1,,,61,127
61442,note_on,1,0,0,,7,,,79,127
61442,note_on,0,0,0,,10,,,57,127
61654,note_off,212,0,0,,10,,,57,127
61654,note_off,0,0,0,,7,,,79,127
61655,note_on,1,0,0,,5,,,77,127
61655,note_on,0,0,0,,5,,,65,127
61655,note_on,0,0,0,,2,,,62,127
61867,note_off,212,0,0,,5,,,77,127
61868,note_on,1,0,0,,4,,,76,127
62080,note_off,212,0,0,,4,,,76,127
62080,note_off,0,0,0,,2,,,62,127
62081,note_on,1,0,0,,2,,,74,127
62081,note_on,0,0,0,,7,,,55,127
62293,note_off,212,0,0,,7,,,55,127
62294,note_on,1,0,0,,10,,,57,127
62506,note_off,212,0,0,,2,,,74,127
62507,note_on,1,0,0,,4,,,76,127
62719,note_off,212,0,0,,4,,,76,127
62720,note_off,1,0,0,,5,,,65,127
62720,note_on,0,0,0,,1,,,73,127
62720,note_on,0,0,0,,4,,,64,127
62932,note_off,212,0,0,,4,,,64,127
62932,note_off,0,0,0,,1,,,73,127
62932,note_off,0,0,0,,10,,,57,127
62933,note_on,1,0,0,,4,,,76,127
62933,note_on,0,0,0,,2,,,62,127
62985,note_off,52,0,0,,4,,,76,127
62986,note_on,1,0,0,,2,,,74,127
63038,note_off,52,0,0,,2,,,74,127
63039,note_on,1,0,0,,4,,,76,127
63091,note_off,52,0,0,,4,,,76,127
63092,note_on,1,0,0,,2,,,74,127
63144,note_off,52,0,0,,2,,,74,127
63144,note_off,0,0,0,,2,,,62,127
63145,note_on,1,0,0,,4,,,76,127
63145,note_on,0,0,0,,10,,,57,127
63197,note_off,52,0,0,,4,,,76,127
63198,note_on,1,0,0,,2,,,74,127
63250,note_off,52,0,0,,2,,,74,127
63251,note_on,1,0,0,,4,,,76,127
63303,note_off,52,0,0,,4,,,76,127
63304,note_on,1,0,0,,2,,,74,127
63356,note_off,52,0,0,,2,,,74,127
63356,note_off,0,0,0,,10,,,57,127
63357,note_on,1,0,0,,4,,,76,127
63357,note_on,0,0,0,,2,,,50,127
63409,note_off,52,0,0,,4,,,76,127
63410,note_on,1,0,0,,2,,,74,127
63462,note_off,52,0,0,,2,,,74,127
63463,note_on,1,0,0,,4,,,76,127
63515,note_off,52,0,0,,4,,,76,127
63516,note_on,1,0,0,,2,,,74,127
63568,note_off,52,0,0,,2,,,50,127
63569,note_on,1,0,0,,10,,,45,127
63781,note_off,212,0,0,,2,,,74,127
63782,note_on,1,0,0,,4,,,76,127
63994,note_off,212,0,0,,4,,,76,127
63995,note_on,1,0,0,,10,,,69,127
64207,note_off,212,0,0,,10,,,69,127
64207,note_off,0,0,0,,10,,,45,127
64208,note_on,1,0,0,,5,,,77,127
64208,note_on,0,0,0,,4,,,76,127
64208,note_on,0,0,0,,2,,,62,127
64260,note_off,52,0,0,,4,,,76,127
64261,note_on,1,0,0,,2,,,74,127
64313,note_off,52,0,0,,2,,,74,127
64314,note_on,1,0,0,,4,,,76,127
64366,note_off,52,0,0,,4,,,76,127
64367,note_on,1,0,0,,2,,,74,127
64419,note_off,52,0,0,,2,,,74,127
64419,note_off,0,0,0,,2,,,62,127
64420,note_on,1,0,0,,4,,,76,127
64420,note_on,0,0,0,,10,,,57,127
64472,note_off,52,0,0,,4,,,76,127
64473,note_on,1,0,0,,2,,,74,127
64525,note_off,52,0,0,,2,,,74,127
64526,note_on,1,0,0,,4,,,76,127
64578,note_off,52,0,0,,4,,,76,127
64579,note_on,1,0,0,,2,,,74,127
64631,note_off,52,0,0,,2,,,74,127
64631,note_off,0,0,0,,10,,,57,127
64632,note_on,1,0,0,,4,,,76,127
64632,note_on,0,0,0,,2,,,50,127
64684,note_off,52,0,0,,4,,,76,127
64685,note_on,1,0,0,,2,,,74,127
64737,note_off,52,0,0,,2,,,74,127
64738,note_on,1,0,0,,4,,,76,127
64790,note_off,52,0,0,,4,,,76,127
64791,note_on,1,0,0,,2,,,74,127
64843,note_off,52,0,0,,2,,,50,127
64844,note_on,1,0,0,,10,,,45,127
65056,note_off,212,0,0,,2,,,74,127
65056,note_off,0,0,0,,5,,,77,127
65057,note_on,1,0,0,,4,,,76,127
65269,note_off,212,0,0,,4,,,76,127
65270,note_on,1,0,0,,10,,,69,127
65482,note_off,212,0,0,,10,,,69,127
65482,note_off,0,0,0,,10,,,45,127
65483,note_on,1,0,0,,5,,,77,127
65483,note_on,0,0,0,,4,,,76,127
65483,note_on,0,0,0,,2,,,62,127
65535,note_off,52,0,0,,4,,,76,127
65536,note_on,1,0,0,,2,,,74,127
65588,note_off,52,0,0,,2,,,74,127
65589,note_on,1,0,0,,4,,,76,127
65641,note_off,52,0,0,,4,,,76,127
65642,note_on,1,0,0,,2,,,74,127
65694,note_off,52,0,0,,2,,,74,127
65694,note_off,0,0,0,,2,,,62,127
65695,note_on,1,0,0,,4,,,76,127
65695,note_on,0,0,0,,10,,,57,127
65747,note_off,52,0,0,,4,,,76,127
65748,note_on,1,0,0,,2,,,74,127
65800,note_off,52,0,0,,2,,,74,127
65801,note_on,1,0,0,,4,,,76,127
65853,note_off,52,0,0,,4,,,76,127
65854,note_on,1,0,0,,2,,,74,127
65906,note_off,52,0,0,,2,,,74,127
65906,note_off,0,0,0,,10,,,57,127
65907,note_on,1,0,0,,4,,,76,127
65907,note_on,0,0,0,,2,,,50,127
65959,note_off,52,0,0,,4,,,76,127
65960,note_on,1,0,0,,2,,,74,127
66012,note_off,52,0,0,,2,,,74,127
66013,note_on,1,0,0,,4,,,76,127
66065,note_off,52,0,0,,4,,,76,127
66066,note_on,1,0,0,,2,,,74,127
66118,note_off,52,0,0,,2,,,50,127
66119,note_on,1,0,0,,10,,,45,127
66331,note_off,212,0,0,,2,,,74,127
66331,note_off,0,0,0,,5,,,77,127
66332,note_on,1,0,0,,4,,,76,127
66544,note_off,212,0,0,,4,,,76,127
66544,note_off,0,0,0,,10,,,45,127
66545,note_on,1,0,0,,10,,,69,127
66545,note_on,0,0,0,,1,,,61,127
66757,note_off,212,0,0,,1,,,61,127
66757,note_off,0,0,0,,10,,,69,127
66758,note_on,1,0,0,,2,,,74,127
66758,note_on,0,0,0,,5,,,77,127
66758,note_on,0,0,0,,10,,,57,127
66758,note_on,0,0,0,,2,,,62,127
66758,note_on,0,0,0,,2,,,50,127
66970,note_off,212,0,0,,5,,,77,127
66970,note_off,0,0,0,,2,,,74,127
66971,note_on,1,0,0,,4,,,76,127
66971,note_on,0,0,0,,7,,,79,127
67183,note_off,212,0,0,,7,,,79,127
67183,note_off,0,0,0,,4,,,76,127
67184,note_on,1,0,0,,5,,,77,127
67184,note_on,0,0,0,,10,,,81,127
67396,note_off,212,0,0,,2,,,50,127
67396,note_off,0,0,0,,2,,,62,127
67396,note_off,0,0,0,,10,,,57,127
67397,note_on,1,0,0,,2,,,62,127
67397,note_on,0,0,0,,7,,,55,127
67397,note_on,0,0,0,,11,,,58,127
67609,note_off,212,0,0,,10,,,81,127
67609,note_off,0,0,0,,5,,,77,127
67610,note_on,1,0,0,,7,,,79,127
67610,note_on,0,0,0,,4,,,76,127
67822,note_off,212,0,0,,4,,,76,127
67822,note_off,0,0,0,,7,,,79,127
67823,note_on,1,0,0,,2,,,74,127
67823,note_on,0,0,0,,5,,,77,127
68035,note_off,212,0,0,,5,,,77,127
68035,note_off,0,0,0,,2,,,74,127
68035,note_off,0,0,0,,11,,,58,127
68035,note_off,0,0,0,,7,,,55,127
68035,note_off,0,0,0,,2,,,62,127
68036,note_on,1,0,0,,4,,,76,127
68036,note_on,0,0,0,,10,,,57,127
68036,note_on,0,0,0,,10,,,45,127
68142,note_off,106,0,0,,4,,,76,127
68143,note_on,1,0,0,,2,,,74,127
68249,note_off,106,0,0,,2,,,74,127
68250,note_on,1,0,0,,1,,,73,127
68356,note_off,106,0,0,,1,,,73,127
68357,note_on,1,0,0,,12,,,71,127
68463,note_off,106,0,0,,12,,,71,127
68464,note_on,1,0,0,,10,,,69,127
68570,note_off,106,0,0,,10,,,69,127
68571,note_on,1,0,0,,7,,,67,127
68677,note_off,106,0,0,,7,,,67,127
68678,note_on,1,0,0,,5,,,65,127
68784,note_off,106,0,0,,5,,,65,127
68785,note_on,1,0,0,,4,,,64,127
68891,note_off,106,0,0,,4,,,64,127
68892,note_on,1,0,0,,2,,,62,127
68998,note_off,106,0,0,,2,,,62,127
68999,note_on,1,0,0,,1,,,61,127
69105,note_off,106,0,0,,1,,,61,127
69106,note_on,1,0,0,,12,,,59,127
69128,note_off,22,0,0,,10,,,57,127
69211,note_off,83,0,0,,12,,,59,127
69212,note_on,1,0,0,,10,,,57,127
69318,note_off,106,0,0,,10,,,57,127
69318,note_off,0,0,0,,10,,,45,127
69319,note_on,1,0,0,,5,,,65,127
69319,note_on,0,0,0,,4,,,64,127
69319,note_on,0,0,0,,2,,,50,127
69371,note_off,52,0,0,,4,,,64,127
69372,note_on,1,0,0,,2,,,62,127
69424,note_off,52,0,0,,2,,,62,127
69425,note_on,1,0,0,,4,,,64,127
69477,note_off,52,0,0,,4,,,64,127
69478,note_on,1,0,0,,2,,,62,127
69530,note_off,52,0,0,,2,,,62,127
69530,note_off,0,0,0,,2,,,50,127
69531,note_on,1,0,0,,4,,,64,127
69531,note_on,0,0,0,,10,,,45,127
69583,note_off,52,0,0,,4,,,64,127
69584,note_on,1,0,0,,2,,,62,127
69636,note_off,52,0,0,,2,,,62,127
69637,note_on,1,0,0,,4,,,64,127
69689,note_off,52,0,0,,4,,,64,127
69690,note_on,1,0,0,,2,,,62,127
69742,note_off,52,0,0,,2,,,62,127
69742,note_off,0,0,0,,10,,,45,127
69743,note_on,1,0,0,,4,,,64,127
69743,note_on,0,0,0,,2,,,38,127
69795,note_off,52,0,0,,4,,,64,127
69796,note_on,1,0,0,,2,,,62,127
69848,note_off,52,0,0,,2,,,62,127
69849,note_on,1,0,0,,4,,,64,127
69901,note_off,52,0,0,,4,,,64,127
69902,note_on,1,0,0,,2,,,62,127
69954,note_off,52,0,0,,2,,,38,127
69955,note_on,1,0,0,,10,,,33,127
70167,note_off,212,0,0,,2,,,62,127
70167,note_off,0,0,0,,5,,,65,127
70168,note_on,1,0,0,,4,,,64,127
70380,note_off,212,0,0,,4,,,64,127
70381,note_on,1,0,0,,10,,,57,127
70593,note_off,212,0,0,,10,,,57,127
70593,note_off,0,0,0,,10,,,33,127
70594,note_on,1,0,0,,5,,,65,127
70594,note_on,0,0,0,,4,,,64,127
70594,note_on,0,0,0,,2,,,50,127
70646,note_off,52,0,0,,4,,,64,127
70647,note_on,1,0,0,,2,,,62,127
70699,note_off,52,0,0,,2,,,62,127
70700,note_on,1,0,0,,4,,,64,127
70752,note_off,52,0,0,,4,,,64,127
70753,note_on,1,0,0,,2,,,62,127
70805,note_off,52,0,0,,2,,,62,127
70805,note_off,0,0,0,,2,,,50,127
70806,note_on,1,0,0,,4,,,64,127
70806,note_on,0,0,0,,10,,,45,127
70858,note_off,52,0,0,,4,,,64,127
70859,note_on,1,0,0,,2,,,62,127
70911,note_off,52,0,0,,2,,,62,127
70912,note_on,1,0,0,,4,,,64,127
70964,note_off,52,0,0,,4,,,64,127
70965,note_on,1,0,0,,2,,,62,127
71017,note_off,52,0,0,,2,,,62,127
71017,note_off,0,0,0,,10,,,45,127
71018,note_on,1,0,0,,4,,,64,127
71018,note_on,0,0,0,,2,,,38,127
71070,note_off,52,0,0,,4,,,64,127
71071,note_on,1,0,0,,2,,,62,127
71123,note_off,52,0,0,,2,,,62,127
71124,note_on,1,0,0,,4,,,64,127
71176,note_off,52,0,0,,4,,,64,127
71177,note_on,1,0,0,,2,,,62,127
71229,note_off,52,0,0,,2,,,38,127
71230,note_on,1,0,0,,10,,,33,127
71442,note_off,212,0,0,,2,,,62,127
71442,note_off,0,0,0,,5,,,65,127
71443,note_on,1,0,0,,4,,,64,127
71655,note_off,212,0,0,,4,,,64,127
71656,note_on,1,0,0,,10,,,57,127
71868,note_off,212,0,0,,10,,,57,127
71868,note_off,0,0,0,,10,,,33,127
71869,note_on,1,0,0,,2,,,62,127
71869,note_on,0,0,0,,5,,,65,127
71869,note_on,0,0,0,,2,,,50,127
72081,note_off,212,0,0,,5,,,65,127
72082,note_on,1,0,0,,4,,,64,127
72294,note_off,212,0,0,,4,,,64,127
72294,note_off,0,0,0,,2,,,50,127
72294,note_off,0,0,0,,2,,,62,127
72295,note_on,1,0,0,,2,,,62,127
72295,note_on,0,0,0,,7,,,55,127
72507,note_off,212,0,0,,7,,,55,127
72508,note_on,1,0,0,,10,,,57,127
72720,note_off,212,0,0,,2,,,62,127
72721,note_on,1,0,0,,4,,,64,127
72933,note_off,212,0,0,,4,,,64,127
72933,note_off,0,0,0,,10,,,57,127
72934,note_on,1,0,0,,1,,,61,127
72934,note_on,0,0,0,,10,,,45,127
73146,note_off,212,0,0,,10,,,45,127
73146,note_off,0,0,0,,1,,,61,127
73147,note_on,1,0,0,,2,,,62,127
73147,note_on,0,0,0,,2,,,50,127
73359,note_off,212,0,0,,2,,,62,127
73360,note_on,1,0,0,,4,,,64,127
73430,note_off,70,0,0,,4,,,64,127
73431,note_on,1,0,0,,5,,,65,127
73501,note_off,70,0,0,,5,,,65,127
73502,note_on,1,0,0,,7,,,67,127
73572,note_off,70,0,0,,7,,,67,127
73573,note_on,1,0,0,,10,,,69,127
73643,note_off,70,0,0,,10,,,69,127
73644,note_on,1,0,0,,12,,,71,127
73714,note_off,70,0,0,,12,,,71,127
73715,note_on,1,0,0,,1,,,73,127
73785,note_off,70,0,0,,1,,,73,127
73785,note_off,0,0,0,,2,,,50,127
73786,note_on,1,0,0,,2,,,74,127
73786,note_on,0,0,0,,2,,,38,127
73786,note_on,0,0,0,,2,,,50,127
73998,note_off,212,0,0,,2,,,74,127
73999,note_on,1,0,0,,10,,,81,127
74212,note_on,213,0,0,,10,,,69,127
74421,note_off,209,0,0,,10,,,81,127
74424,note_off,3,0,0,,10,,,69,127
74424,note_off,0,0,0,,2,,,50,127
74424,note_off,0,0,0,,2,,,38,127
74425,note_on,1,0,0,,2,,,74,127
74425,note_on,0,0,0,,2,,,38,127
74425,note_on,0,0,0,,2,,,50,127
74637,note_off,212,0,0,,2,,,74,127
74638,note_on,1,0,0,,10,,,81,127
74851,note_on,213,0,0,,10,,,69,127
75060,note_off,209,0,0,,10,,,81,127
75063,note_off,3,0,0,,10,,,69,127
75063,note_off,0,0,0,,2,,,50,127
75063,note_off,0,0,0,,2,,,38,127
75064,note_on,1,0,0,,2,,,74,127
75064,note_on,0,0,0,,2,,,50,127
75064,note_on,0,0,0,,2,,,38,127
75276,note_off,212,0,0,,2,,,74,127
75277,note_on,1,0,0,,10,,,81,127
75490,note_on,213,0,0,,10,,,69,127
75699,note_off,209,0,0,,10,,,81,127
75702,note_off,3,0,0,,10,,,69,127
75702,note_off,0,0,0,,2,,,38,127
75702,note_off,0,0,0,,2,,,50,127
75703,note_on,1,0,0,,4,,,76,127
75703,note_on,0,0,0,,2,,,50,127
75703,note_on,0,0,0,,2,,,38,127
75756,note_on,53,0,0,,2,,,74,127
75769,note_off,13,0,0,,4,,,76,127
75809,note_on,40,0,0,,4,,,76,127
75822,note_off,13,0,0,,2,,,74,127
75862,note_on,40,0,0,,2,,,74,127
75875,note_off,13,0,0,,4,,,76,127
77515,note_off,1640,0,0,,2,,,74,127
77515,note_off,0,0,0,,2,,,38,127
77515,note_off,0,0,0,,2,,,50,127
78336,end_of_track,821,1,0,,,,,,
