tick,type,time,meta,track,program,channel,pitch,tempo,note,velocity
0,copyright,0,1,0,,,,,,
0,program_change,0,0,0,6,0,,,,
0,pitchwheel,0,0,0,,0,0,,,
0,program_change,0,0,0,6,1,,,,
0,pitchwheel,0,0,0,,1,-590,,,
0,program_change,0,0,0,6,2,,,,
0,pitchwheel,0,0,0,,2,-272,,,
0,program_change,0,0,0,6,3,,,,
0,pitchwheel,0,0,0,,3,-353,,,
0,program_change,0,0,0,6,4,,,,
0,pitchwheel,0,0,0,,4,-560,,,
0,program_change,0,0,0,6,5,,,,
0,pitchwheel,0,0,0,,5,-80,,,
0,program_change,0,0,0,6,6,,,,
0,pitchwheel,0,0,0,,6,-625,,,
0,program_change,0,0,0,6,7,,,,
0,pitchwheel,0,0,0,,7,-130,,,
0,program_change,0,0,0,6,8,,,,
0,pitchwheel,0,0,0,,8,-512,,,
0,program_change,0,0,0,6,10,,,,
0,pitchwheel,0,0,0,,10,-464,,,
0,program_change,0,0,0,6,11,,,,
0,pitchwheel,0,0,0,,11,-208,,,
0,program_change,0,0,0,6,12,,,,
0,pitchwheel,0,0,0,,12,-553,,,
0,set_tempo,0,1,0,,,,500000,,
64,note_on,64,0,0,,10,,,69,127
64,note_on,0,0,0,,2,,,50,127
192,note_on,128,0,0,,2,,,74,127
317,note_off,125,0,0,,10,,,69,127
318,note_off,1,0,0,,2,,,74,127
319,note_on,1,0,0,,5,,,77,127
447,note_on,128,0,0,,10,,,69,127
572,note_off,125,0,0,,5,,,77,127
573,note_off,1,0,0,,10,,,69,127
573,note_off,0,0,0,,2,,,50,127
574,note_on,1,0,0,,7,,,67,127
574,note_on,0,0,0,,4,,,52,127
702,note_on,128,0,0,,4,,,76,127
827,note_off,125,0,0,,7,,,67,127
828,note_off,1,0,0,,4,,,76,127
828,note_off,0,0,0,,4,,,52,127
829,note_on,1,0,0,,5,,,65,127
829,note_on,0,0,0,,5,,,53,127
957,note_on,128,0,0,,10,,,69,127
1082,note_off,125,0,0,,5,,,65,127
1083,note_off,1,0,0,,10,,,69,127
1083,note_off,0,0,0,,5,,,53,127
1084,note_on,1,0,0,,2,,,74,127
1084,note_on,0,0,0,,7,,,55,127
1212,note_on,128,0,0,,5,,,65,127
1337,note_off,125,0,0,,2,,,74,127
1338,note_off,1,0,0,,5,,,65,127
1338,note_off,0,0,0,,7,,,55,127
1339,note_on,1,0,0,,4,,,64,127
1339,note_on,0,0,0,,10,,,57,127
1467,note_on,128,0,0,,1,,,73,127
1592,note_off,125,0,0,,4,,,64,127
1593,note_off,1,0,0,,1,,,73,127
1593,note_off,0,0,0,,10,,,57,127
1594,note_on,1,0,0,,10,,,69,127
1594,note_on,0,0,0,,2,,,50,127
1722,note_on,128,0,0,,5,,,77,127
1849,note_off,127,0,0,,5,,,77,127
1850,note_on,1,0,0,,10,,,81,127
1977,note_off,127,0,0,,10,,,81,127
1978,note_off,1,0,0,,10,,,69,127
1978,note_on,0,0,0,,5,,,77,127
2105,note_off,127,0,0,,2,,,50,127
2106,note_on,1,0,0,,11,,,70,127
2106,note_on,0,0,0,,4,,,52,127
2231,note_off,125,0,0,,5,,,77,127
2234,note_on,3,0,0,,7,,,79,127
2359,note_off,125,0,0,,11,,,70,127
2360,note_off,1,0,0,,7,,,79,127
2360,note_off,0,0,0,,4,,,52,127
2361,note_on,1,0,0,,10,,,69,127
2361,note_on,0,0,0,,5,,,53,127
2489,note_on,128,0,0,,2,,,74,127
2614,note_off,125,0,0,,10,,,69,127
2615,note_off,1,0,0,,2,,,74,127
2615,note_off,0,0,0,,5,,,53,127
2616,note_on,1,0,0,,5,,,77,127
2616,note_on,0,0,0,,7,,,55,127
2744,note_on,128,0,0,,10,,,69,127
2869,note_off,125,0,0,,5,,,77,127
2870,note_off,1,0,0,,10,,,69,127
2870,note_off,0,0,0,,7,,,55,127
2871,note_on,1,0,0,,7,,,67,127
2871,note_on,0,0,0,,10,,,57,127
2999,note_on,128,0,0,,4,,,76,127
2999,note_on,0,0,0,,1,,,73,127
3063,note_off,64,0,0,,7,,,67,127
3126,note_off,63,0,0,,1,,,73,127
3126,note_off,0,0,0,,4,,,76,127
3126,note_off,0,0,0,,10,,,57,127
3127,note_on,1,0,0,,2,,,74,127
3127,note_on,0,0,0,,5,,,77,127
3127,note_on,0,0,0,,2,,,50,127
3254,note_off,127,0,0,,2,,,50,127
3255,note_on,1,0,0,,5,,,53,127
3382,note_off,127,0,0,,5,,,53,127
3382,note_off,0,0,0,,2,,,74,127
3383,note_on,1,0,0,,10,,,69,127
3383,note_on,0,0,0,,10,,,57,127
3510,note_off,127,0,0,,10,,,57,127
3511,note_off,1,0,0,,5,,,77,127
3511,note_on,0,0,0,,2,,,62,127
3638,note_off,127,0,0,,2,,,62,127
3638,note_off,0,0,0,,10,,,69,127
3639,note_on,1,0,0,,4,,,76,127
3639,note_on,0,0,0,,0,,,48,127
3766,note_off,127,0,0,,0,,,48,127
3767,note_on,1,0,0,,10,,,57,127
3894,note_off,127,0,0,,10,,,57,127
3894,note_off,0,0,0,,4,,,76,127
3895,note_on,1,0,0,,2,,,74,127
3895,note_on,0,0,0,,11,,,46,127
4022,note_off,127,0,0,,11,,,46,127
4023,note_on,1,0,0,,2,,,50,127
4150,note_off,127,0,0,,2,,,50,127
4151,note_on,1,0,0,,2,,,62,127
4151,note_on,0,0,0,,7,,,55,127
4278,note_off,127,0,0,,7,,,55,127
4279,note_on,1,0,0,,11,,,58,127
4402,note_off,123,0,0,,2,,,74,127
4406,note_off,4,0,0,,11,,,58,127
4406,note_off,0,0,0,,2,,,62,127
4407,note_on,1,0,0,,0,,,72,127
4407,note_on,0,0,0,,10,,,45,127
4534,note_off,127,0,0,,10,,,45,127
4535,note_on,1,0,0,,5,,,53,127
4662,note_off,127,0,0,,5,,,53,127
4662,note_off,0,0,0,,0,,,72,127
4663,note_on,1,0,0,,11,,,70,127
4663,note_on,0,0,0,,7,,,43,127
4790,note_off,127,0,0,,7,,,43,127
4791,note_on,1,0,0,,7,,,55,127
4918,note_off,127,0,0,,7,,,55,127
4918,note_off,0,0,0,,11,,,70,127
4919,note_on,1,0,0,,10,,,69,127
4919,note_on,0,0,0,,5,,,53,127
5046,note_off,127,0,0,,5,,,53,127
5047,note_on,1,0,0,,5,,,65,127
5174,note_off,127,0,0,,5,,,65,127
5174,note_off,0,0,0,,10,,,69,127
5175,note_on,1,0,0,,7,,,67,127
5175,note_on,0,0,0,,4,,,52,127
5302,note_off,127,0,0,,4,,,52,127
5303,note_on,1,0,0,,1,,,61,127
5430,note_off,127,0,0,,1,,,61,127
5430,note_off,0,0,0,,7,,,67,127
5431,note_on,1,0,0,,5,,,65,127
5431,note_on,0,0,0,,2,,,50,127
5558,note_off,127,0,0,,2,,,50,127
5559,note_on,1,0,0,,10,,,57,127
5686,note_off,127,0,0,,10,,,57,127
5686,note_off,0,0,0,,5,,,65,127
5687,note_on,1,0,0,,4,,,64,127
5687,note_on,0,0,0,,0,,,48,127
5814,note_off,127,0,0,,0,,,48,127
5815,note_on,1,0,0,,10,,,57,127
5942,note_off,127,0,0,,10,,,57,127
5942,note_off,0,0,0,,4,,,64,127
5943,note_on,1,0,0,,2,,,62,127
5943,note_on,0,0,0,,11,,,46,127
6070,note_off,127,0,0,,11,,,46,127
6071,note_on,1,0,0,,7,,,55,127
6198,note_off,127,0,0,,7,,,55,127
6198,note_off,0,0,0,,2,,,62,127
6199,note_on,1,0,0,,10,,,69,127
6199,note_on,0,0,0,,10,,,45,127
6327,note_on,128,0,0,,1,,,73,127
6452,note_off,125,0,0,,10,,,69,127
6453,note_off,1,0,0,,1,,,73,127
6453,note_off,0,0,0,,10,,,45,127
6454,note_on,1,0,0,,4,,,76,127
6454,note_on,0,0,0,,10,,,45,127
6582,note_on,128,0,0,,10,,,69,127
6707,note_off,125,0,0,,4,,,76,127
6708,note_off,1,0,0,,10,,,69,127
6708,note_off,0,0,0,,10,,,45,127
6709,note_on,1,0,0,,7,,,67,127
6709,note_on,0,0,0,,10,,,57,127
6837,note_on,128,0,0,,4,,,76,127
6962,note_off,125,0,0,,7,,,67,127
6963,note_off,1,0,0,,4,,,76,127
6963,note_off,0,0,0,,10,,,57,127
6964,note_on,1,0,0,,5,,,65,127
6964,note_on,0,0,0,,11,,,58,127
7092,note_on,128,0,0,,10,,,69,127
7217,note_off,125,0,0,,5,,,65,127
7218,note_off,1,0,0,,10,,,69,127
7218,note_off,0,0,0,,11,,,58,127
7219,note_on,1,0,0,,2,,,74,127
7219,note_on,0,0,0,,7,,,55,127
7347,note_on,128,0,0,,5,,,65,127
7472,note_off,125,0,0,,2,,,74,127
7473,note_off,1,0,0,,5,,,65,127
7473,note_off,0,0,0,,7,,,55,127
7474,note_on,1,0,0,,4,,,64,127
7474,note_on,0,0,0,,10,,,57,127
7602,note_on,128,0,0,,1,,,73,127
7727,note_off,125,0,0,,4,,,64,127
7728,note_off,1,0,0,,1,,,73,127
7728,note_off,0,0,0,,10,,,57,127
7729,note_on,1,0,0,,2,,,74,127
7729,note_on,0,0,0,,2,,,50,127
7857,note_on,128,0,0,,10,,,69,127
7982,note_off,125,0,0,,2,,,74,127
7983,note_off,1,0,0,,10,,,69,127
7983,note_off,0,0,0,,2,,,50,127
7984,note_on,1,0,0,,6,,,66,127
7984,note_on,0,0,0,,2,,,50,127
8111,note_off,127,0,0,,6,,,66,127
8112,note_on,1,0,0,,2,,,62,127
8239,note_off,127,0,0,,2,,,62,127
8239,note_off,0,0,0,,2,,,50,127
8240,note_on,1,0,0,,3,,,63,127
8240,note_on,0,0,0,,2,,,50,127
8368,note_on,128,0,0,,0,,,72,127
8432,note_off,64,0,0,,3,,,63,127
8495,note_off,63,0,0,,0,,,72,127
8495,note_off,0,0,0,,2,,,50,127
8496,note_on,1,0,0,,2,,,62,127
8496,note_on,0,0,0,,2,,,38,127
8624,note_on,128,0,0,,6,,,66,127
8749,note_off,125,0,0,,2,,,62,127
8750,note_off,1,0,0,,6,,,66,127
8750,note_off,0,0,0,,2,,,38,127
8751,note_on,1,0,0,,10,,,69,127
8751,note_on,0,0,0,,2,,,38,127
8879,note_on,128,0,0,,2,,,62,127
9004,note_off,125,0,0,,10,,,69,127
9005,note_off,1,0,0,,2,,,62,127
9005,note_off,0,0,0,,2,,,38,127
9006,note_on,1,0,0,,0,,,60,127
9006,note_on,0,0,0,,2,,,38,127
9134,note_on,128,0,0,,10,,,69,127
9198,note_off,64,0,0,,0,,,60,127
9261,note_off,63,0,0,,10,,,69,127
9261,note_off,0,0,0,,2,,,38,127
9262,note_on,1,0,0,,11,,,58,127
9262,note_on,0,0,0,,7,,,43,127
9389,note_off,127,0,0,,7,,,43,127
9390,note_on,1,0,0,,11,,,46,127
9517,note_off,127,0,0,,11,,,46,127
9517,note_off,0,0,0,,11,,,58,127
9518,note_on,1,0,0,,2,,,62,127
9518,note_on,0,0,0,,2,,,50,127
9645,note_off,127,0,0,,2,,,50,127
9646,note_on,1,0,0,,7,,,55,127
9773,note_off,127,0,0,,7,,,55,127
9773,note_off,0,0,0,,2,,,62,127
9774,note_on,1,0,0,,7,,,67,127
9774,note_on,0,0,0,,11,,,58,127
9901,note_off,127,0,0,,11,,,58,127
9902,note_on,1,0,0,,2,,,62,127
10029,note_off,127,0,0,,2,,,62,127
10029,note_off,0,0,0,,7,,,67,127
10030,note_on,1,0,0,,4,,,64,127
10030,note_on,0,0,0,,0,,,36,127
10157,note_off,127,0,0,,0,,,36,127
10158,note_on,1,0,0,,4,,,40,127
10285,note_off,127,0,0,,4,,,40,127
10286,note_on,1,0,0,,0,,,60,127
10286,note_on,0,0,0,,7,,,43,127
10413,note_off,127,0,0,,7,,,43,127
10414,note_off,1,0,0,,4,,,64,127
10414,note_on,0,0,0,,0,,,48,127
10541,note_off,127,0,0,,0,,,48,127
10541,note_off,0,0,0,,0,,,60,127
10542,note_on,1,0,0,,11,,,70,127
10542,note_on,0,0,0,,4,,,52,127
10669,note_off,127,0,0,,4,,,52,127
10670,note_on,1,0,0,,7,,,55,127
10797,note_off,127,0,0,,7,,,55,127
10797,note_off,0,0,0,,11,,,70,127
10798,note_on,1,0,0,,10,,,69,127
10798,note_on,0,0,0,,5,,,41,127
10925,note_off,127,0,0,,5,,,41,127
10926,note_on,1,0,0,,10,,,45,127
11053,note_off,127,0,0,,10,,,45,127
11054,note_on,1,0,0,,5,,,65,127
11054,note_on,0,0,0,,0,,,48,127
11181,note_off,127,0,0,,0,,,48,127
11182,note_off,1,0,0,,10,,,69,127
11182,note_on,0,0,0,,5,,,53,127
11309,note_off,127,0,0,,5,,,53,127
11309,note_off,0,0,0,,5,,,65,127
11310,note_on,1,0,0,,3,,,75,127
11310,note_on,0,0,0,,10,,,57,127
11437,note_off,127,0,0,,10,,,57,127
11438,note_on,1,0,0,,0,,,60,127
11565,note_off,127,0,0,,0,,,60,127
11565,note_off,0,0,0,,3,,,75,127
11566,note_on,1,0,0,,2,,,74,127
11566,note_on,0,0,0,,11,,,46,127
11693,note_off,127,0,0,,11,,,46,127
11694,note_on,1,0,0,,2,,,50,127
11821,note_off,127,0,0,,2,,,50,127
11822,note_on,1,0,0,,5,,,65,127
11822,note_on,0,0,0,,5,,,53,127
11949,note_off,127,0,0,,5,,,53,127
11950,note_off,1,0,0,,2,,,74,127
11950,note_on,0,0,0,,11,,,58,127
12077,note_off,127,0,0,,11,,,58,127
12077,note_off,0,0,0,,5,,,65,127
12078,note_on,1,0,0,,5,,,77,127
12078,note_on,0,0,0,,2,,,62,127
12205,note_off,127,0,0,,2,,,62,127
12206,note_on,1,0,0,,11,,,58,127
12333,note_off,127,0,0,,11,,,58,127
12333,note_off,0,0,0,,5,,,77,127
12334,note_on,1,0,0,,11,,,70,127
12334,note_on,0,0,0,,7,,,43,127
12461,note_off,127,0,0,,7,,,43,127
12462,note_on,1,0,0,,11,,,46,127
12589,note_off,127,0,0,,11,,,46,127
12590,note_on,1,0,0,,7,,,67,127
12590,note_on,0,0,0,,2,,,50,127
12717,note_off,127,0,0,,2,,,50,127
12718,note_off,1,0,0,,11,,,70,127
12718,note_on,0,0,0,,7,,,55,127
12845,note_off,127,0,0,,7,,,55,127
12845,note_off,0,0,0,,7,,,67,127
12846,note_on,1,0,0,,7,,,79,127
12846,note_on,0,0,0,,11,,,58,127
12973,note_off,127,0,0,,11,,,58,127
12974,note_on,1,0,0,,2,,,62,127
13101,note_off,127,0,0,,2,,,62,127
13101,note_off,0,0,0,,7,,,79,127
13102,note_on,1,0,0,,1,,,73,127
13102,note_on,0,0,0,,10,,,45,127
13230,note_on,128,0,0,,10,,,69,127
13262,note_off,32,0,0,,1,,,73,127
13357,note_off,95,0,0,,10,,,69,127
13357,note_off,0,0,0,,10,,,45,127
13358,note_on,1,0,0,,1,,,73,127
13358,note_on,0,0,0,,10,,,45,127
13485,note_off,127,0,0,,1,,,73,127
13486,note_on,1,0,0,,4,,,76,127
13613,note_off,127,0,0,,4,,,76,127
13613,note_off,0,0,0,,10,,,45,127
13614,note_on,1,0,0,,10,,,81,127
13614,note_on,0,0,0,,10,,,45,127
13742,note_on,128,0,0,,10,,,69,127
13867,note_off,125,0,0,,10,,,81,127
13868,note_off,1,0,0,,10,,,69,127
13868,note_off,0,0,0,,10,,,45,127
13869,note_on,1,0,0,,11,,,70,127
13869,note_on,0,0,0,,10,,,45,127
13997,note_on,128,0,0,,7,,,79,127
14061,note_off,64,0,0,,11,,,70,127
14124,note_off,63,0,0,,10,,,45,127
14125,note_on,1,0,0,,10,,,69,127
14125,note_on,0,0,0,,10,,,45,127
14189,note_off,64,0,0,,7,,,79,127
14253,note_on,64,0,0,,5,,,77,127
14317,note_off,64,0,0,,10,,,69,127
14380,note_off,63,0,0,,10,,,45,127
14381,note_on,1,0,0,,7,,,67,127
14381,note_on,0,0,0,,10,,,45,127
14445,note_off,64,0,0,,5,,,77,127
14509,note_on,64,0,0,,4,,,76,127
14509,note_on,0,0,0,,1,,,73,127
14541,note_off,32,0,0,,7,,,67,127
14636,note_off,95,0,0,,1,,,73,127
14636,note_off,0,0,0,,4,,,76,127
14636,note_off,0,0,0,,10,,,45,127
14637,note_on,1,0,0,,4,,,76,127
14637,note_on,0,0,0,,1,,,73,127
14637,note_on,0,0,0,,2,,,38,127
14892,note_off,255,0,0,,1,,,73,127
14892,note_off,0,0,0,,4,,,76,127
14893,note_on,1,0,0,,2,,,74,127
14893,note_on,0,0,0,,5,,,77,127
15277,note_off,384,0,0,,5,,,77,127
15404,note_off,127,0,0,,2,,,74,127
15404,note_off,0,0,0,,2,,,38,127
15405,note_on,1,0,0,,5,,,77,127
15405,note_on,0,0,0,,2,,,74,127
15532,note_off,127,0,0,,2,,,74,127
15533,note_on,1,0,0,,2,,,62,127
15660,note_off,127,0,0,,2,,,62,127
15660,note_off,0,0,0,,5,,,77,127
15661,note_on,1,0,0,,4,,,76,127
15661,note_on,0,0,0,,10,,,69,127
15788,note_off,127,0,0,,10,,,69,127
15789,note_on,1,0,0,,10,,,57,127
15916,note_off,127,0,0,,10,,,57,127
15916,note_off,0,0,0,,4,,,76,127
15917,note_on,1,0,0,,2,,,74,127
15917,note_on,0,0,0,,2,,,62,127
16044,note_off,127,0,0,,2,,,62,127
16045,note_on,1,0,0,,2,,,50,127
16172,note_off,127,0,0,,2,,,50,127
16172,note_off,0,0,0,,2,,,74,127
16173,note_on,1,0,0,,4,,,76,127
16173,note_on,0,0,0,,10,,,45,127
16237,note_on,64,0,0,,10,,,81,127
16257,note_off,20,0,0,,4,,,76,127
16301,note_on,44,0,0,,7,,,79,127
16321,note_off,20,0,0,,10,,,81,127
16365,note_on,44,0,0,,5,,,77,127
16385,note_off,20,0,0,,7,,,79,127
16429,note_on,44,0,0,,4,,,76,127
16449,note_off,20,0,0,,5,,,77,127
16493,note_on,44,0,0,,2,,,74,127
16513,note_off,20,0,0,,4,,,76,127
16557,note_on,44,0,0,,1,,,73,127
16577,note_off,20,0,0,,2,,,74,127
16621,note_on,44,0,0,,12,,,71,127
16641,note_off,20,0,0,,1,,,73,127
16685,note_on,44,0,0,,10,,,69,127
16705,note_off,20,0,0,,12,,,71,127
16749,note_on,44,0,0,,7,,,79,127
16769,note_off,20,0,0,,10,,,69,127
16813,note_on,44,0,0,,5,,,77,127
16833,note_off,20,0,0,,7,,,79,127
16877,note_on,44,0,0,,4,,,76,127
16897,note_off,20,0,0,,5,,,77,127
16940,note_off,43,0,0,,4,,,76,127
16940,note_off,0,0,0,,10,,,45,127
16941,note_on,1,0,0,,5,,,77,127
16941,note_on,0,0,0,,2,,,74,127
17068,note_off,127,0,0,,2,,,74,127
17069,note_on,1,0,0,,2,,,62,127
17196,note_off,127,0,0,,2,,,62,127
17196,note_off,0,0,0,,5,,,77,127
17197,note_on,1,0,0,,4,,,76,127
17197,note_on,0,0,0,,10,,,69,127
17324,note_off,127,0,0,,10,,,69,127
17325,note_on,1,0,0,,10,,,57,127
17452,note_off,127,0,0,,10,,,57,127
17452,note_off,0,0,0,,4,,,76,127
17453,note_on,1,0,0,,2,,,74,127
17453,note_on,0,0,0,,2,,,62,127
17580,note_off,127,0,0,,2,,,62,127
17581,note_on,1,0,0,,2,,,50,127
17708,note_off,127,0,0,,2,,,50,127
17708,note_off,0,0,0,,2,,,74,127
17709,note_on,1,0,0,,4,,,76,127
17709,note_on,0,0,0,,10,,,45,127
17773,note_on,64,0,0,,10,,,81,127
17793,note_off,20,0,0,,4,,,76,127
17837,note_on,44,0,0,,7,,,79,127
17857,note_off,20,0,0,,10,,,81,127
17901,note_on,44,0,0,,5,,,77,127
17921,note_off,20,0,0,,7,,,79,127
17965,note_on,44,0,0,,4,,,76,127
17985,note_off,20,0,0,,5,,,77,127
18029,note_on,44,0,0,,2,,,74,127
18049,note_off,20,0,0,,4,,,76,127
18093,note_on,44,0,0,,1,,,73,127
18113,note_off,20,0,0,,2,,,74,127
18157,note_on,44,0,0,,12,,,71,127
18177,note_off,20,0,0,,1,,,73,127
18221,note_on,44,0,0,,10,,,69,127
18241,note_off,20,0,0,,12,,,71,127
18285,note_on,44,0,0,,7,,,79,127
18305,note_off,20,0,0,,10,,,69,127
18349,note_on,44,0,0,,5,,,77,127
18369,note_off,20,0,0,,7,,,79,127
18413,note_on,44,0,0,,4,,,76,127
18433,note_off,20,0,0,,5,,,77,127
18476,note_off,43,0,0,,4,,,76,127
18476,note_off,0,0,0,,10,,,45,127
18477,note_on,1,0,0,,5,,,77,127
18477,note_on,0,0,0,,2,,,74,127
18604,note_off,127,0,0,,2,,,74,127
18605,note_on,1,0,0,,2,,,62,127
18732,note_off,127,0,0,,2,,,62,127
18732,note_off,0,0,0,,5,,,77,127
18733,note_on,1,0,0,,4,,,76,127
18733,note_on,0,0,0,,10,,,69,127
18860,note_off,127,0,0,,10,,,69,127
18861,note_on,1,0,0,,10,,,57,127
18988,note_off,127,0,0,,10,,,57,127
18988,note_off,0,0,0,,4,,,76,127
18989,note_on,1,0,0,,2,,,74,127
18989,note_on,0,0,0,,2,,,62,127
19116,note_off,127,0,0,,2,,,62,127
19117,note_on,1,0,0,,2,,,50,127
19244,note_off,127,0,0,,2,,,50,127
19244,note_off,0,0,0,,2,,,74,127
19245,note_on,1,0,0,,4,,,76,127
19245,note_on,0,0,0,,10,,,45,127
19309,note_on,64,0,0,,10,,,81,127
19329,note_off,20,0,0,,4,,,76,127
19373,note_on,44,0,0,,7,,,79,127
19393,note_off,20,0,0,,10,,,81,127
19437,note_on,44,0,0,,5,,,77,127
19457,note_off,20,0,0,,7,,,79,127
19501,note_on,44,0,0,,4,,,76,127
19521,note_off,20,0,0,,5,,,77,127
19565,note_on,44,0,0,,2,,,74,127
19585,note_off,20,0,0,,4,,,76,127
19629,note_on,44,0,0,,1,,,73,127
19649,note_off,20,0,0,,2,,,74,127
19693,note_on,44,0,0,,12,,,71,127
19713,note_off,20,0,0,,1,,,73,127
19757,note_on,44,0,0,,10,,,69,127
19777,note_off,20,0,0,,12,,,71,127
19821,note_on,44,0,0,,7,,,67,127
19841,note_off,20,0,0,,10,,,69,127
19885,note_on,44,0,0,,5,,,65,127
19905,note_off,20,0,0,,7,,,67,127
19949,note_on,44,0,0,,4,,,64,127
19969,note_off,20,0,0,,5,,,65,127
20012,note_off,43,0,0,,4,,,64,127
20012,note_off,0,0,0,,10,,,45,127
20013,note_on,1,0,0,,5,,,65,127
20013,note_on,0,0,0,,2,,,74,127
20013,note_on,0,0,0,,2,,,62,127
20140,note_off,127,0,0,,2,,,62,127
20141,note_on,1,0,0,,2,,,50,127
20268,note_off,127,0,0,,2,,,50,127
20268,note_off,0,0,0,,2,,,74,127
20268,note_off,0,0,0,,5,,,65,127
20269,note_on,1,0,0,,1,,,73,127
20269,note_on,0,0,0,,4,,,64,127
20269,note_on,0,0,0,,10,,,57,127
20396,note_off,127,0,0,,10,,,57,127
20397,note_on,1,0,0,,10,,,45,127
20524,note_off,127,0,0,,10,,,45,127
20524,note_off,0,0,0,,4,,,64,127
20524,note_off,0,0,0,,1,,,73,127
20525,note_on,1,0,0,,2,,,74,127
20525,note_on,0,0,0,,5,,,65,127
20525,note_on,0,0,0,,2,,,50,127
20652,note_off,127,0,0,,2,,,50,127
20653,note_on,1,0,0,,2,,,38,127
20780,note_off,127,0,0,,2,,,38,127
20780,note_off,0,0,0,,5,,,65,127
20780,note_off,0,0,0,,2,,,74,127
20781,note_on,1,0,0,,4,,,76,127
20781,note_on,0,0,0,,10,,,45,127
20845,note_on,64,0,0,,2,,,74,127
20865,note_off,20,0,0,,4,,,76,127
20909,note_on,44,0,0,,1,,,73,127
20929,note_off,20,0,0,,2,,,74,127
20973,note_on,44,0,0,,12,,,71,127
20993,note_off,20,0,0,,1,,,73,127
21036,note_off,43,0,0,,10,,,45,127
21037,note_on,1,0,0,,10,,,69,127
21037,note_on,0,0,0,,10,,,45,127
21057,note_off,20,0,0,,12,,,71,127
21101,note_on,44,0,0,,7,,,67,127
21121,note_off,20,0,0,,10,,,69,127
21165,note_on,44,0,0,,5,,,65,127
21185,note_off,20,0,0,,7,,,67,127
21229,note_on,44,0,0,,4,,,64,127
21249,note_off,20,0,0,,5,,,65,127
21292,note_off,43,0,0,,10,,,45,127
21293,note_on,1,0,0,,2,,,62,127
21293,note_on,0,0,0,,10,,,57,127
21313,note_off,20,0,0,,4,,,64,127
21420,note_off,107,0,0,,2,,,62,127
21421,note_on,1,0,0,,1,,,61,127
21548,note_off,127,0,0,,1,,,61,127
21548,note_off,0,0,0,,10,,,57,127
21549,note_on,1,0,0,,5,,,65,127
21549,note_on,0,0,0,,11,,,58,127
21677,note_on,128,0,0,,10,,,69,127
21802,note_off,125,0,0,,5,,,65,127
21803,note_off,1,0,0,,10,,,69,127
21803,note_off,0,0,0,,11,,,58,127
21804,note_on,1,0,0,,2,,,74,127
21804,note_on,0,0,0,,7,,,55,127
21932,note_on,128,0,0,,5,,,65,127
22057,note_off,125,0,0,,2,,,74,127
22058,note_off,1,0,0,,5,,,65,127
22058,note_off,0,0,0,,7,,,55,127
22059,note_on,1,0,0,,4,,,64,127
22059,note_on,0,0,0,,10,,,57,127
22187,note_on,128,0,0,,1,,,73,127
22187,note_on,0,0,0,,4,,,76,127
22251,note_off,64,0,0,,4,,,64,127
22314,note_off,63,0,0,,4,,,76,127
22314,note_off,0,0,0,,1,,,73,127
22314,note_off,0,0,0,,10,,,57,127
22315,note_on,1,0,0,,5,,,65,127
22315,note_on,0,0,0,,2,,,50,127
22443,note_on,128,0,0,,5,,,77,127
22443,note_on,0,0,0,,2,,,74,127
22507,note_off,64,0,0,,5,,,65,127
22570,note_off,63,0,0,,2,,,74,127
22570,note_off,0,0,0,,5,,,77,127
22570,note_off,0,0,0,,2,,,50,127
22571,note_on,1,0,0,,7,,,67,127
22571,note_on,0,0,0,,4,,,52,127
22699,note_on,128,0,0,,4,,,76,127
22699,note_on,0,0,0,,7,,,79,127
22763,note_off,64,0,0,,7,,,67,127
22826,note_off,63,0,0,,7,,,79,127
22826,note_off,0,0,0,,4,,,76,127
22826,note_off,0,0,0,,4,,,52,127
22827,note_on,1,0,0,,10,,,69,127
22827,note_on,0,0,0,,5,,,53,127
22955,note_on,128,0,0,,10,,,81,127
22955,note_on,0,0,0,,5,,,77,127
23019,note_off,64,0,0,,10,,,69,127
23082,note_off,63,0,0,,5,,,77,127
23082,note_off,0,0,0,,10,,,81,127
23082,note_off,0,0,0,,5,,,53,127
23083,note_on,1,0,0,,11,,,70,127
23083,note_on,0,0,0,,7,,,55,127
23211,note_on,128,0,0,,7,,,79,127
23211,note_on,0,0,0,,11,,,82,127
23275,note_off,64,0,0,,11,,,70,127
23338,note_off,63,0,0,,11,,,82,127
23338,note_off,0,0,0,,7,,,79,127
23338,note_off,0,0,0,,7,,,55,127
23339,note_on,1,0,0,,1,,,73,127
23339,note_on,0,0,0,,10,,,69,127
23339,note_on,0,0,0,,10,,,57,127
23466,note_off,127,0,0,,1,,,73,127
23467,note_on,1,0,0,,10,,,81,127
23531,note_off,64,0,0,,10,,,69,127
23594,note_off,63,0,0,,10,,,57,127
23595,note_on,1,0,0,,11,,,70,127
23595,note_on,0,0,0,,11,,,58,127
23627,note_off,32,0,0,,10,,,81,127
23723,note_on,96,0,0,,7,,,79,127
23787,note_off,64,0,0,,11,,,70,127
23850,note_off,63,0,0,,7,,,79,127
23850,note_off,0,0,0,,11,,,58,127
23851,note_on,1,0,0,,10,,,69,127
23851,note_on,0,0,0,,10,,,45,127
23915,note_on,64,0,0,,10,,,81,127
23935,note_off,20,0,0,,10,,,69,127
23979,note_on,44,0,0,,7,,,79,127
23999,note_off,20,0,0,,10,,,81,127
24043,note_on,44,0,0,,5,,,77,127
24063,note_off,20,0,0,,7,,,79,127
24107,note_on,44,0,0,,4,,,76,127
24127,note_off,20,0,0,,5,,,77,127
24171,note_on,44,0,0,,2,,,74,127
24191,note_off,20,0,0,,4,,,76,127
24235,note_on,44,0,0,,1,,,73,127
24255,note_off,20,0,0,,2,,,74,127
24299,note_on,44,0,0,,12,,,71,127
24319,note_off,20,0,0,,1,,,73,127
24363,note_on,44,0,0,,10,,,69,127
24383,note_off,20,0,0,,12,,,71,127
24427,note_on,44,0,0,,7,,,67,127
24447,note_off,20,0,0,,10,,,69,127
24491,note_on,44,0,0,,5,,,65,127
24511,note_off,20,0,0,,7,,,67,127
24555,note_on,44,0,0,,4,,,64,127
24575,note_off,20,0,0,,5,,,65,127
24618,note_off,43,0,0,,4,,,64,127
24618,note_off,0,0,0,,10,,,45,127
24619,note_on,1,0,0,,5,,,65,127
24619,note_on,0,0,0,,2,,,74,127
24619,note_on,0,0,0,,2,,,62,127
24746,note_off,127,0,0,,2,,,62,127
24747,note_on,1,0,0,,2,,,50,127
24874,note_off,127,0,0,,2,,,50,127
24874,note_off,0,0,0,,2,,,74,127
24874,note_off,0,0,0,,5,,,65,127
24875,note_on,1,0,0,,1,,,73,127
24875,note_on,0,0,0,,4,,,64,127
24875,note_on,0,0,0,,10,,,57,127
25002,note_off,127,0,0,,10,,,57,127
25003,note_on,1,0,0,,10,,,45,127
25130,note_off,127,0,0,,10,,,45,127
25130,note_off,0,0,0,,4,,,64,127
25130,note_off,0,0,0,,1,,,73,127
25131,note_on,1,0,0,,5,,,65,127
25131,note_on,0,0,0,,2,,,74,127
25131,note_on,0,0,0,,2,,,50,127
25258,note_off,127,0,0,,2,,,50,127
25259,note_on,1,0,0,,2,,,38,127
25386,note_off,127,0,0,,2,,,38,127
25386,note_off,0,0,0,,2,,,74,127
25386,note_off,0,0,0,,5,,,65,127
25387,note_on,1,0,0,,4,,,76,127
25387,note_on,0,0,0,,10,,,45,127
25451,note_on,64,0,0,,2,,,74,127
25471,note_off,20,0,0,,4,,,76,127
25515,note_on,44,0,0,,1,,,73,127
25535,note_off,20,0,0,,2,,,74,127
25579,note_on,44,0,0,,12,,,71,127
25599,note_off,20,0,0,,1,,,73,127
25642,note_off,43,0,0,,10,,,45,127
25643,note_on,1,0,0,,10,,,69,127
25643,note_on,0,0,0,,10,,,45,127
25663,note_off,20,0,0,,12,,,71,127
25707,note_on,44,0,0,,7,,,67,127
25727,note_off,20,0,0,,10,,,69,127
25771,note_on,44,0,0,,5,,,65,127
25791,note_off,20,0,0,,7,,,67,127
25835,note_on,44,0,0,,4,,,64,127
25855,note_off,20,0,0,,5,,,65,127
25898,note_off,43,0,0,,10,,,45,127
25899,note_on,1,0,0,,2,,,62,127
25899,note_on,0,0,0,,10,,,57,127
25919,note_off,20,0,0,,4,,,64,127
26026,note_off,107,0,0,,2,,,62,127
26027,note_on,1,0,0,,1,,,61,127
26154,note_off,127,0,0,,1,,,61,127
26154,note_off,0,0,0,,10,,,57,127
26155,note_on,1,0,0,,5,,,65,127
26155,note_on,0,0,0,,11,,,58,127
26283,note_on,128,0,0,,10,,,69,127
26408,note_off,125,0,0,,5,,,65,127
26409,note_off,1,0,0,,10,,,69,127
26409,note_off,0,0,0,,11,,,58,127
26410,note_on,1,0,0,,2,,,74,127
26410,note_on,0,0,0,,7,,,55,127
26538,note_on,128,0,0,,5,,,65,127
26663,note_off,125,0,0,,2,,,74,127
26664,note_off,1,0,0,,5,,,65,127
26664,note_off,0,0,0,,7,,,55,127
26665,note_on,1,0,0,,4,,,64,127
26665,note_on,0,0,0,,10,,,57,127
26793,note_on,128,0,0,,1,,,73,127
26918,note_off,125,0,0,,4,,,64,127
26919,note_off,1,0,0,,1,,,73,127
26919,note_off,0,0,0,,10,,,57,127
26920,note_on,1,0,0,,1,,,73,127
26920,note_on,0,0,0,,2,,,50,127
27175,note_off,255,0,0,,1,,,73,127
27176,note_on,1,0,0,,2,,,74,127
27560,note_off,384,0,0,,2,,,74,127
27687,note_off,127,0,0,,2,,,50,127
27688,note_on,1,0,0,,5,,,65,127
27688,note_on,0,0,0,,2,,,50,127
27816,note_on,128,0,0,,10,,,69,127
27943,note_off,127,0,0,,10,,,69,127
27944,note_on,1,0,0,,2,,,74,127
28071,note_off,127,0,0,,2,,,74,127
28072,note_off,1,0,0,,5,,,65,127
28072,note_on,0,0,0,,5,,,77,127
28199,note_off,127,0,0,,2,,,50,127
28200,note_on,1,0,0,,7,,,67,127
28200,note_on,0,0,0,,4,,,52,127
28264,note_off,64,0,0,,5,,,77,127
28328,note_on,64,0,0,,4,,,76,127
28392,note_off,64,0,0,,7,,,67,127
28455,note_off,63,0,0,,4,,,52,127
28456,note_on,1,0,0,,5,,,65,127
28456,note_on,0,0,0,,5,,,53,127
28520,note_off,64,0,0,,4,,,76,127
28584,note_on,64,0,0,,2,,,74,127
28648,note_off,64,0,0,,5,,,65,127
28711,note_off,63,0,0,,5,,,53,127
28712,note_on,1,0,0,,4,,,64,127
28712,note_on,0,0,0,,7,,,55,127
28776,note_off,64,0,0,,2,,,74,127
28840,note_on,64,0,0,,0,,,72,127
28904,note_off,64,0,0,,4,,,64,127
28968,note_on,64,0,0,,2,,,62,127
28968,note_on,0,0,0,,7,,,43,127
29032,note_off,64,0,0,,0,,,72,127
29096,note_on,64,0,0,,12,,,71,127
29160,note_off,64,0,0,,2,,,62,127
29219,note_off,59,0,0,,7,,,55,127
29223,note_off,4,0,0,,12,,,71,127
29223,note_off,0,0,0,,7,,,43,127
29224,note_on,1,0,0,,4,,,64,127
29224,note_on,0,0,0,,0,,,48,127
29352,note_on,128,0,0,,7,,,67,127
29479,note_off,127,0,0,,7,,,67,127
29480,note_on,1,0,0,,0,,,72,127
29607,note_off,127,0,0,,0,,,72,127
29608,note_off,1,0,0,,4,,,64,127
29608,note_on,0,0,0,,4,,,76,127
29735,note_off,127,0,0,,0,,,48,127
29736,note_on,1,0,0,,4,,,64,127
29736,note_on,0,0,0,,0,,,48,127
29800,note_off,64,0,0,,4,,,76,127
29864,note_on,64,0,0,,0,,,72,127
29928,note_off,64,0,0,,4,,,64,127
29991,note_off,63,0,0,,0,,,48,127
29992,note_on,1,0,0,,2,,,62,127
29992,note_on,0,0,0,,2,,,50,127
30056,note_off,64,0,0,,0,,,72,127
30120,note_on,64,0,0,,12,,,71,127
30184,note_off,64,0,0,,2,,,62,127
30247,note_off,63,0,0,,2,,,50,127
30248,note_on,1,0,0,,0,,,60,127
30248,note_on,0,0,0,,4,,,52,127
30312,note_off,64,0,0,,12,,,71,127
30376,note_on,64,0,0,,10,,,69,127
30440,note_off,64,0,0,,0,,,60,127
30504,note_on,64,0,0,,12,,,59,127
30504,note_on,0,0,0,,4,,,40,127
30568,note_off,64,0,0,,10,,,69,127
30632,note_on,64,0,0,,8,,,68,127
30696,note_off,64,0,0,,12,,,59,127
30755,note_off,59,0,0,,4,,,52,127
30759,note_off,4,0,0,,8,,,68,127
30759,note_off,0,0,0,,4,,,40,127
30760,note_on,1,0,0,,10,,,69,127
30760,note_on,0,0,0,,10,,,45,127
30887,note_off,127,0,0,,10,,,45,127
30888,note_on,1,0,0,,0,,,48,127
31015,note_off,127,0,0,,0,,,48,127
31016,note_on,1,0,0,,4,,,64,127
31016,note_on,0,0,0,,4,,,52,127
31143,note_off,127,0,0,,4,,,52,127
31144,note_off,1,0,0,,10,,,69,127
31144,note_on,0,0,0,,10,,,57,127
31271,note_off,127,0,0,,10,,,57,127
31271,note_off,0,0,0,,4,,,64,127
31272,note_on,1,0,0,,10,,,69,127
31272,note_on,0,0,0,,0,,,72,127
31272,note_on,0,0,0,,0,,,60,127
31399,note_off,127,0,0,,0,,,60,127
31400,note_on,1,0,0,,4,,,64,127
31527,note_off,127,0,0,,4,,,64,127
31527,note_off,0,0,0,,0,,,72,127
31527,note_off,0,0,0,,10,,,69,127
31528,note_on,1,0,0,,12,,,71,127
31528,note_on,0,0,0,,4,,,40,127
31656,note_on,128,0,0,,4,,,64,127
31720,note_off,64,0,0,,12,,,71,127
31783,note_off,63,0,0,,4,,,64,127
31783,note_off,0,0,0,,4,,,40,127
31784,note_on,1,0,0,,8,,,68,127
31784,note_on,0,0,0,,4,,,40,127
31911,note_off,127,0,0,,8,,,68,127
31912,note_on,1,0,0,,12,,,71,127
32039,note_off,127,0,0,,12,,,71,127
32039,note_off,0,0,0,,4,,,40,127
32040,note_on,1,0,0,,4,,,76,127
32040,note_on,0,0,0,,4,,,40,127
32168,note_on,128,0,0,,4,,,64,127
32293,note_off,125,0,0,,4,,,76,127
32294,note_off,1,0,0,,4,,,64,127
32294,note_off,0,0,0,,4,,,40,127
32295,note_on,1,0,0,,5,,,65,127
32295,note_on,0,0,0,,4,,,40,127
32423,note_on,128,0,0,,2,,,74,127
32487,note_off,64,0,0,,5,,,65,127
32550,note_off,63,0,0,,4,,,40,127
32551,note_on,1,0,0,,4,,,64,127
32551,note_on,0,0,0,,4,,,40,127
32615,note_off,64,0,0,,2,,,74,127
32679,note_on,64,0,0,,10,,,69,127
32679,note_on,0,0,0,,0,,,72,127
32743,note_off,64,0,0,,4,,,64,127
32806,note_off,63,0,0,,0,,,72,127
32806,note_off,0,0,0,,10,,,69,127
32806,note_off,0,0,0,,4,,,40,127
32807,note_on,1,0,0,,2,,,62,127
32807,note_on,0,0,0,,4,,,40,127
32935,note_on,128,0,0,,8,,,68,127
32935,note_on,0,0,0,,12,,,71,127
32999,note_off,64,0,0,,2,,,62,127
33062,note_off,63,0,0,,12,,,71,127
33062,note_off,0,0,0,,8,,,68,127
33062,note_off,0,0,0,,4,,,40,127
33063,note_on,1,0,0,,8,,,68,127
33063,note_on,0,0,0,,12,,,71,127
33063,note_on,0,0,0,,10,,,45,127
33318,note_off,255,0,0,,12,,,71,127
33318,note_off,0,0,0,,8,,,68,127
33319,note_on,1,0,0,,0,,,72,127
33319,note_on,0,0,0,,10,,,69,127
33703,note_off,384,0,0,,0,,,72,127
33830,note_off,127,0,0,,10,,,69,127
33830,note_off,0,0,0,,10,,,45,127
33831,note_on,1,0,0,,0,,,72,127
33831,note_on,0,0,0,,10,,,69,127
33958,note_off,127,0,0,,10,,,69,127
33959,note_on,1,0,0,,10,,,57,127
34086,note_off,127,0,0,,10,,,57,127
34086,note_off,0,0,0,,0,,,72,127
34087,note_on,1,0,0,,12,,,71,127
34087,note_on,0,0,0,,4,,,64,127
34214,note_off,127,0,0,,4,,,64,127
34215,note_on,1,0,0,,4,,,52,127
34342,note_off,127,0,0,,4,,,52,127
34342,note_off,0,0,0,,12,,,71,127
34343,note_on,1,0,0,,10,,,69,127
34343,note_on,0,0,0,,10,,,57,127
34470,note_off,127,0,0,,10,,,57,127
34471,note_on,1,0,0,,10,,,45,127
34598,note_off,127,0,0,,10,,,45,127
34598,note_off,0,0,0,,10,,,69,127
34599,note_on,1,0,0,,12,,,71,127
34599,note_on,0,0,0,,4,,,40,127
34663,note_on,64,0,0,,4,,,76,127
34683,note_off,20,0,0,,12,,,71,127
34727,note_on,44,0,0,,2,,,74,127
34747,note_off,20,0,0,,4,,,76,127
34791,note_on,44,0,0,,0,,,72,127
34811,note_off,20,0,0,,2,,,74,127
34855,note_on,44,0,0,,12,,,71,127
34875,note_off,20,0,0,,0,,,72,127
34919,note_on,44,0,0,,10,,,69,127
34939,note_off,20,0,0,,12,,,71,127
34983,note_on,44,0,0,,8,,,68,127
35003,note_off,20,0,0,,10,,,69,127
35047,note_on,44,0,0,,6,,,66,127
35067,note_off,20,0,0,,8,,,68,127
35111,note_on,44,0,0,,4,,,64,127
35131,note_off,20,0,0,,6,,,66,127
35175,note_on,44,0,0,,2,,,74,127
35195,note_off,20,0,0,,4,,,64,127
35239,note_on,44,0,0,,0,,,72,127
35259,note_off,20,0,0,,2,,,74,127
35303,note_on,44,0,0,,12,,,71,127
35323,note_off,20,0,0,,0,,,72,127
35366,note_off,43,0,0,,12,,,71,127
35366,note_off,0,0,0,,4,,,40,127
35367,note_on,1,0,0,,0,,,72,127
35367,note_on,0,0,0,,10,,,69,127
35494,note_off,127,0,0,,10,,,69,127
35495,note_on,1,0,0,,10,,,57,127
35622,note_off,127,0,0,,10,,,57,127
35622,note_off,0,0,0,,0,,,72,127
35623,note_on,1,0,0,,12,,,71,127
35623,note_on,0,0,0,,4,,,64,127
35750,note_off,127,0,0,,4,,,64,127
35751,note_on,1,0,0,,4,,,52,127
35878,note_off,127,0,0,,4,,,52,127
35878,note_off,0,0,0,,12,,,71,127
35879,note_on,1,0,0,,10,,,69,127
35879,note_on,0,0,0,,10,,,57,127
36006,note_off,127,0,0,,10,,,57,127
36007,note_on,1,0,0,,10,,,45,127
36134,note_off,127,0,0,,10,,,45,127
36134,note_off,0,0,0,,10,,,69,127
36135,note_on,1,0,0,,12,,,71,127
36135,note_on,0,0,0,,4,,,40,127
36199,note_on,64,0,0,,4,,,76,127
36219,note_off,20,0,0,,12,,,71,127
36263,note_on,44,0,0,,2,,,74,127
36283,note_off,20,0,0,,4,,,76,127
36327,note_on,44,0,0,,0,,,72,127
36347,note_off,20,0,0,,2,,,74,127
36391,note_on,44,0,0,,12,,,71,127
36411,note_off,20,0,0,,0,,,72,127
36455,note_on,44,0,0,,10,,,69,127
36475,note_off,20,0,0,,12,,,71,127
36519,note_on,44,0,0,,8,,,68,127
36539,note_off,20,0,0,,10,,,69,127
36583,note_on,44,0,0,,6,,,66,127
36603,note_off,20,0,0,,8,,,68,127
36647,note_on,44,0,0,,4,,,64,127
36667,note_off,20,0,0,,6,,,66,127
36711,note_on,44,0,0,,2,,,74,127
36731,note_off,20,0,0,,4,,,64,127
36775,note_on,44,0,0,,0,,,72,127
36795,note_off,20,0,0,,2,,,74,127
36839,note_on,44,0,0,,12,,,71,127
36859,note_off,20,0,0,,0,,,72,127
36902,note_off,43,0,0,,12,,,71,127
36902,note_off,0,0,0,,4,,,40,127
36903,note_on,1,0,0,,0,,,72,127
36903,note_on,0,0,0,,10,,,57,127
37030,note_off,127,0,0,,10,,,57,127
37031,note_on,1,0,0,,10,,,69,127
37158,note_off,127,0,0,,0,,,72,127
37159,note_on,1,0,0,,11,,,70,127
37286,note_off,127,0,0,,10,,,69,127
37287,note_on,1,0,0,,7,,,67,127
37414,note_off,127,0,0,,11,,,70,127
37415,note_on,1,0,0,,10,,,69,127
37542,note_off,127,0,0,,7,,,67,127
37543,note_on,1,0,0,,6,,,66,127
37670,note_off,127,0,0,,6,,,66,127
37670,note_off,0,0,0,,10,,,69,127
37671,note_on,1,0,0,,11,,,70,127
37671,note_on,0,0,0,,7,,,67,127
37798,note_off,127,0,0,,7,,,67,127
37799,note_on,1,0,0,,7,,,55,127
37926,note_off,127,0,0,,7,,,55,127
37926,note_off,0,0,0,,11,,,70,127
37927,note_on,1,0,0,,10,,,69,127
37927,note_on,0,0,0,,2,,,62,127
38054,note_off,127,0,0,,2,,,62,127
38055,note_on,1,0,0,,2,,,50,127
38182,note_off,127,0,0,,2,,,50,127
38182,note_off,0,0,0,,10,,,69,127
38183,note_on,1,0,0,,7,,,67,127
38183,note_on,0,0,0,,7,,,55,127
38310,note_off,127,0,0,,7,,,55,127
38311,note_on,1,0,0,,7,,,43,127
38438,note_off,127,0,0,,7,,,43,127
38438,note_off,0,0,0,,7,,,67,127
38439,note_on,1,0,0,,10,,,69,127
38439,note_on,0,0,0,,2,,,38,127
38503,note_on,64,0,0,,2,,,74,127
38523,note_off,20,0,0,,10,,,69,127
38567,note_on,44,0,0,,0,,,72,127
38587,note_off,20,0,0,,2,,,74,127
38631,note_on,44,0,0,,11,,,70,127
38651,note_off,20,0,0,,0,,,72,127
38695,note_on,44,0,0,,10,,,69,127
38715,note_off,20,0,0,,11,,,70,127
38759,note_on,44,0,0,,7,,,67,127
38779,note_off,20,0,0,,10,,,69,127
38823,note_on,44,0,0,,6,,,66,127
38843,note_off,20,0,0,,7,,,67,127
38887,note_on,44,0,0,,4,,,64,127
38907,note_off,20,0,0,,6,,,66,127
38951,note_on,44,0,0,,2,,,62,127
38971,note_off,20,0,0,,4,,,64,127
39015,note_on,44,0,0,,0,,,72,127
39035,note_off,20,0,0,,2,,,62,127
39079,note_on,44,0,0,,11,,,70,127
39099,note_off,20,0,0,,0,,,72,127
39143,note_on,44,0,0,,10,,,69,127
39163,note_off,20,0,0,,11,,,70,127
39206,note_off,43,0,0,,10,,,69,127
39206,note_off,0,0,0,,2,,,38,127
39207,note_on,1,0,0,,11,,,70,127
39207,note_on,0,0,0,,7,,,67,127
39334,note_off,127,0,0,,7,,,67,127
39335,note_on,1,0,0,,7,,,55,127
39462,note_off,127,0,0,,7,,,55,127
39462,note_off,0,0,0,,11,,,70,127
39463,note_on,1,0,0,,10,,,69,127
39463,note_on,0,0,0,,2,,,62,127
39590,note_off,127,0,0,,2,,,62,127
39591,note_on,1,0,0,,2,,,50,127
39718,note_off,127,0,0,,2,,,50,127
39718,note_off,0,0,0,,10,,,69,127
39719,note_on,1,0,0,,7,,,67,127
39719,note_on,0,0,0,,7,,,55,127
39846,note_off,127,0,0,,7,,,55,127
39847,note_on,1,0,0,,7,,,43,127
39974,note_off,127,0,0,,7,,,43,127
39974,note_off,0,0,0,,7,,,67,127
39975,note_on,1,0,0,,10,,,69,127
39975,note_on,0,0,0,,2,,,38,127
40039,note_on,64,0,0,,2,,,74,127
40059,note_off,20,0,0,,10,,,69,127
40103,note_on,44,0,0,,0,,,72,127
40123,note_off,20,0,0,,2,,,74,127
40167,note_on,44,0,0,,11,,,70,127
40187,note_off,20,0,0,,0,,,72,127
40231,note_on,44,0,0,,10,,,69,127
40251,note_off,20,0,0,,11,,,70,127
40295,note_on,44,0,0,,7,,,67,127
40315,note_off,20,0,0,,10,,,69,127
40359,note_on,44,0,0,,6,,,66,127
40379,note_off,20,0,0,,7,,,67,127
40423,note_on,44,0,0,,4,,,64,127
40443,note_off,20,0,0,,6,,,66,127
40487,note_on,44,0,0,,2,,,62,127
40507,note_off,20,0,0,,4,,,64,127
40551,note_on,44,0,0,,0,,,72,127
40571,note_off,20,0,0,,2,,,62,127
40615,note_on,44,0,0,,11,,,70,127
40635,note_off,20,0,0,,0,,,72,127
40679,note_on,44,0,0,,10,,,69,127
40699,note_off,20,0,0,,11,,,70,127
40742,note_off,43,0,0,,10,,,69,127
40742,note_off,0,0,0,,2,,,38,127
40743,note_on,1,0,0,,11,,,70,127
40743,note_on,0,0,0,,7,,,55,127
40870,note_off,127,0,0,,7,,,55,127
40871,note_on,1,0,0,,7,,,67,127
40998,note_off,127,0,0,,11,,,70,127
40999,note_on,1,0,0,,10,,,69,127
41126,note_off,127,0,0,,7,,,67,127
41127,note_on,1,0,0,,5,,,65,127
41254,note_off,127,0,0,,10,,,69,127
41255,note_on,1,0,0,,7,,,67,127
41382,note_off,127,0,0,,5,,,65,127
41383,note_on,1,0,0,,4,,,64,127
41510,note_off,127,0,0,,4,,,64,127
41510,note_off,0,0,0,,7,,,67,127
41511,note_on,1,0,0,,10,,,69,127
41511,note_on,0,0,0,,5,,,65,127
41638,note_off,127,0,0,,5,,,65,127
41639,note_on,1,0,0,,5,,,53,127
41766,note_off,127,0,0,,5,,,53,127
41766,note_off,0,0,0,,10,,,69,127
41767,note_on,1,0,0,,7,,,67,127
41767,note_on,0,0,0,,0,,,60,127
41894,note_off,127,0,0,,0,,,60,127
41895,note_on,1,0,0,,0,,,48,127
42022,note_off,127,0,0,,0,,,48,127
42022,note_off,0,0,0,,7,,,67,127
42023,note_on,1,0,0,,5,,,65,127
42023,note_on,0,0,0,,5,,,53,127
42150,note_off,127,0,0,,5,,,53,127
42151,note_on,1,0,0,,5,,,41,127
42278,note_off,127,0,0,,5,,,41,127
42278,note_off,0,0,0,,5,,,65,127
42279,note_on,1,0,0,,7,,,67,127
42279,note_on,0,0,0,,0,,,36,127
42343,note_on,64,0,0,,0,,,72,127
42363,note_off,20,0,0,,7,,,67,127
42407,note_on,44,0,0,,11,,,70,127
42427,note_off,20,0,0,,0,,,72,127
42471,note_on,44,0,0,,10,,,69,127
42491,note_off,20,0,0,,11,,,70,127
42535,note_on,44,0,0,,7,,,67,127
42555,note_off,20,0,0,,10,,,69,127
42599,note_on,44,0,0,,5,,,65,127
42619,note_off,20,0,0,,7,,,67,127
42663,note_on,44,0,0,,4,,,64,127
42683,note_off,20,0,0,,5,,,65,127
42727,note_on,44,0,0,,2,,,62,127
42747,note_off,20,0,0,,4,,,64,127
42791,note_on,44,0,0,,0,,,60,127
42811,note_off,20,0,0,,2,,,62,127
42855,note_on,44,0,0,,11,,,70,127
42875,note_off,20,0,0,,0,,,60,127
42919,note_on,44,0,0,,10,,,69,127
42939,note_off,20,0,0,,11,,,70,127
42983,note_on,44,0,0,,7,,,67,127
43003,note_off,20,0,0,,10,,,69,127
43046,note_off,43,0,0,,7,,,67,127
43046,note_off,0,0,0,,0,,,36,127
43047,note_on,1,0,0,,10,,,69,127
43047,note_on,0,0,0,,5,,,65,127
43174,note_off,127,0,0,,5,,,65,127
43175,note_on,1,0,0,,5,,,53,127
43302,note_off,127,0,0,,5,,,53,127
43302,note_off,0,0,0,,10,,,69,127
43303,note_on,1,0,0,,7,,,67,127
43303,note_on,0,0,0,,0,,,60,127
43430,note_off,127,0,0,,0,,,60,127
43431,note_on,1,0,0,,0,,,48,127
43558,note_off,127,0,0,,0,,,48,127
43558,note_off,0,0,0,,7,,,67,127
43559,note_on,1,0,0,,5,,,65,127
43559,note_on,0,0,0,,5,,,53,127
43686,note_off,127,0,0,,5,,,53,127
43687,note_on,1,0,0,,5,,,41,127
43814,note_off,127,0,0,,5,,,41,127
43814,note_off,0,0,0,,5,,,65,127
43815,note_on,1,0,0,,7,,,67,127
43815,note_on,0,0,0,,0,,,36,127
43879,note_on,64,0,0,,0,,,72,127
43899,note_off,20,0,0,,7,,,67,127
43943,note_on,44,0,0,,11,,,70,127
43963,note_off,20,0,0,,0,,,72,127
44007,note_on,44,0,0,,10,,,69,127
44027,note_off,20,0,0,,11,,,70,127
44071,note_on,44,0,0,,7,,,67,127
44091,note_off,20,0,0,,10,,,69,127
44135,note_on,44,0,0,,5,,,65,127
44155,note_off,20,0,0,,7,,,67,127
44199,note_on,44,0,0,,4,,,64,127
44219,note_off,20,0,0,,5,,,65,127
44263,note_on,44,0,0,,2,,,62,127
44283,note_off,20,0,0,,4,,,64,127
44327,note_on,44,0,0,,0,,,60,127
44347,note_off,20,0,0,,2,,,62,127
44391,note_on,44,0,0,,11,,,70,127
44411,note_off,20,0,0,,0,,,60,127
44455,note_on,44,0,0,,10,,,69,127
44475,note_off,20,0,0,,11,,,70,127
44519,note_on,44,0,0,,7,,,67,127
44539,note_off,20,0,0,,10,,,69,127
44582,note_off,43,0,0,,7,,,67,127
44582,note_off,0,0,0,,0,,,36,127
44583,note_on,1,0,0,,10,,,69,127
44583,note_on,0,0,0,,5,,,53,127
44710,note_off,127,0,0,,5,,,53,127
44711,note_on,1,0,0,,5,,,65,127
44838,note_off,127,0,0,,10,,,69,127
44839,note_on,1,0,0,,7,,,67,127
44966,note_off,127,0,0,,5,,,65,127
44967,note_on,1,0,0,,4,,,64,127
45094,note_off,127,0,0,,7,,,67,127
45095,note_on,1,0,0,,5,,,65,127
45222,note_off,127,0,0,,4,,,64,127
45223,note_on,1,0,0,,2,,,62,127
45350,note_off,127,0,0,,5,,,65,127
45351,note_on,1,0,0,,4,,,64,127
45478,note_off,127,0,0,,2,,,62,127
45479,note_on,1,0,0,,1,,,61,127
45606,note_off,127,0,0,,4,,,64,127
45607,note_on,1,0,0,,5,,,65,127
45734,note_off,127,0,0,,1,,,61,127
45735,note_on,1,0,0,,2,,,62,127
45862,note_off,127,0,0,,5,,,65,127
45863,note_on,1,0,0,,7,,,67,127
45990,note_off,127,0,0,,2,,,62,127
45991,note_on,1,0,0,,11,,,58,127
46118,note_off,127,0,0,,11,,,58,127
46119,note_on,1,0,0,,10,,,45,127
46182,note_off,63,0,0,,7,,,67,127
46183,note_on,1,0,0,,10,,,69,127
46247,note_on,64,0,0,,7,,,67,127
46267,note_off,20,0,0,,10,,,69,127
46311,note_on,44,0,0,,5,,,65,127
46331,note_off,20,0,0,,7,,,67,127
46375,note_on,44,0,0,,4,,,64,127
46395,note_off,20,0,0,,5,,,65,127
46439,note_on,44,0,0,,2,,,62,127
46459,note_off,20,0,0,,4,,,64,127
46503,note_on,44,0,0,,1,,,61,127
46523,note_off,20,0,0,,2,,,62,127
46567,note_on,44,0,0,,12,,,59,127
46587,note_off,20,0,0,,1,,,61,127
46631,note_on,44,0,0,,10,,,57,127
46634,note_off,3,0,0,,12,,,59,127
46758,note_off,124,0,0,,10,,,57,127
46759,note_on,1,0,0,,4,,,76,127
46759,note_on,0,0,0,,7,,,79,127
46886,note_off,127,0,0,,7,,,79,127
46886,note_off,0,0,0,,4,,,76,127
46886,note_off,0,0,0,,10,,,45,127
46887,note_on,1,0,0,,5,,,77,127
46887,note_on,0,0,0,,2,,,74,127
47014,note_off,127,0,0,,2,,,74,127
47015,note_on,1,0,0,,2,,,62,127
47142,note_off,127,0,0,,2,,,62,127
47142,note_off,0,0,0,,5,,,77,127
47143,note_on,1,0,0,,4,,,76,127
47143,note_on,0,0,0,,10,,,69,127
47270,note_off,127,0,0,,10,,,69,127
47271,note_on,1,0,0,,10,,,57,127
47398,note_off,127,0,0,,10,,,57,127
47398,note_off,0,0,0,,4,,,76,127
47399,note_on,1,0,0,,2,,,74,127
47399,note_on,0,0,0,,2,,,62,127
47526,note_off,127,0,0,,2,,,62,127
47527,note_on,1,0,0,,2,,,50,127
47654,note_off,127,0,0,,2,,,50,127
47654,note_off,0,0,0,,2,,,74,127
47655,note_on,1,0,0,,4,,,76,127
47655,note_on,0,0,0,,10,,,45,127
47719,note_on,64,0,0,,10,,,81,127
47739,note_off,20,0,0,,4,,,76,127
47783,note_on,44,0,0,,7,,,79,127
47803,note_off,20,0,0,,10,,,81,127
47847,note_on,44,0,0,,5,,,77,127
47867,note_off,20,0,0,,7,,,79,127
47911,note_on,44,0,0,,4,,,76,127
47931,note_off,20,0,0,,5,,,77,127
47975,note_on,44,0,0,,2,,,74,127
47995,note_off,20,0,0,,4,,,76,127
48039,note_on,44,0,0,,1,,,73,127
48059,note_off,20,0,0,,2,,,74,127
48103,note_on,44,0,0,,12,,,71,127
48123,note_off,20,0,0,,1,,,73,127
48167,note_on,44,0,0,,10,,,69,127
48187,note_off,20,0,0,,12,,,71,127
48231,note_on,44,0,0,,7,,,79,127
48251,note_off,20,0,0,,10,,,69,127
48295,note_on,44,0,0,,5,,,77,127
48315,note_off,20,0,0,,7,,,79,127
48359,note_on,44,0,0,,4,,,76,127
48379,note_off,20,0,0,,5,,,77,127
48422,note_off,43,0,0,,4,,,76,127
48422,note_off,0,0,0,,10,,,45,127
48423,note_on,1,0,0,,2,,,74,127
48423,note_on,0,0,0,,5,,,77,127
48550,note_off,127,0,0,,2,,,74,127
48551,note_on,1,0,0,,2,,,62,127
48678,note_off,127,0,0,,2,,,62,127
48678,note_off,0,0,0,,5,,,77,127
48679,note_on,1,0,0,,4,,,76,127
48679,note_on,0,0,0,,10,,,69,127
48806,note_off,127,0,0,,10,,,69,127
48807,note_on,1,0,0,,10,,,57,127
48934,note_off,127,0,0,,10,,,57,127
48934,note_off,0,0,0,,4,,,76,127
48935,note_on,1,0,0,,2,,,74,127
48935,note_on,0,0,0,,2,,,62,127
49062,note_off,127,0,0,,2,,,62,127
49063,note_on,1,0,0,,2,,,50,127
49190,note_off,127,0,0,,2,,,50,127
49190,note_off,0,0,0,,2,,,74,127
49191,note_on,1,0,0,,4,,,76,127
49191,note_on,0,0,0,,10,,,45,127
49255,note_on,64,0,0,,10,,,81,127
49275,note_off,20,0,0,,4,,,76,127
49319,note_on,44,0,0,,7,,,79,127
49339,note_off,20,0,0,,10,,,81,127
49383,note_on,44,0,0,,5,,,77,127
49403,note_off,20,0,0,,7,,,79,127
49447,note_on,44,0,0,,4,,,76,127
49467,note_off,20,0,0,,5,,,77,127
49511,note_on,44,0,0,,2,,,74,127
49531,note_off,20,0,0,,4,,,76,127
49575,note_on,44,0,0,,1,,,73,127
49595,note_off,20,0,0,,2,,,74,127
49639,note_on,44,0,0,,12,,,71,127
49659,note_off,20,0,0,,1,,,73,127
49703,note_on,44,0,0,,10,,,69,127
49723,note_off,20,0,0,,12,,,71,127
49767,note_on,44,0,0,,7,,,67,127
49787,note_off,20,0,0,,10,,,69,127
49831,note_on,44,0,0,,5,,,65,127
49851,note_off,20,0,0,,7,,,67,127
49895,note_on,44,0,0,,4,,,64,127
49915,note_off,20,0,0,,5,,,65,127
49958,note_off,43,0,0,,4,,,64,127
49958,note_off,0,0,0,,10,,,45,127
49959,note_on,1,0,0,,5,,,65,127
49959,note_on,0,0,0,,2,,,74,127
49959,note_on,0,0,0,,2,,,62,127
50086,note_off,127,0,0,,2,,,62,127
50087,note_on,1,0,0,,2,,,50,127
50214,note_off,127,0,0,,2,,,50,127
50214,note_off,0,0,0,,2,,,74,127
50214,note_off,0,0,0,,5,,,65,127
50215,note_on,1,0,0,,4,,,64,127
50215,note_on,0,0,0,,1,,,73,127
50215,note_on,0,0,0,,10,,,57,127
50342,note_off,127,0,0,,10,,,57,127
50343,note_on,1,0,0,,10,,,45,127
50470,note_off,127,0,0,,10,,,45,127
50470,note_off,0,0,0,,1,,,73,127
50470,note_off,0,0,0,,4,,,64,127
50471,note_on,1,0,0,,5,,,65,127
50471,note_on,0,0,0,,2,,,74,127
50471,note_on,0,0,0,,2,,,50,127
50598,note_off,127,0,0,,2,,,50,127
50599,note_on,1,0,0,,2,,,38,127
50726,note_off,127,0,0,,2,,,38,127
50726,note_off,0,0,0,,2,,,74,127
50726,note_off,0,0,0,,5,,,65,127
50727,note_on,1,0,0,,4,,,76,127
50727,note_on,0,0,0,,10,,,45,127
50791,note_on,64,0,0,,2,,,74,127
50811,note_off,20,0,0,,4,,,76,127
50855,note_on,44,0,0,,1,,,73,127
50875,note_off,20,0,0,,2,,,74,127
50919,note_on,44,0,0,,12,,,71,127
50939,note_off,20,0,0,,1,,,73,127
50982,note_off,43,0,0,,10,,,45,127
50983,note_on,1,0,0,,10,,,69,127
50983,note_on,0,0,0,,10,,,45,127
51003,note_off,20,0,0,,12,,,71,127
51047,note_on,44,0,0,,7,,,67,127
51067,note_off,20,0,0,,10,,,69,127
51111,note_on,44,0,0,,5,,,65,127
51131,note_off,20,0,0,,7,,,67,127
51175,note_on,44,0,0,,4,,,64,127
51195,note_off,20,0,0,,5,,,65,127
51238,note_off,43,0,0,,10,,,45,127
51239,note_on,1,0,0,,2,,,62,127
51239,note_on,0,0,0,,10,,,57,127
51259,note_off,20,0,0,,4,,,64,127
51366,note_off,107,0,0,,2,,,62,127
51367,note_on,1,0,0,,1,,,61,127
51494,note_off,127,0,0,,1,,,61,127
51494,note_off,0,0,0,,10,,,57,127
51495,note_on,1,0,0,,5,,,65,127
51495,note_on,0,0,0,,11,,,46,127
51495,note_on,0,0,0,,11,,,58,127
51623,note_on,128,0,0,,10,,,69,127
51748,note_off,125,0,0,,5,,,65,127
51749,note_off,1,0,0,,10,,,69,127
51749,note_off,0,0,0,,11,,,58,127
51749,note_off,0,0,0,,11,,,46,127
51750,note_on,1,0,0,,2,,,74,127
51750,note_on,0,0,0,,7,,,43,127
51750,note_on,0,0,0,,7,,,55,127
51878,note_on,128,0,0,,5,,,65,127
52003,note_off,125,0,0,,2,,,74,127
52004,note_off,1,0,0,,5,,,65,127
52004,note_off,0,0,0,,7,,,55,127
52004,note_off,0,0,0,,7,,,43,127
52005,note_on,1,0,0,,4,,,64,127
52005,note_on,0,0,0,,10,,,45,127
52005,note_on,0,0,0,,10,,,57,127
52133,note_on,128,0,0,,4,,,76,127
52133,note_on,0,0,0,,1,,,73,127
52197,note_off,64,0,0,,4,,,64,127
52260,note_off,63,0,0,,1,,,73,127
52260,note_off,0,0,0,,4,,,76,127
52260,note_off,0,0,0,,10,,,57,127
52260,note_off,0,0,0,,10,,,45,127
52261,note_on,1,0,0,,5,,,65,127
52261,note_on,0,0,0,,2,,,38,127
52261,note_on,0,0,0,,2,,,50,127
52389,note_on,128,0,0,,2,,,74,127
52389,note_on,0,0,0,,5,,,77,127
52453,note_off,64,0,0,,5,,,65,127
52516,note_off,63,0,0,,5,,,77,127
52516,note_off,0,0,0,,2,,,74,127
52516,note_off,0,0,0,,2,,,50,127
52516,note_off,0,0,0,,2,,,38,127
52517,note_on,1,0,0,,7,,,67,127
52517,note_on,0,0,0,,4,,,40,127
52517,note_on,0,0,0,,4,,,52,127
52645,note_on,128,0,0,,4,,,76,127
52645,note_on,0,0,0,,7,,,79,127
52709,note_off,64,0,0,,7,,,67,127
52772,note_off,63,0,0,,7,,,79,127
52772,note_off,0,0,0,,4,,,76,127
52772,note_off,0,0,0,,4,,,52,127
52772,note_off,0,0,0,,4,,,40,127
52773,note_on,1,0,0,,10,,,69,127
52773,note_on,0,0,0,,5,,,41,127
52773,note_on,0,0,0,,5,,,53,127
52901,note_on,128,0,0,,10,,,81,127
52901,note_on,0,0,0,,5,,,77,127
52965,note_off,64,0,0,,10,,,69,127
53028,note_off,63,0,0,,5,,,77,127
53028,note_off,0,0,0,,10,,,81,127
53028,note_off,0,0,0,,5,,,53,127
53028,note_off,0,0,0,,5,,,41,127
53029,note_on,1,0,0,,11,,,70,127
53029,note_on,0,0,0,,7,,,43,127
53029,note_on,0,0,0,,7,,,55,127
53157,note_on,128,0,0,,7,,,79,127
53157,note_on,0,0,0,,11,,,82,127
53221,note_off,64,0,0,,11,,,70,127
53284,note_off,63,0,0,,11,,,82,127
53284,note_off,0,0,0,,7,,,79,127
53284,note_off,0,0,0,,7,,,55,127
53284,note_off,0,0,0,,7,,,43,127
53285,note_on,1,0,0,,10,,,69,127
53285,note_on,0,0,0,,1,,,73,127
53285,note_on,0,0,0,,10,,,45,127
53285,note_on,0,0,0,,10,,,57,127
53412,note_off,127,0,0,,1,,,73,127
53413,note_on,1,0,0,,10,,,81,127
53477,note_off,64,0,0,,10,,,69,127
53540,note_off,63,0,0,,10,,,57,127
53540,note_off,0,0,0,,10,,,45,127
53541,note_on,1,0,0,,11,,,70,127
53541,note_on,0,0,0,,11,,,46,127
53541,note_on,0,0,0,,11,,,58,127
53605,note_off,64,0,0,,10,,,81,127
53669,note_on,64,0,0,,7,,,79,127
53733,note_off,64,0,0,,11,,,70,127
53796,note_off,63,0,0,,7,,,79,127
53796,note_off,0,0,0,,11,,,58,127
53796,note_off,0,0,0,,11,,,46,127
53797,note_on,1,0,0,,10,,,69,127
53797,note_on,0,0,0,,10,,,45,127
53797,note_on,0,0,0,,10,,,57,127
53861,note_on,64,0,0,,10,,,81,127
53881,note_off,20,0,0,,10,,,69,127
53925,note_on,44,0,0,,7,,,79,127
53945,note_off,20,0,0,,10,,,81,127
53989,note_on,44,0,0,,5,,,77,127
54009,note_off,20,0,0,,7,,,79,127
54052,note_off,43,0,0,,10,,,57,127
54052,note_off,0,0,0,,10,,,45,127
54053,note_on,1,0,0,,4,,,76,127
54053,note_on,0,0,0,,10,,,45,127
54073,note_off,20,0,0,,5,,,77,127
54117,note_on,44,0,0,,2,,,74,127
54137,note_off,20,0,0,,4,,,76,127
54181,note_on,44,0,0,,1,,,73,127
54201,note_off,20,0,0,,2,,,74,127
54245,note_on,44,0,0,,12,,,71,127
54265,note_off,20,0,0,,1,,,73,127
54308,note_off,43,0,0,,10,,,45,127
54309,note_on,1,0,0,,10,,,69,127
54309,note_on,0,0,0,,10,,,45,127
54329,note_off,20,0,0,,12,,,71,127
54373,note_on,44,0,0,,7,,,67,127
54393,note_off,20,0,0,,10,,,69,127
54437,note_on,44,0,0,,5,,,65,127
54457,note_off,20,0,0,,7,,,67,127
54501,note_on,44,0,0,,4,,,64,127
54521,note_off,20,0,0,,5,,,65,127
54564,note_off,43,0,0,,4,,,64,127
54564,note_off,0,0,0,,10,,,45,127
54565,note_on,1,0,0,,5,,,65,127
54565,note_on,0,0,0,,2,,,74,127
54565,note_on,0,0,0,,2,,,62,127
54692,note_off,127,0,0,,2,,,62,127
54693,note_on,1,0,0,,2,,,50,127
54820,note_off,127,0,0,,2,,,50,127
54820,note_off,0,0,0,,2,,,74,127
54820,note_off,0,0,0,,5,,,65,127
54821,note_on,1,0,0,,1,,,73,127
54821,note_on,0,0,0,,4,,,64,127
54821,note_on,0,0,0,,10,,,57,127
54948,note_off,127,0,0,,10,,,57,127
54949,note_on,1,0,0,,10,,,45,127
55076,note_off,127,0,0,,10,,,45,127
55076,note_off,0,0,0,,4,,,64,127
55076,note_off,0,0,0,,1,,,73,127
55077,note_on,1,0,0,,5,,,65,127
55077,note_on,0,0,0,,2,,,74,127
55077,note_on,0,0,0,,2,,,50,127
55204,note_off,127,0,0,,2,,,50,127
55205,note_on,1,0,0,,2,,,38,127
55332,note_off,127,0,0,,2,,,38,127
55332,note_off,0,0,0,,2,,,74,127
55332,note_off,0,0,0,,5,,,65,127
55333,note_on,1,0,0,,4,,,76,127
55333,note_on,0,0,0,,10,,,45,127
55397,note_on,64,0,0,,2,,,74,127
55417,note_off,20,0,0,,4,,,76,127
55461,note_on,44,0,0,,1,,,73,127
55481,note_off,20,0,0,,2,,,74,127
55525,note_on,44,0,0,,12,,,71,127
55545,note_off,20,0,0,,1,,,73,127
55588,note_off,43,0,0,,10,,,45,127
55589,note_on,1,0,0,,10,,,69,127
55589,note_on,0,0,0,,10,,,45,127
55609,note_off,20,0,0,,12,,,71,127
55653,note_on,44,0,0,,7,,,67,127
55673,note_off,20,0,0,,10,,,69,127
55717,note_on,44,0,0,,5,,,65,127
55737,note_off,20,0,0,,7,,,67,127
55781,note_on,44,0,0,,4,,,64,127
55801,note_off,20,0,0,,5,,,65,127
55844,note_off,43,0,0,,10,,,45,127
55845,note_on,1,0,0,,2,,,62,127
55845,note_on,0,0,0,,10,,,57,127
55865,note_off,20,0,0,,4,,,64,127
55972,note_off,107,0,0,,2,,,62,127
55973,note_on,1,0,0,,1,,,61,127
56100,note_off,127,0,0,,1,,,61,127
56100,note_off,0,0,0,,10,,,57,127
56101,note_on,1,0,0,,5,,,65,127
56101,note_on,0,0,0,,11,,,58,127
56101,note_on,0,0,0,,11,,,46,127
56229,note_on,128,0,0,,10,,,69,127
56356,note_off,127,0,0,,10,,,69,127
56356,note_off,0,0,0,,11,,,46,127
56356,note_off,0,0,0,,11,,,58,127
56357,note_on,1,0,0,,2,,,74,127
56357,note_on,0,0,0,,7,,,55,127
56357,note_on,0,0,0,,7,,,43,127
56482,note_off,125,0,0,,5,,,65,127
56485,note_on,3,0,0,,5,,,65,127
56612,note_off,127,0,0,,5,,,65,127
56612,note_off,0,0,0,,7,,,43,127
56612,note_off,0,0,0,,7,,,55,127
56613,note_on,1,0,0,,4,,,64,127
56613,note_on,0,0,0,,10,,,57,127
56613,note_on,0,0,0,,10,,,45,127
56738,note_off,125,0,0,,2,,,74,127
56741,note_on,3,0,0,,1,,,73,127
56866,note_off,125,0,0,,4,,,64,127
56867,note_off,1,0,0,,1,,,73,127
56867,note_off,0,0,0,,10,,,45,127
56867,note_off,0,0,0,,10,,,57,127
56882,note_on,15,0,0,,2,,,50,127
56882,note_on,0,0,0,,2,,,38,127
56882,note_on,0,0,0,,4,,,64,127
56922,note_on,40,0,0,,2,,,62,127
56935,note_off,13,0,0,,4,,,64,127
56962,note_on,27,0,0,,4,,,64,127
56975,note_off,13,0,0,,2,,,62,127
57002,note_on,27,0,0,,2,,,62,127
57015,note_off,13,0,0,,4,,,64,127
58602,note_off,1587,0,0,,2,,,62,127
58615,note_off,13,0,0,,2,,,38,127
58615,note_off,0,0,0,,2,,,50,127
64512,end_of_track,5897,1,0,,,,,,
