tick,type,time,meta,track,program,channel,pitch,tempo,note,velocity
0,copyright,0,1,0,,,,,,
0,program_change,0,0,0,6,0,,,,
0,pitchwheel,0,0,0,,0,0,,,
0,program_change,0,0,0,6,1,,,,
0,pitchwheel,0,0,0,,1,-590,,,
0,program_change,0,0,0,6,2,,,,
0,pitchwheel,0,0,0,,2,-272,,,
0,program_change,0,0,0,6,3,,,,
0,pitchwheel,0,0,0,,3,-353,,,
0,program_change,0,0,0,6,4,,,,
0,pitchwheel,0,0,0,,4,-560,,,
0,program_change,0,0,0,6,5,,,,
0,pitchwheel,0,0,0,,5,-80,,,
0,program_change,0,0,0,6,6,,,,
0,pitchwheel,0,0,0,,6,-625,,,
0,program_change,0,0,0,6,7,,,,
0,pitchwheel,0,0,0,,7,-130,,,
0,program_change,0,0,0,6,8,,,,
0,pitchwheel,0,0,0,,8,-512,,,
0,program_change,0,0,0,6,10,,,,
0,pitchwheel,0,0,0,,10,-464,,,
0,program_change,0,0,0,6,11,,,,
0,pitchwheel,0,0,0,,11,-208,,,
0,program_change,0,0,0,6,12,,,,
0,pitchwheel,0,0,0,,12,-553,,,
0,set_tempo,0,1,0,,,,500000,,
128,note_on,128,0,0,,0,,,60,127
128,note_on,0,0,0,,3,,,63,127
128,note_on,0,0,0,,7,,,67,127
639,note_off,511,0,0,,7,,,67,127
639,note_off,0,0,0,,3,,,63,127
639,note_off,0,0,0,,0,,,60,127
640,note_on,1,0,0,,5,,,65,127
640,note_on,0,0,0,,2,,,62,127
640,note_on,0,0,0,,0,,,72,127
703,note_off,63,0,0,,0,,,72,127
704,note_on,1,0,0,,12,,,71,127
767,note_off,63,0,0,,12,,,71,127
768,note_on,1,0,0,,0,,,72,127
831,note_off,63,0,0,,0,,,72,127
832,note_on,1,0,0,,12,,,71,127
895,note_off,63,0,0,,12,,,71,127
896,note_on,1,0,0,,0,,,72,127
959,note_off,63,0,0,,0,,,72,127
960,note_on,1,0,0,,12,,,71,127
1023,note_off,63,0,0,,12,,,71,127
1024,note_on,1,0,0,,10,,,69,127
1087,note_off,63,0,0,,10,,,69,127
1088,note_on,1,0,0,,12,,,71,127
1151,note_off,63,0,0,,12,,,71,127
1151,note_off,0,0,0,,2,,,62,127
1151,note_off,0,0,0,,5,,,65,127
1152,note_on,1,0,0,,7,,,67,127
1152,note_on,0,0,0,,3,,,63,127
1152,note_on,0,0,0,,0,,,72,127
1407,note_off,255,0,0,,3,,,63,127
1407,note_off,0,0,0,,7,,,67,127
1408,note_on,1,0,0,,2,,,62,127
1408,note_on,0,0,0,,5,,,65,127
1663,note_off,255,0,0,,5,,,65,127
1663,note_off,0,0,0,,2,,,62,127
1664,note_on,1,0,0,,3,,,63,127
1664,note_on,0,0,0,,0,,,60,127
1872,note_off,208,0,0,,0,,,72,127
1919,note_off,47,0,0,,0,,,60,127
1919,note_off,0,0,0,,3,,,63,127
1920,note_on,1,0,0,,12,,,59,127
1920,note_on,0,0,0,,2,,,62,127
1920,note_on,0,0,0,,2,,,74,127
2175,note_off,255,0,0,,2,,,74,127
2175,note_off,0,0,0,,2,,,62,127
2175,note_off,0,0,0,,12,,,59,127
2176,note_on,1,0,0,,3,,,63,127
2176,note_on,0,0,0,,0,,,60,127
2176,note_on,0,0,0,,7,,,67,127
2176,note_on,0,0,0,,3,,,75,127
2431,note_off,255,0,0,,3,,,75,127
2431,note_off,0,0,0,,0,,,60,127
2431,note_off,0,0,0,,3,,,63,127
2432,note_on,1,0,0,,2,,,62,127
2432,note_on,0,0,0,,5,,,77,127
2687,note_off,255,0,0,,5,,,77,127
2687,note_off,0,0,0,,2,,,62,127
2688,note_on,1,0,0,,3,,,63,127
2688,note_on,0,0,0,,7,,,79,127
2943,note_off,255,0,0,,7,,,79,127
2943,note_off,0,0,0,,3,,,63,127
2943,note_off,0,0,0,,7,,,67,127
2944,note_on,1,0,0,,5,,,65,127
2944,note_on,0,0,0,,0,,,72,127
3199,note_off,255,0,0,,0,,,72,127
3199,note_off,0,0,0,,5,,,65,127
3200,note_on,1,0,0,,7,,,55,127
3200,note_on,0,0,0,,12,,,71,127
3200,note_on,0,0,0,,2,,,62,127
3455,note_off,255,0,0,,12,,,71,127
3455,note_off,0,0,0,,7,,,55,127
3456,note_on,1,0,0,,10,,,57,127
3456,note_on,0,0,0,,10,,,69,127
3711,note_off,255,0,0,,10,,,69,127
3711,note_off,0,0,0,,10,,,57,127
3712,note_on,1,0,0,,12,,,59,127
3712,note_on,0,0,0,,7,,,67,127
3967,note_off,255,0,0,,7,,,67,127
3967,note_off,0,0,0,,12,,,59,127
3967,note_off,0,0,0,,2,,,62,127
3968,note_on,1,0,0,,7,,,55,127
3968,note_on,0,0,0,,5,,,65,127
4223,note_off,255,0,0,,5,,,65,127
4223,note_off,0,0,0,,7,,,55,127
4224,note_on,1,0,0,,0,,,48,127
4224,note_on,0,0,0,,0,,,60,127
4224,note_on,0,0,0,,3,,,63,127
4479,note_off,255,0,0,,3,,,63,127
4479,note_off,0,0,0,,0,,,48,127
4480,note_on,1,0,0,,2,,,50,127
4480,note_on,0,0,0,,5,,,65,127
4735,note_off,255,0,0,,5,,,65,127
4735,note_off,0,0,0,,2,,,50,127
4736,note_on,1,0,0,,3,,,51,127
4736,note_on,0,0,0,,7,,,67,127
4991,note_off,255,0,0,,7,,,67,127
4991,note_off,0,0,0,,3,,,51,127
4991,note_off,0,0,0,,0,,,60,127
4992,note_on,1,0,0,,5,,,53,127
4992,note_on,0,0,0,,0,,,60,127
5247,note_off,255,0,0,,0,,,60,127
5247,note_off,0,0,0,,5,,,53,127
5248,note_on,1,0,0,,7,,,55,127
5248,note_on,0,0,0,,7,,,43,127
5248,note_on,0,0,0,,12,,,59,127
5503,note_off,255,0,0,,12,,,59,127
5504,note_on,1,0,0,,10,,,57,127
5759,note_off,255,0,0,,10,,,57,127
5759,note_off,0,0,0,,7,,,55,127
5760,note_on,1,0,0,,7,,,55,127
6015,note_off,255,0,0,,7,,,43,127
6016,note_on,1,0,0,,12,,,59,127
6016,note_on,0,0,0,,2,,,62,127
6016,note_on,0,0,0,,2,,,74,127
6144,note_off,128,0,0,,7,,,55,127
6271,note_off,127,0,0,,2,,,74,127
6271,note_off,0,0,0,,2,,,62,127
6271,note_off,0,0,0,,12,,,59,127
6272,note_on,1,0,0,,0,,,60,127
6272,note_on,0,0,0,,3,,,63,127
6272,note_on,0,0,0,,3,,,75,127
6272,note_on,0,0,0,,7,,,67,127
6527,note_off,255,0,0,,3,,,75,127
6527,note_off,0,0,0,,3,,,63,127
6527,note_off,0,0,0,,0,,,60,127
6528,note_on,1,0,0,,2,,,62,127
6528,note_on,0,0,0,,5,,,77,127
6783,note_off,255,0,0,,5,,,77,127
6783,note_off,0,0,0,,2,,,62,127
6784,note_on,1,0,0,,3,,,63,127
6784,note_on,0,0,0,,7,,,79,127
7039,note_off,255,0,0,,7,,,79,127
7039,note_off,0,0,0,,3,,,63,127
7039,note_off,0,0,0,,7,,,67,127
7040,note_on,1,0,0,,5,,,65,127
7040,note_on,0,0,0,,0,,,72,127
7295,note_off,255,0,0,,5,,,65,127
7296,note_on,1,0,0,,7,,,55,127
7296,note_on,0,0,0,,7,,,67,127
7360,note_off,64,0,0,,0,,,72,127
7360,note_on,0,0,0,,12,,,71,127
7423,note_off,63,0,0,,12,,,71,127
7424,note_on,1,0,0,,0,,,72,127
7487,note_off,63,0,0,,0,,,72,127
7488,note_on,1,0,0,,12,,,71,127
7551,note_off,63,0,0,,12,,,71,127
7552,note_on,1,0,0,,10,,,69,127
7807,note_off,255,0,0,,10,,,69,127
7807,note_off,0,0,0,,7,,,67,127
7808,note_on,1,0,0,,7,,,67,127
8064,note_on,256,0,0,,2,,,74,127
8319,note_off,255,0,0,,2,,,74,127
8319,note_off,0,0,0,,7,,,55,127
8320,note_on,1,0,0,,7,,,79,127
8320,note_on,0,0,0,,3,,,75,127
8568,note_off,248,0,0,,7,,,67,127
8576,note_on,8,0,0,,7,,,67,127
8704,note_off,128,0,0,,3,,,75,127
8831,note_off,127,0,0,,7,,,79,127
8832,note_on,1,0,0,,5,,,77,127
8832,note_on,0,0,0,,2,,,74,127
9083,note_off,251,0,0,,7,,,67,127
9088,note_on,5,0,0,,7,,,67,127
9216,note_off,128,0,0,,2,,,74,127
9341,note_off,125,0,0,,7,,,67,127
9342,note_off,1,0,0,,5,,,77,127
9343,note_on,1,0,0,,3,,,75,127
9343,note_on,0,0,0,,0,,,72,127
9599,note_on,256,0,0,,12,,,71,127
9663,note_off,64,0,0,,0,,,72,127
9726,note_off,63,0,0,,12,,,71,127
9727,note_on,1,0,0,,10,,,69,127
9854,note_off,127,0,0,,10,,,69,127
9854,note_off,0,0,0,,3,,,75,127
9855,note_on,1,0,0,,2,,,74,127
9855,note_on,0,0,0,,12,,,71,127
9983,note_on,128,0,0,,7,,,67,127
10108,note_off,125,0,0,,12,,,71,127
10109,note_off,1,0,0,,7,,,67,127
10110,note_on,1,0,0,,12,,,71,127
10237,note_off,127,0,0,,2,,,74,127
10238,note_on,1,0,0,,2,,,74,127
10363,note_off,125,0,0,,12,,,71,127
10364,note_off,1,0,0,,2,,,74,127
10365,note_on,1,0,0,,7,,,79,127
10365,note_on,0,0,0,,3,,,75,127
10621,note_on,256,0,0,,7,,,67,127
10738,note_off,117,0,0,,3,,,75,127
10875,note_off,137,0,0,,7,,,79,127
10876,note_on,1,0,0,,5,,,77,127
10876,note_on,0,0,0,,2,,,74,127
11127,note_off,251,0,0,,7,,,67,127
11132,note_on,5,0,0,,7,,,67,127
11260,note_off,128,0,0,,2,,,74,127
11385,note_off,125,0,0,,7,,,67,127
11386,note_off,1,0,0,,5,,,77,127
11387,note_on,1,0,0,,3,,,75,127
11387,note_on,0,0,0,,0,,,72,127
11643,note_on,256,0,0,,12,,,71,127
11707,note_off,64,0,0,,0,,,72,127
11770,note_off,63,0,0,,12,,,71,127
11771,note_on,1,0,0,,10,,,69,127
11898,note_off,127,0,0,,10,,,69,127
11898,note_off,0,0,0,,3,,,75,127
11899,note_on,1,0,0,,2,,,74,127
11899,note_on,0,0,0,,12,,,71,127
12027,note_on,128,0,0,,7,,,67,127
12152,note_off,125,0,0,,12,,,71,127
12153,note_off,1,0,0,,7,,,67,127
12154,note_on,1,0,0,,12,,,71,127
12281,note_off,127,0,0,,2,,,74,127
12282,note_on,1,0,0,,2,,,74,127
12407,note_off,125,0,0,,12,,,71,127
12408,note_off,1,0,0,,2,,,74,127
12409,note_on,1,0,0,,8,,,80,127
12409,note_on,0,0,0,,5,,,77,127
12665,note_on,256,0,0,,7,,,67,127
12793,note_off,128,0,0,,5,,,77,127
12920,note_off,127,0,0,,8,,,80,127
12921,note_on,1,0,0,,7,,,79,127
12921,note_on,0,0,0,,3,,,75,127
13172,note_off,251,0,0,,7,,,67,127
13177,note_on,5,0,0,,7,,,67,127
13305,note_off,128,0,0,,3,,,75,127
13430,note_off,125,0,0,,7,,,67,127
13431,note_off,1,0,0,,7,,,79,127
13432,note_on,1,0,0,,5,,,77,127
13432,note_on,0,0,0,,2,,,74,127
13688,note_on,256,0,0,,0,,,72,127
13752,note_off,64,0,0,,2,,,74,127
13815,note_off,63,0,0,,0,,,72,127
13816,note_on,1,0,0,,12,,,71,127
13943,note_off,127,0,0,,12,,,71,127
13943,note_off,0,0,0,,5,,,77,127
13944,note_on,1,0,0,,3,,,75,127
13944,note_on,0,0,0,,0,,,72,127
14072,note_on,128,0,0,,7,,,67,127
14197,note_off,125,0,0,,0,,,72,127
14198,note_off,1,0,0,,7,,,67,127
14199,note_on,1,0,0,,0,,,72,127
14326,note_off,127,0,0,,3,,,75,127
14327,note_on,1,0,0,,3,,,75,127
14452,note_off,125,0,0,,0,,,72,127
14453,note_off,1,0,0,,3,,,75,127
14454,note_on,1,0,0,,8,,,80,127
14454,note_on,0,0,0,,5,,,77,127
14710,note_on,256,0,0,,7,,,67,127
14838,note_off,128,0,0,,5,,,77,127
14965,note_off,127,0,0,,8,,,80,127
14966,note_on,1,0,0,,7,,,79,127
14966,note_on,0,0,0,,3,,,75,127
15217,note_off,251,0,0,,7,,,67,127
15222,note_on,5,0,0,,7,,,67,127
15350,note_off,128,0,0,,3,,,75,127
15475,note_off,125,0,0,,7,,,67,127
15476,note_off,1,0,0,,7,,,79,127
15477,note_on,1,0,0,,5,,,77,127
15477,note_on,0,0,0,,2,,,74,127
15733,note_on,256,0,0,,0,,,72,127
15797,note_off,64,0,0,,2,,,74,127
15860,note_off,63,0,0,,0,,,72,127
15861,note_on,1,0,0,,12,,,71,127
15988,note_off,127,0,0,,12,,,71,127
15988,note_off,0,0,0,,5,,,77,127
15989,note_on,1,0,0,,3,,,75,127
15989,note_on,0,0,0,,0,,,72,127
16116,note_off,127,0,0,,0,,,72,127
16117,note_on,1,0,0,,12,,,71,127
16244,note_off,127,0,0,,12,,,71,127
16245,note_on,1,0,0,,0,,,72,127
16372,note_off,127,0,0,,0,,,72,127
16373,note_on,1,0,0,,2,,,74,127
16500,note_off,127,0,0,,2,,,74,127
16500,note_off,0,0,0,,3,,,75,127
16501,note_on,1,0,0,,0,,,84,127
16501,note_on,0,0,0,,3,,,75,127
16628,note_off,127,0,0,,3,,,75,127
16629,note_on,1,0,0,,2,,,74,127
16756,note_off,127,0,0,,2,,,74,127
16756,note_off,0,0,0,,0,,,84,127
16757,note_on,1,0,0,,11,,,82,127
16757,note_on,0,0,0,,0,,,72,127
16884,note_off,127,0,0,,0,,,72,127
16885,note_on,1,0,0,,11,,,70,127
17012,note_off,127,0,0,,11,,,70,127
17012,note_off,0,0,0,,11,,,82,127
17013,note_on,1,0,0,,10,,,81,127
17013,note_on,0,0,0,,0,,,72,127
17140,note_off,127,0,0,,0,,,72,127
17141,note_on,1,0,0,,11,,,70,127
17268,note_off,127,0,0,,11,,,70,127
17268,note_off,0,0,0,,10,,,81,127
17269,note_on,1,0,0,,7,,,79,127
17269,note_on,0,0,0,,10,,,69,127
17396,note_off,127,0,0,,10,,,69,127
17397,note_on,1,0,0,,7,,,67,127
17524,note_off,127,0,0,,7,,,67,127
17524,note_off,0,0,0,,7,,,79,127
17525,note_on,1,0,0,,6,,,78,127
17525,note_on,0,0,0,,10,,,69,127
17652,note_off,127,0,0,,10,,,69,127
17653,note_on,1,0,0,,7,,,67,127
17780,note_off,127,0,0,,7,,,67,127
17780,note_off,0,0,0,,6,,,78,127
17781,note_on,1,0,0,,4,,,76,127
17781,note_on,0,0,0,,6,,,66,127
17908,note_off,127,0,0,,6,,,66,127
17909,note_on,1,0,0,,4,,,64,127
18036,note_off,127,0,0,,4,,,64,127
18036,note_off,0,0,0,,4,,,76,127
18037,note_on,1,0,0,,2,,,74,127
18037,note_on,0,0,0,,6,,,66,127
18164,note_off,127,0,0,,6,,,66,127
18165,note_on,1,0,0,,2,,,62,127
18292,note_off,127,0,0,,2,,,62,127
18292,note_off,0,0,0,,2,,,74,127
18293,note_on,1,0,0,,0,,,72,127
18293,note_on,0,0,0,,4,,,64,127
18420,note_off,127,0,0,,4,,,64,127
18421,note_on,1,0,0,,6,,,66,127
18548,note_off,127,0,0,,6,,,66,127
18548,note_off,0,0,0,,0,,,72,127
18549,note_on,1,0,0,,11,,,70,127
18549,note_on,0,0,0,,7,,,67,127
18676,note_off,127,0,0,,7,,,67,127
18677,note_on,1,0,0,,2,,,62,127
18804,note_off,127,0,0,,2,,,62,127
18805,note_on,1,0,0,,7,,,67,127
18932,note_off,127,0,0,,7,,,67,127
18932,note_off,0,0,0,,11,,,70,127
18933,note_on,1,0,0,,11,,,70,127
19061,note_on,128,0,0,,2,,,74,127
19316,note_off,255,0,0,,2,,,74,127
19316,note_off,0,0,0,,11,,,70,127
19317,note_on,1,0,0,,0,,,72,127
19317,note_on,0,0,0,,0,,,60,127
19572,note_off,255,0,0,,0,,,60,127
19573,note_on,1,0,0,,2,,,62,127
19637,note_off,64,0,0,,0,,,72,127
19637,note_on,0,0,0,,11,,,70,127
19700,note_off,63,0,0,,11,,,70,127
19701,note_on,1,0,0,,0,,,72,127
19764,note_off,63,0,0,,0,,,72,127
19765,note_on,1,0,0,,11,,,70,127
19828,note_off,63,0,0,,11,,,70,127
19829,note_on,1,0,0,,10,,,69,127
19956,note_off,127,0,0,,10,,,69,127
19957,note_on,1,0,0,,7,,,67,127
20084,note_off,127,0,0,,7,,,67,127
20084,note_off,0,0,0,,2,,,62,127
20085,note_on,1,0,0,,0,,,60,127
20085,note_on,0,0,0,,11,,,70,127
20148,note_off,63,0,0,,11,,,70,127
20149,note_on,1,0,0,,10,,,69,127
20212,note_off,63,0,0,,10,,,69,127
20213,note_on,1,0,0,,11,,,70,127
20276,note_off,63,0,0,,11,,,70,127
20277,note_on,1,0,0,,10,,,69,127
20340,note_off,63,0,0,,10,,,69,127
20341,note_on,1,0,0,,7,,,67,127
20468,note_off,127,0,0,,7,,,67,127
20469,note_on,1,0,0,,6,,,66,127
20596,note_off,127,0,0,,6,,,66,127
20596,note_off,0,0,0,,0,,,60,127
20597,note_on,1,0,0,,11,,,58,127
20597,note_on,0,0,0,,7,,,67,127
20725,note_on,128,0,0,,2,,,62,127
20850,note_off,125,0,0,,7,,,67,127
20851,note_off,1,0,0,,2,,,62,127
20852,note_on,1,0,0,,7,,,67,127
20979,note_off,127,0,0,,7,,,67,127
20980,note_on,1,0,0,,11,,,70,127
21107,note_off,127,0,0,,11,,,70,127
21108,note_on,1,0,0,,2,,,74,127
21363,note_off,255,0,0,,2,,,74,127
21363,note_off,0,0,0,,11,,,58,127
21364,note_on,1,0,0,,3,,,63,127
21364,note_on,0,0,0,,0,,,72,127
21619,note_off,255,0,0,,3,,,63,127
21620,note_on,1,0,0,,2,,,62,127
21684,note_off,64,0,0,,0,,,72,127
21684,note_on,0,0,0,,11,,,70,127
21747,note_off,63,0,0,,11,,,70,127
21748,note_on,1,0,0,,0,,,72,127
21811,note_off,63,0,0,,0,,,72,127
21812,note_on,1,0,0,,11,,,70,127
21875,note_off,63,0,0,,11,,,70,127
21876,note_on,1,0,0,,10,,,69,127
22003,note_off,127,0,0,,10,,,69,127
22004,note_on,1,0,0,,7,,,67,127
22131,note_off,127,0,0,,7,,,67,127
22131,note_off,0,0,0,,2,,,62,127
22132,note_on,1,0,0,,0,,,60,127
22132,note_on,0,0,0,,11,,,70,127
22195,note_off,63,0,0,,11,,,70,127
22196,note_on,1,0,0,,10,,,69,127
22259,note_off,63,0,0,,10,,,69,127
22260,note_on,1,0,0,,11,,,70,127
22323,note_off,63,0,0,,11,,,70,127
22324,note_on,1,0,0,,10,,,69,127
22387,note_off,63,0,0,,10,,,69,127
22388,note_on,1,0,0,,7,,,67,127
22515,note_off,127,0,0,,7,,,67,127
22516,note_on,1,0,0,,6,,,66,127
22643,note_off,127,0,0,,6,,,66,127
22643,note_off,0,0,0,,0,,,60,127
22644,note_on,1,0,0,,11,,,58,127
22644,note_on,0,0,0,,2,,,74,127
22772,note_on,128,0,0,,7,,,67,127
22899,note_off,127,0,0,,7,,,67,127
22900,note_on,1,0,0,,11,,,70,127
23017,note_off,117,0,0,,2,,,74,127
23026,note_off,9,0,0,,11,,,70,127
23027,note_on,1,0,0,,2,,,74,127
23154,note_off,127,0,0,,2,,,74,127
23155,note_on,1,0,0,,7,,,79,127
23410,note_off,255,0,0,,7,,,79,127
23410,note_off,0,0,0,,11,,,58,127
23411,note_on,1,0,0,,0,,,48,127
23411,note_on,0,0,0,,0,,,72,127
23411,note_on,0,0,0,,3,,,63,127
23666,note_off,255,0,0,,3,,,63,127
23666,note_off,0,0,0,,0,,,48,127
23667,note_on,1,0,0,,2,,,50,127
23667,note_on,0,0,0,,2,,,62,127
23731,note_off,64,0,0,,0,,,72,127
23731,note_on,0,0,0,,11,,,70,127
23794,note_off,63,0,0,,11,,,70,127
23795,note_on,1,0,0,,0,,,72,127
23858,note_off,63,0,0,,0,,,72,127
23859,note_on,1,0,0,,11,,,70,127
23922,note_off,63,0,0,,11,,,70,127
23923,note_on,1,0,0,,10,,,69,127
24050,note_off,127,0,0,,10,,,69,127
24051,note_on,1,0,0,,7,,,67,127
24178,note_off,127,0,0,,7,,,67,127
24178,note_off,0,0,0,,2,,,62,127
24179,note_on,1,0,0,,2,,,38,127
24179,note_on,0,0,0,,11,,,70,127
24242,note_off,63,0,0,,11,,,70,127
24243,note_on,1,0,0,,10,,,69,127
24306,note_off,63,0,0,,10,,,69,127
24307,note_on,1,0,0,,11,,,70,127
24370,note_off,63,0,0,,11,,,70,127
24371,note_on,1,0,0,,10,,,69,127
24434,note_off,63,0,0,,10,,,69,127
24435,note_on,1,0,0,,7,,,67,127
24562,note_off,127,0,0,,7,,,67,127
24563,note_on,1,0,0,,6,,,66,127
24690,note_off,127,0,0,,6,,,66,127
24690,note_off,0,0,0,,2,,,38,127
24690,note_off,0,0,0,,2,,,50,127
24691,note_on,1,0,0,,7,,,43,127
24691,note_on,0,0,0,,7,,,67,127
24819,note_on,128,0,0,,7,,,79,127
24946,note_off,127,0,0,,7,,,79,127
24947,note_on,1,0,0,,5,,,77,127
25074,note_off,127,0,0,,5,,,77,127
25075,note_on,1,0,0,,3,,,75,127
25202,note_off,127,0,0,,3,,,75,127
25203,note_on,1,0,0,,2,,,74,127
25330,note_off,127,0,0,,2,,,74,127
25331,note_off,1,0,0,,7,,,67,127
25331,note_on,0,0,0,,0,,,72,127
25458,note_off,127,0,0,,0,,,72,127
25459,note_on,1,0,0,,12,,,71,127
25586,note_off,127,0,0,,12,,,71,127
25587,note_on,1,0,0,,10,,,69,127
25714,note_off,127,0,0,,10,,,69,127
25715,note_on,1,0,0,,7,,,67,127
25840,note_off,125,0,0,,7,,,67,127
25843,note_on,3,0,0,,7,,,67,127
25971,note_on,128,0,0,,5,,,65,127
26098,note_off,127,0,0,,5,,,65,127
26099,note_on,1,0,0,,3,,,63,127
26226,note_off,127,0,0,,3,,,63,127
26227,note_on,1,0,0,,2,,,62,127
26354,note_off,127,0,0,,2,,,62,127
26355,note_on,1,0,0,,0,,,60,127
26482,note_off,127,0,0,,0,,,60,127
26483,note_off,1,0,0,,7,,,67,127
26483,note_on,0,0,0,,12,,,59,127
26610,note_off,127,0,0,,12,,,59,127
26611,note_on,1,0,0,,10,,,57,127
26738,note_off,127,0,0,,10,,,57,127
26739,note_on,1,0,0,,7,,,55,127
26866,note_off,127,0,0,,7,,,43,127
26867,note_on,1,0,0,,2,,,50,127
26994,note_off,127,0,0,,2,,,50,127
26995,note_on,1,0,0,,4,,,52,127
27122,note_off,127,0,0,,4,,,52,127
27123,note_on,1,0,0,,6,,,54,127
27250,note_off,127,0,0,,6,,,54,127
27250,note_off,0,0,0,,7,,,55,127
27251,note_on,1,0,0,,7,,,55,127
27251,note_on,0,0,0,,2,,,74,127
27251,note_on,0,0,0,,7,,,67,127
27251,note_on,0,0,0,,12,,,71,127
27378,note_off,127,0,0,,7,,,55,127
27379,note_on,1,0,0,,12,,,47,127
27506,note_off,127,0,0,,12,,,47,127
27507,note_on,1,0,0,,0,,,48,127
27634,note_off,127,0,0,,0,,,48,127
27635,note_on,1,0,0,,2,,,50,127
27762,note_off,127,0,0,,2,,,50,127
27762,note_off,0,0,0,,12,,,71,127
27762,note_off,0,0,0,,7,,,67,127
27762,note_off,0,0,0,,2,,,74,127
27763,note_on,1,0,0,,7,,,43,127
27763,note_on,0,0,0,,12,,,71,127
27763,note_on,0,0,0,,7,,,67,127
27763,note_on,0,0,0,,2,,,74,127
27763,note_on,0,0,0,,7,,,79,127
28696,note_off,933,0,0,,7,,,79,127
28696,note_off,0,0,0,,2,,,74,127
28696,note_off,0,0,0,,7,,,67,127
28696,note_off,0,0,0,,12,,,71,127
28785,note_off,89,0,0,,7,,,43,127
28786,note_on,1,0,0,,7,,,55,127
28786,note_on,0,0,0,,2,,,62,127
28786,note_on,0,0,0,,12,,,71,127
29297,note_off,511,0,0,,12,,,71,127
29297,note_off,0,0,0,,2,,,62,127
29297,note_off,0,0,0,,7,,,55,127
29298,note_on,1,0,0,,8,,,56,127
29298,note_on,0,0,0,,5,,,65,127
29298,note_on,0,0,0,,2,,,74,127
29361,note_off,63,0,0,,2,,,74,127
29362,note_on,1,0,0,,0,,,72,127
29425,note_off,63,0,0,,0,,,72,127
29426,note_on,1,0,0,,2,,,74,127
29489,note_off,63,0,0,,2,,,74,127
29490,note_on,1,0,0,,0,,,72,127
29553,note_off,63,0,0,,0,,,72,127
29554,note_on,1,0,0,,2,,,74,127
29617,note_off,63,0,0,,2,,,74,127
29618,note_on,1,0,0,,0,,,72,127
29681,note_off,63,0,0,,0,,,72,127
29682,note_on,1,0,0,,12,,,71,127
29745,note_off,63,0,0,,12,,,71,127
29746,note_on,1,0,0,,0,,,72,127
29809,note_off,63,0,0,,0,,,72,127
29809,note_off,0,0,0,,5,,,65,127
29809,note_off,0,0,0,,8,,,56,127
29810,note_on,1,0,0,,2,,,62,127
29810,note_on,0,0,0,,12,,,59,127
29810,note_on,0,0,0,,2,,,74,127
30065,note_off,255,0,0,,2,,,62,127
30066,note_on,1,0,0,,7,,,55,127
30317,note_off,251,0,0,,12,,,59,127
30321,note_off,4,0,0,,7,,,55,127
30322,note_on,1,0,0,,3,,,63,127
30322,note_on,0,0,0,,0,,,60,127
30577,note_off,255,0,0,,2,,,74,127
30578,note_on,1,0,0,,3,,,75,127
30578,note_on,0,0,0,,0,,,72,127
30833,note_off,255,0,0,,0,,,72,127
30833,note_off,0,0,0,,3,,,75,127
30833,note_off,0,0,0,,0,,,60,127
30833,note_off,0,0,0,,3,,,63,127
30834,note_on,1,0,0,,2,,,62,127
30834,note_on,0,0,0,,5,,,65,127
30834,note_on,0,0,0,,5,,,77,127
30834,note_on,0,0,0,,2,,,74,127
31089,note_off,255,0,0,,2,,,74,127
31089,note_off,0,0,0,,5,,,77,127
31090,note_on,1,0,0,,3,,,75,127
31090,note_on,0,0,0,,0,,,72,127
31345,note_off,255,0,0,,5,,,65,127
31346,note_on,1,0,0,,7,,,55,127
31346,note_on,0,0,0,,7,,,67,127
31601,note_off,255,0,0,,0,,,72,127
31601,note_off,0,0,0,,3,,,75,127
31602,note_on,1,0,0,,2,,,74,127
31602,note_on,0,0,0,,12,,,71,127
31857,note_off,255,0,0,,12,,,71,127
31857,note_off,0,0,0,,2,,,74,127
31857,note_off,0,0,0,,7,,,67,127
31857,note_off,0,0,0,,7,,,55,127
31857,note_off,0,0,0,,2,,,62,127
31858,note_on,1,0,0,,0,,,60,127
31858,note_on,0,0,0,,5,,,77,127
31921,note_off,63,0,0,,5,,,77,127
31922,note_on,1,0,0,,3,,,75,127
31985,note_off,63,0,0,,3,,,75,127
31986,note_on,1,0,0,,5,,,77,127
32049,note_off,63,0,0,,5,,,77,127
32050,note_on,1,0,0,,3,,,75,127
32113,note_off,63,0,0,,3,,,75,127
32114,note_on,1,0,0,,2,,,74,127
32241,note_off,127,0,0,,2,,,74,127
32242,note_on,1,0,0,,3,,,75,127
32369,note_off,127,0,0,,3,,,75,127
32370,note_on,1,0,0,,0,,,72,127
32626,note_on,256,0,0,,7,,,67,127
32823,note_off,197,0,0,,0,,,72,127
32880,note_off,57,0,0,,7,,,67,127
32880,note_off,0,0,0,,0,,,60,127
32881,note_on,1,0,0,,5,,,77,127
32881,note_on,0,0,0,,8,,,68,127
33136,note_off,255,0,0,,8,,,68,127
33137,note_on,1,0,0,,5,,,65,127
33392,note_off,255,0,0,,5,,,65,127
33392,note_off,0,0,0,,5,,,77,127
33393,note_on,1,0,0,,3,,,75,127
33393,note_on,0,0,0,,7,,,67,127
33648,note_off,255,0,0,,7,,,67,127
33649,note_on,1,0,0,,3,,,63,127
33904,note_off,255,0,0,,3,,,63,127
33904,note_off,0,0,0,,3,,,75,127
33905,note_on,1,0,0,,2,,,74,127
33905,note_on,0,0,0,,5,,,65,127
34160,note_off,255,0,0,,5,,,65,127
34161,note_on,1,0,0,,2,,,62,127
34416,note_off,255,0,0,,2,,,62,127
34416,note_off,0,0,0,,2,,,74,127
34417,note_on,1,0,0,,0,,,72,127
34417,note_on,0,0,0,,3,,,63,127
34544,note_off,127,0,0,,3,,,63,127
34545,note_on,1,0,0,,2,,,62,127
34672,note_off,127,0,0,,2,,,62,127
34673,note_on,1,0,0,,0,,,60,127
34928,note_off,255,0,0,,0,,,60,127
34928,note_off,0,0,0,,0,,,72,127
34929,note_on,1,0,0,,2,,,74,127
34929,note_on,0,0,0,,12,,,59,127
35184,note_off,255,0,0,,12,,,59,127
35185,note_on,1,0,0,,7,,,55,127
35440,note_off,255,0,0,,7,,,55,127
35440,note_off,0,0,0,,2,,,74,127
35441,note_on,1,0,0,,3,,,75,127
35441,note_on,0,0,0,,0,,,60,127
35568,note_off,127,0,0,,3,,,75,127
35569,note_on,1,0,0,,2,,,74,127
35696,note_off,127,0,0,,2,,,74,127
35697,note_on,1,0,0,,0,,,72,127
35952,note_off,255,0,0,,0,,,72,127
35952,note_off,0,0,0,,0,,,60,127
35953,note_on,1,0,0,,7,,,55,127
35953,note_on,0,0,0,,7,,,79,127
36209,note_on,256,0,0,,7,,,67,127
36464,note_off,255,0,0,,7,,,67,127
36465,note_on,1,0,0,,7,,,67,127
36713,note_off,248,0,0,,7,,,79,127
36716,note_off,3,0,0,,7,,,67,127
36720,note_off,4,0,0,,7,,,55,127
36721,note_on,1,0,0,,7,,,67,127
36721,note_on,0,0,0,,7,,,55,127
36721,note_on,0,0,0,,7,,,79,127
36976,note_off,255,0,0,,7,,,79,127
36976,note_off,0,0,0,,7,,,55,127
36976,note_off,0,0,0,,7,,,67,127
36977,note_on,1,0,0,,8,,,56,127
36977,note_on,0,0,0,,5,,,65,127
36977,note_on,0,0,0,,5,,,77,127
37104,note_off,127,0,0,,5,,,77,127
37105,note_on,1,0,0,,3,,,75,127
37232,note_off,127,0,0,,3,,,75,127
37233,note_on,1,0,0,,2,,,74,127
37488,note_off,255,0,0,,2,,,74,127
37488,note_off,0,0,0,,5,,,65,127
37488,note_off,0,0,0,,8,,,56,127
37489,note_on,1,0,0,,3,,,63,127
37489,note_on,0,0,0,,7,,,55,127
37489,note_on,0,0,0,,3,,,75,127
37616,note_off,127,0,0,,3,,,75,127
37617,note_on,1,0,0,,2,,,74,127
37744,note_off,127,0,0,,2,,,74,127
37745,note_on,1,0,0,,0,,,72,127
38000,note_off,255,0,0,,0,,,72,127
38000,note_off,0,0,0,,7,,,55,127
38000,note_off,0,0,0,,3,,,63,127
38001,note_on,1,0,0,,5,,,53,127
38001,note_on,0,0,0,,2,,,62,127
38001,note_on,0,0,0,,2,,,74,127
38128,note_off,127,0,0,,2,,,74,127
38129,note_on,1,0,0,,0,,,72,127
38256,note_off,127,0,0,,0,,,72,127
38257,note_on,1,0,0,,12,,,71,127
38512,note_off,255,0,0,,12,,,71,127
38512,note_off,0,0,0,,2,,,62,127
38512,note_off,0,0,0,,5,,,53,127
38513,note_on,1,0,0,,3,,,51,127
38513,note_on,0,0,0,,0,,,60,127
38513,note_on,0,0,0,,0,,,72,127
38640,note_off,127,0,0,,0,,,72,127
38641,note_on,1,0,0,,2,,,74,127
38768,note_off,127,0,0,,2,,,74,127
38769,note_on,1,0,0,,3,,,75,127
39024,note_off,255,0,0,,3,,,75,127
39024,note_off,0,0,0,,0,,,60,127
39024,note_off,0,0,0,,3,,,51,127
39025,note_on,1,0,0,,5,,,53,127
39025,note_on,0,0,0,,2,,,50,127
39025,note_on,0,0,0,,12,,,59,127
39025,note_on,0,0,0,,7,,,55,127
39025,note_on,0,0,0,,2,,,74,127
39152,note_off,127,0,0,,2,,,74,127
39153,note_on,1,0,0,,3,,,75,127
39280,note_off,127,0,0,,3,,,75,127
39281,note_on,1,0,0,,5,,,77,127
39536,note_off,255,0,0,,12,,,59,127
39536,note_off,0,0,0,,2,,,50,127
39536,note_off,0,0,0,,5,,,53,127
39537,note_on,1,0,0,,0,,,48,127
39537,note_on,0,0,0,,0,,,60,127
39601,note_off,64,0,0,,5,,,77,127
39601,note_on,0,0,0,,3,,,75,127
39664,note_off,63,0,0,,3,,,75,127
39665,note_on,1,0,0,,5,,,77,127
39728,note_off,63,0,0,,5,,,77,127
39729,note_on,1,0,0,,3,,,75,127
39792,note_off,63,0,0,,3,,,75,127
39793,note_on,1,0,0,,2,,,74,127
39920,note_off,127,0,0,,2,,,74,127
39921,note_on,1,0,0,,3,,,75,127
40048,note_off,127,0,0,,3,,,75,127
40048,note_off,0,0,0,,0,,,60,127
40048,note_off,0,0,0,,0,,,48,127
40048,note_off,0,0,0,,7,,,55,127
40049,note_on,1,0,0,,7,,,55,127
40049,note_on,0,0,0,,7,,,43,127
40049,note_on,0,0,0,,3,,,75,127
40176,note_off,127,0,0,,3,,,75,127
40177,note_on,1,0,0,,2,,,74,127
40240,note_off,63,0,0,,2,,,74,127
40241,note_on,1,0,0,,3,,,75,127
40304,note_off,63,0,0,,3,,,75,127
40305,note_on,1,0,0,,2,,,74,127
40368,note_off,63,0,0,,2,,,74,127
40369,note_on,1,0,0,,3,,,75,127
40432,note_off,63,0,0,,3,,,75,127
40433,note_on,1,0,0,,2,,,74,127
40496,note_off,63,0,0,,2,,,74,127
40497,note_on,1,0,0,,3,,,75,127
40560,note_off,63,0,0,,3,,,75,127
40561,note_on,1,0,0,,2,,,74,127
40624,note_off,63,0,0,,2,,,74,127
40625,note_on,1,0,0,,3,,,75,127
40688,note_off,63,0,0,,3,,,75,127
40689,note_on,1,0,0,,2,,,74,127
41329,note_off,640,0,0,,7,,,43,127
41382,note_off,53,0,0,,7,,,55,127
41585,note_on,203,0,0,,3,,,75,127
41712,note_off,127,0,0,,2,,,74,127
41840,note_off,128,0,0,,3,,,75,127
41841,note_on,1,0,0,,8,,,80,127
41841,note_on,0,0,0,,5,,,77,127
42097,note_on,256,0,0,,7,,,67,127
42225,note_off,128,0,0,,5,,,77,127
42352,note_off,127,0,0,,8,,,80,127
42353,note_on,1,0,0,,7,,,79,127
42353,note_on,0,0,0,,3,,,75,127
42604,note_off,251,0,0,,7,,,67,127
42609,note_on,5,0,0,,7,,,67,127
42737,note_off,128,0,0,,3,,,75,127
42862,note_off,125,0,0,,7,,,67,127
42863,note_off,1,0,0,,7,,,79,127
42864,note_on,1,0,0,,5,,,77,127
42864,note_on,0,0,0,,2,,,74,127
43120,note_on,256,0,0,,0,,,72,127
43184,note_off,64,0,0,,2,,,74,127
43247,note_off,63,0,0,,0,,,72,127
43248,note_on,1,0,0,,12,,,71,127
43375,note_off,127,0,0,,12,,,71,127
43375,note_off,0,0,0,,5,,,77,127
43376,note_on,1,0,0,,3,,,75,127
43376,note_on,0,0,0,,0,,,72,127
43504,note_on,128,0,0,,7,,,67,127
43629,note_off,125,0,0,,0,,,72,127
43630,note_off,1,0,0,,7,,,67,127
43631,note_on,1,0,0,,0,,,72,127
43758,note_off,127,0,0,,3,,,75,127
43759,note_on,1,0,0,,3,,,75,127
43884,note_off,125,0,0,,0,,,72,127
43885,note_off,1,0,0,,3,,,75,127
43886,note_on,1,0,0,,8,,,80,127
43886,note_on,0,0,0,,5,,,77,127
44142,note_on,256,0,0,,7,,,67,127
44270,note_off,128,0,0,,5,,,77,127
44397,note_off,127,0,0,,8,,,80,127
44398,note_on,1,0,0,,7,,,79,127
44398,note_on,0,0,0,,3,,,75,127
44649,note_off,251,0,0,,7,,,67,127
44654,note_on,5,0,0,,7,,,67,127
44782,note_off,128,0,0,,3,,,75,127
44907,note_off,125,0,0,,7,,,67,127
44908,note_off,1,0,0,,7,,,79,127
44909,note_on,1,0,0,,5,,,77,127
44909,note_on,0,0,0,,2,,,74,127
45165,note_on,256,0,0,,0,,,72,127
45229,note_off,64,0,0,,2,,,74,127
45292,note_off,63,0,0,,0,,,72,127
45293,note_on,1,0,0,,12,,,71,127
45420,note_off,127,0,0,,12,,,71,127
45420,note_off,0,0,0,,5,,,77,127
45421,note_on,1,0,0,,3,,,75,127
45421,note_on,0,0,0,,0,,,72,127
45548,note_off,127,0,0,,0,,,72,127
45549,note_on,1,0,0,,11,,,70,127
45676,note_off,127,0,0,,11,,,70,127
45677,note_on,1,0,0,,8,,,68,127
45804,note_off,127,0,0,,8,,,68,127
45805,note_on,1,0,0,,7,,,67,127
45874,note_off,69,0,0,,3,,,75,127
45931,note_off,57,0,0,,7,,,67,127
45932,note_on,1,0,0,,5,,,77,127
45932,note_on,0,0,0,,8,,,68,127
46059,note_off,127,0,0,,8,,,68,127
46060,note_on,1,0,0,,7,,,67,127
46187,note_off,127,0,0,,7,,,67,127
46187,note_off,0,0,0,,5,,,77,127
46188,note_on,1,0,0,,3,,,75,127
46188,note_on,0,0,0,,5,,,65,127
46315,note_off,127,0,0,,5,,,65,127
46316,note_on,1,0,0,,3,,,63,127
46443,note_off,127,0,0,,3,,,63,127
46443,note_off,0,0,0,,3,,,75,127
46444,note_on,1,0,0,,2,,,74,127
46444,note_on,0,0,0,,5,,,65,127
46571,note_off,127,0,0,,5,,,65,127
46572,note_on,1,0,0,,3,,,63,127
46699,note_off,127,0,0,,3,,,63,127
46699,note_off,0,0,0,,2,,,74,127
46700,note_on,1,0,0,,0,,,72,127
46700,note_on,0,0,0,,2,,,62,127
46827,note_off,127,0,0,,2,,,62,127
46828,note_on,1,0,0,,0,,,60,127
46955,note_off,127,0,0,,0,,,60,127
46955,note_off,0,0,0,,0,,,72,127
46956,note_on,1,0,0,,12,,,71,127
46956,note_on,0,0,0,,2,,,62,127
47083,note_off,127,0,0,,2,,,62,127
47084,note_on,1,0,0,,0,,,60,127
47211,note_off,127,0,0,,0,,,60,127
47211,note_off,0,0,0,,12,,,71,127
47212,note_on,1,0,0,,10,,,69,127
47212,note_on,0,0,0,,12,,,59,127
47339,note_off,127,0,0,,12,,,59,127
47340,note_on,1,0,0,,10,,,57,127
47467,note_off,127,0,0,,10,,,57,127
47467,note_off,0,0,0,,10,,,69,127
47468,note_on,1,0,0,,7,,,67,127
47468,note_on,0,0,0,,12,,,59,127
47595,note_off,127,0,0,,12,,,59,127
47596,note_on,1,0,0,,7,,,55,127
47723,note_off,127,0,0,,7,,,55,127
47723,note_off,0,0,0,,7,,,67,127
47724,note_on,1,0,0,,5,,,65,127
47724,note_on,0,0,0,,10,,,57,127
47851,note_off,127,0,0,,10,,,57,127
47852,note_on,1,0,0,,12,,,59,127
47979,note_off,127,0,0,,12,,,59,127
47979,note_off,0,0,0,,5,,,65,127
47980,note_on,1,0,0,,3,,,63,127
47980,note_on,0,0,0,,0,,,60,127
48107,note_off,127,0,0,,0,,,60,127
48108,note_on,1,0,0,,7,,,55,127
48235,note_off,127,0,0,,7,,,55,127
48236,note_on,1,0,0,,0,,,60,127
48363,note_off,127,0,0,,0,,,60,127
48363,note_off,0,0,0,,3,,,63,127
48364,note_on,1,0,0,,3,,,63,127
48492,note_on,128,0,0,,7,,,67,127
48747,note_off,255,0,0,,7,,,67,127
48747,note_off,0,0,0,,3,,,63,127
48748,note_on,1,0,0,,5,,,65,127
48748,note_on,0,0,0,,5,,,53,127
49003,note_off,255,0,0,,5,,,53,127
49004,note_on,1,0,0,,7,,,55,127
49068,note_off,64,0,0,,5,,,65,127
49068,note_on,0,0,0,,3,,,63,127
49131,note_off,63,0,0,,3,,,63,127
49132,note_on,1,0,0,,5,,,65,127
49195,note_off,63,0,0,,5,,,65,127
49196,note_on,1,0,0,,3,,,63,127
49259,note_off,63,0,0,,3,,,63,127
49260,note_on,1,0,0,,2,,,62,127
49387,note_off,127,0,0,,2,,,62,127
49388,note_on,1,0,0,,0,,,60,127
49515,note_off,127,0,0,,0,,,60,127
49515,note_off,0,0,0,,7,,,55,127
49516,note_on,1,0,0,,5,,,53,127
49516,note_on,0,0,0,,3,,,63,127
49579,note_off,63,0,0,,3,,,63,127
49580,note_on,1,0,0,,2,,,62,127
49643,note_off,63,0,0,,2,,,62,127
49644,note_on,1,0,0,,3,,,63,127
49707,note_off,63,0,0,,3,,,63,127
49708,note_on,1,0,0,,2,,,62,127
49771,note_off,63,0,0,,2,,,62,127
49772,note_on,1,0,0,,0,,,60,127
49899,note_off,127,0,0,,0,,,60,127
49900,note_on,1,0,0,,12,,,59,127
50027,note_off,127,0,0,,12,,,59,127
50027,note_off,0,0,0,,5,,,53,127
50028,note_on,1,0,0,,3,,,51,127
50028,note_on,0,0,0,,0,,,60,127
50028,note_on,0,0,0,,0,,,72,127
50156,note_on,128,0,0,,7,,,67,127
50281,note_off,125,0,0,,0,,,72,127
50282,note_off,1,0,0,,7,,,67,127
50283,note_on,1,0,0,,0,,,72,127
50410,note_off,127,0,0,,0,,,72,127
50411,note_on,1,0,0,,3,,,75,127
50538,note_off,127,0,0,,3,,,75,127
50539,note_on,1,0,0,,7,,,79,127
50794,note_off,255,0,0,,7,,,79,127
50794,note_off,0,0,0,,0,,,60,127
50794,note_off,0,0,0,,3,,,51,127
50795,note_on,1,0,0,,2,,,62,127
50795,note_on,0,0,0,,5,,,53,127
50795,note_on,0,0,0,,5,,,77,127
51050,note_off,255,0,0,,5,,,53,127
51050,note_off,0,0,0,,2,,,62,127
51051,note_on,1,0,0,,7,,,55,127
51051,note_on,0,0,0,,3,,,63,127
51115,note_off,64,0,0,,5,,,77,127
51115,note_on,0,0,0,,3,,,75,127
51178,note_off,63,0,0,,3,,,75,127
51179,note_on,1,0,0,,5,,,77,127
51242,note_off,63,0,0,,5,,,77,127
51243,note_on,1,0,0,,3,,,75,127
51306,note_off,63,0,0,,3,,,75,127
51307,note_on,1,0,0,,2,,,74,127
51434,note_off,127,0,0,,2,,,74,127
51435,note_on,1,0,0,,0,,,72,127
51562,note_off,127,0,0,,0,,,72,127
51562,note_off,0,0,0,,3,,,63,127
51562,note_off,0,0,0,,7,,,55,127
51563,note_on,1,0,0,,2,,,62,127
51563,note_on,0,0,0,,5,,,53,127
51563,note_on,0,0,0,,3,,,75,127
51626,note_off,63,0,0,,3,,,75,127
51627,note_on,1,0,0,,2,,,74,127
51690,note_off,63,0,0,,2,,,74,127
51691,note_on,1,0,0,,3,,,75,127
51754,note_off,63,0,0,,3,,,75,127
51755,note_on,1,0,0,,2,,,74,127
51818,note_off,63,0,0,,2,,,74,127
51819,note_on,1,0,0,,0,,,72,127
51946,note_off,127,0,0,,0,,,72,127
51947,note_on,1,0,0,,12,,,71,127
52074,note_off,127,0,0,,12,,,71,127
52074,note_off,0,0,0,,5,,,53,127
52074,note_off,0,0,0,,2,,,62,127
52075,note_on,1,0,0,,3,,,51,127
52075,note_on,0,0,0,,0,,,60,127
52075,note_on,0,0,0,,7,,,79,127
52203,note_on,128,0,0,,0,,,72,127
52330,note_off,127,0,0,,0,,,72,127
52331,note_on,1,0,0,,3,,,75,127
52456,note_off,125,0,0,,7,,,79,127
52457,note_off,1,0,0,,3,,,75,127
52458,note_on,1,0,0,,7,,,79,127
52585,note_off,127,0,0,,7,,,79,127
52586,note_on,1,0,0,,0,,,84,127
52841,note_off,255,0,0,,0,,,84,127
52841,note_off,0,0,0,,0,,,60,127
52841,note_off,0,0,0,,3,,,51,127
52842,note_on,1,0,0,,5,,,53,127
52842,note_on,0,0,0,,2,,,62,127
52842,note_on,0,0,0,,5,,,77,127
53097,note_off,255,0,0,,2,,,62,127
53097,note_off,0,0,0,,5,,,53,127
53098,note_on,1,0,0,,7,,,55,127
53162,note_off,64,0,0,,5,,,77,127
53162,note_on,0,0,0,,3,,,75,127
53225,note_off,63,0,0,,3,,,75,127
53226,note_on,1,0,0,,5,,,77,127
53289,note_off,63,0,0,,5,,,77,127
53290,note_on,1,0,0,,3,,,75,127
53353,note_off,63,0,0,,3,,,75,127
53354,note_on,1,0,0,,2,,,74,127
53481,note_off,127,0,0,,2,,,74,127
53482,note_on,1,0,0,,0,,,72,127
53609,note_off,127,0,0,,0,,,72,127
53610,note_on,1,0,0,,7,,,43,127
53610,note_on,0,0,0,,3,,,75,127
53673,note_off,63,0,0,,3,,,75,127
53674,note_on,1,0,0,,2,,,74,127
53737,note_off,63,0,0,,2,,,74,127
53738,note_on,1,0,0,,3,,,75,127
53801,note_off,63,0,0,,3,,,75,127
53802,note_on,1,0,0,,2,,,74,127
53865,note_off,63,0,0,,2,,,74,127
53866,note_on,1,0,0,,0,,,72,127
53993,note_off,127,0,0,,0,,,72,127
53994,note_on,1,0,0,,12,,,71,127
54121,note_off,127,0,0,,12,,,71,127
54121,note_off,0,0,0,,7,,,43,127
54121,note_off,0,0,0,,7,,,55,127
54122,note_on,1,0,0,,0,,,48,127
54122,note_on,0,0,0,,0,,,72,127
54250,note_on,128,0,0,,0,,,84,127
54377,note_off,127,0,0,,0,,,84,127
54378,note_on,1,0,0,,11,,,82,127
54505,note_off,127,0,0,,11,,,82,127
54506,note_on,1,0,0,,8,,,80,127
54633,note_off,127,0,0,,8,,,80,127
54634,note_on,1,0,0,,7,,,79,127
54761,note_off,127,0,0,,7,,,79,127
54762,note_off,1,0,0,,0,,,72,127
54762,note_on,0,0,0,,5,,,77,127
54889,note_off,127,0,0,,5,,,77,127
54890,note_on,1,0,0,,3,,,75,127
55017,note_off,127,0,0,,3,,,75,127
55018,note_on,1,0,0,,2,,,74,127
55145,note_off,127,0,0,,2,,,74,127
55146,note_on,1,0,0,,0,,,72,127
55273,note_off,127,0,0,,0,,,72,127
55274,note_on,1,0,0,,0,,,72,127
55403,note_on,129,0,0,,11,,,70,127
55530,note_off,127,0,0,,11,,,70,127
55534,note_on,4,0,0,,8,,,68,127
55661,note_off,127,0,0,,8,,,68,127
55665,note_on,4,0,0,,7,,,67,127
55792,note_off,127,0,0,,7,,,67,127
55796,note_on,4,0,0,,5,,,65,127
55923,note_off,127,0,0,,5,,,65,127
55927,note_on,4,0,0,,3,,,63,127
56042,note_off,115,0,0,,0,,,72,127
56054,note_off,12,0,0,,3,,,63,127
56058,note_on,4,0,0,,2,,,62,127
56185,note_off,127,0,0,,2,,,62,127
56189,note_on,4,0,0,,0,,,60,127
56298,note_off,109,0,0,,0,,,48,127
56322,note_on,24,0,0,,7,,,55,127
56450,note_off,128,0,0,,7,,,55,127
56458,note_on,8,0,0,,10,,,57,127
56586,note_off,128,0,0,,10,,,57,127
56594,note_on,8,0,0,,12,,,59,127
56703,note_off,109,0,0,,0,,,60,127
56722,note_off,19,0,0,,12,,,59,127
56729,note_on,7,0,0,,3,,,75,127
56729,note_on,0,0,0,,7,,,79,127
56729,note_on,0,0,0,,0,,,72,127
56729,note_on,0,0,0,,0,,,60,127
56857,note_off,128,0,0,,0,,,60,127
56880,note_on,23,0,0,,3,,,51,127
57024,note_off,144,0,0,,3,,,51,127
57029,note_on,5,0,0,,5,,,53,127
57173,note_off,144,0,0,,5,,,53,127
57180,note_on,7,0,0,,7,,,55,127
57253,note_off,73,0,0,,0,,,72,127
57253,note_off,0,0,0,,7,,,79,127
57253,note_off,0,0,0,,3,,,75,127
57328,note_off,75,0,0,,7,,,55,127
57348,note_on,20,0,0,,0,,,84,127
57348,note_on,0,0,0,,3,,,75,127
57348,note_on,0,0,0,,0,,,72,127
57348,note_on,0,0,0,,7,,,79,127
57348,note_on,0,0,0,,0,,,36,127
59271,note_off,1923,0,0,,0,,,36,127
59271,note_off,0,0,0,,7,,,79,127
59271,note_off,0,0,0,,0,,,72,127
59271,note_off,0,0,0,,3,,,75,127
59271,note_off,0,0,0,,0,,,84,127
64512,end_of_track,5241,1,0,,,,,,
