tick,type,time,meta,track,program,channel,pitch,tempo,note,velocity
0,copyright,0,1,0,,,,,,
0,program_change,0,0,0,6,0,,,,
0,pitchwheel,0,0,0,,0,0,,,
0,program_change,0,0,0,6,1,,,,
0,pitchwheel,0,0,0,,1,-590,,,
0,program_change,0,0,0,6,2,,,,
0,pitchwheel,0,0,0,,2,-272,,,
0,program_change,0,0,0,6,3,,,,
0,pitchwheel,0,0,0,,3,-353,,,
0,program_change,0,0,0,6,4,,,,
0,pitchwheel,0,0,0,,4,-560,,,
0,program_change,0,0,0,6,5,,,,
0,pitchwheel,0,0,0,,5,-80,,,
0,program_change,0,0,0,6,6,,,,
0,pitchwheel,0,0,0,,6,-625,,,
0,program_change,0,0,0,6,7,,,,
0,pitchwheel,0,0,0,,7,-130,,,
0,program_change,0,0,0,6,8,,,,
0,pitchwheel,0,0,0,,8,-512,,,
0,program_change,0,0,0,6,10,,,,
0,pitchwheel,0,0,0,,10,-464,,,
0,program_change,0,0,0,6,11,,,,
0,pitchwheel,0,0,0,,11,-208,,,
0,program_change,0,0,0,6,12,,,,
0,pitchwheel,0,0,0,,12,-553,,,
0,set_tempo,0,1,0,,,,500000,,
115,note_on,115,0,0,,7,,,67,127
230,note_on,115,0,0,,2,,,62,127
343,note_off,113,0,0,,7,,,67,127
345,note_on,2,0,0,,11,,,70,127
362,note_off,17,0,0,,2,,,62,127
460,note_on,98,0,0,,10,,,69,127
477,note_off,17,0,0,,11,,,70,127
575,note_on,98,0,0,,7,,,67,127
592,note_off,17,0,0,,10,,,69,127
690,note_on,98,0,0,,2,,,62,127
803,note_off,113,0,0,,7,,,67,127
805,note_on,2,0,0,,2,,,74,127
822,note_off,17,0,0,,2,,,62,127
920,note_on,98,0,0,,0,,,72,127
937,note_off,17,0,0,,2,,,74,127
1035,note_on,98,0,0,,11,,,70,127
1052,note_off,17,0,0,,0,,,72,127
1150,note_on,98,0,0,,7,,,67,127
1208,note_off,58,0,0,,11,,,70,127
1266,note_on,58,0,0,,7,,,79,127
1283,note_off,17,0,0,,7,,,67,127
1381,note_on,98,0,0,,5,,,77,127
1398,note_off,17,0,0,,7,,,79,127
1496,note_on,98,0,0,,3,,,75,127
1513,note_off,17,0,0,,5,,,77,127
1611,note_on,98,0,0,,7,,,79,127
1628,note_off,17,0,0,,3,,,75,127
1726,note_on,98,0,0,,0,,,72,127
1743,note_off,17,0,0,,7,,,79,127
1841,note_on,98,0,0,,3,,,75,127
1858,note_off,17,0,0,,0,,,72,127
1956,note_on,98,0,0,,10,,,69,127
1973,note_off,17,0,0,,3,,,75,127
2071,note_on,98,0,0,,0,,,72,127
2088,note_off,17,0,0,,10,,,69,127
2186,note_on,98,0,0,,6,,,66,127
2203,note_off,17,0,0,,0,,,72,127
2301,note_on,98,0,0,,10,,,69,127
2318,note_off,17,0,0,,6,,,66,127
2416,note_on,98,0,0,,2,,,62,127
2433,note_off,17,0,0,,10,,,69,127
2531,note_on,98,0,0,,0,,,72,127
2589,note_off,58,0,0,,2,,,62,127
2647,note_on,58,0,0,,11,,,70,127
2664,note_off,17,0,0,,0,,,72,127
2762,note_on,98,0,0,,10,,,69,127
2779,note_off,17,0,0,,11,,,70,127
2877,note_on,98,0,0,,7,,,55,127
2877,note_on,0,0,0,,11,,,70,127
2894,note_off,17,0,0,,10,,,69,127
2992,note_on,98,0,0,,2,,,50,127
3009,note_off,17,0,0,,7,,,55,127
3106,note_off,97,0,0,,11,,,70,127
3107,note_on,1,0,0,,11,,,58,127
3107,note_on,0,0,0,,7,,,67,127
3124,note_off,17,0,0,,2,,,50,127
3222,note_on,98,0,0,,10,,,57,127
3239,note_off,17,0,0,,11,,,58,127
3337,note_on,98,0,0,,7,,,55,127
3354,note_off,17,0,0,,10,,,57,127
3452,note_on,98,0,0,,2,,,50,127
3469,note_off,17,0,0,,7,,,55,127
3515,note_off,46,0,0,,7,,,67,127
3568,note_on,53,0,0,,2,,,62,127
3568,note_on,0,0,0,,6,,,66,127
3585,note_off,17,0,0,,2,,,50,127
3683,note_on,98,0,0,,0,,,60,127
3700,note_off,17,0,0,,2,,,62,127
3797,note_off,97,0,0,,6,,,66,127
3798,note_on,1,0,0,,11,,,58,127
3798,note_on,0,0,0,,7,,,67,127
3815,note_off,17,0,0,,0,,,60,127
3913,note_on,98,0,0,,7,,,55,127
3930,note_off,17,0,0,,11,,,58,127
4027,note_off,97,0,0,,7,,,67,127
4028,note_on,1,0,0,,7,,,67,127
4028,note_on,0,0,0,,11,,,70,127
4045,note_off,17,0,0,,7,,,55,127
4143,note_on,98,0,0,,5,,,65,127
4160,note_off,17,0,0,,7,,,67,127
4258,note_on,98,0,0,,3,,,63,127
4275,note_off,17,0,0,,5,,,65,127
4373,note_on,98,0,0,,7,,,67,127
4390,note_off,17,0,0,,3,,,63,127
4487,note_off,97,0,0,,11,,,70,127
4488,note_on,1,0,0,,0,,,60,127
4488,note_on,0,0,0,,0,,,72,127
4505,note_off,17,0,0,,7,,,67,127
4603,note_on,98,0,0,,3,,,63,127
4620,note_off,17,0,0,,0,,,60,127
4718,note_on,98,0,0,,10,,,57,127
4735,note_off,17,0,0,,3,,,63,127
4833,note_on,98,0,0,,0,,,60,127
4850,note_off,17,0,0,,10,,,57,127
4947,note_off,97,0,0,,0,,,72,127
4948,note_on,1,0,0,,6,,,54,127
4948,note_on,0,0,0,,2,,,74,127
4965,note_off,17,0,0,,0,,,60,127
5063,note_on,98,0,0,,10,,,57,127
5080,note_off,17,0,0,,6,,,54,127
5178,note_on,98,0,0,,2,,,50,127
5195,note_off,17,0,0,,10,,,57,127
5293,note_on,98,0,0,,0,,,60,127
5310,note_off,17,0,0,,2,,,50,127
5407,note_off,97,0,0,,2,,,74,127
5408,note_on,1,0,0,,11,,,58,127
5408,note_on,0,0,0,,6,,,66,127
5425,note_off,17,0,0,,0,,,60,127
5523,note_on,98,0,0,,10,,,57,127
5540,note_off,17,0,0,,11,,,58,127
5637,note_off,97,0,0,,6,,,66,127
5638,note_on,1,0,0,,11,,,58,127
5638,note_on,0,0,0,,7,,,67,127
5655,note_off,17,0,0,,10,,,57,127
5753,note_on,98,0,0,,10,,,57,127
5770,note_off,17,0,0,,11,,,58,127
5868,note_on,98,0,0,,7,,,55,127
5885,note_off,17,0,0,,10,,,57,127
5982,note_off,97,0,0,,7,,,67,127
5983,note_on,1,0,0,,7,,,79,127
6097,note_off,114,0,0,,7,,,55,127
6098,note_on,1,0,0,,0,,,60,127
6098,note_on,0,0,0,,3,,,75,127
6098,note_on,0,0,0,,5,,,77,127
6115,note_off,17,0,0,,7,,,79,127
6213,note_on,98,0,0,,2,,,74,127
6230,note_off,17,0,0,,5,,,77,127
6230,note_off,0,0,0,,3,,,75,127
6327,note_off,97,0,0,,0,,,60,127
6328,note_on,1,0,0,,6,,,66,127
6328,note_on,0,0,0,,0,,,72,127
6345,note_off,17,0,0,,2,,,74,127
6443,note_on,98,0,0,,10,,,81,127
6460,note_off,17,0,0,,0,,,72,127
6557,note_off,97,0,0,,6,,,66,127
6558,note_on,1,0,0,,7,,,67,127
6558,note_on,0,0,0,,0,,,72,127
6558,note_on,0,0,0,,11,,,70,127
6575,note_off,17,0,0,,10,,,81,127
6673,note_on,98,0,0,,10,,,69,127
6690,note_off,17,0,0,,11,,,70,127
6690,note_off,0,0,0,,0,,,72,127
6787,note_off,97,0,0,,7,,,67,127
6788,note_on,1,0,0,,11,,,58,127
6788,note_on,0,0,0,,7,,,67,127
6805,note_off,17,0,0,,10,,,69,127
6903,note_on,98,0,0,,7,,,79,127
6920,note_off,17,0,0,,7,,,67,127
7017,note_off,97,0,0,,11,,,58,127
7018,note_on,1,0,0,,0,,,60,127
7018,note_on,0,0,0,,5,,,77,127
7018,note_on,0,0,0,,3,,,75,127
7035,note_off,17,0,0,,7,,,79,127
7133,note_on,98,0,0,,2,,,74,127
7150,note_off,17,0,0,,3,,,75,127
7150,note_off,0,0,0,,5,,,77,127
7247,note_off,97,0,0,,0,,,60,127
7248,note_on,1,0,0,,6,,,66,127
7248,note_on,0,0,0,,0,,,72,127
7265,note_off,17,0,0,,2,,,74,127
7363,note_on,98,0,0,,10,,,81,127
7380,note_off,17,0,0,,0,,,72,127
7477,note_off,97,0,0,,6,,,66,127
7478,note_on,1,0,0,,7,,,67,127
7478,note_on,0,0,0,,0,,,72,127
7478,note_on,0,0,0,,11,,,70,127
7495,note_off,17,0,0,,10,,,81,127
7593,note_on,98,0,0,,10,,,69,127
7610,note_off,17,0,0,,11,,,70,127
7610,note_off,0,0,0,,0,,,72,127
7707,note_off,97,0,0,,7,,,67,127
7708,note_on,1,0,0,,11,,,58,127
7708,note_on,0,0,0,,7,,,67,127
7725,note_off,17,0,0,,10,,,69,127
7823,note_on,98,0,0,,7,,,79,127
7840,note_off,17,0,0,,7,,,67,127
7937,note_off,97,0,0,,11,,,58,127
7938,note_on,1,0,0,,0,,,60,127
7938,note_on,0,0,0,,3,,,75,127
7938,note_on,0,0,0,,5,,,77,127
7955,note_off,17,0,0,,7,,,79,127
8053,note_on,98,0,0,,2,,,74,127
8070,note_off,17,0,0,,5,,,77,127
8070,note_off,0,0,0,,3,,,75,127
8167,note_off,97,0,0,,0,,,60,127
8168,note_on,1,0,0,,6,,,66,127
8168,note_on,0,0,0,,0,,,72,127
8185,note_off,17,0,0,,2,,,74,127
8283,note_on,98,0,0,,10,,,81,127
8300,note_off,17,0,0,,0,,,72,127
8397,note_off,97,0,0,,6,,,66,127
8398,note_on,1,0,0,,7,,,67,127
8398,note_on,0,0,0,,11,,,70,127
8398,note_on,0,0,0,,0,,,72,127
8415,note_off,17,0,0,,10,,,81,127
8513,note_on,98,0,0,,10,,,69,127
8530,note_off,17,0,0,,0,,,72,127
8530,note_off,0,0,0,,11,,,70,127
8627,note_off,97,0,0,,7,,,67,127
8628,note_on,1,0,0,,11,,,58,127
8628,note_on,0,0,0,,7,,,67,127
8645,note_off,17,0,0,,10,,,69,127
8743,note_on,98,0,0,,7,,,79,127
8760,note_off,17,0,0,,7,,,67,127
8857,note_off,97,0,0,,11,,,58,127
8858,note_on,1,0,0,,10,,,57,127
8858,note_on,0,0,0,,1,,,73,127
8858,note_on,0,0,0,,2,,,74,127
8875,note_off,17,0,0,,7,,,79,127
8973,note_on,98,0,0,,12,,,71,127
8990,note_off,17,0,0,,2,,,74,127
8990,note_off,0,0,0,,1,,,73,127
9087,note_off,97,0,0,,10,,,57,127
9088,note_on,1,0,0,,1,,,61,127
9088,note_on,0,0,0,,10,,,69,127
9105,note_off,17,0,0,,12,,,71,127
9203,note_on,98,0,0,,7,,,79,127
9220,note_off,17,0,0,,10,,,69,127
9317,note_off,97,0,0,,1,,,61,127
9318,note_on,1,0,0,,2,,,62,127
9318,note_on,0,0,0,,5,,,77,127
9335,note_off,17,0,0,,7,,,79,127
9433,note_on,98,0,0,,4,,,76,127
9450,note_off,17,0,0,,5,,,77,127
9547,note_off,97,0,0,,2,,,62,127
9548,note_on,1,0,0,,7,,,55,127
9548,note_on,0,0,0,,7,,,79,127
9565,note_off,17,0,0,,4,,,76,127
9663,note_on,98,0,0,,2,,,74,127
9680,note_off,17,0,0,,7,,,79,127
9776,note_off,96,0,0,,2,,,74,127
9777,note_off,1,0,0,,7,,,55,127
9778,note_on,1,0,0,,10,,,57,127
9778,note_on,0,0,0,,1,,,73,127
9778,note_on,0,0,0,,2,,,74,127
9893,note_on,115,0,0,,12,,,71,127
9910,note_off,17,0,0,,2,,,74,127
9910,note_off,0,0,0,,1,,,73,127
10007,note_off,97,0,0,,10,,,57,127
10008,note_on,1,0,0,,1,,,61,127
10008,note_on,0,0,0,,10,,,69,127
10025,note_off,17,0,0,,12,,,71,127
10123,note_on,98,0,0,,7,,,79,127
10140,note_off,17,0,0,,10,,,69,127
10237,note_off,97,0,0,,1,,,61,127
10238,note_on,1,0,0,,2,,,62,127
10238,note_on,0,0,0,,5,,,77,127
10255,note_off,17,0,0,,7,,,79,127
10353,note_on,98,0,0,,4,,,76,127
10370,note_off,17,0,0,,5,,,77,127
10467,note_off,97,0,0,,2,,,62,127
10468,note_on,1,0,0,,7,,,55,127
10468,note_on,0,0,0,,7,,,79,127
10485,note_off,17,0,0,,4,,,76,127
10583,note_on,98,0,0,,2,,,74,127
10600,note_off,17,0,0,,7,,,79,127
10696,note_off,96,0,0,,2,,,74,127
10697,note_off,1,0,0,,7,,,55,127
10698,note_on,1,0,0,,10,,,57,127
10698,note_on,0,0,0,,1,,,73,127
10698,note_on,0,0,0,,2,,,74,127
10813,note_on,115,0,0,,12,,,71,127
10830,note_off,17,0,0,,2,,,74,127
10830,note_off,0,0,0,,1,,,73,127
10927,note_off,97,0,0,,10,,,57,127
10928,note_on,1,0,0,,1,,,61,127
10928,note_on,0,0,0,,10,,,69,127
10945,note_off,17,0,0,,12,,,71,127
11043,note_on,98,0,0,,7,,,79,127
11060,note_off,17,0,0,,10,,,69,127
11157,note_off,97,0,0,,1,,,61,127
11158,note_on,1,0,0,,2,,,62,127
11158,note_on,0,0,0,,5,,,77,127
11175,note_off,17,0,0,,7,,,79,127
11273,note_on,98,0,0,,10,,,69,127
11387,note_off,114,0,0,,5,,,77,127
11387,note_off,0,0,0,,2,,,62,127
11388,note_on,1,0,0,,7,,,55,127
11388,note_on,0,0,0,,4,,,76,127
11388,note_on,0,0,0,,11,,,70,127
11405,note_off,17,0,0,,10,,,69,127
11503,note_on,98,0,0,,2,,,74,127
11520,note_off,17,0,0,,4,,,76,127
11617,note_off,97,0,0,,7,,,55,127
11618,note_on,1,0,0,,10,,,57,127
11618,note_on,0,0,0,,1,,,73,127
11635,note_off,17,0,0,,2,,,74,127
11732,note_off,97,0,0,,11,,,70,127
11733,note_on,1,0,0,,10,,,69,127
11847,note_off,114,0,0,,1,,,73,127
11847,note_off,0,0,0,,10,,,57,127
11848,note_on,1,0,0,,11,,,58,127
11848,note_on,0,0,0,,2,,,74,127
11962,note_off,114,0,0,,10,,,69,127
11963,note_on,1,0,0,,7,,,67,127
12077,note_off,114,0,0,,11,,,58,127
12078,note_on,1,0,0,,10,,,45,127
12095,note_off,17,0,0,,7,,,67,127
12192,note_off,97,0,0,,2,,,74,127
12193,note_on,1,0,0,,4,,,76,127
12307,note_off,114,0,0,,10,,,45,127
12308,note_on,1,0,0,,10,,,57,127
12397,note_off,89,0,0,,4,,,76,127
12423,note_on,26,0,0,,10,,,69,127
12537,note_off,114,0,0,,10,,,57,127
12538,note_on,1,0,0,,7,,,55,127
12538,note_on,0,0,0,,0,,,72,127
12538,note_on,0,0,0,,11,,,70,127
12555,note_off,17,0,0,,10,,,69,127
12653,note_on,98,0,0,,10,,,69,127
12670,note_off,17,0,0,,11,,,70,127
12670,note_off,0,0,0,,0,,,72,127
12768,note_on,98,0,0,,2,,,62,127
12768,note_on,0,0,0,,11,,,70,127
12785,note_off,17,0,0,,10,,,69,127
12883,note_on,98,0,0,,2,,,74,127
12900,note_off,17,0,0,,11,,,70,127
12997,note_off,97,0,0,,7,,,55,127
12998,note_on,1,0,0,,10,,,57,127
12998,note_on,0,0,0,,1,,,73,127
13015,note_off,17,0,0,,2,,,74,127
13113,note_on,98,0,0,,2,,,74,127
13130,note_off,17,0,0,,1,,,73,127
13227,note_off,97,0,0,,2,,,62,127
13228,note_on,1,0,0,,4,,,64,127
13228,note_on,0,0,0,,4,,,76,127
13245,note_off,17,0,0,,2,,,74,127
13343,note_on,98,0,0,,10,,,69,127
13360,note_off,17,0,0,,4,,,76,127
13457,note_off,97,0,0,,10,,,57,127
13458,note_on,1,0,0,,7,,,55,127
13458,note_on,0,0,0,,11,,,70,127
13458,note_on,0,0,0,,0,,,72,127
13475,note_off,17,0,0,,10,,,69,127
13573,note_on,98,0,0,,10,,,69,127
13590,note_off,17,0,0,,0,,,72,127
13590,note_off,0,0,0,,11,,,70,127
13687,note_off,97,0,0,,4,,,64,127
13688,note_on,1,0,0,,2,,,62,127
13688,note_on,0,0,0,,11,,,70,127
13705,note_off,17,0,0,,10,,,69,127
13803,note_on,98,0,0,,2,,,74,127
13820,note_off,17,0,0,,11,,,70,127
13917,note_off,97,0,0,,7,,,55,127
13918,note_on,1,0,0,,10,,,57,127
13918,note_on,0,0,0,,1,,,73,127
13935,note_off,17,0,0,,2,,,74,127
14033,note_on,98,0,0,,2,,,74,127
14050,note_off,17,0,0,,1,,,73,127
14147,note_off,97,0,0,,2,,,62,127
14148,note_on,1,0,0,,4,,,64,127
14148,note_on,0,0,0,,4,,,76,127
14165,note_off,17,0,0,,2,,,74,127
14263,note_on,98,0,0,,10,,,69,127
14280,note_off,17,0,0,,4,,,76,127
14377,note_off,97,0,0,,10,,,57,127
14378,note_on,1,0,0,,7,,,55,127
14378,note_on,0,0,0,,11,,,70,127
14378,note_on,0,0,0,,0,,,72,127
14395,note_off,17,0,0,,10,,,69,127
14493,note_on,98,0,0,,10,,,69,127
14510,note_off,17,0,0,,0,,,72,127
14510,note_off,0,0,0,,11,,,70,127
14607,note_off,97,0,0,,4,,,64,127
14608,note_on,1,0,0,,2,,,62,127
14608,note_on,0,0,0,,11,,,70,127
14625,note_off,17,0,0,,10,,,69,127
14723,note_on,98,0,0,,2,,,74,127
14740,note_off,17,0,0,,11,,,70,127
14837,note_off,97,0,0,,2,,,62,127
14837,note_off,0,0,0,,7,,,55,127
14838,note_on,1,0,0,,10,,,57,127
14838,note_on,0,0,0,,1,,,73,127
14855,note_off,17,0,0,,2,,,74,127
14953,note_on,98,0,0,,2,,,74,127
14970,note_off,17,0,0,,1,,,73,127
15068,note_on,98,0,0,,4,,,76,127
15085,note_off,17,0,0,,2,,,74,127
15183,note_on,98,0,0,,10,,,81,127
15200,note_off,17,0,0,,4,,,76,127
15298,note_on,98,0,0,,10,,,69,127
15356,note_off,58,0,0,,10,,,81,127
15412,note_off,56,0,0,,10,,,57,127
15413,note_on,1,0,0,,10,,,57,127
15527,note_off,114,0,0,,10,,,69,127
15528,note_on,1,0,0,,10,,,69,127
15545,note_off,17,0,0,,10,,,57,127
15643,note_on,98,0,0,,5,,,77,127
15660,note_off,17,0,0,,10,,,69,127
15758,note_on,98,0,0,,10,,,57,127
15758,note_on,0,0,0,,2,,,74,127
15758,note_on,0,0,0,,1,,,73,127
15775,note_off,17,0,0,,5,,,77,127
15873,note_on,98,0,0,,12,,,71,127
15890,note_off,17,0,0,,1,,,73,127
15890,note_off,0,0,0,,2,,,74,127
15988,note_on,98,0,0,,10,,,69,127
16005,note_off,17,0,0,,12,,,71,127
16103,note_on,98,0,0,,10,,,81,127
16120,note_off,17,0,0,,10,,,69,127
16218,note_on,98,0,0,,10,,,69,127
16276,note_off,58,0,0,,10,,,81,127
16332,note_off,56,0,0,,10,,,57,127
16333,note_on,1,0,0,,10,,,57,127
16447,note_off,114,0,0,,10,,,69,127
16448,note_on,1,0,0,,10,,,69,127
16465,note_off,17,0,0,,10,,,57,127
16563,note_on,98,0,0,,4,,,76,127
16580,note_off,17,0,0,,10,,,69,127
16678,note_on,98,0,0,,10,,,57,127
16678,note_on,0,0,0,,1,,,73,127
16678,note_on,0,0,0,,2,,,74,127
16695,note_off,17,0,0,,4,,,76,127
16793,note_on,98,0,0,,12,,,71,127
16810,note_off,17,0,0,,2,,,74,127
16810,note_off,0,0,0,,1,,,73,127
16908,note_on,98,0,0,,10,,,69,127
16925,note_off,17,0,0,,12,,,71,127
17023,note_on,98,0,0,,10,,,81,127
17040,note_off,17,0,0,,10,,,69,127
17138,note_on,98,0,0,,10,,,69,127
17196,note_off,58,0,0,,10,,,81,127
17252,note_off,56,0,0,,10,,,57,127
17253,note_on,1,0,0,,10,,,57,127
17367,note_off,114,0,0,,10,,,69,127
17368,note_on,1,0,0,,10,,,69,127
17385,note_off,17,0,0,,10,,,57,127
17483,note_on,98,0,0,,2,,,74,127
17500,note_off,17,0,0,,10,,,69,127
17597,note_off,97,0,0,,2,,,74,127
17598,note_on,1,0,0,,10,,,57,127
17598,note_on,0,0,0,,2,,,74,127
17598,note_on,0,0,0,,1,,,73,127
17713,note_on,115,0,0,,12,,,71,127
17730,note_off,17,0,0,,1,,,73,127
17730,note_off,0,0,0,,2,,,74,127
17828,note_on,98,0,0,,10,,,69,127
17845,note_off,17,0,0,,12,,,71,127
17943,note_on,98,0,0,,10,,,81,127
17960,note_off,17,0,0,,10,,,69,127
18058,note_on,98,0,0,,10,,,69,127
18116,note_off,58,0,0,,10,,,81,127
18172,note_off,56,0,0,,10,,,57,127
18173,note_on,1,0,0,,10,,,57,127
18287,note_off,114,0,0,,10,,,69,127
18288,note_on,1,0,0,,10,,,69,127
18305,note_off,17,0,0,,10,,,57,127
18403,note_on,98,0,0,,5,,,77,127
18420,note_off,17,0,0,,10,,,69,127
18518,note_on,98,0,0,,10,,,57,127
18518,note_on,0,0,0,,1,,,73,127
18518,note_on,0,0,0,,2,,,74,127
18535,note_off,17,0,0,,5,,,77,127
18633,note_on,98,0,0,,12,,,71,127
18650,note_off,17,0,0,,2,,,74,127
18650,note_off,0,0,0,,1,,,73,127
18748,note_on,98,0,0,,10,,,69,127
18765,note_off,17,0,0,,12,,,71,127
18863,note_on,98,0,0,,10,,,81,127
18880,note_off,17,0,0,,10,,,69,127
18978,note_on,98,0,0,,10,,,69,127
19036,note_off,58,0,0,,10,,,81,127
19092,note_off,56,0,0,,10,,,57,127
19093,note_on,1,0,0,,10,,,57,127
19207,note_off,114,0,0,,10,,,69,127
19208,note_on,1,0,0,,10,,,69,127
19225,note_off,17,0,0,,10,,,57,127
19323,note_on,98,0,0,,4,,,76,127
19340,note_off,17,0,0,,10,,,69,127
19438,note_on,98,0,0,,10,,,57,127
19438,note_on,0,0,0,,2,,,74,127
19438,note_on,0,0,0,,1,,,73,127
19455,note_off,17,0,0,,4,,,76,127
19553,note_on,98,0,0,,12,,,71,127
19570,note_off,17,0,0,,1,,,73,127
19570,note_off,0,0,0,,2,,,74,127
19668,note_on,98,0,0,,10,,,69,127
19685,note_off,17,0,0,,12,,,71,127
19783,note_on,98,0,0,,10,,,81,127
19800,note_off,17,0,0,,10,,,69,127
19898,note_on,98,0,0,,10,,,69,127
19956,note_off,58,0,0,,10,,,81,127
20012,note_off,56,0,0,,10,,,57,127
20013,note_on,1,0,0,,10,,,57,127
20127,note_off,114,0,0,,10,,,69,127
20128,note_on,1,0,0,,10,,,69,127
20145,note_off,17,0,0,,10,,,57,127
20243,note_on,98,0,0,,2,,,74,127
20260,note_off,17,0,0,,10,,,69,127
20357,note_off,97,0,0,,2,,,74,127
20358,note_on,1,0,0,,10,,,57,127
20358,note_on,0,0,0,,1,,,73,127
20358,note_on,0,0,0,,2,,,74,127
20473,note_on,115,0,0,,12,,,71,127
20490,note_off,17,0,0,,2,,,74,127
20490,note_off,0,0,0,,1,,,73,127
20588,note_on,98,0,0,,10,,,69,127
20605,note_off,17,0,0,,12,,,71,127
20703,note_on,98,0,0,,10,,,81,127
20720,note_off,17,0,0,,10,,,69,127
20817,note_off,97,0,0,,10,,,57,127
20818,note_on,1,0,0,,10,,,69,127
20932,note_off,114,0,0,,10,,,81,127
20933,note_on,1,0,0,,7,,,79,127
21047,note_off,114,0,0,,10,,,69,127
21048,note_on,1,0,0,,7,,,67,127
21048,note_on,0,0,0,,5,,,77,127
21065,note_off,17,0,0,,7,,,79,127
21163,note_on,98,0,0,,4,,,76,127
21180,note_off,17,0,0,,5,,,77,127
21276,note_off,96,0,0,,4,,,76,127
21277,note_off,1,0,0,,7,,,67,127
21278,note_on,1,0,0,,5,,,65,127
21278,note_on,0,0,0,,10,,,69,127
21278,note_on,0,0,0,,2,,,74,127
21278,note_on,0,0,0,,4,,,76,127
21393,note_on,115,0,0,,1,,,73,127
21410,note_off,17,0,0,,4,,,76,127
21410,note_off,0,0,0,,2,,,74,127
21507,note_off,97,0,0,,5,,,65,127
21508,note_on,1,0,0,,5,,,65,127
21508,note_on,0,0,0,,2,,,74,127
21525,note_off,17,0,0,,1,,,73,127
21623,note_on,98,0,0,,5,,,77,127
21640,note_off,17,0,0,,2,,,74,127
21737,note_off,97,0,0,,5,,,65,127
21737,note_off,0,0,0,,10,,,69,127
21738,note_on,1,0,0,,11,,,70,127
21738,note_on,0,0,0,,7,,,67,127
21738,note_on,0,0,0,,2,,,74,127
21755,note_off,17,0,0,,5,,,77,127
21853,note_on,98,0,0,,1,,,73,127
21870,note_off,17,0,0,,2,,,74,127
21967,note_off,97,0,0,,7,,,67,127
21968,note_on,1,0,0,,7,,,67,127
21968,note_on,0,0,0,,2,,,74,127
21985,note_off,17,0,0,,1,,,73,127
22083,note_on,98,0,0,,5,,,77,127
22100,note_off,17,0,0,,2,,,74,127
22197,note_off,97,0,0,,7,,,67,127
22197,note_off,0,0,0,,11,,,70,127
22198,note_on,1,0,0,,10,,,69,127
22198,note_on,0,0,0,,5,,,65,127
22198,note_on,0,0,0,,2,,,74,127
22215,note_off,17,0,0,,5,,,77,127
22313,note_on,98,0,0,,1,,,73,127
22330,note_off,17,0,0,,2,,,74,127
22427,note_off,97,0,0,,5,,,65,127
22428,note_on,1,0,0,,5,,,65,127
22428,note_on,0,0,0,,2,,,74,127
22445,note_off,17,0,0,,1,,,73,127
22543,note_on,98,0,0,,5,,,77,127
22560,note_off,17,0,0,,2,,,74,127
22657,note_off,97,0,0,,5,,,65,127
22657,note_off,0,0,0,,10,,,69,127
22658,note_on,1,0,0,,11,,,70,127
22658,note_on,0,0,0,,7,,,67,127
22658,note_on,0,0,0,,2,,,74,127
22675,note_off,17,0,0,,5,,,77,127
22773,note_on,98,0,0,,1,,,73,127
22790,note_off,17,0,0,,2,,,74,127
22887,note_off,97,0,0,,7,,,67,127
22888,note_on,1,0,0,,7,,,67,127
22888,note_on,0,0,0,,2,,,74,127
22905,note_off,17,0,0,,1,,,73,127
23003,note_on,98,0,0,,5,,,77,127
23020,note_off,17,0,0,,2,,,74,127
23117,note_off,97,0,0,,7,,,67,127
23117,note_off,0,0,0,,11,,,70,127
23118,note_on,1,0,0,,5,,,65,127
23118,note_on,0,0,0,,10,,,69,127
23118,note_on,0,0,0,,2,,,74,127
23135,note_off,17,0,0,,5,,,77,127
23233,note_on,98,0,0,,1,,,73,127
23250,note_off,17,0,0,,2,,,74,127
23347,note_off,97,0,0,,5,,,65,127
23348,note_on,1,0,0,,5,,,65,127
23348,note_on,0,0,0,,2,,,74,127
23365,note_off,17,0,0,,1,,,73,127
23463,note_on,98,0,0,,5,,,77,127
23480,note_off,17,0,0,,2,,,74,127
23577,note_off,97,0,0,,5,,,65,127
23577,note_off,0,0,0,,10,,,69,127
23578,note_on,1,0,0,,11,,,70,127
23578,note_on,0,0,0,,7,,,67,127
23578,note_on,0,0,0,,2,,,74,127
23595,note_off,17,0,0,,5,,,77,127
23693,note_on,98,0,0,,1,,,73,127
23710,note_off,17,0,0,,2,,,74,127
23807,note_off,97,0,0,,7,,,67,127
23808,note_on,1,0,0,,7,,,67,127
23808,note_on,0,0,0,,2,,,74,127
23825,note_off,17,0,0,,1,,,73,127
23923,note_on,98,0,0,,5,,,77,127
23940,note_off,17,0,0,,2,,,74,127
24037,note_off,97,0,0,,11,,,70,127
24038,note_on,1,0,0,,2,,,74,127
24055,note_off,17,0,0,,5,,,77,127
24152,note_off,97,0,0,,7,,,67,127
24153,note_on,1,0,0,,2,,,62,127
24267,note_off,114,0,0,,2,,,74,127
24268,note_on,1,0,0,,11,,,58,127
24268,note_on,0,0,0,,2,,,74,127
24268,note_on,0,0,0,,5,,,65,127
24285,note_off,17,0,0,,2,,,62,127
24383,note_on,98,0,0,,2,,,62,127
24400,note_off,17,0,0,,11,,,58,127
24497,note_off,97,0,0,,5,,,65,127
24497,note_off,0,0,0,,2,,,74,127
24498,note_on,1,0,0,,10,,,57,127
24498,note_on,0,0,0,,2,,,74,127
24498,note_on,0,0,0,,5,,,65,127
24515,note_off,17,0,0,,2,,,62,127
24613,note_on,98,0,0,,2,,,62,127
24630,note_off,17,0,0,,10,,,57,127
24727,note_off,97,0,0,,5,,,65,127
24727,note_off,0,0,0,,2,,,74,127
24728,note_on,1,0,0,,7,,,55,127
24728,note_on,0,0,0,,2,,,74,127
24728,note_on,0,0,0,,7,,,67,127
24745,note_off,17,0,0,,2,,,62,127
24843,note_on,98,0,0,,2,,,62,127
24860,note_off,17,0,0,,7,,,55,127
24957,note_off,97,0,0,,7,,,67,127
24957,note_off,0,0,0,,2,,,74,127
24958,note_on,1,0,0,,5,,,53,127
24958,note_on,0,0,0,,10,,,69,127
24958,note_on,0,0,0,,2,,,74,127
24975,note_off,17,0,0,,2,,,62,127
25073,note_on,98,0,0,,2,,,62,127
25090,note_off,17,0,0,,5,,,53,127
25187,note_off,97,0,0,,2,,,74,127
25187,note_off,0,0,0,,10,,,69,127
25188,note_on,1,0,0,,11,,,58,127
25188,note_on,0,0,0,,2,,,74,127
25188,note_on,0,0,0,,5,,,65,127
25205,note_off,17,0,0,,2,,,62,127
25303,note_on,98,0,0,,2,,,62,127
25320,note_off,17,0,0,,11,,,58,127
25417,note_off,97,0,0,,5,,,65,127
25417,note_off,0,0,0,,2,,,74,127
25418,note_on,1,0,0,,10,,,57,127
25418,note_on,0,0,0,,5,,,65,127
25418,note_on,0,0,0,,2,,,74,127
25435,note_off,17,0,0,,2,,,62,127
25533,note_on,98,0,0,,2,,,62,127
25550,note_off,17,0,0,,10,,,57,127
25647,note_off,97,0,0,,2,,,74,127
25647,note_off,0,0,0,,5,,,65,127
25648,note_on,1,0,0,,7,,,55,127
25648,note_on,0,0,0,,2,,,74,127
25648,note_on,0,0,0,,7,,,67,127
25665,note_off,17,0,0,,2,,,62,127
25763,note_on,98,0,0,,2,,,62,127
25780,note_off,17,0,0,,7,,,55,127
25877,note_off,97,0,0,,7,,,67,127
25877,note_off,0,0,0,,2,,,74,127
25878,note_on,1,0,0,,5,,,53,127
25878,note_on,0,0,0,,10,,,69,127
25878,note_on,0,0,0,,2,,,74,127
25895,note_off,17,0,0,,2,,,62,127
25993,note_on,98,0,0,,2,,,62,127
26010,note_off,17,0,0,,5,,,53,127
26107,note_off,97,0,0,,2,,,74,127
26107,note_off,0,0,0,,10,,,69,127
26108,note_on,1,0,0,,11,,,58,127
26108,note_on,0,0,0,,2,,,74,127
26108,note_on,0,0,0,,5,,,65,127
26125,note_off,17,0,0,,2,,,62,127
26223,note_on,98,0,0,,2,,,62,127
26240,note_off,17,0,0,,11,,,58,127
26337,note_off,97,0,0,,5,,,65,127
26337,note_off,0,0,0,,2,,,74,127
26338,note_on,1,0,0,,10,,,57,127
26338,note_on,0,0,0,,5,,,65,127
26338,note_on,0,0,0,,2,,,74,127
26355,note_off,17,0,0,,2,,,62,127
26453,note_on,98,0,0,,2,,,62,127
26470,note_off,17,0,0,,10,,,57,127
26567,note_off,97,0,0,,2,,,74,127
26567,note_off,0,0,0,,5,,,65,127
26568,note_on,1,0,0,,7,,,55,127
26568,note_on,0,0,0,,7,,,67,127
26568,note_on,0,0,0,,2,,,74,127
26585,note_off,17,0,0,,2,,,62,127
26683,note_on,98,0,0,,2,,,62,127
26700,note_off,17,0,0,,7,,,55,127
26797,note_off,97,0,0,,2,,,74,127
26797,note_off,0,0,0,,7,,,67,127
26798,note_on,1,0,0,,5,,,53,127
26798,note_on,0,0,0,,2,,,74,127
26798,note_on,0,0,0,,10,,,69,127
26815,note_off,17,0,0,,2,,,62,127
26913,note_on,98,0,0,,2,,,62,127
26930,note_off,17,0,0,,5,,,53,127
27027,note_off,97,0,0,,10,,,69,127
27027,note_off,0,0,0,,2,,,74,127
27028,note_on,1,0,0,,11,,,58,127
27028,note_on,0,0,0,,5,,,77,127
27028,note_on,0,0,0,,5,,,65,127
27045,note_off,17,0,0,,2,,,62,127
27143,note_on,98,0,0,,2,,,62,127
27160,note_off,17,0,0,,11,,,58,127
27257,note_off,97,0,0,,5,,,65,127
27257,note_off,0,0,0,,5,,,77,127
27258,note_on,1,0,0,,10,,,57,127
27258,note_on,0,0,0,,5,,,65,127
27258,note_on,0,0,0,,5,,,77,127
27275,note_off,17,0,0,,2,,,62,127
27373,note_on,98,0,0,,2,,,62,127
27390,note_off,17,0,0,,10,,,57,127
27487,note_off,97,0,0,,5,,,77,127
27487,note_off,0,0,0,,5,,,65,127
27488,note_on,1,0,0,,7,,,55,127
27488,note_on,0,0,0,,7,,,67,127
27488,note_on,0,0,0,,5,,,77,127
27505,note_off,17,0,0,,2,,,62,127
27603,note_on,98,0,0,,2,,,62,127
27620,note_off,17,0,0,,7,,,55,127
27717,note_off,97,0,0,,5,,,77,127
27717,note_off,0,0,0,,7,,,67,127
27718,note_on,1,0,0,,5,,,53,127
27718,note_on,0,0,0,,10,,,69,127
27718,note_on,0,0,0,,5,,,77,127
27735,note_off,17,0,0,,2,,,62,127
27833,note_on,98,0,0,,2,,,62,127
27850,note_off,17,0,0,,5,,,53,127
27947,note_off,97,0,0,,5,,,77,127
27947,note_off,0,0,0,,10,,,69,127
27948,note_on,1,0,0,,11,,,58,127
27948,note_on,0,0,0,,5,,,65,127
27948,note_on,0,0,0,,5,,,77,127
27965,note_off,17,0,0,,2,,,62,127
28063,note_on,98,0,0,,2,,,62,127
28080,note_off,17,0,0,,11,,,58,127
28177,note_off,97,0,0,,5,,,77,127
28177,note_off,0,0,0,,5,,,65,127
28178,note_on,1,0,0,,10,,,57,127
28178,note_on,0,0,0,,5,,,65,127
28178,note_on,0,0,0,,5,,,77,127
28195,note_off,17,0,0,,2,,,62,127
28293,note_on,98,0,0,,2,,,62,127
28310,note_off,17,0,0,,10,,,57,127
28407,note_off,97,0,0,,5,,,77,127
28407,note_off,0,0,0,,5,,,65,127
28408,note_on,1,0,0,,7,,,55,127
28408,note_on,0,0,0,,5,,,77,127
28408,note_on,0,0,0,,7,,,67,127
28425,note_off,17,0,0,,2,,,62,127
28523,note_on,98,0,0,,2,,,62,127
28540,note_off,17,0,0,,7,,,55,127
28637,note_off,97,0,0,,7,,,67,127
28637,note_off,0,0,0,,5,,,77,127
28638,note_on,1,0,0,,5,,,53,127
28638,note_on,0,0,0,,5,,,77,127
28638,note_on,0,0,0,,10,,,69,127
28655,note_off,17,0,0,,2,,,62,127
28753,note_on,98,0,0,,2,,,62,127
28770,note_off,17,0,0,,5,,,53,127
28867,note_off,97,0,0,,10,,,69,127
28867,note_off,0,0,0,,5,,,77,127
28868,note_on,1,0,0,,11,,,58,127
28868,note_on,0,0,0,,5,,,65,127
28868,note_on,0,0,0,,5,,,77,127
28885,note_off,17,0,0,,2,,,62,127
28983,note_on,98,0,0,,2,,,62,127
29000,note_off,17,0,0,,11,,,58,127
29097,note_off,97,0,0,,5,,,77,127
29097,note_off,0,0,0,,5,,,65,127
29098,note_on,1,0,0,,10,,,57,127
29098,note_on,0,0,0,,5,,,77,127
29098,note_on,0,0,0,,5,,,65,127
29115,note_off,17,0,0,,2,,,62,127
29213,note_on,98,0,0,,2,,,62,127
29230,note_off,17,0,0,,10,,,57,127
29327,note_off,97,0,0,,5,,,65,127
29327,note_off,0,0,0,,5,,,77,127
29328,note_on,1,0,0,,7,,,55,127
29328,note_on,0,0,0,,5,,,77,127
29328,note_on,0,0,0,,7,,,67,127
29345,note_off,17,0,0,,2,,,62,127
29443,note_on,98,0,0,,2,,,62,127
29460,note_off,17,0,0,,7,,,55,127
29557,note_off,97,0,0,,7,,,67,127
29557,note_off,0,0,0,,5,,,77,127
29558,note_on,1,0,0,,5,,,53,127
29558,note_on,0,0,0,,5,,,77,127
29558,note_on,0,0,0,,10,,,69,127
29575,note_off,17,0,0,,2,,,62,127
29673,note_on,98,0,0,,2,,,62,127
29690,note_off,17,0,0,,5,,,53,127
29787,note_off,97,0,0,,10,,,69,127
29787,note_off,0,0,0,,5,,,77,127
29788,note_on,1,0,0,,5,,,53,127
29788,note_on,0,0,0,,10,,,69,127
29788,note_on,0,0,0,,10,,,81,127
29805,note_off,17,0,0,,2,,,62,127
29903,note_on,98,0,0,,2,,,62,127
29920,note_off,17,0,0,,5,,,53,127
30017,note_off,97,0,0,,10,,,81,127
30017,note_off,0,0,0,,10,,,69,127
30018,note_on,1,0,0,,4,,,52,127
30018,note_on,0,0,0,,10,,,81,127
30018,note_on,0,0,0,,10,,,69,127
30035,note_off,17,0,0,,2,,,62,127
30133,note_on,98,0,0,,1,,,61,127
30150,note_off,17,0,0,,4,,,52,127
30247,note_off,97,0,0,,10,,,69,127
30247,note_off,0,0,0,,10,,,81,127
30248,note_on,1,0,0,,2,,,50,127
30248,note_on,0,0,0,,12,,,71,127
30248,note_on,0,0,0,,10,,,81,127
30265,note_off,17,0,0,,1,,,61,127
30363,note_on,98,0,0,,2,,,62,127
30380,note_off,17,0,0,,2,,,50,127
30477,note_off,97,0,0,,10,,,81,127
30477,note_off,0,0,0,,12,,,71,127
30478,note_on,1,0,0,,10,,,57,127
30478,note_on,0,0,0,,10,,,81,127
30478,note_on,0,0,0,,1,,,73,127
30495,note_off,17,0,0,,2,,,62,127
30593,note_on,98,0,0,,4,,,64,127
30610,note_off,17,0,0,,10,,,57,127
30707,note_off,97,0,0,,1,,,73,127
30707,note_off,0,0,0,,10,,,81,127
30708,note_on,1,0,0,,5,,,53,127
30708,note_on,0,0,0,,10,,,81,127
30708,note_on,0,0,0,,10,,,69,127
30725,note_off,17,0,0,,4,,,64,127
30823,note_on,98,0,0,,2,,,62,127
30840,note_off,17,0,0,,5,,,53,127
30937,note_off,97,0,0,,10,,,69,127
30937,note_off,0,0,0,,10,,,81,127
30938,note_on,1,0,0,,4,,,52,127
30938,note_on,0,0,0,,10,,,69,127
30938,note_on,0,0,0,,10,,,81,127
30955,note_off,17,0,0,,2,,,62,127
31053,note_on,98,0,0,,1,,,61,127
31070,note_off,17,0,0,,4,,,52,127
31167,note_off,97,0,0,,10,,,81,127
31167,note_off,0,0,0,,10,,,69,127
31168,note_on,1,0,0,,2,,,50,127
31168,note_on,0,0,0,,10,,,81,127
31168,note_on,0,0,0,,12,,,71,127
31185,note_off,17,0,0,,1,,,61,127
31283,note_on,98,0,0,,2,,,62,127
31300,note_off,17,0,0,,2,,,50,127
31397,note_off,97,0,0,,12,,,71,127
31397,note_off,0,0,0,,10,,,81,127
31398,note_on,1,0,0,,10,,,57,127
31398,note_on,0,0,0,,10,,,81,127
31398,note_on,0,0,0,,1,,,73,127
31415,note_off,17,0,0,,2,,,62,127
31513,note_on,98,0,0,,4,,,64,127
31530,note_off,17,0,0,,10,,,57,127
31627,note_off,97,0,0,,1,,,73,127
31627,note_off,0,0,0,,10,,,81,127
31628,note_on,1,0,0,,5,,,53,127
31628,note_on,0,0,0,,10,,,81,127
31628,note_on,0,0,0,,10,,,69,127
31645,note_off,17,0,0,,4,,,64,127
31743,note_on,98,0,0,,2,,,62,127
31760,note_off,17,0,0,,5,,,53,127
31857,note_off,97,0,0,,10,,,69,127
31857,note_off,0,0,0,,10,,,81,127
31858,note_on,1,0,0,,4,,,52,127
31858,note_on,0,0,0,,10,,,81,127
31858,note_on,0,0,0,,10,,,69,127
31875,note_off,17,0,0,,2,,,62,127
31973,note_on,98,0,0,,1,,,61,127
31990,note_off,17,0,0,,4,,,52,127
32087,note_off,97,0,0,,10,,,69,127
32087,note_off,0,0,0,,10,,,81,127
32088,note_on,1,0,0,,2,,,50,127
32088,note_on,0,0,0,,10,,,81,127
32088,note_on,0,0,0,,12,,,71,127
32105,note_off,17,0,0,,1,,,61,127
32203,note_on,98,0,0,,2,,,62,127
32220,note_off,17,0,0,,2,,,50,127
32317,note_off,97,0,0,,12,,,71,127
32317,note_off,0,0,0,,10,,,81,127
32318,note_on,1,0,0,,10,,,57,127
32318,note_on,0,0,0,,10,,,81,127
32318,note_on,0,0,0,,1,,,73,127
32335,note_off,17,0,0,,2,,,62,127
32433,note_on,98,0,0,,7,,,79,127
32450,note_off,17,0,0,,10,,,81,127
32547,note_off,97,0,0,,1,,,73,127
32547,note_off,0,0,0,,10,,,57,127
32548,note_on,1,0,0,,7,,,55,127
32548,note_on,0,0,0,,2,,,74,127
32548,note_on,0,0,0,,5,,,77,127
32565,note_off,17,0,0,,7,,,79,127
32663,note_on,98,0,0,,4,,,76,127
32680,note_off,17,0,0,,5,,,77,127
32777,note_off,97,0,0,,2,,,74,127
32777,note_off,0,0,0,,7,,,55,127
32778,note_on,1,0,0,,10,,,57,127
32778,note_on,0,0,0,,10,,,81,127
32778,note_on,0,0,0,,5,,,77,127
32795,note_off,17,0,0,,4,,,76,127
32893,note_on,98,0,0,,2,,,74,127
32910,note_off,17,0,0,,5,,,77,127
33007,note_off,97,0,0,,10,,,81,127
33008,note_on,1,0,0,,10,,,45,127
33008,note_on,0,0,0,,7,,,79,127
33008,note_on,0,0,0,,4,,,76,127
33025,note_off,17,0,0,,2,,,74,127
33123,note_on,98,0,0,,1,,,73,127
33140,note_off,17,0,0,,4,,,76,127
33234,note_off,94,0,0,,10,,,57,127
33236,note_off,2,0,0,,10,,,45,127
33237,note_off,1,0,0,,7,,,79,127
33238,note_on,1,0,0,,2,,,74,127
33255,note_off,17,0,0,,1,,,73,127
33353,note_on,98,0,0,,2,,,62,127
33467,note_off,114,0,0,,2,,,74,127
33468,note_on,1,0,0,,5,,,65,127
33468,note_on,0,0,0,,5,,,77,127
33485,note_off,17,0,0,,2,,,62,127
33583,note_on,98,0,0,,10,,,69,127
33600,note_off,17,0,0,,5,,,65,127
33698,note_on,98,0,0,,7,,,43,127
33715,note_off,17,0,0,,10,,,69,127
33812,note_off,97,0,0,,5,,,77,127
33813,note_on,1,0,0,,11,,,70,127
33928,note_on,115,0,0,,4,,,76,127
33945,note_off,17,0,0,,11,,,70,127
34043,note_on,98,0,0,,2,,,74,127
34060,note_off,17,0,0,,4,,,76,127
34157,note_off,97,0,0,,7,,,43,127
34158,note_on,1,0,0,,10,,,57,127
34158,note_on,0,0,0,,1,,,73,127
34175,note_off,17,0,0,,2,,,74,127
34273,note_on,98,0,0,,10,,,69,127
34386,note_off,113,0,0,,1,,,73,127
34387,note_off,1,0,0,,10,,,57,127
34388,note_on,1,0,0,,11,,,58,127
34388,note_on,0,0,0,,7,,,67,127
34405,note_off,17,0,0,,10,,,69,127
34503,note_on,98,0,0,,2,,,74,127
34520,note_off,17,0,0,,7,,,67,127
34617,note_off,97,0,0,,11,,,58,127
34618,note_on,1,0,0,,10,,,57,127
34618,note_on,0,0,0,,1,,,73,127
34635,note_off,17,0,0,,2,,,74,127
34733,note_on,98,0,0,,10,,,69,127
34846,note_off,113,0,0,,1,,,73,127
34847,note_off,1,0,0,,10,,,57,127
34848,note_on,1,0,0,,7,,,55,127
34848,note_on,0,0,0,,11,,,70,127
34865,note_off,17,0,0,,10,,,69,127
34963,note_on,98,0,0,,2,,,74,127
34980,note_off,17,0,0,,11,,,70,127
35076,note_off,96,0,0,,7,,,55,127
35078,note_on,2,0,0,,4,,,76,127
35078,note_on,0,0,0,,1,,,73,127
35095,note_off,17,0,0,,2,,,74,127
35193,note_on,98,0,0,,2,,,62,127
35307,note_off,114,0,0,,1,,,73,127
35307,note_off,0,0,0,,4,,,76,127
35308,note_on,1,0,0,,5,,,65,127
35308,note_on,0,0,0,,5,,,77,127
35308,note_on,0,0,0,,2,,,74,127
35325,note_off,17,0,0,,2,,,62,127
35423,note_on,98,0,0,,10,,,69,127
35440,note_off,17,0,0,,5,,,65,127
35538,note_on,98,0,0,,7,,,43,127
35555,note_off,17,0,0,,10,,,69,127
35652,note_off,97,0,0,,2,,,74,127
35652,note_off,0,0,0,,5,,,77,127
35653,note_on,1,0,0,,11,,,70,127
35768,note_on,115,0,0,,4,,,76,127
35785,note_off,17,0,0,,11,,,70,127
35883,note_on,98,0,0,,2,,,74,127
35900,note_off,17,0,0,,4,,,76,127
35997,note_off,97,0,0,,7,,,43,127
35998,note_on,1,0,0,,10,,,57,127
35998,note_on,0,0,0,,1,,,73,127
36015,note_off,17,0,0,,2,,,74,127
36113,note_on,98,0,0,,10,,,69,127
36226,note_off,113,0,0,,1,,,73,127
36227,note_off,1,0,0,,10,,,57,127
36228,note_on,1,0,0,,11,,,58,127
36228,note_on,0,0,0,,7,,,67,127
36245,note_off,17,0,0,,10,,,69,127
36343,note_on,98,0,0,,2,,,74,127
36360,note_off,17,0,0,,7,,,67,127
36457,note_off,97,0,0,,11,,,58,127
36458,note_on,1,0,0,,10,,,57,127
36458,note_on,0,0,0,,1,,,73,127
36475,note_off,17,0,0,,2,,,74,127
36573,note_on,98,0,0,,10,,,69,127
36686,note_off,113,0,0,,1,,,73,127
36687,note_off,1,0,0,,10,,,57,127
36688,note_on,1,0,0,,7,,,55,127
36688,note_on,0,0,0,,11,,,70,127
36705,note_off,17,0,0,,10,,,69,127
36803,note_on,98,0,0,,2,,,74,127
36820,note_off,17,0,0,,11,,,70,127
36916,note_off,96,0,0,,7,,,55,127
36918,note_on,2,0,0,,4,,,76,127
36918,note_on,0,0,0,,1,,,73,127
36935,note_off,17,0,0,,2,,,74,127
37033,note_on,98,0,0,,2,,,62,127
37147,note_off,114,0,0,,1,,,73,127
37147,note_off,0,0,0,,4,,,76,127
37148,note_on,1,0,0,,5,,,65,127
37148,note_on,0,0,0,,5,,,77,127
37148,note_on,0,0,0,,2,,,74,127
37165,note_off,17,0,0,,2,,,62,127
37263,note_on,98,0,0,,10,,,69,127
37280,note_off,17,0,0,,5,,,65,127
37378,note_on,98,0,0,,7,,,43,127
37395,note_off,17,0,0,,10,,,69,127
37492,note_off,97,0,0,,2,,,74,127
37492,note_off,0,0,0,,5,,,77,127
37493,note_on,1,0,0,,11,,,70,127
37608,note_on,115,0,0,,4,,,76,127
37625,note_off,17,0,0,,11,,,70,127
37723,note_on,98,0,0,,2,,,74,127
37740,note_off,17,0,0,,4,,,76,127
37837,note_off,97,0,0,,7,,,43,127
37838,note_on,1,0,0,,10,,,57,127
37838,note_on,0,0,0,,1,,,73,127
37855,note_off,17,0,0,,2,,,74,127
37953,note_on,98,0,0,,10,,,69,127
38066,note_off,113,0,0,,1,,,73,127
38067,note_off,1,0,0,,10,,,57,127
38068,note_on,1,0,0,,11,,,58,127
38068,note_on,0,0,0,,7,,,67,127
38085,note_off,17,0,0,,10,,,69,127
38183,note_on,98,0,0,,2,,,74,127
38200,note_off,17,0,0,,7,,,67,127
38297,note_off,97,0,0,,11,,,58,127
38298,note_on,1,0,0,,10,,,57,127
38298,note_on,0,0,0,,1,,,73,127
38315,note_off,17,0,0,,2,,,74,127
38413,note_on,98,0,0,,10,,,69,127
38526,note_off,113,0,0,,1,,,73,127
38527,note_off,1,0,0,,10,,,57,127
38528,note_on,1,0,0,,7,,,55,127
38528,note_on,0,0,0,,11,,,70,127
38545,note_off,17,0,0,,10,,,69,127
38643,note_on,98,0,0,,2,,,74,127
38660,note_off,17,0,0,,11,,,70,127
38756,note_off,96,0,0,,7,,,55,127
38758,note_on,2,0,0,,4,,,76,127
38758,note_on,0,0,0,,1,,,73,127
38775,note_off,17,0,0,,2,,,74,127
38873,note_on,98,0,0,,1,,,61,127
38987,note_off,114,0,0,,1,,,73,127
38987,note_off,0,0,0,,4,,,76,127
38988,note_on,1,0,0,,4,,,64,127
38988,note_on,0,0,0,,7,,,79,127
39005,note_off,17,0,0,,1,,,61,127
39103,note_on,98,0,0,,7,,,67,127
39120,note_off,17,0,0,,4,,,64,127
39218,note_on,98,0,0,,10,,,45,127
39235,note_off,17,0,0,,7,,,67,127
39332,note_off,97,0,0,,7,,,79,127
39333,note_on,1,0,0,,7,,,79,127
39333,note_on,0,0,0,,4,,,76,127
39448,note_on,115,0,0,,5,,,77,127
39448,note_on,0,0,0,,2,,,74,127
39465,note_off,17,0,0,,4,,,76,127
39465,note_off,0,0,0,,7,,,79,127
39563,note_on,98,0,0,,4,,,76,127
39580,note_off,17,0,0,,2,,,74,127
39580,note_off,0,0,0,,5,,,77,127
39677,note_off,97,0,0,,10,,,45,127
39678,note_on,1,0,0,,2,,,50,127
39678,note_on,0,0,0,,5,,,77,127
39678,note_on,0,0,0,,10,,,81,127
39695,note_off,17,0,0,,4,,,76,127
39793,note_on,98,0,0,,2,,,74,127
39810,note_off,17,0,0,,5,,,77,127
39907,note_off,97,0,0,,10,,,81,127
39907,note_off,0,0,0,,2,,,50,127
39908,note_on,1,0,0,,7,,,55,127
39908,note_on,0,0,0,,11,,,82,127
39908,note_on,0,0,0,,7,,,79,127
39925,note_off,17,0,0,,2,,,74,127
40023,note_on,98,0,0,,4,,,76,127
40040,note_off,17,0,0,,7,,,79,127
40137,note_off,97,0,0,,11,,,82,127
40137,note_off,0,0,0,,7,,,55,127
40138,note_on,1,0,0,,10,,,57,127
40138,note_on,0,0,0,,10,,,81,127
40138,note_on,0,0,0,,5,,,77,127
40155,note_off,17,0,0,,4,,,76,127
40253,note_on,98,0,0,,2,,,74,127
40270,note_off,17,0,0,,5,,,77,127
40367,note_off,97,0,0,,10,,,81,127
40368,note_on,1,0,0,,10,,,45,127
40368,note_on,0,0,0,,7,,,79,127
40368,note_on,0,0,0,,4,,,76,127
40385,note_off,17,0,0,,2,,,74,127
40483,note_on,98,0,0,,1,,,73,127
40500,note_off,17,0,0,,4,,,76,127
40594,note_off,94,0,0,,10,,,57,127
40598,note_off,4,0,0,,7,,,79,127
40598,note_off,0,0,0,,10,,,45,127
40599,note_on,1,0,0,,2,,,50,127
40599,note_on,0,0,0,,2,,,74,127
40599,note_on,0,0,0,,5,,,77,127
40616,note_off,17,0,0,,1,,,73,127
40714,note_on,98,0,0,,10,,,69,127
40731,note_off,17,0,0,,2,,,74,127
40828,note_off,97,0,0,,2,,,50,127
40829,note_on,1,0,0,,7,,,55,127
40829,note_on,0,0,0,,11,,,70,127
40829,note_on,0,0,0,,7,,,67,127
40846,note_off,17,0,0,,10,,,69,127
40943,note_off,97,0,0,,5,,,77,127
40944,note_on,1,0,0,,4,,,76,127
40961,note_off,17,0,0,,11,,,70,127
41058,note_off,97,0,0,,7,,,67,127
41058,note_off,0,0,0,,7,,,55,127
41059,note_on,1,0,0,,10,,,57,127
41059,note_on,0,0,0,,5,,,65,127
41059,note_on,0,0,0,,10,,,69,127
41076,note_off,17,0,0,,4,,,76,127
41174,note_on,98,0,0,,2,,,74,127
41191,note_off,17,0,0,,10,,,69,127
41288,note_off,97,0,0,,5,,,65,127
41289,note_on,1,0,0,,10,,,45,127
41289,note_on,0,0,0,,7,,,67,127
41289,note_on,0,0,0,,4,,,64,127
41306,note_off,17,0,0,,2,,,74,127
41404,note_on,98,0,0,,1,,,73,127
41421,note_off,17,0,0,,7,,,67,127
41515,note_off,94,0,0,,10,,,57,127
41519,note_off,4,0,0,,4,,,64,127
41519,note_off,0,0,0,,10,,,45,127
41520,note_on,1,0,0,,2,,,50,127
41520,note_on,0,0,0,,2,,,74,127
41520,note_on,0,0,0,,5,,,65,127
41537,note_off,17,0,0,,1,,,73,127
41635,note_on,98,0,0,,10,,,69,127
41652,note_off,17,0,0,,2,,,74,127
41749,note_off,97,0,0,,5,,,65,127
41749,note_off,0,0,0,,2,,,50,127
41750,note_on,1,0,0,,7,,,55,127
41750,note_on,0,0,0,,7,,,67,127
41750,note_on,0,0,0,,11,,,70,127
41767,note_off,17,0,0,,10,,,69,127
41865,note_on,98,0,0,,4,,,64,127
41882,note_off,17,0,0,,7,,,67,127
41979,note_off,97,0,0,,11,,,70,127
41979,note_off,0,0,0,,7,,,55,127
41980,note_on,1,0,0,,10,,,57,127
41980,note_on,0,0,0,,5,,,65,127
41980,note_on,0,0,0,,10,,,69,127
41997,note_off,17,0,0,,4,,,64,127
42095,note_on,98,0,0,,2,,,62,127
42112,note_off,17,0,0,,5,,,65,127
42209,note_off,97,0,0,,10,,,69,127
42210,note_on,1,0,0,,10,,,45,127
42210,note_on,0,0,0,,7,,,67,127
42210,note_on,0,0,0,,4,,,64,127
42227,note_off,17,0,0,,2,,,62,127
42325,note_on,98,0,0,,1,,,61,127
42342,note_off,17,0,0,,4,,,64,127
42436,note_off,94,0,0,,10,,,57,127
42440,note_off,4,0,0,,10,,,45,127
42441,note_on,1,0,0,,2,,,50,127
42441,note_on,0,0,0,,2,,,62,127
42458,note_off,17,0,0,,1,,,61,127
42555,note_off,97,0,0,,7,,,67,127
42556,note_on,1,0,0,,10,,,69,127
42671,note_on,115,0,0,,6,,,66,127
42688,note_off,17,0,0,,10,,,69,127
42786,note_on,98,0,0,,7,,,67,127
42803,note_off,17,0,0,,6,,,66,127
42901,note_on,98,0,0,,10,,,69,127
42918,note_off,17,0,0,,7,,,67,127
43015,note_off,97,0,0,,2,,,62,127
43015,note_off,0,0,0,,2,,,50,127
43016,note_on,1,0,0,,0,,,60,127
43131,note_on,115,0,0,,11,,,58,127
43148,note_off,17,0,0,,0,,,60,127
43246,note_on,98,0,0,,10,,,57,127
43263,note_off,17,0,0,,11,,,58,127
43361,note_on,98,0,0,,11,,,58,127
43378,note_off,17,0,0,,10,,,57,127
43475,note_off,97,0,0,,10,,,69,127
43476,note_on,1,0,0,,7,,,67,127
43590,note_off,114,0,0,,11,,,58,127
43591,note_on,1,0,0,,10,,,57,127
43705,note_off,114,0,0,,7,,,67,127
43706,note_on,1,0,0,,6,,,66,127
43820,note_off,114,0,0,,10,,,57,127
43821,note_on,1,0,0,,11,,,58,127
43935,note_off,114,0,0,,6,,,66,127
43936,note_on,1,0,0,,7,,,67,127
44050,note_off,114,0,0,,11,,,58,127
44051,note_on,1,0,0,,1,,,61,127
44165,note_off,114,0,0,,7,,,67,127
44166,note_on,1,0,0,,4,,,64,127
44270,note_off,104,0,0,,4,,,64,127
44278,note_off,8,0,0,,1,,,61,127
44280,note_on,2,0,0,,2,,,62,127
44395,note_on,115,0,0,,10,,,57,127
44412,note_off,17,0,0,,2,,,62,127
44510,note_on,98,0,0,,6,,,66,127
44527,note_off,17,0,0,,10,,,57,127
44625,note_on,98,0,0,,4,,,64,127
44642,note_off,17,0,0,,6,,,66,127
44740,note_on,98,0,0,,2,,,62,127
44757,note_off,17,0,0,,4,,,64,127
44855,note_on,98,0,0,,10,,,57,127
44872,note_off,17,0,0,,2,,,62,127
44970,note_on,98,0,0,,10,,,69,127
44987,note_off,17,0,0,,10,,,57,127
45085,note_on,98,0,0,,7,,,67,127
45102,note_off,17,0,0,,10,,,69,127
45200,note_on,98,0,0,,6,,,66,127
45217,note_off,17,0,0,,7,,,67,127
45315,note_on,98,0,0,,2,,,62,127
45332,note_off,17,0,0,,6,,,66,127
45430,note_on,98,0,0,,0,,,72,127
45447,note_off,17,0,0,,2,,,62,127
45545,note_on,98,0,0,,11,,,70,127
45562,note_off,17,0,0,,0,,,72,127
45660,note_on,98,0,0,,10,,,69,127
45677,note_off,17,0,0,,11,,,70,127
45775,note_on,98,0,0,,6,,,66,127
45792,note_off,17,0,0,,10,,,69,127
45890,note_on,98,0,0,,3,,,75,127
45907,note_off,17,0,0,,6,,,66,127
46005,note_on,98,0,0,,2,,,74,127
46022,note_off,17,0,0,,3,,,75,127
46120,note_on,98,0,0,,6,,,54,127
46120,note_on,0,0,0,,0,,,72,127
46137,note_off,17,0,0,,2,,,74,127
46235,note_on,98,0,0,,2,,,50,127
46252,note_off,17,0,0,,6,,,54,127
46350,note_on,98,0,0,,10,,,57,127
46367,note_off,17,0,0,,2,,,50,127
46465,note_on,98,0,0,,7,,,55,127
46482,note_off,17,0,0,,10,,,57,127
46580,note_on,98,0,0,,6,,,54,127
46597,note_off,17,0,0,,7,,,55,127
46695,note_on,98,0,0,,2,,,50,127
46712,note_off,17,0,0,,6,,,54,127
46809,note_off,97,0,0,,0,,,72,127
46810,note_on,1,0,0,,0,,,60,127
46810,note_on,0,0,0,,6,,,66,127
46827,note_off,17,0,0,,2,,,50,127
46925,note_on,98,0,0,,11,,,58,127
46925,note_on,0,0,0,,7,,,67,127
46942,note_off,17,0,0,,6,,,66,127
46942,note_off,0,0,0,,0,,,60,127
47040,note_on,98,0,0,,10,,,57,127
47040,note_on,0,0,0,,10,,,69,127
47057,note_off,17,0,0,,7,,,67,127
47057,note_off,0,0,0,,11,,,58,127
47155,note_on,98,0,0,,7,,,55,127
47155,note_on,0,0,0,,11,,,70,127
47172,note_off,17,0,0,,10,,,69,127
47172,note_off,0,0,0,,10,,,57,127
47270,note_on,98,0,0,,6,,,54,127
47270,note_on,0,0,0,,0,,,72,127
47287,note_off,17,0,0,,11,,,70,127
47287,note_off,0,0,0,,7,,,55,127
47385,note_on,98,0,0,,3,,,51,127
47402,note_off,17,0,0,,6,,,54,127
47500,note_on,98,0,0,,2,,,50,127
47517,note_off,17,0,0,,3,,,51,127
47615,note_on,98,0,0,,0,,,48,127
47632,note_off,17,0,0,,2,,,50,127
47729,note_off,97,0,0,,0,,,72,127
47730,note_on,1,0,0,,11,,,46,127
47730,note_on,0,0,0,,2,,,74,127
47747,note_off,17,0,0,,0,,,48,127
47845,note_on,98,0,0,,10,,,45,127
47845,note_on,0,0,0,,0,,,72,127
47862,note_off,17,0,0,,2,,,74,127
47862,note_off,0,0,0,,11,,,46,127
47960,note_on,98,0,0,,7,,,43,127
47960,note_on,0,0,0,,11,,,70,127
47977,note_off,17,0,0,,0,,,72,127
47977,note_off,0,0,0,,10,,,45,127
48075,note_on,98,0,0,,10,,,69,127
48092,note_off,17,0,0,,11,,,70,127
48189,note_off,97,0,0,,7,,,43,127
48190,note_on,1,0,0,,7,,,55,127
48190,note_on,0,0,0,,7,,,67,127
48207,note_off,17,0,0,,10,,,69,127
48305,note_on,98,0,0,,3,,,75,127
48322,note_off,17,0,0,,7,,,67,127
48419,note_off,97,0,0,,7,,,55,127
48420,note_on,1,0,0,,10,,,57,127
48420,note_on,0,0,0,,0,,,72,127
48437,note_off,17,0,0,,3,,,75,127
48535,note_on,98,0,0,,11,,,70,127
48552,note_off,17,0,0,,0,,,72,127
48649,note_off,97,0,0,,10,,,57,127
48650,note_on,1,0,0,,5,,,53,127
48650,note_on,0,0,0,,10,,,69,127
48667,note_off,17,0,0,,11,,,70,127
48765,note_on,98,0,0,,5,,,77,127
48782,note_off,17,0,0,,10,,,69,127
48879,note_off,97,0,0,,5,,,53,127
48880,note_on,1,0,0,,11,,,58,127
48880,note_on,0,0,0,,2,,,74,127
48897,note_off,17,0,0,,5,,,77,127
48995,note_on,98,0,0,,0,,,72,127
49012,note_off,17,0,0,,2,,,74,127
49109,note_off,97,0,0,,11,,,58,127
49110,note_on,1,0,0,,3,,,51,127
49110,note_on,0,0,0,,11,,,70,127
49127,note_off,17,0,0,,0,,,72,127
49225,note_on,98,0,0,,7,,,79,127
49242,note_off,17,0,0,,11,,,70,127
49339,note_off,97,0,0,,3,,,51,127
49340,note_on,1,0,0,,5,,,53,127
49340,note_on,0,0,0,,0,,,72,127
49357,note_off,17,0,0,,7,,,79,127
49455,note_on,98,0,0,,11,,,70,127
49472,note_off,17,0,0,,0,,,72,127
49569,note_off,97,0,0,,5,,,53,127
49570,note_on,1,0,0,,10,,,57,127
49570,note_on,0,0,0,,10,,,69,127
49587,note_off,17,0,0,,11,,,70,127
49685,note_on,98,0,0,,5,,,77,127
49702,note_off,17,0,0,,10,,,69,127
49799,note_off,97,0,0,,10,,,57,127
49800,note_on,1,0,0,,11,,,58,127
49800,note_on,0,0,0,,2,,,74,127
49817,note_off,17,0,0,,5,,,77,127
49915,note_on,98,0,0,,0,,,72,127
49932,note_off,17,0,0,,2,,,74,127
50029,note_off,97,0,0,,11,,,58,127
50030,note_on,1,0,0,,3,,,51,127
50030,note_on,0,0,0,,11,,,70,127
50047,note_off,17,0,0,,0,,,72,127
50145,note_on,98,0,0,,7,,,79,127
50162,note_off,17,0,0,,11,,,70,127
50259,note_off,97,0,0,,3,,,51,127
50260,note_on,1,0,0,,5,,,53,127
50260,note_on,0,0,0,,0,,,72,127
50277,note_off,17,0,0,,7,,,79,127
50375,note_on,98,0,0,,11,,,70,127
50392,note_off,17,0,0,,0,,,72,127
50489,note_off,97,0,0,,5,,,53,127
50490,note_on,1,0,0,,10,,,57,127
50490,note_on,0,0,0,,10,,,69,127
50507,note_off,17,0,0,,11,,,70,127
50605,note_on,98,0,0,,5,,,77,127
50622,note_off,17,0,0,,10,,,69,127
50719,note_off,97,0,0,,10,,,57,127
50720,note_on,1,0,0,,2,,,74,127
50737,note_off,17,0,0,,5,,,77,127
50835,note_on,98,0,0,,11,,,58,127
50949,note_off,114,0,0,,2,,,74,127
50950,note_on,1,0,0,,7,,,55,127
50950,note_on,0,0,0,,11,,,82,127
50950,note_on,0,0,0,,11,,,70,127
50967,note_off,17,0,0,,11,,,58,127
51065,note_on,98,0,0,,11,,,58,127
51082,note_off,17,0,0,,7,,,55,127
51179,note_off,97,0,0,,11,,,70,127
51179,note_off,0,0,0,,11,,,82,127
51180,note_on,1,0,0,,5,,,53,127
51180,note_on,0,0,0,,11,,,82,127
51180,note_on,0,0,0,,11,,,70,127
51197,note_off,17,0,0,,11,,,58,127
51295,note_on,98,0,0,,11,,,58,127
51312,note_off,17,0,0,,5,,,53,127
51409,note_off,97,0,0,,11,,,70,127
51409,note_off,0,0,0,,11,,,82,127
51410,note_on,1,0,0,,3,,,51,127
51410,note_on,0,0,0,,11,,,82,127
51410,note_on,0,0,0,,0,,,72,127
51427,note_off,17,0,0,,11,,,58,127
51525,note_on,98,0,0,,11,,,58,127
51542,note_off,17,0,0,,3,,,51,127
51639,note_off,97,0,0,,0,,,72,127
51639,note_off,0,0,0,,11,,,82,127
51640,note_on,1,0,0,,2,,,50,127
51640,note_on,0,0,0,,11,,,82,127
51640,note_on,0,0,0,,2,,,74,127
51657,note_off,17,0,0,,11,,,58,127
51755,note_on,98,0,0,,11,,,58,127
51772,note_off,17,0,0,,2,,,50,127
51869,note_off,97,0,0,,2,,,74,127
51869,note_off,0,0,0,,11,,,82,127
51870,note_on,1,0,0,,7,,,55,127
51870,note_on,0,0,0,,11,,,70,127
51870,note_on,0,0,0,,11,,,82,127
51887,note_off,17,0,0,,11,,,58,127
51985,note_on,98,0,0,,11,,,58,127
52002,note_off,17,0,0,,7,,,55,127
52099,note_off,97,0,0,,11,,,82,127
52099,note_off,0,0,0,,11,,,70,127
52100,note_on,1,0,0,,5,,,53,127
52100,note_on,0,0,0,,11,,,82,127
52100,note_on,0,0,0,,11,,,70,127
52117,note_off,17,0,0,,11,,,58,127
52215,note_on,98,0,0,,11,,,58,127
52232,note_off,17,0,0,,5,,,53,127
52329,note_off,97,0,0,,11,,,70,127
52329,note_off,0,0,0,,11,,,82,127
52330,note_on,1,0,0,,3,,,51,127
52330,note_on,0,0,0,,11,,,82,127
52330,note_on,0,0,0,,0,,,72,127
52347,note_off,17,0,0,,11,,,58,127
52445,note_on,98,0,0,,11,,,58,127
52462,note_off,17,0,0,,3,,,51,127
52559,note_off,97,0,0,,0,,,72,127
52559,note_off,0,0,0,,11,,,82,127
52560,note_on,1,0,0,,2,,,50,127
52560,note_on,0,0,0,,11,,,82,127
52560,note_on,0,0,0,,2,,,74,127
52577,note_off,17,0,0,,11,,,58,127
52675,note_on,98,0,0,,11,,,58,127
52692,note_off,17,0,0,,2,,,50,127
52789,note_off,97,0,0,,2,,,74,127
52789,note_off,0,0,0,,11,,,82,127
52790,note_on,1,0,0,,7,,,55,127
52790,note_on,0,0,0,,11,,,82,127
52790,note_on,0,0,0,,11,,,70,127
52807,note_off,17,0,0,,11,,,58,127
52905,note_on,98,0,0,,11,,,58,127
52922,note_off,17,0,0,,7,,,55,127
53019,note_off,97,0,0,,11,,,70,127
53019,note_off,0,0,0,,11,,,82,127
53020,note_on,1,0,0,,5,,,53,127
53020,note_on,0,0,0,,11,,,82,127
53020,note_on,0,0,0,,11,,,70,127
53037,note_off,17,0,0,,11,,,58,127
53135,note_on,98,0,0,,11,,,58,127
53152,note_off,17,0,0,,5,,,53,127
53249,note_off,97,0,0,,11,,,70,127
53249,note_off,0,0,0,,11,,,82,127
53250,note_on,1,0,0,,3,,,51,127
53250,note_on,0,0,0,,11,,,82,127
53250,note_on,0,0,0,,0,,,72,127
53267,note_off,17,0,0,,11,,,58,127
53365,note_on,98,0,0,,11,,,58,127
53382,note_off,17,0,0,,3,,,51,127
53479,note_off,97,0,0,,0,,,72,127
53479,note_off,0,0,0,,11,,,82,127
53480,note_on,1,0,0,,2,,,50,127
53480,note_on,0,0,0,,11,,,82,127
53480,note_on,0,0,0,,2,,,74,127
53497,note_off,17,0,0,,11,,,58,127
53595,note_on,98,0,0,,11,,,58,127
53612,note_off,17,0,0,,2,,,50,127
53709,note_off,97,0,0,,2,,,74,127
53709,note_off,0,0,0,,11,,,82,127
53710,note_on,1,0,0,,1,,,49,127
53710,note_on,0,0,0,,11,,,82,127
53710,note_on,0,0,0,,5,,,77,127
53727,note_off,17,0,0,,11,,,58,127
53825,note_on,98,0,0,,11,,,58,127
53842,note_off,17,0,0,,1,,,49,127
53939,note_off,97,0,0,,5,,,77,127
53939,note_off,0,0,0,,11,,,82,127
53940,note_on,1,0,0,,0,,,48,127
53940,note_on,0,0,0,,11,,,82,127
53940,note_on,0,0,0,,4,,,76,127
53957,note_off,17,0,0,,11,,,58,127
54055,note_on,98,0,0,,0,,,60,127
54072,note_off,17,0,0,,0,,,48,127
54169,note_off,97,0,0,,4,,,76,127
54169,note_off,0,0,0,,11,,,82,127
54170,note_on,1,0,0,,2,,,50,127
54170,note_on,0,0,0,,11,,,82,127
54170,note_on,0,0,0,,5,,,77,127
54187,note_off,17,0,0,,0,,,60,127
54285,note_on,98,0,0,,11,,,58,127
54302,note_off,17,0,0,,2,,,50,127
54399,note_off,97,0,0,,5,,,77,127
54399,note_off,0,0,0,,11,,,82,127
54400,note_on,1,0,0,,0,,,48,127
54400,note_on,0,0,0,,11,,,82,127
54400,note_on,0,0,0,,4,,,76,127
54417,note_off,17,0,0,,11,,,58,127
54515,note_on,98,0,0,,0,,,60,127
54532,note_off,17,0,0,,0,,,48,127
54629,note_off,97,0,0,,4,,,76,127
54629,note_off,0,0,0,,11,,,82,127
54630,note_on,1,0,0,,2,,,50,127
54630,note_on,0,0,0,,11,,,82,127
54630,note_on,0,0,0,,5,,,77,127
54647,note_off,17,0,0,,0,,,60,127
54745,note_on,98,0,0,,11,,,58,127
54762,note_off,17,0,0,,2,,,50,127
54859,note_off,97,0,0,,5,,,77,127
54859,note_off,0,0,0,,11,,,82,127
54860,note_on,1,0,0,,0,,,48,127
54860,note_on,0,0,0,,11,,,82,127
54860,note_on,0,0,0,,4,,,76,127
54877,note_off,17,0,0,,11,,,58,127
54975,note_on,98,0,0,,0,,,60,127
54992,note_off,17,0,0,,0,,,48,127
55089,note_off,97,0,0,,4,,,76,127
55089,note_off,0,0,0,,11,,,82,127
55090,note_on,1,0,0,,2,,,50,127
55090,note_on,0,0,0,,11,,,82,127
55090,note_on,0,0,0,,5,,,77,127
55107,note_off,17,0,0,,0,,,60,127
55205,note_on,98,0,0,,11,,,58,127
55222,note_off,17,0,0,,2,,,50,127
55319,note_off,97,0,0,,5,,,77,127
55319,note_off,0,0,0,,11,,,82,127
55320,note_on,1,0,0,,0,,,48,127
55320,note_on,0,0,0,,11,,,82,127
55320,note_on,0,0,0,,4,,,76,127
55337,note_off,17,0,0,,11,,,58,127
55435,note_on,98,0,0,,0,,,60,127
55452,note_off,17,0,0,,0,,,48,127
55549,note_off,97,0,0,,4,,,76,127
55549,note_off,0,0,0,,11,,,82,127
55550,note_on,1,0,0,,0,,,48,127
55550,note_on,0,0,0,,11,,,82,127
55550,note_on,0,0,0,,4,,,76,127
55567,note_off,17,0,0,,0,,,60,127
55665,note_on,98,0,0,,0,,,60,127
55682,note_off,17,0,0,,0,,,48,127
55779,note_off,97,0,0,,4,,,76,127
55779,note_off,0,0,0,,11,,,82,127
55780,note_on,1,0,0,,1,,,49,127
55780,note_on,0,0,0,,5,,,77,127
55780,note_on,0,0,0,,8,,,80,127
55797,note_off,17,0,0,,0,,,60,127
55895,note_on,98,0,0,,0,,,60,127
55912,note_off,17,0,0,,1,,,49,127
56009,note_off,97,0,0,,8,,,80,127
56009,note_off,0,0,0,,5,,,77,127
56010,note_on,1,0,0,,4,,,52,127
56010,note_on,0,0,0,,7,,,79,127
56027,note_off,17,0,0,,0,,,60,127
56125,note_on,98,0,0,,0,,,60,127
56142,note_off,17,0,0,,4,,,52,127
56239,note_off,97,0,0,,7,,,79,127
56240,note_on,1,0,0,,5,,,53,127
56240,note_on,0,0,0,,8,,,80,127
56257,note_off,17,0,0,,0,,,60,127
56355,note_on,98,0,0,,0,,,60,127
56372,note_off,17,0,0,,5,,,53,127
56469,note_off,97,0,0,,8,,,80,127
56470,note_on,1,0,0,,8,,,56,127
56470,note_on,0,0,0,,0,,,84,127
56470,note_on,0,0,0,,0,,,72,127
56487,note_off,17,0,0,,0,,,60,127
56585,note_on,98,0,0,,0,,,60,127
56602,note_off,17,0,0,,8,,,56,127
56699,note_off,97,0,0,,0,,,72,127
56699,note_off,0,0,0,,0,,,84,127
56700,note_on,1,0,0,,7,,,55,127
56700,note_on,0,0,0,,0,,,84,127
56700,note_on,0,0,0,,0,,,72,127
56717,note_off,17,0,0,,0,,,60,127
56815,note_on,98,0,0,,0,,,60,127
56832,note_off,17,0,0,,7,,,55,127
56929,note_off,97,0,0,,0,,,72,127
56929,note_off,0,0,0,,0,,,84,127
56930,note_on,1,0,0,,5,,,53,127
56930,note_on,0,0,0,,0,,,84,127
56930,note_on,0,0,0,,2,,,74,127
56947,note_off,17,0,0,,0,,,60,127
57045,note_on,98,0,0,,0,,,60,127
57062,note_off,17,0,0,,5,,,53,127
57159,note_off,97,0,0,,2,,,74,127
57159,note_off,0,0,0,,0,,,84,127
57160,note_on,1,0,0,,3,,,51,127
57160,note_on,0,0,0,,3,,,75,127
57160,note_on,0,0,0,,0,,,84,127
57177,note_off,17,0,0,,0,,,60,127
57275,note_on,98,0,0,,0,,,60,127
57292,note_off,17,0,0,,3,,,51,127
57389,note_off,97,0,0,,0,,,84,127
57389,note_off,0,0,0,,3,,,75,127
57390,note_on,1,0,0,,8,,,56,127
57390,note_on,0,0,0,,0,,,72,127
57390,note_on,0,0,0,,0,,,84,127
57407,note_off,17,0,0,,0,,,60,127
57505,note_on,98,0,0,,0,,,60,127
57522,note_off,17,0,0,,8,,,56,127
57619,note_off,97,0,0,,0,,,84,127
57619,note_off,0,0,0,,0,,,72,127
57620,note_on,1,0,0,,7,,,55,127
57620,note_on,0,0,0,,0,,,84,127
57620,note_on,0,0,0,,0,,,72,127
57637,note_off,17,0,0,,0,,,60,127
57735,note_on,98,0,0,,0,,,60,127
57752,note_off,17,0,0,,7,,,55,127
57849,note_off,97,0,0,,0,,,72,127
57849,note_off,0,0,0,,0,,,84,127
57850,note_on,1,0,0,,5,,,53,127
57850,note_on,0,0,0,,0,,,84,127
57850,note_on,0,0,0,,2,,,74,127
57867,note_off,17,0,0,,0,,,60,127
57965,note_on,98,0,0,,0,,,60,127
57982,note_off,17,0,0,,5,,,53,127
58079,note_off,97,0,0,,2,,,74,127
58079,note_off,0,0,0,,0,,,84,127
58080,note_on,1,0,0,,3,,,51,127
58080,note_on,0,0,0,,0,,,84,127
58080,note_on,0,0,0,,3,,,75,127
58097,note_off,17,0,0,,0,,,60,127
58195,note_on,98,0,0,,0,,,60,127
58212,note_off,17,0,0,,3,,,51,127
58309,note_off,97,0,0,,3,,,75,127
58309,note_off,0,0,0,,0,,,84,127
58310,note_on,1,0,0,,8,,,56,127
58310,note_on,0,0,0,,0,,,84,127
58310,note_on,0,0,0,,0,,,72,127
58327,note_off,17,0,0,,0,,,60,127
58425,note_on,98,0,0,,0,,,60,127
58442,note_off,17,0,0,,8,,,56,127
58539,note_off,97,0,0,,0,,,72,127
58539,note_off,0,0,0,,0,,,84,127
58540,note_on,1,0,0,,7,,,55,127
58540,note_on,0,0,0,,0,,,84,127
58540,note_on,0,0,0,,0,,,72,127
58557,note_off,17,0,0,,0,,,60,127
58655,note_on,98,0,0,,0,,,60,127
58672,note_off,17,0,0,,7,,,55,127
58769,note_off,97,0,0,,0,,,72,127
58769,note_off,0,0,0,,0,,,84,127
58770,note_on,1,0,0,,5,,,53,127
58770,note_on,0,0,0,,0,,,84,127
58770,note_on,0,0,0,,2,,,74,127
58787,note_off,17,0,0,,0,,,60,127
58885,note_on,98,0,0,,0,,,60,127
58902,note_off,17,0,0,,5,,,53,127
58999,note_off,97,0,0,,2,,,74,127
58999,note_off,0,0,0,,0,,,84,127
59000,note_on,1,0,0,,3,,,51,127
59000,note_on,0,0,0,,0,,,84,127
59000,note_on,0,0,0,,3,,,75,127
59017,note_off,17,0,0,,0,,,60,127
59115,note_on,98,0,0,,0,,,60,127
59132,note_off,17,0,0,,3,,,51,127
59229,note_off,97,0,0,,3,,,75,127
59229,note_off,0,0,0,,0,,,84,127
59230,note_on,1,0,0,,7,,,55,127
59230,note_on,0,0,0,,3,,,75,127
59230,note_on,0,0,0,,0,,,84,127
59247,note_off,17,0,0,,0,,,60,127
59345,note_on,98,0,0,,0,,,60,127
59362,note_off,17,0,0,,7,,,55,127
59459,note_off,97,0,0,,0,,,84,127
59459,note_off,0,0,0,,3,,,75,127
59460,note_on,1,0,0,,6,,,54,127
59460,note_on,0,0,0,,2,,,74,127
59460,note_on,0,0,0,,0,,,84,127
59477,note_off,17,0,0,,0,,,60,127
59575,note_on,98,0,0,,0,,,60,127
59592,note_off,17,0,0,,6,,,54,127
59689,note_off,97,0,0,,0,,,84,127
59689,note_off,0,0,0,,2,,,74,127
59690,note_on,1,0,0,,7,,,55,127
59690,note_on,0,0,0,,0,,,84,127
59690,note_on,0,0,0,,3,,,75,127
59707,note_off,17,0,0,,0,,,60,127
59805,note_on,98,0,0,,0,,,60,127
59822,note_off,17,0,0,,7,,,55,127
59919,note_off,97,0,0,,3,,,75,127
59919,note_off,0,0,0,,0,,,84,127
59920,note_on,1,0,0,,6,,,54,127
59920,note_on,0,0,0,,0,,,84,127
59920,note_on,0,0,0,,2,,,74,127
59937,note_off,17,0,0,,0,,,60,127
60035,note_on,98,0,0,,0,,,60,127
60052,note_off,17,0,0,,6,,,54,127
60149,note_off,97,0,0,,2,,,74,127
60149,note_off,0,0,0,,0,,,84,127
60150,note_on,1,0,0,,7,,,55,127
60150,note_on,0,0,0,,3,,,75,127
60150,note_on,0,0,0,,0,,,84,127
60167,note_off,17,0,0,,0,,,60,127
60265,note_on,98,0,0,,0,,,60,127
60282,note_off,17,0,0,,7,,,55,127
60379,note_off,97,0,0,,0,,,84,127
60379,note_off,0,0,0,,3,,,75,127
60380,note_on,1,0,0,,6,,,54,127
60380,note_on,0,0,0,,0,,,84,127
60380,note_on,0,0,0,,2,,,74,127
60397,note_off,17,0,0,,0,,,60,127
60495,note_on,98,0,0,,0,,,60,127
60512,note_off,17,0,0,,6,,,54,127
60609,note_off,97,0,0,,2,,,74,127
60609,note_off,0,0,0,,0,,,84,127
60610,note_on,1,0,0,,7,,,55,127
60610,note_on,0,0,0,,0,,,84,127
60610,note_on,0,0,0,,3,,,75,127
60627,note_off,17,0,0,,0,,,60,127
60725,note_on,98,0,0,,0,,,60,127
60742,note_off,17,0,0,,7,,,55,127
60839,note_off,97,0,0,,3,,,75,127
60839,note_off,0,0,0,,0,,,84,127
60840,note_on,1,0,0,,6,,,54,127
60840,note_on,0,0,0,,2,,,74,127
60840,note_on,0,0,0,,0,,,84,127
60857,note_off,17,0,0,,0,,,60,127
60955,note_on,98,0,0,,2,,,62,127
60972,note_off,17,0,0,,6,,,54,127
61069,note_off,97,0,0,,0,,,84,127
61069,note_off,0,0,0,,2,,,74,127
61070,note_on,1,0,0,,2,,,50,127
61070,note_on,0,0,0,,2,,,74,127
61070,note_on,0,0,0,,0,,,84,127
61087,note_off,17,0,0,,2,,,62,127
61185,note_on,98,0,0,,2,,,62,127
61202,note_off,17,0,0,,2,,,50,127
61299,note_off,97,0,0,,0,,,84,127
61299,note_off,0,0,0,,2,,,74,127
61300,note_on,1,0,0,,4,,,52,127
61300,note_on,0,0,0,,2,,,74,127
61300,note_on,0,0,0,,11,,,82,127
61317,note_off,17,0,0,,2,,,62,127
61415,note_on,98,0,0,,2,,,62,127
61432,note_off,17,0,0,,4,,,52,127
61529,note_off,97,0,0,,11,,,82,127
61529,note_off,0,0,0,,2,,,74,127
61530,note_on,1,0,0,,6,,,54,127
61530,note_on,0,0,0,,2,,,74,127
61530,note_on,0,0,0,,10,,,81,127
61547,note_off,17,0,0,,2,,,62,127
61645,note_on,98,0,0,,2,,,62,127
61662,note_off,17,0,0,,6,,,54,127
61759,note_off,97,0,0,,10,,,81,127
61759,note_off,0,0,0,,2,,,74,127
61760,note_on,1,0,0,,7,,,55,127
61760,note_on,0,0,0,,11,,,82,127
61760,note_on,0,0,0,,2,,,74,127
61777,note_off,17,0,0,,2,,,62,127
61875,note_on,98,0,0,,10,,,81,127
61892,note_off,17,0,0,,2,,,74,127
61892,note_off,0,0,0,,11,,,82,127
61989,note_off,97,0,0,,7,,,55,127
61990,note_on,1,0,0,,0,,,60,127
61990,note_on,0,0,0,,0,,,84,127
62007,note_off,17,0,0,,10,,,81,127
62105,note_on,98,0,0,,11,,,82,127
62122,note_off,17,0,0,,0,,,84,127
62220,note_on,98,0,0,,0,,,48,127
62220,note_on,0,0,0,,10,,,81,127
62237,note_off,17,0,0,,11,,,82,127
62335,note_on,98,0,0,,7,,,79,127
62352,note_off,17,0,0,,10,,,81,127
62446,note_off,94,0,0,,0,,,60,127
62450,note_off,4,0,0,,0,,,48,127
62451,note_on,1,0,0,,0,,,60,127
62451,note_on,0,0,0,,6,,,78,127
62468,note_off,17,0,0,,7,,,79,127
62566,note_on,98,0,0,,7,,,79,127
62583,note_off,17,0,0,,6,,,78,127
62680,note_off,97,0,0,,0,,,60,127
62681,note_on,1,0,0,,2,,,62,127
62681,note_on,0,0,0,,6,,,78,127
62698,note_off,17,0,0,,7,,,79,127
62796,note_on,98,0,0,,3,,,75,127
62813,note_off,17,0,0,,6,,,78,127
62911,note_on,98,0,0,,2,,,50,127
62911,note_on,0,0,0,,2,,,74,127
62928,note_off,17,0,0,,3,,,75,127
63026,note_on,98,0,0,,3,,,75,127
63043,note_off,17,0,0,,2,,,74,127
63137,note_off,94,0,0,,2,,,62,127
63141,note_off,4,0,0,,2,,,50,127
63142,note_on,1,0,0,,2,,,62,127
63142,note_on,0,0,0,,2,,,74,127
63159,note_off,17,0,0,,3,,,75,127
63257,note_on,98,0,0,,0,,,72,127
63274,note_off,17,0,0,,2,,,74,127
63371,note_off,97,0,0,,2,,,62,127
63372,note_on,1,0,0,,6,,,66,127
63372,note_on,0,0,0,,11,,,70,127
63389,note_off,17,0,0,,0,,,72,127
63487,note_on,98,0,0,,0,,,72,127
63504,note_off,17,0,0,,11,,,70,127
63601,note_off,97,0,0,,6,,,66,127
63602,note_on,1,0,0,,7,,,67,127
63602,note_on,0,0,0,,11,,,70,127
63619,note_off,17,0,0,,0,,,72,127
63717,note_on,98,0,0,,10,,,69,127
63734,note_off,17,0,0,,11,,,70,127
63831,note_off,97,0,0,,7,,,67,127
63832,note_on,1,0,0,,7,,,55,127
63832,note_on,0,0,0,,0,,,72,127
63849,note_off,17,0,0,,10,,,69,127
63947,note_on,98,0,0,,11,,,70,127
63964,note_off,17,0,0,,0,,,72,127
64061,note_off,97,0,0,,7,,,55,127
64062,note_on,1,0,0,,0,,,48,127
64062,note_on,0,0,0,,10,,,69,127
64079,note_off,17,0,0,,11,,,70,127
64177,note_on,98,0,0,,7,,,67,127
64194,note_off,17,0,0,,10,,,69,127
64291,note_off,97,0,0,,0,,,48,127
64292,note_on,1,0,0,,0,,,60,127
64292,note_on,0,0,0,,6,,,66,127
64309,note_off,17,0,0,,7,,,67,127
64407,note_on,98,0,0,,7,,,67,127
64424,note_off,17,0,0,,6,,,66,127
64521,note_off,97,0,0,,0,,,60,127
64522,note_on,1,0,0,,2,,,50,127
64522,note_on,0,0,0,,6,,,66,127
64539,note_off,17,0,0,,7,,,67,127
64637,note_on,98,0,0,,7,,,67,127
64654,note_off,17,0,0,,6,,,66,127
64752,note_on,98,0,0,,10,,,69,127
64769,note_off,17,0,0,,7,,,67,127
64867,note_on,98,0,0,,2,,,74,127
64884,note_off,17,0,0,,10,,,69,127
64982,note_on,98,0,0,,2,,,62,127
65040,note_off,58,0,0,,2,,,74,127
65096,note_off,56,0,0,,2,,,50,127
65097,note_on,1,0,0,,2,,,50,127
65211,note_off,114,0,0,,2,,,62,127
65212,note_on,1,0,0,,2,,,62,127
65229,note_off,17,0,0,,2,,,50,127
65327,note_on,98,0,0,,11,,,70,127
65344,note_off,17,0,0,,2,,,62,127
65442,note_on,98,0,0,,2,,,50,127
65442,note_on,0,0,0,,7,,,67,127
65442,note_on,0,0,0,,6,,,66,127
65459,note_off,17,0,0,,11,,,70,127
65557,note_on,98,0,0,,4,,,64,127
65574,note_off,17,0,0,,6,,,66,127
65574,note_off,0,0,0,,7,,,67,127
65672,note_on,98,0,0,,2,,,62,127
65689,note_off,17,0,0,,4,,,64,127
65787,note_on,98,0,0,,2,,,74,127
65804,note_off,17,0,0,,2,,,62,127
65902,note_on,98,0,0,,2,,,62,127
65960,note_off,58,0,0,,2,,,74,127
66016,note_off,56,0,0,,2,,,50,127
66017,note_on,1,0,0,,2,,,50,127
66131,note_off,114,0,0,,2,,,62,127
66132,note_on,1,0,0,,2,,,62,127
66149,note_off,17,0,0,,2,,,50,127
66247,note_on,98,0,0,,10,,,69,127
66264,note_off,17,0,0,,2,,,62,127
66362,note_on,98,0,0,,2,,,50,127
66362,note_on,0,0,0,,7,,,67,127
66362,note_on,0,0,0,,6,,,66,127
66379,note_off,17,0,0,,10,,,69,127
66477,note_on,98,0,0,,4,,,64,127
66494,note_off,17,0,0,,6,,,66,127
66494,note_off,0,0,0,,7,,,67,127
66592,note_on,98,0,0,,2,,,62,127
66609,note_off,17,0,0,,4,,,64,127
66707,note_on,98,0,0,,2,,,74,127
66724,note_off,17,0,0,,2,,,62,127
66822,note_on,98,0,0,,2,,,62,127
66880,note_off,58,0,0,,2,,,74,127
66936,note_off,56,0,0,,2,,,50,127
66937,note_on,1,0,0,,2,,,50,127
67051,note_off,114,0,0,,2,,,62,127
67052,note_on,1,0,0,,2,,,62,127
67069,note_off,17,0,0,,2,,,50,127
67167,note_on,98,0,0,,7,,,67,127
67184,note_off,17,0,0,,2,,,62,127
67281,note_off,97,0,0,,7,,,67,127
67282,note_on,1,0,0,,2,,,50,127
67282,note_on,0,0,0,,7,,,67,127
67282,note_on,0,0,0,,6,,,66,127
67397,note_on,115,0,0,,4,,,64,127
67414,note_off,17,0,0,,6,,,66,127
67414,note_off,0,0,0,,7,,,67,127
67512,note_on,98,0,0,,2,,,62,127
67529,note_off,17,0,0,,4,,,64,127
67627,note_on,98,0,0,,2,,,74,127
67644,note_off,17,0,0,,2,,,62,127
67742,note_on,98,0,0,,2,,,62,127
67800,note_off,58,0,0,,2,,,74,127
67856,note_off,56,0,0,,2,,,50,127
67857,note_on,1,0,0,,2,,,50,127
67971,note_off,114,0,0,,2,,,62,127
67972,note_on,1,0,0,,2,,,62,127
67989,note_off,17,0,0,,2,,,50,127
68087,note_on,98,0,0,,11,,,70,127
68104,note_off,17,0,0,,2,,,62,127
68202,note_on,98,0,0,,2,,,50,127
68202,note_on,0,0,0,,6,,,66,127
68202,note_on,0,0,0,,7,,,67,127
68219,note_off,17,0,0,,11,,,70,127
68317,note_on,98,0,0,,4,,,64,127
68334,note_off,17,0,0,,7,,,67,127
68334,note_off,0,0,0,,6,,,66,127
68432,note_on,98,0,0,,2,,,62,127
68449,note_off,17,0,0,,4,,,64,127
68547,note_on,98,0,0,,2,,,74,127
68564,note_off,17,0,0,,2,,,62,127
68662,note_on,98,0,0,,2,,,62,127
68720,note_off,58,0,0,,2,,,74,127
68776,note_off,56,0,0,,2,,,50,127
68777,note_on,1,0,0,,2,,,50,127
68891,note_off,114,0,0,,2,,,62,127
68892,note_on,1,0,0,,2,,,62,127
68909,note_off,17,0,0,,2,,,50,127
69007,note_on,98,0,0,,10,,,69,127
69024,note_off,17,0,0,,2,,,62,127
69122,note_on,98,0,0,,2,,,50,127
69122,note_on,0,0,0,,7,,,67,127
69122,note_on,0,0,0,,6,,,66,127
69139,note_off,17,0,0,,10,,,69,127
69237,note_on,98,0,0,,4,,,64,127
69254,note_off,17,0,0,,6,,,66,127
69254,note_off,0,0,0,,7,,,67,127
69352,note_on,98,0,0,,2,,,62,127
69369,note_off,17,0,0,,4,,,64,127
69467,note_on,98,0,0,,2,,,74,127
69484,note_off,17,0,0,,2,,,62,127
69582,note_on,98,0,0,,2,,,62,127
69640,note_off,58,0,0,,2,,,74,127
69696,note_off,56,0,0,,2,,,50,127
69697,note_on,1,0,0,,2,,,50,127
69811,note_off,114,0,0,,2,,,62,127
69812,note_on,1,0,0,,2,,,62,127
69829,note_off,17,0,0,,2,,,50,127
69927,note_on,98,0,0,,7,,,67,127
69944,note_off,17,0,0,,2,,,62,127
70041,note_off,97,0,0,,7,,,67,127
70042,note_on,1,0,0,,2,,,50,127
70042,note_on,0,0,0,,7,,,67,127
70042,note_on,0,0,0,,6,,,66,127
70157,note_on,115,0,0,,4,,,64,127
70174,note_off,17,0,0,,6,,,66,127
70174,note_off,0,0,0,,7,,,67,127
70272,note_on,98,0,0,,2,,,62,127
70289,note_off,17,0,0,,4,,,64,127
70387,note_on,98,0,0,,2,,,74,127
70404,note_off,17,0,0,,2,,,62,127
70501,note_off,97,0,0,,2,,,50,127
70502,note_on,1,0,0,,2,,,62,127
70616,note_off,114,0,0,,2,,,74,127
70617,note_on,1,0,0,,0,,,72,127
70731,note_off,114,0,0,,2,,,62,127
70732,note_on,1,0,0,,0,,,60,127
70732,note_on,0,0,0,,11,,,70,127
70749,note_off,17,0,0,,0,,,72,127
70847,note_on,98,0,0,,10,,,69,127
70864,note_off,17,0,0,,11,,,70,127
70960,note_off,96,0,0,,10,,,69,127
70961,note_off,1,0,0,,0,,,60,127
70962,note_on,1,0,0,,2,,,62,127
70962,note_on,0,0,0,,11,,,58,127
70962,note_on,0,0,0,,10,,,69,127
70962,note_on,0,0,0,,7,,,67,127
71077,note_on,115,0,0,,6,,,66,127
71094,note_off,17,0,0,,7,,,67,127
71094,note_off,0,0,0,,10,,,69,127
71191,note_off,97,0,0,,11,,,58,127
71192,note_on,1,0,0,,11,,,58,127
71192,note_on,0,0,0,,7,,,67,127
71209,note_off,17,0,0,,6,,,66,127
71307,note_on,98,0,0,,11,,,70,127
71324,note_off,17,0,0,,7,,,67,127
71421,note_off,97,0,0,,11,,,58,127
71421,note_off,0,0,0,,2,,,62,127
71422,note_on,1,0,0,,3,,,63,127
71422,note_on,0,0,0,,0,,,60,127
71422,note_on,0,0,0,,7,,,67,127
71439,note_off,17,0,0,,11,,,70,127
71537,note_on,98,0,0,,6,,,66,127
71554,note_off,17,0,0,,7,,,67,127
71651,note_off,97,0,0,,0,,,60,127
71652,note_on,1,0,0,,0,,,60,127
71652,note_on,0,0,0,,7,,,67,127
71669,note_off,17,0,0,,6,,,66,127
71767,note_on,98,0,0,,11,,,70,127
71784,note_off,17,0,0,,7,,,67,127
71881,note_off,97,0,0,,0,,,60,127
71881,note_off,0,0,0,,3,,,63,127
71882,note_on,1,0,0,,2,,,62,127
71882,note_on,0,0,0,,11,,,58,127
71882,note_on,0,0,0,,7,,,67,127
71899,note_off,17,0,0,,11,,,70,127
71997,note_on,98,0,0,,6,,,66,127
72014,note_off,17,0,0,,7,,,67,127
72111,note_off,97,0,0,,11,,,58,127
72112,note_on,1,0,0,,11,,,58,127
72112,note_on,0,0,0,,7,,,67,127
72129,note_off,17,0,0,,6,,,66,127
72227,note_on,98,0,0,,11,,,70,127
72244,note_off,17,0,0,,7,,,67,127
72341,note_off,97,0,0,,11,,,58,127
72341,note_off,0,0,0,,2,,,62,127
72342,note_on,1,0,0,,3,,,63,127
72342,note_on,0,0,0,,0,,,60,127
72342,note_on,0,0,0,,7,,,67,127
72359,note_off,17,0,0,,11,,,70,127
72457,note_on,98,0,0,,6,,,66,127
72474,note_off,17,0,0,,7,,,67,127
72571,note_off,97,0,0,,0,,,60,127
72572,note_on,1,0,0,,0,,,60,127
72572,note_on,0,0,0,,7,,,67,127
72589,note_off,17,0,0,,6,,,66,127
72687,note_on,98,0,0,,11,,,70,127
72704,note_off,17,0,0,,7,,,67,127
72801,note_off,97,0,0,,0,,,60,127
72801,note_off,0,0,0,,3,,,63,127
72802,note_on,1,0,0,,7,,,67,127
72819,note_off,17,0,0,,11,,,70,127
72917,note_on,98,0,0,,7,,,55,127
73030,note_off,113,0,0,,7,,,67,127
73032,note_on,2,0,0,,3,,,51,127
73032,note_on,0,0,0,,7,,,67,127
73032,note_on,0,0,0,,11,,,58,127
73049,note_off,17,0,0,,7,,,55,127
73147,note_on,98,0,0,,7,,,55,127
73164,note_off,17,0,0,,3,,,51,127
73260,note_off,96,0,0,,7,,,67,127
73261,note_off,1,0,0,,11,,,58,127
73262,note_on,1,0,0,,2,,,50,127
73262,note_on,0,0,0,,7,,,67,127
73262,note_on,0,0,0,,11,,,58,127
73279,note_off,17,0,0,,7,,,55,127
73377,note_on,98,0,0,,7,,,55,127
73394,note_off,17,0,0,,2,,,50,127
73490,note_off,96,0,0,,7,,,67,127
73491,note_off,1,0,0,,11,,,58,127
73492,note_on,1,0,0,,0,,,48,127
73492,note_on,0,0,0,,7,,,67,127
73492,note_on,0,0,0,,0,,,60,127
73509,note_off,17,0,0,,7,,,55,127
73607,note_on,98,0,0,,7,,,55,127
73624,note_off,17,0,0,,0,,,48,127
73720,note_off,96,0,0,,7,,,67,127
73721,note_off,1,0,0,,0,,,60,127
73722,note_on,1,0,0,,11,,,46,127
73722,note_on,0,0,0,,7,,,67,127
73722,note_on,0,0,0,,2,,,62,127
73739,note_off,17,0,0,,7,,,55,127
73837,note_on,98,0,0,,7,,,55,127
73854,note_off,17,0,0,,11,,,46,127
73950,note_off,96,0,0,,7,,,67,127
73951,note_off,1,0,0,,2,,,62,127
73952,note_on,1,0,0,,3,,,51,127
73952,note_on,0,0,0,,7,,,67,127
73952,note_on,0,0,0,,11,,,58,127
73969,note_off,17,0,0,,7,,,55,127
74067,note_on,98,0,0,,7,,,55,127
74084,note_off,17,0,0,,3,,,51,127
74180,note_off,96,0,0,,7,,,67,127
74181,note_off,1,0,0,,11,,,58,127
74182,note_on,1,0,0,,2,,,50,127
74182,note_on,0,0,0,,11,,,58,127
74182,note_on,0,0,0,,7,,,67,127
74199,note_off,17,0,0,,7,,,55,127
74297,note_on,98,0,0,,7,,,55,127
74314,note_off,17,0,0,,2,,,50,127
74410,note_off,96,0,0,,7,,,67,127
74411,note_off,1,0,0,,11,,,58,127
74412,note_on,1,0,0,,0,,,48,127
74412,note_on,0,0,0,,7,,,67,127
74412,note_on,0,0,0,,0,,,60,127
74429,note_off,17,0,0,,7,,,55,127
74527,note_on,98,0,0,,7,,,55,127
74544,note_off,17,0,0,,0,,,48,127
74640,note_off,96,0,0,,7,,,67,127
74641,note_off,1,0,0,,0,,,60,127
74642,note_on,1,0,0,,11,,,46,127
74642,note_on,0,0,0,,7,,,67,127
74642,note_on,0,0,0,,2,,,62,127
74659,note_off,17,0,0,,7,,,55,127
74757,note_on,98,0,0,,7,,,55,127
74774,note_off,17,0,0,,11,,,46,127
74870,note_off,96,0,0,,7,,,67,127
74871,note_off,1,0,0,,2,,,62,127
74872,note_on,1,0,0,,3,,,51,127
74872,note_on,0,0,0,,7,,,67,127
74872,note_on,0,0,0,,11,,,58,127
74889,note_off,17,0,0,,7,,,55,127
74987,note_on,98,0,0,,7,,,55,127
75004,note_off,17,0,0,,3,,,51,127
75100,note_off,96,0,0,,7,,,67,127
75101,note_off,1,0,0,,11,,,58,127
75102,note_on,1,0,0,,2,,,50,127
75102,note_on,0,0,0,,11,,,58,127
75102,note_on,0,0,0,,7,,,67,127
75119,note_off,17,0,0,,7,,,55,127
75217,note_on,98,0,0,,7,,,55,127
75234,note_off,17,0,0,,2,,,50,127
75330,note_off,96,0,0,,7,,,67,127
75331,note_off,1,0,0,,11,,,58,127
75332,note_on,1,0,0,,0,,,48,127
75332,note_on,0,0,0,,0,,,60,127
75332,note_on,0,0,0,,7,,,67,127
75349,note_off,17,0,0,,7,,,55,127
75447,note_on,98,0,0,,7,,,55,127
75464,note_off,17,0,0,,0,,,48,127
75560,note_off,96,0,0,,7,,,67,127
75561,note_off,1,0,0,,0,,,60,127
75562,note_on,1,0,0,,11,,,46,127
75562,note_on,0,0,0,,7,,,67,127
75562,note_on,0,0,0,,2,,,62,127
75579,note_off,17,0,0,,7,,,55,127
75677,note_on,98,0,0,,7,,,55,127
75694,note_off,17,0,0,,11,,,46,127
75790,note_off,96,0,0,,7,,,67,127
75791,note_off,1,0,0,,2,,,62,127
75792,note_on,1,0,0,,3,,,51,127
75792,note_on,0,0,0,,11,,,58,127
75792,note_on,0,0,0,,7,,,67,127
75809,note_off,17,0,0,,7,,,55,127
75907,note_on,98,0,0,,7,,,55,127
75924,note_off,17,0,0,,3,,,51,127
76020,note_off,96,0,0,,7,,,67,127
76021,note_off,1,0,0,,11,,,58,127
76022,note_on,1,0,0,,2,,,50,127
76022,note_on,0,0,0,,7,,,67,127
76022,note_on,0,0,0,,11,,,58,127
76039,note_off,17,0,0,,7,,,55,127
76137,note_on,98,0,0,,7,,,55,127
76154,note_off,17,0,0,,2,,,50,127
76250,note_off,96,0,0,,7,,,67,127
76251,note_off,1,0,0,,11,,,58,127
76252,note_on,1,0,0,,0,,,48,127
76252,note_on,0,0,0,,7,,,67,127
76252,note_on,0,0,0,,0,,,60,127
76269,note_off,17,0,0,,7,,,55,127
76367,note_on,98,0,0,,7,,,55,127
76384,note_off,17,0,0,,0,,,48,127
76480,note_off,96,0,0,,7,,,67,127
76481,note_off,1,0,0,,0,,,60,127
76482,note_on,1,0,0,,11,,,46,127
76482,note_on,0,0,0,,7,,,67,127
76482,note_on,0,0,0,,2,,,62,127
76499,note_off,17,0,0,,7,,,55,127
76597,note_on,98,0,0,,7,,,55,127
76614,note_off,17,0,0,,11,,,46,127
76711,note_off,97,0,0,,2,,,62,127
76711,note_off,0,0,0,,7,,,67,127
76712,note_on,1,0,0,,11,,,46,127
76712,note_on,0,0,0,,2,,,62,127
76712,note_on,0,0,0,,2,,,74,127
76729,note_off,17,0,0,,7,,,55,127
76827,note_on,98,0,0,,7,,,55,127
76844,note_off,17,0,0,,11,,,46,127
76941,note_off,97,0,0,,2,,,74,127
76941,note_off,0,0,0,,2,,,62,127
76942,note_on,1,0,0,,10,,,45,127
76942,note_on,0,0,0,,2,,,62,127
76942,note_on,0,0,0,,2,,,74,127
76959,note_off,17,0,0,,7,,,55,127
77057,note_on,98,0,0,,6,,,54,127
77074,note_off,17,0,0,,10,,,45,127
77171,note_off,97,0,0,,2,,,74,127
77171,note_off,0,0,0,,2,,,62,127
77172,note_on,1,0,0,,7,,,43,127
77172,note_on,0,0,0,,4,,,64,127
77172,note_on,0,0,0,,2,,,74,127
77189,note_off,17,0,0,,6,,,54,127
77287,note_on,98,0,0,,7,,,55,127
77304,note_off,17,0,0,,7,,,43,127
77401,note_off,97,0,0,,2,,,74,127
77401,note_off,0,0,0,,4,,,64,127
77402,note_on,1,0,0,,2,,,50,127
77402,note_on,0,0,0,,2,,,74,127
77402,note_on,0,0,0,,6,,,66,127
77419,note_off,17,0,0,,7,,,55,127
77517,note_on,98,0,0,,10,,,57,127
77534,note_off,17,0,0,,2,,,50,127
77631,note_off,97,0,0,,6,,,66,127
77631,note_off,0,0,0,,2,,,74,127
77632,note_on,1,0,0,,11,,,46,127
77632,note_on,0,0,0,,2,,,62,127
77632,note_on,0,0,0,,2,,,74,127
77649,note_off,17,0,0,,10,,,57,127
77747,note_on,98,0,0,,7,,,55,127
77764,note_off,17,0,0,,11,,,46,127
77861,note_off,97,0,0,,2,,,74,127
77861,note_off,0,0,0,,2,,,62,127
77862,note_on,1,0,0,,10,,,45,127
77862,note_on,0,0,0,,2,,,74,127
77862,note_on,0,0,0,,2,,,62,127
77879,note_off,17,0,0,,7,,,55,127
77977,note_on,98,0,0,,6,,,54,127
77994,note_off,17,0,0,,10,,,45,127
78091,note_off,97,0,0,,2,,,62,127
78091,note_off,0,0,0,,2,,,74,127
78092,note_on,1,0,0,,7,,,43,127
78092,note_on,0,0,0,,4,,,64,127
78092,note_on,0,0,0,,2,,,74,127
78109,note_off,17,0,0,,6,,,54,127
78207,note_on,98,0,0,,7,,,55,127
78224,note_off,17,0,0,,7,,,43,127
78321,note_off,97,0,0,,2,,,74,127
78321,note_off,0,0,0,,4,,,64,127
78322,note_on,1,0,0,,2,,,50,127
78322,note_on,0,0,0,,6,,,66,127
78322,note_on,0,0,0,,2,,,74,127
78339,note_off,17,0,0,,7,,,55,127
78437,note_on,98,0,0,,10,,,57,127
78454,note_off,17,0,0,,2,,,50,127
78551,note_off,97,0,0,,2,,,74,127
78551,note_off,0,0,0,,6,,,66,127
78552,note_on,1,0,0,,11,,,46,127
78552,note_on,0,0,0,,2,,,62,127
78552,note_on,0,0,0,,2,,,74,127
78569,note_off,17,0,0,,10,,,57,127
78667,note_on,98,0,0,,7,,,55,127
78684,note_off,17,0,0,,11,,,46,127
78781,note_off,97,0,0,,2,,,74,127
78781,note_off,0,0,0,,2,,,62,127
78782,note_on,1,0,0,,10,,,45,127
78782,note_on,0,0,0,,2,,,74,127
78782,note_on,0,0,0,,2,,,62,127
78799,note_off,17,0,0,,7,,,55,127
78897,note_on,98,0,0,,6,,,54,127
78914,note_off,17,0,0,,10,,,45,127
79011,note_off,97,0,0,,2,,,62,127
79011,note_off,0,0,0,,2,,,74,127
79012,note_on,1,0,0,,7,,,43,127
79012,note_on,0,0,0,,4,,,64,127
79012,note_on,0,0,0,,2,,,74,127
79029,note_off,17,0,0,,6,,,54,127
79127,note_on,98,0,0,,7,,,55,127
79144,note_off,17,0,0,,7,,,43,127
79241,note_off,97,0,0,,2,,,74,127
79241,note_off,0,0,0,,4,,,64,127
79242,note_on,1,0,0,,2,,,50,127
79242,note_on,0,0,0,,2,,,74,127
79242,note_on,0,0,0,,6,,,66,127
79259,note_off,17,0,0,,7,,,55,127
79357,note_on,98,0,0,,0,,,72,127
79374,note_off,17,0,0,,6,,,66,127
79374,note_off,0,0,0,,2,,,74,127
79471,note_off,97,0,0,,2,,,50,127
79472,note_on,1,0,0,,0,,,48,127
79472,note_on,0,0,0,,11,,,70,127
79489,note_off,17,0,0,,0,,,72,127
79587,note_on,98,0,0,,10,,,69,127
79604,note_off,17,0,0,,11,,,70,127
79701,note_off,97,0,0,,0,,,48,127
79702,note_on,1,0,0,,2,,,50,127
79702,note_on,0,0,0,,2,,,74,127
79702,note_on,0,0,0,,11,,,70,127
79719,note_off,17,0,0,,10,,,69,127
79817,note_on,98,0,0,,7,,,67,127
79834,note_off,17,0,0,,11,,,70,127
79931,note_off,97,0,0,,2,,,74,127
79932,note_on,1,0,0,,2,,,38,127
79932,note_on,0,0,0,,0,,,72,127
79932,note_on,0,0,0,,10,,,69,127
79949,note_off,17,0,0,,7,,,67,127
80047,note_on,98,0,0,,6,,,66,127
80064,note_off,17,0,0,,10,,,69,127
80158,note_off,94,0,0,,2,,,50,127
80160,note_off,2,0,0,,2,,,38,127
80161,note_off,1,0,0,,0,,,72,127
80162,note_on,1,0,0,,7,,,67,127
80179,note_off,17,0,0,,6,,,66,127
80275,note_off,96,0,0,,7,,,67,127
80277,note_on,2,0,0,,7,,,67,127
80392,note_on,115,0,0,,11,,,70,127
80392,note_on,0,0,0,,11,,,82,127
80392,note_on,0,0,0,,7,,,79,127
80409,note_off,17,0,0,,7,,,67,127
80507,note_on,98,0,0,,2,,,74,127
80524,note_off,17,0,0,,11,,,70,127
80622,note_on,98,0,0,,0,,,36,127
80639,note_off,17,0,0,,2,,,74,127
80736,note_off,97,0,0,,7,,,79,127
80736,note_off,0,0,0,,11,,,82,127
80737,note_on,1,0,0,,3,,,75,127
80852,note_on,115,0,0,,10,,,81,127
80869,note_off,17,0,0,,3,,,75,127
80967,note_on,98,0,0,,7,,,79,127
80984,note_off,17,0,0,,10,,,81,127
81081,note_off,97,0,0,,0,,,36,127
81082,note_on,1,0,0,,2,,,62,127
81082,note_on,0,0,0,,6,,,78,127
81099,note_off,17,0,0,,7,,,79,127
81197,note_on,98,0,0,,2,,,74,127
81310,note_off,113,0,0,,6,,,78,127
81311,note_off,1,0,0,,2,,,62,127
81312,note_on,1,0,0,,3,,,63,127
81312,note_on,0,0,0,,0,,,72,127
81329,note_off,17,0,0,,2,,,74,127
81427,note_on,98,0,0,,7,,,79,127
81444,note_off,17,0,0,,0,,,72,127
81541,note_off,97,0,0,,3,,,63,127
81542,note_on,1,0,0,,2,,,62,127
81542,note_on,0,0,0,,6,,,78,127
81559,note_off,17,0,0,,7,,,79,127
81657,note_on,98,0,0,,2,,,74,127
81770,note_off,113,0,0,,6,,,78,127
81771,note_off,1,0,0,,2,,,62,127
81772,note_on,1,0,0,,0,,,60,127
81772,note_on,0,0,0,,3,,,75,127
81789,note_off,17,0,0,,2,,,74,127
81887,note_on,98,0,0,,7,,,79,127
81904,note_off,17,0,0,,3,,,75,127
82002,note_on,98,0,0,,10,,,81,127
82002,note_on,0,0,0,,6,,,78,127
82019,note_off,17,0,0,,7,,,79,127
82116,note_off,97,0,0,,0,,,60,127
82117,note_on,1,0,0,,7,,,67,127
82231,note_off,114,0,0,,6,,,78,127
82231,note_off,0,0,0,,10,,,81,127
82232,note_on,1,0,0,,11,,,70,127
82232,note_on,0,0,0,,11,,,82,127
82232,note_on,0,0,0,,7,,,79,127
82249,note_off,17,0,0,,7,,,67,127
82347,note_on,98,0,0,,2,,,74,127
82364,note_off,17,0,0,,11,,,70,127
82462,note_on,98,0,0,,0,,,36,127
82479,note_off,17,0,0,,2,,,74,127
82576,note_off,97,0,0,,7,,,79,127
82576,note_off,0,0,0,,11,,,82,127
82577,note_on,1,0,0,,3,,,75,127
82692,note_on,115,0,0,,10,,,81,127
82709,note_off,17,0,0,,3,,,75,127
82807,note_on,98,0,0,,7,,,79,127
82824,note_off,17,0,0,,10,,,81,127
82921,note_off,97,0,0,,0,,,36,127
82922,note_on,1,0,0,,2,,,62,127
82922,note_on,0,0,0,,6,,,78,127
82939,note_off,17,0,0,,7,,,79,127
83037,note_on,98,0,0,,2,,,74,127
83150,note_off,113,0,0,,6,,,78,127
83151,note_off,1,0,0,,2,,,62,127
83152,note_on,1,0,0,,3,,,63,127
83152,note_on,0,0,0,,0,,,72,127
83169,note_off,17,0,0,,2,,,74,127
83267,note_on,98,0,0,,7,,,79,127
83284,note_off,17,0,0,,0,,,72,127
83381,note_off,97,0,0,,3,,,63,127
83382,note_on,1,0,0,,2,,,62,127
83382,note_on,0,0,0,,6,,,78,127
83399,note_off,17,0,0,,7,,,79,127
83497,note_on,98,0,0,,2,,,74,127
83610,note_off,113,0,0,,6,,,78,127
83611,note_off,1,0,0,,2,,,62,127
83612,note_on,1,0,0,,0,,,60,127
83612,note_on,0,0,0,,3,,,75,127
83629,note_off,17,0,0,,2,,,74,127
83727,note_on,98,0,0,,7,,,79,127
83744,note_off,17,0,0,,3,,,75,127
83842,note_on,98,0,0,,10,,,81,127
83842,note_on,0,0,0,,6,,,78,127
83859,note_off,17,0,0,,7,,,79,127
83956,note_off,97,0,0,,0,,,60,127
83957,note_on,1,0,0,,6,,,66,127
84071,note_off,114,0,0,,6,,,78,127
84071,note_off,0,0,0,,10,,,81,127
84072,note_on,1,0,0,,10,,,69,127
84072,note_on,0,0,0,,0,,,84,127
84072,note_on,0,0,0,,10,,,81,127
84089,note_off,17,0,0,,6,,,66,127
84187,note_on,98,0,0,,0,,,72,127
84204,note_off,17,0,0,,10,,,69,127
84302,note_on,98,0,0,,2,,,38,127
84319,note_off,17,0,0,,0,,,72,127
84416,note_off,97,0,0,,10,,,81,127
84416,note_off,0,0,0,,0,,,84,127
84417,note_on,1,0,0,,0,,,84,127
84417,note_on,0,0,0,,10,,,81,127
84532,note_on,115,0,0,,7,,,79,127
84532,note_on,0,0,0,,11,,,82,127
84549,note_off,17,0,0,,10,,,81,127
84549,note_off,0,0,0,,0,,,84,127
84647,note_on,98,0,0,,6,,,78,127
84647,note_on,0,0,0,,10,,,81,127
84664,note_off,17,0,0,,11,,,82,127
84664,note_off,0,0,0,,7,,,79,127
84761,note_off,97,0,0,,2,,,38,127
84762,note_on,1,0,0,,7,,,55,127
84762,note_on,0,0,0,,11,,,82,127
84762,note_on,0,0,0,,7,,,79,127
84779,note_off,17,0,0,,10,,,81,127
84779,note_off,0,0,0,,6,,,78,127
84877,note_on,98,0,0,,2,,,74,127
84894,note_off,17,0,0,,7,,,79,127
84991,note_off,97,0,0,,11,,,82,127
84991,note_off,0,0,0,,7,,,55,127
84992,note_on,1,0,0,,0,,,60,127
84992,note_on,0,0,0,,3,,,75,127
84992,note_on,0,0,0,,0,,,72,127
85009,note_off,17,0,0,,2,,,74,127
85107,note_on,98,0,0,,10,,,81,127
85124,note_off,17,0,0,,3,,,75,127
85221,note_off,97,0,0,,0,,,72,127
85221,note_off,0,0,0,,0,,,60,127
85222,note_on,1,0,0,,2,,,62,127
85222,note_on,0,0,0,,11,,,70,127
85222,note_on,0,0,0,,2,,,74,127
85239,note_off,17,0,0,,10,,,81,127
85337,note_on,98,0,0,,7,,,79,127
85354,note_off,17,0,0,,2,,,74,127
85451,note_off,97,0,0,,11,,,70,127
85452,note_on,1,0,0,,2,,,50,127
85452,note_on,0,0,0,,0,,,72,127
85452,note_on,0,0,0,,10,,,69,127
85469,note_off,17,0,0,,7,,,79,127
85567,note_on,98,0,0,,6,,,78,127
85584,note_off,17,0,0,,0,,,72,127
85678,note_off,94,0,0,,2,,,62,127
85682,note_off,4,0,0,,10,,,69,127
85682,note_off,0,0,0,,2,,,50,127
85683,note_on,1,0,0,,7,,,55,127
85683,note_on,0,0,0,,7,,,79,127
85683,note_on,0,0,0,,11,,,70,127
85700,note_off,17,0,0,,6,,,78,127
85798,note_on,98,0,0,,2,,,74,127
85815,note_off,17,0,0,,7,,,79,127
85912,note_off,97,0,0,,11,,,70,127
85912,note_off,0,0,0,,7,,,55,127
85913,note_on,1,0,0,,0,,,60,127
85913,note_on,0,0,0,,3,,,75,127
85913,note_on,0,0,0,,0,,,72,127
85930,note_off,17,0,0,,2,,,74,127
86028,note_on,98,0,0,,10,,,69,127
86045,note_off,17,0,0,,0,,,72,127
86142,note_off,97,0,0,,3,,,75,127
86142,note_off,0,0,0,,0,,,60,127
86143,note_on,1,0,0,,2,,,62,127
86143,note_on,0,0,0,,2,,,74,127
86143,note_on,0,0,0,,11,,,70,127
86160,note_off,17,0,0,,10,,,69,127
86258,note_on,98,0,0,,7,,,67,127
86275,note_off,17,0,0,,11,,,70,127
86372,note_off,97,0,0,,2,,,74,127
86373,note_on,1,0,0,,2,,,50,127
86373,note_on,0,0,0,,0,,,72,127
86373,note_on,0,0,0,,10,,,69,127
86390,note_off,17,0,0,,7,,,67,127
86488,note_on,98,0,0,,6,,,66,127
86505,note_off,17,0,0,,10,,,69,127
86599,note_off,94,0,0,,2,,,62,127
86603,note_off,4,0,0,,0,,,72,127
86603,note_off,0,0,0,,2,,,50,127
86604,note_on,1,0,0,,7,,,55,127
86604,note_on,0,0,0,,11,,,70,127
86604,note_on,0,0,0,,7,,,67,127
86621,note_off,17,0,0,,6,,,66,127
86719,note_on,98,0,0,,2,,,62,127
86736,note_off,17,0,0,,7,,,67,127
86833,note_off,97,0,0,,11,,,70,127
86833,note_off,0,0,0,,7,,,55,127
86834,note_on,1,0,0,,0,,,48,127
86834,note_on,0,0,0,,3,,,63,127
86834,note_on,0,0,0,,0,,,60,127
86851,note_off,17,0,0,,2,,,62,127
86949,note_on,98,0,0,,10,,,69,127
86966,note_off,17,0,0,,3,,,63,127
87063,note_off,97,0,0,,0,,,60,127
87063,note_off,0,0,0,,0,,,48,127
87064,note_on,1,0,0,,2,,,50,127
87064,note_on,0,0,0,,2,,,62,127
87081,note_off,17,0,0,,10,,,69,127
87179,note_on,98,0,0,,7,,,67,127
87196,note_off,17,0,0,,2,,,62,127
87294,note_on,98,0,0,,2,,,38,127
87294,note_on,0,0,0,,0,,,60,127
87311,note_off,17,0,0,,7,,,67,127
87409,note_on,98,0,0,,6,,,66,127
87426,note_off,17,0,0,,0,,,60,127
87520,note_off,94,0,0,,2,,,50,127
87524,note_off,4,0,0,,2,,,38,127
87525,note_on,1,0,0,,7,,,43,127
87639,note_off,114,0,0,,6,,,66,127
87640,note_on,1,0,0,,7,,,67,127
87755,note_on,115,0,0,,2,,,62,127
87772,note_off,17,0,0,,7,,,67,127
87870,note_on,98,0,0,,11,,,58,127
87887,note_off,17,0,0,,2,,,62,127
87985,note_on,98,0,0,,10,,,57,127
88002,note_off,17,0,0,,11,,,58,127
88022,note_off,20,0,0,,10,,,57,127
88023,note_on,1,0,0,,7,,,55,127
88060,note_off,37,0,0,,7,,,55,127
88061,note_on,1,0,0,,10,,,57,127
88098,note_off,37,0,0,,10,,,57,127
88099,note_on,1,0,0,,7,,,55,127
89642,note_off,1543,0,0,,7,,,55,127
89642,note_off,0,0,0,,7,,,43,127
95232,end_of_track,5590,1,0,,,,,,
