tick,type,time,meta,track,program,channel,pitch,tempo,note,velocity
0,copyright,0,1,0,,,,,,
0,program_change,0,0,0,6,0,,,,
0,pitchwheel,0,0,0,,0,0,,,
0,program_change,0,0,0,6,1,,,,
0,pitchwheel,0,0,0,,1,-590,,,
0,program_change,0,0,0,6,2,,,,
0,pitchwheel,0,0,0,,2,-272,,,
0,program_change,0,0,0,6,3,,,,
0,pitchwheel,0,0,0,,3,-353,,,
0,program_change,0,0,0,6,4,,,,
0,pitchwheel,0,0,0,,4,-560,,,
0,program_change,0,0,0,6,5,,,,
0,pitchwheel,0,0,0,,5,-80,,,
0,program_change,0,0,0,6,6,,,,
0,pitchwheel,0,0,0,,6,-625,,,
0,program_change,0,0,0,6,7,,,,
0,pitchwheel,0,0,0,,7,-130,,,
0,program_change,0,0,0,6,8,,,,
0,pitchwheel,0,0,0,,8,-512,,,
0,program_change,0,0,0,6,10,,,,
0,pitchwheel,0,0,0,,10,-464,,,
0,program_change,0,0,0,6,11,,,,
0,pitchwheel,0,0,0,,11,-208,,,
0,program_change,0,0,0,6,12,,,,
0,pitchwheel,0,0,0,,12,-553,,,
0,set_tempo,0,1,0,,,,500000,,
110,note_on,110,0,0,,7,,,79,127
329,note_on,219,0,0,,2,,,74,127
384,note_off,55,0,0,,7,,,79,127
545,note_off,161,0,0,,2,,,74,127
548,note_on,3,0,0,,0,,,72,127
599,note_off,51,0,0,,0,,,72,127
602,note_on,3,0,0,,12,,,71,127
653,note_off,51,0,0,,12,,,71,127
656,note_on,3,0,0,,0,,,72,127
707,note_off,51,0,0,,0,,,72,127
710,note_on,3,0,0,,12,,,71,127
761,note_off,51,0,0,,12,,,71,127
764,note_on,3,0,0,,10,,,69,127
870,note_off,106,0,0,,10,,,69,127
873,note_on,3,0,0,,7,,,67,127
979,note_off,106,0,0,,7,,,67,127
982,note_on,3,0,0,,6,,,66,127
1088,note_off,106,0,0,,6,,,66,127
1091,note_on,3,0,0,,4,,,64,127
1197,note_off,106,0,0,,4,,,64,127
1200,note_on,3,0,0,,2,,,62,127
1306,note_off,106,0,0,,2,,,62,127
1309,note_on,3,0,0,,0,,,60,127
1415,note_off,106,0,0,,0,,,60,127
1418,note_on,3,0,0,,7,,,55,127
1418,note_on,0,0,0,,12,,,59,127
1524,note_off,106,0,0,,12,,,59,127
1527,note_on,3,0,0,,0,,,60,127
1633,note_off,106,0,0,,0,,,60,127
1633,note_off,0,0,0,,7,,,55,127
1636,note_on,3,0,0,,2,,,50,127
1636,note_on,0,0,0,,2,,,62,127
1852,note_off,216,0,0,,2,,,50,127
1855,note_on,3,0,0,,0,,,48,127
1906,note_off,51,0,0,,0,,,48,127
1909,note_on,3,0,0,,12,,,47,127
1960,note_off,51,0,0,,12,,,47,127
1963,note_on,3,0,0,,0,,,48,127
2014,note_off,51,0,0,,0,,,48,127
2017,note_on,3,0,0,,12,,,47,127
2068,note_off,51,0,0,,12,,,47,127
2068,note_off,0,0,0,,2,,,62,127
2071,note_on,3,0,0,,10,,,45,127
2071,note_on,0,0,0,,7,,,67,127
2177,note_off,106,0,0,,10,,,45,127
2180,note_on,3,0,0,,7,,,43,127
2286,note_off,106,0,0,,7,,,43,127
2286,note_off,0,0,0,,7,,,67,127
2289,note_on,3,0,0,,2,,,50,127
2289,note_on,0,0,0,,6,,,66,127
2395,note_off,106,0,0,,6,,,66,127
2398,note_on,3,0,0,,0,,,72,127
2504,note_off,106,0,0,,0,,,72,127
2507,note_on,3,0,0,,10,,,69,127
2613,note_off,106,0,0,,10,,,69,127
2616,note_on,3,0,0,,4,,,76,127
2722,note_off,106,0,0,,4,,,76,127
2725,note_on,3,0,0,,2,,,38,127
2725,note_on,0,0,0,,2,,,74,127
2831,note_off,106,0,0,,2,,,74,127
2834,note_on,3,0,0,,7,,,79,127
2940,note_off,106,0,0,,7,,,79,127
2942,note_off,2,0,0,,2,,,50,127
2943,note_on,1,0,0,,6,,,78,127
3049,note_off,106,0,0,,6,,,78,127
3052,note_on,3,0,0,,0,,,84,127
3158,note_off,106,0,0,,0,,,84,127
3158,note_off,0,0,0,,2,,,38,127
3161,note_on,3,0,0,,7,,,43,127
3161,note_on,0,0,0,,12,,,83,127
3267,note_off,106,0,0,,12,,,83,127
3270,note_on,3,0,0,,10,,,81,127
3376,note_off,106,0,0,,10,,,81,127
3379,note_on,3,0,0,,7,,,55,127
3379,note_on,0,0,0,,7,,,79,127
3485,note_off,106,0,0,,7,,,79,127
3488,note_off,3,0,0,,7,,,43,127
3488,note_on,0,0,0,,6,,,78,127
3594,note_off,106,0,0,,6,,,78,127
3594,note_off,0,0,0,,7,,,55,127
3597,note_on,3,0,0,,0,,,48,127
3597,note_on,0,0,0,,7,,,79,127
3648,note_off,51,0,0,,0,,,48,127
3651,note_on,3,0,0,,12,,,47,127
3702,note_off,51,0,0,,12,,,47,127
3705,note_on,3,0,0,,0,,,48,127
3756,note_off,51,0,0,,0,,,48,127
3759,note_on,3,0,0,,12,,,47,127
3810,note_off,51,0,0,,12,,,47,127
3813,note_on,3,0,0,,10,,,45,127
3813,note_on,0,0,0,,7,,,67,127
3919,note_off,106,0,0,,10,,,45,127
3922,note_off,3,0,0,,7,,,79,127
3922,note_on,0,0,0,,7,,,43,127
4028,note_off,106,0,0,,7,,,43,127
4028,note_off,0,0,0,,7,,,67,127
4031,note_on,3,0,0,,2,,,50,127
4031,note_on,0,0,0,,6,,,66,127
4137,note_off,106,0,0,,6,,,66,127
4140,note_on,3,0,0,,0,,,72,127
4246,note_off,106,0,0,,0,,,72,127
4249,note_on,3,0,0,,10,,,69,127
4355,note_off,106,0,0,,10,,,69,127
4358,note_on,3,0,0,,4,,,76,127
4464,note_off,106,0,0,,4,,,76,127
4467,note_on,3,0,0,,2,,,38,127
4467,note_on,0,0,0,,2,,,74,127
4573,note_off,106,0,0,,2,,,74,127
4576,note_on,3,0,0,,7,,,79,127
4682,note_off,106,0,0,,7,,,79,127
4684,note_off,2,0,0,,2,,,50,127
4685,note_on,1,0,0,,6,,,78,127
4791,note_off,106,0,0,,6,,,78,127
4794,note_on,3,0,0,,0,,,84,127
4900,note_off,106,0,0,,0,,,84,127
4900,note_off,0,0,0,,2,,,38,127
4903,note_on,3,0,0,,7,,,43,127
4903,note_on,0,0,0,,12,,,83,127
5009,note_off,106,0,0,,12,,,83,127
5012,note_on,3,0,0,,10,,,81,127
5118,note_off,106,0,0,,10,,,81,127
5121,note_on,3,0,0,,7,,,55,127
5121,note_on,0,0,0,,7,,,79,127
5227,note_off,106,0,0,,7,,,79,127
5230,note_off,3,0,0,,7,,,43,127
5230,note_on,0,0,0,,6,,,78,127
5336,note_off,106,0,0,,6,,,78,127
5336,note_off,0,0,0,,7,,,55,127
5339,note_on,3,0,0,,0,,,60,127
5339,note_on,0,0,0,,7,,,79,127
5390,note_off,51,0,0,,0,,,60,127
5393,note_on,3,0,0,,12,,,59,127
5444,note_off,51,0,0,,12,,,59,127
5447,note_on,3,0,0,,0,,,60,127
5498,note_off,51,0,0,,0,,,60,127
5501,note_on,3,0,0,,12,,,59,127
5552,note_off,51,0,0,,12,,,59,127
5552,note_off,0,0,0,,7,,,79,127
5555,note_on,3,0,0,,10,,,57,127
5555,note_on,0,0,0,,2,,,74,127
5661,note_off,106,0,0,,10,,,57,127
5664,note_on,3,0,0,,7,,,55,127
5770,note_off,106,0,0,,7,,,55,127
5770,note_off,0,0,0,,2,,,74,127
5773,note_on,3,0,0,,0,,,60,127
5773,note_on,0,0,0,,4,,,76,127
5883,note_on,110,0,0,,4,,,64,127
5989,note_off,106,0,0,,4,,,64,127
5992,note_on,3,0,0,,4,,,64,127
6098,note_off,106,0,0,,4,,,64,127
6101,note_on,3,0,0,,4,,,64,127
6206,note_off,105,0,0,,4,,,76,127
6207,note_off,1,0,0,,4,,,64,127
6207,note_off,0,0,0,,0,,,60,127
6210,note_on,3,0,0,,0,,,72,127
6210,note_on,0,0,0,,4,,,64,127
6316,note_off,106,0,0,,4,,,64,127
6316,note_off,0,0,0,,0,,,72,127
6319,note_on,3,0,0,,0,,,72,127
6319,note_on,0,0,0,,4,,,64,127
6425,note_off,106,0,0,,4,,,64,127
6425,note_off,0,0,0,,0,,,72,127
6428,note_on,3,0,0,,0,,,72,127
6428,note_on,0,0,0,,4,,,64,127
6534,note_off,106,0,0,,4,,,64,127
6534,note_off,0,0,0,,0,,,72,127
6537,note_on,3,0,0,,4,,,76,127
6537,note_on,0,0,0,,7,,,67,127
6643,note_off,106,0,0,,7,,,67,127
6643,note_off,0,0,0,,4,,,76,127
6646,note_on,3,0,0,,0,,,72,127
6646,note_on,0,0,0,,4,,,64,127
6862,note_off,216,0,0,,4,,,64,127
6862,note_off,0,0,0,,0,,,72,127
6865,note_on,3,0,0,,0,,,60,127
6865,note_on,0,0,0,,4,,,76,127
7081,note_off,216,0,0,,4,,,76,127
7081,note_off,0,0,0,,0,,,60,127
7084,note_on,3,0,0,,2,,,62,127
7084,note_on,0,0,0,,6,,,78,127
7135,note_off,51,0,0,,6,,,78,127
7135,note_off,0,0,0,,2,,,62,127
7138,note_on,3,0,0,,0,,,60,127
7138,note_on,0,0,0,,4,,,76,127
7189,note_off,51,0,0,,4,,,76,127
7189,note_off,0,0,0,,0,,,60,127
7192,note_on,3,0,0,,2,,,62,127
7192,note_on,0,0,0,,6,,,78,127
7243,note_off,51,0,0,,6,,,78,127
7243,note_off,0,0,0,,2,,,62,127
7246,note_on,3,0,0,,0,,,60,127
7246,note_on,0,0,0,,4,,,76,127
7297,note_off,51,0,0,,4,,,76,127
7297,note_off,0,0,0,,0,,,60,127
7300,note_on,3,0,0,,12,,,59,127
7300,note_on,0,0,0,,2,,,74,127
7406,note_off,106,0,0,,2,,,74,127
7406,note_off,0,0,0,,12,,,59,127
7409,note_on,3,0,0,,10,,,57,127
7409,note_on,0,0,0,,0,,,72,127
7515,note_off,106,0,0,,0,,,72,127
7515,note_off,0,0,0,,10,,,57,127
7518,note_on,3,0,0,,7,,,55,127
7518,note_on,0,0,0,,2,,,74,127
7628,note_on,110,0,0,,2,,,62,127
7734,note_off,106,0,0,,2,,,62,127
7737,note_on,3,0,0,,2,,,62,127
7843,note_off,106,0,0,,2,,,62,127
7846,note_on,3,0,0,,2,,,62,127
7951,note_off,105,0,0,,2,,,74,127
7952,note_off,1,0,0,,2,,,62,127
7952,note_off,0,0,0,,7,,,55,127
7955,note_on,3,0,0,,12,,,71,127
7955,note_on,0,0,0,,2,,,62,127
8061,note_off,106,0,0,,2,,,62,127
8061,note_off,0,0,0,,12,,,71,127
8064,note_on,3,0,0,,12,,,71,127
8064,note_on,0,0,0,,2,,,62,127
8170,note_off,106,0,0,,2,,,62,127
8170,note_off,0,0,0,,12,,,71,127
8173,note_on,3,0,0,,12,,,71,127
8173,note_on,0,0,0,,2,,,62,127
8279,note_off,106,0,0,,2,,,62,127
8279,note_off,0,0,0,,12,,,71,127
8282,note_on,3,0,0,,2,,,74,127
8282,note_on,0,0,0,,7,,,67,127
8388,note_off,106,0,0,,7,,,67,127
8388,note_off,0,0,0,,2,,,74,127
8391,note_on,3,0,0,,12,,,71,127
8391,note_on,0,0,0,,2,,,62,127
8607,note_off,216,0,0,,2,,,62,127
8607,note_off,0,0,0,,12,,,71,127
8610,note_on,3,0,0,,12,,,59,127
8610,note_on,0,0,0,,2,,,74,127
8826,note_off,216,0,0,,2,,,74,127
8826,note_off,0,0,0,,12,,,59,127
8829,note_on,3,0,0,,0,,,60,127
8829,note_on,0,0,0,,4,,,76,127
8880,note_off,51,0,0,,4,,,76,127
8880,note_off,0,0,0,,0,,,60,127
8883,note_on,3,0,0,,12,,,59,127
8883,note_on,0,0,0,,2,,,74,127
8934,note_off,51,0,0,,2,,,74,127
8934,note_off,0,0,0,,12,,,59,127
8937,note_on,3,0,0,,0,,,60,127
8937,note_on,0,0,0,,4,,,76,127
8988,note_off,51,0,0,,4,,,76,127
8988,note_off,0,0,0,,0,,,60,127
8991,note_on,3,0,0,,12,,,59,127
8991,note_on,0,0,0,,2,,,74,127
9042,note_off,51,0,0,,2,,,74,127
9042,note_off,0,0,0,,12,,,59,127
9045,note_on,3,0,0,,10,,,57,127
9045,note_on,0,0,0,,0,,,72,127
9151,note_off,106,0,0,,0,,,72,127
9151,note_off,0,0,0,,10,,,57,127
9154,note_on,3,0,0,,7,,,55,127
9154,note_on,0,0,0,,12,,,71,127
9260,note_off,106,0,0,,12,,,71,127
9260,note_off,0,0,0,,7,,,55,127
9263,note_on,3,0,0,,2,,,50,127
9263,note_on,0,0,0,,0,,,72,127
9373,note_on,110,0,0,,2,,,62,127
9479,note_off,106,0,0,,2,,,62,127
9482,note_on,3,0,0,,2,,,62,127
9588,note_off,106,0,0,,2,,,62,127
9591,note_on,3,0,0,,2,,,62,127
9696,note_off,105,0,0,,0,,,72,127
9697,note_off,1,0,0,,2,,,62,127
9697,note_off,0,0,0,,2,,,50,127
9700,note_on,3,0,0,,10,,,69,127
9700,note_on,0,0,0,,2,,,62,127
9806,note_off,106,0,0,,2,,,62,127
9806,note_off,0,0,0,,10,,,69,127
9809,note_on,3,0,0,,10,,,69,127
9809,note_on,0,0,0,,2,,,62,127
9915,note_off,106,0,0,,2,,,62,127
9915,note_off,0,0,0,,10,,,69,127
9918,note_on,3,0,0,,10,,,69,127
9918,note_on,0,0,0,,2,,,62,127
10024,note_off,106,0,0,,2,,,62,127
10024,note_off,0,0,0,,10,,,69,127
10027,note_on,3,0,0,,0,,,72,127
10027,note_on,0,0,0,,6,,,66,127
10133,note_off,106,0,0,,6,,,66,127
10133,note_off,0,0,0,,0,,,72,127
10136,note_on,3,0,0,,10,,,69,127
10136,note_on,0,0,0,,2,,,62,127
10352,note_off,216,0,0,,2,,,62,127
10352,note_off,0,0,0,,10,,,69,127
10355,note_on,3,0,0,,10,,,57,127
10355,note_on,0,0,0,,2,,,50,127
10355,note_on,0,0,0,,0,,,72,127
10571,note_off,216,0,0,,0,,,72,127
10571,note_off,0,0,0,,2,,,50,127
10571,note_off,0,0,0,,10,,,57,127
10574,note_on,3,0,0,,12,,,59,127
10574,note_on,0,0,0,,2,,,50,127
10574,note_on,0,0,0,,2,,,74,127
10625,note_off,51,0,0,,2,,,74,127
10625,note_off,0,0,0,,12,,,59,127
10628,note_on,3,0,0,,10,,,57,127
10628,note_on,0,0,0,,0,,,72,127
10679,note_off,51,0,0,,0,,,72,127
10679,note_off,0,0,0,,10,,,57,127
10682,note_on,3,0,0,,12,,,59,127
10682,note_on,0,0,0,,2,,,74,127
10733,note_off,51,0,0,,2,,,74,127
10733,note_off,0,0,0,,12,,,59,127
10736,note_on,3,0,0,,10,,,57,127
10736,note_on,0,0,0,,0,,,72,127
10787,note_off,51,0,0,,0,,,72,127
10787,note_off,0,0,0,,10,,,57,127
10790,note_on,3,0,0,,7,,,55,127
10790,note_on,0,0,0,,12,,,71,127
10896,note_off,106,0,0,,12,,,71,127
10896,note_off,0,0,0,,7,,,55,127
10899,note_on,3,0,0,,6,,,54,127
10899,note_on,0,0,0,,10,,,69,127
11005,note_off,106,0,0,,10,,,69,127
11005,note_off,0,0,0,,6,,,54,127
11007,note_off,2,0,0,,2,,,50,127
11008,note_on,1,0,0,,7,,,43,127
11008,note_on,0,0,0,,12,,,71,127
11114,note_off,106,0,0,,12,,,71,127
11117,note_on,3,0,0,,7,,,55,127
11223,note_off,106,0,0,,7,,,55,127
11226,note_on,3,0,0,,7,,,55,127
11332,note_off,106,0,0,,7,,,55,127
11335,note_on,3,0,0,,7,,,55,127
11441,note_off,106,0,0,,7,,,55,127
11441,note_off,0,0,0,,7,,,43,127
11444,note_on,3,0,0,,12,,,71,127
11444,note_on,0,0,0,,7,,,55,127
11550,note_off,106,0,0,,7,,,55,127
11550,note_off,0,0,0,,12,,,71,127
11553,note_on,3,0,0,,12,,,71,127
11553,note_on,0,0,0,,7,,,55,127
11659,note_off,106,0,0,,7,,,55,127
11659,note_off,0,0,0,,12,,,71,127
11662,note_on,3,0,0,,12,,,71,127
11662,note_on,0,0,0,,7,,,55,127
11768,note_off,106,0,0,,7,,,55,127
11768,note_off,0,0,0,,12,,,71,127
11771,note_on,3,0,0,,2,,,74,127
11771,note_on,0,0,0,,12,,,59,127
11877,note_off,106,0,0,,12,,,59,127
11877,note_off,0,0,0,,2,,,74,127
11880,note_on,3,0,0,,12,,,71,127
11880,note_on,0,0,0,,7,,,55,127
12096,note_off,216,0,0,,7,,,55,127
12096,note_off,0,0,0,,12,,,71,127
12099,note_on,3,0,0,,7,,,55,127
12099,note_on,0,0,0,,12,,,71,127
12315,note_off,216,0,0,,12,,,71,127
12315,note_off,0,0,0,,7,,,55,127
12318,note_on,3,0,0,,10,,,57,127
12318,note_on,0,0,0,,0,,,72,127
12369,note_off,51,0,0,,0,,,72,127
12369,note_off,0,0,0,,10,,,57,127
12372,note_on,3,0,0,,7,,,55,127
12372,note_on,0,0,0,,12,,,71,127
12423,note_off,51,0,0,,12,,,71,127
12423,note_off,0,0,0,,7,,,55,127
12426,note_on,3,0,0,,10,,,57,127
12426,note_on,0,0,0,,0,,,72,127
12477,note_off,51,0,0,,0,,,72,127
12477,note_off,0,0,0,,10,,,57,127
12480,note_on,3,0,0,,7,,,55,127
12480,note_on,0,0,0,,12,,,71,127
12531,note_off,51,0,0,,12,,,71,127
12531,note_off,0,0,0,,7,,,55,127
12534,note_on,3,0,0,,6,,,54,127
12534,note_on,0,0,0,,10,,,69,127
12640,note_off,106,0,0,,10,,,69,127
12640,note_off,0,0,0,,6,,,54,127
12643,note_on,3,0,0,,4,,,52,127
12643,note_on,0,0,0,,7,,,67,127
12749,note_off,106,0,0,,7,,,67,127
12749,note_off,0,0,0,,4,,,52,127
12752,note_on,3,0,0,,2,,,38,127
12752,note_on,0,0,0,,2,,,74,127
12858,note_off,106,0,0,,2,,,74,127
12861,note_on,3,0,0,,10,,,69,127
12967,note_off,106,0,0,,10,,,69,127
12970,note_on,3,0,0,,2,,,50,127
12970,note_on,0,0,0,,6,,,66,127
13076,note_off,106,0,0,,6,,,66,127
13079,note_off,3,0,0,,2,,,38,127
13079,note_on,0,0,0,,2,,,62,127
13185,note_off,106,0,0,,2,,,62,127
13188,note_on,3,0,0,,2,,,38,127
13188,note_on,0,0,0,,12,,,71,127
13294,note_off,106,0,0,,12,,,71,127
13297,note_off,3,0,0,,2,,,50,127
13297,note_on,0,0,0,,2,,,62,127
13403,note_off,106,0,0,,2,,,62,127
13406,note_on,3,0,0,,2,,,50,127
13406,note_on,0,0,0,,12,,,59,127
13512,note_off,106,0,0,,12,,,59,127
13515,note_off,3,0,0,,2,,,38,127
13515,note_on,0,0,0,,7,,,55,127
13621,note_off,106,0,0,,7,,,55,127
13624,note_on,3,0,0,,2,,,38,127
13624,note_on,0,0,0,,2,,,74,127
13730,note_off,106,0,0,,2,,,74,127
13733,note_off,3,0,0,,2,,,50,127
13733,note_on,0,0,0,,10,,,69,127
13839,note_off,106,0,0,,10,,,69,127
13842,note_on,3,0,0,,2,,,50,127
13842,note_on,0,0,0,,6,,,66,127
13948,note_off,106,0,0,,6,,,66,127
13951,note_off,3,0,0,,2,,,38,127
13951,note_on,0,0,0,,2,,,62,127
14057,note_off,106,0,0,,2,,,62,127
14060,note_on,3,0,0,,2,,,38,127
14060,note_on,0,0,0,,12,,,71,127
14166,note_off,106,0,0,,12,,,71,127
14169,note_off,3,0,0,,2,,,50,127
14169,note_on,0,0,0,,2,,,62,127
14275,note_off,106,0,0,,2,,,62,127
14278,note_on,3,0,0,,2,,,50,127
14278,note_on,0,0,0,,12,,,59,127
14384,note_off,106,0,0,,12,,,59,127
14387,note_off,3,0,0,,2,,,38,127
14387,note_on,0,0,0,,7,,,55,127
14493,note_off,106,0,0,,7,,,55,127
14493,note_off,0,0,0,,2,,,50,127
14496,note_on,3,0,0,,2,,,38,127
14496,note_on,0,0,0,,2,,,74,127
14712,note_off,216,0,0,,2,,,74,127
14715,note_on,3,0,0,,2,,,62,127
15044,note_on,329,0,0,,0,,,72,127
15149,note_off,105,0,0,,2,,,62,127
15150,note_off,1,0,0,,0,,,72,127
15150,note_off,0,0,0,,2,,,38,127
15153,note_on,3,0,0,,6,,,66,127
15153,note_on,0,0,0,,11,,,70,127
15259,note_off,106,0,0,,11,,,70,127
15262,note_on,3,0,0,,10,,,69,127
15368,note_off,106,0,0,,10,,,69,127
15368,note_off,0,0,0,,6,,,66,127
15371,note_on,3,0,0,,7,,,67,127
15371,note_on,0,0,0,,11,,,70,127
15477,note_off,106,0,0,,11,,,70,127
15480,note_on,3,0,0,,10,,,69,127
15586,note_off,106,0,0,,10,,,69,127
15586,note_off,0,0,0,,7,,,67,127
15589,note_on,3,0,0,,7,,,67,127
15589,note_on,0,0,0,,2,,,74,127
15695,note_off,106,0,0,,2,,,74,127
15698,note_on,3,0,0,,1,,,73,127
15804,note_off,106,0,0,,1,,,73,127
15804,note_off,0,0,0,,7,,,67,127
15807,note_on,3,0,0,,11,,,70,127
15807,note_on,0,0,0,,7,,,79,127
15913,note_off,106,0,0,,7,,,79,127
15916,note_on,3,0,0,,5,,,77,127
16022,note_off,106,0,0,,5,,,77,127
16022,note_off,0,0,0,,11,,,70,127
16025,note_on,3,0,0,,11,,,70,127
16025,note_on,0,0,0,,4,,,76,127
16131,note_off,106,0,0,,4,,,76,127
16134,note_on,3,0,0,,2,,,74,127
16240,note_off,106,0,0,,2,,,74,127
16240,note_off,0,0,0,,11,,,70,127
16243,note_on,3,0,0,,10,,,57,127
16243,note_on,0,0,0,,10,,,81,127
16353,note_on,110,0,0,,1,,,73,127
16459,note_off,106,0,0,,1,,,73,127
16460,note_off,1,0,0,,10,,,81,127
16462,note_on,2,0,0,,2,,,74,127
16568,note_off,106,0,0,,2,,,74,127
16571,note_on,3,0,0,,4,,,76,127
16677,note_off,106,0,0,,4,,,76,127
16680,note_on,3,0,0,,10,,,69,127
16786,note_off,106,0,0,,10,,,69,127
16789,note_on,3,0,0,,0,,,72,127
16895,note_off,106,0,0,,0,,,72,127
16895,note_off,0,0,0,,10,,,57,127
16898,note_on,3,0,0,,6,,,66,127
16898,note_on,0,0,0,,11,,,70,127
17004,note_off,106,0,0,,11,,,70,127
17007,note_on,3,0,0,,10,,,69,127
17113,note_off,106,0,0,,10,,,69,127
17113,note_off,0,0,0,,6,,,66,127
17116,note_on,3,0,0,,7,,,67,127
17116,note_on,0,0,0,,11,,,70,127
17222,note_off,106,0,0,,11,,,70,127
17225,note_on,3,0,0,,10,,,69,127
17331,note_off,106,0,0,,10,,,69,127
17331,note_off,0,0,0,,7,,,67,127
17334,note_on,3,0,0,,7,,,67,127
17334,note_on,0,0,0,,2,,,74,127
17440,note_off,106,0,0,,2,,,74,127
17443,note_on,3,0,0,,1,,,73,127
17549,note_off,106,0,0,,1,,,73,127
17549,note_off,0,0,0,,7,,,67,127
17552,note_on,3,0,0,,11,,,70,127
17552,note_on,0,0,0,,7,,,79,127
17658,note_off,106,0,0,,7,,,79,127
17661,note_on,3,0,0,,5,,,77,127
17767,note_off,106,0,0,,5,,,77,127
17767,note_off,0,0,0,,11,,,70,127
17770,note_on,3,0,0,,11,,,70,127
17770,note_on,0,0,0,,4,,,76,127
17876,note_off,106,0,0,,4,,,76,127
17879,note_on,3,0,0,,2,,,74,127
17985,note_off,106,0,0,,2,,,74,127
17985,note_off,0,0,0,,11,,,70,127
17988,note_on,3,0,0,,10,,,57,127
17988,note_on,0,0,0,,10,,,81,127
18098,note_on,110,0,0,,1,,,73,127
18204,note_off,106,0,0,,1,,,73,127
18205,note_off,1,0,0,,10,,,81,127
18207,note_on,2,0,0,,2,,,74,127
18313,note_off,106,0,0,,2,,,74,127
18316,note_on,3,0,0,,4,,,76,127
18422,note_off,106,0,0,,4,,,76,127
18425,note_on,3,0,0,,10,,,69,127
18641,note_off,216,0,0,,10,,,69,127
18641,note_off,0,0,0,,10,,,57,127
18644,note_on,3,0,0,,1,,,73,127
18644,note_on,0,0,0,,10,,,81,127
18750,note_off,106,0,0,,10,,,81,127
18753,note_on,3,0,0,,4,,,76,127
18859,note_off,106,0,0,,4,,,76,127
18859,note_off,0,0,0,,1,,,73,127
18862,note_on,3,0,0,,2,,,74,127
18862,note_on,0,0,0,,4,,,76,127
18968,note_off,106,0,0,,4,,,76,127
18971,note_on,3,0,0,,5,,,77,127
19077,note_off,106,0,0,,5,,,77,127
19077,note_off,0,0,0,,2,,,74,127
19080,note_on,3,0,0,,11,,,70,127
19080,note_on,0,0,0,,10,,,81,127
19186,note_off,106,0,0,,10,,,81,127
19189,note_on,3,0,0,,2,,,74,127
19295,note_off,106,0,0,,2,,,74,127
19295,note_off,0,0,0,,11,,,70,127
19298,note_on,3,0,0,,7,,,67,127
19298,note_on,0,0,0,,2,,,74,127
19404,note_off,106,0,0,,2,,,74,127
19407,note_on,3,0,0,,4,,,76,127
19513,note_off,106,0,0,,4,,,76,127
19513,note_off,0,0,0,,7,,,67,127
19516,note_on,3,0,0,,10,,,69,127
19516,note_on,0,0,0,,10,,,81,127
19622,note_off,106,0,0,,10,,,81,127
19625,note_on,3,0,0,,4,,,76,127
19731,note_off,106,0,0,,4,,,76,127
19731,note_off,0,0,0,,10,,,69,127
19734,note_on,3,0,0,,2,,,74,127
19734,note_on,0,0,0,,4,,,76,127
19840,note_off,106,0,0,,4,,,76,127
19843,note_on,3,0,0,,5,,,77,127
19949,note_off,106,0,0,,5,,,77,127
19949,note_off,0,0,0,,2,,,74,127
19952,note_on,3,0,0,,11,,,70,127
19952,note_on,0,0,0,,10,,,81,127
20058,note_off,106,0,0,,10,,,81,127
20061,note_on,3,0,0,,2,,,74,127
20167,note_off,106,0,0,,2,,,74,127
20167,note_off,0,0,0,,11,,,70,127
20170,note_on,3,0,0,,7,,,67,127
20170,note_on,0,0,0,,2,,,74,127
20276,note_off,106,0,0,,2,,,74,127
20279,note_on,3,0,0,,4,,,76,127
20385,note_off,106,0,0,,4,,,76,127
20385,note_off,0,0,0,,7,,,67,127
20388,note_on,3,0,0,,10,,,69,127
20388,note_on,0,0,0,,10,,,81,127
20494,note_off,106,0,0,,10,,,81,127
20497,note_on,3,0,0,,4,,,76,127
20603,note_off,106,0,0,,4,,,76,127
20603,note_off,0,0,0,,10,,,69,127
20606,note_on,3,0,0,,2,,,74,127
20606,note_on,0,0,0,,4,,,76,127
20712,note_off,106,0,0,,4,,,76,127
20715,note_on,3,0,0,,5,,,77,127
20821,note_off,106,0,0,,5,,,77,127
20821,note_off,0,0,0,,2,,,74,127
20824,note_on,3,0,0,,11,,,70,127
20824,note_on,0,0,0,,10,,,81,127
20930,note_off,106,0,0,,10,,,81,127
20933,note_on,3,0,0,,2,,,74,127
21039,note_off,106,0,0,,2,,,74,127
21039,note_off,0,0,0,,11,,,70,127
21042,note_on,3,0,0,,7,,,67,127
21042,note_on,0,0,0,,2,,,74,127
21148,note_off,106,0,0,,2,,,74,127
21151,note_on,3,0,0,,4,,,76,127
21257,note_off,106,0,0,,4,,,76,127
21257,note_off,0,0,0,,7,,,67,127
21260,note_on,3,0,0,,10,,,69,127
21260,note_on,0,0,0,,10,,,81,127
21366,note_off,106,0,0,,10,,,81,127
21369,note_on,3,0,0,,1,,,73,127
21475,note_off,106,0,0,,1,,,73,127
21475,note_off,0,0,0,,10,,,69,127
21478,note_on,3,0,0,,5,,,65,127
21478,note_on,0,0,0,,1,,,73,127
21584,note_off,106,0,0,,1,,,73,127
21587,note_on,3,0,0,,2,,,74,127
21693,note_off,106,0,0,,2,,,74,127
21693,note_off,0,0,0,,5,,,65,127
21696,note_on,3,0,0,,2,,,62,127
21696,note_on,0,0,0,,10,,,81,127
21802,note_off,106,0,0,,10,,,81,127
21805,note_on,3,0,0,,10,,,69,127
21911,note_off,106,0,0,,10,,,69,127
21911,note_off,0,0,0,,2,,,62,127
21914,note_on,3,0,0,,7,,,67,127
21914,note_on,0,0,0,,10,,,69,127
22020,note_off,106,0,0,,10,,,69,127
22023,note_on,3,0,0,,11,,,70,127
22129,note_off,106,0,0,,11,,,70,127
22129,note_off,0,0,0,,7,,,67,127
22132,note_on,3,0,0,,4,,,64,127
22132,note_on,0,0,0,,10,,,81,127
22238,note_off,106,0,0,,10,,,81,127
22241,note_on,3,0,0,,7,,,67,127
22347,note_off,106,0,0,,7,,,67,127
22347,note_off,0,0,0,,4,,,64,127
22350,note_on,3,0,0,,5,,,65,127
22350,note_on,0,0,0,,7,,,67,127
22456,note_off,106,0,0,,7,,,67,127
22459,note_on,3,0,0,,10,,,69,127
22565,note_off,106,0,0,,10,,,69,127
22565,note_off,0,0,0,,5,,,65,127
22568,note_on,3,0,0,,2,,,62,127
22568,note_on,0,0,0,,10,,,81,127
22674,note_off,106,0,0,,10,,,81,127
22677,note_on,3,0,0,,5,,,65,127
22783,note_off,106,0,0,,5,,,65,127
22783,note_off,0,0,0,,2,,,62,127
22786,note_on,3,0,0,,4,,,64,127
22786,note_on,0,0,0,,5,,,65,127
22892,note_off,106,0,0,,5,,,65,127
22895,note_on,3,0,0,,7,,,67,127
23001,note_off,106,0,0,,7,,,67,127
23001,note_off,0,0,0,,4,,,64,127
23004,note_on,3,0,0,,1,,,61,127
23004,note_on,0,0,0,,10,,,81,127
23110,note_off,106,0,0,,10,,,81,127
23113,note_on,3,0,0,,4,,,64,127
23219,note_off,106,0,0,,4,,,64,127
23219,note_off,0,0,0,,1,,,61,127
23222,note_on,3,0,0,,2,,,62,127
23222,note_on,0,0,0,,4,,,64,127
23328,note_off,106,0,0,,4,,,64,127
23331,note_on,3,0,0,,5,,,65,127
23437,note_off,106,0,0,,5,,,65,127
23437,note_off,0,0,0,,2,,,62,127
23440,note_on,3,0,0,,0,,,60,127
23440,note_on,0,0,0,,5,,,65,127
23546,note_off,106,0,0,,5,,,65,127
23549,note_on,3,0,0,,7,,,67,127
23655,note_off,106,0,0,,7,,,67,127
23655,note_off,0,0,0,,0,,,60,127
23658,note_on,3,0,0,,11,,,58,127
23658,note_on,0,0,0,,7,,,67,127
23764,note_off,106,0,0,,7,,,67,127
23767,note_on,3,0,0,,5,,,65,127
23873,note_off,106,0,0,,5,,,65,127
23876,note_on,3,0,0,,11,,,46,127
23876,note_on,0,0,0,,4,,,64,127
23908,note_off,32,0,0,,11,,,58,127
23982,note_off,74,0,0,,4,,,64,127
23985,note_on,3,0,0,,2,,,62,127
24091,note_off,106,0,0,,2,,,62,127
24091,note_off,0,0,0,,11,,,46,127
24094,note_on,3,0,0,,10,,,45,127
24094,note_on,0,0,0,,10,,,69,127
24200,note_off,106,0,0,,10,,,69,127
24203,note_on,3,0,0,,1,,,73,127
24309,note_off,106,0,0,,1,,,73,127
24312,note_on,3,0,0,,10,,,57,127
24312,note_on,0,0,0,,12,,,71,127
24418,note_off,106,0,0,,12,,,71,127
24421,note_off,3,0,0,,10,,,45,127
24421,note_on,0,0,0,,10,,,69,127
24527,note_off,106,0,0,,10,,,69,127
24527,note_off,0,0,0,,10,,,57,127
24530,note_on,3,0,0,,11,,,58,127
24530,note_on,0,0,0,,7,,,79,127
24636,note_off,106,0,0,,7,,,79,127
24639,note_on,3,0,0,,5,,,77,127
24745,note_off,106,0,0,,5,,,77,127
24748,note_on,3,0,0,,11,,,46,127
24748,note_on,0,0,0,,4,,,76,127
24854,note_off,106,0,0,,4,,,76,127
24857,note_off,3,0,0,,11,,,58,127
24857,note_on,0,0,0,,2,,,74,127
24963,note_off,106,0,0,,2,,,74,127
24963,note_off,0,0,0,,11,,,46,127
24966,note_on,3,0,0,,10,,,45,127
24966,note_on,0,0,0,,10,,,81,127
25072,note_off,106,0,0,,10,,,81,127
25075,note_on,3,0,0,,1,,,73,127
25181,note_off,106,0,0,,1,,,73,127
25184,note_on,3,0,0,,2,,,74,127
25290,note_off,106,0,0,,2,,,74,127
25293,note_on,3,0,0,,4,,,76,127
25399,note_off,106,0,0,,4,,,76,127
25402,note_on,3,0,0,,10,,,69,127
25512,note_on,110,0,0,,10,,,81,127
25618,note_off,106,0,0,,10,,,81,127
25619,note_off,1,0,0,,10,,,69,127
25621,note_on,2,0,0,,7,,,79,127
25727,note_off,106,0,0,,7,,,79,127
25730,note_on,3,0,0,,6,,,78,127
25836,note_off,106,0,0,,6,,,78,127
25836,note_off,0,0,0,,10,,,45,127
25839,note_on,3,0,0,,7,,,55,127
25839,note_on,0,0,0,,4,,,52,127
25839,note_on,0,0,0,,10,,,45,127
25839,note_on,0,0,0,,7,,,79,127
25949,note_on,110,0,0,,4,,,76,127
25976,note_off,27,0,0,,7,,,79,127
26055,note_off,79,0,0,,4,,,76,127
26058,note_on,3,0,0,,1,,,73,127
26164,note_off,106,0,0,,1,,,73,127
26167,note_on,3,0,0,,7,,,67,127
26273,note_off,106,0,0,,7,,,67,127
26276,note_on,3,0,0,,4,,,64,127
26382,note_off,106,0,0,,4,,,64,127
26385,note_on,3,0,0,,7,,,79,127
26491,note_off,106,0,0,,7,,,79,127
26494,note_on,3,0,0,,6,,,78,127
26600,note_off,106,0,0,,6,,,78,127
26603,note_on,3,0,0,,4,,,76,127
26709,note_off,106,0,0,,4,,,76,127
26709,note_off,0,0,0,,10,,,45,127
26709,note_off,0,0,0,,4,,,52,127
26709,note_off,0,0,0,,7,,,55,127
26712,note_on,3,0,0,,10,,,57,127
26712,note_on,0,0,0,,2,,,50,127
26712,note_on,0,0,0,,6,,,54,127
26712,note_on,0,0,0,,10,,,45,127
26712,note_on,0,0,0,,6,,,78,127
26822,note_on,110,0,0,,2,,,74,127
26849,note_off,27,0,0,,6,,,78,127
26928,note_off,79,0,0,,2,,,74,127
26931,note_on,3,0,0,,10,,,69,127
27037,note_off,106,0,0,,10,,,69,127
27040,note_on,3,0,0,,6,,,66,127
27146,note_off,106,0,0,,6,,,66,127
27149,note_on,3,0,0,,2,,,62,127
27255,note_off,106,0,0,,2,,,62,127
27258,note_on,3,0,0,,6,,,78,127
27364,note_off,106,0,0,,6,,,78,127
27367,note_on,3,0,0,,4,,,76,127
27473,note_off,106,0,0,,4,,,76,127
27476,note_on,3,0,0,,2,,,74,127
27582,note_off,106,0,0,,2,,,74,127
27582,note_off,0,0,0,,10,,,45,127
27582,note_off,0,0,0,,6,,,54,127
27582,note_off,0,0,0,,2,,,50,127
27582,note_off,0,0,0,,10,,,57,127
27585,note_on,3,0,0,,10,,,57,127
27585,note_on,0,0,0,,4,,,52,127
27585,note_on,0,0,0,,10,,,45,127
27585,note_on,0,0,0,,4,,,76,127
27695,note_on,110,0,0,,1,,,73,127
27722,note_off,27,0,0,,4,,,76,127
27801,note_off,79,0,0,,1,,,73,127
27804,note_on,3,0,0,,7,,,67,127
27910,note_off,106,0,0,,7,,,67,127
27913,note_on,3,0,0,,4,,,64,127
28019,note_off,106,0,0,,4,,,64,127
28022,note_on,3,0,0,,1,,,61,127
28128,note_off,106,0,0,,1,,,61,127
28131,note_on,3,0,0,,4,,,76,127
28237,note_off,106,0,0,,4,,,76,127
28240,note_on,3,0,0,,2,,,74,127
28346,note_off,106,0,0,,2,,,74,127
28349,note_on,3,0,0,,1,,,73,127
28455,note_off,106,0,0,,1,,,73,127
28455,note_off,0,0,0,,10,,,45,127
28455,note_off,0,0,0,,4,,,52,127
28455,note_off,0,0,0,,10,,,57,127
28458,note_on,3,0,0,,2,,,50,127
28458,note_on,0,0,0,,4,,,52,127
28458,note_on,0,0,0,,12,,,59,127
28458,note_on,0,0,0,,10,,,45,127
28458,note_on,0,0,0,,2,,,74,127
28568,note_on,110,0,0,,12,,,71,127
28595,note_off,27,0,0,,2,,,74,127
28674,note_off,79,0,0,,12,,,71,127
28677,note_on,3,0,0,,8,,,68,127
28783,note_off,106,0,0,,8,,,68,127
28786,note_on,3,0,0,,2,,,62,127
28892,note_off,106,0,0,,2,,,62,127
28894,note_off,2,0,0,,12,,,59,127
28895,note_on,1,0,0,,12,,,59,127
29001,note_off,106,0,0,,12,,,59,127
29004,note_on,3,0,0,,2,,,74,127
29110,note_off,106,0,0,,2,,,74,127
29113,note_on,3,0,0,,1,,,73,127
29219,note_off,106,0,0,,1,,,73,127
29222,note_on,3,0,0,,12,,,71,127
29328,note_off,106,0,0,,12,,,71,127
29328,note_off,0,0,0,,10,,,45,127
29328,note_off,0,0,0,,4,,,52,127
29328,note_off,0,0,0,,2,,,50,127
29331,note_on,3,0,0,,10,,,57,127
29331,note_on,0,0,0,,4,,,52,127
29331,note_on,0,0,0,,7,,,55,127
29331,note_on,0,0,0,,10,,,45,127
29331,note_on,0,0,0,,1,,,73,127
29441,note_on,110,0,0,,10,,,69,127
29468,note_off,27,0,0,,1,,,73,127
29547,note_off,79,0,0,,10,,,69,127
29550,note_on,3,0,0,,4,,,64,127
29656,note_off,106,0,0,,4,,,64,127
29659,note_on,3,0,0,,1,,,61,127
29765,note_off,106,0,0,,1,,,61,127
29767,note_off,2,0,0,,10,,,57,127
29768,note_on,1,0,0,,10,,,57,127
29874,note_off,106,0,0,,10,,,57,127
29877,note_on,3,0,0,,7,,,67,127
29983,note_off,106,0,0,,7,,,67,127
29983,note_off,0,0,0,,10,,,45,127
29983,note_off,0,0,0,,7,,,55,127
29983,note_off,0,0,0,,4,,,52,127
29986,note_on,3,0,0,,1,,,49,127
29986,note_on,0,0,0,,10,,,57,127
29986,note_on,0,0,0,,6,,,66,127
30092,note_off,106,0,0,,6,,,66,127
30095,note_on,3,0,0,,4,,,64,127
30201,note_off,106,0,0,,4,,,64,127
30201,note_off,0,0,0,,1,,,49,127
30204,note_on,3,0,0,,2,,,50,127
30204,note_on,0,0,0,,6,,,66,127
30314,note_on,110,0,0,,2,,,62,127
30341,note_off,27,0,0,,6,,,66,127
30419,note_off,78,0,0,,10,,,57,127
30420,note_off,1,0,0,,2,,,62,127
30420,note_off,0,0,0,,2,,,50,127
30423,note_on,3,0,0,,7,,,55,127
30423,note_on,0,0,0,,4,,,64,127
30533,note_on,110,0,0,,12,,,71,127
30560,note_off,27,0,0,,4,,,64,127
30639,note_off,79,0,0,,12,,,71,127
30639,note_off,0,0,0,,7,,,55,127
30642,note_on,3,0,0,,10,,,57,127
30642,note_on,0,0,0,,10,,,69,127
30752,note_on,110,0,0,,2,,,62,127
30779,note_off,27,0,0,,10,,,69,127
30858,note_off,79,0,0,,2,,,62,127
30861,note_on,3,0,0,,10,,,45,127
30861,note_on,0,0,0,,4,,,64,127
30971,note_on,110,0,0,,1,,,61,127
30998,note_off,27,0,0,,4,,,64,127
31076,note_off,78,0,0,,10,,,57,127
31077,note_off,1,0,0,,1,,,61,127
31077,note_off,0,0,0,,10,,,45,127
31080,note_on,3,0,0,,2,,,50,127
31080,note_on,0,0,0,,2,,,62,127
31190,note_on,110,0,0,,2,,,74,127
31296,note_off,106,0,0,,2,,,74,127
31296,note_off,0,0,0,,2,,,50,127
31297,note_off,1,0,0,,2,,,62,127
31299,note_on,2,0,0,,7,,,55,127
31299,note_on,0,0,0,,1,,,73,127
31405,note_off,106,0,0,,1,,,73,127
31408,note_on,3,0,0,,12,,,71,127
31514,note_off,106,0,0,,12,,,71,127
31514,note_off,0,0,0,,7,,,55,127
31517,note_on,3,0,0,,10,,,57,127
31517,note_on,0,0,0,,1,,,73,127
31627,note_on,110,0,0,,7,,,79,127
31654,note_off,27,0,0,,1,,,73,127
31733,note_off,79,0,0,,7,,,79,127
31733,note_off,0,0,0,,10,,,57,127
31736,note_on,3,0,0,,1,,,61,127
31736,note_on,0,0,0,,6,,,78,127
31842,note_off,106,0,0,,6,,,78,127
31845,note_on,3,0,0,,4,,,76,127
31951,note_off,106,0,0,,4,,,76,127
31951,note_off,0,0,0,,1,,,61,127
31954,note_on,3,0,0,,2,,,62,127
31954,note_on,0,0,0,,6,,,78,127
32064,note_on,110,0,0,,2,,,74,127
32091,note_off,27,0,0,,6,,,78,127
32170,note_off,79,0,0,,2,,,74,127
32170,note_off,0,0,0,,2,,,62,127
32173,note_on,3,0,0,,7,,,67,127
32173,note_on,0,0,0,,4,,,76,127
32279,note_off,106,0,0,,4,,,76,127
32282,note_on,3,0,0,,12,,,83,127
32388,note_off,106,0,0,,12,,,83,127
32388,note_off,0,0,0,,7,,,67,127
32391,note_on,3,0,0,,10,,,69,127
32391,note_on,0,0,0,,10,,,81,127
32501,note_on,110,0,0,,2,,,74,127
32528,note_off,27,0,0,,10,,,81,127
32607,note_off,79,0,0,,2,,,74,127
32607,note_off,0,0,0,,10,,,69,127
32610,note_on,3,0,0,,10,,,57,127
32610,note_on,0,0,0,,4,,,76,127
32716,note_off,106,0,0,,4,,,76,127
32719,note_on,3,0,0,,1,,,73,127
32825,note_off,106,0,0,,1,,,73,127
32825,note_off,0,0,0,,10,,,57,127
32828,note_on,3,0,0,,2,,,50,127
32828,note_on,0,0,0,,2,,,74,127
32934,note_off,106,0,0,,2,,,50,127
32937,note_on,3,0,0,,2,,,62,127
33043,note_off,106,0,0,,2,,,62,127
33046,note_on,3,0,0,,6,,,66,127
33046,note_on,0,0,0,,10,,,81,127
33152,note_off,106,0,0,,6,,,66,127
33155,note_off,3,0,0,,2,,,74,127
33155,note_on,0,0,0,,10,,,69,127
33261,note_off,106,0,0,,10,,,69,127
33264,note_on,3,0,0,,12,,,59,127
33370,note_off,106,0,0,,12,,,59,127
33370,note_off,0,0,0,,10,,,81,127
33373,note_on,3,0,0,,12,,,71,127
33373,note_on,0,0,0,,7,,,79,127
33479,note_off,106,0,0,,7,,,79,127
33479,note_off,0,0,0,,12,,,71,127
33482,note_on,3,0,0,,1,,,61,127
33482,note_on,0,0,0,,6,,,78,127
33588,note_off,106,0,0,,6,,,78,127
33588,note_off,0,0,0,,1,,,61,127
33591,note_on,3,0,0,,1,,,73,127
33591,note_on,0,0,0,,4,,,76,127
33697,note_off,106,0,0,,4,,,76,127
33697,note_off,0,0,0,,1,,,73,127
33700,note_on,3,0,0,,2,,,50,127
33700,note_on,0,0,0,,6,,,78,127
33806,note_off,106,0,0,,6,,,78,127
33806,note_off,0,0,0,,2,,,50,127
33809,note_on,3,0,0,,2,,,62,127
33809,note_on,0,0,0,,12,,,83,127
33915,note_off,106,0,0,,12,,,83,127
33915,note_off,0,0,0,,2,,,62,127
33918,note_on,3,0,0,,6,,,66,127
33918,note_on,0,0,0,,10,,,81,127
34024,note_off,106,0,0,,6,,,66,127
34027,note_on,3,0,0,,10,,,69,127
34133,note_off,106,0,0,,10,,,69,127
34136,note_on,3,0,0,,12,,,59,127
34242,note_off,106,0,0,,12,,,59,127
34242,note_off,0,0,0,,10,,,81,127
34245,note_on,3,0,0,,12,,,71,127
34245,note_on,0,0,0,,7,,,79,127
34351,note_off,106,0,0,,7,,,79,127
34351,note_off,0,0,0,,12,,,71,127
34354,note_on,3,0,0,,1,,,61,127
34354,note_on,0,0,0,,6,,,78,127
34460,note_off,106,0,0,,6,,,78,127
34460,note_off,0,0,0,,1,,,61,127
34463,note_on,3,0,0,,1,,,73,127
34463,note_on,0,0,0,,4,,,76,127
34569,note_off,106,0,0,,4,,,76,127
34569,note_off,0,0,0,,1,,,73,127
34572,note_on,3,0,0,,2,,,50,127
34572,note_on,0,0,0,,6,,,78,127
34678,note_off,106,0,0,,6,,,78,127
34678,note_off,0,0,0,,2,,,50,127
34681,note_on,3,0,0,,2,,,62,127
34681,note_on,0,0,0,,12,,,83,127
34787,note_off,106,0,0,,12,,,83,127
34787,note_off,0,0,0,,2,,,62,127
34790,note_on,3,0,0,,6,,,66,127
34790,note_on,0,0,0,,10,,,81,127
34896,note_off,106,0,0,,6,,,66,127
34899,note_on,3,0,0,,10,,,69,127
35005,note_off,106,0,0,,10,,,69,127
35008,note_on,3,0,0,,12,,,59,127
35114,note_off,106,0,0,,12,,,59,127
35114,note_off,0,0,0,,10,,,81,127
35117,note_on,3,0,0,,12,,,71,127
35117,note_on,0,0,0,,7,,,79,127
35223,note_off,106,0,0,,7,,,79,127
35223,note_off,0,0,0,,12,,,71,127
35226,note_on,3,0,0,,1,,,61,127
35226,note_on,0,0,0,,6,,,78,127
35332,note_off,106,0,0,,6,,,78,127
35332,note_off,0,0,0,,1,,,61,127
35335,note_on,3,0,0,,1,,,73,127
35335,note_on,0,0,0,,4,,,76,127
35441,note_off,106,0,0,,4,,,76,127
35441,note_off,0,0,0,,1,,,73,127
35444,note_on,3,0,0,,2,,,62,127
35444,note_on,0,0,0,,6,,,78,127
35554,note_on,110,0,0,,2,,,74,127
35581,note_off,27,0,0,,6,,,78,127
35660,note_off,79,0,0,,2,,,74,127
35660,note_off,0,0,0,,2,,,62,127
35663,note_on,3,0,0,,7,,,55,127
35663,note_on,0,0,0,,4,,,76,127
35769,note_off,106,0,0,,4,,,76,127
35772,note_on,3,0,0,,12,,,83,127
35878,note_off,106,0,0,,12,,,83,127
35878,note_off,0,0,0,,7,,,55,127
35881,note_on,3,0,0,,10,,,57,127
35881,note_on,0,0,0,,10,,,81,127
35991,note_on,110,0,0,,2,,,74,127
36018,note_off,27,0,0,,10,,,81,127
36097,note_off,79,0,0,,2,,,74,127
36100,note_on,3,0,0,,10,,,45,127
36100,note_on,0,0,0,,4,,,76,127
36210,note_on,110,0,0,,1,,,73,127
36226,note_off,16,0,0,,4,,,76,127
36315,note_off,89,0,0,,10,,,57,127
36316,note_off,1,0,0,,1,,,73,127
36316,note_off,0,0,0,,10,,,45,127
36319,note_on,3,0,0,,2,,,38,127
36319,note_on,0,0,0,,2,,,74,127
36425,note_off,106,0,0,,2,,,38,127
36428,note_on,3,0,0,,2,,,50,127
36428,note_on,0,0,0,,12,,,71,127
36455,note_off,27,0,0,,2,,,74,127
36534,note_off,79,0,0,,12,,,71,127
36534,note_off,0,0,0,,2,,,50,127
36537,note_on,3,0,0,,6,,,54,127
36537,note_on,0,0,0,,10,,,69,127
36643,note_off,106,0,0,,6,,,54,127
36646,note_on,3,0,0,,10,,,57,127
36752,note_off,106,0,0,,10,,,57,127
36755,note_on,3,0,0,,12,,,47,127
36861,note_off,106,0,0,,12,,,47,127
36861,note_off,0,0,0,,10,,,69,127
36864,note_on,3,0,0,,7,,,55,127
36864,note_on,0,0,0,,7,,,79,127
36970,note_off,106,0,0,,7,,,79,127
36970,note_off,0,0,0,,7,,,55,127
36973,note_on,3,0,0,,1,,,49,127
36973,note_on,0,0,0,,6,,,78,127
37079,note_off,106,0,0,,6,,,78,127
37079,note_off,0,0,0,,1,,,49,127
37082,note_on,3,0,0,,10,,,57,127
37082,note_on,0,0,0,,4,,,76,127
37188,note_off,106,0,0,,4,,,76,127
37188,note_off,0,0,0,,10,,,57,127
37191,note_on,3,0,0,,2,,,38,127
37191,note_on,0,0,0,,6,,,78,127
37297,note_off,106,0,0,,2,,,38,127
37300,note_on,3,0,0,,2,,,50,127
37300,note_on,0,0,0,,12,,,71,127
37327,note_off,27,0,0,,6,,,78,127
37406,note_off,79,0,0,,12,,,71,127
37406,note_off,0,0,0,,2,,,50,127
37409,note_on,3,0,0,,6,,,54,127
37409,note_on,0,0,0,,10,,,69,127
37515,note_off,106,0,0,,6,,,54,127
37518,note_on,3,0,0,,10,,,57,127
37624,note_off,106,0,0,,10,,,57,127
37627,note_on,3,0,0,,12,,,47,127
37733,note_off,106,0,0,,12,,,47,127
37733,note_off,0,0,0,,10,,,69,127
37736,note_on,3,0,0,,7,,,55,127
37736,note_on,0,0,0,,7,,,79,127
37842,note_off,106,0,0,,7,,,79,127
37842,note_off,0,0,0,,7,,,55,127
37845,note_on,3,0,0,,1,,,49,127
37845,note_on,0,0,0,,6,,,78,127
37951,note_off,106,0,0,,6,,,78,127
37951,note_off,0,0,0,,1,,,49,127
37954,note_on,3,0,0,,10,,,57,127
37954,note_on,0,0,0,,4,,,76,127
38060,note_off,106,0,0,,4,,,76,127
38060,note_off,0,0,0,,10,,,57,127
38063,note_on,3,0,0,,2,,,38,127
38063,note_on,0,0,0,,6,,,78,127
38169,note_off,106,0,0,,2,,,38,127
38172,note_on,3,0,0,,2,,,50,127
38172,note_on,0,0,0,,12,,,71,127
38199,note_off,27,0,0,,6,,,78,127
38278,note_off,79,0,0,,12,,,71,127
38278,note_off,0,0,0,,2,,,50,127
38281,note_on,3,0,0,,6,,,54,127
38281,note_on,0,0,0,,10,,,69,127
38387,note_off,106,0,0,,6,,,54,127
38390,note_on,3,0,0,,10,,,57,127
38496,note_off,106,0,0,,10,,,57,127
38499,note_on,3,0,0,,12,,,47,127
38605,note_off,106,0,0,,12,,,47,127
38605,note_off,0,0,0,,10,,,69,127
38608,note_on,3,0,0,,7,,,55,127
38608,note_on,0,0,0,,7,,,79,127
38714,note_off,106,0,0,,7,,,79,127
38714,note_off,0,0,0,,7,,,55,127
38717,note_on,3,0,0,,1,,,49,127
38717,note_on,0,0,0,,6,,,78,127
38823,note_off,106,0,0,,6,,,78,127
38823,note_off,0,0,0,,1,,,49,127
38826,note_on,3,0,0,,10,,,57,127
38826,note_on,0,0,0,,4,,,76,127
38932,note_off,106,0,0,,4,,,76,127
38932,note_off,0,0,0,,10,,,57,127
38935,note_on,3,0,0,,6,,,42,127
38935,note_on,0,0,0,,10,,,69,127
38935,note_on,0,0,0,,10,,,81,127
39041,note_off,106,0,0,,6,,,42,127
39044,note_on,3,0,0,,2,,,50,127
39150,note_off,106,0,0,,2,,,50,127
39150,note_off,0,0,0,,10,,,81,127
39150,note_off,0,0,0,,10,,,69,127
39153,note_on,3,0,0,,7,,,43,127
39153,note_on,0,0,0,,10,,,81,127
39153,note_on,0,0,0,,12,,,71,127
39259,note_off,106,0,0,,7,,,43,127
39262,note_on,3,0,0,,4,,,52,127
39368,note_off,106,0,0,,4,,,52,127
39368,note_off,0,0,0,,12,,,71,127
39368,note_off,0,0,0,,10,,,81,127
39371,note_on,3,0,0,,10,,,45,127
39371,note_on,0,0,0,,1,,,73,127
39371,note_on,0,0,0,,10,,,81,127
39477,note_off,106,0,0,,10,,,45,127
39480,note_on,3,0,0,,6,,,54,127
39586,note_off,106,0,0,,6,,,54,127
39586,note_off,0,0,0,,10,,,81,127
39586,note_off,0,0,0,,1,,,73,127
39589,note_on,3,0,0,,12,,,47,127
39589,note_on,0,0,0,,2,,,74,127
39589,note_on,0,0,0,,10,,,81,127
39695,note_off,106,0,0,,12,,,47,127
39698,note_on,3,0,0,,7,,,55,127
39804,note_off,106,0,0,,7,,,55,127
39804,note_off,0,0,0,,10,,,81,127
39804,note_off,0,0,0,,2,,,74,127
39807,note_on,3,0,0,,1,,,49,127
39807,note_on,0,0,0,,4,,,76,127
39807,note_on,0,0,0,,10,,,81,127
39913,note_off,106,0,0,,1,,,49,127
39916,note_on,3,0,0,,10,,,57,127
40022,note_off,106,0,0,,10,,,57,127
40022,note_off,0,0,0,,10,,,81,127
40022,note_off,0,0,0,,4,,,76,127
40025,note_on,3,0,0,,2,,,50,127
40025,note_on,0,0,0,,10,,,81,127
40025,note_on,0,0,0,,6,,,78,127
40131,note_off,106,0,0,,2,,,50,127
40134,note_on,3,0,0,,12,,,59,127
40240,note_off,106,0,0,,12,,,59,127
40240,note_off,0,0,0,,6,,,78,127
40240,note_off,0,0,0,,10,,,81,127
40243,note_on,3,0,0,,4,,,52,127
40243,note_on,0,0,0,,10,,,81,127
40243,note_on,0,0,0,,7,,,79,127
40349,note_off,106,0,0,,4,,,52,127
40352,note_on,3,0,0,,1,,,61,127
40458,note_off,106,0,0,,1,,,61,127
40458,note_off,0,0,0,,7,,,79,127
40458,note_off,0,0,0,,10,,,81,127
40461,note_on,3,0,0,,6,,,54,127
40461,note_on,0,0,0,,10,,,81,127
40461,note_on,0,0,0,,6,,,78,127
40567,note_off,106,0,0,,6,,,54,127
40570,note_on,3,0,0,,2,,,62,127
40676,note_off,106,0,0,,2,,,62,127
40676,note_off,0,0,0,,6,,,78,127
40676,note_off,0,0,0,,10,,,81,127
40679,note_on,3,0,0,,7,,,55,127
40679,note_on,0,0,0,,10,,,81,127
40679,note_on,0,0,0,,4,,,76,127
40785,note_off,106,0,0,,7,,,55,127
40788,note_on,3,0,0,,4,,,64,127
40894,note_off,106,0,0,,4,,,64,127
40894,note_off,0,0,0,,4,,,76,127
40894,note_off,0,0,0,,10,,,81,127
40897,note_on,3,0,0,,10,,,57,127
40897,note_on,0,0,0,,10,,,81,127
40897,note_on,0,0,0,,1,,,73,127
41003,note_off,106,0,0,,10,,,57,127
41006,note_on,3,0,0,,6,,,66,127
41112,note_off,106,0,0,,6,,,66,127
41112,note_off,0,0,0,,1,,,73,127
41112,note_off,0,0,0,,10,,,81,127
41115,note_on,3,0,0,,12,,,59,127
41115,note_on,0,0,0,,2,,,74,127
41115,note_on,0,0,0,,10,,,81,127
41221,note_off,106,0,0,,12,,,59,127
41224,note_on,3,0,0,,7,,,67,127
41330,note_off,106,0,0,,7,,,67,127
41330,note_off,0,0,0,,10,,,81,127
41330,note_off,0,0,0,,2,,,74,127
41333,note_on,3,0,0,,1,,,61,127
41333,note_on,0,0,0,,4,,,76,127
41333,note_on,0,0,0,,10,,,81,127
41439,note_off,106,0,0,,1,,,61,127
41442,note_on,3,0,0,,10,,,69,127
41548,note_off,106,0,0,,10,,,69,127
41548,note_off,0,0,0,,10,,,81,127
41548,note_off,0,0,0,,4,,,76,127
41551,note_on,3,0,0,,2,,,62,127
41551,note_on,0,0,0,,10,,,81,127
41551,note_on,0,0,0,,6,,,78,127
41657,note_off,106,0,0,,6,,,78,127
41657,note_off,0,0,0,,10,,,81,127
41660,note_on,3,0,0,,4,,,76,127
41660,note_on,0,0,0,,7,,,79,127
41766,note_off,106,0,0,,7,,,79,127
41766,note_off,0,0,0,,4,,,76,127
41766,note_off,0,0,0,,2,,,62,127
41769,note_on,3,0,0,,7,,,55,127
41769,note_on,0,0,0,,2,,,74,127
41769,note_on,0,0,0,,6,,,78,127
41875,note_off,106,0,0,,6,,,78,127
41875,note_off,0,0,0,,2,,,74,127
41878,note_on,3,0,0,,1,,,73,127
41878,note_on,0,0,0,,4,,,76,127
41984,note_off,106,0,0,,4,,,76,127
41984,note_off,0,0,0,,1,,,73,127
41984,note_off,0,0,0,,7,,,55,127
41987,note_on,3,0,0,,10,,,57,127
41987,note_on,0,0,0,,6,,,78,127
41987,note_on,0,0,0,,2,,,74,127
42203,note_off,216,0,0,,2,,,74,127
42203,note_off,0,0,0,,6,,,78,127
42206,note_on,3,0,0,,10,,,45,127
42206,note_on,0,0,0,,6,,,78,127
42206,note_on,0,0,0,,2,,,74,127
42261,note_on,55,0,0,,4,,,76,127
42261,note_on,0,0,0,,1,,,73,127
42269,note_off,8,0,0,,2,,,74,127
42269,note_off,0,0,0,,6,,,78,127
42316,note_on,47,0,0,,6,,,78,127
42316,note_on,0,0,0,,2,,,74,127
42324,note_off,8,0,0,,1,,,73,127
42324,note_off,0,0,0,,4,,,76,127
42371,note_on,47,0,0,,4,,,76,127
42371,note_on,0,0,0,,1,,,73,127
42379,note_off,8,0,0,,2,,,74,127
42379,note_off,0,0,0,,6,,,78,127
42421,note_off,42,0,0,,10,,,57,127
42422,note_off,1,0,0,,10,,,45,127
42425,note_on,3,0,0,,2,,,50,127
42425,note_on,0,0,0,,10,,,69,127
42433,note_off,8,0,0,,1,,,73,127
42433,note_off,0,0,0,,4,,,76,127
42535,note_on,102,0,0,,6,,,78,127
42535,note_on,0,0,0,,2,,,74,127
42562,note_off,27,0,0,,10,,,69,127
42641,note_off,79,0,0,,2,,,74,127
42641,note_off,0,0,0,,6,,,78,127
42641,note_off,0,0,0,,2,,,50,127
42644,note_on,3,0,0,,7,,,55,127
42644,note_on,0,0,0,,12,,,71,127
42754,note_on,110,0,0,,7,,,79,127
42754,note_on,0,0,0,,4,,,76,127
42781,note_off,27,0,0,,12,,,71,127
42860,note_off,79,0,0,,4,,,76,127
42860,note_off,0,0,0,,7,,,79,127
42860,note_off,0,0,0,,7,,,55,127
42863,note_on,3,0,0,,10,,,57,127
42863,note_on,0,0,0,,10,,,69,127
42973,note_on,110,0,0,,6,,,78,127
42973,note_on,0,0,0,,2,,,74,127
43000,note_off,27,0,0,,10,,,69,127
43079,note_off,79,0,0,,2,,,74,127
43079,note_off,0,0,0,,6,,,78,127
43082,note_on,3,0,0,,10,,,45,127
43082,note_on,0,0,0,,7,,,67,127
43192,note_on,110,0,0,,4,,,76,127
43192,note_on,0,0,0,,1,,,73,127
43219,note_off,27,0,0,,7,,,67,127
43297,note_off,78,0,0,,10,,,57,127
43298,note_off,1,0,0,,1,,,73,127
43298,note_off,0,0,0,,4,,,76,127
43298,note_off,0,0,0,,10,,,45,127
43301,note_on,3,0,0,,2,,,50,127
43301,note_on,0,0,0,,10,,,69,127
43411,note_on,110,0,0,,2,,,74,127
43411,note_on,0,0,0,,6,,,78,127
43438,note_off,27,0,0,,10,,,69,127
43517,note_off,79,0,0,,6,,,78,127
43517,note_off,0,0,0,,2,,,74,127
43517,note_off,0,0,0,,2,,,50,127
43520,note_on,3,0,0,,7,,,55,127
43520,note_on,0,0,0,,12,,,71,127
43630,note_on,110,0,0,,7,,,79,127
43630,note_on,0,0,0,,4,,,76,127
43657,note_off,27,0,0,,12,,,71,127
43736,note_off,79,0,0,,4,,,76,127
43736,note_off,0,0,0,,7,,,79,127
43736,note_off,0,0,0,,7,,,55,127
43739,note_on,3,0,0,,10,,,57,127
43739,note_on,0,0,0,,10,,,69,127
43849,note_on,110,0,0,,6,,,78,127
43849,note_on,0,0,0,,2,,,74,127
43876,note_off,27,0,0,,10,,,69,127
43955,note_off,79,0,0,,2,,,74,127
43955,note_off,0,0,0,,6,,,78,127
43958,note_on,3,0,0,,10,,,45,127
43958,note_on,0,0,0,,7,,,67,127
44068,note_on,110,0,0,,4,,,76,127
44068,note_on,0,0,0,,1,,,73,127
44095,note_off,27,0,0,,7,,,67,127
44173,note_off,78,0,0,,10,,,57,127
44174,note_off,1,0,0,,1,,,73,127
44174,note_off,0,0,0,,4,,,76,127
44174,note_off,0,0,0,,10,,,45,127
44177,note_on,3,0,0,,2,,,50,127
44177,note_on,0,0,0,,10,,,69,127
44287,note_on,110,0,0,,2,,,74,127
44287,note_on,0,0,0,,6,,,78,127
44314,note_off,27,0,0,,10,,,69,127
44393,note_off,79,0,0,,6,,,78,127
44393,note_off,0,0,0,,2,,,74,127
44393,note_off,0,0,0,,2,,,50,127
44396,note_on,3,0,0,,7,,,55,127
44396,note_on,0,0,0,,7,,,67,127
44506,note_on,110,0,0,,4,,,76,127
44533,note_off,27,0,0,,7,,,67,127
44612,note_off,79,0,0,,7,,,55,127
44615,note_on,3,0,0,,10,,,57,127
44615,note_on,0,0,0,,6,,,66,127
44642,note_off,27,0,0,,4,,,76,127
44724,note_on,82,0,0,,2,,,74,127
44751,note_off,27,0,0,,6,,,66,127
44833,note_on,82,0,0,,10,,,45,127
44833,note_on,0,0,0,,4,,,64,127
44860,note_off,27,0,0,,2,,,74,127
44942,note_off,82,0,0,,10,,,57,127
44942,note_on,0,0,0,,1,,,73,127
44969,note_off,27,0,0,,4,,,64,127
45033,note_off,64,0,0,,1,,,73,127
45048,note_off,15,0,0,,10,,,45,127
45051,note_on,3,0,0,,2,,,38,127
45161,note_on,110,0,0,,6,,,66,127
45267,note_off,106,0,0,,6,,,66,127
45270,note_on,3,0,0,,2,,,62,127
45380,note_on,110,0,0,,10,,,69,127
45407,note_off,27,0,0,,2,,,62,127
45488,note_off,81,0,0,,2,,,38,127
45489,note_on,1,0,0,,6,,,66,127
45516,note_off,27,0,0,,10,,,69,127
45598,note_on,82,0,0,,2,,,74,127
45625,note_off,27,0,0,,6,,,66,127
45707,note_on,82,0,0,,10,,,69,127
45734,note_off,27,0,0,,2,,,74,127
45816,note_on,82,0,0,,6,,,78,127
45843,note_off,27,0,0,,10,,,69,127
45925,note_on,82,0,0,,2,,,74,127
45952,note_off,27,0,0,,6,,,78,127
46034,note_on,82,0,0,,10,,,81,127
46089,note_off,55,0,0,,2,,,74,127
46140,note_off,51,0,0,,10,,,81,127
46143,note_on,3,0,0,,6,,,78,127
46249,note_off,106,0,0,,6,,,78,127
46252,note_on,3,0,0,,2,,,74,127
46358,note_off,106,0,0,,2,,,74,127
46361,note_on,3,0,0,,10,,,69,127
46467,note_off,106,0,0,,10,,,69,127
46470,note_on,3,0,0,,6,,,66,127
46576,note_off,106,0,0,,6,,,66,127
46579,note_on,3,0,0,,2,,,62,127
46685,note_off,106,0,0,,2,,,62,127
46688,note_on,3,0,0,,10,,,57,127
46794,note_off,106,0,0,,10,,,57,127
46797,note_on,3,0,0,,2,,,38,127
47235,note_off,438,0,0,,2,,,38,127
47236,note_on,1,0,0,,2,,,74,127
47455,note_on,219,0,0,,10,,,81,127
47510,note_off,55,0,0,,2,,,74,127
47671,note_off,161,0,0,,10,,,81,127
47674,note_on,3,0,0,,7,,,79,127
47725,note_off,51,0,0,,7,,,79,127
47728,note_on,3,0,0,,6,,,78,127
47779,note_off,51,0,0,,6,,,78,127
47782,note_on,3,0,0,,7,,,79,127
47833,note_off,51,0,0,,7,,,79,127
47836,note_on,3,0,0,,6,,,78,127
47887,note_off,51,0,0,,6,,,78,127
47890,note_on,3,0,0,,4,,,76,127
47996,note_off,106,0,0,,4,,,76,127
47999,note_on,3,0,0,,2,,,74,127
48105,note_off,106,0,0,,2,,,74,127
48108,note_on,3,0,0,,1,,,73,127
48214,note_off,106,0,0,,1,,,73,127
48217,note_on,3,0,0,,12,,,71,127
48323,note_off,106,0,0,,12,,,71,127
48326,note_on,3,0,0,,10,,,69,127
48432,note_off,106,0,0,,10,,,69,127
48435,note_on,3,0,0,,7,,,67,127
48541,note_off,106,0,0,,7,,,67,127
48544,note_on,3,0,0,,2,,,62,127
48544,note_on,0,0,0,,6,,,66,127
48650,note_off,106,0,0,,6,,,66,127
48653,note_on,3,0,0,,7,,,67,127
48759,note_off,106,0,0,,7,,,67,127
48759,note_off,0,0,0,,2,,,62,127
48762,note_on,3,0,0,,10,,,57,127
48762,note_on,0,0,0,,10,,,69,127
48978,note_off,216,0,0,,10,,,57,127
48981,note_on,3,0,0,,7,,,55,127
49032,note_off,51,0,0,,7,,,55,127
49035,note_on,3,0,0,,6,,,54,127
49086,note_off,51,0,0,,6,,,54,127
49089,note_on,3,0,0,,7,,,55,127
49140,note_off,51,0,0,,7,,,55,127
49143,note_on,3,0,0,,6,,,54,127
49194,note_off,51,0,0,,6,,,54,127
49194,note_off,0,0,0,,10,,,69,127
49197,note_on,3,0,0,,4,,,52,127
49197,note_on,0,0,0,,2,,,62,127
49303,note_off,106,0,0,,4,,,52,127
49306,note_on,3,0,0,,2,,,50,127
49412,note_off,106,0,0,,2,,,50,127
49412,note_off,0,0,0,,2,,,62,127
49415,note_on,3,0,0,,10,,,57,127
49415,note_on,0,0,0,,1,,,61,127
49521,note_off,106,0,0,,1,,,61,127
49524,note_on,3,0,0,,6,,,66,127
49630,note_off,106,0,0,,6,,,66,127
49633,note_on,3,0,0,,4,,,64,127
49739,note_off,106,0,0,,4,,,64,127
49742,note_on,3,0,0,,10,,,69,127
49848,note_off,106,0,0,,10,,,69,127
49851,note_on,3,0,0,,10,,,45,127
49851,note_on,0,0,0,,7,,,67,127
49957,note_off,106,0,0,,7,,,67,127
49960,note_on,3,0,0,,2,,,74,127
50066,note_off,106,0,0,,2,,,74,127
50068,note_off,2,0,0,,10,,,57,127
50069,note_on,1,0,0,,1,,,73,127
50175,note_off,106,0,0,,1,,,73,127
50178,note_on,3,0,0,,7,,,79,127
50284,note_off,106,0,0,,7,,,79,127
50284,note_off,0,0,0,,10,,,45,127
50287,note_on,3,0,0,,2,,,38,127
50287,note_on,0,0,0,,6,,,78,127
50393,note_off,106,0,0,,6,,,78,127
50396,note_on,3,0,0,,4,,,76,127
50502,note_off,106,0,0,,4,,,76,127
50502,note_off,0,0,0,,2,,,38,127
50505,note_on,3,0,0,,2,,,50,127
50505,note_on,0,0,0,,2,,,74,127
50611,note_off,106,0,0,,2,,,74,127
50614,note_on,3,0,0,,1,,,73,127
50720,note_off,106,0,0,,1,,,73,127
50720,note_off,0,0,0,,2,,,50,127
50723,note_on,3,0,0,,7,,,55,127
50723,note_on,0,0,0,,2,,,74,127
50774,note_off,51,0,0,,7,,,55,127
50777,note_on,3,0,0,,6,,,54,127
50828,note_off,51,0,0,,6,,,54,127
50831,note_on,3,0,0,,7,,,55,127
50882,note_off,51,0,0,,7,,,55,127
50885,note_on,3,0,0,,6,,,54,127
50936,note_off,51,0,0,,6,,,54,127
50939,note_on,3,0,0,,4,,,52,127
50939,note_on,0,0,0,,2,,,62,127
51045,note_off,106,0,0,,4,,,52,127
51048,note_off,3,0,0,,2,,,74,127
51048,note_on,0,0,0,,2,,,50,127
51154,note_off,106,0,0,,2,,,50,127
51154,note_off,0,0,0,,2,,,62,127
51157,note_on,3,0,0,,10,,,57,127
51157,note_on,0,0,0,,1,,,61,127
51263,note_off,106,0,0,,1,,,61,127
51266,note_on,3,0,0,,6,,,66,127
51372,note_off,106,0,0,,6,,,66,127
51375,note_on,3,0,0,,4,,,64,127
51481,note_off,106,0,0,,4,,,64,127
51484,note_on,3,0,0,,10,,,69,127
51590,note_off,106,0,0,,10,,,69,127
51593,note_on,3,0,0,,10,,,45,127
51593,note_on,0,0,0,,7,,,67,127
51699,note_off,106,0,0,,7,,,67,127
51702,note_on,3,0,0,,2,,,74,127
51808,note_off,106,0,0,,2,,,74,127
51810,note_off,2,0,0,,10,,,57,127
51811,note_on,1,0,0,,1,,,73,127
51917,note_off,106,0,0,,1,,,73,127
51920,note_on,3,0,0,,7,,,79,127
52026,note_off,106,0,0,,7,,,79,127
52026,note_off,0,0,0,,10,,,45,127
52029,note_on,3,0,0,,2,,,38,127
52029,note_on,0,0,0,,6,,,78,127
52135,note_off,106,0,0,,6,,,78,127
52138,note_on,3,0,0,,4,,,76,127
52244,note_off,106,0,0,,4,,,76,127
52244,note_off,0,0,0,,2,,,38,127
52247,note_on,3,0,0,,2,,,50,127
52247,note_on,0,0,0,,2,,,74,127
52353,note_off,106,0,0,,2,,,74,127
52356,note_on,3,0,0,,1,,,73,127
52462,note_off,106,0,0,,1,,,73,127
52462,note_off,0,0,0,,2,,,50,127
52465,note_on,3,0,0,,7,,,55,127
52465,note_on,0,0,0,,2,,,74,127
52516,note_off,51,0,0,,7,,,55,127
52519,note_on,3,0,0,,6,,,54,127
52570,note_off,51,0,0,,6,,,54,127
52573,note_on,3,0,0,,7,,,55,127
52624,note_off,51,0,0,,7,,,55,127
52627,note_on,3,0,0,,6,,,54,127
52678,note_off,51,0,0,,6,,,54,127
52678,note_off,0,0,0,,2,,,74,127
52681,note_on,3,0,0,,4,,,52,127
52681,note_on,0,0,0,,10,,,69,127
52787,note_off,106,0,0,,4,,,52,127
52790,note_on,3,0,0,,2,,,50,127
52896,note_off,106,0,0,,2,,,50,127
52896,note_off,0,0,0,,10,,,69,127
52899,note_on,3,0,0,,7,,,55,127
52899,note_on,0,0,0,,12,,,71,127
53009,note_on,110,0,0,,2,,,62,127
53115,note_off,106,0,0,,2,,,62,127
53118,note_on,3,0,0,,2,,,62,127
53224,note_off,106,0,0,,2,,,62,127
53227,note_on,3,0,0,,2,,,62,127
53332,note_off,105,0,0,,12,,,71,127
53333,note_off,1,0,0,,2,,,62,127
53333,note_off,0,0,0,,7,,,55,127
53336,note_on,3,0,0,,12,,,71,127
53336,note_on,0,0,0,,2,,,62,127
53442,note_off,106,0,0,,2,,,62,127
53442,note_off,0,0,0,,12,,,71,127
53445,note_on,3,0,0,,12,,,71,127
53445,note_on,0,0,0,,2,,,62,127
53551,note_off,106,0,0,,2,,,62,127
53551,note_off,0,0,0,,12,,,71,127
53554,note_on,3,0,0,,12,,,71,127
53554,note_on,0,0,0,,2,,,62,127
53660,note_off,106,0,0,,2,,,62,127
53660,note_off,0,0,0,,12,,,71,127
53663,note_on,3,0,0,,2,,,74,127
53663,note_on,0,0,0,,7,,,67,127
53769,note_off,106,0,0,,7,,,67,127
53769,note_off,0,0,0,,2,,,74,127
53772,note_on,3,0,0,,12,,,71,127
53772,note_on,0,0,0,,2,,,62,127
53988,note_off,216,0,0,,2,,,62,127
53988,note_off,0,0,0,,12,,,71,127
53991,note_on,3,0,0,,7,,,55,127
53991,note_on,0,0,0,,12,,,71,127
54207,note_off,216,0,0,,12,,,71,127
54207,note_off,0,0,0,,7,,,55,127
54210,note_on,3,0,0,,10,,,57,127
54210,note_on,0,0,0,,1,,,73,127
54261,note_off,51,0,0,,1,,,73,127
54261,note_off,0,0,0,,10,,,57,127
54264,note_on,3,0,0,,7,,,55,127
54264,note_on,0,0,0,,12,,,71,127
54315,note_off,51,0,0,,12,,,71,127
54315,note_off,0,0,0,,7,,,55,127
54318,note_on,3,0,0,,10,,,57,127
54318,note_on,0,0,0,,1,,,73,127
54369,note_off,51,0,0,,1,,,73,127
54369,note_off,0,0,0,,10,,,57,127
54372,note_on,3,0,0,,7,,,55,127
54372,note_on,0,0,0,,12,,,71,127
54423,note_off,51,0,0,,12,,,71,127
54423,note_off,0,0,0,,7,,,55,127
54426,note_on,3,0,0,,6,,,54,127
54426,note_on,0,0,0,,10,,,69,127
54532,note_off,106,0,0,,10,,,69,127
54532,note_off,0,0,0,,6,,,54,127
54535,note_on,3,0,0,,4,,,52,127
54535,note_on,0,0,0,,7,,,67,127
54641,note_off,106,0,0,,7,,,67,127
54641,note_off,0,0,0,,4,,,52,127
54644,note_on,3,0,0,,2,,,50,127
54644,note_on,0,0,0,,10,,,69,127
54754,note_on,110,0,0,,2,,,62,127
54860,note_off,106,0,0,,2,,,62,127
54863,note_on,3,0,0,,2,,,62,127
54969,note_off,106,0,0,,2,,,62,127
54972,note_on,3,0,0,,2,,,62,127
55077,note_off,105,0,0,,10,,,69,127
55078,note_off,1,0,0,,2,,,62,127
55078,note_off,0,0,0,,2,,,50,127
55081,note_on,3,0,0,,10,,,69,127
55081,note_on,0,0,0,,2,,,62,127
55187,note_off,106,0,0,,2,,,62,127
55187,note_off,0,0,0,,10,,,69,127
55190,note_on,3,0,0,,10,,,69,127
55190,note_on,0,0,0,,2,,,62,127
55296,note_off,106,0,0,,2,,,62,127
55296,note_off,0,0,0,,10,,,69,127
55299,note_on,3,0,0,,10,,,69,127
55299,note_on,0,0,0,,2,,,62,127
55405,note_off,106,0,0,,2,,,62,127
55405,note_off,0,0,0,,10,,,69,127
55408,note_on,3,0,0,,2,,,74,127
55408,note_on,0,0,0,,6,,,66,127
55514,note_off,106,0,0,,6,,,66,127
55514,note_off,0,0,0,,2,,,74,127
55517,note_on,3,0,0,,10,,,69,127
55517,note_on,0,0,0,,2,,,62,127
55733,note_off,216,0,0,,2,,,62,127
55733,note_off,0,0,0,,10,,,69,127
55736,note_on,3,0,0,,6,,,66,127
55736,note_on,0,0,0,,10,,,81,127
55952,note_off,216,0,0,,10,,,81,127
55952,note_off,0,0,0,,6,,,66,127
55955,note_on,3,0,0,,7,,,67,127
55955,note_on,0,0,0,,12,,,83,127
56006,note_off,51,0,0,,12,,,83,127
56006,note_off,0,0,0,,7,,,67,127
56009,note_on,3,0,0,,6,,,66,127
56009,note_on,0,0,0,,10,,,81,127
56060,note_off,51,0,0,,10,,,81,127
56060,note_off,0,0,0,,6,,,66,127
56063,note_on,3,0,0,,7,,,67,127
56063,note_on,0,0,0,,12,,,83,127
56114,note_off,51,0,0,,12,,,83,127
56114,note_off,0,0,0,,7,,,67,127
56117,note_on,3,0,0,,6,,,66,127
56117,note_on,0,0,0,,10,,,81,127
56168,note_off,51,0,0,,10,,,81,127
56168,note_off,0,0,0,,6,,,66,127
56171,note_on,3,0,0,,4,,,64,127
56171,note_on,0,0,0,,7,,,79,127
56277,note_off,106,0,0,,7,,,79,127
56277,note_off,0,0,0,,4,,,64,127
56280,note_on,3,0,0,,2,,,62,127
56280,note_on,0,0,0,,6,,,78,127
56386,note_off,106,0,0,,6,,,78,127
56386,note_off,0,0,0,,2,,,62,127
56389,note_on,3,0,0,,4,,,64,127
56389,note_on,0,0,0,,10,,,57,127
56389,note_on,0,0,0,,7,,,79,127
56496,note_off,107,0,0,,4,,,64,127
56498,note_on,2,0,0,,4,,,64,127
56498,note_on,0,0,0,,7,,,67,127
56604,note_off,106,0,0,,7,,,67,127
56604,note_off,0,0,0,,4,,,64,127
56607,note_on,3,0,0,,4,,,64,127
56607,note_on,0,0,0,,7,,,67,127
56713,note_off,106,0,0,,7,,,67,127
56713,note_off,0,0,0,,4,,,64,127
56716,note_on,3,0,0,,7,,,67,127
56716,note_on,0,0,0,,4,,,64,127
56821,note_off,105,0,0,,7,,,79,127
56822,note_off,1,0,0,,4,,,64,127
56822,note_off,0,0,0,,7,,,67,127
56822,note_off,0,0,0,,10,,,57,127
56825,note_on,3,0,0,,1,,,73,127
56825,note_on,0,0,0,,4,,,64,127
56825,note_on,0,0,0,,7,,,67,127
56931,note_off,106,0,0,,7,,,67,127
56931,note_off,0,0,0,,4,,,64,127
56931,note_off,0,0,0,,1,,,73,127
56934,note_on,3,0,0,,1,,,73,127
56934,note_on,0,0,0,,7,,,67,127
56934,note_on,0,0,0,,4,,,64,127
57040,note_off,106,0,0,,4,,,64,127
57040,note_off,0,0,0,,7,,,67,127
57040,note_off,0,0,0,,1,,,73,127
57043,note_on,3,0,0,,1,,,73,127
57043,note_on,0,0,0,,4,,,64,127
57043,note_on,0,0,0,,7,,,67,127
57149,note_off,106,0,0,,7,,,67,127
57149,note_off,0,0,0,,4,,,64,127
57149,note_off,0,0,0,,1,,,73,127
57152,note_on,3,0,0,,4,,,76,127
57152,note_on,0,0,0,,7,,,67,127
57152,note_on,0,0,0,,4,,,64,127
57258,note_off,106,0,0,,4,,,64,127
57258,note_off,0,0,0,,7,,,67,127
57258,note_off,0,0,0,,4,,,76,127
57261,note_on,3,0,0,,1,,,73,127
57261,note_on,0,0,0,,4,,,64,127
57261,note_on,0,0,0,,7,,,67,127
57477,note_off,216,0,0,,7,,,67,127
57477,note_off,0,0,0,,4,,,64,127
57477,note_off,0,0,0,,1,,,73,127
57480,note_on,3,0,0,,4,,,64,127
57480,note_on,0,0,0,,10,,,57,127
57480,note_on,0,0,0,,7,,,79,127
57696,note_off,216,0,0,,7,,,79,127
57696,note_off,0,0,0,,10,,,57,127
57696,note_off,0,0,0,,4,,,64,127
57699,note_on,3,0,0,,6,,,66,127
57699,note_on,0,0,0,,10,,,57,127
57699,note_on,0,0,0,,10,,,81,127
57750,note_off,51,0,0,,10,,,81,127
57750,note_off,0,0,0,,6,,,66,127
57753,note_on,3,0,0,,4,,,64,127
57753,note_on,0,0,0,,7,,,79,127
57804,note_off,51,0,0,,7,,,79,127
57804,note_off,0,0,0,,4,,,64,127
57807,note_on,3,0,0,,6,,,66,127
57807,note_on,0,0,0,,10,,,81,127
57858,note_off,51,0,0,,10,,,81,127
57858,note_off,0,0,0,,6,,,66,127
57861,note_on,3,0,0,,4,,,64,127
57861,note_on,0,0,0,,7,,,79,127
57912,note_off,51,0,0,,7,,,79,127
57912,note_off,0,0,0,,4,,,64,127
57915,note_on,3,0,0,,2,,,62,127
57915,note_on,0,0,0,,6,,,78,127
58021,note_off,106,0,0,,6,,,78,127
58021,note_off,0,0,0,,2,,,62,127
58024,note_on,3,0,0,,1,,,61,127
58024,note_on,0,0,0,,4,,,76,127
58130,note_off,106,0,0,,4,,,76,127
58130,note_off,0,0,0,,1,,,61,127
58132,note_off,2,0,0,,10,,,57,127
58133,note_on,1,0,0,,2,,,50,127
58133,note_on,0,0,0,,6,,,78,127
58243,note_on,110,0,0,,2,,,62,127
58243,note_on,0,0,0,,6,,,66,127
58349,note_off,106,0,0,,6,,,66,127
58349,note_off,0,0,0,,2,,,62,127
58352,note_on,3,0,0,,2,,,62,127
58352,note_on,0,0,0,,6,,,66,127
58458,note_off,106,0,0,,6,,,66,127
58458,note_off,0,0,0,,2,,,62,127
58461,note_on,3,0,0,,6,,,66,127
58461,note_on,0,0,0,,2,,,62,127
58566,note_off,105,0,0,,6,,,78,127
58567,note_off,1,0,0,,2,,,62,127
58567,note_off,0,0,0,,6,,,66,127
58567,note_off,0,0,0,,2,,,50,127
58570,note_on,3,0,0,,2,,,74,127
58570,note_on,0,0,0,,2,,,62,127
58570,note_on,0,0,0,,6,,,66,127
58676,note_off,106,0,0,,6,,,66,127
58676,note_off,0,0,0,,2,,,62,127
58676,note_off,0,0,0,,2,,,74,127
58679,note_on,3,0,0,,2,,,74,127
58679,note_on,0,0,0,,2,,,62,127
58679,note_on,0,0,0,,6,,,66,127
58785,note_off,106,0,0,,6,,,66,127
58785,note_off,0,0,0,,2,,,62,127
58785,note_off,0,0,0,,2,,,74,127
58788,note_on,3,0,0,,2,,,74,127
58788,note_on,0,0,0,,2,,,62,127
58788,note_on,0,0,0,,6,,,66,127
58894,note_off,106,0,0,,6,,,66,127
58894,note_off,0,0,0,,2,,,62,127
58894,note_off,0,0,0,,2,,,74,127
58897,note_on,3,0,0,,6,,,78,127
58897,note_on,0,0,0,,2,,,62,127
58897,note_on,0,0,0,,6,,,66,127
59003,note_off,106,0,0,,6,,,66,127
59003,note_off,0,0,0,,2,,,62,127
59003,note_off,0,0,0,,6,,,78,127
59006,note_on,3,0,0,,2,,,74,127
59006,note_on,0,0,0,,2,,,62,127
59006,note_on,0,0,0,,6,,,66,127
59222,note_off,216,0,0,,6,,,66,127
59222,note_off,0,0,0,,2,,,62,127
59222,note_off,0,0,0,,2,,,74,127
59225,note_on,3,0,0,,2,,,62,127
59225,note_on,0,0,0,,6,,,78,127
59441,note_off,216,0,0,,6,,,78,127
59441,note_off,0,0,0,,2,,,62,127
59444,note_on,3,0,0,,4,,,64,127
59444,note_on,0,0,0,,7,,,79,127
59495,note_off,51,0,0,,7,,,79,127
59495,note_off,0,0,0,,4,,,64,127
59498,note_on,3,0,0,,2,,,62,127
59498,note_on,0,0,0,,6,,,78,127
59549,note_off,51,0,0,,6,,,78,127
59549,note_off,0,0,0,,2,,,62,127
59552,note_on,3,0,0,,4,,,64,127
59552,note_on,0,0,0,,7,,,79,127
59603,note_off,51,0,0,,7,,,79,127
59603,note_off,0,0,0,,4,,,64,127
59606,note_on,3,0,0,,2,,,62,127
59606,note_on,0,0,0,,6,,,78,127
59657,note_off,51,0,0,,6,,,78,127
59657,note_off,0,0,0,,2,,,62,127
59660,note_on,3,0,0,,1,,,61,127
59660,note_on,0,0,0,,4,,,76,127
59766,note_off,106,0,0,,4,,,76,127
59766,note_off,0,0,0,,1,,,61,127
59769,note_on,3,0,0,,12,,,59,127
59769,note_on,0,0,0,,2,,,74,127
59875,note_off,106,0,0,,2,,,74,127
59875,note_off,0,0,0,,12,,,59,127
59878,note_on,3,0,0,,10,,,45,127
59878,note_on,0,0,0,,10,,,81,127
59984,note_off,106,0,0,,10,,,81,127
59987,note_on,3,0,0,,4,,,76,127
60093,note_off,106,0,0,,4,,,76,127
60096,note_on,3,0,0,,10,,,57,127
60096,note_on,0,0,0,,1,,,73,127
60202,note_off,106,0,0,,1,,,73,127
60205,note_off,3,0,0,,10,,,45,127
60205,note_on,0,0,0,,10,,,69,127
60311,note_off,106,0,0,,10,,,69,127
60314,note_on,3,0,0,,10,,,45,127
60314,note_on,0,0,0,,6,,,78,127
60420,note_off,106,0,0,,6,,,78,127
60423,note_off,3,0,0,,10,,,57,127
60423,note_on,0,0,0,,2,,,74,127
60529,note_off,106,0,0,,2,,,74,127
60532,note_on,3,0,0,,10,,,57,127
60532,note_on,0,0,0,,10,,,69,127
60638,note_off,106,0,0,,10,,,69,127
60641,note_off,3,0,0,,10,,,45,127
60641,note_on,0,0,0,,6,,,66,127
60747,note_off,106,0,0,,6,,,66,127
60750,note_on,3,0,0,,10,,,45,127
60750,note_on,0,0,0,,4,,,76,127
60856,note_off,106,0,0,,4,,,76,127
60859,note_off,3,0,0,,10,,,57,127
60859,note_on,0,0,0,,1,,,73,127
60965,note_off,106,0,0,,1,,,73,127
60968,note_on,3,0,0,,10,,,57,127
60968,note_on,0,0,0,,7,,,67,127
61074,note_off,106,0,0,,7,,,67,127
61077,note_off,3,0,0,,10,,,45,127
61077,note_on,0,0,0,,4,,,64,127
61183,note_off,106,0,0,,4,,,64,127
61186,note_on,3,0,0,,10,,,45,127
61186,note_on,0,0,0,,2,,,74,127
61292,note_off,106,0,0,,2,,,74,127
61295,note_off,3,0,0,,10,,,57,127
61295,note_on,0,0,0,,10,,,69,127
61401,note_off,106,0,0,,10,,,69,127
61404,note_on,3,0,0,,10,,,57,127
61404,note_on,0,0,0,,6,,,66,127
61510,note_off,106,0,0,,6,,,66,127
61513,note_off,3,0,0,,10,,,45,127
61513,note_on,0,0,0,,2,,,62,127
61619,note_off,106,0,0,,2,,,62,127
61619,note_off,0,0,0,,10,,,57,127
61622,note_on,3,0,0,,10,,,45,127
61622,note_on,0,0,0,,2,,,74,127
61673,note_off,51,0,0,,2,,,74,127
61676,note_on,3,0,0,,1,,,73,127
61727,note_off,51,0,0,,1,,,73,127
61730,note_on,3,0,0,,2,,,74,127
61781,note_off,51,0,0,,2,,,74,127
61784,note_on,3,0,0,,1,,,73,127
61835,note_off,51,0,0,,1,,,73,127
61838,note_on,3,0,0,,12,,,71,127
61944,note_off,106,0,0,,12,,,71,127
61947,note_on,3,0,0,,10,,,69,127
62038,note_off,91,0,0,,10,,,69,127
62053,note_off,15,0,0,,10,,,45,127
62056,note_on,3,0,0,,10,,,57,127
62166,note_on,110,0,0,,2,,,74,127
62272,note_off,106,0,0,,2,,,74,127
62272,note_off,0,0,0,,10,,,57,127
62275,note_on,3,0,0,,8,,,68,127
62275,note_on,0,0,0,,0,,,72,127
62381,note_off,106,0,0,,0,,,72,127
62384,note_on,3,0,0,,12,,,71,127
62490,note_off,106,0,0,,12,,,71,127
62490,note_off,0,0,0,,8,,,68,127
62493,note_on,3,0,0,,10,,,69,127
62493,note_on,0,0,0,,0,,,72,127
62599,note_off,106,0,0,,0,,,72,127
62602,note_on,3,0,0,,12,,,71,127
62708,note_off,106,0,0,,12,,,71,127
62708,note_off,0,0,0,,10,,,69,127
62711,note_on,3,0,0,,10,,,69,127
62711,note_on,0,0,0,,4,,,76,127
62817,note_off,106,0,0,,4,,,76,127
62820,note_on,3,0,0,,3,,,75,127
62926,note_off,106,0,0,,3,,,75,127
62926,note_off,0,0,0,,10,,,69,127
62929,note_on,3,0,0,,0,,,72,127
62929,note_on,0,0,0,,10,,,81,127
63035,note_off,106,0,0,,10,,,81,127
63038,note_on,3,0,0,,7,,,79,127
63144,note_off,106,0,0,,7,,,79,127
63144,note_off,0,0,0,,0,,,72,127
63147,note_on,3,0,0,,0,,,72,127
63147,note_on,0,0,0,,6,,,78,127
63253,note_off,106,0,0,,6,,,78,127
63256,note_on,3,0,0,,4,,,76,127
63362,note_off,106,0,0,,4,,,76,127
63362,note_off,0,0,0,,0,,,72,127
63365,note_on,3,0,0,,12,,,71,127
63365,note_on,0,0,0,,12,,,83,127
63475,note_on,110,0,0,,3,,,75,127
63581,note_off,106,0,0,,3,,,75,127
63582,note_off,1,0,0,,12,,,83,127
63584,note_on,2,0,0,,4,,,76,127
63690,note_off,106,0,0,,4,,,76,127
63693,note_on,3,0,0,,6,,,78,127
63799,note_off,106,0,0,,6,,,78,127
63801,note_off,2,0,0,,12,,,71,127
63802,note_on,1,0,0,,12,,,71,127
63908,note_off,106,0,0,,12,,,71,127
63911,note_on,3,0,0,,2,,,74,127
64017,note_off,106,0,0,,2,,,74,127
64020,note_on,3,0,0,,8,,,68,127
64020,note_on,0,0,0,,0,,,72,127
64126,note_off,106,0,0,,0,,,72,127
64129,note_on,3,0,0,,12,,,71,127
64235,note_off,106,0,0,,12,,,71,127
64235,note_off,0,0,0,,8,,,68,127
64238,note_on,3,0,0,,10,,,69,127
64238,note_on,0,0,0,,0,,,72,127
64344,note_off,106,0,0,,0,,,72,127
64347,note_on,3,0,0,,12,,,71,127
64453,note_off,106,0,0,,12,,,71,127
64453,note_off,0,0,0,,10,,,69,127
64456,note_on,3,0,0,,10,,,69,127
64456,note_on,0,0,0,,4,,,76,127
64562,note_off,106,0,0,,4,,,76,127
64565,note_on,3,0,0,,3,,,75,127
64671,note_off,106,0,0,,3,,,75,127
64671,note_off,0,0,0,,10,,,69,127
64674,note_on,3,0,0,,0,,,72,127
64674,note_on,0,0,0,,10,,,81,127
64780,note_off,106,0,0,,10,,,81,127
64783,note_on,3,0,0,,7,,,79,127
64889,note_off,106,0,0,,7,,,79,127
64889,note_off,0,0,0,,0,,,72,127
64892,note_on,3,0,0,,0,,,72,127
64892,note_on,0,0,0,,6,,,78,127
64998,note_off,106,0,0,,6,,,78,127
65001,note_on,3,0,0,,4,,,76,127
65107,note_off,106,0,0,,4,,,76,127
65107,note_off,0,0,0,,0,,,72,127
65110,note_on,3,0,0,,12,,,71,127
65110,note_on,0,0,0,,12,,,83,127
65220,note_on,110,0,0,,3,,,75,127
65326,note_off,106,0,0,,3,,,75,127
65327,note_off,1,0,0,,12,,,83,127
65329,note_on,2,0,0,,4,,,76,127
65435,note_off,106,0,0,,4,,,76,127
65438,note_on,3,0,0,,6,,,78,127
65544,note_off,106,0,0,,6,,,78,127
65546,note_off,2,0,0,,12,,,71,127
65547,note_on,1,0,0,,12,,,71,127
65763,note_off,216,0,0,,12,,,71,127
65766,note_on,3,0,0,,8,,,68,127
65766,note_on,0,0,0,,12,,,83,127
65876,note_on,110,0,0,,12,,,71,127
65982,note_off,106,0,0,,12,,,71,127
65982,note_off,0,0,0,,8,,,68,127
65983,note_off,1,0,0,,12,,,83,127
65985,note_on,2,0,0,,10,,,69,127
65985,note_on,0,0,0,,12,,,71,127
66091,note_off,106,0,0,,12,,,71,127
66094,note_on,3,0,0,,0,,,72,127
66200,note_off,106,0,0,,10,,,69,127
66203,note_on,3,0,0,,5,,,65,127
66203,note_on,0,0,0,,10,,,81,127
66258,note_off,55,0,0,,0,,,72,127
66313,note_on,55,0,0,,10,,,69,127
66368,note_off,55,0,0,,10,,,81,127
66419,note_off,51,0,0,,10,,,69,127
66419,note_off,0,0,0,,5,,,65,127
66422,note_on,3,0,0,,2,,,62,127
66422,note_on,0,0,0,,10,,,69,127
66528,note_off,106,0,0,,10,,,69,127
66531,note_on,3,0,0,,12,,,71,127
66637,note_off,106,0,0,,2,,,62,127
66640,note_on,3,0,0,,4,,,64,127
66640,note_on,0,0,0,,12,,,83,127
66747,note_off,107,0,0,,12,,,71,127
66749,note_on,2,0,0,,12,,,71,127
66855,note_off,106,0,0,,12,,,71,127
66855,note_off,0,0,0,,4,,,64,127
66856,note_off,1,0,0,,12,,,83,127
66858,note_on,2,0,0,,10,,,69,127
66858,note_on,0,0,0,,12,,,71,127
66964,note_off,106,0,0,,12,,,71,127
66967,note_on,3,0,0,,0,,,72,127
67073,note_off,106,0,0,,10,,,69,127
67076,note_on,3,0,0,,5,,,65,127
67076,note_on,0,0,0,,10,,,81,127
67131,note_off,55,0,0,,0,,,72,127
67186,note_on,55,0,0,,10,,,69,127
67292,note_off,106,0,0,,10,,,69,127
67292,note_off,0,0,0,,5,,,65,127
67293,note_off,1,0,0,,10,,,81,127
67295,note_on,2,0,0,,2,,,62,127
67295,note_on,0,0,0,,10,,,69,127
67401,note_off,106,0,0,,10,,,69,127
67404,note_on,3,0,0,,12,,,71,127
67510,note_off,106,0,0,,2,,,62,127
67513,note_on,3,0,0,,4,,,64,127
67513,note_on,0,0,0,,12,,,83,127
67620,note_off,107,0,0,,12,,,71,127
67622,note_on,2,0,0,,12,,,71,127
67728,note_off,106,0,0,,12,,,71,127
67728,note_off,0,0,0,,4,,,64,127
67729,note_off,1,0,0,,12,,,83,127
67731,note_on,2,0,0,,10,,,57,127
67731,note_on,0,0,0,,12,,,71,127
67837,note_off,106,0,0,,12,,,71,127
67840,note_on,3,0,0,,0,,,72,127
67946,note_off,106,0,0,,0,,,72,127
67946,note_off,0,0,0,,10,,,57,127
67949,note_on,3,0,0,,10,,,69,127
67949,note_on,0,0,0,,0,,,72,127
68055,note_off,106,0,0,,0,,,72,127
68058,note_on,3,0,0,,4,,,76,127
68164,note_off,106,0,0,,4,,,76,127
68164,note_off,0,0,0,,10,,,69,127
68167,note_on,3,0,0,,6,,,66,127
68167,note_on,0,0,0,,4,,,76,127
68273,note_off,106,0,0,,4,,,76,127
68276,note_on,3,0,0,,2,,,74,127
68382,note_off,106,0,0,,2,,,74,127
68382,note_off,0,0,0,,6,,,66,127
68385,note_on,3,0,0,,2,,,62,127
68385,note_on,0,0,0,,2,,,74,127
68491,note_off,106,0,0,,2,,,74,127
68494,note_on,3,0,0,,0,,,72,127
68600,note_off,106,0,0,,0,,,72,127
68600,note_off,0,0,0,,2,,,62,127
68603,note_on,3,0,0,,7,,,67,127
68603,note_on,0,0,0,,0,,,72,127
68709,note_off,106,0,0,,0,,,72,127
68712,note_on,3,0,0,,12,,,71,127
68818,note_off,106,0,0,,7,,,67,127
68821,note_on,3,0,0,,4,,,64,127
68821,note_on,0,0,0,,12,,,83,127
68927,note_off,106,0,0,,12,,,83,127
68928,note_off,1,0,0,,12,,,71,127
68930,note_on,2,0,0,,7,,,67,127
69036,note_off,106,0,0,,7,,,67,127
69036,note_off,0,0,0,,4,,,64,127
69039,note_on,3,0,0,,0,,,60,127
69039,note_on,0,0,0,,7,,,67,127
69145,note_off,106,0,0,,7,,,67,127
69148,note_on,3,0,0,,10,,,69,127
69254,note_off,106,0,0,,0,,,60,127
69257,note_on,3,0,0,,2,,,62,127
69257,note_on,0,0,0,,10,,,81,127
69364,note_off,107,0,0,,10,,,69,127
69366,note_on,2,0,0,,10,,,69,127
69472,note_off,106,0,0,,10,,,69,127
69472,note_off,0,0,0,,2,,,62,127
69473,note_off,1,0,0,,10,,,81,127
69475,note_on,2,0,0,,7,,,67,127
69475,note_on,0,0,0,,10,,,69,127
69581,note_off,106,0,0,,10,,,69,127
69584,note_on,3,0,0,,12,,,71,127
69690,note_off,106,0,0,,7,,,67,127
69693,note_on,3,0,0,,4,,,64,127
69693,note_on,0,0,0,,12,,,83,127
69800,note_off,107,0,0,,12,,,71,127
69802,note_on,2,0,0,,7,,,67,127
69908,note_off,106,0,0,,7,,,67,127
69908,note_off,0,0,0,,4,,,64,127
69909,note_off,1,0,0,,12,,,83,127
69911,note_on,2,0,0,,0,,,60,127
69911,note_on,0,0,0,,7,,,67,127
70017,note_off,106,0,0,,7,,,67,127
70020,note_on,3,0,0,,10,,,69,127
70126,note_off,106,0,0,,0,,,60,127
70129,note_on,3,0,0,,2,,,62,127
70129,note_on,0,0,0,,10,,,81,127
70236,note_off,107,0,0,,10,,,69,127
70238,note_on,2,0,0,,10,,,69,127
70344,note_off,106,0,0,,10,,,69,127
70344,note_off,0,0,0,,2,,,62,127
70345,note_off,1,0,0,,10,,,81,127
70347,note_on,2,0,0,,7,,,55,127
70347,note_on,0,0,0,,10,,,69,127
70453,note_off,106,0,0,,10,,,69,127
70456,note_on,3,0,0,,12,,,71,127
70562,note_off,106,0,0,,12,,,71,127
70562,note_off,0,0,0,,7,,,55,127
70565,note_on,3,0,0,,5,,,65,127
70565,note_on,0,0,0,,12,,,71,127
70671,note_off,106,0,0,,12,,,71,127
70674,note_on,3,0,0,,0,,,72,127
70780,note_off,106,0,0,,0,,,72,127
70780,note_off,0,0,0,,5,,,65,127
70783,note_on,3,0,0,,3,,,63,127
70783,note_on,0,0,0,,0,,,72,127
70889,note_off,106,0,0,,0,,,72,127
70892,note_on,3,0,0,,2,,,74,127
70998,note_off,106,0,0,,2,,,74,127
70998,note_off,0,0,0,,3,,,63,127
71001,note_on,3,0,0,,2,,,62,127
71001,note_on,0,0,0,,2,,,74,127
71107,note_off,106,0,0,,2,,,74,127
71110,note_on,3,0,0,,3,,,75,127
71216,note_off,106,0,0,,3,,,75,127
71216,note_off,0,0,0,,2,,,62,127
71219,note_on,3,0,0,,0,,,60,127
71219,note_on,0,0,0,,3,,,75,127
71325,note_off,106,0,0,,3,,,75,127
71328,note_on,3,0,0,,7,,,79,127
71434,note_off,106,0,0,,7,,,79,127
71434,note_off,0,0,0,,0,,,60,127
71437,note_on,3,0,0,,11,,,70,127
71437,note_on,0,0,0,,7,,,79,127
71543,note_off,106,0,0,,7,,,79,127
71546,note_on,3,0,0,,10,,,81,127
71652,note_off,106,0,0,,10,,,81,127
71652,note_off,0,0,0,,11,,,70,127
71655,note_on,3,0,0,,10,,,69,127
71655,note_on,0,0,0,,10,,,81,127
71761,note_off,106,0,0,,10,,,81,127
71764,note_on,3,0,0,,1,,,73,127
71870,note_off,106,0,0,,1,,,73,127
71870,note_off,0,0,0,,10,,,69,127
71873,note_on,3,0,0,,7,,,67,127
71873,note_on,0,0,0,,1,,,73,127
71979,note_off,106,0,0,,1,,,73,127
71982,note_on,3,0,0,,2,,,74,127
72088,note_off,106,0,0,,2,,,74,127
72088,note_off,0,0,0,,7,,,67,127
72091,note_on,3,0,0,,6,,,66,127
72091,note_on,0,0,0,,2,,,74,127
72197,note_off,106,0,0,,2,,,74,127
72200,note_on,3,0,0,,10,,,69,127
72306,note_off,106,0,0,,10,,,69,127
72306,note_off,0,0,0,,6,,,66,127
72309,note_on,3,0,0,,2,,,62,127
72309,note_on,0,0,0,,10,,,69,127
72415,note_off,106,0,0,,10,,,69,127
72418,note_on,3,0,0,,11,,,70,127
72524,note_off,106,0,0,,11,,,70,127
72524,note_off,0,0,0,,2,,,62,127
72527,note_on,3,0,0,,3,,,63,127
72527,note_on,0,0,0,,11,,,70,127
72633,note_off,106,0,0,,11,,,70,127
72636,note_on,3,0,0,,6,,,66,127
72742,note_off,106,0,0,,6,,,66,127
72742,note_off,0,0,0,,3,,,63,127
72745,note_on,3,0,0,,0,,,60,127
72745,note_on,0,0,0,,6,,,66,127
72851,note_off,106,0,0,,6,,,66,127
72854,note_on,3,0,0,,7,,,67,127
72960,note_off,106,0,0,,7,,,67,127
72960,note_off,0,0,0,,0,,,60,127
72963,note_on,3,0,0,,2,,,50,127
72963,note_on,0,0,0,,10,,,69,127
73073,note_on,110,0,0,,2,,,74,127
73179,note_off,106,0,0,,2,,,74,127
73180,note_off,1,0,0,,10,,,69,127
73182,note_on,2,0,0,,10,,,69,127
73288,note_off,106,0,0,,10,,,69,127
73291,note_on,3,0,0,,6,,,66,127
73397,note_off,106,0,0,,6,,,66,127
73400,note_on,3,0,0,,2,,,62,127
73510,note_on,110,0,0,,2,,,74,127
73616,note_off,106,0,0,,2,,,74,127
73617,note_off,1,0,0,,2,,,62,127
73619,note_on,2,0,0,,0,,,72,127
73725,note_off,106,0,0,,0,,,72,127
73728,note_on,3,0,0,,12,,,71,127
73834,note_off,106,0,0,,12,,,71,127
73834,note_off,0,0,0,,2,,,50,127
73837,note_on,3,0,0,,10,,,57,127
73837,note_on,0,0,0,,0,,,60,127
73837,note_on,0,0,0,,2,,,50,127
73837,note_on,0,0,0,,0,,,72,127
73947,note_on,110,0,0,,10,,,69,127
74053,note_off,106,0,0,,10,,,69,127
74054,note_off,1,0,0,,0,,,72,127
74056,note_on,2,0,0,,6,,,66,127
74162,note_off,106,0,0,,6,,,66,127
74163,note_off,1,0,0,,0,,,60,127
74165,note_on,2,0,0,,0,,,60,127
74271,note_off,106,0,0,,0,,,60,127
74273,note_off,2,0,0,,10,,,57,127
74274,note_on,1,0,0,,10,,,57,127
74380,note_off,106,0,0,,10,,,57,127
74383,note_on,3,0,0,,0,,,72,127
74489,note_off,106,0,0,,0,,,72,127
74492,note_on,3,0,0,,12,,,71,127
74598,note_off,106,0,0,,12,,,71,127
74601,note_on,3,0,0,,10,,,69,127
74707,note_off,106,0,0,,10,,,69,127
74707,note_off,0,0,0,,2,,,50,127
74710,note_on,3,0,0,,12,,,59,127
74710,note_on,0,0,0,,7,,,55,127
74710,note_on,0,0,0,,2,,,50,127
74710,note_on,0,0,0,,12,,,71,127
74820,note_on,110,0,0,,7,,,67,127
74926,note_off,106,0,0,,7,,,67,127
74927,note_off,1,0,0,,12,,,71,127
74929,note_on,2,0,0,,2,,,62,127
75035,note_off,106,0,0,,2,,,62,127
75036,note_off,1,0,0,,12,,,59,127
75038,note_on,2,0,0,,12,,,59,127
75144,note_off,106,0,0,,12,,,59,127
75146,note_off,2,0,0,,7,,,55,127
75147,note_on,1,0,0,,7,,,55,127
75253,note_off,106,0,0,,7,,,55,127
75256,note_on,3,0,0,,12,,,71,127
75362,note_off,106,0,0,,12,,,71,127
75365,note_on,3,0,0,,10,,,69,127
75471,note_off,106,0,0,,10,,,69,127
75474,note_on,3,0,0,,7,,,67,127
75580,note_off,106,0,0,,7,,,67,127
75580,note_off,0,0,0,,2,,,50,127
75583,note_on,3,0,0,,2,,,50,127
75583,note_on,0,0,0,,2,,,38,127
75583,note_on,0,0,0,,10,,,45,127
75583,note_on,0,0,0,,10,,,69,127
75693,note_on,110,0,0,,6,,,66,127
75799,note_off,106,0,0,,6,,,66,127
75800,note_off,1,0,0,,10,,,69,127
75802,note_on,2,0,0,,2,,,62,127
75908,note_off,106,0,0,,2,,,62,127
75911,note_on,3,0,0,,10,,,57,127
76017,note_off,106,0,0,,10,,,57,127
76020,note_on,3,0,0,,6,,,54,127
76126,note_off,106,0,0,,6,,,54,127
76129,note_on,3,0,0,,10,,,69,127
76235,note_off,106,0,0,,10,,,69,127
76238,note_on,3,0,0,,7,,,67,127
76344,note_off,106,0,0,,7,,,67,127
76347,note_on,3,0,0,,6,,,66,127
76453,note_off,106,0,0,,6,,,66,127
76453,note_off,0,0,0,,10,,,45,127
76453,note_off,0,0,0,,2,,,38,127
76453,note_off,0,0,0,,2,,,50,127
76456,note_on,3,0,0,,4,,,52,127
76456,note_on,0,0,0,,1,,,49,127
76456,note_on,0,0,0,,2,,,38,127
76456,note_on,0,0,0,,7,,,67,127
76566,note_on,110,0,0,,4,,,64,127
76621,note_off,55,0,0,,7,,,67,127
76672,note_off,51,0,0,,4,,,64,127
76675,note_on,3,0,0,,1,,,61,127
76781,note_off,106,0,0,,1,,,61,127
76784,note_on,3,0,0,,7,,,55,127
76890,note_off,106,0,0,,7,,,55,127
76892,note_off,2,0,0,,4,,,52,127
76893,note_on,1,0,0,,4,,,52,127
76999,note_off,106,0,0,,4,,,52,127
77002,note_on,3,0,0,,7,,,67,127
77108,note_off,106,0,0,,7,,,67,127
77111,note_on,3,0,0,,6,,,66,127
77217,note_off,106,0,0,,6,,,66,127
77220,note_on,3,0,0,,4,,,64,127
77326,note_off,106,0,0,,4,,,64,127
77326,note_off,0,0,0,,2,,,38,127
77326,note_off,0,0,0,,1,,,49,127
77329,note_on,3,0,0,,10,,,45,127
77329,note_on,0,0,0,,2,,,50,127
77329,note_on,0,0,0,,2,,,38,127
77329,note_on,0,0,0,,6,,,66,127
77435,note_off,106,0,0,,6,,,66,127
77438,note_on,3,0,0,,2,,,74,127
77544,note_off,106,0,0,,2,,,74,127
77547,note_on,3,0,0,,1,,,73,127
77653,note_off,106,0,0,,1,,,73,127
77656,note_on,3,0,0,,12,,,71,127
77762,note_off,106,0,0,,12,,,71,127
77762,note_off,0,0,0,,2,,,38,127
77762,note_off,0,0,0,,2,,,50,127
77762,note_off,0,0,0,,10,,,45,127
77765,note_on,3,0,0,,4,,,52,127
77765,note_on,0,0,0,,2,,,38,127
77765,note_on,0,0,0,,1,,,49,127
77765,note_on,0,0,0,,1,,,73,127
77871,note_off,106,0,0,,1,,,73,127
77874,note_on,3,0,0,,7,,,79,127
77980,note_off,106,0,0,,7,,,79,127
77983,note_on,3,0,0,,6,,,78,127
78089,note_off,106,0,0,,6,,,78,127
78092,note_on,3,0,0,,4,,,76,127
78198,note_off,106,0,0,,4,,,76,127
78198,note_off,0,0,0,,1,,,49,127
78198,note_off,0,0,0,,2,,,38,127
78198,note_off,0,0,0,,4,,,52,127
78201,note_on,3,0,0,,10,,,45,127
78201,note_on,0,0,0,,2,,,50,127
78201,note_on,0,0,0,,2,,,38,127
78201,note_on,0,0,0,,10,,,81,127
78307,note_off,106,0,0,,10,,,81,127
78310,note_on,3,0,0,,6,,,78,127
78416,note_off,106,0,0,,6,,,78,127
78419,note_on,3,0,0,,2,,,74,127
78525,note_off,106,0,0,,2,,,74,127
78528,note_on,3,0,0,,10,,,69,127
78634,note_off,106,0,0,,10,,,69,127
78637,note_on,3,0,0,,2,,,62,127
78853,note_off,216,0,0,,2,,,62,127
78853,note_off,0,0,0,,2,,,38,127
78853,note_off,0,0,0,,2,,,50,127
78853,note_off,0,0,0,,10,,,45,127
78856,note_on,3,0,0,,2,,,62,127
78856,note_on,0,0,0,,2,,,74,127
78962,note_off,106,0,0,,2,,,74,127
78965,note_on,3,0,0,,10,,,69,127
79071,note_off,106,0,0,,10,,,69,127
79071,note_off,0,0,0,,2,,,62,127
79074,note_on,3,0,0,,7,,,67,127
79074,note_on,0,0,0,,10,,,69,127
79180,note_off,106,0,0,,10,,,69,127
79183,note_on,3,0,0,,11,,,70,127
79289,note_off,106,0,0,,11,,,70,127
79289,note_off,0,0,0,,7,,,67,127
79292,note_on,3,0,0,,3,,,63,127
79292,note_on,0,0,0,,2,,,74,127
79398,note_off,106,0,0,,2,,,74,127
79401,note_on,3,0,0,,7,,,67,127
79507,note_off,106,0,0,,7,,,67,127
79507,note_off,0,0,0,,3,,,63,127
79510,note_on,3,0,0,,0,,,60,127
79510,note_on,0,0,0,,7,,,67,127
79616,note_off,106,0,0,,7,,,67,127
79619,note_on,3,0,0,,10,,,69,127
79725,note_off,106,0,0,,10,,,69,127
79725,note_off,0,0,0,,0,,,60,127
79728,note_on,3,0,0,,2,,,62,127
79728,note_on,0,0,0,,2,,,74,127
79834,note_off,106,0,0,,2,,,74,127
79837,note_on,3,0,0,,6,,,66,127
79943,note_off,106,0,0,,6,,,66,127
79943,note_off,0,0,0,,2,,,62,127
79946,note_on,3,0,0,,11,,,58,127
79946,note_on,0,0,0,,6,,,66,127
80052,note_off,106,0,0,,6,,,66,127
80055,note_on,3,0,0,,7,,,67,127
80161,note_off,106,0,0,,7,,,67,127
80161,note_off,0,0,0,,11,,,58,127
80164,note_on,3,0,0,,7,,,55,127
80164,note_on,0,0,0,,11,,,82,127
80270,note_off,106,0,0,,11,,,82,127
80273,note_on,3,0,0,,2,,,74,127
80379,note_off,106,0,0,,2,,,74,127
80379,note_off,0,0,0,,7,,,55,127
80382,note_on,3,0,0,,0,,,60,127
80382,note_on,0,0,0,,2,,,74,127
80488,note_off,106,0,0,,2,,,74,127
80491,note_on,3,0,0,,3,,,75,127
80597,note_off,106,0,0,,3,,,75,127
80597,note_off,0,0,0,,0,,,60,127
80600,note_on,3,0,0,,10,,,57,127
80600,note_on,0,0,0,,0,,,84,127
80706,note_off,106,0,0,,0,,,84,127
80709,note_on,3,0,0,,6,,,78,127
80815,note_off,106,0,0,,6,,,78,127
80815,note_off,0,0,0,,10,,,57,127
80818,note_on,3,0,0,,11,,,58,127
80818,note_on,0,0,0,,6,,,78,127
80924,note_off,106,0,0,,6,,,78,127
80927,note_on,3,0,0,,7,,,79,127
81033,note_off,106,0,0,,7,,,79,127
81033,note_off,0,0,0,,11,,,58,127
81036,note_on,3,0,0,,7,,,55,127
81036,note_on,0,0,0,,2,,,74,127
81142,note_off,106,0,0,,2,,,74,127
81145,note_on,3,0,0,,7,,,67,127
81251,note_off,106,0,0,,7,,,67,127
81251,note_off,0,0,0,,7,,,55,127
81254,note_on,3,0,0,,0,,,60,127
81254,note_on,0,0,0,,7,,,67,127
81360,note_off,106,0,0,,7,,,67,127
81363,note_on,3,0,0,,10,,,69,127
81469,note_off,106,0,0,,10,,,69,127
81469,note_off,0,0,0,,0,,,60,127
81472,note_on,3,0,0,,10,,,57,127
81472,note_on,0,0,0,,2,,,74,127
81578,note_off,106,0,0,,2,,,74,127
81581,note_on,3,0,0,,6,,,66,127
81687,note_off,106,0,0,,6,,,66,127
81687,note_off,0,0,0,,10,,,57,127
81690,note_on,3,0,0,,11,,,58,127
81690,note_on,0,0,0,,6,,,66,127
81796,note_off,106,0,0,,6,,,66,127
81799,note_on,3,0,0,,7,,,67,127
81905,note_off,106,0,0,,7,,,67,127
81905,note_off,0,0,0,,11,,,58,127
81908,note_on,3,0,0,,7,,,55,127
81908,note_on,0,0,0,,11,,,82,127
82014,note_off,106,0,0,,11,,,82,127
82017,note_on,3,0,0,,2,,,74,127
82123,note_off,106,0,0,,2,,,74,127
82123,note_off,0,0,0,,7,,,55,127
82126,note_on,3,0,0,,0,,,72,127
82126,note_on,0,0,0,,2,,,74,127
82232,note_off,106,0,0,,2,,,74,127
82235,note_on,3,0,0,,3,,,75,127
82341,note_off,106,0,0,,3,,,75,127
82341,note_off,0,0,0,,0,,,72,127
82344,note_on,3,0,0,,10,,,69,127
82344,note_on,0,0,0,,0,,,84,127
82450,note_off,106,0,0,,0,,,84,127
82453,note_on,3,0,0,,0,,,72,127
82559,note_off,106,0,0,,0,,,72,127
82559,note_off,0,0,0,,10,,,69,127
82562,note_on,3,0,0,,11,,,70,127
82562,note_on,0,0,0,,0,,,72,127
82668,note_off,106,0,0,,0,,,72,127
82671,note_on,3,0,0,,2,,,74,127
82777,note_off,106,0,0,,2,,,74,127
82777,note_off,0,0,0,,11,,,70,127
82780,note_on,3,0,0,,7,,,67,127
82780,note_on,0,0,0,,11,,,82,127
82886,note_off,106,0,0,,11,,,82,127
82889,note_on,3,0,0,,11,,,70,127
82995,note_off,106,0,0,,11,,,70,127
82995,note_off,0,0,0,,7,,,67,127
82998,note_on,3,0,0,,10,,,69,127
82998,note_on,0,0,0,,11,,,70,127
83104,note_off,106,0,0,,11,,,70,127
83107,note_on,3,0,0,,0,,,72,127
83213,note_off,106,0,0,,0,,,72,127
83213,note_off,0,0,0,,10,,,69,127
83216,note_on,3,0,0,,6,,,66,127
83216,note_on,0,0,0,,10,,,81,127
83322,note_off,106,0,0,,10,,,81,127
83325,note_on,3,0,0,,10,,,69,127
83431,note_off,106,0,0,,10,,,69,127
83431,note_off,0,0,0,,6,,,66,127
83434,note_on,3,0,0,,7,,,67,127
83434,note_on,0,0,0,,10,,,69,127
83540,note_off,106,0,0,,10,,,69,127
83543,note_on,3,0,0,,12,,,71,127
83649,note_off,106,0,0,,12,,,71,127
83649,note_off,0,0,0,,7,,,67,127
83652,note_on,3,0,0,,12,,,59,127
83652,note_on,0,0,0,,2,,,74,127
83758,note_off,106,0,0,,2,,,74,127
83761,note_on,3,0,0,,7,,,67,127
83867,note_off,106,0,0,,7,,,67,127
83867,note_off,0,0,0,,12,,,59,127
83870,note_on,3,0,0,,0,,,60,127
83870,note_on,0,0,0,,7,,,67,127
83976,note_off,106,0,0,,7,,,67,127
83979,note_on,3,0,0,,10,,,69,127
84085,note_off,106,0,0,,10,,,69,127
84085,note_off,0,0,0,,0,,,60,127
84088,note_on,3,0,0,,10,,,57,127
84088,note_on,0,0,0,,2,,,74,127
84194,note_off,106,0,0,,2,,,74,127
84197,note_on,3,0,0,,6,,,66,127
84303,note_off,106,0,0,,6,,,66,127
84303,note_off,0,0,0,,10,,,57,127
84306,note_on,3,0,0,,12,,,59,127
84306,note_on,0,0,0,,6,,,66,127
84412,note_off,106,0,0,,6,,,66,127
84415,note_on,3,0,0,,7,,,67,127
84521,note_off,106,0,0,,7,,,67,127
84521,note_off,0,0,0,,12,,,59,127
84524,note_on,3,0,0,,7,,,55,127
84524,note_on,0,0,0,,2,,,74,127
84630,note_off,106,0,0,,2,,,74,127
84633,note_on,3,0,0,,12,,,71,127
84739,note_off,106,0,0,,12,,,71,127
84739,note_off,0,0,0,,7,,,55,127
84742,note_on,3,0,0,,0,,,60,127
84742,note_on,0,0,0,,4,,,76,127
84848,note_off,106,0,0,,4,,,76,127
84851,note_on,3,0,0,,0,,,72,127
84957,note_off,106,0,0,,0,,,72,127
84957,note_off,0,0,0,,0,,,60,127
84960,note_on,3,0,0,,10,,,57,127
84960,note_on,0,0,0,,6,,,78,127
85066,note_off,106,0,0,,6,,,78,127
85069,note_on,3,0,0,,2,,,74,127
85175,note_off,106,0,0,,2,,,74,127
85175,note_off,0,0,0,,10,,,57,127
85178,note_on,3,0,0,,12,,,59,127
85178,note_on,0,0,0,,7,,,79,127
85288,note_on,110,0,0,,7,,,67,127
85394,note_off,106,0,0,,7,,,67,127
85394,note_off,0,0,0,,12,,,59,127
85395,note_off,1,0,0,,7,,,79,127
85397,note_on,2,0,0,,0,,,60,127
85397,note_on,0,0,0,,10,,,69,127
85503,note_off,106,0,0,,10,,,69,127
85506,note_on,3,0,0,,4,,,76,127
85612,note_off,106,0,0,,4,,,76,127
85612,note_off,0,0,0,,0,,,60,127
85615,note_on,3,0,0,,2,,,62,127
85615,note_on,0,0,0,,2,,,74,127
85721,note_off,106,0,0,,2,,,74,127
85724,note_on,3,0,0,,7,,,67,127
85830,note_off,106,0,0,,7,,,67,127
85833,note_on,3,0,0,,2,,,50,127
85833,note_on,0,0,0,,10,,,69,127
85939,note_off,106,0,0,,10,,,69,127
85942,note_off,3,0,0,,2,,,62,127
85942,note_on,0,0,0,,6,,,66,127
86048,note_off,106,0,0,,6,,,66,127
86048,note_off,0,0,0,,2,,,50,127
86051,note_on,3,0,0,,7,,,43,127
86051,note_on,0,0,0,,7,,,67,127
86157,note_off,106,0,0,,7,,,43,127
86160,note_on,3,0,0,,7,,,55,127
86266,note_off,106,0,0,,7,,,55,127
86266,note_off,0,0,0,,7,,,67,127
86269,note_on,3,0,0,,12,,,59,127
86269,note_on,0,0,0,,2,,,74,127
86375,note_off,106,0,0,,12,,,59,127
86378,note_on,3,0,0,,2,,,62,127
86484,note_off,106,0,0,,2,,,62,127
86487,note_on,3,0,0,,4,,,52,127
86593,note_off,106,0,0,,4,,,52,127
86593,note_off,0,0,0,,2,,,74,127
86596,note_on,3,0,0,,0,,,60,127
86596,note_on,0,0,0,,0,,,72,127
86702,note_off,106,0,0,,0,,,72,127
86702,note_off,0,0,0,,0,,,60,127
86705,note_on,3,0,0,,6,,,54,127
86705,note_on,0,0,0,,12,,,71,127
86811,note_off,106,0,0,,12,,,71,127
86811,note_off,0,0,0,,6,,,54,127
86814,note_on,3,0,0,,2,,,62,127
86814,note_on,0,0,0,,10,,,69,127
86920,note_off,106,0,0,,10,,,69,127
86920,note_off,0,0,0,,2,,,62,127
86923,note_on,3,0,0,,7,,,43,127
86923,note_on,0,0,0,,12,,,71,127
87029,note_off,106,0,0,,12,,,71,127
87029,note_off,0,0,0,,7,,,43,127
87032,note_on,3,0,0,,7,,,55,127
87032,note_on,0,0,0,,4,,,76,127
87138,note_off,106,0,0,,4,,,76,127
87138,note_off,0,0,0,,7,,,55,127
87141,note_on,3,0,0,,12,,,59,127
87141,note_on,0,0,0,,2,,,74,127
87247,note_off,106,0,0,,12,,,59,127
87250,note_on,3,0,0,,2,,,62,127
87356,note_off,106,0,0,,2,,,62,127
87359,note_on,3,0,0,,4,,,52,127
87465,note_off,106,0,0,,4,,,52,127
87465,note_off,0,0,0,,2,,,74,127
87468,note_on,3,0,0,,0,,,60,127
87468,note_on,0,0,0,,0,,,72,127
87574,note_off,106,0,0,,0,,,72,127
87574,note_off,0,0,0,,0,,,60,127
87577,note_on,3,0,0,,6,,,54,127
87577,note_on,0,0,0,,12,,,71,127
87683,note_off,106,0,0,,12,,,71,127
87683,note_off,0,0,0,,6,,,54,127
87686,note_on,3,0,0,,2,,,62,127
87686,note_on,0,0,0,,10,,,69,127
87792,note_off,106,0,0,,10,,,69,127
87792,note_off,0,0,0,,2,,,62,127
87795,note_on,3,0,0,,7,,,43,127
87795,note_on,0,0,0,,12,,,71,127
87901,note_off,106,0,0,,12,,,71,127
87901,note_off,0,0,0,,7,,,43,127
87904,note_on,3,0,0,,7,,,55,127
87904,note_on,0,0,0,,4,,,76,127
88010,note_off,106,0,0,,4,,,76,127
88010,note_off,0,0,0,,7,,,55,127
88013,note_on,3,0,0,,12,,,59,127
88013,note_on,0,0,0,,2,,,74,127
88119,note_off,106,0,0,,12,,,59,127
88122,note_on,3,0,0,,2,,,62,127
88228,note_off,106,0,0,,2,,,62,127
88231,note_on,3,0,0,,4,,,52,127
88337,note_off,106,0,0,,4,,,52,127
88337,note_off,0,0,0,,2,,,74,127
88340,note_on,3,0,0,,0,,,60,127
88340,note_on,0,0,0,,0,,,72,127
88446,note_off,106,0,0,,0,,,72,127
88446,note_off,0,0,0,,0,,,60,127
88449,note_on,3,0,0,,6,,,54,127
88449,note_on,0,0,0,,12,,,71,127
88555,note_off,106,0,0,,12,,,71,127
88555,note_off,0,0,0,,6,,,54,127
88558,note_on,3,0,0,,2,,,62,127
88558,note_on,0,0,0,,10,,,69,127
88664,note_off,106,0,0,,10,,,69,127
88664,note_off,0,0,0,,2,,,62,127
88667,note_on,3,0,0,,7,,,55,127
88667,note_on,0,0,0,,12,,,71,127
88777,note_on,110,0,0,,7,,,67,127
88832,note_off,55,0,0,,12,,,71,127
88883,note_off,51,0,0,,7,,,67,127
88883,note_off,0,0,0,,7,,,55,127
88886,note_on,3,0,0,,0,,,48,127
88886,note_on,0,0,0,,10,,,69,127
88992,note_off,106,0,0,,10,,,69,127
88995,note_on,3,0,0,,4,,,76,127
89101,note_off,106,0,0,,4,,,76,127
89101,note_off,0,0,0,,0,,,48,127
89104,note_on,3,0,0,,2,,,50,127
89104,note_on,0,0,0,,2,,,74,127
89210,note_off,106,0,0,,2,,,74,127
89213,note_on,3,0,0,,7,,,67,127
89319,note_off,106,0,0,,7,,,67,127
89322,note_on,3,0,0,,2,,,38,127
89322,note_on,0,0,0,,10,,,69,127
89428,note_off,106,0,0,,10,,,69,127
89431,note_off,3,0,0,,2,,,50,127
89431,note_on,0,0,0,,6,,,66,127
89537,note_off,106,0,0,,6,,,66,127
89537,note_off,0,0,0,,2,,,38,127
89540,note_on,3,0,0,,7,,,43,127
89540,note_on,0,0,0,,7,,,67,127
89646,note_off,106,0,0,,7,,,67,127
89646,note_off,0,0,0,,7,,,43,127
89649,note_on,3,0,0,,7,,,55,127
89649,note_on,0,0,0,,10,,,81,127
89755,note_off,106,0,0,,10,,,81,127
89755,note_off,0,0,0,,7,,,55,127
89758,note_on,3,0,0,,12,,,59,127
89758,note_on,0,0,0,,7,,,79,127
89864,note_off,106,0,0,,12,,,59,127
89867,note_on,3,0,0,,2,,,62,127
89973,note_off,106,0,0,,2,,,62,127
89976,note_on,3,0,0,,4,,,52,127
90082,note_off,106,0,0,,4,,,52,127
90082,note_off,0,0,0,,7,,,79,127
90085,note_on,3,0,0,,0,,,60,127
90085,note_on,0,0,0,,0,,,72,127
90191,note_off,106,0,0,,0,,,72,127
90191,note_off,0,0,0,,0,,,60,127
90194,note_on,3,0,0,,6,,,54,127
90194,note_on,0,0,0,,12,,,71,127
90300,note_off,106,0,0,,12,,,71,127
90300,note_off,0,0,0,,6,,,54,127
90303,note_on,3,0,0,,2,,,62,127
90303,note_on,0,0,0,,10,,,69,127
90409,note_off,106,0,0,,10,,,69,127
90409,note_off,0,0,0,,2,,,62,127
90412,note_on,3,0,0,,7,,,43,127
90412,note_on,0,0,0,,12,,,71,127
90518,note_off,106,0,0,,12,,,71,127
90518,note_off,0,0,0,,7,,,43,127
90521,note_on,3,0,0,,7,,,55,127
90521,note_on,0,0,0,,10,,,81,127
90627,note_off,106,0,0,,10,,,81,127
90627,note_off,0,0,0,,7,,,55,127
90630,note_on,3,0,0,,12,,,59,127
90630,note_on,0,0,0,,7,,,79,127
90736,note_off,106,0,0,,12,,,59,127
90739,note_on,3,0,0,,2,,,62,127
90845,note_off,106,0,0,,2,,,62,127
90848,note_on,3,0,0,,4,,,52,127
90954,note_off,106,0,0,,4,,,52,127
90954,note_off,0,0,0,,7,,,79,127
90957,note_on,3,0,0,,0,,,60,127
90957,note_on,0,0,0,,0,,,72,127
91063,note_off,106,0,0,,0,,,72,127
91063,note_off,0,0,0,,0,,,60,127
91066,note_on,3,0,0,,6,,,54,127
91066,note_on,0,0,0,,12,,,71,127
91172,note_off,106,0,0,,12,,,71,127
91172,note_off,0,0,0,,6,,,54,127
91175,note_on,3,0,0,,2,,,62,127
91175,note_on,0,0,0,,10,,,69,127
91281,note_off,106,0,0,,10,,,69,127
91281,note_off,0,0,0,,2,,,62,127
91284,note_on,3,0,0,,7,,,43,127
91284,note_on,0,0,0,,12,,,71,127
91390,note_off,106,0,0,,12,,,71,127
91390,note_off,0,0,0,,7,,,43,127
91393,note_on,3,0,0,,7,,,55,127
91393,note_on,0,0,0,,10,,,81,127
91499,note_off,106,0,0,,10,,,81,127
91499,note_off,0,0,0,,7,,,55,127
91502,note_on,3,0,0,,12,,,59,127
91502,note_on,0,0,0,,7,,,79,127
91608,note_off,106,0,0,,12,,,59,127
91611,note_on,3,0,0,,2,,,62,127
91717,note_off,106,0,0,,2,,,62,127
91720,note_on,3,0,0,,4,,,52,127
91826,note_off,106,0,0,,4,,,52,127
91826,note_off,0,0,0,,7,,,79,127
91829,note_on,3,0,0,,0,,,60,127
91829,note_on,0,0,0,,0,,,72,127
91935,note_off,106,0,0,,0,,,72,127
91935,note_off,0,0,0,,0,,,60,127
91938,note_on,3,0,0,,6,,,54,127
91938,note_on,0,0,0,,12,,,71,127
92044,note_off,106,0,0,,12,,,71,127
92044,note_off,0,0,0,,6,,,54,127
92047,note_on,3,0,0,,2,,,62,127
92047,note_on,0,0,0,,10,,,69,127
92153,note_off,106,0,0,,10,,,69,127
92153,note_off,0,0,0,,2,,,62,127
92156,note_on,3,0,0,,12,,,47,127
92156,note_on,0,0,0,,2,,,62,127
92156,note_on,0,0,0,,2,,,74,127
92262,note_off,106,0,0,,12,,,47,127
92265,note_on,3,0,0,,7,,,55,127
92371,note_off,106,0,0,,7,,,55,127
92371,note_off,0,0,0,,2,,,74,127
92371,note_off,0,0,0,,2,,,62,127
92374,note_on,3,0,0,,0,,,48,127
92374,note_on,0,0,0,,4,,,64,127
92374,note_on,0,0,0,,2,,,74,127
92480,note_off,106,0,0,,0,,,48,127
92483,note_on,3,0,0,,10,,,57,127
92589,note_off,106,0,0,,10,,,57,127
92589,note_off,0,0,0,,2,,,74,127
92589,note_off,0,0,0,,4,,,64,127
92592,note_on,3,0,0,,2,,,50,127
92592,note_on,0,0,0,,2,,,74,127
92592,note_on,0,0,0,,6,,,66,127
92698,note_off,106,0,0,,2,,,50,127
92701,note_on,3,0,0,,12,,,59,127
92807,note_off,106,0,0,,12,,,59,127
92807,note_off,0,0,0,,6,,,66,127
92807,note_off,0,0,0,,2,,,74,127
92810,note_on,3,0,0,,4,,,52,127
92810,note_on,0,0,0,,2,,,74,127
92810,note_on,0,0,0,,7,,,67,127
92916,note_off,106,0,0,,4,,,52,127
92919,note_on,3,0,0,,0,,,60,127
93025,note_off,106,0,0,,0,,,60,127
93025,note_off,0,0,0,,7,,,67,127
93025,note_off,0,0,0,,2,,,74,127
93028,note_on,3,0,0,,6,,,54,127
93028,note_on,0,0,0,,10,,,69,127
93028,note_on,0,0,0,,2,,,74,127
93134,note_off,106,0,0,,6,,,54,127
93137,note_on,3,0,0,,2,,,62,127
93243,note_off,106,0,0,,2,,,62,127
93243,note_off,0,0,0,,2,,,74,127
93243,note_off,0,0,0,,10,,,69,127
93246,note_on,3,0,0,,7,,,55,127
93246,note_on,0,0,0,,12,,,71,127
93246,note_on,0,0,0,,2,,,74,127
93352,note_off,106,0,0,,7,,,55,127
93355,note_on,3,0,0,,4,,,64,127
93461,note_off,106,0,0,,4,,,64,127
93461,note_off,0,0,0,,2,,,74,127
93461,note_off,0,0,0,,12,,,71,127
93464,note_on,3,0,0,,10,,,57,127
93464,note_on,0,0,0,,0,,,72,127
93464,note_on,0,0,0,,2,,,74,127
93570,note_off,106,0,0,,10,,,57,127
93573,note_on,3,0,0,,6,,,66,127
93679,note_off,106,0,0,,6,,,66,127
93679,note_off,0,0,0,,2,,,74,127
93679,note_off,0,0,0,,0,,,72,127
93682,note_on,3,0,0,,12,,,59,127
93682,note_on,0,0,0,,12,,,71,127
93682,note_on,0,0,0,,2,,,74,127
93788,note_off,106,0,0,,12,,,59,127
93791,note_on,3,0,0,,7,,,67,127
93897,note_off,106,0,0,,7,,,67,127
93897,note_off,0,0,0,,2,,,74,127
93897,note_off,0,0,0,,12,,,71,127
93900,note_on,3,0,0,,0,,,60,127
93900,note_on,0,0,0,,10,,,69,127
93900,note_on,0,0,0,,2,,,74,127
94006,note_off,106,0,0,,0,,,60,127
94007,note_off,1,0,0,,10,,,69,127
94009,note_on,2,0,0,,10,,,69,127
94115,note_off,106,0,0,,10,,,69,127
94115,note_off,0,0,0,,2,,,74,127
94118,note_on,3,0,0,,2,,,62,127
94118,note_on,0,0,0,,2,,,74,127
94224,note_off,106,0,0,,2,,,62,127
94227,note_on,3,0,0,,12,,,71,127
94333,note_off,106,0,0,,12,,,71,127
94333,note_off,0,0,0,,2,,,74,127
94336,note_on,3,0,0,,4,,,64,127
94336,note_on,0,0,0,,2,,,74,127
94442,note_off,106,0,0,,4,,,64,127
94445,note_on,3,0,0,,0,,,72,127
94551,note_off,106,0,0,,0,,,72,127
94551,note_off,0,0,0,,2,,,74,127
94554,note_on,3,0,0,,6,,,66,127
94554,note_on,0,0,0,,0,,,84,127
94554,note_on,0,0,0,,10,,,81,127
94660,note_off,106,0,0,,6,,,66,127
94663,note_on,3,0,0,,2,,,74,127
94769,note_off,106,0,0,,2,,,74,127
94769,note_off,0,0,0,,10,,,81,127
94769,note_off,0,0,0,,0,,,84,127
94772,note_on,3,0,0,,7,,,67,127
94772,note_on,0,0,0,,2,,,74,127
94882,note_on,110,0,0,,7,,,79,127
94882,note_on,0,0,0,,12,,,83,127
94937,note_off,55,0,0,,2,,,74,127
94988,note_off,51,0,0,,12,,,83,127
94988,note_off,0,0,0,,7,,,79,127
94988,note_off,0,0,0,,7,,,67,127
94991,note_on,3,0,0,,0,,,60,127
94991,note_on,0,0,0,,4,,,76,127
95101,note_on,110,0,0,,10,,,81,127
95101,note_on,0,0,0,,0,,,84,127
95156,note_off,55,0,0,,4,,,76,127
95207,note_off,51,0,0,,0,,,84,127
95207,note_off,0,0,0,,10,,,81,127
95207,note_off,0,0,0,,0,,,60,127
95210,note_on,3,0,0,,2,,,62,127
95210,note_on,0,0,0,,2,,,74,127
95320,note_on,110,0,0,,7,,,79,127
95320,note_on,0,0,0,,12,,,83,127
95375,note_off,55,0,0,,2,,,74,127
95426,note_off,51,0,0,,12,,,83,127
95426,note_off,0,0,0,,7,,,79,127
95429,note_on,3,0,0,,2,,,50,127
95429,note_on,0,0,0,,0,,,72,127
95539,note_on,110,0,0,,10,,,81,127
95539,note_on,0,0,0,,6,,,78,127
95594,note_off,55,0,0,,0,,,72,127
95644,note_off,50,0,0,,2,,,62,127
95645,note_off,1,0,0,,6,,,78,127
95645,note_off,0,0,0,,10,,,81,127
95645,note_off,0,0,0,,2,,,50,127
95648,note_on,3,0,0,,7,,,67,127
95648,note_on,0,0,0,,2,,,74,127
95758,note_on,110,0,0,,12,,,83,127
95758,note_on,0,0,0,,7,,,79,127
95813,note_off,55,0,0,,2,,,74,127
95864,note_off,51,0,0,,7,,,79,127
95864,note_off,0,0,0,,12,,,83,127
95864,note_off,0,0,0,,7,,,67,127
95867,note_on,3,0,0,,0,,,60,127
95867,note_on,0,0,0,,4,,,76,127
95977,note_on,110,0,0,,10,,,81,127
95977,note_on,0,0,0,,0,,,84,127
96032,note_off,55,0,0,,4,,,76,127
96083,note_off,51,0,0,,0,,,84,127
96083,note_off,0,0,0,,10,,,81,127
96083,note_off,0,0,0,,0,,,60,127
96086,note_on,3,0,0,,2,,,62,127
96086,note_on,0,0,0,,2,,,74,127
96196,note_on,110,0,0,,12,,,83,127
96196,note_on,0,0,0,,7,,,79,127
96251,note_off,55,0,0,,2,,,74,127
96302,note_off,51,0,0,,7,,,79,127
96302,note_off,0,0,0,,12,,,83,127
96305,note_on,3,0,0,,2,,,50,127
96305,note_on,0,0,0,,0,,,72,127
96415,note_on,110,0,0,,10,,,81,127
96415,note_on,0,0,0,,6,,,78,127
96470,note_off,55,0,0,,0,,,72,127
96520,note_off,50,0,0,,2,,,62,127
96521,note_off,1,0,0,,6,,,78,127
96521,note_off,0,0,0,,10,,,81,127
96521,note_off,0,0,0,,2,,,50,127
96524,note_on,3,0,0,,7,,,67,127
96524,note_on,0,0,0,,2,,,74,127
96524,note_on,0,0,0,,12,,,71,127
96630,note_off,106,0,0,,12,,,71,127
96630,note_off,0,0,0,,2,,,74,127
96633,note_on,3,0,0,,12,,,83,127
96739,note_off,106,0,0,,7,,,67,127
96742,note_on,3,0,0,,0,,,60,127
96742,note_on,0,0,0,,0,,,72,127
96742,note_on,0,0,0,,10,,,69,127
96769,note_off,27,0,0,,12,,,83,127
96848,note_off,79,0,0,,10,,,69,127
96848,note_off,0,0,0,,0,,,72,127
96851,note_on,3,0,0,,10,,,81,127
96957,note_off,106,0,0,,0,,,60,127
96960,note_on,3,0,0,,2,,,62,127
96960,note_on,0,0,0,,7,,,67,127
96960,note_on,0,0,0,,12,,,71,127
96987,note_off,27,0,0,,10,,,81,127
97066,note_off,79,0,0,,12,,,71,127
97066,note_off,0,0,0,,7,,,67,127
97069,note_on,3,0,0,,7,,,79,127
97179,note_on,110,0,0,,2,,,50,127
97179,note_on,0,0,0,,10,,,69,127
97206,note_off,27,0,0,,7,,,79,127
97285,note_off,79,0,0,,10,,,69,127
97288,note_off,3,0,0,,2,,,62,127
97288,note_on,0,0,0,,6,,,78,127
97394,note_off,106,0,0,,6,,,78,127
97394,note_off,0,0,0,,2,,,50,127
97397,note_on,3,0,0,,7,,,43,127
97397,note_on,0,0,0,,7,,,79,127
97503,note_off,106,0,0,,7,,,79,127
97506,note_on,3,0,0,,2,,,74,127
97612,note_off,106,0,0,,2,,,74,127
97615,note_on,3,0,0,,12,,,71,127
97721,note_off,106,0,0,,12,,,71,127
97724,note_on,3,0,0,,7,,,67,127
97830,note_off,106,0,0,,7,,,67,127
97833,note_on,3,0,0,,2,,,62,127
97939,note_off,106,0,0,,2,,,62,127
97942,note_on,3,0,0,,12,,,59,127
98048,note_off,106,0,0,,12,,,59,127
98051,note_on,3,0,0,,7,,,55,127
98157,note_off,106,0,0,,7,,,55,127
98160,note_on,3,0,0,,2,,,50,127
98266,note_off,106,0,0,,2,,,50,127
98266,note_off,0,0,0,,7,,,43,127
98281,note_on,15,0,0,,7,,,43,127
99488,note_off,1207,0,0,,7,,,43,127
101376,end_of_track,1888,1,0,,,,,,
