tick,type,time,meta,track,program,channel,pitch,tempo,note,velocity
0,copyright,0,1,0,,,,,,
0,program_change,0,0,0,6,0,,,,
0,pitchwheel,0,0,0,,0,0,,,
0,program_change,0,0,0,6,1,,,,
0,pitchwheel,0,0,0,,1,-590,,,
0,program_change,0,0,0,6,2,,,,
0,pitchwheel,0,0,0,,2,-272,,,
0,program_change,0,0,0,6,3,,,,
0,pitchwheel,0,0,0,,3,-353,,,
0,program_change,0,0,0,6,4,,,,
0,pitchwheel,0,0,0,,4,-560,,,
0,program_change,0,0,0,6,5,,,,
0,pitchwheel,0,0,0,,5,-80,,,
0,program_change,0,0,0,6,6,,,,
0,pitchwheel,0,0,0,,6,-625,,,
0,program_change,0,0,0,6,7,,,,
0,pitchwheel,0,0,0,,7,-130,,,
0,program_change,0,0,0,6,8,,,,
0,pitchwheel,0,0,0,,8,-512,,,
0,program_change,0,0,0,6,10,,,,
0,pitchwheel,0,0,0,,10,-464,,,
0,program_change,0,0,0,6,11,,,,
0,pitchwheel,0,0,0,,11,-208,,,
0,program_change,0,0,0,6,12,,,,
0,pitchwheel,0,0,0,,12,-553,,,
0,set_tempo,0,1,0,,,,500000,,
55,note_on,55,0,0,,2,,,74,127
102,note_off,47,0,0,,2,,,74,127
103,note_on,1,0,0,,4,,,76,127
150,note_off,47,0,0,,4,,,76,127
152,note_on,2,0,0,,6,,,78,127
199,note_off,47,0,0,,6,,,78,127
201,note_on,2,0,0,,7,,,79,127
347,note_on,146,0,0,,2,,,74,127
491,note_off,144,0,0,,2,,,74,127
493,note_on,2,0,0,,12,,,71,127
637,note_off,144,0,0,,12,,,71,127
639,note_on,2,0,0,,7,,,67,127
784,note_off,145,0,0,,7,,,79,127
785,note_on,1,0,0,,2,,,62,127
929,note_off,144,0,0,,2,,,62,127
931,note_on,2,0,0,,12,,,59,127
1075,note_off,144,0,0,,12,,,59,127
1077,note_on,2,0,0,,7,,,55,127
1222,note_off,145,0,0,,7,,,67,127
1223,note_on,1,0,0,,2,,,50,127
1367,note_off,144,0,0,,2,,,50,127
1369,note_on,2,0,0,,12,,,47,127
1513,note_off,144,0,0,,12,,,47,127
1515,note_on,2,0,0,,7,,,43,127
1660,note_off,145,0,0,,7,,,55,127
1661,note_on,1,0,0,,7,,,79,127
1805,note_off,144,0,0,,7,,,79,127
1807,note_on,2,0,0,,2,,,74,127
1951,note_off,144,0,0,,2,,,74,127
1951,note_off,0,0,0,,7,,,43,127
1953,note_on,2,0,0,,0,,,72,127
2147,note_on,194,0,0,,4,,,76,127
2194,note_off,47,0,0,,4,,,76,127
2196,note_on,2,0,0,,6,,,78,127
2243,note_off,47,0,0,,6,,,78,127
2245,note_on,2,0,0,,7,,,79,127
2291,note_off,46,0,0,,7,,,79,127
2293,note_on,2,0,0,,10,,,81,127
2340,note_off,47,0,0,,10,,,81,127
2342,note_on,2,0,0,,12,,,83,127
2389,note_off,47,0,0,,12,,,83,127
2389,note_off,0,0,0,,0,,,72,127
2391,note_on,2,0,0,,10,,,69,127
2391,note_on,0,0,0,,0,,,84,127
2537,note_on,146,0,0,,10,,,81,127
2608,note_off,71,0,0,,0,,,84,127
2681,note_off,73,0,0,,10,,,81,127
2683,note_on,2,0,0,,6,,,78,127
2827,note_off,144,0,0,,6,,,78,127
2827,note_off,0,0,0,,10,,,69,127
2829,note_on,2,0,0,,12,,,71,127
3023,note_on,194,0,0,,2,,,74,127
3070,note_off,47,0,0,,2,,,74,127
3072,note_on,2,0,0,,4,,,76,127
3119,note_off,47,0,0,,4,,,76,127
3121,note_on,2,0,0,,6,,,78,127
3167,note_off,46,0,0,,6,,,78,127
3169,note_on,2,0,0,,7,,,79,127
3216,note_off,47,0,0,,7,,,79,127
3218,note_on,2,0,0,,10,,,81,127
3265,note_off,47,0,0,,10,,,81,127
3265,note_off,0,0,0,,12,,,71,127
3267,note_on,2,0,0,,7,,,67,127
3267,note_on,0,0,0,,12,,,83,127
3413,note_on,146,0,0,,7,,,79,127
3484,note_off,71,0,0,,12,,,83,127
3557,note_off,73,0,0,,7,,,79,127
3559,note_on,2,0,0,,4,,,76,127
3703,note_off,144,0,0,,4,,,76,127
3703,note_off,0,0,0,,7,,,67,127
3705,note_on,2,0,0,,10,,,69,127
3899,note_on,194,0,0,,0,,,72,127
3946,note_off,47,0,0,,0,,,72,127
3948,note_on,2,0,0,,2,,,74,127
3995,note_off,47,0,0,,2,,,74,127
3997,note_on,2,0,0,,4,,,76,127
4043,note_off,46,0,0,,4,,,76,127
4045,note_on,2,0,0,,6,,,78,127
4092,note_off,47,0,0,,6,,,78,127
4094,note_on,2,0,0,,7,,,79,127
4141,note_off,47,0,0,,7,,,79,127
4141,note_off,0,0,0,,10,,,69,127
4143,note_on,2,0,0,,6,,,66,127
4143,note_on,0,0,0,,10,,,81,127
4289,note_on,146,0,0,,6,,,78,127
4360,note_off,71,0,0,,10,,,81,127
4433,note_off,73,0,0,,6,,,78,127
4435,note_on,2,0,0,,2,,,74,127
4579,note_off,144,0,0,,2,,,74,127
4579,note_off,0,0,0,,6,,,66,127
4581,note_on,2,0,0,,7,,,67,127
4775,note_on,194,0,0,,12,,,71,127
4822,note_off,47,0,0,,12,,,71,127
4824,note_on,2,0,0,,0,,,72,127
4871,note_off,47,0,0,,0,,,72,127
4873,note_on,2,0,0,,2,,,74,127
4919,note_off,46,0,0,,2,,,74,127
4921,note_on,2,0,0,,4,,,76,127
4968,note_off,47,0,0,,4,,,76,127
4970,note_on,2,0,0,,6,,,78,127
5017,note_off,47,0,0,,6,,,78,127
5017,note_off,0,0,0,,7,,,67,127
5019,note_on,2,0,0,,12,,,71,127
5019,note_on,0,0,0,,7,,,79,127
5165,note_on,146,0,0,,2,,,74,127
5236,note_off,71,0,0,,7,,,79,127
5309,note_off,73,0,0,,2,,,74,127
5311,note_on,2,0,0,,6,,,78,127
5455,note_off,144,0,0,,12,,,71,127
5457,note_on,2,0,0,,0,,,72,127
5601,note_off,144,0,0,,6,,,78,127
5603,note_on,2,0,0,,4,,,76,127
5747,note_off,144,0,0,,4,,,76,127
5747,note_off,0,0,0,,0,,,72,127
5749,note_on,2,0,0,,12,,,71,127
5749,note_on,0,0,0,,2,,,74,127
5893,note_off,144,0,0,,12,,,71,127
5895,note_on,2,0,0,,10,,,69,127
6039,note_off,144,0,0,,2,,,74,127
6041,note_on,2,0,0,,0,,,72,127
6185,note_off,144,0,0,,0,,,72,127
6185,note_off,0,0,0,,10,,,69,127
6187,note_on,2,0,0,,7,,,67,127
6187,note_on,0,0,0,,12,,,71,127
6331,note_off,144,0,0,,12,,,71,127
6331,note_off,0,0,0,,7,,,67,127
6333,note_on,2,0,0,,2,,,62,127
6333,note_on,0,0,0,,12,,,71,127
6379,note_off,46,0,0,,12,,,71,127
6381,note_on,2,0,0,,10,,,69,127
6428,note_off,47,0,0,,10,,,69,127
6430,note_on,2,0,0,,12,,,71,127
6477,note_off,47,0,0,,12,,,71,127
6477,note_off,0,0,0,,2,,,62,127
6479,note_on,2,0,0,,10,,,57,127
6479,note_on,0,0,0,,10,,,69,127
6623,note_off,144,0,0,,10,,,57,127
6625,note_on,2,0,0,,6,,,54,127
6769,note_off,144,0,0,,6,,,54,127
6771,note_on,2,0,0,,2,,,38,127
6915,note_off,144,0,0,,10,,,69,127
6917,note_on,2,0,0,,2,,,74,127
7061,note_off,144,0,0,,2,,,74,127
7063,note_on,2,0,0,,2,,,62,127
7207,note_off,144,0,0,,2,,,62,127
7207,note_off,0,0,0,,2,,,38,127
7209,note_on,2,0,0,,2,,,62,127
7209,note_on,0,0,0,,0,,,72,127
7255,note_off,46,0,0,,0,,,72,127
7257,note_on,2,0,0,,12,,,71,127
7304,note_off,47,0,0,,12,,,71,127
7306,note_on,2,0,0,,0,,,72,127
7353,note_off,47,0,0,,0,,,72,127
7353,note_off,0,0,0,,2,,,62,127
7355,note_on,2,0,0,,12,,,59,127
7355,note_on,0,0,0,,12,,,71,127
7499,note_off,144,0,0,,12,,,59,127
7501,note_on,2,0,0,,7,,,55,127
7645,note_off,144,0,0,,7,,,55,127
7647,note_on,2,0,0,,2,,,38,127
7791,note_off,144,0,0,,12,,,71,127
7793,note_on,2,0,0,,2,,,74,127
7937,note_off,144,0,0,,2,,,74,127
7939,note_on,2,0,0,,2,,,62,127
8083,note_off,144,0,0,,2,,,62,127
8083,note_off,0,0,0,,2,,,38,127
8085,note_on,2,0,0,,2,,,62,127
8085,note_on,0,0,0,,12,,,71,127
8131,note_off,46,0,0,,12,,,71,127
8133,note_on,2,0,0,,10,,,69,127
8180,note_off,47,0,0,,10,,,69,127
8182,note_on,2,0,0,,12,,,71,127
8229,note_off,47,0,0,,12,,,71,127
8229,note_off,0,0,0,,2,,,62,127
8231,note_on,2,0,0,,10,,,57,127
8231,note_on,0,0,0,,10,,,69,127
8375,note_off,144,0,0,,10,,,57,127
8377,note_on,2,0,0,,6,,,54,127
8521,note_off,144,0,0,,6,,,54,127
8523,note_on,2,0,0,,2,,,38,127
8667,note_off,144,0,0,,10,,,69,127
8669,note_on,2,0,0,,2,,,74,127
8813,note_off,144,0,0,,2,,,74,127
8815,note_on,2,0,0,,2,,,62,127
8959,note_off,144,0,0,,2,,,62,127
8959,note_off,0,0,0,,2,,,38,127
8961,note_on,2,0,0,,2,,,62,127
8961,note_on,0,0,0,,0,,,72,127
9007,note_off,46,0,0,,0,,,72,127
9009,note_on,2,0,0,,12,,,71,127
9056,note_off,47,0,0,,12,,,71,127
9058,note_on,2,0,0,,0,,,72,127
9105,note_off,47,0,0,,0,,,72,127
9105,note_off,0,0,0,,2,,,62,127
9107,note_on,2,0,0,,12,,,59,127
9107,note_on,0,0,0,,12,,,71,127
9251,note_off,144,0,0,,12,,,59,127
9253,note_on,2,0,0,,7,,,55,127
9397,note_off,144,0,0,,7,,,55,127
9399,note_on,2,0,0,,2,,,38,127
9543,note_off,144,0,0,,12,,,71,127
9545,note_on,2,0,0,,2,,,74,127
9689,note_off,144,0,0,,2,,,74,127
9691,note_on,2,0,0,,2,,,62,127
9835,note_off,144,0,0,,2,,,62,127
9835,note_off,0,0,0,,2,,,38,127
9837,note_on,2,0,0,,2,,,62,127
9837,note_on,0,0,0,,12,,,71,127
9883,note_off,46,0,0,,12,,,71,127
9885,note_on,2,0,0,,10,,,69,127
9932,note_off,47,0,0,,10,,,69,127
9934,note_on,2,0,0,,12,,,71,127
9981,note_off,47,0,0,,12,,,71,127
9981,note_off,0,0,0,,2,,,62,127
9983,note_on,2,0,0,,10,,,57,127
9983,note_on,0,0,0,,10,,,69,127
10127,note_off,144,0,0,,10,,,57,127
10129,note_on,2,0,0,,6,,,54,127
10273,note_off,144,0,0,,6,,,54,127
10275,note_on,2,0,0,,2,,,38,127
10419,note_off,144,0,0,,10,,,69,127
10421,note_on,2,0,0,,2,,,74,127
10565,note_off,144,0,0,,2,,,74,127
10567,note_on,2,0,0,,10,,,69,127
10711,note_off,144,0,0,,10,,,69,127
10711,note_off,0,0,0,,2,,,38,127
10713,note_on,2,0,0,,7,,,67,127
10907,note_on,194,0,0,,12,,,71,127
10954,note_off,47,0,0,,12,,,71,127
10956,note_on,2,0,0,,1,,,73,127
11003,note_off,47,0,0,,1,,,73,127
11005,note_on,2,0,0,,2,,,74,127
11051,note_off,46,0,0,,2,,,74,127
11053,note_on,2,0,0,,4,,,76,127
11100,note_off,47,0,0,,4,,,76,127
11102,note_on,2,0,0,,6,,,78,127
11149,note_off,47,0,0,,6,,,78,127
11149,note_off,0,0,0,,7,,,67,127
11151,note_on,2,0,0,,4,,,64,127
11151,note_on,0,0,0,,7,,,79,127
11297,note_on,146,0,0,,4,,,76,127
11368,note_off,71,0,0,,7,,,79,127
11441,note_off,73,0,0,,4,,,76,127
11443,note_on,2,0,0,,1,,,73,127
11587,note_off,144,0,0,,1,,,73,127
11587,note_off,0,0,0,,4,,,64,127
11589,note_on,2,0,0,,6,,,66,127
11783,note_on,194,0,0,,10,,,69,127
11830,note_off,47,0,0,,10,,,69,127
11832,note_on,2,0,0,,12,,,71,127
11879,note_off,47,0,0,,12,,,71,127
11881,note_on,2,0,0,,1,,,73,127
11927,note_off,46,0,0,,1,,,73,127
11929,note_on,2,0,0,,2,,,74,127
11976,note_off,47,0,0,,2,,,74,127
11978,note_on,2,0,0,,4,,,76,127
12025,note_off,47,0,0,,4,,,76,127
12025,note_off,0,0,0,,6,,,66,127
12027,note_on,2,0,0,,2,,,62,127
12027,note_on,0,0,0,,6,,,78,127
12173,note_on,146,0,0,,2,,,74,127
12244,note_off,71,0,0,,6,,,78,127
12317,note_off,73,0,0,,2,,,74,127
12319,note_on,2,0,0,,12,,,71,127
12463,note_off,144,0,0,,12,,,71,127
12463,note_off,0,0,0,,2,,,62,127
12465,note_on,2,0,0,,4,,,64,127
12659,note_on,194,0,0,,7,,,67,127
12706,note_off,47,0,0,,7,,,67,127
12708,note_on,2,0,0,,10,,,69,127
12755,note_off,47,0,0,,10,,,69,127
12757,note_on,2,0,0,,12,,,71,127
12803,note_off,46,0,0,,12,,,71,127
12805,note_on,2,0,0,,1,,,73,127
12852,note_off,47,0,0,,1,,,73,127
12854,note_on,2,0,0,,2,,,74,127
12901,note_off,47,0,0,,2,,,74,127
12901,note_off,0,0,0,,4,,,64,127
12903,note_on,2,0,0,,1,,,61,127
12903,note_on,0,0,0,,4,,,76,127
13049,note_on,146,0,0,,1,,,73,127
13120,note_off,71,0,0,,4,,,76,127
13193,note_off,73,0,0,,1,,,73,127
13195,note_on,2,0,0,,10,,,69,127
13339,note_off,144,0,0,,10,,,69,127
13339,note_off,0,0,0,,1,,,61,127
13341,note_on,2,0,0,,2,,,62,127
13535,note_on,194,0,0,,6,,,66,127
13582,note_off,47,0,0,,6,,,66,127
13584,note_on,2,0,0,,7,,,67,127
13631,note_off,47,0,0,,7,,,67,127
13633,note_on,2,0,0,,10,,,69,127
13679,note_off,46,0,0,,10,,,69,127
13681,note_on,2,0,0,,12,,,71,127
13728,note_off,47,0,0,,12,,,71,127
13730,note_on,2,0,0,,1,,,73,127
13777,note_off,47,0,0,,1,,,73,127
13777,note_off,0,0,0,,2,,,62,127
13779,note_on,2,0,0,,6,,,66,127
13779,note_on,0,0,0,,2,,,74,127
13925,note_on,146,0,0,,10,,,69,127
13996,note_off,71,0,0,,2,,,74,127
14069,note_off,73,0,0,,10,,,69,127
14071,note_on,2,0,0,,1,,,73,127
14215,note_off,144,0,0,,1,,,73,127
14215,note_off,0,0,0,,6,,,66,127
14217,note_on,2,0,0,,7,,,67,127
14217,note_on,0,0,0,,12,,,71,127
14361,note_off,144,0,0,,12,,,71,127
14363,note_on,2,0,0,,7,,,79,127
14507,note_off,144,0,0,,7,,,79,127
14509,note_on,2,0,0,,6,,,78,127
14653,note_off,144,0,0,,7,,,67,127
14655,note_on,2,0,0,,8,,,68,127
14799,note_off,144,0,0,,6,,,78,127
14801,note_on,2,0,0,,4,,,76,127
14945,note_off,144,0,0,,4,,,76,127
14947,note_on,2,0,0,,2,,,74,127
15091,note_off,144,0,0,,8,,,68,127
15093,note_on,2,0,0,,10,,,69,127
15139,note_off,46,0,0,,2,,,74,127
15141,note_on,2,0,0,,1,,,73,127
15188,note_off,47,0,0,,1,,,73,127
15190,note_on,2,0,0,,2,,,74,127
15237,note_off,47,0,0,,2,,,74,127
15239,note_on,2,0,0,,1,,,73,127
15532,note_on,293,0,0,,10,,,57,127
15724,note_off,192,0,0,,1,,,73,127
15726,note_on,2,0,0,,2,,,74,127
15750,note_off,24,0,0,,10,,,69,127
15773,note_off,23,0,0,,2,,,74,127
15775,note_on,2,0,0,,4,,,76,127
15822,note_off,47,0,0,,4,,,76,127
15824,note_on,2,0,0,,5,,,77,127
15870,note_off,46,0,0,,5,,,77,127
15872,note_on,2,0,0,,7,,,79,127
15919,note_off,47,0,0,,7,,,79,127
15921,note_on,2,0,0,,10,,,81,127
15968,note_off,47,0,0,,10,,,81,127
15970,note_on,2,0,0,,11,,,82,127
16114,note_off,144,0,0,,11,,,82,127
16116,note_on,2,0,0,,10,,,81,127
16260,note_off,144,0,0,,10,,,81,127
16262,note_on,2,0,0,,7,,,79,127
16406,note_off,144,0,0,,7,,,79,127
16408,note_on,2,0,0,,5,,,77,127
16552,note_off,144,0,0,,5,,,77,127
16554,note_on,2,0,0,,4,,,76,127
16698,note_off,144,0,0,,4,,,76,127
16700,note_on,2,0,0,,2,,,74,127
16844,note_off,144,0,0,,2,,,74,127
16846,note_off,2,0,0,,10,,,57,127
16846,note_on,0,0,0,,1,,,73,127
16990,note_off,144,0,0,,1,,,73,127
16992,note_on,2,0,0,,2,,,74,127
17136,note_off,144,0,0,,2,,,74,127
17138,note_on,2,0,0,,4,,,76,127
17282,note_off,144,0,0,,4,,,76,127
17284,note_on,2,0,0,,10,,,69,127
17430,note_on,146,0,0,,1,,,61,127
17476,note_off,46,0,0,,1,,,61,127
17478,note_on,2,0,0,,2,,,62,127
17525,note_off,47,0,0,,2,,,62,127
17527,note_on,2,0,0,,4,,,64,127
17574,note_off,47,0,0,,4,,,64,127
17576,note_on,2,0,0,,5,,,65,127
17622,note_off,46,0,0,,5,,,65,127
17624,note_on,2,0,0,,7,,,67,127
17649,note_off,25,0,0,,10,,,69,127
17671,note_off,22,0,0,,7,,,67,127
17673,note_on,2,0,0,,10,,,69,127
17720,note_off,47,0,0,,10,,,69,127
17722,note_on,2,0,0,,11,,,70,127
17722,note_on,0,0,0,,7,,,79,127
17866,note_off,144,0,0,,7,,,79,127
17866,note_off,0,0,0,,11,,,70,127
17868,note_on,2,0,0,,10,,,69,127
17868,note_on,0,0,0,,5,,,77,127
18012,note_off,144,0,0,,5,,,77,127
18012,note_off,0,0,0,,10,,,69,127
18014,note_on,2,0,0,,7,,,67,127
18014,note_on,0,0,0,,4,,,76,127
18158,note_off,144,0,0,,4,,,76,127
18158,note_off,0,0,0,,7,,,67,127
18160,note_on,2,0,0,,5,,,65,127
18160,note_on,0,0,0,,2,,,74,127
18304,note_off,144,0,0,,2,,,74,127
18304,note_off,0,0,0,,5,,,65,127
18306,note_on,2,0,0,,4,,,64,127
18306,note_on,0,0,0,,1,,,73,127
18450,note_off,144,0,0,,1,,,73,127
18450,note_off,0,0,0,,4,,,64,127
18452,note_on,2,0,0,,2,,,62,127
18452,note_on,0,0,0,,2,,,74,127
18596,note_off,144,0,0,,2,,,74,127
18596,note_off,0,0,0,,2,,,62,127
18598,note_on,2,0,0,,1,,,61,127
18598,note_on,0,0,0,,4,,,76,127
18742,note_off,144,0,0,,1,,,61,127
18744,note_on,2,0,0,,2,,,62,127
18888,note_off,144,0,0,,2,,,62,127
18890,note_on,2,0,0,,4,,,64,127
19034,note_off,144,0,0,,4,,,64,127
19036,note_on,2,0,0,,10,,,57,127
19180,note_off,144,0,0,,4,,,76,127
19182,note_on,2,0,0,,1,,,73,127
19228,note_off,46,0,0,,1,,,73,127
19230,note_on,2,0,0,,2,,,74,127
19277,note_off,47,0,0,,2,,,74,127
19279,note_on,2,0,0,,4,,,76,127
19326,note_off,47,0,0,,4,,,76,127
19328,note_on,2,0,0,,6,,,78,127
19374,note_off,46,0,0,,6,,,78,127
19376,note_on,2,0,0,,7,,,79,127
19423,note_off,47,0,0,,7,,,79,127
19425,note_on,2,0,0,,10,,,81,127
19472,note_off,47,0,0,,10,,,81,127
19472,note_off,0,0,0,,10,,,57,127
19474,note_on,2,0,0,,7,,,67,127
19474,note_on,0,0,0,,11,,,82,127
19618,note_off,144,0,0,,11,,,82,127
19618,note_off,0,0,0,,7,,,67,127
19620,note_on,2,0,0,,5,,,65,127
19620,note_on,0,0,0,,10,,,81,127
19764,note_off,144,0,0,,10,,,81,127
19764,note_off,0,0,0,,5,,,65,127
19766,note_on,2,0,0,,4,,,64,127
19766,note_on,0,0,0,,7,,,79,127
19910,note_off,144,0,0,,7,,,79,127
19910,note_off,0,0,0,,4,,,64,127
19912,note_on,2,0,0,,2,,,62,127
19912,note_on,0,0,0,,5,,,77,127
20056,note_off,144,0,0,,5,,,77,127
20056,note_off,0,0,0,,2,,,62,127
20058,note_on,2,0,0,,0,,,60,127
20058,note_on,0,0,0,,4,,,76,127
20202,note_off,144,0,0,,4,,,76,127
20202,note_off,0,0,0,,0,,,60,127
20204,note_on,2,0,0,,11,,,58,127
20204,note_on,0,0,0,,2,,,74,127
20348,note_off,144,0,0,,2,,,74,127
20348,note_off,0,0,0,,11,,,58,127
20350,note_on,2,0,0,,10,,,81,127
20350,note_on,0,0,0,,10,,,69,127
20496,note_on,146,0,0,,10,,,45,127
20640,note_off,144,0,0,,10,,,45,127
20642,note_on,2,0,0,,12,,,47,127
20786,note_off,144,0,0,,12,,,47,127
20788,note_on,2,0,0,,1,,,49,127
20932,note_off,144,0,0,,10,,,69,127
20932,note_off,0,0,0,,10,,,81,127
20934,note_on,2,0,0,,10,,,81,127
20934,note_on,0,0,0,,10,,,69,127
21078,note_off,144,0,0,,1,,,49,127
21080,note_on,2,0,0,,2,,,50,127
21224,note_off,144,0,0,,2,,,50,127
21226,note_on,2,0,0,,4,,,52,127
21370,note_off,144,0,0,,10,,,69,127
21370,note_off,0,0,0,,10,,,81,127
21372,note_on,2,0,0,,10,,,69,127
21372,note_on,0,0,0,,10,,,81,127
21516,note_off,144,0,0,,4,,,52,127
21518,note_on,2,0,0,,6,,,54,127
21662,note_off,144,0,0,,6,,,54,127
21664,note_on,2,0,0,,7,,,55,127
21808,note_off,144,0,0,,10,,,81,127
21808,note_off,0,0,0,,10,,,69,127
21810,note_on,2,0,0,,10,,,69,127
21810,note_on,0,0,0,,10,,,81,127
21954,note_off,144,0,0,,7,,,55,127
21956,note_on,2,0,0,,10,,,57,127
22100,note_off,144,0,0,,10,,,57,127
22102,note_on,2,0,0,,12,,,59,127
22246,note_off,144,0,0,,10,,,81,127
22246,note_off,0,0,0,,10,,,69,127
22248,note_on,2,0,0,,10,,,69,127
22248,note_on,0,0,0,,10,,,81,127
22392,note_off,144,0,0,,12,,,59,127
22394,note_on,2,0,0,,1,,,61,127
22538,note_off,144,0,0,,1,,,61,127
22540,note_on,2,0,0,,2,,,62,127
22684,note_off,144,0,0,,10,,,81,127
22684,note_off,0,0,0,,10,,,69,127
22686,note_on,2,0,0,,10,,,69,127
22686,note_on,0,0,0,,10,,,81,127
22830,note_off,144,0,0,,2,,,62,127
22832,note_on,2,0,0,,4,,,64,127
22976,note_off,144,0,0,,4,,,64,127
22978,note_on,2,0,0,,6,,,66,127
23122,note_off,144,0,0,,10,,,81,127
23122,note_off,0,0,0,,10,,,69,127
23124,note_on,2,0,0,,10,,,69,127
23124,note_on,0,0,0,,10,,,81,127
23268,note_off,144,0,0,,6,,,66,127
23270,note_on,2,0,0,,7,,,67,127
23406,note_off,136,0,0,,10,,,69,127
23414,note_off,8,0,0,,7,,,67,127
23416,note_on,2,0,0,,10,,,69,127
23560,note_off,144,0,0,,10,,,81,127
23562,note_on,2,0,0,,10,,,81,127
23706,note_off,144,0,0,,10,,,69,127
23708,note_on,2,0,0,,12,,,71,127
23852,note_off,144,0,0,,12,,,71,127
23854,note_on,2,0,0,,1,,,73,127
23998,note_off,144,0,0,,10,,,81,127
24000,note_on,2,0,0,,7,,,79,127
24144,note_off,144,0,0,,7,,,79,127
24144,note_off,0,0,0,,1,,,73,127
24146,note_on,2,0,0,,2,,,74,127
24146,note_on,0,0,0,,6,,,78,127
24290,note_off,144,0,0,,6,,,78,127
24290,note_off,0,0,0,,2,,,74,127
24292,note_on,2,0,0,,7,,,67,127
24292,note_on,0,0,0,,7,,,79,127
24436,note_off,144,0,0,,7,,,79,127
24438,note_on,2,0,0,,6,,,78,127
24582,note_off,144,0,0,,6,,,78,127
24582,note_off,0,0,0,,7,,,67,127
24584,note_on,2,0,0,,10,,,69,127
24584,note_on,0,0,0,,4,,,76,127
24728,note_off,144,0,0,,4,,,76,127
24728,note_off,0,0,0,,10,,,69,127
24730,note_on,2,0,0,,10,,,81,127
24730,note_on,0,0,0,,10,,,69,127
24876,note_on,146,0,0,,10,,,45,127
25020,note_off,144,0,0,,10,,,45,127
25022,note_on,2,0,0,,12,,,47,127
25166,note_off,144,0,0,,12,,,47,127
25166,note_off,0,0,0,,10,,,69,127
25166,note_off,0,0,0,,10,,,81,127
25168,note_on,2,0,0,,1,,,49,127
25168,note_on,0,0,0,,10,,,69,127
25168,note_on,0,0,0,,10,,,81,127
25312,note_off,144,0,0,,1,,,49,127
25314,note_on,2,0,0,,1,,,49,127
25458,note_off,144,0,0,,1,,,49,127
25460,note_on,2,0,0,,2,,,50,127
25604,note_off,144,0,0,,2,,,50,127
25604,note_off,0,0,0,,10,,,81,127
25604,note_off,0,0,0,,10,,,69,127
25606,note_on,2,0,0,,4,,,52,127
25606,note_on,0,0,0,,10,,,69,127
25606,note_on,0,0,0,,10,,,81,127
25750,note_off,144,0,0,,4,,,52,127
25752,note_on,2,0,0,,4,,,52,127
25896,note_off,144,0,0,,4,,,52,127
25898,note_on,2,0,0,,6,,,54,127
26042,note_off,144,0,0,,6,,,54,127
26042,note_off,0,0,0,,10,,,81,127
26042,note_off,0,0,0,,10,,,69,127
26044,note_on,2,0,0,,7,,,55,127
26044,note_on,0,0,0,,10,,,81,127
26044,note_on,0,0,0,,10,,,69,127
26188,note_off,144,0,0,,7,,,55,127
26190,note_on,2,0,0,,7,,,55,127
26334,note_off,144,0,0,,7,,,55,127
26336,note_on,2,0,0,,10,,,57,127
26480,note_off,144,0,0,,10,,,57,127
26480,note_off,0,0,0,,10,,,69,127
26480,note_off,0,0,0,,10,,,81,127
26482,note_on,2,0,0,,12,,,59,127
26482,note_on,0,0,0,,10,,,69,127
26482,note_on,0,0,0,,10,,,81,127
26626,note_off,144,0,0,,12,,,59,127
26628,note_on,2,0,0,,12,,,59,127
26772,note_off,144,0,0,,12,,,59,127
26774,note_on,2,0,0,,1,,,61,127
26918,note_off,144,0,0,,1,,,61,127
26918,note_off,0,0,0,,10,,,81,127
26918,note_off,0,0,0,,10,,,69,127
26920,note_on,2,0,0,,2,,,62,127
26920,note_on,0,0,0,,10,,,69,127
26920,note_on,0,0,0,,10,,,81,127
27064,note_off,144,0,0,,2,,,62,127
27066,note_on,2,0,0,,2,,,62,127
27210,note_off,144,0,0,,2,,,62,127
27212,note_on,2,0,0,,4,,,64,127
27356,note_off,144,0,0,,4,,,64,127
27356,note_off,0,0,0,,10,,,81,127
27356,note_off,0,0,0,,10,,,69,127
27358,note_on,2,0,0,,6,,,66,127
27358,note_on,0,0,0,,10,,,81,127
27358,note_on,0,0,0,,10,,,69,127
27502,note_off,144,0,0,,6,,,66,127
27504,note_on,2,0,0,,6,,,66,127
27648,note_off,144,0,0,,6,,,66,127
27650,note_on,2,0,0,,7,,,67,127
27794,note_off,144,0,0,,7,,,67,127
27794,note_off,0,0,0,,10,,,69,127
27794,note_off,0,0,0,,10,,,81,127
27796,note_on,2,0,0,,10,,,69,127
27796,note_on,0,0,0,,10,,,81,127
27940,note_off,144,0,0,,10,,,69,127
27942,note_on,2,0,0,,10,,,69,127
28086,note_off,144,0,0,,10,,,69,127
28088,note_on,2,0,0,,12,,,71,127
28232,note_off,144,0,0,,12,,,71,127
28232,note_off,0,0,0,,10,,,81,127
28234,note_on,2,0,0,,1,,,73,127
28234,note_on,0,0,0,,10,,,81,127
28378,note_off,144,0,0,,10,,,81,127
28380,note_on,2,0,0,,7,,,79,127
28524,note_off,144,0,0,,7,,,79,127
28524,note_off,0,0,0,,1,,,73,127
28526,note_on,2,0,0,,2,,,74,127
28526,note_on,0,0,0,,6,,,78,127
28670,note_off,144,0,0,,6,,,78,127
28670,note_off,0,0,0,,2,,,74,127
28672,note_on,2,0,0,,7,,,67,127
28672,note_on,0,0,0,,7,,,79,127
28816,note_off,144,0,0,,7,,,79,127
28818,note_on,2,0,0,,6,,,78,127
28962,note_off,144,0,0,,6,,,78,127
28962,note_off,0,0,0,,7,,,67,127
28964,note_on,2,0,0,,10,,,69,127
28964,note_on,0,0,0,,4,,,76,127
29108,note_off,144,0,0,,4,,,76,127
29108,note_off,0,0,0,,10,,,69,127
29110,note_on,2,0,0,,2,,,62,127
29110,note_on,0,0,0,,6,,,78,127
29254,note_off,144,0,0,,6,,,78,127
29256,note_on,2,0,0,,2,,,74,127
29400,note_off,144,0,0,,2,,,74,127
29400,note_off,0,0,0,,2,,,62,127
29402,note_on,2,0,0,,7,,,67,127
29402,note_on,0,0,0,,12,,,83,127
29546,note_off,144,0,0,,12,,,83,127
29546,note_off,0,0,0,,7,,,67,127
29548,note_on,2,0,0,,10,,,69,127
29548,note_on,0,0,0,,6,,,78,127
29594,note_off,46,0,0,,6,,,78,127
29596,note_on,2,0,0,,4,,,76,127
29643,note_off,47,0,0,,4,,,76,127
29645,note_on,2,0,0,,6,,,78,127
29692,note_off,47,0,0,,6,,,78,127
29694,note_on,2,0,0,,4,,,76,127
29838,note_off,144,0,0,,10,,,69,127
29840,note_on,2,0,0,,10,,,57,127
29886,note_off,46,0,0,,4,,,76,127
29888,note_on,2,0,0,,2,,,74,127
29935,note_off,47,0,0,,2,,,74,127
29937,note_on,2,0,0,,4,,,76,127
29984,note_off,47,0,0,,4,,,76,127
29984,note_off,0,0,0,,10,,,57,127
29986,note_on,2,0,0,,2,,,62,127
29986,note_on,0,0,0,,6,,,78,127
30130,note_off,144,0,0,,6,,,78,127
30132,note_on,2,0,0,,2,,,74,127
30276,note_off,144,0,0,,2,,,74,127
30276,note_off,0,0,0,,2,,,62,127
30278,note_on,2,0,0,,7,,,67,127
30278,note_on,0,0,0,,12,,,83,127
30422,note_off,144,0,0,,12,,,83,127
30422,note_off,0,0,0,,7,,,67,127
30424,note_on,2,0,0,,10,,,69,127
30424,note_on,0,0,0,,6,,,78,127
30470,note_off,46,0,0,,6,,,78,127
30472,note_on,2,0,0,,4,,,76,127
30519,note_off,47,0,0,,4,,,76,127
30521,note_on,2,0,0,,6,,,78,127
30568,note_off,47,0,0,,6,,,78,127
30570,note_on,2,0,0,,4,,,76,127
30714,note_off,144,0,0,,10,,,69,127
30716,note_on,2,0,0,,10,,,57,127
30762,note_off,46,0,0,,4,,,76,127
30764,note_on,2,0,0,,2,,,74,127
30811,note_off,47,0,0,,2,,,74,127
30813,note_on,2,0,0,,4,,,76,127
30860,note_off,47,0,0,,4,,,76,127
30860,note_off,0,0,0,,10,,,57,127
30862,note_on,2,0,0,,2,,,62,127
30862,note_on,0,0,0,,6,,,78,127
31006,note_off,144,0,0,,6,,,78,127
31008,note_on,2,0,0,,2,,,74,127
31152,note_off,144,0,0,,2,,,74,127
31152,note_off,0,0,0,,2,,,62,127
31154,note_on,2,0,0,,7,,,67,127
31154,note_on,0,0,0,,12,,,83,127
31298,note_off,144,0,0,,12,,,83,127
31298,note_off,0,0,0,,7,,,67,127
31300,note_on,2,0,0,,10,,,69,127
31300,note_on,0,0,0,,6,,,78,127
31346,note_off,46,0,0,,6,,,78,127
31348,note_on,2,0,0,,4,,,76,127
31395,note_off,47,0,0,,4,,,76,127
31397,note_on,2,0,0,,6,,,78,127
31444,note_off,47,0,0,,6,,,78,127
31446,note_on,2,0,0,,4,,,76,127
31590,note_off,144,0,0,,10,,,69,127
31592,note_on,2,0,0,,10,,,57,127
31642,note_off,50,0,0,,4,,,76,127
31642,note_on,0,0,0,,2,,,74,127
31689,note_off,47,0,0,,2,,,74,127
31690,note_on,1,0,0,,1,,,73,127
31736,note_off,46,0,0,,10,,,57,127
31737,note_off,1,0,0,,1,,,73,127
31738,note_on,1,0,0,,2,,,74,127
31884,note_on,146,0,0,,10,,,69,127
32028,note_off,144,0,0,,10,,,69,127
32030,note_on,2,0,0,,6,,,66,127
32174,note_off,144,0,0,,6,,,66,127
32176,note_on,2,0,0,,2,,,62,127
32320,note_off,144,0,0,,2,,,62,127
32322,note_on,2,0,0,,10,,,57,127
32466,note_off,144,0,0,,10,,,57,127
32468,note_on,2,0,0,,6,,,54,127
32612,note_off,144,0,0,,6,,,54,127
32614,note_on,2,0,0,,2,,,50,127
32758,note_off,144,0,0,,2,,,50,127
32760,note_on,2,0,0,,10,,,45,127
32904,note_off,144,0,0,,10,,,45,127
32906,note_on,2,0,0,,6,,,42,127
33050,note_off,144,0,0,,6,,,42,127
33052,note_off,2,0,0,,2,,,74,127
33052,note_on,0,0,0,,2,,,38,127
33345,note_on,293,0,0,,10,,,69,127
33391,note_off,46,0,0,,10,,,69,127
33393,note_on,2,0,0,,12,,,71,127
33440,note_off,47,0,0,,12,,,71,127
33442,note_on,2,0,0,,1,,,73,127
33489,note_off,47,0,0,,1,,,73,127
33490,note_off,1,0,0,,2,,,38,127
33491,note_on,1,0,0,,2,,,74,127
33637,note_on,146,0,0,,10,,,69,127
33781,note_off,144,0,0,,10,,,69,127
33783,note_on,2,0,0,,6,,,66,127
33927,note_off,144,0,0,,6,,,66,127
33929,note_on,2,0,0,,2,,,62,127
34074,note_off,145,0,0,,2,,,74,127
34075,note_on,1,0,0,,10,,,57,127
34219,note_off,144,0,0,,10,,,57,127
34221,note_on,2,0,0,,6,,,54,127
34365,note_off,144,0,0,,6,,,54,127
34367,note_on,2,0,0,,2,,,50,127
34512,note_off,145,0,0,,2,,,62,127
34513,note_on,1,0,0,,10,,,45,127
34657,note_off,144,0,0,,10,,,45,127
34659,note_on,2,0,0,,6,,,42,127
34803,note_off,144,0,0,,6,,,42,127
34805,note_on,2,0,0,,2,,,38,127
34950,note_off,145,0,0,,2,,,50,127
34951,note_on,1,0,0,,2,,,74,127
35095,note_off,144,0,0,,2,,,74,127
35097,note_on,2,0,0,,10,,,69,127
35241,note_off,144,0,0,,10,,,69,127
35241,note_off,0,0,0,,2,,,38,127
35243,note_on,2,0,0,,7,,,67,127
35437,note_on,194,0,0,,12,,,71,127
35484,note_off,47,0,0,,12,,,71,127
35486,note_on,2,0,0,,1,,,73,127
35533,note_off,47,0,0,,1,,,73,127
35535,note_on,2,0,0,,2,,,74,127
35581,note_off,46,0,0,,2,,,74,127
35583,note_on,2,0,0,,4,,,76,127
35630,note_off,47,0,0,,4,,,76,127
35632,note_on,2,0,0,,6,,,78,127
35679,note_off,47,0,0,,6,,,78,127
35679,note_off,0,0,0,,7,,,67,127
35681,note_on,2,0,0,,4,,,64,127
35681,note_on,0,0,0,,7,,,79,127
35827,note_on,146,0,0,,4,,,76,127
35898,note_off,71,0,0,,7,,,79,127
35971,note_off,73,0,0,,4,,,76,127
35973,note_on,2,0,0,,1,,,73,127
36117,note_off,144,0,0,,1,,,73,127
36117,note_off,0,0,0,,4,,,64,127
36119,note_on,2,0,0,,6,,,66,127
36313,note_on,194,0,0,,10,,,69,127
36360,note_off,47,0,0,,10,,,69,127
36362,note_on,2,0,0,,12,,,71,127
36409,note_off,47,0,0,,12,,,71,127
36411,note_on,2,0,0,,1,,,73,127
36457,note_off,46,0,0,,1,,,73,127
36459,note_on,2,0,0,,2,,,74,127
36506,note_off,47,0,0,,2,,,74,127
36508,note_on,2,0,0,,4,,,76,127
36555,note_off,47,0,0,,4,,,76,127
36555,note_off,0,0,0,,6,,,66,127
36557,note_on,2,0,0,,2,,,62,127
36557,note_on,0,0,0,,6,,,78,127
36703,note_on,146,0,0,,2,,,74,127
36774,note_off,71,0,0,,6,,,78,127
36847,note_off,73,0,0,,2,,,74,127
36849,note_on,2,0,0,,12,,,71,127
36993,note_off,144,0,0,,12,,,71,127
36993,note_off,0,0,0,,2,,,62,127
36995,note_on,2,0,0,,4,,,64,127
37189,note_on,194,0,0,,7,,,67,127
37236,note_off,47,0,0,,7,,,67,127
37238,note_on,2,0,0,,10,,,69,127
37285,note_off,47,0,0,,10,,,69,127
37287,note_on,2,0,0,,12,,,71,127
37333,note_off,46,0,0,,12,,,71,127
37335,note_on,2,0,0,,1,,,73,127
37382,note_off,47,0,0,,1,,,73,127
37384,note_on,2,0,0,,2,,,74,127
37431,note_off,47,0,0,,2,,,74,127
37433,note_on,2,0,0,,4,,,76,127
37577,note_off,144,0,0,,4,,,76,127
37579,note_on,2,0,0,,2,,,74,127
37723,note_off,144,0,0,,2,,,74,127
37723,note_off,0,0,0,,4,,,64,127
37725,note_on,2,0,0,,6,,,66,127
37725,note_on,0,0,0,,1,,,73,127
37869,note_off,144,0,0,,1,,,73,127
37869,note_off,0,0,0,,6,,,66,127
37871,note_on,2,0,0,,7,,,67,127
37871,note_on,0,0,0,,12,,,71,127
38015,note_off,144,0,0,,12,,,71,127
38017,note_on,2,0,0,,11,,,70,127
38161,note_off,144,0,0,,11,,,70,127
38161,note_off,0,0,0,,7,,,67,127
38163,note_on,2,0,0,,6,,,66,127
38163,note_on,0,0,0,,12,,,71,127
38307,note_off,144,0,0,,12,,,71,127
38307,note_off,0,0,0,,6,,,66,127
38309,note_on,2,0,0,,4,,,64,127
38309,note_on,0,0,0,,4,,,76,127
38453,note_off,144,0,0,,4,,,76,127
38455,note_on,2,0,0,,2,,,74,127
38599,note_off,144,0,0,,2,,,74,127
38599,note_off,0,0,0,,4,,,64,127
38601,note_on,2,0,0,,6,,,66,127
38601,note_on,0,0,0,,1,,,73,127
38745,note_off,144,0,0,,1,,,73,127
38745,note_off,0,0,0,,6,,,66,127
38747,note_on,2,0,0,,7,,,67,127
38747,note_on,0,0,0,,12,,,71,127
38891,note_off,144,0,0,,12,,,71,127
38893,note_on,2,0,0,,11,,,70,127
39037,note_off,144,0,0,,11,,,70,127
39037,note_off,0,0,0,,7,,,67,127
39039,note_on,2,0,0,,6,,,66,127
39039,note_on,0,0,0,,12,,,71,127
39183,note_off,144,0,0,,12,,,71,127
39183,note_off,0,0,0,,6,,,66,127
39185,note_on,2,0,0,,4,,,64,127
39185,note_on,0,0,0,,4,,,76,127
39329,note_off,144,0,0,,4,,,76,127
39331,note_on,2,0,0,,2,,,74,127
39475,note_off,144,0,0,,2,,,74,127
39475,note_off,0,0,0,,4,,,64,127
39477,note_on,2,0,0,,6,,,66,127
39477,note_on,0,0,0,,1,,,73,127
39621,note_off,144,0,0,,1,,,73,127
39621,note_off,0,0,0,,6,,,66,127
39623,note_on,2,0,0,,7,,,67,127
39623,note_on,0,0,0,,12,,,83,127
39623,note_on,0,0,0,,12,,,71,127
39767,note_off,144,0,0,,12,,,83,127
39769,note_on,2,0,0,,10,,,81,127
39913,note_off,144,0,0,,10,,,81,127
39915,note_on,2,0,0,,7,,,79,127
40057,note_off,142,0,0,,12,,,71,127
40059,note_off,2,0,0,,7,,,79,127
40059,note_off,0,0,0,,7,,,67,127
40061,note_on,2,0,0,,10,,,69,127
40061,note_on,0,0,0,,6,,,78,127
40205,note_off,144,0,0,,6,,,78,127
40207,note_on,2,0,0,,7,,,79,127
40351,note_off,144,0,0,,7,,,79,127
40353,note_on,2,0,0,,4,,,76,127
40497,note_off,144,0,0,,4,,,76,127
40497,note_off,0,0,0,,10,,,69,127
40499,note_on,2,0,0,,12,,,71,127
40499,note_on,0,0,0,,3,,,75,127
40643,note_off,144,0,0,,3,,,75,127
40693,note_on,50,0,0,,0,,,72,127
40740,note_off,47,0,0,,0,,,72,127
40742,note_on,2,0,0,,3,,,75,127
40789,note_off,47,0,0,,3,,,75,127
40791,note_on,2,0,0,,4,,,76,127
40837,note_off,46,0,0,,4,,,76,127
40839,note_on,2,0,0,,6,,,78,127
40886,note_off,47,0,0,,6,,,78,127
40888,note_on,2,0,0,,7,,,79,127
40935,note_off,47,0,0,,7,,,79,127
40937,note_on,2,0,0,,10,,,81,127
41081,note_off,144,0,0,,10,,,81,127
41083,note_on,2,0,0,,7,,,79,127
41227,note_off,144,0,0,,7,,,79,127
41227,note_off,0,0,0,,12,,,71,127
41229,note_on,2,0,0,,12,,,71,127
41229,note_on,0,0,0,,6,,,78,127
41373,note_off,144,0,0,,6,,,78,127
41373,note_off,0,0,0,,12,,,71,127
41375,note_on,2,0,0,,0,,,72,127
41375,note_on,0,0,0,,4,,,76,127
41519,note_off,144,0,0,,4,,,76,127
41521,note_on,2,0,0,,3,,,75,127
41665,note_off,144,0,0,,3,,,75,127
41665,note_off,0,0,0,,0,,,72,127
41667,note_on,2,0,0,,12,,,71,127
41667,note_on,0,0,0,,4,,,76,127
41811,note_off,144,0,0,,4,,,76,127
41811,note_off,0,0,0,,12,,,71,127
41813,note_on,2,0,0,,10,,,69,127
41813,note_on,0,0,0,,10,,,81,127
41957,note_off,144,0,0,,10,,,81,127
41959,note_on,2,0,0,,7,,,79,127
42103,note_off,144,0,0,,7,,,79,127
42103,note_off,0,0,0,,10,,,69,127
42105,note_on,2,0,0,,12,,,71,127
42105,note_on,0,0,0,,6,,,78,127
42249,note_off,144,0,0,,6,,,78,127
42249,note_off,0,0,0,,12,,,71,127
42251,note_on,2,0,0,,0,,,72,127
42251,note_on,0,0,0,,4,,,76,127
42395,note_off,144,0,0,,4,,,76,127
42397,note_on,2,0,0,,3,,,75,127
42541,note_off,144,0,0,,3,,,75,127
42541,note_off,0,0,0,,0,,,72,127
42543,note_on,2,0,0,,12,,,71,127
42543,note_on,0,0,0,,4,,,76,127
42687,note_off,144,0,0,,4,,,76,127
42687,note_off,0,0,0,,12,,,71,127
42689,note_on,2,0,0,,10,,,69,127
42689,note_on,0,0,0,,10,,,81,127
42833,note_off,144,0,0,,10,,,81,127
42835,note_on,2,0,0,,7,,,79,127
42979,note_off,144,0,0,,7,,,79,127
42979,note_off,0,0,0,,10,,,69,127
42981,note_on,2,0,0,,12,,,71,127
42981,note_on,0,0,0,,6,,,78,127
43125,note_off,144,0,0,,6,,,78,127
43125,note_off,0,0,0,,12,,,71,127
43127,note_on,2,0,0,,7,,,67,127
43127,note_on,0,0,0,,12,,,83,127
43271,note_off,144,0,0,,12,,,83,127
43273,note_on,2,0,0,,10,,,81,127
43417,note_off,144,0,0,,10,,,81,127
43417,note_off,0,0,0,,7,,,67,127
43419,note_on,2,0,0,,4,,,64,127
43419,note_on,0,0,0,,7,,,79,127
43563,note_off,144,0,0,,7,,,79,127
43563,note_off,0,0,0,,4,,,64,127
43565,note_on,2,0,0,,10,,,69,127
43565,note_on,0,0,0,,6,,,78,127
43709,note_off,144,0,0,,6,,,78,127
43709,note_off,0,0,0,,10,,,69,127
43711,note_on,2,0,0,,12,,,71,127
43711,note_on,0,0,0,,7,,,79,127
43855,note_off,144,0,0,,7,,,79,127
43855,note_off,0,0,0,,12,,,71,127
43857,note_on,2,0,0,,0,,,72,127
43857,note_on,0,0,0,,4,,,76,127
43994,note_off,137,0,0,,0,,,72,127
44001,note_off,7,0,0,,4,,,76,127
44003,note_on,2,0,0,,12,,,71,127
44003,note_on,0,0,0,,12,,,83,127
44149,note_on,146,0,0,,12,,,47,127
44293,note_off,144,0,0,,12,,,47,127
44295,note_on,2,0,0,,1,,,49,127
44439,note_off,144,0,0,,1,,,49,127
44441,note_on,2,0,0,,3,,,51,127
44585,note_off,144,0,0,,12,,,83,127
44585,note_off,0,0,0,,12,,,71,127
44587,note_on,2,0,0,,12,,,83,127
44587,note_on,0,0,0,,12,,,71,127
44731,note_off,144,0,0,,3,,,51,127
44733,note_on,2,0,0,,4,,,52,127
44877,note_off,144,0,0,,4,,,52,127
44879,note_on,2,0,0,,6,,,54,127
45023,note_off,144,0,0,,12,,,71,127
45023,note_off,0,0,0,,12,,,83,127
45025,note_on,2,0,0,,12,,,71,127
45025,note_on,0,0,0,,12,,,83,127
45169,note_off,144,0,0,,6,,,54,127
45171,note_on,2,0,0,,7,,,55,127
45315,note_off,144,0,0,,7,,,55,127
45317,note_on,2,0,0,,10,,,57,127
45461,note_off,144,0,0,,12,,,83,127
45461,note_off,0,0,0,,12,,,71,127
45463,note_on,2,0,0,,12,,,71,127
45463,note_on,0,0,0,,12,,,83,127
45607,note_off,144,0,0,,10,,,57,127
45609,note_on,2,0,0,,12,,,59,127
45753,note_off,144,0,0,,12,,,59,127
45755,note_on,2,0,0,,1,,,61,127
45899,note_off,144,0,0,,12,,,83,127
45899,note_off,0,0,0,,12,,,71,127
45901,note_on,2,0,0,,12,,,71,127
45901,note_on,0,0,0,,12,,,83,127
46045,note_off,144,0,0,,1,,,61,127
46047,note_on,2,0,0,,3,,,63,127
46191,note_off,144,0,0,,3,,,63,127
46193,note_on,2,0,0,,4,,,64,127
46337,note_off,144,0,0,,12,,,83,127
46337,note_off,0,0,0,,12,,,71,127
46339,note_on,2,0,0,,12,,,83,127
46339,note_on,0,0,0,,12,,,71,127
46483,note_off,144,0,0,,4,,,64,127
46485,note_on,2,0,0,,6,,,66,127
46629,note_off,144,0,0,,6,,,66,127
46631,note_on,2,0,0,,7,,,67,127
46775,note_off,144,0,0,,12,,,71,127
46775,note_off,0,0,0,,12,,,83,127
46777,note_on,2,0,0,,12,,,71,127
46777,note_on,0,0,0,,12,,,83,127
46921,note_off,144,0,0,,7,,,67,127
46923,note_on,2,0,0,,10,,,69,127
47004,note_off,81,0,0,,12,,,71,127
47067,note_off,63,0,0,,10,,,69,127
47069,note_on,2,0,0,,12,,,71,127
47213,note_off,144,0,0,,12,,,83,127
47215,note_on,2,0,0,,12,,,83,127
47359,note_off,144,0,0,,12,,,71,127
47361,note_on,2,0,0,,1,,,73,127
47505,note_off,144,0,0,,1,,,73,127
47507,note_on,2,0,0,,3,,,75,127
47651,note_off,144,0,0,,12,,,83,127
47653,note_on,2,0,0,,10,,,81,127
47797,note_off,144,0,0,,10,,,81,127
47797,note_off,0,0,0,,3,,,75,127
47799,note_on,2,0,0,,4,,,76,127
47799,note_on,0,0,0,,7,,,79,127
47943,note_off,144,0,0,,7,,,79,127
47943,note_off,0,0,0,,4,,,76,127
47945,note_on,2,0,0,,10,,,69,127
47945,note_on,0,0,0,,10,,,81,127
48089,note_off,144,0,0,,10,,,81,127
48091,note_on,2,0,0,,7,,,79,127
48235,note_off,144,0,0,,7,,,79,127
48235,note_off,0,0,0,,10,,,69,127
48237,note_on,2,0,0,,12,,,71,127
48237,note_on,0,0,0,,6,,,78,127
48381,note_off,144,0,0,,6,,,78,127
48381,note_off,0,0,0,,12,,,71,127
48383,note_on,2,0,0,,4,,,64,127
48383,note_on,0,0,0,,7,,,79,127
48575,note_off,192,0,0,,7,,,79,127
48577,note_on,2,0,0,,4,,,76,127
48624,note_off,47,0,0,,4,,,76,127
48626,note_on,2,0,0,,6,,,78,127
48673,note_off,47,0,0,,6,,,78,127
48675,note_on,2,0,0,,7,,,79,127
48721,note_off,46,0,0,,7,,,79,127
48723,note_on,2,0,0,,10,,,81,127
48770,note_off,47,0,0,,10,,,81,127
48772,note_on,2,0,0,,12,,,83,127
48819,note_off,47,0,0,,12,,,83,127
48821,note_on,2,0,0,,0,,,84,127
48965,note_off,144,0,0,,4,,,64,127
48967,note_on,2,0,0,,0,,,72,127
49111,note_off,144,0,0,,0,,,72,127
49113,note_on,2,0,0,,10,,,69,127
49257,note_off,144,0,0,,10,,,69,127
49259,note_on,2,0,0,,2,,,50,127
49451,note_off,192,0,0,,0,,,84,127
49453,note_on,2,0,0,,2,,,74,127
49500,note_off,47,0,0,,2,,,74,127
49502,note_on,2,0,0,,4,,,76,127
49549,note_off,47,0,0,,4,,,76,127
49551,note_on,2,0,0,,6,,,78,127
49597,note_off,46,0,0,,6,,,78,127
49599,note_on,2,0,0,,7,,,79,127
49646,note_off,47,0,0,,7,,,79,127
49648,note_on,2,0,0,,10,,,81,127
49695,note_off,47,0,0,,10,,,81,127
49697,note_on,2,0,0,,12,,,83,127
49841,note_off,144,0,0,,2,,,50,127
49843,note_on,2,0,0,,12,,,71,127
49987,note_off,144,0,0,,12,,,71,127
49989,note_on,2,0,0,,7,,,67,127
50133,note_off,144,0,0,,7,,,67,127
50135,note_on,2,0,0,,0,,,48,127
50327,note_off,192,0,0,,12,,,83,127
50329,note_on,2,0,0,,0,,,72,127
50376,note_off,47,0,0,,0,,,72,127
50378,note_on,2,0,0,,2,,,74,127
50425,note_off,47,0,0,,2,,,74,127
50427,note_on,2,0,0,,4,,,76,127
50473,note_off,46,0,0,,4,,,76,127
50475,note_on,2,0,0,,6,,,78,127
50522,note_off,47,0,0,,6,,,78,127
50524,note_on,2,0,0,,7,,,79,127
50571,note_off,47,0,0,,7,,,79,127
50573,note_on,2,0,0,,10,,,81,127
50717,note_off,144,0,0,,0,,,48,127
50719,note_on,2,0,0,,10,,,69,127
50863,note_off,144,0,0,,10,,,69,127
50865,note_on,2,0,0,,6,,,66,127
51009,note_off,144,0,0,,6,,,66,127
51011,note_on,2,0,0,,12,,,47,127
51203,note_off,192,0,0,,10,,,81,127
51205,note_on,2,0,0,,12,,,71,127
51252,note_off,47,0,0,,12,,,71,127
51254,note_on,2,0,0,,0,,,72,127
51301,note_off,47,0,0,,0,,,72,127
51303,note_on,2,0,0,,2,,,74,127
51349,note_off,46,0,0,,2,,,74,127
51351,note_on,2,0,0,,4,,,76,127
51398,note_off,47,0,0,,4,,,76,127
51400,note_on,2,0,0,,6,,,78,127
51447,note_off,47,0,0,,6,,,78,127
51449,note_on,2,0,0,,7,,,79,127
51593,note_off,144,0,0,,12,,,47,127
51595,note_on,2,0,0,,7,,,67,127
51739,note_off,144,0,0,,7,,,67,127
51741,note_on,2,0,0,,4,,,64,127
51885,note_off,144,0,0,,4,,,64,127
51887,note_on,2,0,0,,10,,,45,127
52079,note_off,192,0,0,,7,,,79,127
52081,note_on,2,0,0,,10,,,69,127
52128,note_off,47,0,0,,10,,,69,127
52130,note_on,2,0,0,,12,,,71,127
52177,note_off,47,0,0,,12,,,71,127
52179,note_on,2,0,0,,0,,,72,127
52225,note_off,46,0,0,,0,,,72,127
52227,note_on,2,0,0,,2,,,74,127
52274,note_off,47,0,0,,2,,,74,127
52276,note_on,2,0,0,,4,,,76,127
52323,note_off,47,0,0,,4,,,76,127
52325,note_on,2,0,0,,6,,,78,127
52469,note_off,144,0,0,,10,,,45,127
52471,note_on,2,0,0,,6,,,66,127
52615,note_off,144,0,0,,6,,,66,127
52617,note_on,2,0,0,,2,,,62,127
52761,note_off,144,0,0,,2,,,62,127
52763,note_on,2,0,0,,7,,,43,127
52907,note_off,144,0,0,,6,,,78,127
52909,note_on,2,0,0,,7,,,67,127
52980,note_off,71,0,0,,7,,,67,127
52982,note_on,2,0,0,,10,,,69,127
53053,note_off,71,0,0,,10,,,69,127
53055,note_on,2,0,0,,12,,,71,127
53126,note_off,71,0,0,,12,,,71,127
53128,note_on,2,0,0,,0,,,72,127
53199,note_off,71,0,0,,0,,,72,127
53199,note_off,0,0,0,,7,,,43,127
53201,note_on,2,0,0,,12,,,59,127
53201,note_on,0,0,0,,2,,,74,127
53345,note_off,144,0,0,,2,,,74,127
53345,note_off,0,0,0,,12,,,59,127
53347,note_on,2,0,0,,10,,,57,127
53347,note_on,0,0,0,,0,,,72,127
53491,note_off,144,0,0,,0,,,72,127
53491,note_off,0,0,0,,10,,,57,127
53493,note_on,2,0,0,,7,,,55,127
53493,note_on,0,0,0,,12,,,71,127
53637,note_off,144,0,0,,12,,,71,127
53637,note_off,0,0,0,,7,,,55,127
53639,note_on,2,0,0,,0,,,60,127
53639,note_on,0,0,0,,4,,,76,127
53783,note_off,144,0,0,,4,,,76,127
53783,note_off,0,0,0,,0,,,60,127
53785,note_on,2,0,0,,12,,,59,127
53785,note_on,0,0,0,,2,,,74,127
53929,note_off,144,0,0,,2,,,74,127
53929,note_off,0,0,0,,12,,,59,127
53931,note_on,2,0,0,,10,,,57,127
53931,note_on,0,0,0,,0,,,72,127
54075,note_off,144,0,0,,0,,,72,127
54075,note_off,0,0,0,,10,,,57,127
54077,note_on,2,0,0,,7,,,55,127
54077,note_on,0,0,0,,12,,,71,127
54221,note_off,144,0,0,,12,,,71,127
54221,note_off,0,0,0,,7,,,55,127
54223,note_on,2,0,0,,6,,,54,127
54223,note_on,0,0,0,,10,,,69,127
54367,note_off,144,0,0,,10,,,69,127
54367,note_off,0,0,0,,6,,,54,127
54369,note_on,2,0,0,,4,,,52,127
54369,note_on,0,0,0,,7,,,67,127
54513,note_off,144,0,0,,7,,,67,127
54513,note_off,0,0,0,,4,,,52,127
54515,note_on,2,0,0,,2,,,62,127
54515,note_on,0,0,0,,12,,,71,127
54561,note_off,46,0,0,,12,,,71,127
54563,note_on,2,0,0,,10,,,69,127
54610,note_off,47,0,0,,10,,,69,127
54612,note_on,2,0,0,,12,,,71,127
54659,note_off,47,0,0,,12,,,71,127
54659,note_off,0,0,0,,2,,,62,127
54661,note_on,2,0,0,,10,,,57,127
54661,note_on,0,0,0,,10,,,69,127
54805,note_off,144,0,0,,10,,,57,127
54807,note_on,2,0,0,,6,,,54,127
54951,note_off,144,0,0,,6,,,54,127
54953,note_on,2,0,0,,2,,,38,127
55097,note_off,144,0,0,,10,,,69,127
55099,note_on,2,0,0,,2,,,74,127
55243,note_off,144,0,0,,2,,,74,127
55245,note_on,2,0,0,,2,,,62,127
55389,note_off,144,0,0,,2,,,62,127
55389,note_off,0,0,0,,2,,,38,127
55391,note_on,2,0,0,,2,,,62,127
55391,note_on,0,0,0,,0,,,72,127
55437,note_off,46,0,0,,0,,,72,127
55439,note_on,2,0,0,,12,,,71,127
55486,note_off,47,0,0,,12,,,71,127
55488,note_on,2,0,0,,0,,,72,127
55535,note_off,47,0,0,,0,,,72,127
55535,note_off,0,0,0,,2,,,62,127
55537,note_on,2,0,0,,12,,,59,127
55537,note_on,0,0,0,,12,,,71,127
55681,note_off,144,0,0,,12,,,59,127
55683,note_on,2,0,0,,7,,,55,127
55827,note_off,144,0,0,,7,,,55,127
55829,note_on,2,0,0,,2,,,38,127
55973,note_off,144,0,0,,12,,,71,127
55975,note_on,2,0,0,,2,,,74,127
56119,note_off,144,0,0,,2,,,74,127
56121,note_on,2,0,0,,2,,,62,127
56265,note_off,144,0,0,,2,,,62,127
56265,note_off,0,0,0,,2,,,38,127
56267,note_on,2,0,0,,2,,,62,127
56267,note_on,0,0,0,,12,,,71,127
56313,note_off,46,0,0,,12,,,71,127
56315,note_on,2,0,0,,10,,,69,127
56362,note_off,47,0,0,,10,,,69,127
56364,note_on,2,0,0,,12,,,71,127
56411,note_off,47,0,0,,12,,,71,127
56411,note_off,0,0,0,,2,,,62,127
56413,note_on,2,0,0,,10,,,57,127
56413,note_on,0,0,0,,10,,,69,127
56557,note_off,144,0,0,,10,,,57,127
56559,note_on,2,0,0,,6,,,54,127
56703,note_off,144,0,0,,6,,,54,127
56705,note_on,2,0,0,,2,,,38,127
56849,note_off,144,0,0,,10,,,69,127
56851,note_on,2,0,0,,2,,,74,127
56995,note_off,144,0,0,,2,,,74,127
56997,note_on,2,0,0,,2,,,62,127
57141,note_off,144,0,0,,2,,,62,127
57141,note_off,0,0,0,,2,,,38,127
57143,note_on,2,0,0,,2,,,62,127
57143,note_on,0,0,0,,0,,,72,127
57189,note_off,46,0,0,,0,,,72,127
57191,note_on,2,0,0,,12,,,71,127
57238,note_off,47,0,0,,12,,,71,127
57240,note_on,2,0,0,,0,,,72,127
57287,note_off,47,0,0,,0,,,72,127
57287,note_off,0,0,0,,2,,,62,127
57289,note_on,2,0,0,,12,,,59,127
57289,note_on,0,0,0,,12,,,71,127
57433,note_off,144,0,0,,12,,,59,127
57435,note_on,2,0,0,,7,,,55,127
57579,note_off,144,0,0,,7,,,55,127
57581,note_on,2,0,0,,2,,,38,127
57725,note_off,144,0,0,,12,,,71,127
57727,note_on,2,0,0,,2,,,74,127
57871,note_off,144,0,0,,2,,,74,127
57873,note_on,2,0,0,,2,,,62,127
58017,note_off,144,0,0,,2,,,62,127
58017,note_off,0,0,0,,2,,,38,127
58019,note_on,2,0,0,,2,,,38,127
58019,note_on,0,0,0,,12,,,71,127
58065,note_off,46,0,0,,12,,,71,127
58067,note_on,2,0,0,,10,,,69,127
58114,note_off,47,0,0,,10,,,69,127
58116,note_on,2,0,0,,12,,,71,127
58163,note_off,47,0,0,,12,,,71,127
58165,note_on,2,0,0,,10,,,69,127
58453,note_off,288,0,0,,2,,,38,127
58455,note_off,2,0,0,,10,,,69,127
58457,note_on,2,0,0,,0,,,84,127
58601,note_off,144,0,0,,0,,,84,127
58603,note_on,2,0,0,,11,,,82,127
58747,note_off,144,0,0,,11,,,82,127
58749,note_on,2,0,0,,10,,,81,127
58893,note_off,144,0,0,,10,,,81,127
58895,note_on,2,0,0,,3,,,63,127
58895,note_on,0,0,0,,7,,,79,127
59039,note_off,144,0,0,,7,,,79,127
59041,note_on,2,0,0,,6,,,78,127
59185,note_off,144,0,0,,6,,,78,127
59185,note_off,0,0,0,,3,,,63,127
59187,note_on,2,0,0,,2,,,62,127
59187,note_on,0,0,0,,7,,,79,127
59331,note_off,144,0,0,,7,,,79,127
59331,note_off,0,0,0,,2,,,62,127
59333,note_on,2,0,0,,0,,,60,127
59333,note_on,0,0,0,,0,,,84,127
59477,note_off,144,0,0,,0,,,84,127
59479,note_on,2,0,0,,11,,,82,127
59623,note_off,144,0,0,,11,,,82,127
59623,note_off,0,0,0,,0,,,60,127
59625,note_on,2,0,0,,2,,,62,127
59625,note_on,0,0,0,,10,,,81,127
59769,note_off,144,0,0,,10,,,81,127
59769,note_off,0,0,0,,2,,,62,127
59771,note_on,2,0,0,,3,,,63,127
59771,note_on,0,0,0,,7,,,79,127
59915,note_off,144,0,0,,7,,,79,127
59917,note_on,2,0,0,,6,,,78,127
60061,note_off,144,0,0,,6,,,78,127
60061,note_off,0,0,0,,3,,,63,127
60063,note_on,2,0,0,,2,,,62,127
60063,note_on,0,0,0,,7,,,79,127
60207,note_off,144,0,0,,7,,,79,127
60207,note_off,0,0,0,,2,,,62,127
60209,note_on,2,0,0,,0,,,60,127
60209,note_on,0,0,0,,0,,,84,127
60353,note_off,144,0,0,,0,,,84,127
60355,note_on,2,0,0,,11,,,82,127
60499,note_off,144,0,0,,11,,,82,127
60499,note_off,0,0,0,,0,,,60,127
60501,note_on,2,0,0,,2,,,62,127
60501,note_on,0,0,0,,10,,,81,127
60645,note_off,144,0,0,,10,,,81,127
60645,note_off,0,0,0,,2,,,62,127
60647,note_on,2,0,0,,3,,,63,127
60647,note_on,0,0,0,,7,,,79,127
60791,note_off,144,0,0,,7,,,79,127
60791,note_off,0,0,0,,3,,,63,127
60793,note_on,2,0,0,,2,,,62,127
60793,note_on,0,0,0,,6,,,78,127
60937,note_off,144,0,0,,6,,,78,127
60937,note_off,0,0,0,,2,,,62,127
60939,note_on,2,0,0,,0,,,60,127
60939,note_on,0,0,0,,7,,,79,127
61083,note_off,144,0,0,,7,,,79,127
61083,note_off,0,0,0,,0,,,60,127
61085,note_on,2,0,0,,11,,,58,127
61085,note_on,0,0,0,,2,,,74,127
61229,note_off,144,0,0,,2,,,74,127
61229,note_off,0,0,0,,11,,,58,127
61231,note_on,2,0,0,,10,,,57,127
61231,note_on,0,0,0,,0,,,72,127
61375,note_off,144,0,0,,0,,,72,127
61375,note_off,0,0,0,,10,,,57,127
61377,note_on,2,0,0,,7,,,55,127
61377,note_on,0,0,0,,11,,,70,127
61521,note_off,144,0,0,,11,,,70,127
61521,note_off,0,0,0,,7,,,55,127
61523,note_on,2,0,0,,6,,,54,127
61523,note_on,0,0,0,,10,,,69,127
61667,note_off,144,0,0,,10,,,69,127
61667,note_off,0,0,0,,6,,,54,127
61669,note_on,2,0,0,,4,,,52,127
61669,note_on,0,0,0,,12,,,71,127
61813,note_off,144,0,0,,12,,,71,127
61813,note_off,0,0,0,,4,,,52,127
61815,note_on,2,0,0,,2,,,50,127
61815,note_on,0,0,0,,0,,,72,127
61959,note_off,144,0,0,,0,,,72,127
61959,note_off,0,0,0,,2,,,50,127
61961,note_on,2,0,0,,7,,,55,127
61961,note_on,0,0,0,,12,,,71,127
62105,note_off,144,0,0,,12,,,71,127
62105,note_off,0,0,0,,7,,,55,127
62107,note_on,2,0,0,,6,,,54,127
62107,note_on,0,0,0,,10,,,69,127
62251,note_off,144,0,0,,10,,,69,127
62251,note_off,0,0,0,,6,,,54,127
62253,note_on,2,0,0,,4,,,52,127
62253,note_on,0,0,0,,7,,,67,127
62390,note_off,137,0,0,,4,,,52,127
62397,note_off,7,0,0,,7,,,67,127
62399,note_on,2,0,0,,2,,,74,127
62399,note_on,0,0,0,,2,,,62,127
62545,note_on,146,0,0,,2,,,38,127
62689,note_off,144,0,0,,2,,,38,127
62691,note_on,2,0,0,,4,,,40,127
62835,note_off,144,0,0,,4,,,40,127
62837,note_on,2,0,0,,6,,,42,127
62981,note_off,144,0,0,,2,,,62,127
62981,note_off,0,0,0,,2,,,74,127
62983,note_on,2,0,0,,2,,,62,127
62983,note_on,0,0,0,,2,,,74,127
63127,note_off,144,0,0,,6,,,42,127
63129,note_on,2,0,0,,7,,,43,127
63273,note_off,144,0,0,,7,,,43,127
63275,note_on,2,0,0,,10,,,45,127
63419,note_off,144,0,0,,2,,,74,127
63419,note_off,0,0,0,,2,,,62,127
63421,note_on,2,0,0,,2,,,74,127
63421,note_on,0,0,0,,2,,,62,127
63565,note_off,144,0,0,,10,,,45,127
63567,note_on,2,0,0,,12,,,47,127
63711,note_off,144,0,0,,12,,,47,127
63713,note_on,2,0,0,,0,,,48,127
63857,note_off,144,0,0,,2,,,62,127
63857,note_off,0,0,0,,2,,,74,127
63859,note_on,2,0,0,,2,,,74,127
63859,note_on,0,0,0,,2,,,62,127
64003,note_off,144,0,0,,0,,,48,127
64005,note_on,2,0,0,,2,,,50,127
64149,note_off,144,0,0,,2,,,50,127
64151,note_on,2,0,0,,4,,,52,127
64295,note_off,144,0,0,,2,,,62,127
64295,note_off,0,0,0,,2,,,74,127
64297,note_on,2,0,0,,2,,,62,127
64297,note_on,0,0,0,,2,,,74,127
64441,note_off,144,0,0,,4,,,52,127
64443,note_on,2,0,0,,6,,,54,127
64587,note_off,144,0,0,,6,,,54,127
64589,note_on,2,0,0,,7,,,55,127
64733,note_off,144,0,0,,2,,,74,127
64733,note_off,0,0,0,,2,,,62,127
64735,note_on,2,0,0,,2,,,74,127
64735,note_on,0,0,0,,2,,,62,127
64879,note_off,144,0,0,,7,,,55,127
64881,note_on,2,0,0,,10,,,57,127
65025,note_off,144,0,0,,10,,,57,127
65027,note_on,2,0,0,,12,,,59,127
65171,note_off,144,0,0,,2,,,62,127
65171,note_off,0,0,0,,2,,,74,127
65173,note_on,2,0,0,,2,,,74,127
65173,note_on,0,0,0,,2,,,62,127
65317,note_off,144,0,0,,12,,,59,127
65319,note_on,2,0,0,,0,,,60,127
65399,note_off,80,0,0,,2,,,62,127
65463,note_off,64,0,0,,0,,,60,127
65465,note_on,2,0,0,,2,,,62,127
65609,note_off,144,0,0,,2,,,74,127
65611,note_on,2,0,0,,2,,,74,127
65755,note_off,144,0,0,,2,,,62,127
65757,note_on,2,0,0,,4,,,64,127
65901,note_off,144,0,0,,4,,,64,127
65903,note_on,2,0,0,,6,,,66,127
66047,note_off,144,0,0,,2,,,74,127
66049,note_on,2,0,0,,0,,,72,127
66193,note_off,144,0,0,,0,,,72,127
66193,note_off,0,0,0,,6,,,66,127
66195,note_on,2,0,0,,7,,,67,127
66195,note_on,0,0,0,,12,,,71,127
66339,note_off,144,0,0,,12,,,71,127
66339,note_off,0,0,0,,7,,,67,127
66341,note_on,2,0,0,,0,,,60,127
66341,note_on,0,0,0,,10,,,69,127
66485,note_off,144,0,0,,10,,,69,127
66485,note_off,0,0,0,,0,,,60,127
66487,note_on,2,0,0,,2,,,62,127
66487,note_on,0,0,0,,12,,,71,127
66631,note_off,144,0,0,,12,,,71,127
66631,note_off,0,0,0,,2,,,62,127
66633,note_on,2,0,0,,4,,,64,127
66633,note_on,0,0,0,,7,,,67,127
66770,note_off,137,0,0,,4,,,64,127
66777,note_off,7,0,0,,7,,,67,127
66779,note_on,2,0,0,,2,,,74,127
66779,note_on,0,0,0,,2,,,62,127
66925,note_on,146,0,0,,2,,,38,127
67069,note_off,144,0,0,,2,,,38,127
67071,note_on,2,0,0,,4,,,40,127
67215,note_off,144,0,0,,4,,,40,127
67215,note_off,0,0,0,,2,,,62,127
67215,note_off,0,0,0,,2,,,74,127
67217,note_on,2,0,0,,6,,,42,127
67217,note_on,0,0,0,,2,,,62,127
67217,note_on,0,0,0,,2,,,74,127
67361,note_off,144,0,0,,6,,,42,127
67363,note_on,2,0,0,,6,,,42,127
67507,note_off,144,0,0,,6,,,42,127
67509,note_on,2,0,0,,7,,,43,127
67653,note_off,144,0,0,,7,,,43,127
67653,note_off,0,0,0,,2,,,74,127
67653,note_off,0,0,0,,2,,,62,127
67655,note_on,2,0,0,,10,,,45,127
67655,note_on,0,0,0,,2,,,62,127
67655,note_on,0,0,0,,2,,,74,127
67799,note_off,144,0,0,,10,,,45,127
67801,note_on,2,0,0,,10,,,45,127
67945,note_off,144,0,0,,10,,,45,127
67947,note_on,2,0,0,,12,,,47,127
68091,note_off,144,0,0,,12,,,47,127
68091,note_off,0,0,0,,2,,,74,127
68091,note_off,0,0,0,,2,,,62,127
68093,note_on,2,0,0,,0,,,48,127
68093,note_on,0,0,0,,2,,,62,127
68093,note_on,0,0,0,,2,,,74,127
68237,note_off,144,0,0,,0,,,48,127
68239,note_on,2,0,0,,0,,,48,127
68383,note_off,144,0,0,,0,,,48,127
68385,note_on,2,0,0,,2,,,50,127
68529,note_off,144,0,0,,2,,,50,127
68529,note_off,0,0,0,,2,,,74,127
68529,note_off,0,0,0,,2,,,62,127
68531,note_on,2,0,0,,4,,,52,127
68531,note_on,0,0,0,,2,,,62,127
68531,note_on,0,0,0,,2,,,74,127
68675,note_off,144,0,0,,4,,,52,127
68677,note_on,2,0,0,,4,,,52,127
68821,note_off,144,0,0,,4,,,52,127
68823,note_on,2,0,0,,6,,,54,127
68967,note_off,144,0,0,,6,,,54,127
68967,note_off,0,0,0,,2,,,74,127
68967,note_off,0,0,0,,2,,,62,127
68969,note_on,2,0,0,,7,,,55,127
68969,note_on,0,0,0,,2,,,62,127
68969,note_on,0,0,0,,2,,,74,127
69113,note_off,144,0,0,,7,,,55,127
69115,note_on,2,0,0,,7,,,55,127
69259,note_off,144,0,0,,7,,,55,127
69261,note_on,2,0,0,,10,,,57,127
69405,note_off,144,0,0,,10,,,57,127
69405,note_off,0,0,0,,2,,,74,127
69405,note_off,0,0,0,,2,,,62,127
69407,note_on,2,0,0,,12,,,59,127
69407,note_on,0,0,0,,2,,,74,127
69407,note_on,0,0,0,,2,,,62,127
69551,note_off,144,0,0,,12,,,59,127
69553,note_on,2,0,0,,12,,,59,127
69697,note_off,144,0,0,,12,,,59,127
69699,note_on,2,0,0,,0,,,60,127
69843,note_off,144,0,0,,0,,,60,127
69843,note_off,0,0,0,,2,,,62,127
69843,note_off,0,0,0,,2,,,74,127
69845,note_on,2,0,0,,2,,,62,127
69845,note_on,0,0,0,,2,,,74,127
69989,note_off,144,0,0,,2,,,62,127
69991,note_on,2,0,0,,2,,,62,127
70135,note_off,144,0,0,,2,,,62,127
70137,note_on,2,0,0,,4,,,64,127
70281,note_off,144,0,0,,4,,,64,127
70283,note_on,2,0,0,,6,,,66,127
70427,note_off,144,0,0,,2,,,74,127
70429,note_on,2,0,0,,0,,,72,127
70573,note_off,144,0,0,,0,,,72,127
70573,note_off,0,0,0,,6,,,66,127
70575,note_on,2,0,0,,7,,,67,127
70575,note_on,0,0,0,,12,,,71,127
70719,note_off,144,0,0,,12,,,71,127
70719,note_off,0,0,0,,7,,,67,127
70721,note_on,2,0,0,,0,,,60,127
70721,note_on,0,0,0,,0,,,72,127
70865,note_off,144,0,0,,0,,,72,127
70867,note_on,2,0,0,,12,,,71,127
71011,note_off,144,0,0,,12,,,71,127
71011,note_off,0,0,0,,0,,,60,127
71013,note_on,2,0,0,,2,,,62,127
71013,note_on,0,0,0,,10,,,69,127
71157,note_off,144,0,0,,10,,,69,127
71157,note_off,0,0,0,,2,,,62,127
71159,note_on,2,0,0,,7,,,55,127
71159,note_on,0,0,0,,12,,,71,127
71303,note_off,144,0,0,,12,,,71,127
71305,note_on,2,0,0,,7,,,67,127
71449,note_off,144,0,0,,7,,,55,127
71451,note_on,2,0,0,,12,,,59,127
71451,note_on,0,0,0,,7,,,79,127
71595,note_off,144,0,0,,7,,,79,127
71595,note_off,0,0,0,,12,,,59,127
71596,note_off,1,0,0,,7,,,67,127
71597,note_on,1,0,0,,0,,,60,127
71597,note_on,0,0,0,,12,,,71,127
71643,note_off,46,0,0,,12,,,71,127
71645,note_on,2,0,0,,10,,,69,127
71692,note_off,47,0,0,,10,,,69,127
71694,note_on,2,0,0,,12,,,71,127
71741,note_off,47,0,0,,12,,,71,127
71743,note_on,2,0,0,,10,,,69,127
71887,note_off,144,0,0,,0,,,60,127
71889,note_on,2,0,0,,2,,,62,127
71935,note_off,46,0,0,,10,,,69,127
71937,note_on,2,0,0,,7,,,67,127
71984,note_off,47,0,0,,7,,,67,127
71986,note_on,2,0,0,,10,,,69,127
72033,note_off,47,0,0,,10,,,69,127
72033,note_off,0,0,0,,2,,,62,127
72035,note_on,2,0,0,,7,,,55,127
72035,note_on,0,0,0,,12,,,71,127
72179,note_off,144,0,0,,12,,,71,127
72181,note_on,2,0,0,,7,,,67,127
72325,note_off,144,0,0,,7,,,55,127
72327,note_on,2,0,0,,12,,,59,127
72327,note_on,0,0,0,,7,,,79,127
72471,note_off,144,0,0,,7,,,79,127
72471,note_off,0,0,0,,12,,,59,127
72472,note_off,1,0,0,,7,,,67,127
72473,note_on,1,0,0,,0,,,60,127
72473,note_on,0,0,0,,12,,,71,127
72519,note_off,46,0,0,,12,,,71,127
72521,note_on,2,0,0,,10,,,69,127
72568,note_off,47,0,0,,10,,,69,127
72570,note_on,2,0,0,,12,,,71,127
72617,note_off,47,0,0,,12,,,71,127
72619,note_on,2,0,0,,10,,,69,127
72763,note_off,144,0,0,,0,,,60,127
72765,note_on,2,0,0,,2,,,62,127
72811,note_off,46,0,0,,10,,,69,127
72813,note_on,2,0,0,,7,,,67,127
72860,note_off,47,0,0,,7,,,67,127
72862,note_on,2,0,0,,10,,,69,127
72909,note_off,47,0,0,,10,,,69,127
72909,note_off,0,0,0,,2,,,62,127
72911,note_on,2,0,0,,7,,,55,127
72911,note_on,0,0,0,,12,,,71,127
73055,note_off,144,0,0,,12,,,71,127
73057,note_on,2,0,0,,7,,,67,127
73201,note_off,144,0,0,,7,,,67,127
73201,note_off,0,0,0,,7,,,55,127
73203,note_on,2,0,0,,12,,,47,127
73203,note_on,0,0,0,,12,,,83,127
73347,note_off,144,0,0,,12,,,83,127
73347,note_off,0,0,0,,12,,,47,127
73349,note_on,2,0,0,,0,,,48,127
73349,note_on,0,0,0,,12,,,83,127
73395,note_off,46,0,0,,12,,,83,127
73397,note_on,2,0,0,,10,,,81,127
73444,note_off,47,0,0,,10,,,81,127
73446,note_on,2,0,0,,12,,,83,127
73493,note_off,47,0,0,,12,,,83,127
73495,note_on,2,0,0,,10,,,81,127
73639,note_off,144,0,0,,0,,,48,127
73641,note_on,2,0,0,,2,,,50,127
73785,note_off,144,0,0,,2,,,50,127
73785,note_off,0,0,0,,10,,,81,127
73787,note_on,2,0,0,,7,,,43,127
73787,note_on,0,0,0,,7,,,79,127
73931,note_off,144,0,0,,7,,,79,127
73933,note_on,2,0,0,,2,,,74,127
74077,note_off,144,0,0,,2,,,74,127
74079,note_on,2,0,0,,12,,,71,127
74223,note_off,144,0,0,,12,,,71,127
74225,note_on,2,0,0,,7,,,67,127
74369,note_off,144,0,0,,7,,,67,127
74371,note_on,2,0,0,,2,,,62,127
74515,note_off,144,0,0,,2,,,62,127
74522,note_on,7,0,0,,12,,,59,127
74663,note_off,141,0,0,,7,,,43,127
74684,note_off,21,0,0,,12,,,59,127
74709,note_on,25,0,0,,7,,,43,127
76423,note_off,1714,0,0,,7,,,43,127
81408,end_of_track,4985,1,0,,,,,,
