tick,type,time,meta,track,program,channel,pitch,tempo,note,velocity
0,copyright,0,1,0,,,,,,
0,program_change,0,0,0,6,0,,,,
0,pitchwheel,0,0,0,,0,0,,,
0,program_change,0,0,0,6,1,,,,
0,pitchwheel,0,0,0,,1,-590,,,
0,program_change,0,0,0,6,2,,,,
0,pitchwheel,0,0,0,,2,-272,,,
0,program_change,0,0,0,6,3,,,,
0,pitchwheel,0,0,0,,3,-353,,,
0,program_change,0,0,0,6,4,,,,
0,pitchwheel,0,0,0,,4,-560,,,
0,program_change,0,0,0,6,5,,,,
0,pitchwheel,0,0,0,,5,-80,,,
0,program_change,0,0,0,6,6,,,,
0,pitchwheel,0,0,0,,6,-625,,,
0,program_change,0,0,0,6,7,,,,
0,pitchwheel,0,0,0,,7,-130,,,
0,program_change,0,0,0,6,8,,,,
0,pitchwheel,0,0,0,,8,-512,,,
0,program_change,0,0,0,6,10,,,,
0,pitchwheel,0,0,0,,10,-464,,,
0,program_change,0,0,0,6,11,,,,
0,pitchwheel,0,0,0,,11,-208,,,
0,program_change,0,0,0,6,12,,,,
0,pitchwheel,0,0,0,,12,-553,,,
0,set_tempo,0,1,0,,,,500000,,
115,note_on,115,0,0,,12,,,83,127
115,note_on,0,0,0,,7,,,79,127
345,note_on,230,0,0,,7,,,67,127
345,note_on,0,0,0,,4,,,64,127
574,note_off,229,0,0,,4,,,64,127
574,note_off,0,0,0,,7,,,67,127
574,note_off,0,0,0,,7,,,79,127
574,note_off,0,0,0,,12,,,83,127
575,note_on,1,0,0,,10,,,69,127
575,note_on,0,0,0,,6,,,66,127
805,note_on,230,0,0,,7,,,79,127
805,note_on,0,0,0,,12,,,83,127
920,note_off,115,0,0,,6,,,66,127
920,note_off,0,0,0,,10,,,69,127
1035,note_on,115,0,0,,12,,,71,127
1035,note_on,0,0,0,,7,,,67,127
1264,note_off,229,0,0,,7,,,67,127
1264,note_off,0,0,0,,12,,,71,127
1264,note_off,0,0,0,,12,,,83,127
1264,note_off,0,0,0,,7,,,79,127
1265,note_on,1,0,0,,1,,,73,127
1265,note_on,0,0,0,,10,,,69,127
1494,note_off,229,0,0,,10,,,69,127
1494,note_off,0,0,0,,1,,,73,127
1495,note_on,1,0,0,,12,,,59,127
1495,note_on,0,0,0,,12,,,71,127
1495,note_on,0,0,0,,3,,,75,127
1610,note_on,115,0,0,,6,,,78,127
1627,note_off,17,0,0,,3,,,75,127
1724,note_off,97,0,0,,12,,,71,127
1724,note_off,0,0,0,,12,,,59,127
1725,note_on,1,0,0,,1,,,61,127
1725,note_on,0,0,0,,10,,,69,127
1742,note_off,17,0,0,,6,,,78,127
1840,note_on,98,0,0,,4,,,76,127
1857,note_off,17,0,0,,10,,,69,127
1954,note_off,97,0,0,,1,,,61,127
1955,note_on,1,0,0,,3,,,63,127
1955,note_on,0,0,0,,12,,,71,127
1972,note_off,17,0,0,,4,,,76,127
2070,note_on,98,0,0,,6,,,78,127
2087,note_off,17,0,0,,12,,,71,127
2184,note_off,97,0,0,,3,,,63,127
2185,note_on,1,0,0,,4,,,64,127
2185,note_on,0,0,0,,10,,,81,127
2202,note_off,17,0,0,,6,,,78,127
2242,note_off,40,0,0,,10,,,81,127
2243,note_on,1,0,0,,7,,,79,127
2299,note_off,56,0,0,,7,,,79,127
2300,note_on,1,0,0,,10,,,81,127
2356,note_off,56,0,0,,10,,,81,127
2357,note_on,1,0,0,,7,,,79,127
2413,note_off,56,0,0,,7,,,79,127
2413,note_off,0,0,0,,4,,,64,127
2414,note_on,1,0,0,,12,,,59,127
2414,note_on,0,0,0,,6,,,78,127
2529,note_on,115,0,0,,7,,,79,127
2546,note_off,17,0,0,,6,,,78,127
2643,note_off,97,0,0,,12,,,59,127
2644,note_on,1,0,0,,4,,,52,127
2644,note_on,0,0,0,,4,,,76,127
2661,note_off,17,0,0,,7,,,79,127
2817,note_off,156,0,0,,4,,,76,127
2864,note_off,47,0,0,,4,,,52,127
2875,note_on,11,0,0,,12,,,83,127
2875,note_on,0,0,0,,7,,,79,127
3105,note_on,230,0,0,,4,,,64,127
3105,note_on,0,0,0,,7,,,67,127
3220,note_off,115,0,0,,7,,,79,127
3220,note_off,0,0,0,,12,,,83,127
3334,note_off,114,0,0,,7,,,67,127
3334,note_off,0,0,0,,4,,,64,127
3335,note_on,1,0,0,,6,,,66,127
3335,note_on,0,0,0,,10,,,69,127
3565,note_on,230,0,0,,12,,,83,127
3565,note_on,0,0,0,,7,,,79,127
3680,note_off,115,0,0,,10,,,69,127
3680,note_off,0,0,0,,6,,,66,127
3795,note_on,115,0,0,,7,,,67,127
3795,note_on,0,0,0,,12,,,71,127
3910,note_off,115,0,0,,7,,,79,127
3910,note_off,0,0,0,,12,,,83,127
4024,note_off,114,0,0,,12,,,71,127
4024,note_off,0,0,0,,7,,,67,127
4025,note_on,1,0,0,,1,,,73,127
4025,note_on,0,0,0,,10,,,69,127
4254,note_off,229,0,0,,10,,,69,127
4254,note_off,0,0,0,,1,,,73,127
4255,note_on,1,0,0,,12,,,71,127
4255,note_on,0,0,0,,3,,,75,127
4370,note_on,115,0,0,,6,,,78,127
4387,note_off,17,0,0,,3,,,75,127
4484,note_off,97,0,0,,12,,,71,127
4485,note_on,1,0,0,,3,,,63,127
4485,note_on,0,0,0,,12,,,71,127
4502,note_off,17,0,0,,6,,,78,127
4600,note_on,98,0,0,,10,,,81,127
4617,note_off,17,0,0,,12,,,71,127
4714,note_off,97,0,0,,3,,,63,127
4715,note_on,1,0,0,,4,,,64,127
4715,note_on,0,0,0,,12,,,71,127
4732,note_off,17,0,0,,10,,,81,127
4830,note_on,98,0,0,,4,,,76,127
4830,note_on,0,0,0,,7,,,79,127
4847,note_off,17,0,0,,12,,,71,127
4943,note_off,96,0,0,,7,,,79,127
4943,note_off,0,0,0,,4,,,76,127
4944,note_off,1,0,0,,4,,,64,127
4945,note_on,1,0,0,,12,,,59,127
4945,note_on,0,0,0,,7,,,79,127
4945,note_on,0,0,0,,4,,,76,127
5174,note_off,229,0,0,,4,,,76,127
5174,note_off,0,0,0,,7,,,79,127
5175,note_on,1,0,0,,7,,,79,127
5175,note_on,0,0,0,,3,,,75,127
5231,note_off,56,0,0,,7,,,79,127
5232,note_on,1,0,0,,6,,,78,127
5288,note_off,56,0,0,,6,,,78,127
5289,note_on,1,0,0,,7,,,79,127
5345,note_off,56,0,0,,7,,,79,127
5346,note_on,1,0,0,,6,,,78,127
5519,note_off,173,0,0,,3,,,75,127
5610,note_off,91,0,0,,6,,,78,127
5633,note_off,23,0,0,,12,,,59,127
5634,note_on,1,0,0,,12,,,71,127
5634,note_on,0,0,0,,7,,,79,127
5749,note_on,115,0,0,,2,,,74,127
5766,note_off,17,0,0,,12,,,71,127
5863,note_off,97,0,0,,7,,,79,127
5864,note_on,1,0,0,,0,,,72,127
5864,note_on,0,0,0,,10,,,81,127
5881,note_off,17,0,0,,2,,,74,127
5979,note_on,98,0,0,,4,,,76,127
5996,note_off,17,0,0,,0,,,72,127
6093,note_off,97,0,0,,10,,,81,127
6094,note_on,1,0,0,,2,,,74,127
6094,note_on,0,0,0,,6,,,78,127
6111,note_off,17,0,0,,4,,,76,127
6209,note_on,98,0,0,,0,,,72,127
6226,note_off,17,0,0,,2,,,74,127
6323,note_off,97,0,0,,6,,,78,127
6324,note_on,1,0,0,,12,,,71,127
6324,note_on,0,0,0,,7,,,79,127
6341,note_off,17,0,0,,0,,,72,127
6439,note_on,98,0,0,,2,,,74,127
6456,note_off,17,0,0,,12,,,71,127
6553,note_off,97,0,0,,7,,,79,127
6554,note_on,1,0,0,,0,,,72,127
6554,note_on,0,0,0,,10,,,81,127
6571,note_off,17,0,0,,2,,,74,127
6669,note_on,98,0,0,,4,,,76,127
6686,note_off,17,0,0,,0,,,72,127
6783,note_off,97,0,0,,10,,,81,127
6784,note_on,1,0,0,,2,,,74,127
6784,note_on,0,0,0,,6,,,78,127
6801,note_off,17,0,0,,4,,,76,127
6899,note_on,98,0,0,,0,,,72,127
6916,note_off,17,0,0,,2,,,74,127
7013,note_off,97,0,0,,6,,,78,127
7014,note_on,1,0,0,,12,,,71,127
7014,note_on,0,0,0,,7,,,79,127
7031,note_off,17,0,0,,0,,,72,127
7129,note_on,98,0,0,,2,,,74,127
7146,note_off,17,0,0,,12,,,71,127
7243,note_off,97,0,0,,7,,,79,127
7244,note_on,1,0,0,,0,,,72,127
7244,note_on,0,0,0,,10,,,81,127
7261,note_off,17,0,0,,2,,,74,127
7359,note_on,98,0,0,,4,,,76,127
7376,note_off,17,0,0,,0,,,72,127
7473,note_off,97,0,0,,10,,,81,127
7474,note_on,1,0,0,,2,,,74,127
7474,note_on,0,0,0,,6,,,78,127
7491,note_off,17,0,0,,4,,,76,127
7589,note_on,98,0,0,,0,,,72,127
7606,note_off,17,0,0,,2,,,74,127
7703,note_off,97,0,0,,6,,,78,127
7704,note_on,1,0,0,,12,,,71,127
7704,note_on,0,0,0,,7,,,79,127
7721,note_off,17,0,0,,0,,,72,127
7819,note_on,98,0,0,,0,,,72,127
7836,note_off,17,0,0,,12,,,71,127
7933,note_off,97,0,0,,7,,,79,127
7934,note_on,1,0,0,,10,,,69,127
7934,note_on,0,0,0,,6,,,78,127
7951,note_off,17,0,0,,0,,,72,127
8049,note_on,98,0,0,,12,,,71,127
8066,note_off,17,0,0,,10,,,69,127
8163,note_off,97,0,0,,6,,,78,127
8164,note_on,1,0,0,,7,,,67,127
8164,note_on,0,0,0,,4,,,76,127
8181,note_off,17,0,0,,12,,,71,127
8279,note_on,98,0,0,,10,,,69,127
8296,note_off,17,0,0,,7,,,67,127
8393,note_off,97,0,0,,4,,,76,127
8394,note_on,1,0,0,,6,,,66,127
8394,note_on,0,0,0,,2,,,74,127
8411,note_off,17,0,0,,10,,,69,127
8509,note_on,98,0,0,,10,,,69,127
8526,note_off,17,0,0,,6,,,66,127
8623,note_off,97,0,0,,2,,,74,127
8624,note_on,1,0,0,,7,,,67,127
8624,note_on,0,0,0,,4,,,76,127
8641,note_off,17,0,0,,10,,,69,127
8739,note_on,98,0,0,,12,,,71,127
8756,note_off,17,0,0,,7,,,67,127
8853,note_off,97,0,0,,4,,,76,127
8854,note_on,1,0,0,,10,,,69,127
8854,note_on,0,0,0,,1,,,73,127
8871,note_off,17,0,0,,12,,,71,127
8969,note_on,98,0,0,,7,,,67,127
8986,note_off,17,0,0,,10,,,69,127
9083,note_off,97,0,0,,1,,,73,127
9084,note_on,1,0,0,,6,,,66,127
9084,note_on,0,0,0,,2,,,74,127
9101,note_off,17,0,0,,7,,,67,127
9199,note_on,98,0,0,,10,,,69,127
9216,note_off,17,0,0,,6,,,66,127
9313,note_off,97,0,0,,2,,,74,127
9314,note_on,1,0,0,,7,,,67,127
9314,note_on,0,0,0,,4,,,76,127
9331,note_off,17,0,0,,10,,,69,127
9429,note_on,98,0,0,,12,,,71,127
9446,note_off,17,0,0,,7,,,67,127
9543,note_off,97,0,0,,4,,,76,127
9544,note_on,1,0,0,,10,,,69,127
9544,note_on,0,0,0,,1,,,73,127
9561,note_off,17,0,0,,12,,,71,127
9659,note_on,98,0,0,,7,,,67,127
9676,note_off,17,0,0,,10,,,69,127
9773,note_off,97,0,0,,1,,,73,127
9774,note_on,1,0,0,,6,,,66,127
9774,note_on,0,0,0,,2,,,74,127
9791,note_off,17,0,0,,7,,,67,127
9889,note_on,98,0,0,,10,,,69,127
9906,note_off,17,0,0,,6,,,66,127
10003,note_off,97,0,0,,2,,,74,127
10004,note_on,1,0,0,,7,,,67,127
10004,note_on,0,0,0,,4,,,76,127
10021,note_off,17,0,0,,10,,,69,127
10119,note_on,98,0,0,,12,,,71,127
10136,note_off,17,0,0,,7,,,67,127
10233,note_off,97,0,0,,4,,,76,127
10234,note_on,1,0,0,,10,,,69,127
10234,note_on,0,0,0,,1,,,73,127
10251,note_off,17,0,0,,12,,,71,127
10349,note_on,98,0,0,,7,,,67,127
10366,note_off,17,0,0,,10,,,69,127
10463,note_off,97,0,0,,1,,,73,127
10464,note_on,1,0,0,,6,,,66,127
10464,note_on,0,0,0,,2,,,74,127
10481,note_off,17,0,0,,7,,,67,127
10579,note_on,98,0,0,,2,,,62,127
10596,note_off,17,0,0,,6,,,66,127
10693,note_off,97,0,0,,2,,,74,127
10694,note_on,1,0,0,,4,,,64,127
10694,note_on,0,0,0,,0,,,72,127
10711,note_off,17,0,0,,2,,,62,127
10809,note_on,98,0,0,,6,,,66,127
10826,note_off,17,0,0,,4,,,64,127
10923,note_off,97,0,0,,0,,,72,127
10924,note_on,1,0,0,,7,,,67,127
10924,note_on,0,0,0,,12,,,71,127
10941,note_off,17,0,0,,6,,,66,127
11039,note_on,98,0,0,,6,,,66,127
11056,note_off,17,0,0,,7,,,67,127
11153,note_off,97,0,0,,12,,,71,127
11154,note_on,1,0,0,,4,,,64,127
11154,note_on,0,0,0,,0,,,72,127
11171,note_off,17,0,0,,6,,,66,127
11269,note_on,98,0,0,,0,,,60,127
11286,note_off,17,0,0,,4,,,64,127
11383,note_off,97,0,0,,0,,,72,127
11384,note_on,1,0,0,,6,,,66,127
11384,note_on,0,0,0,,2,,,74,127
11401,note_off,17,0,0,,0,,,60,127
11499,note_on,98,0,0,,2,,,62,127
11516,note_off,17,0,0,,6,,,66,127
11613,note_off,97,0,0,,2,,,74,127
11614,note_on,1,0,0,,7,,,67,127
11614,note_on,0,0,0,,4,,,76,127
11631,note_off,17,0,0,,2,,,62,127
11729,note_on,98,0,0,,4,,,64,127
11746,note_off,17,0,0,,7,,,67,127
11843,note_off,97,0,0,,4,,,76,127
11844,note_on,1,0,0,,6,,,66,127
11844,note_on,0,0,0,,2,,,74,127
11861,note_off,17,0,0,,4,,,64,127
11959,note_on,98,0,0,,2,,,62,127
11976,note_off,17,0,0,,6,,,66,127
12073,note_off,97,0,0,,2,,,74,127
12074,note_on,1,0,0,,4,,,64,127
12074,note_on,0,0,0,,0,,,72,127
12091,note_off,17,0,0,,2,,,62,127
12189,note_on,98,0,0,,6,,,66,127
12206,note_off,17,0,0,,4,,,64,127
12303,note_off,97,0,0,,0,,,72,127
12304,note_on,1,0,0,,7,,,67,127
12304,note_on,0,0,0,,12,,,71,127
12321,note_off,17,0,0,,6,,,66,127
12419,note_on,98,0,0,,6,,,66,127
12436,note_off,17,0,0,,7,,,67,127
12533,note_off,97,0,0,,12,,,71,127
12534,note_on,1,0,0,,4,,,64,127
12534,note_on,0,0,0,,0,,,72,127
12551,note_off,17,0,0,,6,,,66,127
12649,note_on,98,0,0,,0,,,60,127
12690,note_off,41,0,0,,4,,,64,127
12763,note_off,73,0,0,,0,,,72,127
12764,note_on,1,0,0,,6,,,66,127
12764,note_on,0,0,0,,2,,,74,127
12805,note_off,41,0,0,,0,,,60,127
12879,note_on,74,0,0,,2,,,62,127
12920,note_off,41,0,0,,6,,,66,127
12993,note_off,73,0,0,,2,,,74,127
12994,note_on,1,0,0,,7,,,67,127
12994,note_on,0,0,0,,4,,,76,127
13035,note_off,41,0,0,,2,,,62,127
13109,note_on,74,0,0,,4,,,64,127
13162,note_off,53,0,0,,7,,,67,127
13223,note_off,61,0,0,,4,,,76,127
13224,note_on,1,0,0,,6,,,66,127
13224,note_on,0,0,0,,2,,,74,127
13277,note_off,53,0,0,,4,,,64,127
13339,note_on,62,0,0,,2,,,62,127
13404,note_off,65,0,0,,6,,,66,127
13453,note_off,49,0,0,,2,,,74,127
13454,note_on,1,0,0,,7,,,67,127
13454,note_on,0,0,0,,4,,,76,127
13519,note_off,65,0,0,,2,,,62,127
13569,note_on,50,0,0,,2,,,62,127
13646,note_off,77,0,0,,7,,,67,127
13683,note_off,37,0,0,,4,,,76,127
13684,note_on,1,0,0,,10,,,69,127
13684,note_on,0,0,0,,6,,,78,127
13761,note_off,77,0,0,,2,,,62,127
13799,note_on,38,0,0,,2,,,62,127
13876,note_off,77,0,0,,10,,,69,127
13913,note_off,37,0,0,,6,,,78,127
13914,note_on,1,0,0,,12,,,71,127
13914,note_on,0,0,0,,2,,,74,127
13914,note_on,0,0,0,,7,,,79,127
13991,note_off,77,0,0,,2,,,62,127
14029,note_on,38,0,0,,2,,,62,127
14046,note_off,17,0,0,,12,,,71,127
14143,note_off,97,0,0,,7,,,79,127
14144,note_on,1,0,0,,10,,,69,127
14144,note_on,0,0,0,,6,,,78,127
14258,note_off,114,0,0,,2,,,62,127
14259,note_on,1,0,0,,2,,,62,127
14276,note_off,17,0,0,,10,,,69,127
14373,note_off,97,0,0,,6,,,78,127
14374,note_on,1,0,0,,12,,,71,127
14374,note_on,0,0,0,,7,,,79,127
14488,note_off,114,0,0,,2,,,62,127
14489,note_on,1,0,0,,2,,,62,127
14506,note_off,17,0,0,,12,,,71,127
14603,note_off,97,0,0,,7,,,79,127
14603,note_off,0,0,0,,2,,,74,127
14604,note_on,1,0,0,,10,,,69,127
14604,note_on,0,0,0,,6,,,78,127
14604,note_on,0,0,0,,2,,,74,127
14718,note_off,114,0,0,,2,,,62,127
14719,note_on,1,0,0,,2,,,62,127
14736,note_off,17,0,0,,10,,,69,127
14833,note_off,97,0,0,,6,,,78,127
14834,note_on,1,0,0,,7,,,67,127
14834,note_on,0,0,0,,7,,,79,127
14948,note_off,114,0,0,,2,,,62,127
14949,note_on,1,0,0,,2,,,62,127
14966,note_off,17,0,0,,7,,,67,127
15063,note_off,97,0,0,,7,,,79,127
15064,note_on,1,0,0,,6,,,66,127
15064,note_on,0,0,0,,10,,,81,127
15178,note_off,114,0,0,,2,,,62,127
15179,note_on,1,0,0,,2,,,62,127
15196,note_off,17,0,0,,6,,,66,127
15293,note_off,97,0,0,,10,,,81,127
15293,note_off,0,0,0,,2,,,74,127
15294,note_on,1,0,0,,7,,,67,127
15294,note_on,0,0,0,,12,,,83,127
15294,note_on,0,0,0,,2,,,74,127
15408,note_off,114,0,0,,2,,,62,127
15409,note_on,1,0,0,,2,,,62,127
15426,note_off,17,0,0,,7,,,67,127
15523,note_off,97,0,0,,12,,,83,127
15524,note_on,1,0,0,,6,,,66,127
15524,note_on,0,0,0,,10,,,81,127
15638,note_off,114,0,0,,2,,,62,127
15639,note_on,1,0,0,,2,,,62,127
15656,note_off,17,0,0,,6,,,66,127
15753,note_off,97,0,0,,10,,,81,127
15754,note_on,1,0,0,,7,,,67,127
15754,note_on,0,0,0,,12,,,83,127
15868,note_off,114,0,0,,2,,,62,127
15869,note_on,1,0,0,,2,,,62,127
15886,note_off,17,0,0,,7,,,67,127
15983,note_off,97,0,0,,12,,,83,127
15983,note_off,0,0,0,,2,,,74,127
15984,note_on,1,0,0,,6,,,66,127
15984,note_on,0,0,0,,10,,,81,127
15984,note_on,0,0,0,,2,,,74,127
16098,note_off,114,0,0,,2,,,62,127
16099,note_on,1,0,0,,2,,,62,127
16116,note_off,17,0,0,,6,,,66,127
16213,note_off,97,0,0,,10,,,81,127
16214,note_on,1,0,0,,7,,,67,127
16214,note_on,0,0,0,,7,,,79,127
16328,note_off,114,0,0,,2,,,62,127
16329,note_on,1,0,0,,2,,,62,127
16346,note_off,17,0,0,,7,,,67,127
16443,note_off,97,0,0,,7,,,79,127
16444,note_on,1,0,0,,10,,,69,127
16444,note_on,0,0,0,,6,,,78,127
16558,note_off,114,0,0,,2,,,62,127
16559,note_on,1,0,0,,2,,,62,127
16576,note_off,17,0,0,,10,,,69,127
16673,note_off,97,0,0,,6,,,78,127
16673,note_off,0,0,0,,2,,,74,127
16674,note_on,1,0,0,,12,,,71,127
16674,note_on,0,0,0,,2,,,74,127
16674,note_on,0,0,0,,7,,,79,127
16788,note_off,114,0,0,,2,,,62,127
16789,note_on,1,0,0,,2,,,62,127
16806,note_off,17,0,0,,12,,,71,127
16903,note_off,97,0,0,,7,,,79,127
16904,note_on,1,0,0,,10,,,69,127
16904,note_on,0,0,0,,6,,,78,127
17018,note_off,114,0,0,,2,,,62,127
17019,note_on,1,0,0,,2,,,62,127
17036,note_off,17,0,0,,10,,,69,127
17133,note_off,97,0,0,,6,,,78,127
17134,note_on,1,0,0,,12,,,71,127
17134,note_on,0,0,0,,7,,,79,127
17248,note_off,114,0,0,,2,,,62,127
17249,note_on,1,0,0,,2,,,62,127
17266,note_off,17,0,0,,12,,,71,127
17363,note_off,97,0,0,,7,,,79,127
17363,note_off,0,0,0,,2,,,74,127
17364,note_on,1,0,0,,10,,,69,127
17364,note_on,0,0,0,,6,,,78,127
17364,note_on,0,0,0,,2,,,74,127
17478,note_off,114,0,0,,2,,,62,127
17479,note_on,1,0,0,,2,,,62,127
17496,note_off,17,0,0,,10,,,69,127
17593,note_off,97,0,0,,6,,,78,127
17594,note_on,1,0,0,,7,,,67,127
17594,note_on,0,0,0,,7,,,79,127
17708,note_off,114,0,0,,2,,,62,127
17709,note_on,1,0,0,,2,,,62,127
17726,note_off,17,0,0,,7,,,67,127
17823,note_off,97,0,0,,7,,,79,127
17824,note_on,1,0,0,,6,,,66,127
17824,note_on,0,0,0,,10,,,81,127
17938,note_off,114,0,0,,2,,,62,127
17939,note_on,1,0,0,,2,,,62,127
17956,note_off,17,0,0,,6,,,66,127
18053,note_off,97,0,0,,10,,,81,127
18053,note_off,0,0,0,,2,,,74,127
18054,note_on,1,0,0,,7,,,67,127
18054,note_on,0,0,0,,12,,,83,127
18054,note_on,0,0,0,,2,,,74,127
18168,note_off,114,0,0,,2,,,62,127
18169,note_on,1,0,0,,2,,,62,127
18186,note_off,17,0,0,,7,,,67,127
18283,note_off,97,0,0,,12,,,83,127
18284,note_on,1,0,0,,6,,,66,127
18284,note_on,0,0,0,,10,,,81,127
18398,note_off,114,0,0,,2,,,62,127
18399,note_on,1,0,0,,2,,,62,127
18416,note_off,17,0,0,,6,,,66,127
18513,note_off,97,0,0,,10,,,81,127
18514,note_on,1,0,0,,7,,,67,127
18514,note_on,0,0,0,,12,,,83,127
18628,note_off,114,0,0,,2,,,62,127
18629,note_on,1,0,0,,2,,,62,127
18646,note_off,17,0,0,,7,,,67,127
18743,note_off,97,0,0,,12,,,83,127
18743,note_off,0,0,0,,2,,,74,127
18744,note_on,1,0,0,,2,,,74,127
18859,note_on,115,0,0,,6,,,78,127
18876,note_off,17,0,0,,2,,,74,127
18974,note_on,98,0,0,,2,,,74,127
18974,note_on,0,0,0,,4,,,76,127
18991,note_off,17,0,0,,6,,,78,127
19089,note_on,98,0,0,,7,,,79,127
19106,note_off,17,0,0,,4,,,76,127
19195,note_off,89,0,0,,2,,,62,127
19205,note_on,10,0,0,,2,,,62,127
19205,note_on,0,0,0,,6,,,78,127
19222,note_off,17,0,0,,7,,,79,127
19320,note_on,98,0,0,,10,,,81,127
19337,note_off,17,0,0,,6,,,78,127
19434,note_off,97,0,0,,2,,,62,127
19435,note_on,1,0,0,,2,,,62,127
19435,note_on,0,0,0,,7,,,79,127
19452,note_off,17,0,0,,10,,,81,127
19550,note_on,98,0,0,,12,,,83,127
19567,note_off,17,0,0,,7,,,79,127
19664,note_off,97,0,0,,2,,,74,127
19665,note_on,1,0,0,,2,,,74,127
19665,note_on,0,0,0,,6,,,78,127
19682,note_off,17,0,0,,12,,,83,127
19780,note_on,98,0,0,,10,,,81,127
19797,note_off,17,0,0,,6,,,78,127
19894,note_off,97,0,0,,2,,,62,127
19895,note_on,1,0,0,,2,,,62,127
19895,note_on,0,0,0,,4,,,76,127
19912,note_off,17,0,0,,10,,,81,127
20010,note_on,98,0,0,,7,,,79,127
20027,note_off,17,0,0,,4,,,76,127
20124,note_off,97,0,0,,2,,,62,127
20124,note_off,0,0,0,,2,,,74,127
20125,note_on,1,0,0,,2,,,62,127
20125,note_on,0,0,0,,2,,,74,127
20142,note_off,17,0,0,,7,,,79,127
20240,note_on,98,0,0,,6,,,78,127
20257,note_off,17,0,0,,2,,,74,127
20355,note_on,98,0,0,,2,,,74,127
20355,note_on,0,0,0,,4,,,76,127
20372,note_off,17,0,0,,6,,,78,127
20470,note_on,98,0,0,,7,,,79,127
20487,note_off,17,0,0,,4,,,76,127
20584,note_off,97,0,0,,2,,,62,127
20585,note_on,1,0,0,,2,,,62,127
20585,note_on,0,0,0,,6,,,78,127
20602,note_off,17,0,0,,7,,,79,127
20700,note_on,98,0,0,,10,,,81,127
20717,note_off,17,0,0,,6,,,78,127
20814,note_off,97,0,0,,2,,,62,127
20815,note_on,1,0,0,,2,,,62,127
20815,note_on,0,0,0,,7,,,79,127
20832,note_off,17,0,0,,10,,,81,127
20930,note_on,98,0,0,,12,,,83,127
20947,note_off,17,0,0,,7,,,79,127
21044,note_off,97,0,0,,2,,,74,127
21045,note_on,1,0,0,,2,,,74,127
21045,note_on,0,0,0,,6,,,78,127
21062,note_off,17,0,0,,12,,,83,127
21160,note_on,98,0,0,,10,,,81,127
21177,note_off,17,0,0,,6,,,78,127
21274,note_off,97,0,0,,2,,,62,127
21275,note_on,1,0,0,,2,,,62,127
21275,note_on,0,0,0,,4,,,76,127
21292,note_off,17,0,0,,10,,,81,127
21390,note_on,98,0,0,,7,,,79,127
21407,note_off,17,0,0,,4,,,76,127
21503,note_off,96,0,0,,2,,,74,127
21504,note_off,1,0,0,,2,,,62,127
21505,note_on,1,0,0,,2,,,62,127
21505,note_on,0,0,0,,2,,,74,127
21522,note_off,17,0,0,,7,,,79,127
21620,note_on,98,0,0,,6,,,78,127
21637,note_off,17,0,0,,2,,,74,127
21735,note_on,98,0,0,,0,,,72,127
21752,note_off,17,0,0,,6,,,78,127
21850,note_on,98,0,0,,4,,,76,127
21867,note_off,17,0,0,,0,,,72,127
21965,note_on,98,0,0,,12,,,71,127
21982,note_off,17,0,0,,4,,,76,127
22080,note_on,98,0,0,,2,,,74,127
22097,note_off,17,0,0,,12,,,71,127
22195,note_on,98,0,0,,2,,,50,127
22195,note_on,0,0,0,,0,,,72,127
22212,note_off,17,0,0,,2,,,74,127
22310,note_on,98,0,0,,4,,,76,127
22327,note_off,17,0,0,,0,,,72,127
22424,note_off,97,0,0,,2,,,62,127
22425,note_on,1,0,0,,2,,,62,127
22425,note_on,0,0,0,,12,,,71,127
22442,note_off,17,0,0,,4,,,76,127
22540,note_on,98,0,0,,2,,,74,127
22557,note_off,17,0,0,,12,,,71,127
22654,note_off,97,0,0,,2,,,50,127
22655,note_on,1,0,0,,2,,,50,127
22655,note_on,0,0,0,,10,,,69,127
22672,note_off,17,0,0,,2,,,74,127
22770,note_on,98,0,0,,0,,,72,127
22787,note_off,17,0,0,,10,,,69,127
22884,note_off,97,0,0,,2,,,50,127
22885,note_on,1,0,0,,2,,,50,127
22885,note_on,0,0,0,,12,,,71,127
22902,note_off,17,0,0,,0,,,72,127
23000,note_on,98,0,0,,2,,,74,127
23017,note_off,17,0,0,,12,,,71,127
23114,note_off,97,0,0,,2,,,62,127
23115,note_on,1,0,0,,2,,,62,127
23115,note_on,0,0,0,,10,,,69,127
23132,note_off,17,0,0,,2,,,74,127
23230,note_on,98,0,0,,0,,,72,127
23247,note_off,17,0,0,,10,,,69,127
23344,note_off,97,0,0,,2,,,50,127
23345,note_on,1,0,0,,2,,,50,127
23345,note_on,0,0,0,,7,,,67,127
23362,note_off,17,0,0,,0,,,72,127
23460,note_on,98,0,0,,12,,,71,127
23477,note_off,17,0,0,,7,,,67,127
23574,note_off,97,0,0,,2,,,50,127
23575,note_on,1,0,0,,2,,,50,127
23575,note_on,0,0,0,,10,,,69,127
23592,note_off,17,0,0,,12,,,71,127
23690,note_on,98,0,0,,0,,,72,127
23707,note_off,17,0,0,,10,,,69,127
23804,note_off,97,0,0,,2,,,62,127
23805,note_on,1,0,0,,2,,,62,127
23805,note_on,0,0,0,,7,,,67,127
23822,note_off,17,0,0,,0,,,72,127
23920,note_on,98,0,0,,12,,,71,127
23937,note_off,17,0,0,,7,,,67,127
24034,note_off,97,0,0,,2,,,50,127
24035,note_on,1,0,0,,2,,,50,127
24035,note_on,0,0,0,,6,,,66,127
24052,note_off,17,0,0,,12,,,71,127
24150,note_on,98,0,0,,10,,,69,127
24167,note_off,17,0,0,,6,,,66,127
24264,note_off,97,0,0,,2,,,50,127
24265,note_on,1,0,0,,2,,,50,127
24265,note_on,0,0,0,,7,,,67,127
24282,note_off,17,0,0,,10,,,69,127
24380,note_on,98,0,0,,12,,,71,127
24397,note_off,17,0,0,,7,,,67,127
24494,note_off,97,0,0,,2,,,62,127
24495,note_on,1,0,0,,2,,,62,127
24495,note_on,0,0,0,,10,,,69,127
24512,note_off,17,0,0,,12,,,71,127
24610,note_on,98,0,0,,0,,,72,127
24627,note_off,17,0,0,,10,,,69,127
24724,note_off,97,0,0,,2,,,50,127
24725,note_on,1,0,0,,2,,,50,127
24725,note_on,0,0,0,,12,,,71,127
24742,note_off,17,0,0,,0,,,72,127
24840,note_on,98,0,0,,2,,,74,127
24857,note_off,17,0,0,,12,,,71,127
24954,note_off,97,0,0,,2,,,50,127
24955,note_on,1,0,0,,2,,,50,127
24955,note_on,0,0,0,,10,,,69,127
24972,note_off,17,0,0,,2,,,74,127
25070,note_on,98,0,0,,0,,,72,127
25087,note_off,17,0,0,,10,,,69,127
25184,note_off,97,0,0,,2,,,62,127
25185,note_on,1,0,0,,2,,,62,127
25185,note_on,0,0,0,,7,,,67,127
25202,note_off,17,0,0,,0,,,72,127
25300,note_on,98,0,0,,12,,,71,127
25317,note_off,17,0,0,,7,,,67,127
25414,note_off,97,0,0,,2,,,50,127
25415,note_on,1,0,0,,2,,,50,127
25415,note_on,0,0,0,,6,,,66,127
25432,note_off,17,0,0,,12,,,71,127
25530,note_on,98,0,0,,10,,,69,127
25547,note_off,17,0,0,,6,,,66,127
25644,note_off,97,0,0,,2,,,50,127
25645,note_on,1,0,0,,2,,,50,127
25645,note_on,0,0,0,,7,,,67,127
25662,note_off,17,0,0,,10,,,69,127
25760,note_on,98,0,0,,12,,,71,127
25777,note_off,17,0,0,,7,,,67,127
25874,note_off,97,0,0,,2,,,62,127
25875,note_on,1,0,0,,2,,,62,127
25875,note_on,0,0,0,,10,,,69,127
25892,note_off,17,0,0,,12,,,71,127
25990,note_on,98,0,0,,0,,,72,127
26007,note_off,17,0,0,,10,,,69,127
26104,note_off,97,0,0,,2,,,50,127
26105,note_on,1,0,0,,2,,,50,127
26105,note_on,0,0,0,,12,,,71,127
26122,note_off,17,0,0,,0,,,72,127
26220,note_on,98,0,0,,2,,,74,127
26237,note_off,17,0,0,,12,,,71,127
26334,note_off,97,0,0,,2,,,50,127
26335,note_on,1,0,0,,2,,,50,127
26335,note_on,0,0,0,,10,,,69,127
26352,note_off,17,0,0,,2,,,74,127
26450,note_on,98,0,0,,0,,,72,127
26467,note_off,17,0,0,,10,,,69,127
26564,note_off,97,0,0,,2,,,62,127
26565,note_on,1,0,0,,2,,,62,127
26565,note_on,0,0,0,,7,,,67,127
26582,note_off,17,0,0,,0,,,72,127
26680,note_on,98,0,0,,12,,,71,127
26697,note_off,17,0,0,,7,,,67,127
26794,note_off,97,0,0,,2,,,50,127
26795,note_on,1,0,0,,2,,,50,127
26795,note_on,0,0,0,,6,,,66,127
26812,note_off,17,0,0,,12,,,71,127
26910,note_off,98,0,0,,2,,,62,127
26910,note_on,0,0,0,,10,,,69,127
26927,note_off,17,0,0,,6,,,66,127
27024,note_off,97,0,0,,10,,,69,127
27024,note_off,0,0,0,,2,,,50,127
27025,note_on,1,0,0,,7,,,55,127
27025,note_on,0,0,0,,7,,,67,127
27140,note_on,115,0,0,,2,,,50,127
27157,note_off,17,0,0,,7,,,55,127
27254,note_off,97,0,0,,7,,,67,127
27255,note_on,1,0,0,,7,,,55,127
27272,note_off,17,0,0,,2,,,50,127
27370,note_on,98,0,0,,12,,,59,127
27387,note_off,17,0,0,,7,,,55,127
27485,note_on,98,0,0,,2,,,62,127
27502,note_off,17,0,0,,12,,,59,127
27600,note_on,98,0,0,,7,,,55,127
27617,note_off,17,0,0,,2,,,62,127
27715,note_on,98,0,0,,12,,,59,127
27732,note_off,17,0,0,,7,,,55,127
27830,note_on,98,0,0,,2,,,62,127
27847,note_off,17,0,0,,12,,,59,127
27945,note_on,98,0,0,,7,,,67,127
27962,note_off,17,0,0,,2,,,62,127
28060,note_on,98,0,0,,2,,,62,127
28077,note_off,17,0,0,,7,,,67,127
28175,note_on,98,0,0,,7,,,67,127
28192,note_off,17,0,0,,2,,,62,127
28290,note_on,98,0,0,,12,,,71,127
28307,note_off,17,0,0,,7,,,67,127
28405,note_on,98,0,0,,7,,,43,127
28405,note_on,0,0,0,,2,,,74,127
28422,note_off,17,0,0,,12,,,71,127
28520,note_on,98,0,0,,7,,,67,127
28537,note_off,17,0,0,,2,,,74,127
28635,note_on,98,0,0,,12,,,71,127
28652,note_off,17,0,0,,7,,,67,127
28750,note_on,98,0,0,,2,,,74,127
28767,note_off,17,0,0,,12,,,71,127
28865,note_on,98,0,0,,7,,,79,127
28882,note_off,17,0,0,,2,,,74,127
28980,note_on,98,0,0,,2,,,74,127
28997,note_off,17,0,0,,7,,,79,127
29094,note_off,97,0,0,,7,,,43,127
29095,note_on,1,0,0,,0,,,60,127
29095,note_on,0,0,0,,0,,,48,127
29095,note_on,0,0,0,,4,,,76,127
29112,note_off,17,0,0,,2,,,74,127
29210,note_on,98,0,0,,0,,,72,127
29227,note_off,17,0,0,,4,,,76,127
29324,note_off,97,0,0,,0,,,48,127
29324,note_off,0,0,0,,0,,,60,127
29325,note_on,1,0,0,,2,,,50,127
29325,note_on,0,0,0,,2,,,62,127
29325,note_on,0,0,0,,12,,,59,127
29325,note_on,0,0,0,,12,,,71,127
29342,note_off,17,0,0,,0,,,72,127
29440,note_on,98,0,0,,7,,,79,127
29457,note_off,17,0,0,,12,,,71,127
29554,note_off,97,0,0,,12,,,59,127
29554,note_off,0,0,0,,2,,,62,127
29555,note_on,1,0,0,,0,,,60,127
29555,note_on,0,0,0,,10,,,57,127
29555,note_on,0,0,0,,10,,,69,127
29613,note_off,58,0,0,,7,,,79,127
29671,note_on,58,0,0,,6,,,78,127
29688,note_off,17,0,0,,10,,,69,127
29785,note_off,97,0,0,,6,,,78,127
29785,note_off,0,0,0,,10,,,57,127
29785,note_off,0,0,0,,0,,,60,127
29785,note_off,0,0,0,,2,,,50,127
29786,note_on,1,0,0,,7,,,55,127
29786,note_on,0,0,0,,7,,,43,127
29786,note_on,0,0,0,,7,,,79,127
29786,note_on,0,0,0,,12,,,83,127
29901,note_on,115,0,0,,2,,,74,127
30015,note_off,114,0,0,,12,,,83,127
30015,note_off,0,0,0,,7,,,79,127
30015,note_off,0,0,0,,7,,,43,127
30015,note_off,0,0,0,,7,,,55,127
30016,note_on,1,0,0,,12,,,59,127
30016,note_on,0,0,0,,12,,,47,127
30016,note_on,0,0,0,,4,,,76,127
30033,note_off,17,0,0,,2,,,74,127
30131,note_on,98,0,0,,2,,,74,127
30148,note_off,17,0,0,,4,,,76,127
30245,note_off,97,0,0,,12,,,47,127
30245,note_off,0,0,0,,12,,,59,127
30246,note_on,1,0,0,,7,,,43,127
30246,note_on,0,0,0,,7,,,55,127
30246,note_on,0,0,0,,0,,,72,127
30263,note_off,17,0,0,,2,,,74,127
30361,note_on,98,0,0,,12,,,71,127
30378,note_off,17,0,0,,0,,,72,127
30475,note_off,97,0,0,,7,,,55,127
30475,note_off,0,0,0,,7,,,43,127
30476,note_on,1,0,0,,10,,,45,127
30476,note_on,0,0,0,,10,,,57,127
30476,note_on,0,0,0,,6,,,78,127
30476,note_on,0,0,0,,10,,,81,127
30493,note_off,17,0,0,,12,,,71,127
30591,note_on,98,0,0,,0,,,72,127
30680,note_off,89,0,0,,10,,,57,127
30680,note_off,0,0,0,,10,,,45,127
30705,note_off,25,0,0,,10,,,81,127
30705,note_off,0,0,0,,6,,,78,127
30706,note_on,1,0,0,,6,,,42,127
30706,note_on,0,0,0,,6,,,54,127
30706,note_on,0,0,0,,2,,,74,127
30723,note_off,17,0,0,,0,,,72,127
30821,note_on,98,0,0,,0,,,72,127
30838,note_off,17,0,0,,2,,,74,127
30910,note_off,72,0,0,,6,,,54,127
30910,note_off,0,0,0,,6,,,42,127
30936,note_on,26,0,0,,2,,,38,127
30936,note_on,0,0,0,,2,,,50,127
30936,note_on,0,0,0,,12,,,71,127
30953,note_off,17,0,0,,0,,,72,127
31051,note_on,98,0,0,,10,,,69,127
31068,note_off,17,0,0,,12,,,71,127
31140,note_off,72,0,0,,2,,,50,127
31140,note_off,0,0,0,,2,,,38,127
31166,note_on,26,0,0,,7,,,43,127
31166,note_on,0,0,0,,7,,,55,127
31166,note_on,0,0,0,,12,,,83,127
31166,note_on,0,0,0,,7,,,79,127
31183,note_off,17,0,0,,10,,,69,127
31281,note_on,98,0,0,,2,,,74,127
31395,note_off,114,0,0,,7,,,79,127
31395,note_off,0,0,0,,12,,,83,127
31395,note_off,0,0,0,,7,,,55,127
31395,note_off,0,0,0,,7,,,43,127
31396,note_on,1,0,0,,12,,,47,127
31396,note_on,0,0,0,,12,,,59,127
31396,note_on,0,0,0,,4,,,76,127
31413,note_off,17,0,0,,2,,,74,127
31511,note_on,98,0,0,,2,,,74,127
31528,note_off,17,0,0,,4,,,76,127
31625,note_off,97,0,0,,12,,,59,127
31625,note_off,0,0,0,,12,,,47,127
31626,note_on,1,0,0,,7,,,43,127
31626,note_on,0,0,0,,7,,,55,127
31626,note_on,0,0,0,,0,,,72,127
31643,note_off,17,0,0,,2,,,74,127
31741,note_on,98,0,0,,12,,,71,127
31758,note_off,17,0,0,,0,,,72,127
31855,note_off,97,0,0,,7,,,55,127
31855,note_off,0,0,0,,7,,,43,127
31856,note_on,1,0,0,,10,,,57,127
31856,note_on,0,0,0,,10,,,45,127
31856,note_on,0,0,0,,6,,,78,127
31856,note_on,0,0,0,,10,,,81,127
31873,note_off,17,0,0,,12,,,71,127
31971,note_on,98,0,0,,0,,,72,127
32060,note_off,89,0,0,,10,,,45,127
32060,note_off,0,0,0,,10,,,57,127
32085,note_off,25,0,0,,10,,,81,127
32085,note_off,0,0,0,,6,,,78,127
32086,note_on,1,0,0,,6,,,54,127
32086,note_on,0,0,0,,6,,,42,127
32086,note_on,0,0,0,,2,,,74,127
32103,note_off,17,0,0,,0,,,72,127
32201,note_on,98,0,0,,0,,,72,127
32218,note_off,17,0,0,,2,,,74,127
32290,note_off,72,0,0,,6,,,42,127
32290,note_off,0,0,0,,6,,,54,127
32316,note_on,26,0,0,,2,,,38,127
32316,note_on,0,0,0,,2,,,50,127
32316,note_on,0,0,0,,12,,,71,127
32333,note_off,17,0,0,,0,,,72,127
32431,note_on,98,0,0,,10,,,69,127
32448,note_off,17,0,0,,12,,,71,127
32520,note_off,72,0,0,,2,,,50,127
32520,note_off,0,0,0,,2,,,38,127
32546,note_on,26,0,0,,7,,,43,127
32546,note_on,0,0,0,,7,,,55,127
32546,note_on,0,0,0,,7,,,79,127
32546,note_on,0,0,0,,12,,,83,127
32563,note_off,17,0,0,,10,,,69,127
32661,note_on,98,0,0,,2,,,74,127
32719,note_off,58,0,0,,12,,,83,127
32719,note_off,0,0,0,,7,,,79,127
32775,note_off,56,0,0,,7,,,55,127
32775,note_off,0,0,0,,7,,,43,127
32776,note_on,1,0,0,,12,,,47,127
32776,note_on,0,0,0,,12,,,59,127
32776,note_on,0,0,0,,4,,,76,127
32793,note_off,17,0,0,,2,,,74,127
32891,note_on,98,0,0,,2,,,74,127
32908,note_off,17,0,0,,4,,,76,127
33005,note_off,97,0,0,,12,,,59,127
33005,note_off,0,0,0,,12,,,47,127
33006,note_on,1,0,0,,7,,,43,127
33006,note_on,0,0,0,,7,,,55,127
33006,note_on,0,0,0,,0,,,72,127
33023,note_off,17,0,0,,2,,,74,127
33121,note_on,98,0,0,,12,,,71,127
33138,note_off,17,0,0,,0,,,72,127
33235,note_off,97,0,0,,7,,,55,127
33235,note_off,0,0,0,,7,,,43,127
33236,note_on,1,0,0,,10,,,57,127
33236,note_on,0,0,0,,10,,,45,127
33236,note_on,0,0,0,,10,,,81,127
33236,note_on,0,0,0,,6,,,78,127
33253,note_off,17,0,0,,12,,,71,127
33351,note_on,98,0,0,,0,,,72,127
33409,note_off,58,0,0,,6,,,78,127
33409,note_off,0,0,0,,10,,,81,127
33440,note_off,31,0,0,,10,,,45,127
33440,note_off,0,0,0,,10,,,57,127
33466,note_on,26,0,0,,6,,,54,127
33466,note_on,0,0,0,,6,,,42,127
33466,note_on,0,0,0,,2,,,74,127
33483,note_off,17,0,0,,0,,,72,127
33581,note_on,98,0,0,,0,,,72,127
33598,note_off,17,0,0,,2,,,74,127
33670,note_off,72,0,0,,6,,,42,127
33670,note_off,0,0,0,,6,,,54,127
33696,note_on,26,0,0,,2,,,38,127
33696,note_on,0,0,0,,2,,,50,127
33696,note_on,0,0,0,,12,,,71,127
33713,note_off,17,0,0,,0,,,72,127
33811,note_on,98,0,0,,10,,,69,127
33828,note_off,17,0,0,,12,,,71,127
33900,note_off,72,0,0,,2,,,50,127
33900,note_off,0,0,0,,2,,,38,127
33926,note_on,26,0,0,,7,,,43,127
33926,note_on,0,0,0,,7,,,55,127
33926,note_on,0,0,0,,12,,,71,127
33943,note_off,17,0,0,,10,,,69,127
34041,note_on,98,0,0,,7,,,67,127
34155,note_off,114,0,0,,12,,,71,127
34155,note_off,0,0,0,,7,,,55,127
34155,note_off,0,0,0,,7,,,43,127
34156,note_on,1,0,0,,10,,,57,127
34156,note_on,0,0,0,,10,,,45,127
34156,note_on,0,0,0,,12,,,71,127
34173,note_off,17,0,0,,7,,,67,127
34271,note_on,98,0,0,,2,,,74,127
34288,note_off,17,0,0,,12,,,71,127
34385,note_off,97,0,0,,10,,,45,127
34385,note_off,0,0,0,,10,,,57,127
34386,note_on,1,0,0,,12,,,59,127
34386,note_on,0,0,0,,12,,,47,127
34386,note_on,0,0,0,,7,,,79,127
34403,note_off,17,0,0,,2,,,74,127
34501,note_on,98,0,0,,2,,,74,127
34518,note_off,17,0,0,,7,,,79,127
34615,note_off,97,0,0,,12,,,47,127
34615,note_off,0,0,0,,12,,,59,127
34616,note_on,1,0,0,,0,,,60,127
34616,note_on,0,0,0,,0,,,48,127
34616,note_on,0,0,0,,4,,,76,127
34633,note_off,17,0,0,,2,,,74,127
34731,note_on,98,0,0,,0,,,72,127
34748,note_off,17,0,0,,4,,,76,127
34845,note_off,97,0,0,,0,,,48,127
34845,note_off,0,0,0,,0,,,60,127
34846,note_on,1,0,0,,2,,,50,127
34846,note_on,0,0,0,,2,,,62,127
34846,note_on,0,0,0,,12,,,71,127
34863,note_off,17,0,0,,0,,,72,127
34961,note_on,98,0,0,,7,,,79,127
34978,note_off,17,0,0,,12,,,71,127
35075,note_off,97,0,0,,2,,,62,127
35076,note_on,1,0,0,,0,,,60,127
35076,note_on,0,0,0,,10,,,69,127
35093,note_off,17,0,0,,7,,,79,127
35191,note_on,98,0,0,,6,,,78,127
35208,note_off,17,0,0,,10,,,69,127
35305,note_off,97,0,0,,0,,,60,127
35305,note_off,0,0,0,,2,,,50,127
35306,note_on,1,0,0,,7,,,43,127
35306,note_on,0,0,0,,7,,,79,127
35323,note_off,17,0,0,,6,,,78,127
35421,note_on,98,0,0,,12,,,83,127
35438,note_off,17,0,0,,7,,,79,127
35536,note_on,98,0,0,,2,,,74,127
35553,note_off,17,0,0,,12,,,83,127
35651,note_on,98,0,0,,7,,,79,127
35668,note_off,17,0,0,,2,,,74,127
35766,note_on,98,0,0,,12,,,71,127
35783,note_off,17,0,0,,7,,,79,127
35881,note_on,98,0,0,,2,,,74,127
35898,note_off,17,0,0,,12,,,71,127
35995,note_off,97,0,0,,7,,,43,127
35996,note_on,1,0,0,,7,,,43,127
35996,note_on,0,0,0,,7,,,67,127
36013,note_off,17,0,0,,2,,,74,127
36111,note_on,98,0,0,,12,,,71,127
36128,note_off,17,0,0,,7,,,67,127
36226,note_on,98,0,0,,2,,,62,127
36243,note_off,17,0,0,,12,,,71,127
36341,note_on,98,0,0,,7,,,67,127
36358,note_off,17,0,0,,2,,,62,127
36456,note_on,98,0,0,,12,,,59,127
36473,note_off,17,0,0,,7,,,67,127
36571,note_on,98,0,0,,2,,,62,127
36588,note_off,17,0,0,,12,,,59,127
36685,note_off,97,0,0,,7,,,43,127
36686,note_on,1,0,0,,10,,,45,127
36703,note_off,17,0,0,,2,,,62,127
36743,note_off,40,0,0,,10,,,45,127
36744,note_on,1,0,0,,7,,,43,127
36800,note_off,56,0,0,,7,,,43,127
36801,note_on,1,0,0,,10,,,45,127
36857,note_off,56,0,0,,10,,,45,127
36858,note_on,1,0,0,,7,,,43,127
37376,note_on,518,0,0,,12,,,83,127
37376,note_on,0,0,0,,7,,,79,127
37384,note_off,8,0,0,,7,,,43,127
37606,note_on,222,0,0,,12,,,59,127
37606,note_on,0,0,0,,7,,,55,127
37835,note_off,229,0,0,,7,,,55,127
37835,note_off,0,0,0,,12,,,59,127
37836,note_on,1,0,0,,10,,,57,127
37836,note_on,0,0,0,,0,,,60,127
37844,note_off,8,0,0,,7,,,79,127
37844,note_off,0,0,0,,12,,,83,127
38066,note_on,222,0,0,,12,,,83,127
38066,note_on,0,0,0,,7,,,79,127
38181,note_off,115,0,0,,0,,,60,127
38181,note_off,0,0,0,,10,,,57,127
38296,note_on,115,0,0,,2,,,62,127
38296,note_on,0,0,0,,12,,,59,127
38469,note_off,173,0,0,,7,,,79,127
38469,note_off,0,0,0,,12,,,83,127
38525,note_off,56,0,0,,12,,,59,127
38525,note_off,0,0,0,,2,,,62,127
38526,note_on,1,0,0,,1,,,61,127
38526,note_on,0,0,0,,4,,,64,127
38755,note_off,229,0,0,,4,,,64,127
38755,note_off,0,0,0,,1,,,61,127
38756,note_on,1,0,0,,2,,,62,127
38756,note_on,0,0,0,,6,,,66,127
38871,note_on,115,0,0,,2,,,74,127
38888,note_off,17,0,0,,6,,,66,127
38985,note_off,97,0,0,,2,,,62,127
38986,note_on,1,0,0,,4,,,64,127
38986,note_on,0,0,0,,7,,,67,127
39087,note_off,101,0,0,,2,,,74,127
39101,note_on,14,0,0,,4,,,76,127
39118,note_off,17,0,0,,7,,,67,127
39215,note_off,97,0,0,,4,,,76,127
39215,note_off,0,0,0,,4,,,64,127
39216,note_on,1,0,0,,10,,,57,127
39216,note_on,0,0,0,,2,,,74,127
39216,note_on,0,0,0,,4,,,76,127
39331,note_on,115,0,0,,1,,,73,127
39348,note_off,17,0,0,,4,,,76,127
39348,note_off,0,0,0,,2,,,74,127
39445,note_off,97,0,0,,10,,,57,127
39446,note_on,1,0,0,,2,,,62,127
39446,note_on,0,0,0,,2,,,74,127
39463,note_off,17,0,0,,1,,,73,127
39561,note_on,98,0,0,,10,,,69,127
39578,note_off,17,0,0,,2,,,74,127
39675,note_off,97,0,0,,2,,,62,127
39676,note_on,1,0,0,,10,,,57,127
39676,note_on,0,0,0,,6,,,66,127
39693,note_off,17,0,0,,10,,,69,127
39791,note_on,98,0,0,,2,,,62,127
39808,note_off,17,0,0,,6,,,66,127
39905,note_off,97,0,0,,10,,,57,127
39906,note_on,1,0,0,,2,,,38,127
39923,note_off,17,0,0,,2,,,62,127
40135,note_off,212,0,0,,2,,,38,127
40136,note_on,1,0,0,,6,,,78,127
40136,note_on,0,0,0,,10,,,81,127
40366,note_on,230,0,0,,6,,,66,127
40366,note_on,0,0,0,,2,,,62,127
40595,note_off,229,0,0,,2,,,62,127
40595,note_off,0,0,0,,6,,,66,127
40595,note_off,0,0,0,,10,,,81,127
40595,note_off,0,0,0,,6,,,78,127
40596,note_on,1,0,0,,4,,,64,127
40596,note_on,0,0,0,,7,,,67,127
40826,note_on,230,0,0,,6,,,78,127
40826,note_on,0,0,0,,10,,,81,127
40941,note_off,115,0,0,,7,,,67,127
40941,note_off,0,0,0,,4,,,64,127
41056,note_on,115,0,0,,10,,,69,127
41056,note_on,0,0,0,,6,,,66,127
41171,note_off,115,0,0,,10,,,81,127
41171,note_off,0,0,0,,6,,,78,127
41285,note_off,114,0,0,,6,,,66,127
41285,note_off,0,0,0,,10,,,69,127
41286,note_on,1,0,0,,8,,,68,127
41286,note_on,0,0,0,,12,,,71,127
41515,note_off,229,0,0,,12,,,71,127
41515,note_off,0,0,0,,8,,,68,127
41516,note_on,1,0,0,,10,,,69,127
41516,note_on,0,0,0,,0,,,72,127
41631,note_on,115,0,0,,0,,,84,127
41648,note_off,17,0,0,,0,,,72,127
41745,note_off,97,0,0,,10,,,69,127
41746,note_on,1,0,0,,12,,,71,127
41746,note_on,0,0,0,,2,,,74,127
41835,note_off,89,0,0,,0,,,84,127
41861,note_on,26,0,0,,12,,,83,127
41878,note_off,17,0,0,,2,,,74,127
41975,note_off,97,0,0,,12,,,83,127
41975,note_off,0,0,0,,12,,,71,127
41976,note_on,1,0,0,,4,,,64,127
41976,note_on,0,0,0,,10,,,81,127
41976,note_on,0,0,0,,12,,,83,127
42091,note_on,115,0,0,,8,,,80,127
42108,note_off,17,0,0,,12,,,83,127
42108,note_off,0,0,0,,10,,,81,127
42205,note_off,97,0,0,,4,,,64,127
42206,note_on,1,0,0,,10,,,69,127
42206,note_on,0,0,0,,10,,,81,127
42223,note_off,17,0,0,,8,,,80,127
42321,note_on,98,0,0,,4,,,76,127
42338,note_off,17,0,0,,10,,,81,127
42435,note_off,97,0,0,,10,,,69,127
42436,note_on,1,0,0,,4,,,64,127
42436,note_on,0,0,0,,0,,,72,127
42453,note_off,17,0,0,,4,,,76,127
42551,note_on,98,0,0,,10,,,69,127
42568,note_off,17,0,0,,0,,,72,127
42665,note_off,97,0,0,,4,,,64,127
42666,note_on,1,0,0,,10,,,45,127
42683,note_off,17,0,0,,10,,,69,127
42895,note_off,212,0,0,,10,,,45,127
42896,note_on,1,0,0,,0,,,72,127
42896,note_on,0,0,0,,10,,,69,127
42896,note_on,0,0,0,,4,,,76,127
43011,note_on,115,0,0,,0,,,84,127
43028,note_off,17,0,0,,4,,,76,127
43125,note_off,97,0,0,,10,,,69,127
43125,note_off,0,0,0,,0,,,72,127
43126,note_on,1,0,0,,12,,,71,127
43126,note_on,0,0,0,,7,,,67,127
43126,note_on,0,0,0,,4,,,76,127
43143,note_off,17,0,0,,0,,,84,127
43241,note_on,98,0,0,,12,,,83,127
43258,note_off,17,0,0,,4,,,76,127
43355,note_off,97,0,0,,7,,,67,127
43355,note_off,0,0,0,,12,,,71,127
43356,note_on,1,0,0,,10,,,69,127
43356,note_on,0,0,0,,6,,,66,127
43356,note_on,0,0,0,,3,,,75,127
43373,note_off,17,0,0,,12,,,83,127
43471,note_on,98,0,0,,10,,,81,127
43488,note_off,17,0,0,,3,,,75,127
43585,note_off,97,0,0,,6,,,66,127
43585,note_off,0,0,0,,10,,,69,127
43586,note_on,1,0,0,,0,,,72,127
43586,note_on,0,0,0,,10,,,69,127
43586,note_on,0,0,0,,4,,,76,127
43603,note_off,17,0,0,,10,,,81,127
43701,note_on,98,0,0,,0,,,84,127
43718,note_off,17,0,0,,4,,,76,127
43815,note_off,97,0,0,,10,,,69,127
43815,note_off,0,0,0,,0,,,72,127
43816,note_on,1,0,0,,12,,,71,127
43816,note_on,0,0,0,,7,,,67,127
43816,note_on,0,0,0,,4,,,76,127
43833,note_off,17,0,0,,0,,,84,127
43931,note_on,98,0,0,,12,,,83,127
43948,note_off,17,0,0,,4,,,76,127
44045,note_off,97,0,0,,7,,,67,127
44045,note_off,0,0,0,,12,,,71,127
44046,note_on,1,0,0,,6,,,66,127
44046,note_on,0,0,0,,10,,,69,127
44046,note_on,0,0,0,,3,,,75,127
44063,note_off,17,0,0,,12,,,83,127
44161,note_on,98,0,0,,10,,,81,127
44178,note_off,17,0,0,,3,,,75,127
44275,note_off,97,0,0,,10,,,69,127
44275,note_off,0,0,0,,6,,,66,127
44276,note_on,1,0,0,,0,,,72,127
44276,note_on,0,0,0,,10,,,69,127
44276,note_on,0,0,0,,4,,,76,127
44293,note_off,17,0,0,,10,,,81,127
44391,note_on,98,0,0,,0,,,84,127
44408,note_off,17,0,0,,4,,,76,127
44505,note_off,97,0,0,,10,,,69,127
44505,note_off,0,0,0,,0,,,72,127
44506,note_on,1,0,0,,7,,,67,127
44506,note_on,0,0,0,,12,,,71,127
44506,note_on,0,0,0,,4,,,76,127
44523,note_off,17,0,0,,0,,,84,127
44621,note_on,98,0,0,,12,,,83,127
44638,note_off,17,0,0,,4,,,76,127
44735,note_off,97,0,0,,12,,,71,127
44735,note_off,0,0,0,,7,,,67,127
44736,note_on,1,0,0,,6,,,66,127
44736,note_on,0,0,0,,10,,,69,127
44736,note_on,0,0,0,,3,,,75,127
44753,note_off,17,0,0,,12,,,83,127
44851,note_on,98,0,0,,10,,,81,127
44868,note_off,17,0,0,,3,,,75,127
44965,note_off,97,0,0,,10,,,69,127
44965,note_off,0,0,0,,6,,,66,127
44966,note_on,1,0,0,,7,,,67,127
44966,note_on,0,0,0,,4,,,64,127
44966,note_on,0,0,0,,0,,,72,127
44983,note_off,17,0,0,,10,,,81,127
45081,note_on,98,0,0,,7,,,79,127
45098,note_off,17,0,0,,0,,,72,127
45195,note_off,97,0,0,,4,,,64,127
45195,note_off,0,0,0,,7,,,67,127
45196,note_on,1,0,0,,2,,,62,127
45196,note_on,0,0,0,,6,,,66,127
45196,note_on,0,0,0,,12,,,71,127
45213,note_off,17,0,0,,7,,,79,127
45311,note_on,98,0,0,,6,,,78,127
45328,note_off,17,0,0,,12,,,71,127
45425,note_off,97,0,0,,6,,,66,127
45425,note_off,0,0,0,,2,,,62,127
45426,note_on,1,0,0,,0,,,60,127
45426,note_on,0,0,0,,4,,,64,127
45426,note_on,0,0,0,,10,,,69,127
45443,note_off,17,0,0,,6,,,78,127
45541,note_on,98,0,0,,4,,,76,127
45558,note_off,17,0,0,,10,,,69,127
45655,note_off,97,0,0,,4,,,64,127
45655,note_off,0,0,0,,0,,,60,127
45656,note_on,1,0,0,,7,,,67,127
45656,note_on,0,0,0,,4,,,64,127
45656,note_on,0,0,0,,0,,,72,127
45673,note_off,17,0,0,,4,,,76,127
45771,note_on,98,0,0,,7,,,79,127
45788,note_off,17,0,0,,0,,,72,127
45885,note_off,97,0,0,,4,,,64,127
45885,note_off,0,0,0,,7,,,67,127
45886,note_on,1,0,0,,6,,,66,127
45886,note_on,0,0,0,,2,,,62,127
45886,note_on,0,0,0,,12,,,71,127
45903,note_off,17,0,0,,7,,,79,127
46001,note_on,98,0,0,,6,,,78,127
46018,note_off,17,0,0,,12,,,71,127
46115,note_off,97,0,0,,2,,,62,127
46115,note_off,0,0,0,,6,,,66,127
46116,note_on,1,0,0,,0,,,60,127
46116,note_on,0,0,0,,4,,,64,127
46116,note_on,0,0,0,,10,,,69,127
46133,note_off,17,0,0,,6,,,78,127
46231,note_on,98,0,0,,4,,,76,127
46248,note_off,17,0,0,,10,,,69,127
46345,note_off,97,0,0,,4,,,64,127
46345,note_off,0,0,0,,0,,,60,127
46346,note_on,1,0,0,,7,,,67,127
46346,note_on,0,0,0,,4,,,64,127
46346,note_on,0,0,0,,0,,,72,127
46363,note_off,17,0,0,,4,,,76,127
46461,note_on,98,0,0,,7,,,79,127
46478,note_off,17,0,0,,0,,,72,127
46575,note_off,97,0,0,,4,,,64,127
46575,note_off,0,0,0,,7,,,67,127
46576,note_on,1,0,0,,6,,,66,127
46576,note_on,0,0,0,,2,,,62,127
46576,note_on,0,0,0,,12,,,71,127
46593,note_off,17,0,0,,7,,,79,127
46691,note_on,98,0,0,,6,,,78,127
46708,note_off,17,0,0,,12,,,71,127
46805,note_off,97,0,0,,2,,,62,127
46805,note_off,0,0,0,,6,,,66,127
46806,note_on,1,0,0,,4,,,64,127
46806,note_on,0,0,0,,0,,,60,127
46806,note_on,0,0,0,,10,,,69,127
46823,note_off,17,0,0,,6,,,78,127
46921,note_on,98,0,0,,4,,,76,127
46938,note_off,17,0,0,,10,,,69,127
47035,note_off,97,0,0,,0,,,60,127
47035,note_off,0,0,0,,4,,,64,127
47036,note_on,1,0,0,,12,,,59,127
47036,note_on,0,0,0,,3,,,75,127
47053,note_off,17,0,0,,4,,,76,127
47151,note_on,98,0,0,,12,,,71,127
47168,note_off,17,0,0,,3,,,75,127
47265,note_off,97,0,0,,12,,,59,127
47266,note_on,1,0,0,,4,,,64,127
47266,note_on,0,0,0,,1,,,61,127
47266,note_on,0,0,0,,4,,,76,127
47283,note_off,17,0,0,,12,,,71,127
47381,note_on,98,0,0,,12,,,71,127
47398,note_off,17,0,0,,4,,,76,127
47495,note_off,97,0,0,,1,,,61,127
47495,note_off,0,0,0,,4,,,64,127
47496,note_on,1,0,0,,3,,,63,127
47496,note_on,0,0,0,,6,,,66,127
47496,note_on,0,0,0,,6,,,78,127
47513,note_off,17,0,0,,12,,,71,127
47611,note_on,98,0,0,,12,,,71,127
47628,note_off,17,0,0,,6,,,78,127
47725,note_off,97,0,0,,6,,,66,127
47725,note_off,0,0,0,,3,,,63,127
47726,note_on,1,0,0,,4,,,64,127
47726,note_on,0,0,0,,7,,,67,127
47726,note_on,0,0,0,,7,,,79,127
47743,note_off,17,0,0,,12,,,71,127
47841,note_on,98,0,0,,12,,,71,127
47858,note_off,17,0,0,,7,,,79,127
47955,note_off,97,0,0,,7,,,67,127
47955,note_off,0,0,0,,4,,,64,127
47956,note_on,1,0,0,,10,,,57,127
47956,note_on,0,0,0,,6,,,66,127
47956,note_on,0,0,0,,10,,,81,127
47973,note_off,17,0,0,,12,,,71,127
48071,note_on,98,0,0,,4,,,64,127
48071,note_on,0,0,0,,7,,,79,127
48088,note_off,17,0,0,,10,,,81,127
48088,note_off,0,0,0,,6,,,66,127
48186,note_on,98,0,0,,3,,,63,127
48186,note_on,0,0,0,,6,,,78,127
48203,note_off,17,0,0,,7,,,79,127
48203,note_off,0,0,0,,4,,,64,127
48301,note_on,98,0,0,,1,,,61,127
48301,note_on,0,0,0,,4,,,76,127
48318,note_off,17,0,0,,6,,,78,127
48318,note_off,0,0,0,,3,,,63,127
48415,note_off,97,0,0,,10,,,57,127
48416,note_on,1,0,0,,12,,,59,127
48416,note_on,0,0,0,,12,,,83,127
48433,note_off,17,0,0,,4,,,76,127
48433,note_off,0,0,0,,1,,,61,127
48531,note_on,98,0,0,,6,,,78,127
48644,note_off,113,0,0,,12,,,83,127
48645,note_off,1,0,0,,12,,,59,127
48646,note_on,1,0,0,,6,,,54,127
48646,note_on,0,0,0,,3,,,75,127
48663,note_off,17,0,0,,6,,,78,127
48761,note_on,98,0,0,,12,,,71,127
48778,note_off,17,0,0,,3,,,75,127
48875,note_off,97,0,0,,6,,,54,127
48876,note_on,1,0,0,,12,,,47,127
48893,note_off,17,0,0,,12,,,71,127
49105,note_off,212,0,0,,12,,,47,127
49106,note_on,1,0,0,,7,,,67,127
49106,note_on,0,0,0,,4,,,76,127
49221,note_on,115,0,0,,12,,,71,127
49238,note_off,17,0,0,,7,,,67,127
49335,note_off,97,0,0,,4,,,76,127
49336,note_on,1,0,0,,10,,,69,127
49336,note_on,0,0,0,,6,,,78,127
49353,note_off,17,0,0,,12,,,71,127
49451,note_on,98,0,0,,0,,,72,127
49468,note_off,17,0,0,,10,,,69,127
49565,note_off,97,0,0,,6,,,78,127
49566,note_on,1,0,0,,12,,,71,127
49566,note_on,0,0,0,,3,,,75,127
49583,note_off,17,0,0,,0,,,72,127
49681,note_on,98,0,0,,10,,,69,127
49698,note_off,17,0,0,,12,,,71,127
49795,note_off,97,0,0,,3,,,75,127
49796,note_on,1,0,0,,7,,,67,127
49796,note_on,0,0,0,,4,,,76,127
49813,note_off,17,0,0,,10,,,69,127
49911,note_on,98,0,0,,12,,,71,127
49928,note_off,17,0,0,,7,,,67,127
50025,note_off,97,0,0,,4,,,76,127
50026,note_on,1,0,0,,10,,,69,127
50026,note_on,0,0,0,,6,,,78,127
50043,note_off,17,0,0,,12,,,71,127
50141,note_on,98,0,0,,0,,,72,127
50158,note_off,17,0,0,,10,,,69,127
50255,note_off,97,0,0,,6,,,78,127
50256,note_on,1,0,0,,12,,,71,127
50256,note_on,0,0,0,,3,,,75,127
50273,note_off,17,0,0,,0,,,72,127
50371,note_on,98,0,0,,10,,,69,127
50388,note_off,17,0,0,,12,,,71,127
50485,note_off,97,0,0,,3,,,75,127
50486,note_on,1,0,0,,7,,,67,127
50486,note_on,0,0,0,,4,,,76,127
50503,note_off,17,0,0,,10,,,69,127
50601,note_on,98,0,0,,12,,,71,127
50618,note_off,17,0,0,,7,,,67,127
50715,note_off,97,0,0,,4,,,76,127
50716,note_on,1,0,0,,10,,,69,127
50716,note_on,0,0,0,,6,,,78,127
50733,note_off,17,0,0,,12,,,71,127
50831,note_on,98,0,0,,0,,,72,127
50848,note_off,17,0,0,,10,,,69,127
50945,note_off,97,0,0,,6,,,78,127
50946,note_on,1,0,0,,12,,,71,127
50946,note_on,0,0,0,,3,,,75,127
50963,note_off,17,0,0,,0,,,72,127
51061,note_on,98,0,0,,10,,,69,127
51078,note_off,17,0,0,,12,,,71,127
51175,note_off,97,0,0,,3,,,75,127
51176,note_on,1,0,0,,7,,,67,127
51176,note_on,0,0,0,,4,,,76,127
51193,note_off,17,0,0,,10,,,69,127
51291,note_on,98,0,0,,10,,,69,127
51308,note_off,17,0,0,,7,,,67,127
51405,note_off,97,0,0,,4,,,76,127
51406,note_on,1,0,0,,6,,,66,127
51406,note_on,0,0,0,,2,,,74,127
51423,note_off,17,0,0,,10,,,69,127
51521,note_on,98,0,0,,7,,,67,127
51538,note_off,17,0,0,,6,,,66,127
51635,note_off,97,0,0,,2,,,74,127
51636,note_on,1,0,0,,4,,,64,127
51636,note_on,0,0,0,,0,,,72,127
51653,note_off,17,0,0,,7,,,67,127
51751,note_on,98,0,0,,6,,,66,127
51768,note_off,17,0,0,,4,,,64,127
51865,note_off,97,0,0,,0,,,72,127
51866,note_on,1,0,0,,3,,,63,127
51866,note_on,0,0,0,,12,,,71,127
51883,note_off,17,0,0,,6,,,66,127
51981,note_on,98,0,0,,6,,,66,127
51998,note_off,17,0,0,,3,,,63,127
52095,note_off,97,0,0,,12,,,71,127
52096,note_on,1,0,0,,4,,,64,127
52096,note_on,0,0,0,,0,,,72,127
52113,note_off,17,0,0,,6,,,66,127
52211,note_on,98,0,0,,7,,,67,127
52228,note_off,17,0,0,,4,,,64,127
52325,note_off,97,0,0,,0,,,72,127
52326,note_on,1,0,0,,6,,,66,127
52326,note_on,0,0,0,,10,,,69,127
52343,note_off,17,0,0,,7,,,67,127
52441,note_on,98,0,0,,4,,,64,127
52458,note_off,17,0,0,,6,,,66,127
52555,note_off,97,0,0,,10,,,69,127
52556,note_on,1,0,0,,3,,,63,127
52556,note_on,0,0,0,,12,,,71,127
52573,note_off,17,0,0,,4,,,64,127
52671,note_on,98,0,0,,6,,,66,127
52688,note_off,17,0,0,,3,,,63,127
52785,note_off,97,0,0,,12,,,71,127
52786,note_on,1,0,0,,4,,,64,127
52786,note_on,0,0,0,,0,,,72,127
52803,note_off,17,0,0,,6,,,66,127
52901,note_on,98,0,0,,7,,,67,127
52918,note_off,17,0,0,,4,,,64,127
53015,note_off,97,0,0,,0,,,72,127
53016,note_on,1,0,0,,6,,,66,127
53016,note_on,0,0,0,,10,,,69,127
53033,note_off,17,0,0,,7,,,67,127
53131,note_on,98,0,0,,4,,,64,127
53148,note_off,17,0,0,,6,,,66,127
53245,note_off,97,0,0,,10,,,69,127
53246,note_on,1,0,0,,3,,,63,127
53246,note_on,0,0,0,,12,,,71,127
53263,note_off,17,0,0,,4,,,64,127
53361,note_on,98,0,0,,6,,,66,127
53378,note_off,17,0,0,,3,,,63,127
53475,note_off,97,0,0,,12,,,71,127
53476,note_on,1,0,0,,4,,,64,127
53476,note_on,0,0,0,,0,,,72,127
53493,note_off,17,0,0,,6,,,66,127
53591,note_on,98,0,0,,7,,,67,127
53608,note_off,17,0,0,,4,,,64,127
53705,note_off,97,0,0,,0,,,72,127
53706,note_on,1,0,0,,6,,,66,127
53706,note_on,0,0,0,,10,,,69,127
53723,note_off,17,0,0,,7,,,67,127
53821,note_on,98,0,0,,4,,,64,127
53838,note_off,17,0,0,,6,,,66,127
53935,note_off,97,0,0,,10,,,69,127
53936,note_on,1,0,0,,3,,,63,127
53936,note_on,0,0,0,,12,,,71,127
53953,note_off,17,0,0,,4,,,64,127
54051,note_on,98,0,0,,12,,,59,127
54068,note_off,17,0,0,,3,,,63,127
54165,note_off,97,0,0,,12,,,71,127
54166,note_on,1,0,0,,4,,,64,127
54166,note_on,0,0,0,,1,,,73,127
54183,note_off,17,0,0,,12,,,59,127
54281,note_on,98,0,0,,12,,,59,127
54298,note_off,17,0,0,,4,,,64,127
54395,note_off,97,0,0,,1,,,73,127
54396,note_on,1,0,0,,6,,,66,127
54396,note_on,0,0,0,,3,,,75,127
54413,note_off,17,0,0,,12,,,59,127
54511,note_on,98,0,0,,12,,,59,127
54528,note_off,17,0,0,,6,,,66,127
54625,note_off,97,0,0,,3,,,75,127
54626,note_on,1,0,0,,7,,,67,127
54626,note_on,0,0,0,,4,,,76,127
54626,note_on,0,0,0,,12,,,71,127
54643,note_off,17,0,0,,12,,,59,127
54741,note_on,98,0,0,,12,,,59,127
54758,note_off,17,0,0,,7,,,67,127
54855,note_off,97,0,0,,4,,,76,127
54856,note_on,1,0,0,,6,,,66,127
54856,note_on,0,0,0,,3,,,75,127
54873,note_off,17,0,0,,12,,,59,127
54971,note_on,98,0,0,,12,,,59,127
54988,note_off,17,0,0,,6,,,66,127
55085,note_off,97,0,0,,3,,,75,127
55086,note_on,1,0,0,,7,,,67,127
55086,note_on,0,0,0,,4,,,76,127
55103,note_off,17,0,0,,12,,,59,127
55201,note_on,98,0,0,,12,,,59,127
55218,note_off,17,0,0,,7,,,67,127
55315,note_off,97,0,0,,4,,,76,127
55315,note_off,0,0,0,,12,,,71,127
55316,note_on,1,0,0,,6,,,66,127
55316,note_on,0,0,0,,3,,,75,127
55316,note_on,0,0,0,,12,,,71,127
55333,note_off,17,0,0,,12,,,59,127
55431,note_on,98,0,0,,12,,,59,127
55448,note_off,17,0,0,,6,,,66,127
55545,note_off,97,0,0,,3,,,75,127
55546,note_on,1,0,0,,4,,,64,127
55546,note_on,0,0,0,,4,,,76,127
55563,note_off,17,0,0,,12,,,59,127
55661,note_on,98,0,0,,12,,,59,127
55678,note_off,17,0,0,,4,,,64,127
55775,note_off,97,0,0,,4,,,76,127
55776,note_on,1,0,0,,3,,,63,127
55776,note_on,0,0,0,,6,,,78,127
55793,note_off,17,0,0,,12,,,59,127
55891,note_on,98,0,0,,12,,,59,127
55908,note_off,17,0,0,,3,,,63,127
56005,note_off,97,0,0,,6,,,78,127
56005,note_off,0,0,0,,12,,,71,127
56006,note_on,1,0,0,,4,,,64,127
56006,note_on,0,0,0,,7,,,79,127
56006,note_on,0,0,0,,12,,,71,127
56023,note_off,17,0,0,,12,,,59,127
56121,note_on,98,0,0,,12,,,59,127
56138,note_off,17,0,0,,4,,,64,127
56235,note_off,97,0,0,,7,,,79,127
56236,note_on,1,0,0,,3,,,63,127
56236,note_on,0,0,0,,6,,,78,127
56253,note_off,17,0,0,,12,,,59,127
56351,note_on,98,0,0,,12,,,59,127
56368,note_off,17,0,0,,3,,,63,127
56465,note_off,97,0,0,,6,,,78,127
56466,note_on,1,0,0,,4,,,64,127
56466,note_on,0,0,0,,7,,,79,127
56483,note_off,17,0,0,,12,,,59,127
56581,note_on,98,0,0,,12,,,59,127
56598,note_off,17,0,0,,4,,,64,127
56695,note_off,97,0,0,,7,,,79,127
56695,note_off,0,0,0,,12,,,71,127
56696,note_on,1,0,0,,3,,,63,127
56696,note_on,0,0,0,,6,,,78,127
56696,note_on,0,0,0,,12,,,71,127
56713,note_off,17,0,0,,12,,,59,127
56811,note_on,98,0,0,,12,,,59,127
56828,note_off,17,0,0,,3,,,63,127
56925,note_off,97,0,0,,6,,,78,127
56926,note_on,1,0,0,,4,,,64,127
56926,note_on,0,0,0,,4,,,76,127
56943,note_off,17,0,0,,12,,,59,127
57041,note_on,98,0,0,,12,,,59,127
57058,note_off,17,0,0,,4,,,64,127
57155,note_off,97,0,0,,4,,,76,127
57156,note_on,1,0,0,,6,,,66,127
57156,note_on,0,0,0,,3,,,75,127
57173,note_off,17,0,0,,12,,,59,127
57271,note_on,98,0,0,,12,,,59,127
57288,note_off,17,0,0,,6,,,66,127
57385,note_off,97,0,0,,3,,,75,127
57385,note_off,0,0,0,,12,,,71,127
57386,note_on,1,0,0,,7,,,67,127
57386,note_on,0,0,0,,12,,,71,127
57386,note_on,0,0,0,,4,,,76,127
57403,note_off,17,0,0,,12,,,59,127
57501,note_on,98,0,0,,12,,,59,127
57518,note_off,17,0,0,,7,,,67,127
57615,note_off,97,0,0,,4,,,76,127
57616,note_on,1,0,0,,6,,,66,127
57616,note_on,0,0,0,,3,,,75,127
57633,note_off,17,0,0,,12,,,59,127
57731,note_on,98,0,0,,12,,,59,127
57748,note_off,17,0,0,,6,,,66,127
57845,note_off,97,0,0,,3,,,75,127
57846,note_on,1,0,0,,7,,,67,127
57846,note_on,0,0,0,,4,,,76,127
57863,note_off,17,0,0,,12,,,59,127
57961,note_on,98,0,0,,12,,,59,127
57978,note_off,17,0,0,,7,,,67,127
58075,note_off,97,0,0,,4,,,76,127
58075,note_off,0,0,0,,12,,,71,127
58076,note_on,1,0,0,,6,,,66,127
58076,note_on,0,0,0,,3,,,75,127
58076,note_on,0,0,0,,12,,,71,127
58093,note_off,17,0,0,,12,,,59,127
58191,note_on,98,0,0,,12,,,59,127
58208,note_off,17,0,0,,6,,,66,127
58305,note_off,97,0,0,,3,,,75,127
58306,note_on,1,0,0,,4,,,64,127
58306,note_on,0,0,0,,4,,,76,127
58323,note_off,17,0,0,,12,,,59,127
58421,note_on,98,0,0,,12,,,59,127
58438,note_off,17,0,0,,4,,,64,127
58535,note_off,97,0,0,,4,,,76,127
58536,note_on,1,0,0,,3,,,63,127
58536,note_on,0,0,0,,6,,,78,127
58553,note_off,17,0,0,,12,,,59,127
58651,note_on,98,0,0,,12,,,59,127
58668,note_off,17,0,0,,3,,,63,127
58765,note_off,97,0,0,,6,,,78,127
58765,note_off,0,0,0,,12,,,71,127
58766,note_on,1,0,0,,4,,,64,127
58766,note_on,0,0,0,,7,,,79,127
58766,note_on,0,0,0,,12,,,71,127
58783,note_off,17,0,0,,12,,,59,127
58881,note_on,98,0,0,,12,,,59,127
58898,note_off,17,0,0,,4,,,64,127
58995,note_off,97,0,0,,7,,,79,127
58996,note_on,1,0,0,,3,,,63,127
58996,note_on,0,0,0,,6,,,78,127
59013,note_off,17,0,0,,12,,,59,127
59111,note_on,98,0,0,,12,,,59,127
59128,note_off,17,0,0,,3,,,63,127
59225,note_off,97,0,0,,6,,,78,127
59226,note_on,1,0,0,,4,,,64,127
59226,note_on,0,0,0,,7,,,79,127
59243,note_off,17,0,0,,12,,,59,127
59341,note_on,98,0,0,,12,,,59,127
59358,note_off,17,0,0,,4,,,64,127
59455,note_off,97,0,0,,7,,,79,127
59455,note_off,0,0,0,,12,,,71,127
59456,note_on,1,0,0,,12,,,71,127
59571,note_on,115,0,0,,3,,,75,127
59588,note_off,17,0,0,,12,,,71,127
59686,note_on,98,0,0,,12,,,71,127
59686,note_on,0,0,0,,1,,,73,127
59703,note_off,17,0,0,,3,,,75,127
59801,note_on,98,0,0,,4,,,76,127
59818,note_off,17,0,0,,1,,,73,127
59907,note_off,89,0,0,,12,,,59,127
59917,note_on,10,0,0,,12,,,59,127
59917,note_on,0,0,0,,3,,,75,127
59934,note_off,17,0,0,,4,,,76,127
60032,note_on,98,0,0,,6,,,78,127
60049,note_off,17,0,0,,3,,,75,127
60146,note_off,97,0,0,,12,,,59,127
60147,note_on,1,0,0,,12,,,59,127
60147,note_on,0,0,0,,4,,,76,127
60164,note_off,17,0,0,,6,,,78,127
60262,note_on,98,0,0,,7,,,79,127
60279,note_off,17,0,0,,4,,,76,127
60376,note_off,97,0,0,,12,,,71,127
60377,note_on,1,0,0,,12,,,71,127
60377,note_on,0,0,0,,2,,,74,127
60394,note_off,17,0,0,,7,,,79,127
60492,note_on,98,0,0,,6,,,78,127
60509,note_off,17,0,0,,2,,,74,127
60606,note_off,97,0,0,,12,,,59,127
60607,note_on,1,0,0,,12,,,59,127
60607,note_on,0,0,0,,0,,,72,127
60624,note_off,17,0,0,,6,,,78,127
60722,note_on,98,0,0,,4,,,76,127
60739,note_off,17,0,0,,0,,,72,127
60836,note_off,97,0,0,,12,,,59,127
60836,note_off,0,0,0,,12,,,71,127
60837,note_on,1,0,0,,12,,,59,127
60837,note_on,0,0,0,,12,,,71,127
60854,note_off,17,0,0,,4,,,76,127
60952,note_on,98,0,0,,3,,,75,127
60969,note_off,17,0,0,,12,,,71,127
61067,note_on,98,0,0,,12,,,71,127
61067,note_on,0,0,0,,1,,,73,127
61084,note_off,17,0,0,,3,,,75,127
61182,note_on,98,0,0,,4,,,76,127
61199,note_off,17,0,0,,1,,,73,127
61296,note_off,97,0,0,,12,,,59,127
61297,note_on,1,0,0,,12,,,59,127
61297,note_on,0,0,0,,3,,,75,127
61314,note_off,17,0,0,,4,,,76,127
61412,note_on,98,0,0,,6,,,78,127
61429,note_off,17,0,0,,3,,,75,127
61526,note_off,97,0,0,,12,,,59,127
61527,note_on,1,0,0,,12,,,59,127
61527,note_on,0,0,0,,4,,,76,127
61544,note_off,17,0,0,,6,,,78,127
61642,note_on,98,0,0,,7,,,79,127
61659,note_off,17,0,0,,4,,,76,127
61756,note_off,97,0,0,,12,,,71,127
61757,note_on,1,0,0,,12,,,71,127
61757,note_on,0,0,0,,2,,,74,127
61774,note_off,17,0,0,,7,,,79,127
61872,note_on,98,0,0,,6,,,78,127
61889,note_off,17,0,0,,2,,,74,127
61986,note_off,97,0,0,,12,,,59,127
61987,note_on,1,0,0,,12,,,59,127
61987,note_on,0,0,0,,0,,,72,127
62004,note_off,17,0,0,,6,,,78,127
62102,note_off,98,0,0,,12,,,71,127
62102,note_on,0,0,0,,4,,,76,127
62119,note_off,17,0,0,,0,,,72,127
62216,note_off,97,0,0,,12,,,59,127
62217,note_on,1,0,0,,12,,,59,127
62217,note_on,0,0,0,,12,,,71,127
62234,note_off,17,0,0,,4,,,76,127
62332,note_on,98,0,0,,3,,,75,127
62349,note_off,17,0,0,,12,,,71,127
62447,note_on,98,0,0,,10,,,69,127
62464,note_off,17,0,0,,3,,,75,127
62562,note_on,98,0,0,,0,,,72,127
62579,note_off,17,0,0,,10,,,69,127
62677,note_on,98,0,0,,7,,,67,127
62694,note_off,17,0,0,,0,,,72,127
62792,note_on,98,0,0,,12,,,71,127
62809,note_off,17,0,0,,7,,,67,127
62907,note_on,98,0,0,,12,,,47,127
62907,note_on,0,0,0,,10,,,69,127
62924,note_off,17,0,0,,12,,,71,127
63022,note_on,98,0,0,,0,,,72,127
63039,note_off,17,0,0,,10,,,69,127
63136,note_off,97,0,0,,12,,,59,127
63137,note_on,1,0,0,,12,,,59,127
63137,note_on,0,0,0,,7,,,67,127
63154,note_off,17,0,0,,0,,,72,127
63252,note_on,98,0,0,,12,,,71,127
63269,note_off,17,0,0,,7,,,67,127
63366,note_off,97,0,0,,12,,,47,127
63367,note_on,1,0,0,,12,,,47,127
63367,note_on,0,0,0,,6,,,66,127
63384,note_off,17,0,0,,12,,,71,127
63482,note_on,98,0,0,,10,,,69,127
63499,note_off,17,0,0,,6,,,66,127
63596,note_off,97,0,0,,12,,,47,127
63597,note_on,1,0,0,,12,,,47,127
63597,note_on,0,0,0,,7,,,67,127
63614,note_off,17,0,0,,10,,,69,127
63712,note_on,98,0,0,,12,,,71,127
63729,note_off,17,0,0,,7,,,67,127
63826,note_off,97,0,0,,12,,,59,127
63827,note_on,1,0,0,,12,,,59,127
63827,note_on,0,0,0,,6,,,66,127
63844,note_off,17,0,0,,12,,,71,127
63942,note_on,98,0,0,,10,,,69,127
63959,note_off,17,0,0,,6,,,66,127
64056,note_off,97,0,0,,12,,,47,127
64057,note_on,1,0,0,,12,,,47,127
64057,note_on,0,0,0,,4,,,64,127
64074,note_off,17,0,0,,10,,,69,127
64172,note_on,98,0,0,,7,,,67,127
64189,note_off,17,0,0,,4,,,64,127
64286,note_off,97,0,0,,12,,,47,127
64287,note_on,1,0,0,,12,,,47,127
64287,note_on,0,0,0,,6,,,66,127
64304,note_off,17,0,0,,7,,,67,127
64402,note_on,98,0,0,,10,,,69,127
64419,note_off,17,0,0,,6,,,66,127
64516,note_off,97,0,0,,12,,,59,127
64517,note_on,1,0,0,,12,,,59,127
64517,note_on,0,0,0,,4,,,64,127
64534,note_off,17,0,0,,10,,,69,127
64632,note_on,98,0,0,,7,,,67,127
64649,note_off,17,0,0,,4,,,64,127
64746,note_off,97,0,0,,12,,,47,127
64747,note_on,1,0,0,,12,,,47,127
64747,note_on,0,0,0,,3,,,63,127
64764,note_off,17,0,0,,7,,,67,127
64862,note_on,98,0,0,,6,,,66,127
64879,note_off,17,0,0,,3,,,63,127
64976,note_off,97,0,0,,12,,,47,127
64977,note_on,1,0,0,,12,,,47,127
64977,note_on,0,0,0,,4,,,64,127
64994,note_off,17,0,0,,6,,,66,127
65092,note_on,98,0,0,,7,,,67,127
65109,note_off,17,0,0,,4,,,64,127
65206,note_off,97,0,0,,12,,,59,127
65207,note_on,1,0,0,,12,,,59,127
65207,note_on,0,0,0,,6,,,66,127
65224,note_off,17,0,0,,7,,,67,127
65322,note_on,98,0,0,,10,,,69,127
65339,note_off,17,0,0,,6,,,66,127
65436,note_off,97,0,0,,12,,,47,127
65437,note_on,1,0,0,,12,,,47,127
65437,note_on,0,0,0,,7,,,67,127
65454,note_off,17,0,0,,10,,,69,127
65552,note_on,98,0,0,,12,,,71,127
65569,note_off,17,0,0,,7,,,67,127
65666,note_off,97,0,0,,12,,,47,127
65667,note_on,1,0,0,,12,,,47,127
65667,note_on,0,0,0,,6,,,66,127
65684,note_off,17,0,0,,12,,,71,127
65782,note_on,98,0,0,,10,,,69,127
65799,note_off,17,0,0,,6,,,66,127
65896,note_off,97,0,0,,12,,,59,127
65897,note_on,1,0,0,,12,,,59,127
65897,note_on,0,0,0,,4,,,64,127
65914,note_off,17,0,0,,10,,,69,127
66012,note_on,98,0,0,,7,,,67,127
66029,note_off,17,0,0,,4,,,64,127
66126,note_off,97,0,0,,12,,,47,127
66127,note_on,1,0,0,,12,,,47,127
66127,note_on,0,0,0,,3,,,63,127
66144,note_off,17,0,0,,7,,,67,127
66242,note_on,98,0,0,,6,,,66,127
66259,note_off,17,0,0,,3,,,63,127
66356,note_off,97,0,0,,12,,,47,127
66357,note_on,1,0,0,,12,,,47,127
66357,note_on,0,0,0,,4,,,64,127
66374,note_off,17,0,0,,6,,,66,127
66472,note_on,98,0,0,,7,,,67,127
66489,note_off,17,0,0,,4,,,64,127
66586,note_off,97,0,0,,12,,,59,127
66587,note_on,1,0,0,,12,,,59,127
66587,note_on,0,0,0,,6,,,66,127
66604,note_off,17,0,0,,7,,,67,127
66702,note_on,98,0,0,,10,,,69,127
66719,note_off,17,0,0,,6,,,66,127
66816,note_off,97,0,0,,12,,,47,127
66817,note_on,1,0,0,,12,,,47,127
66817,note_on,0,0,0,,7,,,67,127
66834,note_off,17,0,0,,10,,,69,127
66932,note_on,98,0,0,,12,,,71,127
66949,note_off,17,0,0,,7,,,67,127
67046,note_off,97,0,0,,12,,,47,127
67047,note_on,1,0,0,,12,,,47,127
67047,note_on,0,0,0,,6,,,66,127
67064,note_off,17,0,0,,12,,,71,127
67162,note_on,98,0,0,,10,,,69,127
67179,note_off,17,0,0,,6,,,66,127
67276,note_off,97,0,0,,12,,,59,127
67277,note_on,1,0,0,,12,,,59,127
67277,note_on,0,0,0,,4,,,64,127
67294,note_off,17,0,0,,10,,,69,127
67392,note_on,98,0,0,,7,,,67,127
67409,note_off,17,0,0,,4,,,64,127
67506,note_off,97,0,0,,12,,,47,127
67507,note_on,1,0,0,,12,,,47,127
67507,note_on,0,0,0,,3,,,63,127
67524,note_off,17,0,0,,7,,,67,127
67622,note_off,98,0,0,,12,,,59,127
67622,note_on,0,0,0,,6,,,66,127
67639,note_off,17,0,0,,3,,,63,127
67736,note_off,97,0,0,,6,,,66,127
67736,note_off,0,0,0,,12,,,47,127
67737,note_on,1,0,0,,4,,,52,127
67737,note_on,0,0,0,,4,,,64,127
67852,note_on,115,0,0,,12,,,47,127
67869,note_off,17,0,0,,4,,,52,127
67967,note_on,98,0,0,,4,,,52,127
67984,note_off,17,0,0,,12,,,47,127
68082,note_on,98,0,0,,7,,,55,127
68099,note_off,17,0,0,,4,,,52,127
68196,note_off,97,0,0,,4,,,64,127
68197,note_on,1,0,0,,12,,,59,127
68214,note_off,17,0,0,,7,,,55,127
68312,note_on,98,0,0,,4,,,52,127
68329,note_off,17,0,0,,12,,,59,127
68427,note_on,98,0,0,,7,,,55,127
68444,note_off,17,0,0,,4,,,52,127
68542,note_on,98,0,0,,12,,,59,127
68559,note_off,17,0,0,,7,,,55,127
68657,note_on,98,0,0,,4,,,64,127
68674,note_off,17,0,0,,12,,,59,127
68772,note_on,98,0,0,,12,,,59,127
68789,note_off,17,0,0,,4,,,64,127
68887,note_on,98,0,0,,4,,,64,127
68904,note_off,17,0,0,,12,,,59,127
69002,note_on,98,0,0,,7,,,67,127
69019,note_off,17,0,0,,4,,,64,127
69117,note_on,98,0,0,,4,,,40,127
69117,note_on,0,0,0,,12,,,71,127
69134,note_off,17,0,0,,7,,,67,127
69232,note_on,98,0,0,,4,,,64,127
69249,note_off,17,0,0,,12,,,71,127
69347,note_on,98,0,0,,7,,,67,127
69364,note_off,17,0,0,,4,,,64,127
69462,note_on,98,0,0,,12,,,71,127
69479,note_off,17,0,0,,7,,,67,127
69577,note_on,98,0,0,,4,,,76,127
69594,note_off,17,0,0,,12,,,71,127
69692,note_on,98,0,0,,12,,,71,127
69781,note_off,89,0,0,,4,,,76,127
69806,note_off,25,0,0,,4,,,40,127
69807,note_on,1,0,0,,10,,,57,127
69807,note_on,0,0,0,,10,,,81,127
69872,note_off,65,0,0,,12,,,71,127
69922,note_on,50,0,0,,6,,,78,127
70011,note_off,89,0,0,,10,,,81,127
70036,note_off,25,0,0,,10,,,57,127
70037,note_on,1,0,0,,12,,,59,127
70037,note_on,0,0,0,,12,,,83,127
70054,note_off,17,0,0,,6,,,78,127
70152,note_on,98,0,0,,4,,,76,127
70241,note_off,89,0,0,,12,,,83,127
70266,note_off,25,0,0,,12,,,59,127
70267,note_on,1,0,0,,12,,,47,127
70267,note_on,0,0,0,,6,,,78,127
70284,note_off,17,0,0,,4,,,76,127
70382,note_on,98,0,0,,3,,,75,127
70399,note_off,17,0,0,,6,,,78,127
70496,note_off,97,0,0,,12,,,47,127
70497,note_on,1,0,0,,4,,,40,127
70497,note_on,0,0,0,,4,,,52,127
70497,note_on,0,0,0,,4,,,76,127
70497,note_on,0,0,0,,7,,,79,127
70514,note_off,17,0,0,,3,,,75,127
70612,note_on,98,0,0,,12,,,71,127
70726,note_off,114,0,0,,7,,,79,127
70726,note_off,0,0,0,,4,,,76,127
70726,note_off,0,0,0,,4,,,52,127
70726,note_off,0,0,0,,4,,,40,127
70727,note_on,1,0,0,,7,,,43,127
70727,note_on,0,0,0,,7,,,55,127
70727,note_on,0,0,0,,0,,,72,127
70744,note_off,17,0,0,,12,,,71,127
70842,note_on,98,0,0,,12,,,71,127
70859,note_off,17,0,0,,0,,,72,127
70956,note_off,97,0,0,,7,,,55,127
70956,note_off,0,0,0,,7,,,43,127
70957,note_on,1,0,0,,4,,,40,127
70957,note_on,0,0,0,,4,,,52,127
70957,note_on,0,0,0,,10,,,69,127
70974,note_off,17,0,0,,12,,,71,127
71072,note_on,98,0,0,,7,,,67,127
71089,note_off,17,0,0,,10,,,69,127
71186,note_off,97,0,0,,4,,,52,127
71186,note_off,0,0,0,,4,,,40,127
71187,note_on,1,0,0,,6,,,54,127
71187,note_on,0,0,0,,6,,,42,127
71187,note_on,0,0,0,,10,,,81,127
71187,note_on,0,0,0,,6,,,78,127
71204,note_off,17,0,0,,7,,,67,127
71302,note_on,98,0,0,,10,,,69,127
71391,note_off,89,0,0,,6,,,42,127
71391,note_off,0,0,0,,6,,,54,127
71416,note_off,25,0,0,,6,,,78,127
71416,note_off,0,0,0,,10,,,81,127
71417,note_on,1,0,0,,3,,,39,127
71417,note_on,0,0,0,,3,,,51,127
71417,note_on,0,0,0,,12,,,71,127
71434,note_off,17,0,0,,10,,,69,127
71532,note_on,98,0,0,,10,,,69,127
71549,note_off,17,0,0,,12,,,71,127
71621,note_off,72,0,0,,3,,,51,127
71621,note_off,0,0,0,,3,,,39,127
71647,note_on,26,0,0,,12,,,47,127
71647,note_on,0,0,0,,12,,,35,127
71647,note_on,0,0,0,,7,,,67,127
71664,note_off,17,0,0,,10,,,69,127
71762,note_on,98,0,0,,6,,,66,127
71779,note_off,17,0,0,,7,,,67,127
71851,note_off,72,0,0,,12,,,35,127
71851,note_off,0,0,0,,12,,,47,127
71877,note_on,26,0,0,,4,,,52,127
71877,note_on,0,0,0,,4,,,40,127
71877,note_on,0,0,0,,4,,,76,127
71877,note_on,0,0,0,,7,,,79,127
71894,note_off,17,0,0,,6,,,66,127
71992,note_on,98,0,0,,12,,,71,127
72106,note_off,114,0,0,,7,,,79,127
72106,note_off,0,0,0,,4,,,76,127
72106,note_off,0,0,0,,4,,,40,127
72106,note_off,0,0,0,,4,,,52,127
72107,note_on,1,0,0,,7,,,55,127
72107,note_on,0,0,0,,7,,,43,127
72107,note_on,0,0,0,,0,,,72,127
72124,note_off,17,0,0,,12,,,71,127
72222,note_on,98,0,0,,12,,,71,127
72239,note_off,17,0,0,,0,,,72,127
72336,note_off,97,0,0,,7,,,43,127
72336,note_off,0,0,0,,7,,,55,127
72337,note_on,1,0,0,,4,,,40,127
72337,note_on,0,0,0,,4,,,52,127
72337,note_on,0,0,0,,10,,,69,127
72354,note_off,17,0,0,,12,,,71,127
72452,note_on,98,0,0,,7,,,67,127
72469,note_off,17,0,0,,10,,,69,127
72566,note_off,97,0,0,,4,,,52,127
72566,note_off,0,0,0,,4,,,40,127
72567,note_on,1,0,0,,6,,,54,127
72567,note_on,0,0,0,,6,,,42,127
72567,note_on,0,0,0,,10,,,81,127
72567,note_on,0,0,0,,6,,,78,127
72584,note_off,17,0,0,,7,,,67,127
72682,note_on,98,0,0,,10,,,69,127
72771,note_off,89,0,0,,6,,,42,127
72771,note_off,0,0,0,,6,,,54,127
72796,note_off,25,0,0,,6,,,78,127
72796,note_off,0,0,0,,10,,,81,127
72797,note_on,1,0,0,,3,,,39,127
72797,note_on,0,0,0,,3,,,51,127
72797,note_on,0,0,0,,12,,,71,127
72814,note_off,17,0,0,,10,,,69,127
72912,note_on,98,0,0,,10,,,69,127
72929,note_off,17,0,0,,12,,,71,127
73001,note_off,72,0,0,,3,,,51,127
73001,note_off,0,0,0,,3,,,39,127
73027,note_on,26,0,0,,12,,,47,127
73027,note_on,0,0,0,,12,,,35,127
73027,note_on,0,0,0,,7,,,67,127
73044,note_off,17,0,0,,10,,,69,127
73142,note_on,98,0,0,,6,,,66,127
73159,note_off,17,0,0,,7,,,67,127
73231,note_off,72,0,0,,12,,,35,127
73231,note_off,0,0,0,,12,,,47,127
73257,note_on,26,0,0,,4,,,52,127
73257,note_on,0,0,0,,4,,,40,127
73257,note_on,0,0,0,,4,,,76,127
73257,note_on,0,0,0,,7,,,79,127
73274,note_off,17,0,0,,6,,,66,127
73372,note_on,98,0,0,,12,,,71,127
73430,note_off,58,0,0,,7,,,79,127
73430,note_off,0,0,0,,4,,,76,127
73486,note_off,56,0,0,,4,,,40,127
73486,note_off,0,0,0,,4,,,52,127
73487,note_on,1,0,0,,7,,,43,127
73487,note_on,0,0,0,,7,,,55,127
73487,note_on,0,0,0,,0,,,72,127
73504,note_off,17,0,0,,12,,,71,127
73602,note_on,98,0,0,,12,,,71,127
73619,note_off,17,0,0,,0,,,72,127
73716,note_off,97,0,0,,7,,,55,127
73716,note_off,0,0,0,,7,,,43,127
73717,note_on,1,0,0,,4,,,40,127
73717,note_on,0,0,0,,4,,,52,127
73717,note_on,0,0,0,,10,,,69,127
73734,note_off,17,0,0,,12,,,71,127
73832,note_on,98,0,0,,7,,,67,127
73849,note_off,17,0,0,,10,,,69,127
73946,note_off,97,0,0,,4,,,52,127
73946,note_off,0,0,0,,4,,,40,127
73947,note_on,1,0,0,,6,,,42,127
73947,note_on,0,0,0,,6,,,54,127
73947,note_on,0,0,0,,6,,,78,127
73947,note_on,0,0,0,,10,,,81,127
73964,note_off,17,0,0,,7,,,67,127
74062,note_on,98,0,0,,10,,,69,127
74120,note_off,58,0,0,,10,,,81,127
74120,note_off,0,0,0,,6,,,78,127
74151,note_off,31,0,0,,6,,,54,127
74151,note_off,0,0,0,,6,,,42,127
74177,note_on,26,0,0,,3,,,39,127
74177,note_on,0,0,0,,3,,,51,127
74177,note_on,0,0,0,,12,,,71,127
74194,note_off,17,0,0,,10,,,69,127
74292,note_on,98,0,0,,10,,,69,127
74309,note_off,17,0,0,,12,,,71,127
74381,note_off,72,0,0,,3,,,51,127
74381,note_off,0,0,0,,3,,,39,127
74407,note_on,26,0,0,,12,,,47,127
74407,note_on,0,0,0,,12,,,35,127
74407,note_on,0,0,0,,7,,,67,127
74424,note_off,17,0,0,,10,,,69,127
74522,note_on,98,0,0,,6,,,66,127
74539,note_off,17,0,0,,7,,,67,127
74611,note_off,72,0,0,,12,,,35,127
74611,note_off,0,0,0,,12,,,47,127
74637,note_on,26,0,0,,4,,,40,127
74637,note_on,0,0,0,,4,,,52,127
74637,note_on,0,0,0,,7,,,67,127
74654,note_off,17,0,0,,6,,,66,127
74752,note_on,98,0,0,,4,,,64,127
74769,note_off,17,0,0,,7,,,67,127
74866,note_off,97,0,0,,4,,,52,127
74866,note_off,0,0,0,,4,,,40,127
74867,note_on,1,0,0,,6,,,42,127
74867,note_on,0,0,0,,6,,,54,127
74867,note_on,0,0,0,,7,,,67,127
74884,note_off,17,0,0,,4,,,64,127
74982,note_on,98,0,0,,12,,,71,127
74999,note_off,17,0,0,,7,,,67,127
75096,note_off,97,0,0,,6,,,54,127
75096,note_off,0,0,0,,6,,,42,127
75097,note_on,1,0,0,,7,,,43,127
75097,note_on,0,0,0,,7,,,55,127
75097,note_on,0,0,0,,4,,,76,127
75114,note_off,17,0,0,,12,,,71,127
75212,note_on,98,0,0,,12,,,71,127
75229,note_off,17,0,0,,4,,,76,127
75326,note_off,97,0,0,,7,,,55,127
75326,note_off,0,0,0,,7,,,43,127
75327,note_on,1,0,0,,10,,,57,127
75327,note_on,0,0,0,,10,,,45,127
75327,note_on,0,0,0,,10,,,81,127
75344,note_off,17,0,0,,12,,,71,127
75442,note_on,98,0,0,,6,,,78,127
75459,note_off,17,0,0,,10,,,81,127
75556,note_off,97,0,0,,10,,,45,127
75556,note_off,0,0,0,,10,,,57,127
75557,note_on,1,0,0,,12,,,59,127
75557,note_on,0,0,0,,12,,,47,127
75557,note_on,0,0,0,,12,,,83,127
75574,note_off,17,0,0,,6,,,78,127
75672,note_on,98,0,0,,4,,,76,127
75689,note_off,17,0,0,,12,,,83,127
75761,note_off,72,0,0,,12,,,59,127
75787,note_on,26,0,0,,12,,,35,127
75787,note_on,0,0,0,,6,,,78,127
75804,note_off,17,0,0,,4,,,76,127
75902,note_on,98,0,0,,3,,,75,127
75919,note_off,17,0,0,,6,,,78,127
75965,note_off,46,0,0,,12,,,47,127
76017,note_off,52,0,0,,12,,,35,127
76018,note_on,1,0,0,,4,,,40,127
76018,note_on,0,0,0,,4,,,76,127
76035,note_off,17,0,0,,3,,,75,127
76133,note_on,98,0,0,,7,,,79,127
76150,note_off,17,0,0,,4,,,76,127
76248,note_on,98,0,0,,4,,,76,127
76265,note_off,17,0,0,,7,,,79,127
76363,note_on,98,0,0,,12,,,71,127
76380,note_off,17,0,0,,4,,,76,127
76478,note_on,98,0,0,,7,,,67,127
76495,note_off,17,0,0,,12,,,71,127
76593,note_on,98,0,0,,4,,,64,127
76610,note_off,17,0,0,,7,,,67,127
76708,note_on,98,0,0,,12,,,59,127
76725,note_off,17,0,0,,4,,,64,127
76823,note_on,98,0,0,,7,,,55,127
76840,note_off,17,0,0,,12,,,59,127
76938,note_on,98,0,0,,4,,,52,127
76955,note_off,17,0,0,,7,,,55,127
77053,note_on,98,0,0,,12,,,47,127
77070,note_off,17,0,0,,4,,,52,127
77167,note_off,97,0,0,,4,,,40,127
77185,note_off,18,0,0,,12,,,47,127
77185,note_on,0,0,0,,4,,,40,127
78552,note_off,1367,0,0,,4,,,40,127
82944,end_of_track,4392,1,0,,,,,,
