tick,type,time,meta,track,program,channel,pitch,tempo,note,velocity
0,copyright,0,1,0,,,,,,
0,program_change,0,0,0,6,0,,,,
0,pitchwheel,0,0,0,,0,0,,,
0,program_change,0,0,0,6,1,,,,
0,pitchwheel,0,0,0,,1,-590,,,
0,program_change,0,0,0,6,2,,,,
0,pitchwheel,0,0,0,,2,-272,,,
0,program_change,0,0,0,6,3,,,,
0,pitchwheel,0,0,0,,3,-353,,,
0,program_change,0,0,0,6,4,,,,
0,pitchwheel,0,0,0,,4,-560,,,
0,program_change,0,0,0,6,5,,,,
0,pitchwheel,0,0,0,,5,-80,,,
0,program_change,0,0,0,6,6,,,,
0,pitchwheel,0,0,0,,6,-625,,,
0,program_change,0,0,0,6,7,,,,
0,pitchwheel,0,0,0,,7,-130,,,
0,program_change,0,0,0,6,8,,,,
0,pitchwheel,0,0,0,,8,-512,,,
0,program_change,0,0,0,6,10,,,,
0,pitchwheel,0,0,0,,10,-464,,,
0,program_change,0,0,0,6,11,,,,
0,pitchwheel,0,0,0,,11,-208,,,
0,program_change,0,0,0,6,12,,,,
0,pitchwheel,0,0,0,,12,-553,,,
0,set_tempo,0,1,0,,,,500000,,
89,note_on,89,0,0,,11,,,82,127
798,note_off,709,0,0,,11,,,82,127
798,note_on,0,0,0,,10,,,81,127
857,note_on,59,0,0,,11,,,82,127
864,note_off,7,0,0,,10,,,81,127
916,note_on,52,0,0,,10,,,81,127
923,note_off,7,0,0,,11,,,82,127
975,note_on,52,0,0,,11,,,82,127
982,note_off,7,0,0,,10,,,81,127
1034,note_on,52,0,0,,10,,,81,127
1041,note_off,7,0,0,,11,,,82,127
1093,note_on,52,0,0,,11,,,82,127
1100,note_off,7,0,0,,10,,,81,127
1152,note_on,52,0,0,,10,,,81,127
1159,note_off,7,0,0,,11,,,82,127
1329,note_off,170,0,0,,10,,,81,127
1329,note_on,0,0,0,,11,,,82,127
1506,note_off,177,0,0,,11,,,82,127
1506,note_on,0,0,0,,11,,,70,127
1506,note_on,0,0,0,,5,,,77,127
2215,note_off,709,0,0,,11,,,70,127
2215,note_on,0,0,0,,10,,,69,127
2274,note_on,59,0,0,,11,,,70,127
2281,note_off,7,0,0,,10,,,69,127
2333,note_on,52,0,0,,10,,,69,127
2340,note_off,7,0,0,,11,,,70,127
2392,note_on,52,0,0,,11,,,70,127
2399,note_off,7,0,0,,10,,,69,127
2451,note_on,52,0,0,,10,,,69,127
2458,note_off,7,0,0,,11,,,70,127
2510,note_on,52,0,0,,11,,,70,127
2517,note_off,7,0,0,,10,,,69,127
2569,note_on,52,0,0,,10,,,69,127
2576,note_off,7,0,0,,11,,,70,127
2746,note_off,170,0,0,,10,,,69,127
2746,note_off,0,0,0,,5,,,77,127
2746,note_on,0,0,0,,11,,,70,127
2746,note_on,0,0,0,,5,,,77,127
2923,note_off,177,0,0,,5,,,77,127
2923,note_off,0,0,0,,11,,,70,127
2923,note_on,0,0,0,,5,,,65,127
2923,note_on,0,0,0,,11,,,70,127
3100,note_off,177,0,0,,11,,,70,127
3100,note_on,0,0,0,,10,,,69,127
3277,note_off,177,0,0,,10,,,69,127
3277,note_on,0,0,0,,7,,,79,127
3454,note_off,177,0,0,,7,,,79,127
3454,note_on,0,0,0,,5,,,77,127
3631,note_off,177,0,0,,5,,,77,127
3631,note_off,0,0,0,,5,,,65,127
3631,note_on,0,0,0,,2,,,62,127
3631,note_on,0,0,0,,0,,,72,127
3808,note_off,177,0,0,,0,,,72,127
3808,note_on,0,0,0,,11,,,70,127
3985,note_off,177,0,0,,11,,,70,127
3985,note_on,0,0,0,,7,,,79,127
4162,note_off,177,0,0,,7,,,79,127
4162,note_on,0,0,0,,5,,,77,127
4339,note_off,177,0,0,,5,,,77,127
4339,note_off,0,0,0,,2,,,62,127
4339,note_on,0,0,0,,3,,,63,127
4339,note_on,0,0,0,,8,,,68,127
4516,note_off,177,0,0,,8,,,68,127
4516,note_on,0,0,0,,7,,,67,127
4693,note_off,177,0,0,,7,,,67,127
4693,note_on,0,0,0,,7,,,79,127
4870,note_off,177,0,0,,7,,,79,127
4870,note_on,0,0,0,,5,,,77,127
5047,note_off,177,0,0,,5,,,77,127
5047,note_off,0,0,0,,3,,,63,127
5047,note_on,0,0,0,,4,,,64,127
5047,note_on,0,0,0,,0,,,72,127
5224,note_off,177,0,0,,0,,,72,127
5224,note_on,0,0,0,,11,,,70,127
5401,note_off,177,0,0,,11,,,70,127
5401,note_on,0,0,0,,7,,,79,127
5578,note_off,177,0,0,,7,,,79,127
5578,note_on,0,0,0,,5,,,77,127
5755,note_off,177,0,0,,5,,,77,127
5755,note_off,0,0,0,,4,,,64,127
5755,note_on,0,0,0,,5,,,65,127
5755,note_on,0,0,0,,11,,,70,127
5932,note_off,177,0,0,,11,,,70,127
5932,note_on,0,0,0,,10,,,69,127
6109,note_off,177,0,0,,10,,,69,127
6109,note_on,0,0,0,,7,,,79,127
6286,note_off,177,0,0,,7,,,79,127
6286,note_on,0,0,0,,5,,,77,127
6463,note_off,177,0,0,,5,,,77,127
6463,note_off,0,0,0,,5,,,65,127
6463,note_on,0,0,0,,10,,,69,127
6463,note_on,0,0,0,,3,,,75,127
6640,note_off,177,0,0,,3,,,75,127
6640,note_on,0,0,0,,2,,,74,127
6817,note_off,177,0,0,,2,,,74,127
6817,note_on,0,0,0,,0,,,84,127
6994,note_on,177,0,0,,3,,,75,127
7083,note_off,89,0,0,,0,,,84,127
7172,note_off,89,0,0,,3,,,75,127
7172,note_off,0,0,0,,10,,,69,127
7172,note_on,0,0,0,,11,,,70,127
7172,note_on,0,0,0,,5,,,77,127
7261,note_off,89,0,0,,5,,,77,127
7261,note_on,0,0,0,,3,,,75,127
7350,note_off,89,0,0,,3,,,75,127
7350,note_on,0,0,0,,2,,,74,127
7439,note_off,89,0,0,,2,,,74,127
7439,note_on,0,0,0,,3,,,75,127
7528,note_off,89,0,0,,3,,,75,127
7528,note_off,0,0,0,,11,,,70,127
7528,note_on,0,0,0,,11,,,58,127
7528,note_on,0,0,0,,2,,,74,127
7882,note_off,354,0,0,,2,,,74,127
7882,note_on,0,0,0,,11,,,46,127
8236,note_off,354,0,0,,11,,,58,127
8237,note_on,1,0,0,,11,,,58,127
8591,note_off,354,0,0,,11,,,46,127
8591,note_on,0,0,0,,11,,,70,127
8768,note_off,177,0,0,,11,,,70,127
8768,note_on,0,0,0,,0,,,72,127
8857,note_off,89,0,0,,0,,,72,127
8857,note_on,0,0,0,,2,,,74,127
8946,note_off,89,0,0,,2,,,74,127
8946,note_off,0,0,0,,11,,,58,127
8946,note_on,0,0,0,,11,,,70,127
8946,note_on,0,0,0,,3,,,75,127
9123,note_off,177,0,0,,3,,,75,127
9123,note_on,0,0,0,,5,,,77,127
9300,note_off,177,0,0,,5,,,77,127
9300,note_off,0,0,0,,11,,,70,127
9300,note_on,0,0,0,,3,,,75,127
9300,note_on,0,0,0,,7,,,79,127
9389,note_off,89,0,0,,7,,,79,127
9389,note_on,0,0,0,,5,,,77,127
9478,note_off,89,0,0,,5,,,77,127
9478,note_on,0,0,0,,7,,,79,127
9655,note_off,177,0,0,,7,,,79,127
9655,note_off,0,0,0,,3,,,75,127
9655,note_on,0,0,0,,0,,,72,127
9655,note_on,0,0,0,,10,,,81,127
9744,note_off,89,0,0,,10,,,81,127
9744,note_on,0,0,0,,7,,,79,127
9833,note_off,89,0,0,,7,,,79,127
9833,note_on,0,0,0,,10,,,81,127
10010,note_off,177,0,0,,10,,,81,127
10010,note_off,0,0,0,,0,,,72,127
10010,note_on,0,0,0,,11,,,70,127
10010,note_on,0,0,0,,11,,,82,127
10364,note_off,354,0,0,,11,,,70,127
10364,note_on,0,0,0,,11,,,58,127
10364,note_on,0,0,0,,11,,,70,127
10718,note_off,354,0,0,,11,,,70,127
10718,note_off,0,0,0,,11,,,82,127
10718,note_on,0,0,0,,11,,,46,127
10718,note_on,0,0,0,,0,,,72,127
10777,note_on,59,0,0,,11,,,70,127
10784,note_off,7,0,0,,0,,,72,127
10836,note_on,52,0,0,,0,,,72,127
10843,note_off,7,0,0,,11,,,70,127
10895,note_on,52,0,0,,11,,,70,127
10902,note_off,7,0,0,,0,,,72,127
10954,note_on,52,0,0,,0,,,72,127
10961,note_off,7,0,0,,11,,,70,127
11013,note_on,52,0,0,,11,,,70,127
11020,note_off,7,0,0,,0,,,72,127
11071,note_off,51,0,0,,11,,,58,127
11072,note_on,1,0,0,,11,,,58,127
11072,note_on,0,0,0,,0,,,72,127
11079,note_off,7,0,0,,11,,,70,127
11131,note_on,52,0,0,,11,,,70,127
11138,note_off,7,0,0,,0,,,72,127
11190,note_on,52,0,0,,0,,,72,127
11197,note_off,7,0,0,,11,,,70,127
11249,note_on,52,0,0,,11,,,70,127
11256,note_off,7,0,0,,0,,,72,127
11308,note_on,52,0,0,,10,,,69,127
11315,note_off,7,0,0,,11,,,70,127
11367,note_on,52,0,0,,11,,,70,127
11374,note_off,7,0,0,,10,,,69,127
11426,note_off,52,0,0,,11,,,46,127
11603,note_off,177,0,0,,11,,,70,127
11603,note_on,0,0,0,,0,,,72,127
11692,note_off,89,0,0,,0,,,72,127
11692,note_on,0,0,0,,2,,,74,127
11781,note_off,89,0,0,,2,,,74,127
11781,note_off,0,0,0,,11,,,58,127
11781,note_on,0,0,0,,11,,,70,127
11781,note_on,0,0,0,,3,,,75,127
11958,note_off,177,0,0,,3,,,75,127
11958,note_on,0,0,0,,5,,,77,127
12135,note_off,177,0,0,,5,,,77,127
12135,note_off,0,0,0,,11,,,70,127
12135,note_on,0,0,0,,3,,,75,127
12135,note_on,0,0,0,,7,,,79,127
12224,note_off,89,0,0,,7,,,79,127
12224,note_on,0,0,0,,5,,,77,127
12313,note_off,89,0,0,,5,,,77,127
12313,note_on,0,0,0,,7,,,79,127
12490,note_off,177,0,0,,7,,,79,127
12490,note_off,0,0,0,,3,,,75,127
12490,note_on,0,0,0,,0,,,72,127
12490,note_on,0,0,0,,10,,,81,127
12579,note_off,89,0,0,,10,,,81,127
12579,note_on,0,0,0,,7,,,79,127
12668,note_off,89,0,0,,7,,,79,127
12668,note_on,0,0,0,,10,,,81,127
12845,note_off,177,0,0,,10,,,81,127
12845,note_off,0,0,0,,0,,,72,127
12845,note_on,0,0,0,,11,,,70,127
12845,note_on,0,0,0,,11,,,82,127
13022,note_off,177,0,0,,11,,,70,127
13022,note_on,0,0,0,,2,,,74,127
13199,note_off,177,0,0,,2,,,74,127
13199,note_on,0,0,0,,7,,,67,127
13376,note_off,177,0,0,,7,,,67,127
13376,note_on,0,0,0,,11,,,70,127
13553,note_off,177,0,0,,11,,,70,127
13553,note_on,0,0,0,,3,,,63,127
13730,note_off,177,0,0,,3,,,63,127
13730,note_on,0,0,0,,7,,,67,127
13907,note_off,177,0,0,,7,,,67,127
13907,note_off,0,0,0,,11,,,82,127
13907,note_on,0,0,0,,0,,,60,127
13907,note_on,0,0,0,,3,,,75,127
13907,note_on,0,0,0,,10,,,69,127
14084,note_off,177,0,0,,0,,,60,127
14084,note_on,0,0,0,,5,,,65,127
14261,note_off,177,0,0,,5,,,65,127
14261,note_off,0,0,0,,10,,,69,127
14261,note_off,0,0,0,,3,,,75,127
14261,note_on,0,0,0,,11,,,58,127
14261,note_on,0,0,0,,11,,,70,127
14261,note_on,0,0,0,,3,,,75,127
14320,note_on,59,0,0,,2,,,74,127
14327,note_off,7,0,0,,3,,,75,127
14379,note_on,52,0,0,,3,,,75,127
14386,note_off,7,0,0,,2,,,74,127
14438,note_off,52,0,0,,11,,,58,127
14438,note_on,0,0,0,,2,,,62,127
14438,note_on,0,0,0,,2,,,74,127
14445,note_off,7,0,0,,3,,,75,127
14497,note_on,52,0,0,,3,,,75,127
14504,note_off,7,0,0,,2,,,74,127
14556,note_on,52,0,0,,2,,,74,127
14563,note_off,7,0,0,,3,,,75,127
14615,note_off,52,0,0,,2,,,62,127
14615,note_on,0,0,0,,7,,,55,127
14615,note_on,0,0,0,,3,,,75,127
14622,note_off,7,0,0,,2,,,74,127
14674,note_on,52,0,0,,2,,,74,127
14681,note_off,7,0,0,,3,,,75,127
14733,note_on,52,0,0,,3,,,75,127
14740,note_off,7,0,0,,2,,,74,127
14792,note_off,52,0,0,,7,,,55,127
14792,note_on,0,0,0,,11,,,58,127
14792,note_on,0,0,0,,2,,,74,127
14799,note_off,7,0,0,,3,,,75,127
14851,note_on,52,0,0,,0,,,72,127
14858,note_off,7,0,0,,2,,,74,127
14910,note_on,52,0,0,,2,,,74,127
14917,note_off,7,0,0,,0,,,72,127
14969,note_off,52,0,0,,11,,,58,127
14969,note_on,0,0,0,,3,,,51,127
14969,note_on,0,0,0,,3,,,75,127
14976,note_off,7,0,0,,2,,,74,127
15146,note_off,170,0,0,,3,,,51,127
15146,note_on,0,0,0,,7,,,55,127
15323,note_off,177,0,0,,7,,,55,127
15323,note_off,0,0,0,,11,,,70,127
15323,note_on,0,0,0,,0,,,48,127
15323,note_on,0,0,0,,10,,,69,127
15500,note_off,177,0,0,,10,,,69,127
15500,note_off,0,0,0,,0,,,48,127
15500,note_on,0,0,0,,5,,,53,127
15677,note_off,177,0,0,,5,,,53,127
15677,note_off,0,0,0,,3,,,75,127
15677,note_on,0,0,0,,11,,,46,127
15677,note_on,0,0,0,,11,,,70,127
15677,note_on,0,0,0,,3,,,75,127
15736,note_on,59,0,0,,2,,,74,127
15743,note_off,7,0,0,,3,,,75,127
15795,note_on,52,0,0,,3,,,75,127
15802,note_off,7,0,0,,2,,,74,127
15854,note_off,52,0,0,,11,,,46,127
15854,note_on,0,0,0,,2,,,50,127
15854,note_on,0,0,0,,2,,,74,127
15861,note_off,7,0,0,,3,,,75,127
15913,note_on,52,0,0,,3,,,75,127
15920,note_off,7,0,0,,2,,,74,127
15972,note_on,52,0,0,,2,,,74,127
15979,note_off,7,0,0,,3,,,75,127
16031,note_off,52,0,0,,2,,,50,127
16031,note_on,0,0,0,,7,,,43,127
16031,note_on,0,0,0,,3,,,75,127
16038,note_off,7,0,0,,2,,,74,127
16090,note_on,52,0,0,,2,,,74,127
16097,note_off,7,0,0,,3,,,75,127
16149,note_on,52,0,0,,3,,,75,127
16156,note_off,7,0,0,,2,,,74,127
16208,note_off,52,0,0,,7,,,43,127
16208,note_on,0,0,0,,11,,,46,127
16208,note_on,0,0,0,,2,,,74,127
16215,note_off,7,0,0,,3,,,75,127
16267,note_on,52,0,0,,0,,,72,127
16274,note_off,7,0,0,,2,,,74,127
16326,note_on,52,0,0,,2,,,74,127
16333,note_off,7,0,0,,0,,,72,127
16385,note_off,52,0,0,,11,,,46,127
16385,note_on,0,0,0,,3,,,39,127
16385,note_on,0,0,0,,3,,,75,127
16392,note_off,7,0,0,,2,,,74,127
16562,note_off,170,0,0,,3,,,39,127
16562,note_on,0,0,0,,7,,,43,127
16739,note_off,177,0,0,,7,,,43,127
16739,note_off,0,0,0,,11,,,70,127
16739,note_on,0,0,0,,0,,,36,127
16739,note_on,0,0,0,,10,,,69,127
16916,note_off,177,0,0,,10,,,69,127
16916,note_on,0,0,0,,5,,,41,127
17005,note_off,89,0,0,,0,,,36,127
17094,note_off,89,0,0,,5,,,41,127
17094,note_off,0,0,0,,3,,,75,127
17094,note_on,0,0,0,,11,,,34,127
17094,note_on,0,0,0,,2,,,74,127
17271,note_off,177,0,0,,2,,,74,127
17271,note_on,0,0,0,,0,,,72,127
17448,note_off,177,0,0,,0,,,72,127
17448,note_on,0,0,0,,11,,,46,127
17448,note_on,0,0,0,,11,,,70,127
17625,note_off,177,0,0,,11,,,70,127
17625,note_off,0,0,0,,11,,,34,127
17625,note_on,0,0,0,,10,,,69,127
17802,note_off,177,0,0,,10,,,69,127
17802,note_on,0,0,0,,11,,,58,127
17802,note_on,0,0,0,,11,,,70,127
17891,note_off,89,0,0,,11,,,70,127
17891,note_on,0,0,0,,10,,,69,127
17980,note_off,89,0,0,,10,,,69,127
17980,note_off,0,0,0,,11,,,46,127
17980,note_on,0,0,0,,11,,,70,127
18069,note_off,89,0,0,,11,,,70,127
18069,note_on,0,0,0,,10,,,69,127
18158,note_off,89,0,0,,10,,,69,127
18158,note_on,0,0,0,,11,,,70,127
18247,note_off,89,0,0,,11,,,70,127
18247,note_on,0,0,0,,10,,,69,127
18336,note_off,89,0,0,,10,,,69,127
18336,note_on,0,0,0,,11,,,70,127
18513,note_off,177,0,0,,11,,,70,127
18513,note_off,0,0,0,,11,,,58,127
18513,note_on,0,0,0,,11,,,46,127
18513,note_on,0,0,0,,5,,,65,127
18690,note_off,177,0,0,,5,,,65,127
18690,note_on,0,0,0,,7,,,67,127
18779,note_off,89,0,0,,7,,,67,127
18779,note_on,0,0,0,,10,,,69,127
18868,note_off,89,0,0,,10,,,69,127
18868,note_on,0,0,0,,11,,,58,127
18868,note_on,0,0,0,,11,,,70,127
19045,note_off,177,0,0,,11,,,70,127
19045,note_on,0,0,0,,0,,,72,127
19222,note_off,177,0,0,,0,,,72,127
19222,note_off,0,0,0,,11,,,58,127
19222,note_off,0,0,0,,11,,,46,127
19222,note_on,0,0,0,,2,,,62,127
19222,note_on,0,0,0,,2,,,74,127
19399,note_off,177,0,0,,2,,,74,127
19399,note_on,0,0,0,,11,,,70,127
19576,note_off,177,0,0,,11,,,70,127
19576,note_off,0,0,0,,2,,,62,127
19576,note_on,0,0,0,,11,,,58,127
19576,note_on,0,0,0,,10,,,69,127
19753,note_off,177,0,0,,10,,,69,127
19753,note_on,0,0,0,,11,,,70,127
19930,note_off,177,0,0,,11,,,70,127
19930,note_off,0,0,0,,11,,,58,127
19930,note_on,0,0,0,,5,,,41,127
19930,note_on,0,0,0,,12,,,71,127
20107,note_off,177,0,0,,12,,,71,127
20107,note_on,0,0,0,,0,,,72,127
20284,note_off,177,0,0,,0,,,72,127
20284,note_on,0,0,0,,5,,,53,127
20284,note_on,0,0,0,,12,,,71,127
20461,note_off,177,0,0,,12,,,71,127
20461,note_on,0,0,0,,0,,,72,127
20638,note_off,177,0,0,,0,,,72,127
20638,note_off,0,0,0,,5,,,53,127
20638,note_off,0,0,0,,5,,,41,127
20638,note_on,0,0,0,,10,,,57,127
20638,note_on,0,0,0,,12,,,71,127
20815,note_off,177,0,0,,12,,,71,127
20815,note_on,0,0,0,,0,,,72,127
20992,note_off,177,0,0,,0,,,72,127
20992,note_off,0,0,0,,10,,,57,127
20992,note_on,0,0,0,,5,,,53,127
20992,note_on,0,0,0,,12,,,71,127
21169,note_off,177,0,0,,12,,,71,127
21169,note_on,0,0,0,,0,,,72,127
21335,note_off,166,0,0,,0,,,72,127
21346,note_off,11,0,0,,5,,,53,127
21346,note_on,0,0,0,,11,,,46,127
21346,note_on,0,0,0,,5,,,65,127
21523,note_off,177,0,0,,5,,,65,127
21523,note_on,0,0,0,,7,,,67,127
21612,note_off,89,0,0,,7,,,67,127
21612,note_on,0,0,0,,10,,,69,127
21701,note_off,89,0,0,,10,,,69,127
21701,note_on,0,0,0,,11,,,58,127
21701,note_on,0,0,0,,11,,,70,127
21878,note_off,177,0,0,,11,,,70,127
21878,note_on,0,0,0,,0,,,72,127
22055,note_off,177,0,0,,0,,,72,127
22055,note_off,0,0,0,,11,,,58,127
22055,note_off,0,0,0,,11,,,46,127
22055,note_on,0,0,0,,2,,,62,127
22055,note_on,0,0,0,,2,,,74,127
22232,note_off,177,0,0,,2,,,74,127
22232,note_on,0,0,0,,11,,,70,127
22409,note_off,177,0,0,,11,,,70,127
22409,note_off,0,0,0,,2,,,62,127
22409,note_on,0,0,0,,11,,,58,127
22409,note_on,0,0,0,,10,,,69,127
22586,note_off,177,0,0,,10,,,69,127
22586,note_on,0,0,0,,11,,,70,127
22763,note_off,177,0,0,,11,,,70,127
22763,note_off,0,0,0,,11,,,58,127
22763,note_on,0,0,0,,5,,,41,127
22763,note_on,0,0,0,,12,,,71,127
22940,note_off,177,0,0,,12,,,71,127
22940,note_on,0,0,0,,0,,,72,127
23117,note_off,177,0,0,,0,,,72,127
23117,note_on,0,0,0,,5,,,53,127
23117,note_on,0,0,0,,12,,,71,127
23294,note_off,177,0,0,,12,,,71,127
23294,note_on,0,0,0,,0,,,72,127
23471,note_off,177,0,0,,0,,,72,127
23471,note_off,0,0,0,,5,,,53,127
23471,note_off,0,0,0,,5,,,41,127
23471,note_on,0,0,0,,10,,,57,127
23471,note_on,0,0,0,,12,,,71,127
23648,note_off,177,0,0,,12,,,71,127
23648,note_on,0,0,0,,0,,,72,127
23825,note_off,177,0,0,,0,,,72,127
23825,note_off,0,0,0,,10,,,57,127
23825,note_on,0,0,0,,5,,,53,127
23825,note_on,0,0,0,,12,,,71,127
24002,note_off,177,0,0,,12,,,71,127
24002,note_on,0,0,0,,0,,,72,127
24135,note_off,133,0,0,,0,,,72,127
24179,note_off,44,0,0,,5,,,53,127
24179,note_on,0,0,0,,5,,,41,127
24179,note_on,0,0,0,,0,,,72,127
24356,note_off,177,0,0,,0,,,72,127
24356,note_on,0,0,0,,2,,,74,127
24445,note_off,89,0,0,,2,,,74,127
24445,note_on,0,0,0,,4,,,76,127
24534,note_off,89,0,0,,4,,,76,127
24534,note_on,0,0,0,,5,,,53,127
24534,note_on,0,0,0,,5,,,77,127
24711,note_off,177,0,0,,5,,,77,127
24711,note_on,0,0,0,,7,,,79,127
24888,note_off,177,0,0,,7,,,79,127
24888,note_off,0,0,0,,5,,,53,127
24888,note_off,0,0,0,,5,,,41,127
24888,note_on,0,0,0,,10,,,57,127
24888,note_on,0,0,0,,10,,,81,127
25065,note_off,177,0,0,,10,,,81,127
25065,note_on,0,0,0,,5,,,77,127
25242,note_off,177,0,0,,5,,,77,127
25242,note_off,0,0,0,,10,,,57,127
25242,note_on,0,0,0,,5,,,53,127
25242,note_on,0,0,0,,4,,,76,127
25419,note_off,177,0,0,,4,,,76,127
25419,note_on,0,0,0,,5,,,77,127
25596,note_off,177,0,0,,5,,,77,127
25596,note_off,0,0,0,,5,,,53,127
25596,note_on,0,0,0,,0,,,48,127
25596,note_on,0,0,0,,6,,,78,127
25773,note_off,177,0,0,,6,,,78,127
25773,note_on,0,0,0,,7,,,79,127
25950,note_off,177,0,0,,7,,,79,127
25950,note_on,0,0,0,,0,,,60,127
25950,note_on,0,0,0,,6,,,78,127
26127,note_off,177,0,0,,6,,,78,127
26127,note_on,0,0,0,,7,,,79,127
26304,note_off,177,0,0,,7,,,79,127
26304,note_off,0,0,0,,0,,,60,127
26304,note_off,0,0,0,,0,,,48,127
26304,note_on,0,0,0,,4,,,64,127
26304,note_on,0,0,0,,6,,,78,127
26481,note_off,177,0,0,,6,,,78,127
26481,note_on,0,0,0,,7,,,79,127
26658,note_off,177,0,0,,7,,,79,127
26658,note_off,0,0,0,,4,,,64,127
26658,note_on,0,0,0,,0,,,60,127
26658,note_on,0,0,0,,6,,,78,127
26835,note_off,177,0,0,,6,,,78,127
26835,note_on,0,0,0,,7,,,79,127
26968,note_off,133,0,0,,7,,,79,127
27012,note_off,44,0,0,,0,,,60,127
27012,note_on,0,0,0,,5,,,41,127
27012,note_on,0,0,0,,0,,,72,127
27189,note_off,177,0,0,,0,,,72,127
27189,note_on,0,0,0,,2,,,74,127
27278,note_off,89,0,0,,2,,,74,127
27278,note_on,0,0,0,,4,,,76,127
27367,note_off,89,0,0,,4,,,76,127
27367,note_on,0,0,0,,5,,,53,127
27367,note_on,0,0,0,,5,,,77,127
27544,note_off,177,0,0,,5,,,77,127
27544,note_on,0,0,0,,7,,,79,127
27721,note_off,177,0,0,,7,,,79,127
27721,note_off,0,0,0,,5,,,53,127
27721,note_off,0,0,0,,5,,,41,127
27721,note_on,0,0,0,,10,,,57,127
27721,note_on,0,0,0,,10,,,81,127
27898,note_off,177,0,0,,10,,,81,127
27898,note_on,0,0,0,,5,,,77,127
28075,note_off,177,0,0,,5,,,77,127
28075,note_off,0,0,0,,10,,,57,127
28075,note_on,0,0,0,,5,,,53,127
28075,note_on,0,0,0,,4,,,76,127
28252,note_off,177,0,0,,4,,,76,127
28252,note_on,0,0,0,,5,,,77,127
28429,note_off,177,0,0,,5,,,77,127
28429,note_off,0,0,0,,5,,,53,127
28429,note_on,0,0,0,,0,,,36,127
28429,note_on,0,0,0,,6,,,78,127
28606,note_off,177,0,0,,6,,,78,127
28606,note_on,0,0,0,,7,,,79,127
28783,note_off,177,0,0,,7,,,79,127
28783,note_on,0,0,0,,0,,,48,127
28783,note_on,0,0,0,,6,,,78,127
28960,note_off,177,0,0,,6,,,78,127
28960,note_on,0,0,0,,7,,,79,127
29137,note_off,177,0,0,,7,,,79,127
29137,note_off,0,0,0,,0,,,48,127
29137,note_off,0,0,0,,0,,,36,127
29137,note_on,0,0,0,,4,,,52,127
29137,note_on,0,0,0,,6,,,78,127
29314,note_off,177,0,0,,6,,,78,127
29314,note_on,0,0,0,,7,,,79,127
29491,note_off,177,0,0,,7,,,79,127
29491,note_off,0,0,0,,4,,,52,127
29491,note_on,0,0,0,,0,,,48,127
29491,note_on,0,0,0,,6,,,78,127
29668,note_off,177,0,0,,6,,,78,127
29668,note_on,0,0,0,,7,,,79,127
29845,note_off,177,0,0,,7,,,79,127
29845,note_on,0,0,0,,0,,,84,127
30022,note_off,177,0,0,,0,,,84,127
30022,note_on,0,0,0,,7,,,79,127
30199,note_off,177,0,0,,7,,,79,127
30199,note_off,0,0,0,,0,,,48,127
30199,note_on,0,0,0,,0,,,60,127
30199,note_on,0,0,0,,4,,,76,127
30376,note_off,177,0,0,,4,,,76,127
30376,note_on,0,0,0,,0,,,72,127
30553,note_off,177,0,0,,0,,,60,127
30553,note_on,0,0,0,,2,,,62,127
30612,note_on,59,0,0,,11,,,70,127
30619,note_off,7,0,0,,0,,,72,127
30671,note_on,52,0,0,,0,,,72,127
30678,note_off,7,0,0,,11,,,70,127
30730,note_on,52,0,0,,11,,,70,127
30737,note_off,7,0,0,,0,,,72,127
30789,note_on,52,0,0,,0,,,72,127
30796,note_off,7,0,0,,11,,,70,127
30848,note_on,52,0,0,,11,,,70,127
30855,note_off,7,0,0,,0,,,72,127
30907,note_off,52,0,0,,2,,,62,127
30907,note_on,0,0,0,,4,,,64,127
30907,note_on,0,0,0,,0,,,72,127
30914,note_off,7,0,0,,11,,,70,127
30966,note_on,52,0,0,,11,,,70,127
30973,note_off,7,0,0,,0,,,72,127
31025,note_on,52,0,0,,0,,,72,127
31032,note_off,7,0,0,,11,,,70,127
31084,note_on,52,0,0,,11,,,70,127
31091,note_off,7,0,0,,0,,,72,127
31143,note_on,52,0,0,,10,,,69,127
31150,note_off,7,0,0,,11,,,70,127
31202,note_on,52,0,0,,11,,,70,127
31209,note_off,7,0,0,,10,,,69,127
31261,note_off,52,0,0,,11,,,70,127
31261,note_off,0,0,0,,4,,,64,127
31261,note_on,0,0,0,,5,,,53,127
31261,note_on,0,0,0,,0,,,84,127
31438,note_off,177,0,0,,0,,,84,127
31438,note_on,0,0,0,,10,,,81,127
31615,note_off,177,0,0,,10,,,81,127
31615,note_on,0,0,0,,5,,,65,127
31615,note_on,0,0,0,,5,,,77,127
31792,note_off,177,0,0,,5,,,77,127
31792,note_on,0,0,0,,0,,,72,127
31969,note_off,177,0,0,,0,,,72,127
31969,note_off,0,0,0,,5,,,65,127
31969,note_off,0,0,0,,5,,,53,127
31969,note_on,0,0,0,,10,,,69,127
31969,note_on,0,0,0,,2,,,74,127
32028,note_on,59,0,0,,0,,,72,127
32035,note_off,7,0,0,,2,,,74,127
32087,note_on,52,0,0,,2,,,74,127
32094,note_off,7,0,0,,0,,,72,127
32146,note_on,52,0,0,,0,,,72,127
32153,note_off,7,0,0,,2,,,74,127
32205,note_on,52,0,0,,2,,,74,127
32212,note_off,7,0,0,,0,,,72,127
32264,note_on,52,0,0,,0,,,72,127
32271,note_off,7,0,0,,2,,,74,127
32323,note_off,52,0,0,,10,,,69,127
32323,note_on,0,0,0,,5,,,65,127
32323,note_on,0,0,0,,2,,,74,127
32330,note_off,7,0,0,,0,,,72,127
32382,note_on,52,0,0,,0,,,72,127
32389,note_off,7,0,0,,2,,,74,127
32441,note_on,52,0,0,,2,,,74,127
32448,note_off,7,0,0,,0,,,72,127
32500,note_on,52,0,0,,0,,,72,127
32507,note_off,7,0,0,,2,,,74,127
32559,note_on,52,0,0,,11,,,70,127
32566,note_off,7,0,0,,0,,,72,127
32618,note_on,52,0,0,,0,,,72,127
32625,note_off,7,0,0,,11,,,70,127
32677,note_off,52,0,0,,0,,,72,127
32677,note_off,0,0,0,,5,,,65,127
32677,note_on,0,0,0,,0,,,48,127
32677,note_on,0,0,0,,0,,,84,127
32854,note_off,177,0,0,,0,,,84,127
32854,note_on,0,0,0,,7,,,79,127
33031,note_off,177,0,0,,7,,,79,127
33031,note_on,0,0,0,,0,,,60,127
33031,note_on,0,0,0,,4,,,76,127
33208,note_off,177,0,0,,4,,,76,127
33208,note_on,0,0,0,,0,,,72,127
33385,note_off,177,0,0,,0,,,60,127
33385,note_off,0,0,0,,0,,,48,127
33385,note_on,0,0,0,,2,,,62,127
33444,note_on,59,0,0,,11,,,70,127
33451,note_off,7,0,0,,0,,,72,127
33503,note_on,52,0,0,,0,,,72,127
33510,note_off,7,0,0,,11,,,70,127
33562,note_on,52,0,0,,11,,,70,127
33569,note_off,7,0,0,,0,,,72,127
33621,note_on,52,0,0,,0,,,72,127
33628,note_off,7,0,0,,11,,,70,127
33680,note_on,52,0,0,,11,,,70,127
33687,note_off,7,0,0,,0,,,72,127
33739,note_off,52,0,0,,2,,,62,127
33739,note_on,0,0,0,,4,,,64,127
33739,note_on,0,0,0,,0,,,72,127
33746,note_off,7,0,0,,11,,,70,127
33798,note_on,52,0,0,,11,,,70,127
33805,note_off,7,0,0,,0,,,72,127
33857,note_on,52,0,0,,0,,,72,127
33864,note_off,7,0,0,,11,,,70,127
33916,note_on,52,0,0,,11,,,70,127
33923,note_off,7,0,0,,0,,,72,127
33975,note_on,52,0,0,,10,,,69,127
33982,note_off,7,0,0,,11,,,70,127
34034,note_on,52,0,0,,11,,,70,127
34041,note_off,7,0,0,,10,,,69,127
34093,note_off,52,0,0,,11,,,70,127
34093,note_off,0,0,0,,4,,,64,127
34093,note_on,0,0,0,,5,,,41,127
34093,note_on,0,0,0,,5,,,77,127
34270,note_off,177,0,0,,5,,,77,127
34270,note_on,0,0,0,,0,,,72,127
34447,note_off,177,0,0,,0,,,72,127
34447,note_on,0,0,0,,5,,,53,127
34447,note_on,0,0,0,,10,,,69,127
34624,note_off,177,0,0,,10,,,69,127
34624,note_on,0,0,0,,5,,,65,127
34801,note_off,177,0,0,,5,,,53,127
34801,note_off,0,0,0,,5,,,41,127
34801,note_on,0,0,0,,7,,,55,127
34860,note_on,59,0,0,,3,,,63,127
34867,note_off,7,0,0,,5,,,65,127
34919,note_on,52,0,0,,5,,,65,127
34926,note_off,7,0,0,,3,,,63,127
34978,note_on,52,0,0,,3,,,63,127
34985,note_off,7,0,0,,5,,,65,127
35037,note_on,52,0,0,,5,,,65,127
35044,note_off,7,0,0,,3,,,63,127
35096,note_on,52,0,0,,3,,,63,127
35103,note_off,7,0,0,,5,,,65,127
35155,note_off,52,0,0,,7,,,55,127
35155,note_on,0,0,0,,10,,,57,127
35155,note_on,0,0,0,,5,,,65,127
35162,note_off,7,0,0,,3,,,63,127
35214,note_on,52,0,0,,3,,,63,127
35221,note_off,7,0,0,,5,,,65,127
35273,note_on,52,0,0,,5,,,65,127
35280,note_off,7,0,0,,3,,,63,127
35332,note_on,52,0,0,,3,,,63,127
35339,note_off,7,0,0,,5,,,65,127
35391,note_on,52,0,0,,2,,,62,127
35398,note_off,7,0,0,,3,,,63,127
35450,note_on,52,0,0,,3,,,63,127
35457,note_off,7,0,0,,2,,,62,127
35509,note_off,52,0,0,,3,,,63,127
35509,note_off,0,0,0,,10,,,57,127
35509,note_on,0,0,0,,11,,,46,127
35509,note_on,0,0,0,,5,,,77,127
35686,note_off,177,0,0,,5,,,77,127
35686,note_on,0,0,0,,2,,,74,127
35863,note_off,177,0,0,,2,,,74,127
35863,note_on,0,0,0,,11,,,58,127
35863,note_on,0,0,0,,11,,,70,127
36040,note_off,177,0,0,,11,,,70,127
36040,note_on,0,0,0,,5,,,65,127
36217,note_off,177,0,0,,5,,,65,127
36217,note_off,0,0,0,,11,,,58,127
36217,note_off,0,0,0,,11,,,46,127
36217,note_on,0,0,0,,2,,,62,127
36217,note_on,0,0,0,,7,,,67,127
36276,note_on,59,0,0,,5,,,65,127
36283,note_off,7,0,0,,7,,,67,127
36335,note_on,52,0,0,,7,,,67,127
36342,note_off,7,0,0,,5,,,65,127
36394,note_on,52,0,0,,5,,,65,127
36401,note_off,7,0,0,,7,,,67,127
36453,note_on,52,0,0,,7,,,67,127
36460,note_off,7,0,0,,5,,,65,127
36512,note_on,52,0,0,,5,,,65,127
36519,note_off,7,0,0,,7,,,67,127
36571,note_off,52,0,0,,2,,,62,127
36571,note_on,0,0,0,,11,,,58,127
36571,note_on,0,0,0,,7,,,67,127
36578,note_off,7,0,0,,5,,,65,127
36630,note_on,52,0,0,,5,,,65,127
36637,note_off,7,0,0,,7,,,67,127
36689,note_on,52,0,0,,7,,,67,127
36696,note_off,7,0,0,,5,,,65,127
36748,note_on,52,0,0,,5,,,65,127
36755,note_off,7,0,0,,7,,,67,127
36807,note_on,52,0,0,,3,,,63,127
36814,note_off,7,0,0,,5,,,65,127
36866,note_on,52,0,0,,5,,,65,127
36873,note_off,7,0,0,,3,,,63,127
36925,note_off,52,0,0,,5,,,65,127
36925,note_off,0,0,0,,11,,,58,127
36925,note_on,0,0,0,,5,,,41,127
36925,note_on,0,0,0,,5,,,77,127
37102,note_off,177,0,0,,5,,,77,127
37102,note_on,0,0,0,,0,,,72,127
37279,note_off,177,0,0,,0,,,72,127
37279,note_on,0,0,0,,5,,,53,127
37279,note_on,0,0,0,,10,,,69,127
37456,note_off,177,0,0,,10,,,69,127
37456,note_on,0,0,0,,5,,,65,127
37633,note_off,177,0,0,,5,,,53,127
37633,note_off,0,0,0,,5,,,41,127
37633,note_on,0,0,0,,7,,,55,127
37692,note_on,59,0,0,,3,,,63,127
37699,note_off,7,0,0,,5,,,65,127
37751,note_on,52,0,0,,5,,,65,127
37758,note_off,7,0,0,,3,,,63,127
37810,note_on,52,0,0,,3,,,63,127
37817,note_off,7,0,0,,5,,,65,127
37869,note_on,52,0,0,,5,,,65,127
37876,note_off,7,0,0,,3,,,63,127
37928,note_on,52,0,0,,3,,,63,127
37935,note_off,7,0,0,,5,,,65,127
37987,note_off,52,0,0,,7,,,55,127
37987,note_on,0,0,0,,10,,,57,127
37987,note_on,0,0,0,,5,,,65,127
37994,note_off,7,0,0,,3,,,63,127
38046,note_on,52,0,0,,3,,,63,127
38053,note_off,7,0,0,,5,,,65,127
38105,note_on,52,0,0,,5,,,65,127
38112,note_off,7,0,0,,3,,,63,127
38164,note_on,52,0,0,,3,,,63,127
38171,note_off,7,0,0,,5,,,65,127
38223,note_on,52,0,0,,2,,,62,127
38230,note_off,7,0,0,,3,,,63,127
38282,note_on,52,0,0,,3,,,63,127
38289,note_off,7,0,0,,2,,,62,127
38341,note_off,52,0,0,,3,,,63,127
38341,note_off,0,0,0,,10,,,57,127
38341,note_on,0,0,0,,11,,,58,127
38341,note_on,0,0,0,,2,,,62,127
38518,note_on,177,0,0,,11,,,70,127
38562,note_off,44,0,0,,2,,,62,127
38695,note_off,133,0,0,,11,,,58,127
38695,note_on,0,0,0,,7,,,55,127
38695,note_on,0,0,0,,4,,,64,127
38739,note_off,44,0,0,,11,,,70,127
38872,note_on,133,0,0,,0,,,72,127
38916,note_off,44,0,0,,4,,,64,127
39049,note_off,133,0,0,,7,,,55,127
39049,note_on,0,0,0,,10,,,57,127
39049,note_on,0,0,0,,5,,,65,127
39093,note_off,44,0,0,,0,,,72,127
39226,note_off,133,0,0,,5,,,65,127
39226,note_on,0,0,0,,2,,,74,127
39403,note_off,177,0,0,,10,,,57,127
39403,note_on,0,0,0,,4,,,52,127
39580,note_off,177,0,0,,2,,,74,127
39580,note_on,0,0,0,,0,,,72,127
39669,note_off,89,0,0,,0,,,72,127
39669,note_on,0,0,0,,11,,,70,127
39758,note_off,89,0,0,,11,,,70,127
39758,note_off,0,0,0,,4,,,52,127
39758,note_on,0,0,0,,5,,,53,127
39758,note_on,0,0,0,,10,,,69,127
39935,note_on,177,0,0,,5,,,77,127
39979,note_off,44,0,0,,10,,,69,127
40112,note_off,133,0,0,,5,,,53,127
40112,note_on,0,0,0,,11,,,58,127
40112,note_on,0,0,0,,2,,,74,127
40156,note_off,44,0,0,,5,,,77,127
40289,note_on,133,0,0,,11,,,82,127
40333,note_off,44,0,0,,2,,,74,127
40466,note_off,133,0,0,,11,,,82,127
40466,note_off,0,0,0,,11,,,58,127
40466,note_on,0,0,0,,0,,,60,127
40466,note_on,0,0,0,,5,,,77,127
40643,note_off,177,0,0,,5,,,77,127
40643,note_on,0,0,0,,4,,,76,127
40702,note_on,59,0,0,,5,,,77,127
40709,note_off,7,0,0,,4,,,76,127
40761,note_on,52,0,0,,4,,,76,127
40768,note_off,7,0,0,,5,,,77,127
40820,note_on,52,0,0,,0,,,48,127
40820,note_on,0,0,0,,5,,,77,127
40827,note_off,7,0,0,,4,,,76,127
40879,note_on,52,0,0,,4,,,76,127
40886,note_off,7,0,0,,5,,,77,127
40938,note_on,52,0,0,,5,,,77,127
40945,note_off,7,0,0,,4,,,76,127
40997,note_on,52,0,0,,4,,,76,127
41004,note_off,7,0,0,,5,,,77,127
41056,note_on,52,0,0,,2,,,74,127
41063,note_off,7,0,0,,4,,,76,127
41115,note_on,52,0,0,,4,,,76,127
41122,note_off,7,0,0,,2,,,74,127
41173,note_off,51,0,0,,0,,,60,127
41174,note_off,1,0,0,,0,,,48,127
41174,note_on,0,0,0,,2,,,50,127
41174,note_on,0,0,0,,5,,,77,127
41181,note_off,7,0,0,,4,,,76,127
41351,note_off,170,0,0,,5,,,77,127
41351,note_on,0,0,0,,5,,,77,127
41528,note_off,177,0,0,,5,,,77,127
41528,note_on,0,0,0,,2,,,62,127
41528,note_on,0,0,0,,12,,,71,127
41705,note_off,177,0,0,,12,,,71,127
41705,note_on,0,0,0,,0,,,72,127
41882,note_off,177,0,0,,0,,,72,127
41882,note_off,0,0,0,,2,,,62,127
41882,note_off,0,0,0,,2,,,50,127
41882,note_on,0,0,0,,4,,,64,127
41882,note_on,0,0,0,,11,,,70,127
42059,note_off,177,0,0,,11,,,70,127
42059,note_on,0,0,0,,7,,,79,127
42236,note_off,177,0,0,,4,,,64,127
42236,note_on,0,0,0,,0,,,60,127
42413,note_off,177,0,0,,7,,,79,127
42413,note_on,0,0,0,,11,,,70,127
42590,note_off,177,0,0,,11,,,70,127
42590,note_off,0,0,0,,0,,,60,127
42590,note_on,0,0,0,,5,,,65,127
42590,note_on,0,0,0,,10,,,69,127
42767,note_off,177,0,0,,10,,,69,127
42767,note_on,0,0,0,,0,,,72,127
42944,note_off,177,0,0,,0,,,72,127
42944,note_off,0,0,0,,5,,,65,127
42944,note_on,0,0,0,,11,,,58,127
42944,note_on,0,0,0,,2,,,74,127
43121,note_on,177,0,0,,5,,,65,127
43165,note_off,44,0,0,,2,,,74,127
43298,note_off,133,0,0,,5,,,65,127
43298,note_off,0,0,0,,11,,,58,127
43298,note_on,0,0,0,,0,,,60,127
43298,note_on,0,0,0,,10,,,69,127
43475,note_off,177,0,0,,10,,,69,127
43475,note_on,0,0,0,,7,,,67,127
43534,note_on,59,0,0,,10,,,69,127
43541,note_off,7,0,0,,7,,,67,127
43593,note_on,52,0,0,,7,,,67,127
43600,note_off,7,0,0,,10,,,69,127
43652,note_on,52,0,0,,0,,,48,127
43652,note_on,0,0,0,,10,,,69,127
43659,note_off,7,0,0,,7,,,67,127
43711,note_on,52,0,0,,7,,,67,127
43718,note_off,7,0,0,,10,,,69,127
43770,note_on,52,0,0,,10,,,69,127
43777,note_off,7,0,0,,7,,,67,127
43829,note_on,52,0,0,,7,,,67,127
43836,note_off,7,0,0,,10,,,69,127
43888,note_on,52,0,0,,10,,,69,127
43895,note_off,7,0,0,,7,,,67,127
43947,note_on,52,0,0,,7,,,67,127
43954,note_off,7,0,0,,10,,,69,127
44005,note_off,51,0,0,,0,,,60,127
44006,note_off,1,0,0,,0,,,48,127
44006,note_on,0,0,0,,2,,,50,127
44006,note_on,0,0,0,,10,,,69,127
44013,note_off,7,0,0,,7,,,67,127
44094,note_off,81,0,0,,10,,,69,127
44094,note_on,0,0,0,,7,,,67,127
44183,note_off,89,0,0,,7,,,67,127
44183,note_on,0,0,0,,5,,,65,127
44360,note_off,177,0,0,,5,,,65,127
44360,note_off,0,0,0,,2,,,50,127
44360,note_on,0,0,0,,2,,,50,127
44360,note_on,0,0,0,,12,,,59,127
44537,note_off,177,0,0,,12,,,59,127
44537,note_on,0,0,0,,0,,,60,127
44714,note_off,177,0,0,,0,,,60,127
44714,note_off,0,0,0,,2,,,50,127
44714,note_on,0,0,0,,4,,,52,127
44714,note_on,0,0,0,,11,,,58,127
44891,note_off,177,0,0,,11,,,58,127
44891,note_on,0,0,0,,7,,,67,127
45068,note_off,177,0,0,,4,,,52,127
45068,note_on,0,0,0,,0,,,48,127
45245,note_off,177,0,0,,7,,,67,127
45245,note_on,0,0,0,,11,,,58,127
45422,note_off,177,0,0,,11,,,58,127
45422,note_off,0,0,0,,0,,,48,127
45422,note_on,0,0,0,,5,,,53,127
45422,note_on,0,0,0,,10,,,57,127
45599,note_off,177,0,0,,10,,,57,127
45599,note_on,0,0,0,,5,,,65,127
45776,note_off,177,0,0,,5,,,65,127
45776,note_off,0,0,0,,5,,,53,127
45776,note_on,0,0,0,,11,,,46,127
45776,note_on,0,0,0,,2,,,62,127
45953,note_on,177,0,0,,11,,,70,127
45997,note_off,44,0,0,,2,,,62,127
46130,note_off,133,0,0,,11,,,70,127
46130,note_off,0,0,0,,11,,,46,127
46130,note_on,0,0,0,,0,,,48,127
46130,note_on,0,0,0,,5,,,65,127
46130,note_on,0,0,0,,10,,,57,127
46484,note_off,354,0,0,,10,,,57,127
46484,note_on,0,0,0,,7,,,55,127
46573,note_on,89,0,0,,4,,,64,127
46586,note_off,13,0,0,,5,,,65,127
46662,note_off,76,0,0,,4,,,64,127
46662,note_on,0,0,0,,2,,,62,127
46751,note_off,89,0,0,,2,,,62,127
46751,note_on,0,0,0,,4,,,64,127
46840,note_off,89,0,0,,4,,,64,127
46840,note_off,0,0,0,,7,,,55,127
46840,note_off,0,0,0,,0,,,48,127
46840,note_on,0,0,0,,5,,,53,127
46840,note_on,0,0,0,,5,,,65,127
47194,note_on,354,0,0,,5,,,77,127
47548,note_off,354,0,0,,5,,,65,127
47549,note_off,1,0,0,,5,,,77,127
47549,note_on,0,0,0,,3,,,75,127
47638,note_off,89,0,0,,3,,,75,127
47638,note_on,0,0,0,,1,,,73,127
47727,note_off,89,0,0,,1,,,73,127
47727,note_on,0,0,0,,0,,,72,127
47904,note_off,177,0,0,,0,,,72,127
47904,note_off,0,0,0,,5,,,53,127
47904,note_on,0,0,0,,5,,,65,127
47904,note_on,0,0,0,,11,,,82,127
47904,note_on,0,0,0,,1,,,73,127
48258,note_off,354,0,0,,1,,,73,127
48258,note_off,0,0,0,,5,,,65,127
48258,note_on,0,0,0,,4,,,64,127
48258,note_on,0,0,0,,0,,,72,127
48612,note_off,354,0,0,,4,,,64,127
48612,note_off,0,0,0,,11,,,82,127
48612,note_on,0,0,0,,5,,,65,127
48612,note_on,0,0,0,,8,,,80,127
48966,note_off,354,0,0,,8,,,80,127
48966,note_off,0,0,0,,5,,,65,127
48966,note_off,0,0,0,,0,,,72,127
48966,note_on,0,0,0,,11,,,58,127
48966,note_on,0,0,0,,7,,,79,127
48966,note_on,0,0,0,,11,,,70,127
49320,note_off,354,0,0,,11,,,70,127
49320,note_off,0,0,0,,7,,,79,127
49320,note_off,0,0,0,,11,,,58,127
49320,note_on,0,0,0,,1,,,61,127
49320,note_on,0,0,0,,5,,,77,127
49320,note_on,0,0,0,,8,,,68,127
49674,note_off,354,0,0,,8,,,68,127
49674,note_off,0,0,0,,5,,,77,127
49674,note_off,0,0,0,,1,,,61,127
49674,note_on,0,0,0,,0,,,60,127
49674,note_on,0,0,0,,4,,,76,127
49674,note_on,0,0,0,,7,,,67,127
50028,note_off,354,0,0,,7,,,67,127
50028,note_off,0,0,0,,4,,,76,127
50028,note_off,0,0,0,,0,,,60,127
50028,note_on,0,0,0,,5,,,53,127
50028,note_on,0,0,0,,5,,,77,127
50028,note_on,0,0,0,,5,,,65,127
50382,note_off,354,0,0,,5,,,77,127
50382,note_on,0,0,0,,3,,,75,127
50471,note_off,89,0,0,,3,,,75,127
50471,note_on,0,0,0,,1,,,73,127
50560,note_off,89,0,0,,1,,,73,127
50560,note_on,0,0,0,,0,,,72,127
50737,note_off,177,0,0,,0,,,72,127
50737,note_off,0,0,0,,5,,,65,127
50737,note_off,0,0,0,,5,,,53,127
50737,note_on,0,0,0,,5,,,65,127
50737,note_on,0,0,0,,11,,,82,127
50737,note_on,0,0,0,,1,,,73,127
51091,note_off,354,0,0,,1,,,73,127
51091,note_off,0,0,0,,5,,,65,127
51091,note_on,0,0,0,,4,,,64,127
51091,note_on,0,0,0,,0,,,72,127
51445,note_off,354,0,0,,4,,,64,127
51445,note_off,0,0,0,,11,,,82,127
51445,note_on,0,0,0,,5,,,65,127
51445,note_on,0,0,0,,8,,,80,127
51799,note_off,354,0,0,,8,,,80,127
51799,note_off,0,0,0,,5,,,65,127
51799,note_off,0,0,0,,0,,,72,127
51799,note_on,0,0,0,,11,,,58,127
51799,note_on,0,0,0,,7,,,79,127
51799,note_on,0,0,0,,11,,,70,127
52153,note_off,354,0,0,,11,,,70,127
52153,note_off,0,0,0,,7,,,79,127
52153,note_off,0,0,0,,11,,,58,127
52153,note_on,0,0,0,,1,,,61,127
52153,note_on,0,0,0,,8,,,68,127
52153,note_on,0,0,0,,5,,,77,127
52507,note_off,354,0,0,,5,,,77,127
52507,note_off,0,0,0,,8,,,68,127
52507,note_off,0,0,0,,1,,,61,127
52507,note_on,0,0,0,,0,,,60,127
52507,note_on,0,0,0,,4,,,76,127
52507,note_on,0,0,0,,7,,,67,127
52861,note_off,354,0,0,,7,,,67,127
52861,note_off,0,0,0,,4,,,76,127
52861,note_on,0,0,0,,0,,,84,127
53215,note_off,354,0,0,,0,,,84,127
53215,note_on,0,0,0,,11,,,82,127
53304,note_off,89,0,0,,11,,,82,127
53304,note_on,0,0,0,,8,,,80,127
53393,note_off,89,0,0,,8,,,80,127
53393,note_on,0,0,0,,7,,,79,127
53570,note_off,177,0,0,,7,,,79,127
53570,note_off,0,0,0,,0,,,60,127
53570,note_on,0,0,0,,0,,,72,127
53570,note_on,0,0,0,,8,,,80,127
53924,note_off,354,0,0,,8,,,80,127
53924,note_off,0,0,0,,0,,,72,127
53924,note_on,0,0,0,,11,,,70,127
53924,note_on,0,0,0,,7,,,79,127
54013,note_off,89,0,0,,11,,,70,127
54013,note_on,0,0,0,,8,,,68,127
54102,note_off,89,0,0,,8,,,68,127
54102,note_on,0,0,0,,7,,,67,127
54279,note_off,177,0,0,,7,,,67,127
54279,note_off,0,0,0,,7,,,79,127
54279,note_on,0,0,0,,8,,,68,127
54279,note_on,0,0,0,,5,,,77,127
54633,note_off,354,0,0,,5,,,77,127
54633,note_off,0,0,0,,8,,,68,127
54633,note_on,0,0,0,,7,,,67,127
54633,note_on,0,0,0,,3,,,75,127
54722,note_off,89,0,0,,3,,,75,127
54722,note_on,0,0,0,,1,,,73,127
54811,note_off,89,0,0,,1,,,73,127
54811,note_on,0,0,0,,0,,,72,127
54988,note_off,177,0,0,,0,,,72,127
54988,note_off,0,0,0,,7,,,67,127
54988,note_on,0,0,0,,5,,,65,127
54988,note_on,0,0,0,,3,,,75,127
55047,note_on,59,0,0,,1,,,73,127
55054,note_off,7,0,0,,3,,,75,127
55106,note_on,52,0,0,,3,,,75,127
55113,note_off,7,0,0,,1,,,73,127
55165,note_on,52,0,0,,1,,,73,127
55172,note_off,7,0,0,,3,,,75,127
55342,note_off,170,0,0,,1,,,73,127
55342,note_off,0,0,0,,5,,,65,127
55342,note_on,0,0,0,,4,,,64,127
55342,note_on,0,0,0,,0,,,72,127
55431,note_off,89,0,0,,4,,,64,127
55431,note_on,0,0,0,,2,,,62,127
55520,note_off,89,0,0,,2,,,62,127
55520,note_on,0,0,0,,0,,,60,127
55697,note_off,177,0,0,,0,,,72,127
55697,note_on,0,0,0,,0,,,72,127
56051,note_off,354,0,0,,0,,,72,127
56051,note_on,0,0,0,,11,,,70,127
56140,note_off,89,0,0,,11,,,70,127
56140,note_on,0,0,0,,8,,,68,127
56229,note_off,89,0,0,,8,,,68,127
56229,note_on,0,0,0,,7,,,67,127
56406,note_off,177,0,0,,7,,,67,127
56406,note_off,0,0,0,,0,,,60,127
56406,note_on,0,0,0,,0,,,60,127
56406,note_on,0,0,0,,8,,,68,127
56760,note_off,354,0,0,,8,,,68,127
56760,note_off,0,0,0,,0,,,60,127
56760,note_on,0,0,0,,11,,,58,127
56760,note_on,0,0,0,,7,,,67,127
56849,note_off,89,0,0,,11,,,58,127
56849,note_on,0,0,0,,8,,,56,127
56938,note_off,89,0,0,,8,,,56,127
56938,note_on,0,0,0,,7,,,55,127
57115,note_off,177,0,0,,7,,,55,127
57115,note_off,0,0,0,,7,,,67,127
57115,note_on,0,0,0,,8,,,56,127
57115,note_on,0,0,0,,5,,,65,127
57469,note_off,354,0,0,,5,,,65,127
57469,note_off,0,0,0,,8,,,56,127
57469,note_on,0,0,0,,7,,,55,127
57469,note_on,0,0,0,,3,,,63,127
57558,note_off,89,0,0,,3,,,63,127
57558,note_on,0,0,0,,1,,,61,127
57647,note_off,89,0,0,,1,,,61,127
57647,note_on,0,0,0,,0,,,60,127
57824,note_off,177,0,0,,0,,,60,127
57824,note_off,0,0,0,,7,,,55,127
57824,note_on,0,0,0,,5,,,53,127
57824,note_on,0,0,0,,3,,,63,127
57913,note_off,89,0,0,,3,,,63,127
57913,note_on,0,0,0,,1,,,61,127
58002,note_off,89,0,0,,1,,,61,127
58002,note_on,0,0,0,,0,,,60,127
58091,note_off,89,0,0,,0,,,60,127
58091,note_on,0,0,0,,1,,,61,127
58180,note_off,89,0,0,,1,,,61,127
58180,note_off,0,0,0,,5,,,53,127
58180,note_on,0,0,0,,4,,,52,127
58180,note_on,0,0,0,,0,,,60,127
58269,note_off,89,0,0,,4,,,52,127
58269,note_on,0,0,0,,2,,,50,127
58358,note_off,89,0,0,,2,,,50,127
58358,note_on,0,0,0,,0,,,48,127
58712,note_off,354,0,0,,0,,,60,127
58712,note_on,0,0,0,,0,,,60,127
58889,note_off,177,0,0,,0,,,60,127
58889,note_on,0,0,0,,1,,,61,127
59066,note_on,177,0,0,,0,,,60,127
59110,note_off,44,0,0,,1,,,61,127
59243,note_off,133,0,0,,0,,,60,127
59243,note_on,0,0,0,,5,,,65,127
59420,note_on,177,0,0,,4,,,64,127
59464,note_off,44,0,0,,5,,,65,127
59597,note_off,133,0,0,,4,,,64,127
59597,note_on,0,0,0,,8,,,68,127
59774,note_on,177,0,0,,7,,,67,127
59818,note_off,44,0,0,,8,,,68,127
59951,note_off,133,0,0,,7,,,67,127
59951,note_on,0,0,0,,0,,,72,127
60128,note_on,177,0,0,,12,,,71,127
60172,note_off,44,0,0,,0,,,72,127
60305,note_off,133,0,0,,12,,,71,127
60305,note_on,0,0,0,,5,,,77,127
60482,note_on,177,0,0,,4,,,76,127
60526,note_off,44,0,0,,5,,,77,127
60659,note_off,133,0,0,,4,,,76,127
60659,note_on,0,0,0,,8,,,80,127
60836,note_on,177,0,0,,7,,,79,127
60880,note_off,44,0,0,,8,,,80,127
61013,note_off,133,0,0,,7,,,79,127
61013,note_off,0,0,0,,0,,,48,127
61013,note_on,0,0,0,,0,,,36,127
61013,note_on,0,0,0,,0,,,84,127
61190,note_on,177,0,0,,0,,,72,127
61367,note_off,177,0,0,,0,,,72,127
61367,note_off,0,0,0,,0,,,84,127
61367,note_on,0,0,0,,1,,,73,127
61544,note_off,177,0,0,,1,,,73,127
61544,note_on,0,0,0,,0,,,72,127
61721,note_off,177,0,0,,0,,,72,127
61721,note_on,0,0,0,,1,,,61,127
61898,note_on,177,0,0,,0,,,60,127
61942,note_off,44,0,0,,1,,,61,127
62075,note_off,133,0,0,,0,,,60,127
62075,note_on,0,0,0,,5,,,65,127
62252,note_on,177,0,0,,4,,,64,127
62296,note_off,44,0,0,,5,,,65,127
62429,note_off,133,0,0,,4,,,64,127
62429,note_on,0,0,0,,8,,,68,127
62606,note_on,177,0,0,,7,,,67,127
62650,note_off,44,0,0,,8,,,68,127
62783,note_off,133,0,0,,7,,,67,127
62783,note_on,0,0,0,,0,,,72,127
62960,note_on,177,0,0,,12,,,71,127
63004,note_off,44,0,0,,0,,,72,127
63137,note_off,133,0,0,,12,,,71,127
63137,note_on,0,0,0,,5,,,77,127
63314,note_on,177,0,0,,4,,,76,127
63358,note_off,44,0,0,,5,,,77,127
63491,note_off,133,0,0,,4,,,76,127
63491,note_on,0,0,0,,8,,,80,127
63668,note_on,177,0,0,,7,,,79,127
63712,note_off,44,0,0,,8,,,80,127
63845,note_off,133,0,0,,7,,,79,127
63845,note_off,0,0,0,,0,,,36,127
63845,note_on,0,0,0,,0,,,36,127
63845,note_on,0,0,0,,0,,,84,127
64022,note_on,177,0,0,,0,,,72,127
64199,note_off,177,0,0,,0,,,72,127
64199,note_off,0,0,0,,0,,,84,127
64199,note_on,0,0,0,,1,,,73,127
64376,note_off,177,0,0,,1,,,73,127
64376,note_on,0,0,0,,0,,,72,127
64553,note_off,177,0,0,,0,,,72,127
64553,note_on,0,0,0,,1,,,61,127
64730,note_on,177,0,0,,0,,,60,127
64774,note_off,44,0,0,,1,,,61,127
64907,note_off,133,0,0,,0,,,60,127
64907,note_on,0,0,0,,5,,,65,127
65084,note_on,177,0,0,,4,,,64,127
65128,note_off,44,0,0,,5,,,65,127
65261,note_off,133,0,0,,4,,,64,127
65261,note_on,0,0,0,,8,,,68,127
65438,note_on,177,0,0,,7,,,67,127
65482,note_off,44,0,0,,8,,,68,127
65615,note_off,133,0,0,,7,,,67,127
65615,note_on,0,0,0,,0,,,72,127
65792,note_on,177,0,0,,12,,,71,127
65836,note_off,44,0,0,,0,,,72,127
65969,note_off,133,0,0,,12,,,71,127
65969,note_on,0,0,0,,5,,,77,127
66146,note_on,177,0,0,,4,,,76,127
66190,note_off,44,0,0,,5,,,77,127
66323,note_off,133,0,0,,4,,,76,127
66323,note_on,0,0,0,,8,,,80,127
66500,note_on,177,0,0,,7,,,79,127
66544,note_off,44,0,0,,8,,,80,127
66677,note_off,133,0,0,,7,,,79,127
66677,note_off,0,0,0,,0,,,36,127
66677,note_on,0,0,0,,0,,,36,127
66677,note_on,0,0,0,,0,,,84,127
66854,note_off,177,0,0,,0,,,84,127
66854,note_on,0,0,0,,7,,,79,127
67031,note_off,177,0,0,,7,,,79,127
67031,note_off,0,0,0,,0,,,36,127
67031,note_on,0,0,0,,0,,,60,127
67031,note_on,0,0,0,,4,,,76,127
67208,note_off,177,0,0,,4,,,76,127
67208,note_on,0,0,0,,0,,,72,127
67385,note_off,177,0,0,,0,,,60,127
67385,note_on,0,0,0,,2,,,62,127
67444,note_on,59,0,0,,11,,,70,127
67451,note_off,7,0,0,,0,,,72,127
67503,note_on,52,0,0,,0,,,72,127
67510,note_off,7,0,0,,11,,,70,127
67562,note_on,52,0,0,,11,,,70,127
67569,note_off,7,0,0,,0,,,72,127
67621,note_on,52,0,0,,0,,,72,127
67628,note_off,7,0,0,,11,,,70,127
67680,note_on,52,0,0,,11,,,70,127
67687,note_off,7,0,0,,0,,,72,127
67739,note_off,52,0,0,,2,,,62,127
67739,note_on,0,0,0,,0,,,72,127
67739,note_on,0,0,0,,4,,,64,127
67746,note_off,7,0,0,,11,,,70,127
67798,note_on,52,0,0,,11,,,70,127
67805,note_off,7,0,0,,0,,,72,127
67857,note_on,52,0,0,,0,,,72,127
67864,note_off,7,0,0,,11,,,70,127
67916,note_on,52,0,0,,11,,,70,127
67923,note_off,7,0,0,,0,,,72,127
67975,note_on,52,0,0,,10,,,69,127
67982,note_off,7,0,0,,11,,,70,127
68034,note_on,52,0,0,,11,,,70,127
68041,note_off,7,0,0,,10,,,69,127
68093,note_off,52,0,0,,4,,,64,127
68093,note_on,0,0,0,,5,,,65,127
68093,note_on,0,0,0,,0,,,84,127
68100,note_off,7,0,0,,11,,,70,127
68270,note_off,170,0,0,,0,,,84,127
68270,note_on,0,0,0,,10,,,81,127
68447,note_off,177,0,0,,10,,,81,127
68447,note_off,0,0,0,,5,,,65,127
68447,note_on,0,0,0,,10,,,69,127
68447,note_on,0,0,0,,5,,,77,127
68624,note_off,177,0,0,,5,,,77,127
68624,note_on,0,0,0,,0,,,72,127
68801,note_off,177,0,0,,10,,,69,127
68801,note_on,0,0,0,,7,,,67,127
68860,note_on,59,0,0,,11,,,70,127
68867,note_off,7,0,0,,0,,,72,127
68919,note_on,52,0,0,,0,,,72,127
68926,note_off,7,0,0,,11,,,70,127
68978,note_on,52,0,0,,11,,,70,127
68985,note_off,7,0,0,,0,,,72,127
69037,note_on,52,0,0,,0,,,72,127
69044,note_off,7,0,0,,11,,,70,127
69096,note_on,52,0,0,,11,,,70,127
69103,note_off,7,0,0,,0,,,72,127
69155,note_off,52,0,0,,7,,,67,127
69155,note_on,0,0,0,,0,,,60,127
69155,note_on,0,0,0,,0,,,72,127
69162,note_off,7,0,0,,11,,,70,127
69214,note_on,52,0,0,,11,,,70,127
69221,note_off,7,0,0,,0,,,72,127
69273,note_on,52,0,0,,0,,,72,127
69280,note_off,7,0,0,,11,,,70,127
69332,note_on,52,0,0,,11,,,70,127
69339,note_off,7,0,0,,0,,,72,127
69391,note_on,52,0,0,,10,,,69,127
69398,note_off,7,0,0,,11,,,70,127
69450,note_on,52,0,0,,11,,,70,127
69457,note_off,7,0,0,,10,,,69,127
69509,note_off,52,0,0,,0,,,60,127
69509,note_on,0,0,0,,5,,,65,127
69509,note_on,0,0,0,,10,,,69,127
69516,note_off,7,0,0,,11,,,70,127
69686,note_off,170,0,0,,10,,,69,127
69686,note_on,0,0,0,,5,,,77,127
69863,note_off,177,0,0,,5,,,77,127
69863,note_off,0,0,0,,5,,,65,127
69863,note_on,0,0,0,,11,,,58,127
69863,note_on,0,0,0,,2,,,74,127
70040,note_off,177,0,0,,2,,,74,127
70040,note_on,0,0,0,,11,,,82,127
70217,note_off,177,0,0,,11,,,82,127
70217,note_off,0,0,0,,11,,,58,127
70217,note_on,0,0,0,,0,,,60,127
70217,note_on,0,0,0,,5,,,77,127
70394,note_off,177,0,0,,5,,,77,127
70394,note_on,0,0,0,,4,,,76,127
70453,note_on,59,0,0,,5,,,77,127
70460,note_off,7,0,0,,4,,,76,127
70512,note_on,52,0,0,,4,,,76,127
70519,note_off,7,0,0,,5,,,77,127
70571,note_on,52,0,0,,0,,,48,127
70571,note_on,0,0,0,,5,,,77,127
70578,note_off,7,0,0,,4,,,76,127
70630,note_on,52,0,0,,4,,,76,127
70637,note_off,7,0,0,,5,,,77,127
70689,note_on,52,0,0,,5,,,77,127
70696,note_off,7,0,0,,4,,,76,127
70747,note_off,51,0,0,,0,,,60,127
70748,note_on,1,0,0,,4,,,76,127
70755,note_off,7,0,0,,5,,,77,127
70807,note_on,52,0,0,,2,,,74,127
70814,note_off,7,0,0,,4,,,76,127
70866,note_on,52,0,0,,4,,,76,127
70873,note_off,7,0,0,,2,,,74,127
70925,note_off,52,0,0,,0,,,48,127
70925,note_on,0,0,0,,2,,,50,127
70925,note_on,0,0,0,,5,,,77,127
70932,note_off,7,0,0,,4,,,76,127
71013,note_off,81,0,0,,5,,,77,127
71013,note_on,0,0,0,,4,,,76,127
71102,note_off,89,0,0,,4,,,76,127
71102,note_on,0,0,0,,5,,,77,127
71279,note_off,177,0,0,,5,,,77,127
71279,note_on,0,0,0,,2,,,62,127
71279,note_on,0,0,0,,12,,,71,127
71456,note_off,177,0,0,,12,,,71,127
71456,note_off,0,0,0,,2,,,50,127
71456,note_on,0,0,0,,0,,,72,127
71633,note_off,177,0,0,,0,,,72,127
71633,note_off,0,0,0,,2,,,62,127
71633,note_on,0,0,0,,4,,,64,127
71633,note_on,0,0,0,,11,,,70,127
71810,note_off,177,0,0,,11,,,70,127
71810,note_on,0,0,0,,7,,,79,127
71987,note_off,177,0,0,,4,,,64,127
71987,note_on,0,0,0,,0,,,60,127
72164,note_off,177,0,0,,7,,,79,127
72164,note_on,0,0,0,,11,,,70,127
72341,note_off,177,0,0,,11,,,70,127
72341,note_off,0,0,0,,0,,,60,127
72341,note_on,0,0,0,,5,,,65,127
72341,note_on,0,0,0,,10,,,69,127
72518,note_off,177,0,0,,10,,,69,127
72518,note_on,0,0,0,,0,,,72,127
72695,note_off,177,0,0,,0,,,72,127
72695,note_off,0,0,0,,5,,,65,127
72695,note_on,0,0,0,,11,,,58,127
72695,note_on,0,0,0,,2,,,74,127
72872,note_off,177,0,0,,2,,,74,127
72872,note_on,0,0,0,,5,,,65,127
73049,note_off,177,0,0,,5,,,65,127
73049,note_off,0,0,0,,11,,,58,127
73049,note_on,0,0,0,,0,,,60,127
73049,note_on,0,0,0,,10,,,69,127
73226,note_off,177,0,0,,10,,,69,127
73226,note_on,0,0,0,,7,,,67,127
73285,note_on,59,0,0,,10,,,69,127
73292,note_off,7,0,0,,7,,,67,127
73344,note_on,52,0,0,,7,,,67,127
73351,note_off,7,0,0,,10,,,69,127
73403,note_on,52,0,0,,0,,,48,127
73403,note_on,0,0,0,,10,,,69,127
73410,note_off,7,0,0,,7,,,67,127
73462,note_on,52,0,0,,7,,,67,127
73469,note_off,7,0,0,,10,,,69,127
73521,note_on,52,0,0,,10,,,69,127
73528,note_off,7,0,0,,7,,,67,127
73579,note_off,51,0,0,,0,,,60,127
73580,note_on,1,0,0,,7,,,67,127
73587,note_off,7,0,0,,10,,,69,127
73639,note_on,52,0,0,,5,,,65,127
73646,note_off,7,0,0,,7,,,67,127
73698,note_on,52,0,0,,7,,,67,127
73705,note_off,7,0,0,,5,,,65,127
73757,note_off,52,0,0,,0,,,48,127
73757,note_on,0,0,0,,2,,,50,127
73757,note_on,0,0,0,,10,,,69,127
73764,note_off,7,0,0,,7,,,67,127
73845,note_off,81,0,0,,10,,,69,127
73845,note_on,0,0,0,,7,,,67,127
73934,note_off,89,0,0,,7,,,67,127
73934,note_on,0,0,0,,5,,,65,127
74111,note_off,177,0,0,,5,,,65,127
74111,note_off,0,0,0,,2,,,50,127
74111,note_on,0,0,0,,2,,,50,127
74111,note_on,0,0,0,,12,,,59,127
74288,note_off,177,0,0,,12,,,59,127
74288,note_on,0,0,0,,0,,,60,127
74465,note_off,177,0,0,,0,,,60,127
74465,note_off,0,0,0,,2,,,50,127
74465,note_on,0,0,0,,4,,,52,127
74465,note_on,0,0,0,,11,,,58,127
74642,note_off,177,0,0,,11,,,58,127
74642,note_on,0,0,0,,7,,,67,127
74819,note_off,177,0,0,,4,,,52,127
74819,note_on,0,0,0,,0,,,48,127
74996,note_off,177,0,0,,7,,,67,127
74996,note_on,0,0,0,,11,,,58,127
75173,note_off,177,0,0,,11,,,58,127
75173,note_off,0,0,0,,0,,,48,127
75173,note_on,0,0,0,,5,,,53,127
75173,note_on,0,0,0,,10,,,57,127
75350,note_off,177,0,0,,10,,,57,127
75350,note_on,0,0,0,,5,,,65,127
75527,note_off,177,0,0,,5,,,65,127
75527,note_off,0,0,0,,5,,,53,127
75527,note_on,0,0,0,,11,,,58,127
75527,note_on,0,0,0,,2,,,62,127
75704,note_off,177,0,0,,2,,,62,127
75704,note_on,0,0,0,,11,,,70,127
75881,note_off,177,0,0,,11,,,70,127
75881,note_off,0,0,0,,11,,,58,127
75881,note_on,0,0,0,,0,,,60,127
75881,note_on,0,0,0,,5,,,65,127
76235,note_on,354,0,0,,0,,,48,127
76324,note_off,89,0,0,,5,,,65,127
76324,note_on,0,0,0,,4,,,64,127
76412,note_off,88,0,0,,0,,,60,127
76413,note_off,1,0,0,,4,,,64,127
76413,note_on,0,0,0,,2,,,62,127
76502,note_off,89,0,0,,2,,,62,127
76502,note_on,0,0,0,,4,,,64,127
76591,note_off,89,0,0,,4,,,64,127
76591,note_off,0,0,0,,0,,,48,127
76591,note_on,0,0,0,,5,,,41,127
76768,note_on,177,0,0,,10,,,57,127
76945,note_off,177,0,0,,10,,,57,127
76945,note_off,0,0,0,,5,,,41,127
76945,note_on,0,0,0,,5,,,53,127
77122,note_on,177,0,0,,0,,,60,127
77166,note_off,44,0,0,,5,,,53,127
77299,note_off,133,0,0,,0,,,60,127
77299,note_on,0,0,0,,10,,,57,127
77476,note_on,177,0,0,,5,,,65,127
77520,note_off,44,0,0,,10,,,57,127
77653,note_off,133,0,0,,5,,,65,127
77653,note_on,0,0,0,,0,,,60,127
77830,note_on,177,0,0,,10,,,69,127
77874,note_off,44,0,0,,0,,,60,127
78007,note_off,133,0,0,,10,,,69,127
78007,note_on,0,0,0,,5,,,65,127
78184,note_on,177,0,0,,0,,,72,127
78228,note_off,44,0,0,,5,,,65,127
78361,note_off,133,0,0,,0,,,72,127
78361,note_on,0,0,0,,10,,,69,127
78538,note_on,177,0,0,,5,,,77,127
78582,note_off,44,0,0,,10,,,69,127
78715,note_off,133,0,0,,5,,,77,127
78715,note_on,0,0,0,,0,,,72,127
78892,note_on,177,0,0,,10,,,81,127
78936,note_off,44,0,0,,0,,,72,127
79069,note_off,133,0,0,,10,,,81,127
79069,note_on,0,0,0,,5,,,77,127
79246,note_on,177,0,0,,0,,,84,127
79290,note_off,44,0,0,,5,,,77,127
79423,note_on,133,0,0,,5,,,53,127
79423,note_on,0,0,0,,5,,,41,127
79600,note_off,177,0,0,,0,,,84,127
79600,note_on,0,0,0,,11,,,82,127
79777,note_off,177,0,0,,11,,,82,127
79777,note_on,0,0,0,,10,,,81,127
79954,note_off,177,0,0,,10,,,81,127
79954,note_on,0,0,0,,7,,,79,127
80131,note_off,177,0,0,,7,,,79,127
80131,note_on,0,0,0,,5,,,77,127
80308,note_off,177,0,0,,5,,,77,127
80308,note_on,0,0,0,,4,,,76,127
80485,note_off,177,0,0,,4,,,76,127
80485,note_off,0,0,0,,5,,,41,127
80485,note_off,0,0,0,,5,,,53,127
80485,note_on,0,0,0,,10,,,57,127
80485,note_on,0,0,0,,2,,,74,127
80662,note_off,177,0,0,,2,,,74,127
80662,note_on,0,0,0,,0,,,72,127
80839,note_off,177,0,0,,0,,,72,127
80839,note_off,0,0,0,,10,,,57,127
80839,note_on,0,0,0,,11,,,58,127
80839,note_on,0,0,0,,11,,,70,127
81016,note_off,177,0,0,,11,,,70,127
81016,note_on,0,0,0,,10,,,69,127
81105,note_off,89,0,0,,10,,,69,127
81105,note_on,0,0,0,,7,,,67,127
81194,note_off,89,0,0,,7,,,67,127
81194,note_off,0,0,0,,11,,,58,127
81194,note_on,0,0,0,,5,,,53,127
81194,note_on,0,0,0,,5,,,65,127
81283,note_off,89,0,0,,5,,,65,127
81283,note_on,0,0,0,,4,,,64,127
81372,note_off,89,0,0,,4,,,64,127
81372,note_on,0,0,0,,2,,,62,127
81461,note_off,89,0,0,,2,,,62,127
81461,note_on,0,0,0,,0,,,60,127
81550,note_off,89,0,0,,0,,,60,127
81550,note_off,0,0,0,,5,,,53,127
81550,note_on,0,0,0,,0,,,48,127
81550,note_on,0,0,0,,10,,,69,127
81609,note_on,59,0,0,,7,,,67,127
81616,note_off,7,0,0,,10,,,69,127
81668,note_on,52,0,0,,10,,,69,127
81675,note_off,7,0,0,,7,,,67,127
81727,note_on,52,0,0,,7,,,67,127
81734,note_off,7,0,0,,10,,,69,127
81786,note_on,52,0,0,,10,,,69,127
81793,note_off,7,0,0,,7,,,67,127
81845,note_on,52,0,0,,7,,,67,127
81852,note_off,7,0,0,,10,,,69,127
81904,note_on,52,0,0,,0,,,36,127
81904,note_on,0,0,0,,10,,,69,127
81911,note_off,7,0,0,,7,,,67,127
81963,note_on,52,0,0,,7,,,67,127
81970,note_off,7,0,0,,10,,,69,127
82022,note_on,52,0,0,,10,,,69,127
82029,note_off,7,0,0,,7,,,67,127
82081,note_on,52,0,0,,7,,,67,127
82088,note_off,7,0,0,,10,,,69,127
82140,note_on,52,0,0,,5,,,65,127
82147,note_off,7,0,0,,7,,,67,127
82199,note_on,52,0,0,,7,,,67,127
82206,note_off,7,0,0,,5,,,65,127
82258,note_off,52,0,0,,0,,,36,127
82258,note_off,0,0,0,,0,,,48,127
82258,note_on,0,0,0,,5,,,41,127
82258,note_on,0,0,0,,5,,,65,127
82265,note_off,7,0,0,,7,,,67,127
83675,note_off,1410,0,0,,5,,,65,127
83675,note_off,0,0,0,,5,,,41,127
83675,note_on,0,0,0,,5,,,77,127
84384,note_off,709,0,0,,5,,,77,127
84384,note_on,0,0,0,,4,,,76,127
84443,note_on,59,0,0,,5,,,77,127
84450,note_off,7,0,0,,4,,,76,127
84502,note_on,52,0,0,,4,,,76,127
84509,note_off,7,0,0,,5,,,77,127
84561,note_on,52,0,0,,5,,,77,127
84568,note_off,7,0,0,,4,,,76,127
84620,note_on,52,0,0,,4,,,76,127
84627,note_off,7,0,0,,5,,,77,127
84679,note_on,52,0,0,,5,,,77,127
84686,note_off,7,0,0,,4,,,76,127
84738,note_on,52,0,0,,4,,,76,127
84745,note_off,7,0,0,,5,,,77,127
84915,note_off,170,0,0,,4,,,76,127
84915,note_on,0,0,0,,5,,,77,127
85092,note_off,177,0,0,,5,,,77,127
85092,note_on,0,0,0,,5,,,65,127
85092,note_on,0,0,0,,0,,,72,127
85801,note_off,709,0,0,,5,,,65,127
85801,note_on,0,0,0,,4,,,64,127
85860,note_on,59,0,0,,5,,,65,127
85867,note_off,7,0,0,,4,,,64,127
85919,note_on,52,0,0,,4,,,64,127
85926,note_off,7,0,0,,5,,,65,127
85978,note_on,52,0,0,,5,,,65,127
85985,note_off,7,0,0,,4,,,64,127
86037,note_on,52,0,0,,4,,,64,127
86044,note_off,7,0,0,,5,,,65,127
86096,note_on,52,0,0,,5,,,65,127
86103,note_off,7,0,0,,4,,,64,127
86155,note_on,52,0,0,,4,,,64,127
86162,note_off,7,0,0,,5,,,65,127
86332,note_off,170,0,0,,4,,,64,127
86332,note_off,0,0,0,,0,,,72,127
86332,note_on,0,0,0,,5,,,65,127
86332,note_on,0,0,0,,0,,,72,127
86509,note_off,177,0,0,,0,,,72,127
86509,note_off,0,0,0,,5,,,65,127
86509,note_on,0,0,0,,5,,,65,127
86509,note_on,0,0,0,,0,,,60,127
86686,note_off,177,0,0,,5,,,65,127
86686,note_on,0,0,0,,4,,,64,127
86863,note_off,177,0,0,,4,,,64,127
86863,note_on,0,0,0,,2,,,74,127
87040,note_off,177,0,0,,2,,,74,127
87040,note_on,0,0,0,,0,,,72,127
87217,note_off,177,0,0,,0,,,72,127
87217,note_off,0,0,0,,0,,,60,127
87217,note_on,0,0,0,,2,,,62,127
87217,note_on,0,0,0,,7,,,67,127
87394,note_off,177,0,0,,7,,,67,127
87394,note_on,0,0,0,,5,,,65,127
87571,note_off,177,0,0,,5,,,65,127
87571,note_on,0,0,0,,2,,,74,127
87748,note_off,177,0,0,,2,,,74,127
87748,note_on,0,0,0,,0,,,72,127
87925,note_off,177,0,0,,0,,,72,127
87925,note_off,0,0,0,,2,,,62,127
87925,note_on,0,0,0,,4,,,64,127
87925,note_on,0,0,0,,10,,,69,127
88102,note_off,177,0,0,,10,,,69,127
88102,note_on,0,0,0,,7,,,67,127
88279,note_off,177,0,0,,7,,,67,127
88279,note_on,0,0,0,,7,,,79,127
88456,note_off,177,0,0,,7,,,79,127
88456,note_on,0,0,0,,5,,,77,127
88633,note_off,177,0,0,,5,,,77,127
88633,note_off,0,0,0,,4,,,64,127
88633,note_on,0,0,0,,0,,,60,127
88633,note_on,0,0,0,,4,,,76,127
88810,note_off,177,0,0,,4,,,76,127
88810,note_on,0,0,0,,2,,,74,127
88987,note_off,177,0,0,,2,,,74,127
88987,note_on,0,0,0,,0,,,72,127
89164,note_off,177,0,0,,0,,,72,127
89164,note_on,0,0,0,,11,,,70,127
89341,note_off,177,0,0,,11,,,70,127
89341,note_off,0,0,0,,0,,,60,127
89341,note_on,0,0,0,,5,,,65,127
89341,note_on,0,0,0,,0,,,72,127
89430,note_off,89,0,0,,0,,,72,127
89430,note_on,0,0,0,,11,,,70,127
89519,note_off,89,0,0,,11,,,70,127
89519,note_on,0,0,0,,10,,,69,127
89608,note_off,89,0,0,,10,,,69,127
89608,note_on,0,0,0,,11,,,70,127
89697,note_off,89,0,0,,11,,,70,127
89697,note_off,0,0,0,,5,,,65,127
89697,note_on,0,0,0,,5,,,53,127
89697,note_on,0,0,0,,10,,,69,127
90051,note_on,354,0,0,,5,,,41,127
90405,note_off,354,0,0,,5,,,53,127
90406,note_on,1,0,0,,5,,,53,127
90583,note_off,177,0,0,,5,,,41,127
90760,note_off,177,0,0,,10,,,69,127
90760,note_on,0,0,0,,5,,,65,127
90937,note_off,177,0,0,,5,,,65,127
90937,note_on,0,0,0,,7,,,67,127
91026,note_off,89,0,0,,7,,,67,127
91026,note_on,0,0,0,,10,,,69,127
91115,note_off,89,0,0,,10,,,69,127
91115,note_off,0,0,0,,5,,,53,127
91115,note_on,0,0,0,,5,,,65,127
91115,note_on,0,0,0,,11,,,70,127
91292,note_off,177,0,0,,11,,,70,127
91292,note_on,0,0,0,,0,,,72,127
91469,note_off,177,0,0,,0,,,72,127
91469,note_off,0,0,0,,5,,,65,127
91469,note_on,0,0,0,,11,,,70,127
91469,note_on,0,0,0,,2,,,74,127
91558,note_off,89,0,0,,2,,,74,127
91558,note_on,0,0,0,,0,,,72,127
91647,note_off,89,0,0,,0,,,72,127
91647,note_on,0,0,0,,2,,,74,127
91824,note_off,177,0,0,,2,,,74,127
91824,note_off,0,0,0,,11,,,70,127
91824,note_on,0,0,0,,7,,,67,127
91824,note_on,0,0,0,,4,,,76,127
91913,note_off,89,0,0,,4,,,76,127
91913,note_on,0,0,0,,2,,,74,127
92002,note_off,89,0,0,,2,,,74,127
92002,note_on,0,0,0,,4,,,76,127
92179,note_off,177,0,0,,4,,,76,127
92179,note_off,0,0,0,,7,,,67,127
92179,note_on,0,0,0,,5,,,65,127
92179,note_on,0,0,0,,5,,,77,127
92533,note_off,354,0,0,,5,,,77,127
92533,note_off,0,0,0,,5,,,65,127
92533,note_on,0,0,0,,5,,,53,127
92533,note_on,0,0,0,,5,,,65,127
92887,note_off,354,0,0,,5,,,65,127
92887,note_on,0,0,0,,5,,,41,127
92887,note_on,0,0,0,,7,,,67,127
92946,note_on,59,0,0,,5,,,65,127
92953,note_off,7,0,0,,7,,,67,127
93005,note_on,52,0,0,,7,,,67,127
93012,note_off,7,0,0,,5,,,65,127
93064,note_on,52,0,0,,5,,,65,127
93071,note_off,7,0,0,,7,,,67,127
93123,note_on,52,0,0,,7,,,67,127
93130,note_off,7,0,0,,5,,,65,127
93182,note_on,52,0,0,,5,,,65,127
93189,note_off,7,0,0,,7,,,67,127
93240,note_off,51,0,0,,5,,,53,127
93241,note_off,1,0,0,,5,,,41,127
93241,note_on,0,0,0,,5,,,53,127
93241,note_on,0,0,0,,7,,,67,127
93248,note_off,7,0,0,,5,,,65,127
93300,note_on,52,0,0,,5,,,65,127
93307,note_off,7,0,0,,7,,,67,127
93359,note_on,52,0,0,,7,,,67,127
93366,note_off,7,0,0,,5,,,65,127
93418,note_on,52,0,0,,5,,,65,127
93425,note_off,7,0,0,,7,,,67,127
93477,note_on,52,0,0,,4,,,64,127
93484,note_off,7,0,0,,5,,,65,127
93536,note_on,52,0,0,,5,,,65,127
93543,note_off,7,0,0,,4,,,64,127
93772,note_off,229,0,0,,5,,,65,127
93772,note_on,0,0,0,,7,,,67,127
93861,note_off,89,0,0,,7,,,67,127
93861,note_on,0,0,0,,10,,,69,127
93950,note_off,89,0,0,,10,,,69,127
93950,note_off,0,0,0,,5,,,53,127
93950,note_on,0,0,0,,5,,,65,127
93950,note_on,0,0,0,,11,,,70,127
94127,note_off,177,0,0,,11,,,70,127
94127,note_on,0,0,0,,0,,,72,127
94304,note_off,177,0,0,,0,,,72,127
94304,note_off,0,0,0,,5,,,65,127
94304,note_on,0,0,0,,11,,,70,127
94304,note_on,0,0,0,,2,,,74,127
94393,note_off,89,0,0,,2,,,74,127
94393,note_on,0,0,0,,0,,,72,127
94482,note_off,89,0,0,,0,,,72,127
94482,note_on,0,0,0,,2,,,74,127
94659,note_off,177,0,0,,2,,,74,127
94659,note_off,0,0,0,,11,,,70,127
94659,note_on,0,0,0,,7,,,67,127
94659,note_on,0,0,0,,4,,,76,127
94748,note_off,89,0,0,,4,,,76,127
94748,note_on,0,0,0,,2,,,74,127
94837,note_off,89,0,0,,2,,,74,127
94837,note_on,0,0,0,,4,,,76,127
95014,note_off,177,0,0,,4,,,76,127
95014,note_off,0,0,0,,7,,,67,127
95014,note_on,0,0,0,,5,,,65,127
95014,note_on,0,0,0,,7,,,79,127
95073,note_on,59,0,0,,5,,,77,127
95080,note_off,7,0,0,,7,,,79,127
95132,note_on,52,0,0,,4,,,76,127
95139,note_off,7,0,0,,5,,,77,127
95191,note_off,52,0,0,,5,,,65,127
95191,note_on,0,0,0,,8,,,68,127
95191,note_on,0,0,0,,5,,,77,127
95198,note_off,7,0,0,,4,,,76,127
95250,note_on,52,0,0,,7,,,79,127
95257,note_off,7,0,0,,5,,,77,127
95309,note_on,52,0,0,,5,,,77,127
95316,note_off,7,0,0,,7,,,79,127
95368,note_off,52,0,0,,8,,,68,127
95368,note_on,0,0,0,,2,,,62,127
95368,note_on,0,0,0,,7,,,79,127
95375,note_off,7,0,0,,5,,,77,127
95427,note_on,52,0,0,,5,,,77,127
95434,note_off,7,0,0,,7,,,79,127
95486,note_on,52,0,0,,7,,,79,127
95493,note_off,7,0,0,,5,,,77,127
95545,note_off,52,0,0,,2,,,62,127
95545,note_on,0,0,0,,5,,,65,127
95545,note_on,0,0,0,,5,,,77,127
95552,note_off,7,0,0,,7,,,79,127
95604,note_on,52,0,0,,7,,,79,127
95611,note_off,7,0,0,,5,,,77,127
95663,note_on,52,0,0,,5,,,77,127
95670,note_off,7,0,0,,7,,,79,127
95722,note_off,52,0,0,,5,,,65,127
95722,note_on,0,0,0,,12,,,59,127
95722,note_on,0,0,0,,7,,,79,127
95729,note_off,7,0,0,,5,,,77,127
95781,note_on,52,0,0,,5,,,77,127
95788,note_off,7,0,0,,7,,,79,127
95840,note_on,52,0,0,,7,,,79,127
95847,note_off,7,0,0,,5,,,77,127
95899,note_off,52,0,0,,12,,,59,127
95899,note_on,0,0,0,,2,,,62,127
95899,note_on,0,0,0,,5,,,77,127
95906,note_off,7,0,0,,7,,,79,127
95958,note_on,52,0,0,,7,,,79,127
95965,note_off,7,0,0,,5,,,77,127
96017,note_on,52,0,0,,5,,,77,127
96024,note_off,7,0,0,,7,,,79,127
96076,note_off,52,0,0,,2,,,62,127
96076,note_on,0,0,0,,5,,,53,127
96076,note_on,0,0,0,,7,,,79,127
96083,note_off,7,0,0,,5,,,77,127
96135,note_on,52,0,0,,5,,,77,127
96142,note_off,7,0,0,,7,,,79,127
96194,note_on,52,0,0,,7,,,79,127
96201,note_off,7,0,0,,5,,,77,127
96253,note_off,52,0,0,,5,,,53,127
96253,note_on,0,0,0,,8,,,56,127
96253,note_on,0,0,0,,5,,,77,127
96260,note_off,7,0,0,,7,,,79,127
96312,note_on,52,0,0,,7,,,79,127
96319,note_off,7,0,0,,5,,,77,127
96371,note_on,52,0,0,,5,,,77,127
96378,note_off,7,0,0,,7,,,79,127
96430,note_off,52,0,0,,8,,,56,127
96430,note_on,0,0,0,,2,,,50,127
96430,note_on,0,0,0,,7,,,79,127
96437,note_off,7,0,0,,5,,,77,127
96489,note_on,52,0,0,,5,,,77,127
96496,note_off,7,0,0,,7,,,79,127
96548,note_on,52,0,0,,7,,,79,127
96555,note_off,7,0,0,,5,,,77,127
96607,note_off,52,0,0,,2,,,50,127
96607,note_on,0,0,0,,5,,,53,127
96607,note_on,0,0,0,,5,,,77,127
96614,note_off,7,0,0,,7,,,79,127
96666,note_on,52,0,0,,7,,,79,127
96673,note_off,7,0,0,,5,,,77,127
96725,note_on,52,0,0,,5,,,77,127
96732,note_off,7,0,0,,7,,,79,127
96784,note_off,52,0,0,,5,,,53,127
96784,note_on,0,0,0,,12,,,47,127
96784,note_on,0,0,0,,7,,,79,127
96791,note_off,7,0,0,,5,,,77,127
96843,note_on,52,0,0,,5,,,77,127
96850,note_off,7,0,0,,7,,,79,127
96902,note_on,52,0,0,,7,,,79,127
96909,note_off,7,0,0,,5,,,77,127
96961,note_on,52,0,0,,2,,,50,127
96961,note_on,0,0,0,,5,,,77,127
96968,note_off,7,0,0,,7,,,79,127
96986,note_off,18,0,0,,12,,,47,127
97137,note_off,151,0,0,,2,,,50,127
97137,note_on,0,0,0,,7,,,43,127
97314,note_off,177,0,0,,5,,,77,127
97314,note_on,0,0,0,,5,,,77,127
97491,note_off,177,0,0,,5,,,77,127
97491,note_off,0,0,0,,7,,,43,127
97491,note_on,0,0,0,,12,,,47,127
97491,note_on,0,0,0,,3,,,75,127
97668,note_off,177,0,0,,3,,,75,127
97668,note_on,0,0,0,,2,,,74,127
97845,note_off,177,0,0,,2,,,74,127
97845,note_off,0,0,0,,12,,,47,127
97845,note_on,0,0,0,,0,,,48,127
97845,note_on,0,0,0,,3,,,75,127
98022,note_off,177,0,0,,3,,,75,127
98022,note_on,0,0,0,,2,,,74,127
98199,note_off,177,0,0,,2,,,74,127
98199,note_on,0,0,0,,0,,,60,127
98199,note_on,0,0,0,,8,,,68,127
98375,note_off,176,0,0,,0,,,48,127
98376,note_off,1,0,0,,8,,,68,127
98376,note_on,0,0,0,,7,,,67,127
98553,note_off,177,0,0,,7,,,67,127
98553,note_off,0,0,0,,0,,,60,127
98553,note_on,0,0,0,,5,,,53,127
98553,note_on,0,0,0,,5,,,77,127
98730,note_off,177,0,0,,5,,,77,127
98730,note_on,0,0,0,,3,,,75,127
98907,note_off,177,0,0,,3,,,75,127
98907,note_off,0,0,0,,5,,,53,127
98907,note_on,0,0,0,,8,,,56,127
98907,note_on,0,0,0,,2,,,74,127
99084,note_off,177,0,0,,2,,,74,127
99084,note_on,0,0,0,,0,,,72,127
99261,note_off,177,0,0,,0,,,72,127
99261,note_off,0,0,0,,8,,,56,127
99261,note_on,0,0,0,,7,,,55,127
99261,note_on,0,0,0,,12,,,71,127
99438,note_off,177,0,0,,12,,,71,127
99438,note_on,0,0,0,,7,,,67,127
99615,note_off,177,0,0,,7,,,67,127
99615,note_on,0,0,0,,7,,,43,127
99615,note_on,0,0,0,,8,,,68,127
99792,note_on,177,0,0,,7,,,67,127
99836,note_off,44,0,0,,8,,,68,127
99969,note_off,133,0,0,,7,,,67,127
99969,note_on,0,0,0,,0,,,72,127
100146,note_on,177,0,0,,12,,,71,127
100190,note_off,44,0,0,,0,,,72,127
100322,note_off,132,0,0,,7,,,55,127
100323,note_off,1,0,0,,12,,,71,127
100323,note_off,0,0,0,,7,,,43,127
100323,note_on,0,0,0,,7,,,55,127
100323,note_on,0,0,0,,3,,,75,127
100500,note_on,177,0,0,,2,,,74,127
100544,note_off,44,0,0,,3,,,75,127
100677,note_off,133,0,0,,7,,,55,127
100677,note_on,0,0,0,,5,,,53,127
100677,note_on,0,0,0,,8,,,80,127
100725,note_off,48,0,0,,2,,,74,127
100854,note_off,129,0,0,,8,,,80,127
100854,note_on,0,0,0,,7,,,67,127
101031,note_off,177,0,0,,7,,,67,127
101031,note_on,0,0,0,,5,,,41,127
101031,note_on,0,0,0,,8,,,68,127
101208,note_on,177,0,0,,7,,,67,127
101252,note_off,44,0,0,,8,,,68,127
101385,note_off,133,0,0,,7,,,67,127
101385,note_on,0,0,0,,0,,,72,127
101562,note_on,177,0,0,,12,,,71,127
101606,note_off,44,0,0,,0,,,72,127
101737,note_off,131,0,0,,5,,,53,127
101739,note_off,2,0,0,,12,,,71,127
101739,note_off,0,0,0,,5,,,41,127
101739,note_on,0,0,0,,5,,,53,127
101739,note_on,0,0,0,,3,,,75,127
101916,note_on,177,0,0,,2,,,74,127
101960,note_off,44,0,0,,3,,,75,127
102093,note_off,133,0,0,,5,,,53,127
102093,note_on,0,0,0,,7,,,55,127
102093,note_on,0,0,0,,7,,,79,127
102141,note_off,48,0,0,,2,,,74,127
102270,note_off,129,0,0,,7,,,79,127
102270,note_on,0,0,0,,7,,,67,127
102447,note_off,177,0,0,,7,,,67,127
102447,note_on,0,0,0,,7,,,43,127
102447,note_on,0,0,0,,8,,,68,127
102624,note_on,177,0,0,,7,,,67,127
102668,note_off,44,0,0,,8,,,68,127
102801,note_off,133,0,0,,7,,,67,127
102801,note_on,0,0,0,,0,,,72,127
102978,note_on,177,0,0,,12,,,71,127
103022,note_off,44,0,0,,0,,,72,127
103153,note_off,131,0,0,,7,,,55,127
103155,note_off,2,0,0,,12,,,71,127
103155,note_off,0,0,0,,7,,,43,127
103155,note_on,0,0,0,,7,,,55,127
103155,note_on,0,0,0,,3,,,75,127
103332,note_on,177,0,0,,2,,,74,127
103376,note_off,44,0,0,,3,,,75,127
103509,note_off,133,0,0,,7,,,55,127
103509,note_on,0,0,0,,5,,,53,127
103509,note_on,0,0,0,,8,,,80,127
103557,note_off,48,0,0,,2,,,74,127
103686,note_off,129,0,0,,8,,,80,127
103686,note_on,0,0,0,,7,,,67,127
103863,note_off,177,0,0,,7,,,67,127
103863,note_on,0,0,0,,5,,,41,127
103863,note_on,0,0,0,,8,,,68,127
104040,note_on,177,0,0,,7,,,67,127
104084,note_off,44,0,0,,8,,,68,127
104217,note_off,133,0,0,,7,,,67,127
104217,note_on,0,0,0,,0,,,72,127
104394,note_on,177,0,0,,12,,,71,127
104438,note_off,44,0,0,,0,,,72,127
104569,note_off,131,0,0,,5,,,53,127
104571,note_off,2,0,0,,12,,,71,127
104571,note_off,0,0,0,,5,,,41,127
104571,note_on,0,0,0,,5,,,53,127
104571,note_on,0,0,0,,3,,,75,127
104748,note_on,177,0,0,,2,,,74,127
104792,note_off,44,0,0,,3,,,75,127
104925,note_off,133,0,0,,5,,,53,127
104925,note_on,0,0,0,,7,,,43,127
104925,note_on,0,0,0,,7,,,79,127
104973,note_off,48,0,0,,2,,,74,127
105102,note_off,129,0,0,,7,,,79,127
105102,note_on,0,0,0,,2,,,74,127
105279,note_off,177,0,0,,2,,,74,127
105279,note_on,0,0,0,,7,,,55,127
105279,note_on,0,0,0,,12,,,71,127
105455,note_off,176,0,0,,7,,,43,127
105456,note_off,1,0,0,,12,,,71,127
105456,note_on,0,0,0,,7,,,67,127
105633,note_off,177,0,0,,7,,,55,127
105633,note_on,0,0,0,,10,,,57,127
105692,note_on,59,0,0,,5,,,65,127
105699,note_off,7,0,0,,7,,,67,127
105751,note_on,52,0,0,,7,,,67,127
105758,note_off,7,0,0,,5,,,65,127
105810,note_on,52,0,0,,5,,,65,127
105817,note_off,7,0,0,,7,,,67,127
105869,note_on,52,0,0,,7,,,67,127
105876,note_off,7,0,0,,5,,,65,127
105928,note_on,52,0,0,,5,,,65,127
105935,note_off,7,0,0,,7,,,67,127
105987,note_off,52,0,0,,10,,,57,127
105987,note_on,0,0,0,,12,,,59,127
105987,note_on,0,0,0,,7,,,67,127
105994,note_off,7,0,0,,5,,,65,127
106046,note_on,52,0,0,,5,,,65,127
106053,note_off,7,0,0,,7,,,67,127
106105,note_on,52,0,0,,7,,,67,127
106112,note_off,7,0,0,,5,,,65,127
106164,note_on,52,0,0,,5,,,65,127
106171,note_off,7,0,0,,7,,,67,127
106223,note_on,52,0,0,,4,,,64,127
106230,note_off,7,0,0,,5,,,65,127
106282,note_on,52,0,0,,5,,,65,127
106289,note_off,7,0,0,,4,,,64,127
106334,note_off,45,0,0,,5,,,65,127
106341,note_off,7,0,0,,12,,,59,127
106341,note_on,0,0,0,,0,,,48,127
106341,note_on,0,0,0,,0,,,84,127
106518,note_off,177,0,0,,0,,,84,127
106518,note_on,0,0,0,,7,,,79,127
106695,note_off,177,0,0,,7,,,79,127
106695,note_on,0,0,0,,0,,,60,127
106695,note_on,0,0,0,,4,,,76,127
106871,note_off,176,0,0,,0,,,48,127
106872,note_off,1,0,0,,4,,,76,127
106872,note_on,0,0,0,,0,,,72,127
107049,note_off,177,0,0,,0,,,60,127
107049,note_on,0,0,0,,2,,,62,127
107108,note_on,59,0,0,,11,,,70,127
107115,note_off,7,0,0,,0,,,72,127
107167,note_on,52,0,0,,0,,,72,127
107174,note_off,7,0,0,,11,,,70,127
107226,note_on,52,0,0,,11,,,70,127
107233,note_off,7,0,0,,0,,,72,127
107285,note_on,52,0,0,,0,,,72,127
107292,note_off,7,0,0,,11,,,70,127
107344,note_on,52,0,0,,11,,,70,127
107351,note_off,7,0,0,,0,,,72,127
107403,note_off,52,0,0,,2,,,62,127
107403,note_on,0,0,0,,4,,,64,127
107403,note_on,0,0,0,,0,,,72,127
107410,note_off,7,0,0,,11,,,70,127
107462,note_on,52,0,0,,11,,,70,127
107469,note_off,7,0,0,,0,,,72,127
107521,note_on,52,0,0,,0,,,72,127
107528,note_off,7,0,0,,11,,,70,127
107580,note_on,52,0,0,,11,,,70,127
107587,note_off,7,0,0,,0,,,72,127
107639,note_on,52,0,0,,10,,,69,127
107646,note_off,7,0,0,,11,,,70,127
107698,note_on,52,0,0,,11,,,70,127
107705,note_off,7,0,0,,10,,,69,127
107757,note_off,52,0,0,,4,,,64,127
107757,note_on,0,0,0,,5,,,41,127
107757,note_on,0,0,0,,5,,,77,127
107764,note_off,7,0,0,,11,,,70,127
107934,note_off,170,0,0,,5,,,77,127
107934,note_on,0,0,0,,0,,,72,127
108111,note_off,177,0,0,,0,,,72,127
108111,note_on,0,0,0,,5,,,53,127
108111,note_on,0,0,0,,10,,,69,127
108287,note_off,176,0,0,,5,,,41,127
108288,note_off,1,0,0,,10,,,69,127
108288,note_on,0,0,0,,5,,,65,127
108465,note_off,177,0,0,,5,,,53,127
108465,note_on,0,0,0,,7,,,55,127
108524,note_on,59,0,0,,3,,,63,127
108531,note_off,7,0,0,,5,,,65,127
108583,note_on,52,0,0,,5,,,65,127
108590,note_off,7,0,0,,3,,,63,127
108642,note_on,52,0,0,,3,,,63,127
108649,note_off,7,0,0,,5,,,65,127
108701,note_on,52,0,0,,5,,,65,127
108708,note_off,7,0,0,,3,,,63,127
108760,note_on,52,0,0,,3,,,63,127
108767,note_off,7,0,0,,5,,,65,127
108819,note_off,52,0,0,,7,,,55,127
108819,note_on,0,0,0,,10,,,57,127
108819,note_on,0,0,0,,5,,,65,127
108826,note_off,7,0,0,,3,,,63,127
108878,note_on,52,0,0,,3,,,63,127
108885,note_off,7,0,0,,5,,,65,127
108937,note_on,52,0,0,,5,,,65,127
108944,note_off,7,0,0,,3,,,63,127
108996,note_on,52,0,0,,3,,,63,127
109003,note_off,7,0,0,,5,,,65,127
109055,note_on,52,0,0,,2,,,62,127
109062,note_off,7,0,0,,3,,,63,127
109114,note_on,52,0,0,,3,,,63,127
109121,note_off,7,0,0,,2,,,62,127
109166,note_off,45,0,0,,3,,,63,127
109173,note_off,7,0,0,,10,,,57,127
109173,note_on,0,0,0,,11,,,46,127
109173,note_on,0,0,0,,11,,,82,127
109350,note_off,177,0,0,,11,,,82,127
109350,note_on,0,0,0,,5,,,77,127
109527,note_off,177,0,0,,5,,,77,127
109527,note_on,0,0,0,,11,,,58,127
109527,note_on,0,0,0,,2,,,74,127
109703,note_off,176,0,0,,11,,,46,127
109704,note_off,1,0,0,,2,,,74,127
109704,note_on,0,0,0,,11,,,70,127
109881,note_off,177,0,0,,11,,,58,127
109881,note_on,0,0,0,,0,,,60,127
109940,note_on,59,0,0,,8,,,68,127
109947,note_off,7,0,0,,11,,,70,127
109999,note_on,52,0,0,,11,,,70,127
110006,note_off,7,0,0,,8,,,68,127
110058,note_on,52,0,0,,8,,,68,127
110065,note_off,7,0,0,,11,,,70,127
110117,note_on,52,0,0,,11,,,70,127
110124,note_off,7,0,0,,8,,,68,127
110176,note_on,52,0,0,,8,,,68,127
110183,note_off,7,0,0,,11,,,70,127
110235,note_off,52,0,0,,0,,,60,127
110235,note_on,0,0,0,,2,,,62,127
110235,note_on,0,0,0,,11,,,70,127
110242,note_off,7,0,0,,8,,,68,127
110294,note_on,52,0,0,,8,,,68,127
110301,note_off,7,0,0,,11,,,70,127
110353,note_on,52,0,0,,11,,,70,127
110360,note_off,7,0,0,,8,,,68,127
110412,note_on,52,0,0,,8,,,68,127
110419,note_off,7,0,0,,11,,,70,127
110471,note_on,52,0,0,,7,,,67,127
110478,note_off,7,0,0,,8,,,68,127
110530,note_on,52,0,0,,8,,,68,127
110537,note_off,7,0,0,,7,,,67,127
110589,note_off,52,0,0,,2,,,62,127
110589,note_on,0,0,0,,3,,,63,127
110589,note_on,0,0,0,,7,,,67,127
110596,note_off,7,0,0,,8,,,68,127
110766,note_off,170,0,0,,7,,,67,127
110766,note_on,0,0,0,,3,,,75,127
110943,note_off,177,0,0,,3,,,75,127
110943,note_off,0,0,0,,3,,,63,127
110943,note_on,0,0,0,,0,,,60,127
110943,note_on,0,0,0,,10,,,69,127
111120,note_off,177,0,0,,10,,,69,127
111120,note_on,0,0,0,,5,,,77,127
111297,note_off,177,0,0,,5,,,77,127
111297,note_off,0,0,0,,0,,,60,127
111297,note_on,0,0,0,,2,,,62,127
111297,note_on,0,0,0,,11,,,70,127
111474,note_off,177,0,0,,11,,,70,127
111474,note_on,0,0,0,,7,,,79,127
111651,note_off,177,0,0,,2,,,62,127
111651,note_on,0,0,0,,10,,,57,127
111828,note_off,177,0,0,,7,,,79,127
111828,note_on,0,0,0,,5,,,77,127
111917,note_off,89,0,0,,5,,,77,127
111917,note_on,0,0,0,,3,,,75,127
112006,note_off,89,0,0,,3,,,75,127
112006,note_off,0,0,0,,10,,,57,127
112006,note_on,0,0,0,,11,,,58,127
112006,note_on,0,0,0,,2,,,74,127
112183,note_off,177,0,0,,2,,,74,127
112183,note_on,0,0,0,,0,,,72,127
112360,note_off,177,0,0,,0,,,72,127
112360,note_off,0,0,0,,11,,,58,127
112360,note_on,0,0,0,,2,,,62,127
112360,note_on,0,0,0,,11,,,70,127
112537,note_off,177,0,0,,11,,,70,127
112537,note_on,0,0,0,,10,,,69,127
112714,note_off,177,0,0,,10,,,69,127
112714,note_off,0,0,0,,2,,,62,127
112714,note_on,0,0,0,,3,,,63,127
112714,note_on,0,0,0,,7,,,67,127
112891,note_off,177,0,0,,7,,,67,127
112891,note_on,0,0,0,,5,,,65,127
113068,note_off,177,0,0,,5,,,65,127
113068,note_off,0,0,0,,3,,,63,127
113068,note_on,0,0,0,,3,,,51,127
113068,note_on,0,0,0,,3,,,63,127
113245,note_off,177,0,0,,3,,,63,127
113245,note_on,0,0,0,,2,,,62,127
113422,note_off,177,0,0,,2,,,62,127
113422,note_off,0,0,0,,3,,,51,127
113422,note_on,0,0,0,,5,,,41,127
113422,note_on,0,0,0,,0,,,60,127
113599,note_off,177,0,0,,0,,,60,127
113599,note_on,0,0,0,,11,,,58,127
113776,note_off,177,0,0,,11,,,58,127
113776,note_on,0,0,0,,10,,,57,127
113953,note_off,177,0,0,,10,,,57,127
113953,note_on,0,0,0,,7,,,55,127
114130,note_off,177,0,0,,7,,,55,127
114130,note_on,0,0,0,,5,,,53,127
114307,note_off,177,0,0,,5,,,41,127
114307,note_on,0,0,0,,3,,,51,127
114484,note_off,177,0,0,,3,,,51,127
114484,note_on,0,0,0,,2,,,50,127
114661,note_off,177,0,0,,2,,,50,127
114661,note_on,0,0,0,,0,,,48,127
114838,note_off,177,0,0,,0,,,48,127
114838,note_on,0,0,0,,11,,,46,127
115015,note_off,177,0,0,,5,,,53,127
115015,note_on,0,0,0,,8,,,68,127
115192,note_off,177,0,0,,8,,,68,127
115192,note_on,0,0,0,,7,,,67,127
115369,note_off,177,0,0,,7,,,67,127
115369,note_on,0,0,0,,5,,,65,127
115546,note_off,177,0,0,,5,,,65,127
115546,note_on,0,0,0,,11,,,58,127
115546,note_on,0,0,0,,5,,,77,127
115546,note_on,0,0,0,,8,,,68,127
115723,note_off,177,0,0,,5,,,77,127
115723,note_on,0,0,0,,2,,,74,127
115898,note_off,175,0,0,,11,,,46,127
115900,note_off,2,0,0,,2,,,74,127
115900,note_off,0,0,0,,8,,,68,127
115900,note_off,0,0,0,,11,,,58,127
115900,note_on,0,0,0,,3,,,75,127
115900,note_on,0,0,0,,7,,,67,127
115900,note_on,0,0,0,,11,,,58,127
116077,note_off,177,0,0,,3,,,75,127
116077,note_on,0,0,0,,0,,,72,127
116254,note_off,177,0,0,,0,,,72,127
116254,note_off,0,0,0,,11,,,58,127
116254,note_off,0,0,0,,7,,,67,127
116254,note_on,0,0,0,,2,,,74,127
116254,note_on,0,0,0,,5,,,65,127
116254,note_on,0,0,0,,11,,,58,127
116431,note_off,177,0,0,,2,,,74,127
116431,note_on,0,0,0,,5,,,77,127
116608,note_off,177,0,0,,5,,,77,127
116608,note_on,0,0,0,,3,,,75,127
116785,note_off,177,0,0,,3,,,75,127
116785,note_on,0,0,0,,2,,,74,127
116962,note_off,177,0,0,,2,,,74,127
116962,note_off,0,0,0,,11,,,58,127
116962,note_off,0,0,0,,5,,,65,127
116962,note_on,0,0,0,,11,,,58,127
116962,note_on,0,0,0,,8,,,80,127
116962,note_on,0,0,0,,5,,,65,127
117139,note_off,177,0,0,,8,,,80,127
117139,note_on,0,0,0,,11,,,70,127
117316,note_off,177,0,0,,11,,,70,127
117316,note_off,0,0,0,,5,,,65,127
117316,note_off,0,0,0,,11,,,58,127
117316,note_on,0,0,0,,7,,,79,127
117316,note_on,0,0,0,,3,,,63,127
117316,note_on,0,0,0,,11,,,58,127
117493,note_off,177,0,0,,7,,,79,127
117493,note_on,0,0,0,,11,,,70,127
117670,note_off,177,0,0,,11,,,70,127
117670,note_off,0,0,0,,11,,,58,127
117670,note_off,0,0,0,,3,,,63,127
117670,note_on,0,0,0,,11,,,58,127
117670,note_on,0,0,0,,5,,,77,127
117670,note_on,0,0,0,,2,,,62,127
117670,note_on,0,0,0,,5,,,65,127
117847,note_off,177,0,0,,5,,,77,127
117847,note_on,0,0,0,,8,,,80,127
118024,note_off,177,0,0,,8,,,80,127
118024,note_on,0,0,0,,7,,,79,127
118201,note_off,177,0,0,,7,,,79,127
118201,note_on,0,0,0,,5,,,77,127
118378,note_off,177,0,0,,5,,,77,127
118378,note_off,0,0,0,,5,,,65,127
118378,note_off,0,0,0,,2,,,62,127
118378,note_off,0,0,0,,11,,,58,127
118378,note_on,0,0,0,,11,,,58,127
118378,note_on,0,0,0,,0,,,84,127
118378,note_on,0,0,0,,8,,,68,127
118555,note_off,177,0,0,,0,,,84,127
118555,note_on,0,0,0,,2,,,74,127
118732,note_off,177,0,0,,2,,,74,127
118732,note_off,0,0,0,,8,,,68,127
118732,note_off,0,0,0,,11,,,58,127
118732,note_on,0,0,0,,11,,,58,127
118732,note_on,0,0,0,,11,,,82,127
118732,note_on,0,0,0,,7,,,67,127
118909,note_off,177,0,0,,11,,,82,127
118909,note_on,0,0,0,,3,,,75,127
119086,note_off,177,0,0,,3,,,75,127
119086,note_off,0,0,0,,7,,,67,127
119086,note_off,0,0,0,,11,,,58,127
119086,note_on,0,0,0,,11,,,58,127
119086,note_on,0,0,0,,8,,,80,127
119086,note_on,0,0,0,,5,,,65,127
119263,note_off,177,0,0,,8,,,80,127
119263,note_on,0,0,0,,5,,,77,127
119440,note_off,177,0,0,,5,,,77,127
119440,note_off,0,0,0,,5,,,65,127
119440,note_off,0,0,0,,11,,,58,127
119440,note_on,0,0,0,,11,,,58,127
119440,note_on,0,0,0,,7,,,79,127
119440,note_on,0,0,0,,3,,,63,127
119617,note_off,177,0,0,,7,,,79,127
119617,note_on,0,0,0,,3,,,75,127
119794,note_off,177,0,0,,3,,,75,127
119794,note_off,0,0,0,,3,,,63,127
119794,note_off,0,0,0,,11,,,58,127
119794,note_on,0,0,0,,2,,,62,127
119794,note_on,0,0,0,,5,,,77,127
119971,note_off,177,0,0,,5,,,77,127
119971,note_on,0,0,0,,2,,,74,127
120148,note_off,177,0,0,,2,,,74,127
120148,note_off,0,0,0,,2,,,62,127
120148,note_on,0,0,0,,0,,,60,127
120148,note_on,0,0,0,,3,,,75,127
120325,note_off,177,0,0,,3,,,75,127
120325,note_on,0,0,0,,0,,,72,127
120502,note_off,177,0,0,,0,,,72,127
120502,note_off,0,0,0,,0,,,60,127
120502,note_on,0,0,0,,11,,,58,127
120502,note_on,0,0,0,,2,,,74,127
120679,note_off,177,0,0,,2,,,74,127
120679,note_on,0,0,0,,11,,,70,127
120856,note_off,177,0,0,,11,,,70,127
120856,note_off,0,0,0,,11,,,58,127
120856,note_on,0,0,0,,8,,,56,127
120856,note_on,0,0,0,,0,,,72,127
121033,note_off,177,0,0,,0,,,72,127
121033,note_on,0,0,0,,8,,,68,127
121210,note_off,177,0,0,,8,,,68,127
121210,note_off,0,0,0,,8,,,56,127
121210,note_on,0,0,0,,7,,,55,127
121210,note_on,0,0,0,,11,,,70,127
121387,note_off,177,0,0,,11,,,70,127
121387,note_on,0,0,0,,7,,,67,127
121564,note_off,177,0,0,,7,,,67,127
121564,note_off,0,0,0,,7,,,55,127
121564,note_on,0,0,0,,5,,,53,127
121564,note_on,0,0,0,,8,,,68,127
121741,note_off,177,0,0,,8,,,68,127
121741,note_on,0,0,0,,5,,,65,127
121918,note_off,177,0,0,,5,,,65,127
121918,note_off,0,0,0,,5,,,53,127
121918,note_on,0,0,0,,3,,,51,127
121918,note_on,0,0,0,,7,,,67,127
122095,note_off,177,0,0,,7,,,67,127
122095,note_on,0,0,0,,3,,,75,127
122272,note_off,177,0,0,,3,,,75,127
122272,note_off,0,0,0,,3,,,51,127
122272,note_on,0,0,0,,0,,,60,127
122272,note_on,0,0,0,,10,,,69,127
122449,note_off,177,0,0,,10,,,69,127
122449,note_on,0,0,0,,5,,,77,127
122626,note_off,177,0,0,,5,,,77,127
122626,note_off,0,0,0,,0,,,60,127
122626,note_on,0,0,0,,2,,,62,127
122626,note_on,0,0,0,,11,,,70,127
122803,note_off,177,0,0,,11,,,70,127
122803,note_on,0,0,0,,7,,,79,127
122980,note_off,177,0,0,,2,,,62,127
122980,note_on,0,0,0,,10,,,57,127
123157,note_off,177,0,0,,7,,,79,127
123157,note_on,0,0,0,,5,,,77,127
123246,note_off,89,0,0,,5,,,77,127
123246,note_on,0,0,0,,3,,,75,127
123335,note_off,89,0,0,,3,,,75,127
123335,note_off,0,0,0,,10,,,57,127
123335,note_on,0,0,0,,11,,,58,127
123335,note_on,0,0,0,,2,,,74,127
123512,note_off,177,0,0,,2,,,74,127
123512,note_on,0,0,0,,5,,,77,127
123689,note_off,177,0,0,,5,,,77,127
123689,note_off,0,0,0,,11,,,58,127
123689,note_on,0,0,0,,3,,,51,127
123689,note_on,0,0,0,,7,,,79,127
123866,note_off,177,0,0,,7,,,79,127
123866,note_on,0,0,0,,11,,,70,127
124043,note_off,177,0,0,,11,,,70,127
124043,note_off,0,0,0,,3,,,51,127
124043,note_on,0,0,0,,5,,,53,127
124043,note_on,0,0,0,,2,,,74,127
124397,note_on,354,0,0,,5,,,41,127
124486,note_off,89,0,0,,2,,,74,127
124486,note_on,0,0,0,,0,,,72,127
124575,note_off,89,0,0,,0,,,72,127
124575,note_on,0,0,0,,11,,,70,127
124664,note_off,89,0,0,,11,,,70,127
124664,note_on,0,0,0,,0,,,72,127
124752,note_off,88,0,0,,5,,,53,127
124753,note_off,1,0,0,,0,,,72,127
124753,note_off,0,0,0,,5,,,41,127
124753,note_on,0,0,0,,7,,,43,127
124753,note_on,0,0,0,,11,,,70,127
124930,note_off,177,0,0,,11,,,70,127
124930,note_on,0,0,0,,11,,,70,127
125107,note_off,177,0,0,,11,,,70,127
125107,note_on,0,0,0,,7,,,55,127
125107,note_on,0,0,0,,4,,,64,127
125283,note_off,176,0,0,,7,,,43,127
125284,note_off,1,0,0,,4,,,64,127
125284,note_on,0,0,0,,5,,,65,127
125461,note_off,177,0,0,,5,,,65,127
125461,note_off,0,0,0,,7,,,55,127
125461,note_on,0,0,0,,10,,,57,127
125461,note_on,0,0,0,,3,,,63,127
125638,note_off,177,0,0,,3,,,63,127
125638,note_on,0,0,0,,0,,,72,127
125815,note_off,177,0,0,,10,,,57,127
125815,note_on,0,0,0,,5,,,53,127
125992,note_off,177,0,0,,0,,,72,127
125992,note_on,0,0,0,,3,,,63,127
126169,note_off,177,0,0,,3,,,63,127
126169,note_off,0,0,0,,5,,,53,127
126169,note_on,0,0,0,,11,,,58,127
126169,note_on,0,0,0,,2,,,62,127
126346,note_off,177,0,0,,2,,,62,127
126346,note_on,0,0,0,,5,,,65,127
126523,note_off,177,0,0,,5,,,65,127
126523,note_off,0,0,0,,11,,,58,127
126523,note_on,0,0,0,,3,,,51,127
126523,note_on,0,0,0,,7,,,67,127
126700,note_off,177,0,0,,7,,,67,127
126700,note_on,0,0,0,,11,,,58,127
126877,note_off,177,0,0,,11,,,58,127
126877,note_off,0,0,0,,3,,,51,127
126877,note_on,0,0,0,,5,,,53,127
126877,note_on,0,0,0,,2,,,62,127
127231,note_on,354,0,0,,5,,,41,127
127320,note_off,89,0,0,,2,,,62,127
127320,note_on,0,0,0,,0,,,60,127
127409,note_off,89,0,0,,0,,,60,127
127409,note_on,0,0,0,,11,,,58,127
127498,note_off,89,0,0,,11,,,58,127
127498,note_on,0,0,0,,0,,,60,127
127586,note_off,88,0,0,,5,,,53,127
127587,note_off,1,0,0,,0,,,60,127
127587,note_off,0,0,0,,5,,,41,127
127587,note_on,0,0,0,,11,,,46,127
127587,note_on,0,0,0,,11,,,58,127
127941,note_off,354,0,0,,11,,,58,127
127941,note_on,0,0,0,,11,,,82,127
128295,note_off,354,0,0,,11,,,82,127
128295,note_on,0,0,0,,8,,,80,127
128384,note_off,89,0,0,,8,,,80,127
128384,note_on,0,0,0,,6,,,78,127
128473,note_off,89,0,0,,6,,,78,127
128473,note_on,0,0,0,,5,,,77,127
128650,note_off,177,0,0,,5,,,77,127
128650,note_off,0,0,0,,11,,,46,127
128650,note_on,0,0,0,,11,,,70,127
128650,note_on,0,0,0,,6,,,78,127
128650,note_on,0,0,0,,3,,,75,127
129004,note_off,354,0,0,,6,,,78,127
129004,note_off,0,0,0,,11,,,70,127
129004,note_on,0,0,0,,10,,,69,127
129004,note_on,0,0,0,,5,,,77,127
129181,note_off,177,0,0,,3,,,75,127
129181,note_on,0,0,0,,0,,,72,127
129358,note_off,177,0,0,,0,,,72,127
129358,note_off,0,0,0,,5,,,77,127
129358,note_off,0,0,0,,10,,,69,127
129358,note_on,0,0,0,,11,,,70,127
129358,note_on,0,0,0,,1,,,73,127
129535,note_off,177,0,0,,1,,,73,127
129535,note_on,0,0,0,,5,,,77,127
129712,note_off,177,0,0,,5,,,77,127
129712,note_off,0,0,0,,11,,,70,127
129712,note_on,0,0,0,,3,,,63,127
129712,note_on,0,0,0,,0,,,72,127
130066,note_off,354,0,0,,0,,,72,127
130066,note_off,0,0,0,,3,,,63,127
130066,note_on,0,0,0,,6,,,66,127
130066,note_on,0,0,0,,11,,,70,127
130420,note_off,354,0,0,,11,,,70,127
130420,note_off,0,0,0,,6,,,66,127
130420,note_on,0,0,0,,5,,,65,127
130420,note_on,0,0,0,,10,,,69,127
130774,note_off,354,0,0,,10,,,69,127
130774,note_off,0,0,0,,5,,,65,127
130774,note_on,0,0,0,,11,,,58,127
130774,note_on,0,0,0,,11,,,82,127
131128,note_off,354,0,0,,11,,,82,127
131128,note_on,0,0,0,,8,,,80,127
131217,note_off,89,0,0,,8,,,80,127
131217,note_on,0,0,0,,6,,,78,127
131306,note_off,89,0,0,,6,,,78,127
131306,note_on,0,0,0,,5,,,77,127
131483,note_off,177,0,0,,5,,,77,127
131483,note_on,0,0,0,,11,,,70,127
131483,note_on,0,0,0,,6,,,78,127
131483,note_on,0,0,0,,3,,,75,127
131660,note_off,177,0,0,,11,,,58,127
131837,note_off,177,0,0,,6,,,78,127
131837,note_off,0,0,0,,11,,,70,127
131837,note_on,0,0,0,,10,,,69,127
131837,note_on,0,0,0,,5,,,77,127
132014,note_off,177,0,0,,3,,,75,127
132014,note_on,0,0,0,,0,,,72,127
132191,note_off,177,0,0,,0,,,72,127
132191,note_off,0,0,0,,5,,,77,127
132191,note_off,0,0,0,,10,,,69,127
132191,note_on,0,0,0,,11,,,70,127
132191,note_on,0,0,0,,1,,,73,127
132368,note_off,177,0,0,,1,,,73,127
132368,note_on,0,0,0,,5,,,77,127
132545,note_off,177,0,0,,5,,,77,127
132545,note_off,0,0,0,,11,,,70,127
132545,note_on,0,0,0,,3,,,63,127
132545,note_on,0,0,0,,0,,,72,127
132899,note_off,354,0,0,,3,,,63,127
132899,note_on,0,0,0,,6,,,66,127
132988,note_off,89,0,0,,0,,,72,127
132988,note_on,0,0,0,,11,,,70,127
133077,note_off,89,0,0,,11,,,70,127
133077,note_on,0,0,0,,10,,,69,127
133166,note_off,89,0,0,,10,,,69,127
133166,note_on,0,0,0,,11,,,70,127
133255,note_off,89,0,0,,11,,,70,127
133255,note_off,0,0,0,,6,,,66,127
133255,note_on,0,0,0,,5,,,53,127
133255,note_on,0,0,0,,10,,,69,127
133609,note_off,354,0,0,,10,,,69,127
133609,note_on,0,0,0,,5,,,65,127
133609,note_on,0,0,0,,5,,,77,127
133785,note_off,176,0,0,,5,,,53,127
133963,note_off,178,0,0,,5,,,77,127
133963,note_on,0,0,0,,3,,,75,127
134052,note_on,89,0,0,,1,,,73,127
134096,note_off,44,0,0,,3,,,75,127
134140,note_off,44,0,0,,1,,,73,127
134140,note_on,0,0,0,,0,,,72,127
134317,note_off,177,0,0,,0,,,72,127
134317,note_off,0,0,0,,5,,,65,127
134317,note_on,0,0,0,,5,,,65,127
134317,note_on,0,0,0,,1,,,73,127
134671,note_off,354,0,0,,1,,,73,127
134671,note_off,0,0,0,,5,,,65,127
134671,note_on,0,0,0,,3,,,63,127
134671,note_on,0,0,0,,0,,,72,127
134760,note_on,89,0,0,,1,,,61,127
134804,note_off,44,0,0,,3,,,63,127
134848,note_off,44,0,0,,1,,,61,127
134848,note_on,0,0,0,,0,,,60,127
135025,note_off,177,0,0,,0,,,60,127
135025,note_on,0,0,0,,1,,,61,127
135025,note_on,0,0,0,,11,,,70,127
135069,note_off,44,0,0,,0,,,72,127
135379,note_off,310,0,0,,11,,,70,127
135379,note_off,0,0,0,,1,,,61,127
135379,note_on,0,0,0,,0,,,60,127
135379,note_on,0,0,0,,8,,,68,127
135468,note_on,89,0,0,,6,,,66,127
135512,note_off,44,0,0,,8,,,68,127
135556,note_off,44,0,0,,6,,,66,127
135556,note_on,0,0,0,,5,,,65,127
135733,note_off,177,0,0,,5,,,65,127
135733,note_off,0,0,0,,0,,,60,127
135733,note_on,0,0,0,,11,,,58,127
135733,note_on,0,0,0,,8,,,68,127
135822,note_off,89,0,0,,8,,,68,127
135822,note_on,0,0,0,,6,,,66,127
135911,note_off,89,0,0,,6,,,66,127
135911,note_on,0,0,0,,5,,,65,127
136000,note_off,89,0,0,,5,,,65,127
136000,note_on,0,0,0,,6,,,66,127
136089,note_off,89,0,0,,6,,,66,127
136089,note_off,0,0,0,,11,,,58,127
136089,note_on,0,0,0,,10,,,57,127
136089,note_on,0,0,0,,5,,,65,127
136266,note_off,177,0,0,,5,,,65,127
136266,note_on,0,0,0,,5,,,65,127
136443,note_off,177,0,0,,5,,,65,127
136443,note_off,0,0,0,,10,,,57,127
136443,note_on,0,0,0,,5,,,41,127
136443,note_on,0,0,0,,6,,,66,127
136620,note_on,177,0,0,,5,,,65,127
136664,note_off,44,0,0,,6,,,66,127
136797,note_off,133,0,0,,5,,,65,127
136797,note_on,0,0,0,,11,,,70,127
136974,note_on,177,0,0,,10,,,69,127
137018,note_off,44,0,0,,11,,,70,127
137151,note_off,133,0,0,,10,,,69,127
137151,note_off,0,0,0,,5,,,41,127
137151,note_on,0,0,0,,5,,,53,127
137151,note_on,0,0,0,,1,,,73,127
137328,note_on,177,0,0,,0,,,72,127
137372,note_off,44,0,0,,1,,,73,127
137505,note_off,133,0,0,,5,,,53,127
137505,note_on,0,0,0,,3,,,51,127
137505,note_on,0,0,0,,6,,,78,127
137549,note_off,44,0,0,,0,,,72,127
137682,note_off,133,0,0,,6,,,78,127
137682,note_on,0,0,0,,5,,,65,127
137859,note_off,177,0,0,,5,,,65,127
137859,note_on,0,0,0,,3,,,39,127
137859,note_on,0,0,0,,6,,,66,127
138036,note_on,177,0,0,,5,,,65,127
138080,note_off,44,0,0,,6,,,66,127
138212,note_off,132,0,0,,3,,,51,127
138213,note_off,1,0,0,,5,,,65,127
138213,note_on,0,0,0,,11,,,70,127
138390,note_on,177,0,0,,10,,,69,127
138434,note_off,44,0,0,,11,,,70,127
138567,note_off,133,0,0,,10,,,69,127
138567,note_off,0,0,0,,3,,,39,127
138567,note_on,0,0,0,,3,,,51,127
138567,note_on,0,0,0,,1,,,73,127
138744,note_on,177,0,0,,0,,,72,127
138788,note_off,44,0,0,,1,,,73,127
138921,note_off,133,0,0,,3,,,51,127
138921,note_on,0,0,0,,5,,,53,127
138921,note_on,0,0,0,,5,,,77,127
138965,note_off,44,0,0,,0,,,72,127
139098,note_off,133,0,0,,5,,,77,127
139098,note_on,0,0,0,,5,,,65,127
139275,note_off,177,0,0,,5,,,65,127
139275,note_on,0,0,0,,5,,,41,127
139275,note_on,0,0,0,,6,,,66,127
139452,note_on,177,0,0,,5,,,65,127
139496,note_off,44,0,0,,6,,,66,127
139628,note_off,132,0,0,,5,,,53,127
139629,note_off,1,0,0,,5,,,65,127
139629,note_on,0,0,0,,11,,,70,127
139806,note_on,177,0,0,,10,,,69,127
139850,note_off,44,0,0,,11,,,70,127
139983,note_off,133,0,0,,10,,,69,127
139983,note_off,0,0,0,,5,,,41,127
139983,note_on,0,0,0,,5,,,53,127
139983,note_on,0,0,0,,1,,,73,127
140160,note_on,177,0,0,,0,,,72,127
140204,note_off,44,0,0,,1,,,73,127
140337,note_off,133,0,0,,5,,,53,127
140337,note_on,0,0,0,,3,,,51,127
140337,note_on,0,0,0,,6,,,78,127
140381,note_off,44,0,0,,0,,,72,127
140514,note_off,133,0,0,,6,,,78,127
140514,note_on,0,0,0,,5,,,65,127
140691,note_off,177,0,0,,5,,,65,127
140691,note_on,0,0,0,,3,,,39,127
140691,note_on,0,0,0,,6,,,66,127
140868,note_on,177,0,0,,5,,,65,127
140912,note_off,44,0,0,,6,,,66,127
141044,note_off,132,0,0,,3,,,51,127
141045,note_off,1,0,0,,5,,,65,127
141045,note_on,0,0,0,,11,,,70,127
141222,note_on,177,0,0,,10,,,69,127
141266,note_off,44,0,0,,11,,,70,127
141399,note_off,133,0,0,,10,,,69,127
141399,note_off,0,0,0,,3,,,39,127
141399,note_on,0,0,0,,3,,,51,127
141399,note_on,0,0,0,,1,,,73,127
141576,note_on,177,0,0,,0,,,72,127
141620,note_off,44,0,0,,1,,,73,127
141753,note_off,133,0,0,,3,,,51,127
141753,note_on,0,0,0,,5,,,41,127
141753,note_on,0,0,0,,5,,,77,127
141797,note_off,44,0,0,,0,,,72,127
141930,note_off,133,0,0,,5,,,77,127
141930,note_on,0,0,0,,0,,,72,127
142107,note_off,177,0,0,,0,,,72,127
142107,note_on,0,0,0,,5,,,53,127
142107,note_on,0,0,0,,10,,,69,127
142283,note_off,176,0,0,,5,,,41,127
142284,note_off,1,0,0,,10,,,69,127
142284,note_on,0,0,0,,5,,,65,127
142461,note_off,177,0,0,,5,,,53,127
142461,note_on,0,0,0,,7,,,55,127
142520,note_on,59,0,0,,3,,,63,127
142527,note_off,7,0,0,,5,,,65,127
142579,note_on,52,0,0,,5,,,65,127
142586,note_off,7,0,0,,3,,,63,127
142638,note_on,52,0,0,,3,,,63,127
142645,note_off,7,0,0,,5,,,65,127
142697,note_on,52,0,0,,5,,,65,127
142704,note_off,7,0,0,,3,,,63,127
142756,note_on,52,0,0,,3,,,63,127
142763,note_off,7,0,0,,5,,,65,127
142815,note_off,52,0,0,,7,,,55,127
142815,note_on,0,0,0,,10,,,57,127
142815,note_on,0,0,0,,5,,,65,127
142822,note_off,7,0,0,,3,,,63,127
142874,note_on,52,0,0,,3,,,63,127
142881,note_off,7,0,0,,5,,,65,127
142933,note_on,52,0,0,,5,,,65,127
142940,note_off,7,0,0,,3,,,63,127
142992,note_on,52,0,0,,3,,,63,127
142999,note_off,7,0,0,,5,,,65,127
143051,note_on,52,0,0,,2,,,62,127
143058,note_off,7,0,0,,3,,,63,127
143110,note_on,52,0,0,,3,,,63,127
143117,note_off,7,0,0,,2,,,62,127
143169,note_off,52,0,0,,10,,,57,127
143169,note_on,0,0,0,,11,,,58,127
143169,note_on,0,0,0,,5,,,77,127
143176,note_off,7,0,0,,3,,,63,127
143346,note_off,170,0,0,,5,,,77,127
143346,note_on,0,0,0,,2,,,74,127
143523,note_off,177,0,0,,2,,,74,127
143523,note_off,0,0,0,,11,,,58,127
143523,note_on,0,0,0,,2,,,62,127
143523,note_on,0,0,0,,11,,,70,127
143700,note_off,177,0,0,,11,,,70,127
143700,note_on,0,0,0,,5,,,65,127
143877,note_off,177,0,0,,2,,,62,127
143877,note_on,0,0,0,,0,,,60,127
143936,note_on,59,0,0,,3,,,63,127
143943,note_off,7,0,0,,5,,,65,127
143995,note_on,52,0,0,,5,,,65,127
144002,note_off,7,0,0,,3,,,63,127
144054,note_on,52,0,0,,3,,,63,127
144061,note_off,7,0,0,,5,,,65,127
144113,note_on,52,0,0,,5,,,65,127
144120,note_off,7,0,0,,3,,,63,127
144172,note_on,52,0,0,,3,,,63,127
144179,note_off,7,0,0,,5,,,65,127
144231,note_off,52,0,0,,0,,,60,127
144231,note_on,0,0,0,,5,,,53,127
144231,note_on,0,0,0,,5,,,65,127
144238,note_off,7,0,0,,3,,,63,127
144290,note_on,52,0,0,,3,,,63,127
144297,note_off,7,0,0,,5,,,65,127
144349,note_on,52,0,0,,5,,,65,127
144356,note_off,7,0,0,,3,,,63,127
144408,note_on,52,0,0,,3,,,63,127
144415,note_off,7,0,0,,5,,,65,127
144467,note_on,52,0,0,,2,,,62,127
144474,note_off,7,0,0,,3,,,63,127
144526,note_on,52,0,0,,3,,,63,127
144533,note_off,7,0,0,,2,,,62,127
144585,note_off,52,0,0,,5,,,53,127
144585,note_on,0,0,0,,11,,,58,127
144585,note_on,0,0,0,,2,,,62,127
144592,note_off,7,0,0,,3,,,63,127
144762,note_off,170,0,0,,2,,,62,127
144762,note_on,0,0,0,,11,,,70,127
144939,note_off,177,0,0,,11,,,70,127
144939,note_off,0,0,0,,11,,,58,127
144939,note_on,0,0,0,,3,,,51,127
144939,note_on,0,0,0,,7,,,67,127
145116,note_off,177,0,0,,7,,,67,127
145116,note_on,0,0,0,,3,,,75,127
145293,note_off,177,0,0,,3,,,75,127
145293,note_off,0,0,0,,3,,,51,127
145293,note_on,0,0,0,,5,,,53,127
145293,note_on,0,0,0,,11,,,70,127
145352,note_on,59,0,0,,10,,,69,127
145359,note_off,7,0,0,,11,,,70,127
145411,note_on,52,0,0,,11,,,70,127
145418,note_off,7,0,0,,10,,,69,127
145470,note_on,52,0,0,,10,,,69,127
145477,note_off,7,0,0,,11,,,70,127
145529,note_on,52,0,0,,11,,,70,127
145536,note_off,7,0,0,,10,,,69,127
145588,note_on,52,0,0,,10,,,69,127
145595,note_off,7,0,0,,11,,,70,127
145647,note_on,52,0,0,,5,,,41,127
145647,note_on,0,0,0,,11,,,70,127
145654,note_off,7,0,0,,10,,,69,127
145706,note_on,52,0,0,,10,,,69,127
145713,note_off,7,0,0,,11,,,70,127
145912,note_off,199,0,0,,10,,,69,127
145912,note_on,0,0,0,,11,,,70,127
146000,note_off,88,0,0,,5,,,53,127
146001,note_off,1,0,0,,11,,,70,127
146001,note_off,0,0,0,,5,,,41,127
146001,note_on,0,0,0,,7,,,43,127
146001,note_on,0,0,0,,11,,,70,127
146178,note_off,177,0,0,,11,,,70,127
146178,note_on,0,0,0,,5,,,77,127
146355,note_off,177,0,0,,5,,,77,127
146355,note_on,0,0,0,,7,,,55,127
146355,note_on,0,0,0,,4,,,76,127
146531,note_off,176,0,0,,7,,,43,127
146532,note_off,1,0,0,,4,,,76,127
146532,note_on,0,0,0,,5,,,77,127
146709,note_off,177,0,0,,5,,,77,127
146709,note_off,0,0,0,,7,,,55,127
146709,note_on,0,0,0,,10,,,57,127
146709,note_on,0,0,0,,3,,,75,127
146886,note_off,177,0,0,,3,,,75,127
146886,note_on,0,0,0,,0,,,84,127
147063,note_off,177,0,0,,10,,,57,127
147063,note_on,0,0,0,,5,,,53,127
147240,note_off,177,0,0,,0,,,84,127
147240,note_on,0,0,0,,3,,,75,127
147417,note_off,177,0,0,,3,,,75,127
147417,note_off,0,0,0,,5,,,53,127
147417,note_on,0,0,0,,11,,,58,127
147417,note_on,0,0,0,,2,,,74,127
147594,note_off,177,0,0,,2,,,74,127
147594,note_on,0,0,0,,5,,,77,127
147771,note_off,177,0,0,,5,,,77,127
147771,note_off,0,0,0,,11,,,58,127
147771,note_on,0,0,0,,3,,,51,127
147771,note_on,0,0,0,,7,,,79,127
147948,note_off,177,0,0,,7,,,79,127
147948,note_on,0,0,0,,11,,,70,127
148125,note_off,177,0,0,,11,,,70,127
148125,note_off,0,0,0,,3,,,51,127
148125,note_on,0,0,0,,5,,,53,127
148125,note_on,0,0,0,,2,,,74,127
148479,note_on,354,0,0,,5,,,41,127
148538,note_on,59,0,0,,0,,,72,127
148545,note_off,7,0,0,,2,,,74,127
148597,note_on,52,0,0,,2,,,74,127
148604,note_off,7,0,0,,0,,,72,127
148656,note_on,52,0,0,,0,,,72,127
148663,note_off,7,0,0,,2,,,74,127
148715,note_on,52,0,0,,2,,,74,127
148722,note_off,7,0,0,,0,,,72,127
148774,note_on,52,0,0,,0,,,72,127
148781,note_off,7,0,0,,2,,,74,127
148832,note_off,51,0,0,,5,,,53,127
148833,note_off,1,0,0,,5,,,41,127
148833,note_on,0,0,0,,7,,,43,127
148833,note_on,0,0,0,,2,,,74,127
148840,note_off,7,0,0,,0,,,72,127
148921,note_off,81,0,0,,2,,,74,127
148921,note_on,0,0,0,,0,,,72,127
149010,note_off,89,0,0,,0,,,72,127
149010,note_on,0,0,0,,11,,,70,127
149187,note_off,177,0,0,,11,,,70,127
149187,note_on,0,0,0,,7,,,55,127
149187,note_on,0,0,0,,4,,,64,127
149363,note_off,176,0,0,,7,,,43,127
149364,note_off,1,0,0,,4,,,64,127
149364,note_on,0,0,0,,5,,,65,127
149541,note_off,177,0,0,,5,,,65,127
149541,note_off,0,0,0,,7,,,55,127
149541,note_on,0,0,0,,10,,,57,127
149541,note_on,0,0,0,,3,,,63,127
149718,note_off,177,0,0,,3,,,63,127
149718,note_on,0,0,0,,0,,,72,127
149895,note_off,177,0,0,,10,,,57,127
149895,note_on,0,0,0,,5,,,53,127
150072,note_off,177,0,0,,0,,,72,127
150072,note_on,0,0,0,,3,,,63,127
150249,note_off,177,0,0,,3,,,63,127
150249,note_off,0,0,0,,5,,,53,127
150249,note_on,0,0,0,,11,,,58,127
150249,note_on,0,0,0,,2,,,62,127
150426,note_off,177,0,0,,2,,,62,127
150426,note_on,0,0,0,,5,,,65,127
150603,note_off,177,0,0,,5,,,65,127
150603,note_off,0,0,0,,11,,,58,127
150603,note_on,0,0,0,,3,,,51,127
150603,note_on,0,0,0,,7,,,67,127
150780,note_off,177,0,0,,7,,,67,127
150780,note_on,0,0,0,,11,,,58,127
150957,note_off,177,0,0,,11,,,58,127
150957,note_off,0,0,0,,3,,,51,127
150957,note_on,0,0,0,,5,,,53,127
150957,note_on,0,0,0,,2,,,62,127
151311,note_on,354,0,0,,5,,,41,127
151400,note_off,89,0,0,,2,,,62,127
151400,note_on,0,0,0,,0,,,60,127
151489,note_off,89,0,0,,0,,,60,127
151489,note_on,0,0,0,,11,,,58,127
151578,note_off,89,0,0,,11,,,58,127
151578,note_on,0,0,0,,0,,,60,127
151666,note_off,88,0,0,,5,,,53,127
151667,note_off,1,0,0,,0,,,60,127
151667,note_off,0,0,0,,5,,,41,127
151667,note_on,0,0,0,,11,,,46,127
151844,note_on,177,0,0,,5,,,53,127
152021,note_off,177,0,0,,5,,,53,127
152021,note_on,0,0,0,,2,,,50,127
152198,note_off,177,0,0,,2,,,50,127
152198,note_on,0,0,0,,11,,,58,127
152375,note_off,177,0,0,,11,,,58,127
152375,note_on,0,0,0,,5,,,53,127
152552,note_off,177,0,0,,5,,,53,127
152552,note_on,0,0,0,,2,,,62,127
152729,note_off,177,0,0,,2,,,62,127
152729,note_on,0,0,0,,11,,,58,127
152906,note_off,177,0,0,,11,,,58,127
152906,note_on,0,0,0,,5,,,65,127
153083,note_off,177,0,0,,5,,,65,127
153083,note_off,0,0,0,,11,,,46,127
153083,note_on,0,0,0,,11,,,46,127
153083,note_on,0,0,0,,2,,,62,127
153260,note_off,177,0,0,,2,,,62,127
153260,note_on,0,0,0,,11,,,70,127
153437,note_off,177,0,0,,11,,,70,127
153437,note_on,0,0,0,,5,,,65,127
153614,note_off,177,0,0,,5,,,65,127
153614,note_on,0,0,0,,2,,,74,127
153791,note_off,177,0,0,,2,,,74,127
153791,note_on,0,0,0,,11,,,70,127
153968,note_off,177,0,0,,11,,,70,127
153968,note_on,0,0,0,,5,,,77,127
154145,note_off,177,0,0,,5,,,77,127
154145,note_on,0,0,0,,2,,,74,127
154322,note_off,177,0,0,,2,,,74,127
154322,note_on,0,0,0,,11,,,82,127
154499,note_off,177,0,0,,11,,,82,127
154499,note_off,0,0,0,,11,,,46,127
154499,note_on,0,0,0,,11,,,46,127
154499,note_on,0,0,0,,5,,,77,127
154676,note_off,177,0,0,,5,,,77,127
154676,note_on,0,0,0,,3,,,75,127
154853,note_off,177,0,0,,3,,,75,127
154853,note_on,0,0,0,,2,,,74,127
155030,note_off,177,0,0,,2,,,74,127
155030,note_on,0,0,0,,0,,,72,127
155207,note_off,177,0,0,,0,,,72,127
155207,note_on,0,0,0,,11,,,70,127
155384,note_off,177,0,0,,11,,,70,127
155384,note_on,0,0,0,,10,,,69,127
155561,note_off,177,0,0,,10,,,69,127
155561,note_off,0,0,0,,11,,,46,127
155561,note_on,0,0,0,,2,,,50,127
155561,note_on,0,0,0,,7,,,67,127
155738,note_off,177,0,0,,7,,,67,127
155738,note_on,0,0,0,,5,,,65,127
155915,note_off,177,0,0,,5,,,65,127
155915,note_off,0,0,0,,2,,,50,127
155915,note_on,0,0,0,,3,,,51,127
155915,note_on,0,0,0,,3,,,63,127
156092,note_off,177,0,0,,3,,,63,127
156092,note_on,0,0,0,,2,,,62,127
156181,note_off,89,0,0,,2,,,62,127
156181,note_on,0,0,0,,0,,,60,127
156270,note_off,89,0,0,,0,,,60,127
156270,note_off,0,0,0,,3,,,51,127
156270,note_on,0,0,0,,11,,,46,127
156270,note_on,0,0,0,,11,,,58,127
156359,note_off,89,0,0,,11,,,58,127
156359,note_on,0,0,0,,10,,,57,127
156448,note_off,89,0,0,,10,,,57,127
156448,note_on,0,0,0,,7,,,55,127
156537,note_off,89,0,0,,7,,,55,127
156537,note_on,0,0,0,,5,,,53,127
156626,note_off,89,0,0,,5,,,53,127
156626,note_off,0,0,0,,11,,,46,127
156626,note_on,0,0,0,,5,,,53,127
156626,note_on,0,0,0,,2,,,62,127
156685,note_on,59,0,0,,0,,,60,127
156692,note_off,7,0,0,,2,,,62,127
156744,note_on,52,0,0,,2,,,62,127
156751,note_off,7,0,0,,0,,,60,127
156803,note_on,52,0,0,,0,,,60,127
156810,note_off,7,0,0,,2,,,62,127
156862,note_on,52,0,0,,2,,,62,127
156869,note_off,7,0,0,,0,,,60,127
156921,note_on,52,0,0,,0,,,60,127
156928,note_off,7,0,0,,2,,,62,127
156980,note_on,52,0,0,,5,,,41,127
156980,note_on,0,0,0,,2,,,62,127
156987,note_off,7,0,0,,0,,,60,127
157039,note_on,52,0,0,,0,,,60,127
157046,note_off,7,0,0,,2,,,62,127
157098,note_on,52,0,0,,2,,,62,127
157105,note_off,7,0,0,,0,,,60,127
157157,note_on,52,0,0,,0,,,60,127
157164,note_off,7,0,0,,2,,,62,127
157216,note_on,52,0,0,,11,,,58,127
157223,note_off,7,0,0,,0,,,60,127
157275,note_on,52,0,0,,0,,,60,127
157282,note_off,7,0,0,,11,,,58,127
157333,note_off,51,0,0,,5,,,53,127
157334,note_off,1,0,0,,5,,,41,127
157341,note_off,7,0,0,,0,,,60,127
157343,note_on,2,0,0,,11,,,46,127
157343,note_on,0,0,0,,11,,,58,127
159097,note_off,1754,0,0,,11,,,58,127
159097,note_off,0,0,0,,11,,,46,127
164352,end_of_track,5255,1,0,,,,,,
