tick,type,time,meta,track,program,channel,pitch,tempo,note,velocity
0,copyright,0,1,0,,,,,,
0,program_change,0,0,0,6,0,,,,
0,pitchwheel,0,0,0,,0,0,,,
0,program_change,0,0,0,6,1,,,,
0,pitchwheel,0,0,0,,1,-590,,,
0,program_change,0,0,0,6,2,,,,
0,pitchwheel,0,0,0,,2,-272,,,
0,program_change,0,0,0,6,3,,,,
0,pitchwheel,0,0,0,,3,-353,,,
0,program_change,0,0,0,6,4,,,,
0,pitchwheel,0,0,0,,4,-560,,,
0,program_change,0,0,0,6,5,,,,
0,pitchwheel,0,0,0,,5,-80,,,
0,program_change,0,0,0,6,6,,,,
0,pitchwheel,0,0,0,,6,-625,,,
0,program_change,0,0,0,6,7,,,,
0,pitchwheel,0,0,0,,7,-130,,,
0,program_change,0,0,0,6,8,,,,
0,pitchwheel,0,0,0,,8,-512,,,
0,program_change,0,0,0,6,10,,,,
0,pitchwheel,0,0,0,,10,-464,,,
0,program_change,0,0,0,6,11,,,,
0,pitchwheel,0,0,0,,11,-208,,,
0,program_change,0,0,0,6,12,,,,
0,pitchwheel,0,0,0,,12,-553,,,
0,set_tempo,0,1,0,,,,500000,,
115,note_on,115,0,0,,5,,,65,127
115,note_on,0,0,0,,5,,,77,127
342,note_off,227,0,0,,5,,,77,127
342,note_off,0,0,0,,5,,,65,127
346,note_on,4,0,0,,0,,,60,127
346,note_on,0,0,0,,0,,,72,127
573,note_off,227,0,0,,0,,,72,127
573,note_off,0,0,0,,0,,,60,127
577,note_on,4,0,0,,5,,,53,127
577,note_on,0,0,0,,5,,,65,127
804,note_off,227,0,0,,5,,,65,127
804,note_off,0,0,0,,5,,,53,127
808,note_on,4,0,0,,0,,,60,127
808,note_on,0,0,0,,0,,,72,127
1035,note_off,227,0,0,,0,,,72,127
1035,note_off,0,0,0,,0,,,60,127
1039,note_on,4,0,0,,7,,,55,127
1039,note_on,0,0,0,,7,,,67,127
1266,note_off,227,0,0,,7,,,67,127
1266,note_off,0,0,0,,7,,,55,127
1270,note_on,4,0,0,,0,,,48,127
1270,note_on,0,0,0,,0,,,60,127
1497,note_off,227,0,0,,0,,,60,127
1497,note_off,0,0,0,,0,,,48,127
1501,note_on,4,0,0,,5,,,53,127
1501,note_on,0,0,0,,5,,,65,127
1728,note_off,227,0,0,,5,,,65,127
1728,note_off,0,0,0,,5,,,53,127
1732,note_on,4,0,0,,0,,,48,127
1732,note_on,0,0,0,,0,,,60,127
1959,note_off,227,0,0,,0,,,60,127
1959,note_off,0,0,0,,0,,,48,127
1963,note_on,4,0,0,,5,,,41,127
1963,note_on,0,0,0,,5,,,53,127
2190,note_off,227,0,0,,5,,,53,127
2190,note_off,0,0,0,,5,,,41,127
2194,note_on,4,0,0,,5,,,65,127
2306,note_off,112,0,0,,5,,,65,127
2310,note_on,4,0,0,,5,,,65,127
2422,note_off,112,0,0,,5,,,65,127
2426,note_on,4,0,0,,10,,,69,127
2538,note_off,112,0,0,,10,,,69,127
2542,note_on,4,0,0,,10,,,69,127
2654,note_off,112,0,0,,10,,,69,127
2658,note_on,4,0,0,,0,,,72,127
2770,note_off,112,0,0,,0,,,72,127
2774,note_on,4,0,0,,0,,,72,127
2886,note_off,112,0,0,,0,,,72,127
2890,note_on,4,0,0,,5,,,77,127
3117,note_off,227,0,0,,5,,,77,127
3121,note_on,4,0,0,,4,,,76,127
3233,note_off,112,0,0,,4,,,76,127
3237,note_on,4,0,0,,2,,,74,127
3349,note_off,112,0,0,,2,,,74,127
3353,note_on,4,0,0,,0,,,72,127
3465,note_off,112,0,0,,0,,,72,127
3469,note_on,4,0,0,,11,,,70,127
3581,note_off,112,0,0,,11,,,70,127
3585,note_on,4,0,0,,5,,,65,127
3585,note_on,0,0,0,,10,,,69,127
3697,note_off,112,0,0,,10,,,69,127
3701,note_on,4,0,0,,11,,,70,127
3813,note_off,112,0,0,,11,,,70,127
3813,note_off,0,0,0,,5,,,65,127
3817,note_on,4,0,0,,0,,,60,127
3817,note_on,0,0,0,,10,,,69,127
3871,note_off,54,0,0,,10,,,69,127
3875,note_on,4,0,0,,7,,,67,127
3929,note_off,54,0,0,,7,,,67,127
3933,note_on,4,0,0,,10,,,69,127
3987,note_off,54,0,0,,10,,,69,127
3991,note_on,4,0,0,,7,,,67,127
4045,note_off,54,0,0,,7,,,67,127
4049,note_on,4,0,0,,10,,,69,127
4103,note_off,54,0,0,,10,,,69,127
4107,note_on,4,0,0,,7,,,67,127
4161,note_off,54,0,0,,7,,,67,127
4165,note_on,4,0,0,,5,,,65,127
4219,note_off,54,0,0,,5,,,65,127
4223,note_on,4,0,0,,7,,,67,127
4277,note_off,54,0,0,,7,,,67,127
4277,note_off,0,0,0,,0,,,60,127
4281,note_on,4,0,0,,5,,,53,127
4281,note_on,0,0,0,,5,,,65,127
4508,note_off,227,0,0,,5,,,65,127
4508,note_off,0,0,0,,5,,,53,127
4512,note_on,4,0,0,,0,,,48,127
4512,note_on,0,0,0,,0,,,60,127
4739,note_off,227,0,0,,0,,,60,127
4739,note_off,0,0,0,,0,,,48,127
4743,note_on,4,0,0,,5,,,41,127
4743,note_on,0,0,0,,5,,,53,127
4970,note_off,227,0,0,,5,,,53,127
4970,note_off,0,0,0,,5,,,41,127
4974,note_on,4,0,0,,5,,,65,127
5086,note_off,112,0,0,,5,,,65,127
5090,note_on,4,0,0,,5,,,65,127
5202,note_off,112,0,0,,5,,,65,127
5206,note_on,4,0,0,,10,,,69,127
5318,note_off,112,0,0,,10,,,69,127
5322,note_on,4,0,0,,10,,,69,127
5434,note_off,112,0,0,,10,,,69,127
5438,note_on,4,0,0,,0,,,72,127
5550,note_off,112,0,0,,0,,,72,127
5554,note_on,4,0,0,,0,,,72,127
5666,note_off,112,0,0,,0,,,72,127
5670,note_on,4,0,0,,5,,,77,127
5897,note_off,227,0,0,,5,,,77,127
5901,note_on,4,0,0,,4,,,76,127
6013,note_off,112,0,0,,4,,,76,127
6017,note_on,4,0,0,,2,,,74,127
6129,note_off,112,0,0,,2,,,74,127
6133,note_on,4,0,0,,0,,,72,127
6245,note_off,112,0,0,,0,,,72,127
6249,note_on,4,0,0,,11,,,70,127
6361,note_off,112,0,0,,11,,,70,127
6365,note_on,4,0,0,,5,,,65,127
6365,note_on,0,0,0,,10,,,69,127
6477,note_off,112,0,0,,10,,,69,127
6481,note_on,4,0,0,,11,,,70,127
6593,note_off,112,0,0,,11,,,70,127
6593,note_off,0,0,0,,5,,,65,127
6597,note_on,4,0,0,,0,,,60,127
6597,note_on,0,0,0,,10,,,69,127
6651,note_off,54,0,0,,10,,,69,127
6655,note_on,4,0,0,,7,,,67,127
6709,note_off,54,0,0,,7,,,67,127
6713,note_on,4,0,0,,10,,,69,127
6767,note_off,54,0,0,,10,,,69,127
6771,note_on,4,0,0,,7,,,67,127
6825,note_off,54,0,0,,7,,,67,127
6829,note_on,4,0,0,,10,,,69,127
6883,note_off,54,0,0,,10,,,69,127
6887,note_on,4,0,0,,7,,,67,127
6941,note_off,54,0,0,,7,,,67,127
6945,note_on,4,0,0,,5,,,65,127
6999,note_off,54,0,0,,5,,,65,127
7003,note_on,4,0,0,,7,,,67,127
7057,note_off,54,0,0,,0,,,60,127
7060,note_off,3,0,0,,7,,,67,127
7061,note_on,1,0,0,,5,,,53,127
7061,note_on,0,0,0,,7,,,67,127
7294,note_off,233,0,0,,7,,,67,127
7306,note_on,12,0,0,,11,,,70,127
7370,note_off,64,0,0,,11,,,70,127
7372,note_on,2,0,0,,10,,,69,127
7436,note_off,64,0,0,,10,,,69,127
7438,note_on,2,0,0,,11,,,70,127
7497,note_off,59,0,0,,11,,,70,127
7504,note_on,7,0,0,,10,,,69,127
7763,note_off,259,0,0,,5,,,53,127
7764,note_off,1,0,0,,10,,,69,127
7782,note_on,18,0,0,,10,,,57,127
7782,note_on,0,0,0,,0,,,60,127
7854,note_on,72,0,0,,2,,,62,127
7855,note_off,1,0,0,,0,,,60,127
7926,note_on,71,0,0,,0,,,60,127
7927,note_off,1,0,0,,2,,,62,127
8025,note_on,98,0,0,,10,,,69,127
8025,note_on,0,0,0,,0,,,72,127
8154,note_off,129,0,0,,0,,,60,127
8240,note_off,86,0,0,,10,,,57,127
8252,note_off,12,0,0,,0,,,72,127
8252,note_off,0,0,0,,10,,,69,127
8256,note_on,4,0,0,,11,,,58,127
8256,note_on,0,0,0,,2,,,62,127
8483,note_off,227,0,0,,2,,,62,127
8483,note_off,0,0,0,,11,,,58,127
8487,note_on,4,0,0,,10,,,57,127
8487,note_on,0,0,0,,0,,,60,127
8560,note_off,73,0,0,,0,,,60,127
8564,note_on,4,0,0,,2,,,62,127
8637,note_off,73,0,0,,2,,,62,127
8641,note_on,4,0,0,,0,,,60,127
8718,note_on,77,0,0,,10,,,69,127
8718,note_on,0,0,0,,0,,,72,127
8869,note_off,151,0,0,,0,,,60,127
8945,note_off,76,0,0,,0,,,72,127
8945,note_off,0,0,0,,10,,,69,127
8945,note_off,0,0,0,,10,,,57,127
8949,note_on,4,0,0,,7,,,55,127
8949,note_on,0,0,0,,11,,,58,127
9176,note_off,227,0,0,,11,,,58,127
9176,note_off,0,0,0,,7,,,55,127
9180,note_on,4,0,0,,5,,,53,127
9180,note_on,0,0,0,,10,,,57,127
9253,note_off,73,0,0,,10,,,57,127
9257,note_on,4,0,0,,11,,,58,127
9330,note_off,73,0,0,,11,,,58,127
9334,note_on,4,0,0,,10,,,57,127
9407,note_off,73,0,0,,10,,,57,127
9411,note_on,4,0,0,,10,,,69,127
9411,note_on,0,0,0,,0,,,72,127
9638,note_off,227,0,0,,0,,,72,127
9638,note_off,0,0,0,,10,,,69,127
9638,note_off,0,0,0,,5,,,53,127
9642,note_on,4,0,0,,0,,,48,127
9642,note_on,0,0,0,,11,,,70,127
9642,note_on,0,0,0,,7,,,67,127
9869,note_off,227,0,0,,7,,,67,127
9869,note_off,0,0,0,,11,,,70,127
9869,note_off,0,0,0,,0,,,48,127
9873,note_on,4,0,0,,5,,,41,127
9873,note_on,0,0,0,,10,,,69,127
9873,note_on,0,0,0,,0,,,72,127
9927,note_off,54,0,0,,0,,,72,127
9927,note_off,0,0,0,,10,,,69,127
9931,note_on,4,0,0,,7,,,67,127
9931,note_on,0,0,0,,11,,,70,127
9985,note_off,54,0,0,,11,,,70,127
9985,note_off,0,0,0,,7,,,67,127
9989,note_on,4,0,0,,10,,,69,127
9989,note_on,0,0,0,,0,,,72,127
10043,note_off,54,0,0,,0,,,72,127
10043,note_off,0,0,0,,10,,,69,127
10047,note_on,4,0,0,,7,,,67,127
10047,note_on,0,0,0,,11,,,70,127
10101,note_off,54,0,0,,11,,,70,127
10101,note_off,0,0,0,,7,,,67,127
10105,note_on,4,0,0,,10,,,69,127
10105,note_on,0,0,0,,5,,,65,127
10541,note_off,436,0,0,,10,,,69,127
10563,note_off,22,0,0,,5,,,65,127
10563,note_off,0,0,0,,5,,,41,127
10567,note_on,4,0,0,,10,,,57,127
10567,note_on,0,0,0,,0,,,60,127
10640,note_off,73,0,0,,0,,,60,127
10644,note_on,4,0,0,,2,,,62,127
10717,note_off,73,0,0,,2,,,62,127
10721,note_on,4,0,0,,0,,,60,127
10798,note_on,77,0,0,,10,,,69,127
10798,note_on,0,0,0,,0,,,72,127
10949,note_off,151,0,0,,0,,,60,127
11025,note_off,76,0,0,,0,,,72,127
11025,note_off,0,0,0,,10,,,69,127
11025,note_off,0,0,0,,10,,,57,127
11029,note_on,4,0,0,,11,,,58,127
11029,note_on,0,0,0,,2,,,62,127
11256,note_off,227,0,0,,2,,,62,127
11256,note_off,0,0,0,,11,,,58,127
11260,note_on,4,0,0,,10,,,57,127
11260,note_on,0,0,0,,0,,,60,127
11333,note_off,73,0,0,,0,,,60,127
11337,note_on,4,0,0,,2,,,62,127
11410,note_off,73,0,0,,2,,,62,127
11414,note_on,4,0,0,,0,,,60,127
11491,note_on,77,0,0,,0,,,72,127
11491,note_on,0,0,0,,10,,,69,127
11642,note_off,151,0,0,,0,,,60,127
11718,note_off,76,0,0,,10,,,69,127
11718,note_off,0,0,0,,0,,,72,127
11718,note_off,0,0,0,,10,,,57,127
11722,note_on,4,0,0,,7,,,55,127
11722,note_on,0,0,0,,11,,,58,127
11949,note_off,227,0,0,,11,,,58,127
11949,note_off,0,0,0,,7,,,55,127
11953,note_on,4,0,0,,5,,,53,127
11953,note_on,0,0,0,,10,,,57,127
12026,note_off,73,0,0,,10,,,57,127
12030,note_on,4,0,0,,11,,,58,127
12103,note_off,73,0,0,,11,,,58,127
12107,note_on,4,0,0,,10,,,57,127
12180,note_off,73,0,0,,10,,,57,127
12184,note_on,4,0,0,,0,,,72,127
12184,note_on,0,0,0,,10,,,69,127
12411,note_off,227,0,0,,10,,,69,127
12411,note_off,0,0,0,,0,,,72,127
12411,note_off,0,0,0,,5,,,53,127
12415,note_on,4,0,0,,0,,,48,127
12415,note_on,0,0,0,,11,,,58,127
12415,note_on,0,0,0,,7,,,55,127
12642,note_off,227,0,0,,7,,,55,127
12642,note_off,0,0,0,,11,,,58,127
12642,note_off,0,0,0,,0,,,48,127
12646,note_on,4,0,0,,5,,,41,127
12646,note_on,0,0,0,,10,,,57,127
12646,note_on,0,0,0,,0,,,60,127
12700,note_off,54,0,0,,0,,,60,127
12700,note_off,0,0,0,,10,,,57,127
12704,note_on,4,0,0,,7,,,55,127
12704,note_on,0,0,0,,11,,,58,127
12758,note_off,54,0,0,,11,,,58,127
12758,note_off,0,0,0,,7,,,55,127
12762,note_on,4,0,0,,10,,,57,127
12762,note_on,0,0,0,,0,,,60,127
12816,note_off,54,0,0,,0,,,60,127
12816,note_off,0,0,0,,10,,,57,127
12820,note_on,4,0,0,,7,,,55,127
12820,note_on,0,0,0,,11,,,58,127
12874,note_off,54,0,0,,11,,,58,127
12874,note_off,0,0,0,,7,,,55,127
12878,note_on,4,0,0,,10,,,57,127
12878,note_on,0,0,0,,5,,,53,127
13224,note_off,346,0,0,,10,,,57,127
13336,note_off,112,0,0,,5,,,41,127
13359,note_on,23,0,0,,10,,,57,127
13432,note_off,73,0,0,,10,,,57,127
13434,note_on,2,0,0,,11,,,58,127
13507,note_off,73,0,0,,11,,,58,127
13509,note_on,2,0,0,,0,,,60,127
13528,note_off,19,0,0,,5,,,53,127
13582,note_off,54,0,0,,0,,,60,127
13585,note_on,3,0,0,,2,,,62,127
13585,note_on,0,0,0,,11,,,58,127
13658,note_off,73,0,0,,2,,,62,127
13661,note_on,3,0,0,,4,,,64,127
13734,note_off,73,0,0,,4,,,64,127
13737,note_on,3,0,0,,5,,,65,127
13810,note_off,73,0,0,,5,,,65,127
13812,note_off,2,0,0,,11,,,58,127
13813,note_on,1,0,0,,4,,,64,127
13813,note_on,0,0,0,,7,,,67,127
13886,note_off,73,0,0,,7,,,67,127
13889,note_on,3,0,0,,10,,,69,127
13962,note_off,73,0,0,,10,,,69,127
13965,note_on,3,0,0,,11,,,70,127
14038,note_off,73,0,0,,11,,,70,127
14040,note_off,2,0,0,,4,,,64,127
14041,note_on,1,0,0,,10,,,69,127
14041,note_on,0,0,0,,0,,,72,127
14268,note_off,227,0,0,,0,,,72,127
14268,note_off,0,0,0,,10,,,69,127
14272,note_on,4,0,0,,7,,,67,127
14272,note_on,0,0,0,,11,,,70,127
14499,note_off,227,0,0,,11,,,70,127
14499,note_off,0,0,0,,7,,,67,127
14503,note_on,4,0,0,,5,,,65,127
14503,note_on,0,0,0,,10,,,69,127
14730,note_off,227,0,0,,10,,,69,127
14730,note_off,0,0,0,,5,,,65,127
14734,note_on,4,0,0,,7,,,67,127
14734,note_on,0,0,0,,11,,,70,127
14849,note_on,115,0,0,,7,,,79,127
14961,note_off,112,0,0,,7,,,79,127
14961,note_off,0,0,0,,7,,,67,127
14962,note_off,1,0,0,,11,,,70,127
14964,note_on,2,0,0,,4,,,64,127
14964,note_on,0,0,0,,11,,,70,127
15191,note_off,227,0,0,,11,,,70,127
15191,note_off,0,0,0,,4,,,64,127
15195,note_on,4,0,0,,5,,,65,127
15195,note_on,0,0,0,,10,,,69,127
15422,note_off,227,0,0,,10,,,69,127
15422,note_off,0,0,0,,5,,,65,127
15426,note_on,4,0,0,,0,,,60,127
15426,note_on,0,0,0,,11,,,70,127
15480,note_off,54,0,0,,11,,,70,127
15484,note_on,4,0,0,,10,,,69,127
15538,note_off,54,0,0,,10,,,69,127
15542,note_on,4,0,0,,11,,,70,127
15596,note_off,54,0,0,,11,,,70,127
15600,note_on,4,0,0,,10,,,69,127
15654,note_off,54,0,0,,10,,,69,127
15658,note_on,4,0,0,,7,,,67,127
15885,note_off,227,0,0,,0,,,60,127
15889,note_on,4,0,0,,0,,,48,127
16116,note_off,227,0,0,,0,,,48,127
16116,note_off,0,0,0,,7,,,67,127
16120,note_on,4,0,0,,5,,,53,127
16120,note_on,0,0,0,,10,,,57,127
16193,note_off,73,0,0,,10,,,57,127
16197,note_on,4,0,0,,11,,,58,127
16270,note_off,73,0,0,,11,,,58,127
16274,note_on,4,0,0,,0,,,60,127
16347,note_off,73,0,0,,0,,,60,127
16347,note_off,0,0,0,,5,,,53,127
16351,note_on,4,0,0,,11,,,58,127
16351,note_on,0,0,0,,2,,,62,127
16424,note_off,73,0,0,,2,,,62,127
16428,note_on,4,0,0,,4,,,64,127
16501,note_off,73,0,0,,4,,,64,127
16505,note_on,4,0,0,,5,,,65,127
16578,note_off,73,0,0,,5,,,65,127
16578,note_off,0,0,0,,11,,,58,127
16582,note_on,4,0,0,,4,,,64,127
16582,note_on,0,0,0,,7,,,67,127
16655,note_off,73,0,0,,7,,,67,127
16659,note_on,4,0,0,,10,,,69,127
16732,note_off,73,0,0,,10,,,69,127
16736,note_on,4,0,0,,11,,,70,127
16809,note_off,73,0,0,,11,,,70,127
16809,note_off,0,0,0,,4,,,64,127
16813,note_on,4,0,0,,10,,,69,127
16813,note_on,0,0,0,,0,,,72,127
17040,note_off,227,0,0,,0,,,72,127
17040,note_off,0,0,0,,10,,,69,127
17044,note_on,4,0,0,,7,,,67,127
17044,note_on,0,0,0,,11,,,70,127
17271,note_off,227,0,0,,11,,,70,127
17271,note_off,0,0,0,,7,,,67,127
17275,note_on,4,0,0,,5,,,65,127
17275,note_on,0,0,0,,10,,,69,127
17502,note_off,227,0,0,,10,,,69,127
17502,note_off,0,0,0,,5,,,65,127
17506,note_on,4,0,0,,7,,,67,127
17506,note_on,0,0,0,,11,,,70,127
17621,note_on,115,0,0,,7,,,79,127
17733,note_off,112,0,0,,7,,,79,127
17733,note_off,0,0,0,,7,,,67,127
17734,note_off,1,0,0,,11,,,70,127
17736,note_on,2,0,0,,4,,,64,127
17736,note_on,0,0,0,,11,,,70,127
17963,note_off,227,0,0,,11,,,70,127
17963,note_off,0,0,0,,4,,,64,127
17967,note_on,4,0,0,,5,,,65,127
17967,note_on,0,0,0,,10,,,69,127
18194,note_off,227,0,0,,10,,,69,127
18194,note_off,0,0,0,,5,,,65,127
18198,note_on,4,0,0,,0,,,60,127
18198,note_on,0,0,0,,11,,,70,127
18252,note_off,54,0,0,,11,,,70,127
18256,note_on,4,0,0,,10,,,69,127
18310,note_off,54,0,0,,10,,,69,127
18314,note_on,4,0,0,,11,,,70,127
18368,note_off,54,0,0,,11,,,70,127
18372,note_on,4,0,0,,10,,,69,127
18426,note_off,54,0,0,,10,,,69,127
18430,note_on,4,0,0,,7,,,67,127
18657,note_off,227,0,0,,0,,,60,127
18661,note_on,4,0,0,,0,,,48,127
18854,note_off,193,0,0,,7,,,67,127
18888,note_off,34,0,0,,0,,,48,127
18892,note_on,4,0,0,,0,,,60,127
18892,note_on,0,0,0,,7,,,67,127
18892,note_on,0,0,0,,5,,,77,127
18892,note_on,0,0,0,,3,,,75,127
18965,note_off,73,0,0,,3,,,75,127
18965,note_off,0,0,0,,5,,,77,127
18969,note_on,4,0,0,,2,,,74,127
19042,note_off,73,0,0,,2,,,74,127
19046,note_on,4,0,0,,3,,,75,127
19119,note_off,73,0,0,,3,,,75,127
19119,note_off,0,0,0,,7,,,67,127
19123,note_on,4,0,0,,8,,,68,127
19123,note_on,0,0,0,,5,,,77,127
19350,note_off,227,0,0,,5,,,77,127
19350,note_off,0,0,0,,8,,,68,127
19354,note_on,4,0,0,,5,,,65,127
19354,note_on,0,0,0,,2,,,74,127
19581,note_off,227,0,0,,2,,,74,127
19581,note_off,0,0,0,,5,,,65,127
19583,note_off,2,0,0,,0,,,60,127
19584,note_on,1,0,0,,0,,,60,127
19584,note_on,0,0,0,,7,,,67,127
19584,note_on,0,0,0,,3,,,75,127
19811,note_off,227,0,0,,3,,,75,127
19811,note_off,0,0,0,,7,,,67,127
19815,note_on,4,0,0,,2,,,62,127
19815,note_on,0,0,0,,12,,,71,127
20042,note_off,227,0,0,,12,,,71,127
20042,note_off,0,0,0,,2,,,62,127
20046,note_on,4,0,0,,3,,,63,127
20046,note_on,0,0,0,,0,,,72,127
20275,note_off,229,0,0,,0,,,60,127
20276,note_on,1,0,0,,5,,,53,127
20276,note_on,0,0,0,,2,,,74,127
20343,note_off,67,0,0,,0,,,72,127
20349,note_off,6,0,0,,2,,,74,127
20353,note_on,4,0,0,,12,,,71,127
20426,note_off,73,0,0,,12,,,71,127
20430,note_on,4,0,0,,0,,,72,127
20502,note_off,72,0,0,,3,,,63,127
20507,note_on,5,0,0,,5,,,65,127
20507,note_on,0,0,0,,8,,,80,127
20658,note_off,151,0,0,,0,,,72,127
20734,note_off,76,0,0,,8,,,80,127
20734,note_off,0,0,0,,5,,,65,127
20738,note_on,4,0,0,,3,,,63,127
20738,note_on,0,0,0,,0,,,72,127
20965,note_off,227,0,0,,0,,,72,127
20965,note_off,0,0,0,,3,,,63,127
20967,note_off,2,0,0,,5,,,53,127
20968,note_on,1,0,0,,2,,,62,127
20968,note_on,0,0,0,,7,,,55,127
20968,note_on,0,0,0,,2,,,74,127
21022,note_off,54,0,0,,2,,,74,127
21026,note_on,4,0,0,,0,,,72,127
21080,note_off,54,0,0,,0,,,72,127
21084,note_on,4,0,0,,2,,,74,127
21138,note_off,54,0,0,,2,,,74,127
21142,note_on,4,0,0,,0,,,72,127
21196,note_off,54,0,0,,0,,,72,127
21200,note_on,4,0,0,,12,,,71,127
21427,note_off,227,0,0,,2,,,62,127
21431,note_on,4,0,0,,5,,,65,127
21546,note_off,115,0,0,,7,,,55,127
21650,note_off,104,0,0,,5,,,65,127
21657,note_off,7,0,0,,12,,,71,127
21661,note_on,4,0,0,,0,,,60,127
21661,note_on,0,0,0,,7,,,67,127
21661,note_on,0,0,0,,5,,,77,127
21661,note_on,0,0,0,,3,,,75,127
21734,note_off,73,0,0,,3,,,75,127
21734,note_off,0,0,0,,5,,,77,127
21738,note_on,4,0,0,,2,,,74,127
21811,note_off,73,0,0,,2,,,74,127
21815,note_on,4,0,0,,3,,,75,127
21888,note_off,73,0,0,,3,,,75,127
21888,note_off,0,0,0,,7,,,67,127
21892,note_on,4,0,0,,8,,,68,127
21892,note_on,0,0,0,,5,,,77,127
22119,note_off,227,0,0,,5,,,77,127
22119,note_off,0,0,0,,8,,,68,127
22123,note_on,4,0,0,,5,,,65,127
22123,note_on,0,0,0,,2,,,74,127
22350,note_off,227,0,0,,2,,,74,127
22350,note_off,0,0,0,,5,,,65,127
22352,note_off,2,0,0,,0,,,60,127
22353,note_on,1,0,0,,0,,,60,127
22353,note_on,0,0,0,,7,,,67,127
22353,note_on,0,0,0,,3,,,75,127
22580,note_off,227,0,0,,3,,,75,127
22580,note_off,0,0,0,,7,,,67,127
22584,note_on,4,0,0,,2,,,62,127
22584,note_on,0,0,0,,12,,,71,127
22811,note_off,227,0,0,,12,,,71,127
22811,note_off,0,0,0,,2,,,62,127
22815,note_on,4,0,0,,3,,,63,127
22815,note_on,0,0,0,,0,,,72,127
23044,note_off,229,0,0,,0,,,60,127
23045,note_on,1,0,0,,5,,,53,127
23045,note_on,0,0,0,,2,,,74,127
23112,note_off,67,0,0,,0,,,72,127
23118,note_off,6,0,0,,2,,,74,127
23122,note_on,4,0,0,,12,,,71,127
23195,note_off,73,0,0,,12,,,71,127
23199,note_on,4,0,0,,0,,,72,127
23271,note_off,72,0,0,,3,,,63,127
23276,note_on,5,0,0,,5,,,65,127
23276,note_on,0,0,0,,8,,,80,127
23427,note_off,151,0,0,,0,,,72,127
23503,note_off,76,0,0,,8,,,80,127
23503,note_off,0,0,0,,5,,,65,127
23507,note_on,4,0,0,,3,,,63,127
23507,note_on,0,0,0,,0,,,72,127
23734,note_off,227,0,0,,0,,,72,127
23734,note_off,0,0,0,,3,,,63,127
23736,note_off,2,0,0,,5,,,53,127
23737,note_on,1,0,0,,7,,,55,127
23737,note_on,0,0,0,,2,,,62,127
23737,note_on,0,0,0,,2,,,74,127
23791,note_off,54,0,0,,2,,,74,127
23795,note_on,4,0,0,,0,,,72,127
23849,note_off,54,0,0,,0,,,72,127
23853,note_on,4,0,0,,2,,,74,127
23907,note_off,54,0,0,,2,,,74,127
23911,note_on,4,0,0,,0,,,72,127
23965,note_off,54,0,0,,0,,,72,127
23969,note_on,4,0,0,,12,,,71,127
24377,note_off,408,0,0,,12,,,71,127
24426,note_off,49,0,0,,2,,,62,127
24426,note_off,0,0,0,,7,,,55,127
24430,note_on,4,0,0,,12,,,59,127
24430,note_on,0,0,0,,2,,,62,127
24503,note_off,73,0,0,,2,,,62,127
24507,note_on,4,0,0,,3,,,63,127
24580,note_off,73,0,0,,3,,,63,127
24584,note_on,4,0,0,,5,,,65,127
24657,note_off,73,0,0,,5,,,65,127
24657,note_off,0,0,0,,12,,,59,127
24661,note_on,4,0,0,,3,,,63,127
24661,note_on,0,0,0,,7,,,67,127
24734,note_off,73,0,0,,7,,,67,127
24738,note_on,4,0,0,,10,,,69,127
24811,note_off,73,0,0,,10,,,69,127
24815,note_on,4,0,0,,12,,,71,127
24888,note_off,73,0,0,,12,,,71,127
24888,note_off,0,0,0,,3,,,63,127
24892,note_on,4,0,0,,8,,,68,127
24892,note_on,0,0,0,,0,,,72,127
24965,note_off,73,0,0,,0,,,72,127
24969,note_on,4,0,0,,2,,,74,127
25042,note_off,73,0,0,,2,,,74,127
25046,note_on,4,0,0,,3,,,75,127
25119,note_off,73,0,0,,3,,,75,127
25119,note_off,0,0,0,,8,,,68,127
25123,note_on,4,0,0,,7,,,67,127
25123,note_on,0,0,0,,5,,,77,127
25350,note_off,227,0,0,,5,,,77,127
25350,note_off,0,0,0,,7,,,67,127
25354,note_on,4,0,0,,10,,,69,127
25354,note_on,0,0,0,,3,,,75,127
25581,note_off,227,0,0,,3,,,75,127
25581,note_off,0,0,0,,10,,,69,127
25585,note_on,4,0,0,,12,,,71,127
25585,note_on,0,0,0,,2,,,74,127
25812,note_off,227,0,0,,2,,,74,127
25812,note_off,0,0,0,,12,,,71,127
25816,note_on,4,0,0,,0,,,72,127
25816,note_on,0,0,0,,5,,,77,127
25870,note_off,54,0,0,,5,,,77,127
25874,note_on,4,0,0,,3,,,75,127
25928,note_off,54,0,0,,3,,,75,127
25932,note_on,4,0,0,,5,,,77,127
25986,note_off,54,0,0,,5,,,77,127
25990,note_on,4,0,0,,3,,,75,127
26044,note_off,54,0,0,,3,,,75,127
26044,note_off,0,0,0,,0,,,72,127
26048,note_on,4,0,0,,11,,,70,127
26048,note_on,0,0,0,,2,,,74,127
26275,note_off,227,0,0,,2,,,74,127
26275,note_off,0,0,0,,11,,,70,127
26279,note_on,4,0,0,,8,,,68,127
26279,note_on,0,0,0,,0,,,72,127
26506,note_off,227,0,0,,0,,,72,127
26506,note_off,0,0,0,,8,,,68,127
26510,note_on,4,0,0,,7,,,67,127
26510,note_on,0,0,0,,7,,,79,127
26737,note_off,227,0,0,,7,,,79,127
26737,note_off,0,0,0,,7,,,67,127
26741,note_on,4,0,0,,2,,,62,127
26741,note_on,0,0,0,,2,,,74,127
26968,note_off,227,0,0,,2,,,74,127
26968,note_off,0,0,0,,2,,,62,127
26972,note_on,4,0,0,,7,,,55,127
26972,note_on,0,0,0,,7,,,67,127
27199,note_off,227,0,0,,7,,,67,127
27199,note_off,0,0,0,,7,,,55,127
27203,note_on,4,0,0,,12,,,59,127
27203,note_on,0,0,0,,2,,,62,127
27276,note_off,73,0,0,,2,,,62,127
27280,note_on,4,0,0,,3,,,63,127
27353,note_off,73,0,0,,3,,,63,127
27357,note_on,4,0,0,,5,,,65,127
27430,note_off,73,0,0,,5,,,65,127
27430,note_off,0,0,0,,12,,,59,127
27434,note_on,4,0,0,,3,,,63,127
27434,note_on,0,0,0,,7,,,67,127
27507,note_off,73,0,0,,7,,,67,127
27511,note_on,4,0,0,,10,,,69,127
27584,note_off,73,0,0,,10,,,69,127
27588,note_on,4,0,0,,12,,,71,127
27661,note_off,73,0,0,,12,,,71,127
27661,note_off,0,0,0,,3,,,63,127
27665,note_on,4,0,0,,8,,,68,127
27665,note_on,0,0,0,,0,,,72,127
27738,note_off,73,0,0,,0,,,72,127
27742,note_on,4,0,0,,2,,,74,127
27815,note_off,73,0,0,,2,,,74,127
27819,note_on,4,0,0,,3,,,75,127
27892,note_off,73,0,0,,3,,,75,127
27892,note_off,0,0,0,,8,,,68,127
27896,note_on,4,0,0,,7,,,67,127
27896,note_on,0,0,0,,5,,,77,127
28123,note_off,227,0,0,,5,,,77,127
28123,note_off,0,0,0,,7,,,67,127
28127,note_on,4,0,0,,10,,,69,127
28127,note_on,0,0,0,,3,,,75,127
28354,note_off,227,0,0,,3,,,75,127
28354,note_off,0,0,0,,10,,,69,127
28358,note_on,4,0,0,,12,,,71,127
28358,note_on,0,0,0,,2,,,74,127
28585,note_off,227,0,0,,2,,,74,127
28585,note_off,0,0,0,,12,,,71,127
28589,note_on,4,0,0,,0,,,72,127
28589,note_on,0,0,0,,5,,,77,127
28643,note_off,54,0,0,,5,,,77,127
28647,note_on,4,0,0,,3,,,75,127
28701,note_off,54,0,0,,3,,,75,127
28705,note_on,4,0,0,,5,,,77,127
28759,note_off,54,0,0,,5,,,77,127
28763,note_on,4,0,0,,3,,,75,127
28817,note_off,54,0,0,,3,,,75,127
28817,note_off,0,0,0,,0,,,72,127
28821,note_on,4,0,0,,11,,,70,127
28821,note_on,0,0,0,,2,,,74,127
29048,note_off,227,0,0,,2,,,74,127
29048,note_off,0,0,0,,11,,,70,127
29052,note_on,4,0,0,,8,,,68,127
29052,note_on,0,0,0,,0,,,72,127
29279,note_off,227,0,0,,0,,,72,127
29279,note_off,0,0,0,,8,,,68,127
29283,note_on,4,0,0,,7,,,67,127
29283,note_on,0,0,0,,7,,,79,127
29510,note_off,227,0,0,,7,,,67,127
29514,note_on,4,0,0,,5,,,65,127
29626,note_off,112,0,0,,7,,,79,127
29630,note_on,4,0,0,,12,,,71,127
29742,note_off,112,0,0,,12,,,71,127
29742,note_off,0,0,0,,5,,,65,127
29746,note_on,4,0,0,,4,,,64,127
29746,note_on,0,0,0,,0,,,72,127
29973,note_off,227,0,0,,4,,,64,127
29977,note_on,4,0,0,,5,,,65,127
30050,note_off,73,0,0,,0,,,72,127
30054,note_on,4,0,0,,10,,,69,127
30089,note_off,35,0,0,,10,,,69,127
30093,note_on,4,0,0,,12,,,71,127
30128,note_off,35,0,0,,12,,,71,127
30132,note_on,4,0,0,,0,,,72,127
30167,note_off,35,0,0,,0,,,72,127
30171,note_on,4,0,0,,2,,,74,127
30206,note_off,35,0,0,,2,,,74,127
30206,note_off,0,0,0,,5,,,65,127
30210,note_on,4,0,0,,7,,,67,127
30210,note_on,0,0,0,,4,,,76,127
30264,note_off,54,0,0,,4,,,76,127
30268,note_on,4,0,0,,2,,,74,127
30322,note_off,54,0,0,,2,,,74,127
30326,note_on,4,0,0,,4,,,76,127
30380,note_off,54,0,0,,4,,,76,127
30384,note_on,4,0,0,,2,,,74,127
30438,note_off,54,0,0,,2,,,74,127
30438,note_off,0,0,0,,7,,,67,127
30442,note_on,4,0,0,,7,,,55,127
30442,note_on,0,0,0,,4,,,76,127
30496,note_off,54,0,0,,4,,,76,127
30500,note_on,4,0,0,,2,,,74,127
30554,note_off,54,0,0,,2,,,74,127
30558,note_on,4,0,0,,0,,,72,127
30670,note_off,112,0,0,,0,,,72,127
30670,note_off,0,0,0,,7,,,55,127
30674,note_on,4,0,0,,0,,,60,127
30674,note_on,0,0,0,,0,,,84,127
30747,note_off,73,0,0,,0,,,84,127
30751,note_on,4,0,0,,12,,,83,127
30824,note_off,73,0,0,,12,,,83,127
30828,note_on,4,0,0,,0,,,84,127
30902,note_off,74,0,0,,0,,,60,127
30904,note_on,2,0,0,,7,,,79,127
30977,note_off,73,0,0,,7,,,79,127
30981,note_on,4,0,0,,5,,,77,127
31054,note_off,73,0,0,,5,,,77,127
31055,note_off,1,0,0,,0,,,84,127
31057,note_on,2,0,0,,7,,,79,127
31134,note_on,77,0,0,,4,,,76,127
31207,note_off,73,0,0,,4,,,76,127
31211,note_on,4,0,0,,2,,,74,127
31284,note_off,73,0,0,,2,,,74,127
31285,note_off,1,0,0,,7,,,79,127
31287,note_on,2,0,0,,4,,,76,127
31364,note_on,77,0,0,,0,,,72,127
31437,note_off,73,0,0,,0,,,72,127
31441,note_on,4,0,0,,12,,,71,127
31514,note_off,73,0,0,,12,,,71,127
31515,note_off,1,0,0,,4,,,76,127
31517,note_on,2,0,0,,0,,,72,127
31594,note_on,77,0,0,,7,,,67,127
31667,note_off,73,0,0,,7,,,67,127
31671,note_on,4,0,0,,5,,,65,127
31744,note_off,73,0,0,,5,,,65,127
31745,note_off,1,0,0,,0,,,72,127
31747,note_on,2,0,0,,7,,,67,127
31824,note_on,77,0,0,,4,,,64,127
31897,note_off,73,0,0,,4,,,64,127
31901,note_on,4,0,0,,2,,,62,127
31974,note_off,73,0,0,,2,,,62,127
31975,note_off,1,0,0,,7,,,67,127
31977,note_on,2,0,0,,4,,,64,127
32054,note_on,77,0,0,,0,,,60,127
32127,note_off,73,0,0,,0,,,60,127
32131,note_on,4,0,0,,12,,,59,127
32204,note_off,73,0,0,,12,,,59,127
32205,note_off,1,0,0,,4,,,64,127
32207,note_on,2,0,0,,0,,,60,127
32284,note_on,77,0,0,,7,,,55,127
32357,note_off,73,0,0,,7,,,55,127
32361,note_on,4,0,0,,5,,,53,127
32434,note_off,73,0,0,,5,,,53,127
32435,note_off,1,0,0,,0,,,60,127
32437,note_on,2,0,0,,7,,,55,127
32514,note_on,77,0,0,,4,,,52,127
32587,note_off,73,0,0,,4,,,52,127
32591,note_on,4,0,0,,2,,,50,127
32664,note_off,73,0,0,,2,,,50,127
32665,note_off,1,0,0,,7,,,55,127
32667,note_on,2,0,0,,4,,,52,127
32744,note_on,77,0,0,,0,,,48,127
32817,note_off,73,0,0,,0,,,48,127
32821,note_on,4,0,0,,12,,,47,127
32894,note_off,73,0,0,,12,,,47,127
32895,note_off,1,0,0,,4,,,52,127
32897,note_on,2,0,0,,0,,,48,127
32974,note_on,77,0,0,,7,,,43,127
33047,note_off,73,0,0,,7,,,43,127
33051,note_on,4,0,0,,5,,,41,127
33124,note_off,73,0,0,,5,,,41,127
33125,note_off,1,0,0,,0,,,48,127
33127,note_on,2,0,0,,7,,,43,127
33204,note_on,77,0,0,,4,,,40,127
33277,note_off,73,0,0,,4,,,40,127
33281,note_on,4,0,0,,2,,,38,127
33354,note_off,73,0,0,,2,,,38,127
33355,note_off,1,0,0,,7,,,43,127
33357,note_on,2,0,0,,4,,,40,127
33430,note_off,73,0,0,,4,,,40,127
33434,note_on,4,0,0,,0,,,36,127
33626,note_on,192,0,0,,0,,,60,127
33661,note_off,35,0,0,,0,,,60,127
33665,note_on,4,0,0,,2,,,62,127
33700,note_off,35,0,0,,2,,,62,127
33704,note_on,4,0,0,,4,,,64,127
33739,note_off,35,0,0,,4,,,64,127
33743,note_on,4,0,0,,5,,,65,127
33778,note_off,35,0,0,,5,,,65,127
33782,note_on,4,0,0,,7,,,67,127
33817,note_off,35,0,0,,7,,,67,127
33821,note_on,4,0,0,,10,,,69,127
33856,note_off,35,0,0,,10,,,69,127
33860,note_on,4,0,0,,12,,,71,127
33895,note_off,35,0,0,,12,,,71,127
33895,note_off,0,0,0,,0,,,36,127
33899,note_on,4,0,0,,4,,,52,127
33899,note_on,0,0,0,,0,,,72,127
34126,note_off,227,0,0,,4,,,52,127
34130,note_on,4,0,0,,5,,,53,127
34203,note_off,73,0,0,,0,,,72,127
34207,note_on,4,0,0,,10,,,69,127
34242,note_off,35,0,0,,10,,,69,127
34246,note_on,4,0,0,,12,,,71,127
34281,note_off,35,0,0,,12,,,71,127
34285,note_on,4,0,0,,0,,,72,127
34320,note_off,35,0,0,,0,,,72,127
34324,note_on,4,0,0,,2,,,74,127
34359,note_off,35,0,0,,2,,,74,127
34359,note_off,0,0,0,,5,,,53,127
34363,note_on,4,0,0,,7,,,55,127
34363,note_on,0,0,0,,4,,,76,127
34417,note_off,54,0,0,,4,,,76,127
34421,note_on,4,0,0,,2,,,74,127
34475,note_off,54,0,0,,2,,,74,127
34479,note_on,4,0,0,,4,,,76,127
34533,note_off,54,0,0,,4,,,76,127
34537,note_on,4,0,0,,2,,,74,127
34591,note_off,54,0,0,,2,,,74,127
34595,note_on,4,0,0,,7,,,43,127
34595,note_on,0,0,0,,4,,,76,127
34649,note_off,54,0,0,,4,,,76,127
34653,note_on,4,0,0,,2,,,74,127
34707,note_off,54,0,0,,2,,,74,127
34711,note_on,4,0,0,,0,,,72,127
34821,note_off,110,0,0,,7,,,55,127
34822,note_off,1,0,0,,0,,,72,127
34822,note_off,0,0,0,,7,,,43,127
34826,note_on,4,0,0,,0,,,60,127
34826,note_on,0,0,0,,0,,,72,127
35053,note_off,227,0,0,,0,,,72,127
35053,note_off,0,0,0,,0,,,60,127
35057,note_on,4,0,0,,7,,,55,127
35057,note_on,0,0,0,,7,,,67,127
35284,note_off,227,0,0,,7,,,67,127
35284,note_off,0,0,0,,7,,,55,127
35288,note_on,4,0,0,,0,,,48,127
35288,note_on,0,0,0,,0,,,60,127
35515,note_off,227,0,0,,0,,,60,127
35515,note_off,0,0,0,,0,,,48,127
35519,note_on,4,0,0,,7,,,55,127
35519,note_on,0,0,0,,7,,,67,127
35746,note_off,227,0,0,,7,,,67,127
35746,note_off,0,0,0,,7,,,55,127
35750,note_on,4,0,0,,2,,,50,127
35750,note_on,0,0,0,,2,,,62,127
35977,note_off,227,0,0,,2,,,62,127
35977,note_off,0,0,0,,2,,,50,127
35981,note_on,4,0,0,,7,,,43,127
35981,note_on,0,0,0,,7,,,55,127
36208,note_off,227,0,0,,7,,,55,127
36208,note_off,0,0,0,,7,,,43,127
36212,note_on,4,0,0,,0,,,48,127
36212,note_on,0,0,0,,0,,,60,127
36439,note_off,227,0,0,,0,,,60,127
36439,note_off,0,0,0,,0,,,48,127
36443,note_on,4,0,0,,7,,,43,127
36443,note_on,0,0,0,,7,,,55,127
36670,note_off,227,0,0,,7,,,55,127
36670,note_off,0,0,0,,7,,,43,127
36674,note_on,4,0,0,,0,,,36,127
36674,note_on,0,0,0,,0,,,48,127
36901,note_off,227,0,0,,0,,,48,127
36901,note_off,0,0,0,,0,,,36,127
36905,note_on,4,0,0,,5,,,53,127
36905,note_on,0,0,0,,5,,,65,127
36978,note_off,73,0,0,,5,,,65,127
36982,note_on,4,0,0,,4,,,64,127
37055,note_off,73,0,0,,4,,,64,127
37059,note_on,4,0,0,,2,,,62,127
37132,note_off,73,0,0,,2,,,62,127
37132,note_off,0,0,0,,5,,,53,127
37136,note_on,4,0,0,,7,,,55,127
37136,note_on,0,0,0,,7,,,67,127
37363,note_off,227,0,0,,7,,,67,127
37363,note_off,0,0,0,,7,,,55,127
37367,note_on,4,0,0,,7,,,43,127
37367,note_on,0,0,0,,7,,,55,127
37594,note_off,227,0,0,,7,,,55,127
37594,note_off,0,0,0,,7,,,43,127
37598,note_on,4,0,0,,0,,,48,127
37598,note_on,0,0,0,,0,,,60,127
38286,note_off,688,0,0,,0,,,60,127
38286,note_off,0,0,0,,0,,,48,127
38290,note_on,4,0,0,,0,,,48,127
38402,note_off,112,0,0,,0,,,48,127
38406,note_on,4,0,0,,0,,,48,127
38518,note_off,112,0,0,,0,,,48,127
38522,note_on,4,0,0,,4,,,52,127
38634,note_off,112,0,0,,4,,,52,127
38638,note_on,4,0,0,,4,,,52,127
38750,note_off,112,0,0,,4,,,52,127
38754,note_on,4,0,0,,7,,,55,127
38866,note_off,112,0,0,,7,,,55,127
38870,note_on,4,0,0,,7,,,55,127
38982,note_off,112,0,0,,7,,,55,127
38986,note_on,4,0,0,,0,,,60,127
39098,note_off,112,0,0,,0,,,60,127
39102,note_on,4,0,0,,0,,,60,127
39214,note_off,112,0,0,,0,,,60,127
39218,note_on,4,0,0,,4,,,64,127
39330,note_off,112,0,0,,4,,,64,127
39334,note_on,4,0,0,,4,,,64,127
39446,note_off,112,0,0,,4,,,64,127
39450,note_on,4,0,0,,7,,,67,127
39562,note_off,112,0,0,,7,,,67,127
39566,note_on,4,0,0,,7,,,67,127
39678,note_off,112,0,0,,7,,,67,127
39682,note_on,4,0,0,,0,,,72,127
39909,note_off,227,0,0,,0,,,72,127
39913,note_on,4,0,0,,12,,,71,127
40025,note_off,112,0,0,,12,,,71,127
40029,note_on,4,0,0,,10,,,69,127
40141,note_off,112,0,0,,10,,,69,127
40145,note_on,4,0,0,,7,,,67,127
40257,note_off,112,0,0,,7,,,67,127
40261,note_on,4,0,0,,5,,,65,127
40373,note_off,112,0,0,,5,,,65,127
40377,note_on,4,0,0,,0,,,60,127
40377,note_on,0,0,0,,4,,,64,127
40489,note_off,112,0,0,,4,,,64,127
40493,note_on,4,0,0,,5,,,65,127
40605,note_off,112,0,0,,5,,,65,127
40605,note_off,0,0,0,,0,,,60,127
40609,note_on,4,0,0,,7,,,55,127
40609,note_on,0,0,0,,4,,,64,127
40663,note_off,54,0,0,,4,,,64,127
40667,note_on,4,0,0,,2,,,62,127
40721,note_off,54,0,0,,2,,,62,127
40725,note_on,4,0,0,,4,,,64,127
40779,note_off,54,0,0,,4,,,64,127
40783,note_on,4,0,0,,2,,,62,127
40799,note_off,16,0,0,,7,,,55,127
40837,note_off,38,0,0,,2,,,62,127
40841,note_on,4,0,0,,12,,,59,127
40841,note_on,0,0,0,,4,,,64,127
40895,note_off,54,0,0,,4,,,64,127
40899,note_on,4,0,0,,2,,,62,127
40953,note_off,54,0,0,,2,,,62,127
40957,note_on,4,0,0,,0,,,60,127
40981,note_off,24,0,0,,12,,,59,127
41011,note_off,30,0,0,,0,,,60,127
41015,note_on,4,0,0,,2,,,62,127
41069,note_off,54,0,0,,2,,,62,127
41073,note_on,4,0,0,,0,,,60,127
41185,note_off,112,0,0,,0,,,60,127
41189,note_on,4,0,0,,0,,,60,127
41301,note_off,112,0,0,,0,,,60,127
41305,note_on,4,0,0,,4,,,64,127
41417,note_off,112,0,0,,4,,,64,127
41421,note_on,4,0,0,,4,,,64,127
41533,note_off,112,0,0,,4,,,64,127
41537,note_on,4,0,0,,7,,,67,127
41649,note_off,112,0,0,,7,,,67,127
41653,note_on,4,0,0,,7,,,67,127
41765,note_off,112,0,0,,7,,,67,127
41769,note_on,4,0,0,,0,,,72,127
41881,note_off,112,0,0,,0,,,72,127
41885,note_on,4,0,0,,0,,,72,127
41997,note_off,112,0,0,,0,,,72,127
42001,note_on,4,0,0,,4,,,76,127
42113,note_off,112,0,0,,4,,,76,127
42117,note_on,4,0,0,,4,,,76,127
42229,note_off,112,0,0,,4,,,76,127
42233,note_on,4,0,0,,7,,,79,127
42345,note_off,112,0,0,,7,,,79,127
42349,note_on,4,0,0,,7,,,79,127
42461,note_off,112,0,0,,7,,,79,127
42465,note_on,4,0,0,,0,,,84,127
42692,note_off,227,0,0,,0,,,84,127
42696,note_on,4,0,0,,12,,,83,127
42808,note_off,112,0,0,,12,,,83,127
42812,note_on,4,0,0,,10,,,81,127
42924,note_off,112,0,0,,10,,,81,127
42928,note_on,4,0,0,,7,,,79,127
43040,note_off,112,0,0,,7,,,79,127
43044,note_on,4,0,0,,5,,,77,127
43156,note_off,112,0,0,,5,,,77,127
43160,note_on,4,0,0,,0,,,72,127
43160,note_on,0,0,0,,4,,,76,127
43272,note_off,112,0,0,,4,,,76,127
43276,note_on,4,0,0,,5,,,77,127
43388,note_off,112,0,0,,5,,,77,127
43388,note_off,0,0,0,,0,,,72,127
43392,note_on,4,0,0,,7,,,67,127
43392,note_on,0,0,0,,4,,,76,127
43446,note_off,54,0,0,,4,,,76,127
43450,note_on,4,0,0,,2,,,74,127
43504,note_off,54,0,0,,2,,,74,127
43508,note_on,4,0,0,,4,,,76,127
43562,note_off,54,0,0,,4,,,76,127
43566,note_on,4,0,0,,2,,,74,127
43620,note_off,54,0,0,,2,,,74,127
43624,note_on,4,0,0,,4,,,76,127
43678,note_off,54,0,0,,4,,,76,127
43682,note_on,4,0,0,,2,,,74,127
43736,note_off,54,0,0,,2,,,74,127
43740,note_on,4,0,0,,0,,,72,127
43794,note_off,54,0,0,,0,,,72,127
43798,note_on,4,0,0,,2,,,74,127
43852,note_off,54,0,0,,2,,,74,127
43852,note_off,0,0,0,,7,,,67,127
43856,note_on,4,0,0,,0,,,60,127
43856,note_on,0,0,0,,2,,,74,127
44107,note_off,251,0,0,,2,,,74,127
44107,note_on,0,0,0,,5,,,77,127
44172,note_on,65,0,0,,4,,,76,127
44174,note_off,2,0,0,,5,,,77,127
44237,note_on,63,0,0,,5,,,77,127
44239,note_off,2,0,0,,4,,,76,127
44303,note_on,64,0,0,,4,,,76,127
44304,note_off,1,0,0,,5,,,77,127
44568,note_off,264,0,0,,4,,,76,127
44584,note_on,16,0,0,,7,,,67,127
44584,note_on,0,0,0,,4,,,64,127
44591,note_off,7,0,0,,0,,,60,127
44659,note_off,68,0,0,,7,,,67,127
44666,note_on,7,0,0,,10,,,69,127
44741,note_off,75,0,0,,10,,,69,127
44750,note_on,9,0,0,,7,,,67,127
44815,note_on,65,0,0,,7,,,79,127
44815,note_on,0,0,0,,4,,,76,127
44978,note_off,163,0,0,,7,,,67,127
45026,note_off,48,0,0,,4,,,64,127
45042,note_off,16,0,0,,4,,,76,127
45042,note_off,0,0,0,,7,,,79,127
45046,note_on,4,0,0,,5,,,65,127
45046,note_on,0,0,0,,10,,,69,127
45273,note_off,227,0,0,,10,,,69,127
45273,note_off,0,0,0,,5,,,65,127
45277,note_on,4,0,0,,4,,,64,127
45277,note_on,0,0,0,,7,,,67,127
45350,note_off,73,0,0,,7,,,67,127
45354,note_on,4,0,0,,10,,,69,127
45427,note_off,73,0,0,,10,,,69,127
45431,note_on,4,0,0,,7,,,67,127
45508,note_on,77,0,0,,7,,,79,127
45508,note_on,0,0,0,,4,,,76,127
45659,note_off,151,0,0,,7,,,67,127
45735,note_off,76,0,0,,4,,,76,127
45735,note_off,0,0,0,,7,,,79,127
45735,note_off,0,0,0,,4,,,64,127
45739,note_on,4,0,0,,2,,,62,127
45739,note_on,0,0,0,,5,,,65,127
45966,note_off,227,0,0,,5,,,65,127
45966,note_off,0,0,0,,2,,,62,127
45970,note_on,4,0,0,,0,,,60,127
45970,note_on,0,0,0,,4,,,64,127
46043,note_off,73,0,0,,4,,,64,127
46047,note_on,4,0,0,,5,,,65,127
46120,note_off,73,0,0,,5,,,65,127
46124,note_on,4,0,0,,4,,,64,127
46197,note_off,73,0,0,,4,,,64,127
46201,note_on,4,0,0,,4,,,76,127
46201,note_on,0,0,0,,7,,,79,127
46428,note_off,227,0,0,,7,,,79,127
46428,note_off,0,0,0,,4,,,76,127
46428,note_off,0,0,0,,0,,,60,127
46432,note_on,4,0,0,,7,,,55,127
46432,note_on,0,0,0,,5,,,65,127
46432,note_on,0,0,0,,2,,,62,127
46659,note_off,227,0,0,,2,,,62,127
46659,note_off,0,0,0,,5,,,65,127
46659,note_off,0,0,0,,7,,,55,127
46663,note_on,4,0,0,,0,,,48,127
46663,note_on,0,0,0,,4,,,64,127
46663,note_on,0,0,0,,7,,,67,127
46717,note_off,54,0,0,,7,,,67,127
46717,note_off,0,0,0,,4,,,64,127
46721,note_on,4,0,0,,2,,,62,127
46721,note_on,0,0,0,,5,,,65,127
46775,note_off,54,0,0,,5,,,65,127
46775,note_off,0,0,0,,2,,,62,127
46779,note_on,4,0,0,,4,,,64,127
46779,note_on,0,0,0,,7,,,67,127
46833,note_off,54,0,0,,7,,,67,127
46833,note_off,0,0,0,,4,,,64,127
46837,note_on,4,0,0,,2,,,62,127
46837,note_on,0,0,0,,5,,,65,127
46891,note_off,54,0,0,,5,,,65,127
46891,note_off,0,0,0,,2,,,62,127
46895,note_on,4,0,0,,4,,,64,127
46895,note_on,0,0,0,,0,,,60,127
47307,note_off,412,0,0,,4,,,64,127
47352,note_off,45,0,0,,0,,,48,127
47377,note_on,25,0,0,,4,,,64,127
47447,note_off,70,0,0,,4,,,64,127
47450,note_on,3,0,0,,5,,,65,127
47520,note_off,70,0,0,,5,,,65,127
47523,note_on,3,0,0,,4,,,64,127
47595,note_on,72,0,0,,4,,,76,127
47595,note_on,0,0,0,,0,,,72,127
47742,note_off,147,0,0,,4,,,64,127
47814,note_off,72,0,0,,0,,,60,127
47822,note_off,8,0,0,,0,,,72,127
47822,note_off,0,0,0,,4,,,76,127
47826,note_on,4,0,0,,2,,,62,127
47826,note_on,0,0,0,,5,,,65,127
48053,note_off,227,0,0,,5,,,65,127
48053,note_off,0,0,0,,2,,,62,127
48057,note_on,4,0,0,,0,,,60,127
48057,note_on,0,0,0,,4,,,64,127
48130,note_off,73,0,0,,4,,,64,127
48134,note_on,4,0,0,,5,,,65,127
48207,note_off,73,0,0,,5,,,65,127
48211,note_on,4,0,0,,4,,,64,127
48288,note_on,77,0,0,,4,,,76,127
48288,note_on,0,0,0,,0,,,72,127
48439,note_off,151,0,0,,4,,,64,127
48515,note_off,76,0,0,,0,,,72,127
48515,note_off,0,0,0,,4,,,76,127
48515,note_off,0,0,0,,0,,,60,127
48519,note_on,4,0,0,,12,,,59,127
48519,note_on,0,0,0,,2,,,62,127
48746,note_off,227,0,0,,2,,,62,127
48746,note_off,0,0,0,,12,,,59,127
48750,note_on,4,0,0,,10,,,57,127
48750,note_on,0,0,0,,0,,,60,127
48823,note_off,73,0,0,,0,,,60,127
48827,note_on,4,0,0,,2,,,62,127
48900,note_off,73,0,0,,2,,,62,127
48904,note_on,4,0,0,,0,,,60,127
48977,note_off,73,0,0,,0,,,60,127
48981,note_on,4,0,0,,0,,,72,127
48981,note_on,0,0,0,,4,,,76,127
49208,note_off,227,0,0,,4,,,76,127
49208,note_off,0,0,0,,0,,,72,127
49208,note_off,0,0,0,,10,,,57,127
49212,note_on,4,0,0,,4,,,52,127
49212,note_on,0,0,0,,12,,,59,127
49212,note_on,0,0,0,,2,,,62,127
49439,note_off,227,0,0,,2,,,62,127
49439,note_off,0,0,0,,12,,,59,127
49439,note_off,0,0,0,,4,,,52,127
49443,note_on,4,0,0,,10,,,45,127
49443,note_on,0,0,0,,0,,,60,127
49443,note_on,0,0,0,,4,,,64,127
49497,note_off,54,0,0,,4,,,64,127
49497,note_off,0,0,0,,0,,,60,127
49501,note_on,4,0,0,,12,,,59,127
49501,note_on,0,0,0,,2,,,62,127
49555,note_off,54,0,0,,2,,,62,127
49555,note_off,0,0,0,,12,,,59,127
49559,note_on,4,0,0,,0,,,60,127
49559,note_on,0,0,0,,4,,,64,127
49613,note_off,54,0,0,,4,,,64,127
49613,note_off,0,0,0,,0,,,60,127
49617,note_on,4,0,0,,12,,,59,127
49617,note_on,0,0,0,,2,,,62,127
49671,note_off,54,0,0,,2,,,62,127
49671,note_off,0,0,0,,12,,,59,127
49675,note_on,4,0,0,,0,,,60,127
49675,note_on,0,0,0,,10,,,57,127
50132,note_off,457,0,0,,10,,,57,127
50132,note_off,0,0,0,,0,,,60,127
50132,note_off,0,0,0,,10,,,45,127
50136,note_on,4,0,0,,10,,,57,127
50136,note_on,0,0,0,,4,,,64,127
50136,note_on,0,0,0,,0,,,72,127
50136,note_on,0,0,0,,2,,,74,127
50209,note_off,73,0,0,,2,,,74,127
50209,note_off,0,0,0,,0,,,72,127
50213,note_on,4,0,0,,12,,,71,127
50286,note_off,73,0,0,,12,,,71,127
50290,note_on,4,0,0,,0,,,72,127
50363,note_off,73,0,0,,0,,,72,127
50363,note_off,0,0,0,,4,,,64,127
50367,note_on,4,0,0,,5,,,65,127
50367,note_on,0,0,0,,2,,,74,127
50594,note_off,227,0,0,,2,,,74,127
50594,note_off,0,0,0,,5,,,65,127
50598,note_on,4,0,0,,2,,,62,127
50598,note_on,0,0,0,,12,,,71,127
50825,note_off,227,0,0,,12,,,71,127
50825,note_off,0,0,0,,2,,,62,127
50827,note_off,2,0,0,,10,,,57,127
50828,note_on,1,0,0,,10,,,57,127
50828,note_on,0,0,0,,4,,,64,127
50828,note_on,0,0,0,,0,,,72,127
51055,note_off,227,0,0,,0,,,72,127
51055,note_off,0,0,0,,4,,,64,127
51059,note_on,4,0,0,,12,,,59,127
51059,note_on,0,0,0,,8,,,68,127
51286,note_off,227,0,0,,8,,,68,127
51286,note_off,0,0,0,,12,,,59,127
51290,note_on,4,0,0,,0,,,60,127
51290,note_on,0,0,0,,10,,,69,127
51519,note_off,229,0,0,,10,,,57,127
51520,note_on,1,0,0,,2,,,50,127
51520,note_on,0,0,0,,12,,,71,127
51593,note_off,73,0,0,,12,,,71,127
51593,note_off,0,0,0,,10,,,69,127
51597,note_on,4,0,0,,8,,,68,127
51670,note_off,73,0,0,,8,,,68,127
51674,note_on,4,0,0,,10,,,69,127
51746,note_off,72,0,0,,0,,,60,127
51751,note_on,5,0,0,,2,,,62,127
51751,note_on,0,0,0,,5,,,77,127
51902,note_off,151,0,0,,10,,,69,127
51978,note_off,76,0,0,,5,,,77,127
51978,note_off,0,0,0,,2,,,62,127
51982,note_on,4,0,0,,0,,,60,127
51982,note_on,0,0,0,,10,,,69,127
52209,note_off,227,0,0,,10,,,69,127
52209,note_off,0,0,0,,0,,,60,127
52211,note_off,2,0,0,,2,,,50,127
52212,note_on,1,0,0,,4,,,52,127
52212,note_on,0,0,0,,12,,,59,127
52212,note_on,0,0,0,,12,,,71,127
52266,note_off,54,0,0,,12,,,71,127
52270,note_on,4,0,0,,10,,,69,127
52324,note_off,54,0,0,,10,,,69,127
52328,note_on,4,0,0,,12,,,71,127
52382,note_off,54,0,0,,12,,,71,127
52386,note_on,4,0,0,,10,,,69,127
52440,note_off,54,0,0,,10,,,69,127
52444,note_on,4,0,0,,8,,,68,127
52671,note_off,227,0,0,,12,,,59,127
52671,note_off,0,0,0,,4,,,52,127
52675,note_on,4,0,0,,2,,,62,127
52902,note_off,227,0,0,,2,,,62,127
52902,note_off,0,0,0,,8,,,68,127
52906,note_on,4,0,0,,10,,,57,127
52906,note_on,0,0,0,,4,,,64,127
52906,note_on,0,0,0,,2,,,74,127
52906,note_on,0,0,0,,0,,,72,127
52979,note_off,73,0,0,,0,,,72,127
52979,note_off,0,0,0,,2,,,74,127
52983,note_on,4,0,0,,12,,,71,127
53056,note_off,73,0,0,,12,,,71,127
53060,note_on,4,0,0,,0,,,72,127
53133,note_off,73,0,0,,0,,,72,127
53133,note_off,0,0,0,,4,,,64,127
53137,note_on,4,0,0,,5,,,65,127
53137,note_on,0,0,0,,2,,,74,127
53364,note_off,227,0,0,,2,,,74,127
53364,note_off,0,0,0,,5,,,65,127
53368,note_on,4,0,0,,2,,,62,127
53368,note_on,0,0,0,,12,,,71,127
53595,note_off,227,0,0,,12,,,71,127
53595,note_off,0,0,0,,2,,,62,127
53597,note_off,2,0,0,,10,,,57,127
53598,note_on,1,0,0,,4,,,64,127
53598,note_on,0,0,0,,10,,,57,127
53598,note_on,0,0,0,,0,,,72,127
53825,note_off,227,0,0,,0,,,72,127
53825,note_off,0,0,0,,4,,,64,127
53829,note_on,4,0,0,,12,,,59,127
53829,note_on,0,0,0,,8,,,68,127
54056,note_off,227,0,0,,8,,,68,127
54056,note_off,0,0,0,,12,,,59,127
54060,note_on,4,0,0,,0,,,60,127
54060,note_on,0,0,0,,10,,,69,127
54289,note_off,229,0,0,,10,,,57,127
54290,note_on,1,0,0,,2,,,50,127
54290,note_on,0,0,0,,12,,,71,127
54363,note_off,73,0,0,,12,,,71,127
54363,note_off,0,0,0,,10,,,69,127
54367,note_on,4,0,0,,8,,,68,127
54440,note_off,73,0,0,,8,,,68,127
54444,note_on,4,0,0,,10,,,69,127
54516,note_off,72,0,0,,0,,,60,127
54521,note_on,5,0,0,,2,,,62,127
54521,note_on,0,0,0,,5,,,77,127
54672,note_off,151,0,0,,10,,,69,127
54746,note_off,74,0,0,,2,,,50,127
54747,note_off,1,0,0,,5,,,77,127
54751,note_on,4,0,0,,10,,,69,127
54929,note_off,178,0,0,,2,,,62,127
54930,note_off,1,0,0,,10,,,69,127
54982,note_on,52,0,0,,4,,,64,127
54982,note_on,0,0,0,,7,,,67,127
55055,note_off,73,0,0,,7,,,67,127
55059,note_on,4,0,0,,10,,,69,127
55132,note_off,73,0,0,,10,,,69,127
55136,note_on,4,0,0,,7,,,67,127
55213,note_on,77,0,0,,7,,,79,127
55213,note_on,0,0,0,,4,,,76,127
55364,note_off,151,0,0,,7,,,67,127
55440,note_off,76,0,0,,4,,,76,127
55440,note_off,0,0,0,,7,,,79,127
55440,note_off,0,0,0,,4,,,64,127
55444,note_on,4,0,0,,5,,,65,127
55444,note_on,0,0,0,,10,,,69,127
55671,note_off,227,0,0,,10,,,69,127
55671,note_off,0,0,0,,5,,,65,127
55675,note_on,4,0,0,,4,,,64,127
55675,note_on,0,0,0,,7,,,67,127
55748,note_off,73,0,0,,7,,,67,127
55752,note_on,4,0,0,,10,,,69,127
55825,note_off,73,0,0,,10,,,69,127
55829,note_on,4,0,0,,7,,,67,127
55906,note_on,77,0,0,,7,,,79,127
55906,note_on,0,0,0,,4,,,76,127
56057,note_off,151,0,0,,7,,,67,127
56133,note_off,76,0,0,,4,,,76,127
56133,note_off,0,0,0,,7,,,79,127
56133,note_off,0,0,0,,4,,,64,127
56137,note_on,4,0,0,,2,,,62,127
56137,note_on,0,0,0,,5,,,65,127
56364,note_off,227,0,0,,5,,,65,127
56364,note_off,0,0,0,,2,,,62,127
56368,note_on,4,0,0,,0,,,60,127
56368,note_on,0,0,0,,4,,,64,127
56441,note_off,73,0,0,,4,,,64,127
56445,note_on,4,0,0,,5,,,65,127
56518,note_off,73,0,0,,5,,,65,127
56522,note_on,4,0,0,,4,,,64,127
56595,note_off,73,0,0,,4,,,64,127
56599,note_on,4,0,0,,7,,,79,127
56599,note_on,0,0,0,,4,,,76,127
56826,note_off,227,0,0,,4,,,76,127
56826,note_off,0,0,0,,7,,,79,127
56826,note_off,0,0,0,,0,,,60,127
56830,note_on,4,0,0,,11,,,58,127
56830,note_on,0,0,0,,2,,,62,127
57057,note_off,227,0,0,,2,,,62,127
57057,note_off,0,0,0,,11,,,58,127
57061,note_on,4,0,0,,10,,,57,127
57061,note_on,0,0,0,,7,,,79,127
57061,note_on,0,0,0,,4,,,76,127
57288,note_off,227,0,0,,4,,,76,127
57288,note_off,0,0,0,,7,,,79,127
57292,note_on,4,0,0,,10,,,45,127
57292,note_on,0,0,0,,5,,,77,127
57292,note_on,0,0,0,,2,,,74,127
57519,note_off,227,0,0,,2,,,74,127
57519,note_off,0,0,0,,5,,,77,127
57519,note_off,0,0,0,,10,,,45,127
57523,note_on,4,0,0,,10,,,45,127
57523,note_on,0,0,0,,4,,,76,127
57523,note_on,0,0,0,,1,,,73,127
57750,note_off,227,0,0,,1,,,73,127
57750,note_off,0,0,0,,4,,,76,127
57750,note_off,0,0,0,,10,,,45,127
57752,note_off,2,0,0,,10,,,57,127
57753,note_on,1,0,0,,2,,,62,127
57753,note_on,0,0,0,,5,,,65,127
57826,note_off,73,0,0,,5,,,65,127
57830,note_on,4,0,0,,7,,,67,127
57903,note_off,73,0,0,,7,,,67,127
57907,note_on,4,0,0,,5,,,65,127
57984,note_on,77,0,0,,2,,,74,127
57984,note_on,0,0,0,,5,,,77,127
58135,note_off,151,0,0,,5,,,65,127
58211,note_off,76,0,0,,5,,,77,127
58211,note_off,0,0,0,,2,,,74,127
58211,note_off,0,0,0,,2,,,62,127
58215,note_on,4,0,0,,3,,,63,127
58215,note_on,0,0,0,,7,,,67,127
58442,note_off,227,0,0,,7,,,67,127
58442,note_off,0,0,0,,3,,,63,127
58446,note_on,4,0,0,,2,,,62,127
58446,note_on,0,0,0,,5,,,65,127
58519,note_off,73,0,0,,5,,,65,127
58523,note_on,4,0,0,,7,,,67,127
58596,note_off,73,0,0,,7,,,67,127
58600,note_on,4,0,0,,5,,,65,127
58677,note_on,77,0,0,,2,,,74,127
58677,note_on,0,0,0,,5,,,77,127
58828,note_off,151,0,0,,5,,,65,127
58904,note_off,76,0,0,,5,,,77,127
58904,note_off,0,0,0,,2,,,74,127
58904,note_off,0,0,0,,2,,,62,127
58908,note_on,4,0,0,,0,,,60,127
58908,note_on,0,0,0,,3,,,63,127
59135,note_off,227,0,0,,3,,,63,127
59135,note_off,0,0,0,,0,,,60,127
59139,note_on,4,0,0,,11,,,58,127
59139,note_on,0,0,0,,2,,,62,127
59212,note_off,73,0,0,,2,,,62,127
59216,note_on,4,0,0,,3,,,63,127
59289,note_off,73,0,0,,3,,,63,127
59293,note_on,4,0,0,,2,,,62,127
59366,note_off,73,0,0,,2,,,62,127
59370,note_on,4,0,0,,2,,,74,127
59370,note_on,0,0,0,,5,,,77,127
59597,note_off,227,0,0,,5,,,77,127
59597,note_off,0,0,0,,2,,,74,127
59597,note_off,0,0,0,,11,,,58,127
59601,note_on,4,0,0,,8,,,56,127
59601,note_on,0,0,0,,0,,,60,127
59828,note_off,227,0,0,,0,,,60,127
59828,note_off,0,0,0,,8,,,56,127
59832,note_on,4,0,0,,7,,,55,127
59832,note_on,0,0,0,,2,,,74,127
59832,note_on,0,0,0,,5,,,77,127
60059,note_off,227,0,0,,5,,,77,127
60059,note_off,0,0,0,,2,,,74,127
60063,note_on,4,0,0,,7,,,43,127
60063,note_on,0,0,0,,0,,,72,127
60063,note_on,0,0,0,,3,,,75,127
60290,note_off,227,0,0,,3,,,75,127
60290,note_off,0,0,0,,0,,,72,127
60290,note_off,0,0,0,,7,,,43,127
60294,note_on,4,0,0,,7,,,43,127
60294,note_on,0,0,0,,2,,,74,127
60294,note_on,0,0,0,,12,,,71,127
60521,note_off,227,0,0,,12,,,71,127
60521,note_off,0,0,0,,2,,,74,127
60521,note_off,0,0,0,,7,,,43,127
60523,note_off,2,0,0,,7,,,55,127
60524,note_on,1,0,0,,0,,,60,127
60524,note_on,0,0,0,,3,,,63,127
60597,note_off,73,0,0,,3,,,63,127
60601,note_on,4,0,0,,5,,,65,127
60674,note_off,73,0,0,,5,,,65,127
60678,note_on,4,0,0,,3,,,63,127
60755,note_on,77,0,0,,0,,,72,127
60755,note_on,0,0,0,,3,,,75,127
60906,note_off,151,0,0,,3,,,63,127
60980,note_off,74,0,0,,0,,,60,127
60981,note_off,1,0,0,,3,,,75,127
60981,note_off,0,0,0,,0,,,72,127
60985,note_on,4,0,0,,2,,,62,127
60985,note_on,0,0,0,,5,,,65,127
61212,note_off,227,0,0,,5,,,65,127
61212,note_off,0,0,0,,2,,,62,127
61216,note_on,4,0,0,,0,,,60,127
61216,note_on,0,0,0,,3,,,63,127
61289,note_off,73,0,0,,3,,,63,127
61293,note_on,4,0,0,,5,,,65,127
61366,note_off,73,0,0,,5,,,65,127
61370,note_on,4,0,0,,3,,,63,127
61447,note_on,77,0,0,,0,,,72,127
61447,note_on,0,0,0,,3,,,75,127
61598,note_off,151,0,0,,3,,,63,127
61672,note_off,74,0,0,,0,,,60,127
61673,note_off,1,0,0,,3,,,75,127
61673,note_off,0,0,0,,0,,,72,127
61677,note_on,4,0,0,,2,,,62,127
61677,note_on,0,0,0,,11,,,58,127
61904,note_off,227,0,0,,11,,,58,127
61904,note_off,0,0,0,,2,,,62,127
61908,note_on,4,0,0,,10,,,57,127
61908,note_on,0,0,0,,0,,,60,127
61981,note_off,73,0,0,,0,,,60,127
61985,note_on,4,0,0,,2,,,62,127
62058,note_off,73,0,0,,2,,,62,127
62062,note_on,4,0,0,,0,,,60,127
62135,note_off,73,0,0,,0,,,60,127
62139,note_on,4,0,0,,0,,,72,127
62139,note_on,0,0,0,,3,,,75,127
62365,note_off,226,0,0,,10,,,57,127
62366,note_off,1,0,0,,3,,,75,127
62366,note_off,0,0,0,,0,,,72,127
62370,note_on,4,0,0,,11,,,58,127
62370,note_on,0,0,0,,7,,,55,127
62597,note_off,227,0,0,,7,,,55,127
62597,note_off,0,0,0,,11,,,58,127
62601,note_on,4,0,0,,5,,,53,127
62601,note_on,0,0,0,,0,,,72,127
62601,note_on,0,0,0,,3,,,75,127
62828,note_off,227,0,0,,3,,,75,127
62828,note_off,0,0,0,,0,,,72,127
62832,note_on,4,0,0,,5,,,41,127
62832,note_on,0,0,0,,2,,,74,127
62832,note_on,0,0,0,,11,,,70,127
63059,note_off,227,0,0,,11,,,70,127
63059,note_off,0,0,0,,2,,,74,127
63059,note_off,0,0,0,,5,,,41,127
63063,note_on,4,0,0,,5,,,41,127
63063,note_on,0,0,0,,0,,,72,127
63063,note_on,0,0,0,,10,,,69,127
63290,note_off,227,0,0,,10,,,69,127
63290,note_off,0,0,0,,0,,,72,127
63290,note_off,0,0,0,,5,,,41,127
63292,note_off,2,0,0,,5,,,53,127
63293,note_on,1,0,0,,11,,,58,127
63293,note_on,0,0,0,,5,,,65,127
63293,note_on,0,0,0,,2,,,74,127
63405,note_off,112,0,0,,11,,,58,127
63409,note_on,4,0,0,,10,,,57,127
63521,note_off,112,0,0,,10,,,57,127
63521,note_off,0,0,0,,2,,,74,127
63521,note_off,0,0,0,,5,,,65,127
63525,note_on,4,0,0,,7,,,55,127
63525,note_on,0,0,0,,7,,,67,127
63525,note_on,0,0,0,,4,,,76,127
63752,note_off,227,0,0,,4,,,76,127
63752,note_off,0,0,0,,7,,,67,127
63752,note_off,0,0,0,,7,,,55,127
63756,note_on,4,0,0,,5,,,53,127
63756,note_on,0,0,0,,10,,,69,127
63756,note_on,0,0,0,,5,,,77,127
63983,note_off,227,0,0,,5,,,77,127
63983,note_off,0,0,0,,10,,,69,127
63983,note_off,0,0,0,,5,,,53,127
63987,note_on,4,0,0,,4,,,52,127
63987,note_on,0,0,0,,11,,,70,127
63987,note_on,0,0,0,,7,,,79,127
64099,note_off,112,0,0,,7,,,79,127
64099,note_off,0,0,0,,11,,,70,127
64103,note_on,4,0,0,,0,,,72,127
64103,note_on,0,0,0,,10,,,81,127
64215,note_off,112,0,0,,10,,,81,127
64215,note_off,0,0,0,,0,,,72,127
64219,note_on,4,0,0,,2,,,74,127
64219,note_on,0,0,0,,11,,,82,127
64446,note_off,227,0,0,,11,,,82,127
64446,note_off,0,0,0,,2,,,74,127
64446,note_off,0,0,0,,4,,,52,127
64450,note_on,4,0,0,,5,,,53,127
64450,note_on,0,0,0,,0,,,72,127
64450,note_on,0,0,0,,10,,,81,127
64677,note_off,227,0,0,,10,,,81,127
64677,note_off,0,0,0,,0,,,72,127
64677,note_off,0,0,0,,5,,,53,127
64681,note_on,4,0,0,,7,,,55,127
64681,note_on,0,0,0,,7,,,79,127
64681,note_on,0,0,0,,11,,,70,127
64793,note_off,112,0,0,,11,,,70,127
64793,note_off,0,0,0,,7,,,79,127
64797,note_on,4,0,0,,0,,,72,127
64797,note_on,0,0,0,,10,,,81,127
64909,note_off,112,0,0,,10,,,81,127
64909,note_off,0,0,0,,0,,,72,127
64909,note_off,0,0,0,,7,,,55,127
64913,note_on,4,0,0,,4,,,52,127
64913,note_on,0,0,0,,11,,,70,127
64913,note_on,0,0,0,,7,,,79,127
65140,note_off,227,0,0,,7,,,79,127
65140,note_off,0,0,0,,11,,,70,127
65140,note_off,0,0,0,,4,,,52,127
65144,note_on,4,0,0,,5,,,53,127
65144,note_on,0,0,0,,10,,,69,127
65144,note_on,0,0,0,,5,,,77,127
65371,note_off,227,0,0,,5,,,77,127
65371,note_off,0,0,0,,10,,,69,127
65371,note_off,0,0,0,,5,,,53,127
65375,note_on,4,0,0,,0,,,36,127
65375,note_on,0,0,0,,7,,,79,127
65375,note_on,0,0,0,,11,,,70,127
65429,note_off,54,0,0,,11,,,70,127
65429,note_off,0,0,0,,7,,,79,127
65433,note_on,4,0,0,,5,,,77,127
65433,note_on,0,0,0,,10,,,69,127
65487,note_off,54,0,0,,10,,,69,127
65487,note_off,0,0,0,,5,,,77,127
65491,note_on,4,0,0,,7,,,79,127
65491,note_on,0,0,0,,11,,,70,127
65545,note_off,54,0,0,,11,,,70,127
65545,note_off,0,0,0,,7,,,79,127
65549,note_on,4,0,0,,5,,,77,127
65549,note_on,0,0,0,,10,,,69,127
65603,note_off,54,0,0,,10,,,69,127
65603,note_off,0,0,0,,5,,,77,127
65607,note_on,4,0,0,,4,,,76,127
65607,note_on,0,0,0,,7,,,67,127
65953,note_off,346,0,0,,4,,,76,127
66065,note_off,112,0,0,,7,,,67,127
66065,note_off,0,0,0,,0,,,36,127
66069,note_on,4,0,0,,5,,,65,127
66069,note_on,0,0,0,,0,,,72,127
66069,note_on,0,0,0,,11,,,82,127
66069,note_on,0,0,0,,8,,,80,127
66142,note_off,73,0,0,,8,,,80,127
66142,note_off,0,0,0,,11,,,82,127
66146,note_on,4,0,0,,7,,,79,127
66219,note_off,73,0,0,,7,,,79,127
66223,note_on,4,0,0,,8,,,80,127
66296,note_off,73,0,0,,8,,,80,127
66296,note_off,0,0,0,,0,,,72,127
66300,note_on,4,0,0,,1,,,73,127
66300,note_on,0,0,0,,11,,,82,127
66527,note_off,227,0,0,,11,,,82,127
66527,note_off,0,0,0,,1,,,73,127
66531,note_on,4,0,0,,11,,,70,127
66531,note_on,0,0,0,,7,,,79,127
66758,note_off,227,0,0,,7,,,79,127
66758,note_off,0,0,0,,11,,,70,127
66760,note_off,2,0,0,,5,,,65,127
66761,note_on,1,0,0,,0,,,72,127
66761,note_on,0,0,0,,5,,,65,127
66761,note_on,0,0,0,,8,,,80,127
66988,note_off,227,0,0,,8,,,80,127
66988,note_off,0,0,0,,0,,,72,127
66992,note_on,4,0,0,,7,,,67,127
66992,note_on,0,0,0,,4,,,76,127
67219,note_off,227,0,0,,4,,,76,127
67219,note_off,0,0,0,,7,,,67,127
67223,note_on,4,0,0,,8,,,68,127
67223,note_on,0,0,0,,5,,,77,127
67452,note_off,229,0,0,,5,,,65,127
67453,note_on,1,0,0,,11,,,58,127
67453,note_on,0,0,0,,7,,,79,127
67526,note_off,73,0,0,,7,,,79,127
67526,note_off,0,0,0,,5,,,77,127
67530,note_on,4,0,0,,4,,,76,127
67603,note_off,73,0,0,,4,,,76,127
67607,note_on,4,0,0,,5,,,77,127
67679,note_off,72,0,0,,8,,,68,127
67680,note_off,1,0,0,,5,,,77,127
67684,note_on,4,0,0,,11,,,70,127
67684,note_on,0,0,0,,7,,,79,127
67911,note_off,227,0,0,,7,,,79,127
67911,note_off,0,0,0,,11,,,70,127
67915,note_on,4,0,0,,8,,,68,127
67915,note_on,0,0,0,,5,,,77,127
68142,note_off,227,0,0,,5,,,77,127
68142,note_off,0,0,0,,8,,,68,127
68144,note_off,2,0,0,,11,,,58,127
68145,note_on,1,0,0,,0,,,60,127
68145,note_on,0,0,0,,7,,,67,127
68145,note_on,0,0,0,,7,,,79,127
68199,note_off,54,0,0,,7,,,79,127
68203,note_on,4,0,0,,5,,,77,127
68257,note_off,54,0,0,,5,,,77,127
68261,note_on,4,0,0,,7,,,79,127
68315,note_off,54,0,0,,7,,,79,127
68319,note_on,4,0,0,,5,,,77,127
68373,note_off,54,0,0,,5,,,77,127
68377,note_on,4,0,0,,4,,,76,127
68604,note_off,227,0,0,,7,,,67,127
68608,note_on,4,0,0,,11,,,70,127
68835,note_off,227,0,0,,11,,,70,127
68835,note_off,0,0,0,,4,,,76,127
68837,note_off,2,0,0,,0,,,60,127
68838,note_on,1,0,0,,0,,,72,127
68838,note_on,0,0,0,,5,,,65,127
68838,note_on,0,0,0,,8,,,80,127
68838,note_on,0,0,0,,11,,,82,127
68911,note_off,73,0,0,,11,,,82,127
68911,note_off,0,0,0,,8,,,80,127
68915,note_on,4,0,0,,7,,,79,127
68988,note_off,73,0,0,,7,,,79,127
68992,note_on,4,0,0,,8,,,80,127
69065,note_off,73,0,0,,8,,,80,127
69065,note_off,0,0,0,,0,,,72,127
69069,note_on,4,0,0,,1,,,73,127
69069,note_on,0,0,0,,11,,,82,127
69296,note_off,227,0,0,,11,,,82,127
69296,note_off,0,0,0,,1,,,73,127
69300,note_on,4,0,0,,11,,,70,127
69300,note_on,0,0,0,,7,,,79,127
69527,note_off,227,0,0,,7,,,79,127
69527,note_off,0,0,0,,11,,,70,127
69529,note_off,2,0,0,,5,,,65,127
69530,note_on,1,0,0,,5,,,65,127
69530,note_on,0,0,0,,8,,,68,127
69530,note_on,0,0,0,,0,,,84,127
69757,note_off,227,0,0,,0,,,84,127
69757,note_off,0,0,0,,8,,,68,127
69761,note_on,4,0,0,,7,,,67,127
69761,note_on,0,0,0,,4,,,76,127
69988,note_off,227,0,0,,4,,,76,127
69988,note_off,0,0,0,,7,,,67,127
69992,note_on,4,0,0,,8,,,68,127
69992,note_on,0,0,0,,5,,,77,127
70221,note_off,229,0,0,,5,,,65,127
70222,note_on,1,0,0,,11,,,58,127
70222,note_on,0,0,0,,7,,,79,127
70295,note_off,73,0,0,,7,,,79,127
70295,note_off,0,0,0,,5,,,77,127
70299,note_on,4,0,0,,4,,,76,127
70372,note_off,73,0,0,,4,,,76,127
70376,note_on,4,0,0,,5,,,77,127
70448,note_off,72,0,0,,8,,,68,127
70449,note_off,1,0,0,,5,,,77,127
70453,note_on,4,0,0,,11,,,70,127
70453,note_on,0,0,0,,7,,,79,127
70680,note_off,227,0,0,,7,,,79,127
70680,note_off,0,0,0,,11,,,70,127
70684,note_on,4,0,0,,8,,,68,127
70684,note_on,0,0,0,,5,,,77,127
70911,note_off,227,0,0,,5,,,77,127
70911,note_off,0,0,0,,8,,,68,127
70913,note_off,2,0,0,,11,,,58,127
70914,note_on,1,0,0,,7,,,67,127
70914,note_on,0,0,0,,0,,,60,127
70914,note_on,0,0,0,,7,,,79,127
70968,note_off,54,0,0,,7,,,79,127
70972,note_on,4,0,0,,5,,,77,127
71026,note_off,54,0,0,,5,,,77,127
71030,note_on,4,0,0,,7,,,79,127
71084,note_off,54,0,0,,7,,,79,127
71088,note_on,4,0,0,,5,,,77,127
71142,note_off,54,0,0,,5,,,77,127
71146,note_on,4,0,0,,4,,,76,127
71582,note_off,436,0,0,,4,,,76,127
71604,note_off,22,0,0,,0,,,60,127
71604,note_off,0,0,0,,7,,,67,127
71608,note_on,4,0,0,,0,,,60,127
71608,note_on,0,0,0,,4,,,64,127
71681,note_off,73,0,0,,4,,,64,127
71685,note_on,4,0,0,,5,,,65,127
71758,note_off,73,0,0,,5,,,65,127
71762,note_on,4,0,0,,7,,,67,127
71835,note_off,73,0,0,,7,,,67,127
71835,note_off,0,0,0,,0,,,60,127
71839,note_on,4,0,0,,5,,,65,127
71839,note_on,0,0,0,,10,,,69,127
71912,note_off,73,0,0,,10,,,69,127
71916,note_on,4,0,0,,11,,,70,127
71989,note_off,73,0,0,,11,,,70,127
71993,note_on,4,0,0,,0,,,72,127
72066,note_off,73,0,0,,0,,,72,127
72066,note_off,0,0,0,,5,,,65,127
72070,note_on,4,0,0,,11,,,70,127
72070,note_on,0,0,0,,2,,,74,127
72143,note_off,73,0,0,,2,,,74,127
72147,note_on,4,0,0,,0,,,72,127
72214,note_off,67,0,0,,11,,,70,127
72220,note_off,6,0,0,,0,,,72,127
72224,note_on,4,0,0,,11,,,70,127
72297,note_off,73,0,0,,11,,,70,127
72301,note_on,4,0,0,,10,,,69,127
72301,note_on,0,0,0,,0,,,72,127
72528,note_off,227,0,0,,0,,,72,127
72528,note_off,0,0,0,,10,,,69,127
72532,note_on,4,0,0,,7,,,67,127
72532,note_on,0,0,0,,11,,,70,127
72759,note_off,227,0,0,,11,,,70,127
72759,note_off,0,0,0,,7,,,67,127
72763,note_on,4,0,0,,5,,,65,127
72763,note_on,0,0,0,,10,,,69,127
72990,note_off,227,0,0,,10,,,69,127
72990,note_off,0,0,0,,5,,,65,127
72994,note_on,4,0,0,,7,,,67,127
72994,note_on,0,0,0,,11,,,70,127
73109,note_on,115,0,0,,7,,,79,127
73221,note_off,112,0,0,,7,,,79,127
73221,note_off,0,0,0,,7,,,67,127
73222,note_off,1,0,0,,11,,,70,127
73224,note_on,2,0,0,,4,,,64,127
73224,note_on,0,0,0,,11,,,70,127
73451,note_off,227,0,0,,11,,,70,127
73451,note_off,0,0,0,,4,,,64,127
73455,note_on,4,0,0,,5,,,65,127
73455,note_on,0,0,0,,10,,,69,127
73682,note_off,227,0,0,,10,,,69,127
73682,note_off,0,0,0,,5,,,65,127
73686,note_on,4,0,0,,0,,,60,127
73686,note_on,0,0,0,,11,,,70,127
73686,note_on,0,0,0,,5,,,65,127
73740,note_off,54,0,0,,11,,,70,127
73744,note_on,4,0,0,,10,,,69,127
73798,note_off,54,0,0,,10,,,69,127
73802,note_on,4,0,0,,11,,,70,127
73856,note_off,54,0,0,,11,,,70,127
73860,note_on,4,0,0,,10,,,69,127
73914,note_off,54,0,0,,10,,,69,127
73914,note_off,0,0,0,,5,,,65,127
73918,note_on,4,0,0,,4,,,64,127
73918,note_on,0,0,0,,7,,,67,127
74145,note_off,227,0,0,,0,,,60,127
74149,note_on,4,0,0,,0,,,48,127
74376,note_off,227,0,0,,0,,,48,127
74376,note_off,0,0,0,,7,,,67,127
74376,note_off,0,0,0,,4,,,64,127
74380,note_on,4,0,0,,0,,,60,127
74380,note_on,0,0,0,,4,,,64,127
74453,note_off,73,0,0,,4,,,64,127
74457,note_on,4,0,0,,5,,,65,127
74530,note_off,73,0,0,,5,,,65,127
74534,note_on,4,0,0,,7,,,67,127
74607,note_off,73,0,0,,7,,,67,127
74607,note_off,0,0,0,,0,,,60,127
74611,note_on,4,0,0,,5,,,65,127
74611,note_on,0,0,0,,10,,,69,127
74684,note_off,73,0,0,,10,,,69,127
74688,note_on,4,0,0,,11,,,70,127
74761,note_off,73,0,0,,11,,,70,127
74765,note_on,4,0,0,,0,,,72,127
74838,note_off,73,0,0,,0,,,72,127
74838,note_off,0,0,0,,5,,,65,127
74842,note_on,4,0,0,,11,,,70,127
74842,note_on,0,0,0,,2,,,74,127
74915,note_off,73,0,0,,2,,,74,127
74919,note_on,4,0,0,,0,,,72,127
74986,note_off,67,0,0,,11,,,70,127
74992,note_off,6,0,0,,0,,,72,127
74996,note_on,4,0,0,,11,,,70,127
75069,note_off,73,0,0,,11,,,70,127
75073,note_on,4,0,0,,10,,,69,127
75073,note_on,0,0,0,,0,,,72,127
75300,note_off,227,0,0,,0,,,72,127
75300,note_off,0,0,0,,10,,,69,127
75304,note_on,4,0,0,,7,,,67,127
75304,note_on,0,0,0,,4,,,76,127
75531,note_off,227,0,0,,4,,,76,127
75531,note_off,0,0,0,,7,,,67,127
75535,note_on,4,0,0,,5,,,65,127
75535,note_on,0,0,0,,5,,,77,127
75762,note_off,227,0,0,,5,,,77,127
75762,note_off,0,0,0,,5,,,65,127
75766,note_on,4,0,0,,7,,,67,127
75766,note_on,0,0,0,,11,,,70,127
75881,note_on,115,0,0,,7,,,79,127
75993,note_off,112,0,0,,7,,,79,127
75993,note_off,0,0,0,,7,,,67,127
75994,note_off,1,0,0,,11,,,70,127
75996,note_on,2,0,0,,4,,,64,127
75996,note_on,0,0,0,,11,,,70,127
76223,note_off,227,0,0,,11,,,70,127
76223,note_off,0,0,0,,4,,,64,127
76227,note_on,4,0,0,,5,,,65,127
76227,note_on,0,0,0,,10,,,69,127
76454,note_off,227,0,0,,10,,,69,127
76454,note_off,0,0,0,,5,,,65,127
76458,note_on,4,0,0,,0,,,60,127
76458,note_on,0,0,0,,5,,,65,127
76458,note_on,0,0,0,,11,,,70,127
76512,note_off,54,0,0,,11,,,70,127
76516,note_on,4,0,0,,10,,,69,127
76570,note_off,54,0,0,,10,,,69,127
76574,note_on,4,0,0,,11,,,70,127
76628,note_off,54,0,0,,11,,,70,127
76632,note_on,4,0,0,,10,,,69,127
76686,note_off,54,0,0,,10,,,69,127
76686,note_off,0,0,0,,5,,,65,127
76690,note_on,4,0,0,,4,,,64,127
76690,note_on,0,0,0,,7,,,67,127
76917,note_off,227,0,0,,0,,,60,127
76921,note_on,4,0,0,,0,,,48,127
77129,note_off,208,0,0,,7,,,67,127
77148,note_off,19,0,0,,0,,,48,127
77148,note_off,0,0,0,,4,,,64,127
77152,note_on,4,0,0,,10,,,57,127
77152,note_on,0,0,0,,0,,,60,127
77225,note_off,73,0,0,,0,,,60,127
77229,note_on,4,0,0,,2,,,62,127
77302,note_off,73,0,0,,2,,,62,127
77306,note_on,4,0,0,,0,,,60,127
77383,note_on,77,0,0,,10,,,69,127
77383,note_on,0,0,0,,0,,,72,127
77534,note_off,151,0,0,,0,,,60,127
77610,note_off,76,0,0,,0,,,72,127
77610,note_off,0,0,0,,10,,,69,127
77610,note_off,0,0,0,,10,,,57,127
77614,note_on,4,0,0,,11,,,58,127
77614,note_on,0,0,0,,2,,,62,127
77841,note_off,227,0,0,,2,,,62,127
77841,note_off,0,0,0,,11,,,58,127
77845,note_on,4,0,0,,10,,,57,127
77845,note_on,0,0,0,,0,,,60,127
77918,note_off,73,0,0,,0,,,60,127
77922,note_on,4,0,0,,2,,,62,127
77995,note_off,73,0,0,,2,,,62,127
77999,note_on,4,0,0,,0,,,60,127
78076,note_on,77,0,0,,0,,,72,127
78076,note_on,0,0,0,,10,,,69,127
78227,note_off,151,0,0,,0,,,60,127
78303,note_off,76,0,0,,10,,,69,127
78303,note_off,0,0,0,,0,,,72,127
78303,note_off,0,0,0,,10,,,57,127
78307,note_on,4,0,0,,7,,,55,127
78307,note_on,0,0,0,,11,,,58,127
78534,note_off,227,0,0,,11,,,58,127
78534,note_off,0,0,0,,7,,,55,127
78538,note_on,4,0,0,,5,,,53,127
78538,note_on,0,0,0,,10,,,57,127
78611,note_off,73,0,0,,10,,,57,127
78615,note_on,4,0,0,,11,,,58,127
78688,note_off,73,0,0,,11,,,58,127
78692,note_on,4,0,0,,10,,,57,127
78765,note_off,73,0,0,,10,,,57,127
78769,note_on,4,0,0,,10,,,69,127
78769,note_on,0,0,0,,0,,,72,127
78996,note_off,227,0,0,,0,,,72,127
78996,note_off,0,0,0,,10,,,69,127
78996,note_off,0,0,0,,5,,,53,127
79000,note_on,4,0,0,,0,,,48,127
79000,note_on,0,0,0,,7,,,67,127
79000,note_on,0,0,0,,11,,,70,127
79227,note_off,227,0,0,,11,,,70,127
79227,note_off,0,0,0,,7,,,67,127
79227,note_off,0,0,0,,0,,,48,127
79231,note_on,4,0,0,,5,,,41,127
79231,note_on,0,0,0,,10,,,69,127
79231,note_on,0,0,0,,0,,,72,127
79285,note_off,54,0,0,,0,,,72,127
79285,note_off,0,0,0,,10,,,69,127
79289,note_on,4,0,0,,7,,,67,127
79289,note_on,0,0,0,,11,,,70,127
79343,note_off,54,0,0,,11,,,70,127
79343,note_off,0,0,0,,7,,,67,127
79347,note_on,4,0,0,,10,,,69,127
79347,note_on,0,0,0,,0,,,72,127
79401,note_off,54,0,0,,0,,,72,127
79401,note_off,0,0,0,,10,,,69,127
79405,note_on,4,0,0,,7,,,67,127
79405,note_on,0,0,0,,11,,,70,127
79459,note_off,54,0,0,,11,,,70,127
79459,note_off,0,0,0,,7,,,67,127
79463,note_on,4,0,0,,10,,,69,127
79463,note_on,0,0,0,,5,,,65,127
79690,note_off,227,0,0,,5,,,41,127
79694,note_on,4,0,0,,5,,,53,127
79921,note_off,227,0,0,,5,,,53,127
79921,note_off,0,0,0,,5,,,65,127
79921,note_off,0,0,0,,10,,,69,127
79925,note_on,4,0,0,,10,,,57,127
79925,note_on,0,0,0,,0,,,60,127
79998,note_off,73,0,0,,0,,,60,127
80002,note_on,4,0,0,,2,,,62,127
80075,note_off,73,0,0,,2,,,62,127
80079,note_on,4,0,0,,0,,,60,127
80156,note_on,77,0,0,,0,,,72,127
80156,note_on,0,0,0,,10,,,69,127
80307,note_off,151,0,0,,0,,,60,127
80383,note_off,76,0,0,,10,,,69,127
80383,note_off,0,0,0,,0,,,72,127
80383,note_off,0,0,0,,10,,,57,127
80387,note_on,4,0,0,,11,,,58,127
80387,note_on,0,0,0,,2,,,62,127
80614,note_off,227,0,0,,2,,,62,127
80614,note_off,0,0,0,,11,,,58,127
80618,note_on,4,0,0,,10,,,57,127
80618,note_on,0,0,0,,0,,,60,127
80691,note_off,73,0,0,,0,,,60,127
80695,note_on,4,0,0,,2,,,62,127
80768,note_off,73,0,0,,2,,,62,127
80772,note_on,4,0,0,,0,,,60,127
80845,note_off,73,0,0,,0,,,60,127
80849,note_on,4,0,0,,10,,,69,127
80849,note_on,0,0,0,,0,,,72,127
81076,note_off,227,0,0,,0,,,72,127
81076,note_off,0,0,0,,10,,,69,127
81076,note_off,0,0,0,,10,,,57,127
81080,note_on,4,0,0,,4,,,52,127
81080,note_on,0,0,0,,11,,,70,127
81080,note_on,0,0,0,,7,,,67,127
81307,note_off,227,0,0,,7,,,67,127
81307,note_off,0,0,0,,11,,,70,127
81307,note_off,0,0,0,,4,,,52,127
81311,note_on,4,0,0,,5,,,53,127
81311,note_on,0,0,0,,10,,,69,127
81311,note_on,0,0,0,,5,,,65,127
81384,note_off,73,0,0,,10,,,69,127
81388,note_on,4,0,0,,7,,,67,127
81455,note_off,67,0,0,,5,,,65,127
81461,note_off,6,0,0,,7,,,67,127
81465,note_on,4,0,0,,5,,,65,127
81538,note_off,73,0,0,,5,,,53,127
81542,note_on,4,0,0,,0,,,60,127
81542,note_on,0,0,0,,10,,,69,127
81765,note_off,223,0,0,,5,,,65,127
81769,note_off,4,0,0,,10,,,69,127
81773,note_on,4,0,0,,0,,,48,127
81773,note_on,0,0,0,,7,,,67,127
81773,note_on,0,0,0,,4,,,64,127
81999,note_off,226,0,0,,0,,,60,127
82000,note_off,1,0,0,,4,,,64,127
82000,note_off,0,0,0,,7,,,67,127
82000,note_off,0,0,0,,0,,,48,127
82004,note_on,4,0,0,,5,,,53,127
82004,note_on,0,0,0,,5,,,77,127
82077,note_off,73,0,0,,5,,,77,127
82081,note_on,4,0,0,,4,,,76,127
82154,note_off,73,0,0,,4,,,76,127
82158,note_on,4,0,0,,5,,,77,127
82235,note_on,77,0,0,,0,,,72,127
82308,note_off,73,0,0,,0,,,72,127
82312,note_on,4,0,0,,11,,,70,127
82385,note_off,73,0,0,,11,,,70,127
82386,note_off,1,0,0,,5,,,77,127
82388,note_on,2,0,0,,0,,,72,127
82460,note_off,72,0,0,,5,,,53,127
82465,note_on,5,0,0,,10,,,69,127
82538,note_off,73,0,0,,10,,,69,127
82542,note_on,4,0,0,,7,,,67,127
82615,note_off,73,0,0,,7,,,67,127
82616,note_off,1,0,0,,0,,,72,127
82618,note_on,2,0,0,,10,,,69,127
82695,note_on,77,0,0,,5,,,65,127
82768,note_off,73,0,0,,5,,,65,127
82772,note_on,4,0,0,,4,,,64,127
82845,note_off,73,0,0,,4,,,64,127
82846,note_off,1,0,0,,10,,,69,127
82848,note_on,2,0,0,,5,,,65,127
82925,note_on,77,0,0,,0,,,60,127
82998,note_off,73,0,0,,0,,,60,127
83002,note_on,4,0,0,,11,,,58,127
83075,note_off,73,0,0,,11,,,58,127
83076,note_off,1,0,0,,5,,,65,127
83078,note_on,2,0,0,,0,,,60,127
83155,note_on,77,0,0,,10,,,57,127
83228,note_off,73,0,0,,10,,,57,127
83232,note_on,4,0,0,,7,,,55,127
83305,note_off,73,0,0,,7,,,55,127
83306,note_off,1,0,0,,0,,,60,127
83308,note_on,2,0,0,,10,,,57,127
83385,note_on,77,0,0,,5,,,53,127
83458,note_off,73,0,0,,5,,,53,127
83462,note_on,4,0,0,,4,,,52,127
83535,note_off,73,0,0,,4,,,52,127
83536,note_off,1,0,0,,10,,,57,127
83538,note_on,2,0,0,,5,,,53,127
83615,note_on,77,0,0,,0,,,48,127
83688,note_off,73,0,0,,0,,,48,127
83692,note_on,4,0,0,,11,,,46,127
83765,note_off,73,0,0,,11,,,46,127
83766,note_off,1,0,0,,5,,,53,127
83768,note_on,2,0,0,,0,,,48,127
83845,note_on,77,0,0,,10,,,45,127
83918,note_off,73,0,0,,10,,,45,127
83922,note_on,4,0,0,,7,,,43,127
83995,note_off,73,0,0,,7,,,43,127
83996,note_off,1,0,0,,0,,,48,127
83998,note_on,2,0,0,,10,,,45,127
84071,note_off,73,0,0,,10,,,45,127
84075,note_on,4,0,0,,5,,,41,127
84267,note_on,192,0,0,,5,,,65,127
84302,note_off,35,0,0,,5,,,65,127
84306,note_on,4,0,0,,7,,,67,127
84341,note_off,35,0,0,,7,,,67,127
84345,note_on,4,0,0,,10,,,69,127
84380,note_off,35,0,0,,10,,,69,127
84384,note_on,4,0,0,,11,,,70,127
84419,note_off,35,0,0,,11,,,70,127
84423,note_on,4,0,0,,0,,,72,127
84458,note_off,35,0,0,,0,,,72,127
84462,note_on,4,0,0,,2,,,74,127
84497,note_off,35,0,0,,2,,,74,127
84501,note_on,4,0,0,,4,,,76,127
84536,note_off,35,0,0,,4,,,76,127
84536,note_off,0,0,0,,5,,,41,127
84540,note_on,4,0,0,,10,,,57,127
84540,note_on,0,0,0,,5,,,77,127
84767,note_off,227,0,0,,10,,,57,127
84771,note_on,4,0,0,,11,,,58,127
84844,note_off,73,0,0,,5,,,77,127
84848,note_on,4,0,0,,2,,,74,127
84883,note_off,35,0,0,,2,,,74,127
84887,note_on,4,0,0,,4,,,76,127
84922,note_off,35,0,0,,4,,,76,127
84926,note_on,4,0,0,,5,,,77,127
84961,note_off,35,0,0,,5,,,77,127
84965,note_on,4,0,0,,7,,,79,127
85000,note_off,35,0,0,,7,,,79,127
85000,note_off,0,0,0,,11,,,58,127
85004,note_on,4,0,0,,0,,,60,127
85004,note_on,0,0,0,,10,,,81,127
85058,note_off,54,0,0,,10,,,81,127
85062,note_on,4,0,0,,7,,,79,127
85116,note_off,54,0,0,,7,,,79,127
85120,note_on,4,0,0,,10,,,81,127
85174,note_off,54,0,0,,10,,,81,127
85178,note_on,4,0,0,,7,,,79,127
85232,note_off,54,0,0,,7,,,79,127
85236,note_on,4,0,0,,0,,,48,127
85236,note_on,0,0,0,,10,,,81,127
85290,note_off,54,0,0,,10,,,81,127
85294,note_on,4,0,0,,7,,,79,127
85348,note_off,54,0,0,,7,,,79,127
85352,note_on,4,0,0,,5,,,77,127
85462,note_off,110,0,0,,0,,,60,127
85463,note_off,1,0,0,,5,,,77,127
85463,note_off,0,0,0,,0,,,48,127
85467,note_on,4,0,0,,5,,,65,127
85467,note_on,0,0,0,,5,,,77,127
85694,note_off,227,0,0,,5,,,77,127
85694,note_off,0,0,0,,5,,,65,127
85698,note_on,4,0,0,,0,,,60,127
85698,note_on,0,0,0,,0,,,72,127
85925,note_off,227,0,0,,0,,,72,127
85925,note_off,0,0,0,,0,,,60,127
85929,note_on,4,0,0,,5,,,53,127
85929,note_on,0,0,0,,5,,,65,127
86156,note_off,227,0,0,,5,,,65,127
86156,note_off,0,0,0,,5,,,53,127
86160,note_on,4,0,0,,0,,,60,127
86160,note_on,0,0,0,,0,,,72,127
86387,note_off,227,0,0,,0,,,72,127
86387,note_off,0,0,0,,0,,,60,127
86391,note_on,4,0,0,,7,,,55,127
86391,note_on,0,0,0,,7,,,67,127
86618,note_off,227,0,0,,7,,,67,127
86618,note_off,0,0,0,,7,,,55,127
86622,note_on,4,0,0,,0,,,48,127
86622,note_on,0,0,0,,0,,,60,127
86849,note_off,227,0,0,,0,,,60,127
86849,note_off,0,0,0,,0,,,48,127
86853,note_on,4,0,0,,5,,,53,127
86853,note_on,0,0,0,,5,,,65,127
87080,note_off,227,0,0,,5,,,65,127
87080,note_off,0,0,0,,5,,,53,127
87084,note_on,4,0,0,,0,,,48,127
87084,note_on,0,0,0,,0,,,60,127
87311,note_off,227,0,0,,0,,,60,127
87311,note_off,0,0,0,,0,,,48,127
87315,note_on,4,0,0,,5,,,41,127
87315,note_on,0,0,0,,5,,,53,127
87542,note_off,227,0,0,,5,,,53,127
87542,note_off,0,0,0,,5,,,41,127
87567,note_on,25,0,0,,11,,,58,127
87567,note_on,0,0,0,,11,,,70,127
87643,note_off,76,0,0,,11,,,70,127
87651,note_on,8,0,0,,10,,,69,127
87727,note_off,76,0,0,,10,,,69,127
87734,note_on,7,0,0,,7,,,67,127
87806,note_off,72,0,0,,11,,,58,127
87810,note_off,4,0,0,,7,,,67,127
87817,note_on,7,0,0,,0,,,60,127
87817,note_on,0,0,0,,0,,,72,127
88056,note_off,239,0,0,,0,,,72,127
88056,note_off,0,0,0,,0,,,60,127
88067,note_on,11,0,0,,0,,,48,127
88067,note_on,0,0,0,,0,,,60,127
88314,note_off,247,0,0,,0,,,60,127
88314,note_off,0,0,0,,0,,,48,127
88348,note_on,34,0,0,,5,,,53,127
88348,note_on,0,0,0,,5,,,65,127
88348,note_on,0,0,0,,5,,,41,127
90148,note_off,1800,0,0,,5,,,41,127
90148,note_off,0,0,0,,5,,,65,127
90148,note_off,0,0,0,,5,,,53,127
95232,end_of_track,5084,1,0,,,,,,
