tick,type,time,meta,track,program,channel,pitch,tempo,note,velocity
0,copyright,0,1,0,,,,,,
0,program_change,0,0,0,6,0,,,,
0,pitchwheel,0,0,0,,0,0,,,
0,program_change,0,0,0,6,1,,,,
0,pitchwheel,0,0,0,,1,-590,,,
0,program_change,0,0,0,6,2,,,,
0,pitchwheel,0,0,0,,2,-272,,,
0,program_change,0,0,0,6,3,,,,
0,pitchwheel,0,0,0,,3,-353,,,
0,program_change,0,0,0,6,4,,,,
0,pitchwheel,0,0,0,,4,-560,,,
0,program_change,0,0,0,6,5,,,,
0,pitchwheel,0,0,0,,5,-80,,,
0,program_change,0,0,0,6,6,,,,
0,pitchwheel,0,0,0,,6,-625,,,
0,program_change,0,0,0,6,7,,,,
0,pitchwheel,0,0,0,,7,-130,,,
0,program_change,0,0,0,6,8,,,,
0,pitchwheel,0,0,0,,8,-512,,,
0,program_change,0,0,0,6,10,,,,
0,pitchwheel,0,0,0,,10,-464,,,
0,program_change,0,0,0,6,11,,,,
0,pitchwheel,0,0,0,,11,-208,,,
0,program_change,0,0,0,6,12,,,,
0,pitchwheel,0,0,0,,12,-553,,,
0,set_tempo,0,1,0,,,,500000,,
115,note_on,115,0,0,,2,,,38,127
230,note_on,115,0,0,,2,,,62,127
345,note_off,115,0,0,,2,,,62,127
345,note_on,0,0,0,,5,,,65,127
460,note_off,115,0,0,,5,,,65,127
460,note_on,0,0,0,,10,,,69,127
570,note_off,110,0,0,,2,,,38,127
575,note_off,5,0,0,,10,,,69,127
575,note_on,0,0,0,,5,,,77,127
690,note_on,115,0,0,,10,,,45,127
805,note_off,115,0,0,,10,,,45,127
805,note_on,0,0,0,,2,,,50,127
920,note_off,115,0,0,,2,,,50,127
920,note_on,0,0,0,,5,,,53,127
1035,note_off,115,0,0,,5,,,53,127
1035,note_on,0,0,0,,10,,,69,127
1035,note_on,0,0,0,,10,,,57,127
1150,note_off,115,0,0,,5,,,77,127
1150,note_on,0,0,0,,4,,,76,127
1265,note_off,115,0,0,,4,,,76,127
1265,note_on,0,0,0,,5,,,77,127
1380,note_off,115,0,0,,5,,,77,127
1380,note_on,0,0,0,,2,,,74,127
1495,note_off,115,0,0,,2,,,74,127
1495,note_off,0,0,0,,10,,,57,127
1495,note_off,0,0,0,,10,,,69,127
1495,note_on,0,0,0,,11,,,70,127
1495,note_on,0,0,0,,7,,,55,127
1495,note_on,0,0,0,,4,,,76,127
1610,note_off,115,0,0,,4,,,76,127
1610,note_on,0,0,0,,2,,,74,127
1725,note_off,115,0,0,,2,,,74,127
1725,note_on,0,0,0,,4,,,76,127
1840,note_off,115,0,0,,4,,,76,127
1840,note_on,0,0,0,,1,,,73,127
1955,note_off,115,0,0,,1,,,73,127
1955,note_off,0,0,0,,11,,,70,127
1955,note_on,0,0,0,,2,,,74,127
2070,note_off,115,0,0,,7,,,55,127
2070,note_on,0,0,0,,5,,,53,127
2185,note_off,115,0,0,,5,,,53,127
2185,note_on,0,0,0,,2,,,62,127
2300,note_off,115,0,0,,2,,,74,127
2300,note_on,0,0,0,,10,,,69,127
2415,note_off,115,0,0,,10,,,69,127
2415,note_on,0,0,0,,4,,,76,127
2530,note_off,115,0,0,,2,,,62,127
2530,note_on,0,0,0,,4,,,52,127
2645,note_off,115,0,0,,4,,,52,127
2645,note_on,0,0,0,,1,,,61,127
2760,note_off,115,0,0,,4,,,76,127
2760,note_on,0,0,0,,10,,,69,127
2875,note_off,115,0,0,,10,,,69,127
2875,note_off,0,0,0,,1,,,61,127
2875,note_on,0,0,0,,2,,,50,127
2875,note_on,0,0,0,,5,,,77,127
2990,note_on,115,0,0,,10,,,69,127
3105,note_off,115,0,0,,10,,,69,127
3105,note_off,0,0,0,,2,,,50,127
3105,note_on,0,0,0,,7,,,67,127
3105,note_on,0,0,0,,11,,,70,127
3220,note_off,115,0,0,,5,,,77,127
3220,note_on,0,0,0,,4,,,76,127
3335,note_off,115,0,0,,4,,,76,127
3335,note_off,0,0,0,,11,,,70,127
3335,note_off,0,0,0,,7,,,67,127
3335,note_on,0,0,0,,5,,,65,127
3335,note_on,0,0,0,,2,,,74,127
3450,note_on,115,0,0,,10,,,69,127
3565,note_off,115,0,0,,10,,,69,127
3565,note_off,0,0,0,,5,,,65,127
3565,note_on,0,0,0,,4,,,64,127
3565,note_on,0,0,0,,7,,,67,127
3680,note_off,115,0,0,,2,,,74,127
3680,note_on,0,0,0,,1,,,73,127
3795,note_off,115,0,0,,1,,,73,127
3795,note_off,0,0,0,,7,,,67,127
3795,note_off,0,0,0,,4,,,64,127
3795,note_on,0,0,0,,2,,,50,127
3795,note_on,0,0,0,,5,,,77,127
3910,note_off,115,0,0,,5,,,77,127
3910,note_on,0,0,0,,10,,,69,127
4025,note_off,115,0,0,,10,,,69,127
4025,note_off,0,0,0,,2,,,50,127
4025,note_on,0,0,0,,7,,,55,127
4025,note_on,0,0,0,,11,,,70,127
4140,note_on,115,0,0,,4,,,76,127
4255,note_off,115,0,0,,4,,,76,127
4255,note_off,0,0,0,,11,,,70,127
4255,note_off,0,0,0,,7,,,55,127
4255,note_on,0,0,0,,5,,,53,127
4255,note_on,0,0,0,,2,,,74,127
4370,note_off,115,0,0,,2,,,74,127
4370,note_on,0,0,0,,10,,,69,127
4485,note_off,115,0,0,,10,,,69,127
4485,note_off,0,0,0,,5,,,53,127
4485,note_on,0,0,0,,4,,,52,127
4485,note_on,0,0,0,,7,,,67,127
4600,note_on,115,0,0,,1,,,73,127
4715,note_off,115,0,0,,1,,,73,127
4715,note_off,0,0,0,,7,,,67,127
4715,note_off,0,0,0,,4,,,52,127
4715,note_on,0,0,0,,2,,,50,127
4715,note_on,0,0,0,,5,,,77,127
4830,note_on,115,0,0,,10,,,69,127
4945,note_off,115,0,0,,10,,,69,127
4945,note_off,0,0,0,,2,,,50,127
4945,note_on,0,0,0,,7,,,67,127
4945,note_on,0,0,0,,11,,,70,127
5060,note_off,115,0,0,,5,,,77,127
5060,note_on,0,0,0,,4,,,76,127
5175,note_off,115,0,0,,4,,,76,127
5175,note_off,0,0,0,,11,,,70,127
5175,note_off,0,0,0,,7,,,67,127
5175,note_on,0,0,0,,5,,,65,127
5175,note_on,0,0,0,,2,,,74,127
5290,note_on,115,0,0,,10,,,69,127
5405,note_off,115,0,0,,10,,,69,127
5405,note_off,0,0,0,,5,,,65,127
5405,note_on,0,0,0,,4,,,64,127
5405,note_on,0,0,0,,7,,,67,127
5520,note_off,115,0,0,,2,,,74,127
5520,note_on,0,0,0,,1,,,73,127
5635,note_off,115,0,0,,1,,,73,127
5635,note_off,0,0,0,,7,,,67,127
5635,note_off,0,0,0,,4,,,64,127
5635,note_on,0,0,0,,2,,,50,127
5635,note_on,0,0,0,,5,,,77,127
5750,note_off,115,0,0,,5,,,77,127
5750,note_on,0,0,0,,10,,,69,127
5865,note_off,115,0,0,,10,,,69,127
5865,note_off,0,0,0,,2,,,50,127
5865,note_on,0,0,0,,7,,,55,127
5865,note_on,0,0,0,,11,,,70,127
5980,note_on,115,0,0,,4,,,76,127
6095,note_off,115,0,0,,4,,,76,127
6095,note_off,0,0,0,,11,,,70,127
6095,note_off,0,0,0,,7,,,55,127
6095,note_on,0,0,0,,5,,,53,127
6095,note_on,0,0,0,,2,,,74,127
6210,note_off,115,0,0,,2,,,74,127
6210,note_on,0,0,0,,10,,,69,127
6325,note_off,115,0,0,,10,,,69,127
6325,note_off,0,0,0,,5,,,53,127
6325,note_on,0,0,0,,4,,,52,127
6325,note_on,0,0,0,,7,,,67,127
6440,note_on,115,0,0,,1,,,73,127
6555,note_off,115,0,0,,1,,,73,127
6555,note_off,0,0,0,,7,,,67,127
6555,note_off,0,0,0,,4,,,52,127
6555,note_on,0,0,0,,5,,,53,127
6555,note_on,0,0,0,,10,,,81,127
6670,note_on,115,0,0,,10,,,69,127
6785,note_off,115,0,0,,10,,,69,127
6785,note_off,0,0,0,,5,,,53,127
6785,note_on,0,0,0,,7,,,55,127
6785,note_on,0,0,0,,11,,,70,127
6900,note_off,115,0,0,,11,,,70,127
6900,note_off,0,0,0,,10,,,81,127
6900,note_on,0,0,0,,7,,,79,127
7015,note_off,115,0,0,,7,,,79,127
7015,note_off,0,0,0,,7,,,55,127
7015,note_on,0,0,0,,10,,,57,127
7015,note_on,0,0,0,,5,,,77,127
7130,note_on,115,0,0,,2,,,74,127
7245,note_off,115,0,0,,2,,,74,127
7245,note_on,0,0,0,,10,,,45,127
7245,note_on,0,0,0,,10,,,69,127
7360,note_off,115,0,0,,10,,,69,127
7360,note_off,0,0,0,,5,,,77,127
7360,note_on,0,0,0,,1,,,73,127
7360,note_on,0,0,0,,4,,,76,127
7470,note_off,110,0,0,,10,,,57,127
7475,note_off,5,0,0,,4,,,76,127
7475,note_off,0,0,0,,1,,,73,127
7475,note_off,0,0,0,,10,,,45,127
7475,note_on,0,0,0,,2,,,74,127
7475,note_on,0,0,0,,2,,,50,127
7475,note_on,0,0,0,,5,,,77,127
7590,note_off,115,0,0,,2,,,74,127
7590,note_on,0,0,0,,10,,,69,127
7705,note_off,115,0,0,,5,,,77,127
7705,note_off,0,0,0,,2,,,50,127
7705,note_on,0,0,0,,11,,,70,127
7705,note_on,0,0,0,,2,,,62,127
7743,note_off,38,0,0,,10,,,69,127
7820,note_on,77,0,0,,10,,,69,127
7858,note_off,38,0,0,,11,,,70,127
7920,note_off,62,0,0,,2,,,62,127
7934,note_on,14,0,0,,1,,,73,127
7934,note_on,0,0,0,,7,,,67,127
7934,note_on,0,0,0,,2,,,62,127
7972,note_off,38,0,0,,10,,,69,127
8049,note_on,77,0,0,,12,,,71,127
8087,note_off,38,0,0,,1,,,73,127
8149,note_off,62,0,0,,2,,,62,127
8149,note_off,0,0,0,,7,,,67,127
8163,note_on,14,0,0,,2,,,74,127
8163,note_on,0,0,0,,7,,,67,127
8163,note_on,0,0,0,,2,,,62,127
8201,note_off,38,0,0,,12,,,71,127
8278,note_on,77,0,0,,12,,,71,127
8316,note_off,38,0,0,,2,,,74,127
8378,note_off,62,0,0,,2,,,62,127
8378,note_off,0,0,0,,7,,,67,127
8392,note_on,14,0,0,,4,,,76,127
8392,note_on,0,0,0,,1,,,61,127
8430,note_off,38,0,0,,12,,,71,127
8507,note_on,77,0,0,,10,,,69,127
8545,note_off,38,0,0,,4,,,76,127
8607,note_off,62,0,0,,1,,,61,127
8621,note_on,14,0,0,,8,,,68,127
8621,note_on,0,0,0,,4,,,64,127
8621,note_on,0,0,0,,0,,,60,127
8659,note_off,38,0,0,,10,,,69,127
8736,note_on,77,0,0,,10,,,69,127
8774,note_off,38,0,0,,8,,,68,127
8836,note_off,62,0,0,,0,,,60,127
8836,note_off,0,0,0,,4,,,64,127
8850,note_on,14,0,0,,12,,,71,127
8850,note_on,0,0,0,,4,,,64,127
8850,note_on,0,0,0,,0,,,60,127
8888,note_off,38,0,0,,10,,,69,127
8965,note_on,77,0,0,,10,,,69,127
9003,note_off,38,0,0,,12,,,71,127
9065,note_off,62,0,0,,0,,,60,127
9065,note_off,0,0,0,,4,,,64,127
9079,note_on,14,0,0,,0,,,72,127
9079,note_on,0,0,0,,4,,,64,127
9079,note_on,0,0,0,,0,,,60,127
9117,note_off,38,0,0,,10,,,69,127
9194,note_on,77,0,0,,10,,,69,127
9232,note_off,38,0,0,,0,,,72,127
9294,note_off,62,0,0,,0,,,60,127
9294,note_off,0,0,0,,4,,,64,127
9308,note_on,14,0,0,,2,,,62,127
9308,note_on,0,0,0,,12,,,59,127
9308,note_on,0,0,0,,2,,,74,127
9346,note_off,38,0,0,,10,,,69,127
9423,note_off,77,0,0,,2,,,74,127
9423,note_on,0,0,0,,7,,,67,127
9524,note_off,101,0,0,,12,,,59,127
9524,note_off,0,0,0,,2,,,62,127
9538,note_on,14,0,0,,6,,,66,127
9538,note_on,0,0,0,,2,,,62,127
9538,note_on,0,0,0,,11,,,58,127
9576,note_off,38,0,0,,7,,,67,127
9653,note_on,77,0,0,,7,,,67,127
9691,note_off,38,0,0,,6,,,66,127
9753,note_off,62,0,0,,11,,,58,127
9753,note_off,0,0,0,,2,,,62,127
9767,note_on,14,0,0,,10,,,69,127
9767,note_on,0,0,0,,2,,,62,127
9767,note_on,0,0,0,,11,,,58,127
9805,note_off,38,0,0,,7,,,67,127
9882,note_on,77,0,0,,7,,,67,127
9920,note_off,38,0,0,,10,,,69,127
9982,note_off,62,0,0,,11,,,58,127
9982,note_off,0,0,0,,2,,,62,127
9996,note_on,14,0,0,,11,,,70,127
9996,note_on,0,0,0,,2,,,62,127
9996,note_on,0,0,0,,11,,,58,127
10034,note_off,38,0,0,,7,,,67,127
10111,note_on,77,0,0,,7,,,67,127
10149,note_off,38,0,0,,11,,,70,127
10211,note_off,62,0,0,,11,,,58,127
10211,note_off,0,0,0,,2,,,62,127
10225,note_off,14,0,0,,7,,,67,127
10225,note_on,0,0,0,,0,,,60,127
10225,note_on,0,0,0,,10,,,57,127
10225,note_on,0,0,0,,0,,,72,127
10340,note_on,115,0,0,,4,,,64,127
10455,note_off,115,0,0,,4,,,64,127
10455,note_off,0,0,0,,10,,,57,127
10455,note_off,0,0,0,,0,,,60,127
10455,note_on,0,0,0,,2,,,62,127
10455,note_on,0,0,0,,11,,,58,127
10455,note_on,0,0,0,,5,,,65,127
10570,note_off,115,0,0,,0,,,72,127
10570,note_on,0,0,0,,2,,,74,127
10685,note_off,115,0,0,,2,,,74,127
10685,note_off,0,0,0,,5,,,65,127
10685,note_off,0,0,0,,11,,,58,127
10685,note_off,0,0,0,,2,,,62,127
10685,note_on,0,0,0,,0,,,60,127
10685,note_on,0,0,0,,10,,,57,127
10685,note_on,0,0,0,,0,,,72,127
10800,note_on,115,0,0,,5,,,65,127
10915,note_off,115,0,0,,5,,,65,127
10915,note_off,0,0,0,,10,,,57,127
10915,note_off,0,0,0,,0,,,60,127
10915,note_on,0,0,0,,11,,,58,127
10915,note_on,0,0,0,,7,,,55,127
10915,note_on,0,0,0,,4,,,64,127
11030,note_off,115,0,0,,0,,,72,127
11030,note_on,0,0,0,,11,,,70,127
11145,note_off,115,0,0,,11,,,70,127
11145,note_off,0,0,0,,4,,,64,127
11145,note_off,0,0,0,,7,,,55,127
11145,note_off,0,0,0,,11,,,58,127
11145,note_on,0,0,0,,10,,,69,127
11145,note_on,0,0,0,,5,,,77,127
11260,note_off,115,0,0,,5,,,77,127
11260,note_on,0,0,0,,0,,,72,127
11375,note_off,115,0,0,,0,,,72,127
11375,note_off,0,0,0,,10,,,69,127
11375,note_on,0,0,0,,11,,,70,127
11375,note_on,0,0,0,,2,,,74,127
11490,note_on,115,0,0,,7,,,79,127
11605,note_off,115,0,0,,7,,,79,127
11605,note_off,0,0,0,,2,,,74,127
11605,note_off,0,0,0,,11,,,70,127
11605,note_on,0,0,0,,10,,,69,127
11605,note_on,0,0,0,,5,,,77,127
11720,note_off,115,0,0,,5,,,77,127
11720,note_on,0,0,0,,0,,,72,127
11835,note_off,115,0,0,,0,,,72,127
11835,note_off,0,0,0,,10,,,69,127
11835,note_on,0,0,0,,7,,,67,127
11835,note_on,0,0,0,,11,,,70,127
11950,note_on,115,0,0,,4,,,76,127
12065,note_off,115,0,0,,4,,,76,127
12065,note_off,0,0,0,,11,,,70,127
12065,note_off,0,0,0,,7,,,67,127
12065,note_on,0,0,0,,0,,,60,127
12065,note_on,0,0,0,,10,,,57,127
12065,note_on,0,0,0,,0,,,72,127
12180,note_on,115,0,0,,4,,,64,127
12295,note_off,115,0,0,,4,,,64,127
12295,note_off,0,0,0,,10,,,57,127
12295,note_off,0,0,0,,0,,,60,127
12295,note_on,0,0,0,,2,,,62,127
12295,note_on,0,0,0,,11,,,58,127
12295,note_on,0,0,0,,5,,,65,127
12410,note_off,115,0,0,,0,,,72,127
12410,note_on,0,0,0,,2,,,74,127
12525,note_off,115,0,0,,2,,,74,127
12525,note_off,0,0,0,,5,,,65,127
12525,note_off,0,0,0,,11,,,58,127
12525,note_off,0,0,0,,2,,,62,127
12525,note_on,0,0,0,,0,,,60,127
12525,note_on,0,0,0,,10,,,57,127
12525,note_on,0,0,0,,0,,,72,127
12640,note_on,115,0,0,,5,,,65,127
12755,note_off,115,0,0,,5,,,65,127
12755,note_off,0,0,0,,10,,,57,127
12755,note_off,0,0,0,,0,,,60,127
12755,note_on,0,0,0,,11,,,58,127
12755,note_on,0,0,0,,7,,,55,127
12755,note_on,0,0,0,,4,,,64,127
12870,note_off,115,0,0,,0,,,72,127
12870,note_on,0,0,0,,11,,,70,127
12985,note_off,115,0,0,,11,,,70,127
12985,note_off,0,0,0,,4,,,64,127
12985,note_off,0,0,0,,7,,,55,127
12985,note_off,0,0,0,,11,,,58,127
12985,note_on,0,0,0,,10,,,69,127
12985,note_on,0,0,0,,5,,,77,127
13100,note_off,115,0,0,,5,,,77,127
13100,note_on,0,0,0,,0,,,72,127
13215,note_off,115,0,0,,0,,,72,127
13215,note_off,0,0,0,,10,,,69,127
13215,note_on,0,0,0,,11,,,70,127
13215,note_on,0,0,0,,2,,,74,127
13330,note_off,115,0,0,,2,,,74,127
13330,note_on,0,0,0,,7,,,79,127
13445,note_off,115,0,0,,7,,,79,127
13445,note_off,0,0,0,,11,,,70,127
13445,note_on,0,0,0,,10,,,69,127
13445,note_on,0,0,0,,5,,,77,127
13560,note_off,115,0,0,,5,,,77,127
13560,note_on,0,0,0,,0,,,72,127
13675,note_off,115,0,0,,0,,,72,127
13675,note_off,0,0,0,,10,,,69,127
13675,note_on,0,0,0,,7,,,67,127
13675,note_on,0,0,0,,11,,,70,127
13790,note_off,115,0,0,,11,,,70,127
13790,note_on,0,0,0,,4,,,76,127
13905,note_off,115,0,0,,4,,,76,127
13905,note_off,0,0,0,,7,,,67,127
13905,note_on,0,0,0,,5,,,53,127
13905,note_on,0,0,0,,10,,,81,127
14020,note_on,115,0,0,,10,,,69,127
14135,note_off,115,0,0,,10,,,81,127
14135,note_off,0,0,0,,5,,,53,127
14135,note_on,0,0,0,,11,,,70,127
14135,note_on,0,0,0,,5,,,65,127
14173,note_off,38,0,0,,10,,,69,127
14250,note_on,77,0,0,,10,,,69,127
14288,note_off,38,0,0,,11,,,70,127
14365,note_off,77,0,0,,5,,,65,127
14365,note_on,0,0,0,,11,,,70,127
14365,note_on,0,0,0,,5,,,65,127
14403,note_off,38,0,0,,10,,,69,127
14480,note_on,77,0,0,,10,,,69,127
14518,note_off,38,0,0,,11,,,70,127
14595,note_off,77,0,0,,5,,,65,127
14595,note_on,0,0,0,,12,,,71,127
14595,note_on,0,0,0,,5,,,65,127
14633,note_off,38,0,0,,10,,,69,127
14710,note_on,77,0,0,,10,,,69,127
14748,note_off,38,0,0,,12,,,71,127
14824,note_on,76,0,0,,4,,,64,127
14825,note_off,1,0,0,,5,,,65,127
14825,note_on,0,0,0,,0,,,72,127
14825,note_on,0,0,0,,7,,,67,127
14863,note_off,38,0,0,,10,,,69,127
14940,note_on,77,0,0,,12,,,71,127
14978,note_off,38,0,0,,0,,,72,127
15039,note_off,61,0,0,,4,,,64,127
15040,note_off,1,0,0,,7,,,67,127
15054,note_on,14,0,0,,0,,,72,127
15054,note_on,0,0,0,,7,,,67,127
15054,note_on,0,0,0,,4,,,64,127
15092,note_off,38,0,0,,12,,,71,127
15169,note_on,77,0,0,,12,,,71,127
15207,note_off,38,0,0,,0,,,72,127
15269,note_off,62,0,0,,4,,,64,127
15269,note_off,0,0,0,,7,,,67,127
15283,note_on,14,0,0,,0,,,72,127
15283,note_on,0,0,0,,7,,,67,127
15283,note_on,0,0,0,,4,,,64,127
15321,note_off,38,0,0,,12,,,71,127
15398,note_on,77,0,0,,12,,,71,127
15436,note_off,38,0,0,,0,,,72,127
15498,note_off,62,0,0,,4,,,64,127
15498,note_off,0,0,0,,7,,,67,127
15512,note_on,14,0,0,,1,,,73,127
15512,note_on,0,0,0,,7,,,67,127
15512,note_on,0,0,0,,4,,,64,127
15550,note_off,38,0,0,,12,,,71,127
15627,note_on,77,0,0,,12,,,71,127
15665,note_off,38,0,0,,1,,,73,127
15727,note_off,62,0,0,,4,,,64,127
15727,note_off,0,0,0,,7,,,67,127
15741,note_on,14,0,0,,2,,,74,127
15741,note_on,0,0,0,,10,,,69,127
15741,note_on,0,0,0,,5,,,65,127
15779,note_off,38,0,0,,12,,,71,127
15856,note_on,77,0,0,,1,,,73,127
15894,note_off,38,0,0,,2,,,74,127
15956,note_off,62,0,0,,5,,,65,127
15956,note_off,0,0,0,,10,,,69,127
15970,note_on,14,0,0,,4,,,76,127
15970,note_on,0,0,0,,4,,,64,127
15970,note_on,0,0,0,,1,,,61,127
16008,note_off,38,0,0,,1,,,73,127
16085,note_on,77,0,0,,2,,,74,127
16123,note_off,38,0,0,,4,,,76,127
16185,note_off,62,0,0,,1,,,61,127
16185,note_off,0,0,0,,4,,,64,127
16199,note_on,14,0,0,,5,,,65,127
16199,note_on,0,0,0,,2,,,62,127
16199,note_on,0,0,0,,5,,,77,127
16237,note_off,38,0,0,,2,,,74,127
16314,note_on,77,0,0,,10,,,69,127
16429,note_off,115,0,0,,10,,,69,127
16429,note_off,0,0,0,,5,,,77,127
16429,note_off,0,0,0,,2,,,62,127
16429,note_off,0,0,0,,5,,,65,127
16429,note_on,0,0,0,,7,,,55,127
16429,note_on,0,0,0,,11,,,70,127
16429,note_on,0,0,0,,4,,,76,127
16544,note_off,115,0,0,,4,,,76,127
16544,note_on,0,0,0,,2,,,74,127
16659,note_off,115,0,0,,2,,,74,127
16659,note_off,0,0,0,,11,,,70,127
16659,note_off,0,0,0,,7,,,55,127
16659,note_on,0,0,0,,10,,,57,127
16659,note_on,0,0,0,,1,,,73,127
16774,note_off,115,0,0,,1,,,73,127
16774,note_on,0,0,0,,10,,,69,127
16889,note_on,115,0,0,,11,,,70,127
16927,note_off,38,0,0,,10,,,69,127
17004,note_on,77,0,0,,10,,,69,127
17042,note_off,38,0,0,,11,,,70,127
17119,note_off,77,0,0,,10,,,57,127
17119,note_on,0,0,0,,11,,,70,127
17119,note_on,0,0,0,,7,,,67,127
17157,note_off,38,0,0,,10,,,69,127
17234,note_on,77,0,0,,10,,,69,127
17272,note_off,38,0,0,,11,,,70,127
17349,note_off,77,0,0,,7,,,67,127
17349,note_on,0,0,0,,12,,,71,127
17349,note_on,0,0,0,,5,,,65,127
17387,note_off,38,0,0,,10,,,69,127
17464,note_on,77,0,0,,10,,,69,127
17502,note_off,38,0,0,,12,,,71,127
17579,note_off,77,0,0,,5,,,65,127
17579,note_on,0,0,0,,0,,,72,127
17579,note_on,0,0,0,,4,,,64,127
17617,note_off,38,0,0,,10,,,69,127
17694,note_on,77,0,0,,12,,,71,127
17732,note_off,38,0,0,,0,,,72,127
17809,note_off,77,0,0,,4,,,64,127
17809,note_on,0,0,0,,1,,,73,127
17809,note_on,0,0,0,,7,,,67,127
17847,note_off,38,0,0,,12,,,71,127
17924,note_on,77,0,0,,12,,,71,127
17962,note_off,38,0,0,,1,,,73,127
18039,note_off,77,0,0,,7,,,67,127
18039,note_on,0,0,0,,2,,,74,127
18039,note_on,0,0,0,,5,,,65,127
18077,note_off,38,0,0,,12,,,71,127
18154,note_on,77,0,0,,1,,,73,127
18192,note_off,38,0,0,,2,,,74,127
18269,note_off,77,0,0,,5,,,65,127
18269,note_on,0,0,0,,4,,,76,127
18269,note_on,0,0,0,,4,,,64,127
18307,note_off,38,0,0,,1,,,73,127
18384,note_on,77,0,0,,2,,,74,127
18422,note_off,38,0,0,,4,,,76,127
18499,note_off,77,0,0,,4,,,64,127
18499,note_on,0,0,0,,5,,,77,127
18499,note_on,0,0,0,,2,,,62,127
18537,note_off,38,0,0,,2,,,74,127
18614,note_on,77,0,0,,4,,,76,127
18652,note_off,38,0,0,,5,,,77,127
18729,note_off,77,0,0,,2,,,62,127
18729,note_on,0,0,0,,6,,,78,127
18729,note_on,0,0,0,,0,,,72,127
18767,note_off,38,0,0,,4,,,76,127
18844,note_on,77,0,0,,4,,,76,127
18882,note_off,38,0,0,,6,,,78,127
18959,note_off,77,0,0,,0,,,72,127
18959,note_on,0,0,0,,7,,,79,127
18959,note_on,0,0,0,,12,,,71,127
18997,note_off,38,0,0,,4,,,76,127
19074,note_on,77,0,0,,6,,,78,127
19112,note_off,38,0,0,,7,,,79,127
19189,note_off,77,0,0,,12,,,71,127
19189,note_on,0,0,0,,8,,,80,127
19189,note_on,0,0,0,,2,,,74,127
19227,note_off,38,0,0,,6,,,78,127
19304,note_on,77,0,0,,6,,,78,127
19342,note_off,38,0,0,,8,,,80,127
19419,note_off,77,0,0,,2,,,74,127
19419,note_on,0,0,0,,10,,,81,127
19419,note_on,0,0,0,,0,,,72,127
19457,note_off,38,0,0,,6,,,78,127
19534,note_on,77,0,0,,8,,,80,127
19572,note_off,38,0,0,,10,,,81,127
19649,note_off,77,0,0,,0,,,72,127
19649,note_on,0,0,0,,12,,,83,127
19649,note_on,0,0,0,,8,,,68,127
19687,note_off,38,0,0,,8,,,80,127
19764,note_on,77,0,0,,10,,,81,127
19802,note_off,38,0,0,,12,,,83,127
19879,note_off,77,0,0,,8,,,68,127
19879,note_on,0,0,0,,0,,,72,127
19879,note_on,0,0,0,,10,,,69,127
19879,note_on,0,0,0,,0,,,84,127
19917,note_off,38,0,0,,10,,,81,127
19994,note_on,77,0,0,,4,,,76,127
20109,note_off,115,0,0,,4,,,76,127
20109,note_off,0,0,0,,0,,,84,127
20109,note_off,0,0,0,,10,,,69,127
20109,note_off,0,0,0,,0,,,72,127
20109,note_on,0,0,0,,2,,,62,127
20109,note_on,0,0,0,,5,,,77,127
20109,note_on,0,0,0,,12,,,83,127
20224,note_off,115,0,0,,12,,,83,127
20224,note_on,0,0,0,,10,,,81,127
20339,note_off,115,0,0,,10,,,81,127
20339,note_off,0,0,0,,5,,,77,127
20339,note_off,0,0,0,,2,,,62,127
20339,note_on,0,0,0,,4,,,64,127
20339,note_on,0,0,0,,8,,,80,127
20454,note_off,115,0,0,,8,,,80,127
20454,note_on,0,0,0,,4,,,76,127
20569,note_on,115,0,0,,5,,,77,127
20607,note_off,38,0,0,,4,,,76,127
20684,note_on,77,0,0,,4,,,76,127
20722,note_off,38,0,0,,5,,,77,127
20799,note_off,77,0,0,,4,,,64,127
20799,note_on,0,0,0,,5,,,77,127
20799,note_on,0,0,0,,2,,,74,127
20837,note_off,38,0,0,,4,,,76,127
20914,note_on,77,0,0,,4,,,76,127
20952,note_off,38,0,0,,5,,,77,127
21029,note_off,77,0,0,,2,,,74,127
21029,note_on,0,0,0,,6,,,78,127
21029,note_on,0,0,0,,0,,,72,127
21067,note_off,38,0,0,,4,,,76,127
21144,note_on,77,0,0,,4,,,76,127
21182,note_off,38,0,0,,6,,,78,127
21259,note_off,77,0,0,,0,,,72,127
21259,note_on,0,0,0,,7,,,79,127
21259,note_on,0,0,0,,12,,,71,127
21297,note_off,38,0,0,,4,,,76,127
21374,note_on,77,0,0,,6,,,78,127
21412,note_off,38,0,0,,7,,,79,127
21489,note_off,77,0,0,,12,,,71,127
21489,note_on,0,0,0,,8,,,80,127
21489,note_on,0,0,0,,2,,,74,127
21527,note_off,38,0,0,,6,,,78,127
21604,note_on,77,0,0,,6,,,78,127
21642,note_off,38,0,0,,8,,,80,127
21719,note_off,77,0,0,,2,,,74,127
21719,note_on,0,0,0,,10,,,81,127
21719,note_on,0,0,0,,0,,,72,127
21757,note_off,38,0,0,,6,,,78,127
21834,note_on,77,0,0,,8,,,80,127
21872,note_off,38,0,0,,10,,,81,127
21949,note_off,77,0,0,,0,,,72,127
21949,note_on,0,0,0,,12,,,83,127
21949,note_on,0,0,0,,8,,,68,127
21987,note_off,38,0,0,,8,,,80,127
22064,note_on,77,0,0,,10,,,81,127
22102,note_off,38,0,0,,12,,,83,127
22179,note_off,77,0,0,,8,,,68,127
22179,note_on,0,0,0,,10,,,69,127
22179,note_on,0,0,0,,0,,,84,127
22217,note_off,38,0,0,,10,,,81,127
22294,note_on,77,0,0,,4,,,76,127
22409,note_off,115,0,0,,4,,,76,127
22409,note_off,0,0,0,,10,,,69,127
22409,note_on,0,0,0,,2,,,74,127
22409,note_on,0,0,0,,5,,,77,127
22524,note_off,115,0,0,,5,,,77,127
22524,note_off,0,0,0,,0,,,84,127
22524,note_on,0,0,0,,12,,,83,127
22639,note_off,115,0,0,,12,,,83,127
22639,note_off,0,0,0,,2,,,74,127
22639,note_on,0,0,0,,0,,,72,127
22639,note_on,0,0,0,,10,,,81,127
22754,note_on,115,0,0,,4,,,76,127
22869,note_off,115,0,0,,4,,,76,127
22869,note_off,0,0,0,,0,,,72,127
22869,note_on,0,0,0,,12,,,71,127
22869,note_on,0,0,0,,2,,,74,127
22984,note_off,115,0,0,,2,,,74,127
22984,note_off,0,0,0,,10,,,81,127
22984,note_on,0,0,0,,8,,,80,127
23099,note_off,115,0,0,,8,,,80,127
23099,note_off,0,0,0,,12,,,71,127
23099,note_on,0,0,0,,4,,,64,127
23099,note_on,0,0,0,,0,,,60,127
23099,note_on,0,0,0,,4,,,76,127
23214,note_off,115,0,0,,4,,,76,127
23214,note_on,0,0,0,,8,,,68,127
23329,note_off,115,0,0,,8,,,68,127
23329,note_off,0,0,0,,0,,,60,127
23329,note_off,0,0,0,,4,,,64,127
23329,note_on,0,0,0,,5,,,65,127
23329,note_on,0,0,0,,2,,,62,127
23329,note_on,0,0,0,,10,,,69,127
23444,note_on,115,0,0,,5,,,77,127
23559,note_off,115,0,0,,5,,,77,127
23559,note_off,0,0,0,,10,,,69,127
23559,note_off,0,0,0,,2,,,62,127
23559,note_off,0,0,0,,5,,,65,127
23559,note_on,0,0,0,,4,,,64,127
23559,note_on,0,0,0,,0,,,60,127
23559,note_on,0,0,0,,4,,,76,127
23674,note_off,115,0,0,,4,,,76,127
23674,note_on,0,0,0,,10,,,69,127
23789,note_off,115,0,0,,10,,,69,127
23789,note_off,0,0,0,,0,,,60,127
23789,note_off,0,0,0,,4,,,64,127
23789,note_on,0,0,0,,2,,,62,127
23789,note_on,0,0,0,,12,,,59,127
23789,note_on,0,0,0,,8,,,68,127
23904,note_on,115,0,0,,2,,,74,127
24019,note_off,115,0,0,,2,,,74,127
24019,note_off,0,0,0,,8,,,68,127
24019,note_off,0,0,0,,12,,,59,127
24019,note_off,0,0,0,,2,,,62,127
24019,note_on,0,0,0,,10,,,69,127
24019,note_on,0,0,0,,0,,,84,127
24134,note_on,115,0,0,,4,,,76,127
24249,note_off,115,0,0,,4,,,76,127
24249,note_off,0,0,0,,10,,,69,127
24249,note_on,0,0,0,,2,,,74,127
24249,note_on,0,0,0,,5,,,77,127
24364,note_off,115,0,0,,5,,,77,127
24364,note_off,0,0,0,,0,,,84,127
24364,note_on,0,0,0,,12,,,83,127
24479,note_off,115,0,0,,12,,,83,127
24479,note_off,0,0,0,,2,,,74,127
24479,note_on,0,0,0,,0,,,72,127
24479,note_on,0,0,0,,10,,,81,127
24594,note_on,115,0,0,,4,,,76,127
24709,note_off,115,0,0,,4,,,76,127
24709,note_off,0,0,0,,0,,,72,127
24709,note_on,0,0,0,,12,,,71,127
24709,note_on,0,0,0,,2,,,74,127
24824,note_off,115,0,0,,2,,,74,127
24824,note_off,0,0,0,,10,,,81,127
24824,note_on,0,0,0,,8,,,80,127
24939,note_off,115,0,0,,8,,,80,127
24939,note_off,0,0,0,,12,,,71,127
24939,note_on,0,0,0,,4,,,64,127
24939,note_on,0,0,0,,0,,,60,127
24939,note_on,0,0,0,,4,,,76,127
25054,note_off,115,0,0,,4,,,76,127
25054,note_on,0,0,0,,8,,,68,127
25169,note_off,115,0,0,,8,,,68,127
25169,note_off,0,0,0,,0,,,60,127
25169,note_off,0,0,0,,4,,,64,127
25169,note_on,0,0,0,,5,,,65,127
25169,note_on,0,0,0,,2,,,62,127
25169,note_on,0,0,0,,10,,,69,127
25284,note_on,115,0,0,,5,,,77,127
25399,note_off,115,0,0,,5,,,77,127
25399,note_off,0,0,0,,10,,,69,127
25399,note_off,0,0,0,,2,,,62,127
25399,note_off,0,0,0,,5,,,65,127
25399,note_on,0,0,0,,4,,,64,127
25399,note_on,0,0,0,,0,,,60,127
25399,note_on,0,0,0,,4,,,76,127
25514,note_off,115,0,0,,4,,,76,127
25514,note_on,0,0,0,,10,,,69,127
25629,note_off,115,0,0,,10,,,69,127
25629,note_off,0,0,0,,0,,,60,127
25629,note_off,0,0,0,,4,,,64,127
25629,note_on,0,0,0,,2,,,62,127
25629,note_on,0,0,0,,12,,,59,127
25629,note_on,0,0,0,,8,,,68,127
25744,note_on,115,0,0,,2,,,74,127
25859,note_off,115,0,0,,2,,,74,127
25859,note_off,0,0,0,,8,,,68,127
25859,note_off,0,0,0,,12,,,59,127
25859,note_off,0,0,0,,2,,,62,127
25859,note_on,0,0,0,,0,,,84,127
25859,note_on,0,0,0,,10,,,57,127
25859,note_on,0,0,0,,10,,,81,127
25974,note_off,115,0,0,,10,,,81,127
25974,note_on,0,0,0,,4,,,76,127
26089,note_off,115,0,0,,4,,,76,127
26089,note_off,0,0,0,,10,,,57,127
26089,note_off,0,0,0,,0,,,84,127
26089,note_on,0,0,0,,2,,,74,127
26089,note_on,0,0,0,,10,,,69,127
26089,note_on,0,0,0,,5,,,77,127
26204,note_off,115,0,0,,5,,,77,127
26204,note_on,0,0,0,,4,,,76,127
26319,note_off,115,0,0,,4,,,76,127
26319,note_off,0,0,0,,10,,,69,127
26319,note_off,0,0,0,,2,,,74,127
26319,note_on,0,0,0,,2,,,74,127
26319,note_on,0,0,0,,10,,,69,127
26319,note_on,0,0,0,,8,,,80,127
26434,note_on,115,0,0,,6,,,78,127
26472,note_off,38,0,0,,8,,,80,127
26549,note_off,77,0,0,,6,,,78,127
26549,note_off,0,0,0,,10,,,69,127
26549,note_off,0,0,0,,2,,,74,127
26549,note_on,0,0,0,,2,,,74,127
26549,note_on,0,0,0,,10,,,69,127
26549,note_on,0,0,0,,10,,,81,127
26664,note_on,115,0,0,,6,,,78,127
26702,note_off,38,0,0,,10,,,81,127
26779,note_off,77,0,0,,6,,,78,127
26779,note_off,0,0,0,,10,,,69,127
26779,note_off,0,0,0,,2,,,74,127
26779,note_on,0,0,0,,2,,,74,127
26779,note_on,0,0,0,,8,,,68,127
26779,note_on,0,0,0,,12,,,83,127
26894,note_on,115,0,0,,4,,,76,127
26932,note_off,38,0,0,,12,,,83,127
27009,note_off,77,0,0,,4,,,76,127
27009,note_off,0,0,0,,8,,,68,127
27009,note_off,0,0,0,,2,,,74,127
27009,note_on,0,0,0,,12,,,71,127
27009,note_on,0,0,0,,7,,,67,127
27009,note_on,0,0,0,,3,,,75,127
27124,note_off,115,0,0,,3,,,75,127
27124,note_on,0,0,0,,4,,,76,127
27239,note_off,115,0,0,,4,,,76,127
27239,note_off,0,0,0,,7,,,67,127
27239,note_off,0,0,0,,12,,,71,127
27239,note_on,0,0,0,,12,,,71,127
27239,note_on,0,0,0,,7,,,67,127
27239,note_on,0,0,0,,6,,,78,127
27354,note_on,115,0,0,,4,,,76,127
27392,note_off,38,0,0,,6,,,78,127
27469,note_off,77,0,0,,4,,,76,127
27469,note_off,0,0,0,,7,,,67,127
27469,note_off,0,0,0,,12,,,71,127
27469,note_on,0,0,0,,12,,,71,127
27469,note_on,0,0,0,,7,,,67,127
27469,note_on,0,0,0,,7,,,79,127
27584,note_on,115,0,0,,4,,,76,127
27622,note_off,38,0,0,,7,,,79,127
27699,note_off,77,0,0,,4,,,76,127
27699,note_off,0,0,0,,7,,,67,127
27699,note_off,0,0,0,,12,,,71,127
27699,note_on,0,0,0,,10,,,69,127
27699,note_on,0,0,0,,6,,,66,127
27699,note_on,0,0,0,,10,,,81,127
27814,note_on,115,0,0,,2,,,74,127
27852,note_off,38,0,0,,10,,,81,127
27929,note_off,77,0,0,,2,,,74,127
27929,note_off,0,0,0,,6,,,66,127
27929,note_off,0,0,0,,10,,,69,127
27929,note_on,0,0,0,,10,,,69,127
27929,note_on,0,0,0,,5,,,65,127
27929,note_on,0,0,0,,1,,,73,127
28044,note_off,115,0,0,,1,,,73,127
28044,note_on,0,0,0,,2,,,74,127
28159,note_off,115,0,0,,2,,,74,127
28159,note_off,0,0,0,,5,,,65,127
28159,note_off,0,0,0,,10,,,69,127
28159,note_on,0,0,0,,10,,,69,127
28159,note_on,0,0,0,,5,,,65,127
28159,note_on,0,0,0,,4,,,76,127
28274,note_on,115,0,0,,2,,,74,127
28312,note_off,38,0,0,,4,,,76,127
28389,note_off,77,0,0,,2,,,74,127
28389,note_off,0,0,0,,5,,,65,127
28389,note_off,0,0,0,,10,,,69,127
28389,note_on,0,0,0,,10,,,69,127
28389,note_on,0,0,0,,5,,,65,127
28389,note_on,0,0,0,,5,,,77,127
28504,note_on,115,0,0,,2,,,74,127
28542,note_off,38,0,0,,5,,,77,127
28619,note_off,77,0,0,,2,,,74,127
28619,note_off,0,0,0,,5,,,65,127
28619,note_off,0,0,0,,10,,,69,127
28619,note_on,0,0,0,,7,,,67,127
28619,note_on,0,0,0,,4,,,64,127
28619,note_on,0,0,0,,7,,,79,127
28734,note_on,115,0,0,,0,,,72,127
28792,note_off,58,0,0,,7,,,79,127
28850,note_off,58,0,0,,0,,,72,127
28850,note_off,0,0,0,,4,,,64,127
28850,note_off,0,0,0,,7,,,67,127
28850,note_on,0,0,0,,5,,,65,127
28850,note_on,0,0,0,,2,,,62,127
28850,note_on,0,0,0,,5,,,77,127
28965,note_on,115,0,0,,12,,,71,127
29023,note_off,58,0,0,,5,,,77,127
29081,note_off,58,0,0,,12,,,71,127
29081,note_off,0,0,0,,2,,,62,127
29081,note_off,0,0,0,,5,,,65,127
29081,note_on,0,0,0,,4,,,64,127
29081,note_on,0,0,0,,0,,,60,127
29081,note_on,0,0,0,,4,,,76,127
29196,note_on,115,0,0,,10,,,69,127
29254,note_off,58,0,0,,4,,,76,127
29312,note_off,58,0,0,,10,,,69,127
29312,note_off,0,0,0,,0,,,60,127
29312,note_off,0,0,0,,4,,,64,127
29312,note_on,0,0,0,,2,,,62,127
29312,note_on,0,0,0,,12,,,59,127
29312,note_on,0,0,0,,2,,,74,127
29427,note_on,115,0,0,,8,,,68,127
29485,note_off,58,0,0,,2,,,74,127
29543,note_off,58,0,0,,8,,,68,127
29543,note_off,0,0,0,,12,,,59,127
29543,note_off,0,0,0,,2,,,62,127
29543,note_on,0,0,0,,0,,,60,127
29543,note_on,0,0,0,,10,,,57,127
29543,note_on,0,0,0,,0,,,72,127
29658,note_on,115,0,0,,5,,,65,127
29716,note_off,58,0,0,,0,,,72,127
29774,note_off,58,0,0,,5,,,65,127
29774,note_off,0,0,0,,10,,,57,127
29774,note_off,0,0,0,,0,,,60,127
29774,note_on,0,0,0,,12,,,59,127
29774,note_on,0,0,0,,7,,,55,127
29774,note_on,0,0,0,,12,,,71,127
29889,note_on,115,0,0,,4,,,64,127
29947,note_off,58,0,0,,12,,,71,127
30005,note_off,58,0,0,,4,,,64,127
30005,note_off,0,0,0,,7,,,55,127
30005,note_off,0,0,0,,12,,,59,127
30005,note_on,0,0,0,,10,,,57,127
30005,note_on,0,0,0,,5,,,53,127
30005,note_on,0,0,0,,10,,,69,127
30120,note_on,115,0,0,,2,,,62,127
30178,note_off,58,0,0,,10,,,69,127
30236,note_off,58,0,0,,2,,,62,127
30236,note_off,0,0,0,,5,,,53,127
30236,note_off,0,0,0,,10,,,57,127
30236,note_on,0,0,0,,7,,,55,127
30236,note_on,0,0,0,,4,,,52,127
30236,note_on,0,0,0,,7,,,67,127
30351,note_on,115,0,0,,0,,,60,127
30409,note_off,58,0,0,,7,,,67,127
30467,note_off,58,0,0,,0,,,60,127
30467,note_off,0,0,0,,4,,,52,127
30467,note_off,0,0,0,,7,,,55,127
30467,note_on,0,0,0,,5,,,53,127
30467,note_on,0,0,0,,2,,,50,127
30467,note_on,0,0,0,,5,,,65,127
30582,note_on,115,0,0,,12,,,59,127
30640,note_off,58,0,0,,5,,,65,127
30698,note_off,58,0,0,,12,,,59,127
30698,note_off,0,0,0,,2,,,50,127
30698,note_off,0,0,0,,5,,,53,127
30698,note_on,0,0,0,,4,,,52,127
30698,note_on,0,0,0,,0,,,48,127
30698,note_on,0,0,0,,4,,,64,127
30813,note_on,115,0,0,,10,,,57,127
30871,note_off,58,0,0,,4,,,64,127
30929,note_off,58,0,0,,10,,,57,127
30929,note_off,0,0,0,,0,,,48,127
30929,note_off,0,0,0,,4,,,52,127
30929,note_on,0,0,0,,2,,,50,127
30929,note_on,0,0,0,,12,,,47,127
30929,note_on,0,0,0,,2,,,62,127
31044,note_on,115,0,0,,8,,,56,127
31102,note_off,58,0,0,,2,,,62,127
31160,note_off,58,0,0,,8,,,56,127
31160,note_off,0,0,0,,12,,,47,127
31160,note_off,0,0,0,,2,,,50,127
31160,note_on,0,0,0,,4,,,52,127
31160,note_on,0,0,0,,10,,,45,127
31160,note_on,0,0,0,,10,,,57,127
31275,note_on,115,0,0,,0,,,60,127
31390,note_off,115,0,0,,0,,,60,127
31390,note_off,0,0,0,,10,,,57,127
31390,note_off,0,0,0,,10,,,45,127
31390,note_off,0,0,0,,4,,,52,127
31390,note_on,0,0,0,,8,,,56,127
31390,note_on,0,0,0,,4,,,40,127
31390,note_on,0,0,0,,12,,,59,127
31505,note_on,115,0,0,,4,,,52,127
31563,note_off,58,0,0,,4,,,40,127
31621,note_off,58,0,0,,12,,,59,127
31621,note_off,0,0,0,,8,,,56,127
31621,note_on,0,0,0,,10,,,57,127
31621,note_on,0,0,0,,0,,,60,127
31621,note_on,0,0,0,,3,,,51,127
31679,note_off,58,0,0,,4,,,52,127
31737,note_on,58,0,0,,4,,,52,127
31795,note_off,58,0,0,,3,,,51,127
31853,note_off,58,0,0,,0,,,60,127
31853,note_off,0,0,0,,10,,,57,127
31853,note_on,0,0,0,,12,,,59,127
31853,note_on,0,0,0,,2,,,62,127
31853,note_on,0,0,0,,3,,,51,127
31911,note_off,58,0,0,,4,,,52,127
31969,note_on,58,0,0,,4,,,52,127
32027,note_off,58,0,0,,3,,,51,127
32085,note_off,58,0,0,,2,,,62,127
32085,note_off,0,0,0,,12,,,59,127
32085,note_on,0,0,0,,0,,,60,127
32085,note_on,0,0,0,,4,,,64,127
32085,note_on,0,0,0,,3,,,51,127
32143,note_off,58,0,0,,4,,,52,127
32201,note_on,58,0,0,,4,,,52,127
32259,note_off,58,0,0,,3,,,51,127
32317,note_off,58,0,0,,4,,,64,127
32317,note_off,0,0,0,,0,,,60,127
32317,note_on,0,0,0,,12,,,59,127
32317,note_on,0,0,0,,5,,,41,127
32317,note_on,0,0,0,,2,,,62,127
32375,note_off,58,0,0,,4,,,52,127
32433,note_on,58,0,0,,4,,,52,127
32491,note_off,58,0,0,,5,,,41,127
32549,note_off,58,0,0,,2,,,62,127
32549,note_off,0,0,0,,12,,,59,127
32549,note_on,0,0,0,,10,,,57,127
32549,note_on,0,0,0,,0,,,60,127
32549,note_on,0,0,0,,3,,,51,127
32607,note_off,58,0,0,,4,,,52,127
32665,note_on,58,0,0,,4,,,52,127
32723,note_off,58,0,0,,3,,,51,127
32781,note_off,58,0,0,,0,,,60,127
32781,note_off,0,0,0,,10,,,57,127
32781,note_on,0,0,0,,8,,,56,127
32781,note_on,0,0,0,,12,,,59,127
32781,note_on,0,0,0,,3,,,51,127
32839,note_off,58,0,0,,4,,,52,127
32897,note_on,58,0,0,,4,,,52,127
32955,note_off,58,0,0,,3,,,51,127
33013,note_off,58,0,0,,12,,,59,127
33013,note_off,0,0,0,,8,,,56,127
33013,note_on,0,0,0,,10,,,57,127
33013,note_on,0,0,0,,3,,,51,127
33071,note_off,58,0,0,,4,,,52,127
33129,note_on,58,0,0,,4,,,52,127
33187,note_off,58,0,0,,3,,,51,127
33245,note_off,58,0,0,,10,,,57,127
33245,note_on,0,0,0,,8,,,56,127
33245,note_on,0,0,0,,4,,,40,127
33245,note_on,0,0,0,,12,,,59,127
33303,note_off,58,0,0,,4,,,52,127
33361,note_on,58,0,0,,4,,,52,127
33419,note_off,58,0,0,,4,,,40,127
33477,note_off,58,0,0,,12,,,59,127
33477,note_off,0,0,0,,8,,,56,127
33477,note_on,0,0,0,,10,,,57,127
33477,note_on,0,0,0,,0,,,60,127
33477,note_on,0,0,0,,3,,,51,127
33535,note_off,58,0,0,,4,,,52,127
33593,note_on,58,0,0,,4,,,52,127
33651,note_off,58,0,0,,3,,,51,127
33709,note_off,58,0,0,,0,,,60,127
33709,note_off,0,0,0,,10,,,57,127
33709,note_on,0,0,0,,12,,,59,127
33709,note_on,0,0,0,,2,,,62,127
33709,note_on,0,0,0,,3,,,51,127
33767,note_off,58,0,0,,4,,,52,127
33825,note_on,58,0,0,,4,,,52,127
33883,note_off,58,0,0,,3,,,51,127
33941,note_off,58,0,0,,2,,,62,127
33941,note_off,0,0,0,,12,,,59,127
33941,note_on,0,0,0,,0,,,60,127
33941,note_on,0,0,0,,4,,,64,127
33941,note_on,0,0,0,,3,,,51,127
33999,note_off,58,0,0,,4,,,52,127
34057,note_on,58,0,0,,4,,,52,127
34115,note_off,58,0,0,,3,,,51,127
34173,note_off,58,0,0,,4,,,64,127
34173,note_off,0,0,0,,0,,,60,127
34173,note_on,0,0,0,,2,,,62,127
34173,note_on,0,0,0,,2,,,38,127
34173,note_on,0,0,0,,5,,,65,127
34231,note_off,58,0,0,,4,,,52,127
34289,note_on,58,0,0,,4,,,52,127
34347,note_off,58,0,0,,2,,,38,127
34405,note_off,58,0,0,,5,,,65,127
34405,note_off,0,0,0,,2,,,62,127
34405,note_on,0,0,0,,0,,,60,127
34405,note_on,0,0,0,,4,,,64,127
34405,note_on,0,0,0,,3,,,51,127
34463,note_off,58,0,0,,4,,,52,127
34521,note_on,58,0,0,,4,,,52,127
34579,note_off,58,0,0,,3,,,51,127
34637,note_off,58,0,0,,4,,,64,127
34637,note_off,0,0,0,,0,,,60,127
34637,note_on,0,0,0,,12,,,59,127
34637,note_on,0,0,0,,2,,,62,127
34637,note_on,0,0,0,,3,,,51,127
34695,note_off,58,0,0,,4,,,52,127
34753,note_on,58,0,0,,4,,,52,127
34811,note_off,58,0,0,,3,,,51,127
34869,note_off,58,0,0,,2,,,62,127
34869,note_off,0,0,0,,12,,,59,127
34869,note_on,0,0,0,,10,,,57,127
34869,note_on,0,0,0,,0,,,60,127
34869,note_on,0,0,0,,3,,,51,127
34927,note_off,58,0,0,,4,,,52,127
34985,note_on,58,0,0,,4,,,52,127
35043,note_off,58,0,0,,3,,,51,127
35101,note_off,58,0,0,,0,,,60,127
35101,note_off,0,0,0,,10,,,57,127
35101,note_on,0,0,0,,8,,,56,127
35101,note_on,0,0,0,,4,,,40,127
35101,note_on,0,0,0,,12,,,59,127
35159,note_off,58,0,0,,4,,,52,127
35217,note_on,58,0,0,,4,,,52,127
35275,note_off,58,0,0,,4,,,40,127
35333,note_off,58,0,0,,12,,,59,127
35333,note_off,0,0,0,,8,,,56,127
35333,note_on,0,0,0,,10,,,57,127
35333,note_on,0,0,0,,0,,,60,127
35333,note_on,0,0,0,,3,,,51,127
35391,note_off,58,0,0,,4,,,52,127
35449,note_on,58,0,0,,4,,,52,127
35507,note_off,58,0,0,,3,,,51,127
35565,note_off,58,0,0,,0,,,60,127
35565,note_off,0,0,0,,10,,,57,127
35565,note_on,0,0,0,,12,,,59,127
35565,note_on,0,0,0,,2,,,62,127
35565,note_on,0,0,0,,3,,,51,127
35623,note_off,58,0,0,,4,,,52,127
35681,note_on,58,0,0,,4,,,52,127
35739,note_off,58,0,0,,3,,,51,127
35797,note_off,58,0,0,,2,,,62,127
35797,note_off,0,0,0,,12,,,59,127
35797,note_on,0,0,0,,0,,,60,127
35797,note_on,0,0,0,,4,,,64,127
35797,note_on,0,0,0,,3,,,51,127
35855,note_off,58,0,0,,4,,,52,127
35913,note_on,58,0,0,,4,,,52,127
35971,note_off,58,0,0,,3,,,51,127
36029,note_off,58,0,0,,4,,,64,127
36029,note_off,0,0,0,,0,,,60,127
36029,note_on,0,0,0,,12,,,59,127
36029,note_on,0,0,0,,5,,,41,127
36029,note_on,0,0,0,,2,,,62,127
36087,note_off,58,0,0,,4,,,52,127
36145,note_on,58,0,0,,4,,,52,127
36203,note_off,58,0,0,,5,,,41,127
36261,note_off,58,0,0,,2,,,62,127
36261,note_off,0,0,0,,12,,,59,127
36261,note_on,0,0,0,,10,,,57,127
36261,note_on,0,0,0,,0,,,60,127
36261,note_on,0,0,0,,3,,,51,127
36319,note_off,58,0,0,,4,,,52,127
36377,note_on,58,0,0,,4,,,52,127
36435,note_off,58,0,0,,3,,,51,127
36493,note_off,58,0,0,,0,,,60,127
36493,note_off,0,0,0,,10,,,57,127
36493,note_on,0,0,0,,8,,,56,127
36493,note_on,0,0,0,,12,,,59,127
36493,note_on,0,0,0,,3,,,51,127
36551,note_off,58,0,0,,4,,,52,127
36609,note_on,58,0,0,,4,,,52,127
36667,note_off,58,0,0,,3,,,51,127
36725,note_off,58,0,0,,12,,,59,127
36725,note_off,0,0,0,,8,,,56,127
36725,note_on,0,0,0,,10,,,57,127
36725,note_on,0,0,0,,3,,,51,127
36783,note_off,58,0,0,,4,,,52,127
36841,note_on,58,0,0,,4,,,52,127
36899,note_off,58,0,0,,3,,,51,127
36957,note_off,58,0,0,,10,,,57,127
36957,note_on,0,0,0,,8,,,56,127
36957,note_on,0,0,0,,4,,,40,127
36957,note_on,0,0,0,,12,,,59,127
37015,note_off,58,0,0,,4,,,52,127
37073,note_off,58,0,0,,12,,,59,127
37073,note_off,0,0,0,,8,,,56,127
37073,note_on,0,0,0,,4,,,52,127
37188,note_on,115,0,0,,5,,,53,127
37226,note_off,38,0,0,,4,,,52,127
37303,note_on,77,0,0,,4,,,52,127
37341,note_off,38,0,0,,5,,,53,127
37418,note_off,77,0,0,,4,,,40,127
37418,note_on,0,0,0,,5,,,53,127
37418,note_on,0,0,0,,2,,,50,127
37456,note_off,38,0,0,,4,,,52,127
37533,note_on,77,0,0,,4,,,52,127
37571,note_off,38,0,0,,5,,,53,127
37648,note_off,77,0,0,,2,,,50,127
37648,note_on,0,0,0,,6,,,54,127
37648,note_on,0,0,0,,0,,,48,127
37686,note_off,38,0,0,,4,,,52,127
37763,note_on,77,0,0,,4,,,52,127
37801,note_off,38,0,0,,6,,,54,127
37878,note_off,77,0,0,,0,,,48,127
37878,note_on,0,0,0,,7,,,55,127
37878,note_on,0,0,0,,12,,,47,127
37916,note_off,38,0,0,,4,,,52,127
37993,note_on,77,0,0,,6,,,54,127
38031,note_off,38,0,0,,7,,,55,127
38108,note_off,77,0,0,,12,,,47,127
38108,note_on,0,0,0,,8,,,56,127
38108,note_on,0,0,0,,2,,,50,127
38146,note_off,38,0,0,,6,,,54,127
38223,note_on,77,0,0,,6,,,54,127
38261,note_off,38,0,0,,8,,,56,127
38338,note_off,77,0,0,,2,,,50,127
38338,note_on,0,0,0,,10,,,57,127
38338,note_on,0,0,0,,0,,,48,127
38376,note_off,38,0,0,,6,,,54,127
38453,note_on,77,0,0,,8,,,56,127
38491,note_off,38,0,0,,10,,,57,127
38568,note_off,77,0,0,,0,,,48,127
38568,note_on,0,0,0,,12,,,59,127
38568,note_on,0,0,0,,12,,,47,127
38606,note_off,38,0,0,,8,,,56,127
38683,note_on,77,0,0,,10,,,57,127
38721,note_off,38,0,0,,12,,,59,127
38798,note_off,77,0,0,,12,,,47,127
38798,note_on,0,0,0,,0,,,60,127
38798,note_on,0,0,0,,10,,,45,127
38836,note_off,38,0,0,,10,,,57,127
38913,note_on,77,0,0,,12,,,59,127
38951,note_off,38,0,0,,0,,,60,127
39028,note_off,77,0,0,,10,,,45,127
39028,note_on,0,0,0,,1,,,61,127
39028,note_on,0,0,0,,7,,,55,127
39066,note_off,38,0,0,,12,,,59,127
39143,note_on,77,0,0,,12,,,59,127
39181,note_off,38,0,0,,1,,,61,127
39258,note_off,77,0,0,,7,,,55,127
39258,note_on,0,0,0,,2,,,62,127
39258,note_on,0,0,0,,5,,,53,127
39296,note_off,38,0,0,,12,,,59,127
39373,note_on,77,0,0,,1,,,61,127
39411,note_off,38,0,0,,2,,,62,127
39488,note_off,77,0,0,,5,,,53,127
39488,note_on,0,0,0,,4,,,64,127
39488,note_on,0,0,0,,4,,,52,127
39526,note_off,38,0,0,,1,,,61,127
39603,note_on,77,0,0,,2,,,62,127
39641,note_off,38,0,0,,4,,,64,127
39718,note_off,77,0,0,,4,,,52,127
39718,note_on,0,0,0,,5,,,65,127
39718,note_on,0,0,0,,2,,,50,127
39756,note_off,38,0,0,,2,,,62,127
39833,note_on,77,0,0,,4,,,64,127
39871,note_off,38,0,0,,5,,,65,127
39948,note_off,77,0,0,,2,,,50,127
39948,note_on,0,0,0,,6,,,66,127
39948,note_on,0,0,0,,0,,,60,127
39986,note_off,38,0,0,,4,,,64,127
40063,note_on,77,0,0,,4,,,64,127
40101,note_off,38,0,0,,6,,,66,127
40178,note_off,77,0,0,,0,,,60,127
40178,note_on,0,0,0,,8,,,68,127
40178,note_on,0,0,0,,12,,,59,127
40216,note_off,38,0,0,,4,,,64,127
40293,note_on,77,0,0,,6,,,66,127
40331,note_off,38,0,0,,8,,,68,127
40408,note_off,77,0,0,,12,,,59,127
40408,note_on,0,0,0,,10,,,69,127
40408,note_on,0,0,0,,10,,,57,127
40446,note_off,38,0,0,,6,,,66,127
40523,note_on,77,0,0,,8,,,68,127
40561,note_off,38,0,0,,10,,,69,127
40638,note_off,77,0,0,,10,,,57,127
40638,note_on,0,0,0,,12,,,71,127
40638,note_on,0,0,0,,8,,,56,127
40676,note_off,38,0,0,,8,,,68,127
40753,note_on,77,0,0,,10,,,69,127
40791,note_off,38,0,0,,12,,,71,127
40868,note_off,77,0,0,,8,,,56,127
40868,note_on,0,0,0,,0,,,72,127
40868,note_on,0,0,0,,10,,,57,127
40906,note_off,38,0,0,,10,,,69,127
40983,note_on,77,0,0,,12,,,71,127
41021,note_off,38,0,0,,0,,,72,127
41098,note_off,77,0,0,,10,,,57,127
41098,note_on,0,0,0,,2,,,74,127
41098,note_on,0,0,0,,5,,,53,127
41136,note_off,38,0,0,,12,,,71,127
41213,note_on,77,0,0,,0,,,72,127
41251,note_off,38,0,0,,2,,,74,127
41328,note_off,77,0,0,,5,,,53,127
41328,note_on,0,0,0,,4,,,76,127
41328,note_on,0,0,0,,4,,,52,127
41366,note_off,38,0,0,,0,,,72,127
41443,note_on,77,0,0,,2,,,74,127
41481,note_off,38,0,0,,4,,,76,127
41558,note_off,77,0,0,,4,,,52,127
41558,note_on,0,0,0,,5,,,77,127
41558,note_on,0,0,0,,2,,,50,127
41596,note_off,38,0,0,,2,,,74,127
41673,note_on,77,0,0,,2,,,74,127
41711,note_off,38,0,0,,5,,,77,127
41788,note_on,77,0,0,,4,,,76,127
41788,note_on,0,0,0,,2,,,62,127
41826,note_off,38,0,0,,2,,,74,127
41903,note_on,77,0,0,,0,,,72,127
41941,note_off,38,0,0,,4,,,76,127
42013,note_off,72,0,0,,2,,,50,127
42018,note_on,5,0,0,,2,,,74,127
42056,note_off,38,0,0,,0,,,72,127
42133,note_on,77,0,0,,12,,,71,127
42171,note_off,38,0,0,,2,,,74,127
42248,note_off,77,0,0,,2,,,62,127
42248,note_on,0,0,0,,0,,,72,127
42248,note_on,0,0,0,,4,,,64,127
42286,note_off,38,0,0,,12,,,71,127
42363,note_on,77,0,0,,8,,,68,127
42401,note_off,38,0,0,,0,,,72,127
42478,note_off,77,0,0,,4,,,64,127
42478,note_on,0,0,0,,5,,,65,127
42478,note_on,0,0,0,,10,,,69,127
42516,note_off,38,0,0,,8,,,68,127
42593,note_off,77,0,0,,10,,,69,127
42593,note_on,0,0,0,,2,,,74,127
42708,note_off,115,0,0,,2,,,74,127
42708,note_off,0,0,0,,5,,,65,127
42708,note_on,0,0,0,,2,,,62,127
42708,note_on,0,0,0,,0,,,72,127
42766,note_off,58,0,0,,0,,,72,127
42766,note_on,0,0,0,,2,,,74,127
42824,note_off,58,0,0,,2,,,74,127
42824,note_on,0,0,0,,0,,,72,127
42882,note_off,58,0,0,,0,,,72,127
42882,note_on,0,0,0,,12,,,71,127
42940,note_off,58,0,0,,12,,,71,127
42940,note_off,0,0,0,,2,,,62,127
42940,note_on,0,0,0,,4,,,64,127
42940,note_on,0,0,0,,0,,,72,127
43055,note_off,115,0,0,,0,,,72,127
43055,note_on,0,0,0,,2,,,74,127
43170,note_off,115,0,0,,2,,,74,127
43170,note_off,0,0,0,,4,,,64,127
43170,note_on,0,0,0,,4,,,52,127
43170,note_on,0,0,0,,4,,,76,127
43285,note_off,115,0,0,,4,,,76,127
43285,note_on,0,0,0,,8,,,68,127
43400,note_off,115,0,0,,8,,,68,127
43400,note_off,0,0,0,,4,,,52,127
43400,note_on,0,0,0,,5,,,53,127
43400,note_on,0,0,0,,10,,,69,127
43515,note_off,115,0,0,,10,,,69,127
43515,note_on,0,0,0,,2,,,74,127
43630,note_off,115,0,0,,2,,,74,127
43630,note_off,0,0,0,,5,,,53,127
43630,note_on,0,0,0,,2,,,50,127
43630,note_on,0,0,0,,0,,,72,127
43688,note_off,58,0,0,,0,,,72,127
43688,note_on,0,0,0,,2,,,74,127
43746,note_off,58,0,0,,2,,,74,127
43746,note_on,0,0,0,,0,,,72,127
43804,note_off,58,0,0,,0,,,72,127
43804,note_on,0,0,0,,12,,,71,127
43862,note_off,58,0,0,,12,,,71,127
43862,note_off,0,0,0,,2,,,50,127
43862,note_on,0,0,0,,4,,,52,127
43862,note_on,0,0,0,,0,,,72,127
43977,note_off,115,0,0,,0,,,72,127
43977,note_on,0,0,0,,2,,,74,127
44092,note_off,115,0,0,,2,,,74,127
44092,note_on,0,0,0,,4,,,64,127
44092,note_on,0,0,0,,4,,,76,127
44207,note_off,115,0,0,,4,,,76,127
44207,note_off,0,0,0,,4,,,52,127
44207,note_on,0,0,0,,8,,,68,127
44322,note_off,115,0,0,,8,,,68,127
44322,note_off,0,0,0,,4,,,64,127
44322,note_on,0,0,0,,5,,,65,127
44322,note_on,0,0,0,,10,,,69,127
44437,note_off,115,0,0,,10,,,69,127
44437,note_on,0,0,0,,2,,,74,127
44552,note_off,115,0,0,,2,,,74,127
44552,note_off,0,0,0,,5,,,65,127
44552,note_on,0,0,0,,2,,,62,127
44552,note_on,0,0,0,,0,,,72,127
44610,note_off,58,0,0,,0,,,72,127
44610,note_on,0,0,0,,2,,,74,127
44668,note_off,58,0,0,,2,,,74,127
44668,note_on,0,0,0,,0,,,72,127
44726,note_off,58,0,0,,0,,,72,127
44726,note_on,0,0,0,,12,,,71,127
44784,note_off,58,0,0,,12,,,71,127
44784,note_off,0,0,0,,2,,,62,127
44784,note_on,0,0,0,,4,,,64,127
44784,note_on,0,0,0,,0,,,72,127
44899,note_off,115,0,0,,0,,,72,127
44899,note_on,0,0,0,,10,,,81,127
45014,note_on,115,0,0,,4,,,52,127
45014,note_on,0,0,0,,12,,,71,127
45072,note_off,58,0,0,,10,,,81,127
45130,note_off,58,0,0,,12,,,71,127
45130,note_off,0,0,0,,4,,,64,127
45130,note_on,0,0,0,,8,,,80,127
45245,note_off,115,0,0,,8,,,80,127
45245,note_off,0,0,0,,4,,,52,127
45245,note_on,0,0,0,,10,,,45,127
45245,note_on,0,0,0,,10,,,81,127
45360,note_on,115,0,0,,4,,,76,127
45398,note_off,38,0,0,,10,,,81,127
45475,note_on,77,0,0,,5,,,77,127
45513,note_off,38,0,0,,4,,,76,127
45590,note_on,77,0,0,,2,,,74,127
45628,note_off,38,0,0,,5,,,77,127
45705,note_on,77,0,0,,4,,,76,127
45743,note_off,38,0,0,,2,,,74,127
45820,note_on,77,0,0,,1,,,73,127
45858,note_off,38,0,0,,4,,,76,127
45935,note_on,77,0,0,,2,,,74,127
45973,note_off,38,0,0,,1,,,73,127
46050,note_on,77,0,0,,12,,,71,127
46088,note_off,38,0,0,,2,,,74,127
46160,note_off,72,0,0,,12,,,71,127
46165,note_off,5,0,0,,10,,,45,127
46165,note_on,0,0,0,,1,,,73,127
46165,note_on,0,0,0,,10,,,45,127
46165,note_on,0,0,0,,4,,,76,127
46280,note_off,115,0,0,,1,,,73,127
46280,note_on,0,0,0,,10,,,69,127
46338,note_off,58,0,0,,4,,,76,127
46396,note_on,58,0,0,,12,,,71,127
46396,note_on,0,0,0,,2,,,74,127
46434,note_off,38,0,0,,10,,,69,127
46511,note_off,77,0,0,,12,,,71,127
46511,note_on,0,0,0,,8,,,68,127
46569,note_off,58,0,0,,2,,,74,127
46627,note_off,58,0,0,,10,,,45,127
46627,note_on,0,0,0,,10,,,69,127
46627,note_on,0,0,0,,10,,,45,127
46627,note_on,0,0,0,,1,,,73,127
46665,note_off,38,0,0,,8,,,68,127
46742,note_off,77,0,0,,10,,,69,127
46742,note_on,0,0,0,,4,,,64,127
46800,note_off,58,0,0,,1,,,73,127
46858,note_on,58,0,0,,8,,,68,127
46858,note_on,0,0,0,,12,,,71,127
46896,note_off,38,0,0,,4,,,64,127
46973,note_off,77,0,0,,8,,,68,127
46973,note_on,0,0,0,,2,,,62,127
47031,note_off,58,0,0,,12,,,71,127
47089,note_off,58,0,0,,10,,,45,127
47089,note_on,0,0,0,,10,,,45,127
47089,note_on,0,0,0,,10,,,69,127
47127,note_off,38,0,0,,2,,,62,127
47204,note_on,77,0,0,,4,,,64,127
47319,note_off,115,0,0,,4,,,64,127
47319,note_off,0,0,0,,10,,,69,127
47319,note_on,0,0,0,,1,,,61,127
47434,note_off,115,0,0,,1,,,61,127
47434,note_on,0,0,0,,4,,,64,127
47549,note_off,115,0,0,,4,,,64,127
47549,note_on,0,0,0,,10,,,57,127
47664,note_off,115,0,0,,10,,,45,127
47664,note_on,0,0,0,,1,,,49,127
47779,note_off,115,0,0,,1,,,49,127
47779,note_on,0,0,0,,4,,,52,127
47894,note_off,115,0,0,,4,,,52,127
47894,note_off,0,0,0,,10,,,57,127
47894,note_on,0,0,0,,10,,,57,127
48009,note_on,115,0,0,,10,,,45,127
48124,note_off,115,0,0,,10,,,57,127
48124,note_on,0,0,0,,10,,,69,127
48239,note_off,115,0,0,,10,,,69,127
48239,note_on,0,0,0,,11,,,70,127
48354,note_off,115,0,0,,11,,,70,127
48354,note_on,0,0,0,,10,,,69,127
48469,note_off,115,0,0,,10,,,69,127
48469,note_on,0,0,0,,4,,,76,127
48584,note_off,115,0,0,,4,,,76,127
48584,note_on,0,0,0,,1,,,73,127
48699,note_off,115,0,0,,1,,,73,127
48699,note_on,0,0,0,,2,,,74,127
48814,note_off,115,0,0,,2,,,74,127
48814,note_on,0,0,0,,12,,,71,127
48929,note_off,115,0,0,,12,,,71,127
48929,note_off,0,0,0,,10,,,45,127
48929,note_on,0,0,0,,10,,,45,127
48929,note_on,0,0,0,,1,,,73,127
49044,note_on,115,0,0,,10,,,69,127
49102,note_off,58,0,0,,1,,,73,127
49160,note_off,58,0,0,,10,,,69,127
49160,note_on,0,0,0,,11,,,70,127
49275,note_off,115,0,0,,11,,,70,127
49275,note_on,0,0,0,,10,,,69,127
49390,note_off,115,0,0,,10,,,69,127
49390,note_on,0,0,0,,7,,,79,127
49505,note_off,115,0,0,,7,,,79,127
49505,note_on,0,0,0,,4,,,76,127
49620,note_off,115,0,0,,4,,,76,127
49620,note_on,0,0,0,,5,,,77,127
49735,note_off,115,0,0,,5,,,77,127
49735,note_on,0,0,0,,2,,,74,127
49850,note_off,115,0,0,,2,,,74,127
49850,note_off,0,0,0,,10,,,45,127
49850,note_on,0,0,0,,10,,,45,127
49850,note_on,0,0,0,,4,,,76,127
49965,note_on,115,0,0,,10,,,69,127
50023,note_off,58,0,0,,4,,,76,127
50081,note_off,58,0,0,,10,,,69,127
50081,note_on,0,0,0,,11,,,70,127
50196,note_off,115,0,0,,11,,,70,127
50196,note_on,0,0,0,,10,,,69,127
50311,note_off,115,0,0,,10,,,69,127
50311,note_on,0,0,0,,11,,,82,127
50426,note_on,115,0,0,,7,,,79,127
50464,note_off,38,0,0,,11,,,82,127
50541,note_off,77,0,0,,10,,,45,127
50541,note_on,0,0,0,,10,,,69,127
50541,note_on,0,0,0,,10,,,81,127
50579,note_off,38,0,0,,7,,,79,127
50656,note_on,77,0,0,,5,,,77,127
50694,note_off,38,0,0,,10,,,81,127
50771,note_off,77,0,0,,10,,,69,127
50771,note_on,0,0,0,,11,,,70,127
50771,note_on,0,0,0,,7,,,79,127
50809,note_off,38,0,0,,5,,,77,127
50886,note_on,77,0,0,,4,,,76,127
50924,note_off,38,0,0,,7,,,79,127
51001,note_off,77,0,0,,11,,,70,127
51001,note_on,0,0,0,,10,,,69,127
51001,note_on,0,0,0,,5,,,77,127
51039,note_off,38,0,0,,4,,,76,127
51116,note_on,77,0,0,,2,,,74,127
51154,note_off,38,0,0,,5,,,77,127
51231,note_off,77,0,0,,10,,,69,127
51231,note_on,0,0,0,,7,,,67,127
51231,note_on,0,0,0,,4,,,76,127
51269,note_off,38,0,0,,2,,,74,127
51346,note_on,77,0,0,,1,,,73,127
51384,note_off,38,0,0,,4,,,76,127
51461,note_off,77,0,0,,7,,,67,127
51461,note_on,0,0,0,,5,,,65,127
51461,note_on,0,0,0,,2,,,74,127
51499,note_off,38,0,0,,1,,,73,127
51576,note_on,77,0,0,,12,,,71,127
51614,note_off,38,0,0,,2,,,74,127
51691,note_off,77,0,0,,5,,,65,127
51691,note_on,0,0,0,,7,,,67,127
51691,note_on,0,0,0,,4,,,64,127
51691,note_on,0,0,0,,1,,,73,127
51729,note_off,38,0,0,,12,,,71,127
51806,note_on,77,0,0,,10,,,69,127
51844,note_off,38,0,0,,1,,,73,127
51921,note_off,77,0,0,,4,,,64,127
51921,note_off,0,0,0,,7,,,67,127
51921,note_on,0,0,0,,7,,,67,127
51921,note_on,0,0,0,,2,,,62,127
51921,note_on,0,0,0,,11,,,70,127
51959,note_off,38,0,0,,10,,,69,127
52036,note_off,77,0,0,,7,,,67,127
52036,note_on,0,0,0,,7,,,67,127
52074,note_off,38,0,0,,11,,,70,127
52151,note_off,77,0,0,,2,,,62,127
52151,note_on,0,0,0,,1,,,61,127
52151,note_on,0,0,0,,10,,,69,127
52189,note_off,38,0,0,,7,,,67,127
52266,note_on,77,0,0,,5,,,65,127
52304,note_off,38,0,0,,10,,,69,127
52381,note_off,77,0,0,,1,,,61,127
52381,note_on,0,0,0,,10,,,57,127
52381,note_on,0,0,0,,7,,,67,127
52419,note_off,38,0,0,,5,,,65,127
52496,note_on,77,0,0,,4,,,64,127
52534,note_off,38,0,0,,7,,,67,127
52611,note_off,77,0,0,,10,,,57,127
52611,note_on,0,0,0,,2,,,50,127
52611,note_on,0,0,0,,5,,,65,127
52649,note_off,38,0,0,,4,,,64,127
52726,note_off,77,0,0,,5,,,65,127
52726,note_on,0,0,0,,2,,,62,127
52841,note_on,115,0,0,,3,,,63,127
52879,note_off,38,0,0,,2,,,62,127
52956,note_on,77,0,0,,2,,,62,127
52994,note_off,38,0,0,,3,,,63,127
53071,note_on,77,0,0,,3,,,63,127
53109,note_off,38,0,0,,2,,,62,127
53186,note_on,77,0,0,,2,,,62,127
53224,note_off,38,0,0,,3,,,63,127
53300,note_off,76,0,0,,2,,,50,127
53301,note_on,1,0,0,,4,,,64,127
53339,note_off,38,0,0,,2,,,62,127
53416,note_on,77,0,0,,2,,,62,127
53454,note_off,38,0,0,,4,,,64,127
53531,note_on,77,0,0,,6,,,66,127
53531,note_on,0,0,0,,0,,,60,127
53569,note_off,38,0,0,,2,,,62,127
53646,note_on,77,0,0,,2,,,62,127
53684,note_off,38,0,0,,6,,,66,127
53761,note_off,77,0,0,,0,,,60,127
53761,note_on,0,0,0,,4,,,64,127
53761,note_on,0,0,0,,0,,,60,127
53799,note_off,38,0,0,,2,,,62,127
53876,note_on,77,0,0,,2,,,62,127
53914,note_off,38,0,0,,4,,,64,127
53991,note_off,77,0,0,,0,,,60,127
53991,note_on,0,0,0,,6,,,66,127
53991,note_on,0,0,0,,0,,,60,127
54029,note_off,38,0,0,,2,,,62,127
54106,note_on,77,0,0,,2,,,62,127
54144,note_off,38,0,0,,6,,,66,127
54221,note_off,77,0,0,,0,,,60,127
54221,note_on,0,0,0,,10,,,69,127
54221,note_on,0,0,0,,0,,,60,127
54259,note_off,38,0,0,,2,,,62,127
54336,note_on,77,0,0,,6,,,66,127
54374,note_off,38,0,0,,10,,,69,127
54451,note_off,77,0,0,,6,,,66,127
54451,note_off,0,0,0,,0,,,60,127
54451,note_on,0,0,0,,11,,,58,127
54451,note_on,0,0,0,,2,,,62,127
54451,note_on,0,0,0,,2,,,74,127
54566,note_on,115,0,0,,6,,,66,127
54681,note_off,115,0,0,,6,,,66,127
54681,note_off,0,0,0,,2,,,62,127
54681,note_off,0,0,0,,11,,,58,127
54681,note_on,0,0,0,,3,,,63,127
54681,note_on,0,0,0,,0,,,60,127
54681,note_on,0,0,0,,7,,,67,127
54796,note_off,115,0,0,,2,,,74,127
54796,note_on,0,0,0,,3,,,75,127
54911,note_off,115,0,0,,3,,,75,127
54911,note_off,0,0,0,,7,,,67,127
54911,note_off,0,0,0,,0,,,60,127
54911,note_off,0,0,0,,3,,,63,127
54911,note_on,0,0,0,,2,,,62,127
54911,note_on,0,0,0,,11,,,58,127
54911,note_on,0,0,0,,2,,,74,127
55026,note_on,115,0,0,,7,,,67,127
55141,note_off,115,0,0,,7,,,67,127
55141,note_off,0,0,0,,11,,,58,127
55141,note_off,0,0,0,,2,,,62,127
55141,note_on,0,0,0,,10,,,57,127
55141,note_on,0,0,0,,0,,,60,127
55141,note_on,0,0,0,,6,,,66,127
55256,note_off,115,0,0,,2,,,74,127
55256,note_on,0,0,0,,0,,,72,127
55371,note_off,115,0,0,,0,,,72,127
55371,note_off,0,0,0,,6,,,66,127
55371,note_off,0,0,0,,0,,,60,127
55371,note_off,0,0,0,,10,,,57,127
55371,note_on,0,0,0,,11,,,70,127
55371,note_on,0,0,0,,7,,,79,127
55486,note_off,115,0,0,,7,,,79,127
55486,note_on,0,0,0,,2,,,74,127
55601,note_off,115,0,0,,2,,,74,127
55601,note_off,0,0,0,,11,,,70,127
55601,note_on,0,0,0,,0,,,72,127
55601,note_on,0,0,0,,3,,,75,127
55716,note_off,115,0,0,,3,,,75,127
55716,note_on,0,0,0,,10,,,81,127
55831,note_off,115,0,0,,10,,,81,127
55831,note_off,0,0,0,,0,,,72,127
55831,note_on,0,0,0,,11,,,70,127
55831,note_on,0,0,0,,7,,,79,127
55946,note_off,115,0,0,,7,,,79,127
55946,note_on,0,0,0,,2,,,74,127
56061,note_off,115,0,0,,2,,,74,127
56061,note_off,0,0,0,,11,,,70,127
56061,note_on,0,0,0,,10,,,69,127
56061,note_on,0,0,0,,0,,,72,127
56176,note_off,115,0,0,,0,,,72,127
56176,note_on,0,0,0,,6,,,78,127
56291,note_off,115,0,0,,6,,,78,127
56291,note_off,0,0,0,,10,,,69,127
56291,note_on,0,0,0,,11,,,58,127
56291,note_on,0,0,0,,2,,,62,127
56291,note_on,0,0,0,,2,,,74,127
56406,note_on,115,0,0,,6,,,66,127
56521,note_off,115,0,0,,6,,,66,127
56521,note_off,0,0,0,,2,,,62,127
56521,note_off,0,0,0,,11,,,58,127
56521,note_on,0,0,0,,3,,,63,127
56521,note_on,0,0,0,,0,,,60,127
56521,note_on,0,0,0,,7,,,67,127
56636,note_off,115,0,0,,2,,,74,127
56636,note_on,0,0,0,,3,,,75,127
56751,note_off,115,0,0,,3,,,75,127
56751,note_off,0,0,0,,7,,,67,127
56751,note_off,0,0,0,,0,,,60,127
56751,note_off,0,0,0,,3,,,63,127
56751,note_on,0,0,0,,2,,,62,127
56751,note_on,0,0,0,,11,,,58,127
56751,note_on,0,0,0,,2,,,74,127
56866,note_on,115,0,0,,7,,,67,127
56981,note_off,115,0,0,,7,,,67,127
56981,note_off,0,0,0,,11,,,58,127
56981,note_off,0,0,0,,2,,,62,127
56981,note_on,0,0,0,,0,,,60,127
56981,note_on,0,0,0,,10,,,57,127
56981,note_on,0,0,0,,6,,,66,127
57096,note_off,115,0,0,,2,,,74,127
57096,note_on,0,0,0,,0,,,72,127
57211,note_off,115,0,0,,0,,,72,127
57211,note_off,0,0,0,,6,,,66,127
57211,note_off,0,0,0,,10,,,57,127
57211,note_off,0,0,0,,0,,,60,127
57211,note_on,0,0,0,,11,,,70,127
57211,note_on,0,0,0,,7,,,79,127
57321,note_off,110,0,0,,7,,,79,127
57326,note_on,5,0,0,,2,,,74,127
57441,note_off,115,0,0,,2,,,74,127
57441,note_off,0,0,0,,11,,,70,127
57441,note_on,0,0,0,,0,,,72,127
57441,note_on,0,0,0,,3,,,75,127
57556,note_off,115,0,0,,3,,,75,127
57556,note_on,0,0,0,,10,,,81,127
57671,note_off,115,0,0,,10,,,81,127
57671,note_off,0,0,0,,0,,,72,127
57671,note_on,0,0,0,,11,,,70,127
57671,note_on,0,0,0,,7,,,79,127
57781,note_off,110,0,0,,7,,,79,127
57786,note_on,5,0,0,,2,,,74,127
57901,note_off,115,0,0,,2,,,74,127
57901,note_off,0,0,0,,11,,,70,127
57901,note_on,0,0,0,,10,,,69,127
57901,note_on,0,0,0,,0,,,72,127
58016,note_off,115,0,0,,0,,,72,127
58016,note_on,0,0,0,,6,,,78,127
58131,note_off,115,0,0,,6,,,78,127
58131,note_off,0,0,0,,10,,,69,127
58131,note_on,0,0,0,,7,,,67,127
58131,note_on,0,0,0,,11,,,82,127
58246,note_off,115,0,0,,11,,,82,127
58246,note_on,0,0,0,,7,,,79,127
58361,note_off,115,0,0,,7,,,79,127
58361,note_off,0,0,0,,7,,,67,127
58361,note_on,0,0,0,,7,,,67,127
58361,note_on,0,0,0,,10,,,81,127
58476,note_off,115,0,0,,10,,,81,127
58476,note_on,0,0,0,,5,,,77,127
58591,note_off,115,0,0,,5,,,77,127
58591,note_off,0,0,0,,7,,,67,127
58591,note_on,0,0,0,,7,,,67,127
58591,note_on,0,0,0,,7,,,79,127
58706,note_off,115,0,0,,7,,,79,127
58706,note_on,0,0,0,,4,,,76,127
58821,note_off,115,0,0,,4,,,76,127
58821,note_off,0,0,0,,7,,,67,127
58821,note_on,0,0,0,,7,,,67,127
58821,note_on,0,0,0,,5,,,77,127
58936,note_off,115,0,0,,5,,,77,127
58936,note_on,0,0,0,,2,,,74,127
59051,note_off,115,0,0,,2,,,74,127
59051,note_off,0,0,0,,7,,,67,127
59051,note_on,0,0,0,,7,,,67,127
59051,note_on,0,0,0,,10,,,57,127
59051,note_on,0,0,0,,4,,,76,127
59166,note_off,115,0,0,,4,,,76,127
59166,note_on,0,0,0,,1,,,73,127
59281,note_off,115,0,0,,1,,,73,127
59281,note_off,0,0,0,,10,,,57,127
59281,note_off,0,0,0,,7,,,67,127
59281,note_on,0,0,0,,7,,,67,127
59281,note_on,0,0,0,,10,,,57,127
59281,note_on,0,0,0,,2,,,74,127
59396,note_off,115,0,0,,2,,,74,127
59396,note_on,0,0,0,,12,,,71,127
59511,note_off,115,0,0,,12,,,71,127
59511,note_off,0,0,0,,10,,,57,127
59511,note_off,0,0,0,,7,,,67,127
59511,note_on,0,0,0,,7,,,67,127
59511,note_on,0,0,0,,10,,,57,127
59511,note_on,0,0,0,,1,,,73,127
59626,note_off,115,0,0,,1,,,73,127
59626,note_on,0,0,0,,10,,,69,127
59741,note_off,115,0,0,,10,,,69,127
59741,note_off,0,0,0,,10,,,57,127
59741,note_off,0,0,0,,7,,,67,127
59741,note_on,0,0,0,,10,,,57,127
59741,note_on,0,0,0,,7,,,67,127
59741,note_on,0,0,0,,11,,,70,127
59856,note_off,115,0,0,,11,,,70,127
59856,note_off,0,0,0,,7,,,67,127
59856,note_on,0,0,0,,7,,,67,127
59971,note_off,115,0,0,,7,,,67,127
59971,note_off,0,0,0,,10,,,57,127
59971,note_on,0,0,0,,5,,,65,127
59971,note_on,0,0,0,,10,,,81,127
60086,note_off,115,0,0,,10,,,81,127
60086,note_on,0,0,0,,5,,,77,127
60201,note_off,115,0,0,,5,,,77,127
60201,note_off,0,0,0,,5,,,65,127
60201,note_on,0,0,0,,5,,,65,127
60201,note_on,0,0,0,,7,,,79,127
60316,note_off,115,0,0,,7,,,79,127
60316,note_on,0,0,0,,4,,,76,127
60431,note_off,115,0,0,,4,,,76,127
60431,note_off,0,0,0,,5,,,65,127
60431,note_on,0,0,0,,5,,,65,127
60431,note_on,0,0,0,,5,,,77,127
60546,note_off,115,0,0,,5,,,77,127
60546,note_on,0,0,0,,2,,,74,127
60661,note_off,115,0,0,,2,,,74,127
60661,note_off,0,0,0,,5,,,65,127
60661,note_on,0,0,0,,5,,,65,127
60661,note_on,0,0,0,,3,,,75,127
60776,note_off,115,0,0,,3,,,75,127
60776,note_on,0,0,0,,0,,,72,127
60891,note_off,115,0,0,,0,,,72,127
60891,note_off,0,0,0,,5,,,65,127
60891,note_on,0,0,0,,7,,,55,127
60891,note_on,0,0,0,,5,,,65,127
60891,note_on,0,0,0,,2,,,74,127
61006,note_off,115,0,0,,2,,,74,127
61006,note_on,0,0,0,,12,,,71,127
61121,note_off,115,0,0,,12,,,71,127
61121,note_off,0,0,0,,5,,,65,127
61121,note_off,0,0,0,,7,,,55,127
61121,note_on,0,0,0,,5,,,65,127
61121,note_on,0,0,0,,7,,,55,127
61121,note_on,0,0,0,,0,,,72,127
61236,note_off,115,0,0,,0,,,72,127
61236,note_on,0,0,0,,10,,,69,127
61351,note_off,115,0,0,,10,,,69,127
61351,note_off,0,0,0,,7,,,55,127
61351,note_off,0,0,0,,5,,,65,127
61351,note_on,0,0,0,,5,,,65,127
61351,note_on,0,0,0,,7,,,55,127
61351,note_on,0,0,0,,12,,,71,127
61466,note_off,115,0,0,,12,,,71,127
61466,note_on,0,0,0,,7,,,67,127
61581,note_off,115,0,0,,7,,,67,127
61581,note_off,0,0,0,,7,,,55,127
61581,note_off,0,0,0,,5,,,65,127
61581,note_on,0,0,0,,5,,,65,127
61581,note_on,0,0,0,,7,,,55,127
61581,note_on,0,0,0,,8,,,68,127
61696,note_off,115,0,0,,8,,,68,127
61696,note_off,0,0,0,,5,,,65,127
61696,note_on,0,0,0,,5,,,65,127
61811,note_off,115,0,0,,5,,,65,127
61811,note_off,0,0,0,,7,,,55,127
61811,note_on,0,0,0,,3,,,63,127
61811,note_on,0,0,0,,7,,,79,127
61926,note_on,115,0,0,,7,,,67,127
62041,note_off,115,0,0,,7,,,79,127
62041,note_off,0,0,0,,3,,,63,127
62041,note_on,0,0,0,,8,,,68,127
62041,note_on,0,0,0,,3,,,63,127
62079,note_off,38,0,0,,7,,,67,127
62156,note_on,77,0,0,,7,,,67,127
62194,note_off,38,0,0,,8,,,68,127
62271,note_off,77,0,0,,3,,,63,127
62271,note_on,0,0,0,,8,,,68,127
62271,note_on,0,0,0,,3,,,63,127
62309,note_off,38,0,0,,7,,,67,127
62386,note_on,77,0,0,,7,,,67,127
62424,note_off,38,0,0,,8,,,68,127
62501,note_off,77,0,0,,3,,,63,127
62501,note_on,0,0,0,,10,,,69,127
62501,note_on,0,0,0,,3,,,63,127
62539,note_off,38,0,0,,7,,,67,127
62616,note_on,77,0,0,,7,,,67,127
62654,note_off,38,0,0,,10,,,69,127
62731,note_off,77,0,0,,3,,,63,127
62731,note_on,0,0,0,,11,,,70,127
62731,note_on,0,0,0,,5,,,65,127
62731,note_on,0,0,0,,2,,,62,127
62769,note_off,38,0,0,,7,,,67,127
62846,note_on,77,0,0,,10,,,69,127
62884,note_off,38,0,0,,11,,,70,127
62961,note_off,77,0,0,,2,,,62,127
62961,note_off,0,0,0,,5,,,65,127
62961,note_on,0,0,0,,11,,,70,127
62961,note_on,0,0,0,,5,,,65,127
62961,note_on,0,0,0,,2,,,62,127
62999,note_off,38,0,0,,10,,,69,127
63076,note_on,77,0,0,,10,,,69,127
63114,note_off,38,0,0,,11,,,70,127
63191,note_off,77,0,0,,2,,,62,127
63191,note_off,0,0,0,,5,,,65,127
63191,note_on,0,0,0,,11,,,70,127
63191,note_on,0,0,0,,5,,,65,127
63191,note_on,0,0,0,,2,,,62,127
63229,note_off,38,0,0,,10,,,69,127
63306,note_on,77,0,0,,10,,,69,127
63344,note_off,38,0,0,,11,,,70,127
63421,note_off,77,0,0,,2,,,62,127
63421,note_off,0,0,0,,5,,,65,127
63421,note_on,0,0,0,,12,,,71,127
63421,note_on,0,0,0,,5,,,65,127
63421,note_on,0,0,0,,2,,,62,127
63459,note_off,38,0,0,,10,,,69,127
63536,note_on,77,0,0,,10,,,69,127
63574,note_off,38,0,0,,12,,,71,127
63651,note_off,77,0,0,,2,,,62,127
63651,note_off,0,0,0,,5,,,65,127
63651,note_on,0,0,0,,0,,,72,127
63651,note_on,0,0,0,,3,,,63,127
63651,note_on,0,0,0,,7,,,67,127
63689,note_off,38,0,0,,10,,,69,127
63766,note_on,77,0,0,,12,,,71,127
63804,note_off,38,0,0,,0,,,72,127
63881,note_off,77,0,0,,7,,,67,127
63881,note_off,0,0,0,,3,,,63,127
63881,note_on,0,0,0,,2,,,74,127
63881,note_on,0,0,0,,5,,,65,127
63881,note_on,0,0,0,,2,,,62,127
63919,note_off,38,0,0,,12,,,71,127
63996,note_on,77,0,0,,0,,,72,127
64034,note_off,38,0,0,,2,,,74,127
64111,note_off,77,0,0,,2,,,62,127
64111,note_off,0,0,0,,5,,,65,127
64111,note_on,0,0,0,,0,,,60,127
64111,note_on,0,0,0,,7,,,67,127
64111,note_on,0,0,0,,3,,,75,127
64149,note_off,38,0,0,,0,,,72,127
64226,note_off,77,0,0,,7,,,67,127
64226,note_on,0,0,0,,7,,,67,127
64341,note_off,115,0,0,,7,,,67,127
64341,note_off,0,0,0,,3,,,75,127
64341,note_off,0,0,0,,0,,,60,127
64341,note_on,0,0,0,,5,,,53,127
64341,note_on,0,0,0,,8,,,68,127
64341,note_on,0,0,0,,2,,,74,127
64456,note_off,115,0,0,,2,,,74,127
64456,note_on,0,0,0,,0,,,72,127
64571,note_off,115,0,0,,0,,,72,127
64571,note_off,0,0,0,,8,,,68,127
64571,note_off,0,0,0,,5,,,53,127
64571,note_on,0,0,0,,7,,,55,127
64571,note_on,0,0,0,,12,,,71,127
64686,note_off,115,0,0,,12,,,71,127
64686,note_on,0,0,0,,7,,,67,127
64801,note_on,115,0,0,,8,,,68,127
64839,note_off,38,0,0,,7,,,67,127
64916,note_on,77,0,0,,7,,,67,127
64954,note_off,38,0,0,,8,,,68,127
65031,note_on,77,0,0,,8,,,68,127
65031,note_on,0,0,0,,5,,,65,127
65069,note_off,38,0,0,,7,,,67,127
65146,note_on,77,0,0,,7,,,67,127
65184,note_off,38,0,0,,8,,,68,127
65260,note_off,76,0,0,,7,,,55,127
65261,note_off,1,0,0,,5,,,65,127
65261,note_on,0,0,0,,10,,,69,127
65261,note_on,0,0,0,,3,,,63,127
65299,note_off,38,0,0,,7,,,67,127
65376,note_on,77,0,0,,7,,,67,127
65414,note_off,38,0,0,,10,,,69,127
65491,note_off,77,0,0,,3,,,63,127
65491,note_on,0,0,0,,11,,,70,127
65491,note_on,0,0,0,,2,,,62,127
65529,note_off,38,0,0,,7,,,67,127
65606,note_on,77,0,0,,10,,,69,127
65644,note_off,38,0,0,,11,,,70,127
65721,note_off,77,0,0,,2,,,62,127
65721,note_on,0,0,0,,12,,,71,127
65721,note_on,0,0,0,,5,,,65,127
65759,note_off,38,0,0,,10,,,69,127
65836,note_on,77,0,0,,10,,,69,127
65874,note_off,38,0,0,,12,,,71,127
65951,note_off,77,0,0,,5,,,65,127
65951,note_on,0,0,0,,0,,,72,127
65951,note_on,0,0,0,,3,,,63,127
65989,note_off,38,0,0,,10,,,69,127
66066,note_on,77,0,0,,12,,,71,127
66104,note_off,38,0,0,,0,,,72,127
66181,note_off,77,0,0,,3,,,63,127
66181,note_on,0,0,0,,2,,,74,127
66181,note_on,0,0,0,,2,,,62,127
66219,note_off,38,0,0,,12,,,71,127
66296,note_on,77,0,0,,0,,,72,127
66334,note_off,38,0,0,,2,,,74,127
66411,note_off,77,0,0,,2,,,62,127
66411,note_on,0,0,0,,3,,,75,127
66411,note_on,0,0,0,,0,,,60,127
66449,note_off,38,0,0,,0,,,72,127
66526,note_on,77,0,0,,2,,,74,127
66564,note_off,38,0,0,,3,,,75,127
66641,note_off,77,0,0,,0,,,60,127
66641,note_on,0,0,0,,4,,,76,127
66641,note_on,0,0,0,,11,,,70,127
66679,note_off,38,0,0,,2,,,74,127
66756,note_on,77,0,0,,2,,,74,127
66794,note_off,38,0,0,,4,,,76,127
66871,note_off,77,0,0,,11,,,70,127
66871,note_on,0,0,0,,5,,,77,127
66871,note_on,0,0,0,,10,,,69,127
66909,note_off,38,0,0,,2,,,74,127
66986,note_on,77,0,0,,4,,,76,127
67024,note_off,38,0,0,,5,,,77,127
67101,note_off,77,0,0,,10,,,69,127
67101,note_on,0,0,0,,6,,,78,127
67101,note_on,0,0,0,,0,,,72,127
67139,note_off,38,0,0,,4,,,76,127
67216,note_on,77,0,0,,4,,,76,127
67254,note_off,38,0,0,,6,,,78,127
67331,note_off,77,0,0,,0,,,72,127
67331,note_on,0,0,0,,7,,,79,127
67331,note_on,0,0,0,,11,,,70,127
67369,note_off,38,0,0,,4,,,76,127
67446,note_on,77,0,0,,6,,,78,127
67484,note_off,38,0,0,,7,,,79,127
67561,note_off,77,0,0,,11,,,70,127
67561,note_on,0,0,0,,10,,,81,127
67561,note_on,0,0,0,,10,,,69,127
67561,note_on,0,0,0,,6,,,66,127
67599,note_off,38,0,0,,6,,,78,127
67676,note_on,77,0,0,,7,,,79,127
67714,note_off,38,0,0,,10,,,81,127
67791,note_off,77,0,0,,6,,,66,127
67791,note_off,0,0,0,,10,,,69,127
67791,note_on,0,0,0,,11,,,70,127
67791,note_on,0,0,0,,7,,,67,127
67791,note_on,0,0,0,,11,,,82,127
67829,note_off,38,0,0,,7,,,79,127
67906,note_on,77,0,0,,2,,,74,127
68021,note_off,115,0,0,,2,,,74,127
68021,note_off,0,0,0,,11,,,82,127
68021,note_off,0,0,0,,7,,,67,127
68021,note_off,0,0,0,,11,,,70,127
68021,note_on,0,0,0,,0,,,60,127
68021,note_on,0,0,0,,3,,,75,127
68021,note_on,0,0,0,,10,,,81,127
68136,note_off,115,0,0,,10,,,81,127
68136,note_on,0,0,0,,7,,,79,127
68251,note_off,115,0,0,,7,,,79,127
68251,note_off,0,0,0,,3,,,75,127
68251,note_off,0,0,0,,0,,,60,127
68251,note_on,0,0,0,,2,,,62,127
68251,note_on,0,0,0,,6,,,78,127
68366,note_off,115,0,0,,6,,,78,127
68366,note_on,0,0,0,,2,,,74,127
68481,note_on,115,0,0,,3,,,75,127
68519,note_off,38,0,0,,2,,,74,127
68596,note_on,77,0,0,,2,,,74,127
68634,note_off,38,0,0,,3,,,75,127
68711,note_off,77,0,0,,2,,,62,127
68711,note_on,0,0,0,,3,,,75,127
68711,note_on,0,0,0,,0,,,72,127
68749,note_off,38,0,0,,2,,,74,127
68826,note_on,77,0,0,,2,,,74,127
68864,note_off,38,0,0,,3,,,75,127
68941,note_off,77,0,0,,0,,,72,127
68941,note_on,0,0,0,,4,,,76,127
68941,note_on,0,0,0,,11,,,70,127
68979,note_off,38,0,0,,2,,,74,127
69056,note_on,77,0,0,,2,,,74,127
69094,note_off,38,0,0,,4,,,76,127
69171,note_off,77,0,0,,11,,,70,127
69171,note_on,0,0,0,,5,,,77,127
69171,note_on,0,0,0,,10,,,69,127
69209,note_off,38,0,0,,2,,,74,127
69286,note_on,77,0,0,,4,,,76,127
69324,note_off,38,0,0,,5,,,77,127
69401,note_off,77,0,0,,10,,,69,127
69401,note_on,0,0,0,,6,,,78,127
69401,note_on,0,0,0,,0,,,72,127
69439,note_off,38,0,0,,4,,,76,127
69516,note_on,77,0,0,,4,,,76,127
69554,note_off,38,0,0,,6,,,78,127
69631,note_off,77,0,0,,0,,,72,127
69631,note_on,0,0,0,,7,,,79,127
69631,note_on,0,0,0,,11,,,70,127
69669,note_off,38,0,0,,4,,,76,127
69746,note_on,77,0,0,,6,,,78,127
69784,note_off,38,0,0,,7,,,79,127
69861,note_off,77,0,0,,11,,,70,127
69861,note_on,0,0,0,,10,,,81,127
69861,note_on,0,0,0,,10,,,69,127
69899,note_off,38,0,0,,6,,,78,127
69976,note_on,77,0,0,,7,,,79,127
70014,note_off,38,0,0,,10,,,81,127
70091,note_off,77,0,0,,10,,,69,127
70091,note_on,0,0,0,,7,,,67,127
70091,note_on,0,0,0,,11,,,82,127
70129,note_off,38,0,0,,7,,,79,127
70206,note_on,77,0,0,,1,,,73,127
70321,note_off,115,0,0,,1,,,73,127
70321,note_off,0,0,0,,7,,,67,127
70321,note_on,0,0,0,,5,,,65,127
70321,note_on,0,0,0,,10,,,69,127
70321,note_on,0,0,0,,2,,,74,127
70436,note_off,115,0,0,,2,,,74,127
70436,note_on,0,0,0,,10,,,81,127
70437,note_off,1,0,0,,11,,,82,127
70551,note_off,114,0,0,,10,,,69,127
70551,note_off,0,0,0,,5,,,65,127
70551,note_on,0,0,0,,7,,,67,127
70551,note_on,0,0,0,,4,,,64,127
70551,note_on,0,0,0,,7,,,79,127
70552,note_off,1,0,0,,10,,,81,127
70666,note_on,114,0,0,,1,,,73,127
70781,note_off,115,0,0,,1,,,73,127
70781,note_off,0,0,0,,4,,,64,127
70781,note_off,0,0,0,,7,,,67,127
70781,note_on,0,0,0,,5,,,65,127
70781,note_on,0,0,0,,2,,,62,127
70781,note_on,0,0,0,,10,,,69,127
70781,note_on,0,0,0,,2,,,74,127
70896,note_off,115,0,0,,2,,,74,127
70896,note_on,0,0,0,,5,,,77,127
70897,note_off,1,0,0,,7,,,79,127
71011,note_off,114,0,0,,10,,,69,127
71011,note_off,0,0,0,,2,,,62,127
71011,note_off,0,0,0,,5,,,65,127
71011,note_on,0,0,0,,7,,,67,127
71011,note_on,0,0,0,,11,,,82,127
71012,note_off,1,0,0,,5,,,77,127
71126,note_on,114,0,0,,1,,,73,127
71184,note_off,58,0,0,,11,,,82,127
71242,note_off,58,0,0,,1,,,73,127
71242,note_off,0,0,0,,7,,,67,127
71242,note_on,0,0,0,,10,,,69,127
71242,note_on,0,0,0,,5,,,65,127
71242,note_on,0,0,0,,2,,,74,127
71357,note_on,115,0,0,,10,,,81,127
71415,note_off,58,0,0,,2,,,74,127
71473,note_off,58,0,0,,10,,,81,127
71473,note_off,0,0,0,,5,,,65,127
71473,note_off,0,0,0,,10,,,69,127
71473,note_on,0,0,0,,7,,,67,127
71473,note_on,0,0,0,,4,,,64,127
71473,note_on,0,0,0,,7,,,79,127
71588,note_on,115,0,0,,1,,,73,127
71646,note_off,58,0,0,,7,,,79,127
71704,note_off,58,0,0,,1,,,73,127
71704,note_off,0,0,0,,4,,,64,127
71704,note_off,0,0,0,,7,,,67,127
71704,note_on,0,0,0,,5,,,65,127
71704,note_on,0,0,0,,2,,,62,127
71704,note_on,0,0,0,,10,,,69,127
71704,note_on,0,0,0,,2,,,74,127
71819,note_on,115,0,0,,5,,,77,127
71877,note_off,58,0,0,,2,,,74,127
71935,note_off,58,0,0,,5,,,77,127
71935,note_off,0,0,0,,10,,,69,127
71935,note_off,0,0,0,,2,,,62,127
71935,note_off,0,0,0,,5,,,65,127
71935,note_on,0,0,0,,7,,,67,127
71935,note_on,0,0,0,,11,,,82,127
72031,note_off,96,0,0,,11,,,82,127
72050,note_on,19,0,0,,1,,,73,127
72165,note_off,115,0,0,,1,,,73,127
72165,note_off,0,0,0,,7,,,67,127
72165,note_on,0,0,0,,5,,,65,127
72165,note_on,0,0,0,,10,,,69,127
72165,note_on,0,0,0,,2,,,74,127
72280,note_on,115,0,0,,10,,,81,127
72386,note_off,106,0,0,,10,,,81,127
72396,note_off,10,0,0,,2,,,74,127
72396,note_off,0,0,0,,10,,,69,127
72396,note_off,0,0,0,,5,,,65,127
72396,note_on,0,0,0,,7,,,67,127
72396,note_on,0,0,0,,4,,,64,127
72396,note_on,0,0,0,,7,,,79,127
72492,note_off,96,0,0,,7,,,79,127
72511,note_on,19,0,0,,1,,,73,127
72626,note_off,115,0,0,,1,,,73,127
72626,note_off,0,0,0,,4,,,64,127
72626,note_off,0,0,0,,7,,,67,127
72626,note_on,0,0,0,,5,,,65,127
72626,note_on,0,0,0,,2,,,62,127
72626,note_on,0,0,0,,2,,,74,127
72741,note_on,115,0,0,,5,,,77,127
72856,note_off,115,0,0,,5,,,77,127
72856,note_off,0,0,0,,2,,,74,127
72856,note_off,0,0,0,,2,,,62,127
72856,note_off,0,0,0,,5,,,65,127
72856,note_on,0,0,0,,1,,,61,127
72856,note_on,0,0,0,,7,,,67,127
72856,note_on,0,0,0,,7,,,79,127
72971,note_on,115,0,0,,10,,,69,127
73086,note_off,115,0,0,,7,,,67,127
73086,note_off,0,0,0,,1,,,61,127
73086,note_on,0,0,0,,2,,,62,127
73086,note_on,0,0,0,,7,,,67,127
73086,note_on,0,0,0,,11,,,70,127
73087,note_off,1,0,0,,10,,,69,127
73201,note_on,114,0,0,,5,,,77,127
73202,note_off,1,0,0,,11,,,70,127
73202,note_off,0,0,0,,7,,,79,127
73316,note_off,114,0,0,,7,,,67,127
73316,note_off,0,0,0,,2,,,62,127
73316,note_on,0,0,0,,1,,,61,127
73316,note_on,0,0,0,,7,,,67,127
73316,note_on,0,0,0,,4,,,76,127
73317,note_off,1,0,0,,5,,,77,127
73431,note_on,114,0,0,,10,,,69,127
73546,note_off,115,0,0,,7,,,67,127
73546,note_off,0,0,0,,1,,,61,127
73546,note_on,0,0,0,,2,,,62,127
73546,note_on,0,0,0,,7,,,67,127
73546,note_on,0,0,0,,11,,,70,127
73547,note_off,1,0,0,,10,,,69,127
73661,note_on,114,0,0,,2,,,74,127
73662,note_off,1,0,0,,11,,,70,127
73662,note_off,0,0,0,,4,,,76,127
73776,note_off,114,0,0,,7,,,67,127
73776,note_off,0,0,0,,2,,,62,127
73776,note_on,0,0,0,,7,,,67,127
73776,note_on,0,0,0,,1,,,61,127
73776,note_on,0,0,0,,7,,,79,127
73777,note_off,1,0,0,,2,,,74,127
73891,note_on,114,0,0,,10,,,69,127
74006,note_off,115,0,0,,10,,,69,127
74006,note_off,0,0,0,,7,,,79,127
74006,note_off,0,0,0,,1,,,61,127
74006,note_off,0,0,0,,7,,,67,127
74006,note_on,0,0,0,,7,,,67,127
74006,note_on,0,0,0,,2,,,62,127
74006,note_on,0,0,0,,11,,,70,127
74121,note_on,115,0,0,,5,,,77,127
74236,note_off,115,0,0,,5,,,77,127
74236,note_off,0,0,0,,11,,,70,127
74236,note_off,0,0,0,,2,,,62,127
74236,note_off,0,0,0,,7,,,67,127
74236,note_on,0,0,0,,7,,,67,127
74236,note_on,0,0,0,,1,,,61,127
74236,note_on,0,0,0,,4,,,76,127
74351,note_on,115,0,0,,10,,,69,127
74466,note_off,115,0,0,,10,,,69,127
74466,note_off,0,0,0,,4,,,76,127
74466,note_off,0,0,0,,1,,,61,127
74466,note_off,0,0,0,,7,,,67,127
74466,note_on,0,0,0,,7,,,67,127
74466,note_on,0,0,0,,2,,,62,127
74466,note_on,0,0,0,,11,,,70,127
74581,note_on,115,0,0,,2,,,74,127
74696,note_off,115,0,0,,2,,,74,127
74696,note_off,0,0,0,,11,,,70,127
74696,note_off,0,0,0,,2,,,62,127
74696,note_off,0,0,0,,7,,,67,127
74696,note_on,0,0,0,,7,,,67,127
74696,note_on,0,0,0,,1,,,61,127
74696,note_on,0,0,0,,7,,,79,127
74811,note_off,115,0,0,,7,,,79,127
74811,note_on,0,0,0,,10,,,69,127
74926,note_off,115,0,0,,10,,,69,127
74926,note_off,0,0,0,,1,,,61,127
74926,note_off,0,0,0,,7,,,67,127
74926,note_on,0,0,0,,7,,,67,127
74926,note_on,0,0,0,,2,,,62,127
74926,note_on,0,0,0,,11,,,70,127
75041,note_on,115,0,0,,5,,,77,127
75156,note_off,115,0,0,,5,,,77,127
75156,note_off,0,0,0,,2,,,62,127
75156,note_off,0,0,0,,7,,,67,127
75156,note_on,0,0,0,,1,,,61,127
75156,note_on,0,0,0,,7,,,67,127
75156,note_on,0,0,0,,4,,,76,127
75271,note_off,115,0,0,,4,,,76,127
75271,note_off,0,0,0,,11,,,70,127
75271,note_on,0,0,0,,10,,,69,127
75386,note_off,115,0,0,,10,,,69,127
75386,note_off,0,0,0,,7,,,67,127
75386,note_off,0,0,0,,1,,,61,127
75386,note_on,0,0,0,,7,,,67,127
75386,note_on,0,0,0,,2,,,62,127
75386,note_on,0,0,0,,11,,,70,127
75501,note_on,115,0,0,,2,,,74,127
75616,note_off,115,0,0,,2,,,74,127
75616,note_off,0,0,0,,2,,,62,127
75616,note_off,0,0,0,,7,,,67,127
75616,note_on,0,0,0,,11,,,58,127
75616,note_on,0,0,0,,2,,,62,127
75616,note_on,0,0,0,,7,,,79,127
75712,note_off,96,0,0,,7,,,79,127
75731,note_off,19,0,0,,11,,,70,127
75731,note_on,0,0,0,,10,,,69,127
75827,note_off,96,0,0,,10,,,69,127
75846,note_off,19,0,0,,2,,,62,127
75846,note_off,0,0,0,,11,,,58,127
75846,note_on,0,0,0,,10,,,57,127
75846,note_on,0,0,0,,11,,,70,127
75942,note_off,96,0,0,,11,,,70,127
75961,note_on,19,0,0,,5,,,77,127
76057,note_off,96,0,0,,5,,,77,127
76076,note_off,19,0,0,,10,,,57,127
76076,note_on,0,0,0,,7,,,55,127
76076,note_on,0,0,0,,4,,,76,127
76172,note_off,96,0,0,,4,,,76,127
76191,note_on,19,0,0,,10,,,69,127
76287,note_off,96,0,0,,10,,,69,127
76306,note_on,19,0,0,,7,,,43,127
76306,note_on,0,0,0,,11,,,70,127
76402,note_off,96,0,0,,11,,,70,127
76421,note_on,19,0,0,,2,,,74,127
76517,note_off,96,0,0,,2,,,74,127
76536,note_off,19,0,0,,7,,,43,127
76536,note_off,0,0,0,,7,,,55,127
76536,note_on,0,0,0,,10,,,45,127
76536,note_on,0,0,0,,1,,,73,127
76536,note_on,0,0,0,,4,,,76,127
76651,note_on,115,0,0,,10,,,57,127
76709,note_off,58,0,0,,10,,,45,127
76767,note_off,58,0,0,,4,,,76,127
76767,note_off,0,0,0,,1,,,73,127
76767,note_on,0,0,0,,5,,,77,127
76767,note_on,0,0,0,,2,,,74,127
76767,note_on,0,0,0,,8,,,56,127
76825,note_off,58,0,0,,10,,,57,127
76883,note_on,58,0,0,,10,,,57,127
76941,note_off,58,0,0,,8,,,56,127
76999,note_off,58,0,0,,2,,,74,127
76999,note_off,0,0,0,,5,,,77,127
76999,note_on,0,0,0,,7,,,79,127
76999,note_on,0,0,0,,4,,,76,127
76999,note_on,0,0,0,,8,,,56,127
77057,note_off,58,0,0,,10,,,57,127
77115,note_on,58,0,0,,10,,,57,127
77173,note_off,58,0,0,,8,,,56,127
77231,note_off,58,0,0,,4,,,76,127
77231,note_off,0,0,0,,7,,,79,127
77231,note_on,0,0,0,,5,,,77,127
77231,note_on,0,0,0,,10,,,81,127
77231,note_on,0,0,0,,8,,,56,127
77289,note_off,58,0,0,,10,,,57,127
77347,note_on,58,0,0,,10,,,57,127
77405,note_off,58,0,0,,8,,,56,127
77463,note_off,58,0,0,,10,,,81,127
77463,note_off,0,0,0,,5,,,77,127
77463,note_on,0,0,0,,11,,,46,127
77463,note_on,0,0,0,,7,,,79,127
77463,note_on,0,0,0,,4,,,76,127
77521,note_off,58,0,0,,10,,,57,127
77579,note_on,58,0,0,,10,,,57,127
77637,note_off,58,0,0,,11,,,46,127
77695,note_off,58,0,0,,4,,,76,127
77695,note_off,0,0,0,,7,,,79,127
77695,note_on,0,0,0,,5,,,77,127
77695,note_on,0,0,0,,2,,,74,127
77695,note_on,0,0,0,,8,,,56,127
77753,note_off,58,0,0,,10,,,57,127
77811,note_on,58,0,0,,10,,,57,127
77869,note_off,58,0,0,,8,,,56,127
77927,note_off,58,0,0,,2,,,74,127
77927,note_off,0,0,0,,5,,,77,127
77927,note_on,0,0,0,,1,,,73,127
77927,note_on,0,0,0,,4,,,76,127
77927,note_on,0,0,0,,8,,,56,127
77985,note_off,58,0,0,,10,,,57,127
78043,note_on,58,0,0,,10,,,57,127
78101,note_off,58,0,0,,8,,,56,127
78159,note_off,58,0,0,,4,,,76,127
78159,note_off,0,0,0,,1,,,73,127
78159,note_on,0,0,0,,2,,,74,127
78159,note_on,0,0,0,,8,,,56,127
78217,note_off,58,0,0,,10,,,57,127
78275,note_on,58,0,0,,10,,,57,127
78333,note_off,58,0,0,,8,,,56,127
78391,note_off,58,0,0,,2,,,74,127
78391,note_on,0,0,0,,10,,,45,127
78391,note_on,0,0,0,,1,,,73,127
78391,note_on,0,0,0,,4,,,76,127
78449,note_off,58,0,0,,10,,,57,127
78507,note_on,58,0,0,,10,,,57,127
78565,note_off,58,0,0,,10,,,45,127
78623,note_off,58,0,0,,4,,,76,127
78623,note_off,0,0,0,,1,,,73,127
78623,note_on,0,0,0,,5,,,77,127
78623,note_on,0,0,0,,2,,,74,127
78623,note_on,0,0,0,,8,,,56,127
78681,note_off,58,0,0,,10,,,57,127
78739,note_on,58,0,0,,10,,,57,127
78797,note_off,58,0,0,,8,,,56,127
78855,note_off,58,0,0,,2,,,74,127
78855,note_off,0,0,0,,5,,,77,127
78855,note_on,0,0,0,,7,,,79,127
78855,note_on,0,0,0,,4,,,76,127
78855,note_on,0,0,0,,8,,,56,127
78913,note_off,58,0,0,,10,,,57,127
78971,note_on,58,0,0,,10,,,57,127
79029,note_off,58,0,0,,8,,,56,127
79087,note_off,58,0,0,,4,,,76,127
79087,note_off,0,0,0,,7,,,79,127
79087,note_on,0,0,0,,5,,,77,127
79087,note_on,0,0,0,,10,,,81,127
79087,note_on,0,0,0,,8,,,56,127
79145,note_off,58,0,0,,10,,,57,127
79203,note_on,58,0,0,,10,,,57,127
79261,note_off,58,0,0,,8,,,56,127
79319,note_off,58,0,0,,10,,,81,127
79319,note_off,0,0,0,,5,,,77,127
79319,note_on,0,0,0,,7,,,43,127
79319,note_on,0,0,0,,11,,,82,127
79319,note_on,0,0,0,,7,,,79,127
79377,note_off,58,0,0,,10,,,57,127
79435,note_on,58,0,0,,10,,,57,127
79493,note_off,58,0,0,,7,,,43,127
79551,note_off,58,0,0,,7,,,79,127
79551,note_off,0,0,0,,11,,,82,127
79551,note_on,0,0,0,,5,,,77,127
79551,note_on,0,0,0,,10,,,81,127
79551,note_on,0,0,0,,8,,,56,127
79609,note_off,58,0,0,,10,,,57,127
79667,note_on,58,0,0,,10,,,57,127
79725,note_off,58,0,0,,8,,,56,127
79783,note_off,58,0,0,,10,,,81,127
79783,note_off,0,0,0,,5,,,77,127
79783,note_on,0,0,0,,4,,,76,127
79783,note_on,0,0,0,,7,,,79,127
79783,note_on,0,0,0,,8,,,56,127
79841,note_off,58,0,0,,10,,,57,127
79899,note_on,58,0,0,,10,,,57,127
79957,note_off,58,0,0,,8,,,56,127
80015,note_off,58,0,0,,7,,,79,127
80015,note_off,0,0,0,,4,,,76,127
80015,note_on,0,0,0,,5,,,77,127
80015,note_on,0,0,0,,2,,,74,127
80015,note_on,0,0,0,,8,,,56,127
80073,note_off,58,0,0,,10,,,57,127
80131,note_on,58,0,0,,10,,,57,127
80189,note_off,58,0,0,,8,,,56,127
80247,note_off,58,0,0,,2,,,74,127
80247,note_off,0,0,0,,5,,,77,127
80247,note_on,0,0,0,,10,,,45,127
80247,note_on,0,0,0,,4,,,76,127
80247,note_on,0,0,0,,1,,,73,127
80305,note_off,58,0,0,,10,,,57,127
80363,note_on,58,0,0,,10,,,57,127
80421,note_off,58,0,0,,10,,,45,127
80479,note_off,58,0,0,,1,,,73,127
80479,note_off,0,0,0,,4,,,76,127
80479,note_on,0,0,0,,2,,,74,127
80479,note_on,0,0,0,,5,,,77,127
80479,note_on,0,0,0,,8,,,56,127
80537,note_off,58,0,0,,10,,,57,127
80595,note_on,58,0,0,,10,,,57,127
80653,note_off,58,0,0,,8,,,56,127
80711,note_off,58,0,0,,5,,,77,127
80711,note_off,0,0,0,,2,,,74,127
80711,note_on,0,0,0,,4,,,76,127
80711,note_on,0,0,0,,7,,,79,127
80711,note_on,0,0,0,,8,,,56,127
80769,note_off,58,0,0,,10,,,57,127
80827,note_on,58,0,0,,10,,,57,127
80885,note_off,58,0,0,,8,,,56,127
80943,note_off,58,0,0,,7,,,79,127
80943,note_off,0,0,0,,4,,,76,127
80943,note_on,0,0,0,,10,,,81,127
80943,note_on,0,0,0,,5,,,77,127
80943,note_on,0,0,0,,8,,,56,127
81001,note_off,58,0,0,,10,,,57,127
81059,note_on,58,0,0,,10,,,57,127
81117,note_off,58,0,0,,8,,,56,127
81175,note_off,58,0,0,,5,,,77,127
81175,note_off,0,0,0,,10,,,81,127
81175,note_on,0,0,0,,11,,,46,127
81175,note_on,0,0,0,,4,,,76,127
81175,note_on,0,0,0,,7,,,79,127
81233,note_off,58,0,0,,10,,,57,127
81291,note_on,58,0,0,,10,,,57,127
81349,note_off,58,0,0,,11,,,46,127
81407,note_off,58,0,0,,7,,,79,127
81407,note_off,0,0,0,,4,,,76,127
81407,note_on,0,0,0,,5,,,77,127
81407,note_on,0,0,0,,2,,,74,127
81407,note_on,0,0,0,,8,,,56,127
81465,note_off,58,0,0,,10,,,57,127
81523,note_on,58,0,0,,10,,,57,127
81581,note_off,58,0,0,,8,,,56,127
81639,note_off,58,0,0,,2,,,74,127
81639,note_off,0,0,0,,5,,,77,127
81639,note_on,0,0,0,,4,,,76,127
81639,note_on,0,0,0,,1,,,73,127
81639,note_on,0,0,0,,8,,,56,127
81697,note_off,58,0,0,,10,,,57,127
81755,note_on,58,0,0,,10,,,57,127
81813,note_off,58,0,0,,8,,,56,127
81871,note_off,58,0,0,,1,,,73,127
81871,note_off,0,0,0,,4,,,76,127
81871,note_on,0,0,0,,2,,,74,127
81871,note_on,0,0,0,,8,,,56,127
81929,note_off,58,0,0,,10,,,57,127
81987,note_on,58,0,0,,10,,,57,127
82045,note_off,58,0,0,,8,,,56,127
82045,note_off,0,0,0,,2,,,74,127
82103,note_on,58,0,0,,10,,,45,127
82161,note_off,58,0,0,,10,,,57,127
82219,note_on,58,0,0,,10,,,57,127
82334,note_on,115,0,0,,11,,,58,127
82372,note_off,38,0,0,,10,,,57,127
82449,note_on,77,0,0,,10,,,57,127
82487,note_off,38,0,0,,11,,,58,127
82564,note_off,77,0,0,,10,,,45,127
82564,note_on,0,0,0,,11,,,58,127
82564,note_on,0,0,0,,7,,,55,127
82602,note_off,38,0,0,,10,,,57,127
82679,note_on,77,0,0,,10,,,57,127
82717,note_off,38,0,0,,11,,,58,127
82794,note_off,77,0,0,,7,,,55,127
82794,note_on,0,0,0,,12,,,59,127
82794,note_on,0,0,0,,5,,,53,127
82832,note_off,38,0,0,,10,,,57,127
82909,note_on,77,0,0,,10,,,57,127
82947,note_off,38,0,0,,12,,,59,127
83024,note_off,77,0,0,,5,,,53,127
83024,note_on,0,0,0,,0,,,60,127
83024,note_on,0,0,0,,4,,,52,127
83062,note_off,38,0,0,,10,,,57,127
83139,note_on,77,0,0,,12,,,59,127
83177,note_off,38,0,0,,0,,,60,127
83254,note_off,77,0,0,,4,,,52,127
83254,note_on,0,0,0,,1,,,61,127
83254,note_on,0,0,0,,7,,,55,127
83292,note_off,38,0,0,,12,,,59,127
83369,note_on,77,0,0,,12,,,59,127
83407,note_off,38,0,0,,1,,,61,127
83484,note_off,77,0,0,,7,,,55,127
83484,note_on,0,0,0,,2,,,62,127
83484,note_on,0,0,0,,5,,,53,127
83522,note_off,38,0,0,,12,,,59,127
83599,note_on,77,0,0,,1,,,61,127
83637,note_off,38,0,0,,2,,,62,127
83714,note_off,77,0,0,,5,,,53,127
83714,note_on,0,0,0,,4,,,64,127
83714,note_on,0,0,0,,4,,,52,127
83752,note_off,38,0,0,,1,,,61,127
83829,note_on,77,0,0,,2,,,62,127
83867,note_off,38,0,0,,4,,,64,127
83944,note_off,77,0,0,,4,,,52,127
83944,note_on,0,0,0,,5,,,65,127
83944,note_on,0,0,0,,2,,,50,127
83982,note_off,38,0,0,,2,,,62,127
84059,note_on,77,0,0,,4,,,64,127
84097,note_off,38,0,0,,5,,,65,127
84174,note_off,77,0,0,,2,,,50,127
84174,note_on,0,0,0,,6,,,66,127
84174,note_on,0,0,0,,0,,,60,127
84212,note_off,38,0,0,,4,,,64,127
84289,note_on,77,0,0,,4,,,64,127
84327,note_off,38,0,0,,6,,,66,127
84404,note_off,77,0,0,,0,,,60,127
84404,note_on,0,0,0,,7,,,67,127
84404,note_on,0,0,0,,11,,,58,127
84442,note_off,38,0,0,,4,,,64,127
84519,note_on,77,0,0,,6,,,66,127
84557,note_off,38,0,0,,7,,,67,127
84634,note_off,77,0,0,,11,,,58,127
84634,note_on,0,0,0,,10,,,69,127
84634,note_on,0,0,0,,10,,,57,127
84672,note_off,38,0,0,,6,,,66,127
84749,note_on,77,0,0,,7,,,67,127
84787,note_off,38,0,0,,10,,,69,127
84864,note_off,77,0,0,,10,,,57,127
84864,note_on,0,0,0,,11,,,70,127
84864,note_on,0,0,0,,7,,,55,127
84902,note_off,38,0,0,,7,,,67,127
84979,note_on,77,0,0,,10,,,69,127
85017,note_off,38,0,0,,11,,,70,127
85094,note_off,77,0,0,,7,,,55,127
85094,note_on,0,0,0,,12,,,71,127
85094,note_on,0,0,0,,5,,,65,127
85132,note_off,38,0,0,,10,,,69,127
85209,note_on,77,0,0,,10,,,69,127
85247,note_off,38,0,0,,12,,,71,127
85324,note_off,77,0,0,,5,,,65,127
85324,note_on,0,0,0,,1,,,73,127
85324,note_on,0,0,0,,4,,,64,127
85362,note_off,38,0,0,,10,,,69,127
85439,note_on,77,0,0,,12,,,71,127
85477,note_off,38,0,0,,1,,,73,127
85554,note_off,77,0,0,,4,,,64,127
85554,note_on,0,0,0,,2,,,74,127
85554,note_on,0,0,0,,2,,,62,127
85592,note_off,38,0,0,,12,,,71,127
85669,note_on,77,0,0,,1,,,73,127
85707,note_off,38,0,0,,2,,,74,127
85784,note_off,77,0,0,,2,,,62,127
85784,note_on,0,0,0,,4,,,76,127
85784,note_on,0,0,0,,1,,,61,127
85822,note_off,38,0,0,,1,,,73,127
85899,note_on,77,0,0,,2,,,74,127
85937,note_off,38,0,0,,4,,,76,127
86014,note_off,77,0,0,,1,,,61,127
86014,note_on,0,0,0,,5,,,77,127
86014,note_on,0,0,0,,2,,,62,127
86052,note_off,38,0,0,,2,,,74,127
86129,note_on,77,0,0,,4,,,76,127
86167,note_off,38,0,0,,5,,,77,127
86244,note_off,77,0,0,,2,,,62,127
86244,note_on,0,0,0,,7,,,79,127
86244,note_on,0,0,0,,11,,,58,127
86282,note_off,38,0,0,,4,,,76,127
86359,note_on,77,0,0,,5,,,77,127
86397,note_off,38,0,0,,7,,,79,127
86474,note_off,77,0,0,,11,,,58,127
86474,note_on,0,0,0,,10,,,81,127
86474,note_on,0,0,0,,10,,,57,127
86512,note_off,38,0,0,,5,,,77,127
86589,note_on,77,0,0,,7,,,79,127
86627,note_off,38,0,0,,10,,,81,127
86704,note_off,77,0,0,,10,,,57,127
86704,note_on,0,0,0,,7,,,55,127
86704,note_on,0,0,0,,11,,,82,127
86742,note_off,38,0,0,,7,,,79,127
86819,note_off,77,0,0,,11,,,82,127
86819,note_on,0,0,0,,7,,,79,127
86934,note_off,115,0,0,,7,,,79,127
86934,note_off,0,0,0,,7,,,55,127
86934,note_on,0,0,0,,7,,,67,127
86934,note_on,0,0,0,,10,,,81,127
87049,note_off,115,0,0,,10,,,81,127
87049,note_on,0,0,0,,5,,,77,127
87164,note_off,115,0,0,,5,,,77,127
87164,note_on,0,0,0,,7,,,79,127
87279,note_off,115,0,0,,7,,,79,127
87279,note_on,0,0,0,,4,,,76,127
87394,note_off,115,0,0,,4,,,76,127
87394,note_off,0,0,0,,7,,,67,127
87394,note_on,0,0,0,,10,,,69,127
87394,note_on,0,0,0,,5,,,77,127
87509,note_off,115,0,0,,5,,,77,127
87509,note_on,0,0,0,,1,,,73,127
87624,note_off,115,0,0,,1,,,73,127
87624,note_off,0,0,0,,10,,,69,127
87624,note_on,0,0,0,,11,,,70,127
87624,note_on,0,0,0,,2,,,74,127
87739,note_on,115,0,0,,7,,,79,127
87852,note_off,113,0,0,,2,,,74,127
87854,note_off,2,0,0,,7,,,79,127
87854,note_off,0,0,0,,11,,,70,127
87854,note_on,0,0,0,,7,,,67,127
87854,note_on,0,0,0,,5,,,77,127
87912,note_off,58,0,0,,5,,,77,127
87912,note_on,0,0,0,,7,,,79,127
87970,note_off,58,0,0,,7,,,79,127
87970,note_on,0,0,0,,5,,,77,127
88028,note_off,58,0,0,,5,,,77,127
88028,note_on,0,0,0,,4,,,76,127
88086,note_off,58,0,0,,4,,,76,127
88086,note_off,0,0,0,,7,,,67,127
88086,note_on,0,0,0,,10,,,69,127
88086,note_on,0,0,0,,5,,,77,127
88201,note_off,115,0,0,,5,,,77,127
88201,note_on,0,0,0,,7,,,79,127
88316,note_off,115,0,0,,7,,,79,127
88316,note_off,0,0,0,,10,,,69,127
88316,note_on,0,0,0,,10,,,57,127
88316,note_on,0,0,0,,10,,,81,127
88431,note_on,115,0,0,,1,,,73,127
88489,note_off,58,0,0,,10,,,81,127
88547,note_off,58,0,0,,1,,,73,127
88547,note_off,0,0,0,,10,,,57,127
88547,note_on,0,0,0,,11,,,58,127
88547,note_on,0,0,0,,2,,,74,127
88662,note_on,115,0,0,,7,,,79,127
88775,note_off,113,0,0,,2,,,74,127
88777,note_off,2,0,0,,7,,,79,127
88777,note_off,0,0,0,,11,,,58,127
88777,note_on,0,0,0,,7,,,55,127
88777,note_on,0,0,0,,5,,,77,127
88835,note_off,58,0,0,,5,,,77,127
88835,note_on,0,0,0,,7,,,79,127
88893,note_off,58,0,0,,7,,,79,127
88893,note_on,0,0,0,,5,,,77,127
88951,note_off,58,0,0,,5,,,77,127
88951,note_on,0,0,0,,4,,,76,127
89009,note_off,58,0,0,,4,,,76,127
89009,note_off,0,0,0,,7,,,55,127
89009,note_on,0,0,0,,10,,,57,127
89009,note_on,0,0,0,,5,,,77,127
89124,note_off,115,0,0,,5,,,77,127
89124,note_on,0,0,0,,7,,,79,127
89239,note_off,115,0,0,,7,,,79,127
89239,note_off,0,0,0,,10,,,57,127
89239,note_on,0,0,0,,10,,,69,127
89239,note_on,0,0,0,,10,,,81,127
89354,note_on,115,0,0,,1,,,73,127
89412,note_off,58,0,0,,10,,,81,127
89470,note_off,58,0,0,,1,,,73,127
89470,note_off,0,0,0,,10,,,69,127
89470,note_on,0,0,0,,11,,,70,127
89470,note_on,0,0,0,,2,,,74,127
89585,note_on,115,0,0,,7,,,79,127
89698,note_off,113,0,0,,2,,,74,127
89700,note_off,2,0,0,,7,,,79,127
89700,note_off,0,0,0,,11,,,70,127
89700,note_on,0,0,0,,7,,,67,127
89700,note_on,0,0,0,,5,,,77,127
89758,note_off,58,0,0,,5,,,77,127
89758,note_on,0,0,0,,7,,,79,127
89816,note_off,58,0,0,,7,,,79,127
89816,note_on,0,0,0,,5,,,77,127
89874,note_off,58,0,0,,5,,,77,127
89874,note_on,0,0,0,,4,,,76,127
89932,note_off,58,0,0,,4,,,76,127
89932,note_off,0,0,0,,7,,,67,127
89932,note_on,0,0,0,,10,,,69,127
89932,note_on,0,0,0,,5,,,77,127
89932,note_on,0,0,0,,10,,,81,127
90047,note_off,115,0,0,,5,,,77,127
90047,note_on,0,0,0,,2,,,74,127
90162,note_off,115,0,0,,2,,,74,127
90162,note_off,0,0,0,,10,,,81,127
90162,note_off,0,0,0,,10,,,69,127
90162,note_on,0,0,0,,10,,,57,127
90162,note_on,0,0,0,,7,,,79,127
90162,note_on,0,0,0,,4,,,76,127
90277,note_off,115,0,0,,4,,,76,127
90277,note_on,0,0,0,,1,,,73,127
90392,note_off,115,0,0,,1,,,73,127
90392,note_off,0,0,0,,7,,,79,127
90392,note_off,0,0,0,,10,,,57,127
90392,note_on,0,0,0,,5,,,77,127
90392,note_on,0,0,0,,2,,,62,127
90508,note_on,116,0,0,,10,,,69,127
90564,note_off,56,0,0,,5,,,77,127
90622,note_off,58,0,0,,2,,,62,127
90623,note_off,1,0,0,,10,,,69,127
90624,note_on,1,0,0,,7,,,67,127
90624,note_on,0,0,0,,11,,,70,127
90624,note_on,0,0,0,,7,,,55,127
90740,note_on,116,0,0,,4,,,76,127
90854,note_off,114,0,0,,7,,,55,127
90854,note_off,0,0,0,,11,,,70,127
90854,note_off,0,0,0,,7,,,67,127
90856,note_on,2,0,0,,5,,,65,127
90856,note_on,0,0,0,,10,,,69,127
90856,note_on,0,0,0,,10,,,57,127
90912,note_off,56,0,0,,4,,,76,127
90972,note_on,60,0,0,,2,,,74,127
91086,note_off,114,0,0,,10,,,57,127
91086,note_off,0,0,0,,10,,,69,127
91086,note_off,0,0,0,,5,,,65,127
91088,note_on,2,0,0,,4,,,64,127
91088,note_on,0,0,0,,7,,,67,127
91088,note_on,0,0,0,,10,,,45,127
91144,note_off,56,0,0,,2,,,74,127
91204,note_on,60,0,0,,1,,,73,127
91318,note_off,114,0,0,,10,,,45,127
91318,note_off,0,0,0,,7,,,67,127
91318,note_off,0,0,0,,4,,,64,127
91319,note_off,1,0,0,,1,,,73,127
91320,note_on,1,0,0,,5,,,65,127
91320,note_on,0,0,0,,2,,,74,127
91320,note_on,0,0,0,,2,,,50,127
91436,note_on,116,0,0,,10,,,69,127
91492,note_off,56,0,0,,2,,,74,127
91550,note_off,58,0,0,,2,,,50,127
91551,note_off,1,0,0,,10,,,69,127
91552,note_on,1,0,0,,11,,,70,127
91552,note_on,0,0,0,,7,,,43,127
91665,note_off,113,0,0,,5,,,65,127
91669,note_on,4,0,0,,4,,,64,127
91669,note_on,0,0,0,,7,,,67,127
91725,note_off,56,0,0,,11,,,70,127
91783,note_off,58,0,0,,7,,,43,127
91784,note_off,1,0,0,,7,,,67,127
91785,note_on,1,0,0,,10,,,69,127
91785,note_on,0,0,0,,10,,,45,127
91899,note_off,114,0,0,,4,,,64,127
91901,note_on,2,0,0,,2,,,62,127
91901,note_on,0,0,0,,5,,,65,127
91957,note_off,56,0,0,,10,,,69,127
92015,note_off,58,0,0,,10,,,45,127
92016,note_off,1,0,0,,5,,,65,127
92017,note_on,1,0,0,,7,,,67,127
92017,note_on,0,0,0,,10,,,57,127
92131,note_off,114,0,0,,2,,,62,127
92133,note_on,2,0,0,,4,,,64,127
92133,note_on,0,0,0,,1,,,61,127
92189,note_off,56,0,0,,7,,,67,127
92247,note_off,58,0,0,,10,,,57,127
92248,note_off,1,0,0,,1,,,61,127
92248,note_off,0,0,0,,4,,,64,127
92250,note_on,2,0,0,,2,,,50,127
92250,note_on,0,0,0,,5,,,65,127
92370,note_on,120,0,0,,10,,,57,127
92483,note_off,113,0,0,,2,,,50,127
92485,note_off,2,0,0,,10,,,57,127
92489,note_on,4,0,0,,7,,,43,127
92489,note_on,0,0,0,,11,,,58,127
92601,note_off,112,0,0,,5,,,65,127
92609,note_on,8,0,0,,7,,,67,127
92722,note_off,113,0,0,,11,,,58,127
92722,note_off,0,0,0,,7,,,43,127
92724,note_off,2,0,0,,7,,,67,127
92729,note_on,5,0,0,,10,,,45,127
92729,note_on,0,0,0,,5,,,65,127
92729,note_on,0,0,0,,10,,,57,127
92844,note_off,115,0,0,,5,,,65,127
92849,note_on,5,0,0,,4,,,64,127
92962,note_off,113,0,0,,10,,,57,127
92962,note_off,0,0,0,,10,,,45,127
92964,note_off,2,0,0,,4,,,64,127
92968,note_on,4,0,0,,10,,,45,127
92968,note_on,0,0,0,,2,,,62,127
92968,note_on,0,0,0,,7,,,55,127
93083,note_off,115,0,0,,2,,,62,127
93088,note_on,5,0,0,,1,,,61,127
93201,note_off,113,0,0,,7,,,55,127
93201,note_off,0,0,0,,10,,,45,127
93203,note_off,2,0,0,,1,,,61,127
93226,note_on,23,0,0,,2,,,38,127
93226,note_on,0,0,0,,1,,,61,127
93958,note_off,732,0,0,,1,,,61,127
93958,note_on,0,0,0,,2,,,62,127
95801,note_off,1843,0,0,,2,,,62,127
95801,note_off,0,0,0,,2,,,38,127
99840,end_of_track,4039,1,0,,,,,,
