tick,type,time,meta,track,program,channel,pitch,tempo,note,velocity
0,copyright,0,1,0,,,,,,
0,program_change,0,0,0,6,0,,,,
0,pitchwheel,0,0,0,,0,0,,,
0,program_change,0,0,0,6,1,,,,
0,pitchwheel,0,0,0,,1,-590,,,
0,program_change,0,0,0,6,2,,,,
0,pitchwheel,0,0,0,,2,-272,,,
0,program_change,0,0,0,6,3,,,,
0,pitchwheel,0,0,0,,3,-353,,,
0,program_change,0,0,0,6,4,,,,
0,pitchwheel,0,0,0,,4,-560,,,
0,program_change,0,0,0,6,5,,,,
0,pitchwheel,0,0,0,,5,-80,,,
0,program_change,0,0,0,6,6,,,,
0,pitchwheel,0,0,0,,6,-625,,,
0,program_change,0,0,0,6,7,,,,
0,pitchwheel,0,0,0,,7,-130,,,
0,program_change,0,0,0,6,8,,,,
0,pitchwheel,0,0,0,,8,-512,,,
0,program_change,0,0,0,6,10,,,,
0,pitchwheel,0,0,0,,10,-464,,,
0,program_change,0,0,0,6,11,,,,
0,pitchwheel,0,0,0,,11,-208,,,
0,program_change,0,0,0,6,12,,,,
0,pitchwheel,0,0,0,,12,-553,,,
0,set_tempo,0,1,0,,,,500000,,
134,note_on,134,0,0,,0,,,72,127
134,note_on,0,0,0,,8,,,68,127
134,note_on,0,0,0,,5,,,65,127
134,note_on,0,0,0,,5,,,77,127
200,note_off,66,0,0,,5,,,77,127
201,note_on,1,0,0,,7,,,79,127
267,note_off,66,0,0,,7,,,79,127
268,note_on,1,0,0,,8,,,80,127
668,note_off,400,0,0,,8,,,80,127
668,note_off,0,0,0,,5,,,65,127
668,note_off,0,0,0,,8,,,68,127
668,note_off,0,0,0,,0,,,72,127
669,note_on,1,0,0,,7,,,67,127
669,note_on,0,0,0,,11,,,70,127
669,note_on,0,0,0,,7,,,79,127
936,note_off,267,0,0,,7,,,79,127
937,note_on,1,0,0,,5,,,77,127
1070,note_off,133,0,0,,5,,,77,127
1071,note_on,1,0,0,,4,,,76,127
1204,note_off,133,0,0,,4,,,76,127
1204,note_off,0,0,0,,11,,,70,127
1204,note_off,0,0,0,,7,,,67,127
1205,note_on,1,0,0,,8,,,68,127
1205,note_on,0,0,0,,0,,,72,127
1205,note_on,0,0,0,,4,,,76,127
1472,note_off,267,0,0,,0,,,72,127
1472,note_off,0,0,0,,8,,,68,127
1473,note_on,1,0,0,,11,,,70,127
1473,note_on,0,0,0,,7,,,67,127
1740,note_off,267,0,0,,7,,,67,127
1740,note_off,0,0,0,,11,,,70,127
1740,note_off,0,0,0,,4,,,76,127
1741,note_on,1,0,0,,0,,,72,127
1741,note_on,0,0,0,,8,,,68,127
1741,note_on,0,0,0,,5,,,77,127
2008,note_off,267,0,0,,5,,,77,127
2008,note_off,0,0,0,,8,,,68,127
2009,note_on,1,0,0,,5,,,65,127
2009,note_on,0,0,0,,8,,,80,127
2276,note_off,267,0,0,,5,,,65,127
2276,note_off,0,0,0,,0,,,72,127
2277,note_on,1,0,0,,11,,,70,127
2277,note_on,0,0,0,,1,,,73,127
2411,note_off,134,0,0,,8,,,80,127
2411,note_on,0,0,0,,7,,,79,127
2544,note_off,133,0,0,,7,,,79,127
2544,note_off,0,0,0,,1,,,73,127
2544,note_off,0,0,0,,11,,,70,127
2545,note_on,1,0,0,,8,,,68,127
2545,note_on,0,0,0,,0,,,72,127
2545,note_on,0,0,0,,7,,,79,127
2678,note_off,133,0,0,,7,,,79,127
2679,note_on,1,0,0,,5,,,77,127
2812,note_off,133,0,0,,5,,,77,127
2812,note_off,0,0,0,,0,,,72,127
2812,note_off,0,0,0,,8,,,68,127
2813,note_on,1,0,0,,11,,,70,127
2813,note_on,0,0,0,,7,,,67,127
2813,note_on,0,0,0,,5,,,77,127
2946,note_off,133,0,0,,5,,,77,127
2947,note_on,1,0,0,,4,,,76,127
3080,note_off,133,0,0,,4,,,76,127
3080,note_off,0,0,0,,7,,,67,127
3080,note_off,0,0,0,,11,,,70,127
3081,note_on,1,0,0,,8,,,68,127
3081,note_on,0,0,0,,5,,,65,127
3081,note_on,0,0,0,,4,,,76,127
3214,note_off,133,0,0,,4,,,76,127
3215,note_on,1,0,0,,5,,,77,127
3348,note_off,133,0,0,,5,,,77,127
3348,note_off,0,0,0,,5,,,65,127
3348,note_off,0,0,0,,8,,,68,127
3349,note_on,1,0,0,,0,,,60,127
3349,note_on,0,0,0,,5,,,77,127
3616,note_off,267,0,0,,5,,,77,127
3617,note_on,1,0,0,,0,,,72,127
3617,note_on,0,0,0,,7,,,79,127
3879,note_off,262,0,0,,0,,,60,127
3883,note_off,4,0,0,,7,,,79,127
3883,note_off,0,0,0,,0,,,72,127
3884,note_on,1,0,0,,0,,,72,127
4018,note_on,134,0,0,,11,,,70,127
4151,note_off,133,0,0,,11,,,70,127
4152,note_on,1,0,0,,8,,,68,127
4285,note_off,133,0,0,,8,,,68,127
4286,note_off,1,0,0,,0,,,72,127
4286,note_on,0,0,0,,7,,,67,127
4419,note_off,133,0,0,,7,,,67,127
4420,note_on,1,0,0,,8,,,68,127
4420,note_on,0,0,0,,0,,,72,127
4420,note_on,0,0,0,,5,,,65,127
4420,note_on,0,0,0,,5,,,77,127
4486,note_off,66,0,0,,5,,,77,127
4487,note_on,1,0,0,,7,,,79,127
4553,note_off,66,0,0,,7,,,79,127
4554,note_on,1,0,0,,8,,,80,127
4954,note_off,400,0,0,,8,,,80,127
4954,note_off,0,0,0,,5,,,65,127
4954,note_off,0,0,0,,0,,,72,127
4954,note_off,0,0,0,,8,,,68,127
4955,note_on,1,0,0,,7,,,67,127
4955,note_on,0,0,0,,11,,,70,127
4955,note_on,0,0,0,,7,,,79,127
5222,note_off,267,0,0,,7,,,79,127
5223,note_on,1,0,0,,5,,,77,127
5356,note_off,133,0,0,,5,,,77,127
5357,note_on,1,0,0,,4,,,76,127
5490,note_off,133,0,0,,4,,,76,127
5490,note_off,0,0,0,,11,,,70,127
5490,note_off,0,0,0,,7,,,67,127
5491,note_on,1,0,0,,8,,,68,127
5491,note_on,0,0,0,,0,,,72,127
5491,note_on,0,0,0,,4,,,76,127
5758,note_off,267,0,0,,0,,,72,127
5758,note_off,0,0,0,,8,,,68,127
5759,note_on,1,0,0,,7,,,67,127
5759,note_on,0,0,0,,11,,,70,127
6026,note_off,267,0,0,,11,,,70,127
6026,note_off,0,0,0,,7,,,67,127
6026,note_off,0,0,0,,4,,,76,127
6027,note_on,1,0,0,,0,,,72,127
6027,note_on,0,0,0,,8,,,68,127
6027,note_on,0,0,0,,5,,,77,127
6294,note_off,267,0,0,,5,,,77,127
6294,note_off,0,0,0,,8,,,68,127
6295,note_on,1,0,0,,5,,,65,127
6295,note_on,0,0,0,,8,,,80,127
6562,note_off,267,0,0,,8,,,80,127
6562,note_off,0,0,0,,5,,,65,127
6562,note_off,0,0,0,,0,,,72,127
6563,note_on,1,0,0,,11,,,70,127
6563,note_on,0,0,0,,1,,,73,127
6563,note_on,0,0,0,,7,,,79,127
6696,note_off,133,0,0,,7,,,79,127
6697,note_on,1,0,0,,11,,,82,127
6830,note_off,133,0,0,,11,,,82,127
6830,note_off,0,0,0,,1,,,73,127
6830,note_off,0,0,0,,11,,,70,127
6831,note_on,1,0,0,,7,,,67,127
6831,note_on,0,0,0,,8,,,80,127
6964,note_off,133,0,0,,8,,,80,127
6965,note_on,1,0,0,,7,,,79,127
7098,note_off,133,0,0,,7,,,79,127
7098,note_off,0,0,0,,7,,,67,127
7099,note_on,1,0,0,,0,,,72,127
7099,note_on,0,0,0,,8,,,80,127
7232,note_off,133,0,0,,8,,,80,127
7233,note_on,1,0,0,,5,,,77,127
7366,note_off,133,0,0,,5,,,77,127
7367,note_on,1,0,0,,0,,,60,127
7367,note_on,0,0,0,,7,,,79,127
7500,note_off,133,0,0,,7,,,79,127
7501,note_off,1,0,0,,0,,,72,127
7501,note_on,0,0,0,,4,,,76,127
7634,note_off,133,0,0,,4,,,76,127
7634,note_off,0,0,0,,0,,,60,127
7635,note_on,1,0,0,,5,,,53,127
7635,note_on,0,0,0,,4,,,76,127
8169,note_off,534,0,0,,4,,,76,127
8170,note_on,1,0,0,,5,,,65,127
8170,note_on,0,0,0,,5,,,77,127
8425,note_off,255,0,0,,5,,,77,127
8436,note_off,11,0,0,,5,,,53,127
8437,note_on,1,0,0,,0,,,72,127
8704,note_off,267,0,0,,0,,,72,127
8704,note_off,0,0,0,,5,,,65,127
8705,note_on,1,0,0,,1,,,73,127
8838,note_off,133,0,0,,1,,,73,127
8839,note_on,1,0,0,,0,,,72,127
8972,note_off,133,0,0,,0,,,72,127
8973,note_on,1,0,0,,5,,,65,127
8973,note_on,0,0,0,,1,,,73,127
9106,note_off,133,0,0,,1,,,73,127
9107,note_on,1,0,0,,4,,,76,127
9240,note_off,133,0,0,,4,,,76,127
9240,note_off,0,0,0,,5,,,65,127
9241,note_on,1,0,0,,5,,,65,127
9241,note_on,0,0,0,,5,,,77,127
9374,note_off,133,0,0,,5,,,77,127
9375,note_on,1,0,0,,4,,,76,127
9508,note_off,133,0,0,,4,,,76,127
9508,note_off,0,0,0,,5,,,65,127
9509,note_on,1,0,0,,11,,,82,127
9509,note_on,0,0,0,,5,,,77,127
9642,note_off,133,0,0,,5,,,77,127
9643,note_on,1,0,0,,1,,,73,127
9776,note_off,133,0,0,,1,,,73,127
9776,note_off,0,0,0,,11,,,82,127
9777,note_on,1,0,0,,11,,,82,127
9777,note_on,0,0,0,,1,,,73,127
10044,note_off,267,0,0,,1,,,73,127
10044,note_off,0,0,0,,11,,,82,127
10045,note_on,1,0,0,,8,,,80,127
10045,note_on,0,0,0,,0,,,72,127
10312,note_off,267,0,0,,8,,,80,127
10313,note_on,1,0,0,,8,,,80,127
10580,note_off,267,0,0,,8,,,80,127
10580,note_off,0,0,0,,0,,,72,127
10581,note_on,1,0,0,,5,,,65,127
10581,note_on,0,0,0,,0,,,72,127
10848,note_off,267,0,0,,0,,,72,127
10849,note_on,1,0,0,,1,,,73,127
10982,note_off,133,0,0,,1,,,73,127
10983,note_on,1,0,0,,0,,,72,127
11116,note_off,133,0,0,,0,,,72,127
11116,note_off,0,0,0,,5,,,65,127
11117,note_on,1,0,0,,5,,,65,127
11117,note_on,0,0,0,,1,,,73,127
11250,note_off,133,0,0,,1,,,73,127
11251,note_on,1,0,0,,4,,,76,127
11384,note_off,133,0,0,,4,,,76,127
11384,note_off,0,0,0,,5,,,65,127
11385,note_on,1,0,0,,5,,,65,127
11385,note_on,0,0,0,,5,,,77,127
11518,note_off,133,0,0,,5,,,77,127
11519,note_on,1,0,0,,4,,,76,127
11652,note_off,133,0,0,,4,,,76,127
11652,note_off,0,0,0,,5,,,65,127
11653,note_on,1,0,0,,11,,,82,127
11653,note_on,0,0,0,,5,,,77,127
11786,note_off,133,0,0,,5,,,77,127
11787,note_on,1,0,0,,1,,,73,127
11920,note_off,133,0,0,,1,,,73,127
11920,note_off,0,0,0,,11,,,82,127
11921,note_on,1,0,0,,11,,,82,127
11921,note_on,0,0,0,,1,,,73,127
12188,note_off,267,0,0,,1,,,73,127
12188,note_off,0,0,0,,11,,,82,127
12189,note_on,1,0,0,,8,,,80,127
12189,note_on,0,0,0,,0,,,72,127
12456,note_off,267,0,0,,8,,,80,127
12457,note_on,1,0,0,,8,,,80,127
12590,note_off,133,0,0,,0,,,72,127
12591,note_on,1,0,0,,0,,,72,127
12724,note_off,133,0,0,,0,,,72,127
12724,note_off,0,0,0,,8,,,80,127
12725,note_on,1,0,0,,8,,,80,127
12725,note_on,0,0,0,,1,,,73,127
12858,note_off,133,0,0,,1,,,73,127
12859,note_on,1,0,0,,3,,,75,127
12992,note_off,133,0,0,,3,,,75,127
12992,note_off,0,0,0,,8,,,80,127
12993,note_on,1,0,0,,11,,,82,127
12993,note_on,0,0,0,,1,,,73,127
13126,note_off,133,0,0,,1,,,73,127
13127,note_on,1,0,0,,3,,,75,127
13260,note_off,133,0,0,,3,,,75,127
13260,note_off,0,0,0,,11,,,82,127
13261,note_on,1,0,0,,8,,,80,127
13261,note_on,0,0,0,,0,,,72,127
13394,note_off,133,0,0,,0,,,72,127
13395,note_on,1,0,0,,1,,,73,127
13528,note_off,133,0,0,,1,,,73,127
13528,note_off,0,0,0,,8,,,80,127
13529,note_on,1,0,0,,7,,,79,127
13529,note_on,0,0,0,,11,,,70,127
13662,note_off,133,0,0,,11,,,70,127
13663,note_on,1,0,0,,0,,,72,127
13796,note_off,133,0,0,,0,,,72,127
13796,note_off,0,0,0,,7,,,79,127
13797,note_on,1,0,0,,5,,,77,127
13797,note_on,0,0,0,,8,,,68,127
13930,note_off,133,0,0,,8,,,68,127
13931,note_on,1,0,0,,11,,,70,127
14064,note_off,133,0,0,,11,,,70,127
14064,note_off,0,0,0,,5,,,77,127
14065,note_on,1,0,0,,3,,,75,127
14065,note_on,0,0,0,,7,,,67,127
14198,note_off,133,0,0,,7,,,67,127
14199,note_on,1,0,0,,8,,,68,127
14332,note_off,133,0,0,,8,,,68,127
14332,note_off,0,0,0,,3,,,75,127
14333,note_on,1,0,0,,1,,,73,127
14333,note_on,0,0,0,,5,,,65,127
14466,note_off,133,0,0,,5,,,65,127
14467,note_on,1,0,0,,7,,,67,127
14600,note_off,133,0,0,,7,,,67,127
14600,note_off,0,0,0,,1,,,73,127
14601,note_on,1,0,0,,0,,,72,127
14601,note_on,0,0,0,,3,,,63,127
14734,note_off,133,0,0,,3,,,63,127
14735,note_on,1,0,0,,5,,,65,127
14868,note_off,133,0,0,,5,,,65,127
14868,note_off,0,0,0,,0,,,72,127
14869,note_on,1,0,0,,11,,,70,127
14869,note_on,0,0,0,,1,,,61,127
15002,note_off,133,0,0,,1,,,61,127
15003,note_on,1,0,0,,3,,,63,127
15136,note_off,133,0,0,,3,,,63,127
15136,note_off,0,0,0,,11,,,70,127
15137,note_on,1,0,0,,8,,,68,127
15137,note_on,0,0,0,,0,,,60,127
15270,note_off,133,0,0,,0,,,60,127
15271,note_on,1,0,0,,3,,,63,127
15404,note_off,133,0,0,,3,,,63,127
15404,note_off,0,0,0,,8,,,68,127
15405,note_on,1,0,0,,0,,,72,127
15405,note_on,0,0,0,,1,,,61,127
15538,note_off,133,0,0,,1,,,61,127
15539,note_on,1,0,0,,0,,,60,127
15672,note_off,133,0,0,,0,,,60,127
15672,note_off,0,0,0,,0,,,72,127
15673,note_on,1,0,0,,11,,,70,127
15673,note_on,0,0,0,,1,,,61,127
15806,note_off,133,0,0,,1,,,61,127
15807,note_on,1,0,0,,5,,,65,127
15940,note_off,133,0,0,,5,,,65,127
15940,note_off,0,0,0,,11,,,70,127
15941,note_on,1,0,0,,8,,,68,127
15941,note_on,0,0,0,,3,,,63,127
16074,note_off,133,0,0,,3,,,63,127
16075,note_on,1,0,0,,2,,,62,127
16208,note_off,133,0,0,,2,,,62,127
16208,note_off,0,0,0,,8,,,68,127
16209,note_on,1,0,0,,7,,,67,127
16209,note_on,0,0,0,,3,,,63,127
16342,note_off,133,0,0,,3,,,63,127
16343,note_on,1,0,0,,5,,,65,127
16476,note_off,133,0,0,,5,,,65,127
16476,note_off,0,0,0,,7,,,67,127
16477,note_on,1,0,0,,7,,,67,127
16610,note_off,133,0,0,,7,,,67,127
16611,note_on,1,0,0,,8,,,68,127
16744,note_off,133,0,0,,8,,,68,127
16745,note_on,1,0,0,,11,,,70,127
16878,note_off,133,0,0,,11,,,70,127
16879,note_on,1,0,0,,0,,,72,127
17012,note_off,133,0,0,,0,,,72,127
17013,note_on,1,0,0,,1,,,73,127
17146,note_off,133,0,0,,1,,,73,127
17147,note_on,1,0,0,,11,,,70,127
17280,note_off,133,0,0,,11,,,70,127
17281,note_on,1,0,0,,0,,,72,127
17414,note_off,133,0,0,,0,,,72,127
17415,note_on,1,0,0,,1,,,73,127
17548,note_off,133,0,0,,1,,,73,127
17549,note_on,1,0,0,,3,,,75,127
17682,note_off,133,0,0,,3,,,75,127
17683,note_on,1,0,0,,5,,,77,127
17816,note_off,133,0,0,,5,,,77,127
17817,note_on,1,0,0,,7,,,79,127
17950,note_off,133,0,0,,7,,,79,127
17951,note_on,1,0,0,,8,,,80,127
18084,note_off,133,0,0,,8,,,80,127
18085,note_on,1,0,0,,11,,,82,127
18218,note_off,133,0,0,,11,,,82,127
18219,note_on,1,0,0,,0,,,84,127
18353,note_on,134,0,0,,0,,,72,127
18353,note_on,0,0,0,,3,,,75,127
18484,note_off,131,0,0,,0,,,84,127
18487,note_on,3,0,0,,0,,,84,127
18520,note_off,33,0,0,,3,,,75,127
18619,note_off,99,0,0,,0,,,72,127
18620,note_on,1,0,0,,7,,,67,127
18620,note_on,0,0,0,,1,,,73,127
18653,note_off,33,0,0,,0,,,84,127
18753,note_on,100,0,0,,11,,,82,127
18786,note_off,33,0,0,,1,,,73,127
18885,note_off,99,0,0,,7,,,67,127
18886,note_on,1,0,0,,8,,,68,127
18886,note_on,0,0,0,,0,,,72,127
18919,note_off,33,0,0,,11,,,82,127
19019,note_on,100,0,0,,8,,,80,127
19052,note_off,33,0,0,,0,,,72,127
19151,note_off,99,0,0,,8,,,68,127
19152,note_on,1,0,0,,3,,,63,127
19152,note_on,0,0,0,,11,,,70,127
19185,note_off,33,0,0,,8,,,80,127
19285,note_on,100,0,0,,7,,,79,127
19318,note_off,33,0,0,,11,,,70,127
19417,note_off,99,0,0,,3,,,63,127
19418,note_on,1,0,0,,5,,,65,127
19418,note_on,0,0,0,,8,,,68,127
19451,note_off,33,0,0,,7,,,79,127
19551,note_on,100,0,0,,5,,,77,127
19584,note_off,33,0,0,,8,,,68,127
19683,note_off,99,0,0,,5,,,65,127
19684,note_on,1,0,0,,0,,,60,127
19684,note_on,0,0,0,,7,,,67,127
19717,note_off,33,0,0,,5,,,77,127
19817,note_on,100,0,0,,3,,,75,127
19850,note_off,33,0,0,,7,,,67,127
19949,note_off,99,0,0,,0,,,60,127
19950,note_on,1,0,0,,1,,,61,127
19950,note_on,0,0,0,,5,,,65,127
19983,note_off,33,0,0,,3,,,75,127
20083,note_on,100,0,0,,1,,,73,127
20116,note_off,33,0,0,,5,,,65,127
20215,note_off,99,0,0,,1,,,61,127
20216,note_on,1,0,0,,8,,,56,127
20216,note_on,0,0,0,,3,,,63,127
20249,note_off,33,0,0,,1,,,73,127
20349,note_on,100,0,0,,0,,,72,127
20382,note_off,33,0,0,,3,,,63,127
20481,note_off,99,0,0,,0,,,72,127
20481,note_off,0,0,0,,8,,,56,127
20482,note_on,1,0,0,,3,,,51,127
20482,note_on,0,0,0,,11,,,70,127
20615,note_off,133,0,0,,11,,,70,127
20616,note_on,1,0,0,,8,,,68,127
20749,note_off,133,0,0,,8,,,68,127
20750,note_on,1,0,0,,3,,,63,127
20750,note_on,0,0,0,,7,,,67,127
20883,note_off,133,0,0,,7,,,67,127
20884,note_on,1,0,0,,5,,,65,127
21012,note_off,128,0,0,,3,,,51,127
21016,note_off,4,0,0,,5,,,65,127
21016,note_off,0,0,0,,3,,,63,127
21017,note_on,1,0,0,,3,,,63,127
21151,note_on,134,0,0,,1,,,61,127
21284,note_off,133,0,0,,1,,,61,127
21285,note_on,1,0,0,,0,,,60,127
21418,note_off,133,0,0,,0,,,60,127
21419,note_on,1,0,0,,11,,,58,127
21552,note_off,133,0,0,,11,,,58,127
21552,note_off,0,0,0,,3,,,63,127
21553,note_on,1,0,0,,8,,,56,127
21553,note_on,0,0,0,,3,,,75,127
21686,note_off,133,0,0,,3,,,75,127
21687,note_on,1,0,0,,0,,,84,127
21820,note_off,133,0,0,,0,,,84,127
21820,note_off,0,0,0,,8,,,56,127
21821,note_on,1,0,0,,7,,,67,127
21821,note_on,0,0,0,,1,,,73,127
21954,note_off,133,0,0,,1,,,73,127
21955,note_on,1,0,0,,11,,,82,127
22088,note_off,133,0,0,,11,,,82,127
22088,note_off,0,0,0,,7,,,67,127
22089,note_on,1,0,0,,8,,,68,127
22089,note_on,0,0,0,,0,,,72,127
22222,note_off,133,0,0,,0,,,72,127
22223,note_on,1,0,0,,8,,,80,127
22356,note_off,133,0,0,,8,,,80,127
22356,note_off,0,0,0,,8,,,68,127
22357,note_on,1,0,0,,3,,,63,127
22357,note_on,0,0,0,,11,,,70,127
22490,note_off,133,0,0,,11,,,70,127
22491,note_on,1,0,0,,7,,,79,127
22624,note_off,133,0,0,,7,,,79,127
22624,note_off,0,0,0,,3,,,63,127
22625,note_on,1,0,0,,5,,,65,127
22625,note_on,0,0,0,,8,,,68,127
22758,note_off,133,0,0,,8,,,68,127
22759,note_on,1,0,0,,5,,,77,127
22892,note_off,133,0,0,,5,,,77,127
22892,note_off,0,0,0,,5,,,65,127
22893,note_on,1,0,0,,0,,,60,127
22893,note_on,0,0,0,,7,,,67,127
23026,note_off,133,0,0,,7,,,67,127
23027,note_on,1,0,0,,3,,,75,127
23160,note_off,133,0,0,,3,,,75,127
23160,note_off,0,0,0,,0,,,60,127
23161,note_on,1,0,0,,1,,,61,127
23161,note_on,0,0,0,,5,,,65,127
23294,note_off,133,0,0,,5,,,65,127
23295,note_on,1,0,0,,1,,,73,127
23428,note_off,133,0,0,,1,,,73,127
23428,note_off,0,0,0,,1,,,61,127
23429,note_on,1,0,0,,8,,,56,127
23429,note_on,0,0,0,,3,,,63,127
23562,note_off,133,0,0,,3,,,63,127
23563,note_on,1,0,0,,0,,,72,127
23696,note_off,133,0,0,,0,,,72,127
23696,note_off,0,0,0,,8,,,56,127
23697,note_on,1,0,0,,3,,,51,127
23697,note_on,0,0,0,,11,,,70,127
23830,note_off,133,0,0,,11,,,70,127
23831,note_on,1,0,0,,8,,,68,127
23964,note_off,133,0,0,,8,,,68,127
23965,note_on,1,0,0,,3,,,39,127
23965,note_on,0,0,0,,7,,,67,127
24098,note_off,133,0,0,,7,,,67,127
24099,note_on,1,0,0,,5,,,65,127
24232,note_off,133,0,0,,5,,,65,127
24233,note_on,1,0,0,,3,,,63,127
24366,note_off,133,0,0,,3,,,63,127
24367,note_on,1,0,0,,1,,,61,127
24500,note_off,133,0,0,,1,,,61,127
24500,note_off,0,0,0,,3,,,39,127
24500,note_off,0,0,0,,3,,,51,127
24501,note_on,1,0,0,,7,,,55,127
24501,note_on,0,0,0,,0,,,60,127
24634,note_off,133,0,0,,0,,,60,127
24635,note_on,1,0,0,,11,,,58,127
24768,note_off,133,0,0,,11,,,58,127
24768,note_off,0,0,0,,7,,,55,127
24769,note_on,1,0,0,,8,,,56,127
24769,note_on,0,0,0,,0,,,60,127
24902,note_off,133,0,0,,0,,,60,127
24903,note_on,1,0,0,,1,,,61,127
25036,note_off,133,0,0,,1,,,61,127
25036,note_off,0,0,0,,8,,,56,127
25037,note_on,1,0,0,,1,,,49,127
25037,note_on,0,0,0,,3,,,63,127
25170,note_off,133,0,0,,3,,,63,127
25171,note_on,1,0,0,,1,,,61,127
25304,note_off,133,0,0,,1,,,61,127
25304,note_off,0,0,0,,1,,,49,127
25305,note_on,1,0,0,,3,,,51,127
25305,note_on,0,0,0,,0,,,60,127
25438,note_off,133,0,0,,0,,,60,127
25439,note_on,1,0,0,,11,,,58,127
25572,note_off,133,0,0,,11,,,58,127
25573,note_on,1,0,0,,3,,,39,127
25573,note_on,0,0,0,,8,,,56,127
25706,note_off,133,0,0,,8,,,56,127
25707,note_on,1,0,0,,7,,,55,127
25835,note_off,128,0,0,,3,,,51,127
25839,note_off,4,0,0,,7,,,55,127
25839,note_off,0,0,0,,3,,,39,127
25840,note_on,1,0,0,,8,,,44,127
25840,note_on,0,0,0,,8,,,56,127
26002,note_on,162,0,0,,0,,,60,127
26105,note_off,103,0,0,,8,,,56,127
26106,note_off,1,0,0,,8,,,44,127
26134,note_off,28,0,0,,0,,,60,127
26135,note_on,1,0,0,,11,,,58,127
26268,note_off,133,0,0,,11,,,58,127
26269,note_on,1,0,0,,8,,,56,127
26402,note_off,133,0,0,,8,,,56,127
26403,note_on,1,0,0,,2,,,62,127
26536,note_off,133,0,0,,2,,,62,127
26537,note_on,1,0,0,,2,,,62,127
26670,note_off,133,0,0,,2,,,62,127
26671,note_on,1,0,0,,3,,,63,127
26671,note_on,0,0,0,,5,,,53,127
26671,note_on,0,0,0,,8,,,56,127
26804,note_off,133,0,0,,3,,,63,127
26805,note_on,1,0,0,,5,,,65,127
26938,note_off,133,0,0,,5,,,65,127
26938,note_off,0,0,0,,8,,,56,127
26938,note_off,0,0,0,,5,,,53,127
26939,note_on,1,0,0,,3,,,63,127
26939,note_on,0,0,0,,7,,,55,127
26939,note_on,0,0,0,,11,,,58,127
27072,note_off,133,0,0,,3,,,63,127
27073,note_on,1,0,0,,3,,,63,127
27206,note_off,133,0,0,,3,,,63,127
27206,note_off,0,0,0,,11,,,58,127
27206,note_off,0,0,0,,7,,,55,127
27207,note_on,1,0,0,,5,,,65,127
27207,note_on,0,0,0,,7,,,55,127
27207,note_on,0,0,0,,11,,,58,127
27340,note_off,133,0,0,,5,,,65,127
27341,note_on,1,0,0,,7,,,67,127
27474,note_off,133,0,0,,7,,,67,127
27474,note_off,0,0,0,,11,,,58,127
27474,note_off,0,0,0,,7,,,55,127
27475,note_on,1,0,0,,5,,,65,127
27475,note_on,0,0,0,,2,,,50,127
27475,note_on,0,0,0,,11,,,58,127
27608,note_off,133,0,0,,5,,,65,127
27609,note_on,1,0,0,,5,,,65,127
27742,note_off,133,0,0,,5,,,65,127
27742,note_off,0,0,0,,11,,,58,127
27742,note_off,0,0,0,,2,,,50,127
27743,note_on,1,0,0,,7,,,67,127
27743,note_on,0,0,0,,2,,,50,127
27743,note_on,0,0,0,,11,,,58,127
27876,note_off,133,0,0,,7,,,67,127
27877,note_on,1,0,0,,8,,,68,127
28010,note_off,133,0,0,,8,,,68,127
28010,note_off,0,0,0,,11,,,58,127
28010,note_off,0,0,0,,2,,,50,127
28011,note_on,1,0,0,,7,,,67,127
28011,note_on,0,0,0,,1,,,49,127
28011,note_on,0,0,0,,11,,,58,127
28144,note_off,133,0,0,,7,,,67,127
28145,note_on,1,0,0,,7,,,67,127
28278,note_off,133,0,0,,7,,,67,127
28278,note_off,0,0,0,,11,,,58,127
28278,note_off,0,0,0,,1,,,49,127
28279,note_on,1,0,0,,8,,,68,127
28279,note_on,0,0,0,,1,,,49,127
28279,note_on,0,0,0,,11,,,58,127
28412,note_off,133,0,0,,8,,,68,127
28413,note_on,1,0,0,,11,,,70,127
28546,note_off,133,0,0,,11,,,70,127
28546,note_off,0,0,0,,11,,,58,127
28546,note_off,0,0,0,,1,,,49,127
28547,note_on,1,0,0,,8,,,68,127
28547,note_on,0,0,0,,0,,,60,127
28547,note_on,0,0,0,,0,,,48,127
28680,note_off,133,0,0,,8,,,68,127
28681,note_on,1,0,0,,0,,,72,127
28814,note_off,133,0,0,,0,,,72,127
28814,note_off,0,0,0,,0,,,48,127
28814,note_off,0,0,0,,0,,,60,127
28815,note_on,1,0,0,,11,,,70,127
28815,note_on,0,0,0,,7,,,55,127
28815,note_on,0,0,0,,11,,,58,127
28948,note_off,133,0,0,,11,,,70,127
28949,note_on,1,0,0,,1,,,73,127
29082,note_off,133,0,0,,1,,,73,127
29082,note_off,0,0,0,,11,,,58,127
29082,note_off,0,0,0,,7,,,55,127
29083,note_on,1,0,0,,0,,,72,127
29083,note_on,0,0,0,,8,,,56,127
29083,note_on,0,0,0,,0,,,60,127
29216,note_off,133,0,0,,0,,,72,127
29217,note_on,1,0,0,,3,,,75,127
29350,note_off,133,0,0,,3,,,75,127
29350,note_off,0,0,0,,0,,,60,127
29350,note_off,0,0,0,,8,,,56,127
29351,note_on,1,0,0,,1,,,73,127
29351,note_on,0,0,0,,11,,,58,127
29351,note_on,0,0,0,,1,,,61,127
29484,note_off,133,0,0,,1,,,73,127
29485,note_on,1,0,0,,5,,,77,127
29618,note_off,133,0,0,,5,,,77,127
29618,note_off,0,0,0,,1,,,61,127
29618,note_off,0,0,0,,11,,,58,127
29619,note_on,1,0,0,,3,,,75,127
29619,note_on,0,0,0,,0,,,60,127
29619,note_on,0,0,0,,3,,,63,127
29752,note_off,133,0,0,,3,,,75,127
29753,note_on,1,0,0,,7,,,79,127
29886,note_off,133,0,0,,7,,,79,127
29886,note_off,0,0,0,,3,,,63,127
29886,note_off,0,0,0,,0,,,60,127
29887,note_on,1,0,0,,5,,,77,127
29887,note_on,0,0,0,,5,,,65,127
29887,note_on,0,0,0,,1,,,61,127
30020,note_off,133,0,0,,5,,,77,127
30021,note_on,1,0,0,,8,,,80,127
30154,note_off,133,0,0,,8,,,80,127
30154,note_off,0,0,0,,1,,,61,127
30154,note_off,0,0,0,,5,,,65,127
30155,note_on,1,0,0,,7,,,79,127
30155,note_on,0,0,0,,3,,,63,127
30155,note_on,0,0,0,,7,,,67,127
30288,note_off,133,0,0,,7,,,79,127
30289,note_on,1,0,0,,8,,,80,127
30422,note_off,133,0,0,,8,,,80,127
30422,note_off,0,0,0,,7,,,67,127
30422,note_off,0,0,0,,3,,,63,127
30423,note_on,1,0,0,,7,,,79,127
30423,note_on,0,0,0,,8,,,68,127
30423,note_on,0,0,0,,5,,,65,127
30556,note_off,133,0,0,,7,,,79,127
30557,note_on,1,0,0,,5,,,77,127
30690,note_off,133,0,0,,5,,,77,127
30690,note_off,0,0,0,,5,,,65,127
30690,note_off,0,0,0,,8,,,68,127
30691,note_on,1,0,0,,3,,,75,127
30691,note_on,0,0,0,,11,,,70,127
30691,note_on,0,0,0,,7,,,67,127
30824,note_off,133,0,0,,3,,,75,127
30825,note_on,1,0,0,,1,,,73,127
30958,note_off,133,0,0,,1,,,73,127
30958,note_off,0,0,0,,7,,,67,127
30958,note_off,0,0,0,,11,,,70,127
30959,note_on,1,0,0,,0,,,72,127
30959,note_on,0,0,0,,3,,,63,127
30959,note_on,0,0,0,,7,,,67,127
31092,note_off,133,0,0,,0,,,72,127
31093,note_on,1,0,0,,11,,,70,127
31226,note_off,133,0,0,,11,,,70,127
31226,note_off,0,0,0,,7,,,67,127
31226,note_off,0,0,0,,3,,,63,127
31227,note_on,1,0,0,,0,,,72,127
31227,note_on,0,0,0,,8,,,68,127
31360,note_off,133,0,0,,0,,,72,127
31361,note_on,1,0,0,,1,,,73,127
31494,note_off,133,0,0,,1,,,73,127
31494,note_off,0,0,0,,8,,,68,127
31495,note_on,1,0,0,,3,,,75,127
31495,note_on,0,0,0,,1,,,61,127
31628,note_off,133,0,0,,3,,,75,127
31629,note_on,1,0,0,,1,,,73,127
31762,note_off,133,0,0,,1,,,73,127
31762,note_off,0,0,0,,1,,,61,127
31763,note_on,1,0,0,,0,,,72,127
31763,note_on,0,0,0,,3,,,63,127
31896,note_off,133,0,0,,0,,,72,127
31897,note_on,1,0,0,,11,,,70,127
32030,note_off,133,0,0,,11,,,70,127
32031,note_on,1,0,0,,8,,,68,127
32031,note_on,0,0,0,,3,,,51,127
32164,note_off,133,0,0,,8,,,68,127
32165,note_on,1,0,0,,7,,,67,127
32260,note_off,95,0,0,,3,,,63,127
32263,note_off,3,0,0,,7,,,67,127
32287,note_off,24,0,0,,3,,,51,127
32300,note_on,13,0,0,,8,,,80,127
32300,note_on,0,0,0,,8,,,56,127
32433,note_off,133,0,0,,8,,,80,127
32434,note_on,1,0,0,,0,,,84,127
32567,note_off,133,0,0,,0,,,84,127
32567,note_off,0,0,0,,8,,,56,127
32568,note_on,1,0,0,,11,,,82,127
32568,note_on,0,0,0,,8,,,68,127
32701,note_off,133,0,0,,11,,,82,127
32702,note_on,1,0,0,,8,,,80,127
32835,note_off,133,0,0,,8,,,80,127
32836,note_on,1,0,0,,7,,,79,127
32969,note_off,133,0,0,,7,,,79,127
32970,note_on,1,0,0,,5,,,77,127
33103,note_off,133,0,0,,5,,,77,127
33103,note_off,0,0,0,,8,,,68,127
33104,note_on,1,0,0,,3,,,75,127
33104,note_on,0,0,0,,7,,,67,127
33237,note_off,133,0,0,,3,,,75,127
33238,note_on,1,0,0,,1,,,73,127
33371,note_off,133,0,0,,1,,,73,127
33371,note_off,0,0,0,,7,,,67,127
33372,note_on,1,0,0,,0,,,72,127
33372,note_on,0,0,0,,8,,,68,127
33505,note_off,133,0,0,,0,,,72,127
33506,note_on,1,0,0,,8,,,80,127
33639,note_off,133,0,0,,8,,,80,127
33639,note_off,0,0,0,,8,,,68,127
33640,note_on,1,0,0,,7,,,79,127
33640,note_on,0,0,0,,8,,,68,127
33773,note_off,133,0,0,,7,,,79,127
33774,note_on,1,0,0,,5,,,77,127
33907,note_off,133,0,0,,5,,,77,127
33908,note_on,1,0,0,,3,,,75,127
34041,note_off,133,0,0,,3,,,75,127
34042,note_on,1,0,0,,1,,,73,127
34175,note_off,133,0,0,,1,,,73,127
34175,note_off,0,0,0,,8,,,68,127
34176,note_on,1,0,0,,0,,,72,127
34176,note_on,0,0,0,,7,,,67,127
34309,note_off,133,0,0,,0,,,72,127
34310,note_on,1,0,0,,11,,,70,127
34443,note_off,133,0,0,,11,,,70,127
34443,note_off,0,0,0,,7,,,67,127
34444,note_on,1,0,0,,0,,,72,127
34444,note_on,0,0,0,,8,,,68,127
34577,note_off,133,0,0,,0,,,72,127
34578,note_on,1,0,0,,5,,,77,127
34711,note_off,133,0,0,,5,,,77,127
34711,note_off,0,0,0,,8,,,68,127
34712,note_on,1,0,0,,3,,,75,127
34712,note_on,0,0,0,,1,,,61,127
34845,note_off,133,0,0,,3,,,75,127
34846,note_on,1,0,0,,1,,,73,127
34979,note_off,133,0,0,,1,,,73,127
34979,note_off,0,0,0,,1,,,61,127
34980,note_on,1,0,0,,0,,,72,127
34980,note_on,0,0,0,,3,,,63,127
35113,note_off,133,0,0,,0,,,72,127
35114,note_on,1,0,0,,11,,,70,127
35247,note_off,133,0,0,,11,,,70,127
35248,note_on,1,0,0,,8,,,68,127
35248,note_on,0,0,0,,3,,,51,127
35381,note_off,133,0,0,,8,,,68,127
35382,note_on,1,0,0,,7,,,67,127
35510,note_off,128,0,0,,3,,,63,127
35514,note_off,4,0,0,,7,,,67,127
35514,note_off,0,0,0,,3,,,51,127
35515,note_on,1,0,0,,8,,,68,127
35515,note_on,0,0,0,,0,,,60,127
35515,note_on,0,0,0,,8,,,56,127
35648,note_off,133,0,0,,8,,,68,127
35649,note_on,1,0,0,,0,,,72,127
35782,note_off,133,0,0,,0,,,72,127
35782,note_off,0,0,0,,8,,,56,127
35782,note_off,0,0,0,,0,,,60,127
35783,note_on,1,0,0,,11,,,70,127
35783,note_on,0,0,0,,8,,,56,127
35783,note_on,0,0,0,,0,,,60,127
35916,note_off,133,0,0,,11,,,70,127
35917,note_on,1,0,0,,8,,,68,127
36050,note_off,133,0,0,,8,,,68,127
36051,note_on,1,0,0,,7,,,67,127
36184,note_off,133,0,0,,7,,,67,127
36185,note_on,1,0,0,,5,,,65,127
36318,note_off,133,0,0,,5,,,65,127
36318,note_off,0,0,0,,0,,,60,127
36318,note_off,0,0,0,,8,,,56,127
36319,note_on,1,0,0,,3,,,63,127
36319,note_on,0,0,0,,11,,,58,127
36319,note_on,0,0,0,,7,,,55,127
36452,note_off,133,0,0,,3,,,63,127
36453,note_on,1,0,0,,1,,,61,127
36586,note_off,133,0,0,,1,,,61,127
36586,note_off,0,0,0,,7,,,55,127
36586,note_off,0,0,0,,11,,,58,127
36587,note_on,1,0,0,,8,,,56,127
36587,note_on,0,0,0,,0,,,60,127
36721,note_on,134,0,0,,5,,,65,127
36854,note_off,133,0,0,,5,,,65,127
36854,note_off,0,0,0,,0,,,60,127
36854,note_off,0,0,0,,8,,,56,127
36855,note_on,1,0,0,,3,,,63,127
36855,note_on,0,0,0,,1,,,49,127
36988,note_off,133,0,0,,3,,,63,127
36989,note_on,1,0,0,,1,,,61,127
37122,note_off,133,0,0,,1,,,61,127
37122,note_off,0,0,0,,1,,,49,127
37123,note_on,1,0,0,,0,,,60,127
37123,note_on,0,0,0,,3,,,51,127
37256,note_off,133,0,0,,0,,,60,127
37257,note_on,1,0,0,,11,,,58,127
37390,note_off,133,0,0,,11,,,58,127
37391,note_on,1,0,0,,8,,,56,127
37391,note_on,0,0,0,,3,,,39,127
37524,note_off,133,0,0,,8,,,56,127
37525,note_on,1,0,0,,7,,,55,127
37653,note_off,128,0,0,,3,,,51,127
37657,note_off,4,0,0,,7,,,55,127
37657,note_off,0,0,0,,3,,,39,127
37658,note_on,1,0,0,,8,,,56,127
37658,note_on,0,0,0,,8,,,44,127
37791,note_off,133,0,0,,8,,,56,127
37792,note_on,1,0,0,,0,,,60,127
37925,note_off,133,0,0,,0,,,60,127
37926,note_on,1,0,0,,11,,,58,127
38059,note_off,133,0,0,,11,,,58,127
38060,note_on,1,0,0,,8,,,56,127
38193,note_off,133,0,0,,8,,,56,127
38194,note_on,1,0,0,,3,,,63,127
38327,note_off,133,0,0,,3,,,63,127
38328,note_on,1,0,0,,0,,,60,127
38461,note_off,133,0,0,,0,,,60,127
38462,note_on,1,0,0,,8,,,68,127
38595,note_off,133,0,0,,8,,,68,127
38596,note_on,1,0,0,,3,,,63,127
38729,note_off,133,0,0,,3,,,63,127
38729,note_off,0,0,0,,8,,,44,127
38730,note_on,1,0,0,,0,,,72,127
38730,note_on,0,0,0,,8,,,56,127
38730,note_on,0,0,0,,8,,,44,127
38863,note_off,133,0,0,,0,,,72,127
38864,note_on,1,0,0,,8,,,68,127
38997,note_off,133,0,0,,8,,,68,127
38998,note_on,1,0,0,,3,,,75,127
39131,note_off,133,0,0,,3,,,75,127
39132,note_on,1,0,0,,0,,,72,127
39265,note_off,133,0,0,,0,,,72,127
39266,note_on,1,0,0,,8,,,80,127
39399,note_off,133,0,0,,8,,,80,127
39400,note_on,1,0,0,,3,,,75,127
39533,note_off,133,0,0,,3,,,75,127
39534,note_on,1,0,0,,0,,,72,127
39667,note_off,133,0,0,,0,,,72,127
39668,note_on,1,0,0,,3,,,75,127
39801,note_off,133,0,0,,3,,,75,127
39801,note_off,0,0,0,,8,,,44,127
39801,note_off,0,0,0,,8,,,56,127
39802,note_on,1,0,0,,8,,,68,127
39802,note_on,0,0,0,,8,,,56,127
39802,note_on,0,0,0,,8,,,44,127
40405,note_off,603,0,0,,8,,,68,127
40472,note_off,67,0,0,,8,,,44,127
40472,note_off,0,0,0,,8,,,56,127
40472,note_on,0,0,0,,8,,,80,127
40605,note_off,133,0,0,,8,,,80,127
40606,note_on,1,0,0,,11,,,82,127
40739,note_off,133,0,0,,11,,,82,127
40740,note_on,1,0,0,,0,,,84,127
40873,note_off,133,0,0,,0,,,84,127
40874,note_on,1,0,0,,5,,,77,127
41007,note_off,133,0,0,,5,,,77,127
41008,note_on,1,0,0,,5,,,77,127
41141,note_off,133,0,0,,5,,,77,127
41142,note_on,1,0,0,,7,,,79,127
41142,note_on,0,0,0,,8,,,68,127
41142,note_on,0,0,0,,0,,,72,127
41275,note_off,133,0,0,,7,,,79,127
41276,note_on,1,0,0,,8,,,80,127
41409,note_off,133,0,0,,8,,,80,127
41409,note_off,0,0,0,,0,,,72,127
41409,note_off,0,0,0,,8,,,68,127
41410,note_on,1,0,0,,2,,,74,127
41410,note_on,0,0,0,,8,,,68,127
41410,note_on,0,0,0,,11,,,70,127
41543,note_off,133,0,0,,2,,,74,127
41544,note_on,1,0,0,,2,,,74,127
41677,note_off,133,0,0,,2,,,74,127
41677,note_off,0,0,0,,11,,,70,127
41677,note_off,0,0,0,,8,,,68,127
41678,note_on,1,0,0,,3,,,75,127
41678,note_on,0,0,0,,11,,,70,127
41678,note_on,0,0,0,,8,,,68,127
41811,note_off,133,0,0,,3,,,75,127
41812,note_on,1,0,0,,5,,,77,127
41945,note_off,133,0,0,,5,,,77,127
41945,note_off,0,0,0,,8,,,68,127
41945,note_off,0,0,0,,11,,,70,127
41946,note_on,1,0,0,,5,,,77,127
41946,note_on,0,0,0,,7,,,67,127
41946,note_on,0,0,0,,11,,,70,127
42213,note_off,267,0,0,,11,,,70,127
42213,note_off,0,0,0,,7,,,67,127
42213,note_off,0,0,0,,5,,,77,127
42214,note_on,1,0,0,,3,,,75,127
42214,note_on,0,0,0,,7,,,67,127
42214,note_on,0,0,0,,11,,,70,127
42481,note_off,267,0,0,,11,,,70,127
42481,note_off,0,0,0,,7,,,67,127
42482,note_on,1,0,0,,7,,,67,127
42482,note_on,0,0,0,,11,,,70,127
42615,note_off,133,0,0,,3,,,75,127
42616,note_on,1,0,0,,8,,,80,127
42683,note_off,67,0,0,,11,,,70,127
42683,note_off,0,0,0,,7,,,67,127
42749,note_off,66,0,0,,8,,,80,127
42750,note_on,1,0,0,,11,,,82,127
42883,note_off,133,0,0,,11,,,82,127
42884,note_on,1,0,0,,0,,,84,127
43017,note_off,133,0,0,,0,,,84,127
43018,note_on,1,0,0,,5,,,77,127
43151,note_off,133,0,0,,5,,,77,127
43152,note_on,1,0,0,,5,,,77,127
43285,note_off,133,0,0,,5,,,77,127
43286,note_on,1,0,0,,7,,,79,127
43286,note_on,0,0,0,,8,,,68,127
43286,note_on,0,0,0,,0,,,72,127
43419,note_off,133,0,0,,7,,,79,127
43420,note_on,1,0,0,,8,,,80,127
43553,note_off,133,0,0,,8,,,80,127
43553,note_off,0,0,0,,0,,,72,127
43553,note_off,0,0,0,,8,,,68,127
43554,note_on,1,0,0,,2,,,74,127
43554,note_on,0,0,0,,8,,,68,127
43554,note_on,0,0,0,,11,,,70,127
43687,note_off,133,0,0,,2,,,74,127
43688,note_on,1,0,0,,2,,,74,127
43821,note_off,133,0,0,,2,,,74,127
43821,note_off,0,0,0,,11,,,70,127
43821,note_off,0,0,0,,8,,,68,127
43822,note_on,1,0,0,,3,,,75,127
43822,note_on,0,0,0,,11,,,70,127
43822,note_on,0,0,0,,8,,,68,127
43955,note_off,133,0,0,,3,,,75,127
43956,note_on,1,0,0,,5,,,77,127
44089,note_off,133,0,0,,5,,,77,127
44089,note_off,0,0,0,,8,,,68,127
44089,note_off,0,0,0,,11,,,70,127
44090,note_on,1,0,0,,5,,,77,127
44090,note_on,0,0,0,,7,,,67,127
44090,note_on,0,0,0,,11,,,70,127
44357,note_off,267,0,0,,11,,,70,127
44357,note_off,0,0,0,,7,,,67,127
44357,note_off,0,0,0,,5,,,77,127
44358,note_on,1,0,0,,3,,,75,127
44358,note_on,0,0,0,,7,,,67,127
44358,note_on,0,0,0,,11,,,70,127
44625,note_off,267,0,0,,11,,,70,127
44625,note_off,0,0,0,,7,,,67,127
44626,note_on,1,0,0,,7,,,67,127
44626,note_on,0,0,0,,11,,,70,127
44759,note_off,133,0,0,,3,,,75,127
44760,note_on,1,0,0,,7,,,79,127
44893,note_off,133,0,0,,7,,,79,127
44893,note_off,0,0,0,,11,,,70,127
44893,note_off,0,0,0,,7,,,67,127
44894,note_on,1,0,0,,8,,,80,127
44894,note_on,0,0,0,,7,,,67,127
44894,note_on,0,0,0,,11,,,70,127
45027,note_off,133,0,0,,8,,,80,127
45028,note_on,1,0,0,,11,,,82,127
45161,note_off,133,0,0,,11,,,82,127
45161,note_off,0,0,0,,11,,,70,127
45161,note_off,0,0,0,,7,,,67,127
45162,note_on,1,0,0,,4,,,76,127
45162,note_on,0,0,0,,7,,,67,127
45162,note_on,0,0,0,,11,,,70,127
45295,note_off,133,0,0,,4,,,76,127
45296,note_on,1,0,0,,4,,,76,127
45429,note_off,133,0,0,,4,,,76,127
45429,note_off,0,0,0,,11,,,70,127
45429,note_off,0,0,0,,7,,,67,127
45430,note_on,1,0,0,,5,,,77,127
45430,note_on,0,0,0,,7,,,67,127
45430,note_on,0,0,0,,11,,,70,127
45563,note_off,133,0,0,,5,,,77,127
45564,note_on,1,0,0,,7,,,79,127
45697,note_off,133,0,0,,7,,,79,127
45697,note_off,0,0,0,,11,,,70,127
45697,note_off,0,0,0,,7,,,67,127
45698,note_on,1,0,0,,11,,,70,127
45698,note_on,0,0,0,,7,,,67,127
45831,note_off,133,0,0,,11,,,70,127
45832,note_on,1,0,0,,11,,,70,127
45965,note_off,133,0,0,,11,,,70,127
45965,note_off,0,0,0,,7,,,67,127
45966,note_on,1,0,0,,0,,,72,127
45966,note_on,0,0,0,,7,,,67,127
46099,note_off,133,0,0,,0,,,72,127
46100,note_on,1,0,0,,1,,,73,127
46233,note_off,133,0,0,,1,,,73,127
46233,note_off,0,0,0,,7,,,67,127
46234,note_on,1,0,0,,1,,,73,127
46234,note_on,0,0,0,,8,,,68,127
46501,note_off,267,0,0,,8,,,68,127
46501,note_off,0,0,0,,1,,,73,127
46502,note_on,1,0,0,,0,,,72,127
46502,note_on,0,0,0,,8,,,68,127
46769,note_off,267,0,0,,8,,,68,127
46770,note_on,1,0,0,,8,,,68,127
46903,note_off,133,0,0,,0,,,72,127
46904,note_on,1,0,0,,7,,,79,127
47037,note_off,133,0,0,,7,,,79,127
47037,note_off,0,0,0,,8,,,68,127
47038,note_on,1,0,0,,8,,,80,127
47038,note_on,0,0,0,,0,,,72,127
47038,note_on,0,0,0,,8,,,68,127
47171,note_off,133,0,0,,8,,,80,127
47172,note_on,1,0,0,,11,,,82,127
47305,note_off,133,0,0,,11,,,82,127
47305,note_off,0,0,0,,8,,,68,127
47305,note_off,0,0,0,,0,,,72,127
47306,note_on,1,0,0,,4,,,76,127
47306,note_on,0,0,0,,7,,,67,127
47306,note_on,0,0,0,,11,,,70,127
47439,note_off,133,0,0,,4,,,76,127
47440,note_on,1,0,0,,4,,,76,127
47573,note_off,133,0,0,,4,,,76,127
47573,note_off,0,0,0,,11,,,70,127
47573,note_off,0,0,0,,7,,,67,127
47574,note_on,1,0,0,,5,,,77,127
47574,note_on,0,0,0,,7,,,67,127
47574,note_on,0,0,0,,11,,,70,127
47707,note_off,133,0,0,,5,,,77,127
47708,note_on,1,0,0,,7,,,79,127
47841,note_off,133,0,0,,7,,,79,127
47841,note_off,0,0,0,,11,,,70,127
47841,note_off,0,0,0,,7,,,67,127
47842,note_on,1,0,0,,11,,,70,127
47842,note_on,0,0,0,,7,,,67,127
47975,note_off,133,0,0,,11,,,70,127
47976,note_on,1,0,0,,11,,,70,127
48109,note_off,133,0,0,,11,,,70,127
48109,note_off,0,0,0,,7,,,67,127
48110,note_on,1,0,0,,0,,,72,127
48110,note_on,0,0,0,,7,,,67,127
48243,note_off,133,0,0,,0,,,72,127
48244,note_on,1,0,0,,1,,,73,127
48377,note_off,133,0,0,,1,,,73,127
48377,note_off,0,0,0,,7,,,67,127
48378,note_on,1,0,0,,1,,,73,127
48378,note_on,0,0,0,,8,,,68,127
48645,note_off,267,0,0,,8,,,68,127
48645,note_off,0,0,0,,1,,,73,127
48646,note_on,1,0,0,,0,,,72,127
48646,note_on,0,0,0,,8,,,68,127
48913,note_off,267,0,0,,8,,,68,127
48914,note_on,1,0,0,,8,,,68,127
48981,note_off,67,0,0,,0,,,72,127
49048,note_on,67,0,0,,5,,,77,127
49181,note_off,133,0,0,,5,,,77,127
49181,note_off,0,0,0,,8,,,68,127
49182,note_on,1,0,0,,7,,,79,127
49182,note_on,0,0,0,,0,,,72,127
49182,note_on,0,0,0,,8,,,68,127
49315,note_off,133,0,0,,7,,,79,127
49316,note_on,1,0,0,,8,,,80,127
49449,note_off,133,0,0,,8,,,80,127
49449,note_off,0,0,0,,8,,,68,127
49449,note_off,0,0,0,,0,,,72,127
49450,note_on,1,0,0,,3,,,75,127
49450,note_on,0,0,0,,11,,,70,127
49450,note_on,0,0,0,,7,,,67,127
49583,note_off,133,0,0,,3,,,75,127
49584,note_on,1,0,0,,3,,,75,127
49717,note_off,133,0,0,,3,,,75,127
49717,note_off,0,0,0,,7,,,67,127
49717,note_off,0,0,0,,11,,,70,127
49718,note_on,1,0,0,,5,,,77,127
49718,note_on,0,0,0,,7,,,67,127
49718,note_on,0,0,0,,11,,,70,127
49851,note_off,133,0,0,,5,,,77,127
49852,note_on,1,0,0,,7,,,79,127
49985,note_off,133,0,0,,7,,,79,127
49985,note_off,0,0,0,,11,,,70,127
49985,note_off,0,0,0,,7,,,67,127
49986,note_on,1,0,0,,2,,,74,127
49986,note_on,0,0,0,,5,,,65,127
49986,note_on,0,0,0,,8,,,68,127
50119,note_off,133,0,0,,2,,,74,127
50120,note_on,1,0,0,,2,,,74,127
50253,note_off,133,0,0,,2,,,74,127
50253,note_off,0,0,0,,8,,,68,127
50253,note_off,0,0,0,,5,,,65,127
50254,note_on,1,0,0,,3,,,75,127
50254,note_on,0,0,0,,5,,,65,127
50254,note_on,0,0,0,,8,,,68,127
50387,note_off,133,0,0,,3,,,75,127
50388,note_on,1,0,0,,5,,,77,127
50521,note_off,133,0,0,,5,,,77,127
50521,note_off,0,0,0,,8,,,68,127
50521,note_off,0,0,0,,5,,,65,127
50522,note_on,1,0,0,,0,,,72,127
50522,note_on,0,0,0,,7,,,67,127
50522,note_on,0,0,0,,3,,,63,127
50655,note_off,133,0,0,,0,,,72,127
50656,note_on,1,0,0,,0,,,72,127
50789,note_off,133,0,0,,0,,,72,127
50789,note_off,0,0,0,,3,,,63,127
50789,note_off,0,0,0,,7,,,67,127
50790,note_on,1,0,0,,2,,,74,127
50790,note_on,0,0,0,,3,,,63,127
50790,note_on,0,0,0,,7,,,67,127
50923,note_off,133,0,0,,2,,,74,127
50924,note_on,1,0,0,,3,,,75,127
51057,note_off,133,0,0,,3,,,75,127
51057,note_off,0,0,0,,7,,,67,127
51057,note_off,0,0,0,,3,,,63,127
51058,note_on,1,0,0,,12,,,71,127
51058,note_on,0,0,0,,2,,,62,127
51058,note_on,0,0,0,,5,,,65,127
51191,note_off,133,0,0,,12,,,71,127
51192,note_on,1,0,0,,12,,,71,127
51325,note_off,133,0,0,,12,,,71,127
51325,note_off,0,0,0,,5,,,65,127
51325,note_off,0,0,0,,2,,,62,127
51326,note_on,1,0,0,,0,,,72,127
51326,note_on,0,0,0,,2,,,62,127
51326,note_on,0,0,0,,5,,,65,127
51459,note_off,133,0,0,,0,,,72,127
51460,note_on,1,0,0,,2,,,74,127
51593,note_off,133,0,0,,2,,,74,127
51593,note_off,0,0,0,,5,,,65,127
51593,note_off,0,0,0,,2,,,62,127
51594,note_on,1,0,0,,0,,,72,127
51594,note_on,0,0,0,,7,,,67,127
51594,note_on,0,0,0,,3,,,63,127
51727,note_off,133,0,0,,0,,,72,127
51728,note_on,1,0,0,,7,,,79,127
51861,note_off,133,0,0,,7,,,79,127
51861,note_off,0,0,0,,3,,,63,127
51861,note_off,0,0,0,,7,,,67,127
51862,note_on,1,0,0,,5,,,77,127
51862,note_on,0,0,0,,7,,,67,127
51862,note_on,0,0,0,,3,,,63,127
51995,note_off,133,0,0,,5,,,77,127
51996,note_on,1,0,0,,3,,,75,127
52129,note_off,133,0,0,,3,,,75,127
52129,note_off,0,0,0,,3,,,63,127
52129,note_off,0,0,0,,7,,,67,127
52130,note_on,1,0,0,,2,,,74,127
52130,note_on,0,0,0,,5,,,65,127
52130,note_on,0,0,0,,8,,,68,127
52263,note_off,133,0,0,,2,,,74,127
52264,note_on,1,0,0,,0,,,72,127
52397,note_off,133,0,0,,0,,,72,127
52397,note_off,0,0,0,,8,,,68,127
52397,note_off,0,0,0,,5,,,65,127
52398,note_on,1,0,0,,12,,,71,127
52398,note_on,0,0,0,,5,,,65,127
52398,note_on,0,0,0,,8,,,68,127
52531,note_off,133,0,0,,12,,,71,127
52532,note_on,1,0,0,,0,,,72,127
52665,note_off,133,0,0,,0,,,72,127
52665,note_off,0,0,0,,8,,,68,127
52665,note_off,0,0,0,,5,,,65,127
52666,note_on,1,0,0,,0,,,72,127
52666,note_on,0,0,0,,7,,,67,127
52934,note_on,268,0,0,,7,,,55,127
53201,note_off,267,0,0,,7,,,55,127
53201,note_off,0,0,0,,0,,,72,127
53202,note_on,1,0,0,,12,,,71,127
53202,note_on,0,0,0,,7,,,55,127
53403,note_off,201,0,0,,12,,,71,127
53411,note_off,8,0,0,,7,,,67,127
53468,note_off,57,0,0,,7,,,55,127
53469,note_on,1,0,0,,7,,,67,127
53469,note_on,0,0,0,,7,,,55,127
53736,note_off,267,0,0,,7,,,55,127
53736,note_off,0,0,0,,7,,,67,127
53737,note_on,1,0,0,,8,,,68,127
53870,note_off,133,0,0,,8,,,68,127
53871,note_on,1,0,0,,7,,,67,127
54004,note_off,133,0,0,,7,,,67,127
54005,note_on,1,0,0,,8,,,68,127
54005,note_on,0,0,0,,0,,,60,127
54138,note_off,133,0,0,,8,,,68,127
54139,note_on,1,0,0,,12,,,71,127
54272,note_off,133,0,0,,12,,,71,127
54272,note_off,0,0,0,,0,,,60,127
54273,note_on,1,0,0,,0,,,72,127
54273,note_on,0,0,0,,0,,,60,127
54406,note_off,133,0,0,,0,,,72,127
54407,note_on,1,0,0,,12,,,71,127
54540,note_off,133,0,0,,12,,,71,127
54540,note_off,0,0,0,,0,,,60,127
54541,note_on,1,0,0,,0,,,72,127
54541,note_on,0,0,0,,8,,,80,127
54541,note_on,0,0,0,,5,,,77,127
54674,note_off,133,0,0,,0,,,72,127
54675,note_on,1,0,0,,8,,,68,127
54808,note_off,133,0,0,,8,,,68,127
54808,note_off,0,0,0,,5,,,77,127
54808,note_off,0,0,0,,8,,,80,127
54809,note_on,1,0,0,,8,,,68,127
54809,note_on,0,0,0,,8,,,80,127
54809,note_on,0,0,0,,5,,,77,127
55076,note_off,267,0,0,,5,,,77,127
55076,note_off,0,0,0,,8,,,80,127
55076,note_off,0,0,0,,8,,,68,127
55077,note_on,1,0,0,,7,,,67,127
55077,note_on,0,0,0,,3,,,75,127
55077,note_on,0,0,0,,7,,,79,127
55344,note_off,267,0,0,,7,,,79,127
55344,note_off,0,0,0,,3,,,75,127
55345,note_on,1,0,0,,7,,,79,127
55345,note_on,0,0,0,,3,,,75,127
55612,note_off,267,0,0,,3,,,75,127
55612,note_off,0,0,0,,7,,,79,127
55612,note_off,0,0,0,,7,,,67,127
55613,note_on,1,0,0,,7,,,67,127
55613,note_on,0,0,0,,0,,,60,127
55880,note_off,267,0,0,,7,,,67,127
55881,note_on,1,0,0,,8,,,68,127
56014,note_off,133,0,0,,8,,,68,127
56015,note_on,1,0,0,,7,,,67,127
56148,note_off,133,0,0,,7,,,67,127
56148,note_off,0,0,0,,0,,,60,127
56149,note_on,1,0,0,,8,,,68,127
56149,note_on,0,0,0,,0,,,60,127
56282,note_off,133,0,0,,8,,,68,127
56283,note_on,1,0,0,,12,,,71,127
56416,note_off,133,0,0,,12,,,71,127
56416,note_off,0,0,0,,0,,,60,127
56417,note_on,1,0,0,,0,,,72,127
56417,note_on,0,0,0,,0,,,60,127
56550,note_off,133,0,0,,0,,,72,127
56551,note_on,1,0,0,,12,,,71,127
56684,note_off,133,0,0,,12,,,71,127
56684,note_off,0,0,0,,0,,,60,127
56685,note_on,1,0,0,,0,,,72,127
56685,note_on,0,0,0,,5,,,77,127
56685,note_on,0,0,0,,8,,,80,127
56818,note_off,133,0,0,,0,,,72,127
56819,note_on,1,0,0,,8,,,68,127
56952,note_off,133,0,0,,8,,,68,127
56952,note_off,0,0,0,,8,,,80,127
56952,note_off,0,0,0,,5,,,77,127
56953,note_on,1,0,0,,8,,,68,127
56953,note_on,0,0,0,,5,,,77,127
56953,note_on,0,0,0,,8,,,80,127
57220,note_off,267,0,0,,8,,,80,127
57220,note_off,0,0,0,,5,,,77,127
57220,note_off,0,0,0,,8,,,68,127
57221,note_on,1,0,0,,7,,,67,127
57221,note_on,0,0,0,,7,,,79,127
57221,note_on,0,0,0,,3,,,75,127
57488,note_off,267,0,0,,3,,,75,127
57488,note_off,0,0,0,,7,,,79,127
57489,note_on,1,0,0,,3,,,75,127
57489,note_on,0,0,0,,7,,,79,127
57622,note_off,133,0,0,,7,,,67,127
57623,note_on,1,0,0,,7,,,67,127
57756,note_off,133,0,0,,7,,,67,127
57756,note_off,0,0,0,,7,,,79,127
57756,note_off,0,0,0,,3,,,75,127
57757,note_on,1,0,0,,8,,,68,127
57757,note_on,0,0,0,,3,,,75,127
57890,note_off,133,0,0,,8,,,68,127
57891,note_on,1,0,0,,11,,,70,127
58024,note_off,133,0,0,,11,,,70,127
58024,note_off,0,0,0,,3,,,75,127
58025,note_on,1,0,0,,8,,,68,127
58025,note_on,0,0,0,,5,,,77,127
58158,note_off,133,0,0,,8,,,68,127
58159,note_on,1,0,0,,11,,,70,127
58292,note_off,133,0,0,,11,,,70,127
58292,note_off,0,0,0,,5,,,77,127
58293,note_on,1,0,0,,7,,,67,127
58293,note_on,0,0,0,,3,,,75,127
58426,note_off,133,0,0,,7,,,67,127
58427,note_on,1,0,0,,8,,,68,127
58560,note_off,133,0,0,,8,,,68,127
58560,note_off,0,0,0,,3,,,75,127
58561,note_on,1,0,0,,5,,,65,127
58561,note_on,0,0,0,,2,,,74,127
58694,note_off,133,0,0,,5,,,65,127
58695,note_on,1,0,0,,7,,,67,127
58828,note_off,133,0,0,,7,,,67,127
58828,note_off,0,0,0,,2,,,74,127
58829,note_on,1,0,0,,3,,,63,127
58829,note_on,0,0,0,,0,,,72,127
58962,note_off,133,0,0,,3,,,63,127
58963,note_on,1,0,0,,5,,,65,127
59096,note_off,133,0,0,,5,,,65,127
59096,note_off,0,0,0,,0,,,72,127
59097,note_on,1,0,0,,2,,,62,127
59097,note_on,0,0,0,,12,,,71,127
59230,note_off,133,0,0,,2,,,62,127
59231,note_on,1,0,0,,3,,,63,127
59364,note_off,133,0,0,,3,,,63,127
59364,note_off,0,0,0,,12,,,71,127
59365,note_on,1,0,0,,0,,,60,127
59365,note_on,0,0,0,,10,,,69,127
59498,note_off,133,0,0,,0,,,60,127
59499,note_on,1,0,0,,2,,,62,127
59632,note_off,133,0,0,,2,,,62,127
59632,note_off,0,0,0,,10,,,69,127
59633,note_on,1,0,0,,12,,,59,127
59633,note_on,0,0,0,,7,,,67,127
59766,note_off,133,0,0,,12,,,59,127
59767,note_on,1,0,0,,7,,,55,127
59900,note_off,133,0,0,,7,,,55,127
59900,note_off,0,0,0,,7,,,67,127
59901,note_on,1,0,0,,10,,,57,127
59901,note_on,0,0,0,,5,,,65,127
60034,note_off,133,0,0,,10,,,57,127
60035,note_on,1,0,0,,12,,,59,127
60168,note_off,133,0,0,,12,,,59,127
60168,note_off,0,0,0,,5,,,65,127
60169,note_on,1,0,0,,0,,,60,127
60169,note_on,0,0,0,,3,,,63,127
60302,note_off,133,0,0,,0,,,60,127
60303,note_on,1,0,0,,2,,,62,127
60436,note_off,133,0,0,,2,,,62,127
60436,note_off,0,0,0,,3,,,63,127
60437,note_on,1,0,0,,3,,,63,127
60570,note_off,133,0,0,,3,,,63,127
60571,note_on,1,0,0,,5,,,65,127
60704,note_off,133,0,0,,5,,,65,127
60705,note_on,1,0,0,,7,,,67,127
60838,note_off,133,0,0,,7,,,67,127
60839,note_on,1,0,0,,10,,,69,127
60972,note_off,133,0,0,,10,,,69,127
60973,note_on,1,0,0,,12,,,71,127
61106,note_off,133,0,0,,12,,,71,127
61107,note_on,1,0,0,,7,,,67,127
61240,note_off,133,0,0,,7,,,67,127
61241,note_on,1,0,0,,0,,,72,127
61374,note_off,133,0,0,,0,,,72,127
61375,note_on,1,0,0,,2,,,74,127
61508,note_off,133,0,0,,2,,,74,127
61509,note_on,1,0,0,,3,,,75,127
61642,note_off,133,0,0,,3,,,75,127
61643,note_on,1,0,0,,5,,,77,127
61776,note_off,133,0,0,,5,,,77,127
61777,note_on,1,0,0,,7,,,79,127
61910,note_off,133,0,0,,7,,,79,127
61911,note_on,1,0,0,,10,,,81,127
62044,note_off,133,0,0,,10,,,81,127
62045,note_on,1,0,0,,12,,,83,127
62178,note_off,133,0,0,,12,,,83,127
62179,note_on,1,0,0,,7,,,79,127
62312,note_off,133,0,0,,7,,,79,127
62313,note_on,1,0,0,,3,,,75,127
62313,note_on,0,0,0,,0,,,72,127
62447,note_on,134,0,0,,0,,,84,127
62480,note_off,33,0,0,,3,,,75,127
62579,note_off,99,0,0,,0,,,72,127
62580,note_on,1,0,0,,2,,,74,127
62580,note_on,0,0,0,,7,,,67,127
62613,note_off,33,0,0,,0,,,84,127
62713,note_on,100,0,0,,11,,,82,127
62746,note_off,33,0,0,,2,,,74,127
62845,note_off,99,0,0,,7,,,67,127
62846,note_on,1,0,0,,0,,,72,127
62846,note_on,0,0,0,,8,,,68,127
62879,note_off,33,0,0,,11,,,82,127
62979,note_on,100,0,0,,8,,,80,127
63012,note_off,33,0,0,,0,,,72,127
63111,note_off,99,0,0,,8,,,68,127
63112,note_on,1,0,0,,11,,,70,127
63112,note_on,0,0,0,,3,,,63,127
63145,note_off,33,0,0,,8,,,80,127
63245,note_on,100,0,0,,7,,,79,127
63278,note_off,33,0,0,,11,,,70,127
63377,note_off,99,0,0,,3,,,63,127
63378,note_on,1,0,0,,8,,,68,127
63378,note_on,0,0,0,,5,,,65,127
63411,note_off,33,0,0,,7,,,79,127
63511,note_on,100,0,0,,5,,,77,127
63544,note_off,33,0,0,,8,,,68,127
63643,note_off,99,0,0,,5,,,65,127
63644,note_on,1,0,0,,7,,,67,127
63644,note_on,0,0,0,,0,,,60,127
63677,note_off,33,0,0,,5,,,77,127
63777,note_on,100,0,0,,3,,,75,127
63810,note_off,33,0,0,,7,,,67,127
63909,note_off,99,0,0,,0,,,60,127
63910,note_on,1,0,0,,5,,,65,127
63910,note_on,0,0,0,,12,,,59,127
63943,note_off,33,0,0,,3,,,75,127
64043,note_on,100,0,0,,2,,,74,127
64076,note_off,33,0,0,,5,,,65,127
64175,note_off,99,0,0,,12,,,59,127
64176,note_on,1,0,0,,3,,,63,127
64176,note_on,0,0,0,,0,,,60,127
64209,note_off,33,0,0,,2,,,74,127
64309,note_on,100,0,0,,0,,,72,127
64342,note_off,33,0,0,,3,,,63,127
64441,note_off,99,0,0,,0,,,60,127
64442,note_on,1,0,0,,2,,,62,127
64442,note_on,0,0,0,,7,,,55,127
64573,note_off,131,0,0,,0,,,72,127
64576,note_on,3,0,0,,12,,,71,127
64707,note_off,131,0,0,,2,,,62,127
64708,note_off,1,0,0,,12,,,71,127
64708,note_off,0,0,0,,7,,,55,127
64709,note_on,1,0,0,,0,,,72,127
64709,note_on,0,0,0,,5,,,65,127
64709,note_on,0,0,0,,5,,,53,127
64842,note_off,133,0,0,,0,,,72,127
64843,note_on,1,0,0,,2,,,74,127
64976,note_off,133,0,0,,2,,,74,127
64976,note_off,0,0,0,,5,,,53,127
64976,note_off,0,0,0,,5,,,65,127
64977,note_on,1,0,0,,3,,,75,127
64977,note_on,0,0,0,,7,,,55,127
64977,note_on,0,0,0,,3,,,63,127
65110,note_off,133,0,0,,3,,,75,127
65111,note_on,1,0,0,,0,,,72,127
65244,note_off,133,0,0,,0,,,72,127
65244,note_off,0,0,0,,3,,,63,127
65244,note_off,0,0,0,,7,,,55,127
65245,note_on,1,0,0,,2,,,74,127
65245,note_on,0,0,0,,7,,,55,127
65245,note_on,0,0,0,,2,,,62,127
65378,note_off,133,0,0,,2,,,74,127
65379,note_on,1,0,0,,12,,,71,127
65484,note_off,105,0,0,,12,,,71,127
65484,note_off,0,0,0,,2,,,62,127
65484,note_off,0,0,0,,7,,,55,127
65513,note_on,29,0,0,,3,,,75,127
65513,note_on,0,0,0,,0,,,72,127
65646,note_off,133,0,0,,3,,,75,127
65647,note_on,1,0,0,,0,,,84,127
65780,note_off,133,0,0,,0,,,84,127
65780,note_off,0,0,0,,0,,,72,127
65781,note_on,1,0,0,,2,,,74,127
65781,note_on,0,0,0,,7,,,67,127
65914,note_off,133,0,0,,2,,,74,127
65915,note_on,1,0,0,,11,,,82,127
66048,note_off,133,0,0,,11,,,82,127
66048,note_off,0,0,0,,7,,,67,127
66049,note_on,1,0,0,,0,,,72,127
66049,note_on,0,0,0,,8,,,68,127
66182,note_off,133,0,0,,0,,,72,127
66183,note_on,1,0,0,,8,,,80,127
66316,note_off,133,0,0,,8,,,80,127
66316,note_off,0,0,0,,8,,,68,127
66317,note_on,1,0,0,,11,,,70,127
66317,note_on,0,0,0,,3,,,63,127
66450,note_off,133,0,0,,11,,,70,127
66451,note_on,1,0,0,,7,,,79,127
66584,note_off,133,0,0,,7,,,79,127
66584,note_off,0,0,0,,3,,,63,127
66585,note_on,1,0,0,,8,,,68,127
66585,note_on,0,0,0,,5,,,65,127
66718,note_off,133,0,0,,8,,,68,127
66719,note_on,1,0,0,,5,,,77,127
66852,note_off,133,0,0,,5,,,77,127
66852,note_off,0,0,0,,5,,,65,127
66853,note_on,1,0,0,,7,,,67,127
66853,note_on,0,0,0,,0,,,60,127
66986,note_off,133,0,0,,7,,,67,127
66987,note_on,1,0,0,,3,,,75,127
67120,note_off,133,0,0,,3,,,75,127
67120,note_off,0,0,0,,0,,,60,127
67121,note_on,1,0,0,,5,,,65,127
67121,note_on,0,0,0,,12,,,59,127
67254,note_off,133,0,0,,5,,,65,127
67255,note_on,1,0,0,,2,,,74,127
67388,note_off,133,0,0,,2,,,74,127
67388,note_off,0,0,0,,12,,,59,127
67389,note_on,1,0,0,,3,,,63,127
67389,note_on,0,0,0,,0,,,60,127
67522,note_off,133,0,0,,3,,,63,127
67523,note_on,1,0,0,,0,,,72,127
67656,note_off,133,0,0,,0,,,72,127
67656,note_off,0,0,0,,0,,,60,127
67657,note_on,1,0,0,,2,,,62,127
67657,note_on,0,0,0,,7,,,55,127
67790,note_off,133,0,0,,2,,,62,127
67791,note_on,1,0,0,,12,,,71,127
67924,note_off,133,0,0,,12,,,71,127
67924,note_off,0,0,0,,7,,,55,127
67925,note_on,1,0,0,,0,,,72,127
67925,note_on,0,0,0,,5,,,53,127
68058,note_off,133,0,0,,0,,,72,127
68059,note_on,1,0,0,,2,,,74,127
68192,note_off,133,0,0,,2,,,74,127
68192,note_off,0,0,0,,5,,,53,127
68193,note_on,1,0,0,,3,,,75,127
68193,note_on,0,0,0,,7,,,55,127
68326,note_off,133,0,0,,3,,,75,127
68327,note_on,1,0,0,,0,,,72,127
68460,note_off,133,0,0,,0,,,72,127
68461,note_on,1,0,0,,2,,,74,127
68461,note_on,0,0,0,,7,,,43,127
68594,note_off,133,0,0,,2,,,74,127
68595,note_off,1,0,0,,7,,,55,127
68595,note_on,0,0,0,,12,,,71,127
68728,note_off,133,0,0,,12,,,71,127
68728,note_off,0,0,0,,7,,,43,127
68729,note_on,1,0,0,,0,,,72,127
68729,note_on,0,0,0,,0,,,36,127
68863,note_on,134,0,0,,2,,,74,127
68930,note_off,67,0,0,,0,,,72,127
68996,note_off,66,0,0,,2,,,74,127
68996,note_off,0,0,0,,0,,,36,127
68997,note_on,1,0,0,,4,,,76,127
68997,note_on,0,0,0,,4,,,64,127
68997,note_on,0,0,0,,0,,,60,127
69130,note_off,133,0,0,,4,,,76,127
69131,note_on,1,0,0,,5,,,77,127
69264,note_off,133,0,0,,5,,,77,127
69264,note_off,0,0,0,,0,,,60,127
69264,note_off,0,0,0,,4,,,64,127
69265,note_on,1,0,0,,7,,,79,127
69265,note_on,0,0,0,,4,,,64,127
69265,note_on,0,0,0,,0,,,60,127
69398,note_off,133,0,0,,7,,,79,127
69399,note_on,1,0,0,,11,,,70,127
69532,note_off,133,0,0,,11,,,70,127
69532,note_off,0,0,0,,0,,,60,127
69532,note_off,0,0,0,,4,,,64,127
69533,note_on,1,0,0,,8,,,68,127
69533,note_on,0,0,0,,0,,,60,127
69533,note_on,0,0,0,,4,,,64,127
69666,note_off,133,0,0,,8,,,68,127
69667,note_on,1,0,0,,7,,,67,127
69800,note_off,133,0,0,,7,,,67,127
69800,note_off,0,0,0,,4,,,64,127
69800,note_off,0,0,0,,0,,,60,127
69801,note_on,1,0,0,,8,,,68,127
69801,note_on,0,0,0,,0,,,60,127
69801,note_on,0,0,0,,5,,,65,127
69934,note_off,133,0,0,,8,,,68,127
69935,note_on,1,0,0,,7,,,79,127
70068,note_off,133,0,0,,7,,,79,127
70068,note_off,0,0,0,,5,,,65,127
70068,note_off,0,0,0,,0,,,60,127
70069,note_on,1,0,0,,5,,,77,127
70069,note_on,0,0,0,,0,,,60,127
70069,note_on,0,0,0,,5,,,65,127
70069,note_on,0,0,0,,8,,,68,127
70202,note_off,133,0,0,,5,,,77,127
70203,note_on,1,0,0,,7,,,79,127
70336,note_off,133,0,0,,7,,,79,127
70336,note_off,0,0,0,,8,,,68,127
70336,note_off,0,0,0,,5,,,65,127
70336,note_off,0,0,0,,0,,,60,127
70337,note_on,1,0,0,,8,,,80,127
70337,note_on,0,0,0,,0,,,60,127
70337,note_on,0,0,0,,5,,,65,127
70337,note_on,0,0,0,,8,,,68,127
70470,note_off,133,0,0,,8,,,80,127
70471,note_on,1,0,0,,0,,,72,127
70604,note_off,133,0,0,,0,,,72,127
70604,note_off,0,0,0,,8,,,68,127
70604,note_off,0,0,0,,5,,,65,127
70604,note_off,0,0,0,,0,,,60,127
70605,note_on,1,0,0,,1,,,73,127
70605,note_on,0,0,0,,0,,,60,127
70605,note_on,0,0,0,,5,,,65,127
70605,note_on,0,0,0,,8,,,68,127
70738,note_off,133,0,0,,1,,,73,127
70739,note_on,1,0,0,,0,,,72,127
70872,note_off,133,0,0,,0,,,72,127
70872,note_off,0,0,0,,8,,,68,127
70872,note_off,0,0,0,,5,,,65,127
70872,note_off,0,0,0,,0,,,60,127
70873,note_on,1,0,0,,1,,,73,127
70873,note_on,0,0,0,,7,,,67,127
70873,note_on,0,0,0,,0,,,60,127
70873,note_on,0,0,0,,11,,,70,127
71006,note_off,133,0,0,,1,,,73,127
71007,note_on,1,0,0,,8,,,80,127
71140,note_off,133,0,0,,8,,,80,127
71140,note_off,0,0,0,,11,,,70,127
71140,note_off,0,0,0,,0,,,60,127
71140,note_off,0,0,0,,7,,,67,127
71141,note_on,1,0,0,,7,,,79,127
71141,note_on,0,0,0,,7,,,67,127
71141,note_on,0,0,0,,0,,,60,127
71141,note_on,0,0,0,,11,,,70,127
71274,note_off,133,0,0,,7,,,79,127
71275,note_on,1,0,0,,8,,,80,127
71408,note_off,133,0,0,,8,,,80,127
71408,note_off,0,0,0,,11,,,70,127
71408,note_off,0,0,0,,0,,,60,127
71408,note_off,0,0,0,,7,,,67,127
71409,note_on,1,0,0,,11,,,82,127
71409,note_on,0,0,0,,7,,,67,127
71409,note_on,0,0,0,,0,,,60,127
71409,note_on,0,0,0,,11,,,70,127
71542,note_off,133,0,0,,11,,,82,127
71543,note_on,1,0,0,,8,,,80,127
71676,note_off,133,0,0,,8,,,80,127
71676,note_off,0,0,0,,11,,,70,127
71676,note_off,0,0,0,,0,,,60,127
71676,note_off,0,0,0,,7,,,67,127
71677,note_on,1,0,0,,7,,,79,127
71677,note_on,0,0,0,,7,,,67,127
71677,note_on,0,0,0,,11,,,70,127
71677,note_on,0,0,0,,0,,,60,127
71810,note_off,133,0,0,,7,,,79,127
71811,note_on,1,0,0,,5,,,77,127
71944,note_off,133,0,0,,5,,,77,127
71944,note_off,0,0,0,,0,,,60,127
71944,note_off,0,0,0,,11,,,70,127
71944,note_off,0,0,0,,7,,,67,127
71945,note_on,1,0,0,,4,,,76,127
71945,note_on,0,0,0,,7,,,67,127
71945,note_on,0,0,0,,11,,,70,127
71945,note_on,0,0,0,,0,,,60,127
72078,note_off,133,0,0,,4,,,76,127
72079,note_on,1,0,0,,5,,,77,127
72212,note_off,133,0,0,,5,,,77,127
72212,note_off,0,0,0,,0,,,60,127
72212,note_off,0,0,0,,11,,,70,127
72212,note_off,0,0,0,,7,,,67,127
72213,note_on,1,0,0,,4,,,76,127
72213,note_on,0,0,0,,0,,,60,127
72213,note_on,0,0,0,,7,,,67,127
72213,note_on,0,0,0,,11,,,70,127
72346,note_off,133,0,0,,4,,,76,127
72347,note_on,1,0,0,,2,,,74,127
72480,note_off,133,0,0,,2,,,74,127
72480,note_off,0,0,0,,11,,,70,127
72480,note_off,0,0,0,,7,,,67,127
72480,note_off,0,0,0,,0,,,60,127
72481,note_on,1,0,0,,0,,,72,127
72481,note_on,0,0,0,,0,,,60,127
72481,note_on,0,0,0,,4,,,64,127
72481,note_on,0,0,0,,7,,,67,127
72614,note_off,133,0,0,,0,,,72,127
72615,note_on,1,0,0,,11,,,70,127
72748,note_off,133,0,0,,11,,,70,127
72748,note_off,0,0,0,,7,,,67,127
72748,note_off,0,0,0,,4,,,64,127
72748,note_off,0,0,0,,0,,,60,127
72749,note_on,1,0,0,,8,,,68,127
72749,note_on,0,0,0,,4,,,64,127
72749,note_on,0,0,0,,0,,,60,127
72882,note_off,133,0,0,,8,,,68,127
72883,note_on,1,0,0,,7,,,67,127
73016,note_off,133,0,0,,7,,,67,127
73016,note_off,0,0,0,,0,,,60,127
73016,note_off,0,0,0,,4,,,64,127
73017,note_on,1,0,0,,8,,,68,127
73017,note_on,0,0,0,,5,,,53,127
73150,note_off,133,0,0,,8,,,68,127
73151,note_on,1,0,0,,0,,,72,127
73284,note_off,133,0,0,,0,,,72,127
73285,note_on,1,0,0,,11,,,70,127
73285,note_on,0,0,0,,5,,,65,127
73418,note_off,133,0,0,,11,,,70,127
73419,note_off,1,0,0,,5,,,53,127
73419,note_on,0,0,0,,8,,,68,127
73552,note_off,133,0,0,,8,,,68,127
73552,note_off,0,0,0,,5,,,65,127
73553,note_on,1,0,0,,7,,,67,127
73553,note_on,0,0,0,,11,,,58,127
73686,note_off,133,0,0,,7,,,67,127
73687,note_on,1,0,0,,5,,,65,127
73820,note_off,133,0,0,,5,,,65,127
73820,note_off,0,0,0,,11,,,58,127
73821,note_on,1,0,0,,4,,,64,127
73821,note_on,0,0,0,,1,,,61,127
73954,note_off,133,0,0,,4,,,64,127
73955,note_on,1,0,0,,5,,,65,127
74088,note_off,133,0,0,,5,,,65,127
74088,note_off,0,0,0,,1,,,61,127
74089,note_on,1,0,0,,5,,,65,127
74089,note_on,0,0,0,,0,,,60,127
74357,note_on,268,0,0,,0,,,48,127
74423,note_off,66,0,0,,5,,,65,127
74424,note_on,1,0,0,,4,,,64,127
74490,note_off,66,0,0,,4,,,64,127
74491,note_on,1,0,0,,5,,,65,127
74557,note_off,66,0,0,,5,,,65,127
74558,note_on,1,0,0,,4,,,64,127
74624,note_off,66,0,0,,0,,,48,127
74625,note_on,1,0,0,,0,,,48,127
74759,note_off,134,0,0,,0,,,60,127
74825,note_off,66,0,0,,4,,,64,127
74892,note_off,67,0,0,,0,,,48,127
74893,note_on,1,0,0,,0,,,60,127
74893,note_on,0,0,0,,0,,,48,127
75160,note_off,267,0,0,,0,,,60,127
75161,note_off,1,0,0,,0,,,48,127
75161,note_on,0,0,0,,1,,,61,127
75294,note_off,133,0,0,,1,,,61,127
75295,note_on,1,0,0,,0,,,60,127
75428,note_off,133,0,0,,0,,,60,127
75429,note_on,1,0,0,,1,,,61,127
75429,note_on,0,0,0,,5,,,53,127
75562,note_off,133,0,0,,1,,,61,127
75563,note_on,1,0,0,,4,,,64,127
75696,note_off,133,0,0,,4,,,64,127
75696,note_off,0,0,0,,5,,,53,127
75697,note_on,1,0,0,,5,,,65,127
75697,note_on,0,0,0,,5,,,53,127
75830,note_off,133,0,0,,5,,,65,127
75831,note_on,1,0,0,,4,,,64,127
75964,note_off,133,0,0,,4,,,64,127
75964,note_off,0,0,0,,5,,,53,127
75965,note_on,1,0,0,,5,,,65,127
75965,note_on,0,0,0,,1,,,73,127
75965,note_on,0,0,0,,11,,,70,127
76098,note_off,133,0,0,,5,,,65,127
76099,note_on,1,0,0,,1,,,61,127
76232,note_off,133,0,0,,1,,,61,127
76232,note_off,0,0,0,,11,,,70,127
76232,note_off,0,0,0,,1,,,73,127
76233,note_on,1,0,0,,1,,,61,127
76233,note_on,0,0,0,,11,,,70,127
76233,note_on,0,0,0,,1,,,73,127
76500,note_off,267,0,0,,1,,,73,127
76500,note_off,0,0,0,,11,,,70,127
76500,note_off,0,0,0,,1,,,61,127
76501,note_on,1,0,0,,0,,,60,127
76501,note_on,0,0,0,,8,,,68,127
76501,note_on,0,0,0,,0,,,72,127
76768,note_off,267,0,0,,0,,,72,127
76768,note_off,0,0,0,,8,,,68,127
76769,note_on,1,0,0,,8,,,68,127
76769,note_on,0,0,0,,0,,,72,127
77036,note_off,267,0,0,,0,,,72,127
77036,note_off,0,0,0,,8,,,68,127
77036,note_off,0,0,0,,0,,,60,127
77037,note_on,1,0,0,,0,,,60,127
77037,note_on,0,0,0,,5,,,53,127
77304,note_off,267,0,0,,0,,,60,127
77305,note_on,1,0,0,,1,,,61,127
77438,note_off,133,0,0,,1,,,61,127
77439,note_on,1,0,0,,0,,,60,127
77572,note_off,133,0,0,,0,,,60,127
77572,note_off,0,0,0,,5,,,53,127
77573,note_on,1,0,0,,1,,,61,127
77573,note_on,0,0,0,,5,,,53,127
77706,note_off,133,0,0,,1,,,61,127
77707,note_on,1,0,0,,4,,,64,127
77840,note_off,133,0,0,,4,,,64,127
77840,note_off,0,0,0,,5,,,53,127
77841,note_on,1,0,0,,5,,,65,127
77841,note_on,0,0,0,,5,,,53,127
77974,note_off,133,0,0,,5,,,65,127
77975,note_on,1,0,0,,4,,,64,127
78108,note_off,133,0,0,,4,,,64,127
78108,note_off,0,0,0,,5,,,53,127
78109,note_on,1,0,0,,5,,,65,127
78109,note_on,0,0,0,,1,,,73,127
78109,note_on,0,0,0,,11,,,70,127
78242,note_off,133,0,0,,5,,,65,127
78243,note_on,1,0,0,,1,,,61,127
78376,note_off,133,0,0,,1,,,61,127
78376,note_off,0,0,0,,11,,,70,127
78376,note_off,0,0,0,,1,,,73,127
78377,note_on,1,0,0,,1,,,61,127
78377,note_on,0,0,0,,11,,,70,127
78377,note_on,0,0,0,,1,,,73,127
78644,note_off,267,0,0,,1,,,73,127
78644,note_off,0,0,0,,11,,,70,127
78644,note_off,0,0,0,,1,,,61,127
78645,note_on,1,0,0,,0,,,60,127
78645,note_on,0,0,0,,0,,,72,127
78645,note_on,0,0,0,,8,,,68,127
78912,note_off,267,0,0,,8,,,68,127
78912,note_off,0,0,0,,0,,,72,127
78913,note_on,1,0,0,,8,,,68,127
78913,note_on,0,0,0,,0,,,72,127
79046,note_off,133,0,0,,0,,,60,127
79047,note_on,1,0,0,,0,,,60,127
79180,note_off,133,0,0,,0,,,60,127
79180,note_off,0,0,0,,0,,,72,127
79180,note_off,0,0,0,,8,,,68,127
79181,note_on,1,0,0,,2,,,62,127
79181,note_on,0,0,0,,0,,,72,127
79181,note_on,0,0,0,,8,,,68,127
79314,note_off,133,0,0,,2,,,62,127
79315,note_on,1,0,0,,3,,,63,127
79448,note_off,133,0,0,,3,,,63,127
79448,note_off,0,0,0,,8,,,68,127
79448,note_off,0,0,0,,0,,,72,127
79449,note_on,1,0,0,,2,,,62,127
79449,note_on,0,0,0,,11,,,70,127
79582,note_off,133,0,0,,2,,,62,127
79583,note_on,1,0,0,,2,,,62,127
79716,note_off,133,0,0,,2,,,62,127
79716,note_off,0,0,0,,11,,,70,127
79717,note_on,1,0,0,,4,,,64,127
79717,note_on,0,0,0,,7,,,67,127
79850,note_off,133,0,0,,4,,,64,127
79851,note_on,1,0,0,,5,,,65,127
79984,note_off,133,0,0,,5,,,65,127
79984,note_off,0,0,0,,7,,,67,127
79985,note_on,1,0,0,,4,,,64,127
79985,note_on,0,0,0,,0,,,72,127
80118,note_off,133,0,0,,4,,,64,127
80119,note_on,1,0,0,,4,,,64,127
80252,note_off,133,0,0,,4,,,64,127
80252,note_off,0,0,0,,0,,,72,127
80253,note_on,1,0,0,,5,,,65,127
80253,note_on,0,0,0,,8,,,68,127
80386,note_off,133,0,0,,5,,,65,127
80387,note_on,1,0,0,,7,,,67,127
80520,note_off,133,0,0,,7,,,67,127
80520,note_off,0,0,0,,8,,,68,127
80521,note_on,1,0,0,,5,,,65,127
80521,note_on,0,0,0,,1,,,73,127
80654,note_off,133,0,0,,5,,,65,127
80655,note_on,1,0,0,,5,,,65,127
80788,note_off,133,0,0,,5,,,65,127
80788,note_off,0,0,0,,1,,,73,127
80789,note_on,1,0,0,,7,,,67,127
80789,note_on,0,0,0,,11,,,70,127
80922,note_off,133,0,0,,7,,,67,127
80923,note_on,1,0,0,,8,,,68,127
81056,note_off,133,0,0,,8,,,68,127
81056,note_off,0,0,0,,11,,,70,127
81057,note_on,1,0,0,,7,,,67,127
81057,note_on,0,0,0,,4,,,76,127
81190,note_off,133,0,0,,7,,,67,127
81191,note_on,1,0,0,,7,,,67,127
81324,note_off,133,0,0,,7,,,67,127
81324,note_off,0,0,0,,4,,,76,127
81325,note_on,1,0,0,,8,,,68,127
81325,note_on,0,0,0,,0,,,72,127
81458,note_off,133,0,0,,8,,,68,127
81459,note_on,1,0,0,,11,,,70,127
81592,note_off,133,0,0,,11,,,70,127
81592,note_off,0,0,0,,0,,,72,127
81593,note_on,1,0,0,,8,,,68,127
81593,note_on,0,0,0,,5,,,77,127
81726,note_off,133,0,0,,8,,,68,127
81727,note_on,1,0,0,,8,,,68,127
81860,note_off,133,0,0,,8,,,68,127
81860,note_off,0,0,0,,5,,,77,127
81861,note_on,1,0,0,,11,,,70,127
81861,note_on,0,0,0,,2,,,74,127
81994,note_off,133,0,0,,11,,,70,127
81995,note_on,1,0,0,,0,,,72,127
82128,note_off,133,0,0,,0,,,72,127
82128,note_off,0,0,0,,2,,,74,127
82129,note_on,1,0,0,,11,,,70,127
82129,note_on,0,0,0,,7,,,79,127
82262,note_off,133,0,0,,11,,,70,127
82263,note_on,1,0,0,,11,,,70,127
82396,note_off,133,0,0,,11,,,70,127
82396,note_off,0,0,0,,7,,,79,127
82397,note_on,1,0,0,,0,,,72,127
82397,note_on,0,0,0,,4,,,76,127
82530,note_off,133,0,0,,0,,,72,127
82531,note_on,1,0,0,,1,,,73,127
82664,note_off,133,0,0,,1,,,73,127
82664,note_off,0,0,0,,4,,,76,127
82665,note_on,1,0,0,,0,,,72,127
82665,note_on,0,0,0,,8,,,80,127
82798,note_off,133,0,0,,0,,,72,127
82799,note_on,1,0,0,,0,,,72,127
82932,note_off,133,0,0,,0,,,72,127
82932,note_off,0,0,0,,8,,,80,127
82933,note_on,1,0,0,,2,,,74,127
82933,note_on,0,0,0,,5,,,77,127
83066,note_off,133,0,0,,2,,,74,127
83067,note_on,1,0,0,,3,,,75,127
83200,note_off,133,0,0,,3,,,75,127
83200,note_off,0,0,0,,5,,,77,127
83201,note_on,1,0,0,,2,,,74,127
83201,note_on,0,0,0,,11,,,82,127
83334,note_off,133,0,0,,2,,,74,127
83335,note_on,1,0,0,,2,,,74,127
83468,note_off,133,0,0,,2,,,74,127
83468,note_off,0,0,0,,11,,,82,127
83469,note_on,1,0,0,,4,,,76,127
83469,note_on,0,0,0,,7,,,79,127
83602,note_off,133,0,0,,4,,,76,127
83603,note_on,1,0,0,,5,,,77,127
83736,note_off,133,0,0,,5,,,77,127
83736,note_off,0,0,0,,7,,,79,127
83737,note_on,1,0,0,,4,,,76,127
83737,note_on,0,0,0,,0,,,84,127
83870,note_off,133,0,0,,4,,,76,127
83871,note_on,1,0,0,,5,,,77,127
84004,note_off,133,0,0,,5,,,77,127
84004,note_off,0,0,0,,0,,,84,127
84005,note_on,1,0,0,,4,,,76,127
84005,note_on,0,0,0,,0,,,60,127
84138,note_off,133,0,0,,4,,,76,127
84139,note_on,1,0,0,,2,,,74,127
84272,note_off,133,0,0,,2,,,74,127
84272,note_off,0,0,0,,0,,,60,127
84273,note_on,1,0,0,,0,,,72,127
84273,note_on,0,0,0,,0,,,60,127
84406,note_off,133,0,0,,0,,,72,127
84407,note_on,1,0,0,,11,,,70,127
84540,note_off,133,0,0,,11,,,70,127
84540,note_off,0,0,0,,0,,,60,127
84541,note_on,1,0,0,,8,,,68,127
84541,note_on,0,0,0,,0,,,60,127
84674,note_off,133,0,0,,8,,,68,127
84675,note_on,1,0,0,,7,,,67,127
84808,note_off,133,0,0,,7,,,67,127
84808,note_off,0,0,0,,0,,,60,127
84809,note_on,1,0,0,,8,,,68,127
84809,note_on,0,0,0,,5,,,65,127
84943,note_on,134,0,0,,5,,,77,127
84976,note_off,33,0,0,,8,,,68,127
85075,note_off,99,0,0,,5,,,65,127
85076,note_on,1,0,0,,7,,,67,127
85076,note_on,0,0,0,,0,,,60,127
85109,note_off,33,0,0,,5,,,77,127
85209,note_on,100,0,0,,3,,,75,127
85242,note_off,33,0,0,,7,,,67,127
85341,note_off,99,0,0,,0,,,60,127
85342,note_on,1,0,0,,5,,,65,127
85342,note_on,0,0,0,,1,,,61,127
85375,note_off,33,0,0,,3,,,75,127
85475,note_on,100,0,0,,1,,,73,127
85508,note_off,33,0,0,,5,,,65,127
85607,note_off,99,0,0,,1,,,61,127
85608,note_on,1,0,0,,3,,,63,127
85608,note_on,0,0,0,,8,,,56,127
85641,note_off,33,0,0,,1,,,73,127
85741,note_on,100,0,0,,0,,,72,127
85774,note_off,33,0,0,,3,,,63,127
85873,note_off,99,0,0,,8,,,56,127
85874,note_on,1,0,0,,1,,,61,127
85874,note_on,0,0,0,,11,,,58,127
85907,note_off,33,0,0,,0,,,72,127
86007,note_on,100,0,0,,11,,,70,127
86040,note_off,33,0,0,,1,,,61,127
86139,note_off,99,0,0,,11,,,58,127
86140,note_on,1,0,0,,0,,,60,127
86140,note_on,0,0,0,,5,,,53,127
86173,note_off,33,0,0,,11,,,70,127
86273,note_on,100,0,0,,8,,,68,127
86306,note_off,33,0,0,,0,,,60,127
86405,note_off,99,0,0,,5,,,53,127
86406,note_on,1,0,0,,11,,,58,127
86406,note_on,0,0,0,,4,,,52,127
86439,note_off,33,0,0,,8,,,68,127
86539,note_on,100,0,0,,7,,,67,127
86572,note_off,33,0,0,,11,,,58,127
86671,note_off,99,0,0,,4,,,52,127
86672,note_on,1,0,0,,8,,,56,127
86672,note_on,0,0,0,,5,,,53,127
86705,note_off,33,0,0,,7,,,67,127
86805,note_on,100,0,0,,5,,,65,127
86838,note_off,33,0,0,,8,,,56,127
86937,note_off,99,0,0,,5,,,65,127
86937,note_off,0,0,0,,5,,,53,127
86938,note_on,1,0,0,,0,,,60,127
86938,note_on,0,0,0,,0,,,48,127
87071,note_off,133,0,0,,0,,,60,127
87072,note_on,1,0,0,,4,,,64,127
87205,note_off,133,0,0,,4,,,64,127
87205,note_off,0,0,0,,0,,,48,127
87206,note_on,1,0,0,,5,,,65,127
87206,note_on,0,0,0,,11,,,46,127
87206,note_on,0,0,0,,11,,,58,127
87339,note_off,133,0,0,,5,,,65,127
87340,note_on,1,0,0,,7,,,67,127
87473,note_off,133,0,0,,7,,,67,127
87473,note_off,0,0,0,,11,,,58,127
87473,note_off,0,0,0,,11,,,46,127
87474,note_on,1,0,0,,8,,,68,127
87474,note_on,0,0,0,,0,,,48,127
87474,note_on,0,0,0,,8,,,56,127
87607,note_off,133,0,0,,8,,,68,127
87608,note_on,1,0,0,,5,,,65,127
87741,note_off,133,0,0,,5,,,65,127
87741,note_off,0,0,0,,8,,,56,127
87741,note_off,0,0,0,,0,,,48,127
87742,note_on,1,0,0,,7,,,67,127
87742,note_on,0,0,0,,0,,,48,127
87742,note_on,0,0,0,,7,,,55,127
87875,note_off,133,0,0,,7,,,67,127
87876,note_on,1,0,0,,4,,,64,127
87981,note_off,105,0,0,,4,,,64,127
87981,note_off,0,0,0,,7,,,55,127
87981,note_off,0,0,0,,0,,,48,127
88010,note_on,29,0,0,,8,,,68,127
88010,note_on,0,0,0,,5,,,65,127
88143,note_off,133,0,0,,8,,,68,127
88144,note_on,1,0,0,,5,,,77,127
88277,note_off,133,0,0,,5,,,77,127
88277,note_off,0,0,0,,5,,,65,127
88278,note_on,1,0,0,,7,,,67,127
88278,note_on,0,0,0,,0,,,60,127
88411,note_off,133,0,0,,7,,,67,127
88412,note_on,1,0,0,,3,,,75,127
88545,note_off,133,0,0,,3,,,75,127
88545,note_off,0,0,0,,0,,,60,127
88546,note_on,1,0,0,,5,,,65,127
88546,note_on,0,0,0,,1,,,61,127
88679,note_off,133,0,0,,5,,,65,127
88680,note_on,1,0,0,,1,,,73,127
88813,note_off,133,0,0,,1,,,73,127
88813,note_off,0,0,0,,1,,,61,127
88814,note_on,1,0,0,,3,,,63,127
88814,note_on,0,0,0,,8,,,56,127
88947,note_off,133,0,0,,3,,,63,127
88948,note_on,1,0,0,,0,,,72,127
89081,note_off,133,0,0,,0,,,72,127
89081,note_off,0,0,0,,8,,,56,127
89082,note_on,1,0,0,,1,,,61,127
89082,note_on,0,0,0,,11,,,58,127
89215,note_off,133,0,0,,1,,,61,127
89216,note_on,1,0,0,,11,,,70,127
89349,note_off,133,0,0,,11,,,70,127
89349,note_off,0,0,0,,11,,,58,127
89350,note_on,1,0,0,,0,,,60,127
89350,note_on,0,0,0,,5,,,53,127
89483,note_off,133,0,0,,0,,,60,127
89484,note_on,1,0,0,,8,,,68,127
89617,note_off,133,0,0,,8,,,68,127
89617,note_off,0,0,0,,5,,,53,127
89618,note_on,1,0,0,,11,,,58,127
89618,note_on,0,0,0,,4,,,52,127
89751,note_off,133,0,0,,11,,,58,127
89752,note_on,1,0,0,,7,,,67,127
89885,note_off,133,0,0,,7,,,67,127
89885,note_off,0,0,0,,4,,,52,127
89886,note_on,1,0,0,,8,,,56,127
89886,note_on,0,0,0,,5,,,53,127
90019,note_off,133,0,0,,8,,,56,127
90020,note_on,1,0,0,,5,,,65,127
90153,note_off,133,0,0,,5,,,53,127
90154,note_on,1,0,0,,0,,,60,127
90154,note_on,0,0,0,,0,,,48,127
90285,note_off,131,0,0,,5,,,65,127
90288,note_on,3,0,0,,4,,,64,127
90419,note_off,131,0,0,,0,,,60,127
90420,note_off,1,0,0,,4,,,64,127
90420,note_off,0,0,0,,0,,,48,127
90421,note_on,1,0,0,,5,,,65,127
90421,note_on,0,0,0,,11,,,58,127
90421,note_on,0,0,0,,11,,,46,127
90554,note_off,133,0,0,,5,,,65,127
90555,note_on,1,0,0,,7,,,67,127
90688,note_off,133,0,0,,7,,,67,127
90688,note_off,0,0,0,,11,,,46,127
90688,note_off,0,0,0,,11,,,58,127
90689,note_on,1,0,0,,8,,,68,127
90689,note_on,0,0,0,,0,,,48,127
90689,note_on,0,0,0,,8,,,56,127
90822,note_off,133,0,0,,8,,,68,127
90823,note_on,1,0,0,,5,,,65,127
90956,note_off,133,0,0,,5,,,65,127
90956,note_off,0,0,0,,8,,,56,127
90956,note_off,0,0,0,,0,,,48,127
90957,note_on,1,0,0,,7,,,67,127
90957,note_on,0,0,0,,0,,,48,127
90957,note_on,0,0,0,,7,,,55,127
91090,note_off,133,0,0,,7,,,67,127
91091,note_on,1,0,0,,4,,,64,127
91210,note_off,119,0,0,,4,,,64,127
91210,note_off,0,0,0,,7,,,55,127
91210,note_off,0,0,0,,0,,,48,127
91225,note_on,15,0,0,,5,,,77,127
91225,note_on,0,0,0,,5,,,53,127
91358,note_off,133,0,0,,5,,,77,127
91359,note_on,1,0,0,,8,,,80,127
91492,note_off,133,0,0,,8,,,80,127
91493,note_on,1,0,0,,7,,,79,127
91493,note_on,0,0,0,,5,,,65,127
91626,note_off,133,0,0,,7,,,79,127
91627,note_on,1,0,0,,5,,,77,127
91755,note_off,128,0,0,,5,,,53,127
91759,note_off,4,0,0,,5,,,77,127
91760,note_on,1,0,0,,4,,,76,127
91893,note_off,133,0,0,,4,,,76,127
91894,note_on,1,0,0,,2,,,74,127
92027,note_off,133,0,0,,2,,,74,127
92027,note_off,0,0,0,,5,,,65,127
92028,note_on,1,0,0,,0,,,72,127
92028,note_on,0,0,0,,4,,,64,127
92161,note_off,133,0,0,,0,,,72,127
92162,note_on,1,0,0,,11,,,70,127
92295,note_off,133,0,0,,11,,,70,127
92295,note_off,0,0,0,,4,,,64,127
92296,note_on,1,0,0,,8,,,68,127
92296,note_on,0,0,0,,5,,,65,127
92429,note_off,133,0,0,,8,,,68,127
92430,note_on,1,0,0,,1,,,73,127
92563,note_off,133,0,0,,1,,,73,127
92563,note_off,0,0,0,,5,,,65,127
92564,note_on,1,0,0,,0,,,72,127
92564,note_on,0,0,0,,11,,,58,127
92697,note_off,133,0,0,,0,,,72,127
92698,note_on,1,0,0,,11,,,70,127
92831,note_off,133,0,0,,11,,,70,127
92831,note_off,0,0,0,,11,,,58,127
92832,note_on,1,0,0,,8,,,68,127
92832,note_on,0,0,0,,0,,,60,127
92965,note_off,133,0,0,,8,,,68,127
92966,note_on,1,0,0,,7,,,67,127
93099,note_off,133,0,0,,7,,,67,127
93100,note_on,1,0,0,,5,,,65,127
93100,note_on,0,0,0,,0,,,48,127
93233,note_off,133,0,0,,5,,,65,127
93234,note_off,1,0,0,,0,,,60,127
93234,note_on,0,0,0,,4,,,64,127
93367,note_off,133,0,0,,4,,,64,127
93367,note_off,0,0,0,,0,,,48,127
93368,note_on,1,0,0,,5,,,65,127
93368,note_on,0,0,0,,5,,,41,127
93501,note_off,133,0,0,,5,,,65,127
93502,note_on,1,0,0,,8,,,68,127
93635,note_off,133,0,0,,8,,,68,127
93636,note_on,1,0,0,,7,,,67,127
93636,note_on,0,0,0,,5,,,53,127
93769,note_off,133,0,0,,7,,,67,127
93770,note_off,1,0,0,,5,,,41,127
93770,note_on,0,0,0,,5,,,65,127
93903,note_off,133,0,0,,5,,,65,127
93904,note_on,1,0,0,,4,,,64,127
94037,note_off,133,0,0,,4,,,64,127
94038,note_on,1,0,0,,2,,,62,127
94171,note_off,133,0,0,,2,,,62,127
94171,note_off,0,0,0,,5,,,53,127
94172,note_on,1,0,0,,0,,,60,127
94172,note_on,0,0,0,,4,,,52,127
94305,note_off,133,0,0,,0,,,60,127
94306,note_on,1,0,0,,11,,,58,127
94439,note_off,133,0,0,,11,,,58,127
94439,note_off,0,0,0,,4,,,52,127
94440,note_on,1,0,0,,8,,,56,127
94440,note_on,0,0,0,,5,,,53,127
94573,note_off,133,0,0,,8,,,56,127
94574,note_on,1,0,0,,1,,,61,127
94707,note_off,133,0,0,,1,,,61,127
94707,note_off,0,0,0,,5,,,53,127
94708,note_on,1,0,0,,0,,,60,127
94708,note_on,0,0,0,,11,,,46,127
94841,note_off,133,0,0,,0,,,60,127
94842,note_on,1,0,0,,11,,,58,127
94975,note_off,133,0,0,,11,,,58,127
94975,note_off,0,0,0,,11,,,46,127
94976,note_on,1,0,0,,8,,,56,127
94976,note_on,0,0,0,,0,,,48,127
95109,note_off,133,0,0,,8,,,56,127
95110,note_on,1,0,0,,7,,,55,127
95243,note_off,133,0,0,,7,,,55,127
95244,note_on,1,0,0,,5,,,53,127
95244,note_on,0,0,0,,0,,,36,127
95377,note_off,133,0,0,,5,,,53,127
95378,note_on,1,0,0,,4,,,52,127
95506,note_off,128,0,0,,0,,,48,127
95510,note_off,4,0,0,,4,,,52,127
95510,note_off,0,0,0,,0,,,36,127
95511,note_on,1,0,0,,5,,,53,127
95511,note_on,0,0,0,,5,,,41,127
95644,note_off,133,0,0,,5,,,53,127
95645,note_on,1,0,0,,8,,,56,127
95778,note_off,133,0,0,,8,,,56,127
95779,note_on,1,0,0,,7,,,55,127
95912,note_off,133,0,0,,7,,,55,127
95913,note_on,1,0,0,,5,,,53,127
96046,note_off,133,0,0,,5,,,53,127
96047,note_on,1,0,0,,0,,,60,127
96180,note_off,133,0,0,,0,,,60,127
96181,note_on,1,0,0,,8,,,56,127
96314,note_off,133,0,0,,8,,,56,127
96315,note_on,1,0,0,,5,,,65,127
96448,note_off,133,0,0,,5,,,65,127
96449,note_on,1,0,0,,0,,,60,127
96582,note_off,133,0,0,,0,,,60,127
96582,note_off,0,0,0,,5,,,41,127
96583,note_on,1,0,0,,8,,,68,127
96583,note_on,0,0,0,,5,,,53,127
96583,note_on,0,0,0,,5,,,41,127
96716,note_off,133,0,0,,8,,,68,127
96717,note_on,1,0,0,,5,,,65,127
96850,note_off,133,0,0,,5,,,65,127
96851,note_on,1,0,0,,0,,,72,127
96984,note_off,133,0,0,,0,,,72,127
96985,note_on,1,0,0,,8,,,68,127
97118,note_off,133,0,0,,8,,,68,127
97119,note_on,1,0,0,,5,,,77,127
97252,note_off,133,0,0,,5,,,77,127
97253,note_on,1,0,0,,0,,,72,127
97386,note_off,133,0,0,,0,,,72,127
97387,note_on,1,0,0,,8,,,68,127
97520,note_off,133,0,0,,8,,,68,127
97521,note_on,1,0,0,,0,,,72,127
97654,note_off,133,0,0,,0,,,72,127
97654,note_off,0,0,0,,5,,,41,127
97654,note_off,0,0,0,,5,,,53,127
97669,note_on,15,0,0,,5,,,65,127
97669,note_on,0,0,0,,5,,,53,127
97669,note_on,0,0,0,,5,,,41,127
99762,note_off,2093,0,0,,5,,,41,127
99762,note_off,0,0,0,,5,,,53,127
99762,note_off,0,0,0,,5,,,65,127
102912,end_of_track,3150,1,0,,,,,,
