tick,type,time,meta,track,program,channel,pitch,tempo,note,velocity
0,copyright,0,1,0,,,,,,
0,program_change,0,0,0,6,0,,,,
0,pitchwheel,0,0,0,,0,0,,,
0,program_change,0,0,0,6,1,,,,
0,pitchwheel,0,0,0,,1,-590,,,
0,program_change,0,0,0,6,2,,,,
0,pitchwheel,0,0,0,,2,-272,,,
0,program_change,0,0,0,6,3,,,,
0,pitchwheel,0,0,0,,3,-353,,,
0,program_change,0,0,0,6,4,,,,
0,pitchwheel,0,0,0,,4,-560,,,
0,program_change,0,0,0,6,5,,,,
0,pitchwheel,0,0,0,,5,-80,,,
0,program_change,0,0,0,6,6,,,,
0,pitchwheel,0,0,0,,6,-625,,,
0,program_change,0,0,0,6,7,,,,
0,pitchwheel,0,0,0,,7,-130,,,
0,program_change,0,0,0,6,8,,,,
0,pitchwheel,0,0,0,,8,-512,,,
0,program_change,0,0,0,6,10,,,,
0,pitchwheel,0,0,0,,10,-464,,,
0,program_change,0,0,0,6,11,,,,
0,pitchwheel,0,0,0,,11,-208,,,
0,program_change,0,0,0,6,12,,,,
0,pitchwheel,0,0,0,,12,-553,,,
0,set_tempo,0,1,0,,,,500000,,
100,note_on,100,0,0,,8,,,80,127
100,note_on,0,0,0,,12,,,83,127
494,note_off,394,0,0,,12,,,83,127
494,note_off,0,0,0,,8,,,80,127
500,note_on,6,0,0,,12,,,83,127
500,note_on,0,0,0,,8,,,80,127
544,note_off,44,0,0,,8,,,80,127
544,note_off,0,0,0,,12,,,83,127
550,note_on,6,0,0,,6,,,78,127
550,note_on,0,0,0,,10,,,81,127
594,note_off,44,0,0,,10,,,81,127
594,note_off,0,0,0,,6,,,78,127
600,note_on,6,0,0,,12,,,83,127
600,note_on,0,0,0,,8,,,80,127
644,note_off,44,0,0,,8,,,80,127
644,note_off,0,0,0,,12,,,83,127
650,note_on,6,0,0,,6,,,78,127
650,note_on,0,0,0,,10,,,81,127
694,note_off,44,0,0,,10,,,81,127
694,note_off,0,0,0,,6,,,78,127
700,note_on,6,0,0,,8,,,80,127
700,note_on,0,0,0,,12,,,83,127
744,note_off,44,0,0,,12,,,83,127
744,note_off,0,0,0,,8,,,80,127
750,note_on,6,0,0,,6,,,78,127
750,note_on,0,0,0,,10,,,81,127
794,note_off,44,0,0,,10,,,81,127
794,note_off,0,0,0,,6,,,78,127
800,note_on,6,0,0,,12,,,83,127
800,note_on,0,0,0,,8,,,80,127
844,note_off,44,0,0,,8,,,80,127
844,note_off,0,0,0,,12,,,83,127
850,note_on,6,0,0,,10,,,81,127
850,note_on,0,0,0,,6,,,78,127
900,note_on,50,0,0,,4,,,64,127
1094,note_off,194,0,0,,4,,,64,127
1094,note_off,0,0,0,,6,,,78,127
1094,note_off,0,0,0,,10,,,81,127
1100,note_on,6,0,0,,12,,,59,127
1100,note_on,0,0,0,,8,,,80,127
1100,note_on,0,0,0,,4,,,76,127
1294,note_off,194,0,0,,12,,,59,127
1300,note_on,6,0,0,,4,,,52,127
1500,note_on,200,0,0,,4,,,40,127
1694,note_off,194,0,0,,4,,,76,127
1694,note_off,0,0,0,,8,,,80,127
1696,note_off,2,0,0,,4,,,52,127
1700,note_on,4,0,0,,8,,,80,127
1700,note_on,0,0,0,,12,,,71,127
2094,note_off,394,0,0,,12,,,71,127
2094,note_off,0,0,0,,8,,,80,127
2100,note_on,6,0,0,,12,,,71,127
2100,note_on,0,0,0,,8,,,80,127
2144,note_off,44,0,0,,8,,,80,127
2144,note_off,0,0,0,,12,,,71,127
2150,note_on,6,0,0,,10,,,69,127
2150,note_on,0,0,0,,6,,,78,127
2194,note_off,44,0,0,,6,,,78,127
2194,note_off,0,0,0,,10,,,69,127
2200,note_on,6,0,0,,12,,,71,127
2200,note_on,0,0,0,,8,,,80,127
2244,note_off,44,0,0,,8,,,80,127
2244,note_off,0,0,0,,12,,,71,127
2250,note_on,6,0,0,,10,,,69,127
2250,note_on,0,0,0,,6,,,78,127
2294,note_off,44,0,0,,6,,,78,127
2294,note_off,0,0,0,,10,,,69,127
2300,note_on,6,0,0,,8,,,80,127
2300,note_on,0,0,0,,12,,,71,127
2344,note_off,44,0,0,,12,,,71,127
2344,note_off,0,0,0,,8,,,80,127
2350,note_on,6,0,0,,10,,,69,127
2350,note_on,0,0,0,,6,,,78,127
2394,note_off,44,0,0,,6,,,78,127
2394,note_off,0,0,0,,10,,,69,127
2400,note_on,6,0,0,,12,,,71,127
2400,note_on,0,0,0,,8,,,80,127
2438,note_off,38,0,0,,4,,,40,127
2444,note_off,6,0,0,,8,,,80,127
2444,note_off,0,0,0,,12,,,71,127
2450,note_on,6,0,0,,10,,,69,127
2450,note_on,0,0,0,,6,,,78,127
2500,note_on,50,0,0,,4,,,64,127
2694,note_off,194,0,0,,4,,,64,127
2694,note_off,0,0,0,,6,,,78,127
2694,note_off,0,0,0,,10,,,69,127
2700,note_on,6,0,0,,12,,,59,127
2700,note_on,0,0,0,,4,,,76,127
2700,note_on,0,0,0,,8,,,68,127
2894,note_off,194,0,0,,12,,,59,127
2900,note_on,6,0,0,,4,,,52,127
3100,note_on,200,0,0,,4,,,40,127
3294,note_off,194,0,0,,8,,,68,127
3294,note_off,0,0,0,,4,,,76,127
3296,note_off,2,0,0,,4,,,52,127
3300,note_on,4,0,0,,12,,,83,127
3300,note_on,0,0,0,,8,,,80,127
3694,note_off,394,0,0,,8,,,80,127
3694,note_off,0,0,0,,12,,,83,127
3700,note_on,6,0,0,,12,,,83,127
3700,note_on,0,0,0,,8,,,80,127
3744,note_off,44,0,0,,8,,,80,127
3744,note_off,0,0,0,,12,,,83,127
3750,note_on,6,0,0,,10,,,81,127
3750,note_on,0,0,0,,6,,,78,127
3794,note_off,44,0,0,,6,,,78,127
3794,note_off,0,0,0,,10,,,81,127
3800,note_on,6,0,0,,12,,,83,127
3800,note_on,0,0,0,,8,,,80,127
3844,note_off,44,0,0,,8,,,80,127
3844,note_off,0,0,0,,12,,,83,127
3850,note_on,6,0,0,,6,,,78,127
3850,note_on,0,0,0,,10,,,81,127
3894,note_off,44,0,0,,10,,,81,127
3894,note_off,0,0,0,,6,,,78,127
3900,note_on,6,0,0,,8,,,80,127
3900,note_on,0,0,0,,12,,,83,127
3944,note_off,44,0,0,,12,,,83,127
3944,note_off,0,0,0,,8,,,80,127
3950,note_on,6,0,0,,10,,,81,127
3950,note_on,0,0,0,,6,,,78,127
3994,note_off,44,0,0,,6,,,78,127
3994,note_off,0,0,0,,10,,,81,127
4000,note_on,6,0,0,,12,,,83,127
4000,note_on,0,0,0,,8,,,80,127
4038,note_off,38,0,0,,4,,,40,127
4044,note_off,6,0,0,,8,,,80,127
4044,note_off,0,0,0,,12,,,83,127
4050,note_on,6,0,0,,10,,,81,127
4050,note_on,0,0,0,,6,,,78,127
4100,note_on,50,0,0,,4,,,64,127
4294,note_off,194,0,0,,4,,,64,127
4294,note_off,0,0,0,,6,,,78,127
4294,note_off,0,0,0,,10,,,81,127
4300,note_on,6,0,0,,12,,,59,127
4300,note_on,0,0,0,,8,,,80,127
4300,note_on,0,0,0,,4,,,76,127
4494,note_off,194,0,0,,12,,,59,127
4500,note_on,6,0,0,,4,,,52,127
4700,note_on,200,0,0,,4,,,40,127
4894,note_off,194,0,0,,4,,,76,127
4894,note_off,0,0,0,,8,,,80,127
4896,note_off,2,0,0,,4,,,52,127
4900,note_on,4,0,0,,8,,,80,127
4900,note_on,0,0,0,,12,,,71,127
5294,note_off,394,0,0,,12,,,71,127
5294,note_off,0,0,0,,8,,,80,127
5300,note_on,6,0,0,,12,,,71,127
5300,note_on,0,0,0,,8,,,80,127
5344,note_off,44,0,0,,8,,,80,127
5344,note_off,0,0,0,,12,,,71,127
5350,note_on,6,0,0,,6,,,78,127
5350,note_on,0,0,0,,10,,,69,127
5394,note_off,44,0,0,,10,,,69,127
5394,note_off,0,0,0,,6,,,78,127
5400,note_on,6,0,0,,8,,,80,127
5400,note_on,0,0,0,,12,,,71,127
5444,note_off,44,0,0,,12,,,71,127
5444,note_off,0,0,0,,8,,,80,127
5450,note_on,6,0,0,,10,,,69,127
5450,note_on,0,0,0,,6,,,78,127
5494,note_off,44,0,0,,6,,,78,127
5494,note_off,0,0,0,,10,,,69,127
5500,note_on,6,0,0,,8,,,80,127
5500,note_on,0,0,0,,12,,,71,127
5544,note_off,44,0,0,,12,,,71,127
5544,note_off,0,0,0,,8,,,80,127
5550,note_on,6,0,0,,6,,,78,127
5550,note_on,0,0,0,,10,,,69,127
5594,note_off,44,0,0,,10,,,69,127
5594,note_off,0,0,0,,6,,,78,127
5600,note_on,6,0,0,,8,,,80,127
5600,note_on,0,0,0,,12,,,71,127
5638,note_off,38,0,0,,4,,,40,127
5644,note_off,6,0,0,,12,,,71,127
5644,note_off,0,0,0,,8,,,80,127
5650,note_on,6,0,0,,6,,,78,127
5650,note_on,0,0,0,,10,,,69,127
5700,note_on,50,0,0,,4,,,64,127
5894,note_off,194,0,0,,4,,,64,127
5894,note_off,0,0,0,,10,,,69,127
5894,note_off,0,0,0,,6,,,78,127
5900,note_on,6,0,0,,12,,,59,127
5900,note_on,0,0,0,,4,,,76,127
5900,note_on,0,0,0,,8,,,68,127
6094,note_off,194,0,0,,12,,,59,127
6100,note_on,6,0,0,,4,,,52,127
6300,note_on,200,0,0,,4,,,40,127
6494,note_off,194,0,0,,4,,,40,127
6494,note_off,0,0,0,,8,,,68,127
6494,note_off,0,0,0,,4,,,76,127
6496,note_off,2,0,0,,4,,,52,127
6500,note_on,4,0,0,,4,,,64,127
6500,note_on,0,0,0,,8,,,80,127
6544,note_off,44,0,0,,8,,,80,127
6550,note_on,6,0,0,,10,,,81,127
6594,note_off,44,0,0,,10,,,81,127
6600,note_on,6,0,0,,12,,,83,127
6700,note_on,100,0,0,,8,,,68,127
6800,note_off,100,0,0,,4,,,64,127
6894,note_off,94,0,0,,8,,,68,127
6900,note_on,6,0,0,,6,,,66,127
7094,note_off,194,0,0,,6,,,66,127
7100,note_on,6,0,0,,4,,,64,127
7100,note_on,0,0,0,,2,,,74,127
7294,note_off,194,0,0,,2,,,74,127
7294,note_off,0,0,0,,4,,,64,127
7300,note_on,6,0,0,,10,,,69,127
7300,note_on,0,0,0,,1,,,73,127
7494,note_off,194,0,0,,1,,,73,127
7494,note_off,0,0,0,,10,,,69,127
7494,note_off,0,0,0,,12,,,83,127
7500,note_on,6,0,0,,1,,,73,127
7500,note_on,0,0,0,,10,,,81,127
7694,note_off,194,0,0,,10,,,81,127
7694,note_off,0,0,0,,1,,,73,127
7700,note_on,6,0,0,,12,,,71,127
7700,note_on,0,0,0,,8,,,80,127
7894,note_off,194,0,0,,8,,,80,127
7894,note_off,0,0,0,,12,,,71,127
7900,note_on,6,0,0,,10,,,69,127
7900,note_on,0,0,0,,6,,,78,127
8094,note_off,194,0,0,,6,,,78,127
8094,note_off,0,0,0,,10,,,69,127
8100,note_on,6,0,0,,4,,,64,127
8100,note_on,0,0,0,,8,,,80,127
8144,note_off,44,0,0,,8,,,80,127
8150,note_on,6,0,0,,10,,,81,127
8194,note_off,44,0,0,,10,,,81,127
8200,note_on,6,0,0,,12,,,83,127
8300,note_on,100,0,0,,8,,,68,127
8400,note_off,100,0,0,,4,,,64,127
8494,note_off,94,0,0,,8,,,68,127
8500,note_on,6,0,0,,6,,,66,127
8694,note_off,194,0,0,,6,,,66,127
8700,note_on,6,0,0,,4,,,64,127
8700,note_on,0,0,0,,2,,,74,127
8894,note_off,194,0,0,,2,,,74,127
8894,note_off,0,0,0,,4,,,64,127
8900,note_on,6,0,0,,10,,,69,127
8900,note_on,0,0,0,,1,,,73,127
9094,note_off,194,0,0,,1,,,73,127
9094,note_off,0,0,0,,10,,,69,127
9094,note_off,0,0,0,,12,,,83,127
9100,note_on,6,0,0,,1,,,73,127
9100,note_on,0,0,0,,10,,,81,127
9294,note_off,194,0,0,,10,,,81,127
9294,note_off,0,0,0,,1,,,73,127
9300,note_on,6,0,0,,12,,,71,127
9300,note_on,0,0,0,,8,,,80,127
9494,note_off,194,0,0,,8,,,80,127
9494,note_off,0,0,0,,12,,,71,127
9500,note_on,6,0,0,,10,,,69,127
9500,note_on,0,0,0,,6,,,78,127
9694,note_off,194,0,0,,6,,,78,127
9694,note_off,0,0,0,,10,,,69,127
9700,note_on,6,0,0,,4,,,64,127
9700,note_on,0,0,0,,8,,,80,127
9744,note_off,44,0,0,,8,,,80,127
9750,note_on,6,0,0,,10,,,81,127
9794,note_off,44,0,0,,10,,,81,127
9800,note_on,6,0,0,,12,,,83,127
9900,note_on,100,0,0,,8,,,68,127
10000,note_off,100,0,0,,4,,,64,127
10094,note_off,94,0,0,,8,,,68,127
10100,note_on,6,0,0,,6,,,66,127
10294,note_off,194,0,0,,6,,,66,127
10300,note_on,6,0,0,,4,,,64,127
10300,note_on,0,0,0,,4,,,76,127
10494,note_off,194,0,0,,4,,,76,127
10494,note_off,0,0,0,,4,,,64,127
10500,note_on,6,0,0,,12,,,71,127
10500,note_on,0,0,0,,3,,,75,127
10694,note_off,194,0,0,,3,,,75,127
10694,note_off,0,0,0,,12,,,83,127
10700,note_on,6,0,0,,10,,,81,127
10894,note_off,194,0,0,,10,,,81,127
10894,note_off,0,0,0,,12,,,71,127
10900,note_on,6,0,0,,12,,,59,127
10900,note_on,0,0,0,,8,,,80,127
11094,note_off,194,0,0,,8,,,80,127
11100,note_on,6,0,0,,6,,,78,127
11294,note_off,194,0,0,,6,,,78,127
11294,note_off,0,0,0,,12,,,59,127
11300,note_on,6,0,0,,4,,,64,127
11300,note_on,0,0,0,,8,,,80,127
11394,note_off,94,0,0,,8,,,80,127
11400,note_on,6,0,0,,6,,,78,127
11494,note_off,94,0,0,,6,,,78,127
11500,note_on,6,0,0,,4,,,76,127
11694,note_off,194,0,0,,4,,,64,127
11700,note_on,6,0,0,,4,,,52,127
11894,note_off,194,0,0,,4,,,76,127
11900,note_on,6,0,0,,3,,,75,127
12094,note_off,194,0,0,,4,,,52,127
12100,note_on,6,0,0,,4,,,40,127
12294,note_off,194,0,0,,3,,,75,127
12300,note_on,6,0,0,,4,,,76,127
12801,note_off,501,0,0,,4,,,76,127
12895,note_off,94,0,0,,4,,,40,127
12901,note_on,6,0,0,,4,,,64,127
12901,note_on,0,0,0,,4,,,76,127
12945,note_off,44,0,0,,4,,,76,127
12951,note_on,6,0,0,,6,,,78,127
12995,note_off,44,0,0,,6,,,78,127
13001,note_on,6,0,0,,7,,,79,127
13101,note_on,100,0,0,,7,,,67,127
13201,note_off,100,0,0,,4,,,64,127
13295,note_off,94,0,0,,7,,,67,127
13301,note_on,6,0,0,,6,,,66,127
13495,note_off,194,0,0,,6,,,66,127
13501,note_on,6,0,0,,4,,,64,127
13501,note_on,0,0,0,,12,,,71,127
13695,note_off,194,0,0,,12,,,71,127
13695,note_off,0,0,0,,4,,,64,127
13701,note_on,6,0,0,,10,,,69,127
13701,note_on,0,0,0,,0,,,72,127
13895,note_off,194,0,0,,0,,,72,127
13895,note_off,0,0,0,,10,,,69,127
13895,note_off,0,0,0,,7,,,79,127
13901,note_on,6,0,0,,0,,,72,127
13901,note_on,0,0,0,,6,,,78,127
14095,note_off,194,0,0,,6,,,78,127
14095,note_off,0,0,0,,0,,,72,127
14101,note_on,6,0,0,,12,,,71,127
14101,note_on,0,0,0,,4,,,76,127
14295,note_off,194,0,0,,4,,,76,127
14295,note_off,0,0,0,,12,,,71,127
14301,note_on,6,0,0,,10,,,69,127
14301,note_on,0,0,0,,3,,,75,127
14495,note_off,194,0,0,,3,,,75,127
14495,note_off,0,0,0,,10,,,69,127
14501,note_on,6,0,0,,4,,,64,127
14501,note_on,0,0,0,,4,,,76,127
14545,note_off,44,0,0,,4,,,76,127
14551,note_on,6,0,0,,6,,,78,127
14595,note_off,44,0,0,,6,,,78,127
14601,note_on,6,0,0,,7,,,79,127
14701,note_on,100,0,0,,7,,,67,127
14801,note_off,100,0,0,,4,,,64,127
14895,note_off,94,0,0,,7,,,67,127
14901,note_on,6,0,0,,6,,,66,127
15095,note_off,194,0,0,,6,,,66,127
15101,note_on,6,0,0,,4,,,64,127
15101,note_on,0,0,0,,12,,,71,127
15295,note_off,194,0,0,,12,,,71,127
15295,note_off,0,0,0,,4,,,64,127
15301,note_on,6,0,0,,10,,,69,127
15301,note_on,0,0,0,,0,,,72,127
15495,note_off,194,0,0,,0,,,72,127
15495,note_off,0,0,0,,10,,,69,127
15495,note_off,0,0,0,,7,,,79,127
15501,note_on,6,0,0,,0,,,72,127
15501,note_on,0,0,0,,6,,,78,127
15695,note_off,194,0,0,,6,,,78,127
15695,note_off,0,0,0,,0,,,72,127
15701,note_on,6,0,0,,12,,,71,127
15701,note_on,0,0,0,,4,,,76,127
15895,note_off,194,0,0,,4,,,76,127
15895,note_off,0,0,0,,12,,,71,127
15901,note_on,6,0,0,,10,,,69,127
15901,note_on,0,0,0,,3,,,75,127
16095,note_off,194,0,0,,3,,,75,127
16095,note_off,0,0,0,,10,,,69,127
16101,note_on,6,0,0,,4,,,64,127
16101,note_on,0,0,0,,7,,,79,127
16145,note_off,44,0,0,,7,,,79,127
16151,note_on,6,0,0,,10,,,81,127
16195,note_off,44,0,0,,10,,,81,127
16201,note_on,6,0,0,,12,,,83,127
16301,note_on,100,0,0,,7,,,67,127
16401,note_off,100,0,0,,4,,,64,127
16495,note_off,94,0,0,,7,,,67,127
16501,note_on,6,0,0,,6,,,66,127
16695,note_off,194,0,0,,6,,,66,127
16701,note_on,6,0,0,,4,,,64,127
16701,note_on,0,0,0,,12,,,71,127
16895,note_off,194,0,0,,12,,,71,127
16895,note_off,0,0,0,,4,,,64,127
16901,note_on,6,0,0,,10,,,69,127
16901,note_on,0,0,0,,0,,,72,127
17095,note_off,194,0,0,,0,,,72,127
17095,note_off,0,0,0,,12,,,83,127
17101,note_on,6,0,0,,6,,,78,127
17101,note_on,0,0,0,,10,,,81,127
17295,note_off,194,0,0,,10,,,69,127
17301,note_on,6,0,0,,10,,,57,127
17495,note_off,194,0,0,,10,,,81,127
17495,note_off,0,0,0,,6,,,78,127
17501,note_on,6,0,0,,7,,,79,127
17501,note_on,0,0,0,,4,,,76,127
17695,note_off,194,0,0,,4,,,76,127
17695,note_off,0,0,0,,7,,,79,127
17695,note_off,0,0,0,,10,,,57,127
17701,note_on,6,0,0,,12,,,59,127
17701,note_on,0,0,0,,12,,,71,127
17701,note_on,0,0,0,,7,,,79,127
17701,note_on,0,0,0,,4,,,76,127
17795,note_off,94,0,0,,7,,,79,127
17801,note_on,6,0,0,,6,,,78,127
17893,note_off,92,0,0,,4,,,76,127
17895,note_off,2,0,0,,6,,,78,127
17901,note_on,6,0,0,,4,,,76,127
18095,note_off,194,0,0,,12,,,71,127
18101,note_on,6,0,0,,12,,,47,127
18300,note_off,199,0,0,,12,,,59,127
18501,note_on,201,0,0,,12,,,35,127
18695,note_off,194,0,0,,4,,,76,127
18701,note_on,6,0,0,,6,,,78,127
18900,note_off,199,0,0,,12,,,47,127
19252,note_off,352,0,0,,6,,,78,127
19296,note_off,44,0,0,,12,,,35,127
19302,note_on,6,0,0,,12,,,71,127
19302,note_on,0,0,0,,12,,,83,127
19302,note_on,0,0,0,,2,,,74,127
19496,note_off,194,0,0,,2,,,74,127
19496,note_off,0,0,0,,12,,,71,127
19502,note_on,6,0,0,,2,,,74,127
19502,note_on,0,0,0,,6,,,78,127
19696,note_off,194,0,0,,6,,,78,127
19696,note_off,0,0,0,,2,,,74,127
19702,note_on,6,0,0,,1,,,73,127
19702,note_on,0,0,0,,4,,,76,127
19896,note_off,194,0,0,,4,,,76,127
19896,note_off,0,0,0,,1,,,73,127
19902,note_on,6,0,0,,12,,,71,127
19902,note_on,0,0,0,,2,,,74,127
20096,note_off,194,0,0,,2,,,74,127
20096,note_off,0,0,0,,12,,,71,127
20102,note_on,6,0,0,,6,,,66,127
20102,note_on,0,0,0,,1,,,73,127
20296,note_off,194,0,0,,1,,,73,127
20296,note_off,0,0,0,,6,,,66,127
20296,note_off,0,0,0,,12,,,83,127
20302,note_on,6,0,0,,4,,,76,127
20302,note_on,0,0,0,,7,,,79,127
20302,note_on,0,0,0,,11,,,82,127
20496,note_off,194,0,0,,11,,,82,127
20496,note_off,0,0,0,,7,,,79,127
20496,note_off,0,0,0,,4,,,76,127
20502,note_on,6,0,0,,2,,,74,127
20502,note_on,0,0,0,,6,,,78,127
20502,note_on,0,0,0,,12,,,83,127
20696,note_off,194,0,0,,12,,,83,127
20696,note_off,0,0,0,,6,,,78,127
20696,note_off,0,0,0,,2,,,74,127
20702,note_on,6,0,0,,1,,,73,127
20702,note_on,0,0,0,,4,,,76,127
20702,note_on,0,0,0,,11,,,82,127
20896,note_off,194,0,0,,11,,,82,127
20896,note_off,0,0,0,,4,,,76,127
20896,note_off,0,0,0,,1,,,73,127
20902,note_on,6,0,0,,12,,,71,127
20902,note_on,0,0,0,,2,,,74,127
20902,note_on,0,0,0,,12,,,83,127
21096,note_off,194,0,0,,2,,,74,127
21096,note_off,0,0,0,,12,,,71,127
21102,note_on,6,0,0,,2,,,74,127
21102,note_on,0,0,0,,6,,,78,127
21296,note_off,194,0,0,,6,,,78,127
21296,note_off,0,0,0,,2,,,74,127
21302,note_on,6,0,0,,1,,,73,127
21302,note_on,0,0,0,,4,,,76,127
21496,note_off,194,0,0,,4,,,76,127
21496,note_off,0,0,0,,1,,,73,127
21502,note_on,6,0,0,,12,,,71,127
21502,note_on,0,0,0,,2,,,74,127
21696,note_off,194,0,0,,2,,,74,127
21696,note_off,0,0,0,,12,,,71,127
21702,note_on,6,0,0,,6,,,66,127
21702,note_on,0,0,0,,1,,,73,127
21896,note_off,194,0,0,,1,,,73,127
21896,note_off,0,0,0,,6,,,66,127
21896,note_off,0,0,0,,12,,,83,127
21902,note_on,6,0,0,,4,,,76,127
21902,note_on,0,0,0,,7,,,79,127
21902,note_on,0,0,0,,11,,,82,127
22096,note_off,194,0,0,,11,,,82,127
22096,note_off,0,0,0,,7,,,79,127
22096,note_off,0,0,0,,4,,,76,127
22102,note_on,6,0,0,,2,,,74,127
22102,note_on,0,0,0,,12,,,83,127
22102,note_on,0,0,0,,6,,,78,127
22296,note_off,194,0,0,,6,,,78,127
22296,note_off,0,0,0,,12,,,83,127
22296,note_off,0,0,0,,2,,,74,127
22302,note_on,6,0,0,,1,,,73,127
22302,note_on,0,0,0,,4,,,76,127
22302,note_on,0,0,0,,11,,,82,127
22496,note_off,194,0,0,,11,,,82,127
22496,note_off,0,0,0,,4,,,76,127
22496,note_off,0,0,0,,1,,,73,127
22502,note_on,6,0,0,,12,,,71,127
22502,note_on,0,0,0,,2,,,74,127
22502,note_on,0,0,0,,12,,,83,127
22696,note_off,194,0,0,,2,,,74,127
22696,note_off,0,0,0,,12,,,71,127
22702,note_on,6,0,0,,2,,,74,127
22702,note_on,0,0,0,,5,,,77,127
22875,note_off,173,0,0,,12,,,83,127
22896,note_off,21,0,0,,5,,,77,127
22896,note_off,0,0,0,,2,,,74,127
22902,note_on,6,0,0,,0,,,72,127
22902,note_on,0,0,0,,10,,,81,127
22902,note_on,0,0,0,,4,,,76,127
23096,note_off,194,0,0,,4,,,76,127
23096,note_off,0,0,0,,0,,,72,127
23102,note_on,6,0,0,,12,,,71,127
23102,note_on,0,0,0,,2,,,74,127
23296,note_off,194,0,0,,2,,,74,127
23296,note_off,0,0,0,,12,,,71,127
23302,note_on,6,0,0,,4,,,64,127
23302,note_on,0,0,0,,12,,,71,127
23496,note_off,194,0,0,,12,,,71,127
23496,note_off,0,0,0,,4,,,64,127
23496,note_off,0,0,0,,10,,,81,127
23502,note_on,6,0,0,,2,,,74,127
23502,note_on,0,0,0,,5,,,77,127
23502,note_on,0,0,0,,8,,,80,127
23696,note_off,194,0,0,,8,,,80,127
23696,note_off,0,0,0,,5,,,77,127
23696,note_off,0,0,0,,2,,,74,127
23702,note_on,6,0,0,,0,,,72,127
23702,note_on,0,0,0,,10,,,81,127
23702,note_on,0,0,0,,4,,,76,127
23896,note_off,194,0,0,,4,,,76,127
23896,note_off,0,0,0,,10,,,81,127
23896,note_off,0,0,0,,0,,,72,127
23902,note_on,6,0,0,,12,,,71,127
23902,note_on,0,0,0,,8,,,80,127
23902,note_on,0,0,0,,2,,,74,127
24096,note_off,194,0,0,,2,,,74,127
24096,note_off,0,0,0,,8,,,80,127
24096,note_off,0,0,0,,12,,,71,127
24102,note_on,6,0,0,,10,,,69,127
24102,note_on,0,0,0,,10,,,81,127
24102,note_on,0,0,0,,0,,,72,127
24296,note_off,194,0,0,,0,,,72,127
24296,note_off,0,0,0,,10,,,69,127
24302,note_on,6,0,0,,0,,,72,127
24302,note_on,0,0,0,,4,,,76,127
24496,note_off,194,0,0,,4,,,76,127
24496,note_off,0,0,0,,0,,,72,127
24502,note_on,6,0,0,,12,,,71,127
24502,note_on,0,0,0,,2,,,74,127
24696,note_off,194,0,0,,2,,,74,127
24696,note_off,0,0,0,,12,,,71,127
24702,note_on,6,0,0,,10,,,69,127
24702,note_on,0,0,0,,0,,,72,127
24896,note_off,194,0,0,,0,,,72,127
24896,note_off,0,0,0,,10,,,69,127
24902,note_on,6,0,0,,4,,,64,127
24902,note_on,0,0,0,,12,,,71,127
25096,note_off,194,0,0,,12,,,71,127
25096,note_off,0,0,0,,4,,,64,127
25096,note_off,0,0,0,,10,,,81,127
25102,note_on,6,0,0,,2,,,74,127
25102,note_on,0,0,0,,8,,,80,127
25102,note_on,0,0,0,,5,,,77,127
25296,note_off,194,0,0,,5,,,77,127
25296,note_off,0,0,0,,8,,,80,127
25296,note_off,0,0,0,,2,,,74,127
25302,note_on,6,0,0,,0,,,72,127
25302,note_on,0,0,0,,4,,,76,127
25302,note_on,0,0,0,,10,,,81,127
25496,note_off,194,0,0,,10,,,81,127
25496,note_off,0,0,0,,4,,,76,127
25496,note_off,0,0,0,,0,,,72,127
25502,note_on,6,0,0,,12,,,71,127
25502,note_on,0,0,0,,8,,,80,127
25502,note_on,0,0,0,,2,,,74,127
25696,note_off,194,0,0,,2,,,74,127
25696,note_off,0,0,0,,8,,,80,127
25696,note_off,0,0,0,,12,,,71,127
25702,note_on,6,0,0,,10,,,69,127
25702,note_on,0,0,0,,10,,,81,127
25702,note_on,0,0,0,,0,,,72,127
25896,note_off,194,0,0,,0,,,72,127
25896,note_off,0,0,0,,10,,,69,127
25902,note_on,6,0,0,,0,,,72,127
25902,note_on,0,0,0,,4,,,76,127
26096,note_off,194,0,0,,4,,,76,127
26096,note_off,0,0,0,,0,,,72,127
26102,note_on,6,0,0,,12,,,71,127
26102,note_on,0,0,0,,2,,,74,127
26296,note_off,194,0,0,,2,,,74,127
26296,note_off,0,0,0,,12,,,71,127
26302,note_on,6,0,0,,10,,,69,127
26302,note_on,0,0,0,,0,,,72,127
26496,note_off,194,0,0,,0,,,72,127
26496,note_off,0,0,0,,10,,,69,127
26502,note_on,6,0,0,,4,,,64,127
26502,note_on,0,0,0,,12,,,71,127
26696,note_off,194,0,0,,12,,,71,127
26696,note_off,0,0,0,,4,,,64,127
26696,note_off,0,0,0,,10,,,81,127
26702,note_on,6,0,0,,2,,,74,127
26702,note_on,0,0,0,,5,,,77,127
26702,note_on,0,0,0,,8,,,80,127
26896,note_off,194,0,0,,8,,,80,127
26896,note_off,0,0,0,,5,,,77,127
26896,note_off,0,0,0,,2,,,74,127
26902,note_on,6,0,0,,0,,,72,127
26902,note_on,0,0,0,,10,,,81,127
26902,note_on,0,0,0,,4,,,76,127
27096,note_off,194,0,0,,4,,,76,127
27096,note_off,0,0,0,,10,,,81,127
27096,note_off,0,0,0,,0,,,72,127
27102,note_on,6,0,0,,12,,,71,127
27102,note_on,0,0,0,,12,,,83,127
27102,note_on,0,0,0,,2,,,74,127
27296,note_off,194,0,0,,2,,,74,127
27296,note_off,0,0,0,,12,,,83,127
27296,note_off,0,0,0,,12,,,71,127
27302,note_on,6,0,0,,10,,,69,127
27302,note_on,0,0,0,,0,,,84,127
27502,note_on,200,0,0,,4,,,76,127
27696,note_off,194,0,0,,4,,,76,127
27702,note_on,6,0,0,,3,,,75,127
27896,note_off,194,0,0,,3,,,75,127
27902,note_on,6,0,0,,4,,,76,127
28096,note_off,194,0,0,,10,,,69,127
28101,note_off,5,0,0,,0,,,84,127
28102,note_on,1,0,0,,10,,,57,127
28102,note_on,0,0,0,,0,,,84,127
28196,note_off,94,0,0,,0,,,84,127
28202,note_off,6,0,0,,4,,,76,127
28202,note_on,0,0,0,,12,,,83,127
28296,note_off,94,0,0,,12,,,83,127
28302,note_on,6,0,0,,10,,,81,127
28396,note_off,94,0,0,,10,,,81,127
28402,note_on,6,0,0,,7,,,79,127
28496,note_off,94,0,0,,7,,,79,127
28496,note_off,0,0,0,,10,,,57,127
28502,note_on,6,0,0,,10,,,69,127
28502,note_on,0,0,0,,6,,,78,127
28696,note_off,194,0,0,,6,,,78,127
28702,note_on,6,0,0,,4,,,76,127
28896,note_off,194,0,0,,4,,,76,127
28896,note_off,0,0,0,,10,,,69,127
28902,note_on,6,0,0,,12,,,59,127
28902,note_on,0,0,0,,12,,,83,127
29096,note_off,194,0,0,,12,,,83,127
29102,note_on,6,0,0,,3,,,75,127
29102,note_on,0,0,0,,12,,,71,127
29296,note_off,194,0,0,,12,,,71,127
29296,note_off,0,0,0,,3,,,75,127
29302,note_on,6,0,0,,3,,,75,127
29302,note_on,0,0,0,,12,,,71,127
29346,note_off,44,0,0,,12,,,71,127
29346,note_off,0,0,0,,3,,,75,127
29352,note_on,6,0,0,,1,,,73,127
29352,note_on,0,0,0,,10,,,69,127
29396,note_off,44,0,0,,10,,,69,127
29396,note_off,0,0,0,,1,,,73,127
29402,note_on,6,0,0,,12,,,71,127
29402,note_on,0,0,0,,3,,,75,127
29446,note_off,44,0,0,,3,,,75,127
29446,note_off,0,0,0,,12,,,71,127
29452,note_on,6,0,0,,10,,,69,127
29452,note_on,0,0,0,,1,,,73,127
29496,note_off,44,0,0,,1,,,73,127
29496,note_off,0,0,0,,10,,,69,127
29502,note_on,6,0,0,,8,,,68,127
29502,note_on,0,0,0,,12,,,71,127
29696,note_off,194,0,0,,12,,,71,127
29696,note_off,0,0,0,,8,,,68,127
29696,note_off,0,0,0,,12,,,59,127
29702,note_on,6,0,0,,12,,,59,127
29702,note_on,0,0,0,,10,,,81,127
29896,note_off,194,0,0,,10,,,81,127
29902,note_on,6,0,0,,1,,,73,127
29902,note_on,0,0,0,,10,,,69,127
30096,note_off,194,0,0,,10,,,69,127
30096,note_off,0,0,0,,1,,,73,127
30102,note_on,6,0,0,,1,,,73,127
30102,note_on,0,0,0,,10,,,69,127
30146,note_off,44,0,0,,10,,,69,127
30146,note_off,0,0,0,,1,,,73,127
30152,note_on,6,0,0,,8,,,68,127
30152,note_on,0,0,0,,12,,,71,127
30196,note_off,44,0,0,,12,,,71,127
30196,note_off,0,0,0,,8,,,68,127
30202,note_on,6,0,0,,1,,,73,127
30202,note_on,0,0,0,,10,,,69,127
30246,note_off,44,0,0,,10,,,69,127
30246,note_off,0,0,0,,1,,,73,127
30252,note_on,6,0,0,,8,,,68,127
30252,note_on,0,0,0,,12,,,71,127
30296,note_off,44,0,0,,12,,,71,127
30296,note_off,0,0,0,,8,,,68,127
30302,note_on,6,0,0,,10,,,69,127
30302,note_on,0,0,0,,6,,,66,127
30496,note_off,194,0,0,,6,,,66,127
30496,note_off,0,0,0,,10,,,69,127
30496,note_off,0,0,0,,12,,,59,127
30502,note_on,6,0,0,,12,,,59,127
30502,note_on,0,0,0,,8,,,80,127
30696,note_off,194,0,0,,8,,,80,127
30702,note_on,6,0,0,,12,,,71,127
30702,note_on,0,0,0,,8,,,68,127
30896,note_off,194,0,0,,8,,,68,127
30896,note_off,0,0,0,,12,,,71,127
30902,note_on,6,0,0,,12,,,71,127
30902,note_on,0,0,0,,8,,,68,127
30946,note_off,44,0,0,,8,,,68,127
30946,note_off,0,0,0,,12,,,71,127
30952,note_on,6,0,0,,6,,,66,127
30952,note_on,0,0,0,,10,,,69,127
30996,note_off,44,0,0,,10,,,69,127
30996,note_off,0,0,0,,6,,,66,127
31002,note_on,6,0,0,,8,,,68,127
31002,note_on,0,0,0,,12,,,71,127
31046,note_off,44,0,0,,12,,,71,127
31046,note_off,0,0,0,,8,,,68,127
31052,note_on,6,0,0,,10,,,69,127
31052,note_on,0,0,0,,6,,,66,127
31096,note_off,44,0,0,,6,,,66,127
31096,note_off,0,0,0,,10,,,69,127
31102,note_on,6,0,0,,8,,,68,127
31102,note_on,0,0,0,,4,,,64,127
31296,note_off,194,0,0,,4,,,64,127
31296,note_off,0,0,0,,8,,,68,127
31296,note_off,0,0,0,,12,,,59,127
31302,note_on,6,0,0,,12,,,59,127
31302,note_on,0,0,0,,6,,,78,127
31496,note_off,194,0,0,,6,,,78,127
31502,note_on,6,0,0,,10,,,69,127
31502,note_on,0,0,0,,6,,,66,127
31696,note_off,194,0,0,,6,,,66,127
31696,note_off,0,0,0,,10,,,69,127
31702,note_on,6,0,0,,6,,,66,127
31702,note_on,0,0,0,,10,,,69,127
31746,note_off,44,0,0,,10,,,69,127
31746,note_off,0,0,0,,6,,,66,127
31752,note_on,6,0,0,,8,,,68,127
31752,note_on,0,0,0,,4,,,64,127
31796,note_off,44,0,0,,4,,,64,127
31796,note_off,0,0,0,,8,,,68,127
31802,note_on,6,0,0,,6,,,66,127
31802,note_on,0,0,0,,10,,,69,127
31846,note_off,44,0,0,,10,,,69,127
31846,note_off,0,0,0,,6,,,66,127
31852,note_on,6,0,0,,8,,,68,127
31852,note_on,0,0,0,,4,,,64,127
31896,note_off,44,0,0,,4,,,64,127
31896,note_off,0,0,0,,8,,,68,127
31902,note_on,6,0,0,,3,,,63,127
31902,note_on,0,0,0,,6,,,66,127
32096,note_off,194,0,0,,6,,,66,127
32096,note_off,0,0,0,,3,,,63,127
32096,note_off,0,0,0,,12,,,59,127
32102,note_on,6,0,0,,4,,,64,127
32102,note_on,0,0,0,,8,,,68,127
32196,note_off,94,0,0,,8,,,68,127
32196,note_off,0,0,0,,4,,,64,127
32202,note_on,6,0,0,,6,,,66,127
32202,note_on,0,0,0,,10,,,69,127
32296,note_off,94,0,0,,10,,,69,127
32296,note_off,0,0,0,,6,,,66,127
32302,note_on,6,0,0,,12,,,71,127
32302,note_on,0,0,0,,8,,,68,127
32396,note_off,94,0,0,,8,,,68,127
32396,note_off,0,0,0,,12,,,71,127
32402,note_on,6,0,0,,1,,,73,127
32402,note_on,0,0,0,,10,,,69,127
32496,note_off,94,0,0,,10,,,69,127
32496,note_off,0,0,0,,1,,,73,127
32502,note_on,6,0,0,,12,,,71,127
32502,note_on,0,0,0,,3,,,75,127
32596,note_off,94,0,0,,3,,,75,127
32596,note_off,0,0,0,,12,,,71,127
32602,note_on,6,0,0,,10,,,69,127
32602,note_on,0,0,0,,1,,,73,127
32696,note_off,94,0,0,,1,,,73,127
32696,note_off,0,0,0,,10,,,69,127
32702,note_on,6,0,0,,12,,,71,127
32702,note_on,0,0,0,,8,,,68,127
32796,note_off,94,0,0,,8,,,68,127
32796,note_off,0,0,0,,12,,,71,127
32802,note_on,6,0,0,,6,,,66,127
32802,note_on,0,0,0,,10,,,69,127
32896,note_off,94,0,0,,10,,,69,127
32896,note_off,0,0,0,,6,,,66,127
32902,note_on,6,0,0,,8,,,68,127
32902,note_on,0,0,0,,12,,,71,127
32996,note_off,94,0,0,,12,,,71,127
32996,note_off,0,0,0,,8,,,68,127
33002,note_on,6,0,0,,1,,,73,127
33002,note_on,0,0,0,,10,,,69,127
33096,note_off,94,0,0,,10,,,69,127
33096,note_off,0,0,0,,1,,,73,127
33102,note_on,6,0,0,,3,,,75,127
33102,note_on,0,0,0,,12,,,71,127
33196,note_off,94,0,0,,12,,,71,127
33196,note_off,0,0,0,,3,,,75,127
33202,note_on,6,0,0,,1,,,73,127
33202,note_on,0,0,0,,4,,,76,127
33296,note_off,94,0,0,,4,,,76,127
33296,note_off,0,0,0,,1,,,73,127
33302,note_on,6,0,0,,6,,,78,127
33302,note_on,0,0,0,,3,,,75,127
33396,note_off,94,0,0,,3,,,75,127
33396,note_off,0,0,0,,6,,,78,127
33402,note_on,6,0,0,,1,,,73,127
33402,note_on,0,0,0,,4,,,76,127
33496,note_off,94,0,0,,4,,,76,127
33496,note_off,0,0,0,,1,,,73,127
33502,note_on,6,0,0,,3,,,75,127
33502,note_on,0,0,0,,12,,,71,127
33596,note_off,94,0,0,,12,,,71,127
33596,note_off,0,0,0,,3,,,75,127
33602,note_on,6,0,0,,1,,,73,127
33602,note_on,0,0,0,,10,,,69,127
33696,note_off,94,0,0,,10,,,69,127
33696,note_off,0,0,0,,1,,,73,127
33702,note_on,6,0,0,,12,,,71,127
33702,note_on,0,0,0,,3,,,75,127
33796,note_off,94,0,0,,3,,,75,127
33796,note_off,0,0,0,,12,,,71,127
33802,note_on,6,0,0,,4,,,76,127
33802,note_on,0,0,0,,1,,,73,127
33896,note_off,94,0,0,,1,,,73,127
33896,note_off,0,0,0,,4,,,76,127
33902,note_on,6,0,0,,6,,,78,127
33902,note_on,0,0,0,,3,,,75,127
33996,note_off,94,0,0,,3,,,75,127
33996,note_off,0,0,0,,6,,,78,127
34002,note_on,6,0,0,,8,,,80,127
34002,note_on,0,0,0,,4,,,76,127
34096,note_off,94,0,0,,4,,,76,127
34096,note_off,0,0,0,,8,,,80,127
34102,note_on,6,0,0,,10,,,81,127
34102,note_on,0,0,0,,6,,,78,127
34196,note_off,94,0,0,,6,,,78,127
34196,note_off,0,0,0,,10,,,81,127
34202,note_on,6,0,0,,4,,,76,127
34202,note_on,0,0,0,,8,,,80,127
34296,note_off,94,0,0,,8,,,80,127
34296,note_off,0,0,0,,4,,,76,127
34302,note_on,6,0,0,,6,,,78,127
34302,note_on,0,0,0,,3,,,75,127
34396,note_off,94,0,0,,3,,,75,127
34396,note_off,0,0,0,,6,,,78,127
34402,note_on,6,0,0,,4,,,76,127
34402,note_on,0,0,0,,1,,,73,127
34496,note_off,94,0,0,,1,,,73,127
34496,note_off,0,0,0,,4,,,76,127
34502,note_on,6,0,0,,6,,,78,127
34502,note_on,0,0,0,,3,,,75,127
34596,note_off,94,0,0,,3,,,75,127
34596,note_off,0,0,0,,6,,,78,127
34602,note_on,6,0,0,,1,,,73,127
34602,note_on,0,0,0,,4,,,76,127
34696,note_off,94,0,0,,4,,,76,127
34696,note_off,0,0,0,,1,,,73,127
34702,note_on,6,0,0,,3,,,75,127
34702,note_on,0,0,0,,6,,,78,127
34796,note_off,94,0,0,,6,,,78,127
34796,note_off,0,0,0,,3,,,75,127
34802,note_on,6,0,0,,8,,,80,127
34802,note_on,0,0,0,,12,,,71,127
34896,note_off,94,0,0,,12,,,71,127
34896,note_off,0,0,0,,8,,,80,127
34902,note_on,6,0,0,,1,,,73,127
34902,note_on,0,0,0,,4,,,76,127
34996,note_off,94,0,0,,4,,,76,127
34996,note_off,0,0,0,,1,,,73,127
35002,note_on,6,0,0,,3,,,75,127
35002,note_on,0,0,0,,12,,,71,127
35096,note_off,94,0,0,,12,,,71,127
35096,note_off,0,0,0,,3,,,75,127
35102,note_on,6,0,0,,4,,,76,127
35102,note_on,0,0,0,,1,,,73,127
35196,note_off,94,0,0,,1,,,73,127
35196,note_off,0,0,0,,4,,,76,127
35202,note_on,6,0,0,,6,,,66,127
35202,note_on,0,0,0,,6,,,78,127
35296,note_off,94,0,0,,6,,,78,127
35296,note_off,0,0,0,,6,,,66,127
35302,note_on,6,0,0,,3,,,75,127
35302,note_on,0,0,0,,12,,,71,127
35396,note_off,94,0,0,,12,,,71,127
35396,note_off,0,0,0,,3,,,75,127
35402,note_on,6,0,0,,4,,,76,127
35402,note_on,0,0,0,,1,,,73,127
35496,note_off,94,0,0,,1,,,73,127
35496,note_off,0,0,0,,4,,,76,127
35502,note_on,6,0,0,,6,,,78,127
35502,note_on,0,0,0,,3,,,75,127
35596,note_off,94,0,0,,3,,,75,127
35596,note_off,0,0,0,,6,,,78,127
35602,note_on,6,0,0,,3,,,75,127
35602,note_on,0,0,0,,12,,,71,127
35696,note_off,94,0,0,,12,,,71,127
35696,note_off,0,0,0,,3,,,75,127
35702,note_on,6,0,0,,4,,,76,127
35702,note_on,0,0,0,,1,,,73,127
35796,note_off,94,0,0,,1,,,73,127
35796,note_off,0,0,0,,4,,,76,127
35802,note_on,6,0,0,,3,,,75,127
35802,note_on,0,0,0,,12,,,71,127
35896,note_off,94,0,0,,12,,,71,127
35896,note_off,0,0,0,,3,,,75,127
35902,note_on,6,0,0,,1,,,73,127
35902,note_on,0,0,0,,4,,,76,127
35996,note_off,94,0,0,,4,,,76,127
35996,note_off,0,0,0,,1,,,73,127
36002,note_on,6,0,0,,6,,,78,127
36002,note_on,0,0,0,,6,,,66,127
36096,note_off,94,0,0,,6,,,66,127
36096,note_off,0,0,0,,6,,,78,127
36102,note_on,6,0,0,,3,,,75,127
36102,note_on,0,0,0,,12,,,71,127
36196,note_off,94,0,0,,12,,,71,127
36196,note_off,0,0,0,,3,,,75,127
36202,note_on,6,0,0,,1,,,73,127
36202,note_on,0,0,0,,4,,,76,127
36296,note_off,94,0,0,,4,,,76,127
36296,note_off,0,0,0,,1,,,73,127
36302,note_on,6,0,0,,3,,,75,127
36302,note_on,0,0,0,,6,,,78,127
36396,note_off,94,0,0,,6,,,78,127
36396,note_off,0,0,0,,3,,,75,127
36402,note_on,6,0,0,,3,,,75,127
36402,note_on,0,0,0,,12,,,71,127
36496,note_off,94,0,0,,12,,,71,127
36496,note_off,0,0,0,,3,,,75,127
36502,note_on,6,0,0,,1,,,73,127
36502,note_on,0,0,0,,4,,,76,127
36596,note_off,94,0,0,,4,,,76,127
36596,note_off,0,0,0,,1,,,73,127
36602,note_on,6,0,0,,3,,,75,127
36602,note_on,0,0,0,,12,,,71,127
36696,note_off,94,0,0,,12,,,71,127
36696,note_off,0,0,0,,3,,,75,127
36702,note_on,6,0,0,,4,,,76,127
36702,note_on,0,0,0,,1,,,73,127
36796,note_off,94,0,0,,1,,,73,127
36796,note_off,0,0,0,,4,,,76,127
36802,note_on,6,0,0,,6,,,66,127
36802,note_on,0,0,0,,6,,,78,127
36896,note_off,94,0,0,,6,,,78,127
36896,note_off,0,0,0,,6,,,66,127
36902,note_on,6,0,0,,12,,,71,127
36902,note_on,0,0,0,,12,,,83,127
37096,note_off,194,0,0,,12,,,71,127
37102,note_on,6,0,0,,12,,,71,127
37296,note_off,194,0,0,,12,,,71,127
37302,note_on,6,0,0,,12,,,71,127
37496,note_off,194,0,0,,12,,,71,127
37496,note_off,0,0,0,,12,,,83,127
37502,note_on,6,0,0,,12,,,71,127
37502,note_on,0,0,0,,10,,,81,127
37696,note_off,194,0,0,,10,,,81,127
37696,note_off,0,0,0,,12,,,71,127
37702,note_on,6,0,0,,12,,,71,127
37702,note_on,0,0,0,,8,,,80,127
37896,note_off,194,0,0,,8,,,80,127
37896,note_off,0,0,0,,12,,,71,127
37902,note_on,6,0,0,,12,,,71,127
37902,note_on,0,0,0,,5,,,77,127
38096,note_off,194,0,0,,5,,,77,127
38096,note_off,0,0,0,,12,,,71,127
38102,note_on,6,0,0,,12,,,71,127
38102,note_on,0,0,0,,4,,,76,127
38296,note_off,194,0,0,,4,,,76,127
38296,note_off,0,0,0,,12,,,71,127
38302,note_on,6,0,0,,12,,,71,127
38302,note_on,0,0,0,,2,,,74,127
38496,note_off,194,0,0,,2,,,74,127
38496,note_off,0,0,0,,12,,,71,127
38502,note_on,6,0,0,,12,,,71,127
38502,note_on,0,0,0,,0,,,72,127
38502,note_on,0,0,0,,12,,,83,127
38696,note_off,194,0,0,,12,,,83,127
38696,note_off,0,0,0,,0,,,72,127
38696,note_off,0,0,0,,12,,,71,127
38702,note_on,6,0,0,,0,,,72,127
38702,note_on,0,0,0,,10,,,69,127
38702,note_on,0,0,0,,0,,,84,127
38896,note_off,194,0,0,,0,,,84,127
38896,note_off,0,0,0,,10,,,69,127
38896,note_off,0,0,0,,0,,,72,127
38902,note_on,6,0,0,,10,,,69,127
38902,note_on,0,0,0,,0,,,72,127
38902,note_on,0,0,0,,8,,,80,127
39096,note_off,194,0,0,,8,,,80,127
39096,note_off,0,0,0,,0,,,72,127
39096,note_off,0,0,0,,10,,,69,127
39102,note_on,6,0,0,,10,,,69,127
39102,note_on,0,0,0,,0,,,72,127
39102,note_on,0,0,0,,10,,,81,127
39296,note_off,194,0,0,,10,,,81,127
39296,note_off,0,0,0,,0,,,72,127
39296,note_off,0,0,0,,10,,,69,127
39302,note_on,6,0,0,,10,,,69,127
39302,note_on,0,0,0,,0,,,72,127
39302,note_on,0,0,0,,4,,,76,127
39496,note_off,194,0,0,,4,,,76,127
39496,note_off,0,0,0,,0,,,72,127
39496,note_off,0,0,0,,10,,,69,127
39502,note_on,6,0,0,,10,,,69,127
39502,note_on,0,0,0,,0,,,72,127
39502,note_on,0,0,0,,5,,,77,127
39696,note_off,194,0,0,,5,,,77,127
39696,note_off,0,0,0,,0,,,72,127
39696,note_off,0,0,0,,10,,,69,127
39702,note_on,6,0,0,,10,,,69,127
39702,note_on,0,0,0,,0,,,72,127
39702,note_on,0,0,0,,3,,,75,127
39896,note_off,194,0,0,,3,,,75,127
39896,note_off,0,0,0,,0,,,72,127
39896,note_off,0,0,0,,10,,,69,127
39902,note_on,6,0,0,,0,,,72,127
39902,note_on,0,0,0,,10,,,69,127
39902,note_on,0,0,0,,4,,,76,127
40096,note_off,194,0,0,,4,,,76,127
40096,note_off,0,0,0,,10,,,69,127
40096,note_off,0,0,0,,0,,,72,127
40102,note_on,6,0,0,,10,,,69,127
40102,note_on,0,0,0,,12,,,71,127
40102,note_on,0,0,0,,11,,,82,127
40296,note_off,194,0,0,,11,,,82,127
40296,note_off,0,0,0,,12,,,71,127
40296,note_off,0,0,0,,10,,,69,127
40302,note_on,6,0,0,,7,,,67,127
40302,note_on,0,0,0,,12,,,71,127
40302,note_on,0,0,0,,12,,,83,127
40496,note_off,194,0,0,,12,,,83,127
40496,note_off,0,0,0,,12,,,71,127
40496,note_off,0,0,0,,7,,,67,127
40502,note_on,6,0,0,,12,,,71,127
40502,note_on,0,0,0,,7,,,67,127
40502,note_on,0,0,0,,6,,,78,127
40696,note_off,194,0,0,,6,,,78,127
40696,note_off,0,0,0,,7,,,67,127
40696,note_off,0,0,0,,12,,,71,127
40702,note_on,6,0,0,,7,,,67,127
40702,note_on,0,0,0,,12,,,71,127
40702,note_on,0,0,0,,7,,,79,127
40896,note_off,194,0,0,,7,,,79,127
40896,note_off,0,0,0,,12,,,71,127
40896,note_off,0,0,0,,7,,,67,127
40902,note_on,6,0,0,,7,,,67,127
40902,note_on,0,0,0,,12,,,71,127
40902,note_on,0,0,0,,3,,,75,127
41096,note_off,194,0,0,,3,,,75,127
41096,note_off,0,0,0,,12,,,71,127
41096,note_off,0,0,0,,7,,,67,127
41102,note_on,6,0,0,,7,,,67,127
41102,note_on,0,0,0,,12,,,71,127
41102,note_on,0,0,0,,4,,,76,127
41296,note_off,194,0,0,,4,,,76,127
41296,note_off,0,0,0,,12,,,71,127
41296,note_off,0,0,0,,7,,,67,127
41302,note_on,6,0,0,,7,,,67,127
41302,note_on,0,0,0,,12,,,71,127
41496,note_off,194,0,0,,12,,,71,127
41496,note_off,0,0,0,,7,,,67,127
41502,note_on,6,0,0,,7,,,67,127
41502,note_on,0,0,0,,0,,,72,127
41696,note_off,194,0,0,,0,,,72,127
41696,note_off,0,0,0,,7,,,67,127
41702,note_on,6,0,0,,7,,,67,127
41702,note_on,0,0,0,,10,,,69,127
41702,note_on,0,0,0,,8,,,80,127
41896,note_off,194,0,0,,8,,,80,127
41896,note_off,0,0,0,,10,,,69,127
41896,note_off,0,0,0,,7,,,67,127
41902,note_on,6,0,0,,6,,,66,127
41902,note_on,0,0,0,,10,,,69,127
41902,note_on,0,0,0,,10,,,81,127
42096,note_off,194,0,0,,10,,,81,127
42096,note_off,0,0,0,,10,,,69,127
42096,note_off,0,0,0,,6,,,66,127
42102,note_on,6,0,0,,6,,,66,127
42102,note_on,0,0,0,,10,,,69,127
42102,note_on,0,0,0,,4,,,76,127
42296,note_off,194,0,0,,4,,,76,127
42296,note_off,0,0,0,,10,,,69,127
42296,note_off,0,0,0,,6,,,66,127
42302,note_on,6,0,0,,6,,,66,127
42302,note_on,0,0,0,,10,,,69,127
42302,note_on,0,0,0,,6,,,78,127
42496,note_off,194,0,0,,6,,,78,127
42496,note_off,0,0,0,,10,,,69,127
42496,note_off,0,0,0,,6,,,66,127
42502,note_on,6,0,0,,6,,,66,127
42502,note_on,0,0,0,,10,,,69,127
42502,note_on,0,0,0,,1,,,73,127
42696,note_off,194,0,0,,1,,,73,127
42696,note_off,0,0,0,,10,,,69,127
42696,note_off,0,0,0,,6,,,66,127
42702,note_on,6,0,0,,6,,,66,127
42702,note_on,0,0,0,,10,,,69,127
42702,note_on,0,0,0,,4,,,76,127
42896,note_off,194,0,0,,4,,,76,127
42896,note_off,0,0,0,,10,,,69,127
42896,note_off,0,0,0,,6,,,66,127
42902,note_on,6,0,0,,10,,,69,127
42902,note_on,0,0,0,,6,,,66,127
42902,note_on,0,0,0,,3,,,75,127
43096,note_off,194,0,0,,3,,,75,127
43096,note_off,0,0,0,,6,,,66,127
43096,note_off,0,0,0,,10,,,69,127
43102,note_on,6,0,0,,6,,,66,127
43102,note_on,0,0,0,,10,,,69,127
43102,note_on,0,0,0,,6,,,78,127
43296,note_off,194,0,0,,6,,,78,127
43296,note_off,0,0,0,,10,,,69,127
43296,note_off,0,0,0,,6,,,66,127
43302,note_on,6,0,0,,4,,,64,127
43302,note_on,0,0,0,,7,,,79,127
43396,note_off,94,0,0,,7,,,79,127
43402,note_on,6,0,0,,12,,,71,127
43496,note_off,94,0,0,,12,,,71,127
43496,note_off,0,0,0,,4,,,64,127
43502,note_on,6,0,0,,3,,,63,127
43502,note_on,0,0,0,,0,,,72,127
43596,note_off,94,0,0,,0,,,72,127
43602,note_on,6,0,0,,2,,,74,127
43696,note_off,94,0,0,,3,,,63,127
43702,note_on,6,0,0,,4,,,64,127
43765,note_off,63,0,0,,2,,,74,127
43769,note_on,4,0,0,,0,,,72,127
43832,note_off,63,0,0,,0,,,72,127
43836,note_on,4,0,0,,2,,,74,127
43897,note_off,61,0,0,,4,,,64,127
43899,note_off,2,0,0,,2,,,74,127
43903,note_on,4,0,0,,6,,,66,127
43903,note_on,0,0,0,,0,,,72,127
43966,note_off,63,0,0,,0,,,72,127
43970,note_on,4,0,0,,12,,,71,127
44033,note_off,63,0,0,,12,,,71,127
44037,note_on,4,0,0,,11,,,70,127
44098,note_off,61,0,0,,6,,,66,127
44100,note_off,2,0,0,,11,,,70,127
44104,note_on,4,0,0,,7,,,67,127
44104,note_on,0,0,0,,12,,,71,127
44167,note_off,63,0,0,,12,,,71,127
44171,note_on,4,0,0,,1,,,73,127
44234,note_off,63,0,0,,1,,,73,127
44238,note_on,4,0,0,,2,,,74,127
44299,note_off,61,0,0,,7,,,67,127
44301,note_off,2,0,0,,2,,,74,127
44305,note_on,4,0,0,,6,,,66,127
44305,note_on,0,0,0,,4,,,76,127
44399,note_off,94,0,0,,4,,,76,127
44405,note_on,6,0,0,,6,,,78,127
44499,note_off,94,0,0,,6,,,66,127
44505,note_on,6,0,0,,7,,,67,127
44572,note_off,67,0,0,,6,,,78,127
44572,note_on,0,0,0,,4,,,76,127
44635,note_off,63,0,0,,4,,,76,127
44639,note_on,4,0,0,,6,,,78,127
44700,note_off,61,0,0,,7,,,67,127
44702,note_off,2,0,0,,6,,,78,127
44706,note_on,4,0,0,,10,,,69,127
44706,note_on,0,0,0,,4,,,76,127
44769,note_off,63,0,0,,4,,,76,127
44773,note_on,4,0,0,,2,,,74,127
44836,note_off,63,0,0,,2,,,74,127
44840,note_on,4,0,0,,1,,,73,127
44901,note_off,61,0,0,,10,,,69,127
44903,note_off,2,0,0,,1,,,73,127
44907,note_on,4,0,0,,12,,,71,127
44907,note_on,0,0,0,,2,,,74,127
44970,note_off,63,0,0,,2,,,74,127
44974,note_on,4,0,0,,4,,,76,127
45037,note_off,63,0,0,,4,,,76,127
45041,note_on,4,0,0,,6,,,78,127
45102,note_off,61,0,0,,12,,,71,127
45104,note_off,2,0,0,,6,,,78,127
45108,note_on,4,0,0,,10,,,69,127
45108,note_on,0,0,0,,7,,,79,127
45202,note_off,94,0,0,,7,,,79,127
45208,note_on,6,0,0,,10,,,81,127
45302,note_off,94,0,0,,10,,,69,127
45308,note_on,6,0,0,,12,,,71,127
45375,note_off,67,0,0,,10,,,81,127
45375,note_on,0,0,0,,7,,,79,127
45438,note_off,63,0,0,,7,,,79,127
45442,note_on,4,0,0,,10,,,81,127
45503,note_off,61,0,0,,12,,,71,127
45505,note_off,2,0,0,,10,,,81,127
45509,note_on,4,0,0,,1,,,73,127
45509,note_on,0,0,0,,7,,,79,127
45572,note_off,63,0,0,,7,,,79,127
45576,note_on,4,0,0,,6,,,78,127
45639,note_off,63,0,0,,6,,,78,127
45643,note_on,4,0,0,,4,,,76,127
45704,note_off,61,0,0,,1,,,73,127
45706,note_off,2,0,0,,4,,,76,127
45710,note_on,4,0,0,,2,,,74,127
45710,note_on,0,0,0,,6,,,78,127
45804,note_off,94,0,0,,6,,,78,127
45810,note_on,6,0,0,,8,,,80,127
45904,note_off,94,0,0,,8,,,80,127
45904,note_off,0,0,0,,2,,,74,127
45910,note_on,6,0,0,,1,,,73,127
45910,note_on,0,0,0,,11,,,82,127
46004,note_off,94,0,0,,11,,,82,127
46010,note_on,6,0,0,,12,,,83,127
46104,note_off,94,0,0,,1,,,73,127
46110,note_on,6,0,0,,2,,,74,127
46177,note_off,67,0,0,,12,,,83,127
46177,note_on,0,0,0,,11,,,82,127
46240,note_off,63,0,0,,11,,,82,127
46244,note_on,4,0,0,,12,,,83,127
46305,note_off,61,0,0,,2,,,74,127
46307,note_off,2,0,0,,12,,,83,127
46311,note_on,4,0,0,,4,,,76,127
46311,note_on,0,0,0,,11,,,82,127
46405,note_off,94,0,0,,11,,,82,127
46411,note_on,6,0,0,,8,,,80,127
46505,note_off,94,0,0,,8,,,80,127
46505,note_off,0,0,0,,4,,,76,127
46511,note_on,6,0,0,,6,,,78,127
46511,note_on,0,0,0,,11,,,82,127
46605,note_off,94,0,0,,11,,,82,127
46605,note_off,0,0,0,,6,,,78,127
46611,note_on,6,0,0,,4,,,76,127
46611,note_on,0,0,0,,8,,,80,127
46705,note_off,94,0,0,,8,,,80,127
46705,note_off,0,0,0,,4,,,76,127
46711,note_on,6,0,0,,3,,,75,127
46711,note_on,0,0,0,,6,,,78,127
46805,note_off,94,0,0,,6,,,78,127
46805,note_off,0,0,0,,3,,,75,127
46811,note_on,6,0,0,,1,,,73,127
46811,note_on,0,0,0,,4,,,76,127
46905,note_off,94,0,0,,4,,,76,127
46905,note_off,0,0,0,,1,,,73,127
46911,note_on,6,0,0,,12,,,71,127
46911,note_on,0,0,0,,3,,,75,127
47005,note_off,94,0,0,,3,,,75,127
47005,note_off,0,0,0,,12,,,71,127
47011,note_on,6,0,0,,11,,,70,127
47011,note_on,0,0,0,,1,,,73,127
47105,note_off,94,0,0,,1,,,73,127
47105,note_off,0,0,0,,11,,,70,127
47111,note_on,6,0,0,,8,,,68,127
47111,note_on,0,0,0,,12,,,71,127
47205,note_off,94,0,0,,12,,,71,127
47205,note_off,0,0,0,,8,,,68,127
47211,note_on,6,0,0,,6,,,66,127
47211,note_on,0,0,0,,11,,,70,127
47305,note_off,94,0,0,,11,,,70,127
47305,note_off,0,0,0,,6,,,66,127
47311,note_on,6,0,0,,8,,,68,127
47311,note_on,0,0,0,,12,,,71,127
47405,note_off,94,0,0,,12,,,71,127
47411,note_on,6,0,0,,1,,,73,127
47505,note_off,94,0,0,,1,,,73,127
47505,note_off,0,0,0,,8,,,68,127
47511,note_on,6,0,0,,8,,,68,127
47511,note_on,0,0,0,,3,,,75,127
47605,note_off,94,0,0,,3,,,75,127
47611,note_on,6,0,0,,4,,,76,127
47705,note_off,94,0,0,,4,,,76,127
47705,note_off,0,0,0,,8,,,68,127
47711,note_on,6,0,0,,11,,,70,127
47711,note_on,0,0,0,,6,,,78,127
47805,note_off,94,0,0,,6,,,78,127
47811,note_on,6,0,0,,3,,,75,127
47905,note_off,94,0,0,,3,,,75,127
47905,note_off,0,0,0,,11,,,70,127
47911,note_on,6,0,0,,6,,,66,127
47911,note_on,0,0,0,,4,,,76,127
48005,note_off,94,0,0,,4,,,76,127
48011,note_on,6,0,0,,1,,,73,127
48105,note_off,94,0,0,,1,,,73,127
48105,note_off,0,0,0,,6,,,66,127
48111,note_on,6,0,0,,12,,,71,127
48111,note_on,0,0,0,,3,,,75,127
48205,note_off,94,0,0,,3,,,75,127
48205,note_off,0,0,0,,12,,,71,127
48211,note_on,6,0,0,,12,,,71,127
48305,note_off,94,0,0,,12,,,71,127
48311,note_on,6,0,0,,4,,,64,127
48311,note_on,0,0,0,,4,,,76,127
48405,note_off,94,0,0,,4,,,76,127
48411,note_on,6,0,0,,1,,,73,127
48505,note_off,94,0,0,,1,,,73,127
48505,note_off,0,0,0,,4,,,64,127
48511,note_on,6,0,0,,6,,,66,127
48511,note_on,0,0,0,,3,,,75,127
48605,note_off,94,0,0,,3,,,75,127
48611,note_on,6,0,0,,12,,,71,127
48705,note_off,94,0,0,,12,,,71,127
48705,note_off,0,0,0,,6,,,66,127
48711,note_on,6,0,0,,6,,,54,127
48711,note_on,0,0,0,,1,,,73,127
48805,note_off,94,0,0,,1,,,73,127
48811,note_on,6,0,0,,11,,,70,127
48905,note_off,94,0,0,,11,,,70,127
48905,note_off,0,0,0,,6,,,54,127
48911,note_on,6,0,0,,12,,,47,127
48911,note_on,0,0,0,,12,,,83,127
49005,note_off,94,0,0,,12,,,83,127
49011,note_on,6,0,0,,6,,,78,127
49105,note_off,94,0,0,,6,,,78,127
49111,note_on,6,0,0,,3,,,75,127
49205,note_off,94,0,0,,3,,,75,127
49211,note_on,6,0,0,,12,,,71,127
49305,note_off,94,0,0,,12,,,71,127
49305,note_off,0,0,0,,12,,,47,127
49311,note_on,6,0,0,,12,,,47,127
49311,note_on,0,0,0,,6,,,78,127
49405,note_off,94,0,0,,6,,,78,127
49411,note_on,6,0,0,,3,,,75,127
49505,note_off,94,0,0,,3,,,75,127
49511,note_on,6,0,0,,12,,,71,127
49605,note_off,94,0,0,,12,,,71,127
49611,note_on,6,0,0,,6,,,66,127
49705,note_off,94,0,0,,6,,,66,127
49705,note_off,0,0,0,,12,,,47,127
49711,note_on,6,0,0,,12,,,47,127
49711,note_on,0,0,0,,3,,,75,127
49805,note_off,94,0,0,,3,,,75,127
49811,note_on,6,0,0,,12,,,71,127
49905,note_off,94,0,0,,12,,,71,127
49911,note_on,6,0,0,,6,,,66,127
50005,note_off,94,0,0,,6,,,66,127
50011,note_on,6,0,0,,3,,,63,127
50105,note_off,94,0,0,,3,,,63,127
50105,note_off,0,0,0,,12,,,47,127
50111,note_on,6,0,0,,12,,,47,127
50111,note_on,0,0,0,,12,,,71,127
50205,note_off,94,0,0,,12,,,71,127
50211,note_on,6,0,0,,6,,,66,127
50305,note_off,94,0,0,,6,,,66,127
50311,note_on,6,0,0,,3,,,63,127
50405,note_off,94,0,0,,3,,,63,127
50411,note_on,6,0,0,,12,,,59,127
50505,note_off,94,0,0,,12,,,59,127
50505,note_off,0,0,0,,12,,,47,127
50511,note_on,6,0,0,,12,,,47,127
50511,note_on,0,0,0,,1,,,61,127
50555,note_off,44,0,0,,1,,,61,127
50561,note_on,6,0,0,,12,,,59,127
50605,note_off,44,0,0,,12,,,59,127
50611,note_on,6,0,0,,1,,,61,127
50655,note_off,44,0,0,,1,,,61,127
50661,note_on,6,0,0,,12,,,59,127
51212,note_off,551,0,0,,12,,,59,127
51212,note_off,0,0,0,,12,,,47,127
51312,note_on,100,0,0,,3,,,75,127
51312,note_on,0,0,0,,12,,,71,127
51312,note_on,0,0,0,,6,,,78,127
51706,note_off,394,0,0,,6,,,78,127
51706,note_off,0,0,0,,12,,,71,127
51706,note_off,0,0,0,,3,,,75,127
51712,note_on,6,0,0,,8,,,80,127
51712,note_on,0,0,0,,12,,,71,127
51712,note_on,0,0,0,,4,,,76,127
52106,note_off,394,0,0,,4,,,76,127
52106,note_off,0,0,0,,12,,,71,127
52106,note_off,0,0,0,,8,,,80,127
52112,note_on,6,0,0,,12,,,59,127
52112,note_on,0,0,0,,3,,,75,127
52112,note_on,0,0,0,,12,,,71,127
52112,note_on,0,0,0,,6,,,78,127
52312,note_on,200,0,0,,12,,,47,127
52506,note_off,194,0,0,,12,,,47,127
52508,note_off,2,0,0,,12,,,59,127
52512,note_on,4,0,0,,12,,,47,127
52706,note_off,194,0,0,,12,,,47,127
52712,note_on,6,0,0,,12,,,47,127
52906,note_off,194,0,0,,6,,,78,127
52906,note_off,0,0,0,,12,,,71,127
52906,note_off,0,0,0,,3,,,75,127
52912,note_on,6,0,0,,12,,,71,127
52912,note_on,0,0,0,,3,,,75,127
52912,note_on,0,0,0,,10,,,81,127
52912,note_on,0,0,0,,6,,,78,127
53306,note_off,394,0,0,,6,,,78,127
53306,note_off,0,0,0,,10,,,81,127
53306,note_off,0,0,0,,3,,,75,127
53306,note_off,0,0,0,,12,,,71,127
53312,note_on,6,0,0,,8,,,80,127
53312,note_on,0,0,0,,12,,,71,127
53312,note_on,0,0,0,,4,,,76,127
53706,note_off,394,0,0,,4,,,76,127
53706,note_off,0,0,0,,12,,,71,127
53706,note_off,0,0,0,,8,,,80,127
53706,note_off,0,0,0,,12,,,47,127
53712,note_on,6,0,0,,12,,,47,127
53712,note_on,0,0,0,,12,,,71,127
53712,note_on,0,0,0,,6,,,78,127
53712,note_on,0,0,0,,3,,,75,127
53912,note_on,200,0,0,,12,,,35,127
54106,note_off,194,0,0,,12,,,35,127
54108,note_off,2,0,0,,12,,,47,127
54112,note_on,4,0,0,,12,,,35,127
54306,note_off,194,0,0,,12,,,35,127
54312,note_on,6,0,0,,12,,,35,127
54506,note_off,194,0,0,,3,,,75,127
54506,note_off,0,0,0,,6,,,78,127
54506,note_off,0,0,0,,12,,,71,127
54512,note_on,6,0,0,,6,,,78,127
54512,note_on,0,0,0,,12,,,71,127
54512,note_on,0,0,0,,12,,,83,127
54512,note_on,0,0,0,,3,,,75,127
54906,note_off,394,0,0,,3,,,75,127
54906,note_off,0,0,0,,12,,,83,127
54906,note_off,0,0,0,,12,,,71,127
54906,note_off,0,0,0,,6,,,78,127
54912,note_on,6,0,0,,10,,,81,127
54912,note_on,0,0,0,,6,,,78,127
54912,note_on,0,0,0,,3,,,75,127
54912,note_on,0,0,0,,12,,,71,127
55306,note_off,394,0,0,,12,,,71,127
55306,note_off,0,0,0,,3,,,75,127
55306,note_off,0,0,0,,6,,,78,127
55306,note_off,0,0,0,,10,,,81,127
55306,note_off,0,0,0,,12,,,35,127
55312,note_on,6,0,0,,4,,,64,127
55312,note_on,0,0,0,,8,,,80,127
55312,note_on,0,0,0,,12,,,71,127
55312,note_on,0,0,0,,4,,,76,127
55512,note_on,200,0,0,,4,,,52,127
55706,note_off,194,0,0,,4,,,52,127
55708,note_off,2,0,0,,4,,,64,127
55712,note_on,4,0,0,,4,,,52,127
55906,note_off,194,0,0,,4,,,52,127
55912,note_on,6,0,0,,4,,,52,127
56106,note_off,194,0,0,,4,,,76,127
56106,note_off,0,0,0,,12,,,71,127
56106,note_off,0,0,0,,8,,,80,127
56112,note_on,6,0,0,,2,,,74,127
56112,note_on,0,0,0,,12,,,83,127
56506,note_off,394,0,0,,12,,,83,127
56506,note_off,0,0,0,,2,,,74,127
56512,note_on,6,0,0,,12,,,83,127
56512,note_on,0,0,0,,2,,,74,127
56556,note_off,44,0,0,,2,,,74,127
56556,note_off,0,0,0,,12,,,83,127
56562,note_on,6,0,0,,10,,,81,127
56562,note_on,0,0,0,,0,,,72,127
56606,note_off,44,0,0,,0,,,72,127
56606,note_off,0,0,0,,10,,,81,127
56612,note_on,6,0,0,,12,,,83,127
56612,note_on,0,0,0,,2,,,74,127
56656,note_off,44,0,0,,2,,,74,127
56656,note_off,0,0,0,,12,,,83,127
56662,note_on,6,0,0,,10,,,81,127
56662,note_on,0,0,0,,0,,,72,127
56706,note_off,44,0,0,,0,,,72,127
56706,note_off,0,0,0,,10,,,81,127
56712,note_on,6,0,0,,12,,,83,127
56712,note_on,0,0,0,,2,,,74,127
56756,note_off,44,0,0,,2,,,74,127
56756,note_off,0,0,0,,12,,,83,127
56762,note_on,6,0,0,,10,,,81,127
56762,note_on,0,0,0,,0,,,72,127
56806,note_off,44,0,0,,0,,,72,127
56806,note_off,0,0,0,,10,,,81,127
56812,note_on,6,0,0,,12,,,83,127
56812,note_on,0,0,0,,2,,,74,127
56856,note_off,44,0,0,,2,,,74,127
56856,note_off,0,0,0,,12,,,83,127
56862,note_on,6,0,0,,10,,,81,127
56862,note_on,0,0,0,,0,,,72,127
56906,note_off,44,0,0,,4,,,52,127
56912,note_on,6,0,0,,4,,,52,127
57106,note_off,194,0,0,,0,,,72,127
57106,note_off,0,0,0,,10,,,81,127
57112,note_on,6,0,0,,4,,,40,127
57112,note_on,0,0,0,,8,,,80,127
57112,note_on,0,0,0,,12,,,71,127
57306,note_off,194,0,0,,4,,,40,127
57308,note_off,2,0,0,,4,,,52,127
57312,note_on,4,0,0,,4,,,40,127
57506,note_off,194,0,0,,4,,,40,127
57512,note_on,6,0,0,,4,,,40,127
57706,note_off,194,0,0,,4,,,40,127
57706,note_off,0,0,0,,12,,,71,127
57706,note_off,0,0,0,,8,,,80,127
57712,note_on,6,0,0,,12,,,83,127
57712,note_on,0,0,0,,4,,,64,127
57906,note_off,194,0,0,,12,,,83,127
57912,note_on,6,0,0,,12,,,71,127
57912,note_on,0,0,0,,2,,,74,127
58106,note_off,194,0,0,,2,,,74,127
58106,note_off,0,0,0,,12,,,71,127
58112,note_on,6,0,0,,2,,,74,127
58112,note_on,0,0,0,,12,,,71,127
58156,note_off,44,0,0,,12,,,71,127
58156,note_off,0,0,0,,2,,,74,127
58162,note_on,6,0,0,,10,,,69,127
58162,note_on,0,0,0,,0,,,72,127
58206,note_off,44,0,0,,0,,,72,127
58206,note_off,0,0,0,,10,,,69,127
58212,note_on,6,0,0,,12,,,71,127
58212,note_on,0,0,0,,2,,,74,127
58256,note_off,44,0,0,,2,,,74,127
58256,note_off,0,0,0,,12,,,71,127
58262,note_on,6,0,0,,10,,,69,127
58262,note_on,0,0,0,,0,,,72,127
58306,note_off,44,0,0,,0,,,72,127
58306,note_off,0,0,0,,10,,,69,127
58312,note_on,6,0,0,,12,,,71,127
58312,note_on,0,0,0,,8,,,68,127
58506,note_off,194,0,0,,8,,,68,127
58506,note_off,0,0,0,,12,,,71,127
58511,note_off,5,0,0,,4,,,64,127
58512,note_on,1,0,0,,4,,,64,127
58512,note_on,0,0,0,,0,,,84,127
58706,note_off,194,0,0,,0,,,84,127
58712,note_on,6,0,0,,4,,,76,127
58712,note_on,0,0,0,,0,,,72,127
58906,note_off,194,0,0,,0,,,72,127
58906,note_off,0,0,0,,4,,,76,127
58912,note_on,6,0,0,,0,,,72,127
58912,note_on,0,0,0,,4,,,76,127
58956,note_off,44,0,0,,4,,,76,127
58956,note_off,0,0,0,,0,,,72,127
58962,note_on,6,0,0,,12,,,71,127
58962,note_on,0,0,0,,2,,,74,127
59006,note_off,44,0,0,,2,,,74,127
59006,note_off,0,0,0,,12,,,71,127
59012,note_on,6,0,0,,0,,,72,127
59012,note_on,0,0,0,,4,,,76,127
59056,note_off,44,0,0,,4,,,76,127
59056,note_off,0,0,0,,0,,,72,127
59062,note_on,6,0,0,,12,,,71,127
59062,note_on,0,0,0,,2,,,74,127
59106,note_off,44,0,0,,2,,,74,127
59106,note_off,0,0,0,,12,,,71,127
59112,note_on,6,0,0,,0,,,72,127
59112,note_on,0,0,0,,10,,,69,127
59306,note_off,194,0,0,,10,,,69,127
59306,note_off,0,0,0,,0,,,72,127
59311,note_off,5,0,0,,4,,,64,127
59312,note_on,1,0,0,,4,,,64,127
59312,note_on,0,0,0,,12,,,83,127
59506,note_off,194,0,0,,12,,,83,127
59512,note_on,6,0,0,,5,,,77,127
59512,note_on,0,0,0,,2,,,74,127
59706,note_off,194,0,0,,2,,,74,127
59706,note_off,0,0,0,,5,,,77,127
59712,note_on,6,0,0,,2,,,74,127
59712,note_on,0,0,0,,5,,,77,127
59756,note_off,44,0,0,,5,,,77,127
59756,note_off,0,0,0,,2,,,74,127
59762,note_on,6,0,0,,0,,,72,127
59762,note_on,0,0,0,,4,,,76,127
59806,note_off,44,0,0,,4,,,76,127
59806,note_off,0,0,0,,0,,,72,127
59812,note_on,6,0,0,,2,,,74,127
59812,note_on,0,0,0,,5,,,77,127
59856,note_off,44,0,0,,5,,,77,127
59856,note_off,0,0,0,,2,,,74,127
59862,note_on,6,0,0,,0,,,72,127
59862,note_on,0,0,0,,4,,,76,127
59906,note_off,44,0,0,,4,,,76,127
59906,note_off,0,0,0,,0,,,72,127
59912,note_on,6,0,0,,2,,,74,127
59912,note_on,0,0,0,,12,,,71,127
60106,note_off,194,0,0,,12,,,71,127
60106,note_off,0,0,0,,2,,,74,127
60111,note_off,5,0,0,,4,,,64,127
60112,note_on,1,0,0,,10,,,81,127
60112,note_on,0,0,0,,4,,,64,127
60306,note_off,194,0,0,,10,,,81,127
60312,note_on,6,0,0,,0,,,72,127
60312,note_on,0,0,0,,4,,,76,127
60506,note_off,194,0,0,,4,,,76,127
60506,note_off,0,0,0,,0,,,72,127
60512,note_on,6,0,0,,0,,,72,127
60512,note_on,0,0,0,,4,,,76,127
60556,note_off,44,0,0,,4,,,76,127
60556,note_off,0,0,0,,0,,,72,127
60562,note_on,6,0,0,,12,,,71,127
60562,note_on,0,0,0,,2,,,74,127
60606,note_off,44,0,0,,2,,,74,127
60606,note_off,0,0,0,,12,,,71,127
60612,note_on,6,0,0,,0,,,72,127
60612,note_on,0,0,0,,4,,,76,127
60656,note_off,44,0,0,,4,,,76,127
60656,note_off,0,0,0,,0,,,72,127
60662,note_on,6,0,0,,12,,,71,127
60662,note_on,0,0,0,,2,,,74,127
60706,note_off,44,0,0,,2,,,74,127
60706,note_off,0,0,0,,12,,,71,127
60712,note_on,6,0,0,,0,,,72,127
60712,note_on,0,0,0,,10,,,69,127
60906,note_off,194,0,0,,10,,,69,127
60906,note_off,0,0,0,,0,,,72,127
60911,note_off,5,0,0,,4,,,64,127
60912,note_on,1,0,0,,4,,,64,127
60912,note_on,0,0,0,,12,,,83,127
61006,note_off,94,0,0,,12,,,83,127
61012,note_on,6,0,0,,10,,,81,127
61106,note_off,94,0,0,,10,,,81,127
61112,note_on,6,0,0,,8,,,80,127
61206,note_off,94,0,0,,8,,,80,127
61212,note_on,6,0,0,,5,,,77,127
61306,note_off,94,0,0,,5,,,77,127
61306,note_off,0,0,0,,4,,,64,127
61312,note_on,6,0,0,,8,,,56,127
61312,note_on,0,0,0,,4,,,76,127
61406,note_off,94,0,0,,4,,,76,127
61412,note_on,6,0,0,,2,,,74,127
61506,note_off,94,0,0,,2,,,74,127
61512,note_on,6,0,0,,0,,,72,127
61606,note_off,94,0,0,,0,,,72,127
61612,note_on,6,0,0,,12,,,71,127
61706,note_off,94,0,0,,12,,,71,127
61706,note_off,0,0,0,,8,,,56,127
61712,note_on,6,0,0,,10,,,45,127
61712,note_on,0,0,0,,12,,,71,127
61906,note_off,194,0,0,,10,,,45,127
61912,note_on,6,0,0,,4,,,52,127
62106,note_off,194,0,0,,4,,,52,127
62112,note_on,6,0,0,,10,,,57,127
62306,note_off,194,0,0,,12,,,71,127
62312,note_on,6,0,0,,0,,,72,127
62506,note_off,194,0,0,,0,,,72,127
62508,note_off,2,0,0,,10,,,57,127
62512,note_on,4,0,0,,10,,,81,127
62606,note_off,94,0,0,,10,,,81,127
62612,note_on,6,0,0,,12,,,83,127
62706,note_off,94,0,0,,12,,,83,127
62712,note_on,6,0,0,,0,,,72,127
62712,note_on,0,0,0,,0,,,84,127
62712,note_on,0,0,0,,4,,,76,127
62906,note_off,194,0,0,,4,,,76,127
62906,note_off,0,0,0,,0,,,72,127
62912,note_on,6,0,0,,12,,,71,127
62912,note_on,0,0,0,,3,,,75,127
63106,note_off,194,0,0,,3,,,75,127
63106,note_off,0,0,0,,12,,,71,127
63112,note_on,6,0,0,,10,,,69,127
63112,note_on,0,0,0,,4,,,76,127
63306,note_off,194,0,0,,4,,,76,127
63306,note_off,0,0,0,,0,,,84,127
63312,note_on,6,0,0,,6,,,78,127
63406,note_off,94,0,0,,6,,,78,127
63412,note_on,6,0,0,,7,,,79,127
63506,note_off,94,0,0,,7,,,79,127
63506,note_off,0,0,0,,10,,,69,127
63512,note_on,6,0,0,,10,,,69,127
63512,note_on,0,0,0,,10,,,81,127
63512,note_on,0,0,0,,0,,,72,127
63706,note_off,194,0,0,,0,,,72,127
63706,note_off,0,0,0,,10,,,69,127
63712,note_on,6,0,0,,7,,,67,127
63712,note_on,0,0,0,,12,,,71,127
63906,note_off,194,0,0,,12,,,71,127
63906,note_off,0,0,0,,7,,,67,127
63912,note_on,6,0,0,,6,,,66,127
63912,note_on,0,0,0,,0,,,72,127
64106,note_off,194,0,0,,0,,,72,127
64106,note_off,0,0,0,,10,,,81,127
64112,note_on,6,0,0,,3,,,75,127
64206,note_off,94,0,0,,3,,,75,127
64212,note_on,6,0,0,,4,,,76,127
64306,note_off,94,0,0,,4,,,76,127
64306,note_off,0,0,0,,6,,,66,127
64312,note_on,6,0,0,,6,,,66,127
64312,note_on,0,0,0,,6,,,78,127
64312,note_on,0,0,0,,10,,,69,127
64506,note_off,194,0,0,,10,,,69,127
64506,note_off,0,0,0,,6,,,66,127
64512,note_on,6,0,0,,4,,,64,127
64512,note_on,0,0,0,,7,,,67,127
64706,note_off,194,0,0,,7,,,67,127
64706,note_off,0,0,0,,4,,,64,127
64708,note_off,2,0,0,,6,,,78,127
64712,note_on,4,0,0,,3,,,63,127
64712,note_on,0,0,0,,6,,,66,127
64712,note_on,0,0,0,,10,,,69,127
64906,note_off,194,0,0,,10,,,69,127
64906,note_off,0,0,0,,6,,,66,127
64906,note_off,0,0,0,,3,,,63,127
64912,note_on,6,0,0,,4,,,64,127
64912,note_on,0,0,0,,7,,,67,127
65006,note_off,94,0,0,,7,,,67,127
65012,note_on,6,0,0,,11,,,70,127
65106,note_off,94,0,0,,11,,,70,127
65106,note_off,0,0,0,,4,,,64,127
65112,note_on,6,0,0,,4,,,64,127
65112,note_on,0,0,0,,7,,,67,127
65112,note_on,0,0,0,,12,,,71,127
65306,note_off,194,0,0,,7,,,67,127
65306,note_off,0,0,0,,4,,,64,127
65312,note_on,6,0,0,,7,,,67,127
65312,note_on,0,0,0,,4,,,64,127
65406,note_off,94,0,0,,12,,,71,127
65412,note_on,6,0,0,,3,,,75,127
65506,note_off,94,0,0,,3,,,75,127
65506,note_off,0,0,0,,4,,,64,127
65506,note_off,0,0,0,,7,,,67,127
65512,note_on,6,0,0,,7,,,67,127
65512,note_on,0,0,0,,4,,,64,127
65512,note_on,0,0,0,,4,,,76,127
65706,note_off,194,0,0,,4,,,64,127
65706,note_off,0,0,0,,7,,,67,127
65712,note_on,6,0,0,,7,,,67,127
65712,note_on,0,0,0,,4,,,64,127
65806,note_off,94,0,0,,4,,,76,127
65812,note_on,6,0,0,,6,,,78,127
65906,note_off,94,0,0,,6,,,78,127
65906,note_off,0,0,0,,4,,,64,127
65906,note_off,0,0,0,,7,,,67,127
65912,note_on,6,0,0,,7,,,67,127
65912,note_on,0,0,0,,4,,,64,127
65912,note_on,0,0,0,,7,,,79,127
66106,note_off,194,0,0,,4,,,64,127
66106,note_off,0,0,0,,7,,,67,127
66112,note_on,6,0,0,,4,,,64,127
66112,note_on,0,0,0,,7,,,67,127
66206,note_off,94,0,0,,7,,,79,127
66212,note_on,6,0,0,,11,,,82,127
66306,note_off,94,0,0,,11,,,82,127
66306,note_off,0,0,0,,7,,,67,127
66306,note_off,0,0,0,,4,,,64,127
66312,note_on,6,0,0,,4,,,64,127
66312,note_on,0,0,0,,7,,,67,127
66312,note_on,0,0,0,,12,,,83,127
66506,note_off,194,0,0,,7,,,67,127
66506,note_off,0,0,0,,4,,,64,127
66512,note_on,6,0,0,,6,,,66,127
66512,note_on,0,0,0,,2,,,62,127
66562,note_off,50,0,0,,12,,,83,127
66612,note_on,50,0,0,,11,,,70,127
66706,note_off,94,0,0,,11,,,70,127
66706,note_off,0,0,0,,2,,,62,127
66706,note_off,0,0,0,,6,,,66,127
66712,note_on,6,0,0,,6,,,66,127
66712,note_on,0,0,0,,2,,,62,127
66712,note_on,0,0,0,,12,,,71,127
66906,note_off,194,0,0,,2,,,62,127
66906,note_off,0,0,0,,6,,,66,127
66912,note_on,6,0,0,,6,,,66,127
66912,note_on,0,0,0,,2,,,62,127
67006,note_off,94,0,0,,12,,,71,127
67012,note_on,6,0,0,,1,,,73,127
67106,note_off,94,0,0,,1,,,73,127
67106,note_off,0,0,0,,2,,,62,127
67106,note_off,0,0,0,,6,,,66,127
67112,note_on,6,0,0,,6,,,66,127
67112,note_on,0,0,0,,2,,,62,127
67112,note_on,0,0,0,,2,,,74,127
67306,note_off,194,0,0,,2,,,62,127
67306,note_off,0,0,0,,6,,,66,127
67312,note_on,6,0,0,,6,,,66,127
67312,note_on,0,0,0,,2,,,62,127
67406,note_off,94,0,0,,2,,,74,127
67412,note_on,6,0,0,,5,,,77,127
67506,note_off,94,0,0,,5,,,77,127
67506,note_off,0,0,0,,2,,,62,127
67506,note_off,0,0,0,,6,,,66,127
67512,note_on,6,0,0,,6,,,66,127
67512,note_on,0,0,0,,2,,,62,127
67512,note_on,0,0,0,,6,,,78,127
67706,note_off,194,0,0,,2,,,62,127
67706,note_off,0,0,0,,6,,,66,127
67712,note_on,6,0,0,,6,,,66,127
67712,note_on,0,0,0,,2,,,62,127
67806,note_off,94,0,0,,6,,,78,127
67812,note_on,6,0,0,,11,,,82,127
67906,note_off,94,0,0,,11,,,82,127
67906,note_off,0,0,0,,2,,,62,127
67906,note_off,0,0,0,,6,,,66,127
67912,note_on,6,0,0,,6,,,66,127
67912,note_on,0,0,0,,2,,,62,127
67912,note_on,0,0,0,,12,,,83,127
68106,note_off,194,0,0,,12,,,83,127
68106,note_off,0,0,0,,2,,,62,127
68106,note_off,0,0,0,,6,,,66,127
68112,note_on,6,0,0,,4,,,64,127
68112,note_on,0,0,0,,0,,,60,127
68212,note_on,100,0,0,,8,,,68,127
68306,note_off,94,0,0,,8,,,68,127
68306,note_off,0,0,0,,0,,,60,127
68306,note_off,0,0,0,,4,,,64,127
68312,note_on,6,0,0,,0,,,60,127
68312,note_on,0,0,0,,4,,,64,127
68312,note_on,0,0,0,,10,,,69,127
68506,note_off,194,0,0,,4,,,64,127
68506,note_off,0,0,0,,0,,,60,127
68512,note_on,6,0,0,,0,,,60,127
68512,note_on,0,0,0,,4,,,64,127
68606,note_off,94,0,0,,10,,,69,127
68612,note_on,6,0,0,,12,,,71,127
68706,note_off,94,0,0,,12,,,71,127
68706,note_off,0,0,0,,4,,,64,127
68706,note_off,0,0,0,,0,,,60,127
68712,note_on,6,0,0,,0,,,60,127
68712,note_on,0,0,0,,4,,,64,127
68712,note_on,0,0,0,,0,,,72,127
68906,note_off,194,0,0,,4,,,64,127
68906,note_off,0,0,0,,0,,,60,127
68912,note_on,6,0,0,,0,,,60,127
68912,note_on,0,0,0,,4,,,64,127
69006,note_off,94,0,0,,0,,,72,127
69012,note_on,6,0,0,,3,,,75,127
69106,note_off,94,0,0,,3,,,75,127
69106,note_off,0,0,0,,4,,,64,127
69106,note_off,0,0,0,,0,,,60,127
69112,note_on,6,0,0,,0,,,60,127
69112,note_on,0,0,0,,4,,,64,127
69112,note_on,0,0,0,,4,,,76,127
69306,note_off,194,0,0,,4,,,64,127
69306,note_off,0,0,0,,0,,,60,127
69312,note_on,6,0,0,,0,,,60,127
69312,note_on,0,0,0,,4,,,64,127
69406,note_off,94,0,0,,4,,,76,127
69412,note_on,6,0,0,,8,,,80,127
69506,note_off,94,0,0,,8,,,80,127
69506,note_off,0,0,0,,4,,,64,127
69506,note_off,0,0,0,,0,,,60,127
69512,note_on,6,0,0,,0,,,60,127
69512,note_on,0,0,0,,4,,,64,127
69512,note_on,0,0,0,,10,,,81,127
69706,note_off,194,0,0,,4,,,64,127
69706,note_off,0,0,0,,0,,,60,127
69712,note_on,6,0,0,,12,,,59,127
69906,note_off,194,0,0,,10,,,81,127
69912,note_on,6,0,0,,1,,,73,127
69912,note_on,0,0,0,,10,,,69,127
70106,note_off,194,0,0,,10,,,69,127
70106,note_off,0,0,0,,1,,,73,127
70112,note_on,6,0,0,,10,,,69,127
70112,note_on,0,0,0,,1,,,73,127
70156,note_off,44,0,0,,1,,,73,127
70156,note_off,0,0,0,,10,,,69,127
70162,note_on,6,0,0,,8,,,68,127
70162,note_on,0,0,0,,12,,,71,127
70206,note_off,44,0,0,,12,,,71,127
70206,note_off,0,0,0,,8,,,68,127
70212,note_on,6,0,0,,10,,,69,127
70212,note_on,0,0,0,,1,,,73,127
70256,note_off,44,0,0,,1,,,73,127
70256,note_off,0,0,0,,10,,,69,127
70262,note_on,6,0,0,,8,,,68,127
70262,note_on,0,0,0,,12,,,71,127
70306,note_off,44,0,0,,12,,,71,127
70306,note_off,0,0,0,,8,,,68,127
70312,note_on,6,0,0,,10,,,69,127
70312,note_on,0,0,0,,6,,,66,127
70506,note_off,194,0,0,,6,,,66,127
70506,note_off,0,0,0,,10,,,69,127
70506,note_off,0,0,0,,12,,,59,127
70512,note_on,6,0,0,,12,,,59,127
70512,note_on,0,0,0,,8,,,80,127
70706,note_off,194,0,0,,8,,,80,127
70712,note_on,6,0,0,,8,,,68,127
70712,note_on,0,0,0,,12,,,71,127
70906,note_off,194,0,0,,12,,,71,127
70906,note_off,0,0,0,,8,,,68,127
70912,note_on,6,0,0,,8,,,68,127
70912,note_on,0,0,0,,12,,,71,127
70956,note_off,44,0,0,,12,,,71,127
70956,note_off,0,0,0,,8,,,68,127
70962,note_on,6,0,0,,6,,,66,127
70962,note_on,0,0,0,,10,,,69,127
71006,note_off,44,0,0,,10,,,69,127
71006,note_off,0,0,0,,6,,,66,127
71012,note_on,6,0,0,,8,,,68,127
71012,note_on,0,0,0,,12,,,71,127
71056,note_off,44,0,0,,12,,,71,127
71056,note_off,0,0,0,,8,,,68,127
71062,note_on,6,0,0,,6,,,66,127
71062,note_on,0,0,0,,10,,,69,127
71106,note_off,44,0,0,,10,,,69,127
71106,note_off,0,0,0,,6,,,66,127
71112,note_on,6,0,0,,8,,,68,127
71112,note_on,0,0,0,,4,,,64,127
71306,note_off,194,0,0,,4,,,64,127
71306,note_off,0,0,0,,8,,,68,127
71306,note_off,0,0,0,,12,,,59,127
71312,note_on,6,0,0,,12,,,59,127
71312,note_on,0,0,0,,6,,,78,127
71506,note_off,194,0,0,,6,,,78,127
71512,note_on,6,0,0,,10,,,69,127
71512,note_on,0,0,0,,6,,,66,127
71706,note_off,194,0,0,,6,,,66,127
71706,note_off,0,0,0,,10,,,69,127
71712,note_on,6,0,0,,6,,,66,127
71712,note_on,0,0,0,,10,,,69,127
71756,note_off,44,0,0,,10,,,69,127
71756,note_off,0,0,0,,6,,,66,127
71762,note_on,6,0,0,,4,,,64,127
71762,note_on,0,0,0,,8,,,68,127
71806,note_off,44,0,0,,8,,,68,127
71806,note_off,0,0,0,,4,,,64,127
71812,note_on,6,0,0,,6,,,66,127
71812,note_on,0,0,0,,10,,,69,127
71856,note_off,44,0,0,,10,,,69,127
71856,note_off,0,0,0,,6,,,66,127
71862,note_on,6,0,0,,4,,,64,127
71862,note_on,0,0,0,,8,,,68,127
71906,note_off,44,0,0,,8,,,68,127
71906,note_off,0,0,0,,4,,,64,127
71912,note_on,6,0,0,,3,,,63,127
71912,note_on,0,0,0,,6,,,66,127
72106,note_off,194,0,0,,6,,,66,127
72106,note_off,0,0,0,,3,,,63,127
72106,note_off,0,0,0,,12,,,59,127
72112,note_on,6,0,0,,12,,,59,127
72112,note_on,0,0,0,,4,,,76,127
72306,note_off,194,0,0,,4,,,76,127
72312,note_on,6,0,0,,4,,,64,127
72312,note_on,0,0,0,,8,,,68,127
72506,note_off,194,0,0,,8,,,68,127
72506,note_off,0,0,0,,4,,,64,127
72512,note_on,6,0,0,,4,,,64,127
72512,note_on,0,0,0,,8,,,68,127
72556,note_off,44,0,0,,8,,,68,127
72556,note_off,0,0,0,,4,,,64,127
72562,note_on,6,0,0,,3,,,63,127
72562,note_on,0,0,0,,6,,,66,127
72606,note_off,44,0,0,,6,,,66,127
72606,note_off,0,0,0,,3,,,63,127
72612,note_on,6,0,0,,4,,,64,127
72612,note_on,0,0,0,,8,,,68,127
72656,note_off,44,0,0,,8,,,68,127
72656,note_off,0,0,0,,4,,,64,127
72662,note_on,6,0,0,,3,,,63,127
72662,note_on,0,0,0,,6,,,66,127
72706,note_off,44,0,0,,6,,,66,127
72706,note_off,0,0,0,,3,,,63,127
72712,note_on,6,0,0,,1,,,61,127
72712,note_on,0,0,0,,4,,,64,127
72906,note_off,194,0,0,,4,,,64,127
72906,note_off,0,0,0,,1,,,61,127
72906,note_off,0,0,0,,12,,,59,127
72912,note_on,6,0,0,,12,,,59,127
72912,note_on,0,0,0,,3,,,63,127
73006,note_off,94,0,0,,3,,,63,127
73006,note_off,0,0,0,,12,,,59,127
73012,note_on,6,0,0,,1,,,61,127
73012,note_on,0,0,0,,4,,,64,127
73106,note_off,94,0,0,,4,,,64,127
73106,note_off,0,0,0,,1,,,61,127
73112,note_on,6,0,0,,3,,,63,127
73112,note_on,0,0,0,,6,,,66,127
73206,note_off,94,0,0,,6,,,66,127
73206,note_off,0,0,0,,3,,,63,127
73212,note_on,6,0,0,,8,,,68,127
73212,note_on,0,0,0,,4,,,64,127
73306,note_off,94,0,0,,4,,,64,127
73306,note_off,0,0,0,,8,,,68,127
73312,note_on,6,0,0,,10,,,69,127
73312,note_on,0,0,0,,6,,,66,127
73406,note_off,94,0,0,,6,,,66,127
73406,note_off,0,0,0,,10,,,69,127
73412,note_on,6,0,0,,8,,,68,127
73412,note_on,0,0,0,,12,,,71,127
73506,note_off,94,0,0,,12,,,71,127
73506,note_off,0,0,0,,8,,,68,127
73512,note_on,6,0,0,,1,,,73,127
73512,note_on,0,0,0,,10,,,69,127
73606,note_off,94,0,0,,10,,,69,127
73606,note_off,0,0,0,,1,,,73,127
73612,note_on,6,0,0,,3,,,75,127
73612,note_on,0,0,0,,12,,,71,127
73706,note_off,94,0,0,,12,,,71,127
73706,note_off,0,0,0,,3,,,75,127
73712,note_on,6,0,0,,4,,,76,127
73712,note_on,0,0,0,,1,,,73,127
73806,note_off,94,0,0,,1,,,73,127
73806,note_off,0,0,0,,4,,,76,127
73812,note_on,6,0,0,,3,,,75,127
73812,note_on,0,0,0,,12,,,71,127
73906,note_off,94,0,0,,12,,,71,127
73906,note_off,0,0,0,,3,,,75,127
73912,note_on,6,0,0,,1,,,73,127
73912,note_on,0,0,0,,10,,,69,127
74006,note_off,94,0,0,,10,,,69,127
74006,note_off,0,0,0,,1,,,73,127
74012,note_on,6,0,0,,8,,,68,127
74012,note_on,0,0,0,,12,,,71,127
74106,note_off,94,0,0,,12,,,71,127
74106,note_off,0,0,0,,8,,,68,127
74112,note_on,6,0,0,,10,,,69,127
74112,note_on,0,0,0,,6,,,66,127
74206,note_off,94,0,0,,6,,,66,127
74206,note_off,0,0,0,,10,,,69,127
74212,note_on,6,0,0,,8,,,68,127
74212,note_on,0,0,0,,4,,,64,127
74306,note_off,94,0,0,,4,,,64,127
74306,note_off,0,0,0,,8,,,68,127
74312,note_on,6,0,0,,3,,,63,127
74312,note_on,0,0,0,,6,,,66,127
74406,note_off,94,0,0,,6,,,66,127
74406,note_off,0,0,0,,3,,,63,127
74412,note_on,6,0,0,,4,,,64,127
74412,note_on,0,0,0,,1,,,61,127
74506,note_off,94,0,0,,1,,,61,127
74506,note_off,0,0,0,,4,,,64,127
74512,note_on,6,0,0,,12,,,59,127
74512,note_on,0,0,0,,3,,,63,127
74606,note_off,94,0,0,,3,,,63,127
74606,note_off,0,0,0,,12,,,59,127
74612,note_on,6,0,0,,1,,,61,127
74612,note_on,0,0,0,,4,,,64,127
74706,note_off,94,0,0,,4,,,64,127
74706,note_off,0,0,0,,1,,,61,127
74712,note_on,6,0,0,,6,,,66,127
74712,note_on,0,0,0,,3,,,63,127
74806,note_off,94,0,0,,3,,,63,127
74806,note_off,0,0,0,,6,,,66,127
74812,note_on,6,0,0,,4,,,64,127
74812,note_on,0,0,0,,8,,,68,127
74906,note_off,94,0,0,,8,,,68,127
74906,note_off,0,0,0,,4,,,64,127
74912,note_on,6,0,0,,10,,,69,127
74912,note_on,0,0,0,,6,,,66,127
75006,note_off,94,0,0,,6,,,66,127
75006,note_off,0,0,0,,10,,,69,127
75012,note_on,6,0,0,,12,,,71,127
75012,note_on,0,0,0,,8,,,68,127
75106,note_off,94,0,0,,8,,,68,127
75106,note_off,0,0,0,,12,,,71,127
75112,note_on,6,0,0,,1,,,73,127
75112,note_on,0,0,0,,10,,,69,127
75206,note_off,94,0,0,,10,,,69,127
75206,note_off,0,0,0,,1,,,73,127
75212,note_on,6,0,0,,3,,,75,127
75212,note_on,0,0,0,,12,,,71,127
75306,note_off,94,0,0,,12,,,71,127
75306,note_off,0,0,0,,3,,,75,127
75312,note_on,6,0,0,,1,,,73,127
75312,note_on,0,0,0,,4,,,76,127
75406,note_off,94,0,0,,4,,,76,127
75406,note_off,0,0,0,,1,,,73,127
75412,note_on,6,0,0,,3,,,75,127
75412,note_on,0,0,0,,12,,,71,127
75506,note_off,94,0,0,,12,,,71,127
75506,note_off,0,0,0,,3,,,75,127
75512,note_on,6,0,0,,1,,,73,127
75512,note_on,0,0,0,,10,,,69,127
75606,note_off,94,0,0,,10,,,69,127
75606,note_off,0,0,0,,1,,,73,127
75612,note_on,6,0,0,,12,,,71,127
75612,note_on,0,0,0,,8,,,68,127
75706,note_off,94,0,0,,8,,,68,127
75706,note_off,0,0,0,,12,,,71,127
75712,note_on,6,0,0,,6,,,66,127
75712,note_on,0,0,0,,10,,,69,127
75806,note_off,94,0,0,,10,,,69,127
75806,note_off,0,0,0,,6,,,66,127
75812,note_on,6,0,0,,4,,,64,127
75812,note_on,0,0,0,,8,,,68,127
75906,note_off,94,0,0,,8,,,68,127
75906,note_off,0,0,0,,4,,,64,127
75912,note_on,6,0,0,,3,,,63,127
75912,note_on,0,0,0,,6,,,66,127
76006,note_off,94,0,0,,6,,,66,127
76006,note_off,0,0,0,,3,,,63,127
76012,note_on,6,0,0,,1,,,61,127
76012,note_on,0,0,0,,4,,,64,127
76106,note_off,94,0,0,,4,,,64,127
76106,note_off,0,0,0,,1,,,61,127
76112,note_on,6,0,0,,3,,,63,127
76112,note_on,0,0,0,,12,,,59,127
76206,note_off,94,0,0,,12,,,59,127
76206,note_off,0,0,0,,3,,,63,127
76212,note_on,6,0,0,,1,,,61,127
76212,note_on,0,0,0,,4,,,64,127
76306,note_off,94,0,0,,4,,,64,127
76306,note_off,0,0,0,,1,,,61,127
76312,note_on,6,0,0,,6,,,66,127
76312,note_on,0,0,0,,3,,,63,127
76406,note_off,94,0,0,,3,,,63,127
76406,note_off,0,0,0,,6,,,66,127
76412,note_on,6,0,0,,4,,,64,127
76412,note_on,0,0,0,,8,,,68,127
76506,note_off,94,0,0,,8,,,68,127
76506,note_off,0,0,0,,4,,,64,127
76512,note_on,6,0,0,,10,,,69,127
76512,note_on,0,0,0,,6,,,66,127
76606,note_off,94,0,0,,6,,,66,127
76606,note_off,0,0,0,,10,,,69,127
76612,note_on,6,0,0,,12,,,71,127
76612,note_on,0,0,0,,8,,,68,127
76706,note_off,94,0,0,,8,,,68,127
76706,note_off,0,0,0,,12,,,71,127
76712,note_on,6,0,0,,10,,,69,127
76712,note_on,0,0,0,,1,,,73,127
76806,note_off,94,0,0,,1,,,73,127
76806,note_off,0,0,0,,10,,,69,127
76812,note_on,6,0,0,,3,,,75,127
76812,note_on,0,0,0,,12,,,71,127
76906,note_off,94,0,0,,12,,,71,127
76906,note_off,0,0,0,,3,,,75,127
76912,note_on,6,0,0,,1,,,73,127
76912,note_on,0,0,0,,4,,,76,127
77006,note_off,94,0,0,,4,,,76,127
77006,note_off,0,0,0,,1,,,73,127
77012,note_on,6,0,0,,3,,,75,127
77012,note_on,0,0,0,,12,,,71,127
77106,note_off,94,0,0,,12,,,71,127
77106,note_off,0,0,0,,3,,,75,127
77112,note_on,6,0,0,,1,,,73,127
77112,note_on,0,0,0,,10,,,69,127
77206,note_off,94,0,0,,10,,,69,127
77206,note_off,0,0,0,,1,,,73,127
77212,note_on,6,0,0,,8,,,68,127
77212,note_on,0,0,0,,12,,,71,127
77306,note_off,94,0,0,,12,,,71,127
77306,note_off,0,0,0,,8,,,68,127
77312,note_on,6,0,0,,10,,,69,127
77312,note_on,0,0,0,,6,,,66,127
77406,note_off,94,0,0,,6,,,66,127
77406,note_off,0,0,0,,10,,,69,127
77412,note_on,6,0,0,,8,,,68,127
77412,note_on,0,0,0,,4,,,64,127
77506,note_off,94,0,0,,4,,,64,127
77506,note_off,0,0,0,,8,,,68,127
77512,note_on,6,0,0,,6,,,66,127
77512,note_on,0,0,0,,3,,,63,127
77606,note_off,94,0,0,,3,,,63,127
77606,note_off,0,0,0,,6,,,66,127
77612,note_on,6,0,0,,1,,,61,127
77612,note_on,0,0,0,,4,,,64,127
77706,note_off,94,0,0,,4,,,64,127
77706,note_off,0,0,0,,1,,,61,127
77712,note_on,6,0,0,,12,,,59,127
77712,note_on,0,0,0,,3,,,63,127
77806,note_off,94,0,0,,3,,,63,127
77812,note_on,6,0,0,,6,,,66,127
77906,note_off,94,0,0,,6,,,66,127
77906,note_off,0,0,0,,12,,,59,127
77912,note_on,6,0,0,,10,,,57,127
77912,note_on,0,0,0,,12,,,71,127
78006,note_off,94,0,0,,12,,,71,127
78012,note_on,6,0,0,,3,,,63,127
78106,note_off,94,0,0,,3,,,63,127
78106,note_off,0,0,0,,10,,,57,127
78112,note_on,6,0,0,,8,,,56,127
78112,note_on,0,0,0,,4,,,64,127
78206,note_off,94,0,0,,4,,,64,127
78212,note_on,6,0,0,,6,,,66,127
78306,note_off,94,0,0,,6,,,66,127
78306,note_off,0,0,0,,8,,,56,127
78312,note_on,6,0,0,,10,,,57,127
78312,note_on,0,0,0,,8,,,68,127
78406,note_off,94,0,0,,8,,,68,127
78412,note_on,6,0,0,,10,,,69,127
78506,note_off,94,0,0,,10,,,69,127
78506,note_off,0,0,0,,10,,,57,127
78512,note_on,6,0,0,,12,,,59,127
78512,note_on,0,0,0,,8,,,68,127
78606,note_off,94,0,0,,8,,,68,127
78612,note_on,6,0,0,,10,,,69,127
78706,note_off,94,0,0,,10,,,69,127
78712,note_on,6,0,0,,12,,,71,127
78806,note_off,94,0,0,,12,,,71,127
78812,note_on,6,0,0,,10,,,69,127
78906,note_off,94,0,0,,10,,,69,127
78906,note_off,0,0,0,,12,,,59,127
78912,note_on,6,0,0,,12,,,47,127
78912,note_on,0,0,0,,8,,,68,127
79006,note_off,94,0,0,,8,,,68,127
79012,note_on,6,0,0,,6,,,66,127
79106,note_off,94,0,0,,6,,,66,127
79112,note_on,6,0,0,,4,,,64,127
79206,note_off,94,0,0,,4,,,64,127
79212,note_on,6,0,0,,3,,,63,127
79306,note_off,94,0,0,,3,,,63,127
79306,note_off,0,0,0,,12,,,47,127
79312,note_on,6,0,0,,4,,,52,127
79312,note_on,0,0,0,,4,,,64,127
79406,note_off,94,0,0,,4,,,64,127
79412,note_on,6,0,0,,8,,,68,127
79506,note_off,94,0,0,,8,,,68,127
79512,note_on,6,0,0,,12,,,71,127
79606,note_off,94,0,0,,12,,,71,127
79612,note_on,6,0,0,,4,,,76,127
79706,note_off,94,0,0,,4,,,76,127
79712,note_on,6,0,0,,12,,,71,127
79806,note_off,94,0,0,,12,,,71,127
79812,note_on,6,0,0,,8,,,68,127
79906,note_off,94,0,0,,8,,,68,127
79912,note_on,6,0,0,,4,,,64,127
80006,note_off,94,0,0,,4,,,64,127
80012,note_on,6,0,0,,12,,,59,127
80106,note_off,94,0,0,,12,,,59,127
80106,note_off,0,0,0,,4,,,52,127
80112,note_on,6,0,0,,4,,,40,127
80112,note_on,0,0,0,,4,,,64,127
80206,note_off,94,0,0,,4,,,64,127
80212,note_on,6,0,0,,8,,,68,127
80306,note_off,94,0,0,,8,,,68,127
80312,note_on,6,0,0,,4,,,64,127
80406,note_off,94,0,0,,4,,,64,127
80412,note_on,6,0,0,,12,,,59,127
80506,note_off,94,0,0,,12,,,59,127
80506,note_off,0,0,0,,4,,,40,127
80512,note_on,6,0,0,,4,,,40,127
80512,note_on,0,0,0,,4,,,64,127
80606,note_off,94,0,0,,4,,,64,127
80612,note_on,6,0,0,,12,,,59,127
80706,note_off,94,0,0,,12,,,59,127
80712,note_on,6,0,0,,8,,,56,127
80806,note_off,94,0,0,,8,,,56,127
80812,note_on,6,0,0,,4,,,52,127
80918,note_off,106,0,0,,4,,,40,127
80926,note_off,8,0,0,,4,,,52,127
80952,note_on,26,0,0,,4,,,40,127
82830,note_off,1878,0,0,,4,,,40,127
87552,end_of_track,4722,1,0,,,,,,
