tick,type,time,meta,track,program,channel,pitch,tempo,note,velocity
0,copyright,0,1,0,,,,,,
0,program_change,0,0,0,6,0,,,,
0,pitchwheel,0,0,0,,0,0,,,
0,program_change,0,0,0,6,1,,,,
0,pitchwheel,0,0,0,,1,-590,,,
0,program_change,0,0,0,6,2,,,,
0,pitchwheel,0,0,0,,2,-272,,,
0,program_change,0,0,0,6,3,,,,
0,pitchwheel,0,0,0,,3,-353,,,
0,program_change,0,0,0,6,4,,,,
0,pitchwheel,0,0,0,,4,-560,,,
0,program_change,0,0,0,6,5,,,,
0,pitchwheel,0,0,0,,5,-80,,,
0,program_change,0,0,0,6,6,,,,
0,pitchwheel,0,0,0,,6,-625,,,
0,program_change,0,0,0,6,7,,,,
0,pitchwheel,0,0,0,,7,-130,,,
0,program_change,0,0,0,6,8,,,,
0,pitchwheel,0,0,0,,8,-512,,,
0,program_change,0,0,0,6,10,,,,
0,pitchwheel,0,0,0,,10,-464,,,
0,program_change,0,0,0,6,11,,,,
0,pitchwheel,0,0,0,,11,-208,,,
0,program_change,0,0,0,6,12,,,,
0,pitchwheel,0,0,0,,12,-553,,,
0,set_tempo,0,1,0,,,,500000,,
140,note_on,140,0,0,,2,,,74,127
421,note_on,281,0,0,,10,,,81,127
561,note_off,140,0,0,,2,,,74,127
700,note_off,139,0,0,,10,,,81,127
701,note_on,1,0,0,,10,,,81,127
981,note_off,280,0,0,,10,,,81,127
982,note_on,1,0,0,,10,,,57,127
982,note_on,0,0,0,,10,,,81,127
1121,note_off,139,0,0,,10,,,81,127
1122,note_on,1,0,0,,7,,,79,127
1261,note_off,139,0,0,,7,,,79,127
1262,note_on,1,0,0,,6,,,78,127
1262,note_on,0,0,0,,2,,,62,127
1332,note_off,70,0,0,,10,,,57,127
1401,note_off,69,0,0,,6,,,78,127
1402,note_on,1,0,0,,4,,,76,127
1541,note_off,139,0,0,,4,,,76,127
1541,note_off,0,0,0,,2,,,62,127
1542,note_on,1,0,0,,6,,,78,127
1542,note_on,0,0,0,,2,,,62,127
1822,note_off,280,0,0,,2,,,62,127
1822,note_off,0,0,0,,6,,,78,127
1823,note_on,1,0,0,,10,,,69,127
1823,note_on,0,0,0,,6,,,66,127
1963,note_on,140,0,0,,2,,,74,127
1963,note_on,0,0,0,,2,,,62,127
1998,note_off,35,0,0,,6,,,66,127
2057,note_off,59,0,0,,10,,,69,127
2104,note_on,47,0,0,,12,,,71,127
2104,note_on,0,0,0,,7,,,67,127
2139,note_off,35,0,0,,2,,,62,127
2139,note_off,0,0,0,,2,,,74,127
2244,note_on,105,0,0,,4,,,76,127
2244,note_on,0,0,0,,4,,,64,127
2279,note_off,35,0,0,,7,,,67,127
2338,note_off,59,0,0,,12,,,71,127
2385,note_on,47,0,0,,1,,,73,127
2385,note_on,0,0,0,,10,,,69,127
2420,note_off,35,0,0,,4,,,64,127
2420,note_off,0,0,0,,4,,,76,127
2525,note_on,105,0,0,,10,,,81,127
2525,note_on,0,0,0,,10,,,57,127
2560,note_off,35,0,0,,10,,,69,127
2619,note_off,59,0,0,,1,,,73,127
2664,note_off,45,0,0,,10,,,57,127
2664,note_off,0,0,0,,10,,,81,127
2665,note_on,1,0,0,,6,,,78,127
2665,note_on,0,0,0,,2,,,62,127
2804,note_off,139,0,0,,6,,,78,127
2805,note_on,1,0,0,,4,,,76,127
2944,note_off,139,0,0,,4,,,76,127
2945,note_on,1,0,0,,2,,,74,127
2945,note_on,0,0,0,,2,,,50,127
3084,note_off,139,0,0,,2,,,74,127
3085,note_off,1,0,0,,2,,,62,127
3085,note_on,0,0,0,,1,,,73,127
3224,note_off,139,0,0,,1,,,73,127
3225,note_on,1,0,0,,2,,,74,127
3225,note_on,0,0,0,,2,,,38,127
3365,note_off,140,0,0,,2,,,50,127
3504,note_off,139,0,0,,2,,,38,127
3504,note_off,0,0,0,,2,,,74,127
3505,note_on,1,0,0,,10,,,69,127
3505,note_on,0,0,0,,6,,,66,127
3645,note_on,140,0,0,,2,,,74,127
3645,note_on,0,0,0,,2,,,62,127
3651,note_off,6,0,0,,6,,,66,127
3651,note_off,0,0,0,,10,,,69,127
3786,note_on,135,0,0,,12,,,71,127
3786,note_on,0,0,0,,7,,,67,127
3792,note_off,6,0,0,,2,,,62,127
3792,note_off,0,0,0,,2,,,74,127
3927,note_on,135,0,0,,4,,,76,127
3927,note_on,0,0,0,,4,,,64,127
3933,note_off,6,0,0,,7,,,67,127
3933,note_off,0,0,0,,12,,,71,127
4068,note_on,135,0,0,,1,,,73,127
4068,note_on,0,0,0,,10,,,69,127
4074,note_off,6,0,0,,4,,,64,127
4074,note_off,0,0,0,,4,,,76,127
4209,note_on,135,0,0,,10,,,81,127
4209,note_on,0,0,0,,10,,,57,127
4215,note_off,6,0,0,,10,,,69,127
4215,note_off,0,0,0,,1,,,73,127
4348,note_off,133,0,0,,10,,,57,127
4348,note_off,0,0,0,,10,,,81,127
4349,note_on,1,0,0,,6,,,78,127
4349,note_on,0,0,0,,2,,,62,127
4488,note_off,139,0,0,,6,,,78,127
4489,note_on,1,0,0,,4,,,76,127
4628,note_off,139,0,0,,4,,,76,127
4629,note_on,1,0,0,,2,,,74,127
4629,note_on,0,0,0,,2,,,50,127
4768,note_off,139,0,0,,2,,,74,127
4769,note_off,1,0,0,,2,,,62,127
4769,note_on,0,0,0,,1,,,73,127
4908,note_off,139,0,0,,1,,,73,127
4909,note_on,1,0,0,,2,,,74,127
4909,note_on,0,0,0,,2,,,38,127
5049,note_off,140,0,0,,2,,,50,127
5188,note_off,139,0,0,,2,,,38,127
5211,note_on,23,0,0,,2,,,62,127
5211,note_on,0,0,0,,2,,,50,127
5330,note_off,119,0,0,,2,,,74,127
5353,note_on,23,0,0,,10,,,69,127
5491,note_off,138,0,0,,2,,,50,127
5492,note_off,1,0,0,,10,,,69,127
5493,note_on,1,0,0,,6,,,66,127
5493,note_on,0,0,0,,2,,,50,127
5629,note_off,136,0,0,,2,,,62,127
5632,note_off,3,0,0,,6,,,66,127
5633,note_on,1,0,0,,2,,,62,127
5772,note_off,139,0,0,,2,,,62,127
5772,note_off,0,0,0,,2,,,50,127
5773,note_on,1,0,0,,12,,,83,127
5773,note_on,0,0,0,,7,,,79,127
5773,note_on,0,0,0,,2,,,50,127
6053,note_off,280,0,0,,2,,,50,127
6053,note_off,0,0,0,,7,,,79,127
6053,note_off,0,0,0,,12,,,83,127
6054,note_on,1,0,0,,2,,,62,127
6054,note_on,0,0,0,,2,,,50,127
6194,note_on,140,0,0,,10,,,69,127
6333,note_off,139,0,0,,10,,,69,127
6333,note_off,0,0,0,,2,,,50,127
6334,note_on,1,0,0,,6,,,66,127
6334,note_on,0,0,0,,2,,,50,127
6472,note_off,138,0,0,,2,,,62,127
6473,note_off,1,0,0,,6,,,66,127
6474,note_on,1,0,0,,2,,,62,127
6613,note_off,139,0,0,,2,,,62,127
6613,note_off,0,0,0,,2,,,50,127
6614,note_on,1,0,0,,4,,,76,127
6614,note_on,0,0,0,,7,,,79,127
6614,note_on,0,0,0,,2,,,50,127
6894,note_off,280,0,0,,2,,,50,127
6894,note_off,0,0,0,,7,,,79,127
6894,note_off,0,0,0,,4,,,76,127
6895,note_on,1,0,0,,2,,,62,127
6895,note_on,0,0,0,,2,,,50,127
7035,note_on,140,0,0,,10,,,69,127
7174,note_off,139,0,0,,10,,,69,127
7174,note_off,0,0,0,,2,,,50,127
7175,note_on,1,0,0,,6,,,66,127
7175,note_on,0,0,0,,2,,,50,127
7313,note_off,138,0,0,,2,,,62,127
7314,note_off,1,0,0,,6,,,66,127
7315,note_on,1,0,0,,2,,,62,127
7454,note_off,139,0,0,,2,,,62,127
7454,note_off,0,0,0,,2,,,50,127
7455,note_on,1,0,0,,4,,,76,127
7455,note_on,0,0,0,,10,,,45,127
7594,note_off,139,0,0,,4,,,76,127
7595,note_on,1,0,0,,10,,,69,127
7734,note_off,139,0,0,,10,,,69,127
7734,note_off,0,0,0,,10,,,45,127
7735,note_on,1,0,0,,2,,,38,127
7735,note_on,0,0,0,,6,,,78,127
7874,note_off,139,0,0,,6,,,78,127
7875,note_on,1,0,0,,4,,,76,127
8014,note_off,139,0,0,,4,,,76,127
8015,note_on,1,0,0,,2,,,74,127
8154,note_off,139,0,0,,2,,,74,127
8155,note_on,1,0,0,,1,,,73,127
8294,note_off,139,0,0,,1,,,73,127
8295,note_on,1,0,0,,2,,,74,127
8575,note_off,280,0,0,,2,,,74,127
8575,note_off,0,0,0,,2,,,38,127
8588,note_on,13,0,0,,2,,,50,127
8588,note_on,0,0,0,,2,,,74,127
8728,note_on,140,0,0,,10,,,57,127
8866,note_off,138,0,0,,2,,,50,127
8867,note_off,1,0,0,,10,,,57,127
8867,note_off,0,0,0,,2,,,74,127
8868,note_on,1,0,0,,6,,,54,127
8868,note_on,0,0,0,,2,,,74,127
9007,note_off,139,0,0,,6,,,54,127
9008,note_on,1,0,0,,2,,,50,127
9147,note_off,139,0,0,,2,,,50,127
9147,note_off,0,0,0,,2,,,74,127
9148,note_on,1,0,0,,7,,,67,127
9148,note_on,0,0,0,,12,,,71,127
9148,note_on,0,0,0,,2,,,74,127
9428,note_off,280,0,0,,2,,,74,127
9428,note_off,0,0,0,,12,,,71,127
9428,note_off,0,0,0,,7,,,67,127
9429,note_on,1,0,0,,2,,,50,127
9429,note_on,0,0,0,,2,,,74,127
9569,note_on,140,0,0,,10,,,57,127
9707,note_off,138,0,0,,2,,,50,127
9708,note_off,1,0,0,,10,,,57,127
9708,note_off,0,0,0,,2,,,74,127
9709,note_on,1,0,0,,6,,,54,127
9709,note_on,0,0,0,,2,,,74,127
9848,note_off,139,0,0,,6,,,54,127
9849,note_on,1,0,0,,2,,,50,127
9988,note_off,139,0,0,,2,,,50,127
9988,note_off,0,0,0,,2,,,74,127
9989,note_on,1,0,0,,7,,,67,127
9989,note_on,0,0,0,,4,,,64,127
9989,note_on,0,0,0,,2,,,74,127
10269,note_off,280,0,0,,2,,,74,127
10269,note_off,0,0,0,,4,,,64,127
10269,note_off,0,0,0,,7,,,67,127
10270,note_on,1,0,0,,2,,,50,127
10270,note_on,0,0,0,,2,,,74,127
10410,note_on,140,0,0,,10,,,57,127
10548,note_off,138,0,0,,2,,,50,127
10549,note_off,1,0,0,,10,,,57,127
10549,note_off,0,0,0,,2,,,74,127
10550,note_on,1,0,0,,6,,,54,127
10550,note_on,0,0,0,,2,,,74,127
10689,note_off,139,0,0,,6,,,54,127
10690,note_on,1,0,0,,2,,,50,127
10829,note_off,139,0,0,,2,,,50,127
10829,note_off,0,0,0,,2,,,74,127
10830,note_on,1,0,0,,10,,,45,127
10830,note_on,0,0,0,,10,,,81,127
10969,note_off,139,0,0,,10,,,81,127
10970,note_on,1,0,0,,7,,,79,127
11109,note_off,139,0,0,,7,,,79,127
11109,note_off,0,0,0,,10,,,45,127
11110,note_on,1,0,0,,2,,,38,127
11110,note_on,0,0,0,,6,,,78,127
11249,note_off,139,0,0,,6,,,78,127
11250,note_on,1,0,0,,4,,,76,127
11389,note_off,139,0,0,,4,,,76,127
11390,note_on,1,0,0,,2,,,74,127
11529,note_off,139,0,0,,2,,,74,127
11530,note_on,1,0,0,,1,,,73,127
11669,note_off,139,0,0,,1,,,73,127
11670,note_on,1,0,0,,2,,,74,127
11950,note_off,280,0,0,,2,,,38,127
11963,note_on,13,0,0,,2,,,62,127
11963,note_on,0,0,0,,2,,,50,127
12103,note_on,140,0,0,,10,,,57,127
12241,note_off,138,0,0,,2,,,50,127
12242,note_off,1,0,0,,10,,,57,127
12242,note_off,0,0,0,,2,,,62,127
12243,note_on,1,0,0,,6,,,54,127
12243,note_on,0,0,0,,2,,,62,127
12382,note_off,139,0,0,,6,,,54,127
12383,note_on,1,0,0,,2,,,50,127
12510,note_off,127,0,0,,2,,,74,127
12522,note_off,12,0,0,,2,,,50,127
12522,note_off,0,0,0,,2,,,62,127
12523,note_on,1,0,0,,7,,,67,127
12523,note_on,0,0,0,,12,,,71,127
12523,note_on,0,0,0,,2,,,62,127
12786,note_off,263,0,0,,2,,,62,127
12786,note_off,0,0,0,,12,,,71,127
12786,note_off,0,0,0,,7,,,67,127
12804,note_on,18,0,0,,2,,,50,127
12804,note_on,0,0,0,,2,,,62,127
12944,note_on,140,0,0,,10,,,57,127
13082,note_off,138,0,0,,2,,,50,127
13083,note_off,1,0,0,,10,,,57,127
13083,note_off,0,0,0,,2,,,62,127
13084,note_on,1,0,0,,6,,,54,127
13084,note_on,0,0,0,,2,,,62,127
13223,note_off,139,0,0,,6,,,54,127
13224,note_on,1,0,0,,2,,,50,127
13363,note_off,139,0,0,,2,,,50,127
13363,note_off,0,0,0,,2,,,62,127
13364,note_on,1,0,0,,4,,,64,127
13364,note_on,0,0,0,,7,,,67,127
13364,note_on,0,0,0,,2,,,62,127
13627,note_off,263,0,0,,2,,,62,127
13627,note_off,0,0,0,,7,,,67,127
13627,note_off,0,0,0,,4,,,64,127
13645,note_on,18,0,0,,2,,,50,127
13645,note_on,0,0,0,,2,,,62,127
13785,note_on,140,0,0,,10,,,57,127
13923,note_off,138,0,0,,2,,,50,127
13924,note_off,1,0,0,,10,,,57,127
13924,note_off,0,0,0,,2,,,62,127
13925,note_on,1,0,0,,6,,,54,127
13925,note_on,0,0,0,,2,,,62,127
14064,note_off,139,0,0,,6,,,54,127
14065,note_on,1,0,0,,2,,,50,127
14204,note_off,139,0,0,,2,,,50,127
14204,note_off,0,0,0,,2,,,62,127
14205,note_on,1,0,0,,10,,,45,127
14205,note_on,0,0,0,,10,,,69,127
14344,note_off,139,0,0,,10,,,69,127
14345,note_on,1,0,0,,7,,,67,127
14484,note_off,139,0,0,,7,,,67,127
14484,note_off,0,0,0,,10,,,45,127
14485,note_on,1,0,0,,2,,,38,127
14485,note_on,0,0,0,,6,,,66,127
14624,note_off,139,0,0,,6,,,66,127
14625,note_on,1,0,0,,4,,,64,127
14764,note_off,139,0,0,,4,,,64,127
14765,note_on,1,0,0,,2,,,62,127
14904,note_off,139,0,0,,2,,,62,127
14905,note_on,1,0,0,,1,,,61,127
15044,note_off,139,0,0,,1,,,61,127
15045,note_on,1,0,0,,2,,,62,127
15336,note_off,291,0,0,,2,,,38,127
15358,note_on,22,0,0,,2,,,50,127
15358,note_on,0,0,0,,6,,,78,127
15362,note_off,4,0,0,,2,,,62,127
15497,note_off,135,0,0,,6,,,78,127
15497,note_off,0,0,0,,2,,,50,127
15501,note_on,4,0,0,,2,,,74,127
15501,note_on,0,0,0,,6,,,54,127
15640,note_off,139,0,0,,6,,,54,127
15640,note_off,0,0,0,,2,,,74,127
15641,note_on,1,0,0,,10,,,69,127
15641,note_on,0,0,0,,10,,,57,127
15780,note_off,139,0,0,,10,,,57,127
15780,note_off,0,0,0,,10,,,69,127
15781,note_on,1,0,0,,6,,,66,127
15781,note_on,0,0,0,,2,,,62,127
15920,note_off,139,0,0,,2,,,62,127
15920,note_off,0,0,0,,6,,,66,127
15921,note_on,1,0,0,,2,,,62,127
15921,note_on,0,0,0,,6,,,78,127
16201,note_off,280,0,0,,6,,,78,127
16201,note_off,0,0,0,,2,,,62,127
16202,note_on,1,0,0,,4,,,76,127
16202,note_on,0,0,0,,1,,,49,127
16341,note_off,139,0,0,,1,,,49,127
16341,note_off,0,0,0,,4,,,76,127
16342,note_on,1,0,0,,1,,,73,127
16342,note_on,0,0,0,,4,,,52,127
16481,note_off,139,0,0,,4,,,52,127
16481,note_off,0,0,0,,1,,,73,127
16482,note_on,1,0,0,,10,,,69,127
16482,note_on,0,0,0,,10,,,57,127
16621,note_off,139,0,0,,10,,,57,127
16621,note_off,0,0,0,,10,,,69,127
16622,note_on,1,0,0,,4,,,64,127
16622,note_on,0,0,0,,1,,,61,127
16761,note_off,139,0,0,,1,,,61,127
16761,note_off,0,0,0,,4,,,64,127
16762,note_on,1,0,0,,1,,,61,127
16762,note_on,0,0,0,,4,,,76,127
17042,note_off,280,0,0,,4,,,76,127
17042,note_off,0,0,0,,1,,,61,127
17043,note_on,1,0,0,,6,,,78,127
17043,note_on,0,0,0,,2,,,50,127
17182,note_off,139,0,0,,2,,,50,127
17182,note_off,0,0,0,,6,,,78,127
17183,note_on,1,0,0,,2,,,74,127
17183,note_on,0,0,0,,6,,,54,127
17322,note_off,139,0,0,,6,,,54,127
17322,note_off,0,0,0,,2,,,74,127
17323,note_on,1,0,0,,10,,,69,127
17323,note_on,0,0,0,,10,,,57,127
17462,note_off,139,0,0,,10,,,57,127
17462,note_off,0,0,0,,10,,,69,127
17463,note_on,1,0,0,,6,,,66,127
17463,note_on,0,0,0,,2,,,62,127
17602,note_off,139,0,0,,2,,,62,127
17602,note_off,0,0,0,,6,,,66,127
17603,note_on,1,0,0,,2,,,62,127
17603,note_on,0,0,0,,6,,,78,127
17742,note_off,139,0,0,,2,,,62,127
17884,note_on,142,0,0,,10,,,45,127
18156,note_off,272,0,0,,6,,,78,127
18165,note_on,9,0,0,,4,,,76,127
18234,note_off,69,0,0,,4,,,76,127
18235,note_on,1,0,0,,6,,,78,127
18304,note_off,69,0,0,,6,,,78,127
18305,note_on,1,0,0,,4,,,76,127
18374,note_off,69,0,0,,4,,,76,127
18375,note_on,1,0,0,,6,,,78,127
18444,note_off,69,0,0,,6,,,78,127
18445,note_on,1,0,0,,4,,,76,127
18725,note_off,280,0,0,,4,,,76,127
18725,note_off,0,0,0,,10,,,45,127
18735,note_on,10,0,0,,2,,,50,127
18735,note_on,0,0,0,,6,,,78,127
18874,note_off,139,0,0,,6,,,78,127
18874,note_off,0,0,0,,2,,,50,127
18875,note_on,1,0,0,,6,,,54,127
18875,note_on,0,0,0,,2,,,74,127
19014,note_off,139,0,0,,2,,,74,127
19014,note_off,0,0,0,,6,,,54,127
19015,note_on,1,0,0,,10,,,57,127
19015,note_on,0,0,0,,10,,,69,127
19154,note_off,139,0,0,,10,,,69,127
19154,note_off,0,0,0,,10,,,57,127
19155,note_on,1,0,0,,2,,,62,127
19155,note_on,0,0,0,,6,,,66,127
19294,note_off,139,0,0,,6,,,66,127
19294,note_off,0,0,0,,2,,,62,127
19295,note_on,1,0,0,,6,,,78,127
19295,note_on,0,0,0,,2,,,62,127
19551,note_off,256,0,0,,2,,,62,127
19551,note_off,0,0,0,,6,,,78,127
19576,note_on,25,0,0,,1,,,49,127
19576,note_on,0,0,0,,4,,,76,127
19715,note_off,139,0,0,,4,,,76,127
19715,note_off,0,0,0,,1,,,49,127
19716,note_on,1,0,0,,4,,,52,127
19716,note_on,0,0,0,,1,,,73,127
19855,note_off,139,0,0,,1,,,73,127
19855,note_off,0,0,0,,4,,,52,127
19856,note_on,1,0,0,,10,,,57,127
19856,note_on,0,0,0,,10,,,69,127
19995,note_off,139,0,0,,10,,,69,127
19995,note_off,0,0,0,,10,,,57,127
19996,note_on,1,0,0,,1,,,61,127
19996,note_on,0,0,0,,4,,,64,127
20135,note_off,139,0,0,,4,,,64,127
20135,note_off,0,0,0,,1,,,61,127
20136,note_on,1,0,0,,4,,,76,127
20136,note_on,0,0,0,,1,,,61,127
20392,note_off,256,0,0,,1,,,61,127
20392,note_off,0,0,0,,4,,,76,127
20417,note_on,25,0,0,,12,,,47,127
20417,note_on,0,0,0,,2,,,74,127
20556,note_off,139,0,0,,2,,,74,127
20556,note_off,0,0,0,,12,,,47,127
20557,note_on,1,0,0,,2,,,50,127
20557,note_on,0,0,0,,12,,,71,127
20696,note_off,139,0,0,,12,,,71,127
20696,note_off,0,0,0,,2,,,50,127
20697,note_on,1,0,0,,8,,,56,127
20697,note_on,0,0,0,,8,,,68,127
20836,note_off,139,0,0,,8,,,68,127
20836,note_off,0,0,0,,8,,,56,127
20837,note_on,1,0,0,,12,,,59,127
20837,note_on,0,0,0,,2,,,62,127
20976,note_off,139,0,0,,2,,,62,127
20976,note_off,0,0,0,,12,,,59,127
20977,note_on,1,0,0,,2,,,74,127
20977,note_on,0,0,0,,12,,,59,127
21116,note_off,139,0,0,,12,,,59,127
21258,note_on,142,0,0,,10,,,45,127
21530,note_off,272,0,0,,2,,,74,127
21539,note_on,9,0,0,,1,,,73,127
21608,note_off,69,0,0,,1,,,73,127
21609,note_on,1,0,0,,2,,,74,127
21678,note_off,69,0,0,,2,,,74,127
21679,note_on,1,0,0,,1,,,73,127
21748,note_off,69,0,0,,1,,,73,127
21749,note_on,1,0,0,,2,,,74,127
21818,note_off,69,0,0,,2,,,74,127
21819,note_on,1,0,0,,1,,,73,127
22034,note_off,215,0,0,,1,,,73,127
22128,note_on,94,0,0,,4,,,64,127
22128,note_on,0,0,0,,10,,,57,127
22128,note_on,0,0,0,,0,,,72,127
22137,note_off,9,0,0,,10,,,45,127
22197,note_off,60,0,0,,0,,,72,127
22198,note_on,1,0,0,,2,,,74,127
22267,note_off,69,0,0,,2,,,74,127
22268,note_on,1,0,0,,4,,,76,127
22407,note_off,139,0,0,,4,,,76,127
22407,note_off,0,0,0,,10,,,57,127
22407,note_off,0,0,0,,4,,,64,127
22408,note_on,1,0,0,,4,,,64,127
22408,note_on,0,0,0,,10,,,57,127
22408,note_on,0,0,0,,2,,,74,127
22547,note_off,139,0,0,,2,,,74,127
22548,note_on,1,0,0,,0,,,72,127
22687,note_off,139,0,0,,0,,,72,127
22687,note_off,0,0,0,,10,,,57,127
22687,note_off,0,0,0,,4,,,64,127
22688,note_on,1,0,0,,5,,,65,127
22688,note_on,0,0,0,,10,,,57,127
22688,note_on,0,0,0,,12,,,71,127
22827,note_off,139,0,0,,12,,,71,127
22828,note_on,1,0,0,,10,,,69,127
22967,note_off,139,0,0,,10,,,57,127
22967,note_off,0,0,0,,5,,,65,127
22968,note_on,1,0,0,,5,,,65,127
22968,note_on,0,0,0,,8,,,56,127
22968,note_on,0,0,0,,12,,,71,127
22972,note_off,4,0,0,,10,,,69,127
23036,note_off,64,0,0,,12,,,71,127
23037,note_on,1,0,0,,0,,,72,127
23106,note_off,69,0,0,,0,,,72,127
23107,note_on,1,0,0,,2,,,74,127
23246,note_off,139,0,0,,2,,,74,127
23246,note_off,0,0,0,,8,,,56,127
23246,note_off,0,0,0,,5,,,65,127
23247,note_on,1,0,0,,4,,,64,127
23247,note_on,0,0,0,,8,,,56,127
23247,note_on,0,0,0,,0,,,72,127
23386,note_off,139,0,0,,0,,,72,127
23387,note_on,1,0,0,,12,,,71,127
23526,note_off,139,0,0,,12,,,71,127
23526,note_off,0,0,0,,8,,,56,127
23526,note_off,0,0,0,,4,,,64,127
23527,note_on,1,0,0,,8,,,56,127
23527,note_on,0,0,0,,4,,,64,127
23527,note_on,0,0,0,,10,,,69,127
23666,note_off,139,0,0,,10,,,69,127
23667,note_on,1,0,0,,12,,,71,127
23806,note_off,139,0,0,,4,,,64,127
23806,note_off,0,0,0,,8,,,56,127
23807,note_on,1,0,0,,10,,,57,127
23807,note_on,0,0,0,,4,,,64,127
23807,note_on,0,0,0,,0,,,72,127
23811,note_off,4,0,0,,12,,,71,127
23875,note_off,64,0,0,,0,,,72,127
23876,note_on,1,0,0,,2,,,74,127
23945,note_off,69,0,0,,2,,,74,127
23946,note_on,1,0,0,,4,,,76,127
24085,note_off,139,0,0,,4,,,76,127
24085,note_off,0,0,0,,4,,,64,127
24085,note_off,0,0,0,,10,,,57,127
24086,note_on,1,0,0,,4,,,64,127
24086,note_on,0,0,0,,7,,,55,127
24086,note_on,0,0,0,,2,,,74,127
24225,note_off,139,0,0,,2,,,74,127
24226,note_on,1,0,0,,0,,,72,127
24365,note_off,139,0,0,,0,,,72,127
24365,note_off,0,0,0,,7,,,55,127
24365,note_off,0,0,0,,4,,,64,127
24366,note_on,1,0,0,,2,,,62,127
24366,note_on,0,0,0,,5,,,53,127
24366,note_on,0,0,0,,12,,,71,127
24505,note_off,139,0,0,,12,,,71,127
24506,note_on,1,0,0,,10,,,69,127
24645,note_off,139,0,0,,10,,,69,127
24645,note_off,0,0,0,,5,,,53,127
24645,note_off,0,0,0,,2,,,62,127
24646,note_on,1,0,0,,4,,,52,127
24646,note_on,0,0,0,,10,,,69,127
24926,note_off,280,0,0,,10,,,69,127
24927,note_on,1,0,0,,4,,,64,127
24927,note_on,0,0,0,,0,,,72,127
24996,note_off,69,0,0,,0,,,72,127
24997,note_on,1,0,0,,12,,,71,127
25066,note_off,69,0,0,,12,,,71,127
25067,note_on,1,0,0,,0,,,72,127
25136,note_off,69,0,0,,0,,,72,127
25137,note_on,1,0,0,,12,,,71,127
25201,note_off,64,0,0,,4,,,52,127
25205,note_off,4,0,0,,12,,,71,127
25206,note_on,1,0,0,,0,,,72,127
25275,note_off,69,0,0,,0,,,72,127
25276,note_on,1,0,0,,12,,,71,127
25485,note_off,209,0,0,,4,,,64,127
25486,note_off,1,0,0,,12,,,71,127
25498,note_on,12,0,0,,0,,,72,127
25498,note_on,0,0,0,,10,,,57,127
25498,note_on,0,0,0,,4,,,64,127
25567,note_off,69,0,0,,0,,,72,127
25568,note_on,1,0,0,,2,,,74,127
25637,note_off,69,0,0,,2,,,74,127
25638,note_on,1,0,0,,4,,,76,127
25777,note_off,139,0,0,,4,,,76,127
25777,note_off,0,0,0,,4,,,64,127
25777,note_off,0,0,0,,10,,,57,127
25778,note_on,1,0,0,,10,,,57,127
25778,note_on,0,0,0,,4,,,64,127
25778,note_on,0,0,0,,2,,,74,127
25917,note_off,139,0,0,,2,,,74,127
25918,note_on,1,0,0,,0,,,72,127
26057,note_off,139,0,0,,0,,,72,127
26057,note_off,0,0,0,,4,,,64,127
26057,note_off,0,0,0,,10,,,57,127
26058,note_on,1,0,0,,5,,,65,127
26058,note_on,0,0,0,,10,,,57,127
26058,note_on,0,0,0,,12,,,71,127
26197,note_off,139,0,0,,12,,,71,127
26198,note_on,1,0,0,,10,,,69,127
26330,note_off,132,0,0,,10,,,69,127
26337,note_off,7,0,0,,10,,,57,127
26337,note_off,0,0,0,,5,,,65,127
26338,note_on,1,0,0,,8,,,56,127
26338,note_on,0,0,0,,5,,,65,127
26338,note_on,0,0,0,,12,,,71,127
26407,note_off,69,0,0,,12,,,71,127
26408,note_on,1,0,0,,0,,,72,127
26477,note_off,69,0,0,,0,,,72,127
26478,note_on,1,0,0,,2,,,74,127
26617,note_off,139,0,0,,2,,,74,127
26617,note_off,0,0,0,,5,,,65,127
26617,note_off,0,0,0,,8,,,56,127
26618,note_on,1,0,0,,4,,,64,127
26618,note_on,0,0,0,,8,,,56,127
26618,note_on,0,0,0,,0,,,72,127
26757,note_off,139,0,0,,0,,,72,127
26758,note_on,1,0,0,,12,,,71,127
26897,note_off,139,0,0,,12,,,71,127
26897,note_off,0,0,0,,8,,,56,127
26897,note_off,0,0,0,,4,,,64,127
26898,note_on,1,0,0,,8,,,56,127
26898,note_on,0,0,0,,4,,,64,127
26898,note_on,0,0,0,,10,,,69,127
27037,note_off,139,0,0,,10,,,69,127
27038,note_on,1,0,0,,12,,,71,127
27170,note_off,132,0,0,,12,,,71,127
27177,note_off,7,0,0,,4,,,64,127
27177,note_off,0,0,0,,8,,,56,127
27178,note_on,1,0,0,,10,,,57,127
27178,note_on,0,0,0,,4,,,64,127
27178,note_on,0,0,0,,0,,,72,127
27247,note_off,69,0,0,,0,,,72,127
27248,note_on,1,0,0,,2,,,74,127
27317,note_off,69,0,0,,2,,,74,127
27318,note_on,1,0,0,,4,,,76,127
27457,note_off,139,0,0,,4,,,76,127
27457,note_off,0,0,0,,4,,,64,127
27457,note_off,0,0,0,,10,,,57,127
27458,note_on,1,0,0,,7,,,55,127
27458,note_on,0,0,0,,4,,,64,127
27458,note_on,0,0,0,,2,,,74,127
27597,note_off,139,0,0,,2,,,74,127
27598,note_on,1,0,0,,0,,,72,127
27737,note_off,139,0,0,,0,,,72,127
27737,note_off,0,0,0,,4,,,64,127
27737,note_off,0,0,0,,7,,,55,127
27738,note_on,1,0,0,,2,,,62,127
27738,note_on,0,0,0,,5,,,53,127
27738,note_on,0,0,0,,12,,,71,127
27877,note_off,139,0,0,,12,,,71,127
27878,note_on,1,0,0,,10,,,69,127
28017,note_off,139,0,0,,10,,,69,127
28017,note_off,0,0,0,,5,,,53,127
28017,note_off,0,0,0,,2,,,62,127
28018,note_on,1,0,0,,4,,,52,127
28018,note_on,0,0,0,,10,,,69,127
28087,note_off,69,0,0,,10,,,69,127
28088,note_on,1,0,0,,12,,,71,127
28157,note_off,69,0,0,,12,,,71,127
28158,note_on,1,0,0,,0,,,72,127
28227,note_off,69,0,0,,0,,,72,127
28228,note_on,1,0,0,,12,,,71,127
28297,note_off,69,0,0,,12,,,71,127
28298,note_on,1,0,0,,0,,,72,127
28367,note_off,69,0,0,,0,,,72,127
28368,note_on,1,0,0,,12,,,71,127
28437,note_off,69,0,0,,12,,,71,127
28438,note_on,1,0,0,,0,,,72,127
28507,note_off,69,0,0,,0,,,72,127
28508,note_on,1,0,0,,12,,,71,127
28578,note_on,70,0,0,,4,,,64,127
28718,note_off,140,0,0,,4,,,52,127
28857,note_off,139,0,0,,12,,,71,127
28870,note_on,13,0,0,,0,,,72,127
28870,note_on,0,0,0,,4,,,76,127
28914,note_off,44,0,0,,4,,,64,127
28964,note_on,50,0,0,,10,,,69,127
29018,note_off,54,0,0,,0,,,72,127
29058,note_on,40,0,0,,4,,,64,127
29112,note_off,54,0,0,,10,,,69,127
29149,note_off,37,0,0,,4,,,76,127
29152,note_on,3,0,0,,4,,,76,127
29152,note_on,0,0,0,,12,,,71,127
29206,note_off,54,0,0,,4,,,64,127
29246,note_on,40,0,0,,8,,,68,127
29300,note_off,54,0,0,,12,,,71,127
29340,note_on,40,0,0,,4,,,64,127
29394,note_off,54,0,0,,8,,,68,127
29431,note_off,37,0,0,,4,,,76,127
29434,note_on,3,0,0,,0,,,72,127
29434,note_on,0,0,0,,4,,,76,127
29488,note_off,54,0,0,,4,,,64,127
29528,note_on,40,0,0,,10,,,69,127
29582,note_off,54,0,0,,0,,,72,127
29622,note_on,40,0,0,,4,,,64,127
29676,note_off,54,0,0,,10,,,69,127
29713,note_off,37,0,0,,4,,,76,127
29716,note_on,3,0,0,,2,,,74,127
29716,note_on,0,0,0,,5,,,77,127
29770,note_off,54,0,0,,4,,,64,127
29810,note_on,40,0,0,,10,,,69,127
29864,note_off,54,0,0,,2,,,74,127
29904,note_on,40,0,0,,5,,,65,127
29958,note_off,54,0,0,,10,,,69,127
29995,note_off,37,0,0,,5,,,77,127
29998,note_on,3,0,0,,4,,,76,127
29998,note_on,0,0,0,,0,,,72,127
30052,note_off,54,0,0,,5,,,65,127
30092,note_on,40,0,0,,10,,,69,127
30146,note_off,54,0,0,,0,,,72,127
30186,note_on,40,0,0,,5,,,65,127
30240,note_off,54,0,0,,10,,,69,127
30277,note_off,37,0,0,,4,,,76,127
30280,note_on,3,0,0,,2,,,74,127
30280,note_on,0,0,0,,5,,,77,127
30334,note_off,54,0,0,,5,,,65,127
30374,note_on,40,0,0,,10,,,69,127
30428,note_off,54,0,0,,2,,,74,127
30468,note_on,40,0,0,,5,,,65,127
30522,note_off,54,0,0,,10,,,69,127
30559,note_off,37,0,0,,5,,,77,127
30562,note_on,3,0,0,,2,,,74,127
30562,note_on,0,0,0,,4,,,76,127
30616,note_off,54,0,0,,5,,,65,127
30656,note_on,40,0,0,,12,,,71,127
30710,note_off,54,0,0,,2,,,74,127
30750,note_on,40,0,0,,4,,,64,127
30804,note_off,54,0,0,,12,,,71,127
30841,note_off,37,0,0,,4,,,76,127
30844,note_on,3,0,0,,10,,,81,127
30844,note_on,0,0,0,,0,,,72,127
30898,note_off,54,0,0,,4,,,64,127
30938,note_on,40,0,0,,10,,,69,127
30992,note_off,54,0,0,,0,,,72,127
31032,note_on,40,0,0,,4,,,64,127
31086,note_off,54,0,0,,10,,,69,127
31123,note_off,37,0,0,,10,,,81,127
31126,note_on,3,0,0,,12,,,71,127
31126,note_on,0,0,0,,8,,,80,127
31180,note_off,54,0,0,,4,,,64,127
31220,note_on,40,0,0,,8,,,68,127
31274,note_off,54,0,0,,12,,,71,127
31314,note_on,40,0,0,,4,,,64,127
31368,note_off,54,0,0,,8,,,68,127
31405,note_off,37,0,0,,8,,,80,127
31408,note_on,3,0,0,,8,,,80,127
31408,note_on,0,0,0,,12,,,71,127
31408,note_on,0,0,0,,8,,,68,127
31688,note_off,280,0,0,,8,,,68,127
31689,note_on,1,0,0,,10,,,69,127
31689,note_on,0,0,0,,0,,,72,127
31969,note_off,280,0,0,,12,,,71,127
31969,note_off,0,0,0,,8,,,80,127
31970,note_on,1,0,0,,10,,,81,127
32192,note_off,222,0,0,,4,,,64,127
32249,note_off,57,0,0,,10,,,81,127
32249,note_off,0,0,0,,0,,,72,127
32249,note_off,0,0,0,,10,,,69,127
32262,note_on,13,0,0,,4,,,76,127
32262,note_on,0,0,0,,0,,,72,127
32356,note_on,94,0,0,,10,,,69,127
32410,note_off,54,0,0,,0,,,72,127
32450,note_on,40,0,0,,4,,,64,127
32504,note_off,54,0,0,,10,,,69,127
32541,note_off,37,0,0,,4,,,76,127
32544,note_on,3,0,0,,12,,,71,127
32544,note_on,0,0,0,,4,,,76,127
32598,note_off,54,0,0,,4,,,64,127
32638,note_on,40,0,0,,8,,,68,127
32692,note_off,54,0,0,,12,,,71,127
32732,note_on,40,0,0,,4,,,64,127
32786,note_off,54,0,0,,8,,,68,127
32823,note_off,37,0,0,,4,,,76,127
32826,note_on,3,0,0,,4,,,76,127
32826,note_on,0,0,0,,0,,,72,127
32880,note_off,54,0,0,,4,,,64,127
32920,note_on,40,0,0,,10,,,69,127
32974,note_off,54,0,0,,0,,,72,127
33014,note_on,40,0,0,,4,,,64,127
33068,note_off,54,0,0,,10,,,69,127
33105,note_off,37,0,0,,4,,,76,127
33108,note_on,3,0,0,,5,,,77,127
33108,note_on,0,0,0,,2,,,74,127
33162,note_off,54,0,0,,4,,,64,127
33202,note_on,40,0,0,,10,,,69,127
33256,note_off,54,0,0,,2,,,74,127
33296,note_on,40,0,0,,5,,,65,127
33350,note_off,54,0,0,,10,,,69,127
33387,note_off,37,0,0,,5,,,77,127
33390,note_on,3,0,0,,0,,,72,127
33390,note_on,0,0,0,,4,,,76,127
33444,note_off,54,0,0,,5,,,65,127
33484,note_on,40,0,0,,10,,,69,127
33538,note_off,54,0,0,,0,,,72,127
33578,note_on,40,0,0,,5,,,65,127
33632,note_off,54,0,0,,10,,,69,127
33669,note_off,37,0,0,,4,,,76,127
33672,note_on,3,0,0,,2,,,74,127
33672,note_on,0,0,0,,5,,,77,127
33726,note_off,54,0,0,,5,,,65,127
33766,note_on,40,0,0,,10,,,69,127
33820,note_off,54,0,0,,2,,,74,127
33860,note_on,40,0,0,,5,,,65,127
33914,note_off,54,0,0,,10,,,69,127
33951,note_off,37,0,0,,5,,,77,127
33954,note_on,3,0,0,,4,,,76,127
33954,note_on,0,0,0,,2,,,74,127
34008,note_off,54,0,0,,5,,,65,127
34048,note_on,40,0,0,,10,,,69,127
34102,note_off,54,0,0,,2,,,74,127
34142,note_on,40,0,0,,4,,,64,127
34196,note_off,54,0,0,,10,,,69,127
34233,note_off,37,0,0,,4,,,76,127
34236,note_on,3,0,0,,0,,,72,127
34236,note_on,0,0,0,,10,,,81,127
34290,note_off,54,0,0,,4,,,64,127
34330,note_on,40,0,0,,10,,,69,127
34384,note_off,54,0,0,,0,,,72,127
34424,note_on,40,0,0,,4,,,64,127
34478,note_off,54,0,0,,10,,,69,127
34515,note_off,37,0,0,,10,,,81,127
34518,note_on,3,0,0,,8,,,80,127
34518,note_on,0,0,0,,12,,,71,127
34572,note_off,54,0,0,,4,,,64,127
34612,note_on,40,0,0,,8,,,68,127
34666,note_off,54,0,0,,12,,,71,127
34706,note_on,40,0,0,,4,,,64,127
34778,note_off,72,0,0,,8,,,68,127
34797,note_off,19,0,0,,8,,,80,127
34809,note_on,12,0,0,,8,,,80,127
34809,note_on,0,0,0,,12,,,71,127
34809,note_on,0,0,0,,8,,,68,127
35089,note_on,280,0,0,,10,,,81,127
35101,note_off,12,0,0,,8,,,68,127
35101,note_off,0,0,0,,12,,,71,127
35101,note_off,0,0,0,,8,,,80,127
35378,note_on,277,0,0,,1,,,73,127
35378,note_on,0,0,0,,10,,,69,127
35586,note_off,208,0,0,,4,,,64,127
35680,note_off,94,0,0,,10,,,81,127
35700,note_on,20,0,0,,4,,,76,127
35700,note_on,0,0,0,,1,,,49,127
35706,note_off,6,0,0,,1,,,73,127
35715,note_off,9,0,0,,10,,,69,127
35839,note_off,124,0,0,,4,,,76,127
35840,note_on,1,0,0,,1,,,73,127
35979,note_off,139,0,0,,1,,,73,127
35979,note_off,0,0,0,,1,,,49,127
35980,note_on,1,0,0,,10,,,69,127
35980,note_on,0,0,0,,1,,,49,127
36119,note_off,139,0,0,,10,,,69,127
36120,note_on,1,0,0,,4,,,64,127
36259,note_off,139,0,0,,4,,,64,127
36259,note_off,0,0,0,,1,,,49,127
36260,note_on,1,0,0,,1,,,61,127
36260,note_on,0,0,0,,1,,,49,127
36399,note_off,139,0,0,,1,,,61,127
36400,note_on,1,0,0,,10,,,57,127
36539,note_off,139,0,0,,10,,,57,127
36539,note_off,0,0,0,,1,,,49,127
36540,note_on,1,0,0,,6,,,66,127
36540,note_on,0,0,0,,2,,,50,127
36679,note_off,139,0,0,,2,,,50,127
36680,note_on,1,0,0,,6,,,54,127
36819,note_off,139,0,0,,6,,,54,127
36819,note_off,0,0,0,,6,,,66,127
36820,note_on,1,0,0,,6,,,66,127
36820,note_on,0,0,0,,10,,,57,127
36959,note_off,139,0,0,,10,,,57,127
36960,note_on,1,0,0,,2,,,62,127
37099,note_off,139,0,0,,2,,,62,127
37099,note_off,0,0,0,,6,,,66,127
37100,note_on,1,0,0,,4,,,76,127
37100,note_on,0,0,0,,6,,,66,127
37239,note_off,139,0,0,,6,,,66,127
37240,note_on,1,0,0,,10,,,69,127
37379,note_off,139,0,0,,10,,,69,127
37379,note_off,0,0,0,,4,,,76,127
37380,note_on,1,0,0,,2,,,74,127
37380,note_on,0,0,0,,12,,,47,127
37519,note_off,139,0,0,,2,,,74,127
37520,note_on,1,0,0,,12,,,71,127
37659,note_off,139,0,0,,12,,,71,127
37659,note_off,0,0,0,,12,,,47,127
37660,note_on,1,0,0,,8,,,68,127
37660,note_on,0,0,0,,12,,,47,127
37799,note_off,139,0,0,,8,,,68,127
37800,note_on,1,0,0,,2,,,62,127
37939,note_off,139,0,0,,2,,,62,127
37939,note_off,0,0,0,,12,,,47,127
37940,note_on,1,0,0,,12,,,59,127
37940,note_on,0,0,0,,12,,,47,127
38079,note_off,139,0,0,,12,,,59,127
38080,note_on,1,0,0,,8,,,56,127
38219,note_off,139,0,0,,8,,,56,127
38219,note_off,0,0,0,,12,,,47,127
38220,note_on,1,0,0,,4,,,64,127
38220,note_on,0,0,0,,1,,,49,127
38359,note_off,139,0,0,,1,,,49,127
38360,note_on,1,0,0,,4,,,52,127
38499,note_off,139,0,0,,4,,,52,127
38499,note_off,0,0,0,,4,,,64,127
38500,note_on,1,0,0,,4,,,64,127
38500,note_on,0,0,0,,10,,,57,127
38639,note_off,139,0,0,,10,,,57,127
38640,note_on,1,0,0,,1,,,61,127
38779,note_off,139,0,0,,1,,,61,127
38779,note_off,0,0,0,,4,,,64,127
38780,note_on,1,0,0,,2,,,74,127
38780,note_on,0,0,0,,4,,,64,127
38919,note_off,139,0,0,,4,,,64,127
38920,note_on,1,0,0,,8,,,68,127
39059,note_off,139,0,0,,8,,,68,127
39059,note_off,0,0,0,,2,,,74,127
39060,note_on,1,0,0,,1,,,73,127
39060,note_on,0,0,0,,10,,,45,127
39199,note_off,139,0,0,,1,,,73,127
39200,note_on,1,0,0,,10,,,69,127
39339,note_off,139,0,0,,10,,,69,127
39339,note_off,0,0,0,,10,,,45,127
39340,note_on,1,0,0,,4,,,64,127
39340,note_on,0,0,0,,10,,,45,127
39479,note_off,139,0,0,,4,,,64,127
39480,note_on,1,0,0,,1,,,61,127
39619,note_off,139,0,0,,1,,,61,127
39619,note_off,0,0,0,,10,,,45,127
39620,note_on,1,0,0,,10,,,57,127
39620,note_on,0,0,0,,10,,,45,127
39759,note_off,139,0,0,,10,,,57,127
39760,note_on,1,0,0,,6,,,54,127
39899,note_off,139,0,0,,6,,,54,127
39899,note_off,0,0,0,,10,,,45,127
39900,note_on,1,0,0,,2,,,62,127
39900,note_on,0,0,0,,12,,,47,127
40039,note_off,139,0,0,,12,,,47,127
40040,note_on,1,0,0,,2,,,50,127
40179,note_off,139,0,0,,2,,,50,127
40179,note_off,0,0,0,,2,,,62,127
40180,note_on,1,0,0,,2,,,62,127
40180,note_on,0,0,0,,8,,,56,127
40319,note_off,139,0,0,,8,,,56,127
40320,note_on,1,0,0,,12,,,59,127
40459,note_off,139,0,0,,12,,,59,127
40459,note_off,0,0,0,,2,,,62,127
40460,note_on,1,0,0,,1,,,73,127
40460,note_on,0,0,0,,2,,,62,127
40599,note_off,139,0,0,,2,,,62,127
40600,note_on,1,0,0,,8,,,68,127
40739,note_off,139,0,0,,8,,,68,127
40739,note_off,0,0,0,,1,,,73,127
40740,note_on,1,0,0,,12,,,71,127
40740,note_on,0,0,0,,8,,,44,127
40879,note_off,139,0,0,,12,,,71,127
40880,note_on,1,0,0,,8,,,68,127
41019,note_off,139,0,0,,8,,,68,127
41019,note_off,0,0,0,,8,,,44,127
41020,note_on,1,0,0,,4,,,64,127
41020,note_on,0,0,0,,8,,,44,127
41159,note_off,139,0,0,,4,,,64,127
41160,note_on,1,0,0,,12,,,59,127
41299,note_off,139,0,0,,12,,,59,127
41299,note_off,0,0,0,,8,,,44,127
41300,note_on,1,0,0,,8,,,56,127
41300,note_on,0,0,0,,8,,,44,127
41439,note_off,139,0,0,,8,,,56,127
41440,note_on,1,0,0,,4,,,52,127
41579,note_off,139,0,0,,4,,,52,127
41579,note_off,0,0,0,,8,,,44,127
41580,note_on,1,0,0,,1,,,61,127
41580,note_on,0,0,0,,10,,,45,127
41719,note_off,139,0,0,,10,,,45,127
41720,note_on,1,0,0,,1,,,49,127
41859,note_off,139,0,0,,1,,,49,127
41859,note_off,0,0,0,,1,,,61,127
41860,note_on,1,0,0,,1,,,61,127
41860,note_on,0,0,0,,4,,,52,127
41999,note_off,139,0,0,,4,,,52,127
42000,note_on,1,0,0,,10,,,57,127
42139,note_off,139,0,0,,10,,,57,127
42139,note_off,0,0,0,,1,,,61,127
42140,note_on,1,0,0,,10,,,69,127
42140,note_on,0,0,0,,1,,,61,127
42279,note_off,139,0,0,,1,,,61,127
42280,note_on,1,0,0,,4,,,64,127
42419,note_off,139,0,0,,4,,,64,127
42419,note_off,0,0,0,,10,,,69,127
42420,note_on,1,0,0,,6,,,66,127
42420,note_on,0,0,0,,2,,,50,127
42559,note_off,139,0,0,,2,,,50,127
42560,note_on,1,0,0,,6,,,54,127
42699,note_off,139,0,0,,6,,,54,127
42699,note_off,0,0,0,,6,,,66,127
42700,note_on,1,0,0,,2,,,74,127
42700,note_on,0,0,0,,10,,,57,127
42839,note_off,139,0,0,,10,,,57,127
42840,note_on,1,0,0,,2,,,62,127
42979,note_off,139,0,0,,2,,,62,127
42979,note_off,0,0,0,,2,,,74,127
42980,note_on,1,0,0,,6,,,78,127
42980,note_on,0,0,0,,6,,,66,127
43119,note_off,139,0,0,,6,,,66,127
43120,note_on,1,0,0,,10,,,69,127
43259,note_off,139,0,0,,10,,,69,127
43259,note_off,0,0,0,,6,,,78,127
43260,note_on,1,0,0,,8,,,68,127
43260,note_on,0,0,0,,4,,,52,127
43399,note_off,139,0,0,,4,,,52,127
43400,note_on,1,0,0,,8,,,56,127
43539,note_off,139,0,0,,8,,,56,127
43539,note_off,0,0,0,,8,,,68,127
43540,note_on,1,0,0,,4,,,64,127
43540,note_on,0,0,0,,12,,,59,127
43678,note_off,138,0,0,,4,,,64,127
43679,note_off,1,0,0,,12,,,59,127
43680,note_on,1,0,0,,4,,,64,127
43819,note_off,139,0,0,,4,,,64,127
43820,note_on,1,0,0,,2,,,74,127
43820,note_on,0,0,0,,8,,,68,127
43959,note_off,139,0,0,,8,,,68,127
43960,note_on,1,0,0,,12,,,71,127
44099,note_off,139,0,0,,12,,,71,127
44099,note_off,0,0,0,,2,,,74,127
44100,note_on,1,0,0,,1,,,73,127
44100,note_on,0,0,0,,10,,,45,127
44169,note_off,69,0,0,,1,,,73,127
44170,note_on,1,0,0,,12,,,71,127
44239,note_off,69,0,0,,12,,,71,127
44240,note_on,1,0,0,,10,,,69,127
44379,note_off,139,0,0,,10,,,69,127
44379,note_off,0,0,0,,10,,,45,127
44380,note_on,1,0,0,,1,,,73,127
44380,note_on,0,0,0,,4,,,52,127
44661,note_on,281,0,0,,4,,,40,127
44731,note_on,70,0,0,,12,,,71,127
44740,note_off,9,0,0,,1,,,73,127
44800,note_off,60,0,0,,12,,,71,127
44801,note_on,1,0,0,,1,,,73,127
44870,note_off,69,0,0,,1,,,73,127
44871,note_on,1,0,0,,12,,,71,127
44935,note_off,64,0,0,,4,,,52,127
44939,note_off,4,0,0,,12,,,71,127
44939,note_off,0,0,0,,4,,,40,127
44940,note_on,1,0,0,,1,,,73,127
44940,note_on,0,0,0,,10,,,45,127
45034,note_on,94,0,0,,10,,,69,127
45088,note_off,54,0,0,,1,,,73,127
45128,note_on,40,0,0,,4,,,64,127
45182,note_off,54,0,0,,10,,,69,127
45222,note_on,40,0,0,,1,,,73,127
45276,note_off,54,0,0,,4,,,64,127
45316,note_on,40,0,0,,10,,,69,127
45370,note_off,54,0,0,,1,,,73,127
45410,note_on,40,0,0,,4,,,64,127
45464,note_off,54,0,0,,10,,,69,127
45502,note_off,38,0,0,,10,,,45,127
45503,note_on,1,0,0,,4,,,76,127
45503,note_on,0,0,0,,1,,,73,127
45557,note_off,54,0,0,,4,,,64,127
45597,note_on,40,0,0,,10,,,69,127
45651,note_off,54,0,0,,1,,,73,127
45691,note_on,40,0,0,,4,,,64,127
45745,note_off,54,0,0,,10,,,69,127
45783,note_off,38,0,0,,4,,,76,127
45784,note_on,1,0,0,,6,,,78,127
45784,note_on,0,0,0,,2,,,74,127
45838,note_off,54,0,0,,4,,,64,127
45878,note_on,40,0,0,,12,,,71,127
45932,note_off,54,0,0,,2,,,74,127
45972,note_on,40,0,0,,4,,,64,127
46026,note_off,54,0,0,,12,,,71,127
46064,note_off,38,0,0,,6,,,78,127
46065,note_on,1,0,0,,6,,,78,127
46065,note_on,0,0,0,,1,,,73,127
46119,note_off,54,0,0,,4,,,64,127
46159,note_on,40,0,0,,10,,,69,127
46213,note_off,54,0,0,,1,,,73,127
46253,note_on,40,0,0,,4,,,64,127
46307,note_off,54,0,0,,10,,,69,127
46345,note_off,38,0,0,,6,,,78,127
46346,note_on,1,0,0,,8,,,80,127
46346,note_on,0,0,0,,12,,,71,127
46400,note_off,54,0,0,,4,,,64,127
46440,note_on,40,0,0,,8,,,68,127
46494,note_off,54,0,0,,12,,,71,127
46534,note_on,40,0,0,,4,,,64,127
46588,note_off,54,0,0,,8,,,68,127
46626,note_off,38,0,0,,8,,,80,127
46627,note_on,1,0,0,,10,,,81,127
46627,note_on,0,0,0,,1,,,73,127
46681,note_off,54,0,0,,4,,,64,127
46721,note_on,40,0,0,,10,,,69,127
46775,note_off,54,0,0,,1,,,73,127
46815,note_on,40,0,0,,4,,,64,127
46869,note_off,54,0,0,,10,,,69,127
46907,note_off,38,0,0,,10,,,81,127
46908,note_on,1,0,0,,10,,,81,127
46908,note_on,0,0,0,,12,,,71,127
46962,note_off,54,0,0,,4,,,64,127
47002,note_on,40,0,0,,8,,,68,127
47056,note_off,54,0,0,,12,,,71,127
47096,note_on,40,0,0,,4,,,64,127
47150,note_off,54,0,0,,8,,,68,127
47188,note_off,38,0,0,,10,,,81,127
47189,note_on,1,0,0,,4,,,76,127
47189,note_on,0,0,0,,1,,,73,127
47243,note_off,54,0,0,,4,,,64,127
47283,note_on,40,0,0,,10,,,69,127
47337,note_off,54,0,0,,1,,,73,127
47377,note_on,40,0,0,,4,,,64,127
47431,note_off,54,0,0,,10,,,69,127
47469,note_off,38,0,0,,4,,,76,127
47470,note_on,1,0,0,,6,,,78,127
47470,note_on,0,0,0,,2,,,74,127
47524,note_off,54,0,0,,4,,,64,127
47564,note_on,40,0,0,,12,,,71,127
47618,note_off,54,0,0,,2,,,74,127
47658,note_on,40,0,0,,4,,,64,127
47712,note_off,54,0,0,,12,,,71,127
47750,note_off,38,0,0,,6,,,78,127
47751,note_on,1,0,0,,6,,,78,127
47751,note_on,0,0,0,,1,,,73,127
47805,note_off,54,0,0,,4,,,64,127
47845,note_on,40,0,0,,10,,,69,127
47899,note_off,54,0,0,,1,,,73,127
47939,note_on,40,0,0,,4,,,64,127
47993,note_off,54,0,0,,10,,,69,127
48031,note_off,38,0,0,,6,,,78,127
48032,note_on,1,0,0,,8,,,80,127
48032,note_on,0,0,0,,12,,,71,127
48086,note_off,54,0,0,,4,,,64,127
48126,note_on,40,0,0,,8,,,68,127
48180,note_off,54,0,0,,12,,,71,127
48220,note_on,40,0,0,,4,,,64,127
48274,note_off,54,0,0,,8,,,68,127
48312,note_off,38,0,0,,8,,,80,127
48313,note_on,1,0,0,,10,,,81,127
48313,note_on,0,0,0,,1,,,73,127
48367,note_off,54,0,0,,4,,,64,127
48407,note_on,40,0,0,,10,,,69,127
48461,note_off,54,0,0,,1,,,73,127
48501,note_on,40,0,0,,4,,,64,127
48555,note_off,54,0,0,,10,,,69,127
48593,note_off,38,0,0,,10,,,81,127
48594,note_on,1,0,0,,10,,,81,127
48594,note_on,0,0,0,,12,,,71,127
48648,note_off,54,0,0,,4,,,64,127
48688,note_on,40,0,0,,8,,,68,127
48742,note_off,54,0,0,,12,,,71,127
48782,note_on,40,0,0,,4,,,64,127
48836,note_off,54,0,0,,8,,,68,127
48874,note_off,38,0,0,,10,,,81,127
48875,note_on,1,0,0,,4,,,76,127
48875,note_on,0,0,0,,1,,,73,127
48929,note_off,54,0,0,,4,,,64,127
48969,note_on,40,0,0,,10,,,69,127
49023,note_off,54,0,0,,1,,,73,127
49063,note_on,40,0,0,,4,,,64,127
49117,note_off,54,0,0,,10,,,69,127
49155,note_off,38,0,0,,4,,,76,127
49156,note_on,1,0,0,,6,,,78,127
49156,note_on,0,0,0,,2,,,74,127
49210,note_off,54,0,0,,4,,,64,127
49250,note_on,40,0,0,,12,,,71,127
49304,note_off,54,0,0,,2,,,74,127
49344,note_on,40,0,0,,4,,,64,127
49398,note_off,54,0,0,,12,,,71,127
49436,note_off,38,0,0,,6,,,78,127
49437,note_on,1,0,0,,6,,,78,127
49437,note_on,0,0,0,,1,,,73,127
49491,note_off,54,0,0,,4,,,64,127
49531,note_on,40,0,0,,10,,,69,127
49585,note_off,54,0,0,,1,,,73,127
49625,note_on,40,0,0,,4,,,64,127
49679,note_off,54,0,0,,10,,,69,127
49717,note_off,38,0,0,,6,,,78,127
49718,note_on,1,0,0,,8,,,80,127
49718,note_on,0,0,0,,12,,,71,127
49772,note_off,54,0,0,,4,,,64,127
49812,note_on,40,0,0,,8,,,68,127
49866,note_off,54,0,0,,12,,,71,127
49906,note_on,40,0,0,,4,,,64,127
49960,note_off,54,0,0,,8,,,68,127
49998,note_off,38,0,0,,8,,,80,127
49999,note_on,1,0,0,,10,,,81,127
49999,note_on,0,0,0,,1,,,73,127
50053,note_off,54,0,0,,4,,,64,127
50093,note_on,40,0,0,,10,,,69,127
50147,note_off,54,0,0,,1,,,73,127
50187,note_on,40,0,0,,4,,,64,127
50241,note_off,54,0,0,,10,,,69,127
50279,note_off,38,0,0,,10,,,81,127
50280,note_on,1,0,0,,10,,,81,127
50280,note_on,0,0,0,,2,,,74,127
50334,note_off,54,0,0,,4,,,64,127
50374,note_on,40,0,0,,12,,,71,127
50428,note_off,54,0,0,,2,,,74,127
50468,note_on,40,0,0,,4,,,64,127
50522,note_off,54,0,0,,12,,,71,127
50560,note_off,38,0,0,,10,,,81,127
50561,note_on,1,0,0,,4,,,76,127
50561,note_on,0,0,0,,1,,,61,127
50615,note_off,54,0,0,,4,,,64,127
50655,note_on,40,0,0,,1,,,73,127
50709,note_off,54,0,0,,4,,,76,127
50749,note_on,40,0,0,,4,,,64,127
50803,note_off,54,0,0,,1,,,73,127
50841,note_off,38,0,0,,1,,,61,127
50842,note_on,1,0,0,,2,,,74,127
50842,note_on,0,0,0,,2,,,62,127
50896,note_off,54,0,0,,4,,,64,127
50936,note_on,40,0,0,,12,,,71,127
50990,note_off,54,0,0,,2,,,74,127
51030,note_on,40,0,0,,4,,,64,127
51084,note_off,54,0,0,,12,,,71,127
51122,note_off,38,0,0,,2,,,62,127
51123,note_on,1,0,0,,1,,,73,127
51123,note_on,0,0,0,,12,,,59,127
51177,note_off,54,0,0,,4,,,64,127
51217,note_on,40,0,0,,10,,,69,127
51271,note_off,54,0,0,,1,,,73,127
51311,note_on,40,0,0,,4,,,64,127
51365,note_off,54,0,0,,10,,,69,127
51403,note_off,38,0,0,,12,,,59,127
51404,note_on,1,0,0,,12,,,71,127
51404,note_on,0,0,0,,4,,,52,127
51458,note_off,54,0,0,,4,,,64,127
51498,note_on,40,0,0,,8,,,68,127
51552,note_off,54,0,0,,12,,,71,127
51592,note_on,40,0,0,,4,,,64,127
51646,note_off,54,0,0,,8,,,68,127
51684,note_off,38,0,0,,4,,,52,127
51685,note_on,1,0,0,,12,,,71,127
51685,note_on,0,0,0,,10,,,45,127
51739,note_off,54,0,0,,4,,,64,127
51964,note_off,225,0,0,,12,,,71,127
51965,note_on,1,0,0,,1,,,73,127
52245,note_off,280,0,0,,1,,,73,127
52245,note_off,0,0,0,,10,,,45,127
52258,note_on,13,0,0,,4,,,76,127
52258,note_on,0,0,0,,1,,,73,127
52352,note_on,94,0,0,,10,,,69,127
52406,note_off,54,0,0,,1,,,73,127
52446,note_on,40,0,0,,4,,,64,127
52500,note_off,54,0,0,,10,,,69,127
52538,note_off,38,0,0,,4,,,76,127
52539,note_on,1,0,0,,6,,,78,127
52539,note_on,0,0,0,,2,,,74,127
52593,note_off,54,0,0,,4,,,64,127
52633,note_on,40,0,0,,12,,,71,127
52687,note_off,54,0,0,,2,,,74,127
52727,note_on,40,0,0,,4,,,64,127
52781,note_off,54,0,0,,12,,,71,127
52819,note_off,38,0,0,,6,,,78,127
52820,note_on,1,0,0,,6,,,78,127
52820,note_on,0,0,0,,1,,,73,127
52874,note_off,54,0,0,,4,,,64,127
52914,note_on,40,0,0,,10,,,69,127
52968,note_off,54,0,0,,1,,,73,127
53008,note_on,40,0,0,,4,,,64,127
53062,note_off,54,0,0,,10,,,69,127
53100,note_off,38,0,0,,6,,,78,127
53101,note_on,1,0,0,,10,,,81,127
53101,note_on,0,0,0,,12,,,71,127
53155,note_off,54,0,0,,4,,,64,127
53171,note_off,16,0,0,,10,,,81,127
53171,note_on,0,0,0,,8,,,80,127
53194,note_on,23,0,0,,8,,,68,127
53241,note_off,47,0,0,,8,,,80,127
53241,note_on,0,0,0,,6,,,78,127
53248,note_off,7,0,0,,12,,,71,127
53288,note_on,40,0,0,,4,,,64,127
53311,note_off,23,0,0,,6,,,78,127
53311,note_on,0,0,0,,8,,,80,127
53342,note_off,31,0,0,,8,,,68,127
53382,note_off,40,0,0,,8,,,80,127
53382,note_on,0,0,0,,10,,,81,127
53382,note_on,0,0,0,,1,,,73,127
53436,note_off,54,0,0,,4,,,64,127
53476,note_on,40,0,0,,10,,,69,127
53530,note_off,54,0,0,,1,,,73,127
53570,note_on,40,0,0,,4,,,64,127
53624,note_off,54,0,0,,10,,,69,127
53662,note_off,38,0,0,,10,,,81,127
53663,note_on,1,0,0,,10,,,81,127
53663,note_on,0,0,0,,12,,,71,127
53717,note_off,54,0,0,,4,,,64,127
53757,note_on,40,0,0,,8,,,68,127
53811,note_off,54,0,0,,12,,,71,127
53851,note_on,40,0,0,,4,,,64,127
53905,note_off,54,0,0,,8,,,68,127
53943,note_off,38,0,0,,10,,,81,127
53944,note_on,1,0,0,,4,,,76,127
53944,note_on,0,0,0,,1,,,73,127
53998,note_off,54,0,0,,4,,,64,127
54038,note_on,40,0,0,,10,,,69,127
54092,note_off,54,0,0,,1,,,73,127
54132,note_on,40,0,0,,4,,,64,127
54186,note_off,54,0,0,,10,,,69,127
54224,note_off,38,0,0,,4,,,76,127
54225,note_on,1,0,0,,6,,,78,127
54225,note_on,0,0,0,,2,,,74,127
54279,note_off,54,0,0,,4,,,64,127
54319,note_on,40,0,0,,12,,,71,127
54373,note_off,54,0,0,,2,,,74,127
54413,note_on,40,0,0,,4,,,64,127
54467,note_off,54,0,0,,12,,,71,127
54505,note_off,38,0,0,,6,,,78,127
54506,note_on,1,0,0,,6,,,78,127
54506,note_on,0,0,0,,1,,,73,127
54560,note_off,54,0,0,,4,,,64,127
54600,note_on,40,0,0,,10,,,69,127
54654,note_off,54,0,0,,1,,,73,127
54694,note_on,40,0,0,,4,,,64,127
54748,note_off,54,0,0,,10,,,69,127
54786,note_off,38,0,0,,6,,,78,127
54787,note_on,1,0,0,,12,,,71,127
54787,note_on,0,0,0,,10,,,81,127
54841,note_off,54,0,0,,4,,,64,127
54857,note_off,16,0,0,,10,,,81,127
54857,note_on,0,0,0,,8,,,80,127
54880,note_on,23,0,0,,8,,,68,127
54927,note_off,47,0,0,,8,,,80,127
54927,note_on,0,0,0,,6,,,78,127
54934,note_off,7,0,0,,12,,,71,127
54974,note_on,40,0,0,,4,,,64,127
54997,note_off,23,0,0,,6,,,78,127
54997,note_on,0,0,0,,8,,,80,127
55028,note_off,31,0,0,,8,,,68,127
55068,note_off,40,0,0,,8,,,80,127
55068,note_on,0,0,0,,10,,,81,127
55068,note_on,0,0,0,,1,,,73,127
55122,note_off,54,0,0,,4,,,64,127
55162,note_on,40,0,0,,10,,,69,127
55216,note_off,54,0,0,,1,,,73,127
55256,note_on,40,0,0,,4,,,64,127
55310,note_off,54,0,0,,10,,,69,127
55348,note_off,38,0,0,,10,,,81,127
55349,note_on,1,0,0,,10,,,81,127
55349,note_on,0,0,0,,12,,,71,127
55403,note_off,54,0,0,,4,,,64,127
55443,note_on,40,0,0,,8,,,68,127
55497,note_off,54,0,0,,12,,,71,127
55537,note_on,40,0,0,,4,,,64,127
55591,note_off,54,0,0,,8,,,68,127
55629,note_off,38,0,0,,10,,,81,127
55630,note_on,1,0,0,,4,,,76,127
55630,note_on,0,0,0,,1,,,73,127
55684,note_off,54,0,0,,4,,,64,127
55724,note_on,40,0,0,,10,,,69,127
55778,note_off,54,0,0,,1,,,73,127
55818,note_on,40,0,0,,4,,,64,127
55872,note_off,54,0,0,,10,,,69,127
55910,note_off,38,0,0,,4,,,76,127
55911,note_on,1,0,0,,6,,,78,127
55911,note_on,0,0,0,,2,,,74,127
55965,note_off,54,0,0,,4,,,64,127
56005,note_on,40,0,0,,12,,,71,127
56059,note_off,54,0,0,,2,,,74,127
56099,note_on,40,0,0,,4,,,64,127
56153,note_off,54,0,0,,12,,,71,127
56191,note_off,38,0,0,,6,,,78,127
56192,note_on,1,0,0,,6,,,78,127
56192,note_on,0,0,0,,1,,,73,127
56246,note_off,54,0,0,,4,,,64,127
56286,note_on,40,0,0,,10,,,69,127
56340,note_off,54,0,0,,1,,,73,127
56380,note_on,40,0,0,,4,,,64,127
56434,note_off,54,0,0,,10,,,69,127
56472,note_off,38,0,0,,6,,,78,127
56473,note_on,1,0,0,,10,,,81,127
56473,note_on,0,0,0,,12,,,71,127
56527,note_off,54,0,0,,4,,,64,127
56543,note_off,16,0,0,,10,,,81,127
56543,note_on,0,0,0,,8,,,80,127
56566,note_on,23,0,0,,8,,,68,127
56613,note_off,47,0,0,,8,,,80,127
56613,note_on,0,0,0,,6,,,78,127
56620,note_off,7,0,0,,12,,,71,127
56660,note_on,40,0,0,,4,,,64,127
56683,note_off,23,0,0,,6,,,78,127
56683,note_on,0,0,0,,8,,,80,127
56714,note_off,31,0,0,,8,,,68,127
56754,note_off,40,0,0,,8,,,80,127
56754,note_on,0,0,0,,10,,,81,127
56754,note_on,0,0,0,,1,,,73,127
56808,note_off,54,0,0,,4,,,64,127
56848,note_on,40,0,0,,10,,,69,127
56902,note_off,54,0,0,,1,,,73,127
56942,note_on,40,0,0,,4,,,64,127
56996,note_off,54,0,0,,10,,,69,127
57034,note_off,38,0,0,,10,,,81,127
57035,note_on,1,0,0,,10,,,81,127
57035,note_on,0,0,0,,2,,,74,127
57089,note_off,54,0,0,,4,,,64,127
57129,note_on,40,0,0,,12,,,71,127
57183,note_off,54,0,0,,2,,,74,127
57223,note_on,40,0,0,,4,,,64,127
57277,note_off,54,0,0,,12,,,71,127
57315,note_off,38,0,0,,10,,,81,127
57316,note_on,1,0,0,,4,,,76,127
57316,note_on,0,0,0,,1,,,61,127
57370,note_off,54,0,0,,4,,,64,127
57410,note_on,40,0,0,,1,,,73,127
57464,note_off,54,0,0,,4,,,76,127
57504,note_on,40,0,0,,4,,,64,127
57558,note_off,54,0,0,,1,,,73,127
57596,note_off,38,0,0,,1,,,61,127
57597,note_on,1,0,0,,2,,,74,127
57597,note_on,0,0,0,,2,,,62,127
57651,note_off,54,0,0,,4,,,64,127
57691,note_on,40,0,0,,12,,,71,127
57745,note_off,54,0,0,,2,,,74,127
57785,note_on,40,0,0,,4,,,64,127
57839,note_off,54,0,0,,12,,,71,127
57877,note_off,38,0,0,,2,,,62,127
57878,note_on,1,0,0,,1,,,73,127
57878,note_on,0,0,0,,12,,,59,127
57932,note_off,54,0,0,,4,,,64,127
57972,note_on,40,0,0,,10,,,69,127
58026,note_off,54,0,0,,1,,,73,127
58066,note_on,40,0,0,,4,,,64,127
58120,note_off,54,0,0,,10,,,69,127
58158,note_off,38,0,0,,12,,,59,127
58159,note_on,1,0,0,,12,,,71,127
58159,note_on,0,0,0,,4,,,52,127
58213,note_off,54,0,0,,4,,,64,127
58253,note_on,40,0,0,,8,,,68,127
58307,note_off,54,0,0,,12,,,71,127
58347,note_on,40,0,0,,4,,,64,127
58401,note_off,54,0,0,,8,,,68,127
58439,note_off,38,0,0,,4,,,52,127
58452,note_on,13,0,0,,10,,,45,127
58452,note_on,0,0,0,,1,,,73,127
58494,note_off,42,0,0,,4,,,64,127
58545,note_on,51,0,0,,10,,,69,127
58599,note_off,54,0,0,,1,,,73,127
58639,note_on,40,0,0,,4,,,64,127
58693,note_off,54,0,0,,10,,,69,127
58731,note_off,38,0,0,,10,,,45,127
58732,note_on,1,0,0,,2,,,74,127
58732,note_on,0,0,0,,12,,,47,127
58786,note_off,54,0,0,,4,,,64,127
58826,note_on,40,0,0,,12,,,71,127
58880,note_off,54,0,0,,2,,,74,127
58920,note_on,40,0,0,,4,,,64,127
58974,note_off,54,0,0,,12,,,71,127
59012,note_off,38,0,0,,12,,,47,127
59013,note_on,1,0,0,,4,,,76,127
59013,note_on,0,0,0,,1,,,49,127
59067,note_off,54,0,0,,4,,,64,127
59107,note_on,40,0,0,,1,,,73,127
59161,note_off,54,0,0,,4,,,76,127
59201,note_on,40,0,0,,4,,,64,127
59255,note_off,54,0,0,,1,,,73,127
59293,note_off,38,0,0,,1,,,49,127
59294,note_on,1,0,0,,2,,,74,127
59294,note_on,0,0,0,,2,,,50,127
59348,note_off,54,0,0,,4,,,64,127
59388,note_on,40,0,0,,12,,,71,127
59442,note_off,54,0,0,,2,,,74,127
59482,note_on,40,0,0,,4,,,64,127
59536,note_off,54,0,0,,12,,,71,127
59574,note_off,38,0,0,,2,,,50,127
59575,note_on,1,0,0,,1,,,73,127
59575,note_on,0,0,0,,4,,,52,127
59629,note_off,54,0,0,,4,,,64,127
59669,note_on,40,0,0,,10,,,69,127
59723,note_off,54,0,0,,1,,,73,127
59763,note_on,40,0,0,,4,,,64,127
59817,note_off,54,0,0,,10,,,69,127
59857,note_on,40,0,0,,12,,,71,127
59857,note_on,0,0,0,,4,,,40,127
59911,note_off,54,0,0,,4,,,64,127
59951,note_on,40,0,0,,8,,,68,127
60005,note_off,54,0,0,,12,,,71,127
60045,note_on,40,0,0,,4,,,64,127
60099,note_off,54,0,0,,8,,,68,127
60133,note_off,34,0,0,,4,,,52,127
60137,note_off,4,0,0,,4,,,40,127
60150,note_on,13,0,0,,1,,,73,127
60150,note_on,0,0,0,,10,,,45,127
60192,note_off,42,0,0,,4,,,64,127
60243,note_on,51,0,0,,10,,,69,127
60297,note_off,54,0,0,,1,,,73,127
60337,note_on,40,0,0,,4,,,64,127
60391,note_off,54,0,0,,10,,,69,127
60429,note_off,38,0,0,,10,,,45,127
60430,note_on,1,0,0,,12,,,71,127
60430,note_on,0,0,0,,12,,,47,127
60484,note_off,54,0,0,,4,,,64,127
60524,note_on,40,0,0,,8,,,68,127
60578,note_off,54,0,0,,12,,,71,127
60618,note_on,40,0,0,,4,,,64,127
60672,note_off,54,0,0,,8,,,68,127
60710,note_off,38,0,0,,12,,,47,127
60711,note_on,1,0,0,,10,,,69,127
60711,note_on,0,0,0,,1,,,49,127
60765,note_off,54,0,0,,4,,,64,127
60805,note_on,40,0,0,,4,,,64,127
60859,note_off,54,0,0,,10,,,69,127
60899,note_on,40,0,0,,1,,,61,127
60953,note_off,54,0,0,,4,,,64,127
60991,note_off,38,0,0,,1,,,49,127
60992,note_on,1,0,0,,12,,,71,127
60992,note_on,0,0,0,,2,,,50,127
61046,note_off,54,0,0,,1,,,61,127
61086,note_on,40,0,0,,6,,,66,127
61140,note_off,54,0,0,,12,,,71,127
61180,note_on,40,0,0,,2,,,62,127
61234,note_off,54,0,0,,6,,,66,127
61272,note_off,38,0,0,,2,,,50,127
61273,note_on,1,0,0,,10,,,69,127
61273,note_on,0,0,0,,4,,,52,127
61327,note_off,54,0,0,,2,,,62,127
61367,note_on,40,0,0,,4,,,64,127
61421,note_off,54,0,0,,10,,,69,127
61461,note_on,40,0,0,,1,,,61,127
61515,note_off,54,0,0,,4,,,64,127
61555,note_on,40,0,0,,8,,,68,127
61555,note_on,0,0,0,,4,,,40,127
61609,note_off,54,0,0,,1,,,61,127
61649,note_on,40,0,0,,2,,,62,127
61743,note_on,94,0,0,,12,,,59,127
61831,note_off,88,0,0,,4,,,52,127
61835,note_off,4,0,0,,4,,,40,127
61839,note_on,4,0,0,,4,,,64,127
61839,note_on,0,0,0,,10,,,45,127
62135,note_off,296,0,0,,8,,,68,127
62136,note_off,1,0,0,,2,,,62,127
62152,note_off,16,0,0,,12,,,59,127
62162,note_on,10,0,0,,10,,,69,127
62162,note_on,0,0,0,,10,,,57,127
62162,note_on,0,0,0,,1,,,61,127
62399,note_off,237,0,0,,4,,,64,127
62680,note_off,281,0,0,,10,,,45,127
62693,note_off,13,0,0,,1,,,61,127
62708,note_off,15,0,0,,10,,,69,127
62750,note_off,42,0,0,,10,,,57,127
62819,note_on,69,0,0,,10,,,69,127
63099,note_off,280,0,0,,10,,,69,127
63100,note_on,1,0,0,,4,,,76,127
63380,note_off,280,0,0,,4,,,76,127
63381,note_on,1,0,0,,4,,,76,127
63661,note_off,280,0,0,,4,,,76,127
63662,note_on,1,0,0,,4,,,76,127
63662,note_on,0,0,0,,4,,,64,127
63801,note_off,139,0,0,,4,,,76,127
63802,note_on,1,0,0,,2,,,74,127
63941,note_off,139,0,0,,2,,,74,127
63941,note_off,0,0,0,,4,,,64,127
63942,note_on,1,0,0,,1,,,73,127
63942,note_on,0,0,0,,10,,,69,127
64081,note_off,139,0,0,,1,,,73,127
64082,note_on,1,0,0,,12,,,71,127
64221,note_off,139,0,0,,12,,,71,127
64221,note_off,0,0,0,,10,,,69,127
64222,note_on,1,0,0,,1,,,73,127
64222,note_on,0,0,0,,10,,,69,127
64502,note_off,280,0,0,,10,,,69,127
64502,note_off,0,0,0,,1,,,73,127
64515,note_on,13,0,0,,4,,,76,127
64515,note_on,0,0,0,,10,,,69,127
64654,note_off,139,0,0,,10,,,69,127
64655,note_on,1,0,0,,7,,,67,127
64794,note_off,139,0,0,,7,,,67,127
64794,note_off,0,0,0,,4,,,76,127
64795,note_on,1,0,0,,10,,,81,127
64795,note_on,0,0,0,,6,,,66,127
64934,note_off,139,0,0,,6,,,66,127
64935,note_on,1,0,0,,4,,,64,127
65074,note_off,139,0,0,,4,,,64,127
65074,note_off,0,0,0,,10,,,81,127
65075,note_on,1,0,0,,10,,,81,127
65075,note_on,0,0,0,,6,,,66,127
65355,note_off,280,0,0,,6,,,66,127
65355,note_off,0,0,0,,10,,,81,127
65356,note_on,1,0,0,,10,,,81,127
65356,note_on,0,0,0,,10,,,69,127
65495,note_off,139,0,0,,10,,,81,127
65496,note_on,1,0,0,,7,,,79,127
65635,note_off,139,0,0,,7,,,79,127
65635,note_off,0,0,0,,10,,,69,127
65636,note_on,1,0,0,,6,,,78,127
65636,note_on,0,0,0,,2,,,74,127
65775,note_off,139,0,0,,6,,,78,127
65776,note_on,1,0,0,,4,,,76,127
65915,note_off,139,0,0,,4,,,76,127
65915,note_off,0,0,0,,2,,,74,127
65916,note_on,1,0,0,,6,,,78,127
65916,note_on,0,0,0,,2,,,74,127
66196,note_off,280,0,0,,2,,,74,127
66196,note_off,0,0,0,,6,,,78,127
66209,note_on,13,0,0,,6,,,78,127
66209,note_on,0,0,0,,2,,,74,127
66348,note_off,139,0,0,,2,,,74,127
66349,note_on,1,0,0,,1,,,73,127
66488,note_off,139,0,0,,1,,,73,127
66488,note_off,0,0,0,,6,,,78,127
66489,note_on,1,0,0,,12,,,83,127
66489,note_on,0,0,0,,12,,,71,127
66628,note_off,139,0,0,,12,,,71,127
66629,note_on,1,0,0,,10,,,69,127
66768,note_off,139,0,0,,10,,,69,127
66769,note_on,1,0,0,,7,,,67,127
66908,note_off,139,0,0,,7,,,67,127
66908,note_off,0,0,0,,12,,,83,127
66909,note_on,1,0,0,,10,,,81,127
66909,note_on,0,0,0,,6,,,66,127
67048,note_off,139,0,0,,6,,,66,127
67048,note_off,0,0,0,,10,,,81,127
67049,note_on,1,0,0,,7,,,79,127
67049,note_on,0,0,0,,4,,,64,127
67188,note_off,139,0,0,,4,,,64,127
67188,note_off,0,0,0,,7,,,79,127
67189,note_on,1,0,0,,6,,,78,127
67189,note_on,0,0,0,,2,,,62,127
67328,note_off,139,0,0,,2,,,62,127
67328,note_off,0,0,0,,6,,,78,127
67329,note_on,1,0,0,,4,,,76,127
67329,note_on,0,0,0,,1,,,61,127
67468,note_off,139,0,0,,1,,,61,127
67468,note_off,0,0,0,,4,,,76,127
67469,note_on,1,0,0,,2,,,74,127
67469,note_on,0,0,0,,12,,,59,127
67608,note_off,139,0,0,,12,,,59,127
67608,note_off,0,0,0,,2,,,74,127
67609,note_on,1,0,0,,1,,,73,127
67609,note_on,0,0,0,,10,,,57,127
67748,note_off,139,0,0,,10,,,57,127
67748,note_off,0,0,0,,1,,,73,127
67749,note_on,1,0,0,,12,,,71,127
67749,note_on,0,0,0,,7,,,55,127
67888,note_off,139,0,0,,7,,,55,127
67888,note_off,0,0,0,,12,,,71,127
67889,note_on,1,0,0,,10,,,69,127
67889,note_on,0,0,0,,6,,,54,127
68029,note_on,140,0,0,,10,,,81,127
68029,note_on,0,0,0,,2,,,62,127
68064,note_off,35,0,0,,6,,,54,127
68168,note_off,104,0,0,,10,,,69,127
68169,note_on,1,0,0,,1,,,73,127
68169,note_on,0,0,0,,4,,,52,127
68204,note_off,35,0,0,,2,,,62,127
68308,note_off,104,0,0,,10,,,81,127
68309,note_on,1,0,0,,7,,,79,127
68309,note_on,0,0,0,,1,,,61,127
68344,note_off,35,0,0,,4,,,52,127
68448,note_off,104,0,0,,1,,,73,127
68449,note_on,1,0,0,,2,,,74,127
68449,note_on,0,0,0,,2,,,50,127
68484,note_off,35,0,0,,1,,,61,127
68588,note_off,104,0,0,,7,,,79,127
68589,note_on,1,0,0,,6,,,78,127
68589,note_on,0,0,0,,2,,,62,127
68727,note_off,138,0,0,,2,,,50,127
68728,note_off,1,0,0,,2,,,62,127
68728,note_off,0,0,0,,2,,,74,127
68729,note_on,1,0,0,,10,,,45,127
69003,note_off,274,0,0,,6,,,78,127
69016,note_on,13,0,0,,4,,,76,127
69016,note_on,0,0,0,,6,,,78,127
69154,note_on,138,0,0,,2,,,74,127
69155,note_off,1,0,0,,6,,,78,127
69155,note_off,0,0,0,,4,,,76,127
69291,note_on,136,0,0,,4,,,76,127
69292,note_off,1,0,0,,2,,,74,127
69513,note_off,221,0,0,,10,,,45,127
69570,note_off,57,0,0,,4,,,76,127
69595,note_on,25,0,0,,7,,,55,127
69595,note_on,0,0,0,,12,,,83,127
69734,note_off,139,0,0,,12,,,83,127
69734,note_off,0,0,0,,7,,,55,127
69735,note_on,1,0,0,,12,,,59,127
69735,note_on,0,0,0,,7,,,79,127
69874,note_off,139,0,0,,7,,,79,127
69874,note_off,0,0,0,,12,,,59,127
69875,note_on,1,0,0,,2,,,62,127
69875,note_on,0,0,0,,2,,,74,127
70014,note_off,139,0,0,,2,,,74,127
70014,note_off,0,0,0,,2,,,62,127
70015,note_on,1,0,0,,7,,,67,127
70015,note_on,0,0,0,,12,,,71,127
70154,note_off,139,0,0,,12,,,71,127
70154,note_off,0,0,0,,7,,,67,127
70155,note_on,1,0,0,,12,,,83,127
70155,note_on,0,0,0,,7,,,67,127
70411,note_off,256,0,0,,7,,,67,127
70411,note_off,0,0,0,,12,,,83,127
70436,note_on,25,0,0,,6,,,54,127
70436,note_on,0,0,0,,10,,,81,127
70575,note_off,139,0,0,,10,,,81,127
70575,note_off,0,0,0,,6,,,54,127
70576,note_on,1,0,0,,10,,,57,127
70576,note_on,0,0,0,,6,,,78,127
70715,note_off,139,0,0,,6,,,78,127
70715,note_off,0,0,0,,10,,,57,127
70716,note_on,1,0,0,,2,,,62,127
70716,note_on,0,0,0,,2,,,74,127
70855,note_off,139,0,0,,2,,,74,127
70855,note_off,0,0,0,,2,,,62,127
70856,note_on,1,0,0,,6,,,66,127
70856,note_on,0,0,0,,10,,,69,127
70995,note_off,139,0,0,,10,,,69,127
70995,note_off,0,0,0,,6,,,66,127
70996,note_on,1,0,0,,10,,,81,127
70996,note_on,0,0,0,,6,,,66,127
71252,note_off,256,0,0,,6,,,66,127
71252,note_off,0,0,0,,10,,,81,127
71277,note_on,25,0,0,,4,,,52,127
71277,note_on,0,0,0,,7,,,79,127
71416,note_off,139,0,0,,7,,,79,127
71416,note_off,0,0,0,,4,,,52,127
71417,note_on,1,0,0,,7,,,55,127
71417,note_on,0,0,0,,4,,,76,127
71556,note_off,139,0,0,,4,,,76,127
71556,note_off,0,0,0,,7,,,55,127
71557,note_on,1,0,0,,1,,,61,127
71557,note_on,0,0,0,,1,,,73,127
71696,note_off,139,0,0,,1,,,73,127
71696,note_off,0,0,0,,1,,,61,127
71697,note_on,1,0,0,,4,,,64,127
71697,note_on,0,0,0,,7,,,67,127
71836,note_off,139,0,0,,7,,,67,127
71836,note_off,0,0,0,,4,,,64,127
71837,note_on,1,0,0,,7,,,79,127
71837,note_on,0,0,0,,4,,,64,127
72093,note_off,256,0,0,,4,,,64,127
72093,note_off,0,0,0,,7,,,79,127
72118,note_on,25,0,0,,2,,,50,127
72118,note_on,0,0,0,,6,,,78,127
72257,note_off,139,0,0,,6,,,78,127
72257,note_off,0,0,0,,2,,,50,127
72258,note_on,1,0,0,,6,,,54,127
72258,note_on,0,0,0,,2,,,74,127
72397,note_off,139,0,0,,2,,,74,127
72397,note_off,0,0,0,,6,,,54,127
72398,note_on,1,0,0,,10,,,57,127
72398,note_on,0,0,0,,10,,,69,127
72537,note_off,139,0,0,,10,,,69,127
72537,note_off,0,0,0,,10,,,57,127
72538,note_on,1,0,0,,2,,,62,127
72538,note_on,0,0,0,,6,,,66,127
72677,note_off,139,0,0,,6,,,66,127
72677,note_off,0,0,0,,2,,,62,127
72678,note_on,1,0,0,,2,,,62,127
72678,note_on,0,0,0,,6,,,78,127
72958,note_off,280,0,0,,6,,,78,127
72958,note_off,0,0,0,,2,,,62,127
72983,note_on,25,0,0,,6,,,66,127
72983,note_on,0,0,0,,10,,,69,127
72983,note_on,0,0,0,,2,,,62,127
72983,note_on,0,0,0,,6,,,78,127
73052,note_off,69,0,0,,6,,,78,127
73053,note_on,1,0,0,,7,,,79,127
73122,note_off,69,0,0,,7,,,79,127
73123,note_on,1,0,0,,10,,,81,127
73262,note_off,139,0,0,,10,,,81,127
73262,note_off,0,0,0,,2,,,62,127
73262,note_off,0,0,0,,10,,,69,127
73262,note_off,0,0,0,,6,,,66,127
73263,note_on,1,0,0,,7,,,79,127
73263,note_on,0,0,0,,6,,,66,127
73263,note_on,0,0,0,,10,,,69,127
73263,note_on,0,0,0,,2,,,62,127
73402,note_off,139,0,0,,7,,,79,127
73403,note_on,1,0,0,,6,,,78,127
73542,note_off,139,0,0,,6,,,78,127
73542,note_off,0,0,0,,2,,,62,127
73542,note_off,0,0,0,,10,,,69,127
73542,note_off,0,0,0,,6,,,66,127
73543,note_on,1,0,0,,4,,,76,127
73543,note_on,0,0,0,,10,,,69,127
73543,note_on,0,0,0,,2,,,62,127
73543,note_on,0,0,0,,6,,,66,127
73682,note_off,139,0,0,,4,,,76,127
73683,note_on,1,0,0,,2,,,74,127
73822,note_off,139,0,0,,2,,,74,127
73822,note_off,0,0,0,,6,,,66,127
73822,note_off,0,0,0,,2,,,62,127
73822,note_off,0,0,0,,10,,,69,127
73823,note_on,1,0,0,,11,,,82,127
73823,note_on,0,0,0,,12,,,71,127
73823,note_on,0,0,0,,7,,,67,127
73962,note_off,139,0,0,,11,,,82,127
73963,note_on,1,0,0,,12,,,83,127
74102,note_off,139,0,0,,12,,,83,127
74102,note_off,0,0,0,,7,,,67,127
74102,note_off,0,0,0,,12,,,71,127
74103,note_on,1,0,0,,3,,,75,127
74103,note_on,0,0,0,,7,,,67,127
74103,note_on,0,0,0,,12,,,71,127
74242,note_off,139,0,0,,3,,,75,127
74243,note_on,1,0,0,,4,,,76,127
74382,note_off,139,0,0,,4,,,76,127
74382,note_off,0,0,0,,12,,,71,127
74382,note_off,0,0,0,,7,,,67,127
74383,note_on,1,0,0,,11,,,70,127
74383,note_on,0,0,0,,7,,,67,127
74522,note_off,139,0,0,,11,,,70,127
74529,note_on,7,0,0,,12,,,71,127
74662,note_off,133,0,0,,7,,,67,127
74668,note_off,6,0,0,,12,,,71,127
74675,note_on,7,0,0,,4,,,76,127
74675,note_on,0,0,0,,4,,,64,127
74675,note_on,0,0,0,,7,,,67,127
74675,note_on,0,0,0,,1,,,61,127
74744,note_off,69,0,0,,4,,,76,127
74745,note_on,1,0,0,,6,,,78,127
74814,note_off,69,0,0,,6,,,78,127
74815,note_on,1,0,0,,7,,,79,127
74954,note_off,139,0,0,,7,,,79,127
74954,note_off,0,0,0,,1,,,61,127
74954,note_off,0,0,0,,7,,,67,127
74954,note_off,0,0,0,,4,,,64,127
74955,note_on,1,0,0,,6,,,78,127
74955,note_on,0,0,0,,7,,,67,127
74955,note_on,0,0,0,,1,,,61,127
74955,note_on,0,0,0,,4,,,64,127
75094,note_off,139,0,0,,6,,,78,127
75095,note_on,1,0,0,,4,,,76,127
75234,note_off,139,0,0,,4,,,76,127
75234,note_off,0,0,0,,4,,,64,127
75234,note_off,0,0,0,,1,,,61,127
75234,note_off,0,0,0,,7,,,67,127
75235,note_on,1,0,0,,2,,,74,127
75235,note_on,0,0,0,,7,,,67,127
75235,note_on,0,0,0,,1,,,61,127
75235,note_on,0,0,0,,4,,,64,127
75374,note_off,139,0,0,,2,,,74,127
75375,note_on,1,0,0,,1,,,73,127
75514,note_off,139,0,0,,1,,,73,127
75514,note_off,0,0,0,,4,,,64,127
75514,note_off,0,0,0,,1,,,61,127
75514,note_off,0,0,0,,7,,,67,127
75515,note_on,1,0,0,,8,,,80,127
75515,note_on,0,0,0,,10,,,69,127
75515,note_on,0,0,0,,6,,,66,127
75654,note_off,139,0,0,,8,,,80,127
75655,note_on,1,0,0,,10,,,81,127
75794,note_off,139,0,0,,10,,,81,127
75794,note_off,0,0,0,,6,,,66,127
75794,note_off,0,0,0,,10,,,69,127
75795,note_on,1,0,0,,1,,,73,127
75795,note_on,0,0,0,,10,,,69,127
75795,note_on,0,0,0,,6,,,66,127
75934,note_off,139,0,0,,1,,,73,127
75935,note_on,1,0,0,,2,,,74,127
76074,note_off,139,0,0,,2,,,74,127
76074,note_off,0,0,0,,6,,,66,127
76074,note_off,0,0,0,,10,,,69,127
76075,note_on,1,0,0,,8,,,68,127
76075,note_on,0,0,0,,6,,,66,127
76214,note_off,139,0,0,,8,,,68,127
76221,note_on,7,0,0,,10,,,69,127
76354,note_off,133,0,0,,6,,,66,127
76360,note_off,6,0,0,,10,,,69,127
76367,note_on,7,0,0,,2,,,62,127
76367,note_on,0,0,0,,6,,,66,127
76367,note_on,0,0,0,,12,,,59,127
76367,note_on,0,0,0,,2,,,74,127
76436,note_off,69,0,0,,2,,,74,127
76437,note_on,1,0,0,,4,,,76,127
76506,note_off,69,0,0,,4,,,76,127
76507,note_on,1,0,0,,6,,,78,127
76646,note_off,139,0,0,,6,,,78,127
76646,note_off,0,0,0,,12,,,59,127
76646,note_off,0,0,0,,6,,,66,127
76646,note_off,0,0,0,,2,,,62,127
76647,note_on,1,0,0,,4,,,76,127
76647,note_on,0,0,0,,6,,,66,127
76647,note_on,0,0,0,,12,,,59,127
76647,note_on,0,0,0,,2,,,62,127
76786,note_off,139,0,0,,4,,,76,127
76787,note_on,1,0,0,,2,,,74,127
76926,note_off,139,0,0,,2,,,74,127
76926,note_off,0,0,0,,2,,,62,127
76926,note_off,0,0,0,,12,,,59,127
76926,note_off,0,0,0,,6,,,66,127
76927,note_on,1,0,0,,1,,,73,127
76927,note_on,0,0,0,,12,,,59,127
76927,note_on,0,0,0,,2,,,62,127
76927,note_on,0,0,0,,6,,,66,127
77066,note_off,139,0,0,,1,,,73,127
77067,note_on,1,0,0,,12,,,71,127
77206,note_off,139,0,0,,12,,,71,127
77206,note_off,0,0,0,,6,,,66,127
77206,note_off,0,0,0,,2,,,62,127
77206,note_off,0,0,0,,12,,,59,127
77207,note_on,1,0,0,,6,,,78,127
77207,note_on,0,0,0,,4,,,64,127
77207,note_on,0,0,0,,7,,,67,127
77346,note_off,139,0,0,,6,,,78,127
77347,note_on,1,0,0,,7,,,79,127
77486,note_off,139,0,0,,7,,,79,127
77486,note_off,0,0,0,,7,,,67,127
77486,note_off,0,0,0,,4,,,64,127
77487,note_on,1,0,0,,12,,,71,127
77487,note_on,0,0,0,,7,,,67,127
77487,note_on,0,0,0,,4,,,64,127
77626,note_off,139,0,0,,12,,,71,127
77627,note_on,1,0,0,,1,,,73,127
77766,note_off,139,0,0,,1,,,73,127
77766,note_off,0,0,0,,4,,,64,127
77766,note_off,0,0,0,,7,,,67,127
77767,note_on,1,0,0,,6,,,66,127
77767,note_on,0,0,0,,4,,,64,127
77906,note_off,139,0,0,,6,,,66,127
77912,note_on,6,0,0,,7,,,67,127
78047,note_off,135,0,0,,4,,,64,127
78051,note_off,4,0,0,,7,,,67,127
78060,note_on,9,0,0,,10,,,57,127
78060,note_on,0,0,0,,7,,,67,127
78060,note_on,0,0,0,,4,,,64,127
78060,note_on,0,0,0,,1,,,73,127
78129,note_off,69,0,0,,1,,,73,127
78130,note_on,1,0,0,,2,,,74,127
78199,note_off,69,0,0,,2,,,74,127
78200,note_on,1,0,0,,4,,,76,127
78339,note_off,139,0,0,,4,,,76,127
78339,note_off,0,0,0,,4,,,64,127
78339,note_off,0,0,0,,7,,,67,127
78339,note_off,0,0,0,,10,,,57,127
78340,note_on,1,0,0,,10,,,57,127
78340,note_on,0,0,0,,4,,,64,127
78340,note_on,0,0,0,,7,,,67,127
78340,note_on,0,0,0,,11,,,70,127
78480,note_on,140,0,0,,7,,,79,127
78619,note_off,139,0,0,,7,,,79,127
78619,note_off,0,0,0,,7,,,67,127
78619,note_off,0,0,0,,4,,,64,127
78619,note_off,0,0,0,,10,,,57,127
78620,note_on,1,0,0,,10,,,57,127
78620,note_on,0,0,0,,7,,,67,127
78620,note_on,0,0,0,,4,,,64,127
78620,note_on,0,0,0,,5,,,77,127
78749,note_off,129,0,0,,11,,,70,127
78759,note_off,10,0,0,,5,,,77,127
78760,note_on,1,0,0,,4,,,76,127
78899,note_off,139,0,0,,4,,,76,127
78899,note_off,0,0,0,,4,,,64,127
78899,note_off,0,0,0,,7,,,67,127
78899,note_off,0,0,0,,10,,,57,127
78900,note_on,1,0,0,,5,,,65,127
78900,note_on,0,0,0,,2,,,62,127
78900,note_on,0,0,0,,10,,,57,127
78900,note_on,0,0,0,,2,,,74,127
78969,note_off,69,0,0,,2,,,74,127
78970,note_on,1,0,0,,4,,,76,127
79039,note_off,69,0,0,,4,,,76,127
79040,note_on,1,0,0,,5,,,77,127
79179,note_off,139,0,0,,5,,,77,127
79179,note_off,0,0,0,,10,,,57,127
79179,note_off,0,0,0,,2,,,62,127
79179,note_off,0,0,0,,5,,,65,127
79180,note_on,1,0,0,,10,,,57,127
79180,note_on,0,0,0,,5,,,65,127
79180,note_on,0,0,0,,2,,,62,127
79180,note_on,0,0,0,,10,,,69,127
79320,note_on,140,0,0,,5,,,77,127
79459,note_off,139,0,0,,5,,,77,127
79459,note_off,0,0,0,,2,,,62,127
79459,note_off,0,0,0,,5,,,65,127
79459,note_off,0,0,0,,10,,,57,127
79460,note_on,1,0,0,,2,,,62,127
79460,note_on,0,0,0,,10,,,57,127
79460,note_on,0,0,0,,5,,,65,127
79460,note_on,0,0,0,,4,,,76,127
79599,note_off,139,0,0,,4,,,76,127
79600,note_off,1,0,0,,10,,,69,127
79600,note_on,0,0,0,,2,,,74,127
79739,note_off,139,0,0,,2,,,74,127
79739,note_off,0,0,0,,5,,,65,127
79739,note_off,0,0,0,,10,,,57,127
79739,note_off,0,0,0,,2,,,62,127
79752,note_on,13,0,0,,10,,,57,127
79752,note_on,0,0,0,,7,,,67,127
79752,note_on,0,0,0,,4,,,64,127
79752,note_on,0,0,0,,1,,,73,127
79821,note_off,69,0,0,,1,,,73,127
79822,note_on,1,0,0,,2,,,74,127
79891,note_off,69,0,0,,2,,,74,127
79892,note_on,1,0,0,,4,,,76,127
80031,note_off,139,0,0,,4,,,76,127
80031,note_off,0,0,0,,4,,,64,127
80031,note_off,0,0,0,,7,,,67,127
80031,note_off,0,0,0,,10,,,57,127
80032,note_on,1,0,0,,10,,,57,127
80032,note_on,0,0,0,,7,,,67,127
80032,note_on,0,0,0,,4,,,64,127
80032,note_on,0,0,0,,11,,,70,127
80172,note_on,140,0,0,,7,,,79,127
80236,note_off,64,0,0,,11,,,70,127
80311,note_off,75,0,0,,7,,,79,127
80311,note_off,0,0,0,,4,,,64,127
80311,note_off,0,0,0,,7,,,67,127
80311,note_off,0,0,0,,10,,,57,127
80312,note_on,1,0,0,,4,,,64,127
80312,note_on,0,0,0,,10,,,57,127
80312,note_on,0,0,0,,7,,,67,127
80312,note_on,0,0,0,,5,,,77,127
80451,note_off,139,0,0,,5,,,77,127
80452,note_on,1,0,0,,4,,,76,127
80591,note_off,139,0,0,,4,,,76,127
80591,note_off,0,0,0,,7,,,67,127
80591,note_off,0,0,0,,10,,,57,127
80591,note_off,0,0,0,,4,,,64,127
80592,note_on,1,0,0,,5,,,65,127
80592,note_on,0,0,0,,2,,,62,127
80592,note_on,0,0,0,,10,,,57,127
80592,note_on,0,0,0,,2,,,74,127
80661,note_off,69,0,0,,2,,,74,127
80662,note_on,1,0,0,,4,,,76,127
80731,note_off,69,0,0,,4,,,76,127
80732,note_on,1,0,0,,5,,,77,127
80871,note_off,139,0,0,,5,,,77,127
80871,note_off,0,0,0,,10,,,57,127
80871,note_off,0,0,0,,2,,,62,127
80871,note_off,0,0,0,,5,,,65,127
80872,note_on,1,0,0,,10,,,57,127
80872,note_on,0,0,0,,5,,,65,127
80872,note_on,0,0,0,,2,,,62,127
80872,note_on,0,0,0,,10,,,69,127
81012,note_on,140,0,0,,5,,,77,127
81076,note_off,64,0,0,,10,,,69,127
81151,note_off,75,0,0,,5,,,77,127
81151,note_off,0,0,0,,2,,,62,127
81151,note_off,0,0,0,,5,,,65,127
81151,note_off,0,0,0,,10,,,57,127
81152,note_on,1,0,0,,10,,,57,127
81152,note_on,0,0,0,,2,,,62,127
81152,note_on,0,0,0,,5,,,65,127
81152,note_on,0,0,0,,4,,,76,127
81291,note_off,139,0,0,,4,,,76,127
81292,note_on,1,0,0,,2,,,74,127
81431,note_off,139,0,0,,2,,,74,127
81431,note_off,0,0,0,,5,,,65,127
81431,note_off,0,0,0,,2,,,62,127
81431,note_off,0,0,0,,10,,,57,127
81444,note_on,13,0,0,,7,,,55,127
81444,note_on,0,0,0,,2,,,62,127
81444,note_on,0,0,0,,11,,,58,127
81444,note_on,0,0,0,,4,,,64,127
81444,note_on,0,0,0,,7,,,79,127
81513,note_off,69,0,0,,7,,,79,127
81514,note_on,1,0,0,,10,,,81,127
81583,note_off,69,0,0,,10,,,81,127
81584,note_on,1,0,0,,11,,,82,127
81723,note_off,139,0,0,,11,,,82,127
81723,note_off,0,0,0,,4,,,64,127
81723,note_off,0,0,0,,11,,,58,127
81723,note_off,0,0,0,,2,,,62,127
81723,note_off,0,0,0,,7,,,55,127
81724,note_on,1,0,0,,7,,,55,127
81724,note_on,0,0,0,,11,,,58,127
81724,note_on,0,0,0,,2,,,62,127
81724,note_on,0,0,0,,4,,,64,127
81724,note_on,0,0,0,,4,,,76,127
81863,note_off,139,0,0,,4,,,76,127
81864,note_on,1,0,0,,2,,,74,127
82003,note_off,139,0,0,,2,,,74,127
82003,note_off,0,0,0,,4,,,64,127
82003,note_off,0,0,0,,2,,,62,127
82003,note_off,0,0,0,,11,,,58,127
82003,note_off,0,0,0,,7,,,55,127
82004,note_on,1,0,0,,4,,,64,127
82004,note_on,0,0,0,,11,,,58,127
82004,note_on,0,0,0,,7,,,55,127
82004,note_on,0,0,0,,7,,,67,127
82004,note_on,0,0,0,,1,,,73,127
82143,note_off,139,0,0,,1,,,73,127
82144,note_on,1,0,0,,2,,,74,127
82283,note_off,139,0,0,,2,,,74,127
82283,note_off,0,0,0,,7,,,67,127
82283,note_off,0,0,0,,7,,,55,127
82283,note_off,0,0,0,,11,,,58,127
82283,note_off,0,0,0,,4,,,64,127
82284,note_on,1,0,0,,10,,,57,127
82284,note_on,0,0,0,,4,,,76,127
82353,note_off,69,0,0,,4,,,76,127
82354,note_on,1,0,0,,2,,,74,127
82423,note_off,69,0,0,,2,,,74,127
82424,note_on,1,0,0,,4,,,76,127
82493,note_off,69,0,0,,4,,,76,127
82494,note_on,1,0,0,,2,,,74,127
82563,note_off,69,0,0,,2,,,74,127
82564,note_on,1,0,0,,10,,,45,127
82564,note_on,0,0,0,,4,,,76,127
82633,note_off,69,0,0,,4,,,76,127
82634,note_on,1,0,0,,2,,,74,127
82703,note_off,69,0,0,,2,,,74,127
82704,note_on,1,0,0,,4,,,76,127
82773,note_off,69,0,0,,4,,,76,127
82774,note_on,1,0,0,,2,,,74,127
82843,note_off,69,0,0,,2,,,74,127
82844,note_on,1,0,0,,1,,,73,127
83124,note_off,280,0,0,,1,,,73,127
83124,note_off,0,0,0,,10,,,45,127
83124,note_off,0,0,0,,10,,,57,127
83149,note_on,25,0,0,,1,,,73,127
83149,note_on,0,0,0,,10,,,69,127
83243,note_on,94,0,0,,4,,,64,127
83297,note_off,54,0,0,,10,,,69,127
83337,note_on,40,0,0,,10,,,57,127
83391,note_off,54,0,0,,4,,,64,127
83429,note_off,38,0,0,,1,,,73,127
83430,note_on,1,0,0,,2,,,74,127
83430,note_on,0,0,0,,10,,,69,127
83484,note_off,54,0,0,,10,,,57,127
83524,note_on,40,0,0,,4,,,64,127
83578,note_off,54,0,0,,10,,,69,127
83618,note_on,40,0,0,,10,,,57,127
83672,note_off,54,0,0,,4,,,64,127
83710,note_off,38,0,0,,2,,,74,127
83711,note_on,1,0,0,,4,,,76,127
83711,note_on,0,0,0,,10,,,69,127
83765,note_off,54,0,0,,10,,,57,127
83805,note_on,40,0,0,,4,,,64,127
83859,note_off,54,0,0,,10,,,69,127
83899,note_on,40,0,0,,10,,,57,127
83953,note_off,54,0,0,,4,,,64,127
83991,note_off,38,0,0,,4,,,76,127
83992,note_on,1,0,0,,11,,,70,127
83992,note_on,0,0,0,,7,,,67,127
84046,note_off,54,0,0,,10,,,57,127
84086,note_on,40,0,0,,2,,,62,127
84140,note_off,54,0,0,,7,,,67,127
84180,note_on,40,0,0,,7,,,55,127
84234,note_off,54,0,0,,2,,,62,127
84272,note_off,38,0,0,,11,,,70,127
84273,note_on,1,0,0,,11,,,82,127
84273,note_on,0,0,0,,7,,,67,127
84327,note_off,54,0,0,,7,,,55,127
84367,note_on,40,0,0,,2,,,62,127
84421,note_off,54,0,0,,7,,,67,127
84461,note_on,40,0,0,,7,,,55,127
84515,note_off,54,0,0,,2,,,62,127
84553,note_off,38,0,0,,11,,,82,127
84554,note_on,1,0,0,,7,,,79,127
84554,note_on,0,0,0,,7,,,67,127
84608,note_off,54,0,0,,7,,,55,127
84648,note_on,40,0,0,,2,,,62,127
84702,note_off,54,0,0,,7,,,67,127
84742,note_on,40,0,0,,7,,,55,127
84796,note_off,54,0,0,,2,,,62,127
84834,note_off,38,0,0,,7,,,79,127
84835,note_on,1,0,0,,4,,,76,127
84835,note_on,0,0,0,,7,,,67,127
84889,note_off,54,0,0,,7,,,55,127
84929,note_on,40,0,0,,2,,,62,127
84983,note_off,54,0,0,,7,,,67,127
85023,note_on,40,0,0,,7,,,55,127
85077,note_off,54,0,0,,2,,,62,127
85115,note_off,38,0,0,,4,,,76,127
85116,note_on,1,0,0,,7,,,79,127
85116,note_on,0,0,0,,7,,,67,127
85170,note_off,54,0,0,,7,,,55,127
85210,note_on,40,0,0,,2,,,62,127
85264,note_off,54,0,0,,7,,,67,127
85304,note_on,40,0,0,,7,,,55,127
85358,note_off,54,0,0,,2,,,62,127
85396,note_off,38,0,0,,7,,,79,127
85397,note_on,1,0,0,,2,,,74,127
85397,note_on,0,0,0,,7,,,67,127
85451,note_off,54,0,0,,7,,,55,127
85491,note_on,40,0,0,,2,,,62,127
85545,note_off,54,0,0,,7,,,67,127
85585,note_on,40,0,0,,7,,,55,127
85639,note_off,54,0,0,,2,,,62,127
85677,note_off,38,0,0,,2,,,74,127
85678,note_on,1,0,0,,1,,,73,127
85678,note_on,0,0,0,,7,,,67,127
85732,note_off,54,0,0,,7,,,55,127
85772,note_on,40,0,0,,4,,,64,127
85826,note_off,54,0,0,,7,,,67,127
85866,note_on,40,0,0,,10,,,57,127
85920,note_off,54,0,0,,4,,,64,127
85958,note_off,38,0,0,,1,,,73,127
85959,note_on,1,0,0,,2,,,74,127
85959,note_on,0,0,0,,7,,,67,127
86013,note_off,54,0,0,,10,,,57,127
86053,note_on,40,0,0,,4,,,64,127
86107,note_off,54,0,0,,7,,,67,127
86147,note_on,40,0,0,,10,,,57,127
86201,note_off,54,0,0,,4,,,64,127
86239,note_off,38,0,0,,2,,,74,127
86240,note_on,1,0,0,,4,,,76,127
86240,note_on,0,0,0,,7,,,67,127
86294,note_off,54,0,0,,10,,,57,127
86334,note_on,40,0,0,,4,,,64,127
86388,note_off,54,0,0,,7,,,67,127
86428,note_on,40,0,0,,10,,,57,127
86482,note_off,54,0,0,,4,,,64,127
86520,note_off,38,0,0,,4,,,76,127
86533,note_on,13,0,0,,1,,,73,127
86533,note_on,0,0,0,,7,,,67,127
86575,note_off,42,0,0,,10,,,57,127
86626,note_on,51,0,0,,4,,,64,127
86680,note_off,54,0,0,,7,,,67,127
86720,note_on,40,0,0,,10,,,57,127
86774,note_off,54,0,0,,4,,,64,127
86812,note_off,38,0,0,,1,,,73,127
86813,note_on,1,0,0,,2,,,74,127
86813,note_on,0,0,0,,7,,,67,127
86867,note_off,54,0,0,,10,,,57,127
86907,note_on,40,0,0,,4,,,64,127
86961,note_off,54,0,0,,7,,,67,127
87001,note_on,40,0,0,,10,,,57,127
87055,note_off,54,0,0,,4,,,64,127
87093,note_off,38,0,0,,2,,,74,127
87094,note_on,1,0,0,,4,,,76,127
87094,note_on,0,0,0,,7,,,67,127
87148,note_off,54,0,0,,10,,,57,127
87188,note_on,40,0,0,,4,,,64,127
87242,note_off,54,0,0,,7,,,67,127
87282,note_on,40,0,0,,10,,,57,127
87336,note_off,54,0,0,,4,,,64,127
87374,note_off,38,0,0,,4,,,76,127
87375,note_on,1,0,0,,11,,,70,127
87375,note_on,0,0,0,,7,,,67,127
87429,note_off,54,0,0,,10,,,57,127
87469,note_on,40,0,0,,2,,,62,127
87523,note_off,54,0,0,,7,,,67,127
87563,note_on,40,0,0,,7,,,55,127
87617,note_off,54,0,0,,2,,,62,127
87655,note_off,38,0,0,,11,,,70,127
87656,note_on,1,0,0,,11,,,82,127
87656,note_on,0,0,0,,7,,,67,127
87710,note_off,54,0,0,,7,,,55,127
87750,note_on,40,0,0,,2,,,62,127
87804,note_off,54,0,0,,7,,,67,127
87844,note_on,40,0,0,,7,,,55,127
87898,note_off,54,0,0,,2,,,62,127
87936,note_off,38,0,0,,11,,,82,127
87937,note_on,1,0,0,,7,,,79,127
87937,note_on,0,0,0,,7,,,67,127
87991,note_off,54,0,0,,7,,,55,127
88031,note_on,40,0,0,,2,,,62,127
88085,note_off,54,0,0,,7,,,67,127
88125,note_on,40,0,0,,7,,,55,127
88179,note_off,54,0,0,,2,,,62,127
88217,note_off,38,0,0,,7,,,79,127
88218,note_on,1,0,0,,4,,,76,127
88218,note_on,0,0,0,,7,,,67,127
88272,note_off,54,0,0,,7,,,55,127
88312,note_on,40,0,0,,2,,,62,127
88366,note_off,54,0,0,,7,,,67,127
88406,note_on,40,0,0,,7,,,55,127
88460,note_off,54,0,0,,2,,,62,127
88498,note_off,38,0,0,,4,,,76,127
88499,note_on,1,0,0,,7,,,79,127
88499,note_on,0,0,0,,7,,,67,127
88553,note_off,54,0,0,,7,,,55,127
88593,note_on,40,0,0,,2,,,62,127
88647,note_off,54,0,0,,7,,,67,127
88687,note_on,40,0,0,,7,,,55,127
88741,note_off,54,0,0,,2,,,62,127
88779,note_off,38,0,0,,7,,,79,127
88780,note_on,1,0,0,,2,,,74,127
88780,note_on,0,0,0,,7,,,67,127
88834,note_off,54,0,0,,7,,,55,127
88874,note_on,40,0,0,,2,,,62,127
88928,note_off,54,0,0,,7,,,67,127
88968,note_on,40,0,0,,7,,,55,127
89022,note_off,54,0,0,,2,,,62,127
89060,note_off,38,0,0,,2,,,74,127
89061,note_on,1,0,0,,1,,,73,127
89061,note_on,0,0,0,,7,,,67,127
89115,note_off,54,0,0,,7,,,55,127
89155,note_on,40,0,0,,4,,,64,127
89209,note_off,54,0,0,,7,,,67,127
89249,note_on,40,0,0,,10,,,57,127
89303,note_off,54,0,0,,4,,,64,127
89341,note_off,38,0,0,,1,,,73,127
89342,note_on,1,0,0,,2,,,74,127
89342,note_on,0,0,0,,7,,,67,127
89396,note_off,54,0,0,,10,,,57,127
89436,note_on,40,0,0,,4,,,64,127
89490,note_off,54,0,0,,7,,,67,127
89530,note_on,40,0,0,,10,,,57,127
89584,note_off,54,0,0,,4,,,64,127
89622,note_off,38,0,0,,2,,,74,127
89623,note_on,1,0,0,,4,,,76,127
89623,note_on,0,0,0,,7,,,67,127
89677,note_off,54,0,0,,10,,,57,127
89717,note_on,40,0,0,,4,,,64,127
89771,note_off,54,0,0,,7,,,67,127
89811,note_on,40,0,0,,10,,,57,127
89834,note_off,23,0,0,,4,,,64,127
89834,note_off,0,0,0,,4,,,76,127
89922,note_on,88,0,0,,5,,,65,127
89922,note_on,0,0,0,,0,,,72,127
89928,note_off,6,0,0,,10,,,57,127
90016,note_on,88,0,0,,0,,,60,127
90070,note_off,54,0,0,,5,,,65,127
90110,note_on,40,0,0,,10,,,57,127
90164,note_off,54,0,0,,0,,,60,127
90202,note_off,38,0,0,,0,,,72,127
90203,note_on,1,0,0,,5,,,65,127
90203,note_on,0,0,0,,10,,,81,127
90257,note_off,54,0,0,,10,,,57,127
90297,note_on,40,0,0,,0,,,60,127
90351,note_off,54,0,0,,5,,,65,127
90391,note_on,40,0,0,,10,,,57,127
90445,note_off,54,0,0,,0,,,60,127
90483,note_off,38,0,0,,10,,,81,127
90484,note_on,1,0,0,,5,,,65,127
90484,note_on,0,0,0,,5,,,77,127
90538,note_off,54,0,0,,10,,,57,127
90578,note_on,40,0,0,,0,,,60,127
90632,note_off,54,0,0,,5,,,65,127
90672,note_on,40,0,0,,10,,,57,127
90726,note_off,54,0,0,,0,,,60,127
90764,note_off,38,0,0,,5,,,77,127
90765,note_on,1,0,0,,7,,,67,127
90765,note_on,0,0,0,,7,,,79,127
90819,note_off,54,0,0,,10,,,57,127
90859,note_on,40,0,0,,2,,,62,127
90913,note_off,54,0,0,,7,,,67,127
90953,note_on,40,0,0,,11,,,58,127
91007,note_off,54,0,0,,2,,,62,127
91045,note_off,38,0,0,,7,,,79,127
91046,note_on,1,0,0,,7,,,67,127
91046,note_on,0,0,0,,2,,,74,127
91100,note_off,54,0,0,,11,,,58,127
91140,note_on,40,0,0,,2,,,62,127
91194,note_off,54,0,0,,7,,,67,127
91234,note_on,40,0,0,,11,,,58,127
91288,note_off,54,0,0,,2,,,62,127
91326,note_off,38,0,0,,2,,,74,127
91327,note_on,1,0,0,,7,,,67,127
91327,note_on,0,0,0,,11,,,70,127
91381,note_off,54,0,0,,11,,,58,127
91421,note_on,40,0,0,,2,,,62,127
91475,note_off,54,0,0,,7,,,67,127
91515,note_on,40,0,0,,11,,,58,127
91569,note_off,54,0,0,,2,,,62,127
91607,note_off,38,0,0,,11,,,70,127
91620,note_on,13,0,0,,0,,,72,127
91620,note_on,0,0,0,,5,,,65,127
91662,note_off,42,0,0,,11,,,58,127
91713,note_on,51,0,0,,0,,,60,127
91767,note_off,54,0,0,,5,,,65,127
91807,note_on,40,0,0,,10,,,57,127
91861,note_off,54,0,0,,0,,,60,127
91899,note_off,38,0,0,,0,,,72,127
91900,note_on,1,0,0,,5,,,65,127
91900,note_on,0,0,0,,10,,,81,127
91954,note_off,54,0,0,,10,,,57,127
91994,note_on,40,0,0,,0,,,60,127
92048,note_off,54,0,0,,5,,,65,127
92088,note_on,40,0,0,,10,,,57,127
92142,note_off,54,0,0,,0,,,60,127
92180,note_off,38,0,0,,10,,,81,127
92181,note_on,1,0,0,,5,,,65,127
92181,note_on,0,0,0,,5,,,77,127
92235,note_off,54,0,0,,10,,,57,127
92275,note_on,40,0,0,,0,,,60,127
92329,note_off,54,0,0,,5,,,65,127
92369,note_on,40,0,0,,10,,,57,127
92423,note_off,54,0,0,,0,,,60,127
92461,note_off,38,0,0,,5,,,77,127
92462,note_on,1,0,0,,7,,,67,127
92462,note_on,0,0,0,,7,,,79,127
92516,note_off,54,0,0,,10,,,57,127
92556,note_on,40,0,0,,2,,,62,127
92610,note_off,54,0,0,,7,,,67,127
92650,note_on,40,0,0,,11,,,58,127
92704,note_off,54,0,0,,2,,,62,127
92742,note_off,38,0,0,,7,,,79,127
92743,note_on,1,0,0,,7,,,67,127
92743,note_on,0,0,0,,2,,,74,127
92797,note_off,54,0,0,,11,,,58,127
92837,note_on,40,0,0,,2,,,62,127
92891,note_off,54,0,0,,7,,,67,127
92931,note_on,40,0,0,,11,,,58,127
92985,note_off,54,0,0,,2,,,62,127
93023,note_off,38,0,0,,2,,,74,127
93024,note_on,1,0,0,,7,,,67,127
93024,note_on,0,0,0,,11,,,70,127
93078,note_off,54,0,0,,11,,,58,127
93118,note_on,40,0,0,,2,,,62,127
93172,note_off,54,0,0,,7,,,67,127
93212,note_on,40,0,0,,11,,,58,127
93266,note_off,54,0,0,,2,,,62,127
93304,note_off,38,0,0,,11,,,70,127
93322,note_on,18,0,0,,10,,,69,127
93322,note_on,0,0,0,,7,,,67,127
93360,note_off,38,0,0,,11,,,58,127
93416,note_on,56,0,0,,1,,,61,127
93470,note_off,54,0,0,,7,,,67,127
93510,note_on,40,0,0,,10,,,57,127
93564,note_off,54,0,0,,1,,,61,127
93602,note_off,38,0,0,,10,,,69,127
93603,note_on,1,0,0,,11,,,70,127
93603,note_on,0,0,0,,7,,,67,127
93657,note_off,54,0,0,,10,,,57,127
93697,note_on,40,0,0,,1,,,61,127
93751,note_off,54,0,0,,7,,,67,127
93791,note_on,40,0,0,,11,,,58,127
93845,note_off,54,0,0,,1,,,61,127
93883,note_off,38,0,0,,11,,,70,127
93884,note_on,1,0,0,,10,,,69,127
93884,note_on,0,0,0,,7,,,67,127
93938,note_off,54,0,0,,11,,,58,127
93978,note_on,40,0,0,,1,,,61,127
94032,note_off,54,0,0,,7,,,67,127
94072,note_on,40,0,0,,10,,,57,127
94126,note_off,54,0,0,,1,,,61,127
94164,note_off,38,0,0,,10,,,69,127
94165,note_on,1,0,0,,11,,,70,127
94165,note_on,0,0,0,,7,,,67,127
94219,note_off,54,0,0,,10,,,57,127
94259,note_on,40,0,0,,1,,,61,127
94313,note_off,54,0,0,,7,,,67,127
94353,note_on,40,0,0,,11,,,58,127
94407,note_off,54,0,0,,1,,,61,127
94445,note_off,38,0,0,,11,,,70,127
94446,note_on,1,0,0,,10,,,69,127
94446,note_on,0,0,0,,7,,,67,127
94500,note_off,54,0,0,,11,,,58,127
94540,note_on,40,0,0,,1,,,61,127
94594,note_off,54,0,0,,7,,,67,127
94634,note_on,40,0,0,,10,,,57,127
94688,note_off,54,0,0,,1,,,61,127
94726,note_off,38,0,0,,10,,,69,127
94727,note_on,1,0,0,,11,,,70,127
94727,note_on,0,0,0,,7,,,67,127
94781,note_off,54,0,0,,10,,,57,127
94821,note_on,40,0,0,,2,,,62,127
94875,note_off,54,0,0,,7,,,67,127
94915,note_on,40,0,0,,11,,,58,127
94969,note_off,54,0,0,,2,,,62,127
95007,note_off,38,0,0,,11,,,70,127
95008,note_on,1,0,0,,10,,,69,127
95008,note_on,0,0,0,,7,,,67,127
95062,note_off,54,0,0,,11,,,58,127
95102,note_on,40,0,0,,4,,,64,127
95156,note_off,54,0,0,,7,,,67,127
95196,note_on,40,0,0,,1,,,61,127
95250,note_off,54,0,0,,4,,,64,127
95288,note_off,38,0,0,,10,,,69,127
95289,note_on,1,0,0,,2,,,74,127
95289,note_on,0,0,0,,5,,,65,127
95343,note_off,54,0,0,,1,,,61,127
95383,note_on,40,0,0,,2,,,62,127
95437,note_off,54,0,0,,5,,,65,127
95477,note_on,40,0,0,,10,,,57,127
95531,note_off,54,0,0,,2,,,62,127
95569,note_off,38,0,0,,2,,,74,127
95570,note_on,1,0,0,,1,,,73,127
95570,note_on,0,0,0,,4,,,64,127
95624,note_off,54,0,0,,10,,,57,127
95664,note_on,40,0,0,,1,,,61,127
95718,note_off,54,0,0,,4,,,64,127
95758,note_on,40,0,0,,10,,,57,127
95812,note_off,54,0,0,,1,,,61,127
95850,note_off,38,0,0,,1,,,73,127
95851,note_on,1,0,0,,1,,,73,127
95851,note_on,0,0,0,,4,,,64,127
96131,note_off,280,0,0,,4,,,64,127
96144,note_on,13,0,0,,5,,,65,127
96412,note_off,268,0,0,,1,,,73,127
96413,note_on,1,0,0,,2,,,74,127
96635,note_off,222,0,0,,10,,,57,127
96704,note_off,69,0,0,,5,,,65,127
96729,note_on,25,0,0,,10,,,69,127
96729,note_on,0,0,0,,7,,,67,127
96764,note_off,35,0,0,,2,,,74,127
96823,note_on,59,0,0,,1,,,61,127
96877,note_off,54,0,0,,7,,,67,127
96917,note_on,40,0,0,,10,,,57,127
96971,note_off,54,0,0,,1,,,61,127
97009,note_off,38,0,0,,10,,,69,127
97010,note_on,1,0,0,,11,,,70,127
97010,note_on,0,0,0,,7,,,67,127
97064,note_off,54,0,0,,10,,,57,127
97104,note_on,40,0,0,,1,,,61,127
97158,note_off,54,0,0,,7,,,67,127
97198,note_on,40,0,0,,11,,,58,127
97252,note_off,54,0,0,,1,,,61,127
97290,note_off,38,0,0,,11,,,70,127
97291,note_on,1,0,0,,10,,,69,127
97291,note_on,0,0,0,,7,,,67,127
97345,note_off,54,0,0,,11,,,58,127
97385,note_on,40,0,0,,1,,,61,127
97439,note_off,54,0,0,,7,,,67,127
97479,note_on,40,0,0,,10,,,57,127
97533,note_off,54,0,0,,1,,,61,127
97571,note_off,38,0,0,,10,,,69,127
97572,note_on,1,0,0,,11,,,70,127
97572,note_on,0,0,0,,7,,,67,127
97626,note_off,54,0,0,,10,,,57,127
97666,note_on,40,0,0,,2,,,62,127
97720,note_off,54,0,0,,7,,,67,127
97760,note_on,40,0,0,,11,,,58,127
97814,note_off,54,0,0,,2,,,62,127
97852,note_off,38,0,0,,11,,,70,127
97853,note_on,1,0,0,,10,,,69,127
97853,note_on,0,0,0,,7,,,67,127
97907,note_off,54,0,0,,11,,,58,127
97947,note_on,40,0,0,,1,,,61,127
98001,note_off,54,0,0,,7,,,67,127
98041,note_on,40,0,0,,10,,,57,127
98095,note_off,54,0,0,,1,,,61,127
98133,note_off,38,0,0,,10,,,69,127
98134,note_on,1,0,0,,11,,,70,127
98134,note_on,0,0,0,,7,,,67,127
98188,note_off,54,0,0,,10,,,57,127
98228,note_on,40,0,0,,2,,,62,127
98282,note_off,54,0,0,,7,,,67,127
98322,note_on,40,0,0,,11,,,58,127
98376,note_off,54,0,0,,2,,,62,127
98414,note_off,38,0,0,,11,,,70,127
98415,note_on,1,0,0,,10,,,69,127
98415,note_on,0,0,0,,7,,,67,127
98469,note_off,54,0,0,,11,,,58,127
98509,note_on,40,0,0,,4,,,64,127
98563,note_off,54,0,0,,7,,,67,127
98603,note_on,40,0,0,,10,,,57,127
98657,note_off,54,0,0,,4,,,64,127
98695,note_off,38,0,0,,10,,,69,127
98696,note_on,1,0,0,,2,,,74,127
98696,note_on,0,0,0,,5,,,65,127
98750,note_off,54,0,0,,10,,,57,127
98790,note_on,40,0,0,,2,,,62,127
98844,note_off,54,0,0,,5,,,65,127
98884,note_on,40,0,0,,10,,,57,127
98938,note_off,54,0,0,,2,,,62,127
98976,note_off,38,0,0,,2,,,74,127
98977,note_on,1,0,0,,1,,,73,127
98977,note_on,0,0,0,,4,,,64,127
99031,note_off,54,0,0,,10,,,57,127
99071,note_on,40,0,0,,1,,,61,127
99125,note_off,54,0,0,,4,,,64,127
99165,note_on,40,0,0,,10,,,57,127
99219,note_off,54,0,0,,1,,,61,127
99257,note_off,38,0,0,,1,,,73,127
99258,note_on,1,0,0,,1,,,73,127
99258,note_on,0,0,0,,4,,,64,127
99538,note_off,280,0,0,,1,,,73,127
99548,note_on,10,0,0,,2,,,74,127
99819,note_off,271,0,0,,4,,,64,127
99832,note_on,13,0,0,,6,,,66,127
100043,note_off,211,0,0,,10,,,57,127
100109,note_off,66,0,0,,2,,,74,127
100143,note_off,34,0,0,,6,,,66,127
100146,note_on,3,0,0,,10,,,81,127
100146,note_on,0,0,0,,2,,,50,127
100285,note_off,139,0,0,,10,,,81,127
100286,note_on,1,0,0,,6,,,78,127
100425,note_off,139,0,0,,6,,,78,127
100425,note_off,0,0,0,,2,,,50,127
100426,note_on,1,0,0,,2,,,74,127
100426,note_on,0,0,0,,2,,,50,127
100565,note_off,139,0,0,,2,,,74,127
100566,note_on,1,0,0,,10,,,69,127
100705,note_off,139,0,0,,10,,,69,127
100705,note_off,0,0,0,,2,,,50,127
100706,note_on,1,0,0,,6,,,66,127
100706,note_on,0,0,0,,2,,,50,127
100845,note_off,139,0,0,,6,,,66,127
100846,note_on,1,0,0,,2,,,62,127
100985,note_off,139,0,0,,2,,,62,127
100985,note_off,0,0,0,,2,,,50,127
100986,note_on,1,0,0,,12,,,71,127
100986,note_on,0,0,0,,7,,,43,127
101125,note_off,139,0,0,,7,,,43,127
101126,note_on,1,0,0,,12,,,47,127
101265,note_off,139,0,0,,12,,,47,127
101265,note_off,0,0,0,,12,,,71,127
101266,note_on,1,0,0,,12,,,71,127
101266,note_on,0,0,0,,2,,,50,127
101405,note_off,139,0,0,,2,,,50,127
101406,note_on,1,0,0,,7,,,55,127
101545,note_off,139,0,0,,7,,,55,127
101545,note_off,0,0,0,,12,,,71,127
101546,note_on,1,0,0,,10,,,81,127
101546,note_on,0,0,0,,12,,,59,127
101685,note_off,139,0,0,,12,,,59,127
101686,note_on,1,0,0,,2,,,62,127
101825,note_off,139,0,0,,2,,,62,127
101825,note_off,0,0,0,,10,,,81,127
101826,note_on,1,0,0,,7,,,79,127
101826,note_on,0,0,0,,4,,,40,127
101965,note_off,139,0,0,,7,,,79,127
101966,note_on,1,0,0,,4,,,76,127
102105,note_off,139,0,0,,4,,,76,127
102105,note_off,0,0,0,,4,,,40,127
102106,note_on,1,0,0,,1,,,73,127
102106,note_on,0,0,0,,4,,,40,127
102245,note_off,139,0,0,,1,,,73,127
102246,note_on,1,0,0,,7,,,67,127
102385,note_off,139,0,0,,7,,,67,127
102385,note_off,0,0,0,,4,,,40,127
102386,note_on,1,0,0,,4,,,64,127
102386,note_on,0,0,0,,4,,,40,127
102525,note_off,139,0,0,,4,,,64,127
102526,note_on,1,0,0,,1,,,61,127
102665,note_off,139,0,0,,1,,,61,127
102665,note_off,0,0,0,,4,,,40,127
102666,note_on,1,0,0,,10,,,69,127
102666,note_on,0,0,0,,6,,,42,127
102805,note_off,139,0,0,,6,,,42,127
102806,note_on,1,0,0,,10,,,45,127
102945,note_off,139,0,0,,10,,,45,127
102945,note_off,0,0,0,,10,,,69,127
102946,note_on,1,0,0,,10,,,69,127
102946,note_on,0,0,0,,2,,,50,127
103085,note_off,139,0,0,,2,,,50,127
103086,note_on,1,0,0,,6,,,54,127
103225,note_off,139,0,0,,6,,,54,127
103225,note_off,0,0,0,,10,,,69,127
103226,note_on,1,0,0,,7,,,79,127
103226,note_on,0,0,0,,10,,,57,127
103365,note_off,139,0,0,,10,,,57,127
103366,note_on,1,0,0,,1,,,61,127
103505,note_off,139,0,0,,1,,,61,127
103505,note_off,0,0,0,,7,,,79,127
103506,note_on,1,0,0,,6,,,78,127
103506,note_on,0,0,0,,2,,,38,127
103645,note_off,139,0,0,,6,,,78,127
103646,note_on,1,0,0,,2,,,74,127
103785,note_off,139,0,0,,2,,,74,127
103785,note_off,0,0,0,,2,,,38,127
103786,note_on,1,0,0,,10,,,69,127
103786,note_on,0,0,0,,2,,,38,127
103925,note_off,139,0,0,,10,,,69,127
103926,note_on,1,0,0,,6,,,66,127
104065,note_off,139,0,0,,6,,,66,127
104065,note_off,0,0,0,,2,,,38,127
104066,note_on,1,0,0,,2,,,62,127
104066,note_on,0,0,0,,2,,,38,127
104205,note_off,139,0,0,,2,,,62,127
104206,note_on,1,0,0,,12,,,59,127
104345,note_off,139,0,0,,12,,,59,127
104345,note_off,0,0,0,,2,,,38,127
104346,note_on,1,0,0,,7,,,67,127
104346,note_on,0,0,0,,4,,,40,127
104485,note_off,139,0,0,,4,,,40,127
104486,note_on,1,0,0,,7,,,43,127
104625,note_off,139,0,0,,7,,,43,127
104625,note_off,0,0,0,,7,,,67,127
104626,note_on,1,0,0,,7,,,67,127
104626,note_on,0,0,0,,12,,,47,127
104765,note_off,139,0,0,,12,,,47,127
104766,note_on,1,0,0,,4,,,52,127
104905,note_off,139,0,0,,4,,,52,127
104905,note_off,0,0,0,,7,,,67,127
104906,note_on,1,0,0,,6,,,78,127
104906,note_on,0,0,0,,7,,,55,127
105045,note_off,139,0,0,,7,,,55,127
105046,note_on,1,0,0,,12,,,59,127
105192,note_off,146,0,0,,6,,,78,127
105198,note_on,6,0,0,,10,,,45,127
105198,note_on,0,0,0,,4,,,76,127
105199,note_off,1,0,0,,12,,,59,127
105337,note_off,138,0,0,,4,,,76,127
105338,note_on,1,0,0,,1,,,73,127
105477,note_off,139,0,0,,1,,,73,127
105477,note_off,0,0,0,,10,,,45,127
105478,note_on,1,0,0,,10,,,69,127
105478,note_on,0,0,0,,10,,,45,127
105617,note_off,139,0,0,,10,,,69,127
105618,note_on,1,0,0,,4,,,64,127
105757,note_off,139,0,0,,4,,,64,127
105757,note_off,0,0,0,,10,,,45,127
105758,note_on,1,0,0,,1,,,61,127
105758,note_on,0,0,0,,10,,,45,127
105897,note_off,139,0,0,,1,,,61,127
105898,note_on,1,0,0,,10,,,57,127
106037,note_off,139,0,0,,10,,,57,127
106037,note_off,0,0,0,,10,,,45,127
106038,note_on,1,0,0,,6,,,66,127
106038,note_on,0,0,0,,2,,,38,127
106177,note_off,139,0,0,,2,,,38,127
106178,note_on,1,0,0,,6,,,42,127
106317,note_off,139,0,0,,6,,,42,127
106317,note_off,0,0,0,,6,,,66,127
106318,note_on,1,0,0,,2,,,74,127
106318,note_on,0,0,0,,10,,,45,127
106457,note_off,139,0,0,,10,,,45,127
106458,note_on,1,0,0,,2,,,50,127
106597,note_off,139,0,0,,2,,,50,127
106597,note_off,0,0,0,,2,,,74,127
106598,note_on,1,0,0,,6,,,78,127
106598,note_on,0,0,0,,6,,,54,127
106737,note_off,139,0,0,,6,,,54,127
106738,note_on,1,0,0,,10,,,57,127
106877,note_off,139,0,0,,10,,,57,127
106877,note_off,0,0,0,,6,,,78,127
106878,note_on,1,0,0,,12,,,71,127
106878,note_on,0,0,0,,7,,,43,127
107017,note_off,139,0,0,,7,,,43,127
107018,note_on,1,0,0,,12,,,47,127
107157,note_off,139,0,0,,12,,,47,127
107157,note_off,0,0,0,,12,,,71,127
107158,note_on,1,0,0,,7,,,79,127
107158,note_on,0,0,0,,2,,,50,127
107297,note_off,139,0,0,,2,,,50,127
107298,note_on,1,0,0,,7,,,55,127
107437,note_off,139,0,0,,7,,,55,127
107437,note_off,0,0,0,,7,,,79,127
107438,note_on,1,0,0,,12,,,83,127
107438,note_on,0,0,0,,12,,,59,127
107577,note_off,139,0,0,,12,,,59,127
107578,note_on,1,0,0,,2,,,62,127
107717,note_off,139,0,0,,2,,,62,127
107717,note_off,0,0,0,,12,,,83,127
107718,note_on,1,0,0,,1,,,73,127
107718,note_on,0,0,0,,10,,,45,127
107857,note_off,139,0,0,,10,,,45,127
107858,note_on,1,0,0,,1,,,49,127
107997,note_off,139,0,0,,1,,,49,127
107997,note_off,0,0,0,,1,,,73,127
107998,note_on,1,0,0,,10,,,69,127
107998,note_on,0,0,0,,4,,,52,127
108137,note_off,139,0,0,,4,,,52,127
108138,note_on,1,0,0,,10,,,57,127
108277,note_off,139,0,0,,10,,,57,127
108277,note_off,0,0,0,,10,,,69,127
108278,note_on,1,0,0,,7,,,79,127
108278,note_on,0,0,0,,1,,,61,127
108417,note_off,139,0,0,,1,,,61,127
108418,note_on,1,0,0,,4,,,64,127
108557,note_off,139,0,0,,4,,,64,127
108557,note_off,0,0,0,,7,,,79,127
108558,note_on,1,0,0,,6,,,78,127
108558,note_on,0,0,0,,2,,,50,127
108627,note_off,69,0,0,,6,,,78,127
108628,note_on,1,0,0,,4,,,76,127
108697,note_off,69,0,0,,4,,,76,127
108698,note_on,1,0,0,,2,,,74,127
108837,note_off,139,0,0,,2,,,74,127
108837,note_off,0,0,0,,2,,,50,127
108838,note_on,1,0,0,,6,,,78,127
108838,note_on,0,0,0,,10,,,57,127
108907,note_off,69,0,0,,6,,,78,127
108908,note_on,1,0,0,,4,,,76,127
108977,note_off,69,0,0,,4,,,76,127
108978,note_on,1,0,0,,6,,,78,127
109047,note_off,69,0,0,,6,,,78,127
109048,note_on,1,0,0,,4,,,76,127
109117,note_off,69,0,0,,4,,,76,127
109118,note_on,1,0,0,,6,,,78,127
109118,note_on,0,0,0,,10,,,45,127
109187,note_off,69,0,0,,6,,,78,127
109188,note_on,1,0,0,,4,,,76,127
109257,note_off,69,0,0,,4,,,76,127
109258,note_off,1,0,0,,10,,,57,127
109258,note_on,0,0,0,,2,,,74,127
109397,note_off,139,0,0,,2,,,74,127
109397,note_off,0,0,0,,10,,,45,127
109398,note_on,1,0,0,,2,,,74,127
109398,note_on,0,0,0,,2,,,38,127
109958,note_off,560,0,0,,2,,,38,127
109981,note_off,23,0,0,,2,,,74,127
109994,note_on,13,0,0,,10,,,69,127
109994,note_on,0,0,0,,6,,,66,127
110088,note_on,94,0,0,,2,,,62,127
110142,note_off,54,0,0,,6,,,66,127
110182,note_on,40,0,0,,10,,,57,127
110236,note_off,54,0,0,,2,,,62,127
110274,note_off,38,0,0,,10,,,69,127
110275,note_on,1,0,0,,12,,,71,127
110275,note_on,0,0,0,,7,,,67,127
110329,note_off,54,0,0,,10,,,57,127
110369,note_on,40,0,0,,4,,,64,127
110423,note_off,54,0,0,,7,,,67,127
110463,note_on,40,0,0,,10,,,57,127
110517,note_off,54,0,0,,4,,,64,127
110555,note_off,38,0,0,,12,,,71,127
110556,note_on,1,0,0,,12,,,71,127
110556,note_on,0,0,0,,6,,,66,127
110610,note_off,54,0,0,,10,,,57,127
110650,note_on,40,0,0,,2,,,62,127
110704,note_off,54,0,0,,6,,,66,127
110744,note_on,40,0,0,,10,,,57,127
110798,note_off,54,0,0,,2,,,62,127
110836,note_off,38,0,0,,12,,,71,127
110837,note_on,1,0,0,,1,,,73,127
110837,note_on,0,0,0,,4,,,64,127
110891,note_off,54,0,0,,10,,,57,127
110931,note_on,40,0,0,,1,,,61,127
110985,note_off,54,0,0,,4,,,64,127
111025,note_on,40,0,0,,10,,,57,127
111079,note_off,54,0,0,,1,,,61,127
111117,note_off,38,0,0,,1,,,73,127
111118,note_on,1,0,0,,2,,,74,127
111118,note_on,0,0,0,,6,,,66,127
111172,note_off,54,0,0,,10,,,57,127
111212,note_on,40,0,0,,2,,,62,127
111266,note_off,54,0,0,,6,,,66,127
111306,note_on,40,0,0,,10,,,57,127
111360,note_off,54,0,0,,2,,,62,127
111398,note_off,38,0,0,,2,,,74,127
111399,note_on,1,0,0,,2,,,74,127
111399,note_on,0,0,0,,4,,,64,127
111453,note_off,54,0,0,,10,,,57,127
111493,note_on,40,0,0,,1,,,61,127
111547,note_off,54,0,0,,4,,,64,127
111587,note_on,40,0,0,,10,,,57,127
111641,note_off,54,0,0,,1,,,61,127
111679,note_off,38,0,0,,2,,,74,127
111680,note_on,1,0,0,,10,,,69,127
111680,note_on,0,0,0,,6,,,66,127
111734,note_off,54,0,0,,10,,,57,127
111774,note_on,40,0,0,,2,,,62,127
111828,note_off,54,0,0,,6,,,66,127
111868,note_on,40,0,0,,10,,,57,127
111922,note_off,54,0,0,,2,,,62,127
111960,note_off,38,0,0,,10,,,69,127
111961,note_on,1,0,0,,12,,,71,127
111961,note_on,0,0,0,,7,,,67,127
112015,note_off,54,0,0,,10,,,57,127
112055,note_on,40,0,0,,4,,,64,127
112109,note_off,54,0,0,,7,,,67,127
112149,note_on,40,0,0,,10,,,57,127
112203,note_off,54,0,0,,4,,,64,127
112241,note_off,38,0,0,,12,,,71,127
112242,note_on,1,0,0,,12,,,71,127
112242,note_on,0,0,0,,6,,,66,127
112296,note_off,54,0,0,,10,,,57,127
112336,note_on,40,0,0,,2,,,62,127
112390,note_off,54,0,0,,6,,,66,127
112430,note_on,40,0,0,,10,,,57,127
112484,note_off,54,0,0,,2,,,62,127
112522,note_off,38,0,0,,12,,,71,127
112523,note_on,1,0,0,,1,,,73,127
112523,note_on,0,0,0,,4,,,64,127
112577,note_off,54,0,0,,10,,,57,127
112617,note_on,40,0,0,,1,,,61,127
112671,note_off,54,0,0,,4,,,64,127
112711,note_on,40,0,0,,10,,,57,127
112765,note_off,54,0,0,,1,,,61,127
112803,note_off,38,0,0,,1,,,73,127
112804,note_on,1,0,0,,2,,,74,127
112804,note_on,0,0,0,,6,,,66,127
112858,note_off,54,0,0,,10,,,57,127
112898,note_on,40,0,0,,2,,,62,127
112952,note_off,54,0,0,,6,,,66,127
112992,note_on,40,0,0,,10,,,57,127
113046,note_off,54,0,0,,2,,,62,127
113084,note_off,38,0,0,,2,,,74,127
113085,note_on,1,0,0,,2,,,74,127
113085,note_on,0,0,0,,4,,,64,127
113139,note_off,54,0,0,,10,,,57,127
113179,note_on,40,0,0,,1,,,61,127
113233,note_off,54,0,0,,4,,,64,127
113273,note_on,40,0,0,,10,,,57,127
113327,note_off,54,0,0,,1,,,61,127
113365,note_off,38,0,0,,2,,,74,127
113366,note_on,1,0,0,,10,,,69,127
113366,note_on,0,0,0,,6,,,66,127
113420,note_off,54,0,0,,10,,,57,127
113460,note_on,40,0,0,,2,,,62,127
113514,note_off,54,0,0,,6,,,66,127
113554,note_on,40,0,0,,10,,,57,127
113608,note_off,54,0,0,,2,,,62,127
113646,note_off,38,0,0,,10,,,69,127
113647,note_on,1,0,0,,12,,,71,127
113647,note_on,0,0,0,,7,,,67,127
113701,note_off,54,0,0,,10,,,57,127
113741,note_on,40,0,0,,4,,,64,127
113795,note_off,54,0,0,,7,,,67,127
113835,note_on,40,0,0,,10,,,57,127
113889,note_off,54,0,0,,4,,,64,127
113927,note_off,38,0,0,,12,,,71,127
113928,note_on,1,0,0,,12,,,71,127
113928,note_on,0,0,0,,6,,,66,127
113982,note_off,54,0,0,,10,,,57,127
114022,note_on,40,0,0,,2,,,62,127
114076,note_off,54,0,0,,6,,,66,127
114116,note_on,40,0,0,,10,,,57,127
114170,note_off,54,0,0,,2,,,62,127
114208,note_off,38,0,0,,12,,,71,127
114209,note_on,1,0,0,,1,,,73,127
114209,note_on,0,0,0,,4,,,64,127
114263,note_off,54,0,0,,10,,,57,127
114303,note_on,40,0,0,,1,,,61,127
114357,note_off,54,0,0,,4,,,64,127
114397,note_on,40,0,0,,10,,,57,127
114451,note_off,54,0,0,,1,,,61,127
114489,note_off,38,0,0,,1,,,73,127
114490,note_on,1,0,0,,2,,,74,127
114490,note_on,0,0,0,,6,,,66,127
114544,note_off,54,0,0,,10,,,57,127
114584,note_on,40,0,0,,2,,,62,127
114638,note_off,54,0,0,,6,,,66,127
114678,note_on,40,0,0,,10,,,57,127
114732,note_off,54,0,0,,2,,,62,127
114770,note_off,38,0,0,,2,,,74,127
114771,note_on,1,0,0,,2,,,74,127
114771,note_on,0,0,0,,7,,,67,127
114825,note_off,54,0,0,,10,,,57,127
114865,note_on,40,0,0,,4,,,64,127
114919,note_off,54,0,0,,7,,,67,127
114959,note_on,40,0,0,,10,,,57,127
115013,note_off,54,0,0,,4,,,64,127
115051,note_off,38,0,0,,2,,,74,127
115052,note_on,1,0,0,,10,,,69,127
115052,note_on,0,0,0,,6,,,54,127
115106,note_off,54,0,0,,10,,,57,127
115146,note_on,40,0,0,,6,,,66,127
115200,note_off,54,0,0,,10,,,69,127
115240,note_on,40,0,0,,10,,,57,127
115294,note_off,54,0,0,,6,,,66,127
115332,note_off,38,0,0,,6,,,54,127
115333,note_on,1,0,0,,7,,,67,127
115333,note_on,0,0,0,,7,,,55,127
115387,note_off,54,0,0,,10,,,57,127
115427,note_on,40,0,0,,4,,,64,127
115481,note_off,54,0,0,,7,,,67,127
115521,note_on,40,0,0,,10,,,57,127
115575,note_off,54,0,0,,4,,,64,127
115613,note_off,38,0,0,,7,,,55,127
115614,note_on,1,0,0,,6,,,66,127
115614,note_on,0,0,0,,4,,,52,127
115668,note_off,54,0,0,,10,,,57,127
115708,note_on,40,0,0,,2,,,62,127
115762,note_off,54,0,0,,6,,,66,127
115802,note_on,40,0,0,,10,,,57,127
115856,note_off,54,0,0,,2,,,62,127
115893,note_off,37,0,0,,10,,,57,127
115894,note_off,1,0,0,,4,,,52,127
115895,note_on,1,0,0,,4,,,64,127
115895,note_on,0,0,0,,10,,,57,127
115989,note_on,94,0,0,,1,,,61,127
116043,note_off,54,0,0,,4,,,64,127
116080,note_off,37,0,0,,10,,,57,127
116083,note_on,3,0,0,,10,,,57,127
116137,note_off,54,0,0,,1,,,61,127
116177,note_on,40,0,0,,4,,,64,127
116177,note_on,0,0,0,,2,,,50,127
116231,note_off,54,0,0,,10,,,57,127
116456,note_off,225,0,0,,4,,,64,127
116457,note_on,1,0,0,,6,,,66,127
116737,note_off,280,0,0,,6,,,66,127
116737,note_off,0,0,0,,2,,,50,127
116750,note_on,13,0,0,,10,,,69,127
116750,note_on,0,0,0,,6,,,66,127
116844,note_on,94,0,0,,2,,,62,127
116898,note_off,54,0,0,,6,,,66,127
116938,note_on,40,0,0,,10,,,57,127
116992,note_off,54,0,0,,2,,,62,127
117030,note_off,38,0,0,,10,,,69,127
117031,note_on,1,0,0,,12,,,71,127
117031,note_on,0,0,0,,7,,,67,127
117085,note_off,54,0,0,,10,,,57,127
117125,note_on,40,0,0,,4,,,64,127
117179,note_off,54,0,0,,7,,,67,127
117219,note_on,40,0,0,,10,,,57,127
117273,note_off,54,0,0,,4,,,64,127
117311,note_off,38,0,0,,12,,,71,127
117312,note_on,1,0,0,,12,,,71,127
117312,note_on,0,0,0,,6,,,66,127
117366,note_off,54,0,0,,10,,,57,127
117406,note_on,40,0,0,,2,,,62,127
117460,note_off,54,0,0,,6,,,66,127
117500,note_on,40,0,0,,10,,,57,127
117554,note_off,54,0,0,,2,,,62,127
117592,note_off,38,0,0,,12,,,71,127
117593,note_on,1,0,0,,2,,,74,127
117593,note_on,0,0,0,,4,,,64,127
117647,note_off,54,0,0,,10,,,57,127
117663,note_off,16,0,0,,2,,,74,127
117663,note_on,0,0,0,,1,,,73,127
117686,note_on,23,0,0,,1,,,61,127
117733,note_off,47,0,0,,1,,,73,127
117733,note_on,0,0,0,,12,,,71,127
117740,note_off,7,0,0,,4,,,64,127
117780,note_on,40,0,0,,10,,,57,127
117803,note_off,23,0,0,,12,,,71,127
117803,note_on,0,0,0,,1,,,73,127
117834,note_off,31,0,0,,1,,,61,127
117874,note_off,40,0,0,,1,,,73,127
117874,note_on,0,0,0,,2,,,74,127
117874,note_on,0,0,0,,6,,,66,127
117928,note_off,54,0,0,,10,,,57,127
117968,note_on,40,0,0,,2,,,62,127
118022,note_off,54,0,0,,6,,,66,127
118062,note_on,40,0,0,,10,,,57,127
118116,note_off,54,0,0,,2,,,62,127
118154,note_off,38,0,0,,2,,,74,127
118155,note_on,1,0,0,,2,,,74,127
118155,note_on,0,0,0,,4,,,64,127
118209,note_off,54,0,0,,10,,,57,127
118249,note_on,40,0,0,,1,,,61,127
118303,note_off,54,0,0,,4,,,64,127
118343,note_on,40,0,0,,10,,,57,127
118397,note_off,54,0,0,,1,,,61,127
118435,note_off,38,0,0,,2,,,74,127
118436,note_on,1,0,0,,10,,,69,127
118436,note_on,0,0,0,,6,,,66,127
118490,note_off,54,0,0,,10,,,57,127
118530,note_on,40,0,0,,2,,,62,127
118584,note_off,54,0,0,,6,,,66,127
118624,note_on,40,0,0,,10,,,57,127
118678,note_off,54,0,0,,2,,,62,127
118716,note_off,38,0,0,,10,,,69,127
118717,note_on,1,0,0,,12,,,71,127
118717,note_on,0,0,0,,7,,,67,127
118771,note_off,54,0,0,,10,,,57,127
118811,note_on,40,0,0,,4,,,64,127
118865,note_off,54,0,0,,7,,,67,127
118905,note_on,40,0,0,,10,,,57,127
118959,note_off,54,0,0,,4,,,64,127
118997,note_off,38,0,0,,12,,,71,127
118998,note_on,1,0,0,,12,,,71,127
118998,note_on,0,0,0,,6,,,66,127
119052,note_off,54,0,0,,10,,,57,127
119092,note_on,40,0,0,,2,,,62,127
119146,note_off,54,0,0,,6,,,66,127
119186,note_on,40,0,0,,10,,,57,127
119240,note_off,54,0,0,,2,,,62,127
119278,note_off,38,0,0,,12,,,71,127
119279,note_on,1,0,0,,2,,,74,127
119279,note_on,0,0,0,,4,,,64,127
119333,note_off,54,0,0,,10,,,57,127
119349,note_off,16,0,0,,2,,,74,127
119349,note_on,0,0,0,,1,,,73,127
119372,note_on,23,0,0,,1,,,61,127
119419,note_off,47,0,0,,1,,,73,127
119419,note_on,0,0,0,,12,,,71,127
119426,note_off,7,0,0,,4,,,64,127
119466,note_on,40,0,0,,10,,,57,127
119489,note_off,23,0,0,,12,,,71,127
119489,note_on,0,0,0,,1,,,73,127
119520,note_off,31,0,0,,1,,,61,127
119560,note_off,40,0,0,,1,,,73,127
119560,note_on,0,0,0,,2,,,74,127
119560,note_on,0,0,0,,6,,,66,127
119614,note_off,54,0,0,,10,,,57,127
119654,note_on,40,0,0,,2,,,62,127
119708,note_off,54,0,0,,6,,,66,127
119748,note_on,40,0,0,,10,,,57,127
119802,note_off,54,0,0,,2,,,62,127
119840,note_off,38,0,0,,2,,,74,127
119841,note_on,1,0,0,,2,,,74,127
119841,note_on,0,0,0,,4,,,64,127
119895,note_off,54,0,0,,10,,,57,127
119935,note_on,40,0,0,,1,,,61,127
119989,note_off,54,0,0,,4,,,64,127
120029,note_on,40,0,0,,10,,,57,127
120083,note_off,54,0,0,,1,,,61,127
120121,note_off,38,0,0,,2,,,74,127
120122,note_on,1,0,0,,10,,,69,127
120122,note_on,0,0,0,,6,,,66,127
120176,note_off,54,0,0,,10,,,57,127
120216,note_on,40,0,0,,2,,,62,127
120270,note_off,54,0,0,,6,,,66,127
120310,note_on,40,0,0,,10,,,57,127
120364,note_off,54,0,0,,2,,,62,127
120402,note_off,38,0,0,,10,,,69,127
120403,note_on,1,0,0,,12,,,71,127
120403,note_on,0,0,0,,7,,,67,127
120457,note_off,54,0,0,,10,,,57,127
120497,note_on,40,0,0,,4,,,64,127
120551,note_off,54,0,0,,7,,,67,127
120591,note_on,40,0,0,,10,,,57,127
120645,note_off,54,0,0,,4,,,64,127
120683,note_off,38,0,0,,12,,,71,127
120684,note_on,1,0,0,,12,,,71,127
120684,note_on,0,0,0,,6,,,66,127
120738,note_off,54,0,0,,10,,,57,127
120778,note_on,40,0,0,,2,,,62,127
120832,note_off,54,0,0,,6,,,66,127
120872,note_on,40,0,0,,10,,,57,127
120926,note_off,54,0,0,,2,,,62,127
120964,note_off,38,0,0,,12,,,71,127
120965,note_on,1,0,0,,2,,,74,127
120965,note_on,0,0,0,,4,,,64,127
121019,note_off,54,0,0,,10,,,57,127
121035,note_off,16,0,0,,2,,,74,127
121035,note_on,0,0,0,,1,,,73,127
121058,note_on,23,0,0,,1,,,61,127
121105,note_off,47,0,0,,1,,,73,127
121105,note_on,0,0,0,,12,,,71,127
121112,note_off,7,0,0,,4,,,64,127
121152,note_on,40,0,0,,10,,,57,127
121175,note_off,23,0,0,,12,,,71,127
121175,note_on,0,0,0,,1,,,73,127
121206,note_off,31,0,0,,1,,,61,127
121246,note_off,40,0,0,,1,,,73,127
121246,note_on,0,0,0,,2,,,74,127
121246,note_on,0,0,0,,6,,,66,127
121300,note_off,54,0,0,,10,,,57,127
121340,note_on,40,0,0,,2,,,62,127
121394,note_off,54,0,0,,6,,,66,127
121434,note_on,40,0,0,,10,,,57,127
121488,note_off,54,0,0,,2,,,62,127
121526,note_off,38,0,0,,2,,,74,127
121527,note_on,1,0,0,,2,,,74,127
121527,note_on,0,0,0,,7,,,67,127
121581,note_off,54,0,0,,10,,,57,127
121621,note_on,40,0,0,,4,,,64,127
121675,note_off,54,0,0,,7,,,67,127
121715,note_on,40,0,0,,10,,,57,127
121769,note_off,54,0,0,,4,,,64,127
121807,note_off,38,0,0,,2,,,74,127
121808,note_on,1,0,0,,10,,,69,127
121808,note_on,0,0,0,,6,,,54,127
121862,note_off,54,0,0,,10,,,57,127
121902,note_on,40,0,0,,6,,,66,127
121956,note_off,54,0,0,,10,,,69,127
121996,note_on,40,0,0,,10,,,57,127
122050,note_off,54,0,0,,6,,,66,127
122088,note_off,38,0,0,,6,,,54,127
122089,note_on,1,0,0,,7,,,67,127
122089,note_on,0,0,0,,7,,,55,127
122143,note_off,54,0,0,,10,,,57,127
122183,note_on,40,0,0,,4,,,64,127
122237,note_off,54,0,0,,7,,,67,127
122277,note_on,40,0,0,,10,,,57,127
122331,note_off,54,0,0,,4,,,64,127
122369,note_off,38,0,0,,7,,,55,127
122370,note_on,1,0,0,,6,,,66,127
122370,note_on,0,0,0,,4,,,52,127
122424,note_off,54,0,0,,10,,,57,127
122464,note_on,40,0,0,,2,,,62,127
122518,note_off,54,0,0,,6,,,66,127
122558,note_on,40,0,0,,10,,,57,127
122612,note_off,54,0,0,,2,,,62,127
122649,note_off,37,0,0,,10,,,57,127
122650,note_off,1,0,0,,4,,,52,127
122651,note_on,1,0,0,,4,,,64,127
122651,note_on,0,0,0,,10,,,57,127
122745,note_on,94,0,0,,1,,,61,127
122799,note_off,54,0,0,,4,,,64,127
122836,note_off,37,0,0,,10,,,57,127
122839,note_on,3,0,0,,10,,,57,127
122893,note_off,54,0,0,,1,,,61,127
122956,note_on,63,0,0,,2,,,50,127
122956,note_on,0,0,0,,6,,,78,127
122987,note_off,31,0,0,,10,,,57,127
123050,note_on,63,0,0,,2,,,74,127
123104,note_off,54,0,0,,6,,,78,127
123144,note_on,40,0,0,,10,,,69,127
123198,note_off,54,0,0,,2,,,74,127
123236,note_off,38,0,0,,2,,,50,127
123237,note_on,1,0,0,,4,,,52,127
123237,note_on,0,0,0,,7,,,79,127
123291,note_off,54,0,0,,10,,,69,127
123331,note_on,40,0,0,,4,,,76,127
123385,note_off,54,0,0,,7,,,79,127
123425,note_on,40,0,0,,10,,,69,127
123479,note_off,54,0,0,,4,,,76,127
123517,note_off,38,0,0,,4,,,52,127
123518,note_on,1,0,0,,6,,,54,127
123518,note_on,0,0,0,,10,,,81,127
123572,note_off,54,0,0,,10,,,69,127
123612,note_on,40,0,0,,6,,,78,127
123666,note_off,54,0,0,,10,,,81,127
123706,note_on,40,0,0,,10,,,69,127
123760,note_off,54,0,0,,6,,,78,127
123798,note_off,38,0,0,,6,,,54,127
123799,note_on,1,0,0,,7,,,55,127
123799,note_on,0,0,0,,7,,,79,127
123853,note_off,54,0,0,,10,,,69,127
123893,note_on,40,0,0,,4,,,76,127
123947,note_off,54,0,0,,7,,,79,127
123987,note_on,40,0,0,,10,,,69,127
124041,note_off,54,0,0,,4,,,76,127
124079,note_off,38,0,0,,7,,,55,127
124080,note_on,1,0,0,,10,,,57,127
124080,note_on,0,0,0,,6,,,78,127
124134,note_off,54,0,0,,10,,,69,127
124174,note_on,40,0,0,,2,,,74,127
124228,note_off,54,0,0,,6,,,78,127
124268,note_on,40,0,0,,10,,,69,127
124322,note_off,54,0,0,,2,,,74,127
124362,note_on,40,0,0,,10,,,45,127
124362,note_on,0,0,0,,4,,,76,127
124416,note_off,54,0,0,,10,,,69,127
124456,note_on,40,0,0,,1,,,73,127
124510,note_off,54,0,0,,4,,,76,127
124550,note_on,40,0,0,,10,,,69,127
124604,note_off,54,0,0,,1,,,73,127
124638,note_off,34,0,0,,10,,,57,127
124642,note_off,4,0,0,,10,,,45,127
124667,note_on,25,0,0,,6,,,78,127
124667,note_on,0,0,0,,2,,,50,127
124698,note_off,31,0,0,,10,,,69,127
124761,note_on,63,0,0,,2,,,74,127
124815,note_off,54,0,0,,6,,,78,127
124855,note_on,40,0,0,,10,,,69,127
124909,note_off,54,0,0,,2,,,74,127
124947,note_off,38,0,0,,2,,,50,127
124948,note_on,1,0,0,,4,,,76,127
124948,note_on,0,0,0,,4,,,52,127
125002,note_off,54,0,0,,10,,,69,127
125042,note_on,40,0,0,,1,,,73,127
125096,note_off,54,0,0,,4,,,76,127
125136,note_on,40,0,0,,10,,,69,127
125190,note_off,54,0,0,,1,,,73,127
125228,note_off,38,0,0,,4,,,52,127
125229,note_on,1,0,0,,2,,,74,127
125229,note_on,0,0,0,,6,,,54,127
125283,note_off,54,0,0,,10,,,69,127
125323,note_on,40,0,0,,10,,,69,127
125377,note_off,54,0,0,,2,,,74,127
125417,note_on,40,0,0,,6,,,66,127
125471,note_off,54,0,0,,10,,,69,127
125509,note_off,38,0,0,,6,,,54,127
125510,note_on,1,0,0,,4,,,76,127
125510,note_on,0,0,0,,7,,,55,127
125564,note_off,54,0,0,,6,,,66,127
125604,note_on,40,0,0,,12,,,71,127
125658,note_off,54,0,0,,4,,,76,127
125698,note_on,40,0,0,,7,,,67,127
125752,note_off,54,0,0,,12,,,71,127
125790,note_off,38,0,0,,7,,,55,127
125791,note_on,1,0,0,,2,,,74,127
125791,note_on,0,0,0,,10,,,57,127
125845,note_off,54,0,0,,7,,,67,127
125885,note_on,40,0,0,,10,,,69,127
125939,note_off,54,0,0,,2,,,74,127
125979,note_on,40,0,0,,6,,,66,127
126033,note_off,54,0,0,,10,,,69,127
126073,note_on,40,0,0,,1,,,73,127
126073,note_on,0,0,0,,10,,,45,127
126127,note_off,54,0,0,,6,,,66,127
126167,note_on,40,0,0,,7,,,67,127
126221,note_off,54,0,0,,1,,,73,127
126261,note_on,40,0,0,,4,,,64,127
126349,note_off,88,0,0,,10,,,57,127
126353,note_off,4,0,0,,10,,,45,127
126378,note_on,25,0,0,,2,,,50,127
126378,note_on,0,0,0,,10,,,69,127
126378,note_on,0,0,0,,1,,,73,127
126630,note_off,252,0,0,,7,,,67,127
126775,note_off,145,0,0,,4,,,64,127
126804,note_on,29,0,0,,2,,,62,127
126804,note_on,0,0,0,,2,,,74,127
126804,note_on,0,0,0,,6,,,66,127
126810,note_off,6,0,0,,1,,,73,127
128568,note_off,1758,0,0,,2,,,62,127
128609,note_off,41,0,0,,2,,,74,127
128647,note_off,38,0,0,,10,,,69,127
128657,note_off,10,0,0,,6,,,66,127
128667,note_off,10,0,0,,2,,,50,127
133632,end_of_track,4965,1,0,,,,,,
