tick,type,time,meta,track,program,channel,pitch,tempo,note,velocity
0,copyright,0,1,0,,,,,,
0,program_change,0,0,0,6,0,,,,
0,pitchwheel,0,0,0,,0,0,,,
0,program_change,0,0,0,6,1,,,,
0,pitchwheel,0,0,0,,1,-590,,,
0,program_change,0,0,0,6,2,,,,
0,pitchwheel,0,0,0,,2,-272,,,
0,program_change,0,0,0,6,3,,,,
0,pitchwheel,0,0,0,,3,-353,,,
0,program_change,0,0,0,6,4,,,,
0,pitchwheel,0,0,0,,4,-560,,,
0,program_change,0,0,0,6,5,,,,
0,pitchwheel,0,0,0,,5,-80,,,
0,program_change,0,0,0,6,6,,,,
0,pitchwheel,0,0,0,,6,-625,,,
0,program_change,0,0,0,6,7,,,,
0,pitchwheel,0,0,0,,7,-130,,,
0,program_change,0,0,0,6,8,,,,
0,pitchwheel,0,0,0,,8,-512,,,
0,program_change,0,0,0,6,10,,,,
0,pitchwheel,0,0,0,,10,-464,,,
0,program_change,0,0,0,6,11,,,,
0,pitchwheel,0,0,0,,11,-208,,,
0,program_change,0,0,0,6,12,,,,
0,pitchwheel,0,0,0,,12,-553,,,
0,set_tempo,0,1,0,,,,500000,,
115,note_on,115,0,0,,0,,,48,127
230,note_on,115,0,0,,0,,,84,127
344,note_off,114,0,0,,0,,,84,127
345,note_on,1,0,0,,7,,,79,127
459,note_off,114,0,0,,7,,,79,127
460,note_on,1,0,0,,3,,,75,127
574,note_off,114,0,0,,3,,,75,127
574,note_off,0,0,0,,0,,,48,127
575,note_on,1,0,0,,0,,,72,127
690,note_on,115,0,0,,7,,,67,127
804,note_off,114,0,0,,7,,,67,127
805,note_on,1,0,0,,3,,,63,127
919,note_off,114,0,0,,3,,,63,127
920,note_on,1,0,0,,0,,,60,127
1034,note_off,114,0,0,,0,,,60,127
1034,note_off,0,0,0,,0,,,72,127
1035,note_on,1,0,0,,0,,,36,127
1150,note_on,115,0,0,,0,,,84,127
1264,note_off,114,0,0,,0,,,84,127
1265,note_on,1,0,0,,7,,,79,127
1379,note_off,114,0,0,,7,,,79,127
1380,note_on,1,0,0,,3,,,75,127
1494,note_off,114,0,0,,3,,,75,127
1494,note_off,0,0,0,,0,,,36,127
1495,note_on,1,0,0,,0,,,72,127
1610,note_on,115,0,0,,7,,,67,127
1724,note_off,114,0,0,,7,,,67,127
1725,note_on,1,0,0,,3,,,63,127
1839,note_off,114,0,0,,3,,,63,127
1840,note_on,1,0,0,,0,,,60,127
1954,note_off,114,0,0,,0,,,60,127
1954,note_off,0,0,0,,0,,,72,127
1955,note_on,1,0,0,,0,,,36,127
2070,note_on,115,0,0,,0,,,84,127
2184,note_off,114,0,0,,0,,,84,127
2185,note_on,1,0,0,,7,,,79,127
2299,note_off,114,0,0,,7,,,79,127
2300,note_on,1,0,0,,3,,,75,127
2414,note_off,114,0,0,,3,,,75,127
2414,note_off,0,0,0,,0,,,36,127
2415,note_on,1,0,0,,0,,,72,127
2530,note_on,115,0,0,,7,,,67,127
2644,note_off,114,0,0,,7,,,67,127
2645,note_on,1,0,0,,3,,,63,127
2759,note_off,114,0,0,,3,,,63,127
2760,note_on,1,0,0,,0,,,60,127
2874,note_off,114,0,0,,0,,,60,127
2874,note_off,0,0,0,,0,,,72,127
2875,note_on,1,0,0,,0,,,36,127
3105,note_on,230,0,0,,7,,,79,127
3219,note_off,114,0,0,,7,,,79,127
3220,note_on,1,0,0,,5,,,77,127
3334,note_off,114,0,0,,5,,,77,127
3334,note_off,0,0,0,,0,,,36,127
3335,note_on,1,0,0,,3,,,75,127
3449,note_off,114,0,0,,3,,,75,127
3450,note_on,1,0,0,,2,,,74,127
3564,note_off,114,0,0,,2,,,74,127
3565,note_on,1,0,0,,3,,,75,127
3565,note_on,0,0,0,,0,,,72,127
3679,note_off,114,0,0,,0,,,72,127
3680,note_on,1,0,0,,7,,,79,127
3794,note_off,114,0,0,,7,,,79,127
3794,note_off,0,0,0,,3,,,75,127
3795,note_on,1,0,0,,5,,,77,127
3795,note_on,0,0,0,,8,,,80,127
3909,note_off,114,0,0,,8,,,80,127
3910,note_on,1,0,0,,7,,,79,127
4023,note_off,113,0,0,,5,,,77,127
4024,note_off,1,0,0,,7,,,79,127
4025,note_on,1,0,0,,5,,,77,127
4139,note_off,114,0,0,,5,,,77,127
4140,note_on,1,0,0,,3,,,75,127
4254,note_off,114,0,0,,3,,,75,127
4255,note_on,1,0,0,,2,,,74,127
4369,note_off,114,0,0,,2,,,74,127
4370,note_on,1,0,0,,0,,,72,127
4484,note_off,114,0,0,,0,,,72,127
4485,note_on,1,0,0,,2,,,74,127
4485,note_on,0,0,0,,12,,,71,127
4599,note_off,114,0,0,,12,,,71,127
4600,note_on,1,0,0,,8,,,80,127
4714,note_off,114,0,0,,8,,,80,127
4714,note_off,0,0,0,,2,,,74,127
4715,note_on,1,0,0,,3,,,75,127
4715,note_on,0,0,0,,7,,,79,127
4829,note_off,114,0,0,,7,,,79,127
4830,note_on,1,0,0,,5,,,77,127
4943,note_off,113,0,0,,3,,,75,127
4944,note_off,1,0,0,,5,,,77,127
4945,note_on,1,0,0,,3,,,75,127
5059,note_off,114,0,0,,3,,,75,127
5060,note_on,1,0,0,,2,,,74,127
5174,note_off,114,0,0,,2,,,74,127
5175,note_on,1,0,0,,0,,,72,127
5290,note_on,115,0,0,,12,,,71,127
5322,note_off,32,0,0,,0,,,72,127
5392,note_off,70,0,0,,12,,,71,127
5405,note_on,13,0,0,,0,,,72,127
5520,note_on,115,0,0,,7,,,79,127
5634,note_off,114,0,0,,7,,,79,127
5634,note_off,0,0,0,,0,,,72,127
5635,note_on,1,0,0,,2,,,74,127
5635,note_on,0,0,0,,5,,,77,127
5749,note_off,114,0,0,,5,,,77,127
5750,note_on,1,0,0,,3,,,75,127
5864,note_off,114,0,0,,3,,,75,127
5865,note_on,1,0,0,,5,,,77,127
5979,note_off,114,0,0,,5,,,77,127
5980,note_on,1,0,0,,7,,,79,127
6094,note_off,114,0,0,,7,,,79,127
6094,note_off,0,0,0,,2,,,74,127
6095,note_on,1,0,0,,0,,,72,127
6095,note_on,0,0,0,,3,,,75,127
6209,note_off,114,0,0,,3,,,75,127
6210,note_on,1,0,0,,2,,,74,127
6324,note_off,114,0,0,,2,,,74,127
6325,note_on,1,0,0,,3,,,75,127
6439,note_off,114,0,0,,3,,,75,127
6440,note_on,1,0,0,,5,,,77,127
6554,note_off,114,0,0,,5,,,77,127
6554,note_off,0,0,0,,0,,,72,127
6555,note_on,1,0,0,,7,,,67,127
6555,note_on,0,0,0,,2,,,74,127
6784,note_off,229,0,0,,2,,,74,127
6785,note_on,1,0,0,,7,,,79,127
6899,note_off,114,0,0,,7,,,79,127
6900,note_on,1,0,0,,5,,,77,127
7014,note_off,114,0,0,,5,,,77,127
7015,note_on,1,0,0,,3,,,75,127
7129,note_off,114,0,0,,3,,,75,127
7130,note_on,1,0,0,,5,,,77,127
7244,note_off,114,0,0,,5,,,77,127
7244,note_off,0,0,0,,7,,,67,127
7245,note_on,1,0,0,,7,,,79,127
7359,note_off,114,0,0,,7,,,79,127
7360,note_on,1,0,0,,3,,,75,127
7474,note_off,114,0,0,,3,,,75,127
7475,note_on,1,0,0,,0,,,84,127
7475,note_on,0,0,0,,8,,,80,127
7589,note_off,114,0,0,,8,,,80,127
7590,note_on,1,0,0,,7,,,79,127
7704,note_off,114,0,0,,7,,,79,127
7704,note_off,0,0,0,,0,,,84,127
7705,note_on,1,0,0,,8,,,68,127
7705,note_on,0,0,0,,5,,,77,127
7819,note_off,114,0,0,,5,,,77,127
7820,note_on,1,0,0,,3,,,75,127
7934,note_off,114,0,0,,3,,,75,127
7934,note_off,0,0,0,,8,,,68,127
7935,note_on,1,0,0,,11,,,70,127
7935,note_on,0,0,0,,2,,,74,127
8049,note_off,114,0,0,,2,,,74,127
8050,note_on,1,0,0,,3,,,75,127
8164,note_off,114,0,0,,3,,,75,127
8165,note_on,1,0,0,,5,,,77,127
8279,note_off,114,0,0,,5,,,77,127
8280,note_on,1,0,0,,2,,,74,127
8394,note_off,114,0,0,,2,,,74,127
8394,note_off,0,0,0,,11,,,70,127
8395,note_on,1,0,0,,11,,,82,127
8395,note_on,0,0,0,,7,,,79,127
8509,note_off,114,0,0,,7,,,79,127
8510,note_on,1,0,0,,5,,,77,127
8624,note_off,114,0,0,,5,,,77,127
8624,note_off,0,0,0,,11,,,82,127
8625,note_on,1,0,0,,7,,,67,127
8625,note_on,0,0,0,,3,,,75,127
8739,note_off,114,0,0,,3,,,75,127
8740,note_on,1,0,0,,2,,,74,127
8854,note_off,114,0,0,,2,,,74,127
8854,note_off,0,0,0,,7,,,67,127
8855,note_on,1,0,0,,8,,,68,127
8855,note_on,0,0,0,,0,,,72,127
8969,note_off,114,0,0,,0,,,72,127
8970,note_on,1,0,0,,2,,,74,127
9084,note_off,114,0,0,,2,,,74,127
9085,note_on,1,0,0,,3,,,75,127
9199,note_off,114,0,0,,3,,,75,127
9200,note_on,1,0,0,,0,,,72,127
9314,note_off,114,0,0,,0,,,72,127
9314,note_off,0,0,0,,8,,,68,127
9315,note_on,1,0,0,,8,,,80,127
9315,note_on,0,0,0,,5,,,77,127
9429,note_off,114,0,0,,5,,,77,127
9430,note_on,1,0,0,,3,,,75,127
9544,note_off,114,0,0,,3,,,75,127
9544,note_off,0,0,0,,8,,,80,127
9545,note_on,1,0,0,,11,,,70,127
9545,note_on,0,0,0,,2,,,74,127
9659,note_off,114,0,0,,2,,,74,127
9660,note_on,1,0,0,,0,,,72,127
9774,note_off,114,0,0,,0,,,72,127
9774,note_off,0,0,0,,11,,,70,127
9775,note_on,1,0,0,,11,,,58,127
9775,note_on,0,0,0,,11,,,70,127
9889,note_off,114,0,0,,11,,,70,127
9890,note_on,1,0,0,,0,,,72,127
10004,note_off,114,0,0,,0,,,72,127
10005,note_on,1,0,0,,2,,,74,127
10119,note_off,114,0,0,,2,,,74,127
10120,note_on,1,0,0,,11,,,70,127
10234,note_off,114,0,0,,11,,,70,127
10234,note_off,0,0,0,,11,,,58,127
10235,note_on,1,0,0,,7,,,79,127
10235,note_on,0,0,0,,3,,,75,127
10464,note_off,229,0,0,,7,,,79,127
10465,note_on,1,0,0,,3,,,63,127
10694,note_off,229,0,0,,3,,,63,127
10694,note_off,0,0,0,,3,,,75,127
10695,note_on,1,0,0,,3,,,75,127
10695,note_on,0,0,0,,7,,,79,127
10809,note_off,114,0,0,,7,,,79,127
10809,note_off,0,0,0,,3,,,75,127
10810,note_on,1,0,0,,2,,,74,127
10810,note_on,0,0,0,,5,,,77,127
10924,note_off,114,0,0,,5,,,77,127
10924,note_off,0,0,0,,2,,,74,127
10925,note_on,1,0,0,,0,,,72,127
10925,note_on,0,0,0,,3,,,75,127
11039,note_off,114,0,0,,3,,,75,127
11039,note_off,0,0,0,,0,,,72,127
11040,note_on,1,0,0,,11,,,70,127
11040,note_on,0,0,0,,2,,,74,127
11154,note_off,114,0,0,,2,,,74,127
11154,note_off,0,0,0,,11,,,70,127
11155,note_on,1,0,0,,8,,,68,127
11155,note_on,0,0,0,,0,,,72,127
11269,note_off,114,0,0,,0,,,72,127
11269,note_off,0,0,0,,8,,,68,127
11270,note_on,1,0,0,,11,,,70,127
11270,note_on,0,0,0,,2,,,74,127
11384,note_off,114,0,0,,2,,,74,127
11384,note_off,0,0,0,,11,,,70,127
11385,note_on,1,0,0,,8,,,68,127
11385,note_on,0,0,0,,0,,,72,127
11499,note_off,114,0,0,,0,,,72,127
11499,note_off,0,0,0,,8,,,68,127
11500,note_on,1,0,0,,7,,,67,127
11500,note_on,0,0,0,,11,,,70,127
11614,note_off,114,0,0,,11,,,70,127
11614,note_off,0,0,0,,7,,,67,127
11615,note_on,1,0,0,,5,,,65,127
11615,note_on,0,0,0,,8,,,68,127
11729,note_off,114,0,0,,8,,,68,127
11729,note_off,0,0,0,,5,,,65,127
11730,note_on,1,0,0,,3,,,63,127
11730,note_on,0,0,0,,7,,,67,127
11844,note_off,114,0,0,,7,,,67,127
11844,note_off,0,0,0,,3,,,63,127
11845,note_on,1,0,0,,5,,,65,127
11845,note_on,0,0,0,,8,,,68,127
11959,note_off,114,0,0,,8,,,68,127
11959,note_off,0,0,0,,5,,,65,127
11960,note_on,1,0,0,,2,,,62,127
11960,note_on,0,0,0,,11,,,70,127
12074,note_off,114,0,0,,11,,,70,127
12074,note_off,0,0,0,,2,,,62,127
12075,note_on,1,0,0,,3,,,63,127
12075,note_on,0,0,0,,7,,,67,127
12188,note_off,113,0,0,,7,,,67,127
12189,note_off,1,0,0,,3,,,63,127
12190,note_on,1,0,0,,7,,,67,127
12304,note_off,114,0,0,,7,,,67,127
12305,note_on,1,0,0,,5,,,65,127
12305,note_on,0,0,0,,3,,,75,127
12419,note_off,114,0,0,,5,,,65,127
12420,note_on,1,0,0,,3,,,63,127
12534,note_off,114,0,0,,3,,,63,127
12534,note_off,0,0,0,,3,,,75,127
12535,note_on,1,0,0,,11,,,70,127
12535,note_on,0,0,0,,2,,,74,127
12648,note_off,113,0,0,,2,,,74,127
12649,note_off,1,0,0,,11,,,70,127
12650,note_on,1,0,0,,2,,,74,127
12764,note_off,114,0,0,,2,,,74,127
12765,note_on,1,0,0,,0,,,72,127
12765,note_on,0,0,0,,5,,,77,127
12879,note_off,114,0,0,,0,,,72,127
12880,note_on,1,0,0,,11,,,70,127
12994,note_off,114,0,0,,11,,,70,127
12994,note_off,0,0,0,,5,,,77,127
12995,note_on,1,0,0,,5,,,65,127
12995,note_on,0,0,0,,8,,,68,127
13108,note_off,113,0,0,,8,,,68,127
13109,note_off,1,0,0,,5,,,65,127
13110,note_on,1,0,0,,8,,,68,127
13224,note_off,114,0,0,,8,,,68,127
13225,note_on,1,0,0,,7,,,67,127
13225,note_on,0,0,0,,5,,,77,127
13339,note_off,114,0,0,,7,,,67,127
13340,note_on,1,0,0,,5,,,65,127
13454,note_off,114,0,0,,5,,,65,127
13454,note_off,0,0,0,,5,,,77,127
13455,note_on,1,0,0,,0,,,72,127
13455,note_on,0,0,0,,3,,,75,127
13568,note_off,113,0,0,,3,,,75,127
13569,note_off,1,0,0,,0,,,72,127
13570,note_on,1,0,0,,3,,,75,127
13684,note_off,114,0,0,,3,,,75,127
13685,note_on,1,0,0,,2,,,74,127
13685,note_on,0,0,0,,7,,,79,127
13799,note_off,114,0,0,,2,,,74,127
13800,note_on,1,0,0,,0,,,72,127
13914,note_off,114,0,0,,0,,,72,127
13914,note_off,0,0,0,,7,,,79,127
13915,note_on,1,0,0,,7,,,67,127
13915,note_on,0,0,0,,11,,,70,127
14028,note_off,113,0,0,,11,,,70,127
14029,note_off,1,0,0,,7,,,67,127
14030,note_on,1,0,0,,11,,,70,127
14144,note_off,114,0,0,,11,,,70,127
14145,note_on,1,0,0,,10,,,69,127
14145,note_on,0,0,0,,7,,,79,127
14259,note_off,114,0,0,,10,,,69,127
14260,note_on,1,0,0,,7,,,67,127
14374,note_off,114,0,0,,7,,,67,127
14374,note_off,0,0,0,,7,,,79,127
14375,note_on,1,0,0,,2,,,74,127
14375,note_on,0,0,0,,6,,,78,127
14488,note_off,113,0,0,,6,,,78,127
14489,note_off,1,0,0,,2,,,74,127
14490,note_on,1,0,0,,6,,,78,127
14604,note_off,114,0,0,,6,,,78,127
14605,note_on,1,0,0,,3,,,75,127
14605,note_on,0,0,0,,10,,,81,127
14719,note_off,114,0,0,,3,,,75,127
14720,note_on,1,0,0,,2,,,74,127
14834,note_off,114,0,0,,2,,,74,127
14834,note_off,0,0,0,,10,,,81,127
14835,note_on,1,0,0,,7,,,79,127
14835,note_on,0,0,0,,11,,,82,127
14949,note_off,114,0,0,,11,,,82,127
14950,note_on,1,0,0,,3,,,75,127
15064,note_off,114,0,0,,3,,,75,127
15064,note_off,0,0,0,,7,,,79,127
15065,note_on,1,0,0,,5,,,77,127
15065,note_on,0,0,0,,10,,,81,127
15179,note_off,114,0,0,,10,,,81,127
15180,note_on,1,0,0,,2,,,74,127
15294,note_off,114,0,0,,2,,,74,127
15294,note_off,0,0,0,,5,,,77,127
15295,note_on,1,0,0,,3,,,75,127
15295,note_on,0,0,0,,7,,,79,127
15409,note_off,114,0,0,,7,,,79,127
15410,note_on,1,0,0,,0,,,72,127
15524,note_off,114,0,0,,0,,,72,127
15524,note_off,0,0,0,,3,,,75,127
15525,note_on,1,0,0,,2,,,74,127
15525,note_on,0,0,0,,5,,,77,127
15639,note_off,114,0,0,,5,,,77,127
15640,note_on,1,0,0,,11,,,70,127
15754,note_off,114,0,0,,11,,,70,127
15754,note_off,0,0,0,,2,,,74,127
15755,note_on,1,0,0,,0,,,72,127
15755,note_on,0,0,0,,3,,,75,127
15869,note_off,114,0,0,,3,,,75,127
15870,note_on,1,0,0,,10,,,69,127
15984,note_off,114,0,0,,10,,,69,127
15984,note_off,0,0,0,,0,,,72,127
15985,note_on,1,0,0,,11,,,70,127
15985,note_on,0,0,0,,2,,,74,127
16099,note_off,114,0,0,,2,,,74,127
16100,note_on,1,0,0,,7,,,67,127
16214,note_off,114,0,0,,7,,,67,127
16214,note_off,0,0,0,,11,,,70,127
16215,note_on,1,0,0,,10,,,69,127
16215,note_on,0,0,0,,0,,,72,127
16329,note_off,114,0,0,,0,,,72,127
16330,note_on,1,0,0,,6,,,66,127
16444,note_off,114,0,0,,6,,,66,127
16444,note_off,0,0,0,,10,,,69,127
16445,note_on,1,0,0,,7,,,67,127
16445,note_on,0,0,0,,11,,,70,127
16558,note_off,113,0,0,,7,,,67,127
16559,note_off,1,0,0,,11,,,70,127
16560,note_on,1,0,0,,7,,,67,127
16674,note_off,114,0,0,,7,,,67,127
16675,note_on,1,0,0,,2,,,50,127
16675,note_on,0,0,0,,10,,,69,127
16675,note_on,0,0,0,,6,,,66,127
16789,note_off,114,0,0,,2,,,50,127
16790,note_on,1,0,0,,2,,,62,127
16904,note_off,114,0,0,,2,,,62,127
16905,note_on,1,0,0,,0,,,60,127
17019,note_off,114,0,0,,0,,,60,127
17019,note_off,0,0,0,,6,,,66,127
17019,note_off,0,0,0,,10,,,69,127
17020,note_on,1,0,0,,11,,,58,127
17020,note_on,0,0,0,,11,,,70,127
17020,note_on,0,0,0,,7,,,67,127
17134,note_off,114,0,0,,7,,,67,127
17134,note_off,0,0,0,,11,,,70,127
17134,note_off,0,0,0,,11,,,58,127
17135,note_on,1,0,0,,3,,,51,127
17135,note_on,0,0,0,,0,,,72,127
17135,note_on,0,0,0,,10,,,69,127
17249,note_off,114,0,0,,3,,,51,127
17250,note_on,1,0,0,,0,,,60,127
17364,note_off,114,0,0,,0,,,60,127
17364,note_off,0,0,0,,10,,,69,127
17364,note_off,0,0,0,,0,,,72,127
17365,note_on,1,0,0,,2,,,50,127
17365,note_on,0,0,0,,11,,,70,127
17365,note_on,0,0,0,,2,,,74,127
17479,note_off,114,0,0,,2,,,50,127
17480,note_on,1,0,0,,11,,,58,127
17594,note_off,114,0,0,,11,,,58,127
17594,note_off,0,0,0,,2,,,74,127
17594,note_off,0,0,0,,11,,,70,127
17595,note_on,1,0,0,,0,,,48,127
17595,note_on,0,0,0,,3,,,75,127
17595,note_on,0,0,0,,0,,,72,127
17709,note_off,114,0,0,,0,,,48,127
17710,note_on,1,0,0,,10,,,57,127
17824,note_off,114,0,0,,10,,,57,127
17824,note_off,0,0,0,,0,,,72,127
17824,note_off,0,0,0,,3,,,75,127
17825,note_on,1,0,0,,11,,,46,127
17825,note_on,0,0,0,,2,,,74,127
17825,note_on,0,0,0,,7,,,67,127
17939,note_off,114,0,0,,11,,,46,127
17940,note_on,1,0,0,,7,,,55,127
18054,note_off,114,0,0,,7,,,55,127
18054,note_off,0,0,0,,7,,,67,127
18054,note_off,0,0,0,,2,,,74,127
18055,note_on,1,0,0,,10,,,45,127
18055,note_on,0,0,0,,6,,,78,127
18055,note_on,0,0,0,,10,,,69,127
18169,note_off,114,0,0,,10,,,45,127
18170,note_on,1,0,0,,10,,,57,127
18284,note_off,114,0,0,,10,,,57,127
18284,note_off,0,0,0,,10,,,69,127
18284,note_off,0,0,0,,6,,,78,127
18285,note_on,1,0,0,,7,,,43,127
18285,note_on,0,0,0,,7,,,79,127
18285,note_on,0,0,0,,11,,,70,127
18399,note_off,114,0,0,,7,,,43,127
18400,note_on,1,0,0,,7,,,55,127
18514,note_off,114,0,0,,7,,,55,127
18514,note_off,0,0,0,,11,,,70,127
18514,note_off,0,0,0,,7,,,79,127
18515,note_on,1,0,0,,6,,,42,127
18515,note_on,0,0,0,,10,,,81,127
18630,note_on,115,0,0,,0,,,72,127
18744,note_off,114,0,0,,0,,,72,127
18744,note_off,0,0,0,,6,,,42,127
18745,note_on,1,0,0,,7,,,43,127
18745,note_on,0,0,0,,11,,,70,127
18859,note_off,114,0,0,,11,,,70,127
18860,note_on,1,0,0,,10,,,69,127
18970,note_off,110,0,0,,10,,,81,127
18974,note_off,4,0,0,,10,,,69,127
18974,note_off,0,0,0,,7,,,43,127
18975,note_on,1,0,0,,0,,,48,127
18975,note_on,0,0,0,,11,,,70,127
19090,note_on,115,0,0,,7,,,79,127
19203,note_off,113,0,0,,11,,,70,127
19204,note_off,1,0,0,,0,,,48,127
19205,note_on,1,0,0,,2,,,50,127
19205,note_on,0,0,0,,10,,,69,127
19318,note_off,113,0,0,,7,,,79,127
19320,note_on,2,0,0,,6,,,78,127
19433,note_off,113,0,0,,10,,,69,127
19434,note_off,1,0,0,,6,,,78,127
19434,note_off,0,0,0,,2,,,50,127
19435,note_on,1,0,0,,7,,,43,127
19435,note_on,0,0,0,,7,,,79,127
19550,note_on,115,0,0,,3,,,75,127
19664,note_off,114,0,0,,3,,,75,127
19664,note_off,0,0,0,,7,,,43,127
19665,note_on,1,0,0,,7,,,67,127
19665,note_on,0,0,0,,2,,,74,127
19779,note_off,114,0,0,,2,,,74,127
19780,note_on,1,0,0,,0,,,72,127
19894,note_off,114,0,0,,0,,,72,127
19895,note_on,1,0,0,,2,,,74,127
20009,note_off,114,0,0,,2,,,74,127
20010,note_on,1,0,0,,11,,,70,127
20124,note_off,114,0,0,,11,,,70,127
20124,note_off,0,0,0,,7,,,67,127
20124,note_off,0,0,0,,7,,,79,127
20125,note_on,1,0,0,,6,,,66,127
20125,note_on,0,0,0,,10,,,81,127
20125,note_on,0,0,0,,0,,,72,127
20239,note_off,114,0,0,,0,,,72,127
20240,note_on,1,0,0,,10,,,69,127
20354,note_off,114,0,0,,10,,,69,127
20354,note_off,0,0,0,,10,,,81,127
20354,note_off,0,0,0,,6,,,66,127
20355,note_on,1,0,0,,7,,,55,127
20355,note_on,0,0,0,,7,,,79,127
20470,note_on,115,0,0,,3,,,75,127
20584,note_off,114,0,0,,3,,,75,127
20584,note_off,0,0,0,,7,,,55,127
20585,note_on,1,0,0,,7,,,67,127
20585,note_on,0,0,0,,2,,,74,127
20699,note_off,114,0,0,,2,,,74,127
20700,note_on,1,0,0,,0,,,72,127
20814,note_off,114,0,0,,0,,,72,127
20815,note_on,1,0,0,,2,,,74,127
20929,note_off,114,0,0,,2,,,74,127
20930,note_on,1,0,0,,11,,,70,127
21044,note_off,114,0,0,,11,,,70,127
21044,note_off,0,0,0,,7,,,67,127
21044,note_off,0,0,0,,7,,,79,127
21045,note_on,1,0,0,,6,,,66,127
21045,note_on,0,0,0,,10,,,81,127
21045,note_on,0,0,0,,0,,,72,127
21159,note_off,114,0,0,,0,,,72,127
21160,note_on,1,0,0,,10,,,69,127
21274,note_off,114,0,0,,10,,,69,127
21274,note_off,0,0,0,,10,,,81,127
21274,note_off,0,0,0,,6,,,66,127
21275,note_on,1,0,0,,7,,,55,127
21275,note_on,0,0,0,,7,,,79,127
21390,note_on,115,0,0,,3,,,75,127
21504,note_off,114,0,0,,3,,,75,127
21504,note_off,0,0,0,,7,,,55,127
21505,note_on,1,0,0,,7,,,67,127
21505,note_on,0,0,0,,2,,,74,127
21619,note_off,114,0,0,,2,,,74,127
21620,note_on,1,0,0,,0,,,72,127
21734,note_off,114,0,0,,0,,,72,127
21735,note_on,1,0,0,,2,,,74,127
21849,note_off,114,0,0,,2,,,74,127
21850,note_on,1,0,0,,11,,,70,127
21964,note_off,114,0,0,,11,,,70,127
21964,note_off,0,0,0,,7,,,67,127
21964,note_off,0,0,0,,7,,,79,127
21965,note_on,1,0,0,,6,,,66,127
21965,note_on,0,0,0,,0,,,72,127
21965,note_on,0,0,0,,10,,,81,127
22079,note_off,114,0,0,,0,,,72,127
22080,note_on,1,0,0,,10,,,69,127
22194,note_off,114,0,0,,10,,,69,127
22194,note_off,0,0,0,,10,,,81,127
22194,note_off,0,0,0,,6,,,66,127
22195,note_on,1,0,0,,7,,,67,127
22195,note_on,0,0,0,,7,,,79,127
22309,note_off,114,0,0,,7,,,79,127
22310,note_on,1,0,0,,3,,,75,127
22424,note_off,114,0,0,,3,,,75,127
22424,note_off,0,0,0,,7,,,67,127
22425,note_on,1,0,0,,0,,,60,127
22425,note_on,0,0,0,,2,,,74,127
22539,note_off,114,0,0,,2,,,74,127
22540,note_on,1,0,0,,0,,,72,127
22654,note_off,114,0,0,,0,,,72,127
22654,note_off,0,0,0,,0,,,60,127
22655,note_on,1,0,0,,2,,,62,127
22655,note_on,0,0,0,,11,,,70,127
22769,note_off,114,0,0,,11,,,70,127
22770,note_on,1,0,0,,10,,,69,127
22884,note_off,114,0,0,,10,,,69,127
22885,note_on,1,0,0,,2,,,50,127
22885,note_on,0,0,0,,7,,,67,127
22999,note_off,114,0,0,,7,,,67,127
23000,note_off,1,0,0,,2,,,62,127
23000,note_on,0,0,0,,6,,,66,127
23114,note_off,114,0,0,,6,,,66,127
23114,note_off,0,0,0,,2,,,50,127
23115,note_on,1,0,0,,7,,,43,127
23115,note_on,0,0,0,,7,,,67,127
23230,note_on,115,0,0,,3,,,63,127
23344,note_off,114,0,0,,3,,,63,127
23344,note_off,0,0,0,,7,,,43,127
23345,note_on,1,0,0,,7,,,55,127
23345,note_on,0,0,0,,2,,,62,127
23459,note_off,114,0,0,,2,,,62,127
23460,note_on,1,0,0,,0,,,60,127
23574,note_off,114,0,0,,0,,,60,127
23575,note_on,1,0,0,,2,,,62,127
23689,note_off,114,0,0,,2,,,62,127
23690,note_on,1,0,0,,11,,,58,127
23804,note_off,114,0,0,,11,,,58,127
23804,note_off,0,0,0,,7,,,55,127
23804,note_off,0,0,0,,7,,,67,127
23805,note_on,1,0,0,,6,,,54,127
23805,note_on,0,0,0,,10,,,69,127
23805,note_on,0,0,0,,0,,,60,127
23919,note_off,114,0,0,,0,,,60,127
23920,note_on,1,0,0,,10,,,57,127
24034,note_off,114,0,0,,10,,,57,127
24034,note_off,0,0,0,,10,,,69,127
24034,note_off,0,0,0,,6,,,54,127
24035,note_on,1,0,0,,7,,,43,127
24035,note_on,0,0,0,,7,,,67,127
24150,note_on,115,0,0,,3,,,63,127
24264,note_off,114,0,0,,3,,,63,127
24264,note_off,0,0,0,,7,,,43,127
24265,note_on,1,0,0,,7,,,55,127
24265,note_on,0,0,0,,2,,,62,127
24379,note_off,114,0,0,,2,,,62,127
24380,note_on,1,0,0,,0,,,60,127
24494,note_off,114,0,0,,0,,,60,127
24495,note_on,1,0,0,,2,,,62,127
24609,note_off,114,0,0,,2,,,62,127
24610,note_on,1,0,0,,11,,,58,127
24724,note_off,114,0,0,,11,,,58,127
24724,note_off,0,0,0,,7,,,55,127
24724,note_off,0,0,0,,7,,,67,127
24725,note_on,1,0,0,,6,,,54,127
24725,note_on,0,0,0,,10,,,69,127
24725,note_on,0,0,0,,0,,,60,127
24839,note_off,114,0,0,,0,,,60,127
24840,note_on,1,0,0,,10,,,57,127
24954,note_off,114,0,0,,10,,,57,127
24954,note_off,0,0,0,,10,,,69,127
24954,note_off,0,0,0,,6,,,54,127
24955,note_on,1,0,0,,7,,,43,127
24955,note_on,0,0,0,,7,,,67,127
25070,note_on,115,0,0,,3,,,63,127
25184,note_off,114,0,0,,3,,,63,127
25184,note_off,0,0,0,,7,,,43,127
25185,note_on,1,0,0,,7,,,55,127
25185,note_on,0,0,0,,2,,,62,127
25299,note_off,114,0,0,,2,,,62,127
25300,note_on,1,0,0,,0,,,60,127
25414,note_off,114,0,0,,0,,,60,127
25415,note_on,1,0,0,,2,,,62,127
25529,note_off,114,0,0,,2,,,62,127
25530,note_on,1,0,0,,11,,,58,127
25644,note_off,114,0,0,,11,,,58,127
25644,note_off,0,0,0,,7,,,55,127
25644,note_off,0,0,0,,7,,,67,127
25645,note_on,1,0,0,,6,,,54,127
25645,note_on,0,0,0,,0,,,60,127
25645,note_on,0,0,0,,10,,,69,127
25759,note_off,114,0,0,,0,,,60,127
25760,note_on,1,0,0,,10,,,57,127
25874,note_off,114,0,0,,10,,,57,127
25874,note_off,0,0,0,,10,,,69,127
25874,note_off,0,0,0,,6,,,54,127
25875,note_on,1,0,0,,7,,,55,127
25875,note_on,0,0,0,,7,,,67,127
25989,note_off,114,0,0,,7,,,67,127
25990,note_on,1,0,0,,3,,,63,127
26104,note_off,114,0,0,,3,,,63,127
26104,note_off,0,0,0,,7,,,55,127
26105,note_on,1,0,0,,0,,,48,127
26105,note_on,0,0,0,,2,,,62,127
26219,note_off,114,0,0,,2,,,62,127
26220,note_on,1,0,0,,0,,,60,127
26334,note_off,114,0,0,,0,,,60,127
26334,note_off,0,0,0,,0,,,48,127
26335,note_on,1,0,0,,2,,,50,127
26335,note_on,0,0,0,,11,,,58,127
26335,note_on,0,0,0,,2,,,62,127
26449,note_off,114,0,0,,11,,,58,127
26450,note_on,1,0,0,,10,,,57,127
26564,note_off,114,0,0,,10,,,57,127
26564,note_off,0,0,0,,2,,,62,127
26565,note_on,1,0,0,,2,,,38,127
26565,note_on,0,0,0,,7,,,55,127
26679,note_off,114,0,0,,7,,,55,127
26680,note_on,1,0,0,,6,,,54,127
26790,note_off,110,0,0,,2,,,50,127
26794,note_off,4,0,0,,6,,,54,127
26794,note_off,0,0,0,,2,,,38,127
26795,note_on,1,0,0,,7,,,43,127
26795,note_on,0,0,0,,7,,,55,127
26909,note_off,114,0,0,,7,,,55,127
26910,note_on,1,0,0,,11,,,58,127
27024,note_off,114,0,0,,11,,,58,127
27025,note_on,1,0,0,,10,,,57,127
27139,note_off,114,0,0,,10,,,57,127
27140,note_on,1,0,0,,7,,,55,127
27254,note_off,114,0,0,,7,,,55,127
27255,note_on,1,0,0,,3,,,63,127
27369,note_off,114,0,0,,3,,,63,127
27370,note_on,1,0,0,,0,,,60,127
27484,note_off,114,0,0,,0,,,60,127
27485,note_on,1,0,0,,6,,,66,127
27599,note_off,114,0,0,,6,,,66,127
27600,note_on,1,0,0,,2,,,62,127
27714,note_off,114,0,0,,2,,,62,127
27714,note_off,0,0,0,,7,,,43,127
27715,note_on,1,0,0,,7,,,43,127
27715,note_on,0,0,0,,7,,,67,127
27829,note_off,114,0,0,,7,,,67,127
27830,note_on,1,0,0,,11,,,70,127
27944,note_off,114,0,0,,11,,,70,127
27945,note_on,1,0,0,,10,,,69,127
28059,note_off,114,0,0,,10,,,69,127
28060,note_on,1,0,0,,7,,,67,127
28174,note_off,114,0,0,,7,,,67,127
28175,note_on,1,0,0,,3,,,75,127
28289,note_off,114,0,0,,3,,,75,127
28290,note_on,1,0,0,,0,,,72,127
28404,note_off,114,0,0,,0,,,72,127
28405,note_on,1,0,0,,6,,,78,127
28519,note_off,114,0,0,,6,,,78,127
28520,note_on,1,0,0,,2,,,74,127
28634,note_off,114,0,0,,2,,,74,127
28634,note_off,0,0,0,,7,,,43,127
28635,note_on,1,0,0,,7,,,43,127
28635,note_on,0,0,0,,7,,,79,127
28750,note_on,115,0,0,,2,,,74,127
28864,note_off,114,0,0,,2,,,74,127
28865,note_on,1,0,0,,3,,,75,127
28979,note_off,114,0,0,,3,,,75,127
28980,note_on,1,0,0,,0,,,72,127
29094,note_off,114,0,0,,0,,,72,127
29095,note_on,1,0,0,,2,,,74,127
29209,note_off,114,0,0,,2,,,74,127
29210,note_on,1,0,0,,12,,,71,127
29324,note_off,114,0,0,,12,,,71,127
29324,note_off,0,0,0,,7,,,79,127
29325,note_on,1,0,0,,3,,,75,127
29325,note_on,0,0,0,,0,,,72,127
29439,note_off,114,0,0,,0,,,72,127
29440,note_on,1,0,0,,10,,,69,127
29554,note_off,114,0,0,,10,,,69,127
29554,note_off,0,0,0,,3,,,75,127
29554,note_off,0,0,0,,7,,,43,127
29555,note_on,1,0,0,,7,,,43,127
29555,note_on,0,0,0,,2,,,74,127
29555,note_on,0,0,0,,12,,,71,127
29669,note_off,114,0,0,,12,,,71,127
29670,note_on,1,0,0,,7,,,67,127
29784,note_off,114,0,0,,7,,,67,127
29784,note_off,0,0,0,,2,,,74,127
29785,note_on,1,0,0,,0,,,72,127
29785,note_on,0,0,0,,8,,,68,127
29899,note_off,114,0,0,,8,,,68,127
29900,note_on,1,0,0,,6,,,66,127
30014,note_off,114,0,0,,6,,,66,127
30014,note_off,0,0,0,,0,,,72,127
30015,note_on,1,0,0,,12,,,71,127
30015,note_on,0,0,0,,7,,,67,127
30129,note_off,114,0,0,,7,,,67,127
30130,note_on,1,0,0,,2,,,62,127
30244,note_off,114,0,0,,2,,,62,127
30244,note_off,0,0,0,,12,,,71,127
30245,note_on,1,0,0,,3,,,63,127
30245,note_on,0,0,0,,0,,,72,127
30359,note_off,114,0,0,,3,,,63,127
30360,note_on,1,0,0,,0,,,60,127
30474,note_off,114,0,0,,0,,,60,127
30474,note_off,0,0,0,,0,,,72,127
30474,note_off,0,0,0,,7,,,43,127
30475,note_on,1,0,0,,7,,,43,127
30475,note_on,0,0,0,,8,,,68,127
30475,note_on,0,0,0,,5,,,65,127
30589,note_off,114,0,0,,5,,,65,127
30590,note_on,1,0,0,,2,,,62,127
30704,note_off,114,0,0,,2,,,62,127
30704,note_off,0,0,0,,8,,,68,127
30705,note_on,1,0,0,,7,,,67,127
30705,note_on,0,0,0,,3,,,63,127
30819,note_off,114,0,0,,3,,,63,127
30820,note_on,1,0,0,,0,,,60,127
30934,note_off,114,0,0,,0,,,60,127
30934,note_off,0,0,0,,7,,,67,127
30935,note_on,1,0,0,,5,,,65,127
30935,note_on,0,0,0,,2,,,62,127
31049,note_off,114,0,0,,2,,,62,127
31050,note_on,1,0,0,,12,,,59,127
31164,note_off,114,0,0,,12,,,59,127
31164,note_off,0,0,0,,5,,,65,127
31165,note_on,1,0,0,,0,,,60,127
31165,note_on,0,0,0,,3,,,63,127
31279,note_off,114,0,0,,0,,,60,127
31280,note_on,1,0,0,,10,,,57,127
31394,note_off,114,0,0,,10,,,57,127
31394,note_off,0,0,0,,3,,,63,127
31394,note_off,0,0,0,,7,,,43,127
31395,note_on,1,0,0,,7,,,43,127
31395,note_on,0,0,0,,2,,,62,127
31395,note_on,0,0,0,,12,,,59,127
31509,note_off,114,0,0,,12,,,59,127
31510,note_on,1,0,0,,7,,,55,127
31624,note_off,114,0,0,,7,,,55,127
31624,note_off,0,0,0,,2,,,62,127
31625,note_on,1,0,0,,10,,,57,127
31739,note_off,114,0,0,,10,,,57,127
31740,note_on,1,0,0,,6,,,54,127
31854,note_off,114,0,0,,6,,,54,127
31855,note_on,1,0,0,,7,,,55,127
31969,note_off,114,0,0,,7,,,55,127
31969,note_off,0,0,0,,7,,,43,127
31970,note_on,1,0,0,,2,,,50,127
32084,note_off,114,0,0,,2,,,50,127
32085,note_on,1,0,0,,12,,,47,127
32199,note_off,114,0,0,,12,,,47,127
32200,note_on,1,0,0,,2,,,50,127
32314,note_off,114,0,0,,2,,,50,127
32315,note_on,1,0,0,,7,,,43,127
32430,note_on,115,0,0,,12,,,47,127
32543,note_off,113,0,0,,7,,,43,127
32544,note_off,1,0,0,,12,,,47,127
32545,note_on,1,0,0,,2,,,50,127
32659,note_off,114,0,0,,2,,,50,127
32660,note_on,1,0,0,,7,,,55,127
32774,note_off,114,0,0,,7,,,55,127
32775,note_on,1,0,0,,12,,,59,127
32890,note_on,115,0,0,,2,,,62,127
32948,note_off,58,0,0,,12,,,59,127
33004,note_off,56,0,0,,2,,,62,127
33005,note_on,1,0,0,,12,,,59,127
33119,note_off,114,0,0,,12,,,59,127
33120,note_on,1,0,0,,7,,,55,127
33234,note_off,114,0,0,,7,,,55,127
33235,note_on,1,0,0,,7,,,43,127
33350,note_on,115,0,0,,2,,,62,127
33464,note_off,114,0,0,,2,,,62,127
33465,note_on,1,0,0,,7,,,67,127
33579,note_off,114,0,0,,7,,,67,127
33580,note_on,1,0,0,,12,,,71,127
33694,note_off,114,0,0,,12,,,71,127
33694,note_off,0,0,0,,7,,,43,127
33695,note_on,1,0,0,,2,,,74,127
33810,note_on,115,0,0,,2,,,62,127
33924,note_off,114,0,0,,2,,,62,127
33925,note_on,1,0,0,,12,,,59,127
34039,note_off,114,0,0,,12,,,59,127
34040,note_on,1,0,0,,7,,,55,127
34154,note_off,114,0,0,,7,,,55,127
34154,note_off,0,0,0,,2,,,74,127
34155,note_on,1,0,0,,7,,,43,127
34270,note_on,115,0,0,,7,,,67,127
34384,note_off,114,0,0,,7,,,67,127
34385,note_on,1,0,0,,12,,,71,127
34499,note_off,114,0,0,,12,,,71,127
34500,note_on,1,0,0,,2,,,74,127
34614,note_off,114,0,0,,2,,,74,127
34614,note_off,0,0,0,,7,,,43,127
34615,note_on,1,0,0,,5,,,77,127
34730,note_on,115,0,0,,2,,,62,127
34844,note_off,114,0,0,,2,,,62,127
34845,note_on,1,0,0,,12,,,59,127
34959,note_off,114,0,0,,12,,,59,127
34960,note_on,1,0,0,,7,,,55,127
35074,note_off,114,0,0,,7,,,55,127
35074,note_off,0,0,0,,5,,,77,127
35075,note_on,1,0,0,,7,,,43,127
35190,note_on,115,0,0,,7,,,67,127
35304,note_off,114,0,0,,7,,,67,127
35305,note_on,1,0,0,,12,,,71,127
35419,note_off,114,0,0,,12,,,71,127
35420,note_on,1,0,0,,2,,,74,127
35534,note_off,114,0,0,,2,,,74,127
35534,note_off,0,0,0,,7,,,43,127
35535,note_on,1,0,0,,7,,,79,127
35649,note_off,114,0,0,,7,,,79,127
35650,note_on,1,0,0,,7,,,55,127
35650,note_on,0,0,0,,5,,,77,127
35764,note_off,114,0,0,,5,,,77,127
35764,note_off,0,0,0,,7,,,55,127
35765,note_on,1,0,0,,12,,,59,127
35765,note_on,0,0,0,,3,,,75,127
35879,note_off,114,0,0,,3,,,75,127
35879,note_off,0,0,0,,12,,,59,127
35880,note_on,1,0,0,,2,,,62,127
35880,note_on,0,0,0,,2,,,74,127
35994,note_off,114,0,0,,2,,,74,127
35994,note_off,0,0,0,,2,,,62,127
35995,note_on,1,0,0,,7,,,67,127
35995,note_on,0,0,0,,3,,,75,127
36109,note_off,114,0,0,,3,,,75,127
36109,note_off,0,0,0,,7,,,67,127
36110,note_on,1,0,0,,5,,,65,127
36110,note_on,0,0,0,,2,,,74,127
36224,note_off,114,0,0,,2,,,74,127
36224,note_off,0,0,0,,5,,,65,127
36225,note_on,1,0,0,,3,,,63,127
36225,note_on,0,0,0,,0,,,72,127
36339,note_off,114,0,0,,0,,,72,127
36339,note_off,0,0,0,,3,,,63,127
36340,note_on,1,0,0,,2,,,62,127
36340,note_on,0,0,0,,12,,,71,127
36454,note_off,114,0,0,,12,,,71,127
36454,note_off,0,0,0,,2,,,62,127
36455,note_on,1,0,0,,3,,,63,127
36455,note_on,0,0,0,,0,,,72,127
36569,note_off,114,0,0,,0,,,72,127
36569,note_off,0,0,0,,3,,,63,127
36570,note_on,1,0,0,,2,,,62,127
36570,note_on,0,0,0,,5,,,65,127
36684,note_off,114,0,0,,5,,,65,127
36684,note_off,0,0,0,,2,,,62,127
36685,note_on,1,0,0,,0,,,60,127
36685,note_on,0,0,0,,3,,,63,127
36799,note_off,114,0,0,,3,,,63,127
36799,note_off,0,0,0,,0,,,60,127
36800,note_on,1,0,0,,12,,,59,127
36800,note_on,0,0,0,,2,,,62,127
36914,note_off,114,0,0,,2,,,62,127
36914,note_off,0,0,0,,12,,,59,127
36915,note_on,1,0,0,,0,,,48,127
36915,note_on,0,0,0,,3,,,63,127
37144,note_off,229,0,0,,3,,,63,127
37145,note_on,1,0,0,,7,,,79,127
37259,note_off,114,0,0,,7,,,79,127
37260,note_on,1,0,0,,5,,,77,127
37374,note_off,114,0,0,,5,,,77,127
37375,note_on,1,0,0,,3,,,75,127
37489,note_off,114,0,0,,3,,,75,127
37490,note_on,1,0,0,,2,,,74,127
37604,note_off,114,0,0,,2,,,74,127
37604,note_off,0,0,0,,0,,,48,127
37605,note_on,1,0,0,,0,,,72,127
37605,note_on,0,0,0,,3,,,75,127
37719,note_off,114,0,0,,3,,,75,127
37720,note_on,1,0,0,,7,,,79,127
37834,note_off,114,0,0,,7,,,79,127
37834,note_off,0,0,0,,0,,,72,127
37835,note_on,1,0,0,,8,,,68,127
37835,note_on,0,0,0,,0,,,84,127
37949,note_off,114,0,0,,0,,,84,127
37950,note_on,1,0,0,,0,,,72,127
38064,note_off,114,0,0,,0,,,72,127
38065,note_on,1,0,0,,8,,,56,127
38065,note_on,0,0,0,,0,,,84,127
38179,note_off,114,0,0,,0,,,84,127
38180,note_on,1,0,0,,11,,,82,127
38290,note_off,110,0,0,,8,,,68,127
38294,note_off,4,0,0,,11,,,82,127
38294,note_off,0,0,0,,8,,,56,127
38295,note_on,1,0,0,,8,,,68,127
38295,note_on,0,0,0,,8,,,80,127
38409,note_off,114,0,0,,8,,,80,127
38410,note_on,1,0,0,,7,,,79,127
38524,note_off,114,0,0,,7,,,79,127
38524,note_off,0,0,0,,8,,,68,127
38525,note_on,1,0,0,,8,,,68,127
38525,note_on,0,0,0,,5,,,77,127
38639,note_off,114,0,0,,5,,,77,127
38640,note_on,1,0,0,,3,,,75,127
38754,note_off,114,0,0,,3,,,75,127
38754,note_off,0,0,0,,8,,,68,127
38755,note_on,1,0,0,,11,,,70,127
38755,note_on,0,0,0,,3,,,75,127
38869,note_off,114,0,0,,3,,,75,127
38870,note_on,1,0,0,,2,,,74,127
38984,note_off,114,0,0,,2,,,74,127
38985,note_on,1,0,0,,11,,,58,127
38985,note_on,0,0,0,,5,,,77,127
39099,note_off,114,0,0,,5,,,77,127
39100,note_on,1,0,0,,3,,,75,127
39210,note_off,110,0,0,,11,,,70,127
39214,note_off,4,0,0,,3,,,75,127
39214,note_off,0,0,0,,11,,,58,127
39215,note_on,1,0,0,,11,,,70,127
39215,note_on,0,0,0,,2,,,74,127
39329,note_off,114,0,0,,2,,,74,127
39330,note_on,1,0,0,,0,,,72,127
39444,note_off,114,0,0,,0,,,72,127
39444,note_off,0,0,0,,11,,,70,127
39445,note_on,1,0,0,,8,,,68,127
39445,note_on,0,0,0,,2,,,74,127
39559,note_off,114,0,0,,2,,,74,127
39560,note_on,1,0,0,,5,,,77,127
39674,note_off,114,0,0,,5,,,77,127
39674,note_off,0,0,0,,8,,,68,127
39675,note_on,1,0,0,,7,,,67,127
39675,note_on,0,0,0,,11,,,82,127
39789,note_off,114,0,0,,11,,,82,127
39790,note_on,1,0,0,,11,,,70,127
39904,note_off,114,0,0,,11,,,70,127
39905,note_on,1,0,0,,7,,,55,127
39905,note_on,0,0,0,,11,,,82,127
40019,note_off,114,0,0,,11,,,82,127
40020,note_on,1,0,0,,8,,,80,127
40130,note_off,110,0,0,,7,,,67,127
40134,note_off,4,0,0,,8,,,80,127
40134,note_off,0,0,0,,7,,,55,127
40135,note_on,1,0,0,,7,,,67,127
40135,note_on,0,0,0,,7,,,79,127
40249,note_off,114,0,0,,7,,,79,127
40250,note_on,1,0,0,,5,,,77,127
40364,note_off,114,0,0,,5,,,77,127
40364,note_off,0,0,0,,7,,,67,127
40365,note_on,1,0,0,,7,,,67,127
40365,note_on,0,0,0,,3,,,75,127
40479,note_off,114,0,0,,3,,,75,127
40480,note_on,1,0,0,,2,,,74,127
40594,note_off,114,0,0,,2,,,74,127
40594,note_off,0,0,0,,7,,,67,127
40595,note_on,1,0,0,,8,,,68,127
40595,note_on,0,0,0,,2,,,74,127
40709,note_off,114,0,0,,2,,,74,127
40710,note_on,1,0,0,,0,,,72,127
40824,note_off,114,0,0,,0,,,72,127
40825,note_on,1,0,0,,8,,,56,127
40825,note_on,0,0,0,,3,,,75,127
40939,note_off,114,0,0,,3,,,75,127
40940,note_on,1,0,0,,2,,,74,127
41050,note_off,110,0,0,,8,,,68,127
41054,note_off,4,0,0,,2,,,74,127
41054,note_off,0,0,0,,8,,,56,127
41055,note_on,1,0,0,,8,,,68,127
41055,note_on,0,0,0,,0,,,72,127
41169,note_off,114,0,0,,0,,,72,127
41170,note_on,1,0,0,,12,,,71,127
41284,note_off,114,0,0,,12,,,71,127
41284,note_off,0,0,0,,8,,,68,127
41285,note_on,1,0,0,,7,,,67,127
41285,note_on,0,0,0,,0,,,72,127
41399,note_off,114,0,0,,0,,,72,127
41400,note_on,1,0,0,,3,,,75,127
41514,note_off,114,0,0,,3,,,75,127
41514,note_off,0,0,0,,7,,,67,127
41515,note_on,1,0,0,,5,,,65,127
41515,note_on,0,0,0,,8,,,80,127
41629,note_off,114,0,0,,8,,,80,127
41630,note_on,1,0,0,,8,,,68,127
41744,note_off,114,0,0,,8,,,68,127
41745,note_on,1,0,0,,5,,,53,127
41745,note_on,0,0,0,,8,,,80,127
41859,note_off,114,0,0,,8,,,80,127
41860,note_on,1,0,0,,7,,,79,127
41970,note_off,110,0,0,,5,,,65,127
41974,note_off,4,0,0,,7,,,79,127
41974,note_off,0,0,0,,5,,,53,127
41975,note_on,1,0,0,,5,,,65,127
41975,note_on,0,0,0,,5,,,77,127
42089,note_off,114,0,0,,5,,,77,127
42090,note_on,1,0,0,,3,,,75,127
42204,note_off,114,0,0,,3,,,75,127
42204,note_off,0,0,0,,5,,,65,127
42205,note_on,1,0,0,,5,,,65,127
42205,note_on,0,0,0,,2,,,74,127
42319,note_off,114,0,0,,2,,,74,127
42320,note_on,1,0,0,,0,,,72,127
42434,note_off,114,0,0,,0,,,72,127
42434,note_off,0,0,0,,5,,,65,127
42435,note_on,1,0,0,,7,,,67,127
42435,note_on,0,0,0,,0,,,72,127
42549,note_off,114,0,0,,0,,,72,127
42550,note_on,1,0,0,,11,,,70,127
42664,note_off,114,0,0,,11,,,70,127
42665,note_on,1,0,0,,7,,,55,127
42665,note_on,0,0,0,,2,,,74,127
42779,note_off,114,0,0,,2,,,74,127
42780,note_on,1,0,0,,0,,,72,127
42890,note_off,110,0,0,,7,,,67,127
42894,note_off,4,0,0,,0,,,72,127
42894,note_off,0,0,0,,7,,,55,127
42895,note_on,1,0,0,,7,,,67,127
42895,note_on,0,0,0,,11,,,70,127
43009,note_off,114,0,0,,11,,,70,127
43010,note_on,1,0,0,,10,,,69,127
43124,note_off,114,0,0,,10,,,69,127
43124,note_off,0,0,0,,7,,,67,127
43125,note_on,1,0,0,,5,,,65,127
43125,note_on,0,0,0,,11,,,70,127
43239,note_off,114,0,0,,11,,,70,127
43240,note_on,1,0,0,,2,,,74,127
43354,note_off,114,0,0,,2,,,74,127
43354,note_off,0,0,0,,5,,,65,127
43355,note_on,1,0,0,,4,,,64,127
43355,note_on,0,0,0,,7,,,79,127
43469,note_off,114,0,0,,7,,,79,127
43470,note_on,1,0,0,,7,,,67,127
43584,note_off,114,0,0,,7,,,67,127
43585,note_on,1,0,0,,4,,,52,127
43585,note_on,0,0,0,,7,,,79,127
43699,note_off,114,0,0,,7,,,79,127
43700,note_on,1,0,0,,5,,,77,127
43810,note_off,110,0,0,,4,,,64,127
43814,note_off,4,0,0,,5,,,77,127
43814,note_off,0,0,0,,4,,,52,127
43815,note_on,1,0,0,,4,,,64,127
43815,note_on,0,0,0,,4,,,76,127
43929,note_off,114,0,0,,4,,,76,127
43930,note_on,1,0,0,,1,,,73,127
44044,note_off,114,0,0,,1,,,73,127
44044,note_off,0,0,0,,4,,,64,127
44045,note_on,1,0,0,,4,,,64,127
44045,note_on,0,0,0,,0,,,72,127
44159,note_off,114,0,0,,0,,,72,127
44160,note_on,1,0,0,,11,,,70,127
44274,note_off,114,0,0,,11,,,70,127
44274,note_off,0,0,0,,4,,,64,127
44275,note_on,1,0,0,,5,,,65,127
44275,note_on,0,0,0,,11,,,70,127
44389,note_off,114,0,0,,11,,,70,127
44390,note_on,1,0,0,,8,,,68,127
44504,note_off,114,0,0,,8,,,68,127
44505,note_on,1,0,0,,5,,,53,127
44505,note_on,0,0,0,,8,,,68,127
44619,note_off,114,0,0,,8,,,68,127
44620,note_on,1,0,0,,7,,,67,127
44730,note_off,110,0,0,,5,,,65,127
44734,note_off,4,0,0,,7,,,67,127
44734,note_off,0,0,0,,5,,,53,127
44735,note_on,1,0,0,,5,,,65,127
44735,note_on,0,0,0,,7,,,67,127
44849,note_off,114,0,0,,7,,,67,127
44850,note_on,1,0,0,,8,,,68,127
44964,note_off,114,0,0,,8,,,68,127
44964,note_off,0,0,0,,5,,,65,127
44965,note_on,1,0,0,,3,,,63,127
44965,note_on,0,0,0,,8,,,68,127
45079,note_off,114,0,0,,8,,,68,127
45080,note_on,1,0,0,,0,,,72,127
45194,note_off,114,0,0,,0,,,72,127
45194,note_off,0,0,0,,3,,,63,127
45195,note_on,1,0,0,,1,,,61,127
45195,note_on,0,0,0,,0,,,72,127
45309,note_off,114,0,0,,0,,,72,127
45310,note_on,1,0,0,,11,,,70,127
45424,note_off,114,0,0,,11,,,70,127
45424,note_off,0,0,0,,1,,,61,127
45425,note_on,1,0,0,,0,,,60,127
45425,note_on,0,0,0,,11,,,70,127
45539,note_off,114,0,0,,11,,,70,127
45540,note_on,1,0,0,,8,,,68,127
45654,note_off,114,0,0,,8,,,68,127
45654,note_off,0,0,0,,0,,,60,127
45655,note_on,1,0,0,,11,,,58,127
45655,note_on,0,0,0,,8,,,68,127
45769,note_off,114,0,0,,8,,,68,127
45770,note_on,1,0,0,,7,,,67,127
45884,note_off,114,0,0,,7,,,67,127
45884,note_off,0,0,0,,11,,,58,127
45885,note_on,1,0,0,,1,,,61,127
45885,note_on,0,0,0,,7,,,67,127
45999,note_off,114,0,0,,7,,,67,127
46000,note_on,1,0,0,,5,,,65,127
46114,note_off,114,0,0,,5,,,65,127
46114,note_off,0,0,0,,1,,,61,127
46115,note_on,1,0,0,,0,,,60,127
46115,note_on,0,0,0,,4,,,64,127
46344,note_off,229,0,0,,4,,,64,127
46344,note_off,0,0,0,,0,,,60,127
46345,note_on,1,0,0,,0,,,84,127
46345,note_on,0,0,0,,4,,,64,127
46459,note_off,114,0,0,,0,,,84,127
46460,note_on,1,0,0,,11,,,82,127
46574,note_off,114,0,0,,11,,,82,127
46574,note_off,0,0,0,,4,,,64,127
46575,note_on,1,0,0,,8,,,80,127
46575,note_on,0,0,0,,5,,,65,127
46689,note_off,114,0,0,,8,,,80,127
46690,note_on,1,0,0,,7,,,79,127
46804,note_off,114,0,0,,7,,,79,127
46804,note_off,0,0,0,,5,,,65,127
46805,note_on,1,0,0,,5,,,77,127
46805,note_on,0,0,0,,8,,,68,127
46919,note_off,114,0,0,,5,,,77,127
46920,note_on,1,0,0,,3,,,75,127
47034,note_off,114,0,0,,3,,,75,127
47034,note_off,0,0,0,,8,,,68,127
47035,note_on,1,0,0,,1,,,73,127
47035,note_on,0,0,0,,11,,,70,127
47264,note_off,229,0,0,,11,,,70,127
47264,note_off,0,0,0,,1,,,73,127
47265,note_on,1,0,0,,1,,,61,127
47265,note_on,0,0,0,,11,,,82,127
47379,note_off,114,0,0,,11,,,82,127
47380,note_on,1,0,0,,8,,,80,127
47494,note_off,114,0,0,,8,,,80,127
47494,note_off,0,0,0,,1,,,61,127
47495,note_on,1,0,0,,3,,,63,127
47495,note_on,0,0,0,,7,,,79,127
47609,note_off,114,0,0,,7,,,79,127
47610,note_on,1,0,0,,5,,,77,127
47724,note_off,114,0,0,,5,,,77,127
47724,note_off,0,0,0,,3,,,63,127
47725,note_on,1,0,0,,7,,,67,127
47725,note_on,0,0,0,,3,,,75,127
47839,note_off,114,0,0,,3,,,75,127
47840,note_on,1,0,0,,1,,,73,127
47954,note_off,114,0,0,,1,,,73,127
47954,note_off,0,0,0,,7,,,67,127
47955,note_on,1,0,0,,8,,,68,127
47955,note_on,0,0,0,,0,,,72,127
48184,note_off,229,0,0,,0,,,72,127
48184,note_off,0,0,0,,8,,,68,127
48185,note_on,1,0,0,,8,,,80,127
48185,note_on,0,0,0,,0,,,60,127
48299,note_off,114,0,0,,8,,,80,127
48300,note_on,1,0,0,,7,,,79,127
48414,note_off,114,0,0,,7,,,79,127
48414,note_off,0,0,0,,0,,,60,127
48415,note_on,1,0,0,,5,,,77,127
48415,note_on,0,0,0,,1,,,61,127
48529,note_off,114,0,0,,5,,,77,127
48530,note_on,1,0,0,,3,,,75,127
48644,note_off,114,0,0,,3,,,75,127
48644,note_off,0,0,0,,1,,,61,127
48645,note_on,1,0,0,,1,,,73,127
48645,note_on,0,0,0,,5,,,65,127
48759,note_off,114,0,0,,1,,,73,127
48760,note_on,1,0,0,,0,,,72,127
48874,note_off,114,0,0,,0,,,72,127
48874,note_off,0,0,0,,5,,,65,127
48875,note_on,1,0,0,,11,,,70,127
48875,note_on,0,0,0,,7,,,67,127
49104,note_off,229,0,0,,7,,,67,127
49104,note_off,0,0,0,,11,,,70,127
49105,note_on,1,0,0,,11,,,58,127
49105,note_on,0,0,0,,7,,,79,127
49219,note_off,114,0,0,,7,,,79,127
49220,note_on,1,0,0,,5,,,77,127
49334,note_off,114,0,0,,5,,,77,127
49334,note_off,0,0,0,,11,,,58,127
49335,note_on,1,0,0,,0,,,60,127
49335,note_on,0,0,0,,4,,,76,127
49449,note_off,114,0,0,,4,,,76,127
49450,note_on,1,0,0,,1,,,73,127
49564,note_off,114,0,0,,1,,,73,127
49564,note_off,0,0,0,,0,,,60,127
49565,note_on,1,0,0,,4,,,64,127
49565,note_on,0,0,0,,0,,,72,127
49679,note_off,114,0,0,,0,,,72,127
49680,note_on,1,0,0,,11,,,70,127
49794,note_off,114,0,0,,11,,,70,127
49794,note_off,0,0,0,,4,,,64,127
49795,note_on,1,0,0,,5,,,65,127
49795,note_on,0,0,0,,8,,,68,127
49909,note_off,114,0,0,,8,,,68,127
49910,note_on,1,0,0,,12,,,71,127
50024,note_off,114,0,0,,12,,,71,127
50024,note_off,0,0,0,,5,,,65,127
50025,note_on,1,0,0,,3,,,63,127
50025,note_on,0,0,0,,0,,,72,127
50140,note_on,115,0,0,,7,,,67,127
50254,note_off,114,0,0,,7,,,67,127
50254,note_off,0,0,0,,3,,,63,127
50255,note_on,1,0,0,,2,,,62,127
50255,note_on,0,0,0,,5,,,65,127
50368,note_off,113,0,0,,0,,,72,127
50370,note_on,2,0,0,,5,,,77,127
50483,note_off,113,0,0,,5,,,65,127
50484,note_off,1,0,0,,5,,,77,127
50484,note_off,0,0,0,,2,,,62,127
50485,note_on,1,0,0,,7,,,55,127
50485,note_on,0,0,0,,3,,,75,127
50599,note_off,114,0,0,,3,,,75,127
50600,note_on,1,0,0,,2,,,74,127
50714,note_off,114,0,0,,2,,,74,127
50714,note_off,0,0,0,,7,,,55,127
50715,note_on,1,0,0,,0,,,60,127
50715,note_on,0,0,0,,3,,,75,127
50829,note_off,114,0,0,,3,,,75,127
50830,note_on,1,0,0,,5,,,77,127
50944,note_off,114,0,0,,5,,,77,127
50944,note_off,0,0,0,,0,,,60,127
50945,note_on,1,0,0,,11,,,58,127
50945,note_on,0,0,0,,7,,,79,127
51060,note_on,115,0,0,,2,,,74,127
51174,note_off,114,0,0,,2,,,74,127
51174,note_off,0,0,0,,7,,,79,127
51174,note_off,0,0,0,,11,,,58,127
51175,note_on,1,0,0,,8,,,56,127
51175,note_on,0,0,0,,5,,,77,127
51175,note_on,0,0,0,,0,,,72,127
51289,note_off,114,0,0,,5,,,77,127
51290,note_on,1,0,0,,3,,,75,127
51404,note_off,114,0,0,,3,,,75,127
51404,note_off,0,0,0,,8,,,56,127
51405,note_on,1,0,0,,5,,,65,127
51405,note_on,0,0,0,,2,,,74,127
51517,note_off,112,0,0,,0,,,72,127
51519,note_off,2,0,0,,2,,,74,127
51520,note_on,1,0,0,,0,,,72,127
51634,note_off,114,0,0,,0,,,72,127
51634,note_off,0,0,0,,5,,,65,127
51635,note_on,1,0,0,,7,,,55,127
51635,note_on,0,0,0,,12,,,71,127
51864,note_off,229,0,0,,12,,,71,127
51864,note_off,0,0,0,,7,,,55,127
51865,note_on,1,0,0,,7,,,79,127
51865,note_on,0,0,0,,12,,,59,127
51979,note_off,114,0,0,,7,,,79,127
51980,note_on,1,0,0,,5,,,77,127
52094,note_off,114,0,0,,5,,,77,127
52094,note_off,0,0,0,,12,,,59,127
52095,note_on,1,0,0,,3,,,75,127
52095,note_on,0,0,0,,0,,,60,127
52209,note_off,114,0,0,,3,,,75,127
52210,note_on,1,0,0,,2,,,74,127
52324,note_off,114,0,0,,2,,,74,127
52324,note_off,0,0,0,,0,,,60,127
52325,note_on,1,0,0,,0,,,72,127
52325,note_on,0,0,0,,3,,,63,127
52439,note_off,114,0,0,,0,,,72,127
52440,note_on,1,0,0,,11,,,70,127
52554,note_off,114,0,0,,11,,,70,127
52554,note_off,0,0,0,,3,,,63,127
52555,note_on,1,0,0,,8,,,68,127
52555,note_on,0,0,0,,5,,,65,127
52784,note_off,229,0,0,,5,,,65,127
52784,note_off,0,0,0,,8,,,68,127
52785,note_on,1,0,0,,8,,,56,127
52785,note_on,0,0,0,,5,,,77,127
52899,note_off,114,0,0,,5,,,77,127
52900,note_on,1,0,0,,3,,,75,127
53014,note_off,114,0,0,,3,,,75,127
53014,note_off,0,0,0,,8,,,56,127
53015,note_on,1,0,0,,11,,,58,127
53015,note_on,0,0,0,,2,,,74,127
53129,note_off,114,0,0,,2,,,74,127
53130,note_on,1,0,0,,0,,,72,127
53244,note_off,114,0,0,,0,,,72,127
53244,note_off,0,0,0,,11,,,58,127
53245,note_on,1,0,0,,2,,,62,127
53245,note_on,0,0,0,,11,,,70,127
53359,note_off,114,0,0,,11,,,70,127
53360,note_on,1,0,0,,8,,,68,127
53474,note_off,114,0,0,,8,,,68,127
53474,note_off,0,0,0,,2,,,62,127
53475,note_on,1,0,0,,3,,,63,127
53475,note_on,0,0,0,,7,,,67,127
53704,note_off,229,0,0,,7,,,67,127
53704,note_off,0,0,0,,3,,,63,127
53705,note_on,1,0,0,,3,,,75,127
53705,note_on,0,0,0,,7,,,55,127
53819,note_off,114,0,0,,3,,,75,127
53820,note_on,1,0,0,,2,,,74,127
53934,note_off,114,0,0,,2,,,74,127
53934,note_off,0,0,0,,7,,,55,127
53935,note_on,1,0,0,,0,,,72,127
53935,note_on,0,0,0,,8,,,56,127
54049,note_off,114,0,0,,0,,,72,127
54050,note_on,1,0,0,,11,,,70,127
54164,note_off,114,0,0,,11,,,70,127
54164,note_off,0,0,0,,8,,,56,127
54165,note_on,1,0,0,,8,,,68,127
54165,note_on,0,0,0,,0,,,60,127
54279,note_off,114,0,0,,8,,,68,127
54280,note_on,1,0,0,,7,,,67,127
54394,note_off,114,0,0,,7,,,67,127
54394,note_off,0,0,0,,0,,,60,127
54395,note_on,1,0,0,,5,,,65,127
54395,note_on,0,0,0,,2,,,62,127
54624,note_off,229,0,0,,2,,,62,127
54624,note_off,0,0,0,,5,,,65,127
54625,note_on,1,0,0,,5,,,53,127
54625,note_on,0,0,0,,2,,,74,127
54739,note_off,114,0,0,,2,,,74,127
54740,note_on,1,0,0,,0,,,72,127
54854,note_off,114,0,0,,0,,,72,127
54854,note_off,0,0,0,,5,,,53,127
54855,note_on,1,0,0,,7,,,55,127
54855,note_on,0,0,0,,12,,,71,127
54969,note_off,114,0,0,,12,,,71,127
54970,note_on,1,0,0,,8,,,68,127
55084,note_off,114,0,0,,8,,,68,127
55084,note_off,0,0,0,,7,,,55,127
55085,note_on,1,0,0,,12,,,59,127
55085,note_on,0,0,0,,7,,,67,127
55199,note_off,114,0,0,,7,,,67,127
55200,note_on,1,0,0,,5,,,65,127
55314,note_off,114,0,0,,5,,,65,127
55314,note_off,0,0,0,,12,,,59,127
55315,note_on,1,0,0,,0,,,60,127
55315,note_on,0,0,0,,3,,,63,127
55429,note_off,114,0,0,,3,,,63,127
55430,note_on,1,0,0,,5,,,65,127
55544,note_off,114,0,0,,5,,,65,127
55544,note_off,0,0,0,,0,,,60,127
55545,note_on,1,0,0,,11,,,58,127
55545,note_on,0,0,0,,7,,,67,127
55660,note_on,115,0,0,,2,,,62,127
55774,note_off,114,0,0,,2,,,62,127
55774,note_off,0,0,0,,7,,,67,127
55774,note_off,0,0,0,,11,,,58,127
55775,note_on,1,0,0,,8,,,56,127
55775,note_on,0,0,0,,5,,,65,127
55775,note_on,0,0,0,,0,,,60,127
55889,note_off,114,0,0,,5,,,65,127
55890,note_on,1,0,0,,3,,,63,127
56004,note_off,114,0,0,,3,,,63,127
56004,note_off,0,0,0,,8,,,56,127
56005,note_on,1,0,0,,5,,,53,127
56005,note_on,0,0,0,,2,,,62,127
56111,note_off,106,0,0,,0,,,60,127
56119,note_off,8,0,0,,2,,,62,127
56120,note_on,1,0,0,,0,,,60,127
56234,note_off,114,0,0,,0,,,60,127
56234,note_off,0,0,0,,5,,,53,127
56235,note_on,1,0,0,,7,,,55,127
56235,note_on,0,0,0,,2,,,74,127
56235,note_on,0,0,0,,12,,,71,127
56349,note_off,114,0,0,,7,,,55,127
56350,note_on,1,0,0,,7,,,67,127
56464,note_off,114,0,0,,7,,,67,127
56465,note_on,1,0,0,,5,,,65,127
56579,note_off,114,0,0,,5,,,65,127
56579,note_off,0,0,0,,12,,,71,127
56579,note_off,0,0,0,,2,,,74,127
56580,note_on,1,0,0,,3,,,63,127
56580,note_on,0,0,0,,0,,,72,127
56580,note_on,0,0,0,,3,,,75,127
56694,note_off,114,0,0,,3,,,75,127
56694,note_off,0,0,0,,0,,,72,127
56694,note_off,0,0,0,,3,,,63,127
56695,note_on,1,0,0,,8,,,56,127
56695,note_on,0,0,0,,2,,,74,127
56695,note_on,0,0,0,,12,,,71,127
56809,note_off,114,0,0,,8,,,56,127
56810,note_on,1,0,0,,5,,,65,127
56924,note_off,114,0,0,,5,,,65,127
56924,note_off,0,0,0,,12,,,71,127
56924,note_off,0,0,0,,2,,,74,127
56925,note_on,1,0,0,,7,,,55,127
56925,note_on,0,0,0,,3,,,75,127
56925,note_on,0,0,0,,0,,,72,127
57039,note_off,114,0,0,,7,,,55,127
57040,note_on,1,0,0,,3,,,63,127
57154,note_off,114,0,0,,3,,,63,127
57154,note_off,0,0,0,,0,,,72,127
57154,note_off,0,0,0,,3,,,75,127
57155,note_on,1,0,0,,5,,,53,127
57155,note_on,0,0,0,,5,,,77,127
57155,note_on,0,0,0,,2,,,74,127
57269,note_off,114,0,0,,5,,,53,127
57270,note_on,1,0,0,,2,,,62,127
57384,note_off,114,0,0,,2,,,62,127
57384,note_off,0,0,0,,2,,,74,127
57384,note_off,0,0,0,,5,,,77,127
57385,note_on,1,0,0,,3,,,51,127
57385,note_on,0,0,0,,7,,,79,127
57385,note_on,0,0,0,,3,,,75,127
57499,note_off,114,0,0,,3,,,51,127
57500,note_on,1,0,0,,0,,,60,127
57614,note_off,114,0,0,,0,,,60,127
57614,note_off,0,0,0,,3,,,75,127
57614,note_off,0,0,0,,7,,,79,127
57615,note_on,1,0,0,,2,,,50,127
57615,note_on,0,0,0,,2,,,74,127
57615,note_on,0,0,0,,5,,,77,127
57729,note_off,114,0,0,,5,,,77,127
57729,note_off,0,0,0,,2,,,74,127
57729,note_off,0,0,0,,2,,,50,127
57730,note_on,1,0,0,,12,,,59,127
57730,note_on,0,0,0,,3,,,75,127
57844,note_off,114,0,0,,3,,,75,127
57844,note_off,0,0,0,,12,,,59,127
57845,note_on,1,0,0,,0,,,48,127
57845,note_on,0,0,0,,2,,,74,127
57959,note_off,114,0,0,,2,,,74,127
57959,note_off,0,0,0,,0,,,48,127
57960,note_on,1,0,0,,0,,,60,127
57960,note_on,0,0,0,,0,,,72,127
58074,note_off,114,0,0,,0,,,72,127
58074,note_off,0,0,0,,0,,,60,127
58075,note_on,1,0,0,,7,,,43,127
58075,note_on,0,0,0,,12,,,59,127
58075,note_on,0,0,0,,2,,,62,127
58189,note_off,114,0,0,,7,,,43,127
58190,note_on,1,0,0,,7,,,55,127
58304,note_off,114,0,0,,7,,,55,127
58305,note_on,1,0,0,,5,,,53,127
58419,note_off,114,0,0,,5,,,53,127
58419,note_off,0,0,0,,2,,,62,127
58419,note_off,0,0,0,,12,,,59,127
58420,note_on,1,0,0,,3,,,51,127
58420,note_on,0,0,0,,3,,,63,127
58420,note_on,0,0,0,,0,,,60,127
58534,note_off,114,0,0,,0,,,60,127
58534,note_off,0,0,0,,3,,,63,127
58534,note_off,0,0,0,,3,,,51,127
58535,note_on,1,0,0,,8,,,44,127
58535,note_on,0,0,0,,12,,,59,127
58535,note_on,0,0,0,,2,,,62,127
58649,note_off,114,0,0,,8,,,44,127
58650,note_on,1,0,0,,5,,,53,127
58764,note_off,114,0,0,,5,,,53,127
58764,note_off,0,0,0,,2,,,62,127
58764,note_off,0,0,0,,12,,,59,127
58765,note_on,1,0,0,,7,,,43,127
58765,note_on,0,0,0,,3,,,63,127
58765,note_on,0,0,0,,0,,,60,127
58879,note_off,114,0,0,,7,,,43,127
58880,note_on,1,0,0,,3,,,51,127
58994,note_off,114,0,0,,3,,,51,127
58994,note_off,0,0,0,,0,,,60,127
58994,note_off,0,0,0,,3,,,63,127
58995,note_on,1,0,0,,5,,,41,127
58995,note_on,0,0,0,,5,,,65,127
58995,note_on,0,0,0,,2,,,62,127
59109,note_off,114,0,0,,5,,,41,127
59110,note_on,1,0,0,,2,,,50,127
59224,note_off,114,0,0,,2,,,50,127
59224,note_off,0,0,0,,2,,,62,127
59224,note_off,0,0,0,,5,,,65,127
59225,note_on,1,0,0,,3,,,39,127
59225,note_on,0,0,0,,3,,,63,127
59225,note_on,0,0,0,,7,,,67,127
59339,note_off,114,0,0,,3,,,39,127
59340,note_on,1,0,0,,0,,,48,127
59454,note_off,114,0,0,,0,,,48,127
59454,note_off,0,0,0,,7,,,67,127
59454,note_off,0,0,0,,3,,,63,127
59455,note_on,1,0,0,,2,,,38,127
59455,note_on,0,0,0,,2,,,62,127
59455,note_on,0,0,0,,5,,,65,127
59569,note_off,114,0,0,,5,,,65,127
59569,note_off,0,0,0,,2,,,62,127
59569,note_off,0,0,0,,2,,,38,127
59570,note_on,1,0,0,,12,,,47,127
59570,note_on,0,0,0,,3,,,63,127
59684,note_off,114,0,0,,3,,,63,127
59684,note_off,0,0,0,,12,,,47,127
59685,note_on,1,0,0,,0,,,36,127
59685,note_on,0,0,0,,2,,,62,127
59799,note_off,114,0,0,,2,,,62,127
59799,note_off,0,0,0,,0,,,36,127
59800,note_on,1,0,0,,0,,,48,127
59800,note_on,0,0,0,,0,,,60,127
59914,note_off,114,0,0,,0,,,60,127
59914,note_off,0,0,0,,0,,,48,127
59915,note_on,1,0,0,,7,,,55,127
59915,note_on,0,0,0,,2,,,74,127
59915,note_on,0,0,0,,12,,,71,127
60029,note_off,114,0,0,,7,,,55,127
60030,note_on,1,0,0,,7,,,67,127
60144,note_off,114,0,0,,7,,,67,127
60145,note_on,1,0,0,,5,,,65,127
60259,note_off,114,0,0,,5,,,65,127
60259,note_off,0,0,0,,12,,,71,127
60259,note_off,0,0,0,,2,,,74,127
60260,note_on,1,0,0,,3,,,63,127
60260,note_on,0,0,0,,3,,,75,127
60260,note_on,0,0,0,,0,,,72,127
60374,note_off,114,0,0,,0,,,72,127
60374,note_off,0,0,0,,3,,,75,127
60374,note_off,0,0,0,,3,,,63,127
60375,note_on,1,0,0,,8,,,56,127
60375,note_on,0,0,0,,2,,,74,127
60375,note_on,0,0,0,,12,,,71,127
60489,note_off,114,0,0,,8,,,56,127
60490,note_on,1,0,0,,5,,,65,127
60604,note_off,114,0,0,,5,,,65,127
60604,note_off,0,0,0,,12,,,71,127
60604,note_off,0,0,0,,2,,,74,127
60605,note_on,1,0,0,,7,,,55,127
60605,note_on,0,0,0,,3,,,75,127
60605,note_on,0,0,0,,0,,,72,127
60719,note_off,114,0,0,,7,,,55,127
60720,note_on,1,0,0,,3,,,63,127
60834,note_off,114,0,0,,3,,,63,127
60834,note_off,0,0,0,,0,,,72,127
60834,note_off,0,0,0,,3,,,75,127
60835,note_on,1,0,0,,5,,,53,127
60835,note_on,0,0,0,,5,,,77,127
60835,note_on,0,0,0,,2,,,74,127
60949,note_off,114,0,0,,5,,,53,127
60950,note_on,1,0,0,,2,,,62,127
61064,note_off,114,0,0,,2,,,62,127
61064,note_off,0,0,0,,2,,,74,127
61064,note_off,0,0,0,,5,,,77,127
61065,note_on,1,0,0,,3,,,51,127
61065,note_on,0,0,0,,3,,,75,127
61065,note_on,0,0,0,,7,,,79,127
61179,note_off,114,0,0,,3,,,51,127
61180,note_on,1,0,0,,0,,,60,127
61294,note_off,114,0,0,,0,,,60,127
61294,note_off,0,0,0,,7,,,79,127
61294,note_off,0,0,0,,3,,,75,127
61295,note_on,1,0,0,,2,,,50,127
61295,note_on,0,0,0,,2,,,74,127
61295,note_on,0,0,0,,5,,,77,127
61409,note_off,114,0,0,,5,,,77,127
61409,note_off,0,0,0,,2,,,74,127
61409,note_off,0,0,0,,2,,,50,127
61410,note_on,1,0,0,,12,,,59,127
61410,note_on,0,0,0,,3,,,75,127
61524,note_off,114,0,0,,3,,,75,127
61524,note_off,0,0,0,,12,,,59,127
61525,note_on,1,0,0,,0,,,48,127
61525,note_on,0,0,0,,2,,,74,127
61639,note_off,114,0,0,,2,,,74,127
61639,note_off,0,0,0,,0,,,48,127
61640,note_on,1,0,0,,0,,,60,127
61640,note_on,0,0,0,,0,,,72,127
61754,note_off,114,0,0,,0,,,72,127
61754,note_off,0,0,0,,0,,,60,127
61755,note_on,1,0,0,,12,,,47,127
61755,note_on,0,0,0,,7,,,79,127
61870,note_on,115,0,0,,5,,,77,127
61984,note_off,114,0,0,,5,,,77,127
61984,note_off,0,0,0,,7,,,79,127
61984,note_off,0,0,0,,12,,,47,127
61985,note_on,1,0,0,,0,,,48,127
61985,note_on,0,0,0,,3,,,75,127
61985,note_on,0,0,0,,0,,,84,127
62099,note_off,114,0,0,,3,,,75,127
62100,note_on,1,0,0,,2,,,74,127
62214,note_off,114,0,0,,2,,,74,127
62214,note_off,0,0,0,,0,,,48,127
62215,note_on,1,0,0,,5,,,53,127
62215,note_on,0,0,0,,3,,,75,127
62329,note_off,114,0,0,,3,,,75,127
62330,note_on,1,0,0,,7,,,79,127
62444,note_off,114,0,0,,7,,,79,127
62444,note_off,0,0,0,,5,,,53,127
62445,note_on,1,0,0,,7,,,55,127
62445,note_on,0,0,0,,2,,,74,127
62559,note_off,114,0,0,,2,,,74,127
62559,note_off,0,0,0,,0,,,84,127
62560,note_on,1,0,0,,12,,,83,127
62674,note_off,114,0,0,,12,,,83,127
62674,note_off,0,0,0,,7,,,55,127
62675,note_on,1,0,0,,0,,,48,127
62675,note_on,0,0,0,,0,,,84,127
62790,note_on,115,0,0,,8,,,80,127
62904,note_off,114,0,0,,8,,,80,127
62904,note_off,0,0,0,,0,,,48,127
62905,note_on,1,0,0,,5,,,53,127
62905,note_on,0,0,0,,7,,,79,127
63019,note_off,114,0,0,,7,,,79,127
63020,note_off,1,0,0,,0,,,84,127
63020,note_on,0,0,0,,5,,,77,127
63134,note_off,114,0,0,,5,,,77,127
63134,note_off,0,0,0,,5,,,53,127
63135,note_on,1,0,0,,7,,,55,127
63135,note_on,0,0,0,,3,,,75,127
63135,note_on,0,0,0,,7,,,79,127
63249,note_off,114,0,0,,3,,,75,127
63250,note_on,1,0,0,,2,,,74,127
63364,note_off,114,0,0,,2,,,74,127
63365,note_on,1,0,0,,7,,,43,127
63365,note_on,0,0,0,,0,,,72,127
63479,note_off,114,0,0,,0,,,72,127
63480,note_off,1,0,0,,7,,,79,127
63480,note_on,0,0,0,,12,,,71,127
63590,note_off,110,0,0,,7,,,55,127
63594,note_off,4,0,0,,12,,,71,127
63594,note_off,0,0,0,,7,,,43,127
63595,note_on,1,0,0,,0,,,48,127
63595,note_on,0,0,0,,0,,,72,127
63710,note_on,115,0,0,,8,,,68,127
63824,note_off,114,0,0,,8,,,68,127
63824,note_off,0,0,0,,0,,,48,127
63825,note_on,1,0,0,,5,,,53,127
63825,note_on,0,0,0,,7,,,67,127
63939,note_off,114,0,0,,7,,,67,127
63940,note_off,1,0,0,,0,,,72,127
63940,note_on,0,0,0,,5,,,65,127
64054,note_off,114,0,0,,5,,,65,127
64054,note_off,0,0,0,,5,,,53,127
64055,note_on,1,0,0,,7,,,55,127
64055,note_on,0,0,0,,3,,,63,127
64055,note_on,0,0,0,,7,,,67,127
64169,note_off,114,0,0,,3,,,63,127
64170,note_on,1,0,0,,2,,,62,127
64284,note_off,114,0,0,,2,,,62,127
64285,note_on,1,0,0,,7,,,43,127
64285,note_on,0,0,0,,0,,,60,127
64399,note_off,114,0,0,,0,,,60,127
64400,note_off,1,0,0,,7,,,67,127
64400,note_off,0,0,0,,7,,,55,127
64400,note_on,0,0,0,,12,,,59,127
64514,note_off,114,0,0,,12,,,59,127
64514,note_off,0,0,0,,7,,,43,127
64515,note_on,1,0,0,,0,,,36,127
64515,note_on,0,0,0,,0,,,60,127
64629,note_off,114,0,0,,0,,,60,127
64630,note_on,1,0,0,,3,,,63,127
64744,note_off,114,0,0,,3,,,63,127
64745,note_on,1,0,0,,2,,,62,127
64859,note_off,114,0,0,,2,,,62,127
64860,note_on,1,0,0,,0,,,60,127
64974,note_off,114,0,0,,0,,,60,127
64975,note_on,1,0,0,,8,,,68,127
65089,note_off,114,0,0,,8,,,68,127
65090,note_on,1,0,0,,5,,,65,127
65204,note_off,114,0,0,,5,,,65,127
65205,note_on,1,0,0,,12,,,71,127
65319,note_off,114,0,0,,12,,,71,127
65320,note_on,1,0,0,,7,,,67,127
65434,note_off,114,0,0,,7,,,67,127
65434,note_off,0,0,0,,0,,,36,127
65435,note_on,1,0,0,,0,,,36,127
65435,note_on,0,0,0,,0,,,72,127
65549,note_off,114,0,0,,0,,,72,127
65550,note_on,1,0,0,,3,,,75,127
65664,note_off,114,0,0,,3,,,75,127
65665,note_on,1,0,0,,2,,,74,127
65779,note_off,114,0,0,,2,,,74,127
65780,note_on,1,0,0,,0,,,72,127
65894,note_off,114,0,0,,0,,,72,127
65895,note_on,1,0,0,,8,,,80,127
66009,note_off,114,0,0,,8,,,80,127
66010,note_on,1,0,0,,5,,,77,127
66124,note_off,114,0,0,,5,,,77,127
66125,note_on,1,0,0,,12,,,83,127
66239,note_off,114,0,0,,12,,,83,127
66240,note_on,1,0,0,,7,,,79,127
66354,note_off,114,0,0,,7,,,79,127
66354,note_off,0,0,0,,0,,,36,127
66355,note_on,1,0,0,,0,,,36,127
66355,note_on,0,0,0,,0,,,84,127
66470,note_on,115,0,0,,7,,,79,127
66584,note_off,114,0,0,,7,,,79,127
66585,note_on,1,0,0,,8,,,80,127
66699,note_off,114,0,0,,8,,,80,127
66700,note_on,1,0,0,,5,,,77,127
66814,note_off,114,0,0,,5,,,77,127
66815,note_on,1,0,0,,7,,,79,127
66929,note_off,114,0,0,,7,,,79,127
66930,note_on,1,0,0,,4,,,76,127
67044,note_off,114,0,0,,4,,,76,127
67044,note_off,0,0,0,,0,,,84,127
67045,note_on,1,0,0,,5,,,77,127
67045,note_on,0,0,0,,8,,,80,127
67159,note_off,114,0,0,,5,,,77,127
67160,note_on,1,0,0,,2,,,74,127
67274,note_off,114,0,0,,2,,,74,127
67274,note_off,0,0,0,,8,,,80,127
67274,note_off,0,0,0,,0,,,36,127
67275,note_on,1,0,0,,0,,,36,127
67275,note_on,0,0,0,,7,,,79,127
67275,note_on,0,0,0,,4,,,76,127
67389,note_off,114,0,0,,4,,,76,127
67390,note_on,1,0,0,,0,,,72,127
67504,note_off,114,0,0,,0,,,72,127
67504,note_off,0,0,0,,7,,,79,127
67505,note_on,1,0,0,,5,,,77,127
67505,note_on,0,0,0,,1,,,73,127
67619,note_off,114,0,0,,1,,,73,127
67620,note_on,1,0,0,,11,,,70,127
67734,note_off,114,0,0,,11,,,70,127
67734,note_off,0,0,0,,5,,,77,127
67735,note_on,1,0,0,,0,,,72,127
67735,note_on,0,0,0,,4,,,76,127
67849,note_off,114,0,0,,0,,,72,127
67850,note_on,1,0,0,,7,,,67,127
67964,note_off,114,0,0,,7,,,67,127
67964,note_off,0,0,0,,4,,,76,127
67965,note_on,1,0,0,,8,,,68,127
67965,note_on,0,0,0,,5,,,77,127
68079,note_off,114,0,0,,8,,,68,127
68080,note_on,1,0,0,,5,,,65,127
68194,note_off,114,0,0,,5,,,65,127
68194,note_off,0,0,0,,5,,,77,127
68194,note_off,0,0,0,,0,,,36,127
68195,note_on,1,0,0,,0,,,36,127
68195,note_on,0,0,0,,11,,,70,127
68195,note_on,0,0,0,,1,,,73,127
68309,note_off,114,0,0,,11,,,70,127
68310,note_on,1,0,0,,7,,,67,127
68424,note_off,114,0,0,,7,,,67,127
68424,note_off,0,0,0,,1,,,73,127
68425,note_on,1,0,0,,0,,,72,127
68425,note_on,0,0,0,,8,,,68,127
68539,note_off,114,0,0,,8,,,68,127
68540,note_on,1,0,0,,5,,,65,127
68654,note_off,114,0,0,,5,,,65,127
68654,note_off,0,0,0,,0,,,72,127
68655,note_on,1,0,0,,11,,,70,127
68655,note_on,0,0,0,,7,,,67,127
68769,note_off,114,0,0,,7,,,67,127
68770,note_on,1,0,0,,4,,,64,127
68884,note_off,114,0,0,,4,,,64,127
68884,note_off,0,0,0,,11,,,70,127
68885,note_on,1,0,0,,8,,,68,127
68885,note_on,0,0,0,,5,,,65,127
68999,note_off,114,0,0,,5,,,65,127
69000,note_on,1,0,0,,2,,,62,127
69114,note_off,114,0,0,,2,,,62,127
69114,note_off,0,0,0,,8,,,68,127
69114,note_off,0,0,0,,0,,,36,127
69115,note_on,1,0,0,,0,,,36,127
69115,note_on,0,0,0,,7,,,67,127
69115,note_on,0,0,0,,4,,,64,127
69229,note_off,114,0,0,,7,,,67,127
69230,note_on,1,0,0,,5,,,65,127
69343,note_off,113,0,0,,4,,,64,127
69344,note_off,1,0,0,,5,,,65,127
69345,note_on,1,0,0,,4,,,64,127
69459,note_off,114,0,0,,4,,,64,127
69460,note_on,1,0,0,,2,,,62,127
69574,note_off,114,0,0,,2,,,62,127
69575,note_on,1,0,0,,4,,,64,127
69689,note_off,114,0,0,,4,,,64,127
69690,note_on,1,0,0,,2,,,62,127
69804,note_off,114,0,0,,2,,,62,127
69805,note_on,1,0,0,,0,,,60,127
69919,note_off,114,0,0,,0,,,60,127
69920,note_on,1,0,0,,12,,,59,127
70034,note_off,114,0,0,,12,,,59,127
70034,note_off,0,0,0,,0,,,36,127
70035,note_on,1,0,0,,0,,,36,127
70035,note_on,0,0,0,,0,,,60,127
70150,note_on,115,0,0,,8,,,56,127
70264,note_off,114,0,0,,8,,,56,127
70265,note_on,1,0,0,,7,,,55,127
70379,note_off,114,0,0,,7,,,55,127
70380,note_on,1,0,0,,5,,,53,127
70494,note_off,114,0,0,,5,,,53,127
70494,note_off,0,0,0,,0,,,36,127
70495,note_on,1,0,0,,0,,,36,127
70495,note_on,0,0,0,,4,,,52,127
70609,note_off,114,0,0,,4,,,52,127
70610,note_on,1,0,0,,7,,,55,127
70724,note_off,114,0,0,,7,,,55,127
70725,note_on,1,0,0,,2,,,50,127
70839,note_off,114,0,0,,2,,,50,127
70839,note_off,0,0,0,,0,,,60,127
70840,note_on,1,0,0,,12,,,59,127
70954,note_off,114,0,0,,0,,,36,127
70955,note_on,1,0,0,,0,,,36,127
71069,note_off,114,0,0,,12,,,59,127
71070,note_on,1,0,0,,0,,,60,127
71184,note_off,114,0,0,,0,,,60,127
71185,note_on,1,0,0,,7,,,55,127
71299,note_off,114,0,0,,7,,,55,127
71300,note_on,1,0,0,,4,,,52,127
71414,note_off,114,0,0,,4,,,52,127
71415,note_on,1,0,0,,0,,,48,127
72797,note_off,1382,0,0,,0,,,48,127
72797,note_off,0,0,0,,0,,,36,127
78336,end_of_track,5539,1,0,,,,,,
