tick,type,time,meta,track,program,channel,pitch,tempo,note,velocity
0,copyright,0,1,0,,,,,,
0,program_change,0,0,0,6,0,,,,
0,pitchwheel,0,0,0,,0,0,,,
0,program_change,0,0,0,6,1,,,,
0,pitchwheel,0,0,0,,1,-590,,,
0,program_change,0,0,0,6,2,,,,
0,pitchwheel,0,0,0,,2,-272,,,
0,program_change,0,0,0,6,3,,,,
0,pitchwheel,0,0,0,,3,-353,,,
0,program_change,0,0,0,6,4,,,,
0,pitchwheel,0,0,0,,4,-560,,,
0,program_change,0,0,0,6,5,,,,
0,pitchwheel,0,0,0,,5,-80,,,
0,program_change,0,0,0,6,6,,,,
0,pitchwheel,0,0,0,,6,-625,,,
0,program_change,0,0,0,6,7,,,,
0,pitchwheel,0,0,0,,7,-130,,,
0,program_change,0,0,0,6,8,,,,
0,pitchwheel,0,0,0,,8,-512,,,
0,program_change,0,0,0,6,10,,,,
0,pitchwheel,0,0,0,,10,-464,,,
0,program_change,0,0,0,6,11,,,,
0,pitchwheel,0,0,0,,11,-208,,,
0,program_change,0,0,0,6,12,,,,
0,pitchwheel,0,0,0,,12,-553,,,
0,set_tempo,0,1,0,,,,500000,,
40,note_on,40,0,0,,10,,,81,127
40,note_on,0,0,0,,6,,,78,127
240,note_off,200,0,0,,6,,,78,127
240,note_off,0,0,0,,10,,,81,127
280,note_on,40,0,0,,10,,,69,127
280,note_on,0,0,0,,6,,,66,127
480,note_off,200,0,0,,6,,,66,127
480,note_off,0,0,0,,10,,,69,127
520,note_on,40,0,0,,10,,,69,127
520,note_on,0,0,0,,4,,,64,127
579,note_off,59,0,0,,10,,,69,127
580,note_on,1,0,0,,7,,,67,127
639,note_off,59,0,0,,7,,,67,127
640,note_on,1,0,0,,10,,,69,127
699,note_off,59,0,0,,10,,,69,127
700,note_on,1,0,0,,7,,,67,127
759,note_off,59,0,0,,7,,,67,127
759,note_off,0,0,0,,4,,,64,127
760,note_on,1,0,0,,10,,,69,127
760,note_on,0,0,0,,10,,,57,127
819,note_off,59,0,0,,10,,,69,127
820,note_on,1,0,0,,7,,,67,127
879,note_off,59,0,0,,7,,,67,127
880,note_on,1,0,0,,6,,,66,127
939,note_off,59,0,0,,6,,,66,127
940,note_on,1,0,0,,7,,,67,127
999,note_off,59,0,0,,7,,,67,127
999,note_off,0,0,0,,10,,,57,127
1000,note_on,1,0,0,,2,,,74,127
1000,note_on,0,0,0,,6,,,78,127
1200,note_off,200,0,0,,6,,,78,127
1200,note_off,0,0,0,,2,,,74,127
1240,note_on,40,0,0,,2,,,62,127
1240,note_on,0,0,0,,6,,,66,127
1440,note_off,200,0,0,,6,,,66,127
1440,note_off,0,0,0,,2,,,62,127
1480,note_on,40,0,0,,6,,,66,127
1480,note_on,0,0,0,,1,,,61,127
1539,note_off,59,0,0,,6,,,66,127
1540,note_on,1,0,0,,4,,,64,127
1599,note_off,59,0,0,,4,,,64,127
1600,note_on,1,0,0,,6,,,66,127
1659,note_off,59,0,0,,6,,,66,127
1660,note_on,1,0,0,,4,,,64,127
1719,note_off,59,0,0,,4,,,64,127
1719,note_off,0,0,0,,1,,,61,127
1720,note_on,1,0,0,,6,,,66,127
1720,note_on,0,0,0,,10,,,57,127
1779,note_off,59,0,0,,6,,,66,127
1780,note_on,1,0,0,,4,,,64,127
1839,note_off,59,0,0,,4,,,64,127
1840,note_on,1,0,0,,2,,,62,127
1899,note_off,59,0,0,,2,,,62,127
1900,note_on,1,0,0,,4,,,64,127
1959,note_off,59,0,0,,4,,,64,127
1959,note_off,0,0,0,,10,,,57,127
1960,note_on,1,0,0,,10,,,81,127
1960,note_on,0,0,0,,6,,,78,127
2160,note_off,200,0,0,,6,,,78,127
2160,note_off,0,0,0,,10,,,81,127
2200,note_on,40,0,0,,10,,,69,127
2200,note_on,0,0,0,,6,,,66,127
2400,note_off,200,0,0,,6,,,66,127
2400,note_off,0,0,0,,10,,,69,127
2440,note_on,40,0,0,,10,,,69,127
2440,note_on,0,0,0,,4,,,64,127
2499,note_off,59,0,0,,10,,,69,127
2500,note_on,1,0,0,,7,,,67,127
2559,note_off,59,0,0,,7,,,67,127
2560,note_on,1,0,0,,10,,,69,127
2619,note_off,59,0,0,,10,,,69,127
2620,note_on,1,0,0,,7,,,67,127
2679,note_off,59,0,0,,7,,,67,127
2679,note_off,0,0,0,,4,,,64,127
2680,note_on,1,0,0,,10,,,69,127
2680,note_on,0,0,0,,10,,,57,127
2739,note_off,59,0,0,,10,,,69,127
2740,note_on,1,0,0,,7,,,67,127
2799,note_off,59,0,0,,7,,,67,127
2800,note_on,1,0,0,,6,,,66,127
2859,note_off,59,0,0,,6,,,66,127
2860,note_on,1,0,0,,7,,,67,127
2919,note_off,59,0,0,,7,,,67,127
2919,note_off,0,0,0,,10,,,57,127
2920,note_on,1,0,0,,2,,,74,127
2920,note_on,0,0,0,,6,,,78,127
3120,note_off,200,0,0,,6,,,78,127
3120,note_off,0,0,0,,2,,,74,127
3160,note_on,40,0,0,,6,,,66,127
3160,note_on,0,0,0,,2,,,62,127
3360,note_off,200,0,0,,2,,,62,127
3360,note_off,0,0,0,,6,,,66,127
3400,note_on,40,0,0,,6,,,66,127
3400,note_on,0,0,0,,1,,,61,127
3459,note_off,59,0,0,,6,,,66,127
3460,note_on,1,0,0,,4,,,64,127
3519,note_off,59,0,0,,4,,,64,127
3520,note_on,1,0,0,,6,,,66,127
3579,note_off,59,0,0,,6,,,66,127
3580,note_on,1,0,0,,4,,,64,127
3639,note_off,59,0,0,,4,,,64,127
3639,note_off,0,0,0,,1,,,61,127
3640,note_on,1,0,0,,6,,,66,127
3640,note_on,0,0,0,,10,,,57,127
3699,note_off,59,0,0,,6,,,66,127
3700,note_on,1,0,0,,4,,,64,127
3759,note_off,59,0,0,,4,,,64,127
3760,note_on,1,0,0,,2,,,62,127
3819,note_off,59,0,0,,2,,,62,127
3820,note_on,1,0,0,,4,,,64,127
3879,note_off,59,0,0,,4,,,64,127
3879,note_off,0,0,0,,10,,,57,127
3880,note_on,1,0,0,,2,,,62,127
3880,note_on,0,0,0,,6,,,54,127
3880,note_on,0,0,0,,10,,,57,127
3999,note_off,119,0,0,,2,,,62,127
4000,note_on,1,0,0,,6,,,66,127
4119,note_off,119,0,0,,6,,,66,127
4120,note_on,1,0,0,,4,,,64,127
4239,note_off,119,0,0,,4,,,64,127
4240,note_on,1,0,0,,2,,,62,127
4359,note_off,119,0,0,,2,,,62,127
4359,note_off,0,0,0,,10,,,57,127
4359,note_off,0,0,0,,6,,,54,127
4360,note_on,1,0,0,,12,,,71,127
4360,note_on,0,0,0,,7,,,55,127
4360,note_on,0,0,0,,12,,,59,127
4479,note_off,119,0,0,,12,,,71,127
4480,note_on,1,0,0,,2,,,74,127
4599,note_off,119,0,0,,2,,,74,127
4600,note_on,1,0,0,,1,,,73,127
4719,note_off,119,0,0,,1,,,73,127
4720,note_on,1,0,0,,12,,,71,127
4839,note_off,119,0,0,,12,,,71,127
4839,note_off,0,0,0,,12,,,59,127
4839,note_off,0,0,0,,7,,,55,127
4840,note_on,1,0,0,,10,,,69,127
4840,note_on,0,0,0,,10,,,57,127
4840,note_on,0,0,0,,1,,,49,127
4959,note_off,119,0,0,,10,,,69,127
4960,note_on,1,0,0,,1,,,73,127
5079,note_off,119,0,0,,1,,,73,127
5080,note_on,1,0,0,,12,,,71,127
5199,note_off,119,0,0,,12,,,71,127
5200,note_on,1,0,0,,10,,,69,127
5319,note_off,119,0,0,,10,,,69,127
5319,note_off,0,0,0,,1,,,49,127
5319,note_off,0,0,0,,10,,,57,127
5320,note_on,1,0,0,,4,,,76,127
5320,note_on,0,0,0,,10,,,45,127
5320,note_on,0,0,0,,10,,,57,127
5439,note_off,119,0,0,,4,,,76,127
5440,note_on,1,0,0,,7,,,79,127
5559,note_off,119,0,0,,7,,,79,127
5560,note_on,1,0,0,,6,,,78,127
5679,note_off,119,0,0,,6,,,78,127
5680,note_on,1,0,0,,4,,,76,127
5799,note_off,119,0,0,,4,,,76,127
5799,note_off,0,0,0,,10,,,57,127
5799,note_off,0,0,0,,10,,,45,127
5800,note_on,1,0,0,,2,,,62,127
5800,note_on,0,0,0,,10,,,57,127
5800,note_on,0,0,0,,6,,,54,127
5919,note_off,119,0,0,,2,,,62,127
5920,note_on,1,0,0,,6,,,66,127
6039,note_off,119,0,0,,6,,,66,127
6040,note_on,1,0,0,,4,,,64,127
6159,note_off,119,0,0,,4,,,64,127
6160,note_on,1,0,0,,2,,,62,127
6279,note_off,119,0,0,,2,,,62,127
6279,note_off,0,0,0,,6,,,54,127
6279,note_off,0,0,0,,10,,,57,127
6280,note_on,1,0,0,,12,,,71,127
6280,note_on,0,0,0,,7,,,55,127
6280,note_on,0,0,0,,12,,,59,127
6399,note_off,119,0,0,,12,,,71,127
6400,note_on,1,0,0,,2,,,74,127
6519,note_off,119,0,0,,2,,,74,127
6520,note_on,1,0,0,,1,,,73,127
6639,note_off,119,0,0,,1,,,73,127
6640,note_on,1,0,0,,12,,,71,127
6759,note_off,119,0,0,,12,,,71,127
6759,note_off,0,0,0,,12,,,59,127
6759,note_off,0,0,0,,7,,,55,127
6760,note_on,1,0,0,,10,,,69,127
6760,note_on,0,0,0,,10,,,57,127
6760,note_on,0,0,0,,1,,,49,127
6879,note_off,119,0,0,,10,,,69,127
6880,note_on,1,0,0,,1,,,73,127
6999,note_off,119,0,0,,1,,,73,127
7000,note_on,1,0,0,,12,,,71,127
7119,note_off,119,0,0,,12,,,71,127
7120,note_on,1,0,0,,10,,,69,127
7239,note_off,119,0,0,,10,,,69,127
7239,note_off,0,0,0,,1,,,49,127
7239,note_off,0,0,0,,10,,,57,127
7240,note_on,1,0,0,,4,,,76,127
7240,note_on,0,0,0,,10,,,45,127
7240,note_on,0,0,0,,10,,,57,127
7359,note_off,119,0,0,,4,,,76,127
7360,note_on,1,0,0,,7,,,79,127
7479,note_off,119,0,0,,7,,,79,127
7480,note_on,1,0,0,,6,,,78,127
7599,note_off,119,0,0,,6,,,78,127
7600,note_on,1,0,0,,4,,,76,127
7719,note_off,119,0,0,,4,,,76,127
7719,note_off,0,0,0,,10,,,57,127
7719,note_off,0,0,0,,10,,,45,127
7720,note_on,1,0,0,,2,,,50,127
7720,note_on,0,0,0,,10,,,57,127
7720,note_on,0,0,0,,6,,,78,127
7839,note_off,119,0,0,,6,,,78,127
7840,note_on,1,0,0,,10,,,81,127
7959,note_off,119,0,0,,10,,,81,127
7960,note_on,1,0,0,,7,,,79,127
8079,note_off,119,0,0,,7,,,79,127
8080,note_on,1,0,0,,6,,,78,127
8199,note_off,119,0,0,,6,,,78,127
8199,note_off,0,0,0,,10,,,57,127
8199,note_off,0,0,0,,2,,,50,127
8200,note_on,1,0,0,,7,,,43,127
8200,note_on,0,0,0,,7,,,55,127
8200,note_on,0,0,0,,4,,,76,127
8319,note_off,119,0,0,,4,,,76,127
8320,note_on,1,0,0,,7,,,79,127
8439,note_off,119,0,0,,7,,,79,127
8440,note_on,1,0,0,,12,,,83,127
8559,note_off,119,0,0,,12,,,83,127
8560,note_on,1,0,0,,2,,,74,127
8679,note_off,119,0,0,,2,,,74,127
8679,note_off,0,0,0,,7,,,55,127
8679,note_off,0,0,0,,7,,,43,127
8680,note_on,1,0,0,,10,,,45,127
8680,note_on,0,0,0,,10,,,57,127
8680,note_on,0,0,0,,1,,,73,127
8799,note_off,119,0,0,,1,,,73,127
8800,note_on,1,0,0,,4,,,76,127
8919,note_off,119,0,0,,4,,,76,127
8920,note_on,1,0,0,,10,,,69,127
9039,note_off,119,0,0,,10,,,69,127
9040,note_on,1,0,0,,1,,,73,127
9159,note_off,119,0,0,,1,,,73,127
9160,note_on,1,0,0,,4,,,64,127
9279,note_off,119,0,0,,4,,,64,127
9280,note_on,1,0,0,,10,,,69,127
9399,note_off,119,0,0,,10,,,69,127
9400,note_on,1,0,0,,1,,,61,127
9519,note_off,119,0,0,,1,,,61,127
9520,note_on,1,0,0,,4,,,64,127
9639,note_off,119,0,0,,4,,,64,127
9639,note_off,0,0,0,,10,,,57,127
9639,note_off,0,0,0,,10,,,45,127
9640,note_on,1,0,0,,10,,,45,127
9640,note_on,0,0,0,,10,,,57,127
9759,note_off,119,0,0,,10,,,45,127
9760,note_on,1,0,0,,1,,,49,127
9879,note_off,119,0,0,,1,,,49,127
9879,note_off,0,0,0,,10,,,57,127
9880,note_on,1,0,0,,10,,,69,127
9880,note_on,0,0,0,,12,,,47,127
9999,note_off,119,0,0,,12,,,47,127
10000,note_on,1,0,0,,10,,,45,127
10119,note_off,119,0,0,,10,,,45,127
10119,note_off,0,0,0,,10,,,69,127
10120,note_on,1,0,0,,2,,,50,127
10120,note_on,0,0,0,,12,,,71,127
10179,note_off,59,0,0,,12,,,71,127
10180,note_on,1,0,0,,10,,,69,127
10239,note_off,59,0,0,,10,,,69,127
10239,note_off,0,0,0,,2,,,50,127
10240,note_on,1,0,0,,6,,,54,127
10240,note_on,0,0,0,,12,,,71,127
10299,note_off,59,0,0,,12,,,71,127
10300,note_on,1,0,0,,10,,,69,127
10359,note_off,59,0,0,,10,,,69,127
10359,note_off,0,0,0,,6,,,54,127
10360,note_on,1,0,0,,4,,,52,127
10360,note_on,0,0,0,,12,,,71,127
10419,note_off,59,0,0,,12,,,71,127
10420,note_on,1,0,0,,10,,,69,127
10479,note_off,59,0,0,,10,,,69,127
10479,note_off,0,0,0,,4,,,52,127
10480,note_on,1,0,0,,2,,,50,127
10480,note_on,0,0,0,,12,,,71,127
10539,note_off,59,0,0,,12,,,71,127
10540,note_on,1,0,0,,10,,,69,127
10599,note_off,59,0,0,,2,,,50,127
10600,note_on,1,0,0,,10,,,57,127
10719,note_off,119,0,0,,10,,,57,127
10720,note_on,1,0,0,,1,,,61,127
10839,note_off,119,0,0,,1,,,61,127
10839,note_off,0,0,0,,10,,,69,127
10840,note_on,1,0,0,,12,,,59,127
10840,note_on,0,0,0,,10,,,81,127
10959,note_off,119,0,0,,12,,,59,127
10960,note_on,1,0,0,,10,,,57,127
11079,note_off,119,0,0,,10,,,57,127
11079,note_off,0,0,0,,10,,,81,127
11080,note_on,1,0,0,,2,,,62,127
11080,note_on,0,0,0,,12,,,83,127
11139,note_off,59,0,0,,12,,,83,127
11140,note_on,1,0,0,,10,,,81,127
11199,note_off,59,0,0,,10,,,81,127
11199,note_off,0,0,0,,2,,,62,127
11200,note_on,1,0,0,,6,,,66,127
11200,note_on,0,0,0,,12,,,83,127
11259,note_off,59,0,0,,12,,,83,127
11260,note_on,1,0,0,,10,,,81,127
11319,note_off,59,0,0,,10,,,81,127
11319,note_off,0,0,0,,6,,,66,127
11320,note_on,1,0,0,,4,,,64,127
11320,note_on,0,0,0,,12,,,83,127
11379,note_off,59,0,0,,12,,,83,127
11380,note_on,1,0,0,,10,,,81,127
11439,note_off,59,0,0,,10,,,81,127
11439,note_off,0,0,0,,4,,,64,127
11440,note_on,1,0,0,,2,,,62,127
11440,note_on,0,0,0,,12,,,83,127
11499,note_off,59,0,0,,12,,,83,127
11500,note_on,1,0,0,,10,,,81,127
11559,note_off,59,0,0,,2,,,62,127
11560,note_on,1,0,0,,10,,,45,127
11679,note_off,119,0,0,,10,,,45,127
11680,note_on,1,0,0,,1,,,49,127
11799,note_off,119,0,0,,1,,,49,127
11799,note_off,0,0,0,,10,,,81,127
11800,note_on,1,0,0,,12,,,47,127
11800,note_on,0,0,0,,10,,,69,127
11919,note_off,119,0,0,,12,,,47,127
11920,note_on,1,0,0,,10,,,45,127
12039,note_off,119,0,0,,10,,,45,127
12039,note_off,0,0,0,,10,,,69,127
12040,note_on,1,0,0,,2,,,50,127
12040,note_on,0,0,0,,12,,,71,127
12099,note_off,59,0,0,,12,,,71,127
12100,note_on,1,0,0,,10,,,69,127
12159,note_off,59,0,0,,10,,,69,127
12159,note_off,0,0,0,,2,,,50,127
12160,note_on,1,0,0,,6,,,54,127
12160,note_on,0,0,0,,12,,,71,127
12219,note_off,59,0,0,,12,,,71,127
12220,note_on,1,0,0,,10,,,69,127
12279,note_off,59,0,0,,10,,,69,127
12279,note_off,0,0,0,,6,,,54,127
12280,note_on,1,0,0,,4,,,52,127
12280,note_on,0,0,0,,12,,,71,127
12339,note_off,59,0,0,,12,,,71,127
12340,note_on,1,0,0,,10,,,69,127
12399,note_off,59,0,0,,10,,,69,127
12399,note_off,0,0,0,,4,,,52,127
12400,note_on,1,0,0,,2,,,50,127
12400,note_on,0,0,0,,12,,,71,127
12459,note_off,59,0,0,,12,,,71,127
12460,note_on,1,0,0,,10,,,69,127
12519,note_off,59,0,0,,2,,,50,127
12520,note_on,1,0,0,,10,,,57,127
12639,note_off,119,0,0,,10,,,57,127
12640,note_on,1,0,0,,1,,,61,127
12759,note_off,119,0,0,,1,,,61,127
12759,note_off,0,0,0,,10,,,69,127
12760,note_on,1,0,0,,12,,,59,127
12760,note_on,0,0,0,,10,,,81,127
12879,note_off,119,0,0,,12,,,59,127
12880,note_on,1,0,0,,10,,,57,127
12999,note_off,119,0,0,,10,,,57,127
12999,note_off,0,0,0,,10,,,81,127
13000,note_on,1,0,0,,2,,,62,127
13000,note_on,0,0,0,,12,,,83,127
13059,note_off,59,0,0,,12,,,83,127
13060,note_on,1,0,0,,10,,,81,127
13119,note_off,59,0,0,,10,,,81,127
13119,note_off,0,0,0,,2,,,62,127
13120,note_on,1,0,0,,6,,,66,127
13120,note_on,0,0,0,,12,,,83,127
13179,note_off,59,0,0,,12,,,83,127
13180,note_on,1,0,0,,10,,,81,127
13239,note_off,59,0,0,,10,,,81,127
13239,note_off,0,0,0,,6,,,66,127
13240,note_on,1,0,0,,4,,,64,127
13240,note_on,0,0,0,,12,,,83,127
13299,note_off,59,0,0,,12,,,83,127
13300,note_on,1,0,0,,10,,,81,127
13359,note_off,59,0,0,,10,,,81,127
13359,note_off,0,0,0,,4,,,64,127
13360,note_on,1,0,0,,2,,,62,127
13360,note_on,0,0,0,,12,,,83,127
13419,note_off,59,0,0,,12,,,83,127
13420,note_on,1,0,0,,10,,,81,127
13479,note_off,59,0,0,,2,,,62,127
13480,note_on,1,0,0,,10,,,69,127
13599,note_off,119,0,0,,10,,,81,127
13600,note_on,1,0,0,,8,,,80,127
13719,note_off,119,0,0,,8,,,80,127
13720,note_on,1,0,0,,6,,,78,127
13839,note_off,119,0,0,,6,,,78,127
13840,note_on,1,0,0,,4,,,76,127
13930,note_off,90,0,0,,10,,,69,127
13959,note_off,29,0,0,,4,,,76,127
13960,note_on,1,0,0,,2,,,74,127
13960,note_on,0,0,0,,2,,,62,127
14079,note_off,119,0,0,,2,,,74,127
14080,note_on,1,0,0,,1,,,73,127
14199,note_off,119,0,0,,1,,,73,127
14200,note_on,1,0,0,,12,,,71,127
14319,note_off,119,0,0,,12,,,71,127
14320,note_on,1,0,0,,10,,,69,127
14410,note_off,90,0,0,,2,,,62,127
14439,note_off,29,0,0,,10,,,69,127
14440,note_on,1,0,0,,8,,,68,127
14440,note_on,0,0,0,,4,,,52,127
14560,note_on,120,0,0,,4,,,64,127
14678,note_off,118,0,0,,8,,,68,127
14679,note_off,1,0,0,,4,,,64,127
14680,note_on,1,0,0,,6,,,66,127
14799,note_off,119,0,0,,6,,,66,127
14800,note_on,1,0,0,,4,,,64,127
14919,note_off,119,0,0,,4,,,64,127
14920,note_on,1,0,0,,8,,,68,127
15040,note_on,120,0,0,,4,,,64,127
15100,note_off,60,0,0,,8,,,68,127
15159,note_off,59,0,0,,4,,,64,127
15160,note_on,1,0,0,,12,,,71,127
15280,note_on,120,0,0,,4,,,64,127
15340,note_off,60,0,0,,12,,,71,127
15399,note_off,59,0,0,,4,,,64,127
15399,note_off,0,0,0,,4,,,52,127
15400,note_on,1,0,0,,2,,,74,127
15400,note_on,0,0,0,,4,,,52,127
15520,note_on,120,0,0,,4,,,64,127
15638,note_off,118,0,0,,2,,,74,127
15639,note_off,1,0,0,,4,,,64,127
15640,note_on,1,0,0,,6,,,66,127
15759,note_off,119,0,0,,6,,,66,127
15760,note_on,1,0,0,,4,,,64,127
15879,note_off,119,0,0,,4,,,64,127
15880,note_on,1,0,0,,8,,,68,127
16000,note_on,120,0,0,,4,,,64,127
16060,note_off,60,0,0,,8,,,68,127
16119,note_off,59,0,0,,4,,,64,127
16120,note_on,1,0,0,,12,,,71,127
16240,note_on,120,0,0,,4,,,64,127
16300,note_off,60,0,0,,12,,,71,127
16359,note_off,59,0,0,,4,,,64,127
16359,note_off,0,0,0,,4,,,52,127
16360,note_on,1,0,0,,8,,,80,127
16360,note_on,0,0,0,,4,,,52,127
16479,note_off,119,0,0,,8,,,80,127
16480,note_on,1,0,0,,4,,,64,127
16599,note_off,119,0,0,,4,,,64,127
16600,note_on,1,0,0,,6,,,66,127
16719,note_off,119,0,0,,6,,,66,127
16720,note_on,1,0,0,,4,,,64,127
16839,note_off,119,0,0,,4,,,64,127
16840,note_on,1,0,0,,8,,,68,127
16960,note_on,120,0,0,,4,,,64,127
17020,note_off,60,0,0,,8,,,68,127
17079,note_off,59,0,0,,4,,,64,127
17080,note_on,1,0,0,,12,,,71,127
17200,note_on,120,0,0,,4,,,64,127
17260,note_off,60,0,0,,12,,,71,127
17319,note_off,59,0,0,,4,,,64,127
17319,note_off,0,0,0,,4,,,52,127
17320,note_on,1,0,0,,12,,,83,127
17320,note_on,0,0,0,,4,,,52,127
17439,note_off,119,0,0,,12,,,83,127
17440,note_on,1,0,0,,4,,,64,127
17559,note_off,119,0,0,,4,,,64,127
17560,note_on,1,0,0,,6,,,66,127
17679,note_off,119,0,0,,6,,,66,127
17680,note_on,1,0,0,,4,,,64,127
17799,note_off,119,0,0,,4,,,64,127
17800,note_on,1,0,0,,8,,,68,127
17920,note_on,120,0,0,,4,,,64,127
17980,note_off,60,0,0,,8,,,68,127
18039,note_off,59,0,0,,4,,,64,127
18040,note_on,1,0,0,,12,,,71,127
18160,note_on,120,0,0,,4,,,64,127
18220,note_off,60,0,0,,12,,,71,127
18279,note_off,59,0,0,,4,,,64,127
18279,note_off,0,0,0,,4,,,52,127
18280,note_on,1,0,0,,4,,,52,127
18280,note_on,0,0,0,,2,,,74,127
18400,note_on,120,0,0,,4,,,64,127
18518,note_off,118,0,0,,2,,,74,127
18519,note_off,1,0,0,,4,,,64,127
18520,note_on,1,0,0,,6,,,66,127
18639,note_off,119,0,0,,6,,,66,127
18640,note_on,1,0,0,,4,,,64,127
18759,note_off,119,0,0,,4,,,64,127
18760,note_on,1,0,0,,8,,,68,127
18880,note_on,120,0,0,,4,,,64,127
18940,note_off,60,0,0,,8,,,68,127
18999,note_off,59,0,0,,4,,,64,127
19000,note_on,1,0,0,,12,,,71,127
19120,note_on,120,0,0,,4,,,64,127
19180,note_off,60,0,0,,12,,,71,127
19239,note_off,59,0,0,,4,,,64,127
19239,note_off,0,0,0,,4,,,52,127
19240,note_on,1,0,0,,4,,,52,127
19240,note_on,0,0,0,,8,,,80,127
19359,note_off,119,0,0,,8,,,80,127
19360,note_on,1,0,0,,4,,,64,127
19479,note_off,119,0,0,,4,,,64,127
19480,note_on,1,0,0,,6,,,66,127
19599,note_off,119,0,0,,6,,,66,127
19600,note_on,1,0,0,,4,,,64,127
19719,note_off,119,0,0,,4,,,64,127
19720,note_on,1,0,0,,8,,,68,127
19840,note_on,120,0,0,,4,,,64,127
19900,note_off,60,0,0,,8,,,68,127
19959,note_off,59,0,0,,4,,,64,127
19960,note_on,1,0,0,,12,,,71,127
20080,note_on,120,0,0,,4,,,64,127
20140,note_off,60,0,0,,12,,,71,127
20186,note_off,46,0,0,,4,,,52,127
20198,note_off,12,0,0,,4,,,64,127
20199,note_on,1,0,0,,12,,,83,127
20199,note_on,0,0,0,,4,,,52,127
20319,note_on,120,0,0,,10,,,81,127
20348,note_off,29,0,0,,12,,,83,127
20438,note_off,90,0,0,,10,,,81,127
20439,note_on,1,0,0,,8,,,80,127
20558,note_off,119,0,0,,8,,,80,127
20559,note_on,1,0,0,,6,,,78,127
20674,note_off,115,0,0,,4,,,52,127
20678,note_off,4,0,0,,6,,,78,127
20679,note_on,1,0,0,,4,,,76,127
20799,note_on,120,0,0,,2,,,74,127
20917,note_off,118,0,0,,4,,,76,127
20918,note_off,1,0,0,,2,,,74,127
20919,note_on,1,0,0,,1,,,73,127
21038,note_off,119,0,0,,1,,,73,127
21039,note_on,1,0,0,,12,,,71,127
21159,note_on,120,0,0,,10,,,69,127
21159,note_on,0,0,0,,4,,,76,127
21167,note_off,8,0,0,,12,,,71,127
21279,note_on,112,0,0,,1,,,73,127
21397,note_off,118,0,0,,4,,,76,127
21398,note_off,1,0,0,,1,,,73,127
21399,note_on,1,0,0,,12,,,71,127
21509,note_off,110,0,0,,10,,,69,127
21518,note_off,9,0,0,,12,,,71,127
21519,note_on,1,0,0,,10,,,69,127
21638,note_off,119,0,0,,10,,,69,127
21639,note_on,1,0,0,,8,,,68,127
21639,note_on,0,0,0,,4,,,76,127
21759,note_on,120,0,0,,12,,,71,127
21877,note_off,118,0,0,,4,,,76,127
21878,note_off,1,0,0,,12,,,71,127
21879,note_on,1,0,0,,10,,,69,127
21989,note_off,110,0,0,,8,,,68,127
21998,note_off,9,0,0,,10,,,69,127
21999,note_on,1,0,0,,8,,,68,127
22118,note_off,119,0,0,,8,,,68,127
22119,note_on,1,0,0,,6,,,66,127
22119,note_on,0,0,0,,4,,,76,127
22239,note_on,120,0,0,,10,,,69,127
22357,note_off,118,0,0,,4,,,76,127
22358,note_off,1,0,0,,10,,,69,127
22359,note_on,1,0,0,,8,,,68,127
22469,note_off,110,0,0,,6,,,66,127
22478,note_off,9,0,0,,8,,,68,127
22479,note_on,1,0,0,,6,,,66,127
22598,note_off,119,0,0,,6,,,66,127
22599,note_on,1,0,0,,4,,,64,127
22599,note_on,0,0,0,,4,,,76,127
22719,note_on,120,0,0,,8,,,68,127
22837,note_off,118,0,0,,4,,,76,127
22838,note_off,1,0,0,,8,,,68,127
22839,note_on,1,0,0,,6,,,66,127
22949,note_off,110,0,0,,4,,,64,127
22958,note_off,9,0,0,,6,,,66,127
22959,note_on,1,0,0,,4,,,64,127
23078,note_off,119,0,0,,4,,,64,127
23079,note_on,1,0,0,,2,,,62,127
23079,note_on,0,0,0,,4,,,76,127
23199,note_on,120,0,0,,6,,,66,127
23259,note_off,60,0,0,,4,,,76,127
23318,note_off,59,0,0,,6,,,66,127
23319,note_on,1,0,0,,4,,,64,127
23429,note_off,110,0,0,,2,,,62,127
23438,note_off,9,0,0,,4,,,64,127
23439,note_on,1,0,0,,2,,,62,127
23558,note_off,119,0,0,,2,,,62,127
23559,note_on,1,0,0,,1,,,61,127
23559,note_on,0,0,0,,4,,,76,127
23679,note_on,120,0,0,,4,,,64,127
23709,note_off,30,0,0,,4,,,76,127
23798,note_off,89,0,0,,4,,,64,127
23799,note_on,1,0,0,,2,,,62,127
23909,note_off,110,0,0,,1,,,61,127
23918,note_off,9,0,0,,2,,,62,127
23919,note_on,1,0,0,,1,,,61,127
24038,note_off,119,0,0,,1,,,61,127
24039,note_on,1,0,0,,12,,,59,127
24039,note_on,0,0,0,,4,,,76,127
24158,note_off,119,0,0,,4,,,76,127
24159,note_on,1,0,0,,2,,,62,127
24278,note_off,119,0,0,,2,,,62,127
24279,note_on,1,0,0,,1,,,61,127
24389,note_off,110,0,0,,12,,,59,127
24398,note_off,9,0,0,,1,,,61,127
24399,note_on,1,0,0,,12,,,59,127
24518,note_off,119,0,0,,12,,,59,127
24519,note_on,1,0,0,,10,,,57,127
24519,note_on,0,0,0,,4,,,76,127
24638,note_off,119,0,0,,4,,,76,127
24639,note_on,1,0,0,,1,,,61,127
24758,note_off,119,0,0,,1,,,61,127
24759,note_on,1,0,0,,12,,,59,127
24869,note_off,110,0,0,,10,,,57,127
24878,note_off,9,0,0,,12,,,59,127
24879,note_on,1,0,0,,10,,,57,127
24998,note_off,119,0,0,,10,,,57,127
24999,note_on,1,0,0,,4,,,52,127
25119,note_on,120,0,0,,8,,,56,127
25238,note_off,119,0,0,,8,,,56,127
25238,note_off,0,0,0,,4,,,52,127
25239,note_on,1,0,0,,6,,,54,127
25239,note_on,0,0,0,,4,,,64,127
25358,note_off,119,0,0,,6,,,54,127
25359,note_on,1,0,0,,4,,,52,127
25478,note_off,119,0,0,,4,,,52,127
25478,note_off,0,0,0,,4,,,64,127
25479,note_on,1,0,0,,10,,,57,127
25479,note_on,0,0,0,,6,,,66,127
25538,note_off,59,0,0,,6,,,66,127
25539,note_on,1,0,0,,4,,,64,127
25598,note_off,59,0,0,,4,,,64,127
25598,note_off,0,0,0,,10,,,57,127
25599,note_on,1,0,0,,1,,,61,127
25599,note_on,0,0,0,,6,,,66,127
25658,note_off,59,0,0,,6,,,66,127
25659,note_on,1,0,0,,4,,,64,127
25718,note_off,59,0,0,,4,,,64,127
25718,note_off,0,0,0,,1,,,61,127
25719,note_on,1,0,0,,12,,,59,127
25719,note_on,0,0,0,,6,,,66,127
25778,note_off,59,0,0,,6,,,66,127
25779,note_on,1,0,0,,4,,,64,127
25838,note_off,59,0,0,,4,,,64,127
25838,note_off,0,0,0,,12,,,59,127
25839,note_on,1,0,0,,10,,,57,127
25839,note_on,0,0,0,,6,,,66,127
25898,note_off,59,0,0,,6,,,66,127
25899,note_on,1,0,0,,4,,,64,127
25958,note_off,59,0,0,,10,,,57,127
26079,note_on,121,0,0,,8,,,68,127
26198,note_off,119,0,0,,8,,,68,127
26198,note_off,0,0,0,,4,,,64,127
26199,note_on,1,0,0,,6,,,66,127
26199,note_on,0,0,0,,4,,,76,127
26318,note_off,119,0,0,,6,,,66,127
26319,note_on,1,0,0,,4,,,64,127
26438,note_off,119,0,0,,4,,,64,127
26438,note_off,0,0,0,,4,,,76,127
26439,note_on,1,0,0,,10,,,69,127
26439,note_on,0,0,0,,6,,,78,127
26498,note_off,59,0,0,,6,,,78,127
26499,note_on,1,0,0,,4,,,76,127
26558,note_off,59,0,0,,4,,,76,127
26558,note_off,0,0,0,,10,,,69,127
26559,note_on,1,0,0,,1,,,73,127
26559,note_on,0,0,0,,6,,,78,127
26618,note_off,59,0,0,,6,,,78,127
26619,note_on,1,0,0,,4,,,76,127
26678,note_off,59,0,0,,4,,,76,127
26678,note_off,0,0,0,,1,,,73,127
26679,note_on,1,0,0,,12,,,71,127
26679,note_on,0,0,0,,6,,,78,127
26738,note_off,59,0,0,,6,,,78,127
26739,note_on,1,0,0,,4,,,76,127
26798,note_off,59,0,0,,4,,,76,127
26798,note_off,0,0,0,,12,,,71,127
26799,note_on,1,0,0,,10,,,69,127
26799,note_on,0,0,0,,6,,,78,127
26858,note_off,59,0,0,,6,,,78,127
26859,note_on,1,0,0,,4,,,76,127
26918,note_off,59,0,0,,10,,,69,127
26919,note_on,1,0,0,,4,,,40,127
27038,note_off,119,0,0,,4,,,40,127
27039,note_on,1,0,0,,8,,,44,127
27158,note_off,119,0,0,,8,,,44,127
27158,note_off,0,0,0,,4,,,76,127
27159,note_on,1,0,0,,4,,,64,127
27159,note_on,0,0,0,,6,,,42,127
27278,note_off,119,0,0,,6,,,42,127
27279,note_on,1,0,0,,4,,,40,127
27398,note_off,119,0,0,,4,,,40,127
27398,note_off,0,0,0,,4,,,64,127
27399,note_on,1,0,0,,6,,,66,127
27399,note_on,0,0,0,,10,,,45,127
27458,note_off,59,0,0,,6,,,66,127
27459,note_on,1,0,0,,4,,,64,127
27518,note_off,59,0,0,,4,,,64,127
27518,note_off,0,0,0,,10,,,45,127
27519,note_on,1,0,0,,6,,,66,127
27519,note_on,0,0,0,,1,,,49,127
27578,note_off,59,0,0,,6,,,66,127
27579,note_on,1,0,0,,4,,,64,127
27638,note_off,59,0,0,,4,,,64,127
27638,note_off,0,0,0,,1,,,49,127
27639,note_on,1,0,0,,6,,,66,127
27639,note_on,0,0,0,,12,,,47,127
27698,note_off,59,0,0,,6,,,66,127
27699,note_on,1,0,0,,4,,,64,127
27758,note_off,59,0,0,,4,,,64,127
27758,note_off,0,0,0,,12,,,47,127
27759,note_on,1,0,0,,6,,,66,127
27759,note_on,0,0,0,,10,,,45,127
27818,note_off,59,0,0,,6,,,66,127
27819,note_on,1,0,0,,4,,,64,127
27878,note_off,59,0,0,,10,,,45,127
27879,note_on,1,0,0,,4,,,52,127
27998,note_off,119,0,0,,4,,,52,127
27999,note_on,1,0,0,,8,,,56,127
28118,note_off,119,0,0,,8,,,56,127
28118,note_off,0,0,0,,4,,,64,127
28119,note_on,1,0,0,,4,,,76,127
28119,note_on,0,0,0,,6,,,54,127
28238,note_off,119,0,0,,6,,,54,127
28239,note_on,1,0,0,,4,,,52,127
28358,note_off,119,0,0,,4,,,52,127
28358,note_off,0,0,0,,4,,,76,127
28359,note_on,1,0,0,,6,,,78,127
28359,note_on,0,0,0,,10,,,57,127
28418,note_off,59,0,0,,6,,,78,127
28419,note_on,1,0,0,,4,,,76,127
28478,note_off,59,0,0,,4,,,76,127
28478,note_off,0,0,0,,10,,,57,127
28479,note_on,1,0,0,,6,,,78,127
28479,note_on,0,0,0,,1,,,61,127
28538,note_off,59,0,0,,6,,,78,127
28539,note_on,1,0,0,,4,,,76,127
28598,note_off,59,0,0,,4,,,76,127
28598,note_off,0,0,0,,1,,,61,127
28599,note_on,1,0,0,,6,,,78,127
28599,note_on,0,0,0,,12,,,59,127
28658,note_off,59,0,0,,6,,,78,127
28659,note_on,1,0,0,,4,,,76,127
28718,note_off,59,0,0,,4,,,76,127
28718,note_off,0,0,0,,12,,,59,127
28719,note_on,1,0,0,,6,,,78,127
28719,note_on,0,0,0,,10,,,57,127
28778,note_off,59,0,0,,6,,,78,127
28779,note_on,1,0,0,,4,,,76,127
28838,note_off,59,0,0,,10,,,57,127
28839,note_on,1,0,0,,4,,,64,127
28958,note_off,119,0,0,,4,,,76,127
28959,note_on,1,0,0,,10,,,81,127
29078,note_off,119,0,0,,10,,,81,127
29079,note_on,1,0,0,,8,,,80,127
29198,note_off,119,0,0,,8,,,80,127
29199,note_on,1,0,0,,10,,,81,127
29318,note_off,119,0,0,,10,,,81,127
29319,note_on,1,0,0,,12,,,83,127
29439,note_off,120,0,0,,4,,,64,127
29439,note_on,0,0,0,,5,,,77,127
29439,note_on,0,0,0,,2,,,74,127
29457,note_off,18,0,0,,12,,,83,127
29558,note_off,101,0,0,,2,,,74,127
29558,note_off,0,0,0,,5,,,77,127
29559,note_on,1,0,0,,4,,,76,127
29559,note_on,0,0,0,,0,,,72,127
29678,note_off,119,0,0,,0,,,72,127
29678,note_off,0,0,0,,4,,,76,127
29679,note_on,1,0,0,,2,,,74,127
29679,note_on,0,0,0,,12,,,71,127
29798,note_off,119,0,0,,12,,,71,127
29798,note_off,0,0,0,,2,,,74,127
29799,note_on,1,0,0,,4,,,76,127
29799,note_on,0,0,0,,0,,,72,127
29918,note_off,119,0,0,,0,,,72,127
29918,note_off,0,0,0,,4,,,76,127
29919,note_on,1,0,0,,10,,,81,127
29919,note_on,0,0,0,,0,,,72,127
30038,note_off,119,0,0,,0,,,72,127
30038,note_off,0,0,0,,10,,,81,127
30039,note_on,1,0,0,,8,,,80,127
30039,note_on,0,0,0,,12,,,71,127
30158,note_off,119,0,0,,12,,,71,127
30158,note_off,0,0,0,,8,,,80,127
30159,note_on,1,0,0,,10,,,81,127
30159,note_on,0,0,0,,10,,,69,127
30278,note_off,119,0,0,,10,,,69,127
30278,note_off,0,0,0,,10,,,81,127
30279,note_on,1,0,0,,12,,,83,127
30279,note_on,0,0,0,,4,,,64,127
30399,note_on,120,0,0,,2,,,74,127
30399,note_on,0,0,0,,12,,,71,127
30410,note_off,11,0,0,,12,,,83,127
30459,note_off,49,0,0,,4,,,64,127
30518,note_off,59,0,0,,12,,,71,127
30518,note_off,0,0,0,,2,,,74,127
30519,note_on,1,0,0,,0,,,72,127
30519,note_on,0,0,0,,10,,,69,127
30638,note_off,119,0,0,,10,,,69,127
30638,note_off,0,0,0,,0,,,72,127
30639,note_on,1,0,0,,8,,,68,127
30639,note_on,0,0,0,,12,,,71,127
30758,note_off,119,0,0,,12,,,71,127
30758,note_off,0,0,0,,8,,,68,127
30759,note_on,1,0,0,,10,,,57,127
30759,note_on,0,0,0,,0,,,72,127
30878,note_off,119,0,0,,0,,,72,127
30879,note_on,1,0,0,,10,,,69,127
30879,note_on,0,0,0,,0,,,72,127
30997,note_off,118,0,0,,10,,,57,127
30998,note_off,1,0,0,,0,,,72,127
30998,note_off,0,0,0,,10,,,69,127
30999,note_on,1,0,0,,8,,,68,127
30999,note_on,0,0,0,,12,,,71,127
31118,note_off,119,0,0,,12,,,71,127
31118,note_off,0,0,0,,8,,,68,127
31119,note_on,1,0,0,,10,,,69,127
31119,note_on,0,0,0,,0,,,72,127
31238,note_off,119,0,0,,0,,,72,127
31238,note_off,0,0,0,,10,,,69,127
31239,note_on,1,0,0,,4,,,64,127
31239,note_on,0,0,0,,2,,,74,127
31358,note_off,119,0,0,,2,,,74,127
31359,note_on,1,0,0,,12,,,71,127
31359,note_on,0,0,0,,2,,,74,127
31419,note_off,60,0,0,,4,,,64,127
31478,note_off,59,0,0,,2,,,74,127
31478,note_off,0,0,0,,12,,,71,127
31479,note_on,1,0,0,,10,,,69,127
31479,note_on,0,0,0,,0,,,72,127
31598,note_off,119,0,0,,0,,,72,127
31598,note_off,0,0,0,,10,,,69,127
31599,note_on,1,0,0,,8,,,68,127
31599,note_on,0,0,0,,12,,,71,127
31718,note_off,119,0,0,,12,,,71,127
31718,note_off,0,0,0,,8,,,68,127
31719,note_on,1,0,0,,10,,,57,127
31719,note_on,0,0,0,,0,,,72,127
31838,note_off,119,0,0,,0,,,72,127
31839,note_on,1,0,0,,10,,,69,127
31839,note_on,0,0,0,,0,,,72,127
31957,note_off,118,0,0,,10,,,57,127
31958,note_off,1,0,0,,0,,,72,127
31958,note_off,0,0,0,,10,,,69,127
31959,note_on,1,0,0,,8,,,68,127
31959,note_on,0,0,0,,12,,,71,127
32078,note_off,119,0,0,,12,,,71,127
32078,note_off,0,0,0,,8,,,68,127
32079,note_on,1,0,0,,10,,,69,127
32079,note_on,0,0,0,,0,,,72,127
32198,note_off,119,0,0,,0,,,72,127
32198,note_off,0,0,0,,10,,,69,127
32199,note_on,1,0,0,,4,,,64,127
32199,note_on,0,0,0,,2,,,74,127
32318,note_off,119,0,0,,2,,,74,127
32319,note_on,1,0,0,,12,,,71,127
32319,note_on,0,0,0,,2,,,74,127
32379,note_off,60,0,0,,4,,,64,127
32438,note_off,59,0,0,,2,,,74,127
32438,note_off,0,0,0,,12,,,71,127
32439,note_on,1,0,0,,10,,,69,127
32439,note_on,0,0,0,,0,,,72,127
32558,note_off,119,0,0,,0,,,72,127
32558,note_off,0,0,0,,10,,,69,127
32559,note_on,1,0,0,,8,,,68,127
32559,note_on,0,0,0,,12,,,71,127
32678,note_off,119,0,0,,12,,,71,127
32678,note_off,0,0,0,,8,,,68,127
32679,note_on,1,0,0,,10,,,57,127
32679,note_on,0,0,0,,0,,,72,127
32798,note_off,119,0,0,,0,,,72,127
32799,note_on,1,0,0,,10,,,69,127
32799,note_on,0,0,0,,0,,,72,127
32917,note_off,118,0,0,,10,,,57,127
32918,note_off,1,0,0,,0,,,72,127
32918,note_off,0,0,0,,10,,,69,127
32919,note_on,1,0,0,,8,,,68,127
32919,note_on,0,0,0,,12,,,71,127
33038,note_off,119,0,0,,12,,,71,127
33038,note_off,0,0,0,,8,,,68,127
33039,note_on,1,0,0,,10,,,69,127
33039,note_on,0,0,0,,0,,,72,127
33158,note_off,119,0,0,,0,,,72,127
33158,note_off,0,0,0,,10,,,69,127
33159,note_on,1,0,0,,4,,,64,127
33159,note_on,0,0,0,,2,,,74,127
33278,note_off,119,0,0,,2,,,74,127
33279,note_on,1,0,0,,12,,,71,127
33279,note_on,0,0,0,,2,,,74,127
33339,note_off,60,0,0,,4,,,64,127
33398,note_off,59,0,0,,2,,,74,127
33398,note_off,0,0,0,,12,,,71,127
33399,note_on,1,0,0,,10,,,69,127
33399,note_on,0,0,0,,0,,,72,127
33518,note_off,119,0,0,,0,,,72,127
33518,note_off,0,0,0,,10,,,69,127
33519,note_on,1,0,0,,8,,,68,127
33519,note_on,0,0,0,,12,,,71,127
33638,note_off,119,0,0,,12,,,71,127
33638,note_off,0,0,0,,8,,,68,127
33639,note_on,1,0,0,,10,,,57,127
33639,note_on,0,0,0,,0,,,72,127
33758,note_off,119,0,0,,0,,,72,127
33759,note_on,1,0,0,,10,,,69,127
33759,note_on,0,0,0,,0,,,72,127
33877,note_off,118,0,0,,10,,,57,127
33878,note_off,1,0,0,,0,,,72,127
33878,note_off,0,0,0,,10,,,69,127
33879,note_on,1,0,0,,7,,,67,127
33879,note_on,0,0,0,,2,,,74,127
33998,note_off,119,0,0,,2,,,74,127
33998,note_off,0,0,0,,7,,,67,127
33999,note_on,1,0,0,,5,,,65,127
33999,note_on,0,0,0,,4,,,76,127
34118,note_off,119,0,0,,4,,,76,127
34118,note_off,0,0,0,,5,,,65,127
34119,note_on,1,0,0,,10,,,57,127
34119,note_on,0,0,0,,1,,,73,127
34238,note_off,119,0,0,,1,,,73,127
34239,note_on,1,0,0,,7,,,67,127
34239,note_on,0,0,0,,1,,,73,127
34357,note_off,118,0,0,,10,,,57,127
34358,note_off,1,0,0,,1,,,73,127
34358,note_off,0,0,0,,7,,,67,127
34359,note_on,1,0,0,,5,,,65,127
34359,note_on,0,0,0,,2,,,74,127
34478,note_off,119,0,0,,2,,,74,127
34478,note_off,0,0,0,,5,,,65,127
34479,note_on,1,0,0,,4,,,64,127
34479,note_on,0,0,0,,4,,,76,127
34598,note_off,119,0,0,,4,,,76,127
34598,note_off,0,0,0,,4,,,64,127
34599,note_on,1,0,0,,2,,,50,127
34599,note_on,0,0,0,,10,,,69,127
34599,note_on,0,0,0,,2,,,74,127
34718,note_off,119,0,0,,2,,,74,127
34718,note_off,0,0,0,,2,,,50,127
34719,note_on,1,0,0,,2,,,74,127
34719,note_on,0,0,0,,5,,,65,127
34838,note_off,119,0,0,,5,,,65,127
34838,note_off,0,0,0,,2,,,74,127
34839,note_on,1,0,0,,4,,,76,127
34839,note_on,0,0,0,,4,,,64,127
34958,note_off,119,0,0,,4,,,64,127
34958,note_off,0,0,0,,4,,,76,127
34959,note_on,1,0,0,,5,,,77,127
34959,note_on,0,0,0,,2,,,62,127
35078,note_off,119,0,0,,2,,,62,127
35078,note_off,0,0,0,,5,,,77,127
35078,note_off,0,0,0,,10,,,69,127
35079,note_on,1,0,0,,10,,,69,127
35079,note_on,0,0,0,,1,,,73,127
35079,note_on,0,0,0,,10,,,57,127
35198,note_off,119,0,0,,1,,,73,127
35199,note_on,1,0,0,,1,,,73,127
35199,note_on,0,0,0,,7,,,67,127
35259,note_off,60,0,0,,10,,,57,127
35318,note_off,59,0,0,,7,,,67,127
35318,note_off,0,0,0,,1,,,73,127
35319,note_on,1,0,0,,2,,,74,127
35319,note_on,0,0,0,,5,,,65,127
35438,note_off,119,0,0,,5,,,65,127
35438,note_off,0,0,0,,2,,,74,127
35439,note_on,1,0,0,,4,,,76,127
35439,note_on,0,0,0,,4,,,64,127
35558,note_off,119,0,0,,4,,,64,127
35558,note_off,0,0,0,,4,,,76,127
35558,note_off,0,0,0,,10,,,69,127
35559,note_on,1,0,0,,10,,,69,127
35559,note_on,0,0,0,,2,,,74,127
35559,note_on,0,0,0,,2,,,50,127
35678,note_off,119,0,0,,2,,,50,127
35678,note_off,0,0,0,,2,,,74,127
35679,note_on,1,0,0,,2,,,74,127
35679,note_on,0,0,0,,5,,,65,127
35798,note_off,119,0,0,,5,,,65,127
35798,note_off,0,0,0,,2,,,74,127
35799,note_on,1,0,0,,4,,,76,127
35799,note_on,0,0,0,,4,,,64,127
35918,note_off,119,0,0,,4,,,64,127
35918,note_off,0,0,0,,4,,,76,127
35919,note_on,1,0,0,,5,,,77,127
35919,note_on,0,0,0,,2,,,62,127
36038,note_off,119,0,0,,2,,,62,127
36038,note_off,0,0,0,,5,,,77,127
36038,note_off,0,0,0,,10,,,69,127
36039,note_on,1,0,0,,1,,,73,127
36039,note_on,0,0,0,,10,,,69,127
36039,note_on,0,0,0,,10,,,57,127
36158,note_off,119,0,0,,1,,,73,127
36159,note_on,1,0,0,,1,,,73,127
36159,note_on,0,0,0,,7,,,67,127
36219,note_off,60,0,0,,10,,,57,127
36278,note_off,59,0,0,,7,,,67,127
36278,note_off,0,0,0,,1,,,73,127
36279,note_on,1,0,0,,2,,,74,127
36279,note_on,0,0,0,,5,,,65,127
36398,note_off,119,0,0,,5,,,65,127
36398,note_off,0,0,0,,2,,,74,127
36399,note_on,1,0,0,,4,,,76,127
36399,note_on,0,0,0,,4,,,64,127
36518,note_off,119,0,0,,4,,,64,127
36518,note_off,0,0,0,,4,,,76,127
36518,note_off,0,0,0,,10,,,69,127
36519,note_on,1,0,0,,10,,,69,127
36519,note_on,0,0,0,,2,,,74,127
36519,note_on,0,0,0,,2,,,50,127
36638,note_off,119,0,0,,2,,,50,127
36638,note_off,0,0,0,,2,,,74,127
36639,note_on,1,0,0,,2,,,74,127
36639,note_on,0,0,0,,5,,,65,127
36758,note_off,119,0,0,,5,,,65,127
36758,note_off,0,0,0,,2,,,74,127
36759,note_on,1,0,0,,4,,,76,127
36759,note_on,0,0,0,,4,,,64,127
36878,note_off,119,0,0,,4,,,64,127
36878,note_off,0,0,0,,4,,,76,127
36879,note_off,1,0,0,,10,,,69,127
36879,note_on,0,0,0,,5,,,77,127
36879,note_on,0,0,0,,2,,,62,127
36998,note_off,119,0,0,,2,,,62,127
36998,note_off,0,0,0,,5,,,77,127
36999,note_on,1,0,0,,8,,,68,127
36999,note_on,0,0,0,,4,,,64,127
36999,note_on,0,0,0,,4,,,52,127
37118,note_off,119,0,0,,8,,,68,127
37119,note_on,1,0,0,,2,,,62,127
37119,note_on,0,0,0,,8,,,68,127
37179,note_off,60,0,0,,4,,,52,127
37238,note_off,59,0,0,,8,,,68,127
37238,note_off,0,0,0,,2,,,62,127
37239,note_on,1,0,0,,0,,,60,127
37239,note_on,0,0,0,,10,,,69,127
37358,note_off,119,0,0,,10,,,69,127
37358,note_off,0,0,0,,0,,,60,127
37359,note_on,1,0,0,,12,,,59,127
37359,note_on,0,0,0,,12,,,71,127
37478,note_off,119,0,0,,12,,,71,127
37478,note_off,0,0,0,,12,,,59,127
37478,note_off,0,0,0,,4,,,64,127
37479,note_on,1,0,0,,10,,,45,127
37479,note_on,0,0,0,,10,,,69,127
37479,note_on,0,0,0,,4,,,64,127
37598,note_off,119,0,0,,10,,,69,127
37598,note_off,0,0,0,,10,,,45,127
37599,note_on,1,0,0,,0,,,60,127
37599,note_on,0,0,0,,10,,,69,127
37718,note_off,119,0,0,,10,,,69,127
37718,note_off,0,0,0,,0,,,60,127
37719,note_on,1,0,0,,12,,,59,127
37719,note_on,0,0,0,,12,,,71,127
37838,note_off,119,0,0,,12,,,71,127
37838,note_off,0,0,0,,12,,,59,127
37839,note_on,1,0,0,,10,,,57,127
37839,note_on,0,0,0,,0,,,72,127
37958,note_off,119,0,0,,0,,,72,127
37958,note_off,0,0,0,,10,,,57,127
37958,note_off,0,0,0,,4,,,64,127
37959,note_on,1,0,0,,4,,,52,127
37959,note_on,0,0,0,,4,,,64,127
37959,note_on,0,0,0,,8,,,68,127
38078,note_off,119,0,0,,8,,,68,127
38079,note_on,1,0,0,,2,,,62,127
38079,note_on,0,0,0,,8,,,68,127
38139,note_off,60,0,0,,4,,,52,127
38198,note_off,59,0,0,,8,,,68,127
38198,note_off,0,0,0,,2,,,62,127
38199,note_on,1,0,0,,0,,,60,127
38199,note_on,0,0,0,,10,,,69,127
38318,note_off,119,0,0,,10,,,69,127
38318,note_off,0,0,0,,0,,,60,127
38319,note_on,1,0,0,,12,,,59,127
38319,note_on,0,0,0,,12,,,71,127
38438,note_off,119,0,0,,12,,,71,127
38438,note_off,0,0,0,,12,,,59,127
38438,note_off,0,0,0,,4,,,64,127
38439,note_on,1,0,0,,10,,,45,127
38439,note_on,0,0,0,,10,,,69,127
38439,note_on,0,0,0,,4,,,64,127
38558,note_off,119,0,0,,10,,,69,127
38558,note_off,0,0,0,,10,,,45,127
38559,note_on,1,0,0,,0,,,60,127
38559,note_on,0,0,0,,10,,,69,127
38678,note_off,119,0,0,,10,,,69,127
38678,note_off,0,0,0,,0,,,60,127
38679,note_on,1,0,0,,12,,,59,127
38679,note_on,0,0,0,,12,,,71,127
38798,note_off,119,0,0,,12,,,71,127
38798,note_off,0,0,0,,12,,,59,127
38799,note_on,1,0,0,,10,,,57,127
38799,note_on,0,0,0,,0,,,72,127
38918,note_off,119,0,0,,0,,,72,127
38918,note_off,0,0,0,,10,,,57,127
38918,note_off,0,0,0,,4,,,64,127
38919,note_on,1,0,0,,4,,,52,127
38919,note_on,0,0,0,,8,,,68,127
38919,note_on,0,0,0,,4,,,64,127
39038,note_off,119,0,0,,8,,,68,127
39039,note_on,1,0,0,,2,,,62,127
39039,note_on,0,0,0,,8,,,68,127
39099,note_off,60,0,0,,4,,,52,127
39158,note_off,59,0,0,,8,,,68,127
39158,note_off,0,0,0,,2,,,62,127
39159,note_on,1,0,0,,0,,,60,127
39159,note_on,0,0,0,,10,,,69,127
39278,note_off,119,0,0,,10,,,69,127
39278,note_off,0,0,0,,0,,,60,127
39279,note_on,1,0,0,,12,,,59,127
39279,note_on,0,0,0,,12,,,71,127
39398,note_off,119,0,0,,12,,,71,127
39398,note_off,0,0,0,,12,,,59,127
39398,note_off,0,0,0,,4,,,64,127
39399,note_on,1,0,0,,10,,,45,127
39399,note_on,0,0,0,,10,,,69,127
39399,note_on,0,0,0,,4,,,64,127
39518,note_off,119,0,0,,10,,,69,127
39518,note_off,0,0,0,,10,,,45,127
39519,note_on,1,0,0,,0,,,60,127
39519,note_on,0,0,0,,10,,,69,127
39638,note_off,119,0,0,,10,,,69,127
39638,note_off,0,0,0,,0,,,60,127
39639,note_on,1,0,0,,12,,,59,127
39639,note_on,0,0,0,,12,,,71,127
39758,note_off,119,0,0,,12,,,71,127
39758,note_off,0,0,0,,12,,,59,127
39759,note_on,1,0,0,,10,,,57,127
39759,note_on,0,0,0,,0,,,72,127
39878,note_off,119,0,0,,4,,,64,127
39879,note_on,1,0,0,,3,,,63,127
39879,note_on,0,0,0,,12,,,47,127
39884,note_off,5,0,0,,10,,,57,127
39890,note_off,6,0,0,,0,,,72,127
39998,note_off,108,0,0,,3,,,63,127
39999,note_on,1,0,0,,3,,,63,127
39999,note_on,0,0,0,,10,,,57,127
40117,note_off,118,0,0,,12,,,47,127
40118,note_off,1,0,0,,10,,,57,127
40118,note_off,0,0,0,,3,,,63,127
40119,note_on,1,0,0,,4,,,64,127
40119,note_on,0,0,0,,8,,,56,127
40238,note_off,119,0,0,,8,,,56,127
40238,note_off,0,0,0,,4,,,64,127
40239,note_on,1,0,0,,6,,,66,127
40239,note_on,0,0,0,,6,,,54,127
40358,note_off,119,0,0,,6,,,54,127
40358,note_off,0,0,0,,6,,,66,127
40359,note_on,1,0,0,,4,,,64,127
40359,note_on,0,0,0,,8,,,56,127
40478,note_off,119,0,0,,4,,,64,127
40479,note_on,1,0,0,,6,,,66,127
40598,note_off,119,0,0,,6,,,66,127
40598,note_off,0,0,0,,8,,,56,127
40599,note_on,1,0,0,,4,,,64,127
40599,note_on,0,0,0,,4,,,52,127
40718,note_off,119,0,0,,4,,,64,127
40719,note_on,1,0,0,,2,,,62,127
40838,note_off,119,0,0,,2,,,62,127
40838,note_off,0,0,0,,4,,,52,127
40839,note_on,1,0,0,,1,,,61,127
40839,note_on,0,0,0,,10,,,57,127
40958,note_off,119,0,0,,1,,,61,127
40959,note_on,1,0,0,,12,,,71,127
41078,note_off,119,0,0,,12,,,71,127
41079,note_on,1,0,0,,10,,,69,127
41079,note_on,0,0,0,,10,,,45,127
41198,note_off,119,0,0,,10,,,69,127
41199,note_on,1,0,0,,8,,,68,127
41314,note_off,115,0,0,,10,,,57,127
41318,note_off,4,0,0,,8,,,68,127
41318,note_off,0,0,0,,10,,,45,127
41319,note_on,1,0,0,,6,,,66,127
41319,note_on,0,0,0,,2,,,50,127
41438,note_off,119,0,0,,6,,,66,127
41439,note_on,1,0,0,,4,,,76,127
41558,note_off,119,0,0,,4,,,76,127
41558,note_off,0,0,0,,2,,,50,127
41559,note_on,1,0,0,,2,,,74,127
41559,note_on,0,0,0,,12,,,47,127
41678,note_off,119,0,0,,2,,,74,127
41679,note_on,1,0,0,,1,,,73,127
41798,note_off,119,0,0,,1,,,73,127
41798,note_off,0,0,0,,12,,,47,127
41799,note_on,1,0,0,,12,,,71,127
41799,note_on,0,0,0,,4,,,52,127
41918,note_off,119,0,0,,12,,,71,127
41919,note_on,1,0,0,,6,,,78,127
42038,note_off,119,0,0,,6,,,78,127
42038,note_off,0,0,0,,4,,,52,127
42039,note_on,1,0,0,,4,,,76,127
42039,note_on,0,0,0,,8,,,56,127
42158,note_off,119,0,0,,4,,,76,127
42159,note_on,1,0,0,,2,,,74,127
42278,note_off,119,0,0,,2,,,74,127
42278,note_off,0,0,0,,8,,,56,127
42279,note_on,1,0,0,,1,,,73,127
42279,note_on,0,0,0,,10,,,57,127
42398,note_off,119,0,0,,1,,,73,127
42399,note_on,1,0,0,,12,,,83,127
42518,note_off,119,0,0,,12,,,83,127
42518,note_off,0,0,0,,10,,,57,127
42519,note_on,1,0,0,,10,,,81,127
42519,note_on,0,0,0,,1,,,61,127
42638,note_off,119,0,0,,10,,,81,127
42639,note_on,1,0,0,,8,,,80,127
42758,note_off,119,0,0,,8,,,80,127
42758,note_off,0,0,0,,1,,,61,127
42759,note_on,1,0,0,,6,,,78,127
42759,note_on,0,0,0,,2,,,62,127
42878,note_off,119,0,0,,6,,,78,127
42879,note_on,1,0,0,,4,,,76,127
42998,note_off,119,0,0,,4,,,76,127
42998,note_off,0,0,0,,2,,,62,127
42999,note_on,1,0,0,,2,,,74,127
42999,note_on,0,0,0,,2,,,50,127
43118,note_off,119,0,0,,2,,,74,127
43119,note_on,1,0,0,,1,,,73,127
43238,note_off,119,0,0,,1,,,73,127
43238,note_off,0,0,0,,2,,,50,127
43239,note_on,1,0,0,,12,,,71,127
43239,note_on,0,0,0,,4,,,40,127
43358,note_off,119,0,0,,12,,,71,127
43359,note_on,1,0,0,,10,,,69,127
43478,note_off,119,0,0,,10,,,69,127
43479,note_on,1,0,0,,8,,,68,127
43598,note_off,119,0,0,,8,,,68,127
43599,note_on,1,0,0,,6,,,66,127
43708,note_off,109,0,0,,4,,,40,127
43718,note_off,10,0,0,,6,,,66,127
43719,note_on,1,0,0,,4,,,64,127
43839,note_on,120,0,0,,12,,,59,127
43839,note_on,0,0,0,,2,,,62,127
43864,note_off,25,0,0,,4,,,64,127
43958,note_off,94,0,0,,2,,,62,127
43958,note_off,0,0,0,,12,,,59,127
43959,note_on,1,0,0,,10,,,57,127
43959,note_on,0,0,0,,1,,,61,127
44078,note_off,119,0,0,,1,,,61,127
44078,note_off,0,0,0,,10,,,57,127
44079,note_on,1,0,0,,8,,,56,127
44079,note_on,0,0,0,,12,,,59,127
44198,note_off,119,0,0,,12,,,59,127
44198,note_off,0,0,0,,8,,,56,127
44199,note_on,1,0,0,,10,,,57,127
44199,note_on,0,0,0,,1,,,61,127
44318,note_off,119,0,0,,1,,,61,127
44319,note_on,1,0,0,,4,,,64,127
44438,note_off,119,0,0,,4,,,64,127
44438,note_off,0,0,0,,10,,,57,127
44439,note_on,1,0,0,,1,,,49,127
44439,note_on,0,0,0,,10,,,69,127
44558,note_off,119,0,0,,10,,,69,127
44559,note_on,1,0,0,,1,,,73,127
44678,note_off,119,0,0,,1,,,73,127
44678,note_off,0,0,0,,1,,,49,127
44679,note_on,1,0,0,,2,,,50,127
44679,note_on,0,0,0,,12,,,71,127
44798,note_off,119,0,0,,12,,,71,127
44799,note_on,1,0,0,,2,,,74,127
44918,note_off,119,0,0,,2,,,74,127
44918,note_off,0,0,0,,2,,,50,127
44919,note_on,1,0,0,,12,,,47,127
44919,note_on,0,0,0,,8,,,68,127
45038,note_off,119,0,0,,8,,,68,127
45039,note_on,1,0,0,,12,,,71,127
45158,note_off,119,0,0,,12,,,47,127
45159,note_off,1,0,0,,12,,,71,127
45159,note_on,0,0,0,,1,,,49,127
45159,note_on,0,0,0,,4,,,64,127
45278,note_off,119,0,0,,4,,,64,127
45279,note_on,1,0,0,,10,,,69,127
45398,note_off,119,0,0,,10,,,69,127
45398,note_off,0,0,0,,1,,,49,127
45399,note_on,1,0,0,,10,,,45,127
45399,note_on,0,0,0,,1,,,73,127
45518,note_off,119,0,0,,1,,,73,127
45519,note_on,1,0,0,,4,,,76,127
45638,note_off,119,0,0,,4,,,76,127
45638,note_off,0,0,0,,10,,,45,127
45639,note_on,1,0,0,,2,,,50,127
45639,note_on,0,0,0,,2,,,74,127
45758,note_off,119,0,0,,2,,,74,127
45759,note_on,1,0,0,,6,,,78,127
45878,note_off,119,0,0,,6,,,78,127
45878,note_off,0,0,0,,2,,,50,127
45879,note_on,1,0,0,,4,,,52,127
45879,note_on,0,0,0,,12,,,71,127
45998,note_off,119,0,0,,12,,,71,127
45999,note_on,1,0,0,,2,,,74,127
46118,note_off,119,0,0,,2,,,74,127
46118,note_off,0,0,0,,4,,,52,127
46119,note_on,1,0,0,,1,,,73,127
46119,note_on,0,0,0,,10,,,57,127
46238,note_off,119,0,0,,1,,,73,127
46239,note_on,1,0,0,,10,,,81,127
46358,note_off,119,0,0,,10,,,81,127
46358,note_off,0,0,0,,10,,,57,127
46359,note_on,1,0,0,,6,,,78,127
46359,note_on,0,0,0,,2,,,50,127
46478,note_off,119,0,0,,6,,,78,127
46479,note_on,1,0,0,,2,,,74,127
46598,note_off,119,0,0,,2,,,74,127
46598,note_off,0,0,0,,2,,,50,127
46599,note_on,1,0,0,,1,,,73,127
46599,note_on,0,0,0,,4,,,52,127
46718,note_off,119,0,0,,1,,,73,127
46719,note_on,1,0,0,,10,,,81,127
46838,note_off,119,0,0,,10,,,81,127
46839,note_on,1,0,0,,12,,,71,127
46839,note_on,0,0,0,,4,,,40,127
46958,note_off,119,0,0,,12,,,71,127
46959,note_on,1,0,0,,8,,,80,127
47074,note_off,115,0,0,,4,,,52,127
47078,note_off,4,0,0,,8,,,80,127
47078,note_off,0,0,0,,4,,,40,127
47079,note_on,1,0,0,,10,,,69,127
47079,note_on,0,0,0,,10,,,45,127
47199,note_on,120,0,0,,10,,,57,127
47317,note_off,118,0,0,,10,,,45,127
47318,note_off,1,0,0,,10,,,57,127
47318,note_off,0,0,0,,10,,,69,127
47319,note_on,1,0,0,,10,,,81,127
47319,note_on,0,0,0,,8,,,56,127
47438,note_off,119,0,0,,8,,,56,127
47439,note_on,1,0,0,,10,,,57,127
47558,note_off,119,0,0,,10,,,57,127
47559,note_on,1,0,0,,1,,,61,127
47679,note_on,120,0,0,,10,,,57,127
47797,note_off,118,0,0,,1,,,61,127
47798,note_off,1,0,0,,10,,,57,127
47798,note_off,0,0,0,,10,,,81,127
47799,note_on,1,0,0,,4,,,76,127
47799,note_on,0,0,0,,8,,,56,127
47918,note_off,119,0,0,,8,,,56,127
47919,note_on,1,0,0,,10,,,57,127
48038,note_off,119,0,0,,10,,,57,127
48038,note_off,0,0,0,,4,,,76,127
48039,note_on,1,0,0,,2,,,74,127
48039,note_on,0,0,0,,10,,,45,127
48098,note_off,59,0,0,,2,,,74,127
48099,note_on,1,0,0,,1,,,73,127
48158,note_off,59,0,0,,1,,,73,127
48159,note_on,1,0,0,,2,,,74,127
48159,note_on,0,0,0,,10,,,57,127
48218,note_off,59,0,0,,2,,,74,127
48219,note_on,1,0,0,,1,,,73,127
48277,note_off,58,0,0,,10,,,45,127
48278,note_off,1,0,0,,1,,,73,127
48278,note_off,0,0,0,,10,,,57,127
48279,note_on,1,0,0,,10,,,81,127
48279,note_on,0,0,0,,8,,,56,127
48398,note_off,119,0,0,,8,,,56,127
48399,note_on,1,0,0,,10,,,57,127
48518,note_off,119,0,0,,10,,,57,127
48519,note_on,1,0,0,,4,,,64,127
48639,note_on,120,0,0,,10,,,57,127
48757,note_off,118,0,0,,4,,,64,127
48758,note_off,1,0,0,,10,,,57,127
48758,note_off,0,0,0,,10,,,81,127
48759,note_on,1,0,0,,4,,,76,127
48759,note_on,0,0,0,,8,,,56,127
48878,note_off,119,0,0,,8,,,56,127
48879,note_on,1,0,0,,10,,,57,127
48998,note_off,119,0,0,,10,,,57,127
48998,note_off,0,0,0,,4,,,76,127
48999,note_on,1,0,0,,2,,,74,127
48999,note_on,0,0,0,,10,,,45,127
49058,note_off,59,0,0,,2,,,74,127
49059,note_on,1,0,0,,1,,,73,127
49118,note_off,59,0,0,,1,,,73,127
49119,note_on,1,0,0,,2,,,74,127
49119,note_on,0,0,0,,10,,,57,127
49178,note_off,59,0,0,,2,,,74,127
49179,note_on,1,0,0,,1,,,73,127
49237,note_off,58,0,0,,10,,,45,127
49238,note_off,1,0,0,,1,,,73,127
49238,note_off,0,0,0,,10,,,57,127
49239,note_on,1,0,0,,10,,,81,127
49239,note_on,0,0,0,,8,,,56,127
49358,note_off,119,0,0,,8,,,56,127
49359,note_on,1,0,0,,10,,,57,127
49478,note_off,119,0,0,,10,,,57,127
49479,note_on,1,0,0,,10,,,69,127
49598,note_off,119,0,0,,10,,,69,127
49599,note_on,1,0,0,,10,,,57,127
49718,note_off,119,0,0,,10,,,57,127
49718,note_off,0,0,0,,10,,,81,127
49719,note_on,1,0,0,,4,,,76,127
49719,note_on,0,0,0,,8,,,56,127
49838,note_off,119,0,0,,8,,,56,127
49839,note_on,1,0,0,,10,,,57,127
49958,note_off,119,0,0,,10,,,57,127
49958,note_off,0,0,0,,4,,,76,127
49959,note_on,1,0,0,,1,,,73,127
49959,note_on,0,0,0,,10,,,45,127
50078,note_off,119,0,0,,1,,,73,127
50079,note_on,1,0,0,,6,,,78,127
50198,note_off,119,0,0,,6,,,78,127
50198,note_off,0,0,0,,10,,,45,127
50199,note_on,1,0,0,,4,,,76,127
50199,note_on,0,0,0,,2,,,50,127
50318,note_off,119,0,0,,4,,,76,127
50319,note_on,1,0,0,,2,,,74,127
50438,note_off,119,0,0,,2,,,74,127
50438,note_off,0,0,0,,2,,,50,127
50439,note_on,1,0,0,,1,,,73,127
50439,note_on,0,0,0,,4,,,52,127
50558,note_off,119,0,0,,1,,,73,127
50559,note_on,1,0,0,,12,,,71,127
50678,note_off,119,0,0,,12,,,71,127
50679,note_on,1,0,0,,10,,,69,127
50679,note_on,0,0,0,,4,,,40,127
50798,note_off,119,0,0,,10,,,69,127
50799,note_on,1,0,0,,8,,,68,127
50914,note_off,115,0,0,,4,,,52,127
50918,note_off,4,0,0,,8,,,68,127
50918,note_off,0,0,0,,4,,,40,127
50919,note_on,1,0,0,,10,,,69,127
50919,note_on,0,0,0,,10,,,45,127
51039,note_on,120,0,0,,10,,,57,127
51099,note_off,60,0,0,,10,,,45,127
51158,note_off,59,0,0,,10,,,57,127
51158,note_off,0,0,0,,10,,,69,127
51159,note_on,1,0,0,,10,,,81,127
51159,note_on,0,0,0,,8,,,56,127
51278,note_off,119,0,0,,8,,,56,127
51279,note_on,1,0,0,,10,,,57,127
51398,note_off,119,0,0,,10,,,57,127
51399,note_on,1,0,0,,1,,,61,127
51518,note_off,119,0,0,,1,,,61,127
51519,note_on,1,0,0,,10,,,57,127
51638,note_off,119,0,0,,10,,,57,127
51638,note_off,0,0,0,,10,,,81,127
51639,note_on,1,0,0,,4,,,76,127
51639,note_on,0,0,0,,8,,,56,127
51758,note_off,119,0,0,,8,,,56,127
51759,note_on,1,0,0,,10,,,57,127
51878,note_off,119,0,0,,10,,,57,127
51878,note_off,0,0,0,,4,,,76,127
51879,note_on,1,0,0,,2,,,74,127
51879,note_on,0,0,0,,10,,,45,127
51938,note_off,59,0,0,,2,,,74,127
51939,note_on,1,0,0,,1,,,73,127
51998,note_off,59,0,0,,1,,,73,127
51999,note_on,1,0,0,,2,,,74,127
51999,note_on,0,0,0,,10,,,57,127
52058,note_off,59,0,0,,2,,,74,127
52059,note_off,1,0,0,,10,,,45,127
52059,note_on,0,0,0,,1,,,73,127
52118,note_off,59,0,0,,1,,,73,127
52118,note_off,0,0,0,,10,,,57,127
52119,note_on,1,0,0,,10,,,81,127
52119,note_on,0,0,0,,8,,,56,127
52238,note_off,119,0,0,,8,,,56,127
52239,note_on,1,0,0,,10,,,57,127
52358,note_off,119,0,0,,10,,,57,127
52359,note_on,1,0,0,,4,,,64,127
52478,note_off,119,0,0,,4,,,64,127
52479,note_on,1,0,0,,10,,,57,127
52598,note_off,119,0,0,,10,,,57,127
52598,note_off,0,0,0,,10,,,81,127
52599,note_on,1,0,0,,4,,,76,127
52599,note_on,0,0,0,,8,,,56,127
52718,note_off,119,0,0,,8,,,56,127
52719,note_on,1,0,0,,10,,,57,127
52838,note_off,119,0,0,,10,,,57,127
52838,note_off,0,0,0,,4,,,76,127
52839,note_on,1,0,0,,2,,,74,127
52839,note_on,0,0,0,,10,,,45,127
52898,note_off,59,0,0,,2,,,74,127
52899,note_on,1,0,0,,1,,,73,127
52958,note_off,59,0,0,,1,,,73,127
52959,note_on,1,0,0,,2,,,74,127
52959,note_on,0,0,0,,10,,,57,127
53018,note_off,59,0,0,,2,,,74,127
53019,note_off,1,0,0,,10,,,45,127
53019,note_on,0,0,0,,1,,,73,127
53078,note_off,59,0,0,,1,,,73,127
53078,note_off,0,0,0,,10,,,57,127
53079,note_on,1,0,0,,10,,,81,127
53079,note_on,0,0,0,,8,,,56,127
53198,note_off,119,0,0,,8,,,56,127
53199,note_on,1,0,0,,10,,,57,127
53318,note_off,119,0,0,,10,,,57,127
53319,note_on,1,0,0,,10,,,69,127
53438,note_off,119,0,0,,10,,,69,127
53439,note_on,1,0,0,,10,,,57,127
53558,note_off,119,0,0,,10,,,57,127
53558,note_off,0,0,0,,10,,,81,127
53559,note_on,1,0,0,,4,,,76,127
53559,note_on,0,0,0,,8,,,56,127
53678,note_off,119,0,0,,8,,,56,127
53679,note_on,1,0,0,,10,,,57,127
53798,note_off,119,0,0,,10,,,57,127
53798,note_off,0,0,0,,4,,,76,127
53799,note_on,1,0,0,,10,,,45,127
53799,note_on,0,0,0,,1,,,73,127
53918,note_off,119,0,0,,1,,,73,127
53919,note_on,1,0,0,,6,,,78,127
54038,note_off,119,0,0,,6,,,78,127
54038,note_off,0,0,0,,10,,,45,127
54039,note_on,1,0,0,,4,,,76,127
54039,note_on,0,0,0,,2,,,50,127
54158,note_off,119,0,0,,4,,,76,127
54159,note_on,1,0,0,,2,,,74,127
54278,note_off,119,0,0,,2,,,74,127
54278,note_off,0,0,0,,2,,,50,127
54279,note_on,1,0,0,,1,,,73,127
54279,note_on,0,0,0,,4,,,52,127
54398,note_off,119,0,0,,1,,,73,127
54399,note_on,1,0,0,,12,,,71,127
54518,note_off,119,0,0,,12,,,71,127
54519,note_on,1,0,0,,10,,,69,127
54519,note_on,0,0,0,,4,,,40,127
54638,note_off,119,0,0,,10,,,69,127
54639,note_on,1,0,0,,8,,,68,127
54754,note_off,115,0,0,,4,,,52,127
54758,note_off,4,0,0,,8,,,68,127
54758,note_off,0,0,0,,4,,,40,127
54759,note_on,1,0,0,,10,,,69,127
54759,note_on,0,0,0,,10,,,45,127
54878,note_off,119,0,0,,10,,,69,127
54879,note_on,1,0,0,,1,,,73,127
54998,note_off,119,0,0,,1,,,73,127
54998,note_off,0,0,0,,10,,,45,127
54999,note_on,1,0,0,,12,,,71,127
54999,note_on,0,0,0,,2,,,50,127
55118,note_off,119,0,0,,12,,,71,127
55119,note_on,1,0,0,,10,,,69,127
55238,note_off,119,0,0,,10,,,69,127
55238,note_off,0,0,0,,2,,,50,127
55239,note_on,1,0,0,,8,,,68,127
55239,note_on,0,0,0,,4,,,52,127
55358,note_off,119,0,0,,8,,,68,127
55359,note_on,1,0,0,,6,,,66,127
55478,note_off,119,0,0,,6,,,66,127
55478,note_off,0,0,0,,4,,,52,127
55479,note_on,1,0,0,,4,,,64,127
55479,note_on,0,0,0,,8,,,56,127
55598,note_off,119,0,0,,4,,,64,127
55599,note_on,1,0,0,,2,,,62,127
55718,note_off,119,0,0,,8,,,56,127
55719,note_off,1,0,0,,2,,,62,127
55719,note_on,0,0,0,,10,,,57,127
55719,note_on,0,0,0,,1,,,61,127
55838,note_off,119,0,0,,1,,,61,127
55839,note_on,1,0,0,,4,,,64,127
55958,note_off,119,0,0,,4,,,64,127
55958,note_off,0,0,0,,10,,,57,127
55959,note_on,1,0,0,,1,,,61,127
55959,note_on,0,0,0,,10,,,69,127
56078,note_off,119,0,0,,10,,,69,127
56079,note_on,1,0,0,,1,,,73,127
56198,note_off,119,0,0,,1,,,73,127
56198,note_off,0,0,0,,1,,,61,127
56199,note_on,1,0,0,,2,,,62,127
56199,note_on,0,0,0,,12,,,71,127
56318,note_off,119,0,0,,12,,,71,127
56319,note_on,1,0,0,,2,,,74,127
56438,note_off,119,0,0,,2,,,74,127
56438,note_off,0,0,0,,2,,,62,127
56439,note_on,1,0,0,,12,,,59,127
56439,note_on,0,0,0,,8,,,68,127
56558,note_off,119,0,0,,8,,,68,127
56559,note_on,1,0,0,,12,,,71,127
56678,note_off,119,0,0,,12,,,71,127
56678,note_off,0,0,0,,12,,,59,127
56679,note_on,1,0,0,,1,,,61,127
56679,note_on,0,0,0,,4,,,64,127
56798,note_off,119,0,0,,4,,,64,127
56799,note_on,1,0,0,,10,,,69,127
56918,note_off,119,0,0,,10,,,69,127
56918,note_off,0,0,0,,1,,,61,127
56919,note_on,1,0,0,,10,,,57,127
56919,note_on,0,0,0,,1,,,73,127
57038,note_off,119,0,0,,1,,,73,127
57039,note_on,1,0,0,,4,,,76,127
57158,note_off,119,0,0,,4,,,76,127
57158,note_off,0,0,0,,10,,,57,127
57159,note_on,1,0,0,,6,,,54,127
57159,note_on,0,0,0,,2,,,74,127
57278,note_off,119,0,0,,2,,,74,127
57279,note_on,1,0,0,,6,,,78,127
57398,note_off,119,0,0,,6,,,78,127
57398,note_off,0,0,0,,6,,,54,127
57399,note_on,1,0,0,,8,,,56,127
57399,note_on,0,0,0,,12,,,71,127
57518,note_off,119,0,0,,12,,,71,127
57519,note_on,1,0,0,,2,,,74,127
57638,note_off,119,0,0,,2,,,74,127
57638,note_off,0,0,0,,8,,,56,127
57639,note_on,1,0,0,,10,,,57,127
57639,note_on,0,0,0,,1,,,73,127
57758,note_off,119,0,0,,1,,,73,127
57759,note_on,1,0,0,,10,,,81,127
57878,note_off,119,0,0,,10,,,81,127
57878,note_off,0,0,0,,10,,,57,127
57879,note_on,1,0,0,,2,,,50,127
57879,note_on,0,0,0,,6,,,78,127
57998,note_off,119,0,0,,6,,,78,127
57999,note_on,1,0,0,,2,,,74,127
58118,note_off,119,0,0,,2,,,74,127
58118,note_off,0,0,0,,2,,,50,127
58119,note_on,1,0,0,,4,,,52,127
58119,note_on,0,0,0,,1,,,73,127
58238,note_off,119,0,0,,1,,,73,127
58239,note_on,1,0,0,,10,,,81,127
58358,note_off,119,0,0,,10,,,81,127
58359,note_on,1,0,0,,4,,,40,127
58359,note_on,0,0,0,,12,,,71,127
58478,note_off,119,0,0,,12,,,71,127
58479,note_on,1,0,0,,8,,,80,127
58589,note_off,110,0,0,,8,,,80,127
58594,note_off,5,0,0,,4,,,52,127
58598,note_off,4,0,0,,4,,,40,127
58599,note_on,1,0,0,,10,,,45,127
58599,note_on,0,0,0,,10,,,81,127
58719,note_on,120,0,0,,4,,,76,127
58737,note_off,18,0,0,,10,,,81,127
58838,note_off,101,0,0,,4,,,76,127
58839,note_on,1,0,0,,1,,,73,127
58958,note_off,119,0,0,,1,,,73,127
58959,note_on,1,0,0,,4,,,76,127
59078,note_off,119,0,0,,4,,,76,127
59079,note_on,1,0,0,,10,,,69,127
59198,note_off,119,0,0,,10,,,69,127
59199,note_on,1,0,0,,1,,,73,127
59318,note_off,119,0,0,,1,,,73,127
59319,note_on,1,0,0,,4,,,64,127
59438,note_off,119,0,0,,4,,,64,127
59439,note_on,1,0,0,,10,,,69,127
59558,note_off,119,0,0,,10,,,69,127
59558,note_off,0,0,0,,10,,,45,127
59559,note_on,1,0,0,,1,,,61,127
59678,note_off,119,0,0,,1,,,61,127
59679,note_on,1,0,0,,4,,,64,127
59798,note_off,119,0,0,,4,,,64,127
59799,note_on,1,0,0,,10,,,57,127
59918,note_off,119,0,0,,10,,,57,127
59919,note_on,1,0,0,,1,,,61,127
60038,note_off,119,0,0,,1,,,61,127
60039,note_on,1,0,0,,4,,,52,127
60158,note_off,119,0,0,,4,,,52,127
60159,note_on,1,0,0,,10,,,57,127
60278,note_off,119,0,0,,10,,,57,127
60279,note_on,1,0,0,,1,,,49,127
60398,note_off,119,0,0,,1,,,49,127
60399,note_on,1,0,0,,4,,,52,127
60518,note_off,119,0,0,,4,,,52,127
60519,note_on,1,0,0,,12,,,47,127
60578,note_off,59,0,0,,12,,,47,127
60579,note_on,1,0,0,,10,,,45,127
60638,note_off,59,0,0,,10,,,45,127
60639,note_on,1,0,0,,12,,,47,127
60698,note_off,59,0,0,,12,,,47,127
60699,note_on,1,0,0,,10,,,45,127
61449,note_off,750,0,0,,10,,,45,127
61479,note_on,30,0,0,,1,,,73,127
61479,note_on,0,0,0,,4,,,76,127
61679,note_off,200,0,0,,4,,,76,127
61679,note_off,0,0,0,,1,,,73,127
61719,note_on,40,0,0,,1,,,61,127
61719,note_on,0,0,0,,4,,,64,127
61919,note_off,200,0,0,,4,,,64,127
61919,note_off,0,0,0,,1,,,61,127
61959,note_on,40,0,0,,12,,,59,127
61959,note_on,0,0,0,,4,,,64,127
62018,note_off,59,0,0,,4,,,64,127
62019,note_on,1,0,0,,2,,,62,127
62078,note_off,59,0,0,,2,,,62,127
62079,note_on,1,0,0,,4,,,64,127
62138,note_off,59,0,0,,4,,,64,127
62139,note_on,1,0,0,,2,,,62,127
62198,note_off,59,0,0,,2,,,62,127
62198,note_off,0,0,0,,12,,,59,127
62199,note_on,1,0,0,,4,,,52,127
62199,note_on,0,0,0,,4,,,64,127
62258,note_off,59,0,0,,4,,,64,127
62259,note_on,1,0,0,,2,,,62,127
62318,note_off,59,0,0,,2,,,62,127
62319,note_on,1,0,0,,1,,,61,127
62378,note_off,59,0,0,,1,,,61,127
62379,note_on,1,0,0,,2,,,62,127
62438,note_off,59,0,0,,2,,,62,127
62438,note_off,0,0,0,,4,,,52,127
62439,note_on,1,0,0,,1,,,73,127
62439,note_on,0,0,0,,10,,,69,127
62639,note_off,200,0,0,,10,,,69,127
62639,note_off,0,0,0,,1,,,73,127
62679,note_on,40,0,0,,1,,,61,127
62679,note_on,0,0,0,,10,,,57,127
62879,note_off,200,0,0,,10,,,57,127
62879,note_off,0,0,0,,1,,,61,127
62919,note_on,40,0,0,,8,,,56,127
62919,note_on,0,0,0,,1,,,61,127
62978,note_off,59,0,0,,1,,,61,127
62979,note_on,1,0,0,,12,,,59,127
63038,note_off,59,0,0,,12,,,59,127
63039,note_on,1,0,0,,1,,,61,127
63098,note_off,59,0,0,,1,,,61,127
63099,note_on,1,0,0,,12,,,59,127
63158,note_off,59,0,0,,12,,,59,127
63158,note_off,0,0,0,,8,,,56,127
63159,note_on,1,0,0,,4,,,52,127
63159,note_on,0,0,0,,1,,,61,127
63218,note_off,59,0,0,,1,,,61,127
63219,note_on,1,0,0,,12,,,59,127
63278,note_off,59,0,0,,12,,,59,127
63279,note_on,1,0,0,,10,,,57,127
63338,note_off,59,0,0,,10,,,57,127
63339,note_on,1,0,0,,12,,,59,127
63398,note_off,59,0,0,,12,,,59,127
63398,note_off,0,0,0,,4,,,52,127
63399,note_on,1,0,0,,4,,,76,127
63399,note_on,0,0,0,,1,,,73,127
63599,note_off,200,0,0,,1,,,73,127
63599,note_off,0,0,0,,4,,,76,127
63639,note_on,40,0,0,,4,,,64,127
63639,note_on,0,0,0,,1,,,61,127
63839,note_off,200,0,0,,1,,,61,127
63839,note_off,0,0,0,,4,,,64,127
63879,note_on,40,0,0,,4,,,64,127
63879,note_on,0,0,0,,12,,,59,127
63938,note_off,59,0,0,,4,,,64,127
63939,note_on,1,0,0,,2,,,62,127
63998,note_off,59,0,0,,2,,,62,127
63999,note_on,1,0,0,,4,,,64,127
64058,note_off,59,0,0,,4,,,64,127
64059,note_on,1,0,0,,2,,,62,127
64118,note_off,59,0,0,,2,,,62,127
64118,note_off,0,0,0,,12,,,59,127
64119,note_on,1,0,0,,4,,,64,127
64119,note_on,0,0,0,,4,,,52,127
64178,note_off,59,0,0,,4,,,64,127
64179,note_on,1,0,0,,2,,,62,127
64238,note_off,59,0,0,,2,,,62,127
64239,note_on,1,0,0,,1,,,61,127
64298,note_off,59,0,0,,1,,,61,127
64299,note_on,1,0,0,,2,,,62,127
64358,note_off,59,0,0,,2,,,62,127
64358,note_off,0,0,0,,4,,,52,127
64359,note_on,1,0,0,,10,,,69,127
64359,note_on,0,0,0,,1,,,73,127
64559,note_off,200,0,0,,1,,,73,127
64559,note_off,0,0,0,,10,,,69,127
64599,note_on,40,0,0,,10,,,57,127
64599,note_on,0,0,0,,1,,,61,127
64799,note_off,200,0,0,,1,,,61,127
64799,note_off,0,0,0,,10,,,57,127
64839,note_on,40,0,0,,1,,,61,127
64839,note_on,0,0,0,,8,,,56,127
64898,note_off,59,0,0,,1,,,61,127
64899,note_on,1,0,0,,12,,,59,127
64958,note_off,59,0,0,,12,,,59,127
64959,note_on,1,0,0,,1,,,61,127
65018,note_off,59,0,0,,1,,,61,127
65019,note_on,1,0,0,,12,,,59,127
65078,note_off,59,0,0,,12,,,59,127
65078,note_off,0,0,0,,8,,,56,127
65079,note_on,1,0,0,,1,,,61,127
65079,note_on,0,0,0,,4,,,52,127
65138,note_off,59,0,0,,1,,,61,127
65139,note_on,1,0,0,,12,,,59,127
65198,note_off,59,0,0,,12,,,59,127
65199,note_on,1,0,0,,10,,,57,127
65258,note_off,59,0,0,,10,,,57,127
65259,note_on,1,0,0,,12,,,59,127
65318,note_off,59,0,0,,12,,,59,127
65318,note_off,0,0,0,,4,,,52,127
65319,note_on,1,0,0,,10,,,45,127
65319,note_on,0,0,0,,10,,,57,127
65438,note_off,119,0,0,,10,,,57,127
65439,note_on,1,0,0,,1,,,61,127
65558,note_off,119,0,0,,1,,,61,127
65559,note_on,1,0,0,,12,,,59,127
65678,note_off,119,0,0,,12,,,59,127
65679,note_on,1,0,0,,10,,,57,127
65798,note_off,119,0,0,,10,,,57,127
65798,note_off,0,0,0,,10,,,45,127
65799,note_on,1,0,0,,10,,,57,127
65799,note_on,0,0,0,,7,,,55,127
65799,note_on,0,0,0,,4,,,64,127
65918,note_off,119,0,0,,4,,,64,127
65919,note_on,1,0,0,,7,,,67,127
66038,note_off,119,0,0,,7,,,67,127
66039,note_on,1,0,0,,6,,,66,127
66158,note_off,119,0,0,,6,,,66,127
66159,note_on,1,0,0,,4,,,64,127
66278,note_off,119,0,0,,4,,,64,127
66278,note_off,0,0,0,,7,,,55,127
66278,note_off,0,0,0,,10,,,57,127
66279,note_on,1,0,0,,6,,,54,127
66279,note_on,0,0,0,,10,,,57,127
66279,note_on,0,0,0,,10,,,69,127
66398,note_off,119,0,0,,10,,,69,127
66399,note_on,1,0,0,,1,,,73,127
66518,note_off,119,0,0,,1,,,73,127
66519,note_on,1,0,0,,12,,,71,127
66638,note_off,119,0,0,,12,,,71,127
66639,note_on,1,0,0,,10,,,69,127
66758,note_off,119,0,0,,10,,,69,127
66758,note_off,0,0,0,,10,,,57,127
66758,note_off,0,0,0,,6,,,54,127
66759,note_on,1,0,0,,7,,,55,127
66759,note_on,0,0,0,,4,,,52,127
66759,note_on,0,0,0,,1,,,61,127
66759,note_on,0,0,0,,10,,,57,127
66759,note_on,0,0,0,,4,,,76,127
66878,note_off,119,0,0,,4,,,76,127
66879,note_on,1,0,0,,7,,,79,127
66998,note_off,119,0,0,,7,,,79,127
66999,note_on,1,0,0,,6,,,78,127
67118,note_off,119,0,0,,6,,,78,127
67119,note_on,1,0,0,,4,,,76,127
67234,note_off,115,0,0,,10,,,57,127
67234,note_off,0,0,0,,1,,,61,127
67234,note_off,0,0,0,,4,,,52,127
67234,note_off,0,0,0,,7,,,55,127
67238,note_off,4,0,0,,4,,,76,127
67239,note_on,1,0,0,,10,,,81,127
67239,note_on,0,0,0,,6,,,78,127
67439,note_off,200,0,0,,6,,,78,127
67439,note_off,0,0,0,,10,,,81,127
67479,note_on,40,0,0,,10,,,69,127
67479,note_on,0,0,0,,6,,,66,127
67679,note_off,200,0,0,,6,,,66,127
67679,note_off,0,0,0,,10,,,69,127
67719,note_on,40,0,0,,4,,,64,127
67719,note_on,0,0,0,,10,,,69,127
67778,note_off,59,0,0,,10,,,69,127
67779,note_on,1,0,0,,7,,,67,127
67838,note_off,59,0,0,,7,,,67,127
67839,note_on,1,0,0,,10,,,69,127
67898,note_off,59,0,0,,10,,,69,127
67899,note_on,1,0,0,,7,,,67,127
67958,note_off,59,0,0,,7,,,67,127
67958,note_off,0,0,0,,4,,,64,127
67959,note_on,1,0,0,,10,,,57,127
67959,note_on,0,0,0,,10,,,69,127
68018,note_off,59,0,0,,10,,,69,127
68019,note_on,1,0,0,,7,,,67,127
68078,note_off,59,0,0,,7,,,67,127
68079,note_on,1,0,0,,6,,,66,127
68138,note_off,59,0,0,,6,,,66,127
68139,note_on,1,0,0,,7,,,67,127
68198,note_off,59,0,0,,7,,,67,127
68198,note_off,0,0,0,,10,,,57,127
68199,note_on,1,0,0,,2,,,74,127
68199,note_on,0,0,0,,6,,,78,127
68399,note_off,200,0,0,,6,,,78,127
68399,note_off,0,0,0,,2,,,74,127
68439,note_on,40,0,0,,6,,,66,127
68439,note_on,0,0,0,,2,,,62,127
68639,note_off,200,0,0,,2,,,62,127
68639,note_off,0,0,0,,6,,,66,127
68679,note_on,40,0,0,,1,,,61,127
68679,note_on,0,0,0,,6,,,66,127
68738,note_off,59,0,0,,6,,,66,127
68739,note_on,1,0,0,,4,,,64,127
68798,note_off,59,0,0,,4,,,64,127
68799,note_on,1,0,0,,6,,,66,127
68858,note_off,59,0,0,,6,,,66,127
68859,note_on,1,0,0,,4,,,64,127
68918,note_off,59,0,0,,4,,,64,127
68918,note_off,0,0,0,,1,,,61,127
68919,note_on,1,0,0,,10,,,57,127
68919,note_on,0,0,0,,6,,,66,127
68978,note_off,59,0,0,,6,,,66,127
68979,note_on,1,0,0,,4,,,64,127
69038,note_off,59,0,0,,4,,,64,127
69039,note_on,1,0,0,,2,,,62,127
69098,note_off,59,0,0,,2,,,62,127
69099,note_on,1,0,0,,4,,,64,127
69158,note_off,59,0,0,,4,,,64,127
69158,note_off,0,0,0,,10,,,57,127
69159,note_on,1,0,0,,10,,,81,127
69159,note_on,0,0,0,,6,,,78,127
69359,note_off,200,0,0,,6,,,78,127
69359,note_off,0,0,0,,10,,,81,127
69399,note_on,40,0,0,,10,,,69,127
69399,note_on,0,0,0,,6,,,66,127
69599,note_off,200,0,0,,6,,,66,127
69599,note_off,0,0,0,,10,,,69,127
69639,note_on,40,0,0,,4,,,64,127
69639,note_on,0,0,0,,10,,,69,127
69698,note_off,59,0,0,,10,,,69,127
69699,note_on,1,0,0,,7,,,67,127
69758,note_off,59,0,0,,7,,,67,127
69759,note_on,1,0,0,,10,,,69,127
69818,note_off,59,0,0,,10,,,69,127
69819,note_on,1,0,0,,7,,,67,127
69878,note_off,59,0,0,,7,,,67,127
69878,note_off,0,0,0,,4,,,64,127
69879,note_on,1,0,0,,10,,,57,127
69879,note_on,0,0,0,,10,,,69,127
69938,note_off,59,0,0,,10,,,69,127
69939,note_on,1,0,0,,7,,,67,127
69998,note_off,59,0,0,,7,,,67,127
69999,note_on,1,0,0,,6,,,66,127
70058,note_off,59,0,0,,6,,,66,127
70059,note_on,1,0,0,,7,,,67,127
70118,note_off,59,0,0,,7,,,67,127
70118,note_off,0,0,0,,10,,,57,127
70119,note_on,1,0,0,,6,,,78,127
70119,note_on,0,0,0,,2,,,74,127
70319,note_off,200,0,0,,2,,,74,127
70319,note_off,0,0,0,,6,,,78,127
70359,note_on,40,0,0,,6,,,66,127
70359,note_on,0,0,0,,2,,,62,127
70559,note_off,200,0,0,,2,,,62,127
70559,note_off,0,0,0,,6,,,66,127
70599,note_on,40,0,0,,0,,,60,127
70599,note_on,0,0,0,,6,,,66,127
70658,note_off,59,0,0,,6,,,66,127
70659,note_on,1,0,0,,4,,,64,127
70718,note_off,59,0,0,,4,,,64,127
70719,note_on,1,0,0,,6,,,66,127
70778,note_off,59,0,0,,6,,,66,127
70779,note_on,1,0,0,,4,,,64,127
70838,note_off,59,0,0,,4,,,64,127
70838,note_off,0,0,0,,0,,,60,127
70839,note_on,1,0,0,,10,,,57,127
70839,note_on,0,0,0,,6,,,66,127
70898,note_off,59,0,0,,6,,,66,127
70899,note_on,1,0,0,,4,,,64,127
70958,note_off,59,0,0,,4,,,64,127
70959,note_on,1,0,0,,6,,,66,127
71018,note_off,59,0,0,,6,,,66,127
71019,note_on,1,0,0,,4,,,64,127
71078,note_off,59,0,0,,4,,,64,127
71078,note_off,0,0,0,,10,,,57,127
71079,note_on,1,0,0,,12,,,47,127
71079,note_on,0,0,0,,3,,,63,127
71198,note_off,119,0,0,,3,,,63,127
71199,note_on,1,0,0,,12,,,59,127
71318,note_off,119,0,0,,12,,,59,127
71319,note_on,1,0,0,,0,,,60,127
71438,note_off,119,0,0,,0,,,60,127
71439,note_on,1,0,0,,12,,,59,127
71558,note_off,119,0,0,,12,,,59,127
71559,note_on,1,0,0,,3,,,63,127
71678,note_off,119,0,0,,3,,,63,127
71679,note_on,1,0,0,,12,,,59,127
71798,note_off,119,0,0,,12,,,59,127
71799,note_on,1,0,0,,6,,,66,127
71918,note_off,119,0,0,,6,,,66,127
71919,note_on,1,0,0,,12,,,59,127
72038,note_off,119,0,0,,12,,,59,127
72038,note_off,0,0,0,,12,,,47,127
72039,note_on,1,0,0,,12,,,47,127
72039,note_on,0,0,0,,10,,,69,127
72158,note_off,119,0,0,,10,,,69,127
72159,note_on,1,0,0,,12,,,59,127
72278,note_off,119,0,0,,12,,,59,127
72279,note_on,1,0,0,,0,,,60,127
72398,note_off,119,0,0,,0,,,60,127
72399,note_on,1,0,0,,12,,,59,127
72518,note_off,119,0,0,,12,,,59,127
72519,note_on,1,0,0,,3,,,63,127
72638,note_off,119,0,0,,3,,,63,127
72639,note_on,1,0,0,,12,,,59,127
72758,note_off,119,0,0,,12,,,59,127
72759,note_on,1,0,0,,6,,,66,127
72878,note_off,119,0,0,,6,,,66,127
72879,note_on,1,0,0,,12,,,59,127
72998,note_off,119,0,0,,12,,,59,127
72998,note_off,0,0,0,,12,,,47,127
72999,note_on,1,0,0,,12,,,47,127
72999,note_on,0,0,0,,3,,,75,127
73118,note_off,119,0,0,,3,,,75,127
73119,note_on,1,0,0,,12,,,59,127
73238,note_off,119,0,0,,12,,,59,127
73239,note_on,1,0,0,,0,,,60,127
73358,note_off,119,0,0,,0,,,60,127
73359,note_on,1,0,0,,12,,,59,127
73478,note_off,119,0,0,,12,,,59,127
73479,note_on,1,0,0,,3,,,63,127
73598,note_off,119,0,0,,3,,,63,127
73599,note_on,1,0,0,,12,,,59,127
73718,note_off,119,0,0,,12,,,59,127
73719,note_on,1,0,0,,6,,,66,127
73838,note_off,119,0,0,,6,,,66,127
73839,note_on,1,0,0,,12,,,59,127
73958,note_off,119,0,0,,12,,,59,127
73958,note_off,0,0,0,,12,,,47,127
73959,note_on,1,0,0,,12,,,47,127
73959,note_on,0,0,0,,6,,,78,127
74078,note_off,119,0,0,,6,,,78,127
74079,note_on,1,0,0,,12,,,59,127
74198,note_off,119,0,0,,12,,,59,127
74199,note_on,1,0,0,,0,,,60,127
74318,note_off,119,0,0,,0,,,60,127
74319,note_on,1,0,0,,12,,,59,127
74438,note_off,119,0,0,,12,,,59,127
74439,note_on,1,0,0,,3,,,63,127
74558,note_off,119,0,0,,3,,,63,127
74559,note_on,1,0,0,,12,,,59,127
74678,note_off,119,0,0,,12,,,59,127
74679,note_on,1,0,0,,6,,,66,127
74798,note_off,119,0,0,,6,,,66,127
74799,note_on,1,0,0,,12,,,59,127
74918,note_off,119,0,0,,12,,,59,127
74918,note_off,0,0,0,,12,,,47,127
74919,note_on,1,0,0,,12,,,47,127
74919,note_on,0,0,0,,10,,,69,127
75038,note_off,119,0,0,,10,,,69,127
75039,note_on,1,0,0,,12,,,59,127
75158,note_off,119,0,0,,12,,,59,127
75159,note_on,1,0,0,,0,,,60,127
75278,note_off,119,0,0,,0,,,60,127
75279,note_on,1,0,0,,12,,,59,127
75398,note_off,119,0,0,,12,,,59,127
75399,note_on,1,0,0,,3,,,63,127
75518,note_off,119,0,0,,3,,,63,127
75519,note_on,1,0,0,,12,,,59,127
75638,note_off,119,0,0,,12,,,59,127
75639,note_on,1,0,0,,6,,,66,127
75758,note_off,119,0,0,,6,,,66,127
75759,note_on,1,0,0,,12,,,59,127
75878,note_off,119,0,0,,12,,,59,127
75878,note_off,0,0,0,,12,,,47,127
75879,note_on,1,0,0,,12,,,47,127
75879,note_on,0,0,0,,3,,,75,127
75998,note_off,119,0,0,,3,,,75,127
75999,note_on,1,0,0,,12,,,59,127
76118,note_off,119,0,0,,12,,,59,127
76119,note_on,1,0,0,,0,,,60,127
76238,note_off,119,0,0,,0,,,60,127
76239,note_on,1,0,0,,12,,,59,127
76358,note_off,119,0,0,,12,,,59,127
76359,note_on,1,0,0,,3,,,63,127
76478,note_off,119,0,0,,3,,,63,127
76479,note_on,1,0,0,,12,,,59,127
76598,note_off,119,0,0,,12,,,59,127
76599,note_on,1,0,0,,6,,,66,127
76718,note_off,119,0,0,,6,,,66,127
76719,note_on,1,0,0,,12,,,59,127
76838,note_off,119,0,0,,12,,,59,127
76838,note_off,0,0,0,,12,,,47,127
76839,note_on,1,0,0,,6,,,78,127
76839,note_on,0,0,0,,12,,,47,127
76959,note_on,120,0,0,,4,,,76,127
76974,note_off,15,0,0,,6,,,78,127
77078,note_off,104,0,0,,4,,,76,127
77079,note_on,1,0,0,,3,,,75,127
77198,note_off,119,0,0,,3,,,75,127
77199,note_on,1,0,0,,0,,,72,127
77314,note_off,115,0,0,,12,,,47,127
77318,note_off,4,0,0,,0,,,72,127
77319,note_on,1,0,0,,12,,,71,127
77438,note_off,119,0,0,,12,,,71,127
77439,note_on,1,0,0,,10,,,69,127
77558,note_off,119,0,0,,10,,,69,127
77559,note_on,1,0,0,,7,,,67,127
77559,note_on,0,0,0,,3,,,63,127
77678,note_off,119,0,0,,7,,,67,127
77679,note_on,1,0,0,,6,,,66,127
77798,note_off,119,0,0,,6,,,66,127
77798,note_off,0,0,0,,3,,,63,127
77799,note_on,1,0,0,,7,,,67,127
77799,note_on,0,0,0,,4,,,64,127
77918,note_off,119,0,0,,7,,,67,127
77919,note_on,1,0,0,,0,,,72,127
78038,note_off,119,0,0,,0,,,72,127
78039,note_on,1,0,0,,12,,,71,127
78158,note_off,119,0,0,,12,,,71,127
78159,note_on,1,0,0,,11,,,70,127
78278,note_off,119,0,0,,11,,,70,127
78278,note_off,0,0,0,,4,,,64,127
78279,note_on,1,0,0,,12,,,71,127
78279,note_on,0,0,0,,2,,,62,127
78279,note_on,0,0,0,,6,,,66,127
78398,note_off,119,0,0,,12,,,71,127
78399,note_on,1,0,0,,2,,,74,127
78518,note_off,119,0,0,,2,,,74,127
78519,note_on,1,0,0,,1,,,73,127
78638,note_off,119,0,0,,1,,,73,127
78639,note_on,1,0,0,,12,,,71,127
78758,note_off,119,0,0,,12,,,71,127
78758,note_off,0,0,0,,6,,,66,127
78758,note_off,0,0,0,,2,,,62,127
78759,note_on,1,0,0,,4,,,76,127
78759,note_on,0,0,0,,7,,,67,127
78759,note_on,0,0,0,,4,,,64,127
78759,note_on,0,0,0,,1,,,61,127
78878,note_off,119,0,0,,4,,,76,127
78879,note_on,1,0,0,,7,,,79,127
78998,note_off,119,0,0,,7,,,79,127
78999,note_on,1,0,0,,6,,,78,127
79118,note_off,119,0,0,,6,,,78,127
79119,note_on,1,0,0,,4,,,76,127
79238,note_off,119,0,0,,4,,,76,127
79238,note_off,0,0,0,,1,,,61,127
79238,note_off,0,0,0,,4,,,64,127
79238,note_off,0,0,0,,7,,,67,127
79239,note_on,1,0,0,,6,,,78,127
79239,note_on,0,0,0,,6,,,66,127
79239,note_on,0,0,0,,11,,,70,127
79358,note_off,119,0,0,,6,,,78,127
79359,note_on,1,0,0,,4,,,76,127
79478,note_off,119,0,0,,4,,,76,127
79479,note_on,1,0,0,,2,,,74,127
79598,note_off,119,0,0,,2,,,74,127
79599,note_on,1,0,0,,1,,,73,127
79718,note_off,119,0,0,,1,,,73,127
79718,note_off,0,0,0,,11,,,70,127
79718,note_off,0,0,0,,6,,,66,127
79719,note_on,1,0,0,,6,,,78,127
79719,note_on,0,0,0,,12,,,71,127
79838,note_off,119,0,0,,6,,,78,127
79839,note_on,1,0,0,,2,,,74,127
79958,note_off,119,0,0,,2,,,74,127
79959,note_on,1,0,0,,1,,,73,127
80069,note_off,110,0,0,,12,,,71,127
80078,note_off,9,0,0,,1,,,73,127
80079,note_on,1,0,0,,12,,,71,127
80198,note_off,119,0,0,,12,,,71,127
80199,note_on,1,0,0,,6,,,78,127
80199,note_on,0,0,0,,10,,,69,127
80318,note_off,119,0,0,,6,,,78,127
80319,note_on,1,0,0,,1,,,73,127
80438,note_off,119,0,0,,1,,,73,127
80439,note_on,1,0,0,,12,,,71,127
80549,note_off,110,0,0,,10,,,69,127
80558,note_off,9,0,0,,12,,,71,127
80559,note_on,1,0,0,,10,,,69,127
80678,note_off,119,0,0,,10,,,69,127
80679,note_on,1,0,0,,6,,,78,127
80679,note_on,0,0,0,,7,,,67,127
80798,note_off,119,0,0,,6,,,78,127
80799,note_on,1,0,0,,12,,,71,127
80918,note_off,119,0,0,,12,,,71,127
80919,note_on,1,0,0,,10,,,69,127
81029,note_off,110,0,0,,7,,,67,127
81038,note_off,9,0,0,,10,,,69,127
81039,note_on,1,0,0,,7,,,67,127
81158,note_off,119,0,0,,7,,,67,127
81159,note_on,1,0,0,,6,,,78,127
81159,note_on,0,0,0,,6,,,66,127
81278,note_off,119,0,0,,6,,,78,127
81279,note_on,1,0,0,,10,,,69,127
81398,note_off,119,0,0,,10,,,69,127
81399,note_on,1,0,0,,7,,,67,127
81509,note_off,110,0,0,,6,,,66,127
81518,note_off,9,0,0,,7,,,67,127
81519,note_on,1,0,0,,6,,,66,127
81638,note_off,119,0,0,,6,,,66,127
81639,note_on,1,0,0,,6,,,78,127
81639,note_on,0,0,0,,4,,,64,127
81758,note_off,119,0,0,,6,,,78,127
81759,note_on,1,0,0,,7,,,67,127
81878,note_off,119,0,0,,7,,,67,127
81879,note_on,1,0,0,,6,,,66,127
81989,note_off,110,0,0,,4,,,64,127
81998,note_off,9,0,0,,6,,,66,127
81999,note_on,1,0,0,,4,,,64,127
82118,note_off,119,0,0,,4,,,64,127
82119,note_on,1,0,0,,6,,,78,127
82119,note_on,0,0,0,,2,,,62,127
82238,note_off,119,0,0,,6,,,78,127
82239,note_on,1,0,0,,6,,,66,127
82358,note_off,119,0,0,,6,,,66,127
82359,note_on,1,0,0,,4,,,64,127
82469,note_off,110,0,0,,2,,,62,127
82478,note_off,9,0,0,,4,,,64,127
82479,note_on,1,0,0,,2,,,62,127
82598,note_off,119,0,0,,2,,,62,127
82599,note_on,1,0,0,,6,,,78,127
82599,note_on,0,0,0,,1,,,61,127
82718,note_off,119,0,0,,6,,,78,127
82719,note_on,1,0,0,,4,,,64,127
82838,note_off,119,0,0,,4,,,64,127
82839,note_on,1,0,0,,2,,,62,127
82949,note_off,110,0,0,,1,,,61,127
82958,note_off,9,0,0,,2,,,62,127
82959,note_on,1,0,0,,1,,,61,127
83078,note_off,119,0,0,,1,,,61,127
83079,note_on,1,0,0,,6,,,78,127
83079,note_on,0,0,0,,12,,,59,127
83198,note_off,119,0,0,,6,,,78,127
83199,note_on,1,0,0,,2,,,62,127
83318,note_off,119,0,0,,2,,,62,127
83319,note_on,1,0,0,,1,,,61,127
83429,note_off,110,0,0,,12,,,59,127
83438,note_off,9,0,0,,1,,,61,127
83439,note_on,1,0,0,,12,,,59,127
83558,note_off,119,0,0,,12,,,59,127
83559,note_on,1,0,0,,6,,,54,127
83678,note_off,119,0,0,,6,,,54,127
83679,note_on,1,0,0,,11,,,58,127
83798,note_off,119,0,0,,11,,,58,127
83799,note_on,1,0,0,,8,,,56,127
83799,note_on,0,0,0,,6,,,66,127
83918,note_off,119,0,0,,8,,,56,127
83919,note_on,1,0,0,,6,,,54,127
84038,note_off,119,0,0,,6,,,54,127
84038,note_off,0,0,0,,6,,,66,127
84039,note_on,1,0,0,,12,,,59,127
84039,note_on,0,0,0,,7,,,67,127
84098,note_off,59,0,0,,7,,,67,127
84099,note_on,1,0,0,,6,,,66,127
84158,note_off,59,0,0,,6,,,66,127
84158,note_off,0,0,0,,12,,,59,127
84159,note_on,1,0,0,,2,,,62,127
84159,note_on,0,0,0,,7,,,67,127
84218,note_off,59,0,0,,7,,,67,127
84219,note_on,1,0,0,,6,,,66,127
84278,note_off,59,0,0,,6,,,66,127
84278,note_off,0,0,0,,2,,,62,127
84279,note_on,1,0,0,,1,,,61,127
84279,note_on,0,0,0,,7,,,67,127
84338,note_off,59,0,0,,7,,,67,127
84339,note_on,1,0,0,,6,,,66,127
84398,note_off,59,0,0,,6,,,66,127
84398,note_off,0,0,0,,1,,,61,127
84399,note_on,1,0,0,,12,,,59,127
84399,note_on,0,0,0,,7,,,67,127
84458,note_off,59,0,0,,7,,,67,127
84459,note_on,1,0,0,,6,,,66,127
84518,note_off,59,0,0,,12,,,59,127
84639,note_on,121,0,0,,11,,,70,127
84758,note_off,119,0,0,,11,,,70,127
84758,note_off,0,0,0,,6,,,66,127
84759,note_on,1,0,0,,8,,,68,127
84759,note_on,0,0,0,,6,,,78,127
84878,note_off,119,0,0,,8,,,68,127
84879,note_on,1,0,0,,6,,,66,127
84998,note_off,119,0,0,,6,,,66,127
84998,note_off,0,0,0,,6,,,78,127
84999,note_on,1,0,0,,12,,,71,127
84999,note_on,0,0,0,,7,,,79,127
85058,note_off,59,0,0,,7,,,79,127
85059,note_on,1,0,0,,6,,,78,127
85118,note_off,59,0,0,,6,,,78,127
85118,note_off,0,0,0,,12,,,71,127
85119,note_on,1,0,0,,2,,,74,127
85119,note_on,0,0,0,,7,,,79,127
85178,note_off,59,0,0,,7,,,79,127
85179,note_on,1,0,0,,6,,,78,127
85238,note_off,59,0,0,,6,,,78,127
85238,note_off,0,0,0,,2,,,74,127
85239,note_on,1,0,0,,1,,,73,127
85239,note_on,0,0,0,,7,,,79,127
85298,note_off,59,0,0,,7,,,79,127
85299,note_on,1,0,0,,6,,,78,127
85358,note_off,59,0,0,,6,,,78,127
85358,note_off,0,0,0,,1,,,73,127
85359,note_on,1,0,0,,12,,,71,127
85359,note_on,0,0,0,,7,,,79,127
85418,note_off,59,0,0,,7,,,79,127
85419,note_on,1,0,0,,6,,,78,127
85437,note_off,18,0,0,,6,,,78,127
85478,note_off,41,0,0,,12,,,71,127
85479,note_on,1,0,0,,6,,,66,127
85599,note_on,120,0,0,,6,,,78,127
85718,note_off,119,0,0,,6,,,78,127
85719,note_on,1,0,0,,5,,,77,127
85838,note_off,119,0,0,,5,,,77,127
85839,note_on,1,0,0,,6,,,78,127
85958,note_off,119,0,0,,6,,,78,127
85959,note_on,1,0,0,,5,,,77,127
86078,note_off,119,0,0,,5,,,77,127
86079,note_on,1,0,0,,6,,,78,127
86198,note_off,119,0,0,,6,,,78,127
86198,note_off,0,0,0,,6,,,66,127
86199,note_on,1,0,0,,6,,,66,127
86199,note_on,0,0,0,,8,,,80,127
86318,note_off,119,0,0,,8,,,80,127
86319,note_on,1,0,0,,10,,,81,127
86438,note_off,119,0,0,,10,,,81,127
86438,note_off,0,0,0,,6,,,66,127
86439,note_on,1,0,0,,8,,,68,127
86439,note_on,0,0,0,,12,,,83,127
86559,note_on,120,0,0,,2,,,74,127
86677,note_off,118,0,0,,12,,,83,127
86678,note_off,1,0,0,,2,,,74,127
86679,note_on,1,0,0,,1,,,73,127
86798,note_off,119,0,0,,1,,,73,127
86799,note_on,1,0,0,,2,,,74,127
86918,note_off,119,0,0,,2,,,74,127
86918,note_off,0,0,0,,8,,,68,127
86919,note_on,1,0,0,,12,,,71,127
86919,note_on,0,0,0,,5,,,65,127
86919,note_on,0,0,0,,1,,,73,127
87038,note_off,119,0,0,,1,,,73,127
87039,note_on,1,0,0,,12,,,83,127
87158,note_off,119,0,0,,12,,,83,127
87159,note_on,1,0,0,,10,,,81,127
87278,note_off,119,0,0,,10,,,81,127
87279,note_on,1,0,0,,8,,,80,127
87398,note_off,119,0,0,,8,,,80,127
87398,note_off,0,0,0,,5,,,65,127
87398,note_off,0,0,0,,12,,,71,127
87399,note_on,1,0,0,,6,,,66,127
87399,note_on,0,0,0,,10,,,69,127
87399,note_on,0,0,0,,10,,,81,127
87518,note_off,119,0,0,,10,,,81,127
87519,note_on,1,0,0,,4,,,76,127
87638,note_off,119,0,0,,4,,,76,127
87639,note_on,1,0,0,,3,,,75,127
87758,note_off,119,0,0,,3,,,75,127
87759,note_on,1,0,0,,4,,,76,127
87878,note_off,119,0,0,,4,,,76,127
87879,note_on,1,0,0,,3,,,75,127
87998,note_off,119,0,0,,3,,,75,127
87999,note_on,1,0,0,,4,,,76,127
88118,note_off,119,0,0,,4,,,76,127
88118,note_off,0,0,0,,10,,,69,127
88118,note_off,0,0,0,,6,,,66,127
88119,note_on,1,0,0,,4,,,64,127
88119,note_on,0,0,0,,10,,,69,127
88119,note_on,0,0,0,,6,,,78,127
88238,note_off,119,0,0,,6,,,78,127
88239,note_on,1,0,0,,7,,,79,127
88358,note_off,119,0,0,,7,,,79,127
88358,note_off,0,0,0,,10,,,69,127
88358,note_off,0,0,0,,4,,,64,127
88359,note_on,1,0,0,,10,,,69,127
88359,note_on,0,0,0,,3,,,63,127
88359,note_on,0,0,0,,10,,,81,127
88479,note_on,120,0,0,,0,,,72,127
88597,note_off,118,0,0,,10,,,81,127
88598,note_off,1,0,0,,0,,,72,127
88599,note_on,1,0,0,,12,,,71,127
88718,note_off,119,0,0,,12,,,71,127
88719,note_on,1,0,0,,0,,,72,127
88838,note_off,119,0,0,,0,,,72,127
88838,note_off,0,0,0,,3,,,63,127
88838,note_off,0,0,0,,10,,,69,127
88839,note_on,1,0,0,,10,,,69,127
88839,note_on,0,0,0,,3,,,63,127
88839,note_on,0,0,0,,12,,,71,127
88958,note_off,119,0,0,,12,,,71,127
88959,note_on,1,0,0,,10,,,81,127
89078,note_off,119,0,0,,10,,,81,127
89079,note_on,1,0,0,,7,,,79,127
89198,note_off,119,0,0,,7,,,79,127
89199,note_on,1,0,0,,6,,,78,127
89318,note_off,119,0,0,,6,,,78,127
89318,note_off,0,0,0,,3,,,63,127
89318,note_off,0,0,0,,10,,,69,127
89319,note_on,1,0,0,,4,,,64,127
89319,note_on,0,0,0,,7,,,67,127
89319,note_on,0,0,0,,7,,,79,127
89438,note_off,119,0,0,,7,,,79,127
89439,note_on,1,0,0,,2,,,74,127
89558,note_off,119,0,0,,2,,,74,127
89559,note_on,1,0,0,,1,,,73,127
89678,note_off,119,0,0,,1,,,73,127
89679,note_on,1,0,0,,2,,,74,127
89798,note_off,119,0,0,,2,,,74,127
89799,note_on,1,0,0,,1,,,73,127
89918,note_off,119,0,0,,1,,,73,127
89919,note_on,1,0,0,,2,,,74,127
90038,note_off,119,0,0,,2,,,74,127
90038,note_off,0,0,0,,7,,,67,127
90038,note_off,0,0,0,,4,,,64,127
90039,note_on,1,0,0,,2,,,62,127
90039,note_on,0,0,0,,7,,,67,127
90039,note_on,0,0,0,,4,,,76,127
90158,note_off,119,0,0,,4,,,76,127
90159,note_on,1,0,0,,6,,,78,127
90278,note_off,119,0,0,,6,,,78,127
90278,note_off,0,0,0,,7,,,67,127
90278,note_off,0,0,0,,2,,,62,127
90279,note_on,1,0,0,,1,,,61,127
90279,note_on,0,0,0,,7,,,67,127
90279,note_on,0,0,0,,7,,,79,127
90399,note_on,120,0,0,,11,,,70,127
90517,note_off,118,0,0,,7,,,79,127
90518,note_off,1,0,0,,11,,,70,127
90519,note_on,1,0,0,,10,,,69,127
90638,note_off,119,0,0,,10,,,69,127
90639,note_on,1,0,0,,11,,,70,127
90758,note_off,119,0,0,,11,,,70,127
90758,note_off,0,0,0,,7,,,67,127
90758,note_off,0,0,0,,1,,,61,127
90759,note_on,1,0,0,,7,,,67,127
90759,note_on,0,0,0,,1,,,61,127
90759,note_on,0,0,0,,10,,,69,127
90878,note_off,119,0,0,,10,,,69,127
90879,note_on,1,0,0,,7,,,79,127
90998,note_off,119,0,0,,7,,,79,127
90999,note_on,1,0,0,,6,,,78,127
91118,note_off,119,0,0,,6,,,78,127
91119,note_on,1,0,0,,4,,,76,127
91238,note_off,119,0,0,,4,,,76,127
91238,note_off,0,0,0,,1,,,61,127
91238,note_off,0,0,0,,7,,,67,127
91239,note_on,1,0,0,,6,,,66,127
91239,note_on,0,0,0,,2,,,62,127
91239,note_on,0,0,0,,10,,,69,127
91239,note_on,0,0,0,,6,,,78,127
91358,note_off,119,0,0,,6,,,78,127
91359,note_on,1,0,0,,10,,,81,127
91478,note_off,119,0,0,,10,,,81,127
91479,note_on,1,0,0,,7,,,79,127
91598,note_off,119,0,0,,7,,,79,127
91599,note_on,1,0,0,,6,,,78,127
91718,note_off,119,0,0,,6,,,78,127
91718,note_off,0,0,0,,10,,,69,127
91718,note_off,0,0,0,,2,,,62,127
91718,note_off,0,0,0,,6,,,66,127
91719,note_on,1,0,0,,7,,,55,127
91719,note_on,0,0,0,,7,,,67,127
91719,note_on,0,0,0,,4,,,76,127
91838,note_off,119,0,0,,4,,,76,127
91839,note_on,1,0,0,,2,,,74,127
91958,note_off,119,0,0,,2,,,74,127
91959,note_on,1,0,0,,1,,,73,127
92078,note_off,119,0,0,,1,,,73,127
92079,note_on,1,0,0,,2,,,74,127
92198,note_off,119,0,0,,2,,,74,127
92198,note_off,0,0,0,,7,,,67,127
92198,note_off,0,0,0,,7,,,55,127
92199,note_on,1,0,0,,10,,,45,127
92199,note_on,0,0,0,,10,,,57,127
92199,note_on,0,0,0,,4,,,76,127
92318,note_off,119,0,0,,4,,,76,127
92319,note_on,1,0,0,,2,,,74,127
92438,note_off,119,0,0,,2,,,74,127
92439,note_on,1,0,0,,1,,,73,127
92558,note_off,119,0,0,,1,,,73,127
92559,note_on,1,0,0,,12,,,71,127
92674,note_off,115,0,0,,10,,,57,127
92674,note_off,0,0,0,,10,,,45,127
92678,note_off,4,0,0,,12,,,71,127
92679,note_on,1,0,0,,10,,,69,127
92799,note_on,120,0,0,,7,,,67,127
92918,note_off,119,0,0,,7,,,67,127
92919,note_on,1,0,0,,6,,,66,127
93038,note_off,119,0,0,,6,,,66,127
93039,note_on,1,0,0,,4,,,64,127
93154,note_off,115,0,0,,10,,,69,127
93158,note_off,4,0,0,,4,,,64,127
93159,note_on,1,0,0,,2,,,74,127
93159,note_on,0,0,0,,10,,,81,127
93278,note_off,119,0,0,,10,,,81,127
93279,note_on,1,0,0,,6,,,78,127
93398,note_off,119,0,0,,6,,,78,127
93399,note_on,1,0,0,,4,,,76,127
93509,note_off,110,0,0,,2,,,74,127
93518,note_off,9,0,0,,4,,,76,127
93519,note_on,1,0,0,,2,,,74,127
93638,note_off,119,0,0,,2,,,74,127
93639,note_on,1,0,0,,1,,,73,127
93639,note_on,0,0,0,,10,,,81,127
93758,note_off,119,0,0,,10,,,81,127
93759,note_on,1,0,0,,4,,,76,127
93878,note_off,119,0,0,,4,,,76,127
93879,note_on,1,0,0,,2,,,74,127
93989,note_off,110,0,0,,1,,,73,127
93998,note_off,9,0,0,,2,,,74,127
93999,note_on,1,0,0,,1,,,73,127
94118,note_off,119,0,0,,1,,,73,127
94119,note_on,1,0,0,,12,,,71,127
94119,note_on,0,0,0,,10,,,81,127
94238,note_off,119,0,0,,10,,,81,127
94239,note_on,1,0,0,,2,,,74,127
94358,note_off,119,0,0,,2,,,74,127
94359,note_on,1,0,0,,1,,,73,127
94469,note_off,110,0,0,,12,,,71,127
94478,note_off,9,0,0,,1,,,73,127
94479,note_on,1,0,0,,12,,,71,127
94598,note_off,119,0,0,,12,,,71,127
94599,note_on,1,0,0,,10,,,69,127
94599,note_on,0,0,0,,10,,,81,127
94718,note_off,119,0,0,,10,,,81,127
94719,note_on,1,0,0,,1,,,73,127
94838,note_off,119,0,0,,1,,,73,127
94839,note_on,1,0,0,,12,,,71,127
94949,note_off,110,0,0,,10,,,69,127
94958,note_off,9,0,0,,12,,,71,127
94959,note_on,1,0,0,,10,,,69,127
95078,note_off,119,0,0,,10,,,69,127
95079,note_on,1,0,0,,7,,,67,127
95079,note_on,0,0,0,,10,,,81,127
95198,note_off,119,0,0,,10,,,81,127
95199,note_on,1,0,0,,12,,,71,127
95318,note_off,119,0,0,,12,,,71,127
95319,note_on,1,0,0,,10,,,69,127
95429,note_off,110,0,0,,7,,,67,127
95438,note_off,9,0,0,,10,,,69,127
95439,note_on,1,0,0,,7,,,67,127
95558,note_off,119,0,0,,7,,,67,127
95559,note_on,1,0,0,,6,,,66,127
95559,note_on,0,0,0,,10,,,81,127
95678,note_off,119,0,0,,10,,,81,127
95679,note_on,1,0,0,,10,,,69,127
95798,note_off,119,0,0,,10,,,69,127
95799,note_on,1,0,0,,7,,,67,127
95909,note_off,110,0,0,,6,,,66,127
95918,note_off,9,0,0,,7,,,67,127
95919,note_on,1,0,0,,6,,,66,127
96038,note_off,119,0,0,,6,,,66,127
96039,note_on,1,0,0,,4,,,64,127
96039,note_on,0,0,0,,10,,,81,127
96158,note_off,119,0,0,,10,,,81,127
96159,note_on,1,0,0,,7,,,67,127
96278,note_off,119,0,0,,7,,,67,127
96279,note_on,1,0,0,,6,,,66,127
96389,note_off,110,0,0,,4,,,64,127
96398,note_off,9,0,0,,6,,,66,127
96399,note_on,1,0,0,,4,,,64,127
96518,note_off,119,0,0,,4,,,64,127
96519,note_on,1,0,0,,2,,,62,127
96519,note_on,0,0,0,,10,,,81,127
96638,note_off,119,0,0,,10,,,81,127
96639,note_on,1,0,0,,6,,,66,127
96758,note_off,119,0,0,,6,,,66,127
96759,note_on,1,0,0,,4,,,64,127
96869,note_off,110,0,0,,2,,,62,127
96878,note_off,9,0,0,,4,,,64,127
96879,note_on,1,0,0,,2,,,62,127
96998,note_off,119,0,0,,2,,,62,127
96999,note_on,1,0,0,,10,,,57,127
97119,note_on,120,0,0,,1,,,61,127
97238,note_off,119,0,0,,1,,,61,127
97238,note_off,0,0,0,,10,,,57,127
97239,note_on,1,0,0,,10,,,69,127
97239,note_on,0,0,0,,12,,,59,127
97358,note_off,119,0,0,,12,,,59,127
97359,note_on,1,0,0,,10,,,57,127
97478,note_off,119,0,0,,10,,,57,127
97478,note_off,0,0,0,,10,,,69,127
97479,note_on,1,0,0,,12,,,71,127
97479,note_on,0,0,0,,2,,,62,127
97538,note_off,59,0,0,,12,,,71,127
97539,note_on,1,0,0,,10,,,69,127
97598,note_off,59,0,0,,10,,,69,127
97598,note_off,0,0,0,,2,,,62,127
97599,note_on,1,0,0,,12,,,71,127
97599,note_on,0,0,0,,6,,,66,127
97658,note_off,59,0,0,,12,,,71,127
97659,note_on,1,0,0,,10,,,69,127
97718,note_off,59,0,0,,10,,,69,127
97718,note_off,0,0,0,,6,,,66,127
97719,note_on,1,0,0,,12,,,71,127
97719,note_on,0,0,0,,4,,,64,127
97778,note_off,59,0,0,,12,,,71,127
97779,note_on,1,0,0,,10,,,69,127
97838,note_off,59,0,0,,10,,,69,127
97838,note_off,0,0,0,,4,,,64,127
97839,note_on,1,0,0,,12,,,71,127
97839,note_on,0,0,0,,2,,,62,127
97898,note_off,59,0,0,,12,,,71,127
97899,note_on,1,0,0,,10,,,69,127
97958,note_off,59,0,0,,2,,,62,127
98079,note_on,121,0,0,,1,,,73,127
98198,note_off,119,0,0,,1,,,73,127
98198,note_off,0,0,0,,10,,,69,127
98199,note_on,1,0,0,,10,,,81,127
98199,note_on,0,0,0,,12,,,71,127
98318,note_off,119,0,0,,12,,,71,127
98319,note_on,1,0,0,,10,,,69,127
98438,note_off,119,0,0,,10,,,69,127
98438,note_off,0,0,0,,10,,,81,127
98439,note_on,1,0,0,,12,,,83,127
98439,note_on,0,0,0,,2,,,74,127
98498,note_off,59,0,0,,12,,,83,127
98499,note_on,1,0,0,,10,,,81,127
98558,note_off,59,0,0,,10,,,81,127
98558,note_off,0,0,0,,2,,,74,127
98559,note_on,1,0,0,,12,,,83,127
98559,note_on,0,0,0,,6,,,78,127
98618,note_off,59,0,0,,12,,,83,127
98619,note_on,1,0,0,,10,,,81,127
98678,note_off,59,0,0,,10,,,81,127
98678,note_off,0,0,0,,6,,,78,127
98679,note_on,1,0,0,,12,,,83,127
98679,note_on,0,0,0,,4,,,76,127
98738,note_off,59,0,0,,12,,,83,127
98739,note_on,1,0,0,,10,,,81,127
98798,note_off,59,0,0,,10,,,81,127
98798,note_off,0,0,0,,4,,,76,127
98799,note_on,1,0,0,,12,,,83,127
98799,note_on,0,0,0,,2,,,74,127
98858,note_off,59,0,0,,12,,,83,127
98859,note_on,1,0,0,,10,,,81,127
98918,note_off,59,0,0,,2,,,74,127
98919,note_on,1,0,0,,10,,,45,127
99038,note_off,119,0,0,,10,,,45,127
99039,note_on,1,0,0,,1,,,49,127
99158,note_off,119,0,0,,1,,,49,127
99158,note_off,0,0,0,,10,,,81,127
99159,note_on,1,0,0,,10,,,69,127
99159,note_on,0,0,0,,12,,,47,127
99278,note_off,119,0,0,,12,,,47,127
99279,note_on,1,0,0,,10,,,45,127
99398,note_off,119,0,0,,10,,,45,127
99398,note_off,0,0,0,,10,,,69,127
99399,note_on,1,0,0,,12,,,71,127
99399,note_on,0,0,0,,2,,,50,127
99458,note_off,59,0,0,,12,,,71,127
99459,note_on,1,0,0,,10,,,69,127
99518,note_off,59,0,0,,10,,,69,127
99518,note_off,0,0,0,,2,,,50,127
99519,note_on,1,0,0,,12,,,71,127
99519,note_on,0,0,0,,6,,,54,127
99578,note_off,59,0,0,,12,,,71,127
99579,note_on,1,0,0,,10,,,69,127
99638,note_off,59,0,0,,10,,,69,127
99638,note_off,0,0,0,,6,,,54,127
99639,note_on,1,0,0,,12,,,71,127
99639,note_on,0,0,0,,4,,,52,127
99698,note_off,59,0,0,,12,,,71,127
99699,note_on,1,0,0,,10,,,69,127
99758,note_off,59,0,0,,10,,,69,127
99758,note_off,0,0,0,,4,,,52,127
99759,note_on,1,0,0,,12,,,71,127
99759,note_on,0,0,0,,2,,,50,127
99818,note_off,59,0,0,,12,,,71,127
99819,note_on,1,0,0,,10,,,69,127
99878,note_off,59,0,0,,2,,,50,127
99879,note_on,1,0,0,,10,,,57,127
99998,note_off,119,0,0,,10,,,57,127
99999,note_on,1,0,0,,1,,,61,127
100118,note_off,119,0,0,,1,,,61,127
100118,note_off,0,0,0,,10,,,69,127
100119,note_on,1,0,0,,10,,,81,127
100119,note_on,0,0,0,,12,,,59,127
100238,note_off,119,0,0,,12,,,59,127
100239,note_on,1,0,0,,10,,,57,127
100358,note_off,119,0,0,,10,,,57,127
100358,note_off,0,0,0,,10,,,81,127
100359,note_on,1,0,0,,12,,,83,127
100359,note_on,0,0,0,,2,,,62,127
100418,note_off,59,0,0,,12,,,83,127
100419,note_on,1,0,0,,10,,,81,127
100478,note_off,59,0,0,,10,,,81,127
100478,note_off,0,0,0,,2,,,62,127
100479,note_on,1,0,0,,12,,,83,127
100479,note_on,0,0,0,,6,,,66,127
100538,note_off,59,0,0,,12,,,83,127
100539,note_on,1,0,0,,10,,,81,127
100598,note_off,59,0,0,,10,,,81,127
100598,note_off,0,0,0,,6,,,66,127
100599,note_on,1,0,0,,12,,,83,127
100599,note_on,0,0,0,,4,,,64,127
100658,note_off,59,0,0,,12,,,83,127
100659,note_on,1,0,0,,10,,,81,127
100718,note_off,59,0,0,,10,,,81,127
100718,note_off,0,0,0,,4,,,64,127
100719,note_on,1,0,0,,12,,,83,127
100719,note_on,0,0,0,,2,,,62,127
100778,note_off,59,0,0,,12,,,83,127
100779,note_on,1,0,0,,10,,,81,127
100838,note_off,59,0,0,,2,,,62,127
100839,note_on,1,0,0,,10,,,69,127
100954,note_off,115,0,0,,10,,,81,127
100959,note_on,5,0,0,,10,,,81,127
101078,note_off,119,0,0,,10,,,81,127
101079,note_on,1,0,0,,7,,,79,127
101198,note_off,119,0,0,,7,,,79,127
101199,note_on,1,0,0,,5,,,77,127
101318,note_off,119,0,0,,5,,,77,127
101319,note_on,1,0,0,,4,,,76,127
101438,note_off,119,0,0,,4,,,76,127
101438,note_off,0,0,0,,10,,,69,127
101439,note_on,1,0,0,,11,,,82,127
101439,note_on,0,0,0,,2,,,74,127
101558,note_off,119,0,0,,2,,,74,127
101558,note_off,0,0,0,,11,,,82,127
101559,note_on,1,0,0,,10,,,81,127
101559,note_on,0,0,0,,0,,,72,127
101678,note_off,119,0,0,,0,,,72,127
101678,note_off,0,0,0,,10,,,81,127
101679,note_on,1,0,0,,8,,,80,127
101679,note_on,0,0,0,,12,,,71,127
101798,note_off,119,0,0,,12,,,71,127
101798,note_off,0,0,0,,8,,,80,127
101799,note_on,1,0,0,,10,,,81,127
101799,note_on,0,0,0,,10,,,45,127
101918,note_off,119,0,0,,10,,,81,127
101919,note_on,1,0,0,,5,,,77,127
102038,note_off,119,0,0,,5,,,77,127
102039,note_on,1,0,0,,4,,,76,127
102158,note_off,119,0,0,,4,,,76,127
102159,note_on,1,0,0,,2,,,74,127
102278,note_off,119,0,0,,2,,,74,127
102279,note_on,1,0,0,,1,,,73,127
102398,note_off,119,0,0,,1,,,73,127
102398,note_off,0,0,0,,10,,,45,127
102399,note_on,1,0,0,,7,,,79,127
102399,note_on,0,0,0,,11,,,70,127
102518,note_off,119,0,0,,11,,,70,127
102518,note_off,0,0,0,,7,,,79,127
102519,note_on,1,0,0,,5,,,77,127
102519,note_on,0,0,0,,10,,,69,127
102638,note_off,119,0,0,,10,,,69,127
102638,note_off,0,0,0,,5,,,77,127
102639,note_on,1,0,0,,4,,,76,127
102639,note_on,0,0,0,,7,,,67,127
102758,note_off,119,0,0,,7,,,67,127
102758,note_off,0,0,0,,4,,,76,127
102759,note_on,1,0,0,,5,,,77,127
102759,note_on,0,0,0,,2,,,62,127
102878,note_off,119,0,0,,5,,,77,127
102879,note_on,1,0,0,,5,,,77,127
102879,note_on,0,0,0,,2,,,74,127
102997,note_off,118,0,0,,2,,,62,127
102998,note_off,1,0,0,,2,,,74,127
102998,note_off,0,0,0,,5,,,77,127
102999,note_on,1,0,0,,4,,,76,127
102999,note_on,0,0,0,,1,,,73,127
103118,note_off,119,0,0,,1,,,73,127
103118,note_off,0,0,0,,4,,,76,127
103119,note_on,1,0,0,,5,,,77,127
103119,note_on,0,0,0,,2,,,74,127
103238,note_off,119,0,0,,2,,,74,127
103238,note_off,0,0,0,,5,,,77,127
103239,note_on,1,0,0,,7,,,79,127
103239,note_on,0,0,0,,10,,,69,127
103358,note_off,119,0,0,,7,,,79,127
103359,note_on,1,0,0,,7,,,79,127
103359,note_on,0,0,0,,4,,,76,127
103477,note_off,118,0,0,,10,,,69,127
103478,note_off,1,0,0,,4,,,76,127
103478,note_off,0,0,0,,7,,,79,127
103479,note_on,1,0,0,,5,,,77,127
103479,note_on,0,0,0,,2,,,74,127
103598,note_off,119,0,0,,2,,,74,127
103598,note_off,0,0,0,,5,,,77,127
103599,note_on,1,0,0,,4,,,76,127
103599,note_on,0,0,0,,1,,,73,127
103718,note_off,119,0,0,,1,,,73,127
103718,note_off,0,0,0,,4,,,76,127
103719,note_on,1,0,0,,5,,,77,127
103719,note_on,0,0,0,,2,,,62,127
103838,note_off,119,0,0,,5,,,77,127
103839,note_on,1,0,0,,5,,,77,127
103839,note_on,0,0,0,,2,,,74,127
103957,note_off,118,0,0,,2,,,62,127
103958,note_off,1,0,0,,2,,,74,127
103958,note_off,0,0,0,,5,,,77,127
103959,note_on,1,0,0,,4,,,76,127
103959,note_on,0,0,0,,1,,,73,127
104078,note_off,119,0,0,,1,,,73,127
104078,note_off,0,0,0,,4,,,76,127
104079,note_on,1,0,0,,5,,,77,127
104079,note_on,0,0,0,,2,,,74,127
104198,note_off,119,0,0,,2,,,74,127
104198,note_off,0,0,0,,5,,,77,127
104199,note_on,1,0,0,,7,,,79,127
104199,note_on,0,0,0,,10,,,69,127
104318,note_off,119,0,0,,7,,,79,127
104319,note_on,1,0,0,,7,,,79,127
104319,note_on,0,0,0,,4,,,76,127
104437,note_off,118,0,0,,10,,,69,127
104438,note_off,1,0,0,,4,,,76,127
104438,note_off,0,0,0,,7,,,79,127
104439,note_on,1,0,0,,5,,,77,127
104439,note_on,0,0,0,,2,,,74,127
104558,note_off,119,0,0,,2,,,74,127
104558,note_off,0,0,0,,5,,,77,127
104559,note_on,1,0,0,,4,,,76,127
104559,note_on,0,0,0,,1,,,73,127
104678,note_off,119,0,0,,1,,,73,127
104678,note_off,0,0,0,,4,,,76,127
104679,note_on,1,0,0,,5,,,77,127
104679,note_on,0,0,0,,2,,,62,127
104798,note_off,119,0,0,,5,,,77,127
104799,note_on,1,0,0,,5,,,77,127
104799,note_on,0,0,0,,2,,,74,127
104917,note_off,118,0,0,,2,,,62,127
104918,note_off,1,0,0,,2,,,74,127
104918,note_off,0,0,0,,5,,,77,127
104919,note_on,1,0,0,,4,,,76,127
104919,note_on,0,0,0,,1,,,73,127
105038,note_off,119,0,0,,1,,,73,127
105038,note_off,0,0,0,,4,,,76,127
105039,note_on,1,0,0,,5,,,77,127
105039,note_on,0,0,0,,2,,,74,127
105158,note_off,119,0,0,,2,,,74,127
105158,note_off,0,0,0,,5,,,77,127
105159,note_on,1,0,0,,7,,,79,127
105159,note_on,0,0,0,,10,,,69,127
105278,note_off,119,0,0,,7,,,79,127
105279,note_on,1,0,0,,7,,,79,127
105279,note_on,0,0,0,,4,,,76,127
105397,note_off,118,0,0,,10,,,69,127
105398,note_off,1,0,0,,4,,,76,127
105398,note_off,0,0,0,,7,,,79,127
105399,note_on,1,0,0,,5,,,77,127
105399,note_on,0,0,0,,2,,,74,127
105518,note_off,119,0,0,,2,,,74,127
105518,note_off,0,0,0,,5,,,77,127
105519,note_on,1,0,0,,4,,,76,127
105519,note_on,0,0,0,,1,,,73,127
105638,note_off,119,0,0,,1,,,73,127
105638,note_off,0,0,0,,4,,,76,127
105639,note_on,1,0,0,,5,,,77,127
105639,note_on,0,0,0,,2,,,62,127
105758,note_off,119,0,0,,5,,,77,127
105759,note_on,1,0,0,,5,,,77,127
105759,note_on,0,0,0,,2,,,74,127
105877,note_off,118,0,0,,2,,,62,127
105878,note_off,1,0,0,,2,,,74,127
105878,note_off,0,0,0,,5,,,77,127
105879,note_on,1,0,0,,7,,,79,127
105879,note_on,0,0,0,,0,,,72,127
105998,note_off,119,0,0,,0,,,72,127
105998,note_off,0,0,0,,7,,,79,127
105999,note_on,1,0,0,,10,,,81,127
105999,note_on,0,0,0,,11,,,70,127
106118,note_off,119,0,0,,11,,,70,127
106118,note_off,0,0,0,,10,,,81,127
106119,note_on,1,0,0,,6,,,78,127
106119,note_on,0,0,0,,2,,,62,127
106238,note_off,119,0,0,,6,,,78,127
106239,note_on,1,0,0,,6,,,78,127
106239,note_on,0,0,0,,0,,,72,127
106357,note_off,118,0,0,,2,,,62,127
106358,note_off,1,0,0,,0,,,72,127
106358,note_off,0,0,0,,6,,,78,127
106359,note_on,1,0,0,,7,,,79,127
106359,note_on,0,0,0,,11,,,70,127
106478,note_off,119,0,0,,11,,,70,127
106478,note_off,0,0,0,,7,,,79,127
106479,note_on,1,0,0,,10,,,69,127
106479,note_on,0,0,0,,10,,,81,127
106598,note_off,119,0,0,,10,,,81,127
106598,note_off,0,0,0,,10,,,69,127
106599,note_on,1,0,0,,7,,,55,127
106599,note_on,0,0,0,,7,,,79,127
106718,note_off,119,0,0,,7,,,79,127
106718,note_off,0,0,0,,7,,,55,127
106719,note_on,1,0,0,,7,,,79,127
106719,note_on,0,0,0,,11,,,70,127
106838,note_off,119,0,0,,11,,,70,127
106838,note_off,0,0,0,,7,,,79,127
106839,note_on,1,0,0,,10,,,81,127
106839,note_on,0,0,0,,10,,,69,127
106958,note_off,119,0,0,,10,,,69,127
106958,note_off,0,0,0,,10,,,81,127
106959,note_on,1,0,0,,11,,,82,127
106959,note_on,0,0,0,,7,,,67,127
107078,note_off,119,0,0,,7,,,67,127
107078,note_off,0,0,0,,11,,,82,127
107079,note_on,1,0,0,,6,,,78,127
107079,note_on,0,0,0,,2,,,62,127
107198,note_off,119,0,0,,6,,,78,127
107199,note_on,1,0,0,,6,,,78,127
107199,note_on,0,0,0,,0,,,72,127
107259,note_off,60,0,0,,2,,,62,127
107318,note_off,59,0,0,,0,,,72,127
107318,note_off,0,0,0,,6,,,78,127
107319,note_on,1,0,0,,7,,,79,127
107319,note_on,0,0,0,,11,,,70,127
107438,note_off,119,0,0,,11,,,70,127
107438,note_off,0,0,0,,7,,,79,127
107439,note_on,1,0,0,,10,,,81,127
107439,note_on,0,0,0,,10,,,69,127
107558,note_off,119,0,0,,10,,,69,127
107558,note_off,0,0,0,,10,,,81,127
107559,note_on,1,0,0,,7,,,79,127
107559,note_on,0,0,0,,7,,,55,127
107678,note_off,119,0,0,,7,,,55,127
107678,note_off,0,0,0,,7,,,79,127
107679,note_on,1,0,0,,7,,,79,127
107679,note_on,0,0,0,,11,,,70,127
107798,note_off,119,0,0,,11,,,70,127
107798,note_off,0,0,0,,7,,,79,127
107799,note_on,1,0,0,,10,,,81,127
107799,note_on,0,0,0,,10,,,69,127
107918,note_off,119,0,0,,10,,,69,127
107918,note_off,0,0,0,,10,,,81,127
107919,note_on,1,0,0,,11,,,82,127
107919,note_on,0,0,0,,7,,,67,127
108038,note_off,119,0,0,,7,,,67,127
108038,note_off,0,0,0,,11,,,82,127
108039,note_on,1,0,0,,6,,,78,127
108039,note_on,0,0,0,,2,,,62,127
108158,note_off,119,0,0,,6,,,78,127
108159,note_on,1,0,0,,6,,,78,127
108159,note_on,0,0,0,,0,,,72,127
108219,note_off,60,0,0,,2,,,62,127
108278,note_off,59,0,0,,0,,,72,127
108278,note_off,0,0,0,,6,,,78,127
108279,note_on,1,0,0,,7,,,79,127
108279,note_on,0,0,0,,11,,,70,127
108398,note_off,119,0,0,,11,,,70,127
108398,note_off,0,0,0,,7,,,79,127
108399,note_on,1,0,0,,10,,,81,127
108399,note_on,0,0,0,,10,,,69,127
108518,note_off,119,0,0,,10,,,69,127
108518,note_off,0,0,0,,10,,,81,127
108519,note_on,1,0,0,,7,,,79,127
108519,note_on,0,0,0,,7,,,55,127
108638,note_off,119,0,0,,7,,,55,127
108638,note_off,0,0,0,,7,,,79,127
108639,note_on,1,0,0,,7,,,79,127
108639,note_on,0,0,0,,11,,,70,127
108758,note_off,119,0,0,,11,,,70,127
108758,note_off,0,0,0,,7,,,79,127
108759,note_on,1,0,0,,10,,,69,127
108759,note_on,0,0,0,,10,,,81,127
108878,note_off,119,0,0,,10,,,81,127
108878,note_off,0,0,0,,10,,,69,127
108879,note_on,1,0,0,,7,,,67,127
108879,note_on,0,0,0,,11,,,82,127
108998,note_off,119,0,0,,11,,,82,127
108998,note_off,0,0,0,,7,,,67,127
108999,note_on,1,0,0,,10,,,57,127
108999,note_on,0,0,0,,1,,,73,127
109118,note_off,119,0,0,,1,,,73,127
109119,note_on,1,0,0,,7,,,67,127
109119,note_on,0,0,0,,1,,,73,127
109179,note_off,60,0,0,,10,,,57,127
109238,note_off,59,0,0,,1,,,73,127
109238,note_off,0,0,0,,7,,,67,127
109239,note_on,1,0,0,,5,,,65,127
109239,note_on,0,0,0,,2,,,74,127
109358,note_off,119,0,0,,2,,,74,127
109358,note_off,0,0,0,,5,,,65,127
109359,note_on,1,0,0,,4,,,64,127
109359,note_on,0,0,0,,4,,,76,127
109478,note_off,119,0,0,,4,,,76,127
109478,note_off,0,0,0,,4,,,64,127
109479,note_on,1,0,0,,2,,,50,127
109479,note_on,0,0,0,,2,,,74,127
109598,note_off,119,0,0,,2,,,74,127
109598,note_off,0,0,0,,2,,,50,127
109599,note_on,1,0,0,,5,,,65,127
109599,note_on,0,0,0,,2,,,74,127
109718,note_off,119,0,0,,2,,,74,127
109718,note_off,0,0,0,,5,,,65,127
109719,note_on,1,0,0,,4,,,64,127
109719,note_on,0,0,0,,4,,,76,127
109838,note_off,119,0,0,,4,,,76,127
109838,note_off,0,0,0,,4,,,64,127
109839,note_on,1,0,0,,2,,,62,127
109839,note_on,0,0,0,,5,,,77,127
109958,note_off,119,0,0,,5,,,77,127
109958,note_off,0,0,0,,2,,,62,127
109959,note_on,1,0,0,,10,,,57,127
109959,note_on,0,0,0,,1,,,73,127
110078,note_off,119,0,0,,1,,,73,127
110079,note_on,1,0,0,,7,,,67,127
110079,note_on,0,0,0,,1,,,73,127
110139,note_off,60,0,0,,10,,,57,127
110198,note_off,59,0,0,,1,,,73,127
110198,note_off,0,0,0,,7,,,67,127
110199,note_on,1,0,0,,5,,,65,127
110199,note_on,0,0,0,,2,,,74,127
110318,note_off,119,0,0,,2,,,74,127
110318,note_off,0,0,0,,5,,,65,127
110319,note_on,1,0,0,,4,,,64,127
110319,note_on,0,0,0,,4,,,76,127
110438,note_off,119,0,0,,4,,,76,127
110438,note_off,0,0,0,,4,,,64,127
110439,note_on,1,0,0,,2,,,50,127
110439,note_on,0,0,0,,2,,,74,127
110558,note_off,119,0,0,,2,,,74,127
110558,note_off,0,0,0,,2,,,50,127
110559,note_on,1,0,0,,5,,,65,127
110559,note_on,0,0,0,,2,,,74,127
110678,note_off,119,0,0,,2,,,74,127
110678,note_off,0,0,0,,5,,,65,127
110679,note_on,1,0,0,,4,,,64,127
110679,note_on,0,0,0,,4,,,76,127
110798,note_off,119,0,0,,4,,,76,127
110798,note_off,0,0,0,,4,,,64,127
110799,note_on,1,0,0,,2,,,62,127
110799,note_on,0,0,0,,5,,,77,127
110918,note_off,119,0,0,,5,,,77,127
110918,note_off,0,0,0,,2,,,62,127
110919,note_on,1,0,0,,10,,,57,127
110919,note_on,0,0,0,,1,,,73,127
111038,note_off,119,0,0,,1,,,73,127
111039,note_on,1,0,0,,7,,,67,127
111039,note_on,0,0,0,,1,,,73,127
111099,note_off,60,0,0,,10,,,57,127
111158,note_off,59,0,0,,1,,,73,127
111158,note_off,0,0,0,,7,,,67,127
111159,note_on,1,0,0,,5,,,65,127
111159,note_on,0,0,0,,2,,,74,127
111278,note_off,119,0,0,,2,,,74,127
111278,note_off,0,0,0,,5,,,65,127
111279,note_on,1,0,0,,4,,,64,127
111279,note_on,0,0,0,,4,,,76,127
111398,note_off,119,0,0,,4,,,76,127
111398,note_off,0,0,0,,4,,,64,127
111399,note_on,1,0,0,,2,,,50,127
111399,note_on,0,0,0,,2,,,74,127
111518,note_off,119,0,0,,2,,,74,127
111518,note_off,0,0,0,,2,,,50,127
111519,note_on,1,0,0,,5,,,65,127
111519,note_on,0,0,0,,2,,,74,127
111638,note_off,119,0,0,,2,,,74,127
111638,note_off,0,0,0,,5,,,65,127
111639,note_on,1,0,0,,4,,,64,127
111639,note_on,0,0,0,,4,,,76,127
111758,note_off,119,0,0,,4,,,76,127
111758,note_off,0,0,0,,4,,,64,127
111759,note_on,1,0,0,,2,,,62,127
111759,note_on,0,0,0,,5,,,77,127
111878,note_off,119,0,0,,5,,,77,127
111878,note_off,0,0,0,,2,,,62,127
111879,note_on,1,0,0,,4,,,52,127
111879,note_on,0,0,0,,8,,,68,127
111998,note_off,119,0,0,,8,,,68,127
111999,note_on,1,0,0,,2,,,62,127
111999,note_on,0,0,0,,8,,,68,127
112059,note_off,60,0,0,,4,,,52,127
112118,note_off,59,0,0,,8,,,68,127
112118,note_off,0,0,0,,2,,,62,127
112119,note_on,1,0,0,,1,,,61,127
112119,note_on,0,0,0,,10,,,69,127
112238,note_off,119,0,0,,10,,,69,127
112238,note_off,0,0,0,,1,,,61,127
112239,note_on,1,0,0,,12,,,59,127
112239,note_on,0,0,0,,12,,,71,127
112358,note_off,119,0,0,,12,,,71,127
112358,note_off,0,0,0,,12,,,59,127
112359,note_on,1,0,0,,1,,,61,127
112359,note_on,0,0,0,,10,,,69,127
112478,note_off,119,0,0,,10,,,69,127
112479,note_on,1,0,0,,12,,,71,127
112598,note_off,119,0,0,,12,,,71,127
112598,note_off,0,0,0,,1,,,61,127
112599,note_on,1,0,0,,10,,,57,127
112599,note_on,0,0,0,,10,,,69,127
112718,note_off,119,0,0,,10,,,69,127
112719,note_on,1,0,0,,7,,,67,127
112838,note_off,119,0,0,,7,,,67,127
112838,note_off,0,0,0,,10,,,57,127
112839,note_on,1,0,0,,2,,,62,127
112839,note_on,0,0,0,,6,,,66,127
112958,note_off,119,0,0,,6,,,66,127
112959,note_on,1,0,0,,4,,,76,127
113078,note_off,119,0,0,,4,,,76,127
113078,note_off,0,0,0,,2,,,62,127
113079,note_on,1,0,0,,6,,,54,127
113079,note_on,0,0,0,,2,,,74,127
113198,note_off,119,0,0,,2,,,74,127
113199,note_on,1,0,0,,1,,,73,127
113318,note_off,119,0,0,,1,,,73,127
113318,note_off,0,0,0,,6,,,54,127
113319,note_on,1,0,0,,7,,,55,127
113319,note_on,0,0,0,,12,,,71,127
113438,note_off,119,0,0,,12,,,71,127
113439,note_on,1,0,0,,6,,,78,127
113558,note_off,119,0,0,,6,,,78,127
113558,note_off,0,0,0,,7,,,55,127
113559,note_on,1,0,0,,8,,,56,127
113559,note_on,0,0,0,,4,,,76,127
113678,note_off,119,0,0,,4,,,76,127
113679,note_on,1,0,0,,2,,,74,127
113798,note_off,119,0,0,,2,,,74,127
113798,note_off,0,0,0,,8,,,56,127
113799,note_on,1,0,0,,10,,,57,127
113799,note_on,0,0,0,,1,,,73,127
113918,note_off,119,0,0,,1,,,73,127
113919,note_on,1,0,0,,12,,,83,127
114038,note_off,119,0,0,,12,,,83,127
114038,note_off,0,0,0,,10,,,57,127
114039,note_on,1,0,0,,1,,,61,127
114039,note_on,0,0,0,,10,,,81,127
114158,note_off,119,0,0,,10,,,81,127
114159,note_on,1,0,0,,7,,,79,127
114278,note_off,119,0,0,,7,,,79,127
114278,note_off,0,0,0,,1,,,61,127
114279,note_on,1,0,0,,2,,,62,127
114279,note_on,0,0,0,,6,,,78,127
114398,note_off,119,0,0,,6,,,78,127
114399,note_on,1,0,0,,4,,,76,127
114518,note_off,119,0,0,,4,,,76,127
114518,note_off,0,0,0,,2,,,62,127
114519,note_on,1,0,0,,6,,,54,127
114519,note_on,0,0,0,,2,,,74,127
114638,note_off,119,0,0,,2,,,74,127
114639,note_on,1,0,0,,1,,,73,127
114758,note_off,119,0,0,,1,,,73,127
114758,note_off,0,0,0,,6,,,54,127
114759,note_on,1,0,0,,7,,,55,127
114759,note_on,0,0,0,,12,,,71,127
114878,note_off,119,0,0,,12,,,71,127
114879,note_on,1,0,0,,10,,,69,127
114998,note_off,119,0,0,,10,,,69,127
114999,note_on,1,0,0,,7,,,43,127
114999,note_on,0,0,0,,7,,,67,127
115118,note_off,119,0,0,,7,,,67,127
115119,note_on,1,0,0,,6,,,66,127
115234,note_off,115,0,0,,7,,,55,127
115238,note_off,4,0,0,,6,,,66,127
115238,note_off,0,0,0,,7,,,43,127
115239,note_on,1,0,0,,10,,,45,127
115239,note_on,0,0,0,,4,,,64,127
115358,note_off,119,0,0,,4,,,64,127
115359,note_on,1,0,0,,2,,,62,127
115478,note_off,119,0,0,,2,,,62,127
115479,note_on,1,0,0,,1,,,61,127
115598,note_off,119,0,0,,1,,,61,127
115599,note_on,1,0,0,,12,,,59,127
115718,note_off,119,0,0,,12,,,59,127
115719,note_on,1,0,0,,10,,,57,127
115838,note_off,119,0,0,,10,,,45,127
115839,note_on,1,0,0,,7,,,55,127
115958,note_off,119,0,0,,7,,,55,127
115958,note_off,0,0,0,,10,,,57,127
115959,note_on,1,0,0,,7,,,67,127
115959,note_on,0,0,0,,6,,,54,127
116078,note_off,119,0,0,,6,,,54,127
116079,note_on,1,0,0,,4,,,52,127
116198,note_off,119,0,0,,4,,,52,127
116198,note_off,0,0,0,,7,,,67,127
116199,note_on,1,0,0,,6,,,66,127
116199,note_on,0,0,0,,2,,,50,127
116318,note_off,119,0,0,,6,,,66,127
116319,note_on,1,0,0,,12,,,71,127
116438,note_off,119,0,0,,12,,,71,127
116438,note_off,0,0,0,,2,,,50,127
116439,note_on,1,0,0,,10,,,69,127
116439,note_on,0,0,0,,7,,,55,127
116558,note_off,119,0,0,,10,,,69,127
116559,note_on,1,0,0,,7,,,67,127
116678,note_off,119,0,0,,7,,,67,127
116678,note_off,0,0,0,,7,,,55,127
116679,note_on,1,0,0,,6,,,66,127
116679,note_on,0,0,0,,10,,,57,127
116798,note_off,119,0,0,,6,,,66,127
116799,note_on,1,0,0,,4,,,64,127
116918,note_off,119,0,0,,4,,,64,127
116919,note_on,1,0,0,,2,,,62,127
116919,note_on,0,0,0,,10,,,45,127
117038,note_off,119,0,0,,2,,,62,127
117039,note_off,1,0,0,,10,,,57,127
117039,note_on,0,0,0,,1,,,61,127
117158,note_off,119,0,0,,1,,,61,127
117158,note_off,0,0,0,,10,,,45,127
117159,note_on,1,0,0,,2,,,38,127
117159,note_on,0,0,0,,2,,,62,127
117279,note_on,120,0,0,,2,,,50,127
117339,note_off,60,0,0,,2,,,38,127
117398,note_off,59,0,0,,2,,,50,127
117398,note_off,0,0,0,,2,,,62,127
117399,note_on,1,0,0,,1,,,49,127
117399,note_on,0,0,0,,10,,,81,127
117518,note_off,119,0,0,,1,,,49,127
117519,note_on,1,0,0,,2,,,50,127
117638,note_off,119,0,0,,2,,,50,127
117639,note_on,1,0,0,,6,,,54,127
117759,note_on,120,0,0,,2,,,50,127
117877,note_off,118,0,0,,6,,,54,127
117878,note_off,1,0,0,,2,,,50,127
117878,note_off,0,0,0,,10,,,81,127
117879,note_on,1,0,0,,1,,,49,127
117879,note_on,0,0,0,,6,,,78,127
117998,note_off,119,0,0,,1,,,49,127
117999,note_on,1,0,0,,2,,,50,127
118118,note_off,119,0,0,,2,,,50,127
118118,note_off,0,0,0,,6,,,78,127
118119,note_on,1,0,0,,2,,,38,127
118119,note_on,0,0,0,,4,,,76,127
118178,note_off,59,0,0,,4,,,76,127
118179,note_on,1,0,0,,2,,,74,127
118238,note_off,59,0,0,,2,,,74,127
118239,note_on,1,0,0,,2,,,50,127
118239,note_on,0,0,0,,4,,,76,127
118298,note_off,59,0,0,,4,,,76,127
118299,note_off,1,0,0,,2,,,38,127
118299,note_on,0,0,0,,2,,,74,127
118358,note_off,59,0,0,,2,,,74,127
118358,note_off,0,0,0,,2,,,50,127
118359,note_on,1,0,0,,1,,,49,127
118359,note_on,0,0,0,,10,,,81,127
118478,note_off,119,0,0,,1,,,49,127
118479,note_on,1,0,0,,2,,,50,127
118598,note_off,119,0,0,,2,,,50,127
118599,note_on,1,0,0,,10,,,57,127
118719,note_on,120,0,0,,2,,,50,127
118837,note_off,118,0,0,,10,,,57,127
118838,note_off,1,0,0,,2,,,50,127
118838,note_off,0,0,0,,10,,,81,127
118839,note_on,1,0,0,,1,,,49,127
118839,note_on,0,0,0,,6,,,78,127
118958,note_off,119,0,0,,1,,,49,127
118959,note_on,1,0,0,,2,,,50,127
119078,note_off,119,0,0,,2,,,50,127
119078,note_off,0,0,0,,6,,,78,127
119079,note_on,1,0,0,,2,,,38,127
119079,note_on,0,0,0,,4,,,76,127
119138,note_off,59,0,0,,4,,,76,127
119139,note_on,1,0,0,,2,,,74,127
119198,note_off,59,0,0,,2,,,74,127
119199,note_on,1,0,0,,2,,,50,127
119199,note_on,0,0,0,,4,,,76,127
119258,note_off,59,0,0,,4,,,76,127
119259,note_off,1,0,0,,2,,,38,127
119259,note_on,0,0,0,,2,,,74,127
119318,note_off,59,0,0,,2,,,74,127
119318,note_off,0,0,0,,2,,,50,127
119319,note_on,1,0,0,,1,,,49,127
119319,note_on,0,0,0,,10,,,81,127
119438,note_off,119,0,0,,1,,,49,127
119439,note_on,1,0,0,,2,,,50,127
119558,note_off,119,0,0,,2,,,50,127
119559,note_on,1,0,0,,2,,,62,127
119679,note_on,120,0,0,,2,,,50,127
119797,note_off,118,0,0,,2,,,62,127
119798,note_off,1,0,0,,2,,,50,127
119798,note_off,0,0,0,,10,,,81,127
119799,note_on,1,0,0,,1,,,49,127
119799,note_on,0,0,0,,6,,,78,127
119918,note_off,119,0,0,,1,,,49,127
119919,note_on,1,0,0,,2,,,50,127
120038,note_off,119,0,0,,2,,,50,127
120038,note_off,0,0,0,,6,,,78,127
120039,note_on,1,0,0,,2,,,38,127
120039,note_on,0,0,0,,2,,,74,127
120158,note_off,119,0,0,,2,,,74,127
120159,note_on,1,0,0,,12,,,83,127
120278,note_off,119,0,0,,12,,,83,127
120278,note_off,0,0,0,,2,,,38,127
120279,note_on,1,0,0,,7,,,55,127
120279,note_on,0,0,0,,10,,,81,127
120398,note_off,119,0,0,,10,,,81,127
120399,note_on,1,0,0,,7,,,79,127
120518,note_off,119,0,0,,7,,,79,127
120518,note_off,0,0,0,,7,,,55,127
120519,note_on,1,0,0,,10,,,57,127
120519,note_on,0,0,0,,6,,,78,127
120638,note_off,119,0,0,,6,,,78,127
120639,note_on,1,0,0,,4,,,76,127
120758,note_off,119,0,0,,4,,,76,127
120759,note_on,1,0,0,,10,,,45,127
120759,note_on,0,0,0,,2,,,74,127
120878,note_off,119,0,0,,2,,,74,127
120879,note_off,1,0,0,,10,,,57,127
120879,note_on,0,0,0,,1,,,73,127
120999,note_on,120,0,0,,2,,,38,127
120999,note_on,0,0,0,,2,,,74,127
121010,note_off,11,0,0,,1,,,73,127
121019,note_off,9,0,0,,10,,,45,127
121118,note_off,99,0,0,,2,,,38,127
121119,note_on,1,0,0,,2,,,50,127
121238,note_off,119,0,0,,2,,,50,127
121238,note_off,0,0,0,,2,,,74,127
121239,note_on,1,0,0,,1,,,49,127
121239,note_on,0,0,0,,10,,,81,127
121358,note_off,119,0,0,,1,,,49,127
121359,note_on,1,0,0,,2,,,50,127
121478,note_off,119,0,0,,2,,,50,127
121479,note_on,1,0,0,,6,,,54,127
121599,note_on,120,0,0,,2,,,50,127
121659,note_off,60,0,0,,6,,,54,127
121718,note_off,59,0,0,,2,,,50,127
121718,note_off,0,0,0,,10,,,81,127
121719,note_on,1,0,0,,1,,,49,127
121719,note_on,0,0,0,,6,,,78,127
121838,note_off,119,0,0,,1,,,49,127
121839,note_on,1,0,0,,2,,,50,127
121958,note_off,119,0,0,,2,,,50,127
121958,note_off,0,0,0,,6,,,78,127
121959,note_on,1,0,0,,2,,,38,127
121959,note_on,0,0,0,,4,,,76,127
122018,note_off,59,0,0,,4,,,76,127
122019,note_on,1,0,0,,2,,,74,127
122078,note_off,59,0,0,,2,,,74,127
122078,note_off,0,0,0,,2,,,38,127
122079,note_on,1,0,0,,2,,,50,127
122079,note_on,0,0,0,,4,,,76,127
122138,note_off,59,0,0,,4,,,76,127
122139,note_on,1,0,0,,2,,,74,127
122198,note_off,59,0,0,,2,,,74,127
122198,note_off,0,0,0,,2,,,50,127
122199,note_on,1,0,0,,1,,,49,127
122199,note_on,0,0,0,,10,,,81,127
122318,note_off,119,0,0,,1,,,49,127
122319,note_on,1,0,0,,2,,,50,127
122438,note_off,119,0,0,,2,,,50,127
122439,note_on,1,0,0,,10,,,57,127
122559,note_on,120,0,0,,2,,,50,127
122619,note_off,60,0,0,,10,,,57,127
122678,note_off,59,0,0,,2,,,50,127
122678,note_off,0,0,0,,10,,,81,127
122679,note_on,1,0,0,,1,,,49,127
122679,note_on,0,0,0,,6,,,78,127
122798,note_off,119,0,0,,1,,,49,127
122799,note_on,1,0,0,,2,,,50,127
122918,note_off,119,0,0,,2,,,50,127
122918,note_off,0,0,0,,6,,,78,127
122919,note_on,1,0,0,,2,,,38,127
122919,note_on,0,0,0,,4,,,76,127
122978,note_off,59,0,0,,4,,,76,127
122979,note_on,1,0,0,,2,,,74,127
123038,note_off,59,0,0,,2,,,74,127
123038,note_off,0,0,0,,2,,,38,127
123039,note_on,1,0,0,,2,,,50,127
123039,note_on,0,0,0,,4,,,76,127
123098,note_off,59,0,0,,4,,,76,127
123099,note_on,1,0,0,,2,,,74,127
123158,note_off,59,0,0,,2,,,74,127
123158,note_off,0,0,0,,2,,,50,127
123159,note_on,1,0,0,,1,,,49,127
123159,note_on,0,0,0,,10,,,81,127
123278,note_off,119,0,0,,1,,,49,127
123279,note_on,1,0,0,,2,,,50,127
123398,note_off,119,0,0,,2,,,50,127
123399,note_on,1,0,0,,2,,,62,127
123519,note_on,120,0,0,,2,,,50,127
123637,note_off,118,0,0,,2,,,62,127
123638,note_off,1,0,0,,2,,,50,127
123638,note_off,0,0,0,,10,,,81,127
123639,note_on,1,0,0,,1,,,49,127
123639,note_on,0,0,0,,6,,,78,127
123758,note_off,119,0,0,,1,,,49,127
123759,note_on,1,0,0,,2,,,50,127
123878,note_off,119,0,0,,2,,,50,127
123878,note_off,0,0,0,,6,,,78,127
123879,note_on,1,0,0,,2,,,38,127
123879,note_on,0,0,0,,2,,,74,127
123998,note_off,119,0,0,,2,,,74,127
123999,note_on,1,0,0,,12,,,83,127
124118,note_off,119,0,0,,12,,,83,127
124118,note_off,0,0,0,,2,,,38,127
124119,note_on,1,0,0,,7,,,55,127
124119,note_on,0,0,0,,10,,,81,127
124238,note_off,119,0,0,,10,,,81,127
124239,note_on,1,0,0,,7,,,79,127
124358,note_off,119,0,0,,7,,,79,127
124358,note_off,0,0,0,,7,,,55,127
124359,note_on,1,0,0,,10,,,57,127
124359,note_on,0,0,0,,6,,,78,127
124478,note_off,119,0,0,,6,,,78,127
124479,note_on,1,0,0,,4,,,76,127
124598,note_off,119,0,0,,4,,,76,127
124599,note_on,1,0,0,,10,,,45,127
124599,note_on,0,0,0,,2,,,74,127
124718,note_off,119,0,0,,2,,,74,127
124719,note_on,1,0,0,,1,,,73,127
124834,note_off,115,0,0,,10,,,57,127
124838,note_off,4,0,0,,1,,,73,127
124838,note_off,0,0,0,,10,,,45,127
124839,note_on,1,0,0,,2,,,74,127
124839,note_on,0,0,0,,2,,,50,127
124958,note_off,119,0,0,,2,,,74,127
124959,note_on,1,0,0,,6,,,78,127
125078,note_off,119,0,0,,6,,,78,127
125078,note_off,0,0,0,,2,,,50,127
125079,note_on,1,0,0,,4,,,76,127
125079,note_on,0,0,0,,7,,,55,127
125198,note_off,119,0,0,,4,,,76,127
125199,note_on,1,0,0,,2,,,74,127
125318,note_off,119,0,0,,2,,,74,127
125318,note_off,0,0,0,,7,,,55,127
125319,note_on,1,0,0,,1,,,73,127
125319,note_on,0,0,0,,10,,,57,127
125438,note_off,119,0,0,,1,,,73,127
125439,note_on,1,0,0,,12,,,71,127
125558,note_off,119,0,0,,12,,,71,127
125558,note_off,0,0,0,,10,,,57,127
125559,note_on,1,0,0,,10,,,69,127
125559,note_on,0,0,0,,1,,,61,127
125678,note_off,119,0,0,,10,,,69,127
125679,note_on,1,0,0,,7,,,67,127
125798,note_off,119,0,0,,7,,,67,127
125798,note_off,0,0,0,,1,,,61,127
125799,note_on,1,0,0,,6,,,66,127
125799,note_on,0,0,0,,2,,,62,127
125918,note_off,119,0,0,,6,,,66,127
125919,note_on,1,0,0,,10,,,69,127
126038,note_off,119,0,0,,10,,,69,127
126038,note_off,0,0,0,,2,,,62,127
126039,note_on,1,0,0,,2,,,74,127
126039,note_on,0,0,0,,6,,,54,127
126158,note_off,119,0,0,,2,,,74,127
126159,note_on,1,0,0,,6,,,78,127
126278,note_off,119,0,0,,6,,,78,127
126278,note_off,0,0,0,,6,,,54,127
126279,note_on,1,0,0,,4,,,76,127
126279,note_on,0,0,0,,7,,,55,127
126398,note_off,119,0,0,,4,,,76,127
126399,note_on,1,0,0,,7,,,79,127
126518,note_off,119,0,0,,7,,,79,127
126518,note_off,0,0,0,,7,,,55,127
126519,note_on,1,0,0,,1,,,73,127
126519,note_on,0,0,0,,4,,,52,127
126638,note_off,119,0,0,,1,,,73,127
126639,note_on,1,0,0,,4,,,76,127
126758,note_off,119,0,0,,4,,,76,127
126758,note_off,0,0,0,,4,,,52,127
126759,note_on,1,0,0,,10,,,69,127
126759,note_on,0,0,0,,6,,,54,127
126878,note_off,119,0,0,,10,,,69,127
126879,note_on,1,0,0,,2,,,74,127
126998,note_off,119,0,0,,2,,,74,127
126998,note_off,0,0,0,,6,,,54,127
126999,note_on,1,0,0,,6,,,78,127
126999,note_on,0,0,0,,2,,,50,127
127118,note_off,119,0,0,,6,,,78,127
127119,note_on,1,0,0,,10,,,81,127
127238,note_off,119,0,0,,10,,,81,127
127238,note_off,0,0,0,,2,,,50,127
127239,note_on,1,0,0,,7,,,79,127
127239,note_on,0,0,0,,12,,,59,127
127358,note_off,119,0,0,,7,,,79,127
127359,note_on,1,0,0,,12,,,83,127
127478,note_off,119,0,0,,12,,,83,127
127478,note_off,0,0,0,,12,,,59,127
127479,note_on,1,0,0,,4,,,76,127
127479,note_on,0,0,0,,1,,,61,127
127598,note_off,119,0,0,,4,,,76,127
127599,note_on,1,0,0,,7,,,79,127
127718,note_off,119,0,0,,7,,,79,127
127718,note_off,0,0,0,,1,,,61,127
127719,note_on,1,0,0,,6,,,78,127
127719,note_on,0,0,0,,2,,,62,127
127838,note_off,119,0,0,,6,,,78,127
127839,note_on,1,0,0,,10,,,81,127
127958,note_off,119,0,0,,10,,,81,127
127958,note_off,0,0,0,,2,,,62,127
127959,note_on,1,0,0,,6,,,54,127
127959,note_on,0,0,0,,2,,,74,127
128078,note_off,119,0,0,,2,,,74,127
128079,note_on,1,0,0,,6,,,78,127
128198,note_off,119,0,0,,6,,,78,127
128198,note_off,0,0,0,,6,,,54,127
128199,note_on,1,0,0,,7,,,55,127
128199,note_on,0,0,0,,4,,,76,127
128318,note_off,119,0,0,,4,,,76,127
128319,note_on,1,0,0,,7,,,79,127
128438,note_off,119,0,0,,7,,,79,127
128438,note_off,0,0,0,,7,,,55,127
128439,note_on,1,0,0,,4,,,52,127
128439,note_on,0,0,0,,1,,,73,127
128558,note_off,119,0,0,,1,,,73,127
128559,note_on,1,0,0,,4,,,76,127
128678,note_off,119,0,0,,4,,,76,127
128678,note_off,0,0,0,,4,,,52,127
128679,note_on,1,0,0,,2,,,74,127
128679,note_on,0,0,0,,6,,,54,127
128798,note_off,119,0,0,,2,,,74,127
128799,note_on,1,0,0,,6,,,78,127
128918,note_off,119,0,0,,6,,,78,127
128918,note_off,0,0,0,,6,,,54,127
128919,note_on,1,0,0,,4,,,76,127
128919,note_on,0,0,0,,7,,,55,127
129038,note_off,119,0,0,,4,,,76,127
129039,note_on,1,0,0,,2,,,74,127
129158,note_off,119,0,0,,2,,,74,127
129158,note_off,0,0,0,,7,,,55,127
129159,note_on,1,0,0,,1,,,73,127
129159,note_on,0,0,0,,10,,,57,127
129278,note_off,119,0,0,,1,,,73,127
129279,note_on,1,0,0,,12,,,71,127
129398,note_off,119,0,0,,12,,,71,127
129398,note_off,0,0,0,,10,,,57,127
129399,note_on,1,0,0,,10,,,69,127
129399,note_on,0,0,0,,1,,,49,127
129518,note_off,119,0,0,,10,,,69,127
129519,note_on,1,0,0,,7,,,67,127
129638,note_off,119,0,0,,7,,,67,127
129638,note_off,0,0,0,,1,,,49,127
129639,note_on,1,0,0,,6,,,66,127
129639,note_on,0,0,0,,2,,,50,127
129758,note_off,119,0,0,,6,,,66,127
129759,note_on,1,0,0,,2,,,74,127
129878,note_off,119,0,0,,2,,,74,127
129878,note_off,0,0,0,,2,,,50,127
129879,note_on,1,0,0,,7,,,55,127
129879,note_on,0,0,0,,12,,,71,127
129998,note_off,119,0,0,,12,,,71,127
129999,note_on,1,0,0,,7,,,67,127
130118,note_off,119,0,0,,7,,,67,127
130118,note_off,0,0,0,,7,,,55,127
130119,note_on,1,0,0,,10,,,57,127
130119,note_on,0,0,0,,6,,,66,127
130238,note_off,119,0,0,,6,,,66,127
130239,note_on,1,0,0,,2,,,74,127
130358,note_off,119,0,0,,2,,,74,127
130359,note_on,1,0,0,,10,,,45,127
130359,note_on,0,0,0,,4,,,64,127
130478,note_off,119,0,0,,4,,,64,127
130479,note_off,1,0,0,,10,,,57,127
130479,note_on,0,0,0,,1,,,73,127
130598,note_off,119,0,0,,1,,,73,127
130598,note_off,0,0,0,,10,,,45,127
130599,note_on,1,0,0,,2,,,38,127
130599,note_on,0,0,0,,2,,,74,127
130718,note_off,119,0,0,,2,,,74,127
130719,note_on,1,0,0,,10,,,69,127
130838,note_off,119,0,0,,10,,,69,127
130839,note_on,1,0,0,,6,,,66,127
130958,note_off,119,0,0,,6,,,66,127
130959,note_on,1,0,0,,10,,,69,127
131078,note_off,119,0,0,,10,,,69,127
131079,note_on,1,0,0,,2,,,62,127
131198,note_off,119,0,0,,2,,,62,127
131199,note_on,1,0,0,,6,,,66,127
131318,note_off,119,0,0,,6,,,66,127
131319,note_on,1,0,0,,10,,,57,127
131438,note_off,119,0,0,,10,,,57,127
131439,note_on,1,0,0,,2,,,62,127
131558,note_off,119,0,0,,2,,,62,127
131559,note_on,1,0,0,,6,,,54,127
131678,note_off,119,0,0,,6,,,54,127
131679,note_on,1,0,0,,10,,,57,127
131798,note_off,119,0,0,,10,,,57,127
131799,note_on,1,0,0,,2,,,50,127
131918,note_off,119,0,0,,2,,,50,127
131919,note_on,1,0,0,,6,,,54,127
132038,note_off,119,0,0,,6,,,54,127
132038,note_off,0,0,0,,2,,,38,127
132039,note_on,1,0,0,,10,,,45,127
132158,note_off,119,0,0,,10,,,45,127
132159,note_on,1,0,0,,2,,,50,127
132278,note_off,119,0,0,,2,,,50,127
132279,note_on,1,0,0,,6,,,42,127
132398,note_off,119,0,0,,6,,,42,127
132399,note_on,1,0,0,,10,,,45,127
132518,note_off,119,0,0,,10,,,45,127
132549,note_on,31,0,0,,4,,,40,127
132608,note_off,59,0,0,,4,,,40,127
132609,note_on,1,0,0,,2,,,38,127
132668,note_off,59,0,0,,2,,,38,127
132669,note_on,1,0,0,,4,,,40,127
132728,note_off,59,0,0,,4,,,40,127
132729,note_on,1,0,0,,2,,,38,127
134467,note_off,1738,0,0,,2,,,38,127
138240,end_of_track,3773,1,0,,,,,,
