tick,type,time,meta,track,program,channel,pitch,tempo,note,velocity
0,copyright,0,1,0,,,,,,
0,program_change,0,0,0,6,0,,,,
0,pitchwheel,0,0,0,,0,0,,,
0,program_change,0,0,0,6,1,,,,
0,pitchwheel,0,0,0,,1,-590,,,
0,program_change,0,0,0,6,2,,,,
0,pitchwheel,0,0,0,,2,-272,,,
0,program_change,0,0,0,6,3,,,,
0,pitchwheel,0,0,0,,3,-353,,,
0,program_change,0,0,0,6,4,,,,
0,pitchwheel,0,0,0,,4,-560,,,
0,program_change,0,0,0,6,5,,,,
0,pitchwheel,0,0,0,,5,-80,,,
0,program_change,0,0,0,6,6,,,,
0,pitchwheel,0,0,0,,6,-625,,,
0,program_change,0,0,0,6,7,,,,
0,pitchwheel,0,0,0,,7,-130,,,
0,program_change,0,0,0,6,8,,,,
0,pitchwheel,0,0,0,,8,-512,,,
0,program_change,0,0,0,6,10,,,,
0,pitchwheel,0,0,0,,10,-464,,,
0,program_change,0,0,0,6,11,,,,
0,pitchwheel,0,0,0,,11,-208,,,
0,program_change,0,0,0,6,12,,,,
0,pitchwheel,0,0,0,,12,-553,,,
0,set_tempo,0,1,0,,,,500000,,
113,note_on,113,0,0,,4,,,76,127
225,note_off,112,0,0,,4,,,76,127
226,note_on,1,0,0,,6,,,78,127
338,note_off,112,0,0,,6,,,78,127
339,note_on,1,0,0,,8,,,80,127
451,note_off,112,0,0,,8,,,80,127
452,note_on,1,0,0,,10,,,81,127
564,note_off,112,0,0,,10,,,81,127
565,note_on,1,0,0,,10,,,81,127
677,note_off,112,0,0,,10,,,81,127
678,note_on,1,0,0,,4,,,76,127
790,note_off,112,0,0,,4,,,76,127
791,note_on,1,0,0,,4,,,76,127
903,note_off,112,0,0,,4,,,76,127
904,note_on,1,0,0,,1,,,73,127
1016,note_off,112,0,0,,1,,,73,127
1017,note_on,1,0,0,,1,,,73,127
1129,note_off,112,0,0,,1,,,73,127
1130,note_on,1,0,0,,10,,,69,127
1242,note_off,112,0,0,,10,,,69,127
1243,note_on,1,0,0,,10,,,69,127
1355,note_off,112,0,0,,10,,,69,127
1356,note_on,1,0,0,,4,,,64,127
1468,note_off,112,0,0,,4,,,64,127
1469,note_on,1,0,0,,4,,,64,127
1581,note_off,112,0,0,,4,,,64,127
1582,note_on,1,0,0,,1,,,61,127
1694,note_off,112,0,0,,1,,,61,127
1695,note_on,1,0,0,,1,,,61,127
1807,note_off,112,0,0,,1,,,61,127
1808,note_on,1,0,0,,10,,,57,127
1920,note_off,112,0,0,,10,,,57,127
1921,note_on,1,0,0,,10,,,57,127
2033,note_off,112,0,0,,10,,,57,127
2034,note_on,1,0,0,,4,,,52,127
2146,note_off,112,0,0,,4,,,52,127
2147,note_on,1,0,0,,4,,,52,127
2259,note_off,112,0,0,,4,,,52,127
2260,note_on,1,0,0,,10,,,45,127
2373,note_on,113,0,0,,1,,,49,127
2485,note_off,112,0,0,,1,,,49,127
2486,note_on,1,0,0,,4,,,52,127
2598,note_off,112,0,0,,4,,,52,127
2599,note_on,1,0,0,,10,,,57,127
2707,note_off,108,0,0,,10,,,45,127
2711,note_off,4,0,0,,10,,,57,127
2712,note_on,1,0,0,,4,,,64,127
2712,note_on,0,0,0,,1,,,61,127
2712,note_on,0,0,0,,10,,,69,127
2930,note_off,218,0,0,,1,,,61,127
2930,note_off,0,0,0,,4,,,64,127
2966,note_on,36,0,0,,4,,,76,127
2966,note_on,0,0,0,,1,,,73,127
3159,note_off,193,0,0,,10,,,69,127
3191,note_off,32,0,0,,1,,,73,127
3191,note_off,0,0,0,,4,,,76,127
3192,note_on,1,0,0,,6,,,78,127
3192,note_on,0,0,0,,2,,,74,127
3304,note_off,112,0,0,,2,,,74,127
3304,note_off,0,0,0,,6,,,78,127
3305,note_on,1,0,0,,4,,,76,127
3305,note_on,0,0,0,,1,,,73,127
3417,note_off,112,0,0,,1,,,73,127
3417,note_off,0,0,0,,4,,,76,127
3418,note_on,1,0,0,,6,,,78,127
3418,note_on,0,0,0,,2,,,74,127
3530,note_off,112,0,0,,2,,,74,127
3530,note_off,0,0,0,,6,,,78,127
3531,note_on,1,0,0,,8,,,80,127
3531,note_on,0,0,0,,12,,,71,127
3643,note_off,112,0,0,,12,,,71,127
3643,note_off,0,0,0,,8,,,80,127
3644,note_on,1,0,0,,10,,,81,127
3644,note_on,0,0,0,,1,,,73,127
3756,note_off,112,0,0,,1,,,73,127
3756,note_off,0,0,0,,10,,,81,127
3757,note_on,1,0,0,,12,,,83,127
3757,note_on,0,0,0,,12,,,71,127
3869,note_off,112,0,0,,12,,,71,127
3869,note_off,0,0,0,,12,,,83,127
3870,note_on,1,0,0,,10,,,81,127
3870,note_on,0,0,0,,1,,,73,127
3982,note_off,112,0,0,,1,,,73,127
3982,note_off,0,0,0,,10,,,81,127
3983,note_on,1,0,0,,4,,,76,127
3983,note_on,0,0,0,,10,,,69,127
4095,note_off,112,0,0,,10,,,69,127
4095,note_off,0,0,0,,4,,,76,127
4096,note_on,1,0,0,,6,,,78,127
4096,note_on,0,0,0,,2,,,74,127
4208,note_off,112,0,0,,2,,,74,127
4208,note_off,0,0,0,,6,,,78,127
4209,note_on,1,0,0,,4,,,76,127
4209,note_on,0,0,0,,1,,,73,127
4321,note_off,112,0,0,,1,,,73,127
4321,note_off,0,0,0,,4,,,76,127
4322,note_on,1,0,0,,6,,,78,127
4322,note_on,0,0,0,,2,,,74,127
4434,note_off,112,0,0,,2,,,74,127
4434,note_off,0,0,0,,6,,,78,127
4435,note_on,1,0,0,,8,,,80,127
4435,note_on,0,0,0,,12,,,71,127
4547,note_off,112,0,0,,12,,,71,127
4547,note_off,0,0,0,,8,,,80,127
4548,note_on,1,0,0,,10,,,81,127
4548,note_on,0,0,0,,1,,,73,127
4660,note_off,112,0,0,,1,,,73,127
4660,note_off,0,0,0,,10,,,81,127
4661,note_on,1,0,0,,12,,,83,127
4661,note_on,0,0,0,,12,,,71,127
4773,note_off,112,0,0,,12,,,71,127
4773,note_off,0,0,0,,12,,,83,127
4774,note_on,1,0,0,,10,,,81,127
4774,note_on,0,0,0,,1,,,73,127
4886,note_off,112,0,0,,1,,,73,127
4886,note_off,0,0,0,,10,,,81,127
4887,note_on,1,0,0,,4,,,76,127
4887,note_on,0,0,0,,10,,,69,127
4999,note_off,112,0,0,,10,,,69,127
4999,note_off,0,0,0,,4,,,76,127
5000,note_on,1,0,0,,6,,,78,127
5000,note_on,0,0,0,,2,,,74,127
5112,note_off,112,0,0,,2,,,74,127
5112,note_off,0,0,0,,6,,,78,127
5113,note_on,1,0,0,,4,,,76,127
5113,note_on,0,0,0,,1,,,73,127
5225,note_off,112,0,0,,1,,,73,127
5225,note_off,0,0,0,,4,,,76,127
5226,note_on,1,0,0,,6,,,78,127
5226,note_on,0,0,0,,2,,,74,127
5338,note_off,112,0,0,,2,,,74,127
5338,note_off,0,0,0,,6,,,78,127
5339,note_on,1,0,0,,8,,,80,127
5339,note_on,0,0,0,,12,,,71,127
5451,note_off,112,0,0,,12,,,71,127
5451,note_off,0,0,0,,8,,,80,127
5452,note_on,1,0,0,,10,,,81,127
5452,note_on,0,0,0,,1,,,73,127
5564,note_off,112,0,0,,1,,,73,127
5564,note_off,0,0,0,,10,,,81,127
5565,note_on,1,0,0,,12,,,83,127
5565,note_on,0,0,0,,12,,,71,127
5677,note_off,112,0,0,,12,,,71,127
5677,note_off,0,0,0,,12,,,83,127
5678,note_on,1,0,0,,10,,,81,127
5678,note_on,0,0,0,,1,,,73,127
5790,note_off,112,0,0,,1,,,73,127
5790,note_off,0,0,0,,10,,,81,127
5791,note_on,1,0,0,,4,,,76,127
5791,note_on,0,0,0,,10,,,69,127
5903,note_off,112,0,0,,10,,,69,127
5903,note_off,0,0,0,,4,,,76,127
5904,note_on,1,0,0,,6,,,78,127
5904,note_on,0,0,0,,2,,,74,127
6015,note_off,111,0,0,,2,,,74,127
6016,note_off,1,0,0,,6,,,78,127
6017,note_on,1,0,0,,2,,,74,127
6129,note_off,112,0,0,,2,,,74,127
6130,note_on,1,0,0,,4,,,76,127
6130,note_on,0,0,0,,1,,,73,127
6241,note_off,111,0,0,,1,,,73,127
6242,note_off,1,0,0,,4,,,76,127
6243,note_on,1,0,0,,1,,,73,127
6355,note_off,112,0,0,,1,,,73,127
6356,note_on,1,0,0,,2,,,74,127
6356,note_on,0,0,0,,12,,,71,127
6467,note_off,111,0,0,,12,,,71,127
6468,note_off,1,0,0,,2,,,74,127
6469,note_on,1,0,0,,12,,,71,127
6581,note_off,112,0,0,,12,,,71,127
6582,note_on,1,0,0,,1,,,73,127
6582,note_on,0,0,0,,10,,,69,127
6693,note_off,111,0,0,,10,,,69,127
6694,note_off,1,0,0,,1,,,73,127
6695,note_on,1,0,0,,10,,,69,127
6807,note_off,112,0,0,,10,,,69,127
6808,note_on,1,0,0,,12,,,71,127
6808,note_on,0,0,0,,8,,,68,127
6864,note_on,56,0,0,,4,,,40,127
6919,note_off,55,0,0,,4,,,40,127
6920,note_on,1,0,0,,6,,,42,127
6975,note_off,55,0,0,,6,,,42,127
6976,note_on,1,0,0,,8,,,44,127
7031,note_off,55,0,0,,8,,,44,127
7032,note_on,1,0,0,,10,,,45,127
7087,note_off,55,0,0,,10,,,45,127
7088,note_on,1,0,0,,12,,,47,127
7143,note_off,55,0,0,,12,,,47,127
7144,note_on,1,0,0,,1,,,49,127
7199,note_off,55,0,0,,1,,,49,127
7200,note_on,1,0,0,,3,,,51,127
7255,note_off,55,0,0,,3,,,51,127
7255,note_off,0,0,0,,8,,,68,127
7255,note_off,0,0,0,,12,,,71,127
7256,note_on,1,0,0,,4,,,52,127
7369,note_on,113,0,0,,6,,,54,127
7424,note_off,55,0,0,,6,,,54,127
7425,note_on,1,0,0,,8,,,56,127
7480,note_off,55,0,0,,8,,,56,127
7481,note_on,1,0,0,,10,,,57,127
7536,note_off,55,0,0,,10,,,57,127
7537,note_on,1,0,0,,12,,,59,127
7592,note_off,55,0,0,,12,,,59,127
7593,note_on,1,0,0,,1,,,61,127
7648,note_off,55,0,0,,1,,,61,127
7649,note_on,1,0,0,,3,,,63,127
7704,note_off,55,0,0,,3,,,63,127
7704,note_off,0,0,0,,4,,,52,127
7705,note_on,1,0,0,,4,,,64,127
7818,note_on,113,0,0,,6,,,54,127
7873,note_off,55,0,0,,6,,,54,127
7874,note_on,1,0,0,,8,,,56,127
7929,note_off,55,0,0,,8,,,56,127
7930,note_on,1,0,0,,10,,,57,127
7985,note_off,55,0,0,,10,,,57,127
7986,note_on,1,0,0,,12,,,59,127
8041,note_off,55,0,0,,12,,,59,127
8042,note_on,1,0,0,,1,,,61,127
8097,note_off,55,0,0,,1,,,61,127
8098,note_on,1,0,0,,3,,,63,127
8153,note_off,55,0,0,,3,,,63,127
8153,note_off,0,0,0,,4,,,64,127
8154,note_on,1,0,0,,4,,,64,127
8267,note_on,113,0,0,,6,,,66,127
8322,note_off,55,0,0,,6,,,66,127
8323,note_on,1,0,0,,8,,,68,127
8378,note_off,55,0,0,,8,,,68,127
8379,note_on,1,0,0,,10,,,69,127
8434,note_off,55,0,0,,10,,,69,127
8435,note_on,1,0,0,,12,,,71,127
8490,note_off,55,0,0,,12,,,71,127
8491,note_on,1,0,0,,1,,,73,127
8546,note_off,55,0,0,,1,,,73,127
8547,note_on,1,0,0,,3,,,75,127
8602,note_off,55,0,0,,3,,,75,127
8602,note_off,0,0,0,,4,,,64,127
8603,note_on,1,0,0,,4,,,76,127
8716,note_on,113,0,0,,6,,,66,127
8771,note_off,55,0,0,,6,,,66,127
8772,note_on,1,0,0,,8,,,68,127
8827,note_off,55,0,0,,8,,,68,127
8828,note_on,1,0,0,,10,,,69,127
8883,note_off,55,0,0,,10,,,69,127
8884,note_on,1,0,0,,12,,,71,127
8939,note_off,55,0,0,,12,,,71,127
8940,note_on,1,0,0,,1,,,73,127
8995,note_off,55,0,0,,1,,,73,127
8996,note_on,1,0,0,,3,,,75,127
9051,note_off,55,0,0,,3,,,75,127
9051,note_off,0,0,0,,4,,,76,127
9052,note_on,1,0,0,,4,,,76,127
9164,note_off,112,0,0,,4,,,76,127
9165,note_on,1,0,0,,4,,,76,127
9277,note_off,112,0,0,,4,,,76,127
9278,note_on,1,0,0,,12,,,71,127
9390,note_off,112,0,0,,12,,,71,127
9391,note_on,1,0,0,,12,,,71,127
9503,note_off,112,0,0,,12,,,71,127
9504,note_on,1,0,0,,8,,,68,127
9616,note_off,112,0,0,,8,,,68,127
9617,note_on,1,0,0,,8,,,68,127
9729,note_off,112,0,0,,8,,,68,127
9730,note_on,1,0,0,,4,,,64,127
9842,note_off,112,0,0,,4,,,64,127
9843,note_on,1,0,0,,4,,,64,127
9955,note_off,112,0,0,,4,,,64,127
9956,note_on,1,0,0,,12,,,59,127
10068,note_off,112,0,0,,12,,,59,127
10069,note_on,1,0,0,,12,,,59,127
10181,note_off,112,0,0,,12,,,59,127
10182,note_on,1,0,0,,8,,,56,127
10294,note_off,112,0,0,,8,,,56,127
10295,note_on,1,0,0,,8,,,56,127
10407,note_off,112,0,0,,8,,,56,127
10413,note_on,6,0,0,,4,,,40,127
10688,note_on,275,0,0,,4,,,64,127
10688,note_on,0,0,0,,4,,,52,127
10688,note_on,0,0,0,,12,,,59,127
10688,note_on,0,0,0,,8,,,56,127
10860,note_off,172,0,0,,4,,,40,127
11065,note_off,205,0,0,,8,,,56,127
11065,note_off,0,0,0,,12,,,59,127
11065,note_off,0,0,0,,4,,,52,127
11065,note_off,0,0,0,,4,,,64,127
11539,note_on,474,0,0,,7,,,79,127
12283,note_off,744,0,0,,7,,,79,127
12338,note_on,55,0,0,,0,,,72,127
12338,note_on,0,0,0,,7,,,79,127
12338,note_on,0,0,0,,10,,,81,127
12338,note_on,0,0,0,,10,,,69,127
12450,note_off,112,0,0,,10,,,81,127
12450,note_off,0,0,0,,7,,,79,127
12451,note_on,1,0,0,,6,,,78,127
12563,note_off,112,0,0,,6,,,78,127
12563,note_off,0,0,0,,10,,,69,127
12563,note_off,0,0,0,,0,,,72,127
12564,note_on,1,0,0,,10,,,69,127
12564,note_on,0,0,0,,0,,,72,127
12564,note_on,0,0,0,,6,,,78,127
12676,note_off,112,0,0,,6,,,78,127
12677,note_on,1,0,0,,7,,,79,127
12789,note_off,112,0,0,,7,,,79,127
12789,note_off,0,0,0,,0,,,72,127
12789,note_off,0,0,0,,10,,,69,127
12790,note_on,1,0,0,,0,,,72,127
12790,note_on,0,0,0,,10,,,69,127
12790,note_on,0,0,0,,7,,,79,127
12902,note_off,112,0,0,,7,,,79,127
12903,note_on,1,0,0,,6,,,78,127
13015,note_off,112,0,0,,6,,,78,127
13015,note_off,0,0,0,,10,,,69,127
13015,note_off,0,0,0,,0,,,72,127
13016,note_on,1,0,0,,0,,,72,127
13016,note_on,0,0,0,,10,,,69,127
13016,note_on,0,0,0,,6,,,78,127
13128,note_off,112,0,0,,6,,,78,127
13129,note_on,1,0,0,,7,,,79,127
13241,note_off,112,0,0,,7,,,79,127
13241,note_off,0,0,0,,10,,,69,127
13241,note_off,0,0,0,,0,,,72,127
13242,note_on,1,0,0,,12,,,71,127
13242,note_on,0,0,0,,7,,,67,127
13242,note_on,0,0,0,,6,,,78,127
13242,note_on,0,0,0,,7,,,79,127
13354,note_off,112,0,0,,7,,,79,127
13354,note_off,0,0,0,,6,,,78,127
13355,note_on,1,0,0,,4,,,76,127
13467,note_off,112,0,0,,4,,,76,127
13467,note_off,0,0,0,,7,,,67,127
13467,note_off,0,0,0,,12,,,71,127
13468,note_on,1,0,0,,7,,,67,127
13468,note_on,0,0,0,,12,,,71,127
13468,note_on,0,0,0,,3,,,75,127
13580,note_off,112,0,0,,3,,,75,127
13581,note_on,1,0,0,,4,,,76,127
13693,note_off,112,0,0,,4,,,76,127
13693,note_off,0,0,0,,12,,,71,127
13693,note_off,0,0,0,,7,,,67,127
13694,note_on,1,0,0,,7,,,67,127
13694,note_on,0,0,0,,12,,,71,127
13694,note_on,0,0,0,,3,,,75,127
13806,note_off,112,0,0,,3,,,75,127
13807,note_on,1,0,0,,4,,,76,127
13919,note_off,112,0,0,,4,,,76,127
13919,note_off,0,0,0,,12,,,71,127
13919,note_off,0,0,0,,7,,,67,127
13920,note_on,1,0,0,,7,,,67,127
13920,note_on,0,0,0,,12,,,71,127
13920,note_on,0,0,0,,3,,,75,127
14032,note_off,112,0,0,,3,,,75,127
14033,note_on,1,0,0,,4,,,76,127
14145,note_off,112,0,0,,4,,,76,127
14145,note_off,0,0,0,,12,,,71,127
14145,note_off,0,0,0,,7,,,67,127
14146,note_on,1,0,0,,7,,,67,127
14146,note_on,0,0,0,,12,,,71,127
14146,note_on,0,0,0,,6,,,78,127
14146,note_on,0,0,0,,7,,,79,127
14258,note_off,112,0,0,,7,,,79,127
14258,note_off,0,0,0,,6,,,78,127
14259,note_on,1,0,0,,4,,,76,127
14371,note_off,112,0,0,,4,,,76,127
14371,note_off,0,0,0,,12,,,71,127
14371,note_off,0,0,0,,7,,,67,127
14372,note_on,1,0,0,,7,,,67,127
14372,note_on,0,0,0,,12,,,71,127
14372,note_on,0,0,0,,4,,,76,127
14484,note_off,112,0,0,,4,,,76,127
14485,note_on,1,0,0,,6,,,78,127
14597,note_off,112,0,0,,6,,,78,127
14597,note_off,0,0,0,,12,,,71,127
14597,note_off,0,0,0,,7,,,67,127
14598,note_on,1,0,0,,7,,,67,127
14598,note_on,0,0,0,,12,,,71,127
14598,note_on,0,0,0,,6,,,78,127
14710,note_off,112,0,0,,6,,,78,127
14711,note_on,1,0,0,,4,,,76,127
14823,note_off,112,0,0,,4,,,76,127
14823,note_off,0,0,0,,12,,,71,127
14823,note_off,0,0,0,,7,,,67,127
14824,note_on,1,0,0,,7,,,67,127
14824,note_on,0,0,0,,12,,,71,127
14824,note_on,0,0,0,,4,,,76,127
14936,note_off,112,0,0,,4,,,76,127
14937,note_on,1,0,0,,6,,,78,127
15049,note_off,112,0,0,,6,,,78,127
15049,note_off,0,0,0,,12,,,71,127
15049,note_off,0,0,0,,7,,,67,127
15050,note_on,1,0,0,,10,,,69,127
15050,note_on,0,0,0,,6,,,66,127
15050,note_on,0,0,0,,6,,,78,127
15050,note_on,0,0,0,,4,,,76,127
15162,note_off,112,0,0,,4,,,76,127
15162,note_off,0,0,0,,6,,,78,127
15163,note_on,1,0,0,,2,,,74,127
15275,note_off,112,0,0,,2,,,74,127
15275,note_off,0,0,0,,6,,,66,127
15275,note_off,0,0,0,,10,,,69,127
15276,note_on,1,0,0,,6,,,66,127
15276,note_on,0,0,0,,10,,,69,127
15276,note_on,0,0,0,,1,,,73,127
15388,note_off,112,0,0,,1,,,73,127
15389,note_on,1,0,0,,2,,,74,127
15501,note_off,112,0,0,,2,,,74,127
15501,note_off,0,0,0,,10,,,69,127
15501,note_off,0,0,0,,6,,,66,127
15502,note_on,1,0,0,,6,,,66,127
15502,note_on,0,0,0,,10,,,69,127
15502,note_on,0,0,0,,1,,,73,127
15614,note_off,112,0,0,,1,,,73,127
15615,note_on,1,0,0,,2,,,74,127
15727,note_off,112,0,0,,2,,,74,127
15727,note_off,0,0,0,,10,,,69,127
15727,note_off,0,0,0,,6,,,66,127
15728,note_on,1,0,0,,6,,,66,127
15728,note_on,0,0,0,,10,,,69,127
15728,note_on,0,0,0,,1,,,73,127
15840,note_off,112,0,0,,1,,,73,127
15841,note_on,1,0,0,,2,,,74,127
15953,note_off,112,0,0,,2,,,74,127
15953,note_off,0,0,0,,10,,,69,127
15953,note_off,0,0,0,,6,,,66,127
15954,note_on,1,0,0,,10,,,69,127
15954,note_on,0,0,0,,6,,,66,127
15954,note_on,0,0,0,,4,,,76,127
15954,note_on,0,0,0,,6,,,78,127
16066,note_off,112,0,0,,6,,,78,127
16066,note_off,0,0,0,,4,,,76,127
16067,note_on,1,0,0,,2,,,74,127
16179,note_off,112,0,0,,2,,,74,127
16179,note_off,0,0,0,,6,,,66,127
16179,note_off,0,0,0,,10,,,69,127
16180,note_on,1,0,0,,6,,,66,127
16180,note_on,0,0,0,,10,,,69,127
16180,note_on,0,0,0,,2,,,74,127
16292,note_off,112,0,0,,2,,,74,127
16293,note_on,1,0,0,,4,,,76,127
16405,note_off,112,0,0,,4,,,76,127
16405,note_off,0,0,0,,10,,,69,127
16405,note_off,0,0,0,,6,,,66,127
16406,note_on,1,0,0,,10,,,69,127
16406,note_on,0,0,0,,6,,,66,127
16406,note_on,0,0,0,,4,,,76,127
16518,note_off,112,0,0,,4,,,76,127
16519,note_on,1,0,0,,2,,,74,127
16631,note_off,112,0,0,,2,,,74,127
16631,note_off,0,0,0,,6,,,66,127
16631,note_off,0,0,0,,10,,,69,127
16632,note_on,1,0,0,,10,,,69,127
16632,note_on,0,0,0,,6,,,66,127
16632,note_on,0,0,0,,2,,,74,127
16744,note_off,112,0,0,,2,,,74,127
16745,note_on,1,0,0,,4,,,76,127
16857,note_off,112,0,0,,4,,,76,127
16857,note_off,0,0,0,,6,,,66,127
16857,note_off,0,0,0,,10,,,69,127
16858,note_on,1,0,0,,7,,,67,127
16858,note_on,0,0,0,,4,,,64,127
16858,note_on,0,0,0,,2,,,74,127
16858,note_on,0,0,0,,4,,,76,127
16970,note_off,112,0,0,,4,,,76,127
16970,note_off,0,0,0,,2,,,74,127
16971,note_on,1,0,0,,0,,,72,127
17083,note_off,112,0,0,,0,,,72,127
17083,note_off,0,0,0,,4,,,64,127
17083,note_off,0,0,0,,7,,,67,127
17084,note_on,1,0,0,,7,,,67,127
17084,note_on,0,0,0,,4,,,64,127
17084,note_on,0,0,0,,12,,,71,127
17196,note_off,112,0,0,,12,,,71,127
17197,note_on,1,0,0,,0,,,72,127
17309,note_off,112,0,0,,0,,,72,127
17309,note_off,0,0,0,,4,,,64,127
17309,note_off,0,0,0,,7,,,67,127
17310,note_on,1,0,0,,7,,,67,127
17310,note_on,0,0,0,,4,,,64,127
17310,note_on,0,0,0,,12,,,71,127
17422,note_off,112,0,0,,12,,,71,127
17423,note_on,1,0,0,,0,,,72,127
17535,note_off,112,0,0,,0,,,72,127
17535,note_off,0,0,0,,4,,,64,127
17535,note_off,0,0,0,,7,,,67,127
17536,note_on,1,0,0,,7,,,67,127
17536,note_on,0,0,0,,4,,,64,127
17536,note_on,0,0,0,,12,,,71,127
17648,note_off,112,0,0,,12,,,71,127
17649,note_on,1,0,0,,0,,,72,127
17761,note_off,112,0,0,,0,,,72,127
17761,note_off,0,0,0,,4,,,64,127
17761,note_off,0,0,0,,7,,,67,127
17762,note_on,1,0,0,,7,,,67,127
17762,note_on,0,0,0,,4,,,64,127
17762,note_on,0,0,0,,2,,,74,127
17762,note_on,0,0,0,,4,,,76,127
17874,note_off,112,0,0,,4,,,76,127
17874,note_off,0,0,0,,2,,,74,127
17875,note_on,1,0,0,,0,,,72,127
17987,note_off,112,0,0,,0,,,72,127
17987,note_off,0,0,0,,4,,,64,127
17987,note_off,0,0,0,,7,,,67,127
17988,note_on,1,0,0,,7,,,67,127
17988,note_on,0,0,0,,4,,,64,127
17988,note_on,0,0,0,,0,,,72,127
18100,note_off,112,0,0,,0,,,72,127
18101,note_on,1,0,0,,2,,,74,127
18213,note_off,112,0,0,,2,,,74,127
18213,note_off,0,0,0,,4,,,64,127
18213,note_off,0,0,0,,7,,,67,127
18214,note_on,1,0,0,,7,,,67,127
18214,note_on,0,0,0,,4,,,64,127
18214,note_on,0,0,0,,2,,,74,127
18326,note_off,112,0,0,,2,,,74,127
18327,note_on,1,0,0,,0,,,72,127
18439,note_off,112,0,0,,0,,,72,127
18439,note_off,0,0,0,,4,,,64,127
18439,note_off,0,0,0,,7,,,67,127
18440,note_on,1,0,0,,7,,,67,127
18440,note_on,0,0,0,,4,,,64,127
18440,note_on,0,0,0,,0,,,72,127
18552,note_off,112,0,0,,0,,,72,127
18553,note_on,1,0,0,,2,,,74,127
18665,note_off,112,0,0,,2,,,74,127
18665,note_off,0,0,0,,4,,,64,127
18665,note_off,0,0,0,,7,,,67,127
18666,note_on,1,0,0,,2,,,62,127
18666,note_on,0,0,0,,6,,,66,127
18666,note_on,0,0,0,,1,,,73,127
18666,note_on,0,0,0,,2,,,74,127
18778,note_off,112,0,0,,2,,,74,127
18778,note_off,0,0,0,,1,,,73,127
18779,note_on,1,0,0,,12,,,71,127
18891,note_off,112,0,0,,12,,,71,127
18891,note_off,0,0,0,,6,,,66,127
18891,note_off,0,0,0,,2,,,62,127
18892,note_on,1,0,0,,6,,,66,127
18892,note_on,0,0,0,,2,,,62,127
18892,note_on,0,0,0,,11,,,70,127
19004,note_off,112,0,0,,11,,,70,127
19005,note_on,1,0,0,,12,,,71,127
19117,note_off,112,0,0,,12,,,71,127
19117,note_off,0,0,0,,2,,,62,127
19117,note_off,0,0,0,,6,,,66,127
19118,note_on,1,0,0,,6,,,66,127
19118,note_on,0,0,0,,2,,,62,127
19118,note_on,0,0,0,,11,,,70,127
19230,note_off,112,0,0,,11,,,70,127
19231,note_on,1,0,0,,12,,,71,127
19343,note_off,112,0,0,,12,,,71,127
19343,note_off,0,0,0,,2,,,62,127
19343,note_off,0,0,0,,6,,,66,127
19344,note_on,1,0,0,,6,,,66,127
19344,note_on,0,0,0,,2,,,62,127
19344,note_on,0,0,0,,11,,,70,127
19456,note_off,112,0,0,,11,,,70,127
19457,note_on,1,0,0,,12,,,71,127
19569,note_off,112,0,0,,12,,,71,127
19569,note_off,0,0,0,,2,,,62,127
19569,note_off,0,0,0,,6,,,66,127
19575,note_on,6,0,0,,11,,,70,127
19575,note_on,0,0,0,,4,,,64,127
19575,note_on,0,0,0,,1,,,61,127
19575,note_on,0,0,0,,7,,,67,127
19687,note_off,112,0,0,,11,,,70,127
19688,note_on,1,0,0,,12,,,71,127
19800,note_off,112,0,0,,12,,,71,127
19800,note_off,0,0,0,,7,,,67,127
19800,note_off,0,0,0,,1,,,61,127
19800,note_off,0,0,0,,4,,,64,127
19801,note_on,1,0,0,,1,,,73,127
19801,note_on,0,0,0,,1,,,61,127
19801,note_on,0,0,0,,4,,,64,127
19801,note_on,0,0,0,,7,,,67,127
19913,note_off,112,0,0,,1,,,73,127
19914,note_on,1,0,0,,2,,,74,127
20026,note_off,112,0,0,,2,,,74,127
20026,note_off,0,0,0,,7,,,67,127
20026,note_off,0,0,0,,4,,,64,127
20026,note_off,0,0,0,,1,,,61,127
20027,note_on,1,0,0,,4,,,76,127
20027,note_on,0,0,0,,7,,,67,127
20027,note_on,0,0,0,,1,,,61,127
20027,note_on,0,0,0,,4,,,64,127
20139,note_off,112,0,0,,4,,,76,127
20140,note_on,1,0,0,,6,,,78,127
20252,note_off,112,0,0,,6,,,78,127
20252,note_off,0,0,0,,4,,,64,127
20252,note_off,0,0,0,,1,,,61,127
20252,note_off,0,0,0,,7,,,67,127
20253,note_on,1,0,0,,7,,,79,127
20253,note_on,0,0,0,,4,,,64,127
20253,note_on,0,0,0,,7,,,67,127
20253,note_on,0,0,0,,1,,,61,127
20365,note_off,112,0,0,,7,,,79,127
20366,note_on,1,0,0,,10,,,81,127
20478,note_off,112,0,0,,10,,,81,127
20478,note_off,0,0,0,,1,,,61,127
20478,note_off,0,0,0,,7,,,67,127
20478,note_off,0,0,0,,4,,,64,127
20479,note_on,1,0,0,,7,,,79,127
20479,note_on,0,0,0,,7,,,67,127
20479,note_on,0,0,0,,4,,,64,127
20479,note_on,0,0,0,,12,,,59,127
20591,note_off,112,0,0,,7,,,79,127
20592,note_on,1,0,0,,6,,,78,127
20704,note_off,112,0,0,,6,,,78,127
20704,note_off,0,0,0,,12,,,59,127
20704,note_off,0,0,0,,4,,,64,127
20704,note_off,0,0,0,,7,,,67,127
20705,note_on,1,0,0,,4,,,76,127
20705,note_on,0,0,0,,4,,,64,127
20705,note_on,0,0,0,,7,,,67,127
20705,note_on,0,0,0,,12,,,59,127
20817,note_off,112,0,0,,4,,,76,127
20818,note_on,1,0,0,,2,,,74,127
20930,note_off,112,0,0,,2,,,74,127
20930,note_off,0,0,0,,12,,,59,127
20930,note_off,0,0,0,,7,,,67,127
20930,note_off,0,0,0,,4,,,64,127
20931,note_on,1,0,0,,4,,,76,127
20931,note_on,0,0,0,,4,,,64,127
20931,note_on,0,0,0,,1,,,61,127
20931,note_on,0,0,0,,11,,,58,127
21043,note_off,112,0,0,,4,,,76,127
21044,note_on,1,0,0,,2,,,74,127
21156,note_off,112,0,0,,2,,,74,127
21156,note_off,0,0,0,,11,,,58,127
21156,note_off,0,0,0,,1,,,61,127
21156,note_off,0,0,0,,4,,,64,127
21157,note_on,1,0,0,,1,,,73,127
21157,note_on,0,0,0,,12,,,59,127
21157,note_on,0,0,0,,7,,,55,127
21157,note_on,0,0,0,,4,,,64,127
21269,note_off,112,0,0,,1,,,73,127
21270,note_on,1,0,0,,12,,,71,127
21382,note_off,112,0,0,,12,,,71,127
21382,note_off,0,0,0,,4,,,64,127
21382,note_off,0,0,0,,7,,,55,127
21382,note_off,0,0,0,,12,,,59,127
21383,note_on,1,0,0,,1,,,73,127
21383,note_on,0,0,0,,11,,,70,127
21383,note_on,0,0,0,,12,,,59,127
21383,note_on,0,0,0,,4,,,64,127
21383,note_on,0,0,0,,1,,,61,127
21383,note_on,0,0,0,,6,,,54,127
21495,note_off,112,0,0,,11,,,70,127
21495,note_off,0,0,0,,1,,,73,127
21496,note_on,1,0,0,,12,,,71,127
21496,note_on,0,0,0,,2,,,74,127
21608,note_off,112,0,0,,2,,,74,127
21608,note_off,0,0,0,,12,,,71,127
21608,note_off,0,0,0,,6,,,54,127
21608,note_off,0,0,0,,1,,,61,127
21608,note_off,0,0,0,,4,,,64,127
21608,note_off,0,0,0,,12,,,59,127
21609,note_on,1,0,0,,11,,,70,127
21609,note_on,0,0,0,,1,,,73,127
21609,note_on,0,0,0,,4,,,64,127
21609,note_on,0,0,0,,12,,,59,127
21609,note_on,0,0,0,,6,,,54,127
21609,note_on,0,0,0,,1,,,61,127
21721,note_off,112,0,0,,1,,,73,127
21721,note_off,0,0,0,,11,,,70,127
21722,note_on,1,0,0,,12,,,71,127
21722,note_on,0,0,0,,2,,,74,127
21834,note_off,112,0,0,,2,,,74,127
21834,note_off,0,0,0,,12,,,71,127
21834,note_off,0,0,0,,1,,,61,127
21834,note_off,0,0,0,,6,,,54,127
21834,note_off,0,0,0,,12,,,59,127
21834,note_off,0,0,0,,4,,,64,127
21835,note_on,1,0,0,,1,,,73,127
21835,note_on,0,0,0,,4,,,76,127
21835,note_on,0,0,0,,4,,,52,127
21835,note_on,0,0,0,,4,,,64,127
21835,note_on,0,0,0,,12,,,59,127
21947,note_off,112,0,0,,4,,,76,127
21947,note_off,0,0,0,,1,,,73,127
21948,note_on,1,0,0,,2,,,74,127
21948,note_on,0,0,0,,6,,,78,127
22060,note_off,112,0,0,,6,,,78,127
22060,note_off,0,0,0,,2,,,74,127
22060,note_off,0,0,0,,12,,,59,127
22060,note_off,0,0,0,,4,,,64,127
22060,note_off,0,0,0,,4,,,52,127
22061,note_on,1,0,0,,4,,,76,127
22061,note_on,0,0,0,,1,,,73,127
22061,note_on,0,0,0,,4,,,52,127
22061,note_on,0,0,0,,4,,,64,127
22061,note_on,0,0,0,,12,,,59,127
22173,note_off,112,0,0,,1,,,73,127
22173,note_off,0,0,0,,4,,,76,127
22174,note_on,1,0,0,,12,,,71,127
22174,note_on,0,0,0,,2,,,74,127
22286,note_off,112,0,0,,2,,,74,127
22286,note_off,0,0,0,,12,,,71,127
22286,note_off,0,0,0,,12,,,59,127
22286,note_off,0,0,0,,4,,,64,127
22286,note_off,0,0,0,,4,,,52,127
22287,note_on,1,0,0,,1,,,73,127
22287,note_on,0,0,0,,11,,,70,127
22287,note_on,0,0,0,,1,,,61,127
22287,note_on,0,0,0,,6,,,54,127
22287,note_on,0,0,0,,12,,,59,127
22287,note_on,0,0,0,,4,,,64,127
22399,note_off,112,0,0,,11,,,70,127
22399,note_off,0,0,0,,1,,,73,127
22400,note_on,1,0,0,,12,,,71,127
22400,note_on,0,0,0,,2,,,74,127
22512,note_off,112,0,0,,2,,,74,127
22512,note_off,0,0,0,,12,,,71,127
22512,note_off,0,0,0,,4,,,64,127
22512,note_off,0,0,0,,12,,,59,127
22512,note_off,0,0,0,,6,,,54,127
22512,note_off,0,0,0,,1,,,61,127
22513,note_on,1,0,0,,1,,,73,127
22513,note_on,0,0,0,,11,,,70,127
22513,note_on,0,0,0,,12,,,59,127
22513,note_on,0,0,0,,1,,,61,127
22513,note_on,0,0,0,,4,,,64,127
22513,note_on,0,0,0,,6,,,54,127
22625,note_off,112,0,0,,11,,,70,127
22625,note_off,0,0,0,,1,,,73,127
22626,note_on,1,0,0,,12,,,71,127
22626,note_on,0,0,0,,2,,,74,127
22738,note_off,112,0,0,,2,,,74,127
22738,note_off,0,0,0,,12,,,71,127
22738,note_off,0,0,0,,6,,,54,127
22738,note_off,0,0,0,,4,,,64,127
22738,note_off,0,0,0,,1,,,61,127
22738,note_off,0,0,0,,12,,,59,127
22739,note_on,1,0,0,,4,,,76,127
22739,note_on,0,0,0,,1,,,73,127
22739,note_on,0,0,0,,12,,,59,127
22739,note_on,0,0,0,,4,,,52,127
22739,note_on,0,0,0,,4,,,64,127
22851,note_off,112,0,0,,1,,,73,127
22851,note_off,0,0,0,,4,,,76,127
22852,note_on,1,0,0,,6,,,78,127
22852,note_on,0,0,0,,2,,,74,127
22964,note_off,112,0,0,,2,,,74,127
22964,note_off,0,0,0,,6,,,78,127
22964,note_off,0,0,0,,4,,,64,127
22964,note_off,0,0,0,,4,,,52,127
22964,note_off,0,0,0,,12,,,59,127
22965,note_on,1,0,0,,4,,,76,127
22965,note_on,0,0,0,,1,,,73,127
22965,note_on,0,0,0,,12,,,59,127
22965,note_on,0,0,0,,4,,,64,127
22965,note_on,0,0,0,,4,,,52,127
23077,note_off,112,0,0,,1,,,73,127
23077,note_off,0,0,0,,4,,,76,127
23078,note_on,1,0,0,,2,,,74,127
23078,note_on,0,0,0,,12,,,71,127
23190,note_off,112,0,0,,12,,,71,127
23190,note_off,0,0,0,,2,,,74,127
23190,note_off,0,0,0,,4,,,52,127
23190,note_off,0,0,0,,4,,,64,127
23190,note_off,0,0,0,,12,,,59,127
23191,note_on,1,0,0,,1,,,73,127
23191,note_on,0,0,0,,11,,,70,127
23191,note_on,0,0,0,,12,,,59,127
23191,note_on,0,0,0,,1,,,61,127
23191,note_on,0,0,0,,4,,,64,127
23191,note_on,0,0,0,,6,,,54,127
23303,note_off,112,0,0,,11,,,70,127
23303,note_off,0,0,0,,1,,,73,127
23304,note_on,1,0,0,,2,,,74,127
23304,note_on,0,0,0,,12,,,71,127
23416,note_off,112,0,0,,12,,,71,127
23416,note_off,0,0,0,,2,,,74,127
23416,note_off,0,0,0,,6,,,54,127
23416,note_off,0,0,0,,4,,,64,127
23416,note_off,0,0,0,,1,,,61,127
23416,note_off,0,0,0,,12,,,59,127
23417,note_on,1,0,0,,1,,,73,127
23417,note_on,0,0,0,,11,,,70,127
23417,note_on,0,0,0,,4,,,64,127
23417,note_on,0,0,0,,12,,,59,127
23417,note_on,0,0,0,,1,,,61,127
23417,note_on,0,0,0,,6,,,54,127
23529,note_off,112,0,0,,11,,,70,127
23529,note_off,0,0,0,,1,,,73,127
23530,note_on,1,0,0,,12,,,71,127
23530,note_on,0,0,0,,2,,,74,127
23642,note_off,112,0,0,,2,,,74,127
23642,note_off,0,0,0,,12,,,71,127
23642,note_off,0,0,0,,6,,,54,127
23642,note_off,0,0,0,,1,,,61,127
23642,note_off,0,0,0,,12,,,59,127
23642,note_off,0,0,0,,4,,,64,127
23643,note_on,1,0,0,,1,,,73,127
23643,note_on,0,0,0,,4,,,76,127
23643,note_on,0,0,0,,12,,,59,127
23643,note_on,0,0,0,,4,,,64,127
23643,note_on,0,0,0,,4,,,52,127
23755,note_off,112,0,0,,4,,,76,127
23755,note_off,0,0,0,,1,,,73,127
23756,note_on,1,0,0,,2,,,74,127
23756,note_on,0,0,0,,6,,,78,127
23868,note_off,112,0,0,,6,,,78,127
23868,note_off,0,0,0,,2,,,74,127
23868,note_off,0,0,0,,4,,,52,127
23868,note_off,0,0,0,,4,,,64,127
23868,note_off,0,0,0,,12,,,59,127
23869,note_on,1,0,0,,4,,,76,127
23869,note_on,0,0,0,,1,,,73,127
23869,note_on,0,0,0,,12,,,59,127
23869,note_on,0,0,0,,4,,,64,127
23869,note_on,0,0,0,,4,,,52,127
23981,note_off,112,0,0,,1,,,73,127
23981,note_off,0,0,0,,4,,,76,127
23982,note_on,1,0,0,,12,,,71,127
23982,note_on,0,0,0,,2,,,74,127
24094,note_off,112,0,0,,2,,,74,127
24094,note_off,0,0,0,,12,,,71,127
24094,note_off,0,0,0,,4,,,52,127
24094,note_off,0,0,0,,4,,,64,127
24094,note_off,0,0,0,,12,,,59,127
24095,note_on,1,0,0,,12,,,71,127
24095,note_on,0,0,0,,2,,,74,127
24095,note_on,0,0,0,,6,,,42,127
24320,note_off,225,0,0,,2,,,74,127
24320,note_off,0,0,0,,12,,,71,127
24321,note_on,1,0,0,,1,,,73,127
24321,note_on,0,0,0,,11,,,70,127
24546,note_off,225,0,0,,6,,,42,127
24547,note_on,1,0,0,,6,,,54,127
24772,note_off,225,0,0,,11,,,70,127
24772,note_off,0,0,0,,1,,,73,127
24804,note_on,32,0,0,,6,,,66,127
24806,note_off,2,0,0,,6,,,54,127
24915,note_off,109,0,0,,6,,,66,127
24916,note_on,1,0,0,,6,,,66,127
25028,note_off,112,0,0,,6,,,66,127
25029,note_on,1,0,0,,11,,,70,127
25141,note_off,112,0,0,,11,,,70,127
25142,note_on,1,0,0,,11,,,70,127
25254,note_off,112,0,0,,11,,,70,127
25255,note_on,1,0,0,,1,,,73,127
25367,note_off,112,0,0,,1,,,73,127
25368,note_on,1,0,0,,1,,,73,127
25480,note_off,112,0,0,,1,,,73,127
25481,note_on,1,0,0,,4,,,76,127
25593,note_off,112,0,0,,4,,,76,127
25594,note_on,1,0,0,,4,,,76,127
25706,note_off,112,0,0,,4,,,76,127
25707,note_on,1,0,0,,6,,,78,127
25819,note_off,112,0,0,,6,,,78,127
25820,note_on,1,0,0,,2,,,74,127
25932,note_off,112,0,0,,2,,,74,127
25933,note_on,1,0,0,,4,,,76,127
25933,note_on,0,0,0,,7,,,79,127
26046,note_on,113,0,0,,4,,,40,127
26158,note_off,112,0,0,,4,,,40,127
26159,note_on,1,0,0,,7,,,43,127
26271,note_off,112,0,0,,7,,,43,127
26272,note_on,1,0,0,,12,,,47,127
26384,note_off,112,0,0,,12,,,47,127
26384,note_off,0,0,0,,7,,,79,127
26384,note_off,0,0,0,,4,,,76,127
26385,note_on,1,0,0,,4,,,52,127
26385,note_on,0,0,0,,12,,,59,127
26385,note_on,0,0,0,,7,,,55,127
26610,note_off,225,0,0,,7,,,55,127
26610,note_off,0,0,0,,12,,,59,127
26610,note_off,0,0,0,,4,,,52,127
26617,note_on,7,0,0,,4,,,64,127
26729,note_off,112,0,0,,4,,,64,127
26730,note_on,1,0,0,,4,,,64,127
26842,note_off,112,0,0,,4,,,64,127
26843,note_on,1,0,0,,7,,,67,127
26955,note_off,112,0,0,,7,,,67,127
26956,note_on,1,0,0,,7,,,67,127
27068,note_off,112,0,0,,7,,,67,127
27069,note_on,1,0,0,,11,,,70,127
27181,note_off,112,0,0,,11,,,70,127
27182,note_on,1,0,0,,11,,,70,127
27294,note_off,112,0,0,,11,,,70,127
27295,note_on,1,0,0,,1,,,73,127
27407,note_off,112,0,0,,1,,,73,127
27408,note_on,1,0,0,,1,,,73,127
27520,note_off,112,0,0,,1,,,73,127
27521,note_on,1,0,0,,4,,,76,127
27633,note_off,112,0,0,,4,,,76,127
27634,note_on,1,0,0,,2,,,74,127
27746,note_off,112,0,0,,2,,,74,127
27747,note_on,1,0,0,,6,,,78,127
27747,note_on,0,0,0,,2,,,74,127
27860,note_on,113,0,0,,2,,,38,127
27972,note_off,112,0,0,,2,,,38,127
27973,note_on,1,0,0,,6,,,42,127
28085,note_off,112,0,0,,6,,,42,127
28086,note_on,1,0,0,,12,,,47,127
28198,note_off,112,0,0,,12,,,47,127
28198,note_off,0,0,0,,2,,,74,127
28198,note_off,0,0,0,,6,,,78,127
28199,note_on,1,0,0,,6,,,54,127
28199,note_on,0,0,0,,12,,,59,127
28199,note_on,0,0,0,,2,,,50,127
28424,note_off,225,0,0,,2,,,50,127
28424,note_off,0,0,0,,12,,,59,127
28424,note_off,0,0,0,,6,,,54,127
28425,note_on,1,0,0,,2,,,62,127
28537,note_off,112,0,0,,2,,,62,127
28538,note_on,1,0,0,,2,,,62,127
28650,note_off,112,0,0,,2,,,62,127
28651,note_on,1,0,0,,6,,,66,127
28763,note_off,112,0,0,,6,,,66,127
28764,note_on,1,0,0,,6,,,66,127
28876,note_off,112,0,0,,6,,,66,127
28877,note_on,1,0,0,,12,,,71,127
28989,note_off,112,0,0,,12,,,71,127
28990,note_on,1,0,0,,12,,,71,127
29102,note_off,112,0,0,,12,,,71,127
29103,note_on,1,0,0,,2,,,74,127
29215,note_off,112,0,0,,2,,,74,127
29216,note_on,1,0,0,,2,,,74,127
29328,note_off,112,0,0,,2,,,74,127
29329,note_on,1,0,0,,6,,,78,127
29441,note_off,112,0,0,,6,,,78,127
29442,note_on,1,0,0,,1,,,73,127
29554,note_off,112,0,0,,1,,,73,127
29555,note_on,1,0,0,,1,,,73,127
29555,note_on,0,0,0,,4,,,76,127
29668,note_on,113,0,0,,1,,,37,127
29780,note_off,112,0,0,,1,,,37,127
29781,note_on,1,0,0,,4,,,40,127
29893,note_off,112,0,0,,4,,,40,127
29894,note_on,1,0,0,,7,,,43,127
30006,note_off,112,0,0,,7,,,43,127
30006,note_off,0,0,0,,4,,,76,127
30006,note_off,0,0,0,,1,,,73,127
30007,note_on,1,0,0,,7,,,55,127
30007,note_on,0,0,0,,4,,,52,127
30007,note_on,0,0,0,,1,,,49,127
30232,note_off,225,0,0,,1,,,49,127
30232,note_off,0,0,0,,4,,,52,127
30232,note_off,0,0,0,,7,,,55,127
30233,note_on,1,0,0,,1,,,61,127
30345,note_off,112,0,0,,1,,,61,127
30346,note_on,1,0,0,,1,,,61,127
30458,note_off,112,0,0,,1,,,61,127
30459,note_on,1,0,0,,4,,,64,127
30571,note_off,112,0,0,,4,,,64,127
30572,note_on,1,0,0,,4,,,64,127
30684,note_off,112,0,0,,4,,,64,127
30685,note_on,1,0,0,,7,,,67,127
30797,note_off,112,0,0,,7,,,67,127
30798,note_on,1,0,0,,7,,,67,127
30910,note_off,112,0,0,,7,,,67,127
30911,note_on,1,0,0,,11,,,70,127
30911,note_on,0,0,0,,1,,,73,127
31023,note_off,112,0,0,,11,,,70,127
31024,note_on,1,0,0,,11,,,70,127
31135,note_off,111,0,0,,1,,,73,127
31136,note_off,1,0,0,,11,,,70,127
31137,note_on,1,0,0,,4,,,76,127
31137,note_on,0,0,0,,1,,,73,127
31249,note_off,112,0,0,,1,,,73,127
31250,note_on,1,0,0,,1,,,73,127
31361,note_off,111,0,0,,4,,,76,127
31362,note_off,1,0,0,,1,,,73,127
31363,note_on,1,0,0,,2,,,74,127
31363,note_on,0,0,0,,12,,,71,127
31476,note_on,113,0,0,,12,,,35,127
31588,note_off,112,0,0,,12,,,35,127
31588,note_off,0,0,0,,12,,,71,127
31588,note_off,0,0,0,,2,,,74,127
31589,note_on,1,0,0,,2,,,38,127
31701,note_off,112,0,0,,2,,,38,127
31702,note_on,1,0,0,,6,,,42,127
31814,note_off,112,0,0,,6,,,42,127
31815,note_on,1,0,0,,12,,,47,127
31927,note_off,112,0,0,,12,,,47,127
31928,note_on,1,0,0,,2,,,50,127
32040,note_off,112,0,0,,2,,,50,127
32041,note_on,1,0,0,,6,,,54,127
32153,note_off,112,0,0,,6,,,54,127
32154,note_on,1,0,0,,12,,,59,127
32266,note_off,112,0,0,,12,,,59,127
32267,note_on,1,0,0,,2,,,62,127
32379,note_off,112,0,0,,2,,,62,127
32380,note_on,1,0,0,,6,,,66,127
32492,note_off,112,0,0,,6,,,66,127
32493,note_on,1,0,0,,12,,,71,127
32605,note_off,112,0,0,,12,,,71,127
32606,note_on,1,0,0,,2,,,74,127
32718,note_off,112,0,0,,2,,,74,127
32719,note_on,1,0,0,,12,,,83,127
32831,note_off,112,0,0,,12,,,83,127
32832,note_on,1,0,0,,10,,,81,127
32944,note_off,112,0,0,,10,,,81,127
32945,note_on,1,0,0,,7,,,79,127
32945,note_on,0,0,0,,12,,,47,127
33057,note_off,112,0,0,,7,,,79,127
33058,note_on,1,0,0,,6,,,78,127
33170,note_off,112,0,0,,6,,,78,127
33170,note_off,0,0,0,,12,,,47,127
33171,note_on,1,0,0,,7,,,79,127
33171,note_on,0,0,0,,4,,,64,127
33171,note_on,0,0,0,,4,,,52,127
33283,note_off,112,0,0,,7,,,79,127
33284,note_on,1,0,0,,6,,,78,127
33396,note_off,112,0,0,,6,,,78,127
33396,note_off,0,0,0,,4,,,52,127
33397,note_on,1,0,0,,4,,,76,127
33397,note_on,0,0,0,,6,,,54,127
33509,note_off,112,0,0,,4,,,76,127
33510,note_on,1,0,0,,2,,,74,127
33622,note_off,112,0,0,,2,,,74,127
33622,note_off,0,0,0,,6,,,54,127
33623,note_on,1,0,0,,4,,,76,127
33623,note_on,0,0,0,,7,,,55,127
33735,note_off,112,0,0,,4,,,76,127
33736,note_on,1,0,0,,2,,,74,127
33848,note_off,112,0,0,,2,,,74,127
33848,note_off,0,0,0,,7,,,55,127
33849,note_on,1,0,0,,1,,,73,127
33849,note_on,0,0,0,,4,,,52,127
33961,note_off,112,0,0,,1,,,73,127
33962,note_on,1,0,0,,12,,,71,127
34074,note_off,112,0,0,,12,,,71,127
34074,note_off,0,0,0,,4,,,52,127
34074,note_off,0,0,0,,4,,,64,127
34075,note_on,1,0,0,,11,,,70,127
34075,note_on,0,0,0,,6,,,54,127
34187,note_off,112,0,0,,11,,,70,127
34188,note_on,1,0,0,,12,,,71,127
34300,note_off,112,0,0,,12,,,71,127
34301,note_on,1,0,0,,1,,,73,127
34301,note_on,0,0,0,,6,,,66,127
34413,note_off,112,0,0,,1,,,73,127
34414,note_on,1,0,0,,2,,,74,127
34522,note_off,108,0,0,,6,,,54,127
34526,note_off,4,0,0,,2,,,74,127
34527,note_on,1,0,0,,4,,,76,127
34639,note_off,112,0,0,,4,,,76,127
34640,note_on,1,0,0,,6,,,78,127
34752,note_off,112,0,0,,6,,,78,127
34752,note_off,0,0,0,,6,,,66,127
34753,note_on,1,0,0,,7,,,79,127
34753,note_on,0,0,0,,4,,,64,127
34865,note_off,112,0,0,,7,,,79,127
34866,note_on,1,0,0,,4,,,76,127
34978,note_off,112,0,0,,4,,,76,127
34978,note_off,0,0,0,,4,,,64,127
34979,note_on,1,0,0,,6,,,78,127
34979,note_on,0,0,0,,2,,,62,127
35091,note_off,112,0,0,,6,,,78,127
35092,note_on,1,0,0,,2,,,74,127
35204,note_off,112,0,0,,2,,,74,127
35204,note_off,0,0,0,,2,,,62,127
35205,note_on,1,0,0,,4,,,76,127
35205,note_on,0,0,0,,4,,,64,127
35317,note_off,112,0,0,,4,,,76,127
35318,note_on,1,0,0,,1,,,73,127
35430,note_off,112,0,0,,1,,,73,127
35430,note_off,0,0,0,,4,,,64,127
35431,note_on,1,0,0,,2,,,74,127
35431,note_on,0,0,0,,6,,,66,127
35543,note_off,112,0,0,,2,,,74,127
35544,note_on,1,0,0,,12,,,71,127
35656,note_off,112,0,0,,12,,,71,127
35664,note_on,8,0,0,,1,,,73,127
35664,note_on,0,0,0,,6,,,54,127
35770,note_off,106,0,0,,6,,,66,127
35776,note_off,6,0,0,,1,,,73,127
35780,note_on,4,0,0,,11,,,70,127
35889,note_off,109,0,0,,6,,,54,127
35908,note_off,19,0,0,,11,,,70,127
35926,note_on,18,0,0,,12,,,47,127
35926,note_on,0,0,0,,3,,,63,127
35926,note_on,0,0,0,,6,,,66,127
36038,note_off,112,0,0,,3,,,63,127
36039,note_on,1,0,0,,12,,,59,127
36095,note_off,56,0,0,,6,,,66,127
36150,note_off,55,0,0,,12,,,59,127
36151,note_on,1,0,0,,4,,,64,127
36151,note_on,0,0,0,,8,,,68,127
36263,note_off,112,0,0,,4,,,64,127
36264,note_on,1,0,0,,12,,,59,127
36320,note_off,56,0,0,,8,,,68,127
36375,note_off,55,0,0,,12,,,59,127
36376,note_on,1,0,0,,3,,,63,127
36376,note_on,0,0,0,,6,,,66,127
36488,note_off,112,0,0,,3,,,63,127
36489,note_on,1,0,0,,12,,,59,127
36545,note_off,56,0,0,,6,,,66,127
36600,note_off,55,0,0,,12,,,59,127
36600,note_off,0,0,0,,12,,,47,127
36601,note_on,1,0,0,,12,,,83,127
36601,note_on,0,0,0,,8,,,68,127
36601,note_on,0,0,0,,4,,,64,127
36713,note_off,112,0,0,,4,,,64,127
36714,note_on,1,0,0,,12,,,59,127
36770,note_off,56,0,0,,8,,,68,127
36825,note_off,55,0,0,,12,,,59,127
36825,note_off,0,0,0,,12,,,83,127
36826,note_on,1,0,0,,12,,,47,127
36826,note_on,0,0,0,,3,,,63,127
36826,note_on,0,0,0,,6,,,66,127
36938,note_off,112,0,0,,3,,,63,127
36939,note_on,1,0,0,,12,,,59,127
36995,note_off,56,0,0,,6,,,66,127
37050,note_off,55,0,0,,12,,,59,127
37051,note_on,1,0,0,,4,,,64,127
37051,note_on,0,0,0,,8,,,68,127
37163,note_off,112,0,0,,4,,,64,127
37164,note_on,1,0,0,,12,,,59,127
37220,note_off,56,0,0,,8,,,68,127
37275,note_off,55,0,0,,12,,,59,127
37276,note_on,1,0,0,,6,,,66,127
37276,note_on,0,0,0,,3,,,63,127
37388,note_off,112,0,0,,3,,,63,127
37389,note_on,1,0,0,,12,,,59,127
37445,note_off,56,0,0,,6,,,66,127
37500,note_off,55,0,0,,12,,,59,127
37500,note_off,0,0,0,,12,,,47,127
37501,note_on,1,0,0,,12,,,83,127
37501,note_on,0,0,0,,8,,,68,127
37501,note_on,0,0,0,,4,,,64,127
37613,note_off,112,0,0,,4,,,64,127
37614,note_on,1,0,0,,12,,,59,127
37670,note_off,56,0,0,,8,,,68,127
37725,note_off,55,0,0,,12,,,59,127
37725,note_off,0,0,0,,12,,,83,127
37726,note_on,1,0,0,,12,,,47,127
37726,note_on,0,0,0,,6,,,66,127
37726,note_on,0,0,0,,3,,,63,127
37838,note_off,112,0,0,,3,,,63,127
37839,note_on,1,0,0,,12,,,59,127
37895,note_off,56,0,0,,6,,,66,127
37950,note_off,55,0,0,,12,,,59,127
37950,note_off,0,0,0,,12,,,47,127
37951,note_on,1,0,0,,12,,,83,127
37951,note_on,0,0,0,,4,,,64,127
37951,note_on,0,0,0,,8,,,68,127
38063,note_off,112,0,0,,4,,,64,127
38064,note_on,1,0,0,,12,,,59,127
38120,note_off,56,0,0,,8,,,68,127
38175,note_off,55,0,0,,12,,,59,127
38175,note_off,0,0,0,,12,,,83,127
38176,note_on,1,0,0,,12,,,47,127
38176,note_on,0,0,0,,6,,,66,127
38176,note_on,0,0,0,,3,,,63,127
38288,note_off,112,0,0,,3,,,63,127
38289,note_on,1,0,0,,12,,,59,127
38345,note_off,56,0,0,,6,,,66,127
38400,note_off,55,0,0,,12,,,59,127
38400,note_off,0,0,0,,12,,,47,127
38401,note_on,1,0,0,,12,,,83,127
38401,note_on,0,0,0,,4,,,64,127
38401,note_on,0,0,0,,8,,,68,127
38513,note_off,112,0,0,,4,,,64,127
38514,note_on,1,0,0,,12,,,59,127
38570,note_off,56,0,0,,8,,,68,127
38625,note_off,55,0,0,,12,,,59,127
38625,note_off,0,0,0,,12,,,83,127
38626,note_on,1,0,0,,12,,,47,127
38626,note_on,0,0,0,,3,,,63,127
38626,note_on,0,0,0,,6,,,66,127
38738,note_off,112,0,0,,3,,,63,127
38739,note_on,1,0,0,,12,,,59,127
38795,note_off,56,0,0,,6,,,66,127
38850,note_off,55,0,0,,12,,,59,127
38851,note_on,1,0,0,,8,,,68,127
38851,note_on,0,0,0,,4,,,64,127
38963,note_off,112,0,0,,4,,,64,127
38964,note_on,1,0,0,,12,,,59,127
39020,note_off,56,0,0,,8,,,68,127
39075,note_off,55,0,0,,12,,,59,127
39076,note_on,1,0,0,,10,,,69,127
39076,note_on,0,0,0,,6,,,66,127
39188,note_off,112,0,0,,6,,,66,127
39189,note_on,1,0,0,,12,,,59,127
39245,note_off,56,0,0,,10,,,69,127
39300,note_off,55,0,0,,12,,,59,127
39300,note_off,0,0,0,,12,,,47,127
39301,note_on,1,0,0,,12,,,47,127
39301,note_on,0,0,0,,3,,,63,127
39301,note_on,0,0,0,,6,,,66,127
39413,note_off,112,0,0,,3,,,63,127
39414,note_on,1,0,0,,12,,,59,127
39470,note_off,56,0,0,,6,,,66,127
39525,note_off,55,0,0,,12,,,59,127
39525,note_off,0,0,0,,12,,,47,127
39526,note_on,1,0,0,,4,,,52,127
39526,note_on,0,0,0,,4,,,64,127
39526,note_on,0,0,0,,8,,,68,127
39638,note_off,112,0,0,,4,,,64,127
39639,note_on,1,0,0,,12,,,59,127
39695,note_off,56,0,0,,8,,,68,127
39750,note_off,55,0,0,,12,,,59,127
39750,note_off,0,0,0,,4,,,52,127
39751,note_on,1,0,0,,10,,,45,127
39751,note_on,0,0,0,,10,,,69,127
39751,note_on,0,0,0,,6,,,66,127
39863,note_off,112,0,0,,6,,,66,127
39864,note_on,1,0,0,,12,,,59,127
39920,note_off,56,0,0,,10,,,69,127
39975,note_off,55,0,0,,12,,,59,127
39975,note_off,0,0,0,,10,,,45,127
39976,note_on,1,0,0,,12,,,47,127
39976,note_on,0,0,0,,8,,,68,127
39976,note_on,0,0,0,,4,,,64,127
40088,note_off,112,0,0,,4,,,64,127
40089,note_on,1,0,0,,12,,,59,127
40145,note_off,56,0,0,,8,,,68,127
40200,note_off,55,0,0,,12,,,59,127
40200,note_off,0,0,0,,12,,,47,127
40201,note_on,1,0,0,,12,,,47,127
40201,note_on,0,0,0,,6,,,66,127
40201,note_on,0,0,0,,3,,,63,127
40313,note_off,112,0,0,,3,,,63,127
40314,note_on,1,0,0,,12,,,59,127
40370,note_off,56,0,0,,6,,,66,127
40425,note_off,55,0,0,,12,,,59,127
40425,note_off,0,0,0,,12,,,47,127
40443,note_on,18,0,0,,12,,,71,127
40443,note_on,0,0,0,,8,,,68,127
40443,note_on,0,0,0,,4,,,40,127
40555,note_off,112,0,0,,8,,,68,127
40556,note_on,1,0,0,,4,,,64,127
40612,note_off,56,0,0,,12,,,71,127
40667,note_off,55,0,0,,4,,,64,127
40668,note_on,1,0,0,,10,,,69,127
40668,note_on,0,0,0,,1,,,73,127
40780,note_off,112,0,0,,10,,,69,127
40781,note_on,1,0,0,,4,,,64,127
40837,note_off,56,0,0,,1,,,73,127
40892,note_off,55,0,0,,4,,,64,127
40893,note_on,1,0,0,,12,,,71,127
40893,note_on,0,0,0,,8,,,68,127
41005,note_off,112,0,0,,8,,,68,127
41006,note_on,1,0,0,,4,,,64,127
41062,note_off,56,0,0,,12,,,71,127
41117,note_off,55,0,0,,4,,,64,127
41117,note_off,0,0,0,,4,,,40,127
41118,note_on,1,0,0,,10,,,69,127
41118,note_on,0,0,0,,1,,,73,127
41118,note_on,0,0,0,,4,,,76,127
41230,note_off,112,0,0,,10,,,69,127
41231,note_on,1,0,0,,4,,,64,127
41287,note_off,56,0,0,,1,,,73,127
41342,note_off,55,0,0,,4,,,64,127
41342,note_off,0,0,0,,4,,,76,127
41343,note_on,1,0,0,,12,,,71,127
41343,note_on,0,0,0,,8,,,68,127
41343,note_on,0,0,0,,4,,,40,127
41455,note_off,112,0,0,,8,,,68,127
41456,note_on,1,0,0,,4,,,64,127
41512,note_off,56,0,0,,12,,,71,127
41567,note_off,55,0,0,,4,,,64,127
41568,note_on,1,0,0,,1,,,73,127
41568,note_on,0,0,0,,10,,,69,127
41680,note_off,112,0,0,,10,,,69,127
41681,note_on,1,0,0,,4,,,64,127
41737,note_off,56,0,0,,1,,,73,127
41792,note_off,55,0,0,,4,,,64,127
41793,note_on,1,0,0,,8,,,68,127
41793,note_on,0,0,0,,12,,,71,127
41905,note_off,112,0,0,,8,,,68,127
41906,note_on,1,0,0,,4,,,64,127
41962,note_off,56,0,0,,12,,,71,127
42017,note_off,55,0,0,,4,,,64,127
42017,note_off,0,0,0,,4,,,40,127
42018,note_on,1,0,0,,1,,,73,127
42018,note_on,0,0,0,,10,,,69,127
42018,note_on,0,0,0,,4,,,76,127
42130,note_off,112,0,0,,10,,,69,127
42131,note_on,1,0,0,,4,,,64,127
42187,note_off,56,0,0,,1,,,73,127
42242,note_off,55,0,0,,4,,,64,127
42242,note_off,0,0,0,,4,,,76,127
42243,note_on,1,0,0,,8,,,68,127
42243,note_on,0,0,0,,12,,,71,127
42243,note_on,0,0,0,,4,,,40,127
42355,note_off,112,0,0,,8,,,68,127
42356,note_on,1,0,0,,4,,,64,127
42412,note_off,56,0,0,,12,,,71,127
42467,note_off,55,0,0,,4,,,64,127
42467,note_off,0,0,0,,4,,,40,127
42468,note_on,1,0,0,,10,,,69,127
42468,note_on,0,0,0,,1,,,73,127
42468,note_on,0,0,0,,4,,,76,127
42580,note_off,112,0,0,,10,,,69,127
42581,note_on,1,0,0,,4,,,64,127
42637,note_off,56,0,0,,1,,,73,127
42692,note_off,55,0,0,,4,,,64,127
42692,note_off,0,0,0,,4,,,76,127
42693,note_on,1,0,0,,12,,,71,127
42693,note_on,0,0,0,,8,,,68,127
42693,note_on,0,0,0,,4,,,40,127
42805,note_off,112,0,0,,8,,,68,127
42806,note_on,1,0,0,,4,,,64,127
42862,note_off,56,0,0,,12,,,71,127
42917,note_off,55,0,0,,4,,,64,127
42917,note_off,0,0,0,,4,,,40,127
42918,note_on,1,0,0,,10,,,69,127
42918,note_on,0,0,0,,1,,,73,127
42918,note_on,0,0,0,,4,,,76,127
43030,note_off,112,0,0,,10,,,69,127
43031,note_on,1,0,0,,4,,,64,127
43087,note_off,56,0,0,,1,,,73,127
43142,note_off,55,0,0,,4,,,64,127
43142,note_off,0,0,0,,4,,,76,127
43143,note_on,1,0,0,,8,,,68,127
43143,note_on,0,0,0,,12,,,71,127
43143,note_on,0,0,0,,4,,,40,127
43255,note_off,112,0,0,,8,,,68,127
43256,note_on,1,0,0,,4,,,64,127
43368,note_off,112,0,0,,4,,,64,127
43368,note_off,0,0,0,,12,,,71,127
43369,note_on,1,0,0,,8,,,68,127
43481,note_off,112,0,0,,8,,,68,127
43482,note_on,1,0,0,,12,,,71,127
43594,note_off,112,0,0,,12,,,71,127
43595,note_on,1,0,0,,4,,,76,127
43707,note_off,112,0,0,,4,,,76,127
43708,note_on,1,0,0,,1,,,73,127
43820,note_off,112,0,0,,1,,,73,127
43820,note_off,0,0,0,,4,,,40,127
43821,note_on,1,0,0,,3,,,75,127
43821,note_on,0,0,0,,4,,,52,127
43933,note_off,112,0,0,,3,,,75,127
43934,note_on,1,0,0,,12,,,71,127
44046,note_off,112,0,0,,12,,,71,127
44046,note_off,0,0,0,,4,,,52,127
44047,note_on,1,0,0,,1,,,73,127
44047,note_on,0,0,0,,10,,,69,127
44158,note_off,111,0,0,,10,,,69,127
44159,note_off,1,0,0,,1,,,73,127
44160,note_on,1,0,0,,10,,,69,127
44272,note_off,112,0,0,,10,,,69,127
44273,note_on,1,0,0,,12,,,71,127
44273,note_on,0,0,0,,8,,,68,127
44384,note_off,111,0,0,,8,,,68,127
44385,note_off,1,0,0,,12,,,71,127
44386,note_on,1,0,0,,8,,,68,127
44498,note_off,112,0,0,,8,,,68,127
44499,note_on,1,0,0,,10,,,69,127
44499,note_on,0,0,0,,6,,,66,127
44610,note_off,111,0,0,,6,,,66,127
44611,note_off,1,0,0,,10,,,69,127
44612,note_on,1,0,0,,6,,,66,127
44724,note_off,112,0,0,,6,,,66,127
44725,note_on,1,0,0,,8,,,68,127
44725,note_on,0,0,0,,4,,,64,127
44836,note_off,111,0,0,,4,,,64,127
44837,note_off,1,0,0,,8,,,68,127
44838,note_on,1,0,0,,4,,,64,127
44950,note_off,112,0,0,,4,,,64,127
44951,note_on,1,0,0,,6,,,66,127
45064,note_on,113,0,0,,12,,,47,127
45176,note_off,112,0,0,,12,,,47,127
45177,note_on,1,0,0,,3,,,51,127
45289,note_off,112,0,0,,3,,,51,127
45290,note_on,1,0,0,,6,,,54,127
45402,note_off,112,0,0,,6,,,54,127
45402,note_off,0,0,0,,6,,,66,127
45403,note_on,1,0,0,,12,,,59,127
45667,note_on,264,0,0,,6,,,78,127
45703,note_off,36,0,0,,12,,,59,127
45891,note_off,188,0,0,,6,,,78,127
45892,note_on,1,0,0,,7,,,79,127
45892,note_on,0,0,0,,4,,,76,127
45947,note_off,55,0,0,,7,,,79,127
45948,note_on,1,0,0,,10,,,81,127
46003,note_off,55,0,0,,10,,,81,127
46004,note_on,1,0,0,,12,,,83,127
46116,note_off,112,0,0,,12,,,83,127
46116,note_off,0,0,0,,4,,,76,127
46117,note_on,1,0,0,,10,,,81,127
46117,note_on,0,0,0,,4,,,76,127
46342,note_off,225,0,0,,4,,,76,127
46343,note_on,1,0,0,,4,,,76,127
46568,note_off,225,0,0,,4,,,76,127
46568,note_off,0,0,0,,10,,,81,127
46569,note_on,1,0,0,,7,,,79,127
46569,note_on,0,0,0,,4,,,76,127
46794,note_off,225,0,0,,4,,,76,127
46794,note_off,0,0,0,,7,,,79,127
46795,note_on,1,0,0,,7,,,79,127
46795,note_on,0,0,0,,2,,,74,127
46850,note_off,55,0,0,,7,,,79,127
46851,note_on,1,0,0,,6,,,78,127
46906,note_off,55,0,0,,6,,,78,127
46907,note_on,1,0,0,,4,,,76,127
47019,note_off,112,0,0,,4,,,76,127
47019,note_off,0,0,0,,2,,,74,127
47020,note_on,1,0,0,,4,,,76,127
47020,note_on,0,0,0,,2,,,74,127
47245,note_off,225,0,0,,2,,,74,127
47246,note_on,1,0,0,,2,,,74,127
47471,note_off,225,0,0,,2,,,74,127
47471,note_off,0,0,0,,4,,,76,127
47472,note_on,1,0,0,,6,,,78,127
47472,note_on,0,0,0,,2,,,74,127
47697,note_off,225,0,0,,2,,,74,127
47697,note_off,0,0,0,,6,,,78,127
47698,note_on,1,0,0,,6,,,78,127
47698,note_on,0,0,0,,2,,,74,127
47698,note_on,0,0,0,,12,,,71,127
47753,note_off,55,0,0,,6,,,78,127
47754,note_on,1,0,0,,7,,,79,127
47809,note_off,55,0,0,,7,,,79,127
47810,note_on,1,0,0,,10,,,81,127
47922,note_off,112,0,0,,10,,,81,127
47922,note_off,0,0,0,,12,,,71,127
47922,note_off,0,0,0,,2,,,74,127
47923,note_on,1,0,0,,7,,,79,127
47923,note_on,0,0,0,,12,,,71,127
47923,note_on,0,0,0,,2,,,74,127
48148,note_off,225,0,0,,2,,,74,127
48148,note_off,0,0,0,,12,,,71,127
48149,note_on,1,0,0,,12,,,71,127
48149,note_on,0,0,0,,2,,,74,127
48374,note_off,225,0,0,,2,,,74,127
48374,note_off,0,0,0,,12,,,71,127
48374,note_off,0,0,0,,7,,,79,127
48375,note_on,1,0,0,,6,,,78,127
48375,note_on,0,0,0,,2,,,74,127
48375,note_on,0,0,0,,12,,,71,127
48600,note_off,225,0,0,,12,,,71,127
48600,note_off,0,0,0,,2,,,74,127
48600,note_off,0,0,0,,6,,,78,127
48601,note_on,1,0,0,,6,,,78,127
48601,note_on,0,0,0,,12,,,71,127
48601,note_on,0,0,0,,0,,,72,127
48656,note_off,55,0,0,,6,,,78,127
48657,note_on,1,0,0,,4,,,76,127
48712,note_off,55,0,0,,4,,,76,127
48713,note_on,1,0,0,,3,,,75,127
48825,note_off,112,0,0,,3,,,75,127
48825,note_off,0,0,0,,0,,,72,127
48825,note_off,0,0,0,,12,,,71,127
48826,note_on,1,0,0,,3,,,75,127
48826,note_on,0,0,0,,0,,,72,127
48826,note_on,0,0,0,,12,,,71,127
49051,note_off,225,0,0,,12,,,71,127
49051,note_off,0,0,0,,0,,,72,127
49052,note_on,1,0,0,,0,,,72,127
49052,note_on,0,0,0,,12,,,71,127
49277,note_off,225,0,0,,12,,,71,127
49277,note_off,0,0,0,,0,,,72,127
49277,note_off,0,0,0,,3,,,75,127
49278,note_on,1,0,0,,4,,,76,127
49278,note_on,0,0,0,,12,,,71,127
49278,note_on,0,0,0,,0,,,72,127
49503,note_off,225,0,0,,0,,,72,127
49503,note_off,0,0,0,,12,,,71,127
49503,note_off,0,0,0,,4,,,76,127
49504,note_on,1,0,0,,4,,,76,127
49504,note_on,0,0,0,,10,,,69,127
49504,note_on,0,0,0,,0,,,72,127
49559,note_off,55,0,0,,4,,,76,127
49560,note_on,1,0,0,,6,,,78,127
49615,note_off,55,0,0,,6,,,78,127
49616,note_on,1,0,0,,7,,,79,127
49728,note_off,112,0,0,,7,,,79,127
49728,note_off,0,0,0,,0,,,72,127
49728,note_off,0,0,0,,10,,,69,127
49729,note_on,1,0,0,,6,,,78,127
49729,note_on,0,0,0,,10,,,69,127
49729,note_on,0,0,0,,0,,,72,127
49954,note_off,225,0,0,,0,,,72,127
49954,note_off,0,0,0,,10,,,69,127
49955,note_on,1,0,0,,0,,,72,127
49955,note_on,0,0,0,,10,,,69,127
50180,note_off,225,0,0,,10,,,69,127
50180,note_off,0,0,0,,0,,,72,127
50180,note_off,0,0,0,,6,,,78,127
50181,note_on,1,0,0,,4,,,76,127
50181,note_on,0,0,0,,10,,,69,127
50181,note_on,0,0,0,,0,,,72,127
50406,note_off,225,0,0,,0,,,72,127
50406,note_off,0,0,0,,10,,,69,127
50406,note_off,0,0,0,,4,,,76,127
50407,note_on,1,0,0,,4,,,76,127
50407,note_on,0,0,0,,10,,,69,127
50407,note_on,0,0,0,,12,,,71,127
50462,note_off,55,0,0,,4,,,76,127
50463,note_on,1,0,0,,3,,,75,127
50518,note_off,55,0,0,,3,,,75,127
50519,note_on,1,0,0,,4,,,76,127
50574,note_off,55,0,0,,4,,,76,127
50575,note_on,1,0,0,,3,,,75,127
50630,note_off,55,0,0,,3,,,75,127
50630,note_off,0,0,0,,12,,,71,127
50630,note_off,0,0,0,,10,,,69,127
50631,note_on,1,0,0,,4,,,76,127
50631,note_on,0,0,0,,12,,,71,127
50631,note_on,0,0,0,,10,,,69,127
50686,note_off,55,0,0,,4,,,76,127
50687,note_on,1,0,0,,3,,,75,127
50742,note_off,55,0,0,,3,,,75,127
50743,note_on,1,0,0,,4,,,76,127
50798,note_off,55,0,0,,4,,,76,127
50799,note_on,1,0,0,,3,,,75,127
50854,note_off,55,0,0,,10,,,69,127
50854,note_off,0,0,0,,12,,,71,127
50855,note_on,1,0,0,,7,,,67,127
50855,note_on,0,0,0,,12,,,71,127
51080,note_off,225,0,0,,12,,,71,127
51080,note_off,0,0,0,,7,,,67,127
51080,note_off,0,0,0,,3,,,75,127
51081,note_on,1,0,0,,4,,,76,127
51081,note_on,0,0,0,,7,,,67,127
51081,note_on,0,0,0,,12,,,71,127
51306,note_off,225,0,0,,12,,,71,127
51306,note_off,0,0,0,,7,,,67,127
51306,note_off,0,0,0,,4,,,76,127
51307,note_on,1,0,0,,6,,,78,127
51307,note_on,0,0,0,,3,,,75,127
51307,note_on,0,0,0,,6,,,66,127
51307,note_on,0,0,0,,10,,,69,127
51362,note_off,55,0,0,,6,,,78,127
51363,note_on,1,0,0,,7,,,79,127
51418,note_off,55,0,0,,7,,,79,127
51419,note_on,1,0,0,,10,,,81,127
51531,note_off,112,0,0,,10,,,69,127
51531,note_off,0,0,0,,6,,,66,127
51531,note_off,0,0,0,,3,,,75,127
51532,note_on,1,0,0,,10,,,69,127
51532,note_on,0,0,0,,3,,,75,127
51532,note_on,0,0,0,,6,,,66,127
51757,note_off,225,0,0,,6,,,66,127
51757,note_off,0,0,0,,3,,,75,127
51757,note_off,0,0,0,,10,,,69,127
51757,note_off,0,0,0,,10,,,81,127
51758,note_on,1,0,0,,10,,,81,127
51758,note_on,0,0,0,,7,,,79,127
51758,note_on,0,0,0,,12,,,71,127
51758,note_on,0,0,0,,4,,,76,127
51758,note_on,0,0,0,,4,,,64,127
51813,note_off,55,0,0,,7,,,79,127
51813,note_off,0,0,0,,10,,,81,127
51814,note_on,1,0,0,,6,,,78,127
51869,note_off,55,0,0,,6,,,78,127
51870,note_on,1,0,0,,7,,,79,127
51982,note_off,112,0,0,,4,,,64,127
51982,note_off,0,0,0,,4,,,76,127
51982,note_off,0,0,0,,12,,,71,127
51983,note_on,1,0,0,,4,,,76,127
51983,note_on,0,0,0,,4,,,64,127
51983,note_on,0,0,0,,12,,,71,127
52208,note_off,225,0,0,,12,,,71,127
52208,note_off,0,0,0,,4,,,64,127
52208,note_off,0,0,0,,4,,,76,127
52208,note_off,0,0,0,,7,,,79,127
52209,note_on,1,0,0,,6,,,78,127
52209,note_on,0,0,0,,10,,,69,127
52209,note_on,0,0,0,,4,,,64,127
52209,note_on,0,0,0,,6,,,66,127
52209,note_on,0,0,0,,12,,,59,127
52321,note_off,112,0,0,,6,,,78,127
52322,note_on,1,0,0,,4,,,76,127
52434,note_off,112,0,0,,4,,,76,127
52434,note_off,0,0,0,,12,,,59,127
52434,note_off,0,0,0,,6,,,66,127
52434,note_off,0,0,0,,4,,,64,127
52434,note_off,0,0,0,,10,,,69,127
52435,note_on,1,0,0,,3,,,75,127
52435,note_on,0,0,0,,4,,,64,127
52435,note_on,0,0,0,,6,,,66,127
52435,note_on,0,0,0,,10,,,69,127
52435,note_on,0,0,0,,12,,,59,127
52660,note_off,225,0,0,,12,,,59,127
52660,note_off,0,0,0,,10,,,69,127
52660,note_off,0,0,0,,6,,,66,127
52660,note_off,0,0,0,,4,,,64,127
52661,note_on,1,0,0,,12,,,71,127
52661,note_on,0,0,0,,4,,,64,127
52661,note_on,0,0,0,,7,,,67,127
52661,note_on,0,0,0,,12,,,59,127
52886,note_off,225,0,0,,12,,,59,127
52886,note_off,0,0,0,,7,,,67,127
52886,note_off,0,0,0,,4,,,64,127
52886,note_off,0,0,0,,3,,,75,127
52887,note_on,1,0,0,,4,,,76,127
52887,note_on,0,0,0,,12,,,59,127
52887,note_on,0,0,0,,4,,,64,127
52887,note_on,0,0,0,,7,,,67,127
53112,note_off,225,0,0,,7,,,67,127
53112,note_off,0,0,0,,4,,,64,127
53112,note_off,0,0,0,,12,,,59,127
53112,note_off,0,0,0,,4,,,76,127
53112,note_off,0,0,0,,12,,,71,127
53113,note_on,1,0,0,,12,,,71,127
53113,note_on,0,0,0,,6,,,78,127
53113,note_on,0,0,0,,6,,,66,127
53113,note_on,0,0,0,,10,,,69,127
53113,note_on,0,0,0,,12,,,59,127
53113,note_on,0,0,0,,3,,,63,127
53168,note_off,55,0,0,,6,,,78,127
53169,note_on,1,0,0,,7,,,79,127
53224,note_off,55,0,0,,7,,,79,127
53225,note_on,1,0,0,,10,,,81,127
53337,note_off,112,0,0,,3,,,63,127
53337,note_off,0,0,0,,12,,,59,127
53337,note_off,0,0,0,,10,,,69,127
53337,note_off,0,0,0,,6,,,66,127
53338,note_on,1,0,0,,12,,,59,127
53338,note_on,0,0,0,,10,,,69,127
53338,note_on,0,0,0,,6,,,66,127
53338,note_on,0,0,0,,3,,,63,127
53563,note_off,225,0,0,,3,,,63,127
53563,note_off,0,0,0,,6,,,66,127
53563,note_off,0,0,0,,10,,,69,127
53563,note_off,0,0,0,,12,,,59,127
53563,note_off,0,0,0,,10,,,81,127
53563,note_off,0,0,0,,12,,,71,127
53564,note_on,1,0,0,,12,,,71,127
53564,note_on,0,0,0,,7,,,79,127
53564,note_on,0,0,0,,10,,,81,127
53564,note_on,0,0,0,,12,,,59,127
53564,note_on,0,0,0,,7,,,67,127
53564,note_on,0,0,0,,4,,,64,127
53619,note_off,55,0,0,,10,,,81,127
53619,note_off,0,0,0,,7,,,79,127
53620,note_on,1,0,0,,6,,,78,127
53675,note_off,55,0,0,,6,,,78,127
53676,note_on,1,0,0,,7,,,79,127
53788,note_off,112,0,0,,4,,,64,127
53788,note_off,0,0,0,,7,,,67,127
53788,note_off,0,0,0,,12,,,59,127
53789,note_on,1,0,0,,12,,,59,127
53789,note_on,0,0,0,,7,,,67,127
53789,note_on,0,0,0,,4,,,64,127
54014,note_off,225,0,0,,4,,,64,127
54014,note_off,0,0,0,,7,,,67,127
54014,note_off,0,0,0,,12,,,59,127
54014,note_off,0,0,0,,7,,,79,127
54014,note_off,0,0,0,,12,,,71,127
54015,note_on,1,0,0,,0,,,72,127
54015,note_on,0,0,0,,6,,,78,127
54015,note_on,0,0,0,,10,,,69,127
54015,note_on,0,0,0,,4,,,64,127
54015,note_on,0,0,0,,6,,,66,127
54015,note_on,0,0,0,,12,,,59,127
54127,note_off,112,0,0,,6,,,78,127
54128,note_on,1,0,0,,4,,,76,127
54240,note_off,112,0,0,,4,,,76,127
54240,note_off,0,0,0,,12,,,59,127
54240,note_off,0,0,0,,6,,,66,127
54240,note_off,0,0,0,,4,,,64,127
54240,note_off,0,0,0,,10,,,69,127
54241,note_on,1,0,0,,3,,,75,127
54241,note_on,0,0,0,,10,,,69,127
54241,note_on,0,0,0,,12,,,59,127
54241,note_on,0,0,0,,4,,,64,127
54241,note_on,0,0,0,,6,,,66,127
54466,note_off,225,0,0,,6,,,66,127
54466,note_off,0,0,0,,4,,,64,127
54466,note_off,0,0,0,,12,,,59,127
54466,note_off,0,0,0,,10,,,69,127
54466,note_off,0,0,0,,0,,,72,127
54467,note_on,1,0,0,,12,,,71,127
54467,note_on,0,0,0,,12,,,59,127
54467,note_on,0,0,0,,4,,,64,127
54467,note_on,0,0,0,,7,,,67,127
54692,note_off,225,0,0,,7,,,67,127
54692,note_off,0,0,0,,4,,,64,127
54692,note_off,0,0,0,,12,,,59,127
54692,note_off,0,0,0,,3,,,75,127
54693,note_on,1,0,0,,4,,,76,127
54693,note_on,0,0,0,,12,,,59,127
54693,note_on,0,0,0,,7,,,67,127
54693,note_on,0,0,0,,4,,,64,127
54918,note_off,225,0,0,,4,,,64,127
54918,note_off,0,0,0,,7,,,67,127
54918,note_off,0,0,0,,12,,,59,127
54918,note_off,0,0,0,,4,,,76,127
54918,note_off,0,0,0,,12,,,71,127
54919,note_on,1,0,0,,12,,,71,127
54919,note_on,0,0,0,,6,,,78,127
54919,note_on,0,0,0,,12,,,59,127
54919,note_on,0,0,0,,3,,,63,127
54919,note_on,0,0,0,,6,,,66,127
54919,note_on,0,0,0,,10,,,69,127
54974,note_off,55,0,0,,6,,,78,127
54975,note_on,1,0,0,,7,,,79,127
55030,note_off,55,0,0,,7,,,79,127
55031,note_on,1,0,0,,10,,,81,127
55143,note_off,112,0,0,,10,,,69,127
55143,note_off,0,0,0,,6,,,66,127
55143,note_off,0,0,0,,3,,,63,127
55143,note_off,0,0,0,,12,,,59,127
55144,note_on,1,0,0,,6,,,66,127
55144,note_on,0,0,0,,10,,,69,127
55144,note_on,0,0,0,,12,,,59,127
55144,note_on,0,0,0,,3,,,63,127
55369,note_off,225,0,0,,3,,,63,127
55369,note_off,0,0,0,,12,,,59,127
55369,note_off,0,0,0,,10,,,69,127
55369,note_off,0,0,0,,6,,,66,127
55369,note_off,0,0,0,,10,,,81,127
55369,note_off,0,0,0,,12,,,71,127
55370,note_on,1,0,0,,7,,,79,127
55370,note_on,0,0,0,,12,,,71,127
55370,note_on,0,0,0,,10,,,81,127
55370,note_on,0,0,0,,12,,,59,127
55370,note_on,0,0,0,,4,,,64,127
55370,note_on,0,0,0,,7,,,67,127
55425,note_off,55,0,0,,10,,,81,127
55425,note_off,0,0,0,,7,,,79,127
55426,note_on,1,0,0,,6,,,78,127
55481,note_off,55,0,0,,6,,,78,127
55482,note_on,1,0,0,,7,,,79,127
55594,note_off,112,0,0,,7,,,67,127
55594,note_off,0,0,0,,4,,,64,127
55594,note_off,0,0,0,,12,,,59,127
55595,note_on,1,0,0,,4,,,64,127
55595,note_on,0,0,0,,7,,,67,127
55595,note_on,0,0,0,,12,,,59,127
55820,note_off,225,0,0,,12,,,59,127
55820,note_off,0,0,0,,7,,,67,127
55820,note_off,0,0,0,,4,,,64,127
55820,note_off,0,0,0,,7,,,79,127
55821,note_on,1,0,0,,6,,,78,127
55821,note_on,0,0,0,,12,,,59,127
55821,note_on,0,0,0,,6,,,66,127
55875,note_off,54,0,0,,12,,,71,127
55876,note_off,1,0,0,,6,,,78,127
55877,note_on,1,0,0,,12,,,71,127
55932,note_off,55,0,0,,12,,,71,127
55933,note_on,1,0,0,,1,,,73,127
55988,note_off,55,0,0,,1,,,73,127
55989,note_on,1,0,0,,3,,,75,127
56044,note_off,55,0,0,,3,,,75,127
56044,note_off,0,0,0,,6,,,66,127
56044,note_off,0,0,0,,12,,,59,127
56045,note_on,1,0,0,,4,,,76,127
56045,note_on,0,0,0,,6,,,66,127
56045,note_on,0,0,0,,12,,,59,127
56100,note_off,55,0,0,,4,,,76,127
56101,note_on,1,0,0,,6,,,78,127
56156,note_off,55,0,0,,6,,,78,127
56157,note_on,1,0,0,,8,,,80,127
56212,note_off,55,0,0,,8,,,80,127
56213,note_on,1,0,0,,11,,,82,127
56268,note_off,55,0,0,,11,,,82,127
56268,note_off,0,0,0,,12,,,59,127
56268,note_off,0,0,0,,6,,,66,127
56269,note_on,1,0,0,,12,,,83,127
56269,note_on,0,0,0,,12,,,59,127
56269,note_on,0,0,0,,6,,,66,127
56494,note_off,225,0,0,,6,,,66,127
56494,note_off,0,0,0,,12,,,59,127
56495,note_on,1,0,0,,3,,,75,127
56495,note_on,0,0,0,,10,,,57,127
56495,note_on,0,0,0,,6,,,66,127
56720,note_off,225,0,0,,6,,,66,127
56720,note_off,0,0,0,,10,,,57,127
56720,note_off,0,0,0,,3,,,75,127
56720,note_off,0,0,0,,12,,,83,127
56721,note_on,1,0,0,,4,,,76,127
56721,note_on,0,0,0,,12,,,83,127
56721,note_on,0,0,0,,4,,,64,127
56721,note_on,0,0,0,,8,,,56,127
56810,note_off,89,0,0,,12,,,83,127
56811,note_on,1,0,0,,10,,,81,127
56900,note_off,89,0,0,,10,,,81,127
56901,note_on,1,0,0,,8,,,80,127
56945,note_off,44,0,0,,8,,,56,127
56945,note_off,0,0,0,,4,,,64,127
56945,note_off,0,0,0,,4,,,76,127
56946,note_on,1,0,0,,4,,,64,127
56946,note_on,0,0,0,,1,,,61,127
56990,note_off,44,0,0,,8,,,80,127
56991,note_on,1,0,0,,6,,,78,127
57080,note_off,89,0,0,,6,,,78,127
57081,note_on,1,0,0,,4,,,76,127
57170,note_off,89,0,0,,4,,,76,127
57170,note_off,0,0,0,,1,,,61,127
57171,note_on,1,0,0,,8,,,80,127
57171,note_on,0,0,0,,10,,,57,127
57226,note_off,55,0,0,,8,,,80,127
57227,note_on,1,0,0,,6,,,78,127
57282,note_off,55,0,0,,6,,,78,127
57283,note_on,1,0,0,,8,,,80,127
57338,note_off,55,0,0,,8,,,80,127
57339,note_on,1,0,0,,6,,,78,127
57394,note_off,55,0,0,,6,,,78,127
57394,note_off,0,0,0,,10,,,57,127
57394,note_off,0,0,0,,4,,,64,127
57395,note_on,1,0,0,,8,,,80,127
57395,note_on,0,0,0,,12,,,59,127
57395,note_on,0,0,0,,12,,,47,127
57450,note_off,55,0,0,,8,,,80,127
57451,note_on,1,0,0,,6,,,78,127
57506,note_off,55,0,0,,6,,,78,127
57507,note_on,1,0,0,,4,,,76,127
57562,note_off,55,0,0,,4,,,76,127
57563,note_on,1,0,0,,3,,,75,127
57618,note_off,55,0,0,,3,,,75,127
57618,note_off,0,0,0,,12,,,47,127
57618,note_off,0,0,0,,12,,,59,127
57619,note_on,1,0,0,,4,,,76,127
57619,note_on,0,0,0,,4,,,52,127
57667,note_off,48,0,0,,4,,,76,127
57668,note_on,1,0,0,,12,,,83,127
57716,note_off,48,0,0,,12,,,83,127
57717,note_on,1,0,0,,10,,,81,127
57765,note_off,48,0,0,,10,,,81,127
57766,note_on,1,0,0,,8,,,80,127
57814,note_off,48,0,0,,8,,,80,127
57815,note_on,1,0,0,,6,,,78,127
57867,note_off,52,0,0,,6,,,78,127
57868,note_on,1,0,0,,4,,,76,127
57919,note_off,51,0,0,,4,,,76,127
57920,note_on,1,0,0,,3,,,75,127
57969,note_off,49,0,0,,3,,,75,127
57970,note_on,1,0,0,,1,,,73,127
58018,note_off,48,0,0,,1,,,73,127
58019,note_on,1,0,0,,12,,,71,127
58067,note_off,48,0,0,,12,,,71,127
58067,note_off,0,0,0,,4,,,52,127
58068,note_on,1,0,0,,4,,,76,127
58124,note_on,56,0,0,,3,,,75,127
58179,note_off,55,0,0,,3,,,75,127
58180,note_on,1,0,0,,1,,,73,127
58235,note_off,55,0,0,,1,,,73,127
58236,note_on,1,0,0,,12,,,71,127
58291,note_off,55,0,0,,12,,,71,127
58291,note_off,0,0,0,,4,,,76,127
58292,note_on,1,0,0,,10,,,69,127
58347,note_off,55,0,0,,10,,,69,127
58348,note_on,1,0,0,,8,,,68,127
58403,note_off,55,0,0,,8,,,68,127
58404,note_on,1,0,0,,6,,,66,127
58459,note_off,55,0,0,,6,,,66,127
58460,note_on,1,0,0,,4,,,64,127
58515,note_off,55,0,0,,4,,,64,127
58516,note_on,1,0,0,,12,,,71,127
58571,note_off,55,0,0,,12,,,71,127
58572,note_on,1,0,0,,10,,,69,127
58627,note_off,55,0,0,,10,,,69,127
58628,note_on,1,0,0,,8,,,68,127
58683,note_off,55,0,0,,8,,,68,127
58684,note_on,1,0,0,,6,,,66,127
58739,note_off,55,0,0,,6,,,66,127
58740,note_on,1,0,0,,4,,,64,127
58795,note_off,55,0,0,,4,,,64,127
58796,note_on,1,0,0,,3,,,63,127
58851,note_off,55,0,0,,3,,,63,127
58852,note_on,1,0,0,,1,,,61,127
58907,note_off,55,0,0,,1,,,61,127
58908,note_on,1,0,0,,12,,,59,127
58963,note_off,55,0,0,,12,,,59,127
58964,note_on,1,0,0,,4,,,64,127
59019,note_off,55,0,0,,4,,,64,127
59020,note_on,1,0,0,,3,,,63,127
59075,note_off,55,0,0,,3,,,63,127
59076,note_on,1,0,0,,1,,,61,127
59131,note_off,55,0,0,,1,,,61,127
59132,note_on,1,0,0,,12,,,59,127
59187,note_off,55,0,0,,12,,,59,127
59188,note_on,1,0,0,,10,,,57,127
59243,note_off,55,0,0,,10,,,57,127
59244,note_on,1,0,0,,8,,,56,127
59299,note_off,55,0,0,,8,,,56,127
59300,note_on,1,0,0,,6,,,54,127
59355,note_off,55,0,0,,6,,,54,127
59356,note_on,1,0,0,,4,,,52,127
59411,note_off,55,0,0,,4,,,52,127
59412,note_on,1,0,0,,12,,,59,127
59467,note_off,55,0,0,,12,,,59,127
59468,note_on,1,0,0,,10,,,57,127
59523,note_off,55,0,0,,10,,,57,127
59524,note_on,1,0,0,,8,,,56,127
59579,note_off,55,0,0,,8,,,56,127
59580,note_on,1,0,0,,6,,,54,127
59635,note_off,55,0,0,,6,,,54,127
59636,note_on,1,0,0,,4,,,52,127
59691,note_off,55,0,0,,4,,,52,127
59692,note_on,1,0,0,,3,,,51,127
59747,note_off,55,0,0,,3,,,51,127
59748,note_on,1,0,0,,1,,,49,127
59803,note_off,55,0,0,,1,,,49,127
59804,note_on,1,0,0,,12,,,47,127
59859,note_off,55,0,0,,12,,,47,127
59860,note_on,1,0,0,,4,,,52,127
59916,note_on,56,0,0,,4,,,40,127
59971,note_off,55,0,0,,4,,,40,127
59972,note_on,1,0,0,,6,,,42,127
60027,note_off,55,0,0,,6,,,42,127
60028,note_on,1,0,0,,8,,,44,127
60083,note_off,55,0,0,,8,,,44,127
60084,note_on,1,0,0,,10,,,45,127
60139,note_off,55,0,0,,10,,,45,127
60140,note_on,1,0,0,,12,,,47,127
60195,note_off,55,0,0,,12,,,47,127
60196,note_on,1,0,0,,1,,,49,127
60251,note_off,55,0,0,,1,,,49,127
60252,note_on,1,0,0,,3,,,51,127
60307,note_off,55,0,0,,3,,,51,127
60307,note_off,0,0,0,,4,,,52,127
60308,note_on,1,0,0,,4,,,52,127
60421,note_on,113,0,0,,6,,,54,127
60476,note_off,55,0,0,,6,,,54,127
60477,note_on,1,0,0,,8,,,56,127
60532,note_off,55,0,0,,8,,,56,127
60533,note_on,1,0,0,,10,,,57,127
60588,note_off,55,0,0,,10,,,57,127
60589,note_on,1,0,0,,12,,,59,127
60644,note_off,55,0,0,,12,,,59,127
60645,note_on,1,0,0,,1,,,61,127
60700,note_off,55,0,0,,1,,,61,127
60701,note_on,1,0,0,,3,,,63,127
60756,note_off,55,0,0,,3,,,63,127
60756,note_off,0,0,0,,4,,,52,127
60757,note_on,1,0,0,,4,,,64,127
60870,note_on,113,0,0,,6,,,54,127
60925,note_off,55,0,0,,6,,,54,127
60926,note_on,1,0,0,,8,,,56,127
60981,note_off,55,0,0,,8,,,56,127
60982,note_on,1,0,0,,10,,,57,127
61037,note_off,55,0,0,,10,,,57,127
61038,note_on,1,0,0,,12,,,59,127
61093,note_off,55,0,0,,12,,,59,127
61094,note_on,1,0,0,,1,,,61,127
61149,note_off,55,0,0,,1,,,61,127
61150,note_on,1,0,0,,3,,,63,127
61205,note_off,55,0,0,,3,,,63,127
61205,note_off,0,0,0,,4,,,64,127
61206,note_on,1,0,0,,4,,,64,127
61319,note_on,113,0,0,,6,,,66,127
61374,note_off,55,0,0,,6,,,66,127
61375,note_on,1,0,0,,8,,,68,127
61430,note_off,55,0,0,,8,,,68,127
61431,note_on,1,0,0,,10,,,69,127
61486,note_off,55,0,0,,10,,,69,127
61487,note_on,1,0,0,,12,,,71,127
61542,note_off,55,0,0,,12,,,71,127
61543,note_on,1,0,0,,1,,,73,127
61598,note_off,55,0,0,,1,,,73,127
61599,note_on,1,0,0,,3,,,75,127
61654,note_off,55,0,0,,3,,,75,127
61654,note_off,0,0,0,,4,,,64,127
61655,note_on,1,0,0,,4,,,76,127
61768,note_on,113,0,0,,6,,,66,127
61823,note_off,55,0,0,,6,,,66,127
61824,note_on,1,0,0,,8,,,68,127
61879,note_off,55,0,0,,8,,,68,127
61880,note_on,1,0,0,,10,,,69,127
61935,note_off,55,0,0,,10,,,69,127
61936,note_on,1,0,0,,12,,,71,127
61991,note_off,55,0,0,,12,,,71,127
61992,note_on,1,0,0,,1,,,73,127
62047,note_off,55,0,0,,1,,,73,127
62048,note_on,1,0,0,,3,,,75,127
62103,note_off,55,0,0,,3,,,75,127
62103,note_off,0,0,0,,4,,,76,127
62104,note_on,1,0,0,,4,,,76,127
62216,note_off,112,0,0,,4,,,76,127
62217,note_on,1,0,0,,4,,,76,127
62329,note_off,112,0,0,,4,,,76,127
62330,note_on,1,0,0,,12,,,71,127
62442,note_off,112,0,0,,12,,,71,127
62443,note_on,1,0,0,,12,,,71,127
62555,note_off,112,0,0,,12,,,71,127
62556,note_on,1,0,0,,8,,,68,127
62668,note_off,112,0,0,,8,,,68,127
62669,note_on,1,0,0,,8,,,68,127
62781,note_off,112,0,0,,8,,,68,127
62782,note_on,1,0,0,,4,,,64,127
62894,note_off,112,0,0,,4,,,64,127
62895,note_on,1,0,0,,4,,,64,127
63007,note_off,112,0,0,,4,,,64,127
63008,note_on,1,0,0,,12,,,59,127
63120,note_off,112,0,0,,12,,,59,127
63121,note_on,1,0,0,,12,,,59,127
63233,note_off,112,0,0,,12,,,59,127
63234,note_on,1,0,0,,8,,,56,127
63346,note_off,112,0,0,,8,,,56,127
63347,note_on,1,0,0,,8,,,56,127
63459,note_off,112,0,0,,8,,,56,127
63460,note_on,1,0,0,,4,,,52,127
63572,note_off,112,0,0,,4,,,52,127
63573,note_on,1,0,0,,4,,,52,127
63685,note_off,112,0,0,,4,,,52,127
63686,note_on,1,0,0,,12,,,47,127
63798,note_off,112,0,0,,12,,,47,127
63799,note_on,1,0,0,,12,,,47,127
63911,note_off,112,0,0,,12,,,47,127
63912,note_on,1,0,0,,4,,,40,127
64138,note_on,226,0,0,,4,,,52,127
64603,note_off,465,0,0,,4,,,52,127
64604,note_off,1,0,0,,4,,,40,127
64673,note_on,69,0,0,,10,,,57,127
64673,note_on,0,0,0,,1,,,61,127
64673,note_on,0,0,0,,4,,,52,127
64673,note_on,0,0,0,,10,,,45,127
64917,note_off,244,0,0,,10,,,45,127
64917,note_off,0,0,0,,4,,,52,127
64917,note_off,0,0,0,,1,,,61,127
64917,note_off,0,0,0,,10,,,57,127
64923,note_on,6,0,0,,8,,,68,127
64923,note_on,0,0,0,,12,,,59,127
64923,note_on,0,0,0,,4,,,64,127
64923,note_on,0,0,0,,4,,,52,127
64923,note_on,0,0,0,,12,,,47,127
65412,note_off,489,0,0,,12,,,47,127
65412,note_off,0,0,0,,4,,,52,127
65412,note_off,0,0,0,,4,,,64,127
65412,note_off,0,0,0,,12,,,59,127
65412,note_off,0,0,0,,8,,,68,127
65426,note_on,14,0,0,,6,,,66,127
65426,note_on,0,0,0,,10,,,69,127
65426,note_on,0,0,0,,12,,,59,127
65426,note_on,0,0,0,,3,,,63,127
65426,note_on,0,0,0,,10,,,57,127
65426,note_on,0,0,0,,6,,,54,127
65426,note_on,0,0,0,,4,,,52,127
65426,note_on,0,0,0,,12,,,47,127
65915,note_off,489,0,0,,12,,,47,127
65915,note_off,0,0,0,,4,,,52,127
65915,note_off,0,0,0,,6,,,54,127
65915,note_off,0,0,0,,10,,,57,127
65915,note_off,0,0,0,,3,,,63,127
65915,note_off,0,0,0,,12,,,59,127
65915,note_off,0,0,0,,10,,,69,127
65915,note_off,0,0,0,,6,,,66,127
65926,note_on,11,0,0,,8,,,68,127
65926,note_on,0,0,0,,4,,,64,127
65926,note_on,0,0,0,,12,,,59,127
65926,note_on,0,0,0,,4,,,52,127
65926,note_on,0,0,0,,4,,,40,127
66550,note_off,624,0,0,,4,,,40,127
66550,note_off,0,0,0,,4,,,52,127
66550,note_off,0,0,0,,12,,,59,127
66550,note_off,0,0,0,,4,,,64,127
66550,note_off,0,0,0,,8,,,68,127
66623,note_on,73,0,0,,12,,,71,127
66735,note_off,112,0,0,,12,,,71,127
66736,note_on,1,0,0,,1,,,73,127
66848,note_off,112,0,0,,1,,,73,127
66849,note_on,1,0,0,,3,,,75,127
66961,note_off,112,0,0,,3,,,75,127
66962,note_on,1,0,0,,4,,,76,127
67074,note_off,112,0,0,,4,,,76,127
67075,note_on,1,0,0,,4,,,76,127
67187,note_off,112,0,0,,4,,,76,127
67188,note_on,1,0,0,,12,,,71,127
67300,note_off,112,0,0,,12,,,71,127
67301,note_on,1,0,0,,12,,,71,127
67413,note_off,112,0,0,,12,,,71,127
67414,note_on,1,0,0,,8,,,68,127
67526,note_off,112,0,0,,8,,,68,127
67527,note_on,1,0,0,,8,,,68,127
67639,note_off,112,0,0,,8,,,68,127
67640,note_on,1,0,0,,4,,,64,127
67752,note_off,112,0,0,,4,,,64,127
67753,note_on,1,0,0,,4,,,64,127
67865,note_off,112,0,0,,4,,,64,127
67866,note_on,1,0,0,,12,,,59,127
67978,note_off,112,0,0,,12,,,59,127
67979,note_on,1,0,0,,12,,,59,127
68091,note_off,112,0,0,,12,,,59,127
68092,note_on,1,0,0,,8,,,56,127
68204,note_off,112,0,0,,8,,,56,127
68205,note_on,1,0,0,,8,,,56,127
68317,note_off,112,0,0,,8,,,56,127
68318,note_on,1,0,0,,4,,,52,127
68430,note_off,112,0,0,,4,,,52,127
68431,note_on,1,0,0,,4,,,52,127
68543,note_off,112,0,0,,4,,,52,127
68544,note_on,1,0,0,,12,,,47,127
68656,note_off,112,0,0,,12,,,47,127
68657,note_on,1,0,0,,12,,,47,127
68769,note_off,112,0,0,,12,,,47,127
68770,note_on,1,0,0,,4,,,40,127
68883,note_on,113,0,0,,8,,,44,127
68995,note_off,112,0,0,,8,,,44,127
68996,note_on,1,0,0,,12,,,47,127
69108,note_off,112,0,0,,12,,,47,127
69109,note_on,1,0,0,,4,,,52,127
69217,note_off,108,0,0,,4,,,40,127
69221,note_off,4,0,0,,4,,,52,127
69222,note_on,1,0,0,,4,,,64,127
69222,note_on,0,0,0,,8,,,56,127
69222,note_on,0,0,0,,12,,,59,127
69447,note_off,225,0,0,,12,,,59,127
69447,note_off,0,0,0,,8,,,56,127
69447,note_off,0,0,0,,4,,,64,127
69480,note_on,33,0,0,,4,,,76,127
69716,note_off,236,0,0,,4,,,76,127
69721,note_on,5,0,0,,6,,,66,127
69721,note_on,0,0,0,,10,,,69,127
69721,note_on,0,0,0,,6,,,78,127
69721,note_on,0,0,0,,4,,,76,127
69833,note_off,112,0,0,,4,,,76,127
69833,note_off,0,0,0,,6,,,78,127
69834,note_on,1,0,0,,2,,,74,127
69946,note_off,112,0,0,,2,,,74,127
69946,note_off,0,0,0,,10,,,69,127
69946,note_off,0,0,0,,6,,,66,127
69947,note_on,1,0,0,,6,,,66,127
69947,note_on,0,0,0,,10,,,69,127
69947,note_on,0,0,0,,1,,,73,127
70059,note_off,112,0,0,,1,,,73,127
70060,note_on,1,0,0,,2,,,74,127
70172,note_off,112,0,0,,2,,,74,127
70172,note_off,0,0,0,,10,,,69,127
70172,note_off,0,0,0,,6,,,66,127
70173,note_on,1,0,0,,10,,,69,127
70173,note_on,0,0,0,,6,,,66,127
70173,note_on,0,0,0,,1,,,73,127
70285,note_off,112,0,0,,1,,,73,127
70286,note_on,1,0,0,,2,,,74,127
70398,note_off,112,0,0,,2,,,74,127
70398,note_off,0,0,0,,6,,,66,127
70398,note_off,0,0,0,,10,,,69,127
70399,note_on,1,0,0,,10,,,69,127
70399,note_on,0,0,0,,6,,,66,127
70399,note_on,0,0,0,,1,,,73,127
70511,note_off,112,0,0,,1,,,73,127
70512,note_on,1,0,0,,2,,,74,127
70624,note_off,112,0,0,,2,,,74,127
70624,note_off,0,0,0,,6,,,66,127
70624,note_off,0,0,0,,10,,,69,127
70625,note_on,1,0,0,,4,,,64,127
70625,note_on,0,0,0,,8,,,68,127
70625,note_on,0,0,0,,2,,,74,127
70625,note_on,0,0,0,,4,,,76,127
70737,note_off,112,0,0,,4,,,76,127
70737,note_off,0,0,0,,2,,,74,127
70738,note_on,1,0,0,,1,,,73,127
70850,note_off,112,0,0,,1,,,73,127
70850,note_off,0,0,0,,8,,,68,127
70850,note_off,0,0,0,,4,,,64,127
70851,note_on,1,0,0,,8,,,68,127
70851,note_on,0,0,0,,4,,,64,127
70851,note_on,0,0,0,,12,,,71,127
70963,note_off,112,0,0,,12,,,71,127
70964,note_on,1,0,0,,1,,,73,127
71076,note_off,112,0,0,,1,,,73,127
71076,note_off,0,0,0,,4,,,64,127
71076,note_off,0,0,0,,8,,,68,127
71077,note_on,1,0,0,,8,,,68,127
71077,note_on,0,0,0,,4,,,64,127
71077,note_on,0,0,0,,12,,,71,127
71189,note_off,112,0,0,,12,,,71,127
71190,note_on,1,0,0,,1,,,73,127
71302,note_off,112,0,0,,1,,,73,127
71302,note_off,0,0,0,,4,,,64,127
71302,note_off,0,0,0,,8,,,68,127
71303,note_on,1,0,0,,8,,,68,127
71303,note_on,0,0,0,,4,,,64,127
71303,note_on,0,0,0,,12,,,71,127
71415,note_off,112,0,0,,12,,,71,127
71416,note_on,1,0,0,,1,,,73,127
71528,note_off,112,0,0,,1,,,73,127
71528,note_off,0,0,0,,4,,,64,127
71528,note_off,0,0,0,,8,,,68,127
71529,note_on,1,0,0,,6,,,66,127
71529,note_on,0,0,0,,2,,,62,127
71529,note_on,0,0,0,,2,,,74,127
71529,note_on,0,0,0,,1,,,73,127
71641,note_off,112,0,0,,1,,,73,127
71641,note_off,0,0,0,,2,,,74,127
71642,note_on,1,0,0,,12,,,71,127
71754,note_off,112,0,0,,12,,,71,127
71754,note_off,0,0,0,,2,,,62,127
71754,note_off,0,0,0,,6,,,66,127
71755,note_on,1,0,0,,6,,,66,127
71755,note_on,0,0,0,,2,,,62,127
71755,note_on,0,0,0,,11,,,70,127
71867,note_off,112,0,0,,11,,,70,127
71868,note_on,1,0,0,,12,,,71,127
71980,note_off,112,0,0,,12,,,71,127
71980,note_off,0,0,0,,2,,,62,127
71980,note_off,0,0,0,,6,,,66,127
71981,note_on,1,0,0,,6,,,66,127
71981,note_on,0,0,0,,2,,,62,127
71981,note_on,0,0,0,,11,,,70,127
72093,note_off,112,0,0,,11,,,70,127
72094,note_on,1,0,0,,12,,,71,127
72206,note_off,112,0,0,,12,,,71,127
72206,note_off,0,0,0,,2,,,62,127
72206,note_off,0,0,0,,6,,,66,127
72207,note_on,1,0,0,,6,,,66,127
72207,note_on,0,0,0,,2,,,62,127
72207,note_on,0,0,0,,11,,,70,127
72319,note_off,112,0,0,,11,,,70,127
72320,note_on,1,0,0,,12,,,71,127
72432,note_off,112,0,0,,12,,,71,127
72432,note_off,0,0,0,,2,,,62,127
72432,note_off,0,0,0,,6,,,66,127
72433,note_on,1,0,0,,4,,,64,127
72433,note_on,0,0,0,,1,,,61,127
72433,note_on,0,0,0,,1,,,73,127
72433,note_on,0,0,0,,12,,,71,127
72545,note_off,112,0,0,,12,,,71,127
72545,note_off,0,0,0,,1,,,73,127
72546,note_on,1,0,0,,10,,,69,127
72658,note_off,112,0,0,,10,,,69,127
72658,note_off,0,0,0,,1,,,61,127
72658,note_off,0,0,0,,4,,,64,127
72659,note_on,1,0,0,,4,,,64,127
72659,note_on,0,0,0,,1,,,61,127
72659,note_on,0,0,0,,8,,,68,127
72771,note_off,112,0,0,,8,,,68,127
72772,note_on,1,0,0,,10,,,69,127
72884,note_off,112,0,0,,10,,,69,127
72884,note_off,0,0,0,,1,,,61,127
72884,note_off,0,0,0,,4,,,64,127
72885,note_on,1,0,0,,1,,,61,127
72885,note_on,0,0,0,,4,,,64,127
72885,note_on,0,0,0,,8,,,68,127
72997,note_off,112,0,0,,8,,,68,127
72998,note_on,1,0,0,,10,,,69,127
73110,note_off,112,0,0,,10,,,69,127
73110,note_off,0,0,0,,4,,,64,127
73110,note_off,0,0,0,,1,,,61,127
73111,note_on,1,0,0,,1,,,61,127
73111,note_on,0,0,0,,4,,,64,127
73111,note_on,0,0,0,,8,,,68,127
73223,note_off,112,0,0,,8,,,68,127
73224,note_on,1,0,0,,10,,,69,127
73336,note_off,112,0,0,,10,,,69,127
73336,note_off,0,0,0,,4,,,64,127
73336,note_off,0,0,0,,1,,,61,127
73337,note_on,1,0,0,,6,,,66,127
73337,note_on,0,0,0,,2,,,62,127
73337,note_on,0,0,0,,12,,,71,127
73449,note_off,112,0,0,,12,,,71,127
73450,note_on,1,0,0,,1,,,73,127
73562,note_off,112,0,0,,1,,,73,127
73562,note_off,0,0,0,,2,,,62,127
73562,note_off,0,0,0,,6,,,66,127
73563,note_on,1,0,0,,4,,,64,127
73563,note_on,0,0,0,,1,,,61,127
73563,note_on,0,0,0,,2,,,74,127
73675,note_off,112,0,0,,2,,,74,127
73676,note_on,1,0,0,,4,,,76,127
73788,note_off,112,0,0,,4,,,76,127
73788,note_off,0,0,0,,1,,,61,127
73788,note_off,0,0,0,,4,,,64,127
73789,note_on,1,0,0,,2,,,62,127
73789,note_on,0,0,0,,12,,,59,127
73789,note_on,0,0,0,,6,,,78,127
73901,note_off,112,0,0,,6,,,78,127
73902,note_on,1,0,0,,2,,,74,127
74014,note_off,112,0,0,,2,,,74,127
74014,note_off,0,0,0,,12,,,59,127
74014,note_off,0,0,0,,2,,,62,127
74015,note_on,1,0,0,,4,,,64,127
74015,note_on,0,0,0,,4,,,52,127
74015,note_on,0,0,0,,2,,,74,127
74015,note_on,0,0,0,,1,,,73,127
74127,note_off,112,0,0,,2,,,74,127
74134,note_off,7,0,0,,1,,,73,127
74136,note_on,2,0,0,,12,,,71,127
74249,note_off,113,0,0,,4,,,52,127
74249,note_off,0,0,0,,4,,,64,127
74265,note_off,16,0,0,,12,,,71,127
74278,note_on,13,0,0,,10,,,45,127
74278,note_on,0,0,0,,1,,,61,127
74278,note_on,0,0,0,,4,,,64,127
74390,note_off,112,0,0,,1,,,61,127
74391,note_on,1,0,0,,10,,,57,127
74447,note_off,56,0,0,,4,,,64,127
74502,note_off,55,0,0,,10,,,57,127
74503,note_on,1,0,0,,2,,,62,127
74503,note_on,0,0,0,,6,,,66,127
74615,note_off,112,0,0,,2,,,62,127
74616,note_on,1,0,0,,10,,,57,127
74672,note_off,56,0,0,,6,,,66,127
74727,note_off,55,0,0,,10,,,57,127
74728,note_on,1,0,0,,1,,,61,127
74728,note_on,0,0,0,,4,,,64,127
74840,note_off,112,0,0,,1,,,61,127
74841,note_on,1,0,0,,10,,,57,127
74897,note_off,56,0,0,,4,,,64,127
74952,note_off,55,0,0,,10,,,57,127
74952,note_off,0,0,0,,10,,,45,127
74953,note_on,1,0,0,,10,,,81,127
74953,note_on,0,0,0,,2,,,62,127
74953,note_on,0,0,0,,6,,,66,127
75065,note_off,112,0,0,,2,,,62,127
75066,note_on,1,0,0,,10,,,57,127
75122,note_off,56,0,0,,6,,,66,127
75177,note_off,55,0,0,,10,,,57,127
75177,note_off,0,0,0,,10,,,81,127
75178,note_on,1,0,0,,10,,,45,127
75178,note_on,0,0,0,,1,,,61,127
75178,note_on,0,0,0,,4,,,64,127
75290,note_off,112,0,0,,1,,,61,127
75291,note_on,1,0,0,,10,,,57,127
75347,note_off,56,0,0,,4,,,64,127
75402,note_off,55,0,0,,10,,,57,127
75403,note_on,1,0,0,,6,,,66,127
75403,note_on,0,0,0,,2,,,62,127
75515,note_off,112,0,0,,2,,,62,127
75516,note_on,1,0,0,,10,,,57,127
75572,note_off,56,0,0,,6,,,66,127
75627,note_off,55,0,0,,10,,,57,127
75628,note_on,1,0,0,,4,,,64,127
75628,note_on,0,0,0,,1,,,61,127
75740,note_off,112,0,0,,1,,,61,127
75741,note_on,1,0,0,,10,,,57,127
75797,note_off,56,0,0,,4,,,64,127
75852,note_off,55,0,0,,10,,,57,127
75852,note_off,0,0,0,,10,,,45,127
75853,note_on,1,0,0,,10,,,81,127
75853,note_on,0,0,0,,2,,,62,127
75853,note_on,0,0,0,,6,,,66,127
75965,note_off,112,0,0,,2,,,62,127
75966,note_on,1,0,0,,10,,,57,127
76022,note_off,56,0,0,,6,,,66,127
76077,note_off,55,0,0,,10,,,57,127
76077,note_off,0,0,0,,10,,,81,127
76078,note_on,1,0,0,,10,,,45,127
76078,note_on,0,0,0,,4,,,64,127
76078,note_on,0,0,0,,1,,,61,127
76190,note_off,112,0,0,,1,,,61,127
76191,note_on,1,0,0,,10,,,57,127
76247,note_off,56,0,0,,4,,,64,127
76302,note_off,55,0,0,,10,,,57,127
76302,note_off,0,0,0,,10,,,45,127
76303,note_on,1,0,0,,10,,,81,127
76303,note_on,0,0,0,,2,,,62,127
76303,note_on,0,0,0,,6,,,66,127
76415,note_off,112,0,0,,2,,,62,127
76416,note_on,1,0,0,,10,,,57,127
76472,note_off,56,0,0,,6,,,66,127
76527,note_off,55,0,0,,10,,,57,127
76527,note_off,0,0,0,,10,,,81,127
76528,note_on,1,0,0,,10,,,45,127
76528,note_on,0,0,0,,4,,,64,127
76528,note_on,0,0,0,,1,,,61,127
76640,note_off,112,0,0,,1,,,61,127
76641,note_on,1,0,0,,10,,,57,127
76697,note_off,56,0,0,,4,,,64,127
76752,note_off,55,0,0,,10,,,57,127
76752,note_off,0,0,0,,10,,,45,127
76753,note_on,1,0,0,,10,,,81,127
76753,note_on,0,0,0,,6,,,66,127
76753,note_on,0,0,0,,2,,,62,127
76865,note_off,112,0,0,,2,,,62,127
76866,note_on,1,0,0,,10,,,57,127
76922,note_off,56,0,0,,6,,,66,127
76977,note_off,55,0,0,,10,,,57,127
76977,note_off,0,0,0,,10,,,81,127
76978,note_on,1,0,0,,10,,,45,127
76978,note_on,0,0,0,,4,,,64,127
76978,note_on,0,0,0,,1,,,61,127
77090,note_off,112,0,0,,1,,,61,127
77091,note_on,1,0,0,,10,,,57,127
77147,note_off,56,0,0,,4,,,64,127
77202,note_off,55,0,0,,10,,,57,127
77203,note_on,1,0,0,,1,,,61,127
77315,note_off,112,0,0,,1,,,61,127
77316,note_on,1,0,0,,4,,,64,127
77428,note_off,112,0,0,,4,,,64,127
77429,note_on,1,0,0,,10,,,69,127
77541,note_off,112,0,0,,10,,,69,127
77542,note_on,1,0,0,,8,,,68,127
77654,note_off,112,0,0,,8,,,68,127
77654,note_off,0,0,0,,10,,,45,127
77655,note_on,1,0,0,,10,,,57,127
77655,note_on,0,0,0,,6,,,66,127
77767,note_off,112,0,0,,6,,,66,127
77768,note_on,1,0,0,,4,,,64,127
77880,note_off,112,0,0,,4,,,64,127
77880,note_off,0,0,0,,10,,,57,127
77881,note_on,1,0,0,,2,,,62,127
77881,note_on,0,0,0,,6,,,66,127
77992,note_off,111,0,0,,2,,,62,127
77993,note_off,1,0,0,,6,,,66,127
77994,note_on,1,0,0,,2,,,62,127
78106,note_off,112,0,0,,2,,,62,127
78107,note_on,1,0,0,,1,,,61,127
78107,note_on,0,0,0,,4,,,64,127
78218,note_off,111,0,0,,1,,,61,127
78219,note_off,1,0,0,,4,,,64,127
78220,note_on,1,0,0,,1,,,61,127
78332,note_off,112,0,0,,1,,,61,127
78333,note_on,1,0,0,,12,,,59,127
78333,note_on,0,0,0,,2,,,62,127
78444,note_off,111,0,0,,12,,,59,127
78445,note_off,1,0,0,,2,,,62,127
78446,note_on,1,0,0,,12,,,59,127
78558,note_off,112,0,0,,12,,,59,127
78559,note_on,1,0,0,,10,,,57,127
78559,note_on,0,0,0,,1,,,61,127
78670,note_off,111,0,0,,10,,,57,127
78671,note_off,1,0,0,,1,,,61,127
78672,note_on,1,0,0,,10,,,57,127
78784,note_off,112,0,0,,10,,,57,127
78791,note_on,7,0,0,,8,,,68,127
78791,note_on,0,0,0,,12,,,71,127
78791,note_on,0,0,0,,4,,,40,127
78903,note_off,112,0,0,,8,,,68,127
78904,note_on,1,0,0,,4,,,64,127
78960,note_off,56,0,0,,12,,,71,127
79015,note_off,55,0,0,,4,,,64,127
79016,note_on,1,0,0,,10,,,69,127
79016,note_on,0,0,0,,1,,,73,127
79128,note_off,112,0,0,,10,,,69,127
79129,note_on,1,0,0,,4,,,64,127
79185,note_off,56,0,0,,1,,,73,127
79240,note_off,55,0,0,,4,,,64,127
79241,note_on,1,0,0,,8,,,68,127
79241,note_on,0,0,0,,12,,,71,127
79353,note_off,112,0,0,,8,,,68,127
79354,note_on,1,0,0,,4,,,64,127
79410,note_off,56,0,0,,12,,,71,127
79465,note_off,55,0,0,,4,,,64,127
79465,note_off,0,0,0,,4,,,40,127
79466,note_on,1,0,0,,1,,,73,127
79466,note_on,0,0,0,,10,,,69,127
79466,note_on,0,0,0,,4,,,76,127
79578,note_off,112,0,0,,10,,,69,127
79579,note_on,1,0,0,,4,,,64,127
79635,note_off,56,0,0,,1,,,73,127
79690,note_off,55,0,0,,4,,,64,127
79690,note_off,0,0,0,,4,,,76,127
79691,note_on,1,0,0,,8,,,68,127
79691,note_on,0,0,0,,12,,,71,127
79691,note_on,0,0,0,,4,,,40,127
79803,note_off,112,0,0,,8,,,68,127
79804,note_on,1,0,0,,4,,,64,127
79860,note_off,56,0,0,,12,,,71,127
79915,note_off,55,0,0,,4,,,64,127
79916,note_on,1,0,0,,10,,,69,127
79916,note_on,0,0,0,,1,,,73,127
80028,note_off,112,0,0,,10,,,69,127
80029,note_on,1,0,0,,4,,,64,127
80085,note_off,56,0,0,,1,,,73,127
80140,note_off,55,0,0,,4,,,64,127
80141,note_on,1,0,0,,8,,,68,127
80141,note_on,0,0,0,,12,,,71,127
80253,note_off,112,0,0,,8,,,68,127
80254,note_on,1,0,0,,4,,,64,127
80310,note_off,56,0,0,,12,,,71,127
80365,note_off,55,0,0,,4,,,64,127
80365,note_off,0,0,0,,4,,,40,127
80366,note_on,1,0,0,,1,,,73,127
80366,note_on,0,0,0,,10,,,69,127
80366,note_on,0,0,0,,4,,,76,127
80478,note_off,112,0,0,,10,,,69,127
80479,note_on,1,0,0,,4,,,64,127
80535,note_off,56,0,0,,1,,,73,127
80590,note_off,55,0,0,,4,,,64,127
80590,note_off,0,0,0,,4,,,76,127
80591,note_on,1,0,0,,12,,,71,127
80591,note_on,0,0,0,,8,,,68,127
80591,note_on,0,0,0,,4,,,40,127
80703,note_off,112,0,0,,8,,,68,127
80704,note_on,1,0,0,,4,,,64,127
80760,note_off,56,0,0,,12,,,71,127
80815,note_off,55,0,0,,4,,,64,127
80815,note_off,0,0,0,,4,,,40,127
80816,note_on,1,0,0,,10,,,69,127
80816,note_on,0,0,0,,1,,,73,127
80816,note_on,0,0,0,,4,,,76,127
80928,note_off,112,0,0,,10,,,69,127
80929,note_on,1,0,0,,4,,,64,127
80985,note_off,56,0,0,,1,,,73,127
81040,note_off,55,0,0,,4,,,64,127
81040,note_off,0,0,0,,4,,,76,127
81041,note_on,1,0,0,,8,,,68,127
81041,note_on,0,0,0,,12,,,71,127
81041,note_on,0,0,0,,4,,,40,127
81153,note_off,112,0,0,,8,,,68,127
81154,note_on,1,0,0,,4,,,64,127
81210,note_off,56,0,0,,12,,,71,127
81265,note_off,55,0,0,,4,,,64,127
81265,note_off,0,0,0,,4,,,40,127
81266,note_on,1,0,0,,1,,,73,127
81266,note_on,0,0,0,,10,,,69,127
81266,note_on,0,0,0,,4,,,76,127
81378,note_off,112,0,0,,10,,,69,127
81379,note_on,1,0,0,,4,,,64,127
81435,note_off,56,0,0,,1,,,73,127
81490,note_off,55,0,0,,4,,,64,127
81490,note_off,0,0,0,,4,,,76,127
81491,note_on,1,0,0,,12,,,71,127
81491,note_on,0,0,0,,8,,,68,127
81491,note_on,0,0,0,,4,,,40,127
81604,note_on,113,0,0,,8,,,44,127
81716,note_off,112,0,0,,8,,,44,127
81717,note_on,1,0,0,,12,,,47,127
81829,note_off,112,0,0,,12,,,47,127
81830,note_off,1,0,0,,4,,,40,127
81830,note_on,0,0,0,,4,,,52,127
81942,note_off,112,0,0,,8,,,68,127
81942,note_off,0,0,0,,12,,,71,127
81943,note_on,1,0,0,,4,,,64,127
82168,note_off,225,0,0,,4,,,64,127
82169,note_off,1,0,0,,4,,,52,127
82207,note_on,38,0,0,,12,,,71,127
82432,note_off,225,0,0,,12,,,71,127
82433,note_on,1,0,0,,10,,,69,127
82433,note_on,0,0,0,,0,,,72,127
82488,note_off,55,0,0,,0,,,72,127
82489,note_on,1,0,0,,2,,,74,127
82544,note_off,55,0,0,,2,,,74,127
82545,note_on,1,0,0,,4,,,76,127
82657,note_off,112,0,0,,4,,,76,127
82657,note_off,0,0,0,,10,,,69,127
82658,note_on,1,0,0,,10,,,69,127
82658,note_on,0,0,0,,2,,,74,127
82883,note_off,225,0,0,,10,,,69,127
82884,note_on,1,0,0,,10,,,69,127
83109,note_off,225,0,0,,10,,,69,127
83109,note_off,0,0,0,,2,,,74,127
83110,note_on,1,0,0,,10,,,69,127
83110,note_on,0,0,0,,0,,,72,127
83335,note_off,225,0,0,,0,,,72,127
83335,note_off,0,0,0,,10,,,69,127
83336,note_on,1,0,0,,7,,,67,127
83336,note_on,0,0,0,,0,,,72,127
83391,note_off,55,0,0,,0,,,72,127
83392,note_on,1,0,0,,12,,,71,127
83447,note_off,55,0,0,,12,,,71,127
83448,note_on,1,0,0,,10,,,69,127
83560,note_off,112,0,0,,10,,,69,127
83560,note_off,0,0,0,,7,,,67,127
83561,note_on,1,0,0,,7,,,67,127
83561,note_on,0,0,0,,10,,,69,127
83786,note_off,225,0,0,,7,,,67,127
83787,note_on,1,0,0,,7,,,67,127
84012,note_off,225,0,0,,7,,,67,127
84012,note_off,0,0,0,,10,,,69,127
84013,note_on,1,0,0,,7,,,67,127
84013,note_on,0,0,0,,12,,,71,127
84238,note_off,225,0,0,,12,,,71,127
84238,note_off,0,0,0,,7,,,67,127
84246,note_on,8,0,0,,4,,,64,127
84246,note_on,0,0,0,,7,,,67,127
84246,note_on,0,0,0,,12,,,71,127
84301,note_off,55,0,0,,12,,,71,127
84302,note_on,1,0,0,,0,,,72,127
84357,note_off,55,0,0,,0,,,72,127
84358,note_on,1,0,0,,2,,,74,127
84470,note_off,112,0,0,,2,,,74,127
84470,note_off,0,0,0,,7,,,67,127
84470,note_off,0,0,0,,4,,,64,127
84471,note_on,1,0,0,,4,,,64,127
84471,note_on,0,0,0,,7,,,67,127
84471,note_on,0,0,0,,0,,,72,127
84696,note_off,225,0,0,,7,,,67,127
84696,note_off,0,0,0,,4,,,64,127
84697,note_on,1,0,0,,4,,,64,127
84697,note_on,0,0,0,,7,,,67,127
84922,note_off,225,0,0,,7,,,67,127
84922,note_off,0,0,0,,4,,,64,127
84922,note_off,0,0,0,,0,,,72,127
84923,note_on,1,0,0,,4,,,64,127
84923,note_on,0,0,0,,7,,,67,127
84923,note_on,0,0,0,,12,,,71,127
85148,note_off,225,0,0,,12,,,71,127
85148,note_off,0,0,0,,7,,,67,127
85148,note_off,0,0,0,,4,,,64,127
85149,note_on,1,0,0,,5,,,65,127
85149,note_on,0,0,0,,4,,,64,127
85149,note_on,0,0,0,,12,,,71,127
85204,note_off,55,0,0,,12,,,71,127
85205,note_on,1,0,0,,10,,,69,127
85260,note_off,55,0,0,,10,,,69,127
85261,note_on,1,0,0,,8,,,68,127
85373,note_off,112,0,0,,8,,,68,127
85373,note_off,0,0,0,,4,,,64,127
85373,note_off,0,0,0,,5,,,65,127
85374,note_on,1,0,0,,4,,,64,127
85374,note_on,0,0,0,,5,,,65,127
85374,note_on,0,0,0,,8,,,68,127
85599,note_off,225,0,0,,5,,,65,127
85599,note_off,0,0,0,,4,,,64,127
85600,note_on,1,0,0,,4,,,64,127
85600,note_on,0,0,0,,5,,,65,127
85825,note_off,225,0,0,,5,,,65,127
85825,note_off,0,0,0,,4,,,64,127
85825,note_off,0,0,0,,8,,,68,127
85826,note_on,1,0,0,,5,,,65,127
85826,note_on,0,0,0,,4,,,64,127
85826,note_on,0,0,0,,10,,,69,127
86051,note_off,225,0,0,,10,,,69,127
86051,note_off,0,0,0,,4,,,64,127
86051,note_off,0,0,0,,5,,,65,127
86058,note_on,7,0,0,,10,,,69,127
86058,note_on,0,0,0,,5,,,65,127
86058,note_on,0,0,0,,2,,,62,127
86113,note_off,55,0,0,,10,,,69,127
86114,note_on,1,0,0,,12,,,71,127
86169,note_off,55,0,0,,12,,,71,127
86170,note_on,1,0,0,,0,,,72,127
86282,note_off,112,0,0,,0,,,72,127
86282,note_off,0,0,0,,2,,,62,127
86282,note_off,0,0,0,,5,,,65,127
86283,note_on,1,0,0,,12,,,71,127
86283,note_on,0,0,0,,5,,,65,127
86283,note_on,0,0,0,,2,,,62,127
86508,note_off,225,0,0,,2,,,62,127
86508,note_off,0,0,0,,5,,,65,127
86509,note_on,1,0,0,,5,,,65,127
86509,note_on,0,0,0,,2,,,62,127
86734,note_off,225,0,0,,2,,,62,127
86734,note_off,0,0,0,,5,,,65,127
86734,note_off,0,0,0,,12,,,71,127
86735,note_on,1,0,0,,10,,,69,127
86735,note_on,0,0,0,,5,,,65,127
86735,note_on,0,0,0,,2,,,62,127
86960,note_off,225,0,0,,2,,,62,127
86960,note_off,0,0,0,,5,,,65,127
86960,note_off,0,0,0,,10,,,69,127
86961,note_on,1,0,0,,10,,,69,127
86961,note_on,0,0,0,,4,,,64,127
86961,note_on,0,0,0,,2,,,62,127
87016,note_off,55,0,0,,10,,,69,127
87017,note_on,1,0,0,,8,,,68,127
87072,note_off,55,0,0,,8,,,68,127
87073,note_on,1,0,0,,10,,,69,127
87128,note_off,55,0,0,,10,,,69,127
87129,note_on,1,0,0,,8,,,68,127
87184,note_off,55,0,0,,8,,,68,127
87184,note_off,0,0,0,,2,,,62,127
87184,note_off,0,0,0,,4,,,64,127
87185,note_on,1,0,0,,10,,,69,127
87185,note_on,0,0,0,,4,,,64,127
87185,note_on,0,0,0,,2,,,62,127
87240,note_off,55,0,0,,10,,,69,127
87241,note_on,1,0,0,,8,,,68,127
87296,note_off,55,0,0,,8,,,68,127
87297,note_on,1,0,0,,10,,,69,127
87352,note_off,55,0,0,,10,,,69,127
87353,note_on,1,0,0,,8,,,68,127
87408,note_off,55,0,0,,2,,,62,127
87408,note_off,0,0,0,,4,,,64,127
87409,note_on,1,0,0,,4,,,64,127
87409,note_on,0,0,0,,0,,,60,127
87634,note_off,225,0,0,,0,,,60,127
87634,note_off,0,0,0,,4,,,64,127
87634,note_off,0,0,0,,8,,,68,127
87635,note_on,1,0,0,,10,,,69,127
87635,note_on,0,0,0,,4,,,64,127
87635,note_on,0,0,0,,0,,,60,127
87804,note_off,169,0,0,,10,,,69,127
87859,note_off,55,0,0,,0,,,60,127
87859,note_off,0,0,0,,4,,,64,127
87865,note_on,6,0,0,,12,,,59,127
87865,note_on,0,0,0,,2,,,62,127
87865,note_on,0,0,0,,8,,,68,127
87865,note_on,0,0,0,,12,,,71,127
87920,note_off,55,0,0,,12,,,71,127
87921,note_on,1,0,0,,0,,,72,127
87976,note_off,55,0,0,,0,,,72,127
87977,note_on,1,0,0,,2,,,74,127
88089,note_off,112,0,0,,2,,,62,127
88089,note_off,0,0,0,,12,,,59,127
88090,note_on,1,0,0,,12,,,59,127
88090,note_on,0,0,0,,2,,,62,127
88315,note_off,225,0,0,,2,,,62,127
88315,note_off,0,0,0,,12,,,59,127
88315,note_off,0,0,0,,2,,,74,127
88315,note_off,0,0,0,,8,,,68,127
88316,note_on,1,0,0,,4,,,64,127
88316,note_on,0,0,0,,10,,,57,127
88316,note_on,0,0,0,,2,,,74,127
88316,note_on,0,0,0,,10,,,69,127
88316,note_on,0,0,0,,0,,,72,127
88371,note_off,55,0,0,,0,,,72,127
88371,note_off,0,0,0,,2,,,74,127
88372,note_on,1,0,0,,12,,,71,127
88427,note_off,55,0,0,,12,,,71,127
88428,note_on,1,0,0,,0,,,72,127
88540,note_off,112,0,0,,10,,,57,127
88540,note_off,0,0,0,,4,,,64,127
88541,note_on,1,0,0,,10,,,57,127
88541,note_on,0,0,0,,4,,,64,127
88766,note_off,225,0,0,,4,,,64,127
88766,note_off,0,0,0,,10,,,57,127
88766,note_off,0,0,0,,0,,,72,127
88766,note_off,0,0,0,,10,,,69,127
88767,note_on,1,0,0,,12,,,59,127
88767,note_on,0,0,0,,2,,,62,127
88767,note_on,0,0,0,,4,,,52,127
88767,note_on,0,0,0,,4,,,64,127
88767,note_on,0,0,0,,12,,,71,127
88879,note_off,112,0,0,,12,,,71,127
88880,note_on,1,0,0,,10,,,69,127
88992,note_off,112,0,0,,10,,,69,127
88992,note_off,0,0,0,,4,,,52,127
88992,note_off,0,0,0,,2,,,62,127
88992,note_off,0,0,0,,12,,,59,127
88993,note_on,1,0,0,,4,,,52,127
88993,note_on,0,0,0,,12,,,59,127
88993,note_on,0,0,0,,2,,,62,127
88993,note_on,0,0,0,,8,,,68,127
89218,note_off,225,0,0,,2,,,62,127
89218,note_off,0,0,0,,12,,,59,127
89218,note_off,0,0,0,,4,,,52,127
89218,note_off,0,0,0,,4,,,64,127
89219,note_on,1,0,0,,4,,,52,127
89219,note_on,0,0,0,,10,,,57,127
89219,note_on,0,0,0,,0,,,60,127
89219,note_on,0,0,0,,4,,,64,127
89444,note_off,225,0,0,,0,,,60,127
89444,note_off,0,0,0,,10,,,57,127
89444,note_off,0,0,0,,4,,,52,127
89444,note_off,0,0,0,,8,,,68,127
89445,note_on,1,0,0,,4,,,52,127
89445,note_on,0,0,0,,10,,,57,127
89445,note_on,0,0,0,,0,,,60,127
89445,note_on,0,0,0,,10,,,69,127
89614,note_off,169,0,0,,10,,,69,127
89669,note_off,55,0,0,,0,,,60,127
89669,note_off,0,0,0,,10,,,57,127
89669,note_off,0,0,0,,4,,,52,127
89669,note_off,0,0,0,,4,,,64,127
89670,note_on,1,0,0,,8,,,56,127
89670,note_on,0,0,0,,12,,,59,127
89670,note_on,0,0,0,,2,,,62,127
89670,note_on,0,0,0,,4,,,52,127
89670,note_on,0,0,0,,4,,,64,127
89670,note_on,0,0,0,,12,,,71,127
89725,note_off,55,0,0,,12,,,71,127
89726,note_on,1,0,0,,0,,,72,127
89781,note_off,55,0,0,,0,,,72,127
89782,note_on,1,0,0,,2,,,74,127
89894,note_off,112,0,0,,4,,,52,127
89894,note_off,0,0,0,,2,,,62,127
89894,note_off,0,0,0,,12,,,59,127
89894,note_off,0,0,0,,8,,,56,127
89895,note_on,1,0,0,,2,,,62,127
89895,note_on,0,0,0,,4,,,52,127
89895,note_on,0,0,0,,8,,,56,127
89895,note_on,0,0,0,,12,,,59,127
90120,note_off,225,0,0,,12,,,59,127
90120,note_off,0,0,0,,8,,,56,127
90120,note_off,0,0,0,,4,,,52,127
90120,note_off,0,0,0,,2,,,62,127
90120,note_off,0,0,0,,2,,,74,127
90120,note_off,0,0,0,,4,,,64,127
90121,note_on,1,0,0,,10,,,57,127
90121,note_on,0,0,0,,0,,,60,127
90121,note_on,0,0,0,,4,,,52,127
90121,note_on,0,0,0,,4,,,64,127
90121,note_on,0,0,0,,2,,,74,127
90121,note_on,0,0,0,,0,,,72,127
90176,note_off,55,0,0,,0,,,72,127
90176,note_off,0,0,0,,2,,,74,127
90177,note_on,1,0,0,,12,,,71,127
90232,note_off,55,0,0,,12,,,71,127
90233,note_on,1,0,0,,0,,,72,127
90345,note_off,112,0,0,,4,,,52,127
90345,note_off,0,0,0,,0,,,60,127
90345,note_off,0,0,0,,10,,,57,127
90346,note_on,1,0,0,,0,,,60,127
90346,note_on,0,0,0,,4,,,52,127
90346,note_on,0,0,0,,10,,,57,127
90571,note_off,225,0,0,,10,,,57,127
90571,note_off,0,0,0,,4,,,52,127
90571,note_off,0,0,0,,0,,,60,127
90571,note_off,0,0,0,,0,,,72,127
90571,note_off,0,0,0,,4,,,64,127
90572,note_on,1,0,0,,12,,,59,127
90572,note_on,0,0,0,,2,,,62,127
90572,note_on,0,0,0,,4,,,52,127
90572,note_on,0,0,0,,12,,,71,127
90572,note_on,0,0,0,,5,,,65,127
90684,note_off,112,0,0,,12,,,71,127
90685,note_on,1,0,0,,10,,,69,127
90797,note_off,112,0,0,,10,,,69,127
90797,note_off,0,0,0,,4,,,52,127
90797,note_off,0,0,0,,2,,,62,127
90797,note_off,0,0,0,,12,,,59,127
90798,note_on,1,0,0,,2,,,62,127
90798,note_on,0,0,0,,4,,,52,127
90798,note_on,0,0,0,,12,,,59,127
90798,note_on,0,0,0,,8,,,68,127
91023,note_off,225,0,0,,12,,,59,127
91023,note_off,0,0,0,,4,,,52,127
91023,note_off,0,0,0,,2,,,62,127
91023,note_off,0,0,0,,5,,,65,127
91024,note_on,1,0,0,,4,,,52,127
91024,note_on,0,0,0,,10,,,57,127
91024,note_on,0,0,0,,0,,,60,127
91024,note_on,0,0,0,,4,,,64,127
91249,note_off,225,0,0,,0,,,60,127
91249,note_off,0,0,0,,10,,,57,127
91249,note_off,0,0,0,,4,,,52,127
91249,note_off,0,0,0,,8,,,68,127
91250,note_on,1,0,0,,4,,,52,127
91250,note_on,0,0,0,,10,,,57,127
91250,note_on,0,0,0,,0,,,60,127
91250,note_on,0,0,0,,10,,,69,127
91475,note_off,225,0,0,,10,,,69,127
91475,note_off,0,0,0,,0,,,60,127
91475,note_off,0,0,0,,10,,,57,127
91475,note_off,0,0,0,,4,,,52,127
91475,note_off,0,0,0,,4,,,64,127
91476,note_on,1,0,0,,12,,,59,127
91476,note_on,0,0,0,,2,,,62,127
91476,note_on,0,0,0,,4,,,52,127
91476,note_on,0,0,0,,8,,,56,127
91476,note_on,0,0,0,,12,,,71,127
91476,note_on,0,0,0,,4,,,64,127
91531,note_off,55,0,0,,12,,,71,127
91532,note_on,1,0,0,,0,,,72,127
91587,note_off,55,0,0,,0,,,72,127
91588,note_on,1,0,0,,2,,,74,127
91700,note_off,112,0,0,,8,,,56,127
91700,note_off,0,0,0,,4,,,52,127
91700,note_off,0,0,0,,2,,,62,127
91700,note_off,0,0,0,,12,,,59,127
91701,note_on,1,0,0,,12,,,59,127
91701,note_on,0,0,0,,2,,,62,127
91701,note_on,0,0,0,,4,,,52,127
91701,note_on,0,0,0,,8,,,56,127
91926,note_off,225,0,0,,8,,,56,127
91926,note_off,0,0,0,,4,,,52,127
91926,note_off,0,0,0,,2,,,62,127
91926,note_off,0,0,0,,12,,,59,127
91926,note_off,0,0,0,,2,,,74,127
91926,note_off,0,0,0,,4,,,64,127
91927,note_on,1,0,0,,10,,,57,127
91927,note_on,0,0,0,,0,,,60,127
91927,note_on,0,0,0,,4,,,52,127
91927,note_on,0,0,0,,0,,,72,127
91927,note_on,0,0,0,,2,,,74,127
91927,note_on,0,0,0,,4,,,64,127
91982,note_off,55,0,0,,2,,,74,127
91982,note_off,0,0,0,,0,,,72,127
91983,note_on,1,0,0,,12,,,71,127
92038,note_off,55,0,0,,12,,,71,127
92039,note_on,1,0,0,,0,,,72,127
92151,note_off,112,0,0,,4,,,52,127
92151,note_off,0,0,0,,0,,,60,127
92151,note_off,0,0,0,,10,,,57,127
92152,note_on,1,0,0,,0,,,60,127
92152,note_on,0,0,0,,10,,,57,127
92152,note_on,0,0,0,,4,,,52,127
92377,note_off,225,0,0,,4,,,52,127
92377,note_off,0,0,0,,10,,,57,127
92377,note_off,0,0,0,,0,,,60,127
92377,note_off,0,0,0,,0,,,72,127
92377,note_off,0,0,0,,4,,,64,127
92378,note_on,1,0,0,,4,,,40,127
92378,note_on,0,0,0,,8,,,68,127
92378,note_on,0,0,0,,12,,,71,127
92491,note_on,113,0,0,,8,,,44,127
92602,note_off,111,0,0,,4,,,40,127
92603,note_off,1,0,0,,8,,,44,127
92604,note_on,1,0,0,,12,,,47,127
92716,note_off,112,0,0,,12,,,47,127
92717,note_on,1,0,0,,4,,,52,127
92829,note_off,112,0,0,,4,,,52,127
92829,note_off,0,0,0,,12,,,71,127
92829,note_off,0,0,0,,8,,,68,127
92830,note_on,1,0,0,,8,,,56,127
92830,note_on,0,0,0,,12,,,59,127
92830,note_on,0,0,0,,4,,,64,127
93077,note_off,247,0,0,,4,,,64,127
93077,note_off,0,0,0,,12,,,59,127
93077,note_off,0,0,0,,8,,,56,127
93095,note_on,18,0,0,,4,,,64,127
93207,note_off,112,0,0,,4,,,64,127
93208,note_on,1,0,0,,4,,,64,127
93320,note_off,112,0,0,,4,,,64,127
93321,note_on,1,0,0,,8,,,68,127
93433,note_off,112,0,0,,8,,,68,127
93434,note_on,1,0,0,,8,,,68,127
93546,note_off,112,0,0,,8,,,68,127
93547,note_on,1,0,0,,12,,,71,127
93659,note_off,112,0,0,,12,,,71,127
93660,note_on,1,0,0,,12,,,71,127
93772,note_off,112,0,0,,12,,,71,127
93773,note_on,1,0,0,,2,,,74,127
93885,note_off,112,0,0,,2,,,74,127
93886,note_on,1,0,0,,2,,,74,127
93998,note_off,112,0,0,,2,,,74,127
93999,note_on,1,0,0,,4,,,76,127
94111,note_off,112,0,0,,4,,,76,127
94112,note_on,1,0,0,,0,,,72,127
94224,note_off,112,0,0,,0,,,72,127
94225,note_on,1,0,0,,5,,,77,127
94225,note_on,0,0,0,,2,,,74,127
94338,note_on,113,0,0,,2,,,38,127
94450,note_off,112,0,0,,2,,,38,127
94451,note_on,1,0,0,,5,,,41,127
94563,note_off,112,0,0,,5,,,41,127
94564,note_on,1,0,0,,10,,,45,127
94676,note_off,112,0,0,,10,,,45,127
94676,note_off,0,0,0,,2,,,74,127
94676,note_off,0,0,0,,5,,,77,127
94677,note_on,1,0,0,,5,,,53,127
94677,note_on,0,0,0,,2,,,62,127
94677,note_on,0,0,0,,10,,,57,127
94902,note_off,225,0,0,,10,,,57,127
94902,note_off,0,0,0,,2,,,62,127
94902,note_off,0,0,0,,5,,,53,127
94903,note_on,1,0,0,,2,,,62,127
95015,note_off,112,0,0,,2,,,62,127
95016,note_on,1,0,0,,2,,,62,127
95128,note_off,112,0,0,,2,,,62,127
95129,note_on,1,0,0,,8,,,68,127
95241,note_off,112,0,0,,8,,,68,127
95242,note_on,1,0,0,,8,,,68,127
95354,note_off,112,0,0,,8,,,68,127
95355,note_on,1,0,0,,12,,,71,127
95467,note_off,112,0,0,,12,,,71,127
95468,note_on,1,0,0,,12,,,71,127
95580,note_off,112,0,0,,12,,,71,127
95581,note_on,1,0,0,,2,,,74,127
95693,note_off,112,0,0,,2,,,74,127
95694,note_on,1,0,0,,2,,,74,127
95806,note_off,112,0,0,,2,,,74,127
95807,note_on,1,0,0,,5,,,77,127
95919,note_off,112,0,0,,5,,,77,127
95920,note_on,1,0,0,,0,,,72,127
96032,note_off,112,0,0,,0,,,72,127
96033,note_on,1,0,0,,0,,,72,127
96033,note_on,0,0,0,,4,,,76,127
96146,note_on,113,0,0,,0,,,36,127
96258,note_off,112,0,0,,0,,,36,127
96259,note_on,1,0,0,,4,,,40,127
96371,note_off,112,0,0,,4,,,40,127
96372,note_on,1,0,0,,10,,,45,127
96484,note_off,112,0,0,,10,,,45,127
96484,note_off,0,0,0,,4,,,76,127
96484,note_off,0,0,0,,0,,,72,127
96485,note_on,1,0,0,,0,,,48,127
96485,note_on,0,0,0,,10,,,57,127
96485,note_on,0,0,0,,4,,,52,127
96710,note_off,225,0,0,,4,,,52,127
96710,note_off,0,0,0,,10,,,57,127
96710,note_off,0,0,0,,0,,,48,127
96711,note_on,1,0,0,,0,,,60,127
96823,note_off,112,0,0,,0,,,60,127
96824,note_on,1,0,0,,0,,,60,127
96936,note_off,112,0,0,,0,,,60,127
96937,note_on,1,0,0,,4,,,64,127
97049,note_off,112,0,0,,4,,,64,127
97050,note_on,1,0,0,,4,,,64,127
97162,note_off,112,0,0,,4,,,64,127
97163,note_on,1,0,0,,10,,,69,127
97275,note_off,112,0,0,,10,,,69,127
97276,note_on,1,0,0,,10,,,69,127
97388,note_off,112,0,0,,10,,,69,127
97389,note_on,1,0,0,,0,,,72,127
97501,note_off,112,0,0,,0,,,72,127
97502,note_on,1,0,0,,0,,,72,127
97614,note_off,112,0,0,,0,,,72,127
97615,note_on,1,0,0,,4,,,76,127
97727,note_off,112,0,0,,4,,,76,127
97728,note_on,1,0,0,,12,,,71,127
97840,note_off,112,0,0,,12,,,71,127
97841,note_on,1,0,0,,12,,,71,127
97841,note_on,0,0,0,,2,,,74,127
97954,note_on,113,0,0,,12,,,47,127
98066,note_off,112,0,0,,12,,,47,127
98067,note_on,1,0,0,,2,,,50,127
98179,note_off,112,0,0,,2,,,50,127
98180,note_on,1,0,0,,8,,,56,127
98292,note_off,112,0,0,,8,,,56,127
98292,note_off,0,0,0,,2,,,74,127
98292,note_off,0,0,0,,12,,,71,127
98293,note_on,1,0,0,,5,,,65,127
98293,note_on,0,0,0,,2,,,62,127
98293,note_on,0,0,0,,12,,,59,127
98518,note_off,225,0,0,,12,,,59,127
98518,note_off,0,0,0,,2,,,62,127
98518,note_off,0,0,0,,5,,,65,127
98519,note_on,1,0,0,,2,,,62,127
98631,note_off,112,0,0,,2,,,62,127
98632,note_on,1,0,0,,2,,,62,127
98744,note_off,112,0,0,,2,,,62,127
98745,note_on,1,0,0,,5,,,65,127
98857,note_off,112,0,0,,5,,,65,127
98858,note_on,1,0,0,,5,,,65,127
98970,note_off,112,0,0,,5,,,65,127
98971,note_on,1,0,0,,8,,,68,127
99083,note_off,112,0,0,,8,,,68,127
99084,note_on,1,0,0,,8,,,68,127
99196,note_off,112,0,0,,8,,,68,127
99197,note_on,1,0,0,,12,,,71,127
99309,note_off,112,0,0,,12,,,71,127
99310,note_on,1,0,0,,12,,,71,127
99422,note_off,112,0,0,,12,,,71,127
99423,note_on,1,0,0,,2,,,74,127
99535,note_off,112,0,0,,2,,,74,127
99536,note_on,1,0,0,,10,,,69,127
99648,note_off,112,0,0,,10,,,69,127
99649,note_on,1,0,0,,10,,,69,127
99649,note_on,0,0,0,,0,,,72,127
99762,note_on,113,0,0,,10,,,45,127
99874,note_off,112,0,0,,10,,,45,127
99875,note_on,1,0,0,,0,,,48,127
99987,note_off,112,0,0,,0,,,48,127
99988,note_on,1,0,0,,4,,,52,127
100100,note_off,112,0,0,,4,,,52,127
100100,note_off,0,0,0,,0,,,72,127
100100,note_off,0,0,0,,10,,,69,127
100101,note_on,1,0,0,,10,,,57,127
100214,note_on,113,0,0,,4,,,76,127
100326,note_off,112,0,0,,4,,,76,127
100327,note_on,1,0,0,,10,,,81,127
100439,note_off,112,0,0,,10,,,81,127
100440,note_on,1,0,0,,7,,,79,127
100552,note_off,112,0,0,,7,,,79,127
100552,note_off,0,0,0,,10,,,57,127
100553,note_on,1,0,0,,5,,,77,127
100553,note_on,0,0,0,,2,,,62,127
100553,note_on,0,0,0,,2,,,50,127
100665,note_off,112,0,0,,5,,,77,127
100666,note_on,1,0,0,,4,,,76,127
100778,note_off,112,0,0,,4,,,76,127
100778,note_off,0,0,0,,2,,,50,127
100779,note_on,1,0,0,,2,,,74,127
100779,note_on,0,0,0,,4,,,52,127
100891,note_off,112,0,0,,2,,,74,127
100892,note_on,1,0,0,,0,,,72,127
101004,note_off,112,0,0,,0,,,72,127
101004,note_off,0,0,0,,4,,,52,127
101005,note_on,1,0,0,,2,,,74,127
101005,note_on,0,0,0,,5,,,53,127
101117,note_off,112,0,0,,2,,,74,127
101118,note_on,1,0,0,,0,,,72,127
101230,note_off,112,0,0,,0,,,72,127
101230,note_off,0,0,0,,5,,,53,127
101231,note_on,1,0,0,,12,,,71,127
101231,note_on,0,0,0,,2,,,50,127
101343,note_off,112,0,0,,12,,,71,127
101344,note_on,1,0,0,,10,,,69,127
101456,note_off,112,0,0,,10,,,69,127
101456,note_off,0,0,0,,2,,,50,127
101456,note_off,0,0,0,,2,,,62,127
101457,note_on,1,0,0,,8,,,68,127
101457,note_on,0,0,0,,4,,,52,127
101569,note_off,112,0,0,,8,,,68,127
101570,note_on,1,0,0,,10,,,69,127
101682,note_off,112,0,0,,10,,,69,127
101682,note_off,0,0,0,,4,,,52,127
101683,note_on,1,0,0,,12,,,71,127
101683,note_on,0,0,0,,4,,,64,127
101795,note_off,112,0,0,,12,,,71,127
101796,note_on,1,0,0,,0,,,72,127
101908,note_off,112,0,0,,0,,,72,127
101909,note_on,1,0,0,,2,,,74,127
102021,note_off,112,0,0,,2,,,74,127
102022,note_on,1,0,0,,4,,,76,127
102083,note_off,61,0,0,,4,,,64,127
102134,note_off,51,0,0,,4,,,76,127
102135,note_on,1,0,0,,5,,,77,127
102135,note_on,0,0,0,,2,,,62,127
102247,note_off,112,0,0,,5,,,77,127
102248,note_on,1,0,0,,2,,,74,127
102360,note_off,112,0,0,,2,,,74,127
102360,note_off,0,0,0,,2,,,62,127
102361,note_on,1,0,0,,4,,,76,127
102361,note_on,0,0,0,,0,,,60,127
102473,note_off,112,0,0,,4,,,76,127
102474,note_on,1,0,0,,0,,,72,127
102586,note_off,112,0,0,,0,,,72,127
102586,note_off,0,0,0,,0,,,60,127
102587,note_on,1,0,0,,2,,,74,127
102587,note_on,0,0,0,,5,,,65,127
102699,note_off,112,0,0,,5,,,65,127
102699,note_off,0,0,0,,2,,,74,127
102700,note_on,1,0,0,,12,,,71,127
102700,note_on,0,0,0,,2,,,62,127
102812,note_off,112,0,0,,2,,,62,127
102812,note_off,0,0,0,,12,,,71,127
102813,note_on,1,0,0,,0,,,72,127
102813,note_on,0,0,0,,4,,,64,127
102925,note_off,112,0,0,,0,,,72,127
102926,note_on,1,0,0,,10,,,69,127
103038,note_off,112,0,0,,10,,,69,127
103038,note_off,0,0,0,,4,,,64,127
103039,note_on,1,0,0,,12,,,71,127
103039,note_on,0,0,0,,4,,,52,127
103145,note_off,106,0,0,,12,,,71,127
103152,note_on,7,0,0,,8,,,68,127
103274,note_off,122,0,0,,4,,,52,127
103279,note_off,5,0,0,,8,,,68,127
103295,note_on,16,0,0,,10,,,45,127
103295,note_on,0,0,0,,4,,,76,127
103295,note_on,0,0,0,,1,,,73,127
103407,note_off,112,0,0,,1,,,73,127
103408,note_on,1,0,0,,10,,,69,127
103464,note_off,56,0,0,,4,,,76,127
103519,note_off,55,0,0,,10,,,69,127
103520,note_on,1,0,0,,6,,,78,127
103520,note_on,0,0,0,,2,,,74,127
103632,note_off,112,0,0,,2,,,74,127
103633,note_on,1,0,0,,10,,,69,127
103689,note_off,56,0,0,,6,,,78,127
103744,note_off,55,0,0,,10,,,69,127
103745,note_on,1,0,0,,1,,,73,127
103745,note_on,0,0,0,,4,,,76,127
103857,note_off,112,0,0,,1,,,73,127
103858,note_on,1,0,0,,10,,,69,127
103914,note_off,56,0,0,,4,,,76,127
103969,note_off,55,0,0,,10,,,69,127
103969,note_off,0,0,0,,10,,,45,127
103970,note_on,1,0,0,,10,,,81,127
103970,note_on,0,0,0,,2,,,74,127
103970,note_on,0,0,0,,6,,,78,127
104082,note_off,112,0,0,,2,,,74,127
104083,note_on,1,0,0,,10,,,69,127
104139,note_off,56,0,0,,6,,,78,127
104194,note_off,55,0,0,,10,,,69,127
104194,note_off,0,0,0,,10,,,81,127
104195,note_on,1,0,0,,10,,,45,127
104195,note_on,0,0,0,,4,,,76,127
104195,note_on,0,0,0,,1,,,73,127
104307,note_off,112,0,0,,1,,,73,127
104308,note_on,1,0,0,,10,,,69,127
104364,note_off,56,0,0,,4,,,76,127
104419,note_off,55,0,0,,10,,,69,127
104420,note_on,1,0,0,,2,,,74,127
104420,note_on,0,0,0,,6,,,78,127
104532,note_off,112,0,0,,2,,,74,127
104533,note_on,1,0,0,,10,,,69,127
104589,note_off,56,0,0,,6,,,78,127
104644,note_off,55,0,0,,10,,,69,127
104645,note_on,1,0,0,,4,,,76,127
104645,note_on,0,0,0,,1,,,73,127
104757,note_off,112,0,0,,1,,,73,127
104758,note_on,1,0,0,,10,,,69,127
104814,note_off,56,0,0,,4,,,76,127
104869,note_off,55,0,0,,10,,,69,127
104869,note_off,0,0,0,,10,,,45,127
104870,note_on,1,0,0,,10,,,81,127
104870,note_on,0,0,0,,6,,,78,127
104870,note_on,0,0,0,,2,,,74,127
104982,note_off,112,0,0,,2,,,74,127
104983,note_on,1,0,0,,10,,,69,127
105039,note_off,56,0,0,,6,,,78,127
105094,note_off,55,0,0,,10,,,69,127
105094,note_off,0,0,0,,10,,,81,127
105095,note_on,1,0,0,,10,,,45,127
105095,note_on,0,0,0,,4,,,76,127
105095,note_on,0,0,0,,1,,,73,127
105207,note_off,112,0,0,,1,,,73,127
105208,note_on,1,0,0,,10,,,69,127
105264,note_off,56,0,0,,4,,,76,127
105319,note_off,55,0,0,,10,,,69,127
105319,note_off,0,0,0,,10,,,45,127
105320,note_on,1,0,0,,10,,,81,127
105320,note_on,0,0,0,,2,,,74,127
105320,note_on,0,0,0,,6,,,78,127
105432,note_off,112,0,0,,2,,,74,127
105433,note_on,1,0,0,,10,,,69,127
105489,note_off,56,0,0,,6,,,78,127
105544,note_off,55,0,0,,10,,,69,127
105544,note_off,0,0,0,,10,,,81,127
105545,note_on,1,0,0,,10,,,45,127
105545,note_on,0,0,0,,1,,,73,127
105545,note_on,0,0,0,,4,,,76,127
105657,note_off,112,0,0,,1,,,73,127
105658,note_on,1,0,0,,10,,,69,127
105714,note_off,56,0,0,,4,,,76,127
105769,note_off,55,0,0,,10,,,69,127
105769,note_off,0,0,0,,10,,,45,127
105770,note_on,1,0,0,,10,,,81,127
105770,note_on,0,0,0,,2,,,74,127
105770,note_on,0,0,0,,6,,,78,127
105882,note_off,112,0,0,,2,,,74,127
105883,note_on,1,0,0,,10,,,69,127
105939,note_off,56,0,0,,6,,,78,127
105994,note_off,55,0,0,,10,,,69,127
105994,note_off,0,0,0,,10,,,81,127
105995,note_on,1,0,0,,10,,,45,127
105995,note_on,0,0,0,,1,,,73,127
105995,note_on,0,0,0,,4,,,76,127
106107,note_off,112,0,0,,1,,,73,127
106108,note_on,1,0,0,,10,,,69,127
106164,note_off,56,0,0,,4,,,76,127
106219,note_off,55,0,0,,10,,,69,127
106220,note_on,1,0,0,,1,,,73,127
106332,note_off,112,0,0,,1,,,73,127
106333,note_on,1,0,0,,4,,,76,127
106445,note_off,112,0,0,,4,,,76,127
106446,note_on,1,0,0,,10,,,81,127
106558,note_off,112,0,0,,10,,,81,127
106559,note_on,1,0,0,,8,,,80,127
106671,note_off,112,0,0,,8,,,80,127
106671,note_off,0,0,0,,10,,,45,127
106672,note_on,1,0,0,,10,,,69,127
106672,note_on,0,0,0,,6,,,78,127
106784,note_off,112,0,0,,6,,,78,127
106785,note_on,1,0,0,,4,,,76,127
106897,note_off,112,0,0,,4,,,76,127
106897,note_off,0,0,0,,10,,,69,127
106898,note_on,1,0,0,,2,,,74,127
106898,note_on,0,0,0,,6,,,78,127
107009,note_off,111,0,0,,2,,,74,127
107010,note_off,1,0,0,,6,,,78,127
107011,note_on,1,0,0,,2,,,74,127
107123,note_off,112,0,0,,2,,,74,127
107124,note_on,1,0,0,,1,,,73,127
107124,note_on,0,0,0,,4,,,76,127
107235,note_off,111,0,0,,1,,,73,127
107236,note_off,1,0,0,,4,,,76,127
107237,note_on,1,0,0,,1,,,73,127
107349,note_off,112,0,0,,1,,,73,127
107350,note_on,1,0,0,,12,,,71,127
107350,note_on,0,0,0,,2,,,74,127
107461,note_off,111,0,0,,12,,,71,127
107462,note_off,1,0,0,,2,,,74,127
107463,note_on,1,0,0,,12,,,71,127
107575,note_off,112,0,0,,12,,,71,127
107576,note_on,1,0,0,,10,,,69,127
107576,note_on,0,0,0,,1,,,73,127
107687,note_off,111,0,0,,10,,,69,127
107688,note_off,1,0,0,,1,,,73,127
107689,note_on,1,0,0,,10,,,69,127
107801,note_off,112,0,0,,10,,,69,127
107806,note_on,5,0,0,,12,,,71,127
107806,note_on,0,0,0,,8,,,68,127
107806,note_on,0,0,0,,4,,,40,127
107918,note_off,112,0,0,,8,,,68,127
107919,note_on,1,0,0,,4,,,64,127
107975,note_off,56,0,0,,12,,,71,127
108030,note_off,55,0,0,,4,,,64,127
108031,note_on,1,0,0,,1,,,73,127
108031,note_on,0,0,0,,10,,,69,127
108143,note_off,112,0,0,,10,,,69,127
108144,note_on,1,0,0,,4,,,64,127
108200,note_off,56,0,0,,1,,,73,127
108255,note_off,55,0,0,,4,,,64,127
108256,note_on,1,0,0,,8,,,68,127
108256,note_on,0,0,0,,12,,,71,127
108368,note_off,112,0,0,,8,,,68,127
108369,note_on,1,0,0,,4,,,64,127
108425,note_off,56,0,0,,12,,,71,127
108480,note_off,55,0,0,,4,,,64,127
108480,note_off,0,0,0,,4,,,40,127
108481,note_on,1,0,0,,1,,,73,127
108481,note_on,0,0,0,,10,,,69,127
108481,note_on,0,0,0,,4,,,76,127
108593,note_off,112,0,0,,10,,,69,127
108594,note_on,1,0,0,,4,,,64,127
108650,note_off,56,0,0,,1,,,73,127
108705,note_off,55,0,0,,4,,,64,127
108705,note_off,0,0,0,,4,,,76,127
108706,note_on,1,0,0,,12,,,71,127
108706,note_on,0,0,0,,8,,,68,127
108706,note_on,0,0,0,,4,,,52,127
108818,note_off,112,0,0,,8,,,68,127
108819,note_on,1,0,0,,4,,,64,127
108875,note_off,56,0,0,,12,,,71,127
108930,note_off,55,0,0,,4,,,64,127
108931,note_on,1,0,0,,1,,,73,127
108931,note_on,0,0,0,,10,,,69,127
109043,note_off,112,0,0,,10,,,69,127
109044,note_on,1,0,0,,4,,,64,127
109100,note_off,56,0,0,,1,,,73,127
109155,note_off,55,0,0,,4,,,64,127
109156,note_on,1,0,0,,8,,,68,127
109156,note_on,0,0,0,,12,,,71,127
109268,note_off,112,0,0,,8,,,68,127
109269,note_on,1,0,0,,4,,,64,127
109325,note_off,56,0,0,,12,,,71,127
109380,note_off,55,0,0,,4,,,64,127
109380,note_off,0,0,0,,4,,,52,127
109381,note_on,1,0,0,,1,,,73,127
109381,note_on,0,0,0,,10,,,69,127
109381,note_on,0,0,0,,4,,,76,127
109493,note_off,112,0,0,,10,,,69,127
109494,note_on,1,0,0,,4,,,64,127
109550,note_off,56,0,0,,1,,,73,127
109605,note_off,55,0,0,,4,,,64,127
109605,note_off,0,0,0,,4,,,76,127
109606,note_on,1,0,0,,12,,,71,127
109606,note_on,0,0,0,,8,,,68,127
109606,note_on,0,0,0,,4,,,52,127
109718,note_off,112,0,0,,8,,,68,127
109719,note_on,1,0,0,,4,,,64,127
109775,note_off,56,0,0,,12,,,71,127
109830,note_off,55,0,0,,4,,,64,127
109830,note_off,0,0,0,,4,,,52,127
109831,note_on,1,0,0,,1,,,73,127
109831,note_on,0,0,0,,10,,,69,127
109831,note_on,0,0,0,,4,,,76,127
109943,note_off,112,0,0,,10,,,69,127
109944,note_on,1,0,0,,4,,,64,127
110000,note_off,56,0,0,,1,,,73,127
110055,note_off,55,0,0,,4,,,64,127
110055,note_off,0,0,0,,4,,,76,127
110056,note_on,1,0,0,,12,,,71,127
110056,note_on,0,0,0,,8,,,68,127
110056,note_on,0,0,0,,4,,,52,127
110168,note_off,112,0,0,,8,,,68,127
110169,note_on,1,0,0,,4,,,64,127
110225,note_off,56,0,0,,12,,,71,127
110280,note_off,55,0,0,,4,,,64,127
110280,note_off,0,0,0,,4,,,52,127
110281,note_on,1,0,0,,10,,,69,127
110281,note_on,0,0,0,,1,,,73,127
110281,note_on,0,0,0,,4,,,76,127
110393,note_off,112,0,0,,10,,,69,127
110394,note_on,1,0,0,,4,,,64,127
110450,note_off,56,0,0,,1,,,73,127
110505,note_off,55,0,0,,4,,,64,127
110505,note_off,0,0,0,,4,,,76,127
110506,note_on,1,0,0,,12,,,71,127
110506,note_on,0,0,0,,8,,,68,127
110506,note_on,0,0,0,,4,,,52,127
110618,note_off,112,0,0,,8,,,68,127
110619,note_on,1,0,0,,4,,,64,127
110675,note_off,56,0,0,,12,,,71,127
110730,note_off,55,0,0,,4,,,64,127
110730,note_off,0,0,0,,4,,,52,127
110731,note_on,1,0,0,,8,,,68,127
110731,note_on,0,0,0,,4,,,52,127
110843,note_off,112,0,0,,8,,,68,127
110844,note_on,1,0,0,,12,,,71,127
110956,note_off,112,0,0,,12,,,71,127
110957,note_on,1,0,0,,4,,,76,127
111069,note_off,112,0,0,,4,,,76,127
111070,note_on,1,0,0,,12,,,71,127
111182,note_off,112,0,0,,12,,,71,127
111182,note_off,0,0,0,,4,,,52,127
111183,note_on,1,0,0,,8,,,80,127
111183,note_on,0,0,0,,2,,,50,127
111259,note_off,76,0,0,,8,,,80,127
111260,note_on,1,0,0,,6,,,78,127
111333,note_off,73,0,0,,6,,,78,127
111334,note_on,1,0,0,,4,,,76,127
111407,note_off,73,0,0,,4,,,76,127
111407,note_off,0,0,0,,2,,,50,127
111408,note_on,1,0,0,,10,,,81,127
111408,note_on,0,0,0,,1,,,49,127
111520,note_off,112,0,0,,10,,,81,127
111521,note_on,1,0,0,,10,,,69,127
111633,note_off,112,0,0,,10,,,69,127
111633,note_off,0,0,0,,1,,,49,127
111634,note_on,1,0,0,,2,,,74,127
111634,note_on,0,0,0,,6,,,54,127
111746,note_off,112,0,0,,6,,,54,127
111746,note_off,0,0,0,,2,,,74,127
111747,note_on,1,0,0,,12,,,71,127
111747,note_on,0,0,0,,2,,,50,127
111859,note_off,112,0,0,,2,,,50,127
111859,note_off,0,0,0,,12,,,71,127
111860,note_on,1,0,0,,1,,,73,127
111860,note_on,0,0,0,,4,,,52,127
111972,note_off,112,0,0,,1,,,73,127
111973,note_on,1,0,0,,10,,,69,127
112085,note_off,112,0,0,,10,,,69,127
112085,note_off,0,0,0,,4,,,52,127
112086,note_on,1,0,0,,12,,,71,127
112086,note_on,0,0,0,,4,,,40,127
112198,note_off,112,0,0,,12,,,71,127
112199,note_on,1,0,0,,8,,,68,127
112311,note_off,112,0,0,,8,,,68,127
112311,note_off,0,0,0,,4,,,40,127
112312,note_on,1,0,0,,10,,,69,127
112312,note_on,0,0,0,,10,,,45,127
112367,note_off,55,0,0,,10,,,69,127
112443,note_on,76,0,0,,10,,,81,127
112498,note_off,55,0,0,,10,,,81,127
112499,note_on,1,0,0,,8,,,80,127
112554,note_off,55,0,0,,8,,,80,127
112555,note_on,1,0,0,,6,,,78,127
112610,note_off,55,0,0,,6,,,78,127
112611,note_on,1,0,0,,4,,,76,127
112666,note_off,55,0,0,,4,,,76,127
112667,note_on,1,0,0,,2,,,74,127
112722,note_off,55,0,0,,2,,,74,127
112723,note_on,1,0,0,,1,,,73,127
112778,note_off,55,0,0,,1,,,73,127
112779,note_on,1,0,0,,12,,,71,127
112834,note_off,55,0,0,,12,,,71,127
112835,note_on,1,0,0,,10,,,69,127
112890,note_off,55,0,0,,10,,,69,127
112891,note_on,1,0,0,,4,,,76,127
112946,note_off,55,0,0,,4,,,76,127
112947,note_on,1,0,0,,2,,,74,127
113002,note_off,55,0,0,,2,,,74,127
113003,note_on,1,0,0,,1,,,73,127
113058,note_off,55,0,0,,1,,,73,127
113059,note_on,1,0,0,,12,,,71,127
113114,note_off,55,0,0,,12,,,71,127
113115,note_on,1,0,0,,10,,,69,127
113170,note_off,55,0,0,,10,,,69,127
113171,note_on,1,0,0,,8,,,68,127
113226,note_off,55,0,0,,8,,,68,127
113227,note_on,1,0,0,,6,,,66,127
113282,note_off,55,0,0,,6,,,66,127
113283,note_on,1,0,0,,4,,,64,127
113338,note_off,55,0,0,,4,,,64,127
113339,note_on,1,0,0,,10,,,69,127
113394,note_off,55,0,0,,10,,,69,127
113395,note_on,1,0,0,,8,,,68,127
113450,note_off,55,0,0,,8,,,68,127
113451,note_on,1,0,0,,6,,,66,127
113506,note_off,55,0,0,,6,,,66,127
113507,note_on,1,0,0,,4,,,64,127
113562,note_off,55,0,0,,4,,,64,127
113563,note_on,1,0,0,,2,,,62,127
113618,note_off,55,0,0,,2,,,62,127
113619,note_on,1,0,0,,1,,,61,127
113674,note_off,55,0,0,,1,,,61,127
113675,note_on,1,0,0,,12,,,59,127
113711,note_off,36,0,0,,10,,,45,127
113730,note_off,19,0,0,,12,,,59,127
113731,note_on,1,0,0,,10,,,57,127
113844,note_on,113,0,0,,12,,,47,127
113899,note_off,55,0,0,,12,,,47,127
113900,note_on,1,0,0,,1,,,49,127
113955,note_off,55,0,0,,1,,,49,127
113956,note_on,1,0,0,,2,,,50,127
114011,note_off,55,0,0,,2,,,50,127
114012,note_on,1,0,0,,4,,,52,127
114067,note_off,55,0,0,,4,,,52,127
114068,note_on,1,0,0,,6,,,54,127
114123,note_off,55,0,0,,6,,,54,127
114124,note_on,1,0,0,,8,,,56,127
114179,note_off,55,0,0,,8,,,56,127
114179,note_off,0,0,0,,10,,,57,127
114180,note_on,1,0,0,,10,,,57,127
114293,note_on,113,0,0,,12,,,59,127
114348,note_off,55,0,0,,12,,,59,127
114349,note_on,1,0,0,,1,,,61,127
114404,note_off,55,0,0,,1,,,61,127
114405,note_on,1,0,0,,2,,,62,127
114460,note_off,55,0,0,,2,,,62,127
114461,note_on,1,0,0,,4,,,64,127
114516,note_off,55,0,0,,4,,,64,127
114517,note_on,1,0,0,,6,,,66,127
114572,note_off,55,0,0,,6,,,66,127
114573,note_on,1,0,0,,8,,,68,127
114628,note_off,55,0,0,,8,,,68,127
114629,note_on,1,0,0,,10,,,69,127
114741,note_off,112,0,0,,10,,,57,127
114742,note_on,1,0,0,,12,,,59,127
114797,note_off,55,0,0,,12,,,59,127
114798,note_on,1,0,0,,1,,,61,127
114853,note_off,55,0,0,,1,,,61,127
114854,note_on,1,0,0,,2,,,62,127
114909,note_off,55,0,0,,2,,,62,127
114910,note_on,1,0,0,,4,,,64,127
114965,note_off,55,0,0,,4,,,64,127
114966,note_on,1,0,0,,6,,,66,127
115021,note_off,55,0,0,,6,,,66,127
115022,note_on,1,0,0,,8,,,68,127
115077,note_off,55,0,0,,8,,,68,127
115077,note_off,0,0,0,,10,,,69,127
115078,note_on,1,0,0,,10,,,69,127
115191,note_on,113,0,0,,12,,,71,127
115246,note_off,55,0,0,,12,,,71,127
115247,note_on,1,0,0,,1,,,73,127
115302,note_off,55,0,0,,1,,,73,127
115303,note_on,1,0,0,,2,,,74,127
115358,note_off,55,0,0,,2,,,74,127
115359,note_on,1,0,0,,4,,,76,127
115414,note_off,55,0,0,,4,,,76,127
115415,note_on,1,0,0,,6,,,78,127
115470,note_off,55,0,0,,6,,,78,127
115471,note_on,1,0,0,,8,,,80,127
115526,note_off,55,0,0,,8,,,80,127
115527,note_on,1,0,0,,10,,,81,127
115639,note_off,112,0,0,,10,,,81,127
115640,note_on,1,0,0,,12,,,71,127
115695,note_off,55,0,0,,12,,,71,127
115696,note_on,1,0,0,,1,,,73,127
115751,note_off,55,0,0,,1,,,73,127
115752,note_on,1,0,0,,2,,,74,127
115807,note_off,55,0,0,,2,,,74,127
115808,note_on,1,0,0,,4,,,76,127
115863,note_off,55,0,0,,4,,,76,127
115864,note_on,1,0,0,,6,,,78,127
115919,note_off,55,0,0,,6,,,78,127
115920,note_on,1,0,0,,8,,,80,127
115975,note_off,55,0,0,,8,,,80,127
115976,note_on,1,0,0,,10,,,81,127
116088,note_off,112,0,0,,10,,,81,127
116089,note_on,1,0,0,,10,,,81,127
116201,note_off,112,0,0,,10,,,81,127
116202,note_off,1,0,0,,10,,,69,127
116202,note_on,0,0,0,,4,,,76,127
116314,note_off,112,0,0,,4,,,76,127
116315,note_on,1,0,0,,4,,,76,127
116427,note_off,112,0,0,,4,,,76,127
116428,note_on,1,0,0,,1,,,73,127
116540,note_off,112,0,0,,1,,,73,127
116541,note_on,1,0,0,,1,,,73,127
116653,note_off,112,0,0,,1,,,73,127
116654,note_on,1,0,0,,10,,,69,127
116766,note_off,112,0,0,,10,,,69,127
116767,note_on,1,0,0,,10,,,69,127
116879,note_off,112,0,0,,10,,,69,127
116880,note_on,1,0,0,,4,,,64,127
116992,note_off,112,0,0,,4,,,64,127
116993,note_on,1,0,0,,4,,,64,127
117105,note_off,112,0,0,,4,,,64,127
117106,note_on,1,0,0,,1,,,61,127
117218,note_off,112,0,0,,1,,,61,127
117219,note_on,1,0,0,,1,,,61,127
117331,note_off,112,0,0,,1,,,61,127
117332,note_on,1,0,0,,10,,,57,127
117444,note_off,112,0,0,,10,,,57,127
117445,note_on,1,0,0,,10,,,57,127
117557,note_off,112,0,0,,10,,,57,127
117558,note_on,1,0,0,,4,,,52,127
117670,note_off,112,0,0,,4,,,52,127
117671,note_on,1,0,0,,4,,,52,127
117783,note_off,112,0,0,,4,,,52,127
117784,note_on,1,0,0,,10,,,45,127
118010,note_on,226,0,0,,10,,,57,127
118455,note_off,445,0,0,,10,,,45,127
118461,note_off,6,0,0,,10,,,57,127
118536,note_on,75,0,0,,2,,,50,127
118536,note_on,0,0,0,,2,,,38,127
118536,note_on,0,0,0,,6,,,66,127
118536,note_on,0,0,0,,10,,,69,127
118536,note_on,0,0,0,,2,,,74,127
118808,note_off,272,0,0,,2,,,74,127
118808,note_off,0,0,0,,10,,,69,127
118808,note_off,0,0,0,,6,,,66,127
118808,note_off,0,0,0,,2,,,38,127
118808,note_off,0,0,0,,2,,,50,127
118817,note_on,9,0,0,,4,,,52,127
118817,note_on,0,0,0,,4,,,40,127
118817,note_on,0,0,0,,1,,,73,127
118817,note_on,0,0,0,,4,,,64,127
118817,note_on,0,0,0,,10,,,69,127
119364,note_off,547,0,0,,10,,,69,127
119364,note_off,0,0,0,,4,,,64,127
119364,note_off,0,0,0,,1,,,73,127
119364,note_off,0,0,0,,4,,,40,127
119364,note_off,0,0,0,,4,,,52,127
119383,note_on,19,0,0,,4,,,40,127
119383,note_on,0,0,0,,4,,,52,127
119383,note_on,0,0,0,,12,,,71,127
119383,note_on,0,0,0,,2,,,74,127
119383,note_on,0,0,0,,4,,,64,127
119383,note_on,0,0,0,,8,,,68,127
119930,note_off,547,0,0,,8,,,68,127
119930,note_off,0,0,0,,4,,,64,127
119930,note_off,0,0,0,,2,,,74,127
119930,note_off,0,0,0,,12,,,71,127
119930,note_off,0,0,0,,4,,,52,127
119930,note_off,0,0,0,,4,,,40,127
119954,note_on,24,0,0,,10,,,57,127
119954,note_on,0,0,0,,10,,,45,127
119954,note_on,0,0,0,,10,,,69,127
119954,note_on,0,0,0,,1,,,73,127
119954,note_on,0,0,0,,4,,,64,127
121836,note_off,1882,0,0,,4,,,64,127
121836,note_off,0,0,0,,1,,,73,127
121836,note_off,0,0,0,,10,,,69,127
121836,note_off,0,0,0,,10,,,45,127
121836,note_off,0,0,0,,10,,,57,127
127488,end_of_track,5652,1,0,,,,,,
