tick,type,time,meta,track,program,channel,pitch,tempo,note,velocity
0,copyright,0,1,0,,,,,,
0,program_change,0,0,0,6,0,,,,
0,pitchwheel,0,0,0,,0,0,,,
0,program_change,0,0,0,6,1,,,,
0,pitchwheel,0,0,0,,1,-590,,,
0,program_change,0,0,0,6,2,,,,
0,pitchwheel,0,0,0,,2,-272,,,
0,program_change,0,0,0,6,3,,,,
0,pitchwheel,0,0,0,,3,-353,,,
0,program_change,0,0,0,6,4,,,,
0,pitchwheel,0,0,0,,4,-560,,,
0,program_change,0,0,0,6,5,,,,
0,pitchwheel,0,0,0,,5,-80,,,
0,program_change,0,0,0,6,6,,,,
0,pitchwheel,0,0,0,,6,-625,,,
0,program_change,0,0,0,6,7,,,,
0,pitchwheel,0,0,0,,7,-130,,,
0,program_change,0,0,0,6,8,,,,
0,pitchwheel,0,0,0,,8,-512,,,
0,program_change,0,0,0,6,10,,,,
0,pitchwheel,0,0,0,,10,-464,,,
0,program_change,0,0,0,6,11,,,,
0,pitchwheel,0,0,0,,11,-208,,,
0,program_change,0,0,0,6,12,,,,
0,pitchwheel,0,0,0,,12,-553,,,
0,set_tempo,0,1,0,,,,500000,,
121,note_on,121,0,0,,6,,,66,127
242,note_on,121,0,0,,10,,,69,127
303,note_off,61,0,0,,6,,,66,127
364,note_on,61,0,0,,8,,,68,127
368,note_off,4,0,0,,10,,,69,127
485,note_on,117,0,0,,10,,,69,127
489,note_off,4,0,0,,8,,,68,127
606,note_on,117,0,0,,6,,,66,127
610,note_off,4,0,0,,10,,,69,127
727,note_on,117,0,0,,1,,,61,127
788,note_off,61,0,0,,6,,,66,127
849,note_on,61,0,0,,12,,,71,127
853,note_off,4,0,0,,1,,,61,127
970,note_on,117,0,0,,8,,,68,127
974,note_off,4,0,0,,12,,,71,127
1091,note_on,117,0,0,,10,,,69,127
1095,note_off,4,0,0,,8,,,68,127
1212,note_on,117,0,0,,6,,,66,127
1273,note_off,61,0,0,,10,,,69,127
1334,note_on,61,0,0,,2,,,74,127
1338,note_off,4,0,0,,6,,,66,127
1455,note_on,117,0,0,,12,,,71,127
1459,note_off,4,0,0,,2,,,74,127
1576,note_on,117,0,0,,1,,,73,127
1580,note_off,4,0,0,,12,,,71,127
1697,note_on,117,0,0,,10,,,69,127
1758,note_off,61,0,0,,1,,,73,127
1819,note_on,61,0,0,,8,,,80,127
1823,note_off,4,0,0,,10,,,69,127
1940,note_on,117,0,0,,5,,,77,127
1944,note_off,4,0,0,,8,,,80,127
2061,note_on,117,0,0,,6,,,78,127
2065,note_off,4,0,0,,5,,,77,127
2182,note_on,117,0,0,,1,,,73,127
2243,note_off,61,0,0,,6,,,78,127
2304,note_on,61,0,0,,2,,,74,127
2308,note_off,4,0,0,,1,,,73,127
2425,note_on,117,0,0,,12,,,71,127
2429,note_off,4,0,0,,2,,,74,127
2546,note_on,117,0,0,,1,,,73,127
2550,note_off,4,0,0,,12,,,71,127
2667,note_on,117,0,0,,10,,,69,127
2671,note_off,4,0,0,,1,,,73,127
2788,note_on,117,0,0,,12,,,71,127
2792,note_off,4,0,0,,10,,,69,127
2909,note_on,117,0,0,,8,,,68,127
2913,note_off,4,0,0,,12,,,71,127
3030,note_on,117,0,0,,6,,,54,127
3030,note_on,0,0,0,,10,,,69,127
3034,note_off,4,0,0,,8,,,68,127
3151,note_on,117,0,0,,10,,,57,127
3212,note_off,61,0,0,,6,,,54,127
3271,note_off,59,0,0,,10,,,57,127
3272,note_on,1,0,0,,8,,,56,127
3392,note_off,120,0,0,,8,,,56,127
3393,note_on,1,0,0,,10,,,57,127
3513,note_off,120,0,0,,10,,,57,127
3514,note_on,1,0,0,,6,,,54,127
3635,note_on,121,0,0,,1,,,49,127
3665,note_off,30,0,0,,6,,,54,127
3755,note_off,90,0,0,,1,,,49,127
3755,note_off,0,0,0,,10,,,69,127
3756,note_on,1,0,0,,12,,,59,127
3756,note_on,0,0,0,,8,,,68,127
3876,note_off,120,0,0,,12,,,59,127
3877,note_on,1,0,0,,8,,,56,127
3877,note_on,0,0,0,,5,,,65,127
3881,note_off,4,0,0,,8,,,68,127
3997,note_off,116,0,0,,8,,,56,127
3998,note_on,1,0,0,,10,,,57,127
3998,note_on,0,0,0,,6,,,66,127
4002,note_off,4,0,0,,5,,,65,127
4119,note_on,117,0,0,,6,,,54,127
4149,note_off,30,0,0,,10,,,57,127
4239,note_off,90,0,0,,6,,,54,127
4239,note_off,0,0,0,,6,,,66,127
4240,note_on,1,0,0,,2,,,62,127
4240,note_on,0,0,0,,12,,,71,127
4360,note_off,120,0,0,,2,,,62,127
4361,note_on,1,0,0,,12,,,59,127
4361,note_on,0,0,0,,8,,,68,127
4365,note_off,4,0,0,,12,,,71,127
4481,note_off,116,0,0,,12,,,59,127
4482,note_on,1,0,0,,1,,,61,127
4482,note_on,0,0,0,,10,,,69,127
4486,note_off,4,0,0,,8,,,68,127
4603,note_on,117,0,0,,10,,,57,127
4633,note_off,30,0,0,,1,,,61,127
4723,note_off,90,0,0,,10,,,57,127
4723,note_off,0,0,0,,10,,,69,127
4724,note_on,1,0,0,,8,,,68,127
4724,note_on,0,0,0,,12,,,71,127
4844,note_off,120,0,0,,8,,,68,127
4845,note_on,1,0,0,,5,,,65,127
4845,note_on,0,0,0,,8,,,68,127
4849,note_off,4,0,0,,12,,,71,127
4965,note_off,116,0,0,,5,,,65,127
4966,note_on,1,0,0,,6,,,66,127
4966,note_on,0,0,0,,10,,,69,127
4970,note_off,4,0,0,,8,,,68,127
5087,note_on,117,0,0,,1,,,73,127
5117,note_off,30,0,0,,10,,,69,127
5207,note_off,90,0,0,,6,,,66,127
5208,note_on,1,0,0,,2,,,62,127
5208,note_on,0,0,0,,6,,,78,127
5238,note_off,30,0,0,,1,,,73,127
5329,note_on,91,0,0,,12,,,71,127
5448,note_off,119,0,0,,6,,,78,127
5449,note_off,1,0,0,,2,,,62,127
5450,note_on,1,0,0,,1,,,61,127
5450,note_on,0,0,0,,4,,,76,127
5480,note_off,30,0,0,,12,,,71,127
5571,note_on,91,0,0,,10,,,69,127
5690,note_off,119,0,0,,4,,,76,127
5691,note_off,1,0,0,,1,,,61,127
5692,note_on,1,0,0,,12,,,59,127
5692,note_on,0,0,0,,2,,,74,127
5722,note_off,30,0,0,,10,,,69,127
5813,note_on,91,0,0,,8,,,68,127
5932,note_off,119,0,0,,2,,,74,127
5933,note_off,1,0,0,,12,,,59,127
5934,note_on,1,0,0,,10,,,57,127
5934,note_on,0,0,0,,1,,,73,127
5964,note_off,30,0,0,,8,,,68,127
6055,note_on,91,0,0,,6,,,66,127
6174,note_off,119,0,0,,1,,,73,127
6175,note_off,1,0,0,,10,,,57,127
6176,note_on,1,0,0,,8,,,56,127
6176,note_on,0,0,0,,12,,,71,127
6206,note_off,30,0,0,,6,,,66,127
6297,note_on,91,0,0,,5,,,65,127
6416,note_off,119,0,0,,12,,,71,127
6417,note_off,1,0,0,,8,,,56,127
6418,note_on,1,0,0,,6,,,54,127
6418,note_on,0,0,0,,10,,,69,127
6448,note_off,30,0,0,,5,,,65,127
6539,note_on,91,0,0,,6,,,66,127
6658,note_off,119,0,0,,10,,,69,127
6659,note_off,1,0,0,,6,,,54,127
6660,note_on,1,0,0,,1,,,49,127
6660,note_on,0,0,0,,12,,,71,127
6690,note_off,30,0,0,,6,,,66,127
6781,note_on,91,0,0,,8,,,68,127
6900,note_off,119,0,0,,12,,,71,127
6901,note_off,1,0,0,,1,,,49,127
6902,note_on,1,0,0,,6,,,42,127
6902,note_on,0,0,0,,10,,,69,127
6932,note_off,30,0,0,,8,,,68,127
6961,note_off,29,0,0,,10,,,69,127
6962,note_on,1,0,0,,8,,,68,127
7021,note_off,59,0,0,,8,,,68,127
7022,note_on,1,0,0,,6,,,66,127
7142,note_off,120,0,0,,6,,,42,127
7143,note_on,1,0,0,,2,,,62,127
7143,note_on,0,0,0,,6,,,78,127
7173,note_off,30,0,0,,6,,,66,127
7264,note_on,91,0,0,,12,,,71,127
7332,note_off,68,0,0,,6,,,78,127
7384,note_off,52,0,0,,2,,,62,127
7385,note_on,1,0,0,,1,,,61,127
7385,note_on,0,0,0,,4,,,76,127
7415,note_off,30,0,0,,12,,,71,127
7506,note_on,91,0,0,,10,,,69,127
7574,note_off,68,0,0,,4,,,76,127
7626,note_off,52,0,0,,1,,,61,127
7627,note_on,1,0,0,,12,,,59,127
7627,note_on,0,0,0,,2,,,74,127
7657,note_off,30,0,0,,10,,,69,127
7748,note_on,91,0,0,,8,,,68,127
7816,note_off,68,0,0,,2,,,74,127
7868,note_off,52,0,0,,12,,,59,127
7869,note_on,1,0,0,,10,,,57,127
7869,note_on,0,0,0,,1,,,73,127
7899,note_off,30,0,0,,8,,,68,127
7990,note_on,91,0,0,,6,,,66,127
8058,note_off,68,0,0,,1,,,73,127
8110,note_off,52,0,0,,10,,,57,127
8111,note_on,1,0,0,,8,,,56,127
8111,note_on,0,0,0,,12,,,71,127
8141,note_off,30,0,0,,6,,,66,127
8232,note_on,91,0,0,,5,,,65,127
8300,note_off,68,0,0,,12,,,71,127
8352,note_off,52,0,0,,8,,,56,127
8353,note_on,1,0,0,,6,,,54,127
8353,note_on,0,0,0,,10,,,69,127
8383,note_off,30,0,0,,5,,,65,127
8474,note_on,91,0,0,,6,,,66,127
8542,note_off,68,0,0,,10,,,69,127
8594,note_off,52,0,0,,6,,,54,127
8595,note_on,1,0,0,,1,,,49,127
8595,note_on,0,0,0,,12,,,71,127
8625,note_off,30,0,0,,6,,,66,127
8716,note_on,91,0,0,,8,,,68,127
8784,note_off,68,0,0,,12,,,71,127
8836,note_off,52,0,0,,1,,,49,127
8837,note_on,1,0,0,,6,,,42,127
8837,note_on,0,0,0,,10,,,69,127
8867,note_off,30,0,0,,8,,,68,127
8896,note_off,29,0,0,,10,,,69,127
8897,note_on,1,0,0,,8,,,68,127
8956,note_off,59,0,0,,8,,,68,127
8957,note_on,1,0,0,,6,,,66,127
9077,note_off,120,0,0,,6,,,42,127
9078,note_on,1,0,0,,2,,,62,127
9078,note_on,0,0,0,,6,,,78,127
9108,note_off,30,0,0,,6,,,66,127
9199,note_on,91,0,0,,12,,,71,127
9229,note_off,30,0,0,,6,,,78,127
9319,note_off,90,0,0,,2,,,62,127
9320,note_on,1,0,0,,1,,,61,127
9320,note_on,0,0,0,,4,,,76,127
9350,note_off,30,0,0,,12,,,71,127
9441,note_on,91,0,0,,10,,,69,127
9471,note_off,30,0,0,,4,,,76,127
9561,note_off,90,0,0,,1,,,61,127
9562,note_on,1,0,0,,12,,,59,127
9562,note_on,0,0,0,,2,,,74,127
9592,note_off,30,0,0,,10,,,69,127
9683,note_on,91,0,0,,8,,,68,127
9713,note_off,30,0,0,,2,,,74,127
9803,note_off,90,0,0,,12,,,59,127
9804,note_on,1,0,0,,10,,,57,127
9804,note_on,0,0,0,,1,,,73,127
9834,note_off,30,0,0,,8,,,68,127
9925,note_on,91,0,0,,6,,,66,127
9955,note_off,30,0,0,,1,,,73,127
10045,note_off,90,0,0,,10,,,57,127
10046,note_on,1,0,0,,8,,,56,127
10046,note_on,0,0,0,,12,,,71,127
10076,note_off,30,0,0,,6,,,66,127
10167,note_on,91,0,0,,5,,,65,127
10197,note_off,30,0,0,,12,,,71,127
10287,note_off,90,0,0,,8,,,56,127
10288,note_on,1,0,0,,6,,,54,127
10288,note_on,0,0,0,,10,,,69,127
10318,note_off,30,0,0,,5,,,65,127
10409,note_on,91,0,0,,6,,,66,127
10439,note_off,30,0,0,,10,,,69,127
10529,note_off,90,0,0,,6,,,54,127
10530,note_on,1,0,0,,1,,,49,127
10530,note_on,0,0,0,,12,,,71,127
10560,note_off,30,0,0,,6,,,66,127
10651,note_on,91,0,0,,8,,,68,127
10681,note_off,30,0,0,,12,,,71,127
10771,note_off,90,0,0,,1,,,49,127
10772,note_on,1,0,0,,6,,,54,127
10772,note_on,0,0,0,,10,,,69,127
10802,note_off,30,0,0,,8,,,68,127
10831,note_off,29,0,0,,10,,,69,127
10832,note_on,1,0,0,,8,,,68,127
10891,note_off,59,0,0,,8,,,68,127
10892,note_on,1,0,0,,6,,,66,127
11012,note_off,120,0,0,,6,,,66,127
11012,note_off,0,0,0,,6,,,54,127
11013,note_on,1,0,0,,1,,,73,127
11013,note_on,0,0,0,,1,,,61,127
11133,note_off,120,0,0,,1,,,61,127
11134,note_on,1,0,0,,6,,,66,127
11254,note_off,120,0,0,,6,,,66,127
11254,note_off,0,0,0,,1,,,73,127
11255,note_on,1,0,0,,2,,,74,127
11255,note_on,0,0,0,,10,,,69,127
11375,note_off,120,0,0,,10,,,69,127
11376,note_on,1,0,0,,6,,,66,127
11496,note_off,120,0,0,,6,,,66,127
11496,note_off,0,0,0,,2,,,74,127
11497,note_on,1,0,0,,1,,,73,127
11497,note_on,0,0,0,,1,,,61,127
11617,note_off,120,0,0,,1,,,61,127
11618,note_on,1,0,0,,6,,,66,127
11738,note_off,120,0,0,,6,,,66,127
11738,note_off,0,0,0,,1,,,73,127
11739,note_on,1,0,0,,1,,,49,127
11739,note_on,0,0,0,,8,,,68,127
11859,note_off,120,0,0,,8,,,68,127
11860,note_on,1,0,0,,5,,,65,127
11980,note_off,120,0,0,,5,,,65,127
11980,note_off,0,0,0,,1,,,49,127
11981,note_on,1,0,0,,1,,,73,127
11981,note_on,0,0,0,,1,,,61,127
12101,note_off,120,0,0,,1,,,61,127
12102,note_on,1,0,0,,5,,,65,127
12222,note_off,120,0,0,,5,,,65,127
12222,note_off,0,0,0,,1,,,73,127
12223,note_on,1,0,0,,2,,,74,127
12223,note_on,0,0,0,,8,,,68,127
12343,note_off,120,0,0,,8,,,68,127
12344,note_on,1,0,0,,5,,,65,127
12464,note_off,120,0,0,,5,,,65,127
12464,note_off,0,0,0,,2,,,74,127
12465,note_on,1,0,0,,1,,,73,127
12465,note_on,0,0,0,,1,,,61,127
12585,note_off,120,0,0,,1,,,61,127
12586,note_on,1,0,0,,5,,,65,127
12706,note_off,120,0,0,,5,,,65,127
12706,note_off,0,0,0,,1,,,73,127
12707,note_on,1,0,0,,6,,,54,127
12707,note_on,0,0,0,,10,,,69,127
12827,note_off,120,0,0,,10,,,69,127
12828,note_on,1,0,0,,6,,,66,127
12948,note_off,120,0,0,,6,,,66,127
12948,note_off,0,0,0,,6,,,54,127
12949,note_on,1,0,0,,1,,,73,127
12949,note_on,0,0,0,,1,,,61,127
13069,note_off,120,0,0,,1,,,61,127
13070,note_on,1,0,0,,6,,,66,127
13190,note_off,120,0,0,,6,,,66,127
13190,note_off,0,0,0,,1,,,73,127
13191,note_on,1,0,0,,2,,,74,127
13191,note_on,0,0,0,,10,,,69,127
13311,note_off,120,0,0,,10,,,69,127
13312,note_on,1,0,0,,6,,,66,127
13432,note_off,120,0,0,,6,,,66,127
13432,note_off,0,0,0,,2,,,74,127
13433,note_on,1,0,0,,1,,,73,127
13433,note_on,0,0,0,,1,,,61,127
13553,note_off,120,0,0,,1,,,61,127
13554,note_on,1,0,0,,6,,,66,127
13674,note_off,120,0,0,,6,,,66,127
13674,note_off,0,0,0,,1,,,73,127
13675,note_on,1,0,0,,1,,,49,127
13675,note_on,0,0,0,,8,,,68,127
13795,note_off,120,0,0,,8,,,68,127
13796,note_on,1,0,0,,5,,,65,127
13916,note_off,120,0,0,,5,,,65,127
13916,note_off,0,0,0,,1,,,49,127
13917,note_on,1,0,0,,1,,,73,127
13917,note_on,0,0,0,,1,,,61,127
14037,note_off,120,0,0,,1,,,61,127
14038,note_on,1,0,0,,5,,,65,127
14158,note_off,120,0,0,,5,,,65,127
14158,note_off,0,0,0,,1,,,73,127
14159,note_on,1,0,0,,2,,,74,127
14159,note_on,0,0,0,,8,,,68,127
14279,note_off,120,0,0,,8,,,68,127
14280,note_on,1,0,0,,5,,,65,127
14400,note_off,120,0,0,,5,,,65,127
14400,note_off,0,0,0,,2,,,74,127
14401,note_on,1,0,0,,1,,,73,127
14401,note_on,0,0,0,,1,,,61,127
14521,note_off,120,0,0,,1,,,61,127
14522,note_on,1,0,0,,5,,,65,127
14642,note_off,120,0,0,,5,,,65,127
14642,note_off,0,0,0,,1,,,73,127
14643,note_on,1,0,0,,6,,,54,127
14643,note_on,0,0,0,,10,,,69,127
14764,note_on,121,0,0,,1,,,61,127
14884,note_off,120,0,0,,1,,,61,127
14884,note_off,0,0,0,,6,,,54,127
14885,note_on,1,0,0,,8,,,56,127
14885,note_on,0,0,0,,0,,,60,127
14996,note_off,111,0,0,,10,,,69,127
15006,note_on,10,0,0,,8,,,68,127
15067,note_off,61,0,0,,0,,,60,127
15126,note_off,59,0,0,,8,,,56,127
15127,note_on,1,0,0,,10,,,57,127
15127,note_on,0,0,0,,1,,,61,127
15246,note_off,119,0,0,,8,,,68,127
15249,note_on,3,0,0,,6,,,66,127
15310,note_off,61,0,0,,1,,,61,127
15369,note_off,59,0,0,,6,,,66,127
15369,note_off,0,0,0,,10,,,57,127
15370,note_on,1,0,0,,0,,,60,127
15370,note_on,0,0,0,,4,,,64,127
15490,note_off,120,0,0,,4,,,64,127
15491,note_on,1,0,0,,3,,,63,127
15611,note_off,120,0,0,,3,,,63,127
15611,note_off,0,0,0,,0,,,60,127
15612,note_on,1,0,0,,1,,,61,127
15612,note_on,0,0,0,,4,,,64,127
15733,note_on,121,0,0,,4,,,76,127
15852,note_off,119,0,0,,4,,,64,127
15853,note_off,1,0,0,,1,,,61,127
15854,note_on,1,0,0,,3,,,63,127
15854,note_on,0,0,0,,6,,,66,127
15973,note_off,119,0,0,,4,,,76,127
15976,note_on,3,0,0,,3,,,75,127
16037,note_off,61,0,0,,6,,,66,127
16096,note_off,59,0,0,,3,,,63,127
16097,note_on,1,0,0,,4,,,64,127
16097,note_on,0,0,0,,8,,,68,127
16216,note_off,119,0,0,,3,,,75,127
16219,note_on,3,0,0,,8,,,80,127
16280,note_off,61,0,0,,8,,,68,127
16339,note_off,59,0,0,,4,,,64,127
16340,note_on,1,0,0,,10,,,69,127
16340,note_on,0,0,0,,1,,,73,127
16459,note_off,119,0,0,,8,,,80,127
16462,note_on,3,0,0,,6,,,78,127
16523,note_off,61,0,0,,1,,,73,127
16582,note_off,59,0,0,,6,,,78,127
16582,note_off,0,0,0,,10,,,69,127
16583,note_on,1,0,0,,8,,,68,127
16583,note_on,0,0,0,,8,,,80,127
16704,note_on,121,0,0,,1,,,73,127
16824,note_off,120,0,0,,1,,,73,127
16824,note_off,0,0,0,,8,,,68,127
16825,note_on,1,0,0,,6,,,66,127
16825,note_on,0,0,0,,3,,,75,127
16945,note_off,120,0,0,,3,,,75,127
16946,note_on,1,0,0,,0,,,72,127
17066,note_off,120,0,0,,0,,,72,127
17066,note_off,0,0,0,,6,,,66,127
17067,note_on,1,0,0,,4,,,64,127
17067,note_on,0,0,0,,1,,,73,127
17188,note_off,121,0,0,,8,,,80,127
17188,note_on,0,0,0,,10,,,81,127
17307,note_off,119,0,0,,1,,,73,127
17308,note_off,1,0,0,,10,,,81,127
17308,note_off,0,0,0,,4,,,64,127
17309,note_on,1,0,0,,3,,,63,127
17309,note_on,0,0,0,,8,,,80,127
17429,note_off,120,0,0,,8,,,80,127
17430,note_on,1,0,0,,6,,,78,127
17550,note_off,120,0,0,,6,,,78,127
17550,note_off,0,0,0,,3,,,63,127
17551,note_on,1,0,0,,1,,,61,127
17551,note_on,0,0,0,,4,,,76,127
17610,note_off,59,0,0,,4,,,76,127
17611,note_on,1,0,0,,3,,,75,127
17670,note_off,59,0,0,,3,,,75,127
17671,note_on,1,0,0,,1,,,73,127
17791,note_off,120,0,0,,1,,,73,127
17791,note_off,0,0,0,,1,,,61,127
17792,note_on,1,0,0,,8,,,80,127
17792,note_on,0,0,0,,8,,,68,127
17912,note_off,120,0,0,,8,,,68,127
17913,note_on,1,0,0,,1,,,73,127
18033,note_off,120,0,0,,1,,,73,127
18033,note_off,0,0,0,,8,,,80,127
18034,note_on,1,0,0,,10,,,81,127
18034,note_on,0,0,0,,4,,,76,127
18154,note_off,120,0,0,,4,,,76,127
18155,note_on,1,0,0,,1,,,73,127
18275,note_off,120,0,0,,1,,,73,127
18275,note_off,0,0,0,,10,,,81,127
18276,note_on,1,0,0,,8,,,80,127
18276,note_on,0,0,0,,8,,,68,127
18396,note_off,120,0,0,,8,,,68,127
18397,note_on,1,0,0,,1,,,73,127
18517,note_off,120,0,0,,1,,,73,127
18517,note_off,0,0,0,,8,,,80,127
18518,note_on,1,0,0,,8,,,56,127
18518,note_on,0,0,0,,3,,,75,127
18638,note_off,120,0,0,,3,,,75,127
18639,note_on,1,0,0,,0,,,72,127
18759,note_off,120,0,0,,0,,,72,127
18759,note_off,0,0,0,,8,,,56,127
18760,note_on,1,0,0,,8,,,80,127
18760,note_on,0,0,0,,8,,,68,127
18880,note_off,120,0,0,,8,,,68,127
18881,note_on,1,0,0,,0,,,72,127
19001,note_off,120,0,0,,0,,,72,127
19001,note_off,0,0,0,,8,,,80,127
19002,note_on,1,0,0,,10,,,81,127
19002,note_on,0,0,0,,3,,,75,127
19122,note_off,120,0,0,,3,,,75,127
19123,note_on,1,0,0,,0,,,72,127
19243,note_off,120,0,0,,0,,,72,127
19243,note_off,0,0,0,,10,,,81,127
19244,note_on,1,0,0,,8,,,80,127
19244,note_on,0,0,0,,8,,,68,127
19364,note_off,120,0,0,,8,,,68,127
19365,note_on,1,0,0,,0,,,72,127
19485,note_off,120,0,0,,0,,,72,127
19485,note_off,0,0,0,,8,,,80,127
19486,note_on,1,0,0,,1,,,49,127
19486,note_on,0,0,0,,4,,,76,127
19606,note_off,120,0,0,,4,,,76,127
19607,note_on,1,0,0,,1,,,73,127
19727,note_off,120,0,0,,1,,,73,127
19727,note_off,0,0,0,,1,,,49,127
19728,note_on,1,0,0,,8,,,80,127
19728,note_on,0,0,0,,8,,,68,127
19848,note_off,120,0,0,,8,,,68,127
19849,note_on,1,0,0,,1,,,73,127
19969,note_off,120,0,0,,1,,,73,127
19969,note_off,0,0,0,,8,,,80,127
19970,note_on,1,0,0,,10,,,81,127
19970,note_on,0,0,0,,4,,,76,127
20090,note_off,120,0,0,,4,,,76,127
20091,note_on,1,0,0,,1,,,73,127
20211,note_off,120,0,0,,1,,,73,127
20211,note_off,0,0,0,,10,,,81,127
20212,note_on,1,0,0,,8,,,80,127
20212,note_on,0,0,0,,8,,,68,127
20332,note_off,120,0,0,,8,,,68,127
20333,note_on,1,0,0,,1,,,73,127
20453,note_off,120,0,0,,1,,,73,127
20453,note_off,0,0,0,,8,,,80,127
20454,note_on,1,0,0,,8,,,56,127
20454,note_on,0,0,0,,3,,,75,127
20574,note_off,120,0,0,,3,,,75,127
20575,note_on,1,0,0,,0,,,72,127
20695,note_off,120,0,0,,0,,,72,127
20695,note_off,0,0,0,,8,,,56,127
20696,note_on,1,0,0,,8,,,80,127
20696,note_on,0,0,0,,8,,,68,127
20816,note_off,120,0,0,,8,,,68,127
20817,note_on,1,0,0,,0,,,72,127
20937,note_off,120,0,0,,0,,,72,127
20937,note_off,0,0,0,,8,,,80,127
20938,note_on,1,0,0,,10,,,81,127
20938,note_on,0,0,0,,3,,,75,127
21058,note_off,120,0,0,,3,,,75,127
21059,note_on,1,0,0,,0,,,72,127
21179,note_off,120,0,0,,0,,,72,127
21179,note_off,0,0,0,,10,,,81,127
21180,note_on,1,0,0,,8,,,80,127
21180,note_on,0,0,0,,8,,,68,127
21300,note_off,120,0,0,,8,,,68,127
21301,note_on,1,0,0,,0,,,72,127
21421,note_off,120,0,0,,0,,,72,127
21421,note_off,0,0,0,,8,,,80,127
21422,note_on,1,0,0,,1,,,61,127
21422,note_on,0,0,0,,4,,,76,127
21481,note_off,59,0,0,,4,,,76,127
21482,note_on,1,0,0,,3,,,75,127
21541,note_off,59,0,0,,3,,,75,127
21542,note_on,1,0,0,,1,,,73,127
21662,note_off,120,0,0,,1,,,73,127
21662,note_off,0,0,0,,1,,,61,127
21663,note_on,1,0,0,,6,,,66,127
21663,note_on,0,0,0,,10,,,81,127
21784,note_on,121,0,0,,3,,,75,127
21903,note_off,119,0,0,,10,,,81,127
21904,note_off,1,0,0,,6,,,66,127
21905,note_on,1,0,0,,4,,,64,127
21905,note_on,0,0,0,,8,,,80,127
21966,note_off,61,0,0,,3,,,75,127
22027,note_on,61,0,0,,1,,,73,127
22146,note_off,119,0,0,,8,,,80,127
22147,note_off,1,0,0,,4,,,64,127
22148,note_on,1,0,0,,3,,,63,127
22148,note_on,0,0,0,,6,,,78,127
22209,note_off,61,0,0,,1,,,73,127
22270,note_on,61,0,0,,0,,,72,127
22389,note_off,119,0,0,,6,,,78,127
22390,note_off,1,0,0,,0,,,72,127
22390,note_off,0,0,0,,3,,,63,127
22391,note_on,1,0,0,,1,,,61,127
22391,note_on,0,0,0,,4,,,76,127
22450,note_off,59,0,0,,4,,,76,127
22451,note_on,1,0,0,,3,,,75,127
22510,note_off,59,0,0,,3,,,75,127
22511,note_on,1,0,0,,1,,,73,127
22631,note_off,120,0,0,,1,,,73,127
22631,note_off,0,0,0,,1,,,61,127
22632,note_on,1,0,0,,6,,,66,127
22632,note_on,0,0,0,,10,,,81,127
22753,note_on,121,0,0,,3,,,75,127
22821,note_off,68,0,0,,10,,,81,127
22873,note_off,52,0,0,,6,,,66,127
22874,note_on,1,0,0,,4,,,64,127
22874,note_on,0,0,0,,8,,,80,127
22904,note_off,30,0,0,,3,,,75,127
22995,note_on,91,0,0,,1,,,73,127
23063,note_off,68,0,0,,8,,,80,127
23115,note_off,52,0,0,,4,,,64,127
23116,note_on,1,0,0,,3,,,63,127
23116,note_on,0,0,0,,6,,,78,127
23146,note_off,30,0,0,,1,,,73,127
23237,note_on,91,0,0,,0,,,72,127
23305,note_off,68,0,0,,6,,,78,127
23357,note_off,52,0,0,,0,,,72,127
23357,note_off,0,0,0,,3,,,63,127
23358,note_on,1,0,0,,1,,,61,127
23358,note_on,0,0,0,,4,,,76,127
23417,note_off,59,0,0,,4,,,76,127
23418,note_on,1,0,0,,3,,,75,127
23477,note_off,59,0,0,,3,,,75,127
23478,note_on,1,0,0,,1,,,73,127
23598,note_off,120,0,0,,1,,,73,127
23598,note_off,0,0,0,,1,,,61,127
23599,note_on,1,0,0,,6,,,66,127
23599,note_on,0,0,0,,10,,,81,127
23719,note_off,120,0,0,,10,,,81,127
23720,note_on,1,0,0,,3,,,75,127
23840,note_off,120,0,0,,3,,,75,127
23840,note_off,0,0,0,,6,,,66,127
23841,note_on,1,0,0,,4,,,64,127
23841,note_on,0,0,0,,8,,,80,127
23961,note_off,120,0,0,,8,,,80,127
23962,note_on,1,0,0,,1,,,73,127
24082,note_off,120,0,0,,1,,,73,127
24082,note_off,0,0,0,,4,,,64,127
24083,note_on,1,0,0,,2,,,62,127
24083,note_on,0,0,0,,6,,,78,127
24203,note_off,120,0,0,,6,,,78,127
24204,note_on,1,0,0,,12,,,71,127
24324,note_off,120,0,0,,12,,,71,127
24324,note_off,0,0,0,,2,,,62,127
24325,note_on,1,0,0,,1,,,61,127
24325,note_on,0,0,0,,5,,,77,127
24445,note_off,120,0,0,,5,,,77,127
24446,note_on,1,0,0,,1,,,73,127
24566,note_off,120,0,0,,1,,,73,127
24566,note_off,0,0,0,,1,,,61,127
24567,note_on,1,0,0,,12,,,59,127
24567,note_on,0,0,0,,2,,,74,127
24567,note_on,0,0,0,,5,,,77,127
24687,note_off,120,0,0,,2,,,74,127
24688,note_on,1,0,0,,12,,,71,127
24808,note_off,120,0,0,,12,,,71,127
24808,note_off,0,0,0,,5,,,77,127
24808,note_off,0,0,0,,12,,,59,127
24809,note_on,1,0,0,,10,,,57,127
24809,note_on,0,0,0,,1,,,73,127
24809,note_on,0,0,0,,6,,,78,127
24929,note_off,120,0,0,,1,,,73,127
24930,note_on,1,0,0,,10,,,69,127
25050,note_off,120,0,0,,10,,,69,127
25050,note_off,0,0,0,,6,,,78,127
25050,note_off,0,0,0,,10,,,57,127
25051,note_on,1,0,0,,8,,,56,127
25051,note_on,0,0,0,,8,,,80,127
25051,note_on,0,0,0,,2,,,74,127
25171,note_off,120,0,0,,2,,,74,127
25172,note_on,1,0,0,,12,,,71,127
25292,note_off,120,0,0,,12,,,71,127
25292,note_off,0,0,0,,8,,,80,127
25292,note_off,0,0,0,,8,,,56,127
25293,note_on,1,0,0,,6,,,54,127
25293,note_on,0,0,0,,10,,,81,127
25413,note_off,120,0,0,,10,,,81,127
25414,note_on,1,0,0,,8,,,80,127
25534,note_off,120,0,0,,8,,,80,127
25534,note_off,0,0,0,,6,,,54,127
25535,note_on,1,0,0,,10,,,57,127
25535,note_on,0,0,0,,6,,,78,127
25655,note_off,120,0,0,,6,,,78,127
25656,note_on,1,0,0,,4,,,76,127
25776,note_off,120,0,0,,4,,,76,127
25776,note_off,0,0,0,,10,,,57,127
25777,note_on,1,0,0,,12,,,59,127
25777,note_on,0,0,0,,3,,,75,127
25897,note_off,120,0,0,,3,,,75,127
25898,note_on,1,0,0,,1,,,73,127
26018,note_off,120,0,0,,1,,,73,127
26018,note_off,0,0,0,,12,,,59,127
26019,note_on,1,0,0,,3,,,51,127
26019,note_on,0,0,0,,12,,,71,127
26139,note_off,120,0,0,,12,,,71,127
26140,note_on,1,0,0,,10,,,69,127
26260,note_off,120,0,0,,10,,,69,127
26260,note_off,0,0,0,,3,,,51,127
26261,note_on,1,0,0,,4,,,52,127
26261,note_on,0,0,0,,8,,,80,127
26381,note_off,120,0,0,,8,,,80,127
26382,note_on,1,0,0,,6,,,78,127
26502,note_off,120,0,0,,6,,,78,127
26502,note_off,0,0,0,,4,,,52,127
26503,note_on,1,0,0,,8,,,56,127
26503,note_on,0,0,0,,4,,,76,127
26623,note_off,120,0,0,,4,,,76,127
26624,note_on,1,0,0,,3,,,75,127
26744,note_off,120,0,0,,3,,,75,127
26744,note_off,0,0,0,,8,,,56,127
26745,note_on,1,0,0,,10,,,45,127
26745,note_on,0,0,0,,4,,,76,127
26804,note_off,59,0,0,,4,,,76,127
26805,note_on,1,0,0,,3,,,75,127
26864,note_off,59,0,0,,3,,,75,127
26865,note_on,1,0,0,,1,,,73,127
26985,note_off,120,0,0,,1,,,73,127
26986,note_on,1,0,0,,10,,,57,127
26986,note_on,0,0,0,,0,,,72,127
27106,note_off,120,0,0,,0,,,72,127
27107,note_off,1,0,0,,10,,,45,127
27107,note_on,0,0,0,,1,,,73,127
27227,note_off,120,0,0,,1,,,73,127
27227,note_off,0,0,0,,10,,,57,127
27228,note_on,1,0,0,,8,,,56,127
27228,note_on,0,0,0,,3,,,75,127
27348,note_off,120,0,0,,3,,,75,127
27349,note_on,1,0,0,,10,,,69,127
27469,note_off,120,0,0,,10,,,69,127
27469,note_off,0,0,0,,8,,,56,127
27470,note_on,1,0,0,,0,,,48,127
27470,note_on,0,0,0,,8,,,68,127
27590,note_off,120,0,0,,8,,,68,127
27591,note_on,1,0,0,,6,,,66,127
27711,note_off,120,0,0,,6,,,66,127
27711,note_off,0,0,0,,0,,,48,127
27712,note_on,1,0,0,,1,,,49,127
27712,note_on,0,0,0,,4,,,64,127
27771,note_off,59,0,0,,4,,,64,127
27772,note_on,1,0,0,,3,,,63,127
27831,note_off,59,0,0,,3,,,63,127
27832,note_on,1,0,0,,1,,,61,127
27952,note_off,120,0,0,,1,,,61,127
27952,note_off,0,0,0,,1,,,49,127
27953,note_on,1,0,0,,10,,,45,127
27953,note_on,0,0,0,,0,,,60,127
28073,note_off,120,0,0,,0,,,60,127
28074,note_on,1,0,0,,1,,,61,127
28194,note_off,120,0,0,,1,,,61,127
28194,note_off,0,0,0,,10,,,45,127
28195,note_on,1,0,0,,8,,,44,127
28195,note_on,0,0,0,,3,,,63,127
28315,note_off,120,0,0,,3,,,63,127
28316,note_on,1,0,0,,0,,,60,127
28435,note_off,119,0,0,,8,,,44,127
28436,note_off,1,0,0,,0,,,60,127
28437,note_on,1,0,0,,8,,,68,127
28437,note_on,0,0,0,,8,,,56,127
28557,note_off,120,0,0,,8,,,56,127
28558,note_on,1,0,0,,0,,,60,127
28678,note_off,120,0,0,,0,,,60,127
28678,note_off,0,0,0,,8,,,68,127
28679,note_on,1,0,0,,10,,,69,127
28679,note_on,0,0,0,,3,,,63,127
28799,note_off,120,0,0,,3,,,63,127
28800,note_on,1,0,0,,0,,,60,127
28920,note_off,120,0,0,,0,,,60,127
28920,note_off,0,0,0,,10,,,69,127
28921,note_on,1,0,0,,8,,,68,127
28921,note_on,0,0,0,,8,,,56,127
29041,note_off,120,0,0,,8,,,56,127
29042,note_on,1,0,0,,0,,,60,127
29162,note_off,120,0,0,,0,,,60,127
29162,note_off,0,0,0,,8,,,68,127
29163,note_on,1,0,0,,1,,,49,127
29163,note_on,0,0,0,,4,,,64,127
29283,note_off,120,0,0,,4,,,64,127
29284,note_on,1,0,0,,1,,,61,127
29403,note_off,119,0,0,,1,,,49,127
29404,note_off,1,0,0,,1,,,61,127
29405,note_on,1,0,0,,8,,,68,127
29405,note_on,0,0,0,,8,,,56,127
29525,note_off,120,0,0,,8,,,56,127
29526,note_on,1,0,0,,1,,,61,127
29646,note_off,120,0,0,,1,,,61,127
29646,note_off,0,0,0,,8,,,68,127
29647,note_on,1,0,0,,10,,,69,127
29647,note_on,0,0,0,,4,,,64,127
29767,note_off,120,0,0,,4,,,64,127
29768,note_on,1,0,0,,1,,,61,127
29888,note_off,120,0,0,,1,,,61,127
29888,note_off,0,0,0,,10,,,69,127
29889,note_on,1,0,0,,8,,,68,127
29889,note_on,0,0,0,,8,,,56,127
30009,note_off,120,0,0,,8,,,56,127
30010,note_on,1,0,0,,1,,,61,127
30130,note_off,120,0,0,,1,,,61,127
30130,note_off,0,0,0,,8,,,68,127
30131,note_on,1,0,0,,8,,,44,127
30131,note_on,0,0,0,,3,,,63,127
30251,note_off,120,0,0,,3,,,63,127
30252,note_on,1,0,0,,0,,,60,127
30371,note_off,119,0,0,,8,,,44,127
30372,note_off,1,0,0,,0,,,60,127
30373,note_on,1,0,0,,8,,,68,127
30373,note_on,0,0,0,,8,,,56,127
30493,note_off,120,0,0,,8,,,56,127
30494,note_on,1,0,0,,0,,,60,127
30614,note_off,120,0,0,,0,,,60,127
30614,note_off,0,0,0,,8,,,68,127
30615,note_on,1,0,0,,10,,,69,127
30615,note_on,0,0,0,,3,,,63,127
30735,note_off,120,0,0,,3,,,63,127
30736,note_on,1,0,0,,0,,,60,127
30856,note_off,120,0,0,,0,,,60,127
30856,note_off,0,0,0,,10,,,69,127
30857,note_on,1,0,0,,8,,,68,127
30857,note_on,0,0,0,,8,,,56,127
30977,note_off,120,0,0,,8,,,56,127
30978,note_on,1,0,0,,0,,,60,127
31098,note_off,120,0,0,,0,,,60,127
31098,note_off,0,0,0,,8,,,68,127
31099,note_on,1,0,0,,1,,,37,127
31099,note_on,0,0,0,,4,,,64,127
31219,note_off,120,0,0,,4,,,64,127
31220,note_on,1,0,0,,1,,,61,127
31340,note_off,120,0,0,,1,,,61,127
31340,note_off,0,0,0,,1,,,37,127
31341,note_on,1,0,0,,8,,,68,127
31341,note_on,0,0,0,,8,,,56,127
31461,note_off,120,0,0,,8,,,56,127
31462,note_on,1,0,0,,1,,,61,127
31582,note_off,120,0,0,,1,,,61,127
31582,note_off,0,0,0,,8,,,68,127
31583,note_on,1,0,0,,10,,,69,127
31583,note_on,0,0,0,,4,,,64,127
31703,note_off,120,0,0,,4,,,64,127
31704,note_on,1,0,0,,1,,,61,127
31824,note_off,120,0,0,,1,,,61,127
31824,note_off,0,0,0,,10,,,69,127
31825,note_on,1,0,0,,8,,,68,127
31825,note_on,0,0,0,,8,,,56,127
31945,note_off,120,0,0,,8,,,56,127
31946,note_on,1,0,0,,1,,,61,127
32066,note_off,120,0,0,,1,,,61,127
32066,note_off,0,0,0,,8,,,68,127
32067,note_on,1,0,0,,8,,,44,127
32067,note_on,0,0,0,,3,,,63,127
32187,note_off,120,0,0,,3,,,63,127
32188,note_on,1,0,0,,0,,,60,127
32308,note_off,120,0,0,,0,,,60,127
32308,note_off,0,0,0,,8,,,44,127
32309,note_on,1,0,0,,8,,,68,127
32309,note_on,0,0,0,,8,,,56,127
32429,note_off,120,0,0,,8,,,56,127
32430,note_on,1,0,0,,0,,,60,127
32550,note_off,120,0,0,,0,,,60,127
32550,note_off,0,0,0,,8,,,68,127
32551,note_on,1,0,0,,10,,,69,127
32551,note_on,0,0,0,,3,,,63,127
32671,note_off,120,0,0,,3,,,63,127
32672,note_on,1,0,0,,0,,,60,127
32792,note_off,120,0,0,,0,,,60,127
32792,note_off,0,0,0,,10,,,69,127
32793,note_on,1,0,0,,8,,,68,127
32793,note_on,0,0,0,,8,,,56,127
32913,note_off,120,0,0,,8,,,56,127
32914,note_on,1,0,0,,0,,,60,127
33034,note_off,120,0,0,,0,,,60,127
33034,note_off,0,0,0,,8,,,68,127
33035,note_on,1,0,0,,1,,,49,127
33035,note_on,0,0,0,,4,,,64,127
33094,note_off,59,0,0,,4,,,64,127
33095,note_on,1,0,0,,3,,,63,127
33154,note_off,59,0,0,,3,,,63,127
33155,note_on,1,0,0,,1,,,61,127
33275,note_off,120,0,0,,1,,,61,127
33275,note_off,0,0,0,,1,,,49,127
33276,note_on,1,0,0,,12,,,59,127
33276,note_on,0,0,0,,5,,,65,127
33396,note_off,120,0,0,,5,,,65,127
33397,note_on,1,0,0,,1,,,61,127
33517,note_off,120,0,0,,1,,,61,127
33517,note_off,0,0,0,,12,,,59,127
33518,note_on,1,0,0,,10,,,57,127
33518,note_on,0,0,0,,6,,,66,127
33638,note_off,120,0,0,,6,,,66,127
33639,note_on,1,0,0,,1,,,61,127
33759,note_off,120,0,0,,1,,,61,127
33759,note_off,0,0,0,,10,,,57,127
33760,note_on,1,0,0,,8,,,56,127
33760,note_on,0,0,0,,8,,,68,127
33880,note_off,120,0,0,,8,,,68,127
33881,note_on,1,0,0,,1,,,61,127
34001,note_off,120,0,0,,1,,,61,127
34001,note_off,0,0,0,,8,,,56,127
34002,note_on,1,0,0,,6,,,54,127
34002,note_on,0,0,0,,10,,,69,127
34123,note_on,121,0,0,,1,,,61,127
34153,note_off,30,0,0,,10,,,69,127
34243,note_off,90,0,0,,1,,,61,127
34243,note_off,0,0,0,,6,,,54,127
34244,note_on,1,0,0,,4,,,52,127
34244,note_on,0,0,0,,11,,,70,127
34365,note_on,121,0,0,,1,,,61,127
34421,note_off,56,0,0,,11,,,70,127
34485,note_off,64,0,0,,1,,,61,127
34485,note_off,0,0,0,,4,,,52,127
34486,note_on,1,0,0,,3,,,51,127
34486,note_on,0,0,0,,0,,,72,127
34607,note_on,121,0,0,,3,,,63,127
34688,note_off,81,0,0,,0,,,72,127
34727,note_off,39,0,0,,3,,,63,127
34727,note_off,0,0,0,,3,,,51,127
34728,note_on,1,0,0,,1,,,49,127
34728,note_on,0,0,0,,1,,,73,127
34849,note_on,121,0,0,,4,,,64,127
34955,note_off,106,0,0,,1,,,73,127
34969,note_off,14,0,0,,4,,,64,127
34969,note_off,0,0,0,,1,,,49,127
34970,note_on,1,0,0,,8,,,44,127
34970,note_on,0,0,0,,3,,,75,127
35091,note_on,121,0,0,,8,,,68,127
35211,note_off,120,0,0,,8,,,68,127
35211,note_off,0,0,0,,8,,,44,127
35212,note_on,1,0,0,,8,,,56,127
35212,note_on,0,0,0,,7,,,67,127
35332,note_off,120,0,0,,7,,,67,127
35333,note_on,1,0,0,,8,,,68,127
35453,note_off,120,0,0,,8,,,68,127
35453,note_off,0,0,0,,8,,,56,127
35454,note_on,1,0,0,,3,,,63,127
35454,note_on,0,0,0,,1,,,61,127
35454,note_on,0,0,0,,11,,,58,127
35454,note_on,0,0,0,,7,,,67,127
35574,note_off,120,0,0,,7,,,67,127
35575,note_off,1,0,0,,3,,,75,127
35575,note_on,0,0,0,,4,,,76,127
35695,note_off,120,0,0,,4,,,76,127
35695,note_off,0,0,0,,11,,,58,127
35695,note_off,0,0,0,,1,,,61,127
35695,note_off,0,0,0,,3,,,63,127
35696,note_on,1,0,0,,3,,,63,127
35696,note_on,0,0,0,,11,,,58,127
35696,note_on,0,0,0,,1,,,61,127
35696,note_on,0,0,0,,3,,,75,127
35816,note_off,120,0,0,,3,,,75,127
35817,note_on,1,0,0,,4,,,76,127
35937,note_off,120,0,0,,4,,,76,127
35937,note_off,0,0,0,,1,,,61,127
35937,note_off,0,0,0,,11,,,58,127
35937,note_off,0,0,0,,3,,,63,127
35938,note_on,1,0,0,,3,,,63,127
35938,note_on,0,0,0,,8,,,56,127
35938,note_on,0,0,0,,3,,,75,127
36059,note_on,121,0,0,,8,,,68,127
36179,note_off,120,0,0,,8,,,68,127
36179,note_off,0,0,0,,8,,,56,127
36179,note_off,0,0,0,,3,,,63,127
36180,note_on,1,0,0,,8,,,56,127
36180,note_on,0,0,0,,3,,,63,127
36180,note_on,0,0,0,,7,,,67,127
36300,note_off,120,0,0,,7,,,67,127
36301,note_on,1,0,0,,8,,,68,127
36421,note_off,120,0,0,,8,,,68,127
36421,note_off,0,0,0,,3,,,63,127
36421,note_off,0,0,0,,8,,,56,127
36422,note_on,1,0,0,,3,,,63,127
36422,note_on,0,0,0,,1,,,61,127
36422,note_on,0,0,0,,11,,,58,127
36422,note_on,0,0,0,,7,,,67,127
36542,note_off,120,0,0,,7,,,67,127
36543,note_off,1,0,0,,3,,,75,127
36543,note_on,0,0,0,,7,,,79,127
36663,note_off,120,0,0,,7,,,79,127
36663,note_off,0,0,0,,11,,,58,127
36663,note_off,0,0,0,,1,,,61,127
36663,note_off,0,0,0,,3,,,63,127
36664,note_on,1,0,0,,3,,,63,127
36664,note_on,0,0,0,,1,,,61,127
36664,note_on,0,0,0,,11,,,58,127
36664,note_on,0,0,0,,8,,,80,127
36784,note_off,120,0,0,,8,,,80,127
36785,note_on,1,0,0,,7,,,79,127
36905,note_off,120,0,0,,7,,,79,127
36905,note_off,0,0,0,,11,,,58,127
36905,note_off,0,0,0,,1,,,61,127
36905,note_off,0,0,0,,3,,,63,127
36906,note_on,1,0,0,,3,,,63,127
36906,note_on,0,0,0,,8,,,56,127
36906,note_on,0,0,0,,8,,,80,127
37026,note_off,120,0,0,,8,,,80,127
37027,note_on,1,0,0,,8,,,68,127
37147,note_off,120,0,0,,8,,,68,127
37147,note_off,0,0,0,,8,,,56,127
37147,note_off,0,0,0,,3,,,63,127
37148,note_on,1,0,0,,3,,,63,127
37148,note_on,0,0,0,,8,,,56,127
37148,note_on,0,0,0,,7,,,67,127
37268,note_off,120,0,0,,7,,,67,127
37269,note_on,1,0,0,,8,,,68,127
37389,note_off,120,0,0,,8,,,68,127
37389,note_off,0,0,0,,8,,,56,127
37389,note_off,0,0,0,,3,,,63,127
37390,note_on,1,0,0,,3,,,63,127
37390,note_on,0,0,0,,1,,,61,127
37390,note_on,0,0,0,,11,,,58,127
37390,note_on,0,0,0,,7,,,67,127
37510,note_off,120,0,0,,7,,,67,127
37511,note_on,1,0,0,,4,,,76,127
37631,note_off,120,0,0,,4,,,76,127
37631,note_off,0,0,0,,11,,,58,127
37631,note_off,0,0,0,,1,,,61,127
37631,note_off,0,0,0,,3,,,63,127
37632,note_on,1,0,0,,3,,,63,127
37632,note_on,0,0,0,,1,,,61,127
37632,note_on,0,0,0,,11,,,58,127
37632,note_on,0,0,0,,3,,,75,127
37752,note_off,120,0,0,,3,,,75,127
37753,note_on,1,0,0,,4,,,76,127
37873,note_off,120,0,0,,4,,,76,127
37873,note_off,0,0,0,,11,,,58,127
37873,note_off,0,0,0,,1,,,61,127
37873,note_off,0,0,0,,3,,,63,127
37874,note_on,1,0,0,,3,,,63,127
37874,note_on,0,0,0,,8,,,56,127
37874,note_on,0,0,0,,3,,,75,127
37995,note_on,121,0,0,,8,,,68,127
38115,note_off,120,0,0,,8,,,68,127
38115,note_off,0,0,0,,8,,,56,127
38115,note_off,0,0,0,,3,,,63,127
38116,note_on,1,0,0,,3,,,63,127
38116,note_on,0,0,0,,8,,,56,127
38116,note_on,0,0,0,,7,,,67,127
38236,note_off,120,0,0,,7,,,67,127
38237,note_on,1,0,0,,8,,,68,127
38357,note_off,120,0,0,,8,,,68,127
38357,note_off,0,0,0,,8,,,56,127
38357,note_off,0,0,0,,3,,,63,127
38358,note_on,1,0,0,,1,,,61,127
38358,note_on,0,0,0,,3,,,63,127
38358,note_on,0,0,0,,11,,,58,127
38358,note_on,0,0,0,,7,,,67,127
38478,note_off,120,0,0,,7,,,67,127
38479,note_off,1,0,0,,3,,,75,127
38479,note_on,0,0,0,,7,,,79,127
38599,note_off,120,0,0,,7,,,79,127
38599,note_off,0,0,0,,11,,,58,127
38599,note_off,0,0,0,,3,,,63,127
38599,note_off,0,0,0,,1,,,61,127
38600,note_on,1,0,0,,3,,,63,127
38600,note_on,0,0,0,,1,,,61,127
38600,note_on,0,0,0,,11,,,58,127
38600,note_on,0,0,0,,8,,,80,127
38720,note_off,120,0,0,,8,,,80,127
38721,note_on,1,0,0,,7,,,79,127
38841,note_off,120,0,0,,7,,,79,127
38841,note_off,0,0,0,,11,,,58,127
38841,note_off,0,0,0,,1,,,61,127
38841,note_off,0,0,0,,3,,,63,127
38842,note_on,1,0,0,,8,,,56,127
38842,note_on,0,0,0,,3,,,63,127
38842,note_on,0,0,0,,8,,,80,127
38962,note_off,120,0,0,,8,,,80,127
38963,note_on,1,0,0,,3,,,75,127
39083,note_off,120,0,0,,3,,,75,127
39083,note_off,0,0,0,,3,,,63,127
39083,note_off,0,0,0,,8,,,56,127
39084,note_on,1,0,0,,6,,,54,127
39084,note_on,0,0,0,,3,,,63,127
39084,note_on,0,0,0,,1,,,73,127
39204,note_off,120,0,0,,1,,,73,127
39205,note_on,1,0,0,,0,,,72,127
39325,note_off,120,0,0,,0,,,72,127
39325,note_off,0,0,0,,3,,,63,127
39325,note_off,0,0,0,,6,,,54,127
39326,note_on,1,0,0,,4,,,52,127
39326,note_on,0,0,0,,1,,,61,127
39326,note_on,0,0,0,,1,,,73,127
39446,note_off,120,0,0,,1,,,73,127
39447,note_on,1,0,0,,6,,,78,127
39567,note_off,120,0,0,,6,,,78,127
39567,note_off,0,0,0,,1,,,61,127
39567,note_off,0,0,0,,4,,,52,127
39568,note_on,1,0,0,,3,,,51,127
39568,note_on,0,0,0,,0,,,60,127
39568,note_on,0,0,0,,4,,,76,127
39688,note_off,120,0,0,,4,,,76,127
39689,note_on,1,0,0,,3,,,75,127
39809,note_off,120,0,0,,3,,,75,127
39809,note_off,0,0,0,,0,,,60,127
39809,note_off,0,0,0,,3,,,51,127
39810,note_on,1,0,0,,1,,,61,127
39810,note_on,0,0,0,,1,,,49,127
39810,note_on,0,0,0,,4,,,76,127
39931,note_on,121,0,0,,10,,,81,127
40050,note_off,119,0,0,,4,,,76,127
40051,note_off,1,0,0,,10,,,81,127
40051,note_off,0,0,0,,1,,,49,127
40051,note_off,0,0,0,,1,,,61,127
40052,note_on,1,0,0,,6,,,54,127
40052,note_on,0,0,0,,8,,,80,127
40172,note_off,120,0,0,,8,,,80,127
40173,note_on,1,0,0,,6,,,78,127
40293,note_off,120,0,0,,6,,,78,127
40293,note_off,0,0,0,,6,,,54,127
40294,note_on,1,0,0,,8,,,56,127
40294,note_on,0,0,0,,4,,,76,127
40414,note_off,120,0,0,,4,,,76,127
40415,note_on,1,0,0,,3,,,75,127
40535,note_off,120,0,0,,3,,,75,127
40536,note_on,1,0,0,,8,,,44,127
40536,note_on,0,0,0,,1,,,73,127
40656,note_off,120,0,0,,1,,,73,127
40657,note_on,1,0,0,,0,,,72,127
40773,note_off,116,0,0,,8,,,56,127
40777,note_off,4,0,0,,0,,,72,127
40777,note_off,0,0,0,,8,,,44,127
40778,note_on,1,0,0,,10,,,57,127
40778,note_on,0,0,0,,1,,,73,127
40898,note_off,120,0,0,,1,,,73,127
40899,note_on,1,0,0,,10,,,69,127
41019,note_off,120,0,0,,10,,,69,127
41019,note_off,0,0,0,,10,,,57,127
41020,note_on,1,0,0,,8,,,56,127
41020,note_on,0,0,0,,12,,,71,127
41140,note_off,120,0,0,,12,,,71,127
41141,note_on,1,0,0,,8,,,68,127
41261,note_off,120,0,0,,8,,,68,127
41261,note_off,0,0,0,,8,,,56,127
41262,note_on,1,0,0,,6,,,54,127
41262,note_on,0,0,0,,10,,,69,127
41382,note_off,120,0,0,,10,,,69,127
41383,note_on,1,0,0,,6,,,66,127
41503,note_off,120,0,0,,6,,,66,127
41503,note_off,0,0,0,,6,,,54,127
41504,note_on,1,0,0,,4,,,52,127
41504,note_on,0,0,0,,8,,,68,127
41624,note_off,120,0,0,,8,,,68,127
41625,note_on,1,0,0,,4,,,64,127
41745,note_off,120,0,0,,4,,,64,127
41745,note_off,0,0,0,,4,,,52,127
41746,note_on,1,0,0,,3,,,51,127
41746,note_on,0,0,0,,6,,,66,127
41866,note_off,120,0,0,,6,,,66,127
41867,note_on,1,0,0,,3,,,63,127
41987,note_off,120,0,0,,3,,,63,127
41987,note_off,0,0,0,,3,,,51,127
41988,note_on,1,0,0,,1,,,49,127
41988,note_on,0,0,0,,4,,,64,127
42047,note_off,59,0,0,,4,,,64,127
42048,note_on,1,0,0,,3,,,63,127
42107,note_off,59,0,0,,3,,,63,127
42108,note_on,1,0,0,,1,,,61,127
42228,note_off,120,0,0,,1,,,61,127
42228,note_off,0,0,0,,1,,,49,127
42229,note_on,1,0,0,,8,,,56,127
42229,note_on,0,0,0,,4,,,64,127
42229,note_on,0,0,0,,1,,,61,127
42470,note_off,241,0,0,,1,,,61,127
42470,note_off,0,0,0,,4,,,64,127
42471,note_on,1,0,0,,8,,,44,127
42471,note_on,0,0,0,,3,,,63,127
42471,note_on,0,0,0,,0,,,60,127
42592,note_off,121,0,0,,8,,,56,127
42712,note_off,120,0,0,,0,,,60,127
42712,note_off,0,0,0,,3,,,63,127
42712,note_off,0,0,0,,8,,,44,127
42713,note_on,1,0,0,,1,,,37,127
42713,note_on,0,0,0,,1,,,61,127
43682,note_off,969,0,0,,1,,,61,127
43682,note_off,0,0,0,,1,,,37,127
43683,note_on,1,0,0,,1,,,61,127
43804,note_on,121,0,0,,8,,,68,127
43865,note_off,61,0,0,,1,,,61,127
43924,note_off,59,0,0,,8,,,68,127
43925,note_on,1,0,0,,6,,,66,127
44045,note_off,120,0,0,,6,,,66,127
44046,note_on,1,0,0,,8,,,68,127
44166,note_off,120,0,0,,8,,,68,127
44167,note_on,1,0,0,,5,,,65,127
44288,note_on,121,0,0,,1,,,61,127
44318,note_off,30,0,0,,5,,,65,127
44408,note_off,90,0,0,,1,,,61,127
44409,note_on,1,0,0,,12,,,71,127
44529,note_off,120,0,0,,12,,,71,127
44530,note_on,1,0,0,,8,,,68,127
44650,note_off,120,0,0,,8,,,68,127
44651,note_on,1,0,0,,10,,,69,127
44772,note_on,121,0,0,,6,,,66,127
44802,note_off,30,0,0,,10,,,69,127
44892,note_off,90,0,0,,6,,,66,127
44893,note_on,1,0,0,,2,,,74,127
45013,note_off,120,0,0,,2,,,74,127
45014,note_on,1,0,0,,12,,,71,127
45134,note_off,120,0,0,,12,,,71,127
45135,note_on,1,0,0,,1,,,73,127
45256,note_on,121,0,0,,10,,,69,127
45286,note_off,30,0,0,,1,,,73,127
45376,note_off,90,0,0,,10,,,69,127
45377,note_on,1,0,0,,6,,,78,127
45497,note_off,120,0,0,,6,,,78,127
45498,note_on,1,0,0,,3,,,75,127
45618,note_off,120,0,0,,3,,,75,127
45619,note_on,1,0,0,,1,,,49,127
45619,note_on,0,0,0,,5,,,77,127
45740,note_on,121,0,0,,8,,,56,127
45801,note_off,61,0,0,,1,,,49,127
45860,note_off,59,0,0,,8,,,56,127
45860,note_off,0,0,0,,5,,,77,127
45861,note_on,1,0,0,,6,,,54,127
45861,note_on,0,0,0,,8,,,80,127
45981,note_off,120,0,0,,6,,,54,127
45982,note_on,1,0,0,,8,,,56,127
46102,note_off,120,0,0,,8,,,56,127
46103,note_on,1,0,0,,5,,,53,127
46224,note_on,121,0,0,,1,,,49,127
46254,note_off,30,0,0,,5,,,53,127
46344,note_off,90,0,0,,1,,,49,127
46344,note_off,0,0,0,,8,,,80,127
46345,note_on,1,0,0,,12,,,59,127
46345,note_on,0,0,0,,2,,,74,127
46465,note_off,120,0,0,,12,,,59,127
46466,note_on,1,0,0,,8,,,56,127
46586,note_off,120,0,0,,8,,,56,127
46586,note_off,0,0,0,,2,,,74,127
46587,note_on,1,0,0,,10,,,57,127
46587,note_on,0,0,0,,1,,,73,127
46708,note_on,121,0,0,,6,,,54,127
46738,note_off,30,0,0,,10,,,57,127
46828,note_off,90,0,0,,6,,,54,127
46828,note_off,0,0,0,,1,,,73,127
46829,note_on,1,0,0,,2,,,62,127
46829,note_on,0,0,0,,12,,,71,127
46949,note_off,120,0,0,,2,,,62,127
46950,note_on,1,0,0,,12,,,59,127
47070,note_off,120,0,0,,12,,,59,127
47070,note_off,0,0,0,,12,,,71,127
47071,note_on,1,0,0,,1,,,61,127
47071,note_on,0,0,0,,10,,,69,127
47192,note_on,121,0,0,,10,,,57,127
47222,note_off,30,0,0,,1,,,61,127
47312,note_off,90,0,0,,10,,,57,127
47312,note_off,0,0,0,,10,,,69,127
47313,note_on,1,0,0,,5,,,65,127
47313,note_on,0,0,0,,8,,,68,127
47433,note_off,120,0,0,,5,,,65,127
47434,note_on,1,0,0,,1,,,61,127
47554,note_off,120,0,0,,1,,,61,127
47554,note_off,0,0,0,,8,,,68,127
47555,note_on,1,0,0,,6,,,54,127
47555,note_on,0,0,0,,10,,,69,127
47614,note_off,59,0,0,,10,,,69,127
47615,note_on,1,0,0,,8,,,68,127
47674,note_off,59,0,0,,8,,,68,127
47675,note_on,1,0,0,,6,,,66,127
47795,note_off,120,0,0,,6,,,66,127
47795,note_off,0,0,0,,6,,,54,127
47796,note_on,1,0,0,,2,,,62,127
47796,note_on,0,0,0,,12,,,59,127
47796,note_on,0,0,0,,2,,,74,127
47917,note_on,121,0,0,,8,,,68,127
48036,note_off,119,0,0,,2,,,74,127
48037,note_off,1,0,0,,8,,,68,127
48037,note_off,0,0,0,,12,,,59,127
48037,note_off,0,0,0,,2,,,62,127
48038,note_on,1,0,0,,1,,,61,127
48038,note_on,0,0,0,,10,,,57,127
48038,note_on,0,0,0,,1,,,73,127
48159,note_on,121,0,0,,6,,,66,127
48278,note_off,119,0,0,,1,,,73,127
48279,note_off,1,0,0,,6,,,66,127
48279,note_off,0,0,0,,10,,,57,127
48279,note_off,0,0,0,,1,,,61,127
48280,note_on,1,0,0,,8,,,56,127
48280,note_on,0,0,0,,12,,,59,127
48280,note_on,0,0,0,,12,,,71,127
48401,note_on,121,0,0,,5,,,65,127
48520,note_off,119,0,0,,12,,,71,127
48521,note_off,1,0,0,,5,,,65,127
48521,note_off,0,0,0,,12,,,59,127
48521,note_off,0,0,0,,8,,,56,127
48522,note_on,1,0,0,,6,,,54,127
48522,note_on,0,0,0,,10,,,57,127
48522,note_on,0,0,0,,10,,,69,127
48581,note_off,59,0,0,,10,,,69,127
48582,note_on,1,0,0,,8,,,68,127
48641,note_off,59,0,0,,8,,,68,127
48642,note_on,1,0,0,,6,,,66,127
48762,note_off,120,0,0,,6,,,66,127
48762,note_off,0,0,0,,10,,,57,127
48762,note_off,0,0,0,,6,,,54,127
48763,note_on,1,0,0,,12,,,59,127
48763,note_on,0,0,0,,2,,,62,127
48763,note_on,0,0,0,,2,,,74,127
48884,note_on,121,0,0,,8,,,68,127
48952,note_off,68,0,0,,2,,,74,127
49004,note_off,52,0,0,,8,,,68,127
49004,note_off,0,0,0,,2,,,62,127
49004,note_off,0,0,0,,12,,,59,127
49005,note_on,1,0,0,,10,,,57,127
49005,note_on,0,0,0,,1,,,61,127
49005,note_on,0,0,0,,1,,,73,127
49126,note_on,121,0,0,,6,,,66,127
49194,note_off,68,0,0,,1,,,73,127
49246,note_off,52,0,0,,6,,,66,127
49246,note_off,0,0,0,,1,,,61,127
49246,note_off,0,0,0,,10,,,57,127
49247,note_on,1,0,0,,8,,,56,127
49247,note_on,0,0,0,,12,,,59,127
49247,note_on,0,0,0,,12,,,71,127
49368,note_on,121,0,0,,5,,,65,127
49436,note_off,68,0,0,,12,,,71,127
49488,note_off,52,0,0,,5,,,65,127
49488,note_off,0,0,0,,12,,,59,127
49488,note_off,0,0,0,,8,,,56,127
49489,note_on,1,0,0,,6,,,54,127
49489,note_on,0,0,0,,10,,,57,127
49489,note_on,0,0,0,,10,,,69,127
49548,note_off,59,0,0,,10,,,69,127
49549,note_on,1,0,0,,8,,,68,127
49608,note_off,59,0,0,,8,,,68,127
49609,note_on,1,0,0,,6,,,66,127
49729,note_off,120,0,0,,6,,,66,127
49729,note_off,0,0,0,,10,,,57,127
49729,note_off,0,0,0,,6,,,54,127
49730,note_on,1,0,0,,2,,,62,127
49730,note_on,0,0,0,,12,,,59,127
49730,note_on,0,0,0,,2,,,74,127
49850,note_off,120,0,0,,2,,,74,127
49851,note_on,1,0,0,,8,,,68,127
49971,note_off,120,0,0,,8,,,68,127
49971,note_off,0,0,0,,12,,,59,127
49971,note_off,0,0,0,,2,,,62,127
49972,note_on,1,0,0,,10,,,57,127
49972,note_on,0,0,0,,1,,,61,127
49972,note_on,0,0,0,,1,,,73,127
50092,note_off,120,0,0,,1,,,73,127
50093,note_on,1,0,0,,6,,,66,127
50213,note_off,120,0,0,,6,,,66,127
50213,note_off,0,0,0,,1,,,61,127
50213,note_off,0,0,0,,10,,,57,127
50214,note_on,1,0,0,,12,,,59,127
50214,note_on,0,0,0,,7,,,55,127
50214,note_on,0,0,0,,12,,,71,127
50334,note_off,120,0,0,,12,,,71,127
50335,note_on,1,0,0,,5,,,65,127
50455,note_off,120,0,0,,5,,,65,127
50455,note_off,0,0,0,,7,,,55,127
50455,note_off,0,0,0,,12,,,59,127
50456,note_on,1,0,0,,6,,,54,127
50456,note_on,0,0,0,,1,,,61,127
50456,note_on,0,0,0,,11,,,70,127
50515,note_off,59,0,0,,11,,,70,127
50516,note_on,1,0,0,,8,,,68,127
50575,note_off,59,0,0,,8,,,68,127
50576,note_on,1,0,0,,6,,,66,127
50696,note_off,120,0,0,,6,,,66,127
50696,note_off,0,0,0,,1,,,61,127
50696,note_off,0,0,0,,6,,,54,127
50697,note_on,1,0,0,,4,,,52,127
50697,note_on,0,0,0,,1,,,61,127
50697,note_on,0,0,0,,7,,,79,127
50818,note_on,121,0,0,,11,,,70,127
50879,note_off,61,0,0,,7,,,79,127
50938,note_off,59,0,0,,11,,,70,127
50938,note_off,0,0,0,,1,,,61,127
50938,note_off,0,0,0,,4,,,52,127
50939,note_on,1,0,0,,12,,,59,127
50939,note_on,0,0,0,,2,,,50,127
50939,note_on,0,0,0,,6,,,78,127
51060,note_on,121,0,0,,12,,,71,127
51121,note_off,61,0,0,,6,,,78,127
51180,note_off,59,0,0,,12,,,71,127
51180,note_off,0,0,0,,2,,,50,127
51180,note_off,0,0,0,,12,,,59,127
51181,note_on,1,0,0,,1,,,49,127
51181,note_on,0,0,0,,11,,,58,127
51181,note_on,0,0,0,,4,,,76,127
51302,note_on,121,0,0,,1,,,73,127
51363,note_off,61,0,0,,4,,,76,127
51422,note_off,59,0,0,,1,,,73,127
51422,note_off,0,0,0,,11,,,58,127
51422,note_off,0,0,0,,1,,,49,127
51423,note_on,1,0,0,,12,,,47,127
51423,note_on,0,0,0,,12,,,59,127
51423,note_on,0,0,0,,2,,,74,127
51482,note_off,59,0,0,,2,,,74,127
51483,note_on,1,0,0,,1,,,73,127
51542,note_off,59,0,0,,1,,,73,127
51543,note_on,1,0,0,,12,,,71,127
51663,note_off,120,0,0,,12,,,71,127
51663,note_off,0,0,0,,12,,,59,127
51663,note_off,0,0,0,,12,,,47,127
51664,note_on,1,0,0,,6,,,78,127
51664,note_on,0,0,0,,6,,,66,127
51784,note_off,120,0,0,,6,,,66,127
51785,note_on,1,0,0,,12,,,71,127
51905,note_off,120,0,0,,12,,,71,127
51905,note_off,0,0,0,,6,,,78,127
51906,note_on,1,0,0,,7,,,79,127
51906,note_on,0,0,0,,2,,,74,127
52026,note_off,120,0,0,,2,,,74,127
52027,note_on,1,0,0,,12,,,71,127
52147,note_off,120,0,0,,12,,,71,127
52147,note_off,0,0,0,,7,,,79,127
52148,note_on,1,0,0,,6,,,78,127
52148,note_on,0,0,0,,6,,,66,127
52268,note_off,120,0,0,,6,,,66,127
52269,note_on,1,0,0,,12,,,71,127
52389,note_off,120,0,0,,12,,,71,127
52389,note_off,0,0,0,,6,,,78,127
52390,note_on,1,0,0,,6,,,54,127
52390,note_on,0,0,0,,1,,,73,127
52510,note_off,120,0,0,,1,,,73,127
52511,note_on,1,0,0,,11,,,70,127
52631,note_off,120,0,0,,11,,,70,127
52631,note_off,0,0,0,,6,,,54,127
52632,note_on,1,0,0,,6,,,78,127
52632,note_on,0,0,0,,6,,,66,127
52752,note_off,120,0,0,,6,,,66,127
52753,note_on,1,0,0,,11,,,70,127
52873,note_off,120,0,0,,11,,,70,127
52873,note_off,0,0,0,,6,,,78,127
52874,note_on,1,0,0,,7,,,79,127
52874,note_on,0,0,0,,1,,,73,127
52994,note_off,120,0,0,,1,,,73,127
52995,note_on,1,0,0,,11,,,70,127
53115,note_off,120,0,0,,11,,,70,127
53115,note_off,0,0,0,,7,,,79,127
53116,note_on,1,0,0,,6,,,78,127
53116,note_on,0,0,0,,6,,,66,127
53236,note_off,120,0,0,,6,,,66,127
53237,note_on,1,0,0,,11,,,70,127
53357,note_off,120,0,0,,11,,,70,127
53357,note_off,0,0,0,,6,,,78,127
53358,note_on,1,0,0,,12,,,47,127
53358,note_on,0,0,0,,2,,,74,127
53478,note_off,120,0,0,,2,,,74,127
53479,note_on,1,0,0,,12,,,71,127
53599,note_off,120,0,0,,12,,,71,127
53599,note_off,0,0,0,,12,,,47,127
53600,note_on,1,0,0,,6,,,78,127
53600,note_on,0,0,0,,6,,,66,127
53720,note_off,120,0,0,,6,,,66,127
53721,note_on,1,0,0,,12,,,71,127
53841,note_off,120,0,0,,12,,,71,127
53841,note_off,0,0,0,,6,,,78,127
53842,note_on,1,0,0,,7,,,79,127
53842,note_on,0,0,0,,2,,,74,127
53962,note_off,120,0,0,,2,,,74,127
53963,note_on,1,0,0,,12,,,71,127
54083,note_off,120,0,0,,12,,,71,127
54083,note_off,0,0,0,,7,,,79,127
54084,note_on,1,0,0,,6,,,78,127
54084,note_on,0,0,0,,6,,,66,127
54204,note_off,120,0,0,,6,,,66,127
54205,note_on,1,0,0,,12,,,71,127
54325,note_off,120,0,0,,12,,,71,127
54325,note_off,0,0,0,,6,,,78,127
54326,note_on,1,0,0,,6,,,54,127
54326,note_on,0,0,0,,1,,,73,127
54446,note_off,120,0,0,,1,,,73,127
54447,note_on,1,0,0,,11,,,70,127
54567,note_off,120,0,0,,11,,,70,127
54567,note_off,0,0,0,,6,,,54,127
54568,note_on,1,0,0,,6,,,78,127
54568,note_on,0,0,0,,6,,,66,127
54688,note_off,120,0,0,,6,,,66,127
54689,note_on,1,0,0,,11,,,70,127
54809,note_off,120,0,0,,11,,,70,127
54809,note_off,0,0,0,,6,,,78,127
54810,note_on,1,0,0,,7,,,79,127
54810,note_on,0,0,0,,1,,,73,127
54930,note_off,120,0,0,,1,,,73,127
54931,note_on,1,0,0,,11,,,70,127
55051,note_off,120,0,0,,11,,,70,127
55051,note_off,0,0,0,,7,,,79,127
55052,note_on,1,0,0,,6,,,78,127
55052,note_on,0,0,0,,6,,,66,127
55172,note_off,120,0,0,,6,,,66,127
55173,note_on,1,0,0,,11,,,70,127
55293,note_off,120,0,0,,11,,,70,127
55293,note_off,0,0,0,,6,,,78,127
55294,note_on,1,0,0,,12,,,59,127
55294,note_on,0,0,0,,3,,,75,127
55414,note_off,120,0,0,,3,,,75,127
55415,note_on,1,0,0,,12,,,71,127
55535,note_off,120,0,0,,12,,,71,127
55535,note_off,0,0,0,,12,,,59,127
55536,note_on,1,0,0,,6,,,78,127
55536,note_on,0,0,0,,6,,,66,127
55656,note_off,120,0,0,,6,,,66,127
55657,note_on,1,0,0,,12,,,71,127
55777,note_off,120,0,0,,12,,,71,127
55777,note_off,0,0,0,,6,,,78,127
55778,note_on,1,0,0,,8,,,80,127
55778,note_on,0,0,0,,3,,,75,127
55898,note_off,120,0,0,,3,,,75,127
55899,note_on,1,0,0,,12,,,71,127
56019,note_off,120,0,0,,12,,,71,127
56019,note_off,0,0,0,,8,,,80,127
56020,note_on,1,0,0,,6,,,78,127
56020,note_on,0,0,0,,6,,,66,127
56140,note_off,120,0,0,,6,,,66,127
56141,note_on,1,0,0,,12,,,71,127
56261,note_off,120,0,0,,12,,,71,127
56261,note_off,0,0,0,,6,,,78,127
56262,note_on,1,0,0,,11,,,58,127
56262,note_on,0,0,0,,5,,,77,127
56382,note_off,120,0,0,,5,,,77,127
56383,note_on,1,0,0,,2,,,74,127
56503,note_off,120,0,0,,2,,,74,127
56503,note_off,0,0,0,,11,,,58,127
56504,note_on,1,0,0,,11,,,82,127
56504,note_on,0,0,0,,11,,,70,127
56624,note_off,120,0,0,,11,,,70,127
56625,note_on,1,0,0,,2,,,74,127
56745,note_off,120,0,0,,2,,,74,127
56745,note_off,0,0,0,,11,,,82,127
56746,note_on,1,0,0,,12,,,83,127
56746,note_on,0,0,0,,5,,,77,127
56866,note_off,120,0,0,,5,,,77,127
56867,note_on,1,0,0,,2,,,74,127
56987,note_off,120,0,0,,2,,,74,127
56987,note_off,0,0,0,,12,,,83,127
56988,note_on,1,0,0,,11,,,82,127
56988,note_on,0,0,0,,11,,,70,127
57108,note_off,120,0,0,,11,,,70,127
57109,note_on,1,0,0,,2,,,74,127
57229,note_off,120,0,0,,2,,,74,127
57229,note_off,0,0,0,,11,,,82,127
57230,note_on,1,0,0,,3,,,63,127
57230,note_on,0,0,0,,6,,,78,127
57350,note_off,120,0,0,,6,,,78,127
57351,note_on,1,0,0,,3,,,75,127
57471,note_off,120,0,0,,3,,,75,127
57471,note_off,0,0,0,,3,,,63,127
57472,note_on,1,0,0,,11,,,82,127
57472,note_on,0,0,0,,11,,,70,127
57592,note_off,120,0,0,,11,,,70,127
57593,note_on,1,0,0,,3,,,75,127
57713,note_off,120,0,0,,3,,,75,127
57713,note_off,0,0,0,,11,,,82,127
57714,note_on,1,0,0,,12,,,83,127
57714,note_on,0,0,0,,6,,,78,127
57834,note_off,120,0,0,,6,,,78,127
57835,note_on,1,0,0,,3,,,75,127
57955,note_off,120,0,0,,3,,,75,127
57955,note_off,0,0,0,,12,,,83,127
57956,note_on,1,0,0,,11,,,82,127
57956,note_on,0,0,0,,11,,,70,127
58076,note_off,120,0,0,,11,,,70,127
58077,note_on,1,0,0,,3,,,75,127
58197,note_off,120,0,0,,3,,,75,127
58197,note_off,0,0,0,,11,,,82,127
58198,note_on,1,0,0,,11,,,58,127
58198,note_on,0,0,0,,5,,,77,127
58318,note_off,120,0,0,,5,,,77,127
58319,note_on,1,0,0,,2,,,74,127
58439,note_off,120,0,0,,2,,,74,127
58439,note_off,0,0,0,,11,,,58,127
58440,note_on,1,0,0,,11,,,82,127
58440,note_on,0,0,0,,11,,,70,127
58560,note_off,120,0,0,,11,,,70,127
58561,note_on,1,0,0,,2,,,74,127
58681,note_off,120,0,0,,2,,,74,127
58681,note_off,0,0,0,,11,,,82,127
58682,note_on,1,0,0,,12,,,83,127
58682,note_on,0,0,0,,5,,,77,127
58802,note_off,120,0,0,,5,,,77,127
58803,note_on,1,0,0,,2,,,74,127
58923,note_off,120,0,0,,2,,,74,127
58923,note_off,0,0,0,,12,,,83,127
58924,note_on,1,0,0,,11,,,82,127
58924,note_on,0,0,0,,11,,,70,127
59044,note_off,120,0,0,,11,,,70,127
59045,note_on,1,0,0,,2,,,74,127
59165,note_off,120,0,0,,2,,,74,127
59165,note_off,0,0,0,,11,,,82,127
59166,note_on,1,0,0,,3,,,51,127
59166,note_on,0,0,0,,7,,,79,127
59286,note_off,120,0,0,,7,,,79,127
59287,note_on,1,0,0,,3,,,75,127
59407,note_off,120,0,0,,3,,,75,127
59407,note_off,0,0,0,,3,,,51,127
59408,note_on,1,0,0,,1,,,61,127
59408,note_on,0,0,0,,4,,,76,127
59529,note_on,121,0,0,,1,,,73,127
59590,note_off,61,0,0,,4,,,76,127
59649,note_off,59,0,0,,1,,,73,127
59649,note_off,0,0,0,,1,,,61,127
59650,note_on,1,0,0,,12,,,59,127
59650,note_on,0,0,0,,3,,,75,127
59771,note_on,121,0,0,,12,,,71,127
59832,note_off,61,0,0,,3,,,75,127
59891,note_off,59,0,0,,12,,,71,127
59891,note_off,0,0,0,,12,,,59,127
59892,note_on,1,0,0,,11,,,58,127
59892,note_on,0,0,0,,1,,,73,127
60013,note_on,121,0,0,,11,,,70,127
60074,note_off,61,0,0,,1,,,73,127
60133,note_off,59,0,0,,11,,,70,127
60133,note_off,0,0,0,,11,,,58,127
60134,note_on,1,0,0,,8,,,56,127
60134,note_on,0,0,0,,12,,,71,127
60193,note_off,59,0,0,,12,,,71,127
60194,note_on,1,0,0,,11,,,70,127
60253,note_off,59,0,0,,11,,,70,127
60254,note_on,1,0,0,,8,,,68,127
60374,note_off,120,0,0,,8,,,68,127
60374,note_off,0,0,0,,8,,,56,127
60375,note_on,1,0,0,,6,,,54,127
60375,note_on,0,0,0,,10,,,81,127
60496,note_on,121,0,0,,3,,,75,127
60557,note_off,61,0,0,,10,,,81,127
60616,note_off,59,0,0,,6,,,54,127
60617,note_on,1,0,0,,4,,,52,127
60617,note_on,0,0,0,,8,,,80,127
60647,note_off,30,0,0,,3,,,75,127
60738,note_on,91,0,0,,1,,,73,127
60799,note_off,61,0,0,,8,,,80,127
60858,note_off,59,0,0,,4,,,52,127
60859,note_on,1,0,0,,3,,,51,127
60859,note_on,0,0,0,,6,,,78,127
60889,note_off,30,0,0,,1,,,73,127
60980,note_on,91,0,0,,3,,,75,127
61041,note_off,61,0,0,,6,,,78,127
61100,note_off,59,0,0,,3,,,75,127
61100,note_off,0,0,0,,3,,,51,127
61101,note_on,1,0,0,,1,,,49,127
61101,note_on,0,0,0,,4,,,76,127
61160,note_off,59,0,0,,4,,,76,127
61161,note_on,1,0,0,,3,,,75,127
61220,note_off,59,0,0,,3,,,75,127
61221,note_on,1,0,0,,1,,,73,127
61341,note_off,120,0,0,,1,,,73,127
61341,note_off,0,0,0,,1,,,49,127
61342,note_on,1,0,0,,12,,,59,127
61342,note_on,0,0,0,,2,,,74,127
61342,note_on,0,0,0,,5,,,77,127
61462,note_off,120,0,0,,2,,,74,127
61463,note_on,1,0,0,,12,,,71,127
61583,note_off,120,0,0,,12,,,71,127
61583,note_off,0,0,0,,5,,,77,127
61583,note_off,0,0,0,,12,,,59,127
61584,note_on,1,0,0,,10,,,57,127
61584,note_on,0,0,0,,1,,,73,127
61584,note_on,0,0,0,,6,,,78,127
61704,note_off,120,0,0,,1,,,73,127
61705,note_on,1,0,0,,10,,,69,127
61825,note_off,120,0,0,,10,,,69,127
61825,note_off,0,0,0,,6,,,78,127
61825,note_off,0,0,0,,10,,,57,127
61826,note_on,1,0,0,,8,,,56,127
61826,note_on,0,0,0,,12,,,71,127
61826,note_on,0,0,0,,8,,,80,127
61946,note_off,120,0,0,,12,,,71,127
61947,note_on,1,0,0,,8,,,68,127
62067,note_off,120,0,0,,8,,,68,127
62067,note_off,0,0,0,,8,,,80,127
62067,note_off,0,0,0,,8,,,56,127
62068,note_on,1,0,0,,6,,,54,127
62068,note_on,0,0,0,,6,,,78,127
62068,note_on,0,0,0,,10,,,81,127
62188,note_off,120,0,0,,6,,,78,127
62189,note_on,1,0,0,,1,,,73,127
62309,note_off,120,0,0,,1,,,73,127
62309,note_off,0,0,0,,10,,,81,127
62309,note_off,0,0,0,,6,,,54,127
62310,note_on,1,0,0,,4,,,52,127
62310,note_on,0,0,0,,7,,,79,127
62310,note_on,0,0,0,,11,,,82,127
62430,note_off,120,0,0,,7,,,79,127
62431,note_on,1,0,0,,4,,,76,127
62551,note_off,120,0,0,,4,,,76,127
62551,note_off,0,0,0,,11,,,82,127
62551,note_off,0,0,0,,4,,,52,127
62552,note_on,1,0,0,,2,,,50,127
62552,note_on,0,0,0,,6,,,78,127
62552,note_on,0,0,0,,12,,,83,127
62672,note_off,120,0,0,,6,,,78,127
62673,note_on,1,0,0,,2,,,74,127
62793,note_off,120,0,0,,2,,,74,127
62793,note_off,0,0,0,,12,,,83,127
62793,note_off,0,0,0,,2,,,50,127
62794,note_on,1,0,0,,1,,,49,127
62794,note_on,0,0,0,,7,,,79,127
62794,note_on,0,0,0,,11,,,82,127
62914,note_off,120,0,0,,7,,,79,127
62915,note_on,1,0,0,,4,,,76,127
63035,note_off,120,0,0,,4,,,76,127
63035,note_off,0,0,0,,11,,,82,127
63035,note_off,0,0,0,,1,,,49,127
63036,note_on,1,0,0,,12,,,47,127
63036,note_on,0,0,0,,12,,,83,127
63036,note_on,0,0,0,,2,,,74,127
63095,note_off,59,0,0,,2,,,74,127
63095,note_off,0,0,0,,12,,,83,127
63096,note_on,1,0,0,,10,,,81,127
63155,note_off,59,0,0,,10,,,81,127
63156,note_on,1,0,0,,8,,,80,127
63276,note_off,120,0,0,,8,,,80,127
63277,note_on,1,0,0,,6,,,78,127
63397,note_off,120,0,0,,6,,,78,127
63398,note_on,1,0,0,,5,,,77,127
63518,note_off,120,0,0,,5,,,77,127
63519,note_on,1,0,0,,6,,,78,127
63639,note_off,120,0,0,,6,,,78,127
63639,note_off,0,0,0,,12,,,47,127
63640,note_on,1,0,0,,12,,,71,127
63640,note_on,0,0,0,,2,,,74,127
63760,note_off,120,0,0,,2,,,74,127
63760,note_off,0,0,0,,12,,,71,127
63761,note_on,1,0,0,,10,,,69,127
63761,note_on,0,0,0,,1,,,73,127
63881,note_off,120,0,0,,1,,,73,127
63881,note_off,0,0,0,,10,,,69,127
63882,note_on,1,0,0,,8,,,68,127
63882,note_on,0,0,0,,12,,,71,127
64002,note_off,120,0,0,,12,,,71,127
64002,note_off,0,0,0,,8,,,68,127
64003,note_on,1,0,0,,10,,,57,127
64003,note_on,0,0,0,,1,,,73,127
64003,note_on,0,0,0,,12,,,83,127
64062,note_off,59,0,0,,12,,,83,127
64062,note_off,0,0,0,,1,,,73,127
64063,note_on,1,0,0,,10,,,81,127
64122,note_off,59,0,0,,10,,,81,127
64123,note_on,1,0,0,,8,,,80,127
64243,note_off,120,0,0,,8,,,80,127
64244,note_on,1,0,0,,6,,,78,127
64364,note_off,120,0,0,,6,,,78,127
64365,note_on,1,0,0,,5,,,77,127
64485,note_off,120,0,0,,5,,,77,127
64486,note_on,1,0,0,,6,,,78,127
64606,note_off,120,0,0,,10,,,57,127
64607,note_on,1,0,0,,10,,,69,127
64607,note_on,0,0,0,,1,,,73,127
64726,note_off,119,0,0,,6,,,78,127
64727,note_off,1,0,0,,1,,,73,127
64727,note_off,0,0,0,,10,,,69,127
64728,note_on,1,0,0,,8,,,68,127
64728,note_on,0,0,0,,12,,,71,127
64848,note_off,120,0,0,,12,,,71,127
64848,note_off,0,0,0,,8,,,68,127
64849,note_on,1,0,0,,6,,,66,127
64849,note_on,0,0,0,,10,,,69,127
64969,note_off,120,0,0,,10,,,69,127
64969,note_off,0,0,0,,6,,,66,127
64970,note_on,1,0,0,,12,,,59,127
64970,note_on,0,0,0,,12,,,83,127
64970,note_on,0,0,0,,2,,,74,127
65029,note_off,59,0,0,,2,,,74,127
65029,note_off,0,0,0,,12,,,83,127
65030,note_on,1,0,0,,10,,,81,127
65089,note_off,59,0,0,,10,,,81,127
65090,note_on,1,0,0,,8,,,80,127
65210,note_off,120,0,0,,8,,,80,127
65211,note_on,1,0,0,,6,,,78,127
65331,note_off,120,0,0,,6,,,78,127
65332,note_on,1,0,0,,5,,,77,127
65452,note_off,120,0,0,,5,,,77,127
65453,note_on,1,0,0,,6,,,78,127
65573,note_off,120,0,0,,12,,,59,127
65574,note_on,1,0,0,,12,,,71,127
65574,note_on,0,0,0,,2,,,74,127
65693,note_off,119,0,0,,6,,,78,127
65694,note_off,1,0,0,,2,,,74,127
65694,note_off,0,0,0,,12,,,71,127
65695,note_on,1,0,0,,10,,,69,127
65695,note_on,0,0,0,,1,,,73,127
65815,note_off,120,0,0,,1,,,73,127
65815,note_off,0,0,0,,10,,,69,127
65816,note_on,1,0,0,,8,,,68,127
65816,note_on,0,0,0,,12,,,71,127
65936,note_off,120,0,0,,12,,,71,127
65936,note_off,0,0,0,,8,,,68,127
65937,note_on,1,0,0,,10,,,57,127
65937,note_on,0,0,0,,12,,,83,127
65937,note_on,0,0,0,,1,,,73,127
65996,note_off,59,0,0,,1,,,73,127
65996,note_off,0,0,0,,12,,,83,127
65997,note_on,1,0,0,,10,,,81,127
66056,note_off,59,0,0,,10,,,81,127
66057,note_on,1,0,0,,8,,,80,127
66177,note_off,120,0,0,,8,,,80,127
66178,note_on,1,0,0,,6,,,78,127
66298,note_off,120,0,0,,6,,,78,127
66299,note_on,1,0,0,,5,,,77,127
66419,note_off,120,0,0,,5,,,77,127
66420,note_on,1,0,0,,6,,,78,127
66540,note_off,120,0,0,,10,,,57,127
66541,note_on,1,0,0,,10,,,69,127
66541,note_on,0,0,0,,1,,,73,127
66660,note_off,119,0,0,,6,,,78,127
66661,note_off,1,0,0,,1,,,73,127
66661,note_off,0,0,0,,10,,,69,127
66662,note_on,1,0,0,,8,,,68,127
66662,note_on,0,0,0,,12,,,71,127
66782,note_off,120,0,0,,12,,,71,127
66782,note_off,0,0,0,,8,,,68,127
66783,note_on,1,0,0,,6,,,66,127
66783,note_on,0,0,0,,10,,,69,127
66903,note_off,120,0,0,,10,,,69,127
66903,note_off,0,0,0,,6,,,66,127
66904,note_on,1,0,0,,8,,,68,127
66904,note_on,0,0,0,,12,,,83,127
66904,note_on,0,0,0,,2,,,74,127
66963,note_off,59,0,0,,2,,,74,127
66963,note_off,0,0,0,,12,,,83,127
66964,note_on,1,0,0,,10,,,81,127
67023,note_off,59,0,0,,10,,,81,127
67024,note_on,1,0,0,,8,,,80,127
67144,note_off,120,0,0,,8,,,80,127
67145,note_on,1,0,0,,5,,,77,127
67265,note_off,120,0,0,,5,,,77,127
67266,note_on,1,0,0,,6,,,78,127
67386,note_off,120,0,0,,6,,,78,127
67387,note_on,1,0,0,,8,,,80,127
67507,note_off,120,0,0,,8,,,68,127
67508,note_on,1,0,0,,8,,,68,127
67508,note_on,0,0,0,,12,,,71,127
67627,note_off,119,0,0,,8,,,80,127
67628,note_off,1,0,0,,12,,,71,127
67628,note_off,0,0,0,,8,,,68,127
67629,note_on,1,0,0,,6,,,66,127
67629,note_on,0,0,0,,10,,,69,127
67749,note_off,120,0,0,,10,,,69,127
67749,note_off,0,0,0,,6,,,66,127
67750,note_on,1,0,0,,5,,,65,127
67750,note_on,0,0,0,,8,,,68,127
67870,note_off,120,0,0,,8,,,68,127
67870,note_off,0,0,0,,5,,,65,127
67871,note_on,1,0,0,,6,,,66,127
67871,note_on,0,0,0,,10,,,69,127
67930,note_off,59,0,0,,10,,,69,127
67931,note_on,1,0,0,,8,,,68,127
67989,note_off,58,0,0,,6,,,66,127
67990,note_off,1,0,0,,8,,,68,127
67991,note_on,1,0,0,,6,,,66,127
68111,note_off,120,0,0,,6,,,66,127
68112,note_on,1,0,0,,12,,,59,127
68112,note_on,0,0,0,,2,,,62,127
68112,note_on,0,0,0,,2,,,74,127
68233,note_on,121,0,0,,8,,,68,127
68352,note_off,119,0,0,,2,,,74,127
68353,note_off,1,0,0,,2,,,62,127
68353,note_off,0,0,0,,12,,,59,127
68354,note_on,1,0,0,,1,,,61,127
68354,note_on,0,0,0,,10,,,57,127
68354,note_on,0,0,0,,1,,,73,127
68384,note_off,30,0,0,,8,,,68,127
68475,note_on,91,0,0,,6,,,66,127
68594,note_off,119,0,0,,1,,,73,127
68595,note_off,1,0,0,,10,,,57,127
68595,note_off,0,0,0,,1,,,61,127
68596,note_on,1,0,0,,12,,,59,127
68596,note_on,0,0,0,,8,,,56,127
68596,note_on,0,0,0,,12,,,71,127
68626,note_off,30,0,0,,6,,,66,127
68717,note_on,91,0,0,,5,,,65,127
68836,note_off,119,0,0,,12,,,71,127
68837,note_off,1,0,0,,5,,,65,127
68837,note_off,0,0,0,,8,,,56,127
68837,note_off,0,0,0,,12,,,59,127
68838,note_on,1,0,0,,6,,,54,127
68838,note_on,0,0,0,,10,,,57,127
68838,note_on,0,0,0,,10,,,69,127
68897,note_off,59,0,0,,10,,,69,127
68898,note_on,1,0,0,,8,,,68,127
68957,note_off,59,0,0,,8,,,68,127
68958,note_on,1,0,0,,6,,,66,127
69078,note_off,120,0,0,,6,,,66,127
69078,note_off,0,0,0,,10,,,57,127
69078,note_off,0,0,0,,6,,,54,127
69079,note_on,1,0,0,,12,,,59,127
69079,note_on,0,0,0,,2,,,62,127
69079,note_on,0,0,0,,2,,,74,127
69200,note_on,121,0,0,,8,,,68,127
69243,note_off,43,0,0,,2,,,74,127
69320,note_off,77,0,0,,8,,,68,127
69320,note_off,0,0,0,,2,,,62,127
69320,note_off,0,0,0,,12,,,59,127
69321,note_on,1,0,0,,1,,,61,127
69321,note_on,0,0,0,,10,,,57,127
69321,note_on,0,0,0,,1,,,73,127
69442,note_on,121,0,0,,6,,,66,127
69485,note_off,43,0,0,,1,,,73,127
69562,note_off,77,0,0,,6,,,66,127
69562,note_off,0,0,0,,10,,,57,127
69562,note_off,0,0,0,,1,,,61,127
69563,note_on,1,0,0,,8,,,56,127
69563,note_on,0,0,0,,12,,,59,127
69563,note_on,0,0,0,,12,,,71,127
69684,note_on,121,0,0,,5,,,65,127
69727,note_off,43,0,0,,12,,,71,127
69804,note_off,77,0,0,,5,,,65,127
69804,note_off,0,0,0,,12,,,59,127
69804,note_off,0,0,0,,8,,,56,127
69805,note_on,1,0,0,,10,,,57,127
69805,note_on,0,0,0,,6,,,54,127
69805,note_on,0,0,0,,10,,,69,127
69864,note_off,59,0,0,,10,,,69,127
69865,note_on,1,0,0,,8,,,68,127
69924,note_off,59,0,0,,8,,,68,127
69925,note_on,1,0,0,,6,,,66,127
70045,note_off,120,0,0,,6,,,66,127
70045,note_off,0,0,0,,6,,,54,127
70045,note_off,0,0,0,,10,,,57,127
70046,note_on,1,0,0,,2,,,62,127
70046,note_on,0,0,0,,6,,,78,127
70167,note_on,121,0,0,,12,,,71,127
70286,note_off,119,0,0,,6,,,78,127
70287,note_off,1,0,0,,2,,,62,127
70288,note_on,1,0,0,,1,,,61,127
70288,note_on,0,0,0,,4,,,76,127
70318,note_off,30,0,0,,12,,,71,127
70409,note_on,91,0,0,,10,,,69,127
70528,note_off,119,0,0,,4,,,76,127
70529,note_off,1,0,0,,1,,,61,127
70530,note_on,1,0,0,,12,,,59,127
70530,note_on,0,0,0,,2,,,74,127
70560,note_off,30,0,0,,10,,,69,127
70651,note_on,91,0,0,,8,,,68,127
70770,note_off,119,0,0,,2,,,74,127
70771,note_off,1,0,0,,8,,,68,127
70771,note_off,0,0,0,,12,,,59,127
70772,note_on,1,0,0,,10,,,57,127
70772,note_on,0,0,0,,1,,,61,127
70772,note_on,0,0,0,,1,,,73,127
70893,note_on,121,0,0,,6,,,66,127
71012,note_off,119,0,0,,1,,,73,127
71013,note_off,1,0,0,,6,,,66,127
71013,note_off,0,0,0,,1,,,61,127
71013,note_off,0,0,0,,10,,,57,127
71014,note_on,1,0,0,,12,,,59,127
71014,note_on,0,0,0,,8,,,56,127
71014,note_on,0,0,0,,12,,,71,127
71135,note_on,121,0,0,,5,,,65,127
71254,note_off,119,0,0,,12,,,71,127
71255,note_off,1,0,0,,5,,,65,127
71255,note_off,0,0,0,,8,,,56,127
71255,note_off,0,0,0,,12,,,59,127
71256,note_on,1,0,0,,10,,,57,127
71256,note_on,0,0,0,,6,,,54,127
71256,note_on,0,0,0,,10,,,69,127
71315,note_off,59,0,0,,10,,,69,127
71316,note_on,1,0,0,,8,,,68,127
71375,note_off,59,0,0,,8,,,68,127
71376,note_on,1,0,0,,6,,,66,127
71496,note_off,120,0,0,,6,,,66,127
71496,note_off,0,0,0,,6,,,54,127
71496,note_off,0,0,0,,10,,,57,127
71497,note_on,1,0,0,,2,,,50,127
71497,note_on,0,0,0,,12,,,59,127
71497,note_on,0,0,0,,5,,,65,127
71617,note_off,120,0,0,,5,,,65,127
71618,note_on,1,0,0,,6,,,66,127
71738,note_off,120,0,0,,6,,,66,127
71738,note_off,0,0,0,,12,,,59,127
71738,note_off,0,0,0,,2,,,50,127
71739,note_on,1,0,0,,1,,,49,127
71739,note_on,0,0,0,,8,,,68,127
71859,note_off,120,0,0,,8,,,68,127
71860,note_on,1,0,0,,5,,,65,127
71980,note_off,120,0,0,,5,,,65,127
71980,note_off,0,0,0,,1,,,49,127
71981,note_on,1,0,0,,1,,,73,127
71981,note_on,0,0,0,,1,,,61,127
72101,note_off,120,0,0,,1,,,61,127
72102,note_on,1,0,0,,5,,,65,127
72222,note_off,120,0,0,,5,,,65,127
72222,note_off,0,0,0,,1,,,73,127
72223,note_on,1,0,0,,2,,,74,127
72223,note_on,0,0,0,,8,,,68,127
72343,note_off,120,0,0,,8,,,68,127
72344,note_on,1,0,0,,5,,,65,127
72464,note_off,120,0,0,,5,,,65,127
72464,note_off,0,0,0,,2,,,74,127
72465,note_on,1,0,0,,1,,,73,127
72465,note_on,0,0,0,,1,,,61,127
72585,note_off,120,0,0,,1,,,61,127
72586,note_on,1,0,0,,5,,,65,127
72706,note_off,120,0,0,,5,,,65,127
72706,note_off,0,0,0,,1,,,73,127
72707,note_on,1,0,0,,6,,,42,127
72707,note_on,0,0,0,,10,,,69,127
72827,note_off,120,0,0,,10,,,69,127
72828,note_on,1,0,0,,6,,,66,127
72948,note_off,120,0,0,,6,,,66,127
72948,note_off,0,0,0,,6,,,42,127
72949,note_on,1,0,0,,1,,,73,127
72949,note_on,0,0,0,,1,,,61,127
73069,note_off,120,0,0,,1,,,61,127
73070,note_on,1,0,0,,6,,,66,127
73190,note_off,120,0,0,,6,,,66,127
73190,note_off,0,0,0,,1,,,73,127
73191,note_on,1,0,0,,2,,,74,127
73191,note_on,0,0,0,,10,,,69,127
73311,note_off,120,0,0,,10,,,69,127
73312,note_on,1,0,0,,6,,,66,127
73432,note_off,120,0,0,,6,,,66,127
73432,note_off,0,0,0,,2,,,74,127
73433,note_on,1,0,0,,1,,,73,127
73433,note_on,0,0,0,,1,,,61,127
73553,note_off,120,0,0,,1,,,61,127
73554,note_on,1,0,0,,6,,,66,127
73674,note_off,120,0,0,,6,,,66,127
73674,note_off,0,0,0,,1,,,73,127
73675,note_on,1,0,0,,1,,,37,127
73675,note_on,0,0,0,,8,,,68,127
73795,note_off,120,0,0,,8,,,68,127
73796,note_on,1,0,0,,5,,,65,127
73916,note_off,120,0,0,,5,,,65,127
73916,note_off,0,0,0,,1,,,37,127
73917,note_on,1,0,0,,1,,,73,127
73917,note_on,0,0,0,,1,,,61,127
74037,note_off,120,0,0,,1,,,61,127
74038,note_on,1,0,0,,5,,,65,127
74158,note_off,120,0,0,,5,,,65,127
74158,note_off,0,0,0,,1,,,73,127
74159,note_on,1,0,0,,2,,,74,127
74159,note_on,0,0,0,,8,,,68,127
74279,note_off,120,0,0,,8,,,68,127
74280,note_on,1,0,0,,5,,,65,127
74400,note_off,120,0,0,,5,,,65,127
74400,note_off,0,0,0,,2,,,74,127
74401,note_on,1,0,0,,1,,,73,127
74401,note_on,0,0,0,,1,,,61,127
74521,note_off,120,0,0,,1,,,61,127
74522,note_on,1,0,0,,5,,,65,127
74642,note_off,120,0,0,,5,,,65,127
74642,note_off,0,0,0,,1,,,73,127
74643,note_on,1,0,0,,6,,,42,127
74643,note_on,0,0,0,,10,,,69,127
74763,note_off,120,0,0,,10,,,69,127
74764,note_on,1,0,0,,6,,,66,127
74884,note_off,120,0,0,,6,,,66,127
74884,note_off,0,0,0,,6,,,42,127
74885,note_on,1,0,0,,1,,,73,127
74885,note_on,0,0,0,,1,,,61,127
75005,note_off,120,0,0,,1,,,61,127
75006,note_on,1,0,0,,6,,,66,127
75126,note_off,120,0,0,,6,,,66,127
75126,note_off,0,0,0,,1,,,73,127
75127,note_on,1,0,0,,2,,,74,127
75127,note_on,0,0,0,,10,,,69,127
75247,note_off,120,0,0,,10,,,69,127
75248,note_on,1,0,0,,6,,,66,127
75368,note_off,120,0,0,,6,,,66,127
75368,note_off,0,0,0,,2,,,74,127
75369,note_on,1,0,0,,1,,,73,127
75369,note_on,0,0,0,,1,,,61,127
75489,note_off,120,0,0,,1,,,61,127
75490,note_on,1,0,0,,6,,,66,127
75610,note_off,120,0,0,,6,,,66,127
75610,note_off,0,0,0,,1,,,73,127
75611,note_on,1,0,0,,1,,,37,127
75611,note_on,0,0,0,,8,,,68,127
75731,note_off,120,0,0,,8,,,68,127
75732,note_on,1,0,0,,5,,,65,127
75852,note_off,120,0,0,,5,,,65,127
75852,note_off,0,0,0,,1,,,37,127
75853,note_on,1,0,0,,1,,,73,127
75853,note_on,0,0,0,,1,,,61,127
75973,note_off,120,0,0,,1,,,61,127
75974,note_on,1,0,0,,5,,,65,127
76094,note_off,120,0,0,,5,,,65,127
76094,note_off,0,0,0,,1,,,73,127
76095,note_on,1,0,0,,2,,,74,127
76095,note_on,0,0,0,,8,,,68,127
76215,note_off,120,0,0,,8,,,68,127
76216,note_on,1,0,0,,5,,,65,127
76336,note_off,120,0,0,,5,,,65,127
76336,note_off,0,0,0,,2,,,74,127
76337,note_on,1,0,0,,1,,,73,127
76337,note_on,0,0,0,,1,,,61,127
76457,note_off,120,0,0,,1,,,61,127
76458,note_on,1,0,0,,5,,,65,127
76578,note_off,120,0,0,,5,,,65,127
76578,note_off,0,0,0,,1,,,73,127
76579,note_on,1,0,0,,6,,,54,127
76579,note_on,0,0,0,,10,,,69,127
76638,note_off,59,0,0,,10,,,69,127
76639,note_on,1,0,0,,8,,,68,127
76698,note_off,59,0,0,,8,,,68,127
76699,note_on,1,0,0,,6,,,66,127
76819,note_off,120,0,0,,6,,,66,127
76819,note_off,0,0,0,,6,,,54,127
76820,note_on,1,0,0,,12,,,59,127
76820,note_on,0,0,0,,2,,,62,127
76820,note_on,0,0,0,,2,,,74,127
76941,note_on,121,0,0,,8,,,68,127
77060,note_off,119,0,0,,2,,,74,127
77061,note_off,1,0,0,,8,,,68,127
77061,note_off,0,0,0,,2,,,62,127
77061,note_off,0,0,0,,12,,,59,127
77062,note_on,1,0,0,,1,,,61,127
77062,note_on,0,0,0,,10,,,57,127
77062,note_on,0,0,0,,1,,,73,127
77183,note_on,121,0,0,,6,,,66,127
77302,note_off,119,0,0,,1,,,73,127
77303,note_off,1,0,0,,6,,,66,127
77303,note_off,0,0,0,,10,,,57,127
77303,note_off,0,0,0,,1,,,61,127
77304,note_on,1,0,0,,8,,,56,127
77304,note_on,0,0,0,,12,,,59,127
77304,note_on,0,0,0,,12,,,71,127
77425,note_on,121,0,0,,5,,,65,127
77544,note_off,119,0,0,,12,,,71,127
77545,note_off,1,0,0,,5,,,65,127
77545,note_off,0,0,0,,12,,,59,127
77545,note_off,0,0,0,,8,,,56,127
77546,note_on,1,0,0,,6,,,54,127
77546,note_on,0,0,0,,10,,,57,127
77546,note_on,0,0,0,,10,,,69,127
77605,note_off,59,0,0,,10,,,69,127
77606,note_on,1,0,0,,8,,,68,127
77665,note_off,59,0,0,,8,,,68,127
77666,note_on,1,0,0,,6,,,66,127
77786,note_off,120,0,0,,6,,,66,127
77786,note_off,0,0,0,,10,,,57,127
77786,note_off,0,0,0,,6,,,54,127
77787,note_on,1,0,0,,12,,,59,127
77787,note_on,0,0,0,,2,,,62,127
77787,note_on,0,0,0,,2,,,74,127
77907,note_off,120,0,0,,2,,,74,127
77908,note_on,1,0,0,,8,,,68,127
78028,note_off,120,0,0,,8,,,68,127
78028,note_off,0,0,0,,2,,,62,127
78028,note_off,0,0,0,,12,,,59,127
78029,note_on,1,0,0,,10,,,57,127
78029,note_on,0,0,0,,1,,,61,127
78029,note_on,0,0,0,,1,,,73,127
78149,note_off,120,0,0,,1,,,73,127
78150,note_on,1,0,0,,6,,,66,127
78270,note_off,120,0,0,,6,,,66,127
78270,note_off,0,0,0,,1,,,61,127
78270,note_off,0,0,0,,10,,,57,127
78271,note_on,1,0,0,,12,,,59,127
78271,note_on,0,0,0,,8,,,56,127
78271,note_on,0,0,0,,12,,,71,127
78391,note_off,120,0,0,,12,,,71,127
78392,note_on,1,0,0,,5,,,65,127
78512,note_off,120,0,0,,5,,,65,127
78512,note_off,0,0,0,,8,,,56,127
78512,note_off,0,0,0,,12,,,59,127
78513,note_on,1,0,0,,6,,,54,127
78513,note_on,0,0,0,,10,,,57,127
78513,note_on,0,0,0,,10,,,69,127
78572,note_off,59,0,0,,10,,,69,127
78573,note_on,1,0,0,,8,,,68,127
78632,note_off,59,0,0,,8,,,68,127
78633,note_on,1,0,0,,6,,,66,127
78753,note_off,120,0,0,,6,,,66,127
78753,note_off,0,0,0,,10,,,57,127
78753,note_off,0,0,0,,6,,,54,127
78754,note_on,1,0,0,,2,,,62,127
78754,note_on,0,0,0,,6,,,78,127
78875,note_on,121,0,0,,12,,,71,127
78981,note_off,106,0,0,,6,,,78,127
78995,note_off,14,0,0,,2,,,62,127
78996,note_on,1,0,0,,1,,,61,127
78996,note_on,0,0,0,,4,,,76,127
79014,note_off,18,0,0,,12,,,71,127
79118,note_on,104,0,0,,10,,,69,127
79224,note_off,106,0,0,,4,,,76,127
79238,note_off,14,0,0,,1,,,61,127
79239,note_on,1,0,0,,12,,,59,127
79239,note_on,0,0,0,,2,,,74,127
79257,note_off,18,0,0,,10,,,69,127
79361,note_on,104,0,0,,8,,,68,127
79467,note_off,106,0,0,,2,,,74,127
79481,note_off,14,0,0,,12,,,59,127
79482,note_on,1,0,0,,10,,,57,127
79482,note_on,0,0,0,,1,,,73,127
79500,note_off,18,0,0,,8,,,68,127
79604,note_on,104,0,0,,6,,,66,127
79710,note_off,106,0,0,,1,,,73,127
79724,note_off,14,0,0,,6,,,66,127
79724,note_off,0,0,0,,10,,,57,127
79725,note_on,1,0,0,,8,,,56,127
79725,note_on,0,0,0,,12,,,83,127
79846,note_on,121,0,0,,8,,,80,127
79952,note_off,106,0,0,,12,,,83,127
79966,note_off,14,0,0,,8,,,80,127
79966,note_off,0,0,0,,8,,,56,127
79967,note_on,1,0,0,,6,,,54,127
79967,note_on,0,0,0,,10,,,81,127
80088,note_on,121,0,0,,6,,,78,127
80194,note_off,106,0,0,,10,,,81,127
80208,note_off,14,0,0,,6,,,78,127
80208,note_off,0,0,0,,6,,,54,127
80209,note_on,1,0,0,,1,,,61,127
80209,note_on,0,0,0,,8,,,80,127
80330,note_on,121,0,0,,5,,,77,127
80391,note_off,61,0,0,,8,,,80,127
80450,note_off,59,0,0,,5,,,77,127
80450,note_off,0,0,0,,1,,,61,127
80451,note_on,1,0,0,,2,,,62,127
80451,note_on,0,0,0,,6,,,78,127
80510,note_off,59,0,0,,6,,,78,127
80511,note_on,1,0,0,,8,,,80,127
80570,note_off,59,0,0,,8,,,80,127
80571,note_on,1,0,0,,10,,,81,127
80691,note_off,120,0,0,,10,,,81,127
80691,note_off,0,0,0,,2,,,62,127
80692,note_on,1,0,0,,12,,,59,127
80692,note_on,0,0,0,,12,,,83,127
80751,note_off,59,0,0,,12,,,83,127
80752,note_on,1,0,0,,10,,,81,127
80811,note_off,59,0,0,,10,,,81,127
80812,note_on,1,0,0,,8,,,80,127
80932,note_off,120,0,0,,8,,,80,127
80932,note_off,0,0,0,,12,,,59,127
80933,note_on,1,0,0,,1,,,61,127
80933,note_on,0,0,0,,10,,,81,127
80992,note_off,59,0,0,,10,,,81,127
80993,note_on,1,0,0,,8,,,80,127
81052,note_off,59,0,0,,8,,,80,127
81053,note_on,1,0,0,,6,,,78,127
81173,note_off,120,0,0,,6,,,78,127
81174,note_on,1,0,0,,1,,,49,127
81174,note_on,0,0,0,,8,,,80,127
81233,note_off,59,0,0,,8,,,80,127
81234,note_on,1,0,0,,6,,,78,127
81293,note_off,59,0,0,,6,,,78,127
81294,note_on,1,0,0,,5,,,77,127
81410,note_off,116,0,0,,1,,,61,127
81414,note_off,4,0,0,,5,,,77,127
81414,note_off,0,0,0,,1,,,49,127
81415,note_on,1,0,0,,2,,,50,127
81415,note_on,0,0,0,,2,,,62,127
81415,note_on,0,0,0,,6,,,78,127
81474,note_off,59,0,0,,6,,,78,127
81475,note_on,1,0,0,,4,,,76,127
81534,note_off,59,0,0,,4,,,76,127
81535,note_on,1,0,0,,2,,,74,127
81655,note_off,120,0,0,,2,,,74,127
81655,note_off,0,0,0,,2,,,62,127
81655,note_off,0,0,0,,2,,,50,127
81656,note_on,1,0,0,,1,,,61,127
81656,note_on,0,0,0,,1,,,49,127
81656,note_on,0,0,0,,4,,,76,127
81715,note_off,59,0,0,,4,,,76,127
81716,note_on,1,0,0,,2,,,74,127
81775,note_off,59,0,0,,2,,,74,127
81776,note_on,1,0,0,,1,,,73,127
81896,note_off,120,0,0,,1,,,73,127
81896,note_off,0,0,0,,1,,,49,127
81896,note_off,0,0,0,,1,,,61,127
81897,note_on,1,0,0,,12,,,59,127
81897,note_on,0,0,0,,12,,,47,127
81897,note_on,0,0,0,,2,,,74,127
81956,note_off,59,0,0,,2,,,74,127
81957,note_on,1,0,0,,1,,,73,127
82016,note_off,59,0,0,,1,,,73,127
82017,note_on,1,0,0,,12,,,71,127
82137,note_off,120,0,0,,12,,,71,127
82137,note_off,0,0,0,,12,,,47,127
82137,note_off,0,0,0,,12,,,59,127
82138,note_on,1,0,0,,10,,,57,127
82138,note_on,0,0,0,,10,,,45,127
82138,note_on,0,0,0,,1,,,73,127
82197,note_off,59,0,0,,1,,,73,127
82198,note_on,1,0,0,,12,,,71,127
82257,note_off,59,0,0,,12,,,71,127
82258,note_on,1,0,0,,10,,,69,127
82378,note_off,120,0,0,,10,,,69,127
82378,note_off,0,0,0,,10,,,45,127
82378,note_off,0,0,0,,10,,,57,127
82379,note_on,1,0,0,,8,,,44,127
82379,note_on,0,0,0,,8,,,56,127
82379,note_on,0,0,0,,12,,,71,127
82438,note_off,59,0,0,,12,,,71,127
82439,note_on,1,0,0,,10,,,69,127
82498,note_off,59,0,0,,10,,,69,127
82499,note_on,1,0,0,,8,,,68,127
82619,note_off,120,0,0,,8,,,68,127
82619,note_off,0,0,0,,8,,,56,127
82619,note_off,0,0,0,,8,,,44,127
82620,note_on,1,0,0,,6,,,54,127
82620,note_on,0,0,0,,6,,,42,127
82620,note_on,0,0,0,,10,,,69,127
82679,note_off,59,0,0,,10,,,69,127
82680,note_on,1,0,0,,8,,,68,127
82739,note_off,59,0,0,,8,,,68,127
82740,note_on,1,0,0,,6,,,66,127
82860,note_off,120,0,0,,6,,,66,127
82860,note_off,0,0,0,,6,,,42,127
82860,note_off,0,0,0,,6,,,54,127
82861,note_on,1,0,0,,1,,,49,127
82861,note_on,0,0,0,,1,,,37,127
82861,note_on,0,0,0,,10,,,69,127
82861,note_on,0,0,0,,6,,,66,127
83102,note_off,241,0,0,,6,,,66,127
83102,note_off,0,0,0,,10,,,69,127
83102,note_off,0,0,0,,1,,,37,127
83102,note_off,0,0,0,,1,,,49,127
83103,note_on,1,0,0,,1,,,37,127
83103,note_on,0,0,0,,1,,,49,127
83103,note_on,0,0,0,,8,,,68,127
83103,note_on,0,0,0,,5,,,65,127
83344,note_off,241,0,0,,5,,,65,127
83344,note_off,0,0,0,,8,,,68,127
83344,note_off,0,0,0,,1,,,49,127
83344,note_off,0,0,0,,1,,,37,127
83360,note_on,16,0,0,,6,,,42,127
83360,note_on,0,0,0,,6,,,66,127
85255,note_off,1895,0,0,,6,,,66,127
85255,note_off,0,0,0,,6,,,42,127
89088,end_of_track,3833,1,0,,,,,,
