tick,type,time,meta,track,program,channel,pitch,tempo,note,velocity
0,copyright,0,1,0,,,,,,
0,program_change,0,0,0,6,0,,,,
0,pitchwheel,0,0,0,,0,0,,,
0,program_change,0,0,0,6,1,,,,
0,pitchwheel,0,0,0,,1,-590,,,
0,program_change,0,0,0,6,2,,,,
0,pitchwheel,0,0,0,,2,-272,,,
0,program_change,0,0,0,6,3,,,,
0,pitchwheel,0,0,0,,3,-353,,,
0,program_change,0,0,0,6,4,,,,
0,pitchwheel,0,0,0,,4,-560,,,
0,program_change,0,0,0,6,5,,,,
0,pitchwheel,0,0,0,,5,-80,,,
0,program_change,0,0,0,6,6,,,,
0,pitchwheel,0,0,0,,6,-625,,,
0,program_change,0,0,0,6,7,,,,
0,pitchwheel,0,0,0,,7,-130,,,
0,program_change,0,0,0,6,8,,,,
0,pitchwheel,0,0,0,,8,-512,,,
0,program_change,0,0,0,6,10,,,,
0,pitchwheel,0,0,0,,10,-464,,,
0,program_change,0,0,0,6,11,,,,
0,pitchwheel,0,0,0,,11,-208,,,
0,program_change,0,0,0,6,12,,,,
0,pitchwheel,0,0,0,,12,-553,,,
0,set_tempo,0,1,0,,,,500000,,
121,note_on,121,0,0,,4,,,76,127
241,note_off,120,0,0,,4,,,76,127
242,note_on,1,0,0,,1,,,73,127
362,note_off,120,0,0,,1,,,73,127
363,note_on,1,0,0,,2,,,74,127
483,note_off,120,0,0,,2,,,74,127
484,note_on,1,0,0,,12,,,71,127
604,note_off,120,0,0,,12,,,71,127
605,note_on,1,0,0,,12,,,71,127
644,note_off,39,0,0,,12,,,71,127
645,note_on,1,0,0,,10,,,69,127
684,note_off,39,0,0,,10,,,69,127
685,note_on,1,0,0,,12,,,71,127
724,note_off,39,0,0,,12,,,71,127
725,note_on,1,0,0,,10,,,69,127
846,note_on,121,0,0,,1,,,37,127
846,note_on,0,0,0,,1,,,49,127
846,note_on,0,0,0,,1,,,61,127
965,note_off,119,0,0,,10,,,69,127
1028,note_off,63,0,0,,1,,,61,127
1028,note_off,0,0,0,,1,,,49,127
1028,note_off,0,0,0,,1,,,37,127
1086,note_on,58,0,0,,4,,,52,127
1086,note_on,0,0,0,,4,,,40,127
1086,note_on,0,0,0,,4,,,64,127
1268,note_off,182,0,0,,4,,,64,127
1268,note_off,0,0,0,,4,,,40,127
1268,note_off,0,0,0,,4,,,52,127
1326,note_on,58,0,0,,10,,,69,127
1326,note_on,0,0,0,,10,,,45,127
1326,note_on,0,0,0,,10,,,57,127
1508,note_off,182,0,0,,10,,,57,127
1508,note_off,0,0,0,,10,,,45,127
1508,note_off,0,0,0,,10,,,69,127
1574,note_on,66,0,0,,4,,,76,127
1694,note_off,120,0,0,,4,,,76,127
1695,note_on,1,0,0,,1,,,73,127
1815,note_off,120,0,0,,1,,,73,127
1816,note_on,1,0,0,,2,,,74,127
1936,note_off,120,0,0,,2,,,74,127
1937,note_on,1,0,0,,12,,,71,127
2057,note_off,120,0,0,,12,,,71,127
2058,note_on,1,0,0,,12,,,71,127
2097,note_off,39,0,0,,12,,,71,127
2098,note_on,1,0,0,,10,,,69,127
2137,note_off,39,0,0,,10,,,69,127
2138,note_on,1,0,0,,12,,,71,127
2177,note_off,39,0,0,,12,,,71,127
2178,note_on,1,0,0,,10,,,69,127
2299,note_on,121,0,0,,1,,,49,127
2299,note_on,0,0,0,,1,,,37,127
2299,note_on,0,0,0,,1,,,61,127
2418,note_off,119,0,0,,10,,,69,127
2481,note_off,63,0,0,,1,,,61,127
2481,note_off,0,0,0,,1,,,37,127
2481,note_off,0,0,0,,1,,,49,127
2539,note_on,58,0,0,,4,,,40,127
2539,note_on,0,0,0,,4,,,52,127
2539,note_on,0,0,0,,4,,,64,127
2721,note_off,182,0,0,,4,,,64,127
2721,note_off,0,0,0,,4,,,52,127
2721,note_off,0,0,0,,4,,,40,127
2779,note_on,58,0,0,,10,,,57,127
2779,note_on,0,0,0,,10,,,45,127
2779,note_on,0,0,0,,10,,,69,127
2961,note_off,182,0,0,,10,,,69,127
2961,note_off,0,0,0,,10,,,45,127
2961,note_off,0,0,0,,10,,,57,127
3027,note_on,66,0,0,,10,,,81,127
3147,note_off,120,0,0,,10,,,81,127
3148,note_on,1,0,0,,4,,,76,127
3268,note_off,120,0,0,,4,,,76,127
3269,note_on,1,0,0,,6,,,78,127
3389,note_off,120,0,0,,6,,,78,127
3390,note_on,1,0,0,,2,,,74,127
3510,note_off,120,0,0,,2,,,74,127
3511,note_on,1,0,0,,2,,,74,127
3550,note_off,39,0,0,,2,,,74,127
3551,note_on,1,0,0,,1,,,73,127
3590,note_off,39,0,0,,1,,,73,127
3591,note_on,1,0,0,,2,,,74,127
3630,note_off,39,0,0,,2,,,74,127
3631,note_on,1,0,0,,1,,,73,127
3752,note_on,121,0,0,,4,,,40,127
3752,note_on,0,0,0,,4,,,52,127
3752,note_on,0,0,0,,4,,,64,127
3871,note_off,119,0,0,,1,,,73,127
3934,note_off,63,0,0,,4,,,64,127
3934,note_off,0,0,0,,4,,,52,127
3934,note_off,0,0,0,,4,,,40,127
3992,note_on,58,0,0,,10,,,57,127
3992,note_on,0,0,0,,10,,,45,127
3992,note_on,0,0,0,,10,,,69,127
4174,note_off,182,0,0,,10,,,69,127
4174,note_off,0,0,0,,10,,,45,127
4174,note_off,0,0,0,,10,,,57,127
4232,note_on,58,0,0,,1,,,73,127
4232,note_on,0,0,0,,1,,,49,127
4232,note_on,0,0,0,,1,,,61,127
4414,note_off,182,0,0,,1,,,61,127
4414,note_off,0,0,0,,1,,,49,127
4414,note_off,0,0,0,,1,,,73,127
4480,note_on,66,0,0,,10,,,81,127
4600,note_off,120,0,0,,10,,,81,127
4601,note_on,1,0,0,,4,,,76,127
4721,note_off,120,0,0,,4,,,76,127
4722,note_on,1,0,0,,6,,,78,127
4842,note_off,120,0,0,,6,,,78,127
4843,note_on,1,0,0,,2,,,74,127
4963,note_off,120,0,0,,2,,,74,127
4964,note_on,1,0,0,,2,,,74,127
5003,note_off,39,0,0,,2,,,74,127
5004,note_on,1,0,0,,1,,,73,127
5043,note_off,39,0,0,,1,,,73,127
5044,note_on,1,0,0,,2,,,74,127
5083,note_off,39,0,0,,2,,,74,127
5084,note_on,1,0,0,,1,,,73,127
5205,note_on,121,0,0,,4,,,40,127
5205,note_on,0,0,0,,4,,,52,127
5205,note_on,0,0,0,,4,,,64,127
5324,note_off,119,0,0,,1,,,73,127
5387,note_off,63,0,0,,4,,,64,127
5387,note_off,0,0,0,,4,,,52,127
5387,note_off,0,0,0,,4,,,40,127
5448,note_on,61,0,0,,10,,,45,127
5448,note_on,0,0,0,,10,,,57,127
5448,note_on,0,0,0,,10,,,69,127
5630,note_off,182,0,0,,10,,,69,127
5630,note_off,0,0,0,,10,,,57,127
5630,note_off,0,0,0,,10,,,45,127
5691,note_on,61,0,0,,1,,,49,127
5691,note_on,0,0,0,,1,,,61,127
5691,note_on,0,0,0,,1,,,73,127
5873,note_off,182,0,0,,1,,,73,127
5934,note_on,61,0,0,,10,,,81,127
6054,note_off,120,0,0,,10,,,81,127
6055,note_on,1,0,0,,4,,,76,127
6175,note_off,120,0,0,,4,,,76,127
6175,note_off,0,0,0,,1,,,61,127
6175,note_off,0,0,0,,1,,,49,127
6176,note_on,1,0,0,,2,,,62,127
6176,note_on,0,0,0,,2,,,50,127
6176,note_on,0,0,0,,6,,,78,127
6296,note_off,120,0,0,,6,,,78,127
6297,note_on,1,0,0,,2,,,74,127
6417,note_off,120,0,0,,2,,,74,127
6417,note_off,0,0,0,,2,,,50,127
6417,note_off,0,0,0,,2,,,62,127
6418,note_on,1,0,0,,1,,,61,127
6418,note_on,0,0,0,,1,,,49,127
6418,note_on,0,0,0,,4,,,76,127
6538,note_off,120,0,0,,4,,,76,127
6539,note_on,1,0,0,,1,,,73,127
6659,note_off,120,0,0,,1,,,73,127
6659,note_off,0,0,0,,1,,,49,127
6659,note_off,0,0,0,,1,,,61,127
6660,note_on,1,0,0,,12,,,47,127
6660,note_on,0,0,0,,12,,,59,127
6660,note_on,0,0,0,,2,,,74,127
6781,note_on,121,0,0,,12,,,71,127
6842,note_off,61,0,0,,2,,,74,127
6901,note_off,59,0,0,,12,,,71,127
6901,note_off,0,0,0,,12,,,59,127
6901,note_off,0,0,0,,12,,,47,127
6902,note_on,1,0,0,,8,,,56,127
6902,note_on,0,0,0,,8,,,44,127
6902,note_on,0,0,0,,12,,,83,127
7022,note_off,120,0,0,,12,,,83,127
7023,note_on,1,0,0,,12,,,71,127
7143,note_off,120,0,0,,12,,,71,127
7143,note_off,0,0,0,,8,,,44,127
7143,note_off,0,0,0,,8,,,56,127
7144,note_on,1,0,0,,10,,,45,127
7144,note_on,0,0,0,,10,,,57,127
7144,note_on,0,0,0,,1,,,73,127
7265,note_on,121,0,0,,10,,,69,127
7295,note_off,30,0,0,,1,,,73,127
7385,note_off,90,0,0,,10,,,69,127
7385,note_off,0,0,0,,10,,,57,127
7385,note_off,0,0,0,,10,,,45,127
7386,note_on,1,0,0,,12,,,47,127
7386,note_on,0,0,0,,12,,,59,127
7386,note_on,0,0,0,,2,,,74,127
7507,note_on,121,0,0,,12,,,71,127
7537,note_off,30,0,0,,2,,,74,127
7627,note_off,90,0,0,,12,,,71,127
7627,note_off,0,0,0,,12,,,59,127
7627,note_off,0,0,0,,12,,,47,127
7628,note_on,1,0,0,,8,,,56,127
7628,note_on,0,0,0,,8,,,44,127
7628,note_on,0,0,0,,12,,,83,127
7748,note_off,120,0,0,,12,,,83,127
7749,note_on,1,0,0,,12,,,71,127
7869,note_off,120,0,0,,12,,,71,127
7869,note_off,0,0,0,,8,,,44,127
7869,note_off,0,0,0,,8,,,56,127
7870,note_on,1,0,0,,10,,,57,127
7870,note_on,0,0,0,,10,,,45,127
7870,note_on,0,0,0,,1,,,73,127
7991,note_on,121,0,0,,10,,,69,127
8021,note_off,30,0,0,,1,,,73,127
8111,note_off,90,0,0,,10,,,69,127
8111,note_off,0,0,0,,10,,,45,127
8111,note_off,0,0,0,,10,,,57,127
8112,note_on,1,0,0,,12,,,59,127
8112,note_on,0,0,0,,12,,,47,127
8112,note_on,0,0,0,,2,,,74,127
8233,note_on,121,0,0,,12,,,71,127
8263,note_off,30,0,0,,2,,,74,127
8353,note_off,90,0,0,,12,,,71,127
8353,note_off,0,0,0,,12,,,47,127
8353,note_off,0,0,0,,12,,,59,127
8354,note_on,1,0,0,,8,,,56,127
8354,note_on,0,0,0,,8,,,44,127
8354,note_on,0,0,0,,4,,,76,127
8475,note_on,121,0,0,,12,,,71,127
8505,note_off,30,0,0,,4,,,76,127
8595,note_off,90,0,0,,12,,,71,127
8595,note_off,0,0,0,,8,,,44,127
8595,note_off,0,0,0,,8,,,56,127
8596,note_on,1,0,0,,10,,,45,127
8596,note_on,0,0,0,,10,,,57,127
8596,note_on,0,0,0,,1,,,73,127
8717,note_on,121,0,0,,10,,,69,127
8747,note_off,30,0,0,,1,,,73,127
8837,note_off,90,0,0,,10,,,69,127
8837,note_off,0,0,0,,10,,,57,127
8837,note_off,0,0,0,,10,,,45,127
8838,note_on,1,0,0,,12,,,59,127
8838,note_on,0,0,0,,12,,,47,127
8838,note_on,0,0,0,,2,,,74,127
8958,note_off,120,0,0,,2,,,74,127
8959,note_on,1,0,0,,12,,,71,127
9079,note_off,120,0,0,,12,,,71,127
9079,note_off,0,0,0,,12,,,47,127
9079,note_off,0,0,0,,12,,,59,127
9080,note_on,1,0,0,,8,,,56,127
9080,note_on,0,0,0,,8,,,44,127
9080,note_on,0,0,0,,4,,,76,127
9200,note_off,120,0,0,,4,,,76,127
9201,note_on,1,0,0,,12,,,71,127
9321,note_off,120,0,0,,12,,,71,127
9321,note_off,0,0,0,,8,,,44,127
9321,note_off,0,0,0,,8,,,56,127
9322,note_on,1,0,0,,10,,,45,127
9322,note_on,0,0,0,,10,,,57,127
9322,note_on,0,0,0,,1,,,73,127
9442,note_off,120,0,0,,1,,,73,127
9443,note_on,1,0,0,,10,,,69,127
9563,note_off,120,0,0,,10,,,69,127
9563,note_off,0,0,0,,10,,,57,127
9563,note_off,0,0,0,,10,,,45,127
9564,note_on,1,0,0,,4,,,40,127
9564,note_on,0,0,0,,1,,,73,127
9623,note_off,59,0,0,,1,,,73,127
9624,note_on,1,0,0,,12,,,71,127
9683,note_off,59,0,0,,12,,,71,127
9684,note_on,1,0,0,,1,,,73,127
9743,note_off,59,0,0,,1,,,73,127
9744,note_on,1,0,0,,12,,,71,127
9803,note_off,59,0,0,,12,,,71,127
9804,note_on,1,0,0,,1,,,73,127
9863,note_off,59,0,0,,1,,,73,127
9864,note_on,1,0,0,,12,,,71,127
9923,note_off,59,0,0,,12,,,71,127
9924,note_on,1,0,0,,1,,,73,127
9983,note_off,59,0,0,,1,,,73,127
9984,note_on,1,0,0,,12,,,71,127
10045,note_on,61,0,0,,4,,,52,127
10166,note_off,121,0,0,,4,,,40,127
10225,note_off,59,0,0,,12,,,71,127
10297,note_on,72,0,0,,4,,,64,127
10398,note_off,101,0,0,,4,,,52,127
10567,note_off,169,0,0,,4,,,64,127
10575,note_on,8,0,0,,4,,,76,127
10575,note_on,0,0,0,,0,,,72,127
10695,note_off,120,0,0,,0,,,72,127
10696,note_on,1,0,0,,4,,,64,127
10816,note_off,120,0,0,,4,,,64,127
10816,note_off,0,0,0,,4,,,76,127
10817,note_on,1,0,0,,2,,,74,127
10817,note_on,0,0,0,,12,,,71,127
10937,note_off,120,0,0,,12,,,71,127
10938,note_on,1,0,0,,4,,,64,127
11058,note_off,120,0,0,,4,,,64,127
11058,note_off,0,0,0,,2,,,74,127
11059,note_on,1,0,0,,0,,,72,127
11059,note_on,0,0,0,,10,,,69,127
11179,note_off,120,0,0,,10,,,69,127
11180,note_on,1,0,0,,4,,,64,127
11300,note_off,120,0,0,,4,,,64,127
11300,note_off,0,0,0,,0,,,72,127
11301,note_on,1,0,0,,4,,,52,127
11301,note_on,0,0,0,,8,,,68,127
11421,note_off,120,0,0,,8,,,68,127
11422,note_on,1,0,0,,4,,,64,127
11542,note_off,120,0,0,,4,,,64,127
11543,note_on,1,0,0,,4,,,40,127
11543,note_on,0,0,0,,10,,,69,127
11663,note_off,120,0,0,,10,,,69,127
11664,note_on,1,0,0,,4,,,64,127
11784,note_off,120,0,0,,4,,,64,127
11784,note_off,0,0,0,,4,,,40,127
11784,note_off,0,0,0,,4,,,52,127
11785,note_on,1,0,0,,4,,,52,127
11785,note_on,0,0,0,,12,,,71,127
11905,note_off,120,0,0,,12,,,71,127
11906,note_on,1,0,0,,4,,,64,127
12026,note_off,120,0,0,,4,,,64,127
12026,note_off,0,0,0,,4,,,52,127
12027,note_on,1,0,0,,4,,,76,127
12027,note_on,0,0,0,,0,,,72,127
12147,note_off,120,0,0,,0,,,72,127
12148,note_on,1,0,0,,4,,,64,127
12268,note_off,120,0,0,,4,,,64,127
12268,note_off,0,0,0,,4,,,76,127
12269,note_on,1,0,0,,2,,,74,127
12269,note_on,0,0,0,,12,,,71,127
12389,note_off,120,0,0,,12,,,71,127
12390,note_on,1,0,0,,4,,,64,127
12510,note_off,120,0,0,,4,,,64,127
12510,note_off,0,0,0,,2,,,74,127
12511,note_on,1,0,0,,0,,,72,127
12511,note_on,0,0,0,,10,,,69,127
12631,note_off,120,0,0,,10,,,69,127
12632,note_on,1,0,0,,4,,,64,127
12752,note_off,120,0,0,,4,,,64,127
12752,note_off,0,0,0,,0,,,72,127
12753,note_on,1,0,0,,4,,,52,127
12753,note_on,0,0,0,,8,,,68,127
12873,note_off,120,0,0,,8,,,68,127
12874,note_on,1,0,0,,4,,,64,127
12994,note_off,120,0,0,,4,,,64,127
12995,note_on,1,0,0,,4,,,40,127
12995,note_on,0,0,0,,10,,,69,127
13115,note_off,120,0,0,,10,,,69,127
13116,note_on,1,0,0,,4,,,64,127
13236,note_off,120,0,0,,4,,,64,127
13236,note_off,0,0,0,,4,,,40,127
13236,note_off,0,0,0,,4,,,52,127
13237,note_on,1,0,0,,4,,,52,127
13237,note_on,0,0,0,,12,,,71,127
13357,note_off,120,0,0,,12,,,71,127
13358,note_on,1,0,0,,4,,,64,127
13478,note_off,120,0,0,,4,,,64,127
13478,note_off,0,0,0,,4,,,52,127
13479,note_on,1,0,0,,4,,,76,127
13479,note_on,0,0,0,,0,,,72,127
13599,note_off,120,0,0,,0,,,72,127
13600,note_on,1,0,0,,4,,,64,127
13720,note_off,120,0,0,,4,,,64,127
13720,note_off,0,0,0,,4,,,76,127
13721,note_on,1,0,0,,2,,,74,127
13721,note_on,0,0,0,,12,,,71,127
13841,note_off,120,0,0,,12,,,71,127
13842,note_on,1,0,0,,4,,,64,127
13962,note_off,120,0,0,,4,,,64,127
13962,note_off,0,0,0,,2,,,74,127
13963,note_on,1,0,0,,0,,,72,127
13963,note_on,0,0,0,,10,,,69,127
14083,note_off,120,0,0,,10,,,69,127
14084,note_on,1,0,0,,12,,,71,127
14204,note_off,120,0,0,,12,,,71,127
14204,note_off,0,0,0,,0,,,72,127
14205,note_on,1,0,0,,2,,,74,127
14205,note_on,0,0,0,,10,,,69,127
14325,note_off,120,0,0,,10,,,69,127
14326,note_on,1,0,0,,7,,,67,127
14446,note_off,120,0,0,,7,,,67,127
14446,note_off,0,0,0,,2,,,74,127
14447,note_on,1,0,0,,4,,,76,127
14447,note_on,0,0,0,,6,,,66,127
14567,note_off,120,0,0,,6,,,66,127
14568,note_on,1,0,0,,4,,,64,127
14688,note_off,120,0,0,,4,,,64,127
14688,note_off,0,0,0,,4,,,76,127
14689,note_on,1,0,0,,4,,,76,127
14689,note_on,0,0,0,,6,,,66,127
14809,note_off,120,0,0,,6,,,66,127
14810,note_on,1,0,0,,7,,,67,127
14930,note_off,120,0,0,,7,,,67,127
14930,note_off,0,0,0,,4,,,76,127
14931,note_on,1,0,0,,2,,,74,127
14931,note_on,0,0,0,,10,,,69,127
15051,note_off,120,0,0,,10,,,69,127
15052,note_on,1,0,0,,2,,,62,127
15172,note_off,120,0,0,,2,,,62,127
15172,note_off,0,0,0,,2,,,74,127
15173,note_on,1,0,0,,0,,,72,127
15173,note_on,0,0,0,,4,,,64,127
15293,note_off,120,0,0,,4,,,64,127
15294,note_on,1,0,0,,6,,,66,127
15414,note_off,120,0,0,,6,,,66,127
15414,note_off,0,0,0,,0,,,72,127
15415,note_on,1,0,0,,12,,,71,127
15415,note_on,0,0,0,,7,,,67,127
15535,note_off,120,0,0,,7,,,67,127
15544,note_on,9,0,0,,2,,,62,127
15656,note_off,112,0,0,,12,,,71,127
15664,note_off,8,0,0,,2,,,62,127
15665,note_on,1,0,0,,2,,,74,127
15665,note_on,0,0,0,,12,,,71,127
15785,note_off,120,0,0,,12,,,71,127
15786,note_on,1,0,0,,2,,,62,127
15906,note_off,120,0,0,,2,,,62,127
15906,note_off,0,0,0,,2,,,74,127
15907,note_on,1,0,0,,0,,,72,127
15907,note_on,0,0,0,,10,,,69,127
16027,note_off,120,0,0,,10,,,69,127
16028,note_on,1,0,0,,2,,,62,127
16148,note_off,120,0,0,,2,,,62,127
16148,note_off,0,0,0,,0,,,72,127
16149,note_on,1,0,0,,12,,,71,127
16149,note_on,0,0,0,,7,,,67,127
16269,note_off,120,0,0,,7,,,67,127
16270,note_on,1,0,0,,2,,,62,127
16390,note_off,120,0,0,,2,,,62,127
16390,note_off,0,0,0,,12,,,71,127
16391,note_on,1,0,0,,2,,,50,127
16391,note_on,0,0,0,,6,,,66,127
16511,note_off,120,0,0,,6,,,66,127
16512,note_on,1,0,0,,2,,,62,127
16632,note_off,120,0,0,,2,,,62,127
16633,note_on,1,0,0,,2,,,38,127
16633,note_on,0,0,0,,7,,,67,127
16753,note_off,120,0,0,,7,,,67,127
16754,note_on,1,0,0,,2,,,62,127
16874,note_off,120,0,0,,2,,,62,127
16874,note_off,0,0,0,,2,,,38,127
16874,note_off,0,0,0,,2,,,50,127
16875,note_on,1,0,0,,2,,,50,127
16875,note_on,0,0,0,,10,,,69,127
16995,note_off,120,0,0,,10,,,69,127
16996,note_on,1,0,0,,2,,,62,127
17116,note_off,120,0,0,,2,,,62,127
17116,note_off,0,0,0,,2,,,50,127
17117,note_on,1,0,0,,2,,,74,127
17117,note_on,0,0,0,,12,,,71,127
17237,note_off,120,0,0,,12,,,71,127
17238,note_on,1,0,0,,2,,,62,127
17358,note_off,120,0,0,,2,,,62,127
17358,note_off,0,0,0,,2,,,74,127
17359,note_on,1,0,0,,0,,,72,127
17359,note_on,0,0,0,,10,,,69,127
17479,note_off,120,0,0,,10,,,69,127
17480,note_on,1,0,0,,2,,,62,127
17600,note_off,120,0,0,,2,,,62,127
17600,note_off,0,0,0,,0,,,72,127
17601,note_on,1,0,0,,12,,,71,127
17601,note_on,0,0,0,,7,,,67,127
17721,note_off,120,0,0,,7,,,67,127
17722,note_on,1,0,0,,2,,,62,127
17842,note_off,120,0,0,,2,,,62,127
17842,note_off,0,0,0,,12,,,71,127
17843,note_on,1,0,0,,2,,,50,127
17843,note_on,0,0,0,,6,,,66,127
17963,note_off,120,0,0,,6,,,66,127
17964,note_on,1,0,0,,2,,,62,127
18084,note_off,120,0,0,,2,,,62,127
18085,note_on,1,0,0,,2,,,38,127
18085,note_on,0,0,0,,7,,,67,127
18205,note_off,120,0,0,,7,,,67,127
18206,note_on,1,0,0,,2,,,62,127
18326,note_off,120,0,0,,2,,,62,127
18326,note_off,0,0,0,,2,,,38,127
18326,note_off,0,0,0,,2,,,50,127
18327,note_on,1,0,0,,2,,,50,127
18327,note_on,0,0,0,,10,,,69,127
18447,note_off,120,0,0,,10,,,69,127
18448,note_on,1,0,0,,2,,,62,127
18568,note_off,120,0,0,,2,,,62,127
18568,note_off,0,0,0,,2,,,50,127
18569,note_on,1,0,0,,2,,,74,127
18569,note_on,0,0,0,,12,,,71,127
18689,note_off,120,0,0,,12,,,71,127
18690,note_on,1,0,0,,2,,,62,127
18810,note_off,120,0,0,,2,,,62,127
18810,note_off,0,0,0,,2,,,74,127
18811,note_on,1,0,0,,0,,,72,127
18811,note_on,0,0,0,,10,,,69,127
18931,note_off,120,0,0,,10,,,69,127
18932,note_on,1,0,0,,2,,,62,127
19052,note_off,120,0,0,,2,,,62,127
19052,note_off,0,0,0,,0,,,72,127
19053,note_on,1,0,0,,12,,,71,127
19053,note_on,0,0,0,,7,,,67,127
19173,note_off,120,0,0,,7,,,67,127
19174,note_on,1,0,0,,2,,,62,127
19294,note_off,120,0,0,,2,,,62,127
19294,note_off,0,0,0,,12,,,71,127
19295,note_on,1,0,0,,2,,,50,127
19295,note_on,0,0,0,,6,,,66,127
19415,note_off,120,0,0,,6,,,66,127
19416,note_on,1,0,0,,2,,,62,127
19536,note_off,120,0,0,,2,,,62,127
19537,note_on,1,0,0,,2,,,38,127
19537,note_on,0,0,0,,7,,,67,127
19657,note_off,120,0,0,,7,,,67,127
19658,note_on,1,0,0,,2,,,62,127
19778,note_off,120,0,0,,2,,,62,127
19778,note_off,0,0,0,,2,,,38,127
19778,note_off,0,0,0,,2,,,50,127
19779,note_on,1,0,0,,2,,,50,127
19779,note_on,0,0,0,,10,,,69,127
19899,note_off,120,0,0,,10,,,69,127
19900,note_on,1,0,0,,7,,,67,127
20020,note_off,120,0,0,,7,,,67,127
20020,note_off,0,0,0,,2,,,50,127
20029,note_on,9,0,0,,6,,,66,127
20029,note_on,0,0,0,,2,,,74,127
20149,note_off,120,0,0,,6,,,66,127
20154,note_on,5,0,0,,7,,,67,127
20270,note_off,116,0,0,,2,,,74,127
20274,note_off,4,0,0,,7,,,67,127
20275,note_on,1,0,0,,4,,,76,127
20275,note_on,0,0,0,,10,,,69,127
20395,note_off,120,0,0,,10,,,69,127
20396,note_on,1,0,0,,12,,,71,127
20516,note_off,120,0,0,,12,,,71,127
20516,note_off,0,0,0,,4,,,76,127
20517,note_on,1,0,0,,3,,,75,127
20517,note_on,0,0,0,,0,,,72,127
20637,note_off,120,0,0,,0,,,72,127
20638,note_on,1,0,0,,12,,,71,127
20758,note_off,120,0,0,,12,,,71,127
20758,note_off,0,0,0,,3,,,75,127
20759,note_on,1,0,0,,3,,,75,127
20759,note_on,0,0,0,,10,,,69,127
20879,note_off,120,0,0,,10,,,69,127
20880,note_on,1,0,0,,7,,,67,127
21000,note_off,120,0,0,,7,,,67,127
21000,note_off,0,0,0,,3,,,75,127
21001,note_on,1,0,0,,4,,,76,127
21001,note_on,0,0,0,,6,,,66,127
21121,note_off,120,0,0,,6,,,66,127
21122,note_on,1,0,0,,4,,,64,127
21242,note_off,120,0,0,,4,,,64,127
21242,note_off,0,0,0,,4,,,76,127
21248,note_on,6,0,0,,12,,,59,127
21248,note_on,0,0,0,,6,,,78,127
21369,note_on,121,0,0,,10,,,69,127
21369,note_on,0,0,0,,6,,,66,127
21412,note_off,43,0,0,,12,,,59,127
21489,note_off,77,0,0,,6,,,78,127
21490,note_on,1,0,0,,12,,,59,127
21490,note_on,0,0,0,,7,,,79,127
21533,note_off,43,0,0,,6,,,66,127
21533,note_off,0,0,0,,10,,,69,127
21611,note_on,78,0,0,,12,,,71,127
21611,note_on,0,0,0,,7,,,67,127
21654,note_off,43,0,0,,12,,,59,127
21731,note_off,77,0,0,,7,,,79,127
21732,note_on,1,0,0,,12,,,59,127
21732,note_on,0,0,0,,3,,,75,127
21775,note_off,43,0,0,,7,,,67,127
21775,note_off,0,0,0,,12,,,71,127
21853,note_on,78,0,0,,10,,,69,127
21853,note_on,0,0,0,,6,,,66,127
21896,note_off,43,0,0,,12,,,59,127
21973,note_off,77,0,0,,3,,,75,127
21974,note_on,1,0,0,,12,,,59,127
21974,note_on,0,0,0,,4,,,76,127
22017,note_off,43,0,0,,6,,,66,127
22017,note_off,0,0,0,,10,,,69,127
22095,note_on,78,0,0,,7,,,67,127
22095,note_on,0,0,0,,4,,,64,127
22138,note_off,43,0,0,,12,,,59,127
22215,note_off,77,0,0,,4,,,76,127
22216,note_on,1,0,0,,12,,,59,127
22216,note_on,0,0,0,,7,,,79,127
22259,note_off,43,0,0,,4,,,64,127
22259,note_off,0,0,0,,7,,,67,127
22337,note_on,78,0,0,,6,,,66,127
22337,note_on,0,0,0,,3,,,63,127
22380,note_off,43,0,0,,12,,,59,127
22457,note_off,77,0,0,,7,,,79,127
22458,note_on,1,0,0,,12,,,59,127
22458,note_on,0,0,0,,11,,,82,127
22501,note_off,43,0,0,,3,,,63,127
22501,note_off,0,0,0,,6,,,66,127
22579,note_on,78,0,0,,7,,,67,127
22579,note_on,0,0,0,,4,,,64,127
22622,note_off,43,0,0,,12,,,59,127
22699,note_off,77,0,0,,11,,,82,127
22700,note_on,1,0,0,,12,,,59,127
22700,note_on,0,0,0,,12,,,83,127
22743,note_off,43,0,0,,4,,,64,127
22743,note_off,0,0,0,,7,,,67,127
22821,note_on,78,0,0,,6,,,66,127
22821,note_on,0,0,0,,10,,,69,127
22864,note_off,43,0,0,,12,,,59,127
22941,note_off,77,0,0,,12,,,83,127
22942,note_on,1,0,0,,12,,,59,127
22942,note_on,0,0,0,,7,,,79,127
22985,note_off,43,0,0,,10,,,69,127
22985,note_off,0,0,0,,6,,,66,127
23063,note_on,78,0,0,,12,,,71,127
23063,note_on,0,0,0,,7,,,67,127
23106,note_off,43,0,0,,12,,,59,127
23183,note_off,77,0,0,,7,,,79,127
23184,note_on,1,0,0,,12,,,59,127
23184,note_on,0,0,0,,3,,,75,127
23227,note_off,43,0,0,,7,,,67,127
23227,note_off,0,0,0,,12,,,71,127
23305,note_on,78,0,0,,10,,,69,127
23305,note_on,0,0,0,,6,,,66,127
23348,note_off,43,0,0,,12,,,59,127
23425,note_off,77,0,0,,3,,,75,127
23426,note_on,1,0,0,,12,,,59,127
23426,note_on,0,0,0,,4,,,76,127
23469,note_off,43,0,0,,6,,,66,127
23469,note_off,0,0,0,,10,,,69,127
23547,note_on,78,0,0,,7,,,67,127
23547,note_on,0,0,0,,4,,,64,127
23590,note_off,43,0,0,,12,,,59,127
23667,note_off,77,0,0,,4,,,76,127
23668,note_on,1,0,0,,12,,,59,127
23668,note_on,0,0,0,,7,,,79,127
23711,note_off,43,0,0,,4,,,64,127
23711,note_off,0,0,0,,7,,,67,127
23789,note_on,78,0,0,,6,,,66,127
23789,note_on,0,0,0,,3,,,63,127
23832,note_off,43,0,0,,12,,,59,127
23909,note_off,77,0,0,,7,,,79,127
23910,note_on,1,0,0,,12,,,59,127
23910,note_on,0,0,0,,11,,,82,127
23953,note_off,43,0,0,,3,,,63,127
23953,note_off,0,0,0,,6,,,66,127
24031,note_on,78,0,0,,7,,,67,127
24031,note_on,0,0,0,,4,,,64,127
24074,note_off,43,0,0,,12,,,59,127
24151,note_off,77,0,0,,11,,,82,127
24152,note_on,1,0,0,,12,,,59,127
24152,note_on,0,0,0,,12,,,83,127
24195,note_off,43,0,0,,4,,,64,127
24195,note_off,0,0,0,,7,,,67,127
24273,note_on,78,0,0,,10,,,69,127
24273,note_on,0,0,0,,6,,,66,127
24316,note_off,43,0,0,,12,,,59,127
24393,note_off,77,0,0,,12,,,83,127
24394,note_on,1,0,0,,12,,,59,127
24394,note_on,0,0,0,,7,,,79,127
24437,note_off,43,0,0,,6,,,66,127
24437,note_off,0,0,0,,10,,,69,127
24515,note_on,78,0,0,,12,,,71,127
24515,note_on,0,0,0,,7,,,67,127
24558,note_off,43,0,0,,12,,,59,127
24635,note_off,77,0,0,,7,,,79,127
24636,note_on,1,0,0,,12,,,59,127
24636,note_on,0,0,0,,3,,,75,127
24679,note_off,43,0,0,,7,,,67,127
24679,note_off,0,0,0,,12,,,71,127
24757,note_on,78,0,0,,10,,,69,127
24757,note_on,0,0,0,,6,,,66,127
24800,note_off,43,0,0,,12,,,59,127
24877,note_off,77,0,0,,3,,,75,127
24878,note_on,1,0,0,,12,,,59,127
24878,note_on,0,0,0,,4,,,76,127
24921,note_off,43,0,0,,6,,,66,127
24921,note_off,0,0,0,,10,,,69,127
24999,note_on,78,0,0,,7,,,67,127
24999,note_on,0,0,0,,4,,,64,127
25042,note_off,43,0,0,,12,,,59,127
25119,note_off,77,0,0,,4,,,76,127
25120,note_on,1,0,0,,12,,,59,127
25120,note_on,0,0,0,,0,,,72,127
25163,note_off,43,0,0,,4,,,64,127
25163,note_off,0,0,0,,7,,,67,127
25241,note_on,78,0,0,,6,,,66,127
25241,note_on,0,0,0,,3,,,63,127
25284,note_off,43,0,0,,12,,,59,127
25361,note_off,77,0,0,,0,,,72,127
25362,note_on,1,0,0,,12,,,59,127
25362,note_on,0,0,0,,11,,,70,127
25405,note_off,43,0,0,,3,,,63,127
25405,note_off,0,0,0,,6,,,66,127
25483,note_on,78,0,0,,7,,,67,127
25483,note_on,0,0,0,,4,,,64,127
25526,note_off,43,0,0,,12,,,59,127
25603,note_off,77,0,0,,11,,,70,127
25604,note_on,1,0,0,,6,,,66,127
25604,note_on,0,0,0,,3,,,63,127
25604,note_on,0,0,0,,12,,,71,127
25647,note_off,43,0,0,,4,,,64,127
25647,note_off,0,0,0,,7,,,67,127
25724,note_off,77,0,0,,3,,,63,127
25724,note_off,0,0,0,,6,,,66,127
25735,note_on,11,0,0,,12,,,59,127
25855,note_off,120,0,0,,12,,,59,127
25856,note_on,1,0,0,,3,,,63,127
25976,note_off,120,0,0,,3,,,63,127
25977,note_on,1,0,0,,6,,,66,127
26097,note_off,120,0,0,,6,,,66,127
26098,note_on,1,0,0,,10,,,69,127
26218,note_off,120,0,0,,10,,,69,127
26219,note_on,1,0,0,,0,,,72,127
26329,note_off,110,0,0,,12,,,71,127
26339,note_off,10,0,0,,0,,,72,127
26340,note_on,1,0,0,,6,,,78,127
26340,note_on,0,0,0,,12,,,59,127
26340,note_on,0,0,0,,10,,,57,127
26340,note_on,0,0,0,,4,,,52,127
26340,note_on,0,0,0,,6,,,54,127
26340,note_on,0,0,0,,12,,,47,127
26460,note_off,120,0,0,,6,,,78,127
26461,note_on,1,0,0,,0,,,72,127
26581,note_off,120,0,0,,0,,,72,127
26582,note_on,1,0,0,,12,,,71,127
26702,note_off,120,0,0,,12,,,71,127
26703,note_on,1,0,0,,11,,,70,127
26823,note_off,120,0,0,,11,,,70,127
26824,note_on,1,0,0,,11,,,70,127
26944,note_off,120,0,0,,11,,,70,127
26945,note_on,1,0,0,,12,,,71,127
27065,note_off,120,0,0,,12,,,47,127
27065,note_off,0,0,0,,6,,,54,127
27065,note_off,0,0,0,,4,,,52,127
27065,note_off,0,0,0,,10,,,57,127
27065,note_off,0,0,0,,12,,,59,127
27066,note_on,1,0,0,,10,,,57,127
27066,note_on,0,0,0,,12,,,59,127
27066,note_on,0,0,0,,4,,,52,127
27066,note_on,0,0,0,,6,,,54,127
27066,note_on,0,0,0,,12,,,47,127
27186,note_off,120,0,0,,12,,,71,127
27187,note_on,1,0,0,,3,,,63,127
27307,note_off,120,0,0,,3,,,63,127
27308,note_on,1,0,0,,6,,,66,127
27428,note_off,120,0,0,,6,,,66,127
27429,note_on,1,0,0,,10,,,69,127
27549,note_off,120,0,0,,10,,,69,127
27550,note_on,1,0,0,,0,,,72,127
27670,note_off,120,0,0,,0,,,72,127
27671,note_on,1,0,0,,3,,,75,127
27791,note_off,120,0,0,,3,,,75,127
27791,note_off,0,0,0,,12,,,47,127
27791,note_off,0,0,0,,6,,,54,127
27791,note_off,0,0,0,,4,,,52,127
27791,note_off,0,0,0,,12,,,59,127
27791,note_off,0,0,0,,10,,,57,127
27792,note_on,1,0,0,,10,,,81,127
27792,note_on,0,0,0,,10,,,57,127
27792,note_on,0,0,0,,12,,,59,127
27792,note_on,0,0,0,,6,,,54,127
27792,note_on,0,0,0,,12,,,47,127
27792,note_on,0,0,0,,4,,,52,127
27912,note_off,120,0,0,,10,,,81,127
27913,note_on,1,0,0,,7,,,79,127
28033,note_off,120,0,0,,7,,,79,127
28034,note_on,1,0,0,,6,,,78,127
28154,note_off,120,0,0,,6,,,78,127
28155,note_on,1,0,0,,4,,,76,127
28275,note_off,120,0,0,,4,,,76,127
28276,note_on,1,0,0,,4,,,76,127
28396,note_off,120,0,0,,4,,,76,127
28397,note_on,1,0,0,,6,,,78,127
28517,note_off,120,0,0,,4,,,52,127
28517,note_off,0,0,0,,12,,,47,127
28517,note_off,0,0,0,,6,,,54,127
28517,note_off,0,0,0,,12,,,59,127
28517,note_off,0,0,0,,10,,,57,127
28518,note_on,1,0,0,,12,,,59,127
28518,note_on,0,0,0,,10,,,57,127
28518,note_on,0,0,0,,6,,,54,127
28518,note_on,0,0,0,,12,,,47,127
28518,note_on,0,0,0,,4,,,52,127
28638,note_off,120,0,0,,6,,,78,127
28639,note_on,1,0,0,,6,,,66,127
28759,note_off,120,0,0,,6,,,66,127
28760,note_on,1,0,0,,10,,,69,127
28880,note_off,120,0,0,,10,,,69,127
28881,note_on,1,0,0,,0,,,72,127
29001,note_off,120,0,0,,0,,,72,127
29002,note_on,1,0,0,,3,,,75,127
29122,note_off,120,0,0,,3,,,75,127
29123,note_on,1,0,0,,6,,,78,127
29243,note_off,120,0,0,,6,,,78,127
29243,note_off,0,0,0,,4,,,52,127
29243,note_off,0,0,0,,12,,,47,127
29243,note_off,0,0,0,,6,,,54,127
29243,note_off,0,0,0,,10,,,57,127
29243,note_off,0,0,0,,12,,,59,127
29244,note_on,1,0,0,,0,,,84,127
29244,note_on,0,0,0,,12,,,59,127
29244,note_on,0,0,0,,10,,,57,127
29244,note_on,0,0,0,,4,,,52,127
29244,note_on,0,0,0,,6,,,54,127
29244,note_on,0,0,0,,12,,,47,127
29364,note_off,120,0,0,,0,,,84,127
29365,note_on,1,0,0,,12,,,83,127
29485,note_off,120,0,0,,12,,,83,127
29486,note_on,1,0,0,,10,,,81,127
29606,note_off,120,0,0,,10,,,81,127
29607,note_on,1,0,0,,7,,,79,127
29727,note_off,120,0,0,,7,,,79,127
29728,note_on,1,0,0,,6,,,78,127
29848,note_off,120,0,0,,6,,,78,127
29849,note_on,1,0,0,,4,,,76,127
29969,note_off,120,0,0,,4,,,76,127
29969,note_off,0,0,0,,12,,,47,127
29969,note_off,0,0,0,,6,,,54,127
29969,note_off,0,0,0,,4,,,52,127
29969,note_off,0,0,0,,10,,,57,127
29969,note_off,0,0,0,,12,,,59,127
29970,note_on,1,0,0,,3,,,75,127
29970,note_on,0,0,0,,10,,,57,127
29970,note_on,0,0,0,,12,,,59,127
29970,note_on,0,0,0,,4,,,52,127
29970,note_on,0,0,0,,6,,,54,127
29970,note_on,0,0,0,,12,,,47,127
30090,note_off,120,0,0,,3,,,75,127
30091,note_on,1,0,0,,0,,,72,127
30211,note_off,120,0,0,,0,,,72,127
30212,note_on,1,0,0,,12,,,71,127
30332,note_off,120,0,0,,12,,,71,127
30333,note_on,1,0,0,,10,,,69,127
30453,note_off,120,0,0,,10,,,69,127
30453,note_off,0,0,0,,12,,,47,127
30453,note_off,0,0,0,,6,,,54,127
30453,note_off,0,0,0,,4,,,52,127
30453,note_off,0,0,0,,12,,,59,127
30453,note_off,0,0,0,,10,,,57,127
30454,note_on,1,0,0,,7,,,67,127
30454,note_on,0,0,0,,12,,,59,127
30454,note_on,0,0,0,,12,,,47,127
30574,note_off,120,0,0,,7,,,67,127
30575,note_on,1,0,0,,6,,,66,127
30695,note_off,120,0,0,,6,,,66,127
30695,note_off,0,0,0,,12,,,47,127
30695,note_off,0,0,0,,12,,,59,127
30696,note_on,1,0,0,,7,,,67,127
30696,note_on,0,0,0,,7,,,55,127
30696,note_on,0,0,0,,4,,,52,127
30696,note_on,0,0,0,,12,,,59,127
30816,note_off,120,0,0,,7,,,67,127
30817,note_on,1,0,0,,7,,,79,127
30937,note_off,120,0,0,,7,,,79,127
30937,note_off,0,0,0,,12,,,59,127
30937,note_off,0,0,0,,4,,,52,127
30937,note_off,0,0,0,,7,,,55,127
30938,note_on,1,0,0,,6,,,78,127
30938,note_on,0,0,0,,10,,,57,127
30938,note_on,0,0,0,,10,,,45,127
31058,note_off,120,0,0,,6,,,78,127
31059,note_on,1,0,0,,10,,,81,127
31179,note_off,120,0,0,,10,,,81,127
31179,note_off,0,0,0,,10,,,45,127
31179,note_off,0,0,0,,10,,,57,127
31180,note_on,1,0,0,,4,,,76,127
31180,note_on,0,0,0,,12,,,47,127
31180,note_on,0,0,0,,12,,,59,127
31300,note_off,120,0,0,,4,,,76,127
31301,note_on,1,0,0,,3,,,75,127
31421,note_off,120,0,0,,3,,,75,127
31421,note_off,0,0,0,,12,,,47,127
31422,note_on,1,0,0,,4,,,76,127
31422,note_on,0,0,0,,4,,,52,127
31542,note_off,120,0,0,,4,,,76,127
31543,note_on,1,0,0,,0,,,72,127
31663,note_off,120,0,0,,0,,,72,127
31663,note_off,0,0,0,,4,,,52,127
31663,note_off,0,0,0,,12,,,59,127
31664,note_on,1,0,0,,12,,,71,127
31664,note_on,0,0,0,,10,,,45,127
31664,note_on,0,0,0,,10,,,57,127
31784,note_off,120,0,0,,12,,,71,127
31785,note_on,1,0,0,,10,,,69,127
31905,note_off,120,0,0,,10,,,69,127
31905,note_off,0,0,0,,10,,,57,127
31905,note_off,0,0,0,,10,,,45,127
31906,note_on,1,0,0,,7,,,67,127
31906,note_on,0,0,0,,12,,,47,127
31906,note_on,0,0,0,,12,,,59,127
32026,note_off,120,0,0,,7,,,67,127
32027,note_on,1,0,0,,6,,,66,127
32147,note_off,120,0,0,,6,,,66,127
32147,note_off,0,0,0,,12,,,47,127
32148,note_on,1,0,0,,7,,,67,127
32148,note_on,0,0,0,,4,,,52,127
32268,note_off,120,0,0,,7,,,67,127
32269,note_on,1,0,0,,7,,,79,127
32389,note_off,120,0,0,,7,,,79,127
32389,note_off,0,0,0,,4,,,52,127
32389,note_off,0,0,0,,12,,,59,127
32390,note_on,1,0,0,,6,,,78,127
32390,note_on,0,0,0,,10,,,57,127
32390,note_on,0,0,0,,10,,,45,127
32510,note_off,120,0,0,,6,,,78,127
32511,note_on,1,0,0,,10,,,81,127
32631,note_off,120,0,0,,10,,,81,127
32631,note_off,0,0,0,,10,,,45,127
32631,note_off,0,0,0,,10,,,57,127
32632,note_on,1,0,0,,4,,,76,127
32632,note_on,0,0,0,,12,,,47,127
32632,note_on,0,0,0,,12,,,59,127
32752,note_off,120,0,0,,4,,,76,127
32753,note_on,1,0,0,,3,,,75,127
32873,note_off,120,0,0,,3,,,75,127
32873,note_off,0,0,0,,12,,,47,127
32874,note_on,1,0,0,,4,,,76,127
32874,note_on,0,0,0,,4,,,52,127
32994,note_off,120,0,0,,4,,,76,127
32995,note_on,1,0,0,,0,,,72,127
33115,note_off,120,0,0,,0,,,72,127
33115,note_off,0,0,0,,4,,,52,127
33115,note_off,0,0,0,,12,,,59,127
33116,note_on,1,0,0,,12,,,71,127
33116,note_on,0,0,0,,10,,,57,127
33116,note_on,0,0,0,,10,,,45,127
33236,note_off,120,0,0,,12,,,71,127
33237,note_on,1,0,0,,10,,,69,127
33357,note_off,120,0,0,,10,,,69,127
33357,note_off,0,0,0,,10,,,45,127
33357,note_off,0,0,0,,10,,,57,127
33358,note_on,1,0,0,,7,,,67,127
33358,note_on,0,0,0,,12,,,59,127
33358,note_on,0,0,0,,12,,,47,127
33478,note_off,120,0,0,,7,,,67,127
33479,note_on,1,0,0,,6,,,66,127
33599,note_off,120,0,0,,6,,,66,127
33599,note_off,0,0,0,,12,,,47,127
33600,note_on,1,0,0,,7,,,67,127
33600,note_on,0,0,0,,4,,,52,127
33720,note_off,120,0,0,,7,,,67,127
33721,note_on,1,0,0,,7,,,79,127
33841,note_off,120,0,0,,7,,,79,127
33841,note_off,0,0,0,,4,,,52,127
33841,note_off,0,0,0,,12,,,59,127
33842,note_on,1,0,0,,6,,,78,127
33842,note_on,0,0,0,,10,,,45,127
33842,note_on,0,0,0,,10,,,57,127
33962,note_off,120,0,0,,6,,,78,127
33963,note_on,1,0,0,,10,,,81,127
34083,note_off,120,0,0,,10,,,81,127
34083,note_off,0,0,0,,10,,,57,127
34083,note_off,0,0,0,,10,,,45,127
34084,note_on,1,0,0,,4,,,76,127
34084,note_on,0,0,0,,12,,,47,127
34084,note_on,0,0,0,,12,,,59,127
34204,note_off,120,0,0,,4,,,76,127
34205,note_on,1,0,0,,3,,,75,127
34325,note_off,120,0,0,,3,,,75,127
34325,note_off,0,0,0,,12,,,59,127
34325,note_off,0,0,0,,12,,,47,127
34326,note_on,1,0,0,,4,,,76,127
34326,note_on,0,0,0,,4,,,40,127
34457,note_on,131,0,0,,4,,,64,127
34566,note_off,109,0,0,,4,,,76,127
34577,note_off,11,0,0,,4,,,64,127
34578,note_on,1,0,0,,6,,,66,127
34698,note_off,120,0,0,,6,,,66,127
34699,note_on,1,0,0,,4,,,64,127
34809,note_off,110,0,0,,4,,,40,127
34819,note_off,10,0,0,,4,,,64,127
34820,note_on,1,0,0,,4,,,76,127
34820,note_on,0,0,0,,4,,,64,127
34940,note_off,120,0,0,,4,,,64,127
34941,note_on,1,0,0,,4,,,64,127
35061,note_off,120,0,0,,4,,,64,127
35061,note_off,0,0,0,,4,,,76,127
35062,note_on,1,0,0,,2,,,38,127
35062,note_on,0,0,0,,4,,,64,127
35182,note_off,120,0,0,,4,,,64,127
35183,note_on,1,0,0,,4,,,64,127
35303,note_off,120,0,0,,4,,,64,127
35304,note_on,1,0,0,,6,,,66,127
35424,note_off,120,0,0,,6,,,66,127
35425,note_on,1,0,0,,4,,,64,127
35545,note_off,120,0,0,,4,,,64,127
35545,note_off,0,0,0,,2,,,38,127
35546,note_on,1,0,0,,2,,,74,127
35546,note_on,0,0,0,,4,,,64,127
35666,note_off,120,0,0,,4,,,64,127
35667,note_on,1,0,0,,4,,,64,127
35787,note_off,120,0,0,,4,,,64,127
35787,note_off,0,0,0,,2,,,74,127
35788,note_on,1,0,0,,0,,,36,127
35788,note_on,0,0,0,,4,,,64,127
35908,note_off,120,0,0,,4,,,64,127
35909,note_on,1,0,0,,4,,,64,127
36029,note_off,120,0,0,,4,,,64,127
36030,note_on,1,0,0,,6,,,66,127
36150,note_off,120,0,0,,6,,,66,127
36151,note_on,1,0,0,,4,,,64,127
36271,note_off,120,0,0,,4,,,64,127
36271,note_off,0,0,0,,0,,,36,127
36272,note_on,1,0,0,,0,,,72,127
36272,note_on,0,0,0,,4,,,64,127
36392,note_off,120,0,0,,4,,,64,127
36393,note_on,1,0,0,,4,,,64,127
36513,note_off,120,0,0,,4,,,64,127
36513,note_off,0,0,0,,0,,,72,127
36514,note_on,1,0,0,,12,,,35,127
36514,note_on,0,0,0,,4,,,64,127
36634,note_off,120,0,0,,4,,,64,127
36635,note_on,1,0,0,,4,,,64,127
36755,note_off,120,0,0,,4,,,64,127
36756,note_on,1,0,0,,6,,,66,127
36876,note_off,120,0,0,,6,,,66,127
36877,note_on,1,0,0,,4,,,64,127
36997,note_off,120,0,0,,4,,,64,127
36997,note_off,0,0,0,,12,,,35,127
36998,note_on,1,0,0,,12,,,71,127
36998,note_on,0,0,0,,4,,,64,127
37118,note_off,120,0,0,,4,,,64,127
37119,note_on,1,0,0,,4,,,64,127
37239,note_off,120,0,0,,4,,,64,127
37239,note_off,0,0,0,,12,,,71,127
37240,note_on,1,0,0,,10,,,33,127
37240,note_on,0,0,0,,4,,,64,127
37360,note_off,120,0,0,,4,,,64,127
37361,note_on,1,0,0,,4,,,64,127
37481,note_off,120,0,0,,4,,,64,127
37482,note_on,1,0,0,,6,,,66,127
37602,note_off,120,0,0,,6,,,66,127
37603,note_on,1,0,0,,4,,,64,127
37723,note_off,120,0,0,,4,,,64,127
37723,note_off,0,0,0,,10,,,33,127
37724,note_on,1,0,0,,10,,,69,127
37724,note_on,0,0,0,,4,,,64,127
37844,note_off,120,0,0,,4,,,64,127
37845,note_on,1,0,0,,4,,,64,127
37965,note_off,120,0,0,,4,,,64,127
37965,note_off,0,0,0,,10,,,69,127
37966,note_on,1,0,0,,7,,,31,127
37966,note_on,0,0,0,,4,,,64,127
38086,note_off,120,0,0,,4,,,64,127
38087,note_on,1,0,0,,4,,,64,127
38207,note_off,120,0,0,,4,,,64,127
38208,note_on,1,0,0,,6,,,66,127
38328,note_off,120,0,0,,6,,,66,127
38329,note_on,1,0,0,,4,,,64,127
38449,note_off,120,0,0,,4,,,64,127
38449,note_off,0,0,0,,7,,,31,127
38450,note_on,1,0,0,,7,,,55,127
38450,note_on,0,0,0,,12,,,59,127
38450,note_on,0,0,0,,4,,,64,127
38570,note_off,120,0,0,,4,,,64,127
38571,note_on,1,0,0,,4,,,64,127
38691,note_off,120,0,0,,12,,,59,127
38691,note_off,0,0,0,,7,,,55,127
38692,note_on,1,0,0,,6,,,54,127
38692,note_on,0,0,0,,10,,,57,127
38812,note_off,120,0,0,,4,,,64,127
38813,note_on,1,0,0,,10,,,69,127
38933,note_off,120,0,0,,10,,,69,127
38933,note_off,0,0,0,,6,,,54,127
38934,note_on,1,0,0,,3,,,51,127
38934,note_on,0,0,0,,7,,,67,127
39054,note_off,120,0,0,,7,,,67,127
39055,note_on,1,0,0,,6,,,66,127
39171,note_off,116,0,0,,10,,,57,127
39175,note_off,4,0,0,,6,,,66,127
39175,note_off,0,0,0,,3,,,51,127
39176,note_on,1,0,0,,4,,,52,127
39176,note_on,0,0,0,,12,,,59,127
39176,note_on,0,0,0,,7,,,67,127
39296,note_off,120,0,0,,7,,,67,127
39297,note_on,1,0,0,,0,,,72,127
39417,note_off,120,0,0,,0,,,72,127
39417,note_off,0,0,0,,12,,,59,127
39417,note_off,0,0,0,,4,,,52,127
39418,note_on,1,0,0,,10,,,45,127
39418,note_on,0,0,0,,10,,,57,127
39418,note_on,0,0,0,,12,,,71,127
39538,note_off,120,0,0,,12,,,71,127
39539,note_on,1,0,0,,7,,,79,127
39659,note_off,120,0,0,,7,,,79,127
39659,note_off,0,0,0,,10,,,57,127
39659,note_off,0,0,0,,10,,,45,127
39660,note_on,1,0,0,,10,,,45,127
39660,note_on,0,0,0,,10,,,57,127
39660,note_on,0,0,0,,6,,,78,127
39780,note_off,120,0,0,,6,,,78,127
39781,note_on,1,0,0,,10,,,81,127
39901,note_off,120,0,0,,10,,,81,127
39901,note_off,0,0,0,,10,,,57,127
39901,note_off,0,0,0,,10,,,45,127
39902,note_on,1,0,0,,12,,,47,127
39902,note_on,0,0,0,,12,,,59,127
39902,note_on,0,0,0,,4,,,76,127
40022,note_off,120,0,0,,4,,,76,127
40023,note_on,1,0,0,,3,,,75,127
40143,note_off,120,0,0,,3,,,75,127
40143,note_off,0,0,0,,12,,,59,127
40143,note_off,0,0,0,,12,,,47,127
40144,note_on,1,0,0,,4,,,40,127
40144,note_on,0,0,0,,4,,,76,127
40270,note_on,126,0,0,,4,,,64,127
40384,note_off,114,0,0,,4,,,76,127
40390,note_off,6,0,0,,4,,,64,127
40391,note_on,1,0,0,,6,,,66,127
40511,note_off,120,0,0,,6,,,66,127
40512,note_on,1,0,0,,4,,,64,127
40627,note_off,115,0,0,,4,,,40,127
40632,note_off,5,0,0,,4,,,64,127
40633,note_on,1,0,0,,4,,,64,127
40633,note_on,0,0,0,,4,,,76,127
40753,note_off,120,0,0,,4,,,64,127
40754,note_on,1,0,0,,4,,,64,127
40874,note_off,120,0,0,,4,,,64,127
40874,note_off,0,0,0,,4,,,76,127
40875,note_on,1,0,0,,4,,,64,127
40875,note_on,0,0,0,,2,,,38,127
40995,note_off,120,0,0,,4,,,64,127
40996,note_on,1,0,0,,4,,,64,127
41116,note_off,120,0,0,,4,,,64,127
41117,note_on,1,0,0,,6,,,66,127
41237,note_off,120,0,0,,6,,,66,127
41238,note_on,1,0,0,,4,,,64,127
41358,note_off,120,0,0,,4,,,64,127
41358,note_off,0,0,0,,2,,,38,127
41359,note_on,1,0,0,,4,,,64,127
41359,note_on,0,0,0,,2,,,74,127
41479,note_off,120,0,0,,4,,,64,127
41480,note_on,1,0,0,,4,,,64,127
41600,note_off,120,0,0,,4,,,64,127
41600,note_off,0,0,0,,2,,,74,127
41601,note_on,1,0,0,,4,,,64,127
41601,note_on,0,0,0,,0,,,36,127
41721,note_off,120,0,0,,4,,,64,127
41722,note_on,1,0,0,,4,,,64,127
41842,note_off,120,0,0,,4,,,64,127
41843,note_on,1,0,0,,6,,,66,127
41963,note_off,120,0,0,,6,,,66,127
41964,note_on,1,0,0,,4,,,64,127
42084,note_off,120,0,0,,4,,,64,127
42084,note_off,0,0,0,,0,,,36,127
42085,note_on,1,0,0,,4,,,64,127
42085,note_on,0,0,0,,0,,,72,127
42205,note_off,120,0,0,,4,,,64,127
42206,note_on,1,0,0,,4,,,64,127
42326,note_off,120,0,0,,4,,,64,127
42326,note_off,0,0,0,,0,,,72,127
42327,note_on,1,0,0,,4,,,64,127
42327,note_on,0,0,0,,12,,,35,127
42447,note_off,120,0,0,,4,,,64,127
42448,note_on,1,0,0,,4,,,64,127
42568,note_off,120,0,0,,4,,,64,127
42569,note_on,1,0,0,,6,,,66,127
42689,note_off,120,0,0,,6,,,66,127
42690,note_on,1,0,0,,4,,,64,127
42810,note_off,120,0,0,,4,,,64,127
42810,note_off,0,0,0,,12,,,35,127
42811,note_on,1,0,0,,4,,,64,127
42811,note_on,0,0,0,,12,,,71,127
42931,note_off,120,0,0,,4,,,64,127
42932,note_on,1,0,0,,4,,,64,127
43052,note_off,120,0,0,,4,,,64,127
43052,note_off,0,0,0,,12,,,71,127
43053,note_on,1,0,0,,4,,,64,127
43053,note_on,0,0,0,,10,,,33,127
43173,note_off,120,0,0,,4,,,64,127
43174,note_on,1,0,0,,4,,,64,127
43294,note_off,120,0,0,,4,,,64,127
43295,note_on,1,0,0,,6,,,66,127
43415,note_off,120,0,0,,6,,,66,127
43416,note_on,1,0,0,,4,,,64,127
43536,note_off,120,0,0,,4,,,64,127
43536,note_off,0,0,0,,10,,,33,127
43537,note_on,1,0,0,,4,,,64,127
43537,note_on,0,0,0,,10,,,69,127
43657,note_off,120,0,0,,4,,,64,127
43658,note_on,1,0,0,,4,,,64,127
43778,note_off,120,0,0,,4,,,64,127
43778,note_off,0,0,0,,10,,,69,127
43779,note_on,1,0,0,,4,,,64,127
43779,note_on,0,0,0,,7,,,31,127
43899,note_off,120,0,0,,4,,,64,127
43900,note_on,1,0,0,,4,,,64,127
44020,note_off,120,0,0,,4,,,64,127
44021,note_on,1,0,0,,6,,,66,127
44141,note_off,120,0,0,,6,,,66,127
44142,note_on,1,0,0,,4,,,64,127
44262,note_off,120,0,0,,4,,,64,127
44262,note_off,0,0,0,,7,,,31,127
44263,note_on,1,0,0,,4,,,64,127
44263,note_on,0,0,0,,12,,,59,127
44263,note_on,0,0,0,,7,,,55,127
44383,note_off,120,0,0,,4,,,64,127
44384,note_on,1,0,0,,4,,,64,127
44504,note_off,120,0,0,,7,,,55,127
44504,note_off,0,0,0,,12,,,59,127
44515,note_on,11,0,0,,6,,,54,127
44515,note_on,0,0,0,,10,,,57,127
44625,note_off,110,0,0,,4,,,64,127
44636,note_on,11,0,0,,10,,,69,127
44756,note_off,120,0,0,,10,,,69,127
44756,note_off,0,0,0,,6,,,54,127
44757,note_on,1,0,0,,3,,,51,127
44757,note_on,0,0,0,,7,,,67,127
44877,note_off,120,0,0,,7,,,67,127
44878,note_on,1,0,0,,6,,,66,127
44994,note_off,116,0,0,,10,,,57,127
44998,note_off,4,0,0,,6,,,66,127
44998,note_off,0,0,0,,3,,,51,127
44999,note_on,1,0,0,,4,,,52,127
44999,note_on,0,0,0,,12,,,59,127
44999,note_on,0,0,0,,7,,,67,127
45119,note_off,120,0,0,,7,,,67,127
45120,note_on,1,0,0,,0,,,72,127
45240,note_off,120,0,0,,0,,,72,127
45240,note_off,0,0,0,,12,,,59,127
45240,note_off,0,0,0,,4,,,52,127
45241,note_on,1,0,0,,10,,,45,127
45241,note_on,0,0,0,,10,,,57,127
45241,note_on,0,0,0,,12,,,71,127
45361,note_off,120,0,0,,12,,,71,127
45362,note_on,1,0,0,,7,,,79,127
45482,note_off,120,0,0,,7,,,79,127
45482,note_off,0,0,0,,10,,,57,127
45482,note_off,0,0,0,,10,,,45,127
45483,note_on,1,0,0,,10,,,45,127
45483,note_on,0,0,0,,10,,,57,127
45483,note_on,0,0,0,,6,,,78,127
45603,note_off,120,0,0,,6,,,78,127
45604,note_on,1,0,0,,10,,,81,127
45724,note_off,120,0,0,,10,,,81,127
45724,note_off,0,0,0,,10,,,57,127
45724,note_off,0,0,0,,10,,,45,127
45725,note_on,1,0,0,,12,,,59,127
45725,note_on,0,0,0,,12,,,47,127
45725,note_on,0,0,0,,4,,,76,127
45845,note_off,120,0,0,,4,,,76,127
45846,note_on,1,0,0,,3,,,75,127
45966,note_off,120,0,0,,3,,,75,127
45966,note_off,0,0,0,,12,,,47,127
45967,note_on,1,0,0,,4,,,52,127
45967,note_on,0,0,0,,4,,,76,127
46087,note_off,120,0,0,,4,,,76,127
46093,note_on,6,0,0,,0,,,72,127
46208,note_off,115,0,0,,4,,,52,127
46208,note_off,0,0,0,,12,,,59,127
46213,note_off,5,0,0,,0,,,72,127
46214,note_on,1,0,0,,12,,,71,127
46214,note_on,0,0,0,,10,,,45,127
46214,note_on,0,0,0,,10,,,57,127
46334,note_off,120,0,0,,12,,,71,127
46335,note_on,1,0,0,,10,,,69,127
46455,note_off,120,0,0,,10,,,69,127
46455,note_off,0,0,0,,10,,,57,127
46455,note_off,0,0,0,,10,,,45,127
46456,note_on,1,0,0,,7,,,67,127
46456,note_on,0,0,0,,12,,,47,127
46456,note_on,0,0,0,,12,,,59,127
46576,note_off,120,0,0,,7,,,67,127
46577,note_on,1,0,0,,6,,,66,127
46697,note_off,120,0,0,,6,,,66,127
46697,note_off,0,0,0,,12,,,47,127
46698,note_on,1,0,0,,7,,,67,127
46698,note_on,0,0,0,,4,,,52,127
46818,note_off,120,0,0,,7,,,67,127
46819,note_on,1,0,0,,7,,,79,127
46939,note_off,120,0,0,,7,,,79,127
46939,note_off,0,0,0,,4,,,52,127
46939,note_off,0,0,0,,12,,,59,127
46940,note_on,1,0,0,,6,,,78,127
46940,note_on,0,0,0,,10,,,57,127
46940,note_on,0,0,0,,10,,,45,127
47060,note_off,120,0,0,,6,,,78,127
47061,note_on,1,0,0,,10,,,81,127
47181,note_off,120,0,0,,10,,,81,127
47181,note_off,0,0,0,,10,,,45,127
47181,note_off,0,0,0,,10,,,57,127
47182,note_on,1,0,0,,4,,,76,127
47182,note_on,0,0,0,,12,,,47,127
47182,note_on,0,0,0,,12,,,59,127
47302,note_off,120,0,0,,4,,,76,127
47303,note_on,1,0,0,,3,,,75,127
47423,note_off,120,0,0,,3,,,75,127
47423,note_off,0,0,0,,12,,,47,127
47424,note_on,1,0,0,,4,,,76,127
47424,note_on,0,0,0,,4,,,52,127
47544,note_off,120,0,0,,4,,,76,127
47545,note_on,1,0,0,,0,,,72,127
47665,note_off,120,0,0,,0,,,72,127
47665,note_off,0,0,0,,4,,,52,127
47665,note_off,0,0,0,,12,,,59,127
47666,note_on,1,0,0,,12,,,71,127
47666,note_on,0,0,0,,10,,,45,127
47666,note_on,0,0,0,,10,,,57,127
47786,note_off,120,0,0,,12,,,71,127
47787,note_on,1,0,0,,10,,,69,127
47907,note_off,120,0,0,,10,,,69,127
47907,note_off,0,0,0,,10,,,57,127
47907,note_off,0,0,0,,10,,,45,127
47908,note_on,1,0,0,,7,,,67,127
47908,note_on,0,0,0,,12,,,47,127
47908,note_on,0,0,0,,12,,,59,127
48028,note_off,120,0,0,,7,,,67,127
48029,note_on,1,0,0,,6,,,66,127
48149,note_off,120,0,0,,6,,,66,127
48149,note_off,0,0,0,,12,,,47,127
48150,note_on,1,0,0,,7,,,67,127
48150,note_on,0,0,0,,4,,,52,127
48270,note_off,120,0,0,,7,,,67,127
48271,note_on,1,0,0,,12,,,71,127
48391,note_off,120,0,0,,12,,,71,127
48391,note_off,0,0,0,,4,,,52,127
48391,note_off,0,0,0,,12,,,59,127
48392,note_on,1,0,0,,6,,,66,127
48392,note_on,0,0,0,,10,,,45,127
48392,note_on,0,0,0,,10,,,57,127
48512,note_off,120,0,0,,6,,,66,127
48513,note_on,1,0,0,,10,,,69,127
48633,note_off,120,0,0,,10,,,69,127
48633,note_off,0,0,0,,10,,,57,127
48633,note_off,0,0,0,,10,,,45,127
48634,note_on,1,0,0,,4,,,64,127
48634,note_on,0,0,0,,12,,,59,127
48634,note_on,0,0,0,,12,,,47,127
48754,note_off,120,0,0,,4,,,64,127
48755,note_on,1,0,0,,3,,,63,127
48875,note_off,120,0,0,,3,,,63,127
48875,note_off,0,0,0,,12,,,47,127
48875,note_off,0,0,0,,12,,,59,127
48876,note_on,1,0,0,,3,,,63,127
48876,note_on,0,0,0,,4,,,40,127
49215,note_off,339,0,0,,3,,,63,127
49223,note_on,8,0,0,,4,,,64,127
49603,note_off,380,0,0,,4,,,40,127
49662,note_off,59,0,0,,4,,,64,127
49725,note_on,63,0,0,,12,,,71,127
49845,note_off,120,0,0,,12,,,71,127
49846,note_on,1,0,0,,8,,,68,127
49966,note_off,120,0,0,,8,,,68,127
49967,note_on,1,0,0,,10,,,69,127
50087,note_off,120,0,0,,10,,,69,127
50088,note_on,1,0,0,,6,,,66,127
50208,note_off,120,0,0,,6,,,66,127
50209,note_on,1,0,0,,10,,,69,127
50248,note_off,39,0,0,,10,,,69,127
50249,note_on,1,0,0,,8,,,68,127
50288,note_off,39,0,0,,8,,,68,127
50289,note_on,1,0,0,,10,,,69,127
50328,note_off,39,0,0,,10,,,69,127
50329,note_on,1,0,0,,8,,,68,127
50450,note_on,121,0,0,,12,,,59,127
50450,note_on,0,0,0,,12,,,35,127
50450,note_on,0,0,0,,12,,,47,127
50569,note_off,119,0,0,,8,,,68,127
50632,note_off,63,0,0,,12,,,47,127
50632,note_off,0,0,0,,12,,,35,127
50632,note_off,0,0,0,,12,,,59,127
50690,note_on,58,0,0,,4,,,64,127
50690,note_on,0,0,0,,4,,,52,127
50690,note_on,0,0,0,,4,,,40,127
50872,note_off,182,0,0,,4,,,40,127
50872,note_off,0,0,0,,4,,,52,127
50872,note_off,0,0,0,,4,,,64,127
50930,note_on,58,0,0,,8,,,68,127
50930,note_on,0,0,0,,8,,,44,127
50930,note_on,0,0,0,,8,,,56,127
51112,note_off,182,0,0,,8,,,56,127
51112,note_off,0,0,0,,8,,,44,127
51112,note_off,0,0,0,,8,,,68,127
51178,note_on,66,0,0,,2,,,74,127
51298,note_off,120,0,0,,2,,,74,127
51299,note_on,1,0,0,,12,,,71,127
51419,note_off,120,0,0,,12,,,71,127
51420,note_on,1,0,0,,1,,,73,127
51540,note_off,120,0,0,,1,,,73,127
51541,note_on,1,0,0,,10,,,69,127
51661,note_off,120,0,0,,10,,,69,127
51662,note_on,1,0,0,,1,,,73,127
51701,note_off,39,0,0,,1,,,73,127
51702,note_on,1,0,0,,12,,,71,127
51741,note_off,39,0,0,,12,,,71,127
51742,note_on,1,0,0,,1,,,73,127
51781,note_off,39,0,0,,1,,,73,127
51782,note_on,1,0,0,,12,,,71,127
51903,note_on,121,0,0,,4,,,64,127
51903,note_on,0,0,0,,4,,,52,127
51903,note_on,0,0,0,,4,,,40,127
52022,note_off,119,0,0,,12,,,71,127
52085,note_off,63,0,0,,4,,,40,127
52085,note_off,0,0,0,,4,,,52,127
52085,note_off,0,0,0,,4,,,64,127
52143,note_on,58,0,0,,8,,,68,127
52143,note_on,0,0,0,,8,,,56,127
52143,note_on,0,0,0,,8,,,44,127
52325,note_off,182,0,0,,8,,,44,127
52325,note_off,0,0,0,,8,,,56,127
52325,note_off,0,0,0,,8,,,68,127
52383,note_on,58,0,0,,12,,,71,127
52383,note_on,0,0,0,,12,,,47,127
52383,note_on,0,0,0,,12,,,59,127
52565,note_off,182,0,0,,12,,,59,127
52565,note_off,0,0,0,,12,,,47,127
52565,note_off,0,0,0,,12,,,71,127
52631,note_on,66,0,0,,6,,,78,127
52751,note_off,120,0,0,,6,,,78,127
52752,note_on,1,0,0,,2,,,74,127
52872,note_off,120,0,0,,2,,,74,127
52873,note_on,1,0,0,,4,,,76,127
52993,note_off,120,0,0,,4,,,76,127
52994,note_on,1,0,0,,1,,,73,127
53114,note_off,120,0,0,,1,,,73,127
53115,note_on,1,0,0,,4,,,76,127
53154,note_off,39,0,0,,4,,,76,127
53155,note_on,1,0,0,,2,,,74,127
53194,note_off,39,0,0,,2,,,74,127
53195,note_on,1,0,0,,4,,,76,127
53234,note_off,39,0,0,,4,,,76,127
53235,note_on,1,0,0,,2,,,74,127
53356,note_on,121,0,0,,8,,,68,127
53356,note_on,0,0,0,,8,,,56,127
53356,note_on,0,0,0,,8,,,44,127
53475,note_off,119,0,0,,2,,,74,127
53538,note_off,63,0,0,,8,,,44,127
53538,note_off,0,0,0,,8,,,56,127
53538,note_off,0,0,0,,8,,,68,127
53599,note_on,61,0,0,,12,,,71,127
53599,note_on,0,0,0,,12,,,59,127
53599,note_on,0,0,0,,12,,,47,127
53781,note_off,182,0,0,,12,,,47,127
53781,note_off,0,0,0,,12,,,59,127
53781,note_off,0,0,0,,12,,,71,127
53842,note_on,61,0,0,,2,,,74,127
53842,note_on,0,0,0,,2,,,62,127
53842,note_on,0,0,0,,2,,,50,127
54088,note_off,246,0,0,,2,,,74,127
54106,note_on,18,0,0,,12,,,83,127
54227,note_on,121,0,0,,2,,,74,127
54288,note_off,61,0,0,,12,,,83,127
54326,note_off,38,0,0,,2,,,50,127
54326,note_off,0,0,0,,2,,,62,127
54347,note_off,21,0,0,,2,,,74,127
54348,note_on,1,0,0,,4,,,76,127
54348,note_on,0,0,0,,12,,,59,127
54348,note_on,0,0,0,,12,,,47,127
54468,note_off,120,0,0,,4,,,76,127
54469,note_on,1,0,0,,1,,,73,127
54589,note_off,120,0,0,,1,,,73,127
54589,note_off,0,0,0,,12,,,47,127
54589,note_off,0,0,0,,12,,,59,127
54590,note_on,1,0,0,,2,,,74,127
54590,note_on,0,0,0,,10,,,45,127
54590,note_on,0,0,0,,10,,,57,127
54710,note_off,120,0,0,,2,,,74,127
54711,note_on,1,0,0,,12,,,71,127
54831,note_off,120,0,0,,12,,,71,127
54831,note_off,0,0,0,,10,,,57,127
54831,note_off,0,0,0,,10,,,45,127
54832,note_on,1,0,0,,12,,,83,127
54832,note_on,0,0,0,,8,,,56,127
54832,note_on,0,0,0,,8,,,44,127
54953,note_on,121,0,0,,2,,,74,127
55014,note_off,61,0,0,,12,,,83,127
55073,note_off,59,0,0,,2,,,74,127
55073,note_off,0,0,0,,8,,,44,127
55073,note_off,0,0,0,,8,,,56,127
55074,note_on,1,0,0,,4,,,76,127
55074,note_on,0,0,0,,12,,,59,127
55074,note_on,0,0,0,,12,,,47,127
55194,note_off,120,0,0,,4,,,76,127
55195,note_on,1,0,0,,1,,,73,127
55315,note_off,120,0,0,,1,,,73,127
55315,note_off,0,0,0,,12,,,47,127
55315,note_off,0,0,0,,12,,,59,127
55316,note_on,1,0,0,,2,,,74,127
55316,note_on,0,0,0,,10,,,45,127
55316,note_on,0,0,0,,10,,,57,127
55436,note_off,120,0,0,,2,,,74,127
55437,note_on,1,0,0,,12,,,71,127
55557,note_off,120,0,0,,12,,,71,127
55557,note_off,0,0,0,,10,,,57,127
55557,note_off,0,0,0,,10,,,45,127
55558,note_on,1,0,0,,12,,,83,127
55558,note_on,0,0,0,,8,,,56,127
55558,note_on,0,0,0,,8,,,44,127
55679,note_on,121,0,0,,2,,,74,127
55740,note_off,61,0,0,,12,,,83,127
55799,note_off,59,0,0,,2,,,74,127
55799,note_off,0,0,0,,8,,,44,127
55799,note_off,0,0,0,,8,,,56,127
55800,note_on,1,0,0,,4,,,76,127
55800,note_on,0,0,0,,12,,,59,127
55800,note_on,0,0,0,,12,,,47,127
55920,note_off,120,0,0,,4,,,76,127
55921,note_on,1,0,0,,1,,,73,127
56041,note_off,120,0,0,,1,,,73,127
56041,note_off,0,0,0,,12,,,47,127
56041,note_off,0,0,0,,12,,,59,127
56042,note_on,1,0,0,,2,,,74,127
56042,note_on,0,0,0,,10,,,57,127
56042,note_on,0,0,0,,10,,,45,127
56162,note_off,120,0,0,,2,,,74,127
56163,note_on,1,0,0,,12,,,71,127
56283,note_off,120,0,0,,12,,,71,127
56283,note_off,0,0,0,,10,,,45,127
56283,note_off,0,0,0,,10,,,57,127
56284,note_on,1,0,0,,12,,,83,127
56284,note_on,0,0,0,,8,,,56,127
56284,note_on,0,0,0,,8,,,44,127
56404,note_off,120,0,0,,12,,,83,127
56405,note_on,1,0,0,,10,,,81,127
56525,note_off,120,0,0,,10,,,81,127
56525,note_off,0,0,0,,8,,,44,127
56525,note_off,0,0,0,,8,,,56,127
56526,note_on,1,0,0,,8,,,80,127
56526,note_on,0,0,0,,4,,,40,127
56526,note_on,0,0,0,,4,,,52,127
56646,note_off,120,0,0,,8,,,80,127
56647,note_on,1,0,0,,6,,,78,127
56767,note_off,120,0,0,,6,,,78,127
56767,note_off,0,0,0,,4,,,52,127
56767,note_off,0,0,0,,4,,,40,127
56768,note_on,1,0,0,,4,,,76,127
56768,note_on,0,0,0,,8,,,56,127
56768,note_on,0,0,0,,8,,,44,127
56888,note_off,120,0,0,,4,,,76,127
56889,note_on,1,0,0,,2,,,74,127
57009,note_off,120,0,0,,2,,,74,127
57009,note_off,0,0,0,,8,,,44,127
57009,note_off,0,0,0,,8,,,56,127
57010,note_on,1,0,0,,4,,,76,127
57010,note_on,0,0,0,,10,,,45,127
57010,note_on,0,0,0,,10,,,57,127
57130,note_off,120,0,0,,4,,,76,127
57131,note_on,1,0,0,,1,,,73,127
57251,note_off,120,0,0,,1,,,73,127
57252,note_on,1,0,0,,2,,,74,127
57372,note_off,120,0,0,,2,,,74,127
57373,note_on,1,0,0,,12,,,71,127
57493,note_off,120,0,0,,12,,,71,127
57494,note_on,1,0,0,,12,,,71,127
57533,note_off,39,0,0,,12,,,71,127
57534,note_on,1,0,0,,10,,,69,127
57573,note_off,39,0,0,,10,,,69,127
57574,note_on,1,0,0,,12,,,71,127
57613,note_off,39,0,0,,12,,,71,127
57614,note_on,1,0,0,,10,,,69,127
57977,note_off,363,0,0,,10,,,57,127
57977,note_off,0,0,0,,10,,,45,127
58100,note_off,123,0,0,,10,,,69,127
58252,note_on,152,0,0,,10,,,81,127
58252,note_on,0,0,0,,5,,,77,127
58372,note_off,120,0,0,,5,,,77,127
58373,note_on,1,0,0,,10,,,69,127
58493,note_off,120,0,0,,10,,,69,127
58493,note_off,0,0,0,,10,,,81,127
58494,note_on,1,0,0,,7,,,79,127
58494,note_on,0,0,0,,4,,,76,127
58614,note_off,120,0,0,,4,,,76,127
58615,note_on,1,0,0,,10,,,69,127
58735,note_off,120,0,0,,10,,,69,127
58735,note_off,0,0,0,,7,,,79,127
58736,note_on,1,0,0,,5,,,77,127
58736,note_on,0,0,0,,2,,,74,127
58856,note_off,120,0,0,,2,,,74,127
58857,note_on,1,0,0,,10,,,69,127
58977,note_off,120,0,0,,10,,,69,127
58977,note_off,0,0,0,,5,,,77,127
58978,note_on,1,0,0,,10,,,57,127
58978,note_on,0,0,0,,1,,,73,127
59098,note_off,120,0,0,,1,,,73,127
59099,note_on,1,0,0,,10,,,69,127
59219,note_off,120,0,0,,10,,,69,127
59220,note_on,1,0,0,,10,,,45,127
59220,note_on,0,0,0,,2,,,74,127
59340,note_off,120,0,0,,2,,,74,127
59341,note_on,1,0,0,,10,,,69,127
59461,note_off,120,0,0,,10,,,69,127
59461,note_off,0,0,0,,10,,,45,127
59461,note_off,0,0,0,,10,,,57,127
59462,note_on,1,0,0,,10,,,57,127
59462,note_on,0,0,0,,4,,,76,127
59582,note_off,120,0,0,,4,,,76,127
59583,note_on,1,0,0,,10,,,69,127
59703,note_off,120,0,0,,10,,,69,127
59703,note_off,0,0,0,,10,,,57,127
59704,note_on,1,0,0,,10,,,81,127
59704,note_on,0,0,0,,5,,,77,127
59824,note_off,120,0,0,,5,,,77,127
59825,note_on,1,0,0,,10,,,69,127
59945,note_off,120,0,0,,10,,,69,127
59945,note_off,0,0,0,,10,,,81,127
59946,note_on,1,0,0,,7,,,79,127
59946,note_on,0,0,0,,4,,,76,127
60066,note_off,120,0,0,,4,,,76,127
60067,note_on,1,0,0,,10,,,69,127
60187,note_off,120,0,0,,10,,,69,127
60187,note_off,0,0,0,,7,,,79,127
60188,note_on,1,0,0,,5,,,77,127
60188,note_on,0,0,0,,2,,,74,127
60308,note_off,120,0,0,,2,,,74,127
60309,note_on,1,0,0,,10,,,69,127
60429,note_off,120,0,0,,10,,,69,127
60429,note_off,0,0,0,,5,,,77,127
60430,note_on,1,0,0,,10,,,57,127
60430,note_on,0,0,0,,1,,,73,127
60550,note_off,120,0,0,,1,,,73,127
60551,note_on,1,0,0,,10,,,69,127
60671,note_off,120,0,0,,10,,,69,127
60672,note_on,1,0,0,,10,,,45,127
60672,note_on,0,0,0,,2,,,74,127
60792,note_off,120,0,0,,2,,,74,127
60793,note_on,1,0,0,,10,,,69,127
60913,note_off,120,0,0,,10,,,69,127
60913,note_off,0,0,0,,10,,,45,127
60913,note_off,0,0,0,,10,,,57,127
60914,note_on,1,0,0,,10,,,57,127
60914,note_on,0,0,0,,4,,,76,127
61034,note_off,120,0,0,,4,,,76,127
61035,note_on,1,0,0,,10,,,69,127
61155,note_off,120,0,0,,10,,,69,127
61155,note_off,0,0,0,,10,,,57,127
61161,note_on,6,0,0,,10,,,81,127
61161,note_on,0,0,0,,5,,,77,127
61281,note_off,120,0,0,,5,,,77,127
61282,note_on,1,0,0,,10,,,69,127
61402,note_off,120,0,0,,10,,,69,127
61402,note_off,0,0,0,,10,,,81,127
61403,note_on,1,0,0,,7,,,79,127
61403,note_on,0,0,0,,4,,,76,127
61523,note_off,120,0,0,,4,,,76,127
61524,note_on,1,0,0,,10,,,69,127
61644,note_off,120,0,0,,10,,,69,127
61644,note_off,0,0,0,,7,,,79,127
61645,note_on,1,0,0,,5,,,77,127
61645,note_on,0,0,0,,2,,,74,127
61765,note_off,120,0,0,,2,,,74,127
61766,note_on,1,0,0,,4,,,76,127
61886,note_off,120,0,0,,4,,,76,127
61886,note_off,0,0,0,,5,,,77,127
61887,note_on,1,0,0,,7,,,79,127
61887,note_on,0,0,0,,2,,,74,127
62007,note_off,120,0,0,,2,,,74,127
62008,note_on,1,0,0,,0,,,72,127
62128,note_off,120,0,0,,0,,,72,127
62128,note_off,0,0,0,,7,,,79,127
62129,note_on,1,0,0,,10,,,81,127
62129,note_on,0,0,0,,12,,,71,127
62249,note_off,120,0,0,,12,,,71,127
62250,note_on,1,0,0,,10,,,69,127
62370,note_off,120,0,0,,10,,,69,127
62370,note_off,0,0,0,,10,,,81,127
62371,note_on,1,0,0,,10,,,81,127
62371,note_on,0,0,0,,12,,,71,127
62491,note_off,120,0,0,,12,,,71,127
62492,note_on,1,0,0,,0,,,72,127
62612,note_off,120,0,0,,0,,,72,127
62612,note_off,0,0,0,,10,,,81,127
62613,note_on,1,0,0,,7,,,79,127
62613,note_on,0,0,0,,2,,,74,127
62733,note_off,120,0,0,,2,,,74,127
62734,note_on,1,0,0,,7,,,67,127
62854,note_off,120,0,0,,7,,,67,127
62854,note_off,0,0,0,,7,,,79,127
62855,note_on,1,0,0,,5,,,77,127
62855,note_on,0,0,0,,10,,,69,127
62975,note_off,120,0,0,,10,,,69,127
62976,note_on,1,0,0,,12,,,71,127
63096,note_off,120,0,0,,12,,,71,127
63096,note_off,0,0,0,,5,,,77,127
63097,note_on,1,0,0,,4,,,76,127
63097,note_on,0,0,0,,0,,,72,127
63217,note_off,120,0,0,,0,,,72,127
63218,note_on,1,0,0,,7,,,67,127
63338,note_off,120,0,0,,7,,,67,127
63338,note_off,0,0,0,,4,,,76,127
63354,note_on,16,0,0,,4,,,76,127
63354,note_on,0,0,0,,7,,,79,127
63474,note_off,120,0,0,,4,,,76,127
63475,note_on,1,0,0,,7,,,67,127
63595,note_off,120,0,0,,7,,,67,127
63595,note_off,0,0,0,,7,,,79,127
63596,note_on,1,0,0,,2,,,74,127
63596,note_on,0,0,0,,5,,,77,127
63716,note_off,120,0,0,,2,,,74,127
63717,note_on,1,0,0,,7,,,67,127
63837,note_off,120,0,0,,7,,,67,127
63837,note_off,0,0,0,,5,,,77,127
63838,note_on,1,0,0,,0,,,72,127
63838,note_on,0,0,0,,4,,,76,127
63958,note_off,120,0,0,,0,,,72,127
63959,note_on,1,0,0,,7,,,67,127
64079,note_off,120,0,0,,7,,,67,127
64079,note_off,0,0,0,,4,,,76,127
64080,note_on,1,0,0,,12,,,71,127
64080,note_on,0,0,0,,7,,,55,127
64200,note_off,120,0,0,,12,,,71,127
64201,note_on,1,0,0,,7,,,67,127
64321,note_off,120,0,0,,7,,,67,127
64322,note_on,1,0,0,,0,,,72,127
64322,note_on,0,0,0,,7,,,43,127
64442,note_off,120,0,0,,0,,,72,127
64443,note_on,1,0,0,,7,,,67,127
64563,note_off,120,0,0,,7,,,67,127
64563,note_off,0,0,0,,7,,,43,127
64563,note_off,0,0,0,,7,,,55,127
64564,note_on,1,0,0,,2,,,74,127
64564,note_on,0,0,0,,7,,,55,127
64684,note_off,120,0,0,,2,,,74,127
64685,note_on,1,0,0,,7,,,67,127
64805,note_off,120,0,0,,7,,,67,127
64805,note_off,0,0,0,,7,,,55,127
64806,note_on,1,0,0,,4,,,76,127
64806,note_on,0,0,0,,7,,,79,127
64926,note_off,120,0,0,,4,,,76,127
64927,note_on,1,0,0,,7,,,67,127
65047,note_off,120,0,0,,7,,,67,127
65047,note_off,0,0,0,,7,,,79,127
65048,note_on,1,0,0,,2,,,74,127
65048,note_on,0,0,0,,5,,,77,127
65168,note_off,120,0,0,,2,,,74,127
65169,note_on,1,0,0,,7,,,67,127
65289,note_off,120,0,0,,7,,,67,127
65289,note_off,0,0,0,,5,,,77,127
65290,note_on,1,0,0,,0,,,72,127
65290,note_on,0,0,0,,4,,,76,127
65410,note_off,120,0,0,,0,,,72,127
65411,note_on,1,0,0,,7,,,67,127
65531,note_off,120,0,0,,7,,,67,127
65531,note_off,0,0,0,,4,,,76,127
65532,note_on,1,0,0,,12,,,71,127
65532,note_on,0,0,0,,7,,,55,127
65652,note_off,120,0,0,,12,,,71,127
65653,note_on,1,0,0,,7,,,67,127
65773,note_off,120,0,0,,7,,,67,127
65774,note_on,1,0,0,,0,,,72,127
65774,note_on,0,0,0,,7,,,43,127
65894,note_off,120,0,0,,0,,,72,127
65895,note_on,1,0,0,,7,,,67,127
66015,note_off,120,0,0,,7,,,67,127
66015,note_off,0,0,0,,7,,,43,127
66015,note_off,0,0,0,,7,,,55,127
66016,note_on,1,0,0,,2,,,74,127
66016,note_on,0,0,0,,7,,,55,127
66136,note_off,120,0,0,,2,,,74,127
66137,note_on,1,0,0,,0,,,72,127
66257,note_off,120,0,0,,0,,,72,127
66257,note_off,0,0,0,,7,,,55,127
66263,note_on,6,0,0,,12,,,71,127
66263,note_on,0,0,0,,7,,,79,127
66383,note_off,120,0,0,,12,,,71,127
66384,note_on,1,0,0,,0,,,72,127
66504,note_off,120,0,0,,0,,,72,127
66504,note_off,0,0,0,,7,,,79,127
66505,note_on,1,0,0,,2,,,74,127
66505,note_on,0,0,0,,10,,,81,127
66625,note_off,120,0,0,,2,,,74,127
66626,note_on,1,0,0,,4,,,76,127
66746,note_off,120,0,0,,4,,,76,127
66746,note_off,0,0,0,,10,,,81,127
66747,note_on,1,0,0,,5,,,77,127
66747,note_on,0,0,0,,8,,,80,127
66867,note_off,120,0,0,,5,,,77,127
66868,note_on,1,0,0,,4,,,76,127
66988,note_off,120,0,0,,4,,,76,127
66988,note_off,0,0,0,,8,,,80,127
66989,note_on,1,0,0,,2,,,74,127
66989,note_on,0,0,0,,8,,,80,127
67109,note_off,120,0,0,,2,,,74,127
67110,note_on,1,0,0,,0,,,72,127
67230,note_off,120,0,0,,0,,,72,127
67230,note_off,0,0,0,,8,,,80,127
67231,note_on,1,0,0,,12,,,71,127
67231,note_on,0,0,0,,10,,,81,127
67351,note_off,120,0,0,,12,,,71,127
67352,note_on,1,0,0,,10,,,69,127
67472,note_off,120,0,0,,10,,,69,127
67472,note_off,0,0,0,,10,,,81,127
67480,note_on,8,0,0,,4,,,64,127
67480,note_on,0,0,0,,12,,,83,127
67613,note_on,133,0,0,,8,,,68,127
67613,note_on,0,0,0,,12,,,71,127
67645,note_off,32,0,0,,4,,,64,127
67722,note_off,77,0,0,,12,,,83,127
67735,note_on,13,0,0,,0,,,84,127
67735,note_on,0,0,0,,4,,,64,127
67778,note_off,43,0,0,,12,,,71,127
67778,note_off,0,0,0,,8,,,68,127
67856,note_on,78,0,0,,10,,,69,127
67856,note_on,0,0,0,,0,,,72,127
67899,note_off,43,0,0,,4,,,64,127
67976,note_off,77,0,0,,0,,,84,127
67977,note_on,1,0,0,,8,,,80,127
67977,note_on,0,0,0,,4,,,64,127
68020,note_off,43,0,0,,0,,,72,127
68020,note_off,0,0,0,,10,,,69,127
68098,note_on,78,0,0,,12,,,71,127
68098,note_on,0,0,0,,2,,,74,127
68141,note_off,43,0,0,,4,,,64,127
68218,note_off,77,0,0,,8,,,80,127
68219,note_on,1,0,0,,10,,,81,127
68219,note_on,0,0,0,,4,,,64,127
68262,note_off,43,0,0,,2,,,74,127
68262,note_off,0,0,0,,12,,,71,127
68340,note_on,78,0,0,,10,,,69,127
68340,note_on,0,0,0,,0,,,72,127
68383,note_off,43,0,0,,4,,,64,127
68460,note_off,77,0,0,,10,,,81,127
68461,note_on,1,0,0,,5,,,77,127
68461,note_on,0,0,0,,4,,,64,127
68504,note_off,43,0,0,,0,,,72,127
68504,note_off,0,0,0,,10,,,69,127
68582,note_on,78,0,0,,8,,,68,127
68582,note_on,0,0,0,,12,,,71,127
68625,note_off,43,0,0,,4,,,64,127
68702,note_off,77,0,0,,5,,,77,127
68703,note_on,1,0,0,,3,,,75,127
68703,note_on,0,0,0,,4,,,64,127
68746,note_off,43,0,0,,12,,,71,127
68746,note_off,0,0,0,,8,,,68,127
68824,note_on,78,0,0,,10,,,69,127
68824,note_on,0,0,0,,0,,,72,127
68867,note_off,43,0,0,,4,,,64,127
68944,note_off,77,0,0,,3,,,75,127
68945,note_on,1,0,0,,4,,,76,127
68945,note_on,0,0,0,,4,,,64,127
68988,note_off,43,0,0,,0,,,72,127
68988,note_off,0,0,0,,10,,,69,127
69074,note_on,86,0,0,,12,,,71,127
69074,note_on,0,0,0,,8,,,68,127
69109,note_off,35,0,0,,4,,,64,127
69186,note_off,77,0,0,,4,,,76,127
69195,note_on,9,0,0,,4,,,64,127
69195,note_on,0,0,0,,0,,,84,127
69238,note_off,43,0,0,,8,,,68,127
69238,note_off,0,0,0,,12,,,71,127
69316,note_on,78,0,0,,0,,,72,127
69316,note_on,0,0,0,,10,,,69,127
69359,note_off,43,0,0,,4,,,64,127
69436,note_off,77,0,0,,0,,,84,127
69437,note_on,1,0,0,,4,,,64,127
69437,note_on,0,0,0,,8,,,80,127
69480,note_off,43,0,0,,10,,,69,127
69480,note_off,0,0,0,,0,,,72,127
69558,note_on,78,0,0,,2,,,74,127
69558,note_on,0,0,0,,12,,,71,127
69601,note_off,43,0,0,,4,,,64,127
69678,note_off,77,0,0,,8,,,80,127
69679,note_on,1,0,0,,4,,,64,127
69679,note_on,0,0,0,,10,,,81,127
69722,note_off,43,0,0,,12,,,71,127
69722,note_off,0,0,0,,2,,,74,127
69800,note_on,78,0,0,,10,,,69,127
69800,note_on,0,0,0,,0,,,72,127
69843,note_off,43,0,0,,4,,,64,127
69920,note_off,77,0,0,,10,,,81,127
69921,note_on,1,0,0,,4,,,64,127
69921,note_on,0,0,0,,5,,,77,127
69964,note_off,43,0,0,,0,,,72,127
69964,note_off,0,0,0,,10,,,69,127
70042,note_on,78,0,0,,12,,,71,127
70042,note_on,0,0,0,,8,,,68,127
70085,note_off,43,0,0,,4,,,64,127
70162,note_off,77,0,0,,5,,,77,127
70163,note_on,1,0,0,,4,,,64,127
70163,note_on,0,0,0,,3,,,75,127
70206,note_off,43,0,0,,8,,,68,127
70206,note_off,0,0,0,,12,,,71,127
70284,note_on,78,0,0,,10,,,69,127
70284,note_on,0,0,0,,0,,,72,127
70327,note_off,43,0,0,,4,,,64,127
70404,note_off,77,0,0,,3,,,75,127
70405,note_on,1,0,0,,4,,,64,127
70405,note_on,0,0,0,,4,,,76,127
70448,note_off,43,0,0,,0,,,72,127
70448,note_off,0,0,0,,10,,,69,127
70530,note_on,82,0,0,,12,,,71,127
70530,note_on,0,0,0,,8,,,68,127
70569,note_off,39,0,0,,4,,,64,127
70646,note_off,77,0,0,,4,,,76,127
70651,note_on,5,0,0,,4,,,64,127
70651,note_on,0,0,0,,0,,,84,127
70694,note_off,43,0,0,,8,,,68,127
70694,note_off,0,0,0,,12,,,71,127
70772,note_on,78,0,0,,0,,,72,127
70772,note_on,0,0,0,,10,,,69,127
70815,note_off,43,0,0,,4,,,64,127
70892,note_off,77,0,0,,0,,,84,127
70893,note_on,1,0,0,,4,,,64,127
70893,note_on,0,0,0,,8,,,80,127
70936,note_off,43,0,0,,10,,,69,127
70936,note_off,0,0,0,,0,,,72,127
71014,note_on,78,0,0,,2,,,74,127
71014,note_on,0,0,0,,12,,,71,127
71057,note_off,43,0,0,,4,,,64,127
71134,note_off,77,0,0,,8,,,80,127
71135,note_on,1,0,0,,4,,,64,127
71135,note_on,0,0,0,,10,,,81,127
71178,note_off,43,0,0,,12,,,71,127
71178,note_off,0,0,0,,2,,,74,127
71256,note_on,78,0,0,,10,,,69,127
71256,note_on,0,0,0,,0,,,72,127
71299,note_off,43,0,0,,4,,,64,127
71376,note_off,77,0,0,,10,,,81,127
71377,note_on,1,0,0,,4,,,64,127
71377,note_on,0,0,0,,5,,,77,127
71420,note_off,43,0,0,,0,,,72,127
71420,note_off,0,0,0,,10,,,69,127
71498,note_on,78,0,0,,8,,,68,127
71498,note_on,0,0,0,,12,,,71,127
71541,note_off,43,0,0,,4,,,64,127
71618,note_off,77,0,0,,5,,,77,127
71619,note_on,1,0,0,,4,,,64,127
71619,note_on,0,0,0,,3,,,75,127
71662,note_off,43,0,0,,12,,,71,127
71662,note_off,0,0,0,,8,,,68,127
71740,note_on,78,0,0,,0,,,72,127
71740,note_on,0,0,0,,10,,,69,127
71783,note_off,43,0,0,,4,,,64,127
71860,note_off,77,0,0,,3,,,75,127
71866,note_off,6,0,0,,10,,,69,127
71866,note_off,0,0,0,,0,,,72,127
71876,note_on,10,0,0,,12,,,71,127
71876,note_on,0,0,0,,4,,,52,127
71996,note_off,120,0,0,,12,,,71,127
71997,note_on,1,0,0,,4,,,76,127
72117,note_off,120,0,0,,4,,,76,127
72118,note_on,1,0,0,,8,,,68,127
72118,note_on,0,0,0,,4,,,64,127
72238,note_off,120,0,0,,8,,,68,127
72239,note_on,1,0,0,,10,,,69,127
72355,note_off,116,0,0,,4,,,52,127
72359,note_off,4,0,0,,10,,,69,127
72359,note_off,0,0,0,,4,,,64,127
72360,note_on,1,0,0,,12,,,71,127
72360,note_on,0,0,0,,4,,,52,127
72480,note_off,120,0,0,,12,,,71,127
72481,note_on,1,0,0,,0,,,72,127
72601,note_off,120,0,0,,0,,,72,127
72601,note_off,0,0,0,,4,,,52,127
72602,note_on,1,0,0,,5,,,77,127
72602,note_on,0,0,0,,2,,,50,127
72722,note_off,120,0,0,,5,,,77,127
72723,note_on,1,0,0,,2,,,74,127
72843,note_off,120,0,0,,2,,,74,127
72844,note_on,1,0,0,,8,,,68,127
72844,note_on,0,0,0,,2,,,62,127
72964,note_off,120,0,0,,8,,,68,127
72965,note_on,1,0,0,,10,,,69,127
73081,note_off,116,0,0,,2,,,50,127
73085,note_off,4,0,0,,10,,,69,127
73085,note_off,0,0,0,,2,,,62,127
73086,note_on,1,0,0,,12,,,71,127
73086,note_on,0,0,0,,2,,,50,127
73206,note_off,120,0,0,,12,,,71,127
73207,note_on,1,0,0,,0,,,72,127
73327,note_off,120,0,0,,0,,,72,127
73327,note_off,0,0,0,,2,,,50,127
73328,note_on,1,0,0,,12,,,71,127
73328,note_on,0,0,0,,4,,,52,127
73448,note_off,120,0,0,,12,,,71,127
73449,note_on,1,0,0,,4,,,76,127
73569,note_off,120,0,0,,4,,,76,127
73570,note_on,1,0,0,,8,,,68,127
73570,note_on,0,0,0,,4,,,64,127
73690,note_off,120,0,0,,8,,,68,127
73691,note_on,1,0,0,,10,,,69,127
73807,note_off,116,0,0,,4,,,52,127
73811,note_off,4,0,0,,10,,,69,127
73811,note_off,0,0,0,,4,,,64,127
73812,note_on,1,0,0,,12,,,71,127
73812,note_on,0,0,0,,4,,,52,127
73932,note_off,120,0,0,,12,,,71,127
73933,note_on,1,0,0,,0,,,72,127
74053,note_off,120,0,0,,0,,,72,127
74053,note_off,0,0,0,,4,,,52,127
74054,note_on,1,0,0,,5,,,77,127
74054,note_on,0,0,0,,2,,,50,127
74174,note_off,120,0,0,,5,,,77,127
74175,note_on,1,0,0,,2,,,74,127
74295,note_off,120,0,0,,2,,,74,127
74296,note_on,1,0,0,,8,,,68,127
74296,note_on,0,0,0,,2,,,62,127
74416,note_off,120,0,0,,8,,,68,127
74417,note_on,1,0,0,,10,,,69,127
74533,note_off,116,0,0,,2,,,50,127
74537,note_off,4,0,0,,10,,,69,127
74537,note_off,0,0,0,,2,,,62,127
74538,note_on,1,0,0,,12,,,71,127
74538,note_on,0,0,0,,2,,,50,127
74658,note_off,120,0,0,,12,,,71,127
74659,note_on,1,0,0,,0,,,72,127
74779,note_off,120,0,0,,0,,,72,127
74779,note_off,0,0,0,,2,,,50,127
74780,note_on,1,0,0,,12,,,71,127
74780,note_on,0,0,0,,4,,,52,127
74909,note_on,129,0,0,,4,,,64,127
74962,note_off,53,0,0,,12,,,71,127
75029,note_off,67,0,0,,4,,,64,127
75030,note_on,1,0,0,,6,,,66,127
75150,note_off,120,0,0,,6,,,66,127
75151,note_on,1,0,0,,4,,,64,127
75271,note_off,120,0,0,,4,,,64,127
75272,note_on,1,0,0,,8,,,68,127
75392,note_off,120,0,0,,8,,,68,127
75393,note_on,1,0,0,,4,,,64,127
75505,note_off,112,0,0,,4,,,52,127
75513,note_off,8,0,0,,4,,,64,127
75514,note_on,1,0,0,,2,,,74,127
75514,note_on,0,0,0,,12,,,71,127
75634,note_off,120,0,0,,12,,,71,127
75635,note_on,1,0,0,,4,,,64,127
75755,note_off,120,0,0,,4,,,64,127
75755,note_off,0,0,0,,2,,,74,127
75756,note_on,1,0,0,,1,,,73,127
75756,note_on,0,0,0,,10,,,69,127
75876,note_off,120,0,0,,10,,,69,127
75877,note_on,1,0,0,,4,,,64,127
75997,note_off,120,0,0,,4,,,64,127
75997,note_off,0,0,0,,1,,,73,127
75998,note_on,1,0,0,,12,,,71,127
75998,note_on,0,0,0,,8,,,68,127
76118,note_off,120,0,0,,8,,,68,127
76119,note_on,1,0,0,,4,,,64,127
76239,note_off,120,0,0,,4,,,64,127
76239,note_off,0,0,0,,12,,,71,127
76240,note_on,1,0,0,,1,,,73,127
76240,note_on,0,0,0,,10,,,69,127
76360,note_off,120,0,0,,10,,,69,127
76361,note_on,1,0,0,,4,,,64,127
76481,note_off,120,0,0,,4,,,64,127
76481,note_off,0,0,0,,1,,,73,127
76482,note_on,1,0,0,,4,,,52,127
76482,note_on,0,0,0,,1,,,73,127
76602,note_off,120,0,0,,1,,,73,127
76603,note_on,1,0,0,,4,,,64,127
76723,note_off,120,0,0,,4,,,64,127
76724,note_on,1,0,0,,4,,,40,127
76724,note_on,0,0,0,,10,,,69,127
76844,note_off,120,0,0,,10,,,69,127
76845,note_on,1,0,0,,4,,,64,127
76965,note_off,120,0,0,,4,,,64,127
76965,note_off,0,0,0,,4,,,40,127
76965,note_off,0,0,0,,4,,,52,127
76966,note_on,1,0,0,,4,,,76,127
76966,note_on,0,0,0,,1,,,73,127
77086,note_off,120,0,0,,1,,,73,127
77087,note_on,1,0,0,,4,,,64,127
77207,note_off,120,0,0,,4,,,64,127
77207,note_off,0,0,0,,4,,,76,127
77208,note_on,1,0,0,,2,,,74,127
77208,note_on,0,0,0,,12,,,71,127
77328,note_off,120,0,0,,12,,,71,127
77329,note_on,1,0,0,,4,,,64,127
77449,note_off,120,0,0,,4,,,64,127
77449,note_off,0,0,0,,2,,,74,127
77450,note_on,1,0,0,,1,,,73,127
77450,note_on,0,0,0,,10,,,69,127
77570,note_off,120,0,0,,10,,,69,127
77571,note_on,1,0,0,,4,,,64,127
77691,note_off,120,0,0,,4,,,64,127
77691,note_off,0,0,0,,1,,,73,127
77692,note_on,1,0,0,,2,,,74,127
77692,note_on,0,0,0,,12,,,71,127
77812,note_off,120,0,0,,12,,,71,127
77813,note_on,1,0,0,,4,,,64,127
77933,note_off,120,0,0,,4,,,64,127
77933,note_off,0,0,0,,2,,,74,127
77934,note_on,1,0,0,,4,,,52,127
77934,note_on,0,0,0,,8,,,68,127
78054,note_off,120,0,0,,8,,,68,127
78055,note_on,1,0,0,,4,,,64,127
78175,note_off,120,0,0,,4,,,64,127
78176,note_on,1,0,0,,4,,,40,127
78176,note_on,0,0,0,,10,,,69,127
78296,note_off,120,0,0,,10,,,69,127
78297,note_on,1,0,0,,4,,,64,127
78417,note_off,120,0,0,,4,,,64,127
78417,note_off,0,0,0,,4,,,40,127
78417,note_off,0,0,0,,4,,,52,127
78418,note_on,1,0,0,,2,,,74,127
78418,note_on,0,0,0,,12,,,71,127
78538,note_off,120,0,0,,12,,,71,127
78539,note_on,1,0,0,,4,,,64,127
78659,note_off,120,0,0,,4,,,64,127
78659,note_off,0,0,0,,2,,,74,127
78660,note_on,1,0,0,,1,,,73,127
78660,note_on,0,0,0,,10,,,69,127
78780,note_off,120,0,0,,10,,,69,127
78781,note_on,1,0,0,,4,,,64,127
78901,note_off,120,0,0,,4,,,64,127
78901,note_off,0,0,0,,1,,,73,127
78902,note_on,1,0,0,,12,,,71,127
78902,note_on,0,0,0,,8,,,68,127
79022,note_off,120,0,0,,8,,,68,127
79023,note_on,1,0,0,,4,,,64,127
79143,note_off,120,0,0,,4,,,64,127
79143,note_off,0,0,0,,12,,,71,127
79144,note_on,1,0,0,,1,,,73,127
79144,note_on,0,0,0,,10,,,69,127
79264,note_off,120,0,0,,10,,,69,127
79274,note_on,10,0,0,,4,,,64,127
79384,note_off,110,0,0,,1,,,73,127
79394,note_off,10,0,0,,4,,,64,127
79395,note_on,1,0,0,,1,,,73,127
79515,note_off,120,0,0,,1,,,73,127
79516,note_on,1,0,0,,10,,,69,127
79636,note_off,120,0,0,,10,,,69,127
79637,note_on,1,0,0,,4,,,76,127
79757,note_off,120,0,0,,4,,,76,127
79758,note_on,1,0,0,,1,,,73,127
79878,note_off,120,0,0,,1,,,73,127
79879,note_on,1,0,0,,7,,,67,127
79879,note_on,0,0,0,,12,,,83,127
79998,note_off,119,0,0,,7,,,67,127
80001,note_on,3,0,0,,7,,,67,127
80120,note_off,119,0,0,,12,,,83,127
80121,note_off,1,0,0,,7,,,67,127
80122,note_on,1,0,0,,1,,,73,127
80242,note_off,120,0,0,,1,,,73,127
80243,note_on,1,0,0,,7,,,67,127
80363,note_off,120,0,0,,7,,,67,127
80364,note_on,1,0,0,,4,,,76,127
80484,note_off,120,0,0,,4,,,76,127
80485,note_on,1,0,0,,1,,,73,127
80605,note_off,120,0,0,,1,,,73,127
80606,note_on,1,0,0,,6,,,66,127
80606,note_on,0,0,0,,10,,,81,127
80725,note_off,119,0,0,,6,,,66,127
80728,note_on,3,0,0,,6,,,66,127
80847,note_off,119,0,0,,10,,,81,127
80848,note_off,1,0,0,,6,,,66,127
80849,note_on,1,0,0,,10,,,69,127
80969,note_off,120,0,0,,10,,,69,127
80970,note_on,1,0,0,,6,,,66,127
81090,note_off,120,0,0,,6,,,66,127
81091,note_on,1,0,0,,2,,,74,127
81211,note_off,120,0,0,,2,,,74,127
81212,note_on,1,0,0,,10,,,69,127
81332,note_off,120,0,0,,10,,,69,127
81333,note_on,1,0,0,,4,,,64,127
81333,note_on,0,0,0,,7,,,79,127
81452,note_off,119,0,0,,4,,,64,127
81455,note_on,3,0,0,,4,,,64,127
81574,note_off,119,0,0,,7,,,79,127
81575,note_off,1,0,0,,4,,,64,127
81576,note_on,1,0,0,,7,,,67,127
81696,note_off,120,0,0,,7,,,67,127
81697,note_on,1,0,0,,4,,,64,127
81817,note_off,120,0,0,,4,,,64,127
81818,note_on,1,0,0,,1,,,73,127
81938,note_off,120,0,0,,1,,,73,127
81939,note_on,1,0,0,,7,,,67,127
82059,note_off,120,0,0,,7,,,67,127
82060,note_on,1,0,0,,2,,,62,127
82060,note_on,0,0,0,,6,,,78,127
82179,note_off,119,0,0,,2,,,62,127
82182,note_on,3,0,0,,2,,,62,127
82301,note_off,119,0,0,,6,,,78,127
82302,note_off,1,0,0,,2,,,62,127
82303,note_on,1,0,0,,6,,,66,127
82423,note_off,120,0,0,,6,,,66,127
82424,note_on,1,0,0,,2,,,62,127
82544,note_off,120,0,0,,2,,,62,127
82545,note_on,1,0,0,,12,,,71,127
82665,note_off,120,0,0,,12,,,71,127
82666,note_on,1,0,0,,6,,,66,127
82786,note_off,120,0,0,,6,,,66,127
82787,note_on,1,0,0,,1,,,61,127
82787,note_on,0,0,0,,4,,,76,127
82906,note_off,119,0,0,,1,,,61,127
82909,note_on,3,0,0,,1,,,61,127
83028,note_off,119,0,0,,4,,,76,127
83029,note_off,1,0,0,,1,,,61,127
83030,note_on,1,0,0,,4,,,64,127
83150,note_off,120,0,0,,4,,,64,127
83151,note_on,1,0,0,,1,,,61,127
83271,note_off,120,0,0,,1,,,61,127
83272,note_on,1,0,0,,10,,,69,127
83392,note_off,120,0,0,,10,,,69,127
83393,note_on,1,0,0,,4,,,64,127
83513,note_off,120,0,0,,4,,,64,127
83514,note_on,1,0,0,,12,,,59,127
83514,note_on,0,0,0,,2,,,74,127
83633,note_off,119,0,0,,12,,,59,127
83636,note_on,3,0,0,,12,,,59,127
83755,note_off,119,0,0,,2,,,74,127
83756,note_off,1,0,0,,12,,,59,127
83757,note_on,1,0,0,,2,,,62,127
83877,note_off,120,0,0,,2,,,62,127
83878,note_on,1,0,0,,12,,,59,127
83998,note_off,120,0,0,,12,,,59,127
83999,note_on,1,0,0,,8,,,68,127
84119,note_off,120,0,0,,8,,,68,127
84120,note_on,1,0,0,,2,,,62,127
84240,note_off,120,0,0,,2,,,62,127
84241,note_on,1,0,0,,10,,,57,127
84241,note_on,0,0,0,,1,,,73,127
84361,note_off,120,0,0,,10,,,57,127
84362,note_on,1,0,0,,10,,,57,127
84481,note_off,119,0,0,,1,,,73,127
84482,note_off,1,0,0,,10,,,57,127
84483,note_on,1,0,0,,1,,,61,127
84603,note_off,120,0,0,,1,,,61,127
84604,note_on,1,0,0,,10,,,57,127
84724,note_off,120,0,0,,10,,,57,127
84725,note_on,1,0,0,,4,,,64,127
84845,note_off,120,0,0,,4,,,64,127
84846,note_on,1,0,0,,1,,,61,127
84966,note_off,120,0,0,,1,,,61,127
84977,note_on,11,0,0,,2,,,50,127
84977,note_on,0,0,0,,6,,,66,127
85097,note_off,120,0,0,,6,,,66,127
85098,note_on,1,0,0,,2,,,62,127
85218,note_off,120,0,0,,2,,,62,127
85219,note_on,1,0,0,,10,,,69,127
85339,note_off,120,0,0,,10,,,69,127
85340,note_on,1,0,0,,6,,,66,127
85460,note_off,120,0,0,,6,,,66,127
85461,note_on,1,0,0,,2,,,74,127
85581,note_off,120,0,0,,2,,,74,127
85582,note_on,1,0,0,,10,,,69,127
85702,note_off,120,0,0,,10,,,69,127
85702,note_off,0,0,0,,2,,,50,127
85703,note_on,1,0,0,,2,,,50,127
85703,note_on,0,0,0,,6,,,78,127
85823,note_off,120,0,0,,6,,,78,127
85824,note_on,1,0,0,,4,,,76,127
85944,note_off,120,0,0,,4,,,76,127
85945,note_on,1,0,0,,2,,,74,127
86065,note_off,120,0,0,,2,,,74,127
86066,note_on,1,0,0,,1,,,73,127
86186,note_off,120,0,0,,1,,,73,127
86187,note_on,1,0,0,,12,,,71,127
86307,note_off,120,0,0,,12,,,71,127
86308,note_on,1,0,0,,10,,,69,127
86428,note_off,120,0,0,,10,,,69,127
86428,note_off,0,0,0,,2,,,50,127
86429,note_on,1,0,0,,4,,,52,127
86429,note_on,0,0,0,,8,,,68,127
86549,note_off,120,0,0,,8,,,68,127
86550,note_on,1,0,0,,6,,,66,127
86670,note_off,120,0,0,,6,,,66,127
86671,note_on,1,0,0,,4,,,64,127
86791,note_off,120,0,0,,4,,,64,127
86792,note_on,1,0,0,,2,,,62,127
86912,note_off,120,0,0,,2,,,62,127
86913,note_on,1,0,0,,1,,,61,127
87033,note_off,120,0,0,,1,,,61,127
87034,note_on,1,0,0,,12,,,59,127
87154,note_off,120,0,0,,12,,,59,127
87154,note_off,0,0,0,,4,,,52,127
87155,note_on,1,0,0,,6,,,54,127
87155,note_on,0,0,0,,10,,,57,127
87275,note_off,120,0,0,,10,,,57,127
87276,note_on,1,0,0,,1,,,73,127
87396,note_off,120,0,0,,1,,,73,127
87396,note_off,0,0,0,,6,,,54,127
87397,note_on,1,0,0,,2,,,50,127
87397,note_on,0,0,0,,12,,,71,127
87517,note_off,120,0,0,,12,,,71,127
87518,note_on,1,0,0,,2,,,74,127
87638,note_off,120,0,0,,2,,,74,127
87638,note_off,0,0,0,,2,,,50,127
87639,note_on,1,0,0,,4,,,52,127
87639,note_on,0,0,0,,10,,,69,127
87759,note_off,120,0,0,,10,,,69,127
87760,note_on,1,0,0,,8,,,68,127
87880,note_off,120,0,0,,8,,,68,127
87880,note_off,0,0,0,,4,,,52,127
87888,note_on,8,0,0,,10,,,45,127
87888,note_on,0,0,0,,10,,,69,127
88008,note_off,120,0,0,,10,,,69,127
88024,note_on,16,0,0,,10,,,69,127
88144,note_off,120,0,0,,10,,,69,127
88145,note_on,1,0,0,,12,,,71,127
88265,note_off,120,0,0,,12,,,71,127
88266,note_on,1,0,0,,10,,,69,127
88371,note_off,105,0,0,,10,,,45,127
88386,note_off,15,0,0,,10,,,69,127
88387,note_on,1,0,0,,10,,,81,127
88387,note_on,0,0,0,,10,,,69,127
88507,note_off,120,0,0,,10,,,69,127
88508,note_on,1,0,0,,10,,,69,127
88628,note_off,120,0,0,,10,,,69,127
88628,note_off,0,0,0,,10,,,81,127
88629,note_on,1,0,0,,7,,,43,127
88629,note_on,0,0,0,,10,,,69,127
88749,note_off,120,0,0,,10,,,69,127
88750,note_on,1,0,0,,10,,,69,127
88870,note_off,120,0,0,,10,,,69,127
88871,note_on,1,0,0,,12,,,71,127
88991,note_off,120,0,0,,12,,,71,127
88992,note_on,1,0,0,,10,,,69,127
89112,note_off,120,0,0,,10,,,69,127
89112,note_off,0,0,0,,7,,,43,127
89113,note_on,1,0,0,,7,,,79,127
89113,note_on,0,0,0,,10,,,69,127
89233,note_off,120,0,0,,10,,,69,127
89234,note_on,1,0,0,,10,,,69,127
89354,note_off,120,0,0,,10,,,69,127
89354,note_off,0,0,0,,7,,,79,127
89355,note_on,1,0,0,,6,,,42,127
89355,note_on,0,0,0,,10,,,69,127
89475,note_off,120,0,0,,10,,,69,127
89476,note_on,1,0,0,,10,,,69,127
89596,note_off,120,0,0,,10,,,69,127
89597,note_on,1,0,0,,12,,,71,127
89717,note_off,120,0,0,,12,,,71,127
89718,note_on,1,0,0,,10,,,69,127
89838,note_off,120,0,0,,10,,,69,127
89838,note_off,0,0,0,,6,,,42,127
89839,note_on,1,0,0,,6,,,78,127
89839,note_on,0,0,0,,10,,,69,127
89959,note_off,120,0,0,,10,,,69,127
89960,note_on,1,0,0,,10,,,69,127
90080,note_off,120,0,0,,10,,,69,127
90080,note_off,0,0,0,,6,,,78,127
90081,note_on,1,0,0,,4,,,40,127
90081,note_on,0,0,0,,10,,,69,127
90201,note_off,120,0,0,,10,,,69,127
90202,note_on,1,0,0,,10,,,69,127
90322,note_off,120,0,0,,10,,,69,127
90323,note_on,1,0,0,,12,,,71,127
90443,note_off,120,0,0,,12,,,71,127
90444,note_on,1,0,0,,10,,,69,127
90564,note_off,120,0,0,,10,,,69,127
90564,note_off,0,0,0,,4,,,40,127
90565,note_on,1,0,0,,4,,,76,127
90565,note_on,0,0,0,,10,,,69,127
90685,note_off,120,0,0,,10,,,69,127
90686,note_on,1,0,0,,10,,,69,127
90806,note_off,120,0,0,,10,,,69,127
90806,note_off,0,0,0,,4,,,76,127
90807,note_on,1,0,0,,2,,,38,127
90807,note_on,0,0,0,,10,,,69,127
90927,note_off,120,0,0,,10,,,69,127
90928,note_on,1,0,0,,10,,,69,127
91048,note_off,120,0,0,,10,,,69,127
91049,note_on,1,0,0,,12,,,71,127
91169,note_off,120,0,0,,12,,,71,127
91170,note_on,1,0,0,,10,,,69,127
91290,note_off,120,0,0,,10,,,69,127
91290,note_off,0,0,0,,2,,,38,127
91291,note_on,1,0,0,,2,,,74,127
91291,note_on,0,0,0,,10,,,69,127
91411,note_off,120,0,0,,10,,,69,127
91412,note_on,1,0,0,,10,,,69,127
91532,note_off,120,0,0,,10,,,69,127
91532,note_off,0,0,0,,2,,,74,127
91533,note_on,1,0,0,,1,,,37,127
91533,note_on,0,0,0,,10,,,69,127
91653,note_off,120,0,0,,10,,,69,127
91654,note_on,1,0,0,,10,,,69,127
91774,note_off,120,0,0,,10,,,69,127
91775,note_on,1,0,0,,12,,,71,127
91895,note_off,120,0,0,,12,,,71,127
91896,note_on,1,0,0,,10,,,69,127
92016,note_off,120,0,0,,10,,,69,127
92016,note_off,0,0,0,,1,,,37,127
92017,note_on,1,0,0,,1,,,73,127
92017,note_on,0,0,0,,10,,,69,127
92137,note_off,120,0,0,,10,,,69,127
92138,note_on,1,0,0,,10,,,69,127
92258,note_off,120,0,0,,1,,,73,127
92259,note_on,1,0,0,,12,,,35,127
92379,note_off,120,0,0,,10,,,69,127
92380,note_on,1,0,0,,10,,,81,127
92500,note_off,120,0,0,,10,,,81,127
92501,note_on,1,0,0,,8,,,80,127
92621,note_off,120,0,0,,8,,,80,127
92622,note_on,1,0,0,,6,,,78,127
92742,note_off,120,0,0,,6,,,78,127
92743,note_on,1,0,0,,4,,,76,127
92863,note_off,120,0,0,,4,,,76,127
92864,note_on,1,0,0,,2,,,74,127
92984,note_off,120,0,0,,2,,,74,127
92984,note_off,0,0,0,,12,,,35,127
92985,note_on,1,0,0,,10,,,33,127
92985,note_on,0,0,0,,1,,,73,127
93105,note_off,120,0,0,,1,,,73,127
93106,note_on,1,0,0,,12,,,71,127
93226,note_off,120,0,0,,12,,,71,127
93227,note_on,1,0,0,,10,,,69,127
93347,note_off,120,0,0,,10,,,69,127
93348,note_on,1,0,0,,8,,,68,127
93468,note_off,120,0,0,,8,,,68,127
93469,note_on,1,0,0,,6,,,66,127
93589,note_off,120,0,0,,6,,,66,127
93590,note_on,1,0,0,,4,,,64,127
93710,note_off,120,0,0,,4,,,64,127
93710,note_off,0,0,0,,10,,,33,127
93711,note_on,1,0,0,,2,,,50,127
93711,note_on,0,0,0,,2,,,62,127
93831,note_off,120,0,0,,2,,,62,127
93832,note_on,1,0,0,,1,,,73,127
93952,note_off,120,0,0,,1,,,73,127
93952,note_off,0,0,0,,2,,,50,127
93953,note_on,1,0,0,,4,,,52,127
93953,note_on,0,0,0,,12,,,71,127
94073,note_off,120,0,0,,12,,,71,127
94074,note_on,1,0,0,,2,,,74,127
94194,note_off,120,0,0,,2,,,74,127
94195,note_on,1,0,0,,4,,,40,127
94195,note_on,0,0,0,,10,,,69,127
94315,note_off,120,0,0,,10,,,69,127
94316,note_on,1,0,0,,8,,,68,127
94432,note_off,116,0,0,,4,,,52,127
94436,note_off,4,0,0,,8,,,68,127
94436,note_off,0,0,0,,4,,,40,127
94437,note_on,1,0,0,,10,,,45,127
94437,note_on,0,0,0,,10,,,69,127
94557,note_off,120,0,0,,10,,,69,127
94573,note_on,16,0,0,,10,,,69,127
94693,note_off,120,0,0,,10,,,69,127
94694,note_on,1,0,0,,12,,,71,127
94814,note_off,120,0,0,,12,,,71,127
94815,note_on,1,0,0,,10,,,69,127
94920,note_off,105,0,0,,10,,,45,127
94935,note_off,15,0,0,,10,,,69,127
94936,note_on,1,0,0,,10,,,69,127
94936,note_on,0,0,0,,10,,,81,127
95056,note_off,120,0,0,,10,,,69,127
95057,note_on,1,0,0,,10,,,69,127
95177,note_off,120,0,0,,10,,,69,127
95177,note_off,0,0,0,,10,,,81,127
95178,note_on,1,0,0,,10,,,69,127
95178,note_on,0,0,0,,7,,,43,127
95298,note_off,120,0,0,,10,,,69,127
95299,note_on,1,0,0,,10,,,69,127
95419,note_off,120,0,0,,10,,,69,127
95420,note_on,1,0,0,,12,,,71,127
95540,note_off,120,0,0,,12,,,71,127
95541,note_on,1,0,0,,10,,,69,127
95661,note_off,120,0,0,,10,,,69,127
95661,note_off,0,0,0,,7,,,43,127
95662,note_on,1,0,0,,10,,,69,127
95662,note_on,0,0,0,,7,,,79,127
95782,note_off,120,0,0,,10,,,69,127
95783,note_on,1,0,0,,10,,,69,127
95903,note_off,120,0,0,,10,,,69,127
95903,note_off,0,0,0,,7,,,79,127
95904,note_on,1,0,0,,10,,,69,127
95904,note_on,0,0,0,,6,,,42,127
96024,note_off,120,0,0,,10,,,69,127
96025,note_on,1,0,0,,10,,,69,127
96145,note_off,120,0,0,,10,,,69,127
96146,note_on,1,0,0,,12,,,71,127
96266,note_off,120,0,0,,12,,,71,127
96267,note_on,1,0,0,,10,,,69,127
96387,note_off,120,0,0,,10,,,69,127
96387,note_off,0,0,0,,6,,,42,127
96388,note_on,1,0,0,,10,,,69,127
96388,note_on,0,0,0,,6,,,78,127
96508,note_off,120,0,0,,10,,,69,127
96509,note_on,1,0,0,,10,,,69,127
96629,note_off,120,0,0,,10,,,69,127
96629,note_off,0,0,0,,6,,,78,127
96630,note_on,1,0,0,,10,,,69,127
96630,note_on,0,0,0,,4,,,40,127
96750,note_off,120,0,0,,10,,,69,127
96751,note_on,1,0,0,,10,,,69,127
96871,note_off,120,0,0,,10,,,69,127
96872,note_on,1,0,0,,12,,,71,127
96992,note_off,120,0,0,,12,,,71,127
96993,note_on,1,0,0,,10,,,69,127
97113,note_off,120,0,0,,10,,,69,127
97113,note_off,0,0,0,,4,,,40,127
97114,note_on,1,0,0,,10,,,69,127
97114,note_on,0,0,0,,4,,,76,127
97234,note_off,120,0,0,,10,,,69,127
97235,note_on,1,0,0,,10,,,69,127
97355,note_off,120,0,0,,10,,,69,127
97355,note_off,0,0,0,,4,,,76,127
97356,note_on,1,0,0,,10,,,69,127
97356,note_on,0,0,0,,2,,,38,127
97476,note_off,120,0,0,,10,,,69,127
97477,note_on,1,0,0,,10,,,69,127
97597,note_off,120,0,0,,10,,,69,127
97598,note_on,1,0,0,,12,,,71,127
97718,note_off,120,0,0,,12,,,71,127
97719,note_on,1,0,0,,10,,,69,127
97839,note_off,120,0,0,,10,,,69,127
97839,note_off,0,0,0,,2,,,38,127
97840,note_on,1,0,0,,10,,,69,127
97840,note_on,0,0,0,,2,,,74,127
97960,note_off,120,0,0,,10,,,69,127
97961,note_on,1,0,0,,10,,,69,127
98081,note_off,120,0,0,,10,,,69,127
98081,note_off,0,0,0,,2,,,74,127
98082,note_on,1,0,0,,10,,,69,127
98082,note_on,0,0,0,,1,,,37,127
98202,note_off,120,0,0,,10,,,69,127
98203,note_on,1,0,0,,10,,,69,127
98323,note_off,120,0,0,,10,,,69,127
98324,note_on,1,0,0,,12,,,71,127
98444,note_off,120,0,0,,12,,,71,127
98445,note_on,1,0,0,,10,,,69,127
98565,note_off,120,0,0,,10,,,69,127
98565,note_off,0,0,0,,1,,,37,127
98566,note_on,1,0,0,,10,,,69,127
98566,note_on,0,0,0,,1,,,73,127
98686,note_off,120,0,0,,10,,,69,127
98687,note_on,1,0,0,,10,,,69,127
98807,note_off,120,0,0,,1,,,73,127
98808,note_on,1,0,0,,12,,,35,127
98928,note_off,120,0,0,,10,,,69,127
98929,note_on,1,0,0,,12,,,71,127
99049,note_off,120,0,0,,12,,,71,127
99050,note_on,1,0,0,,8,,,68,127
99170,note_off,120,0,0,,8,,,68,127
99171,note_on,1,0,0,,10,,,69,127
99291,note_off,120,0,0,,10,,,69,127
99291,note_off,0,0,0,,12,,,35,127
99292,note_on,1,0,0,,12,,,71,127
99292,note_on,0,0,0,,2,,,74,127
99412,note_off,120,0,0,,12,,,71,127
99413,note_on,1,0,0,,2,,,62,127
99533,note_off,120,0,0,,2,,,74,127
99534,note_on,1,0,0,,10,,,33,127
99654,note_off,120,0,0,,2,,,62,127
99655,note_on,1,0,0,,1,,,73,127
99775,note_off,120,0,0,,1,,,73,127
99776,note_on,1,0,0,,10,,,69,127
99896,note_off,120,0,0,,10,,,69,127
99897,note_on,1,0,0,,12,,,71,127
100017,note_off,120,0,0,,12,,,71,127
100017,note_off,0,0,0,,10,,,33,127
100018,note_on,1,0,0,,1,,,73,127
100018,note_on,0,0,0,,4,,,76,127
100138,note_off,120,0,0,,1,,,73,127
100139,note_on,1,0,0,,4,,,64,127
100259,note_off,120,0,0,,4,,,76,127
100260,note_on,1,0,0,,2,,,38,127
100380,note_off,120,0,0,,4,,,64,127
100381,note_on,1,0,0,,2,,,74,127
100501,note_off,120,0,0,,2,,,74,127
100502,note_on,1,0,0,,12,,,71,127
100622,note_off,120,0,0,,12,,,71,127
100623,note_on,1,0,0,,1,,,73,127
100743,note_off,120,0,0,,1,,,73,127
100744,note_on,1,0,0,,2,,,74,127
100864,note_off,120,0,0,,2,,,74,127
100865,note_on,1,0,0,,4,,,76,127
100985,note_off,120,0,0,,4,,,76,127
100985,note_off,0,0,0,,2,,,38,127
100986,note_on,1,0,0,,6,,,78,127
100986,note_on,0,0,0,,2,,,50,127
101106,note_off,120,0,0,,6,,,78,127
101107,note_on,1,0,0,,4,,,76,127
101227,note_off,120,0,0,,4,,,76,127
101228,note_on,1,0,0,,2,,,74,127
101348,note_off,120,0,0,,2,,,74,127
101349,note_on,1,0,0,,1,,,73,127
101469,note_off,120,0,0,,1,,,73,127
101470,note_on,1,0,0,,12,,,71,127
101590,note_off,120,0,0,,12,,,71,127
101591,note_on,1,0,0,,10,,,69,127
101711,note_off,120,0,0,,10,,,69,127
101711,note_off,0,0,0,,2,,,50,127
101712,note_on,1,0,0,,8,,,68,127
101712,note_on,0,0,0,,4,,,52,127
101832,note_off,120,0,0,,8,,,68,127
101833,note_on,1,0,0,,6,,,66,127
101953,note_off,120,0,0,,6,,,66,127
101954,note_on,1,0,0,,4,,,64,127
102074,note_off,120,0,0,,4,,,64,127
102075,note_on,1,0,0,,2,,,62,127
102195,note_off,120,0,0,,2,,,62,127
102196,note_on,1,0,0,,1,,,61,127
102316,note_off,120,0,0,,1,,,61,127
102317,note_on,1,0,0,,12,,,59,127
102437,note_off,120,0,0,,12,,,59,127
102437,note_off,0,0,0,,4,,,52,127
102438,note_on,1,0,0,,10,,,57,127
102438,note_on,0,0,0,,6,,,54,127
102558,note_off,120,0,0,,10,,,57,127
102559,note_on,1,0,0,,1,,,73,127
102679,note_off,120,0,0,,1,,,73,127
102679,note_off,0,0,0,,6,,,54,127
102680,note_on,1,0,0,,12,,,71,127
102680,note_on,0,0,0,,2,,,50,127
102800,note_off,120,0,0,,12,,,71,127
102801,note_on,1,0,0,,2,,,74,127
102921,note_off,120,0,0,,2,,,74,127
102921,note_off,0,0,0,,2,,,50,127
102922,note_on,1,0,0,,10,,,69,127
102922,note_on,0,0,0,,4,,,52,127
103042,note_off,120,0,0,,10,,,69,127
103043,note_on,1,0,0,,8,,,68,127
103163,note_off,120,0,0,,8,,,68,127
103163,note_off,0,0,0,,4,,,52,127
103164,note_on,1,0,0,,10,,,69,127
103164,note_on,0,0,0,,6,,,54,127
103284,note_off,120,0,0,,10,,,69,127
103285,note_on,1,0,0,,10,,,81,127
103405,note_off,120,0,0,,10,,,81,127
103405,note_off,0,0,0,,6,,,54,127
103406,note_on,1,0,0,,8,,,80,127
103406,note_on,0,0,0,,2,,,50,127
103526,note_off,120,0,0,,8,,,80,127
103527,note_on,1,0,0,,6,,,78,127
103647,note_off,120,0,0,,6,,,78,127
103647,note_off,0,0,0,,2,,,50,127
103648,note_on,1,0,0,,4,,,76,127
103648,note_on,0,0,0,,8,,,56,127
103768,note_off,120,0,0,,4,,,76,127
103769,note_on,1,0,0,,2,,,74,127
103889,note_off,120,0,0,,2,,,74,127
103889,note_off,0,0,0,,8,,,56,127
103890,note_on,1,0,0,,1,,,73,127
103890,note_on,0,0,0,,10,,,57,127
104010,note_off,120,0,0,,1,,,73,127
104011,note_on,1,0,0,,10,,,81,127
104131,note_off,120,0,0,,10,,,81,127
104131,note_off,0,0,0,,10,,,57,127
104132,note_on,1,0,0,,8,,,80,127
104132,note_on,0,0,0,,2,,,50,127
104252,note_off,120,0,0,,8,,,80,127
104253,note_on,1,0,0,,10,,,81,127
104373,note_off,120,0,0,,10,,,81,127
104373,note_off,0,0,0,,2,,,50,127
104374,note_on,1,0,0,,12,,,83,127
104374,note_on,0,0,0,,4,,,52,127
104494,note_off,120,0,0,,12,,,83,127
104495,note_on,1,0,0,,8,,,80,127
104615,note_off,120,0,0,,8,,,80,127
104615,note_off,0,0,0,,4,,,52,127
104616,note_on,1,0,0,,10,,,81,127
104616,note_on,0,0,0,,10,,,45,127
104736,note_off,120,0,0,,10,,,81,127
104737,note_on,1,0,0,,4,,,76,127
104857,note_off,120,0,0,,4,,,76,127
104858,note_on,1,0,0,,6,,,78,127
104978,note_off,120,0,0,,6,,,78,127
104979,note_on,1,0,0,,1,,,73,127
105099,note_off,120,0,0,,1,,,73,127
105100,note_on,1,0,0,,2,,,74,127
105220,note_off,120,0,0,,2,,,74,127
105221,note_on,1,0,0,,12,,,71,127
105341,note_off,120,0,0,,12,,,71,127
105341,note_off,0,0,0,,10,,,45,127
105342,note_on,1,0,0,,1,,,73,127
105342,note_on,0,0,0,,10,,,45,127
105462,note_off,120,0,0,,1,,,73,127
105463,note_on,1,0,0,,8,,,68,127
105583,note_off,120,0,0,,8,,,68,127
105584,note_on,1,0,0,,10,,,69,127
105704,note_off,120,0,0,,10,,,69,127
105705,note_on,1,0,0,,4,,,64,127
105825,note_off,120,0,0,,4,,,64,127
105826,note_on,1,0,0,,6,,,66,127
105946,note_off,120,0,0,,6,,,66,127
105947,note_on,1,0,0,,2,,,62,127
106067,note_off,120,0,0,,2,,,62,127
106067,note_off,0,0,0,,10,,,45,127
106068,note_on,1,0,0,,4,,,64,127
106068,note_on,0,0,0,,10,,,45,127
106188,note_off,120,0,0,,4,,,64,127
106189,note_on,1,0,0,,1,,,61,127
106309,note_off,120,0,0,,1,,,61,127
106310,note_on,1,0,0,,2,,,62,127
106430,note_off,120,0,0,,2,,,62,127
106431,note_on,1,0,0,,12,,,59,127
106551,note_off,120,0,0,,12,,,59,127
106552,note_on,1,0,0,,1,,,61,127
106672,note_off,120,0,0,,1,,,61,127
106673,note_on,1,0,0,,8,,,56,127
106793,note_off,120,0,0,,8,,,56,127
106793,note_off,0,0,0,,10,,,45,127
106794,note_on,1,0,0,,10,,,57,127
106794,note_on,0,0,0,,10,,,45,127
106914,note_off,120,0,0,,10,,,57,127
106915,note_on,1,0,0,,4,,,52,127
107035,note_off,120,0,0,,4,,,52,127
107036,note_on,1,0,0,,6,,,54,127
107156,note_off,120,0,0,,6,,,54,127
107165,note_on,9,0,0,,1,,,49,127
107285,note_off,120,0,0,,1,,,49,127
107294,note_on,9,0,0,,2,,,50,127
107414,note_off,120,0,0,,2,,,50,127
107423,note_on,9,0,0,,4,,,52,127
107519,note_off,96,0,0,,10,,,45,127
107543,note_off,24,0,0,,4,,,52,127
107566,note_on,23,0,0,,12,,,47,127
107625,note_off,59,0,0,,12,,,47,127
107626,note_on,1,0,0,,10,,,45,127
107685,note_off,59,0,0,,10,,,45,127
107686,note_on,1,0,0,,12,,,47,127
107745,note_off,59,0,0,,12,,,47,127
107761,note_on,16,0,0,,10,,,45,127
109782,note_off,2021,0,0,,10,,,45,127
113664,end_of_track,3882,1,0,,,,,,
