tick,type,time,meta,track,program,channel,pitch,tempo,note,velocity
0,copyright,0,1,0,,,,,,
0,program_change,0,0,0,6,0,,,,
0,pitchwheel,0,0,0,,0,0,,,
0,program_change,0,0,0,6,1,,,,
0,pitchwheel,0,0,0,,1,-590,,,
0,program_change,0,0,0,6,2,,,,
0,pitchwheel,0,0,0,,2,-272,,,
0,program_change,0,0,0,6,3,,,,
0,pitchwheel,0,0,0,,3,-353,,,
0,program_change,0,0,0,6,4,,,,
0,pitchwheel,0,0,0,,4,-560,,,
0,program_change,0,0,0,6,5,,,,
0,pitchwheel,0,0,0,,5,-80,,,
0,program_change,0,0,0,6,6,,,,
0,pitchwheel,0,0,0,,6,-625,,,
0,program_change,0,0,0,6,7,,,,
0,pitchwheel,0,0,0,,7,-130,,,
0,program_change,0,0,0,6,8,,,,
0,pitchwheel,0,0,0,,8,-512,,,
0,program_change,0,0,0,6,10,,,,
0,pitchwheel,0,0,0,,10,-464,,,
0,program_change,0,0,0,6,11,,,,
0,pitchwheel,0,0,0,,11,-208,,,
0,program_change,0,0,0,6,12,,,,
0,pitchwheel,0,0,0,,12,-553,,,
0,set_tempo,0,1,0,,,,500000,,
100,note_on,100,0,0,,6,,,78,127
199,note_off,99,0,0,,6,,,78,127
200,note_on,1,0,0,,4,,,76,127
299,note_off,99,0,0,,4,,,76,127
300,note_on,1,0,0,,2,,,74,127
500,note_on,200,0,0,,12,,,83,127
699,note_off,199,0,0,,2,,,74,127
700,note_on,1,0,0,,1,,,73,127
899,note_off,199,0,0,,12,,,83,127
900,note_on,1,0,0,,11,,,82,127
1099,note_off,199,0,0,,11,,,82,127
1099,note_off,0,0,0,,1,,,73,127
1100,note_on,1,0,0,,12,,,83,127
1300,note_on,200,0,0,,7,,,67,127
1399,note_off,99,0,0,,7,,,67,127
1400,note_on,1,0,0,,6,,,66,127
1499,note_off,99,0,0,,6,,,66,127
1499,note_off,0,0,0,,12,,,83,127
1500,note_on,1,0,0,,12,,,71,127
1500,note_on,0,0,0,,4,,,64,127
1699,note_off,199,0,0,,4,,,64,127
1700,note_on,1,0,0,,7,,,67,127
1899,note_off,199,0,0,,7,,,67,127
1899,note_off,0,0,0,,12,,,71,127
1900,note_on,1,0,0,,4,,,76,127
1900,note_on,0,0,0,,1,,,61,127
2099,note_off,199,0,0,,1,,,61,127
2100,note_on,1,0,0,,11,,,70,127
2299,note_off,199,0,0,,11,,,70,127
2299,note_off,0,0,0,,4,,,76,127
2300,note_on,1,0,0,,2,,,74,127
2300,note_on,0,0,0,,12,,,59,127
2499,note_off,199,0,0,,2,,,74,127
2500,note_on,1,0,0,,12,,,71,127
2599,note_off,99,0,0,,12,,,71,127
2600,note_on,1,0,0,,10,,,69,127
2699,note_off,99,0,0,,10,,,69,127
2699,note_off,0,0,0,,12,,,59,127
2700,note_on,1,0,0,,7,,,67,127
2700,note_on,0,0,0,,1,,,73,127
2700,note_on,0,0,0,,4,,,52,127
2899,note_off,199,0,0,,1,,,73,127
2900,note_on,1,0,0,,12,,,71,127
2900,note_on,0,0,0,,4,,,64,127
3099,note_off,199,0,0,,4,,,64,127
3099,note_off,0,0,0,,4,,,52,127
3099,note_off,0,0,0,,7,,,67,127
3100,note_on,1,0,0,,6,,,66,127
3100,note_on,0,0,0,,2,,,62,127
3100,note_on,0,0,0,,6,,,54,127
3299,note_off,199,0,0,,2,,,62,127
3299,note_off,0,0,0,,6,,,66,127
3299,note_off,0,0,0,,12,,,71,127
3300,note_on,1,0,0,,4,,,64,127
3300,note_on,0,0,0,,11,,,70,127
3300,note_on,0,0,0,,1,,,61,127
3499,note_off,199,0,0,,1,,,61,127
3499,note_off,0,0,0,,11,,,70,127
3499,note_off,0,0,0,,4,,,64,127
3499,note_off,0,0,0,,6,,,54,127
3500,note_on,1,0,0,,12,,,71,127
3500,note_on,0,0,0,,12,,,47,127
3600,note_on,100,0,0,,12,,,59,127
3700,note_on,100,0,0,,2,,,62,127
3725,note_off,25,0,0,,12,,,59,127
3800,note_on,75,0,0,,12,,,59,127
3825,note_off,25,0,0,,2,,,62,127
3899,note_off,74,0,0,,12,,,47,127
3899,note_off,0,0,0,,12,,,71,127
3900,note_on,1,0,0,,6,,,66,127
3900,note_on,0,0,0,,12,,,83,127
3925,note_off,25,0,0,,12,,,59,127
4000,note_on,75,0,0,,12,,,59,127
4025,note_off,25,0,0,,6,,,66,127
4100,note_on,75,0,0,,2,,,62,127
4125,note_off,25,0,0,,12,,,59,127
4200,note_on,75,0,0,,12,,,59,127
4225,note_off,25,0,0,,2,,,62,127
4299,note_off,74,0,0,,12,,,83,127
4300,note_on,1,0,0,,12,,,47,127
4300,note_on,0,0,0,,12,,,71,127
4325,note_off,25,0,0,,12,,,59,127
4400,note_on,75,0,0,,12,,,59,127
4500,note_on,100,0,0,,2,,,62,127
4525,note_off,25,0,0,,12,,,59,127
4600,note_on,75,0,0,,12,,,59,127
4625,note_off,25,0,0,,2,,,62,127
4699,note_off,74,0,0,,12,,,71,127
4699,note_off,0,0,0,,12,,,47,127
4700,note_on,1,0,0,,10,,,69,127
4700,note_on,0,0,0,,10,,,45,127
4725,note_off,25,0,0,,12,,,59,127
4800,note_on,75,0,0,,10,,,57,127
4900,note_on,100,0,0,,1,,,61,127
4925,note_off,25,0,0,,10,,,57,127
5000,note_on,75,0,0,,10,,,57,127
5025,note_off,25,0,0,,1,,,61,127
5099,note_off,74,0,0,,10,,,45,127
5099,note_off,0,0,0,,10,,,69,127
5100,note_on,1,0,0,,6,,,66,127
5100,note_on,0,0,0,,10,,,81,127
5125,note_off,25,0,0,,10,,,57,127
5200,note_on,75,0,0,,10,,,57,127
5225,note_off,25,0,0,,6,,,66,127
5300,note_on,75,0,0,,1,,,61,127
5325,note_off,25,0,0,,10,,,57,127
5400,note_on,75,0,0,,10,,,57,127
5425,note_off,25,0,0,,1,,,61,127
5499,note_off,74,0,0,,10,,,81,127
5500,note_on,1,0,0,,10,,,45,127
5500,note_on,0,0,0,,10,,,69,127
5525,note_off,25,0,0,,10,,,57,127
5600,note_on,75,0,0,,10,,,57,127
5700,note_on,100,0,0,,1,,,61,127
5725,note_off,25,0,0,,10,,,57,127
5800,note_on,75,0,0,,10,,,57,127
5825,note_off,25,0,0,,1,,,61,127
5899,note_off,74,0,0,,10,,,69,127
5899,note_off,0,0,0,,10,,,45,127
5900,note_on,1,0,0,,7,,,43,127
5900,note_on,0,0,0,,7,,,67,127
5925,note_off,25,0,0,,10,,,57,127
6000,note_on,75,0,0,,7,,,55,127
6100,note_on,100,0,0,,12,,,59,127
6125,note_off,25,0,0,,7,,,55,127
6200,note_on,75,0,0,,7,,,55,127
6225,note_off,25,0,0,,12,,,59,127
6299,note_off,74,0,0,,7,,,67,127
6299,note_off,0,0,0,,7,,,43,127
6300,note_on,1,0,0,,4,,,64,127
6300,note_on,0,0,0,,7,,,79,127
6325,note_off,25,0,0,,7,,,55,127
6400,note_on,75,0,0,,7,,,55,127
6425,note_off,25,0,0,,4,,,64,127
6500,note_on,75,0,0,,12,,,59,127
6525,note_off,25,0,0,,7,,,55,127
6600,note_on,75,0,0,,7,,,55,127
6625,note_off,25,0,0,,12,,,59,127
6699,note_off,74,0,0,,7,,,79,127
6700,note_on,1,0,0,,7,,,43,127
6700,note_on,0,0,0,,7,,,67,127
6725,note_off,25,0,0,,7,,,55,127
6800,note_on,75,0,0,,7,,,55,127
6900,note_on,100,0,0,,12,,,59,127
6925,note_off,25,0,0,,7,,,55,127
7000,note_on,75,0,0,,7,,,55,127
7025,note_off,25,0,0,,12,,,59,127
7099,note_off,74,0,0,,7,,,67,127
7099,note_off,0,0,0,,7,,,43,127
7100,note_on,1,0,0,,6,,,66,127
7100,note_on,0,0,0,,6,,,42,127
7125,note_off,25,0,0,,7,,,55,127
7299,note_off,174,0,0,,6,,,42,127
7299,note_off,0,0,0,,6,,,66,127
7300,note_on,1,0,0,,11,,,70,127
7300,note_on,0,0,0,,6,,,54,127
7399,note_off,99,0,0,,6,,,54,127
7400,note_on,1,0,0,,4,,,52,127
7499,note_off,99,0,0,,4,,,52,127
7499,note_off,0,0,0,,11,,,70,127
7500,note_on,1,0,0,,12,,,71,127
7500,note_on,0,0,0,,2,,,50,127
7700,note_on,200,0,0,,2,,,62,127
7700,note_on,0,0,0,,12,,,59,127
7899,note_off,199,0,0,,2,,,62,127
7899,note_off,0,0,0,,2,,,50,127
7900,note_on,1,0,0,,4,,,64,127
7900,note_on,0,0,0,,1,,,49,127
8099,note_off,199,0,0,,12,,,59,127
8099,note_off,0,0,0,,12,,,71,127
8100,note_on,1,0,0,,1,,,73,127
8100,note_on,0,0,0,,11,,,58,127
8299,note_off,199,0,0,,11,,,58,127
8299,note_off,0,0,0,,1,,,73,127
8299,note_off,0,0,0,,1,,,49,127
8299,note_off,0,0,0,,4,,,64,127
8300,note_on,1,0,0,,2,,,74,127
8300,note_on,0,0,0,,12,,,59,127
8300,note_on,0,0,0,,12,,,47,127
8499,note_off,199,0,0,,12,,,47,127
8499,note_off,0,0,0,,12,,,59,127
8499,note_off,0,0,0,,2,,,74,127
8500,note_on,1,0,0,,3,,,75,127
8500,note_on,0,0,0,,12,,,59,127
8599,note_off,99,0,0,,12,,,59,127
8600,note_on,1,0,0,,10,,,57,127
8699,note_off,99,0,0,,10,,,57,127
8699,note_off,0,0,0,,3,,,75,127
8700,note_on,1,0,0,,4,,,76,127
8700,note_on,0,0,0,,7,,,55,127
8900,note_on,200,0,0,,7,,,67,127
8900,note_on,0,0,0,,4,,,64,127
9099,note_off,199,0,0,,7,,,67,127
9099,note_off,0,0,0,,7,,,55,127
9100,note_on,1,0,0,,10,,,69,127
9100,note_on,0,0,0,,6,,,54,127
9299,note_off,199,0,0,,4,,,64,127
9299,note_off,0,0,0,,4,,,76,127
9300,note_on,1,0,0,,6,,,78,127
9300,note_on,0,0,0,,3,,,63,127
9499,note_off,199,0,0,,3,,,63,127
9499,note_off,0,0,0,,6,,,78,127
9499,note_off,0,0,0,,6,,,54,127
9499,note_off,0,0,0,,10,,,69,127
9500,note_on,1,0,0,,7,,,79,127
9500,note_on,0,0,0,,4,,,64,127
9500,note_on,0,0,0,,4,,,52,127
9699,note_off,199,0,0,,4,,,52,127
9699,note_off,0,0,0,,4,,,64,127
9699,note_off,0,0,0,,7,,,79,127
9700,note_on,1,0,0,,1,,,73,127
9700,note_on,0,0,0,,10,,,57,127
9799,note_off,99,0,0,,10,,,57,127
9800,note_on,1,0,0,,7,,,55,127
9899,note_off,99,0,0,,7,,,55,127
9899,note_off,0,0,0,,1,,,73,127
9900,note_on,1,0,0,,2,,,74,127
9900,note_on,0,0,0,,6,,,54,127
10100,note_on,200,0,0,,6,,,66,127
10100,note_on,0,0,0,,2,,,62,127
10299,note_off,199,0,0,,6,,,66,127
10299,note_off,0,0,0,,6,,,54,127
10300,note_on,1,0,0,,7,,,67,127
10300,note_on,0,0,0,,4,,,52,127
10499,note_off,199,0,0,,2,,,62,127
10499,note_off,0,0,0,,2,,,74,127
10500,note_on,1,0,0,,4,,,76,127
10500,note_on,0,0,0,,1,,,61,127
10699,note_off,199,0,0,,1,,,61,127
10699,note_off,0,0,0,,4,,,76,127
10699,note_off,0,0,0,,4,,,52,127
10699,note_off,0,0,0,,7,,,67,127
10700,note_on,1,0,0,,6,,,78,127
10700,note_on,0,0,0,,2,,,62,127
10700,note_on,0,0,0,,2,,,50,127
10899,note_off,199,0,0,,6,,,78,127
10900,note_on,1,0,0,,7,,,79,127
10999,note_off,99,0,0,,7,,,79,127
11000,note_on,1,0,0,,10,,,81,127
11099,note_off,99,0,0,,10,,,81,127
11099,note_off,0,0,0,,2,,,50,127
11099,note_off,0,0,0,,2,,,62,127
11100,note_on,1,0,0,,12,,,83,127
11100,note_on,0,0,0,,7,,,43,127
11199,note_off,99,0,0,,12,,,83,127
11200,note_on,1,0,0,,10,,,81,127
11299,note_off,99,0,0,,10,,,81,127
11300,note_on,1,0,0,,7,,,79,127
11399,note_off,99,0,0,,7,,,79,127
11400,note_on,1,0,0,,6,,,78,127
11499,note_off,99,0,0,,6,,,78,127
11500,note_on,1,0,0,,4,,,76,127
11500,note_on,0,0,0,,7,,,55,127
11599,note_off,99,0,0,,4,,,76,127
11600,note_on,1,0,0,,2,,,74,127
11699,note_off,99,0,0,,2,,,74,127
11699,note_off,0,0,0,,7,,,43,127
11700,note_on,1,0,0,,1,,,73,127
11799,note_off,99,0,0,,1,,,73,127
11800,note_on,1,0,0,,12,,,71,127
11899,note_off,99,0,0,,12,,,71,127
11899,note_off,0,0,0,,7,,,55,127
11900,note_on,1,0,0,,1,,,73,127
11900,note_on,0,0,0,,10,,,45,127
12000,note_on,100,0,0,,10,,,57,127
12100,note_on,100,0,0,,1,,,61,127
12125,note_off,25,0,0,,10,,,57,127
12200,note_on,75,0,0,,4,,,64,127
12225,note_off,25,0,0,,1,,,61,127
12299,note_off,74,0,0,,10,,,45,127
12299,note_off,0,0,0,,1,,,73,127
12300,note_on,1,0,0,,7,,,67,127
12300,note_on,0,0,0,,10,,,81,127
12325,note_off,25,0,0,,4,,,64,127
12400,note_on,75,0,0,,4,,,64,127
12425,note_off,25,0,0,,7,,,67,127
12500,note_on,75,0,0,,1,,,61,127
12525,note_off,25,0,0,,4,,,64,127
12600,note_on,75,0,0,,10,,,57,127
12625,note_off,25,0,0,,1,,,61,127
12699,note_off,74,0,0,,10,,,81,127
12700,note_on,1,0,0,,6,,,66,127
12700,note_on,0,0,0,,10,,,45,127
12725,note_off,25,0,0,,10,,,57,127
12800,note_on,75,0,0,,2,,,62,127
12825,note_off,25,0,0,,6,,,66,127
12900,note_on,75,0,0,,10,,,57,127
12925,note_off,25,0,0,,2,,,62,127
13000,note_on,75,0,0,,2,,,62,127
13025,note_off,25,0,0,,10,,,57,127
13099,note_off,74,0,0,,10,,,45,127
13100,note_on,1,0,0,,4,,,64,127
13100,note_on,0,0,0,,10,,,45,127
13125,note_off,25,0,0,,2,,,62,127
13200,note_on,75,0,0,,1,,,61,127
13225,note_off,25,0,0,,4,,,64,127
13300,note_on,75,0,0,,10,,,57,127
13325,note_off,25,0,0,,1,,,61,127
13400,note_on,75,0,0,,1,,,61,127
13425,note_off,25,0,0,,10,,,57,127
13499,note_off,74,0,0,,10,,,45,127
13500,note_on,1,0,0,,7,,,67,127
13500,note_on,0,0,0,,10,,,81,127
13525,note_off,25,0,0,,1,,,61,127
13600,note_on,75,0,0,,4,,,64,127
13625,note_off,25,0,0,,7,,,67,127
13700,note_on,75,0,0,,1,,,61,127
13725,note_off,25,0,0,,4,,,64,127
13800,note_on,75,0,0,,10,,,57,127
13825,note_off,25,0,0,,1,,,61,127
13899,note_off,74,0,0,,10,,,81,127
13900,note_on,1,0,0,,6,,,66,127
13900,note_on,0,0,0,,10,,,45,127
13925,note_off,25,0,0,,10,,,57,127
14000,note_on,75,0,0,,2,,,62,127
14025,note_off,25,0,0,,6,,,66,127
14100,note_on,75,0,0,,10,,,57,127
14125,note_off,25,0,0,,2,,,62,127
14200,note_on,75,0,0,,2,,,62,127
14225,note_off,25,0,0,,10,,,57,127
14299,note_off,74,0,0,,10,,,45,127
14300,note_on,1,0,0,,4,,,64,127
14300,note_on,0,0,0,,10,,,45,127
14325,note_off,25,0,0,,2,,,62,127
14400,note_on,75,0,0,,1,,,61,127
14425,note_off,25,0,0,,4,,,64,127
14500,note_on,75,0,0,,10,,,57,127
14525,note_off,25,0,0,,1,,,61,127
14600,note_on,75,0,0,,1,,,61,127
14625,note_off,25,0,0,,10,,,57,127
14699,note_off,74,0,0,,10,,,45,127
14700,note_on,1,0,0,,7,,,67,127
14700,note_on,0,0,0,,10,,,81,127
14725,note_off,25,0,0,,1,,,61,127
14800,note_on,75,0,0,,4,,,64,127
14825,note_off,25,0,0,,7,,,67,127
14900,note_on,75,0,0,,1,,,61,127
14925,note_off,25,0,0,,4,,,64,127
15000,note_on,75,0,0,,10,,,57,127
15025,note_off,25,0,0,,1,,,61,127
15099,note_off,74,0,0,,10,,,81,127
15100,note_on,1,0,0,,6,,,66,127
15100,note_on,0,0,0,,10,,,45,127
15125,note_off,25,0,0,,10,,,57,127
15200,note_on,75,0,0,,2,,,62,127
15225,note_off,25,0,0,,6,,,66,127
15300,note_on,75,0,0,,10,,,57,127
15325,note_off,25,0,0,,2,,,62,127
15400,note_on,75,0,0,,2,,,62,127
15425,note_off,25,0,0,,10,,,57,127
15499,note_off,74,0,0,,10,,,45,127
15500,note_on,1,0,0,,4,,,64,127
15500,note_on,0,0,0,,10,,,45,127
15525,note_off,25,0,0,,2,,,62,127
15600,note_on,75,0,0,,1,,,61,127
15625,note_off,25,0,0,,4,,,64,127
15700,note_on,75,0,0,,10,,,57,127
15725,note_off,25,0,0,,1,,,61,127
15800,note_on,75,0,0,,1,,,61,127
15825,note_off,25,0,0,,10,,,57,127
15899,note_off,74,0,0,,10,,,45,127
15900,note_on,1,0,0,,7,,,67,127
15900,note_on,0,0,0,,10,,,81,127
15925,note_off,25,0,0,,1,,,61,127
16000,note_on,75,0,0,,4,,,64,127
16025,note_off,25,0,0,,7,,,67,127
16100,note_on,75,0,0,,1,,,61,127
16125,note_off,25,0,0,,4,,,64,127
16200,note_on,75,0,0,,10,,,57,127
16225,note_off,25,0,0,,1,,,61,127
16299,note_off,74,0,0,,10,,,81,127
16300,note_on,1,0,0,,6,,,66,127
16300,note_on,0,0,0,,10,,,45,127
16325,note_off,25,0,0,,10,,,57,127
16400,note_on,75,0,0,,2,,,62,127
16425,note_off,25,0,0,,6,,,66,127
16500,note_on,75,0,0,,10,,,57,127
16525,note_off,25,0,0,,2,,,62,127
16600,note_on,75,0,0,,2,,,62,127
16625,note_off,25,0,0,,10,,,57,127
16699,note_off,74,0,0,,10,,,45,127
16700,note_on,1,0,0,,10,,,45,127
16700,note_on,0,0,0,,4,,,64,127
16725,note_off,25,0,0,,2,,,62,127
16800,note_on,75,0,0,,1,,,61,127
16825,note_off,25,0,0,,4,,,64,127
16900,note_on,75,0,0,,10,,,57,127
16925,note_off,25,0,0,,1,,,61,127
17000,note_on,75,0,0,,1,,,61,127
17025,note_off,25,0,0,,10,,,57,127
17099,note_off,74,0,0,,10,,,45,127
17100,note_on,1,0,0,,10,,,81,127
17100,note_on,0,0,0,,7,,,67,127
17125,note_off,25,0,0,,1,,,61,127
17200,note_on,75,0,0,,4,,,64,127
17225,note_off,25,0,0,,7,,,67,127
17300,note_on,75,0,0,,1,,,61,127
17325,note_off,25,0,0,,4,,,64,127
17400,note_on,75,0,0,,10,,,57,127
17425,note_off,25,0,0,,1,,,61,127
17499,note_off,74,0,0,,10,,,81,127
17500,note_on,1,0,0,,10,,,45,127
17500,note_on,0,0,0,,6,,,66,127
17525,note_off,25,0,0,,10,,,57,127
17600,note_on,75,0,0,,2,,,62,127
17625,note_off,25,0,0,,6,,,66,127
17700,note_on,75,0,0,,10,,,57,127
17725,note_off,25,0,0,,2,,,62,127
17800,note_on,75,0,0,,2,,,62,127
17825,note_off,25,0,0,,10,,,57,127
17899,note_off,74,0,0,,10,,,45,127
17900,note_on,1,0,0,,10,,,45,127
17900,note_on,0,0,0,,4,,,64,127
17925,note_off,25,0,0,,2,,,62,127
18000,note_on,75,0,0,,10,,,57,127
18025,note_off,25,0,0,,4,,,64,127
18100,note_on,75,0,0,,1,,,61,127
18125,note_off,25,0,0,,10,,,57,127
18200,note_on,75,0,0,,4,,,64,127
18225,note_off,25,0,0,,1,,,61,127
18299,note_off,74,0,0,,10,,,45,127
18300,note_on,1,0,0,,10,,,81,127
18300,note_on,0,0,0,,10,,,69,127
18325,note_off,25,0,0,,4,,,64,127
18400,note_on,75,0,0,,4,,,64,127
18425,note_off,25,0,0,,10,,,69,127
18500,note_on,75,0,0,,1,,,61,127
18525,note_off,25,0,0,,4,,,64,127
18600,note_on,75,0,0,,10,,,57,127
18625,note_off,25,0,0,,1,,,61,127
18699,note_off,74,0,0,,10,,,81,127
18700,note_on,1,0,0,,6,,,42,127
18700,note_on,0,0,0,,10,,,69,127
18725,note_off,25,0,0,,10,,,57,127
18800,note_on,75,0,0,,6,,,66,127
18825,note_off,25,0,0,,10,,,69,127
18900,note_on,75,0,0,,2,,,62,127
18925,note_off,25,0,0,,6,,,66,127
19000,note_on,75,0,0,,10,,,57,127
19025,note_off,25,0,0,,2,,,62,127
19099,note_off,74,0,0,,6,,,42,127
19100,note_on,1,0,0,,7,,,43,127
19100,note_on,0,0,0,,10,,,69,127
19125,note_off,25,0,0,,10,,,57,127
19200,note_on,75,0,0,,2,,,62,127
19225,note_off,25,0,0,,10,,,69,127
19300,note_on,75,0,0,,12,,,59,127
19325,note_off,25,0,0,,2,,,62,127
19400,note_on,75,0,0,,2,,,62,127
19425,note_off,25,0,0,,12,,,59,127
19499,note_off,74,0,0,,7,,,43,127
19500,note_on,1,0,0,,7,,,79,127
19500,note_on,0,0,0,,7,,,67,127
19525,note_off,25,0,0,,2,,,62,127
19600,note_on,75,0,0,,2,,,62,127
19625,note_off,25,0,0,,7,,,67,127
19700,note_on,75,0,0,,12,,,59,127
19725,note_off,25,0,0,,2,,,62,127
19800,note_on,75,0,0,,2,,,62,127
19825,note_off,25,0,0,,12,,,59,127
19899,note_off,74,0,0,,7,,,79,127
19900,note_on,1,0,0,,4,,,40,127
19900,note_on,0,0,0,,7,,,67,127
19925,note_off,25,0,0,,2,,,62,127
20000,note_on,75,0,0,,1,,,61,127
20025,note_off,25,0,0,,7,,,67,127
20100,note_on,75,0,0,,12,,,59,127
20125,note_off,25,0,0,,1,,,61,127
20200,note_on,75,0,0,,1,,,61,127
20225,note_off,25,0,0,,12,,,59,127
20299,note_off,74,0,0,,4,,,40,127
20300,note_on,1,0,0,,6,,,42,127
20300,note_on,0,0,0,,7,,,67,127
20325,note_off,25,0,0,,1,,,61,127
20400,note_on,75,0,0,,2,,,62,127
20425,note_off,25,0,0,,7,,,67,127
20500,note_on,75,0,0,,10,,,57,127
20525,note_off,25,0,0,,2,,,62,127
20600,note_on,75,0,0,,2,,,62,127
20625,note_off,25,0,0,,10,,,57,127
20699,note_off,74,0,0,,6,,,42,127
20700,note_on,1,0,0,,6,,,78,127
20700,note_on,0,0,0,,6,,,66,127
20725,note_off,25,0,0,,2,,,62,127
20800,note_on,75,0,0,,2,,,62,127
20825,note_off,25,0,0,,6,,,66,127
20900,note_on,75,0,0,,10,,,57,127
20925,note_off,25,0,0,,2,,,62,127
21000,note_on,75,0,0,,2,,,62,127
21025,note_off,25,0,0,,10,,,57,127
21099,note_off,74,0,0,,6,,,78,127
21100,note_on,1,0,0,,2,,,38,127
21100,note_on,0,0,0,,6,,,66,127
21125,note_off,25,0,0,,2,,,62,127
21200,note_on,75,0,0,,2,,,62,127
21225,note_off,25,0,0,,6,,,66,127
21300,note_on,75,0,0,,10,,,57,127
21325,note_off,25,0,0,,2,,,62,127
21400,note_on,75,0,0,,2,,,62,127
21425,note_off,25,0,0,,10,,,57,127
21499,note_off,74,0,0,,2,,,38,127
21500,note_on,1,0,0,,4,,,40,127
21500,note_on,0,0,0,,6,,,66,127
21525,note_off,25,0,0,,2,,,62,127
21600,note_on,75,0,0,,12,,,59,127
21625,note_off,25,0,0,,6,,,66,127
21700,note_on,75,0,0,,7,,,55,127
21725,note_off,25,0,0,,12,,,59,127
21800,note_on,75,0,0,,12,,,59,127
21825,note_off,25,0,0,,7,,,55,127
21899,note_off,74,0,0,,4,,,40,127
21900,note_on,1,0,0,,4,,,76,127
21900,note_on,0,0,0,,4,,,64,127
21925,note_off,25,0,0,,12,,,59,127
22000,note_on,75,0,0,,12,,,59,127
22025,note_off,25,0,0,,4,,,64,127
22100,note_on,75,0,0,,7,,,55,127
22125,note_off,25,0,0,,12,,,59,127
22200,note_on,75,0,0,,12,,,59,127
22225,note_off,25,0,0,,7,,,55,127
22299,note_off,74,0,0,,4,,,76,127
22300,note_on,1,0,0,,1,,,37,127
22300,note_on,0,0,0,,4,,,64,127
22325,note_off,25,0,0,,12,,,59,127
22400,note_on,75,0,0,,10,,,57,127
22425,note_off,25,0,0,,4,,,64,127
22500,note_on,75,0,0,,7,,,55,127
22525,note_off,25,0,0,,10,,,57,127
22600,note_on,75,0,0,,10,,,57,127
22625,note_off,25,0,0,,7,,,55,127
22699,note_off,74,0,0,,1,,,37,127
22700,note_on,1,0,0,,2,,,38,127
22700,note_on,0,0,0,,2,,,62,127
22725,note_off,25,0,0,,10,,,57,127
22799,note_off,74,0,0,,2,,,62,127
22800,note_on,1,0,0,,10,,,57,127
22899,note_off,99,0,0,,10,,,57,127
22900,note_on,1,0,0,,12,,,59,127
22999,note_off,99,0,0,,12,,,59,127
23000,note_on,1,0,0,,1,,,61,127
23099,note_off,99,0,0,,1,,,61,127
23099,note_off,0,0,0,,2,,,38,127
23100,note_on,1,0,0,,2,,,50,127
23100,note_on,0,0,0,,2,,,62,127
23199,note_off,99,0,0,,2,,,62,127
23200,note_on,1,0,0,,4,,,64,127
23299,note_off,99,0,0,,4,,,64,127
23300,note_on,1,0,0,,6,,,66,127
23399,note_off,99,0,0,,6,,,66,127
23400,note_on,1,0,0,,7,,,67,127
23499,note_off,99,0,0,,7,,,67,127
23499,note_off,0,0,0,,2,,,50,127
23500,note_on,1,0,0,,6,,,42,127
23500,note_on,0,0,0,,10,,,69,127
23599,note_off,99,0,0,,10,,,69,127
23600,note_on,1,0,0,,6,,,66,127
23699,note_off,99,0,0,,6,,,66,127
23700,note_on,1,0,0,,4,,,64,127
23799,note_off,99,0,0,,4,,,64,127
23800,note_on,1,0,0,,2,,,62,127
23899,note_off,99,0,0,,2,,,62,127
23899,note_off,0,0,0,,6,,,42,127
23900,note_on,1,0,0,,7,,,43,127
23900,note_on,0,0,0,,12,,,71,127
23999,note_off,99,0,0,,12,,,71,127
24000,note_on,1,0,0,,7,,,67,127
24099,note_off,99,0,0,,7,,,67,127
24100,note_on,1,0,0,,6,,,66,127
24199,note_off,99,0,0,,6,,,66,127
24200,note_on,1,0,0,,4,,,64,127
24299,note_off,99,0,0,,4,,,64,127
24299,note_off,0,0,0,,7,,,43,127
24300,note_on,1,0,0,,10,,,45,127
24300,note_on,0,0,0,,6,,,66,127
24399,note_off,99,0,0,,6,,,66,127
24400,note_on,1,0,0,,7,,,67,127
24499,note_off,99,0,0,,7,,,67,127
24500,note_on,1,0,0,,10,,,69,127
24599,note_off,99,0,0,,10,,,69,127
24600,note_on,1,0,0,,7,,,67,127
24699,note_off,99,0,0,,7,,,67,127
24700,note_on,1,0,0,,10,,,57,127
24700,note_on,0,0,0,,6,,,66,127
24799,note_off,99,0,0,,6,,,66,127
24800,note_on,1,0,0,,4,,,64,127
24899,note_off,99,0,0,,4,,,64,127
24899,note_off,0,0,0,,10,,,45,127
24900,note_on,1,0,0,,2,,,62,127
24999,note_off,99,0,0,,2,,,62,127
25000,note_on,1,0,0,,1,,,61,127
25099,note_off,99,0,0,,1,,,61,127
25099,note_off,0,0,0,,10,,,57,127
25100,note_on,1,0,0,,12,,,59,127
25100,note_on,0,0,0,,2,,,74,127
25200,note_on,100,0,0,,10,,,69,127
25299,note_off,99,0,0,,10,,,69,127
25300,note_on,1,0,0,,7,,,67,127
25399,note_off,99,0,0,,7,,,67,127
25400,note_on,1,0,0,,6,,,66,127
25499,note_off,99,0,0,,6,,,66,127
25499,note_off,0,0,0,,2,,,74,127
25499,note_off,0,0,0,,12,,,59,127
25500,note_on,1,0,0,,4,,,64,127
25500,note_on,0,0,0,,7,,,67,127
25599,note_off,99,0,0,,7,,,67,127
25600,note_on,1,0,0,,2,,,74,127
25699,note_off,99,0,0,,2,,,74,127
25700,note_on,1,0,0,,1,,,73,127
25799,note_off,99,0,0,,1,,,73,127
25800,note_on,1,0,0,,12,,,71,127
25899,note_off,99,0,0,,12,,,71,127
25899,note_off,0,0,0,,4,,,64,127
25900,note_on,1,0,0,,10,,,57,127
25900,note_on,0,0,0,,1,,,73,127
26000,note_on,100,0,0,,7,,,67,127
26099,note_off,99,0,0,,7,,,67,127
26100,note_on,1,0,0,,6,,,66,127
26199,note_off,99,0,0,,6,,,66,127
26200,note_on,1,0,0,,4,,,64,127
26299,note_off,99,0,0,,4,,,64,127
26299,note_off,0,0,0,,1,,,73,127
26299,note_off,0,0,0,,10,,,57,127
26300,note_on,1,0,0,,2,,,62,127
26300,note_on,0,0,0,,6,,,66,127
26399,note_off,99,0,0,,6,,,66,127
26400,note_on,1,0,0,,1,,,73,127
26499,note_off,99,0,0,,1,,,73,127
26500,note_on,1,0,0,,12,,,71,127
26599,note_off,99,0,0,,12,,,71,127
26600,note_on,1,0,0,,10,,,69,127
26699,note_off,99,0,0,,10,,,69,127
26699,note_off,0,0,0,,2,,,62,127
26700,note_on,1,0,0,,7,,,55,127
26700,note_on,0,0,0,,12,,,71,127
26800,note_on,100,0,0,,6,,,66,127
26899,note_off,99,0,0,,6,,,66,127
26900,note_on,1,0,0,,4,,,64,127
26999,note_off,99,0,0,,4,,,64,127
27000,note_on,1,0,0,,2,,,62,127
27099,note_off,99,0,0,,2,,,62,127
27099,note_off,0,0,0,,12,,,71,127
27099,note_off,0,0,0,,7,,,55,127
27100,note_on,1,0,0,,1,,,61,127
27100,note_on,0,0,0,,4,,,64,127
27199,note_off,99,0,0,,4,,,64,127
27200,note_on,1,0,0,,12,,,71,127
27299,note_off,99,0,0,,12,,,71,127
27300,note_on,1,0,0,,10,,,69,127
27399,note_off,99,0,0,,10,,,69,127
27400,note_on,1,0,0,,7,,,67,127
27499,note_off,99,0,0,,7,,,67,127
27499,note_off,0,0,0,,1,,,61,127
27500,note_on,1,0,0,,6,,,54,127
27500,note_on,0,0,0,,10,,,69,127
27600,note_on,100,0,0,,4,,,64,127
27699,note_off,99,0,0,,4,,,64,127
27700,note_on,1,0,0,,2,,,62,127
27799,note_off,99,0,0,,2,,,62,127
27800,note_on,1,0,0,,1,,,61,127
27899,note_off,99,0,0,,1,,,61,127
27899,note_off,0,0,0,,10,,,69,127
27899,note_off,0,0,0,,6,,,54,127
27900,note_on,1,0,0,,12,,,59,127
27900,note_on,0,0,0,,2,,,62,127
27999,note_off,99,0,0,,2,,,62,127
28000,note_on,1,0,0,,10,,,69,127
28099,note_off,99,0,0,,10,,,69,127
28100,note_on,1,0,0,,7,,,67,127
28199,note_off,99,0,0,,7,,,67,127
28200,note_on,1,0,0,,6,,,66,127
28299,note_off,99,0,0,,6,,,66,127
28299,note_off,0,0,0,,12,,,59,127
28300,note_on,1,0,0,,4,,,52,127
28300,note_on,0,0,0,,7,,,67,127
28400,note_on,100,0,0,,4,,,64,127
28498,note_off,98,0,0,,4,,,52,127
28499,note_off,1,0,0,,4,,,64,127
28499,note_off,0,0,0,,7,,,67,127
28500,note_on,1,0,0,,2,,,62,127
28500,note_on,0,0,0,,6,,,66,127
28599,note_off,99,0,0,,6,,,66,127
28599,note_off,0,0,0,,2,,,62,127
28600,note_on,1,0,0,,1,,,61,127
28600,note_on,0,0,0,,4,,,64,127
28699,note_off,99,0,0,,4,,,64,127
28699,note_off,0,0,0,,1,,,61,127
28700,note_on,1,0,0,,6,,,66,127
28800,note_on,100,0,0,,2,,,50,127
28899,note_off,99,0,0,,2,,,50,127
28899,note_off,0,0,0,,6,,,66,127
28900,note_on,1,0,0,,4,,,52,127
28900,note_on,0,0,0,,10,,,57,127
28999,note_off,99,0,0,,4,,,52,127
29000,note_on,1,0,0,,6,,,54,127
29099,note_off,99,0,0,,6,,,54,127
29099,note_off,0,0,0,,10,,,57,127
29100,note_on,1,0,0,,7,,,55,127
29100,note_on,0,0,0,,12,,,59,127
29199,note_off,99,0,0,,7,,,55,127
29200,note_on,1,0,0,,4,,,52,127
29299,note_off,99,0,0,,4,,,52,127
29299,note_off,0,0,0,,12,,,59,127
29300,note_on,1,0,0,,10,,,57,127
29300,note_on,0,0,0,,1,,,61,127
29399,note_off,99,0,0,,10,,,57,127
29400,note_on,1,0,0,,6,,,54,127
29499,note_off,99,0,0,,6,,,54,127
29499,note_off,0,0,0,,1,,,61,127
29500,note_on,1,0,0,,12,,,59,127
29500,note_on,0,0,0,,2,,,62,127
29599,note_off,99,0,0,,12,,,59,127
29600,note_on,1,0,0,,7,,,55,127
29699,note_off,99,0,0,,7,,,55,127
29699,note_off,0,0,0,,2,,,62,127
29700,note_on,1,0,0,,1,,,61,127
29700,note_on,0,0,0,,4,,,64,127
29799,note_off,99,0,0,,1,,,61,127
29800,note_on,1,0,0,,10,,,57,127
29899,note_off,99,0,0,,10,,,57,127
29899,note_off,0,0,0,,4,,,64,127
29900,note_on,1,0,0,,2,,,62,127
29900,note_on,0,0,0,,6,,,66,127
29999,note_off,99,0,0,,6,,,66,127
29999,note_off,0,0,0,,2,,,62,127
30000,note_on,1,0,0,,2,,,62,127
30099,note_off,99,0,0,,2,,,62,127
30100,note_on,1,0,0,,1,,,61,127
30100,note_on,0,0,0,,4,,,64,127
30199,note_off,99,0,0,,4,,,64,127
30200,note_on,1,0,0,,6,,,66,127
30299,note_off,99,0,0,,6,,,66,127
30299,note_off,0,0,0,,1,,,61,127
30300,note_on,1,0,0,,12,,,59,127
30300,note_on,0,0,0,,7,,,67,127
30399,note_off,99,0,0,,7,,,67,127
30400,note_on,1,0,0,,4,,,64,127
30499,note_off,99,0,0,,4,,,64,127
30499,note_off,0,0,0,,12,,,59,127
30500,note_on,1,0,0,,10,,,57,127
30500,note_on,0,0,0,,10,,,69,127
30599,note_off,99,0,0,,10,,,69,127
30600,note_on,1,0,0,,6,,,66,127
30699,note_off,99,0,0,,6,,,66,127
30699,note_off,0,0,0,,10,,,57,127
30700,note_on,1,0,0,,7,,,55,127
30700,note_on,0,0,0,,12,,,71,127
30799,note_off,99,0,0,,12,,,71,127
30800,note_on,1,0,0,,7,,,67,127
30899,note_off,99,0,0,,7,,,67,127
30900,note_on,1,0,0,,1,,,73,127
30999,note_off,99,0,0,,1,,,73,127
31000,note_on,1,0,0,,10,,,69,127
31099,note_off,99,0,0,,10,,,69,127
31099,note_off,0,0,0,,7,,,55,127
31100,note_on,1,0,0,,6,,,54,127
31100,note_on,0,0,0,,2,,,74,127
31199,note_off,99,0,0,,2,,,74,127
31200,note_on,1,0,0,,4,,,76,127
31299,note_off,99,0,0,,4,,,76,127
31299,note_off,0,0,0,,6,,,54,127
31300,note_on,1,0,0,,7,,,55,127
31300,note_on,0,0,0,,6,,,78,127
31399,note_off,99,0,0,,6,,,78,127
31400,note_on,1,0,0,,7,,,79,127
31499,note_off,99,0,0,,7,,,79,127
31499,note_off,0,0,0,,7,,,55,127
31500,note_on,1,0,0,,10,,,57,127
31500,note_on,0,0,0,,6,,,78,127
31599,note_off,99,0,0,,6,,,78,127
31600,note_on,1,0,0,,7,,,79,127
31699,note_off,99,0,0,,7,,,79,127
31700,note_on,1,0,0,,10,,,81,127
31799,note_off,99,0,0,,10,,,81,127
31800,note_on,1,0,0,,7,,,79,127
31899,note_off,99,0,0,,7,,,79,127
31899,note_off,0,0,0,,10,,,57,127
31900,note_on,1,0,0,,10,,,45,127
31900,note_on,0,0,0,,6,,,78,127
31999,note_off,99,0,0,,6,,,78,127
32000,note_on,1,0,0,,4,,,76,127
32099,note_off,99,0,0,,4,,,76,127
32100,note_on,1,0,0,,2,,,74,127
32199,note_off,99,0,0,,2,,,74,127
32200,note_on,1,0,0,,1,,,73,127
32299,note_off,99,0,0,,1,,,73,127
32299,note_off,0,0,0,,10,,,45,127
32300,note_on,1,0,0,,2,,,38,127
32300,note_on,0,0,0,,2,,,74,127
32399,note_off,99,0,0,,2,,,74,127
32400,note_on,1,0,0,,10,,,81,127
32499,note_off,99,0,0,,10,,,81,127
32500,note_on,1,0,0,,7,,,79,127
32599,note_off,99,0,0,,7,,,79,127
32600,note_on,1,0,0,,6,,,78,127
32698,note_off,98,0,0,,6,,,78,127
32699,note_off,1,0,0,,2,,,38,127
32700,note_on,1,0,0,,6,,,78,127
32798,note_off,98,0,0,,6,,,78,127
32800,note_on,2,0,0,,6,,,78,127
32899,note_off,99,0,0,,6,,,78,127
32900,note_on,1,0,0,,4,,,76,127
32999,note_off,99,0,0,,4,,,76,127
33000,note_on,1,0,0,,2,,,74,127
33098,note_off,98,0,0,,2,,,74,127
33100,note_on,2,0,0,,2,,,74,127
33198,note_off,98,0,0,,2,,,74,127
33200,note_on,2,0,0,,2,,,74,127
33299,note_off,99,0,0,,2,,,74,127
33300,note_on,1,0,0,,1,,,73,127
33399,note_off,99,0,0,,1,,,73,127
33400,note_on,1,0,0,,12,,,71,127
33499,note_off,99,0,0,,12,,,71,127
33500,note_on,1,0,0,,10,,,69,127
33598,note_off,98,0,0,,10,,,69,127
33600,note_on,2,0,0,,10,,,69,127
33699,note_off,99,0,0,,10,,,69,127
33700,note_on,1,0,0,,7,,,67,127
33799,note_off,99,0,0,,7,,,67,127
33800,note_on,1,0,0,,6,,,66,127
33898,note_off,98,0,0,,6,,,66,127
33900,note_on,2,0,0,,6,,,66,127
33998,note_off,98,0,0,,6,,,66,127
34000,note_on,2,0,0,,6,,,66,127
34099,note_off,99,0,0,,6,,,66,127
34100,note_on,1,0,0,,4,,,64,127
34199,note_off,99,0,0,,4,,,64,127
34200,note_on,1,0,0,,2,,,62,127
34298,note_off,98,0,0,,2,,,62,127
34300,note_on,2,0,0,,2,,,62,127
34398,note_off,98,0,0,,2,,,62,127
34400,note_on,2,0,0,,2,,,62,127
34499,note_off,99,0,0,,2,,,62,127
34500,note_on,1,0,0,,1,,,61,127
34599,note_off,99,0,0,,1,,,61,127
34600,note_on,1,0,0,,12,,,59,127
34699,note_off,99,0,0,,12,,,59,127
34700,note_on,1,0,0,,10,,,57,127
34798,note_off,98,0,0,,10,,,57,127
34800,note_on,2,0,0,,10,,,57,127
34899,note_off,99,0,0,,10,,,57,127
34900,note_on,1,0,0,,7,,,55,127
34999,note_off,99,0,0,,7,,,55,127
35000,note_on,1,0,0,,6,,,54,127
35098,note_off,98,0,0,,6,,,54,127
35100,note_on,2,0,0,,6,,,54,127
35198,note_off,98,0,0,,6,,,54,127
35200,note_on,2,0,0,,6,,,54,127
35299,note_off,99,0,0,,6,,,54,127
35300,note_on,1,0,0,,4,,,52,127
35399,note_off,99,0,0,,4,,,52,127
35400,note_on,1,0,0,,2,,,50,127
35498,note_off,98,0,0,,2,,,50,127
35500,note_on,2,0,0,,2,,,50,127
35599,note_off,99,0,0,,2,,,50,127
35600,note_on,1,0,0,,6,,,42,127
35699,note_off,99,0,0,,6,,,42,127
35700,note_on,1,0,0,,7,,,43,127
35799,note_off,99,0,0,,7,,,43,127
35800,note_on,1,0,0,,10,,,45,127
35899,note_off,99,0,0,,10,,,45,127
35900,note_on,1,0,0,,2,,,38,127
36100,note_on,200,0,0,,10,,,69,127
36199,note_off,99,0,0,,10,,,69,127
36200,note_on,1,0,0,,7,,,67,127
36296,note_off,96,0,0,,2,,,38,127
36299,note_off,3,0,0,,7,,,67,127
36300,note_on,1,0,0,,6,,,66,127
36500,note_on,200,0,0,,2,,,74,127
36699,note_off,199,0,0,,6,,,66,127
36700,note_on,1,0,0,,4,,,64,127
36899,note_off,199,0,0,,2,,,74,127
36900,note_on,1,0,0,,1,,,73,127
37099,note_off,199,0,0,,1,,,73,127
37099,note_off,0,0,0,,4,,,64,127
37100,note_on,1,0,0,,6,,,66,127
37100,note_on,0,0,0,,2,,,74,127
37299,note_off,199,0,0,,2,,,74,127
37299,note_off,0,0,0,,6,,,66,127
37300,note_on,1,0,0,,12,,,59,127
37300,note_on,0,0,0,,3,,,75,127
37399,note_off,99,0,0,,12,,,59,127
37400,note_on,1,0,0,,10,,,57,127
37499,note_off,99,0,0,,10,,,57,127
37499,note_off,0,0,0,,3,,,75,127
37500,note_on,1,0,0,,7,,,55,127
37500,note_on,0,0,0,,4,,,76,127
37700,note_on,200,0,0,,1,,,61,127
37700,note_on,0,0,0,,7,,,67,127
37899,note_off,199,0,0,,7,,,67,127
37899,note_off,0,0,0,,7,,,55,127
37900,note_on,1,0,0,,6,,,54,127
37900,note_on,0,0,0,,10,,,69,127
38099,note_off,199,0,0,,1,,,61,127
38099,note_off,0,0,0,,4,,,76,127
38100,note_on,1,0,0,,3,,,63,127
38100,note_on,0,0,0,,6,,,78,127
38299,note_off,199,0,0,,6,,,78,127
38299,note_off,0,0,0,,3,,,63,127
38299,note_off,0,0,0,,10,,,69,127
38299,note_off,0,0,0,,6,,,54,127
38300,note_on,1,0,0,,4,,,52,127
38300,note_on,0,0,0,,7,,,79,127
38499,note_off,199,0,0,,4,,,52,127
38500,note_on,1,0,0,,12,,,71,127
38599,note_off,99,0,0,,12,,,71,127
38600,note_on,1,0,0,,10,,,69,127
38699,note_off,99,0,0,,10,,,69,127
38700,note_on,1,0,0,,7,,,67,127
38899,note_off,199,0,0,,7,,,79,127
38900,note_on,1,0,0,,4,,,76,127
39099,note_off,199,0,0,,7,,,67,127
39100,note_on,1,0,0,,6,,,66,127
39299,note_off,199,0,0,,4,,,76,127
39300,note_on,1,0,0,,3,,,75,127
39499,note_off,199,0,0,,3,,,75,127
39499,note_off,0,0,0,,6,,,66,127
39500,note_on,1,0,0,,7,,,67,127
39500,note_on,0,0,0,,4,,,76,127
39699,note_off,199,0,0,,4,,,76,127
39699,note_off,0,0,0,,7,,,67,127
39700,note_on,1,0,0,,1,,,61,127
39700,note_on,0,0,0,,5,,,77,127
39799,note_off,99,0,0,,1,,,61,127
39800,note_on,1,0,0,,12,,,59,127
39899,note_off,99,0,0,,12,,,59,127
39899,note_off,0,0,0,,5,,,77,127
39900,note_on,1,0,0,,10,,,57,127
39900,note_on,0,0,0,,6,,,78,127
40100,note_on,200,0,0,,6,,,66,127
40100,note_on,0,0,0,,10,,,69,127
40299,note_off,199,0,0,,10,,,69,127
40299,note_off,0,0,0,,10,,,57,127
40300,note_on,1,0,0,,8,,,56,127
40300,note_on,0,0,0,,12,,,71,127
40499,note_off,199,0,0,,6,,,66,127
40499,note_off,0,0,0,,6,,,78,127
40500,note_on,1,0,0,,5,,,65,127
40500,note_on,0,0,0,,8,,,80,127
40699,note_off,199,0,0,,8,,,80,127
40699,note_off,0,0,0,,5,,,65,127
40699,note_off,0,0,0,,12,,,71,127
40699,note_off,0,0,0,,8,,,56,127
40700,note_on,1,0,0,,6,,,54,127
40700,note_on,0,0,0,,10,,,81,127
40799,note_off,99,0,0,,10,,,81,127
40800,note_on,1,0,0,,8,,,80,127
40899,note_off,99,0,0,,8,,,80,127
40900,note_on,1,0,0,,6,,,78,127
40999,note_off,99,0,0,,6,,,78,127
41000,note_on,1,0,0,,4,,,76,127
41099,note_off,99,0,0,,4,,,76,127
41099,note_off,0,0,0,,6,,,54,127
41100,note_on,1,0,0,,12,,,59,127
41100,note_on,0,0,0,,2,,,74,127
41199,note_off,99,0,0,,2,,,74,127
41200,note_on,1,0,0,,1,,,73,127
41299,note_off,99,0,0,,1,,,73,127
41300,note_on,1,0,0,,12,,,71,127
41399,note_off,99,0,0,,12,,,71,127
41400,note_on,1,0,0,,10,,,69,127
41499,note_off,99,0,0,,10,,,69,127
41499,note_off,0,0,0,,12,,,59,127
41500,note_on,1,0,0,,2,,,50,127
41500,note_on,0,0,0,,8,,,68,127
41599,note_off,99,0,0,,8,,,68,127
41600,note_on,1,0,0,,6,,,66,127
41699,note_off,99,0,0,,6,,,66,127
41700,note_on,1,0,0,,5,,,65,127
41799,note_off,99,0,0,,5,,,65,127
41800,note_on,1,0,0,,6,,,66,127
41899,note_off,99,0,0,,6,,,66,127
41899,note_off,0,0,0,,2,,,50,127
41900,note_on,1,0,0,,1,,,37,127
41900,note_on,0,0,0,,8,,,68,127
42000,note_on,100,0,0,,5,,,65,127
42025,note_off,25,0,0,,8,,,68,127
42100,note_on,75,0,0,,1,,,61,127
42125,note_off,25,0,0,,5,,,65,127
42200,note_on,75,0,0,,5,,,65,127
42225,note_off,25,0,0,,1,,,61,127
42299,note_off,74,0,0,,1,,,37,127
42300,note_on,1,0,0,,1,,,73,127
42300,note_on,0,0,0,,12,,,71,127
42325,note_off,25,0,0,,5,,,65,127
42400,note_on,75,0,0,,8,,,68,127
42425,note_off,25,0,0,,12,,,71,127
42500,note_on,75,0,0,,1,,,61,127
42525,note_off,25,0,0,,8,,,68,127
42600,note_on,75,0,0,,8,,,68,127
42625,note_off,25,0,0,,1,,,61,127
42699,note_off,74,0,0,,1,,,73,127
42700,note_on,1,0,0,,1,,,37,127
42700,note_on,0,0,0,,10,,,69,127
42725,note_off,25,0,0,,8,,,68,127
42800,note_on,75,0,0,,6,,,66,127
42825,note_off,25,0,0,,10,,,69,127
42900,note_on,75,0,0,,1,,,61,127
42925,note_off,25,0,0,,6,,,66,127
43000,note_on,75,0,0,,6,,,66,127
43025,note_off,25,0,0,,1,,,61,127
43099,note_off,74,0,0,,1,,,37,127
43100,note_on,1,0,0,,1,,,37,127
43100,note_on,0,0,0,,8,,,68,127
43125,note_off,25,0,0,,6,,,66,127
43200,note_on,75,0,0,,5,,,65,127
43225,note_off,25,0,0,,8,,,68,127
43300,note_on,75,0,0,,1,,,61,127
43325,note_off,25,0,0,,5,,,65,127
43400,note_on,75,0,0,,5,,,65,127
43425,note_off,25,0,0,,1,,,61,127
43499,note_off,74,0,0,,1,,,37,127
43500,note_on,1,0,0,,1,,,73,127
43500,note_on,0,0,0,,12,,,71,127
43525,note_off,25,0,0,,5,,,65,127
43600,note_on,75,0,0,,8,,,68,127
43625,note_off,25,0,0,,12,,,71,127
43700,note_on,75,0,0,,1,,,61,127
43725,note_off,25,0,0,,8,,,68,127
43800,note_on,75,0,0,,8,,,68,127
43825,note_off,25,0,0,,1,,,61,127
43899,note_off,74,0,0,,1,,,73,127
43900,note_on,1,0,0,,1,,,37,127
43900,note_on,0,0,0,,10,,,69,127
43925,note_off,25,0,0,,8,,,68,127
44000,note_on,75,0,0,,6,,,66,127
44025,note_off,25,0,0,,10,,,69,127
44100,note_on,75,0,0,,1,,,61,127
44125,note_off,25,0,0,,6,,,66,127
44200,note_on,75,0,0,,6,,,66,127
44225,note_off,25,0,0,,1,,,61,127
44299,note_off,74,0,0,,1,,,37,127
44300,note_on,1,0,0,,1,,,37,127
44300,note_on,0,0,0,,8,,,68,127
44325,note_off,25,0,0,,6,,,66,127
44400,note_on,75,0,0,,5,,,65,127
44425,note_off,25,0,0,,8,,,68,127
44500,note_on,75,0,0,,1,,,61,127
44525,note_off,25,0,0,,5,,,65,127
44600,note_on,75,0,0,,5,,,65,127
44625,note_off,25,0,0,,1,,,61,127
44699,note_off,74,0,0,,1,,,37,127
44700,note_on,1,0,0,,1,,,73,127
44700,note_on,0,0,0,,12,,,71,127
44725,note_off,25,0,0,,5,,,65,127
44800,note_on,75,0,0,,8,,,68,127
44825,note_off,25,0,0,,12,,,71,127
44900,note_on,75,0,0,,1,,,61,127
44925,note_off,25,0,0,,8,,,68,127
45000,note_on,75,0,0,,8,,,68,127
45025,note_off,25,0,0,,1,,,61,127
45099,note_off,74,0,0,,1,,,73,127
45100,note_on,1,0,0,,1,,,37,127
45100,note_on,0,0,0,,10,,,69,127
45125,note_off,25,0,0,,8,,,68,127
45200,note_on,75,0,0,,6,,,66,127
45225,note_off,25,0,0,,10,,,69,127
45300,note_on,75,0,0,,1,,,61,127
45325,note_off,25,0,0,,6,,,66,127
45400,note_on,75,0,0,,10,,,57,127
45425,note_off,25,0,0,,1,,,61,127
45499,note_off,74,0,0,,1,,,37,127
45500,note_on,1,0,0,,12,,,47,127
45500,note_on,0,0,0,,10,,,69,127
45525,note_off,25,0,0,,10,,,57,127
45600,note_on,75,0,0,,6,,,66,127
45625,note_off,25,0,0,,10,,,69,127
45700,note_on,75,0,0,,2,,,62,127
45725,note_off,25,0,0,,6,,,66,127
45800,note_on,75,0,0,,12,,,59,127
45825,note_off,25,0,0,,2,,,62,127
45899,note_off,74,0,0,,12,,,47,127
45900,note_on,1,0,0,,12,,,71,127
45900,note_on,0,0,0,,8,,,68,127
45925,note_off,25,0,0,,12,,,59,127
46000,note_on,75,0,0,,2,,,62,127
46025,note_off,25,0,0,,8,,,68,127
46100,note_on,75,0,0,,12,,,59,127
46125,note_off,25,0,0,,2,,,62,127
46200,note_on,75,0,0,,2,,,62,127
46225,note_off,25,0,0,,12,,,59,127
46299,note_off,74,0,0,,12,,,71,127
46300,note_on,1,0,0,,8,,,44,127
46300,note_on,0,0,0,,8,,,68,127
46325,note_off,25,0,0,,2,,,62,127
46400,note_on,75,0,0,,2,,,62,127
46425,note_off,25,0,0,,8,,,68,127
46500,note_on,75,0,0,,12,,,59,127
46525,note_off,25,0,0,,2,,,62,127
46600,note_on,75,0,0,,2,,,62,127
46625,note_off,25,0,0,,12,,,59,127
46699,note_off,74,0,0,,8,,,44,127
46700,note_on,1,0,0,,10,,,45,127
46700,note_on,0,0,0,,8,,,68,127
46725,note_off,25,0,0,,2,,,62,127
46800,note_on,75,0,0,,1,,,61,127
46825,note_off,25,0,0,,8,,,68,127
46900,note_on,75,0,0,,10,,,57,127
46925,note_off,25,0,0,,1,,,61,127
47000,note_on,75,0,0,,1,,,61,127
47025,note_off,25,0,0,,10,,,57,127
47099,note_off,74,0,0,,10,,,45,127
47100,note_on,1,0,0,,10,,,69,127
47100,note_on,0,0,0,,6,,,66,127
47125,note_off,25,0,0,,1,,,61,127
47200,note_on,75,0,0,,1,,,61,127
47225,note_off,25,0,0,,6,,,66,127
47300,note_on,75,0,0,,10,,,57,127
47325,note_off,25,0,0,,1,,,61,127
47400,note_on,75,0,0,,1,,,61,127
47425,note_off,25,0,0,,10,,,57,127
47499,note_off,74,0,0,,10,,,69,127
47500,note_on,1,0,0,,6,,,42,127
47500,note_on,0,0,0,,6,,,66,127
47525,note_off,25,0,0,,1,,,61,127
47600,note_on,75,0,0,,1,,,61,127
47625,note_off,25,0,0,,6,,,66,127
47700,note_on,75,0,0,,10,,,57,127
47725,note_off,25,0,0,,1,,,61,127
47800,note_on,75,0,0,,1,,,61,127
47825,note_off,25,0,0,,10,,,57,127
47899,note_off,74,0,0,,6,,,42,127
47900,note_on,1,0,0,,8,,,44,127
47900,note_on,0,0,0,,6,,,66,127
47925,note_off,25,0,0,,1,,,61,127
48000,note_on,75,0,0,,2,,,62,127
48025,note_off,25,0,0,,6,,,66,127
48100,note_on,75,0,0,,12,,,59,127
48125,note_off,25,0,0,,2,,,62,127
48200,note_on,75,0,0,,2,,,62,127
48225,note_off,25,0,0,,12,,,59,127
48299,note_off,74,0,0,,8,,,44,127
48300,note_on,1,0,0,,12,,,71,127
48300,note_on,0,0,0,,8,,,68,127
48325,note_off,25,0,0,,2,,,62,127
48400,note_on,75,0,0,,2,,,62,127
48425,note_off,25,0,0,,8,,,68,127
48500,note_on,75,0,0,,12,,,59,127
48525,note_off,25,0,0,,2,,,62,127
48600,note_on,75,0,0,,2,,,62,127
48625,note_off,25,0,0,,12,,,59,127
48699,note_off,74,0,0,,12,,,71,127
48700,note_on,1,0,0,,5,,,41,127
48700,note_on,0,0,0,,8,,,68,127
48725,note_off,25,0,0,,2,,,62,127
48800,note_on,75,0,0,,1,,,61,127
48825,note_off,25,0,0,,8,,,68,127
48900,note_on,75,0,0,,12,,,59,127
48925,note_off,25,0,0,,1,,,61,127
49000,note_on,75,0,0,,1,,,61,127
49025,note_off,25,0,0,,12,,,59,127
49099,note_off,74,0,0,,5,,,41,127
49100,note_on,1,0,0,,6,,,42,127
49100,note_on,0,0,0,,10,,,69,127
49125,note_off,25,0,0,,1,,,61,127
49200,note_on,75,0,0,,1,,,61,127
49225,note_off,25,0,0,,10,,,69,127
49300,note_on,75,0,0,,6,,,66,127
49325,note_off,25,0,0,,1,,,61,127
49400,note_on,75,0,0,,10,,,69,127
49425,note_off,25,0,0,,6,,,66,127
49499,note_off,74,0,0,,6,,,42,127
49500,note_on,1,0,0,,6,,,54,127
49500,note_on,0,0,0,,1,,,73,127
49525,note_off,25,0,0,,10,,,69,127
49600,note_on,75,0,0,,6,,,66,127
49625,note_off,25,0,0,,1,,,73,127
49700,note_on,75,0,0,,10,,,69,127
49725,note_off,25,0,0,,6,,,66,127
49800,note_on,75,0,0,,1,,,73,127
49825,note_off,25,0,0,,10,,,69,127
49899,note_off,74,0,0,,6,,,54,127
49900,note_on,1,0,0,,10,,,57,127
49900,note_on,0,0,0,,1,,,61,127
49900,note_on,0,0,0,,6,,,78,127
49925,note_off,25,0,0,,1,,,73,127
50000,note_on,75,0,0,,1,,,73,127
50025,note_off,25,0,0,,6,,,78,127
50100,note_on,75,0,0,,10,,,69,127
50125,note_off,25,0,0,,1,,,73,127
50200,note_on,75,0,0,,1,,,73,127
50225,note_off,25,0,0,,10,,,69,127
50299,note_off,74,0,0,,1,,,61,127
50299,note_off,0,0,0,,10,,,57,127
50300,note_on,1,0,0,,12,,,59,127
50300,note_on,0,0,0,,2,,,62,127
50300,note_on,0,0,0,,12,,,71,127
50325,note_off,25,0,0,,1,,,73,127
50400,note_on,75,0,0,,7,,,67,127
50425,note_off,25,0,0,,12,,,71,127
50500,note_on,75,0,0,,12,,,71,127
50525,note_off,25,0,0,,7,,,67,127
50600,note_on,75,0,0,,6,,,78,127
50625,note_off,25,0,0,,12,,,71,127
50699,note_off,74,0,0,,2,,,62,127
50699,note_off,0,0,0,,12,,,59,127
50700,note_on,1,0,0,,4,,,64,127
50700,note_on,0,0,0,,1,,,61,127
50700,note_on,0,0,0,,4,,,76,127
50725,note_off,25,0,0,,6,,,78,127
50800,note_on,75,0,0,,12,,,71,127
50825,note_off,25,0,0,,4,,,76,127
50900,note_on,75,0,0,,7,,,67,127
50925,note_off,25,0,0,,12,,,71,127
51000,note_on,75,0,0,,12,,,71,127
51025,note_off,25,0,0,,7,,,67,127
51099,note_off,74,0,0,,1,,,61,127
51099,note_off,0,0,0,,4,,,64,127
51100,note_on,1,0,0,,12,,,59,127
51100,note_on,0,0,0,,4,,,64,127
51100,note_on,0,0,0,,4,,,76,127
51125,note_off,25,0,0,,12,,,71,127
51200,note_on,75,0,0,,1,,,73,127
51225,note_off,25,0,0,,4,,,76,127
51300,note_on,75,0,0,,7,,,67,127
51325,note_off,25,0,0,,1,,,73,127
51400,note_on,75,0,0,,1,,,73,127
51425,note_off,25,0,0,,7,,,67,127
51499,note_off,74,0,0,,4,,,64,127
51499,note_off,0,0,0,,12,,,59,127
51500,note_on,1,0,0,,11,,,58,127
51500,note_on,0,0,0,,4,,,64,127
51500,note_on,0,0,0,,4,,,76,127
51525,note_off,25,0,0,,1,,,73,127
51600,note_on,75,0,0,,1,,,73,127
51625,note_off,25,0,0,,4,,,76,127
51700,note_on,75,0,0,,6,,,66,127
51725,note_off,25,0,0,,1,,,73,127
51800,note_on,75,0,0,,1,,,73,127
51825,note_off,25,0,0,,6,,,66,127
51899,note_off,74,0,0,,4,,,64,127
51899,note_off,0,0,0,,11,,,58,127
51900,note_on,1,0,0,,6,,,54,127
51900,note_on,0,0,0,,4,,,76,127
51925,note_off,25,0,0,,1,,,73,127
52000,note_on,75,0,0,,1,,,73,127
52025,note_off,25,0,0,,4,,,76,127
52100,note_on,75,0,0,,6,,,66,127
52125,note_off,25,0,0,,1,,,73,127
52200,note_on,75,0,0,,1,,,73,127
52225,note_off,25,0,0,,6,,,66,127
52299,note_off,74,0,0,,6,,,54,127
52300,note_on,1,0,0,,12,,,59,127
52300,note_on,0,0,0,,2,,,74,127
52325,note_off,25,0,0,,1,,,73,127
52400,note_on,75,0,0,,12,,,71,127
52425,note_off,25,0,0,,2,,,74,127
52500,note_on,75,0,0,,6,,,66,127
52525,note_off,25,0,0,,12,,,71,127
52600,note_on,75,0,0,,12,,,71,127
52625,note_off,25,0,0,,6,,,66,127
52699,note_off,74,0,0,,12,,,59,127
52700,note_on,1,0,0,,4,,,52,127
52700,note_on,0,0,0,,7,,,79,127
52725,note_off,25,0,0,,12,,,71,127
52799,note_off,74,0,0,,7,,,79,127
52800,note_on,1,0,0,,10,,,81,127
52899,note_off,99,0,0,,10,,,81,127
52900,note_on,1,0,0,,6,,,78,127
52999,note_off,99,0,0,,6,,,78,127
53000,note_on,1,0,0,,7,,,79,127
53099,note_off,99,0,0,,7,,,79,127
53100,note_on,1,0,0,,4,,,64,127
53100,note_on,0,0,0,,4,,,76,127
53199,note_off,99,0,0,,4,,,76,127
53200,note_on,1,0,0,,6,,,78,127
53299,note_off,99,0,0,,6,,,78,127
53300,note_on,1,0,0,,2,,,74,127
53399,note_off,99,0,0,,2,,,74,127
53400,note_on,1,0,0,,4,,,76,127
53499,note_off,99,0,0,,4,,,76,127
53499,note_off,0,0,0,,4,,,64,127
53499,note_off,0,0,0,,4,,,52,127
53500,note_on,1,0,0,,4,,,52,127
53500,note_on,0,0,0,,1,,,73,127
53599,note_off,99,0,0,,1,,,73,127
53600,note_on,1,0,0,,2,,,74,127
53699,note_off,99,0,0,,2,,,74,127
53700,note_on,1,0,0,,12,,,71,127
53799,note_off,99,0,0,,12,,,71,127
53800,note_on,1,0,0,,1,,,73,127
53899,note_off,99,0,0,,1,,,73,127
53899,note_off,0,0,0,,4,,,52,127
53900,note_on,1,0,0,,6,,,42,127
53900,note_on,0,0,0,,11,,,70,127
54000,note_on,100,0,0,,6,,,66,127
54025,note_off,25,0,0,,11,,,70,127
54100,note_on,75,0,0,,11,,,70,127
54125,note_off,25,0,0,,6,,,66,127
54200,note_on,75,0,0,,1,,,73,127
54225,note_off,25,0,0,,11,,,70,127
54299,note_off,74,0,0,,6,,,42,127
54300,note_on,1,0,0,,6,,,78,127
54300,note_on,0,0,0,,4,,,76,127
54325,note_off,25,0,0,,1,,,73,127
54400,note_on,75,0,0,,1,,,73,127
54425,note_off,25,0,0,,4,,,76,127
54500,note_on,75,0,0,,6,,,66,127
54525,note_off,25,0,0,,1,,,73,127
54600,note_on,75,0,0,,1,,,73,127
54625,note_off,25,0,0,,6,,,66,127
54699,note_off,74,0,0,,6,,,78,127
54700,note_on,1,0,0,,6,,,42,127
54700,note_on,0,0,0,,2,,,74,127
54725,note_off,25,0,0,,1,,,73,127
54800,note_on,75,0,0,,12,,,71,127
54825,note_off,25,0,0,,2,,,74,127
54900,note_on,75,0,0,,6,,,66,127
54925,note_off,25,0,0,,12,,,71,127
55000,note_on,75,0,0,,12,,,71,127
55025,note_off,25,0,0,,6,,,66,127
55099,note_off,74,0,0,,6,,,42,127
55100,note_on,1,0,0,,6,,,42,127
55100,note_on,0,0,0,,1,,,73,127
55125,note_off,25,0,0,,12,,,71,127
55200,note_on,75,0,0,,6,,,66,127
55225,note_off,25,0,0,,1,,,73,127
55300,note_on,75,0,0,,11,,,70,127
55325,note_off,25,0,0,,6,,,66,127
55400,note_on,75,0,0,,1,,,73,127
55425,note_off,25,0,0,,11,,,70,127
55499,note_off,74,0,0,,6,,,42,127
55500,note_on,1,0,0,,6,,,78,127
55500,note_on,0,0,0,,4,,,76,127
55525,note_off,25,0,0,,1,,,73,127
55600,note_on,75,0,0,,1,,,73,127
55625,note_off,25,0,0,,4,,,76,127
55700,note_on,75,0,0,,6,,,66,127
55725,note_off,25,0,0,,1,,,73,127
55800,note_on,75,0,0,,1,,,73,127
55825,note_off,25,0,0,,6,,,66,127
55899,note_off,74,0,0,,6,,,78,127
55900,note_on,1,0,0,,6,,,42,127
55900,note_on,0,0,0,,2,,,74,127
55925,note_off,25,0,0,,1,,,73,127
56000,note_on,75,0,0,,12,,,71,127
56025,note_off,25,0,0,,2,,,74,127
56100,note_on,75,0,0,,6,,,66,127
56125,note_off,25,0,0,,12,,,71,127
56200,note_on,75,0,0,,12,,,71,127
56225,note_off,25,0,0,,6,,,66,127
56299,note_off,74,0,0,,6,,,42,127
56300,note_on,1,0,0,,1,,,73,127
56300,note_on,0,0,0,,6,,,42,127
56325,note_off,25,0,0,,12,,,71,127
56400,note_on,75,0,0,,6,,,66,127
56425,note_off,25,0,0,,1,,,73,127
56500,note_on,75,0,0,,11,,,70,127
56525,note_off,25,0,0,,6,,,66,127
56600,note_on,75,0,0,,1,,,73,127
56625,note_off,25,0,0,,11,,,70,127
56699,note_off,74,0,0,,6,,,42,127
56700,note_on,1,0,0,,4,,,76,127
56700,note_on,0,0,0,,6,,,78,127
56725,note_off,25,0,0,,1,,,73,127
56800,note_on,75,0,0,,1,,,73,127
56825,note_off,25,0,0,,4,,,76,127
56900,note_on,75,0,0,,6,,,66,127
56925,note_off,25,0,0,,1,,,73,127
57000,note_on,75,0,0,,1,,,73,127
57025,note_off,25,0,0,,6,,,66,127
57099,note_off,74,0,0,,6,,,78,127
57100,note_on,1,0,0,,2,,,74,127
57100,note_on,0,0,0,,6,,,42,127
57125,note_off,25,0,0,,1,,,73,127
57200,note_on,75,0,0,,12,,,71,127
57225,note_off,25,0,0,,2,,,74,127
57300,note_on,75,0,0,,6,,,66,127
57325,note_off,25,0,0,,12,,,71,127
57400,note_on,75,0,0,,12,,,71,127
57425,note_off,25,0,0,,6,,,66,127
57499,note_off,74,0,0,,6,,,42,127
57500,note_on,1,0,0,,1,,,73,127
57500,note_on,0,0,0,,6,,,42,127
57525,note_off,25,0,0,,12,,,71,127
57600,note_on,75,0,0,,6,,,66,127
57625,note_off,25,0,0,,1,,,73,127
57700,note_on,75,0,0,,11,,,70,127
57725,note_off,25,0,0,,6,,,66,127
57800,note_on,75,0,0,,1,,,73,127
57825,note_off,25,0,0,,11,,,70,127
57899,note_off,74,0,0,,6,,,42,127
57900,note_on,1,0,0,,4,,,76,127
57900,note_on,0,0,0,,6,,,78,127
57925,note_off,25,0,0,,1,,,73,127
58000,note_on,75,0,0,,1,,,73,127
58025,note_off,25,0,0,,4,,,76,127
58100,note_on,75,0,0,,6,,,66,127
58125,note_off,25,0,0,,1,,,73,127
58200,note_on,75,0,0,,1,,,73,127
58225,note_off,25,0,0,,6,,,66,127
58299,note_off,74,0,0,,6,,,78,127
58300,note_on,1,0,0,,2,,,74,127
58300,note_on,0,0,0,,6,,,42,127
58325,note_off,25,0,0,,1,,,73,127
58400,note_on,75,0,0,,12,,,71,127
58425,note_off,25,0,0,,2,,,74,127
58500,note_on,75,0,0,,6,,,66,127
58525,note_off,25,0,0,,12,,,71,127
58600,note_on,75,0,0,,12,,,71,127
58625,note_off,25,0,0,,6,,,66,127
58699,note_off,74,0,0,,6,,,42,127
58700,note_on,1,0,0,,1,,,73,127
58700,note_on,0,0,0,,6,,,42,127
58725,note_off,25,0,0,,12,,,71,127
58800,note_on,75,0,0,,6,,,66,127
58825,note_off,25,0,0,,1,,,73,127
58900,note_on,75,0,0,,11,,,70,127
58925,note_off,25,0,0,,6,,,66,127
59000,note_on,75,0,0,,1,,,73,127
59025,note_off,25,0,0,,11,,,70,127
59099,note_off,74,0,0,,6,,,42,127
59100,note_on,1,0,0,,4,,,76,127
59100,note_on,0,0,0,,6,,,78,127
59125,note_off,25,0,0,,1,,,73,127
59200,note_on,75,0,0,,1,,,73,127
59225,note_off,25,0,0,,4,,,76,127
59300,note_on,75,0,0,,6,,,66,127
59325,note_off,25,0,0,,1,,,73,127
59400,note_on,75,0,0,,1,,,73,127
59425,note_off,25,0,0,,6,,,66,127
59499,note_off,74,0,0,,6,,,78,127
59500,note_on,1,0,0,,2,,,74,127
59500,note_on,0,0,0,,6,,,42,127
59525,note_off,25,0,0,,1,,,73,127
59600,note_on,75,0,0,,12,,,71,127
59625,note_off,25,0,0,,2,,,74,127
59700,note_on,75,0,0,,6,,,66,127
59725,note_off,25,0,0,,12,,,71,127
59800,note_on,75,0,0,,12,,,71,127
59825,note_off,25,0,0,,6,,,66,127
59899,note_off,74,0,0,,6,,,42,127
59900,note_on,1,0,0,,1,,,73,127
59900,note_on,0,0,0,,6,,,42,127
59925,note_off,25,0,0,,12,,,71,127
60000,note_on,75,0,0,,6,,,66,127
60025,note_off,25,0,0,,1,,,73,127
60100,note_on,75,0,0,,11,,,70,127
60125,note_off,25,0,0,,6,,,66,127
60200,note_on,75,0,0,,1,,,73,127
60225,note_off,25,0,0,,11,,,70,127
60299,note_off,74,0,0,,6,,,42,127
60300,note_on,1,0,0,,4,,,76,127
60300,note_on,0,0,0,,6,,,78,127
60325,note_off,25,0,0,,1,,,73,127
60400,note_on,75,0,0,,1,,,73,127
60425,note_off,25,0,0,,4,,,76,127
60500,note_on,75,0,0,,6,,,66,127
60525,note_off,25,0,0,,1,,,73,127
60600,note_on,75,0,0,,1,,,73,127
60625,note_off,25,0,0,,6,,,66,127
60699,note_off,74,0,0,,6,,,78,127
60700,note_on,1,0,0,,2,,,74,127
60700,note_on,0,0,0,,2,,,38,127
60725,note_off,25,0,0,,1,,,73,127
60800,note_on,75,0,0,,12,,,71,127
60825,note_off,25,0,0,,2,,,74,127
60900,note_on,75,0,0,,6,,,66,127
60925,note_off,25,0,0,,12,,,71,127
61000,note_on,75,0,0,,2,,,62,127
61025,note_off,25,0,0,,6,,,66,127
61099,note_off,74,0,0,,2,,,38,127
61100,note_on,1,0,0,,2,,,74,127
61100,note_on,0,0,0,,4,,,40,127
61125,note_off,25,0,0,,2,,,62,127
61200,note_on,75,0,0,,12,,,71,127
61225,note_off,25,0,0,,2,,,74,127
61300,note_on,75,0,0,,7,,,67,127
61325,note_off,25,0,0,,12,,,71,127
61400,note_on,75,0,0,,4,,,64,127
61425,note_off,25,0,0,,7,,,67,127
61499,note_off,74,0,0,,4,,,40,127
61500,note_on,1,0,0,,1,,,73,127
61500,note_on,0,0,0,,4,,,76,127
61525,note_off,25,0,0,,4,,,64,127
61600,note_on,75,0,0,,7,,,67,127
61625,note_off,25,0,0,,1,,,73,127
61700,note_on,75,0,0,,4,,,64,127
61725,note_off,25,0,0,,7,,,67,127
61800,note_on,75,0,0,,7,,,67,127
61825,note_off,25,0,0,,4,,,64,127
61899,note_off,74,0,0,,4,,,76,127
61900,note_on,1,0,0,,1,,,73,127
61900,note_on,0,0,0,,1,,,37,127
61925,note_off,25,0,0,,7,,,67,127
62000,note_on,75,0,0,,7,,,67,127
62025,note_off,25,0,0,,1,,,73,127
62100,note_on,75,0,0,,4,,,64,127
62125,note_off,25,0,0,,7,,,67,127
62200,note_on,75,0,0,,7,,,67,127
62225,note_off,25,0,0,,4,,,64,127
62299,note_off,74,0,0,,1,,,37,127
62300,note_on,1,0,0,,1,,,73,127
62300,note_on,0,0,0,,2,,,38,127
62325,note_off,25,0,0,,7,,,67,127
62400,note_on,75,0,0,,6,,,66,127
62425,note_off,25,0,0,,1,,,73,127
62500,note_on,75,0,0,,2,,,62,127
62525,note_off,25,0,0,,6,,,66,127
62600,note_on,75,0,0,,6,,,66,127
62625,note_off,25,0,0,,2,,,62,127
62699,note_off,74,0,0,,2,,,38,127
62700,note_on,1,0,0,,12,,,71,127
62700,note_on,0,0,0,,2,,,74,127
62725,note_off,25,0,0,,6,,,66,127
62800,note_on,75,0,0,,6,,,66,127
62825,note_off,25,0,0,,12,,,71,127
62900,note_on,75,0,0,,2,,,62,127
62925,note_off,25,0,0,,6,,,66,127
63000,note_on,75,0,0,,6,,,66,127
63025,note_off,25,0,0,,2,,,62,127
63099,note_off,74,0,0,,2,,,74,127
63100,note_on,1,0,0,,12,,,71,127
63100,note_on,0,0,0,,12,,,35,127
63125,note_off,25,0,0,,6,,,66,127
63200,note_on,75,0,0,,6,,,66,127
63225,note_off,25,0,0,,12,,,71,127
63300,note_on,75,0,0,,2,,,62,127
63325,note_off,25,0,0,,6,,,66,127
63400,note_on,75,0,0,,6,,,66,127
63425,note_off,25,0,0,,2,,,62,127
63499,note_off,74,0,0,,12,,,35,127
63500,note_on,1,0,0,,12,,,71,127
63500,note_on,0,0,0,,1,,,37,127
63525,note_off,25,0,0,,6,,,66,127
63600,note_on,75,0,0,,7,,,67,127
63625,note_off,25,0,0,,12,,,71,127
63700,note_on,75,0,0,,4,,,64,127
63725,note_off,25,0,0,,7,,,67,127
63800,note_on,75,0,0,,7,,,67,127
63825,note_off,25,0,0,,4,,,64,127
63899,note_off,74,0,0,,1,,,37,127
63900,note_on,1,0,0,,1,,,73,127
63900,note_on,0,0,0,,4,,,76,127
63925,note_off,25,0,0,,7,,,67,127
64000,note_on,75,0,0,,7,,,67,127
64025,note_off,25,0,0,,1,,,73,127
64100,note_on,75,0,0,,4,,,64,127
64125,note_off,25,0,0,,7,,,67,127
64200,note_on,75,0,0,,7,,,67,127
64225,note_off,25,0,0,,4,,,64,127
64299,note_off,74,0,0,,4,,,76,127
64300,note_on,1,0,0,,1,,,73,127
64300,note_on,0,0,0,,11,,,34,127
64325,note_off,25,0,0,,7,,,67,127
64400,note_on,75,0,0,,6,,,66,127
64425,note_off,25,0,0,,1,,,73,127
64500,note_on,75,0,0,,4,,,64,127
64525,note_off,25,0,0,,6,,,66,127
64600,note_on,75,0,0,,6,,,66,127
64625,note_off,25,0,0,,4,,,64,127
64699,note_off,74,0,0,,11,,,34,127
64700,note_on,1,0,0,,2,,,74,127
64700,note_on,0,0,0,,12,,,35,127
64725,note_off,25,0,0,,6,,,66,127
64800,note_on,75,0,0,,12,,,71,127
64825,note_off,25,0,0,,2,,,74,127
64900,note_on,75,0,0,,6,,,66,127
64925,note_off,25,0,0,,12,,,71,127
65000,note_on,75,0,0,,12,,,71,127
65025,note_off,25,0,0,,6,,,66,127
65099,note_off,74,0,0,,12,,,35,127
65100,note_on,1,0,0,,6,,,78,127
65100,note_on,0,0,0,,12,,,47,127
65125,note_off,25,0,0,,12,,,71,127
65200,note_on,75,0,0,,2,,,74,127
65225,note_off,25,0,0,,6,,,78,127
65300,note_on,75,0,0,,12,,,71,127
65325,note_off,25,0,0,,2,,,74,127
65400,note_on,75,0,0,,2,,,74,127
65425,note_off,25,0,0,,12,,,71,127
65499,note_off,74,0,0,,12,,,47,127
65500,note_on,1,0,0,,12,,,83,127
65500,note_on,0,0,0,,2,,,50,127
65525,note_off,25,0,0,,2,,,74,127
65600,note_on,75,0,0,,6,,,78,127
65625,note_off,25,0,0,,12,,,83,127
65700,note_on,75,0,0,,2,,,74,127
65725,note_off,25,0,0,,6,,,78,127
65800,note_on,75,0,0,,12,,,71,127
65825,note_off,25,0,0,,2,,,74,127
65899,note_off,74,0,0,,2,,,50,127
65900,note_on,1,0,0,,7,,,79,127
65900,note_on,0,0,0,,4,,,52,127
65925,note_off,25,0,0,,12,,,71,127
65999,note_off,74,0,0,,7,,,79,127
66000,note_on,1,0,0,,4,,,76,127
66099,note_off,99,0,0,,4,,,76,127
66100,note_on,1,0,0,,2,,,74,127
66199,note_off,99,0,0,,2,,,74,127
66200,note_on,1,0,0,,1,,,73,127
66299,note_off,99,0,0,,1,,,73,127
66299,note_off,0,0,0,,4,,,52,127
66300,note_on,1,0,0,,2,,,74,127
66300,note_on,0,0,0,,6,,,54,127
66399,note_off,99,0,0,,2,,,74,127
66400,note_on,1,0,0,,4,,,76,127
66499,note_off,99,0,0,,4,,,76,127
66500,note_on,1,0,0,,6,,,78,127
66599,note_off,99,0,0,,6,,,78,127
66600,note_on,1,0,0,,4,,,76,127
66699,note_off,99,0,0,,4,,,76,127
66700,note_on,1,0,0,,2,,,74,127
66700,note_on,0,0,0,,6,,,42,127
66799,note_off,99,0,0,,2,,,74,127
66800,note_on,1,0,0,,1,,,73,127
66899,note_off,99,0,0,,1,,,73,127
66900,note_on,1,0,0,,12,,,71,127
66999,note_off,99,0,0,,12,,,71,127
67000,note_on,1,0,0,,11,,,70,127
67099,note_off,99,0,0,,11,,,70,127
67099,note_off,0,0,0,,6,,,42,127
67099,note_off,0,0,0,,6,,,54,127
67100,note_on,1,0,0,,12,,,83,127
67100,note_on,0,0,0,,7,,,67,127
67200,note_on,100,0,0,,6,,,78,127
67299,note_off,99,0,0,,6,,,78,127
67300,note_on,1,0,0,,4,,,76,127
67399,note_off,99,0,0,,4,,,76,127
67400,note_on,1,0,0,,2,,,74,127
67499,note_off,99,0,0,,2,,,74,127
67499,note_off,0,0,0,,7,,,67,127
67499,note_off,0,0,0,,12,,,83,127
67500,note_on,1,0,0,,4,,,76,127
67500,note_on,0,0,0,,1,,,73,127
67599,note_off,99,0,0,,4,,,76,127
67600,note_on,1,0,0,,12,,,83,127
67699,note_off,99,0,0,,12,,,83,127
67700,note_on,1,0,0,,10,,,81,127
67799,note_off,99,0,0,,10,,,81,127
67800,note_on,1,0,0,,7,,,79,127
67899,note_off,99,0,0,,7,,,79,127
67899,note_off,0,0,0,,1,,,73,127
67900,note_on,1,0,0,,10,,,81,127
67900,note_on,0,0,0,,6,,,66,127
68000,note_on,100,0,0,,4,,,76,127
68099,note_off,99,0,0,,4,,,76,127
68100,note_on,1,0,0,,2,,,74,127
68199,note_off,99,0,0,,2,,,74,127
68200,note_on,1,0,0,,1,,,73,127
68299,note_off,99,0,0,,1,,,73,127
68299,note_off,0,0,0,,6,,,66,127
68299,note_off,0,0,0,,10,,,81,127
68300,note_on,1,0,0,,2,,,74,127
68300,note_on,0,0,0,,12,,,71,127
68399,note_off,99,0,0,,2,,,74,127
68400,note_on,1,0,0,,10,,,81,127
68499,note_off,99,0,0,,10,,,81,127
68500,note_on,1,0,0,,7,,,79,127
68599,note_off,99,0,0,,7,,,79,127
68600,note_on,1,0,0,,6,,,78,127
68699,note_off,99,0,0,,6,,,78,127
68699,note_off,0,0,0,,12,,,71,127
68700,note_on,1,0,0,,7,,,79,127
68700,note_on,0,0,0,,4,,,64,127
68800,note_on,100,0,0,,2,,,74,127
68899,note_off,99,0,0,,2,,,74,127
68900,note_on,1,0,0,,1,,,73,127
68999,note_off,99,0,0,,1,,,73,127
69000,note_on,1,0,0,,12,,,71,127
69099,note_off,99,0,0,,12,,,71,127
69099,note_off,0,0,0,,4,,,64,127
69099,note_off,0,0,0,,7,,,79,127
69100,note_on,1,0,0,,1,,,73,127
69100,note_on,0,0,0,,10,,,69,127
69199,note_off,99,0,0,,1,,,73,127
69200,note_on,1,0,0,,7,,,79,127
69299,note_off,99,0,0,,7,,,79,127
69300,note_on,1,0,0,,6,,,78,127
69399,note_off,99,0,0,,6,,,78,127
69400,note_on,1,0,0,,4,,,76,127
69499,note_off,99,0,0,,4,,,76,127
69499,note_off,0,0,0,,10,,,69,127
69500,note_on,1,0,0,,6,,,78,127
69500,note_on,0,0,0,,2,,,62,127
69600,note_on,100,0,0,,1,,,73,127
69699,note_off,99,0,0,,1,,,73,127
69700,note_on,1,0,0,,12,,,71,127
69799,note_off,99,0,0,,12,,,71,127
69800,note_on,1,0,0,,11,,,70,127
69899,note_off,99,0,0,,11,,,70,127
69899,note_off,0,0,0,,2,,,62,127
69899,note_off,0,0,0,,6,,,78,127
69900,note_on,1,0,0,,12,,,71,127
69900,note_on,0,0,0,,7,,,67,127
69999,note_off,99,0,0,,12,,,71,127
70000,note_on,1,0,0,,6,,,78,127
70099,note_off,99,0,0,,6,,,78,127
70100,note_on,1,0,0,,4,,,76,127
70199,note_off,99,0,0,,4,,,76,127
70200,note_on,1,0,0,,2,,,74,127
70299,note_off,99,0,0,,2,,,74,127
70299,note_off,0,0,0,,7,,,67,127
70300,note_on,1,0,0,,4,,,76,127
70300,note_on,0,0,0,,1,,,61,127
70400,note_on,100,0,0,,1,,,73,127
70499,note_off,99,0,0,,1,,,73,127
70499,note_off,0,0,0,,4,,,76,127
70500,note_on,1,0,0,,12,,,71,127
70500,note_on,0,0,0,,2,,,74,127
70599,note_off,99,0,0,,2,,,74,127
70599,note_off,0,0,0,,12,,,71,127
70600,note_on,1,0,0,,11,,,70,127
70600,note_on,0,0,0,,1,,,73,127
70699,note_off,99,0,0,,1,,,73,127
70699,note_off,0,0,0,,11,,,70,127
70699,note_off,0,0,0,,1,,,61,127
70700,note_on,1,0,0,,2,,,74,127
70800,note_on,100,0,0,,12,,,59,127
70899,note_off,99,0,0,,12,,,59,127
70899,note_off,0,0,0,,2,,,74,127
70900,note_on,1,0,0,,6,,,66,127
70900,note_on,0,0,0,,1,,,61,127
70999,note_off,99,0,0,,1,,,61,127
71000,note_on,1,0,0,,2,,,62,127
71099,note_off,99,0,0,,2,,,62,127
71099,note_off,0,0,0,,6,,,66,127
71100,note_on,1,0,0,,8,,,68,127
71100,note_on,0,0,0,,4,,,64,127
71199,note_off,99,0,0,,4,,,64,127
71200,note_on,1,0,0,,1,,,61,127
71299,note_off,99,0,0,,1,,,61,127
71299,note_off,0,0,0,,8,,,68,127
71300,note_on,1,0,0,,11,,,70,127
71300,note_on,0,0,0,,6,,,66,127
71399,note_off,99,0,0,,6,,,66,127
71400,note_on,1,0,0,,2,,,62,127
71499,note_off,99,0,0,,2,,,62,127
71499,note_off,0,0,0,,11,,,70,127
71500,note_on,1,0,0,,12,,,71,127
71500,note_on,0,0,0,,8,,,68,127
71599,note_off,99,0,0,,8,,,68,127
71600,note_on,1,0,0,,4,,,64,127
71699,note_off,99,0,0,,4,,,64,127
71699,note_off,0,0,0,,12,,,71,127
71700,note_on,1,0,0,,1,,,73,127
71700,note_on,0,0,0,,11,,,70,127
71799,note_off,99,0,0,,11,,,70,127
71800,note_on,1,0,0,,6,,,66,127
71899,note_off,99,0,0,,6,,,66,127
71899,note_off,0,0,0,,1,,,73,127
71900,note_on,1,0,0,,2,,,74,127
71900,note_on,0,0,0,,12,,,71,127
71999,note_off,99,0,0,,12,,,71,127
71999,note_off,0,0,0,,2,,,74,127
72000,note_on,1,0,0,,12,,,71,127
72099,note_off,99,0,0,,12,,,71,127
72100,note_on,1,0,0,,1,,,73,127
72100,note_on,0,0,0,,10,,,69,127
72199,note_off,99,0,0,,1,,,73,127
72200,note_on,1,0,0,,2,,,74,127
72299,note_off,99,0,0,,2,,,74,127
72299,note_off,0,0,0,,10,,,69,127
72300,note_on,1,0,0,,4,,,76,127
72300,note_on,0,0,0,,7,,,67,127
72399,note_off,99,0,0,,4,,,76,127
72400,note_on,1,0,0,,1,,,73,127
72499,note_off,99,0,0,,1,,,73,127
72499,note_off,0,0,0,,7,,,67,127
72500,note_on,1,0,0,,6,,,78,127
72500,note_on,0,0,0,,6,,,66,127
72599,note_off,99,0,0,,6,,,78,127
72600,note_on,1,0,0,,2,,,74,127
72699,note_off,99,0,0,,2,,,74,127
72699,note_off,0,0,0,,6,,,66,127
72700,note_on,1,0,0,,7,,,79,127
72700,note_on,0,0,0,,4,,,64,127
72799,note_off,99,0,0,,7,,,79,127
72800,note_on,1,0,0,,4,,,76,127
72899,note_off,99,0,0,,4,,,76,127
72900,note_on,1,0,0,,11,,,82,127
72999,note_off,99,0,0,,11,,,82,127
73000,note_on,1,0,0,,6,,,78,127
73099,note_off,99,0,0,,6,,,78,127
73099,note_off,0,0,0,,4,,,64,127
73100,note_on,1,0,0,,12,,,83,127
73100,note_on,0,0,0,,2,,,62,127
73199,note_off,99,0,0,,12,,,83,127
73200,note_on,1,0,0,,4,,,76,127
73299,note_off,99,0,0,,4,,,76,127
73299,note_off,0,0,0,,2,,,62,127
73300,note_on,1,0,0,,2,,,74,127
73300,note_on,0,0,0,,4,,,64,127
73399,note_off,99,0,0,,2,,,74,127
73400,note_on,1,0,0,,1,,,73,127
73499,note_off,99,0,0,,1,,,73,127
73499,note_off,0,0,0,,4,,,64,127
73500,note_on,1,0,0,,2,,,74,127
73500,note_on,0,0,0,,6,,,66,127
73599,note_off,99,0,0,,2,,,74,127
73600,note_on,1,0,0,,4,,,76,127
73699,note_off,99,0,0,,4,,,76,127
73700,note_on,1,0,0,,6,,,78,127
73799,note_off,99,0,0,,6,,,78,127
73800,note_on,1,0,0,,4,,,76,127
73899,note_off,99,0,0,,4,,,76,127
73899,note_off,0,0,0,,6,,,66,127
73900,note_on,1,0,0,,2,,,74,127
73900,note_on,0,0,0,,6,,,54,127
73999,note_off,99,0,0,,2,,,74,127
74000,note_on,1,0,0,,1,,,73,127
74099,note_off,99,0,0,,1,,,73,127
74100,note_on,1,0,0,,12,,,71,127
74199,note_off,99,0,0,,12,,,71,127
74200,note_on,1,0,0,,11,,,70,127
74299,note_off,99,0,0,,11,,,70,127
74299,note_off,0,0,0,,6,,,54,127
74300,note_on,1,0,0,,12,,,71,127
74300,note_on,0,0,0,,12,,,47,127
74399,note_off,99,0,0,,12,,,71,127
74400,note_on,1,0,0,,6,,,78,127
74499,note_off,99,0,0,,6,,,78,127
74500,note_on,1,0,0,,4,,,76,127
74599,note_off,99,0,0,,4,,,76,127
74600,note_on,1,0,0,,2,,,74,127
74698,note_off,98,0,0,,2,,,74,127
74699,note_off,1,0,0,,12,,,47,127
74700,note_on,1,0,0,,2,,,74,127
74798,note_off,98,0,0,,2,,,74,127
74800,note_on,2,0,0,,2,,,74,127
74899,note_off,99,0,0,,2,,,74,127
74900,note_on,1,0,0,,1,,,73,127
74999,note_off,99,0,0,,1,,,73,127
75000,note_on,1,0,0,,12,,,71,127
75098,note_off,98,0,0,,12,,,71,127
75100,note_on,2,0,0,,12,,,71,127
75198,note_off,98,0,0,,12,,,71,127
75200,note_on,2,0,0,,12,,,71,127
75299,note_off,99,0,0,,12,,,71,127
75300,note_on,1,0,0,,10,,,69,127
75399,note_off,99,0,0,,10,,,69,127
75400,note_on,1,0,0,,7,,,67,127
75499,note_off,99,0,0,,7,,,67,127
75500,note_on,1,0,0,,6,,,66,127
75598,note_off,98,0,0,,6,,,66,127
75600,note_on,2,0,0,,6,,,66,127
75699,note_off,99,0,0,,6,,,66,127
75700,note_on,1,0,0,,4,,,64,127
75799,note_off,99,0,0,,4,,,64,127
75800,note_on,1,0,0,,2,,,62,127
75898,note_off,98,0,0,,2,,,62,127
75900,note_on,2,0,0,,2,,,62,127
75998,note_off,98,0,0,,2,,,62,127
76000,note_on,2,0,0,,2,,,62,127
76099,note_off,99,0,0,,2,,,62,127
76100,note_on,1,0,0,,1,,,61,127
76199,note_off,99,0,0,,1,,,61,127
76200,note_on,1,0,0,,12,,,59,127
76298,note_off,98,0,0,,12,,,59,127
76300,note_on,2,0,0,,12,,,59,127
76398,note_off,98,0,0,,12,,,59,127
76400,note_on,2,0,0,,12,,,59,127
76499,note_off,99,0,0,,12,,,59,127
76500,note_on,1,0,0,,10,,,57,127
76599,note_off,99,0,0,,10,,,57,127
76600,note_on,1,0,0,,7,,,55,127
76699,note_off,99,0,0,,7,,,55,127
76700,note_on,1,0,0,,6,,,54,127
76798,note_off,98,0,0,,6,,,54,127
76800,note_on,2,0,0,,6,,,54,127
76899,note_off,99,0,0,,6,,,54,127
76900,note_on,1,0,0,,4,,,52,127
76999,note_off,99,0,0,,4,,,52,127
77000,note_on,1,0,0,,2,,,50,127
77098,note_off,98,0,0,,2,,,50,127
77100,note_on,2,0,0,,2,,,50,127
77198,note_off,98,0,0,,2,,,50,127
77200,note_on,2,0,0,,2,,,50,127
77299,note_off,99,0,0,,2,,,50,127
77300,note_on,1,0,0,,1,,,49,127
77399,note_off,99,0,0,,1,,,49,127
77400,note_on,1,0,0,,12,,,47,127
77498,note_off,98,0,0,,12,,,47,127
77500,note_on,2,0,0,,12,,,47,127
77599,note_off,99,0,0,,12,,,47,127
77600,note_on,1,0,0,,2,,,38,127
77699,note_off,99,0,0,,2,,,38,127
77700,note_on,1,0,0,,4,,,40,127
77799,note_off,99,0,0,,4,,,40,127
77800,note_on,1,0,0,,6,,,42,127
77899,note_off,99,0,0,,6,,,42,127
77900,note_on,1,0,0,,12,,,35,127
79100,note_off,1200,0,0,,12,,,35,127
84480,end_of_track,5380,1,0,,,,,,
