tick,type,time,meta,track,program,channel,pitch,tempo,note,velocity
0,copyright,0,1,0,,,,,,
0,program_change,0,0,0,6,0,,,,
0,pitchwheel,0,0,0,,0,0,,,
0,program_change,0,0,0,6,1,,,,
0,pitchwheel,0,0,0,,1,-590,,,
0,program_change,0,0,0,6,2,,,,
0,pitchwheel,0,0,0,,2,-272,,,
0,program_change,0,0,0,6,3,,,,
0,pitchwheel,0,0,0,,3,-353,,,
0,program_change,0,0,0,6,4,,,,
0,pitchwheel,0,0,0,,4,-560,,,
0,program_change,0,0,0,6,5,,,,
0,pitchwheel,0,0,0,,5,-80,,,
0,program_change,0,0,0,6,6,,,,
0,pitchwheel,0,0,0,,6,-625,,,
0,program_change,0,0,0,6,7,,,,
0,pitchwheel,0,0,0,,7,-130,,,
0,program_change,0,0,0,6,8,,,,
0,pitchwheel,0,0,0,,8,-512,,,
0,program_change,0,0,0,6,10,,,,
0,pitchwheel,0,0,0,,10,-464,,,
0,program_change,0,0,0,6,11,,,,
0,pitchwheel,0,0,0,,11,-208,,,
0,program_change,0,0,0,6,12,,,,
0,pitchwheel,0,0,0,,12,-553,,,
0,set_tempo,0,1,0,,,,500000,,
113,note_on,113,0,0,,4,,,52,127
113,note_on,0,0,0,,4,,,76,127
339,note_on,226,0,0,,12,,,47,127
559,note_off,220,0,0,,12,,,47,127
565,note_on,6,0,0,,4,,,40,127
785,note_off,220,0,0,,4,,,40,127
786,note_off,1,0,0,,4,,,76,127
790,note_off,4,0,0,,4,,,52,127
791,note_on,1,0,0,,8,,,80,127
898,note_off,107,0,0,,8,,,80,127
904,note_on,6,0,0,,6,,,78,127
1011,note_off,107,0,0,,6,,,78,127
1017,note_on,6,0,0,,3,,,75,127
1124,note_off,107,0,0,,3,,,75,127
1130,note_on,6,0,0,,4,,,76,127
1237,note_off,107,0,0,,4,,,76,127
1243,note_on,6,0,0,,12,,,71,127
1350,note_off,107,0,0,,12,,,71,127
1356,note_on,6,0,0,,1,,,73,127
1463,note_off,107,0,0,,1,,,73,127
1469,note_on,6,0,0,,8,,,68,127
1576,note_off,107,0,0,,8,,,68,127
1582,note_on,6,0,0,,10,,,69,127
1689,note_off,107,0,0,,10,,,69,127
1695,note_on,6,0,0,,6,,,66,127
1802,note_off,107,0,0,,6,,,66,127
1808,note_on,6,0,0,,8,,,68,127
1915,note_off,107,0,0,,8,,,68,127
1921,note_on,6,0,0,,3,,,63,127
2028,note_off,107,0,0,,3,,,63,127
2034,note_on,6,0,0,,4,,,64,127
2141,note_off,107,0,0,,4,,,64,127
2147,note_on,6,0,0,,12,,,59,127
2254,note_off,107,0,0,,12,,,59,127
2260,note_on,6,0,0,,1,,,73,127
2367,note_off,107,0,0,,1,,,73,127
2373,note_on,6,0,0,,12,,,71,127
2480,note_off,107,0,0,,12,,,71,127
2486,note_on,6,0,0,,10,,,69,127
2593,note_off,107,0,0,,10,,,69,127
2599,note_on,6,0,0,,8,,,68,127
2706,note_off,107,0,0,,8,,,68,127
2712,note_on,6,0,0,,6,,,66,127
2819,note_off,107,0,0,,6,,,66,127
2825,note_on,6,0,0,,4,,,64,127
2825,note_on,0,0,0,,8,,,68,127
2931,note_off,106,0,0,,4,,,64,127
2932,note_off,1,0,0,,8,,,68,127
2938,note_on,6,0,0,,4,,,64,127
3051,note_on,113,0,0,,8,,,68,127
3158,note_off,107,0,0,,8,,,68,127
3164,note_on,6,0,0,,12,,,71,127
3271,note_off,107,0,0,,12,,,71,127
3277,note_on,6,0,0,,4,,,76,127
3384,note_off,107,0,0,,4,,,76,127
3390,note_on,6,0,0,,12,,,71,127
3497,note_off,107,0,0,,12,,,71,127
3503,note_off,6,0,0,,4,,,64,127
3503,note_on,0,0,0,,8,,,68,127
3503,note_on,0,0,0,,4,,,76,127
3610,note_off,107,0,0,,8,,,68,127
3616,note_on,6,0,0,,6,,,66,127
3723,note_off,107,0,0,,6,,,66,127
3723,note_off,0,0,0,,4,,,76,127
3729,note_on,6,0,0,,3,,,63,127
3729,note_on,0,0,0,,6,,,78,127
3836,note_off,107,0,0,,3,,,63,127
3842,note_on,6,0,0,,4,,,64,127
3949,note_off,107,0,0,,4,,,64,127
3949,note_off,0,0,0,,6,,,78,127
3955,note_on,6,0,0,,12,,,59,127
3955,note_on,0,0,0,,8,,,80,127
4062,note_off,107,0,0,,12,,,59,127
4068,note_on,6,0,0,,1,,,61,127
4175,note_off,107,0,0,,1,,,61,127
4181,note_on,6,0,0,,8,,,56,127
4288,note_off,107,0,0,,8,,,56,127
4294,note_on,6,0,0,,10,,,57,127
4401,note_off,107,0,0,,10,,,57,127
4402,note_off,1,0,0,,8,,,80,127
4407,note_on,5,0,0,,6,,,54,127
4407,note_on,0,0,0,,10,,,81,127
4514,note_off,107,0,0,,6,,,54,127
4520,note_on,6,0,0,,8,,,56,127
4627,note_off,107,0,0,,8,,,56,127
4627,note_off,0,0,0,,10,,,81,127
4633,note_on,6,0,0,,3,,,51,127
4633,note_on,0,0,0,,12,,,83,127
4740,note_off,107,0,0,,3,,,51,127
4746,note_on,6,0,0,,4,,,52,127
4853,note_off,107,0,0,,4,,,52,127
4859,note_on,6,0,0,,12,,,47,127
4966,note_off,107,0,0,,12,,,47,127
4972,note_on,6,0,0,,1,,,61,127
5079,note_off,107,0,0,,1,,,61,127
5080,note_off,1,0,0,,12,,,83,127
5085,note_on,5,0,0,,12,,,59,127
5085,note_on,0,0,0,,3,,,75,127
5192,note_off,107,0,0,,12,,,59,127
5198,note_on,6,0,0,,10,,,57,127
5305,note_off,107,0,0,,10,,,57,127
5311,note_on,6,0,0,,8,,,56,127
5418,note_off,107,0,0,,8,,,56,127
5424,note_on,6,0,0,,6,,,54,127
5531,note_off,107,0,0,,6,,,54,127
5532,note_off,1,0,0,,3,,,75,127
5537,note_on,5,0,0,,4,,,52,127
5537,note_on,0,0,0,,4,,,76,127
5650,note_on,113,0,0,,1,,,73,127
5757,note_off,107,0,0,,1,,,73,127
5757,note_off,0,0,0,,4,,,52,127
5763,note_on,6,0,0,,12,,,71,127
5763,note_on,0,0,0,,8,,,56,127
5870,note_off,107,0,0,,12,,,71,127
5876,note_on,6,0,0,,10,,,69,127
5983,note_off,107,0,0,,10,,,69,127
5983,note_off,0,0,0,,8,,,56,127
5983,note_off,0,0,0,,4,,,76,127
5989,note_on,6,0,0,,8,,,68,127
5989,note_on,0,0,0,,3,,,75,127
5989,note_on,0,0,0,,12,,,59,127
6096,note_off,107,0,0,,8,,,68,127
6102,note_on,6,0,0,,6,,,66,127
6209,note_off,107,0,0,,6,,,66,127
6209,note_off,0,0,0,,12,,,59,127
6209,note_off,0,0,0,,3,,,75,127
6215,note_on,6,0,0,,4,,,52,127
6215,note_on,0,0,0,,8,,,68,127
6215,note_on,0,0,0,,4,,,76,127
6286,note_off,71,0,0,,4,,,52,127
6291,note_on,5,0,0,,8,,,56,127
6362,note_off,71,0,0,,8,,,56,127
6367,note_on,5,0,0,,12,,,59,127
6436,note_off,69,0,0,,4,,,76,127
6436,note_off,0,0,0,,8,,,68,127
6437,note_off,1,0,0,,12,,,59,127
6442,note_on,5,0,0,,4,,,64,127
6442,note_on,0,0,0,,12,,,71,127
6662,note_off,220,0,0,,4,,,64,127
6668,note_on,6,0,0,,12,,,83,127
6888,note_off,220,0,0,,12,,,83,127
6894,note_on,6,0,0,,12,,,47,127
7002,note_off,108,0,0,,12,,,71,127
7007,note_on,5,0,0,,1,,,73,127
7120,note_on,113,0,0,,12,,,71,127
7121,note_off,1,0,0,,1,,,73,127
7227,note_off,106,0,0,,12,,,71,127
7233,note_on,6,0,0,,10,,,69,127
7340,note_off,107,0,0,,10,,,69,127
7346,note_on,6,0,0,,3,,,75,127
7346,note_on,0,0,0,,8,,,68,127
7453,note_off,107,0,0,,8,,,68,127
7459,note_on,6,0,0,,6,,,66,127
7566,note_off,107,0,0,,6,,,66,127
7566,note_off,0,0,0,,3,,,75,127
7567,note_off,1,0,0,,12,,,47,127
7572,note_on,5,0,0,,4,,,52,127
7572,note_on,0,0,0,,4,,,76,127
7572,note_on,0,0,0,,8,,,68,127
7643,note_off,71,0,0,,4,,,52,127
7648,note_on,5,0,0,,8,,,56,127
7719,note_off,71,0,0,,8,,,56,127
7724,note_on,5,0,0,,12,,,59,127
7793,note_off,69,0,0,,8,,,68,127
7793,note_off,0,0,0,,4,,,76,127
7794,note_off,1,0,0,,12,,,59,127
7799,note_on,5,0,0,,4,,,64,127
7799,note_on,0,0,0,,12,,,71,127
8019,note_off,220,0,0,,4,,,64,127
8025,note_on,6,0,0,,12,,,83,127
8245,note_off,220,0,0,,12,,,83,127
8251,note_on,6,0,0,,12,,,47,127
8359,note_off,108,0,0,,12,,,71,127
8364,note_on,5,0,0,,1,,,73,127
8471,note_off,107,0,0,,1,,,73,127
8477,note_on,6,0,0,,12,,,71,127
8584,note_off,107,0,0,,12,,,71,127
8590,note_on,6,0,0,,10,,,69,127
8697,note_off,107,0,0,,10,,,69,127
8703,note_on,6,0,0,,8,,,68,127
8703,note_on,0,0,0,,3,,,75,127
8810,note_off,107,0,0,,8,,,68,127
8816,note_on,6,0,0,,6,,,66,127
8923,note_off,107,0,0,,6,,,66,127
8923,note_off,0,0,0,,3,,,75,127
8924,note_off,1,0,0,,12,,,47,127
8929,note_on,5,0,0,,4,,,52,127
8929,note_on,0,0,0,,8,,,68,127
8929,note_on,0,0,0,,4,,,76,127
9000,note_off,71,0,0,,4,,,52,127
9005,note_on,5,0,0,,8,,,56,127
9076,note_off,71,0,0,,8,,,56,127
9081,note_on,5,0,0,,12,,,59,127
9150,note_off,69,0,0,,8,,,68,127
9151,note_off,1,0,0,,12,,,59,127
9156,note_on,5,0,0,,4,,,64,127
9156,note_on,0,0,0,,12,,,71,127
9376,note_off,220,0,0,,4,,,64,127
9382,note_on,6,0,0,,12,,,83,127
9602,note_off,220,0,0,,12,,,83,127
9608,note_on,6,0,0,,6,,,42,127
9714,note_off,106,0,0,,4,,,76,127
9716,note_off,2,0,0,,12,,,71,127
9721,note_on,5,0,0,,4,,,76,127
9828,note_off,107,0,0,,4,,,76,127
9834,note_on,6,0,0,,6,,,66,127
9947,note_on,113,0,0,,4,,,76,127
10054,note_off,107,0,0,,4,,,76,127
10060,note_on,6,0,0,,3,,,75,127
10167,note_off,107,0,0,,3,,,75,127
10173,note_on,6,0,0,,1,,,73,127
10280,note_off,107,0,0,,1,,,73,127
10280,note_off,0,0,0,,6,,,66,127
10281,note_off,1,0,0,,6,,,42,127
10286,note_on,5,0,0,,12,,,47,127
10286,note_on,0,0,0,,3,,,75,127
10286,note_on,0,0,0,,6,,,66,127
10357,note_off,71,0,0,,12,,,47,127
10362,note_on,5,0,0,,3,,,51,127
10433,note_off,71,0,0,,3,,,51,127
10438,note_on,5,0,0,,6,,,54,127
10509,note_off,71,0,0,,6,,,54,127
10514,note_on,5,0,0,,12,,,59,127
10734,note_off,220,0,0,,12,,,59,127
10740,note_on,6,0,0,,6,,,78,127
10960,note_off,220,0,0,,6,,,78,127
10966,note_on,6,0,0,,6,,,42,127
11074,note_off,108,0,0,,6,,,66,127
11074,note_off,0,0,0,,3,,,75,127
11079,note_on,5,0,0,,4,,,76,127
11186,note_off,107,0,0,,4,,,76,127
11192,note_on,6,0,0,,6,,,66,127
11305,note_on,113,0,0,,4,,,76,127
11412,note_off,107,0,0,,4,,,76,127
11418,note_on,6,0,0,,3,,,75,127
11525,note_off,107,0,0,,3,,,75,127
11531,note_on,6,0,0,,1,,,73,127
11638,note_off,107,0,0,,1,,,73,127
11638,note_off,0,0,0,,6,,,66,127
11639,note_off,1,0,0,,6,,,42,127
11644,note_on,5,0,0,,12,,,47,127
11644,note_on,0,0,0,,1,,,73,127
11644,note_on,0,0,0,,6,,,66,127
11715,note_off,71,0,0,,12,,,47,127
11720,note_on,5,0,0,,3,,,51,127
11791,note_off,71,0,0,,3,,,51,127
11796,note_on,5,0,0,,6,,,54,127
11865,note_off,69,0,0,,1,,,73,127
11866,note_off,1,0,0,,6,,,54,127
11871,note_on,5,0,0,,12,,,59,127
11871,note_on,0,0,0,,3,,,75,127
12091,note_off,220,0,0,,12,,,59,127
12091,note_off,0,0,0,,6,,,66,127
12097,note_on,6,0,0,,6,,,78,127
12317,note_off,220,0,0,,6,,,78,127
12323,note_on,6,0,0,,6,,,42,127
12431,note_off,108,0,0,,3,,,75,127
12436,note_on,5,0,0,,4,,,76,127
12543,note_off,107,0,0,,4,,,76,127
12549,note_on,6,0,0,,6,,,66,127
12662,note_on,113,0,0,,4,,,76,127
12769,note_off,107,0,0,,4,,,76,127
12775,note_on,6,0,0,,3,,,75,127
12882,note_off,107,0,0,,3,,,75,127
12888,note_on,6,0,0,,1,,,73,127
12995,note_off,107,0,0,,1,,,73,127
12995,note_off,0,0,0,,6,,,66,127
12996,note_off,1,0,0,,6,,,42,127
13001,note_on,5,0,0,,12,,,47,127
13001,note_on,0,0,0,,1,,,73,127
13001,note_on,0,0,0,,6,,,66,127
13072,note_off,71,0,0,,12,,,47,127
13077,note_on,5,0,0,,3,,,51,127
13148,note_off,71,0,0,,3,,,51,127
13153,note_on,5,0,0,,6,,,54,127
13222,note_off,69,0,0,,1,,,73,127
13223,note_off,1,0,0,,6,,,54,127
13228,note_on,5,0,0,,12,,,59,127
13228,note_on,0,0,0,,3,,,75,127
13335,note_off,107,0,0,,3,,,75,127
13341,note_on,6,0,0,,6,,,78,127
13448,note_off,107,0,0,,6,,,78,127
13448,note_off,0,0,0,,6,,,66,127
13454,note_on,6,0,0,,12,,,83,127
13561,note_off,107,0,0,,12,,,83,127
13567,note_on,6,0,0,,11,,,82,127
13674,note_off,107,0,0,,11,,,82,127
13675,note_off,1,0,0,,12,,,59,127
13680,note_on,5,0,0,,4,,,52,127
13680,note_on,0,0,0,,8,,,80,127
13787,note_off,107,0,0,,8,,,80,127
13793,note_on,6,0,0,,6,,,78,127
13900,note_off,107,0,0,,6,,,78,127
13906,note_on,6,0,0,,4,,,76,127
14013,note_off,107,0,0,,4,,,76,127
14019,note_on,6,0,0,,3,,,75,127
14126,note_off,107,0,0,,3,,,75,127
14127,note_off,1,0,0,,4,,,52,127
14132,note_on,5,0,0,,4,,,64,127
14132,note_on,0,0,0,,8,,,80,127
14132,note_on,0,0,0,,1,,,73,127
14239,note_off,107,0,0,,1,,,73,127
14245,note_on,6,0,0,,12,,,71,127
14352,note_off,107,0,0,,12,,,71,127
14352,note_off,0,0,0,,8,,,80,127
14352,note_off,0,0,0,,4,,,64,127
14358,note_on,6,0,0,,6,,,66,127
14358,note_on,0,0,0,,11,,,70,127
14358,note_on,0,0,0,,6,,,78,127
14465,note_off,107,0,0,,11,,,70,127
14471,note_on,6,0,0,,8,,,68,127
14578,note_off,107,0,0,,8,,,68,127
14578,note_off,0,0,0,,6,,,66,127
14584,note_on,6,0,0,,6,,,66,127
14697,note_on,113,0,0,,4,,,64,127
14804,note_off,107,0,0,,4,,,64,127
14804,note_off,0,0,0,,6,,,78,127
14810,note_on,6,0,0,,3,,,63,127
14917,note_off,107,0,0,,3,,,63,127
14917,note_off,0,0,0,,6,,,66,127
14923,note_on,6,0,0,,1,,,61,127
14923,note_on,0,0,0,,4,,,76,127
15030,note_off,107,0,0,,4,,,76,127
15030,note_off,0,0,0,,1,,,61,127
15036,note_on,6,0,0,,12,,,59,127
15036,note_on,0,0,0,,3,,,75,127
15107,note_off,71,0,0,,3,,,75,127
15112,note_on,5,0,0,,6,,,78,127
15183,note_off,71,0,0,,6,,,78,127
15188,note_on,5,0,0,,3,,,75,127
15259,note_off,71,0,0,,3,,,75,127
15264,note_on,5,0,0,,12,,,71,127
15371,note_off,107,0,0,,12,,,59,127
15377,note_on,6,0,0,,1,,,61,127
15484,note_off,107,0,0,,1,,,61,127
15484,note_off,0,0,0,,12,,,71,127
15490,note_on,6,0,0,,3,,,63,127
15490,note_on,0,0,0,,12,,,47,127
15597,note_off,107,0,0,,3,,,63,127
15603,note_on,6,0,0,,4,,,64,127
15710,note_off,107,0,0,,4,,,64,127
15710,note_off,0,0,0,,12,,,47,127
15716,note_on,6,0,0,,6,,,66,127
15716,note_on,0,0,0,,6,,,42,127
15823,note_off,107,0,0,,6,,,66,127
15829,note_on,6,0,0,,8,,,68,127
15936,note_off,107,0,0,,8,,,68,127
15942,note_on,6,0,0,,6,,,66,127
16049,note_off,107,0,0,,6,,,66,127
16055,note_on,6,0,0,,4,,,64,127
16162,note_off,107,0,0,,4,,,64,127
16168,note_on,6,0,0,,3,,,63,127
16275,note_off,107,0,0,,3,,,63,127
16281,note_on,6,0,0,,1,,,61,127
16388,note_off,107,0,0,,1,,,61,127
16389,note_off,1,0,0,,6,,,42,127
16394,note_on,5,0,0,,12,,,59,127
16394,note_on,0,0,0,,12,,,83,127
16465,note_off,71,0,0,,12,,,83,127
16470,note_on,5,0,0,,6,,,78,127
16541,note_off,71,0,0,,6,,,78,127
16546,note_on,5,0,0,,3,,,75,127
16617,note_off,71,0,0,,3,,,75,127
16622,note_on,5,0,0,,12,,,71,127
16729,note_off,107,0,0,,12,,,59,127
16735,note_on,6,0,0,,1,,,61,127
16842,note_off,107,0,0,,1,,,61,127
16842,note_off,0,0,0,,12,,,71,127
16848,note_on,6,0,0,,3,,,63,127
16848,note_on,0,0,0,,12,,,47,127
16955,note_off,107,0,0,,3,,,63,127
16961,note_on,6,0,0,,4,,,64,127
17068,note_off,107,0,0,,4,,,64,127
17068,note_off,0,0,0,,12,,,47,127
17074,note_on,6,0,0,,6,,,66,127
17074,note_on,0,0,0,,6,,,42,127
17181,note_off,107,0,0,,6,,,66,127
17187,note_on,6,0,0,,8,,,68,127
17294,note_off,107,0,0,,8,,,68,127
17300,note_on,6,0,0,,6,,,66,127
17407,note_off,107,0,0,,6,,,66,127
17413,note_on,6,0,0,,4,,,64,127
17520,note_off,107,0,0,,4,,,64,127
17526,note_on,6,0,0,,3,,,63,127
17633,note_off,107,0,0,,3,,,63,127
17639,note_on,6,0,0,,1,,,61,127
17746,note_off,107,0,0,,1,,,61,127
17747,note_off,1,0,0,,6,,,42,127
17752,note_on,5,0,0,,12,,,59,127
17752,note_on,0,0,0,,12,,,83,127
17823,note_off,71,0,0,,12,,,83,127
17828,note_on,5,0,0,,6,,,78,127
17899,note_off,71,0,0,,6,,,78,127
17904,note_on,5,0,0,,3,,,75,127
17975,note_off,71,0,0,,3,,,75,127
17980,note_on,5,0,0,,12,,,71,127
18087,note_off,107,0,0,,12,,,59,127
18093,note_on,6,0,0,,1,,,61,127
18200,note_off,107,0,0,,1,,,61,127
18200,note_off,0,0,0,,12,,,71,127
18206,note_on,6,0,0,,3,,,63,127
18206,note_on,0,0,0,,12,,,47,127
18313,note_off,107,0,0,,3,,,63,127
18319,note_on,6,0,0,,4,,,64,127
18426,note_off,107,0,0,,4,,,64,127
18426,note_off,0,0,0,,12,,,47,127
18432,note_on,6,0,0,,6,,,66,127
18432,note_on,0,0,0,,6,,,42,127
18539,note_off,107,0,0,,6,,,66,127
18545,note_on,6,0,0,,8,,,68,127
18652,note_off,107,0,0,,8,,,68,127
18658,note_on,6,0,0,,6,,,66,127
18765,note_off,107,0,0,,6,,,66,127
18771,note_on,6,0,0,,4,,,64,127
18878,note_off,107,0,0,,4,,,64,127
18884,note_on,6,0,0,,3,,,63,127
18991,note_off,107,0,0,,3,,,63,127
18997,note_on,6,0,0,,1,,,61,127
19104,note_off,107,0,0,,1,,,61,127
19109,note_off,5,0,0,,6,,,42,127
19110,note_on,1,0,0,,12,,,59,127
19223,note_on,113,0,0,,6,,,78,127
19330,note_off,107,0,0,,6,,,78,127
19336,note_on,6,0,0,,3,,,75,127
19443,note_off,107,0,0,,3,,,75,127
19443,note_off,0,0,0,,12,,,59,127
19449,note_on,6,0,0,,1,,,61,127
19449,note_on,0,0,0,,12,,,71,127
19556,note_off,107,0,0,,12,,,71,127
19556,note_off,0,0,0,,1,,,61,127
19562,note_on,6,0,0,,3,,,63,127
19562,note_on,0,0,0,,12,,,83,127
19669,note_off,107,0,0,,12,,,83,127
19675,note_on,6,0,0,,11,,,82,127
19782,note_off,107,0,0,,11,,,82,127
19782,note_off,0,0,0,,3,,,63,127
19788,note_on,6,0,0,,4,,,52,127
19788,note_on,0,0,0,,8,,,80,127
19895,note_off,107,0,0,,8,,,80,127
19901,note_on,6,0,0,,6,,,78,127
20008,note_off,107,0,0,,6,,,78,127
20014,note_on,6,0,0,,4,,,64,127
20014,note_on,0,0,0,,4,,,76,127
20121,note_off,107,0,0,,4,,,76,127
20127,note_on,6,0,0,,3,,,75,127
20234,note_off,107,0,0,,3,,,75,127
20235,note_off,1,0,0,,4,,,52,127
20240,note_on,5,0,0,,8,,,80,127
20240,note_on,0,0,0,,1,,,73,127
20347,note_off,107,0,0,,1,,,73,127
20353,note_on,6,0,0,,12,,,71,127
20460,note_off,107,0,0,,8,,,80,127
20461,note_off,1,0,0,,4,,,64,127
20466,note_on,5,0,0,,6,,,54,127
20466,note_on,0,0,0,,6,,,78,127
20466,note_on,0,0,0,,11,,,70,127
20467,note_off,1,0,0,,12,,,71,127
20573,note_off,106,0,0,,11,,,70,127
20579,note_on,6,0,0,,8,,,68,127
20692,note_on,113,0,0,,6,,,66,127
20697,note_off,5,0,0,,8,,,68,127
20799,note_off,102,0,0,,6,,,54,127
20805,note_on,6,0,0,,4,,,64,127
20912,note_off,107,0,0,,4,,,64,127
20912,note_off,0,0,0,,6,,,66,127
20912,note_off,0,0,0,,6,,,78,127
20918,note_on,6,0,0,,3,,,63,127
20918,note_on,0,0,0,,4,,,76,127
21025,note_off,107,0,0,,3,,,63,127
21031,note_on,6,0,0,,1,,,61,127
21138,note_off,107,0,0,,1,,,61,127
21138,note_off,0,0,0,,4,,,76,127
21144,note_on,6,0,0,,12,,,59,127
21144,note_on,0,0,0,,3,,,75,127
21251,note_off,107,0,0,,3,,,75,127
21257,note_on,6,0,0,,4,,,76,127
21364,note_off,107,0,0,,4,,,76,127
21364,note_off,0,0,0,,12,,,59,127
21370,note_on,6,0,0,,4,,,52,127
21370,note_on,0,0,0,,6,,,78,127
21477,note_off,107,0,0,,6,,,78,127
21483,note_on,6,0,0,,12,,,71,127
21590,note_off,107,0,0,,12,,,71,127
21590,note_off,0,0,0,,4,,,52,127
21596,note_on,6,0,0,,6,,,54,127
21596,note_on,0,0,0,,1,,,73,127
21703,note_off,107,0,0,,1,,,73,127
21709,note_on,6,0,0,,11,,,70,127
21816,note_off,107,0,0,,11,,,70,127
21816,note_off,0,0,0,,6,,,54,127
21822,note_on,6,0,0,,12,,,47,127
21822,note_on,0,0,0,,12,,,71,127
21929,note_off,107,0,0,,12,,,71,127
21935,note_on,6,0,0,,2,,,74,127
21986,note_off,51,0,0,,12,,,47,127
22042,note_off,56,0,0,,2,,,74,127
22048,note_on,6,0,0,,4,,,64,127
22048,note_on,0,0,0,,1,,,73,127
22155,note_off,107,0,0,,1,,,73,127
22161,note_on,6,0,0,,4,,,76,127
22268,note_off,107,0,0,,4,,,76,127
22268,note_off,0,0,0,,4,,,64,127
22274,note_on,6,0,0,,6,,,66,127
22274,note_on,0,0,0,,2,,,74,127
22381,note_off,107,0,0,,2,,,74,127
22387,note_on,6,0,0,,1,,,73,127
22494,note_off,107,0,0,,1,,,73,127
22494,note_off,0,0,0,,6,,,66,127
22500,note_on,6,0,0,,7,,,67,127
22500,note_on,0,0,0,,12,,,71,127
22613,note_on,113,0,0,,2,,,74,127
22720,note_off,107,0,0,,2,,,74,127
22720,note_off,0,0,0,,7,,,67,127
22724,note_off,4,0,0,,12,,,71,127
22726,note_on,2,0,0,,4,,,64,127
22726,note_on,0,0,0,,1,,,73,127
22833,note_off,107,0,0,,1,,,73,127
22839,note_on,6,0,0,,4,,,76,127
22946,note_off,107,0,0,,4,,,76,127
22946,note_off,0,0,0,,4,,,64,127
22952,note_on,6,0,0,,6,,,66,127
22952,note_on,0,0,0,,2,,,74,127
23059,note_off,107,0,0,,2,,,74,127
23065,note_on,6,0,0,,1,,,73,127
23172,note_off,107,0,0,,1,,,73,127
23172,note_off,0,0,0,,6,,,66,127
23178,note_on,6,0,0,,7,,,67,127
23178,note_on,0,0,0,,12,,,71,127
23291,note_on,113,0,0,,7,,,79,127
23398,note_off,107,0,0,,7,,,79,127
23398,note_off,0,0,0,,7,,,67,127
23402,note_off,4,0,0,,12,,,71,127
23404,note_on,2,0,0,,4,,,64,127
23404,note_on,0,0,0,,1,,,73,127
23511,note_off,107,0,0,,1,,,73,127
23517,note_on,6,0,0,,4,,,76,127
23624,note_off,107,0,0,,4,,,76,127
23624,note_off,0,0,0,,4,,,64,127
23630,note_on,6,0,0,,6,,,66,127
23630,note_on,0,0,0,,2,,,74,127
23737,note_off,107,0,0,,2,,,74,127
23743,note_on,6,0,0,,1,,,73,127
23850,note_off,107,0,0,,1,,,73,127
23850,note_off,0,0,0,,6,,,66,127
23856,note_on,6,0,0,,7,,,67,127
23856,note_on,0,0,0,,12,,,71,127
23969,note_on,113,0,0,,7,,,79,127
24076,note_off,107,0,0,,7,,,79,127
24076,note_off,0,0,0,,7,,,67,127
24080,note_off,4,0,0,,12,,,71,127
24082,note_on,2,0,0,,4,,,64,127
24082,note_on,0,0,0,,1,,,73,127
24189,note_off,107,0,0,,1,,,73,127
24195,note_on,6,0,0,,4,,,76,127
24302,note_off,107,0,0,,4,,,76,127
24302,note_off,0,0,0,,4,,,64,127
24308,note_on,6,0,0,,6,,,66,127
24308,note_on,0,0,0,,2,,,74,127
24415,note_off,107,0,0,,2,,,74,127
24421,note_on,6,0,0,,1,,,73,127
24528,note_off,107,0,0,,1,,,73,127
24528,note_off,0,0,0,,6,,,66,127
24534,note_on,6,0,0,,7,,,67,127
24534,note_on,0,0,0,,12,,,71,127
24647,note_on,113,0,0,,12,,,83,127
24754,note_off,107,0,0,,12,,,83,127
24754,note_off,0,0,0,,7,,,67,127
24758,note_off,4,0,0,,12,,,71,127
24760,note_on,2,0,0,,4,,,64,127
24760,note_on,0,0,0,,1,,,73,127
24867,note_off,107,0,0,,1,,,73,127
24873,note_on,6,0,0,,4,,,76,127
24980,note_off,107,0,0,,4,,,76,127
24980,note_off,0,0,0,,4,,,64,127
24986,note_on,6,0,0,,6,,,66,127
24986,note_on,0,0,0,,2,,,74,127
25093,note_off,107,0,0,,2,,,74,127
25099,note_on,6,0,0,,1,,,73,127
25206,note_off,107,0,0,,1,,,73,127
25206,note_off,0,0,0,,6,,,66,127
25212,note_on,6,0,0,,7,,,67,127
25212,note_on,0,0,0,,12,,,71,127
25325,note_on,113,0,0,,12,,,83,127
25432,note_off,107,0,0,,12,,,83,127
25432,note_off,0,0,0,,7,,,67,127
25436,note_off,4,0,0,,12,,,71,127
25438,note_on,2,0,0,,4,,,64,127
25438,note_on,0,0,0,,1,,,73,127
25545,note_off,107,0,0,,1,,,73,127
25551,note_on,6,0,0,,4,,,76,127
25658,note_off,107,0,0,,4,,,76,127
25658,note_off,0,0,0,,4,,,64,127
25664,note_on,6,0,0,,6,,,66,127
25664,note_on,0,0,0,,2,,,74,127
25771,note_off,107,0,0,,2,,,74,127
25777,note_on,6,0,0,,1,,,73,127
25884,note_off,107,0,0,,1,,,73,127
25884,note_off,0,0,0,,6,,,66,127
25890,note_on,6,0,0,,7,,,67,127
25890,note_on,0,0,0,,12,,,71,127
26003,note_on,113,0,0,,12,,,83,127
26110,note_off,107,0,0,,12,,,83,127
26114,note_off,4,0,0,,12,,,71,127
26116,note_on,2,0,0,,10,,,81,127
26223,note_off,107,0,0,,10,,,81,127
26229,note_on,6,0,0,,7,,,79,127
26336,note_off,107,0,0,,7,,,79,127
26337,note_off,1,0,0,,7,,,67,127
26342,note_on,5,0,0,,8,,,68,127
26342,note_on,0,0,0,,6,,,78,127
26449,note_off,107,0,0,,6,,,78,127
26455,note_on,6,0,0,,5,,,77,127
26562,note_off,107,0,0,,5,,,77,127
26562,note_off,0,0,0,,8,,,68,127
26568,note_on,6,0,0,,11,,,70,127
26568,note_on,0,0,0,,6,,,78,127
26675,note_off,107,0,0,,6,,,78,127
26681,note_on,6,0,0,,6,,,78,127
26788,note_off,107,0,0,,6,,,78,127
26794,note_on,6,0,0,,4,,,76,127
26901,note_off,107,0,0,,4,,,76,127
26907,note_on,6,0,0,,2,,,74,127
27014,note_off,107,0,0,,2,,,74,127
27015,note_off,1,0,0,,11,,,70,127
27020,note_on,5,0,0,,11,,,70,127
27020,note_on,0,0,0,,1,,,73,127
27127,note_off,107,0,0,,1,,,73,127
27133,note_on,6,0,0,,4,,,76,127
27240,note_off,107,0,0,,4,,,76,127
27240,note_off,0,0,0,,11,,,70,127
27246,note_on,6,0,0,,12,,,71,127
27246,note_on,0,0,0,,2,,,74,127
27353,note_off,107,0,0,,2,,,74,127
27359,note_on,6,0,0,,4,,,76,127
27466,note_off,107,0,0,,4,,,76,127
27466,note_off,0,0,0,,12,,,71,127
27472,note_on,6,0,0,,4,,,64,127
27472,note_on,0,0,0,,6,,,78,127
27579,note_off,107,0,0,,6,,,78,127
27585,note_on,6,0,0,,12,,,71,127
27692,note_off,107,0,0,,12,,,71,127
27692,note_off,0,0,0,,4,,,64,127
27698,note_on,6,0,0,,6,,,66,127
27698,note_on,0,0,0,,1,,,73,127
27805,note_off,107,0,0,,1,,,73,127
27811,note_on,6,0,0,,11,,,70,127
27918,note_off,107,0,0,,11,,,70,127
27918,note_off,0,0,0,,6,,,66,127
27924,note_on,6,0,0,,12,,,59,127
27924,note_on,0,0,0,,12,,,71,127
28037,note_on,113,0,0,,6,,,66,127
28144,note_off,107,0,0,,6,,,66,127
28148,note_off,4,0,0,,12,,,59,127
28150,note_on,2,0,0,,4,,,52,127
28150,note_on,0,0,0,,8,,,68,127
28257,note_off,107,0,0,,8,,,68,127
28263,note_on,6,0,0,,4,,,64,127
28370,note_off,107,0,0,,4,,,64,127
28370,note_off,0,0,0,,4,,,52,127
28370,note_off,0,0,0,,12,,,71,127
28376,note_on,6,0,0,,6,,,54,127
28376,note_on,0,0,0,,6,,,66,127
28376,note_on,0,0,0,,1,,,73,127
28489,note_off,113,0,0,,6,,,66,127
28489,note_on,0,0,0,,1,,,61,127
28596,note_off,107,0,0,,1,,,61,127
28596,note_off,0,0,0,,1,,,73,127
28596,note_off,0,0,0,,6,,,54,127
28602,note_on,6,0,0,,12,,,59,127
28602,note_on,0,0,0,,12,,,47,127
28602,note_on,0,0,0,,12,,,71,127
28602,note_on,0,0,0,,3,,,63,127
28709,note_off,107,0,0,,3,,,63,127
28715,note_on,6,0,0,,6,,,66,127
28822,note_off,107,0,0,,6,,,66,127
28822,note_off,0,0,0,,12,,,47,127
28828,note_on,6,0,0,,4,,,52,127
28828,note_on,0,0,0,,8,,,68,127
28935,note_off,107,0,0,,8,,,68,127
28941,note_on,6,0,0,,4,,,64,127
29048,note_off,107,0,0,,4,,,64,127
29048,note_off,0,0,0,,4,,,52,127
29048,note_off,0,0,0,,12,,,71,127
29054,note_on,6,0,0,,6,,,54,127
29054,note_on,0,0,0,,6,,,66,127
29054,note_on,0,0,0,,1,,,73,127
29165,note_off,111,0,0,,6,,,66,127
29167,note_on,2,0,0,,1,,,61,127
29274,note_off,107,0,0,,1,,,61,127
29274,note_off,0,0,0,,1,,,73,127
29274,note_off,0,0,0,,6,,,54,127
29279,note_off,5,0,0,,12,,,59,127
29280,note_on,1,0,0,,12,,,59,127
29280,note_on,0,0,0,,12,,,47,127
29280,note_on,0,0,0,,12,,,71,127
29393,note_on,113,0,0,,6,,,66,127
29500,note_off,107,0,0,,6,,,66,127
29500,note_off,0,0,0,,12,,,47,127
29506,note_on,6,0,0,,4,,,52,127
29506,note_on,0,0,0,,8,,,68,127
29613,note_off,107,0,0,,8,,,68,127
29619,note_on,6,0,0,,4,,,64,127
29726,note_off,107,0,0,,4,,,52,127
29726,note_off,0,0,0,,12,,,71,127
29732,note_on,6,0,0,,6,,,54,127
29732,note_on,0,0,0,,6,,,66,127
29732,note_on,0,0,0,,1,,,73,127
29734,note_off,2,0,0,,4,,,64,127
29839,note_off,105,0,0,,6,,,66,127
29845,note_on,6,0,0,,1,,,61,127
29952,note_off,107,0,0,,1,,,61,127
29952,note_off,0,0,0,,1,,,73,127
29952,note_off,0,0,0,,6,,,54,127
29957,note_off,5,0,0,,12,,,59,127
29958,note_on,1,0,0,,12,,,59,127
29958,note_on,0,0,0,,12,,,47,127
29958,note_on,0,0,0,,12,,,71,127
30071,note_on,113,0,0,,6,,,66,127
30180,note_off,109,0,0,,6,,,66,127
30184,note_on,4,0,0,,3,,,63,127
30291,note_off,107,0,0,,3,,,63,127
30291,note_off,0,0,0,,12,,,47,127
30297,note_on,6,0,0,,1,,,49,127
30297,note_on,0,0,0,,4,,,64,127
30404,note_off,107,0,0,,4,,,64,127
30410,note_on,6,0,0,,3,,,51,127
30410,note_on,0,0,0,,6,,,66,127
30411,note_off,1,0,0,,1,,,49,127
30517,note_off,106,0,0,,6,,,66,127
30517,note_off,0,0,0,,12,,,71,127
30523,note_on,6,0,0,,3,,,75,127
30630,note_off,107,0,0,,3,,,75,127
30630,note_off,0,0,0,,3,,,51,127
30635,note_off,5,0,0,,12,,,59,127
30636,note_on,1,0,0,,4,,,52,127
30636,note_on,0,0,0,,8,,,68,127
30743,note_off,107,0,0,,8,,,68,127
30749,note_on,6,0,0,,4,,,76,127
30856,note_off,107,0,0,,4,,,76,127
30856,note_off,0,0,0,,4,,,52,127
30862,note_on,6,0,0,,6,,,54,127
30862,note_on,0,0,0,,3,,,75,127
30969,note_off,107,0,0,,3,,,75,127
30975,note_on,6,0,0,,12,,,71,127
31082,note_off,107,0,0,,12,,,71,127
31088,note_on,6,0,0,,6,,,42,127
31088,note_on,0,0,0,,6,,,78,127
31195,note_off,107,0,0,,6,,,78,127
31201,note_on,6,0,0,,11,,,70,127
31308,note_off,107,0,0,,11,,,70,127
31308,note_off,0,0,0,,6,,,42,127
31309,note_off,1,0,0,,6,,,54,127
31314,note_on,5,0,0,,12,,,47,127
31314,note_on,0,0,0,,12,,,71,127
31427,note_on,113,0,0,,12,,,83,127
31534,note_off,107,0,0,,12,,,83,127
31538,note_off,4,0,0,,12,,,71,127
31540,note_on,2,0,0,,5,,,77,127
31647,note_off,107,0,0,,5,,,77,127
31653,note_on,6,0,0,,6,,,78,127
31760,note_off,107,0,0,,6,,,78,127
31766,note_on,6,0,0,,1,,,73,127
31873,note_off,107,0,0,,1,,,73,127
31879,note_on,6,0,0,,3,,,75,127
31986,note_off,107,0,0,,3,,,75,127
31992,note_on,6,0,0,,11,,,70,127
32099,note_off,107,0,0,,11,,,70,127
32105,note_on,6,0,0,,12,,,71,127
32212,note_off,107,0,0,,12,,,71,127
32218,note_on,6,0,0,,5,,,65,127
32325,note_off,107,0,0,,5,,,65,127
32331,note_on,6,0,0,,6,,,66,127
32438,note_off,107,0,0,,6,,,66,127
32444,note_on,6,0,0,,1,,,61,127
32551,note_off,107,0,0,,1,,,61,127
32557,note_on,6,0,0,,3,,,63,127
32664,note_off,107,0,0,,3,,,63,127
32670,note_on,6,0,0,,11,,,58,127
32777,note_off,107,0,0,,11,,,58,127
32783,note_on,6,0,0,,12,,,59,127
32890,note_off,107,0,0,,12,,,59,127
32896,note_on,6,0,0,,1,,,61,127
33003,note_off,107,0,0,,1,,,61,127
33009,note_on,6,0,0,,3,,,63,127
33116,note_off,107,0,0,,3,,,63,127
33122,note_on,6,0,0,,4,,,64,127
33229,note_off,107,0,0,,4,,,64,127
33235,note_on,6,0,0,,6,,,66,127
33342,note_off,107,0,0,,6,,,66,127
33343,note_off,1,0,0,,12,,,47,127
33348,note_on,5,0,0,,4,,,52,127
33348,note_on,0,0,0,,8,,,68,127
33455,note_off,107,0,0,,8,,,68,127
33461,note_on,6,0,0,,12,,,59,127
33568,note_off,107,0,0,,12,,,59,127
33568,note_off,0,0,0,,4,,,52,127
33574,note_on,6,0,0,,6,,,54,127
33574,note_on,0,0,0,,6,,,66,127
33681,note_off,107,0,0,,6,,,66,127
33687,note_on,6,0,0,,4,,,64,127
33794,note_off,107,0,0,,4,,,64,127
33800,note_on,6,0,0,,6,,,42,127
33800,note_on,0,0,0,,3,,,63,127
33907,note_off,107,0,0,,3,,,63,127
33913,note_on,6,0,0,,1,,,61,127
34020,note_off,107,0,0,,1,,,61,127
34020,note_off,0,0,0,,6,,,42,127
34021,note_off,1,0,0,,6,,,54,127
34026,note_on,5,0,0,,12,,,47,127
34026,note_on,0,0,0,,12,,,59,127
34078,note_off,52,0,0,,12,,,59,127
34083,note_on,5,0,0,,1,,,61,127
34135,note_off,52,0,0,,1,,,61,127
34140,note_on,5,0,0,,3,,,63,127
34192,note_off,52,0,0,,3,,,63,127
34197,note_on,5,0,0,,4,,,64,127
34249,note_off,52,0,0,,4,,,64,127
34254,note_on,5,0,0,,6,,,66,127
34361,note_off,107,0,0,,6,,,66,127
34367,note_on,6,0,0,,12,,,59,127
34474,note_off,107,0,0,,12,,,59,127
34475,note_off,1,0,0,,12,,,47,127
34480,note_on,5,0,0,,4,,,52,127
34480,note_on,0,0,0,,8,,,68,127
34587,note_off,107,0,0,,8,,,68,127
34593,note_on,6,0,0,,12,,,59,127
34700,note_off,107,0,0,,12,,,59,127
34700,note_off,0,0,0,,4,,,52,127
34706,note_on,6,0,0,,6,,,54,127
34706,note_on,0,0,0,,6,,,42,127
34706,note_on,0,0,0,,6,,,66,127
34758,note_off,52,0,0,,6,,,66,127
34763,note_on,5,0,0,,8,,,68,127
34815,note_off,52,0,0,,8,,,68,127
34820,note_on,5,0,0,,11,,,70,127
34872,note_off,52,0,0,,11,,,70,127
34877,note_on,5,0,0,,12,,,71,127
34929,note_off,52,0,0,,12,,,71,127
34934,note_on,5,0,0,,1,,,73,127
35041,note_off,107,0,0,,1,,,73,127
35047,note_on,6,0,0,,6,,,66,127
35154,note_off,107,0,0,,6,,,66,127
35155,note_off,1,0,0,,6,,,42,127
35155,note_off,0,0,0,,6,,,54,127
35160,note_on,5,0,0,,12,,,47,127
35160,note_on,0,0,0,,12,,,59,127
35160,note_on,0,0,0,,3,,,75,127
35267,note_off,107,0,0,,3,,,75,127
35273,note_on,6,0,0,,6,,,66,127
35380,note_off,107,0,0,,6,,,66,127
35380,note_off,0,0,0,,12,,,59,127
35380,note_off,0,0,0,,12,,,47,127
35386,note_on,6,0,0,,12,,,59,127
35386,note_on,0,0,0,,12,,,47,127
35386,note_on,0,0,0,,12,,,71,127
35438,note_off,52,0,0,,12,,,71,127
35443,note_on,5,0,0,,1,,,73,127
35495,note_off,52,0,0,,1,,,73,127
35500,note_on,5,0,0,,3,,,75,127
35552,note_off,52,0,0,,3,,,75,127
35557,note_on,5,0,0,,4,,,76,127
35609,note_off,52,0,0,,4,,,76,127
35614,note_on,5,0,0,,6,,,78,127
35721,note_off,107,0,0,,6,,,78,127
35727,note_on,6,0,0,,12,,,71,127
35834,note_off,107,0,0,,12,,,71,127
35835,note_off,1,0,0,,12,,,47,127
35835,note_off,0,0,0,,12,,,59,127
35840,note_on,5,0,0,,4,,,52,127
35840,note_on,0,0,0,,4,,,64,127
35840,note_on,0,0,0,,8,,,80,127
35947,note_off,107,0,0,,8,,,80,127
35953,note_on,6,0,0,,12,,,71,127
36060,note_off,107,0,0,,12,,,71,127
36060,note_off,0,0,0,,4,,,64,127
36060,note_off,0,0,0,,4,,,52,127
36066,note_on,6,0,0,,6,,,54,127
36066,note_on,0,0,0,,1,,,73,127
36173,note_off,107,0,0,,1,,,73,127
36179,note_on,6,0,0,,12,,,83,127
36286,note_off,107,0,0,,12,,,83,127
36292,note_on,6,0,0,,3,,,75,127
36399,note_off,107,0,0,,3,,,75,127
36399,note_off,0,0,0,,6,,,54,127
36405,note_on,6,0,0,,4,,,64,127
36405,note_on,0,0,0,,11,,,82,127
36512,note_off,107,0,0,,11,,,82,127
36512,note_off,0,0,0,,4,,,64,127
36518,note_on,6,0,0,,3,,,63,127
36518,note_on,0,0,0,,12,,,83,127
36625,note_off,107,0,0,,12,,,83,127
36631,note_on,6,0,0,,6,,,78,127
36738,note_off,107,0,0,,6,,,78,127
36738,note_off,0,0,0,,3,,,63,127
36744,note_on,6,0,0,,4,,,64,127
36744,note_on,0,0,0,,8,,,80,127
36851,note_off,107,0,0,,8,,,80,127
36857,note_on,6,0,0,,4,,,76,127
36964,note_off,107,0,0,,4,,,76,127
36964,note_off,0,0,0,,4,,,64,127
36970,note_on,6,0,0,,6,,,66,127
36970,note_on,0,0,0,,3,,,75,127
37077,note_off,107,0,0,,3,,,75,127
37083,note_on,6,0,0,,12,,,83,127
37190,note_off,107,0,0,,12,,,83,127
37196,note_on,6,0,0,,6,,,54,127
37196,note_on,0,0,0,,1,,,73,127
37303,note_off,107,0,0,,1,,,73,127
37309,note_off,6,0,0,,6,,,66,127
37309,note_on,0,0,0,,11,,,82,127
37416,note_off,107,0,0,,11,,,82,127
37416,note_off,0,0,0,,6,,,54,127
37422,note_on,6,0,0,,12,,,47,127
37422,note_on,0,0,0,,11,,,82,127
37529,note_off,107,0,0,,11,,,82,127
37535,note_on,6,0,0,,12,,,83,127
37642,note_off,107,0,0,,12,,,83,127
37648,note_on,6,0,0,,6,,,78,127
37755,note_off,107,0,0,,6,,,78,127
37761,note_on,6,0,0,,3,,,75,127
37868,note_off,107,0,0,,3,,,75,127
37874,note_on,6,0,0,,12,,,71,127
37981,note_off,107,0,0,,12,,,71,127
37987,note_on,6,0,0,,6,,,66,127
38094,note_off,107,0,0,,6,,,66,127
38099,note_off,5,0,0,,12,,,47,127
38100,note_on,1,0,0,,3,,,63,127
38207,note_off,107,0,0,,3,,,63,127
38213,note_on,6,0,0,,12,,,59,127
38320,note_off,107,0,0,,12,,,59,127
38326,note_on,6,0,0,,6,,,54,127
38433,note_off,107,0,0,,6,,,54,127
38439,note_on,6,0,0,,3,,,51,127
38546,note_off,107,0,0,,3,,,51,127
38552,note_on,6,0,0,,12,,,47,127
38778,note_on,226,0,0,,12,,,59,127
38885,note_off,107,0,0,,12,,,59,127
38891,note_on,6,0,0,,11,,,58,127
38998,note_off,107,0,0,,11,,,58,127
38999,note_off,1,0,0,,12,,,47,127
39004,note_on,5,0,0,,3,,,63,127
39111,note_off,107,0,0,,3,,,63,127
39117,note_on,6,0,0,,1,,,61,127
39224,note_off,107,0,0,,1,,,61,127
39230,note_on,6,0,0,,4,,,64,127
39337,note_off,107,0,0,,4,,,64,127
39343,note_on,6,0,0,,3,,,63,127
39450,note_off,107,0,0,,3,,,63,127
39456,note_on,6,0,0,,10,,,69,127
39563,note_off,107,0,0,,10,,,69,127
39569,note_on,6,0,0,,8,,,68,127
39676,note_off,107,0,0,,8,,,68,127
39682,note_on,6,0,0,,12,,,71,127
39789,note_off,107,0,0,,12,,,71,127
39795,note_on,6,0,0,,11,,,70,127
39902,note_off,107,0,0,,11,,,70,127
39908,note_on,6,0,0,,4,,,76,127
40015,note_off,107,0,0,,4,,,76,127
40021,note_on,6,0,0,,3,,,75,127
40128,note_off,107,0,0,,3,,,75,127
40134,note_on,6,0,0,,12,,,59,127
40134,note_on,0,0,0,,8,,,80,127
40241,note_off,107,0,0,,8,,,80,127
40247,note_on,6,0,0,,4,,,76,127
40354,note_off,107,0,0,,4,,,76,127
40360,note_on,6,0,0,,6,,,78,127
40467,note_off,107,0,0,,6,,,78,127
40467,note_off,0,0,0,,12,,,59,127
40473,note_on,6,0,0,,10,,,57,127
40473,note_on,0,0,0,,3,,,75,127
40580,note_off,107,0,0,,3,,,75,127
40580,note_off,0,0,0,,10,,,57,127
40586,note_on,6,0,0,,8,,,56,127
40586,note_on,0,0,0,,4,,,76,127
40699,note_on,113,0,0,,12,,,71,127
40806,note_off,107,0,0,,12,,,71,127
40806,note_off,0,0,0,,8,,,56,127
40812,note_on,6,0,0,,10,,,57,127
40812,note_on,0,0,0,,1,,,73,127
40921,note_off,109,0,0,,1,,,73,127
40925,note_on,4,0,0,,10,,,69,127
41032,note_off,107,0,0,,10,,,69,127
41032,note_off,0,0,0,,10,,,57,127
41038,note_on,6,0,0,,12,,,59,127
41038,note_on,0,0,0,,12,,,71,127
41145,note_off,107,0,0,,12,,,71,127
41151,note_on,6,0,0,,8,,,68,127
41258,note_off,107,0,0,,8,,,68,127
41258,note_off,0,0,0,,12,,,59,127
41258,note_off,0,0,0,,4,,,76,127
41264,note_on,6,0,0,,12,,,47,127
41264,note_on,0,0,0,,3,,,75,127
41264,note_on,0,0,0,,10,,,69,127
41371,note_off,107,0,0,,10,,,69,127
41377,note_on,6,0,0,,6,,,66,127
41484,note_off,107,0,0,,6,,,66,127
41484,note_off,0,0,0,,3,,,75,127
41484,note_off,0,0,0,,12,,,47,127
41490,note_on,6,0,0,,4,,,52,127
41490,note_on,0,0,0,,8,,,68,127
41490,note_on,0,0,0,,4,,,76,127
41597,note_off,107,0,0,,4,,,52,127
41603,note_on,6,0,0,,3,,,51,127
41710,note_off,107,0,0,,3,,,51,127
41710,note_off,0,0,0,,8,,,68,127
41716,note_on,6,0,0,,8,,,56,127
41716,note_on,0,0,0,,12,,,71,127
41823,note_off,107,0,0,,8,,,56,127
41829,note_on,6,0,0,,6,,,54,127
41936,note_off,107,0,0,,6,,,54,127
41942,note_on,6,0,0,,10,,,57,127
41942,note_on,0,0,0,,1,,,73,127
41947,note_off,5,0,0,,12,,,71,127
42049,note_off,102,0,0,,10,,,57,127
42055,note_on,6,0,0,,8,,,56,127
42162,note_off,107,0,0,,8,,,56,127
42168,note_on,6,0,0,,1,,,61,127
42275,note_off,107,0,0,,1,,,61,127
42281,note_on,6,0,0,,12,,,59,127
42388,note_off,107,0,0,,12,,,59,127
42389,note_off,1,0,0,,1,,,73,127
42394,note_on,5,0,0,,3,,,63,127
42394,note_on,0,0,0,,12,,,71,127
42501,note_off,107,0,0,,3,,,63,127
42507,note_on,6,0,0,,1,,,61,127
42614,note_off,107,0,0,,1,,,61,127
42620,note_on,6,0,0,,8,,,68,127
42727,note_off,107,0,0,,8,,,68,127
42733,note_on,6,0,0,,6,,,66,127
42840,note_off,107,0,0,,6,,,66,127
42841,note_off,1,0,0,,12,,,71,127
42846,note_on,5,0,0,,10,,,69,127
42958,note_off,112,0,0,,4,,,76,127
42959,note_on,1,0,0,,3,,,75,127
43066,note_off,107,0,0,,3,,,75,127
43072,note_on,6,0,0,,1,,,73,127
43179,note_off,107,0,0,,1,,,73,127
43179,note_off,0,0,0,,10,,,69,127
43185,note_on,6,0,0,,8,,,68,127
43185,note_on,0,0,0,,12,,,71,127
43292,note_off,107,0,0,,12,,,71,127
43292,note_off,0,0,0,,8,,,68,127
43298,note_on,6,0,0,,6,,,66,127
43298,note_on,0,0,0,,10,,,69,127
43405,note_off,107,0,0,,10,,,69,127
43405,note_off,0,0,0,,6,,,66,127
43411,note_on,6,0,0,,4,,,64,127
43411,note_on,0,0,0,,8,,,68,127
43518,note_off,107,0,0,,8,,,68,127
43518,note_off,0,0,0,,4,,,64,127
43524,note_on,6,0,0,,3,,,63,127
43524,note_on,0,0,0,,6,,,66,127
43631,note_off,107,0,0,,6,,,66,127
43631,note_off,0,0,0,,3,,,63,127
43637,note_on,6,0,0,,1,,,61,127
43637,note_on,0,0,0,,4,,,64,127
43744,note_off,107,0,0,,4,,,64,127
43744,note_off,0,0,0,,1,,,61,127
43750,note_on,6,0,0,,12,,,59,127
43750,note_on,0,0,0,,3,,,63,127
43857,note_off,107,0,0,,3,,,63,127
43857,note_off,0,0,0,,12,,,59,127
43863,note_on,6,0,0,,10,,,57,127
43863,note_on,0,0,0,,1,,,61,127
43970,note_off,107,0,0,,1,,,61,127
43970,note_off,0,0,0,,10,,,57,127
43976,note_on,6,0,0,,8,,,56,127
43976,note_on,0,0,0,,12,,,59,127
44083,note_off,107,0,0,,12,,,59,127
44083,note_off,0,0,0,,8,,,56,127
44089,note_on,6,0,0,,6,,,54,127
44089,note_on,0,0,0,,10,,,57,127
44196,note_off,107,0,0,,10,,,57,127
44196,note_off,0,0,0,,6,,,54,127
44202,note_on,6,0,0,,4,,,52,127
44202,note_on,0,0,0,,8,,,56,127
44315,note_on,113,0,0,,1,,,61,127
44422,note_off,107,0,0,,8,,,56,127
44422,note_off,0,0,0,,4,,,52,127
44428,note_on,6,0,0,,3,,,51,127
44428,note_on,0,0,0,,6,,,54,127
44535,note_off,107,0,0,,1,,,61,127
44541,note_on,6,0,0,,10,,,57,127
44648,note_off,107,0,0,,6,,,54,127
44648,note_off,0,0,0,,3,,,51,127
44654,note_on,6,0,0,,1,,,49,127
44766,note_off,112,0,0,,10,,,57,127
44767,note_on,1,0,0,,1,,,61,127
44874,note_off,107,0,0,,1,,,61,127
44874,note_off,0,0,0,,1,,,49,127
44880,note_on,6,0,0,,0,,,48,127
44880,note_on,0,0,0,,6,,,54,127
44993,note_on,113,0,0,,4,,,64,127
45100,note_off,107,0,0,,4,,,64,127
45106,note_on,6,0,0,,3,,,63,127
45213,note_off,107,0,0,,3,,,63,127
45219,note_on,6,0,0,,6,,,66,127
45326,note_off,107,0,0,,6,,,66,127
45326,note_off,0,0,0,,6,,,54,127
45327,note_off,1,0,0,,0,,,48,127
45332,note_on,5,0,0,,12,,,47,127
45332,note_on,0,0,0,,2,,,62,127
45445,note_on,113,0,0,,5,,,65,127
45552,note_off,107,0,0,,5,,,65,127
45552,note_off,0,0,0,,2,,,62,127
45552,note_off,0,0,0,,12,,,47,127
45558,note_on,6,0,0,,10,,,57,127
45558,note_on,0,0,0,,1,,,61,127
45671,note_on,113,0,0,,6,,,66,127
45778,note_off,107,0,0,,1,,,61,127
45778,note_off,0,0,0,,10,,,57,127
45784,note_on,6,0,0,,8,,,56,127
45784,note_on,0,0,0,,12,,,59,127
45891,note_off,107,0,0,,6,,,66,127
45897,note_on,6,0,0,,5,,,65,127
46004,note_off,107,0,0,,12,,,59,127
46004,note_off,0,0,0,,8,,,56,127
46010,note_on,6,0,0,,6,,,54,127
46010,note_on,0,0,0,,2,,,62,127
46117,note_off,107,0,0,,5,,,65,127
46123,note_on,6,0,0,,6,,,66,127
46230,note_off,107,0,0,,6,,,66,127
46230,note_off,0,0,0,,2,,,62,127
46230,note_off,0,0,0,,6,,,54,127
46236,note_on,6,0,0,,5,,,53,127
46236,note_on,0,0,0,,1,,,61,127
46349,note_on,113,0,0,,10,,,69,127
46456,note_off,107,0,0,,10,,,69,127
46462,note_on,6,0,0,,8,,,68,127
46569,note_off,107,0,0,,8,,,68,127
46575,note_on,6,0,0,,12,,,71,127
46682,note_off,107,0,0,,12,,,71,127
46682,note_off,0,0,0,,1,,,61,127
46683,note_off,1,0,0,,5,,,53,127
46688,note_on,5,0,0,,4,,,52,127
46688,note_on,0,0,0,,7,,,67,127
46801,note_on,113,0,0,,11,,,70,127
46908,note_off,107,0,0,,11,,,70,127
46908,note_off,0,0,0,,7,,,67,127
46908,note_off,0,0,0,,4,,,52,127
46914,note_on,6,0,0,,2,,,62,127
46914,note_on,0,0,0,,6,,,66,127
47027,note_on,113,0,0,,12,,,71,127
47134,note_off,107,0,0,,6,,,66,127
47134,note_off,0,0,0,,2,,,62,127
47140,note_on,6,0,0,,1,,,61,127
47140,note_on,0,0,0,,4,,,64,127
47247,note_off,107,0,0,,12,,,71,127
47253,note_on,6,0,0,,11,,,70,127
47360,note_off,107,0,0,,4,,,64,127
47360,note_off,0,0,0,,1,,,61,127
47366,note_on,6,0,0,,12,,,59,127
47366,note_on,0,0,0,,7,,,67,127
47473,note_off,107,0,0,,11,,,70,127
47479,note_on,6,0,0,,12,,,71,127
47586,note_off,107,0,0,,12,,,71,127
47586,note_off,0,0,0,,7,,,67,127
47586,note_off,0,0,0,,12,,,59,127
47592,note_on,6,0,0,,11,,,58,127
47592,note_on,0,0,0,,6,,,66,127
47705,note_on,113,0,0,,2,,,74,127
47812,note_off,107,0,0,,2,,,74,127
47818,note_on,6,0,0,,1,,,73,127
47925,note_off,107,0,0,,1,,,73,127
47931,note_on,6,0,0,,4,,,76,127
48038,note_off,107,0,0,,4,,,76,127
48038,note_off,0,0,0,,6,,,66,127
48039,note_off,1,0,0,,11,,,58,127
48044,note_on,5,0,0,,6,,,54,127
48044,note_on,0,0,0,,2,,,74,127
48151,note_off,107,0,0,,2,,,74,127
48157,note_on,6,0,0,,1,,,73,127
48264,note_off,107,0,0,,1,,,73,127
48264,note_off,0,0,0,,6,,,54,127
48270,note_on,6,0,0,,12,,,47,127
48270,note_on,0,0,0,,2,,,74,127
48383,note_on,113,0,0,,1,,,73,127
48490,note_off,107,0,0,,1,,,73,127
48496,note_on,6,0,0,,12,,,71,127
48603,note_off,107,0,0,,12,,,71,127
48609,note_on,6,0,0,,10,,,69,127
48716,note_off,107,0,0,,10,,,69,127
48716,note_off,0,0,0,,2,,,74,127
48722,note_on,6,0,0,,12,,,59,127
48722,note_on,0,0,0,,8,,,68,127
48722,note_on,0,0,0,,2,,,74,127
48829,note_off,107,0,0,,8,,,68,127
48835,note_off,6,0,0,,12,,,47,127
48835,note_on,0,0,0,,6,,,66,127
48942,note_off,107,0,0,,6,,,66,127
48942,note_off,0,0,0,,2,,,74,127
48942,note_off,0,0,0,,12,,,59,127
48948,note_on,6,0,0,,1,,,49,127
48948,note_on,0,0,0,,5,,,65,127
48948,note_on,0,0,0,,1,,,73,127
49055,note_off,107,0,0,,5,,,65,127
49061,note_on,6,0,0,,3,,,63,127
49168,note_off,107,0,0,,3,,,63,127
49174,note_on,6,0,0,,1,,,61,127
49281,note_off,107,0,0,,1,,,49,127
49287,note_on,6,0,0,,12,,,59,127
49394,note_off,107,0,0,,12,,,59,127
49400,note_on,6,0,0,,10,,,57,127
49507,note_off,107,0,0,,10,,,57,127
49513,note_on,6,0,0,,8,,,56,127
49620,note_off,107,0,0,,8,,,56,127
49620,note_off,0,0,0,,1,,,73,127
49621,note_off,1,0,0,,1,,,61,127
49626,note_on,5,0,0,,6,,,54,127
49626,note_on,0,0,0,,6,,,78,127
49697,note_off,71,0,0,,6,,,78,127
49702,note_on,5,0,0,,1,,,73,127
49773,note_off,71,0,0,,1,,,73,127
49778,note_on,5,0,0,,10,,,69,127
49849,note_off,71,0,0,,10,,,69,127
49854,note_on,5,0,0,,6,,,66,127
49961,note_off,107,0,0,,6,,,54,127
49967,note_on,6,0,0,,8,,,56,127
50074,note_off,107,0,0,,8,,,56,127
50074,note_off,0,0,0,,6,,,66,127
50080,note_on,6,0,0,,10,,,57,127
50080,note_on,0,0,0,,6,,,42,127
50187,note_off,107,0,0,,10,,,57,127
50193,note_on,6,0,0,,12,,,59,127
50300,note_off,107,0,0,,12,,,59,127
50300,note_off,0,0,0,,6,,,42,127
50306,note_on,6,0,0,,1,,,61,127
50306,note_on,0,0,0,,1,,,37,127
50413,note_off,107,0,0,,1,,,61,127
50419,note_on,6,0,0,,2,,,62,127
50526,note_off,107,0,0,,2,,,62,127
50532,note_on,6,0,0,,1,,,61,127
50639,note_off,107,0,0,,1,,,61,127
50645,note_on,6,0,0,,12,,,59,127
50752,note_off,107,0,0,,12,,,59,127
50758,note_on,6,0,0,,10,,,57,127
50865,note_off,107,0,0,,10,,,57,127
50871,note_on,6,0,0,,8,,,56,127
50978,note_off,107,0,0,,8,,,56,127
50979,note_off,1,0,0,,1,,,37,127
50984,note_on,5,0,0,,6,,,54,127
50984,note_on,0,0,0,,6,,,78,127
51055,note_off,71,0,0,,6,,,78,127
51060,note_on,5,0,0,,1,,,73,127
51131,note_off,71,0,0,,1,,,73,127
51136,note_on,5,0,0,,10,,,69,127
51207,note_off,71,0,0,,10,,,69,127
51212,note_on,5,0,0,,6,,,66,127
51319,note_off,107,0,0,,6,,,54,127
51325,note_on,6,0,0,,8,,,56,127
51432,note_off,107,0,0,,8,,,56,127
51432,note_off,0,0,0,,6,,,66,127
51438,note_on,6,0,0,,10,,,57,127
51438,note_on,0,0,0,,6,,,42,127
51545,note_off,107,0,0,,10,,,57,127
51551,note_on,6,0,0,,12,,,59,127
51658,note_off,107,0,0,,12,,,59,127
51658,note_off,0,0,0,,6,,,42,127
51664,note_on,6,0,0,,1,,,61,127
51664,note_on,0,0,0,,1,,,37,127
51771,note_off,107,0,0,,1,,,61,127
51777,note_on,6,0,0,,2,,,62,127
51884,note_off,107,0,0,,2,,,62,127
51890,note_on,6,0,0,,1,,,61,127
51997,note_off,107,0,0,,1,,,61,127
52003,note_on,6,0,0,,12,,,59,127
52110,note_off,107,0,0,,12,,,59,127
52116,note_on,6,0,0,,10,,,57,127
52223,note_off,107,0,0,,10,,,57,127
52229,note_on,6,0,0,,8,,,56,127
52336,note_off,107,0,0,,8,,,56,127
52341,note_off,5,0,0,,1,,,37,127
52342,note_on,1,0,0,,6,,,54,127
52455,note_on,113,0,0,,1,,,73,127
52562,note_off,107,0,0,,1,,,73,127
52568,note_on,6,0,0,,10,,,69,127
52675,note_off,107,0,0,,10,,,69,127
52675,note_off,0,0,0,,6,,,54,127
52681,note_on,6,0,0,,8,,,56,127
52681,note_on,0,0,0,,6,,,66,127
52788,note_off,107,0,0,,6,,,66,127
52788,note_off,0,0,0,,8,,,56,127
52794,note_on,6,0,0,,10,,,57,127
52794,note_on,0,0,0,,6,,,78,127
52907,note_on,113,0,0,,1,,,73,127
53014,note_off,107,0,0,,1,,,73,127
53014,note_off,0,0,0,,10,,,57,127
53020,note_on,6,0,0,,8,,,56,127
53020,note_on,0,0,0,,0,,,72,127
53127,note_off,107,0,0,,0,,,72,127
53127,note_off,0,0,0,,6,,,78,127
53133,note_on,6,0,0,,10,,,81,127
53240,note_off,107,0,0,,10,,,81,127
53246,note_on,6,0,0,,8,,,80,127
53353,note_off,107,0,0,,8,,,80,127
53353,note_off,0,0,0,,8,,,56,127
53359,note_on,6,0,0,,11,,,58,127
53359,note_on,0,0,0,,6,,,78,127
53466,note_off,107,0,0,,6,,,78,127
53466,note_off,0,0,0,,11,,,58,127
53472,note_on,6,0,0,,0,,,60,127
53472,note_on,0,0,0,,4,,,76,127
53579,note_off,107,0,0,,4,,,76,127
53585,note_on,6,0,0,,3,,,75,127
53692,note_off,107,0,0,,3,,,75,127
53692,note_off,0,0,0,,0,,,60,127
53698,note_on,6,0,0,,1,,,49,127
53698,note_on,0,0,0,,4,,,76,127
53769,note_off,71,0,0,,1,,,49,127
53774,note_on,5,0,0,,4,,,52,127
53845,note_off,71,0,0,,4,,,52,127
53850,note_on,5,0,0,,8,,,56,127
53919,note_off,69,0,0,,4,,,76,127
53920,note_off,1,0,0,,8,,,56,127
53925,note_on,5,0,0,,1,,,61,127
53925,note_on,0,0,0,,8,,,68,127
54145,note_off,220,0,0,,8,,,68,127
54145,note_off,0,0,0,,1,,,61,127
54151,note_on,6,0,0,,8,,,80,127
54151,note_on,0,0,0,,4,,,76,127
54371,note_off,220,0,0,,4,,,76,127
54371,note_off,0,0,0,,8,,,80,127
54377,note_on,6,0,0,,8,,,44,127
54377,note_on,0,0,0,,3,,,75,127
54490,note_on,113,0,0,,1,,,73,127
54597,note_off,107,0,0,,1,,,73,127
54603,note_on,6,0,0,,0,,,72,127
54710,note_off,107,0,0,,0,,,72,127
54716,note_on,6,0,0,,10,,,69,127
54823,note_off,107,0,0,,10,,,69,127
54823,note_off,0,0,0,,3,,,75,127
54829,note_on,6,0,0,,8,,,68,127
54829,note_on,0,0,0,,3,,,75,127
54936,note_off,107,0,0,,8,,,68,127
54942,note_on,6,0,0,,6,,,66,127
55049,note_off,107,0,0,,6,,,66,127
55049,note_off,0,0,0,,3,,,75,127
55050,note_off,1,0,0,,8,,,44,127
55055,note_on,5,0,0,,1,,,49,127
55055,note_on,0,0,0,,4,,,76,127
55126,note_off,71,0,0,,1,,,49,127
55131,note_on,5,0,0,,4,,,52,127
55202,note_off,71,0,0,,4,,,52,127
55207,note_on,5,0,0,,8,,,56,127
55276,note_off,69,0,0,,4,,,76,127
55277,note_off,1,0,0,,8,,,56,127
55282,note_on,5,0,0,,1,,,61,127
55282,note_on,0,0,0,,8,,,68,127
55502,note_off,220,0,0,,8,,,68,127
55502,note_off,0,0,0,,1,,,61,127
55508,note_on,6,0,0,,8,,,80,127
55508,note_on,0,0,0,,4,,,76,127
55728,note_off,220,0,0,,4,,,76,127
55728,note_off,0,0,0,,8,,,80,127
55734,note_on,6,0,0,,8,,,44,127
55734,note_on,0,0,0,,3,,,75,127
55847,note_on,113,0,0,,1,,,73,127
55954,note_off,107,0,0,,1,,,73,127
55960,note_on,6,0,0,,0,,,72,127
56067,note_off,107,0,0,,0,,,72,127
56073,note_on,6,0,0,,10,,,69,127
56180,note_off,107,0,0,,10,,,69,127
56180,note_off,0,0,0,,3,,,75,127
56186,note_on,6,0,0,,3,,,75,127
56186,note_on,0,0,0,,8,,,68,127
56293,note_off,107,0,0,,8,,,68,127
56299,note_on,6,0,0,,6,,,66,127
56406,note_off,107,0,0,,6,,,66,127
56406,note_off,0,0,0,,3,,,75,127
56407,note_off,1,0,0,,8,,,44,127
56412,note_on,5,0,0,,1,,,49,127
56412,note_on,0,0,0,,4,,,76,127
56483,note_off,71,0,0,,1,,,49,127
56488,note_on,5,0,0,,4,,,52,127
56559,note_off,71,0,0,,4,,,52,127
56564,note_on,5,0,0,,8,,,56,127
56633,note_off,69,0,0,,4,,,76,127
56634,note_off,1,0,0,,8,,,56,127
56639,note_on,5,0,0,,1,,,61,127
56639,note_on,0,0,0,,8,,,68,127
56859,note_off,220,0,0,,8,,,68,127
56859,note_off,0,0,0,,1,,,61,127
56865,note_on,6,0,0,,8,,,80,127
56865,note_on,0,0,0,,4,,,76,127
57085,note_off,220,0,0,,8,,,80,127
57091,note_on,6,0,0,,6,,,42,127
57198,note_off,107,0,0,,4,,,76,127
57204,note_on,6,0,0,,4,,,76,127
57311,note_off,107,0,0,,4,,,76,127
57317,note_on,6,0,0,,6,,,66,127
57430,note_on,113,0,0,,4,,,76,127
57537,note_off,107,0,0,,4,,,76,127
57543,note_on,6,0,0,,2,,,74,127
57650,note_off,107,0,0,,2,,,74,127
57656,note_on,6,0,0,,1,,,73,127
57763,note_off,107,0,0,,1,,,73,127
57763,note_off,0,0,0,,6,,,66,127
57764,note_off,1,0,0,,6,,,42,127
57769,note_on,5,0,0,,12,,,47,127
57769,note_on,0,0,0,,2,,,74,127
57840,note_off,71,0,0,,12,,,47,127
57845,note_on,5,0,0,,2,,,50,127
57916,note_off,71,0,0,,2,,,50,127
57921,note_on,5,0,0,,6,,,54,127
57990,note_off,69,0,0,,2,,,74,127
57991,note_off,1,0,0,,6,,,54,127
57996,note_on,5,0,0,,12,,,59,127
57996,note_on,0,0,0,,6,,,66,127
58216,note_off,220,0,0,,12,,,59,127
58222,note_on,6,0,0,,6,,,78,127
58329,note_off,107,0,0,,6,,,66,127
58335,note_on,6,0,0,,2,,,74,127
58442,note_off,107,0,0,,2,,,74,127
58442,note_off,0,0,0,,6,,,78,127
58448,note_on,6,0,0,,6,,,42,127
58448,note_on,0,0,0,,1,,,73,127
58561,note_on,113,0,0,,12,,,71,127
58668,note_off,107,0,0,,12,,,71,127
58674,note_on,6,0,0,,11,,,70,127
58781,note_off,107,0,0,,11,,,70,127
58787,note_on,6,0,0,,7,,,67,127
58894,note_off,107,0,0,,7,,,67,127
58894,note_off,0,0,0,,1,,,73,127
58900,note_on,6,0,0,,1,,,73,127
58900,note_on,0,0,0,,6,,,66,127
59007,note_off,107,0,0,,6,,,66,127
59013,note_on,6,0,0,,4,,,64,127
59120,note_off,107,0,0,,1,,,73,127
59121,note_off,1,0,0,,6,,,42,127
59125,note_off,4,0,0,,4,,,64,127
59126,note_on,1,0,0,,12,,,47,127
59126,note_on,0,0,0,,2,,,74,127
59197,note_off,71,0,0,,12,,,47,127
59202,note_on,5,0,0,,2,,,50,127
59273,note_off,71,0,0,,2,,,50,127
59278,note_on,5,0,0,,6,,,54,127
59347,note_off,69,0,0,,2,,,74,127
59348,note_off,1,0,0,,6,,,54,127
59353,note_on,5,0,0,,12,,,59,127
59353,note_on,0,0,0,,6,,,66,127
59573,note_off,220,0,0,,12,,,59,127
59579,note_on,6,0,0,,6,,,78,127
59686,note_off,107,0,0,,6,,,66,127
59692,note_on,6,0,0,,2,,,74,127
59799,note_off,107,0,0,,2,,,74,127
59799,note_off,0,0,0,,6,,,78,127
59805,note_on,6,0,0,,6,,,42,127
59805,note_on,0,0,0,,1,,,73,127
59918,note_on,113,0,0,,12,,,71,127
60025,note_off,107,0,0,,12,,,71,127
60031,note_on,6,0,0,,11,,,70,127
60138,note_off,107,0,0,,11,,,70,127
60144,note_on,6,0,0,,7,,,67,127
60251,note_off,107,0,0,,7,,,67,127
60251,note_off,0,0,0,,1,,,73,127
60257,note_on,6,0,0,,1,,,73,127
60257,note_on,0,0,0,,6,,,66,127
60364,note_off,107,0,0,,6,,,66,127
60370,note_on,6,0,0,,4,,,64,127
60477,note_off,107,0,0,,1,,,73,127
60478,note_off,1,0,0,,6,,,42,127
60479,note_off,1,0,0,,4,,,64,127
60483,note_on,4,0,0,,12,,,47,127
60483,note_on,0,0,0,,2,,,74,127
60554,note_off,71,0,0,,12,,,47,127
60559,note_on,5,0,0,,2,,,50,127
60630,note_off,71,0,0,,2,,,50,127
60635,note_on,5,0,0,,6,,,54,127
60704,note_off,69,0,0,,2,,,74,127
60705,note_off,1,0,0,,6,,,54,127
60710,note_on,5,0,0,,12,,,59,127
60710,note_on,0,0,0,,6,,,66,127
60930,note_off,220,0,0,,6,,,66,127
60930,note_off,0,0,0,,12,,,59,127
60936,note_on,6,0,0,,6,,,78,127
60936,note_on,0,0,0,,2,,,74,127
61156,note_off,220,0,0,,6,,,78,127
61162,note_on,6,0,0,,4,,,40,127
61269,note_off,107,0,0,,2,,,74,127
61275,note_on,6,0,0,,2,,,74,127
61382,note_off,107,0,0,,2,,,74,127
61388,note_on,6,0,0,,4,,,64,127
61501,note_on,113,0,0,,2,,,74,127
61608,note_off,107,0,0,,2,,,74,127
61614,note_on,6,0,0,,1,,,73,127
61721,note_off,107,0,0,,1,,,73,127
61727,note_on,6,0,0,,12,,,71,127
61834,note_off,107,0,0,,12,,,71,127
61834,note_off,0,0,0,,4,,,64,127
61835,note_off,1,0,0,,4,,,40,127
61840,note_on,5,0,0,,10,,,45,127
61840,note_on,0,0,0,,1,,,73,127
61911,note_off,71,0,0,,10,,,45,127
61916,note_on,5,0,0,,1,,,49,127
61987,note_off,71,0,0,,1,,,49,127
61992,note_on,5,0,0,,4,,,52,127
62061,note_off,69,0,0,,1,,,73,127
62062,note_off,1,0,0,,4,,,52,127
62067,note_on,5,0,0,,10,,,57,127
62067,note_on,0,0,0,,4,,,64,127
62287,note_off,220,0,0,,10,,,57,127
62293,note_on,6,0,0,,4,,,76,127
62400,note_off,107,0,0,,4,,,64,127
62406,note_on,6,0,0,,1,,,73,127
62513,note_off,107,0,0,,1,,,73,127
62513,note_off,0,0,0,,4,,,76,127
62519,note_on,6,0,0,,4,,,40,127
62519,note_on,0,0,0,,12,,,71,127
62632,note_on,113,0,0,,10,,,69,127
62739,note_off,107,0,0,,10,,,69,127
62745,note_on,6,0,0,,8,,,68,127
62852,note_off,107,0,0,,8,,,68,127
62858,note_on,6,0,0,,6,,,66,127
62965,note_off,107,0,0,,6,,,66,127
62965,note_off,0,0,0,,12,,,71,127
62971,note_on,6,0,0,,12,,,71,127
62971,note_on,0,0,0,,4,,,64,127
63078,note_off,107,0,0,,4,,,64,127
63084,note_on,6,0,0,,2,,,62,127
63191,note_off,107,0,0,,2,,,62,127
63191,note_off,0,0,0,,12,,,71,127
63192,note_off,1,0,0,,4,,,40,127
63197,note_on,5,0,0,,10,,,45,127
63197,note_on,0,0,0,,10,,,69,127
63197,note_on,0,0,0,,1,,,61,127
63268,note_off,71,0,0,,10,,,45,127
63273,note_on,5,0,0,,1,,,49,127
63344,note_off,71,0,0,,1,,,49,127
63349,note_on,5,0,0,,4,,,52,127
63418,note_off,69,0,0,,1,,,61,127
63418,note_off,0,0,0,,10,,,69,127
63419,note_off,1,0,0,,4,,,52,127
63424,note_on,5,0,0,,10,,,57,127
63424,note_on,0,0,0,,4,,,64,127
63644,note_off,220,0,0,,10,,,57,127
63650,note_on,6,0,0,,4,,,76,127
63757,note_off,107,0,0,,4,,,64,127
63763,note_on,6,0,0,,10,,,69,127
63870,note_off,107,0,0,,10,,,69,127
63870,note_off,0,0,0,,4,,,76,127
63876,note_on,6,0,0,,4,,,40,127
63876,note_on,0,0,0,,8,,,68,127
63989,note_on,113,0,0,,6,,,66,127
64096,note_off,107,0,0,,6,,,66,127
64102,note_on,6,0,0,,4,,,64,127
64209,note_off,107,0,0,,4,,,64,127
64215,note_on,6,0,0,,2,,,62,127
64322,note_off,107,0,0,,2,,,62,127
64322,note_off,0,0,0,,8,,,68,127
64328,note_on,6,0,0,,1,,,61,127
64328,note_on,0,0,0,,8,,,68,127
64439,note_off,111,0,0,,1,,,61,127
64441,note_on,2,0,0,,12,,,59,127
64548,note_off,107,0,0,,12,,,59,127
64548,note_off,0,0,0,,8,,,68,127
64554,note_on,6,0,0,,10,,,69,127
64554,note_on,0,0,0,,1,,,61,127
64662,note_off,108,0,0,,4,,,40,127
64667,note_on,5,0,0,,10,,,45,127
64723,note_on,56,0,0,,1,,,49,127
64742,note_off,19,0,0,,10,,,45,127
64780,note_on,38,0,0,,4,,,52,127
64799,note_off,19,0,0,,1,,,49,127
65005,note_off,206,0,0,,4,,,52,127
65006,note_on,1,0,0,,4,,,76,127
65227,note_off,221,0,0,,1,,,61,127
65227,note_off,0,0,0,,10,,,69,127
65232,note_on,5,0,0,,6,,,66,127
65232,note_on,0,0,0,,3,,,63,127
65232,note_on,0,0,0,,10,,,69,127
65232,note_on,0,0,0,,12,,,59,127
65339,note_off,107,0,0,,4,,,76,127
65345,note_on,6,0,0,,12,,,47,127
65401,note_on,56,0,0,,3,,,51,127
65420,note_off,19,0,0,,12,,,47,127
65458,note_on,38,0,0,,6,,,54,127
65477,note_off,19,0,0,,3,,,51,127
65683,note_off,206,0,0,,6,,,54,127
65684,note_on,1,0,0,,6,,,78,127
65905,note_off,221,0,0,,12,,,59,127
65905,note_off,0,0,0,,10,,,69,127
65905,note_off,0,0,0,,3,,,63,127
65905,note_off,0,0,0,,6,,,66,127
65910,note_on,5,0,0,,4,,,64,127
65910,note_on,0,0,0,,12,,,71,127
65910,note_on,0,0,0,,8,,,68,127
66017,note_off,107,0,0,,6,,,78,127
66023,note_on,6,0,0,,4,,,52,127
66079,note_on,56,0,0,,8,,,56,127
66098,note_off,19,0,0,,4,,,52,127
66136,note_on,38,0,0,,12,,,59,127
66155,note_off,19,0,0,,8,,,56,127
66361,note_off,206,0,0,,12,,,59,127
66362,note_on,1,0,0,,8,,,80,127
66583,note_off,221,0,0,,8,,,68,127
66583,note_off,0,0,0,,12,,,71,127
66583,note_off,0,0,0,,4,,,64,127
66588,note_on,5,0,0,,6,,,66,127
66588,note_on,0,0,0,,4,,,64,127
66588,note_on,0,0,0,,1,,,73,127
66588,note_on,0,0,0,,11,,,70,127
66695,note_off,107,0,0,,8,,,80,127
66701,note_on,6,0,0,,6,,,54,127
66757,note_on,56,0,0,,11,,,58,127
66776,note_off,19,0,0,,6,,,54,127
66814,note_on,38,0,0,,1,,,61,127
66833,note_off,19,0,0,,11,,,58,127
67039,note_off,206,0,0,,1,,,61,127
67040,note_on,1,0,0,,11,,,82,127
67260,note_off,220,0,0,,11,,,82,127
67261,note_off,1,0,0,,11,,,70,127
67261,note_off,0,0,0,,1,,,73,127
67261,note_off,0,0,0,,4,,,64,127
67261,note_off,0,0,0,,6,,,66,127
67266,note_on,5,0,0,,12,,,47,127
67266,note_on,0,0,0,,12,,,71,127
67379,note_on,113,0,0,,4,,,64,127
67486,note_off,107,0,0,,4,,,64,127
67492,note_on,6,0,0,,6,,,66,127
67599,note_off,107,0,0,,6,,,66,127
67599,note_off,0,0,0,,12,,,47,127
67605,note_on,6,0,0,,10,,,57,127
67605,note_on,0,0,0,,3,,,63,127
67712,note_off,107,0,0,,3,,,63,127
67712,note_off,0,0,0,,10,,,57,127
67718,note_on,6,0,0,,8,,,56,127
67718,note_on,0,0,0,,4,,,64,127
67825,note_off,107,0,0,,4,,,64,127
67831,note_on,6,0,0,,8,,,68,127
67938,note_off,107,0,0,,8,,,68,127
67938,note_off,0,0,0,,8,,,56,127
67938,note_off,0,0,0,,12,,,71,127
67944,note_on,6,0,0,,10,,,57,127
67944,note_on,0,0,0,,6,,,66,127
68051,note_off,107,0,0,,6,,,66,127
68057,note_on,6,0,0,,10,,,69,127
68164,note_off,107,0,0,,10,,,69,127
68164,note_off,0,0,0,,10,,,57,127
68170,note_on,6,0,0,,12,,,59,127
68170,note_on,0,0,0,,8,,,68,127
68277,note_off,107,0,0,,8,,,68,127
68283,note_on,6,0,0,,12,,,71,127
68390,note_off,107,0,0,,12,,,71,127
68396,note_on,6,0,0,,12,,,47,127
68396,note_on,0,0,0,,4,,,64,127
68503,note_off,107,0,0,,4,,,64,127
68509,note_on,6,0,0,,3,,,63,127
68616,note_off,107,0,0,,3,,,63,127
68616,note_off,0,0,0,,12,,,47,127
68617,note_off,1,0,0,,12,,,59,127
68622,note_on,5,0,0,,4,,,52,127
68622,note_on,0,0,0,,4,,,64,127
68729,note_off,107,0,0,,4,,,64,127
68735,note_on,6,0,0,,7,,,67,127
68842,note_off,107,0,0,,7,,,67,127
68842,note_off,0,0,0,,4,,,52,127
68848,note_on,6,0,0,,10,,,57,127
68848,note_on,0,0,0,,6,,,66,127
68955,note_off,107,0,0,,6,,,66,127
68961,note_on,6,0,0,,10,,,69,127
69068,note_off,107,0,0,,10,,,69,127
69068,note_off,0,0,0,,10,,,57,127
69074,note_on,6,0,0,,12,,,59,127
69074,note_on,0,0,0,,7,,,67,127
69181,note_off,107,0,0,,7,,,67,127
69187,note_on,6,0,0,,6,,,66,127
69294,note_off,107,0,0,,6,,,66,127
69294,note_off,0,0,0,,12,,,59,127
69300,note_on,6,0,0,,0,,,60,127
69300,note_on,0,0,0,,4,,,64,127
69413,note_on,113,0,0,,7,,,67,127
69520,note_off,107,0,0,,7,,,67,127
69520,note_off,0,0,0,,0,,,60,127
69524,note_off,4,0,0,,4,,,64,127
69526,note_on,2,0,0,,10,,,57,127
69526,note_on,0,0,0,,6,,,66,127
69633,note_off,107,0,0,,6,,,66,127
69639,note_on,6,0,0,,10,,,69,127
69746,note_off,107,0,0,,10,,,69,127
69746,note_off,0,0,0,,10,,,57,127
69752,note_on,6,0,0,,12,,,59,127
69752,note_on,0,0,0,,7,,,67,127
69859,note_off,107,0,0,,7,,,67,127
69865,note_on,6,0,0,,6,,,66,127
69972,note_off,107,0,0,,6,,,66,127
69972,note_off,0,0,0,,12,,,59,127
69978,note_on,6,0,0,,0,,,60,127
69978,note_on,0,0,0,,4,,,64,127
70091,note_on,113,0,0,,0,,,72,127
70198,note_off,107,0,0,,0,,,72,127
70198,note_off,0,0,0,,0,,,60,127
70202,note_off,4,0,0,,4,,,64,127
70204,note_on,2,0,0,,10,,,57,127
70204,note_on,0,0,0,,6,,,66,127
70311,note_off,107,0,0,,6,,,66,127
70317,note_on,6,0,0,,10,,,69,127
70424,note_off,107,0,0,,10,,,69,127
70424,note_off,0,0,0,,10,,,57,127
70430,note_on,6,0,0,,12,,,59,127
70430,note_on,0,0,0,,7,,,67,127
70537,note_off,107,0,0,,7,,,67,127
70543,note_on,6,0,0,,6,,,66,127
70650,note_off,107,0,0,,6,,,66,127
70650,note_off,0,0,0,,12,,,59,127
70656,note_on,6,0,0,,0,,,60,127
70656,note_on,0,0,0,,4,,,64,127
70769,note_on,113,0,0,,0,,,72,127
70876,note_off,107,0,0,,0,,,72,127
70876,note_off,0,0,0,,0,,,60,127
70880,note_off,4,0,0,,4,,,64,127
70882,note_on,2,0,0,,10,,,57,127
70882,note_on,0,0,0,,6,,,66,127
70989,note_off,107,0,0,,6,,,66,127
70995,note_on,6,0,0,,10,,,69,127
71102,note_off,107,0,0,,10,,,69,127
71102,note_off,0,0,0,,10,,,57,127
71108,note_on,6,0,0,,12,,,59,127
71108,note_on,0,0,0,,7,,,67,127
71215,note_off,107,0,0,,7,,,67,127
71221,note_on,6,0,0,,6,,,66,127
71328,note_off,107,0,0,,6,,,66,127
71328,note_off,0,0,0,,12,,,59,127
71334,note_on,6,0,0,,0,,,60,127
71334,note_on,0,0,0,,4,,,64,127
71447,note_on,113,0,0,,4,,,76,127
71554,note_off,107,0,0,,4,,,76,127
71554,note_off,0,0,0,,0,,,60,127
71558,note_off,4,0,0,,4,,,64,127
71560,note_on,2,0,0,,10,,,57,127
71560,note_on,0,0,0,,6,,,66,127
71667,note_off,107,0,0,,6,,,66,127
71673,note_on,6,0,0,,10,,,69,127
71780,note_off,107,0,0,,10,,,69,127
71780,note_off,0,0,0,,10,,,57,127
71786,note_on,6,0,0,,12,,,59,127
71786,note_on,0,0,0,,7,,,67,127
71893,note_off,107,0,0,,7,,,67,127
71899,note_on,6,0,0,,6,,,66,127
72006,note_off,107,0,0,,6,,,66,127
72006,note_off,0,0,0,,12,,,59,127
72012,note_on,6,0,0,,0,,,60,127
72012,note_on,0,0,0,,4,,,64,127
72125,note_on,113,0,0,,4,,,76,127
72232,note_off,107,0,0,,4,,,76,127
72232,note_off,0,0,0,,0,,,60,127
72236,note_off,4,0,0,,4,,,64,127
72238,note_on,2,0,0,,10,,,57,127
72238,note_on,0,0,0,,6,,,66,127
72345,note_off,107,0,0,,6,,,66,127
72351,note_on,6,0,0,,10,,,69,127
72458,note_off,107,0,0,,10,,,69,127
72458,note_off,0,0,0,,10,,,57,127
72464,note_on,6,0,0,,12,,,59,127
72464,note_on,0,0,0,,7,,,67,127
72571,note_off,107,0,0,,7,,,67,127
72577,note_on,6,0,0,,6,,,66,127
72684,note_off,107,0,0,,6,,,66,127
72684,note_off,0,0,0,,12,,,59,127
72690,note_on,6,0,0,,0,,,60,127
72690,note_on,0,0,0,,4,,,64,127
72803,note_on,113,0,0,,4,,,76,127
72910,note_off,107,0,0,,4,,,76,127
72914,note_off,4,0,0,,4,,,64,127
72916,note_on,2,0,0,,2,,,74,127
73023,note_off,107,0,0,,2,,,74,127
73029,note_on,6,0,0,,0,,,72,127
73136,note_off,107,0,0,,0,,,72,127
73137,note_off,1,0,0,,0,,,60,127
73142,note_on,5,0,0,,1,,,61,127
73142,note_on,0,0,0,,12,,,71,127
73249,note_off,107,0,0,,12,,,71,127
73255,note_on,6,0,0,,11,,,70,127
73362,note_off,107,0,0,,11,,,70,127
73362,note_off,0,0,0,,1,,,61,127
73368,note_on,6,0,0,,6,,,66,127
73368,note_on,0,0,0,,3,,,63,127
73368,note_on,0,0,0,,12,,,71,127
73475,note_off,107,0,0,,12,,,71,127
73481,note_on,6,0,0,,12,,,83,127
73588,note_off,107,0,0,,12,,,83,127
73594,note_on,6,0,0,,10,,,81,127
73701,note_off,107,0,0,,10,,,81,127
73707,note_on,6,0,0,,8,,,80,127
73814,note_off,107,0,0,,8,,,80,127
73815,note_off,1,0,0,,3,,,63,127
73815,note_off,0,0,0,,6,,,66,127
73820,note_on,5,0,0,,8,,,68,127
73820,note_on,0,0,0,,4,,,64,127
73820,note_on,0,0,0,,6,,,78,127
73927,note_off,107,0,0,,6,,,78,127
73933,note_on,6,0,0,,4,,,76,127
74040,note_off,107,0,0,,4,,,76,127
74040,note_off,0,0,0,,4,,,64,127
74040,note_off,0,0,0,,8,,,68,127
74046,note_on,6,0,0,,10,,,57,127
74046,note_on,0,0,0,,6,,,78,127
74153,note_off,107,0,0,,6,,,78,127
74159,note_on,6,0,0,,10,,,81,127
74266,note_off,107,0,0,,10,,,81,127
74266,note_off,0,0,0,,10,,,57,127
74272,note_on,6,0,0,,12,,,59,127
74272,note_on,0,0,0,,8,,,80,127
74379,note_off,107,0,0,,8,,,80,127
74385,note_on,6,0,0,,6,,,78,127
74492,note_off,107,0,0,,6,,,78,127
74498,note_on,6,0,0,,12,,,47,127
74498,note_on,0,0,0,,4,,,76,127
74605,note_off,107,0,0,,4,,,76,127
74611,note_on,6,0,0,,3,,,75,127
74718,note_off,107,0,0,,3,,,75,127
74718,note_off,0,0,0,,12,,,47,127
74719,note_off,1,0,0,,12,,,59,127
74724,note_on,5,0,0,,4,,,52,127
74724,note_on,0,0,0,,4,,,76,127
74831,note_off,107,0,0,,4,,,76,127
74837,note_on,6,0,0,,12,,,71,127
74944,note_off,107,0,0,,12,,,71,127
74944,note_off,0,0,0,,4,,,52,127
74950,note_on,6,0,0,,10,,,57,127
74950,note_on,0,0,0,,1,,,73,127
75057,note_off,107,0,0,,1,,,73,127
75063,note_on,6,0,0,,10,,,69,127
75170,note_off,107,0,0,,10,,,69,127
75170,note_off,0,0,0,,10,,,57,127
75176,note_on,6,0,0,,3,,,51,127
75176,note_on,0,0,0,,12,,,71,127
75283,note_off,107,0,0,,12,,,71,127
75289,note_on,6,0,0,,6,,,66,127
75396,note_off,107,0,0,,6,,,66,127
75396,note_off,0,0,0,,3,,,51,127
75402,note_on,6,0,0,,4,,,52,127
75402,note_on,0,0,0,,8,,,68,127
75509,note_off,107,0,0,,8,,,68,127
75515,note_on,6,0,0,,4,,,64,127
75622,note_off,107,0,0,,4,,,64,127
75628,note_on,6,0,0,,8,,,68,127
75735,note_off,107,0,0,,8,,,68,127
75735,note_off,0,0,0,,4,,,52,127
75741,note_on,6,0,0,,6,,,54,127
75741,note_on,0,0,0,,10,,,69,127
75848,note_off,107,0,0,,10,,,69,127
75848,note_off,0,0,0,,6,,,54,127
75854,note_on,6,0,0,,8,,,56,127
75854,note_on,0,0,0,,12,,,71,127
75961,note_off,107,0,0,,12,,,71,127
75967,note_on,6,0,0,,4,,,64,127
76074,note_off,107,0,0,,4,,,64,127
76074,note_off,0,0,0,,8,,,56,127
76080,note_on,6,0,0,,10,,,57,127
76080,note_on,0,0,0,,6,,,66,127
76187,note_off,107,0,0,,6,,,66,127
76193,note_on,6,0,0,,10,,,69,127
76300,note_off,107,0,0,,10,,,69,127
76300,note_off,0,0,0,,10,,,57,127
76306,note_on,6,0,0,,12,,,59,127
76306,note_on,0,0,0,,8,,,68,127
76413,note_off,107,0,0,,8,,,68,127
76419,note_on,6,0,0,,6,,,66,127
76526,note_off,107,0,0,,6,,,66,127
76532,note_on,6,0,0,,12,,,47,127
76532,note_on,0,0,0,,4,,,64,127
76639,note_off,107,0,0,,4,,,64,127
76645,note_on,6,0,0,,3,,,63,127
76752,note_off,107,0,0,,3,,,63,127
76752,note_off,0,0,0,,12,,,47,127
76753,note_off,1,0,0,,12,,,59,127
76758,note_on,5,0,0,,4,,,52,127
76758,note_on,0,0,0,,4,,,64,127
76758,note_on,0,0,0,,8,,,68,127
76865,note_off,107,0,0,,4,,,64,127
76871,note_on,6,0,0,,12,,,59,127
76978,note_off,107,0,0,,12,,,59,127
76978,note_off,0,0,0,,8,,,68,127
76978,note_off,0,0,0,,4,,,52,127
76984,note_on,6,0,0,,10,,,45,127
76984,note_on,0,0,0,,1,,,61,127
76984,note_on,0,0,0,,10,,,69,127
77091,note_off,107,0,0,,1,,,61,127
77097,note_on,6,0,0,,10,,,57,127
77204,note_off,107,0,0,,10,,,57,127
77204,note_off,0,0,0,,10,,,69,127
77204,note_off,0,0,0,,10,,,45,127
77210,note_on,6,0,0,,12,,,47,127
77210,note_on,0,0,0,,3,,,63,127
77210,note_on,0,0,0,,10,,,69,127
77317,note_off,107,0,0,,3,,,63,127
77323,note_on,6,0,0,,12,,,59,127
77430,note_off,107,0,0,,12,,,59,127
77430,note_off,0,0,0,,10,,,69,127
77430,note_off,0,0,0,,12,,,47,127
77436,note_on,6,0,0,,4,,,52,127
77436,note_on,0,0,0,,4,,,64,127
77436,note_on,0,0,0,,8,,,68,127
77543,note_off,107,0,0,,4,,,64,127
77549,note_on,6,0,0,,12,,,59,127
77656,note_off,107,0,0,,12,,,59,127
77656,note_off,0,0,0,,8,,,68,127
77656,note_off,0,0,0,,4,,,52,127
77662,note_on,6,0,0,,10,,,45,127
77662,note_on,0,0,0,,1,,,61,127
77662,note_on,0,0,0,,10,,,69,127
77769,note_off,107,0,0,,1,,,61,127
77775,note_on,6,0,0,,10,,,57,127
77882,note_off,107,0,0,,10,,,57,127
77882,note_off,0,0,0,,10,,,69,127
77882,note_off,0,0,0,,10,,,45,127
77888,note_on,6,0,0,,12,,,47,127
77888,note_on,0,0,0,,3,,,63,127
77888,note_on,0,0,0,,10,,,69,127
77995,note_off,107,0,0,,3,,,63,127
78001,note_on,6,0,0,,12,,,59,127
78108,note_off,107,0,0,,12,,,59,127
78108,note_off,0,0,0,,10,,,69,127
78108,note_off,0,0,0,,12,,,47,127
78114,note_on,6,0,0,,4,,,52,127
78114,note_on,0,0,0,,4,,,64,127
78114,note_on,0,0,0,,8,,,68,127
78221,note_off,107,0,0,,4,,,64,127
78227,note_on,6,0,0,,12,,,59,127
78334,note_off,107,0,0,,12,,,59,127
78334,note_off,0,0,0,,8,,,68,127
78334,note_off,0,0,0,,4,,,52,127
78340,note_on,6,0,0,,10,,,45,127
78340,note_on,0,0,0,,1,,,61,127
78340,note_on,0,0,0,,10,,,69,127
78447,note_off,107,0,0,,1,,,61,127
78453,note_on,6,0,0,,10,,,57,127
78560,note_off,107,0,0,,10,,,57,127
78560,note_off,0,0,0,,10,,,69,127
78560,note_off,0,0,0,,10,,,45,127
78566,note_on,6,0,0,,12,,,47,127
78566,note_on,0,0,0,,3,,,63,127
78566,note_on,0,0,0,,10,,,69,127
78673,note_off,107,0,0,,3,,,63,127
78679,note_on,6,0,0,,12,,,59,127
78786,note_off,107,0,0,,12,,,59,127
78786,note_off,0,0,0,,10,,,69,127
78786,note_off,0,0,0,,12,,,47,127
78792,note_on,6,0,0,,4,,,52,127
78792,note_on,0,0,0,,4,,,64,127
78792,note_on,0,0,0,,8,,,68,127
78899,note_off,107,0,0,,8,,,68,127
78899,note_off,0,0,0,,4,,,64,127
78905,note_on,6,0,0,,4,,,64,127
79012,note_off,107,0,0,,4,,,64,127
79018,note_on,6,0,0,,8,,,68,127
79125,note_off,107,0,0,,8,,,68,127
79125,note_off,0,0,0,,4,,,52,127
79131,note_on,6,0,0,,6,,,54,127
79131,note_on,0,0,0,,12,,,71,127
79238,note_off,107,0,0,,12,,,71,127
79238,note_off,0,0,0,,6,,,54,127
79244,note_on,6,0,0,,8,,,56,127
79244,note_on,0,0,0,,4,,,76,127
79351,note_off,107,0,0,,4,,,76,127
79357,note_on,6,0,0,,12,,,71,127
79464,note_off,107,0,0,,12,,,71,127
79464,note_off,0,0,0,,8,,,56,127
79470,note_on,6,0,0,,10,,,57,127
79470,note_on,0,0,0,,1,,,73,127
79577,note_off,107,0,0,,1,,,73,127
79583,note_on,6,0,0,,10,,,69,127
79690,note_off,107,0,0,,10,,,69,127
79690,note_off,0,0,0,,10,,,57,127
79696,note_on,6,0,0,,12,,,59,127
79696,note_on,0,0,0,,8,,,68,127
79803,note_off,107,0,0,,8,,,68,127
79809,note_on,6,0,0,,4,,,76,127
79916,note_off,107,0,0,,4,,,76,127
79922,note_on,6,0,0,,12,,,47,127
79922,note_on,0,0,0,,6,,,66,127
80029,note_off,107,0,0,,6,,,66,127
80035,note_off,6,0,0,,12,,,59,127
80035,note_on,0,0,0,,3,,,75,127
80142,note_off,107,0,0,,12,,,47,127
80148,note_on,6,0,0,,4,,,40,127
80255,note_off,107,0,0,,3,,,75,127
80261,note_on,6,0,0,,4,,,76,127
80368,note_off,107,0,0,,4,,,76,127
80374,note_on,6,0,0,,11,,,70,127
80481,note_off,107,0,0,,11,,,70,127
80487,note_on,6,0,0,,12,,,71,127
80594,note_off,107,0,0,,12,,,71,127
80600,note_on,6,0,0,,6,,,66,127
80707,note_off,107,0,0,,6,,,66,127
80713,note_on,6,0,0,,8,,,68,127
80820,note_off,107,0,0,,8,,,68,127
80826,note_on,6,0,0,,3,,,63,127
80933,note_off,107,0,0,,3,,,63,127
80939,note_on,6,0,0,,4,,,64,127
81046,note_off,107,0,0,,4,,,64,127
81052,note_on,6,0,0,,11,,,58,127
81159,note_off,107,0,0,,11,,,58,127
81165,note_on,6,0,0,,12,,,59,127
81272,note_off,107,0,0,,12,,,59,127
81278,note_on,6,0,0,,6,,,54,127
81385,note_off,107,0,0,,6,,,54,127
81391,note_on,6,0,0,,8,,,56,127
81498,note_off,107,0,0,,8,,,56,127
81504,note_on,6,0,0,,3,,,51,127
81611,note_off,107,0,0,,3,,,51,127
81617,note_on,6,0,0,,4,,,52,127
81724,note_off,107,0,0,,4,,,52,127
81730,note_on,6,0,0,,6,,,54,127
81837,note_off,107,0,0,,6,,,54,127
81843,note_on,6,0,0,,8,,,56,127
81950,note_off,107,0,0,,8,,,56,127
81956,note_on,6,0,0,,10,,,57,127
82063,note_off,107,0,0,,10,,,57,127
82069,note_on,6,0,0,,12,,,59,127
82176,note_off,107,0,0,,12,,,59,127
82177,note_off,1,0,0,,4,,,40,127
82182,note_on,5,0,0,,10,,,45,127
82182,note_on,0,0,0,,1,,,61,127
82295,note_on,113,0,0,,4,,,52,127
82402,note_off,107,0,0,,1,,,61,127
82402,note_off,0,0,0,,10,,,45,127
82408,note_on,6,0,0,,12,,,47,127
82408,note_on,0,0,0,,12,,,59,127
82515,note_off,107,0,0,,12,,,59,127
82520,note_off,5,0,0,,4,,,52,127
82521,note_on,1,0,0,,10,,,57,127
82628,note_off,107,0,0,,10,,,57,127
82634,note_on,6,0,0,,8,,,56,127
82741,note_off,107,0,0,,8,,,56,127
82747,note_on,6,0,0,,6,,,54,127
82747,note_on,0,0,0,,3,,,51,127
82854,note_off,107,0,0,,3,,,51,127
82854,note_off,0,0,0,,6,,,54,127
82855,note_off,1,0,0,,12,,,47,127
82860,note_on,5,0,0,,4,,,40,127
82860,note_on,0,0,0,,8,,,56,127
82860,note_on,0,0,0,,4,,,52,127
82912,note_off,52,0,0,,4,,,52,127
82912,note_off,0,0,0,,8,,,56,127
82917,note_on,5,0,0,,6,,,54,127
82969,note_off,52,0,0,,6,,,54,127
82974,note_on,5,0,0,,8,,,56,127
83026,note_off,52,0,0,,8,,,56,127
83031,note_on,5,0,0,,10,,,57,127
83083,note_off,52,0,0,,10,,,57,127
83088,note_on,5,0,0,,12,,,59,127
83195,note_off,107,0,0,,12,,,59,127
83201,note_on,6,0,0,,4,,,52,127
83308,note_off,107,0,0,,4,,,52,127
83309,note_off,1,0,0,,4,,,40,127
83314,note_on,5,0,0,,10,,,45,127
83314,note_on,0,0,0,,1,,,61,127
83421,note_off,107,0,0,,1,,,61,127
83427,note_on,6,0,0,,4,,,52,127
83534,note_off,107,0,0,,4,,,52,127
83534,note_off,0,0,0,,10,,,45,127
83540,note_on,6,0,0,,12,,,47,127
83540,note_on,0,0,0,,12,,,59,127
83592,note_off,52,0,0,,12,,,59,127
83597,note_on,5,0,0,,1,,,61,127
83649,note_off,52,0,0,,1,,,61,127
83654,note_on,5,0,0,,3,,,63,127
83706,note_off,52,0,0,,3,,,63,127
83711,note_on,5,0,0,,4,,,64,127
83763,note_off,52,0,0,,4,,,64,127
83768,note_on,5,0,0,,6,,,66,127
83875,note_off,107,0,0,,6,,,66,127
83881,note_on,6,0,0,,12,,,59,127
83988,note_off,107,0,0,,12,,,59,127
83989,note_off,1,0,0,,12,,,47,127
83994,note_on,5,0,0,,4,,,52,127
83994,note_on,0,0,0,,8,,,68,127
84101,note_off,107,0,0,,8,,,68,127
84107,note_on,6,0,0,,12,,,59,127
84214,note_off,107,0,0,,12,,,59,127
84214,note_off,0,0,0,,4,,,52,127
84220,note_on,6,0,0,,4,,,40,127
84220,note_on,0,0,0,,4,,,52,127
84220,note_on,0,0,0,,4,,,64,127
84272,note_off,52,0,0,,4,,,64,127
84277,note_on,5,0,0,,6,,,66,127
84329,note_off,52,0,0,,6,,,66,127
84334,note_on,5,0,0,,8,,,68,127
84386,note_off,52,0,0,,8,,,68,127
84391,note_on,5,0,0,,10,,,69,127
84443,note_off,52,0,0,,10,,,69,127
84448,note_on,5,0,0,,12,,,71,127
84555,note_off,107,0,0,,12,,,71,127
84561,note_on,6,0,0,,4,,,64,127
84668,note_off,107,0,0,,4,,,64,127
84669,note_off,1,0,0,,4,,,52,127
84669,note_off,0,0,0,,4,,,40,127
84674,note_on,5,0,0,,10,,,57,127
84674,note_on,0,0,0,,10,,,45,127
84674,note_on,0,0,0,,1,,,73,127
84781,note_off,107,0,0,,1,,,73,127
84787,note_on,6,0,0,,4,,,64,127
84894,note_off,107,0,0,,4,,,64,127
84894,note_off,0,0,0,,10,,,45,127
84894,note_off,0,0,0,,10,,,57,127
84900,note_on,6,0,0,,12,,,59,127
84900,note_on,0,0,0,,12,,,47,127
84900,note_on,0,0,0,,12,,,71,127
84952,note_off,52,0,0,,12,,,71,127
84957,note_on,5,0,0,,1,,,73,127
85009,note_off,52,0,0,,1,,,73,127
85014,note_on,5,0,0,,3,,,75,127
85066,note_off,52,0,0,,3,,,75,127
85071,note_on,5,0,0,,4,,,76,127
85123,note_off,52,0,0,,4,,,76,127
85128,note_on,5,0,0,,6,,,78,127
85235,note_off,107,0,0,,6,,,78,127
85241,note_on,6,0,0,,12,,,71,127
85348,note_off,107,0,0,,12,,,71,127
85349,note_off,1,0,0,,12,,,47,127
85349,note_off,0,0,0,,12,,,59,127
85354,note_on,5,0,0,,4,,,64,127
85354,note_on,0,0,0,,4,,,52,127
85354,note_on,0,0,0,,8,,,80,127
85461,note_off,107,0,0,,8,,,80,127
85467,note_on,6,0,0,,12,,,71,127
85574,note_off,107,0,0,,12,,,71,127
85574,note_off,0,0,0,,4,,,52,127
85574,note_off,0,0,0,,4,,,64,127
85580,note_on,6,0,0,,10,,,57,127
85580,note_on,0,0,0,,1,,,73,127
85687,note_off,107,0,0,,1,,,73,127
85693,note_on,6,0,0,,10,,,81,127
85800,note_off,107,0,0,,10,,,81,127
85800,note_off,0,0,0,,10,,,57,127
85806,note_on,6,0,0,,12,,,59,127
85806,note_on,0,0,0,,8,,,80,127
85913,note_off,107,0,0,,8,,,80,127
85919,note_on,6,0,0,,6,,,78,127
86026,note_off,107,0,0,,6,,,78,127
86032,note_on,6,0,0,,12,,,47,127
86032,note_on,0,0,0,,4,,,76,127
86139,note_off,107,0,0,,4,,,76,127
86145,note_off,6,0,0,,12,,,59,127
86145,note_on,0,0,0,,3,,,75,127
86252,note_off,107,0,0,,3,,,75,127
86252,note_off,0,0,0,,12,,,47,127
86258,note_on,6,0,0,,4,,,40,127
86258,note_on,0,0,0,,3,,,75,127
86365,note_off,107,0,0,,3,,,75,127
86371,note_on,6,0,0,,4,,,76,127
86478,note_off,107,0,0,,4,,,76,127
86484,note_on,6,0,0,,12,,,71,127
86591,note_off,107,0,0,,12,,,71,127
86597,note_on,6,0,0,,8,,,68,127
86704,note_off,107,0,0,,8,,,68,127
86710,note_on,6,0,0,,4,,,64,127
86817,note_off,107,0,0,,4,,,64,127
86823,note_on,6,0,0,,12,,,59,127
86930,note_off,107,0,0,,12,,,59,127
86931,note_off,1,0,0,,4,,,40,127
86936,note_on,5,0,0,,8,,,56,127
87043,note_off,107,0,0,,8,,,56,127
87049,note_on,6,0,0,,4,,,52,127
87156,note_off,107,0,0,,4,,,52,127
87162,note_on,6,0,0,,12,,,47,127
87269,note_off,107,0,0,,12,,,47,127
87275,note_on,6,0,0,,8,,,44,127
87382,note_off,107,0,0,,8,,,44,127
87388,note_on,6,0,0,,4,,,40,127
88743,note_off,1355,0,0,,4,,,40,127
93696,end_of_track,4953,1,0,,,,,,
