tick,type,time,meta,track,program,channel,pitch,tempo,note,velocity
0,copyright,0,1,0,,,,,,
0,program_change,0,0,0,6,0,,,,
0,pitchwheel,0,0,0,,0,0,,,
0,program_change,0,0,0,6,1,,,,
0,pitchwheel,0,0,0,,1,-590,,,
0,program_change,0,0,0,6,2,,,,
0,pitchwheel,0,0,0,,2,-272,,,
0,program_change,0,0,0,6,3,,,,
0,pitchwheel,0,0,0,,3,-353,,,
0,program_change,0,0,0,6,4,,,,
0,pitchwheel,0,0,0,,4,-560,,,
0,program_change,0,0,0,6,5,,,,
0,pitchwheel,0,0,0,,5,-80,,,
0,program_change,0,0,0,6,6,,,,
0,pitchwheel,0,0,0,,6,-625,,,
0,program_change,0,0,0,6,7,,,,
0,pitchwheel,0,0,0,,7,-130,,,
0,program_change,0,0,0,6,8,,,,
0,pitchwheel,0,0,0,,8,-512,,,
0,program_change,0,0,0,6,10,,,,
0,pitchwheel,0,0,0,,10,-464,,,
0,program_change,0,0,0,6,11,,,,
0,pitchwheel,0,0,0,,11,-208,,,
0,program_change,0,0,0,6,12,,,,
0,pitchwheel,0,0,0,,12,-553,,,
0,set_tempo,0,1,0,,,,500000,,
80,note_on,80,0,0,,10,,,69,127
160,note_on,80,0,0,,12,,,71,127
175,note_off,15,0,0,,10,,,69,127
240,note_on,65,0,0,,1,,,73,127
255,note_off,15,0,0,,12,,,71,127
320,note_on,65,0,0,,2,,,74,127
335,note_off,15,0,0,,1,,,73,127
400,note_on,65,0,0,,4,,,76,127
415,note_off,15,0,0,,2,,,74,127
480,note_on,65,0,0,,6,,,78,127
495,note_off,15,0,0,,4,,,76,127
560,note_on,65,0,0,,7,,,79,127
575,note_off,15,0,0,,6,,,78,127
640,note_on,65,0,0,,10,,,81,127
655,note_off,15,0,0,,7,,,79,127
720,note_on,65,0,0,,6,,,78,127
735,note_off,15,0,0,,10,,,81,127
800,note_on,65,0,0,,4,,,76,127
815,note_off,15,0,0,,6,,,78,127
880,note_on,65,0,0,,2,,,74,127
895,note_off,15,0,0,,4,,,76,127
960,note_on,65,0,0,,1,,,73,127
975,note_off,15,0,0,,2,,,74,127
1040,note_on,65,0,0,,2,,,74,127
1055,note_off,15,0,0,,1,,,73,127
1120,note_on,65,0,0,,1,,,73,127
1135,note_off,15,0,0,,2,,,74,127
1200,note_on,65,0,0,,12,,,71,127
1215,note_off,15,0,0,,1,,,73,127
1280,note_on,65,0,0,,10,,,69,127
1295,note_off,15,0,0,,12,,,71,127
1360,note_on,65,0,0,,12,,,71,127
1375,note_off,15,0,0,,10,,,69,127
1440,note_on,65,0,0,,10,,,69,127
1455,note_off,15,0,0,,12,,,71,127
1520,note_on,65,0,0,,7,,,67,127
1535,note_off,15,0,0,,10,,,69,127
1600,note_on,65,0,0,,6,,,66,127
1615,note_off,15,0,0,,7,,,67,127
1680,note_on,65,0,0,,7,,,67,127
1695,note_off,15,0,0,,6,,,66,127
1760,note_on,65,0,0,,6,,,66,127
1775,note_off,15,0,0,,7,,,67,127
1840,note_on,65,0,0,,4,,,64,127
1855,note_off,15,0,0,,6,,,66,127
1920,note_on,65,0,0,,2,,,62,127
1935,note_off,15,0,0,,4,,,64,127
2000,note_on,65,0,0,,6,,,66,127
2015,note_off,15,0,0,,2,,,62,127
2080,note_on,65,0,0,,4,,,64,127
2095,note_off,15,0,0,,6,,,66,127
2160,note_on,65,0,0,,2,,,62,127
2175,note_off,15,0,0,,4,,,64,127
2240,note_on,65,0,0,,1,,,61,127
2255,note_off,15,0,0,,2,,,62,127
2320,note_on,65,0,0,,2,,,62,127
2335,note_off,15,0,0,,1,,,61,127
2400,note_on,65,0,0,,1,,,61,127
2415,note_off,15,0,0,,2,,,62,127
2480,note_on,65,0,0,,12,,,59,127
2495,note_off,15,0,0,,1,,,61,127
2563,note_on,68,0,0,,10,,,57,127
2575,note_off,12,0,0,,12,,,59,127
3062,note_off,487,0,0,,10,,,57,127
3346,note_on,284,0,0,,10,,,57,127
3437,note_on,91,0,0,,12,,,59,127
3441,note_off,4,0,0,,10,,,57,127
3529,note_on,88,0,0,,1,,,61,127
3532,note_off,3,0,0,,12,,,59,127
3620,note_on,88,0,0,,2,,,62,127
3624,note_off,4,0,0,,1,,,61,127
3712,note_on,88,0,0,,4,,,64,127
3715,note_off,3,0,0,,2,,,62,127
3803,note_on,88,0,0,,6,,,66,127
3807,note_off,4,0,0,,4,,,64,127
3894,note_on,87,0,0,,7,,,67,127
3898,note_off,4,0,0,,6,,,66,127
3986,note_on,88,0,0,,10,,,69,127
3989,note_off,3,0,0,,7,,,67,127
4077,note_on,88,0,0,,6,,,66,127
4081,note_off,4,0,0,,10,,,69,127
4169,note_on,88,0,0,,4,,,64,127
4172,note_off,3,0,0,,6,,,66,127
4260,note_on,88,0,0,,2,,,62,127
4264,note_off,4,0,0,,4,,,64,127
4352,note_on,88,0,0,,1,,,61,127
4355,note_off,3,0,0,,2,,,62,127
4443,note_on,88,0,0,,2,,,62,127
4447,note_off,4,0,0,,1,,,61,127
4534,note_on,87,0,0,,1,,,61,127
4534,note_on,0,0,0,,4,,,76,127
4538,note_off,4,0,0,,2,,,62,127
4626,note_on,88,0,0,,12,,,59,127
4629,note_off,3,0,0,,1,,,61,127
4717,note_on,88,0,0,,10,,,81,127
4717,note_on,0,0,0,,10,,,57,127
4721,note_off,4,0,0,,12,,,59,127
4725,note_off,4,0,0,,4,,,76,127
4809,note_on,84,0,0,,12,,,59,127
4812,note_off,3,0,0,,10,,,57,127
4900,note_on,88,0,0,,1,,,73,127
4900,note_on,0,0,0,,10,,,57,127
4904,note_off,4,0,0,,12,,,59,127
4908,note_off,4,0,0,,10,,,81,127
4992,note_on,84,0,0,,7,,,55,127
4995,note_off,3,0,0,,10,,,57,127
5083,note_on,88,0,0,,2,,,74,127
5083,note_on,0,0,0,,6,,,54,127
5087,note_off,4,0,0,,7,,,55,127
5091,note_off,4,0,0,,1,,,73,127
5174,note_on,83,0,0,,7,,,55,127
5178,note_off,4,0,0,,6,,,54,127
5266,note_on,88,0,0,,10,,,69,127
5266,note_on,0,0,0,,6,,,54,127
5269,note_off,3,0,0,,7,,,55,127
5357,note_on,88,0,0,,4,,,52,127
5361,note_off,4,0,0,,6,,,54,127
5370,note_off,9,0,0,,2,,,74,127
5449,note_on,79,0,0,,2,,,50,127
5452,note_off,3,0,0,,4,,,52,127
5540,note_on,88,0,0,,6,,,54,127
5544,note_off,4,0,0,,2,,,50,127
5632,note_on,88,0,0,,2,,,74,127
5632,note_on,0,0,0,,4,,,52,127
5635,note_off,3,0,0,,6,,,54,127
5649,note_off,14,0,0,,10,,,69,127
5723,note_on,74,0,0,,2,,,50,127
5727,note_off,4,0,0,,4,,,52,127
5814,note_on,87,0,0,,4,,,76,127
5814,note_on,0,0,0,,1,,,49,127
5818,note_off,4,0,0,,2,,,50,127
5823,note_off,5,0,0,,2,,,74,127
5906,note_on,83,0,0,,2,,,50,127
5909,note_off,3,0,0,,1,,,49,127
5995,note_off,86,0,0,,4,,,76,127
5997,note_on,2,0,0,,4,,,76,127
5997,note_on,0,0,0,,1,,,49,127
6001,note_off,4,0,0,,2,,,50,127
6089,note_on,88,0,0,,12,,,47,127
6092,note_off,3,0,0,,1,,,49,127
6180,note_on,88,0,0,,10,,,81,127
6180,note_on,0,0,0,,10,,,45,127
6184,note_off,4,0,0,,12,,,47,127
6188,note_off,4,0,0,,4,,,76,127
6272,note_on,84,0,0,,12,,,47,127
6275,note_off,3,0,0,,10,,,45,127
6363,note_on,88,0,0,,1,,,73,127
6363,note_on,0,0,0,,10,,,45,127
6367,note_off,4,0,0,,12,,,47,127
6371,note_off,4,0,0,,10,,,81,127
6454,note_on,83,0,0,,7,,,43,127
6458,note_off,4,0,0,,10,,,45,127
6546,note_on,88,0,0,,2,,,74,127
6546,note_on,0,0,0,,6,,,42,127
6549,note_off,3,0,0,,7,,,43,127
6554,note_off,5,0,0,,1,,,73,127
6637,note_on,83,0,0,,7,,,43,127
6641,note_off,4,0,0,,6,,,42,127
6729,note_on,88,0,0,,10,,,69,127
6729,note_on,0,0,0,,6,,,42,127
6732,note_off,3,0,0,,7,,,43,127
6820,note_on,88,0,0,,4,,,40,127
6824,note_off,4,0,0,,6,,,42,127
6833,note_off,9,0,0,,2,,,74,127
6912,note_on,79,0,0,,6,,,78,127
6912,note_on,0,0,0,,10,,,81,127
6912,note_on,0,0,0,,2,,,38,127
6915,note_off,3,0,0,,4,,,40,127
6920,note_off,5,0,0,,10,,,69,127
7003,note_on,83,0,0,,4,,,40,127
7007,note_off,4,0,0,,2,,,38,127
7094,note_on,87,0,0,,4,,,76,127
7094,note_on,0,0,0,,7,,,79,127
7094,note_on,0,0,0,,6,,,42,127
7098,note_off,4,0,0,,4,,,40,127
7103,note_off,5,0,0,,10,,,81,127
7103,note_off,0,0,0,,6,,,78,127
7186,note_on,83,0,0,,2,,,74,127
7186,note_on,0,0,0,,6,,,78,127
7186,note_on,0,0,0,,7,,,43,127
7189,note_off,3,0,0,,6,,,42,127
7189,note_off,0,0,0,,7,,,79,127
7189,note_off,0,0,0,,4,,,76,127
7281,note_off,92,0,0,,7,,,43,127
7281,note_off,0,0,0,,6,,,78,127
7281,note_off,0,0,0,,2,,,74,127
7282,note_on,1,0,0,,10,,,69,127
7282,note_on,0,0,0,,4,,,76,127
7282,note_on,0,0,0,,10,,,45,127
7881,note_off,599,0,0,,10,,,45,127
7881,note_off,0,0,0,,4,,,76,127
7881,note_off,0,0,0,,10,,,69,127
8160,note_on,279,0,0,,4,,,64,127
8255,note_off,95,0,0,,4,,,64,127
8256,note_on,1,0,0,,6,,,66,127
8351,note_off,95,0,0,,6,,,66,127
8352,note_on,1,0,0,,8,,,68,127
8447,note_off,95,0,0,,8,,,68,127
8448,note_on,1,0,0,,10,,,69,127
8543,note_off,95,0,0,,10,,,69,127
8544,note_on,1,0,0,,12,,,71,127
8639,note_off,95,0,0,,12,,,71,127
8640,note_on,1,0,0,,1,,,73,127
8735,note_off,95,0,0,,1,,,73,127
8736,note_on,1,0,0,,2,,,74,127
8831,note_off,95,0,0,,2,,,74,127
8832,note_on,1,0,0,,4,,,76,127
8927,note_off,95,0,0,,4,,,76,127
8928,note_on,1,0,0,,1,,,73,127
9023,note_off,95,0,0,,1,,,73,127
9024,note_on,1,0,0,,12,,,71,127
9119,note_off,95,0,0,,12,,,71,127
9120,note_on,1,0,0,,10,,,69,127
9215,note_off,95,0,0,,10,,,69,127
9216,note_on,1,0,0,,2,,,74,127
9216,note_on,0,0,0,,12,,,71,127
9216,note_on,0,0,0,,8,,,68,127
9312,note_on,96,0,0,,4,,,52,127
9407,note_off,95,0,0,,4,,,52,127
9408,note_on,1,0,0,,8,,,56,127
9503,note_off,95,0,0,,8,,,56,127
9504,note_on,1,0,0,,12,,,59,127
9599,note_off,95,0,0,,12,,,59,127
9600,note_on,1,0,0,,4,,,64,127
9695,note_off,95,0,0,,4,,,64,127
9695,note_off,0,0,0,,8,,,68,127
9695,note_off,0,0,0,,12,,,71,127
9695,note_off,0,0,0,,2,,,74,127
9696,note_on,1,0,0,,8,,,68,127
9791,note_off,95,0,0,,8,,,68,127
9792,note_on,1,0,0,,12,,,71,127
9887,note_off,95,0,0,,12,,,71,127
9888,note_on,1,0,0,,8,,,68,127
9983,note_off,95,0,0,,8,,,68,127
9984,note_on,1,0,0,,4,,,52,127
9984,note_on,0,0,0,,2,,,74,127
10079,note_off,95,0,0,,2,,,74,127
10080,note_on,1,0,0,,1,,,73,127
10175,note_off,95,0,0,,1,,,73,127
10176,note_on,1,0,0,,12,,,71,127
10271,note_off,95,0,0,,12,,,71,127
10272,note_on,1,0,0,,10,,,69,127
10367,note_off,95,0,0,,10,,,69,127
10368,note_on,1,0,0,,8,,,68,127
10463,note_off,95,0,0,,8,,,68,127
10464,note_on,1,0,0,,6,,,66,127
10559,note_off,95,0,0,,6,,,66,127
10559,note_off,0,0,0,,4,,,52,127
10560,note_on,1,0,0,,4,,,64,127
10655,note_off,95,0,0,,4,,,64,127
10656,note_on,1,0,0,,2,,,74,127
10751,note_off,95,0,0,,2,,,74,127
10752,note_on,1,0,0,,1,,,73,127
10848,note_on,96,0,0,,10,,,57,127
10943,note_off,95,0,0,,10,,,57,127
10944,note_on,1,0,0,,1,,,61,127
11039,note_off,95,0,0,,1,,,61,127
11040,note_on,1,0,0,,4,,,64,127
11135,note_off,95,0,0,,4,,,64,127
11136,note_on,1,0,0,,10,,,69,127
11231,note_off,95,0,0,,10,,,69,127
11231,note_off,0,0,0,,1,,,73,127
11232,note_on,1,0,0,,1,,,73,127
11327,note_off,95,0,0,,1,,,73,127
11328,note_on,1,0,0,,4,,,76,127
11423,note_off,95,0,0,,4,,,76,127
11424,note_on,1,0,0,,1,,,73,127
11519,note_off,95,0,0,,1,,,73,127
11520,note_on,1,0,0,,4,,,76,127
11520,note_on,0,0,0,,10,,,57,127
11615,note_off,95,0,0,,4,,,76,127
11616,note_on,1,0,0,,2,,,74,127
11711,note_off,95,0,0,,2,,,74,127
11712,note_on,1,0,0,,1,,,73,127
11807,note_off,95,0,0,,1,,,73,127
11808,note_on,1,0,0,,12,,,71,127
11903,note_off,95,0,0,,12,,,71,127
11904,note_on,1,0,0,,10,,,69,127
11999,note_off,95,0,0,,10,,,69,127
12000,note_on,1,0,0,,8,,,68,127
12095,note_off,95,0,0,,8,,,68,127
12095,note_off,0,0,0,,10,,,57,127
12096,note_on,1,0,0,,6,,,66,127
12191,note_off,95,0,0,,6,,,66,127
12192,note_on,1,0,0,,4,,,64,127
12287,note_off,95,0,0,,4,,,64,127
12288,note_on,1,0,0,,8,,,68,127
12288,note_on,0,0,0,,12,,,71,127
12288,note_on,0,0,0,,2,,,74,127
12384,note_on,96,0,0,,4,,,52,127
12479,note_off,95,0,0,,4,,,52,127
12480,note_on,1,0,0,,8,,,56,127
12575,note_off,95,0,0,,8,,,56,127
12576,note_on,1,0,0,,12,,,59,127
12671,note_off,95,0,0,,12,,,59,127
12672,note_on,1,0,0,,4,,,64,127
12767,note_off,95,0,0,,4,,,64,127
12767,note_off,0,0,0,,2,,,74,127
12767,note_off,0,0,0,,12,,,71,127
12767,note_off,0,0,0,,8,,,68,127
12768,note_on,1,0,0,,8,,,68,127
12863,note_off,95,0,0,,8,,,68,127
12864,note_on,1,0,0,,12,,,71,127
12959,note_off,95,0,0,,12,,,71,127
12960,note_on,1,0,0,,8,,,68,127
13055,note_off,95,0,0,,8,,,68,127
13056,note_on,1,0,0,,2,,,74,127
13056,note_on,0,0,0,,4,,,52,127
13151,note_off,95,0,0,,2,,,74,127
13152,note_on,1,0,0,,1,,,73,127
13247,note_off,95,0,0,,1,,,73,127
13248,note_on,1,0,0,,12,,,71,127
13343,note_off,95,0,0,,12,,,71,127
13344,note_on,1,0,0,,10,,,69,127
13439,note_off,95,0,0,,10,,,69,127
13440,note_on,1,0,0,,8,,,68,127
13535,note_off,95,0,0,,8,,,68,127
13536,note_on,1,0,0,,6,,,66,127
13631,note_off,95,0,0,,6,,,66,127
13631,note_off,0,0,0,,4,,,52,127
13632,note_on,1,0,0,,4,,,64,127
13727,note_off,95,0,0,,4,,,64,127
13728,note_on,1,0,0,,2,,,74,127
13823,note_off,95,0,0,,2,,,74,127
13824,note_on,1,0,0,,1,,,73,127
13824,note_on,0,0,0,,10,,,69,127
13920,note_on,96,0,0,,10,,,57,127
14015,note_off,95,0,0,,10,,,57,127
14016,note_on,1,0,0,,1,,,61,127
14111,note_off,95,0,0,,1,,,61,127
14112,note_on,1,0,0,,4,,,64,127
14207,note_off,95,0,0,,4,,,64,127
14207,note_off,0,0,0,,10,,,69,127
14208,note_on,1,0,0,,10,,,69,127
14303,note_off,95,0,0,,10,,,69,127
14303,note_off,0,0,0,,1,,,73,127
14304,note_on,1,0,0,,1,,,73,127
14399,note_off,95,0,0,,1,,,73,127
14400,note_on,1,0,0,,4,,,76,127
14495,note_off,95,0,0,,4,,,76,127
14496,note_on,1,0,0,,1,,,73,127
14591,note_off,95,0,0,,1,,,73,127
14592,note_on,1,0,0,,4,,,76,127
14592,note_on,0,0,0,,10,,,57,127
14687,note_off,95,0,0,,4,,,76,127
14688,note_on,1,0,0,,2,,,74,127
14783,note_off,95,0,0,,2,,,74,127
14784,note_on,1,0,0,,1,,,73,127
14879,note_off,95,0,0,,1,,,73,127
14880,note_on,1,0,0,,12,,,71,127
14975,note_off,95,0,0,,12,,,71,127
14976,note_on,1,0,0,,10,,,69,127
15071,note_off,95,0,0,,10,,,69,127
15072,note_on,1,0,0,,8,,,68,127
15167,note_off,95,0,0,,8,,,68,127
15167,note_off,0,0,0,,10,,,57,127
15168,note_on,1,0,0,,6,,,66,127
15263,note_off,95,0,0,,6,,,66,127
15264,note_on,1,0,0,,4,,,64,127
15359,note_off,95,0,0,,4,,,64,127
15360,note_on,1,0,0,,6,,,66,127
15456,note_on,96,0,0,,2,,,62,127
15551,note_off,95,0,0,,2,,,62,127
15551,note_off,0,0,0,,6,,,66,127
15552,note_on,1,0,0,,6,,,66,127
15648,note_on,96,0,0,,10,,,69,127
15743,note_off,95,0,0,,6,,,66,127
15744,note_on,1,0,0,,2,,,74,127
15839,note_off,95,0,0,,10,,,69,127
15840,note_on,1,0,0,,8,,,68,127
15935,note_off,95,0,0,,8,,,68,127
15936,note_on,1,0,0,,12,,,71,127
16031,note_off,95,0,0,,12,,,71,127
16031,note_off,0,0,0,,2,,,74,127
16032,note_on,1,0,0,,2,,,74,127
16128,note_on,96,0,0,,4,,,64,127
16223,note_off,95,0,0,,2,,,74,127
16224,note_on,1,0,0,,1,,,61,127
16319,note_off,95,0,0,,1,,,61,127
16319,note_off,0,0,0,,4,,,64,127
16320,note_on,1,0,0,,4,,,64,127
16415,note_off,95,0,0,,4,,,64,127
16416,note_on,1,0,0,,10,,,69,127
16512,note_on,96,0,0,,1,,,73,127
16607,note_off,95,0,0,,10,,,69,127
16608,note_on,1,0,0,,6,,,66,127
16703,note_off,95,0,0,,6,,,66,127
16704,note_on,1,0,0,,10,,,69,127
16799,note_off,95,0,0,,10,,,69,127
16799,note_off,0,0,0,,1,,,73,127
16800,note_on,1,0,0,,1,,,73,127
16896,note_on,96,0,0,,2,,,62,127
16991,note_off,95,0,0,,1,,,73,127
16992,note_on,1,0,0,,12,,,59,127
17087,note_off,95,0,0,,12,,,59,127
17087,note_off,0,0,0,,2,,,62,127
17088,note_on,1,0,0,,2,,,62,127
17183,note_off,95,0,0,,2,,,62,127
17184,note_on,1,0,0,,6,,,66,127
17280,note_on,96,0,0,,12,,,71,127
17375,note_off,95,0,0,,6,,,66,127
17376,note_on,1,0,0,,4,,,64,127
17471,note_off,95,0,0,,4,,,64,127
17472,note_on,1,0,0,,8,,,68,127
17567,note_off,95,0,0,,8,,,68,127
17567,note_off,0,0,0,,12,,,71,127
17568,note_on,1,0,0,,12,,,71,127
17663,note_off,95,0,0,,12,,,71,127
17664,note_on,1,0,0,,1,,,61,127
17760,note_on,96,0,0,,10,,,57,127
17855,note_off,95,0,0,,10,,,57,127
17855,note_off,0,0,0,,1,,,61,127
17856,note_on,1,0,0,,1,,,61,127
17951,note_off,95,0,0,,1,,,61,127
17952,note_on,1,0,0,,4,,,64,127
18048,note_on,96,0,0,,2,,,62,127
18143,note_off,95,0,0,,4,,,64,127
18144,note_on,1,0,0,,12,,,59,127
18239,note_off,95,0,0,,12,,,59,127
18239,note_off,0,0,0,,2,,,62,127
18240,note_on,1,0,0,,2,,,62,127
18335,note_off,95,0,0,,2,,,62,127
18336,note_on,1,0,0,,4,,,64,127
18431,note_off,95,0,0,,4,,,64,127
18432,note_on,1,0,0,,4,,,64,127
18528,note_on,96,0,0,,1,,,61,127
18623,note_off,95,0,0,,1,,,61,127
18623,note_off,0,0,0,,4,,,64,127
18624,note_on,1,0,0,,4,,,64,127
18719,note_off,95,0,0,,4,,,64,127
18720,note_on,1,0,0,,10,,,69,127
18816,note_on,96,0,0,,6,,,66,127
18911,note_off,95,0,0,,10,,,69,127
18912,note_on,1,0,0,,2,,,62,127
19007,note_off,95,0,0,,2,,,62,127
19007,note_off,0,0,0,,6,,,66,127
19008,note_on,1,0,0,,6,,,66,127
19103,note_off,95,0,0,,6,,,66,127
19104,note_on,1,0,0,,10,,,69,127
19199,note_off,95,0,0,,10,,,69,127
19200,note_on,1,0,0,,8,,,68,127
19296,note_on,96,0,0,,4,,,64,127
19391,note_off,95,0,0,,4,,,64,127
19391,note_off,0,0,0,,8,,,68,127
19392,note_on,1,0,0,,8,,,68,127
19487,note_off,95,0,0,,8,,,68,127
19488,note_on,1,0,0,,10,,,69,127
19583,note_off,95,0,0,,10,,,69,127
19584,note_on,1,0,0,,10,,,69,127
19680,note_on,96,0,0,,6,,,66,127
19775,note_off,95,0,0,,6,,,66,127
19775,note_off,0,0,0,,10,,,69,127
19776,note_on,1,0,0,,10,,,69,127
19871,note_off,95,0,0,,10,,,69,127
19872,note_on,1,0,0,,12,,,71,127
19967,note_off,95,0,0,,12,,,71,127
19968,note_on,1,0,0,,12,,,71,127
20064,note_on,96,0,0,,8,,,68,127
20159,note_off,95,0,0,,8,,,68,127
20159,note_off,0,0,0,,12,,,71,127
20160,note_on,1,0,0,,10,,,69,127
20255,note_off,95,0,0,,10,,,69,127
20256,note_on,1,0,0,,12,,,71,127
20351,note_off,95,0,0,,12,,,71,127
20352,note_on,1,0,0,,1,,,73,127
20448,note_on,96,0,0,,10,,,69,127
20543,note_off,95,0,0,,10,,,69,127
20543,note_off,0,0,0,,1,,,73,127
20544,note_on,1,0,0,,12,,,71,127
20639,note_off,95,0,0,,12,,,71,127
20640,note_on,1,0,0,,1,,,73,127
20735,note_off,95,0,0,,1,,,73,127
20736,note_on,1,0,0,,2,,,74,127
20736,note_on,0,0,0,,12,,,71,127
20831,note_off,95,0,0,,12,,,71,127
20831,note_off,0,0,0,,2,,,74,127
20832,note_on,1,0,0,,4,,,76,127
20832,note_on,0,0,0,,1,,,73,127
20927,note_off,95,0,0,,1,,,73,127
20927,note_off,0,0,0,,4,,,76,127
20928,note_on,1,0,0,,2,,,74,127
20928,note_on,0,0,0,,12,,,71,127
21023,note_off,95,0,0,,12,,,71,127
21023,note_off,0,0,0,,2,,,74,127
21024,note_on,1,0,0,,1,,,73,127
21024,note_on,0,0,0,,10,,,69,127
21119,note_off,95,0,0,,10,,,69,127
21119,note_off,0,0,0,,1,,,73,127
21120,note_on,1,0,0,,12,,,71,127
21120,note_on,0,0,0,,8,,,68,127
21215,note_off,95,0,0,,8,,,68,127
21215,note_off,0,0,0,,12,,,71,127
21216,note_on,1,0,0,,1,,,73,127
21216,note_on,0,0,0,,10,,,69,127
21311,note_off,95,0,0,,10,,,69,127
21311,note_off,0,0,0,,1,,,73,127
21312,note_on,1,0,0,,12,,,71,127
21312,note_on,0,0,0,,8,,,68,127
21407,note_off,95,0,0,,8,,,68,127
21407,note_off,0,0,0,,12,,,71,127
21408,note_on,1,0,0,,10,,,69,127
21408,note_on,0,0,0,,6,,,66,127
21503,note_off,95,0,0,,6,,,66,127
21503,note_off,0,0,0,,10,,,69,127
21504,note_on,1,0,0,,8,,,68,127
21504,note_on,0,0,0,,4,,,64,127
21599,note_off,95,0,0,,4,,,64,127
21599,note_off,0,0,0,,8,,,68,127
21600,note_on,1,0,0,,10,,,69,127
21600,note_on,0,0,0,,6,,,66,127
21695,note_off,95,0,0,,6,,,66,127
21695,note_off,0,0,0,,10,,,69,127
21696,note_on,1,0,0,,8,,,68,127
21696,note_on,0,0,0,,4,,,64,127
21791,note_off,95,0,0,,4,,,64,127
21791,note_off,0,0,0,,8,,,68,127
21792,note_on,1,0,0,,6,,,66,127
21792,note_on,0,0,0,,2,,,62,127
21887,note_off,95,0,0,,2,,,62,127
21887,note_off,0,0,0,,6,,,66,127
21888,note_on,1,0,0,,4,,,64,127
21888,note_on,0,0,0,,1,,,61,127
21983,note_off,95,0,0,,1,,,61,127
21983,note_off,0,0,0,,4,,,64,127
21984,note_on,1,0,0,,6,,,66,127
21984,note_on,0,0,0,,2,,,62,127
22079,note_off,95,0,0,,2,,,62,127
22079,note_off,0,0,0,,6,,,66,127
22080,note_on,1,0,0,,4,,,64,127
22080,note_on,0,0,0,,1,,,61,127
22175,note_off,95,0,0,,1,,,61,127
22175,note_off,0,0,0,,4,,,64,127
22176,note_on,1,0,0,,2,,,62,127
22176,note_on,0,0,0,,12,,,59,127
22271,note_off,95,0,0,,12,,,59,127
22271,note_off,0,0,0,,2,,,62,127
22272,note_on,1,0,0,,1,,,61,127
22272,note_on,0,0,0,,10,,,57,127
22367,note_off,95,0,0,,10,,,57,127
22367,note_off,0,0,0,,1,,,61,127
22368,note_on,1,0,0,,2,,,62,127
22368,note_on,0,0,0,,12,,,59,127
22463,note_off,95,0,0,,12,,,59,127
22463,note_off,0,0,0,,2,,,62,127
22464,note_on,1,0,0,,1,,,61,127
22464,note_on,0,0,0,,10,,,57,127
22559,note_off,95,0,0,,10,,,57,127
22559,note_off,0,0,0,,1,,,61,127
22560,note_on,1,0,0,,12,,,59,127
22560,note_on,0,0,0,,8,,,56,127
22655,note_off,95,0,0,,8,,,56,127
22655,note_off,0,0,0,,12,,,59,127
22656,note_on,1,0,0,,10,,,57,127
22752,note_on,96,0,0,,12,,,59,127
22847,note_off,95,0,0,,12,,,59,127
22848,note_on,1,0,0,,1,,,61,127
22943,note_off,95,0,0,,1,,,61,127
22944,note_on,1,0,0,,3,,,63,127
23039,note_off,95,0,0,,3,,,63,127
23039,note_off,0,0,0,,10,,,57,127
23042,note_on,3,0,0,,4,,,52,127
23042,note_on,0,0,0,,3,,,63,127
23260,note_on,218,0,0,,4,,,64,127
23262,note_off,2,0,0,,3,,,63,127
23583,note_off,321,0,0,,4,,,64,127
23764,note_on,181,0,0,,4,,,64,127
23809,note_off,45,0,0,,4,,,52,127
23952,note_on,143,0,0,,0,,,72,127
23955,note_off,3,0,0,,4,,,64,127
24047,note_off,92,0,0,,0,,,72,127
24048,note_on,1,0,0,,12,,,71,127
24143,note_off,95,0,0,,12,,,71,127
24144,note_on,1,0,0,,0,,,60,127
24144,note_on,0,0,0,,10,,,57,127
24144,note_on,0,0,0,,10,,,69,127
24335,note_off,191,0,0,,10,,,57,127
24335,note_off,0,0,0,,0,,,60,127
24336,note_on,1,0,0,,10,,,57,127
24336,note_on,0,0,0,,0,,,60,127
24527,note_off,191,0,0,,0,,,60,127
24527,note_off,0,0,0,,10,,,57,127
24527,note_off,0,0,0,,10,,,69,127
24528,note_on,1,0,0,,10,,,57,127
24528,note_on,0,0,0,,0,,,60,127
24528,note_on,0,0,0,,7,,,67,127
24719,note_off,191,0,0,,7,,,67,127
24719,note_off,0,0,0,,0,,,60,127
24719,note_off,0,0,0,,10,,,57,127
24720,note_on,1,0,0,,10,,,57,127
24720,note_on,0,0,0,,2,,,50,127
24720,note_on,0,0,0,,10,,,69,127
24720,note_on,0,0,0,,7,,,67,127
24720,note_on,0,0,0,,2,,,62,127
24815,note_off,95,0,0,,10,,,69,127
24911,note_off,96,0,0,,7,,,67,127
24911,note_off,0,0,0,,2,,,50,127
24911,note_off,0,0,0,,10,,,57,127
24912,note_on,1,0,0,,10,,,57,127
24912,note_on,0,0,0,,2,,,50,127
24912,note_on,0,0,0,,5,,,65,127
25103,note_off,191,0,0,,2,,,50,127
25103,note_off,0,0,0,,10,,,57,127
25104,note_on,1,0,0,,2,,,50,127
25104,note_on,0,0,0,,10,,,57,127
25295,note_off,191,0,0,,10,,,57,127
25295,note_off,0,0,0,,2,,,50,127
25295,note_off,0,0,0,,5,,,65,127
25296,note_on,1,0,0,,10,,,57,127
25296,note_on,0,0,0,,2,,,50,127
25296,note_on,0,0,0,,10,,,69,127
25487,note_off,191,0,0,,10,,,69,127
25487,note_off,0,0,0,,2,,,50,127
25487,note_off,0,0,0,,10,,,57,127
25487,note_off,0,0,0,,2,,,62,127
25488,note_on,1,0,0,,10,,,57,127
25488,note_on,0,0,0,,2,,,50,127
25488,note_on,0,0,0,,12,,,59,127
25488,note_on,0,0,0,,2,,,74,127
25488,note_on,0,0,0,,5,,,65,127
25583,note_off,95,0,0,,2,,,74,127
25584,note_on,1,0,0,,0,,,72,127
25679,note_off,95,0,0,,0,,,72,127
25679,note_off,0,0,0,,12,,,59,127
25679,note_off,0,0,0,,2,,,50,127
25679,note_off,0,0,0,,10,,,57,127
25680,note_on,1,0,0,,10,,,57,127
25680,note_on,0,0,0,,2,,,50,127
25680,note_on,0,0,0,,12,,,59,127
25680,note_on,0,0,0,,12,,,71,127
25871,note_off,191,0,0,,12,,,59,127
25871,note_off,0,0,0,,2,,,50,127
25871,note_off,0,0,0,,10,,,57,127
25872,note_on,1,0,0,,10,,,57,127
25872,note_on,0,0,0,,2,,,50,127
25872,note_on,0,0,0,,12,,,59,127
26063,note_off,191,0,0,,12,,,59,127
26063,note_off,0,0,0,,2,,,50,127
26063,note_off,0,0,0,,10,,,57,127
26063,note_off,0,0,0,,12,,,71,127
26064,note_on,1,0,0,,12,,,59,127
26064,note_on,0,0,0,,10,,,57,127
26064,note_on,0,0,0,,2,,,50,127
26064,note_on,0,0,0,,10,,,69,127
26255,note_off,191,0,0,,10,,,69,127
26255,note_off,0,0,0,,2,,,50,127
26255,note_off,0,0,0,,10,,,57,127
26255,note_off,0,0,0,,12,,,59,127
26255,note_off,0,0,0,,5,,,65,127
26256,note_on,1,0,0,,10,,,57,127
26256,note_on,0,0,0,,12,,,59,127
26256,note_on,0,0,0,,12,,,71,127
26256,note_on,0,0,0,,10,,,69,127
26256,note_on,0,0,0,,4,,,64,127
26256,note_on,0,0,0,,4,,,52,127
26351,note_off,95,0,0,,12,,,71,127
26447,note_off,96,0,0,,4,,,52,127
26447,note_off,0,0,0,,10,,,69,127
26447,note_off,0,0,0,,12,,,59,127
26447,note_off,0,0,0,,10,,,57,127
26448,note_on,1,0,0,,10,,,57,127
26448,note_on,0,0,0,,12,,,59,127
26448,note_on,0,0,0,,8,,,68,127
26448,note_on,0,0,0,,4,,,52,127
26639,note_off,191,0,0,,4,,,52,127
26639,note_off,0,0,0,,12,,,59,127
26639,note_off,0,0,0,,10,,,57,127
26640,note_on,1,0,0,,12,,,59,127
26640,note_on,0,0,0,,10,,,57,127
26640,note_on,0,0,0,,4,,,52,127
26831,note_off,191,0,0,,4,,,52,127
26831,note_off,0,0,0,,10,,,57,127
26831,note_off,0,0,0,,12,,,59,127
26831,note_off,0,0,0,,8,,,68,127
26832,note_on,1,0,0,,10,,,57,127
26832,note_on,0,0,0,,12,,,59,127
26832,note_on,0,0,0,,12,,,71,127
26832,note_on,0,0,0,,4,,,52,127
27023,note_off,191,0,0,,4,,,52,127
27023,note_off,0,0,0,,12,,,71,127
27023,note_off,0,0,0,,12,,,59,127
27023,note_off,0,0,0,,10,,,57,127
27023,note_off,0,0,0,,4,,,64,127
27024,note_on,1,0,0,,4,,,52,127
27024,note_on,0,0,0,,0,,,60,127
27024,note_on,0,0,0,,10,,,57,127
27024,note_on,0,0,0,,4,,,76,127
27119,note_off,95,0,0,,4,,,76,127
27120,note_on,1,0,0,,2,,,74,127
27215,note_off,95,0,0,,2,,,74,127
27215,note_off,0,0,0,,10,,,57,127
27215,note_off,0,0,0,,0,,,60,127
27215,note_off,0,0,0,,4,,,52,127
27216,note_on,1,0,0,,0,,,60,127
27216,note_on,0,0,0,,10,,,57,127
27216,note_on,0,0,0,,4,,,52,127
27216,note_on,0,0,0,,0,,,72,127
27407,note_off,191,0,0,,4,,,52,127
27407,note_off,0,0,0,,10,,,57,127
27407,note_off,0,0,0,,0,,,60,127
27408,note_on,1,0,0,,4,,,52,127
27408,note_on,0,0,0,,0,,,60,127
27408,note_on,0,0,0,,10,,,57,127
27599,note_off,191,0,0,,10,,,57,127
27599,note_off,0,0,0,,0,,,60,127
27599,note_off,0,0,0,,4,,,52,127
27599,note_off,0,0,0,,0,,,72,127
27600,note_on,1,0,0,,10,,,57,127
27600,note_on,0,0,0,,4,,,52,127
27600,note_on,0,0,0,,0,,,60,127
27600,note_on,0,0,0,,12,,,71,127
27791,note_off,191,0,0,,12,,,71,127
27791,note_off,0,0,0,,0,,,60,127
27791,note_off,0,0,0,,4,,,52,127
27791,note_off,0,0,0,,10,,,57,127
27792,note_on,1,0,0,,10,,,57,127
27792,note_on,0,0,0,,5,,,53,127
27792,note_on,0,0,0,,12,,,59,127
27792,note_on,0,0,0,,2,,,62,127
27792,note_on,0,0,0,,0,,,72,127
27792,note_on,0,0,0,,12,,,71,127
27887,note_off,95,0,0,,0,,,72,127
27983,note_off,96,0,0,,12,,,71,127
27983,note_off,0,0,0,,2,,,62,127
27983,note_off,0,0,0,,12,,,59,127
27983,note_off,0,0,0,,5,,,53,127
27983,note_off,0,0,0,,10,,,57,127
27984,note_on,1,0,0,,2,,,62,127
27984,note_on,0,0,0,,10,,,69,127
27984,note_on,0,0,0,,5,,,53,127
27984,note_on,0,0,0,,10,,,57,127
27984,note_on,0,0,0,,12,,,59,127
28175,note_off,191,0,0,,12,,,59,127
28175,note_off,0,0,0,,10,,,57,127
28175,note_off,0,0,0,,5,,,53,127
28175,note_off,0,0,0,,2,,,62,127
28176,note_on,1,0,0,,2,,,62,127
28176,note_on,0,0,0,,5,,,53,127
28176,note_on,0,0,0,,10,,,57,127
28176,note_on,0,0,0,,12,,,59,127
28367,note_off,191,0,0,,12,,,59,127
28367,note_off,0,0,0,,10,,,57,127
28367,note_off,0,0,0,,5,,,53,127
28367,note_off,0,0,0,,2,,,62,127
28367,note_off,0,0,0,,10,,,69,127
28368,note_on,1,0,0,,2,,,62,127
28368,note_on,0,0,0,,10,,,69,127
28368,note_on,0,0,0,,5,,,53,127
28368,note_on,0,0,0,,10,,,57,127
28368,note_on,0,0,0,,12,,,59,127
28559,note_off,191,0,0,,12,,,59,127
28559,note_off,0,0,0,,10,,,57,127
28559,note_off,0,0,0,,5,,,53,127
28559,note_off,0,0,0,,10,,,69,127
28559,note_off,0,0,0,,2,,,62,127
28560,note_on,1,0,0,,2,,,62,127
28560,note_on,0,0,0,,10,,,81,127
28560,note_on,0,0,0,,10,,,69,127
28560,note_on,0,0,0,,5,,,53,127
28560,note_on,0,0,0,,10,,,57,127
28560,note_on,0,0,0,,12,,,59,127
28655,note_off,95,0,0,,10,,,81,127
28656,note_on,1,0,0,,7,,,79,127
28751,note_off,95,0,0,,7,,,79,127
28751,note_off,0,0,0,,12,,,59,127
28751,note_off,0,0,0,,10,,,57,127
28751,note_off,0,0,0,,5,,,53,127
28751,note_off,0,0,0,,2,,,62,127
28752,note_on,1,0,0,,2,,,62,127
28752,note_on,0,0,0,,5,,,77,127
28752,note_on,0,0,0,,5,,,53,127
28752,note_on,0,0,0,,10,,,57,127
28752,note_on,0,0,0,,12,,,59,127
28943,note_off,191,0,0,,12,,,59,127
28943,note_off,0,0,0,,10,,,57,127
28943,note_off,0,0,0,,5,,,53,127
28943,note_off,0,0,0,,2,,,62,127
28944,note_on,1,0,0,,2,,,62,127
28944,note_on,0,0,0,,5,,,53,127
28944,note_on,0,0,0,,10,,,57,127
28944,note_on,0,0,0,,12,,,59,127
29135,note_off,191,0,0,,12,,,59,127
29135,note_off,0,0,0,,10,,,57,127
29135,note_off,0,0,0,,5,,,53,127
29135,note_off,0,0,0,,2,,,62,127
29135,note_off,0,0,0,,5,,,77,127
29136,note_on,1,0,0,,2,,,62,127
29136,note_on,0,0,0,,4,,,76,127
29136,note_on,0,0,0,,5,,,53,127
29136,note_on,0,0,0,,10,,,57,127
29136,note_on,0,0,0,,12,,,59,127
29327,note_off,191,0,0,,12,,,59,127
29327,note_off,0,0,0,,10,,,57,127
29327,note_off,0,0,0,,5,,,53,127
29327,note_off,0,0,0,,4,,,76,127
29327,note_off,0,0,0,,2,,,62,127
29327,note_off,0,0,0,,10,,,69,127
29328,note_on,1,0,0,,10,,,57,127
29328,note_on,0,0,0,,6,,,54,127
29328,note_on,0,0,0,,0,,,60,127
29328,note_on,0,0,0,,5,,,77,127
29328,note_on,0,0,0,,4,,,76,127
29328,note_on,0,0,0,,10,,,69,127
29423,note_off,95,0,0,,5,,,77,127
29519,note_off,96,0,0,,4,,,76,127
29519,note_off,0,0,0,,0,,,60,127
29519,note_off,0,0,0,,6,,,54,127
29519,note_off,0,0,0,,10,,,57,127
29520,note_on,1,0,0,,6,,,54,127
29520,note_on,0,0,0,,10,,,57,127
29520,note_on,0,0,0,,0,,,60,127
29520,note_on,0,0,0,,3,,,75,127
29711,note_off,191,0,0,,0,,,60,127
29711,note_off,0,0,0,,10,,,57,127
29711,note_off,0,0,0,,6,,,54,127
29712,note_on,1,0,0,,0,,,60,127
29712,note_on,0,0,0,,6,,,54,127
29712,note_on,0,0,0,,10,,,57,127
29903,note_off,191,0,0,,10,,,57,127
29903,note_off,0,0,0,,6,,,54,127
29903,note_off,0,0,0,,0,,,60,127
29903,note_off,0,0,0,,3,,,75,127
29904,note_on,1,0,0,,0,,,60,127
29904,note_on,0,0,0,,0,,,72,127
29904,note_on,0,0,0,,6,,,54,127
29904,note_on,0,0,0,,10,,,57,127
30095,note_off,191,0,0,,10,,,57,127
30095,note_off,0,0,0,,6,,,54,127
30095,note_off,0,0,0,,0,,,72,127
30095,note_off,0,0,0,,0,,,60,127
30095,note_off,0,0,0,,10,,,69,127
30096,note_on,1,0,0,,10,,,57,127
30096,note_on,0,0,0,,12,,,59,127
30096,note_on,0,0,0,,6,,,54,127
30096,note_on,0,0,0,,3,,,63,127
30096,note_on,0,0,0,,2,,,74,127
30096,note_on,0,0,0,,0,,,72,127
30191,note_off,95,0,0,,2,,,74,127
30287,note_off,96,0,0,,0,,,72,127
30287,note_off,0,0,0,,3,,,63,127
30287,note_off,0,0,0,,6,,,54,127
30287,note_off,0,0,0,,12,,,59,127
30287,note_off,0,0,0,,10,,,57,127
30288,note_on,1,0,0,,12,,,71,127
30288,note_on,0,0,0,,3,,,63,127
30288,note_on,0,0,0,,6,,,54,127
30288,note_on,0,0,0,,10,,,57,127
30288,note_on,0,0,0,,12,,,59,127
30479,note_off,191,0,0,,12,,,59,127
30479,note_off,0,0,0,,10,,,57,127
30479,note_off,0,0,0,,6,,,54,127
30479,note_off,0,0,0,,3,,,63,127
30480,note_on,1,0,0,,3,,,63,127
30480,note_on,0,0,0,,6,,,54,127
30480,note_on,0,0,0,,10,,,57,127
30480,note_on,0,0,0,,12,,,59,127
30671,note_off,191,0,0,,12,,,59,127
30671,note_off,0,0,0,,10,,,57,127
30671,note_off,0,0,0,,6,,,54,127
30671,note_off,0,0,0,,3,,,63,127
30671,note_off,0,0,0,,12,,,71,127
30672,note_on,1,0,0,,3,,,75,127
30672,note_on,0,0,0,,3,,,63,127
30672,note_on,0,0,0,,6,,,54,127
30672,note_on,0,0,0,,10,,,57,127
30672,note_on,0,0,0,,12,,,59,127
30863,note_off,191,0,0,,12,,,59,127
30863,note_off,0,0,0,,10,,,57,127
30863,note_off,0,0,0,,6,,,54,127
30863,note_off,0,0,0,,3,,,63,127
30863,note_off,0,0,0,,3,,,75,127
30864,note_on,1,0,0,,4,,,52,127
30864,note_on,0,0,0,,12,,,59,127
30864,note_on,0,0,0,,4,,,64,127
30864,note_on,0,0,0,,3,,,75,127
30864,note_on,0,0,0,,10,,,69,127
31055,note_off,191,0,0,,10,,,69,127
31055,note_off,0,0,0,,3,,,75,127
31056,note_on,1,0,0,,4,,,76,127
31056,note_on,0,0,0,,8,,,68,127
31343,note_off,287,0,0,,8,,,68,127
31343,note_off,0,0,0,,4,,,76,127
31343,note_off,0,0,0,,4,,,64,127
31343,note_off,0,0,0,,12,,,59,127
31343,note_off,0,0,0,,4,,,52,127
31440,note_on,97,0,0,,1,,,61,127
31536,note_on,96,0,0,,4,,,64,127
31631,note_off,95,0,0,,1,,,61,127
31632,note_on,1,0,0,,2,,,62,127
31727,note_off,95,0,0,,4,,,64,127
31728,note_on,1,0,0,,5,,,65,127
31823,note_off,95,0,0,,2,,,62,127
31824,note_on,1,0,0,,0,,,60,127
31919,note_off,95,0,0,,5,,,65,127
31920,note_on,1,0,0,,6,,,66,127
32015,note_off,95,0,0,,0,,,60,127
32016,note_on,1,0,0,,12,,,59,127
32111,note_off,95,0,0,,6,,,66,127
32112,note_on,1,0,0,,7,,,67,127
32207,note_off,95,0,0,,12,,,59,127
32208,note_on,1,0,0,,4,,,64,127
32303,note_off,95,0,0,,7,,,67,127
32304,note_on,1,0,0,,8,,,68,127
32399,note_off,95,0,0,,4,,,64,127
32400,note_on,1,0,0,,0,,,60,127
32495,note_off,95,0,0,,8,,,68,127
32496,note_on,1,0,0,,10,,,69,127
32591,note_off,95,0,0,,0,,,60,127
32592,note_on,1,0,0,,12,,,59,127
32687,note_off,95,0,0,,10,,,69,127
32688,note_on,1,0,0,,12,,,71,127
32783,note_off,95,0,0,,12,,,59,127
32784,note_on,1,0,0,,10,,,57,127
32879,note_off,95,0,0,,12,,,71,127
32880,note_on,1,0,0,,0,,,72,127
32975,note_off,95,0,0,,10,,,57,127
32976,note_on,1,0,0,,7,,,67,127
33071,note_off,95,0,0,,0,,,72,127
33072,note_on,1,0,0,,1,,,73,127
33167,note_off,95,0,0,,7,,,67,127
33168,note_on,1,0,0,,6,,,66,127
33263,note_off,95,0,0,,1,,,73,127
33264,note_on,1,0,0,,2,,,74,127
33359,note_off,95,0,0,,6,,,66,127
33360,note_on,1,0,0,,10,,,69,127
33455,note_off,95,0,0,,2,,,74,127
33456,note_on,1,0,0,,3,,,75,127
33551,note_off,95,0,0,,10,,,69,127
33552,note_on,1,0,0,,8,,,68,127
33647,note_off,95,0,0,,3,,,75,127
33648,note_on,1,0,0,,4,,,76,127
33743,note_off,95,0,0,,8,,,68,127
33744,note_on,1,0,0,,4,,,64,127
33839,note_off,95,0,0,,4,,,76,127
33840,note_on,1,0,0,,2,,,74,127
33935,note_off,95,0,0,,2,,,74,127
33935,note_off,0,0,0,,4,,,64,127
33936,note_on,1,0,0,,2,,,74,127
33936,note_on,0,0,0,,10,,,45,127
34031,note_off,95,0,0,,2,,,74,127
34032,note_on,1,0,0,,1,,,73,127
34127,note_off,95,0,0,,1,,,73,127
34128,note_on,1,0,0,,12,,,71,127
34223,note_off,95,0,0,,12,,,71,127
34224,note_on,1,0,0,,1,,,73,127
34319,note_off,95,0,0,,1,,,73,127
34319,note_off,0,0,0,,10,,,45,127
34320,note_on,1,0,0,,10,,,69,127
34511,note_off,191,0,0,,10,,,69,127
34512,note_on,1,0,0,,1,,,61,127
34608,note_on,96,0,0,,4,,,64,127
34655,note_off,47,0,0,,1,,,61,127
34704,note_on,49,0,0,,2,,,62,127
34751,note_off,47,0,0,,4,,,64,127
34800,note_on,49,0,0,,5,,,65,127
34847,note_off,47,0,0,,2,,,62,127
34896,note_on,49,0,0,,0,,,60,127
34943,note_off,47,0,0,,5,,,65,127
34992,note_on,49,0,0,,6,,,66,127
35039,note_off,47,0,0,,0,,,60,127
35088,note_on,49,0,0,,12,,,59,127
35135,note_off,47,0,0,,6,,,66,127
35184,note_on,49,0,0,,7,,,67,127
35231,note_off,47,0,0,,12,,,59,127
35280,note_on,49,0,0,,4,,,64,127
35327,note_off,47,0,0,,7,,,67,127
35376,note_on,49,0,0,,8,,,68,127
35423,note_off,47,0,0,,4,,,64,127
35472,note_on,49,0,0,,0,,,60,127
35519,note_off,47,0,0,,8,,,68,127
35568,note_on,49,0,0,,10,,,69,127
35615,note_off,47,0,0,,0,,,60,127
35664,note_on,49,0,0,,12,,,59,127
35711,note_off,47,0,0,,10,,,69,127
35760,note_on,49,0,0,,12,,,71,127
35807,note_off,47,0,0,,12,,,59,127
35856,note_on,49,0,0,,10,,,57,127
35903,note_off,47,0,0,,12,,,71,127
35952,note_on,49,0,0,,0,,,72,127
36037,note_off,85,0,0,,10,,,57,127
36048,note_on,11,0,0,,7,,,67,127
36095,note_off,47,0,0,,0,,,72,127
36144,note_on,49,0,0,,1,,,73,127
36191,note_off,47,0,0,,7,,,67,127
36240,note_on,49,0,0,,6,,,66,127
36287,note_off,47,0,0,,1,,,73,127
36336,note_on,49,0,0,,2,,,74,127
36383,note_off,47,0,0,,6,,,66,127
36432,note_on,49,0,0,,10,,,69,127
36479,note_off,47,0,0,,2,,,74,127
36528,note_on,49,0,0,,3,,,75,127
36575,note_off,47,0,0,,10,,,69,127
36624,note_on,49,0,0,,8,,,68,127
36671,note_off,47,0,0,,3,,,75,127
36720,note_on,49,0,0,,4,,,76,127
36767,note_off,47,0,0,,8,,,68,127
36816,note_on,49,0,0,,4,,,64,127
36863,note_off,47,0,0,,4,,,76,127
36912,note_on,49,0,0,,2,,,74,127
36959,note_off,47,0,0,,4,,,64,127
36997,note_off,38,0,0,,2,,,74,127
37008,note_on,11,0,0,,1,,,73,127
37008,note_on,0,0,0,,10,,,45,127
37103,note_off,95,0,0,,1,,,73,127
37104,note_on,1,0,0,,10,,,69,127
37199,note_off,95,0,0,,10,,,69,127
37200,note_on,1,0,0,,1,,,73,127
37295,note_off,95,0,0,,1,,,73,127
37296,note_on,1,0,0,,4,,,76,127
37391,note_off,95,0,0,,4,,,76,127
37391,note_off,0,0,0,,10,,,45,127
37392,note_on,1,0,0,,10,,,81,127
37392,note_on,0,0,0,,1,,,73,127
37487,note_off,95,0,0,,10,,,81,127
37488,note_on,1,0,0,,4,,,76,127
37583,note_off,95,0,0,,4,,,76,127
37584,note_on,1,0,0,,2,,,74,127
37679,note_off,95,0,0,,2,,,74,127
37679,note_off,0,0,0,,1,,,73,127
37680,note_on,1,0,0,,1,,,73,127
37775,note_off,95,0,0,,1,,,73,127
37776,note_on,1,0,0,,2,,,74,127
37776,note_on,0,0,0,,12,,,71,127
37871,note_off,95,0,0,,12,,,71,127
37871,note_off,0,0,0,,2,,,74,127
37872,note_on,1,0,0,,12,,,71,127
37968,note_on,96,0,0,,2,,,74,127
38063,note_off,95,0,0,,2,,,74,127
38064,note_on,1,0,0,,8,,,80,127
38159,note_off,95,0,0,,8,,,80,127
38159,note_off,0,0,0,,12,,,71,127
38160,note_on,1,0,0,,12,,,83,127
38160,note_on,0,0,0,,4,,,64,127
38255,note_off,95,0,0,,12,,,83,127
38256,note_on,1,0,0,,2,,,74,127
38351,note_off,95,0,0,,2,,,74,127
38352,note_on,1,0,0,,1,,,73,127
38447,note_off,95,0,0,,1,,,73,127
38448,note_on,1,0,0,,12,,,71,127
38543,note_off,95,0,0,,12,,,71,127
38543,note_off,0,0,0,,4,,,64,127
38544,note_on,1,0,0,,1,,,73,127
38544,note_on,0,0,0,,10,,,69,127
38639,note_off,95,0,0,,10,,,69,127
38639,note_off,0,0,0,,1,,,73,127
38640,note_on,1,0,0,,10,,,69,127
38736,note_on,96,0,0,,1,,,73,127
38831,note_off,95,0,0,,1,,,73,127
38832,note_on,1,0,0,,4,,,76,127
38927,note_off,95,0,0,,4,,,76,127
38927,note_off,0,0,0,,10,,,69,127
38928,note_on,1,0,0,,10,,,81,127
38928,note_on,0,0,0,,1,,,73,127
39023,note_off,95,0,0,,10,,,81,127
39024,note_on,1,0,0,,4,,,76,127
39119,note_off,95,0,0,,4,,,76,127
39120,note_on,1,0,0,,2,,,74,127
39215,note_off,95,0,0,,2,,,74,127
39215,note_off,0,0,0,,1,,,73,127
39216,note_on,1,0,0,,1,,,73,127
39311,note_off,95,0,0,,1,,,73,127
39312,note_on,1,0,0,,2,,,74,127
39312,note_on,0,0,0,,12,,,71,127
39407,note_off,95,0,0,,12,,,71,127
39407,note_off,0,0,0,,2,,,74,127
39408,note_on,1,0,0,,12,,,71,127
39504,note_on,96,0,0,,2,,,74,127
39599,note_off,95,0,0,,2,,,74,127
39600,note_on,1,0,0,,8,,,80,127
39695,note_off,95,0,0,,8,,,80,127
39695,note_off,0,0,0,,12,,,71,127
39696,note_on,1,0,0,,12,,,83,127
39696,note_on,0,0,0,,4,,,64,127
39791,note_off,95,0,0,,12,,,83,127
39792,note_on,1,0,0,,2,,,74,127
39887,note_off,95,0,0,,2,,,74,127
39888,note_on,1,0,0,,1,,,73,127
39983,note_off,95,0,0,,1,,,73,127
39984,note_on,1,0,0,,12,,,71,127
40079,note_off,95,0,0,,12,,,71,127
40079,note_off,0,0,0,,4,,,64,127
40080,note_on,1,0,0,,1,,,73,127
40080,note_on,0,0,0,,10,,,69,127
40175,note_off,95,0,0,,1,,,73,127
40176,note_on,1,0,0,,12,,,71,127
40271,note_off,95,0,0,,12,,,71,127
40271,note_off,0,0,0,,10,,,69,127
40272,note_on,1,0,0,,10,,,69,127
40368,note_on,96,0,0,,8,,,68,127
40463,note_off,95,0,0,,8,,,68,127
40463,note_off,0,0,0,,10,,,69,127
40464,note_on,1,0,0,,6,,,66,127
40464,note_on,0,0,0,,10,,,57,127
40559,note_off,95,0,0,,6,,,66,127
40560,note_on,1,0,0,,4,,,64,127
40655,note_off,95,0,0,,4,,,64,127
40656,note_on,1,0,0,,2,,,62,127
40751,note_off,95,0,0,,2,,,62,127
40752,note_on,1,0,0,,1,,,61,127
40843,note_off,91,0,0,,10,,,57,127
40847,note_off,4,0,0,,1,,,61,127
40848,note_on,1,0,0,,2,,,62,127
40848,note_on,0,0,0,,12,,,59,127
40943,note_off,95,0,0,,12,,,59,127
40943,note_off,0,0,0,,2,,,62,127
40944,note_on,1,0,0,,12,,,59,127
41040,note_on,96,0,0,,2,,,62,127
41135,note_off,95,0,0,,2,,,62,127
41136,note_on,1,0,0,,8,,,68,127
41231,note_off,95,0,0,,8,,,68,127
41231,note_off,0,0,0,,12,,,59,127
41232,note_on,1,0,0,,12,,,71,127
41232,note_on,0,0,0,,4,,,52,127
41327,note_off,95,0,0,,12,,,71,127
41328,note_on,1,0,0,,2,,,62,127
41423,note_off,95,0,0,,2,,,62,127
41424,note_on,1,0,0,,1,,,61,127
41519,note_off,95,0,0,,1,,,61,127
41520,note_on,1,0,0,,12,,,59,127
41615,note_off,95,0,0,,12,,,59,127
41615,note_off,0,0,0,,4,,,52,127
41616,note_on,1,0,0,,1,,,61,127
41616,note_on,0,0,0,,10,,,57,127
41711,note_off,95,0,0,,10,,,57,127
41711,note_off,0,0,0,,1,,,61,127
41712,note_on,1,0,0,,10,,,57,127
41808,note_on,96,0,0,,1,,,61,127
41903,note_off,95,0,0,,1,,,61,127
41904,note_on,1,0,0,,4,,,64,127
41999,note_off,95,0,0,,4,,,64,127
41999,note_off,0,0,0,,10,,,57,127
42000,note_on,1,0,0,,10,,,69,127
42000,note_on,0,0,0,,1,,,61,127
42095,note_off,95,0,0,,10,,,69,127
42096,note_on,1,0,0,,4,,,64,127
42191,note_off,95,0,0,,4,,,64,127
42192,note_on,1,0,0,,2,,,62,127
42287,note_off,95,0,0,,2,,,62,127
42287,note_off,0,0,0,,1,,,61,127
42288,note_on,1,0,0,,1,,,61,127
42383,note_off,95,0,0,,1,,,61,127
42384,note_on,1,0,0,,2,,,62,127
42384,note_on,0,0,0,,12,,,59,127
42479,note_off,95,0,0,,12,,,59,127
42479,note_off,0,0,0,,2,,,62,127
42480,note_on,1,0,0,,12,,,59,127
42576,note_on,96,0,0,,2,,,62,127
42671,note_off,95,0,0,,2,,,62,127
42672,note_on,1,0,0,,8,,,68,127
42767,note_off,95,0,0,,8,,,68,127
42767,note_off,0,0,0,,12,,,59,127
42768,note_on,1,0,0,,12,,,71,127
42768,note_on,0,0,0,,4,,,52,127
42863,note_off,95,0,0,,12,,,71,127
42864,note_on,1,0,0,,2,,,62,127
42959,note_off,95,0,0,,2,,,62,127
42960,note_on,1,0,0,,1,,,61,127
43055,note_off,95,0,0,,1,,,61,127
43056,note_on,1,0,0,,12,,,59,127
43151,note_off,95,0,0,,12,,,59,127
43151,note_off,0,0,0,,4,,,52,127
43152,note_on,1,0,0,,12,,,59,127
43152,note_on,0,0,0,,10,,,45,127
43247,note_off,95,0,0,,12,,,59,127
43248,note_on,1,0,0,,1,,,61,127
43343,note_off,95,0,0,,1,,,61,127
43344,note_on,1,0,0,,10,,,57,127
43726,note_off,382,0,0,,10,,,45,127
43727,note_off,1,0,0,,10,,,57,127
43744,note_on,17,0,0,,4,,,64,127
43935,note_off,191,0,0,,4,,,64,127
43936,note_on,1,0,0,,1,,,61,127
43936,note_on,0,0,0,,10,,,57,127
43936,note_on,0,0,0,,4,,,64,127
44031,note_off,95,0,0,,4,,,64,127
44032,note_on,1,0,0,,5,,,65,127
44127,note_off,95,0,0,,5,,,65,127
44127,note_off,0,0,0,,10,,,57,127
44127,note_off,0,0,0,,1,,,61,127
44128,note_on,1,0,0,,10,,,57,127
44128,note_on,0,0,0,,2,,,62,127
44128,note_on,0,0,0,,7,,,67,127
44319,note_off,191,0,0,,2,,,62,127
44319,note_off,0,0,0,,10,,,57,127
44320,note_on,1,0,0,,4,,,64,127
44320,note_on,0,0,0,,10,,,57,127
44511,note_off,191,0,0,,10,,,57,127
44511,note_off,0,0,0,,4,,,64,127
44511,note_off,0,0,0,,7,,,67,127
44512,note_on,1,0,0,,2,,,62,127
44512,note_on,0,0,0,,10,,,57,127
44512,note_on,0,0,0,,5,,,65,127
44703,note_off,191,0,0,,5,,,65,127
44703,note_off,0,0,0,,10,,,57,127
44703,note_off,0,0,0,,2,,,62,127
44704,note_on,1,0,0,,2,,,62,127
44704,note_on,0,0,0,,10,,,57,127
44704,note_on,0,0,0,,5,,,65,127
44895,note_off,191,0,0,,5,,,65,127
44895,note_off,0,0,0,,10,,,57,127
44895,note_off,0,0,0,,2,,,62,127
44896,note_on,1,0,0,,10,,,57,127
44896,note_on,0,0,0,,2,,,62,127
44896,note_on,0,0,0,,4,,,64,127
45087,note_off,191,0,0,,2,,,62,127
45087,note_off,0,0,0,,10,,,57,127
45088,note_on,1,0,0,,10,,,57,127
45088,note_on,0,0,0,,1,,,61,127
45088,note_on,0,0,0,,7,,,55,127
45279,note_off,191,0,0,,7,,,55,127
45279,note_off,0,0,0,,1,,,61,127
45279,note_off,0,0,0,,10,,,57,127
45279,note_off,0,0,0,,4,,,64,127
45280,note_on,1,0,0,,10,,,57,127
45280,note_on,0,0,0,,7,,,55,127
45280,note_on,0,0,0,,1,,,61,127
45280,note_on,0,0,0,,4,,,64,127
45471,note_off,191,0,0,,4,,,64,127
45471,note_off,0,0,0,,1,,,61,127
45471,note_off,0,0,0,,7,,,55,127
45471,note_off,0,0,0,,10,,,57,127
45472,note_on,1,0,0,,10,,,57,127
45472,note_on,0,0,0,,7,,,55,127
45472,note_on,0,0,0,,1,,,61,127
45472,note_on,0,0,0,,7,,,67,127
45567,note_off,95,0,0,,7,,,67,127
45568,note_on,1,0,0,,10,,,69,127
45663,note_off,95,0,0,,10,,,69,127
45663,note_off,0,0,0,,1,,,61,127
45663,note_off,0,0,0,,7,,,55,127
45663,note_off,0,0,0,,10,,,57,127
45664,note_on,1,0,0,,1,,,61,127
45664,note_on,0,0,0,,10,,,57,127
45664,note_on,0,0,0,,7,,,55,127
45664,note_on,0,0,0,,11,,,70,127
45855,note_off,191,0,0,,11,,,70,127
45855,note_off,0,0,0,,7,,,55,127
45855,note_off,0,0,0,,10,,,57,127
45855,note_off,0,0,0,,1,,,61,127
45856,note_on,1,0,0,,7,,,55,127
45856,note_on,0,0,0,,1,,,61,127
45856,note_on,0,0,0,,10,,,57,127
45856,note_on,0,0,0,,10,,,69,127
46047,note_off,191,0,0,,10,,,69,127
46047,note_off,0,0,0,,10,,,57,127
46047,note_off,0,0,0,,1,,,61,127
46047,note_off,0,0,0,,7,,,55,127
46048,note_on,1,0,0,,10,,,57,127
46048,note_on,0,0,0,,7,,,55,127
46048,note_on,0,0,0,,1,,,61,127
46048,note_on,0,0,0,,8,,,68,127
46239,note_off,191,0,0,,8,,,68,127
46239,note_off,0,0,0,,1,,,61,127
46239,note_off,0,0,0,,7,,,55,127
46239,note_off,0,0,0,,10,,,57,127
46240,note_on,1,0,0,,2,,,62,127
46240,note_on,0,0,0,,10,,,57,127
46240,note_on,0,0,0,,5,,,53,127
46240,note_on,0,0,0,,8,,,68,127
46431,note_off,191,0,0,,8,,,68,127
46431,note_off,0,0,0,,5,,,53,127
46431,note_off,0,0,0,,10,,,57,127
46431,note_off,0,0,0,,2,,,62,127
46432,note_on,1,0,0,,5,,,53,127
46432,note_on,0,0,0,,10,,,57,127
46432,note_on,0,0,0,,2,,,62,127
46432,note_on,0,0,0,,10,,,69,127
46623,note_off,191,0,0,,2,,,62,127
46623,note_off,0,0,0,,10,,,57,127
46623,note_off,0,0,0,,5,,,53,127
46624,note_on,1,0,0,,5,,,53,127
46624,note_on,0,0,0,,10,,,57,127
46624,note_on,0,0,0,,2,,,62,127
46815,note_off,191,0,0,,2,,,62,127
46815,note_off,0,0,0,,10,,,57,127
46815,note_off,0,0,0,,5,,,53,127
46815,note_off,0,0,0,,10,,,69,127
46816,note_on,1,0,0,,5,,,53,127
46816,note_on,0,0,0,,10,,,57,127
46816,note_on,0,0,0,,2,,,62,127
46816,note_on,0,0,0,,10,,,69,127
47007,note_off,191,0,0,,10,,,69,127
47007,note_off,0,0,0,,2,,,62,127
47007,note_off,0,0,0,,10,,,57,127
47007,note_off,0,0,0,,5,,,53,127
47008,note_on,1,0,0,,10,,,57,127
47008,note_on,0,0,0,,5,,,53,127
47008,note_on,0,0,0,,2,,,62,127
47103,note_off,95,0,0,,2,,,62,127
47104,note_on,1,0,0,,4,,,64,127
47199,note_off,95,0,0,,4,,,64,127
47199,note_off,0,0,0,,5,,,53,127
47199,note_off,0,0,0,,10,,,57,127
47200,note_on,1,0,0,,10,,,57,127
47200,note_on,0,0,0,,5,,,53,127
47200,note_on,0,0,0,,5,,,65,127
47391,note_off,191,0,0,,5,,,53,127
47391,note_off,0,0,0,,10,,,57,127
47392,note_on,1,0,0,,10,,,57,127
47392,note_on,0,0,0,,5,,,53,127
47583,note_off,191,0,0,,5,,,53,127
47583,note_off,0,0,0,,10,,,57,127
47583,note_off,0,0,0,,5,,,65,127
47584,note_on,1,0,0,,5,,,53,127
47584,note_on,0,0,0,,10,,,57,127
47584,note_on,0,0,0,,4,,,64,127
47775,note_off,191,0,0,,4,,,64,127
47775,note_off,0,0,0,,10,,,57,127
47775,note_off,0,0,0,,5,,,53,127
47776,note_on,1,0,0,,6,,,54,127
47776,note_on,0,0,0,,10,,,57,127
47776,note_on,0,0,0,,12,,,59,127
47776,note_on,0,0,0,,4,,,64,127
47967,note_off,191,0,0,,4,,,64,127
47967,note_off,0,0,0,,12,,,59,127
47967,note_off,0,0,0,,10,,,57,127
47967,note_off,0,0,0,,6,,,54,127
47968,note_on,1,0,0,,10,,,57,127
47968,note_on,0,0,0,,6,,,54,127
47968,note_on,0,0,0,,12,,,59,127
47968,note_on,0,0,0,,3,,,63,127
48159,note_off,191,0,0,,12,,,59,127
48159,note_off,0,0,0,,6,,,54,127
48159,note_off,0,0,0,,10,,,57,127
48160,note_on,1,0,0,,12,,,59,127
48160,note_on,0,0,0,,6,,,54,127
48160,note_on,0,0,0,,10,,,57,127
48351,note_off,191,0,0,,10,,,57,127
48351,note_off,0,0,0,,6,,,54,127
48351,note_off,0,0,0,,12,,,59,127
48351,note_off,0,0,0,,3,,,63,127
48352,note_on,1,0,0,,10,,,57,127
48352,note_on,0,0,0,,6,,,54,127
48352,note_on,0,0,0,,12,,,59,127
48352,note_on,0,0,0,,3,,,63,127
48543,note_off,191,0,0,,3,,,63,127
48543,note_off,0,0,0,,12,,,59,127
48543,note_off,0,0,0,,6,,,54,127
48543,note_off,0,0,0,,10,,,57,127
48544,note_on,1,0,0,,10,,,57,127
48544,note_on,0,0,0,,6,,,54,127
48544,note_on,0,0,0,,12,,,59,127
48544,note_on,0,0,0,,10,,,69,127
48639,note_off,95,0,0,,10,,,69,127
48640,note_on,1,0,0,,12,,,71,127
48735,note_off,95,0,0,,12,,,71,127
48735,note_off,0,0,0,,12,,,59,127
48735,note_off,0,0,0,,6,,,54,127
48735,note_off,0,0,0,,10,,,57,127
48736,note_on,1,0,0,,6,,,54,127
48736,note_on,0,0,0,,12,,,59,127
48736,note_on,0,0,0,,10,,,57,127
48736,note_on,0,0,0,,0,,,72,127
48927,note_off,191,0,0,,0,,,72,127
48927,note_off,0,0,0,,10,,,57,127
48927,note_off,0,0,0,,12,,,59,127
48927,note_off,0,0,0,,6,,,54,127
48928,note_on,1,0,0,,6,,,54,127
48928,note_on,0,0,0,,10,,,57,127
48928,note_on,0,0,0,,12,,,59,127
48928,note_on,0,0,0,,12,,,71,127
49119,note_off,191,0,0,,12,,,71,127
49119,note_off,0,0,0,,12,,,59,127
49119,note_off,0,0,0,,10,,,57,127
49119,note_off,0,0,0,,6,,,54,127
49120,note_on,1,0,0,,6,,,54,127
49120,note_on,0,0,0,,10,,,57,127
49120,note_on,0,0,0,,12,,,59,127
49120,note_on,0,0,0,,10,,,69,127
49311,note_off,191,0,0,,10,,,69,127
49311,note_off,0,0,0,,12,,,59,127
49311,note_off,0,0,0,,10,,,57,127
49311,note_off,0,0,0,,6,,,54,127
49312,note_on,1,0,0,,10,,,57,127
49312,note_on,0,0,0,,4,,,52,127
49312,note_on,0,0,0,,12,,,59,127
49312,note_on,0,0,0,,8,,,68,127
49503,note_off,191,0,0,,12,,,59,127
49503,note_off,0,0,0,,4,,,52,127
49503,note_off,0,0,0,,10,,,57,127
49504,note_on,1,0,0,,12,,,59,127
49504,note_on,0,0,0,,10,,,57,127
49504,note_on,0,0,0,,4,,,52,127
49504,note_on,0,0,0,,5,,,65,127
49695,note_off,191,0,0,,5,,,65,127
49695,note_off,0,0,0,,4,,,52,127
49695,note_off,0,0,0,,10,,,57,127
49695,note_off,0,0,0,,12,,,59,127
49696,note_on,1,0,0,,4,,,52,127
49696,note_on,0,0,0,,12,,,59,127
49696,note_on,0,0,0,,10,,,57,127
49696,note_on,0,0,0,,4,,,64,127
49887,note_off,191,0,0,,4,,,64,127
49887,note_off,0,0,0,,10,,,57,127
49887,note_off,0,0,0,,12,,,59,127
49887,note_off,0,0,0,,4,,,52,127
49887,note_off,0,0,0,,8,,,68,127
49888,note_on,1,0,0,,10,,,57,127
49888,note_on,0,0,0,,4,,,52,127
49888,note_on,0,0,0,,12,,,59,127
49888,note_on,0,0,0,,8,,,68,127
49888,note_on,0,0,0,,2,,,62,127
50079,note_off,191,0,0,,2,,,62,127
50079,note_off,0,0,0,,8,,,68,127
50079,note_off,0,0,0,,12,,,59,127
50079,note_off,0,0,0,,4,,,52,127
50079,note_off,0,0,0,,10,,,57,127
50080,note_on,1,0,0,,10,,,57,127
50080,note_on,0,0,0,,4,,,52,127
50080,note_on,0,0,0,,10,,,69,127
50271,note_off,191,0,0,,10,,,69,127
50271,note_off,0,0,0,,4,,,52,127
50271,note_off,0,0,0,,10,,,57,127
50272,note_on,1,0,0,,4,,,52,127
50272,note_on,0,0,0,,10,,,57,127
50272,note_on,0,0,0,,4,,,64,127
50272,note_on,0,0,0,,0,,,60,127
50463,note_off,191,0,0,,0,,,60,127
50463,note_off,0,0,0,,4,,,64,127
50463,note_off,0,0,0,,10,,,57,127
50463,note_off,0,0,0,,4,,,52,127
50464,note_on,1,0,0,,4,,,52,127
50464,note_on,0,0,0,,2,,,62,127
50464,note_on,0,0,0,,12,,,59,127
50655,note_off,191,0,0,,12,,,59,127
50655,note_off,0,0,0,,2,,,62,127
50655,note_off,0,0,0,,4,,,52,127
50656,note_on,1,0,0,,4,,,52,127
50656,note_on,0,0,0,,0,,,60,127
50656,note_on,0,0,0,,10,,,57,127
50847,note_off,191,0,0,,10,,,57,127
50847,note_off,0,0,0,,0,,,60,127
50847,note_off,0,0,0,,4,,,52,127
50854,note_on,7,0,0,,8,,,56,127
50854,note_on,0,0,0,,12,,,59,127
50950,note_on,96,0,0,,4,,,52,127
51045,note_off,95,0,0,,4,,,52,127
51045,note_off,0,0,0,,12,,,59,127
51045,note_off,0,0,0,,8,,,56,127
51046,note_on,1,0,0,,8,,,56,127
51141,note_off,95,0,0,,8,,,56,127
51142,note_on,1,0,0,,12,,,59,127
51238,note_on,96,0,0,,1,,,61,127
51238,note_on,0,0,0,,4,,,64,127
51333,note_off,95,0,0,,12,,,59,127
51334,note_on,1,0,0,,10,,,57,127
51429,note_off,95,0,0,,10,,,57,127
51429,note_off,0,0,0,,4,,,64,127
51429,note_off,0,0,0,,1,,,61,127
51430,note_on,1,0,0,,1,,,61,127
51525,note_off,95,0,0,,1,,,61,127
51526,note_on,1,0,0,,4,,,64,127
51622,note_on,96,0,0,,8,,,68,127
51622,note_on,0,0,0,,12,,,71,127
51717,note_off,95,0,0,,4,,,64,127
51718,note_on,1,0,0,,4,,,64,127
51813,note_off,95,0,0,,4,,,64,127
51813,note_off,0,0,0,,12,,,71,127
51813,note_off,0,0,0,,8,,,68,127
51814,note_on,1,0,0,,8,,,68,127
51909,note_off,95,0,0,,8,,,68,127
51910,note_on,1,0,0,,12,,,71,127
52006,note_on,96,0,0,,4,,,76,127
52006,note_on,0,0,0,,1,,,73,127
52101,note_off,95,0,0,,12,,,71,127
52102,note_on,1,0,0,,10,,,69,127
52197,note_off,95,0,0,,10,,,69,127
52197,note_off,0,0,0,,1,,,73,127
52197,note_off,0,0,0,,4,,,76,127
52198,note_on,1,0,0,,1,,,73,127
52293,note_off,95,0,0,,1,,,73,127
52294,note_on,1,0,0,,4,,,76,127
52389,note_off,95,0,0,,4,,,76,127
52390,note_on,1,0,0,,8,,,56,127
52390,note_on,0,0,0,,12,,,59,127
52486,note_on,96,0,0,,4,,,52,127
52581,note_off,95,0,0,,4,,,52,127
52581,note_off,0,0,0,,12,,,59,127
52581,note_off,0,0,0,,8,,,56,127
52582,note_on,1,0,0,,8,,,56,127
52677,note_off,95,0,0,,8,,,56,127
52678,note_on,1,0,0,,12,,,59,127
52774,note_on,96,0,0,,4,,,64,127
52774,note_on,0,0,0,,1,,,61,127
52869,note_off,95,0,0,,12,,,59,127
52870,note_on,1,0,0,,10,,,57,127
52965,note_off,95,0,0,,10,,,57,127
52965,note_off,0,0,0,,1,,,61,127
52965,note_off,0,0,0,,4,,,64,127
52966,note_on,1,0,0,,1,,,61,127
53061,note_off,95,0,0,,1,,,61,127
53062,note_on,1,0,0,,4,,,64,127
53158,note_on,96,0,0,,12,,,71,127
53158,note_on,0,0,0,,8,,,68,127
53253,note_off,95,0,0,,4,,,64,127
53254,note_on,1,0,0,,4,,,64,127
53349,note_off,95,0,0,,4,,,64,127
53349,note_off,0,0,0,,8,,,68,127
53349,note_off,0,0,0,,12,,,71,127
53350,note_on,1,0,0,,8,,,68,127
53445,note_off,95,0,0,,8,,,68,127
53446,note_on,1,0,0,,12,,,71,127
53542,note_on,96,0,0,,1,,,73,127
53542,note_on,0,0,0,,4,,,76,127
53637,note_off,95,0,0,,12,,,71,127
53638,note_on,1,0,0,,10,,,69,127
53733,note_off,95,0,0,,10,,,69,127
53733,note_off,0,0,0,,4,,,76,127
53733,note_off,0,0,0,,1,,,73,127
53734,note_on,1,0,0,,1,,,73,127
53829,note_off,95,0,0,,1,,,73,127
53830,note_on,1,0,0,,4,,,76,127
53925,note_off,95,0,0,,4,,,76,127
53930,note_on,5,0,0,,1,,,61,127
53930,note_on,0,0,0,,4,,,64,127
54026,note_on,96,0,0,,10,,,57,127
54121,note_off,95,0,0,,10,,,57,127
54121,note_off,0,0,0,,4,,,64,127
54121,note_off,0,0,0,,1,,,61,127
54122,note_on,1,0,0,,1,,,61,127
54217,note_off,95,0,0,,1,,,61,127
54218,note_on,1,0,0,,4,,,64,127
54314,note_on,96,0,0,,10,,,69,127
54314,note_on,0,0,0,,6,,,66,127
54409,note_off,95,0,0,,4,,,64,127
54410,note_on,1,0,0,,2,,,62,127
54505,note_off,95,0,0,,2,,,62,127
54505,note_off,0,0,0,,6,,,66,127
54505,note_off,0,0,0,,10,,,69,127
54506,note_on,1,0,0,,6,,,66,127
54601,note_off,95,0,0,,6,,,66,127
54602,note_on,1,0,0,,10,,,69,127
54698,note_on,96,0,0,,4,,,76,127
54698,note_on,0,0,0,,1,,,73,127
54793,note_off,95,0,0,,10,,,69,127
54794,note_on,1,0,0,,10,,,69,127
54889,note_off,95,0,0,,10,,,69,127
54889,note_off,0,0,0,,1,,,73,127
54889,note_off,0,0,0,,4,,,76,127
54890,note_on,1,0,0,,1,,,73,127
54985,note_off,95,0,0,,1,,,73,127
54986,note_on,1,0,0,,4,,,76,127
55082,note_on,96,0,0,,6,,,78,127
55082,note_on,0,0,0,,10,,,81,127
55177,note_off,95,0,0,,4,,,76,127
55178,note_on,1,0,0,,2,,,74,127
55273,note_off,95,0,0,,2,,,74,127
55273,note_off,0,0,0,,10,,,81,127
55273,note_off,0,0,0,,6,,,78,127
55274,note_on,1,0,0,,6,,,78,127
55369,note_off,95,0,0,,6,,,78,127
55370,note_on,1,0,0,,10,,,81,127
55465,note_off,95,0,0,,10,,,81,127
55466,note_on,1,0,0,,1,,,61,127
55466,note_on,0,0,0,,4,,,64,127
55562,note_on,96,0,0,,10,,,57,127
55657,note_off,95,0,0,,10,,,57,127
55657,note_off,0,0,0,,4,,,64,127
55657,note_off,0,0,0,,1,,,61,127
55658,note_on,1,0,0,,1,,,61,127
55753,note_off,95,0,0,,1,,,61,127
55754,note_on,1,0,0,,4,,,64,127
55850,note_on,96,0,0,,10,,,69,127
55850,note_on,0,0,0,,6,,,66,127
55945,note_off,95,0,0,,4,,,64,127
55946,note_on,1,0,0,,2,,,62,127
56041,note_off,95,0,0,,2,,,62,127
56041,note_off,0,0,0,,6,,,66,127
56041,note_off,0,0,0,,10,,,69,127
56042,note_on,1,0,0,,6,,,66,127
56137,note_off,95,0,0,,6,,,66,127
56138,note_on,1,0,0,,10,,,69,127
56234,note_on,96,0,0,,4,,,76,127
56234,note_on,0,0,0,,1,,,73,127
56329,note_off,95,0,0,,10,,,69,127
56330,note_on,1,0,0,,10,,,69,127
56425,note_off,95,0,0,,10,,,69,127
56425,note_off,0,0,0,,1,,,73,127
56425,note_off,0,0,0,,4,,,76,127
56426,note_on,1,0,0,,1,,,73,127
56521,note_off,95,0,0,,1,,,73,127
56522,note_on,1,0,0,,4,,,76,127
56618,note_on,96,0,0,,6,,,78,127
56618,note_on,0,0,0,,10,,,81,127
56713,note_off,95,0,0,,4,,,76,127
56714,note_on,1,0,0,,2,,,74,127
56809,note_off,95,0,0,,2,,,74,127
56809,note_off,0,0,0,,10,,,81,127
56809,note_off,0,0,0,,6,,,78,127
56810,note_on,1,0,0,,6,,,78,127
56905,note_off,95,0,0,,6,,,78,127
56906,note_on,1,0,0,,10,,,81,127
56976,note_off,70,0,0,,10,,,81,127
57007,note_on,31,0,0,,10,,,81,127
57103,note_on,96,0,0,,2,,,74,127
57198,note_off,95,0,0,,2,,,74,127
57199,note_on,1,0,0,,6,,,78,127
57294,note_off,95,0,0,,6,,,78,127
57294,note_off,0,0,0,,10,,,81,127
57295,note_on,1,0,0,,10,,,81,127
57391,note_on,96,0,0,,10,,,69,127
57486,note_off,95,0,0,,10,,,81,127
57487,note_on,1,0,0,,1,,,73,127
57582,note_off,95,0,0,,1,,,73,127
57583,note_on,1,0,0,,4,,,76,127
57678,note_off,95,0,0,,4,,,76,127
57679,note_on,1,0,0,,10,,,81,127
57774,note_off,95,0,0,,10,,,81,127
57774,note_off,0,0,0,,10,,,69,127
57775,note_on,1,0,0,,10,,,81,127
57871,note_on,96,0,0,,12,,,71,127
57966,note_off,95,0,0,,12,,,71,127
57967,note_on,1,0,0,,2,,,74,127
58062,note_off,95,0,0,,2,,,74,127
58063,note_on,1,0,0,,4,,,76,127
58158,note_off,95,0,0,,4,,,76,127
58158,note_off,0,0,0,,10,,,81,127
58159,note_on,1,0,0,,10,,,69,127
58254,note_off,95,0,0,,10,,,69,127
58255,note_on,1,0,0,,10,,,69,127
58351,note_on,96,0,0,,1,,,73,127
58446,note_off,95,0,0,,1,,,73,127
58447,note_on,1,0,0,,4,,,76,127
58542,note_off,95,0,0,,4,,,76,127
58542,note_off,0,0,0,,10,,,69,127
58543,note_on,1,0,0,,4,,,76,127
58639,note_on,96,0,0,,8,,,68,127
58734,note_off,95,0,0,,8,,,68,127
58735,note_on,1,0,0,,12,,,71,127
58830,note_off,95,0,0,,12,,,71,127
58830,note_off,0,0,0,,4,,,76,127
58831,note_on,1,0,0,,4,,,76,127
58927,note_on,96,0,0,,6,,,66,127
59022,note_off,95,0,0,,6,,,66,127
59022,note_off,0,0,0,,4,,,76,127
59023,note_on,1,0,0,,6,,,66,127
59119,note_on,96,0,0,,10,,,69,127
59214,note_off,95,0,0,,10,,,69,127
59215,note_on,1,0,0,,4,,,76,127
59310,note_off,95,0,0,,4,,,76,127
59310,note_off,0,0,0,,6,,,66,127
59311,note_on,1,0,0,,4,,,76,127
59407,note_on,96,0,0,,4,,,64,127
59502,note_off,95,0,0,,4,,,64,127
59503,note_on,1,0,0,,8,,,68,127
59598,note_off,95,0,0,,8,,,68,127
59599,note_on,1,0,0,,12,,,71,127
59694,note_off,95,0,0,,12,,,71,127
59694,note_off,0,0,0,,4,,,76,127
59695,note_on,1,0,0,,2,,,62,127
59790,note_off,95,0,0,,2,,,62,127
59791,note_on,1,0,0,,2,,,62,127
59887,note_on,96,0,0,,8,,,68,127
59982,note_off,95,0,0,,8,,,68,127
59983,note_on,1,0,0,,12,,,71,127
60078,note_off,95,0,0,,12,,,71,127
60078,note_off,0,0,0,,2,,,62,127
60079,note_on,1,0,0,,4,,,76,127
60175,note_on,96,0,0,,1,,,61,127
60270,note_off,95,0,0,,1,,,61,127
60271,note_on,1,0,0,,4,,,64,127
60366,note_off,95,0,0,,4,,,64,127
60367,note_on,1,0,0,,10,,,69,127
60462,note_off,95,0,0,,10,,,69,127
60462,note_off,0,0,0,,4,,,76,127
60463,note_on,1,0,0,,12,,,59,127
60558,note_off,95,0,0,,12,,,59,127
60559,note_on,1,0,0,,12,,,59,127
60655,note_on,96,0,0,,2,,,62,127
60750,note_off,95,0,0,,2,,,62,127
60751,note_on,1,0,0,,8,,,68,127
60846,note_off,95,0,0,,8,,,68,127
60846,note_off,0,0,0,,12,,,59,127
60847,note_on,1,0,0,,4,,,76,127
60943,note_on,96,0,0,,10,,,57,127
61038,note_off,95,0,0,,10,,,57,127
61039,note_on,1,0,0,,1,,,61,127
61134,note_off,95,0,0,,1,,,61,127
61135,note_on,1,0,0,,4,,,64,127
61230,note_off,95,0,0,,4,,,64,127
61230,note_off,0,0,0,,4,,,76,127
61231,note_on,1,0,0,,8,,,56,127
61326,note_off,95,0,0,,8,,,56,127
61327,note_on,1,0,0,,8,,,56,127
61423,note_on,96,0,0,,12,,,59,127
61518,note_off,95,0,0,,12,,,59,127
61519,note_on,1,0,0,,4,,,64,127
61614,note_off,95,0,0,,4,,,64,127
61614,note_off,0,0,0,,8,,,56,127
61615,note_on,1,0,0,,4,,,76,127
61711,note_on,96,0,0,,6,,,54,127
61806,note_off,95,0,0,,6,,,54,127
61807,note_on,1,0,0,,10,,,57,127
61902,note_off,95,0,0,,10,,,57,127
61902,note_off,0,0,0,,4,,,76,127
61903,note_on,1,0,0,,4,,,64,127
61998,note_off,95,0,0,,4,,,64,127
61999,note_on,1,0,0,,4,,,52,127
62094,note_off,95,0,0,,4,,,52,127
62095,note_on,1,0,0,,4,,,52,127
62191,note_on,96,0,0,,8,,,56,127
62286,note_off,95,0,0,,8,,,56,127
62287,note_on,1,0,0,,12,,,59,127
62382,note_off,95,0,0,,12,,,59,127
62382,note_off,0,0,0,,4,,,52,127
62383,note_on,1,0,0,,4,,,76,127
62479,note_on,96,0,0,,2,,,50,127
62574,note_off,95,0,0,,2,,,50,127
62575,note_on,1,0,0,,8,,,56,127
62670,note_off,95,0,0,,8,,,56,127
62671,note_on,1,0,0,,12,,,59,127
62766,note_off,95,0,0,,12,,,59,127
62766,note_off,0,0,0,,4,,,76,127
62767,note_on,1,0,0,,1,,,49,127
62862,note_off,95,0,0,,1,,,49,127
62863,note_on,1,0,0,,1,,,49,127
62959,note_on,96,0,0,,4,,,52,127
63054,note_off,95,0,0,,4,,,52,127
63055,note_on,1,0,0,,10,,,57,127
63150,note_off,95,0,0,,10,,,57,127
63150,note_off,0,0,0,,1,,,49,127
63151,note_on,1,0,0,,12,,,47,127
63151,note_on,0,0,0,,2,,,50,127
63151,note_on,0,0,0,,8,,,56,127
63247,note_on,96,0,0,,2,,,62,127
63342,note_off,95,0,0,,2,,,62,127
63343,note_on,1,0,0,,1,,,61,127
63438,note_off,95,0,0,,1,,,61,127
63439,note_on,1,0,0,,12,,,59,127
63534,note_off,95,0,0,,12,,,59,127
63534,note_off,0,0,0,,8,,,56,127
63534,note_off,0,0,0,,2,,,50,127
63534,note_off,0,0,0,,12,,,47,127
63535,note_on,1,0,0,,10,,,45,127
63535,note_on,0,0,0,,10,,,57,127
63535,note_on,0,0,0,,1,,,61,127
63630,note_off,95,0,0,,1,,,61,127
63630,note_off,0,0,0,,10,,,57,127
63631,note_on,1,0,0,,10,,,57,127
63726,note_off,95,0,0,,10,,,57,127
63726,note_off,0,0,0,,10,,,45,127
63727,note_on,1,0,0,,2,,,50,127
63727,note_on,0,0,0,,2,,,62,127
63822,note_off,95,0,0,,2,,,62,127
63823,note_on,1,0,0,,1,,,61,127
63918,note_off,95,0,0,,1,,,61,127
63918,note_off,0,0,0,,2,,,50,127
63919,note_on,1,0,0,,4,,,52,127
63919,note_on,0,0,0,,4,,,40,127
63919,note_on,0,0,0,,1,,,61,127
63919,note_on,0,0,0,,10,,,57,127
64302,note_off,383,0,0,,10,,,57,127
64302,note_off,0,0,0,,4,,,40,127
64302,note_off,0,0,0,,4,,,52,127
64303,note_on,1,0,0,,4,,,52,127
64303,note_on,0,0,0,,4,,,40,127
64303,note_on,0,0,0,,8,,,56,127
64350,note_off,47,0,0,,1,,,61,127
64351,note_on,1,0,0,,12,,,59,127
64398,note_off,47,0,0,,12,,,59,127
64399,note_on,1,0,0,,1,,,61,127
64446,note_off,47,0,0,,1,,,61,127
64447,note_on,1,0,0,,12,,,59,127
64686,note_off,239,0,0,,12,,,59,127
64686,note_off,0,0,0,,8,,,56,127
64686,note_off,0,0,0,,4,,,40,127
64686,note_off,0,0,0,,4,,,52,127
64687,note_on,1,0,0,,10,,,45,127
64687,note_on,0,0,0,,10,,,57,127
64782,note_off,95,0,0,,10,,,57,127
64783,note_on,1,0,0,,12,,,59,127
64878,note_off,95,0,0,,12,,,59,127
64879,note_on,1,0,0,,1,,,61,127
64974,note_off,95,0,0,,1,,,61,127
64975,note_on,1,0,0,,2,,,62,127
65070,note_off,95,0,0,,2,,,62,127
65070,note_off,0,0,0,,10,,,45,127
65071,note_on,1,0,0,,4,,,64,127
65166,note_off,95,0,0,,4,,,64,127
65167,note_on,1,0,0,,6,,,66,127
65262,note_off,95,0,0,,6,,,66,127
65263,note_on,1,0,0,,8,,,68,127
65358,note_off,95,0,0,,8,,,68,127
65359,note_on,1,0,0,,4,,,64,127
65454,note_off,95,0,0,,4,,,64,127
65455,note_on,1,0,0,,10,,,45,127
65455,note_on,0,0,0,,10,,,69,127
65550,note_off,95,0,0,,10,,,45,127
65551,note_on,1,0,0,,12,,,47,127
65646,note_off,95,0,0,,12,,,47,127
65647,note_on,1,0,0,,1,,,49,127
65742,note_off,95,0,0,,1,,,49,127
65743,note_on,1,0,0,,2,,,50,127
65838,note_off,95,0,0,,2,,,50,127
65839,note_on,1,0,0,,4,,,52,127
65934,note_off,95,0,0,,4,,,52,127
65935,note_on,1,0,0,,6,,,54,127
66030,note_off,95,0,0,,6,,,54,127
66030,note_off,0,0,0,,10,,,69,127
66031,note_on,1,0,0,,8,,,56,127
66031,note_on,0,0,0,,12,,,59,127
66126,note_off,95,0,0,,8,,,56,127
66127,note_on,1,0,0,,4,,,52,127
66222,note_off,95,0,0,,4,,,52,127
66222,note_off,0,0,0,,12,,,59,127
66223,note_on,1,0,0,,10,,,57,127
66223,note_on,0,0,0,,1,,,61,127
66318,note_off,95,0,0,,10,,,57,127
66319,note_on,1,0,0,,12,,,59,127
66414,note_off,95,0,0,,12,,,59,127
66414,note_off,0,0,0,,1,,,61,127
66415,note_on,1,0,0,,1,,,61,127
66510,note_off,95,0,0,,1,,,61,127
66511,note_on,1,0,0,,2,,,62,127
66606,note_off,95,0,0,,2,,,62,127
66607,note_on,1,0,0,,4,,,64,127
66702,note_off,95,0,0,,4,,,64,127
66703,note_on,1,0,0,,6,,,66,127
66798,note_off,95,0,0,,6,,,66,127
66799,note_on,1,0,0,,8,,,68,127
66799,note_on,0,0,0,,12,,,71,127
66894,note_off,95,0,0,,8,,,68,127
66895,note_on,1,0,0,,4,,,64,127
66990,note_off,95,0,0,,4,,,64,127
66990,note_off,0,0,0,,12,,,71,127
66991,note_on,1,0,0,,10,,,69,127
66991,note_on,0,0,0,,1,,,73,127
67086,note_off,95,0,0,,10,,,69,127
67087,note_on,1,0,0,,12,,,71,127
67182,note_off,95,0,0,,12,,,71,127
67182,note_off,0,0,0,,1,,,73,127
67183,note_on,1,0,0,,1,,,73,127
67278,note_off,95,0,0,,1,,,73,127
67279,note_on,1,0,0,,2,,,74,127
67374,note_off,95,0,0,,2,,,74,127
67375,note_on,1,0,0,,4,,,76,127
67470,note_off,95,0,0,,4,,,76,127
67471,note_on,1,0,0,,6,,,78,127
67566,note_off,95,0,0,,6,,,78,127
67567,note_on,1,0,0,,8,,,80,127
67662,note_off,95,0,0,,8,,,80,127
67663,note_on,1,0,0,,4,,,76,127
67758,note_off,95,0,0,,4,,,76,127
67759,note_on,1,0,0,,10,,,81,127
67854,note_off,95,0,0,,10,,,81,127
67855,note_on,1,0,0,,8,,,80,127
67950,note_off,95,0,0,,8,,,80,127
67951,note_on,1,0,0,,6,,,78,127
68046,note_off,95,0,0,,6,,,78,127
68047,note_on,1,0,0,,4,,,76,127
68142,note_off,95,0,0,,4,,,76,127
68143,note_on,1,0,0,,6,,,78,127
68143,note_on,0,0,0,,10,,,81,127
68238,note_off,95,0,0,,10,,,81,127
68238,note_off,0,0,0,,6,,,78,127
68239,note_on,1,0,0,,4,,,76,127
68239,note_on,0,0,0,,8,,,80,127
68334,note_off,95,0,0,,8,,,80,127
68334,note_off,0,0,0,,4,,,76,127
68335,note_on,1,0,0,,2,,,74,127
68335,note_on,0,0,0,,6,,,78,127
68430,note_off,95,0,0,,6,,,78,127
68430,note_off,0,0,0,,2,,,74,127
68431,note_on,1,0,0,,1,,,73,127
68431,note_on,0,0,0,,4,,,76,127
68526,note_off,95,0,0,,4,,,76,127
68526,note_off,0,0,0,,1,,,73,127
68527,note_on,1,0,0,,2,,,74,127
68527,note_on,0,0,0,,6,,,78,127
68622,note_off,95,0,0,,6,,,78,127
68622,note_off,0,0,0,,2,,,74,127
68623,note_on,1,0,0,,1,,,73,127
68623,note_on,0,0,0,,4,,,76,127
68718,note_off,95,0,0,,4,,,76,127
68718,note_off,0,0,0,,1,,,73,127
68719,note_on,1,0,0,,12,,,71,127
68719,note_on,0,0,0,,2,,,74,127
68814,note_off,95,0,0,,2,,,74,127
68814,note_off,0,0,0,,12,,,71,127
68815,note_on,1,0,0,,10,,,69,127
68815,note_on,0,0,0,,1,,,73,127
68910,note_off,95,0,0,,1,,,73,127
68910,note_off,0,0,0,,10,,,69,127
68911,note_on,1,0,0,,12,,,71,127
68911,note_on,0,0,0,,2,,,74,127
69006,note_off,95,0,0,,2,,,74,127
69006,note_off,0,0,0,,12,,,71,127
69007,note_on,1,0,0,,10,,,69,127
69007,note_on,0,0,0,,1,,,73,127
69102,note_off,95,0,0,,1,,,73,127
69102,note_off,0,0,0,,10,,,69,127
69103,note_on,1,0,0,,8,,,68,127
69103,note_on,0,0,0,,12,,,71,127
69198,note_off,95,0,0,,12,,,71,127
69198,note_off,0,0,0,,8,,,68,127
69199,note_on,1,0,0,,6,,,66,127
69199,note_on,0,0,0,,10,,,69,127
69294,note_off,95,0,0,,10,,,69,127
69294,note_off,0,0,0,,6,,,66,127
69295,note_on,1,0,0,,4,,,64,127
69295,note_on,0,0,0,,8,,,68,127
69390,note_off,95,0,0,,8,,,68,127
69390,note_off,0,0,0,,4,,,64,127
69391,note_on,1,0,0,,6,,,66,127
69391,note_on,0,0,0,,10,,,69,127
69486,note_off,95,0,0,,10,,,69,127
69486,note_off,0,0,0,,6,,,66,127
69487,note_on,1,0,0,,4,,,64,127
69487,note_on,0,0,0,,8,,,68,127
69582,note_off,95,0,0,,8,,,68,127
69582,note_off,0,0,0,,4,,,64,127
69583,note_on,1,0,0,,2,,,62,127
69583,note_on,0,0,0,,6,,,66,127
69678,note_off,95,0,0,,6,,,66,127
69678,note_off,0,0,0,,2,,,62,127
69679,note_on,1,0,0,,1,,,61,127
69679,note_on,0,0,0,,4,,,64,127
69774,note_off,95,0,0,,4,,,64,127
69774,note_off,0,0,0,,1,,,61,127
69775,note_on,1,0,0,,2,,,62,127
69775,note_on,0,0,0,,6,,,66,127
69870,note_off,95,0,0,,6,,,66,127
69870,note_off,0,0,0,,2,,,62,127
69871,note_on,1,0,0,,1,,,61,127
69871,note_on,0,0,0,,4,,,64,127
69966,note_off,95,0,0,,4,,,64,127
69966,note_off,0,0,0,,1,,,61,127
69967,note_on,1,0,0,,12,,,59,127
69967,note_on,0,0,0,,2,,,62,127
70062,note_off,95,0,0,,2,,,62,127
70062,note_off,0,0,0,,12,,,59,127
70063,note_on,1,0,0,,10,,,57,127
70063,note_on,0,0,0,,1,,,61,127
70158,note_off,95,0,0,,1,,,61,127
70158,note_off,0,0,0,,10,,,57,127
70159,note_on,1,0,0,,2,,,62,127
70159,note_on,0,0,0,,12,,,59,127
70254,note_off,95,0,0,,12,,,59,127
70254,note_off,0,0,0,,2,,,62,127
70255,note_on,1,0,0,,10,,,57,127
70255,note_on,0,0,0,,1,,,61,127
70350,note_off,95,0,0,,1,,,61,127
70350,note_off,0,0,0,,10,,,57,127
70351,note_on,1,0,0,,8,,,56,127
70351,note_on,0,0,0,,12,,,59,127
70446,note_off,95,0,0,,12,,,59,127
70446,note_off,0,0,0,,8,,,56,127
70447,note_on,1,0,0,,6,,,54,127
70447,note_on,0,0,0,,10,,,57,127
70542,note_off,95,0,0,,10,,,57,127
70542,note_off,0,0,0,,6,,,54,127
70543,note_on,1,0,0,,8,,,56,127
70543,note_on,0,0,0,,12,,,59,127
70638,note_off,95,0,0,,12,,,59,127
70638,note_off,0,0,0,,8,,,56,127
70639,note_on,1,0,0,,6,,,54,127
70639,note_on,0,0,0,,10,,,57,127
70734,note_off,95,0,0,,10,,,57,127
70734,note_off,0,0,0,,6,,,54,127
70735,note_on,1,0,0,,4,,,52,127
70735,note_on,0,0,0,,8,,,56,127
70830,note_off,95,0,0,,8,,,56,127
70830,note_off,0,0,0,,4,,,52,127
70831,note_on,1,0,0,,2,,,50,127
70831,note_on,0,0,0,,6,,,54,127
70926,note_off,95,0,0,,6,,,54,127
70927,note_on,1,0,0,,8,,,56,127
71022,note_off,95,0,0,,8,,,56,127
71022,note_off,0,0,0,,2,,,50,127
71023,note_on,1,0,0,,2,,,50,127
71023,note_on,0,0,0,,10,,,57,127
71118,note_off,95,0,0,,10,,,57,127
71119,note_on,1,0,0,,12,,,59,127
71214,note_off,95,0,0,,12,,,59,127
71214,note_off,0,0,0,,2,,,50,127
71215,note_on,1,0,0,,4,,,52,127
71215,note_on,0,0,0,,1,,,61,127
71310,note_off,95,0,0,,1,,,61,127
71311,note_on,1,0,0,,10,,,57,127
71406,note_off,95,0,0,,10,,,57,127
71406,note_off,0,0,0,,4,,,52,127
71407,note_on,1,0,0,,4,,,40,127
71407,note_on,0,0,0,,12,,,59,127
71502,note_off,95,0,0,,12,,,59,127
71503,note_on,1,0,0,,8,,,56,127
71598,note_off,95,0,0,,8,,,56,127
71598,note_off,0,0,0,,4,,,40,127
71599,note_on,1,0,0,,10,,,45,127
71599,note_on,0,0,0,,10,,,57,127
71694,note_off,95,0,0,,10,,,57,127
71703,note_on,9,0,0,,1,,,61,127
71798,note_off,95,0,0,,1,,,61,127
71799,note_on,1,0,0,,12,,,59,127
71894,note_off,95,0,0,,12,,,59,127
71895,note_on,1,0,0,,10,,,57,127
71990,note_off,95,0,0,,10,,,57,127
71991,note_on,1,0,0,,4,,,64,127
72086,note_off,95,0,0,,4,,,64,127
72087,note_on,1,0,0,,8,,,68,127
72182,note_off,95,0,0,,8,,,68,127
72183,note_on,1,0,0,,6,,,66,127
72278,note_off,95,0,0,,6,,,66,127
72279,note_on,1,0,0,,4,,,64,127
72374,note_off,95,0,0,,4,,,64,127
72375,note_on,1,0,0,,10,,,69,127
72470,note_off,95,0,0,,10,,,69,127
72471,note_on,1,0,0,,1,,,73,127
72566,note_off,95,0,0,,1,,,73,127
72567,note_on,1,0,0,,12,,,71,127
72662,note_off,95,0,0,,12,,,71,127
72663,note_on,1,0,0,,10,,,69,127
72758,note_off,95,0,0,,10,,,69,127
72759,note_on,1,0,0,,4,,,76,127
72854,note_off,95,0,0,,4,,,76,127
72855,note_on,1,0,0,,8,,,80,127
72950,note_off,95,0,0,,8,,,80,127
72951,note_on,1,0,0,,6,,,78,127
73046,note_off,95,0,0,,6,,,78,127
73047,note_on,1,0,0,,4,,,76,127
73134,note_off,87,0,0,,10,,,45,127
73142,note_off,8,0,0,,4,,,76,127
73143,note_on,1,0,0,,10,,,81,127
73143,note_on,0,0,0,,10,,,45,127
73238,note_off,95,0,0,,10,,,81,127
73239,note_on,1,0,0,,4,,,76,127
73334,note_off,95,0,0,,4,,,76,127
73335,note_on,1,0,0,,1,,,73,127
73430,note_off,95,0,0,,1,,,73,127
73431,note_on,1,0,0,,4,,,76,127
73526,note_off,95,0,0,,4,,,76,127
73526,note_off,0,0,0,,10,,,45,127
73527,note_on,1,0,0,,10,,,69,127
73527,note_on,0,0,0,,10,,,45,127
73622,note_off,95,0,0,,10,,,69,127
73623,note_on,1,0,0,,1,,,73,127
73718,note_off,95,0,0,,1,,,73,127
73719,note_on,1,0,0,,4,,,64,127
73814,note_off,95,0,0,,4,,,64,127
73815,note_on,1,0,0,,10,,,69,127
73910,note_off,95,0,0,,10,,,69,127
73910,note_off,0,0,0,,10,,,45,127
73911,note_on,1,0,0,,1,,,61,127
73911,note_on,0,0,0,,10,,,45,127
74006,note_off,95,0,0,,1,,,61,127
74007,note_on,1,0,0,,4,,,64,127
74102,note_off,95,0,0,,4,,,64,127
74103,note_on,1,0,0,,10,,,57,127
74198,note_off,95,0,0,,10,,,57,127
74199,note_on,1,0,0,,1,,,61,127
74294,note_off,95,0,0,,1,,,61,127
74294,note_off,0,0,0,,10,,,45,127
74295,note_on,1,0,0,,4,,,52,127
74295,note_on,0,0,0,,10,,,45,127
74390,note_off,95,0,0,,4,,,52,127
74391,note_on,1,0,0,,10,,,57,127
74486,note_off,95,0,0,,10,,,57,127
74487,note_on,1,0,0,,1,,,49,127
74582,note_off,95,0,0,,1,,,49,127
74583,note_on,1,0,0,,4,,,52,127
74678,note_off,95,0,0,,4,,,52,127
74678,note_off,0,0,0,,10,,,45,127
74679,note_on,1,0,0,,10,,,45,127
74774,note_off,95,0,0,,10,,,45,127
74775,note_on,1,0,0,,1,,,49,127
74870,note_off,95,0,0,,1,,,49,127
74871,note_on,1,0,0,,4,,,52,127
74966,note_off,95,0,0,,4,,,52,127
74967,note_on,1,0,0,,10,,,57,127
75062,note_off,95,0,0,,10,,,57,127
75063,note_on,1,0,0,,4,,,64,127
75158,note_off,95,0,0,,4,,,64,127
75159,note_on,1,0,0,,10,,,69,127
75254,note_off,95,0,0,,10,,,69,127
75255,note_on,1,0,0,,1,,,73,127
75350,note_off,95,0,0,,1,,,73,127
75351,note_on,1,0,0,,4,,,76,127
75446,note_off,95,0,0,,4,,,76,127
75460,note_on,14,0,0,,10,,,45,127
75940,note_off,480,0,0,,10,,,45,127
76035,note_on,95,0,0,,10,,,81,127
76130,note_off,95,0,0,,10,,,81,127
76131,note_on,1,0,0,,7,,,79,127
76226,note_off,95,0,0,,7,,,79,127
76227,note_on,1,0,0,,6,,,78,127
76322,note_off,95,0,0,,6,,,78,127
76323,note_on,1,0,0,,4,,,76,127
76418,note_off,95,0,0,,4,,,76,127
76419,note_on,1,0,0,,2,,,74,127
76514,note_off,95,0,0,,2,,,74,127
76515,note_on,1,0,0,,1,,,73,127
76610,note_off,95,0,0,,1,,,73,127
76611,note_on,1,0,0,,12,,,71,127
76706,note_off,95,0,0,,12,,,71,127
76707,note_on,1,0,0,,10,,,69,127
76802,note_off,95,0,0,,10,,,69,127
76803,note_on,1,0,0,,7,,,67,127
76898,note_off,95,0,0,,7,,,67,127
76899,note_on,1,0,0,,6,,,66,127
76994,note_off,95,0,0,,6,,,66,127
76995,note_on,1,0,0,,4,,,64,127
77090,note_off,95,0,0,,4,,,64,127
77091,note_on,1,0,0,,2,,,62,127
77186,note_off,95,0,0,,2,,,62,127
77187,note_on,1,0,0,,6,,,66,127
77282,note_off,95,0,0,,6,,,66,127
77283,note_on,1,0,0,,4,,,64,127
77378,note_off,95,0,0,,4,,,64,127
77379,note_on,1,0,0,,2,,,62,127
77474,note_off,95,0,0,,2,,,62,127
77475,note_on,1,0,0,,1,,,61,127
77570,note_off,95,0,0,,1,,,61,127
77571,note_on,1,0,0,,12,,,59,127
77666,note_off,95,0,0,,12,,,59,127
77667,note_on,1,0,0,,10,,,57,127
77762,note_off,95,0,0,,10,,,57,127
77763,note_on,1,0,0,,7,,,55,127
77858,note_off,95,0,0,,7,,,55,127
77859,note_on,1,0,0,,6,,,54,127
77954,note_off,95,0,0,,6,,,54,127
77955,note_on,1,0,0,,10,,,57,127
78050,note_off,95,0,0,,10,,,57,127
78051,note_on,1,0,0,,7,,,55,127
78146,note_off,95,0,0,,7,,,55,127
78147,note_on,1,0,0,,6,,,54,127
78242,note_off,95,0,0,,6,,,54,127
78243,note_on,1,0,0,,4,,,52,127
78338,note_off,95,0,0,,4,,,52,127
78339,note_on,1,0,0,,2,,,50,127
78434,note_off,95,0,0,,2,,,50,127
78435,note_on,1,0,0,,1,,,49,127
78530,note_off,95,0,0,,1,,,49,127
78531,note_on,1,0,0,,12,,,47,127
78626,note_off,95,0,0,,12,,,47,127
78627,note_on,1,0,0,,10,,,45,127
78827,note_on,200,0,0,,12,,,47,127
78837,note_off,10,0,0,,10,,,45,127
78874,note_off,37,0,0,,12,,,47,127
78875,note_on,1,0,0,,1,,,49,127
78922,note_off,47,0,0,,1,,,49,127
78923,note_on,1,0,0,,2,,,50,127
78970,note_off,47,0,0,,2,,,50,127
78971,note_on,1,0,0,,4,,,52,127
79018,note_off,47,0,0,,4,,,52,127
79019,note_on,1,0,0,,6,,,54,127
79066,note_off,47,0,0,,6,,,54,127
79067,note_on,1,0,0,,7,,,55,127
79114,note_off,47,0,0,,7,,,55,127
79115,note_on,1,0,0,,10,,,57,127
79211,note_on,96,0,0,,10,,,45,127
79306,note_off,95,0,0,,10,,,45,127
79306,note_off,0,0,0,,10,,,57,127
79307,note_on,1,0,0,,12,,,47,127
79402,note_off,95,0,0,,12,,,47,127
79403,note_on,1,0,0,,1,,,49,127
79498,note_off,95,0,0,,1,,,49,127
79499,note_on,1,0,0,,2,,,50,127
79594,note_off,95,0,0,,2,,,50,127
79595,note_on,1,0,0,,4,,,52,127
79690,note_off,95,0,0,,4,,,52,127
79691,note_on,1,0,0,,6,,,54,127
79786,note_off,95,0,0,,6,,,54,127
79787,note_on,1,0,0,,7,,,55,127
79882,note_off,95,0,0,,7,,,55,127
79883,note_on,1,0,0,,10,,,57,127
79978,note_off,95,0,0,,10,,,57,127
79979,note_on,1,0,0,,12,,,59,127
80074,note_off,95,0,0,,12,,,59,127
80075,note_on,1,0,0,,4,,,64,127
80075,note_on,0,0,0,,1,,,61,127
80170,note_off,95,0,0,,1,,,61,127
80171,note_on,1,0,0,,10,,,57,127
80266,note_off,95,0,0,,10,,,57,127
80266,note_off,0,0,0,,4,,,64,127
80267,note_on,1,0,0,,6,,,66,127
80267,note_on,0,0,0,,2,,,62,127
80362,note_off,95,0,0,,2,,,62,127
80363,note_on,1,0,0,,4,,,64,127
80458,note_off,95,0,0,,4,,,64,127
80458,note_off,0,0,0,,6,,,66,127
80459,note_on,1,0,0,,6,,,66,127
80554,note_off,95,0,0,,6,,,66,127
80555,note_on,1,0,0,,7,,,67,127
80650,note_off,95,0,0,,7,,,67,127
80651,note_on,1,0,0,,10,,,69,127
80746,note_off,95,0,0,,10,,,69,127
80747,note_on,1,0,0,,12,,,71,127
80842,note_off,95,0,0,,12,,,71,127
80843,note_on,1,0,0,,4,,,76,127
80843,note_on,0,0,0,,1,,,73,127
80938,note_off,95,0,0,,1,,,73,127
80939,note_on,1,0,0,,10,,,69,127
81034,note_off,95,0,0,,10,,,69,127
81034,note_off,0,0,0,,4,,,76,127
81039,note_on,5,0,0,,6,,,78,127
81039,note_on,0,0,0,,10,,,81,127
81135,note_on,96,0,0,,2,,,74,127
81230,note_off,95,0,0,,2,,,74,127
81230,note_off,0,0,0,,10,,,81,127
81230,note_off,0,0,0,,6,,,78,127
81231,note_on,1,0,0,,6,,,78,127
81326,note_off,95,0,0,,6,,,78,127
81327,note_on,1,0,0,,10,,,81,127
81423,note_on,96,0,0,,1,,,73,127
81423,note_on,0,0,0,,4,,,76,127
81518,note_off,95,0,0,,10,,,81,127
81519,note_on,1,0,0,,10,,,69,127
81614,note_off,95,0,0,,10,,,69,127
81614,note_off,0,0,0,,4,,,76,127
81614,note_off,0,0,0,,1,,,73,127
81615,note_on,1,0,0,,1,,,73,127
81710,note_off,95,0,0,,1,,,73,127
81711,note_on,1,0,0,,4,,,76,127
81807,note_on,96,0,0,,6,,,66,127
81807,note_on,0,0,0,,10,,,69,127
81902,note_off,95,0,0,,4,,,76,127
81903,note_on,1,0,0,,2,,,62,127
81998,note_off,95,0,0,,2,,,62,127
81998,note_off,0,0,0,,10,,,69,127
81998,note_off,0,0,0,,6,,,66,127
81999,note_on,1,0,0,,6,,,66,127
82094,note_off,95,0,0,,6,,,66,127
82095,note_on,1,0,0,,10,,,69,127
82191,note_on,96,0,0,,4,,,64,127
82191,note_on,0,0,0,,1,,,61,127
82286,note_off,95,0,0,,10,,,69,127
82287,note_on,1,0,0,,10,,,57,127
82382,note_off,95,0,0,,10,,,57,127
82382,note_off,0,0,0,,1,,,61,127
82382,note_off,0,0,0,,4,,,64,127
82383,note_on,1,0,0,,1,,,61,127
82478,note_off,95,0,0,,1,,,61,127
82479,note_on,1,0,0,,4,,,64,127
82575,note_on,96,0,0,,6,,,54,127
82575,note_on,0,0,0,,10,,,57,127
82670,note_off,95,0,0,,4,,,64,127
82671,note_on,1,0,0,,2,,,50,127
82766,note_off,95,0,0,,2,,,50,127
82766,note_off,0,0,0,,10,,,57,127
82766,note_off,0,0,0,,6,,,54,127
82767,note_on,1,0,0,,6,,,54,127
82862,note_off,95,0,0,,6,,,54,127
82863,note_on,1,0,0,,10,,,57,127
82959,note_on,96,0,0,,10,,,45,127
83054,note_off,95,0,0,,10,,,57,127
83069,note_on,15,0,0,,10,,,57,127
83150,note_off,81,0,0,,10,,,45,127
83164,note_off,14,0,0,,10,,,57,127
83165,note_on,1,0,0,,12,,,59,127
83260,note_off,95,0,0,,12,,,59,127
83261,note_on,1,0,0,,1,,,61,127
83356,note_off,95,0,0,,1,,,61,127
83357,note_on,1,0,0,,2,,,62,127
83453,note_on,96,0,0,,12,,,59,127
83548,note_off,95,0,0,,12,,,59,127
83548,note_off,0,0,0,,2,,,62,127
83549,note_on,1,0,0,,2,,,62,127
83644,note_off,95,0,0,,2,,,62,127
83645,note_on,1,0,0,,4,,,64,127
83740,note_off,95,0,0,,4,,,64,127
83741,note_on,1,0,0,,4,,,64,127
83837,note_on,96,0,0,,1,,,61,127
83932,note_off,95,0,0,,1,,,61,127
83932,note_off,0,0,0,,4,,,64,127
83933,note_on,1,0,0,,4,,,64,127
84028,note_off,95,0,0,,4,,,64,127
84029,note_on,1,0,0,,10,,,69,127
84125,note_on,96,0,0,,6,,,66,127
84220,note_off,95,0,0,,10,,,69,127
84221,note_on,1,0,0,,2,,,62,127
84316,note_off,95,0,0,,2,,,62,127
84316,note_off,0,0,0,,6,,,66,127
84317,note_on,1,0,0,,6,,,66,127
84412,note_off,95,0,0,,6,,,66,127
84413,note_on,1,0,0,,10,,,69,127
84509,note_on,96,0,0,,7,,,67,127
84604,note_off,95,0,0,,10,,,69,127
84605,note_on,1,0,0,,4,,,64,127
84700,note_off,95,0,0,,4,,,64,127
84700,note_off,0,0,0,,7,,,67,127
84701,note_on,1,0,0,,7,,,67,127
84796,note_off,95,0,0,,7,,,67,127
84797,note_on,1,0,0,,10,,,69,127
84892,note_off,95,0,0,,10,,,69,127
84893,note_on,1,0,0,,10,,,69,127
84989,note_on,96,0,0,,6,,,66,127
85084,note_off,95,0,0,,6,,,66,127
85084,note_off,0,0,0,,10,,,69,127
85085,note_on,1,0,0,,10,,,69,127
85180,note_off,95,0,0,,10,,,69,127
85181,note_on,1,0,0,,2,,,74,127
85277,note_on,96,0,0,,12,,,71,127
85372,note_off,95,0,0,,2,,,74,127
85373,note_on,1,0,0,,7,,,67,127
85468,note_off,95,0,0,,7,,,67,127
85468,note_off,0,0,0,,12,,,71,127
85469,note_on,1,0,0,,12,,,71,127
85564,note_off,95,0,0,,12,,,71,127
85565,note_on,1,0,0,,2,,,74,127
85668,note_on,103,0,0,,1,,,73,127
85668,note_on,0,0,0,,4,,,76,127
85756,note_off,88,0,0,,2,,,74,127
85764,note_on,8,0,0,,10,,,69,127
85859,note_off,95,0,0,,10,,,69,127
85859,note_off,0,0,0,,4,,,76,127
85859,note_off,0,0,0,,1,,,73,127
85860,note_on,1,0,0,,1,,,73,127
85955,note_off,95,0,0,,1,,,73,127
85956,note_on,1,0,0,,4,,,76,127
86052,note_on,96,0,0,,10,,,81,127
86052,note_on,0,0,0,,6,,,78,127
86147,note_off,95,0,0,,4,,,76,127
86148,note_on,1,0,0,,2,,,74,127
86243,note_off,95,0,0,,2,,,74,127
86243,note_off,0,0,0,,6,,,78,127
86243,note_off,0,0,0,,10,,,81,127
86244,note_on,1,0,0,,6,,,78,127
86339,note_off,95,0,0,,6,,,78,127
86340,note_on,1,0,0,,10,,,81,127
86435,note_off,95,0,0,,10,,,81,127
86436,note_on,1,0,0,,4,,,64,127
86436,note_on,0,0,0,,1,,,61,127
86532,note_on,96,0,0,,10,,,57,127
86627,note_off,95,0,0,,10,,,57,127
86627,note_off,0,0,0,,1,,,61,127
86627,note_off,0,0,0,,4,,,64,127
86628,note_on,1,0,0,,1,,,61,127
86723,note_off,95,0,0,,1,,,61,127
86724,note_on,1,0,0,,4,,,64,127
86819,note_off,95,0,0,,4,,,64,127
86820,note_on,1,0,0,,6,,,66,127
86820,note_on,0,0,0,,10,,,69,127
86916,note_on,96,0,0,,2,,,62,127
87011,note_off,95,0,0,,2,,,62,127
87011,note_off,0,0,0,,10,,,69,127
87011,note_off,0,0,0,,6,,,66,127
87012,note_on,1,0,0,,6,,,66,127
87107,note_off,95,0,0,,6,,,66,127
87108,note_on,1,0,0,,10,,,69,127
87203,note_off,95,0,0,,10,,,69,127
87204,note_on,1,0,0,,12,,,47,127
87251,note_off,47,0,0,,12,,,47,127
87252,note_on,1,0,0,,10,,,45,127
87299,note_off,47,0,0,,10,,,45,127
87300,note_on,1,0,0,,12,,,47,127
87347,note_off,47,0,0,,12,,,47,127
87352,note_on,5,0,0,,10,,,45,127
88332,note_off,980,0,0,,10,,,45,127
88548,note_on,216,0,0,,10,,,69,127
88739,note_off,191,0,0,,10,,,69,127
88740,note_on,1,0,0,,5,,,77,127
88835,note_off,95,0,0,,5,,,77,127
88836,note_on,1,0,0,,4,,,76,127
88931,note_off,95,0,0,,4,,,76,127
88932,note_on,1,0,0,,5,,,65,127
88932,note_on,0,0,0,,2,,,62,127
88932,note_on,0,0,0,,2,,,74,127
89123,note_off,191,0,0,,2,,,62,127
89123,note_off,0,0,0,,5,,,65,127
89124,note_on,1,0,0,,5,,,65,127
89124,note_on,0,0,0,,2,,,62,127
89315,note_off,191,0,0,,2,,,62,127
89315,note_off,0,0,0,,5,,,65,127
89315,note_off,0,0,0,,2,,,74,127
89316,note_on,1,0,0,,2,,,62,127
89316,note_on,0,0,0,,5,,,65,127
89316,note_on,0,0,0,,0,,,72,127
89507,note_off,191,0,0,,0,,,72,127
89507,note_off,0,0,0,,5,,,65,127
89507,note_off,0,0,0,,2,,,62,127
89508,note_on,1,0,0,,7,,,55,127
89508,note_on,0,0,0,,2,,,62,127
89508,note_on,0,0,0,,0,,,72,127
89508,note_on,0,0,0,,2,,,74,127
89508,note_on,0,0,0,,7,,,67,127
89603,note_off,95,0,0,,2,,,74,127
89699,note_off,96,0,0,,0,,,72,127
89699,note_off,0,0,0,,2,,,62,127
89699,note_off,0,0,0,,7,,,55,127
89700,note_on,1,0,0,,2,,,62,127
89700,note_on,0,0,0,,7,,,55,127
89700,note_on,0,0,0,,11,,,70,127
89891,note_off,191,0,0,,7,,,55,127
89891,note_off,0,0,0,,2,,,62,127
89892,note_on,1,0,0,,7,,,55,127
89892,note_on,0,0,0,,2,,,62,127
90083,note_off,191,0,0,,2,,,62,127
90083,note_off,0,0,0,,7,,,55,127
90083,note_off,0,0,0,,11,,,70,127
90084,note_on,1,0,0,,7,,,55,127
90084,note_on,0,0,0,,2,,,62,127
90084,note_on,0,0,0,,2,,,74,127
90275,note_off,191,0,0,,2,,,74,127
90275,note_off,0,0,0,,2,,,62,127
90275,note_off,0,0,0,,7,,,55,127
90275,note_off,0,0,0,,7,,,67,127
90276,note_on,1,0,0,,2,,,62,127
90276,note_on,0,0,0,,7,,,55,127
90276,note_on,0,0,0,,4,,,64,127
90276,note_on,0,0,0,,7,,,79,127
90276,note_on,0,0,0,,11,,,70,127
90371,note_off,95,0,0,,7,,,79,127
90372,note_on,1,0,0,,5,,,77,127
90466,note_off,94,0,0,,7,,,55,127
90467,note_off,1,0,0,,5,,,77,127
90467,note_off,0,0,0,,4,,,64,127
90467,note_off,0,0,0,,2,,,62,127
90468,note_on,1,0,0,,7,,,55,127
90468,note_on,0,0,0,,4,,,64,127
90468,note_on,0,0,0,,2,,,62,127
90468,note_on,0,0,0,,4,,,76,127
90659,note_off,191,0,0,,2,,,62,127
90659,note_off,0,0,0,,4,,,64,127
90659,note_off,0,0,0,,7,,,55,127
90660,note_on,1,0,0,,2,,,62,127
90660,note_on,0,0,0,,7,,,55,127
90660,note_on,0,0,0,,4,,,64,127
90851,note_off,191,0,0,,4,,,64,127
90851,note_off,0,0,0,,7,,,55,127
90851,note_off,0,0,0,,2,,,62,127
90851,note_off,0,0,0,,4,,,76,127
90852,note_on,1,0,0,,7,,,55,127
90852,note_on,0,0,0,,4,,,64,127
90852,note_on,0,0,0,,2,,,62,127
90852,note_on,0,0,0,,2,,,74,127
91043,note_off,191,0,0,,2,,,74,127
91043,note_off,0,0,0,,2,,,62,127
91043,note_off,0,0,0,,4,,,64,127
91043,note_off,0,0,0,,7,,,55,127
91043,note_off,0,0,0,,11,,,70,127
91044,note_on,1,0,0,,10,,,57,127
91044,note_on,0,0,0,,4,,,64,127
91044,note_on,0,0,0,,2,,,62,127
91044,note_on,0,0,0,,2,,,74,127
91044,note_on,0,0,0,,4,,,76,127
91044,note_on,0,0,0,,10,,,69,127
91139,note_off,95,0,0,,4,,,76,127
91235,note_off,96,0,0,,2,,,74,127
91235,note_off,0,0,0,,2,,,62,127
91235,note_off,0,0,0,,4,,,64,127
91235,note_off,0,0,0,,10,,,57,127
91236,note_on,1,0,0,,10,,,57,127
91236,note_on,0,0,0,,4,,,64,127
91236,note_on,0,0,0,,2,,,62,127
91236,note_on,0,0,0,,1,,,73,127
91427,note_off,191,0,0,,2,,,62,127
91427,note_off,0,0,0,,4,,,64,127
91427,note_off,0,0,0,,10,,,57,127
91428,note_on,1,0,0,,10,,,57,127
91428,note_on,0,0,0,,4,,,64,127
91428,note_on,0,0,0,,2,,,62,127
91619,note_off,191,0,0,,2,,,62,127
91619,note_off,0,0,0,,4,,,64,127
91619,note_off,0,0,0,,10,,,57,127
91619,note_off,0,0,0,,1,,,73,127
91620,note_on,1,0,0,,10,,,57,127
91620,note_on,0,0,0,,4,,,64,127
91620,note_on,0,0,0,,2,,,62,127
91620,note_on,0,0,0,,4,,,76,127
91811,note_off,191,0,0,,4,,,76,127
91811,note_off,0,0,0,,2,,,62,127
91811,note_off,0,0,0,,4,,,64,127
91811,note_off,0,0,0,,10,,,57,127
91811,note_off,0,0,0,,10,,,69,127
91812,note_on,1,0,0,,10,,,57,127
91812,note_on,0,0,0,,2,,,62,127
91812,note_on,0,0,0,,5,,,65,127
91812,note_on,0,0,0,,10,,,81,127
91812,note_on,0,0,0,,10,,,69,127
91907,note_off,95,0,0,,10,,,81,127
91908,note_on,1,0,0,,7,,,79,127
92003,note_off,95,0,0,,7,,,79,127
92003,note_off,0,0,0,,5,,,65,127
92003,note_off,0,0,0,,2,,,62,127
92003,note_off,0,0,0,,10,,,57,127
92004,note_on,1,0,0,,2,,,62,127
92004,note_on,0,0,0,,10,,,57,127
92004,note_on,0,0,0,,5,,,65,127
92004,note_on,0,0,0,,5,,,77,127
92195,note_off,191,0,0,,5,,,65,127
92195,note_off,0,0,0,,10,,,57,127
92195,note_off,0,0,0,,2,,,62,127
92196,note_on,1,0,0,,2,,,62,127
92196,note_on,0,0,0,,10,,,57,127
92196,note_on,0,0,0,,5,,,65,127
92387,note_off,191,0,0,,5,,,65,127
92387,note_off,0,0,0,,10,,,57,127
92387,note_off,0,0,0,,2,,,62,127
92387,note_off,0,0,0,,5,,,77,127
92388,note_on,1,0,0,,5,,,65,127
92388,note_on,0,0,0,,2,,,62,127
92388,note_on,0,0,0,,10,,,57,127
92388,note_on,0,0,0,,4,,,76,127
92579,note_off,191,0,0,,4,,,76,127
92579,note_off,0,0,0,,10,,,57,127
92579,note_off,0,0,0,,2,,,62,127
92579,note_off,0,0,0,,5,,,65,127
92579,note_off,0,0,0,,10,,,69,127
92580,note_on,1,0,0,,7,,,67,127
92580,note_on,0,0,0,,2,,,62,127
92580,note_on,0,0,0,,11,,,58,127
92580,note_on,0,0,0,,2,,,74,127
92627,note_off,47,0,0,,2,,,74,127
92628,note_on,1,0,0,,1,,,73,127
92675,note_off,47,0,0,,1,,,73,127
92676,note_on,1,0,0,,2,,,74,127
92771,note_off,95,0,0,,11,,,58,127
92771,note_off,0,0,0,,2,,,62,127
92771,note_off,0,0,0,,7,,,67,127
92772,note_on,1,0,0,,11,,,58,127
92772,note_on,0,0,0,,7,,,67,127
92772,note_on,0,0,0,,2,,,62,127
92963,note_off,191,0,0,,2,,,62,127
92963,note_off,0,0,0,,7,,,67,127
92963,note_off,0,0,0,,11,,,58,127
92963,note_off,0,0,0,,2,,,74,127
92964,note_on,1,0,0,,6,,,54,127
92964,note_on,0,0,0,,2,,,62,127
92964,note_on,0,0,0,,0,,,60,127
92964,note_on,0,0,0,,0,,,72,127
92964,note_on,0,0,0,,10,,,81,127
93011,note_off,47,0,0,,0,,,72,127
93012,note_on,1,0,0,,12,,,71,127
93059,note_off,47,0,0,,12,,,71,127
93060,note_on,1,0,0,,0,,,72,127
93155,note_off,95,0,0,,0,,,60,127
93155,note_off,0,0,0,,2,,,62,127
93155,note_off,0,0,0,,6,,,54,127
93156,note_on,1,0,0,,6,,,54,127
93156,note_on,0,0,0,,2,,,62,127
93156,note_on,0,0,0,,0,,,60,127
93347,note_off,191,0,0,,0,,,60,127
93347,note_off,0,0,0,,2,,,62,127
93347,note_off,0,0,0,,6,,,54,127
93347,note_off,0,0,0,,0,,,72,127
93347,note_off,0,0,0,,10,,,81,127
93348,note_on,1,0,0,,2,,,62,127
93348,note_on,0,0,0,,7,,,55,127
93348,note_on,0,0,0,,11,,,70,127
93348,note_on,0,0,0,,7,,,79,127
93395,note_off,47,0,0,,11,,,70,127
93396,note_on,1,0,0,,10,,,69,127
93443,note_off,47,0,0,,10,,,69,127
93444,note_on,1,0,0,,11,,,70,127
93539,note_off,95,0,0,,7,,,55,127
93539,note_off,0,0,0,,2,,,62,127
93540,note_on,1,0,0,,7,,,55,127
93540,note_on,0,0,0,,2,,,62,127
93731,note_off,191,0,0,,2,,,62,127
93731,note_off,0,0,0,,7,,,55,127
93731,note_off,0,0,0,,11,,,70,127
93731,note_off,0,0,0,,7,,,79,127
93732,note_on,1,0,0,,2,,,50,127
93732,note_on,0,0,0,,10,,,57,127
93732,note_on,0,0,0,,2,,,62,127
93732,note_on,0,0,0,,10,,,69,127
93732,note_on,0,0,0,,5,,,77,127
93779,note_off,47,0,0,,10,,,69,127
93780,note_on,1,0,0,,7,,,67,127
93827,note_off,47,0,0,,7,,,67,127
93828,note_on,1,0,0,,10,,,69,127
93923,note_off,95,0,0,,2,,,62,127
93923,note_off,0,0,0,,10,,,57,127
93923,note_off,0,0,0,,2,,,50,127
93924,note_on,1,0,0,,2,,,50,127
93924,note_on,0,0,0,,2,,,62,127
93924,note_on,0,0,0,,10,,,57,127
94115,note_off,191,0,0,,10,,,57,127
94115,note_off,0,0,0,,2,,,62,127
94115,note_off,0,0,0,,2,,,50,127
94115,note_off,0,0,0,,10,,,69,127
94115,note_off,0,0,0,,5,,,77,127
94116,note_on,1,0,0,,7,,,55,127
94116,note_on,0,0,0,,1,,,49,127
94116,note_on,0,0,0,,10,,,57,127
94116,note_on,0,0,0,,7,,,67,127
94116,note_on,0,0,0,,4,,,76,127
94163,note_off,47,0,0,,7,,,67,127
94164,note_on,1,0,0,,5,,,65,127
94211,note_off,47,0,0,,5,,,65,127
94212,note_on,1,0,0,,7,,,67,127
94307,note_off,95,0,0,,10,,,57,127
94307,note_off,0,0,0,,1,,,49,127
94307,note_off,0,0,0,,7,,,55,127
94308,note_on,1,0,0,,1,,,49,127
94308,note_on,0,0,0,,7,,,55,127
94308,note_on,0,0,0,,10,,,57,127
94499,note_off,191,0,0,,10,,,57,127
94499,note_off,0,0,0,,7,,,55,127
94499,note_off,0,0,0,,1,,,49,127
94499,note_off,0,0,0,,7,,,67,127
94499,note_off,0,0,0,,4,,,76,127
94500,note_on,1,0,0,,10,,,57,127
94500,note_on,0,0,0,,2,,,50,127
94500,note_on,0,0,0,,5,,,65,127
94500,note_on,0,0,0,,2,,,74,127
94547,note_off,47,0,0,,5,,,65,127
94548,note_on,1,0,0,,4,,,64,127
94595,note_off,47,0,0,,4,,,64,127
94596,note_on,1,0,0,,5,,,65,127
94691,note_off,95,0,0,,2,,,50,127
94691,note_off,0,0,0,,10,,,57,127
94692,note_on,1,0,0,,10,,,57,127
94692,note_on,0,0,0,,2,,,50,127
94883,note_off,191,0,0,,2,,,50,127
94883,note_off,0,0,0,,10,,,57,127
94883,note_off,0,0,0,,5,,,65,127
94883,note_off,0,0,0,,2,,,74,127
94884,note_on,1,0,0,,10,,,57,127
94884,note_on,0,0,0,,10,,,45,127
94884,note_on,0,0,0,,4,,,64,127
94884,note_on,0,0,0,,2,,,74,127
95075,note_off,191,0,0,,2,,,74,127
95076,note_on,1,0,0,,1,,,73,127
95267,note_off,191,0,0,,1,,,73,127
95267,note_off,0,0,0,,4,,,64,127
95363,note_off,96,0,0,,10,,,45,127
95363,note_off,0,0,0,,10,,,57,127
95470,note_on,107,0,0,,5,,,53,127
95566,note_on,96,0,0,,10,,,57,127
95661,note_off,95,0,0,,5,,,53,127
95662,note_on,1,0,0,,7,,,55,127
95757,note_off,95,0,0,,10,,,57,127
95758,note_on,1,0,0,,11,,,58,127
95853,note_off,95,0,0,,7,,,55,127
95854,note_on,1,0,0,,5,,,53,127
95949,note_off,95,0,0,,11,,,58,127
95950,note_on,1,0,0,,12,,,59,127
96045,note_off,95,0,0,,5,,,53,127
96046,note_on,1,0,0,,4,,,52,127
96141,note_off,95,0,0,,12,,,59,127
96142,note_on,1,0,0,,0,,,60,127
96237,note_off,95,0,0,,4,,,52,127
96238,note_on,1,0,0,,7,,,55,127
96333,note_off,95,0,0,,0,,,60,127
96334,note_on,1,0,0,,1,,,61,127
96429,note_off,95,0,0,,7,,,55,127
96430,note_on,1,0,0,,5,,,53,127
96525,note_off,95,0,0,,1,,,61,127
96526,note_on,1,0,0,,2,,,62,127
96621,note_off,95,0,0,,5,,,53,127
96622,note_on,1,0,0,,4,,,52,127
96717,note_off,95,0,0,,2,,,62,127
96718,note_on,1,0,0,,4,,,64,127
96813,note_off,95,0,0,,4,,,52,127
96814,note_on,1,0,0,,2,,,50,127
96909,note_off,95,0,0,,4,,,64,127
96910,note_on,1,0,0,,5,,,65,127
97005,note_off,95,0,0,,2,,,50,127
97006,note_on,1,0,0,,0,,,60,127
97101,note_off,95,0,0,,5,,,65,127
97102,note_on,1,0,0,,6,,,66,127
97197,note_off,95,0,0,,0,,,60,127
97198,note_on,1,0,0,,12,,,59,127
97293,note_off,95,0,0,,6,,,66,127
97294,note_on,1,0,0,,7,,,67,127
97389,note_off,95,0,0,,12,,,59,127
97390,note_on,1,0,0,,2,,,62,127
97485,note_off,95,0,0,,7,,,67,127
97486,note_on,1,0,0,,8,,,68,127
97581,note_off,95,0,0,,2,,,62,127
97582,note_on,1,0,0,,1,,,61,127
97677,note_off,95,0,0,,8,,,68,127
97678,note_on,1,0,0,,10,,,69,127
97773,note_off,95,0,0,,1,,,61,127
97774,note_on,1,0,0,,10,,,57,127
97869,note_off,95,0,0,,10,,,69,127
97870,note_on,1,0,0,,7,,,67,127
97965,note_off,95,0,0,,7,,,67,127
97965,note_off,0,0,0,,10,,,57,127
97966,note_on,1,0,0,,2,,,38,127
97966,note_on,0,0,0,,7,,,67,127
98061,note_off,95,0,0,,7,,,67,127
98062,note_on,1,0,0,,6,,,66,127
98157,note_off,95,0,0,,6,,,66,127
98158,note_on,1,0,0,,4,,,64,127
98253,note_off,95,0,0,,4,,,64,127
98254,note_on,1,0,0,,6,,,66,127
98349,note_off,95,0,0,,6,,,66,127
98349,note_off,0,0,0,,2,,,38,127
98350,note_on,1,0,0,,2,,,62,127
98541,note_off,191,0,0,,2,,,62,127
98548,note_on,7,0,0,,6,,,66,127
98644,note_on,96,0,0,,10,,,69,127
98707,note_off,63,0,0,,6,,,66,127
98740,note_on,33,0,0,,7,,,67,127
98803,note_off,63,0,0,,10,,,69,127
98836,note_on,33,0,0,,11,,,70,127
98899,note_off,63,0,0,,7,,,67,127
98932,note_on,33,0,0,,5,,,65,127
98995,note_off,63,0,0,,11,,,70,127
99028,note_on,33,0,0,,12,,,71,127
99091,note_off,63,0,0,,5,,,65,127
99124,note_on,33,0,0,,4,,,64,127
99187,note_off,63,0,0,,12,,,71,127
99220,note_on,33,0,0,,0,,,72,127
99283,note_off,63,0,0,,4,,,64,127
99316,note_on,33,0,0,,7,,,67,127
99379,note_off,63,0,0,,0,,,72,127
99412,note_on,33,0,0,,1,,,73,127
99475,note_off,63,0,0,,7,,,67,127
99508,note_on,33,0,0,,5,,,65,127
99571,note_off,63,0,0,,1,,,73,127
99604,note_on,33,0,0,,2,,,74,127
99667,note_off,63,0,0,,5,,,65,127
99700,note_on,33,0,0,,4,,,64,127
99763,note_off,63,0,0,,2,,,74,127
99796,note_on,33,0,0,,4,,,76,127
99859,note_off,63,0,0,,4,,,64,127
99892,note_on,33,0,0,,2,,,62,127
99955,note_off,63,0,0,,4,,,76,127
99988,note_on,33,0,0,,5,,,77,127
100051,note_off,63,0,0,,2,,,62,127
100084,note_on,33,0,0,,0,,,72,127
100147,note_off,63,0,0,,5,,,77,127
100180,note_on,33,0,0,,6,,,78,127
100243,note_off,63,0,0,,0,,,72,127
100276,note_on,33,0,0,,12,,,71,127
100339,note_off,63,0,0,,6,,,78,127
100372,note_on,33,0,0,,7,,,79,127
100435,note_off,63,0,0,,12,,,71,127
100468,note_on,33,0,0,,2,,,74,127
100531,note_off,63,0,0,,7,,,79,127
100564,note_on,33,0,0,,8,,,80,127
100627,note_off,63,0,0,,2,,,74,127
100660,note_on,33,0,0,,1,,,73,127
100723,note_off,63,0,0,,8,,,80,127
100756,note_on,33,0,0,,10,,,81,127
100819,note_off,63,0,0,,1,,,73,127
100852,note_on,33,0,0,,10,,,69,127
100915,note_off,63,0,0,,10,,,81,127
100948,note_on,33,0,0,,7,,,79,127
101011,note_off,63,0,0,,10,,,69,127
101042,note_off,31,0,0,,7,,,79,127
101044,note_on,2,0,0,,6,,,78,127
101044,note_on,0,0,0,,2,,,74,127
101139,note_off,95,0,0,,6,,,78,127
101148,note_on,9,0,0,,4,,,76,127
101235,note_off,87,0,0,,2,,,74,127
101243,note_off,8,0,0,,4,,,76,127
101244,note_on,1,0,0,,2,,,74,127
101340,note_on,96,0,0,,1,,,73,127
101435,note_off,95,0,0,,1,,,73,127
101435,note_off,0,0,0,,2,,,74,127
101436,note_on,1,0,0,,2,,,62,127
101436,note_on,0,0,0,,2,,,74,127
101531,note_off,95,0,0,,2,,,74,127
101532,note_on,1,0,0,,1,,,73,127
101627,note_off,95,0,0,,1,,,73,127
101628,note_on,1,0,0,,12,,,71,127
101723,note_off,95,0,0,,12,,,71,127
101724,note_on,1,0,0,,10,,,69,127
101819,note_off,95,0,0,,10,,,69,127
101819,note_off,0,0,0,,2,,,62,127
101820,note_on,1,0,0,,4,,,64,127
101820,note_on,0,0,0,,7,,,67,127
101915,note_off,95,0,0,,7,,,67,127
101915,note_off,0,0,0,,4,,,64,127
101916,note_on,1,0,0,,4,,,64,127
102012,note_on,96,0,0,,7,,,67,127
102107,note_off,95,0,0,,7,,,67,127
102108,note_on,1,0,0,,1,,,73,127
102203,note_off,95,0,0,,1,,,73,127
102203,note_off,0,0,0,,4,,,64,127
102204,note_on,1,0,0,,10,,,57,127
102204,note_on,0,0,0,,4,,,76,127
102299,note_off,95,0,0,,4,,,76,127
102300,note_on,1,0,0,,7,,,67,127
102395,note_off,95,0,0,,7,,,67,127
102396,note_on,1,0,0,,6,,,66,127
102491,note_off,95,0,0,,6,,,66,127
102492,note_on,1,0,0,,4,,,64,127
102587,note_off,95,0,0,,4,,,64,127
102587,note_off,0,0,0,,10,,,57,127
102588,note_on,1,0,0,,2,,,62,127
102588,note_on,0,0,0,,6,,,66,127
102683,note_off,95,0,0,,6,,,66,127
102683,note_off,0,0,0,,2,,,62,127
102684,note_on,1,0,0,,2,,,62,127
102780,note_on,96,0,0,,6,,,66,127
102875,note_off,95,0,0,,6,,,66,127
102876,note_on,1,0,0,,10,,,69,127
102971,note_off,95,0,0,,10,,,69,127
102971,note_off,0,0,0,,2,,,62,127
102972,note_on,1,0,0,,6,,,66,127
102972,note_on,0,0,0,,2,,,74,127
103067,note_off,95,0,0,,2,,,74,127
103068,note_on,1,0,0,,1,,,73,127
103163,note_off,95,0,0,,1,,,73,127
103164,note_on,1,0,0,,12,,,71,127
103259,note_off,95,0,0,,12,,,71,127
103260,note_on,1,0,0,,10,,,69,127
103355,note_off,95,0,0,,10,,,69,127
103355,note_off,0,0,0,,6,,,66,127
103356,note_on,1,0,0,,4,,,64,127
103356,note_on,0,0,0,,7,,,67,127
103451,note_off,95,0,0,,7,,,67,127
103451,note_off,0,0,0,,4,,,64,127
103452,note_on,1,0,0,,4,,,64,127
103548,note_on,96,0,0,,7,,,67,127
103643,note_off,95,0,0,,7,,,67,127
103644,note_on,1,0,0,,1,,,73,127
103739,note_off,95,0,0,,1,,,73,127
103739,note_off,0,0,0,,4,,,64,127
103740,note_on,1,0,0,,10,,,57,127
103740,note_on,0,0,0,,4,,,76,127
103835,note_off,95,0,0,,4,,,76,127
103836,note_on,1,0,0,,7,,,67,127
103931,note_off,95,0,0,,7,,,67,127
103932,note_on,1,0,0,,6,,,66,127
104027,note_off,95,0,0,,6,,,66,127
104028,note_on,1,0,0,,4,,,64,127
104123,note_off,95,0,0,,4,,,64,127
104123,note_off,0,0,0,,10,,,57,127
104124,note_on,1,0,0,,2,,,62,127
104124,note_on,0,0,0,,6,,,66,127
104219,note_off,95,0,0,,6,,,66,127
104225,note_on,6,0,0,,4,,,64,127
104315,note_off,90,0,0,,2,,,62,127
104320,note_off,5,0,0,,4,,,64,127
104321,note_on,1,0,0,,2,,,62,127
104417,note_on,96,0,0,,1,,,61,127
104512,note_off,95,0,0,,1,,,61,127
104512,note_off,0,0,0,,2,,,62,127
104513,note_on,1,0,0,,12,,,59,127
104513,note_on,0,0,0,,2,,,50,127
104608,note_off,95,0,0,,12,,,59,127
104609,note_on,1,0,0,,10,,,57,127
104704,note_off,95,0,0,,10,,,57,127
104705,note_on,1,0,0,,7,,,55,127
104800,note_off,95,0,0,,7,,,55,127
104801,note_on,1,0,0,,6,,,54,127
104896,note_off,95,0,0,,6,,,54,127
104896,note_off,0,0,0,,2,,,50,127
104897,note_on,1,0,0,,7,,,55,127
104897,note_on,0,0,0,,4,,,52,127
104992,note_off,95,0,0,,4,,,52,127
104992,note_off,0,0,0,,7,,,55,127
104993,note_on,1,0,0,,4,,,52,127
105089,note_on,96,0,0,,7,,,55,127
105184,note_off,95,0,0,,7,,,55,127
105185,note_on,1,0,0,,1,,,61,127
105280,note_off,95,0,0,,1,,,61,127
105280,note_off,0,0,0,,4,,,52,127
105281,note_on,1,0,0,,4,,,64,127
105281,note_on,0,0,0,,10,,,45,127
105376,note_off,95,0,0,,4,,,64,127
105377,note_on,1,0,0,,7,,,55,127
105472,note_off,95,0,0,,7,,,55,127
105473,note_on,1,0,0,,6,,,54,127
105568,note_off,95,0,0,,6,,,54,127
105569,note_on,1,0,0,,4,,,52,127
105664,note_off,95,0,0,,4,,,52,127
105664,note_off,0,0,0,,10,,,45,127
105665,note_on,1,0,0,,6,,,54,127
105665,note_on,0,0,0,,2,,,50,127
105760,note_off,95,0,0,,2,,,50,127
105760,note_off,0,0,0,,6,,,54,127
105761,note_on,1,0,0,,2,,,50,127
105857,note_on,96,0,0,,6,,,54,127
105952,note_off,95,0,0,,6,,,54,127
105953,note_on,1,0,0,,10,,,57,127
106048,note_off,95,0,0,,10,,,57,127
106048,note_off,0,0,0,,2,,,50,127
106049,note_on,1,0,0,,2,,,62,127
106049,note_on,0,0,0,,6,,,54,127
106144,note_off,95,0,0,,2,,,62,127
106145,note_on,1,0,0,,10,,,57,127
106240,note_off,95,0,0,,10,,,57,127
106241,note_on,1,0,0,,7,,,55,127
106336,note_off,95,0,0,,7,,,55,127
106336,note_off,0,0,0,,6,,,54,127
106337,note_on,1,0,0,,6,,,54,127
106432,note_off,95,0,0,,6,,,54,127
106433,note_on,1,0,0,,7,,,55,127
106433,note_on,0,0,0,,4,,,52,127
106528,note_off,95,0,0,,4,,,52,127
106528,note_off,0,0,0,,7,,,55,127
106529,note_on,1,0,0,,4,,,52,127
106625,note_on,96,0,0,,7,,,55,127
106720,note_off,95,0,0,,7,,,55,127
106721,note_on,1,0,0,,1,,,61,127
106816,note_off,95,0,0,,1,,,61,127
106816,note_off,0,0,0,,4,,,52,127
106817,note_on,1,0,0,,4,,,64,127
106817,note_on,0,0,0,,10,,,45,127
106912,note_off,95,0,0,,4,,,64,127
106913,note_on,1,0,0,,7,,,55,127
107008,note_off,95,0,0,,7,,,55,127
107009,note_on,1,0,0,,6,,,54,127
107104,note_off,95,0,0,,6,,,54,127
107105,note_on,1,0,0,,4,,,52,127
107200,note_off,95,0,0,,4,,,52,127
107200,note_off,0,0,0,,10,,,45,127
107201,note_on,1,0,0,,6,,,54,127
107201,note_on,0,0,0,,2,,,38,127
107392,note_off,191,0,0,,6,,,54,127
107417,note_on,25,0,0,,2,,,50,127
107584,note_off,167,0,0,,2,,,38,127
107798,note_on,214,0,0,,2,,,74,127
107800,note_off,2,0,0,,2,,,50,127
107989,note_off,189,0,0,,2,,,74,127
107990,note_on,1,0,0,,10,,,69,127
107990,note_on,0,0,0,,2,,,62,127
107990,note_on,0,0,0,,6,,,66,127
108085,note_off,95,0,0,,10,,,69,127
108086,note_on,1,0,0,,11,,,70,127
108181,note_off,95,0,0,,11,,,70,127
108181,note_off,0,0,0,,6,,,66,127
108181,note_off,0,0,0,,2,,,62,127
108182,note_on,1,0,0,,0,,,72,127
108182,note_on,0,0,0,,7,,,67,127
108182,note_on,0,0,0,,2,,,62,127
108373,note_off,191,0,0,,2,,,62,127
108373,note_off,0,0,0,,7,,,67,127
108374,note_on,1,0,0,,10,,,69,127
108374,note_on,0,0,0,,2,,,62,127
108565,note_off,191,0,0,,2,,,62,127
108565,note_off,0,0,0,,10,,,69,127
108565,note_off,0,0,0,,0,,,72,127
108566,note_on,1,0,0,,11,,,70,127
108566,note_on,0,0,0,,2,,,62,127
108566,note_on,0,0,0,,7,,,67,127
108757,note_off,191,0,0,,7,,,67,127
108757,note_off,0,0,0,,2,,,62,127
108757,note_off,0,0,0,,11,,,70,127
108758,note_on,1,0,0,,11,,,70,127
108758,note_on,0,0,0,,7,,,67,127
108758,note_on,0,0,0,,0,,,60,127
108949,note_off,191,0,0,,0,,,60,127
108949,note_off,0,0,0,,7,,,67,127
108949,note_off,0,0,0,,11,,,70,127
108950,note_on,1,0,0,,10,,,69,127
108950,note_on,0,0,0,,0,,,60,127
108950,note_on,0,0,0,,7,,,67,127
109141,note_off,191,0,0,,7,,,67,127
109141,note_off,0,0,0,,0,,,60,127
109142,note_on,1,0,0,,0,,,60,127
109142,note_on,0,0,0,,6,,,66,127
109333,note_off,191,0,0,,6,,,66,127
109333,note_off,0,0,0,,0,,,60,127
109333,note_off,0,0,0,,10,,,69,127
109334,note_on,1,0,0,,10,,,69,127
109334,note_on,0,0,0,,6,,,66,127
109334,note_on,0,0,0,,0,,,60,127
109525,note_off,191,0,0,,0,,,60,127
109525,note_off,0,0,0,,6,,,66,127
109525,note_off,0,0,0,,10,,,69,127
109526,note_on,1,0,0,,0,,,72,127
109526,note_on,0,0,0,,0,,,60,127
109526,note_on,0,0,0,,2,,,62,127
109526,note_on,0,0,0,,6,,,66,127
109621,note_off,95,0,0,,0,,,72,127
109622,note_on,1,0,0,,2,,,74,127
109717,note_off,95,0,0,,2,,,74,127
109717,note_off,0,0,0,,6,,,66,127
109717,note_off,0,0,0,,2,,,62,127
109717,note_off,0,0,0,,0,,,60,127
109718,note_on,1,0,0,,3,,,75,127
109718,note_on,0,0,0,,6,,,66,127
109718,note_on,0,0,0,,0,,,60,127
109718,note_on,0,0,0,,2,,,62,127
109909,note_off,191,0,0,,2,,,62,127
109909,note_off,0,0,0,,0,,,60,127
109909,note_off,0,0,0,,6,,,66,127
109909,note_off,0,0,0,,3,,,75,127
109910,note_on,1,0,0,,2,,,74,127
109910,note_on,0,0,0,,2,,,62,127
109910,note_on,0,0,0,,6,,,66,127
109910,note_on,0,0,0,,0,,,60,127
110101,note_off,191,0,0,,0,,,60,127
110101,note_off,0,0,0,,6,,,66,127
110101,note_off,0,0,0,,2,,,62,127
110101,note_off,0,0,0,,2,,,74,127
110102,note_on,1,0,0,,1,,,73,127
110102,note_on,0,0,0,,2,,,62,127
110102,note_on,0,0,0,,6,,,66,127
110102,note_on,0,0,0,,0,,,60,127
110293,note_off,191,0,0,,0,,,60,127
110293,note_off,0,0,0,,6,,,66,127
110293,note_off,0,0,0,,2,,,62,127
110293,note_off,0,0,0,,1,,,73,127
110294,note_on,1,0,0,,1,,,73,127
110294,note_on,0,0,0,,11,,,58,127
110294,note_on,0,0,0,,2,,,62,127
110294,note_on,0,0,0,,7,,,67,127
110485,note_off,191,0,0,,7,,,67,127
110485,note_off,0,0,0,,2,,,62,127
110485,note_off,0,0,0,,11,,,58,127
110485,note_off,0,0,0,,1,,,73,127
110486,note_on,1,0,0,,2,,,74,127
110486,note_on,0,0,0,,2,,,62,127
110486,note_on,0,0,0,,7,,,67,127
110486,note_on,0,0,0,,11,,,58,127
110677,note_off,191,0,0,,11,,,58,127
110677,note_off,0,0,0,,7,,,67,127
110677,note_off,0,0,0,,2,,,62,127
110678,note_on,1,0,0,,2,,,62,127
110678,note_on,0,0,0,,11,,,58,127
110678,note_on,0,0,0,,7,,,67,127
110869,note_off,191,0,0,,7,,,67,127
110869,note_off,0,0,0,,11,,,58,127
110869,note_off,0,0,0,,2,,,62,127
110869,note_off,0,0,0,,2,,,74,127
110870,note_on,1,0,0,,2,,,74,127
110870,note_on,0,0,0,,7,,,67,127
110870,note_on,0,0,0,,11,,,58,127
110870,note_on,0,0,0,,2,,,62,127
111061,note_off,191,0,0,,2,,,62,127
111061,note_off,0,0,0,,11,,,58,127
111061,note_off,0,0,0,,7,,,67,127
111061,note_off,0,0,0,,2,,,74,127
111067,note_on,6,0,0,,2,,,62,127
111067,note_on,0,0,0,,11,,,58,127
111067,note_on,0,0,0,,7,,,67,127
111067,note_on,0,0,0,,7,,,79,127
111162,note_off,95,0,0,,7,,,79,127
111163,note_on,1,0,0,,10,,,81,127
111258,note_off,95,0,0,,10,,,81,127
111258,note_off,0,0,0,,7,,,67,127
111258,note_off,0,0,0,,11,,,58,127
111258,note_off,0,0,0,,2,,,62,127
111259,note_on,1,0,0,,11,,,58,127
111259,note_on,0,0,0,,7,,,67,127
111259,note_on,0,0,0,,2,,,62,127
111259,note_on,0,0,0,,11,,,82,127
111450,note_off,191,0,0,,2,,,62,127
111450,note_off,0,0,0,,7,,,67,127
111450,note_off,0,0,0,,11,,,58,127
111451,note_on,1,0,0,,7,,,67,127
111451,note_on,0,0,0,,11,,,58,127
111451,note_on,0,0,0,,2,,,62,127
111642,note_off,191,0,0,,2,,,62,127
111642,note_off,0,0,0,,11,,,58,127
111642,note_off,0,0,0,,7,,,67,127
111642,note_off,0,0,0,,11,,,82,127
111643,note_on,1,0,0,,11,,,58,127
111643,note_on,0,0,0,,7,,,67,127
111643,note_on,0,0,0,,2,,,62,127
111643,note_on,0,0,0,,10,,,81,127
111834,note_off,191,0,0,,10,,,81,127
111834,note_off,0,0,0,,2,,,62,127
111834,note_off,0,0,0,,7,,,67,127
111834,note_off,0,0,0,,11,,,58,127
111835,note_on,1,0,0,,2,,,62,127
111835,note_on,0,0,0,,12,,,59,127
111835,note_on,0,0,0,,8,,,68,127
111835,note_on,0,0,0,,4,,,64,127
111835,note_on,0,0,0,,10,,,81,127
112026,note_off,191,0,0,,10,,,81,127
112026,note_off,0,0,0,,4,,,64,127
112026,note_off,0,0,0,,8,,,68,127
112026,note_off,0,0,0,,12,,,59,127
112026,note_off,0,0,0,,2,,,62,127
112027,note_on,1,0,0,,4,,,64,127
112027,note_on,0,0,0,,2,,,62,127
112027,note_on,0,0,0,,12,,,59,127
112027,note_on,0,0,0,,8,,,68,127
112027,note_on,0,0,0,,8,,,80,127
112218,note_off,191,0,0,,8,,,68,127
112218,note_off,0,0,0,,12,,,59,127
112218,note_off,0,0,0,,2,,,62,127
112218,note_off,0,0,0,,4,,,64,127
112219,note_on,1,0,0,,2,,,62,127
112219,note_on,0,0,0,,12,,,59,127
112219,note_on,0,0,0,,8,,,68,127
112219,note_on,0,0,0,,4,,,64,127
112410,note_off,191,0,0,,4,,,64,127
112410,note_off,0,0,0,,8,,,68,127
112410,note_off,0,0,0,,12,,,59,127
112410,note_off,0,0,0,,2,,,62,127
112410,note_off,0,0,0,,8,,,80,127
112411,note_on,1,0,0,,8,,,68,127
112411,note_on,0,0,0,,12,,,59,127
112411,note_on,0,0,0,,4,,,64,127
112411,note_on,0,0,0,,2,,,62,127
112411,note_on,0,0,0,,8,,,80,127
112602,note_off,191,0,0,,8,,,80,127
112602,note_off,0,0,0,,2,,,62,127
112602,note_off,0,0,0,,4,,,64,127
112602,note_off,0,0,0,,12,,,59,127
112602,note_off,0,0,0,,8,,,68,127
112603,note_on,1,0,0,,2,,,74,127
112603,note_on,0,0,0,,2,,,62,127
112603,note_on,0,0,0,,4,,,64,127
112603,note_on,0,0,0,,8,,,68,127
112603,note_on,0,0,0,,12,,,59,127
112698,note_off,95,0,0,,2,,,74,127
112699,note_on,1,0,0,,4,,,76,127
112794,note_off,95,0,0,,4,,,76,127
112794,note_off,0,0,0,,12,,,59,127
112794,note_off,0,0,0,,8,,,68,127
112794,note_off,0,0,0,,4,,,64,127
112794,note_off,0,0,0,,2,,,62,127
112795,note_on,1,0,0,,5,,,77,127
112795,note_on,0,0,0,,2,,,62,127
112795,note_on,0,0,0,,4,,,64,127
112795,note_on,0,0,0,,8,,,68,127
112795,note_on,0,0,0,,12,,,59,127
112986,note_off,191,0,0,,12,,,59,127
112986,note_off,0,0,0,,8,,,68,127
112986,note_off,0,0,0,,4,,,64,127
112986,note_off,0,0,0,,2,,,62,127
112986,note_off,0,0,0,,5,,,77,127
112987,note_on,1,0,0,,4,,,76,127
112987,note_on,0,0,0,,2,,,62,127
112987,note_on,0,0,0,,4,,,64,127
112987,note_on,0,0,0,,8,,,68,127
112987,note_on,0,0,0,,12,,,59,127
113178,note_off,191,0,0,,12,,,59,127
113178,note_off,0,0,0,,8,,,68,127
113178,note_off,0,0,0,,4,,,64,127
113178,note_off,0,0,0,,2,,,62,127
113178,note_off,0,0,0,,4,,,76,127
113179,note_on,1,0,0,,2,,,74,127
113179,note_on,0,0,0,,2,,,62,127
113179,note_on,0,0,0,,4,,,64,127
113179,note_on,0,0,0,,8,,,68,127
113179,note_on,0,0,0,,12,,,59,127
113370,note_off,191,0,0,,12,,,59,127
113370,note_off,0,0,0,,8,,,68,127
113370,note_off,0,0,0,,4,,,64,127
113370,note_off,0,0,0,,2,,,62,127
113370,note_off,0,0,0,,2,,,74,127
113371,note_on,1,0,0,,10,,,57,127
113371,note_on,0,0,0,,10,,,45,127
113371,note_on,0,0,0,,4,,,52,127
113371,note_on,0,0,0,,1,,,73,127
113562,note_off,191,0,0,,1,,,73,127
113563,note_on,1,0,0,,11,,,70,127
113754,note_off,191,0,0,,11,,,70,127
113755,note_on,1,0,0,,10,,,69,127
113946,note_off,191,0,0,,10,,,69,127
113947,note_on,1,0,0,,7,,,67,127
113947,note_on,0,0,0,,1,,,73,127
114138,note_off,191,0,0,,1,,,73,127
114138,note_off,0,0,0,,4,,,52,127
114138,note_off,0,0,0,,10,,,45,127
114138,note_off,0,0,0,,10,,,57,127
114139,note_on,1,0,0,,2,,,50,127
114139,note_on,0,0,0,,10,,,45,127
114139,note_on,0,0,0,,10,,,57,127
114139,note_on,0,0,0,,2,,,74,127
114330,note_off,191,0,0,,2,,,74,127
114330,note_off,0,0,0,,7,,,67,127
114331,note_on,1,0,0,,5,,,65,127
114331,note_on,0,0,0,,10,,,69,127
114522,note_off,191,0,0,,10,,,69,127
114522,note_off,0,0,0,,5,,,65,127
114523,note_on,1,0,0,,4,,,64,127
114523,note_on,0,0,0,,7,,,67,127
114714,note_off,191,0,0,,7,,,67,127
114714,note_off,0,0,0,,4,,,64,127
114715,note_on,1,0,0,,2,,,62,127
114715,note_on,0,0,0,,5,,,65,127
114906,note_off,191,0,0,,5,,,65,127
114906,note_off,0,0,0,,2,,,62,127
114906,note_off,0,0,0,,10,,,57,127
114906,note_off,0,0,0,,10,,,45,127
114906,note_off,0,0,0,,2,,,50,127
114907,note_on,1,0,0,,4,,,52,127
114907,note_on,0,0,0,,10,,,45,127
114907,note_on,0,0,0,,10,,,57,127
114907,note_on,0,0,0,,1,,,61,127
114907,note_on,0,0,0,,4,,,64,127
115002,note_off,95,0,0,,1,,,61,127
115098,note_off,96,0,0,,10,,,57,127
115099,note_on,1,0,0,,11,,,58,127
115194,note_off,95,0,0,,4,,,64,127
115290,note_off,96,0,0,,11,,,58,127
115291,note_on,1,0,0,,10,,,57,127
115482,note_off,191,0,0,,10,,,57,127
115483,note_on,1,0,0,,7,,,55,127
115483,note_on,0,0,0,,1,,,61,127
115674,note_off,191,0,0,,1,,,61,127
115674,note_off,0,0,0,,10,,,45,127
115674,note_off,0,0,0,,4,,,52,127
115675,note_on,1,0,0,,10,,,45,127
115675,note_on,0,0,0,,2,,,62,127
115866,note_off,191,0,0,,2,,,62,127
115866,note_off,0,0,0,,7,,,55,127
115867,note_on,1,0,0,,10,,,57,127
115867,note_on,0,0,0,,5,,,53,127
116058,note_off,191,0,0,,5,,,53,127
116058,note_off,0,0,0,,10,,,57,127
116058,note_off,0,0,0,,10,,,45,127
116059,note_on,1,0,0,,10,,,45,127
116059,note_on,0,0,0,,7,,,55,127
116059,note_on,0,0,0,,4,,,52,127
116250,note_off,191,0,0,,4,,,52,127
116250,note_off,0,0,0,,7,,,55,127
116251,note_on,1,0,0,,5,,,53,127
116251,note_on,0,0,0,,2,,,50,127
116442,note_off,191,0,0,,2,,,50,127
116442,note_off,0,0,0,,5,,,53,127
116442,note_off,0,0,0,,10,,,45,127
116443,note_on,1,0,0,,4,,,52,127
116443,note_on,0,0,0,,1,,,49,127
116549,note_on,106,0,0,,10,,,45,127
116634,note_off,85,0,0,,1,,,49,127
116634,note_off,0,0,0,,4,,,52,127
116644,note_off,10,0,0,,10,,,45,127
116645,note_on,1,0,0,,1,,,49,127
116740,note_off,95,0,0,,1,,,49,127
116741,note_on,1,0,0,,4,,,52,127
116837,note_on,96,0,0,,10,,,57,127
116837,note_on,0,0,0,,6,,,54,127
116932,note_off,95,0,0,,4,,,52,127
116933,note_on,1,0,0,,2,,,50,127
117028,note_off,95,0,0,,2,,,50,127
117028,note_off,0,0,0,,6,,,54,127
117028,note_off,0,0,0,,10,,,57,127
117029,note_on,1,0,0,,6,,,54,127
117124,note_off,95,0,0,,6,,,54,127
117125,note_on,1,0,0,,10,,,57,127
117221,note_on,96,0,0,,1,,,61,127
117221,note_on,0,0,0,,4,,,64,127
117316,note_off,95,0,0,,10,,,57,127
117317,note_on,1,0,0,,10,,,57,127
117412,note_off,95,0,0,,10,,,57,127
117412,note_off,0,0,0,,4,,,64,127
117412,note_off,0,0,0,,1,,,61,127
117413,note_on,1,0,0,,1,,,61,127
117508,note_off,95,0,0,,1,,,61,127
117509,note_on,1,0,0,,4,,,64,127
117605,note_on,96,0,0,,6,,,66,127
117605,note_on,0,0,0,,10,,,69,127
117700,note_off,95,0,0,,4,,,64,127
117701,note_on,1,0,0,,2,,,62,127
117796,note_off,95,0,0,,2,,,62,127
117796,note_off,0,0,0,,10,,,69,127
117796,note_off,0,0,0,,6,,,66,127
117797,note_on,1,0,0,,6,,,66,127
117892,note_off,95,0,0,,6,,,66,127
117893,note_on,1,0,0,,10,,,69,127
117989,note_on,96,0,0,,1,,,73,127
117989,note_on,0,0,0,,4,,,76,127
118084,note_off,95,0,0,,10,,,69,127
118085,note_on,1,0,0,,10,,,69,127
118180,note_off,95,0,0,,10,,,69,127
118180,note_off,0,0,0,,4,,,76,127
118180,note_off,0,0,0,,1,,,73,127
118181,note_on,1,0,0,,1,,,73,127
118276,note_off,95,0,0,,1,,,73,127
118277,note_on,1,0,0,,4,,,76,127
118373,note_on,96,0,0,,6,,,78,127
118373,note_on,0,0,0,,10,,,81,127
118468,note_off,95,0,0,,4,,,76,127
118469,note_on,1,0,0,,2,,,74,127
118564,note_off,95,0,0,,2,,,74,127
118564,note_off,0,0,0,,10,,,81,127
118564,note_off,0,0,0,,6,,,78,127
118565,note_on,1,0,0,,6,,,78,127
118660,note_off,95,0,0,,6,,,78,127
118661,note_on,1,0,0,,10,,,81,127
118756,note_off,95,0,0,,10,,,81,127
118765,note_on,9,0,0,,6,,,54,127
118765,note_on,0,0,0,,10,,,57,127
118861,note_on,96,0,0,,2,,,50,127
118956,note_off,95,0,0,,2,,,50,127
118956,note_off,0,0,0,,10,,,57,127
118956,note_off,0,0,0,,6,,,54,127
118957,note_on,1,0,0,,6,,,54,127
119052,note_off,95,0,0,,6,,,54,127
119053,note_on,1,0,0,,10,,,57,127
119149,note_on,96,0,0,,2,,,62,127
119149,note_on,0,0,0,,12,,,59,127
119244,note_off,95,0,0,,10,,,57,127
119245,note_on,1,0,0,,7,,,55,127
119340,note_off,95,0,0,,7,,,55,127
119340,note_off,0,0,0,,12,,,59,127
119340,note_off,0,0,0,,2,,,62,127
119341,note_on,1,0,0,,12,,,59,127
119436,note_off,95,0,0,,12,,,59,127
119437,note_on,1,0,0,,2,,,62,127
119533,note_on,96,0,0,,10,,,69,127
119533,note_on,0,0,0,,6,,,66,127
119628,note_off,95,0,0,,2,,,62,127
119629,note_on,1,0,0,,2,,,62,127
119724,note_off,95,0,0,,2,,,62,127
119724,note_off,0,0,0,,6,,,66,127
119724,note_off,0,0,0,,10,,,69,127
119725,note_on,1,0,0,,6,,,66,127
119820,note_off,95,0,0,,6,,,66,127
119821,note_on,1,0,0,,10,,,69,127
119917,note_on,96,0,0,,12,,,71,127
119917,note_on,0,0,0,,2,,,74,127
120012,note_off,95,0,0,,10,,,69,127
120013,note_on,1,0,0,,7,,,67,127
120108,note_off,95,0,0,,7,,,67,127
120108,note_off,0,0,0,,2,,,74,127
120108,note_off,0,0,0,,12,,,71,127
120109,note_on,1,0,0,,12,,,71,127
120204,note_off,95,0,0,,12,,,71,127
120205,note_on,1,0,0,,2,,,74,127
120306,note_on,101,0,0,,2,,,50,127
120306,note_on,0,0,0,,6,,,54,127
120396,note_off,90,0,0,,2,,,74,127
120401,note_off,5,0,0,,6,,,54,127
120401,note_off,0,0,0,,2,,,50,127
120402,note_on,1,0,0,,2,,,50,127
120497,note_off,95,0,0,,2,,,50,127
120498,note_on,1,0,0,,6,,,54,127
120593,note_off,95,0,0,,6,,,54,127
120594,note_on,1,0,0,,10,,,57,127
120690,note_on,96,0,0,,12,,,59,127
120690,note_on,0,0,0,,2,,,62,127
120785,note_off,95,0,0,,10,,,57,127
120786,note_on,1,0,0,,7,,,55,127
120881,note_off,95,0,0,,7,,,55,127
120881,note_off,0,0,0,,2,,,62,127
120881,note_off,0,0,0,,12,,,59,127
120882,note_on,1,0,0,,12,,,59,127
120977,note_off,95,0,0,,12,,,59,127
120978,note_on,1,0,0,,2,,,62,127
121074,note_on,96,0,0,,10,,,69,127
121074,note_on,0,0,0,,6,,,66,127
121169,note_off,95,0,0,,2,,,62,127
121170,note_on,1,0,0,,2,,,62,127
121265,note_off,95,0,0,,2,,,62,127
121265,note_off,0,0,0,,6,,,66,127
121265,note_off,0,0,0,,10,,,69,127
121266,note_on,1,0,0,,6,,,66,127
121361,note_off,95,0,0,,6,,,66,127
121362,note_on,1,0,0,,10,,,69,127
121458,note_on,96,0,0,,12,,,71,127
121458,note_on,0,0,0,,2,,,74,127
121553,note_off,95,0,0,,10,,,69,127
121554,note_on,1,0,0,,7,,,67,127
121649,note_off,95,0,0,,7,,,67,127
121649,note_off,0,0,0,,2,,,74,127
121649,note_off,0,0,0,,12,,,71,127
121650,note_on,1,0,0,,12,,,71,127
121745,note_off,95,0,0,,12,,,71,127
121746,note_on,1,0,0,,2,,,74,127
121841,note_off,95,0,0,,2,,,74,127
121847,note_on,6,0,0,,2,,,74,127
121947,note_on,100,0,0,,7,,,67,127
122042,note_off,95,0,0,,7,,,67,127
122043,note_on,1,0,0,,12,,,71,127
122134,note_off,91,0,0,,2,,,74,127
122138,note_off,4,0,0,,12,,,71,127
122139,note_on,1,0,0,,2,,,74,127
122235,note_on,96,0,0,,2,,,62,127
122330,note_off,95,0,0,,2,,,74,127
122331,note_on,1,0,0,,6,,,66,127
122426,note_off,95,0,0,,6,,,66,127
122427,note_on,1,0,0,,10,,,69,127
122522,note_off,95,0,0,,10,,,69,127
122523,note_on,1,0,0,,2,,,74,127
122618,note_off,95,0,0,,2,,,74,127
122618,note_off,0,0,0,,2,,,62,127
122619,note_on,1,0,0,,2,,,74,127
122715,note_on,96,0,0,,4,,,64,127
122810,note_off,95,0,0,,4,,,64,127
122811,note_on,1,0,0,,7,,,67,127
122906,note_off,95,0,0,,7,,,67,127
122906,note_off,0,0,0,,2,,,74,127
122907,note_on,1,0,0,,2,,,74,127
123003,note_on,96,0,0,,2,,,62,127
123098,note_off,95,0,0,,2,,,62,127
123098,note_off,0,0,0,,2,,,74,127
123099,note_on,1,0,0,,2,,,62,127
123195,note_on,96,0,0,,6,,,66,127
123290,note_off,95,0,0,,6,,,66,127
123291,note_on,1,0,0,,10,,,69,127
123386,note_off,95,0,0,,2,,,62,127
123387,note_on,1,0,0,,10,,,81,127
123482,note_off,95,0,0,,10,,,69,127
123483,note_on,1,0,0,,1,,,61,127
123578,note_off,95,0,0,,1,,,61,127
123579,note_on,1,0,0,,4,,,64,127
123674,note_off,95,0,0,,4,,,64,127
123675,note_on,1,0,0,,10,,,69,127
123770,note_off,95,0,0,,10,,,81,127
123771,note_on,1,0,0,,12,,,59,127
123866,note_off,95,0,0,,12,,,59,127
123866,note_off,0,0,0,,10,,,69,127
123867,note_on,1,0,0,,12,,,59,127
123962,note_off,95,0,0,,12,,,59,127
123963,note_on,1,0,0,,2,,,62,127
124058,note_off,95,0,0,,2,,,62,127
124059,note_on,1,0,0,,10,,,69,127
124155,note_on,96,0,0,,10,,,81,127
124250,note_off,95,0,0,,10,,,69,127
124251,note_on,1,0,0,,10,,,57,127
124346,note_off,95,0,0,,10,,,57,127
124347,note_on,1,0,0,,1,,,61,127
124442,note_off,95,0,0,,1,,,61,127
124443,note_on,1,0,0,,4,,,64,127
124538,note_off,95,0,0,,10,,,81,127
124539,note_on,1,0,0,,7,,,55,127
124634,note_off,95,0,0,,7,,,55,127
124634,note_off,0,0,0,,4,,,64,127
124635,note_on,1,0,0,,7,,,55,127
124731,note_on,96,0,0,,1,,,61,127
124826,note_off,95,0,0,,1,,,61,127
124827,note_on,1,0,0,,4,,,64,127
124922,note_off,95,0,0,,7,,,55,127
124923,note_on,1,0,0,,10,,,81,127
125018,note_off,95,0,0,,4,,,64,127
125019,note_on,1,0,0,,6,,,54,127
125114,note_off,95,0,0,,6,,,54,127
125115,note_on,1,0,0,,10,,,57,127
125210,note_off,95,0,0,,10,,,57,127
125211,note_on,1,0,0,,2,,,62,127
125306,note_off,95,0,0,,10,,,81,127
125307,note_on,1,0,0,,4,,,52,127
125402,note_off,95,0,0,,4,,,52,127
125402,note_off,0,0,0,,2,,,62,127
125403,note_on,1,0,0,,4,,,52,127
125499,note_on,96,0,0,,7,,,55,127
125594,note_off,95,0,0,,7,,,55,127
125595,note_on,1,0,0,,1,,,61,127
125690,note_off,95,0,0,,4,,,52,127
125691,note_on,1,0,0,,10,,,81,127
125786,note_off,95,0,0,,1,,,61,127
125787,note_on,1,0,0,,2,,,50,127
125882,note_off,95,0,0,,2,,,50,127
125883,note_on,1,0,0,,6,,,54,127
125978,note_off,95,0,0,,6,,,54,127
125979,note_on,1,0,0,,10,,,57,127
126074,note_off,95,0,0,,10,,,81,127
126075,note_on,1,0,0,,1,,,49,127
126170,note_off,95,0,0,,1,,,49,127
126170,note_off,0,0,0,,10,,,57,127
126171,note_on,1,0,0,,1,,,49,127
126267,note_on,96,0,0,,4,,,52,127
126362,note_off,95,0,0,,4,,,52,127
126363,note_on,1,0,0,,10,,,57,127
126458,note_off,95,0,0,,10,,,57,127
126458,note_off,0,0,0,,1,,,49,127
126459,note_on,1,0,0,,10,,,81,127
126555,note_on,96,0,0,,2,,,50,127
126650,note_off,95,0,0,,2,,,50,127
126651,note_on,1,0,0,,6,,,54,127
126746,note_off,95,0,0,,6,,,54,127
126747,note_on,1,0,0,,10,,,57,127
126842,note_off,95,0,0,,10,,,81,127
126843,note_on,1,0,0,,10,,,45,127
126938,note_off,95,0,0,,10,,,57,127
126939,note_on,1,0,0,,7,,,55,127
127034,note_off,95,0,0,,7,,,55,127
127035,note_on,1,0,0,,6,,,54,127
127130,note_off,95,0,0,,6,,,54,127
127131,note_on,1,0,0,,4,,,52,127
127226,note_off,95,0,0,,4,,,52,127
127226,note_off,0,0,0,,10,,,45,127
127227,note_on,1,0,0,,2,,,50,127
127323,note_on,96,0,0,,7,,,67,127
127418,note_off,95,0,0,,7,,,67,127
127418,note_off,0,0,0,,2,,,50,127
127419,note_on,1,0,0,,7,,,55,127
127419,note_on,0,0,0,,6,,,66,127
127514,note_off,95,0,0,,6,,,66,127
127515,note_on,1,0,0,,4,,,64,127
127610,note_off,95,0,0,,4,,,64,127
127610,note_off,0,0,0,,7,,,55,127
127611,note_on,1,0,0,,10,,,57,127
127611,note_on,0,0,0,,6,,,66,127
127706,note_off,95,0,0,,6,,,66,127
127707,note_on,1,0,0,,2,,,62,127
127802,note_off,95,0,0,,2,,,62,127
127802,note_off,0,0,0,,10,,,57,127
127803,note_on,1,0,0,,10,,,45,127
127803,note_on,0,0,0,,4,,,64,127
127898,note_off,95,0,0,,4,,,64,127
127899,note_on,1,0,0,,1,,,61,127
127994,note_off,95,0,0,,1,,,61,127
127994,note_off,0,0,0,,10,,,45,127
127995,note_on,1,0,0,,2,,,50,127
127995,note_on,0,0,0,,2,,,62,127
128090,note_off,95,0,0,,2,,,50,127
128099,note_on,9,0,0,,4,,,52,127
128194,note_off,95,0,0,,4,,,52,127
128195,note_on,1,0,0,,6,,,54,127
128290,note_off,95,0,0,,6,,,54,127
128291,note_on,1,0,0,,7,,,55,127
128386,note_off,95,0,0,,7,,,55,127
128387,note_on,1,0,0,,10,,,57,127
128482,note_off,95,0,0,,10,,,57,127
128483,note_on,1,0,0,,12,,,59,127
128570,note_off,87,0,0,,2,,,62,127
128578,note_off,8,0,0,,12,,,59,127
128579,note_on,1,0,0,,4,,,64,127
128579,note_on,0,0,0,,1,,,61,127
128674,note_off,95,0,0,,1,,,61,127
128675,note_on,1,0,0,,10,,,57,127
128770,note_off,95,0,0,,10,,,57,127
128770,note_off,0,0,0,,4,,,64,127
128771,note_on,1,0,0,,6,,,66,127
128771,note_on,0,0,0,,2,,,62,127
128866,note_off,95,0,0,,2,,,62,127
128867,note_on,1,0,0,,4,,,64,127
128962,note_off,95,0,0,,4,,,64,127
128962,note_off,0,0,0,,6,,,66,127
128963,note_on,1,0,0,,6,,,66,127
129059,note_on,96,0,0,,7,,,67,127
129153,note_off,94,0,0,,6,,,66,127
129154,note_off,1,0,0,,7,,,67,127
129155,note_on,1,0,0,,10,,,69,127
129250,note_off,95,0,0,,10,,,69,127
129251,note_on,1,0,0,,12,,,71,127
129346,note_off,95,0,0,,12,,,71,127
129347,note_on,1,0,0,,4,,,76,127
129347,note_on,0,0,0,,1,,,73,127
129442,note_off,95,0,0,,1,,,73,127
129443,note_on,1,0,0,,10,,,69,127
129538,note_off,95,0,0,,10,,,69,127
129538,note_off,0,0,0,,4,,,76,127
129539,note_on,1,0,0,,6,,,78,127
129539,note_on,0,0,0,,2,,,74,127
129634,note_off,95,0,0,,6,,,78,127
129641,note_off,7,0,0,,2,,,74,127
129642,note_on,1,0,0,,1,,,73,127
129642,note_on,0,0,0,,4,,,76,127
129737,note_off,95,0,0,,1,,,73,127
129738,note_on,1,0,0,,12,,,71,127
129738,note_on,0,0,0,,2,,,74,127
129744,note_off,6,0,0,,4,,,76,127
129833,note_off,89,0,0,,2,,,74,127
129833,note_off,0,0,0,,12,,,71,127
129834,note_on,1,0,0,,10,,,69,127
129834,note_on,0,0,0,,1,,,73,127
129929,note_off,95,0,0,,1,,,73,127
129929,note_off,0,0,0,,10,,,69,127
129930,note_on,1,0,0,,12,,,71,127
129930,note_on,0,0,0,,2,,,74,127
130025,note_off,95,0,0,,2,,,74,127
130025,note_off,0,0,0,,12,,,71,127
130026,note_on,1,0,0,,10,,,69,127
130026,note_on,0,0,0,,1,,,73,127
130121,note_off,95,0,0,,1,,,73,127
130121,note_off,0,0,0,,10,,,69,127
130122,note_on,1,0,0,,7,,,67,127
130122,note_on,0,0,0,,12,,,71,127
130217,note_off,95,0,0,,12,,,71,127
130217,note_off,0,0,0,,7,,,67,127
130218,note_on,1,0,0,,6,,,66,127
130218,note_on,0,0,0,,10,,,69,127
130313,note_off,95,0,0,,10,,,69,127
130313,note_off,0,0,0,,6,,,66,127
130314,note_on,1,0,0,,7,,,67,127
130314,note_on,0,0,0,,12,,,71,127
130409,note_off,95,0,0,,12,,,71,127
130409,note_off,0,0,0,,7,,,67,127
130410,note_on,1,0,0,,6,,,66,127
130410,note_on,0,0,0,,10,,,69,127
130505,note_off,95,0,0,,10,,,69,127
130505,note_off,0,0,0,,6,,,66,127
130506,note_on,1,0,0,,4,,,64,127
130506,note_on,0,0,0,,7,,,67,127
130601,note_off,95,0,0,,7,,,67,127
130601,note_off,0,0,0,,4,,,64,127
130602,note_on,1,0,0,,2,,,62,127
130602,note_on,0,0,0,,6,,,66,127
130697,note_off,95,0,0,,6,,,66,127
130697,note_off,0,0,0,,2,,,62,127
130698,note_on,1,0,0,,4,,,64,127
130698,note_on,0,0,0,,7,,,67,127
130793,note_off,95,0,0,,7,,,67,127
130793,note_off,0,0,0,,4,,,64,127
130794,note_on,1,0,0,,2,,,62,127
130794,note_on,0,0,0,,6,,,66,127
130889,note_off,95,0,0,,6,,,66,127
130889,note_off,0,0,0,,2,,,62,127
130890,note_on,1,0,0,,1,,,61,127
130890,note_on,0,0,0,,4,,,64,127
130985,note_off,95,0,0,,4,,,64,127
130985,note_off,0,0,0,,1,,,61,127
130986,note_on,1,0,0,,12,,,59,127
130986,note_on,0,0,0,,2,,,62,127
131081,note_off,95,0,0,,2,,,62,127
131081,note_off,0,0,0,,12,,,59,127
131082,note_on,1,0,0,,1,,,61,127
131082,note_on,0,0,0,,4,,,64,127
131177,note_off,95,0,0,,4,,,64,127
131177,note_off,0,0,0,,1,,,61,127
131178,note_on,1,0,0,,2,,,62,127
131178,note_on,0,0,0,,6,,,66,127
131273,note_off,95,0,0,,6,,,66,127
131273,note_off,0,0,0,,2,,,62,127
131274,note_on,1,0,0,,1,,,61,127
131274,note_on,0,0,0,,4,,,64,127
131369,note_off,95,0,0,,4,,,64,127
131369,note_off,0,0,0,,1,,,61,127
131370,note_on,1,0,0,,12,,,59,127
131370,note_on,0,0,0,,2,,,62,127
131465,note_off,95,0,0,,2,,,62,127
131465,note_off,0,0,0,,12,,,59,127
131466,note_on,1,0,0,,10,,,57,127
131466,note_on,0,0,0,,1,,,61,127
131561,note_off,95,0,0,,1,,,61,127
131561,note_off,0,0,0,,10,,,57,127
131562,note_on,1,0,0,,12,,,59,127
131562,note_on,0,0,0,,2,,,62,127
131657,note_off,95,0,0,,2,,,62,127
131657,note_off,0,0,0,,12,,,59,127
131658,note_on,1,0,0,,10,,,57,127
131658,note_on,0,0,0,,1,,,61,127
131753,note_off,95,0,0,,1,,,61,127
131753,note_off,0,0,0,,10,,,57,127
131754,note_on,1,0,0,,7,,,55,127
131754,note_on,0,0,0,,12,,,59,127
131849,note_off,95,0,0,,12,,,59,127
131849,note_off,0,0,0,,7,,,55,127
131850,note_on,1,0,0,,6,,,54,127
131850,note_on,0,0,0,,10,,,57,127
131945,note_off,95,0,0,,10,,,57,127
131946,note_on,1,0,0,,1,,,61,127
132041,note_off,95,0,0,,1,,,61,127
132041,note_off,0,0,0,,6,,,54,127
132042,note_on,1,0,0,,2,,,50,127
132042,note_on,0,0,0,,2,,,62,127
132137,note_off,95,0,0,,2,,,62,127
132138,note_on,1,0,0,,4,,,64,127
132233,note_off,95,0,0,,4,,,64,127
132233,note_off,0,0,0,,2,,,50,127
132234,note_on,1,0,0,,10,,,57,127
132234,note_on,0,0,0,,6,,,66,127
132329,note_off,95,0,0,,6,,,66,127
132330,note_on,1,0,0,,2,,,62,127
132425,note_off,95,0,0,,2,,,62,127
132425,note_off,0,0,0,,10,,,57,127
132426,note_on,1,0,0,,10,,,45,127
132426,note_on,0,0,0,,4,,,64,127
132521,note_off,95,0,0,,4,,,64,127
132522,note_on,1,0,0,,1,,,61,127
132617,note_off,95,0,0,,1,,,61,127
132617,note_off,0,0,0,,10,,,45,127
132618,note_on,1,0,0,,2,,,38,127
132618,note_on,0,0,0,,2,,,62,127
132713,note_off,95,0,0,,2,,,62,127
132714,note_on,1,0,0,,6,,,66,127
132809,note_off,95,0,0,,6,,,66,127
132810,note_on,1,0,0,,4,,,64,127
132905,note_off,95,0,0,,4,,,64,127
132906,note_on,1,0,0,,2,,,62,127
133001,note_off,95,0,0,,2,,,62,127
133001,note_off,0,0,0,,2,,,38,127
133002,note_on,1,0,0,,2,,,38,127
133002,note_on,0,0,0,,10,,,69,127
133097,note_off,95,0,0,,10,,,69,127
133098,note_on,1,0,0,,1,,,73,127
133193,note_off,95,0,0,,1,,,73,127
133194,note_on,1,0,0,,12,,,71,127
133289,note_off,95,0,0,,12,,,71,127
133290,note_on,1,0,0,,10,,,69,127
133385,note_off,95,0,0,,10,,,69,127
133385,note_off,0,0,0,,2,,,38,127
133386,note_on,1,0,0,,2,,,38,127
133386,note_on,0,0,0,,2,,,74,127
133481,note_off,95,0,0,,2,,,74,127
133482,note_on,1,0,0,,10,,,81,127
133577,note_off,95,0,0,,10,,,81,127
133578,note_on,1,0,0,,6,,,78,127
133673,note_off,95,0,0,,6,,,78,127
133674,note_on,1,0,0,,10,,,81,127
133769,note_off,95,0,0,,10,,,81,127
133769,note_off,0,0,0,,2,,,38,127
133770,note_on,1,0,0,,2,,,38,127
133770,note_on,0,0,0,,2,,,74,127
133865,note_off,95,0,0,,2,,,74,127
133866,note_on,1,0,0,,6,,,78,127
133961,note_off,95,0,0,,6,,,78,127
133962,note_on,1,0,0,,10,,,69,127
134057,note_off,95,0,0,,10,,,69,127
134058,note_on,1,0,0,,2,,,74,127
134153,note_off,95,0,0,,2,,,74,127
134153,note_off,0,0,0,,2,,,38,127
134154,note_on,1,0,0,,2,,,38,127
134154,note_on,0,0,0,,6,,,66,127
134249,note_off,95,0,0,,6,,,66,127
134250,note_on,1,0,0,,10,,,69,127
134345,note_off,95,0,0,,10,,,69,127
134346,note_on,1,0,0,,2,,,62,127
134441,note_off,95,0,0,,2,,,62,127
134442,note_on,1,0,0,,6,,,66,127
134537,note_off,95,0,0,,6,,,66,127
134538,note_on,1,0,0,,10,,,57,127
134633,note_off,95,0,0,,10,,,57,127
134634,note_on,1,0,0,,2,,,62,127
134729,note_off,95,0,0,,2,,,62,127
134730,note_on,1,0,0,,6,,,54,127
134825,note_off,95,0,0,,6,,,54,127
134826,note_on,1,0,0,,10,,,57,127
134913,note_off,87,0,0,,2,,,38,127
134946,note_off,33,0,0,,10,,,57,127
135004,note_on,58,0,0,,2,,,38,127
137204,note_off,2200,0,0,,2,,,38,127
139776,end_of_track,2572,1,0,,,,,,
