tick,type,time,meta,track,program,channel,pitch,tempo,note,velocity
0,copyright,0,1,0,,,,,,
0,program_change,0,0,0,6,0,,,,
0,pitchwheel,0,0,0,,0,0,,,
0,program_change,0,0,0,6,1,,,,
0,pitchwheel,0,0,0,,1,-590,,,
0,program_change,0,0,0,6,2,,,,
0,pitchwheel,0,0,0,,2,-272,,,
0,program_change,0,0,0,6,3,,,,
0,pitchwheel,0,0,0,,3,-353,,,
0,program_change,0,0,0,6,4,,,,
0,pitchwheel,0,0,0,,4,-560,,,
0,program_change,0,0,0,6,5,,,,
0,pitchwheel,0,0,0,,5,-80,,,
0,program_change,0,0,0,6,6,,,,
0,pitchwheel,0,0,0,,6,-625,,,
0,program_change,0,0,0,6,7,,,,
0,pitchwheel,0,0,0,,7,-130,,,
0,program_change,0,0,0,6,8,,,,
0,pitchwheel,0,0,0,,8,-512,,,
0,program_change,0,0,0,6,10,,,,
0,pitchwheel,0,0,0,,10,-464,,,
0,program_change,0,0,0,6,11,,,,
0,pitchwheel,0,0,0,,11,-208,,,
0,program_change,0,0,0,6,12,,,,
0,pitchwheel,0,0,0,,12,-553,,,
0,set_tempo,0,1,0,,,,500000,,
35,note_on,35,0,0,,7,,,55,127
657,note_off,622,0,0,,7,,,55,127
664,note_on,7,0,0,,11,,,58,127
1286,note_off,622,0,0,,11,,,58,127
1293,note_on,7,0,0,,3,,,63,127
1915,note_off,622,0,0,,3,,,63,127
1922,note_on,7,0,0,,6,,,66,127
2544,note_off,622,0,0,,6,,,66,127
2551,note_on,7,0,0,,11,,,70,127
3173,note_off,622,0,0,,11,,,70,127
3180,note_on,7,0,0,,1,,,73,127
3802,note_off,622,0,0,,1,,,73,127
3809,note_on,7,0,0,,2,,,74,127
4017,note_off,208,0,0,,2,,,74,127
4018,note_on,1,0,0,,0,,,72,127
4226,note_off,208,0,0,,0,,,72,127
4227,note_on,1,0,0,,11,,,70,127
4435,note_off,208,0,0,,11,,,70,127
4436,note_on,1,0,0,,10,,,69,127
4644,note_off,208,0,0,,10,,,69,127
4645,note_on,1,0,0,,7,,,67,127
4853,note_off,208,0,0,,7,,,67,127
4854,note_on,1,0,0,,6,,,66,127
5062,note_off,208,0,0,,6,,,66,127
5063,note_on,1,0,0,,7,,,67,127
5271,note_off,208,0,0,,7,,,67,127
5272,note_on,1,0,0,,7,,,79,127
5272,note_on,0,0,0,,11,,,70,127
5480,note_off,208,0,0,,11,,,70,127
5480,note_off,0,0,0,,7,,,79,127
5481,note_on,1,0,0,,5,,,77,127
5481,note_on,0,0,0,,10,,,69,127
5689,note_off,208,0,0,,10,,,69,127
5689,note_off,0,0,0,,5,,,77,127
5690,note_on,1,0,0,,4,,,76,127
5690,note_on,0,0,0,,7,,,67,127
5898,note_off,208,0,0,,7,,,67,127
5898,note_off,0,0,0,,4,,,76,127
5899,note_on,1,0,0,,2,,,74,127
5899,note_on,0,0,0,,5,,,65,127
6107,note_off,208,0,0,,5,,,65,127
6107,note_off,0,0,0,,2,,,74,127
6108,note_on,1,0,0,,1,,,73,127
6108,note_on,0,0,0,,4,,,64,127
6316,note_off,208,0,0,,4,,,64,127
6316,note_off,0,0,0,,1,,,73,127
6317,note_on,1,0,0,,5,,,65,127
6317,note_on,0,0,0,,2,,,74,127
6317,note_on,0,0,0,,2,,,50,127
6525,note_off,208,0,0,,5,,,65,127
6526,note_on,1,0,0,,4,,,64,127
6734,note_off,208,0,0,,4,,,64,127
6735,note_on,1,0,0,,2,,,62,127
6943,note_off,208,0,0,,2,,,50,127
6943,note_off,0,0,0,,2,,,74,127
6944,note_on,1,0,0,,5,,,53,127
7152,note_off,208,0,0,,2,,,62,127
7153,note_on,1,0,0,,10,,,69,127
7361,note_off,208,0,0,,10,,,69,127
7362,note_on,1,0,0,,5,,,65,127
7570,note_off,208,0,0,,5,,,65,127
7570,note_off,0,0,0,,5,,,53,127
7571,note_on,1,0,0,,2,,,62,127
7571,note_on,0,0,0,,11,,,58,127
7779,note_off,208,0,0,,2,,,62,127
7780,note_on,1,0,0,,7,,,67,127
7988,note_off,208,0,0,,7,,,67,127
7989,note_on,1,0,0,,11,,,70,127
8197,note_off,208,0,0,,11,,,58,127
8198,note_on,1,0,0,,1,,,61,127
8406,note_off,208,0,0,,11,,,70,127
8407,note_on,1,0,0,,10,,,69,127
8615,note_off,208,0,0,,10,,,69,127
8616,note_on,1,0,0,,4,,,76,127
8824,note_off,208,0,0,,1,,,61,127
8825,note_on,1,0,0,,5,,,65,127
9033,note_off,208,0,0,,4,,,76,127
9034,note_on,1,0,0,,2,,,74,127
9242,note_off,208,0,0,,2,,,74,127
9243,note_on,1,0,0,,5,,,77,127
9451,note_off,208,0,0,,5,,,65,127
9452,note_on,1,0,0,,8,,,68,127
9660,note_off,208,0,0,,5,,,77,127
9661,note_on,1,0,0,,4,,,76,127
9869,note_off,208,0,0,,4,,,76,127
9870,note_on,1,0,0,,2,,,74,127
10078,note_off,208,0,0,,2,,,74,127
10078,note_off,0,0,0,,8,,,68,127
10079,note_on,1,0,0,,1,,,73,127
10079,note_on,0,0,0,,10,,,69,127
10287,note_off,208,0,0,,10,,,69,127
10288,note_on,1,0,0,,7,,,67,127
10496,note_off,208,0,0,,7,,,67,127
10496,note_off,0,0,0,,1,,,73,127
10497,note_on,1,0,0,,2,,,74,127
10497,note_on,0,0,0,,5,,,65,127
10705,note_off,208,0,0,,5,,,65,127
10705,note_off,0,0,0,,2,,,74,127
10706,note_on,1,0,0,,7,,,79,127
10706,note_on,0,0,0,,4,,,64,127
10914,note_off,208,0,0,,4,,,64,127
10915,note_on,1,0,0,,2,,,62,127
11123,note_off,208,0,0,,2,,,62,127
11124,note_on,1,0,0,,1,,,61,127
11332,note_off,208,0,0,,1,,,61,127
11332,note_off,0,0,0,,7,,,79,127
11333,note_on,1,0,0,,5,,,77,127
11333,note_on,0,0,0,,2,,,62,127
11541,note_off,208,0,0,,2,,,62,127
11542,note_on,1,0,0,,12,,,71,127
11542,note_on,0,0,0,,5,,,65,127
11747,note_off,205,0,0,,5,,,77,127
11750,note_off,3,0,0,,5,,,65,127
11750,note_off,0,0,0,,12,,,71,127
11751,note_on,1,0,0,,0,,,72,127
11751,note_on,0,0,0,,3,,,63,127
11959,note_off,208,0,0,,3,,,63,127
11959,note_off,0,0,0,,0,,,72,127
11960,note_on,1,0,0,,2,,,74,127
11960,note_on,0,0,0,,2,,,62,127
12168,note_off,208,0,0,,2,,,62,127
12168,note_off,0,0,0,,2,,,74,127
12169,note_on,1,0,0,,3,,,75,127
12169,note_on,0,0,0,,0,,,60,127
12377,note_off,208,0,0,,0,,,60,127
12377,note_off,0,0,0,,3,,,75,127
12378,note_on,1,0,0,,5,,,77,127
12378,note_on,0,0,0,,12,,,59,127
12586,note_off,208,0,0,,12,,,59,127
12586,note_off,0,0,0,,5,,,77,127
12587,note_on,1,0,0,,3,,,75,127
12587,note_on,0,0,0,,0,,,60,127
12795,note_off,208,0,0,,0,,,60,127
12796,note_on,1,0,0,,7,,,67,127
12796,note_on,0,0,0,,3,,,63,127
13004,note_off,208,0,0,,3,,,63,127
13004,note_off,0,0,0,,7,,,67,127
13005,note_on,1,0,0,,6,,,66,127
13005,note_on,0,0,0,,2,,,62,127
13213,note_off,208,0,0,,2,,,62,127
13213,note_off,0,0,0,,6,,,66,127
13214,note_on,1,0,0,,7,,,67,127
13214,note_on,0,0,0,,0,,,60,127
13422,note_off,208,0,0,,0,,,60,127
13422,note_off,0,0,0,,3,,,75,127
13423,note_on,1,0,0,,2,,,74,127
13423,note_on,0,0,0,,11,,,58,127
13631,note_off,208,0,0,,11,,,58,127
13631,note_off,0,0,0,,2,,,74,127
13632,note_on,1,0,0,,0,,,72,127
13632,note_on,0,0,0,,10,,,57,127
13840,note_off,208,0,0,,10,,,57,127
13840,note_off,0,0,0,,0,,,72,127
13840,note_off,0,0,0,,7,,,67,127
13841,note_on,1,0,0,,11,,,70,127
13841,note_on,0,0,0,,7,,,43,127
14049,note_off,208,0,0,,11,,,70,127
14050,note_on,1,0,0,,10,,,69,127
14258,note_off,208,0,0,,10,,,69,127
14259,note_on,1,0,0,,7,,,67,127
14467,note_off,208,0,0,,7,,,43,127
14468,note_on,1,0,0,,11,,,46,127
14676,note_off,208,0,0,,7,,,67,127
14677,note_on,1,0,0,,2,,,62,127
14885,note_off,208,0,0,,2,,,62,127
14886,note_on,1,0,0,,11,,,58,127
15094,note_off,208,0,0,,11,,,58,127
15094,note_off,0,0,0,,11,,,46,127
15095,note_on,1,0,0,,7,,,55,127
15095,note_on,0,0,0,,3,,,51,127
15303,note_off,208,0,0,,7,,,55,127
15304,note_on,1,0,0,,0,,,60,127
15512,note_off,208,0,0,,0,,,60,127
15513,note_on,1,0,0,,3,,,63,127
15721,note_off,208,0,0,,3,,,51,127
15722,note_on,1,0,0,,6,,,54,127
15930,note_off,208,0,0,,3,,,63,127
15931,note_on,1,0,0,,2,,,62,127
16139,note_off,208,0,0,,2,,,62,127
16140,note_on,1,0,0,,10,,,69,127
16348,note_off,208,0,0,,6,,,54,127
16349,note_on,1,0,0,,11,,,58,127
16557,note_off,208,0,0,,10,,,69,127
16558,note_on,1,0,0,,7,,,67,127
16766,note_off,208,0,0,,7,,,67,127
16767,note_on,1,0,0,,11,,,70,127
16975,note_off,208,0,0,,11,,,58,127
16976,note_on,1,0,0,,1,,,61,127
17184,note_off,208,0,0,,11,,,70,127
17185,note_on,1,0,0,,10,,,69,127
17393,note_off,208,0,0,,10,,,69,127
17394,note_on,1,0,0,,7,,,67,127
17602,note_off,208,0,0,,7,,,67,127
17602,note_off,0,0,0,,1,,,61,127
17603,note_on,1,0,0,,6,,,66,127
17603,note_on,0,0,0,,2,,,62,127
17811,note_off,208,0,0,,2,,,62,127
17812,note_on,1,0,0,,0,,,60,127
18020,note_off,208,0,0,,0,,,60,127
18020,note_off,0,0,0,,6,,,66,127
18021,note_on,1,0,0,,7,,,67,127
18021,note_on,0,0,0,,11,,,58,127
18229,note_off,208,0,0,,11,,,58,127
18229,note_off,0,0,0,,7,,,67,127
18230,note_on,1,0,0,,0,,,72,127
18230,note_on,0,0,0,,10,,,57,127
18438,note_off,208,0,0,,10,,,57,127
18439,note_on,1,0,0,,7,,,55,127
18647,note_off,208,0,0,,7,,,55,127
18648,note_on,1,0,0,,6,,,54,127
18856,note_off,208,0,0,,6,,,54,127
18856,note_off,0,0,0,,0,,,72,127
18857,note_on,1,0,0,,11,,,70,127
18857,note_on,0,0,0,,7,,,55,127
19065,note_off,208,0,0,,7,,,55,127
19066,note_on,1,0,0,,2,,,62,127
19066,note_on,0,0,0,,11,,,58,127
19274,note_off,208,0,0,,11,,,58,127
19274,note_off,0,0,0,,2,,,62,127
19275,note_on,1,0,0,,1,,,61,127
19275,note_on,0,0,0,,10,,,57,127
19483,note_off,208,0,0,,10,,,57,127
19483,note_off,0,0,0,,1,,,61,127
19484,note_on,1,0,0,,2,,,62,127
19484,note_on,0,0,0,,7,,,55,127
19692,note_off,208,0,0,,7,,,55,127
19692,note_off,0,0,0,,11,,,70,127
19693,note_on,1,0,0,,10,,,69,127
19693,note_on,0,0,0,,5,,,53,127
19901,note_off,208,0,0,,5,,,53,127
19901,note_off,0,0,0,,10,,,69,127
19902,note_on,1,0,0,,7,,,67,127
19902,note_on,0,0,0,,4,,,52,127
20110,note_off,208,0,0,,4,,,52,127
20110,note_off,0,0,0,,7,,,67,127
20110,note_off,0,0,0,,2,,,62,127
20111,note_on,1,0,0,,5,,,65,127
20111,note_on,0,0,0,,2,,,38,127
20319,note_off,208,0,0,,5,,,65,127
20320,note_on,1,0,0,,4,,,64,127
20528,note_off,208,0,0,,4,,,64,127
20529,note_on,1,0,0,,2,,,62,127
20737,note_off,208,0,0,,2,,,38,127
20738,note_on,1,0,0,,5,,,41,127
20946,note_off,208,0,0,,2,,,62,127
20947,note_on,1,0,0,,10,,,69,127
21155,note_off,208,0,0,,10,,,69,127
21156,note_on,1,0,0,,5,,,65,127
21364,note_off,208,0,0,,5,,,65,127
21364,note_off,0,0,0,,5,,,41,127
21365,note_on,1,0,0,,2,,,62,127
21365,note_on,0,0,0,,11,,,46,127
21573,note_off,208,0,0,,2,,,62,127
21574,note_on,1,0,0,,7,,,67,127
21782,note_off,208,0,0,,7,,,67,127
21783,note_on,1,0,0,,11,,,70,127
21991,note_off,208,0,0,,11,,,46,127
21992,note_on,1,0,0,,1,,,49,127
22200,note_off,208,0,0,,11,,,70,127
22201,note_on,1,0,0,,10,,,69,127
22409,note_off,208,0,0,,10,,,69,127
22410,note_on,1,0,0,,4,,,76,127
22618,note_off,208,0,0,,1,,,49,127
22619,note_on,1,0,0,,5,,,53,127
22827,note_off,208,0,0,,4,,,76,127
22828,note_on,1,0,0,,2,,,74,127
23036,note_off,208,0,0,,2,,,74,127
23037,note_on,1,0,0,,5,,,77,127
23245,note_off,208,0,0,,5,,,53,127
23246,note_on,1,0,0,,8,,,56,127
23454,note_off,208,0,0,,5,,,77,127
23455,note_on,1,0,0,,4,,,76,127
23663,note_off,208,0,0,,4,,,76,127
23664,note_on,1,0,0,,2,,,74,127
23872,note_off,208,0,0,,2,,,74,127
23872,note_off,0,0,0,,8,,,56,127
23873,note_on,1,0,0,,1,,,73,127
23873,note_on,0,0,0,,10,,,57,127
24081,note_off,208,0,0,,10,,,57,127
24082,note_on,1,0,0,,7,,,55,127
24290,note_off,208,0,0,,7,,,55,127
24290,note_off,0,0,0,,1,,,73,127
24291,note_on,1,0,0,,2,,,74,127
24291,note_on,0,0,0,,5,,,53,127
24499,note_off,208,0,0,,5,,,53,127
24499,note_off,0,0,0,,2,,,74,127
24500,note_on,1,0,0,,7,,,79,127
24500,note_on,0,0,0,,4,,,52,127
24708,note_off,208,0,0,,4,,,52,127
24708,note_off,0,0,0,,7,,,79,127
24709,note_on,1,0,0,,5,,,77,127
24709,note_on,0,0,0,,2,,,50,127
24917,note_off,208,0,0,,2,,,50,127
24917,note_off,0,0,0,,5,,,77,127
24918,note_on,1,0,0,,4,,,76,127
24918,note_on,0,0,0,,1,,,49,127
25126,note_off,208,0,0,,1,,,49,127
25126,note_off,0,0,0,,4,,,76,127
25127,note_on,1,0,0,,5,,,77,127
25127,note_on,0,0,0,,2,,,50,127
25336,note_on,209,0,0,,12,,,71,127
25336,note_on,0,0,0,,2,,,62,127
25541,note_off,205,0,0,,2,,,50,127
25544,note_off,3,0,0,,2,,,62,127
25544,note_off,0,0,0,,12,,,71,127
25545,note_on,1,0,0,,0,,,72,127
25545,note_on,0,0,0,,0,,,60,127
25753,note_off,208,0,0,,0,,,60,127
25753,note_off,0,0,0,,0,,,72,127
25753,note_off,0,0,0,,5,,,77,127
25754,note_on,1,0,0,,2,,,74,127
25754,note_on,0,0,0,,12,,,59,127
25962,note_off,208,0,0,,12,,,59,127
25962,note_off,0,0,0,,2,,,74,127
25963,note_on,1,0,0,,3,,,75,127
25963,note_on,0,0,0,,10,,,57,127
26171,note_off,208,0,0,,10,,,57,127
26171,note_off,0,0,0,,3,,,75,127
26172,note_on,1,0,0,,5,,,77,127
26172,note_on,0,0,0,,7,,,55,127
26380,note_off,208,0,0,,7,,,55,127
26380,note_off,0,0,0,,5,,,77,127
26381,note_on,1,0,0,,3,,,75,127
26381,note_on,0,0,0,,0,,,48,127
26590,note_on,209,0,0,,6,,,66,127
26590,note_on,0,0,0,,0,,,60,127
26795,note_off,205,0,0,,0,,,48,127
26798,note_off,3,0,0,,0,,,60,127
26798,note_off,0,0,0,,6,,,66,127
26799,note_on,1,0,0,,7,,,67,127
26799,note_on,0,0,0,,11,,,58,127
27007,note_off,208,0,0,,11,,,58,127
27007,note_off,0,0,0,,7,,,67,127
27007,note_off,0,0,0,,3,,,75,127
27008,note_on,1,0,0,,10,,,69,127
27008,note_on,0,0,0,,10,,,57,127
27216,note_off,208,0,0,,10,,,57,127
27216,note_off,0,0,0,,10,,,69,127
27217,note_on,1,0,0,,11,,,70,127
27217,note_on,0,0,0,,7,,,55,127
27425,note_off,208,0,0,,7,,,55,127
27425,note_off,0,0,0,,11,,,70,127
27426,note_on,1,0,0,,0,,,72,127
27426,note_on,0,0,0,,6,,,54,127
27634,note_off,208,0,0,,6,,,54,127
27634,note_off,0,0,0,,0,,,72,127
27635,note_on,1,0,0,,11,,,70,127
27635,note_on,0,0,0,,7,,,55,127
27843,note_off,208,0,0,,11,,,70,127
27844,note_on,1,0,0,,1,,,73,127
27844,note_on,0,0,0,,7,,,67,127
28049,note_off,205,0,0,,7,,,55,127
28052,note_off,3,0,0,,7,,,67,127
28052,note_off,0,0,0,,1,,,73,127
28053,note_on,1,0,0,,2,,,74,127
28053,note_on,0,0,0,,5,,,65,127
28261,note_off,208,0,0,,5,,,65,127
28261,note_off,0,0,0,,2,,,74,127
28262,note_on,1,0,0,,4,,,76,127
28262,note_on,0,0,0,,4,,,64,127
28470,note_off,208,0,0,,4,,,64,127
28470,note_off,0,0,0,,4,,,76,127
28471,note_on,1,0,0,,6,,,78,127
28471,note_on,0,0,0,,2,,,62,127
28679,note_off,208,0,0,,2,,,62,127
28679,note_off,0,0,0,,6,,,78,127
28680,note_on,1,0,0,,7,,,79,127
28680,note_on,0,0,0,,1,,,61,127
28888,note_off,208,0,0,,7,,,79,127
28889,note_on,1,0,0,,6,,,78,127
28941,note_off,52,0,0,,1,,,61,127
29097,note_off,156,0,0,,6,,,78,127
29098,note_on,1,0,0,,7,,,79,127
29098,note_on,0,0,0,,2,,,62,127
29306,note_off,208,0,0,,2,,,62,127
29306,note_off,0,0,0,,7,,,79,127
29307,note_on,1,0,0,,10,,,81,127
29307,note_on,0,0,0,,0,,,60,127
29515,note_off,208,0,0,,0,,,60,127
29516,note_on,1,0,0,,2,,,74,127
29516,note_on,0,0,0,,11,,,58,127
29724,note_off,208,0,0,,11,,,58,127
29724,note_off,0,0,0,,10,,,81,127
29725,note_on,1,0,0,,7,,,79,127
29725,note_on,0,0,0,,7,,,67,127
29933,note_off,208,0,0,,7,,,67,127
29933,note_off,0,0,0,,7,,,79,127
29934,note_on,1,0,0,,6,,,78,127
29934,note_on,0,0,0,,10,,,57,127
29934,note_on,0,0,0,,10,,,69,127
30142,note_off,208,0,0,,10,,,69,127
30142,note_off,0,0,0,,10,,,57,127
30142,note_off,0,0,0,,6,,,78,127
30142,note_off,0,0,0,,2,,,74,127
30143,note_on,1,0,0,,7,,,79,127
30143,note_on,0,0,0,,11,,,70,127
30143,note_on,0,0,0,,7,,,55,127
30351,note_off,208,0,0,,11,,,70,127
30352,note_on,1,0,0,,0,,,72,127
30560,note_off,208,0,0,,0,,,72,127
30561,note_on,1,0,0,,2,,,74,127
30769,note_off,208,0,0,,7,,,55,127
30769,note_off,0,0,0,,7,,,79,127
30770,note_on,1,0,0,,11,,,58,127
30978,note_off,208,0,0,,2,,,74,127
30979,note_on,1,0,0,,2,,,74,127
31187,note_off,208,0,0,,2,,,74,127
31188,note_on,1,0,0,,11,,,70,127
31396,note_off,208,0,0,,11,,,70,127
31396,note_off,0,0,0,,11,,,58,127
31397,note_on,1,0,0,,7,,,67,127
31397,note_on,0,0,0,,3,,,63,127
31605,note_off,208,0,0,,7,,,67,127
31606,note_on,1,0,0,,0,,,72,127
31814,note_off,208,0,0,,0,,,72,127
31815,note_on,1,0,0,,3,,,75,127
32023,note_off,208,0,0,,3,,,63,127
32024,note_on,1,0,0,,0,,,60,127
32232,note_off,208,0,0,,3,,,75,127
32233,note_on,1,0,0,,2,,,74,127
32441,note_off,208,0,0,,2,,,74,127
32442,note_on,1,0,0,,6,,,66,127
32650,note_off,208,0,0,,6,,,66,127
32650,note_off,0,0,0,,0,,,60,127
32651,note_on,1,0,0,,7,,,67,127
32651,note_on,0,0,0,,11,,,58,127
32859,note_off,208,0,0,,11,,,58,127
32860,note_on,1,0,0,,10,,,57,127
33068,note_off,208,0,0,,10,,,57,127
33069,note_on,1,0,0,,7,,,55,127
33277,note_off,208,0,0,,7,,,67,127
33278,note_on,1,0,0,,11,,,70,127
33486,note_off,208,0,0,,7,,,55,127
33487,note_on,1,0,0,,7,,,55,127
33695,note_off,208,0,0,,7,,,55,127
33696,note_on,1,0,0,,11,,,58,127
33904,note_off,208,0,0,,11,,,58,127
33904,note_off,0,0,0,,11,,,70,127
33905,note_on,1,0,0,,3,,,75,127
33905,note_on,0,0,0,,0,,,60,127
34113,note_off,208,0,0,,0,,,60,127
34114,note_on,1,0,0,,7,,,55,127
34322,note_off,208,0,0,,7,,,55,127
34323,note_on,1,0,0,,3,,,63,127
34531,note_off,208,0,0,,3,,,75,127
34532,note_on,1,0,0,,6,,,78,127
34693,note_off,161,0,0,,3,,,63,127
34741,note_on,48,0,0,,2,,,62,127
34949,note_off,208,0,0,,2,,,62,127
34950,note_on,1,0,0,,10,,,69,127
35158,note_off,208,0,0,,6,,,78,127
35159,note_on,1,0,0,,11,,,82,127
35320,note_off,161,0,0,,10,,,69,127
35368,note_on,48,0,0,,7,,,67,127
35576,note_off,208,0,0,,7,,,67,127
35577,note_on,1,0,0,,11,,,70,127
35785,note_off,208,0,0,,11,,,82,127
35786,note_on,1,0,0,,1,,,73,127
35980,note_off,194,0,0,,11,,,70,127
35995,note_on,15,0,0,,10,,,69,127
36203,note_off,208,0,0,,10,,,69,127
36204,note_on,1,0,0,,7,,,67,127
36412,note_off,208,0,0,,7,,,67,127
36412,note_off,0,0,0,,1,,,73,127
36413,note_on,1,0,0,,2,,,74,127
36413,note_on,0,0,0,,6,,,66,127
36621,note_off,208,0,0,,2,,,74,127
36622,note_on,1,0,0,,0,,,72,127
36830,note_off,208,0,0,,0,,,72,127
36830,note_off,0,0,0,,6,,,66,127
36831,note_on,1,0,0,,11,,,70,127
36831,note_on,0,0,0,,7,,,67,127
37039,note_off,208,0,0,,7,,,67,127
37039,note_off,0,0,0,,11,,,70,127
37040,note_on,1,0,0,,10,,,69,127
37040,note_on,0,0,0,,0,,,60,127
37248,note_off,208,0,0,,10,,,69,127
37249,note_on,1,0,0,,7,,,67,127
37457,note_off,208,0,0,,7,,,67,127
37457,note_off,0,0,0,,0,,,60,127
37458,note_on,1,0,0,,6,,,66,127
37458,note_on,0,0,0,,2,,,62,127
37666,note_off,208,0,0,,2,,,62,127
37666,note_off,0,0,0,,6,,,66,127
37667,note_on,1,0,0,,7,,,67,127
37667,note_on,0,0,0,,7,,,55,127
37876,note_on,209,0,0,,2,,,74,127
38084,note_off,208,0,0,,2,,,74,127
38085,note_on,1,0,0,,0,,,72,127
38293,note_off,208,0,0,,0,,,72,127
38293,note_off,0,0,0,,7,,,55,127
38293,note_off,0,0,0,,7,,,67,127
38294,note_on,1,0,0,,7,,,79,127
38294,note_on,0,0,0,,11,,,70,127
38294,note_on,0,0,0,,7,,,67,127
38502,note_off,208,0,0,,7,,,67,127
38502,note_off,0,0,0,,11,,,70,127
38503,note_on,1,0,0,,10,,,69,127
38503,note_on,0,0,0,,5,,,65,127
38711,note_off,208,0,0,,5,,,65,127
38711,note_off,0,0,0,,10,,,69,127
38712,note_on,1,0,0,,7,,,67,127
38712,note_on,0,0,0,,3,,,63,127
38920,note_off,208,0,0,,3,,,63,127
38920,note_off,0,0,0,,7,,,67,127
38920,note_off,0,0,0,,7,,,79,127
38921,note_on,1,0,0,,10,,,69,127
38921,note_on,0,0,0,,5,,,77,127
38921,note_on,0,0,0,,2,,,62,127
39129,note_off,208,0,0,,2,,,62,127
39129,note_off,0,0,0,,10,,,69,127
39130,note_on,1,0,0,,12,,,71,127
39130,note_on,0,0,0,,5,,,65,127
39338,note_off,208,0,0,,5,,,65,127
39338,note_off,0,0,0,,12,,,71,127
39339,note_on,1,0,0,,0,,,72,127
39339,note_on,0,0,0,,3,,,63,127
39547,note_off,208,0,0,,3,,,63,127
39547,note_off,0,0,0,,0,,,72,127
39548,note_on,1,0,0,,12,,,71,127
39548,note_on,0,0,0,,2,,,62,127
39756,note_off,208,0,0,,2,,,62,127
39756,note_off,0,0,0,,12,,,71,127
39757,note_on,1,0,0,,0,,,72,127
39757,note_on,0,0,0,,0,,,60,127
39965,note_off,208,0,0,,0,,,60,127
39965,note_off,0,0,0,,0,,,72,127
39965,note_off,0,0,0,,5,,,77,127
39966,note_on,1,0,0,,5,,,77,127
39966,note_on,0,0,0,,2,,,74,127
39966,note_on,0,0,0,,12,,,59,127
40174,note_off,208,0,0,,12,,,59,127
40174,note_off,0,0,0,,2,,,74,127
40174,note_off,0,0,0,,5,,,77,127
40175,note_on,1,0,0,,3,,,75,127
40175,note_on,0,0,0,,7,,,67,127
40175,note_on,0,0,0,,0,,,60,127
40383,note_off,208,0,0,,0,,,60,127
40383,note_off,0,0,0,,7,,,67,127
40384,note_on,1,0,0,,10,,,69,127
40384,note_on,0,0,0,,3,,,63,127
40592,note_off,208,0,0,,3,,,63,127
40592,note_off,0,0,0,,10,,,69,127
40593,note_on,1,0,0,,11,,,70,127
40593,note_on,0,0,0,,2,,,62,127
40801,note_off,208,0,0,,2,,,62,127
40801,note_off,0,0,0,,11,,,70,127
40802,note_on,1,0,0,,10,,,69,127
40802,note_on,0,0,0,,0,,,60,127
41010,note_off,208,0,0,,0,,,60,127
41010,note_off,0,0,0,,10,,,69,127
41011,note_on,1,0,0,,11,,,70,127
41011,note_on,0,0,0,,11,,,58,127
41219,note_off,208,0,0,,11,,,58,127
41219,note_off,0,0,0,,11,,,70,127
41219,note_off,0,0,0,,3,,,75,127
41220,note_on,1,0,0,,3,,,75,127
41220,note_on,0,0,0,,0,,,72,127
41220,note_on,0,0,0,,10,,,57,127
41428,note_off,208,0,0,,10,,,57,127
41428,note_off,0,0,0,,0,,,72,127
41428,note_off,0,0,0,,3,,,75,127
41429,note_on,1,0,0,,2,,,74,127
41429,note_on,0,0,0,,11,,,46,127
41637,note_off,208,0,0,,2,,,74,127
41638,note_on,1,0,0,,0,,,72,127
41846,note_off,208,0,0,,0,,,72,127
41847,note_on,1,0,0,,11,,,70,127
42055,note_off,208,0,0,,11,,,46,127
42056,note_on,1,0,0,,2,,,50,127
42056,note_on,0,0,0,,11,,,58,127
42264,note_off,208,0,0,,11,,,70,127
42265,note_on,1,0,0,,5,,,77,127
42473,note_off,208,0,0,,5,,,77,127
42474,note_on,1,0,0,,2,,,74,127
42682,note_off,208,0,0,,2,,,74,127
42682,note_off,0,0,0,,11,,,58,127
42682,note_off,0,0,0,,2,,,50,127
42683,note_on,1,0,0,,11,,,70,127
42683,note_on,0,0,0,,11,,,58,127
42683,note_on,0,0,0,,7,,,55,127
42891,note_off,208,0,0,,11,,,70,127
42892,note_on,1,0,0,,3,,,75,127
43100,note_off,208,0,0,,3,,,75,127
43101,note_on,1,0,0,,7,,,79,127
43309,note_off,208,0,0,,7,,,55,127
43309,note_off,0,0,0,,11,,,58,127
43310,note_on,1,0,0,,10,,,57,127
43310,note_on,0,0,0,,0,,,60,127
43518,note_off,208,0,0,,7,,,79,127
43519,note_on,1,0,0,,5,,,77,127
43727,note_off,208,0,0,,5,,,77,127
43728,note_on,1,0,0,,0,,,84,127
43936,note_off,208,0,0,,0,,,60,127
43936,note_off,0,0,0,,10,,,57,127
43937,note_on,1,0,0,,2,,,62,127
43937,note_on,0,0,0,,5,,,65,127
44145,note_off,208,0,0,,0,,,84,127
44146,note_on,1,0,0,,11,,,82,127
44354,note_off,208,0,0,,11,,,82,127
44355,note_on,1,0,0,,2,,,74,127
44563,note_off,208,0,0,,5,,,65,127
44563,note_off,0,0,0,,2,,,62,127
44564,note_on,1,0,0,,7,,,67,127
44564,note_on,0,0,0,,4,,,64,127
44772,note_off,208,0,0,,2,,,74,127
44773,note_on,1,0,0,,0,,,72,127
44981,note_off,208,0,0,,0,,,72,127
44982,note_on,1,0,0,,11,,,70,127
45190,note_off,208,0,0,,11,,,70,127
45190,note_off,0,0,0,,4,,,64,127
45190,note_off,0,0,0,,7,,,67,127
45191,note_on,1,0,0,,10,,,69,127
45191,note_on,0,0,0,,5,,,65,127
45399,note_off,208,0,0,,5,,,65,127
45400,note_on,1,0,0,,3,,,63,127
45608,note_off,208,0,0,,3,,,63,127
45608,note_off,0,0,0,,10,,,69,127
45609,note_on,1,0,0,,11,,,70,127
45609,note_on,0,0,0,,2,,,62,127
45817,note_off,208,0,0,,2,,,62,127
45817,note_off,0,0,0,,11,,,70,127
45818,note_on,1,0,0,,10,,,69,127
45818,note_on,0,0,0,,3,,,75,127
45818,note_on,0,0,0,,0,,,60,127
46026,note_off,208,0,0,,0,,,60,127
46026,note_off,0,0,0,,10,,,69,127
46027,note_on,1,0,0,,11,,,70,127
46027,note_on,0,0,0,,11,,,58,127
46235,note_off,208,0,0,,11,,,58,127
46235,note_off,0,0,0,,11,,,70,127
46236,note_on,1,0,0,,0,,,72,127
46236,note_on,0,0,0,,10,,,57,127
46444,note_off,208,0,0,,10,,,57,127
46444,note_off,0,0,0,,0,,,72,127
46444,note_off,0,0,0,,3,,,75,127
46445,note_on,1,0,0,,2,,,74,127
46445,note_on,0,0,0,,5,,,65,127
46445,note_on,0,0,0,,11,,,58,127
46653,note_off,208,0,0,,11,,,58,127
46653,note_off,0,0,0,,2,,,74,127
46654,note_on,1,0,0,,11,,,70,127
46654,note_on,0,0,0,,2,,,62,127
46862,note_off,208,0,0,,2,,,62,127
46862,note_off,0,0,0,,11,,,70,127
46863,note_on,1,0,0,,0,,,72,127
46863,note_on,0,0,0,,0,,,60,127
47071,note_off,208,0,0,,0,,,60,127
47071,note_off,0,0,0,,0,,,72,127
47072,note_on,1,0,0,,2,,,74,127
47072,note_on,0,0,0,,11,,,58,127
47280,note_off,208,0,0,,11,,,58,127
47281,note_on,1,0,0,,10,,,57,127
47489,note_off,208,0,0,,10,,,57,127
47489,note_off,0,0,0,,2,,,74,127
47489,note_off,0,0,0,,5,,,65,127
47490,note_on,1,0,0,,7,,,67,127
47490,note_on,0,0,0,,4,,,76,127
47490,note_on,0,0,0,,7,,,55,127
47698,note_off,208,0,0,,7,,,55,127
47698,note_off,0,0,0,,4,,,76,127
47698,note_off,0,0,0,,7,,,67,127
47699,note_on,1,0,0,,5,,,77,127
47699,note_on,0,0,0,,10,,,69,127
47699,note_on,0,0,0,,5,,,53,127
47907,note_off,208,0,0,,10,,,69,127
47908,note_on,1,0,0,,0,,,72,127
48116,note_off,208,0,0,,0,,,72,127
48117,note_on,1,0,0,,11,,,70,127
48325,note_off,208,0,0,,11,,,70,127
48325,note_off,0,0,0,,5,,,53,127
48325,note_off,0,0,0,,5,,,77,127
48326,note_on,1,0,0,,5,,,77,127
48326,note_on,0,0,0,,10,,,69,127
48326,note_on,0,0,0,,5,,,65,127
48534,note_off,208,0,0,,5,,,65,127
48534,note_off,0,0,0,,10,,,69,127
48535,note_on,1,0,0,,7,,,67,127
48535,note_on,0,0,0,,3,,,63,127
48743,note_off,208,0,0,,3,,,63,127
48743,note_off,0,0,0,,7,,,67,127
48744,note_on,1,0,0,,5,,,65,127
48744,note_on,0,0,0,,2,,,62,127
48952,note_off,208,0,0,,2,,,62,127
48952,note_off,0,0,0,,5,,,65,127
48952,note_off,0,0,0,,5,,,77,127
48953,note_on,1,0,0,,7,,,67,127
48953,note_on,0,0,0,,3,,,75,127
48953,note_on,0,0,0,,0,,,60,127
49161,note_off,208,0,0,,0,,,60,127
49161,note_off,0,0,0,,3,,,75,127
49162,note_on,1,0,0,,0,,,72,127
49162,note_on,0,0,0,,3,,,63,127
49370,note_off,208,0,0,,3,,,63,127
49370,note_off,0,0,0,,0,,,72,127
49371,note_on,1,0,0,,2,,,74,127
49371,note_on,0,0,0,,2,,,62,127
49579,note_off,208,0,0,,2,,,62,127
49579,note_off,0,0,0,,2,,,74,127
49580,note_on,1,0,0,,3,,,75,127
49580,note_on,0,0,0,,0,,,60,127
49788,note_off,208,0,0,,0,,,60,127
49789,note_on,1,0,0,,11,,,58,127
49997,note_off,208,0,0,,11,,,58,127
49997,note_off,0,0,0,,3,,,75,127
49997,note_off,0,0,0,,7,,,67,127
49998,note_on,1,0,0,,6,,,78,127
49998,note_on,0,0,0,,10,,,69,127
49998,note_on,0,0,0,,10,,,57,127
50206,note_off,208,0,0,,10,,,57,127
50206,note_off,0,0,0,,10,,,69,127
50206,note_off,0,0,0,,6,,,78,127
50207,note_on,1,0,0,,11,,,70,127
50207,note_on,0,0,0,,7,,,79,127
50207,note_on,0,0,0,,7,,,55,127
50415,note_off,208,0,0,,11,,,70,127
50416,note_on,1,0,0,,2,,,74,127
50624,note_off,208,0,0,,2,,,74,127
50625,note_on,1,0,0,,0,,,72,127
50833,note_off,208,0,0,,0,,,72,127
50833,note_off,0,0,0,,7,,,79,127
50834,note_on,1,0,0,,11,,,70,127
50834,note_on,0,0,0,,7,,,79,127
50834,note_on,0,0,0,,7,,,67,127
51042,note_off,208,0,0,,7,,,67,127
51042,note_off,0,0,0,,11,,,70,127
51042,note_off,0,0,0,,7,,,55,127
51043,note_on,1,0,0,,10,,,69,127
51043,note_on,0,0,0,,5,,,65,127
51251,note_off,208,0,0,,5,,,65,127
51251,note_off,0,0,0,,10,,,69,127
51252,note_on,1,0,0,,7,,,67,127
51252,note_on,0,0,0,,4,,,64,127
51460,note_off,208,0,0,,4,,,64,127
51460,note_off,0,0,0,,7,,,67,127
51460,note_off,0,0,0,,7,,,79,127
51461,note_on,1,0,0,,10,,,69,127
51461,note_on,0,0,0,,5,,,77,127
51461,note_on,0,0,0,,2,,,62,127
51669,note_off,208,0,0,,2,,,62,127
51669,note_off,0,0,0,,5,,,77,127
51670,note_on,1,0,0,,10,,,81,127
51670,note_on,0,0,0,,5,,,65,127
51878,note_off,208,0,0,,5,,,65,127
51878,note_off,0,0,0,,10,,,81,127
51878,note_off,0,0,0,,10,,,69,127
51879,note_on,1,0,0,,7,,,79,127
51879,note_on,0,0,0,,4,,,64,127
52087,note_off,208,0,0,,4,,,64,127
52087,note_off,0,0,0,,7,,,79,127
52088,note_on,1,0,0,,5,,,77,127
52088,note_on,0,0,0,,2,,,62,127
52296,note_off,208,0,0,,2,,,62,127
52296,note_off,0,0,0,,5,,,77,127
52297,note_on,1,0,0,,4,,,76,127
52297,note_on,0,0,0,,0,,,60,127
52505,note_off,208,0,0,,0,,,60,127
52505,note_off,0,0,0,,4,,,76,127
52506,note_on,1,0,0,,2,,,74,127
52506,note_on,0,0,0,,11,,,58,127
52714,note_off,208,0,0,,11,,,58,127
52714,note_off,0,0,0,,2,,,74,127
52715,note_on,1,0,0,,1,,,73,127
52715,note_on,0,0,0,,10,,,57,127
52924,note_on,209,0,0,,10,,,69,127
53129,note_off,205,0,0,,10,,,57,127
53132,note_off,3,0,0,,10,,,69,127
53133,note_on,1,0,0,,7,,,67,127
53341,note_off,208,0,0,,7,,,67,127
53341,note_off,0,0,0,,1,,,73,127
53342,note_on,1,0,0,,10,,,81,127
53342,note_on,0,0,0,,5,,,65,127
53551,note_on,209,0,0,,2,,,74,127
53759,note_off,208,0,0,,2,,,74,127
53760,note_on,1,0,0,,0,,,72,127
53968,note_off,208,0,0,,0,,,72,127
53969,note_on,1,0,0,,11,,,70,127
54072,note_off,103,0,0,,5,,,65,127
54178,note_off,106,0,0,,10,,,81,127
54179,note_on,1,0,0,,7,,,79,127
54179,note_on,0,0,0,,4,,,64,127
54387,note_off,208,0,0,,4,,,64,127
54388,note_on,1,0,0,,2,,,62,127
54596,note_off,208,0,0,,2,,,62,127
54596,note_off,0,0,0,,11,,,70,127
54597,note_on,1,0,0,,10,,,69,127
54597,note_on,0,0,0,,1,,,61,127
54805,note_off,208,0,0,,7,,,79,127
54806,note_on,1,0,0,,5,,,77,127
55014,note_off,208,0,0,,5,,,77,127
55015,note_on,1,0,0,,4,,,76,127
55223,note_off,208,0,0,,4,,,76,127
55223,note_off,0,0,0,,1,,,61,127
55223,note_off,0,0,0,,10,,,69,127
55224,note_on,1,0,0,,10,,,69,127
55224,note_on,0,0,0,,5,,,77,127
55224,note_on,0,0,0,,2,,,50,127
55432,note_off,208,0,0,,5,,,77,127
55433,note_on,1,0,0,,4,,,76,127
55641,note_off,208,0,0,,4,,,76,127
55642,note_on,1,0,0,,2,,,74,127
55850,note_off,208,0,0,,2,,,50,127
55851,note_on,1,0,0,,5,,,53,127
56059,note_off,208,0,0,,10,,,69,127
56060,note_on,1,0,0,,10,,,69,127
56268,note_off,208,0,0,,10,,,69,127
56268,note_off,0,0,0,,2,,,74,127
56269,note_on,1,0,0,,5,,,65,127
56477,note_off,208,0,0,,5,,,65,127
56477,note_off,0,0,0,,5,,,53,127
56478,note_on,1,0,0,,2,,,62,127
56478,note_on,0,0,0,,11,,,58,127
56686,note_off,208,0,0,,2,,,62,127
56687,note_on,1,0,0,,7,,,67,127
56895,note_off,208,0,0,,7,,,67,127
56896,note_on,1,0,0,,11,,,70,127
57104,note_off,208,0,0,,11,,,58,127
57105,note_on,1,0,0,,1,,,61,127
57313,note_off,208,0,0,,11,,,70,127
57314,note_on,1,0,0,,10,,,69,127
57522,note_off,208,0,0,,10,,,69,127
57523,note_on,1,0,0,,4,,,76,127
57731,note_off,208,0,0,,1,,,61,127
57732,note_on,1,0,0,,5,,,65,127
57940,note_off,208,0,0,,4,,,76,127
57941,note_on,1,0,0,,2,,,74,127
58149,note_off,208,0,0,,2,,,74,127
58150,note_on,1,0,0,,5,,,77,127
58358,note_off,208,0,0,,5,,,65,127
58359,note_on,1,0,0,,8,,,68,127
58567,note_off,208,0,0,,5,,,77,127
58568,note_on,1,0,0,,4,,,76,127
58776,note_off,208,0,0,,4,,,76,127
58777,note_on,1,0,0,,2,,,74,127
58985,note_off,208,0,0,,2,,,74,127
58985,note_off,0,0,0,,8,,,68,127
58986,note_on,1,0,0,,1,,,73,127
58986,note_on,0,0,0,,10,,,69,127
59194,note_off,208,0,0,,10,,,69,127
59195,note_on,1,0,0,,7,,,67,127
59403,note_off,208,0,0,,7,,,67,127
59403,note_off,0,0,0,,1,,,73,127
59404,note_on,1,0,0,,2,,,74,127
59404,note_on,0,0,0,,5,,,65,127
59612,note_off,208,0,0,,5,,,65,127
59612,note_off,0,0,0,,2,,,74,127
59613,note_on,1,0,0,,7,,,79,127
59613,note_on,0,0,0,,4,,,64,127
59821,note_off,208,0,0,,4,,,64,127
59822,note_on,1,0,0,,2,,,62,127
60030,note_off,208,0,0,,2,,,62,127
60031,note_on,1,0,0,,1,,,61,127
60239,note_off,208,0,0,,1,,,61,127
60239,note_off,0,0,0,,7,,,79,127
60240,note_on,1,0,0,,5,,,77,127
60240,note_on,0,0,0,,2,,,50,127
60447,note_off,207,0,0,,2,,,50,127
60449,note_on,2,0,0,,12,,,71,127
60449,note_on,0,0,0,,2,,,62,127
60657,note_off,208,0,0,,2,,,62,127
60657,note_off,0,0,0,,12,,,71,127
60658,note_on,1,0,0,,0,,,72,127
60658,note_on,0,0,0,,0,,,60,127
60866,note_off,208,0,0,,0,,,60,127
60866,note_off,0,0,0,,0,,,72,127
60866,note_off,0,0,0,,5,,,77,127
60867,note_on,1,0,0,,2,,,74,127
60867,note_on,0,0,0,,12,,,59,127
61075,note_off,208,0,0,,12,,,59,127
61075,note_off,0,0,0,,2,,,74,127
61076,note_on,1,0,0,,3,,,75,127
61076,note_on,0,0,0,,10,,,57,127
61284,note_off,208,0,0,,10,,,57,127
61284,note_off,0,0,0,,3,,,75,127
61285,note_on,1,0,0,,5,,,77,127
61285,note_on,0,0,0,,7,,,55,127
61493,note_off,208,0,0,,7,,,55,127
61493,note_off,0,0,0,,5,,,77,127
61494,note_on,1,0,0,,3,,,75,127
61494,note_on,0,0,0,,0,,,48,127
61701,note_off,207,0,0,,0,,,48,127
61703,note_on,2,0,0,,6,,,66,127
61703,note_on,0,0,0,,0,,,60,127
61911,note_off,208,0,0,,0,,,60,127
61911,note_off,0,0,0,,6,,,66,127
61912,note_on,1,0,0,,7,,,67,127
61912,note_on,0,0,0,,11,,,58,127
62120,note_off,208,0,0,,11,,,58,127
62120,note_off,0,0,0,,7,,,67,127
62120,note_off,0,0,0,,3,,,75,127
62121,note_on,1,0,0,,10,,,69,127
62121,note_on,0,0,0,,10,,,57,127
62329,note_off,208,0,0,,10,,,57,127
62329,note_off,0,0,0,,10,,,69,127
62330,note_on,1,0,0,,11,,,70,127
62330,note_on,0,0,0,,7,,,55,127
62538,note_off,208,0,0,,7,,,55,127
62538,note_off,0,0,0,,11,,,70,127
62539,note_on,1,0,0,,0,,,72,127
62539,note_on,0,0,0,,6,,,54,127
62747,note_off,208,0,0,,6,,,54,127
62747,note_off,0,0,0,,0,,,72,127
62748,note_on,1,0,0,,11,,,70,127
62748,note_on,0,0,0,,7,,,55,127
62956,note_off,208,0,0,,7,,,55,127
62957,note_on,1,0,0,,1,,,61,127
62957,note_on,0,0,0,,11,,,58,127
63162,note_off,205,0,0,,11,,,70,127
63165,note_off,3,0,0,,11,,,58,127
63165,note_off,0,0,0,,1,,,61,127
63166,note_on,1,0,0,,2,,,62,127
63166,note_on,0,0,0,,10,,,57,127
63374,note_off,208,0,0,,10,,,57,127
63374,note_off,0,0,0,,2,,,62,127
63375,note_on,1,0,0,,4,,,64,127
63375,note_on,0,0,0,,7,,,55,127
63583,note_off,208,0,0,,7,,,55,127
63583,note_off,0,0,0,,4,,,64,127
63584,note_on,1,0,0,,6,,,66,127
63584,note_on,0,0,0,,6,,,54,127
63792,note_off,208,0,0,,6,,,54,127
63792,note_off,0,0,0,,6,,,66,127
63793,note_on,1,0,0,,7,,,67,127
63793,note_on,0,0,0,,4,,,52,127
64001,note_off,208,0,0,,4,,,52,127
64001,note_off,0,0,0,,7,,,67,127
64002,note_on,1,0,0,,6,,,66,127
64002,note_on,0,0,0,,2,,,50,127
64211,note_on,209,0,0,,2,,,62,127
64419,note_off,208,0,0,,2,,,62,127
64420,note_on,1,0,0,,0,,,60,127
64628,note_off,208,0,0,,0,,,60,127
64628,note_off,0,0,0,,6,,,66,127
64629,note_on,1,0,0,,7,,,67,127
64629,note_on,0,0,0,,11,,,58,127
64837,note_off,208,0,0,,11,,,58,127
64837,note_off,0,0,0,,2,,,50,127
64838,note_on,1,0,0,,10,,,69,127
64838,note_on,0,0,0,,10,,,57,127
65046,note_off,208,0,0,,10,,,57,127
65046,note_off,0,0,0,,10,,,69,127
65047,note_on,1,0,0,,11,,,70,127
65047,note_on,0,0,0,,7,,,55,127
65255,note_off,208,0,0,,7,,,55,127
65255,note_off,0,0,0,,11,,,70,127
65256,note_on,1,0,0,,0,,,72,127
65256,note_on,0,0,0,,10,,,57,127
65464,note_off,208,0,0,,10,,,57,127
65464,note_off,0,0,0,,0,,,72,127
65465,note_on,1,0,0,,2,,,74,127
65465,note_on,0,0,0,,11,,,58,127
65673,note_off,208,0,0,,11,,,58,127
65673,note_off,0,0,0,,2,,,74,127
65674,note_on,1,0,0,,3,,,75,127
65674,note_on,0,0,0,,0,,,60,127
65882,note_off,208,0,0,,0,,,60,127
65882,note_off,0,0,0,,7,,,67,127
65883,note_on,1,0,0,,5,,,65,127
65883,note_on,0,0,0,,2,,,62,127
66091,note_off,208,0,0,,3,,,75,127
66092,note_on,1,0,0,,2,,,74,127
66300,note_off,208,0,0,,2,,,74,127
66301,note_on,1,0,0,,0,,,72,127
66509,note_off,208,0,0,,0,,,72,127
66509,note_off,0,0,0,,2,,,62,127
66510,note_on,1,0,0,,12,,,71,127
66510,note_on,0,0,0,,7,,,55,127
66718,note_off,208,0,0,,5,,,65,127
66719,note_on,1,0,0,,3,,,63,127
66719,note_on,0,0,0,,0,,,60,127
66927,note_off,208,0,0,,0,,,60,127
66927,note_off,0,0,0,,3,,,63,127
66928,note_on,1,0,0,,2,,,62,127
66928,note_on,0,0,0,,12,,,59,127
67136,note_off,208,0,0,,12,,,59,127
67136,note_off,0,0,0,,2,,,62,127
67136,note_off,0,0,0,,7,,,55,127
67136,note_off,0,0,0,,12,,,71,127
67137,note_on,1,0,0,,0,,,72,127
67137,note_on,0,0,0,,0,,,60,127
67137,note_on,0,0,0,,8,,,56,127
67345,note_off,208,0,0,,8,,,56,127
67346,note_on,1,0,0,,7,,,55,127
67554,note_off,208,0,0,,7,,,55,127
67554,note_off,0,0,0,,0,,,60,127
67555,note_on,1,0,0,,2,,,62,127
67555,note_on,0,0,0,,5,,,53,127
67763,note_off,208,0,0,,5,,,53,127
67763,note_off,0,0,0,,2,,,62,127
67764,note_on,1,0,0,,3,,,63,127
67764,note_on,0,0,0,,0,,,60,127
67764,note_on,0,0,0,,3,,,51,127
67972,note_off,208,0,0,,3,,,51,127
67972,note_off,0,0,0,,3,,,63,127
67972,note_off,0,0,0,,0,,,72,127
67973,note_on,1,0,0,,5,,,65,127
67973,note_on,0,0,0,,2,,,74,127
67973,note_on,0,0,0,,2,,,50,127
68181,note_off,208,0,0,,2,,,50,127
68181,note_off,0,0,0,,2,,,74,127
68181,note_off,0,0,0,,5,,,65,127
68182,note_on,1,0,0,,3,,,75,127
68182,note_on,0,0,0,,7,,,67,127
68182,note_on,0,0,0,,0,,,48,127
68390,note_off,208,0,0,,0,,,48,127
68390,note_off,0,0,0,,7,,,67,127
68390,note_off,0,0,0,,0,,,60,127
68391,note_on,1,0,0,,8,,,68,127
68391,note_on,0,0,0,,5,,,53,127
68599,note_off,208,0,0,,3,,,75,127
68600,note_on,1,0,0,,2,,,74,127
68600,note_on,0,0,0,,5,,,65,127
68808,note_off,208,0,0,,5,,,65,127
68808,note_off,0,0,0,,2,,,74,127
68809,note_on,1,0,0,,0,,,72,127
68809,note_on,0,0,0,,3,,,63,127
68848,note_off,39,0,0,,5,,,53,127
69011,note_off,163,0,0,,3,,,63,127
69018,note_off,7,0,0,,0,,,72,127
69019,note_on,1,0,0,,5,,,77,127
69019,note_on,0,0,0,,2,,,62,127
69227,note_off,208,0,0,,8,,,68,127
69228,note_on,1,0,0,,12,,,71,127
69436,note_off,208,0,0,,12,,,71,127
69436,note_off,0,0,0,,2,,,62,127
69436,note_off,0,0,0,,5,,,77,127
69437,note_on,1,0,0,,0,,,72,127
69437,note_on,0,0,0,,0,,,60,127
69645,note_off,208,0,0,,0,,,60,127
69645,note_off,0,0,0,,0,,,72,127
69646,note_on,1,0,0,,2,,,74,127
69646,note_on,0,0,0,,12,,,59,127
69854,note_off,208,0,0,,12,,,59,127
69854,note_off,0,0,0,,2,,,74,127
69855,note_on,1,0,0,,3,,,75,127
69855,note_on,0,0,0,,10,,,57,127
70063,note_off,208,0,0,,10,,,57,127
70063,note_off,0,0,0,,3,,,75,127
70064,note_on,1,0,0,,5,,,77,127
70064,note_on,0,0,0,,7,,,55,127
70272,note_off,208,0,0,,7,,,55,127
70272,note_off,0,0,0,,5,,,77,127
70273,note_on,1,0,0,,3,,,75,127
70273,note_on,0,0,0,,0,,,48,127
70481,note_off,208,0,0,,3,,,75,127
70482,note_on,1,0,0,,2,,,74,127
70690,note_off,208,0,0,,2,,,74,127
70691,note_on,1,0,0,,0,,,72,127
70899,note_off,208,0,0,,0,,,48,127
70900,note_on,1,0,0,,3,,,51,127
71108,note_off,208,0,0,,0,,,72,127
71109,note_on,1,0,0,,7,,,67,127
71317,note_off,208,0,0,,7,,,67,127
71318,note_on,1,0,0,,3,,,63,127
71526,note_off,208,0,0,,3,,,63,127
71526,note_off,0,0,0,,3,,,51,127
71527,note_on,1,0,0,,0,,,60,127
71527,note_on,0,0,0,,8,,,56,127
71735,note_off,208,0,0,,0,,,60,127
71736,note_on,1,0,0,,5,,,65,127
71944,note_off,208,0,0,,5,,,65,127
71945,note_on,1,0,0,,8,,,68,127
72153,note_off,208,0,0,,8,,,56,127
72154,note_on,1,0,0,,12,,,47,127
72362,note_off,208,0,0,,12,,,47,127
72362,note_off,0,0,0,,8,,,68,127
72363,note_on,1,0,0,,7,,,67,127
72363,note_on,0,0,0,,0,,,48,127
72571,note_off,208,0,0,,0,,,48,127
72571,note_off,0,0,0,,7,,,67,127
72572,note_on,1,0,0,,12,,,59,127
72572,note_on,0,0,0,,2,,,50,127
72780,note_off,208,0,0,,2,,,50,127
72780,note_off,0,0,0,,12,,,59,127
72781,note_on,1,0,0,,0,,,60,127
72781,note_on,0,0,0,,3,,,51,127
72989,note_off,208,0,0,,3,,,51,127
72990,note_on,1,0,0,,2,,,50,127
73198,note_off,208,0,0,,2,,,50,127
73199,note_on,1,0,0,,0,,,48,127
73408,note_on,209,0,0,,3,,,63,127
73569,note_off,161,0,0,,0,,,48,127
73617,note_on,48,0,0,,0,,,48,127
73825,note_off,208,0,0,,0,,,48,127
73826,note_on,1,0,0,,7,,,55,127
74034,note_off,208,0,0,,3,,,63,127
74035,note_on,1,0,0,,8,,,68,127
74196,note_off,161,0,0,,7,,,55,127
74244,note_on,48,0,0,,5,,,53,127
74452,note_off,208,0,0,,5,,,53,127
74453,note_on,1,0,0,,8,,,56,127
74661,note_off,208,0,0,,8,,,68,127
74661,note_off,0,0,0,,0,,,60,127
74662,note_on,1,0,0,,12,,,71,127
74662,note_on,0,0,0,,2,,,62,127
74823,note_off,161,0,0,,8,,,56,127
74871,note_on,48,0,0,,7,,,55,127
75065,note_off,194,0,0,,2,,,62,127
75079,note_off,14,0,0,,7,,,55,127
75080,note_on,1,0,0,,2,,,62,127
75288,note_off,208,0,0,,12,,,71,127
75289,note_on,1,0,0,,3,,,75,127
75289,note_on,0,0,0,,7,,,67,127
75450,note_off,161,0,0,,2,,,62,127
75498,note_on,48,0,0,,0,,,60,127
75706,note_off,208,0,0,,0,,,60,127
75707,note_on,1,0,0,,3,,,63,127
75915,note_off,208,0,0,,7,,,67,127
75915,note_off,0,0,0,,3,,,75,127
75916,note_on,1,0,0,,6,,,78,127
75916,note_on,0,0,0,,10,,,69,127
76099,note_off,183,0,0,,3,,,63,127
76125,note_on,26,0,0,,2,,,62,127
76333,note_off,208,0,0,,2,,,62,127
76334,note_on,1,0,0,,0,,,60,127
76542,note_off,208,0,0,,0,,,60,127
76542,note_off,0,0,0,,10,,,69,127
76542,note_off,0,0,0,,6,,,78,127
76543,note_on,1,0,0,,11,,,70,127
76543,note_on,0,0,0,,7,,,79,127
76543,note_on,0,0,0,,11,,,58,127
76751,note_off,208,0,0,,11,,,58,127
76751,note_off,0,0,0,,7,,,79,127
76751,note_off,0,0,0,,11,,,70,127
76752,note_on,1,0,0,,0,,,72,127
76752,note_on,0,0,0,,10,,,81,127
76752,note_on,0,0,0,,10,,,57,127
76960,note_off,208,0,0,,10,,,57,127
76960,note_off,0,0,0,,10,,,81,127
76960,note_off,0,0,0,,0,,,72,127
76961,note_on,1,0,0,,2,,,74,127
76961,note_on,0,0,0,,11,,,82,127
76961,note_on,0,0,0,,7,,,55,127
77169,note_off,208,0,0,,7,,,55,127
77169,note_off,0,0,0,,2,,,74,127
77170,note_on,1,0,0,,4,,,76,127
77170,note_on,0,0,0,,0,,,60,127
77378,note_off,208,0,0,,0,,,60,127
77378,note_off,0,0,0,,4,,,76,127
77379,note_on,1,0,0,,5,,,77,127
77379,note_on,0,0,0,,2,,,62,127
77587,note_off,208,0,0,,2,,,62,127
77587,note_off,0,0,0,,5,,,77,127
77587,note_off,0,0,0,,11,,,82,127
77588,note_on,1,0,0,,7,,,79,127
77588,note_on,0,0,0,,11,,,82,127
77588,note_on,0,0,0,,4,,,64,127
77796,note_off,208,0,0,,4,,,64,127
77796,note_off,0,0,0,,11,,,82,127
77796,note_off,0,0,0,,7,,,79,127
77797,note_on,1,0,0,,8,,,80,127
77797,note_on,0,0,0,,0,,,72,127
77797,note_on,0,0,0,,5,,,65,127
78005,note_off,208,0,0,,8,,,80,127
78006,note_on,1,0,0,,7,,,79,127
78214,note_off,208,0,0,,7,,,79,127
78215,note_on,1,0,0,,5,,,77,127
78423,note_off,208,0,0,,5,,,65,127
78423,note_off,0,0,0,,0,,,72,127
78424,note_on,1,0,0,,8,,,68,127
78632,note_off,208,0,0,,5,,,77,127
78633,note_on,1,0,0,,0,,,84,127
78841,note_off,208,0,0,,0,,,84,127
78842,note_on,1,0,0,,8,,,80,127
79050,note_off,208,0,0,,8,,,80,127
79050,note_off,0,0,0,,8,,,68,127
79051,note_on,1,0,0,,5,,,77,127
79051,note_on,0,0,0,,1,,,73,127
79259,note_off,208,0,0,,5,,,77,127
79260,note_on,1,0,0,,4,,,76,127
79468,note_off,208,0,0,,4,,,76,127
79469,note_on,1,0,0,,5,,,77,127
79677,note_off,208,0,0,,5,,,77,127
79677,note_off,0,0,0,,1,,,73,127
79678,note_on,1,0,0,,7,,,79,127
79678,note_on,0,0,0,,4,,,64,127
79887,note_on,209,0,0,,0,,,72,127
80095,note_off,208,0,0,,0,,,72,127
80096,note_on,1,0,0,,11,,,70,127
80304,note_off,208,0,0,,11,,,70,127
80304,note_off,0,0,0,,4,,,64,127
80304,note_off,0,0,0,,7,,,79,127
80305,note_on,1,0,0,,10,,,69,127
80305,note_on,0,0,0,,5,,,77,127
80305,note_on,0,0,0,,3,,,63,127
80513,note_off,208,0,0,,10,,,69,127
80514,note_on,1,0,0,,7,,,67,127
80722,note_off,208,0,0,,7,,,67,127
80723,note_on,1,0,0,,10,,,69,127
80931,note_off,208,0,0,,10,,,69,127
80931,note_off,0,0,0,,3,,,63,127
80932,note_on,1,0,0,,11,,,70,127
80932,note_on,0,0,0,,2,,,62,127
81140,note_off,208,0,0,,2,,,62,127
81140,note_off,0,0,0,,11,,,70,127
81141,note_on,1,0,0,,0,,,72,127
81141,note_on,0,0,0,,0,,,60,127
81349,note_off,208,0,0,,0,,,60,127
81349,note_off,0,0,0,,0,,,72,127
81350,note_on,1,0,0,,2,,,74,127
81350,note_on,0,0,0,,11,,,58,127
81558,note_off,208,0,0,,11,,,58,127
81558,note_off,0,0,0,,2,,,74,127
81558,note_off,0,0,0,,5,,,77,127
81559,note_on,1,0,0,,3,,,75,127
81559,note_on,0,0,0,,0,,,60,127
81768,note_on,209,0,0,,10,,,81,127
81768,note_on,0,0,0,,0,,,72,127
81976,note_off,208,0,0,,0,,,72,127
81976,note_off,0,0,0,,10,,,81,127
81977,note_on,1,0,0,,11,,,82,127
81977,note_on,0,0,0,,11,,,70,127
82185,note_off,208,0,0,,11,,,70,127
82185,note_off,0,0,0,,11,,,82,127
82185,note_off,0,0,0,,0,,,60,127
82186,note_on,1,0,0,,0,,,84,127
82186,note_on,0,0,0,,10,,,69,127
82394,note_off,208,0,0,,3,,,75,127
82395,note_on,1,0,0,,5,,,77,127
82603,note_off,208,0,0,,5,,,77,127
82604,note_on,1,0,0,,3,,,75,127
82812,note_off,208,0,0,,3,,,75,127
82812,note_off,0,0,0,,10,,,69,127
82812,note_off,0,0,0,,0,,,84,127
82813,note_on,1,0,0,,2,,,74,127
82813,note_on,0,0,0,,11,,,58,127
83022,note_on,209,0,0,,7,,,79,127
83022,note_on,0,0,0,,11,,,70,127
83230,note_off,208,0,0,,11,,,70,127
83230,note_off,0,0,0,,7,,,79,127
83231,note_on,1,0,0,,10,,,81,127
83231,note_on,0,0,0,,10,,,69,127
83439,note_off,208,0,0,,10,,,69,127
83439,note_off,0,0,0,,10,,,81,127
83439,note_off,0,0,0,,11,,,58,127
83440,note_on,1,0,0,,11,,,82,127
83440,note_on,0,0,0,,7,,,67,127
83648,note_off,208,0,0,,2,,,74,127
83649,note_on,1,0,0,,3,,,75,127
83857,note_off,208,0,0,,3,,,75,127
83858,note_on,1,0,0,,2,,,74,127
84066,note_off,208,0,0,,2,,,74,127
84066,note_off,0,0,0,,7,,,67,127
84066,note_off,0,0,0,,11,,,82,127
84067,note_on,1,0,0,,0,,,72,127
84067,note_on,0,0,0,,10,,,57,127
84276,note_on,209,0,0,,6,,,78,127
84276,note_on,0,0,0,,10,,,69,127
84484,note_off,208,0,0,,10,,,69,127
84484,note_off,0,0,0,,6,,,78,127
84485,note_on,1,0,0,,7,,,79,127
84485,note_on,0,0,0,,7,,,67,127
84693,note_off,208,0,0,,7,,,67,127
84693,note_off,0,0,0,,7,,,79,127
84693,note_off,0,0,0,,10,,,57,127
84694,note_on,1,0,0,,10,,,81,127
84694,note_on,0,0,0,,6,,,66,127
84902,note_off,208,0,0,,0,,,72,127
84903,note_on,1,0,0,,2,,,74,127
85111,note_off,208,0,0,,2,,,74,127
85112,note_on,1,0,0,,0,,,72,127
85320,note_off,208,0,0,,0,,,72,127
85320,note_off,0,0,0,,6,,,66,127
85320,note_off,0,0,0,,10,,,81,127
85321,note_on,1,0,0,,11,,,70,127
85321,note_on,0,0,0,,7,,,55,127
85530,note_on,209,0,0,,4,,,76,127
85530,note_on,0,0,0,,7,,,67,127
85738,note_off,208,0,0,,7,,,67,127
85738,note_off,0,0,0,,4,,,76,127
85739,note_on,1,0,0,,5,,,77,127
85739,note_on,0,0,0,,5,,,65,127
85947,note_off,208,0,0,,5,,,65,127
85947,note_off,0,0,0,,5,,,77,127
85947,note_off,0,0,0,,7,,,55,127
85948,note_on,1,0,0,,7,,,79,127
85948,note_on,0,0,0,,4,,,64,127
86156,note_off,208,0,0,,11,,,70,127
86157,note_on,1,0,0,,0,,,72,127
86365,note_off,208,0,0,,0,,,72,127
86366,note_on,1,0,0,,11,,,70,127
86574,note_off,208,0,0,,11,,,70,127
86574,note_off,0,0,0,,4,,,64,127
86574,note_off,0,0,0,,7,,,79,127
86575,note_on,1,0,0,,10,,,69,127
86575,note_on,0,0,0,,5,,,53,127
86784,note_on,209,0,0,,2,,,74,127
86784,note_on,0,0,0,,5,,,65,127
86992,note_off,208,0,0,,5,,,65,127
86992,note_off,0,0,0,,2,,,74,127
86993,note_on,1,0,0,,4,,,76,127
86993,note_on,0,0,0,,4,,,64,127
87201,note_off,208,0,0,,4,,,64,127
87201,note_off,0,0,0,,4,,,76,127
87201,note_off,0,0,0,,5,,,53,127
87202,note_on,1,0,0,,5,,,77,127
87202,note_on,0,0,0,,2,,,62,127
87410,note_off,208,0,0,,10,,,69,127
87411,note_on,1,0,0,,11,,,70,127
87619,note_off,208,0,0,,11,,,70,127
87620,note_on,1,0,0,,10,,,69,127
87828,note_off,208,0,0,,10,,,69,127
87828,note_off,0,0,0,,2,,,62,127
87828,note_off,0,0,0,,5,,,77,127
87829,note_on,1,0,0,,7,,,67,127
87829,note_on,0,0,0,,4,,,52,127
88038,note_on,209,0,0,,1,,,73,127
88038,note_on,0,0,0,,4,,,64,127
88246,note_off,208,0,0,,4,,,64,127
88246,note_off,0,0,0,,1,,,73,127
88247,note_on,1,0,0,,2,,,74,127
88247,note_on,0,0,0,,2,,,62,127
88455,note_off,208,0,0,,2,,,62,127
88455,note_off,0,0,0,,2,,,74,127
88455,note_off,0,0,0,,4,,,52,127
88456,note_on,1,0,0,,4,,,76,127
88456,note_on,0,0,0,,1,,,61,127
88664,note_off,208,0,0,,1,,,61,127
88664,note_off,0,0,0,,7,,,67,127
88665,note_on,1,0,0,,10,,,69,127
88665,note_on,0,0,0,,12,,,59,127
88873,note_off,208,0,0,,12,,,59,127
88873,note_off,0,0,0,,10,,,69,127
88873,note_off,0,0,0,,4,,,76,127
88874,note_on,1,0,0,,7,,,67,127
88874,note_on,0,0,0,,1,,,73,127
88874,note_on,0,0,0,,10,,,57,127
89082,note_off,208,0,0,,10,,,57,127
89082,note_off,0,0,0,,1,,,73,127
89082,note_off,0,0,0,,7,,,67,127
89083,note_on,1,0,0,,6,,,66,127
89083,note_on,0,0,0,,2,,,74,127
89083,note_on,0,0,0,,2,,,50,127
89291,note_off,208,0,0,,6,,,66,127
89292,note_on,1,0,0,,7,,,67,127
89292,note_on,0,0,0,,2,,,62,127
89500,note_off,208,0,0,,2,,,62,127
89500,note_off,0,0,0,,7,,,67,127
89501,note_on,1,0,0,,10,,,69,127
89501,note_on,0,0,0,,0,,,60,127
89709,note_off,208,0,0,,0,,,60,127
89709,note_off,0,0,0,,10,,,69,127
89709,note_off,0,0,0,,2,,,50,127
89710,note_on,1,0,0,,7,,,67,127
89710,note_on,0,0,0,,11,,,58,127
89918,note_off,208,0,0,,11,,,58,127
89918,note_off,0,0,0,,7,,,67,127
89919,note_on,1,0,0,,10,,,69,127
89919,note_on,0,0,0,,10,,,57,127
90127,note_off,208,0,0,,10,,,57,127
90127,note_off,0,0,0,,10,,,69,127
90128,note_on,1,0,0,,11,,,70,127
90128,note_on,0,0,0,,7,,,55,127
90336,note_off,208,0,0,,7,,,55,127
90336,note_off,0,0,0,,11,,,70,127
90336,note_off,0,0,0,,2,,,74,127
90337,note_on,1,0,0,,10,,,69,127
90337,note_on,0,0,0,,0,,,72,127
90337,note_on,0,0,0,,10,,,57,127
90545,note_off,208,0,0,,10,,,57,127
90545,note_off,0,0,0,,0,,,72,127
90546,note_on,1,0,0,,2,,,74,127
90546,note_on,0,0,0,,11,,,58,127
90754,note_off,208,0,0,,11,,,58,127
90754,note_off,0,0,0,,2,,,74,127
90754,note_off,0,0,0,,10,,,69,127
90755,note_on,1,0,0,,7,,,67,127
90755,note_on,0,0,0,,3,,,75,127
90755,note_on,0,0,0,,0,,,60,127
90963,note_off,208,0,0,,0,,,60,127
90963,note_off,0,0,0,,3,,,75,127
90963,note_off,0,0,0,,7,,,67,127
90964,note_on,1,0,0,,2,,,74,127
90964,note_on,0,0,0,,6,,,66,127
90964,note_on,0,0,0,,2,,,62,127
91172,note_off,208,0,0,,2,,,62,127
91172,note_off,0,0,0,,6,,,66,127
91173,note_on,1,0,0,,7,,,67,127
91173,note_on,0,0,0,,4,,,64,127
91381,note_off,208,0,0,,4,,,64,127
91381,note_off,0,0,0,,7,,,67,127
91381,note_off,0,0,0,,2,,,74,127
91382,note_on,1,0,0,,0,,,72,127
91382,note_on,0,0,0,,10,,,69,127
91382,note_on,0,0,0,,6,,,66,127
91590,note_off,208,0,0,,6,,,66,127
91590,note_off,0,0,0,,10,,,69,127
91590,note_off,0,0,0,,0,,,72,127
91591,note_on,1,0,0,,11,,,70,127
91591,note_on,0,0,0,,7,,,43,127
91799,note_off,208,0,0,,11,,,70,127
91800,note_on,1,0,0,,10,,,69,127
92008,note_off,208,0,0,,10,,,69,127
92009,note_on,1,0,0,,7,,,67,127
92217,note_off,208,0,0,,7,,,43,127
92218,note_on,1,0,0,,11,,,46,127
92401,note_off,183,0,0,,7,,,67,127
92427,note_on,26,0,0,,2,,,62,127
92635,note_off,208,0,0,,2,,,62,127
92636,note_on,1,0,0,,11,,,58,127
92844,note_off,208,0,0,,11,,,58,127
92844,note_off,0,0,0,,11,,,46,127
92845,note_on,1,0,0,,7,,,55,127
92845,note_on,0,0,0,,3,,,51,127
93053,note_off,208,0,0,,7,,,55,127
93054,note_on,1,0,0,,0,,,60,127
93262,note_off,208,0,0,,0,,,60,127
93263,note_on,1,0,0,,3,,,63,127
93471,note_off,208,0,0,,3,,,51,127
93472,note_on,1,0,0,,10,,,57,127
93472,note_on,0,0,0,,6,,,54,127
93680,note_off,208,0,0,,3,,,63,127
93681,note_on,1,0,0,,2,,,62,127
93889,note_off,208,0,0,,2,,,62,127
93890,note_on,1,0,0,,10,,,69,127
94098,note_off,208,0,0,,6,,,54,127
94098,note_off,0,0,0,,10,,,57,127
94099,note_on,1,0,0,,2,,,62,127
94099,note_on,0,0,0,,11,,,58,127
94307,note_off,208,0,0,,10,,,69,127
94308,note_on,1,0,0,,7,,,67,127
94516,note_off,208,0,0,,7,,,67,127
94517,note_on,1,0,0,,11,,,70,127
94725,note_off,208,0,0,,11,,,58,127
94725,note_off,0,0,0,,2,,,62,127
94726,note_on,1,0,0,,4,,,64,127
94726,note_on,0,0,0,,1,,,61,127
94934,note_off,208,0,0,,11,,,70,127
94935,note_on,1,0,0,,10,,,69,127
95143,note_off,208,0,0,,10,,,69,127
95144,note_on,1,0,0,,7,,,67,127
95352,note_off,208,0,0,,7,,,67,127
95352,note_off,0,0,0,,1,,,61,127
95352,note_off,0,0,0,,4,,,64,127
95353,note_on,1,0,0,,5,,,65,127
95353,note_on,0,0,0,,2,,,62,127
95562,note_on,209,0,0,,10,,,69,127
95770,note_off,208,0,0,,10,,,69,127
95771,note_on,1,0,0,,5,,,77,127
95979,note_off,208,0,0,,2,,,62,127
95979,note_off,0,0,0,,5,,,65,127
95980,note_on,1,0,0,,7,,,67,127
95980,note_on,0,0,0,,12,,,59,127
95980,note_on,0,0,0,,2,,,62,127
96188,note_off,208,0,0,,5,,,77,127
96189,note_on,1,0,0,,3,,,75,127
96397,note_off,208,0,0,,3,,,75,127
96398,note_on,1,0,0,,2,,,74,127
96606,note_off,208,0,0,,2,,,74,127
96606,note_off,0,0,0,,2,,,62,127
96606,note_off,0,0,0,,12,,,59,127
96606,note_off,0,0,0,,7,,,67,127
96607,note_on,1,0,0,,3,,,75,127
96607,note_on,0,0,0,,0,,,60,127
96816,note_on,209,0,0,,7,,,79,127
97024,note_off,208,0,0,,7,,,79,127
97025,note_on,1,0,0,,0,,,84,127
97233,note_off,208,0,0,,0,,,60,127
97233,note_off,0,0,0,,3,,,75,127
97234,note_on,1,0,0,,2,,,74,127
97234,note_on,0,0,0,,2,,,62,127
97234,note_on,0,0,0,,6,,,54,127
97442,note_off,208,0,0,,0,,,84,127
97443,note_on,1,0,0,,11,,,82,127
97651,note_off,208,0,0,,11,,,82,127
97652,note_on,1,0,0,,10,,,81,127
97860,note_off,208,0,0,,10,,,81,127
97860,note_off,0,0,0,,6,,,54,127
97860,note_off,0,0,0,,2,,,62,127
97861,note_on,1,0,0,,11,,,82,127
97861,note_on,0,0,0,,7,,,55,127
98069,note_off,208,0,0,,2,,,74,127
98070,note_on,1,0,0,,1,,,73,127
98278,note_off,208,0,0,,1,,,73,127
98279,note_on,1,0,0,,2,,,74,127
98487,note_off,208,0,0,,2,,,74,127
98487,note_off,0,0,0,,7,,,55,127
98488,note_on,1,0,0,,4,,,76,127
98488,note_on,0,0,0,,10,,,69,127
98488,note_on,0,0,0,,1,,,61,127
98696,note_off,208,0,0,,11,,,82,127
98697,note_on,1,0,0,,10,,,81,127
98905,note_off,208,0,0,,10,,,81,127
98906,note_on,1,0,0,,7,,,79,127
99114,note_off,208,0,0,,7,,,79,127
99114,note_off,0,0,0,,1,,,61,127
99114,note_off,0,0,0,,10,,,69,127
99114,note_off,0,0,0,,4,,,76,127
99115,note_on,1,0,0,,5,,,77,127
99115,note_on,0,0,0,,2,,,62,127
99324,note_on,209,0,0,,8,,,68,127
99532,note_off,208,0,0,,8,,,68,127
99533,note_on,1,0,0,,10,,,69,127
99741,note_off,208,0,0,,10,,,69,127
99741,note_off,0,0,0,,2,,,62,127
99742,note_on,1,0,0,,12,,,71,127
99742,note_on,0,0,0,,8,,,56,127
99742,note_on,0,0,0,,4,,,64,127
99950,note_off,208,0,0,,5,,,77,127
99951,note_on,1,0,0,,4,,,76,127
100159,note_off,208,0,0,,4,,,76,127
100160,note_on,1,0,0,,2,,,74,127
100368,note_off,208,0,0,,2,,,74,127
100368,note_off,0,0,0,,4,,,64,127
100368,note_off,0,0,0,,8,,,56,127
100368,note_off,0,0,0,,12,,,71,127
100369,note_on,1,0,0,,1,,,73,127
100369,note_on,0,0,0,,10,,,57,127
100578,note_on,209,0,0,,10,,,69,127
100786,note_off,208,0,0,,10,,,69,127
100787,note_on,1,0,0,,7,,,67,127
100995,note_off,208,0,0,,7,,,67,127
100995,note_off,0,0,0,,10,,,57,127
100995,note_off,0,0,0,,1,,,73,127
100996,note_on,1,0,0,,2,,,74,127
100996,note_on,0,0,0,,5,,,65,127
101204,note_off,208,0,0,,5,,,65,127
101204,note_off,0,0,0,,2,,,74,127
101205,note_on,1,0,0,,4,,,76,127
101205,note_on,0,0,0,,4,,,64,127
101413,note_off,208,0,0,,4,,,64,127
101413,note_off,0,0,0,,4,,,76,127
101414,note_on,1,0,0,,5,,,77,127
101414,note_on,0,0,0,,2,,,62,127
101622,note_off,208,0,0,,2,,,62,127
101622,note_off,0,0,0,,5,,,77,127
101623,note_on,1,0,0,,7,,,79,127
101623,note_on,0,0,0,,4,,,64,127
101831,note_off,208,0,0,,4,,,64,127
101832,note_on,1,0,0,,1,,,73,127
101832,note_on,0,0,0,,7,,,67,127
102040,note_off,208,0,0,,7,,,67,127
102040,note_off,0,0,0,,1,,,73,127
102041,note_on,1,0,0,,2,,,74,127
102041,note_on,0,0,0,,5,,,65,127
102249,note_off,208,0,0,,5,,,65,127
102249,note_off,0,0,0,,2,,,74,127
102249,note_off,0,0,0,,7,,,79,127
102250,note_on,1,0,0,,4,,,76,127
102250,note_on,0,0,0,,4,,,64,127
102458,note_off,208,0,0,,4,,,64,127
102458,note_off,0,0,0,,4,,,76,127
102459,note_on,1,0,0,,5,,,77,127
102459,note_on,0,0,0,,2,,,62,127
102667,note_off,208,0,0,,2,,,62,127
102667,note_off,0,0,0,,5,,,77,127
102668,note_on,1,0,0,,7,,,79,127
102668,note_on,0,0,0,,1,,,61,127
102876,note_off,208,0,0,,1,,,61,127
102876,note_off,0,0,0,,7,,,79,127
102877,note_on,1,0,0,,5,,,77,127
102877,note_on,0,0,0,,2,,,62,127
103085,note_off,208,0,0,,2,,,62,127
103086,note_on,1,0,0,,12,,,71,127
103086,note_on,0,0,0,,5,,,65,127
103294,note_off,208,0,0,,5,,,65,127
103294,note_off,0,0,0,,12,,,71,127
103295,note_on,1,0,0,,0,,,72,127
103295,note_on,0,0,0,,3,,,63,127
103503,note_off,208,0,0,,3,,,63,127
103503,note_off,0,0,0,,0,,,72,127
103503,note_off,0,0,0,,5,,,77,127
103504,note_on,1,0,0,,2,,,74,127
103504,note_on,0,0,0,,2,,,62,127
103712,note_off,208,0,0,,2,,,62,127
103712,note_off,0,0,0,,2,,,74,127
103713,note_on,1,0,0,,3,,,75,127
103713,note_on,0,0,0,,0,,,60,127
103921,note_off,208,0,0,,0,,,60,127
103921,note_off,0,0,0,,3,,,75,127
103922,note_on,1,0,0,,5,,,77,127
103922,note_on,0,0,0,,12,,,59,127
104130,note_off,208,0,0,,12,,,59,127
104130,note_off,0,0,0,,5,,,77,127
104131,note_on,1,0,0,,3,,,75,127
104131,note_on,0,0,0,,0,,,60,127
104339,note_off,208,0,0,,0,,,60,127
104340,note_on,1,0,0,,10,,,69,127
104340,note_on,0,0,0,,3,,,63,127
104548,note_off,208,0,0,,3,,,63,127
104548,note_off,0,0,0,,10,,,69,127
104549,note_on,1,0,0,,11,,,70,127
104549,note_on,0,0,0,,2,,,62,127
104757,note_off,208,0,0,,2,,,62,127
104757,note_off,0,0,0,,11,,,70,127
104757,note_off,0,0,0,,3,,,75,127
104758,note_on,1,0,0,,0,,,72,127
104758,note_on,0,0,0,,0,,,60,127
104966,note_off,208,0,0,,0,,,60,127
104966,note_off,0,0,0,,0,,,72,127
104967,note_on,1,0,0,,2,,,74,127
104967,note_on,0,0,0,,11,,,58,127
105175,note_off,208,0,0,,11,,,58,127
105175,note_off,0,0,0,,2,,,74,127
105176,note_on,1,0,0,,3,,,75,127
105176,note_on,0,0,0,,10,,,57,127
105384,note_off,208,0,0,,10,,,57,127
105384,note_off,0,0,0,,3,,,75,127
105385,note_on,1,0,0,,5,,,65,127
105385,note_on,0,0,0,,2,,,74,127
105385,note_on,0,0,0,,11,,,46,127
105593,note_off,208,0,0,,11,,,46,127
105594,note_on,1,0,0,,11,,,58,127
105802,note_off,208,0,0,,11,,,58,127
105803,note_on,1,0,0,,2,,,62,127
106011,note_off,208,0,0,,2,,,74,127
106011,note_off,0,0,0,,5,,,65,127
106012,note_on,1,0,0,,4,,,76,127
106012,note_on,0,0,0,,7,,,67,127
106220,note_off,208,0,0,,2,,,62,127
106221,note_on,1,0,0,,0,,,60,127
106429,note_off,208,0,0,,0,,,60,127
106430,note_on,1,0,0,,11,,,58,127
106430,note_on,0,0,0,,7,,,55,127
106638,note_off,208,0,0,,11,,,58,127
106638,note_off,0,0,0,,7,,,67,127
106638,note_off,0,0,0,,4,,,76,127
106639,note_on,1,0,0,,0,,,72,127
106639,note_on,0,0,0,,8,,,80,127
106639,note_on,0,0,0,,0,,,60,127
106847,note_off,208,0,0,,7,,,55,127
106848,note_on,1,0,0,,5,,,53,127
107056,note_off,208,0,0,,5,,,53,127
107057,note_on,1,0,0,,8,,,56,127
107265,note_off,208,0,0,,0,,,60,127
107265,note_off,0,0,0,,8,,,80,127
107265,note_off,0,0,0,,0,,,72,127
107266,note_on,1,0,0,,12,,,71,127
107266,note_on,0,0,0,,2,,,62,127
107474,note_off,208,0,0,,8,,,56,127
107475,note_on,1,0,0,,7,,,55,127
107683,note_off,208,0,0,,7,,,55,127
107684,note_on,1,0,0,,2,,,50,127
107684,note_on,0,0,0,,5,,,53,127
107892,note_off,208,0,0,,5,,,53,127
107892,note_off,0,0,0,,2,,,62,127
107892,note_off,0,0,0,,12,,,71,127
107893,note_on,1,0,0,,7,,,67,127
107893,note_on,0,0,0,,3,,,75,127
107893,note_on,0,0,0,,7,,,55,127
108101,note_off,208,0,0,,2,,,50,127
108102,note_on,1,0,0,,0,,,48,127
108310,note_off,208,0,0,,0,,,48,127
108311,note_on,1,0,0,,3,,,51,127
108519,note_off,208,0,0,,7,,,55,127
108519,note_off,0,0,0,,3,,,75,127
108519,note_off,0,0,0,,7,,,67,127
108520,note_on,1,0,0,,10,,,57,127
108520,note_on,0,0,0,,6,,,66,127
108728,note_off,208,0,0,,3,,,51,127
108729,note_on,1,0,0,,2,,,50,127
108937,note_off,208,0,0,,2,,,50,127
108938,note_on,1,0,0,,10,,,45,127
108938,note_on,0,0,0,,0,,,48,127
109146,note_off,208,0,0,,0,,,48,127
109146,note_off,0,0,0,,6,,,66,127
109146,note_off,0,0,0,,10,,,57,127
109147,note_on,1,0,0,,2,,,62,127
109147,note_on,0,0,0,,11,,,70,127
109147,note_on,0,0,0,,2,,,50,127
109355,note_off,208,0,0,,10,,,45,127
109356,note_on,1,0,0,,7,,,43,127
109564,note_off,208,0,0,,7,,,43,127
109565,note_on,1,0,0,,11,,,58,127
109773,note_off,208,0,0,,2,,,50,127
109773,note_off,0,0,0,,11,,,70,127
109773,note_off,0,0,0,,2,,,62,127
109774,note_on,1,0,0,,1,,,73,127
109774,note_on,0,0,0,,4,,,64,127
109982,note_off,208,0,0,,11,,,58,127
109983,note_on,1,0,0,,10,,,57,127
110191,note_off,208,0,0,,10,,,57,127
110192,note_on,1,0,0,,7,,,55,127
110400,note_off,208,0,0,,7,,,55,127
110400,note_off,0,0,0,,4,,,64,127
110400,note_off,0,0,0,,1,,,73,127
110401,note_on,1,0,0,,2,,,74,127
110401,note_on,0,0,0,,5,,,65,127
110401,note_on,0,0,0,,5,,,53,127
110609,note_off,208,0,0,,5,,,53,127
110609,note_off,0,0,0,,5,,,65,127
110609,note_off,0,0,0,,2,,,74,127
110610,note_on,1,0,0,,7,,,67,127
110610,note_on,0,0,0,,4,,,76,127
110610,note_on,0,0,0,,4,,,52,127
110818,note_off,208,0,0,,4,,,52,127
110818,note_off,0,0,0,,4,,,76,127
110818,note_off,0,0,0,,7,,,67,127
110819,note_on,1,0,0,,10,,,69,127
110819,note_on,0,0,0,,5,,,77,127
110819,note_on,0,0,0,,2,,,50,127
111027,note_off,208,0,0,,2,,,50,127
111028,note_on,1,0,0,,7,,,43,127
111236,note_off,208,0,0,,5,,,77,127
111236,note_off,0,0,0,,10,,,69,127
111237,note_on,1,0,0,,7,,,67,127
111237,note_on,0,0,0,,4,,,76,127
111445,note_off,208,0,0,,4,,,76,127
111445,note_off,0,0,0,,7,,,67,127
111446,note_on,1,0,0,,5,,,65,127
111446,note_on,0,0,0,,2,,,74,127
111654,note_off,208,0,0,,7,,,43,127
111655,note_on,1,0,0,,10,,,45,127
111863,note_off,208,0,0,,2,,,74,127
111863,note_off,0,0,0,,5,,,65,127
111864,note_on,1,0,0,,4,,,64,127
111864,note_on,0,0,0,,1,,,73,127
112072,note_off,208,0,0,,1,,,73,127
112072,note_off,0,0,0,,4,,,64,127
112073,note_on,1,0,0,,11,,,70,127
112073,note_on,0,0,0,,2,,,62,127
112281,note_off,208,0,0,,2,,,62,127
112281,note_off,0,0,0,,10,,,45,127
112282,note_on,1,0,0,,1,,,61,127
112282,note_on,0,0,0,,10,,,57,127
112490,note_off,208,0,0,,11,,,70,127
112491,note_on,1,0,0,,10,,,69,127
112699,note_off,208,0,0,,10,,,69,127
112700,note_on,1,0,0,,7,,,67,127
112908,note_off,208,0,0,,7,,,67,127
112908,note_off,0,0,0,,10,,,57,127
112908,note_off,0,0,0,,1,,,61,127
112909,note_on,1,0,0,,2,,,62,127
112909,note_on,0,0,0,,5,,,65,127
112909,note_on,0,0,0,,11,,,58,127
113117,note_off,208,0,0,,11,,,58,127
113118,note_on,1,0,0,,10,,,57,127
113326,note_off,208,0,0,,10,,,57,127
113326,note_off,0,0,0,,5,,,65,127
113326,note_off,0,0,0,,2,,,62,127
113327,note_on,1,0,0,,4,,,64,127
113327,note_on,0,0,0,,7,,,67,127
113327,note_on,0,0,0,,7,,,55,127
113535,note_off,208,0,0,,7,,,55,127
113535,note_off,0,0,0,,7,,,67,127
113535,note_off,0,0,0,,4,,,64,127
113536,note_on,1,0,0,,10,,,69,127
113536,note_on,0,0,0,,5,,,65,127
113536,note_on,0,0,0,,5,,,53,127
113744,note_off,208,0,0,,5,,,53,127
113745,note_on,1,0,0,,4,,,52,127
113953,note_off,208,0,0,,4,,,52,127
113953,note_off,0,0,0,,10,,,69,127
113954,note_on,1,0,0,,12,,,71,127
113954,note_on,0,0,0,,2,,,50,127
114162,note_off,208,0,0,,2,,,50,127
114162,note_off,0,0,0,,12,,,71,127
114163,note_on,1,0,0,,0,,,72,127
114163,note_on,0,0,0,,0,,,48,127
114371,note_off,208,0,0,,5,,,65,127
114372,note_on,1,0,0,,3,,,63,127
114580,note_off,208,0,0,,3,,,63,127
114581,note_on,1,0,0,,2,,,62,127
114789,note_off,208,0,0,,2,,,62,127
114789,note_off,0,0,0,,0,,,48,127
114790,note_on,1,0,0,,3,,,63,127
114790,note_on,0,0,0,,7,,,67,127
114790,note_on,0,0,0,,0,,,60,127
114998,note_off,208,0,0,,0,,,60,127
114999,note_on,1,0,0,,11,,,58,127
115207,note_off,208,0,0,,11,,,58,127
115207,note_off,0,0,0,,7,,,67,127
115207,note_off,0,0,0,,3,,,63,127
115208,note_on,1,0,0,,10,,,69,127
115208,note_on,0,0,0,,6,,,66,127
115208,note_on,0,0,0,,10,,,57,127
115416,note_off,208,0,0,,10,,,57,127
115416,note_off,0,0,0,,6,,,66,127
115416,note_off,0,0,0,,10,,,69,127
115416,note_off,0,0,0,,0,,,72,127
115417,note_on,1,0,0,,2,,,62,127
115417,note_on,0,0,0,,7,,,67,127
115417,note_on,0,0,0,,7,,,55,127
115626,note_on,209,0,0,,11,,,70,127
115834,note_off,208,0,0,,11,,,70,127
115835,note_on,1,0,0,,10,,,69,127
116043,note_off,208,0,0,,10,,,69,127
116043,note_off,0,0,0,,7,,,55,127
116043,note_off,0,0,0,,7,,,67,127
116043,note_off,0,0,0,,2,,,62,127
116044,note_on,1,0,0,,2,,,74,127
116044,note_on,0,0,0,,11,,,70,127
116044,note_on,0,0,0,,7,,,67,127
116252,note_off,208,0,0,,7,,,67,127
116253,note_on,1,0,0,,5,,,65,127
116461,note_off,208,0,0,,5,,,65,127
116461,note_off,0,0,0,,11,,,70,127
116461,note_off,0,0,0,,2,,,74,127
116462,note_on,1,0,0,,4,,,76,127
116462,note_on,0,0,0,,1,,,73,127
116462,note_on,0,0,0,,4,,,64,127
116670,note_off,208,0,0,,4,,,64,127
116670,note_off,0,0,0,,1,,,73,127
116670,note_off,0,0,0,,4,,,76,127
116671,note_on,1,0,0,,10,,,69,127
116671,note_on,0,0,0,,5,,,77,127
116671,note_on,0,0,0,,2,,,74,127
116671,note_on,0,0,0,,2,,,62,127
116879,note_off,208,0,0,,5,,,77,127
116880,note_on,1,0,0,,7,,,79,127
117088,note_off,208,0,0,,7,,,79,127
117089,note_on,1,0,0,,10,,,81,127
117297,note_off,208,0,0,,2,,,62,127
117297,note_off,0,0,0,,2,,,74,127
117297,note_off,0,0,0,,10,,,69,127
117298,note_on,1,0,0,,5,,,65,127
117506,note_off,208,0,0,,10,,,81,127
117507,note_on,1,0,0,,10,,,81,127
117715,note_off,208,0,0,,10,,,81,127
117716,note_on,1,0,0,,5,,,77,127
117924,note_off,208,0,0,,5,,,77,127
117924,note_off,0,0,0,,5,,,65,127
117925,note_on,1,0,0,,2,,,74,127
117925,note_on,0,0,0,,11,,,70,127
118133,note_off,208,0,0,,2,,,74,127
118134,note_on,1,0,0,,1,,,73,127
118342,note_off,208,0,0,,1,,,73,127
118343,note_on,1,0,0,,2,,,74,127
118551,note_off,208,0,0,,2,,,74,127
118551,note_off,0,0,0,,11,,,70,127
118552,note_on,1,0,0,,4,,,76,127
118552,note_on,0,0,0,,1,,,73,127
118760,note_off,208,0,0,,4,,,76,127
118761,note_on,1,0,0,,5,,,77,127
118969,note_off,208,0,0,,5,,,77,127
118970,note_on,1,0,0,,7,,,79,127
119178,note_off,208,0,0,,7,,,79,127
119178,note_off,0,0,0,,1,,,73,127
119179,note_on,1,0,0,,5,,,77,127
119179,note_on,0,0,0,,2,,,38,127
119387,note_off,208,0,0,,5,,,77,127
119388,note_on,1,0,0,,4,,,76,127
119596,note_off,208,0,0,,4,,,76,127
119597,note_on,1,0,0,,2,,,74,127
119805,note_off,208,0,0,,2,,,38,127
119806,note_on,1,0,0,,5,,,41,127
120014,note_off,208,0,0,,2,,,74,127
120015,note_on,1,0,0,,10,,,69,127
120223,note_off,208,0,0,,10,,,69,127
120224,note_on,1,0,0,,5,,,65,127
120432,note_off,208,0,0,,5,,,65,127
120432,note_off,0,0,0,,5,,,41,127
120433,note_on,1,0,0,,2,,,62,127
120433,note_on,0,0,0,,11,,,46,127
120641,note_off,208,0,0,,2,,,62,127
120642,note_on,1,0,0,,7,,,67,127
120850,note_off,208,0,0,,7,,,67,127
120851,note_on,1,0,0,,11,,,70,127
121059,note_off,208,0,0,,11,,,46,127
121060,note_on,1,0,0,,1,,,49,127
121268,note_off,208,0,0,,11,,,70,127
121269,note_on,1,0,0,,10,,,69,127
121477,note_off,208,0,0,,10,,,69,127
121478,note_on,1,0,0,,4,,,76,127
121686,note_off,208,0,0,,1,,,49,127
121687,note_on,1,0,0,,5,,,53,127
121895,note_off,208,0,0,,4,,,76,127
121896,note_on,1,0,0,,2,,,74,127
122104,note_off,208,0,0,,2,,,74,127
122105,note_on,1,0,0,,5,,,77,127
122313,note_off,208,0,0,,5,,,53,127
122314,note_on,1,0,0,,8,,,56,127
122522,note_off,208,0,0,,5,,,77,127
122523,note_on,1,0,0,,4,,,76,127
122731,note_off,208,0,0,,4,,,76,127
122732,note_on,1,0,0,,2,,,74,127
122940,note_off,208,0,0,,8,,,56,127
122941,note_on,1,0,0,,10,,,57,127
123149,note_off,208,0,0,,2,,,74,127
123150,note_on,1,0,0,,0,,,72,127
123358,note_off,208,0,0,,0,,,72,127
123359,note_on,1,0,0,,0,,,84,127
123359,note_on,0,0,0,,3,,,75,127
123567,note_off,208,0,0,,10,,,57,127
123568,note_on,1,0,0,,6,,,54,127
123776,note_off,208,0,0,,3,,,75,127
123776,note_off,0,0,0,,0,,,84,127
123777,note_on,1,0,0,,11,,,82,127
123777,note_on,0,0,0,,2,,,74,127
123985,note_off,208,0,0,,2,,,74,127
123985,note_off,0,0,0,,11,,,82,127
123986,note_on,1,0,0,,10,,,81,127
123986,note_on,0,0,0,,0,,,72,127
124194,note_off,208,0,0,,6,,,54,127
124195,note_on,1,0,0,,7,,,55,127
124403,note_off,208,0,0,,0,,,72,127
124403,note_off,0,0,0,,10,,,81,127
124404,note_on,1,0,0,,10,,,69,127
124404,note_on,0,0,0,,6,,,78,127
124612,note_off,208,0,0,,6,,,78,127
124612,note_off,0,0,0,,10,,,69,127
124613,note_on,1,0,0,,11,,,70,127
124613,note_on,0,0,0,,7,,,79,127
124821,note_off,208,0,0,,7,,,55,127
124822,note_on,1,0,0,,1,,,49,127
125030,note_off,208,0,0,,7,,,79,127
125030,note_off,0,0,0,,11,,,70,127
125031,note_on,1,0,0,,5,,,77,127
125031,note_on,0,0,0,,10,,,69,127
125239,note_off,208,0,0,,10,,,69,127
125239,note_off,0,0,0,,5,,,77,127
125240,note_on,1,0,0,,4,,,76,127
125240,note_on,0,0,0,,7,,,67,127
125448,note_off,208,0,0,,1,,,49,127
125449,note_on,1,0,0,,2,,,50,127
125657,note_off,208,0,0,,7,,,67,127
125657,note_off,0,0,0,,4,,,76,127
125658,note_on,1,0,0,,5,,,65,127
125658,note_on,0,0,0,,2,,,74,127
125866,note_off,208,0,0,,2,,,74,127
125866,note_off,0,0,0,,5,,,65,127
125867,note_on,1,0,0,,5,,,77,127
125867,note_on,0,0,0,,10,,,69,127
126075,note_off,208,0,0,,2,,,50,127
126076,note_on,1,0,0,,12,,,47,127
126284,note_off,208,0,0,,10,,,69,127
126284,note_off,0,0,0,,5,,,77,127
126285,note_on,1,0,0,,7,,,67,127
126285,note_on,0,0,0,,3,,,75,127
126493,note_off,208,0,0,,3,,,75,127
126493,note_off,0,0,0,,7,,,67,127
126494,note_on,1,0,0,,5,,,65,127
126494,note_on,0,0,0,,2,,,74,127
126702,note_off,208,0,0,,12,,,47,127
126703,note_on,1,0,0,,0,,,48,127
126911,note_off,208,0,0,,2,,,74,127
126911,note_off,0,0,0,,5,,,65,127
126912,note_on,1,0,0,,12,,,71,127
126912,note_on,0,0,0,,2,,,62,127
127120,note_off,208,0,0,,2,,,62,127
127120,note_off,0,0,0,,12,,,71,127
127121,note_on,1,0,0,,3,,,63,127
127121,note_on,0,0,0,,0,,,72,127
127329,note_off,208,0,0,,0,,,48,127
127330,note_on,1,0,0,,6,,,42,127
127538,note_off,208,0,0,,0,,,72,127
127538,note_off,0,0,0,,3,,,63,127
127539,note_on,1,0,0,,11,,,70,127
127539,note_on,0,0,0,,2,,,62,127
127747,note_off,208,0,0,,2,,,62,127
127747,note_off,0,0,0,,11,,,70,127
127748,note_on,1,0,0,,10,,,69,127
127748,note_on,0,0,0,,0,,,60,127
127956,note_off,208,0,0,,6,,,42,127
127957,note_on,1,0,0,,7,,,43,127
128165,note_off,208,0,0,,0,,,60,127
128165,note_off,0,0,0,,10,,,69,127
128166,note_on,1,0,0,,10,,,57,127
128166,note_on,0,0,0,,6,,,66,127
128374,note_off,208,0,0,,6,,,66,127
128374,note_off,0,0,0,,10,,,57,127
128375,note_on,1,0,0,,7,,,67,127
128375,note_on,0,0,0,,11,,,58,127
128583,note_off,208,0,0,,7,,,43,127
128584,note_on,1,0,0,,1,,,49,127
128792,note_off,208,0,0,,11,,,58,127
128792,note_off,0,0,0,,7,,,67,127
128793,note_on,1,0,0,,6,,,66,127
128793,note_on,0,0,0,,10,,,69,127
129001,note_off,208,0,0,,10,,,69,127
129001,note_off,0,0,0,,6,,,66,127
129002,note_on,1,0,0,,7,,,67,127
129002,note_on,0,0,0,,11,,,70,127
129210,note_off,208,0,0,,1,,,49,127
129211,note_on,1,0,0,,2,,,50,127
129419,note_off,208,0,0,,11,,,70,127
129419,note_off,0,0,0,,7,,,67,127
129420,note_on,1,0,0,,10,,,69,127
129420,note_on,0,0,0,,6,,,66,127
129420,note_on,0,0,0,,2,,,62,127
129628,note_off,208,0,0,,2,,,62,127
129628,note_off,0,0,0,,10,,,69,127
129629,note_on,1,0,0,,3,,,75,127
129629,note_on,0,0,0,,0,,,60,127
129837,note_off,208,0,0,,0,,,60,127
129837,note_off,0,0,0,,3,,,75,127
129837,note_off,0,0,0,,6,,,66,127
129837,note_off,0,0,0,,2,,,50,127
129838,note_on,1,0,0,,2,,,74,127
129838,note_on,0,0,0,,7,,,67,127
129838,note_on,0,0,0,,11,,,58,127
130046,note_off,208,0,0,,11,,,58,127
130046,note_off,0,0,0,,7,,,67,127
130047,note_on,1,0,0,,10,,,69,127
130047,note_on,0,0,0,,10,,,57,127
130255,note_off,208,0,0,,10,,,57,127
130255,note_off,0,0,0,,10,,,69,127
130255,note_off,0,0,0,,2,,,74,127
130256,note_on,1,0,0,,7,,,79,127
130256,note_on,0,0,0,,11,,,70,127
130256,note_on,0,0,0,,7,,,55,127
130464,note_off,208,0,0,,7,,,55,127
130464,note_off,0,0,0,,11,,,70,127
130465,note_on,1,0,0,,0,,,72,127
130465,note_on,0,0,0,,0,,,60,127
130465,note_on,0,0,0,,10,,,57,127
130673,note_off,208,0,0,,0,,,72,127
130673,note_off,0,0,0,,7,,,79,127
130674,note_on,1,0,0,,5,,,77,127
130882,note_off,208,0,0,,5,,,77,127
130883,note_on,1,0,0,,3,,,75,127
130883,note_on,0,0,0,,0,,,84,127
131091,note_off,208,0,0,,10,,,57,127
131091,note_off,0,0,0,,0,,,60,127
131092,note_on,1,0,0,,11,,,58,127
131092,note_on,0,0,0,,2,,,62,127
131300,note_off,208,0,0,,0,,,84,127
131300,note_off,0,0,0,,3,,,75,127
131301,note_on,1,0,0,,2,,,74,127
131301,note_on,0,0,0,,11,,,82,127
131509,note_off,208,0,0,,11,,,82,127
131509,note_off,0,0,0,,2,,,74,127
131509,note_off,0,0,0,,2,,,62,127
131509,note_off,0,0,0,,11,,,58,127
131510,note_on,1,0,0,,10,,,81,127
131510,note_on,0,0,0,,0,,,72,127
131510,note_on,0,0,0,,3,,,63,127
131510,note_on,0,0,0,,0,,,60,127
131718,note_off,208,0,0,,0,,,60,127
131718,note_off,0,0,0,,3,,,63,127
131718,note_off,0,0,0,,0,,,72,127
131718,note_off,0,0,0,,10,,,81,127
131719,note_on,1,0,0,,11,,,82,127
131719,note_on,0,0,0,,11,,,70,127
131719,note_on,0,0,0,,5,,,65,127
131719,note_on,0,0,0,,2,,,62,127
131927,note_off,208,0,0,,11,,,82,127
131928,note_on,1,0,0,,10,,,81,127
132136,note_off,208,0,0,,10,,,81,127
132136,note_off,0,0,0,,2,,,62,127
132136,note_off,0,0,0,,5,,,65,127
132136,note_off,0,0,0,,11,,,70,127
132137,note_on,1,0,0,,7,,,79,127
132137,note_on,0,0,0,,7,,,67,127
132137,note_on,0,0,0,,3,,,63,127
132345,note_off,208,0,0,,3,,,63,127
132345,note_off,0,0,0,,7,,,67,127
132346,note_on,1,0,0,,5,,,65,127
132346,note_on,0,0,0,,10,,,69,127
132554,note_off,208,0,0,,7,,,79,127
132555,note_on,1,0,0,,5,,,77,127
132763,note_off,208,0,0,,5,,,77,127
132764,note_on,1,0,0,,3,,,75,127
132764,note_on,0,0,0,,0,,,72,127
132972,note_off,208,0,0,,3,,,75,127
132972,note_off,0,0,0,,10,,,69,127
132972,note_off,0,0,0,,5,,,65,127
132973,note_on,1,0,0,,2,,,74,127
132973,note_on,0,0,0,,11,,,58,127
133181,note_off,208,0,0,,0,,,72,127
133182,note_on,1,0,0,,11,,,70,127
133390,note_off,208,0,0,,11,,,58,127
133390,note_off,0,0,0,,2,,,74,127
133391,note_on,1,0,0,,4,,,76,127
133391,note_on,0,0,0,,0,,,60,127
133599,note_off,208,0,0,,0,,,60,127
133599,note_off,0,0,0,,4,,,76,127
133600,note_on,1,0,0,,5,,,77,127
133600,note_on,0,0,0,,1,,,61,127
133808,note_off,208,0,0,,1,,,61,127
133808,note_off,0,0,0,,11,,,70,127
133809,note_on,1,0,0,,8,,,68,127
133809,note_on,0,0,0,,0,,,60,127
134017,note_off,208,0,0,,0,,,60,127
134017,note_off,0,0,0,,8,,,68,127
134018,note_on,1,0,0,,7,,,67,127
134018,note_on,0,0,0,,11,,,58,127
134226,note_off,208,0,0,,11,,,58,127
134226,note_off,0,0,0,,7,,,67,127
134227,note_on,1,0,0,,8,,,68,127
134227,note_on,0,0,0,,8,,,56,127
134227,note_on,0,0,0,,0,,,60,127
134435,note_off,208,0,0,,8,,,56,127
134435,note_off,0,0,0,,8,,,68,127
134435,note_off,0,0,0,,5,,,77,127
134436,note_on,1,0,0,,11,,,70,127
134436,note_on,0,0,0,,7,,,79,127
134436,note_on,0,0,0,,7,,,55,127
134644,note_off,208,0,0,,7,,,55,127
134644,note_off,0,0,0,,7,,,79,127
134644,note_off,0,0,0,,11,,,70,127
134645,note_on,1,0,0,,8,,,80,127
134645,note_on,0,0,0,,0,,,72,127
134645,note_on,0,0,0,,5,,,53,127
134853,note_off,208,0,0,,5,,,53,127
134853,note_off,0,0,0,,0,,,60,127
134854,note_on,1,0,0,,11,,,58,127
134854,note_on,0,0,0,,1,,,61,127
135062,note_off,208,0,0,,0,,,72,127
135062,note_off,0,0,0,,8,,,80,127
135063,note_on,1,0,0,,11,,,70,127
135063,note_on,0,0,0,,7,,,79,127
135271,note_off,208,0,0,,7,,,79,127
135271,note_off,0,0,0,,11,,,70,127
135272,note_on,1,0,0,,8,,,68,127
135272,note_on,0,0,0,,5,,,77,127
135480,note_off,208,0,0,,1,,,61,127
135480,note_off,0,0,0,,11,,,58,127
135481,note_on,1,0,0,,0,,,60,127
135689,note_off,208,0,0,,5,,,77,127
135689,note_off,0,0,0,,8,,,68,127
135690,note_on,1,0,0,,7,,,67,127
135690,note_on,0,0,0,,4,,,76,127
135898,note_off,208,0,0,,4,,,76,127
135898,note_off,0,0,0,,7,,,67,127
135899,note_on,1,0,0,,5,,,65,127
135899,note_on,0,0,0,,1,,,73,127
136107,note_off,208,0,0,,0,,,60,127
136108,note_on,1,0,0,,4,,,52,127
136316,note_off,208,0,0,,1,,,73,127
136316,note_off,0,0,0,,5,,,65,127
136317,note_on,1,0,0,,0,,,72,127
136317,note_on,0,0,0,,4,,,64,127
136525,note_off,208,0,0,,4,,,64,127
136525,note_off,0,0,0,,0,,,72,127
136526,note_on,1,0,0,,11,,,70,127
136526,note_on,0,0,0,,1,,,61,127
136734,note_off,208,0,0,,1,,,61,127
136734,note_off,0,0,0,,4,,,52,127
136735,note_on,1,0,0,,0,,,60,127
136735,note_on,0,0,0,,5,,,53,127
136943,note_off,208,0,0,,0,,,60,127
136943,note_off,0,0,0,,11,,,70,127
136944,note_on,1,0,0,,5,,,65,127
136944,note_on,0,0,0,,8,,,68,127
137152,note_off,208,0,0,,8,,,68,127
137152,note_off,0,0,0,,5,,,53,127
137153,note_on,1,0,0,,11,,,70,127
137153,note_on,0,0,0,,7,,,55,127
137361,note_off,208,0,0,,7,,,55,127
137361,note_off,0,0,0,,11,,,70,127
137362,note_on,1,0,0,,0,,,72,127
137362,note_on,0,0,0,,8,,,56,127
137570,note_off,208,0,0,,5,,,65,127
137571,note_on,1,0,0,,3,,,63,127
137779,note_off,208,0,0,,3,,,63,127
137779,note_off,0,0,0,,8,,,56,127
137780,note_on,1,0,0,,0,,,60,127
137780,note_on,0,0,0,,10,,,57,127
137988,note_off,208,0,0,,10,,,57,127
137988,note_off,0,0,0,,0,,,60,127
137989,note_on,1,0,0,,1,,,61,127
137989,note_on,0,0,0,,11,,,58,127
138197,note_off,208,0,0,,0,,,72,127
138198,note_on,1,0,0,,11,,,70,127
138406,note_off,208,0,0,,11,,,70,127
138406,note_off,0,0,0,,1,,,61,127
138407,note_on,1,0,0,,5,,,77,127
138407,note_on,0,0,0,,8,,,68,127
138615,note_off,208,0,0,,8,,,68,127
138615,note_off,0,0,0,,11,,,58,127
138616,note_on,1,0,0,,7,,,67,127
138616,note_on,0,0,0,,3,,,51,127
138616,note_on,0,0,0,,11,,,58,127
138824,note_off,208,0,0,,5,,,77,127
138825,note_on,1,0,0,,3,,,75,127
139033,note_off,208,0,0,,3,,,75,127
139033,note_off,0,0,0,,7,,,67,127
139034,note_on,1,0,0,,11,,,82,127
139034,note_on,0,0,0,,1,,,73,127
139242,note_off,208,0,0,,11,,,58,127
139242,note_off,0,0,0,,3,,,51,127
139243,note_on,1,0,0,,8,,,44,127
139243,note_on,0,0,0,,8,,,56,127
139451,note_off,208,0,0,,1,,,73,127
139451,note_off,0,0,0,,11,,,82,127
139452,note_on,1,0,0,,0,,,72,127
139452,note_on,0,0,0,,8,,,80,127
139660,note_off,208,0,0,,8,,,80,127
139660,note_off,0,0,0,,0,,,72,127
139661,note_on,1,0,0,,7,,,79,127
139661,note_on,0,0,0,,11,,,70,127
139869,note_off,208,0,0,,8,,,56,127
139869,note_off,0,0,0,,8,,,44,127
139870,note_on,1,0,0,,0,,,60,127
139870,note_on,0,0,0,,8,,,56,127
140078,note_off,208,0,0,,11,,,70,127
140078,note_off,0,0,0,,7,,,79,127
140079,note_on,1,0,0,,8,,,68,127
140079,note_on,0,0,0,,5,,,77,127
140287,note_off,208,0,0,,5,,,77,127
140287,note_off,0,0,0,,8,,,68,127
140288,note_on,1,0,0,,7,,,67,127
140288,note_on,0,0,0,,3,,,75,127
140496,note_off,208,0,0,,3,,,75,127
140496,note_off,0,0,0,,7,,,67,127
140496,note_off,0,0,0,,8,,,56,127
140496,note_off,0,0,0,,0,,,60,127
140497,note_on,1,0,0,,5,,,65,127
140497,note_on,0,0,0,,2,,,74,127
140497,note_on,0,0,0,,11,,,58,127
140705,note_off,208,0,0,,11,,,58,127
140705,note_off,0,0,0,,2,,,74,127
140706,note_on,1,0,0,,11,,,70,127
140706,note_on,0,0,0,,2,,,62,127
140914,note_off,208,0,0,,2,,,62,127
140914,note_off,0,0,0,,11,,,70,127
140915,note_on,1,0,0,,0,,,72,127
140915,note_on,0,0,0,,0,,,60,127
141123,note_off,208,0,0,,0,,,60,127
141123,note_off,0,0,0,,0,,,72,127
141124,note_on,1,0,0,,2,,,74,127
141124,note_on,0,0,0,,11,,,58,127
141332,note_off,208,0,0,,11,,,58,127
141333,note_on,1,0,0,,8,,,56,127
141541,note_off,208,0,0,,8,,,56,127
141541,note_off,0,0,0,,2,,,74,127
141541,note_off,0,0,0,,5,,,65,127
141542,note_on,1,0,0,,4,,,76,127
141542,note_on,0,0,0,,7,,,67,127
141542,note_on,0,0,0,,7,,,55,127
141750,note_off,208,0,0,,7,,,55,127
141750,note_off,0,0,0,,7,,,67,127
141750,note_off,0,0,0,,4,,,76,127
141751,note_on,1,0,0,,5,,,77,127
141751,note_on,0,0,0,,8,,,68,127
141751,note_on,0,0,0,,5,,,53,127
141959,note_off,208,0,0,,8,,,68,127
141960,note_on,1,0,0,,0,,,72,127
142168,note_off,208,0,0,,0,,,72,127
142169,note_on,1,0,0,,11,,,70,127
142377,note_off,208,0,0,,11,,,70,127
142378,note_on,1,0,0,,8,,,68,127
142378,note_on,0,0,0,,5,,,65,127
142586,note_off,208,0,0,,5,,,65,127
142586,note_off,0,0,0,,8,,,68,127
142586,note_off,0,0,0,,5,,,53,127
142587,note_on,1,0,0,,7,,,67,127
142587,note_on,0,0,0,,3,,,63,127
142795,note_off,208,0,0,,3,,,63,127
142795,note_off,0,0,0,,7,,,67,127
142796,note_on,1,0,0,,5,,,65,127
142796,note_on,0,0,0,,12,,,71,127
142796,note_on,0,0,0,,2,,,62,127
143004,note_off,208,0,0,,2,,,62,127
143004,note_off,0,0,0,,12,,,71,127
143004,note_off,0,0,0,,5,,,65,127
143004,note_off,0,0,0,,5,,,77,127
143005,note_on,1,0,0,,0,,,72,127
143005,note_on,0,0,0,,7,,,67,127
143005,note_on,0,0,0,,3,,,75,127
143005,note_on,0,0,0,,0,,,60,127
143213,note_off,208,0,0,,0,,,60,127
143213,note_off,0,0,0,,3,,,75,127
143214,note_on,1,0,0,,7,,,79,127
143214,note_on,0,0,0,,3,,,63,127
143422,note_off,208,0,0,,3,,,63,127
143422,note_off,0,0,0,,7,,,79,127
143423,note_on,1,0,0,,5,,,77,127
143423,note_on,0,0,0,,2,,,62,127
143631,note_off,208,0,0,,2,,,62,127
143631,note_off,0,0,0,,5,,,77,127
143631,note_off,0,0,0,,0,,,72,127
143632,note_on,1,0,0,,7,,,79,127
143632,note_on,0,0,0,,3,,,75,127
143632,note_on,0,0,0,,0,,,60,127
143840,note_off,208,0,0,,0,,,60,127
143840,note_off,0,0,0,,3,,,75,127
143841,note_on,1,0,0,,2,,,74,127
143841,note_on,0,0,0,,11,,,58,127
144049,note_off,208,0,0,,11,,,58,127
144049,note_off,0,0,0,,2,,,74,127
144049,note_off,0,0,0,,7,,,79,127
144049,note_off,0,0,0,,7,,,67,127
144050,note_on,1,0,0,,0,,,72,127
144050,note_on,0,0,0,,6,,,78,127
144050,note_on,0,0,0,,10,,,69,127
144050,note_on,0,0,0,,10,,,57,127
144050,note_on,0,0,0,,0,,,60,127
144258,note_off,208,0,0,,0,,,60,127
144258,note_off,0,0,0,,10,,,57,127
144258,note_off,0,0,0,,10,,,69,127
144258,note_off,0,0,0,,6,,,78,127
144258,note_off,0,0,0,,0,,,72,127
144259,note_on,1,0,0,,7,,,79,127
144259,note_on,0,0,0,,11,,,70,127
144259,note_on,0,0,0,,7,,,55,127
144259,note_on,0,0,0,,2,,,62,127
144467,note_off,208,0,0,,11,,,70,127
144467,note_off,0,0,0,,7,,,79,127
144468,note_on,1,0,0,,11,,,82,127
144468,note_on,0,0,0,,2,,,74,127
144676,note_off,208,0,0,,2,,,74,127
144676,note_off,0,0,0,,11,,,82,127
144677,note_on,1,0,0,,10,,,81,127
144677,note_on,0,0,0,,0,,,72,127
144885,note_off,208,0,0,,0,,,72,127
144885,note_off,0,0,0,,10,,,81,127
144886,note_on,1,0,0,,11,,,70,127
144886,note_on,0,0,0,,7,,,79,127
145094,note_off,208,0,0,,7,,,79,127
145094,note_off,0,0,0,,11,,,70,127
145094,note_off,0,0,0,,2,,,62,127
145094,note_off,0,0,0,,7,,,55,127
145095,note_on,1,0,0,,5,,,77,127
145095,note_on,0,0,0,,10,,,69,127
145303,note_off,208,0,0,,10,,,69,127
145303,note_off,0,0,0,,5,,,77,127
145304,note_on,1,0,0,,3,,,75,127
145304,note_on,0,0,0,,7,,,67,127
145304,note_on,0,0,0,,0,,,48,127
145304,note_on,0,0,0,,0,,,60,127
145512,note_off,208,0,0,,0,,,60,127
145512,note_off,0,0,0,,0,,,48,127
145512,note_off,0,0,0,,7,,,67,127
145512,note_off,0,0,0,,3,,,75,127
145513,note_on,1,0,0,,2,,,74,127
145513,note_on,0,0,0,,6,,,66,127
145513,note_on,0,0,0,,2,,,50,127
145722,note_on,209,0,0,,2,,,62,127
145930,note_off,208,0,0,,2,,,62,127
145931,note_on,1,0,0,,0,,,60,127
146139,note_off,208,0,0,,0,,,60,127
146139,note_off,0,0,0,,2,,,50,127
146139,note_off,0,0,0,,6,,,66,127
146140,note_on,1,0,0,,7,,,67,127
146140,note_on,0,0,0,,11,,,58,127
146348,note_off,208,0,0,,11,,,58,127
146348,note_off,0,0,0,,7,,,67,127
146349,note_on,1,0,0,,10,,,69,127
146349,note_on,0,0,0,,10,,,57,127
146557,note_off,208,0,0,,10,,,57,127
146557,note_off,0,0,0,,10,,,69,127
146558,note_on,1,0,0,,11,,,70,127
146558,note_on,0,0,0,,7,,,55,127
146766,note_off,208,0,0,,7,,,55,127
146766,note_off,0,0,0,,11,,,70,127
146766,note_off,0,0,0,,2,,,74,127
146767,note_on,1,0,0,,0,,,72,127
146767,note_on,0,0,0,,10,,,69,127
146767,note_on,0,0,0,,10,,,57,127
146975,note_off,208,0,0,,10,,,57,127
146975,note_off,0,0,0,,0,,,72,127
146976,note_on,1,0,0,,2,,,74,127
146976,note_on,0,0,0,,11,,,58,127
147184,note_off,208,0,0,,11,,,58,127
147184,note_off,0,0,0,,2,,,74,127
147184,note_off,0,0,0,,10,,,69,127
147185,note_on,1,0,0,,3,,,75,127
147185,note_on,0,0,0,,7,,,67,127
147185,note_on,0,0,0,,0,,,60,127
147393,note_off,208,0,0,,0,,,60,127
147393,note_off,0,0,0,,7,,,67,127
147394,note_on,1,0,0,,6,,,66,127
147394,note_on,0,0,0,,2,,,62,127
147602,note_off,208,0,0,,2,,,62,127
147602,note_off,0,0,0,,6,,,66,127
147602,note_off,0,0,0,,3,,,75,127
147603,note_on,1,0,0,,7,,,67,127
147603,note_on,0,0,0,,2,,,74,127
147603,note_on,0,0,0,,4,,,64,127
147811,note_off,208,0,0,,4,,,64,127
147811,note_off,0,0,0,,2,,,74,127
147811,note_off,0,0,0,,7,,,67,127
147812,note_on,1,0,0,,10,,,69,127
147812,note_on,0,0,0,,0,,,72,127
147812,note_on,0,0,0,,6,,,66,127
148020,note_off,208,0,0,,6,,,66,127
148020,note_off,0,0,0,,0,,,72,127
148020,note_off,0,0,0,,10,,,69,127
148021,note_on,1,0,0,,11,,,70,127
148021,note_on,0,0,0,,7,,,67,127
148021,note_on,0,0,0,,7,,,43,127
148229,note_off,208,0,0,,11,,,70,127
148230,note_on,1,0,0,,10,,,69,127
148438,note_off,208,0,0,,10,,,69,127
148438,note_off,0,0,0,,7,,,67,127
148439,note_on,1,0,0,,7,,,67,127
148647,note_off,208,0,0,,7,,,43,127
148648,note_on,1,0,0,,7,,,55,127
148648,note_on,0,0,0,,11,,,46,127
148856,note_off,208,0,0,,7,,,67,127
148857,note_on,1,0,0,,2,,,62,127
149065,note_off,208,0,0,,2,,,62,127
149066,note_on,1,0,0,,11,,,58,127
149274,note_off,208,0,0,,11,,,58,127
149274,note_off,0,0,0,,11,,,46,127
149274,note_off,0,0,0,,7,,,55,127
149275,note_on,1,0,0,,7,,,55,127
149275,note_on,0,0,0,,3,,,51,127
149483,note_off,208,0,0,,7,,,55,127
149484,note_on,1,0,0,,0,,,60,127
149692,note_off,208,0,0,,0,,,60,127
149693,note_on,1,0,0,,3,,,63,127
149901,note_off,208,0,0,,3,,,51,127
149902,note_on,1,0,0,,6,,,54,127
150110,note_off,208,0,0,,3,,,63,127
150111,note_on,1,0,0,,2,,,62,127
150319,note_off,208,0,0,,2,,,62,127
150320,note_on,1,0,0,,3,,,63,127
150320,note_on,0,0,0,,0,,,72,127
150528,note_off,208,0,0,,0,,,72,127
150528,note_off,0,0,0,,3,,,63,127
150528,note_off,0,0,0,,6,,,54,127
150529,note_on,1,0,0,,11,,,70,127
150529,note_on,0,0,0,,2,,,62,127
150529,note_on,0,0,0,,7,,,55,127
150737,note_off,208,0,0,,2,,,62,127
150737,note_off,0,0,0,,11,,,70,127
150738,note_on,1,0,0,,10,,,69,127
150738,note_on,0,0,0,,0,,,60,127
150946,note_off,208,0,0,,0,,,60,127
150946,note_off,0,0,0,,10,,,69,127
150947,note_on,1,0,0,,7,,,67,127
150947,note_on,0,0,0,,11,,,58,127
151155,note_off,208,0,0,,11,,,58,127
151155,note_off,0,0,0,,7,,,55,127
151156,note_on,1,0,0,,11,,,58,127
151156,note_on,0,0,0,,2,,,62,127
151364,note_off,208,0,0,,7,,,67,127
151365,note_on,1,0,0,,2,,,74,127
151573,note_off,208,0,0,,2,,,74,127
151574,note_on,1,0,0,,11,,,70,127
151782,note_off,208,0,0,,11,,,70,127
151782,note_off,0,0,0,,2,,,62,127
151782,note_off,0,0,0,,11,,,58,127
151783,note_on,1,0,0,,7,,,67,127
151783,note_on,0,0,0,,4,,,64,127
151991,note_off,208,0,0,,7,,,67,127
151992,note_on,1,0,0,,7,,,79,127
152200,note_off,208,0,0,,7,,,79,127
152201,note_on,1,0,0,,2,,,74,127
152409,note_off,208,0,0,,2,,,74,127
152410,note_on,1,0,0,,1,,,73,127
152410,note_on,0,0,0,,10,,,57,127
152618,note_off,208,0,0,,1,,,73,127
152619,note_on,1,0,0,,4,,,76,127
152827,note_off,208,0,0,,4,,,76,127
152828,note_on,1,0,0,,7,,,79,127
153036,note_off,208,0,0,,7,,,79,127
153036,note_off,0,0,0,,10,,,57,127
153036,note_off,0,0,0,,4,,,64,127
153037,note_on,1,0,0,,5,,,77,127
153037,note_on,0,0,0,,10,,,69,127
153037,note_on,0,0,0,,2,,,50,127
153037,note_on,0,0,0,,2,,,62,127
153245,note_off,208,0,0,,10,,,69,127
153245,note_off,0,0,0,,5,,,77,127
153246,note_on,1,0,0,,4,,,76,127
153246,note_on,0,0,0,,7,,,67,127
153454,note_off,208,0,0,,7,,,67,127
153454,note_off,0,0,0,,4,,,76,127
153455,note_on,1,0,0,,5,,,65,127
153455,note_on,0,0,0,,2,,,74,127
153663,note_off,208,0,0,,2,,,62,127
153663,note_off,0,0,0,,2,,,50,127
153664,note_on,1,0,0,,5,,,53,127
153664,note_on,0,0,0,,2,,,62,127
153872,note_off,208,0,0,,2,,,74,127
153872,note_off,0,0,0,,5,,,65,127
153873,note_on,1,0,0,,2,,,74,127
153873,note_on,0,0,0,,5,,,65,127
154081,note_off,208,0,0,,5,,,65,127
154081,note_off,0,0,0,,2,,,74,127
154082,note_on,1,0,0,,3,,,63,127
154082,note_on,0,0,0,,0,,,72,127
154290,note_off,208,0,0,,0,,,72,127
154290,note_off,0,0,0,,3,,,63,127
154290,note_off,0,0,0,,2,,,62,127
154290,note_off,0,0,0,,5,,,53,127
154291,note_on,1,0,0,,2,,,62,127
154291,note_on,0,0,0,,12,,,71,127
154291,note_on,0,0,0,,7,,,43,127
154499,note_off,208,0,0,,12,,,71,127
154499,note_off,0,0,0,,2,,,62,127
154500,note_on,1,0,0,,3,,,63,127
154500,note_on,0,0,0,,0,,,72,127
154708,note_off,208,0,0,,0,,,72,127
154708,note_off,0,0,0,,3,,,63,127
154709,note_on,1,0,0,,5,,,65,127
154709,note_on,0,0,0,,2,,,74,127
154917,note_off,208,0,0,,7,,,43,127
154918,note_on,1,0,0,,7,,,55,127
155126,note_off,208,0,0,,2,,,74,127
155126,note_off,0,0,0,,5,,,65,127
155127,note_on,1,0,0,,0,,,72,127
155127,note_on,0,0,0,,3,,,63,127
155335,note_off,208,0,0,,3,,,63,127
155335,note_off,0,0,0,,0,,,72,127
155336,note_on,1,0,0,,2,,,62,127
155336,note_on,0,0,0,,12,,,71,127
155544,note_off,208,0,0,,12,,,71,127
155544,note_off,0,0,0,,2,,,62,127
155544,note_off,0,0,0,,7,,,55,127
155545,note_on,1,0,0,,0,,,72,127
155545,note_on,0,0,0,,3,,,63,127
155545,note_on,0,0,0,,3,,,51,127
155545,note_on,0,0,0,,0,,,60,127
155753,note_off,208,0,0,,3,,,63,127
155753,note_off,0,0,0,,0,,,72,127
155754,note_on,1,0,0,,2,,,74,127
155754,note_on,0,0,0,,5,,,65,127
155962,note_off,208,0,0,,5,,,65,127
155962,note_off,0,0,0,,2,,,74,127
155963,note_on,1,0,0,,3,,,75,127
155963,note_on,0,0,0,,7,,,67,127
156171,note_off,208,0,0,,3,,,51,127
156172,note_on,1,0,0,,0,,,48,127
156380,note_off,208,0,0,,7,,,67,127
156380,note_off,0,0,0,,3,,,75,127
156381,note_on,1,0,0,,6,,,78,127
156381,note_on,0,0,0,,10,,,69,127
156589,note_off,208,0,0,,10,,,69,127
156589,note_off,0,0,0,,6,,,78,127
156590,note_on,1,0,0,,7,,,79,127
156590,note_on,0,0,0,,11,,,70,127
156798,note_off,208,0,0,,11,,,70,127
156798,note_off,0,0,0,,7,,,79,127
156798,note_off,0,0,0,,0,,,48,127
156798,note_off,0,0,0,,0,,,60,127
156799,note_on,1,0,0,,10,,,69,127
156799,note_on,0,0,0,,6,,,78,127
156799,note_on,0,0,0,,2,,,50,127
156799,note_on,0,0,0,,2,,,62,127
157007,note_off,208,0,0,,6,,,78,127
157007,note_off,0,0,0,,10,,,69,127
157008,note_on,1,0,0,,11,,,70,127
157008,note_on,0,0,0,,7,,,79,127
157216,note_off,208,0,0,,7,,,79,127
157216,note_off,0,0,0,,11,,,70,127
157217,note_on,1,0,0,,0,,,72,127
157217,note_on,0,0,0,,10,,,81,127
157425,note_off,208,0,0,,2,,,62,127
157425,note_off,0,0,0,,2,,,50,127
157426,note_on,1,0,0,,2,,,62,127
157634,note_off,208,0,0,,10,,,81,127
157634,note_off,0,0,0,,0,,,72,127
157635,note_on,1,0,0,,7,,,79,127
157635,note_on,0,0,0,,11,,,70,127
157843,note_off,208,0,0,,11,,,70,127
157843,note_off,0,0,0,,7,,,79,127
157844,note_on,1,0,0,,10,,,69,127
157844,note_on,0,0,0,,6,,,78,127
158052,note_off,208,0,0,,6,,,78,127
158052,note_off,0,0,0,,10,,,69,127
158052,note_off,0,0,0,,2,,,62,127
158053,note_on,1,0,0,,11,,,70,127
158053,note_on,0,0,0,,7,,,79,127
158053,note_on,0,0,0,,11,,,58,127
158261,note_off,208,0,0,,7,,,79,127
158261,note_off,0,0,0,,11,,,70,127
158262,note_on,1,0,0,,10,,,81,127
158262,note_on,0,0,0,,0,,,72,127
158470,note_off,208,0,0,,0,,,72,127
158470,note_off,0,0,0,,10,,,81,127
158471,note_on,1,0,0,,11,,,82,127
158471,note_on,0,0,0,,2,,,74,127
158679,note_off,208,0,0,,11,,,58,127
158680,note_on,1,0,0,,7,,,55,127
158680,note_on,0,0,0,,7,,,67,127
158888,note_off,208,0,0,,2,,,74,127
158888,note_off,0,0,0,,11,,,82,127
158889,note_on,1,0,0,,10,,,81,127
158889,note_on,0,0,0,,0,,,72,127
159097,note_off,208,0,0,,0,,,72,127
159097,note_off,0,0,0,,10,,,81,127
159098,note_on,1,0,0,,7,,,79,127
159098,note_on,0,0,0,,11,,,70,127
159306,note_off,208,0,0,,11,,,70,127
159306,note_off,0,0,0,,7,,,67,127
159306,note_off,0,0,0,,7,,,55,127
159307,note_on,1,0,0,,0,,,72,127
159307,note_on,0,0,0,,10,,,57,127
159515,note_off,208,0,0,,7,,,79,127
159516,note_on,1,0,0,,6,,,78,127
159516,note_on,0,0,0,,10,,,69,127
159724,note_off,208,0,0,,10,,,69,127
159724,note_off,0,0,0,,6,,,78,127
159725,note_on,1,0,0,,7,,,79,127
159725,note_on,0,0,0,,7,,,67,127
159933,note_off,208,0,0,,7,,,67,127
159933,note_off,0,0,0,,7,,,79,127
159934,note_on,1,0,0,,10,,,81,127
159934,note_on,0,0,0,,6,,,66,127
160142,note_off,208,0,0,,0,,,72,127
160143,note_on,1,0,0,,2,,,74,127
160351,note_off,208,0,0,,2,,,74,127
160352,note_on,1,0,0,,0,,,72,127
160396,note_off,44,0,0,,10,,,57,127
160561,note_off,165,0,0,,0,,,72,127
160561,note_off,0,0,0,,6,,,66,127
160561,note_off,0,0,0,,10,,,81,127
160562,note_on,1,0,0,,11,,,70,127
160562,note_on,0,0,0,,7,,,55,127
160771,note_on,209,0,0,,3,,,75,127
160771,note_on,0,0,0,,7,,,67,127
160979,note_off,208,0,0,,7,,,67,127
160979,note_off,0,0,0,,3,,,75,127
160980,note_on,1,0,0,,5,,,77,127
160980,note_on,0,0,0,,5,,,65,127
161188,note_off,208,0,0,,5,,,65,127
161188,note_off,0,0,0,,5,,,77,127
161189,note_on,1,0,0,,7,,,79,127
161189,note_on,0,0,0,,3,,,63,127
161397,note_off,208,0,0,,11,,,70,127
161398,note_on,1,0,0,,0,,,72,127
161606,note_off,208,0,0,,0,,,72,127
161607,note_on,1,0,0,,11,,,70,127
161651,note_off,44,0,0,,7,,,55,127
161816,note_off,165,0,0,,11,,,70,127
161816,note_off,0,0,0,,3,,,63,127
161816,note_off,0,0,0,,7,,,79,127
161817,note_on,1,0,0,,10,,,69,127
161817,note_on,0,0,0,,5,,,53,127
162026,note_on,209,0,0,,2,,,74,127
162026,note_on,0,0,0,,5,,,65,127
162234,note_off,208,0,0,,5,,,65,127
162234,note_off,0,0,0,,2,,,74,127
162235,note_on,1,0,0,,3,,,75,127
162235,note_on,0,0,0,,3,,,63,127
162443,note_off,208,0,0,,3,,,63,127
162443,note_off,0,0,0,,3,,,75,127
162444,note_on,1,0,0,,5,,,77,127
162444,note_on,0,0,0,,2,,,62,127
162652,note_off,208,0,0,,10,,,69,127
162653,note_on,1,0,0,,11,,,70,127
162861,note_off,208,0,0,,11,,,70,127
162862,note_on,1,0,0,,10,,,69,127
162906,note_off,44,0,0,,5,,,53,127
163071,note_off,165,0,0,,10,,,69,127
163071,note_off,0,0,0,,2,,,62,127
163071,note_off,0,0,0,,5,,,77,127
163072,note_on,1,0,0,,7,,,67,127
163072,note_on,0,0,0,,3,,,51,127
163281,note_on,209,0,0,,0,,,72,127
163281,note_on,0,0,0,,3,,,63,127
163489,note_off,208,0,0,,3,,,63,127
163489,note_off,0,0,0,,0,,,72,127
163490,note_on,1,0,0,,2,,,74,127
163490,note_on,0,0,0,,2,,,62,127
163698,note_off,208,0,0,,2,,,62,127
163698,note_off,0,0,0,,2,,,74,127
163699,note_on,1,0,0,,3,,,75,127
163699,note_on,0,0,0,,0,,,60,127
163907,note_off,208,0,0,,7,,,67,127
163908,note_on,1,0,0,,10,,,69,127
164116,note_off,208,0,0,,10,,,69,127
164117,note_on,1,0,0,,7,,,67,127
164161,note_off,44,0,0,,3,,,51,127
164326,note_off,165,0,0,,7,,,67,127
164326,note_off,0,0,0,,3,,,75,127
164327,note_on,1,0,0,,6,,,66,127
164327,note_on,0,0,0,,2,,,74,127
164327,note_on,0,0,0,,2,,,50,127
164535,note_off,208,0,0,,6,,,66,127
164535,note_off,0,0,0,,0,,,60,127
164536,note_on,1,0,0,,7,,,67,127
164536,note_on,0,0,0,,11,,,58,127
164744,note_off,208,0,0,,11,,,58,127
164744,note_off,0,0,0,,7,,,67,127
164745,note_on,1,0,0,,10,,,69,127
164745,note_on,0,0,0,,10,,,57,127
164953,note_off,208,0,0,,10,,,57,127
164953,note_off,0,0,0,,10,,,69,127
164954,note_on,1,0,0,,2,,,62,127
164954,note_on,0,0,0,,11,,,58,127
165162,note_off,208,0,0,,11,,,58,127
165162,note_off,0,0,0,,2,,,74,127
165163,note_on,1,0,0,,0,,,72,127
165163,note_on,0,0,0,,10,,,57,127
165371,note_off,208,0,0,,10,,,57,127
165371,note_off,0,0,0,,0,,,72,127
165371,note_off,0,0,0,,2,,,62,127
165372,note_on,1,0,0,,11,,,70,127
165372,note_on,0,0,0,,7,,,67,127
165372,note_on,0,0,0,,7,,,55,127
165580,note_off,208,0,0,,7,,,55,127
165580,note_off,0,0,0,,7,,,67,127
165580,note_off,0,0,0,,11,,,70,127
165580,note_off,0,0,0,,2,,,50,127
165581,note_on,1,0,0,,10,,,69,127
165581,note_on,0,0,0,,6,,,66,127
165581,note_on,0,0,0,,2,,,38,127
165789,note_off,208,0,0,,6,,,66,127
165789,note_off,0,0,0,,10,,,69,127
165790,note_on,1,0,0,,11,,,70,127
165790,note_on,0,0,0,,7,,,67,127
165998,note_off,208,0,0,,7,,,67,127
165998,note_off,0,0,0,,11,,,70,127
165999,note_on,1,0,0,,10,,,69,127
165999,note_on,0,0,0,,0,,,72,127
166207,note_off,208,0,0,,0,,,72,127
166207,note_off,0,0,0,,10,,,69,127
166208,note_on,1,0,0,,11,,,70,127
166208,note_on,0,0,0,,7,,,67,127
166416,note_off,208,0,0,,7,,,67,127
166416,note_off,0,0,0,,11,,,70,127
166417,note_on,1,0,0,,10,,,69,127
166417,note_on,0,0,0,,5,,,65,127
166625,note_off,208,0,0,,5,,,65,127
166625,note_off,0,0,0,,10,,,69,127
166626,note_on,1,0,0,,4,,,64,127
166626,note_on,0,0,0,,1,,,73,127
166626,note_on,0,0,0,,7,,,67,127
166834,note_off,208,0,0,,7,,,67,127
166834,note_off,0,0,0,,1,,,73,127
166834,note_off,0,0,0,,4,,,64,127
166835,note_on,1,0,0,,6,,,66,127
166835,note_on,0,0,0,,2,,,74,127
167043,note_off,208,0,0,,6,,,66,127
167043,note_off,0,0,0,,2,,,38,127
167044,note_on,1,0,0,,7,,,67,127
167044,note_on,0,0,0,,4,,,40,127
167252,note_off,208,0,0,,4,,,40,127
167252,note_off,0,0,0,,7,,,67,127
167252,note_off,0,0,0,,2,,,74,127
167253,note_on,1,0,0,,0,,,72,127
167253,note_on,0,0,0,,10,,,69,127
167253,note_on,0,0,0,,6,,,42,127
167461,note_off,208,0,0,,6,,,42,127
167461,note_off,0,0,0,,10,,,69,127
167461,note_off,0,0,0,,0,,,72,127
167462,note_on,1,0,0,,7,,,79,127
167462,note_on,0,0,0,,11,,,70,127
167462,note_on,0,0,0,,7,,,43,127
167670,note_off,208,0,0,,7,,,43,127
167670,note_off,0,0,0,,11,,,70,127
167671,note_on,1,0,0,,0,,,72,127
167671,note_on,0,0,0,,10,,,45,127
167879,note_off,208,0,0,,10,,,45,127
167879,note_off,0,0,0,,0,,,72,127
167879,note_off,0,0,0,,7,,,79,127
167880,note_on,1,0,0,,2,,,74,127
167880,note_on,0,0,0,,5,,,77,127
167880,note_on,0,0,0,,11,,,46,127
168088,note_off,208,0,0,,11,,,46,127
168088,note_off,0,0,0,,5,,,77,127
168088,note_off,0,0,0,,2,,,74,127
168089,note_on,1,0,0,,3,,,75,127
168089,note_on,0,0,0,,0,,,36,127
168297,note_off,208,0,0,,0,,,36,127
168297,note_off,0,0,0,,3,,,75,127
168298,note_on,1,0,0,,5,,,77,127
168298,note_on,0,0,0,,0,,,72,127
168298,note_on,0,0,0,,2,,,38,127
168506,note_off,208,0,0,,2,,,38,127
168506,note_off,0,0,0,,0,,,72,127
168506,note_off,0,0,0,,5,,,77,127
168507,note_on,1,0,0,,11,,,70,127
168507,note_on,0,0,0,,7,,,79,127
168507,note_on,0,0,0,,3,,,39,127
168715,note_off,208,0,0,,3,,,39,127
168715,note_off,0,0,0,,11,,,70,127
168716,note_on,1,0,0,,10,,,69,127
168716,note_on,0,0,0,,5,,,41,127
168924,note_off,208,0,0,,5,,,41,127
168924,note_off,0,0,0,,10,,,69,127
168924,note_off,0,0,0,,7,,,79,127
168925,note_on,1,0,0,,5,,,77,127
168925,note_on,0,0,0,,11,,,70,127
168925,note_on,0,0,0,,7,,,43,127
169133,note_off,208,0,0,,7,,,43,127
169133,note_off,0,0,0,,11,,,70,127
169133,note_off,0,0,0,,5,,,77,127
169134,note_on,1,0,0,,3,,,75,127
169134,note_on,0,0,0,,0,,,72,127
169134,note_on,0,0,0,,10,,,45,127
169342,note_off,208,0,0,,10,,,45,127
169342,note_off,0,0,0,,3,,,75,127
169343,note_on,1,0,0,,2,,,74,127
169343,note_on,0,0,0,,11,,,46,127
169551,note_off,208,0,0,,11,,,46,127
169551,note_off,0,0,0,,2,,,74,127
169551,note_off,0,0,0,,0,,,72,127
169552,note_on,1,0,0,,3,,,75,127
169552,note_on,0,0,0,,11,,,70,127
169552,note_on,0,0,0,,0,,,48,127
169760,note_off,208,0,0,,0,,,48,127
169760,note_off,0,0,0,,11,,,70,127
169760,note_off,0,0,0,,3,,,75,127
169761,note_on,1,0,0,,8,,,68,127
169761,note_on,0,0,0,,5,,,77,127
169761,note_on,0,0,0,,2,,,50,127
169969,note_off,208,0,0,,2,,,50,127
169969,note_off,0,0,0,,8,,,68,127
169970,note_on,1,0,0,,7,,,67,127
169970,note_on,0,0,0,,3,,,39,127
170178,note_off,208,0,0,,3,,,39,127
170178,note_off,0,0,0,,7,,,67,127
170178,note_off,0,0,0,,5,,,77,127
170179,note_on,1,0,0,,10,,,69,127
170179,note_on,0,0,0,,3,,,75,127
170179,note_on,0,0,0,,5,,,41,127
170387,note_off,208,0,0,,5,,,41,127
170387,note_off,0,0,0,,3,,,75,127
170387,note_off,0,0,0,,10,,,69,127
170388,note_on,1,0,0,,2,,,74,127
170388,note_on,0,0,0,,11,,,70,127
170388,note_on,0,0,0,,7,,,43,127
170596,note_off,208,0,0,,7,,,43,127
170596,note_off,0,0,0,,2,,,74,127
170597,note_on,1,0,0,,0,,,72,127
170597,note_on,0,0,0,,10,,,45,127
170805,note_off,208,0,0,,10,,,45,127
170805,note_off,0,0,0,,0,,,72,127
170805,note_off,0,0,0,,11,,,70,127
170806,note_on,1,0,0,,2,,,74,127
170806,note_on,0,0,0,,10,,,69,127
170806,note_on,0,0,0,,11,,,46,127
171014,note_off,208,0,0,,11,,,46,127
171014,note_off,0,0,0,,10,,,69,127
171014,note_off,0,0,0,,2,,,74,127
171015,note_on,1,0,0,,3,,,75,127
171015,note_on,0,0,0,,7,,,67,127
171015,note_on,0,0,0,,0,,,48,127
171223,note_off,208,0,0,,0,,,48,127
171223,note_off,0,0,0,,7,,,67,127
171224,note_on,1,0,0,,6,,,66,127
171224,note_on,0,0,0,,2,,,38,127
171432,note_off,208,0,0,,2,,,38,127
171432,note_off,0,0,0,,6,,,66,127
171432,note_off,0,0,0,,3,,,75,127
171433,note_on,1,0,0,,2,,,74,127
171433,note_on,0,0,0,,7,,,67,127
171433,note_on,0,0,0,,4,,,40,127
171641,note_off,208,0,0,,4,,,40,127
171641,note_off,0,0,0,,7,,,67,127
171641,note_off,0,0,0,,2,,,74,127
171642,note_on,1,0,0,,0,,,72,127
171642,note_on,0,0,0,,10,,,69,127
171642,note_on,0,0,0,,6,,,42,127
171850,note_off,208,0,0,,6,,,42,127
171850,note_off,0,0,0,,0,,,72,127
171851,note_on,1,0,0,,11,,,70,127
171851,note_on,0,0,0,,7,,,43,127
172059,note_off,208,0,0,,7,,,43,127
172059,note_off,0,0,0,,11,,,70,127
172059,note_off,0,0,0,,10,,,69,127
172060,note_on,1,0,0,,0,,,72,127
172060,note_on,0,0,0,,7,,,67,127
172060,note_on,0,0,0,,10,,,45,127
172268,note_off,208,0,0,,10,,,45,127
172268,note_off,0,0,0,,7,,,67,127
172268,note_off,0,0,0,,0,,,72,127
172269,note_on,1,0,0,,5,,,65,127
172269,note_on,0,0,0,,2,,,74,127
172269,note_on,0,0,0,,11,,,46,127
172477,note_off,208,0,0,,11,,,46,127
172477,note_off,0,0,0,,5,,,65,127
172478,note_on,1,0,0,,3,,,63,127
172478,note_on,0,0,0,,0,,,36,127
172686,note_off,208,0,0,,0,,,36,127
172686,note_off,0,0,0,,3,,,63,127
172686,note_off,0,0,0,,2,,,74,127
172687,note_on,1,0,0,,0,,,72,127
172687,note_on,0,0,0,,2,,,62,127
172687,note_on,0,0,0,,2,,,38,127
172895,note_off,208,0,0,,2,,,38,127
172895,note_off,0,0,0,,2,,,62,127
172896,note_on,1,0,0,,0,,,60,127
172896,note_on,0,0,0,,3,,,39,127
173104,note_off,208,0,0,,3,,,39,127
173104,note_off,0,0,0,,0,,,60,127
173105,note_on,1,0,0,,6,,,66,127
173105,note_on,0,0,0,,2,,,38,127
173105,note_on,0,0,0,,2,,,50,127
173313,note_off,208,0,0,,6,,,66,127
173313,note_off,0,0,0,,0,,,72,127
173314,note_on,1,0,0,,7,,,67,127
173314,note_on,0,0,0,,11,,,70,127
173522,note_off,208,0,0,,11,,,70,127
173522,note_off,0,0,0,,7,,,67,127
173523,note_on,1,0,0,,0,,,72,127
173523,note_on,0,0,0,,10,,,69,127
173731,note_off,208,0,0,,10,,,69,127
173731,note_off,0,0,0,,0,,,72,127
173732,note_on,1,0,0,,11,,,70,127
173732,note_on,0,0,0,,2,,,74,127
173940,note_off,208,0,0,,2,,,74,127
173940,note_off,0,0,0,,11,,,70,127
173941,note_on,1,0,0,,10,,,69,127
173941,note_on,0,0,0,,0,,,72,127
174149,note_off,208,0,0,,0,,,72,127
174149,note_off,0,0,0,,10,,,69,127
174150,note_on,1,0,0,,11,,,70,127
174150,note_on,0,0,0,,7,,,79,127
174358,note_off,208,0,0,,7,,,79,127
174358,note_off,0,0,0,,11,,,70,127
174358,note_off,0,0,0,,2,,,50,127
174358,note_off,0,0,0,,2,,,38,127
174359,note_on,1,0,0,,10,,,69,127
174359,note_on,0,0,0,,6,,,78,127
174359,note_on,0,0,0,,2,,,38,127
174359,note_on,0,0,0,,2,,,50,127
174567,note_off,208,0,0,,6,,,78,127
174567,note_off,0,0,0,,10,,,69,127
174568,note_on,1,0,0,,11,,,70,127
174568,note_on,0,0,0,,7,,,79,127
174776,note_off,208,0,0,,7,,,79,127
174776,note_off,0,0,0,,11,,,70,127
174777,note_on,1,0,0,,0,,,72,127
174777,note_on,0,0,0,,10,,,81,127
174985,note_off,208,0,0,,10,,,81,127
174985,note_off,0,0,0,,0,,,72,127
174986,note_on,1,0,0,,11,,,82,127
174986,note_on,0,0,0,,2,,,74,127
175194,note_off,208,0,0,,2,,,74,127
175194,note_off,0,0,0,,11,,,82,127
175195,note_on,1,0,0,,10,,,81,127
175195,note_on,0,0,0,,0,,,72,127
175403,note_off,208,0,0,,0,,,72,127
175403,note_off,0,0,0,,10,,,81,127
175404,note_on,1,0,0,,7,,,79,127
175404,note_on,0,0,0,,11,,,70,127
175612,note_off,208,0,0,,11,,,70,127
175612,note_off,0,0,0,,7,,,79,127
175612,note_off,0,0,0,,2,,,50,127
175612,note_off,0,0,0,,2,,,38,127
175613,note_on,1,0,0,,10,,,69,127
175613,note_on,0,0,0,,6,,,78,127
175613,note_on,0,0,0,,2,,,38,127
175613,note_on,0,0,0,,2,,,50,127
175821,note_off,208,0,0,,6,,,78,127
175821,note_off,0,0,0,,10,,,69,127
175822,note_on,1,0,0,,7,,,67,127
175822,note_on,0,0,0,,3,,,75,127
176030,note_off,208,0,0,,3,,,75,127
176030,note_off,0,0,0,,7,,,67,127
176031,note_on,1,0,0,,2,,,74,127
176031,note_on,0,0,0,,6,,,66,127
176239,note_off,208,0,0,,6,,,66,127
176239,note_off,0,0,0,,2,,,74,127
176240,note_on,1,0,0,,3,,,63,127
176240,note_on,0,0,0,,0,,,72,127
176448,note_off,208,0,0,,0,,,72,127
176448,note_off,0,0,0,,3,,,63,127
176449,note_on,1,0,0,,11,,,70,127
176449,note_on,0,0,0,,2,,,62,127
176657,note_off,208,0,0,,2,,,62,127
176657,note_off,0,0,0,,11,,,70,127
176658,note_on,1,0,0,,0,,,60,127
176658,note_on,0,0,0,,10,,,69,127
176866,note_off,208,0,0,,10,,,69,127
176866,note_off,0,0,0,,0,,,60,127
176866,note_off,0,0,0,,2,,,50,127
176866,note_off,0,0,0,,2,,,38,127
176867,note_on,1,0,0,,7,,,67,127
176867,note_on,0,0,0,,11,,,58,127
176867,note_on,0,0,0,,2,,,38,127
176867,note_on,0,0,0,,2,,,50,127
177075,note_off,208,0,0,,11,,,58,127
177076,note_on,1,0,0,,10,,,57,127
177284,note_off,208,0,0,,10,,,57,127
177285,note_on,1,0,0,,7,,,55,127
177493,note_off,208,0,0,,7,,,55,127
177494,note_on,1,0,0,,1,,,61,127
177702,note_off,208,0,0,,7,,,67,127
177703,note_on,1,0,0,,4,,,64,127
177911,note_off,208,0,0,,4,,,64,127
177912,note_on,1,0,0,,7,,,67,127
178120,note_off,208,0,0,,7,,,67,127
178120,note_off,0,0,0,,1,,,61,127
178120,note_off,0,0,0,,2,,,50,127
178120,note_off,0,0,0,,2,,,38,127
178121,note_on,1,0,0,,6,,,66,127
178121,note_on,0,0,0,,2,,,62,127
178121,note_on,0,0,0,,2,,,38,127
178121,note_on,0,0,0,,2,,,50,127
178329,note_off,208,0,0,,6,,,66,127
178330,note_on,1,0,0,,10,,,69,127
178538,note_off,208,0,0,,10,,,69,127
178539,note_on,1,0,0,,0,,,72,127
178747,note_off,208,0,0,,0,,,72,127
178747,note_off,0,0,0,,2,,,62,127
178748,note_on,1,0,0,,5,,,65,127
178748,note_on,0,0,0,,12,,,71,127
178956,note_off,208,0,0,,12,,,71,127
178957,note_on,1,0,0,,2,,,74,127
179165,note_off,208,0,0,,2,,,74,127
179166,note_on,1,0,0,,5,,,77,127
179374,note_off,208,0,0,,5,,,77,127
179374,note_off,0,0,0,,5,,,65,127
179374,note_off,0,0,0,,2,,,50,127
179374,note_off,0,0,0,,2,,,38,127
179375,note_on,1,0,0,,7,,,67,127
179375,note_on,0,0,0,,1,,,73,127
179375,note_on,0,0,0,,2,,,38,127
179375,note_on,0,0,0,,2,,,50,127
179583,note_off,208,0,0,,1,,,73,127
179584,note_on,1,0,0,,4,,,76,127
179792,note_off,208,0,0,,4,,,76,127
179793,note_on,1,0,0,,7,,,79,127
180001,note_off,208,0,0,,7,,,79,127
180001,note_off,0,0,0,,7,,,67,127
180002,note_on,1,0,0,,0,,,72,127
180002,note_on,0,0,0,,6,,,78,127
180210,note_off,208,0,0,,6,,,78,127
180211,note_on,1,0,0,,10,,,81,127
180419,note_off,208,0,0,,10,,,81,127
180420,note_on,1,0,0,,0,,,84,127
180628,note_off,208,0,0,,0,,,84,127
180628,note_off,0,0,0,,0,,,72,127
180628,note_off,0,0,0,,2,,,50,127
180628,note_off,0,0,0,,2,,,38,127
180629,note_on,1,0,0,,11,,,82,127
180629,note_on,0,0,0,,2,,,74,127
180629,note_on,0,0,0,,2,,,38,127
180629,note_on,0,0,0,,2,,,50,127
180837,note_off,208,0,0,,2,,,74,127
180837,note_off,0,0,0,,11,,,82,127
180838,note_on,1,0,0,,6,,,78,127
180838,note_on,0,0,0,,0,,,72,127
181046,note_off,208,0,0,,0,,,72,127
181046,note_off,0,0,0,,6,,,78,127
181047,note_on,1,0,0,,7,,,79,127
181047,note_on,0,0,0,,11,,,70,127
181255,note_off,208,0,0,,11,,,70,127
181255,note_off,0,0,0,,7,,,79,127
181256,note_on,1,0,0,,10,,,69,127
181256,note_on,0,0,0,,5,,,77,127
181464,note_off,208,0,0,,5,,,77,127
181464,note_off,0,0,0,,10,,,69,127
181465,note_on,1,0,0,,7,,,67,127
181465,note_on,0,0,0,,1,,,73,127
181673,note_off,208,0,0,,1,,,73,127
181673,note_off,0,0,0,,7,,,67,127
181674,note_on,1,0,0,,2,,,74,127
181674,note_on,0,0,0,,6,,,66,127
181882,note_off,208,0,0,,6,,,66,127
181882,note_off,0,0,0,,2,,,74,127
181882,note_off,0,0,0,,2,,,50,127
181882,note_off,0,0,0,,2,,,38,127
181883,note_on,1,0,0,,7,,,67,127
181883,note_on,0,0,0,,3,,,75,127
181883,note_on,0,0,0,,2,,,38,127
181883,note_on,0,0,0,,2,,,50,127
182091,note_off,208,0,0,,3,,,75,127
182091,note_off,0,0,0,,7,,,67,127
182092,note_on,1,0,0,,12,,,71,127
182092,note_on,0,0,0,,5,,,65,127
182300,note_off,208,0,0,,5,,,65,127
182300,note_off,0,0,0,,12,,,71,127
182301,note_on,1,0,0,,3,,,63,127
182301,note_on,0,0,0,,0,,,72,127
182509,note_off,208,0,0,,0,,,72,127
182509,note_off,0,0,0,,3,,,63,127
182510,note_on,1,0,0,,6,,,66,127
182510,note_on,0,0,0,,2,,,62,127
182510,note_on,0,0,0,,0,,,72,127
182718,note_off,208,0,0,,2,,,62,127
182718,note_off,0,0,0,,6,,,66,127
182719,note_on,1,0,0,,4,,,64,127
182719,note_on,0,0,0,,7,,,67,127
182927,note_off,208,0,0,,7,,,67,127
182927,note_off,0,0,0,,4,,,64,127
182928,note_on,1,0,0,,6,,,66,127
182928,note_on,0,0,0,,10,,,69,127
183136,note_off,208,0,0,,10,,,69,127
183136,note_off,0,0,0,,6,,,66,127
183136,note_off,0,0,0,,0,,,72,127
183136,note_off,0,0,0,,2,,,50,127
183136,note_off,0,0,0,,2,,,38,127
183137,note_on,1,0,0,,7,,,67,127
183137,note_on,0,0,0,,7,,,79,127
183137,note_on,0,0,0,,11,,,70,127
183137,note_on,0,0,0,,7,,,43,127
183137,note_on,0,0,0,,7,,,55,127
183345,note_off,208,0,0,,7,,,43,127
183345,note_off,0,0,0,,11,,,70,127
183346,note_on,1,0,0,,0,,,72,127
183346,note_on,0,0,0,,10,,,45,127
183554,note_off,208,0,0,,10,,,45,127
183554,note_off,0,0,0,,0,,,72,127
183555,note_on,1,0,0,,2,,,74,127
183555,note_on,0,0,0,,11,,,46,127
183763,note_off,208,0,0,,11,,,46,127
183763,note_off,0,0,0,,2,,,74,127
183764,note_on,1,0,0,,3,,,75,127
183764,note_on,0,0,0,,0,,,48,127
183972,note_off,208,0,0,,3,,,75,127
183972,note_off,0,0,0,,7,,,79,127
183973,note_on,1,0,0,,5,,,77,127
183973,note_on,0,0,0,,2,,,74,127
184181,note_off,208,0,0,,2,,,74,127
184181,note_off,0,0,0,,5,,,77,127
184181,note_off,0,0,0,,7,,,55,127
184182,note_on,1,0,0,,3,,,75,127
184182,note_on,0,0,0,,0,,,72,127
184182,note_on,0,0,0,,0,,,60,127
184390,note_off,208,0,0,,0,,,60,127
184390,note_off,0,0,0,,0,,,72,127
184390,note_off,0,0,0,,3,,,75,127
184390,note_off,0,0,0,,0,,,48,127
184391,note_on,1,0,0,,11,,,70,127
184391,note_on,0,0,0,,2,,,74,127
184391,note_on,0,0,0,,2,,,50,127
184599,note_off,208,0,0,,2,,,74,127
184599,note_off,0,0,0,,11,,,70,127
184599,note_off,0,0,0,,7,,,67,127
184600,note_on,1,0,0,,0,,,72,127
184600,note_on,0,0,0,,10,,,69,127
184808,note_off,208,0,0,,10,,,69,127
184808,note_off,0,0,0,,0,,,72,127
184809,note_on,1,0,0,,11,,,70,127
184809,note_on,0,0,0,,7,,,67,127
185018,note_on,209,0,0,,2,,,38,127
185226,note_off,208,0,0,,7,,,67,127
185226,note_off,0,0,0,,11,,,70,127
185227,note_on,1,0,0,,0,,,72,127
185227,note_on,0,0,0,,10,,,69,127
185435,note_off,208,0,0,,10,,,69,127
185435,note_off,0,0,0,,0,,,72,127
185436,note_on,1,0,0,,6,,,66,127
185436,note_on,0,0,0,,10,,,69,127
185644,note_off,208,0,0,,10,,,69,127
185644,note_off,0,0,0,,6,,,66,127
185644,note_off,0,0,0,,2,,,38,127
185644,note_off,0,0,0,,2,,,50,127
185646,note_on,2,0,0,,7,,,43,127
185646,note_on,0,0,0,,7,,,67,127
185863,note_on,217,0,0,,7,,,79,127
186079,note_off,216,0,0,,7,,,79,127
186080,note_off,1,0,0,,7,,,67,127
186081,note_on,1,0,0,,5,,,77,127
186081,note_on,0,0,0,,8,,,68,127
186297,note_off,216,0,0,,8,,,68,127
186299,note_on,2,0,0,,11,,,46,127
186299,note_on,0,0,0,,7,,,67,127
186515,note_off,216,0,0,,5,,,77,127
186517,note_on,2,0,0,,3,,,75,127
186733,note_off,216,0,0,,3,,,75,127
186733,note_off,0,0,0,,7,,,67,127
186734,note_on,1,0,0,,5,,,65,127
186734,note_on,0,0,0,,2,,,74,127
186951,note_off,217,0,0,,11,,,46,127
186952,note_on,1,0,0,,3,,,51,127
187168,note_off,216,0,0,,2,,,74,127
187168,note_off,0,0,0,,5,,,65,127
187170,note_on,2,0,0,,2,,,62,127
187170,note_on,0,0,0,,12,,,71,127
187386,note_off,216,0,0,,12,,,71,127
187386,note_off,0,0,0,,2,,,62,127
187387,note_on,1,0,0,,0,,,72,127
187387,note_on,0,0,0,,3,,,63,127
187604,note_off,217,0,0,,3,,,51,127
187605,note_on,1,0,0,,6,,,54,127
187821,note_off,216,0,0,,3,,,63,127
187821,note_off,0,0,0,,0,,,72,127
187823,note_on,2,0,0,,0,,,72,127
187823,note_on,0,0,0,,0,,,60,127
188039,note_off,216,0,0,,0,,,60,127
188040,note_on,1,0,0,,3,,,63,127
188254,note_off,214,0,0,,7,,,43,127
188256,note_off,2,0,0,,3,,,63,127
188257,note_off,1,0,0,,6,,,54,127
188260,note_on,3,0,0,,2,,,62,127
188260,note_on,0,0,0,,7,,,55,127
188260,note_on,0,0,0,,7,,,43,127
188475,note_off,215,0,0,,0,,,72,127
188483,note_on,8,0,0,,12,,,71,127
188698,note_off,215,0,0,,2,,,62,127
188700,note_off,2,0,0,,12,,,71,127
188704,note_on,4,0,0,,0,,,60,127
188704,note_on,0,0,0,,10,,,69,127
188921,note_off,217,0,0,,0,,,60,127
188926,note_on,5,0,0,,12,,,59,127
189141,note_off,215,0,0,,10,,,69,127
189149,note_on,8,0,0,,7,,,67,127
189364,note_off,215,0,0,,12,,,59,127
189366,note_off,2,0,0,,7,,,67,127
189370,note_on,4,0,0,,6,,,66,127
189370,note_on,0,0,0,,10,,,57,127
189587,note_off,217,0,0,,10,,,57,127
189587,note_off,0,0,0,,6,,,66,127
189611,note_on,24,0,0,,7,,,67,127
189611,note_on,0,0,0,,12,,,59,127
189611,note_on,0,0,0,,2,,,62,127
191444,note_off,1833,0,0,,12,,,59,127
191468,note_off,24,0,0,,7,,,43,127
191468,note_off,0,0,0,,7,,,55,127
191502,note_off,34,0,0,,2,,,62,127
191502,note_off,0,0,0,,7,,,67,127
196608,end_of_track,5106,1,0,,,,,,
