tick,type,time,meta,track,program,channel,pitch,tempo,note,velocity
0,copyright,0,1,0,,,,,,
0,program_change,0,0,0,6,0,,,,
0,pitchwheel,0,0,0,,0,0,,,
0,program_change,0,0,0,6,1,,,,
0,pitchwheel,0,0,0,,1,-590,,,
0,program_change,0,0,0,6,2,,,,
0,pitchwheel,0,0,0,,2,-272,,,
0,program_change,0,0,0,6,3,,,,
0,pitchwheel,0,0,0,,3,-353,,,
0,program_change,0,0,0,6,4,,,,
0,pitchwheel,0,0,0,,4,-560,,,
0,program_change,0,0,0,6,5,,,,
0,pitchwheel,0,0,0,,5,-80,,,
0,program_change,0,0,0,6,6,,,,
0,pitchwheel,0,0,0,,6,-625,,,
0,program_change,0,0,0,6,7,,,,
0,pitchwheel,0,0,0,,7,-130,,,
0,program_change,0,0,0,6,8,,,,
0,pitchwheel,0,0,0,,8,-512,,,
0,program_change,0,0,0,6,10,,,,
0,pitchwheel,0,0,0,,10,-464,,,
0,program_change,0,0,0,6,11,,,,
0,pitchwheel,0,0,0,,11,-208,,,
0,program_change,0,0,0,6,12,,,,
0,pitchwheel,0,0,0,,12,-553,,,
0,set_tempo,0,1,0,,,,500000,,
105,note_on,105,0,0,,11,,,58,127
105,note_on,0,0,0,,7,,,55,127
105,note_on,0,0,0,,2,,,62,127
105,note_on,0,0,0,,7,,,67,127
105,note_on,0,0,0,,2,,,74,127
105,note_on,0,0,0,,11,,,70,127
105,note_on,0,0,0,,7,,,79,127
523,note_off,418,0,0,,7,,,79,127
523,note_off,0,0,0,,11,,,70,127
523,note_off,0,0,0,,2,,,74,127
523,note_off,0,0,0,,7,,,67,127
523,note_off,0,0,0,,2,,,62,127
523,note_off,0,0,0,,7,,,55,127
523,note_off,0,0,0,,11,,,58,127
524,note_on,1,0,0,,2,,,50,127
524,note_on,0,0,0,,10,,,57,127
524,note_on,0,0,0,,2,,,62,127
524,note_on,0,0,0,,10,,,81,127
524,note_on,0,0,0,,6,,,78,127
524,note_on,0,0,0,,2,,,74,127
524,note_on,0,0,0,,10,,,69,127
524,note_on,0,0,0,,0,,,72,127
942,note_off,418,0,0,,0,,,72,127
942,note_off,0,0,0,,10,,,69,127
942,note_off,0,0,0,,2,,,74,127
942,note_off,0,0,0,,6,,,78,127
942,note_off,0,0,0,,10,,,81,127
942,note_off,0,0,0,,2,,,62,127
942,note_off,0,0,0,,10,,,57,127
942,note_off,0,0,0,,2,,,50,127
943,note_on,1,0,0,,2,,,50,127
943,note_on,0,0,0,,11,,,46,127
943,note_on,0,0,0,,7,,,43,127
943,note_on,0,0,0,,7,,,55,127
943,note_on,0,0,0,,11,,,82,127
943,note_on,0,0,0,,2,,,74,127
943,note_on,0,0,0,,11,,,70,127
1047,note_off,104,0,0,,11,,,82,127
1048,note_on,1,0,0,,10,,,81,127
1152,note_off,104,0,0,,10,,,81,127
1153,note_on,1,0,0,,7,,,79,127
1257,note_off,104,0,0,,7,,,79,127
1258,note_off,1,0,0,,2,,,74,127
1258,note_on,0,0,0,,5,,,77,127
1362,note_off,104,0,0,,5,,,77,127
1362,note_off,0,0,0,,11,,,70,127
1363,note_on,1,0,0,,3,,,75,127
1467,note_off,104,0,0,,3,,,75,127
1468,note_on,1,0,0,,2,,,74,127
1572,note_off,104,0,0,,2,,,74,127
1572,note_off,0,0,0,,7,,,55,127
1572,note_off,0,0,0,,7,,,43,127
1572,note_off,0,0,0,,11,,,46,127
1572,note_off,0,0,0,,2,,,50,127
1573,note_on,1,0,0,,0,,,72,127
1677,note_off,104,0,0,,0,,,72,127
1678,note_on,1,0,0,,11,,,70,127
1782,note_off,104,0,0,,11,,,70,127
1783,note_on,1,0,0,,0,,,48,127
1783,note_on,0,0,0,,10,,,57,127
1783,note_on,0,0,0,,7,,,55,127
1783,note_on,0,0,0,,0,,,60,127
1783,note_on,0,0,0,,10,,,81,127
1887,note_off,104,0,0,,10,,,81,127
1888,note_on,1,0,0,,7,,,79,127
1992,note_off,104,0,0,,7,,,79,127
1993,note_on,1,0,0,,6,,,78,127
2097,note_off,104,0,0,,6,,,78,127
2098,note_on,1,0,0,,3,,,75,127
2202,note_off,104,0,0,,3,,,75,127
2202,note_off,0,0,0,,0,,,60,127
2202,note_off,0,0,0,,7,,,55,127
2202,note_off,0,0,0,,10,,,57,127
2202,note_off,0,0,0,,0,,,48,127
2203,note_on,1,0,0,,6,,,54,127
2203,note_on,0,0,0,,2,,,50,127
2203,note_on,0,0,0,,2,,,62,127
2203,note_on,0,0,0,,10,,,57,127
2203,note_on,0,0,0,,2,,,74,127
2307,note_off,104,0,0,,2,,,74,127
2308,note_on,1,0,0,,0,,,72,127
2412,note_off,104,0,0,,0,,,72,127
2413,note_on,1,0,0,,11,,,70,127
2517,note_off,104,0,0,,11,,,70,127
2518,note_on,1,0,0,,10,,,69,127
2622,note_off,104,0,0,,10,,,69,127
2622,note_off,0,0,0,,10,,,57,127
2622,note_off,0,0,0,,2,,,62,127
2622,note_off,0,0,0,,2,,,50,127
2622,note_off,0,0,0,,6,,,54,127
2623,note_on,1,0,0,,2,,,50,127
2623,note_on,0,0,0,,7,,,43,127
2623,note_on,0,0,0,,7,,,55,127
2623,note_on,0,0,0,,0,,,72,127
2727,note_off,104,0,0,,0,,,72,127
2728,note_on,1,0,0,,11,,,70,127
2832,note_off,104,0,0,,11,,,70,127
2833,note_on,1,0,0,,10,,,69,127
2937,note_off,104,0,0,,10,,,69,127
2938,note_on,1,0,0,,11,,,70,127
3042,note_off,104,0,0,,11,,,70,127
3043,note_on,1,0,0,,7,,,67,127
3251,note_off,208,0,0,,7,,,55,127
3251,note_off,0,0,0,,7,,,43,127
3251,note_off,0,0,0,,2,,,50,127
3460,note_off,209,0,0,,7,,,67,127
3461,note_on,1,0,0,,7,,,55,127
3461,note_on,0,0,0,,7,,,79,127
3461,note_on,0,0,0,,2,,,74,127
3461,note_on,0,0,0,,11,,,82,127
3669,note_off,208,0,0,,2,,,74,127
3669,note_off,0,0,0,,7,,,79,127
3670,note_on,1,0,0,,2,,,74,127
3775,note_on,105,0,0,,7,,,79,127
3879,note_off,104,0,0,,7,,,79,127
3879,note_off,0,0,0,,2,,,74,127
3879,note_off,0,0,0,,11,,,82,127
3879,note_off,0,0,0,,7,,,55,127
3880,note_on,1,0,0,,10,,,57,127
3880,note_on,0,0,0,,0,,,72,127
3880,note_on,0,0,0,,6,,,78,127
3880,note_on,0,0,0,,10,,,81,127
4088,note_off,208,0,0,,6,,,78,127
4089,note_on,1,0,0,,2,,,74,127
4193,note_off,104,0,0,,2,,,74,127
4194,note_on,1,0,0,,6,,,78,127
4298,note_off,104,0,0,,6,,,78,127
4298,note_off,0,0,0,,10,,,81,127
4298,note_off,0,0,0,,0,,,72,127
4298,note_off,0,0,0,,10,,,57,127
4299,note_on,1,0,0,,11,,,58,127
4299,note_on,0,0,0,,2,,,74,127
4299,note_on,0,0,0,,7,,,79,127
4403,note_off,104,0,0,,11,,,58,127
4404,note_on,1,0,0,,10,,,57,127
4508,note_off,104,0,0,,10,,,57,127
4509,note_on,1,0,0,,7,,,55,127
4613,note_off,104,0,0,,7,,,55,127
4614,note_on,1,0,0,,5,,,53,127
4718,note_off,104,0,0,,5,,,53,127
4719,note_on,1,0,0,,3,,,51,127
4823,note_off,104,0,0,,3,,,51,127
4824,note_on,1,0,0,,2,,,50,127
4928,note_off,104,0,0,,2,,,50,127
4928,note_off,0,0,0,,7,,,79,127
4928,note_off,0,0,0,,2,,,74,127
4929,note_on,1,0,0,,0,,,48,127
5033,note_off,104,0,0,,0,,,48,127
5034,note_on,1,0,0,,11,,,46,127
5138,note_off,104,0,0,,11,,,46,127
5139,note_on,1,0,0,,10,,,57,127
5139,note_on,0,0,0,,0,,,72,127
5139,note_on,0,0,0,,2,,,74,127
5139,note_on,0,0,0,,6,,,78,127
5139,note_on,0,0,0,,10,,,81,127
5243,note_off,104,0,0,,10,,,57,127
5244,note_on,1,0,0,,7,,,55,127
5348,note_off,104,0,0,,7,,,55,127
5349,note_on,1,0,0,,6,,,54,127
5453,note_off,104,0,0,,6,,,54,127
5454,note_on,1,0,0,,4,,,52,127
5558,note_off,104,0,0,,4,,,52,127
5558,note_off,0,0,0,,10,,,81,127
5558,note_off,0,0,0,,6,,,78,127
5558,note_off,0,0,0,,2,,,74,127
5558,note_off,0,0,0,,0,,,72,127
5559,note_on,1,0,0,,2,,,50,127
5559,note_on,0,0,0,,6,,,78,127
5559,note_on,0,0,0,,2,,,74,127
5559,note_on,0,0,0,,0,,,72,127
5559,note_on,0,0,0,,0,,,84,127
5559,note_on,0,0,0,,10,,,81,127
5663,note_off,104,0,0,,2,,,50,127
5664,note_on,1,0,0,,0,,,48,127
5768,note_off,104,0,0,,0,,,48,127
5769,note_on,1,0,0,,11,,,46,127
5873,note_off,104,0,0,,11,,,46,127
5874,note_on,1,0,0,,10,,,45,127
5978,note_off,104,0,0,,10,,,45,127
5978,note_off,0,0,0,,10,,,81,127
5978,note_off,0,0,0,,0,,,84,127
5978,note_off,0,0,0,,0,,,72,127
5978,note_off,0,0,0,,2,,,74,127
5978,note_off,0,0,0,,6,,,78,127
5979,note_on,1,0,0,,7,,,43,127
5979,note_on,0,0,0,,7,,,55,127
5979,note_on,0,0,0,,2,,,50,127
5979,note_on,0,0,0,,11,,,46,127
5979,note_on,0,0,0,,7,,,79,127
5979,note_on,0,0,0,,2,,,74,127
5979,note_on,0,0,0,,0,,,84,127
6083,note_off,104,0,0,,0,,,84,127
6084,note_on,1,0,0,,11,,,82,127
6188,note_off,104,0,0,,11,,,82,127
6189,note_on,1,0,0,,10,,,81,127
6293,note_off,104,0,0,,10,,,81,127
6294,note_on,1,0,0,,11,,,82,127
6398,note_off,104,0,0,,11,,,82,127
6398,note_off,0,0,0,,2,,,74,127
6398,note_off,0,0,0,,7,,,79,127
6399,note_on,1,0,0,,7,,,79,127
6744,note_off,345,0,0,,11,,,46,127
6744,note_off,0,0,0,,2,,,50,127
6744,note_off,0,0,0,,7,,,55,127
6744,note_off,0,0,0,,7,,,43,127
6817,note_off,73,0,0,,7,,,79,127
6818,note_on,1,0,0,,7,,,43,127
6818,note_on,0,0,0,,7,,,55,127
6818,note_on,0,0,0,,2,,,50,127
6818,note_on,0,0,0,,11,,,46,127
6818,note_on,0,0,0,,11,,,82,127
6922,note_off,104,0,0,,11,,,82,127
6923,note_on,1,0,0,,7,,,79,127
7027,note_off,104,0,0,,7,,,79,127
7028,note_on,1,0,0,,2,,,74,127
7132,note_off,104,0,0,,2,,,74,127
7133,note_on,1,0,0,,11,,,70,127
7237,note_off,104,0,0,,11,,,70,127
7238,note_on,1,0,0,,7,,,67,127
7342,note_off,104,0,0,,7,,,67,127
7343,note_on,1,0,0,,11,,,70,127
7447,note_off,104,0,0,,11,,,70,127
7448,note_on,1,0,0,,2,,,74,127
7552,note_off,104,0,0,,2,,,74,127
7553,note_on,1,0,0,,7,,,79,127
7657,note_off,104,0,0,,7,,,79,127
7657,note_off,0,0,0,,11,,,46,127
7657,note_off,0,0,0,,2,,,50,127
7657,note_off,0,0,0,,7,,,55,127
7657,note_off,0,0,0,,7,,,43,127
7658,note_on,1,0,0,,10,,,45,127
7658,note_on,0,0,0,,2,,,38,127
7658,note_on,0,0,0,,2,,,50,127
7658,note_on,0,0,0,,6,,,78,127
7762,note_off,104,0,0,,6,,,78,127
7763,note_on,1,0,0,,7,,,79,127
7867,note_off,104,0,0,,7,,,79,127
7868,note_on,1,0,0,,10,,,81,127
7972,note_off,104,0,0,,10,,,81,127
7973,note_on,1,0,0,,7,,,79,127
8077,note_off,104,0,0,,7,,,79,127
8078,note_on,1,0,0,,6,,,78,127
8182,note_off,104,0,0,,6,,,78,127
8183,note_on,1,0,0,,4,,,76,127
8287,note_off,104,0,0,,4,,,76,127
8288,note_on,1,0,0,,2,,,74,127
8392,note_off,104,0,0,,2,,,74,127
8393,note_on,1,0,0,,0,,,72,127
8480,note_off,87,0,0,,0,,,72,127
8496,note_off,16,0,0,,2,,,50,127
8496,note_off,0,0,0,,2,,,38,127
8496,note_off,0,0,0,,10,,,45,127
8497,note_on,1,0,0,,2,,,50,127
8497,note_on,0,0,0,,11,,,46,127
8497,note_on,0,0,0,,7,,,43,127
8497,note_on,0,0,0,,7,,,55,127
8497,note_on,0,0,0,,11,,,82,127
8601,note_off,104,0,0,,11,,,82,127
8602,note_on,1,0,0,,7,,,79,127
8706,note_off,104,0,0,,7,,,79,127
8707,note_on,1,0,0,,2,,,74,127
8811,note_off,104,0,0,,2,,,74,127
8812,note_on,1,0,0,,11,,,70,127
8916,note_off,104,0,0,,11,,,70,127
8916,note_off,0,0,0,,7,,,55,127
8916,note_off,0,0,0,,7,,,43,127
8916,note_off,0,0,0,,11,,,46,127
8916,note_off,0,0,0,,2,,,50,127
8917,note_on,1,0,0,,2,,,50,127
8917,note_on,0,0,0,,11,,,46,127
8917,note_on,0,0,0,,7,,,43,127
8917,note_on,0,0,0,,7,,,55,127
8917,note_on,0,0,0,,7,,,67,127
9021,note_off,104,0,0,,7,,,67,127
9022,note_on,1,0,0,,11,,,70,127
9126,note_off,104,0,0,,11,,,70,127
9127,note_on,1,0,0,,2,,,74,127
9231,note_off,104,0,0,,2,,,74,127
9232,note_on,1,0,0,,11,,,82,127
9232,note_on,0,0,0,,7,,,79,127
9336,note_off,104,0,0,,7,,,79,127
9336,note_off,0,0,0,,11,,,82,127
9336,note_off,0,0,0,,7,,,55,127
9336,note_off,0,0,0,,7,,,43,127
9336,note_off,0,0,0,,11,,,46,127
9336,note_off,0,0,0,,2,,,50,127
9337,note_on,1,0,0,,7,,,79,127
9337,note_on,0,0,0,,11,,,82,127
9442,note_on,105,0,0,,2,,,50,127
9546,note_off,104,0,0,,2,,,50,127
9546,note_off,0,0,0,,11,,,82,127
9546,note_off,0,0,0,,7,,,79,127
9547,note_on,1,0,0,,6,,,54,127
9547,note_on,0,0,0,,6,,,78,127
9547,note_on,0,0,0,,10,,,81,127
9651,note_off,104,0,0,,6,,,54,127
9652,note_on,1,0,0,,10,,,57,127
9756,note_off,104,0,0,,10,,,57,127
9757,note_on,1,0,0,,2,,,50,127
9861,note_off,104,0,0,,2,,,50,127
9862,note_on,1,0,0,,6,,,54,127
9966,note_off,104,0,0,,6,,,54,127
9967,note_on,1,0,0,,10,,,57,127
10071,note_off,104,0,0,,10,,,57,127
10072,note_on,1,0,0,,6,,,54,127
10176,note_off,104,0,0,,6,,,54,127
10176,note_off,0,0,0,,10,,,81,127
10176,note_off,0,0,0,,6,,,78,127
10177,note_on,1,0,0,,2,,,50,127
10177,note_on,0,0,0,,10,,,81,127
10281,note_off,104,0,0,,10,,,81,127
10282,note_on,1,0,0,,6,,,78,127
10386,note_off,104,0,0,,6,,,78,127
10387,note_on,1,0,0,,2,,,74,127
10491,note_off,104,0,0,,2,,,74,127
10492,note_on,1,0,0,,6,,,78,127
10596,note_off,104,0,0,,6,,,78,127
10597,note_on,1,0,0,,10,,,69,127
10701,note_off,104,0,0,,10,,,69,127
10702,note_on,1,0,0,,2,,,74,127
10806,note_off,104,0,0,,2,,,74,127
10807,note_on,1,0,0,,6,,,66,127
10911,note_off,104,0,0,,6,,,66,127
10912,note_on,1,0,0,,0,,,72,127
10912,note_on,0,0,0,,3,,,75,127
11016,note_off,104,0,0,,3,,,75,127
11016,note_off,0,0,0,,0,,,72,127
11017,note_on,1,0,0,,0,,,72,127
11017,note_on,0,0,0,,3,,,75,127
11052,note_off,35,0,0,,2,,,50,127
11122,note_on,70,0,0,,7,,,43,127
11226,note_off,104,0,0,,7,,,43,127
11226,note_off,0,0,0,,3,,,75,127
11226,note_off,0,0,0,,0,,,72,127
11227,note_on,1,0,0,,11,,,46,127
11227,note_on,0,0,0,,11,,,70,127
11227,note_on,0,0,0,,2,,,74,127
11331,note_off,104,0,0,,11,,,46,127
11332,note_on,1,0,0,,2,,,50,127
11436,note_off,104,0,0,,2,,,50,127
11437,note_on,1,0,0,,7,,,55,127
11541,note_off,104,0,0,,7,,,55,127
11542,note_on,1,0,0,,11,,,58,127
11646,note_off,104,0,0,,11,,,58,127
11647,note_on,1,0,0,,2,,,62,127
11751,note_off,104,0,0,,2,,,62,127
11752,note_on,1,0,0,,11,,,58,127
11856,note_off,104,0,0,,11,,,58,127
11856,note_off,0,0,0,,2,,,74,127
11856,note_off,0,0,0,,11,,,70,127
11857,note_on,1,0,0,,7,,,43,127
11857,note_on,0,0,0,,7,,,79,127
11961,note_off,104,0,0,,7,,,79,127
11962,note_on,1,0,0,,2,,,74,127
12066,note_off,104,0,0,,2,,,74,127
12067,note_on,1,0,0,,11,,,70,127
12171,note_off,104,0,0,,11,,,70,127
12172,note_on,1,0,0,,2,,,74,127
12276,note_off,104,0,0,,2,,,74,127
12277,note_on,1,0,0,,7,,,67,127
12381,note_off,104,0,0,,7,,,67,127
12382,note_on,1,0,0,,11,,,70,127
12486,note_off,104,0,0,,11,,,70,127
12487,note_on,1,0,0,,2,,,62,127
12591,note_off,104,0,0,,2,,,62,127
12592,note_on,1,0,0,,11,,,70,127
12592,note_on,0,0,0,,7,,,67,127
12696,note_off,104,0,0,,7,,,67,127
12696,note_off,0,0,0,,11,,,70,127
12697,note_on,1,0,0,,11,,,70,127
12697,note_on,0,0,0,,7,,,67,127
12732,note_off,35,0,0,,7,,,43,127
12802,note_on,70,0,0,,2,,,50,127
12906,note_off,104,0,0,,2,,,50,127
12906,note_off,0,0,0,,7,,,67,127
12906,note_off,0,0,0,,11,,,70,127
12907,note_on,1,0,0,,6,,,54,127
12907,note_on,0,0,0,,10,,,69,127
12907,note_on,0,0,0,,6,,,66,127
13011,note_off,104,0,0,,6,,,54,127
13012,note_on,1,0,0,,10,,,57,127
13116,note_off,104,0,0,,10,,,57,127
13117,note_on,1,0,0,,2,,,50,127
13221,note_off,104,0,0,,2,,,50,127
13222,note_on,1,0,0,,6,,,54,127
13326,note_off,104,0,0,,6,,,54,127
13327,note_on,1,0,0,,10,,,57,127
13431,note_off,104,0,0,,10,,,57,127
13432,note_on,1,0,0,,6,,,54,127
13536,note_off,104,0,0,,6,,,54,127
13536,note_off,0,0,0,,6,,,66,127
13536,note_off,0,0,0,,10,,,69,127
13537,note_on,1,0,0,,2,,,50,127
13537,note_on,0,0,0,,10,,,81,127
13641,note_off,104,0,0,,10,,,81,127
13642,note_on,1,0,0,,6,,,78,127
13746,note_off,104,0,0,,6,,,78,127
13747,note_on,1,0,0,,2,,,74,127
13851,note_off,104,0,0,,2,,,74,127
13852,note_on,1,0,0,,6,,,78,127
13956,note_off,104,0,0,,6,,,78,127
13957,note_on,1,0,0,,10,,,69,127
14061,note_off,104,0,0,,10,,,69,127
14062,note_on,1,0,0,,2,,,74,127
14166,note_off,104,0,0,,2,,,74,127
14167,note_on,1,0,0,,6,,,66,127
14271,note_off,104,0,0,,6,,,66,127
14272,note_on,1,0,0,,0,,,72,127
14272,note_on,0,0,0,,3,,,75,127
14376,note_off,104,0,0,,3,,,75,127
14376,note_off,0,0,0,,0,,,72,127
14377,note_on,1,0,0,,3,,,75,127
14377,note_on,0,0,0,,0,,,72,127
14412,note_off,35,0,0,,2,,,50,127
14482,note_on,70,0,0,,7,,,43,127
14586,note_off,104,0,0,,7,,,43,127
14586,note_off,0,0,0,,0,,,72,127
14586,note_off,0,0,0,,3,,,75,127
14587,note_on,1,0,0,,12,,,47,127
14587,note_on,0,0,0,,2,,,74,127
14587,note_on,0,0,0,,12,,,71,127
14691,note_off,104,0,0,,12,,,47,127
14692,note_on,1,0,0,,2,,,50,127
14796,note_off,104,0,0,,2,,,50,127
14797,note_on,1,0,0,,7,,,55,127
14901,note_off,104,0,0,,7,,,55,127
14902,note_on,1,0,0,,12,,,59,127
15006,note_off,104,0,0,,12,,,59,127
15007,note_on,1,0,0,,2,,,62,127
15111,note_off,104,0,0,,2,,,62,127
15112,note_on,1,0,0,,12,,,59,127
15216,note_off,104,0,0,,12,,,59,127
15216,note_off,0,0,0,,12,,,71,127
15216,note_off,0,0,0,,2,,,74,127
15217,note_on,1,0,0,,7,,,43,127
15217,note_on,0,0,0,,7,,,79,127
15321,note_off,104,0,0,,7,,,79,127
15322,note_on,1,0,0,,2,,,74,127
15426,note_off,104,0,0,,2,,,74,127
15427,note_on,1,0,0,,12,,,71,127
15531,note_off,104,0,0,,12,,,71,127
15532,note_on,1,0,0,,2,,,74,127
15636,note_off,104,0,0,,2,,,74,127
15637,note_on,1,0,0,,7,,,67,127
15741,note_off,104,0,0,,7,,,67,127
15742,note_on,1,0,0,,2,,,74,127
15846,note_off,104,0,0,,2,,,74,127
15847,note_on,1,0,0,,5,,,65,127
15951,note_off,104,0,0,,5,,,65,127
15952,note_on,1,0,0,,5,,,77,127
15952,note_on,0,0,0,,8,,,68,127
16056,note_off,104,0,0,,8,,,68,127
16056,note_off,0,0,0,,5,,,77,127
16057,note_on,1,0,0,,8,,,68,127
16057,note_on,0,0,0,,5,,,77,127
16092,note_off,35,0,0,,7,,,43,127
16162,note_on,70,0,0,,0,,,48,127
16266,note_off,104,0,0,,0,,,48,127
16266,note_off,0,0,0,,5,,,77,127
16266,note_off,0,0,0,,8,,,68,127
16267,note_on,1,0,0,,3,,,51,127
16267,note_on,0,0,0,,3,,,75,127
16267,note_on,0,0,0,,0,,,72,127
16267,note_on,0,0,0,,7,,,67,127
16371,note_off,104,0,0,,3,,,51,127
16372,note_on,1,0,0,,7,,,55,127
16476,note_off,104,0,0,,7,,,55,127
16477,note_on,1,0,0,,0,,,48,127
16581,note_off,104,0,0,,0,,,48,127
16582,note_on,1,0,0,,3,,,51,127
16686,note_off,104,0,0,,3,,,51,127
16687,note_on,1,0,0,,7,,,55,127
16791,note_off,104,0,0,,7,,,55,127
16792,note_on,1,0,0,,3,,,51,127
16896,note_off,104,0,0,,3,,,51,127
16896,note_off,0,0,0,,7,,,67,127
16896,note_off,0,0,0,,0,,,72,127
16896,note_off,0,0,0,,3,,,75,127
16897,note_on,1,0,0,,0,,,48,127
16897,note_on,0,0,0,,0,,,84,127
17001,note_off,104,0,0,,0,,,84,127
17002,note_on,1,0,0,,7,,,79,127
17106,note_off,104,0,0,,7,,,79,127
17107,note_on,1,0,0,,3,,,75,127
17211,note_off,104,0,0,,3,,,75,127
17212,note_on,1,0,0,,7,,,79,127
17316,note_off,104,0,0,,7,,,79,127
17317,note_on,1,0,0,,0,,,72,127
17421,note_off,104,0,0,,0,,,72,127
17422,note_on,1,0,0,,3,,,75,127
17526,note_off,104,0,0,,3,,,75,127
17527,note_on,1,0,0,,7,,,67,127
17631,note_off,104,0,0,,7,,,67,127
17632,note_on,1,0,0,,0,,,72,127
17632,note_on,0,0,0,,3,,,75,127
17736,note_off,104,0,0,,3,,,75,127
17736,note_off,0,0,0,,0,,,72,127
17737,note_on,1,0,0,,3,,,75,127
17737,note_on,0,0,0,,0,,,72,127
17772,note_off,35,0,0,,0,,,48,127
17842,note_on,70,0,0,,7,,,43,127
17946,note_off,104,0,0,,7,,,43,127
17946,note_off,0,0,0,,0,,,72,127
17946,note_off,0,0,0,,3,,,75,127
17947,note_on,1,0,0,,12,,,47,127
17947,note_on,0,0,0,,12,,,71,127
17947,note_on,0,0,0,,2,,,74,127
18051,note_off,104,0,0,,12,,,47,127
18052,note_on,1,0,0,,2,,,50,127
18156,note_off,104,0,0,,2,,,50,127
18157,note_on,1,0,0,,7,,,55,127
18261,note_off,104,0,0,,7,,,55,127
18262,note_on,1,0,0,,12,,,59,127
18366,note_off,104,0,0,,12,,,59,127
18367,note_on,1,0,0,,2,,,62,127
18471,note_off,104,0,0,,2,,,62,127
18472,note_on,1,0,0,,12,,,59,127
18576,note_off,104,0,0,,12,,,59,127
18576,note_off,0,0,0,,2,,,74,127
18576,note_off,0,0,0,,12,,,71,127
18577,note_on,1,0,0,,7,,,43,127
18577,note_on,0,0,0,,7,,,79,127
18681,note_off,104,0,0,,7,,,79,127
18682,note_on,1,0,0,,2,,,74,127
18786,note_off,104,0,0,,2,,,74,127
18787,note_on,1,0,0,,12,,,71,127
18891,note_off,104,0,0,,12,,,71,127
18892,note_on,1,0,0,,2,,,74,127
18996,note_off,104,0,0,,2,,,74,127
18996,note_off,0,0,0,,7,,,43,127
18997,note_on,1,0,0,,7,,,43,127
18997,note_on,0,0,0,,7,,,67,127
19101,note_off,104,0,0,,7,,,67,127
19102,note_on,1,0,0,,2,,,74,127
19206,note_off,104,0,0,,2,,,74,127
19207,note_on,1,0,0,,5,,,65,127
19311,note_off,104,0,0,,5,,,65,127
19312,note_on,1,0,0,,8,,,68,127
19312,note_on,0,0,0,,5,,,77,127
19416,note_off,104,0,0,,5,,,77,127
19416,note_off,0,0,0,,8,,,68,127
19416,note_off,0,0,0,,7,,,43,127
19417,note_on,1,0,0,,0,,,36,127
19417,note_on,0,0,0,,8,,,68,127
19417,note_on,0,0,0,,5,,,77,127
19625,note_off,208,0,0,,5,,,77,127
19625,note_off,0,0,0,,8,,,68,127
19626,note_on,1,0,0,,3,,,75,127
19626,note_on,0,0,0,,0,,,72,127
19626,note_on,0,0,0,,7,,,67,127
19834,note_off,208,0,0,,0,,,36,127
19835,note_on,1,0,0,,0,,,48,127
20043,note_off,208,0,0,,7,,,67,127
20043,note_off,0,0,0,,0,,,72,127
20043,note_off,0,0,0,,3,,,75,127
20044,note_on,1,0,0,,7,,,79,127
20252,note_off,208,0,0,,7,,,79,127
20252,note_off,0,0,0,,0,,,48,127
20253,note_on,1,0,0,,5,,,53,127
20253,note_on,0,0,0,,8,,,80,127
20358,note_on,105,0,0,,5,,,77,127
20384,note_off,26,0,0,,8,,,80,127
20461,note_off,77,0,0,,5,,,77,127
20462,note_on,1,0,0,,3,,,75,127
20566,note_off,104,0,0,,3,,,75,127
20567,note_on,1,0,0,,5,,,77,127
20671,note_off,104,0,0,,5,,,77,127
20671,note_off,0,0,0,,5,,,53,127
20672,note_on,1,0,0,,2,,,50,127
20672,note_on,0,0,0,,5,,,77,127
20777,note_on,105,0,0,,2,,,74,127
20803,note_off,26,0,0,,5,,,77,127
20880,note_off,77,0,0,,2,,,74,127
20881,note_on,1,0,0,,0,,,72,127
20985,note_off,104,0,0,,0,,,72,127
20986,note_on,1,0,0,,2,,,74,127
21090,note_off,104,0,0,,2,,,74,127
21090,note_off,0,0,0,,2,,,50,127
21091,note_on,1,0,0,,3,,,51,127
21091,note_on,0,0,0,,7,,,79,127
21196,note_on,105,0,0,,3,,,75,127
21222,note_off,26,0,0,,7,,,79,127
21299,note_off,77,0,0,,3,,,75,127
21300,note_on,1,0,0,,2,,,74,127
21404,note_off,104,0,0,,2,,,74,127
21405,note_on,1,0,0,,3,,,75,127
21509,note_off,104,0,0,,3,,,75,127
21509,note_off,0,0,0,,3,,,51,127
21510,note_on,1,0,0,,0,,,48,127
21510,note_on,0,0,0,,3,,,75,127
21615,note_on,105,0,0,,0,,,72,127
21641,note_off,26,0,0,,3,,,75,127
21718,note_off,77,0,0,,0,,,72,127
21719,note_on,1,0,0,,12,,,71,127
21823,note_off,104,0,0,,12,,,71,127
21824,note_on,1,0,0,,0,,,72,127
21928,note_off,104,0,0,,0,,,72,127
21928,note_off,0,0,0,,0,,,48,127
21929,note_on,1,0,0,,2,,,50,127
21929,note_on,0,0,0,,5,,,77,127
22034,note_on,105,0,0,,2,,,74,127
22060,note_off,26,0,0,,5,,,77,127
22137,note_off,77,0,0,,2,,,74,127
22138,note_on,1,0,0,,0,,,72,127
22242,note_off,104,0,0,,0,,,72,127
22243,note_on,1,0,0,,2,,,74,127
22347,note_off,104,0,0,,2,,,74,127
22347,note_off,0,0,0,,2,,,50,127
22348,note_on,1,0,0,,0,,,48,127
22348,note_on,0,0,0,,3,,,75,127
22453,note_on,105,0,0,,0,,,72,127
22479,note_off,26,0,0,,3,,,75,127
22556,note_off,77,0,0,,0,,,72,127
22557,note_on,1,0,0,,12,,,71,127
22661,note_off,104,0,0,,12,,,71,127
22662,note_on,1,0,0,,0,,,72,127
22762,note_off,100,0,0,,0,,,48,127
22764,note_off,2,0,0,,0,,,72,127
22766,note_on,2,0,0,,0,,,72,127
22871,note_on,105,0,0,,7,,,55,127
22975,note_off,104,0,0,,7,,,55,127
22975,note_off,0,0,0,,0,,,72,127
22976,note_on,1,0,0,,2,,,50,127
22976,note_on,0,0,0,,2,,,74,127
23080,note_off,104,0,0,,2,,,50,127
23081,note_on,1,0,0,,7,,,43,127
23185,note_off,104,0,0,,7,,,43,127
23186,note_on,1,0,0,,7,,,43,127
23394,note_off,208,0,0,,2,,,74,127
23395,note_on,1,0,0,,5,,,77,127
23603,note_off,208,0,0,,5,,,77,127
23603,note_off,0,0,0,,7,,,43,127
23604,note_on,1,0,0,,3,,,51,127
23604,note_on,0,0,0,,7,,,79,127
23709,note_on,105,0,0,,3,,,75,127
23735,note_off,26,0,0,,7,,,79,127
23812,note_off,77,0,0,,3,,,75,127
23813,note_on,1,0,0,,2,,,74,127
23917,note_off,104,0,0,,2,,,74,127
23918,note_on,1,0,0,,3,,,75,127
24021,note_off,103,0,0,,3,,,75,127
24022,note_off,1,0,0,,3,,,51,127
24023,note_on,1,0,0,,0,,,48,127
24023,note_on,0,0,0,,3,,,75,127
24128,note_on,105,0,0,,0,,,72,127
24154,note_off,26,0,0,,3,,,75,127
24231,note_off,77,0,0,,0,,,72,127
24232,note_on,1,0,0,,11,,,70,127
24336,note_off,104,0,0,,11,,,70,127
24337,note_on,1,0,0,,0,,,72,127
24441,note_off,104,0,0,,0,,,72,127
24441,note_off,0,0,0,,0,,,48,127
24442,note_on,1,0,0,,2,,,50,127
24442,note_on,0,0,0,,5,,,77,127
24547,note_on,105,0,0,,2,,,74,127
24573,note_off,26,0,0,,5,,,77,127
24650,note_off,77,0,0,,2,,,74,127
24651,note_on,1,0,0,,0,,,72,127
24755,note_off,104,0,0,,0,,,72,127
24756,note_on,1,0,0,,2,,,74,127
24859,note_off,103,0,0,,2,,,74,127
24860,note_off,1,0,0,,2,,,50,127
24861,note_on,1,0,0,,11,,,46,127
24861,note_on,0,0,0,,2,,,74,127
24966,note_on,105,0,0,,11,,,70,127
24992,note_off,26,0,0,,2,,,74,127
25069,note_off,77,0,0,,11,,,70,127
25070,note_on,1,0,0,,10,,,69,127
25174,note_off,104,0,0,,10,,,69,127
25175,note_on,1,0,0,,11,,,70,127
25279,note_off,104,0,0,,11,,,70,127
25279,note_off,0,0,0,,11,,,46,127
25280,note_on,1,0,0,,0,,,48,127
25280,note_on,0,0,0,,3,,,75,127
25385,note_on,105,0,0,,0,,,72,127
25411,note_off,26,0,0,,3,,,75,127
25488,note_off,77,0,0,,0,,,72,127
25489,note_on,1,0,0,,11,,,70,127
25593,note_off,104,0,0,,11,,,70,127
25594,note_on,1,0,0,,0,,,72,127
25697,note_off,103,0,0,,0,,,72,127
25698,note_off,1,0,0,,0,,,48,127
25699,note_on,1,0,0,,11,,,46,127
25699,note_on,0,0,0,,0,,,72,127
25804,note_on,105,0,0,,11,,,70,127
25830,note_off,26,0,0,,0,,,72,127
25907,note_off,77,0,0,,11,,,70,127
25908,note_on,1,0,0,,10,,,69,127
26012,note_off,104,0,0,,10,,,69,127
26013,note_on,1,0,0,,11,,,70,127
26113,note_off,100,0,0,,11,,,46,127
26115,note_off,2,0,0,,11,,,70,127
26117,note_on,2,0,0,,11,,,70,127
26222,note_on,105,0,0,,5,,,53,127
26326,note_off,104,0,0,,5,,,53,127
26326,note_off,0,0,0,,11,,,70,127
26327,note_on,1,0,0,,0,,,48,127
26327,note_on,0,0,0,,0,,,72,127
26431,note_off,104,0,0,,0,,,48,127
26432,note_on,1,0,0,,5,,,41,127
26536,note_off,104,0,0,,5,,,41,127
26537,note_on,1,0,0,,5,,,53,127
26745,note_off,208,0,0,,5,,,53,127
26745,note_off,0,0,0,,0,,,72,127
26746,note_on,1,0,0,,10,,,57,127
26746,note_on,0,0,0,,5,,,77,127
26954,note_off,208,0,0,,5,,,77,127
26954,note_off,0,0,0,,10,,,57,127
26955,note_on,1,0,0,,11,,,58,127
26955,note_on,0,0,0,,7,,,79,127
27059,note_off,104,0,0,,11,,,58,127
27060,note_on,1,0,0,,7,,,55,127
27164,note_off,104,0,0,,7,,,55,127
27165,note_on,1,0,0,,4,,,52,127
27269,note_off,104,0,0,,4,,,52,127
27270,note_on,1,0,0,,0,,,48,127
27374,note_off,104,0,0,,0,,,48,127
27375,note_on,1,0,0,,11,,,58,127
27479,note_off,104,0,0,,7,,,79,127
27480,note_on,1,0,0,,7,,,79,127
27584,note_off,104,0,0,,7,,,79,127
27585,note_on,1,0,0,,5,,,77,127
27689,note_off,104,0,0,,5,,,77,127
27690,note_on,1,0,0,,4,,,76,127
27794,note_off,104,0,0,,4,,,76,127
27794,note_off,0,0,0,,11,,,58,127
27795,note_on,1,0,0,,10,,,57,127
27795,note_on,0,0,0,,5,,,77,127
27899,note_off,104,0,0,,10,,,57,127
27900,note_on,1,0,0,,5,,,53,127
28004,note_off,104,0,0,,5,,,53,127
28005,note_on,1,0,0,,2,,,50,127
28109,note_off,104,0,0,,2,,,50,127
28110,note_on,1,0,0,,11,,,46,127
28214,note_off,104,0,0,,11,,,46,127
28215,note_on,1,0,0,,10,,,57,127
28319,note_off,104,0,0,,5,,,77,127
28320,note_on,1,0,0,,5,,,77,127
28424,note_off,104,0,0,,5,,,77,127
28425,note_on,1,0,0,,4,,,76,127
28529,note_off,104,0,0,,4,,,76,127
28530,note_on,1,0,0,,2,,,74,127
28634,note_off,104,0,0,,2,,,74,127
28634,note_off,0,0,0,,10,,,57,127
28635,note_on,1,0,0,,7,,,55,127
28635,note_on,0,0,0,,4,,,76,127
28739,note_off,104,0,0,,7,,,55,127
28740,note_on,1,0,0,,4,,,52,127
28844,note_off,104,0,0,,4,,,52,127
28845,note_on,1,0,0,,1,,,49,127
28949,note_off,104,0,0,,1,,,49,127
28950,note_on,1,0,0,,10,,,45,127
29054,note_off,104,0,0,,10,,,45,127
29055,note_on,1,0,0,,7,,,55,127
29159,note_off,104,0,0,,4,,,76,127
29160,note_on,1,0,0,,4,,,76,127
29264,note_off,104,0,0,,4,,,76,127
29265,note_on,1,0,0,,2,,,74,127
29369,note_off,104,0,0,,2,,,74,127
29370,note_on,1,0,0,,1,,,73,127
29474,note_off,104,0,0,,1,,,73,127
29474,note_off,0,0,0,,7,,,55,127
29475,note_on,1,0,0,,2,,,50,127
29475,note_on,0,0,0,,2,,,74,127
29579,note_off,104,0,0,,2,,,74,127
29580,note_on,1,0,0,,1,,,73,127
29684,note_off,104,0,0,,1,,,73,127
29685,note_on,1,0,0,,2,,,74,127
29789,note_off,104,0,0,,2,,,74,127
29790,note_on,1,0,0,,4,,,76,127
29894,note_off,104,0,0,,4,,,76,127
29895,note_on,1,0,0,,2,,,74,127
30103,note_off,208,0,0,,2,,,74,127
30103,note_off,0,0,0,,2,,,50,127
30104,note_on,1,0,0,,10,,,57,127
30104,note_on,0,0,0,,5,,,65,127
30312,note_off,208,0,0,,5,,,65,127
30312,note_off,0,0,0,,10,,,57,127
30313,note_on,1,0,0,,11,,,58,127
30313,note_on,0,0,0,,7,,,67,127
30417,note_off,104,0,0,,11,,,58,127
30418,note_on,1,0,0,,7,,,55,127
30522,note_off,104,0,0,,7,,,55,127
30523,note_on,1,0,0,,4,,,52,127
30627,note_off,104,0,0,,4,,,52,127
30628,note_on,1,0,0,,0,,,48,127
30732,note_off,104,0,0,,0,,,48,127
30733,note_on,1,0,0,,11,,,58,127
30837,note_off,104,0,0,,7,,,67,127
30838,note_on,1,0,0,,7,,,67,127
30942,note_off,104,0,0,,7,,,67,127
30943,note_on,1,0,0,,5,,,65,127
31047,note_off,104,0,0,,5,,,65,127
31048,note_on,1,0,0,,4,,,64,127
31152,note_off,104,0,0,,4,,,64,127
31152,note_off,0,0,0,,11,,,58,127
31153,note_on,1,0,0,,10,,,57,127
31153,note_on,0,0,0,,5,,,65,127
31257,note_off,104,0,0,,10,,,57,127
31258,note_on,1,0,0,,5,,,53,127
31362,note_off,104,0,0,,5,,,53,127
31363,note_on,1,0,0,,2,,,50,127
31467,note_off,104,0,0,,2,,,50,127
31468,note_on,1,0,0,,11,,,46,127
31572,note_off,104,0,0,,11,,,46,127
31573,note_on,1,0,0,,10,,,57,127
31677,note_off,104,0,0,,5,,,65,127
31678,note_on,1,0,0,,5,,,65,127
31782,note_off,104,0,0,,5,,,65,127
31783,note_on,1,0,0,,4,,,64,127
31887,note_off,104,0,0,,4,,,64,127
31888,note_on,1,0,0,,2,,,62,127
31992,note_off,104,0,0,,2,,,62,127
31992,note_off,0,0,0,,10,,,57,127
31993,note_on,1,0,0,,7,,,55,127
31993,note_on,0,0,0,,4,,,64,127
32097,note_off,104,0,0,,7,,,55,127
32098,note_on,1,0,0,,4,,,52,127
32202,note_off,104,0,0,,4,,,52,127
32203,note_on,1,0,0,,1,,,49,127
32307,note_off,104,0,0,,1,,,49,127
32308,note_on,1,0,0,,10,,,45,127
32412,note_off,104,0,0,,10,,,45,127
32413,note_on,1,0,0,,7,,,55,127
32517,note_off,104,0,0,,4,,,64,127
32518,note_on,1,0,0,,4,,,64,127
32622,note_off,104,0,0,,4,,,64,127
32623,note_on,1,0,0,,2,,,62,127
32727,note_off,104,0,0,,2,,,62,127
32728,note_on,1,0,0,,1,,,61,127
32832,note_off,104,0,0,,1,,,61,127
32832,note_off,0,0,0,,7,,,55,127
32833,note_on,1,0,0,,5,,,53,127
32833,note_on,0,0,0,,2,,,50,127
32833,note_on,0,0,0,,2,,,62,127
32937,note_off,104,0,0,,2,,,62,127
32938,note_on,1,0,0,,2,,,74,127
33042,note_off,104,0,0,,2,,,74,127
33042,note_off,0,0,0,,5,,,53,127
33043,note_on,1,0,0,,7,,,55,127
33043,note_on,0,0,0,,2,,,62,127
33147,note_off,104,0,0,,2,,,62,127
33148,note_on,1,0,0,,11,,,70,127
33252,note_off,104,0,0,,11,,,70,127
33252,note_off,0,0,0,,7,,,55,127
33252,note_off,0,0,0,,2,,,50,127
33253,note_on,1,0,0,,10,,,57,127
33253,note_on,0,0,0,,2,,,50,127
33253,note_on,0,0,0,,2,,,62,127
33357,note_off,104,0,0,,2,,,62,127
33358,note_on,1,0,0,,10,,,69,127
33462,note_off,104,0,0,,10,,,69,127
33462,note_off,0,0,0,,10,,,57,127
33463,note_on,1,0,0,,11,,,58,127
33463,note_on,0,0,0,,2,,,62,127
33567,note_off,104,0,0,,2,,,62,127
33568,note_on,1,0,0,,7,,,67,127
33672,note_off,104,0,0,,7,,,67,127
33672,note_off,0,0,0,,11,,,58,127
33672,note_off,0,0,0,,2,,,50,127
33673,note_on,1,0,0,,2,,,50,127
33673,note_on,0,0,0,,10,,,57,127
33673,note_on,0,0,0,,2,,,62,127
33777,note_off,104,0,0,,2,,,62,127
33778,note_on,1,0,0,,10,,,69,127
33882,note_off,104,0,0,,10,,,69,127
33882,note_off,0,0,0,,10,,,57,127
33883,note_on,1,0,0,,7,,,55,127
33883,note_on,0,0,0,,2,,,62,127
33987,note_off,104,0,0,,2,,,62,127
33988,note_on,1,0,0,,7,,,67,127
34092,note_off,104,0,0,,7,,,67,127
34092,note_off,0,0,0,,7,,,55,127
34092,note_off,0,0,0,,2,,,50,127
34093,note_on,1,0,0,,2,,,50,127
34093,note_on,0,0,0,,5,,,53,127
34093,note_on,0,0,0,,2,,,62,127
34197,note_off,104,0,0,,2,,,62,127
34198,note_on,1,0,0,,5,,,65,127
34302,note_off,104,0,0,,5,,,65,127
34302,note_off,0,0,0,,5,,,53,127
34303,note_on,1,0,0,,7,,,55,127
34303,note_on,0,0,0,,2,,,62,127
34407,note_off,104,0,0,,2,,,62,127
34408,note_on,1,0,0,,4,,,64,127
34512,note_off,104,0,0,,4,,,64,127
34512,note_off,0,0,0,,7,,,55,127
34512,note_off,0,0,0,,2,,,50,127
34513,note_on,1,0,0,,10,,,57,127
34513,note_on,0,0,0,,2,,,50,127
34513,note_on,0,0,0,,2,,,62,127
34617,note_off,104,0,0,,2,,,62,127
34618,note_on,1,0,0,,10,,,69,127
34722,note_off,104,0,0,,10,,,69,127
34722,note_off,0,0,0,,10,,,57,127
34723,note_on,1,0,0,,11,,,58,127
34723,note_on,0,0,0,,2,,,62,127
34827,note_off,104,0,0,,2,,,62,127
34828,note_on,1,0,0,,7,,,67,127
34932,note_off,104,0,0,,7,,,67,127
34932,note_off,0,0,0,,11,,,58,127
34932,note_off,0,0,0,,2,,,50,127
34933,note_on,1,0,0,,10,,,57,127
34933,note_on,0,0,0,,2,,,50,127
34933,note_on,0,0,0,,2,,,62,127
35037,note_off,104,0,0,,2,,,62,127
35038,note_on,1,0,0,,5,,,65,127
35142,note_off,104,0,0,,5,,,65,127
35142,note_off,0,0,0,,10,,,57,127
35143,note_on,1,0,0,,7,,,55,127
35143,note_on,0,0,0,,2,,,62,127
35247,note_off,104,0,0,,2,,,62,127
35248,note_on,1,0,0,,4,,,64,127
35343,note_off,95,0,0,,4,,,64,127
35352,note_off,9,0,0,,7,,,55,127
35352,note_off,0,0,0,,2,,,50,127
35353,note_on,1,0,0,,2,,,50,127
35458,note_on,105,0,0,,2,,,62,127
35473,note_off,15,0,0,,2,,,50,127
35562,note_on,89,0,0,,10,,,45,127
35577,note_off,15,0,0,,2,,,62,127
35666,note_on,89,0,0,,2,,,62,127
35681,note_off,15,0,0,,10,,,45,127
35770,note_on,89,0,0,,2,,,50,127
35785,note_off,15,0,0,,2,,,62,127
35874,note_on,89,0,0,,2,,,62,127
35889,note_off,15,0,0,,2,,,50,127
35978,note_on,89,0,0,,5,,,53,127
35993,note_off,15,0,0,,2,,,62,127
36082,note_on,89,0,0,,2,,,62,127
36097,note_off,15,0,0,,5,,,53,127
36186,note_on,89,0,0,,2,,,50,127
36201,note_off,15,0,0,,2,,,62,127
36290,note_on,89,0,0,,2,,,62,127
36305,note_off,15,0,0,,2,,,50,127
36394,note_on,89,0,0,,10,,,45,127
36409,note_off,15,0,0,,2,,,62,127
36498,note_on,89,0,0,,2,,,62,127
36513,note_off,15,0,0,,10,,,45,127
36602,note_on,89,0,0,,11,,,46,127
36617,note_off,15,0,0,,2,,,62,127
36706,note_on,89,0,0,,10,,,69,127
36721,note_off,15,0,0,,11,,,46,127
36810,note_on,89,0,0,,2,,,50,127
36825,note_off,15,0,0,,10,,,69,127
36914,note_on,89,0,0,,10,,,69,127
36929,note_off,15,0,0,,2,,,50,127
37018,note_on,89,0,0,,4,,,52,127
37033,note_off,15,0,0,,10,,,69,127
37122,note_on,89,0,0,,7,,,67,127
37137,note_off,15,0,0,,4,,,52,127
37226,note_on,89,0,0,,7,,,55,127
37241,note_off,15,0,0,,7,,,67,127
37330,note_on,89,0,0,,7,,,67,127
37345,note_off,15,0,0,,7,,,55,127
37434,note_on,89,0,0,,4,,,52,127
37449,note_off,15,0,0,,7,,,67,127
37538,note_on,89,0,0,,7,,,67,127
37553,note_off,15,0,0,,4,,,52,127
37642,note_on,89,0,0,,2,,,50,127
37657,note_off,15,0,0,,7,,,67,127
37746,note_on,89,0,0,,7,,,67,127
37761,note_off,15,0,0,,2,,,50,127
37850,note_on,89,0,0,,1,,,49,127
37865,note_off,15,0,0,,7,,,67,127
37954,note_on,89,0,0,,7,,,67,127
37969,note_off,15,0,0,,1,,,49,127
38058,note_on,89,0,0,,10,,,45,127
38073,note_off,15,0,0,,7,,,67,127
38162,note_on,89,0,0,,7,,,67,127
38177,note_off,15,0,0,,10,,,45,127
38266,note_on,89,0,0,,2,,,50,127
38281,note_off,15,0,0,,7,,,67,127
38370,note_on,89,0,0,,5,,,65,127
38385,note_off,15,0,0,,2,,,50,127
38474,note_on,89,0,0,,5,,,53,127
38489,note_off,15,0,0,,5,,,65,127
38578,note_on,89,0,0,,5,,,65,127
38593,note_off,15,0,0,,5,,,53,127
38682,note_on,89,0,0,,2,,,50,127
38697,note_off,15,0,0,,5,,,65,127
38786,note_on,89,0,0,,5,,,65,127
38801,note_off,15,0,0,,2,,,50,127
38890,note_on,89,0,0,,0,,,48,127
38905,note_off,15,0,0,,5,,,65,127
38994,note_on,89,0,0,,5,,,65,127
39009,note_off,15,0,0,,0,,,48,127
39098,note_on,89,0,0,,11,,,46,127
39113,note_off,15,0,0,,5,,,65,127
39202,note_on,89,0,0,,5,,,65,127
39217,note_off,15,0,0,,11,,,46,127
39306,note_on,89,0,0,,7,,,43,127
39321,note_off,15,0,0,,5,,,65,127
39410,note_on,89,0,0,,5,,,65,127
39425,note_off,15,0,0,,7,,,43,127
39514,note_on,89,0,0,,1,,,49,127
39529,note_off,15,0,0,,5,,,65,127
39618,note_on,89,0,0,,4,,,64,127
39633,note_off,15,0,0,,1,,,49,127
39722,note_on,89,0,0,,4,,,52,127
39737,note_off,15,0,0,,4,,,64,127
39826,note_on,89,0,0,,4,,,64,127
39841,note_off,15,0,0,,4,,,52,127
39930,note_on,89,0,0,,10,,,45,127
39945,note_off,15,0,0,,4,,,64,127
40034,note_on,89,0,0,,4,,,64,127
40049,note_off,15,0,0,,10,,,45,127
40138,note_on,89,0,0,,7,,,43,127
40153,note_off,15,0,0,,4,,,64,127
40242,note_on,89,0,0,,4,,,64,127
40257,note_off,15,0,0,,7,,,43,127
40337,note_off,80,0,0,,4,,,64,127
40347,note_on,10,0,0,,5,,,41,127
40452,note_on,105,0,0,,2,,,62,127
40467,note_off,15,0,0,,5,,,41,127
40556,note_on,89,0,0,,7,,,43,127
40571,note_off,15,0,0,,2,,,62,127
40660,note_on,89,0,0,,4,,,64,127
40675,note_off,15,0,0,,7,,,43,127
40764,note_on,89,0,0,,10,,,45,127
40779,note_off,15,0,0,,4,,,64,127
40868,note_on,89,0,0,,5,,,65,127
40883,note_off,15,0,0,,10,,,45,127
40972,note_on,89,0,0,,12,,,47,127
40987,note_off,15,0,0,,5,,,65,127
41076,note_on,89,0,0,,7,,,67,127
41091,note_off,15,0,0,,12,,,47,127
41180,note_on,89,0,0,,1,,,49,127
41195,note_off,15,0,0,,7,,,67,127
41284,note_on,89,0,0,,10,,,69,127
41299,note_off,15,0,0,,1,,,49,127
41388,note_on,89,0,0,,2,,,50,127
41403,note_off,15,0,0,,10,,,69,127
41492,note_on,89,0,0,,11,,,70,127
41507,note_off,15,0,0,,2,,,50,127
41587,note_off,80,0,0,,11,,,70,127
41597,note_on,10,0,0,,10,,,45,127
41806,note_on,209,0,0,,2,,,50,127
41911,note_off,105,0,0,,10,,,45,127
42015,note_off,104,0,0,,2,,,50,127
42016,note_on,1,0,0,,4,,,52,127
42016,note_on,0,0,0,,1,,,49,127
42016,note_on,0,0,0,,10,,,45,127
42225,note_on,209,0,0,,10,,,69,127
42225,note_on,0,0,0,,1,,,73,127
42225,note_on,0,0,0,,4,,,76,127
42433,note_off,208,0,0,,4,,,76,127
42433,note_off,0,0,0,,1,,,73,127
42433,note_off,0,0,0,,10,,,69,127
42433,note_off,0,0,0,,10,,,45,127
42433,note_off,0,0,0,,1,,,49,127
42433,note_off,0,0,0,,4,,,52,127
42434,note_on,1,0,0,,2,,,62,127
42434,note_on,0,0,0,,2,,,50,127
42434,note_on,0,0,0,,10,,,57,127
42434,note_on,0,0,0,,7,,,79,127
42434,note_on,0,0,0,,10,,,69,127
42434,note_on,0,0,0,,2,,,74,127
42538,note_off,104,0,0,,10,,,69,127
42538,note_off,0,0,0,,7,,,79,127
42539,note_on,1,0,0,,5,,,77,127
42643,note_off,104,0,0,,5,,,77,127
42643,note_off,0,0,0,,10,,,57,127
42643,note_off,0,0,0,,2,,,62,127
42644,note_on,1,0,0,,7,,,55,127
42644,note_on,0,0,0,,4,,,76,127
42747,note_off,103,0,0,,2,,,74,127
42748,note_off,1,0,0,,4,,,76,127
42749,note_on,1,0,0,,2,,,74,127
42849,note_off,100,0,0,,2,,,50,127
42852,note_off,3,0,0,,2,,,74,127
42852,note_off,0,0,0,,7,,,55,127
42853,note_on,1,0,0,,2,,,50,127
42853,note_on,0,0,0,,5,,,53,127
42853,note_on,0,0,0,,10,,,45,127
42853,note_on,0,0,0,,10,,,69,127
42853,note_on,0,0,0,,10,,,81,127
43061,note_off,208,0,0,,10,,,81,127
43061,note_off,0,0,0,,10,,,69,127
43061,note_off,0,0,0,,5,,,53,127
43061,note_off,0,0,0,,2,,,50,127
43062,note_on,1,0,0,,4,,,52,127
43062,note_on,0,0,0,,7,,,67,127
43062,note_on,0,0,0,,1,,,73,127
43267,note_off,205,0,0,,10,,,45,127
43270,note_off,3,0,0,,1,,,73,127
43270,note_off,0,0,0,,7,,,67,127
43270,note_off,0,0,0,,4,,,52,127
43271,note_on,1,0,0,,10,,,57,127
43271,note_on,0,0,0,,2,,,62,127
43271,note_on,0,0,0,,2,,,50,127
43271,note_on,0,0,0,,5,,,65,127
43271,note_on,0,0,0,,10,,,69,127
43271,note_on,0,0,0,,2,,,74,127
43478,note_off,207,0,0,,2,,,62,127
43479,note_off,1,0,0,,2,,,74,127
43479,note_off,0,0,0,,10,,,69,127
43479,note_off,0,0,0,,5,,,65,127
43480,note_on,1,0,0,,2,,,62,127
43687,note_off,207,0,0,,2,,,62,127
43689,note_on,2,0,0,,2,,,62,127
43897,note_off,208,0,0,,2,,,62,127
43897,note_off,0,0,0,,2,,,50,127
43897,note_off,0,0,0,,10,,,57,127
43898,note_on,1,0,0,,4,,,52,127
43898,note_on,0,0,0,,10,,,57,127
43898,note_on,0,0,0,,10,,,45,127
43898,note_on,0,0,0,,1,,,73,127
43898,note_on,0,0,0,,4,,,76,127
44106,note_off,208,0,0,,4,,,76,127
44106,note_off,0,0,0,,1,,,73,127
44106,note_off,0,0,0,,10,,,45,127
44106,note_off,0,0,0,,10,,,57,127
44106,note_off,0,0,0,,4,,,52,127
44107,note_on,1,0,0,,5,,,53,127
44107,note_on,0,0,0,,10,,,57,127
44107,note_on,0,0,0,,2,,,50,127
44107,note_on,0,0,0,,7,,,79,127
44107,note_on,0,0,0,,2,,,74,127
44211,note_off,104,0,0,,7,,,79,127
44212,note_on,1,0,0,,5,,,77,127
44316,note_off,104,0,0,,5,,,77,127
44316,note_off,0,0,0,,2,,,50,127
44316,note_off,0,0,0,,10,,,57,127
44316,note_off,0,0,0,,5,,,53,127
44317,note_on,1,0,0,,2,,,50,127
44317,note_on,0,0,0,,7,,,55,127
44317,note_on,0,0,0,,7,,,43,127
44317,note_on,0,0,0,,4,,,76,127
44420,note_off,103,0,0,,2,,,74,127
44421,note_off,1,0,0,,4,,,76,127
44422,note_on,1,0,0,,2,,,74,127
44526,note_off,104,0,0,,2,,,74,127
44526,note_off,0,0,0,,7,,,43,127
44526,note_off,0,0,0,,7,,,55,127
44526,note_off,0,0,0,,2,,,50,127
44527,note_on,1,0,0,,2,,,50,127
44527,note_on,0,0,0,,10,,,57,127
44527,note_on,0,0,0,,10,,,45,127
44527,note_on,0,0,0,,10,,,81,127
44735,note_off,208,0,0,,10,,,81,127
44735,note_off,0,0,0,,10,,,45,127
44735,note_off,0,0,0,,10,,,57,127
44735,note_off,0,0,0,,2,,,50,127
44736,note_on,1,0,0,,4,,,52,127
44736,note_on,0,0,0,,10,,,57,127
44736,note_on,0,0,0,,10,,,45,127
44736,note_on,0,0,0,,1,,,73,127
44944,note_off,208,0,0,,1,,,73,127
44944,note_off,0,0,0,,10,,,45,127
44944,note_off,0,0,0,,10,,,57,127
44944,note_off,0,0,0,,4,,,52,127
44945,note_on,1,0,0,,10,,,45,127
44945,note_on,0,0,0,,2,,,50,127
44945,note_on,0,0,0,,2,,,38,127
44945,note_on,0,0,0,,1,,,73,127
45153,note_off,208,0,0,,1,,,73,127
45154,note_on,1,0,0,,2,,,74,127
45678,note_off,524,0,0,,2,,,74,127
45709,note_off,31,0,0,,2,,,38,127
45709,note_off,0,0,0,,2,,,50,127
45709,note_off,0,0,0,,10,,,45,127
45783,note_on,74,0,0,,11,,,58,127
45783,note_on,0,0,0,,5,,,53,127
45783,note_on,0,0,0,,11,,,46,127
45783,note_on,0,0,0,,2,,,74,127
45783,note_on,0,0,0,,5,,,77,127
45783,note_on,0,0,0,,11,,,82,127
45783,note_on,0,0,0,,11,,,70,127
46201,note_off,418,0,0,,11,,,70,127
46201,note_off,0,0,0,,11,,,82,127
46201,note_off,0,0,0,,5,,,77,127
46201,note_off,0,0,0,,2,,,74,127
46201,note_off,0,0,0,,11,,,46,127
46201,note_off,0,0,0,,5,,,53,127
46201,note_off,0,0,0,,11,,,58,127
46202,note_on,1,0,0,,10,,,57,127
46202,note_on,0,0,0,,10,,,45,127
46202,note_on,0,0,0,,0,,,48,127
46202,note_on,0,0,0,,5,,,53,127
46202,note_on,0,0,0,,0,,,72,127
46202,note_on,0,0,0,,3,,,75,127
46202,note_on,0,0,0,,10,,,81,127
46202,note_on,0,0,0,,0,,,84,127
46620,note_off,418,0,0,,0,,,84,127
46620,note_off,0,0,0,,10,,,81,127
46620,note_off,0,0,0,,3,,,75,127
46620,note_off,0,0,0,,0,,,72,127
46620,note_off,0,0,0,,5,,,53,127
46620,note_off,0,0,0,,0,,,48,127
46620,note_off,0,0,0,,10,,,45,127
46620,note_off,0,0,0,,10,,,57,127
46621,note_on,1,0,0,,11,,,58,127
46621,note_on,0,0,0,,5,,,53,127
46621,note_on,0,0,0,,2,,,50,127
46621,note_on,0,0,0,,11,,,46,127
46621,note_on,0,0,0,,2,,,74,127
46621,note_on,0,0,0,,5,,,77,127
46621,note_on,0,0,0,,11,,,82,127
46725,note_off,104,0,0,,11,,,82,127
46726,note_on,1,0,0,,10,,,81,127
46830,note_off,104,0,0,,10,,,81,127
46831,note_on,1,0,0,,7,,,79,127
46935,note_off,104,0,0,,7,,,79,127
46936,note_off,1,0,0,,5,,,77,127
46936,note_on,0,0,0,,5,,,77,127
47040,note_off,104,0,0,,5,,,77,127
47040,note_off,0,0,0,,2,,,74,127
47041,note_on,1,0,0,,3,,,75,127
47145,note_off,104,0,0,,3,,,75,127
47146,note_on,1,0,0,,2,,,74,127
47250,note_off,104,0,0,,2,,,74,127
47251,note_on,1,0,0,,0,,,72,127
47355,note_off,104,0,0,,0,,,72,127
47356,note_on,1,0,0,,11,,,70,127
47387,note_off,31,0,0,,11,,,46,127
47387,note_off,0,0,0,,2,,,50,127
47387,note_off,0,0,0,,5,,,53,127
47387,note_off,0,0,0,,11,,,58,127
47460,note_off,73,0,0,,11,,,70,127
47461,note_on,1,0,0,,0,,,60,127
47461,note_on,0,0,0,,3,,,51,127
47461,note_on,0,0,0,,11,,,58,127
47461,note_on,0,0,0,,0,,,72,127
47565,note_off,104,0,0,,0,,,72,127
47566,note_on,1,0,0,,11,,,70,127
47670,note_off,104,0,0,,11,,,70,127
47671,note_on,1,0,0,,10,,,69,127
47775,note_off,104,0,0,,10,,,69,127
47776,note_on,1,0,0,,7,,,67,127
47880,note_off,104,0,0,,7,,,67,127
47880,note_off,0,0,0,,11,,,58,127
47880,note_off,0,0,0,,3,,,51,127
47880,note_off,0,0,0,,0,,,60,127
47881,note_on,1,0,0,,10,,,57,127
47881,note_on,0,0,0,,0,,,60,127
47881,note_on,0,0,0,,5,,,53,127
47881,note_on,0,0,0,,5,,,77,127
47985,note_off,104,0,0,,5,,,77,127
47986,note_on,1,0,0,,3,,,75,127
48090,note_off,104,0,0,,3,,,75,127
48091,note_on,1,0,0,,2,,,74,127
48195,note_off,104,0,0,,2,,,74,127
48196,note_on,1,0,0,,0,,,72,127
48300,note_off,104,0,0,,0,,,72,127
48300,note_off,0,0,0,,5,,,53,127
48300,note_off,0,0,0,,0,,,60,127
48300,note_off,0,0,0,,10,,,57,127
48301,note_on,1,0,0,,11,,,58,127
48301,note_on,0,0,0,,5,,,53,127
48301,note_on,0,0,0,,11,,,46,127
48301,note_on,0,0,0,,3,,,75,127
48405,note_off,104,0,0,,3,,,75,127
48406,note_on,1,0,0,,2,,,74,127
48510,note_off,104,0,0,,2,,,74,127
48511,note_on,1,0,0,,0,,,72,127
48615,note_off,104,0,0,,0,,,72,127
48616,note_on,1,0,0,,2,,,74,127
48720,note_off,104,0,0,,2,,,74,127
48721,note_on,1,0,0,,11,,,70,127
49139,note_off,418,0,0,,11,,,70,127
49140,note_on,1,0,0,,11,,,82,127
49245,note_on,105,0,0,,2,,,74,127
49349,note_off,104,0,0,,2,,,74,127
49349,note_off,0,0,0,,11,,,46,127
49349,note_off,0,0,0,,5,,,53,127
49349,note_off,0,0,0,,11,,,58,127
49350,note_on,1,0,0,,11,,,58,127
49350,note_on,0,0,0,,0,,,72,127
49454,note_off,104,0,0,,0,,,72,127
49455,note_on,1,0,0,,2,,,74,127
49559,note_off,104,0,0,,2,,,74,127
49559,note_off,0,0,0,,11,,,58,127
49559,note_off,0,0,0,,11,,,82,127
49560,note_on,1,0,0,,10,,,57,127
49560,note_on,0,0,0,,0,,,84,127
49665,note_on,105,0,0,,3,,,75,127
49769,note_off,104,0,0,,3,,,75,127
49769,note_off,0,0,0,,10,,,57,127
49770,note_on,1,0,0,,5,,,53,127
49770,note_on,0,0,0,,2,,,74,127
49874,note_off,104,0,0,,2,,,74,127
49875,note_on,1,0,0,,3,,,75,127
49979,note_off,104,0,0,,3,,,75,127
49979,note_off,0,0,0,,0,,,84,127
49980,note_on,1,0,0,,11,,,82,127
50085,note_on,105,0,0,,2,,,74,127
50098,note_off,13,0,0,,5,,,53,127
50189,note_off,91,0,0,,2,,,74,127
50190,note_on,1,0,0,,11,,,58,127
50190,note_on,0,0,0,,0,,,72,127
50294,note_off,104,0,0,,0,,,72,127
50295,note_on,1,0,0,,2,,,74,127
50399,note_off,104,0,0,,2,,,74,127
50399,note_off,0,0,0,,11,,,58,127
50399,note_off,0,0,0,,11,,,82,127
50400,note_on,1,0,0,,10,,,57,127
50400,note_on,0,0,0,,0,,,84,127
50505,note_on,105,0,0,,3,,,75,127
50609,note_off,104,0,0,,3,,,75,127
50609,note_off,0,0,0,,10,,,57,127
50610,note_on,1,0,0,,5,,,53,127
50610,note_on,0,0,0,,2,,,74,127
50714,note_off,104,0,0,,2,,,74,127
50715,note_on,1,0,0,,3,,,75,127
50819,note_off,104,0,0,,3,,,75,127
50819,note_off,0,0,0,,5,,,53,127
50819,note_off,0,0,0,,0,,,84,127
50820,note_on,1,0,0,,11,,,58,127
50820,note_on,0,0,0,,11,,,82,127
50925,note_on,105,0,0,,2,,,74,127
51029,note_off,104,0,0,,2,,,74,127
51029,note_off,0,0,0,,11,,,58,127
51030,note_on,1,0,0,,11,,,46,127
51030,note_on,0,0,0,,11,,,58,127
51030,note_on,0,0,0,,0,,,72,127
51134,note_off,104,0,0,,0,,,72,127
51135,note_on,1,0,0,,2,,,74,127
51239,note_off,104,0,0,,2,,,74,127
51239,note_off,0,0,0,,11,,,58,127
51239,note_off,0,0,0,,11,,,46,127
51239,note_off,0,0,0,,11,,,82,127
51240,note_on,1,0,0,,10,,,45,127
51240,note_on,0,0,0,,10,,,57,127
51240,note_on,0,0,0,,0,,,84,127
51345,note_on,105,0,0,,3,,,75,127
51449,note_off,104,0,0,,3,,,75,127
51449,note_off,0,0,0,,10,,,57,127
51449,note_off,0,0,0,,10,,,45,127
51450,note_on,1,0,0,,5,,,41,127
51450,note_on,0,0,0,,5,,,53,127
51450,note_on,0,0,0,,2,,,74,127
51554,note_off,104,0,0,,2,,,74,127
51555,note_off,1,0,0,,0,,,84,127
51555,note_on,0,0,0,,3,,,75,127
51659,note_off,104,0,0,,3,,,75,127
51659,note_off,0,0,0,,5,,,53,127
51659,note_off,0,0,0,,5,,,41,127
51660,note_on,1,0,0,,11,,,46,127
51660,note_on,0,0,0,,11,,,58,127
51660,note_on,0,0,0,,11,,,82,127
51764,note_off,104,0,0,,11,,,82,127
51765,note_on,1,0,0,,2,,,74,127
51869,note_off,104,0,0,,2,,,74,127
51870,note_on,1,0,0,,10,,,81,127
51974,note_off,104,0,0,,10,,,81,127
51975,note_on,1,0,0,,0,,,72,127
52079,note_off,104,0,0,,0,,,72,127
52080,note_on,1,0,0,,7,,,79,127
52184,note_off,104,0,0,,7,,,79,127
52185,note_on,1,0,0,,11,,,70,127
52289,note_off,104,0,0,,11,,,70,127
52290,note_on,1,0,0,,6,,,78,127
52394,note_off,104,0,0,,6,,,78,127
52395,note_on,1,0,0,,10,,,69,127
52499,note_off,104,0,0,,10,,,69,127
52500,note_on,1,0,0,,7,,,79,127
52589,note_off,89,0,0,,11,,,58,127
52589,note_off,0,0,0,,11,,,46,127
52604,note_on,15,0,0,,11,,,70,127
52708,note_off,104,0,0,,11,,,70,127
52709,note_on,1,0,0,,7,,,55,127
52709,note_on,0,0,0,,10,,,69,127
52813,note_off,104,0,0,,10,,,69,127
52814,note_on,1,0,0,,11,,,70,127
52918,note_off,104,0,0,,11,,,70,127
52918,note_off,0,0,0,,7,,,55,127
52918,note_off,0,0,0,,7,,,79,127
52919,note_on,1,0,0,,6,,,54,127
52919,note_on,0,0,0,,10,,,81,127
53024,note_on,105,0,0,,0,,,72,127
53128,note_off,104,0,0,,0,,,72,127
53128,note_off,0,0,0,,6,,,54,127
53129,note_on,1,0,0,,2,,,50,127
53129,note_on,0,0,0,,11,,,70,127
53233,note_off,104,0,0,,11,,,70,127
53234,note_on,1,0,0,,0,,,72,127
53338,note_off,104,0,0,,0,,,72,127
53338,note_off,0,0,0,,10,,,81,127
53339,note_on,1,0,0,,7,,,79,127
53444,note_on,105,0,0,,11,,,70,127
53457,note_off,13,0,0,,2,,,50,127
53548,note_off,91,0,0,,11,,,70,127
53549,note_on,1,0,0,,7,,,55,127
53549,note_on,0,0,0,,10,,,69,127
53653,note_off,104,0,0,,10,,,69,127
53654,note_on,1,0,0,,11,,,70,127
53758,note_off,104,0,0,,11,,,70,127
53758,note_off,0,0,0,,7,,,55,127
53758,note_off,0,0,0,,7,,,79,127
53759,note_on,1,0,0,,6,,,54,127
53759,note_on,0,0,0,,10,,,81,127
53864,note_on,105,0,0,,0,,,72,127
53968,note_off,104,0,0,,0,,,72,127
53968,note_off,0,0,0,,6,,,54,127
53969,note_on,1,0,0,,2,,,50,127
53969,note_on,0,0,0,,11,,,70,127
54073,note_off,104,0,0,,11,,,70,127
54074,note_on,1,0,0,,0,,,72,127
54178,note_off,104,0,0,,0,,,72,127
54178,note_off,0,0,0,,2,,,50,127
54178,note_off,0,0,0,,10,,,81,127
54179,note_on,1,0,0,,7,,,55,127
54179,note_on,0,0,0,,7,,,79,127
54284,note_on,105,0,0,,11,,,70,127
54388,note_off,104,0,0,,11,,,70,127
54388,note_off,0,0,0,,7,,,55,127
54389,note_on,1,0,0,,7,,,55,127
54389,note_on,0,0,0,,7,,,43,127
54389,note_on,0,0,0,,10,,,69,127
54493,note_off,104,0,0,,10,,,69,127
54494,note_on,1,0,0,,11,,,70,127
54598,note_off,104,0,0,,11,,,70,127
54598,note_off,0,0,0,,7,,,43,127
54598,note_off,0,0,0,,7,,,55,127
54598,note_off,0,0,0,,7,,,79,127
54599,note_on,1,0,0,,6,,,54,127
54599,note_on,0,0,0,,6,,,42,127
54599,note_on,0,0,0,,10,,,81,127
54704,note_on,105,0,0,,0,,,72,127
54808,note_off,104,0,0,,0,,,72,127
54808,note_off,0,0,0,,6,,,42,127
54808,note_off,0,0,0,,6,,,54,127
54809,note_on,1,0,0,,2,,,50,127
54809,note_on,0,0,0,,2,,,38,127
54809,note_on,0,0,0,,11,,,70,127
54913,note_off,104,0,0,,11,,,70,127
54914,note_off,1,0,0,,10,,,81,127
54914,note_on,0,0,0,,0,,,72,127
55018,note_off,104,0,0,,0,,,72,127
55018,note_off,0,0,0,,2,,,38,127
55018,note_off,0,0,0,,2,,,50,127
55019,note_on,1,0,0,,7,,,55,127
55019,note_on,0,0,0,,7,,,43,127
55019,note_on,0,0,0,,7,,,79,127
55123,note_off,104,0,0,,7,,,79,127
55124,note_on,1,0,0,,11,,,70,127
55228,note_off,104,0,0,,11,,,70,127
55229,note_on,1,0,0,,5,,,77,127
55333,note_off,104,0,0,,5,,,77,127
55334,note_on,1,0,0,,10,,,69,127
55438,note_off,104,0,0,,10,,,69,127
55439,note_on,1,0,0,,3,,,75,127
55543,note_off,104,0,0,,3,,,75,127
55544,note_on,1,0,0,,7,,,67,127
55648,note_off,104,0,0,,7,,,67,127
55649,note_on,1,0,0,,2,,,74,127
55753,note_off,104,0,0,,2,,,74,127
55754,note_on,1,0,0,,5,,,65,127
55858,note_off,104,0,0,,5,,,65,127
55859,note_on,1,0,0,,3,,,75,127
55948,note_off,89,0,0,,7,,,43,127
55948,note_off,0,0,0,,7,,,55,127
55963,note_on,15,0,0,,7,,,67,127
56067,note_off,104,0,0,,7,,,67,127
56068,note_on,1,0,0,,3,,,51,127
56068,note_on,0,0,0,,5,,,65,127
56172,note_off,104,0,0,,5,,,65,127
56173,note_on,1,0,0,,7,,,67,127
56277,note_off,104,0,0,,7,,,67,127
56277,note_off,0,0,0,,3,,,51,127
56277,note_off,0,0,0,,3,,,75,127
56278,note_on,1,0,0,,2,,,50,127
56278,note_on,0,0,0,,5,,,77,127
56383,note_on,105,0,0,,8,,,68,127
56487,note_off,104,0,0,,8,,,68,127
56487,note_off,0,0,0,,2,,,50,127
56488,note_on,1,0,0,,11,,,46,127
56488,note_on,0,0,0,,7,,,67,127
56592,note_off,104,0,0,,7,,,67,127
56593,note_on,1,0,0,,8,,,68,127
56697,note_off,104,0,0,,8,,,68,127
56697,note_off,0,0,0,,5,,,77,127
56698,note_on,1,0,0,,3,,,75,127
56803,note_on,105,0,0,,7,,,67,127
56816,note_off,13,0,0,,11,,,46,127
56907,note_off,91,0,0,,7,,,67,127
56908,note_on,1,0,0,,3,,,51,127
56908,note_on,0,0,0,,5,,,65,127
57012,note_off,104,0,0,,5,,,65,127
57013,note_on,1,0,0,,7,,,67,127
57117,note_off,104,0,0,,7,,,67,127
57117,note_off,0,0,0,,3,,,51,127
57117,note_off,0,0,0,,3,,,75,127
57118,note_on,1,0,0,,2,,,50,127
57118,note_on,0,0,0,,5,,,77,127
57223,note_on,105,0,0,,8,,,68,127
57327,note_off,104,0,0,,8,,,68,127
57327,note_off,0,0,0,,2,,,50,127
57328,note_on,1,0,0,,11,,,46,127
57328,note_on,0,0,0,,7,,,67,127
57432,note_off,104,0,0,,7,,,67,127
57433,note_on,1,0,0,,8,,,68,127
57537,note_off,104,0,0,,8,,,68,127
57537,note_off,0,0,0,,11,,,46,127
57537,note_off,0,0,0,,5,,,77,127
57538,note_on,1,0,0,,3,,,51,127
57538,note_on,0,0,0,,3,,,75,127
57643,note_on,105,0,0,,7,,,67,127
57747,note_off,104,0,0,,7,,,67,127
57747,note_off,0,0,0,,3,,,51,127
57748,note_on,1,0,0,,3,,,51,127
57748,note_on,0,0,0,,3,,,63,127
57748,note_on,0,0,0,,5,,,65,127
57852,note_off,104,0,0,,5,,,65,127
57853,note_on,1,0,0,,7,,,67,127
57957,note_off,104,0,0,,7,,,67,127
57957,note_off,0,0,0,,3,,,63,127
57957,note_off,0,0,0,,3,,,51,127
57957,note_off,0,0,0,,3,,,75,127
57958,note_on,1,0,0,,2,,,50,127
57958,note_on,0,0,0,,2,,,62,127
57958,note_on,0,0,0,,5,,,77,127
58063,note_on,105,0,0,,8,,,68,127
58167,note_off,104,0,0,,8,,,68,127
58167,note_off,0,0,0,,2,,,62,127
58167,note_off,0,0,0,,2,,,50,127
58168,note_on,1,0,0,,11,,,58,127
58168,note_on,0,0,0,,11,,,46,127
58168,note_on,0,0,0,,7,,,67,127
58272,note_off,104,0,0,,7,,,67,127
58273,note_off,1,0,0,,5,,,77,127
58273,note_on,0,0,0,,8,,,68,127
58377,note_off,104,0,0,,8,,,68,127
58377,note_off,0,0,0,,11,,,46,127
58377,note_off,0,0,0,,11,,,58,127
58378,note_on,1,0,0,,3,,,51,127
58378,note_on,0,0,0,,3,,,63,127
58378,note_on,0,0,0,,3,,,75,127
58482,note_off,104,0,0,,3,,,75,127
58483,note_on,1,0,0,,7,,,67,127
58587,note_off,104,0,0,,7,,,67,127
58588,note_on,1,0,0,,2,,,74,127
58692,note_off,104,0,0,,2,,,74,127
58693,note_on,1,0,0,,5,,,65,127
58797,note_off,104,0,0,,5,,,65,127
58797,note_off,0,0,0,,3,,,63,127
58798,note_on,1,0,0,,0,,,72,127
58902,note_off,104,0,0,,0,,,72,127
58903,note_on,1,0,0,,3,,,63,127
59007,note_off,104,0,0,,3,,,63,127
59008,note_on,1,0,0,,12,,,71,127
59112,note_off,104,0,0,,12,,,71,127
59113,note_on,1,0,0,,2,,,62,127
59217,note_off,104,0,0,,2,,,62,127
59218,note_on,1,0,0,,0,,,72,127
59307,note_off,89,0,0,,3,,,51,127
59322,note_on,15,0,0,,3,,,63,127
59426,note_off,104,0,0,,3,,,63,127
59427,note_on,1,0,0,,0,,,60,127
59427,note_on,0,0,0,,2,,,62,127
59531,note_off,104,0,0,,2,,,62,127
59532,note_on,1,0,0,,3,,,63,127
59636,note_off,104,0,0,,3,,,63,127
59636,note_off,0,0,0,,0,,,60,127
59636,note_off,0,0,0,,0,,,72,127
59637,note_on,1,0,0,,12,,,59,127
59637,note_on,0,0,0,,2,,,74,127
59742,note_on,105,0,0,,5,,,65,127
59846,note_off,104,0,0,,5,,,65,127
59846,note_off,0,0,0,,12,,,59,127
59847,note_on,1,0,0,,7,,,55,127
59847,note_on,0,0,0,,3,,,63,127
59951,note_off,104,0,0,,3,,,63,127
59952,note_on,1,0,0,,5,,,65,127
60056,note_off,104,0,0,,5,,,65,127
60056,note_off,0,0,0,,2,,,74,127
60057,note_on,1,0,0,,0,,,72,127
60162,note_on,105,0,0,,3,,,63,127
60175,note_off,13,0,0,,7,,,55,127
60266,note_off,91,0,0,,3,,,63,127
60267,note_on,1,0,0,,0,,,60,127
60267,note_on,0,0,0,,2,,,62,127
60371,note_off,104,0,0,,2,,,62,127
60372,note_on,1,0,0,,3,,,63,127
60476,note_off,104,0,0,,3,,,63,127
60476,note_off,0,0,0,,0,,,60,127
60476,note_off,0,0,0,,0,,,72,127
60477,note_on,1,0,0,,12,,,59,127
60477,note_on,0,0,0,,2,,,74,127
60582,note_on,105,0,0,,5,,,65,127
60686,note_off,104,0,0,,5,,,65,127
60686,note_off,0,0,0,,12,,,59,127
60687,note_on,1,0,0,,7,,,55,127
60687,note_on,0,0,0,,3,,,63,127
60791,note_off,104,0,0,,3,,,63,127
60792,note_on,1,0,0,,5,,,65,127
60896,note_off,104,0,0,,5,,,65,127
60896,note_off,0,0,0,,7,,,55,127
60896,note_off,0,0,0,,2,,,74,127
60897,note_on,1,0,0,,0,,,60,127
60897,note_on,0,0,0,,0,,,72,127
61002,note_on,105,0,0,,3,,,63,127
61106,note_off,104,0,0,,3,,,63,127
61106,note_off,0,0,0,,0,,,60,127
61107,note_on,1,0,0,,0,,,60,127
61107,note_on,0,0,0,,0,,,48,127
61107,note_on,0,0,0,,2,,,62,127
61211,note_off,104,0,0,,2,,,62,127
61212,note_on,1,0,0,,3,,,63,127
61316,note_off,104,0,0,,3,,,63,127
61316,note_off,0,0,0,,0,,,48,127
61316,note_off,0,0,0,,0,,,60,127
61316,note_off,0,0,0,,0,,,72,127
61317,note_on,1,0,0,,12,,,59,127
61317,note_on,0,0,0,,12,,,47,127
61317,note_on,0,0,0,,2,,,74,127
61422,note_on,105,0,0,,5,,,65,127
61526,note_off,104,0,0,,5,,,65,127
61526,note_off,0,0,0,,12,,,47,127
61526,note_off,0,0,0,,12,,,59,127
61527,note_on,1,0,0,,7,,,43,127
61527,note_on,0,0,0,,7,,,55,127
61527,note_on,0,0,0,,3,,,63,127
61631,note_off,104,0,0,,3,,,63,127
61632,note_off,1,0,0,,2,,,74,127
61632,note_on,0,0,0,,5,,,65,127
61736,note_off,104,0,0,,5,,,65,127
61736,note_off,0,0,0,,7,,,55,127
61736,note_off,0,0,0,,7,,,43,127
61737,note_on,1,0,0,,0,,,36,127
61737,note_on,0,0,0,,0,,,48,127
61737,note_on,0,0,0,,0,,,72,127
61841,note_off,104,0,0,,0,,,72,127
61842,note_on,1,0,0,,3,,,63,127
61946,note_off,104,0,0,,3,,,63,127
61947,note_on,1,0,0,,2,,,74,127
62051,note_off,104,0,0,,2,,,74,127
62052,note_on,1,0,0,,5,,,65,127
62156,note_off,104,0,0,,5,,,65,127
62157,note_on,1,0,0,,3,,,75,127
62261,note_off,104,0,0,,3,,,75,127
62262,note_on,1,0,0,,7,,,67,127
62366,note_off,104,0,0,,7,,,67,127
62367,note_on,1,0,0,,0,,,72,127
62471,note_off,104,0,0,,0,,,72,127
62472,note_on,1,0,0,,10,,,69,127
62576,note_off,104,0,0,,10,,,69,127
62576,note_off,0,0,0,,0,,,48,127
62576,note_off,0,0,0,,0,,,36,127
62577,note_on,1,0,0,,7,,,55,127
62577,note_on,0,0,0,,12,,,71,127
62681,note_off,104,0,0,,12,,,71,127
62682,note_on,1,0,0,,7,,,67,127
62786,note_off,104,0,0,,7,,,67,127
62787,note_on,1,0,0,,0,,,72,127
62891,note_off,104,0,0,,0,,,72,127
62892,note_on,1,0,0,,7,,,67,127
62996,note_off,104,0,0,,7,,,67,127
62997,note_on,1,0,0,,7,,,43,127
62997,note_on,0,0,0,,2,,,74,127
63101,note_off,104,0,0,,2,,,74,127
63102,note_on,1,0,0,,7,,,67,127
63206,note_off,104,0,0,,7,,,67,127
63206,note_off,0,0,0,,7,,,55,127
63207,note_on,1,0,0,,12,,,71,127
63311,note_off,104,0,0,,12,,,71,127
63312,note_on,1,0,0,,7,,,67,127
63412,note_off,100,0,0,,7,,,43,127
63415,note_off,3,0,0,,7,,,67,127
63416,note_on,1,0,0,,3,,,75,127
63416,note_on,0,0,0,,7,,,67,127
63416,note_on,0,0,0,,0,,,72,127
63521,note_on,105,0,0,,0,,,48,127
63625,note_off,104,0,0,,0,,,48,127
63626,note_on,1,0,0,,3,,,51,127
63730,note_off,104,0,0,,3,,,51,127
63731,note_on,1,0,0,,7,,,55,127
63835,note_off,104,0,0,,7,,,55,127
63836,note_on,1,0,0,,0,,,48,127
63940,note_off,104,0,0,,0,,,48,127
63941,note_on,1,0,0,,3,,,51,127
64045,note_off,104,0,0,,3,,,51,127
64046,note_on,1,0,0,,7,,,55,127
64150,note_off,104,0,0,,7,,,55,127
64151,note_on,1,0,0,,3,,,51,127
64255,note_off,104,0,0,,3,,,51,127
64255,note_off,0,0,0,,0,,,72,127
64255,note_off,0,0,0,,7,,,67,127
64255,note_off,0,0,0,,3,,,75,127
64256,note_on,1,0,0,,0,,,48,127
64256,note_on,0,0,0,,0,,,84,127
64360,note_off,104,0,0,,0,,,84,127
64361,note_on,1,0,0,,7,,,79,127
64465,note_off,104,0,0,,7,,,79,127
64466,note_on,1,0,0,,3,,,75,127
64570,note_off,104,0,0,,3,,,75,127
64571,note_on,1,0,0,,7,,,79,127
64675,note_off,104,0,0,,7,,,79,127
64676,note_on,1,0,0,,0,,,72,127
64780,note_off,104,0,0,,0,,,72,127
64781,note_on,1,0,0,,3,,,75,127
64885,note_off,104,0,0,,3,,,75,127
64886,note_on,1,0,0,,7,,,67,127
64990,note_off,104,0,0,,7,,,67,127
64991,note_on,1,0,0,,3,,,75,127
64991,note_on,0,0,0,,0,,,72,127
65095,note_off,104,0,0,,0,,,72,127
65095,note_off,0,0,0,,3,,,75,127
65096,note_on,1,0,0,,0,,,72,127
65096,note_on,0,0,0,,3,,,75,127
65131,note_off,35,0,0,,0,,,48,127
65201,note_on,70,0,0,,7,,,43,127
65305,note_off,104,0,0,,7,,,43,127
65305,note_off,0,0,0,,3,,,75,127
65305,note_off,0,0,0,,0,,,72,127
65306,note_on,1,0,0,,12,,,47,127
65306,note_on,0,0,0,,12,,,71,127
65306,note_on,0,0,0,,2,,,74,127
65410,note_off,104,0,0,,12,,,47,127
65411,note_on,1,0,0,,2,,,50,127
65515,note_off,104,0,0,,2,,,50,127
65516,note_on,1,0,0,,7,,,55,127
65620,note_off,104,0,0,,7,,,55,127
65621,note_on,1,0,0,,12,,,59,127
65725,note_off,104,0,0,,12,,,59,127
65726,note_on,1,0,0,,2,,,62,127
65830,note_off,104,0,0,,2,,,62,127
65831,note_on,1,0,0,,12,,,59,127
65935,note_off,104,0,0,,12,,,59,127
65935,note_off,0,0,0,,2,,,74,127
65935,note_off,0,0,0,,12,,,71,127
65936,note_on,1,0,0,,7,,,43,127
65936,note_on,0,0,0,,7,,,79,127
66040,note_off,104,0,0,,7,,,79,127
66041,note_on,1,0,0,,2,,,74,127
66145,note_off,104,0,0,,2,,,74,127
66146,note_on,1,0,0,,12,,,71,127
66250,note_off,104,0,0,,12,,,71,127
66251,note_on,1,0,0,,2,,,74,127
66355,note_off,104,0,0,,2,,,74,127
66356,note_on,1,0,0,,7,,,67,127
66460,note_off,104,0,0,,7,,,67,127
66461,note_on,1,0,0,,2,,,74,127
66565,note_off,104,0,0,,2,,,74,127
66566,note_on,1,0,0,,7,,,67,127
66670,note_off,104,0,0,,7,,,67,127
66671,note_on,1,0,0,,2,,,74,127
66671,note_on,0,0,0,,5,,,77,127
66775,note_off,104,0,0,,5,,,77,127
66775,note_off,0,0,0,,2,,,74,127
66776,note_on,1,0,0,,5,,,77,127
66776,note_on,0,0,0,,2,,,74,127
66811,note_off,35,0,0,,7,,,43,127
66881,note_on,70,0,0,,10,,,45,127
66985,note_off,104,0,0,,10,,,45,127
66985,note_off,0,0,0,,2,,,74,127
66985,note_off,0,0,0,,5,,,77,127
66986,note_on,1,0,0,,1,,,49,127
66986,note_on,0,0,0,,1,,,73,127
66986,note_on,0,0,0,,4,,,76,127
67090,note_off,104,0,0,,1,,,49,127
67091,note_on,1,0,0,,4,,,52,127
67195,note_off,104,0,0,,4,,,52,127
67196,note_on,1,0,0,,10,,,57,127
67300,note_off,104,0,0,,10,,,57,127
67301,note_on,1,0,0,,1,,,61,127
67405,note_off,104,0,0,,1,,,61,127
67406,note_on,1,0,0,,4,,,64,127
67510,note_off,104,0,0,,4,,,64,127
67511,note_on,1,0,0,,1,,,61,127
67615,note_off,104,0,0,,1,,,61,127
67615,note_off,0,0,0,,4,,,76,127
67615,note_off,0,0,0,,1,,,73,127
67616,note_on,1,0,0,,10,,,45,127
67616,note_on,0,0,0,,10,,,81,127
67720,note_off,104,0,0,,10,,,81,127
67721,note_on,1,0,0,,4,,,76,127
67825,note_off,104,0,0,,4,,,76,127
67826,note_on,1,0,0,,1,,,73,127
67930,note_off,104,0,0,,1,,,73,127
67931,note_on,1,0,0,,4,,,76,127
68035,note_off,104,0,0,,4,,,76,127
68036,note_on,1,0,0,,10,,,69,127
68140,note_off,104,0,0,,10,,,69,127
68141,note_on,1,0,0,,4,,,76,127
68245,note_off,104,0,0,,4,,,76,127
68246,note_on,1,0,0,,10,,,69,127
68350,note_off,104,0,0,,10,,,69,127
68351,note_on,1,0,0,,4,,,76,127
68351,note_on,0,0,0,,7,,,79,127
68455,note_off,104,0,0,,7,,,79,127
68455,note_off,0,0,0,,4,,,76,127
68456,note_on,1,0,0,,4,,,76,127
68456,note_on,0,0,0,,7,,,79,127
68491,note_off,35,0,0,,10,,,45,127
68561,note_on,70,0,0,,2,,,38,127
68665,note_off,104,0,0,,2,,,38,127
68665,note_off,0,0,0,,7,,,79,127
68665,note_off,0,0,0,,4,,,76,127
68666,note_on,1,0,0,,6,,,42,127
68666,note_on,0,0,0,,2,,,74,127
68666,note_on,0,0,0,,6,,,78,127
68770,note_off,104,0,0,,6,,,42,127
68771,note_on,1,0,0,,10,,,45,127
68875,note_off,104,0,0,,10,,,45,127
68876,note_on,1,0,0,,2,,,50,127
68980,note_off,104,0,0,,2,,,50,127
68981,note_on,1,0,0,,6,,,54,127
69085,note_off,104,0,0,,6,,,54,127
69086,note_on,1,0,0,,10,,,57,127
69190,note_off,104,0,0,,10,,,57,127
69191,note_on,1,0,0,,6,,,54,127
69295,note_off,104,0,0,,6,,,54,127
69295,note_off,0,0,0,,6,,,78,127
69295,note_off,0,0,0,,2,,,74,127
69296,note_on,1,0,0,,2,,,38,127
69296,note_on,0,0,0,,10,,,81,127
69400,note_off,104,0,0,,10,,,81,127
69401,note_on,1,0,0,,7,,,79,127
69505,note_off,104,0,0,,7,,,79,127
69506,note_on,1,0,0,,6,,,78,127
69610,note_off,104,0,0,,6,,,78,127
69611,note_on,1,0,0,,4,,,76,127
69715,note_off,104,0,0,,4,,,76,127
69715,note_off,0,0,0,,2,,,38,127
69716,note_on,1,0,0,,2,,,38,127
69716,note_on,0,0,0,,2,,,74,127
69820,note_off,104,0,0,,2,,,74,127
69821,note_on,1,0,0,,0,,,72,127
69925,note_off,104,0,0,,0,,,72,127
69926,note_on,1,0,0,,11,,,70,127
70030,note_off,104,0,0,,11,,,70,127
70031,note_on,1,0,0,,10,,,69,127
70031,note_on,0,0,0,,6,,,78,127
70135,note_off,104,0,0,,6,,,78,127
70135,note_off,0,0,0,,10,,,69,127
70136,note_on,1,0,0,,6,,,78,127
70136,note_on,0,0,0,,10,,,69,127
70197,note_off,61,0,0,,2,,,38,127
70241,note_on,44,0,0,,7,,,43,127
70345,note_off,104,0,0,,7,,,43,127
70345,note_off,0,0,0,,10,,,69,127
70345,note_off,0,0,0,,6,,,78,127
70346,note_on,1,0,0,,11,,,46,127
70346,note_on,0,0,0,,7,,,79,127
70346,note_on,0,0,0,,11,,,70,127
70450,note_off,104,0,0,,11,,,46,127
70451,note_on,1,0,0,,2,,,50,127
70555,note_off,104,0,0,,2,,,50,127
70556,note_on,1,0,0,,7,,,55,127
70660,note_off,104,0,0,,7,,,55,127
70661,note_on,1,0,0,,11,,,58,127
70765,note_off,104,0,0,,11,,,58,127
70766,note_on,1,0,0,,2,,,62,127
70870,note_off,104,0,0,,2,,,62,127
70871,note_on,1,0,0,,11,,,58,127
70975,note_off,104,0,0,,11,,,58,127
70975,note_off,0,0,0,,11,,,70,127
70975,note_off,0,0,0,,7,,,79,127
70976,note_on,1,0,0,,7,,,43,127
70976,note_on,0,0,0,,7,,,79,127
71080,note_off,104,0,0,,7,,,79,127
71081,note_on,1,0,0,,5,,,77,127
71185,note_off,104,0,0,,5,,,77,127
71186,note_on,1,0,0,,3,,,75,127
71290,note_off,104,0,0,,3,,,75,127
71291,note_on,1,0,0,,2,,,74,127
71395,note_off,104,0,0,,2,,,74,127
71396,note_on,1,0,0,,0,,,72,127
71500,note_off,104,0,0,,0,,,72,127
71501,note_on,1,0,0,,11,,,70,127
71605,note_off,104,0,0,,11,,,70,127
71606,note_on,1,0,0,,10,,,69,127
71710,note_off,104,0,0,,10,,,69,127
71711,note_on,1,0,0,,7,,,67,127
71711,note_on,0,0,0,,7,,,79,127
71815,note_off,104,0,0,,7,,,79,127
71815,note_off,0,0,0,,7,,,67,127
71816,note_on,1,0,0,,7,,,79,127
71816,note_on,0,0,0,,10,,,69,127
71851,note_off,35,0,0,,7,,,43,127
71921,note_on,70,0,0,,2,,,38,127
72025,note_off,104,0,0,,2,,,38,127
72025,note_off,0,0,0,,10,,,69,127
72025,note_off,0,0,0,,7,,,79,127
72026,note_on,1,0,0,,6,,,42,127
72026,note_on,0,0,0,,6,,,78,127
72130,note_off,104,0,0,,6,,,42,127
72131,note_on,1,0,0,,10,,,45,127
72235,note_off,104,0,0,,10,,,45,127
72236,note_on,1,0,0,,2,,,50,127
72340,note_off,104,0,0,,2,,,50,127
72341,note_on,1,0,0,,6,,,54,127
72445,note_off,104,0,0,,6,,,54,127
72446,note_on,1,0,0,,10,,,57,127
72550,note_off,104,0,0,,10,,,57,127
72551,note_on,1,0,0,,6,,,54,127
72655,note_off,104,0,0,,6,,,54,127
72655,note_off,0,0,0,,6,,,78,127
72656,note_on,1,0,0,,2,,,38,127
72656,note_on,0,0,0,,10,,,81,127
72760,note_off,104,0,0,,10,,,81,127
72761,note_on,1,0,0,,7,,,79,127
72865,note_off,104,0,0,,7,,,79,127
72866,note_on,1,0,0,,6,,,78,127
72970,note_off,104,0,0,,6,,,78,127
72971,note_on,1,0,0,,4,,,76,127
73075,note_off,104,0,0,,4,,,76,127
73075,note_off,0,0,0,,2,,,38,127
73076,note_on,1,0,0,,2,,,38,127
73076,note_on,0,0,0,,2,,,74,127
73180,note_off,104,0,0,,2,,,74,127
73181,note_on,1,0,0,,0,,,72,127
73285,note_off,104,0,0,,0,,,72,127
73286,note_on,1,0,0,,11,,,70,127
73390,note_off,104,0,0,,11,,,70,127
73391,note_on,1,0,0,,6,,,78,127
73391,note_on,0,0,0,,10,,,69,127
73495,note_off,104,0,0,,10,,,69,127
73495,note_off,0,0,0,,6,,,78,127
73495,note_off,0,0,0,,2,,,38,127
73496,note_on,1,0,0,,7,,,43,127
73496,note_on,0,0,0,,6,,,78,127
73496,note_on,0,0,0,,10,,,69,127
73704,note_off,208,0,0,,10,,,69,127
73704,note_off,0,0,0,,6,,,78,127
73705,note_on,1,0,0,,11,,,70,127
73705,note_on,0,0,0,,7,,,79,127
73913,note_off,208,0,0,,7,,,43,127
73914,note_on,1,0,0,,7,,,55,127
74122,note_off,208,0,0,,7,,,79,127
74122,note_off,0,0,0,,11,,,70,127
74123,note_on,1,0,0,,2,,,74,127
74331,note_off,208,0,0,,2,,,74,127
74331,note_off,0,0,0,,7,,,55,127
74332,note_on,1,0,0,,0,,,48,127
74332,note_on,0,0,0,,3,,,75,127
74437,note_on,105,0,0,,0,,,72,127
74463,note_off,26,0,0,,3,,,75,127
74540,note_off,77,0,0,,0,,,72,127
74541,note_on,1,0,0,,11,,,70,127
74645,note_off,104,0,0,,11,,,70,127
74646,note_on,1,0,0,,0,,,72,127
74750,note_off,104,0,0,,0,,,72,127
74750,note_off,0,0,0,,0,,,48,127
74751,note_on,1,0,0,,10,,,45,127
74751,note_on,0,0,0,,0,,,72,127
74856,note_on,105,0,0,,10,,,69,127
74882,note_off,26,0,0,,0,,,72,127
74959,note_off,77,0,0,,10,,,69,127
74960,note_on,1,0,0,,7,,,67,127
75064,note_off,104,0,0,,7,,,67,127
75065,note_on,1,0,0,,10,,,69,127
75169,note_off,104,0,0,,10,,,69,127
75169,note_off,0,0,0,,10,,,45,127
75170,note_on,1,0,0,,11,,,46,127
75170,note_on,0,0,0,,2,,,74,127
75275,note_on,105,0,0,,11,,,70,127
75301,note_off,26,0,0,,2,,,74,127
75378,note_off,77,0,0,,11,,,70,127
75379,note_on,1,0,0,,10,,,69,127
75483,note_off,104,0,0,,10,,,69,127
75484,note_on,1,0,0,,11,,,70,127
75588,note_off,104,0,0,,11,,,70,127
75588,note_off,0,0,0,,11,,,46,127
75589,note_on,1,0,0,,7,,,43,127
75589,note_on,0,0,0,,11,,,70,127
75694,note_on,105,0,0,,7,,,67,127
75720,note_off,26,0,0,,11,,,70,127
75797,note_off,77,0,0,,7,,,67,127
75798,note_on,1,0,0,,6,,,66,127
75902,note_off,104,0,0,,6,,,66,127
75903,note_on,1,0,0,,7,,,67,127
76007,note_off,104,0,0,,7,,,67,127
76007,note_off,0,0,0,,7,,,43,127
76008,note_on,1,0,0,,10,,,45,127
76008,note_on,0,0,0,,0,,,72,127
76113,note_on,105,0,0,,10,,,69,127
76139,note_off,26,0,0,,0,,,72,127
76216,note_off,77,0,0,,10,,,69,127
76217,note_on,1,0,0,,7,,,67,127
76321,note_off,104,0,0,,7,,,67,127
76322,note_on,1,0,0,,10,,,69,127
76426,note_off,104,0,0,,10,,,69,127
76426,note_off,0,0,0,,10,,,45,127
76427,note_on,1,0,0,,7,,,43,127
76427,note_on,0,0,0,,11,,,70,127
76532,note_on,105,0,0,,7,,,67,127
76558,note_off,26,0,0,,11,,,70,127
76635,note_off,77,0,0,,7,,,67,127
76636,note_on,1,0,0,,6,,,66,127
76740,note_off,104,0,0,,6,,,66,127
76741,note_on,1,0,0,,7,,,67,127
76845,note_off,104,0,0,,7,,,67,127
76846,note_on,1,0,0,,7,,,67,127
76950,note_off,104,0,0,,7,,,43,127
76951,note_on,1,0,0,,2,,,62,127
77055,note_off,104,0,0,,2,,,62,127
77055,note_off,0,0,0,,7,,,67,127
77056,note_on,1,0,0,,10,,,57,127
77056,note_on,0,0,0,,10,,,69,127
77160,note_off,104,0,0,,10,,,57,127
77161,note_on,1,0,0,,2,,,50,127
77265,note_off,104,0,0,,2,,,50,127
77266,note_on,1,0,0,,2,,,38,127
77474,note_off,208,0,0,,2,,,38,127
77474,note_off,0,0,0,,10,,,69,127
77475,note_on,1,0,0,,11,,,46,127
77475,note_on,0,0,0,,2,,,74,127
77683,note_off,208,0,0,,2,,,74,127
77683,note_off,0,0,0,,11,,,46,127
77684,note_on,1,0,0,,0,,,48,127
77684,note_on,0,0,0,,3,,,75,127
77789,note_on,105,0,0,,0,,,72,127
77815,note_off,26,0,0,,3,,,75,127
77892,note_off,77,0,0,,0,,,72,127
77893,note_on,1,0,0,,11,,,70,127
77997,note_off,104,0,0,,11,,,70,127
77998,note_on,1,0,0,,0,,,72,127
78102,note_off,104,0,0,,0,,,72,127
78102,note_off,0,0,0,,0,,,48,127
78103,note_on,1,0,0,,10,,,45,127
78103,note_on,0,0,0,,0,,,72,127
78208,note_on,105,0,0,,10,,,69,127
78234,note_off,26,0,0,,0,,,72,127
78311,note_off,77,0,0,,10,,,69,127
78312,note_on,1,0,0,,7,,,67,127
78416,note_off,104,0,0,,7,,,67,127
78417,note_on,1,0,0,,10,,,69,127
78521,note_off,104,0,0,,10,,,69,127
78521,note_off,0,0,0,,10,,,45,127
78522,note_on,1,0,0,,11,,,46,127
78522,note_on,0,0,0,,2,,,74,127
78627,note_on,105,0,0,,11,,,70,127
78653,note_off,26,0,0,,2,,,74,127
78730,note_off,77,0,0,,11,,,70,127
78731,note_on,1,0,0,,10,,,69,127
78835,note_off,104,0,0,,10,,,69,127
78836,note_on,1,0,0,,11,,,70,127
78940,note_off,104,0,0,,11,,,70,127
78940,note_off,0,0,0,,11,,,46,127
78941,note_on,1,0,0,,7,,,43,127
78941,note_on,0,0,0,,11,,,70,127
79046,note_on,105,0,0,,7,,,67,127
79072,note_off,26,0,0,,11,,,70,127
79149,note_off,77,0,0,,7,,,67,127
79150,note_on,1,0,0,,6,,,66,127
79254,note_off,104,0,0,,6,,,66,127
79255,note_on,1,0,0,,7,,,67,127
79359,note_off,104,0,0,,7,,,67,127
79359,note_off,0,0,0,,7,,,43,127
79360,note_on,1,0,0,,10,,,45,127
79360,note_on,0,0,0,,0,,,72,127
79465,note_on,105,0,0,,10,,,69,127
79491,note_off,26,0,0,,0,,,72,127
79568,note_off,77,0,0,,10,,,69,127
79569,note_on,1,0,0,,7,,,67,127
79673,note_off,104,0,0,,7,,,67,127
79674,note_on,1,0,0,,10,,,69,127
79778,note_off,104,0,0,,10,,,69,127
79778,note_off,0,0,0,,10,,,45,127
79779,note_on,1,0,0,,7,,,43,127
79779,note_on,0,0,0,,11,,,70,127
79884,note_on,105,0,0,,7,,,67,127
79910,note_off,26,0,0,,11,,,70,127
79987,note_off,77,0,0,,7,,,67,127
79988,note_on,1,0,0,,6,,,66,127
80092,note_off,104,0,0,,6,,,66,127
80093,note_on,1,0,0,,7,,,67,127
80197,note_off,104,0,0,,7,,,67,127
80198,note_on,1,0,0,,7,,,67,127
80259,note_off,61,0,0,,7,,,43,127
80303,note_on,44,0,0,,2,,,62,127
80407,note_off,104,0,0,,2,,,62,127
80407,note_off,0,0,0,,7,,,67,127
80408,note_on,1,0,0,,10,,,57,127
80408,note_on,0,0,0,,10,,,69,127
80512,note_off,104,0,0,,10,,,57,127
80513,note_on,1,0,0,,2,,,50,127
80617,note_off,104,0,0,,2,,,50,127
80618,note_on,1,0,0,,2,,,38,127
80826,note_off,208,0,0,,2,,,38,127
80827,note_on,1,0,0,,10,,,57,127
81035,note_off,208,0,0,,10,,,57,127
81036,note_on,1,0,0,,11,,,58,127
81140,note_off,104,0,0,,10,,,69,127
81141,note_on,1,0,0,,7,,,79,127
81185,note_off,44,0,0,,11,,,58,127
81246,note_on,61,0,0,,11,,,58,127
81290,note_off,44,0,0,,7,,,79,127
81351,note_on,61,0,0,,7,,,79,127
81395,note_off,44,0,0,,11,,,58,127
81456,note_on,61,0,0,,11,,,58,127
81500,note_off,44,0,0,,7,,,79,127
81561,note_on,61,0,0,,7,,,79,127
81605,note_off,44,0,0,,11,,,58,127
81666,note_on,61,0,0,,11,,,58,127
81710,note_off,44,0,0,,7,,,79,127
81771,note_on,61,0,0,,7,,,79,127
81815,note_off,44,0,0,,11,,,58,127
81876,note_on,61,0,0,,0,,,48,127
81920,note_off,44,0,0,,7,,,79,127
81981,note_on,61,0,0,,7,,,79,127
82025,note_off,44,0,0,,0,,,48,127
82086,note_on,61,0,0,,11,,,58,127
82130,note_off,44,0,0,,7,,,79,127
82191,note_on,61,0,0,,7,,,79,127
82235,note_off,44,0,0,,11,,,58,127
82296,note_on,61,0,0,,10,,,57,127
82340,note_off,44,0,0,,7,,,79,127
82401,note_on,61,0,0,,5,,,77,127
82445,note_off,44,0,0,,10,,,57,127
82506,note_on,61,0,0,,7,,,55,127
82550,note_off,44,0,0,,5,,,77,127
82611,note_on,61,0,0,,4,,,76,127
82655,note_off,44,0,0,,7,,,55,127
82716,note_on,61,0,0,,8,,,56,127
82760,note_off,44,0,0,,4,,,76,127
82821,note_on,61,0,0,,5,,,77,127
82865,note_off,44,0,0,,8,,,56,127
82926,note_on,61,0,0,,8,,,56,127
82970,note_off,44,0,0,,5,,,77,127
83031,note_on,61,0,0,,5,,,77,127
83075,note_off,44,0,0,,8,,,56,127
83136,note_on,61,0,0,,8,,,56,127
83180,note_off,44,0,0,,5,,,77,127
83241,note_on,61,0,0,,5,,,77,127
83285,note_off,44,0,0,,8,,,56,127
83346,note_on,61,0,0,,8,,,56,127
83390,note_off,44,0,0,,5,,,77,127
83451,note_on,61,0,0,,5,,,77,127
83495,note_off,44,0,0,,8,,,56,127
83556,note_on,61,0,0,,11,,,46,127
83600,note_off,44,0,0,,5,,,77,127
83661,note_on,61,0,0,,5,,,77,127
83705,note_off,44,0,0,,11,,,46,127
83766,note_on,61,0,0,,8,,,56,127
83810,note_off,44,0,0,,5,,,77,127
83871,note_on,61,0,0,,5,,,77,127
83915,note_off,44,0,0,,8,,,56,127
83976,note_on,61,0,0,,7,,,55,127
84020,note_off,44,0,0,,5,,,77,127
84081,note_on,61,0,0,,3,,,75,127
84125,note_off,44,0,0,,7,,,55,127
84186,note_on,61,0,0,,5,,,53,127
84230,note_off,44,0,0,,3,,,75,127
84291,note_on,61,0,0,,2,,,74,127
84335,note_off,44,0,0,,5,,,53,127
84396,note_on,61,0,0,,7,,,55,127
84440,note_off,44,0,0,,2,,,74,127
84501,note_on,61,0,0,,3,,,75,127
84545,note_off,44,0,0,,7,,,55,127
84606,note_on,61,0,0,,7,,,55,127
84650,note_off,44,0,0,,3,,,75,127
84711,note_on,61,0,0,,3,,,75,127
84755,note_off,44,0,0,,7,,,55,127
84816,note_on,61,0,0,,7,,,55,127
84860,note_off,44,0,0,,3,,,75,127
84921,note_on,61,0,0,,3,,,75,127
84965,note_off,44,0,0,,7,,,55,127
85026,note_on,61,0,0,,7,,,55,127
85070,note_off,44,0,0,,3,,,75,127
85131,note_on,61,0,0,,3,,,75,127
85175,note_off,44,0,0,,7,,,55,127
85236,note_on,61,0,0,,8,,,44,127
85280,note_off,44,0,0,,3,,,75,127
85341,note_on,61,0,0,,3,,,75,127
85385,note_off,44,0,0,,8,,,44,127
85446,note_on,61,0,0,,7,,,55,127
85490,note_off,44,0,0,,3,,,75,127
85551,note_on,61,0,0,,3,,,75,127
85595,note_off,44,0,0,,7,,,55,127
85656,note_on,61,0,0,,5,,,53,127
85700,note_off,44,0,0,,3,,,75,127
85761,note_on,61,0,0,,2,,,74,127
85805,note_off,44,0,0,,5,,,53,127
85866,note_on,61,0,0,,3,,,51,127
85910,note_off,44,0,0,,2,,,74,127
85971,note_on,61,0,0,,0,,,72,127
86015,note_off,44,0,0,,3,,,51,127
86076,note_on,61,0,0,,5,,,53,127
86120,note_off,44,0,0,,0,,,72,127
86181,note_on,61,0,0,,2,,,74,127
86225,note_off,44,0,0,,5,,,53,127
86286,note_on,61,0,0,,5,,,53,127
86330,note_off,44,0,0,,2,,,74,127
86391,note_on,61,0,0,,2,,,74,127
86435,note_off,44,0,0,,5,,,53,127
86496,note_on,61,0,0,,5,,,53,127
86540,note_off,44,0,0,,2,,,74,127
86601,note_on,61,0,0,,2,,,74,127
86645,note_off,44,0,0,,5,,,53,127
86706,note_on,61,0,0,,5,,,53,127
86750,note_off,44,0,0,,2,,,74,127
86811,note_on,61,0,0,,2,,,74,127
86855,note_off,44,0,0,,5,,,53,127
86916,note_on,61,0,0,,7,,,43,127
86960,note_off,44,0,0,,2,,,74,127
87021,note_on,61,0,0,,2,,,74,127
87065,note_off,44,0,0,,7,,,43,127
87126,note_on,61,0,0,,5,,,53,127
87170,note_off,44,0,0,,2,,,74,127
87231,note_on,61,0,0,,2,,,74,127
87275,note_off,44,0,0,,5,,,53,127
87336,note_on,61,0,0,,3,,,51,127
87380,note_off,44,0,0,,2,,,74,127
87441,note_on,61,0,0,,0,,,72,127
87485,note_off,44,0,0,,3,,,51,127
87546,note_on,61,0,0,,2,,,50,127
87590,note_off,44,0,0,,0,,,72,127
87651,note_on,61,0,0,,12,,,71,127
87695,note_off,44,0,0,,2,,,50,127
87756,note_on,61,0,0,,3,,,51,127
87800,note_off,44,0,0,,12,,,71,127
87861,note_on,61,0,0,,0,,,72,127
87905,note_off,44,0,0,,3,,,51,127
87966,note_on,61,0,0,,2,,,50,127
88010,note_off,44,0,0,,0,,,72,127
88071,note_on,61,0,0,,11,,,70,127
88115,note_off,44,0,0,,2,,,50,127
88176,note_on,61,0,0,,0,,,48,127
88220,note_off,44,0,0,,11,,,70,127
88281,note_on,61,0,0,,10,,,69,127
88325,note_off,44,0,0,,0,,,48,127
88386,note_on,61,0,0,,11,,,46,127
88430,note_off,44,0,0,,10,,,69,127
88491,note_on,61,0,0,,7,,,67,127
88535,note_off,44,0,0,,11,,,46,127
88585,note_off,50,0,0,,7,,,67,127
88596,note_on,11,0,0,,2,,,38,127
88701,note_on,105,0,0,,2,,,74,127
88745,note_off,44,0,0,,2,,,38,127
88806,note_on,61,0,0,,2,,,38,127
88850,note_off,44,0,0,,2,,,74,127
88911,note_on,61,0,0,,2,,,74,127
88955,note_off,44,0,0,,2,,,38,127
89016,note_on,61,0,0,,2,,,38,127
89060,note_off,44,0,0,,2,,,74,127
89121,note_on,61,0,0,,2,,,74,127
89165,note_off,44,0,0,,2,,,38,127
89226,note_on,61,0,0,,2,,,38,127
89270,note_off,44,0,0,,2,,,74,127
89331,note_on,61,0,0,,2,,,74,127
89375,note_off,44,0,0,,2,,,38,127
89436,note_on,61,0,0,,3,,,39,127
89480,note_off,44,0,0,,2,,,74,127
89541,note_on,61,0,0,,2,,,74,127
89585,note_off,44,0,0,,3,,,39,127
89646,note_on,61,0,0,,3,,,39,127
89690,note_off,44,0,0,,2,,,74,127
89751,note_on,61,0,0,,2,,,74,127
89795,note_off,44,0,0,,3,,,39,127
89856,note_on,61,0,0,,4,,,40,127
89900,note_off,44,0,0,,2,,,74,127
89961,note_on,61,0,0,,0,,,72,127
90005,note_off,44,0,0,,4,,,40,127
90066,note_on,61,0,0,,4,,,40,127
90110,note_off,44,0,0,,0,,,72,127
90171,note_on,61,0,0,,11,,,70,127
90215,note_off,44,0,0,,4,,,40,127
90276,note_on,61,0,0,,5,,,41,127
90320,note_off,44,0,0,,11,,,70,127
90381,note_on,61,0,0,,10,,,69,127
90425,note_off,44,0,0,,5,,,41,127
90486,note_on,61,0,0,,5,,,41,127
90530,note_off,44,0,0,,10,,,69,127
90591,note_on,61,0,0,,3,,,75,127
90635,note_off,44,0,0,,5,,,41,127
90696,note_on,61,0,0,,6,,,42,127
90740,note_off,44,0,0,,3,,,75,127
90801,note_on,61,0,0,,2,,,74,127
90845,note_off,44,0,0,,6,,,42,127
90906,note_on,61,0,0,,6,,,42,127
90950,note_off,44,0,0,,2,,,74,127
91011,note_on,61,0,0,,0,,,72,127
91055,note_off,44,0,0,,6,,,42,127
91106,note_off,51,0,0,,0,,,72,127
91116,note_on,10,0,0,,11,,,70,127
91221,note_on,105,0,0,,7,,,43,127
91273,note_off,52,0,0,,11,,,70,127
91325,note_on,52,0,0,,0,,,72,127
91369,note_off,44,0,0,,7,,,43,127
91430,note_on,61,0,0,,10,,,45,127
91482,note_off,52,0,0,,0,,,72,127
91534,note_on,52,0,0,,2,,,74,127
91578,note_off,44,0,0,,10,,,45,127
91639,note_on,61,0,0,,11,,,46,127
91691,note_off,52,0,0,,2,,,74,127
91743,note_on,52,0,0,,3,,,75,127
91787,note_off,44,0,0,,11,,,46,127
91848,note_on,61,0,0,,0,,,48,127
91900,note_off,52,0,0,,3,,,75,127
91952,note_off,52,0,0,,0,,,48,127
91952,note_on,0,0,0,,2,,,38,127
92161,note_on,209,0,0,,10,,,81,127
92366,note_off,205,0,0,,2,,,38,127
92369,note_off,3,0,0,,10,,,81,127
92370,note_on,1,0,0,,2,,,74,127
92578,note_off,208,0,0,,2,,,74,127
92579,note_on,1,0,0,,6,,,54,127
92579,note_on,0,0,0,,10,,,57,127
92579,note_on,0,0,0,,2,,,50,127
92579,note_on,0,0,0,,10,,,81,127
92579,note_on,0,0,0,,6,,,78,127
92787,note_off,208,0,0,,6,,,78,127
92787,note_off,0,0,0,,10,,,81,127
92787,note_off,0,0,0,,2,,,50,127
92787,note_off,0,0,0,,10,,,57,127
92787,note_off,0,0,0,,6,,,54,127
92788,note_on,1,0,0,,7,,,55,127
92788,note_on,0,0,0,,2,,,74,127
92788,note_on,0,0,0,,0,,,84,127
92892,note_off,104,0,0,,0,,,84,127
92893,note_on,1,0,0,,11,,,82,127
92997,note_off,104,0,0,,11,,,82,127
92998,note_on,1,0,0,,11,,,46,127
92998,note_on,0,0,0,,10,,,81,127
93102,note_off,104,0,0,,10,,,81,127
93103,note_on,1,0,0,,7,,,79,127
93207,note_off,104,0,0,,7,,,79,127
93207,note_off,0,0,0,,11,,,46,127
93207,note_off,0,0,0,,2,,,74,127
93207,note_off,0,0,0,,7,,,55,127
93208,note_on,1,0,0,,6,,,54,127
93208,note_on,0,0,0,,0,,,48,127
93208,note_on,0,0,0,,2,,,74,127
93208,note_on,0,0,0,,0,,,72,127
93208,note_on,0,0,0,,11,,,82,127
93312,note_off,104,0,0,,11,,,82,127
93313,note_on,1,0,0,,10,,,81,127
93417,note_off,104,0,0,,10,,,81,127
93417,note_off,0,0,0,,0,,,48,127
93418,note_on,1,0,0,,2,,,50,127
93418,note_on,0,0,0,,7,,,79,127
93522,note_off,104,0,0,,7,,,79,127
93523,note_on,1,0,0,,6,,,78,127
93627,note_off,104,0,0,,6,,,78,127
93627,note_off,0,0,0,,2,,,50,127
93627,note_off,0,0,0,,0,,,72,127
93627,note_off,0,0,0,,2,,,74,127
93627,note_off,0,0,0,,6,,,54,127
93628,note_on,1,0,0,,2,,,50,127
93628,note_on,0,0,0,,7,,,55,127
93628,note_on,0,0,0,,7,,,43,127
93628,note_on,0,0,0,,7,,,79,127
93628,note_on,0,0,0,,11,,,70,127
93836,note_off,208,0,0,,7,,,79,127
93837,note_on,1,0,0,,3,,,75,127
94045,note_off,208,0,0,,11,,,70,127
94045,note_off,0,0,0,,7,,,43,127
94045,note_off,0,0,0,,7,,,55,127
94045,note_off,0,0,0,,2,,,50,127
94046,note_on,1,0,0,,6,,,54,127
94046,note_on,0,0,0,,2,,,50,127
94046,note_on,0,0,0,,6,,,42,127
94046,note_on,0,0,0,,10,,,69,127
94254,note_off,208,0,0,,3,,,75,127
94255,note_on,1,0,0,,2,,,74,127
94359,note_off,104,0,0,,2,,,74,127
94360,note_on,1,0,0,,0,,,72,127
94463,note_off,103,0,0,,0,,,72,127
94464,note_off,1,0,0,,10,,,69,127
94464,note_off,0,0,0,,6,,,42,127
94464,note_off,0,0,0,,2,,,50,127
94464,note_off,0,0,0,,6,,,54,127
94465,note_on,1,0,0,,7,,,55,127
94465,note_on,0,0,0,,7,,,43,127
94465,note_on,0,0,0,,7,,,67,127
94465,note_on,0,0,0,,0,,,72,127
94569,note_off,104,0,0,,0,,,72,127
94570,note_on,1,0,0,,11,,,70,127
94674,note_off,104,0,0,,11,,,70,127
94674,note_off,0,0,0,,7,,,67,127
94674,note_off,0,0,0,,7,,,43,127
94675,note_on,1,0,0,,11,,,46,127
94675,note_on,0,0,0,,10,,,69,127
94779,note_off,104,0,0,,10,,,69,127
94780,note_on,1,0,0,,7,,,67,127
94884,note_off,104,0,0,,7,,,67,127
94884,note_off,0,0,0,,11,,,46,127
94885,note_on,1,0,0,,0,,,48,127
94885,note_on,0,0,0,,11,,,70,127
94989,note_off,104,0,0,,11,,,70,127
94990,note_on,1,0,0,,10,,,69,127
95094,note_off,104,0,0,,10,,,69,127
95094,note_off,0,0,0,,0,,,48,127
95095,note_on,1,0,0,,2,,,50,127
95095,note_on,0,0,0,,7,,,67,127
95199,note_off,104,0,0,,7,,,67,127
95200,note_on,1,0,0,,6,,,66,127
95304,note_off,104,0,0,,6,,,66,127
95304,note_off,0,0,0,,2,,,50,127
95304,note_off,0,0,0,,7,,,55,127
95323,note_on,19,0,0,,7,,,43,127
95323,note_on,0,0,0,,7,,,55,127
95323,note_on,0,0,0,,11,,,70,127
95323,note_on,0,0,0,,7,,,79,127
95531,note_off,208,0,0,,7,,,79,127
95532,note_on,1,0,0,,2,,,50,127
95532,note_on,0,0,0,,3,,,75,127
95740,note_off,208,0,0,,2,,,50,127
95740,note_off,0,0,0,,11,,,70,127
95740,note_off,0,0,0,,7,,,55,127
95740,note_off,0,0,0,,7,,,43,127
95741,note_on,1,0,0,,6,,,54,127
95741,note_on,0,0,0,,6,,,42,127
95741,note_on,0,0,0,,10,,,69,127
95949,note_off,208,0,0,,3,,,75,127
95950,note_on,1,0,0,,2,,,50,127
95950,note_on,0,0,0,,2,,,74,127
96054,note_off,104,0,0,,2,,,74,127
96055,note_on,1,0,0,,0,,,72,127
96159,note_off,104,0,0,,0,,,72,127
96159,note_off,0,0,0,,2,,,50,127
96159,note_off,0,0,0,,10,,,69,127
96159,note_off,0,0,0,,6,,,42,127
96159,note_off,0,0,0,,6,,,54,127
96160,note_on,1,0,0,,7,,,43,127
96160,note_on,0,0,0,,7,,,55,127
96160,note_on,0,0,0,,7,,,67,127
96160,note_on,0,0,0,,0,,,72,127
96264,note_off,104,0,0,,0,,,72,127
96264,note_off,0,0,0,,7,,,67,127
96265,note_on,1,0,0,,11,,,70,127
96369,note_off,104,0,0,,11,,,70,127
96369,note_off,0,0,0,,7,,,55,127
96369,note_off,0,0,0,,7,,,43,127
96370,note_on,1,0,0,,11,,,46,127
96370,note_on,0,0,0,,10,,,69,127
96474,note_off,104,0,0,,10,,,69,127
96475,note_on,1,0,0,,7,,,67,127
96579,note_off,104,0,0,,7,,,67,127
96579,note_off,0,0,0,,11,,,46,127
96580,note_on,1,0,0,,0,,,48,127
96580,note_on,0,0,0,,2,,,74,127
96684,note_off,104,0,0,,2,,,74,127
96685,note_on,1,0,0,,7,,,67,127
96789,note_off,104,0,0,,7,,,67,127
96789,note_off,0,0,0,,0,,,48,127
96790,note_on,1,0,0,,2,,,50,127
96790,note_on,0,0,0,,10,,,69,127
96894,note_off,104,0,0,,10,,,69,127
96895,note_on,1,0,0,,6,,,66,127
96999,note_off,104,0,0,,6,,,66,127
96999,note_off,0,0,0,,2,,,50,127
97000,note_on,1,0,0,,7,,,43,127
97000,note_on,0,0,0,,6,,,66,127
97418,note_off,418,0,0,,6,,,66,127
97419,note_on,1,0,0,,7,,,67,127
99346,note_off,1927,0,0,,7,,,43,127
99383,note_off,37,0,0,,7,,,67,127
102912,end_of_track,3529,1,0,,,,,,
