tick,type,time,meta,track,program,channel,pitch,tempo,note,velocity
0,copyright,0,1,0,,,,,,
0,program_change,0,0,0,6,0,,,,
0,pitchwheel,0,0,0,,0,0,,,
0,program_change,0,0,0,6,1,,,,
0,pitchwheel,0,0,0,,1,-590,,,
0,program_change,0,0,0,6,2,,,,
0,pitchwheel,0,0,0,,2,-272,,,
0,program_change,0,0,0,6,3,,,,
0,pitchwheel,0,0,0,,3,-353,,,
0,program_change,0,0,0,6,4,,,,
0,pitchwheel,0,0,0,,4,-560,,,
0,program_change,0,0,0,6,5,,,,
0,pitchwheel,0,0,0,,5,-80,,,
0,program_change,0,0,0,6,6,,,,
0,pitchwheel,0,0,0,,6,-625,,,
0,program_change,0,0,0,6,7,,,,
0,pitchwheel,0,0,0,,7,-130,,,
0,program_change,0,0,0,6,8,,,,
0,pitchwheel,0,0,0,,8,-512,,,
0,program_change,0,0,0,6,10,,,,
0,pitchwheel,0,0,0,,10,-464,,,
0,program_change,0,0,0,6,11,,,,
0,pitchwheel,0,0,0,,11,-208,,,
0,program_change,0,0,0,6,12,,,,
0,pitchwheel,0,0,0,,12,-553,,,
0,set_tempo,0,1,0,,,,500000,,
38,note_on,38,0,0,,2,,,50,127
38,note_on,0,0,0,,2,,,74,127
96,note_on,58,0,0,,7,,,55,127
154,note_on,58,0,0,,10,,,57,127
212,note_on,58,0,0,,2,,,62,127
268,note_off,56,0,0,,2,,,74,127
269,note_on,1,0,0,,6,,,78,127
383,note_off,114,0,0,,6,,,78,127
384,note_on,1,0,0,,2,,,74,127
498,note_off,114,0,0,,2,,,74,127
499,note_on,1,0,0,,4,,,76,127
613,note_off,114,0,0,,4,,,76,127
614,note_on,1,0,0,,10,,,69,127
670,note_off,56,0,0,,2,,,62,127
690,note_off,20,0,0,,10,,,57,127
709,note_off,19,0,0,,7,,,55,127
727,note_off,18,0,0,,10,,,69,127
727,note_off,0,0,0,,2,,,50,127
728,note_on,1,0,0,,2,,,50,127
728,note_on,0,0,0,,2,,,74,127
786,note_on,58,0,0,,7,,,55,127
844,note_on,58,0,0,,10,,,57,127
902,note_on,58,0,0,,2,,,62,127
958,note_off,56,0,0,,2,,,74,127
959,note_on,1,0,0,,6,,,78,127
1073,note_off,114,0,0,,6,,,78,127
1074,note_on,1,0,0,,2,,,74,127
1188,note_off,114,0,0,,2,,,74,127
1189,note_on,1,0,0,,4,,,76,127
1303,note_off,114,0,0,,4,,,76,127
1304,note_on,1,0,0,,10,,,69,127
1360,note_off,56,0,0,,2,,,62,127
1380,note_off,20,0,0,,10,,,57,127
1399,note_off,19,0,0,,7,,,55,127
1417,note_off,18,0,0,,10,,,69,127
1417,note_off,0,0,0,,2,,,50,127
1418,note_on,1,0,0,,2,,,50,127
1418,note_on,0,0,0,,2,,,74,127
1476,note_on,58,0,0,,7,,,55,127
1534,note_on,58,0,0,,10,,,57,127
1592,note_on,58,0,0,,2,,,62,127
1648,note_off,56,0,0,,2,,,74,127
1649,note_on,1,0,0,,6,,,78,127
1763,note_off,114,0,0,,6,,,78,127
1764,note_on,1,0,0,,2,,,74,127
1878,note_off,114,0,0,,2,,,74,127
1879,note_on,1,0,0,,4,,,76,127
1993,note_off,114,0,0,,4,,,76,127
1994,note_on,1,0,0,,10,,,69,127
2050,note_off,56,0,0,,2,,,62,127
2070,note_off,20,0,0,,10,,,57,127
2089,note_off,19,0,0,,7,,,55,127
2107,note_off,18,0,0,,10,,,69,127
2107,note_off,0,0,0,,2,,,50,127
2108,note_on,1,0,0,,2,,,38,127
2108,note_on,0,0,0,,2,,,74,127
2185,note_on,77,0,0,,7,,,43,127
2222,note_off,37,0,0,,2,,,74,127
2223,note_on,1,0,0,,10,,,69,127
2261,note_on,38,0,0,,10,,,45,127
2337,note_off,76,0,0,,10,,,69,127
2338,note_on,1,0,0,,2,,,50,127
2338,note_on,0,0,0,,6,,,66,127
2452,note_off,114,0,0,,6,,,66,127
2453,note_on,1,0,0,,2,,,62,127
2567,note_off,114,0,0,,2,,,62,127
2568,note_on,1,0,0,,6,,,66,127
2682,note_off,114,0,0,,6,,,66,127
2683,note_on,1,0,0,,10,,,69,127
2797,note_off,114,0,0,,10,,,69,127
2797,note_off,0,0,0,,2,,,50,127
2797,note_off,0,0,0,,2,,,38,127
2798,note_off,1,0,0,,10,,,45,127
2798,note_off,0,0,0,,7,,,43,127
2798,note_on,0,0,0,,2,,,74,127
2798,note_on,0,0,0,,6,,,78,127
3027,note_off,229,0,0,,6,,,78,127
3028,note_on,1,0,0,,6,,,78,127
3028,note_on,0,0,0,,10,,,81,127
3141,note_off,113,0,0,,2,,,74,127
3142,note_off,1,0,0,,6,,,78,127
3143,note_on,1,0,0,,2,,,74,127
3257,note_off,114,0,0,,2,,,74,127
3257,note_off,0,0,0,,10,,,81,127
3258,note_on,1,0,0,,4,,,76,127
3258,note_on,0,0,0,,7,,,79,127
3373,note_on,115,0,0,,10,,,69,127
3431,note_off,58,0,0,,4,,,76,127
3487,note_off,56,0,0,,10,,,69,127
3487,note_off,0,0,0,,7,,,79,127
3488,note_on,1,0,0,,2,,,74,127
3488,note_on,0,0,0,,6,,,78,127
3717,note_off,229,0,0,,6,,,78,127
3718,note_on,1,0,0,,6,,,78,127
3718,note_on,0,0,0,,10,,,81,127
3831,note_off,113,0,0,,2,,,74,127
3832,note_off,1,0,0,,6,,,78,127
3833,note_on,1,0,0,,2,,,74,127
3947,note_off,114,0,0,,2,,,74,127
3947,note_off,0,0,0,,10,,,81,127
3948,note_on,1,0,0,,4,,,76,127
3948,note_on,0,0,0,,7,,,79,127
4063,note_on,115,0,0,,10,,,69,127
4121,note_off,58,0,0,,4,,,76,127
4177,note_off,56,0,0,,10,,,69,127
4177,note_off,0,0,0,,7,,,79,127
4178,note_on,1,0,0,,2,,,74,127
4178,note_on,0,0,0,,6,,,78,127
4407,note_off,229,0,0,,6,,,78,127
4408,note_on,1,0,0,,6,,,78,127
4408,note_on,0,0,0,,10,,,81,127
4521,note_off,113,0,0,,2,,,74,127
4522,note_off,1,0,0,,6,,,78,127
4523,note_on,1,0,0,,2,,,74,127
4637,note_off,114,0,0,,2,,,74,127
4637,note_off,0,0,0,,10,,,81,127
4638,note_on,1,0,0,,4,,,76,127
4638,note_on,0,0,0,,7,,,79,127
4753,note_on,115,0,0,,10,,,69,127
4811,note_off,58,0,0,,4,,,76,127
4867,note_off,56,0,0,,10,,,69,127
4867,note_off,0,0,0,,7,,,79,127
4868,note_on,1,0,0,,2,,,74,127
4868,note_on,0,0,0,,6,,,78,127
4982,note_off,114,0,0,,6,,,78,127
4982,note_off,0,0,0,,2,,,74,127
4983,note_on,1,0,0,,10,,,69,127
4983,note_on,0,0,0,,4,,,76,127
5097,note_off,114,0,0,,4,,,76,127
5097,note_off,0,0,0,,10,,,69,127
5098,note_on,1,0,0,,6,,,66,127
5098,note_on,0,0,0,,2,,,74,127
5212,note_off,114,0,0,,2,,,74,127
5212,note_off,0,0,0,,6,,,66,127
5213,note_on,1,0,0,,2,,,62,127
5213,note_on,0,0,0,,4,,,76,127
5327,note_off,114,0,0,,4,,,76,127
5328,note_on,1,0,0,,6,,,78,127
5904,note_off,576,0,0,,6,,,78,127
5904,note_off,0,0,0,,2,,,62,127
6030,note_on,126,0,0,,2,,,62,127
6030,note_on,0,0,0,,12,,,83,127
6074,note_on,44,0,0,,10,,,81,127
6094,note_off,20,0,0,,12,,,83,127
6095,note_on,1,0,0,,6,,,66,127
6118,note_on,23,0,0,,12,,,83,127
6138,note_off,20,0,0,,10,,,81,127
6161,note_on,23,0,0,,10,,,69,127
6161,note_on,0,0,0,,10,,,81,127
6183,note_off,22,0,0,,12,,,83,127
6205,note_on,22,0,0,,12,,,83,127
6210,note_off,5,0,0,,6,,,66,127
6227,note_off,17,0,0,,10,,,81,127
6227,note_on,0,0,0,,2,,,74,127
6250,note_on,23,0,0,,10,,,81,127
6258,note_off,8,0,0,,2,,,62,127
6270,note_off,12,0,0,,12,,,83,127
6276,note_off,6,0,0,,10,,,69,127
6292,note_on,16,0,0,,6,,,78,127
6292,note_on,0,0,0,,12,,,83,127
6315,note_off,23,0,0,,10,,,81,127
6337,note_on,22,0,0,,10,,,81,127
6342,note_off,5,0,0,,2,,,74,127
6358,note_off,16,0,0,,12,,,83,127
6360,note_on,2,0,0,,2,,,74,127
6383,note_on,23,0,0,,12,,,83,127
6402,note_off,19,0,0,,10,,,81,127
6424,note_on,22,0,0,,10,,,69,127
6424,note_on,0,0,0,,10,,,81,127
6448,note_off,24,0,0,,12,,,83,127
6468,note_on,20,0,0,,12,,,83,127
6474,note_off,6,0,0,,2,,,74,127
6488,note_off,14,0,0,,10,,,81,127
6490,note_on,2,0,0,,6,,,66,127
6510,note_on,20,0,0,,10,,,81,127
6520,note_off,10,0,0,,6,,,78,127
6532,note_off,12,0,0,,12,,,83,127
6537,note_off,5,0,0,,10,,,69,127
6556,note_on,19,0,0,,2,,,62,127
6556,note_on,0,0,0,,12,,,83,127
6575,note_off,19,0,0,,10,,,81,127
6598,note_on,23,0,0,,10,,,81,127
6604,note_off,6,0,0,,6,,,66,127
6620,note_on,16,0,0,,6,,,66,127
6621,note_off,1,0,0,,12,,,83,127
6641,note_on,20,0,0,,12,,,83,127
6663,note_off,22,0,0,,10,,,81,127
6687,note_on,24,0,0,,10,,,69,127
6687,note_on,0,0,0,,10,,,81,127
6706,note_off,19,0,0,,12,,,83,127
6729,note_on,23,0,0,,12,,,83,127
6734,note_off,5,0,0,,6,,,66,127
6750,note_on,16,0,0,,2,,,74,127
6752,note_off,2,0,0,,10,,,81,127
6772,note_on,20,0,0,,10,,,81,127
6784,note_off,12,0,0,,2,,,62,127
6794,note_off,10,0,0,,12,,,83,127
6801,note_off,7,0,0,,10,,,69,127
6817,note_on,16,0,0,,6,,,78,127
6817,note_on,0,0,0,,12,,,83,127
6837,note_off,20,0,0,,10,,,81,127
6860,note_on,23,0,0,,10,,,81,127
6864,note_off,4,0,0,,2,,,74,127
6882,note_off,18,0,0,,12,,,83,127
6882,note_on,0,0,0,,2,,,74,127
6905,note_on,23,0,0,,12,,,83,127
6925,note_off,20,0,0,,10,,,81,127
6947,note_on,22,0,0,,10,,,69,127
6947,note_on,0,0,0,,10,,,81,127
6970,note_off,23,0,0,,12,,,83,127
6990,note_on,20,0,0,,12,,,83,127
6996,note_off,6,0,0,,2,,,74,127
7012,note_off,16,0,0,,10,,,81,127
7013,note_on,1,0,0,,6,,,66,127
7036,note_on,23,0,0,,10,,,81,127
7046,note_off,10,0,0,,6,,,78,127
7056,note_off,10,0,0,,12,,,83,127
7062,note_off,6,0,0,,10,,,69,127
7080,note_on,18,0,0,,2,,,62,127
7080,note_on,0,0,0,,12,,,83,127
7102,note_off,22,0,0,,10,,,81,127
7122,note_on,20,0,0,,10,,,81,127
7128,note_off,6,0,0,,6,,,66,127
7145,note_off,17,0,0,,12,,,83,127
7145,note_on,0,0,0,,6,,,66,127
7167,note_on,22,0,0,,12,,,83,127
7187,note_off,20,0,0,,10,,,81,127
7211,note_on,24,0,0,,10,,,69,127
7211,note_on,0,0,0,,10,,,81,127
7231,note_off,20,0,0,,12,,,83,127
7254,note_on,23,0,0,,12,,,83,127
7259,note_off,5,0,0,,6,,,66,127
7276,note_off,17,0,0,,10,,,81,127
7276,note_on,0,0,0,,2,,,74,127
7298,note_on,22,0,0,,10,,,81,127
7309,note_off,11,0,0,,2,,,62,127
7320,note_off,11,0,0,,12,,,83,127
7326,note_off,6,0,0,,10,,,69,127
7343,note_on,17,0,0,,6,,,78,127
7343,note_on,0,0,0,,12,,,83,127
7363,note_off,20,0,0,,10,,,81,127
7385,note_on,22,0,0,,10,,,81,127
7391,note_off,6,0,0,,2,,,74,127
7408,note_off,17,0,0,,12,,,83,127
7408,note_on,0,0,0,,2,,,74,127
7430,note_on,22,0,0,,12,,,83,127
7450,note_off,20,0,0,,10,,,81,127
7474,note_on,24,0,0,,10,,,69,127
7474,note_on,0,0,0,,10,,,81,127
7494,note_off,20,0,0,,12,,,83,127
7516,note_on,22,0,0,,12,,,83,127
7522,note_off,6,0,0,,2,,,74,127
7538,note_on,16,0,0,,6,,,66,127
7539,note_off,1,0,0,,10,,,81,127
7561,note_on,22,0,0,,10,,,81,127
7572,note_off,11,0,0,,6,,,78,127
7582,note_off,10,0,0,,12,,,83,127
7589,note_off,7,0,0,,10,,,69,127
7605,note_on,16,0,0,,2,,,62,127
7605,note_on,0,0,0,,12,,,83,127
7627,note_off,22,0,0,,10,,,81,127
7651,note_on,24,0,0,,10,,,81,127
7653,note_off,2,0,0,,6,,,66,127
7670,note_off,17,0,0,,12,,,83,127
7671,note_on,1,0,0,,6,,,66,127
7693,note_on,22,0,0,,12,,,83,127
7716,note_off,23,0,0,,10,,,81,127
7736,note_on,20,0,0,,10,,,69,127
7736,note_on,0,0,0,,10,,,81,127
7758,note_off,22,0,0,,12,,,83,127
7781,note_on,23,0,0,,12,,,83,127
7786,note_off,5,0,0,,6,,,66,127
7802,note_off,16,0,0,,10,,,81,127
7803,note_on,1,0,0,,2,,,74,127
7825,note_on,22,0,0,,10,,,81,127
7835,note_off,10,0,0,,2,,,62,127
7847,note_off,12,0,0,,12,,,83,127
7852,note_off,5,0,0,,10,,,69,127
7869,note_on,17,0,0,,6,,,78,127
7869,note_on,0,0,0,,12,,,83,127
7891,note_off,22,0,0,,10,,,81,127
7914,note_on,23,0,0,,10,,,81,127
7919,note_off,5,0,0,,2,,,74,127
7935,note_on,16,0,0,,2,,,74,127
7947,note_off,12,0,0,,12,,,83,127
7958,note_on,11,0,0,,12,,,83,127
7992,note_off,34,0,0,,10,,,81,127
8003,note_on,11,0,0,,10,,,69,127
8003,note_on,0,0,0,,10,,,81,127
8035,note_off,32,0,0,,12,,,83,127
8046,note_on,11,0,0,,12,,,83,127
8050,note_off,4,0,0,,2,,,74,127
8067,note_on,17,0,0,,6,,,66,127
8080,note_off,13,0,0,,10,,,81,127
8088,note_on,8,0,0,,10,,,81,127
8099,note_off,11,0,0,,6,,,78,127
8117,note_off,18,0,0,,10,,,69,127
8123,note_off,6,0,0,,12,,,83,127
8134,note_on,11,0,0,,2,,,62,127
8181,note_off,47,0,0,,6,,,66,127
8233,note_off,52,0,0,,10,,,81,127
8240,note_on,7,0,0,,7,,,79,127
8286,note_on,46,0,0,,6,,,78,127
8328,note_off,42,0,0,,7,,,79,127
8330,note_on,2,0,0,,4,,,76,127
8373,note_off,43,0,0,,6,,,78,127
8375,note_on,2,0,0,,2,,,74,127
8417,note_off,42,0,0,,4,,,76,127
8419,note_on,2,0,0,,1,,,73,127
8462,note_off,43,0,0,,2,,,74,127
8464,note_on,2,0,0,,12,,,71,127
8505,note_off,41,0,0,,2,,,62,127
8506,note_off,1,0,0,,1,,,73,127
8508,note_on,2,0,0,,10,,,69,127
8551,note_off,43,0,0,,12,,,71,127
8553,note_on,2,0,0,,7,,,67,127
8595,note_off,42,0,0,,10,,,69,127
8597,note_on,2,0,0,,6,,,66,127
8640,note_off,43,0,0,,7,,,67,127
8641,note_on,1,0,0,,4,,,64,127
8684,note_off,43,0,0,,6,,,66,127
8685,note_on,1,0,0,,2,,,62,127
8728,note_off,43,0,0,,4,,,64,127
8732,note_on,4,0,0,,1,,,61,127
8773,note_off,41,0,0,,2,,,62,127
8775,note_on,2,0,0,,12,,,59,127
8819,note_off,44,0,0,,1,,,61,127
8819,note_on,0,0,0,,10,,,57,127
8862,note_off,43,0,0,,12,,,59,127
8866,note_on,4,0,0,,7,,,55,127
8907,note_off,41,0,0,,10,,,57,127
8911,note_on,4,0,0,,6,,,54,127
8954,note_off,43,0,0,,7,,,55,127
8956,note_on,2,0,0,,4,,,52,127
8998,note_off,42,0,0,,6,,,54,127
8999,note_on,1,0,0,,2,,,50,127
9043,note_off,44,0,0,,4,,,52,127
9043,note_on,0,0,0,,1,,,49,127
9086,note_off,43,0,0,,2,,,50,127
9090,note_on,4,0,0,,12,,,47,127
9131,note_off,41,0,0,,1,,,49,127
9135,note_on,4,0,0,,10,,,45,127
9178,note_off,43,0,0,,12,,,47,127
9180,note_on,2,0,0,,7,,,43,127
9222,note_off,42,0,0,,10,,,45,127
9222,note_on,0,0,0,,6,,,42,127
9268,note_off,46,0,0,,7,,,43,127
9270,note_on,2,0,0,,4,,,40,127
9310,note_off,40,0,0,,6,,,42,127
9314,note_on,4,0,0,,2,,,38,127
9358,note_off,44,0,0,,4,,,40,127
10518,note_off,1160,0,0,,2,,,38,127
10640,note_on,122,0,0,,2,,,50,127
10640,note_on,0,0,0,,6,,,78,127
10640,note_on,0,0,0,,2,,,74,127
10754,note_off,114,0,0,,2,,,50,127
10755,note_on,1,0,0,,6,,,54,127
10869,note_off,114,0,0,,6,,,54,127
10869,note_off,0,0,0,,2,,,74,127
10869,note_off,0,0,0,,6,,,78,127
10870,note_on,1,0,0,,10,,,57,127
10870,note_on,0,0,0,,2,,,74,127
10870,note_on,0,0,0,,6,,,78,127
10984,note_off,114,0,0,,10,,,57,127
10985,note_on,1,0,0,,2,,,62,127
11099,note_off,114,0,0,,2,,,62,127
11099,note_off,0,0,0,,6,,,78,127
11099,note_off,0,0,0,,2,,,74,127
11100,note_on,1,0,0,,6,,,66,127
11100,note_on,0,0,0,,10,,,81,127
11214,note_off,114,0,0,,6,,,66,127
11215,note_on,1,0,0,,10,,,69,127
11329,note_off,114,0,0,,10,,,69,127
11329,note_off,0,0,0,,10,,,81,127
11330,note_on,1,0,0,,2,,,38,127
11330,note_on,0,0,0,,6,,,78,127
11444,note_off,114,0,0,,6,,,78,127
11445,note_on,1,0,0,,2,,,74,127
11559,note_off,114,0,0,,2,,,74,127
11560,note_on,1,0,0,,4,,,76,127
11674,note_off,114,0,0,,4,,,76,127
11675,note_on,1,0,0,,1,,,73,127
11789,note_off,114,0,0,,1,,,73,127
11790,note_on,1,0,0,,2,,,74,127
11904,note_off,114,0,0,,2,,,74,127
11905,note_on,1,0,0,,10,,,69,127
12019,note_off,114,0,0,,10,,,69,127
12019,note_off,0,0,0,,2,,,38,127
12020,note_on,1,0,0,,2,,,50,127
12020,note_on,0,0,0,,2,,,74,127
12020,note_on,0,0,0,,6,,,78,127
12134,note_off,114,0,0,,2,,,50,127
12135,note_on,1,0,0,,6,,,54,127
12249,note_off,114,0,0,,6,,,54,127
12249,note_off,0,0,0,,6,,,78,127
12249,note_off,0,0,0,,2,,,74,127
12250,note_on,1,0,0,,10,,,57,127
12250,note_on,0,0,0,,2,,,74,127
12250,note_on,0,0,0,,6,,,78,127
12364,note_off,114,0,0,,10,,,57,127
12365,note_on,1,0,0,,2,,,62,127
12479,note_off,114,0,0,,2,,,62,127
12479,note_off,0,0,0,,6,,,78,127
12479,note_off,0,0,0,,2,,,74,127
12480,note_on,1,0,0,,6,,,66,127
12480,note_on,0,0,0,,10,,,81,127
12594,note_off,114,0,0,,6,,,66,127
12595,note_on,1,0,0,,10,,,69,127
12709,note_off,114,0,0,,10,,,69,127
12709,note_off,0,0,0,,10,,,81,127
12710,note_on,1,0,0,,2,,,38,127
12710,note_on,0,0,0,,6,,,78,127
12824,note_off,114,0,0,,6,,,78,127
12825,note_on,1,0,0,,2,,,74,127
12939,note_off,114,0,0,,2,,,74,127
12940,note_on,1,0,0,,4,,,76,127
13054,note_off,114,0,0,,4,,,76,127
13055,note_on,1,0,0,,1,,,73,127
13169,note_off,114,0,0,,1,,,73,127
13170,note_on,1,0,0,,2,,,74,127
13284,note_off,114,0,0,,2,,,74,127
13285,note_on,1,0,0,,10,,,69,127
13399,note_off,114,0,0,,10,,,69,127
13399,note_off,0,0,0,,2,,,38,127
13400,note_on,1,0,0,,2,,,50,127
13400,note_on,0,0,0,,6,,,78,127
13400,note_on,0,0,0,,2,,,74,127
13514,note_off,114,0,0,,2,,,50,127
13515,note_on,1,0,0,,6,,,54,127
13629,note_off,114,0,0,,6,,,54,127
13629,note_off,0,0,0,,2,,,74,127
13629,note_off,0,0,0,,6,,,78,127
13630,note_on,1,0,0,,10,,,57,127
13630,note_on,0,0,0,,6,,,78,127
13630,note_on,0,0,0,,2,,,74,127
13744,note_off,114,0,0,,10,,,57,127
13745,note_on,1,0,0,,2,,,62,127
13859,note_off,114,0,0,,2,,,62,127
13859,note_off,0,0,0,,2,,,74,127
13859,note_off,0,0,0,,6,,,78,127
13860,note_on,1,0,0,,6,,,66,127
13860,note_on,0,0,0,,10,,,81,127
13974,note_off,114,0,0,,6,,,66,127
13975,note_on,1,0,0,,10,,,69,127
14089,note_off,114,0,0,,10,,,69,127
14089,note_off,0,0,0,,10,,,81,127
14093,note_on,4,0,0,,10,,,69,127
14093,note_on,0,0,0,,6,,,78,127
14093,note_on,0,0,0,,2,,,74,127
14293,note_off,200,0,0,,2,,,74,127
14293,note_off,0,0,0,,6,,,78,127
14293,note_off,0,0,0,,10,,,69,127
14309,note_on,16,0,0,,7,,,79,127
14309,note_on,0,0,0,,12,,,71,127
14379,note_off,70,0,0,,12,,,71,127
14379,note_off,0,0,0,,7,,,79,127
14390,note_on,11,0,0,,10,,,69,127
14390,note_on,0,0,0,,2,,,74,127
14390,note_on,0,0,0,,6,,,78,127
14574,note_off,184,0,0,,6,,,78,127
14574,note_off,0,0,0,,2,,,74,127
14574,note_off,0,0,0,,10,,,69,127
14593,note_on,19,0,0,,7,,,79,127
14593,note_on,0,0,0,,12,,,71,127
14640,note_off,47,0,0,,12,,,71,127
14640,note_off,0,0,0,,7,,,79,127
14645,note_on,5,0,0,,10,,,69,127
14645,note_on,0,0,0,,2,,,74,127
14645,note_on,0,0,0,,6,,,78,127
14789,note_off,144,0,0,,6,,,78,127
14789,note_off,0,0,0,,2,,,74,127
14789,note_off,0,0,0,,10,,,69,127
14806,note_on,17,0,0,,12,,,71,127
14806,note_on,0,0,0,,7,,,79,127
14850,note_off,44,0,0,,12,,,71,127
14851,note_off,1,0,0,,7,,,79,127
14856,note_on,5,0,0,,6,,,78,127
14856,note_on,0,0,0,,2,,,74,127
14930,note_on,74,0,0,,7,,,79,127
14930,note_on,0,0,0,,4,,,76,127
14942,note_off,12,0,0,,2,,,74,127
14942,note_off,0,0,0,,6,,,78,127
15007,note_on,65,0,0,,2,,,74,127
15007,note_on,0,0,0,,6,,,78,127
15014,note_off,7,0,0,,4,,,76,127
15014,note_off,0,0,0,,7,,,79,127
15087,note_on,73,0,0,,4,,,76,127
15087,note_on,0,0,0,,7,,,79,127
15088,note_off,1,0,0,,6,,,78,127
15088,note_off,0,0,0,,2,,,74,127
15166,note_off,78,0,0,,7,,,79,127
15166,note_off,0,0,0,,4,,,76,127
15167,note_on,1,0,0,,6,,,78,127
15167,note_on,0,0,0,,2,,,74,127
15238,note_on,71,0,0,,4,,,76,127
15238,note_on,0,0,0,,7,,,79,127
15244,note_off,6,0,0,,2,,,74,127
15244,note_off,0,0,0,,6,,,78,127
15306,note_on,62,0,0,,2,,,74,127
15306,note_on,0,0,0,,6,,,78,127
15312,note_off,6,0,0,,7,,,79,127
15312,note_off,0,0,0,,4,,,76,127
15377,note_on,65,0,0,,4,,,76,127
15377,note_on,0,0,0,,7,,,79,127
15379,note_off,2,0,0,,6,,,78,127
15379,note_off,0,0,0,,2,,,74,127
15445,note_on,66,0,0,,2,,,74,127
15445,note_on,0,0,0,,6,,,78,127
15449,note_off,4,0,0,,7,,,79,127
15449,note_off,0,0,0,,4,,,76,127
15509,note_on,60,0,0,,7,,,79,127
15509,note_on,0,0,0,,4,,,76,127
15516,note_off,7,0,0,,6,,,78,127
15516,note_off,0,0,0,,2,,,74,127
15572,note_on,56,0,0,,2,,,74,127
15572,note_on,0,0,0,,6,,,78,127
15578,note_off,6,0,0,,4,,,76,127
15578,note_off,0,0,0,,7,,,79,127
15632,note_on,54,0,0,,4,,,76,127
15632,note_on,0,0,0,,7,,,79,127
15640,note_off,8,0,0,,6,,,78,127
15640,note_off,0,0,0,,2,,,74,127
15695,note_on,55,0,0,,2,,,74,127
15695,note_on,0,0,0,,6,,,78,127
15699,note_off,4,0,0,,7,,,79,127
15699,note_off,0,0,0,,4,,,76,127
15753,note_on,54,0,0,,4,,,76,127
15753,note_on,0,0,0,,7,,,79,127
15761,note_off,8,0,0,,6,,,78,127
15761,note_off,0,0,0,,2,,,74,127
15809,note_on,48,0,0,,2,,,74,127
15809,note_on,0,0,0,,6,,,78,127
15817,note_off,8,0,0,,7,,,79,127
15817,note_off,0,0,0,,4,,,76,127
15866,note_on,49,0,0,,4,,,76,127
15866,note_on,0,0,0,,7,,,79,127
15872,note_off,6,0,0,,6,,,78,127
15872,note_off,0,0,0,,2,,,74,127
15921,note_on,49,0,0,,6,,,78,127
15921,note_on,0,0,0,,2,,,74,127
15928,note_off,7,0,0,,7,,,79,127
15928,note_off,0,0,0,,4,,,76,127
15980,note_on,52,0,0,,4,,,76,127
15980,note_on,0,0,0,,7,,,79,127
15982,note_off,2,0,0,,2,,,74,127
15982,note_off,0,0,0,,6,,,78,127
16040,note_on,58,0,0,,6,,,78,127
16040,note_on,0,0,0,,2,,,74,127
16041,note_off,1,0,0,,7,,,79,127
16041,note_off,0,0,0,,4,,,76,127
16097,note_on,56,0,0,,4,,,76,127
16097,note_on,0,0,0,,7,,,79,127
16101,note_off,4,0,0,,2,,,74,127
16101,note_off,0,0,0,,6,,,78,127
16154,note_on,53,0,0,,6,,,78,127
16154,note_on,0,0,0,,2,,,74,127
16159,note_off,5,0,0,,7,,,79,127
16159,note_off,0,0,0,,4,,,76,127
16209,note_on,50,0,0,,4,,,76,127
16209,note_on,0,0,0,,7,,,79,127
16215,note_off,6,0,0,,2,,,74,127
16215,note_off,0,0,0,,6,,,78,127
16264,note_on,49,0,0,,2,,,74,127
16264,note_on,0,0,0,,6,,,78,127
16270,note_off,6,0,0,,7,,,79,127
16270,note_off,0,0,0,,4,,,76,127
16320,note_on,50,0,0,,4,,,76,127
16320,note_on,0,0,0,,7,,,79,127
16325,note_off,5,0,0,,6,,,78,127
16325,note_off,0,0,0,,2,,,74,127
16375,note_on,50,0,0,,6,,,78,127
16375,note_on,0,0,0,,2,,,74,127
16381,note_off,6,0,0,,7,,,79,127
16381,note_off,0,0,0,,4,,,76,127
16428,note_on,47,0,0,,4,,,76,127
16428,note_on,0,0,0,,7,,,79,127
16436,note_off,8,0,0,,2,,,74,127
16436,note_off,0,0,0,,6,,,78,127
16485,note_on,49,0,0,,6,,,78,127
16485,note_on,0,0,0,,2,,,74,127
16489,note_off,4,0,0,,7,,,79,127
16489,note_off,0,0,0,,4,,,76,127
16544,note_on,55,0,0,,4,,,76,127
16544,note_on,0,0,0,,7,,,79,127
16546,note_off,2,0,0,,2,,,74,127
16546,note_off,0,0,0,,6,,,78,127
16598,note_on,52,0,0,,2,,,74,127
16598,note_on,0,0,0,,6,,,78,127
16605,note_off,7,0,0,,7,,,79,127
16605,note_off,0,0,0,,4,,,76,127
16652,note_on,47,0,0,,4,,,76,127
16652,note_on,0,0,0,,7,,,79,127
16659,note_off,7,0,0,,6,,,78,127
16659,note_off,0,0,0,,2,,,74,127
16711,note_on,52,0,0,,6,,,78,127
16711,note_on,0,0,0,,2,,,74,127
16713,note_off,2,0,0,,7,,,79,127
16713,note_off,0,0,0,,4,,,76,127
16762,note_on,49,0,0,,7,,,79,127
16762,note_on,0,0,0,,4,,,76,127
16764,note_off,2,0,0,,2,,,74,127
16764,note_off,0,0,0,,6,,,78,127
16816,note_off,52,0,0,,4,,,76,127
16816,note_off,0,0,0,,7,,,79,127
16817,note_on,1,0,0,,6,,,78,127
16817,note_on,0,0,0,,2,,,74,127
16870,note_on,53,0,0,,4,,,76,127
16870,note_on,0,0,0,,7,,,79,127
16871,note_off,1,0,0,,2,,,74,127
16871,note_off,0,0,0,,6,,,78,127
16924,note_off,53,0,0,,7,,,79,127
16924,note_off,0,0,0,,4,,,76,127
16925,note_on,1,0,0,,2,,,74,127
16925,note_on,0,0,0,,6,,,78,127
16979,note_off,54,0,0,,6,,,78,127
16979,note_off,0,0,0,,2,,,74,127
16979,note_on,0,0,0,,4,,,76,127
16979,note_on,0,0,0,,7,,,79,127
17033,note_off,54,0,0,,7,,,79,127
17033,note_off,0,0,0,,4,,,76,127
17034,note_on,1,0,0,,2,,,74,127
17034,note_on,0,0,0,,6,,,78,127
17084,note_on,50,0,0,,4,,,76,127
17084,note_on,0,0,0,,7,,,79,127
17088,note_off,4,0,0,,6,,,78,127
17088,note_off,0,0,0,,2,,,74,127
17136,note_on,48,0,0,,2,,,74,127
17136,note_on,0,0,0,,6,,,78,127
17138,note_off,2,0,0,,7,,,79,127
17138,note_off,0,0,0,,4,,,76,127
17188,note_on,50,0,0,,4,,,76,127
17188,note_on,0,0,0,,7,,,79,127
17189,note_off,1,0,0,,6,,,78,127
17189,note_off,0,0,0,,2,,,74,127
17242,note_off,53,0,0,,7,,,79,127
17242,note_off,0,0,0,,4,,,76,127
17242,note_on,0,0,0,,2,,,74,127
17242,note_on,0,0,0,,6,,,78,127
17295,note_on,53,0,0,,4,,,76,127
17295,note_on,0,0,0,,7,,,79,127
17296,note_off,1,0,0,,6,,,78,127
17296,note_off,0,0,0,,2,,,74,127
17346,note_on,50,0,0,,2,,,74,127
17346,note_on,0,0,0,,6,,,78,127
17348,note_off,2,0,0,,7,,,79,127
17348,note_off,0,0,0,,4,,,76,127
18186,note_off,838,0,0,,6,,,78,127
18186,note_off,0,0,0,,2,,,74,127
18682,note_on,496,0,0,,6,,,78,127
18682,note_on,0,0,0,,2,,,74,127
18795,note_off,113,0,0,,2,,,74,127
18796,note_off,1,0,0,,6,,,78,127
18797,note_on,1,0,0,,2,,,74,127
18911,note_off,114,0,0,,2,,,74,127
18912,note_on,1,0,0,,7,,,79,127
18912,note_on,0,0,0,,4,,,76,127
19025,note_off,113,0,0,,4,,,76,127
19026,note_off,1,0,0,,7,,,79,127
19027,note_on,1,0,0,,4,,,76,127
19141,note_off,114,0,0,,4,,,76,127
19142,note_on,1,0,0,,10,,,81,127
19142,note_on,0,0,0,,6,,,78,127
19255,note_off,113,0,0,,6,,,78,127
19256,note_off,1,0,0,,10,,,81,127
19257,note_on,1,0,0,,6,,,78,127
19371,note_off,114,0,0,,6,,,78,127
19372,note_on,1,0,0,,12,,,83,127
19372,note_on,0,0,0,,7,,,79,127
19487,note_on,115,0,0,,10,,,81,127
19600,note_off,113,0,0,,7,,,79,127
19601,note_off,1,0,0,,10,,,81,127
19602,note_on,1,0,0,,7,,,79,127
19708,note_off,106,0,0,,12,,,83,127
19716,note_off,8,0,0,,7,,,79,127
19717,note_on,1,0,0,,6,,,78,127
19831,note_off,114,0,0,,6,,,78,127
19832,note_on,1,0,0,,4,,,76,127
19946,note_off,114,0,0,,4,,,76,127
19947,note_on,1,0,0,,2,,,74,127
20061,note_off,114,0,0,,2,,,74,127
20062,note_on,1,0,0,,4,,,76,127
20062,note_on,0,0,0,,1,,,73,127
20175,note_off,113,0,0,,1,,,73,127
20176,note_off,1,0,0,,4,,,76,127
20177,note_on,1,0,0,,1,,,73,127
20291,note_off,114,0,0,,1,,,73,127
20292,note_on,1,0,0,,6,,,78,127
20292,note_on,0,0,0,,2,,,74,127
20405,note_off,113,0,0,,2,,,74,127
20406,note_off,1,0,0,,6,,,78,127
20407,note_on,1,0,0,,2,,,74,127
20521,note_off,114,0,0,,2,,,74,127
20522,note_on,1,0,0,,7,,,79,127
20522,note_on,0,0,0,,4,,,76,127
20635,note_off,113,0,0,,4,,,76,127
20636,note_off,1,0,0,,7,,,79,127
20637,note_on,1,0,0,,4,,,76,127
20751,note_off,114,0,0,,4,,,76,127
20752,note_on,1,0,0,,10,,,81,127
20752,note_on,0,0,0,,6,,,78,127
20867,note_on,115,0,0,,7,,,79,127
20980,note_off,113,0,0,,6,,,78,127
20981,note_off,1,0,0,,7,,,79,127
20982,note_on,1,0,0,,6,,,78,127
21040,note_off,58,0,0,,10,,,81,127
21096,note_off,56,0,0,,6,,,78,127
21097,note_on,1,0,0,,4,,,76,127
21211,note_off,114,0,0,,4,,,76,127
21212,note_on,1,0,0,,2,,,74,127
21326,note_off,114,0,0,,2,,,74,127
21327,note_on,1,0,0,,1,,,73,127
21441,note_off,114,0,0,,1,,,73,127
21442,note_on,1,0,0,,2,,,74,127
21442,note_on,0,0,0,,12,,,71,127
21555,note_off,113,0,0,,12,,,71,127
21556,note_off,1,0,0,,2,,,74,127
21557,note_on,1,0,0,,12,,,71,127
21671,note_off,114,0,0,,12,,,71,127
21672,note_on,1,0,0,,4,,,76,127
21672,note_on,0,0,0,,1,,,73,127
21785,note_off,113,0,0,,1,,,73,127
21786,note_off,1,0,0,,4,,,76,127
21787,note_on,1,0,0,,1,,,73,127
21901,note_off,114,0,0,,1,,,73,127
21902,note_on,1,0,0,,6,,,78,127
21902,note_on,0,0,0,,2,,,74,127
22015,note_off,113,0,0,,2,,,74,127
22016,note_off,1,0,0,,6,,,78,127
22017,note_on,1,0,0,,2,,,74,127
22131,note_off,114,0,0,,2,,,74,127
22132,note_on,1,0,0,,7,,,79,127
22132,note_on,0,0,0,,4,,,76,127
22247,note_on,115,0,0,,6,,,78,127
22360,note_off,113,0,0,,4,,,76,127
22360,note_off,0,0,0,,7,,,79,127
22361,note_off,1,0,0,,6,,,78,127
22362,note_on,1,0,0,,4,,,76,127
22476,note_off,114,0,0,,4,,,76,127
22477,note_on,1,0,0,,2,,,74,127
22591,note_off,114,0,0,,2,,,74,127
22592,note_on,1,0,0,,1,,,73,127
22706,note_off,114,0,0,,1,,,73,127
22707,note_on,1,0,0,,12,,,71,127
22821,note_off,114,0,0,,12,,,71,127
22822,note_on,1,0,0,,1,,,73,127
22822,note_on,0,0,0,,10,,,69,127
22935,note_off,113,0,0,,10,,,69,127
22936,note_off,1,0,0,,1,,,73,127
22937,note_on,1,0,0,,10,,,69,127
23051,note_off,114,0,0,,10,,,69,127
23052,note_on,1,0,0,,2,,,74,127
23052,note_on,0,0,0,,12,,,71,127
23165,note_off,113,0,0,,12,,,71,127
23166,note_off,1,0,0,,2,,,74,127
23167,note_on,1,0,0,,12,,,71,127
23281,note_off,114,0,0,,12,,,71,127
23282,note_on,1,0,0,,4,,,76,127
23282,note_on,0,0,0,,1,,,73,127
23395,note_off,113,0,0,,1,,,73,127
23396,note_off,1,0,0,,4,,,76,127
23397,note_on,1,0,0,,1,,,73,127
23511,note_off,114,0,0,,1,,,73,127
23512,note_on,1,0,0,,6,,,78,127
23512,note_on,0,0,0,,2,,,74,127
23625,note_off,113,0,0,,2,,,74,127
23626,note_off,1,0,0,,6,,,78,127
23627,note_on,1,0,0,,2,,,74,127
23741,note_off,114,0,0,,2,,,74,127
23742,note_on,1,0,0,,8,,,80,127
23742,note_on,0,0,0,,4,,,76,127
23855,note_off,113,0,0,,4,,,76,127
23856,note_off,1,0,0,,8,,,80,127
23857,note_on,1,0,0,,4,,,76,127
23971,note_off,114,0,0,,4,,,76,127
23972,note_on,1,0,0,,10,,,81,127
23972,note_on,0,0,0,,6,,,78,127
24085,note_off,113,0,0,,6,,,78,127
24086,note_off,1,0,0,,10,,,81,127
24087,note_on,1,0,0,,6,,,78,127
24201,note_off,114,0,0,,6,,,78,127
24202,note_on,1,0,0,,8,,,80,127
24202,note_on,0,0,0,,4,,,76,127
24316,note_off,114,0,0,,4,,,76,127
24316,note_off,0,0,0,,8,,,80,127
24317,note_on,1,0,0,,10,,,81,127
24317,note_on,0,0,0,,6,,,78,127
24431,note_off,114,0,0,,6,,,78,127
24431,note_off,0,0,0,,10,,,81,127
24432,note_on,1,0,0,,8,,,80,127
24432,note_on,0,0,0,,4,,,76,127
24546,note_off,114,0,0,,4,,,76,127
24546,note_off,0,0,0,,8,,,80,127
24547,note_on,1,0,0,,6,,,78,127
24547,note_on,0,0,0,,2,,,74,127
24661,note_off,114,0,0,,2,,,74,127
24661,note_off,0,0,0,,6,,,78,127
24662,note_on,1,0,0,,4,,,76,127
24662,note_on,0,0,0,,1,,,73,127
24776,note_off,114,0,0,,1,,,73,127
24776,note_off,0,0,0,,4,,,76,127
24777,note_on,1,0,0,,2,,,74,127
24777,note_on,0,0,0,,12,,,71,127
24891,note_off,114,0,0,,12,,,71,127
24891,note_off,0,0,0,,2,,,74,127
24892,note_on,1,0,0,,1,,,73,127
24892,note_on,0,0,0,,10,,,69,127
25006,note_off,114,0,0,,10,,,69,127
25006,note_off,0,0,0,,1,,,73,127
25007,note_on,1,0,0,,4,,,76,127
25007,note_on,0,0,0,,1,,,73,127
25121,note_off,114,0,0,,1,,,73,127
25121,note_off,0,0,0,,4,,,76,127
25122,note_on,1,0,0,,2,,,74,127
25122,note_on,0,0,0,,12,,,71,127
25236,note_off,114,0,0,,12,,,71,127
25236,note_off,0,0,0,,2,,,74,127
25237,note_on,1,0,0,,1,,,73,127
25237,note_on,0,0,0,,10,,,69,127
25351,note_off,114,0,0,,10,,,69,127
25351,note_off,0,0,0,,1,,,73,127
25352,note_on,1,0,0,,12,,,71,127
25352,note_on,0,0,0,,8,,,68,127
25466,note_off,114,0,0,,8,,,68,127
25466,note_off,0,0,0,,12,,,71,127
25467,note_on,1,0,0,,10,,,69,127
25467,note_on,0,0,0,,6,,,66,127
25581,note_off,114,0,0,,6,,,66,127
25581,note_off,0,0,0,,10,,,69,127
25582,note_on,1,0,0,,8,,,68,127
25582,note_on,0,0,0,,4,,,64,127
25696,note_off,114,0,0,,4,,,64,127
25696,note_off,0,0,0,,8,,,68,127
25697,note_on,1,0,0,,10,,,69,127
25697,note_on,0,0,0,,6,,,66,127
25811,note_off,114,0,0,,6,,,66,127
25811,note_off,0,0,0,,10,,,69,127
25812,note_on,1,0,0,,8,,,68,127
25812,note_on,0,0,0,,4,,,64,127
25926,note_off,114,0,0,,4,,,64,127
25926,note_off,0,0,0,,8,,,68,127
25927,note_on,1,0,0,,6,,,66,127
25927,note_on,0,0,0,,2,,,62,127
26041,note_off,114,0,0,,2,,,62,127
26041,note_off,0,0,0,,6,,,66,127
26042,note_on,1,0,0,,4,,,64,127
26042,note_on,0,0,0,,1,,,61,127
26156,note_off,114,0,0,,1,,,61,127
26156,note_off,0,0,0,,4,,,64,127
26157,note_on,1,0,0,,2,,,62,127
26157,note_on,0,0,0,,12,,,59,127
26271,note_off,114,0,0,,12,,,59,127
26271,note_off,0,0,0,,2,,,62,127
26272,note_on,1,0,0,,1,,,61,127
26272,note_on,0,0,0,,10,,,57,127
26386,note_off,114,0,0,,10,,,57,127
26386,note_off,0,0,0,,1,,,61,127
26387,note_on,1,0,0,,4,,,64,127
26387,note_on,0,0,0,,1,,,61,127
26501,note_off,114,0,0,,1,,,61,127
26501,note_off,0,0,0,,4,,,64,127
26502,note_on,1,0,0,,2,,,62,127
26502,note_on,0,0,0,,12,,,59,127
26616,note_off,114,0,0,,12,,,59,127
26616,note_off,0,0,0,,2,,,62,127
26617,note_on,1,0,0,,1,,,61,127
26617,note_on,0,0,0,,10,,,57,127
26731,note_off,114,0,0,,10,,,57,127
26731,note_off,0,0,0,,1,,,61,127
26732,note_on,1,0,0,,12,,,59,127
26732,note_on,0,0,0,,8,,,56,127
26846,note_off,114,0,0,,8,,,56,127
26846,note_off,0,0,0,,12,,,59,127
26847,note_on,1,0,0,,10,,,57,127
26847,note_on,0,0,0,,6,,,54,127
26961,note_off,114,0,0,,6,,,54,127
26961,note_off,0,0,0,,10,,,57,127
26962,note_on,1,0,0,,10,,,57,127
26962,note_on,0,0,0,,4,,,40,127
27018,note_off,56,0,0,,10,,,57,127
27019,note_on,1,0,0,,8,,,56,127
27075,note_off,56,0,0,,8,,,56,127
27076,note_on,1,0,0,,10,,,57,127
27132,note_off,56,0,0,,10,,,57,127
27133,note_on,1,0,0,,8,,,56,127
27189,note_off,56,0,0,,8,,,56,127
27190,note_on,1,0,0,,10,,,57,127
27246,note_off,56,0,0,,10,,,57,127
27247,note_on,1,0,0,,8,,,56,127
27303,note_off,56,0,0,,8,,,56,127
27304,note_on,1,0,0,,6,,,54,127
27418,note_off,114,0,0,,6,,,54,127
27419,note_on,1,0,0,,4,,,52,127
27582,note_off,163,0,0,,4,,,40,127
27647,note_off,65,0,0,,4,,,52,127
27649,note_on,2,0,0,,10,,,69,127
27649,note_on,0,0,0,,4,,,52,127
27649,note_on,0,0,0,,0,,,48,127
27649,note_on,0,0,0,,10,,,57,127
27878,note_off,229,0,0,,10,,,57,127
27878,note_off,0,0,0,,0,,,48,127
27878,note_off,0,0,0,,4,,,52,127
27878,note_off,0,0,0,,10,,,69,127
27879,note_on,1,0,0,,0,,,72,127
27879,note_on,0,0,0,,10,,,57,127
27879,note_on,0,0,0,,4,,,52,127
27879,note_on,0,0,0,,0,,,48,127
27993,note_off,114,0,0,,0,,,72,127
27994,note_on,1,0,0,,10,,,69,127
28108,note_off,114,0,0,,10,,,69,127
28108,note_off,0,0,0,,0,,,48,127
28108,note_off,0,0,0,,4,,,52,127
28108,note_off,0,0,0,,10,,,57,127
28109,note_on,1,0,0,,12,,,71,127
28109,note_on,0,0,0,,0,,,48,127
28109,note_on,0,0,0,,10,,,57,127
28109,note_on,0,0,0,,4,,,52,127
28223,note_off,114,0,0,,12,,,71,127
28224,note_on,1,0,0,,8,,,68,127
28338,note_off,114,0,0,,8,,,68,127
28338,note_off,0,0,0,,4,,,52,127
28338,note_off,0,0,0,,10,,,57,127
28338,note_off,0,0,0,,0,,,48,127
28339,note_on,1,0,0,,8,,,68,127
28339,note_on,0,0,0,,12,,,59,127
28339,note_on,0,0,0,,10,,,57,127
28339,note_on,0,0,0,,2,,,50,127
28453,note_off,114,0,0,,8,,,68,127
28454,note_on,1,0,0,,10,,,69,127
28568,note_off,114,0,0,,10,,,69,127
28568,note_off,0,0,0,,2,,,50,127
28568,note_off,0,0,0,,10,,,57,127
28568,note_off,0,0,0,,12,,,59,127
28569,note_on,1,0,0,,2,,,74,127
28569,note_on,0,0,0,,12,,,59,127
28569,note_on,0,0,0,,10,,,57,127
28569,note_on,0,0,0,,2,,,50,127
28684,note_on,115,0,0,,10,,,69,127
28713,note_off,29,0,0,,2,,,74,127
28798,note_off,85,0,0,,10,,,69,127
28798,note_off,0,0,0,,2,,,50,127
28798,note_off,0,0,0,,10,,,57,127
28798,note_off,0,0,0,,12,,,59,127
28799,note_on,1,0,0,,12,,,71,127
28799,note_on,0,0,0,,2,,,50,127
28799,note_on,0,0,0,,12,,,59,127
28799,note_on,0,0,0,,10,,,57,127
28913,note_off,114,0,0,,12,,,71,127
28914,note_on,1,0,0,,8,,,68,127
29028,note_off,114,0,0,,8,,,68,127
29028,note_off,0,0,0,,10,,,57,127
29028,note_off,0,0,0,,12,,,59,127
29028,note_off,0,0,0,,2,,,50,127
29029,note_on,1,0,0,,8,,,68,127
29029,note_on,0,0,0,,4,,,52,127
29029,note_on,0,0,0,,0,,,60,127
29029,note_on,0,0,0,,10,,,57,127
29143,note_off,114,0,0,,8,,,68,127
29144,note_on,1,0,0,,10,,,69,127
29258,note_off,114,0,0,,10,,,69,127
29258,note_off,0,0,0,,10,,,57,127
29258,note_off,0,0,0,,0,,,60,127
29258,note_off,0,0,0,,4,,,52,127
29259,note_on,1,0,0,,4,,,76,127
29259,note_on,0,0,0,,4,,,52,127
29259,note_on,0,0,0,,0,,,60,127
29259,note_on,0,0,0,,10,,,57,127
29374,note_on,115,0,0,,10,,,69,127
29403,note_off,29,0,0,,4,,,76,127
29488,note_off,85,0,0,,10,,,69,127
29488,note_off,0,0,0,,10,,,57,127
29488,note_off,0,0,0,,0,,,60,127
29488,note_off,0,0,0,,4,,,52,127
29489,note_on,1,0,0,,12,,,71,127
29489,note_on,0,0,0,,4,,,52,127
29489,note_on,0,0,0,,0,,,60,127
29489,note_on,0,0,0,,10,,,57,127
29603,note_off,114,0,0,,12,,,71,127
29604,note_on,1,0,0,,8,,,68,127
29718,note_off,114,0,0,,8,,,68,127
29718,note_off,0,0,0,,10,,,57,127
29718,note_off,0,0,0,,0,,,60,127
29718,note_off,0,0,0,,4,,,52,127
29719,note_on,1,0,0,,8,,,68,127
29719,note_on,0,0,0,,5,,,53,127
29719,note_on,0,0,0,,2,,,62,127
29719,note_on,0,0,0,,10,,,57,127
29833,note_off,114,0,0,,8,,,68,127
29834,note_on,1,0,0,,10,,,69,127
29948,note_off,114,0,0,,10,,,69,127
29948,note_off,0,0,0,,10,,,57,127
29948,note_off,0,0,0,,2,,,62,127
29948,note_off,0,0,0,,5,,,53,127
29949,note_on,1,0,0,,5,,,77,127
29949,note_on,0,0,0,,2,,,62,127
29949,note_on,0,0,0,,10,,,57,127
29949,note_on,0,0,0,,5,,,53,127
30064,note_on,115,0,0,,10,,,69,127
30093,note_off,29,0,0,,5,,,77,127
30178,note_off,85,0,0,,10,,,69,127
30178,note_off,0,0,0,,5,,,53,127
30178,note_off,0,0,0,,10,,,57,127
30178,note_off,0,0,0,,2,,,62,127
30179,note_on,1,0,0,,12,,,71,127
30179,note_on,0,0,0,,5,,,53,127
30179,note_on,0,0,0,,2,,,62,127
30179,note_on,0,0,0,,10,,,57,127
30293,note_off,114,0,0,,12,,,71,127
30294,note_on,1,0,0,,8,,,68,127
30408,note_off,114,0,0,,8,,,68,127
30408,note_off,0,0,0,,10,,,57,127
30408,note_off,0,0,0,,2,,,62,127
30408,note_off,0,0,0,,5,,,53,127
30409,note_on,1,0,0,,8,,,68,127
30409,note_on,0,0,0,,10,,,57,127
30409,note_on,0,0,0,,4,,,52,127
30409,note_on,0,0,0,,0,,,48,127
30523,note_off,114,0,0,,8,,,68,127
30524,note_on,1,0,0,,10,,,69,127
30638,note_off,114,0,0,,10,,,69,127
30638,note_off,0,0,0,,0,,,48,127
30638,note_off,0,0,0,,4,,,52,127
30638,note_off,0,0,0,,10,,,57,127
30639,note_on,1,0,0,,0,,,72,127
30639,note_on,0,0,0,,4,,,52,127
30639,note_on,0,0,0,,10,,,57,127
30639,note_on,0,0,0,,0,,,48,127
30754,note_on,115,0,0,,10,,,69,127
30812,note_off,58,0,0,,0,,,72,127
30868,note_off,56,0,0,,10,,,69,127
30868,note_off,0,0,0,,0,,,48,127
30868,note_off,0,0,0,,10,,,57,127
30868,note_off,0,0,0,,4,,,52,127
30869,note_on,1,0,0,,12,,,71,127
30869,note_on,0,0,0,,4,,,52,127
30869,note_on,0,0,0,,0,,,48,127
30869,note_on,0,0,0,,10,,,57,127
30983,note_off,114,0,0,,12,,,71,127
30984,note_on,1,0,0,,8,,,68,127
31098,note_off,114,0,0,,8,,,68,127
31098,note_off,0,0,0,,10,,,57,127
31098,note_off,0,0,0,,0,,,48,127
31098,note_off,0,0,0,,4,,,52,127
31099,note_on,1,0,0,,8,,,68,127
31099,note_on,0,0,0,,2,,,50,127
31099,note_on,0,0,0,,10,,,57,127
31099,note_on,0,0,0,,12,,,59,127
31213,note_off,114,0,0,,8,,,68,127
31214,note_on,1,0,0,,10,,,69,127
31328,note_off,114,0,0,,10,,,69,127
31328,note_off,0,0,0,,12,,,59,127
31328,note_off,0,0,0,,10,,,57,127
31328,note_off,0,0,0,,2,,,50,127
31329,note_on,1,0,0,,2,,,74,127
31329,note_on,0,0,0,,2,,,50,127
31329,note_on,0,0,0,,12,,,59,127
31329,note_on,0,0,0,,10,,,57,127
31444,note_on,115,0,0,,10,,,69,127
31521,note_off,77,0,0,,2,,,74,127
31558,note_off,37,0,0,,10,,,69,127
31558,note_off,0,0,0,,10,,,57,127
31558,note_off,0,0,0,,12,,,59,127
31558,note_off,0,0,0,,2,,,50,127
31559,note_on,1,0,0,,12,,,71,127
31559,note_on,0,0,0,,12,,,59,127
31559,note_on,0,0,0,,10,,,57,127
31559,note_on,0,0,0,,2,,,50,127
31673,note_off,114,0,0,,12,,,71,127
31674,note_on,1,0,0,,8,,,68,127
31788,note_off,114,0,0,,8,,,68,127
31788,note_off,0,0,0,,2,,,50,127
31788,note_off,0,0,0,,10,,,57,127
31788,note_off,0,0,0,,12,,,59,127
31789,note_on,1,0,0,,8,,,68,127
31789,note_on,0,0,0,,0,,,60,127
31789,note_on,0,0,0,,10,,,57,127
31789,note_on,0,0,0,,4,,,52,127
31903,note_off,114,0,0,,8,,,68,127
31904,note_on,1,0,0,,10,,,69,127
32018,note_off,114,0,0,,10,,,69,127
32018,note_off,0,0,0,,4,,,52,127
32018,note_off,0,0,0,,10,,,57,127
32018,note_off,0,0,0,,0,,,60,127
32019,note_on,1,0,0,,10,,,81,127
32019,note_on,0,0,0,,0,,,60,127
32019,note_on,0,0,0,,10,,,57,127
32019,note_on,0,0,0,,4,,,52,127
32134,note_on,115,0,0,,10,,,69,127
32247,note_off,113,0,0,,10,,,81,127
32248,note_off,1,0,0,,10,,,69,127
32248,note_off,0,0,0,,4,,,52,127
32248,note_off,0,0,0,,10,,,57,127
32248,note_off,0,0,0,,0,,,60,127
32249,note_on,1,0,0,,12,,,71,127
32249,note_on,0,0,0,,10,,,57,127
32249,note_on,0,0,0,,4,,,52,127
32249,note_on,0,0,0,,0,,,60,127
32363,note_off,114,0,0,,12,,,71,127
32364,note_on,1,0,0,,8,,,68,127
32478,note_off,114,0,0,,8,,,68,127
32478,note_off,0,0,0,,0,,,60,127
32478,note_off,0,0,0,,4,,,52,127
32478,note_off,0,0,0,,10,,,57,127
32479,note_on,1,0,0,,8,,,68,127
32479,note_on,0,0,0,,10,,,57,127
32479,note_on,0,0,0,,2,,,62,127
32479,note_on,0,0,0,,5,,,53,127
32593,note_off,114,0,0,,8,,,68,127
32594,note_on,1,0,0,,10,,,69,127
32708,note_off,114,0,0,,10,,,69,127
32708,note_off,0,0,0,,5,,,53,127
32708,note_off,0,0,0,,2,,,62,127
32708,note_off,0,0,0,,10,,,57,127
32709,note_on,1,0,0,,10,,,81,127
32709,note_on,0,0,0,,10,,,57,127
32709,note_on,0,0,0,,2,,,62,127
32709,note_on,0,0,0,,5,,,53,127
32824,note_on,115,0,0,,10,,,69,127
32937,note_off,113,0,0,,10,,,81,127
32938,note_off,1,0,0,,10,,,69,127
32938,note_off,0,0,0,,5,,,53,127
32938,note_off,0,0,0,,2,,,62,127
32938,note_off,0,0,0,,10,,,57,127
32939,note_on,1,0,0,,12,,,71,127
32939,note_on,0,0,0,,10,,,57,127
32939,note_on,0,0,0,,5,,,53,127
32939,note_on,0,0,0,,2,,,62,127
33053,note_off,114,0,0,,12,,,71,127
33054,note_on,1,0,0,,8,,,68,127
33168,note_off,114,0,0,,8,,,68,127
33168,note_off,0,0,0,,2,,,62,127
33168,note_off,0,0,0,,5,,,53,127
33168,note_off,0,0,0,,10,,,57,127
33169,note_on,1,0,0,,10,,,81,127
33169,note_on,0,0,0,,5,,,65,127
33169,note_on,0,0,0,,10,,,69,127
33283,note_off,114,0,0,,10,,,81,127
33284,note_on,1,0,0,,5,,,77,127
33398,note_off,114,0,0,,5,,,77,127
33398,note_off,0,0,0,,10,,,69,127
33398,note_off,0,0,0,,5,,,65,127
33399,note_on,1,0,0,,7,,,79,127
33399,note_on,0,0,0,,4,,,64,127
33399,note_on,0,0,0,,7,,,67,127
33513,note_off,114,0,0,,7,,,79,127
33514,note_on,1,0,0,,4,,,76,127
33628,note_off,114,0,0,,4,,,76,127
33628,note_off,0,0,0,,7,,,67,127
33628,note_off,0,0,0,,4,,,64,127
33629,note_on,1,0,0,,5,,,77,127
33629,note_on,0,0,0,,5,,,65,127
33629,note_on,0,0,0,,2,,,62,127
33743,note_off,114,0,0,,5,,,77,127
33744,note_on,1,0,0,,2,,,74,127
33858,note_off,114,0,0,,2,,,74,127
33858,note_off,0,0,0,,2,,,62,127
33858,note_off,0,0,0,,5,,,65,127
33859,note_on,1,0,0,,4,,,76,127
33859,note_on,0,0,0,,4,,,64,127
33859,note_on,0,0,0,,0,,,60,127
33973,note_off,114,0,0,,4,,,76,127
33974,note_on,1,0,0,,0,,,72,127
34088,note_off,114,0,0,,0,,,72,127
34088,note_off,0,0,0,,0,,,60,127
34088,note_off,0,0,0,,4,,,64,127
34089,note_on,1,0,0,,2,,,74,127
34089,note_on,0,0,0,,12,,,59,127
34089,note_on,0,0,0,,2,,,62,127
34203,note_off,114,0,0,,2,,,74,127
34204,note_on,1,0,0,,12,,,71,127
34318,note_off,114,0,0,,12,,,71,127
34318,note_off,0,0,0,,2,,,62,127
34318,note_off,0,0,0,,12,,,59,127
34319,note_on,1,0,0,,0,,,72,127
34319,note_on,0,0,0,,10,,,57,127
34319,note_on,0,0,0,,4,,,64,127
34319,note_on,0,0,0,,0,,,60,127
34433,note_off,114,0,0,,0,,,72,127
34434,note_on,1,0,0,,10,,,69,127
34548,note_off,114,0,0,,10,,,69,127
34548,note_off,0,0,0,,0,,,60,127
34548,note_off,0,0,0,,4,,,64,127
34548,note_off,0,0,0,,10,,,57,127
34549,note_on,1,0,0,,12,,,71,127
34549,note_on,0,0,0,,8,,,56,127
34549,note_on,0,0,0,,2,,,62,127
34549,note_on,0,0,0,,12,,,59,127
34549,note_on,0,0,0,,4,,,64,127
34663,note_off,114,0,0,,12,,,71,127
34664,note_on,1,0,0,,0,,,72,127
34778,note_off,114,0,0,,0,,,72,127
34779,note_on,1,0,0,,2,,,74,127
34893,note_off,114,0,0,,2,,,74,127
34894,note_on,1,0,0,,0,,,72,127
35008,note_off,114,0,0,,0,,,72,127
35008,note_off,0,0,0,,4,,,64,127
35008,note_off,0,0,0,,12,,,59,127
35008,note_off,0,0,0,,2,,,62,127
35008,note_off,0,0,0,,8,,,56,127
35009,note_on,1,0,0,,12,,,71,127
35009,note_on,0,0,0,,10,,,57,127
35009,note_on,0,0,0,,4,,,64,127
35009,note_on,0,0,0,,0,,,60,127
35123,note_off,114,0,0,,12,,,71,127
35124,note_on,1,0,0,,10,,,69,127
35238,note_off,114,0,0,,10,,,69,127
35238,note_off,0,0,0,,0,,,60,127
35238,note_off,0,0,0,,10,,,57,127
35239,note_on,1,0,0,,10,,,69,127
35239,note_on,0,0,0,,8,,,68,127
35239,note_on,0,0,0,,4,,,52,127
35239,note_on,0,0,0,,12,,,59,127
35699,note_off,460,0,0,,10,,,69,127
35700,note_on,1,0,0,,12,,,71,127
35929,note_off,229,0,0,,12,,,71,127
35929,note_off,0,0,0,,12,,,59,127
35929,note_off,0,0,0,,4,,,52,127
35929,note_off,0,0,0,,8,,,68,127
35929,note_off,0,0,0,,4,,,64,127
35930,note_on,1,0,0,,12,,,71,127
35930,note_on,0,0,0,,8,,,68,127
35930,note_on,0,0,0,,4,,,52,127
36044,note_off,114,0,0,,4,,,52,127
36045,note_on,1,0,0,,4,,,64,127
36159,note_off,114,0,0,,4,,,64,127
36159,note_off,0,0,0,,8,,,68,127
36159,note_off,0,0,0,,12,,,71,127
36160,note_on,1,0,0,,2,,,74,127
36160,note_on,0,0,0,,12,,,71,127
36160,note_on,0,0,0,,3,,,63,127
36274,note_off,114,0,0,,3,,,63,127
36275,note_on,1,0,0,,4,,,64,127
36389,note_off,114,0,0,,4,,,64,127
36389,note_off,0,0,0,,12,,,71,127
36389,note_off,0,0,0,,2,,,74,127
36390,note_on,1,0,0,,10,,,69,127
36390,note_on,0,0,0,,0,,,72,127
36390,note_on,0,0,0,,4,,,52,127
36504,note_off,114,0,0,,4,,,52,127
36505,note_on,1,0,0,,4,,,64,127
36619,note_off,114,0,0,,4,,,64,127
36619,note_off,0,0,0,,0,,,72,127
36619,note_off,0,0,0,,10,,,69,127
36620,note_on,1,0,0,,8,,,68,127
36620,note_on,0,0,0,,12,,,71,127
36620,note_on,0,0,0,,5,,,53,127
36734,note_off,114,0,0,,5,,,53,127
36735,note_on,1,0,0,,2,,,62,127
36849,note_off,114,0,0,,2,,,62,127
36849,note_off,0,0,0,,12,,,71,127
36849,note_off,0,0,0,,8,,,68,127
36850,note_on,1,0,0,,2,,,74,127
36850,note_on,0,0,0,,12,,,71,127
36850,note_on,0,0,0,,1,,,61,127
36964,note_off,114,0,0,,1,,,61,127
36965,note_on,1,0,0,,2,,,62,127
37079,note_off,114,0,0,,2,,,62,127
37079,note_off,0,0,0,,12,,,71,127
37079,note_off,0,0,0,,2,,,74,127
37080,note_on,1,0,0,,0,,,72,127
37080,note_on,0,0,0,,10,,,69,127
37080,note_on,0,0,0,,5,,,53,127
37194,note_off,114,0,0,,5,,,53,127
37195,note_on,1,0,0,,2,,,62,127
37309,note_off,114,0,0,,2,,,62,127
37309,note_off,0,0,0,,10,,,69,127
37309,note_off,0,0,0,,0,,,72,127
37310,note_on,1,0,0,,12,,,71,127
37310,note_on,0,0,0,,8,,,68,127
37310,note_on,0,0,0,,2,,,50,127
37424,note_off,114,0,0,,2,,,50,127
37425,note_on,1,0,0,,12,,,59,127
37539,note_off,114,0,0,,12,,,59,127
37539,note_off,0,0,0,,8,,,68,127
37539,note_off,0,0,0,,12,,,71,127
37540,note_on,1,0,0,,12,,,71,127
37540,note_on,0,0,0,,2,,,74,127
37540,note_on,0,0,0,,10,,,57,127
37654,note_off,114,0,0,,10,,,57,127
37655,note_on,1,0,0,,12,,,59,127
37769,note_off,114,0,0,,12,,,59,127
37769,note_off,0,0,0,,2,,,74,127
37769,note_off,0,0,0,,12,,,71,127
37770,note_on,1,0,0,,0,,,72,127
37770,note_on,0,0,0,,10,,,69,127
37770,note_on,0,0,0,,2,,,50,127
37884,note_off,114,0,0,,2,,,50,127
37885,note_on,1,0,0,,12,,,59,127
37999,note_off,114,0,0,,12,,,59,127
38000,note_on,1,0,0,,4,,,40,127
38229,note_off,229,0,0,,10,,,69,127
38229,note_off,0,0,0,,0,,,72,127
38230,note_on,1,0,0,,12,,,71,127
38230,note_on,0,0,0,,8,,,68,127
38344,note_off,114,0,0,,8,,,68,127
38344,note_off,0,0,0,,12,,,71,127
38345,note_on,1,0,0,,10,,,69,127
38345,note_on,0,0,0,,6,,,66,127
38459,note_off,114,0,0,,6,,,66,127
38459,note_off,0,0,0,,10,,,69,127
38460,note_on,1,0,0,,12,,,71,127
38460,note_on,0,0,0,,8,,,68,127
38689,note_off,229,0,0,,8,,,68,127
38689,note_off,0,0,0,,12,,,71,127
38689,note_off,0,0,0,,4,,,40,127
38690,note_on,1,0,0,,8,,,68,127
38690,note_on,0,0,0,,12,,,71,127
38690,note_on,0,0,0,,4,,,52,127
38804,note_off,114,0,0,,4,,,52,127
38805,note_on,1,0,0,,4,,,64,127
38919,note_off,114,0,0,,4,,,64,127
38919,note_off,0,0,0,,12,,,71,127
38919,note_off,0,0,0,,8,,,68,127
38920,note_on,1,0,0,,2,,,74,127
38920,note_on,0,0,0,,12,,,71,127
38920,note_on,0,0,0,,3,,,63,127
39034,note_off,114,0,0,,3,,,63,127
39035,note_on,1,0,0,,4,,,64,127
39149,note_off,114,0,0,,4,,,64,127
39149,note_off,0,0,0,,12,,,71,127
39149,note_off,0,0,0,,2,,,74,127
39150,note_on,1,0,0,,0,,,72,127
39150,note_on,0,0,0,,10,,,69,127
39150,note_on,0,0,0,,4,,,52,127
39264,note_off,114,0,0,,4,,,52,127
39265,note_on,1,0,0,,4,,,64,127
39379,note_off,114,0,0,,4,,,64,127
39379,note_off,0,0,0,,10,,,69,127
39379,note_off,0,0,0,,0,,,72,127
39380,note_on,1,0,0,,8,,,68,127
39380,note_on,0,0,0,,12,,,71,127
39380,note_on,0,0,0,,5,,,53,127
39494,note_off,114,0,0,,5,,,53,127
39495,note_on,1,0,0,,2,,,62,127
39609,note_off,114,0,0,,2,,,62,127
39609,note_off,0,0,0,,12,,,71,127
39609,note_off,0,0,0,,8,,,68,127
39610,note_on,1,0,0,,2,,,74,127
39610,note_on,0,0,0,,5,,,77,127
39610,note_on,0,0,0,,1,,,61,127
39724,note_off,114,0,0,,1,,,61,127
39725,note_on,1,0,0,,2,,,62,127
39839,note_off,114,0,0,,2,,,62,127
39839,note_off,0,0,0,,5,,,77,127
39839,note_off,0,0,0,,2,,,74,127
39840,note_on,1,0,0,,4,,,76,127
39840,note_on,0,0,0,,0,,,72,127
39840,note_on,0,0,0,,5,,,53,127
39954,note_off,114,0,0,,5,,,53,127
39955,note_on,1,0,0,,2,,,62,127
40069,note_off,114,0,0,,2,,,62,127
40070,note_on,1,0,0,,2,,,50,127
40184,note_off,114,0,0,,2,,,50,127
40185,note_on,1,0,0,,12,,,59,127
40299,note_off,114,0,0,,12,,,59,127
40299,note_off,0,0,0,,0,,,72,127
40299,note_off,0,0,0,,4,,,76,127
40300,note_on,1,0,0,,2,,,74,127
40300,note_on,0,0,0,,12,,,71,127
40300,note_on,0,0,0,,10,,,57,127
40414,note_off,114,0,0,,10,,,57,127
40415,note_on,1,0,0,,12,,,59,127
40529,note_off,114,0,0,,12,,,59,127
40529,note_off,0,0,0,,12,,,71,127
40529,note_off,0,0,0,,2,,,74,127
40530,note_on,1,0,0,,10,,,69,127
40530,note_on,0,0,0,,0,,,72,127
40530,note_on,0,0,0,,2,,,50,127
40644,note_off,114,0,0,,2,,,50,127
40645,note_on,1,0,0,,12,,,59,127
40759,note_off,114,0,0,,12,,,59,127
40760,note_on,1,0,0,,4,,,40,127
40989,note_off,229,0,0,,0,,,72,127
40989,note_off,0,0,0,,10,,,69,127
40990,note_on,1,0,0,,8,,,68,127
40990,note_on,0,0,0,,12,,,71,127
41104,note_off,114,0,0,,12,,,71,127
41104,note_off,0,0,0,,8,,,68,127
41105,note_on,1,0,0,,10,,,69,127
41105,note_on,0,0,0,,6,,,66,127
41219,note_off,114,0,0,,6,,,66,127
41219,note_off,0,0,0,,10,,,69,127
41220,note_on,1,0,0,,8,,,68,127
41220,note_on,0,0,0,,12,,,71,127
41412,note_off,192,0,0,,12,,,71,127
41412,note_off,0,0,0,,8,,,68,127
41449,note_off,37,0,0,,4,,,40,127
41450,note_on,1,0,0,,10,,,69,127
41450,note_on,0,0,0,,1,,,73,127
41450,note_on,0,0,0,,10,,,45,127
41564,note_off,114,0,0,,10,,,45,127
41565,note_on,1,0,0,,1,,,49,127
41679,note_off,114,0,0,,1,,,49,127
41679,note_off,0,0,0,,1,,,73,127
41679,note_off,0,0,0,,10,,,69,127
41680,note_on,1,0,0,,1,,,73,127
41680,note_on,0,0,0,,10,,,69,127
41680,note_on,0,0,0,,4,,,52,127
41794,note_off,114,0,0,,4,,,52,127
41795,note_on,1,0,0,,10,,,57,127
41909,note_off,114,0,0,,10,,,57,127
41909,note_off,0,0,0,,10,,,69,127
41909,note_off,0,0,0,,1,,,73,127
41910,note_on,1,0,0,,4,,,76,127
41910,note_on,0,0,0,,1,,,61,127
42024,note_off,114,0,0,,1,,,61,127
42025,note_on,1,0,0,,4,,,64,127
42139,note_off,114,0,0,,4,,,64,127
42139,note_off,0,0,0,,4,,,76,127
42140,note_on,1,0,0,,1,,,73,127
42140,note_on,0,0,0,,10,,,45,127
42255,note_on,115,0,0,,10,,,69,127
42272,note_off,17,0,0,,1,,,73,127
42369,note_off,97,0,0,,10,,,69,127
42370,note_on,1,0,0,,12,,,71,127
42485,note_on,115,0,0,,8,,,68,127
42502,note_off,17,0,0,,12,,,71,127
42599,note_off,97,0,0,,8,,,68,127
42600,note_on,1,0,0,,10,,,69,127
42715,note_on,115,0,0,,4,,,64,127
42732,note_off,17,0,0,,10,,,69,127
42829,note_off,97,0,0,,4,,,64,127
42829,note_off,0,0,0,,10,,,45,127
42830,note_on,1,0,0,,10,,,69,127
42830,note_on,0,0,0,,1,,,73,127
42830,note_on,0,0,0,,10,,,45,127
42944,note_off,114,0,0,,10,,,45,127
42945,note_on,1,0,0,,1,,,49,127
43059,note_off,114,0,0,,1,,,49,127
43059,note_off,0,0,0,,1,,,73,127
43059,note_off,0,0,0,,10,,,69,127
43060,note_on,1,0,0,,10,,,69,127
43060,note_on,0,0,0,,1,,,73,127
43060,note_on,0,0,0,,4,,,52,127
43174,note_off,114,0,0,,4,,,52,127
43175,note_on,1,0,0,,10,,,57,127
43289,note_off,114,0,0,,10,,,57,127
43289,note_off,0,0,0,,1,,,73,127
43289,note_off,0,0,0,,10,,,69,127
43290,note_on,1,0,0,,4,,,76,127
43290,note_on,0,0,0,,1,,,61,127
43404,note_off,114,0,0,,1,,,61,127
43405,note_on,1,0,0,,4,,,64,127
43519,note_off,114,0,0,,4,,,64,127
43519,note_off,0,0,0,,4,,,76,127
43520,note_on,1,0,0,,1,,,73,127
43520,note_on,0,0,0,,10,,,45,127
43635,note_on,115,0,0,,10,,,69,127
43693,note_off,58,0,0,,1,,,73,127
43749,note_off,56,0,0,,10,,,69,127
43750,note_on,1,0,0,,12,,,71,127
43865,note_on,115,0,0,,8,,,68,127
43923,note_off,58,0,0,,12,,,71,127
43979,note_off,56,0,0,,8,,,68,127
43980,note_on,1,0,0,,10,,,69,127
44095,note_on,115,0,0,,4,,,64,127
44153,note_off,58,0,0,,10,,,69,127
44209,note_off,56,0,0,,4,,,64,127
44209,note_off,0,0,0,,10,,,45,127
44210,note_on,1,0,0,,1,,,73,127
44210,note_on,0,0,0,,10,,,69,127
44210,note_on,0,0,0,,10,,,45,127
44324,note_off,114,0,0,,10,,,45,127
44325,note_on,1,0,0,,1,,,49,127
44439,note_off,114,0,0,,1,,,49,127
44439,note_off,0,0,0,,10,,,69,127
44439,note_off,0,0,0,,1,,,73,127
44440,note_on,1,0,0,,10,,,69,127
44440,note_on,0,0,0,,1,,,73,127
44440,note_on,0,0,0,,4,,,52,127
44554,note_off,114,0,0,,4,,,52,127
44555,note_on,1,0,0,,10,,,57,127
44669,note_off,114,0,0,,10,,,57,127
44669,note_off,0,0,0,,1,,,73,127
44669,note_off,0,0,0,,10,,,69,127
44670,note_on,1,0,0,,4,,,76,127
44670,note_on,0,0,0,,1,,,61,127
44784,note_off,114,0,0,,1,,,61,127
44785,note_on,1,0,0,,4,,,64,127
44899,note_off,114,0,0,,4,,,64,127
44899,note_off,0,0,0,,4,,,76,127
44900,note_on,1,0,0,,10,,,81,127
44900,note_on,0,0,0,,10,,,45,127
45015,note_on,115,0,0,,4,,,76,127
45129,note_off,114,0,0,,4,,,76,127
45130,note_on,1,0,0,,1,,,73,127
45244,note_off,114,0,0,,1,,,73,127
45245,note_on,1,0,0,,4,,,76,127
45355,note_off,110,0,0,,10,,,81,127
45359,note_off,4,0,0,,4,,,76,127
45360,note_on,1,0,0,,10,,,69,127
45475,note_on,115,0,0,,2,,,74,127
45576,note_off,101,0,0,,10,,,69,127
45589,note_off,13,0,0,,2,,,74,127
45589,note_off,0,0,0,,10,,,45,127
45590,note_on,1,0,0,,1,,,73,127
45590,note_on,0,0,0,,2,,,50,127
45704,note_off,114,0,0,,1,,,73,127
45705,note_on,1,0,0,,12,,,71,127
45819,note_off,114,0,0,,12,,,71,127
45819,note_off,0,0,0,,2,,,50,127
45820,note_on,1,0,0,,1,,,73,127
45820,note_on,0,0,0,,4,,,52,127
45935,note_on,115,0,0,,10,,,81,127
46036,note_off,101,0,0,,1,,,73,127
46050,note_on,14,0,0,,12,,,71,127
46050,note_on,0,0,0,,4,,,40,127
46151,note_off,101,0,0,,10,,,81,127
46165,note_on,14,0,0,,8,,,80,127
46266,note_off,101,0,0,,12,,,71,127
46276,note_off,10,0,0,,4,,,52,127
46280,note_off,4,0,0,,8,,,80,127
46280,note_off,0,0,0,,4,,,40,127
46281,note_on,1,0,0,,10,,,81,127
46281,note_on,0,0,0,,10,,,45,127
46396,note_on,115,0,0,,4,,,76,127
46510,note_off,114,0,0,,4,,,76,127
46511,note_on,1,0,0,,1,,,73,127
46625,note_off,114,0,0,,1,,,73,127
46626,note_on,1,0,0,,4,,,76,127
46736,note_off,110,0,0,,10,,,81,127
46740,note_off,4,0,0,,4,,,76,127
46740,note_off,0,0,0,,10,,,45,127
46741,note_on,1,0,0,,1,,,73,127
46741,note_on,0,0,0,,10,,,69,127
46855,note_off,114,0,0,,1,,,73,127
46856,note_on,1,0,0,,4,,,76,127
46970,note_off,114,0,0,,4,,,76,127
46970,note_off,0,0,0,,10,,,69,127
46971,note_on,1,0,0,,6,,,78,127
46971,note_on,0,0,0,,2,,,74,127
47084,note_off,113,0,0,,2,,,74,127
47085,note_off,1,0,0,,6,,,78,127
47086,note_on,1,0,0,,2,,,74,127
47200,note_off,114,0,0,,2,,,74,127
47201,note_on,1,0,0,,2,,,74,127
47201,note_on,0,0,0,,12,,,71,127
47314,note_off,113,0,0,,12,,,71,127
47315,note_off,1,0,0,,2,,,74,127
47316,note_on,1,0,0,,12,,,71,127
47430,note_off,114,0,0,,12,,,71,127
47431,note_on,1,0,0,,12,,,71,127
47431,note_on,0,0,0,,8,,,68,127
47544,note_off,113,0,0,,8,,,68,127
47545,note_off,1,0,0,,12,,,71,127
47546,note_on,1,0,0,,8,,,68,127
47660,note_off,114,0,0,,8,,,68,127
47661,note_on,1,0,0,,8,,,68,127
47661,note_on,0,0,0,,4,,,64,127
47774,note_off,113,0,0,,4,,,64,127
47775,note_off,1,0,0,,8,,,68,127
47776,note_on,1,0,0,,4,,,64,127
47890,note_off,114,0,0,,4,,,64,127
47891,note_on,1,0,0,,4,,,64,127
47891,note_on,0,0,0,,1,,,61,127
48004,note_off,113,0,0,,1,,,61,127
48005,note_off,1,0,0,,4,,,64,127
48006,note_on,1,0,0,,1,,,61,127
48120,note_off,114,0,0,,1,,,61,127
48121,note_on,1,0,0,,1,,,61,127
48121,note_on,0,0,0,,10,,,57,127
48234,note_off,113,0,0,,10,,,57,127
48235,note_off,1,0,0,,1,,,61,127
48236,note_on,1,0,0,,10,,,57,127
48350,note_off,114,0,0,,10,,,57,127
48351,note_on,1,0,0,,10,,,69,127
48351,note_on,0,0,0,,2,,,50,127
48465,note_off,114,0,0,,10,,,69,127
48466,note_on,1,0,0,,12,,,71,127
48580,note_off,114,0,0,,12,,,71,127
48580,note_off,0,0,0,,2,,,50,127
48581,note_on,1,0,0,,1,,,73,127
48581,note_on,0,0,0,,4,,,52,127
48695,note_off,114,0,0,,1,,,73,127
48696,note_on,1,0,0,,10,,,69,127
48810,note_off,114,0,0,,10,,,69,127
48810,note_off,0,0,0,,4,,,52,127
48811,note_on,1,0,0,,12,,,71,127
48811,note_on,0,0,0,,4,,,40,127
48925,note_off,114,0,0,,12,,,71,127
48926,note_on,1,0,0,,8,,,68,127
49040,note_off,114,0,0,,8,,,68,127
49040,note_off,0,0,0,,4,,,40,127
49041,note_on,1,0,0,,10,,,69,127
49041,note_on,0,0,0,,10,,,33,127
49155,note_off,114,0,0,,10,,,69,127
49156,note_on,1,0,0,,4,,,64,127
49270,note_off,114,0,0,,4,,,64,127
49270,note_off,0,0,0,,10,,,33,127
49271,note_on,1,0,0,,1,,,61,127
49271,note_on,0,0,0,,10,,,33,127
49385,note_off,114,0,0,,1,,,61,127
49386,note_on,1,0,0,,10,,,57,127
49500,note_off,114,0,0,,10,,,57,127
49500,note_off,0,0,0,,10,,,33,127
49501,note_on,1,0,0,,4,,,52,127
49501,note_on,0,0,0,,10,,,33,127
49615,note_off,114,0,0,,4,,,52,127
49616,note_on,1,0,0,,1,,,49,127
49730,note_off,114,0,0,,1,,,49,127
49730,note_off,0,0,0,,10,,,33,127
49731,note_on,1,0,0,,10,,,45,127
49731,note_on,0,0,0,,10,,,33,127
50421,note_off,690,0,0,,10,,,33,127
50421,note_off,0,0,0,,10,,,45,127
50422,note_on,1,0,0,,1,,,73,127
50422,note_on,0,0,0,,10,,,69,127
50422,note_on,0,0,0,,10,,,45,127
50536,note_off,114,0,0,,10,,,45,127
50537,note_on,1,0,0,,1,,,49,127
50651,note_off,114,0,0,,1,,,49,127
50651,note_off,0,0,0,,10,,,69,127
50651,note_off,0,0,0,,1,,,73,127
50652,note_on,1,0,0,,1,,,73,127
50652,note_on,0,0,0,,10,,,69,127
50652,note_on,0,0,0,,4,,,52,127
50766,note_off,114,0,0,,4,,,52,127
50767,note_on,1,0,0,,10,,,57,127
50881,note_off,114,0,0,,10,,,57,127
50881,note_off,0,0,0,,10,,,69,127
50881,note_off,0,0,0,,1,,,73,127
50882,note_on,1,0,0,,1,,,73,127
50882,note_on,0,0,0,,10,,,69,127
50882,note_on,0,0,0,,1,,,61,127
50996,note_off,114,0,0,,1,,,61,127
50997,note_on,1,0,0,,4,,,64,127
51111,note_off,114,0,0,,4,,,64,127
51111,note_off,0,0,0,,10,,,69,127
51111,note_off,0,0,0,,1,,,73,127
51112,note_on,1,0,0,,2,,,74,127
51112,note_on,0,0,0,,10,,,45,127
51150,note_on,38,0,0,,1,,,73,127
51169,note_off,19,0,0,,2,,,74,127
51188,note_on,19,0,0,,2,,,74,127
51207,note_off,19,0,0,,1,,,73,127
51226,note_on,19,0,0,,1,,,73,127
51245,note_off,19,0,0,,2,,,74,127
51455,note_off,210,0,0,,1,,,73,127
51456,note_on,1,0,0,,12,,,71,127
51570,note_off,114,0,0,,12,,,71,127
51571,note_on,1,0,0,,1,,,73,127
51685,note_off,114,0,0,,1,,,73,127
51686,note_on,1,0,0,,2,,,74,127
51800,note_off,114,0,0,,2,,,74,127
51800,note_off,0,0,0,,10,,,45,127
51801,note_on,1,0,0,,4,,,76,127
51801,note_on,0,0,0,,1,,,73,127
51801,note_on,0,0,0,,10,,,45,127
51915,note_off,114,0,0,,10,,,45,127
51916,note_on,1,0,0,,1,,,49,127
52030,note_off,114,0,0,,1,,,49,127
52030,note_off,0,0,0,,1,,,73,127
52030,note_off,0,0,0,,4,,,76,127
52031,note_on,1,0,0,,4,,,76,127
52031,note_on,0,0,0,,1,,,73,127
52031,note_on,0,0,0,,4,,,52,127
52145,note_off,114,0,0,,4,,,52,127
52146,note_on,1,0,0,,10,,,57,127
52260,note_off,114,0,0,,10,,,57,127
52260,note_off,0,0,0,,1,,,73,127
52260,note_off,0,0,0,,4,,,76,127
52261,note_on,1,0,0,,4,,,76,127
52261,note_on,0,0,0,,1,,,73,127
52261,note_on,0,0,0,,1,,,61,127
52375,note_off,114,0,0,,1,,,61,127
52376,note_on,1,0,0,,4,,,64,127
52490,note_off,114,0,0,,4,,,64,127
52490,note_off,0,0,0,,1,,,73,127
52490,note_off,0,0,0,,4,,,76,127
52491,note_on,1,0,0,,1,,,73,127
52491,note_on,0,0,0,,4,,,76,127
52491,note_on,0,0,0,,10,,,45,127
52720,note_off,229,0,0,,4,,,76,127
52720,note_off,0,0,0,,1,,,73,127
52721,note_on,1,0,0,,4,,,76,127
52721,note_on,0,0,0,,1,,,73,127
53065,note_off,344,0,0,,1,,,73,127
53065,note_off,0,0,0,,4,,,76,127
53066,note_on,1,0,0,,6,,,78,127
53066,note_on,0,0,0,,2,,,74,127
53150,note_off,84,0,0,,10,,,45,127
53180,note_off,30,0,0,,2,,,74,127
53180,note_off,0,0,0,,6,,,78,127
53181,note_on,1,0,0,,4,,,76,127
53181,note_on,0,0,0,,1,,,73,127
53181,note_on,0,0,0,,10,,,45,127
53295,note_off,114,0,0,,10,,,45,127
53296,note_on,1,0,0,,1,,,49,127
53410,note_off,114,0,0,,1,,,49,127
53410,note_off,0,0,0,,1,,,73,127
53410,note_off,0,0,0,,4,,,76,127
53411,note_on,1,0,0,,4,,,76,127
53411,note_on,0,0,0,,1,,,73,127
53411,note_on,0,0,0,,4,,,52,127
53525,note_off,114,0,0,,4,,,52,127
53526,note_on,1,0,0,,10,,,57,127
53640,note_off,114,0,0,,10,,,57,127
53641,note_on,1,0,0,,1,,,61,127
53755,note_off,114,0,0,,1,,,61,127
53755,note_off,0,0,0,,1,,,73,127
53755,note_off,0,0,0,,4,,,76,127
53756,note_on,1,0,0,,6,,,78,127
53756,note_on,0,0,0,,2,,,74,127
53756,note_on,0,0,0,,4,,,64,127
53870,note_off,114,0,0,,4,,,64,127
53870,note_off,0,0,0,,2,,,74,127
53870,note_off,0,0,0,,6,,,78,127
53871,note_on,1,0,0,,1,,,73,127
53871,note_on,0,0,0,,4,,,76,127
53871,note_on,0,0,0,,10,,,45,127
53985,note_off,114,0,0,,10,,,45,127
53986,note_on,1,0,0,,1,,,49,127
54100,note_off,114,0,0,,1,,,49,127
54100,note_off,0,0,0,,4,,,76,127
54100,note_off,0,0,0,,1,,,73,127
54101,note_on,1,0,0,,4,,,76,127
54101,note_on,0,0,0,,1,,,73,127
54101,note_on,0,0,0,,4,,,52,127
54215,note_off,114,0,0,,4,,,52,127
54216,note_on,1,0,0,,10,,,57,127
54330,note_off,114,0,0,,10,,,57,127
54331,note_on,1,0,0,,1,,,61,127
54445,note_off,114,0,0,,1,,,61,127
54445,note_off,0,0,0,,1,,,73,127
54445,note_off,0,0,0,,4,,,76,127
54446,note_on,1,0,0,,6,,,78,127
54446,note_on,0,0,0,,2,,,74,127
54446,note_on,0,0,0,,4,,,64,127
54560,note_off,114,0,0,,4,,,64,127
54560,note_off,0,0,0,,2,,,74,127
54560,note_off,0,0,0,,6,,,78,127
54561,note_on,1,0,0,,4,,,76,127
54561,note_on,0,0,0,,1,,,73,127
54561,note_on,0,0,0,,10,,,45,127
54675,note_off,114,0,0,,10,,,45,127
54676,note_on,1,0,0,,1,,,49,127
54790,note_off,114,0,0,,1,,,49,127
54790,note_off,0,0,0,,1,,,73,127
54790,note_off,0,0,0,,4,,,76,127
54791,note_on,1,0,0,,1,,,73,127
54791,note_on,0,0,0,,4,,,76,127
54791,note_on,0,0,0,,4,,,52,127
54905,note_off,114,0,0,,4,,,52,127
54906,note_on,1,0,0,,10,,,57,127
55020,note_off,114,0,0,,10,,,57,127
55021,note_on,1,0,0,,1,,,61,127
55135,note_off,114,0,0,,1,,,61,127
55135,note_off,0,0,0,,4,,,76,127
55135,note_off,0,0,0,,1,,,73,127
55136,note_on,1,0,0,,6,,,78,127
55136,note_on,0,0,0,,2,,,74,127
55136,note_on,0,0,0,,4,,,64,127
55250,note_off,114,0,0,,4,,,64,127
55250,note_off,0,0,0,,2,,,74,127
55250,note_off,0,0,0,,6,,,78,127
55251,note_on,1,0,0,,4,,,76,127
55251,note_on,0,0,0,,10,,,45,127
55365,note_off,114,0,0,,4,,,76,127
55366,note_on,1,0,0,,1,,,73,127
55480,note_off,114,0,0,,1,,,73,127
55481,note_on,1,0,0,,2,,,74,127
55595,note_off,114,0,0,,2,,,74,127
55596,note_on,1,0,0,,12,,,71,127
55710,note_off,114,0,0,,12,,,71,127
55711,note_on,1,0,0,,1,,,73,127
55825,note_off,114,0,0,,1,,,73,127
55826,note_on,1,0,0,,10,,,69,127
55898,note_off,72,0,0,,10,,,45,127
55940,note_off,42,0,0,,10,,,69,127
55941,note_on,1,0,0,,2,,,74,127
55941,note_on,0,0,0,,6,,,78,127
55941,note_on,0,0,0,,2,,,50,127
56055,note_off,114,0,0,,2,,,50,127
56056,note_on,1,0,0,,6,,,54,127
56170,note_off,114,0,0,,6,,,54,127
56170,note_off,0,0,0,,6,,,78,127
56170,note_off,0,0,0,,2,,,74,127
56171,note_on,1,0,0,,2,,,74,127
56171,note_on,0,0,0,,6,,,78,127
56171,note_on,0,0,0,,10,,,57,127
56285,note_off,114,0,0,,10,,,57,127
56286,note_on,1,0,0,,2,,,62,127
56400,note_off,114,0,0,,2,,,62,127
56400,note_off,0,0,0,,6,,,78,127
56400,note_off,0,0,0,,2,,,74,127
56401,note_on,1,0,0,,6,,,78,127
56401,note_on,0,0,0,,2,,,74,127
56401,note_on,0,0,0,,6,,,66,127
56515,note_off,114,0,0,,6,,,66,127
56516,note_on,1,0,0,,10,,,69,127
56630,note_off,114,0,0,,10,,,69,127
56630,note_off,0,0,0,,2,,,74,127
56630,note_off,0,0,0,,6,,,78,127
56631,note_on,1,0,0,,7,,,79,127
56631,note_on,0,0,0,,2,,,38,127
56669,note_on,38,0,0,,6,,,78,127
56688,note_off,19,0,0,,7,,,79,127
56707,note_on,19,0,0,,7,,,79,127
56726,note_off,19,0,0,,6,,,78,127
56745,note_on,19,0,0,,6,,,78,127
56764,note_off,19,0,0,,7,,,79,127
56974,note_off,210,0,0,,6,,,78,127
56975,note_on,1,0,0,,4,,,76,127
57089,note_off,114,0,0,,4,,,76,127
57090,note_on,1,0,0,,6,,,78,127
57204,note_off,114,0,0,,6,,,78,127
57205,note_on,1,0,0,,7,,,79,127
57319,note_off,114,0,0,,7,,,79,127
57319,note_off,0,0,0,,2,,,38,127
57320,note_on,1,0,0,,6,,,78,127
57320,note_on,0,0,0,,10,,,81,127
57320,note_on,0,0,0,,2,,,50,127
57434,note_off,114,0,0,,2,,,50,127
57435,note_on,1,0,0,,6,,,54,127
57549,note_off,114,0,0,,6,,,54,127
57549,note_off,0,0,0,,10,,,81,127
57549,note_off,0,0,0,,6,,,78,127
57550,note_on,1,0,0,,10,,,81,127
57550,note_on,0,0,0,,6,,,78,127
57550,note_on,0,0,0,,10,,,57,127
57664,note_off,114,0,0,,10,,,57,127
57665,note_on,1,0,0,,2,,,62,127
57779,note_off,114,0,0,,2,,,62,127
57779,note_off,0,0,0,,6,,,78,127
57779,note_off,0,0,0,,10,,,81,127
57780,note_on,1,0,0,,10,,,81,127
57780,note_on,0,0,0,,6,,,78,127
57780,note_on,0,0,0,,6,,,66,127
57894,note_off,114,0,0,,6,,,66,127
57895,note_on,1,0,0,,10,,,69,127
58009,note_off,114,0,0,,10,,,69,127
58009,note_off,0,0,0,,6,,,78,127
58009,note_off,0,0,0,,10,,,81,127
58010,note_on,1,0,0,,10,,,81,127
58010,note_on,0,0,0,,6,,,78,127
58010,note_on,0,0,0,,2,,,38,127
58239,note_off,229,0,0,,6,,,78,127
58239,note_off,0,0,0,,10,,,81,127
58240,note_on,1,0,0,,6,,,78,127
58240,note_on,0,0,0,,10,,,81,127
58584,note_off,344,0,0,,10,,,81,127
58584,note_off,0,0,0,,6,,,78,127
58585,note_on,1,0,0,,7,,,79,127
58585,note_on,0,0,0,,12,,,83,127
58699,note_off,114,0,0,,12,,,83,127
58699,note_off,0,0,0,,7,,,79,127
58699,note_off,0,0,0,,2,,,38,127
58700,note_on,1,0,0,,10,,,81,127
58700,note_on,0,0,0,,6,,,78,127
58700,note_on,0,0,0,,2,,,50,127
58814,note_off,114,0,0,,2,,,50,127
58815,note_on,1,0,0,,6,,,54,127
58929,note_off,114,0,0,,6,,,54,127
58929,note_off,0,0,0,,6,,,78,127
58929,note_off,0,0,0,,10,,,81,127
58930,note_on,1,0,0,,6,,,78,127
58930,note_on,0,0,0,,10,,,81,127
58930,note_on,0,0,0,,10,,,57,127
59044,note_off,114,0,0,,10,,,57,127
59045,note_on,1,0,0,,2,,,62,127
59159,note_off,114,0,0,,2,,,62,127
59160,note_on,1,0,0,,6,,,66,127
59274,note_off,114,0,0,,6,,,66,127
59274,note_off,0,0,0,,10,,,81,127
59274,note_off,0,0,0,,6,,,78,127
59275,note_on,1,0,0,,12,,,83,127
59275,note_on,0,0,0,,7,,,79,127
59275,note_on,0,0,0,,10,,,69,127
59389,note_off,114,0,0,,10,,,69,127
59389,note_off,0,0,0,,7,,,79,127
59389,note_off,0,0,0,,12,,,83,127
59390,note_on,1,0,0,,10,,,81,127
59390,note_on,0,0,0,,6,,,78,127
59390,note_on,0,0,0,,2,,,50,127
59504,note_off,114,0,0,,2,,,50,127
59505,note_on,1,0,0,,6,,,54,127
59619,note_off,114,0,0,,6,,,54,127
59619,note_off,0,0,0,,6,,,78,127
59619,note_off,0,0,0,,10,,,81,127
59620,note_on,1,0,0,,6,,,78,127
59620,note_on,0,0,0,,10,,,81,127
59620,note_on,0,0,0,,10,,,57,127
59734,note_off,114,0,0,,10,,,57,127
59735,note_on,1,0,0,,2,,,62,127
59849,note_off,114,0,0,,2,,,62,127
59850,note_on,1,0,0,,6,,,66,127
59964,note_off,114,0,0,,6,,,66,127
59964,note_off,0,0,0,,10,,,81,127
59964,note_off,0,0,0,,6,,,78,127
59965,note_on,1,0,0,,12,,,83,127
59965,note_on,0,0,0,,7,,,79,127
59965,note_on,0,0,0,,10,,,69,127
60079,note_off,114,0,0,,10,,,69,127
60079,note_off,0,0,0,,7,,,79,127
60079,note_off,0,0,0,,12,,,83,127
60080,note_on,1,0,0,,10,,,81,127
60080,note_on,0,0,0,,6,,,78,127
60080,note_on,0,0,0,,2,,,50,127
60194,note_off,114,0,0,,2,,,50,127
60195,note_on,1,0,0,,6,,,54,127
60309,note_off,114,0,0,,6,,,54,127
60309,note_off,0,0,0,,6,,,78,127
60309,note_off,0,0,0,,10,,,81,127
60310,note_on,1,0,0,,6,,,78,127
60310,note_on,0,0,0,,10,,,81,127
60310,note_on,0,0,0,,10,,,57,127
60424,note_off,114,0,0,,10,,,57,127
60425,note_on,1,0,0,,2,,,62,127
60539,note_off,114,0,0,,2,,,62,127
60540,note_on,1,0,0,,6,,,66,127
60654,note_off,114,0,0,,6,,,66,127
60654,note_off,0,0,0,,10,,,81,127
60654,note_off,0,0,0,,6,,,78,127
60655,note_on,1,0,0,,12,,,83,127
60655,note_on,0,0,0,,7,,,79,127
60655,note_on,0,0,0,,10,,,69,127
60769,note_off,114,0,0,,10,,,69,127
60769,note_off,0,0,0,,7,,,79,127
60769,note_off,0,0,0,,12,,,83,127
60770,note_on,1,0,0,,10,,,81,127
60770,note_on,0,0,0,,2,,,38,127
60884,note_off,114,0,0,,10,,,81,127
60885,note_on,1,0,0,,6,,,78,127
60999,note_off,114,0,0,,6,,,78,127
61000,note_on,1,0,0,,7,,,79,127
61114,note_off,114,0,0,,7,,,79,127
61115,note_on,1,0,0,,4,,,76,127
61229,note_off,114,0,0,,4,,,76,127
61230,note_on,1,0,0,,6,,,78,127
61344,note_off,114,0,0,,6,,,78,127
61345,note_on,1,0,0,,2,,,74,127
61451,note_off,106,0,0,,2,,,74,127
61459,note_off,8,0,0,,2,,,38,127
61460,note_on,1,0,0,,6,,,78,127
61460,note_on,0,0,0,,2,,,74,127
61573,note_off,113,0,0,,2,,,74,127
61574,note_off,1,0,0,,6,,,78,127
61575,note_on,1,0,0,,2,,,74,127
61689,note_off,114,0,0,,2,,,74,127
61690,note_on,1,0,0,,7,,,79,127
61690,note_on,0,0,0,,4,,,76,127
61803,note_off,113,0,0,,4,,,76,127
61804,note_off,1,0,0,,7,,,79,127
61805,note_on,1,0,0,,4,,,76,127
61919,note_off,114,0,0,,4,,,76,127
61920,note_on,1,0,0,,10,,,81,127
61920,note_on,0,0,0,,6,,,78,127
62033,note_off,113,0,0,,6,,,78,127
62034,note_off,1,0,0,,10,,,81,127
62035,note_on,1,0,0,,6,,,78,127
62149,note_off,114,0,0,,6,,,78,127
62150,note_on,1,0,0,,12,,,83,127
62150,note_on,0,0,0,,7,,,79,127
62263,note_off,113,0,0,,7,,,79,127
62265,note_on,2,0,0,,7,,,79,127
62379,note_off,114,0,0,,7,,,79,127
62380,note_on,1,0,0,,2,,,74,127
62494,note_off,114,0,0,,2,,,74,127
62495,note_on,1,0,0,,12,,,71,127
62605,note_off,110,0,0,,12,,,83,127
62609,note_off,4,0,0,,12,,,71,127
62610,note_on,1,0,0,,7,,,67,127
62839,note_off,229,0,0,,7,,,67,127
62840,note_on,1,0,0,,4,,,76,127
62840,note_on,0,0,0,,1,,,73,127
62953,note_off,113,0,0,,1,,,73,127
62954,note_off,1,0,0,,4,,,76,127
62955,note_on,1,0,0,,1,,,73,127
63069,note_off,114,0,0,,1,,,73,127
63070,note_on,1,0,0,,6,,,78,127
63070,note_on,0,0,0,,2,,,74,127
63183,note_off,113,0,0,,2,,,74,127
63184,note_off,1,0,0,,6,,,78,127
63185,note_on,1,0,0,,2,,,74,127
63299,note_off,114,0,0,,2,,,74,127
63300,note_on,1,0,0,,7,,,79,127
63300,note_on,0,0,0,,4,,,76,127
63413,note_off,113,0,0,,4,,,76,127
63414,note_off,1,0,0,,7,,,79,127
63415,note_on,1,0,0,,4,,,76,127
63529,note_off,114,0,0,,4,,,76,127
63530,note_on,1,0,0,,10,,,81,127
63530,note_on,0,0,0,,6,,,78,127
63643,note_off,113,0,0,,6,,,78,127
63645,note_on,2,0,0,,6,,,78,127
63759,note_off,114,0,0,,6,,,78,127
63760,note_on,1,0,0,,1,,,73,127
63874,note_off,114,0,0,,1,,,73,127
63875,note_on,1,0,0,,10,,,69,127
63985,note_off,110,0,0,,10,,,81,127
63989,note_off,4,0,0,,10,,,69,127
63990,note_on,1,0,0,,6,,,66,127
64219,note_off,229,0,0,,6,,,66,127
64220,note_on,1,0,0,,2,,,74,127
64220,note_on,0,0,0,,12,,,71,127
64333,note_off,113,0,0,,12,,,71,127
64334,note_off,1,0,0,,2,,,74,127
64335,note_on,1,0,0,,12,,,71,127
64449,note_off,114,0,0,,12,,,71,127
64450,note_on,1,0,0,,4,,,76,127
64450,note_on,0,0,0,,1,,,73,127
64563,note_off,113,0,0,,1,,,73,127
64564,note_off,1,0,0,,4,,,76,127
64565,note_on,1,0,0,,1,,,73,127
64679,note_off,114,0,0,,1,,,73,127
64680,note_on,1,0,0,,6,,,78,127
64680,note_on,0,0,0,,2,,,74,127
64793,note_off,113,0,0,,2,,,74,127
64794,note_off,1,0,0,,6,,,78,127
64795,note_on,1,0,0,,2,,,74,127
64909,note_off,114,0,0,,2,,,74,127
64910,note_on,1,0,0,,7,,,79,127
64910,note_on,0,0,0,,4,,,76,127
65023,note_off,113,0,0,,4,,,76,127
65025,note_on,2,0,0,,4,,,76,127
65139,note_off,114,0,0,,4,,,76,127
65140,note_on,1,0,0,,12,,,71,127
65254,note_off,114,0,0,,12,,,71,127
65255,note_on,1,0,0,,7,,,67,127
65365,note_off,110,0,0,,7,,,79,127
65369,note_off,4,0,0,,7,,,67,127
65370,note_on,1,0,0,,4,,,64,127
65599,note_off,229,0,0,,4,,,64,127
65600,note_on,1,0,0,,1,,,73,127
65600,note_on,0,0,0,,10,,,69,127
65713,note_off,113,0,0,,10,,,69,127
65714,note_off,1,0,0,,1,,,73,127
65715,note_on,1,0,0,,10,,,69,127
65829,note_off,114,0,0,,10,,,69,127
65830,note_on,1,0,0,,2,,,74,127
65830,note_on,0,0,0,,12,,,71,127
65943,note_off,113,0,0,,12,,,71,127
65944,note_off,1,0,0,,2,,,74,127
65945,note_on,1,0,0,,12,,,71,127
66059,note_off,114,0,0,,12,,,71,127
66060,note_on,1,0,0,,4,,,76,127
66060,note_on,0,0,0,,1,,,73,127
66173,note_off,113,0,0,,1,,,73,127
66174,note_off,1,0,0,,4,,,76,127
66175,note_on,1,0,0,,1,,,73,127
66289,note_off,114,0,0,,1,,,73,127
66290,note_on,1,0,0,,6,,,78,127
66290,note_on,0,0,0,,2,,,74,127
66403,note_off,113,0,0,,2,,,74,127
66404,note_off,1,0,0,,6,,,78,127
66405,note_on,1,0,0,,2,,,74,127
66519,note_off,114,0,0,,2,,,74,127
66520,note_on,1,0,0,,7,,,79,127
66520,note_on,0,0,0,,4,,,76,127
66633,note_off,113,0,0,,4,,,76,127
66634,note_off,1,0,0,,7,,,79,127
66635,note_on,1,0,0,,4,,,76,127
66749,note_off,114,0,0,,4,,,76,127
66750,note_on,1,0,0,,10,,,81,127
66750,note_on,0,0,0,,6,,,78,127
66863,note_off,113,0,0,,6,,,78,127
66864,note_off,1,0,0,,10,,,81,127
66865,note_on,1,0,0,,6,,,78,127
66979,note_off,114,0,0,,6,,,78,127
66980,note_on,1,0,0,,12,,,83,127
66980,note_on,0,0,0,,7,,,79,127
67094,note_off,114,0,0,,7,,,79,127
67094,note_off,0,0,0,,12,,,83,127
67095,note_on,1,0,0,,10,,,81,127
67095,note_on,0,0,0,,6,,,78,127
67209,note_off,114,0,0,,6,,,78,127
67209,note_off,0,0,0,,10,,,81,127
67210,note_on,1,0,0,,7,,,79,127
67210,note_on,0,0,0,,4,,,76,127
67324,note_off,114,0,0,,4,,,76,127
67324,note_off,0,0,0,,7,,,79,127
67325,note_on,1,0,0,,6,,,78,127
67325,note_on,0,0,0,,2,,,74,127
67439,note_off,114,0,0,,2,,,74,127
67439,note_off,0,0,0,,6,,,78,127
67440,note_on,1,0,0,,4,,,76,127
67440,note_on,0,0,0,,1,,,73,127
67554,note_off,114,0,0,,1,,,73,127
67554,note_off,0,0,0,,4,,,76,127
67555,note_on,1,0,0,,2,,,74,127
67555,note_on,0,0,0,,12,,,71,127
67669,note_off,114,0,0,,12,,,71,127
67669,note_off,0,0,0,,2,,,74,127
67670,note_on,1,0,0,,4,,,76,127
67670,note_on,0,0,0,,1,,,73,127
67784,note_off,114,0,0,,1,,,73,127
67784,note_off,0,0,0,,4,,,76,127
67785,note_on,1,0,0,,6,,,78,127
67785,note_on,0,0,0,,2,,,74,127
67899,note_off,114,0,0,,2,,,74,127
67899,note_off,0,0,0,,6,,,78,127
67900,note_on,1,0,0,,4,,,76,127
67900,note_on,0,0,0,,1,,,73,127
68014,note_off,114,0,0,,1,,,73,127
68014,note_off,0,0,0,,4,,,76,127
68015,note_on,1,0,0,,2,,,74,127
68015,note_on,0,0,0,,12,,,71,127
68129,note_off,114,0,0,,12,,,71,127
68129,note_off,0,0,0,,2,,,74,127
68130,note_on,1,0,0,,1,,,73,127
68130,note_on,0,0,0,,10,,,69,127
68244,note_off,114,0,0,,10,,,69,127
68244,note_off,0,0,0,,1,,,73,127
68245,note_on,1,0,0,,12,,,71,127
68245,note_on,0,0,0,,7,,,67,127
68359,note_off,114,0,0,,7,,,67,127
68359,note_off,0,0,0,,12,,,71,127
68360,note_on,1,0,0,,10,,,69,127
68360,note_on,0,0,0,,6,,,66,127
68474,note_off,114,0,0,,6,,,66,127
68474,note_off,0,0,0,,10,,,69,127
68475,note_on,1,0,0,,12,,,71,127
68475,note_on,0,0,0,,7,,,67,127
68589,note_off,114,0,0,,7,,,67,127
68589,note_off,0,0,0,,12,,,71,127
68590,note_on,1,0,0,,10,,,69,127
68590,note_on,0,0,0,,6,,,66,127
68704,note_off,114,0,0,,6,,,66,127
68704,note_off,0,0,0,,10,,,69,127
68705,note_on,1,0,0,,7,,,67,127
68705,note_on,0,0,0,,4,,,64,127
68819,note_off,114,0,0,,4,,,64,127
68819,note_off,0,0,0,,7,,,67,127
68820,note_on,1,0,0,,6,,,66,127
68820,note_on,0,0,0,,2,,,62,127
68934,note_off,114,0,0,,2,,,62,127
68934,note_off,0,0,0,,6,,,66,127
68935,note_on,1,0,0,,4,,,64,127
68935,note_on,0,0,0,,1,,,61,127
69049,note_off,114,0,0,,1,,,61,127
69049,note_off,0,0,0,,4,,,64,127
69050,note_on,1,0,0,,6,,,66,127
69050,note_on,0,0,0,,2,,,62,127
69164,note_off,114,0,0,,2,,,62,127
69164,note_off,0,0,0,,6,,,66,127
69165,note_on,1,0,0,,10,,,69,127
69165,note_on,0,0,0,,6,,,66,127
69279,note_off,114,0,0,,6,,,66,127
69279,note_off,0,0,0,,10,,,69,127
69280,note_on,1,0,0,,7,,,67,127
69280,note_on,0,0,0,,4,,,64,127
69394,note_off,114,0,0,,4,,,64,127
69394,note_off,0,0,0,,7,,,67,127
69395,note_on,1,0,0,,6,,,66,127
69395,note_on,0,0,0,,2,,,62,127
69509,note_off,114,0,0,,2,,,62,127
69509,note_off,0,0,0,,6,,,66,127
69510,note_on,1,0,0,,4,,,64,127
69510,note_on,0,0,0,,1,,,61,127
69624,note_off,114,0,0,,1,,,61,127
69624,note_off,0,0,0,,4,,,64,127
69625,note_on,1,0,0,,2,,,62,127
69625,note_on,0,0,0,,12,,,59,127
69739,note_off,114,0,0,,12,,,59,127
69739,note_off,0,0,0,,2,,,62,127
69740,note_on,1,0,0,,2,,,62,127
69740,note_on,0,0,0,,10,,,45,127
69796,note_off,56,0,0,,2,,,62,127
69797,note_on,1,0,0,,1,,,61,127
69853,note_off,56,0,0,,1,,,61,127
69854,note_on,1,0,0,,2,,,62,127
69910,note_off,56,0,0,,2,,,62,127
69911,note_on,1,0,0,,1,,,61,127
69967,note_off,56,0,0,,1,,,61,127
69968,note_on,1,0,0,,2,,,62,127
70024,note_off,56,0,0,,2,,,62,127
70025,note_on,1,0,0,,1,,,61,127
70081,note_off,56,0,0,,1,,,61,127
70082,note_on,1,0,0,,12,,,59,127
70196,note_off,114,0,0,,12,,,59,127
70197,note_on,1,0,0,,10,,,57,127
70336,note_off,139,0,0,,10,,,45,127
70426,note_off,90,0,0,,10,,,57,127
70427,note_on,1,0,0,,2,,,74,127
70427,note_on,0,0,0,,10,,,57,127
70427,note_on,0,0,0,,5,,,53,127
70427,note_on,0,0,0,,2,,,62,127
70656,note_off,229,0,0,,2,,,62,127
70656,note_off,0,0,0,,5,,,53,127
70656,note_off,0,0,0,,10,,,57,127
70656,note_off,0,0,0,,2,,,74,127
70657,note_on,1,0,0,,5,,,77,127
70657,note_on,0,0,0,,2,,,62,127
70657,note_on,0,0,0,,10,,,57,127
70657,note_on,0,0,0,,5,,,53,127
70771,note_off,114,0,0,,5,,,77,127
70772,note_on,1,0,0,,2,,,74,127
70886,note_off,114,0,0,,2,,,74,127
70886,note_off,0,0,0,,5,,,53,127
70886,note_off,0,0,0,,10,,,57,127
70886,note_off,0,0,0,,2,,,62,127
70887,note_on,1,0,0,,4,,,76,127
70887,note_on,0,0,0,,5,,,53,127
70887,note_on,0,0,0,,2,,,62,127
70887,note_on,0,0,0,,10,,,57,127
71001,note_off,114,0,0,,4,,,76,127
71002,note_on,1,0,0,,1,,,73,127
71116,note_off,114,0,0,,1,,,73,127
71116,note_off,0,0,0,,10,,,57,127
71116,note_off,0,0,0,,2,,,62,127
71116,note_off,0,0,0,,5,,,53,127
71117,note_on,1,0,0,,1,,,73,127
71117,note_on,0,0,0,,7,,,55,127
71117,note_on,0,0,0,,4,,,64,127
71117,note_on,0,0,0,,2,,,62,127
71231,note_off,114,0,0,,1,,,73,127
71232,note_on,1,0,0,,2,,,74,127
71346,note_off,114,0,0,,2,,,74,127
71346,note_off,0,0,0,,2,,,62,127
71346,note_off,0,0,0,,4,,,64,127
71346,note_off,0,0,0,,7,,,55,127
71347,note_on,1,0,0,,7,,,79,127
71347,note_on,0,0,0,,2,,,62,127
71347,note_on,0,0,0,,7,,,55,127
71347,note_on,0,0,0,,4,,,64,127
71462,note_on,115,0,0,,2,,,74,127
71520,note_off,58,0,0,,7,,,79,127
71576,note_off,56,0,0,,2,,,74,127
71576,note_off,0,0,0,,4,,,64,127
71576,note_off,0,0,0,,7,,,55,127
71576,note_off,0,0,0,,2,,,62,127
71577,note_on,1,0,0,,4,,,76,127
71577,note_on,0,0,0,,2,,,62,127
71577,note_on,0,0,0,,7,,,55,127
71577,note_on,0,0,0,,4,,,64,127
71691,note_off,114,0,0,,4,,,76,127
71692,note_on,1,0,0,,1,,,73,127
71806,note_off,114,0,0,,1,,,73,127
71806,note_off,0,0,0,,4,,,64,127
71806,note_off,0,0,0,,7,,,55,127
71806,note_off,0,0,0,,2,,,62,127
71807,note_on,1,0,0,,1,,,73,127
71807,note_on,0,0,0,,10,,,57,127
71807,note_on,0,0,0,,5,,,65,127
71807,note_on,0,0,0,,2,,,62,127
71921,note_off,114,0,0,,1,,,73,127
71922,note_on,1,0,0,,2,,,74,127
72036,note_off,114,0,0,,2,,,74,127
72036,note_off,0,0,0,,2,,,62,127
72036,note_off,0,0,0,,5,,,65,127
72036,note_off,0,0,0,,10,,,57,127
72037,note_on,1,0,0,,10,,,81,127
72037,note_on,0,0,0,,10,,,57,127
72037,note_on,0,0,0,,2,,,62,127
72037,note_on,0,0,0,,5,,,65,127
72152,note_on,115,0,0,,2,,,74,127
72210,note_off,58,0,0,,10,,,81,127
72266,note_off,56,0,0,,2,,,74,127
72266,note_off,0,0,0,,5,,,65,127
72266,note_off,0,0,0,,2,,,62,127
72266,note_off,0,0,0,,10,,,57,127
72267,note_on,1,0,0,,4,,,76,127
72267,note_on,0,0,0,,5,,,65,127
72267,note_on,0,0,0,,2,,,62,127
72267,note_on,0,0,0,,10,,,57,127
72381,note_off,114,0,0,,4,,,76,127
72382,note_on,1,0,0,,1,,,73,127
72496,note_off,114,0,0,,1,,,73,127
72496,note_off,0,0,0,,10,,,57,127
72496,note_off,0,0,0,,2,,,62,127
72496,note_off,0,0,0,,5,,,65,127
72497,note_on,1,0,0,,1,,,73,127
72497,note_on,0,0,0,,11,,,58,127
72497,note_on,0,0,0,,7,,,67,127
72497,note_on,0,0,0,,2,,,62,127
72611,note_off,114,0,0,,1,,,73,127
72612,note_on,1,0,0,,2,,,74,127
72726,note_off,114,0,0,,2,,,74,127
72726,note_off,0,0,0,,2,,,62,127
72726,note_off,0,0,0,,7,,,67,127
72726,note_off,0,0,0,,11,,,58,127
72727,note_on,1,0,0,,11,,,82,127
72727,note_on,0,0,0,,11,,,58,127
72727,note_on,0,0,0,,2,,,62,127
72727,note_on,0,0,0,,7,,,67,127
72842,note_on,115,0,0,,2,,,74,127
72900,note_off,58,0,0,,11,,,82,127
72956,note_off,56,0,0,,2,,,74,127
72956,note_off,0,0,0,,7,,,67,127
72956,note_off,0,0,0,,2,,,62,127
72956,note_off,0,0,0,,11,,,58,127
72957,note_on,1,0,0,,4,,,76,127
72957,note_on,0,0,0,,2,,,62,127
72957,note_on,0,0,0,,11,,,58,127
72957,note_on,0,0,0,,7,,,67,127
73071,note_off,114,0,0,,4,,,76,127
73072,note_on,1,0,0,,1,,,73,127
73186,note_off,114,0,0,,1,,,73,127
73186,note_off,0,0,0,,7,,,67,127
73186,note_off,0,0,0,,11,,,58,127
73186,note_off,0,0,0,,2,,,62,127
73187,note_on,1,0,0,,1,,,73,127
73187,note_on,0,0,0,,10,,,57,127
73187,note_on,0,0,0,,5,,,53,127
73187,note_on,0,0,0,,2,,,62,127
73301,note_off,114,0,0,,1,,,73,127
73302,note_on,1,0,0,,2,,,74,127
73416,note_off,114,0,0,,2,,,74,127
73416,note_off,0,0,0,,2,,,62,127
73416,note_off,0,0,0,,5,,,53,127
73416,note_off,0,0,0,,10,,,57,127
73417,note_on,1,0,0,,5,,,77,127
73417,note_on,0,0,0,,10,,,57,127
73417,note_on,0,0,0,,5,,,53,127
73417,note_on,0,0,0,,2,,,62,127
73532,note_on,115,0,0,,2,,,74,127
73646,note_off,114,0,0,,2,,,74,127
73646,note_off,0,0,0,,2,,,62,127
73646,note_off,0,0,0,,5,,,53,127
73646,note_off,0,0,0,,10,,,57,127
73647,note_on,1,0,0,,4,,,76,127
73647,note_on,0,0,0,,2,,,62,127
73647,note_on,0,0,0,,10,,,57,127
73647,note_on,0,0,0,,5,,,53,127
73761,note_off,114,0,0,,4,,,76,127
73762,note_off,1,0,0,,5,,,77,127
73762,note_on,0,0,0,,1,,,73,127
73876,note_off,114,0,0,,1,,,73,127
73876,note_off,0,0,0,,5,,,53,127
73876,note_off,0,0,0,,10,,,57,127
73876,note_off,0,0,0,,2,,,62,127
73877,note_on,1,0,0,,1,,,73,127
73877,note_on,0,0,0,,2,,,62,127
73877,note_on,0,0,0,,7,,,55,127
73877,note_on,0,0,0,,4,,,64,127
73991,note_off,114,0,0,,1,,,73,127
73992,note_on,1,0,0,,2,,,74,127
74106,note_off,114,0,0,,2,,,74,127
74106,note_off,0,0,0,,4,,,64,127
74106,note_off,0,0,0,,7,,,55,127
74106,note_off,0,0,0,,2,,,62,127
74107,note_on,1,0,0,,7,,,79,127
74107,note_on,0,0,0,,4,,,64,127
74107,note_on,0,0,0,,2,,,62,127
74107,note_on,0,0,0,,7,,,55,127
74222,note_on,115,0,0,,2,,,74,127
74336,note_off,114,0,0,,2,,,74,127
74336,note_off,0,0,0,,7,,,55,127
74336,note_off,0,0,0,,2,,,62,127
74336,note_off,0,0,0,,4,,,64,127
74337,note_on,1,0,0,,4,,,76,127
74337,note_on,0,0,0,,4,,,64,127
74337,note_on,0,0,0,,2,,,62,127
74337,note_on,0,0,0,,7,,,55,127
74451,note_off,114,0,0,,4,,,76,127
74452,note_off,1,0,0,,7,,,79,127
74452,note_on,0,0,0,,1,,,73,127
74566,note_off,114,0,0,,1,,,73,127
74566,note_off,0,0,0,,7,,,55,127
74566,note_off,0,0,0,,2,,,62,127
74566,note_off,0,0,0,,4,,,64,127
74567,note_on,1,0,0,,1,,,73,127
74567,note_on,0,0,0,,5,,,65,127
74567,note_on,0,0,0,,10,,,57,127
74567,note_on,0,0,0,,2,,,62,127
74681,note_off,114,0,0,,1,,,73,127
74682,note_on,1,0,0,,2,,,74,127
74796,note_off,114,0,0,,2,,,74,127
74796,note_off,0,0,0,,2,,,62,127
74796,note_off,0,0,0,,10,,,57,127
74796,note_off,0,0,0,,5,,,65,127
74797,note_on,1,0,0,,10,,,81,127
74797,note_on,0,0,0,,5,,,65,127
74797,note_on,0,0,0,,2,,,62,127
74797,note_on,0,0,0,,10,,,57,127
74912,note_on,115,0,0,,2,,,74,127
75026,note_off,114,0,0,,2,,,74,127
75026,note_off,0,0,0,,10,,,57,127
75026,note_off,0,0,0,,2,,,62,127
75026,note_off,0,0,0,,5,,,65,127
75027,note_on,1,0,0,,4,,,76,127
75027,note_on,0,0,0,,10,,,57,127
75027,note_on,0,0,0,,5,,,65,127
75027,note_on,0,0,0,,2,,,62,127
75141,note_off,114,0,0,,4,,,76,127
75142,note_off,1,0,0,,10,,,81,127
75142,note_on,0,0,0,,1,,,73,127
75256,note_off,114,0,0,,1,,,73,127
75256,note_off,0,0,0,,2,,,62,127
75256,note_off,0,0,0,,5,,,65,127
75256,note_off,0,0,0,,10,,,57,127
75257,note_on,1,0,0,,1,,,73,127
75257,note_on,0,0,0,,11,,,58,127
75257,note_on,0,0,0,,7,,,67,127
75257,note_on,0,0,0,,2,,,62,127
75371,note_off,114,0,0,,1,,,73,127
75372,note_on,1,0,0,,2,,,74,127
75486,note_off,114,0,0,,2,,,74,127
75486,note_off,0,0,0,,2,,,62,127
75486,note_off,0,0,0,,7,,,67,127
75486,note_off,0,0,0,,11,,,58,127
75487,note_on,1,0,0,,11,,,82,127
75487,note_on,0,0,0,,11,,,58,127
75487,note_on,0,0,0,,2,,,62,127
75487,note_on,0,0,0,,7,,,67,127
75602,note_on,115,0,0,,2,,,74,127
75716,note_off,114,0,0,,2,,,74,127
75716,note_off,0,0,0,,7,,,67,127
75716,note_off,0,0,0,,2,,,62,127
75716,note_off,0,0,0,,11,,,58,127
75717,note_on,1,0,0,,4,,,76,127
75717,note_on,0,0,0,,11,,,58,127
75717,note_on,0,0,0,,7,,,67,127
75717,note_on,0,0,0,,2,,,62,127
75831,note_off,114,0,0,,4,,,76,127
75832,note_off,1,0,0,,11,,,82,127
75832,note_on,0,0,0,,1,,,73,127
75946,note_off,114,0,0,,1,,,73,127
75946,note_off,0,0,0,,2,,,62,127
75946,note_off,0,0,0,,7,,,67,127
75946,note_off,0,0,0,,11,,,58,127
75947,note_on,1,0,0,,11,,,82,127
75947,note_on,0,0,0,,11,,,70,127
76061,note_off,114,0,0,,11,,,70,127
76061,note_off,0,0,0,,11,,,82,127
76062,note_on,1,0,0,,10,,,81,127
76062,note_on,0,0,0,,10,,,69,127
76176,note_off,114,0,0,,10,,,69,127
76176,note_off,0,0,0,,10,,,81,127
76177,note_on,1,0,0,,7,,,79,127
76177,note_on,0,0,0,,7,,,67,127
76291,note_off,114,0,0,,7,,,67,127
76291,note_off,0,0,0,,7,,,79,127
76292,note_on,1,0,0,,5,,,77,127
76292,note_on,0,0,0,,5,,,65,127
76406,note_off,114,0,0,,5,,,65,127
76406,note_off,0,0,0,,5,,,77,127
76407,note_on,1,0,0,,4,,,76,127
76407,note_on,0,0,0,,4,,,64,127
76521,note_off,114,0,0,,4,,,64,127
76521,note_off,0,0,0,,4,,,76,127
76522,note_on,1,0,0,,2,,,74,127
76522,note_on,0,0,0,,2,,,62,127
76636,note_off,114,0,0,,2,,,62,127
76636,note_off,0,0,0,,2,,,74,127
76637,note_on,1,0,0,,1,,,73,127
76637,note_on,0,0,0,,1,,,61,127
76751,note_off,114,0,0,,1,,,61,127
76751,note_off,0,0,0,,1,,,73,127
76752,note_on,1,0,0,,2,,,74,127
76752,note_on,0,0,0,,2,,,62,127
76866,note_off,114,0,0,,2,,,62,127
76866,note_off,0,0,0,,2,,,74,127
76867,note_on,1,0,0,,4,,,76,127
76867,note_on,0,0,0,,4,,,64,127
76981,note_off,114,0,0,,4,,,64,127
76981,note_off,0,0,0,,4,,,76,127
76982,note_on,1,0,0,,5,,,77,127
76982,note_on,0,0,0,,5,,,65,127
77096,note_off,114,0,0,,5,,,65,127
77096,note_off,0,0,0,,5,,,77,127
77097,note_on,1,0,0,,7,,,79,127
77097,note_on,0,0,0,,7,,,67,127
77211,note_off,114,0,0,,7,,,67,127
77211,note_off,0,0,0,,7,,,79,127
77212,note_on,1,0,0,,10,,,81,127
77212,note_on,0,0,0,,10,,,69,127
77326,note_off,114,0,0,,10,,,69,127
77326,note_off,0,0,0,,10,,,81,127
77327,note_on,1,0,0,,7,,,79,127
77327,note_on,0,0,0,,7,,,67,127
77441,note_off,114,0,0,,7,,,67,127
77441,note_off,0,0,0,,7,,,79,127
77442,note_on,1,0,0,,5,,,77,127
77442,note_on,0,0,0,,5,,,65,127
77556,note_off,114,0,0,,5,,,65,127
77556,note_off,0,0,0,,5,,,77,127
77557,note_on,1,0,0,,4,,,76,127
77557,note_on,0,0,0,,4,,,64,127
77671,note_off,114,0,0,,4,,,64,127
77671,note_off,0,0,0,,4,,,76,127
77672,note_on,1,0,0,,2,,,74,127
77672,note_on,0,0,0,,2,,,62,127
77786,note_off,114,0,0,,2,,,62,127
77786,note_off,0,0,0,,2,,,74,127
77787,note_on,1,0,0,,1,,,73,127
77787,note_on,0,0,0,,1,,,61,127
77901,note_off,114,0,0,,1,,,61,127
77901,note_off,0,0,0,,1,,,73,127
77902,note_on,1,0,0,,11,,,70,127
77902,note_on,0,0,0,,11,,,58,127
78016,note_off,114,0,0,,11,,,58,127
78016,note_off,0,0,0,,11,,,70,127
78017,note_on,1,0,0,,10,,,69,127
78017,note_on,0,0,0,,10,,,57,127
78131,note_off,114,0,0,,10,,,57,127
78131,note_off,0,0,0,,10,,,69,127
78132,note_on,1,0,0,,11,,,70,127
78132,note_on,0,0,0,,11,,,58,127
78246,note_off,114,0,0,,11,,,58,127
78246,note_off,0,0,0,,11,,,70,127
78247,note_on,1,0,0,,10,,,69,127
78247,note_on,0,0,0,,10,,,57,127
78361,note_off,114,0,0,,10,,,57,127
78361,note_off,0,0,0,,10,,,69,127
78362,note_on,1,0,0,,7,,,67,127
78362,note_on,0,0,0,,7,,,55,127
78476,note_off,114,0,0,,7,,,55,127
78476,note_off,0,0,0,,7,,,67,127
78477,note_on,1,0,0,,5,,,65,127
78477,note_on,0,0,0,,5,,,53,127
78591,note_off,114,0,0,,5,,,53,127
78591,note_off,0,0,0,,5,,,65,127
78592,note_on,1,0,0,,4,,,64,127
78592,note_on,0,0,0,,4,,,52,127
78706,note_off,114,0,0,,4,,,52,127
78706,note_off,0,0,0,,4,,,64,127
78707,note_on,1,0,0,,5,,,65,127
78707,note_on,0,0,0,,5,,,53,127
78821,note_off,114,0,0,,5,,,53,127
78821,note_off,0,0,0,,5,,,65,127
78822,note_on,1,0,0,,10,,,69,127
78822,note_on,0,0,0,,10,,,57,127
78936,note_off,114,0,0,,10,,,57,127
78936,note_off,0,0,0,,10,,,69,127
78937,note_on,1,0,0,,7,,,67,127
78937,note_on,0,0,0,,7,,,55,127
79051,note_off,114,0,0,,7,,,55,127
79051,note_off,0,0,0,,7,,,67,127
79052,note_on,1,0,0,,5,,,65,127
79052,note_on,0,0,0,,5,,,53,127
79166,note_off,114,0,0,,5,,,53,127
79166,note_off,0,0,0,,5,,,65,127
79167,note_on,1,0,0,,4,,,64,127
79167,note_on,0,0,0,,4,,,52,127
79281,note_off,114,0,0,,4,,,52,127
79281,note_off,0,0,0,,4,,,64,127
79282,note_on,1,0,0,,2,,,62,127
79282,note_on,0,0,0,,2,,,50,127
79396,note_off,114,0,0,,2,,,50,127
79396,note_off,0,0,0,,2,,,62,127
79397,note_on,1,0,0,,2,,,62,127
79397,note_on,0,0,0,,10,,,45,127
79453,note_off,56,0,0,,2,,,62,127
79454,note_on,1,0,0,,1,,,61,127
79510,note_off,56,0,0,,1,,,61,127
79511,note_on,1,0,0,,2,,,62,127
79567,note_off,56,0,0,,2,,,62,127
79568,note_on,1,0,0,,1,,,61,127
79624,note_off,56,0,0,,1,,,61,127
79625,note_on,1,0,0,,2,,,62,127
79681,note_off,56,0,0,,2,,,62,127
79682,note_on,1,0,0,,1,,,61,127
79738,note_off,56,0,0,,1,,,61,127
79739,note_on,1,0,0,,12,,,59,127
79853,note_off,114,0,0,,12,,,59,127
79854,note_on,1,0,0,,10,,,57,127
79993,note_off,139,0,0,,10,,,45,127
80082,note_off,89,0,0,,10,,,57,127
80084,note_on,2,0,0,,6,,,78,127
80084,note_on,0,0,0,,2,,,74,127
80084,note_on,0,0,0,,2,,,50,127
80198,note_off,114,0,0,,2,,,50,127
80199,note_on,1,0,0,,6,,,54,127
80313,note_off,114,0,0,,6,,,54,127
80313,note_off,0,0,0,,2,,,74,127
80313,note_off,0,0,0,,6,,,78,127
80314,note_on,1,0,0,,6,,,78,127
80314,note_on,0,0,0,,2,,,74,127
80314,note_on,0,0,0,,10,,,57,127
80428,note_off,114,0,0,,10,,,57,127
80429,note_on,1,0,0,,2,,,62,127
80543,note_off,114,0,0,,2,,,62,127
80543,note_off,0,0,0,,2,,,74,127
80543,note_off,0,0,0,,6,,,78,127
80544,note_on,1,0,0,,10,,,81,127
80544,note_on,0,0,0,,6,,,66,127
80658,note_off,114,0,0,,6,,,66,127
80659,note_on,1,0,0,,10,,,69,127
80773,note_off,114,0,0,,10,,,69,127
80773,note_off,0,0,0,,10,,,81,127
80774,note_on,1,0,0,,6,,,78,127
80774,note_on,0,0,0,,2,,,38,127
80889,note_on,115,0,0,,2,,,74,127
80918,note_off,29,0,0,,6,,,78,127
81003,note_off,85,0,0,,2,,,74,127
81004,note_on,1,0,0,,4,,,76,127
81119,note_on,115,0,0,,1,,,73,127
81148,note_off,29,0,0,,4,,,76,127
81233,note_off,85,0,0,,1,,,73,127
81234,note_on,1,0,0,,2,,,74,127
81349,note_on,115,0,0,,10,,,69,127
81378,note_off,29,0,0,,2,,,74,127
81463,note_off,85,0,0,,10,,,69,127
81463,note_off,0,0,0,,2,,,38,127
81464,note_on,1,0,0,,2,,,74,127
81464,note_on,0,0,0,,6,,,78,127
81464,note_on,0,0,0,,2,,,50,127
81578,note_off,114,0,0,,2,,,50,127
81579,note_on,1,0,0,,6,,,54,127
81693,note_off,114,0,0,,6,,,54,127
81693,note_off,0,0,0,,6,,,78,127
81693,note_off,0,0,0,,2,,,74,127
81694,note_on,1,0,0,,2,,,74,127
81694,note_on,0,0,0,,6,,,78,127
81694,note_on,0,0,0,,10,,,57,127
81808,note_off,114,0,0,,10,,,57,127
81809,note_on,1,0,0,,2,,,62,127
81923,note_off,114,0,0,,2,,,62,127
81923,note_off,0,0,0,,6,,,78,127
81923,note_off,0,0,0,,2,,,74,127
81924,note_on,1,0,0,,10,,,81,127
81924,note_on,0,0,0,,6,,,66,127
82038,note_off,114,0,0,,6,,,66,127
82039,note_on,1,0,0,,10,,,69,127
82153,note_off,114,0,0,,10,,,69,127
82153,note_off,0,0,0,,10,,,81,127
82154,note_on,1,0,0,,6,,,78,127
82154,note_on,0,0,0,,2,,,38,127
82269,note_on,115,0,0,,2,,,74,127
82327,note_off,58,0,0,,6,,,78,127
82383,note_off,56,0,0,,2,,,74,127
82384,note_on,1,0,0,,4,,,76,127
82499,note_on,115,0,0,,1,,,73,127
82557,note_off,58,0,0,,4,,,76,127
82613,note_off,56,0,0,,1,,,73,127
82614,note_on,1,0,0,,2,,,74,127
82729,note_on,115,0,0,,10,,,69,127
82787,note_off,58,0,0,,2,,,74,127
82843,note_off,56,0,0,,10,,,69,127
82843,note_off,0,0,0,,2,,,38,127
82844,note_on,1,0,0,,2,,,74,127
82844,note_on,0,0,0,,6,,,78,127
82844,note_on,0,0,0,,2,,,50,127
82958,note_off,114,0,0,,2,,,50,127
82959,note_on,1,0,0,,6,,,54,127
83073,note_off,114,0,0,,6,,,54,127
83073,note_off,0,0,0,,6,,,78,127
83073,note_off,0,0,0,,2,,,74,127
83074,note_on,1,0,0,,6,,,78,127
83074,note_on,0,0,0,,2,,,74,127
83074,note_on,0,0,0,,10,,,57,127
83188,note_off,114,0,0,,10,,,57,127
83189,note_on,1,0,0,,2,,,62,127
83303,note_off,114,0,0,,2,,,62,127
83303,note_off,0,0,0,,2,,,74,127
83303,note_off,0,0,0,,6,,,78,127
83304,note_on,1,0,0,,10,,,81,127
83304,note_on,0,0,0,,6,,,66,127
83418,note_off,114,0,0,,6,,,66,127
83419,note_on,1,0,0,,10,,,69,127
83533,note_off,114,0,0,,10,,,69,127
83533,note_off,0,0,0,,10,,,81,127
83534,note_on,1,0,0,,6,,,78,127
83534,note_on,0,0,0,,2,,,38,127
83648,note_off,114,0,0,,6,,,78,127
83649,note_on,1,0,0,,2,,,74,127
83763,note_off,114,0,0,,2,,,74,127
83764,note_on,1,0,0,,4,,,76,127
83878,note_off,114,0,0,,4,,,76,127
83879,note_on,1,0,0,,1,,,73,127
83993,note_off,114,0,0,,1,,,73,127
83994,note_on,1,0,0,,2,,,74,127
84109,note_on,115,0,0,,10,,,69,127
84222,note_off,113,0,0,,2,,,74,127
84223,note_off,1,0,0,,10,,,69,127
84223,note_off,0,0,0,,2,,,38,127
84224,note_on,1,0,0,,2,,,74,127
84224,note_on,0,0,0,,7,,,55,127
84338,note_off,114,0,0,,2,,,74,127
84339,note_on,1,0,0,,4,,,76,127
84453,note_off,114,0,0,,4,,,76,127
84453,note_off,0,0,0,,7,,,55,127
84454,note_on,1,0,0,,6,,,78,127
84454,note_on,0,0,0,,10,,,57,127
84568,note_off,114,0,0,,6,,,78,127
84569,note_on,1,0,0,,2,,,74,127
84683,note_off,114,0,0,,2,,,74,127
84684,note_on,1,0,0,,4,,,76,127
84684,note_on,0,0,0,,10,,,45,127
84798,note_off,114,0,0,,4,,,76,127
84799,note_on,1,0,0,,1,,,73,127
84909,note_off,110,0,0,,10,,,57,127
84913,note_off,4,0,0,,1,,,73,127
84913,note_off,0,0,0,,10,,,45,127
84914,note_on,1,0,0,,2,,,74,127
84914,note_on,0,0,0,,2,,,50,127
85029,note_on,115,0,0,,10,,,69,127
85143,note_off,114,0,0,,10,,,69,127
85144,note_on,1,0,0,,6,,,78,127
85250,note_off,106,0,0,,2,,,74,127
85258,note_off,8,0,0,,6,,,78,127
85259,note_on,1,0,0,,2,,,74,127
85373,note_off,114,0,0,,2,,,74,127
85373,note_off,0,0,0,,2,,,50,127
85374,note_on,1,0,0,,10,,,81,127
85374,note_on,0,0,0,,2,,,74,127
85488,note_off,114,0,0,,10,,,81,127
85489,note_on,1,0,0,,6,,,78,127
85603,note_off,114,0,0,,6,,,78,127
85603,note_off,0,0,0,,2,,,74,127
85604,note_on,1,0,0,,12,,,83,127
85604,note_on,0,0,0,,7,,,79,127
85717,note_off,113,0,0,,7,,,79,127
85718,note_off,1,0,0,,12,,,83,127
85719,note_on,1,0,0,,7,,,79,127
85833,note_off,114,0,0,,7,,,79,127
85834,note_on,1,0,0,,7,,,79,127
85834,note_on,0,0,0,,4,,,76,127
85947,note_off,113,0,0,,4,,,76,127
85948,note_off,1,0,0,,7,,,79,127
85949,note_on,1,0,0,,4,,,76,127
86063,note_off,114,0,0,,4,,,76,127
86064,note_on,1,0,0,,4,,,76,127
86064,note_on,0,0,0,,1,,,73,127
86177,note_off,113,0,0,,1,,,73,127
86178,note_off,1,0,0,,4,,,76,127
86179,note_on,1,0,0,,1,,,73,127
86293,note_off,114,0,0,,1,,,73,127
86294,note_on,1,0,0,,1,,,73,127
86294,note_on,0,0,0,,10,,,69,127
86407,note_off,113,0,0,,10,,,69,127
86408,note_off,1,0,0,,1,,,73,127
86409,note_on,1,0,0,,10,,,69,127
86523,note_off,114,0,0,,10,,,69,127
86524,note_on,1,0,0,,10,,,69,127
86524,note_on,0,0,0,,6,,,66,127
86637,note_off,113,0,0,,6,,,66,127
86638,note_off,1,0,0,,10,,,69,127
86639,note_on,1,0,0,,6,,,66,127
86753,note_off,114,0,0,,6,,,66,127
86754,note_on,1,0,0,,6,,,66,127
86754,note_on,0,0,0,,2,,,62,127
86867,note_off,113,0,0,,2,,,62,127
86868,note_off,1,0,0,,6,,,66,127
86869,note_on,1,0,0,,2,,,62,127
86983,note_off,114,0,0,,2,,,62,127
86984,note_on,1,0,0,,2,,,74,127
86984,note_on,0,0,0,,7,,,55,127
87098,note_off,114,0,0,,2,,,74,127
87099,note_on,1,0,0,,4,,,76,127
87213,note_off,114,0,0,,4,,,76,127
87213,note_off,0,0,0,,7,,,55,127
87214,note_on,1,0,0,,6,,,78,127
87214,note_on,0,0,0,,10,,,57,127
87328,note_off,114,0,0,,6,,,78,127
87329,note_on,1,0,0,,2,,,74,127
87443,note_off,114,0,0,,2,,,74,127
87444,note_on,1,0,0,,4,,,76,127
87444,note_on,0,0,0,,10,,,45,127
87558,note_off,114,0,0,,4,,,76,127
87559,note_on,1,0,0,,1,,,73,127
87669,note_off,110,0,0,,10,,,57,127
87673,note_off,4,0,0,,1,,,73,127
87673,note_off,0,0,0,,10,,,45,127
87674,note_on,1,0,0,,2,,,74,127
87674,note_on,0,0,0,,2,,,50,127
87788,note_off,114,0,0,,2,,,74,127
87789,note_on,1,0,0,,10,,,69,127
87903,note_off,114,0,0,,10,,,69,127
87904,note_on,1,0,0,,6,,,66,127
87904,note_on,0,0,0,,2,,,38,127
88018,note_off,114,0,0,,6,,,66,127
88019,note_on,1,0,0,,2,,,62,127
88129,note_off,110,0,0,,2,,,50,127
88133,note_off,4,0,0,,2,,,62,127
88133,note_off,0,0,0,,2,,,38,127
88134,note_on,1,0,0,,10,,,57,127
88134,note_on,0,0,0,,2,,,38,127
88248,note_off,114,0,0,,10,,,57,127
88249,note_on,1,0,0,,6,,,54,127
88363,note_off,114,0,0,,6,,,54,127
88363,note_off,0,0,0,,2,,,38,127
88388,note_on,25,0,0,,2,,,38,127
88388,note_on,0,0,0,,2,,,50,127
90106,note_off,1718,0,0,,2,,,50,127
90106,note_off,0,0,0,,2,,,38,127
95232,end_of_track,5126,1,0,,,,,,
