tick,type,time,meta,track,program,channel,pitch,tempo,note,velocity
0,copyright,0,1,0,,,,,,
0,program_change,0,0,0,6,0,,,,
0,pitchwheel,0,0,0,,0,0,,,
0,program_change,0,0,0,6,1,,,,
0,pitchwheel,0,0,0,,1,-590,,,
0,program_change,0,0,0,6,2,,,,
0,pitchwheel,0,0,0,,2,-272,,,
0,program_change,0,0,0,6,3,,,,
0,pitchwheel,0,0,0,,3,-353,,,
0,program_change,0,0,0,6,4,,,,
0,pitchwheel,0,0,0,,4,-560,,,
0,program_change,0,0,0,6,5,,,,
0,pitchwheel,0,0,0,,5,-80,,,
0,program_change,0,0,0,6,6,,,,
0,pitchwheel,0,0,0,,6,-625,,,
0,program_change,0,0,0,6,7,,,,
0,pitchwheel,0,0,0,,7,-130,,,
0,program_change,0,0,0,6,8,,,,
0,pitchwheel,0,0,0,,8,-512,,,
0,program_change,0,0,0,6,10,,,,
0,pitchwheel,0,0,0,,10,-464,,,
0,program_change,0,0,0,6,11,,,,
0,pitchwheel,0,0,0,,11,-208,,,
0,program_change,0,0,0,6,12,,,,
0,pitchwheel,0,0,0,,12,-553,,,
0,set_tempo,0,1,0,,,,500000,,
100,note_on,100,0,0,,2,,,74,127
199,note_off,99,0,0,,2,,,74,127
200,note_on,1,0,0,,0,,,72,127
299,note_off,99,0,0,,0,,,72,127
300,note_on,1,0,0,,2,,,74,127
399,note_off,99,0,0,,2,,,74,127
400,note_on,1,0,0,,7,,,43,127
400,note_on,0,0,0,,7,,,55,127
400,note_on,0,0,0,,11,,,70,127
599,note_off,199,0,0,,11,,,70,127
600,note_on,1,0,0,,0,,,72,127
699,note_off,99,0,0,,0,,,72,127
700,note_on,1,0,0,,2,,,74,127
799,note_off,99,0,0,,2,,,74,127
800,note_on,1,0,0,,7,,,67,127
899,note_off,99,0,0,,7,,,67,127
900,note_on,1,0,0,,2,,,74,127
999,note_off,99,0,0,,2,,,74,127
1000,note_on,1,0,0,,4,,,76,127
1099,note_off,99,0,0,,4,,,76,127
1100,note_on,1,0,0,,6,,,78,127
1199,note_off,99,0,0,,6,,,78,127
1199,note_off,0,0,0,,7,,,55,127
1199,note_off,0,0,0,,7,,,43,127
1200,note_on,1,0,0,,7,,,43,127
1200,note_on,0,0,0,,7,,,79,127
1299,note_off,99,0,0,,7,,,79,127
1300,note_on,1,0,0,,6,,,78,127
1399,note_off,99,0,0,,6,,,78,127
1399,note_off,0,0,0,,7,,,43,127
1400,note_on,1,0,0,,10,,,45,127
1400,note_on,0,0,0,,7,,,79,127
1499,note_off,99,0,0,,7,,,79,127
1500,note_on,1,0,0,,10,,,81,127
1599,note_off,99,0,0,,10,,,81,127
1599,note_off,0,0,0,,10,,,45,127
1600,note_on,1,0,0,,11,,,46,127
1600,note_on,0,0,0,,7,,,79,127
1699,note_off,99,0,0,,7,,,79,127
1700,note_on,1,0,0,,11,,,82,127
1799,note_off,99,0,0,,11,,,82,127
1799,note_off,0,0,0,,11,,,46,127
1800,note_on,1,0,0,,0,,,48,127
1800,note_on,0,0,0,,10,,,81,127
1899,note_off,99,0,0,,10,,,81,127
1900,note_on,1,0,0,,7,,,79,127
1999,note_off,99,0,0,,7,,,79,127
1999,note_off,0,0,0,,0,,,48,127
2000,note_on,1,0,0,,2,,,50,127
2000,note_on,0,0,0,,6,,,78,127
2100,note_on,100,0,0,,2,,,62,127
2198,note_off,98,0,0,,2,,,50,127
2199,note_off,1,0,0,,2,,,62,127
2199,note_off,0,0,0,,6,,,78,127
2200,note_on,1,0,0,,0,,,60,127
2299,note_off,99,0,0,,0,,,60,127
2300,note_on,1,0,0,,2,,,62,127
2399,note_off,99,0,0,,2,,,62,127
2400,note_on,1,0,0,,11,,,58,127
2499,note_off,99,0,0,,11,,,58,127
2500,note_on,1,0,0,,0,,,60,127
2599,note_off,99,0,0,,0,,,60,127
2600,note_on,1,0,0,,2,,,62,127
2699,note_off,99,0,0,,2,,,62,127
2700,note_on,1,0,0,,11,,,58,127
2799,note_off,99,0,0,,11,,,58,127
2800,note_on,1,0,0,,7,,,55,127
2900,note_on,100,0,0,,2,,,74,127
2999,note_off,99,0,0,,2,,,74,127
3000,note_on,1,0,0,,0,,,72,127
3099,note_off,99,0,0,,0,,,72,127
3100,note_on,1,0,0,,2,,,74,127
3199,note_off,99,0,0,,2,,,74,127
3200,note_on,1,0,0,,11,,,70,127
3299,note_off,99,0,0,,11,,,70,127
3300,note_on,1,0,0,,0,,,72,127
3399,note_off,99,0,0,,0,,,72,127
3400,note_on,1,0,0,,2,,,74,127
3499,note_off,99,0,0,,2,,,74,127
3500,note_on,1,0,0,,11,,,70,127
3599,note_off,99,0,0,,11,,,70,127
3599,note_off,0,0,0,,7,,,55,127
3600,note_on,1,0,0,,7,,,55,127
3600,note_on,0,0,0,,7,,,67,127
3700,note_on,100,0,0,,7,,,79,127
3798,note_off,98,0,0,,7,,,67,127
3799,note_off,1,0,0,,7,,,79,127
3800,note_on,1,0,0,,5,,,77,127
3899,note_off,99,0,0,,5,,,77,127
3900,note_on,1,0,0,,7,,,79,127
3999,note_off,99,0,0,,7,,,79,127
3999,note_off,0,0,0,,7,,,55,127
4000,note_on,1,0,0,,11,,,58,127
4000,note_on,0,0,0,,2,,,74,127
4099,note_off,99,0,0,,2,,,74,127
4100,note_on,1,0,0,,5,,,77,127
4199,note_off,99,0,0,,5,,,77,127
4200,note_on,1,0,0,,3,,,75,127
4299,note_off,99,0,0,,3,,,75,127
4300,note_on,1,0,0,,2,,,74,127
4399,note_off,99,0,0,,2,,,74,127
4399,note_off,0,0,0,,11,,,58,127
4400,note_on,1,0,0,,0,,,48,127
4400,note_on,0,0,0,,3,,,75,127
4500,note_on,100,0,0,,0,,,60,127
4598,note_off,98,0,0,,0,,,48,127
4599,note_off,1,0,0,,0,,,60,127
4600,note_on,1,0,0,,11,,,58,127
4699,note_off,99,0,0,,11,,,58,127
4700,note_on,1,0,0,,0,,,60,127
4799,note_off,99,0,0,,0,,,60,127
4800,note_on,1,0,0,,10,,,57,127
4899,note_off,99,0,0,,10,,,57,127
4900,note_on,1,0,0,,11,,,58,127
4999,note_off,99,0,0,,11,,,58,127
4999,note_off,0,0,0,,3,,,75,127
5000,note_on,1,0,0,,0,,,60,127
5099,note_off,99,0,0,,0,,,60,127
5100,note_on,1,0,0,,10,,,57,127
5199,note_off,99,0,0,,10,,,57,127
5200,note_on,1,0,0,,5,,,53,127
5300,note_on,100,0,0,,0,,,72,127
5399,note_off,99,0,0,,0,,,72,127
5400,note_on,1,0,0,,11,,,70,127
5499,note_off,99,0,0,,11,,,70,127
5500,note_on,1,0,0,,0,,,72,127
5599,note_off,99,0,0,,0,,,72,127
5600,note_on,1,0,0,,10,,,69,127
5699,note_off,99,0,0,,10,,,69,127
5700,note_on,1,0,0,,11,,,70,127
5799,note_off,99,0,0,,11,,,70,127
5800,note_on,1,0,0,,0,,,72,127
5899,note_off,99,0,0,,0,,,72,127
5900,note_on,1,0,0,,10,,,69,127
5999,note_off,99,0,0,,10,,,69,127
5999,note_off,0,0,0,,5,,,53,127
6000,note_on,1,0,0,,5,,,53,127
6000,note_on,0,0,0,,5,,,65,127
6100,note_on,100,0,0,,5,,,77,127
6198,note_off,98,0,0,,5,,,65,127
6199,note_off,1,0,0,,5,,,77,127
6200,note_on,1,0,0,,3,,,75,127
6299,note_off,99,0,0,,3,,,75,127
6300,note_on,1,0,0,,5,,,77,127
6399,note_off,99,0,0,,5,,,77,127
6399,note_off,0,0,0,,5,,,53,127
6400,note_on,1,0,0,,10,,,57,127
6400,note_on,0,0,0,,0,,,72,127
6499,note_off,99,0,0,,0,,,72,127
6500,note_on,1,0,0,,3,,,75,127
6599,note_off,99,0,0,,3,,,75,127
6600,note_on,1,0,0,,2,,,74,127
6699,note_off,99,0,0,,2,,,74,127
6700,note_on,1,0,0,,0,,,72,127
6799,note_off,99,0,0,,0,,,72,127
6799,note_off,0,0,0,,10,,,57,127
6800,note_on,1,0,0,,11,,,46,127
6800,note_on,0,0,0,,2,,,74,127
6900,note_on,100,0,0,,11,,,58,127
6998,note_off,98,0,0,,11,,,46,127
6999,note_off,1,0,0,,11,,,58,127
7000,note_on,1,0,0,,10,,,57,127
7099,note_off,99,0,0,,10,,,57,127
7100,note_on,1,0,0,,11,,,58,127
7199,note_off,99,0,0,,11,,,58,127
7200,note_on,1,0,0,,7,,,55,127
7299,note_off,99,0,0,,7,,,55,127
7300,note_on,1,0,0,,10,,,57,127
7399,note_off,99,0,0,,10,,,57,127
7400,note_on,1,0,0,,11,,,58,127
7499,note_off,99,0,0,,11,,,58,127
7500,note_on,1,0,0,,7,,,55,127
7599,note_off,99,0,0,,7,,,55,127
7599,note_off,0,0,0,,2,,,74,127
7600,note_on,1,0,0,,3,,,51,127
7700,note_on,100,0,0,,11,,,70,127
7799,note_off,99,0,0,,11,,,70,127
7800,note_on,1,0,0,,10,,,69,127
7899,note_off,99,0,0,,10,,,69,127
7900,note_on,1,0,0,,11,,,70,127
7999,note_off,99,0,0,,11,,,70,127
8000,note_on,1,0,0,,7,,,67,127
8099,note_off,99,0,0,,7,,,67,127
8100,note_on,1,0,0,,10,,,69,127
8199,note_off,99,0,0,,10,,,69,127
8200,note_on,1,0,0,,11,,,70,127
8299,note_off,99,0,0,,11,,,70,127
8300,note_on,1,0,0,,7,,,67,127
8399,note_off,99,0,0,,7,,,67,127
8399,note_off,0,0,0,,3,,,51,127
8400,note_on,1,0,0,,3,,,51,127
8400,note_on,0,0,0,,3,,,63,127
8500,note_on,100,0,0,,3,,,75,127
8598,note_off,98,0,0,,3,,,63,127
8599,note_off,1,0,0,,3,,,75,127
8600,note_on,1,0,0,,2,,,74,127
8699,note_off,99,0,0,,2,,,74,127
8700,note_on,1,0,0,,3,,,75,127
8799,note_off,99,0,0,,3,,,75,127
8799,note_off,0,0,0,,3,,,51,127
8800,note_on,1,0,0,,7,,,55,127
8800,note_on,0,0,0,,11,,,70,127
8899,note_off,99,0,0,,11,,,70,127
8900,note_on,1,0,0,,2,,,74,127
8999,note_off,99,0,0,,2,,,74,127
9000,note_on,1,0,0,,0,,,72,127
9099,note_off,99,0,0,,0,,,72,127
9100,note_on,1,0,0,,11,,,70,127
9199,note_off,99,0,0,,11,,,70,127
9199,note_off,0,0,0,,7,,,55,127
9200,note_on,1,0,0,,10,,,45,127
9200,note_on,0,0,0,,0,,,72,127
9300,note_on,100,0,0,,10,,,57,127
9398,note_off,98,0,0,,10,,,45,127
9399,note_off,1,0,0,,10,,,57,127
9400,note_on,1,0,0,,7,,,55,127
9499,note_off,99,0,0,,7,,,55,127
9500,note_on,1,0,0,,10,,,57,127
9599,note_off,99,0,0,,10,,,57,127
9600,note_on,1,0,0,,6,,,54,127
9699,note_off,99,0,0,,6,,,54,127
9700,note_on,1,0,0,,7,,,55,127
9799,note_off,99,0,0,,7,,,55,127
9800,note_on,1,0,0,,10,,,57,127
9899,note_off,99,0,0,,10,,,57,127
9900,note_on,1,0,0,,6,,,54,127
9999,note_off,99,0,0,,6,,,54,127
9999,note_off,0,0,0,,0,,,72,127
10000,note_on,1,0,0,,2,,,50,127
10100,note_on,100,0,0,,10,,,69,127
10199,note_off,99,0,0,,10,,,69,127
10200,note_on,1,0,0,,7,,,67,127
10299,note_off,99,0,0,,7,,,67,127
10300,note_on,1,0,0,,10,,,69,127
10399,note_off,99,0,0,,10,,,69,127
10400,note_on,1,0,0,,6,,,66,127
10499,note_off,99,0,0,,6,,,66,127
10500,note_on,1,0,0,,7,,,67,127
10599,note_off,99,0,0,,7,,,67,127
10600,note_on,1,0,0,,10,,,69,127
10699,note_off,99,0,0,,10,,,69,127
10700,note_on,1,0,0,,6,,,66,127
10799,note_off,99,0,0,,6,,,66,127
10799,note_off,0,0,0,,2,,,50,127
10800,note_on,1,0,0,,2,,,50,127
10800,note_on,0,0,0,,2,,,62,127
10900,note_on,100,0,0,,2,,,74,127
10998,note_off,98,0,0,,2,,,62,127
10999,note_off,1,0,0,,2,,,74,127
11000,note_on,1,0,0,,0,,,72,127
11099,note_off,99,0,0,,0,,,72,127
11100,note_on,1,0,0,,2,,,74,127
11199,note_off,99,0,0,,2,,,74,127
11199,note_off,0,0,0,,2,,,50,127
11200,note_on,1,0,0,,6,,,54,127
11200,note_on,0,0,0,,10,,,69,127
11299,note_off,99,0,0,,10,,,69,127
11300,note_on,1,0,0,,0,,,72,127
11399,note_off,99,0,0,,0,,,72,127
11400,note_on,1,0,0,,11,,,70,127
11499,note_off,99,0,0,,11,,,70,127
11500,note_on,1,0,0,,10,,,69,127
11599,note_off,99,0,0,,10,,,69,127
11599,note_off,0,0,0,,6,,,54,127
11600,note_on,1,0,0,,7,,,55,127
11600,note_on,0,0,0,,11,,,70,127
11799,note_off,199,0,0,,11,,,70,127
11800,note_on,1,0,0,,3,,,75,127
11899,note_off,99,0,0,,3,,,75,127
11900,note_on,1,0,0,,2,,,74,127
11999,note_off,99,0,0,,2,,,74,127
12000,note_on,1,0,0,,0,,,72,127
12099,note_off,99,0,0,,0,,,72,127
12100,note_on,1,0,0,,11,,,70,127
12121,note_off,21,0,0,,7,,,55,127
12199,note_off,78,0,0,,11,,,70,127
12200,note_on,1,0,0,,0,,,48,127
12200,note_on,0,0,0,,10,,,69,127
12299,note_off,99,0,0,,10,,,69,127
12300,note_on,1,0,0,,7,,,67,127
12399,note_off,99,0,0,,7,,,67,127
12399,note_off,0,0,0,,0,,,48,127
12400,note_on,1,0,0,,2,,,50,127
12400,note_on,0,0,0,,6,,,66,127
12500,note_on,100,0,0,,2,,,62,127
12598,note_off,98,0,0,,2,,,50,127
12599,note_off,1,0,0,,2,,,62,127
12600,note_on,1,0,0,,0,,,60,127
12699,note_off,99,0,0,,0,,,60,127
12700,note_on,1,0,0,,2,,,62,127
12799,note_off,99,0,0,,2,,,62,127
12799,note_off,0,0,0,,6,,,66,127
12800,note_on,1,0,0,,11,,,58,127
12800,note_on,0,0,0,,7,,,67,127
12899,note_off,99,0,0,,11,,,58,127
12900,note_on,1,0,0,,2,,,62,127
12999,note_off,99,0,0,,2,,,62,127
12999,note_off,0,0,0,,7,,,67,127
13000,note_on,1,0,0,,10,,,57,127
13000,note_on,0,0,0,,6,,,66,127
13099,note_off,99,0,0,,10,,,57,127
13100,note_on,1,0,0,,2,,,62,127
13199,note_off,99,0,0,,2,,,62,127
13199,note_off,0,0,0,,6,,,66,127
13200,note_on,1,0,0,,7,,,55,127
13200,note_on,0,0,0,,7,,,67,127
13299,note_off,99,0,0,,7,,,55,127
13300,note_on,1,0,0,,2,,,62,127
13399,note_off,99,0,0,,2,,,62,127
13399,note_off,0,0,0,,7,,,67,127
13400,note_on,1,0,0,,6,,,54,127
13400,note_on,0,0,0,,10,,,69,127
13499,note_off,99,0,0,,6,,,54,127
13500,note_on,1,0,0,,2,,,62,127
13599,note_off,99,0,0,,2,,,62,127
13599,note_off,0,0,0,,10,,,69,127
13600,note_on,1,0,0,,7,,,55,127
13600,note_on,0,0,0,,11,,,70,127
13699,note_off,99,0,0,,7,,,55,127
13700,note_on,1,0,0,,2,,,62,127
13799,note_off,99,0,0,,2,,,62,127
13799,note_off,0,0,0,,11,,,70,127
13800,note_on,1,0,0,,10,,,57,127
13800,note_on,0,0,0,,0,,,72,127
13899,note_off,99,0,0,,10,,,57,127
13900,note_on,1,0,0,,2,,,62,127
13999,note_off,99,0,0,,2,,,62,127
13999,note_off,0,0,0,,0,,,72,127
14000,note_on,1,0,0,,11,,,58,127
14000,note_on,0,0,0,,2,,,74,127
14099,note_off,99,0,0,,11,,,58,127
14100,note_on,1,0,0,,2,,,62,127
14199,note_off,99,0,0,,2,,,62,127
14199,note_off,0,0,0,,2,,,74,127
14200,note_on,1,0,0,,0,,,60,127
14200,note_on,0,0,0,,3,,,75,127
14299,note_off,99,0,0,,0,,,60,127
14300,note_on,1,0,0,,2,,,62,127
14399,note_off,99,0,0,,2,,,62,127
14399,note_off,0,0,0,,3,,,75,127
14400,note_on,1,0,0,,11,,,58,127
14400,note_on,0,0,0,,2,,,74,127
14499,note_off,99,0,0,,11,,,58,127
14500,note_on,1,0,0,,2,,,62,127
14599,note_off,99,0,0,,2,,,62,127
14599,note_off,0,0,0,,2,,,74,127
14600,note_on,1,0,0,,10,,,57,127
14600,note_on,0,0,0,,0,,,72,127
14699,note_off,99,0,0,,10,,,57,127
14700,note_on,1,0,0,,2,,,62,127
14799,note_off,99,0,0,,2,,,62,127
14799,note_off,0,0,0,,0,,,72,127
14800,note_on,1,0,0,,7,,,55,127
14800,note_on,0,0,0,,11,,,70,127
14899,note_off,99,0,0,,7,,,55,127
14900,note_on,1,0,0,,2,,,62,127
14999,note_off,99,0,0,,2,,,62,127
14999,note_off,0,0,0,,11,,,70,127
15000,note_on,1,0,0,,6,,,54,127
15000,note_on,0,0,0,,10,,,69,127
15099,note_off,99,0,0,,6,,,54,127
15100,note_on,1,0,0,,2,,,62,127
15199,note_off,99,0,0,,2,,,62,127
15200,note_on,1,0,0,,7,,,55,127
15299,note_off,99,0,0,,7,,,55,127
15300,note_off,1,0,0,,10,,,69,127
15300,note_on,0,0,0,,2,,,62,127
15399,note_off,99,0,0,,2,,,62,127
15400,note_on,1,0,0,,6,,,54,127
15400,note_on,0,0,0,,10,,,69,127
15499,note_off,99,0,0,,6,,,54,127
15500,note_on,1,0,0,,2,,,62,127
15599,note_off,99,0,0,,2,,,62,127
15599,note_off,0,0,0,,10,,,69,127
15600,note_on,1,0,0,,7,,,55,127
15600,note_on,0,0,0,,11,,,70,127
15699,note_off,99,0,0,,7,,,55,127
15700,note_on,1,0,0,,2,,,62,127
15799,note_off,99,0,0,,2,,,62,127
15799,note_off,0,0,0,,11,,,70,127
15800,note_on,1,0,0,,6,,,54,127
15800,note_on,0,0,0,,10,,,69,127
15899,note_off,99,0,0,,6,,,54,127
15900,note_on,1,0,0,,2,,,62,127
15999,note_off,99,0,0,,2,,,62,127
16000,note_on,1,0,0,,7,,,55,127
16099,note_off,99,0,0,,7,,,55,127
16100,note_off,1,0,0,,10,,,69,127
16100,note_on,0,0,0,,2,,,62,127
16199,note_off,99,0,0,,2,,,62,127
16200,note_on,1,0,0,,6,,,54,127
16200,note_on,0,0,0,,10,,,69,127
16299,note_off,99,0,0,,6,,,54,127
16300,note_on,1,0,0,,2,,,62,127
16399,note_off,99,0,0,,2,,,62,127
16399,note_off,0,0,0,,10,,,69,127
16400,note_on,1,0,0,,7,,,55,127
16400,note_on,0,0,0,,11,,,70,127
16499,note_off,99,0,0,,7,,,55,127
16500,note_on,1,0,0,,2,,,62,127
16599,note_off,99,0,0,,2,,,62,127
16599,note_off,0,0,0,,11,,,70,127
16600,note_on,1,0,0,,6,,,54,127
16600,note_on,0,0,0,,10,,,69,127
16699,note_off,99,0,0,,6,,,54,127
16700,note_on,1,0,0,,2,,,62,127
16799,note_off,99,0,0,,2,,,62,127
16800,note_on,1,0,0,,7,,,55,127
16899,note_off,99,0,0,,7,,,55,127
16900,note_off,1,0,0,,10,,,69,127
16900,note_on,0,0,0,,2,,,62,127
16999,note_off,99,0,0,,2,,,62,127
17000,note_on,1,0,0,,6,,,54,127
17000,note_on,0,0,0,,10,,,69,127
17099,note_off,99,0,0,,6,,,54,127
17100,note_on,1,0,0,,2,,,62,127
17199,note_off,99,0,0,,2,,,62,127
17199,note_off,0,0,0,,10,,,69,127
17200,note_on,1,0,0,,7,,,55,127
17200,note_on,0,0,0,,11,,,70,127
17299,note_off,99,0,0,,7,,,55,127
17300,note_on,1,0,0,,2,,,62,127
17399,note_off,99,0,0,,2,,,62,127
17400,note_on,1,0,0,,7,,,55,127
17499,note_off,99,0,0,,7,,,55,127
17500,note_on,1,0,0,,2,,,62,127
17599,note_off,99,0,0,,2,,,62,127
17599,note_off,0,0,0,,11,,,70,127
17600,note_on,1,0,0,,3,,,51,127
17600,note_on,0,0,0,,0,,,72,127
17699,note_off,99,0,0,,3,,,51,127
17700,note_on,1,0,0,,0,,,60,127
17799,note_off,99,0,0,,0,,,60,127
17799,note_off,0,0,0,,0,,,72,127
17800,note_on,1,0,0,,3,,,51,127
17800,note_on,0,0,0,,7,,,67,127
17899,note_off,99,0,0,,3,,,51,127
17900,note_on,1,0,0,,0,,,60,127
17999,note_off,99,0,0,,0,,,60,127
17999,note_off,0,0,0,,7,,,67,127
18000,note_on,1,0,0,,2,,,50,127
18000,note_on,0,0,0,,6,,,66,127
18100,note_on,100,0,0,,2,,,62,127
18198,note_off,98,0,0,,2,,,50,127
18199,note_off,1,0,0,,2,,,62,127
18200,note_on,1,0,0,,0,,,60,127
18299,note_off,99,0,0,,0,,,60,127
18300,note_on,1,0,0,,2,,,62,127
18399,note_off,99,0,0,,2,,,62,127
18399,note_off,0,0,0,,6,,,66,127
18400,note_on,1,0,0,,11,,,58,127
18400,note_on,0,0,0,,2,,,74,127
18499,note_off,99,0,0,,11,,,58,127
18500,note_on,1,0,0,,10,,,57,127
18599,note_off,99,0,0,,10,,,57,127
18600,note_on,1,0,0,,7,,,55,127
18699,note_off,99,0,0,,7,,,55,127
18700,note_on,1,0,0,,11,,,58,127
18799,note_off,99,0,0,,11,,,58,127
18800,note_on,1,0,0,,0,,,48,127
18800,note_on,0,0,0,,3,,,75,127
18900,note_on,100,0,0,,0,,,60,127
18998,note_off,98,0,0,,0,,,48,127
18999,note_off,1,0,0,,0,,,60,127
19000,note_on,1,0,0,,11,,,58,127
19099,note_off,99,0,0,,11,,,58,127
19100,note_on,1,0,0,,0,,,60,127
19199,note_off,99,0,0,,0,,,60,127
19199,note_off,0,0,0,,2,,,74,127
19200,note_on,1,0,0,,10,,,57,127
19200,note_on,0,0,0,,0,,,72,127
19299,note_off,99,0,0,,10,,,57,127
19300,note_on,1,0,0,,7,,,55,127
19399,note_off,99,0,0,,7,,,55,127
19400,note_on,1,0,0,,5,,,53,127
19499,note_off,99,0,0,,5,,,53,127
19500,note_on,1,0,0,,10,,,57,127
19599,note_off,99,0,0,,10,,,57,127
19599,note_off,0,0,0,,3,,,75,127
19600,note_on,1,0,0,,11,,,46,127
19600,note_on,0,0,0,,2,,,74,127
19700,note_on,100,0,0,,11,,,58,127
19798,note_off,98,0,0,,11,,,46,127
19799,note_off,1,0,0,,11,,,58,127
19800,note_on,1,0,0,,10,,,57,127
19899,note_off,99,0,0,,10,,,57,127
19900,note_on,1,0,0,,11,,,58,127
19999,note_off,99,0,0,,11,,,58,127
19999,note_off,0,0,0,,0,,,72,127
20000,note_on,1,0,0,,7,,,55,127
20000,note_on,0,0,0,,11,,,70,127
20099,note_off,99,0,0,,7,,,55,127
20100,note_on,1,0,0,,5,,,53,127
20199,note_off,99,0,0,,5,,,53,127
20200,note_on,1,0,0,,3,,,51,127
20299,note_off,99,0,0,,3,,,51,127
20300,note_on,1,0,0,,7,,,55,127
20399,note_off,99,0,0,,7,,,55,127
20399,note_off,0,0,0,,2,,,74,127
20400,note_on,1,0,0,,10,,,45,127
20400,note_on,0,0,0,,0,,,72,127
20500,note_on,100,0,0,,10,,,57,127
20598,note_off,98,0,0,,10,,,45,127
20599,note_off,1,0,0,,10,,,57,127
20600,note_on,1,0,0,,7,,,55,127
20699,note_off,99,0,0,,7,,,55,127
20700,note_on,1,0,0,,10,,,57,127
20799,note_off,99,0,0,,10,,,57,127
20799,note_off,0,0,0,,11,,,70,127
20800,note_on,1,0,0,,6,,,54,127
20800,note_on,0,0,0,,10,,,69,127
20899,note_off,99,0,0,,6,,,54,127
20900,note_on,1,0,0,,4,,,52,127
20999,note_off,99,0,0,,4,,,52,127
21000,note_on,1,0,0,,2,,,50,127
21099,note_off,99,0,0,,2,,,50,127
21100,note_on,1,0,0,,6,,,54,127
21199,note_off,99,0,0,,6,,,54,127
21199,note_off,0,0,0,,0,,,72,127
21200,note_on,1,0,0,,7,,,43,127
21200,note_on,0,0,0,,11,,,70,127
21300,note_on,100,0,0,,7,,,55,127
21398,note_off,98,0,0,,7,,,43,127
21399,note_off,1,0,0,,7,,,55,127
21400,note_on,1,0,0,,6,,,54,127
21499,note_off,99,0,0,,6,,,54,127
21500,note_on,1,0,0,,7,,,55,127
21599,note_off,99,0,0,,7,,,55,127
21599,note_off,0,0,0,,10,,,69,127
21600,note_on,1,0,0,,4,,,52,127
21600,note_on,0,0,0,,7,,,67,127
21699,note_off,99,0,0,,4,,,52,127
21700,note_on,1,0,0,,2,,,50,127
21799,note_off,99,0,0,,2,,,50,127
21800,note_on,1,0,0,,0,,,48,127
21899,note_off,99,0,0,,0,,,48,127
21900,note_on,1,0,0,,4,,,52,127
21999,note_off,99,0,0,,4,,,52,127
21999,note_off,0,0,0,,11,,,70,127
22000,note_on,1,0,0,,5,,,41,127
22000,note_on,0,0,0,,10,,,69,127
22100,note_on,100,0,0,,5,,,53,127
22177,note_off,77,0,0,,5,,,41,127
22199,note_off,22,0,0,,5,,,53,127
22200,note_on,1,0,0,,4,,,52,127
22299,note_off,99,0,0,,4,,,52,127
22300,note_on,1,0,0,,5,,,53,127
22399,note_off,99,0,0,,5,,,53,127
22399,note_off,0,0,0,,7,,,67,127
22400,note_on,1,0,0,,2,,,50,127
22400,note_on,0,0,0,,5,,,65,127
22499,note_off,99,0,0,,2,,,50,127
22500,note_on,1,0,0,,0,,,48,127
22599,note_off,99,0,0,,0,,,48,127
22600,note_on,1,0,0,,11,,,46,127
22699,note_off,99,0,0,,11,,,46,127
22700,note_on,1,0,0,,2,,,50,127
22799,note_off,99,0,0,,2,,,50,127
22799,note_off,0,0,0,,10,,,69,127
22800,note_on,1,0,0,,4,,,40,127
22800,note_on,0,0,0,,7,,,67,127
22900,note_on,100,0,0,,4,,,52,127
22950,note_off,50,0,0,,4,,,40,127
22999,note_off,49,0,0,,4,,,52,127
23000,note_on,1,0,0,,2,,,50,127
23099,note_off,99,0,0,,2,,,50,127
23100,note_on,1,0,0,,4,,,52,127
23199,note_off,99,0,0,,4,,,52,127
23199,note_off,0,0,0,,5,,,65,127
23200,note_on,1,0,0,,1,,,49,127
23200,note_on,0,0,0,,4,,,64,127
23299,note_off,99,0,0,,1,,,49,127
23300,note_on,1,0,0,,12,,,47,127
23399,note_off,99,0,0,,12,,,47,127
23400,note_on,1,0,0,,10,,,45,127
23499,note_off,99,0,0,,10,,,45,127
23500,note_on,1,0,0,,1,,,49,127
23599,note_off,99,0,0,,1,,,49,127
23599,note_off,0,0,0,,4,,,64,127
23599,note_off,0,0,0,,7,,,67,127
23600,note_on,1,0,0,,2,,,50,127
23600,note_on,0,0,0,,5,,,65,127
23700,note_on,100,0,0,,7,,,67,127
23750,note_off,50,0,0,,5,,,65,127
23799,note_off,49,0,0,,7,,,67,127
23800,note_on,1,0,0,,5,,,65,127
23899,note_off,99,0,0,,5,,,65,127
23900,note_on,1,0,0,,2,,,62,127
23999,note_off,99,0,0,,2,,,62,127
23999,note_off,0,0,0,,2,,,50,127
24000,note_on,1,0,0,,4,,,52,127
24000,note_on,0,0,0,,7,,,67,127
24100,note_on,100,0,0,,10,,,69,127
24150,note_off,50,0,0,,7,,,67,127
24199,note_off,49,0,0,,10,,,69,127
24200,note_on,1,0,0,,7,,,67,127
24299,note_off,99,0,0,,7,,,67,127
24300,note_on,1,0,0,,2,,,62,127
24399,note_off,99,0,0,,2,,,62,127
24399,note_off,0,0,0,,4,,,52,127
24400,note_on,1,0,0,,5,,,53,127
24400,note_on,0,0,0,,10,,,69,127
24500,note_on,100,0,0,,11,,,70,127
24550,note_off,50,0,0,,10,,,69,127
24599,note_off,49,0,0,,11,,,70,127
24600,note_on,1,0,0,,10,,,69,127
24699,note_off,99,0,0,,10,,,69,127
24700,note_on,1,0,0,,2,,,62,127
24799,note_off,99,0,0,,2,,,62,127
24799,note_off,0,0,0,,5,,,53,127
24800,note_on,1,0,0,,7,,,55,127
24800,note_on,0,0,0,,12,,,71,127
24900,note_on,100,0,0,,0,,,72,127
24950,note_off,50,0,0,,12,,,71,127
24999,note_off,49,0,0,,0,,,72,127
25000,note_on,1,0,0,,12,,,71,127
25099,note_off,99,0,0,,12,,,71,127
25100,note_on,1,0,0,,2,,,62,127
25199,note_off,99,0,0,,2,,,62,127
25199,note_off,0,0,0,,7,,,55,127
25200,note_on,1,0,0,,10,,,57,127
25200,note_on,0,0,0,,1,,,73,127
25399,note_off,199,0,0,,1,,,73,127
25400,note_on,1,0,0,,12,,,71,127
25499,note_off,99,0,0,,12,,,71,127
25500,note_on,1,0,0,,1,,,73,127
25599,note_off,99,0,0,,1,,,73,127
25600,note_on,1,0,0,,10,,,69,127
25799,note_off,199,0,0,,10,,,69,127
25800,note_on,1,0,0,,12,,,71,127
25899,note_off,99,0,0,,12,,,71,127
25900,note_on,1,0,0,,1,,,73,127
25999,note_off,99,0,0,,1,,,73,127
25999,note_off,0,0,0,,10,,,57,127
26000,note_on,1,0,0,,5,,,53,127
26000,note_on,0,0,0,,2,,,74,127
26100,note_on,100,0,0,,4,,,76,127
26150,note_off,50,0,0,,2,,,74,127
26199,note_off,49,0,0,,4,,,76,127
26200,note_on,1,0,0,,2,,,74,127
26299,note_off,99,0,0,,2,,,74,127
26300,note_on,1,0,0,,10,,,69,127
26399,note_off,99,0,0,,10,,,69,127
26399,note_off,0,0,0,,5,,,53,127
26400,note_on,1,0,0,,1,,,49,127
26400,note_on,0,0,0,,4,,,76,127
26500,note_on,100,0,0,,5,,,77,127
26550,note_off,50,0,0,,4,,,76,127
26599,note_off,49,0,0,,5,,,77,127
26600,note_on,1,0,0,,4,,,76,127
26699,note_off,99,0,0,,4,,,76,127
26700,note_on,1,0,0,,10,,,69,127
26799,note_off,99,0,0,,10,,,69,127
26799,note_off,0,0,0,,1,,,49,127
26800,note_on,1,0,0,,2,,,50,127
26800,note_on,0,0,0,,5,,,77,127
26900,note_on,100,0,0,,7,,,79,127
26950,note_off,50,0,0,,5,,,77,127
26999,note_off,49,0,0,,7,,,79,127
27000,note_on,1,0,0,,5,,,77,127
27099,note_off,99,0,0,,5,,,77,127
27100,note_on,1,0,0,,10,,,69,127
27199,note_off,99,0,0,,10,,,69,127
27199,note_off,0,0,0,,2,,,50,127
27200,note_on,1,0,0,,4,,,52,127
27200,note_on,0,0,0,,7,,,79,127
27300,note_on,100,0,0,,10,,,81,127
27350,note_off,50,0,0,,7,,,79,127
27399,note_off,49,0,0,,10,,,81,127
27400,note_on,1,0,0,,7,,,79,127
27499,note_off,99,0,0,,7,,,79,127
27500,note_on,1,0,0,,10,,,69,127
27599,note_off,99,0,0,,10,,,69,127
27599,note_off,0,0,0,,4,,,52,127
27600,note_on,1,0,0,,5,,,53,127
27600,note_on,0,0,0,,10,,,81,127
27799,note_off,199,0,0,,10,,,81,127
27800,note_on,1,0,0,,11,,,82,127
27899,note_off,99,0,0,,11,,,82,127
27900,note_on,1,0,0,,10,,,81,127
27999,note_off,99,0,0,,10,,,81,127
28000,note_on,1,0,0,,7,,,79,127
28099,note_off,99,0,0,,7,,,79,127
28100,note_on,1,0,0,,5,,,77,127
28199,note_off,99,0,0,,5,,,77,127
28199,note_off,0,0,0,,5,,,53,127
28200,note_on,1,0,0,,7,,,55,127
28200,note_on,0,0,0,,4,,,76,127
28299,note_off,99,0,0,,4,,,76,127
28300,note_on,1,0,0,,2,,,74,127
28399,note_off,99,0,0,,2,,,74,127
28399,note_off,0,0,0,,7,,,55,127
28400,note_on,1,0,0,,10,,,57,127
28400,note_on,0,0,0,,1,,,73,127
28599,note_off,199,0,0,,1,,,73,127
28599,note_off,0,0,0,,10,,,57,127
28600,note_on,1,0,0,,7,,,55,127
28600,note_on,0,0,0,,12,,,71,127
28699,note_off,99,0,0,,12,,,71,127
28700,note_on,1,0,0,,10,,,69,127
28799,note_off,99,0,0,,10,,,69,127
28799,note_off,0,0,0,,7,,,55,127
28800,note_on,1,0,0,,5,,,53,127
28800,note_on,0,0,0,,2,,,74,127
28999,note_off,199,0,0,,2,,,74,127
28999,note_off,0,0,0,,5,,,53,127
29000,note_on,1,0,0,,7,,,55,127
29000,note_on,0,0,0,,7,,,67,127
29199,note_off,199,0,0,,7,,,67,127
29199,note_off,0,0,0,,7,,,55,127
29200,note_on,1,0,0,,10,,,57,127
29200,note_on,0,0,0,,5,,,65,127
29300,note_on,100,0,0,,10,,,69,127
29398,note_off,98,0,0,,5,,,65,127
29399,note_off,1,0,0,,10,,,69,127
29400,note_on,1,0,0,,2,,,74,127
29500,note_on,100,0,0,,10,,,69,127
29599,note_off,99,0,0,,10,,,69,127
29599,note_off,0,0,0,,10,,,57,127
29600,note_on,1,0,0,,10,,,45,127
29600,note_on,0,0,0,,5,,,65,127
29698,note_off,98,0,0,,2,,,74,127
29700,note_on,2,0,0,,2,,,74,127
29798,note_off,98,0,0,,5,,,65,127
29800,note_on,2,0,0,,4,,,64,127
29898,note_off,98,0,0,,2,,,74,127
29900,note_on,2,0,0,,1,,,73,127
29998,note_off,98,0,0,,4,,,64,127
29999,note_off,1,0,0,,1,,,73,127
29999,note_off,0,0,0,,10,,,45,127
30000,note_on,1,0,0,,2,,,50,127
30000,note_on,0,0,0,,2,,,62,127
30200,note_on,200,0,0,,2,,,38,127
30396,note_off,196,0,0,,2,,,50,127
30499,note_off,103,0,0,,2,,,62,127
30500,note_on,1,0,0,,10,,,69,127
30596,note_off,96,0,0,,2,,,38,127
30599,note_off,3,0,0,,10,,,69,127
30600,note_on,1,0,0,,7,,,67,127
30699,note_off,99,0,0,,7,,,67,127
30700,note_on,1,0,0,,10,,,69,127
30799,note_off,99,0,0,,10,,,69,127
30800,note_on,1,0,0,,2,,,38,127
30800,note_on,0,0,0,,2,,,50,127
30800,note_on,0,0,0,,5,,,65,127
30999,note_off,199,0,0,,5,,,65,127
31000,note_on,1,0,0,,7,,,67,127
31099,note_off,99,0,0,,7,,,67,127
31100,note_on,1,0,0,,10,,,69,127
31199,note_off,99,0,0,,10,,,69,127
31200,note_on,1,0,0,,2,,,62,127
31299,note_off,99,0,0,,2,,,62,127
31300,note_on,1,0,0,,10,,,69,127
31399,note_off,99,0,0,,10,,,69,127
31400,note_on,1,0,0,,12,,,71,127
31499,note_off,99,0,0,,12,,,71,127
31500,note_on,1,0,0,,1,,,73,127
31599,note_off,99,0,0,,1,,,73,127
31599,note_off,0,0,0,,2,,,50,127
31599,note_off,0,0,0,,2,,,38,127
31600,note_on,1,0,0,,2,,,50,127
31600,note_on,0,0,0,,2,,,74,127
31699,note_off,99,0,0,,2,,,74,127
31700,note_on,1,0,0,,1,,,73,127
31799,note_off,99,0,0,,1,,,73,127
31799,note_off,0,0,0,,2,,,50,127
31800,note_on,1,0,0,,4,,,52,127
31800,note_on,0,0,0,,2,,,74,127
31899,note_off,99,0,0,,2,,,74,127
31900,note_on,1,0,0,,4,,,76,127
31999,note_off,99,0,0,,4,,,76,127
31999,note_off,0,0,0,,4,,,52,127
32000,note_on,1,0,0,,5,,,53,127
32000,note_on,0,0,0,,2,,,74,127
32099,note_off,99,0,0,,2,,,74,127
32100,note_on,1,0,0,,5,,,77,127
32199,note_off,99,0,0,,5,,,77,127
32199,note_off,0,0,0,,5,,,53,127
32200,note_on,1,0,0,,7,,,55,127
32200,note_on,0,0,0,,4,,,76,127
32299,note_off,99,0,0,,4,,,76,127
32300,note_on,1,0,0,,2,,,74,127
32399,note_off,99,0,0,,2,,,74,127
32399,note_off,0,0,0,,7,,,55,127
32400,note_on,1,0,0,,10,,,45,127
32400,note_on,0,0,0,,1,,,73,127
32500,note_on,100,0,0,,10,,,57,127
32598,note_off,98,0,0,,10,,,45,127
32599,note_off,1,0,0,,10,,,57,127
32599,note_off,0,0,0,,1,,,73,127
32600,note_on,1,0,0,,7,,,55,127
32699,note_off,99,0,0,,7,,,55,127
32700,note_on,1,0,0,,10,,,57,127
32799,note_off,99,0,0,,10,,,57,127
32800,note_on,1,0,0,,5,,,53,127
32899,note_off,99,0,0,,5,,,53,127
32900,note_on,1,0,0,,7,,,55,127
32999,note_off,99,0,0,,7,,,55,127
33000,note_on,1,0,0,,10,,,57,127
33099,note_off,99,0,0,,10,,,57,127
33100,note_on,1,0,0,,5,,,53,127
33199,note_off,99,0,0,,5,,,53,127
33200,note_on,1,0,0,,2,,,50,127
33300,note_on,100,0,0,,10,,,69,127
33399,note_off,99,0,0,,10,,,69,127
33400,note_on,1,0,0,,7,,,67,127
33499,note_off,99,0,0,,7,,,67,127
33500,note_on,1,0,0,,10,,,69,127
33599,note_off,99,0,0,,10,,,69,127
33600,note_on,1,0,0,,5,,,65,127
33699,note_off,99,0,0,,5,,,65,127
33700,note_on,1,0,0,,7,,,67,127
33799,note_off,99,0,0,,7,,,67,127
33800,note_on,1,0,0,,10,,,69,127
33899,note_off,99,0,0,,10,,,69,127
33900,note_on,1,0,0,,5,,,65,127
33999,note_off,99,0,0,,5,,,65,127
33999,note_off,0,0,0,,2,,,50,127
34000,note_on,1,0,0,,2,,,50,127
34000,note_on,0,0,0,,2,,,62,127
34100,note_on,100,0,0,,2,,,74,127
34198,note_off,98,0,0,,2,,,62,127
34199,note_off,1,0,0,,2,,,74,127
34200,note_on,1,0,0,,0,,,72,127
34299,note_off,99,0,0,,0,,,72,127
34300,note_on,1,0,0,,2,,,74,127
34399,note_off,99,0,0,,2,,,74,127
34399,note_off,0,0,0,,2,,,50,127
34400,note_on,1,0,0,,5,,,53,127
34400,note_on,0,0,0,,10,,,69,127
34499,note_off,99,0,0,,10,,,69,127
34500,note_on,1,0,0,,0,,,72,127
34599,note_off,99,0,0,,0,,,72,127
34600,note_on,1,0,0,,11,,,70,127
34699,note_off,99,0,0,,11,,,70,127
34700,note_on,1,0,0,,10,,,69,127
34799,note_off,99,0,0,,10,,,69,127
34799,note_off,0,0,0,,5,,,53,127
34800,note_on,1,0,0,,7,,,43,127
34800,note_on,0,0,0,,11,,,70,127
34900,note_on,100,0,0,,7,,,55,127
34998,note_off,98,0,0,,7,,,43,127
34999,note_off,1,0,0,,7,,,55,127
35000,note_on,1,0,0,,5,,,53,127
35099,note_off,99,0,0,,5,,,53,127
35100,note_on,1,0,0,,7,,,55,127
35199,note_off,99,0,0,,7,,,55,127
35200,note_on,1,0,0,,4,,,52,127
35299,note_off,99,0,0,,4,,,52,127
35300,note_on,1,0,0,,5,,,53,127
35399,note_off,99,0,0,,5,,,53,127
35400,note_on,1,0,0,,7,,,55,127
35499,note_off,99,0,0,,7,,,55,127
35500,note_on,1,0,0,,4,,,52,127
35599,note_off,99,0,0,,4,,,52,127
35599,note_off,0,0,0,,11,,,70,127
35600,note_on,1,0,0,,0,,,48,127
35700,note_on,100,0,0,,7,,,67,127
35799,note_off,99,0,0,,7,,,67,127
35800,note_on,1,0,0,,5,,,65,127
35899,note_off,99,0,0,,5,,,65,127
35900,note_on,1,0,0,,7,,,67,127
35999,note_off,99,0,0,,7,,,67,127
36000,note_on,1,0,0,,4,,,64,127
36099,note_off,99,0,0,,4,,,64,127
36100,note_on,1,0,0,,5,,,65,127
36199,note_off,99,0,0,,5,,,65,127
36200,note_on,1,0,0,,7,,,67,127
36299,note_off,99,0,0,,7,,,67,127
36300,note_on,1,0,0,,4,,,64,127
36399,note_off,99,0,0,,4,,,64,127
36399,note_off,0,0,0,,0,,,48,127
36400,note_on,1,0,0,,0,,,48,127
36400,note_on,0,0,0,,0,,,60,127
36500,note_on,100,0,0,,0,,,72,127
36598,note_off,98,0,0,,0,,,60,127
36599,note_off,1,0,0,,0,,,72,127
36600,note_on,1,0,0,,11,,,70,127
36699,note_off,99,0,0,,11,,,70,127
36700,note_on,1,0,0,,0,,,72,127
36799,note_off,99,0,0,,0,,,72,127
36799,note_off,0,0,0,,0,,,48,127
36800,note_on,1,0,0,,4,,,52,127
36800,note_on,0,0,0,,7,,,67,127
36899,note_off,99,0,0,,7,,,67,127
36900,note_on,1,0,0,,11,,,70,127
36999,note_off,99,0,0,,11,,,70,127
37000,note_on,1,0,0,,10,,,69,127
37099,note_off,99,0,0,,10,,,69,127
37100,note_on,1,0,0,,7,,,67,127
37199,note_off,99,0,0,,7,,,67,127
37199,note_off,0,0,0,,4,,,52,127
37200,note_on,1,0,0,,5,,,53,127
37200,note_on,0,0,0,,10,,,69,127
37300,note_on,100,0,0,,5,,,77,127
37398,note_off,98,0,0,,10,,,69,127
37399,note_off,1,0,0,,5,,,77,127
37400,note_on,1,0,0,,3,,,75,127
37499,note_off,99,0,0,,3,,,75,127
37500,note_on,1,0,0,,5,,,77,127
37599,note_off,99,0,0,,5,,,77,127
37599,note_off,0,0,0,,5,,,53,127
37600,note_on,1,0,0,,10,,,57,127
37600,note_on,0,0,0,,0,,,72,127
37699,note_off,99,0,0,,0,,,72,127
37700,note_on,1,0,0,,3,,,75,127
37799,note_off,99,0,0,,3,,,75,127
37800,note_on,1,0,0,,2,,,74,127
37899,note_off,99,0,0,,2,,,74,127
37900,note_on,1,0,0,,0,,,72,127
37999,note_off,99,0,0,,0,,,72,127
37999,note_off,0,0,0,,10,,,57,127
38000,note_on,1,0,0,,11,,,46,127
38000,note_on,0,0,0,,2,,,74,127
38199,note_off,199,0,0,,2,,,74,127
38200,note_on,1,0,0,,0,,,72,127
38299,note_off,99,0,0,,0,,,72,127
38300,note_on,1,0,0,,2,,,74,127
38399,note_off,99,0,0,,2,,,74,127
38400,note_on,1,0,0,,11,,,70,127
38599,note_off,199,0,0,,11,,,46,127
38600,note_on,1,0,0,,0,,,48,127
38700,note_off,100,0,0,,11,,,70,127
38799,note_off,99,0,0,,0,,,48,127
38800,note_on,1,0,0,,2,,,50,127
38800,note_on,0,0,0,,5,,,77,127
38900,note_on,100,0,0,,11,,,70,127
38998,note_off,98,0,0,,5,,,77,127
38999,note_off,1,0,0,,11,,,70,127
39000,note_on,1,0,0,,10,,,69,127
39099,note_off,99,0,0,,10,,,69,127
39100,note_on,1,0,0,,11,,,70,127
39199,note_off,99,0,0,,11,,,70,127
39200,note_on,1,0,0,,5,,,77,127
39294,note_off,94,0,0,,5,,,77,127
39300,note_on,6,0,0,,11,,,70,127
39399,note_off,99,0,0,,11,,,70,127
39400,note_on,1,0,0,,10,,,69,127
39499,note_off,99,0,0,,10,,,69,127
39500,note_on,1,0,0,,11,,,70,127
39599,note_off,99,0,0,,11,,,70,127
39599,note_off,0,0,0,,2,,,50,127
39600,note_on,1,0,0,,3,,,51,127
39600,note_on,0,0,0,,7,,,79,127
39700,note_on,100,0,0,,11,,,70,127
39798,note_off,98,0,0,,7,,,79,127
39799,note_off,1,0,0,,11,,,70,127
39800,note_on,1,0,0,,10,,,69,127
39899,note_off,99,0,0,,10,,,69,127
39900,note_on,1,0,0,,11,,,70,127
39999,note_off,99,0,0,,11,,,70,127
39999,note_off,0,0,0,,3,,,51,127
40000,note_on,1,0,0,,2,,,50,127
40000,note_on,0,0,0,,5,,,77,127
40100,note_on,100,0,0,,11,,,70,127
40198,note_off,98,0,0,,5,,,77,127
40199,note_off,1,0,0,,11,,,70,127
40200,note_on,1,0,0,,10,,,69,127
40299,note_off,99,0,0,,10,,,69,127
40300,note_on,1,0,0,,11,,,70,127
40399,note_off,99,0,0,,11,,,70,127
40399,note_off,0,0,0,,2,,,50,127
40400,note_on,1,0,0,,3,,,51,127
40400,note_on,0,0,0,,7,,,79,127
40500,note_on,100,0,0,,3,,,63,127
40598,note_off,98,0,0,,3,,,51,127
40599,note_off,1,0,0,,3,,,63,127
40600,note_on,1,0,0,,2,,,62,127
40699,note_off,99,0,0,,2,,,62,127
40700,note_on,1,0,0,,0,,,60,127
40799,note_off,99,0,0,,0,,,60,127
40800,note_on,1,0,0,,11,,,58,127
40899,note_off,99,0,0,,11,,,58,127
40900,note_on,1,0,0,,10,,,57,127
40999,note_off,99,0,0,,10,,,57,127
40999,note_off,0,0,0,,7,,,79,127
41000,note_on,1,0,0,,7,,,55,127
41099,note_off,99,0,0,,7,,,55,127
41100,note_on,1,0,0,,5,,,53,127
41199,note_off,99,0,0,,5,,,53,127
41200,note_on,1,0,0,,4,,,52,127
41200,note_on,0,0,0,,7,,,79,127
41300,note_on,100,0,0,,0,,,72,127
41398,note_off,98,0,0,,7,,,79,127
41399,note_off,1,0,0,,0,,,72,127
41400,note_on,1,0,0,,12,,,71,127
41499,note_off,99,0,0,,12,,,71,127
41500,note_on,1,0,0,,0,,,72,127
41599,note_off,99,0,0,,0,,,72,127
41600,note_on,1,0,0,,7,,,79,127
41699,note_off,99,0,0,,7,,,79,127
41700,note_on,1,0,0,,0,,,72,127
41799,note_off,99,0,0,,0,,,72,127
41800,note_on,1,0,0,,12,,,71,127
41899,note_off,99,0,0,,12,,,71,127
41900,note_on,1,0,0,,0,,,72,127
41999,note_off,99,0,0,,0,,,72,127
41999,note_off,0,0,0,,4,,,52,127
42000,note_on,1,0,0,,5,,,53,127
42000,note_on,0,0,0,,10,,,81,127
42100,note_on,100,0,0,,0,,,72,127
42198,note_off,98,0,0,,10,,,81,127
42199,note_off,1,0,0,,0,,,72,127
42200,note_on,1,0,0,,12,,,71,127
42299,note_off,99,0,0,,12,,,71,127
42300,note_on,1,0,0,,0,,,72,127
42399,note_off,99,0,0,,0,,,72,127
42399,note_off,0,0,0,,5,,,53,127
42400,note_on,1,0,0,,4,,,52,127
42400,note_on,0,0,0,,7,,,79,127
42500,note_on,100,0,0,,0,,,72,127
42598,note_off,98,0,0,,7,,,79,127
42599,note_off,1,0,0,,0,,,72,127
42600,note_on,1,0,0,,12,,,71,127
42699,note_off,99,0,0,,12,,,71,127
42700,note_on,1,0,0,,0,,,72,127
42799,note_off,99,0,0,,0,,,72,127
42799,note_off,0,0,0,,4,,,52,127
42800,note_on,1,0,0,,5,,,53,127
42800,note_on,0,0,0,,10,,,81,127
42900,note_on,100,0,0,,5,,,65,127
42998,note_off,98,0,0,,5,,,53,127
42999,note_off,1,0,0,,5,,,65,127
43000,note_on,1,0,0,,4,,,64,127
43099,note_off,99,0,0,,4,,,64,127
43100,note_on,1,0,0,,2,,,62,127
43199,note_off,99,0,0,,2,,,62,127
43200,note_on,1,0,0,,0,,,60,127
43299,note_off,99,0,0,,0,,,60,127
43300,note_on,1,0,0,,11,,,58,127
43399,note_off,99,0,0,,11,,,58,127
43399,note_off,0,0,0,,10,,,81,127
43400,note_on,1,0,0,,10,,,57,127
43499,note_off,99,0,0,,10,,,57,127
43500,note_on,1,0,0,,7,,,55,127
43599,note_off,99,0,0,,7,,,55,127
43600,note_on,1,0,0,,6,,,54,127
43600,note_on,0,0,0,,10,,,81,127
43700,note_on,100,0,0,,2,,,74,127
43798,note_off,98,0,0,,10,,,81,127
43799,note_off,1,0,0,,2,,,74,127
43800,note_on,1,0,0,,1,,,73,127
43899,note_off,99,0,0,,1,,,73,127
43900,note_on,1,0,0,,2,,,74,127
43999,note_off,99,0,0,,2,,,74,127
44000,note_on,1,0,0,,10,,,81,127
44099,note_off,99,0,0,,10,,,81,127
44100,note_on,1,0,0,,2,,,74,127
44199,note_off,99,0,0,,2,,,74,127
44200,note_on,1,0,0,,1,,,73,127
44299,note_off,99,0,0,,1,,,73,127
44300,note_on,1,0,0,,2,,,74,127
44399,note_off,99,0,0,,2,,,74,127
44399,note_off,0,0,0,,6,,,54,127
44400,note_on,1,0,0,,7,,,55,127
44400,note_on,0,0,0,,11,,,82,127
44500,note_on,100,0,0,,2,,,74,127
44598,note_off,98,0,0,,11,,,82,127
44599,note_off,1,0,0,,2,,,74,127
44600,note_on,1,0,0,,1,,,73,127
44699,note_off,99,0,0,,1,,,73,127
44700,note_on,1,0,0,,2,,,74,127
44799,note_off,99,0,0,,2,,,74,127
44799,note_off,0,0,0,,7,,,55,127
44800,note_on,1,0,0,,6,,,54,127
44800,note_on,0,0,0,,10,,,81,127
44900,note_on,100,0,0,,2,,,74,127
44998,note_off,98,0,0,,10,,,81,127
44999,note_off,1,0,0,,2,,,74,127
45000,note_on,1,0,0,,1,,,73,127
45099,note_off,99,0,0,,1,,,73,127
45100,note_on,1,0,0,,2,,,74,127
45199,note_off,99,0,0,,2,,,74,127
45199,note_off,0,0,0,,6,,,54,127
45200,note_on,1,0,0,,7,,,55,127
45200,note_on,0,0,0,,11,,,82,127
45399,note_off,199,0,0,,7,,,55,127
45400,note_on,1,0,0,,11,,,58,127
45499,note_off,99,0,0,,11,,,58,127
45500,note_on,1,0,0,,10,,,57,127
45599,note_off,99,0,0,,10,,,57,127
45600,note_on,1,0,0,,7,,,55,127
45699,note_off,99,0,0,,7,,,55,127
45700,note_on,1,0,0,,5,,,53,127
45799,note_off,99,0,0,,5,,,53,127
45799,note_off,0,0,0,,11,,,82,127
45800,note_on,1,0,0,,3,,,51,127
45899,note_off,99,0,0,,3,,,51,127
45900,note_on,1,0,0,,2,,,50,127
45999,note_off,99,0,0,,2,,,50,127
46000,note_on,1,0,0,,0,,,48,127
46000,note_on,0,0,0,,3,,,75,127
46100,note_on,100,0,0,,7,,,79,127
46198,note_off,98,0,0,,3,,,75,127
46199,note_off,1,0,0,,7,,,79,127
46200,note_on,1,0,0,,5,,,77,127
46299,note_off,99,0,0,,5,,,77,127
46300,note_on,1,0,0,,3,,,75,127
46395,note_off,95,0,0,,0,,,48,127
46399,note_off,4,0,0,,3,,,75,127
46400,note_on,1,0,0,,5,,,53,127
46400,note_on,0,0,0,,10,,,69,127
46499,note_off,99,0,0,,5,,,53,127
46500,note_on,1,0,0,,10,,,57,127
46599,note_off,99,0,0,,10,,,57,127
46600,note_on,1,0,0,,7,,,55,127
46699,note_off,99,0,0,,7,,,55,127
46700,note_on,1,0,0,,5,,,53,127
46799,note_off,99,0,0,,5,,,53,127
46799,note_off,0,0,0,,10,,,69,127
46800,note_on,1,0,0,,11,,,46,127
46800,note_on,0,0,0,,2,,,74,127
46900,note_on,100,0,0,,5,,,77,127
46998,note_off,98,0,0,,2,,,74,127
46999,note_off,1,0,0,,5,,,77,127
47000,note_on,1,0,0,,3,,,75,127
47099,note_off,99,0,0,,3,,,75,127
47100,note_on,1,0,0,,2,,,74,127
47195,note_off,95,0,0,,11,,,46,127
47199,note_off,4,0,0,,2,,,74,127
47200,note_on,1,0,0,,3,,,51,127
47200,note_on,0,0,0,,7,,,67,127
47299,note_off,99,0,0,,3,,,51,127
47300,note_on,1,0,0,,7,,,55,127
47399,note_off,99,0,0,,7,,,55,127
47400,note_on,1,0,0,,5,,,53,127
47499,note_off,99,0,0,,5,,,53,127
47500,note_on,1,0,0,,3,,,51,127
47599,note_off,99,0,0,,3,,,51,127
47599,note_off,0,0,0,,7,,,67,127
47600,note_on,1,0,0,,10,,,45,127
47600,note_on,0,0,0,,0,,,72,127
47700,note_on,100,0,0,,3,,,75,127
47798,note_off,98,0,0,,0,,,72,127
47799,note_off,1,0,0,,3,,,75,127
47800,note_on,1,0,0,,2,,,74,127
47899,note_off,99,0,0,,2,,,74,127
47900,note_on,1,0,0,,0,,,72,127
47995,note_off,95,0,0,,10,,,45,127
47999,note_off,4,0,0,,0,,,72,127
48000,note_on,1,0,0,,2,,,50,127
48000,note_on,0,0,0,,5,,,65,127
48099,note_off,99,0,0,,2,,,50,127
48100,note_on,1,0,0,,5,,,53,127
48199,note_off,99,0,0,,5,,,53,127
48200,note_on,1,0,0,,3,,,51,127
48299,note_off,99,0,0,,3,,,51,127
48300,note_on,1,0,0,,2,,,50,127
48399,note_off,99,0,0,,2,,,50,127
48399,note_off,0,0,0,,5,,,65,127
48400,note_on,1,0,0,,7,,,43,127
48400,note_on,0,0,0,,11,,,70,127
48500,note_on,100,0,0,,2,,,74,127
48598,note_off,98,0,0,,11,,,70,127
48599,note_off,1,0,0,,2,,,74,127
48600,note_on,1,0,0,,0,,,72,127
48699,note_off,99,0,0,,0,,,72,127
48700,note_on,1,0,0,,11,,,70,127
48795,note_off,95,0,0,,7,,,43,127
48799,note_off,4,0,0,,11,,,70,127
48800,note_on,1,0,0,,0,,,48,127
48800,note_on,0,0,0,,3,,,63,127
48899,note_off,99,0,0,,0,,,48,127
48900,note_on,1,0,0,,3,,,51,127
48999,note_off,99,0,0,,3,,,51,127
49000,note_on,1,0,0,,2,,,50,127
49099,note_off,99,0,0,,2,,,50,127
49100,note_on,1,0,0,,0,,,48,127
49199,note_off,99,0,0,,0,,,48,127
49199,note_off,0,0,0,,3,,,63,127
49200,note_on,1,0,0,,5,,,41,127
49200,note_on,0,0,0,,10,,,69,127
49300,note_on,100,0,0,,0,,,72,127
49398,note_off,98,0,0,,10,,,69,127
49399,note_off,1,0,0,,0,,,72,127
49400,note_on,1,0,0,,11,,,70,127
49499,note_off,99,0,0,,11,,,70,127
49500,note_on,1,0,0,,10,,,69,127
49595,note_off,95,0,0,,5,,,41,127
49599,note_off,4,0,0,,10,,,69,127
49600,note_on,1,0,0,,11,,,46,127
49600,note_on,0,0,0,,2,,,74,127
49700,note_on,100,0,0,,5,,,77,127
49798,note_off,98,0,0,,2,,,74,127
49799,note_off,1,0,0,,5,,,77,127
49800,note_on,1,0,0,,3,,,75,127
49899,note_off,99,0,0,,3,,,75,127
49900,note_on,1,0,0,,2,,,74,127
49999,note_off,99,0,0,,2,,,74,127
49999,note_off,0,0,0,,11,,,46,127
50000,note_on,1,0,0,,3,,,51,127
50000,note_on,0,0,0,,7,,,79,127
50100,note_on,100,0,0,,11,,,82,127
50198,note_off,98,0,0,,7,,,79,127
50199,note_off,1,0,0,,11,,,82,127
50200,note_on,1,0,0,,10,,,81,127
50299,note_off,99,0,0,,10,,,81,127
50300,note_on,1,0,0,,7,,,79,127
50399,note_off,99,0,0,,7,,,79,127
50399,note_off,0,0,0,,3,,,51,127
50400,note_on,1,0,0,,5,,,53,127
50400,note_on,0,0,0,,10,,,81,127
50500,note_on,100,0,0,,0,,,84,127
50598,note_off,98,0,0,,10,,,81,127
50599,note_off,1,0,0,,0,,,84,127
50600,note_on,1,0,0,,11,,,82,127
50699,note_off,99,0,0,,11,,,82,127
50700,note_on,1,0,0,,10,,,81,127
50799,note_off,99,0,0,,10,,,81,127
50799,note_off,0,0,0,,5,,,53,127
50800,note_on,1,0,0,,7,,,55,127
50800,note_on,0,0,0,,11,,,82,127
50999,note_off,199,0,0,,11,,,82,127
51000,note_on,1,0,0,,10,,,81,127
51099,note_off,99,0,0,,10,,,81,127
51100,note_on,1,0,0,,7,,,79,127
51199,note_off,99,0,0,,7,,,79,127
51200,note_on,1,0,0,,5,,,77,127
51399,note_off,199,0,0,,5,,,77,127
51399,note_off,0,0,0,,7,,,55,127
51400,note_on,1,0,0,,10,,,57,127
51400,note_on,0,0,0,,3,,,75,127
51599,note_off,199,0,0,,3,,,75,127
51599,note_off,0,0,0,,10,,,57,127
51600,note_on,1,0,0,,11,,,58,127
51600,note_on,0,0,0,,2,,,74,127
51700,note_on,100,0,0,,11,,,82,127
51750,note_off,50,0,0,,2,,,74,127
51800,note_on,50,0,0,,11,,,46,127
51800,note_on,0,0,0,,2,,,74,127
51850,note_off,50,0,0,,11,,,82,127
51900,note_on,50,0,0,,11,,,82,127
51950,note_off,50,0,0,,2,,,74,127
51996,note_off,46,0,0,,11,,,58,127
51999,note_off,3,0,0,,11,,,82,127
51999,note_off,0,0,0,,11,,,46,127
52000,note_on,1,0,0,,5,,,53,127
52000,note_on,0,0,0,,0,,,72,127
52100,note_on,100,0,0,,10,,,81,127
52150,note_off,50,0,0,,0,,,72,127
52200,note_on,50,0,0,,5,,,41,127
52200,note_on,0,0,0,,0,,,72,127
52250,note_off,50,0,0,,10,,,81,127
52300,note_on,50,0,0,,10,,,81,127
52350,note_off,50,0,0,,0,,,72,127
52396,note_off,46,0,0,,5,,,53,127
52399,note_off,3,0,0,,10,,,81,127
52399,note_off,0,0,0,,5,,,41,127
52400,note_on,1,0,0,,11,,,46,127
52400,note_on,0,0,0,,11,,,70,127
52599,note_off,199,0,0,,11,,,46,127
52600,note_on,1,0,0,,0,,,48,127
52799,note_off,199,0,0,,0,,,48,127
52799,note_off,0,0,0,,11,,,70,127
52800,note_on,1,0,0,,2,,,50,127
52999,note_off,199,0,0,,2,,,50,127
53000,note_on,1,0,0,,11,,,58,127
53000,note_on,0,0,0,,2,,,74,127
53199,note_off,199,0,0,,2,,,74,127
53199,note_off,0,0,0,,11,,,58,127
53200,note_on,1,0,0,,10,,,57,127
53200,note_on,0,0,0,,0,,,72,127
53399,note_off,199,0,0,,0,,,72,127
53399,note_off,0,0,0,,10,,,57,127
53400,note_on,1,0,0,,6,,,54,127
53400,note_on,0,0,0,,11,,,70,127
53499,note_off,99,0,0,,11,,,70,127
53500,note_on,1,0,0,,10,,,69,127
53599,note_off,99,0,0,,10,,,69,127
53599,note_off,0,0,0,,6,,,54,127
53600,note_on,1,0,0,,7,,,55,127
53600,note_on,0,0,0,,11,,,70,127
53799,note_off,199,0,0,,11,,,70,127
53799,note_off,0,0,0,,7,,,55,127
53800,note_on,1,0,0,,7,,,43,127
53800,note_on,0,0,0,,7,,,67,127
53999,note_off,199,0,0,,7,,,67,127
53999,note_off,0,0,0,,7,,,43,127
54000,note_on,1,0,0,,2,,,50,127
54000,note_on,0,0,0,,6,,,66,127
54199,note_off,199,0,0,,6,,,66,127
54199,note_off,0,0,0,,2,,,50,127
54200,note_on,1,0,0,,0,,,48,127
54200,note_on,0,0,0,,2,,,62,127
54399,note_off,199,0,0,,0,,,48,127
54400,note_on,1,0,0,,11,,,46,127
54500,note_off,100,0,0,,2,,,62,127
54599,note_off,99,0,0,,11,,,46,127
54600,note_on,1,0,0,,7,,,43,127
54600,note_on,0,0,0,,2,,,74,127
54799,note_off,199,0,0,,2,,,74,127
54799,note_off,0,0,0,,7,,,43,127
54800,note_on,1,0,0,,0,,,48,127
54800,note_on,0,0,0,,3,,,75,127
54899,note_off,99,0,0,,3,,,75,127
54900,note_on,1,0,0,,5,,,77,127
54999,note_off,99,0,0,,5,,,77,127
55000,note_on,1,0,0,,2,,,74,127
55099,note_off,99,0,0,,2,,,74,127
55100,note_on,1,0,0,,3,,,75,127
55199,note_off,99,0,0,,3,,,75,127
55199,note_off,0,0,0,,0,,,48,127
55200,note_on,1,0,0,,3,,,51,127
55200,note_on,0,0,0,,0,,,72,127
55299,note_off,99,0,0,,0,,,72,127
55300,note_on,1,0,0,,2,,,74,127
55399,note_off,99,0,0,,2,,,74,127
55400,note_on,1,0,0,,11,,,70,127
55499,note_off,99,0,0,,11,,,70,127
55500,note_on,1,0,0,,0,,,72,127
55599,note_off,99,0,0,,0,,,72,127
55599,note_off,0,0,0,,3,,,51,127
55600,note_on,1,0,0,,5,,,53,127
55600,note_on,0,0,0,,10,,,69,127
55700,note_on,100,0,0,,5,,,77,127
55798,note_off,98,0,0,,10,,,69,127
55799,note_off,1,0,0,,5,,,77,127
55800,note_on,1,0,0,,3,,,75,127
55899,note_off,99,0,0,,3,,,75,127
55900,note_on,1,0,0,,5,,,77,127
55999,note_off,99,0,0,,5,,,77,127
56000,note_on,1,0,0,,0,,,72,127
56100,note_on,100,0,0,,5,,,77,127
56198,note_off,98,0,0,,0,,,72,127
56199,note_off,1,0,0,,5,,,77,127
56200,note_on,1,0,0,,3,,,75,127
56299,note_off,99,0,0,,3,,,75,127
56300,note_on,1,0,0,,5,,,77,127
56399,note_off,99,0,0,,5,,,77,127
56399,note_off,0,0,0,,5,,,53,127
56400,note_on,1,0,0,,11,,,46,127
56400,note_on,0,0,0,,2,,,74,127
56499,note_off,99,0,0,,2,,,74,127
56500,note_on,1,0,0,,3,,,75,127
56599,note_off,99,0,0,,3,,,75,127
56600,note_on,1,0,0,,0,,,72,127
56699,note_off,99,0,0,,0,,,72,127
56700,note_on,1,0,0,,2,,,74,127
56799,note_off,99,0,0,,2,,,74,127
56799,note_off,0,0,0,,11,,,46,127
56800,note_on,1,0,0,,2,,,50,127
56800,note_on,0,0,0,,11,,,70,127
56899,note_off,99,0,0,,11,,,70,127
56900,note_on,1,0,0,,0,,,72,127
56999,note_off,99,0,0,,0,,,72,127
57000,note_on,1,0,0,,10,,,69,127
57099,note_off,99,0,0,,10,,,69,127
57100,note_on,1,0,0,,11,,,70,127
57199,note_off,99,0,0,,11,,,70,127
57199,note_off,0,0,0,,2,,,50,127
57200,note_on,1,0,0,,3,,,51,127
57200,note_on,0,0,0,,7,,,67,127
57300,note_on,100,0,0,,3,,,75,127
57398,note_off,98,0,0,,7,,,67,127
57399,note_off,1,0,0,,3,,,75,127
57400,note_on,1,0,0,,2,,,74,127
57499,note_off,99,0,0,,2,,,74,127
57500,note_on,1,0,0,,3,,,75,127
57599,note_off,99,0,0,,3,,,75,127
57600,note_on,1,0,0,,11,,,70,127
57700,note_on,100,0,0,,3,,,75,127
57798,note_off,98,0,0,,11,,,70,127
57799,note_off,1,0,0,,3,,,75,127
57800,note_on,1,0,0,,2,,,74,127
57899,note_off,99,0,0,,2,,,74,127
57900,note_on,1,0,0,,3,,,75,127
57999,note_off,99,0,0,,3,,,75,127
57999,note_off,0,0,0,,3,,,51,127
58000,note_on,1,0,0,,10,,,45,127
58000,note_on,0,0,0,,0,,,72,127
58099,note_off,99,0,0,,0,,,72,127
58100,note_on,1,0,0,,2,,,74,127
58199,note_off,99,0,0,,2,,,74,127
58200,note_on,1,0,0,,11,,,70,127
58299,note_off,99,0,0,,11,,,70,127
58300,note_on,1,0,0,,0,,,72,127
58399,note_off,99,0,0,,0,,,72,127
58399,note_off,0,0,0,,10,,,45,127
58400,note_on,1,0,0,,0,,,48,127
58400,note_on,0,0,0,,10,,,69,127
58499,note_off,99,0,0,,10,,,69,127
58500,note_on,1,0,0,,11,,,70,127
58599,note_off,99,0,0,,11,,,70,127
58600,note_on,1,0,0,,7,,,67,127
58699,note_off,99,0,0,,7,,,67,127
58700,note_on,1,0,0,,10,,,69,127
58799,note_off,99,0,0,,10,,,69,127
58799,note_off,0,0,0,,0,,,48,127
58800,note_on,1,0,0,,2,,,50,127
58800,note_on,0,0,0,,6,,,66,127
58999,note_off,199,0,0,,6,,,66,127
59000,note_on,1,0,0,,4,,,64,127
59099,note_off,99,0,0,,4,,,64,127
59100,note_on,1,0,0,,6,,,66,127
59199,note_off,99,0,0,,6,,,66,127
59200,note_on,1,0,0,,2,,,62,127
59399,note_off,199,0,0,,2,,,62,127
59399,note_off,0,0,0,,2,,,50,127
59400,note_on,1,0,0,,0,,,48,127
59400,note_on,0,0,0,,4,,,64,127
59499,note_off,99,0,0,,4,,,64,127
59500,note_on,1,0,0,,6,,,66,127
59599,note_off,99,0,0,,6,,,66,127
59599,note_off,0,0,0,,0,,,48,127
59600,note_on,1,0,0,,11,,,46,127
59600,note_on,0,0,0,,7,,,67,127
59699,note_off,99,0,0,,7,,,67,127
59700,note_on,1,0,0,,10,,,69,127
59799,note_off,99,0,0,,10,,,69,127
59800,note_on,1,0,0,,7,,,67,127
59900,note_on,100,0,0,,2,,,62,127
59950,note_off,50,0,0,,7,,,67,127
59999,note_off,49,0,0,,2,,,62,127
59999,note_off,0,0,0,,11,,,46,127
60000,note_on,1,0,0,,6,,,42,127
60000,note_on,0,0,0,,10,,,69,127
60099,note_off,99,0,0,,10,,,69,127
60100,note_on,1,0,0,,11,,,70,127
60199,note_off,99,0,0,,11,,,70,127
60200,note_on,1,0,0,,10,,,69,127
60300,note_on,100,0,0,,2,,,62,127
60350,note_off,50,0,0,,10,,,69,127
60399,note_off,49,0,0,,2,,,62,127
60399,note_off,0,0,0,,6,,,42,127
60400,note_on,1,0,0,,7,,,43,127
60400,note_on,0,0,0,,11,,,70,127
60499,note_off,99,0,0,,11,,,70,127
60500,note_on,1,0,0,,0,,,72,127
60599,note_off,99,0,0,,0,,,72,127
60600,note_on,1,0,0,,11,,,70,127
60700,note_on,100,0,0,,2,,,62,127
60750,note_off,50,0,0,,11,,,70,127
60799,note_off,49,0,0,,2,,,62,127
60799,note_off,0,0,0,,7,,,43,127
60800,note_on,1,0,0,,10,,,45,127
60800,note_on,0,0,0,,0,,,72,127
60899,note_off,99,0,0,,0,,,72,127
60900,note_on,1,0,0,,2,,,74,127
60999,note_off,99,0,0,,2,,,74,127
61000,note_on,1,0,0,,0,,,72,127
61100,note_on,100,0,0,,2,,,62,127
61150,note_off,50,0,0,,0,,,72,127
61199,note_off,49,0,0,,2,,,62,127
61199,note_off,0,0,0,,10,,,45,127
61200,note_on,1,0,0,,11,,,46,127
61200,note_on,0,0,0,,2,,,74,127
61399,note_off,199,0,0,,2,,,74,127
61400,note_on,1,0,0,,3,,,75,127
61499,note_off,99,0,0,,3,,,75,127
61500,note_on,1,0,0,,2,,,74,127
61599,note_off,99,0,0,,2,,,74,127
61600,note_on,1,0,0,,0,,,72,127
61699,note_off,99,0,0,,0,,,72,127
61700,note_on,1,0,0,,11,,,70,127
61799,note_off,99,0,0,,11,,,70,127
61799,note_off,0,0,0,,11,,,46,127
61800,note_on,1,0,0,,0,,,48,127
61800,note_on,0,0,0,,10,,,69,127
61899,note_off,99,0,0,,10,,,69,127
61900,note_on,1,0,0,,7,,,67,127
61999,note_off,99,0,0,,7,,,67,127
61999,note_off,0,0,0,,0,,,48,127
62000,note_on,1,0,0,,2,,,50,127
62000,note_on,0,0,0,,6,,,78,127
62199,note_off,199,0,0,,6,,,78,127
62199,note_off,0,0,0,,2,,,50,127
62200,note_on,1,0,0,,0,,,48,127
62200,note_on,0,0,0,,4,,,76,127
62299,note_off,99,0,0,,4,,,76,127
62300,note_on,1,0,0,,2,,,74,127
62399,note_off,99,0,0,,2,,,74,127
62399,note_off,0,0,0,,0,,,48,127
62400,note_on,1,0,0,,11,,,46,127
62400,note_on,0,0,0,,7,,,79,127
62599,note_off,199,0,0,,7,,,79,127
62599,note_off,0,0,0,,11,,,46,127
62600,note_on,1,0,0,,0,,,48,127
62600,note_on,0,0,0,,0,,,72,127
62799,note_off,199,0,0,,0,,,72,127
62799,note_off,0,0,0,,0,,,48,127
62800,note_on,1,0,0,,2,,,50,127
62800,note_on,0,0,0,,11,,,70,127
62900,note_on,100,0,0,,2,,,74,127
62999,note_off,99,0,0,,2,,,74,127
62999,note_off,0,0,0,,2,,,50,127
63000,note_on,1,0,0,,0,,,48,127
63000,note_on,0,0,0,,7,,,79,127
63092,note_off,92,0,0,,11,,,70,127
63100,note_on,8,0,0,,11,,,70,127
63199,note_off,99,0,0,,11,,,70,127
63199,note_off,0,0,0,,0,,,48,127
63200,note_on,1,0,0,,2,,,50,127
63200,note_on,0,0,0,,10,,,69,127
63292,note_off,92,0,0,,7,,,79,127
63300,note_on,8,0,0,,7,,,79,127
63398,note_off,98,0,0,,10,,,69,127
63399,note_off,1,0,0,,7,,,79,127
63400,note_on,1,0,0,,2,,,38,127
63400,note_on,0,0,0,,6,,,78,127
63512,note_on,112,0,0,,10,,,69,127
63597,note_off,85,0,0,,2,,,50,127
63600,note_off,3,0,0,,6,,,78,127
63600,note_off,0,0,0,,2,,,38,127
63611,note_off,11,0,0,,10,,,69,127
63634,note_on,23,0,0,,7,,,67,127
63634,note_on,0,0,0,,7,,,55,127
64001,note_on,367,0,0,,7,,,43,127
65437,note_off,1436,0,0,,7,,,55,127
65437,note_off,0,0,0,,7,,,67,127
65504,note_off,67,0,0,,7,,,43,127
69120,end_of_track,3616,1,0,,,,,,
