tick,type,time,meta,track,program,channel,pitch,tempo,note,velocity
0,copyright,0,1,0,,,,,,
0,program_change,0,0,0,6,0,,,,
0,pitchwheel,0,0,0,,0,0,,,
0,program_change,0,0,0,6,1,,,,
0,pitchwheel,0,0,0,,1,-590,,,
0,program_change,0,0,0,6,2,,,,
0,pitchwheel,0,0,0,,2,-272,,,
0,program_change,0,0,0,6,3,,,,
0,pitchwheel,0,0,0,,3,-353,,,
0,program_change,0,0,0,6,4,,,,
0,pitchwheel,0,0,0,,4,-560,,,
0,program_change,0,0,0,6,5,,,,
0,pitchwheel,0,0,0,,5,-80,,,
0,program_change,0,0,0,6,6,,,,
0,pitchwheel,0,0,0,,6,-625,,,
0,program_change,0,0,0,6,7,,,,
0,pitchwheel,0,0,0,,7,-130,,,
0,program_change,0,0,0,6,8,,,,
0,pitchwheel,0,0,0,,8,-512,,,
0,program_change,0,0,0,6,10,,,,
0,pitchwheel,0,0,0,,10,-464,,,
0,program_change,0,0,0,6,11,,,,
0,pitchwheel,0,0,0,,11,-208,,,
0,program_change,0,0,0,6,12,,,,
0,pitchwheel,0,0,0,,12,-553,,,
0,set_tempo,0,1,0,,,,500000,,
115,note_on,115,0,0,,10,,,81,127
230,note_on,115,0,0,,4,,,76,127
259,note_off,29,0,0,,10,,,81,127
345,note_on,86,0,0,,0,,,72,127
374,note_off,29,0,0,,4,,,76,127
460,note_on,86,0,0,,10,,,69,127
489,note_off,29,0,0,,0,,,72,127
575,note_on,86,0,0,,4,,,64,127
604,note_off,29,0,0,,10,,,69,127
690,note_on,86,0,0,,12,,,71,127
719,note_off,29,0,0,,4,,,64,127
805,note_on,86,0,0,,10,,,69,127
805,note_on,0,0,0,,0,,,72,127
834,note_off,29,0,0,,12,,,71,127
920,note_on,86,0,0,,4,,,64,127
949,note_off,29,0,0,,10,,,69,127
1035,note_on,86,0,0,,0,,,60,127
1064,note_off,29,0,0,,4,,,64,127
1150,note_on,86,0,0,,10,,,57,127
1179,note_off,29,0,0,,0,,,60,127
1265,note_on,86,0,0,,4,,,52,127
1294,note_off,29,0,0,,10,,,57,127
1344,note_off,50,0,0,,0,,,72,127
1380,note_on,36,0,0,,12,,,59,127
1380,note_on,0,0,0,,2,,,74,127
1409,note_off,29,0,0,,4,,,52,127
1495,note_on,86,0,0,,0,,,60,127
1495,note_on,0,0,0,,4,,,76,127
1524,note_off,29,0,0,,2,,,74,127
1524,note_off,0,0,0,,12,,,59,127
1610,note_on,86,0,0,,10,,,69,127
1639,note_off,29,0,0,,4,,,76,127
1724,note_off,85,0,0,,0,,,60,127
1725,note_on,1,0,0,,2,,,62,127
1725,note_on,0,0,0,,5,,,77,127
1754,note_off,29,0,0,,10,,,69,127
1954,note_off,200,0,0,,5,,,77,127
1954,note_off,0,0,0,,2,,,62,127
1955,note_on,1,0,0,,12,,,59,127
1955,note_on,0,0,0,,8,,,68,127
2184,note_off,229,0,0,,8,,,68,127
2184,note_off,0,0,0,,12,,,59,127
2185,note_on,1,0,0,,0,,,60,127
2185,note_on,0,0,0,,10,,,69,127
2300,note_on,115,0,0,,4,,,76,127
2329,note_off,29,0,0,,10,,,69,127
2414,note_off,85,0,0,,0,,,60,127
2415,note_on,1,0,0,,2,,,62,127
2415,note_on,0,0,0,,5,,,77,127
2444,note_off,29,0,0,,4,,,76,127
2644,note_off,200,0,0,,5,,,77,127
2644,note_off,0,0,0,,2,,,62,127
2645,note_on,1,0,0,,12,,,59,127
2645,note_on,0,0,0,,8,,,68,127
2874,note_off,229,0,0,,8,,,68,127
2874,note_off,0,0,0,,12,,,59,127
2875,note_on,1,0,0,,0,,,60,127
2875,note_on,0,0,0,,10,,,69,127
2990,note_on,115,0,0,,4,,,76,127
3019,note_off,29,0,0,,10,,,69,127
3104,note_off,85,0,0,,0,,,60,127
3105,note_on,1,0,0,,2,,,62,127
3105,note_on,0,0,0,,5,,,77,127
3134,note_off,29,0,0,,4,,,76,127
3334,note_off,200,0,0,,5,,,77,127
3334,note_off,0,0,0,,2,,,62,127
3335,note_on,1,0,0,,12,,,59,127
3335,note_on,0,0,0,,8,,,68,127
3564,note_off,229,0,0,,8,,,68,127
3564,note_off,0,0,0,,12,,,59,127
3565,note_on,1,0,0,,0,,,60,127
3565,note_on,0,0,0,,10,,,69,127
3680,note_on,115,0,0,,8,,,80,127
3709,note_off,29,0,0,,10,,,69,127
3794,note_off,85,0,0,,0,,,60,127
3795,note_on,1,0,0,,10,,,57,127
3795,note_on,0,0,0,,10,,,81,127
3824,note_off,29,0,0,,8,,,80,127
4024,note_off,200,0,0,,10,,,81,127
4024,note_off,0,0,0,,10,,,57,127
4025,note_on,1,0,0,,0,,,60,127
4025,note_on,0,0,0,,4,,,76,127
4254,note_off,229,0,0,,4,,,76,127
4254,note_off,0,0,0,,0,,,60,127
4255,note_on,1,0,0,,2,,,62,127
4255,note_on,0,0,0,,5,,,77,127
4370,note_on,115,0,0,,2,,,74,127
4399,note_off,29,0,0,,5,,,77,127
4484,note_off,85,0,0,,2,,,62,127
4485,note_on,1,0,0,,8,,,56,127
4485,note_on,0,0,0,,4,,,76,127
4514,note_off,29,0,0,,2,,,74,127
4600,note_on,86,0,0,,0,,,72,127
4629,note_off,29,0,0,,4,,,76,127
4714,note_off,85,0,0,,8,,,56,127
4715,note_on,1,0,0,,4,,,52,127
4715,note_on,0,0,0,,2,,,74,127
4744,note_off,29,0,0,,0,,,72,127
4830,note_on,86,0,0,,12,,,71,127
4859,note_off,29,0,0,,2,,,74,127
4944,note_off,85,0,0,,4,,,52,127
4945,note_on,1,0,0,,10,,,57,127
4945,note_on,0,0,0,,2,,,74,127
4974,note_off,29,0,0,,12,,,71,127
5060,note_on,86,0,0,,0,,,72,127
5089,note_off,29,0,0,,2,,,74,127
5175,note_on,86,0,0,,10,,,45,127
5175,note_on,0,0,0,,12,,,71,127
5204,note_off,29,0,0,,0,,,72,127
5290,note_on,86,0,0,,0,,,72,127
5319,note_off,29,0,0,,12,,,71,127
5405,note_on,86,0,0,,10,,,69,127
5434,note_off,29,0,0,,0,,,72,127
5628,note_off,194,0,0,,10,,,57,127
5634,note_off,6,0,0,,10,,,69,127
5634,note_off,0,0,0,,10,,,45,127
5635,note_on,1,0,0,,5,,,77,127
5635,note_on,0,0,0,,2,,,74,127
5750,note_on,115,0,0,,10,,,81,127
5779,note_off,29,0,0,,5,,,77,127
5864,note_off,85,0,0,,2,,,74,127
5865,note_on,1,0,0,,4,,,76,127
5865,note_on,0,0,0,,0,,,72,127
5894,note_off,29,0,0,,10,,,81,127
5980,note_on,86,0,0,,10,,,81,127
6009,note_off,29,0,0,,4,,,76,127
6094,note_off,85,0,0,,0,,,72,127
6095,note_on,1,0,0,,2,,,74,127
6095,note_on,0,0,0,,12,,,71,127
6124,note_off,29,0,0,,10,,,81,127
6210,note_on,86,0,0,,10,,,81,127
6239,note_off,29,0,0,,2,,,74,127
6324,note_off,85,0,0,,12,,,71,127
6325,note_on,1,0,0,,0,,,72,127
6325,note_on,0,0,0,,10,,,69,127
6354,note_off,29,0,0,,10,,,81,127
6440,note_on,86,0,0,,10,,,81,127
6469,note_off,29,0,0,,0,,,72,127
6554,note_off,85,0,0,,10,,,69,127
6555,note_on,1,0,0,,2,,,74,127
6555,note_on,0,0,0,,12,,,71,127
6584,note_off,29,0,0,,10,,,81,127
6670,note_on,86,0,0,,10,,,81,127
6699,note_off,29,0,0,,2,,,74,127
6784,note_off,85,0,0,,12,,,71,127
6785,note_on,1,0,0,,4,,,76,127
6785,note_on,0,0,0,,0,,,72,127
6814,note_off,29,0,0,,10,,,81,127
6900,note_on,86,0,0,,10,,,81,127
6929,note_off,29,0,0,,4,,,76,127
7014,note_off,85,0,0,,0,,,72,127
7015,note_on,1,0,0,,5,,,77,127
7015,note_on,0,0,0,,2,,,74,127
7044,note_off,29,0,0,,10,,,81,127
7130,note_on,86,0,0,,10,,,81,127
7159,note_off,29,0,0,,5,,,77,127
7244,note_off,85,0,0,,2,,,74,127
7245,note_on,1,0,0,,4,,,76,127
7245,note_on,0,0,0,,0,,,72,127
7274,note_off,29,0,0,,10,,,81,127
7360,note_on,86,0,0,,10,,,81,127
7389,note_off,29,0,0,,4,,,76,127
7474,note_off,85,0,0,,0,,,72,127
7475,note_on,1,0,0,,2,,,74,127
7475,note_on,0,0,0,,12,,,71,127
7504,note_off,29,0,0,,10,,,81,127
7590,note_on,86,0,0,,10,,,81,127
7619,note_off,29,0,0,,2,,,74,127
7704,note_off,85,0,0,,12,,,71,127
7705,note_on,1,0,0,,0,,,72,127
7705,note_on,0,0,0,,10,,,69,127
7734,note_off,29,0,0,,10,,,81,127
7818,note_off,84,0,0,,0,,,72,127
7820,note_on,2,0,0,,0,,,72,127
7933,note_off,113,0,0,,10,,,69,127
7935,note_on,2,0,0,,10,,,81,127
7935,note_on,0,0,0,,4,,,76,127
8048,note_off,113,0,0,,10,,,81,127
8050,note_on,2,0,0,,10,,,81,127
8079,note_off,29,0,0,,4,,,76,127
8165,note_on,86,0,0,,10,,,69,127
8194,note_off,29,0,0,,10,,,81,127
8279,note_off,85,0,0,,0,,,72,127
8394,note_off,115,0,0,,10,,,69,127
8395,note_on,1,0,0,,5,,,65,127
8395,note_on,0,0,0,,2,,,74,127
8510,note_on,115,0,0,,10,,,69,127
8539,note_off,29,0,0,,5,,,65,127
8624,note_off,85,0,0,,2,,,74,127
8625,note_on,1,0,0,,4,,,64,127
8625,note_on,0,0,0,,4,,,76,127
8654,note_off,29,0,0,,10,,,69,127
8740,note_on,86,0,0,,10,,,69,127
8769,note_off,29,0,0,,4,,,64,127
8854,note_off,85,0,0,,4,,,76,127
8855,note_on,1,0,0,,2,,,62,127
8855,note_on,0,0,0,,5,,,77,127
8884,note_off,29,0,0,,10,,,69,127
8970,note_on,86,0,0,,10,,,69,127
8999,note_off,29,0,0,,2,,,62,127
9084,note_off,85,0,0,,5,,,77,127
9085,note_on,1,0,0,,4,,,64,127
9085,note_on,0,0,0,,8,,,68,127
9114,note_off,29,0,0,,10,,,69,127
9200,note_on,86,0,0,,10,,,69,127
9229,note_off,29,0,0,,4,,,64,127
9314,note_off,85,0,0,,8,,,68,127
9315,note_on,1,0,0,,2,,,62,127
9315,note_on,0,0,0,,5,,,77,127
9344,note_off,29,0,0,,10,,,69,127
9430,note_on,86,0,0,,10,,,69,127
9459,note_off,29,0,0,,2,,,62,127
9544,note_off,85,0,0,,5,,,77,127
9545,note_on,1,0,0,,0,,,60,127
9545,note_on,0,0,0,,4,,,76,127
9574,note_off,29,0,0,,10,,,69,127
9660,note_on,86,0,0,,10,,,69,127
9689,note_off,29,0,0,,0,,,60,127
9774,note_off,85,0,0,,4,,,76,127
9775,note_on,1,0,0,,2,,,62,127
9775,note_on,0,0,0,,2,,,74,127
9804,note_off,29,0,0,,10,,,69,127
9890,note_on,86,0,0,,10,,,69,127
9919,note_off,29,0,0,,2,,,62,127
10004,note_off,85,0,0,,2,,,74,127
10005,note_on,1,0,0,,4,,,64,127
10005,note_on,0,0,0,,0,,,72,127
10034,note_off,29,0,0,,10,,,69,127
10120,note_on,86,0,0,,10,,,69,127
10149,note_off,29,0,0,,4,,,64,127
10234,note_off,85,0,0,,0,,,72,127
10235,note_on,1,0,0,,4,,,64,127
10235,note_on,0,0,0,,12,,,71,127
10264,note_off,29,0,0,,10,,,69,127
10350,note_on,86,0,0,,8,,,68,127
10379,note_off,29,0,0,,4,,,64,127
10464,note_off,85,0,0,,12,,,71,127
10465,note_on,1,0,0,,10,,,57,127
10465,note_on,0,0,0,,2,,,74,127
10494,note_off,29,0,0,,8,,,68,127
10580,note_on,86,0,0,,0,,,72,127
10609,note_off,29,0,0,,2,,,74,127
10695,note_on,86,0,0,,12,,,71,127
10724,note_off,29,0,0,,0,,,72,127
10810,note_on,86,0,0,,0,,,72,127
10839,note_off,29,0,0,,12,,,71,127
10925,note_on,86,0,0,,10,,,69,127
10954,note_off,29,0,0,,0,,,72,127
11147,note_off,193,0,0,,10,,,69,127
11154,note_off,7,0,0,,10,,,57,127
11155,note_on,1,0,0,,10,,,81,127
11155,note_on,0,0,0,,5,,,77,127
11270,note_on,115,0,0,,0,,,72,127
11299,note_off,29,0,0,,5,,,77,127
11384,note_off,85,0,0,,10,,,81,127
11385,note_on,1,0,0,,5,,,65,127
11385,note_on,0,0,0,,10,,,69,127
11414,note_off,29,0,0,,0,,,72,127
11500,note_on,86,0,0,,0,,,72,127
11529,note_off,29,0,0,,10,,,69,127
11614,note_off,85,0,0,,5,,,65,127
11615,note_on,1,0,0,,10,,,81,127
11615,note_on,0,0,0,,5,,,77,127
11644,note_off,29,0,0,,0,,,72,127
11730,note_on,86,0,0,,10,,,69,127
11759,note_off,29,0,0,,5,,,77,127
11844,note_off,85,0,0,,10,,,81,127
11845,note_on,1,0,0,,7,,,79,127
11845,note_on,0,0,0,,4,,,76,127
11874,note_off,29,0,0,,10,,,69,127
11960,note_on,86,0,0,,0,,,72,127
11989,note_off,29,0,0,,4,,,76,127
12074,note_off,85,0,0,,7,,,79,127
12075,note_on,1,0,0,,4,,,64,127
12075,note_on,0,0,0,,7,,,67,127
12104,note_off,29,0,0,,0,,,72,127
12190,note_on,86,0,0,,0,,,72,127
12219,note_off,29,0,0,,7,,,67,127
12304,note_off,85,0,0,,4,,,64,127
12305,note_on,1,0,0,,7,,,79,127
12305,note_on,0,0,0,,4,,,76,127
12334,note_off,29,0,0,,0,,,72,127
12420,note_on,86,0,0,,7,,,67,127
12449,note_off,29,0,0,,4,,,76,127
12534,note_off,85,0,0,,7,,,79,127
12535,note_on,1,0,0,,5,,,77,127
12535,note_on,0,0,0,,2,,,74,127
12564,note_off,29,0,0,,7,,,67,127
12650,note_on,86,0,0,,12,,,71,127
12679,note_off,29,0,0,,2,,,74,127
12764,note_off,85,0,0,,5,,,77,127
12765,note_on,1,0,0,,2,,,62,127
12765,note_on,0,0,0,,5,,,65,127
12794,note_off,29,0,0,,12,,,71,127
12880,note_on,86,0,0,,12,,,71,127
12909,note_off,29,0,0,,5,,,65,127
12994,note_off,85,0,0,,2,,,62,127
12995,note_on,1,0,0,,5,,,77,127
12995,note_on,0,0,0,,2,,,74,127
13024,note_off,29,0,0,,12,,,71,127
13110,note_on,86,0,0,,5,,,65,127
13139,note_off,29,0,0,,2,,,74,127
13224,note_off,85,0,0,,5,,,77,127
13225,note_on,1,0,0,,4,,,76,127
13225,note_on,0,0,0,,0,,,72,127
13254,note_off,29,0,0,,5,,,65,127
13340,note_on,86,0,0,,7,,,67,127
13369,note_off,29,0,0,,0,,,72,127
13454,note_off,85,0,0,,4,,,76,127
13455,note_on,1,0,0,,0,,,60,127
13455,note_on,0,0,0,,4,,,64,127
13484,note_off,29,0,0,,7,,,67,127
13570,note_on,86,0,0,,7,,,67,127
13599,note_off,29,0,0,,4,,,64,127
13684,note_off,85,0,0,,0,,,60,127
13685,note_on,1,0,0,,4,,,76,127
13685,note_on,0,0,0,,0,,,72,127
13714,note_off,29,0,0,,7,,,67,127
13800,note_on,86,0,0,,4,,,64,127
13829,note_off,29,0,0,,0,,,72,127
13914,note_off,85,0,0,,4,,,76,127
13915,note_on,1,0,0,,10,,,69,127
13915,note_on,0,0,0,,5,,,65,127
13944,note_off,29,0,0,,4,,,64,127
14030,note_on,86,0,0,,0,,,72,127
14059,note_off,29,0,0,,10,,,69,127
14144,note_off,85,0,0,,5,,,65,127
14145,note_on,1,0,0,,7,,,67,127
14145,note_on,0,0,0,,4,,,64,127
14174,note_off,29,0,0,,0,,,72,127
14260,note_on,86,0,0,,0,,,72,127
14289,note_off,29,0,0,,7,,,67,127
14374,note_off,85,0,0,,4,,,64,127
14375,note_on,1,0,0,,5,,,65,127
14375,note_on,0,0,0,,2,,,62,127
14404,note_off,29,0,0,,0,,,72,127
14490,note_on,86,0,0,,0,,,72,127
14519,note_off,29,0,0,,5,,,65,127
14604,note_off,85,0,0,,2,,,62,127
14605,note_on,1,0,0,,7,,,67,127
14605,note_on,0,0,0,,4,,,64,127
14634,note_off,29,0,0,,0,,,72,127
14720,note_on,86,0,0,,0,,,72,127
14749,note_off,29,0,0,,7,,,67,127
14834,note_off,85,0,0,,4,,,64,127
14835,note_on,1,0,0,,5,,,65,127
14835,note_on,0,0,0,,2,,,62,127
14864,note_off,29,0,0,,0,,,72,127
14950,note_on,86,0,0,,0,,,72,127
14979,note_off,29,0,0,,5,,,65,127
15064,note_off,85,0,0,,2,,,62,127
15065,note_on,1,0,0,,4,,,64,127
15065,note_on,0,0,0,,0,,,60,127
15094,note_off,29,0,0,,0,,,72,127
15180,note_on,86,0,0,,0,,,72,127
15209,note_off,29,0,0,,4,,,64,127
15294,note_off,85,0,0,,0,,,60,127
15295,note_on,1,0,0,,5,,,65,127
15295,note_on,0,0,0,,2,,,62,127
15324,note_off,29,0,0,,0,,,72,127
15410,note_on,86,0,0,,0,,,72,127
15439,note_off,29,0,0,,5,,,65,127
15524,note_off,85,0,0,,2,,,62,127
15525,note_on,1,0,0,,4,,,64,127
15525,note_on,0,0,0,,0,,,60,127
15554,note_off,29,0,0,,0,,,72,127
15640,note_on,86,0,0,,0,,,72,127
15669,note_off,29,0,0,,4,,,64,127
15754,note_off,85,0,0,,0,,,60,127
15755,note_on,1,0,0,,2,,,62,127
15755,note_on,0,0,0,,12,,,59,127
15784,note_off,29,0,0,,0,,,72,127
15870,note_on,86,0,0,,0,,,72,127
15899,note_off,29,0,0,,2,,,62,127
15984,note_off,85,0,0,,0,,,72,127
15984,note_off,0,0,0,,12,,,59,127
15985,note_on,1,0,0,,4,,,64,127
15985,note_on,0,0,0,,0,,,60,127
16100,note_on,115,0,0,,2,,,62,127
16129,note_off,29,0,0,,0,,,60,127
16214,note_off,85,0,0,,4,,,64,127
16215,note_on,1,0,0,,4,,,64,127
16244,note_off,29,0,0,,2,,,62,127
16330,note_on,86,0,0,,5,,,65,127
16359,note_off,29,0,0,,4,,,64,127
16445,note_on,86,0,0,,7,,,67,127
16474,note_off,29,0,0,,5,,,65,127
16560,note_on,86,0,0,,10,,,69,127
16589,note_off,29,0,0,,7,,,67,127
16675,note_on,86,0,0,,7,,,67,127
16675,note_on,0,0,0,,12,,,71,127
16704,note_off,29,0,0,,10,,,69,127
16790,note_on,86,0,0,,0,,,72,127
16819,note_off,29,0,0,,12,,,71,127
16904,note_off,85,0,0,,7,,,67,127
16905,note_on,1,0,0,,5,,,65,127
16905,note_on,0,0,0,,2,,,74,127
16934,note_off,29,0,0,,0,,,72,127
17020,note_on,86,0,0,,4,,,76,127
17049,note_off,29,0,0,,2,,,74,127
17134,note_off,85,0,0,,5,,,65,127
17135,note_on,1,0,0,,4,,,64,127
17135,note_on,0,0,0,,5,,,77,127
17164,note_off,29,0,0,,4,,,76,127
17250,note_on,86,0,0,,7,,,79,127
17279,note_off,29,0,0,,5,,,77,127
17364,note_off,85,0,0,,4,,,64,127
17365,note_on,1,0,0,,5,,,65,127
17365,note_on,0,0,0,,10,,,81,127
17394,note_off,29,0,0,,7,,,79,127
17480,note_on,86,0,0,,5,,,77,127
17509,note_off,29,0,0,,10,,,81,127
17594,note_off,85,0,0,,5,,,65,127
17595,note_on,1,0,0,,2,,,62,127
17595,note_on,0,0,0,,12,,,83,127
17624,note_off,29,0,0,,5,,,77,127
17710,note_on,86,0,0,,7,,,79,127
17739,note_off,29,0,0,,12,,,83,127
17824,note_off,85,0,0,,2,,,62,127
17825,note_on,1,0,0,,4,,,64,127
17825,note_on,0,0,0,,0,,,84,127
17854,note_off,29,0,0,,7,,,79,127
17940,note_on,86,0,0,,7,,,79,127
17969,note_off,29,0,0,,0,,,84,127
18054,note_off,85,0,0,,4,,,64,127
18055,note_on,1,0,0,,5,,,65,127
18055,note_on,0,0,0,,10,,,81,127
18084,note_off,29,0,0,,7,,,79,127
18170,note_on,86,0,0,,5,,,77,127
18199,note_off,29,0,0,,10,,,81,127
18284,note_off,85,0,0,,5,,,65,127
18285,note_on,1,0,0,,2,,,62,127
18285,note_on,0,0,0,,7,,,79,127
18314,note_off,29,0,0,,5,,,77,127
18400,note_on,86,0,0,,4,,,76,127
18429,note_off,29,0,0,,7,,,79,127
18514,note_off,85,0,0,,2,,,62,127
18515,note_on,1,0,0,,12,,,59,127
18515,note_on,0,0,0,,5,,,77,127
18544,note_off,29,0,0,,4,,,76,127
18630,note_on,86,0,0,,2,,,74,127
18659,note_off,29,0,0,,5,,,77,127
18726,note_off,67,0,0,,2,,,74,127
18744,note_off,18,0,0,,12,,,59,127
18745,note_on,1,0,0,,0,,,60,127
18745,note_on,0,0,0,,4,,,76,127
18860,note_on,115,0,0,,7,,,79,127
18889,note_off,29,0,0,,4,,,76,127
18974,note_off,85,0,0,,0,,,60,127
18975,note_on,1,0,0,,5,,,65,127
18975,note_on,0,0,0,,10,,,81,127
19004,note_off,29,0,0,,7,,,79,127
19204,note_off,200,0,0,,10,,,81,127
19204,note_off,0,0,0,,5,,,65,127
19205,note_on,1,0,0,,2,,,62,127
19205,note_on,0,0,0,,12,,,71,127
19434,note_off,229,0,0,,12,,,71,127
19434,note_off,0,0,0,,2,,,62,127
19435,note_on,1,0,0,,4,,,64,127
19435,note_on,0,0,0,,0,,,72,127
19550,note_on,115,0,0,,7,,,79,127
19579,note_off,29,0,0,,0,,,72,127
19664,note_off,85,0,0,,4,,,64,127
19665,note_on,1,0,0,,5,,,65,127
19665,note_on,0,0,0,,10,,,81,127
19694,note_off,29,0,0,,7,,,79,127
19894,note_off,200,0,0,,10,,,81,127
19894,note_off,0,0,0,,5,,,65,127
19895,note_on,1,0,0,,2,,,62,127
19895,note_on,0,0,0,,12,,,71,127
20124,note_off,229,0,0,,12,,,71,127
20124,note_off,0,0,0,,2,,,62,127
20125,note_on,1,0,0,,4,,,64,127
20125,note_on,0,0,0,,0,,,72,127
20240,note_on,115,0,0,,7,,,79,127
20269,note_off,29,0,0,,0,,,72,127
20354,note_off,85,0,0,,4,,,64,127
20355,note_on,1,0,0,,5,,,65,127
20355,note_on,0,0,0,,10,,,81,127
20384,note_off,29,0,0,,7,,,79,127
20584,note_off,200,0,0,,10,,,81,127
20584,note_off,0,0,0,,5,,,65,127
20585,note_on,1,0,0,,2,,,62,127
20585,note_on,0,0,0,,12,,,71,127
20814,note_off,229,0,0,,12,,,71,127
20814,note_off,0,0,0,,2,,,62,127
20815,note_on,1,0,0,,4,,,64,127
20815,note_on,0,0,0,,0,,,72,127
20930,note_on,115,0,0,,12,,,83,127
20959,note_off,29,0,0,,0,,,72,127
21044,note_off,85,0,0,,4,,,64,127
21045,note_on,1,0,0,,0,,,60,127
21045,note_on,0,0,0,,0,,,84,127
21074,note_off,29,0,0,,12,,,83,127
21274,note_off,200,0,0,,0,,,84,127
21275,note_on,1,0,0,,11,,,82,127
21504,note_off,229,0,0,,11,,,82,127
21504,note_off,0,0,0,,0,,,60,127
21505,note_on,1,0,0,,10,,,81,127
21620,note_on,115,0,0,,7,,,79,127
21649,note_off,29,0,0,,10,,,81,127
21735,note_on,86,0,0,,0,,,60,127
21735,note_on,0,0,0,,10,,,69,127
21735,note_on,0,0,0,,6,,,78,127
21764,note_off,29,0,0,,7,,,79,127
21964,note_off,200,0,0,,6,,,78,127
21964,note_off,0,0,0,,10,,,69,127
21964,note_off,0,0,0,,0,,,60,127
21965,note_on,1,0,0,,7,,,67,127
21965,note_on,0,0,0,,12,,,59,127
21965,note_on,0,0,0,,7,,,79,127
22194,note_off,229,0,0,,7,,,79,127
22195,note_on,1,0,0,,5,,,77,127
22310,note_off,115,0,0,,12,,,59,127
22310,note_off,0,0,0,,7,,,67,127
22310,note_on,0,0,0,,3,,,75,127
22339,note_off,29,0,0,,5,,,77,127
22425,note_on,86,0,0,,8,,,68,127
22425,note_on,0,0,0,,12,,,59,127
22425,note_on,0,0,0,,2,,,74,127
22454,note_off,29,0,0,,3,,,75,127
22654,note_off,200,0,0,,2,,,74,127
22654,note_off,0,0,0,,12,,,59,127
22654,note_off,0,0,0,,8,,,68,127
22655,note_on,1,0,0,,7,,,67,127
22655,note_on,0,0,0,,0,,,60,127
22655,note_on,0,0,0,,3,,,75,127
22884,note_off,229,0,0,,3,,,75,127
22885,note_on,1,0,0,,2,,,74,127
23000,note_off,115,0,0,,0,,,60,127
23000,note_off,0,0,0,,7,,,67,127
23000,note_on,0,0,0,,0,,,72,127
23029,note_off,29,0,0,,2,,,74,127
23115,note_on,86,0,0,,5,,,65,127
23115,note_on,0,0,0,,5,,,53,127
23115,note_on,0,0,0,,12,,,71,127
23144,note_off,29,0,0,,0,,,72,127
23344,note_off,200,0,0,,12,,,71,127
23344,note_off,0,0,0,,5,,,53,127
23345,note_on,1,0,0,,8,,,56,127
23345,note_on,0,0,0,,0,,,72,127
23574,note_off,229,0,0,,0,,,72,127
23574,note_off,0,0,0,,8,,,56,127
23575,note_on,1,0,0,,7,,,55,127
23575,note_on,0,0,0,,12,,,71,127
23690,note_on,115,0,0,,10,,,69,127
23719,note_off,29,0,0,,12,,,71,127
23804,note_off,85,0,0,,5,,,65,127
23805,note_on,1,0,0,,4,,,64,127
23805,note_on,0,0,0,,7,,,67,127
23834,note_off,29,0,0,,10,,,69,127
24034,note_off,200,0,0,,7,,,67,127
24034,note_off,0,0,0,,4,,,64,127
24035,note_on,1,0,0,,5,,,65,127
24035,note_on,0,0,0,,10,,,69,127
24264,note_off,229,0,0,,10,,,69,127
24264,note_off,0,0,0,,5,,,65,127
24264,note_off,0,0,0,,7,,,55,127
24265,note_on,1,0,0,,7,,,55,127
24265,note_on,0,0,0,,4,,,64,127
24265,note_on,0,0,0,,7,,,67,127
24380,note_on,115,0,0,,2,,,62,127
24380,note_on,0,0,0,,5,,,65,127
24409,note_off,29,0,0,,7,,,67,127
24409,note_off,0,0,0,,4,,,64,127
24495,note_on,86,0,0,,0,,,60,127
24495,note_on,0,0,0,,4,,,64,127
24524,note_off,29,0,0,,5,,,65,127
24524,note_off,0,0,0,,2,,,62,127
24724,note_off,200,0,0,,4,,,64,127
24724,note_off,0,0,0,,0,,,60,127
24725,note_on,1,0,0,,12,,,59,127
24725,note_on,0,0,0,,5,,,65,127
24954,note_off,229,0,0,,5,,,65,127
24954,note_off,0,0,0,,12,,,59,127
24954,note_off,0,0,0,,7,,,55,127
24955,note_on,1,0,0,,0,,,48,127
24955,note_on,0,0,0,,4,,,64,127
25070,note_on,115,0,0,,2,,,62,127
25099,note_off,29,0,0,,4,,,64,127
25184,note_off,85,0,0,,0,,,48,127
25185,note_on,1,0,0,,2,,,50,127
25185,note_on,0,0,0,,0,,,60,127
25214,note_off,29,0,0,,2,,,62,127
25300,note_on,86,0,0,,12,,,59,127
25329,note_off,29,0,0,,0,,,60,127
25414,note_off,85,0,0,,2,,,50,127
25415,note_on,1,0,0,,4,,,52,127
25415,note_on,0,0,0,,0,,,60,127
25444,note_off,29,0,0,,12,,,59,127
25530,note_on,86,0,0,,4,,,64,127
25559,note_off,29,0,0,,0,,,60,127
25644,note_off,85,0,0,,4,,,52,127
25645,note_on,1,0,0,,5,,,53,127
25645,note_on,0,0,0,,2,,,62,127
25674,note_off,29,0,0,,4,,,64,127
25760,note_on,86,0,0,,5,,,65,127
25789,note_off,29,0,0,,2,,,62,127
25874,note_off,85,0,0,,5,,,53,127
25875,note_on,1,0,0,,7,,,55,127
25875,note_on,0,0,0,,4,,,64,127
25904,note_off,29,0,0,,5,,,65,127
25990,note_on,86,0,0,,0,,,60,127
26019,note_off,29,0,0,,4,,,64,127
26105,note_on,86,0,0,,7,,,43,127
26105,note_on,0,0,0,,2,,,62,127
26134,note_off,29,0,0,,0,,,60,127
26220,note_off,86,0,0,,7,,,55,127
26220,note_on,0,0,0,,12,,,59,127
26249,note_off,29,0,0,,2,,,62,127
26334,note_off,85,0,0,,7,,,43,127
26335,note_on,1,0,0,,0,,,36,127
26335,note_on,0,0,0,,0,,,60,127
26364,note_off,29,0,0,,12,,,59,127
26450,note_on,86,0,0,,7,,,55,127
26479,note_off,29,0,0,,0,,,60,127
26565,note_on,86,0,0,,4,,,52,127
26594,note_off,29,0,0,,7,,,55,127
26680,note_on,86,0,0,,0,,,48,127
26709,note_off,29,0,0,,4,,,52,127
26795,note_on,86,0,0,,2,,,62,127
26824,note_off,29,0,0,,0,,,48,127
26910,note_on,86,0,0,,12,,,59,127
26939,note_off,29,0,0,,2,,,62,127
27024,note_off,85,0,0,,0,,,36,127
27025,note_on,1,0,0,,0,,,36,127
27025,note_on,0,0,0,,0,,,60,127
27054,note_off,29,0,0,,12,,,59,127
27140,note_on,86,0,0,,7,,,55,127
27169,note_off,29,0,0,,0,,,60,127
27255,note_on,86,0,0,,4,,,64,127
27284,note_off,29,0,0,,7,,,55,127
27370,note_on,86,0,0,,0,,,60,127
27399,note_off,29,0,0,,4,,,64,127
27485,note_on,86,0,0,,7,,,67,127
27514,note_off,29,0,0,,0,,,60,127
27600,note_on,86,0,0,,4,,,64,127
27629,note_off,29,0,0,,7,,,67,127
27714,note_off,85,0,0,,0,,,36,127
27715,note_on,1,0,0,,0,,,36,127
27715,note_on,0,0,0,,0,,,72,127
27744,note_off,29,0,0,,4,,,64,127
27830,note_on,86,0,0,,7,,,67,127
27859,note_off,29,0,0,,0,,,72,127
27945,note_on,86,0,0,,4,,,64,127
27974,note_off,29,0,0,,7,,,67,127
28060,note_on,86,0,0,,0,,,60,127
28089,note_off,29,0,0,,4,,,64,127
28175,note_on,86,0,0,,2,,,74,127
28204,note_off,29,0,0,,0,,,60,127
28290,note_on,86,0,0,,12,,,71,127
28319,note_off,29,0,0,,2,,,74,127
28404,note_off,85,0,0,,0,,,36,127
28405,note_on,1,0,0,,0,,,36,127
28405,note_on,0,0,0,,0,,,72,127
28434,note_off,29,0,0,,12,,,71,127
28520,note_on,86,0,0,,7,,,67,127
28549,note_off,29,0,0,,0,,,72,127
28635,note_on,86,0,0,,4,,,76,127
28664,note_off,29,0,0,,7,,,67,127
28750,note_on,86,0,0,,0,,,72,127
28779,note_off,29,0,0,,4,,,76,127
28865,note_on,86,0,0,,7,,,79,127
28894,note_off,29,0,0,,0,,,72,127
28980,note_on,86,0,0,,4,,,76,127
29009,note_off,29,0,0,,7,,,79,127
29094,note_off,85,0,0,,0,,,36,127
29095,note_on,1,0,0,,0,,,36,127
29095,note_on,0,0,0,,0,,,48,127
29095,note_on,0,0,0,,0,,,84,127
29124,note_off,29,0,0,,4,,,76,127
29210,note_on,86,0,0,,7,,,79,127
29239,note_off,29,0,0,,0,,,84,127
29324,note_off,85,0,0,,0,,,48,127
29324,note_off,0,0,0,,0,,,36,127
29325,note_on,1,0,0,,4,,,40,127
29325,note_on,0,0,0,,4,,,52,127
29325,note_on,0,0,0,,4,,,76,127
29354,note_off,29,0,0,,7,,,79,127
29440,note_on,86,0,0,,0,,,72,127
29469,note_off,29,0,0,,4,,,76,127
29554,note_off,85,0,0,,4,,,52,127
29554,note_off,0,0,0,,4,,,40,127
29555,note_on,1,0,0,,7,,,43,127
29555,note_on,0,0,0,,7,,,55,127
29555,note_on,0,0,0,,2,,,74,127
29584,note_off,29,0,0,,0,,,72,127
29670,note_on,86,0,0,,12,,,83,127
29699,note_off,29,0,0,,2,,,74,127
29784,note_off,85,0,0,,7,,,55,127
29784,note_off,0,0,0,,7,,,43,127
29785,note_on,1,0,0,,0,,,36,127
29785,note_on,0,0,0,,0,,,48,127
29785,note_on,0,0,0,,0,,,84,127
29785,note_on,0,0,0,,0,,,72,127
29814,note_off,29,0,0,,12,,,83,127
30475,note_off,661,0,0,,0,,,72,127
30475,note_off,0,0,0,,0,,,84,127
30475,note_off,0,0,0,,0,,,48,127
30475,note_off,0,0,0,,0,,,36,127
30476,note_on,1,0,0,,4,,,76,127
30476,note_on,0,0,0,,0,,,72,127
30591,note_on,115,0,0,,7,,,79,127
30620,note_off,29,0,0,,4,,,76,127
30705,note_off,85,0,0,,0,,,72,127
30706,note_on,1,0,0,,2,,,74,127
30706,note_on,0,0,0,,12,,,71,127
30735,note_off,29,0,0,,7,,,79,127
30821,note_on,86,0,0,,7,,,79,127
30850,note_off,29,0,0,,2,,,74,127
30935,note_off,85,0,0,,12,,,71,127
30936,note_on,1,0,0,,0,,,72,127
30936,note_on,0,0,0,,10,,,69,127
30965,note_off,29,0,0,,7,,,79,127
31051,note_on,86,0,0,,7,,,79,127
31080,note_off,29,0,0,,0,,,72,127
31165,note_off,85,0,0,,10,,,69,127
31166,note_on,1,0,0,,12,,,71,127
31166,note_on,0,0,0,,7,,,67,127
31195,note_off,29,0,0,,7,,,79,127
31281,note_on,86,0,0,,7,,,79,127
31310,note_off,29,0,0,,12,,,71,127
31395,note_off,85,0,0,,7,,,67,127
31396,note_on,1,0,0,,0,,,72,127
31396,note_on,0,0,0,,10,,,69,127
31425,note_off,29,0,0,,7,,,79,127
31511,note_on,86,0,0,,7,,,79,127
31540,note_off,29,0,0,,0,,,72,127
31625,note_off,85,0,0,,10,,,69,127
31626,note_on,1,0,0,,2,,,74,127
31626,note_on,0,0,0,,12,,,71,127
31655,note_off,29,0,0,,7,,,79,127
31741,note_on,86,0,0,,7,,,79,127
31770,note_off,29,0,0,,2,,,74,127
31855,note_off,85,0,0,,12,,,71,127
31856,note_on,1,0,0,,4,,,76,127
31856,note_on,0,0,0,,0,,,72,127
31885,note_off,29,0,0,,7,,,79,127
31971,note_on,86,0,0,,7,,,79,127
32000,note_off,29,0,0,,4,,,76,127
32085,note_off,85,0,0,,0,,,72,127
32086,note_on,1,0,0,,2,,,74,127
32086,note_on,0,0,0,,12,,,71,127
32115,note_off,29,0,0,,7,,,79,127
32201,note_on,86,0,0,,7,,,79,127
32230,note_off,29,0,0,,2,,,74,127
32315,note_off,85,0,0,,12,,,71,127
32316,note_on,1,0,0,,0,,,72,127
32316,note_on,0,0,0,,10,,,69,127
32345,note_off,29,0,0,,7,,,79,127
32431,note_on,86,0,0,,7,,,79,127
32460,note_off,29,0,0,,0,,,72,127
32545,note_off,85,0,0,,10,,,69,127
32546,note_on,1,0,0,,12,,,71,127
32546,note_on,0,0,0,,7,,,67,127
32575,note_off,29,0,0,,7,,,79,127
32661,note_on,86,0,0,,7,,,79,127
32690,note_off,29,0,0,,12,,,71,127
32775,note_off,85,0,0,,7,,,67,127
32776,note_on,1,0,0,,0,,,72,127
32776,note_on,0,0,0,,10,,,69,127
32805,note_off,29,0,0,,7,,,79,127
32891,note_on,86,0,0,,7,,,79,127
32920,note_off,29,0,0,,0,,,72,127
33005,note_off,85,0,0,,10,,,69,127
33006,note_on,1,0,0,,2,,,74,127
33006,note_on,0,0,0,,12,,,71,127
33035,note_off,29,0,0,,7,,,79,127
33121,note_on,86,0,0,,7,,,79,127
33150,note_off,29,0,0,,2,,,74,127
33228,note_off,78,0,0,,12,,,71,127
33235,note_off,7,0,0,,7,,,79,127
33236,note_on,1,0,0,,1,,,73,127
33236,note_on,0,0,0,,10,,,69,127
33351,note_on,115,0,0,,10,,,81,127
33380,note_off,29,0,0,,1,,,73,127
33465,note_off,85,0,0,,10,,,69,127
33466,note_on,1,0,0,,2,,,74,127
33466,note_on,0,0,0,,12,,,71,127
33495,note_off,29,0,0,,10,,,81,127
33581,note_on,86,0,0,,10,,,81,127
33610,note_off,29,0,0,,2,,,74,127
33695,note_off,85,0,0,,12,,,71,127
33696,note_on,1,0,0,,4,,,76,127
33696,note_on,0,0,0,,1,,,73,127
33725,note_off,29,0,0,,10,,,81,127
33811,note_on,86,0,0,,10,,,81,127
33840,note_off,29,0,0,,4,,,76,127
33925,note_off,85,0,0,,1,,,73,127
33926,note_on,1,0,0,,5,,,77,127
33926,note_on,0,0,0,,2,,,74,127
33955,note_off,29,0,0,,10,,,81,127
34041,note_on,86,0,0,,10,,,81,127
34070,note_off,29,0,0,,5,,,77,127
34155,note_off,85,0,0,,2,,,74,127
34156,note_on,1,0,0,,4,,,76,127
34156,note_on,0,0,0,,0,,,72,127
34185,note_off,29,0,0,,10,,,81,127
34271,note_on,86,0,0,,10,,,81,127
34300,note_off,29,0,0,,4,,,76,127
34385,note_off,85,0,0,,0,,,72,127
34386,note_on,1,0,0,,2,,,74,127
34386,note_on,0,0,0,,11,,,70,127
34415,note_off,29,0,0,,10,,,81,127
34501,note_on,86,0,0,,10,,,81,127
34530,note_off,29,0,0,,2,,,74,127
34615,note_off,85,0,0,,11,,,70,127
34616,note_on,1,0,0,,1,,,73,127
34616,note_on,0,0,0,,10,,,69,127
34645,note_off,29,0,0,,10,,,81,127
34731,note_on,86,0,0,,10,,,81,127
34760,note_off,29,0,0,,1,,,73,127
34845,note_off,85,0,0,,10,,,69,127
34846,note_on,1,0,0,,2,,,74,127
34846,note_on,0,0,0,,11,,,70,127
34875,note_off,29,0,0,,10,,,81,127
34961,note_on,86,0,0,,10,,,81,127
34990,note_off,29,0,0,,2,,,74,127
35075,note_off,85,0,0,,11,,,70,127
35076,note_on,1,0,0,,1,,,73,127
35076,note_on,0,0,0,,10,,,69,127
35105,note_off,29,0,0,,10,,,81,127
35191,note_on,86,0,0,,10,,,81,127
35220,note_off,29,0,0,,1,,,73,127
35305,note_off,85,0,0,,10,,,69,127
35306,note_on,1,0,0,,5,,,77,127
35306,note_on,0,0,0,,2,,,74,127
35335,note_off,29,0,0,,10,,,81,127
35421,note_on,86,0,0,,10,,,81,127
35450,note_off,29,0,0,,5,,,77,127
35535,note_off,85,0,0,,2,,,74,127
35536,note_on,1,0,0,,4,,,76,127
35536,note_on,0,0,0,,0,,,72,127
35565,note_off,29,0,0,,10,,,81,127
35651,note_on,86,0,0,,10,,,81,127
35680,note_off,29,0,0,,4,,,76,127
35765,note_off,85,0,0,,0,,,72,127
35766,note_on,1,0,0,,2,,,74,127
35766,note_on,0,0,0,,11,,,70,127
35795,note_off,29,0,0,,10,,,81,127
35881,note_on,86,0,0,,10,,,81,127
35910,note_off,29,0,0,,2,,,74,127
35995,note_off,85,0,0,,11,,,70,127
35996,note_on,1,0,0,,1,,,73,127
35996,note_on,0,0,0,,10,,,69,127
36025,note_off,29,0,0,,10,,,81,127
36111,note_on,86,0,0,,10,,,81,127
36140,note_off,29,0,0,,1,,,73,127
36225,note_off,85,0,0,,10,,,69,127
36226,note_on,1,0,0,,2,,,74,127
36226,note_on,0,0,0,,11,,,70,127
36255,note_off,29,0,0,,10,,,81,127
36341,note_on,86,0,0,,10,,,81,127
36370,note_off,29,0,0,,2,,,74,127
36455,note_off,85,0,0,,11,,,70,127
36456,note_on,1,0,0,,1,,,73,127
36456,note_on,0,0,0,,10,,,69,127
36485,note_off,29,0,0,,10,,,81,127
36571,note_on,86,0,0,,10,,,81,127
36600,note_off,29,0,0,,1,,,73,127
36678,note_off,78,0,0,,10,,,69,127
36684,note_off,6,0,0,,10,,,81,127
36686,note_on,2,0,0,,2,,,74,127
36686,note_on,0,0,0,,11,,,70,127
36801,note_on,115,0,0,,7,,,79,127
36830,note_off,29,0,0,,2,,,74,127
36915,note_off,85,0,0,,11,,,70,127
36916,note_on,1,0,0,,0,,,72,127
36916,note_on,0,0,0,,10,,,69,127
36945,note_off,29,0,0,,7,,,79,127
37031,note_on,86,0,0,,5,,,77,127
37060,note_off,29,0,0,,0,,,72,127
37145,note_off,85,0,0,,10,,,69,127
37146,note_on,1,0,0,,11,,,70,127
37146,note_on,0,0,0,,7,,,67,127
37175,note_off,29,0,0,,5,,,77,127
37261,note_on,86,0,0,,4,,,76,127
37290,note_off,29,0,0,,11,,,70,127
37375,note_off,85,0,0,,7,,,67,127
37376,note_on,1,0,0,,10,,,69,127
37376,note_on,0,0,0,,5,,,65,127
37405,note_off,29,0,0,,4,,,76,127
37491,note_on,86,0,0,,2,,,74,127
37520,note_off,29,0,0,,10,,,69,127
37605,note_off,85,0,0,,5,,,65,127
37606,note_on,1,0,0,,7,,,67,127
37606,note_on,0,0,0,,4,,,64,127
37635,note_off,29,0,0,,2,,,74,127
37721,note_on,86,0,0,,1,,,73,127
37750,note_off,29,0,0,,7,,,67,127
37835,note_off,85,0,0,,4,,,64,127
37836,note_on,1,0,0,,10,,,69,127
37836,note_on,0,0,0,,5,,,65,127
37865,note_off,29,0,0,,1,,,73,127
37951,note_on,86,0,0,,2,,,74,127
37980,note_off,29,0,0,,10,,,69,127
38065,note_off,85,0,0,,5,,,65,127
38066,note_on,1,0,0,,11,,,70,127
38066,note_on,0,0,0,,7,,,67,127
38095,note_off,29,0,0,,2,,,74,127
38181,note_on,86,0,0,,4,,,76,127
38239,note_off,58,0,0,,11,,,70,127
38295,note_off,56,0,0,,7,,,67,127
38296,note_on,1,0,0,,10,,,69,127
38296,note_on,0,0,0,,5,,,65,127
38354,note_off,58,0,0,,4,,,76,127
38412,note_on,58,0,0,,2,,,74,127
38470,note_off,58,0,0,,10,,,69,127
38526,note_off,56,0,0,,5,,,65,127
38527,note_on,1,0,0,,7,,,67,127
38527,note_on,0,0,0,,4,,,64,127
38585,note_off,58,0,0,,2,,,74,127
38643,note_on,58,0,0,,1,,,73,127
38701,note_off,58,0,0,,7,,,67,127
38757,note_off,56,0,0,,4,,,64,127
38758,note_on,1,0,0,,10,,,69,127
38758,note_on,0,0,0,,5,,,65,127
38816,note_off,58,0,0,,1,,,73,127
38874,note_on,58,0,0,,2,,,74,127
38932,note_off,58,0,0,,10,,,69,127
38988,note_off,56,0,0,,5,,,65,127
38989,note_on,1,0,0,,7,,,67,127
38989,note_on,0,0,0,,4,,,64,127
39047,note_off,58,0,0,,2,,,74,127
39105,note_on,58,0,0,,1,,,73,127
39163,note_off,58,0,0,,7,,,67,127
39219,note_off,56,0,0,,4,,,64,127
39220,note_on,1,0,0,,10,,,69,127
39220,note_on,0,0,0,,5,,,65,127
39278,note_off,58,0,0,,1,,,73,127
39336,note_on,58,0,0,,2,,,74,127
39394,note_off,58,0,0,,10,,,69,127
39450,note_off,56,0,0,,5,,,65,127
39451,note_on,1,0,0,,11,,,70,127
39451,note_on,0,0,0,,7,,,67,127
39509,note_off,58,0,0,,2,,,74,127
39567,note_on,58,0,0,,4,,,76,127
39596,note_off,29,0,0,,11,,,70,127
39681,note_off,85,0,0,,7,,,67,127
39682,note_on,1,0,0,,10,,,69,127
39682,note_on,0,0,0,,5,,,65,127
39711,note_off,29,0,0,,4,,,76,127
39797,note_on,86,0,0,,2,,,74,127
39826,note_off,29,0,0,,10,,,69,127
39911,note_off,85,0,0,,5,,,65,127
39912,note_on,1,0,0,,7,,,67,127
39912,note_on,0,0,0,,4,,,64,127
39941,note_off,29,0,0,,2,,,74,127
40027,note_on,86,0,0,,1,,,73,127
40056,note_off,29,0,0,,7,,,67,127
40141,note_off,85,0,0,,4,,,64,127
40142,note_on,1,0,0,,10,,,69,127
40142,note_on,0,0,0,,5,,,65,127
40171,note_off,29,0,0,,1,,,73,127
40257,note_on,86,0,0,,2,,,74,127
40286,note_off,29,0,0,,10,,,69,127
40371,note_off,85,0,0,,5,,,65,127
40372,note_on,1,0,0,,7,,,67,127
40372,note_on,0,0,0,,4,,,64,127
40401,note_off,29,0,0,,2,,,74,127
40487,note_on,86,0,0,,1,,,73,127
40516,note_off,29,0,0,,7,,,67,127
40601,note_off,85,0,0,,4,,,64,127
40602,note_on,1,0,0,,10,,,69,127
40602,note_on,0,0,0,,5,,,65,127
40631,note_off,29,0,0,,1,,,73,127
40717,note_on,86,0,0,,2,,,74,127
40746,note_off,29,0,0,,10,,,69,127
40831,note_off,85,0,0,,5,,,65,127
40832,note_on,1,0,0,,7,,,67,127
40832,note_on,0,0,0,,11,,,82,127
40861,note_off,29,0,0,,2,,,74,127
40947,note_on,86,0,0,,7,,,79,127
40976,note_off,29,0,0,,11,,,82,127
41061,note_off,85,0,0,,7,,,67,127
41062,note_on,1,0,0,,1,,,61,127
41062,note_on,0,0,0,,10,,,81,127
41091,note_off,29,0,0,,7,,,79,127
41177,note_on,86,0,0,,5,,,77,127
41206,note_off,29,0,0,,10,,,81,127
41291,note_off,85,0,0,,1,,,61,127
41292,note_on,1,0,0,,10,,,57,127
41292,note_on,0,0,0,,7,,,79,127
41321,note_off,29,0,0,,5,,,77,127
41407,note_on,86,0,0,,4,,,76,127
41436,note_off,29,0,0,,7,,,79,127
41521,note_off,85,0,0,,10,,,57,127
41522,note_on,1,0,0,,2,,,62,127
41522,note_on,0,0,0,,5,,,77,127
41551,note_off,29,0,0,,4,,,76,127
41637,note_on,86,0,0,,2,,,74,127
41666,note_off,29,0,0,,5,,,77,127
41751,note_off,85,0,0,,2,,,62,127
41752,note_on,1,0,0,,10,,,57,127
41752,note_on,0,0,0,,4,,,76,127
41781,note_off,29,0,0,,2,,,74,127
41867,note_on,86,0,0,,1,,,73,127
41896,note_off,29,0,0,,4,,,76,127
41981,note_off,85,0,0,,10,,,57,127
41982,note_on,1,0,0,,11,,,58,127
41982,note_on,0,0,0,,2,,,74,127
42011,note_off,29,0,0,,1,,,73,127
42097,note_on,86,0,0,,5,,,77,127
42126,note_off,29,0,0,,2,,,74,127
42211,note_off,85,0,0,,11,,,58,127
42212,note_on,1,0,0,,7,,,67,127
42212,note_on,0,0,0,,7,,,55,127
42212,note_on,0,0,0,,7,,,79,127
42241,note_off,29,0,0,,5,,,77,127
42327,note_on,86,0,0,,4,,,76,127
42356,note_off,29,0,0,,7,,,79,127
42441,note_off,85,0,0,,7,,,55,127
42441,note_off,0,0,0,,7,,,67,127
42442,note_on,1,0,0,,5,,,65,127
42442,note_on,0,0,0,,10,,,57,127
42442,note_on,0,0,0,,5,,,77,127
42471,note_off,29,0,0,,4,,,76,127
42557,note_on,86,0,0,,2,,,74,127
42586,note_off,29,0,0,,5,,,77,127
42671,note_off,85,0,0,,5,,,65,127
42672,note_on,1,0,0,,4,,,64,127
42672,note_on,0,0,0,,4,,,76,127
42701,note_off,29,0,0,,2,,,74,127
42787,note_on,86,0,0,,1,,,73,127
42816,note_off,29,0,0,,4,,,76,127
42893,note_off,77,0,0,,4,,,64,127
42900,note_off,7,0,0,,1,,,73,127
42901,note_off,1,0,0,,10,,,57,127
42902,note_on,1,0,0,,2,,,62,127
42902,note_on,0,0,0,,5,,,77,127
43017,note_on,115,0,0,,4,,,76,127
43046,note_off,29,0,0,,5,,,77,127
43131,note_off,85,0,0,,2,,,62,127
43132,note_on,1,0,0,,4,,,64,127
43132,note_on,0,0,0,,2,,,74,127
43161,note_off,29,0,0,,4,,,76,127
43247,note_on,86,0,0,,0,,,72,127
43276,note_off,29,0,0,,2,,,74,127
43361,note_off,85,0,0,,4,,,64,127
43362,note_on,1,0,0,,5,,,65,127
43362,note_on,0,0,0,,12,,,71,127
43391,note_off,29,0,0,,0,,,72,127
43477,note_on,86,0,0,,10,,,69,127
43506,note_off,29,0,0,,12,,,71,127
43591,note_off,85,0,0,,5,,,65,127
43592,note_on,1,0,0,,4,,,64,127
43592,note_on,0,0,0,,8,,,68,127
43621,note_off,29,0,0,,10,,,69,127
43707,note_on,86,0,0,,12,,,71,127
43736,note_off,29,0,0,,8,,,68,127
43821,note_off,85,0,0,,4,,,64,127
43822,note_on,1,0,0,,6,,,66,127
43822,note_on,0,0,0,,10,,,69,127
43851,note_off,29,0,0,,12,,,71,127
43937,note_on,86,0,0,,0,,,72,127
43966,note_off,29,0,0,,10,,,69,127
44051,note_off,85,0,0,,6,,,66,127
44052,note_on,1,0,0,,8,,,68,127
44052,note_on,0,0,0,,12,,,71,127
44081,note_off,29,0,0,,0,,,72,127
44167,note_on,86,0,0,,2,,,74,127
44196,note_off,29,0,0,,12,,,71,127
44281,note_off,85,0,0,,8,,,68,127
44282,note_on,1,0,0,,10,,,69,127
44282,note_on,0,0,0,,0,,,72,127
44311,note_off,29,0,0,,2,,,74,127
44397,note_on,86,0,0,,4,,,76,127
44426,note_off,29,0,0,,0,,,72,127
44511,note_off,85,0,0,,10,,,69,127
44512,note_on,1,0,0,,12,,,71,127
44512,note_on,0,0,0,,2,,,74,127
44541,note_off,29,0,0,,4,,,76,127
44627,note_on,86,0,0,,5,,,77,127
44656,note_off,29,0,0,,2,,,74,127
44741,note_off,85,0,0,,12,,,71,127
44742,note_on,1,0,0,,0,,,72,127
44742,note_on,0,0,0,,4,,,76,127
44771,note_off,29,0,0,,5,,,77,127
44857,note_on,86,0,0,,7,,,79,127
44886,note_off,29,0,0,,4,,,76,127
44971,note_off,85,0,0,,0,,,72,127
44972,note_on,1,0,0,,2,,,62,127
44972,note_on,0,0,0,,5,,,77,127
45001,note_off,29,0,0,,7,,,79,127
45087,note_on,86,0,0,,4,,,76,127
45116,note_off,29,0,0,,5,,,77,127
45201,note_off,85,0,0,,2,,,62,127
45202,note_on,1,0,0,,4,,,64,127
45202,note_on,0,0,0,,2,,,74,127
45231,note_off,29,0,0,,4,,,76,127
45317,note_on,86,0,0,,0,,,72,127
45346,note_off,29,0,0,,2,,,74,127
45431,note_off,85,0,0,,4,,,64,127
45432,note_on,1,0,0,,5,,,65,127
45432,note_on,0,0,0,,12,,,71,127
45461,note_off,29,0,0,,0,,,72,127
45547,note_on,86,0,0,,10,,,69,127
45576,note_off,29,0,0,,12,,,71,127
45655,note_off,79,0,0,,10,,,69,127
45661,note_off,6,0,0,,5,,,65,127
45662,note_on,1,0,0,,4,,,52,127
45662,note_on,0,0,0,,10,,,69,127
45777,note_on,115,0,0,,8,,,68,127
45806,note_off,29,0,0,,10,,,69,127
45892,note_on,86,0,0,,6,,,66,127
45921,note_off,29,0,0,,8,,,68,127
46007,note_on,86,0,0,,8,,,68,127
46036,note_off,29,0,0,,6,,,66,127
46122,note_on,86,0,0,,4,,,64,127
46151,note_off,29,0,0,,8,,,68,127
46323,note_off,172,0,0,,4,,,64,127
46323,note_off,0,0,0,,4,,,52,127
46353,note_on,30,0,0,,0,,,72,127
46353,note_on,0,0,0,,10,,,69,127
46468,note_on,115,0,0,,4,,,76,127
46497,note_off,29,0,0,,0,,,72,127
46582,note_off,85,0,0,,10,,,69,127
46583,note_on,1,0,0,,12,,,71,127
46583,note_on,0,0,0,,7,,,67,127
46612,note_off,29,0,0,,4,,,76,127
46698,note_on,86,0,0,,4,,,76,127
46727,note_off,29,0,0,,12,,,71,127
46812,note_off,85,0,0,,7,,,67,127
46813,note_on,1,0,0,,10,,,69,127
46813,note_on,0,0,0,,5,,,65,127
46842,note_off,29,0,0,,4,,,76,127
46928,note_on,86,0,0,,4,,,76,127
46957,note_off,29,0,0,,10,,,69,127
47042,note_off,85,0,0,,5,,,65,127
47043,note_on,1,0,0,,8,,,68,127
47043,note_on,0,0,0,,4,,,64,127
47072,note_off,29,0,0,,4,,,76,127
47158,note_on,86,0,0,,4,,,76,127
47187,note_off,29,0,0,,8,,,68,127
47272,note_off,85,0,0,,4,,,64,127
47273,note_on,1,0,0,,10,,,69,127
47273,note_on,0,0,0,,6,,,66,127
47302,note_off,29,0,0,,4,,,76,127
47388,note_on,86,0,0,,4,,,76,127
47417,note_off,29,0,0,,10,,,69,127
47502,note_off,85,0,0,,6,,,66,127
47503,note_on,1,0,0,,12,,,71,127
47503,note_on,0,0,0,,8,,,68,127
47532,note_off,29,0,0,,4,,,76,127
47618,note_on,86,0,0,,4,,,76,127
47647,note_off,29,0,0,,12,,,71,127
47732,note_off,85,0,0,,8,,,68,127
47733,note_on,1,0,0,,0,,,72,127
47733,note_on,0,0,0,,10,,,69,127
47762,note_off,29,0,0,,4,,,76,127
47848,note_on,86,0,0,,4,,,76,127
47877,note_off,29,0,0,,0,,,72,127
47962,note_off,85,0,0,,10,,,69,127
47963,note_on,1,0,0,,12,,,71,127
47963,note_on,0,0,0,,7,,,67,127
47992,note_off,29,0,0,,4,,,76,127
48078,note_on,86,0,0,,4,,,76,127
48107,note_off,29,0,0,,12,,,71,127
48192,note_off,85,0,0,,7,,,67,127
48193,note_on,1,0,0,,10,,,69,127
48193,note_on,0,0,0,,5,,,65,127
48222,note_off,29,0,0,,4,,,76,127
48308,note_on,86,0,0,,4,,,76,127
48337,note_off,29,0,0,,10,,,69,127
48422,note_off,85,0,0,,5,,,65,127
48423,note_on,1,0,0,,8,,,68,127
48423,note_on,0,0,0,,4,,,64,127
48452,note_off,29,0,0,,4,,,76,127
48538,note_on,86,0,0,,4,,,76,127
48567,note_off,29,0,0,,8,,,68,127
48652,note_off,85,0,0,,4,,,64,127
48653,note_on,1,0,0,,10,,,69,127
48653,note_on,0,0,0,,5,,,65,127
48682,note_off,29,0,0,,4,,,76,127
48768,note_on,86,0,0,,4,,,76,127
48797,note_off,29,0,0,,10,,,69,127
48882,note_off,85,0,0,,5,,,65,127
48883,note_on,1,0,0,,8,,,68,127
48883,note_on,0,0,0,,4,,,64,127
48912,note_off,29,0,0,,4,,,76,127
48998,note_on,86,0,0,,4,,,76,127
49027,note_off,29,0,0,,8,,,68,127
49112,note_off,85,0,0,,4,,,64,127
49113,note_on,1,0,0,,10,,,69,127
49113,note_on,0,0,0,,5,,,65,127
49142,note_off,29,0,0,,4,,,76,127
49228,note_on,86,0,0,,2,,,74,127
49257,note_off,29,0,0,,10,,,69,127
49342,note_off,85,0,0,,5,,,65,127
49343,note_on,1,0,0,,7,,,67,127
49343,note_on,0,0,0,,4,,,64,127
49372,note_off,29,0,0,,2,,,74,127
49458,note_on,86,0,0,,0,,,72,127
49487,note_off,29,0,0,,7,,,67,127
49572,note_off,85,0,0,,4,,,64,127
49573,note_on,1,0,0,,5,,,65,127
49573,note_on,0,0,0,,2,,,62,127
49602,note_off,29,0,0,,0,,,72,127
49688,note_on,86,0,0,,12,,,71,127
49717,note_off,29,0,0,,5,,,65,127
49802,note_off,85,0,0,,2,,,62,127
49803,note_on,1,0,0,,4,,,64,127
49803,note_on,0,0,0,,0,,,60,127
49832,note_off,29,0,0,,12,,,71,127
49918,note_on,86,0,0,,10,,,69,127
49947,note_off,29,0,0,,4,,,64,127
50032,note_off,85,0,0,,0,,,60,127
50033,note_on,1,0,0,,2,,,62,127
50033,note_on,0,0,0,,12,,,59,127
50062,note_off,29,0,0,,10,,,69,127
50148,note_on,86,0,0,,8,,,68,127
50177,note_off,29,0,0,,2,,,62,127
50262,note_off,85,0,0,,12,,,59,127
50263,note_on,1,0,0,,4,,,64,127
50263,note_on,0,0,0,,0,,,60,127
50292,note_off,29,0,0,,8,,,68,127
50378,note_on,86,0,0,,10,,,69,127
50407,note_off,29,0,0,,4,,,64,127
50492,note_off,85,0,0,,0,,,60,127
50493,note_on,1,0,0,,5,,,65,127
50493,note_on,0,0,0,,2,,,62,127
50522,note_off,29,0,0,,10,,,69,127
50608,note_on,86,0,0,,12,,,71,127
50666,note_off,58,0,0,,5,,,65,127
50722,note_off,56,0,0,,2,,,62,127
50723,note_on,1,0,0,,4,,,64,127
50723,note_on,0,0,0,,0,,,60,127
50781,note_off,58,0,0,,12,,,71,127
50839,note_on,58,0,0,,10,,,69,127
50897,note_off,58,0,0,,4,,,64,127
50953,note_off,56,0,0,,0,,,60,127
50954,note_on,1,0,0,,2,,,62,127
50954,note_on,0,0,0,,12,,,59,127
51012,note_off,58,0,0,,10,,,69,127
51070,note_on,58,0,0,,8,,,68,127
51128,note_off,58,0,0,,2,,,62,127
51184,note_off,56,0,0,,12,,,59,127
51185,note_on,1,0,0,,4,,,64,127
51185,note_on,0,0,0,,0,,,60,127
51243,note_off,58,0,0,,8,,,68,127
51301,note_on,58,0,0,,10,,,69,127
51359,note_off,58,0,0,,4,,,64,127
51415,note_off,56,0,0,,0,,,60,127
51416,note_on,1,0,0,,2,,,62,127
51416,note_on,0,0,0,,12,,,59,127
51474,note_off,58,0,0,,10,,,69,127
51532,note_on,58,0,0,,8,,,68,127
51590,note_off,58,0,0,,2,,,62,127
51646,note_off,56,0,0,,12,,,59,127
51647,note_on,1,0,0,,4,,,64,127
51647,note_on,0,0,0,,0,,,60,127
51705,note_off,58,0,0,,8,,,68,127
51763,note_on,58,0,0,,10,,,69,127
51821,note_off,58,0,0,,4,,,64,127
51877,note_off,56,0,0,,0,,,60,127
51878,note_on,1,0,0,,5,,,65,127
51878,note_on,0,0,0,,2,,,62,127
51936,note_off,58,0,0,,10,,,69,127
51994,note_on,58,0,0,,12,,,71,127
52023,note_off,29,0,0,,5,,,65,127
52108,note_off,85,0,0,,2,,,62,127
52109,note_on,1,0,0,,4,,,64,127
52109,note_on,0,0,0,,0,,,60,127
52138,note_off,29,0,0,,12,,,71,127
52224,note_on,86,0,0,,10,,,69,127
52253,note_off,29,0,0,,4,,,64,127
52338,note_off,85,0,0,,0,,,60,127
52339,note_on,1,0,0,,2,,,62,127
52339,note_on,0,0,0,,12,,,59,127
52368,note_off,29,0,0,,10,,,69,127
52454,note_on,86,0,0,,8,,,68,127
52483,note_off,29,0,0,,2,,,62,127
52568,note_off,85,0,0,,12,,,59,127
52569,note_on,1,0,0,,4,,,64,127
52569,note_on,0,0,0,,0,,,60,127
52598,note_off,29,0,0,,8,,,68,127
52684,note_on,86,0,0,,10,,,69,127
52713,note_off,29,0,0,,4,,,64,127
52798,note_off,85,0,0,,0,,,60,127
52799,note_on,1,0,0,,2,,,62,127
52799,note_on,0,0,0,,12,,,59,127
52828,note_off,29,0,0,,10,,,69,127
52914,note_on,86,0,0,,8,,,68,127
52943,note_off,29,0,0,,2,,,62,127
53028,note_off,85,0,0,,12,,,59,127
53029,note_on,1,0,0,,4,,,64,127
53029,note_on,0,0,0,,0,,,60,127
53058,note_off,29,0,0,,8,,,68,127
53144,note_on,86,0,0,,10,,,69,127
53173,note_off,29,0,0,,4,,,64,127
53258,note_off,85,0,0,,0,,,60,127
53259,note_on,1,0,0,,2,,,62,127
53259,note_on,0,0,0,,5,,,77,127
53288,note_off,29,0,0,,10,,,69,127
53374,note_on,86,0,0,,2,,,74,127
53403,note_off,29,0,0,,5,,,77,127
53488,note_off,85,0,0,,2,,,62,127
53489,note_on,1,0,0,,8,,,68,127
53489,note_on,0,0,0,,4,,,76,127
53518,note_off,29,0,0,,2,,,74,127
53604,note_on,86,0,0,,0,,,72,127
53633,note_off,29,0,0,,4,,,76,127
53718,note_off,85,0,0,,8,,,68,127
53719,note_on,1,0,0,,4,,,64,127
53719,note_on,0,0,0,,2,,,74,127
53748,note_off,29,0,0,,0,,,72,127
53834,note_on,86,0,0,,12,,,71,127
53863,note_off,29,0,0,,2,,,74,127
53948,note_off,85,0,0,,4,,,64,127
53949,note_on,1,0,0,,10,,,57,127
53949,note_on,0,0,0,,0,,,72,127
53978,note_off,29,0,0,,12,,,71,127
54064,note_on,86,0,0,,10,,,69,127
54093,note_off,29,0,0,,0,,,72,127
54178,note_off,85,0,0,,10,,,57,127
54179,note_on,1,0,0,,4,,,64,127
54179,note_on,0,0,0,,12,,,71,127
54208,note_off,29,0,0,,10,,,69,127
54294,note_on,86,0,0,,8,,,68,127
54323,note_off,29,0,0,,12,,,71,127
54408,note_off,85,0,0,,4,,,64,127
54409,note_on,1,0,0,,5,,,65,127
54409,note_on,0,0,0,,10,,,69,127
54438,note_off,29,0,0,,8,,,68,127
54524,note_on,86,0,0,,8,,,80,127
54553,note_off,29,0,0,,10,,,69,127
54638,note_off,85,0,0,,5,,,65,127
54639,note_on,1,0,0,,2,,,62,127
54639,note_on,0,0,0,,10,,,81,127
54668,note_off,29,0,0,,8,,,80,127
54754,note_on,86,0,0,,2,,,74,127
54867,note_off,113,0,0,,10,,,81,127
54868,note_off,1,0,0,,2,,,62,127
54869,note_on,1,0,0,,4,,,64,127
54869,note_on,0,0,0,,0,,,72,127
54898,note_off,29,0,0,,2,,,74,127
54984,note_on,86,0,0,,10,,,81,127
55097,note_off,113,0,0,,0,,,72,127
55098,note_off,1,0,0,,4,,,64,127
55099,note_on,1,0,0,,4,,,52,127
55099,note_on,0,0,0,,12,,,71,127
55212,note_off,113,0,0,,10,,,81,127
55214,note_on,2,0,0,,8,,,80,127
55305,note_off,91,0,0,,8,,,80,127
55315,note_off,10,0,0,,12,,,71,127
55315,note_off,0,0,0,,4,,,52,127
55329,note_on,14,0,0,,10,,,57,127
55329,note_on,0,0,0,,10,,,69,127
55444,note_on,115,0,0,,4,,,76,127
55473,note_off,29,0,0,,10,,,69,127
55558,note_off,85,0,0,,10,,,57,127
55559,note_on,1,0,0,,2,,,62,127
55559,note_on,0,0,0,,5,,,77,127
55588,note_off,29,0,0,,4,,,76,127
55788,note_off,200,0,0,,5,,,77,127
55788,note_off,0,0,0,,2,,,62,127
55789,note_on,1,0,0,,12,,,59,127
55789,note_on,0,0,0,,8,,,68,127
56018,note_off,229,0,0,,8,,,68,127
56018,note_off,0,0,0,,12,,,59,127
56019,note_on,1,0,0,,0,,,60,127
56019,note_on,0,0,0,,10,,,69,127
56134,note_on,115,0,0,,4,,,76,127
56163,note_off,29,0,0,,10,,,69,127
56248,note_off,85,0,0,,0,,,60,127
56249,note_on,1,0,0,,2,,,62,127
56249,note_on,0,0,0,,5,,,77,127
56278,note_off,29,0,0,,4,,,76,127
56478,note_off,200,0,0,,5,,,77,127
56478,note_off,0,0,0,,2,,,62,127
56479,note_on,1,0,0,,12,,,59,127
56479,note_on,0,0,0,,8,,,68,127
56708,note_off,229,0,0,,8,,,68,127
56708,note_off,0,0,0,,12,,,59,127
56709,note_on,1,0,0,,0,,,60,127
56709,note_on,0,0,0,,10,,,69,127
56824,note_on,115,0,0,,4,,,76,127
56853,note_off,29,0,0,,10,,,69,127
56938,note_off,85,0,0,,0,,,60,127
56939,note_on,1,0,0,,2,,,62,127
56939,note_on,0,0,0,,5,,,77,127
56968,note_off,29,0,0,,4,,,76,127
57168,note_off,200,0,0,,5,,,77,127
57168,note_off,0,0,0,,2,,,62,127
57169,note_on,1,0,0,,12,,,59,127
57169,note_on,0,0,0,,8,,,68,127
57398,note_off,229,0,0,,8,,,68,127
57398,note_off,0,0,0,,12,,,59,127
57399,note_on,1,0,0,,0,,,60,127
57399,note_on,0,0,0,,10,,,69,127
57514,note_on,115,0,0,,8,,,80,127
57543,note_off,29,0,0,,10,,,69,127
57628,note_off,85,0,0,,0,,,60,127
57629,note_on,1,0,0,,10,,,57,127
57629,note_on,0,0,0,,10,,,81,127
57658,note_off,29,0,0,,8,,,80,127
57858,note_off,200,0,0,,10,,,81,127
57859,note_on,1,0,0,,7,,,79,127
58088,note_off,229,0,0,,7,,,79,127
58088,note_off,0,0,0,,10,,,57,127
58089,note_on,1,0,0,,10,,,57,127
58089,note_on,0,0,0,,5,,,77,127
58204,note_on,115,0,0,,4,,,76,127
58233,note_off,29,0,0,,5,,,77,127
58318,note_off,85,0,0,,10,,,57,127
58319,note_on,1,0,0,,10,,,69,127
58319,note_on,0,0,0,,3,,,75,127
58348,note_off,29,0,0,,4,,,76,127
58548,note_off,200,0,0,,3,,,75,127
58548,note_off,0,0,0,,10,,,69,127
58549,note_on,1,0,0,,8,,,68,127
58549,note_on,0,0,0,,4,,,76,127
58778,note_off,229,0,0,,4,,,76,127
58779,note_on,1,0,0,,2,,,74,127
58894,note_off,115,0,0,,8,,,68,127
58894,note_on,0,0,0,,0,,,72,127
58923,note_off,29,0,0,,2,,,74,127
59009,note_on,86,0,0,,8,,,68,127
59009,note_on,0,0,0,,12,,,71,127
59038,note_off,29,0,0,,0,,,72,127
59238,note_off,200,0,0,,12,,,71,127
59238,note_off,0,0,0,,8,,,68,127
59239,note_on,1,0,0,,10,,,69,127
59239,note_on,0,0,0,,0,,,72,127
59468,note_off,229,0,0,,0,,,72,127
59469,note_on,1,0,0,,11,,,70,127
59584,note_off,115,0,0,,10,,,69,127
59584,note_on,0,0,0,,10,,,69,127
59613,note_off,29,0,0,,11,,,70,127
59699,note_on,86,0,0,,4,,,64,127
59699,note_on,0,0,0,,8,,,68,127
59728,note_off,29,0,0,,10,,,69,127
59928,note_off,200,0,0,,8,,,68,127
59928,note_off,0,0,0,,4,,,64,127
59929,note_on,1,0,0,,5,,,65,127
59929,note_on,0,0,0,,10,,,69,127
60158,note_off,229,0,0,,10,,,69,127
60159,note_on,1,0,0,,8,,,68,127
60274,note_off,115,0,0,,5,,,65,127
60274,note_on,0,0,0,,6,,,66,127
60303,note_off,29,0,0,,8,,,68,127
60389,note_on,86,0,0,,4,,,52,127
60389,note_on,0,0,0,,4,,,64,127
60418,note_off,29,0,0,,6,,,66,127
60618,note_off,200,0,0,,4,,,64,127
60619,note_on,1,0,0,,2,,,62,127
60619,note_on,0,0,0,,5,,,65,127
60848,note_off,229,0,0,,5,,,65,127
60848,note_off,0,0,0,,2,,,62,127
60849,note_on,1,0,0,,0,,,60,127
60849,note_on,0,0,0,,4,,,64,127
60964,note_on,115,0,0,,12,,,59,127
60964,note_on,0,0,0,,2,,,62,127
60993,note_off,29,0,0,,4,,,64,127
60993,note_off,0,0,0,,0,,,60,127
61079,note_on,86,0,0,,10,,,57,127
61079,note_on,0,0,0,,0,,,60,127
61108,note_off,29,0,0,,2,,,62,127
61108,note_off,0,0,0,,12,,,59,127
61308,note_off,200,0,0,,0,,,60,127
61308,note_off,0,0,0,,10,,,57,127
61308,note_off,0,0,0,,4,,,52,127
61309,note_on,1,0,0,,8,,,56,127
61309,note_on,0,0,0,,2,,,62,127
61538,note_off,229,0,0,,2,,,62,127
61538,note_off,0,0,0,,8,,,56,127
61539,note_on,1,0,0,,10,,,45,127
61539,note_on,0,0,0,,0,,,60,127
61654,note_on,115,0,0,,10,,,57,127
61683,note_off,29,0,0,,0,,,60,127
61767,note_off,84,0,0,,10,,,57,127
61769,note_on,2,0,0,,10,,,57,127
61769,note_on,0,0,0,,0,,,60,127
61884,note_off,115,0,0,,10,,,45,127
61884,note_on,0,0,0,,4,,,64,127
61913,note_off,29,0,0,,0,,,60,127
61998,note_off,85,0,0,,10,,,57,127
61999,note_on,1,0,0,,0,,,48,127
61999,note_on,0,0,0,,10,,,69,127
62028,note_off,29,0,0,,4,,,64,127
62114,note_on,86,0,0,,4,,,64,127
62143,note_off,29,0,0,,10,,,69,127
62228,note_off,85,0,0,,0,,,48,127
62229,note_on,1,0,0,,2,,,50,127
62229,note_on,0,0,0,,5,,,65,127
62258,note_off,29,0,0,,4,,,64,127
62344,note_on,86,0,0,,2,,,62,127
62373,note_off,29,0,0,,5,,,65,127
62458,note_off,85,0,0,,2,,,50,127
62459,note_on,1,0,0,,4,,,52,127
62459,note_on,0,0,0,,0,,,60,127
62488,note_off,29,0,0,,2,,,62,127
62574,note_on,86,0,0,,10,,,69,127
62603,note_off,29,0,0,,0,,,60,127
62689,note_on,86,0,0,,4,,,40,127
62689,note_on,0,0,0,,12,,,59,127
62718,note_off,29,0,0,,10,,,69,127
62804,note_on,86,0,0,,8,,,68,127
62833,note_off,29,0,0,,12,,,59,127
62918,note_off,85,0,0,,4,,,40,127
62918,note_off,0,0,0,,4,,,52,127
62922,note_on,4,0,0,,10,,,69,127
62922,note_on,0,0,0,,10,,,45,127
62951,note_off,29,0,0,,8,,,68,127
63041,note_on,90,0,0,,4,,,64,127
63069,note_off,28,0,0,,10,,,69,127
63160,note_on,91,0,0,,0,,,60,127
63188,note_off,28,0,0,,4,,,64,127
63279,note_on,91,0,0,,10,,,57,127
63307,note_off,28,0,0,,0,,,60,127
63398,note_on,91,0,0,,12,,,71,127
63426,note_off,28,0,0,,10,,,57,127
63517,note_on,91,0,0,,8,,,68,127
63545,note_off,28,0,0,,12,,,71,127
63627,note_off,82,0,0,,10,,,45,127
63637,note_on,10,0,0,,10,,,69,127
63637,note_on,0,0,0,,10,,,45,127
63665,note_off,28,0,0,,8,,,68,127
63756,note_on,91,0,0,,4,,,64,127
63784,note_off,28,0,0,,10,,,69,127
63874,note_on,90,0,0,,0,,,72,127
63903,note_off,29,0,0,,4,,,64,127
63993,note_on,90,0,0,,10,,,69,127
64021,note_off,28,0,0,,0,,,72,127
64112,note_on,91,0,0,,4,,,76,127
64140,note_off,28,0,0,,10,,,69,127
64231,note_on,91,0,0,,0,,,72,127
64259,note_off,28,0,0,,4,,,76,127
64342,note_off,83,0,0,,10,,,45,127
64353,note_on,11,0,0,,10,,,45,127
64353,note_on,0,0,0,,10,,,57,127
64353,note_on,0,0,0,,10,,,81,127
64382,note_off,29,0,0,,0,,,72,127
64476,note_on,94,0,0,,4,,,76,127
64592,note_off,116,0,0,,10,,,57,127
64592,note_off,0,0,0,,10,,,45,127
64598,note_on,6,0,0,,0,,,60,127
64598,note_on,0,0,0,,0,,,48,127
64598,note_on,0,0,0,,0,,,72,127
64626,note_off,28,0,0,,4,,,76,127
64721,note_on,95,0,0,,10,,,69,127
64749,note_off,28,0,0,,0,,,72,127
64832,note_off,83,0,0,,10,,,81,127
64838,note_off,6,0,0,,0,,,48,127
64838,note_off,0,0,0,,0,,,60,127
64844,note_on,6,0,0,,4,,,52,127
64844,note_on,0,0,0,,4,,,64,127
64844,note_on,0,0,0,,12,,,71,127
64872,note_off,28,0,0,,10,,,69,127
64967,note_on,95,0,0,,8,,,80,127
65082,note_off,115,0,0,,12,,,71,127
65083,note_off,1,0,0,,4,,,64,127
65083,note_off,0,0,0,,4,,,52,127
65091,note_off,8,0,0,,8,,,80,127
65099,note_on,8,0,0,,10,,,45,127
65099,note_on,0,0,0,,10,,,57,127
65099,note_on,0,0,0,,0,,,72,127
65099,note_on,0,0,0,,10,,,81,127
67019,note_off,1920,0,0,,10,,,81,127
67019,note_off,0,0,0,,0,,,72,127
67019,note_off,0,0,0,,10,,,57,127
67019,note_off,0,0,0,,10,,,45,127
72192,end_of_track,5173,1,0,,,,,,
