tick,type,time,meta,track,tempo,numerator,denominator,clocks_per_click,notated_32nd_notes_per_beat,note,velocity,channel
0,track_name,0,1,0,,,,,,,,
0,set_tempo,0,1,0,500000,,,,,,,
0,time_signature,0,1,0,,4,4,24,8,,,
110,note_on,110,0,0,,,,,,60,127,0
110,note_on,0,0,0,,,,,,72,127,0
328,note_off,218,0,0,,,,,,60,127,0
329,note_on,1,0,0,,,,,,48,127,0
329,note_on,0,0,0,,,,,,60,127,0
439,note_off,110,0,0,,,,,,72,127,0
548,note_off,109,0,0,,,,,,60,127,0
548,note_off,0,0,0,,,,,,48,127,0
549,note_on,1,0,0,,,,,,48,127,0
549,note_on,0,0,0,,,,,,60,127,0
767,note_off,218,0,0,,,,,,60,127,0
767,note_off,0,0,0,,,,,,48,127,0
768,note_on,1,0,0,,,,,,48,127,0
768,note_on,0,0,0,,,,,,60,127,0
986,note_off,218,0,0,,,,,,60,127,0
986,note_off,0,0,0,,,,,,48,127,0
987,note_on,1,0,0,,,,,,60,127,0
987,note_on,0,0,0,,,,,,72,127,0
1205,note_off,218,0,0,,,,,,60,127,0
1206,note_on,1,0,0,,,,,,48,127,0
1206,note_on,0,0,0,,,,,,60,127,0
1316,note_off,110,0,0,,,,,,72,127,0
1425,note_off,109,0,0,,,,,,60,127,0
1425,note_off,0,0,0,,,,,,48,127,0
1426,note_on,1,0,0,,,,,,48,127,0
1426,note_on,0,0,0,,,,,,60,127,0
1644,note_off,218,0,0,,,,,,60,127,0
1644,note_off,0,0,0,,,,,,48,127,0
1645,note_on,1,0,0,,,,,,48,127,0
1645,note_on,0,0,0,,,,,,60,127,0
1863,note_off,218,0,0,,,,,,60,127,0
1863,note_off,0,0,0,,,,,,48,127,0
1864,note_on,1,0,0,,,,,,62,127,0
1864,note_on,0,0,0,,,,,,74,127,0
1918,note_off,54,0,0,,,,,,74,127,0
1918,note_off,0,0,0,,,,,,62,127,0
1919,note_on,1,0,0,,,,,,60,127,0
1919,note_on,0,0,0,,,,,,72,127,0
1973,note_off,54,0,0,,,,,,72,127,0
1973,note_off,0,0,0,,,,,,60,127,0
1974,note_on,1,0,0,,,,,,62,127,0
1974,note_on,0,0,0,,,,,,74,127,0
2028,note_off,54,0,0,,,,,,74,127,0
2028,note_off,0,0,0,,,,,,62,127,0
2029,note_on,1,0,0,,,,,,60,127,0
2029,note_on,0,0,0,,,,,,72,127,0
2083,note_off,54,0,0,,,,,,72,127,0
2083,note_off,0,0,0,,,,,,60,127,0
2084,note_on,1,0,0,,,,,,62,127,0
2084,note_on,0,0,0,,,,,,74,127,0
2138,note_off,54,0,0,,,,,,74,127,0
2138,note_off,0,0,0,,,,,,62,127,0
2139,note_on,1,0,0,,,,,,60,127,0
2139,note_on,0,0,0,,,,,,72,127,0
2193,note_off,54,0,0,,,,,,72,127,0
2193,note_off,0,0,0,,,,,,60,127,0
2194,note_on,1,0,0,,,,,,59,127,0
2194,note_on,0,0,0,,,,,,71,127,0
2303,note_off,109,0,0,,,,,,71,127,0
2303,note_off,0,0,0,,,,,,59,127,0
2304,note_on,1,0,0,,,,,,60,127,0
2304,note_on,0,0,0,,,,,,72,127,0
2413,note_off,109,0,0,,,,,,72,127,0
2413,note_off,0,0,0,,,,,,60,127,0
2414,note_on,1,0,0,,,,,,62,127,0
2414,note_on,0,0,0,,,,,,74,127,0
2523,note_off,109,0,0,,,,,,74,127,0
2523,note_off,0,0,0,,,,,,62,127,0
2524,note_on,1,0,0,,,,,,63,127,0
2524,note_on,0,0,0,,,,,,75,127,0
2633,note_off,109,0,0,,,,,,75,127,0
2633,note_off,0,0,0,,,,,,63,127,0
2634,note_on,1,0,0,,,,,,62,127,0
2634,note_on,0,0,0,,,,,,74,127,0
2743,note_off,109,0,0,,,,,,74,127,0
2743,note_off,0,0,0,,,,,,62,127,0
2744,note_on,1,0,0,,,,,,60,127,0
2744,note_on,0,0,0,,,,,,72,127,0
2853,note_off,109,0,0,,,,,,72,127,0
2853,note_off,0,0,0,,,,,,60,127,0
2854,note_on,1,0,0,,,,,,58,127,0
2854,note_on,0,0,0,,,,,,70,127,0
2963,note_off,109,0,0,,,,,,70,127,0
2963,note_off,0,0,0,,,,,,58,127,0
2964,note_on,1,0,0,,,,,,56,127,0
2964,note_on,0,0,0,,,,,,68,127,0
3073,note_off,109,0,0,,,,,,68,127,0
3073,note_off,0,0,0,,,,,,56,127,0
3074,note_on,1,0,0,,,,,,55,127,0
3074,note_on,0,0,0,,,,,,67,127,0
3183,note_off,109,0,0,,,,,,67,127,0
3183,note_off,0,0,0,,,,,,55,127,0
3184,note_on,1,0,0,,,,,,53,127,0
3184,note_on,0,0,0,,,,,,65,127,0
3293,note_off,109,0,0,,,,,,65,127,0
3293,note_off,0,0,0,,,,,,53,127,0
3294,note_on,1,0,0,,,,,,56,127,0
3294,note_on,0,0,0,,,,,,68,127,0
3403,note_off,109,0,0,,,,,,68,127,0
3403,note_off,0,0,0,,,,,,56,127,0
3404,note_on,1,0,0,,,,,,55,127,0
3404,note_on,0,0,0,,,,,,67,127,0
3513,note_off,109,0,0,,,,,,67,127,0
3513,note_off,0,0,0,,,,,,55,127,0
3514,note_on,1,0,0,,,,,,53,127,0
3514,note_on,0,0,0,,,,,,65,127,0
3623,note_off,109,0,0,,,,,,65,127,0
3623,note_off,0,0,0,,,,,,53,127,0
3624,note_on,1,0,0,,,,,,53,127,0
3624,note_on,0,0,0,,,,,,65,127,0
3678,note_off,54,0,0,,,,,,65,127,0
3678,note_off,0,0,0,,,,,,53,127,0
3679,note_on,1,0,0,,,,,,51,127,0
3679,note_on,0,0,0,,,,,,63,127,0
3733,note_off,54,0,0,,,,,,63,127,0
3733,note_off,0,0,0,,,,,,51,127,0
3734,note_on,1,0,0,,,,,,53,127,0
3734,note_on,0,0,0,,,,,,65,127,0
3788,note_off,54,0,0,,,,,,65,127,0
3788,note_off,0,0,0,,,,,,53,127,0
3789,note_on,1,0,0,,,,,,51,127,0
3789,note_on,0,0,0,,,,,,63,127,0
3843,note_off,54,0,0,,,,,,63,127,0
3843,note_off,0,0,0,,,,,,51,127,0
3844,note_on,1,0,0,,,,,,53,127,0
3844,note_on,0,0,0,,,,,,65,127,0
3898,note_off,54,0,0,,,,,,65,127,0
3898,note_off,0,0,0,,,,,,53,127,0
3899,note_on,1,0,0,,,,,,51,127,0
3899,note_on,0,0,0,,,,,,63,127,0
3953,note_off,54,0,0,,,,,,63,127,0
3953,note_off,0,0,0,,,,,,51,127,0
3954,note_on,1,0,0,,,,,,50,127,0
3954,note_on,0,0,0,,,,,,62,127,0
4008,note_off,54,0,0,,,,,,62,127,0
4008,note_off,0,0,0,,,,,,50,127,0
4009,note_on,1,0,0,,,,,,51,127,0
4009,note_on,0,0,0,,,,,,63,127,0
4063,note_off,54,0,0,,,,,,63,127,0
4063,note_off,0,0,0,,,,,,51,127,0
4064,note_on,1,0,0,,,,,,48,127,0
4064,note_on,0,0,0,,,,,,60,127,0
4475,note_off,411,0,0,,,,,,60,127,0
4475,note_off,0,0,0,,,,,,48,127,0
4502,note_on,27,0,0,,,,,,63,127,0
4502,note_on,0,0,0,,,,,,72,127,0
4502,note_on,0,0,0,,,,,,67,127,0
4612,note_on,110,0,0,,,,,,48,127,0
4721,note_off,109,0,0,,,,,,48,127,0
4722,note_on,1,0,0,,,,,,51,127,0
4831,note_off,109,0,0,,,,,,51,127,0
4832,note_on,1,0,0,,,,,,55,127,0
4941,note_off,109,0,0,,,,,,55,127,0
4942,note_on,1,0,0,,,,,,60,127,0
5035,note_off,93,0,0,,,,,,63,127,0
5051,note_off,16,0,0,,,,,,60,127,0
5052,note_on,1,0,0,,,,,,63,127,0
5055,note_off,3,0,0,,,,,,72,127,0
5089,note_off,34,0,0,,,,,,67,127,0
5161,note_off,72,0,0,,,,,,63,127,0
5162,note_on,1,0,0,,,,,,67,127,0
5271,note_off,109,0,0,,,,,,67,127,0
5271,note_on,0,0,0,,,,,,72,127,0
5382,note_on,111,0,0,,,,,,67,127,0
5382,note_on,0,0,0,,,,,,75,127,0
5492,note_on,110,0,0,,,,,,48,127,0
5601,note_off,109,0,0,,,,,,48,127,0
5602,note_on,1,0,0,,,,,,51,127,0
5711,note_off,109,0,0,,,,,,51,127,0
5712,note_on,1,0,0,,,,,,55,127,0
5821,note_off,109,0,0,,,,,,55,127,0
5822,note_on,1,0,0,,,,,,60,127,0
5931,note_off,109,0,0,,,,,,60,127,0
5932,note_on,1,0,0,,,,,,63,127,0
5982,note_off,50,0,0,,,,,,72,127,0
6017,note_off,35,0,0,,,,,,67,127,0
6041,note_off,24,0,0,,,,,,63,127,0
6042,note_on,1,0,0,,,,,,67,127,0
6092,note_off,50,0,0,,,,,,75,127,0
6151,note_off,59,0,0,,,,,,67,127,0
6152,note_on,1,0,0,,,,,,72,127,0
6233,note_off,81,0,0,,,,,,72,127,0
6262,note_on,29,0,0,,,,,,75,127,0
6262,note_on,0,0,0,,,,,,72,127,0
6262,note_on,0,0,0,,,,,,79,127,0
6372,note_on,110,0,0,,,,,,48,127,0
6481,note_off,109,0,0,,,,,,48,127,0
6482,note_on,1,0,0,,,,,,51,127,0
6591,note_off,109,0,0,,,,,,51,127,0
6592,note_on,1,0,0,,,,,,55,127,0
6701,note_off,109,0,0,,,,,,55,127,0
6702,note_on,1,0,0,,,,,,60,127,0
6811,note_off,109,0,0,,,,,,60,127,0
6812,note_on,1,0,0,,,,,,63,127,0
6921,note_off,109,0,0,,,,,,63,127,0
6922,note_on,1,0,0,,,,,,67,127,0
6981,note_off,59,0,0,,,,,,75,127,0
7025,note_off,44,0,0,,,,,,72,127,0
7031,note_off,6,0,0,,,,,,67,127,0
7032,note_on,1,0,0,,,,,,72,127,0
7081,note_off,49,0,0,,,,,,79,127,0
7142,note_on,61,0,0,,,,,,79,127,0
7142,note_on,0,0,0,,,,,,75,127,0
7142,note_on,0,0,0,,,,,,84,127,0
7251,note_off,109,0,0,,,,,,72,127,0
7252,note_on,1,0,0,,,,,,48,127,0
7361,note_off,109,0,0,,,,,,48,127,0
7362,note_on,1,0,0,,,,,,51,127,0
7471,note_off,109,0,0,,,,,,51,127,0
7472,note_on,1,0,0,,,,,,55,127,0
7581,note_off,109,0,0,,,,,,55,127,0
7582,note_on,1,0,0,,,,,,60,127,0
7691,note_off,109,0,0,,,,,,60,127,0
7692,note_on,1,0,0,,,,,,63,127,0
7801,note_off,109,0,0,,,,,,63,127,0
7802,note_on,1,0,0,,,,,,67,127,0
7911,note_off,109,0,0,,,,,,67,127,0
7912,note_on,1,0,0,,,,,,72,127,0
8021,note_off,109,0,0,,,,,,72,127,0
8021,note_off,0,0,0,,,,,,84,127,0
8021,note_off,0,0,0,,,,,,75,127,0
8021,note_off,0,0,0,,,,,,79,127,0
8022,note_on,1,0,0,,,,,,48,127,0
8241,note_on,219,0,0,,,,,,75,127,0
8241,note_on,0,0,0,,,,,,72,127,0
8412,note_off,171,0,0,,,,,,48,127,0
8459,note_off,47,0,0,,,,,,72,127,0
8459,note_off,0,0,0,,,,,,75,127,0
8460,note_on,1,0,0,,,,,,55,127,0
8460,note_on,0,0,0,,,,,,71,127,0
8460,note_on,0,0,0,,,,,,74,127,0
8569,note_off,109,0,0,,,,,,74,127,0
8570,note_on,1,0,0,,,,,,75,127,0
8679,note_off,109,0,0,,,,,,75,127,0
8680,note_on,1,0,0,,,,,,43,127,0
8680,note_on,0,0,0,,,,,,77,127,0
8789,note_off,109,0,0,,,,,,77,127,0
8790,note_on,1,0,0,,,,,,74,127,0
8895,note_off,105,0,0,,,,,,55,127,0
8897,note_off,2,0,0,,,,,,43,127,0
8898,note_off,1,0,0,,,,,,74,127,0
8898,note_off,0,0,0,,,,,,71,127,0
8899,note_on,1,0,0,,,,,,75,127,0
8899,note_on,0,0,0,,,,,,72,127,0
9009,note_on,110,0,0,,,,,,48,127,0
9118,note_off,109,0,0,,,,,,48,127,0
9119,note_on,1,0,0,,,,,,51,127,0
9228,note_off,109,0,0,,,,,,51,127,0
9229,note_on,1,0,0,,,,,,55,127,0
9338,note_off,109,0,0,,,,,,55,127,0
9339,note_on,1,0,0,,,,,,60,127,0
9448,note_off,109,0,0,,,,,,60,127,0
9449,note_on,1,0,0,,,,,,63,127,0
9558,note_off,109,0,0,,,,,,63,127,0
9559,note_on,1,0,0,,,,,,67,127,0
9599,note_off,40,0,0,,,,,,72,127,0
9668,note_off,69,0,0,,,,,,67,127,0
9669,note_on,1,0,0,,,,,,72,127,0
9778,note_off,109,0,0,,,,,,72,127,0
9778,note_off,0,0,0,,,,,,75,127,0
9779,note_on,1,0,0,,,,,,48,127,0
9998,note_on,219,0,0,,,,,,84,127,0
9998,note_on,0,0,0,,,,,,75,127,0
10169,note_off,171,0,0,,,,,,48,127,0
10216,note_off,47,0,0,,,,,,75,127,0
10216,note_off,0,0,0,,,,,,84,127,0
10217,note_on,1,0,0,,,,,,55,127,0
10217,note_on,0,0,0,,,,,,74,127,0
10217,note_on,0,0,0,,,,,,83,127,0
10326,note_off,109,0,0,,,,,,74,127,0
10327,note_on,1,0,0,,,,,,75,127,0
10436,note_off,109,0,0,,,,,,75,127,0
10437,note_on,1,0,0,,,,,,43,127,0
10437,note_on,0,0,0,,,,,,77,127,0
10546,note_off,109,0,0,,,,,,77,127,0
10547,note_on,1,0,0,,,,,,74,127,0
10652,note_off,105,0,0,,,,,,55,127,0
10654,note_off,2,0,0,,,,,,43,127,0
10655,note_off,1,0,0,,,,,,74,127,0
10655,note_off,0,0,0,,,,,,83,127,0
10656,note_on,1,0,0,,,,,,84,127,0
10656,note_on,0,0,0,,,,,,75,127,0
10766,note_on,110,0,0,,,,,,48,127,0
10875,note_off,109,0,0,,,,,,48,127,0
10876,note_on,1,0,0,,,,,,51,127,0
10985,note_off,109,0,0,,,,,,51,127,0
10986,note_on,1,0,0,,,,,,55,127,0
11095,note_off,109,0,0,,,,,,55,127,0
11096,note_on,1,0,0,,,,,,60,127,0
11205,note_off,109,0,0,,,,,,60,127,0
11206,note_on,1,0,0,,,,,,63,127,0
11315,note_off,109,0,0,,,,,,63,127,0
11316,note_on,1,0,0,,,,,,67,127,0
11425,note_off,109,0,0,,,,,,67,127,0
11426,note_on,1,0,0,,,,,,72,127,0
11535,note_off,109,0,0,,,,,,72,127,0
11535,note_off,0,0,0,,,,,,75,127,0
11535,note_off,0,0,0,,,,,,84,127,0
11536,note_on,1,0,0,,,,,,48,127,0
11755,note_on,219,0,0,,,,,,75,127,0
11755,note_on,0,0,0,,,,,,72,127,0
11926,note_off,171,0,0,,,,,,48,127,0
11973,note_off,47,0,0,,,,,,72,127,0
11973,note_off,0,0,0,,,,,,75,127,0
11974,note_on,1,0,0,,,,,,55,127,0
11974,note_on,0,0,0,,,,,,71,127,0
11974,note_on,0,0,0,,,,,,74,127,0
12083,note_off,109,0,0,,,,,,74,127,0
12084,note_on,1,0,0,,,,,,75,127,0
12193,note_off,109,0,0,,,,,,75,127,0
12194,note_on,1,0,0,,,,,,43,127,0
12194,note_on,0,0,0,,,,,,77,127,0
12303,note_off,109,0,0,,,,,,77,127,0
12304,note_on,1,0,0,,,,,,74,127,0
12409,note_off,105,0,0,,,,,,55,127,0
12411,note_off,2,0,0,,,,,,43,127,0
12412,note_off,1,0,0,,,,,,74,127,0
12412,note_off,0,0,0,,,,,,71,127,0
12413,note_on,1,0,0,,,,,,72,127,0
12413,note_on,0,0,0,,,,,,75,127,0
12523,note_on,110,0,0,,,,,,48,127,0
12632,note_off,109,0,0,,,,,,48,127,0
12633,note_on,1,0,0,,,,,,51,127,0
12742,note_off,109,0,0,,,,,,51,127,0
12743,note_on,1,0,0,,,,,,55,127,0
12852,note_off,109,0,0,,,,,,55,127,0
12853,note_on,1,0,0,,,,,,60,127,0
12962,note_off,109,0,0,,,,,,60,127,0
12963,note_on,1,0,0,,,,,,63,127,0
13072,note_off,109,0,0,,,,,,63,127,0
13073,note_on,1,0,0,,,,,,67,127,0
13153,note_off,80,0,0,,,,,,72,127,0
13182,note_off,29,0,0,,,,,,67,127,0
13183,note_on,1,0,0,,,,,,72,127,0
13292,note_off,109,0,0,,,,,,72,127,0
13293,note_on,1,0,0,,,,,,48,127,0
13402,note_off,109,0,0,,,,,,75,127,0
13403,note_on,1,0,0,,,,,,79,127,0
13512,note_off,109,0,0,,,,,,79,127,0
13513,note_on,1,0,0,,,,,,75,127,0
13622,note_off,109,0,0,,,,,,75,127,0
13623,note_on,1,0,0,,,,,,72,127,0
13732,note_off,109,0,0,,,,,,72,127,0
13733,note_on,1,0,0,,,,,,67,127,0
13842,note_off,109,0,0,,,,,,67,127,0
13843,note_on,1,0,0,,,,,,63,127,0
13952,note_off,109,0,0,,,,,,63,127,0
13952,note_off,0,0,0,,,,,,48,127,0
13953,note_on,1,0,0,,,,,,60,127,0
14062,note_off,109,0,0,,,,,,60,127,0
14063,note_on,1,0,0,,,,,,75,127,0
14172,note_off,109,0,0,,,,,,75,127,0
14173,note_on,1,0,0,,,,,,74,127,0
14283,note_on,110,0,0,,,,,,67,127,0
14392,note_off,109,0,0,,,,,,67,127,0
14393,note_on,1,0,0,,,,,,62,127,0
14502,note_off,109,0,0,,,,,,62,127,0
14503,note_on,1,0,0,,,,,,59,127,0
14612,note_off,109,0,0,,,,,,59,127,0
14613,note_on,1,0,0,,,,,,55,127,0
14722,note_off,109,0,0,,,,,,55,127,0
14723,note_on,1,0,0,,,,,,50,127,0
14832,note_off,109,0,0,,,,,,50,127,0
14833,note_on,1,0,0,,,,,,43,127,0
14942,note_off,109,0,0,,,,,,43,127,0
14943,note_on,1,0,0,,,,,,53,127,0
15052,note_off,109,0,0,,,,,,53,127,0
15052,note_off,0,0,0,,,,,,74,127,0
15053,note_on,1,0,0,,,,,,51,127,0
15163,note_on,110,0,0,,,,,,79,127,0
15272,note_off,109,0,0,,,,,,79,127,0
15273,note_on,1,0,0,,,,,,75,127,0
15382,note_off,109,0,0,,,,,,75,127,0
15383,note_on,1,0,0,,,,,,72,127,0
15492,note_off,109,0,0,,,,,,72,127,0
15493,note_on,1,0,0,,,,,,67,127,0
15602,note_off,109,0,0,,,,,,67,127,0
15603,note_on,1,0,0,,,,,,63,127,0
15712,note_off,109,0,0,,,,,,63,127,0
15712,note_off,0,0,0,,,,,,51,127,0
15713,note_on,1,0,0,,,,,,60,127,0
15822,note_off,109,0,0,,,,,,60,127,0
15823,note_on,1,0,0,,,,,,75,127,0
15932,note_off,109,0,0,,,,,,75,127,0
15933,note_on,1,0,0,,,,,,74,127,0
16043,note_on,110,0,0,,,,,,67,127,0
16152,note_off,109,0,0,,,,,,67,127,0
16153,note_on,1,0,0,,,,,,62,127,0
16262,note_off,109,0,0,,,,,,62,127,0
16263,note_on,1,0,0,,,,,,59,127,0
16372,note_off,109,0,0,,,,,,59,127,0
16373,note_on,1,0,0,,,,,,55,127,0
16482,note_off,109,0,0,,,,,,55,127,0
16483,note_on,1,0,0,,,,,,50,127,0
16592,note_off,109,0,0,,,,,,50,127,0
16593,note_on,1,0,0,,,,,,43,127,0
16702,note_off,109,0,0,,,,,,43,127,0
16703,note_on,1,0,0,,,,,,53,127,0
16812,note_off,109,0,0,,,,,,53,127,0
16812,note_off,0,0,0,,,,,,74,127,0
16813,note_on,1,0,0,,,,,,51,127,0
16923,note_on,110,0,0,,,,,,60,127,0
17032,note_off,109,0,0,,,,,,60,127,0
17033,note_on,1,0,0,,,,,,63,127,0
17142,note_off,109,0,0,,,,,,63,127,0
17143,note_on,1,0,0,,,,,,67,127,0
17252,note_off,109,0,0,,,,,,67,127,0
17253,note_on,1,0,0,,,,,,72,127,0
17362,note_off,109,0,0,,,,,,72,127,0
17363,note_on,1,0,0,,,,,,75,127,0
17472,note_off,109,0,0,,,,,,75,127,0
17473,note_on,1,0,0,,,,,,79,127,0
17582,note_off,109,0,0,,,,,,79,127,0
17583,note_on,1,0,0,,,,,,84,127,0
17692,note_off,109,0,0,,,,,,84,127,0
17692,note_off,0,0,0,,,,,,51,127,0
17693,note_on,1,0,0,,,,,,80,127,0
17803,note_on,110,0,0,,,,,,53,127,0
17912,note_off,109,0,0,,,,,,53,127,0
17913,note_on,1,0,0,,,,,,56,127,0
18022,note_off,109,0,0,,,,,,56,127,0
18023,note_on,1,0,0,,,,,,60,127,0
18132,note_off,109,0,0,,,,,,60,127,0
18133,note_on,1,0,0,,,,,,65,127,0
18242,note_off,109,0,0,,,,,,65,127,0
18243,note_on,1,0,0,,,,,,68,127,0
18352,note_off,109,0,0,,,,,,68,127,0
18353,note_on,1,0,0,,,,,,65,127,0
18462,note_off,109,0,0,,,,,,65,127,0
18463,note_on,1,0,0,,,,,,62,127,0
18572,note_off,109,0,0,,,,,,62,127,0
18573,note_on,1,0,0,,,,,,46,127,0
18682,note_off,109,0,0,,,,,,80,127,0
18683,note_on,1,0,0,,,,,,82,127,0
18792,note_off,109,0,0,,,,,,82,127,0
18793,note_on,1,0,0,,,,,,77,127,0
18902,note_off,109,0,0,,,,,,77,127,0
18903,note_on,1,0,0,,,,,,74,127,0
19012,note_off,109,0,0,,,,,,74,127,0
19013,note_on,1,0,0,,,,,,70,127,0
19122,note_off,109,0,0,,,,,,70,127,0
19123,note_on,1,0,0,,,,,,65,127,0
19232,note_off,109,0,0,,,,,,65,127,0
19233,note_on,1,0,0,,,,,,62,127,0
19342,note_off,109,0,0,,,,,,62,127,0
19343,note_on,1,0,0,,,,,,58,127,0
19452,note_off,109,0,0,,,,,,58,127,0
19453,note_on,1,0,0,,,,,,67,127,0
19562,note_off,109,0,0,,,,,,46,127,0
19563,note_on,1,0,0,,,,,,51,127,0
19672,note_off,109,0,0,,,,,,51,127,0
19673,note_on,1,0,0,,,,,,55,127,0
19782,note_off,109,0,0,,,,,,55,127,0
19783,note_on,1,0,0,,,,,,58,127,0
19892,note_off,109,0,0,,,,,,58,127,0
19892,note_off,0,0,0,,,,,,67,127,0
19893,note_on,1,0,0,,,,,,63,127,0
20002,note_off,109,0,0,,,,,,63,127,0
20003,note_on,1,0,0,,,,,,67,127,0
20113,note_on,110,0,0,,,,,,63,127,0
20222,note_off,109,0,0,,,,,,63,127,0
20223,note_on,1,0,0,,,,,,60,127,0
20332,note_off,109,0,0,,,,,,60,127,0
20333,note_on,1,0,0,,,,,,51,127,0
20442,note_off,109,0,0,,,,,,67,127,0
20443,note_on,1,0,0,,,,,,79,127,0
20552,note_off,109,0,0,,,,,,51,127,0
20553,note_on,1,0,0,,,,,,63,127,0
20553,note_on,0,0,0,,,,,,67,127,0
20608,note_off,55,0,0,,,,,,79,127,0
20662,note_off,54,0,0,,,,,,67,127,0
20663,note_on,1,0,0,,,,,,79,127,0
20772,note_off,109,0,0,,,,,,63,127,0
20773,note_on,1,0,0,,,,,,62,127,0
20773,note_on,0,0,0,,,,,,69,127,0
20828,note_off,55,0,0,,,,,,79,127,0
20883,note_on,55,0,0,,,,,,77,127,0
20992,note_off,109,0,0,,,,,,77,127,0
20992,note_off,0,0,0,,,,,,69,127,0
20992,note_off,0,0,0,,,,,,62,127,0
20993,note_on,1,0,0,,,,,,55,127,0
20993,note_on,0,0,0,,,,,,75,127,0
20993,note_on,0,0,0,,,,,,71,127,0
21102,note_off,109,0,0,,,,,,75,127,0
21103,note_on,1,0,0,,,,,,74,127,0
21212,note_off,109,0,0,,,,,,74,127,0
21212,note_off,0,0,0,,,,,,71,127,0
21212,note_off,0,0,0,,,,,,55,127,0
21213,note_on,1,0,0,,,,,,60,127,0
21213,note_on,0,0,0,,,,,,75,127,0
21213,note_on,0,0,0,,,,,,72,127,0
21322,note_off,109,0,0,,,,,,72,127,0
21322,note_off,0,0,0,,,,,,75,127,0
21323,note_on,1,0,0,,,,,,79,127,0
21432,note_off,109,0,0,,,,,,60,127,0
21433,note_on,1,0,0,,,,,,63,127,0
21433,note_on,0,0,0,,,,,,67,127,0
21488,note_off,55,0,0,,,,,,79,127,0
21542,note_off,54,0,0,,,,,,67,127,0
21543,note_on,1,0,0,,,,,,79,127,0
21652,note_off,109,0,0,,,,,,63,127,0
21653,note_on,1,0,0,,,,,,62,127,0
21653,note_on,0,0,0,,,,,,69,127,0
21708,note_off,55,0,0,,,,,,79,127,0
21763,note_on,55,0,0,,,,,,77,127,0
21872,note_off,109,0,0,,,,,,77,127,0
21872,note_off,0,0,0,,,,,,69,127,0
21872,note_off,0,0,0,,,,,,62,127,0
21873,note_on,1,0,0,,,,,,55,127,0
21873,note_on,0,0,0,,,,,,71,127,0
21873,note_on,0,0,0,,,,,,75,127,0
21982,note_off,109,0,0,,,,,,75,127,0
21983,note_on,1,0,0,,,,,,74,127,0
22092,note_off,109,0,0,,,,,,74,127,0
22092,note_off,0,0,0,,,,,,71,127,0
22092,note_off,0,0,0,,,,,,55,127,0
22093,note_on,1,0,0,,,,,,60,127,0
22093,note_on,0,0,0,,,,,,72,127,0
22093,note_on,0,0,0,,,,,,75,127,0
22202,note_off,109,0,0,,,,,,75,127,0
22202,note_off,0,0,0,,,,,,72,127,0
22203,note_on,1,0,0,,,,,,84,127,0
22312,note_off,109,0,0,,,,,,60,127,0
22313,note_on,1,0,0,,,,,,56,127,0
22313,note_on,0,0,0,,,,,,72,127,0
22368,note_off,55,0,0,,,,,,84,127,0
22422,note_off,54,0,0,,,,,,72,127,0
22423,note_on,1,0,0,,,,,,84,127,0
22532,note_off,109,0,0,,,,,,56,127,0
22533,note_on,1,0,0,,,,,,55,127,0
22533,note_on,0,0,0,,,,,,74,127,0
22588,note_off,55,0,0,,,,,,84,127,0
22643,note_on,55,0,0,,,,,,82,127,0
22752,note_off,109,0,0,,,,,,82,127,0
22752,note_off,0,0,0,,,,,,74,127,0
22752,note_off,0,0,0,,,,,,55,127,0
22753,note_on,1,0,0,,,,,,48,127,0
22753,note_on,0,0,0,,,,,,76,127,0
22753,note_on,0,0,0,,,,,,80,127,0
22862,note_off,109,0,0,,,,,,80,127,0
22863,note_on,1,0,0,,,,,,79,127,0
22972,note_off,109,0,0,,,,,,79,127,0
22972,note_off,0,0,0,,,,,,76,127,0
22972,note_off,0,0,0,,,,,,48,127,0
22973,note_on,1,0,0,,,,,,65,127,0
22973,note_on,0,0,0,,,,,,80,127,0
22973,note_on,0,0,0,,,,,,77,127,0
23082,note_off,109,0,0,,,,,,77,127,0
23082,note_off,0,0,0,,,,,,80,127,0
23083,note_on,1,0,0,,,,,,84,127,0
23192,note_off,109,0,0,,,,,,65,127,0
23193,note_on,1,0,0,,,,,,68,127,0
23193,note_on,0,0,0,,,,,,72,127,0
23248,note_off,55,0,0,,,,,,84,127,0
23302,note_off,54,0,0,,,,,,72,127,0
23303,note_on,1,0,0,,,,,,84,127,0
23412,note_off,109,0,0,,,,,,68,127,0
23413,note_on,1,0,0,,,,,,67,127,0
23413,note_on,0,0,0,,,,,,74,127,0
23468,note_off,55,0,0,,,,,,84,127,0
23523,note_on,55,0,0,,,,,,82,127,0
23632,note_off,109,0,0,,,,,,82,127,0
23632,note_off,0,0,0,,,,,,74,127,0
23632,note_off,0,0,0,,,,,,67,127,0
23633,note_on,1,0,0,,,,,,60,127,0
23633,note_on,0,0,0,,,,,,80,127,0
23633,note_on,0,0,0,,,,,,76,127,0
23742,note_off,109,0,0,,,,,,80,127,0
23743,note_on,1,0,0,,,,,,79,127,0
23852,note_off,109,0,0,,,,,,79,127,0
23852,note_off,0,0,0,,,,,,76,127,0
23852,note_off,0,0,0,,,,,,60,127,0
23853,note_on,1,0,0,,,,,,65,127,0
23853,note_on,0,0,0,,,,,,80,127,0
23853,note_on,0,0,0,,,,,,77,127,0
23962,note_off,109,0,0,,,,,,77,127,0
23962,note_off,0,0,0,,,,,,80,127,0
23963,note_on,1,0,0,,,,,,82,127,0
24059,note_off,96,0,0,,,,,,65,127,0
24073,note_on,14,0,0,,,,,,67,127,0
24073,note_on,0,0,0,,,,,,70,127,0
24128,note_off,55,0,0,,,,,,82,127,0
24182,note_off,54,0,0,,,,,,70,127,0
24183,note_on,1,0,0,,,,,,82,127,0
24292,note_off,109,0,0,,,,,,67,127,0
24293,note_on,1,0,0,,,,,,68,127,0
24293,note_on,0,0,0,,,,,,72,127,0
24348,note_off,55,0,0,,,,,,82,127,0
24403,note_on,55,0,0,,,,,,80,127,0
24512,note_off,109,0,0,,,,,,80,127,0
24512,note_off,0,0,0,,,,,,72,127,0
24512,note_off,0,0,0,,,,,,68,127,0
24513,note_on,1,0,0,,,,,,70,127,0
24513,note_on,0,0,0,,,,,,79,127,0
24513,note_on,0,0,0,,,,,,74,127,0
24622,note_off,109,0,0,,,,,,79,127,0
24623,note_on,1,0,0,,,,,,77,127,0
24732,note_off,109,0,0,,,,,,77,127,0
24732,note_off,0,0,0,,,,,,74,127,0
24732,note_off,0,0,0,,,,,,70,127,0
24733,note_on,1,0,0,,,,,,63,127,0
24733,note_on,0,0,0,,,,,,75,127,0
24733,note_on,0,0,0,,,,,,79,127,0
24842,note_off,109,0,0,,,,,,79,127,0
24842,note_off,0,0,0,,,,,,75,127,0
24843,note_on,1,0,0,,,,,,82,127,0
24952,note_off,109,0,0,,,,,,63,127,0
24953,note_on,1,0,0,,,,,,67,127,0
24953,note_on,0,0,0,,,,,,70,127,0
25008,note_off,55,0,0,,,,,,82,127,0
25062,note_off,54,0,0,,,,,,70,127,0
25063,note_on,1,0,0,,,,,,82,127,0
25172,note_off,109,0,0,,,,,,67,127,0
25173,note_on,1,0,0,,,,,,68,127,0
25173,note_on,0,0,0,,,,,,72,127,0
25228,note_off,55,0,0,,,,,,82,127,0
25283,note_on,55,0,0,,,,,,80,127,0
25392,note_off,109,0,0,,,,,,80,127,0
25392,note_off,0,0,0,,,,,,72,127,0
25392,note_off,0,0,0,,,,,,68,127,0
25393,note_on,1,0,0,,,,,,70,127,0
25393,note_on,0,0,0,,,,,,74,127,0
25393,note_on,0,0,0,,,,,,79,127,0
25502,note_off,109,0,0,,,,,,79,127,0
25503,note_on,1,0,0,,,,,,77,127,0
25612,note_off,109,0,0,,,,,,77,127,0
25612,note_off,0,0,0,,,,,,74,127,0
25612,note_off,0,0,0,,,,,,70,127,0
25613,note_on,1,0,0,,,,,,63,127,0
25613,note_on,0,0,0,,,,,,79,127,0
25613,note_on,0,0,0,,,,,,75,127,0
25722,note_off,109,0,0,,,,,,75,127,0
25722,note_off,0,0,0,,,,,,79,127,0
25723,note_on,1,0,0,,,,,,77,127,0
25832,note_off,109,0,0,,,,,,77,127,0
25832,note_off,0,0,0,,,,,,63,127,0
25833,note_on,1,0,0,,,,,,62,127,0
25833,note_on,0,0,0,,,,,,77,127,0
25942,note_off,109,0,0,,,,,,77,127,0
25943,note_on,1,0,0,,,,,,75,127,0
26052,note_off,109,0,0,,,,,,75,127,0
26052,note_off,0,0,0,,,,,,62,127,0
26053,note_on,1,0,0,,,,,,60,127,0
26053,note_on,0,0,0,,,,,,75,127,0
26162,note_off,109,0,0,,,,,,75,127,0
26163,note_on,1,0,0,,,,,,74,127,0
26272,note_off,109,0,0,,,,,,74,127,0
26272,note_off,0,0,0,,,,,,60,127,0
26273,note_on,1,0,0,,,,,,58,127,0
26273,note_on,0,0,0,,,,,,74,127,0
26382,note_off,109,0,0,,,,,,74,127,0
26383,note_on,1,0,0,,,,,,72,127,0
26492,note_off,109,0,0,,,,,,72,127,0
26492,note_off,0,0,0,,,,,,58,127,0
26493,note_on,1,0,0,,,,,,63,127,0
26493,note_on,0,0,0,,,,,,72,127,0
26602,note_off,109,0,0,,,,,,72,127,0
26603,note_on,1,0,0,,,,,,70,127,0
26712,note_off,109,0,0,,,,,,70,127,0
26712,note_off,0,0,0,,,,,,63,127,0
26713,note_on,1,0,0,,,,,,62,127,0
26713,note_on,0,0,0,,,,,,70,127,0
26822,note_off,109,0,0,,,,,,70,127,0
26823,note_on,1,0,0,,,,,,68,127,0
26932,note_off,109,0,0,,,,,,68,127,0
26932,note_off,0,0,0,,,,,,62,127,0
26933,note_on,1,0,0,,,,,,60,127,0
26933,note_on,0,0,0,,,,,,68,127,0
27042,note_off,109,0,0,,,,,,68,127,0
27043,note_on,1,0,0,,,,,,67,127,0
27152,note_off,109,0,0,,,,,,67,127,0
27152,note_off,0,0,0,,,,,,60,127,0
27153,note_on,1,0,0,,,,,,63,127,0
27153,note_on,0,0,0,,,,,,66,127,0
27262,note_off,109,0,0,,,,,,66,127,0
27263,note_on,1,0,0,,,,,,67,127,0
27372,note_off,109,0,0,,,,,,67,127,0
27372,note_off,0,0,0,,,,,,63,127,0
27373,note_on,1,0,0,,,,,,62,127,0
27373,note_on,0,0,0,,,,,,67,127,0
27591,note_off,218,0,0,,,,,,67,127,0
27592,note_on,1,0,0,,,,,,66,127,0
27811,note_off,219,0,0,,,,,,66,127,0
27811,note_on,0,0,0,,,,,,50,127,0
27921,note_off,110,0,0,,,,,,62,127,0
28039,note_on,118,0,0,,,,,,70,127,0
28141,note_off,102,0,0,,,,,,50,127,0
28251,note_on,110,0,0,,,,,,75,127,0
28258,note_off,7,0,0,,,,,,70,127,0
28360,note_off,102,0,0,,,,,,75,127,0
28361,note_on,1,0,0,,,,,,74,127,0
28470,note_off,109,0,0,,,,,,74,127,0
28471,note_on,1,0,0,,,,,,55,127,0
28471,note_on,0,0,0,,,,,,75,127,0
28580,note_off,109,0,0,,,,,,75,127,0
28581,note_on,1,0,0,,,,,,77,127,0
28690,note_off,109,0,0,,,,,,77,127,0
28690,note_off,0,0,0,,,,,,55,127,0
28691,note_on,1,0,0,,,,,,55,127,0
28691,note_on,0,0,0,,,,,,79,127,0
28800,note_off,109,0,0,,,,,,79,127,0
28801,note_on,1,0,0,,,,,,75,127,0
28910,note_off,109,0,0,,,,,,75,127,0
28910,note_off,0,0,0,,,,,,55,127,0
28911,note_on,1,0,0,,,,,,55,127,0
28911,note_on,0,0,0,,,,,,74,127,0
29020,note_off,109,0,0,,,,,,74,127,0
29021,note_on,1,0,0,,,,,,73,127,0
29130,note_off,109,0,0,,,,,,73,127,0
29130,note_off,0,0,0,,,,,,55,127,0
29131,note_on,1,0,0,,,,,,54,127,0
29131,note_on,0,0,0,,,,,,73,127,0
29240,note_off,109,0,0,,,,,,73,127,0
29241,note_on,1,0,0,,,,,,74,127,0
29350,note_off,109,0,0,,,,,,74,127,0
29350,note_off,0,0,0,,,,,,54,127,0
29351,note_on,1,0,0,,,,,,53,127,0
29351,note_on,0,0,0,,,,,,74,127,0
29460,note_off,109,0,0,,,,,,74,127,0
29461,note_on,1,0,0,,,,,,75,127,0
29570,note_off,109,0,0,,,,,,75,127,0
29570,note_off,0,0,0,,,,,,53,127,0
29571,note_on,1,0,0,,,,,,53,127,0
29571,note_on,0,0,0,,,,,,77,127,0
29680,note_off,109,0,0,,,,,,77,127,0
29681,note_on,1,0,0,,,,,,74,127,0
29790,note_off,109,0,0,,,,,,74,127,0
29790,note_off,0,0,0,,,,,,53,127,0
29791,note_on,1,0,0,,,,,,53,127,0
29791,note_on,0,0,0,,,,,,72,127,0
29900,note_off,109,0,0,,,,,,72,127,0
29901,note_on,1,0,0,,,,,,71,127,0
30010,note_off,109,0,0,,,,,,71,127,0
30010,note_off,0,0,0,,,,,,53,127,0
30011,note_on,1,0,0,,,,,,52,127,0
30011,note_on,0,0,0,,,,,,71,127,0
30120,note_off,109,0,0,,,,,,71,127,0
30121,note_on,1,0,0,,,,,,72,127,0
30230,note_off,109,0,0,,,,,,72,127,0
30230,note_off,0,0,0,,,,,,52,127,0
30231,note_on,1,0,0,,,,,,51,127,0
30231,note_on,0,0,0,,,,,,72,127,0
30340,note_off,109,0,0,,,,,,72,127,0
30341,note_on,1,0,0,,,,,,74,127,0
30450,note_off,109,0,0,,,,,,74,127,0
30450,note_off,0,0,0,,,,,,51,127,0
30451,note_on,1,0,0,,,,,,51,127,0
30451,note_on,0,0,0,,,,,,75,127,0
30560,note_off,109,0,0,,,,,,75,127,0
30561,note_on,1,0,0,,,,,,72,127,0
30670,note_off,109,0,0,,,,,,72,127,0
30670,note_off,0,0,0,,,,,,51,127,0
30671,note_on,1,0,0,,,,,,51,127,0
30671,note_on,0,0,0,,,,,,70,127,0
30780,note_off,109,0,0,,,,,,70,127,0
30781,note_on,1,0,0,,,,,,69,127,0
30890,note_off,109,0,0,,,,,,69,127,0
30890,note_off,0,0,0,,,,,,51,127,0
30891,note_on,1,0,0,,,,,,50,127,0
30891,note_on,0,0,0,,,,,,69,127,0
31000,note_off,109,0,0,,,,,,69,127,0
31001,note_on,1,0,0,,,,,,70,127,0
31110,note_off,109,0,0,,,,,,70,127,0
31110,note_off,0,0,0,,,,,,50,127,0
31111,note_on,1,0,0,,,,,,50,127,0
31111,note_on,0,0,0,,,,,,70,127,0
31220,note_off,109,0,0,,,,,,70,127,0
31221,note_on,1,0,0,,,,,,72,127,0
31330,note_off,109,0,0,,,,,,72,127,0
31330,note_off,0,0,0,,,,,,50,127,0
31331,note_on,1,0,0,,,,,,46,127,0
31331,note_on,0,0,0,,,,,,74,127,0
31440,note_off,109,0,0,,,,,,74,127,0
31441,note_on,1,0,0,,,,,,70,127,0
31550,note_off,109,0,0,,,,,,70,127,0
31550,note_off,0,0,0,,,,,,46,127,0
31551,note_on,1,0,0,,,,,,46,127,0
31551,note_on,0,0,0,,,,,,68,127,0
31660,note_off,109,0,0,,,,,,68,127,0
31661,note_on,1,0,0,,,,,,67,127,0
31770,note_off,109,0,0,,,,,,67,127,0
31770,note_off,0,0,0,,,,,,46,127,0
31771,note_on,1,0,0,,,,,,48,127,0
31771,note_on,0,0,0,,,,,,67,127,0
31880,note_off,109,0,0,,,,,,67,127,0
31881,note_on,1,0,0,,,,,,68,127,0
31990,note_off,109,0,0,,,,,,68,127,0
31990,note_off,0,0,0,,,,,,48,127,0
31991,note_on,1,0,0,,,,,,50,127,0
31991,note_on,0,0,0,,,,,,68,127,0
32100,note_off,109,0,0,,,,,,68,127,0
32101,note_on,1,0,0,,,,,,71,127,0
32210,note_off,109,0,0,,,,,,71,127,0
32210,note_off,0,0,0,,,,,,50,127,0
32211,note_on,1,0,0,,,,,,51,127,0
32211,note_on,0,0,0,,,,,,71,127,0
32320,note_off,109,0,0,,,,,,71,127,0
32321,note_on,1,0,0,,,,,,72,127,0
32430,note_off,109,0,0,,,,,,72,127,0
32430,note_off,0,0,0,,,,,,51,127,0
32431,note_on,1,0,0,,,,,,53,127,0
32431,note_on,0,0,0,,,,,,72,127,0
32540,note_off,109,0,0,,,,,,72,127,0
32541,note_on,1,0,0,,,,,,74,127,0
32650,note_off,109,0,0,,,,,,74,127,0
32650,note_off,0,0,0,,,,,,53,127,0
32651,note_on,1,0,0,,,,,,55,127,0
32651,note_on,0,0,0,,,,,,74,127,0
32760,note_off,109,0,0,,,,,,74,127,0
32761,note_on,1,0,0,,,,,,75,127,0
32870,note_off,109,0,0,,,,,,75,127,0
32870,note_off,0,0,0,,,,,,55,127,0
32871,note_on,1,0,0,,,,,,45,127,0
32871,note_on,0,0,0,,,,,,75,127,0
32980,note_off,109,0,0,,,,,,75,127,0
32981,note_on,1,0,0,,,,,,78,127,0
33090,note_off,109,0,0,,,,,,78,127,0
33090,note_off,0,0,0,,,,,,45,127,0
33091,note_on,1,0,0,,,,,,46,127,0
33091,note_on,0,0,0,,,,,,78,127,0
33200,note_off,109,0,0,,,,,,78,127,0
33201,note_on,1,0,0,,,,,,79,127,0
33310,note_off,109,0,0,,,,,,79,127,0
33310,note_off,0,0,0,,,,,,46,127,0
33311,note_on,1,0,0,,,,,,48,127,0
33311,note_on,0,0,0,,,,,,79,127,0
33420,note_off,109,0,0,,,,,,79,127,0
33421,note_on,1,0,0,,,,,,81,127,0
33530,note_off,109,0,0,,,,,,81,127,0
33530,note_off,0,0,0,,,,,,48,127,0
33531,note_on,1,0,0,,,,,,50,127,0
33531,note_on,0,0,0,,,,,,81,127,0
33640,note_off,109,0,0,,,,,,81,127,0
33641,note_on,1,0,0,,,,,,82,127,0
33750,note_off,109,0,0,,,,,,82,127,0
33750,note_off,0,0,0,,,,,,50,127,0
33751,note_on,1,0,0,,,,,,51,127,0
33751,note_on,0,0,0,,,,,,82,127,0
33860,note_off,109,0,0,,,,,,82,127,0
33861,note_on,1,0,0,,,,,,84,127,0
33970,note_off,109,0,0,,,,,,84,127,0
33970,note_off,0,0,0,,,,,,51,127,0
33971,note_on,1,0,0,,,,,,51,127,0
33971,note_on,0,0,0,,,,,,84,127,0
34080,note_off,109,0,0,,,,,,84,127,0
34081,note_on,1,0,0,,,,,,82,127,0
34190,note_off,109,0,0,,,,,,82,127,0
34190,note_off,0,0,0,,,,,,51,127,0
34191,note_on,1,0,0,,,,,,50,127,0
34191,note_on,0,0,0,,,,,,82,127,0
34300,note_off,109,0,0,,,,,,82,127,0
34301,note_on,1,0,0,,,,,,81,127,0
34410,note_off,109,0,0,,,,,,81,127,0
34410,note_off,0,0,0,,,,,,50,127,0
34411,note_on,1,0,0,,,,,,48,127,0
34411,note_on,0,0,0,,,,,,81,127,0
34520,note_off,109,0,0,,,,,,81,127,0
34521,note_on,1,0,0,,,,,,79,127,0
34630,note_off,109,0,0,,,,,,79,127,0
34630,note_off,0,0,0,,,,,,48,127,0
34631,note_on,1,0,0,,,,,,46,127,0
34631,note_on,0,0,0,,,,,,79,127,0
34740,note_off,109,0,0,,,,,,79,127,0
34741,note_on,1,0,0,,,,,,77,127,0
34850,note_off,109,0,0,,,,,,77,127,0
34850,note_off,0,0,0,,,,,,46,127,0
34851,note_on,1,0,0,,,,,,45,127,0
34851,note_on,0,0,0,,,,,,77,127,0
34960,note_off,109,0,0,,,,,,77,127,0
34961,note_on,1,0,0,,,,,,75,127,0
35070,note_off,109,0,0,,,,,,75,127,0
35070,note_off,0,0,0,,,,,,45,127,0
35071,note_on,1,0,0,,,,,,43,127,0
35071,note_on,0,0,0,,,,,,75,127,0
35180,note_off,109,0,0,,,,,,75,127,0
35181,note_on,1,0,0,,,,,,74,127,0
35290,note_off,109,0,0,,,,,,74,127,0
35290,note_off,0,0,0,,,,,,43,127,0
35291,note_on,1,0,0,,,,,,41,127,0
35291,note_on,0,0,0,,,,,,74,127,0
35400,note_off,109,0,0,,,,,,74,127,0
35401,note_on,1,0,0,,,,,,72,127,0
35510,note_off,109,0,0,,,,,,72,127,0
35510,note_off,0,0,0,,,,,,41,127,0
35511,note_on,1,0,0,,,,,,39,127,0
35511,note_on,0,0,0,,,,,,72,127,0
35620,note_off,109,0,0,,,,,,72,127,0
35621,note_on,1,0,0,,,,,,70,127,0
35730,note_off,109,0,0,,,,,,70,127,0
35730,note_off,0,0,0,,,,,,39,127,0
35731,note_on,1,0,0,,,,,,38,127,0
35731,note_on,0,0,0,,,,,,70,127,0
35840,note_off,109,0,0,,,,,,70,127,0
35841,note_on,1,0,0,,,,,,69,127,0
35950,note_off,109,0,0,,,,,,69,127,0
35950,note_off,0,0,0,,,,,,38,127,0
35951,note_on,1,0,0,,,,,,48,127,0
35951,note_on,0,0,0,,,,,,75,127,0
35951,note_on,0,0,0,,,,,,67,127,0
36060,note_off,109,0,0,,,,,,67,127,0
36061,note_on,1,0,0,,,,,,66,127,0
36170,note_off,109,0,0,,,,,,66,127,0
36170,note_off,0,0,0,,,,,,75,127,0
36170,note_off,0,0,0,,,,,,48,127,0
36171,note_on,1,0,0,,,,,,50,127,0
36171,note_on,0,0,0,,,,,,74,127,0
36171,note_on,0,0,0,,,,,,67,127,0
36280,note_off,109,0,0,,,,,,67,127,0
36280,note_off,0,0,0,,,,,,74,127,0
36281,note_on,1,0,0,,,,,,67,127,0
36390,note_off,109,0,0,,,,,,67,127,0
36390,note_off,0,0,0,,,,,,50,127,0
36391,note_on,1,0,0,,,,,,51,127,0
36391,note_on,0,0,0,,,,,,72,127,0
36500,note_off,109,0,0,,,,,,72,127,0
36501,note_on,1,0,0,,,,,,69,127,0
36610,note_off,109,0,0,,,,,,69,127,0
36610,note_off,0,0,0,,,,,,51,127,0
36611,note_on,1,0,0,,,,,,50,127,0
36611,note_on,0,0,0,,,,,,70,127,0
36611,note_on,0,0,0,,,,,,67,127,0
36829,note_off,218,0,0,,,,,,67,127,0
36829,note_off,0,0,0,,,,,,70,127,0
36830,note_on,1,0,0,,,,,,38,127,0
36830,note_on,0,0,0,,,,,,69,127,0
36830,note_on,0,0,0,,,,,,66,127,0
37045,note_off,215,0,0,,,,,,50,127,0
37047,note_off,2,0,0,,,,,,38,127,0
37048,note_off,1,0,0,,,,,,66,127,0
37048,note_off,0,0,0,,,,,,69,127,0
37049,note_on,1,0,0,,,,,,67,127,0
37049,note_on,0,0,0,,,,,,74,127,0
37049,note_on,0,0,0,,,,,,70,127,0
37159,note_on,110,0,0,,,,,,43,127,0
37268,note_off,109,0,0,,,,,,43,127,0
37269,note_on,1,0,0,,,,,,46,127,0
37378,note_off,109,0,0,,,,,,46,127,0
37379,note_on,1,0,0,,,,,,50,127,0
37488,note_off,109,0,0,,,,,,50,127,0
37489,note_on,1,0,0,,,,,,55,127,0
37598,note_off,109,0,0,,,,,,55,127,0
37599,note_on,1,0,0,,,,,,58,127,0
37708,note_off,109,0,0,,,,,,58,127,0
37708,note_off,0,0,0,,,,,,67,127,0
37709,note_on,1,0,0,,,,,,62,127,0
37818,note_off,109,0,0,,,,,,62,127,0
37819,note_on,1,0,0,,,,,,67,127,0
37928,note_off,109,0,0,,,,,,70,127,0
37928,note_off,0,0,0,,,,,,74,127,0
37929,note_on,1,0,0,,,,,,74,127,0
37929,note_on,0,0,0,,,,,,70,127,0
37929,note_on,0,0,0,,,,,,79,127,0
38038,note_off,109,0,0,,,,,,67,127,0
38039,note_on,1,0,0,,,,,,43,127,0
38148,note_off,109,0,0,,,,,,43,127,0
38149,note_on,1,0,0,,,,,,46,127,0
38258,note_off,109,0,0,,,,,,46,127,0
38259,note_on,1,0,0,,,,,,50,127,0
38368,note_off,109,0,0,,,,,,50,127,0
38369,note_on,1,0,0,,,,,,55,127,0
38478,note_off,109,0,0,,,,,,55,127,0
38479,note_on,1,0,0,,,,,,58,127,0
38588,note_off,109,0,0,,,,,,58,127,0
38589,note_on,1,0,0,,,,,,62,127,0
38698,note_off,109,0,0,,,,,,62,127,0
38699,note_on,1,0,0,,,,,,67,127,0
38808,note_off,109,0,0,,,,,,67,127,0
38809,note_on,1,0,0,,,,,,43,127,0
39027,note_off,218,0,0,,,,,,79,127,0
39027,note_off,0,0,0,,,,,,70,127,0
39027,note_off,0,0,0,,,,,,74,127,0
39028,note_on,1,0,0,,,,,,79,127,0
39028,note_on,0,0,0,,,,,,82,127,0
39246,note_off,218,0,0,,,,,,82,127,0
39246,note_off,0,0,0,,,,,,79,127,0
39246,note_off,0,0,0,,,,,,43,127,0
39247,note_on,1,0,0,,,,,,50,127,0
39247,note_on,0,0,0,,,,,,78,127,0
39247,note_on,0,0,0,,,,,,81,127,0
39356,note_off,109,0,0,,,,,,81,127,0
39357,note_on,1,0,0,,,,,,82,127,0
39466,note_off,109,0,0,,,,,,82,127,0
39467,note_on,1,0,0,,,,,,38,127,0
39467,note_on,0,0,0,,,,,,84,127,0
39576,note_off,109,0,0,,,,,,84,127,0
39577,note_on,1,0,0,,,,,,81,127,0
39682,note_off,105,0,0,,,,,,50,127,0
39684,note_off,2,0,0,,,,,,38,127,0
39685,note_off,1,0,0,,,,,,81,127,0
39685,note_off,0,0,0,,,,,,78,127,0
39686,note_on,1,0,0,,,,,,79,127,0
39686,note_on,0,0,0,,,,,,82,127,0
39796,note_on,110,0,0,,,,,,43,127,0
39905,note_off,109,0,0,,,,,,43,127,0
39906,note_on,1,0,0,,,,,,46,127,0
40015,note_off,109,0,0,,,,,,46,127,0
40016,note_on,1,0,0,,,,,,50,127,0
40125,note_off,109,0,0,,,,,,50,127,0
40126,note_on,1,0,0,,,,,,55,127,0
40235,note_off,109,0,0,,,,,,55,127,0
40236,note_on,1,0,0,,,,,,58,127,0
40345,note_off,109,0,0,,,,,,58,127,0
40346,note_on,1,0,0,,,,,,62,127,0
40455,note_off,109,0,0,,,,,,62,127,0
40456,note_on,1,0,0,,,,,,67,127,0
40565,note_off,109,0,0,,,,,,67,127,0
40566,note_on,1,0,0,,,,,,43,127,0
40784,note_off,218,0,0,,,,,,82,127,0
40784,note_off,0,0,0,,,,,,79,127,0
40785,note_on,1,0,0,,,,,,70,127,0
40785,note_on,0,0,0,,,,,,79,127,0
41003,note_off,218,0,0,,,,,,79,127,0
41003,note_off,0,0,0,,,,,,70,127,0
41003,note_off,0,0,0,,,,,,43,127,0
41004,note_on,1,0,0,,,,,,50,127,0
41004,note_on,0,0,0,,,,,,78,127,0
41004,note_on,0,0,0,,,,,,69,127,0
41113,note_off,109,0,0,,,,,,78,127,0
41114,note_on,1,0,0,,,,,,79,127,0
41223,note_off,109,0,0,,,,,,79,127,0
41224,note_on,1,0,0,,,,,,38,127,0
41224,note_on,0,0,0,,,,,,81,127,0
41333,note_off,109,0,0,,,,,,81,127,0
41334,note_on,1,0,0,,,,,,78,127,0
41439,note_off,105,0,0,,,,,,50,127,0
41441,note_off,2,0,0,,,,,,38,127,0
41442,note_off,1,0,0,,,,,,78,127,0
41442,note_off,0,0,0,,,,,,69,127,0
41443,note_on,1,0,0,,,,,,70,127,0
41443,note_on,0,0,0,,,,,,79,127,0
41553,note_on,110,0,0,,,,,,43,127,0
41662,note_off,109,0,0,,,,,,43,127,0
41663,note_on,1,0,0,,,,,,46,127,0
41772,note_off,109,0,0,,,,,,46,127,0
41773,note_on,1,0,0,,,,,,50,127,0
41882,note_off,109,0,0,,,,,,50,127,0
41883,note_on,1,0,0,,,,,,55,127,0
41992,note_off,109,0,0,,,,,,55,127,0
41993,note_on,1,0,0,,,,,,58,127,0
42102,note_off,109,0,0,,,,,,58,127,0
42103,note_on,1,0,0,,,,,,62,127,0
42212,note_off,109,0,0,,,,,,62,127,0
42213,note_on,1,0,0,,,,,,67,127,0
42322,note_off,109,0,0,,,,,,67,127,0
42323,note_on,1,0,0,,,,,,43,127,0
42541,note_off,218,0,0,,,,,,79,127,0
42541,note_off,0,0,0,,,,,,70,127,0
42542,note_on,1,0,0,,,,,,70,127,0
42542,note_on,0,0,0,,,,,,67,127,0
42760,note_off,218,0,0,,,,,,67,127,0
42760,note_off,0,0,0,,,,,,70,127,0
42760,note_off,0,0,0,,,,,,43,127,0
42761,note_on,1,0,0,,,,,,69,127,0
42761,note_on,0,0,0,,,,,,66,127,0
42870,note_off,109,0,0,,,,,,69,127,0
42871,note_on,1,0,0,,,,,,70,127,0
42980,note_off,109,0,0,,,,,,70,127,0
42980,note_off,0,0,0,,,,,,66,127,0
42981,note_on,1,0,0,,,,,,50,127,0
42981,note_on,0,0,0,,,,,,72,127,0
43090,note_off,109,0,0,,,,,,72,127,0
43091,note_on,1,0,0,,,,,,69,127,0
43200,note_off,109,0,0,,,,,,69,127,0
43200,note_off,0,0,0,,,,,,50,127,0
43201,note_on,1,0,0,,,,,,46,127,0
43201,note_on,0,0,0,,,,,,74,127,0
43310,note_off,109,0,0,,,,,,74,127,0
43311,note_on,1,0,0,,,,,,66,127,0
43420,note_off,109,0,0,,,,,,66,127,0
43420,note_off,0,0,0,,,,,,46,127,0
43421,note_on,1,0,0,,,,,,51,127,0
43421,note_on,0,0,0,,,,,,67,127,0
43531,note_on,110,0,0,,,,,,60,127,0
43638,note_off,107,0,0,,,,,,67,127,0
43639,note_off,1,0,0,,,,,,60,127,0
43639,note_off,0,0,0,,,,,,51,127,0
43640,note_on,1,0,0,,,,,,50,127,0
43640,note_on,0,0,0,,,,,,58,127,0
43750,note_on,110,0,0,,,,,,67,127,0
43857,note_off,107,0,0,,,,,,58,127,0
43859,note_on,2,0,0,,,,,,38,127,0
43859,note_on,0,0,0,,,,,,57,127,0
43966,note_off,107,0,0,,,,,,67,127,0
43968,note_on,2,0,0,,,,,,66,127,0
44073,note_off,105,0,0,,,,,,50,127,0
44075,note_off,2,0,0,,,,,,57,127,0
44076,note_off,1,0,0,,,,,,66,127,0
44076,note_off,0,0,0,,,,,,38,127,0
44077,note_on,1,0,0,,,,,,43,127,0
44077,note_on,0,0,0,,,,,,55,127,0
44186,note_off,109,0,0,,,,,,55,127,0
44187,note_on,1,0,0,,,,,,50,127,0
44296,note_off,109,0,0,,,,,,50,127,0
44297,note_on,1,0,0,,,,,,58,127,0
44406,note_off,109,0,0,,,,,,58,127,0
44407,note_on,1,0,0,,,,,,55,127,0
44516,note_off,109,0,0,,,,,,55,127,0
44517,note_on,1,0,0,,,,,,62,127,0
44626,note_off,109,0,0,,,,,,62,127,0
44627,note_on,1,0,0,,,,,,58,127,0
44736,note_off,109,0,0,,,,,,58,127,0
44737,note_on,1,0,0,,,,,,67,127,0
44846,note_off,109,0,0,,,,,,67,127,0
44847,note_on,1,0,0,,,,,,62,127,0
44956,note_off,109,0,0,,,,,,62,127,0
44957,note_on,1,0,0,,,,,,70,127,0
45066,note_off,109,0,0,,,,,,70,127,0
45067,note_on,1,0,0,,,,,,67,127,0
45176,note_off,109,0,0,,,,,,67,127,0
45177,note_on,1,0,0,,,,,,74,127,0
45286,note_off,109,0,0,,,,,,74,127,0
45287,note_on,1,0,0,,,,,,70,127,0
45396,note_off,109,0,0,,,,,,70,127,0
45397,note_off,1,0,0,,,,,,43,127,0
45397,note_on,0,0,0,,,,,,79,127,0
45507,note_on,110,0,0,,,,,,74,127,0
45616,note_off,109,0,0,,,,,,74,127,0
45617,note_on,1,0,0,,,,,,70,127,0
45726,note_off,109,0,0,,,,,,70,127,0
45727,note_on,1,0,0,,,,,,74,127,0
45832,note_off,105,0,0,,,,,,79,127,0
45835,note_off,3,0,0,,,,,,74,127,0
45836,note_on,1,0,0,,,,,,67,127,0
45946,note_on,110,0,0,,,,,,79,127,0
46055,note_off,109,0,0,,,,,,79,127,0
46056,note_on,1,0,0,,,,,,74,127,0
46165,note_off,109,0,0,,,,,,74,127,0
46166,note_on,1,0,0,,,,,,79,127,0
46275,note_off,109,0,0,,,,,,79,127,0
46276,note_on,1,0,0,,,,,,70,127,0
46385,note_off,109,0,0,,,,,,70,127,0
46386,note_on,1,0,0,,,,,,74,127,0
46495,note_off,109,0,0,,,,,,74,127,0
46496,note_on,1,0,0,,,,,,67,127,0
46605,note_off,109,0,0,,,,,,67,127,0
46606,note_on,1,0,0,,,,,,70,127,0
46707,note_off,101,0,0,,,,,,67,127,0
46715,note_off,8,0,0,,,,,,70,127,0
46716,note_on,1,0,0,,,,,,62,127,0
46825,note_off,109,0,0,,,,,,62,127,0
46826,note_on,1,0,0,,,,,,67,127,0
46936,note_on,110,0,0,,,,,,58,127,0
47045,note_off,109,0,0,,,,,,58,127,0
47046,note_on,1,0,0,,,,,,62,127,0
47155,note_off,109,0,0,,,,,,62,127,0
47156,note_off,1,0,0,,,,,,67,127,0
47156,note_on,0,0,0,,,,,,55,127,0
47265,note_off,109,0,0,,,,,,55,127,0
47266,note_on,1,0,0,,,,,,58,127,0
47375,note_off,109,0,0,,,,,,58,127,0
47376,note_on,1,0,0,,,,,,50,127,0
47485,note_off,109,0,0,,,,,,50,127,0
47486,note_on,1,0,0,,,,,,55,127,0
47596,note_on,110,0,0,,,,,,43,127,0
47703,note_off,107,0,0,,,,,,55,127,0
48396,note_off,693,0,0,,,,,,43,127,0
48474,note_on,78,0,0,,,,,,55,127,0
48474,note_on,0,0,0,,,,,,67,127,0
48692,note_off,218,0,0,,,,,,55,127,0
48693,note_on,1,0,0,,,,,,43,127,0
48693,note_on,0,0,0,,,,,,55,127,0
48803,note_off,110,0,0,,,,,,67,127,0
48912,note_off,109,0,0,,,,,,55,127,0
48912,note_off,0,0,0,,,,,,43,127,0
48913,note_on,1,0,0,,,,,,43,127,0
48913,note_on,0,0,0,,,,,,55,127,0
49131,note_off,218,0,0,,,,,,55,127,0
49131,note_off,0,0,0,,,,,,43,127,0
49132,note_on,1,0,0,,,,,,43,127,0
49132,note_on,0,0,0,,,,,,55,127,0
49350,note_off,218,0,0,,,,,,55,127,0
49350,note_off,0,0,0,,,,,,43,127,0
49351,note_on,1,0,0,,,,,,57,127,0
49351,note_on,0,0,0,,,,,,69,127,0
49405,note_off,54,0,0,,,,,,69,127,0
49405,note_off,0,0,0,,,,,,57,127,0
49406,note_on,1,0,0,,,,,,55,127,0
49406,note_on,0,0,0,,,,,,67,127,0
49460,note_off,54,0,0,,,,,,67,127,0
49460,note_off,0,0,0,,,,,,55,127,0
49461,note_on,1,0,0,,,,,,57,127,0
49461,note_on,0,0,0,,,,,,69,127,0
49515,note_off,54,0,0,,,,,,69,127,0
49515,note_off,0,0,0,,,,,,57,127,0
49516,note_on,1,0,0,,,,,,55,127,0
49516,note_on,0,0,0,,,,,,67,127,0
49570,note_off,54,0,0,,,,,,67,127,0
49570,note_off,0,0,0,,,,,,55,127,0
49571,note_on,1,0,0,,,,,,57,127,0
49571,note_on,0,0,0,,,,,,69,127,0
49625,note_off,54,0,0,,,,,,69,127,0
49625,note_off,0,0,0,,,,,,57,127,0
49626,note_on,1,0,0,,,,,,55,127,0
49626,note_on,0,0,0,,,,,,67,127,0
49680,note_off,54,0,0,,,,,,67,127,0
49680,note_off,0,0,0,,,,,,55,127,0
49681,note_on,1,0,0,,,,,,54,127,0
49681,note_on,0,0,0,,,,,,66,127,0
49790,note_off,109,0,0,,,,,,66,127,0
49790,note_off,0,0,0,,,,,,54,127,0
49791,note_on,1,0,0,,,,,,55,127,0
49791,note_on,0,0,0,,,,,,67,127,0
49900,note_off,109,0,0,,,,,,67,127,0
49900,note_off,0,0,0,,,,,,55,127,0
49901,note_on,1,0,0,,,,,,57,127,0
49901,note_on,0,0,0,,,,,,69,127,0
50010,note_off,109,0,0,,,,,,69,127,0
50010,note_off,0,0,0,,,,,,57,127,0
50011,note_on,1,0,0,,,,,,58,127,0
50011,note_on,0,0,0,,,,,,70,127,0
50120,note_off,109,0,0,,,,,,70,127,0
50120,note_off,0,0,0,,,,,,58,127,0
50121,note_on,1,0,0,,,,,,57,127,0
50121,note_on,0,0,0,,,,,,69,127,0
50230,note_off,109,0,0,,,,,,69,127,0
50230,note_off,0,0,0,,,,,,57,127,0
50231,note_on,1,0,0,,,,,,55,127,0
50231,note_on,0,0,0,,,,,,67,127,0
50340,note_off,109,0,0,,,,,,67,127,0
50340,note_off,0,0,0,,,,,,55,127,0
50341,note_on,1,0,0,,,,,,53,127,0
50341,note_on,0,0,0,,,,,,65,127,0
50450,note_off,109,0,0,,,,,,65,127,0
50450,note_off,0,0,0,,,,,,53,127,0
50451,note_on,1,0,0,,,,,,51,127,0
50451,note_on,0,0,0,,,,,,63,127,0
50560,note_off,109,0,0,,,,,,63,127,0
50560,note_off,0,0,0,,,,,,51,127,0
50561,note_on,1,0,0,,,,,,50,127,0
50561,note_on,0,0,0,,,,,,62,127,0
50670,note_off,109,0,0,,,,,,62,127,0
50670,note_off,0,0,0,,,,,,50,127,0
50671,note_on,1,0,0,,,,,,48,127,0
50671,note_on,0,0,0,,,,,,60,127,0
50780,note_off,109,0,0,,,,,,60,127,0
50780,note_off,0,0,0,,,,,,48,127,0
50781,note_on,1,0,0,,,,,,51,127,0
50781,note_on,0,0,0,,,,,,63,127,0
50890,note_off,109,0,0,,,,,,63,127,0
50890,note_off,0,0,0,,,,,,51,127,0
50891,note_on,1,0,0,,,,,,50,127,0
50891,note_on,0,0,0,,,,,,62,127,0
51000,note_off,109,0,0,,,,,,62,127,0
51000,note_off,0,0,0,,,,,,50,127,0
51001,note_on,1,0,0,,,,,,48,127,0
51001,note_on,0,0,0,,,,,,60,127,0
51110,note_off,109,0,0,,,,,,60,127,0
51110,note_off,0,0,0,,,,,,48,127,0
51111,note_on,1,0,0,,,,,,48,127,0
51111,note_on,0,0,0,,,,,,60,127,0
51165,note_off,54,0,0,,,,,,60,127,0
51165,note_off,0,0,0,,,,,,48,127,0
51166,note_on,1,0,0,,,,,,46,127,0
51166,note_on,0,0,0,,,,,,58,127,0
51220,note_off,54,0,0,,,,,,58,127,0
51220,note_off,0,0,0,,,,,,46,127,0
51221,note_on,1,0,0,,,,,,48,127,0
51221,note_on,0,0,0,,,,,,60,127,0
51275,note_off,54,0,0,,,,,,60,127,0
51275,note_off,0,0,0,,,,,,48,127,0
51276,note_on,1,0,0,,,,,,46,127,0
51276,note_on,0,0,0,,,,,,58,127,0
51330,note_off,54,0,0,,,,,,58,127,0
51330,note_off,0,0,0,,,,,,46,127,0
51331,note_on,1,0,0,,,,,,48,127,0
51331,note_on,0,0,0,,,,,,60,127,0
51385,note_off,54,0,0,,,,,,60,127,0
51385,note_off,0,0,0,,,,,,48,127,0
51386,note_on,1,0,0,,,,,,46,127,0
51386,note_on,0,0,0,,,,,,58,127,0
51440,note_off,54,0,0,,,,,,58,127,0
51440,note_off,0,0,0,,,,,,46,127,0
51441,note_on,1,0,0,,,,,,45,127,0
51441,note_on,0,0,0,,,,,,57,127,0
51495,note_off,54,0,0,,,,,,57,127,0
51495,note_off,0,0,0,,,,,,45,127,0
51496,note_on,1,0,0,,,,,,46,127,0
51496,note_on,0,0,0,,,,,,58,127,0
51550,note_off,54,0,0,,,,,,58,127,0
51550,note_off,0,0,0,,,,,,46,127,0
51551,note_on,1,0,0,,,,,,43,127,0
51551,note_on,0,0,0,,,,,,55,127,0
51989,note_off,438,0,0,,,,,,55,127,0
51989,note_off,0,0,0,,,,,,43,127,0
51990,note_on,1,0,0,,,,,,58,127,0
51990,note_on,0,0,0,,,,,,70,127,0
52208,note_off,218,0,0,,,,,,58,127,0
52209,note_on,1,0,0,,,,,,46,127,0
52209,note_on,0,0,0,,,,,,58,127,0
52319,note_off,110,0,0,,,,,,70,127,0
52428,note_off,109,0,0,,,,,,58,127,0
52428,note_off,0,0,0,,,,,,46,127,0
52429,note_on,1,0,0,,,,,,46,127,0
52429,note_on,0,0,0,,,,,,58,127,0
52647,note_off,218,0,0,,,,,,58,127,0
52647,note_off,0,0,0,,,,,,46,127,0
52648,note_on,1,0,0,,,,,,46,127,0
52648,note_on,0,0,0,,,,,,58,127,0
52866,note_off,218,0,0,,,,,,58,127,0
52866,note_off,0,0,0,,,,,,46,127,0
52867,note_on,1,0,0,,,,,,60,127,0
52867,note_on,0,0,0,,,,,,72,127,0
52921,note_off,54,0,0,,,,,,72,127,0
52921,note_off,0,0,0,,,,,,60,127,0
52922,note_on,1,0,0,,,,,,58,127,0
52922,note_on,0,0,0,,,,,,70,127,0
52976,note_off,54,0,0,,,,,,70,127,0
52976,note_off,0,0,0,,,,,,58,127,0
52977,note_on,1,0,0,,,,,,60,127,0
52977,note_on,0,0,0,,,,,,72,127,0
53031,note_off,54,0,0,,,,,,72,127,0
53031,note_off,0,0,0,,,,,,60,127,0
53032,note_on,1,0,0,,,,,,58,127,0
53032,note_on,0,0,0,,,,,,70,127,0
53086,note_off,54,0,0,,,,,,70,127,0
53086,note_off,0,0,0,,,,,,58,127,0
53087,note_on,1,0,0,,,,,,60,127,0
53087,note_on,0,0,0,,,,,,72,127,0
53141,note_off,54,0,0,,,,,,72,127,0
53141,note_off,0,0,0,,,,,,60,127,0
53142,note_on,1,0,0,,,,,,58,127,0
53142,note_on,0,0,0,,,,,,70,127,0
53196,note_off,54,0,0,,,,,,70,127,0
53196,note_off,0,0,0,,,,,,58,127,0
53197,note_on,1,0,0,,,,,,57,127,0
53197,note_on,0,0,0,,,,,,69,127,0
53306,note_off,109,0,0,,,,,,69,127,0
53306,note_off,0,0,0,,,,,,57,127,0
53307,note_on,1,0,0,,,,,,58,127,0
53307,note_on,0,0,0,,,,,,70,127,0
53416,note_off,109,0,0,,,,,,70,127,0
53416,note_off,0,0,0,,,,,,58,127,0
53417,note_on,1,0,0,,,,,,60,127,0
53417,note_on,0,0,0,,,,,,72,127,0
53526,note_off,109,0,0,,,,,,72,127,0
53526,note_off,0,0,0,,,,,,60,127,0
53527,note_on,1,0,0,,,,,,62,127,0
53527,note_on,0,0,0,,,,,,74,127,0
53636,note_off,109,0,0,,,,,,74,127,0
53636,note_off,0,0,0,,,,,,62,127,0
53637,note_on,1,0,0,,,,,,60,127,0
53637,note_on,0,0,0,,,,,,72,127,0
53746,note_off,109,0,0,,,,,,72,127,0
53746,note_off,0,0,0,,,,,,60,127,0
53747,note_on,1,0,0,,,,,,58,127,0
53747,note_on,0,0,0,,,,,,70,127,0
53856,note_off,109,0,0,,,,,,70,127,0
53856,note_off,0,0,0,,,,,,58,127,0
53857,note_on,1,0,0,,,,,,57,127,0
53857,note_on,0,0,0,,,,,,69,127,0
53966,note_off,109,0,0,,,,,,69,127,0
53966,note_off,0,0,0,,,,,,57,127,0
53967,note_on,1,0,0,,,,,,55,127,0
53967,note_on,0,0,0,,,,,,67,127,0
54076,note_off,109,0,0,,,,,,67,127,0
54076,note_off,0,0,0,,,,,,55,127,0
54077,note_on,1,0,0,,,,,,53,127,0
54077,note_on,0,0,0,,,,,,65,127,0
54186,note_off,109,0,0,,,,,,65,127,0
54186,note_off,0,0,0,,,,,,53,127,0
54187,note_on,1,0,0,,,,,,51,127,0
54187,note_on,0,0,0,,,,,,63,127,0
54296,note_off,109,0,0,,,,,,63,127,0
54296,note_off,0,0,0,,,,,,51,127,0
54297,note_on,1,0,0,,,,,,55,127,0
54297,note_on,0,0,0,,,,,,67,127,0
54406,note_off,109,0,0,,,,,,67,127,0
54406,note_off,0,0,0,,,,,,55,127,0
54407,note_on,1,0,0,,,,,,53,127,0
54407,note_on,0,0,0,,,,,,65,127,0
54516,note_off,109,0,0,,,,,,65,127,0
54516,note_off,0,0,0,,,,,,53,127,0
54517,note_on,1,0,0,,,,,,51,127,0
54517,note_on,0,0,0,,,,,,63,127,0
54626,note_off,109,0,0,,,,,,63,127,0
54626,note_off,0,0,0,,,,,,51,127,0
54627,note_on,1,0,0,,,,,,51,127,0
54627,note_on,0,0,0,,,,,,63,127,0
54681,note_off,54,0,0,,,,,,63,127,0
54681,note_off,0,0,0,,,,,,51,127,0
54682,note_on,1,0,0,,,,,,50,127,0
54682,note_on,0,0,0,,,,,,62,127,0
54736,note_off,54,0,0,,,,,,62,127,0
54736,note_off,0,0,0,,,,,,50,127,0
54737,note_on,1,0,0,,,,,,51,127,0
54737,note_on,0,0,0,,,,,,63,127,0
54791,note_off,54,0,0,,,,,,63,127,0
54791,note_off,0,0,0,,,,,,51,127,0
54792,note_on,1,0,0,,,,,,50,127,0
54792,note_on,0,0,0,,,,,,62,127,0
54846,note_off,54,0,0,,,,,,62,127,0
54846,note_off,0,0,0,,,,,,50,127,0
54847,note_on,1,0,0,,,,,,51,127,0
54847,note_on,0,0,0,,,,,,63,127,0
54901,note_off,54,0,0,,,,,,63,127,0
54901,note_off,0,0,0,,,,,,51,127,0
54902,note_on,1,0,0,,,,,,50,127,0
54902,note_on,0,0,0,,,,,,62,127,0
54956,note_off,54,0,0,,,,,,62,127,0
54956,note_off,0,0,0,,,,,,50,127,0
54957,note_on,1,0,0,,,,,,48,127,0
54957,note_on,0,0,0,,,,,,60,127,0
55011,note_off,54,0,0,,,,,,60,127,0
55011,note_off,0,0,0,,,,,,48,127,0
55012,note_on,1,0,0,,,,,,50,127,0
55012,note_on,0,0,0,,,,,,62,127,0
55066,note_off,54,0,0,,,,,,62,127,0
55066,note_off,0,0,0,,,,,,50,127,0
55067,note_on,1,0,0,,,,,,46,127,0
55067,note_on,0,0,0,,,,,,58,127,0
55505,note_off,438,0,0,,,,,,58,127,0
55506,note_on,1,0,0,,,,,,70,127,0
55506,note_on,0,0,0,,,,,,74,127,0
55506,note_on,0,0,0,,,,,,77,127,0
55615,note_off,109,0,0,,,,,,46,127,0
55616,note_on,1,0,0,,,,,,46,127,0
55725,note_off,109,0,0,,,,,,46,127,0
55726,note_on,1,0,0,,,,,,50,127,0
55835,note_off,109,0,0,,,,,,50,127,0
55836,note_on,1,0,0,,,,,,53,127,0
55945,note_off,109,0,0,,,,,,53,127,0
55946,note_on,1,0,0,,,,,,58,127,0
56055,note_off,109,0,0,,,,,,58,127,0
56056,note_on,1,0,0,,,,,,62,127,0
56165,note_off,109,0,0,,,,,,62,127,0
56165,note_off,0,0,0,,,,,,70,127,0
56166,note_on,1,0,0,,,,,,65,127,0
56275,note_off,109,0,0,,,,,,65,127,0
56276,note_on,1,0,0,,,,,,70,127,0
56385,note_off,109,0,0,,,,,,70,127,0
56385,note_off,0,0,0,,,,,,77,127,0
56385,note_off,0,0,0,,,,,,74,127,0
56386,note_on,1,0,0,,,,,,41,127,0
56605,note_on,219,0,0,,,,,,65,127,0
56605,note_on,0,0,0,,,,,,69,127,0
56714,note_off,109,0,0,,,,,,69,127,0
56715,note_on,1,0,0,,,,,,70,127,0
56742,note_off,27,0,0,,,,,,65,127,0
56823,note_off,81,0,0,,,,,,70,127,0
56824,note_on,1,0,0,,,,,,65,127,0
56824,note_on,0,0,0,,,,,,72,127,0
56933,note_off,109,0,0,,,,,,72,127,0
56934,note_on,1,0,0,,,,,,74,127,0
56961,note_off,27,0,0,,,,,,65,127,0
57042,note_off,81,0,0,,,,,,74,127,0
57043,note_on,1,0,0,,,,,,65,127,0
57043,note_on,0,0,0,,,,,,75,127,0
57152,note_off,109,0,0,,,,,,75,127,0
57153,note_on,1,0,0,,,,,,72,127,0
57180,note_off,27,0,0,,,,,,65,127,0
57261,note_off,81,0,0,,,,,,72,127,0
57261,note_off,0,0,0,,,,,,41,127,0
57262,note_on,1,0,0,,,,,,74,127,0
57262,note_on,0,0,0,,,,,,65,127,0
57262,note_on,0,0,0,,,,,,70,127,0
57372,note_on,110,0,0,,,,,,46,127,0
57481,note_off,109,0,0,,,,,,46,127,0
57482,note_on,1,0,0,,,,,,50,127,0
57591,note_off,109,0,0,,,,,,50,127,0
57592,note_on,1,0,0,,,,,,53,127,0
57701,note_off,109,0,0,,,,,,53,127,0
57702,note_on,1,0,0,,,,,,58,127,0
57811,note_off,109,0,0,,,,,,58,127,0
57812,note_on,1,0,0,,,,,,62,127,0
57921,note_off,109,0,0,,,,,,62,127,0
57921,note_off,0,0,0,,,,,,65,127,0
57922,note_on,1,0,0,,,,,,65,127,0
58031,note_off,109,0,0,,,,,,65,127,0
58031,note_off,0,0,0,,,,,,70,127,0
58032,note_on,1,0,0,,,,,,70,127,0
58141,note_off,109,0,0,,,,,,70,127,0
58141,note_off,0,0,0,,,,,,74,127,0
58142,note_on,1,0,0,,,,,,41,127,0
58361,note_on,219,0,0,,,,,,65,127,0
58361,note_on,0,0,0,,,,,,69,127,0
58470,note_off,109,0,0,,,,,,69,127,0
58471,note_on,1,0,0,,,,,,70,127,0
58498,note_off,27,0,0,,,,,,65,127,0
58579,note_off,81,0,0,,,,,,70,127,0
58580,note_on,1,0,0,,,,,,65,127,0
58580,note_on,0,0,0,,,,,,72,127,0
58689,note_off,109,0,0,,,,,,72,127,0
58690,note_on,1,0,0,,,,,,74,127,0
58717,note_off,27,0,0,,,,,,65,127,0
58798,note_off,81,0,0,,,,,,74,127,0
58799,note_on,1,0,0,,,,,,65,127,0
58799,note_on,0,0,0,,,,,,75,127,0
58908,note_off,109,0,0,,,,,,75,127,0
58909,note_on,1,0,0,,,,,,72,127,0
58936,note_off,27,0,0,,,,,,65,127,0
59017,note_off,81,0,0,,,,,,72,127,0
59017,note_off,0,0,0,,,,,,41,127,0
59018,note_on,1,0,0,,,,,,70,127,0
59018,note_on,0,0,0,,,,,,74,127,0
59018,note_on,0,0,0,,,,,,65,127,0
59128,note_on,110,0,0,,,,,,46,127,0
59237,note_off,109,0,0,,,,,,46,127,0
59238,note_on,1,0,0,,,,,,50,127,0
59347,note_off,109,0,0,,,,,,50,127,0
59348,note_on,1,0,0,,,,,,53,127,0
59457,note_off,109,0,0,,,,,,53,127,0
59458,note_on,1,0,0,,,,,,58,127,0
59567,note_off,109,0,0,,,,,,58,127,0
59568,note_on,1,0,0,,,,,,62,127,0
59677,note_off,109,0,0,,,,,,62,127,0
59677,note_off,0,0,0,,,,,,65,127,0
59678,note_on,1,0,0,,,,,,65,127,0
59787,note_off,109,0,0,,,,,,65,127,0
59787,note_off,0,0,0,,,,,,70,127,0
59788,note_on,1,0,0,,,,,,70,127,0
59897,note_off,109,0,0,,,,,,70,127,0
59897,note_off,0,0,0,,,,,,74,127,0
59898,note_on,1,0,0,,,,,,43,127,0
60117,note_on,219,0,0,,,,,,67,127,0
60117,note_on,0,0,0,,,,,,71,127,0
60226,note_off,109,0,0,,,,,,71,127,0
60227,note_on,1,0,0,,,,,,72,127,0
60254,note_off,27,0,0,,,,,,67,127,0
60335,note_off,81,0,0,,,,,,72,127,0
60336,note_on,1,0,0,,,,,,67,127,0
60336,note_on,0,0,0,,,,,,74,127,0
60445,note_off,109,0,0,,,,,,74,127,0
60446,note_on,1,0,0,,,,,,75,127,0
60473,note_off,27,0,0,,,,,,67,127,0
60554,note_off,81,0,0,,,,,,75,127,0
60555,note_on,1,0,0,,,,,,67,127,0
60555,note_on,0,0,0,,,,,,77,127,0
60664,note_off,109,0,0,,,,,,77,127,0
60665,note_on,1,0,0,,,,,,74,127,0
60692,note_off,27,0,0,,,,,,67,127,0
60773,note_off,81,0,0,,,,,,74,127,0
60774,note_on,1,0,0,,,,,,75,127,0
60774,note_on,0,0,0,,,,,,72,127,0
60774,note_on,0,0,0,,,,,,67,127,0
60883,note_off,109,0,0,,,,,,43,127,0
60884,note_on,1,0,0,,,,,,48,127,0
60993,note_off,109,0,0,,,,,,48,127,0
60994,note_on,1,0,0,,,,,,51,127,0
61103,note_off,109,0,0,,,,,,51,127,0
61104,note_on,1,0,0,,,,,,55,127,0
61213,note_off,109,0,0,,,,,,55,127,0
61214,note_on,1,0,0,,,,,,60,127,0
61323,note_off,109,0,0,,,,,,60,127,0
61324,note_on,1,0,0,,,,,,63,127,0
61433,note_off,109,0,0,,,,,,63,127,0
61433,note_off,0,0,0,,,,,,67,127,0
61434,note_on,1,0,0,,,,,,67,127,0
61543,note_off,109,0,0,,,,,,67,127,0
61543,note_off,0,0,0,,,,,,72,127,0
61544,note_on,1,0,0,,,,,,72,127,0
61653,note_off,109,0,0,,,,,,72,127,0
61653,note_off,0,0,0,,,,,,75,127,0
61654,note_on,1,0,0,,,,,,43,127,0
61873,note_on,219,0,0,,,,,,71,127,0
61873,note_on,0,0,0,,,,,,67,127,0
61982,note_off,109,0,0,,,,,,71,127,0
61983,note_on,1,0,0,,,,,,72,127,0
62010,note_off,27,0,0,,,,,,67,127,0
62091,note_off,81,0,0,,,,,,72,127,0
62092,note_on,1,0,0,,,,,,67,127,0
62092,note_on,0,0,0,,,,,,74,127,0
62201,note_off,109,0,0,,,,,,74,127,0
62202,note_on,1,0,0,,,,,,75,127,0
62229,note_off,27,0,0,,,,,,67,127,0
62310,note_off,81,0,0,,,,,,75,127,0
62311,note_on,1,0,0,,,,,,67,127,0
62311,note_on,0,0,0,,,,,,77,127,0
62420,note_off,109,0,0,,,,,,77,127,0
62421,note_on,1,0,0,,,,,,74,127,0
62448,note_off,27,0,0,,,,,,67,127,0
62529,note_off,81,0,0,,,,,,74,127,0
62530,note_on,1,0,0,,,,,,67,127,0
62530,note_on,0,0,0,,,,,,72,127,0
62530,note_on,0,0,0,,,,,,75,127,0
62639,note_off,109,0,0,,,,,,43,127,0
62640,note_on,1,0,0,,,,,,48,127,0
62749,note_off,109,0,0,,,,,,48,127,0
62750,note_on,1,0,0,,,,,,51,127,0
62859,note_off,109,0,0,,,,,,51,127,0
62860,note_on,1,0,0,,,,,,55,127,0
62969,note_off,109,0,0,,,,,,55,127,0
62970,note_on,1,0,0,,,,,,60,127,0
63079,note_off,109,0,0,,,,,,60,127,0
63080,note_on,1,0,0,,,,,,63,127,0
63189,note_off,109,0,0,,,,,,63,127,0
63189,note_off,0,0,0,,,,,,67,127,0
63190,note_on,1,0,0,,,,,,67,127,0
63299,note_off,109,0,0,,,,,,67,127,0
63299,note_off,0,0,0,,,,,,72,127,0
63300,note_on,1,0,0,,,,,,72,127,0
63409,note_off,109,0,0,,,,,,72,127,0
63409,note_off,0,0,0,,,,,,75,127,0
63410,note_on,1,0,0,,,,,,43,127,0
63629,note_on,219,0,0,,,,,,67,127,0
63629,note_on,0,0,0,,,,,,71,127,0
63738,note_off,109,0,0,,,,,,71,127,0
63739,note_on,1,0,0,,,,,,72,127,0
63766,note_off,27,0,0,,,,,,67,127,0
63847,note_off,81,0,0,,,,,,72,127,0
63848,note_on,1,0,0,,,,,,67,127,0
63848,note_on,0,0,0,,,,,,74,127,0
63957,note_off,109,0,0,,,,,,74,127,0
63958,note_on,1,0,0,,,,,,75,127,0
63985,note_off,27,0,0,,,,,,67,127,0
64066,note_off,81,0,0,,,,,,75,127,0
64067,note_on,1,0,0,,,,,,67,127,0
64067,note_on,0,0,0,,,,,,77,127,0
64140,note_off,73,0,0,,,,,,43,127,0
64175,note_off,35,0,0,,,,,,77,127,0
64175,note_off,0,0,0,,,,,,67,127,0
64176,note_on,1,0,0,,,,,,74,127,0
64285,note_off,109,0,0,,,,,,74,127,0
64286,note_on,1,0,0,,,,,,76,127,0
64395,note_off,109,0,0,,,,,,76,127,0
64396,note_on,1,0,0,,,,,,77,127,0
64505,note_off,109,0,0,,,,,,77,127,0
64506,note_on,1,0,0,,,,,,48,127,0
64506,note_on,0,0,0,,,,,,76,127,0
64615,note_off,109,0,0,,,,,,76,127,0
64616,note_on,1,0,0,,,,,,74,127,0
64725,note_off,109,0,0,,,,,,74,127,0
64725,note_off,0,0,0,,,,,,48,127,0
64726,note_on,1,0,0,,,,,,48,127,0
64726,note_on,0,0,0,,,,,,72,127,0
64835,note_off,109,0,0,,,,,,72,127,0
64836,note_on,1,0,0,,,,,,70,127,0
64945,note_off,109,0,0,,,,,,70,127,0
64945,note_off,0,0,0,,,,,,48,127,0
64946,note_on,1,0,0,,,,,,48,127,0
64946,note_on,0,0,0,,,,,,68,127,0
65055,note_off,109,0,0,,,,,,68,127,0
65056,note_on,1,0,0,,,,,,67,127,0
65165,note_off,109,0,0,,,,,,67,127,0
65165,note_off,0,0,0,,,,,,48,127,0
65166,note_on,1,0,0,,,,,,48,127,0
65166,note_on,0,0,0,,,,,,68,127,0
65276,note_on,110,0,0,,,,,,67,127,0
65303,note_off,27,0,0,,,,,,68,127,0
65384,note_off,81,0,0,,,,,,67,127,0
65384,note_off,0,0,0,,,,,,48,127,0
65385,note_on,1,0,0,,,,,,53,127,0
65385,note_on,0,0,0,,,,,,48,127,0
65385,note_on,0,0,0,,,,,,68,127,0
65495,note_on,110,0,0,,,,,,77,127,0
65522,note_off,27,0,0,,,,,,68,127,0
65603,note_off,81,0,0,,,,,,77,127,0
65603,note_off,0,0,0,,,,,,48,127,0
65603,note_off,0,0,0,,,,,,53,127,0
65604,note_on,1,0,0,,,,,,48,127,0
65604,note_on,0,0,0,,,,,,53,127,0
65604,note_on,0,0,0,,,,,,68,127,0
65714,note_on,110,0,0,,,,,,67,127,0
65741,note_off,27,0,0,,,,,,68,127,0
65822,note_off,81,0,0,,,,,,67,127,0
65822,note_off,0,0,0,,,,,,53,127,0
65822,note_off,0,0,0,,,,,,48,127,0
65823,note_on,1,0,0,,,,,,48,127,0
65823,note_on,0,0,0,,,,,,53,127,0
65823,note_on,0,0,0,,,,,,68,127,0
65933,note_on,110,0,0,,,,,,77,127,0
65960,note_off,27,0,0,,,,,,68,127,0
66041,note_off,81,0,0,,,,,,77,127,0
66041,note_off,0,0,0,,,,,,53,127,0
66041,note_off,0,0,0,,,,,,48,127,0
66042,note_on,1,0,0,,,,,,53,127,0
66042,note_on,0,0,0,,,,,,48,127,0
66042,note_on,0,0,0,,,,,,67,127,0
66152,note_on,110,0,0,,,,,,65,127,0
66179,note_off,27,0,0,,,,,,67,127,0
66260,note_off,81,0,0,,,,,,65,127,0
66260,note_off,0,0,0,,,,,,48,127,0
66260,note_off,0,0,0,,,,,,53,127,0
66261,note_on,1,0,0,,,,,,48,127,0
66261,note_on,0,0,0,,,,,,52,127,0
66261,note_on,0,0,0,,,,,,67,127,0
66371,note_on,110,0,0,,,,,,76,127,0
66398,note_off,27,0,0,,,,,,67,127,0
66479,note_off,81,0,0,,,,,,76,127,0
66479,note_off,0,0,0,,,,,,52,127,0
66479,note_off,0,0,0,,,,,,48,127,0
66480,note_on,1,0,0,,,,,,48,127,0
66480,note_on,0,0,0,,,,,,52,127,0
66480,note_on,0,0,0,,,,,,67,127,0
66590,note_on,110,0,0,,,,,,65,127,0
66617,note_off,27,0,0,,,,,,67,127,0
66698,note_off,81,0,0,,,,,,65,127,0
66698,note_off,0,0,0,,,,,,52,127,0
66698,note_off,0,0,0,,,,,,48,127,0
66699,note_on,1,0,0,,,,,,52,127,0
66699,note_on,0,0,0,,,,,,48,127,0
66699,note_on,0,0,0,,,,,,67,127,0
66809,note_on,110,0,0,,,,,,76,127,0
66836,note_off,27,0,0,,,,,,67,127,0
66917,note_off,81,0,0,,,,,,76,127,0
66917,note_off,0,0,0,,,,,,48,127,0
66917,note_off,0,0,0,,,,,,52,127,0
66918,note_on,1,0,0,,,,,,48,127,0
66918,note_on,0,0,0,,,,,,68,127,0
67027,note_off,109,0,0,,,,,,68,127,0
67028,note_on,1,0,0,,,,,,67,127,0
67137,note_off,109,0,0,,,,,,67,127,0
67137,note_off,0,0,0,,,,,,48,127,0
67138,note_on,1,0,0,,,,,,53,127,0
67138,note_on,0,0,0,,,,,,48,127,0
67138,note_on,0,0,0,,,,,,68,127,0
67247,note_off,109,0,0,,,,,,68,127,0
67248,note_on,1,0,0,,,,,,77,127,0
67357,note_off,109,0,0,,,,,,48,127,0
67357,note_off,0,0,0,,,,,,53,127,0
67358,note_on,1,0,0,,,,,,48,127,0
67358,note_on,0,0,0,,,,,,53,127,0
67358,note_on,0,0,0,,,,,,68,127,0
67465,note_off,107,0,0,,,,,,77,127,0
67466,note_off,1,0,0,,,,,,68,127,0
67467,note_on,1,0,0,,,,,,67,127,0
67576,note_off,109,0,0,,,,,,67,127,0
67576,note_off,0,0,0,,,,,,53,127,0
67576,note_off,0,0,0,,,,,,48,127,0
67577,note_on,1,0,0,,,,,,48,127,0
67577,note_on,0,0,0,,,,,,53,127,0
67577,note_on,0,0,0,,,,,,68,127,0
67686,note_off,109,0,0,,,,,,68,127,0
67687,note_on,1,0,0,,,,,,77,127,0
67796,note_off,109,0,0,,,,,,53,127,0
67796,note_off,0,0,0,,,,,,48,127,0
67797,note_on,1,0,0,,,,,,53,127,0
67797,note_on,0,0,0,,,,,,48,127,0
67797,note_on,0,0,0,,,,,,67,127,0
67904,note_off,107,0,0,,,,,,77,127,0
67905,note_off,1,0,0,,,,,,67,127,0
67906,note_on,1,0,0,,,,,,65,127,0
68015,note_off,109,0,0,,,,,,65,127,0
68015,note_off,0,0,0,,,,,,48,127,0
68015,note_off,0,0,0,,,,,,53,127,0
68016,note_on,1,0,0,,,,,,52,127,0
68016,note_on,0,0,0,,,,,,48,127,0
68016,note_on,0,0,0,,,,,,67,127,0
68125,note_off,109,0,0,,,,,,67,127,0
68126,note_on,1,0,0,,,,,,76,127,0
68235,note_off,109,0,0,,,,,,48,127,0
68235,note_off,0,0,0,,,,,,52,127,0
68236,note_on,1,0,0,,,,,,52,127,0
68236,note_on,0,0,0,,,,,,48,127,0
68236,note_on,0,0,0,,,,,,67,127,0
68343,note_off,107,0,0,,,,,,76,127,0
68344,note_off,1,0,0,,,,,,67,127,0
68345,note_on,1,0,0,,,,,,65,127,0
68454,note_off,109,0,0,,,,,,65,127,0
68454,note_off,0,0,0,,,,,,48,127,0
68454,note_off,0,0,0,,,,,,52,127,0
68455,note_on,1,0,0,,,,,,48,127,0
68455,note_on,0,0,0,,,,,,52,127,0
68455,note_on,0,0,0,,,,,,67,127,0
68564,note_off,109,0,0,,,,,,67,127,0
68565,note_on,1,0,0,,,,,,76,127,0
68674,note_off,109,0,0,,,,,,76,127,0
68674,note_off,0,0,0,,,,,,52,127,0
68674,note_off,0,0,0,,,,,,48,127,0
68675,note_on,1,0,0,,,,,,48,127,0
68675,note_on,0,0,0,,,,,,68,127,0
68784,note_off,109,0,0,,,,,,68,127,0
68785,note_on,1,0,0,,,,,,67,127,0
68894,note_off,109,0,0,,,,,,67,127,0
68894,note_off,0,0,0,,,,,,48,127,0
68895,note_on,1,0,0,,,,,,48,127,0
68895,note_on,0,0,0,,,,,,53,127,0
68895,note_on,0,0,0,,,,,,68,127,0
69004,note_off,109,0,0,,,,,,68,127,0
69005,note_on,1,0,0,,,,,,77,127,0
69114,note_off,109,0,0,,,,,,53,127,0
69114,note_off,0,0,0,,,,,,48,127,0
69115,note_on,1,0,0,,,,,,53,127,0
69115,note_on,0,0,0,,,,,,48,127,0
69115,note_on,0,0,0,,,,,,68,127,0
69222,note_off,107,0,0,,,,,,77,127,0
69223,note_off,1,0,0,,,,,,68,127,0
69224,note_on,1,0,0,,,,,,67,127,0
69333,note_off,109,0,0,,,,,,67,127,0
69333,note_off,0,0,0,,,,,,48,127,0
69333,note_off,0,0,0,,,,,,53,127,0
69334,note_on,1,0,0,,,,,,53,127,0
69334,note_on,0,0,0,,,,,,48,127,0
69334,note_on,0,0,0,,,,,,68,127,0
69443,note_off,109,0,0,,,,,,68,127,0
69444,note_on,1,0,0,,,,,,75,127,0
69553,note_off,109,0,0,,,,,,48,127,0
69553,note_off,0,0,0,,,,,,53,127,0
69554,note_on,1,0,0,,,,,,51,127,0
69554,note_on,0,0,0,,,,,,46,127,0
69554,note_on,0,0,0,,,,,,65,127,0
69661,note_off,107,0,0,,,,,,75,127,0
69662,note_off,1,0,0,,,,,,65,127,0
69663,note_on,1,0,0,,,,,,63,127,0
69772,note_off,109,0,0,,,,,,63,127,0
69772,note_off,0,0,0,,,,,,46,127,0
69772,note_off,0,0,0,,,,,,51,127,0
69773,note_on,1,0,0,,,,,,46,127,0
69773,note_on,0,0,0,,,,,,50,127,0
69773,note_on,0,0,0,,,,,,65,127,0
69882,note_off,109,0,0,,,,,,65,127,0
69883,note_on,1,0,0,,,,,,74,127,0
69992,note_off,109,0,0,,,,,,50,127,0
69992,note_off,0,0,0,,,,,,46,127,0
69993,note_on,1,0,0,,,,,,50,127,0
69993,note_on,0,0,0,,,,,,46,127,0
69993,note_on,0,0,0,,,,,,65,127,0
70100,note_off,107,0,0,,,,,,74,127,0
70101,note_off,1,0,0,,,,,,65,127,0
70102,note_on,1,0,0,,,,,,63,127,0
70211,note_off,109,0,0,,,,,,63,127,0
70211,note_off,0,0,0,,,,,,46,127,0
70211,note_off,0,0,0,,,,,,50,127,0
70212,note_on,1,0,0,,,,,,46,127,0
70212,note_on,0,0,0,,,,,,50,127,0
70212,note_on,0,0,0,,,,,,65,127,0
70321,note_off,109,0,0,,,,,,65,127,0
70322,note_on,1,0,0,,,,,,74,127,0
70431,note_off,109,0,0,,,,,,74,127,0
70431,note_off,0,0,0,,,,,,50,127,0
70431,note_off,0,0,0,,,,,,46,127,0
70432,note_on,1,0,0,,,,,,46,127,0
70432,note_on,0,0,0,,,,,,67,127,0
70541,note_off,109,0,0,,,,,,67,127,0
70542,note_on,1,0,0,,,,,,65,127,0
70651,note_off,109,0,0,,,,,,65,127,0
70651,note_off,0,0,0,,,,,,46,127,0
70652,note_on,1,0,0,,,,,,46,127,0
70652,note_on,0,0,0,,,,,,51,127,0
70652,note_on,0,0,0,,,,,,67,127,0
70761,note_off,109,0,0,,,,,,67,127,0
70762,note_on,1,0,0,,,,,,75,127,0
70871,note_off,109,0,0,,,,,,51,127,0
70871,note_off,0,0,0,,,,,,46,127,0
70872,note_on,1,0,0,,,,,,46,127,0
70872,note_on,0,0,0,,,,,,51,127,0
70872,note_on,0,0,0,,,,,,67,127,0
70979,note_off,107,0,0,,,,,,75,127,0
70980,note_off,1,0,0,,,,,,67,127,0
70981,note_on,1,0,0,,,,,,65,127,0
71090,note_off,109,0,0,,,,,,65,127,0
71090,note_off,0,0,0,,,,,,51,127,0
71090,note_off,0,0,0,,,,,,46,127,0
71091,note_on,1,0,0,,,,,,51,127,0
71091,note_on,0,0,0,,,,,,46,127,0
71091,note_on,0,0,0,,,,,,67,127,0
71200,note_off,109,0,0,,,,,,67,127,0
71201,note_on,1,0,0,,,,,,75,127,0
71310,note_off,109,0,0,,,,,,46,127,0
71310,note_off,0,0,0,,,,,,51,127,0
71311,note_on,1,0,0,,,,,,46,127,0
71311,note_on,0,0,0,,,,,,51,127,0
71311,note_on,0,0,0,,,,,,65,127,0
71418,note_off,107,0,0,,,,,,75,127,0
71419,note_off,1,0,0,,,,,,65,127,0
71420,note_on,1,0,0,,,,,,63,127,0
71529,note_off,109,0,0,,,,,,63,127,0
71529,note_off,0,0,0,,,,,,51,127,0
71529,note_off,0,0,0,,,,,,46,127,0
71530,note_on,1,0,0,,,,,,46,127,0
71530,note_on,0,0,0,,,,,,50,127,0
71530,note_on,0,0,0,,,,,,65,127,0
71639,note_off,109,0,0,,,,,,65,127,0
71640,note_on,1,0,0,,,,,,74,127,0
71749,note_off,109,0,0,,,,,,50,127,0
71749,note_off,0,0,0,,,,,,46,127,0
71750,note_on,1,0,0,,,,,,46,127,0
71750,note_on,0,0,0,,,,,,50,127,0
71750,note_on,0,0,0,,,,,,65,127,0
71857,note_off,107,0,0,,,,,,74,127,0
71858,note_off,1,0,0,,,,,,65,127,0
71859,note_on,1,0,0,,,,,,63,127,0
71968,note_off,109,0,0,,,,,,63,127,0
71968,note_off,0,0,0,,,,,,50,127,0
71968,note_off,0,0,0,,,,,,46,127,0
71969,note_on,1,0,0,,,,,,50,127,0
71969,note_on,0,0,0,,,,,,46,127,0
71969,note_on,0,0,0,,,,,,65,127,0
72078,note_off,109,0,0,,,,,,65,127,0
72079,note_on,1,0,0,,,,,,74,127,0
72188,note_off,109,0,0,,,,,,46,127,0
72188,note_off,0,0,0,,,,,,50,127,0
72189,note_on,1,0,0,,,,,,44,127,0
72189,note_on,0,0,0,,,,,,50,127,0
72189,note_on,0,0,0,,,,,,65,127,0
72296,note_off,107,0,0,,,,,,74,127,0
72297,note_off,1,0,0,,,,,,65,127,0
72298,note_on,1,0,0,,,,,,63,127,0
72407,note_off,109,0,0,,,,,,63,127,0
72407,note_off,0,0,0,,,,,,50,127,0
72407,note_off,0,0,0,,,,,,44,127,0
72408,note_on,1,0,0,,,,,,44,127,0
72408,note_on,0,0,0,,,,,,48,127,0
72408,note_on,0,0,0,,,,,,65,127,0
72517,note_off,109,0,0,,,,,,65,127,0
72518,note_on,1,0,0,,,,,,74,127,0
72627,note_off,109,0,0,,,,,,48,127,0
72627,note_off,0,0,0,,,,,,44,127,0
72628,note_on,1,0,0,,,,,,44,127,0
72628,note_on,0,0,0,,,,,,48,127,0
72628,note_on,0,0,0,,,,,,63,127,0
72735,note_off,107,0,0,,,,,,74,127,0
72736,note_off,1,0,0,,,,,,63,127,0
72737,note_on,1,0,0,,,,,,62,127,0
72846,note_off,109,0,0,,,,,,62,127,0
72846,note_off,0,0,0,,,,,,48,127,0
72846,note_off,0,0,0,,,,,,44,127,0
72847,note_on,1,0,0,,,,,,44,127,0
72847,note_on,0,0,0,,,,,,48,127,0
72847,note_on,0,0,0,,,,,,63,127,0
72956,note_off,109,0,0,,,,,,63,127,0
72957,note_on,1,0,0,,,,,,72,127,0
73066,note_off,109,0,0,,,,,,48,127,0
73066,note_off,0,0,0,,,,,,44,127,0
73067,note_on,1,0,0,,,,,,43,127,0
73067,note_on,0,0,0,,,,,,63,127,0
73285,note_off,218,0,0,,,,,,63,127,0
73285,note_off,0,0,0,,,,,,43,127,0
73285,note_off,0,0,0,,,,,,72,127,0
73286,note_on,1,0,0,,,,,,55,127,0
73286,note_on,0,0,0,,,,,,62,127,0
73286,note_on,0,0,0,,,,,,71,127,0
73615,note_off,329,0,0,,,,,,62,127,0
73615,note_off,0,0,0,,,,,,55,127,0
73697,note_off,82,0,0,,,,,,71,127,0
73724,note_on,27,0,0,,,,,,79,127,0
73942,note_off,218,0,0,,,,,,79,127,0
73943,note_on,1,0,0,,,,,,80,127,0
74052,note_off,109,0,0,,,,,,80,127,0
74053,note_on,1,0,0,,,,,,79,127,0
74162,note_off,109,0,0,,,,,,79,127,0
74163,note_on,1,0,0,,,,,,48,127,0
74163,note_on,0,0,0,,,,,,80,127,0
74272,note_off,109,0,0,,,,,,80,127,0
74273,note_on,1,0,0,,,,,,82,127,0
74382,note_off,109,0,0,,,,,,82,127,0
74382,note_off,0,0,0,,,,,,48,127,0
74383,note_on,1,0,0,,,,,,48,127,0
74383,note_on,0,0,0,,,,,,84,127,0
74492,note_off,109,0,0,,,,,,84,127,0
74493,note_on,1,0,0,,,,,,82,127,0
74602,note_off,109,0,0,,,,,,82,127,0
74602,note_off,0,0,0,,,,,,48,127,0
74603,note_on,1,0,0,,,,,,48,127,0
74603,note_on,0,0,0,,,,,,80,127,0
74712,note_off,109,0,0,,,,,,80,127,0
74713,note_on,1,0,0,,,,,,78,127,0
74822,note_off,109,0,0,,,,,,78,127,0
74822,note_off,0,0,0,,,,,,48,127,0
74823,note_on,1,0,0,,,,,,47,127,0
74823,note_on,0,0,0,,,,,,78,127,0
74932,note_off,109,0,0,,,,,,78,127,0
74933,note_on,1,0,0,,,,,,79,127,0
75042,note_off,109,0,0,,,,,,79,127,0
75042,note_off,0,0,0,,,,,,47,127,0
75043,note_on,1,0,0,,,,,,46,127,0
75043,note_on,0,0,0,,,,,,79,127,0
75152,note_off,109,0,0,,,,,,79,127,0
75153,note_on,1,0,0,,,,,,81,127,0
75262,note_off,109,0,0,,,,,,81,127,0
75262,note_off,0,0,0,,,,,,46,127,0
75263,note_on,1,0,0,,,,,,46,127,0
75263,note_on,0,0,0,,,,,,82,127,0
75372,note_off,109,0,0,,,,,,82,127,0
75373,note_on,1,0,0,,,,,,79,127,0
75482,note_off,109,0,0,,,,,,79,127,0
75482,note_off,0,0,0,,,,,,46,127,0
75483,note_on,1,0,0,,,,,,46,127,0
75483,note_on,0,0,0,,,,,,77,127,0
75592,note_off,109,0,0,,,,,,77,127,0
75593,note_on,1,0,0,,,,,,76,127,0
75702,note_off,109,0,0,,,,,,76,127,0
75702,note_off,0,0,0,,,,,,46,127,0
75703,note_on,1,0,0,,,,,,45,127,0
75703,note_on,0,0,0,,,,,,76,127,0
75812,note_off,109,0,0,,,,,,76,127,0
75813,note_on,1,0,0,,,,,,77,127,0
75922,note_off,109,0,0,,,,,,77,127,0
75922,note_off,0,0,0,,,,,,45,127,0
75923,note_on,1,0,0,,,,,,44,127,0
75923,note_on,0,0,0,,,,,,77,127,0
76032,note_off,109,0,0,,,,,,77,127,0
76033,note_on,1,0,0,,,,,,79,127,0
76142,note_off,109,0,0,,,,,,79,127,0
76142,note_off,0,0,0,,,,,,44,127,0
76143,note_on,1,0,0,,,,,,44,127,0
76143,note_on,0,0,0,,,,,,80,127,0
76252,note_off,109,0,0,,,,,,80,127,0
76253,note_on,1,0,0,,,,,,77,127,0
76362,note_off,109,0,0,,,,,,77,127,0
76362,note_off,0,0,0,,,,,,44,127,0
76363,note_on,1,0,0,,,,,,44,127,0
76363,note_on,0,0,0,,,,,,75,127,0
76472,note_off,109,0,0,,,,,,75,127,0
76473,note_on,1,0,0,,,,,,74,127,0
76582,note_off,109,0,0,,,,,,74,127,0
76582,note_off,0,0,0,,,,,,44,127,0
76583,note_on,1,0,0,,,,,,43,127,0
76583,note_on,0,0,0,,,,,,74,127,0
76692,note_off,109,0,0,,,,,,74,127,0
76693,note_on,1,0,0,,,,,,75,127,0
76802,note_off,109,0,0,,,,,,75,127,0
76802,note_off,0,0,0,,,,,,43,127,0
76803,note_on,1,0,0,,,,,,43,127,0
76803,note_on,0,0,0,,,,,,75,127,0
76912,note_off,109,0,0,,,,,,75,127,0
76913,note_on,1,0,0,,,,,,78,127,0
77022,note_off,109,0,0,,,,,,78,127,0
77022,note_off,0,0,0,,,,,,43,127,0
77023,note_on,1,0,0,,,,,,39,127,0
77023,note_on,0,0,0,,,,,,79,127,0
77132,note_off,109,0,0,,,,,,79,127,0
77133,note_on,1,0,0,,,,,,75,127,0
77242,note_off,109,0,0,,,,,,75,127,0
77242,note_off,0,0,0,,,,,,39,127,0
77243,note_on,1,0,0,,,,,,39,127,0
77243,note_on,0,0,0,,,,,,74,127,0
77352,note_off,109,0,0,,,,,,74,127,0
77353,note_on,1,0,0,,,,,,72,127,0
77462,note_off,109,0,0,,,,,,72,127,0
77462,note_off,0,0,0,,,,,,39,127,0
77463,note_on,1,0,0,,,,,,41,127,0
77463,note_on,0,0,0,,,,,,72,127,0
77572,note_off,109,0,0,,,,,,72,127,0
77573,note_on,1,0,0,,,,,,73,127,0
77682,note_off,109,0,0,,,,,,73,127,0
77682,note_off,0,0,0,,,,,,41,127,0
77683,note_on,1,0,0,,,,,,43,127,0
77683,note_on,0,0,0,,,,,,73,127,0
77792,note_off,109,0,0,,,,,,73,127,0
77793,note_on,1,0,0,,,,,,76,127,0
77902,note_off,109,0,0,,,,,,76,127,0
77902,note_off,0,0,0,,,,,,43,127,0
77903,note_on,1,0,0,,,,,,44,127,0
77903,note_on,0,0,0,,,,,,76,127,0
78012,note_off,109,0,0,,,,,,76,127,0
78013,note_on,1,0,0,,,,,,77,127,0
78122,note_off,109,0,0,,,,,,77,127,0
78122,note_off,0,0,0,,,,,,44,127,0
78123,note_on,1,0,0,,,,,,43,127,0
78123,note_on,0,0,0,,,,,,77,127,0
78232,note_off,109,0,0,,,,,,77,127,0
78233,note_on,1,0,0,,,,,,75,127,0
78342,note_off,109,0,0,,,,,,75,127,0
78342,note_off,0,0,0,,,,,,43,127,0
78343,note_on,1,0,0,,,,,,41,127,0
78343,note_on,0,0,0,,,,,,75,127,0
78452,note_off,109,0,0,,,,,,75,127,0
78453,note_on,1,0,0,,,,,,74,127,0
78562,note_off,109,0,0,,,,,,74,127,0
78562,note_off,0,0,0,,,,,,41,127,0
78563,note_on,1,0,0,,,,,,39,127,0
78563,note_on,0,0,0,,,,,,74,127,0
78672,note_off,109,0,0,,,,,,74,127,0
78673,note_on,1,0,0,,,,,,72,127,0
78782,note_off,109,0,0,,,,,,72,127,0
78782,note_off,0,0,0,,,,,,39,127,0
78783,note_on,1,0,0,,,,,,38,127,0
78783,note_on,0,0,0,,,,,,72,127,0
78892,note_off,109,0,0,,,,,,72,127,0
78893,note_on,1,0,0,,,,,,71,127,0
79002,note_off,109,0,0,,,,,,71,127,0
79002,note_off,0,0,0,,,,,,38,127,0
79003,note_on,1,0,0,,,,,,60,127,0
79003,note_on,0,0,0,,,,,,71,127,0
79112,note_off,109,0,0,,,,,,71,127,0
79113,note_on,1,0,0,,,,,,72,127,0
79222,note_off,109,0,0,,,,,,72,127,0
79222,note_off,0,0,0,,,,,,60,127,0
79223,note_on,1,0,0,,,,,,59,127,0
79223,note_on,0,0,0,,,,,,74,127,0
79333,note_on,110,0,0,,,,,,65,127,0
79442,note_off,109,0,0,,,,,,65,127,0
79442,note_off,0,0,0,,,,,,74,127,0
79442,note_off,0,0,0,,,,,,59,127,0
79443,note_on,1,0,0,,,,,,60,127,0
79443,note_on,0,0,0,,,,,,63,127,0
79443,note_on,0,0,0,,,,,,72,127,0
79552,note_off,109,0,0,,,,,,63,127,0
79553,note_on,1,0,0,,,,,,62,127,0
79662,note_off,109,0,0,,,,,,62,127,0
79662,note_off,0,0,0,,,,,,60,127,0
79663,note_on,1,0,0,,,,,,55,127,0
79663,note_on,0,0,0,,,,,,63,127,0
79772,note_off,109,0,0,,,,,,63,127,0
79773,note_on,1,0,0,,,,,,65,127,0
79882,note_off,109,0,0,,,,,,65,127,0
79882,note_off,0,0,0,,,,,,72,127,0
79883,note_on,1,0,0,,,,,,43,127,0
79883,note_on,0,0,0,,,,,,71,127,0
79883,note_on,0,0,0,,,,,,63,127,0
79992,note_off,109,0,0,,,,,,63,127,0
79992,note_off,0,0,0,,,,,,71,127,0
79993,note_on,1,0,0,,,,,,62,127,0
80098,note_off,105,0,0,,,,,,55,127,0
80100,note_off,2,0,0,,,,,,43,127,0
80101,note_off,1,0,0,,,,,,62,127,0
80102,note_on,1,0,0,,,,,,72,127,0
80102,note_on,0,0,0,,,,,,63,127,0
80212,note_on,110,0,0,,,,,,48,127,0
80321,note_off,109,0,0,,,,,,48,127,0
80322,note_on,1,0,0,,,,,,51,127,0
80431,note_off,109,0,0,,,,,,51,127,0
80432,note_on,1,0,0,,,,,,55,127,0
80541,note_off,109,0,0,,,,,,55,127,0
80542,note_on,1,0,0,,,,,,60,127,0
80651,note_off,109,0,0,,,,,,60,127,0
80651,note_off,0,0,0,,,,,,63,127,0
80652,note_on,1,0,0,,,,,,63,127,0
80761,note_off,109,0,0,,,,,,63,127,0
80762,note_on,1,0,0,,,,,,67,127,0
80871,note_off,109,0,0,,,,,,67,127,0
80871,note_off,0,0,0,,,,,,72,127,0
80872,note_on,1,0,0,,,,,,72,127,0
80981,note_off,109,0,0,,,,,,72,127,0
80982,note_on,1,0,0,,,,,,72,127,0
80982,note_on,0,0,0,,,,,,67,127,0
80982,note_on,0,0,0,,,,,,75,127,0
81092,note_on,110,0,0,,,,,,48,127,0
81201,note_off,109,0,0,,,,,,48,127,0
81202,note_on,1,0,0,,,,,,51,127,0
81311,note_off,109,0,0,,,,,,51,127,0
81312,note_on,1,0,0,,,,,,55,127,0
81421,note_off,109,0,0,,,,,,55,127,0
81422,note_on,1,0,0,,,,,,60,127,0
81531,note_off,109,0,0,,,,,,60,127,0
81532,note_on,1,0,0,,,,,,63,127,0
81641,note_off,109,0,0,,,,,,63,127,0
81641,note_off,0,0,0,,,,,,67,127,0
81642,note_on,1,0,0,,,,,,67,127,0
81751,note_off,109,0,0,,,,,,67,127,0
81751,note_off,0,0,0,,,,,,72,127,0
81752,note_on,1,0,0,,,,,,72,127,0
81861,note_off,109,0,0,,,,,,72,127,0
81861,note_off,0,0,0,,,,,,75,127,0
81862,note_on,1,0,0,,,,,,72,127,0
81862,note_on,0,0,0,,,,,,79,127,0
81862,note_on,0,0,0,,,,,,75,127,0
81972,note_on,110,0,0,,,,,,48,127,0
82081,note_off,109,0,0,,,,,,48,127,0
82082,note_on,1,0,0,,,,,,51,127,0
82191,note_off,109,0,0,,,,,,51,127,0
82192,note_on,1,0,0,,,,,,55,127,0
82301,note_off,109,0,0,,,,,,55,127,0
82302,note_on,1,0,0,,,,,,60,127,0
82411,note_off,109,0,0,,,,,,60,127,0
82412,note_on,1,0,0,,,,,,63,127,0
82521,note_off,109,0,0,,,,,,63,127,0
82522,note_on,1,0,0,,,,,,67,127,0
82631,note_off,109,0,0,,,,,,67,127,0
82631,note_off,0,0,0,,,,,,72,127,0
82632,note_on,1,0,0,,,,,,72,127,0
82741,note_off,109,0,0,,,,,,72,127,0
82742,note_on,1,0,0,,,,,,48,127,0
82960,note_off,218,0,0,,,,,,75,127,0
82960,note_off,0,0,0,,,,,,79,127,0
82961,note_on,1,0,0,,,,,,75,127,0
82961,note_on,0,0,0,,,,,,84,127,0
83179,note_off,218,0,0,,,,,,84,127,0
83179,note_off,0,0,0,,,,,,75,127,0
83179,note_off,0,0,0,,,,,,48,127,0
83180,note_on,1,0,0,,,,,,55,127,0
83180,note_on,0,0,0,,,,,,74,127,0
83180,note_on,0,0,0,,,,,,83,127,0
83289,note_off,109,0,0,,,,,,74,127,0
83290,note_on,1,0,0,,,,,,75,127,0
83399,note_off,109,0,0,,,,,,75,127,0
83400,note_on,1,0,0,,,,,,43,127,0
83400,note_on,0,0,0,,,,,,77,127,0
83509,note_off,109,0,0,,,,,,77,127,0
83510,note_on,1,0,0,,,,,,74,127,0
83615,note_off,105,0,0,,,,,,55,127,0
83618,note_off,3,0,0,,,,,,74,127,0
83618,note_off,0,0,0,,,,,,43,127,0
83618,note_off,0,0,0,,,,,,83,127,0
83619,note_on,1,0,0,,,,,,48,127,0
83619,note_on,0,0,0,,,,,,75,127,0
83619,note_on,0,0,0,,,,,,84,127,0
83728,note_off,109,0,0,,,,,,48,127,0
83729,note_on,1,0,0,,,,,,51,127,0
83838,note_off,109,0,0,,,,,,51,127,0
83838,note_off,0,0,0,,,,,,84,127,0
83838,note_off,0,0,0,,,,,,75,127,0
83839,note_on,1,0,0,,,,,,55,127,0
83839,note_on,0,0,0,,,,,,72,127,0
83839,note_on,0,0,0,,,,,,75,127,0
83948,note_off,109,0,0,,,,,,55,127,0
83949,note_on,1,0,0,,,,,,60,127,0
84058,note_off,109,0,0,,,,,,60,127,0
84058,note_off,0,0,0,,,,,,75,127,0
84058,note_off,0,0,0,,,,,,72,127,0
84059,note_on,1,0,0,,,,,,43,127,0
84059,note_on,0,0,0,,,,,,71,127,0
84059,note_on,0,0,0,,,,,,74,127,0
84168,note_off,109,0,0,,,,,,74,127,0
84169,note_on,1,0,0,,,,,,75,127,0
84278,note_off,109,0,0,,,,,,75,127,0
84278,note_off,0,0,0,,,,,,43,127,0
84279,note_on,1,0,0,,,,,,43,127,0
84279,note_on,0,0,0,,,,,,77,127,0
84388,note_off,109,0,0,,,,,,77,127,0
84389,note_on,1,0,0,,,,,,74,127,0
84498,note_off,109,0,0,,,,,,74,127,0
84498,note_off,0,0,0,,,,,,43,127,0
84498,note_off,0,0,0,,,,,,71,127,0
84499,note_on,1,0,0,,,,,,48,127,0
84499,note_on,0,0,0,,,,,,72,127,0
84499,note_on,0,0,0,,,,,,75,127,0
84608,note_off,109,0,0,,,,,,48,127,0
84609,note_on,1,0,0,,,,,,51,127,0
84718,note_off,109,0,0,,,,,,51,127,0
84718,note_off,0,0,0,,,,,,75,127,0
84718,note_off,0,0,0,,,,,,72,127,0
84719,note_on,1,0,0,,,,,,55,127,0
84719,note_on,0,0,0,,,,,,63,127,0
84719,note_on,0,0,0,,,,,,72,127,0
84828,note_off,109,0,0,,,,,,55,127,0
84829,note_on,1,0,0,,,,,,60,127,0
84938,note_off,109,0,0,,,,,,60,127,0
84938,note_off,0,0,0,,,,,,72,127,0
84938,note_off,0,0,0,,,,,,63,127,0
84939,note_on,1,0,0,,,,,,55,127,0
84939,note_on,0,0,0,,,,,,71,127,0
84939,note_on,0,0,0,,,,,,62,127,0
85048,note_off,109,0,0,,,,,,62,127,0
85049,note_on,1,0,0,,,,,,63,127,0
85158,note_off,109,0,0,,,,,,63,127,0
85158,note_off,0,0,0,,,,,,55,127,0
85159,note_on,1,0,0,,,,,,53,127,0
85159,note_on,0,0,0,,,,,,65,127,0
85268,note_off,109,0,0,,,,,,65,127,0
85269,note_on,1,0,0,,,,,,62,127,0
85378,note_off,109,0,0,,,,,,62,127,0
85378,note_off,0,0,0,,,,,,53,127,0
85378,note_off,0,0,0,,,,,,71,127,0
85379,note_on,1,0,0,,,,,,51,127,0
85379,note_on,0,0,0,,,,,,72,127,0
85379,note_on,0,0,0,,,,,,67,127,0
85489,note_on,110,0,0,,,,,,60,127,0
85516,note_off,27,0,0,,,,,,67,127,0
85543,note_off,27,0,0,,,,,,72,127,0
85597,note_off,54,0,0,,,,,,60,127,0
85597,note_off,0,0,0,,,,,,51,127,0
85598,note_on,1,0,0,,,,,,56,127,0
85598,note_on,0,0,0,,,,,,65,127,0
85707,note_off,109,0,0,,,,,,65,127,0
85708,note_on,1,0,0,,,,,,62,127,0
85817,note_off,109,0,0,,,,,,62,127,0
85817,note_off,0,0,0,,,,,,56,127,0
85818,note_on,1,0,0,,,,,,55,127,0
85818,note_on,0,0,0,,,,,,67,127,0
85818,note_on,0,0,0,,,,,,63,127,0
85927,note_off,109,0,0,,,,,,63,127,0
85928,note_on,1,0,0,,,,,,60,127,0
85983,note_off,55,0,0,,,,,,67,127,0
86037,note_off,54,0,0,,,,,,60,127,0
86038,note_on,1,0,0,,,,,,43,127,0
86038,note_on,0,0,0,,,,,,62,127,0
86038,note_on,0,0,0,,,,,,65,127,0
86147,note_off,109,0,0,,,,,,62,127,0
86148,note_on,1,0,0,,,,,,59,127,0
86203,note_off,55,0,0,,,,,,65,127,0
86253,note_off,50,0,0,,,,,,55,127,0
86256,note_off,3,0,0,,,,,,59,127,0
86256,note_off,0,0,0,,,,,,43,127,0
86257,note_on,1,0,0,,,,,,48,127,0
86257,note_on,0,0,0,,,,,,60,127,0
86257,note_on,0,0,0,,,,,,63,127,0
86366,note_off,109,0,0,,,,,,60,127,0
86367,note_on,1,0,0,,,,,,55,127,0
86422,note_off,55,0,0,,,,,,63,127,0
86476,note_off,54,0,0,,,,,,55,127,0
86477,note_on,1,0,0,,,,,,63,127,0
86586,note_off,109,0,0,,,,,,63,127,0
86587,note_on,1,0,0,,,,,,60,127,0
86696,note_off,109,0,0,,,,,,60,127,0
86697,note_on,1,0,0,,,,,,67,127,0
86806,note_off,109,0,0,,,,,,67,127,0
86807,note_on,1,0,0,,,,,,63,127,0
86916,note_off,109,0,0,,,,,,63,127,0
86917,note_on,1,0,0,,,,,,72,127,0
87026,note_off,109,0,0,,,,,,72,127,0
87027,note_on,1,0,0,,,,,,67,127,0
87136,note_off,109,0,0,,,,,,67,127,0
87137,note_on,1,0,0,,,,,,75,127,0
87246,note_off,109,0,0,,,,,,75,127,0
87247,note_on,1,0,0,,,,,,72,127,0
87356,note_off,109,0,0,,,,,,72,127,0
87357,note_on,1,0,0,,,,,,79,127,0
87466,note_off,109,0,0,,,,,,79,127,0
87467,note_on,1,0,0,,,,,,75,127,0
87576,note_off,109,0,0,,,,,,75,127,0
87577,note_off,1,0,0,,,,,,48,127,0
87577,note_on,0,0,0,,,,,,84,127,0
87687,note_on,110,0,0,,,,,,79,127,0
87796,note_off,109,0,0,,,,,,79,127,0
87797,note_on,1,0,0,,,,,,75,127,0
87906,note_off,109,0,0,,,,,,75,127,0
87907,note_on,1,0,0,,,,,,79,127,0
88012,note_off,105,0,0,,,,,,84,127,0
88015,note_off,3,0,0,,,,,,79,127,0
88016,note_on,1,0,0,,,,,,72,127,0
88126,note_on,110,0,0,,,,,,84,127,0
88235,note_off,109,0,0,,,,,,84,127,0
88236,note_on,1,0,0,,,,,,79,127,0
88345,note_off,109,0,0,,,,,,79,127,0
88346,note_on,1,0,0,,,,,,84,127,0
88455,note_off,109,0,0,,,,,,84,127,0
88456,note_on,1,0,0,,,,,,75,127,0
88565,note_off,109,0,0,,,,,,75,127,0
88566,note_on,1,0,0,,,,,,79,127,0
88675,note_off,109,0,0,,,,,,79,127,0
88676,note_on,1,0,0,,,,,,72,127,0
88785,note_off,109,0,0,,,,,,72,127,0
88786,note_on,1,0,0,,,,,,75,127,0
88895,note_off,109,0,0,,,,,,75,127,0
88895,note_off,0,0,0,,,,,,72,127,0
88896,note_on,1,0,0,,,,,,67,127,0
89005,note_off,109,0,0,,,,,,67,127,0
89006,note_on,1,0,0,,,,,,72,127,0
89115,note_off,109,0,0,,,,,,72,127,0
89116,note_on,1,0,0,,,,,,63,127,0
89225,note_off,109,0,0,,,,,,63,127,0
89226,note_on,1,0,0,,,,,,67,127,0
89336,note_on,110,0,0,,,,,,60,127,0
89445,note_off,109,0,0,,,,,,60,127,0
89446,note_on,1,0,0,,,,,,63,127,0
89555,note_off,109,0,0,,,,,,63,127,0
89556,note_off,1,0,0,,,,,,67,127,0
89556,note_on,0,0,0,,,,,,55,127,0
89665,note_off,109,0,0,,,,,,55,127,0
89666,note_on,1,0,0,,,,,,60,127,0
89776,note_on,110,0,0,,,,,,36,127,0
89883,note_off,107,0,0,,,,,,60,127,0
91092,note_off,1209,0,0,,,,,,36,127,0
95232,end_of_track,4140,1,0,,,,,,,,
