tick,type,time,meta,track,program,channel,pitch,tempo,note,velocity
0,copyright,0,1,0,,,,,,
0,program_change,0,0,0,6,0,,,,
0,pitchwheel,0,0,0,,0,0,,,
0,program_change,0,0,0,6,1,,,,
0,pitchwheel,0,0,0,,1,-590,,,
0,program_change,0,0,0,6,2,,,,
0,pitchwheel,0,0,0,,2,-272,,,
0,program_change,0,0,0,6,3,,,,
0,pitchwheel,0,0,0,,3,-353,,,
0,program_change,0,0,0,6,4,,,,
0,pitchwheel,0,0,0,,4,-560,,,
0,program_change,0,0,0,6,5,,,,
0,pitchwheel,0,0,0,,5,-80,,,
0,program_change,0,0,0,6,6,,,,
0,pitchwheel,0,0,0,,6,-625,,,
0,program_change,0,0,0,6,7,,,,
0,pitchwheel,0,0,0,,7,-130,,,
0,program_change,0,0,0,6,8,,,,
0,pitchwheel,0,0,0,,8,-512,,,
0,program_change,0,0,0,6,10,,,,
0,pitchwheel,0,0,0,,10,-464,,,
0,program_change,0,0,0,6,11,,,,
0,pitchwheel,0,0,0,,11,-208,,,
0,program_change,0,0,0,6,12,,,,
0,pitchwheel,0,0,0,,12,-553,,,
0,set_tempo,0,1,0,,,,500000,,
128,note_on,128,0,0,,5,,,77,127
128,note_on,0,0,0,,10,,,81,127
381,note_off,253,0,0,,10,,,81,127
381,note_off,0,0,0,,5,,,77,127
384,note_on,3,0,0,,11,,,82,127
384,note_on,0,0,0,,7,,,79,127
637,note_off,253,0,0,,7,,,79,127
637,note_off,0,0,0,,11,,,82,127
640,note_on,3,0,0,,7,,,79,127
640,note_on,0,0,0,,4,,,76,127
893,note_off,253,0,0,,4,,,76,127
893,note_off,0,0,0,,7,,,79,127
896,note_on,3,0,0,,5,,,65,127
896,note_on,0,0,0,,10,,,81,127
896,note_on,0,0,0,,5,,,77,127
1149,note_off,253,0,0,,5,,,77,127
1149,note_off,0,0,0,,5,,,65,127
1152,note_on,3,0,0,,7,,,67,127
1152,note_on,0,0,0,,11,,,70,127
1405,note_off,253,0,0,,7,,,67,127
1405,note_off,0,0,0,,10,,,81,127
1408,note_on,3,0,0,,4,,,64,127
1408,note_on,0,0,0,,7,,,79,127
1661,note_off,253,0,0,,4,,,64,127
1661,note_off,0,0,0,,11,,,70,127
1664,note_on,3,0,0,,5,,,65,127
1664,note_on,0,0,0,,10,,,69,127
1789,note_off,125,0,0,,7,,,79,127
1792,note_on,3,0,0,,5,,,77,127
1917,note_off,125,0,0,,10,,,69,127
1917,note_off,0,0,0,,5,,,65,127
1920,note_on,3,0,0,,11,,,58,127
1920,note_on,0,0,0,,7,,,67,127
2173,note_off,253,0,0,,11,,,58,127
2173,note_off,0,0,0,,5,,,77,127
2176,note_on,3,0,0,,0,,,60,127
2176,note_on,0,0,0,,4,,,76,127
2429,note_off,253,0,0,,4,,,76,127
2429,note_off,0,0,0,,0,,,60,127
2429,note_off,0,0,0,,7,,,67,127
2432,note_on,3,0,0,,5,,,77,127
2432,note_on,0,0,0,,5,,,53,127
2560,note_on,128,0,0,,0,,,72,127
2685,note_off,125,0,0,,0,,,72,127
2685,note_off,0,0,0,,5,,,77,127
2688,note_on,3,0,0,,10,,,69,127
2813,note_off,125,0,0,,10,,,69,127
2816,note_on,3,0,0,,5,,,65,127
2941,note_off,125,0,0,,5,,,65,127
2944,note_on,3,0,0,,0,,,60,127
3069,note_off,125,0,0,,5,,,53,127
3070,note_off,1,0,0,,0,,,60,127
3071,note_on,1,0,0,,5,,,53,127
3196,note_off,125,0,0,,5,,,53,127
3199,note_on,3,0,0,,5,,,53,127
3199,note_on,0,0,0,,10,,,81,127
3324,note_off,125,0,0,,5,,,53,127
3327,note_on,3,0,0,,10,,,57,127
3452,note_off,125,0,0,,10,,,57,127
3455,note_on,3,0,0,,0,,,60,127
3580,note_off,125,0,0,,0,,,60,127
3583,note_on,3,0,0,,5,,,65,127
3708,note_off,125,0,0,,5,,,65,127
3711,note_on,3,0,0,,10,,,69,127
3836,note_off,125,0,0,,10,,,81,127
3839,note_on,3,0,0,,10,,,81,127
3964,note_off,125,0,0,,10,,,81,127
3964,note_off,0,0,0,,10,,,69,127
3967,note_on,3,0,0,,4,,,52,127
3967,note_on,0,0,0,,7,,,79,127
4092,note_off,125,0,0,,7,,,79,127
4095,note_on,3,0,0,,5,,,77,127
4220,note_off,125,0,0,,5,,,77,127
4223,note_on,3,0,0,,4,,,76,127
4348,note_off,125,0,0,,4,,,76,127
4351,note_on,3,0,0,,2,,,74,127
4476,note_off,125,0,0,,2,,,74,127
4479,note_on,3,0,0,,0,,,72,127
4604,note_off,125,0,0,,0,,,72,127
4607,note_on,3,0,0,,12,,,71,127
4732,note_off,125,0,0,,4,,,52,127
4735,note_on,3,0,0,,4,,,52,127
4735,note_on,0,0,0,,7,,,79,127
4767,note_off,32,0,0,,12,,,71,127
4860,note_off,93,0,0,,4,,,52,127
4863,note_on,3,0,0,,7,,,55,127
4988,note_off,125,0,0,,7,,,55,127
4991,note_on,3,0,0,,0,,,60,127
5116,note_off,125,0,0,,0,,,60,127
5119,note_on,3,0,0,,4,,,64,127
5244,note_off,125,0,0,,4,,,64,127
5247,note_on,3,0,0,,7,,,67,127
5372,note_off,125,0,0,,7,,,79,127
5375,note_on,3,0,0,,7,,,79,127
5500,note_off,125,0,0,,7,,,79,127
5500,note_off,0,0,0,,7,,,67,127
5503,note_on,3,0,0,,2,,,50,127
5503,note_on,0,0,0,,5,,,77,127
5628,note_off,125,0,0,,5,,,77,127
5631,note_on,3,0,0,,4,,,76,127
5756,note_off,125,0,0,,4,,,76,127
5759,note_on,3,0,0,,2,,,74,127
5884,note_off,125,0,0,,2,,,74,127
5887,note_on,3,0,0,,0,,,72,127
6012,note_off,125,0,0,,0,,,72,127
6015,note_on,3,0,0,,12,,,71,127
6140,note_off,125,0,0,,12,,,71,127
6143,note_on,3,0,0,,10,,,69,127
6268,note_off,125,0,0,,2,,,50,127
6271,note_on,3,0,0,,2,,,50,127
6271,note_on,0,0,0,,5,,,77,127
6303,note_off,32,0,0,,10,,,69,127
6396,note_off,93,0,0,,2,,,50,127
6399,note_on,3,0,0,,5,,,53,127
6524,note_off,125,0,0,,5,,,53,127
6527,note_on,3,0,0,,12,,,59,127
6652,note_off,125,0,0,,12,,,59,127
6655,note_on,3,0,0,,2,,,62,127
6780,note_off,125,0,0,,2,,,62,127
6783,note_on,3,0,0,,5,,,65,127
6908,note_off,125,0,0,,5,,,77,127
6911,note_on,3,0,0,,5,,,77,127
7036,note_off,125,0,0,,5,,,77,127
7036,note_off,0,0,0,,5,,,65,127
7039,note_on,3,0,0,,0,,,48,127
7039,note_on,0,0,0,,4,,,76,127
7164,note_off,125,0,0,,4,,,76,127
7167,note_on,3,0,0,,2,,,74,127
7292,note_off,125,0,0,,2,,,74,127
7295,note_on,3,0,0,,0,,,72,127
7420,note_off,125,0,0,,0,,,72,127
7423,note_on,3,0,0,,12,,,71,127
7548,note_off,125,0,0,,12,,,71,127
7551,note_on,3,0,0,,10,,,69,127
7676,note_off,125,0,0,,10,,,69,127
7679,note_on,3,0,0,,7,,,67,127
7804,note_off,125,0,0,,0,,,48,127
7807,note_on,3,0,0,,0,,,48,127
7807,note_on,0,0,0,,4,,,76,127
7839,note_off,32,0,0,,7,,,67,127
7932,note_off,93,0,0,,0,,,48,127
7935,note_on,3,0,0,,4,,,52,127
8060,note_off,125,0,0,,4,,,52,127
8063,note_on,3,0,0,,7,,,55,127
8188,note_off,125,0,0,,7,,,55,127
8191,note_on,3,0,0,,0,,,60,127
8316,note_off,125,0,0,,0,,,60,127
8319,note_on,3,0,0,,4,,,64,127
8444,note_off,125,0,0,,4,,,76,127
8447,note_on,3,0,0,,4,,,76,127
8572,note_off,125,0,0,,4,,,76,127
8572,note_off,0,0,0,,4,,,64,127
8575,note_on,3,0,0,,7,,,43,127
8575,note_on,0,0,0,,2,,,74,127
8700,note_off,125,0,0,,2,,,74,127
8703,note_on,3,0,0,,0,,,72,127
8828,note_off,125,0,0,,0,,,72,127
8831,note_on,3,0,0,,12,,,71,127
8956,note_off,125,0,0,,12,,,71,127
8959,note_on,3,0,0,,10,,,69,127
9084,note_off,125,0,0,,10,,,69,127
9087,note_on,3,0,0,,7,,,67,127
9212,note_off,125,0,0,,7,,,67,127
9215,note_on,3,0,0,,5,,,65,127
9242,note_off,27,0,0,,7,,,43,127
9341,note_off,99,0,0,,5,,,65,127
9344,note_on,3,0,0,,0,,,60,127
9344,note_on,0,0,0,,4,,,64,127
9427,note_off,83,0,0,,4,,,64,127
9430,note_on,3,0,0,,2,,,62,127
9513,note_off,83,0,0,,2,,,62,127
9513,note_off,0,0,0,,0,,,60,127
9516,note_on,3,0,0,,0,,,60,127
9599,note_off,83,0,0,,0,,,60,127
9602,note_on,3,0,0,,4,,,64,127
9602,note_on,0,0,0,,7,,,67,127
9685,note_off,83,0,0,,7,,,67,127
9688,note_on,3,0,0,,5,,,65,127
9771,note_off,83,0,0,,5,,,65,127
9771,note_off,0,0,0,,4,,,64,127
9774,note_on,3,0,0,,4,,,64,127
9857,note_off,83,0,0,,4,,,64,127
9860,note_on,3,0,0,,0,,,72,127
9860,note_on,0,0,0,,4,,,76,127
9943,note_off,83,0,0,,4,,,76,127
9946,note_on,3,0,0,,2,,,74,127
10029,note_off,83,0,0,,2,,,74,127
10029,note_off,0,0,0,,0,,,72,127
10032,note_on,3,0,0,,0,,,72,127
10115,note_off,83,0,0,,0,,,72,127
10118,note_on,3,0,0,,4,,,76,127
10118,note_on,0,0,0,,7,,,79,127
10243,note_off,125,0,0,,7,,,79,127
10246,note_on,3,0,0,,5,,,77,127
10371,note_off,125,0,0,,5,,,77,127
10371,note_off,0,0,0,,4,,,76,127
10374,note_on,3,0,0,,4,,,76,127
10499,note_off,125,0,0,,4,,,76,127
10502,note_on,3,0,0,,2,,,74,127
10627,note_off,125,0,0,,2,,,74,127
10630,note_on,3,0,0,,0,,,72,127
10755,note_off,125,0,0,,0,,,72,127
10758,note_on,3,0,0,,12,,,71,127
10883,note_off,125,0,0,,12,,,71,127
10886,note_on,3,0,0,,0,,,60,127
10886,note_on,0,0,0,,4,,,64,127
10969,note_off,83,0,0,,4,,,64,127
10972,note_on,3,0,0,,2,,,62,127
11055,note_off,83,0,0,,2,,,62,127
11055,note_off,0,0,0,,0,,,60,127
11058,note_on,3,0,0,,0,,,60,127
11141,note_off,83,0,0,,0,,,60,127
11144,note_on,3,0,0,,4,,,64,127
11144,note_on,0,0,0,,7,,,67,127
11227,note_off,83,0,0,,7,,,67,127
11230,note_on,3,0,0,,5,,,65,127
11313,note_off,83,0,0,,5,,,65,127
11313,note_off,0,0,0,,4,,,64,127
11316,note_on,3,0,0,,4,,,64,127
11399,note_off,83,0,0,,4,,,64,127
11402,note_on,3,0,0,,0,,,72,127
11402,note_on,0,0,0,,4,,,76,127
11485,note_off,83,0,0,,4,,,76,127
11488,note_on,3,0,0,,2,,,74,127
11571,note_off,83,0,0,,2,,,74,127
11571,note_off,0,0,0,,0,,,72,127
11574,note_on,3,0,0,,0,,,72,127
11657,note_off,83,0,0,,0,,,72,127
11660,note_on,3,0,0,,4,,,76,127
11660,note_on,0,0,0,,7,,,79,127
11785,note_off,125,0,0,,7,,,79,127
11788,note_on,3,0,0,,5,,,77,127
11913,note_off,125,0,0,,5,,,77,127
11913,note_off,0,0,0,,4,,,76,127
11916,note_on,3,0,0,,4,,,76,127
12041,note_off,125,0,0,,4,,,76,127
12044,note_on,3,0,0,,2,,,74,127
12169,note_off,125,0,0,,2,,,74,127
12172,note_on,3,0,0,,0,,,72,127
12297,note_off,125,0,0,,0,,,72,127
12300,note_on,3,0,0,,12,,,71,127
12425,note_off,125,0,0,,12,,,71,127
12428,note_on,3,0,0,,0,,,60,127
12428,note_on,0,0,0,,4,,,64,127
12511,note_off,83,0,0,,4,,,64,127
12514,note_on,3,0,0,,2,,,62,127
12597,note_off,83,0,0,,2,,,62,127
12597,note_off,0,0,0,,0,,,60,127
12600,note_on,3,0,0,,0,,,60,127
12683,note_off,83,0,0,,0,,,60,127
12686,note_on,3,0,0,,4,,,64,127
12686,note_on,0,0,0,,7,,,67,127
12769,note_off,83,0,0,,7,,,67,127
12772,note_on,3,0,0,,5,,,65,127
12855,note_off,83,0,0,,5,,,65,127
12855,note_off,0,0,0,,4,,,64,127
12858,note_on,3,0,0,,4,,,64,127
12941,note_off,83,0,0,,4,,,64,127
12944,note_on,3,0,0,,0,,,72,127
12944,note_on,0,0,0,,4,,,76,127
13027,note_off,83,0,0,,4,,,76,127
13030,note_on,3,0,0,,2,,,74,127
13113,note_off,83,0,0,,2,,,74,127
13113,note_off,0,0,0,,0,,,72,127
13116,note_on,3,0,0,,0,,,72,127
13199,note_off,83,0,0,,0,,,72,127
13202,note_on,3,0,0,,4,,,76,127
13202,note_on,0,0,0,,7,,,79,127
13327,note_off,125,0,0,,7,,,79,127
13330,note_on,3,0,0,,5,,,77,127
13455,note_off,125,0,0,,5,,,77,127
13455,note_off,0,0,0,,4,,,76,127
13458,note_on,3,0,0,,4,,,76,127
13583,note_off,125,0,0,,4,,,76,127
13586,note_on,3,0,0,,2,,,74,127
13711,note_off,125,0,0,,2,,,74,127
13714,note_on,3,0,0,,0,,,72,127
13839,note_off,125,0,0,,0,,,72,127
13842,note_on,3,0,0,,12,,,71,127
13967,note_off,125,0,0,,12,,,71,127
13970,note_on,3,0,0,,5,,,65,127
13970,note_on,0,0,0,,10,,,69,127
14053,note_off,83,0,0,,5,,,65,127
14056,note_on,3,0,0,,7,,,67,127
14139,note_off,83,0,0,,7,,,67,127
14139,note_off,0,0,0,,10,,,69,127
14142,note_on,3,0,0,,10,,,69,127
14225,note_off,83,0,0,,10,,,69,127
14228,note_on,3,0,0,,2,,,62,127
14228,note_on,0,0,0,,5,,,65,127
14311,note_off,83,0,0,,2,,,62,127
14314,note_on,3,0,0,,4,,,64,127
14397,note_off,83,0,0,,4,,,64,127
14397,note_off,0,0,0,,5,,,65,127
14400,note_on,3,0,0,,5,,,65,127
14483,note_off,83,0,0,,5,,,65,127
14486,note_on,3,0,0,,12,,,59,127
14486,note_on,0,0,0,,2,,,62,127
14569,note_off,83,0,0,,12,,,59,127
14572,note_on,3,0,0,,0,,,60,127
14655,note_off,83,0,0,,0,,,60,127
14655,note_off,0,0,0,,2,,,62,127
14658,note_on,3,0,0,,2,,,62,127
14741,note_off,83,0,0,,2,,,62,127
14744,note_on,3,0,0,,7,,,55,127
14915,note_on,171,0,0,,10,,,57,127
14998,note_off,83,0,0,,10,,,57,127
15001,note_on,3,0,0,,12,,,59,127
15084,note_off,83,0,0,,12,,,59,127
15087,note_on,3,0,0,,0,,,60,127
15170,note_off,83,0,0,,0,,,60,127
15173,note_on,3,0,0,,2,,,62,127
15256,note_off,83,0,0,,2,,,62,127
15259,note_on,3,0,0,,4,,,64,127
15342,note_off,83,0,0,,4,,,64,127
15345,note_on,3,0,0,,5,,,65,127
15428,note_off,83,0,0,,5,,,65,127
15431,note_on,3,0,0,,7,,,67,127
15514,note_off,83,0,0,,7,,,67,127
15514,note_off,0,0,0,,7,,,55,127
15517,note_on,3,0,0,,5,,,65,127
15517,note_on,0,0,0,,10,,,69,127
15600,note_off,83,0,0,,5,,,65,127
15603,note_on,3,0,0,,7,,,67,127
15686,note_off,83,0,0,,7,,,67,127
15686,note_off,0,0,0,,10,,,69,127
15689,note_on,3,0,0,,10,,,69,127
15772,note_off,83,0,0,,10,,,69,127
15775,note_on,3,0,0,,2,,,62,127
15775,note_on,0,0,0,,5,,,65,127
15858,note_off,83,0,0,,2,,,62,127
15861,note_on,3,0,0,,4,,,64,127
15944,note_off,83,0,0,,4,,,64,127
15944,note_off,0,0,0,,5,,,65,127
15947,note_on,3,0,0,,5,,,65,127
16030,note_off,83,0,0,,5,,,65,127
16033,note_on,3,0,0,,12,,,59,127
16033,note_on,0,0,0,,2,,,62,127
16116,note_off,83,0,0,,12,,,59,127
16119,note_on,3,0,0,,0,,,60,127
16202,note_off,83,0,0,,0,,,60,127
16202,note_off,0,0,0,,2,,,62,127
16205,note_on,3,0,0,,2,,,62,127
16288,note_off,83,0,0,,2,,,62,127
16291,note_on,3,0,0,,7,,,55,127
16462,note_on,171,0,0,,10,,,57,127
16545,note_off,83,0,0,,10,,,57,127
16548,note_on,3,0,0,,12,,,59,127
16631,note_off,83,0,0,,12,,,59,127
16634,note_on,3,0,0,,0,,,60,127
16717,note_off,83,0,0,,0,,,60,127
16720,note_on,3,0,0,,2,,,62,127
16803,note_off,83,0,0,,2,,,62,127
16806,note_on,3,0,0,,4,,,64,127
16889,note_off,83,0,0,,4,,,64,127
16892,note_on,3,0,0,,5,,,65,127
16975,note_off,83,0,0,,5,,,65,127
16978,note_on,3,0,0,,7,,,67,127
17061,note_off,83,0,0,,7,,,67,127
17061,note_off,0,0,0,,7,,,55,127
17064,note_on,3,0,0,,5,,,65,127
17064,note_on,0,0,0,,10,,,69,127
17147,note_off,83,0,0,,5,,,65,127
17150,note_on,3,0,0,,7,,,67,127
17233,note_off,83,0,0,,7,,,67,127
17233,note_off,0,0,0,,10,,,69,127
17236,note_on,3,0,0,,10,,,69,127
17319,note_off,83,0,0,,10,,,69,127
17322,note_on,3,0,0,,2,,,62,127
17322,note_on,0,0,0,,5,,,65,127
17405,note_off,83,0,0,,2,,,62,127
17408,note_on,3,0,0,,4,,,64,127
17491,note_off,83,0,0,,4,,,64,127
17491,note_off,0,0,0,,5,,,65,127
17494,note_on,3,0,0,,5,,,65,127
17577,note_off,83,0,0,,5,,,65,127
17580,note_on,3,0,0,,12,,,59,127
17580,note_on,0,0,0,,2,,,62,127
17663,note_off,83,0,0,,12,,,59,127
17666,note_on,3,0,0,,0,,,60,127
17749,note_off,83,0,0,,0,,,60,127
17749,note_off,0,0,0,,2,,,62,127
17752,note_on,3,0,0,,2,,,62,127
17835,note_off,83,0,0,,2,,,62,127
17838,note_on,3,0,0,,7,,,55,127
17966,note_on,128,0,0,,10,,,57,127
18006,note_off,40,0,0,,10,,,57,127
18009,note_on,3,0,0,,12,,,59,127
18049,note_off,40,0,0,,12,,,59,127
18052,note_on,3,0,0,,0,,,60,127
18092,note_off,40,0,0,,0,,,60,127
18095,note_on,3,0,0,,2,,,62,127
18135,note_off,40,0,0,,2,,,62,127
18138,note_on,3,0,0,,4,,,64,127
18178,note_off,40,0,0,,4,,,64,127
18181,note_on,3,0,0,,5,,,65,127
18221,note_off,40,0,0,,5,,,65,127
18224,note_on,3,0,0,,7,,,67,127
18264,note_off,40,0,0,,7,,,67,127
18267,note_on,3,0,0,,10,,,69,127
18307,note_off,40,0,0,,10,,,69,127
18310,note_on,3,0,0,,12,,,71,127
18350,note_off,40,0,0,,12,,,71,127
18350,note_off,0,0,0,,7,,,55,127
18353,note_on,3,0,0,,4,,,64,127
18353,note_on,0,0,0,,0,,,72,127
18481,note_on,128,0,0,,7,,,67,127
18606,note_off,125,0,0,,7,,,67,127
18606,note_off,0,0,0,,0,,,72,127
18606,note_off,0,0,0,,4,,,64,127
18609,note_on,3,0,0,,5,,,65,127
18609,note_on,0,0,0,,0,,,72,127
18734,note_off,125,0,0,,0,,,72,127
18737,note_on,3,0,0,,2,,,74,127
18862,note_off,125,0,0,,2,,,74,127
18862,note_off,0,0,0,,5,,,65,127
18865,note_on,3,0,0,,7,,,67,127
18865,note_on,0,0,0,,4,,,76,127
19118,note_off,253,0,0,,4,,,76,127
19121,note_on,3,0,0,,4,,,76,127
19161,note_off,40,0,0,,4,,,76,127
19164,note_on,3,0,0,,2,,,74,127
19204,note_off,40,0,0,,2,,,74,127
19207,note_on,3,0,0,,4,,,76,127
19247,note_off,40,0,0,,4,,,76,127
19250,note_on,3,0,0,,2,,,74,127
19375,note_off,125,0,0,,2,,,74,127
19375,note_off,0,0,0,,7,,,67,127
19378,note_on,3,0,0,,0,,,36,127
19378,note_on,0,0,0,,4,,,64,127
19503,note_off,125,0,0,,4,,,64,127
19506,note_on,3,0,0,,0,,,60,127
19631,note_off,125,0,0,,0,,,60,127
19634,note_on,3,0,0,,7,,,67,127
19759,note_off,125,0,0,,7,,,67,127
19762,note_on,3,0,0,,4,,,64,127
19887,note_off,125,0,0,,4,,,64,127
19887,note_off,0,0,0,,0,,,36,127
19890,note_on,3,0,0,,4,,,64,127
19890,note_on,0,0,0,,0,,,72,127
20015,note_off,125,0,0,,0,,,72,127
20018,note_on,3,0,0,,7,,,67,127
20143,note_off,125,0,0,,7,,,67,127
20143,note_off,0,0,0,,4,,,64,127
20146,note_on,3,0,0,,5,,,65,127
20146,note_on,0,0,0,,0,,,72,127
20271,note_off,125,0,0,,0,,,72,127
20274,note_on,3,0,0,,2,,,74,127
20399,note_off,125,0,0,,2,,,74,127
20399,note_off,0,0,0,,5,,,65,127
20402,note_on,3,0,0,,7,,,67,127
20402,note_on,0,0,0,,4,,,76,127
20655,note_off,253,0,0,,4,,,76,127
20658,note_on,3,0,0,,4,,,76,127
20698,note_off,40,0,0,,4,,,76,127
20701,note_on,3,0,0,,2,,,74,127
20741,note_off,40,0,0,,2,,,74,127
20744,note_on,3,0,0,,4,,,76,127
20784,note_off,40,0,0,,4,,,76,127
20787,note_on,3,0,0,,2,,,74,127
20912,note_off,125,0,0,,2,,,74,127
20912,note_off,0,0,0,,7,,,67,127
20915,note_on,3,0,0,,0,,,36,127
20915,note_on,0,0,0,,4,,,64,127
21040,note_off,125,0,0,,4,,,64,127
21043,note_on,3,0,0,,0,,,60,127
21168,note_off,125,0,0,,0,,,60,127
21171,note_on,3,0,0,,7,,,67,127
21296,note_off,125,0,0,,7,,,67,127
21299,note_on,3,0,0,,4,,,64,127
21424,note_off,125,0,0,,4,,,64,127
21424,note_off,0,0,0,,0,,,36,127
21427,note_on,3,0,0,,4,,,64,127
21427,note_on,0,0,0,,0,,,72,127
21552,note_off,125,0,0,,0,,,72,127
21555,note_on,3,0,0,,7,,,67,127
21680,note_off,125,0,0,,7,,,67,127
21680,note_off,0,0,0,,4,,,64,127
21683,note_on,3,0,0,,5,,,65,127
21683,note_on,0,0,0,,0,,,72,127
21808,note_off,125,0,0,,0,,,72,127
21811,note_on,3,0,0,,2,,,74,127
21936,note_off,125,0,0,,2,,,74,127
21936,note_off,0,0,0,,5,,,65,127
21939,note_on,3,0,0,,7,,,67,127
21939,note_on,0,0,0,,4,,,76,127
22192,note_off,253,0,0,,4,,,76,127
22195,note_on,3,0,0,,7,,,55,127
22195,note_on,0,0,0,,4,,,76,127
22235,note_off,40,0,0,,4,,,76,127
22238,note_on,3,0,0,,2,,,74,127
22278,note_off,40,0,0,,2,,,74,127
22281,note_on,3,0,0,,4,,,76,127
22313,note_off,32,0,0,,7,,,67,127
22321,note_off,8,0,0,,4,,,76,127
22324,note_on,3,0,0,,2,,,74,127
22364,note_off,40,0,0,,2,,,74,127
22367,note_on,3,0,0,,4,,,76,127
22407,note_off,40,0,0,,4,,,76,127
22410,note_on,3,0,0,,2,,,74,127
22450,note_off,40,0,0,,2,,,74,127
22450,note_off,0,0,0,,7,,,55,127
22453,note_on,3,0,0,,0,,,36,127
22453,note_on,0,0,0,,0,,,72,127
22960,note_off,507,0,0,,0,,,72,127
23219,note_off,259,0,0,,0,,,36,127
23222,note_on,3,0,0,,4,,,76,127
23222,note_on,0,0,0,,0,,,72,127
23475,note_off,253,0,0,,0,,,72,127
23475,note_off,0,0,0,,4,,,76,127
23478,note_on,3,0,0,,5,,,77,127
23478,note_on,0,0,0,,2,,,74,127
23731,note_off,253,0,0,,2,,,74,127
23731,note_off,0,0,0,,5,,,77,127
23734,note_on,3,0,0,,12,,,71,127
23734,note_on,0,0,0,,2,,,74,127
23987,note_off,253,0,0,,2,,,74,127
23987,note_off,0,0,0,,12,,,71,127
23990,note_on,3,0,0,,0,,,60,127
23990,note_on,0,0,0,,4,,,76,127
23990,note_on,0,0,0,,0,,,72,127
24243,note_off,253,0,0,,0,,,72,127
24243,note_off,0,0,0,,0,,,60,127
24246,note_on,3,0,0,,2,,,62,127
24246,note_on,0,0,0,,5,,,65,127
24499,note_off,253,0,0,,2,,,62,127
24499,note_off,0,0,0,,4,,,76,127
24502,note_on,3,0,0,,12,,,59,127
24502,note_on,0,0,0,,2,,,74,127
24755,note_off,253,0,0,,12,,,59,127
24755,note_off,0,0,0,,5,,,65,127
24758,note_on,3,0,0,,0,,,60,127
24758,note_on,0,0,0,,4,,,64,127
24883,note_off,125,0,0,,2,,,74,127
24886,note_on,3,0,0,,0,,,72,127
25011,note_off,125,0,0,,4,,,64,127
25011,note_off,0,0,0,,0,,,60,127
25014,note_on,3,0,0,,5,,,53,127
25014,note_on,0,0,0,,2,,,62,127
25267,note_off,253,0,0,,5,,,53,127
25267,note_off,0,0,0,,0,,,72,127
25270,note_on,3,0,0,,7,,,55,127
25270,note_on,0,0,0,,12,,,71,127
25523,note_off,253,0,0,,12,,,71,127
25523,note_off,0,0,0,,7,,,55,127
25523,note_off,0,0,0,,2,,,62,127
25526,note_on,3,0,0,,0,,,48,127
25526,note_on,0,0,0,,0,,,72,127
25651,note_off,125,0,0,,0,,,72,127
25654,note_on,3,0,0,,7,,,67,127
25779,note_off,125,0,0,,7,,,67,127
25782,note_on,3,0,0,,4,,,64,127
25907,note_off,125,0,0,,4,,,64,127
25910,note_on,3,0,0,,0,,,60,127
26035,note_off,125,0,0,,0,,,60,127
26038,note_on,3,0,0,,7,,,55,127
26163,note_off,125,0,0,,0,,,48,127
26164,note_off,1,0,0,,7,,,55,127
26165,note_on,1,0,0,,0,,,48,127
26290,note_off,125,0,0,,0,,,48,127
26293,note_on,3,0,0,,0,,,48,127
26293,note_on,0,0,0,,7,,,79,127
26418,note_off,125,0,0,,0,,,48,127
26421,note_on,3,0,0,,4,,,52,127
26546,note_off,125,0,0,,4,,,52,127
26549,note_on,3,0,0,,7,,,55,127
26674,note_off,125,0,0,,7,,,55,127
26677,note_on,3,0,0,,0,,,60,127
26802,note_off,125,0,0,,0,,,60,127
26805,note_on,3,0,0,,4,,,64,127
27058,note_off,253,0,0,,4,,,64,127
27061,note_on,3,0,0,,11,,,46,127
27186,note_off,125,0,0,,7,,,79,127
27189,note_on,3,0,0,,5,,,77,127
27314,note_off,125,0,0,,5,,,77,127
27317,note_on,3,0,0,,4,,,76,127
27442,note_off,125,0,0,,4,,,76,127
27445,note_on,3,0,0,,2,,,74,127
27570,note_off,125,0,0,,2,,,74,127
27573,note_on,3,0,0,,1,,,73,127
27698,note_off,125,0,0,,1,,,73,127
27701,note_on,3,0,0,,2,,,74,127
27826,note_off,125,0,0,,2,,,74,127
27826,note_off,0,0,0,,11,,,46,127
27829,note_on,3,0,0,,11,,,46,127
27829,note_on,0,0,0,,7,,,79,127
27954,note_off,125,0,0,,11,,,46,127
27957,note_on,3,0,0,,2,,,50,127
28082,note_off,125,0,0,,2,,,50,127
28085,note_on,3,0,0,,7,,,55,127
28210,note_off,125,0,0,,7,,,55,127
28213,note_on,3,0,0,,11,,,58,127
28338,note_off,125,0,0,,11,,,58,127
28341,note_on,3,0,0,,2,,,62,127
28466,note_off,125,0,0,,2,,,62,127
28469,note_on,3,0,0,,7,,,67,127
28594,note_off,125,0,0,,7,,,67,127
28597,note_on,3,0,0,,10,,,45,127
28722,note_off,125,0,0,,7,,,79,127
28725,note_on,3,0,0,,5,,,77,127
28850,note_off,125,0,0,,5,,,77,127
28853,note_on,3,0,0,,4,,,76,127
28978,note_off,125,0,0,,4,,,76,127
28981,note_on,3,0,0,,2,,,74,127
29106,note_off,125,0,0,,2,,,74,127
29109,note_on,3,0,0,,1,,,73,127
29234,note_off,125,0,0,,1,,,73,127
29237,note_on,3,0,0,,2,,,74,127
29264,note_off,27,0,0,,10,,,45,127
29363,note_off,99,0,0,,2,,,74,127
29366,note_on,3,0,0,,10,,,69,127
29366,note_on,0,0,0,,1,,,73,127
29449,note_off,83,0,0,,1,,,73,127
29452,note_on,3,0,0,,12,,,71,127
29535,note_off,83,0,0,,12,,,71,127
29535,note_off,0,0,0,,10,,,69,127
29538,note_on,3,0,0,,10,,,69,127
29621,note_off,83,0,0,,10,,,69,127
29624,note_on,3,0,0,,1,,,73,127
29624,note_on,0,0,0,,4,,,76,127
29707,note_off,83,0,0,,4,,,76,127
29710,note_on,3,0,0,,2,,,74,127
29793,note_off,83,0,0,,2,,,74,127
29793,note_off,0,0,0,,1,,,73,127
29796,note_on,3,0,0,,1,,,73,127
29879,note_off,83,0,0,,1,,,73,127
29882,note_on,3,0,0,,4,,,76,127
29882,note_on,0,0,0,,7,,,79,127
29965,note_off,83,0,0,,7,,,79,127
29968,note_on,3,0,0,,5,,,77,127
30051,note_off,83,0,0,,5,,,77,127
30051,note_off,0,0,0,,4,,,76,127
30054,note_on,3,0,0,,4,,,76,127
30137,note_off,83,0,0,,4,,,76,127
30140,note_on,3,0,0,,7,,,79,127
30140,note_on,0,0,0,,11,,,82,127
30265,note_off,125,0,0,,11,,,82,127
30268,note_on,3,0,0,,10,,,81,127
30393,note_off,125,0,0,,10,,,81,127
30393,note_off,0,0,0,,7,,,79,127
30396,note_on,3,0,0,,7,,,79,127
30521,note_off,125,0,0,,7,,,79,127
30524,note_on,3,0,0,,5,,,77,127
30649,note_off,125,0,0,,5,,,77,127
30652,note_on,3,0,0,,4,,,76,127
30777,note_off,125,0,0,,4,,,76,127
30780,note_on,3,0,0,,2,,,74,127
30905,note_off,125,0,0,,2,,,74,127
30908,note_on,3,0,0,,10,,,69,127
30908,note_on,0,0,0,,1,,,73,127
30991,note_off,83,0,0,,1,,,73,127
30994,note_on,3,0,0,,12,,,71,127
31077,note_off,83,0,0,,12,,,71,127
31077,note_off,0,0,0,,10,,,69,127
31080,note_on,3,0,0,,10,,,69,127
31163,note_off,83,0,0,,10,,,69,127
31166,note_on,3,0,0,,1,,,73,127
31166,note_on,0,0,0,,4,,,76,127
31249,note_off,83,0,0,,4,,,76,127
31252,note_on,3,0,0,,2,,,74,127
31335,note_off,83,0,0,,2,,,74,127
31335,note_off,0,0,0,,1,,,73,127
31338,note_on,3,0,0,,1,,,73,127
31421,note_off,83,0,0,,1,,,73,127
31424,note_on,3,0,0,,4,,,76,127
31424,note_on,0,0,0,,7,,,79,127
31507,note_off,83,0,0,,7,,,79,127
31510,note_on,3,0,0,,5,,,77,127
31593,note_off,83,0,0,,5,,,77,127
31593,note_off,0,0,0,,4,,,76,127
31596,note_on,3,0,0,,4,,,76,127
31679,note_off,83,0,0,,4,,,76,127
31682,note_on,3,0,0,,7,,,79,127
31682,note_on,0,0,0,,11,,,82,127
31807,note_off,125,0,0,,11,,,82,127
31810,note_on,3,0,0,,10,,,81,127
31935,note_off,125,0,0,,10,,,81,127
31935,note_off,0,0,0,,7,,,79,127
31938,note_on,3,0,0,,7,,,79,127
32063,note_off,125,0,0,,7,,,79,127
32066,note_on,3,0,0,,5,,,77,127
32191,note_off,125,0,0,,5,,,77,127
32194,note_on,3,0,0,,4,,,76,127
32319,note_off,125,0,0,,4,,,76,127
32322,note_on,3,0,0,,2,,,74,127
32447,note_off,125,0,0,,2,,,74,127
32450,note_on,3,0,0,,10,,,69,127
32450,note_on,0,0,0,,1,,,73,127
32535,note_on,85,0,0,,10,,,81,127
32610,note_off,75,0,0,,1,,,73,127
32618,note_off,8,0,0,,10,,,69,127
32621,note_on,3,0,0,,10,,,69,127
32696,note_off,75,0,0,,10,,,81,127
32704,note_off,8,0,0,,10,,,69,127
32707,note_on,3,0,0,,7,,,67,127
32707,note_on,0,0,0,,11,,,70,127
32792,note_on,85,0,0,,7,,,79,127
32867,note_off,75,0,0,,11,,,70,127
32875,note_off,8,0,0,,7,,,67,127
32878,note_on,3,0,0,,7,,,67,127
32953,note_off,75,0,0,,7,,,79,127
32961,note_off,8,0,0,,7,,,67,127
32964,note_on,3,0,0,,5,,,65,127
32964,note_on,0,0,0,,10,,,69,127
33049,note_on,85,0,0,,5,,,77,127
33124,note_off,75,0,0,,10,,,69,127
33132,note_off,8,0,0,,5,,,65,127
33135,note_on,3,0,0,,5,,,65,127
33210,note_off,75,0,0,,5,,,77,127
33218,note_off,8,0,0,,5,,,65,127
33221,note_on,3,0,0,,4,,,64,127
33221,note_on,0,0,0,,7,,,67,127
33306,note_on,85,0,0,,4,,,76,127
33381,note_off,75,0,0,,7,,,67,127
33389,note_off,8,0,0,,4,,,64,127
33392,note_on,3,0,0,,4,,,64,127
33467,note_off,75,0,0,,4,,,76,127
33475,note_off,8,0,0,,4,,,64,127
33478,note_on,3,0,0,,2,,,62,127
33478,note_on,0,0,0,,5,,,65,127
33561,note_off,83,0,0,,2,,,62,127
33564,note_on,3,0,0,,4,,,64,127
33647,note_off,83,0,0,,4,,,64,127
33647,note_off,0,0,0,,5,,,65,127
33650,note_on,3,0,0,,5,,,65,127
33733,note_off,83,0,0,,5,,,65,127
33736,note_on,3,0,0,,11,,,58,127
33736,note_on,0,0,0,,2,,,62,127
33819,note_off,83,0,0,,11,,,58,127
33822,note_on,3,0,0,,0,,,60,127
33905,note_off,83,0,0,,0,,,60,127
33905,note_off,0,0,0,,2,,,62,127
33908,note_on,3,0,0,,2,,,62,127
33991,note_off,83,0,0,,2,,,62,127
33994,note_on,3,0,0,,7,,,55,127
33994,note_on,0,0,0,,7,,,67,127
34077,note_off,83,0,0,,7,,,67,127
34080,note_on,3,0,0,,5,,,65,127
34163,note_off,83,0,0,,5,,,65,127
34166,note_on,3,0,0,,4,,,64,127
34249,note_off,83,0,0,,4,,,64,127
34249,note_off,0,0,0,,7,,,55,127
34252,note_on,3,0,0,,10,,,57,127
34252,note_on,0,0,0,,5,,,65,127
34252,note_on,0,0,0,,2,,,62,127
34505,note_off,253,0,0,,2,,,62,127
34505,note_off,0,0,0,,5,,,65,127
34508,note_on,3,0,0,,10,,,45,127
34508,note_on,0,0,0,,4,,,64,127
34508,note_on,0,0,0,,1,,,61,127
34625,note_off,117,0,0,,10,,,57,127
34761,note_off,136,0,0,,1,,,61,127
34761,note_off,0,0,0,,4,,,64,127
34761,note_off,0,0,0,,10,,,45,127
34764,note_on,3,0,0,,2,,,38,127
34764,note_on,0,0,0,,6,,,66,127
34847,note_off,83,0,0,,6,,,66,127
34850,note_on,3,0,0,,4,,,64,127
34933,note_off,83,0,0,,4,,,64,127
34936,note_on,3,0,0,,2,,,62,127
35019,note_off,83,0,0,,2,,,62,127
35019,note_off,0,0,0,,2,,,38,127
35022,note_on,3,0,0,,6,,,66,127
35022,note_on,0,0,0,,10,,,69,127
35105,note_off,83,0,0,,10,,,69,127
35108,note_on,3,0,0,,7,,,67,127
35191,note_off,83,0,0,,7,,,67,127
35191,note_off,0,0,0,,6,,,66,127
35194,note_on,3,0,0,,6,,,66,127
35277,note_off,83,0,0,,6,,,66,127
35280,note_on,3,0,0,,10,,,69,127
35280,note_on,0,0,0,,0,,,72,127
35363,note_off,83,0,0,,0,,,72,127
35366,note_on,3,0,0,,11,,,70,127
35449,note_off,83,0,0,,11,,,70,127
35449,note_off,0,0,0,,10,,,69,127
35452,note_on,3,0,0,,10,,,69,127
35535,note_off,83,0,0,,10,,,69,127
35538,note_on,3,0,0,,0,,,72,127
35538,note_on,0,0,0,,3,,,75,127
35663,note_off,125,0,0,,3,,,75,127
35666,note_on,3,0,0,,2,,,74,127
35791,note_off,125,0,0,,2,,,74,127
35791,note_off,0,0,0,,0,,,72,127
35794,note_on,3,0,0,,0,,,72,127
35919,note_off,125,0,0,,0,,,72,127
35922,note_on,3,0,0,,11,,,70,127
36047,note_off,125,0,0,,11,,,70,127
36050,note_on,3,0,0,,10,,,69,127
36175,note_off,125,0,0,,10,,,69,127
36178,note_on,3,0,0,,7,,,67,127
36303,note_off,125,0,0,,7,,,67,127
36306,note_on,3,0,0,,2,,,62,127
36306,note_on,0,0,0,,6,,,66,127
36389,note_off,83,0,0,,6,,,66,127
36392,note_on,3,0,0,,4,,,64,127
36475,note_off,83,0,0,,4,,,64,127
36475,note_off,0,0,0,,2,,,62,127
36478,note_on,3,0,0,,2,,,62,127
36561,note_off,83,0,0,,2,,,62,127
36564,note_on,3,0,0,,6,,,66,127
36564,note_on,0,0,0,,10,,,69,127
36647,note_off,83,0,0,,10,,,69,127
36650,note_on,3,0,0,,7,,,67,127
36733,note_off,83,0,0,,7,,,67,127
36733,note_off,0,0,0,,6,,,66,127
36736,note_on,3,0,0,,6,,,66,127
36819,note_off,83,0,0,,6,,,66,127
36822,note_on,3,0,0,,10,,,69,127
36822,note_on,0,0,0,,0,,,72,127
36905,note_off,83,0,0,,0,,,72,127
36908,note_on,3,0,0,,11,,,70,127
36991,note_off,83,0,0,,11,,,70,127
36991,note_off,0,0,0,,10,,,69,127
36994,note_on,3,0,0,,10,,,69,127
37077,note_off,83,0,0,,10,,,69,127
37080,note_on,3,0,0,,0,,,72,127
37080,note_on,0,0,0,,3,,,75,127
37205,note_off,125,0,0,,3,,,75,127
37208,note_on,3,0,0,,2,,,74,127
37333,note_off,125,0,0,,2,,,74,127
37333,note_off,0,0,0,,0,,,72,127
37336,note_on,3,0,0,,0,,,72,127
37461,note_off,125,0,0,,0,,,72,127
37464,note_on,3,0,0,,11,,,70,127
37589,note_off,125,0,0,,11,,,70,127
37592,note_on,3,0,0,,10,,,69,127
37717,note_off,125,0,0,,10,,,69,127
37720,note_on,3,0,0,,7,,,67,127
37845,note_off,125,0,0,,7,,,67,127
37848,note_on,3,0,0,,2,,,62,127
37848,note_on,0,0,0,,6,,,66,127
37933,note_on,85,0,0,,2,,,74,127
38008,note_off,75,0,0,,6,,,66,127
38016,note_off,8,0,0,,2,,,62,127
38019,note_on,3,0,0,,2,,,62,127
38094,note_off,75,0,0,,2,,,74,127
38102,note_off,8,0,0,,2,,,62,127
38105,note_on,3,0,0,,0,,,60,127
38105,note_on,0,0,0,,3,,,63,127
38190,note_on,85,0,0,,0,,,72,127
38265,note_off,75,0,0,,3,,,63,127
38273,note_off,8,0,0,,0,,,60,127
38276,note_on,3,0,0,,0,,,60,127
38351,note_off,75,0,0,,0,,,72,127
38359,note_off,8,0,0,,0,,,60,127
38362,note_on,3,0,0,,11,,,58,127
38362,note_on,0,0,0,,2,,,62,127
38447,note_on,85,0,0,,11,,,70,127
38522,note_off,75,0,0,,2,,,62,127
38530,note_off,8,0,0,,11,,,58,127
38533,note_on,3,0,0,,11,,,58,127
38608,note_off,75,0,0,,11,,,70,127
38616,note_off,8,0,0,,11,,,58,127
38619,note_on,3,0,0,,10,,,57,127
38619,note_on,0,0,0,,0,,,60,127
38702,note_off,83,0,0,,10,,,57,127
38705,note_on,3,0,0,,11,,,58,127
38788,note_off,83,0,0,,11,,,58,127
38788,note_off,0,0,0,,0,,,60,127
38791,note_on,3,0,0,,0,,,60,127
38874,note_off,83,0,0,,0,,,60,127
38877,note_on,3,0,0,,6,,,54,127
38877,note_on,0,0,0,,10,,,57,127
38960,note_off,83,0,0,,6,,,54,127
38963,note_on,3,0,0,,7,,,55,127
39046,note_off,83,0,0,,7,,,55,127
39046,note_off,0,0,0,,10,,,57,127
39049,note_on,3,0,0,,10,,,57,127
39132,note_off,83,0,0,,10,,,57,127
39135,note_on,3,0,0,,2,,,50,127
39135,note_on,0,0,0,,2,,,62,127
39218,note_off,83,0,0,,2,,,50,127
39221,note_on,3,0,0,,4,,,52,127
39304,note_off,83,0,0,,4,,,52,127
39307,note_on,3,0,0,,6,,,54,127
39390,note_off,83,0,0,,6,,,54,127
39390,note_off,0,0,0,,2,,,62,127
39393,note_on,3,0,0,,7,,,55,127
39393,note_on,0,0,0,,11,,,58,127
39476,note_off,83,0,0,,11,,,58,127
39479,note_on,3,0,0,,10,,,57,127
39562,note_off,83,0,0,,10,,,57,127
39562,note_off,0,0,0,,7,,,55,127
39565,note_on,3,0,0,,7,,,55,127
39648,note_off,83,0,0,,7,,,55,127
39651,note_on,3,0,0,,11,,,58,127
39651,note_on,0,0,0,,2,,,62,127
39734,note_off,83,0,0,,2,,,62,127
39737,note_on,3,0,0,,0,,,60,127
39820,note_off,83,0,0,,0,,,60,127
39820,note_off,0,0,0,,11,,,58,127
39823,note_on,3,0,0,,11,,,58,127
39906,note_off,83,0,0,,11,,,58,127
39909,note_on,3,0,0,,7,,,67,127
39909,note_on,0,0,0,,11,,,70,127
39992,note_off,83,0,0,,11,,,70,127
39995,note_on,3,0,0,,10,,,69,127
40078,note_off,83,0,0,,10,,,69,127
40078,note_off,0,0,0,,7,,,67,127
40081,note_on,3,0,0,,7,,,67,127
40164,note_off,83,0,0,,7,,,67,127
40167,note_on,3,0,0,,11,,,70,127
40167,note_on,0,0,0,,2,,,74,127
40292,note_off,125,0,0,,2,,,74,127
40295,note_on,3,0,0,,0,,,72,127
40420,note_off,125,0,0,,0,,,72,127
40420,note_off,0,0,0,,11,,,70,127
40423,note_on,3,0,0,,11,,,70,127
40548,note_off,125,0,0,,11,,,70,127
40551,note_on,3,0,0,,10,,,69,127
40676,note_off,125,0,0,,10,,,69,127
40679,note_on,3,0,0,,7,,,67,127
40804,note_off,125,0,0,,7,,,67,127
40807,note_on,3,0,0,,5,,,65,127
40932,note_off,125,0,0,,5,,,65,127
40935,note_on,3,0,0,,0,,,60,127
40935,note_on,0,0,0,,4,,,64,127
41018,note_off,83,0,0,,4,,,64,127
41021,note_on,3,0,0,,2,,,62,127
41104,note_off,83,0,0,,2,,,62,127
41104,note_off,0,0,0,,0,,,60,127
41107,note_on,3,0,0,,0,,,60,127
41190,note_off,83,0,0,,0,,,60,127
41193,note_on,3,0,0,,4,,,64,127
41193,note_on,0,0,0,,7,,,67,127
41276,note_off,83,0,0,,7,,,67,127
41279,note_on,3,0,0,,5,,,65,127
41362,note_off,83,0,0,,5,,,65,127
41362,note_off,0,0,0,,4,,,64,127
41365,note_on,3,0,0,,4,,,64,127
41448,note_off,83,0,0,,4,,,64,127
41451,note_on,3,0,0,,0,,,72,127
41451,note_on,0,0,0,,4,,,76,127
41534,note_off,83,0,0,,4,,,76,127
41537,note_on,3,0,0,,2,,,74,127
41620,note_off,83,0,0,,2,,,74,127
41620,note_off,0,0,0,,0,,,72,127
41623,note_on,3,0,0,,0,,,72,127
41706,note_off,83,0,0,,0,,,72,127
41709,note_on,3,0,0,,4,,,76,127
41709,note_on,0,0,0,,7,,,79,127
41834,note_off,125,0,0,,7,,,79,127
41837,note_on,3,0,0,,5,,,77,127
41962,note_off,125,0,0,,5,,,77,127
41962,note_off,0,0,0,,4,,,76,127
41965,note_on,3,0,0,,4,,,76,127
42090,note_off,125,0,0,,4,,,76,127
42093,note_on,3,0,0,,2,,,74,127
42218,note_off,125,0,0,,2,,,74,127
42221,note_on,3,0,0,,0,,,72,127
42346,note_off,125,0,0,,0,,,72,127
42349,note_on,3,0,0,,11,,,70,127
42474,note_off,125,0,0,,11,,,70,127
42477,note_on,3,0,0,,5,,,65,127
42477,note_on,0,0,0,,10,,,69,127
42560,note_off,83,0,0,,10,,,69,127
42563,note_on,3,0,0,,7,,,67,127
42646,note_off,83,0,0,,7,,,67,127
42646,note_off,0,0,0,,5,,,65,127
42649,note_on,3,0,0,,5,,,65,127
42732,note_off,83,0,0,,5,,,65,127
42735,note_on,3,0,0,,10,,,69,127
42735,note_on,0,0,0,,0,,,72,127
42818,note_off,83,0,0,,0,,,72,127
42821,note_on,3,0,0,,11,,,70,127
42904,note_off,83,0,0,,11,,,70,127
42904,note_off,0,0,0,,10,,,69,127
42907,note_on,3,0,0,,10,,,69,127
42990,note_off,83,0,0,,10,,,69,127
42993,note_on,3,0,0,,5,,,77,127
42993,note_on,0,0,0,,10,,,81,127
43076,note_off,83,0,0,,10,,,81,127
43079,note_on,3,0,0,,7,,,79,127
43162,note_off,83,0,0,,7,,,79,127
43162,note_off,0,0,0,,5,,,77,127
43165,note_on,3,0,0,,5,,,77,127
43248,note_off,83,0,0,,5,,,77,127
43251,note_on,3,0,0,,10,,,81,127
43251,note_on,0,0,0,,0,,,84,127
43376,note_off,125,0,0,,0,,,84,127
43379,note_on,3,0,0,,11,,,82,127
43504,note_off,125,0,0,,11,,,82,127
43504,note_off,0,0,0,,10,,,81,127
43507,note_on,3,0,0,,10,,,81,127
43632,note_off,125,0,0,,10,,,81,127
43635,note_on,3,0,0,,7,,,79,127
43760,note_off,125,0,0,,7,,,79,127
43763,note_on,3,0,0,,5,,,77,127
43888,note_off,125,0,0,,5,,,77,127
43891,note_on,3,0,0,,3,,,75,127
44016,note_off,125,0,0,,3,,,75,127
44019,note_on,3,0,0,,5,,,65,127
44019,note_on,0,0,0,,10,,,69,127
44102,note_off,83,0,0,,10,,,69,127
44105,note_on,3,0,0,,7,,,67,127
44188,note_off,83,0,0,,7,,,67,127
44188,note_off,0,0,0,,5,,,65,127
44191,note_on,3,0,0,,5,,,65,127
44274,note_off,83,0,0,,5,,,65,127
44277,note_on,3,0,0,,10,,,69,127
44277,note_on,0,0,0,,0,,,72,127
44360,note_off,83,0,0,,0,,,72,127
44363,note_on,3,0,0,,11,,,70,127
44446,note_off,83,0,0,,11,,,70,127
44446,note_off,0,0,0,,10,,,69,127
44449,note_on,3,0,0,,10,,,69,127
44532,note_off,83,0,0,,10,,,69,127
44535,note_on,3,0,0,,5,,,77,127
44535,note_on,0,0,0,,10,,,81,127
44618,note_off,83,0,0,,10,,,81,127
44621,note_on,3,0,0,,7,,,79,127
44704,note_off,83,0,0,,7,,,79,127
44704,note_off,0,0,0,,5,,,77,127
44707,note_on,3,0,0,,5,,,77,127
44790,note_off,83,0,0,,5,,,77,127
44793,note_on,3,0,0,,10,,,81,127
44793,note_on,0,0,0,,0,,,84,127
44918,note_off,125,0,0,,0,,,84,127
44921,note_on,3,0,0,,11,,,82,127
45046,note_off,125,0,0,,11,,,82,127
45046,note_off,0,0,0,,10,,,81,127
45049,note_on,3,0,0,,10,,,81,127
45174,note_off,125,0,0,,10,,,81,127
45177,note_on,3,0,0,,7,,,79,127
45302,note_off,125,0,0,,7,,,79,127
45305,note_on,3,0,0,,5,,,77,127
45430,note_off,125,0,0,,5,,,77,127
45433,note_on,3,0,0,,4,,,76,127
45558,note_off,125,0,0,,4,,,76,127
45561,note_on,3,0,0,,11,,,70,127
45561,note_on,0,0,0,,2,,,74,127
45644,note_off,83,0,0,,11,,,70,127
45647,note_on,3,0,0,,0,,,72,127
45730,note_off,83,0,0,,0,,,72,127
45730,note_off,0,0,0,,2,,,74,127
45733,note_on,3,0,0,,2,,,74,127
45816,note_off,83,0,0,,2,,,74,127
45819,note_on,3,0,0,,7,,,67,127
45819,note_on,0,0,0,,11,,,70,127
45902,note_off,83,0,0,,7,,,67,127
45905,note_on,3,0,0,,10,,,69,127
45988,note_off,83,0,0,,10,,,69,127
45988,note_off,0,0,0,,11,,,70,127
45991,note_on,3,0,0,,11,,,70,127
46074,note_off,83,0,0,,11,,,70,127
46077,note_on,3,0,0,,4,,,64,127
46077,note_on,0,0,0,,7,,,67,127
46160,note_off,83,0,0,,4,,,64,127
46163,note_on,3,0,0,,5,,,65,127
46246,note_off,83,0,0,,5,,,65,127
46246,note_off,0,0,0,,7,,,67,127
46249,note_on,3,0,0,,7,,,67,127
46332,note_off,83,0,0,,7,,,67,127
46335,note_on,3,0,0,,0,,,60,127
46335,note_on,0,0,0,,4,,,64,127
46418,note_off,83,0,0,,0,,,60,127
46421,note_on,3,0,0,,2,,,62,127
46504,note_off,83,0,0,,2,,,62,127
46504,note_off,0,0,0,,4,,,64,127
46507,note_on,3,0,0,,4,,,64,127
46590,note_off,83,0,0,,4,,,64,127
46593,note_on,3,0,0,,10,,,57,127
46593,note_on,0,0,0,,0,,,60,127
46676,note_off,83,0,0,,10,,,57,127
46679,note_on,3,0,0,,11,,,58,127
46762,note_off,83,0,0,,11,,,58,127
46762,note_off,0,0,0,,0,,,60,127
46765,note_on,3,0,0,,0,,,60,127
46848,note_off,83,0,0,,0,,,60,127
46851,note_on,3,0,0,,5,,,53,127
46851,note_on,0,0,0,,5,,,65,127
47104,note_off,253,0,0,,5,,,53,127
47107,note_on,3,0,0,,11,,,58,127
47232,note_off,125,0,0,,5,,,65,127
47235,note_on,3,0,0,,7,,,67,127
47360,note_off,125,0,0,,7,,,67,127
47360,note_off,0,0,0,,11,,,58,127
47363,note_on,3,0,0,,0,,,60,127
47363,note_on,0,0,0,,10,,,69,127
47616,note_off,253,0,0,,10,,,69,127
47616,note_off,0,0,0,,0,,,60,127
47619,note_on,3,0,0,,0,,,48,127
47619,note_on,0,0,0,,10,,,69,127
47659,note_off,40,0,0,,10,,,69,127
47662,note_on,3,0,0,,7,,,67,127
47702,note_off,40,0,0,,7,,,67,127
47705,note_on,3,0,0,,10,,,69,127
47745,note_off,40,0,0,,10,,,69,127
47748,note_on,3,0,0,,7,,,67,127
47873,note_off,125,0,0,,7,,,67,127
47873,note_off,0,0,0,,0,,,48,127
47876,note_on,3,0,0,,5,,,41,127
47876,note_on,0,0,0,,10,,,69,127
48001,note_off,125,0,0,,10,,,69,127
48004,note_on,3,0,0,,5,,,65,127
48129,note_off,125,0,0,,5,,,65,127
48132,note_on,3,0,0,,0,,,72,127
48257,note_off,125,0,0,,0,,,72,127
48260,note_on,3,0,0,,10,,,69,127
48385,note_off,125,0,0,,10,,,69,127
48385,note_off,0,0,0,,5,,,41,127
48388,note_on,3,0,0,,10,,,69,127
48388,note_on,0,0,0,,5,,,77,127
48513,note_off,125,0,0,,5,,,77,127
48516,note_on,3,0,0,,0,,,72,127
48641,note_off,125,0,0,,0,,,72,127
48641,note_off,0,0,0,,10,,,69,127
48644,note_on,3,0,0,,11,,,70,127
48644,note_on,0,0,0,,5,,,77,127
48769,note_off,125,0,0,,5,,,77,127
48772,note_on,3,0,0,,7,,,79,127
48897,note_off,125,0,0,,7,,,79,127
48897,note_off,0,0,0,,11,,,70,127
48900,note_on,3,0,0,,0,,,72,127
48900,note_on,0,0,0,,10,,,81,127
49153,note_off,253,0,0,,10,,,81,127
49156,note_on,3,0,0,,10,,,81,127
49196,note_off,40,0,0,,10,,,81,127
49199,note_on,3,0,0,,7,,,79,127
49239,note_off,40,0,0,,7,,,79,127
49242,note_on,3,0,0,,10,,,81,127
49282,note_off,40,0,0,,10,,,81,127
49285,note_on,3,0,0,,7,,,79,127
49410,note_off,125,0,0,,7,,,79,127
49410,note_off,0,0,0,,0,,,72,127
49413,note_on,3,0,0,,5,,,41,127
49413,note_on,0,0,0,,10,,,69,127
49538,note_off,125,0,0,,10,,,69,127
49541,note_on,3,0,0,,5,,,65,127
49666,note_off,125,0,0,,5,,,65,127
49669,note_on,3,0,0,,0,,,72,127
49794,note_off,125,0,0,,0,,,72,127
49797,note_on,3,0,0,,10,,,69,127
49922,note_off,125,0,0,,10,,,69,127
49922,note_off,0,0,0,,5,,,41,127
49925,note_on,3,0,0,,10,,,69,127
49925,note_on,0,0,0,,5,,,77,127
50050,note_off,125,0,0,,5,,,77,127
50053,note_on,3,0,0,,0,,,72,127
50178,note_off,125,0,0,,0,,,72,127
50178,note_off,0,0,0,,10,,,69,127
50181,note_on,3,0,0,,11,,,70,127
50181,note_on,0,0,0,,5,,,77,127
50306,note_off,125,0,0,,5,,,77,127
50309,note_on,3,0,0,,7,,,79,127
50434,note_off,125,0,0,,7,,,79,127
50434,note_off,0,0,0,,11,,,70,127
50437,note_on,3,0,0,,0,,,72,127
50437,note_on,0,0,0,,10,,,81,127
50690,note_off,253,0,0,,10,,,81,127
50693,note_on,3,0,0,,10,,,81,127
50733,note_off,40,0,0,,10,,,81,127
50736,note_on,3,0,0,,7,,,79,127
50776,note_off,40,0,0,,7,,,79,127
50779,note_on,3,0,0,,10,,,81,127
50819,note_off,40,0,0,,10,,,81,127
50822,note_on,3,0,0,,7,,,79,127
50947,note_off,125,0,0,,7,,,79,127
50947,note_off,0,0,0,,0,,,72,127
50950,note_on,3,0,0,,5,,,41,127
50950,note_on,0,0,0,,10,,,69,127
51075,note_off,125,0,0,,10,,,69,127
51078,note_on,3,0,0,,5,,,65,127
51203,note_off,125,0,0,,5,,,65,127
51206,note_on,3,0,0,,0,,,72,127
51331,note_off,125,0,0,,0,,,72,127
51334,note_on,3,0,0,,10,,,69,127
51459,note_off,125,0,0,,10,,,69,127
51459,note_off,0,0,0,,5,,,41,127
51462,note_on,3,0,0,,10,,,69,127
51462,note_on,0,0,0,,5,,,77,127
51587,note_off,125,0,0,,5,,,77,127
51590,note_on,3,0,0,,0,,,72,127
51715,note_off,125,0,0,,0,,,72,127
51715,note_off,0,0,0,,10,,,69,127
51718,note_on,3,0,0,,11,,,70,127
51718,note_on,0,0,0,,5,,,77,127
51843,note_off,125,0,0,,5,,,77,127
51846,note_on,3,0,0,,7,,,79,127
51971,note_off,125,0,0,,7,,,79,127
51971,note_off,0,0,0,,11,,,70,127
51974,note_on,3,0,0,,0,,,72,127
51974,note_on,0,0,0,,10,,,81,127
52227,note_off,253,0,0,,10,,,81,127
52227,note_off,0,0,0,,0,,,72,127
52230,note_on,3,0,0,,0,,,60,127
52230,note_on,0,0,0,,10,,,81,127
52270,note_off,40,0,0,,10,,,81,127
52273,note_on,3,0,0,,7,,,79,127
52313,note_off,40,0,0,,7,,,79,127
52316,note_on,3,0,0,,10,,,81,127
52356,note_off,40,0,0,,10,,,81,127
52359,note_on,3,0,0,,7,,,79,127
52399,note_off,40,0,0,,7,,,79,127
52402,note_on,3,0,0,,10,,,81,127
52442,note_off,40,0,0,,10,,,81,127
52445,note_on,3,0,0,,7,,,79,127
52485,note_off,40,0,0,,7,,,79,127
52485,note_off,0,0,0,,0,,,60,127
52488,note_on,3,0,0,,5,,,41,127
52488,note_on,0,0,0,,5,,,77,127
53512,note_off,1024,0,0,,5,,,77,127
53512,note_off,0,0,0,,5,,,41,127
58368,end_of_track,4856,1,0,,,,,,
