tick,type,time,meta,track,program,channel,pitch,tempo,note,velocity
0,copyright,0,1,0,,,,,,
0,program_change,0,0,0,6,0,,,,
0,pitchwheel,0,0,0,,0,0,,,
0,program_change,0,0,0,6,1,,,,
0,pitchwheel,0,0,0,,1,-590,,,
0,program_change,0,0,0,6,2,,,,
0,pitchwheel,0,0,0,,2,-272,,,
0,program_change,0,0,0,6,3,,,,
0,pitchwheel,0,0,0,,3,-353,,,
0,program_change,0,0,0,6,4,,,,
0,pitchwheel,0,0,0,,4,-560,,,
0,program_change,0,0,0,6,5,,,,
0,pitchwheel,0,0,0,,5,-80,,,
0,program_change,0,0,0,6,6,,,,
0,pitchwheel,0,0,0,,6,-625,,,
0,program_change,0,0,0,6,7,,,,
0,pitchwheel,0,0,0,,7,-130,,,
0,program_change,0,0,0,6,8,,,,
0,pitchwheel,0,0,0,,8,-512,,,
0,program_change,0,0,0,6,10,,,,
0,pitchwheel,0,0,0,,10,-464,,,
0,program_change,0,0,0,6,11,,,,
0,pitchwheel,0,0,0,,11,-208,,,
0,program_change,0,0,0,6,12,,,,
0,pitchwheel,0,0,0,,12,-553,,,
0,set_tempo,0,1,0,,,,500000,,
114,note_on,114,0,0,,4,,,76,127
223,note_off,109,0,0,,4,,,76,127
224,note_on,1,0,0,,6,,,78,127
333,note_off,109,0,0,,6,,,78,127
334,note_on,1,0,0,,8,,,80,127
443,note_off,109,0,0,,8,,,80,127
444,note_on,1,0,0,,10,,,81,127
553,note_off,109,0,0,,10,,,81,127
554,note_on,1,0,0,,10,,,81,127
664,note_on,110,0,0,,4,,,76,127
691,note_off,27,0,0,,10,,,81,127
772,note_off,81,0,0,,4,,,76,127
773,note_on,1,0,0,,4,,,76,127
883,note_on,110,0,0,,1,,,73,127
910,note_off,27,0,0,,4,,,76,127
991,note_off,81,0,0,,1,,,73,127
992,note_on,1,0,0,,1,,,73,127
1102,note_on,110,0,0,,10,,,69,127
1129,note_off,27,0,0,,1,,,73,127
1210,note_off,81,0,0,,10,,,69,127
1211,note_on,1,0,0,,10,,,69,127
1321,note_on,110,0,0,,4,,,64,127
1348,note_off,27,0,0,,10,,,69,127
1429,note_off,81,0,0,,4,,,64,127
1430,note_on,1,0,0,,4,,,64,127
1540,note_on,110,0,0,,1,,,61,127
1567,note_off,27,0,0,,4,,,64,127
1648,note_off,81,0,0,,1,,,61,127
1649,note_on,1,0,0,,1,,,61,127
1759,note_on,110,0,0,,10,,,57,127
1786,note_off,27,0,0,,1,,,61,127
1867,note_off,81,0,0,,10,,,57,127
1868,note_on,1,0,0,,10,,,57,127
1978,note_on,110,0,0,,4,,,52,127
2005,note_off,27,0,0,,10,,,57,127
2086,note_off,81,0,0,,4,,,52,127
2087,note_on,1,0,0,,4,,,52,127
2197,note_on,110,0,0,,10,,,45,127
2224,note_off,27,0,0,,4,,,52,127
2416,note_on,192,0,0,,10,,,57,127
2634,note_off,218,0,0,,10,,,57,127
2635,note_on,1,0,0,,10,,,57,127
2745,note_off,110,0,0,,10,,,45,127
2855,note_on,110,0,0,,1,,,61,127
3073,note_off,218,0,0,,1,,,61,127
3073,note_off,0,0,0,,10,,,57,127
3074,note_on,1,0,0,,12,,,59,127
3074,note_on,0,0,0,,4,,,52,127
3074,note_on,0,0,0,,8,,,56,127
3183,note_off,109,0,0,,12,,,59,127
3184,note_on,1,0,0,,1,,,61,127
3293,note_off,109,0,0,,1,,,61,127
3294,note_on,1,0,0,,2,,,62,127
3403,note_off,109,0,0,,2,,,62,127
3404,note_on,1,0,0,,4,,,64,127
3513,note_off,109,0,0,,4,,,64,127
3514,note_on,1,0,0,,2,,,62,127
3732,note_off,218,0,0,,2,,,62,127
3732,note_off,0,0,0,,8,,,56,127
3732,note_off,0,0,0,,4,,,52,127
3733,note_on,1,0,0,,1,,,61,127
3733,note_on,0,0,0,,4,,,52,127
3733,note_on,0,0,0,,10,,,57,127
3951,note_off,218,0,0,,10,,,57,127
3951,note_off,0,0,0,,4,,,52,127
3951,note_off,0,0,0,,1,,,61,127
3952,note_on,1,0,0,,12,,,59,127
3952,note_on,0,0,0,,8,,,56,127
3952,note_on,0,0,0,,4,,,52,127
4061,note_off,109,0,0,,12,,,59,127
4062,note_on,1,0,0,,1,,,61,127
4171,note_off,109,0,0,,1,,,61,127
4172,note_on,1,0,0,,2,,,62,127
4281,note_off,109,0,0,,2,,,62,127
4282,note_on,1,0,0,,4,,,64,127
4391,note_off,109,0,0,,4,,,64,127
4392,note_on,1,0,0,,2,,,62,127
4610,note_off,218,0,0,,2,,,62,127
4610,note_off,0,0,0,,4,,,52,127
4610,note_off,0,0,0,,8,,,56,127
4611,note_on,1,0,0,,1,,,61,127
4611,note_on,0,0,0,,10,,,57,127
4611,note_on,0,0,0,,4,,,52,127
4829,note_off,218,0,0,,4,,,52,127
4829,note_off,0,0,0,,10,,,57,127
4829,note_off,0,0,0,,1,,,61,127
4830,note_on,1,0,0,,12,,,59,127
4830,note_on,0,0,0,,4,,,52,127
4830,note_on,0,0,0,,8,,,56,127
4939,note_off,109,0,0,,12,,,59,127
4940,note_on,1,0,0,,1,,,61,127
5049,note_off,109,0,0,,1,,,61,127
5050,note_on,1,0,0,,2,,,62,127
5159,note_off,109,0,0,,2,,,62,127
5160,note_on,1,0,0,,4,,,64,127
5269,note_off,109,0,0,,4,,,64,127
5270,note_on,1,0,0,,2,,,62,127
5488,note_off,218,0,0,,2,,,62,127
5488,note_off,0,0,0,,8,,,56,127
5488,note_off,0,0,0,,4,,,52,127
5489,note_on,1,0,0,,1,,,61,127
5489,note_on,0,0,0,,10,,,45,127
5489,note_on,0,0,0,,10,,,57,127
5707,note_off,218,0,0,,10,,,57,127
5707,note_off,0,0,0,,10,,,45,127
5707,note_off,0,0,0,,1,,,61,127
5708,note_on,1,0,0,,12,,,59,127
5708,note_on,0,0,0,,4,,,52,127
6146,note_off,438,0,0,,4,,,52,127
6256,note_off,110,0,0,,12,,,59,127
6264,note_on,8,0,0,,12,,,71,127
6373,note_off,109,0,0,,12,,,71,127
6374,note_on,1,0,0,,1,,,73,127
6483,note_off,109,0,0,,1,,,73,127
6484,note_on,1,0,0,,3,,,75,127
6593,note_off,109,0,0,,3,,,75,127
6594,note_on,1,0,0,,4,,,76,127
6703,note_off,109,0,0,,4,,,76,127
6704,note_on,1,0,0,,4,,,76,127
6814,note_on,110,0,0,,12,,,71,127
6841,note_off,27,0,0,,4,,,76,127
6922,note_off,81,0,0,,12,,,71,127
6923,note_on,1,0,0,,12,,,71,127
7033,note_on,110,0,0,,8,,,68,127
7060,note_off,27,0,0,,12,,,71,127
7141,note_off,81,0,0,,8,,,68,127
7142,note_on,1,0,0,,8,,,68,127
7252,note_on,110,0,0,,4,,,64,127
7279,note_off,27,0,0,,8,,,68,127
7360,note_off,81,0,0,,4,,,64,127
7361,note_on,1,0,0,,4,,,64,127
7471,note_on,110,0,0,,12,,,59,127
7498,note_off,27,0,0,,4,,,64,127
7579,note_off,81,0,0,,12,,,59,127
7580,note_on,1,0,0,,12,,,59,127
7690,note_on,110,0,0,,8,,,56,127
7717,note_off,27,0,0,,12,,,59,127
7798,note_off,81,0,0,,8,,,56,127
7799,note_on,1,0,0,,8,,,56,127
7909,note_on,110,0,0,,4,,,52,127
7936,note_off,27,0,0,,8,,,56,127
8017,note_off,81,0,0,,4,,,52,127
8018,note_on,1,0,0,,4,,,52,127
8128,note_on,110,0,0,,12,,,47,127
8155,note_off,27,0,0,,4,,,52,127
8236,note_off,81,0,0,,12,,,47,127
8237,note_on,1,0,0,,12,,,47,127
8347,note_on,110,0,0,,4,,,40,127
8374,note_off,27,0,0,,12,,,47,127
8566,note_on,192,0,0,,4,,,52,127
8784,note_off,218,0,0,,4,,,52,127
8785,note_on,1,0,0,,4,,,52,127
8895,note_off,110,0,0,,4,,,40,127
9005,note_on,110,0,0,,8,,,56,127
9223,note_off,218,0,0,,8,,,56,127
9223,note_off,0,0,0,,4,,,52,127
9224,note_on,1,0,0,,12,,,47,127
9224,note_on,0,0,0,,3,,,51,127
9224,note_on,0,0,0,,6,,,54,127
9333,note_off,109,0,0,,6,,,54,127
9334,note_on,1,0,0,,8,,,56,127
9443,note_off,109,0,0,,8,,,56,127
9444,note_on,1,0,0,,10,,,57,127
9553,note_off,109,0,0,,10,,,57,127
9554,note_on,1,0,0,,12,,,59,127
9663,note_off,109,0,0,,12,,,59,127
9664,note_on,1,0,0,,10,,,57,127
9882,note_off,218,0,0,,10,,,57,127
9882,note_off,0,0,0,,3,,,51,127
9882,note_off,0,0,0,,12,,,47,127
9883,note_on,1,0,0,,4,,,52,127
9883,note_on,0,0,0,,12,,,47,127
9883,note_on,0,0,0,,8,,,56,127
10101,note_off,218,0,0,,8,,,56,127
10101,note_off,0,0,0,,12,,,47,127
10101,note_off,0,0,0,,4,,,52,127
10102,note_on,1,0,0,,3,,,51,127
10102,note_on,0,0,0,,12,,,47,127
10102,note_on,0,0,0,,6,,,54,127
10211,note_off,109,0,0,,6,,,54,127
10212,note_on,1,0,0,,8,,,56,127
10321,note_off,109,0,0,,8,,,56,127
10322,note_on,1,0,0,,10,,,57,127
10431,note_off,109,0,0,,10,,,57,127
10432,note_on,1,0,0,,12,,,59,127
10541,note_off,109,0,0,,12,,,59,127
10542,note_on,1,0,0,,10,,,57,127
10760,note_off,218,0,0,,10,,,57,127
10760,note_off,0,0,0,,12,,,47,127
10760,note_off,0,0,0,,3,,,51,127
10761,note_on,1,0,0,,4,,,52,127
10761,note_on,0,0,0,,12,,,47,127
10761,note_on,0,0,0,,8,,,56,127
10979,note_off,218,0,0,,8,,,56,127
10979,note_off,0,0,0,,12,,,47,127
10979,note_off,0,0,0,,4,,,52,127
10980,note_on,1,0,0,,3,,,51,127
10980,note_on,0,0,0,,12,,,47,127
10980,note_on,0,0,0,,6,,,54,127
11089,note_off,109,0,0,,6,,,54,127
11090,note_on,1,0,0,,8,,,56,127
11199,note_off,109,0,0,,8,,,56,127
11200,note_on,1,0,0,,10,,,57,127
11309,note_off,109,0,0,,10,,,57,127
11310,note_on,1,0,0,,12,,,59,127
11419,note_off,109,0,0,,12,,,59,127
11420,note_on,1,0,0,,10,,,57,127
11638,note_off,218,0,0,,10,,,57,127
11638,note_off,0,0,0,,12,,,47,127
11638,note_off,0,0,0,,3,,,51,127
11639,note_on,1,0,0,,4,,,40,127
11639,note_on,0,0,0,,4,,,52,127
11639,note_on,0,0,0,,8,,,56,127
11857,note_off,218,0,0,,8,,,56,127
11857,note_off,0,0,0,,4,,,52,127
11857,note_off,0,0,0,,4,,,40,127
11858,note_on,1,0,0,,12,,,47,127
11858,note_on,0,0,0,,6,,,54,127
12292,note_off,434,0,0,,6,,,54,127
12509,note_off,217,0,0,,12,,,47,127
12523,note_on,14,0,0,,6,,,54,127
12523,note_on,0,0,0,,12,,,47,127
12741,note_off,218,0,0,,12,,,47,127
12741,note_off,0,0,0,,6,,,54,127
12742,note_on,1,0,0,,8,,,56,127
12742,note_on,0,0,0,,4,,,52,127
12851,note_off,109,0,0,,4,,,52,127
12851,note_off,0,0,0,,8,,,56,127
12852,note_on,1,0,0,,6,,,54,127
12852,note_on,0,0,0,,3,,,51,127
12961,note_off,109,0,0,,3,,,51,127
12961,note_off,0,0,0,,6,,,54,127
12962,note_on,1,0,0,,8,,,56,127
12962,note_on,0,0,0,,4,,,52,127
13071,note_off,109,0,0,,4,,,52,127
13071,note_off,0,0,0,,8,,,56,127
13072,note_on,1,0,0,,10,,,57,127
13072,note_on,0,0,0,,6,,,54,127
13181,note_off,109,0,0,,6,,,54,127
13181,note_off,0,0,0,,10,,,57,127
13182,note_on,1,0,0,,12,,,59,127
13182,note_on,0,0,0,,8,,,56,127
13292,note_on,110,0,0,,12,,,47,127
13347,note_off,55,0,0,,8,,,56,127
13401,note_off,54,0,0,,12,,,59,127
13402,note_on,1,0,0,,10,,,57,127
13402,note_on,0,0,0,,6,,,54,127
13457,note_off,55,0,0,,12,,,47,127
13512,note_on,55,0,0,,12,,,47,127
13567,note_off,55,0,0,,6,,,54,127
13621,note_off,54,0,0,,12,,,47,127
13621,note_off,0,0,0,,10,,,57,127
13622,note_on,1,0,0,,8,,,56,127
13622,note_on,0,0,0,,4,,,52,127
13731,note_off,109,0,0,,4,,,52,127
13731,note_off,0,0,0,,8,,,56,127
13732,note_on,1,0,0,,6,,,54,127
13732,note_on,0,0,0,,3,,,51,127
13841,note_off,109,0,0,,3,,,51,127
13841,note_off,0,0,0,,6,,,54,127
13842,note_on,1,0,0,,8,,,56,127
13842,note_on,0,0,0,,4,,,52,127
13951,note_off,109,0,0,,4,,,52,127
13951,note_off,0,0,0,,8,,,56,127
13952,note_on,1,0,0,,10,,,57,127
13952,note_on,0,0,0,,6,,,54,127
14061,note_off,109,0,0,,6,,,54,127
14061,note_off,0,0,0,,10,,,57,127
14062,note_on,1,0,0,,12,,,59,127
14062,note_on,0,0,0,,8,,,56,127
14172,note_on,110,0,0,,12,,,47,127
14227,note_off,55,0,0,,8,,,56,127
14281,note_off,54,0,0,,12,,,59,127
14282,note_on,1,0,0,,10,,,57,127
14282,note_on,0,0,0,,6,,,54,127
14337,note_off,55,0,0,,12,,,47,127
14392,note_on,55,0,0,,12,,,47,127
14447,note_off,55,0,0,,6,,,54,127
14501,note_off,54,0,0,,12,,,47,127
14501,note_off,0,0,0,,10,,,57,127
14502,note_on,1,0,0,,8,,,56,127
14502,note_on,0,0,0,,4,,,52,127
14611,note_off,109,0,0,,4,,,52,127
14611,note_off,0,0,0,,8,,,56,127
14612,note_on,1,0,0,,6,,,54,127
14612,note_on,0,0,0,,3,,,51,127
14721,note_off,109,0,0,,3,,,51,127
14721,note_off,0,0,0,,6,,,54,127
14722,note_on,1,0,0,,8,,,56,127
14722,note_on,0,0,0,,4,,,52,127
14831,note_off,109,0,0,,4,,,52,127
14831,note_off,0,0,0,,8,,,56,127
14832,note_on,1,0,0,,10,,,57,127
14832,note_on,0,0,0,,6,,,54,127
14941,note_off,109,0,0,,6,,,54,127
14941,note_off,0,0,0,,10,,,57,127
14942,note_on,1,0,0,,12,,,59,127
14942,note_on,0,0,0,,8,,,56,127
15052,note_on,110,0,0,,12,,,47,127
15107,note_off,55,0,0,,8,,,56,127
15161,note_off,54,0,0,,12,,,59,127
15162,note_on,1,0,0,,10,,,57,127
15162,note_on,0,0,0,,6,,,54,127
15217,note_off,55,0,0,,12,,,47,127
15272,note_on,55,0,0,,12,,,47,127
15327,note_off,55,0,0,,6,,,54,127
15381,note_off,54,0,0,,12,,,47,127
15381,note_off,0,0,0,,10,,,57,127
15382,note_on,1,0,0,,8,,,56,127
15382,note_on,0,0,0,,4,,,52,127
15491,note_off,109,0,0,,8,,,56,127
15492,note_on,1,0,0,,10,,,57,127
15601,note_off,109,0,0,,10,,,57,127
15602,note_on,1,0,0,,12,,,59,127
15711,note_off,109,0,0,,12,,,59,127
15712,note_on,1,0,0,,0,,,60,127
15821,note_off,109,0,0,,0,,,60,127
15822,note_on,1,0,0,,2,,,62,127
15931,note_off,109,0,0,,4,,,52,127
15932,note_on,1,0,0,,4,,,52,127
16041,note_off,109,0,0,,4,,,52,127
16041,note_off,0,0,0,,2,,,62,127
16042,note_on,1,0,0,,12,,,59,127
16042,note_on,0,0,0,,6,,,54,127
16151,note_off,109,0,0,,6,,,54,127
16152,note_on,1,0,0,,8,,,56,127
16261,note_off,109,0,0,,8,,,56,127
16261,note_off,0,0,0,,12,,,59,127
16262,note_on,1,0,0,,0,,,60,127
16262,note_on,0,0,0,,10,,,57,127
16371,note_off,109,0,0,,10,,,57,127
16371,note_off,0,0,0,,0,,,60,127
16372,note_on,1,0,0,,12,,,59,127
16372,note_on,0,0,0,,8,,,56,127
16481,note_off,109,0,0,,8,,,56,127
16481,note_off,0,0,0,,12,,,59,127
16482,note_on,1,0,0,,0,,,60,127
16482,note_on,0,0,0,,10,,,57,127
16591,note_off,109,0,0,,10,,,57,127
16591,note_off,0,0,0,,0,,,60,127
16592,note_on,1,0,0,,2,,,62,127
16592,note_on,0,0,0,,12,,,59,127
16701,note_off,109,0,0,,12,,,59,127
16701,note_off,0,0,0,,2,,,62,127
16702,note_on,1,0,0,,4,,,64,127
16702,note_on,0,0,0,,0,,,60,127
16812,note_on,110,0,0,,4,,,52,127
16867,note_off,55,0,0,,0,,,60,127
16921,note_off,54,0,0,,4,,,64,127
16922,note_on,1,0,0,,2,,,62,127
16922,note_on,0,0,0,,12,,,59,127
16977,note_off,55,0,0,,4,,,52,127
17032,note_on,55,0,0,,4,,,52,127
17087,note_off,55,0,0,,12,,,59,127
17141,note_off,54,0,0,,4,,,52,127
17141,note_off,0,0,0,,2,,,62,127
17142,note_on,1,0,0,,0,,,60,127
17142,note_on,0,0,0,,10,,,57,127
17251,note_off,109,0,0,,10,,,57,127
17251,note_off,0,0,0,,0,,,60,127
17252,note_on,1,0,0,,12,,,59,127
17252,note_on,0,0,0,,8,,,56,127
17361,note_off,109,0,0,,8,,,56,127
17361,note_off,0,0,0,,12,,,59,127
17362,note_on,1,0,0,,0,,,60,127
17362,note_on,0,0,0,,10,,,57,127
17471,note_off,109,0,0,,10,,,57,127
17471,note_off,0,0,0,,0,,,60,127
17472,note_on,1,0,0,,2,,,62,127
17472,note_on,0,0,0,,12,,,59,127
17581,note_off,109,0,0,,12,,,59,127
17581,note_off,0,0,0,,2,,,62,127
17582,note_on,1,0,0,,4,,,64,127
17582,note_on,0,0,0,,0,,,60,127
17692,note_on,110,0,0,,4,,,52,127
17747,note_off,55,0,0,,0,,,60,127
17801,note_off,54,0,0,,4,,,64,127
17802,note_on,1,0,0,,2,,,62,127
17802,note_on,0,0,0,,12,,,59,127
17857,note_off,55,0,0,,4,,,52,127
17912,note_on,55,0,0,,4,,,52,127
17967,note_off,55,0,0,,12,,,59,127
18021,note_off,54,0,0,,4,,,52,127
18021,note_off,0,0,0,,2,,,62,127
18022,note_on,1,0,0,,0,,,60,127
18022,note_on,0,0,0,,10,,,57,127
18131,note_off,109,0,0,,10,,,57,127
18131,note_off,0,0,0,,0,,,60,127
18132,note_on,1,0,0,,12,,,59,127
18132,note_on,0,0,0,,8,,,56,127
18241,note_off,109,0,0,,8,,,56,127
18241,note_off,0,0,0,,12,,,59,127
18242,note_on,1,0,0,,0,,,60,127
18242,note_on,0,0,0,,10,,,57,127
18351,note_off,109,0,0,,10,,,57,127
18351,note_off,0,0,0,,0,,,60,127
18352,note_on,1,0,0,,2,,,62,127
18352,note_on,0,0,0,,12,,,59,127
18461,note_off,109,0,0,,12,,,59,127
18461,note_off,0,0,0,,2,,,62,127
18462,note_on,1,0,0,,4,,,64,127
18462,note_on,0,0,0,,0,,,60,127
18572,note_on,110,0,0,,4,,,52,127
18627,note_off,55,0,0,,0,,,60,127
18681,note_off,54,0,0,,4,,,64,127
18682,note_on,1,0,0,,2,,,62,127
18682,note_on,0,0,0,,12,,,59,127
18737,note_off,55,0,0,,4,,,52,127
18792,note_on,55,0,0,,4,,,52,127
18847,note_off,55,0,0,,12,,,59,127
18901,note_off,54,0,0,,4,,,52,127
18901,note_off,0,0,0,,2,,,62,127
18902,note_on,1,0,0,,0,,,60,127
18902,note_on,0,0,0,,10,,,57,127
19011,note_off,109,0,0,,0,,,60,127
19012,note_on,1,0,0,,4,,,64,127
19121,note_off,109,0,0,,4,,,64,127
19122,note_on,1,0,0,,6,,,66,127
19231,note_off,109,0,0,,6,,,66,127
19232,note_on,1,0,0,,7,,,67,127
19341,note_off,109,0,0,,7,,,67,127
19342,note_on,1,0,0,,10,,,69,127
19451,note_off,109,0,0,,10,,,57,127
19452,note_on,1,0,0,,12,,,59,127
19561,note_off,109,0,0,,12,,,59,127
19561,note_off,0,0,0,,10,,,69,127
19562,note_on,1,0,0,,6,,,66,127
19562,note_on,0,0,0,,1,,,61,127
19671,note_off,109,0,0,,1,,,61,127
19672,note_on,1,0,0,,3,,,63,127
19781,note_off,109,0,0,,3,,,63,127
19781,note_off,0,0,0,,6,,,66,127
19782,note_on,1,0,0,,7,,,67,127
19782,note_on,0,0,0,,4,,,64,127
19891,note_off,109,0,0,,4,,,64,127
19891,note_off,0,0,0,,7,,,67,127
19892,note_on,1,0,0,,6,,,66,127
19892,note_on,0,0,0,,3,,,63,127
20001,note_off,109,0,0,,3,,,63,127
20001,note_off,0,0,0,,6,,,66,127
20002,note_on,1,0,0,,7,,,67,127
20002,note_on,0,0,0,,4,,,64,127
20111,note_off,109,0,0,,4,,,64,127
20111,note_off,0,0,0,,7,,,67,127
20112,note_on,1,0,0,,10,,,69,127
20112,note_on,0,0,0,,6,,,66,127
20221,note_off,109,0,0,,6,,,66,127
20221,note_off,0,0,0,,10,,,69,127
20222,note_on,1,0,0,,12,,,71,127
20222,note_on,0,0,0,,7,,,67,127
20332,note_on,110,0,0,,12,,,59,127
20387,note_off,55,0,0,,7,,,67,127
20441,note_off,54,0,0,,12,,,71,127
20442,note_on,1,0,0,,10,,,69,127
20442,note_on,0,0,0,,6,,,66,127
20497,note_off,55,0,0,,12,,,59,127
20552,note_on,55,0,0,,12,,,59,127
20607,note_off,55,0,0,,6,,,66,127
20661,note_off,54,0,0,,12,,,59,127
20661,note_off,0,0,0,,10,,,69,127
20662,note_on,1,0,0,,7,,,67,127
20662,note_on,0,0,0,,4,,,64,127
20771,note_off,109,0,0,,4,,,64,127
20771,note_off,0,0,0,,7,,,67,127
20772,note_on,1,0,0,,6,,,66,127
20772,note_on,0,0,0,,3,,,63,127
20881,note_off,109,0,0,,3,,,63,127
20881,note_off,0,0,0,,6,,,66,127
20882,note_on,1,0,0,,7,,,67,127
20882,note_on,0,0,0,,4,,,64,127
20991,note_off,109,0,0,,4,,,64,127
20991,note_off,0,0,0,,7,,,67,127
20992,note_on,1,0,0,,10,,,69,127
20992,note_on,0,0,0,,6,,,66,127
21101,note_off,109,0,0,,6,,,66,127
21101,note_off,0,0,0,,10,,,69,127
21102,note_on,1,0,0,,12,,,71,127
21102,note_on,0,0,0,,7,,,67,127
21212,note_on,110,0,0,,12,,,59,127
21267,note_off,55,0,0,,7,,,67,127
21321,note_off,54,0,0,,12,,,71,127
21322,note_on,1,0,0,,10,,,69,127
21322,note_on,0,0,0,,6,,,66,127
21377,note_off,55,0,0,,12,,,59,127
21432,note_on,55,0,0,,12,,,59,127
21487,note_off,55,0,0,,6,,,66,127
21541,note_off,54,0,0,,12,,,59,127
21541,note_off,0,0,0,,10,,,69,127
21542,note_on,1,0,0,,7,,,67,127
21542,note_on,0,0,0,,4,,,64,127
21651,note_off,109,0,0,,4,,,64,127
21651,note_off,0,0,0,,7,,,67,127
21652,note_on,1,0,0,,6,,,66,127
21652,note_on,0,0,0,,3,,,63,127
21761,note_off,109,0,0,,3,,,63,127
21761,note_off,0,0,0,,6,,,66,127
21762,note_on,1,0,0,,7,,,67,127
21762,note_on,0,0,0,,4,,,64,127
21871,note_off,109,0,0,,4,,,64,127
21871,note_off,0,0,0,,7,,,67,127
21872,note_on,1,0,0,,10,,,69,127
21872,note_on,0,0,0,,6,,,66,127
21981,note_off,109,0,0,,6,,,66,127
21981,note_off,0,0,0,,10,,,69,127
21982,note_on,1,0,0,,12,,,71,127
21982,note_on,0,0,0,,7,,,67,127
22092,note_on,110,0,0,,12,,,59,127
22147,note_off,55,0,0,,7,,,67,127
22201,note_off,54,0,0,,12,,,71,127
22202,note_on,1,0,0,,10,,,69,127
22202,note_on,0,0,0,,6,,,66,127
22257,note_off,55,0,0,,12,,,59,127
22312,note_on,55,0,0,,12,,,59,127
22367,note_off,55,0,0,,6,,,66,127
22421,note_off,54,0,0,,12,,,59,127
22421,note_off,0,0,0,,10,,,69,127
22422,note_on,1,0,0,,8,,,68,127
22422,note_on,0,0,0,,4,,,64,127
22531,note_off,109,0,0,,8,,,68,127
22532,note_on,1,0,0,,10,,,69,127
22641,note_off,109,0,0,,10,,,69,127
22642,note_on,1,0,0,,12,,,71,127
22751,note_off,109,0,0,,12,,,71,127
22752,note_on,1,0,0,,0,,,72,127
22861,note_off,109,0,0,,0,,,72,127
22862,note_on,1,0,0,,2,,,74,127
22971,note_off,109,0,0,,4,,,64,127
22972,note_on,1,0,0,,4,,,64,127
23081,note_off,109,0,0,,4,,,64,127
23081,note_off,0,0,0,,2,,,74,127
23082,note_on,1,0,0,,12,,,71,127
23082,note_on,0,0,0,,6,,,66,127
23191,note_off,109,0,0,,6,,,66,127
23192,note_on,1,0,0,,8,,,68,127
23301,note_off,109,0,0,,8,,,68,127
23301,note_off,0,0,0,,12,,,71,127
23302,note_on,1,0,0,,0,,,72,127
23302,note_on,0,0,0,,10,,,69,127
23411,note_off,109,0,0,,10,,,69,127
23411,note_off,0,0,0,,0,,,72,127
23412,note_on,1,0,0,,12,,,71,127
23412,note_on,0,0,0,,8,,,68,127
23521,note_off,109,0,0,,8,,,68,127
23521,note_off,0,0,0,,12,,,71,127
23522,note_on,1,0,0,,0,,,72,127
23522,note_on,0,0,0,,10,,,69,127
23631,note_off,109,0,0,,10,,,69,127
23631,note_off,0,0,0,,0,,,72,127
23632,note_on,1,0,0,,2,,,74,127
23632,note_on,0,0,0,,12,,,71,127
23741,note_off,109,0,0,,12,,,71,127
23741,note_off,0,0,0,,2,,,74,127
23742,note_on,1,0,0,,4,,,76,127
23742,note_on,0,0,0,,0,,,72,127
23852,note_on,110,0,0,,4,,,64,127
23907,note_off,55,0,0,,0,,,72,127
23961,note_off,54,0,0,,4,,,76,127
23962,note_on,1,0,0,,2,,,74,127
23962,note_on,0,0,0,,12,,,71,127
24017,note_off,55,0,0,,4,,,64,127
24072,note_on,55,0,0,,4,,,64,127
24127,note_off,55,0,0,,12,,,71,127
24181,note_off,54,0,0,,4,,,64,127
24181,note_off,0,0,0,,2,,,74,127
24182,note_on,1,0,0,,0,,,72,127
24182,note_on,0,0,0,,10,,,69,127
24291,note_off,109,0,0,,10,,,69,127
24291,note_off,0,0,0,,0,,,72,127
24292,note_on,1,0,0,,12,,,71,127
24292,note_on,0,0,0,,8,,,68,127
24401,note_off,109,0,0,,8,,,68,127
24401,note_off,0,0,0,,12,,,71,127
24402,note_on,1,0,0,,0,,,72,127
24402,note_on,0,0,0,,10,,,69,127
24511,note_off,109,0,0,,10,,,69,127
24511,note_off,0,0,0,,0,,,72,127
24512,note_on,1,0,0,,2,,,74,127
24512,note_on,0,0,0,,12,,,71,127
24621,note_off,109,0,0,,12,,,71,127
24621,note_off,0,0,0,,2,,,74,127
24622,note_on,1,0,0,,4,,,76,127
24622,note_on,0,0,0,,0,,,72,127
24732,note_on,110,0,0,,4,,,64,127
24787,note_off,55,0,0,,0,,,72,127
24841,note_off,54,0,0,,4,,,76,127
24842,note_on,1,0,0,,2,,,74,127
24842,note_on,0,0,0,,12,,,71,127
24897,note_off,55,0,0,,4,,,64,127
24952,note_on,55,0,0,,4,,,64,127
25007,note_off,55,0,0,,12,,,71,127
25061,note_off,54,0,0,,4,,,64,127
25061,note_off,0,0,0,,2,,,74,127
25062,note_on,1,0,0,,0,,,72,127
25062,note_on,0,0,0,,10,,,69,127
25171,note_off,109,0,0,,10,,,69,127
25171,note_off,0,0,0,,0,,,72,127
25172,note_on,1,0,0,,12,,,71,127
25172,note_on,0,0,0,,8,,,68,127
25281,note_off,109,0,0,,8,,,68,127
25281,note_off,0,0,0,,12,,,71,127
25282,note_on,1,0,0,,0,,,72,127
25282,note_on,0,0,0,,10,,,69,127
25391,note_off,109,0,0,,10,,,69,127
25391,note_off,0,0,0,,0,,,72,127
25392,note_on,1,0,0,,2,,,74,127
25392,note_on,0,0,0,,12,,,71,127
25501,note_off,109,0,0,,12,,,71,127
25501,note_off,0,0,0,,2,,,74,127
25502,note_on,1,0,0,,4,,,76,127
25502,note_on,0,0,0,,0,,,72,127
25612,note_on,110,0,0,,4,,,64,127
25667,note_off,55,0,0,,0,,,72,127
25721,note_off,54,0,0,,4,,,76,127
25722,note_on,1,0,0,,2,,,74,127
25722,note_on,0,0,0,,12,,,71,127
25777,note_off,55,0,0,,4,,,64,127
25832,note_on,55,0,0,,4,,,64,127
25887,note_off,55,0,0,,12,,,71,127
25941,note_off,54,0,0,,4,,,64,127
25941,note_off,0,0,0,,2,,,74,127
25942,note_on,1,0,0,,0,,,72,127
25942,note_on,0,0,0,,10,,,69,127
26051,note_off,109,0,0,,0,,,72,127
26052,note_on,1,0,0,,4,,,76,127
26161,note_off,109,0,0,,4,,,76,127
26162,note_on,1,0,0,,6,,,78,127
26271,note_off,109,0,0,,6,,,78,127
26272,note_on,1,0,0,,7,,,79,127
26381,note_off,109,0,0,,7,,,79,127
26382,note_on,1,0,0,,10,,,81,127
26491,note_off,109,0,0,,10,,,69,127
26492,note_on,1,0,0,,12,,,71,127
26601,note_off,109,0,0,,12,,,71,127
26601,note_off,0,0,0,,10,,,81,127
26604,note_on,3,0,0,,6,,,78,127
26604,note_on,0,0,0,,1,,,73,127
26713,note_off,109,0,0,,1,,,73,127
26716,note_on,3,0,0,,3,,,75,127
26822,note_off,106,0,0,,6,,,78,127
26824,note_off,2,0,0,,3,,,75,127
26827,note_on,3,0,0,,4,,,76,127
26827,note_on,0,0,0,,7,,,79,127
26936,note_off,109,0,0,,7,,,79,127
26936,note_off,0,0,0,,4,,,76,127
26937,note_on,1,0,0,,3,,,75,127
26937,note_on,0,0,0,,6,,,78,127
27046,note_off,109,0,0,,6,,,78,127
27046,note_off,0,0,0,,3,,,75,127
27047,note_on,1,0,0,,4,,,76,127
27047,note_on,0,0,0,,7,,,79,127
27156,note_off,109,0,0,,7,,,79,127
27156,note_off,0,0,0,,4,,,76,127
27157,note_on,1,0,0,,6,,,78,127
27157,note_on,0,0,0,,10,,,81,127
27266,note_off,109,0,0,,10,,,81,127
27266,note_off,0,0,0,,6,,,78,127
27267,note_on,1,0,0,,7,,,79,127
27267,note_on,0,0,0,,12,,,83,127
27377,note_on,110,0,0,,12,,,71,127
27432,note_off,55,0,0,,7,,,79,127
27486,note_off,54,0,0,,12,,,83,127
27487,note_on,1,0,0,,6,,,78,127
27487,note_on,0,0,0,,10,,,81,127
27542,note_off,55,0,0,,12,,,71,127
27597,note_on,55,0,0,,12,,,71,127
27652,note_off,55,0,0,,6,,,78,127
27706,note_off,54,0,0,,12,,,71,127
27706,note_off,0,0,0,,10,,,81,127
27707,note_on,1,0,0,,4,,,76,127
27707,note_on,0,0,0,,7,,,79,127
27816,note_off,109,0,0,,7,,,79,127
27816,note_off,0,0,0,,4,,,76,127
27817,note_on,1,0,0,,3,,,75,127
27817,note_on,0,0,0,,6,,,78,127
27926,note_off,109,0,0,,6,,,78,127
27926,note_off,0,0,0,,3,,,75,127
27927,note_on,1,0,0,,4,,,76,127
27927,note_on,0,0,0,,7,,,79,127
28036,note_off,109,0,0,,7,,,79,127
28036,note_off,0,0,0,,4,,,76,127
28037,note_on,1,0,0,,6,,,78,127
28037,note_on,0,0,0,,10,,,81,127
28146,note_off,109,0,0,,10,,,81,127
28146,note_off,0,0,0,,6,,,78,127
28147,note_on,1,0,0,,7,,,79,127
28147,note_on,0,0,0,,12,,,83,127
28257,note_on,110,0,0,,12,,,71,127
28312,note_off,55,0,0,,7,,,79,127
28366,note_off,54,0,0,,12,,,83,127
28367,note_on,1,0,0,,6,,,78,127
28367,note_on,0,0,0,,10,,,81,127
28422,note_off,55,0,0,,12,,,71,127
28477,note_on,55,0,0,,12,,,71,127
28532,note_off,55,0,0,,6,,,78,127
28586,note_off,54,0,0,,12,,,71,127
28586,note_off,0,0,0,,10,,,81,127
28587,note_on,1,0,0,,4,,,76,127
28587,note_on,0,0,0,,7,,,79,127
28696,note_off,109,0,0,,7,,,79,127
28696,note_off,0,0,0,,4,,,76,127
28697,note_on,1,0,0,,3,,,75,127
28697,note_on,0,0,0,,6,,,78,127
28806,note_off,109,0,0,,6,,,78,127
28806,note_off,0,0,0,,3,,,75,127
28807,note_on,1,0,0,,4,,,76,127
28807,note_on,0,0,0,,7,,,79,127
28916,note_off,109,0,0,,7,,,79,127
28916,note_off,0,0,0,,4,,,76,127
28917,note_on,1,0,0,,6,,,78,127
28917,note_on,0,0,0,,10,,,81,127
29026,note_off,109,0,0,,10,,,81,127
29026,note_off,0,0,0,,6,,,78,127
29027,note_on,1,0,0,,7,,,79,127
29027,note_on,0,0,0,,12,,,83,127
29137,note_on,110,0,0,,12,,,71,127
29192,note_off,55,0,0,,7,,,79,127
29246,note_off,54,0,0,,12,,,83,127
29247,note_on,1,0,0,,6,,,78,127
29247,note_on,0,0,0,,10,,,81,127
29302,note_off,55,0,0,,12,,,71,127
29357,note_on,55,0,0,,12,,,71,127
29412,note_off,55,0,0,,6,,,78,127
29466,note_off,54,0,0,,12,,,71,127
29466,note_off,0,0,0,,10,,,81,127
29467,note_on,1,0,0,,4,,,76,127
29467,note_on,0,0,0,,7,,,79,127
29576,note_off,109,0,0,,7,,,79,127
29577,note_on,1,0,0,,0,,,84,127
29686,note_off,109,0,0,,4,,,76,127
29687,note_on,1,0,0,,2,,,74,127
29687,note_on,0,0,0,,6,,,78,127
29742,note_off,55,0,0,,0,,,84,127
29796,note_off,54,0,0,,6,,,78,127
29797,note_on,1,0,0,,12,,,83,127
29906,note_off,109,0,0,,2,,,74,127
29907,note_on,1,0,0,,0,,,72,127
29907,note_on,0,0,0,,4,,,76,127
29962,note_off,55,0,0,,12,,,83,127
30016,note_off,54,0,0,,4,,,76,127
30017,note_on,1,0,0,,10,,,81,127
30126,note_off,109,0,0,,0,,,72,127
30127,note_on,1,0,0,,12,,,71,127
30127,note_on,0,0,0,,2,,,74,127
30182,note_off,55,0,0,,10,,,81,127
30236,note_off,54,0,0,,2,,,74,127
30237,note_on,1,0,0,,7,,,79,127
30346,note_off,109,0,0,,12,,,71,127
30347,note_on,1,0,0,,10,,,69,127
30347,note_on,0,0,0,,0,,,72,127
30402,note_off,55,0,0,,7,,,79,127
30456,note_off,54,0,0,,0,,,72,127
30457,note_on,1,0,0,,6,,,78,127
30566,note_off,109,0,0,,10,,,69,127
30567,note_on,1,0,0,,7,,,67,127
30567,note_on,0,0,0,,12,,,71,127
30622,note_off,55,0,0,,6,,,78,127
30676,note_off,54,0,0,,12,,,71,127
30677,note_on,1,0,0,,4,,,76,127
30786,note_off,109,0,0,,7,,,67,127
30787,note_on,1,0,0,,6,,,66,127
30787,note_on,0,0,0,,10,,,69,127
30842,note_off,55,0,0,,4,,,76,127
30896,note_off,54,0,0,,10,,,69,127
30897,note_on,1,0,0,,2,,,74,127
31006,note_off,109,0,0,,6,,,66,127
31007,note_on,1,0,0,,4,,,64,127
31007,note_on,0,0,0,,7,,,67,127
31062,note_off,55,0,0,,2,,,74,127
31116,note_off,54,0,0,,7,,,67,127
31117,note_on,1,0,0,,0,,,72,127
31226,note_off,109,0,0,,4,,,64,127
31227,note_on,1,0,0,,2,,,62,127
31227,note_on,0,0,0,,6,,,66,127
31282,note_off,55,0,0,,0,,,72,127
31336,note_off,54,0,0,,6,,,66,127
31337,note_on,1,0,0,,12,,,71,127
31446,note_off,109,0,0,,2,,,62,127
31447,note_on,1,0,0,,0,,,60,127
31447,note_on,0,0,0,,4,,,64,127
31502,note_off,55,0,0,,12,,,71,127
31556,note_off,54,0,0,,4,,,64,127
31557,note_on,1,0,0,,10,,,69,127
31666,note_off,109,0,0,,0,,,60,127
31667,note_on,1,0,0,,12,,,59,127
31667,note_on,0,0,0,,2,,,62,127
31722,note_off,55,0,0,,10,,,69,127
31776,note_off,54,0,0,,2,,,62,127
31777,note_on,1,0,0,,7,,,67,127
31886,note_off,109,0,0,,12,,,59,127
31887,note_on,1,0,0,,10,,,57,127
31887,note_on,0,0,0,,0,,,60,127
31942,note_off,55,0,0,,7,,,67,127
31996,note_off,54,0,0,,0,,,60,127
31997,note_on,1,0,0,,6,,,66,127
32106,note_off,109,0,0,,10,,,57,127
32107,note_on,1,0,0,,7,,,55,127
32107,note_on,0,0,0,,12,,,59,127
32162,note_off,55,0,0,,6,,,66,127
32216,note_off,54,0,0,,12,,,59,127
32217,note_on,1,0,0,,4,,,64,127
32326,note_off,109,0,0,,7,,,55,127
32327,note_on,1,0,0,,6,,,54,127
32327,note_on,0,0,0,,10,,,57,127
32382,note_off,55,0,0,,4,,,64,127
32436,note_off,54,0,0,,10,,,57,127
32437,note_on,1,0,0,,2,,,62,127
32546,note_off,109,0,0,,6,,,54,127
32547,note_on,1,0,0,,4,,,52,127
32547,note_on,0,0,0,,7,,,55,127
32602,note_off,55,0,0,,2,,,62,127
32656,note_off,54,0,0,,7,,,55,127
32657,note_on,1,0,0,,0,,,60,127
32766,note_off,109,0,0,,4,,,52,127
32767,note_on,1,0,0,,2,,,50,127
32767,note_on,0,0,0,,6,,,54,127
32822,note_off,55,0,0,,0,,,60,127
32876,note_off,54,0,0,,6,,,54,127
32877,note_on,1,0,0,,12,,,59,127
32986,note_off,109,0,0,,2,,,50,127
32987,note_on,1,0,0,,0,,,48,127
32987,note_on,0,0,0,,4,,,52,127
33042,note_off,55,0,0,,12,,,59,127
33096,note_off,54,0,0,,4,,,52,127
33097,note_on,1,0,0,,10,,,57,127
33206,note_off,109,0,0,,10,,,57,127
33206,note_off,0,0,0,,0,,,48,127
33207,note_on,1,0,0,,10,,,45,127
33207,note_on,0,0,0,,7,,,55,127
33316,note_off,109,0,0,,7,,,55,127
33317,note_on,1,0,0,,6,,,54,127
33426,note_off,109,0,0,,6,,,54,127
33426,note_off,0,0,0,,10,,,45,127
33427,note_on,1,0,0,,12,,,47,127
33427,note_on,0,0,0,,7,,,55,127
33537,note_on,110,0,0,,4,,,64,127
33644,note_off,107,0,0,,7,,,55,127
33645,note_off,1,0,0,,12,,,47,127
33646,note_on,1,0,0,,12,,,47,127
33646,note_on,0,0,0,,6,,,54,127
33753,note_off,107,0,0,,4,,,64,127
33755,note_on,2,0,0,,3,,,63,127
33862,note_off,107,0,0,,6,,,54,127
33863,note_off,1,0,0,,3,,,63,127
33863,note_off,0,0,0,,12,,,47,127
33882,note_on,19,0,0,,4,,,52,127
33882,note_on,0,0,0,,4,,,40,127
33991,note_off,109,0,0,,4,,,52,127
33992,note_on,1,0,0,,6,,,54,127
34101,note_off,109,0,0,,6,,,54,127
34101,note_off,0,0,0,,4,,,40,127
34102,note_on,1,0,0,,7,,,55,127
34102,note_on,0,0,0,,4,,,52,127
34211,note_off,109,0,0,,7,,,55,127
34212,note_on,1,0,0,,10,,,57,127
34321,note_off,109,0,0,,10,,,57,127
34322,note_on,1,0,0,,7,,,55,127
34432,note_on,110,0,0,,4,,,64,127
34487,note_off,55,0,0,,7,,,55,127
34541,note_off,54,0,0,,4,,,52,127
34542,note_on,1,0,0,,6,,,54,127
34542,note_on,0,0,0,,12,,,47,127
34597,note_off,55,0,0,,4,,,64,127
34652,note_on,55,0,0,,3,,,63,127
34707,note_off,55,0,0,,6,,,54,127
34761,note_off,54,0,0,,3,,,63,127
34761,note_off,0,0,0,,12,,,47,127
34767,note_on,6,0,0,,4,,,40,127
34767,note_on,0,0,0,,4,,,52,127
34876,note_off,109,0,0,,4,,,52,127
34877,note_on,1,0,0,,6,,,54,127
34986,note_off,109,0,0,,6,,,54,127
34986,note_off,0,0,0,,4,,,40,127
34987,note_on,1,0,0,,4,,,52,127
34987,note_on,0,0,0,,7,,,55,127
35096,note_off,109,0,0,,7,,,55,127
35097,note_on,1,0,0,,10,,,57,127
35206,note_off,109,0,0,,10,,,57,127
35207,note_on,1,0,0,,7,,,55,127
35317,note_on,110,0,0,,4,,,64,127
35344,note_off,27,0,0,,7,,,55,127
35425,note_off,81,0,0,,4,,,52,127
35426,note_on,1,0,0,,12,,,47,127
35426,note_on,0,0,0,,6,,,54,127
35453,note_off,27,0,0,,4,,,64,127
35534,note_off,81,0,0,,6,,,54,127
35535,note_on,1,0,0,,3,,,63,127
35644,note_off,109,0,0,,3,,,63,127
35644,note_off,0,0,0,,12,,,47,127
35645,note_on,1,0,0,,4,,,40,127
35645,note_on,0,0,0,,4,,,64,127
35754,note_off,109,0,0,,4,,,64,127
35755,note_on,1,0,0,,6,,,66,127
35864,note_off,109,0,0,,6,,,66,127
35864,note_off,0,0,0,,4,,,40,127
35865,note_on,1,0,0,,4,,,52,127
35865,note_on,0,0,0,,7,,,67,127
35974,note_off,109,0,0,,7,,,67,127
35975,note_on,1,0,0,,10,,,69,127
36084,note_off,109,0,0,,10,,,69,127
36085,note_on,1,0,0,,7,,,67,127
36195,note_off,110,0,0,,4,,,52,127
36195,note_on,0,0,0,,4,,,76,127
36302,note_off,107,0,0,,7,,,67,127
36304,note_on,2,0,0,,12,,,47,127
36304,note_on,0,0,0,,6,,,66,127
36411,note_off,107,0,0,,4,,,76,127
36413,note_on,2,0,0,,3,,,75,127
36520,note_off,107,0,0,,6,,,66,127
36521,note_off,1,0,0,,3,,,75,127
36521,note_off,0,0,0,,12,,,47,127
36527,note_on,6,0,0,,4,,,64,127
36527,note_on,0,0,0,,0,,,48,127
36636,note_off,109,0,0,,4,,,64,127
36637,note_on,1,0,0,,6,,,66,127
36746,note_off,109,0,0,,6,,,66,127
36746,note_off,0,0,0,,0,,,48,127
36747,note_on,1,0,0,,7,,,67,127
36747,note_on,0,0,0,,10,,,45,127
36856,note_off,109,0,0,,7,,,67,127
36857,note_on,1,0,0,,10,,,69,127
36966,note_off,109,0,0,,10,,,69,127
36966,note_off,0,0,0,,10,,,45,127
36967,note_on,1,0,0,,7,,,67,127
37077,note_on,110,0,0,,4,,,76,127
37132,note_off,55,0,0,,7,,,67,127
37187,note_on,55,0,0,,6,,,66,127
37187,note_on,0,0,0,,12,,,47,127
37242,note_off,55,0,0,,4,,,76,127
37297,note_on,55,0,0,,3,,,75,127
37352,note_off,55,0,0,,6,,,66,127
37406,note_off,54,0,0,,3,,,75,127
37406,note_off,0,0,0,,12,,,47,127
37412,note_on,6,0,0,,0,,,48,127
37412,note_on,0,0,0,,4,,,64,127
37521,note_off,109,0,0,,4,,,64,127
37522,note_on,1,0,0,,6,,,66,127
37631,note_off,109,0,0,,6,,,66,127
37631,note_off,0,0,0,,0,,,48,127
37632,note_on,1,0,0,,10,,,45,127
37632,note_on,0,0,0,,7,,,67,127
37741,note_off,109,0,0,,7,,,67,127
37742,note_on,1,0,0,,10,,,69,127
37851,note_off,109,0,0,,10,,,69,127
37851,note_off,0,0,0,,10,,,45,127
37852,note_on,1,0,0,,7,,,67,127
37962,note_on,110,0,0,,4,,,76,127
37989,note_off,27,0,0,,7,,,67,127
38071,note_on,82,0,0,,12,,,47,127
38071,note_on,0,0,0,,6,,,66,127
38098,note_off,27,0,0,,4,,,76,127
38180,note_on,82,0,0,,3,,,75,127
38207,note_off,27,0,0,,6,,,66,127
38288,note_off,81,0,0,,3,,,75,127
38288,note_off,0,0,0,,12,,,47,127
38289,note_on,1,0,0,,0,,,48,127
38289,note_on,0,0,0,,4,,,64,127
38398,note_off,109,0,0,,4,,,64,127
38399,note_on,1,0,0,,6,,,66,127
38508,note_off,109,0,0,,6,,,66,127
38508,note_off,0,0,0,,0,,,48,127
38509,note_on,1,0,0,,10,,,45,127
38509,note_on,0,0,0,,7,,,67,127
38618,note_off,109,0,0,,7,,,67,127
38619,note_on,1,0,0,,10,,,69,127
38728,note_off,109,0,0,,10,,,69,127
38728,note_off,0,0,0,,10,,,45,127
38729,note_on,1,0,0,,12,,,59,127
38729,note_on,0,0,0,,7,,,67,127
38838,note_off,109,0,0,,7,,,67,127
38839,note_on,1,0,0,,4,,,76,127
38948,note_off,109,0,0,,4,,,76,127
38948,note_off,0,0,0,,12,,,59,127
38949,note_on,1,0,0,,12,,,47,127
38949,note_on,0,0,0,,6,,,66,127
39058,note_off,109,0,0,,6,,,66,127
39059,note_on,1,0,0,,3,,,75,127
39168,note_off,109,0,0,,3,,,75,127
39168,note_off,0,0,0,,12,,,47,127
39174,note_on,6,0,0,,4,,,64,127
39174,note_on,0,0,0,,0,,,60,127
39283,note_off,109,0,0,,4,,,64,127
39284,note_on,1,0,0,,0,,,72,127
39393,note_off,109,0,0,,0,,,72,127
39393,note_off,0,0,0,,0,,,60,127
39394,note_on,1,0,0,,2,,,62,127
39394,note_on,0,0,0,,7,,,55,127
39503,note_off,109,0,0,,2,,,62,127
39504,note_on,1,0,0,,12,,,71,127
39613,note_off,109,0,0,,12,,,71,127
39613,note_off,0,0,0,,7,,,55,127
39614,note_on,1,0,0,,0,,,60,127
39614,note_on,0,0,0,,10,,,57,127
39723,note_off,109,0,0,,0,,,60,127
39724,note_on,1,0,0,,10,,,69,127
39833,note_off,109,0,0,,10,,,69,127
39833,note_off,0,0,0,,10,,,57,127
39834,note_on,1,0,0,,12,,,59,127
39834,note_on,0,0,0,,4,,,52,127
39943,note_off,109,0,0,,12,,,59,127
39944,note_on,1,0,0,,7,,,67,127
40053,note_off,109,0,0,,7,,,67,127
40053,note_off,0,0,0,,4,,,52,127
40054,note_on,1,0,0,,6,,,66,127
40054,note_on,0,0,0,,10,,,45,127
40163,note_off,109,0,0,,6,,,66,127
40164,note_on,1,0,0,,3,,,63,127
40273,note_off,109,0,0,,3,,,63,127
40274,note_on,1,0,0,,4,,,64,127
40274,note_on,0,0,0,,10,,,57,127
40383,note_off,109,0,0,,4,,,64,127
40384,note_on,1,0,0,,6,,,66,127
40493,note_off,109,0,0,,6,,,66,127
40493,note_off,0,0,0,,10,,,57,127
40493,note_off,0,0,0,,10,,,45,127
40494,note_on,1,0,0,,12,,,59,127
40494,note_on,0,0,0,,7,,,55,127
40494,note_on,0,0,0,,12,,,47,127
40603,note_off,109,0,0,,12,,,59,127
40604,note_on,1,0,0,,4,,,64,127
40713,note_off,109,0,0,,4,,,64,127
40713,note_off,0,0,0,,7,,,55,127
40714,note_on,1,0,0,,10,,,57,127
40714,note_on,0,0,0,,6,,,54,127
40823,note_off,109,0,0,,10,,,57,127
40824,note_on,1,0,0,,3,,,63,127
40915,note_off,91,0,0,,3,,,63,127
40932,note_off,17,0,0,,6,,,54,127
40932,note_off,0,0,0,,12,,,47,127
40933,note_on,1,0,0,,4,,,40,127
40933,note_on,0,0,0,,4,,,52,127
41050,note_on,117,0,0,,12,,,71,127
41159,note_off,109,0,0,,12,,,71,127
41160,note_on,1,0,0,,1,,,73,127
41269,note_off,109,0,0,,1,,,73,127
41270,note_on,1,0,0,,3,,,75,127
41379,note_off,109,0,0,,3,,,75,127
41380,note_on,1,0,0,,4,,,76,127
41482,note_off,102,0,0,,4,,,52,127
41482,note_off,0,0,0,,4,,,40,127
41490,note_on,8,0,0,,12,,,71,127
41599,note_off,109,0,0,,12,,,71,127
41599,note_off,0,0,0,,4,,,76,127
41600,note_on,1,0,0,,1,,,73,127
41600,note_on,0,0,0,,6,,,78,127
41709,note_off,109,0,0,,1,,,73,127
41710,note_on,1,0,0,,3,,,75,127
41819,note_off,109,0,0,,3,,,75,127
41819,note_off,0,0,0,,6,,,78,127
41820,note_on,1,0,0,,4,,,76,127
41820,note_on,0,0,0,,8,,,80,127
41929,note_off,109,0,0,,8,,,80,127
41930,note_on,1,0,0,,12,,,59,127
42039,note_off,109,0,0,,12,,,59,127
42040,note_on,1,0,0,,1,,,61,127
42149,note_off,109,0,0,,1,,,61,127
42150,note_on,1,0,0,,3,,,63,127
42259,note_off,109,0,0,,3,,,63,127
42260,note_on,1,0,0,,4,,,64,127
42369,note_off,109,0,0,,4,,,76,127
42370,note_on,1,0,0,,12,,,59,127
42479,note_off,109,0,0,,12,,,59,127
42479,note_off,0,0,0,,4,,,64,127
42480,note_on,1,0,0,,1,,,61,127
42480,note_on,0,0,0,,6,,,66,127
42589,note_off,109,0,0,,1,,,61,127
42590,note_on,1,0,0,,3,,,63,127
42699,note_off,109,0,0,,3,,,63,127
42699,note_off,0,0,0,,6,,,66,127
42700,note_on,1,0,0,,4,,,64,127
42700,note_on,0,0,0,,8,,,68,127
42809,note_off,109,0,0,,8,,,68,127
42810,note_on,1,0,0,,12,,,47,127
42919,note_off,109,0,0,,12,,,47,127
42920,note_on,1,0,0,,1,,,49,127
43029,note_off,109,0,0,,1,,,49,127
43030,note_on,1,0,0,,3,,,51,127
43139,note_off,109,0,0,,3,,,51,127
43140,note_on,1,0,0,,4,,,52,127
43249,note_off,109,0,0,,4,,,64,127
43250,note_on,1,0,0,,12,,,47,127
43359,note_off,109,0,0,,12,,,47,127
43359,note_off,0,0,0,,4,,,52,127
43360,note_on,1,0,0,,1,,,49,127
43360,note_on,0,0,0,,6,,,54,127
43469,note_off,109,0,0,,1,,,49,127
43470,note_on,1,0,0,,3,,,51,127
43579,note_off,109,0,0,,3,,,51,127
43579,note_off,0,0,0,,6,,,54,127
43580,note_on,1,0,0,,4,,,52,127
43580,note_on,0,0,0,,8,,,56,127
43689,note_off,109,0,0,,8,,,56,127
43689,note_off,0,0,0,,4,,,52,127
43690,note_on,1,0,0,,4,,,52,127
43799,note_off,109,0,0,,4,,,52,127
43800,note_on,1,0,0,,10,,,45,127
43800,note_on,0,0,0,,10,,,57,127
43909,note_off,109,0,0,,10,,,57,127
43910,note_on,1,0,0,,6,,,54,127
44019,note_off,109,0,0,,6,,,54,127
44019,note_off,0,0,0,,10,,,45,127
44020,note_on,1,0,0,,12,,,47,127
44020,note_on,0,0,0,,8,,,56,127
44129,note_off,109,0,0,,8,,,56,127
44130,note_on,1,0,0,,4,,,52,127
44239,note_off,109,0,0,,4,,,52,127
44239,note_off,0,0,0,,12,,,47,127
44240,note_on,1,0,0,,12,,,47,127
44240,note_on,0,0,0,,6,,,54,127
44349,note_off,109,0,0,,6,,,54,127
44350,note_on,1,0,0,,3,,,51,127
44459,note_off,109,0,0,,3,,,51,127
44459,note_off,0,0,0,,12,,,47,127
44460,note_on,1,0,0,,4,,,40,127
44460,note_on,0,0,0,,8,,,56,127
44460,note_on,0,0,0,,4,,,52,127
44898,note_off,438,0,0,,4,,,40,127
45008,note_off,110,0,0,,4,,,52,127
45008,note_off,0,0,0,,8,,,56,127
45073,note_on,65,0,0,,12,,,71,127
45182,note_off,109,0,0,,12,,,71,127
45183,note_on,1,0,0,,1,,,73,127
45292,note_off,109,0,0,,1,,,73,127
45293,note_on,1,0,0,,3,,,75,127
45402,note_off,109,0,0,,3,,,75,127
45403,note_on,1,0,0,,4,,,76,127
45512,note_off,109,0,0,,4,,,76,127
45513,note_on,1,0,0,,4,,,76,127
45623,note_on,110,0,0,,12,,,71,127
45662,note_off,39,0,0,,4,,,76,127
45732,note_off,70,0,0,,12,,,71,127
45733,note_on,1,0,0,,12,,,71,127
45843,note_on,110,0,0,,8,,,68,127
45882,note_off,39,0,0,,12,,,71,127
45952,note_off,70,0,0,,8,,,68,127
45953,note_on,1,0,0,,8,,,68,127
46063,note_on,110,0,0,,4,,,64,127
46102,note_off,39,0,0,,8,,,68,127
46172,note_off,70,0,0,,4,,,64,127
46173,note_on,1,0,0,,4,,,64,127
46283,note_on,110,0,0,,12,,,59,127
46322,note_off,39,0,0,,4,,,64,127
46392,note_off,70,0,0,,12,,,59,127
46393,note_on,1,0,0,,12,,,59,127
46503,note_on,110,0,0,,8,,,56,127
46542,note_off,39,0,0,,12,,,59,127
46612,note_off,70,0,0,,8,,,56,127
46613,note_on,1,0,0,,8,,,56,127
46723,note_on,110,0,0,,4,,,52,127
46762,note_off,39,0,0,,8,,,56,127
46832,note_off,70,0,0,,4,,,52,127
46833,note_on,1,0,0,,4,,,52,127
46943,note_on,110,0,0,,12,,,47,127
46982,note_off,39,0,0,,4,,,52,127
47052,note_off,70,0,0,,12,,,47,127
47053,note_on,1,0,0,,12,,,47,127
47163,note_on,110,0,0,,4,,,40,127
47202,note_off,39,0,0,,12,,,47,127
47383,note_on,181,0,0,,4,,,52,127
47601,note_off,218,0,0,,4,,,52,127
47602,note_on,1,0,0,,4,,,52,127
47712,note_off,110,0,0,,4,,,40,127
47829,note_on,117,0,0,,8,,,68,127
48047,note_off,218,0,0,,8,,,68,127
48055,note_on,8,0,0,,2,,,62,127
48164,note_off,109,0,0,,2,,,62,127
48165,note_on,1,0,0,,4,,,64,127
48260,note_off,95,0,0,,4,,,52,127
48274,note_off,14,0,0,,4,,,64,127
48275,note_on,1,0,0,,6,,,66,127
48384,note_off,109,0,0,,6,,,66,127
48385,note_on,1,0,0,,4,,,64,127
48494,note_off,109,0,0,,4,,,64,127
48495,note_on,1,0,0,,2,,,62,127
48605,note_on,110,0,0,,12,,,71,127
48632,note_off,27,0,0,,2,,,62,127
48714,note_on,82,0,0,,10,,,57,127
48714,note_on,0,0,0,,4,,,52,127
48714,note_on,0,0,0,,1,,,61,127
48741,note_off,27,0,0,,12,,,71,127
48823,note_on,82,0,0,,10,,,69,127
48850,note_off,27,0,0,,1,,,61,127
48931,note_off,81,0,0,,10,,,69,127
48931,note_off,0,0,0,,4,,,52,127
48931,note_off,0,0,0,,10,,,57,127
48932,note_on,1,0,0,,4,,,52,127
48932,note_on,0,0,0,,12,,,59,127
48932,note_on,0,0,0,,2,,,62,127
49041,note_off,109,0,0,,2,,,62,127
49042,note_on,1,0,0,,4,,,64,127
49151,note_off,109,0,0,,4,,,64,127
49152,note_on,1,0,0,,6,,,66,127
49261,note_off,109,0,0,,6,,,66,127
49262,note_on,1,0,0,,4,,,64,127
49371,note_off,109,0,0,,4,,,64,127
49372,note_on,1,0,0,,2,,,62,127
49482,note_on,110,0,0,,12,,,71,127
49498,note_off,16,0,0,,2,,,62,127
49591,note_off,93,0,0,,12,,,59,127
49591,note_off,0,0,0,,4,,,52,127
49592,note_on,1,0,0,,10,,,57,127
49592,note_on,0,0,0,,4,,,52,127
49592,note_on,0,0,0,,1,,,61,127
49608,note_off,16,0,0,,12,,,71,127
49702,note_on,94,0,0,,10,,,69,127
49718,note_off,16,0,0,,1,,,61,127
49811,note_off,93,0,0,,4,,,52,127
49811,note_off,0,0,0,,10,,,57,127
49812,note_on,1,0,0,,12,,,59,127
49812,note_on,0,0,0,,4,,,52,127
49812,note_on,0,0,0,,2,,,62,127
49828,note_off,16,0,0,,10,,,69,127
49922,note_on,94,0,0,,12,,,71,127
49938,note_off,16,0,0,,2,,,62,127
50031,note_off,93,0,0,,12,,,59,127
50032,note_on,1,0,0,,10,,,57,127
50032,note_on,0,0,0,,1,,,61,127
50048,note_off,16,0,0,,12,,,71,127
50142,note_on,94,0,0,,10,,,69,127
50158,note_off,16,0,0,,1,,,61,127
50251,note_off,93,0,0,,10,,,57,127
50252,note_on,1,0,0,,12,,,59,127
50252,note_on,0,0,0,,2,,,62,127
50268,note_off,16,0,0,,10,,,69,127
50362,note_on,94,0,0,,12,,,71,127
50378,note_off,16,0,0,,2,,,62,127
50471,note_off,93,0,0,,12,,,59,127
50471,note_off,0,0,0,,4,,,52,127
50472,note_on,1,0,0,,4,,,52,127
50472,note_on,0,0,0,,8,,,56,127
50472,note_on,0,0,0,,12,,,59,127
50527,note_off,55,0,0,,12,,,71,127
50582,note_on,55,0,0,,2,,,62,127
50598,note_off,16,0,0,,12,,,59,127
50691,note_off,93,0,0,,2,,,62,127
50691,note_off,0,0,0,,8,,,56,127
50691,note_off,0,0,0,,4,,,52,127
50692,note_on,1,0,0,,10,,,45,127
50692,note_on,0,0,0,,10,,,57,127
50692,note_on,0,0,0,,1,,,61,127
50801,note_off,109,0,0,,1,,,61,127
50802,note_on,1,0,0,,4,,,64,127
50911,note_off,109,0,0,,4,,,64,127
50912,note_on,1,0,0,,6,,,66,127
51021,note_off,109,0,0,,6,,,66,127
51022,note_on,1,0,0,,8,,,68,127
51131,note_off,109,0,0,,8,,,68,127
51132,note_on,1,0,0,,10,,,69,127
51241,note_off,109,0,0,,10,,,57,127
51241,note_off,0,0,0,,10,,,45,127
51242,note_on,1,0,0,,4,,,64,127
51351,note_off,109,0,0,,4,,,64,127
51351,note_off,0,0,0,,10,,,69,127
51352,note_on,1,0,0,,6,,,66,127
51352,note_on,0,0,0,,12,,,71,127
51461,note_off,109,0,0,,6,,,66,127
51462,note_on,1,0,0,,8,,,68,127
51571,note_off,109,0,0,,8,,,68,127
51571,note_off,0,0,0,,12,,,71,127
51572,note_on,1,0,0,,10,,,69,127
51572,note_on,0,0,0,,1,,,73,127
51681,note_off,109,0,0,,1,,,73,127
51682,note_on,1,0,0,,4,,,76,127
51791,note_off,109,0,0,,4,,,76,127
51792,note_on,1,0,0,,6,,,78,127
51901,note_off,109,0,0,,6,,,78,127
51902,note_on,1,0,0,,8,,,80,127
52011,note_off,109,0,0,,8,,,80,127
52012,note_on,1,0,0,,10,,,81,127
52121,note_off,109,0,0,,10,,,69,127
52122,note_on,1,0,0,,4,,,76,127
52231,note_off,109,0,0,,4,,,76,127
52232,note_on,1,0,0,,6,,,78,127
52341,note_off,109,0,0,,6,,,78,127
52342,note_on,1,0,0,,8,,,80,127
52451,note_off,109,0,0,,8,,,80,127
52451,note_off,0,0,0,,10,,,81,127
52452,note_on,1,0,0,,10,,,81,127
52561,note_off,109,0,0,,10,,,81,127
52562,note_on,1,0,0,,10,,,81,127
52672,note_on,110,0,0,,4,,,76,127
52711,note_off,39,0,0,,10,,,81,127
52781,note_off,70,0,0,,4,,,76,127
52782,note_on,1,0,0,,4,,,76,127
52892,note_on,110,0,0,,1,,,73,127
52931,note_off,39,0,0,,4,,,76,127
53001,note_off,70,0,0,,1,,,73,127
53002,note_on,1,0,0,,1,,,73,127
53112,note_on,110,0,0,,10,,,69,127
53151,note_off,39,0,0,,1,,,73,127
53221,note_off,70,0,0,,10,,,69,127
53222,note_on,1,0,0,,10,,,69,127
53332,note_on,110,0,0,,4,,,64,127
53371,note_off,39,0,0,,10,,,69,127
53441,note_off,70,0,0,,4,,,64,127
53442,note_on,1,0,0,,4,,,64,127
53552,note_on,110,0,0,,1,,,61,127
53591,note_off,39,0,0,,4,,,64,127
53661,note_off,70,0,0,,1,,,61,127
53662,note_on,1,0,0,,1,,,61,127
53772,note_on,110,0,0,,10,,,57,127
53811,note_off,39,0,0,,1,,,61,127
53881,note_off,70,0,0,,10,,,57,127
53882,note_on,1,0,0,,10,,,57,127
53992,note_on,110,0,0,,4,,,52,127
54031,note_off,39,0,0,,10,,,57,127
54101,note_off,70,0,0,,4,,,52,127
54102,note_on,1,0,0,,4,,,52,127
54212,note_on,110,0,0,,10,,,45,127
54251,note_off,39,0,0,,4,,,52,127
54432,note_on,181,0,0,,10,,,57,127
54650,note_off,218,0,0,,10,,,57,127
54651,note_on,1,0,0,,10,,,57,127
54761,note_off,110,0,0,,10,,,45,127
54880,note_on,119,0,0,,10,,,69,127
55098,note_off,218,0,0,,10,,,69,127
55108,note_on,10,0,0,,7,,,67,127
55217,note_off,109,0,0,,7,,,67,127
55218,note_on,1,0,0,,10,,,69,127
55308,note_off,90,0,0,,10,,,57,127
55326,note_off,18,0,0,,10,,,69,127
55327,note_on,1,0,0,,12,,,71,127
55436,note_off,109,0,0,,12,,,71,127
55437,note_on,1,0,0,,10,,,69,127
55546,note_off,109,0,0,,10,,,69,127
55547,note_on,1,0,0,,7,,,67,127
55657,note_on,110,0,0,,4,,,76,127
55684,note_off,27,0,0,,7,,,67,127
55766,note_on,82,0,0,,6,,,66,127
55766,note_on,0,0,0,,10,,,57,127
55766,note_on,0,0,0,,2,,,62,127
55793,note_off,27,0,0,,4,,,76,127
55875,note_on,82,0,0,,2,,,74,127
55902,note_off,27,0,0,,6,,,66,127
55983,note_off,81,0,0,,2,,,74,127
55983,note_off,0,0,0,,2,,,62,127
55983,note_off,0,0,0,,10,,,57,127
55984,note_on,1,0,0,,7,,,67,127
55984,note_on,0,0,0,,10,,,57,127
55984,note_on,0,0,0,,4,,,64,127
56093,note_off,109,0,0,,7,,,67,127
56094,note_on,1,0,0,,10,,,69,127
56203,note_off,109,0,0,,10,,,69,127
56204,note_on,1,0,0,,12,,,71,127
56313,note_off,109,0,0,,12,,,71,127
56314,note_on,1,0,0,,10,,,69,127
56423,note_off,109,0,0,,10,,,69,127
56424,note_on,1,0,0,,7,,,67,127
56534,note_on,110,0,0,,4,,,76,127
56550,note_off,16,0,0,,7,,,67,127
56643,note_off,93,0,0,,4,,,64,127
56643,note_off,0,0,0,,10,,,57,127
56644,note_on,1,0,0,,6,,,66,127
56644,note_on,0,0,0,,2,,,62,127
56644,note_on,0,0,0,,10,,,57,127
56660,note_off,16,0,0,,4,,,76,127
56754,note_on,94,0,0,,2,,,74,127
56770,note_off,16,0,0,,6,,,66,127
56863,note_off,93,0,0,,10,,,57,127
56863,note_off,0,0,0,,2,,,62,127
56864,note_on,1,0,0,,7,,,67,127
56864,note_on,0,0,0,,10,,,57,127
56864,note_on,0,0,0,,4,,,64,127
56880,note_off,16,0,0,,2,,,74,127
56974,note_on,94,0,0,,4,,,76,127
56990,note_off,16,0,0,,7,,,67,127
57083,note_off,93,0,0,,4,,,64,127
57084,note_on,1,0,0,,6,,,66,127
57084,note_on,0,0,0,,2,,,62,127
57100,note_off,16,0,0,,4,,,76,127
57194,note_on,94,0,0,,2,,,74,127
57210,note_off,16,0,0,,6,,,66,127
57303,note_off,93,0,0,,2,,,62,127
57303,note_off,0,0,0,,10,,,57,127
57304,note_on,1,0,0,,7,,,67,127
57304,note_on,0,0,0,,4,,,64,127
57320,note_off,16,0,0,,2,,,74,127
57414,note_on,94,0,0,,4,,,76,127
57430,note_off,16,0,0,,7,,,67,127
57523,note_off,93,0,0,,4,,,64,127
57524,note_on,1,0,0,,4,,,64,127
57524,note_on,0,0,0,,1,,,61,127
57524,note_on,0,0,0,,10,,,57,127
57579,note_off,55,0,0,,4,,,76,127
57634,note_on,55,0,0,,7,,,67,127
57650,note_off,16,0,0,,4,,,64,127
57743,note_off,93,0,0,,7,,,67,127
57743,note_off,0,0,0,,10,,,57,127
57743,note_off,0,0,0,,1,,,61,127
57744,note_on,1,0,0,,6,,,66,127
57744,note_on,0,0,0,,2,,,50,127
57744,note_on,0,0,0,,2,,,62,127
57853,note_off,109,0,0,,6,,,66,127
57854,note_on,1,0,0,,10,,,57,127
57963,note_off,109,0,0,,10,,,57,127
57964,note_on,1,0,0,,12,,,59,127
58073,note_off,109,0,0,,12,,,59,127
58074,note_on,1,0,0,,1,,,61,127
58183,note_off,109,0,0,,1,,,61,127
58183,note_off,0,0,0,,2,,,62,127
58184,note_on,1,0,0,,2,,,62,127
58293,note_off,109,0,0,,2,,,50,127
58294,note_on,1,0,0,,10,,,57,127
58403,note_off,109,0,0,,10,,,57,127
58403,note_off,0,0,0,,2,,,62,127
58404,note_on,1,0,0,,4,,,64,127
58404,note_on,0,0,0,,12,,,59,127
58513,note_off,109,0,0,,12,,,59,127
58514,note_on,1,0,0,,1,,,61,127
58623,note_off,109,0,0,,1,,,61,127
58623,note_off,0,0,0,,4,,,64,127
58624,note_on,1,0,0,,6,,,66,127
58624,note_on,0,0,0,,2,,,62,127
58733,note_off,109,0,0,,6,,,66,127
58734,note_on,1,0,0,,10,,,69,127
58843,note_off,109,0,0,,10,,,69,127
58844,note_on,1,0,0,,12,,,71,127
58953,note_off,109,0,0,,12,,,71,127
58954,note_on,1,0,0,,1,,,73,127
59063,note_off,109,0,0,,1,,,73,127
59064,note_on,1,0,0,,2,,,74,127
59173,note_off,109,0,0,,2,,,62,127
59174,note_on,1,0,0,,10,,,69,127
59283,note_off,109,0,0,,10,,,69,127
59283,note_off,0,0,0,,2,,,74,127
59284,note_on,1,0,0,,4,,,76,127
59284,note_on,0,0,0,,12,,,71,127
59393,note_off,109,0,0,,12,,,71,127
59394,note_on,1,0,0,,1,,,73,127
59503,note_off,109,0,0,,1,,,73,127
59503,note_off,0,0,0,,4,,,76,127
59504,note_on,1,0,0,,6,,,78,127
59504,note_on,0,0,0,,2,,,74,127
59613,note_off,109,0,0,,6,,,78,127
59621,note_on,8,0,0,,12,,,83,127
59723,note_off,102,0,0,,2,,,74,127
59731,note_on,8,0,0,,1,,,73,127
59731,note_on,0,0,0,,4,,,76,127
59786,note_off,55,0,0,,12,,,83,127
59840,note_off,54,0,0,,4,,,76,127
59841,note_on,1,0,0,,10,,,81,127
59950,note_off,109,0,0,,1,,,73,127
59951,note_on,1,0,0,,12,,,71,127
59951,note_on,0,0,0,,2,,,74,127
60006,note_off,55,0,0,,10,,,81,127
60060,note_off,54,0,0,,2,,,74,127
60061,note_on,1,0,0,,8,,,80,127
60170,note_off,109,0,0,,12,,,71,127
60171,note_on,1,0,0,,10,,,69,127
60171,note_on,0,0,0,,1,,,73,127
60226,note_off,55,0,0,,8,,,80,127
60280,note_off,54,0,0,,1,,,73,127
60281,note_on,1,0,0,,6,,,78,127
60390,note_off,109,0,0,,10,,,69,127
60391,note_on,1,0,0,,8,,,68,127
60391,note_on,0,0,0,,12,,,71,127
60446,note_off,55,0,0,,6,,,78,127
60500,note_off,54,0,0,,12,,,71,127
60501,note_on,1,0,0,,4,,,76,127
60610,note_off,109,0,0,,8,,,68,127
60611,note_on,1,0,0,,6,,,66,127
60611,note_on,0,0,0,,10,,,69,127
60666,note_off,55,0,0,,4,,,76,127
60720,note_off,54,0,0,,10,,,69,127
60721,note_on,1,0,0,,2,,,74,127
60830,note_off,109,0,0,,6,,,66,127
60831,note_on,1,0,0,,4,,,64,127
60831,note_on,0,0,0,,8,,,68,127
60886,note_off,55,0,0,,2,,,74,127
60940,note_off,54,0,0,,8,,,68,127
60941,note_on,1,0,0,,1,,,73,127
61050,note_off,109,0,0,,4,,,64,127
61051,note_on,1,0,0,,2,,,62,127
61051,note_on,0,0,0,,6,,,66,127
61106,note_off,55,0,0,,1,,,73,127
61160,note_off,54,0,0,,6,,,66,127
61161,note_on,1,0,0,,12,,,71,127
61270,note_off,109,0,0,,2,,,62,127
61271,note_on,1,0,0,,1,,,61,127
61271,note_on,0,0,0,,4,,,64,127
61326,note_off,55,0,0,,12,,,71,127
61380,note_off,54,0,0,,4,,,64,127
61381,note_on,1,0,0,,10,,,69,127
61490,note_off,109,0,0,,1,,,61,127
61491,note_on,1,0,0,,12,,,59,127
61491,note_on,0,0,0,,2,,,62,127
61546,note_off,55,0,0,,10,,,69,127
61600,note_off,54,0,0,,2,,,62,127
61601,note_on,1,0,0,,8,,,68,127
61710,note_off,109,0,0,,12,,,59,127
61711,note_on,1,0,0,,10,,,57,127
61711,note_on,0,0,0,,1,,,61,127
61766,note_off,55,0,0,,8,,,68,127
61820,note_off,54,0,0,,1,,,61,127
61821,note_on,1,0,0,,6,,,66,127
61930,note_off,109,0,0,,10,,,57,127
61931,note_on,1,0,0,,8,,,56,127
61931,note_on,0,0,0,,12,,,59,127
61986,note_off,55,0,0,,6,,,66,127
62040,note_off,54,0,0,,12,,,59,127
62041,note_on,1,0,0,,4,,,64,127
62150,note_off,109,0,0,,8,,,56,127
62151,note_on,1,0,0,,6,,,54,127
62151,note_on,0,0,0,,10,,,57,127
62206,note_off,55,0,0,,4,,,64,127
62260,note_off,54,0,0,,10,,,57,127
62261,note_on,1,0,0,,2,,,62,127
62370,note_off,109,0,0,,6,,,54,127
62371,note_on,1,0,0,,4,,,52,127
62371,note_on,0,0,0,,8,,,56,127
62426,note_off,55,0,0,,2,,,62,127
62480,note_off,54,0,0,,8,,,56,127
62481,note_on,1,0,0,,1,,,61,127
62590,note_off,109,0,0,,4,,,52,127
62591,note_on,1,0,0,,2,,,50,127
62591,note_on,0,0,0,,6,,,54,127
62646,note_off,55,0,0,,1,,,61,127
62700,note_off,54,0,0,,6,,,54,127
62701,note_on,1,0,0,,1,,,61,127
62810,note_off,109,0,0,,1,,,61,127
62810,note_off,0,0,0,,2,,,50,127
62811,note_on,1,0,0,,3,,,51,127
62811,note_on,0,0,0,,12,,,59,127
62920,note_off,109,0,0,,12,,,59,127
62921,note_on,1,0,0,,10,,,57,127
63030,note_off,109,0,0,,10,,,57,127
63030,note_off,0,0,0,,3,,,51,127
63031,note_on,1,0,0,,4,,,52,127
63031,note_on,0,0,0,,8,,,56,127
63140,note_off,109,0,0,,8,,,56,127
63148,note_on,8,0,0,,10,,,57,127
63257,note_off,109,0,0,,10,,,57,127
63258,note_on,1,0,0,,12,,,59,127
63367,note_off,109,0,0,,12,,,59,127
63368,note_on,1,0,0,,0,,,60,127
63477,note_off,109,0,0,,0,,,60,127
63478,note_on,1,0,0,,2,,,62,127
63689,note_off,211,0,0,,4,,,52,127
63696,note_off,7,0,0,,2,,,62,127
63697,note_on,1,0,0,,10,,,57,127
63697,note_on,0,0,0,,4,,,52,127
63697,note_on,0,0,0,,0,,,60,127
63915,note_off,218,0,0,,0,,,60,127
63915,note_off,0,0,0,,4,,,52,127
63915,note_off,0,0,0,,10,,,57,127
63916,note_on,1,0,0,,8,,,56,127
63916,note_on,0,0,0,,4,,,52,127
63916,note_on,0,0,0,,12,,,59,127
64025,note_off,109,0,0,,12,,,59,127
64026,note_on,1,0,0,,0,,,60,127
64135,note_off,109,0,0,,0,,,60,127
64136,note_on,1,0,0,,2,,,62,127
64245,note_off,109,0,0,,2,,,62,127
64246,note_on,1,0,0,,4,,,64,127
64355,note_off,109,0,0,,4,,,64,127
64356,note_on,1,0,0,,2,,,62,127
64574,note_off,218,0,0,,2,,,62,127
64574,note_off,0,0,0,,4,,,52,127
64574,note_off,0,0,0,,8,,,56,127
64575,note_on,1,0,0,,10,,,57,127
64575,note_on,0,0,0,,4,,,52,127
64575,note_on,0,0,0,,0,,,60,127
64793,note_off,218,0,0,,0,,,60,127
64793,note_off,0,0,0,,4,,,52,127
64793,note_off,0,0,0,,10,,,57,127
64794,note_on,1,0,0,,8,,,56,127
64794,note_on,0,0,0,,4,,,52,127
64794,note_on,0,0,0,,12,,,59,127
64903,note_off,109,0,0,,12,,,59,127
64904,note_on,1,0,0,,0,,,60,127
65013,note_off,109,0,0,,0,,,60,127
65014,note_on,1,0,0,,2,,,62,127
65123,note_off,109,0,0,,2,,,62,127
65124,note_on,1,0,0,,4,,,64,127
65233,note_off,109,0,0,,4,,,64,127
65234,note_on,1,0,0,,2,,,62,127
65452,note_off,218,0,0,,2,,,62,127
65452,note_off,0,0,0,,4,,,52,127
65452,note_off,0,0,0,,8,,,56,127
65453,note_on,1,0,0,,10,,,57,127
65453,note_on,0,0,0,,4,,,52,127
65453,note_on,0,0,0,,0,,,60,127
65670,note_off,217,0,0,,10,,,57,127
65671,note_off,1,0,0,,0,,,60,127
65672,note_on,1,0,0,,12,,,59,127
65781,note_off,109,0,0,,4,,,52,127
65789,note_on,8,0,0,,4,,,52,127
65891,note_off,102,0,0,,12,,,59,127
65898,note_off,7,0,0,,4,,,52,127
65899,note_on,1,0,0,,12,,,59,127
65899,note_on,0,0,0,,6,,,54,127
66008,note_off,109,0,0,,6,,,54,127
66009,note_on,1,0,0,,8,,,56,127
66118,note_off,109,0,0,,8,,,56,127
66118,note_off,0,0,0,,12,,,59,127
66119,note_on,1,0,0,,1,,,61,127
66119,note_on,0,0,0,,10,,,57,127
66228,note_off,109,0,0,,10,,,57,127
66229,note_on,1,0,0,,4,,,52,127
66338,note_off,109,0,0,,4,,,52,127
66338,note_off,0,0,0,,1,,,61,127
66339,note_on,1,0,0,,2,,,62,127
66339,note_on,0,0,0,,12,,,59,127
66448,note_off,109,0,0,,12,,,59,127
66449,note_on,1,0,0,,4,,,52,127
66558,note_off,109,0,0,,4,,,52,127
66558,note_off,0,0,0,,2,,,62,127
66559,note_on,1,0,0,,4,,,64,127
66559,note_on,0,0,0,,1,,,61,127
66668,note_off,109,0,0,,1,,,61,127
66669,note_on,1,0,0,,10,,,57,127
66778,note_off,109,0,0,,10,,,57,127
66778,note_off,0,0,0,,4,,,64,127
66779,note_on,1,0,0,,4,,,64,127
66779,note_on,0,0,0,,12,,,59,127
66888,note_off,109,0,0,,12,,,59,127
66889,note_on,1,0,0,,1,,,61,127
66998,note_off,109,0,0,,1,,,61,127
66998,note_off,0,0,0,,4,,,64,127
66999,note_on,1,0,0,,6,,,66,127
66999,note_on,0,0,0,,2,,,62,127
67108,note_off,109,0,0,,2,,,62,127
67109,note_on,1,0,0,,10,,,57,127
67218,note_off,109,0,0,,10,,,57,127
67218,note_off,0,0,0,,6,,,66,127
67219,note_on,1,0,0,,8,,,68,127
67219,note_on,0,0,0,,4,,,64,127
67328,note_off,109,0,0,,4,,,64,127
67329,note_on,1,0,0,,10,,,57,127
67438,note_off,109,0,0,,10,,,57,127
67438,note_off,0,0,0,,8,,,68,127
67439,note_on,1,0,0,,10,,,69,127
67439,note_on,0,0,0,,6,,,66,127
67548,note_off,109,0,0,,6,,,66,127
67549,note_on,1,0,0,,2,,,62,127
67658,note_off,109,0,0,,2,,,62,127
67658,note_off,0,0,0,,10,,,69,127
67659,note_on,1,0,0,,12,,,71,127
67659,note_on,0,0,0,,8,,,68,127
67768,note_off,109,0,0,,8,,,68,127
67769,note_on,1,0,0,,4,,,64,127
67878,note_off,109,0,0,,4,,,64,127
67878,note_off,0,0,0,,12,,,71,127
67879,note_on,1,0,0,,1,,,73,127
67879,note_on,0,0,0,,10,,,69,127
67988,note_off,109,0,0,,10,,,69,127
67989,note_on,1,0,0,,6,,,66,127
68098,note_off,109,0,0,,6,,,66,127
68098,note_off,0,0,0,,1,,,73,127
68099,note_on,1,0,0,,2,,,74,127
68099,note_on,0,0,0,,12,,,71,127
68208,note_off,109,0,0,,12,,,71,127
68209,note_on,1,0,0,,8,,,68,127
68318,note_off,109,0,0,,8,,,68,127
68318,note_off,0,0,0,,2,,,74,127
68319,note_on,1,0,0,,4,,,76,127
68319,note_on,0,0,0,,1,,,73,127
68428,note_off,109,0,0,,1,,,73,127
68429,note_on,1,0,0,,10,,,69,127
68538,note_off,109,0,0,,10,,,69,127
68538,note_off,0,0,0,,4,,,76,127
68539,note_on,1,0,0,,6,,,78,127
68539,note_on,0,0,0,,2,,,74,127
68648,note_off,109,0,0,,2,,,74,127
68649,note_on,1,0,0,,12,,,71,127
68758,note_off,109,0,0,,12,,,71,127
68758,note_off,0,0,0,,6,,,78,127
68759,note_on,1,0,0,,8,,,80,127
68759,note_on,0,0,0,,4,,,76,127
68868,note_off,109,0,0,,4,,,76,127
68869,note_on,1,0,0,,1,,,73,127
68978,note_off,109,0,0,,1,,,73,127
68978,note_off,0,0,0,,8,,,80,127
68979,note_on,1,0,0,,10,,,81,127
68979,note_on,0,0,0,,6,,,78,127
69088,note_off,109,0,0,,6,,,78,127
69089,note_on,1,0,0,,2,,,74,127
69198,note_off,109,0,0,,2,,,74,127
69198,note_off,0,0,0,,10,,,81,127
69199,note_on,1,0,0,,12,,,83,127
69199,note_on,0,0,0,,8,,,80,127
69308,note_off,109,0,0,,8,,,80,127
69308,note_off,0,0,0,,12,,,83,127
69316,note_on,8,0,0,,6,,,78,127
69316,note_on,0,0,0,,10,,,81,127
69425,note_off,109,0,0,,10,,,81,127
69425,note_off,0,0,0,,6,,,78,127
69426,note_on,1,0,0,,4,,,76,127
69426,note_on,0,0,0,,8,,,80,127
69535,note_off,109,0,0,,8,,,80,127
69535,note_off,0,0,0,,4,,,76,127
69536,note_on,1,0,0,,2,,,74,127
69536,note_on,0,0,0,,6,,,78,127
69645,note_off,109,0,0,,6,,,78,127
69645,note_off,0,0,0,,2,,,74,127
69646,note_on,1,0,0,,1,,,73,127
69646,note_on,0,0,0,,4,,,76,127
69755,note_off,109,0,0,,4,,,76,127
69755,note_off,0,0,0,,1,,,73,127
69756,note_on,1,0,0,,12,,,71,127
69756,note_on,0,0,0,,2,,,74,127
69865,note_off,109,0,0,,2,,,74,127
69865,note_off,0,0,0,,12,,,71,127
69866,note_on,1,0,0,,10,,,69,127
69866,note_on,0,0,0,,1,,,73,127
69975,note_off,109,0,0,,1,,,73,127
69975,note_off,0,0,0,,10,,,69,127
69976,note_on,1,0,0,,8,,,68,127
69976,note_on,0,0,0,,12,,,71,127
70085,note_off,109,0,0,,12,,,71,127
70085,note_off,0,0,0,,8,,,68,127
70086,note_on,1,0,0,,10,,,69,127
70086,note_on,0,0,0,,1,,,73,127
70196,note_on,110,0,0,,10,,,81,127
70235,note_off,39,0,0,,1,,,73,127
70305,note_off,70,0,0,,10,,,81,127
70305,note_off,0,0,0,,10,,,69,127
70306,note_on,1,0,0,,4,,,64,127
70306,note_on,0,0,0,,12,,,71,127
70416,note_on,110,0,0,,8,,,80,127
70455,note_off,39,0,0,,12,,,71,127
70525,note_off,70,0,0,,8,,,80,127
70525,note_off,0,0,0,,4,,,64,127
70526,note_on,1,0,0,,6,,,66,127
70526,note_on,0,0,0,,10,,,69,127
70636,note_on,110,0,0,,6,,,78,127
70675,note_off,39,0,0,,10,,,69,127
70745,note_off,70,0,0,,6,,,78,127
70745,note_off,0,0,0,,6,,,66,127
70746,note_on,1,0,0,,1,,,61,127
70746,note_on,0,0,0,,8,,,68,127
70856,note_on,110,0,0,,4,,,76,127
70895,note_off,39,0,0,,8,,,68,127
70965,note_off,70,0,0,,4,,,76,127
70965,note_off,0,0,0,,1,,,61,127
70966,note_on,1,0,0,,2,,,62,127
70966,note_on,0,0,0,,6,,,66,127
71076,note_on,110,0,0,,2,,,74,127
71115,note_off,39,0,0,,6,,,66,127
71185,note_off,70,0,0,,2,,,74,127
71185,note_off,0,0,0,,2,,,62,127
71186,note_on,1,0,0,,10,,,57,127
71186,note_on,0,0,0,,4,,,64,127
71296,note_on,110,0,0,,1,,,73,127
71335,note_off,39,0,0,,4,,,64,127
71405,note_off,70,0,0,,1,,,73,127
71405,note_off,0,0,0,,10,,,57,127
71406,note_on,1,0,0,,2,,,50,127
71406,note_on,0,0,0,,2,,,62,127
71516,note_on,110,0,0,,12,,,71,127
71555,note_off,39,0,0,,2,,,62,127
71625,note_off,70,0,0,,12,,,71,127
71625,note_off,0,0,0,,2,,,50,127
71626,note_on,1,0,0,,2,,,50,127
71626,note_on,0,0,0,,1,,,61,127
71736,note_on,110,0,0,,10,,,69,127
71775,note_off,39,0,0,,1,,,61,127
71845,note_off,70,0,0,,10,,,69,127
71845,note_off,0,0,0,,2,,,50,127
71846,note_on,1,0,0,,4,,,52,127
71846,note_on,0,0,0,,12,,,59,127
71956,note_on,110,0,0,,8,,,68,127
72063,note_off,107,0,0,,12,,,59,127
72064,note_off,1,0,0,,8,,,68,127
72064,note_off,0,0,0,,4,,,52,127
72065,note_on,1,0,0,,10,,,45,127
72065,note_on,0,0,0,,10,,,69,127
72174,note_off,109,0,0,,10,,,69,127
72175,note_on,1,0,0,,12,,,71,127
72284,note_off,109,0,0,,12,,,71,127
72284,note_off,0,0,0,,10,,,45,127
72285,note_on,1,0,0,,4,,,40,127
72285,note_on,0,0,0,,1,,,61,127
72394,note_off,109,0,0,,1,,,61,127
72395,note_on,1,0,0,,10,,,69,127
72510,note_on,115,0,0,,12,,,59,127
72559,note_off,49,0,0,,10,,,69,127
72634,note_on,75,0,0,,8,,,68,127
72674,note_off,40,0,0,,12,,,59,127
72722,note_off,48,0,0,,4,,,40,127
72799,note_off,77,0,0,,8,,,68,127
73327,note_on,528,0,0,,10,,,45,127
73327,note_on,0,0,0,,10,,,57,127
73436,note_off,109,0,0,,10,,,57,127
73437,note_on,1,0,0,,12,,,59,127
73546,note_off,109,0,0,,12,,,59,127
73546,note_off,0,0,0,,10,,,45,127
73547,note_on,1,0,0,,10,,,57,127
73547,note_on,0,0,0,,0,,,60,127
73656,note_off,109,0,0,,0,,,60,127
73657,note_on,1,0,0,,2,,,62,127
73766,note_off,109,0,0,,2,,,62,127
73767,note_on,1,0,0,,0,,,60,127
73877,note_on,110,0,0,,10,,,69,127
73904,note_off,27,0,0,,0,,,60,127
73985,note_off,81,0,0,,10,,,57,127
73986,note_on,1,0,0,,4,,,52,127
73986,note_on,0,0,0,,12,,,59,127
74013,note_off,27,0,0,,10,,,69,127
74095,note_on,82,0,0,,8,,,68,127
74122,note_off,27,0,0,,12,,,59,127
74203,note_off,81,0,0,,8,,,68,127
74203,note_off,0,0,0,,4,,,52,127
74204,note_on,1,0,0,,10,,,45,127
74204,note_on,0,0,0,,10,,,57,127
74313,note_off,109,0,0,,10,,,57,127
74314,note_on,1,0,0,,12,,,59,127
74423,note_off,109,0,0,,12,,,59,127
74423,note_off,0,0,0,,10,,,45,127
74424,note_on,1,0,0,,10,,,57,127
74424,note_on,0,0,0,,0,,,60,127
74533,note_off,109,0,0,,0,,,60,127
74534,note_on,1,0,0,,2,,,62,127
74643,note_off,109,0,0,,2,,,62,127
74644,note_on,1,0,0,,0,,,60,127
74753,note_off,109,0,0,,0,,,60,127
74754,note_on,1,0,0,,10,,,69,127
74863,note_off,109,0,0,,10,,,69,127
74863,note_off,0,0,0,,10,,,57,127
74864,note_on,1,0,0,,4,,,52,127
74864,note_on,0,0,0,,12,,,59,127
74973,note_off,109,0,0,,12,,,59,127
74974,note_on,1,0,0,,8,,,68,127
75083,note_off,109,0,0,,8,,,68,127
75083,note_off,0,0,0,,4,,,52,127
75093,note_on,10,0,0,,10,,,69,127
75093,note_on,0,0,0,,10,,,45,127
75202,note_off,109,0,0,,10,,,69,127
75203,note_on,1,0,0,,12,,,71,127
75312,note_off,109,0,0,,12,,,71,127
75312,note_off,0,0,0,,10,,,45,127
75313,note_on,1,0,0,,0,,,72,127
75313,note_on,0,0,0,,10,,,57,127
75422,note_off,109,0,0,,0,,,72,127
75423,note_on,1,0,0,,2,,,74,127
75532,note_off,109,0,0,,2,,,74,127
75533,note_on,1,0,0,,0,,,72,127
75643,note_off,110,0,0,,10,,,57,127
75643,note_on,0,0,0,,10,,,81,127
75698,note_off,55,0,0,,0,,,72,127
75753,note_on,55,0,0,,12,,,71,127
75753,note_on,0,0,0,,4,,,52,127
75808,note_off,55,0,0,,10,,,81,127
75863,note_on,55,0,0,,8,,,80,127
75918,note_off,55,0,0,,12,,,71,127
75972,note_off,54,0,0,,8,,,80,127
75972,note_off,0,0,0,,4,,,52,127
75973,note_on,1,0,0,,10,,,69,127
75973,note_on,0,0,0,,5,,,53,127
76082,note_off,109,0,0,,10,,,69,127
76083,note_on,1,0,0,,12,,,71,127
76192,note_off,109,0,0,,12,,,71,127
76192,note_off,0,0,0,,5,,,53,127
76193,note_on,1,0,0,,0,,,72,127
76193,note_on,0,0,0,,2,,,50,127
76302,note_off,109,0,0,,0,,,72,127
76303,note_on,1,0,0,,2,,,74,127
76412,note_off,109,0,0,,2,,,74,127
76412,note_off,0,0,0,,2,,,50,127
76413,note_on,1,0,0,,0,,,72,127
76523,note_on,110,0,0,,10,,,81,127
76578,note_off,55,0,0,,0,,,72,127
76633,note_on,55,0,0,,12,,,71,127
76633,note_on,0,0,0,,4,,,52,127
76688,note_off,55,0,0,,10,,,81,127
76743,note_on,55,0,0,,8,,,80,127
76798,note_off,55,0,0,,12,,,71,127
76852,note_off,54,0,0,,8,,,80,127
76852,note_off,0,0,0,,4,,,52,127
76853,note_on,1,0,0,,10,,,69,127
76853,note_on,0,0,0,,5,,,53,127
76962,note_off,109,0,0,,10,,,69,127
76963,note_on,1,0,0,,12,,,71,127
77072,note_off,109,0,0,,12,,,71,127
77072,note_off,0,0,0,,5,,,53,127
77073,note_on,1,0,0,,0,,,72,127
77073,note_on,0,0,0,,2,,,50,127
77182,note_off,109,0,0,,0,,,72,127
77183,note_on,1,0,0,,2,,,74,127
77292,note_off,109,0,0,,2,,,74,127
77292,note_off,0,0,0,,2,,,50,127
77293,note_on,1,0,0,,0,,,72,127
77293,note_on,0,0,0,,4,,,52,127
77403,note_on,110,0,0,,10,,,81,127
77430,note_off,27,0,0,,0,,,72,127
77511,note_off,81,0,0,,10,,,81,127
77511,note_off,0,0,0,,4,,,52,127
77512,note_on,1,0,0,,12,,,71,127
77512,note_on,0,0,0,,4,,,64,127
77622,note_on,110,0,0,,8,,,80,127
77649,note_off,27,0,0,,12,,,71,127
77730,note_off,81,0,0,,8,,,80,127
77730,note_off,0,0,0,,4,,,64,127
77740,note_on,10,0,0,,5,,,65,127
77740,note_on,0,0,0,,10,,,69,127
77849,note_off,109,0,0,,10,,,69,127
77850,note_on,1,0,0,,5,,,77,127
77959,note_off,109,0,0,,5,,,65,127
77960,note_on,1,0,0,,0,,,60,127
77960,note_on,0,0,0,,7,,,67,127
78015,note_off,55,0,0,,5,,,77,127
78069,note_off,54,0,0,,7,,,67,127
78070,note_on,1,0,0,,4,,,76,127
78179,note_off,109,0,0,,0,,,60,127
78180,note_on,1,0,0,,2,,,62,127
78180,note_on,0,0,0,,5,,,65,127
78235,note_off,55,0,0,,4,,,76,127
78289,note_off,54,0,0,,5,,,65,127
78290,note_on,1,0,0,,2,,,74,127
78399,note_off,109,0,0,,2,,,62,127
78400,note_on,1,0,0,,10,,,57,127
78400,note_on,0,0,0,,4,,,64,127
78455,note_off,55,0,0,,2,,,74,127
78509,note_off,54,0,0,,4,,,64,127
78510,note_on,1,0,0,,0,,,72,127
78619,note_off,109,0,0,,10,,,57,127
78620,note_on,1,0,0,,4,,,52,127
78620,note_on,0,0,0,,2,,,62,127
78675,note_off,55,0,0,,0,,,72,127
78729,note_off,54,0,0,,2,,,62,127
78730,note_on,1,0,0,,8,,,68,127
78839,note_off,109,0,0,,8,,,68,127
78839,note_off,0,0,0,,4,,,52,127
78840,note_on,1,0,0,,2,,,50,127
78840,note_on,0,0,0,,10,,,69,127
78949,note_off,109,0,0,,10,,,69,127
78950,note_on,1,0,0,,12,,,71,127
79059,note_off,109,0,0,,2,,,50,127
79060,note_on,1,0,0,,4,,,52,127
79060,note_on,0,0,0,,0,,,60,127
79115,note_off,55,0,0,,12,,,71,127
79169,note_off,54,0,0,,0,,,60,127
79170,note_on,1,0,0,,10,,,69,127
79279,note_off,109,0,0,,4,,,52,127
79280,note_on,1,0,0,,4,,,40,127
79280,note_on,0,0,0,,12,,,59,127
79335,note_off,55,0,0,,10,,,69,127
79389,note_off,54,0,0,,12,,,59,127
79390,note_on,1,0,0,,8,,,68,127
79499,note_off,109,0,0,,4,,,40,127
79500,note_on,1,0,0,,10,,,45,127
79500,note_on,0,0,0,,10,,,57,127
79555,note_off,55,0,0,,8,,,68,127
79609,note_off,54,0,0,,10,,,57,127
79610,note_on,1,0,0,,4,,,52,127
79719,note_off,109,0,0,,4,,,52,127
79720,note_on,1,0,0,,6,,,54,127
79829,note_off,109,0,0,,6,,,54,127
79830,note_on,1,0,0,,8,,,56,127
79939,note_off,109,0,0,,8,,,56,127
79940,note_on,1,0,0,,10,,,57,127
80049,note_off,109,0,0,,10,,,45,127
80050,note_on,1,0,0,,4,,,52,127
80159,note_off,109,0,0,,4,,,52,127
80159,note_off,0,0,0,,10,,,57,127
80160,note_on,1,0,0,,6,,,54,127
80160,note_on,0,0,0,,12,,,59,127
80269,note_off,109,0,0,,6,,,54,127
80270,note_on,1,0,0,,8,,,56,127
80379,note_off,109,0,0,,8,,,56,127
80379,note_off,0,0,0,,12,,,59,127
80380,note_on,1,0,0,,10,,,57,127
80380,note_on,0,0,0,,1,,,61,127
80489,note_off,109,0,0,,1,,,61,127
80490,note_on,1,0,0,,4,,,64,127
80599,note_off,109,0,0,,4,,,64,127
80600,note_on,1,0,0,,6,,,66,127
80709,note_off,109,0,0,,6,,,66,127
80710,note_on,1,0,0,,8,,,68,127
80819,note_off,109,0,0,,8,,,68,127
80820,note_on,1,0,0,,10,,,69,127
80929,note_off,109,0,0,,10,,,57,127
80930,note_on,1,0,0,,4,,,64,127
81039,note_off,109,0,0,,4,,,64,127
81039,note_off,0,0,0,,10,,,69,127
81040,note_on,1,0,0,,6,,,66,127
81040,note_on,0,0,0,,12,,,71,127
81149,note_off,109,0,0,,6,,,66,127
81150,note_on,1,0,0,,8,,,68,127
81259,note_off,109,0,0,,8,,,68,127
81259,note_off,0,0,0,,12,,,71,127
81260,note_on,1,0,0,,10,,,69,127
81260,note_on,0,0,0,,1,,,73,127
81369,note_off,109,0,0,,1,,,73,127
81370,note_on,1,0,0,,4,,,76,127
81479,note_off,109,0,0,,4,,,76,127
81480,note_on,1,0,0,,6,,,78,127
81589,note_off,109,0,0,,6,,,78,127
81590,note_on,1,0,0,,8,,,80,127
81699,note_off,109,0,0,,8,,,80,127
81700,note_on,1,0,0,,10,,,81,127
81809,note_off,109,0,0,,10,,,69,127
81824,note_on,15,0,0,,4,,,76,127
81937,note_off,113,0,0,,4,,,76,127
81938,note_on,1,0,0,,6,,,78,127
82051,note_off,113,0,0,,6,,,78,127
82052,note_on,1,0,0,,8,,,80,127
82138,note_off,86,0,0,,10,,,81,127
82165,note_off,27,0,0,,8,,,80,127
82166,note_on,1,0,0,,10,,,81,127
82280,note_off,114,0,0,,10,,,81,127
82282,note_on,2,0,0,,10,,,81,127
82392,note_on,110,0,0,,4,,,76,127
82447,note_off,55,0,0,,10,,,81,127
82501,note_off,54,0,0,,4,,,76,127
82502,note_on,1,0,0,,4,,,76,127
82612,note_on,110,0,0,,1,,,73,127
82667,note_off,55,0,0,,4,,,76,127
82721,note_off,54,0,0,,1,,,73,127
82722,note_on,1,0,0,,1,,,73,127
82832,note_on,110,0,0,,10,,,69,127
82887,note_off,55,0,0,,1,,,73,127
82941,note_off,54,0,0,,10,,,69,127
82942,note_on,1,0,0,,10,,,69,127
83052,note_on,110,0,0,,4,,,64,127
83107,note_off,55,0,0,,10,,,69,127
83161,note_off,54,0,0,,4,,,64,127
83162,note_on,1,0,0,,4,,,64,127
83272,note_on,110,0,0,,1,,,61,127
83327,note_off,55,0,0,,4,,,64,127
83381,note_off,54,0,0,,1,,,61,127
83382,note_on,1,0,0,,1,,,61,127
83492,note_on,110,0,0,,10,,,57,127
83547,note_off,55,0,0,,1,,,61,127
83601,note_off,54,0,0,,10,,,57,127
83602,note_on,1,0,0,,10,,,57,127
83712,note_on,110,0,0,,4,,,52,127
83767,note_off,55,0,0,,10,,,57,127
83821,note_off,54,0,0,,4,,,52,127
83822,note_on,1,0,0,,4,,,52,127
83932,note_on,110,0,0,,10,,,45,127
83987,note_off,55,0,0,,4,,,52,127
84152,note_on,165,0,0,,10,,,57,127
84590,note_off,438,0,0,,10,,,57,127
84590,note_off,0,0,0,,10,,,45,127
84661,note_on,71,0,0,,2,,,74,127
84661,note_on,0,0,0,,6,,,66,127
84661,note_on,0,0,0,,10,,,69,127
84661,note_on,0,0,0,,2,,,50,127
84918,note_off,257,0,0,,2,,,50,127
84918,note_off,0,0,0,,10,,,69,127
84918,note_off,0,0,0,,6,,,66,127
84918,note_off,0,0,0,,2,,,74,127
84924,note_on,6,0,0,,4,,,64,127
84924,note_on,0,0,0,,10,,,69,127
84924,note_on,0,0,0,,1,,,73,127
84924,note_on,0,0,0,,4,,,52,127
85439,note_off,515,0,0,,1,,,73,127
85439,note_off,0,0,0,,10,,,69,127
85439,note_off,0,0,0,,4,,,64,127
85450,note_on,11,0,0,,8,,,68,127
85450,note_on,0,0,0,,12,,,71,127
85450,note_on,0,0,0,,4,,,64,127
85450,note_on,0,0,0,,4,,,40,127
85957,note_off,507,0,0,,4,,,52,127
85965,note_off,8,0,0,,4,,,40,127
85965,note_off,0,0,0,,4,,,64,127
85965,note_off,0,0,0,,12,,,71,127
85965,note_off,0,0,0,,8,,,68,127
85987,note_on,22,0,0,,1,,,61,127
85987,note_on,0,0,0,,4,,,64,127
85987,note_on,0,0,0,,10,,,69,127
85987,note_on,0,0,0,,10,,,57,127
85987,note_on,0,0,0,,10,,,45,127
88056,note_off,2069,0,0,,10,,,45,127
88056,note_off,0,0,0,,10,,,57,127
88056,note_off,0,0,0,,10,,,69,127
88056,note_off,0,0,0,,4,,,64,127
88056,note_off,0,0,0,,1,,,61,127
90624,end_of_track,2568,1,0,,,,,,
