tick,type,time,meta,track,program,channel,pitch,tempo,note,velocity
0,copyright,0,1,0,,,,,,
0,program_change,0,0,0,6,0,,,,
0,pitchwheel,0,0,0,,0,0,,,
0,program_change,0,0,0,6,1,,,,
0,pitchwheel,0,0,0,,1,-590,,,
0,program_change,0,0,0,6,2,,,,
0,pitchwheel,0,0,0,,2,-272,,,
0,program_change,0,0,0,6,3,,,,
0,pitchwheel,0,0,0,,3,-353,,,
0,program_change,0,0,0,6,4,,,,
0,pitchwheel,0,0,0,,4,-560,,,
0,program_change,0,0,0,6,5,,,,
0,pitchwheel,0,0,0,,5,-80,,,
0,program_change,0,0,0,6,6,,,,
0,pitchwheel,0,0,0,,6,-625,,,
0,program_change,0,0,0,6,7,,,,
0,pitchwheel,0,0,0,,7,-130,,,
0,program_change,0,0,0,6,8,,,,
0,pitchwheel,0,0,0,,8,-512,,,
0,program_change,0,0,0,6,10,,,,
0,pitchwheel,0,0,0,,10,-464,,,
0,program_change,0,0,0,6,11,,,,
0,pitchwheel,0,0,0,,11,-208,,,
0,program_change,0,0,0,6,12,,,,
0,pitchwheel,0,0,0,,12,-553,,,
0,set_tempo,0,1,0,,,,500000,,
48,note_on,48,0,0,,2,,,74,127
1043,note_off,995,0,0,,2,,,74,127
1172,note_on,129,0,0,,10,,,69,127
2167,note_off,995,0,0,,10,,,69,127
2296,note_on,129,0,0,,5,,,65,127
2577,note_on,281,0,0,,2,,,62,127
2589,note_off,12,0,0,,5,,,65,127
2841,note_off,252,0,0,,2,,,62,127
2859,note_on,18,0,0,,2,,,74,127
3137,note_off,278,0,0,,2,,,74,127
3140,note_on,3,0,0,,4,,,76,127
3269,note_off,129,0,0,,4,,,76,127
3281,note_on,12,0,0,,5,,,77,127
3410,note_off,129,0,0,,5,,,77,127
3422,note_on,12,0,0,,7,,,79,127
3700,note_off,278,0,0,,7,,,79,127
3703,note_on,3,0,0,,5,,,77,127
3981,note_off,278,0,0,,5,,,77,127
3984,note_on,3,0,0,,4,,,76,127
4262,note_off,278,0,0,,4,,,76,127
4265,note_on,3,0,0,,2,,,74,127
4543,note_off,278,0,0,,2,,,74,127
4546,note_on,3,0,0,,1,,,73,127
4827,note_on,281,0,0,,10,,,69,127
5026,note_off,199,0,0,,1,,,73,127
5105,note_off,79,0,0,,10,,,69,127
5108,note_on,3,0,0,,11,,,70,127
5108,note_on,0,0,0,,2,,,74,127
5386,note_off,278,0,0,,11,,,70,127
5389,note_on,3,0,0,,10,,,69,127
5667,note_off,278,0,0,,10,,,69,127
5670,note_on,3,0,0,,7,,,67,127
5948,note_off,278,0,0,,7,,,67,127
5951,note_on,3,0,0,,5,,,65,127
6080,note_off,129,0,0,,5,,,65,127
6092,note_on,12,0,0,,7,,,67,127
6221,note_off,129,0,0,,7,,,67,127
6233,note_on,12,0,0,,10,,,69,127
6233,note_on,0,0,0,,1,,,73,127
6246,note_off,13,0,0,,2,,,74,127
6511,note_off,265,0,0,,10,,,69,127
6514,note_on,3,0,0,,7,,,67,127
6760,note_off,246,0,0,,1,,,73,127
6792,note_off,32,0,0,,7,,,67,127
6795,note_on,3,0,0,,5,,,65,127
6795,note_on,0,0,0,,2,,,74,127
7073,note_off,278,0,0,,5,,,65,127
7076,note_on,3,0,0,,4,,,64,127
7354,note_off,278,0,0,,4,,,64,127
7357,note_on,3,0,0,,2,,,62,127
7635,note_off,278,0,0,,2,,,62,127
7638,note_on,3,0,0,,4,,,64,127
7913,note_off,275,0,0,,2,,,74,127
7916,note_off,3,0,0,,4,,,64,127
7919,note_on,3,0,0,,5,,,65,127
8200,note_on,281,0,0,,2,,,74,127
8475,note_off,275,0,0,,5,,,65,127
8478,note_off,3,0,0,,2,,,74,127
8481,note_on,3,0,0,,7,,,67,127
8481,note_on,0,0,0,,0,,,72,127
8759,note_off,278,0,0,,0,,,72,127
8762,note_on,3,0,0,,12,,,71,127
9037,note_off,275,0,0,,7,,,67,127
9040,note_off,3,0,0,,12,,,71,127
9043,note_on,3,0,0,,0,,,72,127
9043,note_on,0,0,0,,10,,,69,127
9324,note_on,281,0,0,,4,,,76,127
9602,note_off,278,0,0,,4,,,76,127
9605,note_on,3,0,0,,10,,,81,127
9880,note_off,275,0,0,,0,,,72,127
9886,note_on,6,0,0,,0,,,72,127
10038,note_off,152,0,0,,10,,,69,127
10164,note_off,126,0,0,,0,,,72,127
10167,note_on,3,0,0,,12,,,71,127
10167,note_on,0,0,0,,4,,,64,127
10442,note_off,275,0,0,,10,,,81,127
10448,note_on,6,0,0,,8,,,80,127
10577,note_off,129,0,0,,8,,,80,127
10589,note_on,12,0,0,,10,,,81,127
10718,note_off,129,0,0,,10,,,81,127
10730,note_on,12,0,0,,12,,,83,127
11008,note_off,278,0,0,,12,,,83,127
11011,note_on,3,0,0,,8,,,80,127
11267,note_off,256,0,0,,4,,,64,127
11292,note_on,25,0,0,,10,,,69,127
11292,note_on,0,0,0,,0,,,60,127
11292,note_on,0,0,0,,10,,,81,127
11305,note_off,13,0,0,,12,,,71,127
11306,note_off,1,0,0,,8,,,80,127
11570,note_off,264,0,0,,0,,,60,127
11573,note_on,3,0,0,,10,,,57,127
11848,note_off,275,0,0,,10,,,69,127
11851,note_off,3,0,0,,10,,,57,127
11854,note_on,3,0,0,,10,,,69,127
12129,note_off,275,0,0,,10,,,81,127
12132,note_off,3,0,0,,10,,,69,127
12135,note_on,3,0,0,,12,,,71,127
12135,note_on,0,0,0,,7,,,79,127
12264,note_off,129,0,0,,12,,,71,127
12276,note_on,12,0,0,,0,,,72,127
12405,note_off,129,0,0,,0,,,72,127
12414,note_off,9,0,0,,7,,,79,127
12417,note_on,3,0,0,,2,,,74,127
12417,note_on,0,0,0,,5,,,77,127
12695,note_off,278,0,0,,5,,,77,127
12695,note_off,0,0,0,,2,,,74,127
12698,note_on,3,0,0,,0,,,72,127
12698,note_on,0,0,0,,4,,,76,127
12976,note_off,278,0,0,,4,,,76,127
12976,note_off,0,0,0,,0,,,72,127
12979,note_on,3,0,0,,12,,,71,127
12979,note_on,0,0,0,,2,,,74,127
13257,note_off,278,0,0,,12,,,71,127
13260,note_on,3,0,0,,10,,,69,127
13538,note_off,278,0,0,,10,,,69,127
13541,note_on,3,0,0,,8,,,68,127
13822,note_on,281,0,0,,4,,,64,127
13979,note_off,157,0,0,,2,,,74,127
14097,note_off,118,0,0,,8,,,68,127
14100,note_off,3,0,0,,4,,,64,127
14103,note_on,3,0,0,,10,,,69,127
14103,note_on,0,0,0,,5,,,65,127
14103,note_on,0,0,0,,0,,,72,127
14381,note_off,278,0,0,,5,,,65,127
14384,note_on,3,0,0,,4,,,64,127
14659,note_off,275,0,0,,0,,,72,127
14662,note_off,3,0,0,,4,,,64,127
14665,note_on,3,0,0,,2,,,62,127
14665,note_on,0,0,0,,12,,,71,127
14943,note_off,278,0,0,,2,,,62,127
14946,note_on,3,0,0,,0,,,60,127
15075,note_off,129,0,0,,0,,,60,127
15087,note_on,12,0,0,,2,,,62,127
15216,note_off,129,0,0,,2,,,62,127
15222,note_off,6,0,0,,10,,,69,127
15228,note_on,6,0,0,,8,,,68,127
15228,note_on,0,0,0,,4,,,64,127
15506,note_off,278,0,0,,4,,,64,127
15509,note_on,3,0,0,,2,,,62,127
15784,note_off,275,0,0,,8,,,68,127
15784,note_off,0,0,0,,12,,,71,127
15787,note_off,3,0,0,,2,,,62,127
15790,note_on,3,0,0,,0,,,60,127
15790,note_on,0,0,0,,10,,,69,127
16068,note_off,278,0,0,,0,,,60,127
16071,note_on,3,0,0,,12,,,59,127
16349,note_off,278,0,0,,12,,,59,127
16352,note_on,3,0,0,,10,,,57,127
16630,note_off,278,0,0,,10,,,57,127
16633,note_on,3,0,0,,12,,,59,127
16911,note_off,278,0,0,,12,,,59,127
16914,note_on,3,0,0,,0,,,60,127
17005,note_off,91,0,0,,10,,,69,127
17195,note_on,190,0,0,,7,,,67,127
17470,note_off,275,0,0,,0,,,60,127
17473,note_off,3,0,0,,7,,,67,127
17476,note_on,3,0,0,,1,,,61,127
17476,note_on,0,0,0,,5,,,65,127
17754,note_off,278,0,0,,5,,,65,127
17757,note_on,3,0,0,,4,,,64,127
18020,note_off,263,0,0,,4,,,64,127
18032,note_off,12,0,0,,1,,,61,127
18038,note_on,6,0,0,,5,,,65,127
18038,note_on,0,0,0,,2,,,62,127
18319,note_on,281,0,0,,10,,,69,127
18597,note_off,278,0,0,,10,,,69,127
18600,note_on,3,0,0,,2,,,74,127
18875,note_off,275,0,0,,5,,,65,127
18881,note_on,6,0,0,,5,,,65,127
19121,note_off,240,0,0,,2,,,62,127
19159,note_off,38,0,0,,5,,,65,127
19162,note_on,3,0,0,,4,,,64,127
19162,note_on,0,0,0,,10,,,57,127
19437,note_off,275,0,0,,2,,,74,127
19443,note_on,6,0,0,,1,,,73,127
19572,note_off,129,0,0,,1,,,73,127
19584,note_on,12,0,0,,2,,,74,127
19713,note_off,129,0,0,,2,,,74,127
19725,note_on,12,0,0,,4,,,76,127
20003,note_off,278,0,0,,4,,,76,127
20006,note_on,3,0,0,,1,,,73,127
20257,note_off,251,0,0,,10,,,57,127
20281,note_off,24,0,0,,4,,,64,127
20284,note_off,3,0,0,,1,,,73,127
20287,note_on,3,0,0,,2,,,62,127
20287,note_on,0,0,0,,5,,,53,127
20287,note_on,0,0,0,,2,,,74,127
20565,note_off,278,0,0,,5,,,53,127
20568,note_on,3,0,0,,2,,,50,127
20843,note_off,275,0,0,,2,,,62,127
20846,note_off,3,0,0,,2,,,50,127
20849,note_on,3,0,0,,2,,,62,127
21124,note_off,275,0,0,,2,,,74,127
21127,note_off,3,0,0,,2,,,62,127
21130,note_on,3,0,0,,4,,,64,127
21130,note_on,0,0,0,,0,,,72,127
21259,note_off,129,0,0,,4,,,64,127
21271,note_on,12,0,0,,5,,,65,127
21400,note_off,129,0,0,,5,,,65,127
21409,note_off,9,0,0,,0,,,72,127
21412,note_on,3,0,0,,7,,,67,127
21412,note_on,0,0,0,,11,,,70,127
21690,note_off,278,0,0,,11,,,70,127
21690,note_off,0,0,0,,7,,,67,127
21693,note_on,3,0,0,,5,,,65,127
21693,note_on,0,0,0,,10,,,69,127
21971,note_off,278,0,0,,10,,,69,127
21971,note_off,0,0,0,,5,,,65,127
21974,note_on,3,0,0,,4,,,64,127
21974,note_on,0,0,0,,7,,,67,127
22252,note_off,278,0,0,,4,,,64,127
22255,note_on,3,0,0,,2,,,62,127
22533,note_off,278,0,0,,2,,,62,127
22536,note_on,3,0,0,,1,,,61,127
22817,note_on,281,0,0,,10,,,57,127
23057,note_off,240,0,0,,7,,,67,127
23092,note_off,35,0,0,,1,,,61,127
23095,note_off,3,0,0,,10,,,57,127
23098,note_on,3,0,0,,2,,,62,127
23098,note_on,0,0,0,,11,,,58,127
23098,note_on,0,0,0,,5,,,65,127
23376,note_off,278,0,0,,11,,,58,127
23379,note_on,3,0,0,,10,,,57,127
23654,note_off,275,0,0,,5,,,65,127
23657,note_off,3,0,0,,10,,,57,127
23660,note_on,3,0,0,,7,,,55,127
23660,note_on,0,0,0,,4,,,64,127
23938,note_off,278,0,0,,7,,,55,127
23941,note_on,3,0,0,,5,,,53,127
24070,note_off,129,0,0,,5,,,53,127
24082,note_on,12,0,0,,7,,,55,127
24211,note_off,129,0,0,,7,,,55,127
24217,note_off,6,0,0,,2,,,62,127
24223,note_on,6,0,0,,1,,,61,127
24223,note_on,0,0,0,,10,,,57,127
24501,note_off,278,0,0,,10,,,57,127
24504,note_on,3,0,0,,7,,,55,127
24779,note_off,275,0,0,,1,,,61,127
24779,note_off,0,0,0,,4,,,64,127
24782,note_off,3,0,0,,7,,,55,127
24785,note_on,3,0,0,,2,,,62,127
24785,note_on,0,0,0,,5,,,53,127
25063,note_off,278,0,0,,5,,,53,127
25066,note_on,3,0,0,,4,,,52,127
25066,note_on,0,0,0,,4,,,64,127
25344,note_off,278,0,0,,4,,,64,127
25344,note_off,0,0,0,,4,,,52,127
25347,note_on,3,0,0,,2,,,50,127
25347,note_on,0,0,0,,5,,,65,127
25625,note_off,278,0,0,,5,,,65,127
25625,note_off,0,0,0,,2,,,50,127
25628,note_on,3,0,0,,4,,,52,127
25628,note_on,0,0,0,,7,,,67,127
25903,note_off,275,0,0,,2,,,62,127
25906,note_off,3,0,0,,7,,,67,127
25906,note_off,0,0,0,,4,,,52,127
25909,note_on,3,0,0,,5,,,53,127
25909,note_on,0,0,0,,10,,,69,127
26187,note_off,278,0,0,,10,,,69,127
26190,note_on,3,0,0,,2,,,62,127
26190,note_on,0,0,0,,5,,,65,127
26465,note_off,275,0,0,,5,,,53,127
26468,note_off,3,0,0,,5,,,65,127
26468,note_off,0,0,0,,2,,,62,127
26471,note_on,3,0,0,,0,,,60,127
26471,note_on,0,0,0,,7,,,55,127
26471,note_on,0,0,0,,4,,,64,127
26749,note_off,278,0,0,,4,,,64,127
26749,note_off,0,0,0,,0,,,60,127
26752,note_on,3,0,0,,12,,,59,127
26752,note_on,0,0,0,,2,,,62,127
27015,note_off,263,0,0,,2,,,62,127
27027,note_off,12,0,0,,7,,,55,127
27030,note_off,3,0,0,,12,,,59,127
27033,note_on,3,0,0,,0,,,60,127
27033,note_on,0,0,0,,10,,,57,127
27314,note_on,281,0,0,,4,,,64,127
27592,note_off,278,0,0,,4,,,64,127
27595,note_on,3,0,0,,10,,,69,127
27870,note_off,275,0,0,,0,,,60,127
27876,note_on,6,0,0,,0,,,60,127
28131,note_off,255,0,0,,10,,,57,127
28154,note_off,23,0,0,,0,,,60,127
28157,note_on,3,0,0,,12,,,59,127
28157,note_on,0,0,0,,4,,,52,127
28432,note_off,275,0,0,,10,,,69,127
28438,note_on,6,0,0,,8,,,68,127
28567,note_off,129,0,0,,8,,,68,127
28579,note_on,12,0,0,,10,,,69,127
28708,note_off,129,0,0,,10,,,69,127
28720,note_on,12,0,0,,12,,,71,127
28998,note_off,278,0,0,,12,,,71,127
29001,note_on,3,0,0,,8,,,68,127
29256,note_off,255,0,0,,4,,,52,127
29276,note_off,20,0,0,,12,,,59,127
29279,note_off,3,0,0,,8,,,68,127
29282,note_on,3,0,0,,10,,,57,127
29282,note_on,0,0,0,,0,,,48,127
29282,note_on,0,0,0,,10,,,69,127
29560,note_off,278,0,0,,0,,,48,127
29563,note_on,3,0,0,,10,,,45,127
29838,note_off,275,0,0,,10,,,69,127
29838,note_off,0,0,0,,10,,,57,127
29841,note_off,3,0,0,,10,,,45,127
29844,note_on,3,0,0,,10,,,57,127
30122,note_off,278,0,0,,10,,,57,127
30125,note_on,3,0,0,,12,,,59,127
30125,note_on,0,0,0,,7,,,55,127
30254,note_off,129,0,0,,12,,,59,127
30266,note_on,12,0,0,,0,,,60,127
30395,note_off,129,0,0,,0,,,60,127
30404,note_off,9,0,0,,7,,,55,127
30407,note_on,3,0,0,,2,,,62,127
30407,note_on,0,0,0,,5,,,53,127
30685,note_off,278,0,0,,5,,,53,127
30685,note_off,0,0,0,,2,,,62,127
30688,note_on,3,0,0,,0,,,60,127
30688,note_on,0,0,0,,4,,,52,127
30966,note_off,278,0,0,,4,,,52,127
30966,note_off,0,0,0,,0,,,60,127
30969,note_on,3,0,0,,12,,,59,127
30969,note_on,0,0,0,,2,,,50,127
31247,note_off,278,0,0,,12,,,59,127
31250,note_on,3,0,0,,10,,,57,127
31528,note_off,278,0,0,,10,,,57,127
31531,note_on,3,0,0,,8,,,56,127
31812,note_on,281,0,0,,4,,,64,127
32058,note_off,246,0,0,,8,,,56,127
32087,note_off,29,0,0,,2,,,50,127
32090,note_off,3,0,0,,4,,,64,127
32093,note_on,3,0,0,,10,,,57,127
32093,note_on,0,0,0,,0,,,48,127
32093,note_on,0,0,0,,5,,,65,127
32371,note_off,278,0,0,,5,,,65,127
32374,note_on,3,0,0,,4,,,64,127
32649,note_off,275,0,0,,0,,,48,127
32652,note_off,3,0,0,,4,,,64,127
32655,note_on,3,0,0,,12,,,47,127
32655,note_on,0,0,0,,2,,,62,127
32933,note_off,278,0,0,,2,,,62,127
32936,note_on,3,0,0,,0,,,60,127
33065,note_off,129,0,0,,0,,,60,127
33077,note_on,12,0,0,,2,,,62,127
33206,note_off,129,0,0,,2,,,62,127
33212,note_off,6,0,0,,10,,,57,127
33218,note_on,6,0,0,,8,,,56,127
33218,note_on,0,0,0,,4,,,64,127
33496,note_off,278,0,0,,4,,,64,127
33499,note_on,3,0,0,,2,,,62,127
33774,note_off,275,0,0,,8,,,56,127
33774,note_off,0,0,0,,12,,,47,127
33777,note_off,3,0,0,,2,,,62,127
33780,note_on,3,0,0,,10,,,57,127
33780,note_on,0,0,0,,10,,,45,127
33780,note_on,0,0,0,,0,,,60,127
34058,note_off,278,0,0,,0,,,60,127
34058,note_off,0,0,0,,10,,,45,127
34061,note_on,3,0,0,,12,,,47,127
34061,note_on,0,0,0,,12,,,59,127
34336,note_off,275,0,0,,10,,,57,127
34339,note_off,3,0,0,,12,,,59,127
34339,note_off,0,0,0,,12,,,47,127
34342,note_on,3,0,0,,0,,,60,127
34342,note_on,0,0,0,,0,,,48,127
34342,note_on,0,0,0,,10,,,69,127
34620,note_off,278,0,0,,0,,,48,127
34620,note_off,0,0,0,,0,,,60,127
34623,note_on,3,0,0,,5,,,65,127
34623,note_on,0,0,0,,2,,,50,127
34901,note_off,278,0,0,,2,,,50,127
34901,note_off,0,0,0,,5,,,65,127
34904,note_on,3,0,0,,4,,,64,127
34904,note_on,0,0,0,,0,,,48,127
35179,note_off,275,0,0,,10,,,69,127
35185,note_on,6,0,0,,7,,,67,127
35460,note_off,275,0,0,,0,,,48,127
35460,note_off,0,0,0,,4,,,64,127
35463,note_off,3,0,0,,7,,,67,127
35466,note_on,3,0,0,,5,,,65,127
35466,note_on,0,0,0,,1,,,49,127
35466,note_on,0,0,0,,4,,,76,127
35744,note_off,278,0,0,,5,,,65,127
35747,note_on,3,0,0,,4,,,64,127
36022,note_off,275,0,0,,1,,,49,127
36025,note_off,3,0,0,,4,,,64,127
36028,note_on,3,0,0,,5,,,65,127
36028,note_on,0,0,0,,2,,,50,127
36306,note_off,278,0,0,,2,,,50,127
36306,note_off,0,0,0,,5,,,65,127
36309,note_on,3,0,0,,7,,,67,127
36309,note_on,0,0,0,,4,,,52,127
36584,note_off,275,0,0,,4,,,76,127
36587,note_off,3,0,0,,4,,,52,127
36587,note_off,0,0,0,,7,,,67,127
36590,note_on,3,0,0,,10,,,69,127
36590,note_on,0,0,0,,5,,,53,127
36590,note_on,0,0,0,,2,,,74,127
36868,note_off,278,0,0,,5,,,53,127
36868,note_off,0,0,0,,10,,,69,127
36871,note_on,3,0,0,,11,,,70,127
36871,note_on,0,0,0,,7,,,55,127
37149,note_off,278,0,0,,7,,,55,127
37149,note_off,0,0,0,,11,,,70,127
37152,note_on,3,0,0,,4,,,64,127
37152,note_on,0,0,0,,10,,,45,127
37427,note_off,275,0,0,,2,,,74,127
37433,note_on,6,0,0,,1,,,73,127
37562,note_off,129,0,0,,1,,,73,127
37574,note_on,12,0,0,,2,,,74,127
37694,note_off,120,0,0,,10,,,45,127
37703,note_off,9,0,0,,2,,,74,127
37709,note_off,6,0,0,,4,,,64,127
37715,note_on,6,0,0,,10,,,69,127
37715,note_on,0,0,0,,10,,,57,127
37715,note_on,0,0,0,,4,,,76,127
37993,note_off,278,0,0,,4,,,76,127
37996,note_on,3,0,0,,1,,,73,127
38271,note_off,275,0,0,,10,,,69,127
38274,note_off,3,0,0,,1,,,73,127
38277,note_on,3,0,0,,11,,,70,127
38277,note_on,0,0,0,,2,,,74,127
38552,note_off,275,0,0,,10,,,57,127
38558,note_on,6,0,0,,7,,,55,127
38687,note_off,129,0,0,,7,,,55,127
38699,note_on,12,0,0,,10,,,57,127
38817,note_off,118,0,0,,2,,,74,127
38828,note_off,11,0,0,,10,,,57,127
38840,note_on,12,0,0,,11,,,58,127
38840,note_on,0,0,0,,7,,,79,127
39118,note_off,278,0,0,,11,,,58,127
39121,note_on,3,0,0,,7,,,55,127
39396,note_off,275,0,0,,11,,,70,127
39399,note_off,3,0,0,,7,,,55,127
39402,note_on,3,0,0,,10,,,69,127
39402,note_on,0,0,0,,1,,,61,127
39677,note_off,275,0,0,,7,,,79,127
39683,note_on,6,0,0,,5,,,77,127
39812,note_off,129,0,0,,5,,,77,127
39824,note_on,12,0,0,,7,,,79,127
39953,note_off,129,0,0,,7,,,79,127
39965,note_on,12,0,0,,10,,,81,127
40240,note_off,275,0,0,,1,,,61,127
40243,note_off,3,0,0,,10,,,81,127
40246,note_on,3,0,0,,12,,,59,127
40246,note_on,0,0,0,,7,,,79,127
40375,note_off,129,0,0,,12,,,59,127
40387,note_on,12,0,0,,1,,,61,127
40516,note_off,129,0,0,,1,,,61,127
40525,note_off,9,0,0,,7,,,79,127
40528,note_on,3,0,0,,2,,,62,127
40528,note_on,0,0,0,,5,,,77,127
40803,note_off,275,0,0,,10,,,69,127
40806,note_off,3,0,0,,5,,,77,127
40809,note_on,3,0,0,,7,,,67,127
40809,note_on,0,0,0,,4,,,76,127
41087,note_off,278,0,0,,4,,,76,127
41087,note_off,0,0,0,,7,,,67,127
41090,note_on,3,0,0,,5,,,65,127
41090,note_on,0,0,0,,2,,,74,127
41368,note_off,278,0,0,,5,,,65,127
41371,note_on,3,0,0,,7,,,67,127
41500,note_off,129,0,0,,7,,,67,127
41512,note_on,12,0,0,,5,,,65,127
41641,note_off,129,0,0,,5,,,65,127
41647,note_off,6,0,0,,2,,,62,127
41653,note_on,6,0,0,,4,,,64,127
41653,note_on,0,0,0,,10,,,57,127
41928,note_off,275,0,0,,2,,,74,127
41934,note_on,6,0,0,,1,,,73,127
42063,note_off,129,0,0,,1,,,73,127
42075,note_on,12,0,0,,2,,,74,127
42204,note_off,129,0,0,,2,,,74,127
42216,note_on,12,0,0,,4,,,76,127
42494,note_off,278,0,0,,4,,,76,127
42497,note_on,3,0,0,,1,,,73,127
42772,note_off,275,0,0,,10,,,57,127
42772,note_off,0,0,0,,4,,,64,127
42775,note_off,3,0,0,,1,,,73,127
42778,note_on,3,0,0,,2,,,62,127
42778,note_on,0,0,0,,5,,,53,127
42778,note_on,0,0,0,,2,,,74,127
43056,note_off,278,0,0,,5,,,53,127
43059,note_on,3,0,0,,2,,,50,127
43334,note_off,275,0,0,,2,,,62,127
43337,note_off,3,0,0,,2,,,50,127
43340,note_on,3,0,0,,2,,,62,127
43615,note_off,275,0,0,,2,,,74,127
43618,note_off,3,0,0,,2,,,62,127
43621,note_on,3,0,0,,4,,,64,127
43621,note_on,0,0,0,,0,,,72,127
43750,note_off,129,0,0,,4,,,64,127
43762,note_on,12,0,0,,5,,,65,127
43891,note_off,129,0,0,,5,,,65,127
43900,note_off,9,0,0,,0,,,72,127
43903,note_on,3,0,0,,7,,,67,127
43903,note_on,0,0,0,,11,,,70,127
44181,note_off,278,0,0,,11,,,70,127
44181,note_off,0,0,0,,7,,,67,127
44184,note_on,3,0,0,,5,,,65,127
44184,note_on,0,0,0,,10,,,69,127
44462,note_off,278,0,0,,10,,,69,127
44462,note_off,0,0,0,,5,,,65,127
44465,note_on,3,0,0,,4,,,64,127
44465,note_on,0,0,0,,7,,,67,127
44743,note_off,278,0,0,,4,,,64,127
44746,note_on,3,0,0,,2,,,62,127
45024,note_off,278,0,0,,2,,,62,127
45027,note_on,3,0,0,,1,,,61,127
45308,note_on,281,0,0,,10,,,57,127
45548,note_off,240,0,0,,7,,,67,127
45583,note_off,35,0,0,,1,,,61,127
45586,note_off,3,0,0,,10,,,57,127
45589,note_on,3,0,0,,2,,,62,127
45589,note_on,0,0,0,,11,,,58,127
45589,note_on,0,0,0,,5,,,65,127
45867,note_off,278,0,0,,11,,,58,127
45870,note_on,3,0,0,,10,,,57,127
46145,note_off,275,0,0,,5,,,65,127
46148,note_off,3,0,0,,10,,,57,127
46151,note_on,3,0,0,,7,,,55,127
46151,note_on,0,0,0,,4,,,64,127
46429,note_off,278,0,0,,7,,,55,127
46432,note_on,3,0,0,,5,,,53,127
46561,note_off,129,0,0,,5,,,53,127
46573,note_on,12,0,0,,7,,,55,127
46702,note_off,129,0,0,,7,,,55,127
46708,note_off,6,0,0,,2,,,62,127
46714,note_on,6,0,0,,1,,,61,127
46714,note_on,0,0,0,,10,,,57,127
46992,note_off,278,0,0,,10,,,57,127
46995,note_on,3,0,0,,7,,,55,127
47270,note_off,275,0,0,,1,,,61,127
47270,note_off,0,0,0,,4,,,64,127
47273,note_off,3,0,0,,7,,,55,127
47276,note_on,3,0,0,,2,,,62,127
47276,note_on,0,0,0,,5,,,53,127
47557,note_on,281,0,0,,10,,,69,127
47832,note_off,275,0,0,,5,,,53,127
47835,note_off,3,0,0,,10,,,69,127
47838,note_on,3,0,0,,2,,,50,127
47838,note_on,0,0,0,,11,,,70,127
48116,note_off,278,0,0,,11,,,70,127
48119,note_on,3,0,0,,10,,,69,127
48394,note_off,275,0,0,,2,,,50,127
48397,note_off,3,0,0,,10,,,69,127
48400,note_on,3,0,0,,4,,,52,127
48400,note_on,0,0,0,,7,,,67,127
48678,note_off,278,0,0,,7,,,67,127
48681,note_on,3,0,0,,5,,,65,127
48810,note_off,129,0,0,,5,,,65,127
48822,note_on,12,0,0,,7,,,67,127
48951,note_off,129,0,0,,7,,,67,127
48957,note_off,6,0,0,,4,,,52,127
48957,note_off,0,0,0,,2,,,62,127
48963,note_on,6,0,0,,0,,,60,127
48963,note_on,0,0,0,,10,,,57,127
48963,note_on,0,0,0,,10,,,69,127
49241,note_off,278,0,0,,10,,,69,127
49244,note_on,3,0,0,,7,,,67,127
49519,note_off,275,0,0,,10,,,57,127
49522,note_off,3,0,0,,7,,,67,127
49525,note_on,3,0,0,,2,,,50,127
49525,note_on,0,0,0,,5,,,65,127
49803,note_off,278,0,0,,5,,,65,127
49806,note_on,3,0,0,,4,,,64,127
49935,note_off,129,0,0,,4,,,64,127
49947,note_on,12,0,0,,5,,,65,127
50076,note_off,129,0,0,,5,,,65,127
50082,note_off,6,0,0,,2,,,50,127
50088,note_on,6,0,0,,4,,,52,127
50088,note_on,0,0,0,,7,,,67,127
50363,note_off,275,0,0,,0,,,60,127
50369,note_on,6,0,0,,11,,,58,127
50644,note_off,275,0,0,,4,,,52,127
50647,note_off,3,0,0,,11,,,58,127
50650,note_on,3,0,0,,10,,,57,127
50650,note_on,0,0,0,,5,,,53,127
50928,note_off,278,0,0,,5,,,53,127
50928,note_off,0,0,0,,10,,,57,127
50931,note_on,3,0,0,,11,,,58,127
50931,note_on,0,0,0,,7,,,55,127
51206,note_off,275,0,0,,7,,,67,127
51209,note_off,3,0,0,,7,,,55,127
51209,note_off,0,0,0,,11,,,58,127
51212,note_on,3,0,0,,0,,,60,127
51212,note_on,0,0,0,,10,,,57,127
51212,note_on,0,0,0,,5,,,65,127
51490,note_off,278,0,0,,10,,,57,127
51490,note_off,0,0,0,,0,,,60,127
51493,note_on,3,0,0,,2,,,62,127
51493,note_on,0,0,0,,11,,,58,127
51651,note_off,158,0,0,,5,,,65,127
51771,note_off,120,0,0,,11,,,58,127
51771,note_off,0,0,0,,2,,,62,127
51774,note_on,3,0,0,,0,,,60,127
51774,note_on,0,0,0,,4,,,64,127
52052,note_off,278,0,0,,4,,,64,127
52052,note_off,0,0,0,,0,,,60,127
52055,note_on,3,0,0,,2,,,62,127
52055,note_on,0,0,0,,5,,,65,127
52333,note_off,278,0,0,,5,,,65,127
52333,note_off,0,0,0,,2,,,62,127
52336,note_on,3,0,0,,4,,,64,127
52336,note_on,0,0,0,,7,,,67,127
52614,note_off,278,0,0,,7,,,67,127
52614,note_off,0,0,0,,4,,,64,127
52617,note_on,3,0,0,,5,,,65,127
52617,note_on,0,0,0,,10,,,69,127
52895,note_off,278,0,0,,10,,,69,127
52895,note_off,0,0,0,,5,,,65,127
52898,note_on,3,0,0,,7,,,67,127
52898,note_on,0,0,0,,11,,,70,127
53176,note_off,278,0,0,,11,,,70,127
53176,note_off,0,0,0,,7,,,67,127
53179,note_on,3,0,0,,10,,,69,127
53179,note_on,0,0,0,,0,,,72,127
53457,note_off,278,0,0,,0,,,72,127
53457,note_off,0,0,0,,10,,,69,127
53460,note_on,3,0,0,,11,,,70,127
53460,note_on,0,0,0,,2,,,74,127
53738,note_off,278,0,0,,2,,,74,127
53738,note_off,0,0,0,,11,,,70,127
53741,note_on,3,0,0,,0,,,72,127
53741,note_on,0,0,0,,4,,,76,127
53870,note_off,129,0,0,,0,,,72,127
53882,note_on,12,0,0,,11,,,70,127
54011,note_off,129,0,0,,11,,,70,127
54020,note_off,9,0,0,,4,,,76,127
54023,note_on,3,0,0,,10,,,69,127
54023,note_on,0,0,0,,10,,,57,127
54023,note_on,0,0,0,,5,,,77,127
54304,note_on,281,0,0,,0,,,60,127
54564,note_off,260,0,0,,0,,,60,127
54579,note_off,15,0,0,,10,,,69,127
54585,note_on,6,0,0,,5,,,65,127
54860,note_off,275,0,0,,10,,,57,127
54866,note_on,6,0,0,,11,,,58,127
55141,note_off,275,0,0,,5,,,77,127
55144,note_off,3,0,0,,11,,,58,127
55147,note_on,3,0,0,,0,,,60,127
55147,note_on,0,0,0,,0,,,72,127
55422,note_off,275,0,0,,5,,,65,127
55428,note_on,6,0,0,,4,,,64,127
55557,note_off,129,0,0,,4,,,64,127
55569,note_on,12,0,0,,2,,,62,127
55698,note_off,129,0,0,,2,,,62,127
55710,note_on,12,0,0,,4,,,64,127
55710,note_on,0,0,0,,7,,,67,127
55985,note_off,275,0,0,,0,,,60,127
55988,note_off,3,0,0,,4,,,64,127
55991,note_on,3,0,0,,0,,,60,127
56266,note_off,275,0,0,,7,,,67,127
56266,note_off,0,0,0,,0,,,72,127
56269,note_off,3,0,0,,0,,,60,127
56272,note_on,3,0,0,,5,,,53,127
56272,note_on,0,0,0,,10,,,69,127
56550,note_off,278,0,0,,10,,,69,127
56553,note_on,3,0,0,,5,,,65,127
56828,note_off,275,0,0,,5,,,53,127
56834,note_on,6,0,0,,5,,,77,127
57109,note_off,275,0,0,,5,,,65,127
57112,note_off,3,0,0,,5,,,77,127
57115,note_on,3,0,0,,4,,,76,127
57115,note_on,0,0,0,,7,,,79,127
57244,note_off,129,0,0,,7,,,79,127
57256,note_on,12,0,0,,10,,,81,127
57385,note_off,129,0,0,,10,,,81,127
57394,note_off,9,0,0,,4,,,76,127
57397,note_on,3,0,0,,2,,,74,127
57397,note_on,0,0,0,,11,,,82,127
57675,note_off,278,0,0,,11,,,82,127
57675,note_off,0,0,0,,2,,,74,127
57678,note_on,3,0,0,,0,,,72,127
57678,note_on,0,0,0,,10,,,81,127
57956,note_off,278,0,0,,10,,,81,127
57956,note_off,0,0,0,,0,,,72,127
57959,note_on,3,0,0,,11,,,70,127
57959,note_on,0,0,0,,7,,,79,127
58237,note_off,278,0,0,,7,,,79,127
58237,note_off,0,0,0,,11,,,70,127
58240,note_on,3,0,0,,2,,,74,127
58240,note_on,0,0,0,,5,,,77,127
58518,note_off,278,0,0,,5,,,77,127
58518,note_off,0,0,0,,2,,,74,127
58521,note_on,3,0,0,,0,,,72,127
58521,note_on,0,0,0,,4,,,76,127
58799,note_off,278,0,0,,0,,,72,127
58802,note_on,3,0,0,,11,,,70,127
59062,note_off,260,0,0,,4,,,76,127
59080,note_off,18,0,0,,11,,,70,127
59083,note_on,3,0,0,,10,,,69,127
59083,note_on,0,0,0,,5,,,65,127
59083,note_on,0,0,0,,5,,,77,127
59361,note_off,278,0,0,,5,,,65,127
59361,note_off,0,0,0,,10,,,69,127
59364,note_on,3,0,0,,11,,,70,127
59364,note_on,0,0,0,,7,,,67,127
59493,note_off,129,0,0,,7,,,67,127
59493,note_off,0,0,0,,11,,,70,127
59505,note_on,12,0,0,,0,,,72,127
59505,note_on,0,0,0,,10,,,69,127
59634,note_off,129,0,0,,10,,,69,127
59634,note_off,0,0,0,,0,,,72,127
59646,note_on,12,0,0,,2,,,74,127
59646,note_on,0,0,0,,11,,,70,127
59924,note_off,278,0,0,,11,,,70,127
59924,note_off,0,0,0,,2,,,74,127
59927,note_on,3,0,0,,0,,,72,127
59927,note_on,0,0,0,,10,,,69,127
60202,note_off,275,0,0,,5,,,77,127
60205,note_off,3,0,0,,10,,,69,127
60205,note_off,0,0,0,,0,,,72,127
60208,note_on,3,0,0,,11,,,70,127
60208,note_on,0,0,0,,7,,,67,127
60208,note_on,0,0,0,,4,,,76,127
60486,note_off,278,0,0,,4,,,76,127
60486,note_off,0,0,0,,7,,,67,127
60489,note_on,3,0,0,,5,,,65,127
60489,note_on,0,0,0,,2,,,74,127
60767,note_off,278,0,0,,2,,,74,127
60767,note_off,0,0,0,,5,,,65,127
60770,note_on,3,0,0,,4,,,64,127
60770,note_on,0,0,0,,0,,,72,127
61045,note_off,275,0,0,,11,,,70,127
61048,note_off,3,0,0,,4,,,64,127
61051,note_on,3,0,0,,10,,,69,127
61051,note_on,0,0,0,,0,,,60,127
61180,note_off,129,0,0,,10,,,69,127
61192,note_on,12,0,0,,7,,,67,127
61321,note_off,129,0,0,,7,,,67,127
61327,note_off,6,0,0,,0,,,72,127
61330,note_off,3,0,0,,0,,,60,127
61333,note_on,3,0,0,,5,,,65,127
61333,note_on,0,0,0,,2,,,62,127
61333,note_on,0,0,0,,5,,,77,127
61611,note_off,278,0,0,,2,,,62,127
61614,note_on,3,0,0,,0,,,60,127
61889,note_off,275,0,0,,5,,,65,127
61892,note_off,3,0,0,,0,,,60,127
61895,note_on,3,0,0,,7,,,67,127
61895,note_on,0,0,0,,11,,,58,127
62173,note_off,278,0,0,,11,,,58,127
62176,note_on,3,0,0,,10,,,57,127
62305,note_off,129,0,0,,10,,,57,127
62317,note_on,12,0,0,,11,,,58,127
62446,note_off,129,0,0,,11,,,58,127
62458,note_on,12,0,0,,0,,,60,127
62458,note_on,0,0,0,,4,,,76,127
62483,note_off,25,0,0,,5,,,77,127
62736,note_off,253,0,0,,0,,,60,127
62739,note_on,3,0,0,,11,,,58,127
63014,note_off,275,0,0,,7,,,67,127
63017,note_off,3,0,0,,11,,,58,127
63020,note_on,3,0,0,,5,,,65,127
63020,note_on,0,0,0,,10,,,57,127
63298,note_off,278,0,0,,10,,,57,127
63301,note_on,3,0,0,,7,,,55,127
63430,note_off,129,0,0,,7,,,55,127
63442,note_on,12,0,0,,10,,,57,127
63571,note_off,129,0,0,,10,,,57,127
63583,note_on,12,0,0,,11,,,58,127
63583,note_on,0,0,0,,2,,,74,127
63608,note_off,25,0,0,,4,,,76,127
63861,note_off,253,0,0,,11,,,58,127
63864,note_on,3,0,0,,10,,,57,127
64139,note_off,275,0,0,,5,,,65,127
64142,note_off,3,0,0,,10,,,57,127
64145,note_on,3,0,0,,4,,,64,127
64145,note_on,0,0,0,,7,,,55,127
64423,note_off,278,0,0,,7,,,55,127
64426,note_on,3,0,0,,5,,,53,127
64555,note_off,129,0,0,,5,,,53,127
64567,note_on,12,0,0,,7,,,55,127
64696,note_off,129,0,0,,7,,,55,127
64708,note_on,12,0,0,,10,,,57,127
64708,note_on,0,0,0,,1,,,73,127
64733,note_off,25,0,0,,2,,,74,127
64986,note_off,253,0,0,,10,,,57,127
64989,note_on,3,0,0,,7,,,55,127
65264,note_off,275,0,0,,1,,,73,127
65264,note_off,0,0,0,,4,,,64,127
65267,note_off,3,0,0,,7,,,55,127
65270,note_on,3,0,0,,5,,,65,127
65270,note_on,0,0,0,,5,,,53,127
65270,note_on,0,0,0,,2,,,74,127
65548,note_off,278,0,0,,5,,,65,127
65551,note_on,3,0,0,,4,,,64,127
65829,note_off,278,0,0,,4,,,64,127
65832,note_on,3,0,0,,2,,,62,127
66107,note_off,275,0,0,,5,,,53,127
66113,note_on,6,0,0,,7,,,55,127
66388,note_off,275,0,0,,2,,,74,127
66391,note_off,3,0,0,,7,,,55,127
66394,note_on,3,0,0,,10,,,57,127
66394,note_on,0,0,0,,10,,,69,127
66669,note_off,275,0,0,,2,,,62,127
66675,note_on,6,0,0,,1,,,61,127
66804,note_off,129,0,0,,1,,,61,127
66816,note_on,12,0,0,,2,,,62,127
66945,note_off,129,0,0,,2,,,62,127
66957,note_on,12,0,0,,4,,,64,127
66957,note_on,0,0,0,,10,,,45,127
67235,note_off,278,0,0,,4,,,64,127
67238,note_on,3,0,0,,1,,,61,127
67513,note_off,275,0,0,,10,,,45,127
67513,note_off,0,0,0,,10,,,69,127
67516,note_off,3,0,0,,1,,,61,127
67516,note_off,0,0,0,,10,,,57,127
67519,note_on,3,0,0,,2,,,62,127
67519,note_on,0,0,0,,2,,,50,127
67519,note_on,0,0,0,,5,,,65,127
67797,note_off,278,0,0,,5,,,65,127
67797,note_off,0,0,0,,2,,,62,127
67800,note_on,3,0,0,,2,,,62,127
68075,note_off,275,0,0,,2,,,50,127
68081,note_on,6,0,0,,2,,,74,127
68356,note_off,275,0,0,,2,,,62,127
68359,note_off,3,0,0,,2,,,74,127
68362,note_on,3,0,0,,0,,,72,127
68362,note_on,0,0,0,,4,,,76,127
68491,note_off,129,0,0,,4,,,76,127
68503,note_on,12,0,0,,5,,,77,127
68632,note_off,129,0,0,,5,,,77,127
68641,note_off,9,0,0,,0,,,72,127
68644,note_on,3,0,0,,11,,,70,127
68644,note_on,0,0,0,,7,,,79,127
68922,note_off,278,0,0,,7,,,79,127
68922,note_off,0,0,0,,11,,,70,127
68925,note_on,3,0,0,,10,,,69,127
68925,note_on,0,0,0,,5,,,77,127
69203,note_off,278,0,0,,5,,,77,127
69203,note_off,0,0,0,,10,,,69,127
69206,note_on,3,0,0,,7,,,67,127
69206,note_on,0,0,0,,4,,,76,127
69484,note_off,278,0,0,,4,,,76,127
69484,note_off,0,0,0,,7,,,67,127
69487,note_on,3,0,0,,11,,,70,127
69487,note_on,0,0,0,,2,,,74,127
69765,note_off,278,0,0,,2,,,74,127
69765,note_off,0,0,0,,11,,,70,127
69768,note_on,3,0,0,,10,,,69,127
69768,note_on,0,0,0,,1,,,73,127
70046,note_off,278,0,0,,10,,,69,127
70049,note_on,3,0,0,,7,,,67,127
70308,note_off,259,0,0,,1,,,73,127
70327,note_off,19,0,0,,7,,,67,127
70330,note_on,3,0,0,,5,,,65,127
70330,note_on,0,0,0,,2,,,62,127
70330,note_on,0,0,0,,2,,,74,127
70608,note_off,278,0,0,,2,,,62,127
70608,note_off,0,0,0,,5,,,65,127
70611,note_on,3,0,0,,7,,,67,127
70611,note_on,0,0,0,,4,,,64,127
70740,note_off,129,0,0,,4,,,64,127
70740,note_off,0,0,0,,7,,,67,127
70752,note_on,12,0,0,,10,,,69,127
70752,note_on,0,0,0,,5,,,65,127
70881,note_off,129,0,0,,5,,,65,127
70881,note_off,0,0,0,,10,,,69,127
70893,note_on,12,0,0,,11,,,70,127
70893,note_on,0,0,0,,7,,,67,127
71171,note_off,278,0,0,,7,,,67,127
71171,note_off,0,0,0,,11,,,70,127
71174,note_on,3,0,0,,10,,,69,127
71174,note_on,0,0,0,,5,,,65,127
71449,note_off,275,0,0,,2,,,74,127
71452,note_off,3,0,0,,5,,,65,127
71452,note_off,0,0,0,,10,,,69,127
71455,note_on,3,0,0,,7,,,67,127
71455,note_on,0,0,0,,4,,,64,127
71455,note_on,0,0,0,,0,,,72,127
71733,note_off,278,0,0,,0,,,72,127
71733,note_off,0,0,0,,4,,,64,127
71736,note_on,3,0,0,,2,,,62,127
71736,note_on,0,0,0,,11,,,70,127
72014,note_off,278,0,0,,11,,,70,127
72014,note_off,0,0,0,,2,,,62,127
72017,note_on,3,0,0,,1,,,61,127
72017,note_on,0,0,0,,10,,,69,127
72292,note_off,275,0,0,,7,,,67,127
72295,note_off,3,0,0,,1,,,61,127
72298,note_on,3,0,0,,5,,,65,127
72298,note_on,0,0,0,,10,,,57,127
72427,note_off,129,0,0,,5,,,65,127
72439,note_on,12,0,0,,4,,,64,127
72568,note_off,129,0,0,,4,,,64,127
72577,note_off,9,0,0,,10,,,57,127
72580,note_on,3,0,0,,5,,,65,127
72580,note_on,0,0,0,,2,,,62,127
72855,note_off,275,0,0,,10,,,69,127
72861,note_on,6,0,0,,12,,,71,127
72990,note_off,129,0,0,,12,,,71,127
73002,note_on,12,0,0,,0,,,72,127
73131,note_off,129,0,0,,0,,,72,127
73137,note_off,6,0,0,,5,,,65,127
73143,note_on,6,0,0,,2,,,74,127
73418,note_off,275,0,0,,2,,,62,127
73421,note_off,3,0,0,,2,,,74,127
73424,note_on,3,0,0,,4,,,64,127
73424,note_on,0,0,0,,0,,,72,127
73553,note_off,129,0,0,,4,,,64,127
73565,note_on,12,0,0,,5,,,65,127
73694,note_off,129,0,0,,5,,,65,127
73703,note_off,9,0,0,,0,,,72,127
73706,note_on,3,0,0,,12,,,71,127
73706,note_on,0,0,0,,7,,,67,127
73706,note_on,0,0,0,,2,,,74,127
73984,note_off,278,0,0,,7,,,67,127
73984,note_off,0,0,0,,12,,,71,127
73987,note_on,3,0,0,,10,,,69,127
73987,note_on,0,0,0,,5,,,65,127
74265,note_off,278,0,0,,5,,,65,127
74265,note_off,0,0,0,,10,,,69,127
74268,note_on,3,0,0,,8,,,68,127
74268,note_on,0,0,0,,4,,,64,127
74546,note_off,278,0,0,,4,,,64,127
74549,note_on,3,0,0,,2,,,62,127
74678,note_off,129,0,0,,2,,,62,127
74690,note_on,12,0,0,,4,,,64,127
74819,note_off,129,0,0,,4,,,64,127
74825,note_off,6,0,0,,8,,,68,127
74825,note_off,0,0,0,,2,,,74,127
74831,note_on,6,0,0,,10,,,69,127
74831,note_on,0,0,0,,5,,,65,127
74831,note_on,0,0,0,,0,,,72,127
75109,note_off,278,0,0,,5,,,65,127
75112,note_on,3,0,0,,4,,,64,127
75387,note_off,275,0,0,,0,,,72,127
75390,note_off,3,0,0,,4,,,64,127
75393,note_on,3,0,0,,2,,,62,127
75393,note_on,0,0,0,,12,,,71,127
75671,note_off,278,0,0,,2,,,62,127
75674,note_on,3,0,0,,0,,,60,127
75803,note_off,129,0,0,,0,,,60,127
75815,note_on,12,0,0,,2,,,62,127
75944,note_off,129,0,0,,2,,,62,127
75950,note_off,6,0,0,,10,,,69,127
75956,note_on,6,0,0,,8,,,68,127
75956,note_on,0,0,0,,4,,,64,127
76234,note_off,278,0,0,,4,,,64,127
76237,note_on,3,0,0,,2,,,62,127
76510,note_off,273,0,0,,2,,,62,127
76512,note_off,2,0,0,,8,,,68,127
76512,note_off,0,0,0,,12,,,71,127
76526,note_on,14,0,0,,10,,,69,127
76526,note_on,0,0,0,,0,,,60,127
76526,note_on,0,0,0,,10,,,81,127
76804,note_off,278,0,0,,0,,,60,127
76807,note_on,3,0,0,,12,,,59,127
77085,note_off,278,0,0,,12,,,59,127
77088,note_on,3,0,0,,0,,,60,127
77366,note_off,278,0,0,,0,,,60,127
77369,note_on,3,0,0,,2,,,62,127
77624,note_off,255,0,0,,10,,,81,127
77644,note_off,20,0,0,,10,,,69,127
77647,note_off,3,0,0,,2,,,62,127
77650,note_on,3,0,0,,8,,,68,127
77650,note_on,0,0,0,,4,,,64,127
77650,note_on,0,0,0,,4,,,76,127
77928,note_off,278,0,0,,4,,,64,127
77928,note_off,0,0,0,,8,,,68,127
77931,note_on,3,0,0,,10,,,69,127
77931,note_on,0,0,0,,6,,,66,127
78209,note_off,278,0,0,,6,,,66,127
78209,note_off,0,0,0,,10,,,69,127
78212,note_on,3,0,0,,12,,,71,127
78212,note_on,0,0,0,,8,,,68,127
78490,note_off,278,0,0,,8,,,68,127
78493,note_on,3,0,0,,4,,,64,127
78748,note_off,255,0,0,,4,,,76,127
78768,note_off,20,0,0,,12,,,71,127
78771,note_off,3,0,0,,4,,,64,127
78774,note_on,3,0,0,,0,,,72,127
78774,note_on,0,0,0,,10,,,57,127
79055,note_on,281,0,0,,10,,,69,127
79330,note_off,275,0,0,,0,,,72,127
79333,note_off,3,0,0,,10,,,69,127
79336,note_on,3,0,0,,10,,,69,127
79336,note_on,0,0,0,,10,,,81,127
79611,note_off,275,0,0,,10,,,57,127
79614,note_off,3,0,0,,10,,,81,127
79617,note_on,3,0,0,,12,,,59,127
79617,note_on,0,0,0,,7,,,79,127
79746,note_off,129,0,0,,12,,,59,127
79758,note_on,12,0,0,,0,,,60,127
79887,note_off,129,0,0,,0,,,60,127
79896,note_off,9,0,0,,7,,,79,127
79899,note_on,3,0,0,,2,,,62,127
79899,note_on,0,0,0,,5,,,77,127
80159,note_off,260,0,0,,5,,,77,127
80177,note_off,18,0,0,,2,,,62,127
80180,note_on,3,0,0,,0,,,60,127
80180,note_on,0,0,0,,4,,,76,127
80440,note_off,260,0,0,,4,,,76,127
80458,note_off,18,0,0,,0,,,60,127
80461,note_on,3,0,0,,12,,,59,127
80461,note_on,0,0,0,,2,,,74,127
80736,note_off,275,0,0,,10,,,69,127
80739,note_off,3,0,0,,12,,,59,127
80742,note_on,3,0,0,,7,,,67,127
80742,note_on,0,0,0,,10,,,57,127
80871,note_off,129,0,0,,7,,,67,127
80883,note_on,12,0,0,,5,,,65,127
81012,note_off,129,0,0,,5,,,65,127
81021,note_off,9,0,0,,10,,,57,127
81024,note_on,3,0,0,,4,,,64,127
81024,note_on,0,0,0,,8,,,56,127
81302,note_off,278,0,0,,8,,,56,127
81302,note_off,0,0,0,,4,,,64,127
81305,note_on,3,0,0,,8,,,68,127
81305,note_on,0,0,0,,4,,,52,127
81580,note_off,275,0,0,,2,,,74,127
81583,note_off,3,0,0,,4,,,52,127
81583,note_off,0,0,0,,8,,,68,127
81586,note_on,3,0,0,,10,,,69,127
81586,note_on,0,0,0,,5,,,53,127
81586,note_on,0,0,0,,0,,,72,127
81864,note_off,278,0,0,,5,,,53,127
81867,note_on,3,0,0,,4,,,52,127
82142,note_off,275,0,0,,0,,,72,127
82145,note_off,3,0,0,,4,,,52,127
82148,note_on,3,0,0,,2,,,50,127
82148,note_on,0,0,0,,12,,,71,127
82426,note_off,278,0,0,,2,,,50,127
82429,note_on,3,0,0,,0,,,48,127
82558,note_off,129,0,0,,0,,,48,127
82570,note_on,12,0,0,,2,,,50,127
82699,note_off,129,0,0,,2,,,50,127
82705,note_off,6,0,0,,10,,,69,127
82711,note_on,6,0,0,,8,,,68,127
82711,note_on,0,0,0,,4,,,52,127
82989,note_off,278,0,0,,4,,,52,127
82992,note_on,3,0,0,,2,,,50,127
83267,note_off,275,0,0,,8,,,68,127
83267,note_off,0,0,0,,12,,,71,127
83270,note_off,3,0,0,,2,,,50,127
83273,note_on,3,0,0,,10,,,69,127
83273,note_on,0,0,0,,0,,,48,127
83539,note_off,266,0,0,,0,,,48,127
83554,note_on,15,0,0,,10,,,45,127
83554,note_on,0,0,0,,4,,,76,127
83820,note_off,266,0,0,,10,,,45,127
83832,note_off,12,0,0,,4,,,76,127
83835,note_on,3,0,0,,10,,,57,127
83835,note_on,0,0,0,,5,,,77,127
84113,note_off,278,0,0,,5,,,77,127
84116,note_on,3,0,0,,4,,,76,127
84391,note_off,275,0,0,,10,,,69,127
84394,note_off,3,0,0,,4,,,76,127
84397,note_on,3,0,0,,11,,,70,127
84397,note_on,0,0,0,,2,,,74,127
84675,note_off,278,0,0,,2,,,74,127
84678,note_on,3,0,0,,1,,,73,127
84807,note_off,129,0,0,,1,,,73,127
84819,note_on,12,0,0,,2,,,74,127
84926,note_off,107,0,0,,10,,,57,127
84948,note_off,22,0,0,,2,,,74,127
84960,note_on,12,0,0,,7,,,55,127
84960,note_on,0,0,0,,4,,,76,127
85238,note_off,278,0,0,,4,,,76,127
85241,note_on,3,0,0,,2,,,74,127
85516,note_off,275,0,0,,11,,,70,127
85519,note_off,3,0,0,,2,,,74,127
85522,note_on,3,0,0,,1,,,73,127
85775,note_off,253,0,0,,7,,,55,127
85803,note_on,28,0,0,,10,,,69,127
85803,note_on,0,0,0,,10,,,57,127
86078,note_off,275,0,0,,1,,,73,127
86081,note_off,3,0,0,,10,,,57,127
86081,note_off,0,0,0,,10,,,69,127
86084,note_on,3,0,0,,7,,,67,127
86084,note_on,0,0,0,,11,,,58,127
86084,note_on,0,0,0,,2,,,74,127
86362,note_off,278,0,0,,11,,,58,127
86362,note_off,0,0,0,,7,,,67,127
86365,note_on,3,0,0,,5,,,65,127
86365,note_on,0,0,0,,10,,,57,127
86643,note_off,278,0,0,,10,,,57,127
86643,note_off,0,0,0,,5,,,65,127
86646,note_on,3,0,0,,4,,,64,127
86646,note_on,0,0,0,,7,,,55,127
86924,note_off,278,0,0,,7,,,55,127
86927,note_on,3,0,0,,5,,,53,127
87056,note_off,129,0,0,,5,,,53,127
87068,note_on,12,0,0,,7,,,55,127
87197,note_off,129,0,0,,7,,,55,127
87203,note_off,6,0,0,,2,,,74,127
87209,note_on,6,0,0,,10,,,57,127
87209,note_on,0,0,0,,1,,,73,127
87487,note_off,278,0,0,,10,,,57,127
87490,note_on,3,0,0,,7,,,55,127
87765,note_off,275,0,0,,1,,,73,127
87765,note_off,0,0,0,,4,,,64,127
87768,note_off,3,0,0,,7,,,55,127
87771,note_on,3,0,0,,5,,,65,127
87771,note_on,0,0,0,,5,,,53,127
87771,note_on,0,0,0,,2,,,74,127
88049,note_off,278,0,0,,2,,,74,127
88049,note_off,0,0,0,,5,,,53,127
88049,note_off,0,0,0,,5,,,65,127
88052,note_on,3,0,0,,7,,,67,127
88052,note_on,0,0,0,,4,,,52,127
88052,note_on,0,0,0,,4,,,76,127
88330,note_off,278,0,0,,4,,,76,127
88330,note_off,0,0,0,,4,,,52,127
88330,note_off,0,0,0,,7,,,67,127
88333,note_on,3,0,0,,10,,,69,127
88333,note_on,0,0,0,,2,,,50,127
88333,note_on,0,0,0,,5,,,77,127
88611,note_off,278,0,0,,5,,,77,127
88611,note_off,0,0,0,,2,,,50,127
88614,note_on,3,0,0,,4,,,52,127
88614,note_on,0,0,0,,7,,,79,127
88892,note_off,278,0,0,,7,,,79,127
88892,note_off,0,0,0,,4,,,52,127
88895,note_on,3,0,0,,5,,,53,127
88895,note_on,0,0,0,,10,,,81,127
89170,note_off,275,0,0,,10,,,69,127
89173,note_off,3,0,0,,5,,,53,127
89176,note_on,3,0,0,,12,,,71,127
89176,note_on,0,0,0,,7,,,55,127
89454,note_off,278,0,0,,7,,,55,127
89454,note_off,0,0,0,,12,,,71,127
89457,note_on,3,0,0,,1,,,73,127
89457,note_on,0,0,0,,10,,,57,127
89735,note_off,278,0,0,,10,,,57,127
89735,note_off,0,0,0,,1,,,73,127
89738,note_on,3,0,0,,2,,,74,127
89738,note_on,0,0,0,,12,,,59,127
90016,note_off,278,0,0,,12,,,59,127
90016,note_off,0,0,0,,2,,,74,127
90019,note_on,3,0,0,,4,,,76,127
90019,note_on,0,0,0,,1,,,61,127
90294,note_off,275,0,0,,10,,,81,127
90300,note_on,6,0,0,,7,,,79,127
90563,note_off,263,0,0,,7,,,79,127
90575,note_off,12,0,0,,1,,,61,127
90575,note_off,0,0,0,,4,,,76,127
90581,note_on,6,0,0,,2,,,74,127
90581,note_on,0,0,0,,2,,,62,127
90581,note_on,0,0,0,,5,,,77,127
90859,note_off,278,0,0,,2,,,62,127
90859,note_off,0,0,0,,2,,,74,127
90862,note_on,3,0,0,,0,,,72,127
90862,note_on,0,0,0,,4,,,64,127
90991,note_off,129,0,0,,4,,,64,127
91003,note_on,12,0,0,,5,,,65,127
91132,note_off,129,0,0,,5,,,65,127
91141,note_off,9,0,0,,0,,,72,127
91144,note_on,3,0,0,,11,,,70,127
91144,note_on,0,0,0,,7,,,67,127
91419,note_off,275,0,0,,5,,,77,127
91425,note_on,6,0,0,,4,,,76,127
91688,note_off,263,0,0,,4,,,76,127
91706,note_on,18,0,0,,2,,,74,127
91981,note_off,275,0,0,,7,,,67,127
91981,note_off,0,0,0,,11,,,70,127
91987,note_on,6,0,0,,10,,,69,127
91987,note_on,0,0,0,,5,,,65,127
92265,note_off,278,0,0,,5,,,65,127
92265,note_off,0,0,0,,10,,,69,127
92268,note_on,3,0,0,,7,,,67,127
92268,note_on,0,0,0,,4,,,64,127
92543,note_off,275,0,0,,2,,,74,127
92549,note_on,6,0,0,,0,,,72,127
92812,note_off,263,0,0,,0,,,72,127
92830,note_on,18,0,0,,11,,,70,127
93105,note_off,275,0,0,,4,,,64,127
93105,note_off,0,0,0,,7,,,67,127
93111,note_on,6,0,0,,5,,,65,127
93111,note_on,0,0,0,,2,,,62,127
93389,note_off,278,0,0,,2,,,62,127
93389,note_off,0,0,0,,5,,,65,127
93392,note_on,3,0,0,,4,,,64,127
93392,note_on,0,0,0,,1,,,61,127
93667,note_off,275,0,0,,11,,,70,127
93673,note_on,6,0,0,,10,,,69,127
93802,note_off,129,0,0,,10,,,69,127
93814,note_on,12,0,0,,7,,,67,127
93943,note_off,129,0,0,,7,,,67,127
93949,note_off,6,0,0,,4,,,64,127
93955,note_on,6,0,0,,5,,,65,127
93955,note_on,0,0,0,,4,,,76,127
94230,note_off,275,0,0,,1,,,61,127
94233,note_off,3,0,0,,5,,,65,127
94236,note_on,3,0,0,,4,,,64,127
94236,note_on,0,0,0,,12,,,59,127
94365,note_off,129,0,0,,12,,,59,127
94377,note_on,12,0,0,,1,,,61,127
94506,note_off,129,0,0,,1,,,61,127
94515,note_off,9,0,0,,4,,,64,127
94518,note_on,3,0,0,,5,,,65,127
94518,note_on,0,0,0,,2,,,62,127
94518,note_on,0,0,0,,10,,,57,127
94793,note_off,275,0,0,,4,,,76,127
94799,note_on,6,0,0,,10,,,69,127
95074,note_off,275,0,0,,2,,,62,127
95077,note_off,3,0,0,,10,,,69,127
95080,note_on,3,0,0,,2,,,74,127
95355,note_off,275,0,0,,5,,,65,127
95361,note_on,6,0,0,,7,,,67,127
95490,note_off,129,0,0,,7,,,67,127
95502,note_on,12,0,0,,5,,,65,127
95631,note_off,129,0,0,,5,,,65,127
95637,note_off,6,0,0,,10,,,57,127
95643,note_on,6,0,0,,4,,,64,127
95643,note_on,0,0,0,,10,,,45,127
95643,note_on,0,0,0,,10,,,57,127
95918,note_off,275,0,0,,2,,,74,127
95924,note_on,6,0,0,,1,,,73,127
96053,note_off,129,0,0,,1,,,73,127
96065,note_on,12,0,0,,2,,,74,127
96194,note_off,129,0,0,,2,,,74,127
96206,note_on,12,0,0,,4,,,76,127
96484,note_off,278,0,0,,4,,,76,127
96487,note_on,3,0,0,,1,,,73,127
96762,note_off,275,0,0,,10,,,57,127
96762,note_off,0,0,0,,10,,,45,127
96762,note_off,0,0,0,,4,,,64,127
96765,note_off,3,0,0,,1,,,73,127
96768,note_on,3,0,0,,5,,,65,127
96768,note_on,0,0,0,,5,,,41,127
96768,note_on,0,0,0,,2,,,74,127
97046,note_off,278,0,0,,5,,,41,127
97049,note_on,3,0,0,,2,,,38,127
97327,note_off,278,0,0,,2,,,38,127
97330,note_on,3,0,0,,2,,,50,127
97605,note_off,275,0,0,,2,,,74,127
97605,note_off,0,0,0,,5,,,65,127
97608,note_off,3,0,0,,2,,,50,127
97611,note_on,3,0,0,,4,,,64,127
97611,note_on,0,0,0,,4,,,52,127
97611,note_on,0,0,0,,0,,,72,127
97740,note_off,129,0,0,,4,,,52,127
97752,note_on,12,0,0,,5,,,53,127
97881,note_off,129,0,0,,5,,,53,127
97890,note_off,9,0,0,,0,,,72,127
97890,note_off,0,0,0,,4,,,64,127
97893,note_on,3,0,0,,2,,,62,127
97893,note_on,0,0,0,,7,,,55,127
97893,note_on,0,0,0,,11,,,70,127
98171,note_off,278,0,0,,7,,,55,127
98171,note_off,0,0,0,,2,,,62,127
98174,note_on,3,0,0,,4,,,64,127
98174,note_on,0,0,0,,5,,,53,127
98303,note_off,129,0,0,,4,,,64,127
98315,note_on,12,0,0,,5,,,65,127
98444,note_off,129,0,0,,5,,,65,127
98453,note_off,9,0,0,,5,,,53,127
98456,note_on,3,0,0,,7,,,67,127
98456,note_on,0,0,0,,4,,,52,127
98734,note_off,278,0,0,,4,,,52,127
98737,note_on,3,0,0,,2,,,50,127
99012,note_off,275,0,0,,11,,,70,127
99015,note_off,3,0,0,,2,,,50,127
99018,note_on,3,0,0,,1,,,49,127
99018,note_on,0,0,0,,10,,,69,127
99293,note_off,275,0,0,,7,,,67,127
99296,note_off,3,0,0,,1,,,49,127
99299,note_on,3,0,0,,5,,,65,127
99299,note_on,0,0,0,,10,,,45,127
99428,note_off,129,0,0,,5,,,65,127
99440,note_on,12,0,0,,4,,,64,127
99569,note_off,129,0,0,,4,,,64,127
99578,note_off,9,0,0,,10,,,45,127
99581,note_on,3,0,0,,2,,,62,127
99581,note_on,0,0,0,,11,,,46,127
99856,note_off,275,0,0,,10,,,69,127
99859,note_off,3,0,0,,11,,,46,127
99862,note_on,3,0,0,,10,,,45,127
99862,note_on,0,0,0,,7,,,67,127
99991,note_off,129,0,0,,7,,,67,127
100003,note_on,12,0,0,,5,,,65,127
100132,note_off,129,0,0,,5,,,65,127
100141,note_off,9,0,0,,10,,,45,127
100144,note_on,3,0,0,,7,,,43,127
100144,note_on,0,0,0,,4,,,64,127
100422,note_off,278,0,0,,7,,,43,127
100425,note_on,3,0,0,,5,,,41,127
100554,note_off,129,0,0,,5,,,41,127
100566,note_on,12,0,0,,7,,,43,127
100695,note_off,129,0,0,,7,,,43,127
100701,note_off,6,0,0,,4,,,64,127
100701,note_off,0,0,0,,2,,,62,127
100707,note_on,6,0,0,,1,,,61,127
100707,note_on,0,0,0,,10,,,45,127
100707,note_on,0,0,0,,10,,,69,127
100985,note_off,278,0,0,,10,,,45,127
100988,note_on,3,0,0,,7,,,43,127
101263,note_off,275,0,0,,1,,,61,127
101266,note_off,3,0,0,,7,,,43,127
101269,note_on,3,0,0,,2,,,62,127
101269,note_on,0,0,0,,5,,,41,127
101544,note_off,275,0,0,,10,,,69,127
101547,note_off,3,0,0,,5,,,41,127
101550,note_on,3,0,0,,2,,,38,127
101550,note_on,0,0,0,,7,,,67,127
101679,note_off,129,0,0,,7,,,67,127
101691,note_on,12,0,0,,10,,,69,127
101820,note_off,129,0,0,,10,,,69,127
101826,note_off,6,0,0,,2,,,62,127
101829,note_off,3,0,0,,2,,,38,127
101832,note_on,3,0,0,,11,,,70,127
101832,note_on,0,0,0,,2,,,50,127
101832,note_on,0,0,0,,2,,,74,127
102110,note_off,278,0,0,,11,,,70,127
102113,note_on,3,0,0,,10,,,69,127
102388,note_off,275,0,0,,2,,,50,127
102391,note_off,3,0,0,,10,,,69,127
102394,note_on,3,0,0,,7,,,67,127
102394,note_on,0,0,0,,4,,,52,127
102669,note_off,275,0,0,,2,,,74,127
102675,note_on,6,0,0,,1,,,73,127
102804,note_off,129,0,0,,1,,,73,127
102816,note_on,12,0,0,,2,,,74,127
102945,note_off,129,0,0,,2,,,74,127
102951,note_off,6,0,0,,7,,,67,127
102957,note_on,6,0,0,,4,,,76,127
102957,note_on,0,0,0,,7,,,79,127
103232,note_off,275,0,0,,4,,,52,127
103235,note_off,3,0,0,,4,,,76,127
103238,note_on,3,0,0,,2,,,74,127
103238,note_on,0,0,0,,5,,,53,127
103367,note_off,129,0,0,,5,,,53,127
103379,note_on,12,0,0,,7,,,55,127
103508,note_off,129,0,0,,7,,,55,127
103517,note_off,9,0,0,,2,,,74,127
103520,note_on,3,0,0,,1,,,73,127
103520,note_on,0,0,0,,10,,,57,127
103795,note_off,275,0,0,,7,,,79,127
103801,note_on,6,0,0,,6,,,78,127
103930,note_off,129,0,0,,6,,,78,127
103942,note_on,12,0,0,,7,,,79,127
104071,note_off,129,0,0,,7,,,79,127
104077,note_off,6,0,0,,1,,,73,127
104083,note_on,6,0,0,,10,,,69,127
104083,note_on,0,0,0,,10,,,81,127
104358,note_off,275,0,0,,10,,,57,127
104361,note_off,3,0,0,,10,,,81,127
104364,note_on,3,0,0,,12,,,59,127
104364,note_on,0,0,0,,7,,,79,127
104493,note_off,129,0,0,,12,,,59,127
104505,note_on,12,0,0,,1,,,61,127
104634,note_off,129,0,0,,1,,,61,127
104643,note_off,9,0,0,,7,,,79,127
104646,note_on,3,0,0,,2,,,62,127
104646,note_on,0,0,0,,6,,,78,127
104924,note_off,278,0,0,,6,,,78,127
104924,note_off,0,0,0,,2,,,62,127
104927,note_on,3,0,0,,4,,,64,127
104927,note_on,0,0,0,,4,,,76,127
105202,note_off,275,0,0,,10,,,69,127
105205,note_off,3,0,0,,4,,,76,127
105205,note_off,0,0,0,,4,,,64,127
105208,note_on,3,0,0,,10,,,69,127
105208,note_on,0,0,0,,6,,,66,127
105208,note_on,0,0,0,,2,,,74,127
105486,note_off,278,0,0,,6,,,66,127
105489,note_on,3,0,0,,4,,,64,127
105618,note_off,129,0,0,,4,,,64,127
105630,note_on,12,0,0,,6,,,66,127
105759,note_off,129,0,0,,6,,,66,127
105765,note_off,6,0,0,,10,,,69,127
105771,note_on,6,0,0,,11,,,70,127
105771,note_on,0,0,0,,7,,,67,127
106046,note_off,275,0,0,,2,,,74,127
106052,note_on,6,0,0,,0,,,72,127
106181,note_off,129,0,0,,0,,,72,127
106193,note_on,12,0,0,,2,,,74,127
106322,note_off,129,0,0,,2,,,74,127
106334,note_on,12,0,0,,3,,,75,127
106609,note_off,275,0,0,,7,,,67,127
106612,note_off,3,0,0,,3,,,75,127
106615,note_on,3,0,0,,6,,,66,127
106615,note_on,0,0,0,,2,,,74,127
106744,note_off,129,0,0,,6,,,66,127
106756,note_on,12,0,0,,7,,,67,127
106768,note_off,12,0,0,,11,,,70,127
106885,note_off,117,0,0,,7,,,67,127
106894,note_off,9,0,0,,2,,,74,127
106897,note_on,3,0,0,,10,,,69,127
106897,note_on,0,0,0,,0,,,72,127
107175,note_off,278,0,0,,10,,,69,127
107178,note_on,3,0,0,,7,,,67,127
107178,note_on,0,0,0,,11,,,70,127
107453,note_off,275,0,0,,0,,,72,127
107456,note_off,3,0,0,,11,,,70,127
107456,note_off,0,0,0,,7,,,67,127
107459,note_on,3,0,0,,10,,,69,127
107459,note_on,0,0,0,,6,,,66,127
107459,note_on,0,0,0,,0,,,72,127
107737,note_off,278,0,0,,6,,,66,127
107737,note_off,0,0,0,,10,,,69,127
107740,note_on,3,0,0,,7,,,67,127
107740,note_on,0,0,0,,4,,,64,127
108018,note_off,278,0,0,,4,,,64,127
108018,note_off,0,0,0,,7,,,67,127
108021,note_on,3,0,0,,10,,,69,127
108021,note_on,0,0,0,,6,,,66,127
108296,note_off,275,0,0,,0,,,72,127
108302,note_on,6,0,0,,11,,,70,127
108431,note_off,129,0,0,,11,,,70,127
108443,note_on,12,0,0,,0,,,72,127
108572,note_off,129,0,0,,0,,,72,127
108578,note_off,6,0,0,,10,,,69,127
108584,note_on,6,0,0,,2,,,74,127
108859,note_off,275,0,0,,6,,,66,127
108862,note_off,3,0,0,,2,,,74,127
108865,note_on,3,0,0,,4,,,64,127
108865,note_on,0,0,0,,0,,,72,127
108994,note_off,129,0,0,,4,,,64,127
109006,note_on,12,0,0,,6,,,66,127
109135,note_off,129,0,0,,6,,,66,127
109144,note_off,9,0,0,,0,,,72,127
109147,note_on,3,0,0,,2,,,74,127
109147,note_on,0,0,0,,7,,,67,127
109147,note_on,0,0,0,,11,,,70,127
109147,note_on,0,0,0,,7,,,79,127
109425,note_off,278,0,0,,11,,,70,127
109425,note_off,0,0,0,,7,,,67,127
109428,note_on,3,0,0,,10,,,69,127
109428,note_on,0,0,0,,5,,,65,127
109706,note_off,278,0,0,,5,,,65,127
109706,note_off,0,0,0,,10,,,69,127
109709,note_on,3,0,0,,3,,,63,127
109709,note_on,0,0,0,,7,,,67,127
109984,note_off,275,0,0,,2,,,74,127
109990,note_on,6,0,0,,0,,,72,127
110142,note_off,152,0,0,,7,,,79,127
110265,note_off,123,0,0,,7,,,67,127
110265,note_off,0,0,0,,3,,,63,127
110268,note_off,3,0,0,,0,,,72,127
110271,note_on,3,0,0,,11,,,70,127
110271,note_on,0,0,0,,2,,,62,127
110271,note_on,0,0,0,,2,,,74,127
110549,note_off,278,0,0,,11,,,70,127
110552,note_on,3,0,0,,10,,,69,127
110552,note_on,0,0,0,,6,,,66,127
110681,note_off,129,0,0,,6,,,66,127
110681,note_off,0,0,0,,10,,,69,127
110693,note_on,12,0,0,,7,,,67,127
110693,note_on,0,0,0,,4,,,64,127
110822,note_off,129,0,0,,4,,,64,127
110822,note_off,0,0,0,,7,,,67,127
110834,note_on,12,0,0,,10,,,69,127
110834,note_on,0,0,0,,6,,,66,127
111109,note_off,275,0,0,,2,,,62,127
111115,note_on,6,0,0,,2,,,50,127
111267,note_off,152,0,0,,2,,,74,127
111390,note_off,123,0,0,,6,,,66,127
111390,note_off,0,0,0,,10,,,69,127
111393,note_off,3,0,0,,2,,,50,127
111396,note_on,3,0,0,,7,,,43,127
111396,note_on,0,0,0,,11,,,70,127
111677,note_on,281,0,0,,7,,,67,127
111952,note_off,275,0,0,,11,,,70,127
111952,note_off,0,0,0,,7,,,43,127
111958,note_on,6,0,0,,7,,,79,127
112233,note_off,275,0,0,,7,,,67,127
112236,note_off,3,0,0,,7,,,79,127
112239,note_on,3,0,0,,5,,,77,127
112239,note_on,0,0,0,,10,,,81,127
112368,note_off,129,0,0,,10,,,81,127
112380,note_on,12,0,0,,11,,,82,127
112509,note_off,129,0,0,,11,,,82,127
112518,note_off,9,0,0,,5,,,77,127
112521,note_on,3,0,0,,3,,,75,127
112521,note_on,0,0,0,,0,,,84,127
112799,note_off,278,0,0,,0,,,84,127
112799,note_off,0,0,0,,3,,,75,127
112802,note_on,3,0,0,,2,,,74,127
112802,note_on,0,0,0,,11,,,82,127
113080,note_off,278,0,0,,11,,,82,127
113080,note_off,0,0,0,,2,,,74,127
113083,note_on,3,0,0,,0,,,72,127
113083,note_on,0,0,0,,10,,,81,127
113361,note_off,278,0,0,,10,,,81,127
113361,note_off,0,0,0,,0,,,72,127
113364,note_on,3,0,0,,11,,,70,127
113364,note_on,0,0,0,,7,,,79,127
113642,note_off,278,0,0,,7,,,79,127
113642,note_off,0,0,0,,11,,,70,127
113645,note_on,3,0,0,,10,,,69,127
113645,note_on,0,0,0,,6,,,78,127
113926,note_on,281,0,0,,2,,,62,127
113926,note_on,0,0,0,,2,,,74,127
114201,note_off,275,0,0,,6,,,78,127
114201,note_off,0,0,0,,10,,,69,127
114204,note_off,3,0,0,,2,,,74,127
114204,note_off,0,0,0,,2,,,62,127
114207,note_on,3,0,0,,0,,,72,127
114207,note_on,0,0,0,,3,,,63,127
114207,note_on,0,0,0,,7,,,79,127
114485,note_off,278,0,0,,3,,,63,127
114485,note_off,0,0,0,,0,,,72,127
114488,note_on,3,0,0,,11,,,70,127
114488,note_on,0,0,0,,2,,,62,127
114766,note_off,278,0,0,,2,,,62,127
114766,note_off,0,0,0,,11,,,70,127
114769,note_on,3,0,0,,10,,,69,127
114769,note_on,0,0,0,,0,,,60,127
115047,note_off,278,0,0,,0,,,60,127
115050,note_on,3,0,0,,11,,,58,127
115179,note_off,129,0,0,,11,,,58,127
115191,note_on,12,0,0,,0,,,60,127
115320,note_off,129,0,0,,0,,,60,127
115326,note_off,6,0,0,,7,,,79,127
115332,note_on,6,0,0,,2,,,62,127
115332,note_on,0,0,0,,6,,,78,127
115610,note_off,278,0,0,,2,,,62,127
115613,note_on,3,0,0,,0,,,60,127
115888,note_off,275,0,0,,6,,,78,127
115888,note_off,0,0,0,,10,,,69,127
115891,note_off,3,0,0,,0,,,60,127
115894,note_on,3,0,0,,7,,,67,127
115894,note_on,0,0,0,,11,,,58,127
115894,note_on,0,0,0,,7,,,79,127
116175,note_on,281,0,0,,2,,,74,127
116450,note_off,275,0,0,,7,,,79,127
116450,note_off,0,0,0,,11,,,58,127
116450,note_off,0,0,0,,7,,,67,127
116453,note_off,3,0,0,,2,,,74,127
116456,note_on,3,0,0,,3,,,63,127
116456,note_on,0,0,0,,7,,,67,127
116456,note_on,0,0,0,,7,,,55,127
116456,note_on,0,0,0,,3,,,75,127
116734,note_off,278,0,0,,3,,,75,127
116737,note_on,3,0,0,,2,,,74,127
117012,note_off,275,0,0,,7,,,55,127
117015,note_off,3,0,0,,2,,,74,127
117018,note_on,3,0,0,,10,,,57,127
117018,note_on,0,0,0,,0,,,72,127
117293,note_off,275,0,0,,7,,,67,127
117299,note_on,6,0,0,,6,,,66,127
117428,note_off,129,0,0,,6,,,66,127
117440,note_on,12,0,0,,7,,,67,127
117569,note_off,129,0,0,,7,,,67,127
117575,note_off,6,0,0,,0,,,72,127
117575,note_off,0,0,0,,10,,,57,127
117581,note_on,6,0,0,,10,,,69,127
117581,note_on,0,0,0,,0,,,60,127
117581,note_on,0,0,0,,0,,,72,127
117859,note_off,278,0,0,,10,,,69,127
117862,note_on,3,0,0,,7,,,67,127
118137,note_off,275,0,0,,0,,,60,127
118137,note_off,0,0,0,,3,,,63,127
118140,note_off,3,0,0,,7,,,67,127
118143,note_on,3,0,0,,6,,,66,127
118143,note_on,0,0,0,,2,,,62,127
118418,note_off,275,0,0,,0,,,72,127
118424,note_on,6,0,0,,11,,,70,127
118553,note_off,129,0,0,,11,,,70,127
118565,note_on,12,0,0,,0,,,72,127
118694,note_off,129,0,0,,0,,,72,127
118700,note_off,6,0,0,,2,,,62,127
118706,note_on,6,0,0,,6,,,54,127
118706,note_on,0,0,0,,2,,,74,127
118984,note_off,278,0,0,,2,,,74,127
118987,note_on,3,0,0,,0,,,72,127
119262,note_off,275,0,0,,6,,,54,127
119262,note_off,0,0,0,,6,,,66,127
119265,note_off,3,0,0,,0,,,72,127
119268,note_on,3,0,0,,7,,,55,127
119268,note_on,0,0,0,,12,,,71,127
119549,note_on,281,0,0,,7,,,67,127
119707,note_off,158,0,0,,12,,,71,127
119824,note_off,117,0,0,,7,,,55,127
119827,note_off,3,0,0,,7,,,67,127
119830,note_on,3,0,0,,5,,,65,127
119830,note_on,0,0,0,,8,,,56,127
119830,note_on,0,0,0,,0,,,72,127
120108,note_off,278,0,0,,5,,,65,127
120111,note_on,3,0,0,,0,,,60,127
120386,note_off,275,0,0,,8,,,56,127
120389,note_off,3,0,0,,0,,,60,127
120392,note_on,3,0,0,,3,,,63,127
120392,note_on,0,0,0,,7,,,55,127
120667,note_off,275,0,0,,0,,,72,127
120670,note_off,3,0,0,,3,,,63,127
120673,note_on,3,0,0,,2,,,62,127
120673,note_on,0,0,0,,12,,,71,127
120802,note_off,129,0,0,,12,,,71,127
120802,note_off,0,0,0,,2,,,62,127
120814,note_on,12,0,0,,0,,,60,127
120814,note_on,0,0,0,,10,,,69,127
120943,note_off,129,0,0,,10,,,69,127
120943,note_off,0,0,0,,0,,,60,127
120955,note_on,12,0,0,,2,,,62,127
120955,note_on,0,0,0,,12,,,71,127
121230,note_off,275,0,0,,7,,,55,127
121236,note_on,6,0,0,,5,,,53,127
121496,note_off,260,0,0,,12,,,71,127
121496,note_off,0,0,0,,2,,,62,127
121514,note_off,18,0,0,,5,,,53,127
121517,note_on,3,0,0,,3,,,75,127
121517,note_on,0,0,0,,7,,,55,127
121517,note_on,0,0,0,,3,,,51,127
121517,note_on,0,0,0,,0,,,84,127
121795,note_off,278,0,0,,3,,,75,127
121798,note_on,3,0,0,,2,,,74,127
122073,note_off,275,0,0,,3,,,51,127
122073,note_off,0,0,0,,7,,,55,127
122076,note_off,3,0,0,,2,,,74,127
122079,note_on,3,0,0,,0,,,72,127
122079,note_on,0,0,0,,8,,,56,127
122079,note_on,0,0,0,,0,,,60,127
122357,note_off,278,0,0,,0,,,60,127
122360,note_on,3,0,0,,2,,,62,127
122635,note_off,275,0,0,,8,,,56,127
122635,note_off,0,0,0,,0,,,84,127
122638,note_off,3,0,0,,2,,,62,127
122641,note_on,3,0,0,,3,,,63,127
122641,note_on,0,0,0,,7,,,55,127
122641,note_on,0,0,0,,7,,,79,127
122916,note_off,275,0,0,,0,,,72,127
122919,note_off,3,0,0,,3,,,63,127
122922,note_on,3,0,0,,12,,,71,127
122922,note_on,0,0,0,,2,,,62,127
123051,note_off,129,0,0,,12,,,71,127
123063,note_on,12,0,0,,0,,,72,127
123192,note_off,129,0,0,,0,,,72,127
123204,note_on,12,0,0,,2,,,74,127
123479,note_off,275,0,0,,2,,,62,127
123482,note_off,3,0,0,,2,,,74,127
123485,note_on,3,0,0,,12,,,71,127
123485,note_on,0,0,0,,7,,,67,127
123760,note_off,275,0,0,,7,,,79,127
123760,note_off,0,0,0,,7,,,55,127
123763,note_off,3,0,0,,7,,,67,127
123763,note_off,0,0,0,,12,,,71,127
123766,note_on,3,0,0,,7,,,67,127
123766,note_on,0,0,0,,0,,,60,127
123766,note_on,0,0,0,,3,,,75,127
124047,note_on,281,0,0,,0,,,72,127
124117,note_off,70,0,0,,3,,,75,127
124322,note_off,205,0,0,,7,,,67,127
124325,note_off,3,0,0,,0,,,72,127
124328,note_on,3,0,0,,0,,,84,127
124603,note_off,275,0,0,,0,,,60,127
124606,note_off,3,0,0,,0,,,84,127
124609,note_on,3,0,0,,2,,,62,127
124609,note_on,0,0,0,,11,,,82,127
124738,note_off,129,0,0,,2,,,62,127
124750,note_on,12,0,0,,3,,,63,127
124879,note_off,129,0,0,,3,,,63,127
124888,note_off,9,0,0,,11,,,82,127
124891,note_on,3,0,0,,0,,,72,127
124891,note_on,0,0,0,,5,,,65,127
124891,note_on,0,0,0,,5,,,53,127
124891,note_on,0,0,0,,10,,,81,127
125169,note_off,278,0,0,,10,,,81,127
125169,note_off,0,0,0,,0,,,72,127
125172,note_on,3,0,0,,11,,,70,127
125172,note_on,0,0,0,,7,,,79,127
125450,note_off,278,0,0,,7,,,79,127
125450,note_off,0,0,0,,11,,,70,127
125453,note_on,3,0,0,,10,,,69,127
125453,note_on,0,0,0,,5,,,77,127
125728,note_off,275,0,0,,5,,,53,127
125728,note_off,0,0,0,,5,,,65,127
125731,note_off,3,0,0,,5,,,77,127
125731,note_off,0,0,0,,10,,,69,127
125734,note_on,3,0,0,,0,,,72,127
125734,note_on,0,0,0,,7,,,55,127
125734,note_on,0,0,0,,3,,,75,127
125863,note_off,129,0,0,,7,,,55,127
125875,note_on,12,0,0,,10,,,57,127
126004,note_off,129,0,0,,10,,,57,127
126013,note_off,9,0,0,,3,,,75,127
126013,note_off,0,0,0,,0,,,72,127
126016,note_on,3,0,0,,2,,,74,127
126016,note_on,0,0,0,,11,,,58,127
126016,note_on,0,0,0,,5,,,65,127
126016,note_on,0,0,0,,11,,,82,127
126294,note_off,278,0,0,,11,,,58,127
126294,note_off,0,0,0,,2,,,74,127
126297,note_on,3,0,0,,0,,,72,127
126297,note_on,0,0,0,,0,,,60,127
126572,note_off,275,0,0,,5,,,65,127
126575,note_off,3,0,0,,0,,,60,127
126575,note_off,0,0,0,,0,,,72,127
126578,note_on,3,0,0,,11,,,70,127
126578,note_on,0,0,0,,2,,,50,127
126578,note_on,0,0,0,,2,,,62,127
126856,note_off,278,0,0,,2,,,62,127
126856,note_off,0,0,0,,2,,,50,127
126859,note_on,3,0,0,,3,,,51,127
127134,note_off,275,0,0,,11,,,82,127
127137,note_off,3,0,0,,3,,,51,127
127140,note_on,3,0,0,,5,,,53,127
127140,note_on,0,0,0,,5,,,77,127
127415,note_off,275,0,0,,11,,,70,127
127421,note_on,6,0,0,,10,,,69,127
127421,note_on,0,0,0,,0,,,60,127
127550,note_off,129,0,0,,10,,,69,127
127562,note_on,12,0,0,,11,,,70,127
127691,note_off,129,0,0,,11,,,70,127
127703,note_on,12,0,0,,0,,,72,127
127978,note_off,275,0,0,,0,,,60,127
127981,note_off,3,0,0,,0,,,72,127
127984,note_on,3,0,0,,10,,,69,127
127984,note_on,0,0,0,,5,,,65,127
128259,note_off,275,0,0,,5,,,77,127
128259,note_off,0,0,0,,5,,,53,127
128262,note_off,3,0,0,,5,,,65,127
128262,note_off,0,0,0,,10,,,69,127
128265,note_on,3,0,0,,5,,,65,127
128265,note_on,0,0,0,,11,,,58,127
128265,note_on,0,0,0,,2,,,74,127
128543,note_off,278,0,0,,2,,,74,127
128546,note_on,3,0,0,,11,,,70,127
128821,note_off,275,0,0,,5,,,65,127
128824,note_off,3,0,0,,11,,,70,127
128827,note_on,3,0,0,,2,,,74,127
128827,note_on,0,0,0,,11,,,82,127
129102,note_off,275,0,0,,11,,,58,127
129105,note_off,3,0,0,,11,,,82,127
129105,note_off,0,0,0,,2,,,74,127
129108,note_on,3,0,0,,0,,,72,127
129108,note_on,0,0,0,,0,,,60,127
129108,note_on,0,0,0,,10,,,81,127
129237,note_off,129,0,0,,0,,,60,127
129249,note_on,12,0,0,,2,,,62,127
129378,note_off,129,0,0,,2,,,62,127
129387,note_off,9,0,0,,10,,,81,127
129387,note_off,0,0,0,,0,,,72,127
129390,note_on,3,0,0,,11,,,70,127
129390,note_on,0,0,0,,4,,,64,127
129390,note_on,0,0,0,,7,,,79,127
129668,note_off,278,0,0,,7,,,79,127
129668,note_off,0,0,0,,11,,,70,127
129671,note_on,3,0,0,,10,,,69,127
129671,note_on,0,0,0,,5,,,77,127
129949,note_off,278,0,0,,5,,,77,127
129949,note_off,0,0,0,,10,,,69,127
129952,note_on,3,0,0,,7,,,67,127
129952,note_on,0,0,0,,4,,,76,127
130221,note_off,269,0,0,,4,,,64,127
130230,note_off,9,0,0,,7,,,67,127
130233,note_on,3,0,0,,11,,,70,127
130233,note_on,0,0,0,,2,,,74,127
130508,note_off,275,0,0,,4,,,76,127
130511,note_off,3,0,0,,2,,,74,127
130511,note_off,0,0,0,,11,,,70,127
130514,note_on,3,0,0,,1,,,73,127
130514,note_on,0,0,0,,10,,,57,127
130514,note_on,0,0,0,,10,,,69,127
130514,note_on,0,0,0,,10,,,81,127
130792,note_off,278,0,0,,10,,,57,127
130792,note_off,0,0,0,,1,,,73,127
130795,note_on,3,0,0,,12,,,71,127
130795,note_on,0,0,0,,12,,,59,127
131070,note_off,275,0,0,,10,,,69,127
131073,note_off,3,0,0,,12,,,59,127
131073,note_off,0,0,0,,12,,,71,127
131076,note_on,3,0,0,,10,,,69,127
131076,note_on,0,0,0,,1,,,61,127
131354,note_off,278,0,0,,1,,,61,127
131357,note_on,3,0,0,,2,,,62,127
131632,note_off,275,0,0,,10,,,81,127
131635,note_off,3,0,0,,2,,,62,127
131638,note_on,3,0,0,,4,,,52,127
131638,note_on,0,0,0,,1,,,61,127
131638,note_on,0,0,0,,4,,,76,127
131913,note_off,275,0,0,,10,,,69,127
131916,note_off,3,0,0,,1,,,61,127
131919,note_on,3,0,0,,8,,,68,127
131919,note_on,0,0,0,,12,,,59,127
132048,note_off,129,0,0,,8,,,68,127
132060,note_on,12,0,0,,10,,,69,127
132189,note_off,129,0,0,,10,,,69,127
132201,note_on,12,0,0,,12,,,71,127
132476,note_off,275,0,0,,12,,,59,127
132479,note_off,3,0,0,,12,,,71,127
132482,note_on,3,0,0,,8,,,68,127
132482,note_on,0,0,0,,4,,,64,127
132757,note_off,275,0,0,,4,,,76,127
132757,note_off,0,0,0,,4,,,52,127
132760,note_off,3,0,0,,4,,,64,127
132760,note_off,0,0,0,,8,,,68,127
132763,note_on,3,0,0,,10,,,57,127
132763,note_on,0,0,0,,4,,,64,127
132763,note_on,0,0,0,,1,,,73,127
133044,note_on,281,0,0,,10,,,69,127
133261,note_off,217,0,0,,1,,,73,127
133320,note_off,59,0,0,,4,,,64,127
133320,note_off,0,0,0,,10,,,57,127
133326,note_on,6,0,0,,11,,,58,127
133326,note_on,0,0,0,,2,,,74,127
133601,note_off,275,0,0,,10,,,69,127
133607,note_on,6,0,0,,7,,,67,127
133882,note_off,275,0,0,,11,,,58,127
133885,note_off,3,0,0,,7,,,67,127
133888,note_on,3,0,0,,5,,,65,127
133888,note_on,0,0,0,,10,,,57,127
134166,note_off,278,0,0,,5,,,65,127
134169,note_on,3,0,0,,4,,,64,127
134298,note_off,129,0,0,,4,,,64,127
134310,note_on,12,0,0,,2,,,62,127
134439,note_off,129,0,0,,2,,,62,127
134445,note_off,6,0,0,,2,,,74,127
134451,note_on,6,0,0,,4,,,64,127
134451,note_on,0,0,0,,1,,,73,127
134726,note_off,275,0,0,,10,,,57,127
134732,note_on,6,0,0,,7,,,55,127
135007,note_off,275,0,0,,1,,,73,127
135007,note_off,0,0,0,,4,,,64,127
135010,note_off,3,0,0,,7,,,55,127
135013,note_on,3,0,0,,5,,,65,127
135013,note_on,0,0,0,,10,,,57,127
135013,note_on,0,0,0,,5,,,53,127
135013,note_on,0,0,0,,2,,,74,127
135291,note_off,278,0,0,,2,,,74,127
135291,note_off,0,0,0,,5,,,53,127
135291,note_off,0,0,0,,5,,,65,127
135294,note_on,3,0,0,,7,,,67,127
135294,note_on,0,0,0,,4,,,52,127
135294,note_on,0,0,0,,4,,,76,127
135572,note_off,278,0,0,,4,,,76,127
135572,note_off,0,0,0,,4,,,52,127
135572,note_off,0,0,0,,7,,,67,127
135575,note_on,3,0,0,,10,,,69,127
135575,note_on,0,0,0,,2,,,50,127
135575,note_on,0,0,0,,5,,,77,127
135850,note_off,275,0,0,,10,,,57,127
135856,note_on,6,0,0,,12,,,59,127
136131,note_off,275,0,0,,2,,,50,127
136131,note_off,0,0,0,,10,,,69,127
136134,note_off,3,0,0,,12,,,59,127
136137,note_on,3,0,0,,10,,,69,127
136137,note_on,0,0,0,,0,,,60,127
136137,note_on,0,0,0,,0,,,48,127
136412,note_off,275,0,0,,5,,,77,127
136415,note_off,3,0,0,,10,,,69,127
136418,note_on,3,0,0,,7,,,67,127
136418,note_on,0,0,0,,4,,,76,127
136547,note_off,129,0,0,,4,,,76,127
136559,note_on,12,0,0,,2,,,74,127
136688,note_off,129,0,0,,2,,,74,127
136697,note_off,9,0,0,,7,,,67,127
136700,note_on,3,0,0,,7,,,67,127
136700,note_on,0,0,0,,4,,,76,127
136975,note_off,275,0,0,,0,,,60,127
136981,note_on,6,0,0,,11,,,58,127
137133,note_off,152,0,0,,0,,,48,127
137256,note_off,123,0,0,,4,,,76,127
137256,note_off,0,0,0,,7,,,67,127
137259,note_off,3,0,0,,11,,,58,127
137262,note_on,3,0,0,,10,,,69,127
137262,note_on,0,0,0,,10,,,57,127
137262,note_on,0,0,0,,0,,,60,127
137262,note_on,0,0,0,,5,,,77,127
137540,note_off,278,0,0,,5,,,77,127
137540,note_off,0,0,0,,10,,,57,127
137543,note_on,3,0,0,,7,,,55,127
137543,note_on,0,0,0,,7,,,79,127
137821,note_off,278,0,0,,7,,,79,127
137821,note_off,0,0,0,,7,,,55,127
137824,note_on,3,0,0,,5,,,53,127
137824,note_on,0,0,0,,10,,,81,127
138099,note_off,275,0,0,,0,,,60,127
138099,note_off,0,0,0,,10,,,69,127
138105,note_on,6,0,0,,12,,,71,127
138105,note_on,0,0,0,,2,,,62,127
138380,note_off,275,0,0,,5,,,53,127
138383,note_off,3,0,0,,2,,,62,127
138383,note_off,0,0,0,,12,,,71,127
138386,note_on,3,0,0,,0,,,72,127
138386,note_on,0,0,0,,4,,,52,127
138386,note_on,0,0,0,,4,,,64,127
138664,note_off,278,0,0,,0,,,72,127
138667,note_on,3,0,0,,12,,,71,127
138796,note_off,129,0,0,,12,,,71,127
138808,note_on,12,0,0,,10,,,69,127
138937,note_off,129,0,0,,10,,,69,127
138943,note_off,6,0,0,,10,,,81,127
138949,note_on,6,0,0,,12,,,71,127
138949,note_on,0,0,0,,8,,,80,127
139224,note_off,275,0,0,,4,,,64,127
139230,note_on,6,0,0,,2,,,62,127
139382,note_off,152,0,0,,4,,,52,127
139505,note_off,123,0,0,,8,,,80,127
139505,note_off,0,0,0,,12,,,71,127
139508,note_off,3,0,0,,2,,,62,127
139511,note_on,3,0,0,,0,,,72,127
139511,note_on,0,0,0,,4,,,64,127
139511,note_on,0,0,0,,0,,,60,127
139511,note_on,0,0,0,,10,,,81,127
139789,note_off,278,0,0,,10,,,81,127
139789,note_off,0,0,0,,0,,,60,127
139792,note_on,3,0,0,,12,,,59,127
139792,note_on,0,0,0,,12,,,83,127
140070,note_off,278,0,0,,12,,,83,127
140070,note_off,0,0,0,,12,,,59,127
140073,note_on,3,0,0,,10,,,57,127
140073,note_on,0,0,0,,0,,,84,127
140348,note_off,275,0,0,,4,,,64,127
140348,note_off,0,0,0,,0,,,72,127
140354,note_on,6,0,0,,2,,,74,127
140354,note_on,0,0,0,,5,,,65,127
140629,note_off,275,0,0,,10,,,57,127
140632,note_off,3,0,0,,5,,,65,127
140632,note_off,0,0,0,,2,,,74,127
140635,note_on,3,0,0,,4,,,76,127
140635,note_on,0,0,0,,7,,,55,127
140635,note_on,0,0,0,,7,,,67,127
140913,note_off,278,0,0,,4,,,76,127
140916,note_on,3,0,0,,2,,,74,127
141045,note_off,129,0,0,,2,,,74,127
141057,note_on,12,0,0,,0,,,72,127
141186,note_off,129,0,0,,0,,,72,127
141192,note_off,6,0,0,,0,,,84,127
141198,note_on,6,0,0,,2,,,74,127
141198,note_on,0,0,0,,12,,,83,127
141473,note_off,275,0,0,,7,,,67,127
141479,note_on,6,0,0,,5,,,65,127
141631,note_off,152,0,0,,7,,,55,127
141754,note_off,123,0,0,,2,,,74,127
141757,note_off,3,0,0,,5,,,65,127
141760,note_on,3,0,0,,0,,,72,127
141760,note_on,0,0,0,,4,,,64,127
142035,note_off,275,0,0,,12,,,83,127
142041,note_on,6,0,0,,10,,,81,127
142170,note_off,129,0,0,,10,,,81,127
142182,note_on,12,0,0,,8,,,80,127
142311,note_off,129,0,0,,8,,,80,127
142317,note_off,6,0,0,,4,,,64,127
142323,note_on,6,0,0,,10,,,69,127
142323,note_on,0,0,0,,5,,,65,127
142323,note_on,0,0,0,,10,,,81,127
142598,note_off,275,0,0,,0,,,72,127
142601,note_off,3,0,0,,10,,,69,127
142604,note_on,3,0,0,,2,,,74,127
142604,note_on,0,0,0,,12,,,71,127
142879,note_off,275,0,0,,5,,,65,127
142882,note_off,3,0,0,,12,,,71,127
142882,note_off,0,0,0,,2,,,74,127
142885,note_on,3,0,0,,4,,,76,127
142885,note_on,0,0,0,,0,,,72,127
142885,note_on,0,0,0,,4,,,64,127
143163,note_off,278,0,0,,0,,,72,127
143166,note_on,3,0,0,,12,,,71,127
143295,note_off,129,0,0,,12,,,71,127
143307,note_on,12,0,0,,10,,,69,127
143436,note_off,129,0,0,,10,,,69,127
143442,note_off,6,0,0,,10,,,81,127
143448,note_on,6,0,0,,12,,,71,127
143448,note_on,0,0,0,,8,,,80,127
143723,note_off,275,0,0,,4,,,76,127
143729,note_on,6,0,0,,2,,,74,127
144004,note_off,275,0,0,,8,,,80,127
144004,note_off,0,0,0,,12,,,71,127
144004,note_off,0,0,0,,4,,,64,127
144007,note_off,3,0,0,,2,,,74,127
144010,note_on,3,0,0,,0,,,72,127
144010,note_on,0,0,0,,10,,,57,127
144010,note_on,0,0,0,,10,,,69,127
144010,note_on,0,0,0,,10,,,81,127
144288,note_off,278,0,0,,10,,,81,127
144291,note_on,3,0,0,,5,,,77,127
144569,note_off,278,0,0,,5,,,77,127
144572,note_on,3,0,0,,4,,,76,127
144847,note_off,275,0,0,,10,,,69,127
144847,note_off,0,0,0,,0,,,72,127
144853,note_on,6,0,0,,10,,,69,127
144853,note_on,0,0,0,,2,,,62,127
145128,note_off,275,0,0,,4,,,76,127
145128,note_off,0,0,0,,10,,,57,127
145131,note_off,3,0,0,,2,,,62,127
145134,note_on,3,0,0,,0,,,60,127
145134,note_on,0,0,0,,4,,,52,127
145134,note_on,0,0,0,,4,,,76,127
145409,note_off,275,0,0,,10,,,69,127
145415,note_on,6,0,0,,8,,,68,127
145544,note_off,129,0,0,,8,,,68,127
145556,note_on,12,0,0,,10,,,69,127
145685,note_off,129,0,0,,10,,,69,127
145691,note_off,6,0,0,,0,,,60,127
145697,note_on,6,0,0,,12,,,71,127
145697,note_on,0,0,0,,12,,,59,127
145975,note_off,278,0,0,,12,,,71,127
145978,note_on,3,0,0,,8,,,68,127
146253,note_off,275,0,0,,12,,,59,127
146253,note_off,0,0,0,,4,,,52,127
146256,note_off,3,0,0,,8,,,68,127
146259,note_on,3,0,0,,10,,,69,127
146259,note_on,0,0,0,,10,,,57,127
146259,note_on,0,0,0,,0,,,48,127
146537,note_off,278,0,0,,0,,,48,127
146537,note_off,0,0,0,,10,,,57,127
146540,note_on,3,0,0,,10,,,45,127
146815,note_off,275,0,0,,4,,,76,127
146818,note_off,3,0,0,,10,,,45,127
146821,note_on,3,0,0,,10,,,57,127
146821,note_on,0,0,0,,4,,,76,127
147096,note_off,275,0,0,,10,,,69,127
147099,note_off,3,0,0,,10,,,57,127
147102,note_on,3,0,0,,7,,,67,127
147102,note_on,0,0,0,,12,,,59,127
147231,note_off,129,0,0,,12,,,59,127
147243,note_on,12,0,0,,0,,,60,127
147372,note_off,129,0,0,,0,,,60,127
147381,note_off,9,0,0,,7,,,67,127
147384,note_on,3,0,0,,5,,,65,127
147384,note_on,0,0,0,,2,,,62,127
147662,note_off,278,0,0,,2,,,62,127
147665,note_on,3,0,0,,0,,,60,127
147940,note_off,275,0,0,,4,,,76,127
147943,note_off,3,0,0,,0,,,60,127
147946,note_on,3,0,0,,12,,,59,127
147946,note_on,0,0,0,,2,,,74,127
148224,note_off,278,0,0,,12,,,59,127
148227,note_on,3,0,0,,10,,,57,127
148502,note_off,275,0,0,,5,,,65,127
148505,note_off,3,0,0,,10,,,57,127
148508,note_on,3,0,0,,4,,,64,127
148508,note_on,0,0,0,,8,,,56,127
148786,note_off,278,0,0,,8,,,56,127
148786,note_off,0,0,0,,4,,,64,127
148789,note_on,3,0,0,,8,,,68,127
148789,note_on,0,0,0,,4,,,52,127
149064,note_off,275,0,0,,2,,,74,127
149067,note_off,3,0,0,,4,,,52,127
149067,note_off,0,0,0,,8,,,68,127
149070,note_on,3,0,0,,10,,,69,127
149070,note_on,0,0,0,,5,,,53,127
149070,note_on,0,0,0,,0,,,72,127
149348,note_off,278,0,0,,5,,,53,127
149351,note_on,3,0,0,,4,,,52,127
149626,note_off,275,0,0,,0,,,72,127
149629,note_off,3,0,0,,4,,,52,127
149632,note_on,3,0,0,,2,,,50,127
149632,note_on,0,0,0,,12,,,71,127
149910,note_off,278,0,0,,2,,,50,127
149913,note_on,3,0,0,,0,,,48,127
150042,note_off,129,0,0,,0,,,48,127
150054,note_on,12,0,0,,2,,,50,127
150183,note_off,129,0,0,,2,,,50,127
150189,note_off,6,0,0,,10,,,69,127
150195,note_on,6,0,0,,8,,,68,127
150195,note_on,0,0,0,,4,,,52,127
150473,note_off,278,0,0,,4,,,52,127
150476,note_on,3,0,0,,2,,,50,127
150751,note_off,275,0,0,,8,,,68,127
150751,note_off,0,0,0,,12,,,71,127
150754,note_off,3,0,0,,2,,,50,127
150757,note_on,3,0,0,,10,,,69,127
150757,note_on,0,0,0,,0,,,48,127
151035,note_off,278,0,0,,0,,,48,127
151038,note_on,3,0,0,,10,,,45,127
151038,note_on,0,0,0,,4,,,76,127
151313,note_off,275,0,0,,10,,,69,127
151316,note_off,3,0,0,,4,,,76,127
151319,note_on,3,0,0,,5,,,77,127
151319,note_on,0,0,0,,10,,,57,127
151319,note_on,0,0,0,,10,,,81,127
151597,note_off,278,0,0,,5,,,77,127
151600,note_on,3,0,0,,4,,,76,127
151860,note_off,260,0,0,,10,,,57,127
151872,note_off,12,0,0,,10,,,45,127
151878,note_off,6,0,0,,4,,,76,127
151881,note_on,3,0,0,,2,,,74,127
151881,note_on,0,0,0,,12,,,47,127
151881,note_on,0,0,0,,12,,,59,127
152156,note_off,275,0,0,,10,,,81,127
152162,note_on,6,0,0,,8,,,80,127
152291,note_off,129,0,0,,8,,,80,127
152303,note_on,12,0,0,,10,,,81,127
152423,note_off,120,0,0,,12,,,59,127
152423,note_off,0,0,0,,12,,,47,127
152432,note_off,9,0,0,,10,,,81,127
152444,note_on,12,0,0,,2,,,38,127
152444,note_on,0,0,0,,2,,,50,127
152444,note_on,0,0,0,,12,,,83,127
152649,note_off,205,0,0,,12,,,83,127
152725,note_on,76,0,0,,7,,,79,127
152930,note_off,205,0,0,,7,,,79,127
152983,note_off,53,0,0,,2,,,38,127
152986,note_off,3,0,0,,2,,,50,127
153006,note_on,20,0,0,,4,,,40,127
153006,note_on,0,0,0,,4,,,52,127
153006,note_on,0,0,0,,7,,,79,127
153281,note_off,275,0,0,,2,,,74,127
153287,note_on,6,0,0,,1,,,73,127
153416,note_off,129,0,0,,1,,,73,127
153428,note_on,12,0,0,,2,,,74,127
153548,note_off,120,0,0,,4,,,52,127
153548,note_off,0,0,0,,4,,,40,127
153557,note_off,9,0,0,,2,,,74,127
153569,note_on,12,0,0,,4,,,76,127
153569,note_on,0,0,0,,7,,,43,127
153569,note_on,0,0,0,,7,,,55,127
153847,note_off,278,0,0,,4,,,76,127
153850,note_on,3,0,0,,2,,,74,127
154110,note_off,260,0,0,,7,,,55,127
154110,note_off,0,0,0,,7,,,43,127
154128,note_off,18,0,0,,2,,,74,127
154131,note_on,3,0,0,,1,,,73,127
154131,note_on,0,0,0,,10,,,57,127
154131,note_on,0,0,0,,10,,,45,127
154406,note_off,275,0,0,,7,,,79,127
154412,note_on,6,0,0,,5,,,77,127
154541,note_off,129,0,0,,5,,,77,127
154553,note_on,12,0,0,,7,,,79,127
154682,note_off,129,0,0,,7,,,79,127
154688,note_off,6,0,0,,10,,,45,127
154694,note_on,6,0,0,,1,,,49,127
154694,note_on,0,0,0,,10,,,81,127
154938,note_off,244,0,0,,10,,,81,127
154975,note_on,37,0,0,,7,,,79,127
155219,note_off,244,0,0,,7,,,79,127
155250,note_off,31,0,0,,1,,,49,127
155250,note_off,0,0,0,,1,,,73,127
155256,note_on,6,0,0,,2,,,50,127
155256,note_on,0,0,0,,5,,,77,127
155534,note_off,278,0,0,,5,,,77,127
155537,note_on,3,0,0,,10,,,69,127
155537,note_on,0,0,0,,4,,,76,127
155812,note_off,275,0,0,,2,,,50,127
155812,note_off,0,0,0,,10,,,57,127
155815,note_off,3,0,0,,4,,,76,127
155815,note_off,0,0,0,,10,,,69,127
155818,note_on,3,0,0,,11,,,70,127
155818,note_on,0,0,0,,2,,,50,127
155818,note_on,0,0,0,,2,,,62,127
155818,note_on,0,0,0,,2,,,74,127
156096,note_off,278,0,0,,11,,,70,127
156099,note_on,3,0,0,,10,,,69,127
156359,note_off,260,0,0,,2,,,62,127
156359,note_off,0,0,0,,2,,,50,127
156377,note_off,18,0,0,,10,,,69,127
156380,note_on,3,0,0,,7,,,67,127
156380,note_on,0,0,0,,4,,,52,127
156380,note_on,0,0,0,,4,,,64,127
156655,note_off,275,0,0,,2,,,74,127
156661,note_on,6,0,0,,1,,,73,127
156790,note_off,129,0,0,,1,,,73,127
156802,note_on,12,0,0,,2,,,74,127
156922,note_off,120,0,0,,4,,,64,127
156922,note_off,0,0,0,,4,,,52,127
156931,note_off,9,0,0,,2,,,74,127
156943,note_on,12,0,0,,7,,,43,127
156943,note_on,0,0,0,,7,,,55,127
156943,note_on,0,0,0,,4,,,76,127
157177,note_off,234,0,0,,4,,,76,127
157224,note_on,47,0,0,,2,,,74,127
157458,note_off,234,0,0,,2,,,74,127
157484,note_off,26,0,0,,7,,,55,127
157484,note_off,0,0,0,,7,,,43,127
157504,note_on,20,0,0,,10,,,57,127
157504,note_on,0,0,0,,10,,,45,127
157504,note_on,0,0,0,,1,,,73,127
157779,note_off,275,0,0,,7,,,67,127
157785,note_on,6,0,0,,5,,,65,127
157914,note_off,129,0,0,,5,,,65,127
157926,note_on,12,0,0,,7,,,67,127
158055,note_off,129,0,0,,7,,,67,127
158067,note_on,12,0,0,,10,,,69,127
158345,note_off,278,0,0,,10,,,69,127
158348,note_on,3,0,0,,7,,,67,127
158623,note_off,275,0,0,,1,,,73,127
158623,note_off,0,0,0,,10,,,45,127
158623,note_off,0,0,0,,10,,,57,127
158626,note_off,3,0,0,,7,,,67,127
158637,note_on,11,0,0,,5,,,65,127
158637,note_on,0,0,0,,2,,,62,127
158637,note_on,0,0,0,,2,,,74,127
158915,note_off,278,0,0,,2,,,74,127
158918,note_on,3,0,0,,10,,,69,127
159196,note_off,278,0,0,,10,,,69,127
159199,note_on,3,0,0,,2,,,74,127
159474,note_off,275,0,0,,5,,,65,127
159480,note_on,6,0,0,,4,,,64,127
159588,note_off,108,0,0,,2,,,62,127
159608,note_off,20,0,0,,4,,,64,127
159620,note_on,12,0,0,,2,,,62,127
159760,note_off,140,0,0,,2,,,62,127
159760,note_on,0,0,0,,4,,,64,127
159760,note_on,0,0,0,,10,,,57,127
160035,note_off,275,0,0,,2,,,74,127
160041,note_on,6,0,0,,1,,,73,127
160170,note_off,129,0,0,,1,,,73,127
160182,note_on,12,0,0,,2,,,74,127
160311,note_off,129,0,0,,2,,,74,127
160323,note_on,12,0,0,,4,,,76,127
160601,note_off,278,0,0,,4,,,76,127
160604,note_on,3,0,0,,1,,,73,127
160756,note_off,152,0,0,,10,,,57,127
160879,note_off,123,0,0,,4,,,64,127
160882,note_off,3,0,0,,1,,,73,127
160885,note_on,3,0,0,,2,,,62,127
160885,note_on,0,0,0,,5,,,53,127
160885,note_on,0,0,0,,2,,,74,127
161163,note_off,278,0,0,,2,,,62,127
161166,note_on,3,0,0,,4,,,64,127
161441,note_off,275,0,0,,2,,,74,127
161441,note_off,0,0,0,,5,,,53,127
161444,note_off,3,0,0,,4,,,64,127
161447,note_on,3,0,0,,2,,,62,127
161447,note_on,0,0,0,,2,,,50,127
161447,note_on,0,0,0,,5,,,65,127
161725,note_off,278,0,0,,5,,,65,127
161728,note_on,3,0,0,,7,,,67,127
162003,note_off,275,0,0,,2,,,50,127
162006,note_off,3,0,0,,7,,,67,127
162009,note_on,3,0,0,,10,,,45,127
162009,note_on,0,0,0,,10,,,69,127
162284,note_off,275,0,0,,2,,,62,127
162290,note_on,6,0,0,,1,,,61,127
162419,note_off,129,0,0,,1,,,61,127
162431,note_on,12,0,0,,2,,,62,127
162560,note_off,129,0,0,,2,,,62,127
162572,note_on,12,0,0,,4,,,64,127
162850,note_off,278,0,0,,4,,,64,127
162853,note_on,3,0,0,,1,,,61,127
163128,note_off,275,0,0,,10,,,45,127
163131,note_off,3,0,0,,1,,,61,127
163134,note_on,3,0,0,,2,,,62,127
163134,note_on,0,0,0,,5,,,41,127
163409,note_off,275,0,0,,10,,,69,127
163412,note_off,3,0,0,,5,,,41,127
163415,note_on,3,0,0,,2,,,38,127
163415,note_on,0,0,0,,10,,,69,127
163693,note_off,278,0,0,,10,,,69,127
163693,note_off,0,0,0,,2,,,38,127
163696,note_on,3,0,0,,2,,,50,127
163696,note_on,0,0,0,,2,,,74,127
163974,note_off,278,0,0,,2,,,74,127
163974,note_off,0,0,0,,2,,,50,127
163977,note_on,3,0,0,,4,,,52,127
163977,note_on,0,0,0,,0,,,72,127
164106,note_off,129,0,0,,4,,,52,127
164118,note_on,12,0,0,,5,,,53,127
164247,note_off,129,0,0,,5,,,53,127
164253,note_off,6,0,0,,2,,,62,127
164256,note_off,3,0,0,,0,,,72,127
164259,note_on,3,0,0,,11,,,70,127
164259,note_on,0,0,0,,7,,,55,127
164537,note_off,278,0,0,,7,,,55,127
164540,note_on,3,0,0,,5,,,53,127
164540,note_on,0,0,0,,2,,,74,127
164818,note_off,278,0,0,,2,,,74,127
164818,note_off,0,0,0,,5,,,53,127
164821,note_on,3,0,0,,4,,,52,127
164821,note_on,0,0,0,,7,,,79,127
165099,note_off,278,0,0,,4,,,52,127
165102,note_on,3,0,0,,2,,,50,127
165377,note_off,275,0,0,,11,,,70,127
165380,note_off,3,0,0,,2,,,50,127
165383,note_on,3,0,0,,10,,,69,127
165383,note_on,0,0,0,,1,,,49,127
165658,note_off,275,0,0,,7,,,79,127
165661,note_off,3,0,0,,1,,,49,127
165664,note_on,3,0,0,,10,,,57,127
165664,note_on,0,0,0,,5,,,77,127
165793,note_off,129,0,0,,5,,,77,127
165805,note_on,12,0,0,,4,,,76,127
165934,note_off,129,0,0,,4,,,76,127
165943,note_off,9,0,0,,10,,,57,127
165946,note_on,3,0,0,,11,,,58,127
165946,note_on,0,0,0,,2,,,74,127
166116,note_off,170,0,0,,10,,,69,127
166224,note_off,108,0,0,,11,,,58,127
166227,note_on,3,0,0,,7,,,67,127
166227,note_on,0,0,0,,10,,,57,127
166356,note_off,129,0,0,,7,,,67,127
166368,note_on,12,0,0,,5,,,65,127
166497,note_off,129,0,0,,5,,,65,127
166506,note_off,9,0,0,,10,,,57,127
166509,note_on,3,0,0,,4,,,64,127
166509,note_on,0,0,0,,7,,,55,127
166787,note_off,278,0,0,,7,,,55,127
166790,note_on,3,0,0,,5,,,53,127
166919,note_off,129,0,0,,5,,,53,127
166931,note_on,12,0,0,,7,,,55,127
167060,note_off,129,0,0,,7,,,55,127
167072,note_on,12,0,0,,10,,,57,127
167072,note_on,0,0,0,,0,,,72,127
167096,note_off,24,0,0,,2,,,74,127
167350,note_off,254,0,0,,10,,,57,127
167353,note_on,3,0,0,,7,,,55,127
167628,note_off,275,0,0,,4,,,64,127
167631,note_off,3,0,0,,7,,,55,127
167634,note_on,3,0,0,,2,,,62,127
167634,note_on,0,0,0,,6,,,54,127
167912,note_off,278,0,0,,6,,,54,127
167915,note_on,3,0,0,,4,,,52,127
168044,note_off,129,0,0,,4,,,52,127
168056,note_on,12,0,0,,6,,,54,127
168185,note_off,129,0,0,,6,,,54,127
168197,note_on,12,0,0,,7,,,55,127
168197,note_on,0,0,0,,11,,,70,127
168222,note_off,25,0,0,,0,,,72,127
168475,note_off,253,0,0,,7,,,55,127
168478,note_on,3,0,0,,5,,,53,127
168753,note_off,275,0,0,,2,,,62,127
168756,note_off,3,0,0,,5,,,53,127
168759,note_on,3,0,0,,0,,,60,127
168759,note_on,0,0,0,,4,,,52,127
169037,note_off,278,0,0,,4,,,52,127
169040,note_on,3,0,0,,2,,,50,127
169169,note_off,129,0,0,,2,,,50,127
169181,note_on,12,0,0,,4,,,52,127
169310,note_off,129,0,0,,4,,,52,127
169316,note_off,6,0,0,,0,,,60,127
169322,note_on,6,0,0,,5,,,53,127
169322,note_on,0,0,0,,10,,,69,127
169347,note_off,25,0,0,,11,,,70,127
169603,note_on,256,0,0,,5,,,65,127
169878,note_off,275,0,0,,10,,,69,127
169878,note_off,0,0,0,,5,,,53,127
169884,note_on,6,0,0,,7,,,43,127
169884,note_on,0,0,0,,12,,,71,127
170159,note_off,275,0,0,,5,,,65,127
170165,note_on,6,0,0,,3,,,63,127
170294,note_off,129,0,0,,3,,,63,127
170306,note_on,12,0,0,,2,,,62,127
170435,note_off,129,0,0,,2,,,62,127
170441,note_off,6,0,0,,12,,,71,127
170441,note_off,0,0,0,,7,,,43,127
170447,note_on,6,0,0,,3,,,63,127
170447,note_on,0,0,0,,7,,,55,127
170447,note_on,0,0,0,,0,,,72,127
170725,note_off,278,0,0,,3,,,63,127
170728,note_on,3,0,0,,0,,,60,127
171003,note_off,275,0,0,,7,,,55,127
171006,note_off,3,0,0,,0,,,60,127
171009,note_on,3,0,0,,2,,,62,127
171009,note_on,0,0,0,,6,,,54,127
171284,note_off,275,0,0,,0,,,72,127
171290,note_on,6,0,0,,11,,,70,127
171419,note_off,129,0,0,,11,,,70,127
171431,note_on,12,0,0,,10,,,69,127
171560,note_off,129,0,0,,10,,,69,127
171566,note_off,6,0,0,,6,,,54,127
171572,note_on,6,0,0,,7,,,55,127
171572,note_on,0,0,0,,11,,,70,127
171847,note_off,275,0,0,,2,,,62,127
171853,note_on,6,0,0,,7,,,67,127
172128,note_off,275,0,0,,11,,,70,127
172128,note_off,0,0,0,,7,,,55,127
172134,note_on,6,0,0,,10,,,45,127
172134,note_on,0,0,0,,1,,,73,127
172317,note_off,183,0,0,,7,,,67,127
172415,note_on,98,0,0,,5,,,65,127
172544,note_off,129,0,0,,5,,,65,127
172556,note_on,12,0,0,,4,,,64,127
172685,note_off,129,0,0,,4,,,64,127
172691,note_off,6,0,0,,1,,,73,127
172691,note_off,0,0,0,,10,,,45,127
172697,note_on,6,0,0,,5,,,65,127
172697,note_on,0,0,0,,10,,,57,127
172697,note_on,0,0,0,,2,,,74,127
172975,note_off,278,0,0,,5,,,65,127
172978,note_on,3,0,0,,2,,,62,127
173253,note_off,275,0,0,,10,,,57,127
173256,note_off,3,0,0,,2,,,62,127
173259,note_on,3,0,0,,4,,,64,127
173259,note_on,0,0,0,,7,,,55,127
173534,note_off,275,0,0,,2,,,74,127
173540,note_on,6,0,0,,0,,,72,127
173669,note_off,129,0,0,,0,,,72,127
173681,note_on,12,0,0,,12,,,71,127
173810,note_off,129,0,0,,12,,,71,127
173816,note_off,6,0,0,,7,,,55,127
173822,note_on,6,0,0,,10,,,57,127
173822,note_on,0,0,0,,0,,,72,127
174097,note_off,275,0,0,,4,,,64,127
174103,note_on,6,0,0,,10,,,69,127
174378,note_off,275,0,0,,0,,,72,127
174378,note_off,0,0,0,,10,,,57,127
174384,note_on,6,0,0,,2,,,62,127
174384,note_on,0,0,0,,11,,,70,127
174662,note_off,278,0,0,,2,,,62,127
174665,note_on,3,0,0,,1,,,61,127
174794,note_off,129,0,0,,1,,,61,127
174806,note_on,12,0,0,,2,,,62,127
174935,note_off,129,0,0,,2,,,62,127
174941,note_off,6,0,0,,10,,,69,127
174947,note_on,6,0,0,,7,,,67,127
174947,note_on,0,0,0,,4,,,64,127
175225,note_off,278,0,0,,4,,,64,127
175228,note_on,3,0,0,,2,,,62,127
175503,note_off,275,0,0,,11,,,70,127
175506,note_off,3,0,0,,2,,,62,127
175509,note_on,3,0,0,,1,,,61,127
175509,note_on,0,0,0,,10,,,69,127
175787,note_off,278,0,0,,1,,,61,127
175790,note_on,3,0,0,,12,,,59,127
175919,note_off,129,0,0,,12,,,59,127
175931,note_on,12,0,0,,1,,,61,127
176060,note_off,129,0,0,,1,,,61,127
176066,note_off,6,0,0,,10,,,69,127
176066,note_off,0,0,0,,7,,,67,127
176072,note_on,6,0,0,,5,,,65,127
176072,note_on,0,0,0,,2,,,62,127
176072,note_on,0,0,0,,2,,,74,127
176350,note_off,278,0,0,,2,,,62,127
176353,note_on,3,0,0,,0,,,60,127
176628,note_off,275,0,0,,5,,,65,127
176631,note_off,3,0,0,,0,,,60,127
176634,note_on,3,0,0,,7,,,67,127
176634,note_on,0,0,0,,11,,,58,127
176909,note_off,275,0,0,,2,,,74,127
176912,note_off,3,0,0,,11,,,58,127
176915,note_on,3,0,0,,10,,,57,127
176915,note_on,0,0,0,,1,,,73,127
177044,note_off,129,0,0,,1,,,73,127
177056,note_on,12,0,0,,2,,,74,127
177185,note_off,129,0,0,,2,,,74,127
177191,note_off,6,0,0,,7,,,67,127
177194,note_off,3,0,0,,10,,,57,127
177197,note_on,3,0,0,,4,,,76,127
177197,note_on,0,0,0,,7,,,55,127
177197,note_on,0,0,0,,7,,,79,127
177475,note_off,278,0,0,,4,,,76,127
177478,note_on,3,0,0,,2,,,74,127
177753,note_off,275,0,0,,7,,,55,127
177756,note_off,3,0,0,,2,,,74,127
177759,note_on,3,0,0,,1,,,73,127
177759,note_on,0,0,0,,10,,,57,127
177983,note_off,224,0,0,,7,,,79,127
178040,note_on,57,0,0,,6,,,78,127
178169,note_off,129,0,0,,6,,,78,127
178181,note_on,12,0,0,,7,,,79,127
178310,note_off,129,0,0,,7,,,79,127
178322,note_on,12,0,0,,10,,,81,127
178566,note_off,244,0,0,,10,,,81,127
178603,note_on,37,0,0,,12,,,59,127
178603,note_on,0,0,0,,7,,,79,127
178605,note_off,2,0,0,,10,,,57,127
178737,note_off,132,0,0,,12,,,59,127
178744,note_on,7,0,0,,1,,,61,127
178848,note_off,104,0,0,,7,,,79,127
178873,note_off,25,0,0,,1,,,61,127
178879,note_off,6,0,0,,1,,,73,127
178885,note_on,6,0,0,,2,,,62,127
178885,note_on,0,0,0,,6,,,78,127
179166,note_on,281,0,0,,2,,,74,127
179441,note_off,275,0,0,,6,,,78,127
179441,note_off,0,0,0,,2,,,62,127
179444,note_off,3,0,0,,2,,,74,127
179447,note_on,3,0,0,,0,,,72,127
179447,note_on,0,0,0,,3,,,63,127
179447,note_on,0,0,0,,7,,,79,127
179725,note_off,278,0,0,,0,,,72,127
179728,note_on,3,0,0,,7,,,67,127
180003,note_off,275,0,0,,3,,,63,127
180006,note_off,3,0,0,,7,,,67,127
180009,note_on,3,0,0,,11,,,70,127
180009,note_on,0,0,0,,2,,,62,127
180287,note_off,278,0,0,,11,,,70,127
180290,note_on,3,0,0,,10,,,69,127
180419,note_off,129,0,0,,10,,,69,127
180431,note_on,12,0,0,,7,,,67,127
180560,note_off,129,0,0,,7,,,67,127
180566,note_off,6,0,0,,7,,,79,127
180572,note_on,6,0,0,,10,,,69,127
180572,note_on,0,0,0,,5,,,77,127
180847,note_off,275,0,0,,2,,,62,127
180853,note_on,6,0,0,,0,,,60,127
181128,note_off,275,0,0,,10,,,69,127
181131,note_off,3,0,0,,0,,,60,127
181134,note_on,3,0,0,,8,,,68,127
181134,note_on,0,0,0,,12,,,59,127
181134,note_on,0,0,0,,2,,,62,127
181343,note_off,209,0,0,,5,,,77,127
181415,note_on,72,0,0,,4,,,76,127
181693,note_off,278,0,0,,4,,,76,127
181696,note_on,3,0,0,,2,,,74,127
181971,note_off,275,0,0,,2,,,62,127
181977,note_on,6,0,0,,4,,,64,127
182252,note_off,275,0,0,,12,,,59,127
182252,note_off,0,0,0,,8,,,68,127
182255,note_off,3,0,0,,4,,,64,127
182258,note_on,3,0,0,,10,,,69,127
182258,note_on,0,0,0,,5,,,65,127
182258,note_on,0,0,0,,10,,,57,127
182536,note_off,278,0,0,,5,,,65,127
182539,note_on,3,0,0,,4,,,64,127
182668,note_off,129,0,0,,4,,,64,127
182680,note_on,12,0,0,,2,,,62,127
182809,note_off,129,0,0,,2,,,62,127
182815,note_off,6,0,0,,2,,,74,127
182821,note_on,6,0,0,,4,,,64,127
182821,note_on,0,0,0,,1,,,73,127
183096,note_off,275,0,0,,10,,,57,127
183102,note_on,6,0,0,,7,,,55,127
183377,note_off,275,0,0,,1,,,73,127
183377,note_off,0,0,0,,4,,,64,127
183377,note_off,0,0,0,,10,,,69,127
183380,note_off,3,0,0,,7,,,55,127
183383,note_on,3,0,0,,10,,,69,127
183383,note_on,0,0,0,,5,,,53,127
183383,note_on,0,0,0,,2,,,62,127
183383,note_on,0,0,0,,2,,,74,127
183661,note_off,278,0,0,,5,,,53,127
183661,note_off,0,0,0,,10,,,69,127
183664,note_on,3,0,0,,7,,,67,127
183664,note_on,0,0,0,,4,,,52,127
183793,note_off,129,0,0,,7,,,67,127
183805,note_on,12,0,0,,10,,,69,127
183934,note_off,129,0,0,,10,,,69,127
183943,note_off,9,0,0,,4,,,52,127
183946,note_on,3,0,0,,11,,,70,127
183946,note_on,0,0,0,,2,,,50,127
184221,note_off,275,0,0,,2,,,74,127
184227,note_on,6,0,0,,1,,,73,127
184356,note_off,129,0,0,,1,,,73,127
184368,note_on,12,0,0,,2,,,74,127
184497,note_off,129,0,0,,2,,,74,127
184503,note_off,6,0,0,,2,,,50,127
184503,note_off,0,0,0,,2,,,62,127
184509,note_on,6,0,0,,11,,,58,127
184509,note_on,0,0,0,,7,,,55,127
184509,note_on,0,0,0,,4,,,76,127
184787,note_off,278,0,0,,4,,,76,127
184790,note_on,3,0,0,,2,,,74,127
184919,note_off,129,0,0,,2,,,74,127
184931,note_on,12,0,0,,4,,,76,127
185060,note_off,129,0,0,,4,,,76,127
185066,note_off,6,0,0,,7,,,55,127
185066,note_off,0,0,0,,11,,,58,127
185066,note_off,0,0,0,,11,,,70,127
185072,note_on,6,0,0,,10,,,69,127
185072,note_on,0,0,0,,0,,,60,127
185072,note_on,0,0,0,,10,,,57,127
185072,note_on,0,0,0,,5,,,77,127
185350,note_off,278,0,0,,10,,,57,127
185353,note_on,3,0,0,,5,,,53,127
185628,note_off,275,0,0,,0,,,60,127
185628,note_off,0,0,0,,10,,,69,127
185631,note_off,3,0,0,,5,,,53,127
185634,note_on,3,0,0,,7,,,67,127
185634,note_on,0,0,0,,2,,,62,127
185634,note_on,0,0,0,,12,,,59,127
185909,note_off,275,0,0,,5,,,77,127
185912,note_off,3,0,0,,12,,,59,127
185915,note_on,3,0,0,,7,,,55,127
185915,note_on,0,0,0,,3,,,75,127
186044,note_off,129,0,0,,3,,,75,127
186056,note_on,12,0,0,,2,,,74,127
186185,note_off,129,0,0,,2,,,74,127
186191,note_off,6,0,0,,2,,,62,127
186194,note_off,3,0,0,,7,,,55,127
186197,note_on,3,0,0,,0,,,48,127
186197,note_on,0,0,0,,3,,,75,127
186333,note_off,136,0,0,,7,,,67,127
186478,note_on,145,0,0,,0,,,72,127
186753,note_off,275,0,0,,3,,,75,127
186753,note_off,0,0,0,,0,,,48,127
186759,note_on,6,0,0,,2,,,50,127
186759,note_on,0,0,0,,6,,,78,127
187034,note_off,275,0,0,,0,,,72,127
187040,note_on,6,0,0,,11,,,70,127
187169,note_off,129,0,0,,11,,,70,127
187181,note_on,12,0,0,,10,,,69,127
187310,note_off,129,0,0,,10,,,69,127
187316,note_off,6,0,0,,6,,,78,127
187316,note_off,0,0,0,,2,,,50,127
187322,note_on,6,0,0,,11,,,70,127
187322,note_on,0,0,0,,2,,,62,127
187322,note_on,0,0,0,,7,,,79,127
187600,note_off,278,0,0,,11,,,70,127
187603,note_on,3,0,0,,7,,,67,127
187878,note_off,275,0,0,,2,,,62,127
187881,note_off,3,0,0,,7,,,67,127
187884,note_on,3,0,0,,10,,,69,127
187884,note_on,0,0,0,,1,,,61,127
188159,note_off,275,0,0,,7,,,79,127
188165,note_on,6,0,0,,5,,,77,127
188294,note_off,129,0,0,,5,,,77,127
188306,note_on,12,0,0,,4,,,76,127
188435,note_off,129,0,0,,4,,,76,127
188441,note_off,6,0,0,,1,,,61,127
188447,note_on,6,0,0,,2,,,62,127
188447,note_on,0,0,0,,5,,,77,127
188722,note_off,275,0,0,,10,,,69,127
188728,note_on,6,0,0,,2,,,74,127
189003,note_off,275,0,0,,5,,,77,127
189003,note_off,0,0,0,,2,,,62,127
189009,note_on,6,0,0,,4,,,52,127
189009,note_on,0,0,0,,8,,,80,127
189284,note_off,275,0,0,,2,,,74,127
189290,note_on,6,0,0,,0,,,72,127
189419,note_off,129,0,0,,0,,,72,127
189431,note_on,12,0,0,,12,,,71,127
189560,note_off,129,0,0,,12,,,71,127
189566,note_off,6,0,0,,8,,,80,127
189566,note_off,0,0,0,,4,,,52,127
189572,note_on,6,0,0,,0,,,72,127
189572,note_on,0,0,0,,4,,,64,127
189572,note_on,0,0,0,,10,,,81,127
189850,note_off,278,0,0,,0,,,72,127
189853,note_on,3,0,0,,10,,,69,127
190128,note_off,275,0,0,,4,,,64,127
190131,note_off,3,0,0,,10,,,69,127
190134,note_on,3,0,0,,12,,,71,127
190134,note_on,0,0,0,,3,,,63,127
190409,note_off,275,0,0,,10,,,81,127
190415,note_on,6,0,0,,7,,,79,127
190544,note_off,129,0,0,,7,,,79,127
190556,note_on,12,0,0,,6,,,78,127
190685,note_off,129,0,0,,6,,,78,127
190691,note_off,6,0,0,,3,,,63,127
190697,note_on,6,0,0,,4,,,64,127
190697,note_on,0,0,0,,7,,,79,127
190972,note_off,275,0,0,,12,,,71,127
190978,note_on,6,0,0,,4,,,76,127
191253,note_off,275,0,0,,7,,,79,127
191253,note_off,0,0,0,,4,,,64,127
191259,note_on,6,0,0,,10,,,69,127
191259,note_on,0,0,0,,5,,,77,127
191537,note_off,278,0,0,,10,,,69,127
191540,note_on,3,0,0,,8,,,68,127
191669,note_off,129,0,0,,8,,,68,127
191681,note_on,12,0,0,,10,,,69,127
191810,note_off,129,0,0,,10,,,69,127
191816,note_off,6,0,0,,5,,,77,127
191816,note_off,0,0,0,,4,,,76,127
191822,note_on,6,0,0,,2,,,74,127
191822,note_on,0,0,0,,12,,,71,127
191822,note_on,0,0,0,,5,,,77,127
192100,note_off,278,0,0,,12,,,71,127
192103,note_on,3,0,0,,10,,,69,127
192378,note_off,275,0,0,,5,,,77,127
192381,note_off,3,0,0,,10,,,69,127
192384,note_on,3,0,0,,8,,,68,127
192384,note_on,0,0,0,,4,,,76,127
192659,note_off,275,0,0,,2,,,74,127
192662,note_off,3,0,0,,8,,,68,127
192665,note_on,3,0,0,,0,,,72,127
192665,note_on,0,0,0,,4,,,64,127
192794,note_off,129,0,0,,0,,,72,127
192806,note_on,12,0,0,,12,,,71,127
192935,note_off,129,0,0,,12,,,71,127
192944,note_off,9,0,0,,4,,,64,127
192947,note_on,3,0,0,,10,,,69,127
192947,note_on,0,0,0,,5,,,65,127
193222,note_off,275,0,0,,4,,,76,127
193225,note_off,3,0,0,,5,,,65,127
193228,note_on,3,0,0,,4,,,64,127
193228,note_on,0,0,0,,2,,,74,127
193357,note_off,129,0,0,,2,,,74,127
193369,note_on,12,0,0,,0,,,72,127
193498,note_off,129,0,0,,0,,,72,127
193507,note_off,9,0,0,,4,,,64,127
193510,note_on,3,0,0,,2,,,62,127
193510,note_on,0,0,0,,12,,,71,127
193788,note_off,278,0,0,,2,,,62,127
193791,note_on,3,0,0,,0,,,60,127
193920,note_off,129,0,0,,0,,,60,127
193932,note_on,12,0,0,,2,,,62,127
194061,note_off,129,0,0,,2,,,62,127
194067,note_off,6,0,0,,12,,,71,127
194067,note_off,0,0,0,,10,,,69,127
194073,note_on,6,0,0,,8,,,68,127
194073,note_on,0,0,0,,4,,,64,127
194073,note_on,0,0,0,,12,,,71,127
194351,note_off,278,0,0,,4,,,64,127
194354,note_on,3,0,0,,2,,,62,127
194629,note_off,275,0,0,,12,,,71,127
194629,note_off,0,0,0,,8,,,68,127
194632,note_off,3,0,0,,2,,,62,127
194635,note_on,3,0,0,,10,,,69,127
194635,note_on,0,0,0,,0,,,60,127
194916,note_on,281,0,0,,4,,,76,127
195191,note_off,275,0,0,,0,,,60,127
195191,note_off,0,0,0,,10,,,69,127
195194,note_off,3,0,0,,4,,,76,127
195197,note_on,3,0,0,,10,,,69,127
195197,note_on,0,0,0,,2,,,62,127
195197,note_on,0,0,0,,5,,,77,127
195475,note_off,278,0,0,,5,,,77,127
195475,note_off,0,0,0,,2,,,62,127
195478,note_on,3,0,0,,0,,,60,127
195478,note_on,0,0,0,,4,,,76,127
195756,note_off,278,0,0,,4,,,76,127
195756,note_off,0,0,0,,0,,,60,127
195759,note_on,3,0,0,,12,,,59,127
195759,note_on,0,0,0,,2,,,62,127
195759,note_on,0,0,0,,2,,,74,127
196038,note_off,279,0,0,,10,,,69,127
196044,note_on,6,0,0,,8,,,68,127
196174,note_off,130,0,0,,8,,,68,127
196186,note_on,12,0,0,,6,,,66,127
196316,note_off,130,0,0,,6,,,66,127
196328,note_on,12,0,0,,8,,,68,127
196612,note_on,284,0,0,,4,,,64,127
196874,note_off,262,0,0,,4,,,64,127
196890,note_off,16,0,0,,8,,,68,127
196890,note_off,0,0,0,,2,,,62,127
196890,note_off,0,0,0,,12,,,59,127
196896,note_on,6,0,0,,10,,,69,127
196896,note_on,0,0,0,,5,,,65,127
196896,note_on,0,0,0,,10,,,57,127
197177,note_off,281,0,0,,5,,,65,127
197180,note_on,3,0,0,,4,,,64,127
197310,note_off,130,0,0,,4,,,64,127
197322,note_on,12,0,0,,2,,,62,127
197383,note_off,61,0,0,,2,,,74,127
197453,note_off,70,0,0,,2,,,62,127
197459,note_off,6,0,0,,10,,,69,127
197465,note_on,6,0,0,,4,,,64,127
197465,note_on,0,0,0,,0,,,72,127
197744,note_off,279,0,0,,10,,,57,127
197747,note_off,3,0,0,,4,,,64,127
197750,note_on,3,0,0,,4,,,64,127
197750,note_on,0,0,0,,7,,,55,127
198031,note_off,281,0,0,,7,,,55,127
198031,note_off,0,0,0,,4,,,64,127
198034,note_on,3,0,0,,3,,,63,127
198034,note_on,0,0,0,,5,,,53,127
198034,note_on,0,0,0,,10,,,57,127
198261,note_off,227,0,0,,0,,,72,127
198319,note_on,58,0,0,,12,,,71,127
198600,note_off,281,0,0,,12,,,71,127
198603,note_on,3,0,0,,10,,,69,127
198882,note_off,279,0,0,,10,,,57,127
198888,note_on,6,0,0,,12,,,59,127
199167,note_off,279,0,0,,5,,,53,127
199167,note_off,0,0,0,,3,,,63,127
199170,note_off,3,0,0,,12,,,59,127
199173,note_on,3,0,0,,4,,,64,127
199173,note_on,0,0,0,,4,,,52,127
199173,note_on,0,0,0,,0,,,60,127
199454,note_off,281,0,0,,0,,,60,127
199457,note_on,3,0,0,,12,,,59,127
199587,note_off,130,0,0,,12,,,59,127
199599,note_on,12,0,0,,10,,,57,127
199729,note_off,130,0,0,,10,,,57,127
199735,note_off,6,0,0,,4,,,64,127
199735,note_off,0,0,0,,10,,,69,127
199741,note_on,6,0,0,,8,,,68,127
199741,note_on,0,0,0,,12,,,59,127
199741,note_on,0,0,0,,4,,,76,127
200020,note_off,279,0,0,,4,,,52,127
200026,note_on,6,0,0,,2,,,50,127
200305,note_off,279,0,0,,12,,,59,127
200305,note_off,0,0,0,,8,,,68,127
200308,note_off,3,0,0,,2,,,50,127
200311,note_on,3,0,0,,10,,,69,127
200311,note_on,0,0,0,,1,,,49,127
200311,note_on,0,0,0,,10,,,57,127
200590,note_off,279,0,0,,4,,,76,127
200596,note_on,6,0,0,,2,,,74,127
200726,note_off,130,0,0,,2,,,74,127
200738,note_on,12,0,0,,4,,,76,127
200868,note_off,130,0,0,,4,,,76,127
200874,note_off,6,0,0,,1,,,49,127
200874,note_off,0,0,0,,10,,,69,127
200880,note_on,6,0,0,,5,,,77,127
200880,note_on,0,0,0,,2,,,50,127
200880,note_on,0,0,0,,10,,,81,127
201161,note_off,281,0,0,,2,,,50,127
201161,note_off,0,0,0,,5,,,77,127
201164,note_on,3,0,0,,4,,,76,127
201164,note_on,0,0,0,,0,,,48,127
201443,note_off,279,0,0,,10,,,57,127
201446,note_off,3,0,0,,0,,,48,127
201446,note_off,0,0,0,,4,,,76,127
201449,note_on,3,0,0,,2,,,74,127
201449,note_on,0,0,0,,11,,,46,127
201730,note_off,281,0,0,,2,,,74,127
201733,note_on,3,0,0,,1,,,73,127
201863,note_off,130,0,0,,1,,,73,127
201875,note_on,12,0,0,,2,,,74,127
202005,note_off,130,0,0,,2,,,74,127
202011,note_off,6,0,0,,10,,,81,127
202017,note_on,6,0,0,,4,,,76,127
202017,note_on,0,0,0,,7,,,79,127
202298,note_off,281,0,0,,4,,,76,127
202301,note_on,3,0,0,,2,,,74,127
202580,note_off,279,0,0,,11,,,46,127
202583,note_off,3,0,0,,2,,,74,127
202586,note_on,3,0,0,,1,,,73,127
202586,note_on,0,0,0,,10,,,45,127
202870,note_on,284,0,0,,10,,,69,127
203149,note_off,279,0,0,,10,,,45,127
203149,note_off,0,0,0,,1,,,73,127
203149,note_off,0,0,0,,7,,,79,127
203152,note_off,3,0,0,,10,,,69,127
203155,note_on,3,0,0,,2,,,74,127
203155,note_on,0,0,0,,11,,,70,127
203155,note_on,0,0,0,,10,,,45,127
203155,note_on,0,0,0,,5,,,77,127
203436,note_off,281,0,0,,11,,,70,127
203439,note_on,3,0,0,,10,,,69,127
203718,note_off,279,0,0,,5,,,77,127
203718,note_off,0,0,0,,10,,,45,127
203721,note_off,3,0,0,,10,,,69,127
203724,note_on,3,0,0,,7,,,67,127
203724,note_on,0,0,0,,10,,,45,127
203724,note_on,0,0,0,,4,,,76,127
204005,note_off,281,0,0,,7,,,67,127
204008,note_on,3,0,0,,5,,,65,127
204138,note_off,130,0,0,,5,,,65,127
204150,note_on,12,0,0,,7,,,67,127
204280,note_off,130,0,0,,7,,,67,127
204286,note_off,6,0,0,,10,,,45,127
204286,note_off,0,0,0,,2,,,74,127
204292,note_on,6,0,0,,1,,,73,127
204292,note_on,0,0,0,,10,,,69,127
204292,note_on,0,0,0,,10,,,45,127
204573,note_off,281,0,0,,10,,,69,127
204576,note_on,3,0,0,,7,,,67,127
204855,note_off,279,0,0,,10,,,45,127
204855,note_off,0,0,0,,1,,,73,127
204855,note_off,0,0,0,,4,,,76,127
204858,note_off,3,0,0,,7,,,67,127
204861,note_on,3,0,0,,5,,,65,127
204861,note_on,0,0,0,,10,,,45,127
204861,note_on,0,0,0,,2,,,74,127
205142,note_off,281,0,0,,2,,,74,127
205142,note_off,0,0,0,,5,,,65,127
205145,note_on,3,0,0,,4,,,64,127
205145,note_on,0,0,0,,10,,,57,127
205145,note_on,0,0,0,,1,,,73,127
205216,note_off,71,0,0,,10,,,45,127
205426,note_off,210,0,0,,1,,,73,127
205426,note_off,0,0,0,,10,,,57,127
205426,note_off,0,0,0,,4,,,64,127
205429,note_on,3,0,0,,2,,,62,127
205429,note_on,0,0,0,,11,,,58,127
205429,note_on,0,0,0,,2,,,74,127
205710,note_off,281,0,0,,11,,,58,127
205713,note_on,3,0,0,,10,,,57,127
205992,note_off,279,0,0,,2,,,62,127
205995,note_off,3,0,0,,10,,,57,127
205998,note_on,3,0,0,,4,,,64,127
205998,note_on,0,0,0,,7,,,55,127
206279,note_off,281,0,0,,7,,,55,127
206282,note_on,3,0,0,,5,,,53,127
206412,note_off,130,0,0,,5,,,53,127
206424,note_on,12,0,0,,7,,,55,127
206554,note_off,130,0,0,,7,,,55,127
206560,note_off,6,0,0,,2,,,74,127
206566,note_on,6,0,0,,10,,,57,127
206566,note_on,0,0,0,,0,,,72,127
206847,note_off,281,0,0,,10,,,57,127
206850,note_on,3,0,0,,7,,,55,127
207129,note_off,279,0,0,,4,,,64,127
207132,note_off,3,0,0,,7,,,55,127
207135,note_on,3,0,0,,2,,,62,127
207135,note_on,0,0,0,,6,,,54,127
207416,note_off,281,0,0,,6,,,54,127
207419,note_on,3,0,0,,4,,,52,127
207549,note_off,130,0,0,,4,,,52,127
207561,note_on,12,0,0,,6,,,54,127
207691,note_off,130,0,0,,6,,,54,127
207697,note_off,6,0,0,,0,,,72,127
207703,note_on,6,0,0,,7,,,55,127
207703,note_on,0,0,0,,11,,,70,127
207982,note_off,279,0,0,,2,,,62,127
207985,note_off,3,0,0,,7,,,55,127
207988,note_on,3,0,0,,2,,,62,127
207988,note_on,0,0,0,,5,,,53,127
208269,note_off,281,0,0,,5,,,53,127
208269,note_off,0,0,0,,2,,,62,127
208272,note_on,3,0,0,,1,,,61,127
208272,note_on,0,0,0,,4,,,52,127
208272,note_on,0,0,0,,7,,,55,127
208410,note_off,138,0,0,,11,,,70,127
208557,note_on,147,0,0,,10,,,69,127
208838,note_off,281,0,0,,10,,,69,127
208841,note_on,3,0,0,,7,,,67,127
209120,note_off,279,0,0,,7,,,55,127
209126,note_on,6,0,0,,10,,,57,127
209405,note_off,279,0,0,,4,,,52,127
209405,note_off,0,0,0,,1,,,61,127
209408,note_off,3,0,0,,10,,,57,127
209411,note_on,3,0,0,,2,,,62,127
209411,note_on,0,0,0,,2,,,50,127
209411,note_on,0,0,0,,11,,,58,127
209648,note_off,237,0,0,,7,,,67,127
209692,note_off,44,0,0,,11,,,58,127
209695,note_on,3,0,0,,10,,,57,127
209695,note_on,0,0,0,,5,,,65,127
209828,note_off,133,0,0,,5,,,65,127
209834,note_off,6,0,0,,10,,,57,127
209837,note_on,3,0,0,,7,,,55,127
209837,note_on,0,0,0,,4,,,64,127
209970,note_off,133,0,0,,4,,,64,127
209973,note_off,3,0,0,,2,,,62,127
209976,note_off,3,0,0,,7,,,55,127
209979,note_on,3,0,0,,5,,,65,127
209979,note_on,0,0,0,,10,,,57,127
209979,note_on,0,0,0,,10,,,69,127
210258,note_off,279,0,0,,2,,,50,127
210261,note_off,3,0,0,,5,,,65,127
210264,note_on,3,0,0,,4,,,64,127
210264,note_on,0,0,0,,0,,,48,127
210543,note_off,279,0,0,,10,,,57,127
210546,note_off,3,0,0,,0,,,48,127
210546,note_off,0,0,0,,4,,,64,127
210549,note_on,3,0,0,,2,,,62,127
210549,note_on,0,0,0,,11,,,46,127
210830,note_off,281,0,0,,2,,,62,127
210833,note_on,3,0,0,,1,,,61,127
210963,note_off,130,0,0,,1,,,61,127
210975,note_on,12,0,0,,2,,,62,127
211105,note_off,130,0,0,,2,,,62,127
211111,note_off,6,0,0,,10,,,69,127
211117,note_on,6,0,0,,4,,,64,127
211117,note_on,0,0,0,,7,,,67,127
211398,note_off,281,0,0,,4,,,64,127
211401,note_on,3,0,0,,2,,,62,127
211680,note_off,279,0,0,,11,,,46,127
211683,note_off,3,0,0,,2,,,62,127
211686,note_on,3,0,0,,1,,,61,127
211686,note_on,0,0,0,,10,,,45,127
211968,note_off,282,0,0,,7,,,67,127
211974,note_on,6,0,0,,5,,,65,127
212106,note_off,132,0,0,,5,,,65,127
212118,note_on,12,0,0,,7,,,67,127
212250,note_off,132,0,0,,7,,,67,127
212262,note_on,12,0,0,,10,,,69,127
212544,note_off,282,0,0,,1,,,61,127
212547,note_off,3,0,0,,10,,,69,127
212550,note_on,3,0,0,,12,,,59,127
212550,note_on,0,0,0,,7,,,67,127
212682,note_off,132,0,0,,12,,,59,127
212694,note_on,12,0,0,,1,,,61,127
212826,note_off,132,0,0,,1,,,61,127
212832,note_off,6,0,0,,10,,,45,127
212835,note_off,3,0,0,,7,,,67,127
212838,note_on,3,0,0,,2,,,62,127
212838,note_on,0,0,0,,10,,,45,127
212838,note_on,0,0,0,,10,,,57,127
212838,note_on,0,0,0,,5,,,65,127
213123,note_off,285,0,0,,5,,,65,127
213123,note_off,0,0,0,,2,,,62,127
213126,note_on,3,0,0,,1,,,61,127
213126,note_on,0,0,0,,4,,,64,127
213411,note_off,285,0,0,,4,,,64,127
213411,note_off,0,0,0,,1,,,61,127
213414,note_on,3,0,0,,2,,,62,127
213414,note_on,0,0,0,,5,,,65,127
213696,note_off,282,0,0,,10,,,57,127
213702,note_on,6,0,0,,8,,,56,127
213984,note_off,282,0,0,,5,,,65,127
213984,note_off,0,0,0,,2,,,62,127
213984,note_off,0,0,0,,10,,,45,127
213987,note_off,3,0,0,,8,,,56,127
213990,note_on,3,0,0,,1,,,61,127
213990,note_on,0,0,0,,10,,,45,127
213990,note_on,0,0,0,,10,,,57,127
213990,note_on,0,0,0,,4,,,64,127
214275,note_off,285,0,0,,4,,,64,127
214275,note_off,0,0,0,,1,,,61,127
214302,note_on,27,0,0,,10,,,81,127
214587,note_off,285,0,0,,10,,,81,127
214590,note_on,3,0,0,,11,,,82,127
214875,note_off,285,0,0,,11,,,82,127
214878,note_on,3,0,0,,10,,,81,127
214878,note_on,0,0,0,,2,,,74,127
215136,note_off,258,0,0,,10,,,57,127
215136,note_off,0,0,0,,10,,,45,127
215163,note_off,27,0,0,,2,,,74,127
215163,note_off,0,0,0,,10,,,81,127
215166,note_on,3,0,0,,7,,,79,127
215166,note_on,0,0,0,,10,,,45,127
215166,note_on,0,0,0,,4,,,76,127
215451,note_off,285,0,0,,4,,,76,127
215451,note_off,0,0,0,,7,,,79,127
215454,note_on,3,0,0,,5,,,77,127
215454,note_on,0,0,0,,2,,,74,127
215586,note_off,132,0,0,,5,,,77,127
215598,note_on,12,0,0,,7,,,79,127
215730,note_off,132,0,0,,7,,,79,127
215739,note_off,9,0,0,,2,,,74,127
215742,note_on,3,0,0,,10,,,81,127
215742,note_on,0,0,0,,1,,,73,127
216027,note_off,285,0,0,,1,,,73,127
216027,note_off,0,0,0,,10,,,81,127
216030,note_on,3,0,0,,7,,,79,127
216030,note_on,0,0,0,,12,,,71,127
216162,note_off,132,0,0,,12,,,71,127
216174,note_on,12,0,0,,1,,,73,127
216306,note_off,132,0,0,,1,,,73,127
216312,note_off,6,0,0,,10,,,45,127
216315,note_off,3,0,0,,7,,,79,127
216318,note_on,3,0,0,,5,,,77,127
216318,note_on,0,0,0,,10,,,45,127
216318,note_on,0,0,0,,2,,,74,127
216603,note_off,285,0,0,,2,,,74,127
216606,note_on,3,0,0,,4,,,76,127
216606,note_on,0,0,0,,10,,,69,127
216891,note_off,285,0,0,,10,,,69,127
216891,note_off,0,0,0,,4,,,76,127
216894,note_on,3,0,0,,2,,,74,127
216894,note_on,0,0,0,,11,,,70,127
217179,note_off,285,0,0,,11,,,70,127
217179,note_off,0,0,0,,2,,,74,127
217182,note_on,3,0,0,,0,,,72,127
217182,note_on,0,0,0,,10,,,69,127
217464,note_off,282,0,0,,10,,,45,127
217464,note_off,0,0,0,,5,,,77,127
217467,note_off,3,0,0,,10,,,69,127
217467,note_off,0,0,0,,0,,,72,127
217470,note_on,3,0,0,,2,,,74,127
217470,note_on,0,0,0,,4,,,76,127
217470,note_on,0,0,0,,10,,,45,127
217470,note_on,0,0,0,,7,,,67,127
217755,note_off,285,0,0,,7,,,67,127
217758,note_on,3,0,0,,5,,,65,127
217890,note_off,132,0,0,,5,,,65,127
217902,note_on,12,0,0,,7,,,67,127
218034,note_off,132,0,0,,7,,,67,127
218040,note_off,6,0,0,,4,,,76,127
218040,note_off,0,0,0,,2,,,74,127
218046,note_on,6,0,0,,1,,,73,127
218046,note_on,0,0,0,,4,,,76,127
218046,note_on,0,0,0,,10,,,69,127
218331,note_off,285,0,0,,10,,,69,127
218334,note_on,3,0,0,,7,,,67,127
218616,note_off,282,0,0,,4,,,76,127
218616,note_off,0,0,0,,1,,,73,127
218616,note_off,0,0,0,,10,,,45,127
218619,note_off,3,0,0,,7,,,67,127
218622,note_on,3,0,0,,2,,,74,127
218622,note_on,0,0,0,,10,,,57,127
218622,note_on,0,0,0,,10,,,45,127
218622,note_on,0,0,0,,5,,,65,127
218907,note_off,285,0,0,,5,,,65,127
218907,note_off,0,0,0,,10,,,57,127
218907,note_off,0,0,0,,2,,,74,127
218910,note_on,3,0,0,,1,,,73,127
218910,note_on,0,0,0,,10,,,57,127
218910,note_on,0,0,0,,4,,,64,127
219195,note_off,285,0,0,,4,,,64,127
219195,note_off,0,0,0,,10,,,57,127
219195,note_off,0,0,0,,1,,,73,127
219198,note_on,3,0,0,,2,,,74,127
219198,note_on,0,0,0,,11,,,58,127
219198,note_on,0,0,0,,2,,,62,127
219483,note_off,285,0,0,,11,,,58,127
219486,note_on,3,0,0,,10,,,57,127
219768,note_off,282,0,0,,2,,,62,127
219768,note_off,0,0,0,,10,,,45,127
219771,note_off,3,0,0,,10,,,57,127
219774,note_on,3,0,0,,7,,,55,127
219774,note_on,0,0,0,,10,,,45,127
219774,note_on,0,0,0,,4,,,64,127
220059,note_off,285,0,0,,7,,,55,127
220062,note_on,3,0,0,,5,,,53,127
220194,note_off,132,0,0,,5,,,53,127
220206,note_on,12,0,0,,7,,,55,127
220338,note_off,132,0,0,,7,,,55,127
220344,note_off,6,0,0,,2,,,74,127
220350,note_on,6,0,0,,1,,,73,127
220350,note_on,0,0,0,,10,,,57,127
220635,note_off,285,0,0,,10,,,57,127
220638,note_on,3,0,0,,7,,,55,127
220914,note_off,276,0,0,,10,,,45,127
220920,note_off,6,0,0,,1,,,73,127
220920,note_off,0,0,0,,4,,,64,127
220923,note_off,3,0,0,,7,,,55,127
220926,note_on,3,0,0,,2,,,74,127
220926,note_on,0,0,0,,5,,,53,127
220926,note_on,0,0,0,,10,,,45,127
220926,note_on,0,0,0,,5,,,65,127
221215,note_off,289,0,0,,5,,,65,127
221215,note_off,0,0,0,,5,,,53,127
221215,note_off,0,0,0,,2,,,74,127
221218,note_on,3,0,0,,4,,,76,127
221218,note_on,0,0,0,,4,,,52,127
221218,note_on,0,0,0,,7,,,67,127
221507,note_off,289,0,0,,7,,,67,127
221507,note_off,0,0,0,,4,,,52,127
221507,note_off,0,0,0,,4,,,76,127
221510,note_on,3,0,0,,5,,,77,127
221510,note_on,0,0,0,,2,,,50,127
221510,note_on,0,0,0,,10,,,69,127
221510,note_on,0,0,0,,2,,,74,127
221799,note_off,289,0,0,,2,,,50,127
221799,note_off,0,0,0,,5,,,77,127
221802,note_on,3,0,0,,7,,,79,127
221802,note_on,0,0,0,,0,,,48,127
221936,note_off,134,0,0,,0,,,48,127
221948,note_on,12,0,0,,11,,,46,127
222036,note_off,88,0,0,,10,,,45,127
222082,note_off,46,0,0,,11,,,46,127
222088,note_off,6,0,0,,10,,,69,127
222091,note_off,3,0,0,,7,,,79,127
222094,note_on,3,0,0,,10,,,81,127
222094,note_on,0,0,0,,10,,,45,127
222094,note_on,0,0,0,,10,,,69,127
222380,note_off,286,0,0,,2,,,74,127
222386,note_on,6,0,0,,1,,,73,127
222520,note_off,134,0,0,,1,,,73,127
222532,note_on,12,0,0,,2,,,74,127
222666,note_off,134,0,0,,2,,,74,127
222678,note_on,12,0,0,,4,,,76,127
222964,note_off,286,0,0,,10,,,69,127
222964,note_off,0,0,0,,10,,,81,127
222967,note_off,3,0,0,,4,,,76,127
222970,note_on,3,0,0,,7,,,79,127
222970,note_on,0,0,0,,4,,,76,127
222970,note_on,0,0,0,,1,,,73,127
223239,note_off,269,0,0,,4,,,76,127
223256,note_off,17,0,0,,10,,,45,127
223259,note_off,3,0,0,,1,,,73,127
223259,note_off,0,0,0,,7,,,79,127
223286,note_on,27,0,0,,2,,,74,127
223286,note_on,0,0,0,,5,,,77,127
223571,note_off,285,0,0,,5,,,77,127
223574,note_on,3,0,0,,7,,,79,127
223859,note_off,285,0,0,,7,,,79,127
223862,note_on,3,0,0,,10,,,81,127
224147,note_off,285,0,0,,10,,,81,127
224150,note_on,3,0,0,,7,,,79,127
224282,note_off,132,0,0,,7,,,79,127
224294,note_on,12,0,0,,5,,,77,127
224396,note_off,102,0,0,,2,,,74,127
224426,note_off,30,0,0,,5,,,77,127
224438,note_on,12,0,0,,10,,,69,127
224438,note_on,0,0,0,,4,,,76,127
224723,note_off,285,0,0,,4,,,76,127
224726,note_on,3,0,0,,2,,,74,127
225011,note_off,285,0,0,,2,,,74,127
225014,note_on,3,0,0,,4,,,76,127
225302,note_on,288,0,0,,1,,,73,127
225584,note_off,282,0,0,,4,,,76,127
225587,note_off,3,0,0,,1,,,73,127
225590,note_on,3,0,0,,5,,,65,127
225590,note_on,0,0,0,,2,,,74,127
225872,note_off,282,0,0,,10,,,69,127
225878,note_on,6,0,0,,10,,,69,127
226160,note_off,282,0,0,,5,,,65,127
226166,note_on,6,0,0,,2,,,62,127
226448,note_off,282,0,0,,10,,,69,127
226454,note_on,6,0,0,,7,,,67,127
226586,note_off,132,0,0,,7,,,67,127
226598,note_on,12,0,0,,5,,,65,127
226730,note_off,132,0,0,,5,,,65,127
226736,note_off,6,0,0,,2,,,62,127
226736,note_off,0,0,0,,2,,,74,127
226742,note_on,6,0,0,,4,,,64,127
226742,note_on,0,0,0,,10,,,57,127
226742,note_on,0,0,0,,1,,,73,127
227027,note_off,285,0,0,,1,,,73,127
227027,note_off,0,0,0,,4,,,64,127
227030,note_on,3,0,0,,5,,,65,127
227030,note_on,0,0,0,,2,,,74,127
227315,note_off,285,0,0,,2,,,74,127
227315,note_off,0,0,0,,5,,,65,127
227318,note_on,3,0,0,,7,,,67,127
227318,note_on,0,0,0,,4,,,76,127
227603,note_off,285,0,0,,7,,,67,127
227606,note_on,3,0,0,,4,,,64,127
227606,note_on,0,0,0,,1,,,73,127
227888,note_off,282,0,0,,4,,,76,127
227888,note_off,0,0,0,,10,,,57,127
227891,note_off,3,0,0,,1,,,73,127
227891,note_off,0,0,0,,4,,,64,127
227894,note_on,3,0,0,,10,,,69,127
227894,note_on,0,0,0,,5,,,53,127
227894,note_on,0,0,0,,2,,,74,127
227894,note_on,0,0,0,,5,,,77,127
228179,note_off,285,0,0,,5,,,77,127
228179,note_off,0,0,0,,2,,,74,127
228182,note_on,3,0,0,,4,,,76,127
228182,note_on,0,0,0,,7,,,79,127
228464,note_off,282,0,0,,5,,,53,127
228467,note_off,3,0,0,,7,,,79,127
228467,note_off,0,0,0,,4,,,76,127
228470,note_on,3,0,0,,2,,,50,127
228470,note_on,0,0,0,,5,,,77,127
228470,note_on,0,0,0,,10,,,81,127
228755,note_off,285,0,0,,10,,,81,127
228755,note_off,0,0,0,,5,,,77,127
228758,note_on,3,0,0,,4,,,76,127
228758,note_on,0,0,0,,7,,,79,127
228890,note_off,132,0,0,,7,,,79,127
228890,note_off,0,0,0,,4,,,76,127
228902,note_on,12,0,0,,2,,,74,127
228902,note_on,0,0,0,,5,,,77,127
229034,note_off,132,0,0,,5,,,77,127
229034,note_off,0,0,0,,2,,,74,127
229040,note_off,6,0,0,,2,,,50,127
229040,note_off,0,0,0,,10,,,69,127
229046,note_on,6,0,0,,10,,,69,127
229046,note_on,0,0,0,,10,,,45,127
229046,note_on,0,0,0,,1,,,73,127
229046,note_on,0,0,0,,4,,,76,127
229331,note_off,285,0,0,,4,,,76,127
229331,note_off,0,0,0,,1,,,73,127
229334,note_on,3,0,0,,2,,,74,127
229334,note_on,0,0,0,,5,,,77,127
229619,note_off,285,0,0,,5,,,77,127
229619,note_off,0,0,0,,2,,,74,127
229622,note_on,3,0,0,,4,,,76,127
229622,note_on,0,0,0,,7,,,79,127
229907,note_off,285,0,0,,7,,,79,127
229907,note_off,0,0,0,,4,,,76,127
229910,note_on,3,0,0,,4,,,76,127
229910,note_on,0,0,0,,1,,,73,127
230192,note_off,282,0,0,,10,,,45,127
230192,note_off,0,0,0,,10,,,69,127
230195,note_off,3,0,0,,1,,,73,127
230195,note_off,0,0,0,,4,,,76,127
230198,note_on,3,0,0,,10,,,69,127
230198,note_on,0,0,0,,5,,,41,127
230198,note_on,0,0,0,,5,,,77,127
230198,note_on,0,0,0,,10,,,81,127
230483,note_off,285,0,0,,10,,,81,127
230483,note_off,0,0,0,,5,,,77,127
230483,note_off,0,0,0,,5,,,41,127
230486,note_on,3,0,0,,2,,,38,127
230486,note_on,0,0,0,,7,,,79,127
230486,note_on,0,0,0,,4,,,76,127
230771,note_off,285,0,0,,4,,,76,127
230771,note_off,0,0,0,,7,,,79,127
230771,note_off,0,0,0,,2,,,38,127
230774,note_on,3,0,0,,2,,,50,127
230774,note_on,0,0,0,,2,,,74,127
230774,note_on,0,0,0,,5,,,77,127
231059,note_off,285,0,0,,5,,,77,127
231059,note_off,0,0,0,,2,,,74,127
231059,note_off,0,0,0,,2,,,50,127
231062,note_on,3,0,0,,4,,,52,127
231062,note_on,0,0,0,,4,,,76,127
231062,note_on,0,0,0,,0,,,72,127
231194,note_off,132,0,0,,4,,,52,127
231206,note_on,12,0,0,,5,,,53,127
231338,note_off,132,0,0,,5,,,53,127
231344,note_off,6,0,0,,10,,,69,127
231347,note_off,3,0,0,,0,,,72,127
231347,note_off,0,0,0,,4,,,76,127
231350,note_on,3,0,0,,11,,,70,127
231350,note_on,0,0,0,,7,,,55,127
231350,note_on,0,0,0,,2,,,74,127
231635,note_off,285,0,0,,7,,,55,127
231635,note_off,0,0,0,,11,,,70,127
231638,note_on,3,0,0,,10,,,69,127
231638,note_on,0,0,0,,5,,,53,127
231920,note_off,282,0,0,,2,,,74,127
231923,note_off,3,0,0,,5,,,53,127
231923,note_off,0,0,0,,10,,,69,127
231926,note_on,3,0,0,,7,,,67,127
231926,note_on,0,0,0,,4,,,52,127
231926,note_on,0,0,0,,7,,,79,127
232211,note_off,285,0,0,,4,,,52,127
232211,note_off,0,0,0,,7,,,67,127
232214,note_on,3,0,0,,11,,,70,127
232214,note_on,0,0,0,,2,,,50,127
232499,note_off,285,0,0,,2,,,50,127
232499,note_off,0,0,0,,11,,,70,127
232502,note_on,3,0,0,,10,,,69,127
232502,note_on,0,0,0,,1,,,49,127
232784,note_off,282,0,0,,7,,,79,127
232790,note_on,6,0,0,,10,,,57,127
232790,note_on,0,0,0,,5,,,77,127
232922,note_off,132,0,0,,5,,,77,127
232934,note_on,12,0,0,,4,,,76,127
233032,note_off,98,0,0,,1,,,49,127
233066,note_off,34,0,0,,4,,,76,127
233075,note_off,9,0,0,,10,,,57,127
233078,note_on,3,0,0,,11,,,46,127
233078,note_on,0,0,0,,11,,,58,127
233078,note_on,0,0,0,,2,,,74,127
233360,note_off,282,0,0,,10,,,69,127
233366,note_on,6,0,0,,7,,,67,127
233640,note_off,274,0,0,,11,,,58,127
233640,note_off,0,0,0,,11,,,46,127
233650,note_off,10,0,0,,7,,,67,127
233653,note_on,3,0,0,,10,,,69,127
233653,note_on,0,0,0,,5,,,65,127
233653,note_on,0,0,0,,10,,,45,127
233653,note_on,0,0,0,,10,,,57,127
233938,note_off,285,0,0,,5,,,65,127
233941,note_on,3,0,0,,4,,,64,127
234073,note_off,132,0,0,,4,,,64,127
234085,note_on,12,0,0,,2,,,62,127
234217,note_off,132,0,0,,2,,,62,127
234223,note_off,6,0,0,,2,,,74,127
234229,note_on,6,0,0,,4,,,64,127
234229,note_on,0,0,0,,1,,,73,127
234511,note_off,282,0,0,,10,,,69,127
234517,note_on,6,0,0,,7,,,67,127
234713,note_off,196,0,0,,10,,,57,127
234713,note_off,0,0,0,,10,,,45,127
234799,note_off,86,0,0,,1,,,73,127
234799,note_off,0,0,0,,4,,,64,127
234805,note_on,6,0,0,,2,,,62,127
234805,note_on,0,0,0,,2,,,50,127
234805,note_on,0,0,0,,2,,,38,127
234805,note_on,0,0,0,,2,,,74,127
235091,note_off,286,0,0,,7,,,67,127
235097,note_on,6,0,0,,6,,,66,127
235231,note_off,134,0,0,,6,,,66,127
235243,note_on,12,0,0,,7,,,67,127
235377,note_off,134,0,0,,7,,,67,127
235383,note_off,6,0,0,,2,,,74,127
235389,note_on,6,0,0,,10,,,69,127
235675,note_off,286,0,0,,2,,,62,127
235681,note_on,6,0,0,,0,,,60,127
235967,note_off,286,0,0,,2,,,38,127
235967,note_off,0,0,0,,2,,,50,127
235970,note_off,3,0,0,,0,,,60,127
235973,note_on,3,0,0,,2,,,38,127
235973,note_on,0,0,0,,2,,,50,127
235973,note_on,0,0,0,,11,,,58,127
236268,note_on,295,0,0,,2,,,62,127
236536,note_off,268,0,0,,10,,,69,127
236564,note_on,28,0,0,,7,,,67,127
236638,note_off,74,0,0,,2,,,62,127
236853,note_off,215,0,0,,11,,,58,127
236859,note_on,6,0,0,,10,,,57,127
236994,note_off,135,0,0,,10,,,57,127
237006,note_on,12,0,0,,7,,,55,127
237141,note_off,135,0,0,,7,,,55,127
237147,note_off,6,0,0,,2,,,50,127
237147,note_off,0,0,0,,2,,,38,127
237153,note_on,6,0,0,,10,,,57,127
237153,note_on,0,0,0,,2,,,38,127
237153,note_on,0,0,0,,2,,,50,127
237450,note_off,297,0,0,,7,,,67,127
237456,note_on,6,0,0,,6,,,66,127
237753,note_off,297,0,0,,10,,,57,127
237759,note_on,6,0,0,,7,,,55,127
238056,note_off,297,0,0,,6,,,66,127
238062,note_on,6,0,0,,4,,,64,127
238359,note_off,297,0,0,,7,,,55,127
238359,note_off,0,0,0,,2,,,50,127
238359,note_off,0,0,0,,2,,,38,127
238365,note_on,6,0,0,,10,,,45,127
238365,note_on,0,0,0,,2,,,38,127
238365,note_on,0,0,0,,6,,,54,127
238670,note_off,305,0,0,,4,,,64,127
238676,note_on,6,0,0,,2,,,62,127
238981,note_off,305,0,0,,6,,,54,127
238987,note_on,6,0,0,,4,,,52,127
239309,note_off,322,0,0,,2,,,62,127
239316,note_on,7,0,0,,1,,,61,127
239638,note_off,322,0,0,,4,,,52,127
239638,note_off,0,0,0,,10,,,45,127
239641,note_off,3,0,0,,1,,,61,127
239644,note_on,3,0,0,,10,,,57,127
239644,note_on,0,0,0,,2,,,50,127
239644,note_on,0,0,0,,6,,,54,127
239644,note_on,0,0,0,,2,,,62,127
243122,note_off,3478,0,0,,2,,,38,127
243125,note_off,3,0,0,,2,,,62,127
243125,note_off,0,0,0,,6,,,54,127
243125,note_off,0,0,0,,2,,,50,127
243125,note_off,0,0,0,,10,,,57,127
248832,end_of_track,5707,1,0,,,,,,
