tick,type,time,meta,track,program,channel,pitch,tempo,note,velocity
0,copyright,0,1,0,,,,,,
0,program_change,0,0,0,6,0,,,,
0,pitchwheel,0,0,0,,0,0,,,
0,program_change,0,0,0,6,1,,,,
0,pitchwheel,0,0,0,,1,-590,,,
0,program_change,0,0,0,6,2,,,,
0,pitchwheel,0,0,0,,2,-272,,,
0,program_change,0,0,0,6,3,,,,
0,pitchwheel,0,0,0,,3,-353,,,
0,program_change,0,0,0,6,4,,,,
0,pitchwheel,0,0,0,,4,-560,,,
0,program_change,0,0,0,6,5,,,,
0,pitchwheel,0,0,0,,5,-80,,,
0,program_change,0,0,0,6,6,,,,
0,pitchwheel,0,0,0,,6,-625,,,
0,program_change,0,0,0,6,7,,,,
0,pitchwheel,0,0,0,,7,-130,,,
0,program_change,0,0,0,6,8,,,,
0,pitchwheel,0,0,0,,8,-512,,,
0,program_change,0,0,0,6,10,,,,
0,pitchwheel,0,0,0,,10,-464,,,
0,program_change,0,0,0,6,11,,,,
0,pitchwheel,0,0,0,,11,-208,,,
0,program_change,0,0,0,6,12,,,,
0,pitchwheel,0,0,0,,12,-553,,,
0,set_tempo,0,1,0,,,,500000,,
105,note_on,105,0,0,,2,,,74,127
139,note_off,34,0,0,,2,,,74,127
140,note_on,1,0,0,,4,,,76,127
174,note_off,34,0,0,,4,,,76,127
175,note_on,1,0,0,,6,,,78,127
209,note_off,34,0,0,,6,,,78,127
210,note_on,1,0,0,,7,,,67,127
210,note_on,0,0,0,,7,,,79,127
349,note_off,139,0,0,,7,,,79,127
350,note_on,1,0,0,,3,,,75,127
489,note_off,139,0,0,,3,,,75,127
490,note_on,1,0,0,,2,,,74,127
629,note_off,139,0,0,,2,,,74,127
630,note_on,1,0,0,,0,,,72,127
630,note_on,0,0,0,,10,,,81,127
769,note_off,139,0,0,,0,,,72,127
770,note_on,1,0,0,,11,,,70,127
909,note_off,139,0,0,,11,,,70,127
909,note_off,0,0,0,,7,,,67,127
910,note_on,1,0,0,,6,,,66,127
910,note_on,0,0,0,,10,,,69,127
1049,note_off,139,0,0,,10,,,69,127
1049,note_off,0,0,0,,6,,,66,127
1049,note_off,0,0,0,,10,,,81,127
1050,note_on,1,0,0,,7,,,67,127
1050,note_on,0,0,0,,7,,,79,127
1189,note_off,139,0,0,,7,,,79,127
1190,note_on,1,0,0,,3,,,75,127
1329,note_off,139,0,0,,3,,,75,127
1330,note_on,1,0,0,,2,,,74,127
1469,note_off,139,0,0,,2,,,74,127
1470,note_on,1,0,0,,0,,,72,127
1470,note_on,0,0,0,,10,,,81,127
1609,note_off,139,0,0,,0,,,72,127
1610,note_on,1,0,0,,11,,,70,127
1749,note_off,139,0,0,,11,,,70,127
1749,note_off,0,0,0,,7,,,67,127
1750,note_on,1,0,0,,6,,,66,127
1750,note_on,0,0,0,,10,,,69,127
1889,note_off,139,0,0,,10,,,69,127
1889,note_off,0,0,0,,6,,,66,127
1889,note_off,0,0,0,,10,,,81,127
1890,note_on,1,0,0,,7,,,67,127
1890,note_on,0,0,0,,7,,,79,127
2029,note_off,139,0,0,,7,,,79,127
2030,note_on,1,0,0,,3,,,75,127
2169,note_off,139,0,0,,3,,,75,127
2170,note_on,1,0,0,,2,,,74,127
2309,note_off,139,0,0,,2,,,74,127
2310,note_on,1,0,0,,10,,,81,127
2310,note_on,0,0,0,,0,,,72,127
2449,note_off,139,0,0,,0,,,72,127
2450,note_on,1,0,0,,11,,,70,127
2589,note_off,139,0,0,,11,,,70,127
2589,note_off,0,0,0,,7,,,67,127
2590,note_on,1,0,0,,6,,,66,127
2590,note_on,0,0,0,,10,,,69,127
2729,note_off,139,0,0,,10,,,69,127
2729,note_off,0,0,0,,6,,,66,127
2729,note_off,0,0,0,,10,,,81,127
2730,note_on,1,0,0,,7,,,67,127
2730,note_on,0,0,0,,10,,,69,127
2869,note_off,139,0,0,,10,,,69,127
2870,note_on,1,0,0,,11,,,70,127
3148,note_off,278,0,0,,11,,,70,127
3148,note_off,0,0,0,,7,,,67,127
3149,note_on,1,0,0,,7,,,67,127
3149,note_on,0,0,0,,7,,,79,127
3288,note_off,139,0,0,,7,,,79,127
3288,note_off,0,0,0,,7,,,67,127
3289,note_on,1,0,0,,5,,,65,127
3289,note_on,0,0,0,,5,,,77,127
3428,note_off,139,0,0,,5,,,77,127
3428,note_off,0,0,0,,5,,,65,127
3429,note_on,1,0,0,,3,,,63,127
3429,note_on,0,0,0,,3,,,75,127
3568,note_off,139,0,0,,3,,,75,127
3568,note_off,0,0,0,,3,,,63,127
3569,note_on,1,0,0,,2,,,62,127
3569,note_on,0,0,0,,2,,,74,127
3708,note_off,139,0,0,,2,,,74,127
3708,note_off,0,0,0,,2,,,62,127
3709,note_on,1,0,0,,0,,,60,127
3709,note_on,0,0,0,,0,,,72,127
3848,note_off,139,0,0,,0,,,72,127
3848,note_off,0,0,0,,0,,,60,127
3849,note_on,1,0,0,,11,,,58,127
3849,note_on,0,0,0,,11,,,70,127
3988,note_off,139,0,0,,11,,,70,127
3988,note_off,0,0,0,,11,,,58,127
3989,note_on,1,0,0,,11,,,58,127
3989,note_on,0,0,0,,11,,,70,127
4128,note_off,139,0,0,,11,,,70,127
4128,note_off,0,0,0,,11,,,58,127
4129,note_on,1,0,0,,10,,,57,127
4129,note_on,0,0,0,,10,,,69,127
4268,note_off,139,0,0,,10,,,69,127
4268,note_off,0,0,0,,10,,,57,127
4269,note_on,1,0,0,,7,,,55,127
4269,note_on,0,0,0,,7,,,67,127
4408,note_off,139,0,0,,7,,,67,127
4408,note_off,0,0,0,,7,,,55,127
4409,note_on,1,0,0,,2,,,50,127
4409,note_on,0,0,0,,2,,,62,127
4687,note_off,278,0,0,,2,,,62,127
4687,note_off,0,0,0,,2,,,50,127
4688,note_on,1,0,0,,2,,,50,127
4688,note_on,0,0,0,,2,,,62,127
4827,note_off,139,0,0,,2,,,62,127
4827,note_off,0,0,0,,2,,,50,127
4828,note_on,1,0,0,,7,,,67,127
4828,note_on,0,0,0,,7,,,79,127
4967,note_off,139,0,0,,7,,,79,127
4967,note_off,0,0,0,,7,,,67,127
4968,note_on,1,0,0,,5,,,65,127
4968,note_on,0,0,0,,5,,,77,127
5107,note_off,139,0,0,,5,,,77,127
5107,note_off,0,0,0,,5,,,65,127
5108,note_on,1,0,0,,3,,,63,127
5108,note_on,0,0,0,,3,,,75,127
5247,note_off,139,0,0,,3,,,75,127
5247,note_off,0,0,0,,3,,,63,127
5248,note_on,1,0,0,,2,,,62,127
5248,note_on,0,0,0,,2,,,74,127
5387,note_off,139,0,0,,2,,,74,127
5387,note_off,0,0,0,,2,,,62,127
5388,note_on,1,0,0,,0,,,60,127
5388,note_on,0,0,0,,0,,,72,127
5527,note_off,139,0,0,,0,,,72,127
5527,note_off,0,0,0,,0,,,60,127
5528,note_on,1,0,0,,11,,,58,127
5528,note_on,0,0,0,,11,,,70,127
5667,note_off,139,0,0,,11,,,70,127
5667,note_off,0,0,0,,11,,,58,127
5668,note_on,1,0,0,,11,,,58,127
5668,note_on,0,0,0,,11,,,70,127
5807,note_off,139,0,0,,11,,,70,127
5807,note_off,0,0,0,,11,,,58,127
5808,note_on,1,0,0,,10,,,57,127
5808,note_on,0,0,0,,10,,,69,127
5947,note_off,139,0,0,,10,,,69,127
5947,note_off,0,0,0,,10,,,57,127
5948,note_on,1,0,0,,7,,,55,127
5948,note_on,0,0,0,,7,,,67,127
6087,note_off,139,0,0,,7,,,67,127
6087,note_off,0,0,0,,7,,,55,127
6088,note_on,1,0,0,,2,,,50,127
6088,note_on,0,0,0,,2,,,62,127
6506,note_off,418,0,0,,2,,,62,127
6506,note_off,0,0,0,,2,,,50,127
6507,note_on,1,0,0,,11,,,46,127
6507,note_on,0,0,0,,7,,,55,127
6507,note_on,0,0,0,,11,,,82,127
6646,note_off,139,0,0,,11,,,82,127
6647,note_on,1,0,0,,7,,,79,127
6786,note_off,139,0,0,,7,,,79,127
6787,note_on,1,0,0,,2,,,74,127
6926,note_off,139,0,0,,2,,,74,127
6926,note_off,0,0,0,,7,,,55,127
6926,note_off,0,0,0,,11,,,46,127
6927,note_on,1,0,0,,7,,,55,127
6927,note_on,0,0,0,,10,,,57,127
6927,note_on,0,0,0,,0,,,48,127
6927,note_on,0,0,0,,5,,,77,127
6996,note_off,69,0,0,,5,,,77,127
6997,note_on,1,0,0,,3,,,75,127
7066,note_off,69,0,0,,3,,,75,127
7067,note_on,1,0,0,,5,,,77,127
7136,note_off,69,0,0,,5,,,77,127
7137,note_on,1,0,0,,3,,,75,127
7206,note_off,69,0,0,,3,,,75,127
7207,note_on,1,0,0,,2,,,74,127
7276,note_off,69,0,0,,2,,,74,127
7277,note_on,1,0,0,,3,,,75,127
7346,note_off,69,0,0,,3,,,75,127
7346,note_off,0,0,0,,0,,,48,127
7346,note_off,0,0,0,,10,,,57,127
7346,note_off,0,0,0,,7,,,55,127
7347,note_on,1,0,0,,2,,,50,127
7347,note_on,0,0,0,,10,,,57,127
7347,note_on,0,0,0,,10,,,81,127
7486,note_off,139,0,0,,10,,,81,127
7487,note_on,1,0,0,,0,,,72,127
7626,note_off,139,0,0,,0,,,72,127
7627,note_on,1,0,0,,10,,,69,127
7766,note_off,139,0,0,,10,,,69,127
7766,note_off,0,0,0,,10,,,57,127
7766,note_off,0,0,0,,2,,,50,127
7767,note_on,1,0,0,,7,,,43,127
7767,note_on,0,0,0,,7,,,55,127
7767,note_on,0,0,0,,0,,,72,127
7836,note_off,69,0,0,,0,,,72,127
7837,note_on,1,0,0,,11,,,70,127
7906,note_off,69,0,0,,11,,,70,127
7907,note_on,1,0,0,,0,,,72,127
7976,note_off,69,0,0,,0,,,72,127
7977,note_on,1,0,0,,11,,,70,127
8046,note_off,69,0,0,,11,,,70,127
8047,note_on,1,0,0,,10,,,69,127
8116,note_off,69,0,0,,10,,,69,127
8117,note_on,1,0,0,,11,,,70,127
8186,note_off,69,0,0,,11,,,70,127
8186,note_off,0,0,0,,7,,,55,127
8186,note_off,0,0,0,,7,,,43,127
8187,note_on,1,0,0,,7,,,55,127
8187,note_on,0,0,0,,11,,,46,127
8187,note_on,0,0,0,,2,,,74,127
8326,note_off,139,0,0,,2,,,74,127
8327,note_on,1,0,0,,7,,,67,127
8466,note_off,139,0,0,,7,,,67,127
8467,note_on,1,0,0,,2,,,62,127
8606,note_off,139,0,0,,2,,,62,127
8606,note_off,0,0,0,,11,,,46,127
8606,note_off,0,0,0,,7,,,55,127
8607,note_on,1,0,0,,7,,,55,127
8607,note_on,0,0,0,,10,,,57,127
8607,note_on,0,0,0,,0,,,48,127
8607,note_on,0,0,0,,5,,,65,127
8676,note_off,69,0,0,,5,,,65,127
8677,note_on,1,0,0,,4,,,64,127
8746,note_off,69,0,0,,4,,,64,127
8747,note_on,1,0,0,,5,,,65,127
8816,note_off,69,0,0,,5,,,65,127
8817,note_on,1,0,0,,4,,,64,127
8886,note_off,69,0,0,,4,,,64,127
8887,note_on,1,0,0,,2,,,62,127
8956,note_off,69,0,0,,2,,,62,127
8957,note_on,1,0,0,,4,,,64,127
9026,note_off,69,0,0,,4,,,64,127
9026,note_off,0,0,0,,0,,,48,127
9026,note_off,0,0,0,,10,,,57,127
9026,note_off,0,0,0,,7,,,55,127
9027,note_on,1,0,0,,10,,,57,127
9027,note_on,0,0,0,,2,,,50,127
9027,note_on,0,0,0,,0,,,72,127
9166,note_off,139,0,0,,0,,,72,127
9167,note_on,1,0,0,,10,,,69,127
9306,note_off,139,0,0,,10,,,69,127
9307,note_on,1,0,0,,6,,,66,127
9446,note_off,139,0,0,,6,,,66,127
9446,note_off,0,0,0,,2,,,50,127
9446,note_off,0,0,0,,10,,,57,127
9447,note_on,1,0,0,,7,,,55,127
9447,note_on,0,0,0,,7,,,43,127
9447,note_on,0,0,0,,7,,,67,127
9865,note_off,418,0,0,,7,,,67,127
9865,note_off,0,0,0,,7,,,43,127
9865,note_off,0,0,0,,7,,,55,127
9866,note_on,1,0,0,,7,,,55,127
9866,note_on,0,0,0,,11,,,46,127
9866,note_on,0,0,0,,11,,,82,127
10005,note_off,139,0,0,,11,,,82,127
10006,note_on,1,0,0,,7,,,79,127
10145,note_off,139,0,0,,7,,,79,127
10146,note_on,1,0,0,,2,,,74,127
10285,note_off,139,0,0,,2,,,74,127
10285,note_off,0,0,0,,11,,,46,127
10285,note_off,0,0,0,,7,,,55,127
10286,note_on,1,0,0,,10,,,57,127
10286,note_on,0,0,0,,0,,,48,127
10286,note_on,0,0,0,,7,,,55,127
10286,note_on,0,0,0,,5,,,77,127
10564,note_off,278,0,0,,5,,,77,127
10565,note_on,1,0,0,,3,,,75,127
10704,note_off,139,0,0,,3,,,75,127
10704,note_off,0,0,0,,7,,,55,127
10704,note_off,0,0,0,,0,,,48,127
10704,note_off,0,0,0,,10,,,57,127
10705,note_on,1,0,0,,10,,,57,127
10705,note_on,0,0,0,,2,,,50,127
10705,note_on,0,0,0,,10,,,81,127
10844,note_off,139,0,0,,10,,,81,127
10845,note_on,1,0,0,,0,,,72,127
10984,note_off,139,0,0,,0,,,72,127
10985,note_on,1,0,0,,10,,,69,127
11124,note_off,139,0,0,,10,,,69,127
11124,note_off,0,0,0,,2,,,50,127
11124,note_off,0,0,0,,10,,,57,127
11125,note_on,1,0,0,,7,,,43,127
11125,note_on,0,0,0,,7,,,55,127
11125,note_on,0,0,0,,0,,,72,127
11403,note_off,278,0,0,,0,,,72,127
11404,note_on,1,0,0,,11,,,70,127
11543,note_off,139,0,0,,11,,,70,127
11543,note_off,0,0,0,,7,,,55,127
11543,note_off,0,0,0,,7,,,43,127
11544,note_on,1,0,0,,11,,,46,127
11544,note_on,0,0,0,,7,,,55,127
11544,note_on,0,0,0,,2,,,74,127
11683,note_off,139,0,0,,2,,,74,127
11684,note_on,1,0,0,,7,,,67,127
11823,note_off,139,0,0,,7,,,67,127
11824,note_on,1,0,0,,2,,,62,127
11963,note_off,139,0,0,,2,,,62,127
11963,note_off,0,0,0,,7,,,55,127
11963,note_off,0,0,0,,11,,,46,127
11964,note_on,1,0,0,,10,,,57,127
11964,note_on,0,0,0,,0,,,48,127
11964,note_on,0,0,0,,7,,,55,127
11964,note_on,0,0,0,,5,,,65,127
12242,note_off,278,0,0,,5,,,65,127
12243,note_on,1,0,0,,4,,,64,127
12382,note_off,139,0,0,,4,,,64,127
12382,note_off,0,0,0,,7,,,55,127
12382,note_off,0,0,0,,0,,,48,127
12382,note_off,0,0,0,,10,,,57,127
12383,note_on,1,0,0,,10,,,57,127
12383,note_on,0,0,0,,2,,,50,127
12383,note_on,0,0,0,,0,,,72,127
12522,note_off,139,0,0,,0,,,72,127
12523,note_on,1,0,0,,10,,,69,127
12662,note_off,139,0,0,,10,,,69,127
12663,note_on,1,0,0,,6,,,66,127
12802,note_off,139,0,0,,6,,,66,127
12803,note_on,1,0,0,,7,,,67,127
12848,note_off,45,0,0,,2,,,50,127
12848,note_off,0,0,0,,10,,,57,127
12856,note_on,8,0,0,,7,,,55,127
12902,note_off,46,0,0,,7,,,55,127
12909,note_on,7,0,0,,10,,,57,127
12955,note_off,46,0,0,,10,,,57,127
12962,note_on,7,0,0,,11,,,58,127
13007,note_off,45,0,0,,11,,,58,127
13015,note_on,8,0,0,,0,,,60,127
13061,note_off,46,0,0,,0,,,60,127
13068,note_on,7,0,0,,2,,,62,127
13114,note_off,46,0,0,,2,,,62,127
13121,note_on,7,0,0,,4,,,64,127
13166,note_off,45,0,0,,4,,,64,127
13174,note_on,8,0,0,,6,,,66,127
13178,note_off,4,0,0,,7,,,67,127
13219,note_off,41,0,0,,6,,,66,127
13226,note_on,7,0,0,,7,,,67,127
13366,note_on,140,0,0,,10,,,69,127
13435,note_off,69,0,0,,10,,,69,127
13436,note_on,1,0,0,,11,,,70,127
13505,note_off,69,0,0,,11,,,70,127
13506,note_on,1,0,0,,0,,,72,127
13575,note_off,69,0,0,,0,,,72,127
13576,note_on,1,0,0,,2,,,74,127
13645,note_off,69,0,0,,2,,,74,127
13646,note_on,1,0,0,,0,,,60,127
13646,note_on,0,0,0,,3,,,75,127
13785,note_off,139,0,0,,3,,,75,127
13786,note_on,1,0,0,,2,,,74,127
13925,note_off,139,0,0,,2,,,74,127
13926,note_on,1,0,0,,0,,,72,127
14065,note_off,139,0,0,,0,,,72,127
14065,note_off,0,0,0,,0,,,60,127
14065,note_off,0,0,0,,7,,,67,127
14066,note_on,1,0,0,,2,,,62,127
14066,note_on,0,0,0,,6,,,66,127
14066,note_on,0,0,0,,2,,,74,127
14066,note_on,0,0,0,,0,,,72,127
14205,note_off,139,0,0,,0,,,72,127
14205,note_off,0,0,0,,2,,,74,127
14206,note_on,1,0,0,,11,,,70,127
14345,note_off,139,0,0,,11,,,70,127
14346,note_on,1,0,0,,10,,,69,127
14485,note_off,139,0,0,,10,,,69,127
14486,note_on,1,0,0,,11,,,70,127
14531,note_off,45,0,0,,6,,,66,127
14531,note_off,0,0,0,,2,,,62,127
14539,note_on,8,0,0,,7,,,55,127
14585,note_off,46,0,0,,7,,,55,127
14592,note_on,7,0,0,,10,,,57,127
14638,note_off,46,0,0,,10,,,57,127
14645,note_on,7,0,0,,11,,,58,127
14690,note_off,45,0,0,,11,,,58,127
14698,note_on,8,0,0,,0,,,60,127
14744,note_off,46,0,0,,0,,,60,127
14751,note_on,7,0,0,,2,,,62,127
14797,note_off,46,0,0,,2,,,62,127
14804,note_on,7,0,0,,4,,,64,127
14849,note_off,45,0,0,,4,,,64,127
14857,note_on,8,0,0,,6,,,66,127
14903,note_off,46,0,0,,6,,,66,127
14910,note_on,7,0,0,,7,,,67,127
15049,note_off,139,0,0,,11,,,70,127
15050,note_on,1,0,0,,10,,,69,127
15119,note_off,69,0,0,,10,,,69,127
15120,note_on,1,0,0,,11,,,70,127
15189,note_off,69,0,0,,11,,,70,127
15190,note_on,1,0,0,,0,,,72,127
15259,note_off,69,0,0,,0,,,72,127
15260,note_on,1,0,0,,2,,,74,127
15329,note_off,69,0,0,,2,,,74,127
15330,note_on,1,0,0,,0,,,60,127
15330,note_on,0,0,0,,3,,,75,127
15469,note_off,139,0,0,,3,,,75,127
15470,note_on,1,0,0,,2,,,74,127
15609,note_off,139,0,0,,2,,,74,127
15610,note_on,1,0,0,,0,,,72,127
15749,note_off,139,0,0,,0,,,72,127
15749,note_off,0,0,0,,0,,,60,127
15749,note_off,0,0,0,,7,,,67,127
15750,note_on,1,0,0,,2,,,62,127
15750,note_on,0,0,0,,6,,,66,127
15750,note_on,0,0,0,,2,,,74,127
15750,note_on,0,0,0,,0,,,72,127
15889,note_off,139,0,0,,0,,,72,127
15889,note_off,0,0,0,,2,,,74,127
15890,note_on,1,0,0,,11,,,70,127
16029,note_off,139,0,0,,11,,,70,127
16030,note_on,1,0,0,,10,,,69,127
16169,note_off,139,0,0,,10,,,69,127
16170,note_on,1,0,0,,11,,,70,127
16215,note_off,45,0,0,,6,,,66,127
16215,note_off,0,0,0,,2,,,62,127
16223,note_on,8,0,0,,7,,,55,127
16269,note_off,46,0,0,,7,,,55,127
16276,note_on,7,0,0,,10,,,57,127
16322,note_off,46,0,0,,10,,,57,127
16329,note_on,7,0,0,,11,,,58,127
16374,note_off,45,0,0,,11,,,58,127
16382,note_on,8,0,0,,0,,,60,127
16428,note_off,46,0,0,,0,,,60,127
16435,note_on,7,0,0,,2,,,62,127
16481,note_off,46,0,0,,2,,,62,127
16488,note_on,7,0,0,,4,,,64,127
16533,note_off,45,0,0,,4,,,64,127
16541,note_on,8,0,0,,6,,,66,127
16587,note_off,46,0,0,,6,,,66,127
16594,note_on,7,0,0,,7,,,67,127
16733,note_off,139,0,0,,11,,,70,127
16734,note_on,1,0,0,,0,,,72,127
16803,note_off,69,0,0,,0,,,72,127
16804,note_on,1,0,0,,2,,,74,127
16873,note_off,69,0,0,,2,,,74,127
16874,note_on,1,0,0,,3,,,75,127
16943,note_off,69,0,0,,3,,,75,127
16944,note_on,1,0,0,,5,,,77,127
17013,note_off,69,0,0,,5,,,77,127
17014,note_on,1,0,0,,3,,,63,127
17014,note_on,0,0,0,,7,,,79,127
17153,note_off,139,0,0,,7,,,79,127
17154,note_on,1,0,0,,5,,,77,127
17293,note_off,139,0,0,,5,,,77,127
17294,note_on,1,0,0,,3,,,75,127
17433,note_off,139,0,0,,3,,,75,127
17433,note_off,0,0,0,,3,,,63,127
17433,note_off,0,0,0,,7,,,67,127
17434,note_on,1,0,0,,5,,,65,127
17434,note_on,0,0,0,,10,,,69,127
17434,note_on,0,0,0,,5,,,77,127
17434,note_on,0,0,0,,3,,,75,127
17573,note_off,139,0,0,,3,,,75,127
17573,note_off,0,0,0,,5,,,77,127
17574,note_on,1,0,0,,2,,,74,127
17713,note_off,139,0,0,,2,,,74,127
17714,note_on,1,0,0,,0,,,72,127
17853,note_off,139,0,0,,0,,,72,127
17854,note_on,1,0,0,,2,,,74,127
17899,note_off,45,0,0,,10,,,69,127
17899,note_off,0,0,0,,5,,,65,127
17907,note_on,8,0,0,,11,,,58,127
17953,note_off,46,0,0,,11,,,58,127
17960,note_on,7,0,0,,0,,,60,127
18006,note_off,46,0,0,,0,,,60,127
18013,note_on,7,0,0,,2,,,62,127
18058,note_off,45,0,0,,2,,,62,127
18066,note_on,8,0,0,,3,,,63,127
18112,note_off,46,0,0,,3,,,63,127
18119,note_on,7,0,0,,5,,,65,127
18165,note_off,46,0,0,,5,,,65,127
18172,note_on,7,0,0,,7,,,67,127
18217,note_off,45,0,0,,7,,,67,127
18225,note_on,8,0,0,,10,,,69,127
18271,note_off,46,0,0,,10,,,69,127
18278,note_on,7,0,0,,11,,,70,127
18417,note_off,139,0,0,,2,,,74,127
18418,note_on,1,0,0,,3,,,75,127
18487,note_off,69,0,0,,3,,,75,127
18488,note_on,1,0,0,,5,,,77,127
18557,note_off,69,0,0,,5,,,77,127
18558,note_on,1,0,0,,7,,,79,127
18627,note_off,69,0,0,,7,,,79,127
18628,note_on,1,0,0,,10,,,81,127
18697,note_off,69,0,0,,10,,,81,127
18698,note_on,1,0,0,,3,,,63,127
18698,note_on,0,0,0,,11,,,82,127
18837,note_off,139,0,0,,11,,,82,127
18838,note_on,1,0,0,,10,,,81,127
18977,note_off,139,0,0,,10,,,81,127
18978,note_on,1,0,0,,7,,,79,127
19117,note_off,139,0,0,,7,,,79,127
19117,note_off,0,0,0,,3,,,63,127
19117,note_off,0,0,0,,11,,,70,127
19118,note_on,1,0,0,,10,,,69,127
19118,note_on,0,0,0,,5,,,65,127
19118,note_on,0,0,0,,10,,,81,127
19118,note_on,0,0,0,,7,,,79,127
19257,note_off,139,0,0,,7,,,79,127
19257,note_off,0,0,0,,10,,,81,127
19258,note_on,1,0,0,,5,,,77,127
19397,note_off,139,0,0,,5,,,77,127
19398,note_on,1,0,0,,3,,,75,127
19537,note_off,139,0,0,,3,,,75,127
19538,note_on,1,0,0,,2,,,74,127
19583,note_off,45,0,0,,5,,,65,127
19583,note_off,0,0,0,,10,,,69,127
19591,note_on,8,0,0,,11,,,58,127
19637,note_off,46,0,0,,11,,,58,127
19644,note_on,7,0,0,,0,,,60,127
19690,note_off,46,0,0,,0,,,60,127
19697,note_on,7,0,0,,2,,,62,127
19742,note_off,45,0,0,,2,,,62,127
19750,note_on,8,0,0,,3,,,63,127
19796,note_off,46,0,0,,3,,,63,127
19803,note_on,7,0,0,,5,,,65,127
19849,note_off,46,0,0,,5,,,65,127
19856,note_on,7,0,0,,7,,,67,127
19901,note_off,45,0,0,,7,,,67,127
19909,note_on,8,0,0,,10,,,69,127
19955,note_off,46,0,0,,10,,,69,127
19962,note_on,7,0,0,,11,,,70,127
20031,note_off,69,0,0,,2,,,74,127
20032,note_on,1,0,0,,4,,,76,127
20101,note_off,69,0,0,,4,,,76,127
20102,note_on,1,0,0,,5,,,77,127
20171,note_off,69,0,0,,5,,,77,127
20172,note_on,1,0,0,,7,,,79,127
20241,note_off,69,0,0,,7,,,79,127
20242,note_on,1,0,0,,10,,,81,127
20311,note_off,69,0,0,,10,,,81,127
20312,note_on,1,0,0,,11,,,82,127
20381,note_off,69,0,0,,11,,,82,127
20381,note_off,0,0,0,,11,,,70,127
20382,note_on,1,0,0,,0,,,72,127
20382,note_on,0,0,0,,10,,,69,127
20382,note_on,0,0,0,,0,,,84,127
20521,note_off,139,0,0,,0,,,84,127
20522,note_on,1,0,0,,10,,,81,127
20661,note_off,139,0,0,,10,,,81,127
20662,note_on,1,0,0,,5,,,77,127
20801,note_off,139,0,0,,5,,,77,127
20801,note_off,0,0,0,,10,,,69,127
20801,note_off,0,0,0,,0,,,72,127
20802,note_on,1,0,0,,7,,,67,127
20802,note_on,0,0,0,,11,,,70,127
20802,note_on,0,0,0,,4,,,76,127
20941,note_off,139,0,0,,4,,,76,127
20942,note_on,1,0,0,,5,,,77,127
21081,note_off,139,0,0,,5,,,77,127
21082,note_on,1,0,0,,7,,,79,127
21221,note_off,139,0,0,,7,,,79,127
21221,note_off,0,0,0,,11,,,70,127
21221,note_off,0,0,0,,7,,,67,127
21222,note_on,1,0,0,,10,,,69,127
21222,note_on,0,0,0,,5,,,65,127
21222,note_on,0,0,0,,8,,,80,127
21500,note_off,278,0,0,,8,,,80,127
21501,note_on,1,0,0,,10,,,81,127
21640,note_off,139,0,0,,10,,,81,127
21640,note_off,0,0,0,,5,,,65,127
21640,note_off,0,0,0,,10,,,69,127
21641,note_on,1,0,0,,7,,,67,127
21641,note_on,0,0,0,,11,,,70,127
21641,note_on,0,0,0,,7,,,79,127
21780,note_off,139,0,0,,7,,,79,127
21781,note_on,1,0,0,,10,,,81,127
21920,note_off,139,0,0,,10,,,81,127
21921,note_on,1,0,0,,11,,,82,127
22060,note_off,139,0,0,,11,,,82,127
22060,note_off,0,0,0,,11,,,70,127
22060,note_off,0,0,0,,7,,,67,127
22061,note_on,1,0,0,,10,,,69,127
22061,note_on,0,0,0,,5,,,65,127
22061,note_on,0,0,0,,10,,,81,127
22200,note_off,139,0,0,,10,,,81,127
22201,note_on,1,0,0,,5,,,77,127
22340,note_off,139,0,0,,5,,,77,127
22341,note_on,1,0,0,,2,,,74,127
22480,note_off,139,0,0,,2,,,74,127
22480,note_off,0,0,0,,5,,,65,127
22480,note_off,0,0,0,,10,,,69,127
22481,note_on,1,0,0,,7,,,67,127
22481,note_on,0,0,0,,4,,,64,127
22481,note_on,0,0,0,,1,,,73,127
22620,note_off,139,0,0,,1,,,73,127
22621,note_on,1,0,0,,2,,,74,127
22760,note_off,139,0,0,,2,,,74,127
22761,note_on,1,0,0,,4,,,76,127
22900,note_off,139,0,0,,4,,,76,127
22900,note_off,0,0,0,,4,,,64,127
22900,note_off,0,0,0,,7,,,67,127
22901,note_on,1,0,0,,2,,,38,127
22901,note_on,0,0,0,,4,,,76,127
23179,note_off,278,0,0,,4,,,76,127
23180,note_on,1,0,0,,5,,,77,127
23319,note_off,139,0,0,,5,,,77,127
23319,note_off,0,0,0,,2,,,38,127
23320,note_on,1,0,0,,10,,,69,127
23320,note_on,0,0,0,,10,,,81,127
23459,note_off,139,0,0,,10,,,69,127
23460,note_on,1,0,0,,5,,,65,127
23599,note_off,139,0,0,,5,,,65,127
23600,note_on,1,0,0,,2,,,62,127
23739,note_off,139,0,0,,2,,,62,127
23740,note_on,1,0,0,,7,,,43,127
23879,note_off,139,0,0,,10,,,81,127
23880,note_on,1,0,0,,11,,,82,127
24019,note_off,139,0,0,,11,,,82,127
24020,note_on,1,0,0,,7,,,79,127
24159,note_off,139,0,0,,7,,,79,127
24159,note_off,0,0,0,,7,,,43,127
24160,note_on,1,0,0,,7,,,67,127
24160,note_on,0,0,0,,1,,,73,127
24299,note_off,139,0,0,,7,,,67,127
24300,note_on,1,0,0,,4,,,64,127
24439,note_off,139,0,0,,4,,,64,127
24440,note_on,1,0,0,,1,,,61,127
24579,note_off,139,0,0,,1,,,61,127
24580,note_on,1,0,0,,5,,,41,127
24719,note_off,139,0,0,,1,,,73,127
24720,note_on,1,0,0,,10,,,81,127
24859,note_off,139,0,0,,10,,,81,127
24860,note_on,1,0,0,,5,,,77,127
24999,note_off,139,0,0,,5,,,77,127
24999,note_off,0,0,0,,5,,,41,127
25000,note_on,1,0,0,,10,,,69,127
25000,note_on,0,0,0,,2,,,74,127
25139,note_off,139,0,0,,10,,,69,127
25140,note_on,1,0,0,,5,,,65,127
25279,note_off,139,0,0,,5,,,65,127
25280,note_on,1,0,0,,2,,,62,127
25419,note_off,139,0,0,,2,,,62,127
25420,note_on,1,0,0,,7,,,43,127
25559,note_off,139,0,0,,2,,,74,127
25560,note_on,1,0,0,,11,,,82,127
25699,note_off,139,0,0,,11,,,82,127
25700,note_on,1,0,0,,7,,,79,127
25839,note_off,139,0,0,,7,,,79,127
25839,note_off,0,0,0,,7,,,43,127
25840,note_on,1,0,0,,7,,,67,127
25840,note_on,0,0,0,,1,,,73,127
25979,note_off,139,0,0,,7,,,67,127
25980,note_on,1,0,0,,4,,,64,127
26119,note_off,139,0,0,,4,,,64,127
26120,note_on,1,0,0,,1,,,61,127
26259,note_off,139,0,0,,1,,,61,127
26260,note_on,1,0,0,,5,,,41,127
26399,note_off,139,0,0,,1,,,73,127
26400,note_on,1,0,0,,10,,,81,127
26539,note_off,139,0,0,,10,,,81,127
26540,note_on,1,0,0,,5,,,77,127
26679,note_off,139,0,0,,5,,,77,127
26679,note_off,0,0,0,,5,,,41,127
26680,note_on,1,0,0,,10,,,69,127
26680,note_on,0,0,0,,2,,,74,127
26819,note_off,139,0,0,,10,,,69,127
26820,note_on,1,0,0,,5,,,65,127
26959,note_off,139,0,0,,5,,,65,127
26960,note_on,1,0,0,,2,,,62,127
27099,note_off,139,0,0,,2,,,62,127
27100,note_on,1,0,0,,7,,,43,127
27239,note_off,139,0,0,,2,,,74,127
27240,note_on,1,0,0,,4,,,76,127
27240,note_on,0,0,0,,7,,,79,127
27379,note_off,139,0,0,,7,,,79,127
27379,note_off,0,0,0,,4,,,76,127
27380,note_on,1,0,0,,5,,,77,127
27380,note_on,0,0,0,,2,,,74,127
27519,note_off,139,0,0,,2,,,74,127
27519,note_off,0,0,0,,5,,,77,127
27519,note_off,0,0,0,,7,,,43,127
27520,note_on,1,0,0,,10,,,45,127
27520,note_on,0,0,0,,1,,,73,127
27520,note_on,0,0,0,,4,,,76,127
27659,note_off,139,0,0,,4,,,76,127
27659,note_off,0,0,0,,1,,,73,127
27660,note_on,1,0,0,,12,,,71,127
27660,note_on,0,0,0,,2,,,74,127
27799,note_off,139,0,0,,2,,,74,127
27799,note_off,0,0,0,,12,,,71,127
27800,note_on,1,0,0,,1,,,73,127
27800,note_on,0,0,0,,4,,,76,127
27939,note_off,139,0,0,,4,,,76,127
27939,note_off,0,0,0,,1,,,73,127
27939,note_off,0,0,0,,10,,,45,127
27940,note_on,1,0,0,,2,,,38,127
27940,note_on,0,0,0,,5,,,77,127
28079,note_off,139,0,0,,5,,,77,127
28080,note_on,1,0,0,,1,,,73,127
28219,note_off,139,0,0,,1,,,73,127
28220,note_on,1,0,0,,2,,,74,127
28359,note_off,139,0,0,,2,,,74,127
28359,note_off,0,0,0,,2,,,38,127
28360,note_on,1,0,0,,10,,,69,127
28360,note_on,0,0,0,,10,,,81,127
28499,note_off,139,0,0,,10,,,69,127
28500,note_on,1,0,0,,5,,,65,127
28639,note_off,139,0,0,,5,,,65,127
28640,note_on,1,0,0,,2,,,62,127
28779,note_off,139,0,0,,2,,,62,127
28780,note_on,1,0,0,,7,,,43,127
28919,note_off,139,0,0,,10,,,81,127
28920,note_on,1,0,0,,11,,,82,127
29059,note_off,139,0,0,,11,,,82,127
29060,note_on,1,0,0,,7,,,79,127
29199,note_off,139,0,0,,7,,,79,127
29199,note_off,0,0,0,,7,,,43,127
29200,note_on,1,0,0,,7,,,67,127
29200,note_on,0,0,0,,1,,,73,127
29339,note_off,139,0,0,,7,,,67,127
29340,note_on,1,0,0,,4,,,64,127
29479,note_off,139,0,0,,4,,,64,127
29480,note_on,1,0,0,,1,,,61,127
29619,note_off,139,0,0,,1,,,61,127
29620,note_on,1,0,0,,5,,,41,127
29759,note_off,139,0,0,,1,,,73,127
29760,note_on,1,0,0,,10,,,81,127
29899,note_off,139,0,0,,10,,,81,127
29900,note_on,1,0,0,,5,,,77,127
30039,note_off,139,0,0,,5,,,77,127
30039,note_off,0,0,0,,5,,,41,127
30040,note_on,1,0,0,,10,,,69,127
30040,note_on,0,0,0,,2,,,74,127
30179,note_off,139,0,0,,10,,,69,127
30180,note_on,1,0,0,,5,,,65,127
30319,note_off,139,0,0,,5,,,65,127
30320,note_on,1,0,0,,2,,,62,127
30459,note_off,139,0,0,,2,,,62,127
30460,note_on,1,0,0,,7,,,43,127
30599,note_off,139,0,0,,2,,,74,127
30600,note_on,1,0,0,,11,,,82,127
30739,note_off,139,0,0,,11,,,82,127
30740,note_on,1,0,0,,7,,,79,127
30879,note_off,139,0,0,,7,,,79,127
30879,note_off,0,0,0,,7,,,43,127
30880,note_on,1,0,0,,7,,,67,127
30880,note_on,0,0,0,,1,,,73,127
31019,note_off,139,0,0,,7,,,67,127
31020,note_on,1,0,0,,4,,,64,127
31159,note_off,139,0,0,,4,,,64,127
31160,note_on,1,0,0,,1,,,61,127
31299,note_off,139,0,0,,1,,,61,127
31300,note_on,1,0,0,,5,,,41,127
31439,note_off,139,0,0,,1,,,73,127
31440,note_on,1,0,0,,10,,,81,127
31579,note_off,139,0,0,,10,,,81,127
31580,note_on,1,0,0,,5,,,77,127
31719,note_off,139,0,0,,5,,,77,127
31719,note_off,0,0,0,,5,,,41,127
31720,note_on,1,0,0,,10,,,69,127
31720,note_on,0,0,0,,2,,,74,127
31859,note_off,139,0,0,,10,,,69,127
31860,note_on,1,0,0,,5,,,65,127
31999,note_off,139,0,0,,5,,,65,127
32000,note_on,1,0,0,,2,,,62,127
32139,note_off,139,0,0,,2,,,62,127
32140,note_on,1,0,0,,7,,,43,127
32279,note_off,139,0,0,,2,,,74,127
32280,note_on,1,0,0,,4,,,76,127
32280,note_on,0,0,0,,7,,,79,127
32419,note_off,139,0,0,,7,,,79,127
32419,note_off,0,0,0,,4,,,76,127
32420,note_on,1,0,0,,5,,,77,127
32420,note_on,0,0,0,,2,,,74,127
32559,note_off,139,0,0,,2,,,74,127
32559,note_off,0,0,0,,5,,,77,127
32559,note_off,0,0,0,,7,,,43,127
32560,note_on,1,0,0,,10,,,45,127
32560,note_on,0,0,0,,4,,,76,127
32699,note_off,139,0,0,,4,,,76,127
32700,note_on,1,0,0,,2,,,74,127
32839,note_off,139,0,0,,2,,,74,127
32840,note_on,1,0,0,,1,,,73,127
32979,note_off,139,0,0,,1,,,73,127
32979,note_off,0,0,0,,10,,,45,127
32980,note_on,1,0,0,,2,,,38,127
32980,note_on,0,0,0,,2,,,74,127
33398,note_off,418,0,0,,2,,,74,127
33398,note_off,0,0,0,,2,,,38,127
33399,note_on,1,0,0,,2,,,62,127
33399,note_on,0,0,0,,5,,,53,127
33399,note_on,0,0,0,,10,,,81,127
33538,note_off,139,0,0,,10,,,81,127
33539,note_on,1,0,0,,2,,,74,127
33678,note_off,139,0,0,,2,,,74,127
33679,note_on,1,0,0,,10,,,69,127
33818,note_off,139,0,0,,10,,,69,127
33818,note_off,0,0,0,,5,,,53,127
33818,note_off,0,0,0,,2,,,62,127
33819,note_on,1,0,0,,2,,,62,127
33819,note_on,0,0,0,,4,,,64,127
33819,note_on,0,0,0,,7,,,55,127
33819,note_on,0,0,0,,0,,,72,127
34097,note_off,278,0,0,,0,,,72,127
34098,note_on,1,0,0,,12,,,71,127
34237,note_off,139,0,0,,12,,,71,127
34237,note_off,0,0,0,,7,,,55,127
34237,note_off,0,0,0,,4,,,64,127
34237,note_off,0,0,0,,2,,,62,127
34238,note_on,1,0,0,,10,,,57,127
34238,note_on,0,0,0,,4,,,64,127
34238,note_on,0,0,0,,7,,,79,127
34377,note_off,139,0,0,,7,,,79,127
34378,note_on,1,0,0,,4,,,76,127
34517,note_off,139,0,0,,4,,,76,127
34518,note_on,1,0,0,,1,,,73,127
34657,note_off,139,0,0,,1,,,73,127
34657,note_off,0,0,0,,4,,,64,127
34657,note_off,0,0,0,,10,,,57,127
34658,note_on,1,0,0,,2,,,50,127
34658,note_on,0,0,0,,1,,,73,127
34936,note_off,278,0,0,,1,,,73,127
34937,note_on,1,0,0,,2,,,74,127
35076,note_off,139,0,0,,2,,,74,127
35076,note_off,0,0,0,,2,,,50,127
35077,note_on,1,0,0,,10,,,57,127
35077,note_on,0,0,0,,5,,,53,127
35077,note_on,0,0,0,,10,,,69,127
35216,note_off,139,0,0,,10,,,69,127
35217,note_on,1,0,0,,5,,,65,127
35356,note_off,139,0,0,,5,,,65,127
35357,note_on,1,0,0,,2,,,62,127
35496,note_off,139,0,0,,2,,,62,127
35496,note_off,0,0,0,,5,,,53,127
35496,note_off,0,0,0,,10,,,57,127
35497,note_on,1,0,0,,7,,,55,127
35497,note_on,0,0,0,,7,,,43,127
35497,note_on,0,0,0,,11,,,70,127
35636,note_off,139,0,0,,11,,,70,127
35637,note_on,1,0,0,,7,,,67,127
35776,note_off,139,0,0,,7,,,67,127
35777,note_on,1,0,0,,4,,,64,127
35916,note_off,139,0,0,,4,,,64,127
35916,note_off,0,0,0,,7,,,43,127
35916,note_off,0,0,0,,7,,,55,127
35917,note_on,1,0,0,,10,,,57,127
35917,note_on,0,0,0,,10,,,45,127
35917,note_on,0,0,0,,10,,,69,127
36056,note_off,139,0,0,,10,,,69,127
36057,note_on,1,0,0,,2,,,62,127
36196,note_off,139,0,0,,2,,,62,127
36197,note_on,1,0,0,,1,,,61,127
36336,note_off,139,0,0,,1,,,61,127
36336,note_off,0,0,0,,10,,,45,127
36336,note_off,0,0,0,,10,,,57,127
36337,note_on,1,0,0,,2,,,50,127
36337,note_on,0,0,0,,2,,,38,127
36337,note_on,0,0,0,,2,,,62,127
37174,note_off,837,0,0,,2,,,62,127
37174,note_off,0,0,0,,2,,,38,127
37174,note_off,0,0,0,,2,,,50,127
37175,note_on,1,0,0,,2,,,50,127
37175,note_on,0,0,0,,2,,,62,127
37314,note_off,139,0,0,,2,,,62,127
37315,note_on,1,0,0,,4,,,64,127
37360,note_off,45,0,0,,4,,,64,127
37361,note_on,1,0,0,,6,,,66,127
37407,note_off,46,0,0,,6,,,66,127
37408,note_on,1,0,0,,7,,,67,127
37454,note_off,46,0,0,,7,,,67,127
37455,note_on,1,0,0,,10,,,69,127
37500,note_off,45,0,0,,10,,,69,127
37501,note_on,1,0,0,,11,,,70,127
37547,note_off,46,0,0,,11,,,70,127
37548,note_on,1,0,0,,0,,,72,127
37594,note_off,46,0,0,,0,,,72,127
37595,note_on,1,0,0,,2,,,74,127
37734,note_off,139,0,0,,2,,,50,127
37735,note_on,1,0,0,,4,,,52,127
37780,note_off,45,0,0,,4,,,52,127
37781,note_on,1,0,0,,6,,,54,127
37827,note_off,46,0,0,,6,,,54,127
37828,note_on,1,0,0,,7,,,55,127
37874,note_off,46,0,0,,7,,,55,127
37875,note_on,1,0,0,,10,,,57,127
37920,note_off,45,0,0,,10,,,57,127
37921,note_on,1,0,0,,11,,,58,127
37967,note_off,46,0,0,,11,,,58,127
37968,note_on,1,0,0,,0,,,60,127
38014,note_off,46,0,0,,0,,,60,127
38014,note_off,0,0,0,,2,,,74,127
38015,note_on,1,0,0,,2,,,62,127
38015,note_on,0,0,0,,2,,,74,127
38084,note_off,69,0,0,,2,,,74,127
38085,note_on,1,0,0,,4,,,76,127
38154,note_off,69,0,0,,4,,,76,127
38155,note_on,1,0,0,,6,,,78,127
38224,note_off,69,0,0,,6,,,78,127
38225,note_on,1,0,0,,7,,,79,127
38294,note_off,69,0,0,,7,,,79,127
38295,note_on,1,0,0,,10,,,81,127
38364,note_off,69,0,0,,10,,,81,127
38365,note_on,1,0,0,,11,,,82,127
38434,note_off,69,0,0,,11,,,82,127
38435,note_on,1,0,0,,0,,,84,127
38504,note_off,69,0,0,,2,,,62,127
38505,note_on,1,0,0,,4,,,64,127
38574,note_off,69,0,0,,4,,,64,127
38575,note_on,1,0,0,,6,,,66,127
38644,note_off,69,0,0,,6,,,66,127
38645,note_on,1,0,0,,7,,,67,127
38714,note_off,69,0,0,,7,,,67,127
38715,note_on,1,0,0,,10,,,69,127
38784,note_off,69,0,0,,10,,,69,127
38785,note_on,1,0,0,,11,,,70,127
38854,note_off,69,0,0,,11,,,70,127
38855,note_on,1,0,0,,0,,,72,127
38994,note_off,139,0,0,,0,,,72,127
38995,note_on,1,0,0,,11,,,70,127
39134,note_off,139,0,0,,11,,,70,127
39135,note_on,1,0,0,,10,,,69,127
39274,note_off,139,0,0,,10,,,69,127
39274,note_off,0,0,0,,0,,,84,127
39275,note_on,1,0,0,,7,,,67,127
39275,note_on,0,0,0,,11,,,82,127
39414,note_off,139,0,0,,11,,,82,127
39414,note_off,0,0,0,,7,,,67,127
39415,note_on,1,0,0,,5,,,65,127
39415,note_on,0,0,0,,10,,,81,127
39554,note_off,139,0,0,,10,,,81,127
39554,note_off,0,0,0,,5,,,65,127
39555,note_on,1,0,0,,3,,,63,127
39555,note_on,0,0,0,,7,,,79,127
39694,note_off,139,0,0,,7,,,79,127
39694,note_off,0,0,0,,3,,,63,127
39695,note_on,1,0,0,,2,,,62,127
39695,note_on,0,0,0,,5,,,77,127
39834,note_off,139,0,0,,5,,,77,127
39834,note_off,0,0,0,,2,,,62,127
39835,note_on,1,0,0,,0,,,60,127
39835,note_on,0,0,0,,3,,,75,127
39974,note_off,139,0,0,,3,,,75,127
39974,note_off,0,0,0,,0,,,60,127
39975,note_on,1,0,0,,11,,,58,127
39975,note_on,0,0,0,,2,,,74,127
40114,note_off,139,0,0,,2,,,74,127
40114,note_off,0,0,0,,11,,,58,127
40115,note_on,1,0,0,,0,,,60,127
40115,note_on,0,0,0,,3,,,75,127
40254,note_off,139,0,0,,3,,,75,127
40254,note_off,0,0,0,,0,,,60,127
40255,note_on,1,0,0,,10,,,57,127
40255,note_on,0,0,0,,5,,,77,127
40300,note_off,45,0,0,,5,,,77,127
40301,note_on,1,0,0,,3,,,75,127
40347,note_off,46,0,0,,3,,,75,127
40348,note_on,1,0,0,,5,,,77,127
40394,note_off,46,0,0,,5,,,77,127
40394,note_off,0,0,0,,10,,,57,127
40395,note_on,1,0,0,,5,,,53,127
40395,note_on,0,0,0,,3,,,75,127
40440,note_off,45,0,0,,3,,,75,127
40441,note_on,1,0,0,,2,,,74,127
40487,note_off,46,0,0,,2,,,74,127
40488,note_on,1,0,0,,3,,,75,127
40534,note_off,46,0,0,,3,,,75,127
40534,note_off,0,0,0,,5,,,53,127
40535,note_on,1,0,0,,11,,,46,127
40535,note_on,0,0,0,,2,,,74,127
40953,note_off,418,0,0,,2,,,74,127
40953,note_off,0,0,0,,11,,,46,127
40954,note_on,1,0,0,,5,,,65,127
40954,note_on,0,0,0,,5,,,77,127
41093,note_off,139,0,0,,5,,,77,127
41093,note_off,0,0,0,,5,,,65,127
41094,note_on,1,0,0,,3,,,63,127
41094,note_on,0,0,0,,3,,,75,127
41233,note_off,139,0,0,,3,,,75,127
41233,note_off,0,0,0,,3,,,63,127
41234,note_on,1,0,0,,2,,,62,127
41234,note_on,0,0,0,,2,,,74,127
41373,note_off,139,0,0,,2,,,74,127
41373,note_off,0,0,0,,2,,,62,127
41374,note_on,1,0,0,,0,,,60,127
41374,note_on,0,0,0,,0,,,72,127
41513,note_off,139,0,0,,0,,,72,127
41513,note_off,0,0,0,,0,,,60,127
41514,note_on,1,0,0,,11,,,58,127
41514,note_on,0,0,0,,11,,,70,127
41653,note_off,139,0,0,,11,,,70,127
41653,note_off,0,0,0,,11,,,58,127
41654,note_on,1,0,0,,10,,,57,127
41654,note_on,0,0,0,,10,,,69,127
41793,note_off,139,0,0,,10,,,69,127
41793,note_off,0,0,0,,10,,,57,127
41794,note_on,1,0,0,,11,,,58,127
41794,note_on,0,0,0,,11,,,70,127
41933,note_off,139,0,0,,11,,,70,127
41933,note_off,0,0,0,,11,,,58,127
41934,note_on,1,0,0,,10,,,57,127
41934,note_on,0,0,0,,10,,,69,127
42073,note_off,139,0,0,,10,,,69,127
42073,note_off,0,0,0,,10,,,57,127
42074,note_on,1,0,0,,7,,,55,127
42074,note_on,0,0,0,,7,,,67,127
42213,note_off,139,0,0,,7,,,67,127
42213,note_off,0,0,0,,7,,,55,127
42214,note_on,1,0,0,,5,,,53,127
42214,note_on,0,0,0,,5,,,65,127
42492,note_off,278,0,0,,5,,,65,127
42492,note_off,0,0,0,,5,,,53,127
42493,note_on,1,0,0,,5,,,53,127
42493,note_on,0,0,0,,5,,,65,127
42632,note_off,139,0,0,,5,,,65,127
42632,note_off,0,0,0,,5,,,53,127
42633,note_on,1,0,0,,5,,,65,127
42633,note_on,0,0,0,,5,,,77,127
42772,note_off,139,0,0,,5,,,77,127
42772,note_off,0,0,0,,5,,,65,127
42773,note_on,1,0,0,,3,,,63,127
42773,note_on,0,0,0,,3,,,75,127
42912,note_off,139,0,0,,3,,,75,127
42912,note_off,0,0,0,,3,,,63,127
42913,note_on,1,0,0,,2,,,62,127
42913,note_on,0,0,0,,2,,,74,127
43052,note_off,139,0,0,,2,,,74,127
43052,note_off,0,0,0,,2,,,62,127
43053,note_on,1,0,0,,0,,,60,127
43053,note_on,0,0,0,,0,,,72,127
43192,note_off,139,0,0,,0,,,72,127
43192,note_off,0,0,0,,0,,,60,127
43193,note_on,1,0,0,,11,,,58,127
43193,note_on,0,0,0,,11,,,70,127
43332,note_off,139,0,0,,11,,,70,127
43332,note_off,0,0,0,,11,,,58,127
43333,note_on,1,0,0,,10,,,57,127
43333,note_on,0,0,0,,10,,,69,127
43472,note_off,139,0,0,,10,,,69,127
43472,note_off,0,0,0,,10,,,57,127
43473,note_on,1,0,0,,11,,,58,127
43473,note_on,0,0,0,,11,,,70,127
43612,note_off,139,0,0,,11,,,70,127
43612,note_off,0,0,0,,11,,,58,127
43613,note_on,1,0,0,,10,,,57,127
43613,note_on,0,0,0,,10,,,69,127
43752,note_off,139,0,0,,10,,,69,127
43752,note_off,0,0,0,,10,,,57,127
43753,note_on,1,0,0,,7,,,55,127
43753,note_on,0,0,0,,7,,,67,127
43892,note_off,139,0,0,,7,,,67,127
43892,note_off,0,0,0,,7,,,55,127
43893,note_on,1,0,0,,5,,,53,127
43893,note_on,0,0,0,,5,,,65,127
44032,note_off,139,0,0,,5,,,53,127
44033,note_on,1,0,0,,7,,,55,127
44078,note_off,45,0,0,,7,,,55,127
44079,note_on,1,0,0,,10,,,57,127
44125,note_off,46,0,0,,10,,,57,127
44126,note_on,1,0,0,,11,,,58,127
44172,note_off,46,0,0,,11,,,58,127
44173,note_on,1,0,0,,0,,,60,127
44218,note_off,45,0,0,,0,,,60,127
44219,note_on,1,0,0,,2,,,62,127
44265,note_off,46,0,0,,2,,,62,127
44266,note_on,1,0,0,,4,,,64,127
44312,note_off,46,0,0,,4,,,64,127
44312,note_off,0,0,0,,5,,,65,127
44313,note_on,1,0,0,,5,,,65,127
44453,note_on,140,0,0,,7,,,67,127
44498,note_off,45,0,0,,7,,,67,127
44499,note_on,1,0,0,,10,,,69,127
44545,note_off,46,0,0,,10,,,69,127
44546,note_on,1,0,0,,11,,,70,127
44592,note_off,46,0,0,,11,,,70,127
44593,note_on,1,0,0,,0,,,72,127
44638,note_off,45,0,0,,0,,,72,127
44639,note_on,1,0,0,,2,,,74,127
44685,note_off,46,0,0,,2,,,74,127
44686,note_on,1,0,0,,4,,,76,127
44732,note_off,46,0,0,,4,,,76,127
44733,note_on,1,0,0,,7,,,55,127
44733,note_on,0,0,0,,5,,,77,127
44872,note_off,139,0,0,,5,,,77,127
44873,note_on,1,0,0,,3,,,75,127
45012,note_off,139,0,0,,3,,,75,127
45013,note_on,1,0,0,,2,,,74,127
45152,note_off,139,0,0,,2,,,74,127
45152,note_off,0,0,0,,7,,,55,127
45152,note_off,0,0,0,,5,,,65,127
45153,note_on,1,0,0,,0,,,60,127
45153,note_on,0,0,0,,7,,,55,127
45153,note_on,0,0,0,,3,,,63,127
45153,note_on,0,0,0,,2,,,74,127
45153,note_on,0,0,0,,0,,,72,127
45292,note_off,139,0,0,,0,,,72,127
45292,note_off,0,0,0,,2,,,74,127
45293,note_on,1,0,0,,12,,,71,127
45432,note_off,139,0,0,,12,,,71,127
45433,note_on,1,0,0,,0,,,72,127
45572,note_off,139,0,0,,0,,,72,127
45572,note_off,0,0,0,,3,,,63,127
45572,note_off,0,0,0,,7,,,55,127
45572,note_off,0,0,0,,0,,,60,127
45573,note_on,1,0,0,,7,,,55,127
45573,note_on,0,0,0,,5,,,65,127
45573,note_on,0,0,0,,2,,,62,127
45573,note_on,0,0,0,,0,,,72,127
45642,note_off,69,0,0,,0,,,72,127
45643,note_on,1,0,0,,12,,,71,127
45712,note_off,69,0,0,,12,,,71,127
45713,note_on,1,0,0,,0,,,72,127
45782,note_off,69,0,0,,0,,,72,127
45783,note_on,1,0,0,,12,,,71,127
45852,note_off,69,0,0,,12,,,71,127
45853,note_on,1,0,0,,10,,,69,127
45922,note_off,69,0,0,,10,,,69,127
45923,note_on,1,0,0,,12,,,71,127
45992,note_off,69,0,0,,12,,,71,127
45992,note_off,0,0,0,,2,,,62,127
45992,note_off,0,0,0,,5,,,65,127
45992,note_off,0,0,0,,7,,,55,127
45993,note_on,1,0,0,,0,,,60,127
45993,note_on,0,0,0,,7,,,55,127
45993,note_on,0,0,0,,3,,,63,127
45993,note_on,0,0,0,,2,,,74,127
45993,note_on,0,0,0,,0,,,72,127
46132,note_off,139,0,0,,0,,,72,127
46132,note_off,0,0,0,,2,,,74,127
46133,note_on,1,0,0,,12,,,71,127
46272,note_off,139,0,0,,12,,,71,127
46273,note_on,1,0,0,,0,,,72,127
46412,note_off,139,0,0,,0,,,72,127
46412,note_off,0,0,0,,3,,,63,127
46412,note_off,0,0,0,,7,,,55,127
46412,note_off,0,0,0,,0,,,60,127
46413,note_on,1,0,0,,5,,,65,127
46413,note_on,0,0,0,,2,,,62,127
46413,note_on,0,0,0,,7,,,55,127
46413,note_on,0,0,0,,12,,,59,127
46413,note_on,0,0,0,,2,,,74,127
46552,note_off,139,0,0,,2,,,74,127
46553,note_on,1,0,0,,3,,,75,127
46692,note_off,139,0,0,,3,,,75,127
46693,note_on,1,0,0,,5,,,77,127
46832,note_off,139,0,0,,5,,,77,127
46832,note_off,0,0,0,,12,,,59,127
46832,note_off,0,0,0,,7,,,55,127
46832,note_off,0,0,0,,2,,,62,127
46832,note_off,0,0,0,,5,,,65,127
46833,note_on,1,0,0,,0,,,60,127
46833,note_on,0,0,0,,7,,,55,127
46833,note_on,0,0,0,,3,,,63,127
46833,note_on,0,0,0,,5,,,77,127
46833,note_on,0,0,0,,3,,,75,127
46972,note_off,139,0,0,,3,,,75,127
46972,note_off,0,0,0,,5,,,77,127
46973,note_on,1,0,0,,2,,,74,127
47112,note_off,139,0,0,,2,,,74,127
47113,note_on,1,0,0,,3,,,75,127
47252,note_off,139,0,0,,3,,,75,127
47252,note_off,0,0,0,,3,,,63,127
47252,note_off,0,0,0,,7,,,55,127
47252,note_off,0,0,0,,0,,,60,127
47253,note_on,1,0,0,,7,,,55,127
47253,note_on,0,0,0,,2,,,74,127
47392,note_off,139,0,0,,7,,,55,127
47393,note_on,1,0,0,,10,,,57,127
47438,note_off,45,0,0,,10,,,57,127
47439,note_on,1,0,0,,12,,,59,127
47485,note_off,46,0,0,,12,,,59,127
47486,note_on,1,0,0,,0,,,60,127
47532,note_off,46,0,0,,0,,,60,127
47533,note_on,1,0,0,,2,,,62,127
47578,note_off,45,0,0,,2,,,62,127
47579,note_on,1,0,0,,4,,,64,127
47625,note_off,46,0,0,,4,,,64,127
47626,note_on,1,0,0,,6,,,66,127
47672,note_off,46,0,0,,6,,,66,127
47673,note_on,1,0,0,,7,,,67,127
47812,note_off,139,0,0,,2,,,74,127
47813,note_on,1,0,0,,10,,,69,127
47858,note_off,45,0,0,,10,,,69,127
47859,note_on,1,0,0,,12,,,71,127
47905,note_off,46,0,0,,12,,,71,127
47906,note_on,1,0,0,,0,,,72,127
47952,note_off,46,0,0,,0,,,72,127
47953,note_on,1,0,0,,2,,,74,127
47998,note_off,45,0,0,,2,,,74,127
47999,note_on,1,0,0,,4,,,76,127
48045,note_off,46,0,0,,4,,,76,127
48046,note_on,1,0,0,,6,,,78,127
48092,note_off,46,0,0,,6,,,78,127
48093,note_on,1,0,0,,10,,,57,127
48093,note_on,0,0,0,,7,,,79,127
48232,note_off,139,0,0,,7,,,79,127
48233,note_on,1,0,0,,5,,,77,127
48372,note_off,139,0,0,,5,,,77,127
48373,note_on,1,0,0,,4,,,76,127
48512,note_off,139,0,0,,4,,,76,127
48512,note_off,0,0,0,,10,,,57,127
48512,note_off,0,0,0,,7,,,67,127
48513,note_on,1,0,0,,10,,,57,127
48513,note_on,0,0,0,,5,,,65,127
48513,note_on,0,0,0,,2,,,62,127
48513,note_on,0,0,0,,4,,,76,127
48513,note_on,0,0,0,,2,,,74,127
48652,note_off,139,0,0,,2,,,74,127
48652,note_off,0,0,0,,4,,,76,127
48653,note_on,1,0,0,,1,,,73,127
48792,note_off,139,0,0,,1,,,73,127
48793,note_on,1,0,0,,2,,,74,127
48932,note_off,139,0,0,,2,,,74,127
48932,note_off,0,0,0,,2,,,62,127
48932,note_off,0,0,0,,5,,,65,127
48932,note_off,0,0,0,,10,,,57,127
48933,note_on,1,0,0,,10,,,57,127
48933,note_on,0,0,0,,4,,,64,127
48933,note_on,0,0,0,,7,,,67,127
48933,note_on,0,0,0,,2,,,74,127
49002,note_off,69,0,0,,2,,,74,127
49003,note_on,1,0,0,,1,,,73,127
49072,note_off,69,0,0,,1,,,73,127
49073,note_on,1,0,0,,2,,,74,127
49142,note_off,69,0,0,,2,,,74,127
49143,note_on,1,0,0,,1,,,73,127
49212,note_off,69,0,0,,1,,,73,127
49213,note_on,1,0,0,,12,,,71,127
49282,note_off,69,0,0,,12,,,71,127
49283,note_on,1,0,0,,1,,,73,127
49352,note_off,69,0,0,,1,,,73,127
49352,note_off,0,0,0,,7,,,67,127
49352,note_off,0,0,0,,4,,,64,127
49352,note_off,0,0,0,,10,,,57,127
49353,note_on,1,0,0,,10,,,57,127
49353,note_on,0,0,0,,5,,,65,127
49353,note_on,0,0,0,,2,,,62,127
49353,note_on,0,0,0,,4,,,76,127
49353,note_on,0,0,0,,2,,,74,127
49492,note_off,139,0,0,,2,,,74,127
49492,note_off,0,0,0,,4,,,76,127
49493,note_on,1,0,0,,1,,,73,127
49632,note_off,139,0,0,,1,,,73,127
49633,note_on,1,0,0,,2,,,74,127
49772,note_off,139,0,0,,2,,,74,127
49772,note_off,0,0,0,,2,,,62,127
49772,note_off,0,0,0,,5,,,65,127
49772,note_off,0,0,0,,10,,,57,127
49773,note_on,1,0,0,,4,,,64,127
49773,note_on,0,0,0,,1,,,61,127
49773,note_on,0,0,0,,7,,,67,127
49773,note_on,0,0,0,,10,,,57,127
49773,note_on,0,0,0,,4,,,76,127
49912,note_off,139,0,0,,4,,,76,127
49913,note_on,1,0,0,,5,,,77,127
50052,note_off,139,0,0,,5,,,77,127
50053,note_on,1,0,0,,7,,,79,127
50192,note_off,139,0,0,,7,,,79,127
50192,note_off,0,0,0,,10,,,57,127
50192,note_off,0,0,0,,7,,,67,127
50192,note_off,0,0,0,,1,,,61,127
50192,note_off,0,0,0,,4,,,64,127
50193,note_on,1,0,0,,10,,,57,127
50193,note_on,0,0,0,,5,,,65,127
50193,note_on,0,0,0,,2,,,62,127
50193,note_on,0,0,0,,7,,,79,127
50193,note_on,0,0,0,,5,,,77,127
50332,note_off,139,0,0,,5,,,77,127
50332,note_off,0,0,0,,7,,,79,127
50333,note_on,1,0,0,,4,,,76,127
50472,note_off,139,0,0,,4,,,76,127
50473,note_on,1,0,0,,5,,,77,127
50612,note_off,139,0,0,,5,,,77,127
50612,note_off,0,0,0,,2,,,62,127
50612,note_off,0,0,0,,5,,,65,127
50612,note_off,0,0,0,,10,,,57,127
50613,note_on,1,0,0,,10,,,57,127
50613,note_on,0,0,0,,4,,,76,127
50752,note_off,139,0,0,,10,,,57,127
50753,note_on,1,0,0,,12,,,59,127
50798,note_off,45,0,0,,12,,,59,127
50799,note_on,1,0,0,,1,,,61,127
50845,note_off,46,0,0,,1,,,61,127
50846,note_on,1,0,0,,2,,,62,127
50892,note_off,46,0,0,,2,,,62,127
50893,note_on,1,0,0,,4,,,64,127
50938,note_off,45,0,0,,4,,,64,127
50939,note_on,1,0,0,,5,,,65,127
50985,note_off,46,0,0,,5,,,65,127
50986,note_on,1,0,0,,7,,,67,127
51032,note_off,46,0,0,,7,,,67,127
51033,note_on,1,0,0,,10,,,69,127
51102,note_off,69,0,0,,4,,,76,127
51103,note_on,1,0,0,,1,,,73,127
51172,note_off,69,0,0,,1,,,73,127
51173,note_on,1,0,0,,2,,,74,127
51242,note_off,69,0,0,,2,,,74,127
51243,note_on,1,0,0,,4,,,76,127
51312,note_off,69,0,0,,4,,,76,127
51312,note_off,0,0,0,,10,,,69,127
51313,note_on,1,0,0,,5,,,65,127
51313,note_on,0,0,0,,5,,,77,127
51382,note_off,69,0,0,,5,,,77,127
51383,note_on,1,0,0,,7,,,79,127
51452,note_off,69,0,0,,7,,,79,127
51452,note_off,0,0,0,,5,,,65,127
51453,note_on,1,0,0,,6,,,66,127
51453,note_on,0,0,0,,10,,,81,127
51592,note_off,139,0,0,,6,,,66,127
51593,note_on,1,0,0,,10,,,69,127
51732,note_off,139,0,0,,10,,,69,127
51732,note_off,0,0,0,,10,,,81,127
51733,note_on,1,0,0,,4,,,64,127
51733,note_on,0,0,0,,7,,,79,127
51872,note_off,139,0,0,,7,,,79,127
51872,note_off,0,0,0,,4,,,64,127
51873,note_on,1,0,0,,2,,,62,127
51873,note_on,0,0,0,,6,,,78,127
52012,note_off,139,0,0,,2,,,62,127
52013,note_on,1,0,0,,4,,,64,127
52058,note_off,45,0,0,,4,,,64,127
52059,note_on,1,0,0,,6,,,66,127
52105,note_off,46,0,0,,6,,,66,127
52106,note_on,1,0,0,,7,,,67,127
52152,note_off,46,0,0,,7,,,67,127
52153,note_on,1,0,0,,10,,,69,127
52198,note_off,45,0,0,,10,,,69,127
52199,note_on,1,0,0,,11,,,70,127
52245,note_off,46,0,0,,11,,,70,127
52246,note_on,1,0,0,,0,,,72,127
52292,note_off,46,0,0,,0,,,72,127
52293,note_on,1,0,0,,2,,,74,127
52432,note_off,139,0,0,,6,,,78,127
52433,note_on,1,0,0,,7,,,79,127
52502,note_off,69,0,0,,7,,,79,127
52503,note_on,1,0,0,,10,,,81,127
52572,note_off,69,0,0,,10,,,81,127
52573,note_on,1,0,0,,11,,,82,127
52642,note_off,69,0,0,,11,,,82,127
52643,note_on,1,0,0,,0,,,84,127
52712,note_off,69,0,0,,0,,,84,127
52712,note_off,0,0,0,,2,,,74,127
52713,note_on,1,0,0,,7,,,67,127
52713,note_on,0,0,0,,11,,,82,127
52852,note_off,139,0,0,,7,,,67,127
52853,note_on,1,0,0,,11,,,70,127
52992,note_off,139,0,0,,11,,,70,127
52992,note_off,0,0,0,,11,,,82,127
52993,note_on,1,0,0,,5,,,65,127
52993,note_on,0,0,0,,10,,,81,127
53132,note_off,139,0,0,,10,,,81,127
53132,note_off,0,0,0,,5,,,65,127
53133,note_on,1,0,0,,3,,,63,127
53133,note_on,0,0,0,,7,,,79,127
53272,note_off,139,0,0,,7,,,79,127
53272,note_off,0,0,0,,3,,,63,127
53273,note_on,1,0,0,,2,,,62,127
53273,note_on,0,0,0,,5,,,77,127
53412,note_off,139,0,0,,5,,,77,127
53412,note_off,0,0,0,,2,,,62,127
53413,note_on,1,0,0,,0,,,60,127
53413,note_on,0,0,0,,3,,,75,127
53552,note_off,139,0,0,,3,,,75,127
53552,note_off,0,0,0,,0,,,60,127
53553,note_on,1,0,0,,11,,,58,127
53553,note_on,0,0,0,,2,,,74,127
53692,note_off,139,0,0,,2,,,74,127
53692,note_off,0,0,0,,11,,,58,127
53693,note_on,1,0,0,,10,,,57,127
53693,note_on,0,0,0,,0,,,72,127
53832,note_off,139,0,0,,0,,,72,127
53832,note_off,0,0,0,,10,,,57,127
53833,note_on,1,0,0,,7,,,55,127
53833,note_on,0,0,0,,11,,,70,127
53972,note_off,139,0,0,,11,,,70,127
53972,note_off,0,0,0,,7,,,55,127
53973,note_on,1,0,0,,6,,,54,127
53973,note_on,0,0,0,,10,,,69,127
54112,note_off,139,0,0,,10,,,69,127
54112,note_off,0,0,0,,6,,,54,127
54113,note_on,1,0,0,,4,,,52,127
54113,note_on,0,0,0,,11,,,70,127
54252,note_off,139,0,0,,11,,,70,127
54252,note_off,0,0,0,,4,,,52,127
54253,note_on,1,0,0,,2,,,50,127
54253,note_on,0,0,0,,0,,,72,127
54392,note_off,139,0,0,,0,,,72,127
54392,note_off,0,0,0,,2,,,50,127
54393,note_on,1,0,0,,7,,,43,127
54393,note_on,0,0,0,,11,,,70,127
54532,note_off,139,0,0,,11,,,70,127
54533,note_on,1,0,0,,10,,,69,127
54672,note_off,139,0,0,,10,,,69,127
54673,note_on,1,0,0,,7,,,67,127
54812,note_off,139,0,0,,7,,,67,127
54812,note_off,0,0,0,,7,,,43,127
54813,note_on,1,0,0,,2,,,62,127
54813,note_on,0,0,0,,2,,,74,127
54952,note_off,139,0,0,,2,,,62,127
54953,note_on,1,0,0,,11,,,58,127
55092,note_off,139,0,0,,11,,,58,127
55093,note_on,1,0,0,,7,,,55,127
55232,note_off,139,0,0,,7,,,55,127
55233,note_on,1,0,0,,0,,,36,127
55372,note_off,139,0,0,,2,,,74,127
55373,note_on,1,0,0,,3,,,75,127
55512,note_off,139,0,0,,3,,,75,127
55513,note_on,1,0,0,,0,,,72,127
55652,note_off,139,0,0,,0,,,72,127
55652,note_off,0,0,0,,0,,,36,127
55653,note_on,1,0,0,,0,,,60,127
55653,note_on,0,0,0,,6,,,66,127
55792,note_off,139,0,0,,0,,,60,127
55793,note_on,1,0,0,,10,,,57,127
55932,note_off,139,0,0,,10,,,57,127
55933,note_on,1,0,0,,6,,,54,127
56072,note_off,139,0,0,,6,,,54,127
56073,note_on,1,0,0,,11,,,34,127
56212,note_off,139,0,0,,6,,,66,127
56213,note_on,1,0,0,,2,,,74,127
56352,note_off,139,0,0,,2,,,74,127
56353,note_on,1,0,0,,11,,,70,127
56492,note_off,139,0,0,,11,,,70,127
56492,note_off,0,0,0,,11,,,34,127
56493,note_on,1,0,0,,2,,,62,127
56493,note_on,0,0,0,,7,,,67,127
56632,note_off,139,0,0,,2,,,62,127
56633,note_on,1,0,0,,11,,,58,127
56772,note_off,139,0,0,,11,,,58,127
56773,note_on,1,0,0,,7,,,55,127
56912,note_off,139,0,0,,7,,,55,127
56913,note_on,1,0,0,,0,,,36,127
57052,note_off,139,0,0,,7,,,67,127
57053,note_on,1,0,0,,3,,,75,127
57192,note_off,139,0,0,,3,,,75,127
57193,note_on,1,0,0,,0,,,72,127
57332,note_off,139,0,0,,0,,,72,127
57332,note_off,0,0,0,,0,,,36,127
57333,note_on,1,0,0,,0,,,60,127
57333,note_on,0,0,0,,6,,,66,127
57472,note_off,139,0,0,,0,,,60,127
57473,note_on,1,0,0,,10,,,57,127
57612,note_off,139,0,0,,10,,,57,127
57613,note_on,1,0,0,,6,,,54,127
57752,note_off,139,0,0,,6,,,54,127
57753,note_on,1,0,0,,11,,,34,127
57892,note_off,139,0,0,,6,,,66,127
57893,note_on,1,0,0,,2,,,74,127
58032,note_off,139,0,0,,2,,,74,127
58033,note_on,1,0,0,,11,,,70,127
58172,note_off,139,0,0,,11,,,70,127
58172,note_off,0,0,0,,11,,,34,127
58173,note_on,1,0,0,,2,,,62,127
58173,note_on,0,0,0,,7,,,67,127
58312,note_off,139,0,0,,2,,,62,127
58313,note_on,1,0,0,,11,,,58,127
58452,note_off,139,0,0,,11,,,58,127
58453,note_on,1,0,0,,7,,,55,127
58592,note_off,139,0,0,,7,,,55,127
58593,note_on,1,0,0,,0,,,36,127
58732,note_off,139,0,0,,7,,,67,127
58733,note_on,1,0,0,,10,,,69,127
58733,note_on,0,0,0,,0,,,72,127
58872,note_off,139,0,0,,0,,,72,127
58872,note_off,0,0,0,,10,,,69,127
58873,note_on,1,0,0,,11,,,70,127
58873,note_on,0,0,0,,7,,,67,127
59012,note_off,139,0,0,,7,,,67,127
59012,note_off,0,0,0,,11,,,70,127
59012,note_off,0,0,0,,0,,,36,127
59013,note_on,1,0,0,,2,,,38,127
59013,note_on,0,0,0,,10,,,69,127
59013,note_on,0,0,0,,6,,,66,127
59152,note_off,139,0,0,,6,,,66,127
59152,note_off,0,0,0,,10,,,69,127
59153,note_on,1,0,0,,7,,,67,127
59153,note_on,0,0,0,,4,,,64,127
59292,note_off,139,0,0,,4,,,64,127
59292,note_off,0,0,0,,7,,,67,127
59293,note_on,1,0,0,,6,,,66,127
59293,note_on,0,0,0,,10,,,69,127
59432,note_off,139,0,0,,10,,,69,127
59432,note_off,0,0,0,,6,,,66,127
59432,note_off,0,0,0,,2,,,38,127
59433,note_on,1,0,0,,7,,,43,127
59433,note_on,0,0,0,,11,,,70,127
59572,note_off,139,0,0,,11,,,70,127
59573,note_on,1,0,0,,10,,,69,127
59712,note_off,139,0,0,,10,,,69,127
59713,note_on,1,0,0,,7,,,67,127
59852,note_off,139,0,0,,7,,,67,127
59852,note_off,0,0,0,,7,,,43,127
59853,note_on,1,0,0,,2,,,62,127
59853,note_on,0,0,0,,2,,,74,127
59992,note_off,139,0,0,,2,,,62,127
59993,note_on,1,0,0,,11,,,58,127
60132,note_off,139,0,0,,11,,,58,127
60133,note_on,1,0,0,,7,,,55,127
60272,note_off,139,0,0,,7,,,55,127
60273,note_on,1,0,0,,0,,,36,127
60412,note_off,139,0,0,,2,,,74,127
60413,note_on,1,0,0,,3,,,75,127
60552,note_off,139,0,0,,3,,,75,127
60553,note_on,1,0,0,,0,,,72,127
60692,note_off,139,0,0,,0,,,72,127
60692,note_off,0,0,0,,0,,,36,127
60693,note_on,1,0,0,,0,,,60,127
60693,note_on,0,0,0,,6,,,66,127
60832,note_off,139,0,0,,0,,,60,127
60833,note_on,1,0,0,,10,,,57,127
60972,note_off,139,0,0,,10,,,57,127
60973,note_on,1,0,0,,6,,,54,127
61112,note_off,139,0,0,,6,,,54,127
61113,note_on,1,0,0,,11,,,34,127
61252,note_off,139,0,0,,6,,,66,127
61253,note_on,1,0,0,,2,,,74,127
61392,note_off,139,0,0,,2,,,74,127
61393,note_on,1,0,0,,11,,,70,127
61532,note_off,139,0,0,,11,,,70,127
61532,note_off,0,0,0,,11,,,34,127
61533,note_on,1,0,0,,2,,,62,127
61533,note_on,0,0,0,,7,,,67,127
61672,note_off,139,0,0,,2,,,62,127
61673,note_on,1,0,0,,11,,,58,127
61812,note_off,139,0,0,,11,,,58,127
61813,note_on,1,0,0,,7,,,55,127
61952,note_off,139,0,0,,7,,,55,127
61953,note_on,1,0,0,,0,,,36,127
62092,note_off,139,0,0,,7,,,67,127
62093,note_on,1,0,0,,3,,,75,127
62232,note_off,139,0,0,,3,,,75,127
62233,note_on,1,0,0,,0,,,72,127
62372,note_off,139,0,0,,0,,,72,127
62372,note_off,0,0,0,,0,,,36,127
62373,note_on,1,0,0,,0,,,60,127
62373,note_on,0,0,0,,6,,,66,127
62512,note_off,139,0,0,,0,,,60,127
62513,note_on,1,0,0,,10,,,57,127
62652,note_off,139,0,0,,10,,,57,127
62653,note_on,1,0,0,,6,,,54,127
62792,note_off,139,0,0,,6,,,54,127
62793,note_on,1,0,0,,11,,,34,127
62932,note_off,139,0,0,,6,,,66,127
62933,note_on,1,0,0,,2,,,74,127
63072,note_off,139,0,0,,2,,,74,127
63073,note_on,1,0,0,,11,,,70,127
63212,note_off,139,0,0,,11,,,70,127
63212,note_off,0,0,0,,11,,,34,127
63213,note_on,1,0,0,,2,,,62,127
63213,note_on,0,0,0,,7,,,67,127
63352,note_off,139,0,0,,2,,,62,127
63353,note_on,1,0,0,,11,,,58,127
63492,note_off,139,0,0,,11,,,58,127
63493,note_on,1,0,0,,7,,,55,127
63632,note_off,139,0,0,,7,,,55,127
63633,note_on,1,0,0,,0,,,36,127
63772,note_off,139,0,0,,7,,,67,127
63773,note_on,1,0,0,,10,,,69,127
63773,note_on,0,0,0,,0,,,72,127
63912,note_off,139,0,0,,0,,,72,127
63912,note_off,0,0,0,,10,,,69,127
63913,note_on,1,0,0,,11,,,70,127
63913,note_on,0,0,0,,7,,,67,127
64052,note_off,139,0,0,,7,,,67,127
64052,note_off,0,0,0,,11,,,70,127
64052,note_off,0,0,0,,0,,,36,127
64053,note_on,1,0,0,,2,,,38,127
64053,note_on,0,0,0,,10,,,69,127
64192,note_off,139,0,0,,10,,,69,127
64193,note_on,1,0,0,,7,,,67,127
64332,note_off,139,0,0,,7,,,67,127
64333,note_on,1,0,0,,6,,,66,127
64472,note_off,139,0,0,,6,,,66,127
64472,note_off,0,0,0,,2,,,38,127
64473,note_on,1,0,0,,7,,,43,127
64473,note_on,0,0,0,,7,,,67,127
64612,note_off,139,0,0,,7,,,67,127
64613,note_on,1,0,0,,10,,,69,127
64658,note_off,45,0,0,,10,,,69,127
64659,note_on,1,0,0,,11,,,70,127
64705,note_off,46,0,0,,11,,,70,127
64706,note_on,1,0,0,,0,,,72,127
64752,note_off,46,0,0,,0,,,72,127
64753,note_on,1,0,0,,2,,,74,127
64798,note_off,45,0,0,,2,,,74,127
64799,note_on,1,0,0,,4,,,76,127
64845,note_off,46,0,0,,4,,,76,127
64846,note_on,1,0,0,,6,,,78,127
64892,note_off,46,0,0,,6,,,78,127
64893,note_on,1,0,0,,7,,,79,127
65032,note_off,139,0,0,,7,,,43,127
65033,note_on,1,0,0,,10,,,45,127
65078,note_off,45,0,0,,10,,,45,127
65079,note_on,1,0,0,,11,,,46,127
65125,note_off,46,0,0,,11,,,46,127
65126,note_on,1,0,0,,0,,,48,127
65172,note_off,46,0,0,,0,,,48,127
65173,note_on,1,0,0,,2,,,50,127
65218,note_off,45,0,0,,2,,,50,127
65219,note_on,1,0,0,,4,,,52,127
65265,note_off,46,0,0,,4,,,52,127
65266,note_on,1,0,0,,6,,,54,127
65312,note_off,46,0,0,,6,,,54,127
65313,note_on,1,0,0,,7,,,55,127
65452,note_off,139,0,0,,7,,,55,127
65452,note_off,0,0,0,,7,,,79,127
65453,note_on,1,0,0,,7,,,67,127
65453,note_on,0,0,0,,11,,,82,127
65592,note_off,139,0,0,,11,,,82,127
65592,note_off,0,0,0,,7,,,67,127
65593,note_on,1,0,0,,5,,,65,127
65593,note_on,0,0,0,,10,,,81,127
65732,note_off,139,0,0,,10,,,81,127
65732,note_off,0,0,0,,5,,,65,127
65733,note_on,1,0,0,,3,,,63,127
65733,note_on,0,0,0,,7,,,79,127
65872,note_off,139,0,0,,7,,,79,127
65872,note_off,0,0,0,,3,,,63,127
65873,note_on,1,0,0,,2,,,62,127
65873,note_on,0,0,0,,5,,,77,127
66012,note_off,139,0,0,,5,,,77,127
66012,note_off,0,0,0,,2,,,62,127
66013,note_on,1,0,0,,0,,,60,127
66013,note_on,0,0,0,,3,,,75,127
66013,note_on,0,0,0,,6,,,78,127
66152,note_off,139,0,0,,6,,,78,127
66152,note_off,0,0,0,,3,,,75,127
66152,note_off,0,0,0,,0,,,60,127
66153,note_on,1,0,0,,11,,,58,127
66153,note_on,0,0,0,,7,,,79,127
66153,note_on,0,0,0,,2,,,74,127
66292,note_off,139,0,0,,2,,,74,127
66292,note_off,0,0,0,,11,,,58,127
66293,note_on,1,0,0,,10,,,57,127
66293,note_on,0,0,0,,0,,,72,127
66432,note_off,139,0,0,,0,,,72,127
66432,note_off,0,0,0,,10,,,57,127
66433,note_on,1,0,0,,7,,,55,127
66433,note_on,0,0,0,,11,,,70,127
66572,note_off,139,0,0,,11,,,70,127
66572,note_off,0,0,0,,7,,,55,127
66572,note_off,0,0,0,,7,,,79,127
66573,note_on,1,0,0,,0,,,48,127
66573,note_on,0,0,0,,0,,,72,127
66573,note_on,0,0,0,,10,,,69,127
66712,note_off,139,0,0,,10,,,69,127
66712,note_off,0,0,0,,0,,,72,127
66713,note_on,1,0,0,,11,,,70,127
66713,note_on,0,0,0,,7,,,67,127
66852,note_off,139,0,0,,7,,,67,127
66852,note_off,0,0,0,,11,,,70,127
66852,note_off,0,0,0,,0,,,48,127
66853,note_on,1,0,0,,2,,,50,127
66853,note_on,0,0,0,,6,,,66,127
66853,note_on,0,0,0,,10,,,69,127
66992,note_off,139,0,0,,10,,,69,127
66992,note_off,0,0,0,,6,,,66,127
66992,note_off,0,0,0,,2,,,50,127
66993,note_on,1,0,0,,7,,,43,127
66993,note_on,0,0,0,,7,,,67,127
67132,note_off,139,0,0,,7,,,67,127
67132,note_off,0,0,0,,7,,,43,127
67133,note_on,1,0,0,,7,,,55,127
67133,note_on,0,0,0,,11,,,70,127
67272,note_off,139,0,0,,11,,,70,127
67272,note_off,0,0,0,,7,,,55,127
67273,note_on,1,0,0,,5,,,53,127
67273,note_on,0,0,0,,10,,,69,127
67412,note_off,139,0,0,,10,,,69,127
67412,note_off,0,0,0,,5,,,53,127
67413,note_on,1,0,0,,3,,,51,127
67413,note_on,0,0,0,,7,,,67,127
67552,note_off,139,0,0,,7,,,67,127
67552,note_off,0,0,0,,3,,,51,127
67553,note_on,1,0,0,,2,,,50,127
67553,note_on,0,0,0,,5,,,65,127
67692,note_off,139,0,0,,5,,,65,127
67692,note_off,0,0,0,,2,,,50,127
67693,note_on,1,0,0,,0,,,48,127
67693,note_on,0,0,0,,6,,,66,127
67693,note_on,0,0,0,,3,,,63,127
67832,note_off,139,0,0,,3,,,63,127
67832,note_off,0,0,0,,6,,,66,127
67832,note_off,0,0,0,,0,,,48,127
67833,note_on,1,0,0,,11,,,46,127
67833,note_on,0,0,0,,2,,,62,127
67833,note_on,0,0,0,,7,,,67,127
67972,note_off,139,0,0,,2,,,62,127
67972,note_off,0,0,0,,11,,,46,127
67973,note_on,1,0,0,,10,,,45,127
67973,note_on,0,0,0,,0,,,60,127
68112,note_off,139,0,0,,0,,,60,127
68112,note_off,0,0,0,,10,,,45,127
68113,note_on,1,0,0,,7,,,43,127
68113,note_on,0,0,0,,11,,,58,127
68252,note_off,139,0,0,,11,,,58,127
68252,note_off,0,0,0,,7,,,43,127
68252,note_off,0,0,0,,7,,,67,127
68253,note_on,1,0,0,,0,,,36,127
68253,note_on,0,0,0,,0,,,60,127
68253,note_on,0,0,0,,10,,,57,127
68392,note_off,139,0,0,,10,,,57,127
68392,note_off,0,0,0,,0,,,60,127
68393,note_on,1,0,0,,11,,,58,127
68393,note_on,0,0,0,,7,,,55,127
68532,note_off,139,0,0,,7,,,55,127
68532,note_off,0,0,0,,11,,,58,127
68532,note_off,0,0,0,,0,,,36,127
68533,note_on,1,0,0,,2,,,38,127
68533,note_on,0,0,0,,6,,,54,127
68533,note_on,0,0,0,,10,,,57,127
68672,note_off,139,0,0,,10,,,57,127
68672,note_off,0,0,0,,6,,,54,127
68672,note_off,0,0,0,,2,,,38,127
68673,note_on,1,0,0,,7,,,43,127
68673,note_on,0,0,0,,7,,,55,127
70344,note_off,1671,0,0,,7,,,55,127
70344,note_off,0,0,0,,7,,,43,127
75264,end_of_track,4920,1,0,,,,,,
