tick,type,time,meta,track,program,channel,pitch,tempo,note,velocity
0,copyright,0,1,0,,,,,,
0,program_change,0,0,0,6,0,,,,
0,pitchwheel,0,0,0,,0,0,,,
0,program_change,0,0,0,6,1,,,,
0,pitchwheel,0,0,0,,1,-590,,,
0,program_change,0,0,0,6,2,,,,
0,pitchwheel,0,0,0,,2,-272,,,
0,program_change,0,0,0,6,3,,,,
0,pitchwheel,0,0,0,,3,-353,,,
0,program_change,0,0,0,6,4,,,,
0,pitchwheel,0,0,0,,4,-560,,,
0,program_change,0,0,0,6,5,,,,
0,pitchwheel,0,0,0,,5,-80,,,
0,program_change,0,0,0,6,6,,,,
0,pitchwheel,0,0,0,,6,-625,,,
0,program_change,0,0,0,6,7,,,,
0,pitchwheel,0,0,0,,7,-130,,,
0,program_change,0,0,0,6,8,,,,
0,pitchwheel,0,0,0,,8,-512,,,
0,program_change,0,0,0,6,10,,,,
0,pitchwheel,0,0,0,,10,-464,,,
0,program_change,0,0,0,6,11,,,,
0,pitchwheel,0,0,0,,11,-208,,,
0,program_change,0,0,0,6,12,,,,
0,pitchwheel,0,0,0,,12,-553,,,
0,set_tempo,0,1,0,,,,500000,,
121,note_on,121,0,0,,0,,,72,127
364,note_off,243,0,0,,0,,,72,127
364,note_on,0,0,0,,5,,,65,127
364,note_on,0,0,0,,10,,,69,127
364,note_on,0,0,0,,10,,,81,127
607,note_off,243,0,0,,10,,,69,127
607,note_off,0,0,0,,5,,,65,127
607,note_on,0,0,0,,5,,,65,127
607,note_on,0,0,0,,10,,,69,127
850,note_off,243,0,0,,10,,,69,127
850,note_off,0,0,0,,5,,,65,127
850,note_on,0,0,0,,11,,,70,127
850,note_on,0,0,0,,7,,,67,127
971,note_off,121,0,0,,10,,,81,127
971,note_on,0,0,0,,11,,,82,127
1092,note_off,121,0,0,,11,,,82,127
1092,note_off,0,0,0,,7,,,67,127
1092,note_off,0,0,0,,11,,,70,127
1092,note_on,0,0,0,,11,,,70,127
1092,note_on,0,0,0,,7,,,67,127
1092,note_on,0,0,0,,7,,,79,127
1213,note_off,121,0,0,,7,,,79,127
1213,note_on,0,0,0,,5,,,77,127
1334,note_off,121,0,0,,5,,,77,127
1334,note_off,0,0,0,,7,,,67,127
1334,note_off,0,0,0,,11,,,70,127
1334,note_on,0,0,0,,4,,,76,127
1455,note_off,121,0,0,,4,,,76,127
1455,note_on,0,0,0,,2,,,74,127
1576,note_off,121,0,0,,2,,,74,127
1576,note_on,0,0,0,,0,,,72,127
1697,note_on,121,0,0,,11,,,70,127
1715,note_off,18,0,0,,0,,,72,127
1819,note_off,104,0,0,,11,,,70,127
1819,note_on,0,0,0,,4,,,64,127
1819,note_on,0,0,0,,7,,,67,127
1819,note_on,0,0,0,,7,,,79,127
2062,note_off,243,0,0,,7,,,67,127
2062,note_off,0,0,0,,4,,,64,127
2062,note_on,0,0,0,,7,,,67,127
2062,note_on,0,0,0,,4,,,64,127
2305,note_off,243,0,0,,4,,,64,127
2305,note_off,0,0,0,,7,,,67,127
2305,note_on,0,0,0,,5,,,65,127
2305,note_on,0,0,0,,10,,,69,127
2426,note_off,121,0,0,,7,,,79,127
2426,note_on,0,0,0,,10,,,81,127
2547,note_off,121,0,0,,10,,,81,127
2547,note_off,0,0,0,,10,,,69,127
2547,note_off,0,0,0,,5,,,65,127
2547,note_on,0,0,0,,5,,,65,127
2547,note_on,0,0,0,,10,,,69,127
2547,note_on,0,0,0,,5,,,77,127
2668,note_off,121,0,0,,5,,,77,127
2668,note_on,0,0,0,,4,,,76,127
2789,note_off,121,0,0,,4,,,76,127
2789,note_off,0,0,0,,10,,,69,127
2789,note_off,0,0,0,,5,,,65,127
2789,note_on,0,0,0,,2,,,74,127
2910,note_off,121,0,0,,2,,,74,127
2910,note_on,0,0,0,,0,,,72,127
3031,note_off,121,0,0,,0,,,72,127
3031,note_on,0,0,0,,11,,,70,127
3152,note_on,121,0,0,,10,,,69,127
3170,note_off,18,0,0,,11,,,70,127
3274,note_off,104,0,0,,10,,,69,127
3274,note_on,0,0,0,,10,,,57,127
3274,note_on,0,0,0,,5,,,65,127
3274,note_on,0,0,0,,5,,,77,127
3517,note_off,243,0,0,,5,,,65,127
3517,note_off,0,0,0,,10,,,57,127
3517,note_on,0,0,0,,10,,,57,127
3517,note_on,0,0,0,,5,,,65,127
3760,note_off,243,0,0,,5,,,65,127
3760,note_off,0,0,0,,10,,,57,127
3760,note_on,0,0,0,,5,,,65,127
3760,note_on,0,0,0,,11,,,58,127
3760,note_on,0,0,0,,7,,,67,127
3881,note_off,121,0,0,,5,,,77,127
3881,note_on,0,0,0,,0,,,84,127
4002,note_off,121,0,0,,0,,,84,127
4002,note_off,0,0,0,,7,,,67,127
4002,note_off,0,0,0,,11,,,58,127
4002,note_off,0,0,0,,5,,,65,127
4002,note_on,0,0,0,,5,,,65,127
4002,note_on,0,0,0,,11,,,58,127
4002,note_on,0,0,0,,7,,,67,127
4002,note_on,0,0,0,,11,,,82,127
4123,note_off,121,0,0,,11,,,82,127
4123,note_on,0,0,0,,10,,,81,127
4244,note_off,121,0,0,,10,,,81,127
4244,note_off,0,0,0,,7,,,67,127
4244,note_off,0,0,0,,11,,,58,127
4244,note_off,0,0,0,,5,,,65,127
4244,note_on,0,0,0,,11,,,58,127
4244,note_on,0,0,0,,5,,,65,127
4244,note_on,0,0,0,,7,,,67,127
4244,note_on,0,0,0,,7,,,79,127
4365,note_off,121,0,0,,7,,,79,127
4365,note_on,0,0,0,,5,,,77,127
4486,note_off,121,0,0,,5,,,77,127
4486,note_off,0,0,0,,7,,,67,127
4486,note_off,0,0,0,,5,,,65,127
4486,note_off,0,0,0,,11,,,58,127
4486,note_on,0,0,0,,7,,,67,127
4486,note_on,0,0,0,,0,,,60,127
4486,note_on,0,0,0,,4,,,76,127
4607,note_off,121,0,0,,4,,,76,127
4607,note_on,0,0,0,,2,,,74,127
4668,note_off,61,0,0,,7,,,67,127
4729,note_off,61,0,0,,2,,,74,127
4729,note_off,0,0,0,,0,,,60,127
4729,note_on,0,0,0,,0,,,60,127
4729,note_on,0,0,0,,7,,,67,127
4729,note_on,0,0,0,,0,,,72,127
4850,note_off,121,0,0,,0,,,72,127
4850,note_on,0,0,0,,11,,,70,127
4911,note_off,61,0,0,,7,,,67,127
4972,note_off,61,0,0,,11,,,70,127
4972,note_off,0,0,0,,0,,,60,127
4972,note_on,0,0,0,,0,,,48,127
4972,note_on,0,0,0,,10,,,69,127
5093,note_off,121,0,0,,10,,,69,127
5093,note_on,0,0,0,,7,,,67,127
5214,note_off,121,0,0,,7,,,67,127
5214,note_off,0,0,0,,0,,,48,127
5214,note_on,0,0,0,,5,,,53,127
5214,note_on,0,0,0,,10,,,69,127
5335,note_off,121,0,0,,10,,,69,127
5335,note_on,0,0,0,,7,,,67,127
5456,note_off,121,0,0,,7,,,67,127
5456,note_on,0,0,0,,0,,,48,127
5456,note_on,0,0,0,,5,,,65,127
5577,note_off,121,0,0,,5,,,65,127
5577,note_on,0,0,0,,4,,,64,127
5698,note_off,121,0,0,,4,,,64,127
5698,note_off,0,0,0,,0,,,48,127
5698,note_on,0,0,0,,5,,,41,127
5698,note_on,0,0,0,,5,,,65,127
5941,note_off,243,0,0,,5,,,65,127
5941,note_off,0,0,0,,5,,,41,127
5941,note_off,0,0,0,,5,,,53,127
5941,note_on,0,0,0,,0,,,72,127
6062,note_on,121,0,0,,2,,,74,127
6092,note_off,30,0,0,,0,,,72,127
6092,note_on,0,0,0,,4,,,76,127
6122,note_off,30,0,0,,2,,,74,127
6122,note_on,0,0,0,,5,,,77,127
6152,note_off,30,0,0,,4,,,76,127
6152,note_on,0,0,0,,7,,,79,127
6182,note_off,30,0,0,,5,,,77,127
6182,note_on,0,0,0,,5,,,65,127
6182,note_on,0,0,0,,10,,,69,127
6182,note_on,0,0,0,,10,,,81,127
6212,note_off,30,0,0,,7,,,79,127
6424,note_off,212,0,0,,10,,,69,127
6424,note_off,0,0,0,,5,,,65,127
6424,note_on,0,0,0,,10,,,69,127
6424,note_on,0,0,0,,5,,,65,127
6667,note_off,243,0,0,,5,,,65,127
6667,note_off,0,0,0,,10,,,69,127
6667,note_on,0,0,0,,11,,,70,127
6667,note_on,0,0,0,,7,,,67,127
6788,note_off,121,0,0,,10,,,81,127
6788,note_on,0,0,0,,11,,,82,127
6909,note_off,121,0,0,,11,,,82,127
6909,note_off,0,0,0,,7,,,67,127
6909,note_off,0,0,0,,11,,,70,127
6909,note_on,0,0,0,,7,,,67,127
6909,note_on,0,0,0,,11,,,70,127
6909,note_on,0,0,0,,7,,,79,127
7030,note_off,121,0,0,,7,,,79,127
7030,note_on,0,0,0,,5,,,77,127
7151,note_off,121,0,0,,5,,,77,127
7151,note_on,0,0,0,,4,,,76,127
7272,note_off,121,0,0,,4,,,76,127
7272,note_on,0,0,0,,2,,,74,127
7393,note_off,121,0,0,,2,,,74,127
7393,note_off,0,0,0,,11,,,70,127
7393,note_off,0,0,0,,7,,,67,127
7393,note_on,0,0,0,,11,,,70,127
7514,note_on,121,0,0,,0,,,72,127
7544,note_off,30,0,0,,11,,,70,127
7544,note_on,0,0,0,,2,,,74,127
7574,note_off,30,0,0,,0,,,72,127
7574,note_on,0,0,0,,4,,,76,127
7604,note_off,30,0,0,,2,,,74,127
7604,note_on,0,0,0,,5,,,77,127
7634,note_off,30,0,0,,4,,,76,127
7634,note_on,0,0,0,,4,,,64,127
7634,note_on,0,0,0,,7,,,67,127
7634,note_on,0,0,0,,7,,,79,127
7664,note_off,30,0,0,,5,,,77,127
7876,note_off,212,0,0,,7,,,67,127
7876,note_off,0,0,0,,4,,,64,127
7876,note_on,0,0,0,,7,,,67,127
7876,note_on,0,0,0,,4,,,64,127
8119,note_off,243,0,0,,4,,,64,127
8119,note_off,0,0,0,,7,,,67,127
8119,note_on,0,0,0,,5,,,65,127
8119,note_on,0,0,0,,10,,,69,127
8240,note_off,121,0,0,,7,,,79,127
8240,note_on,0,0,0,,10,,,81,127
8361,note_off,121,0,0,,10,,,81,127
8361,note_off,0,0,0,,10,,,69,127
8361,note_off,0,0,0,,5,,,65,127
8361,note_on,0,0,0,,5,,,65,127
8361,note_on,0,0,0,,10,,,69,127
8361,note_on,0,0,0,,5,,,77,127
8482,note_off,121,0,0,,5,,,77,127
8482,note_on,0,0,0,,4,,,76,127
8603,note_off,121,0,0,,4,,,76,127
8603,note_on,0,0,0,,2,,,74,127
8724,note_off,121,0,0,,2,,,74,127
8724,note_on,0,0,0,,0,,,72,127
8845,note_off,121,0,0,,0,,,72,127
8845,note_off,0,0,0,,10,,,69,127
8845,note_off,0,0,0,,5,,,65,127
8845,note_on,0,0,0,,10,,,69,127
8966,note_on,121,0,0,,11,,,70,127
8996,note_off,30,0,0,,10,,,69,127
8996,note_on,0,0,0,,0,,,72,127
9026,note_off,30,0,0,,11,,,70,127
9026,note_on,0,0,0,,2,,,74,127
9056,note_off,30,0,0,,0,,,72,127
9056,note_on,0,0,0,,4,,,76,127
9086,note_off,30,0,0,,2,,,74,127
9086,note_on,0,0,0,,5,,,65,127
9086,note_on,0,0,0,,10,,,57,127
9086,note_on,0,0,0,,5,,,77,127
9116,note_off,30,0,0,,4,,,76,127
9328,note_off,212,0,0,,10,,,57,127
9328,note_off,0,0,0,,5,,,65,127
9328,note_on,0,0,0,,10,,,57,127
9328,note_on,0,0,0,,5,,,65,127
9571,note_off,243,0,0,,5,,,65,127
9571,note_off,0,0,0,,10,,,57,127
9571,note_on,0,0,0,,5,,,65,127
9571,note_on,0,0,0,,11,,,58,127
9571,note_on,0,0,0,,7,,,67,127
9692,note_off,121,0,0,,5,,,77,127
9692,note_on,0,0,0,,0,,,84,127
9813,note_off,121,0,0,,0,,,84,127
9813,note_off,0,0,0,,7,,,67,127
9813,note_off,0,0,0,,11,,,58,127
9813,note_off,0,0,0,,5,,,65,127
9813,note_on,0,0,0,,11,,,58,127
9813,note_on,0,0,0,,5,,,65,127
9813,note_on,0,0,0,,7,,,67,127
9813,note_on,0,0,0,,11,,,82,127
9934,note_off,121,0,0,,11,,,82,127
9934,note_on,0,0,0,,10,,,81,127
10055,note_off,121,0,0,,10,,,81,127
10055,note_off,0,0,0,,7,,,67,127
10055,note_off,0,0,0,,5,,,65,127
10055,note_off,0,0,0,,11,,,58,127
10055,note_on,0,0,0,,11,,,58,127
10055,note_on,0,0,0,,7,,,67,127
10055,note_on,0,0,0,,5,,,65,127
10055,note_on,0,0,0,,7,,,79,127
10176,note_off,121,0,0,,7,,,79,127
10176,note_on,0,0,0,,5,,,77,127
10297,note_off,121,0,0,,5,,,77,127
10297,note_off,0,0,0,,5,,,65,127
10297,note_off,0,0,0,,7,,,67,127
10297,note_off,0,0,0,,11,,,58,127
10297,note_on,0,0,0,,0,,,60,127
10297,note_on,0,0,0,,7,,,67,127
10297,note_on,0,0,0,,4,,,76,127
10418,note_off,121,0,0,,4,,,76,127
10418,note_on,0,0,0,,2,,,74,127
10479,note_off,61,0,0,,7,,,67,127
10540,note_off,61,0,0,,2,,,74,127
10540,note_off,0,0,0,,0,,,60,127
10540,note_on,0,0,0,,7,,,67,127
10540,note_on,0,0,0,,0,,,60,127
10540,note_on,0,0,0,,0,,,72,127
10661,note_off,121,0,0,,0,,,72,127
10661,note_on,0,0,0,,11,,,70,127
10722,note_off,61,0,0,,7,,,67,127
10783,note_off,61,0,0,,11,,,70,127
10783,note_on,0,0,0,,0,,,48,127
10783,note_on,0,0,0,,10,,,69,127
10904,note_off,121,0,0,,10,,,69,127
10904,note_on,0,0,0,,7,,,67,127
11020,note_off,116,0,0,,0,,,60,127
11025,note_off,5,0,0,,7,,,67,127
11025,note_off,0,0,0,,0,,,48,127
11025,note_on,0,0,0,,5,,,53,127
11025,note_on,0,0,0,,10,,,69,127
11146,note_off,121,0,0,,10,,,69,127
11146,note_on,0,0,0,,7,,,67,127
11267,note_off,121,0,0,,7,,,67,127
11267,note_on,0,0,0,,0,,,48,127
11267,note_on,0,0,0,,5,,,65,127
11388,note_off,121,0,0,,5,,,65,127
11388,note_on,0,0,0,,4,,,64,127
11509,note_off,121,0,0,,4,,,64,127
11509,note_off,0,0,0,,0,,,48,127
11509,note_on,0,0,0,,5,,,41,127
11509,note_on,0,0,0,,5,,,65,127
11691,note_off,182,0,0,,5,,,65,127
11752,note_off,61,0,0,,5,,,41,127
11752,note_off,0,0,0,,5,,,53,127
11752,note_on,0,0,0,,5,,,65,127
11752,note_on,0,0,0,,0,,,84,127
11873,note_off,121,0,0,,5,,,65,127
11873,note_on,0,0,0,,10,,,69,127
11994,note_off,121,0,0,,10,,,69,127
11994,note_off,0,0,0,,0,,,84,127
11994,note_on,0,0,0,,7,,,67,127
11994,note_on,0,0,0,,4,,,76,127
12115,note_off,121,0,0,,7,,,67,127
12115,note_on,0,0,0,,11,,,70,127
12236,note_off,121,0,0,,11,,,70,127
12236,note_off,0,0,0,,4,,,76,127
12236,note_on,0,0,0,,10,,,69,127
12236,note_on,0,0,0,,5,,,77,127
12479,note_off,243,0,0,,5,,,77,127
12479,note_off,0,0,0,,10,,,69,127
12479,note_on,0,0,0,,0,,,36,127
12479,note_on,0,0,0,,7,,,79,127
12722,note_off,243,0,0,,0,,,36,127
12722,note_on,0,0,0,,0,,,36,127
12843,note_off,121,0,0,,7,,,79,127
12843,note_on,0,0,0,,10,,,81,127
12904,note_off,61,0,0,,10,,,81,127
12904,note_on,0,0,0,,11,,,82,127
12965,note_off,61,0,0,,11,,,82,127
12965,note_off,0,0,0,,0,,,36,127
12965,note_on,0,0,0,,5,,,41,127
12965,note_on,0,0,0,,10,,,81,127
13147,note_off,182,0,0,,10,,,81,127
13208,note_off,61,0,0,,5,,,41,127
13208,note_on,0,0,0,,5,,,65,127
13208,note_on,0,0,0,,0,,,84,127
13329,note_off,121,0,0,,5,,,65,127
13329,note_on,0,0,0,,10,,,69,127
13450,note_off,121,0,0,,10,,,69,127
13450,note_off,0,0,0,,0,,,84,127
13450,note_on,0,0,0,,7,,,67,127
13450,note_on,0,0,0,,4,,,76,127
13571,note_off,121,0,0,,7,,,67,127
13571,note_on,0,0,0,,11,,,70,127
13692,note_off,121,0,0,,11,,,70,127
13692,note_off,0,0,0,,4,,,76,127
13692,note_on,0,0,0,,10,,,69,127
13692,note_on,0,0,0,,5,,,77,127
13935,note_off,243,0,0,,5,,,77,127
13935,note_off,0,0,0,,10,,,69,127
13935,note_on,0,0,0,,0,,,36,127
13935,note_on,0,0,0,,7,,,79,127
14178,note_off,243,0,0,,0,,,36,127
14178,note_on,0,0,0,,0,,,36,127
14299,note_off,121,0,0,,7,,,79,127
14299,note_on,0,0,0,,10,,,81,127
14360,note_off,61,0,0,,10,,,81,127
14360,note_on,0,0,0,,11,,,82,127
14421,note_off,61,0,0,,11,,,82,127
14421,note_off,0,0,0,,0,,,36,127
14421,note_on,0,0,0,,5,,,41,127
14421,note_on,0,0,0,,10,,,81,127
14664,note_off,243,0,0,,10,,,81,127
14664,note_off,0,0,0,,5,,,41,127
14664,note_on,0,0,0,,0,,,72,127
14664,note_on,0,0,0,,5,,,65,127
14785,note_on,121,0,0,,10,,,81,127
14906,note_off,121,0,0,,10,,,81,127
14906,note_off,0,0,0,,5,,,65,127
14906,note_off,0,0,0,,0,,,72,127
14906,note_on,0,0,0,,5,,,65,127
14906,note_on,0,0,0,,0,,,72,127
14906,note_on,0,0,0,,11,,,82,127
15027,note_off,121,0,0,,11,,,82,127
15027,note_on,0,0,0,,12,,,83,127
15148,note_off,121,0,0,,12,,,83,127
15148,note_off,0,0,0,,0,,,72,127
15148,note_off,0,0,0,,5,,,65,127
15148,note_on,0,0,0,,5,,,65,127
15148,note_on,0,0,0,,0,,,72,127
15148,note_on,0,0,0,,0,,,84,127
15269,note_off,121,0,0,,0,,,84,127
15269,note_on,0,0,0,,10,,,81,127
15390,note_off,121,0,0,,10,,,81,127
15390,note_off,0,0,0,,0,,,72,127
15390,note_off,0,0,0,,5,,,65,127
15390,note_on,0,0,0,,0,,,72,127
15390,note_on,0,0,0,,4,,,64,127
15390,note_on,0,0,0,,7,,,67,127
15390,note_on,0,0,0,,7,,,79,127
15390,note_on,0,0,0,,10,,,81,127
15511,note_off,121,0,0,,10,,,81,127
15511,note_off,0,0,0,,7,,,79,127
15511,note_on,0,0,0,,6,,,78,127
15632,note_off,121,0,0,,6,,,78,127
15632,note_off,0,0,0,,7,,,67,127
15632,note_off,0,0,0,,4,,,64,127
15632,note_off,0,0,0,,0,,,72,127
15632,note_on,0,0,0,,7,,,67,127
15632,note_on,0,0,0,,4,,,64,127
15632,note_on,0,0,0,,0,,,72,127
15632,note_on,0,0,0,,6,,,78,127
15753,note_off,121,0,0,,6,,,78,127
15753,note_on,0,0,0,,7,,,79,127
15874,note_off,121,0,0,,7,,,79,127
15874,note_off,0,0,0,,0,,,72,127
15874,note_off,0,0,0,,4,,,64,127
15874,note_off,0,0,0,,7,,,67,127
15874,note_on,0,0,0,,4,,,64,127
15874,note_on,0,0,0,,0,,,72,127
15874,note_on,0,0,0,,7,,,67,127
15874,note_on,0,0,0,,7,,,79,127
16117,note_off,243,0,0,,7,,,79,127
16117,note_off,0,0,0,,7,,,67,127
16117,note_off,0,0,0,,0,,,72,127
16117,note_off,0,0,0,,4,,,64,127
16117,note_on,0,0,0,,5,,,65,127
16117,note_on,0,0,0,,0,,,72,127
16117,note_on,0,0,0,,2,,,62,127
16238,note_on,121,0,0,,4,,,76,127
16359,note_off,121,0,0,,4,,,76,127
16359,note_off,0,0,0,,2,,,62,127
16359,note_off,0,0,0,,0,,,72,127
16359,note_off,0,0,0,,5,,,65,127
16359,note_on,0,0,0,,2,,,62,127
16359,note_on,0,0,0,,0,,,72,127
16359,note_on,0,0,0,,5,,,65,127
16359,note_on,0,0,0,,5,,,77,127
16480,note_off,121,0,0,,5,,,77,127
16480,note_on,0,0,0,,8,,,80,127
16601,note_off,121,0,0,,8,,,80,127
16601,note_off,0,0,0,,5,,,65,127
16601,note_off,0,0,0,,0,,,72,127
16601,note_off,0,0,0,,2,,,62,127
16601,note_on,0,0,0,,12,,,71,127
16601,note_on,0,0,0,,5,,,65,127
16601,note_on,0,0,0,,2,,,62,127
16601,note_on,0,0,0,,10,,,81,127
16722,note_off,121,0,0,,10,,,81,127
16722,note_on,0,0,0,,5,,,77,127
16843,note_off,121,0,0,,5,,,77,127
16843,note_off,0,0,0,,2,,,62,127
16843,note_off,0,0,0,,5,,,65,127
16843,note_off,0,0,0,,12,,,71,127
16843,note_on,0,0,0,,4,,,64,127
16843,note_on,0,0,0,,12,,,71,127
16843,note_on,0,0,0,,0,,,60,127
16843,note_on,0,0,0,,4,,,76,127
16843,note_on,0,0,0,,5,,,77,127
16964,note_off,121,0,0,,5,,,77,127
16964,note_off,0,0,0,,4,,,76,127
16964,note_on,0,0,0,,3,,,75,127
17085,note_off,121,0,0,,3,,,75,127
17085,note_off,0,0,0,,0,,,60,127
17085,note_off,0,0,0,,12,,,71,127
17085,note_off,0,0,0,,4,,,64,127
17085,note_on,0,0,0,,0,,,60,127
17085,note_on,0,0,0,,10,,,69,127
17085,note_on,0,0,0,,4,,,64,127
17085,note_on,0,0,0,,3,,,75,127
17206,note_off,121,0,0,,3,,,75,127
17206,note_on,0,0,0,,4,,,76,127
17327,note_off,121,0,0,,4,,,76,127
17327,note_off,0,0,0,,4,,,64,127
17327,note_off,0,0,0,,10,,,69,127
17327,note_off,0,0,0,,0,,,60,127
17327,note_on,0,0,0,,0,,,60,127
17327,note_on,0,0,0,,10,,,69,127
17327,note_on,0,0,0,,4,,,64,127
17327,note_on,0,0,0,,4,,,76,127
17570,note_off,243,0,0,,4,,,76,127
17570,note_off,0,0,0,,4,,,64,127
17570,note_off,0,0,0,,10,,,69,127
17570,note_off,0,0,0,,0,,,60,127
17570,note_on,0,0,0,,2,,,62,127
17570,note_on,0,0,0,,12,,,59,127
17570,note_on,0,0,0,,10,,,69,127
17691,note_on,121,0,0,,4,,,76,127
17812,note_off,121,0,0,,4,,,76,127
17812,note_off,0,0,0,,10,,,69,127
17812,note_off,0,0,0,,12,,,59,127
17812,note_off,0,0,0,,2,,,62,127
17812,note_on,0,0,0,,2,,,62,127
17812,note_on,0,0,0,,12,,,59,127
17812,note_on,0,0,0,,7,,,67,127
17812,note_on,0,0,0,,5,,,77,127
17933,note_off,121,0,0,,5,,,77,127
17933,note_on,0,0,0,,6,,,78,127
18054,note_off,121,0,0,,6,,,78,127
18054,note_off,0,0,0,,7,,,67,127
18054,note_off,0,0,0,,12,,,59,127
18054,note_off,0,0,0,,2,,,62,127
18054,note_on,0,0,0,,2,,,62,127
18054,note_on,0,0,0,,12,,,59,127
18054,note_on,0,0,0,,7,,,67,127
18054,note_on,0,0,0,,7,,,79,127
18175,note_off,121,0,0,,7,,,79,127
18175,note_on,0,0,0,,2,,,74,127
18296,note_off,121,0,0,,2,,,74,127
18296,note_off,0,0,0,,7,,,67,127
18296,note_off,0,0,0,,12,,,59,127
18296,note_off,0,0,0,,2,,,62,127
18296,note_on,0,0,0,,7,,,67,127
18296,note_on,0,0,0,,10,,,57,127
18296,note_on,0,0,0,,2,,,74,127
18296,note_on,0,0,0,,4,,,76,127
18417,note_off,121,0,0,,4,,,76,127
18417,note_off,0,0,0,,2,,,74,127
18417,note_on,0,0,0,,0,,,72,127
18538,note_off,121,0,0,,0,,,72,127
18538,note_off,0,0,0,,10,,,57,127
18538,note_off,0,0,0,,7,,,67,127
18538,note_on,0,0,0,,10,,,57,127
18538,note_on,0,0,0,,5,,,65,127
18538,note_on,0,0,0,,2,,,74,127
18659,note_off,121,0,0,,2,,,74,127
18659,note_on,0,0,0,,4,,,76,127
18780,note_off,121,0,0,,4,,,76,127
18780,note_off,0,0,0,,5,,,65,127
18780,note_off,0,0,0,,10,,,57,127
18780,note_on,0,0,0,,4,,,64,127
18780,note_on,0,0,0,,7,,,55,127
18780,note_on,0,0,0,,5,,,77,127
18901,note_off,121,0,0,,5,,,77,127
18901,note_on,0,0,0,,7,,,79,127
19022,note_off,121,0,0,,7,,,79,127
19022,note_off,0,0,0,,7,,,55,127
19022,note_off,0,0,0,,4,,,64,127
19022,note_on,0,0,0,,5,,,53,127
19022,note_on,0,0,0,,8,,,80,127
19143,note_off,121,0,0,,8,,,80,127
19143,note_on,0,0,0,,10,,,81,127
19264,note_off,121,0,0,,10,,,81,127
19264,note_off,0,0,0,,5,,,53,127
19264,note_on,0,0,0,,5,,,65,127
19264,note_on,0,0,0,,5,,,77,127
19385,note_off,121,0,0,,5,,,77,127
19385,note_on,0,0,0,,4,,,76,127
19506,note_off,121,0,0,,4,,,76,127
19506,note_on,0,0,0,,5,,,53,127
19506,note_on,0,0,0,,2,,,74,127
19627,note_off,121,0,0,,2,,,74,127
19627,note_on,0,0,0,,0,,,72,127
19743,note_off,116,0,0,,5,,,65,127
19748,note_off,5,0,0,,0,,,72,127
19748,note_off,0,0,0,,5,,,53,127
19748,note_on,0,0,0,,7,,,55,127
19748,note_on,0,0,0,,12,,,71,127
19869,note_off,121,0,0,,12,,,71,127
19869,note_on,0,0,0,,0,,,72,127
19990,note_off,121,0,0,,0,,,72,127
19990,note_off,0,0,0,,7,,,55,127
19990,note_on,0,0,0,,7,,,67,127
19990,note_on,0,0,0,,2,,,74,127
20111,note_off,121,0,0,,2,,,74,127
20111,note_on,0,0,0,,4,,,76,127
20232,note_off,121,0,0,,4,,,76,127
20232,note_off,0,0,0,,7,,,67,127
20232,note_on,0,0,0,,4,,,64,127
20232,note_on,0,0,0,,5,,,77,127
20353,note_off,121,0,0,,5,,,77,127
20353,note_on,0,0,0,,7,,,79,127
20474,note_off,121,0,0,,7,,,79,127
20474,note_off,0,0,0,,4,,,64,127
20474,note_on,0,0,0,,5,,,65,127
20474,note_on,0,0,0,,8,,,80,127
20595,note_off,121,0,0,,8,,,80,127
20595,note_on,0,0,0,,10,,,81,127
20716,note_off,121,0,0,,10,,,81,127
20716,note_off,0,0,0,,5,,,65,127
20716,note_on,0,0,0,,7,,,67,127
20716,note_on,0,0,0,,7,,,79,127
20716,note_on,0,0,0,,5,,,77,127
20837,note_off,121,0,0,,5,,,77,127
20837,note_off,0,0,0,,7,,,79,127
20837,note_on,0,0,0,,4,,,76,127
20958,note_off,121,0,0,,4,,,76,127
20958,note_off,0,0,0,,7,,,67,127
20958,note_on,0,0,0,,10,,,69,127
20958,note_on,0,0,0,,2,,,74,127
21079,note_off,121,0,0,,2,,,74,127
21079,note_on,0,0,0,,0,,,72,127
21200,note_off,121,0,0,,0,,,72,127
21200,note_off,0,0,0,,10,,,69,127
21200,note_on,0,0,0,,7,,,67,127
21200,note_on,0,0,0,,12,,,71,127
21443,note_on,243,0,0,,7,,,55,127
21564,note_off,121,0,0,,12,,,71,127
21564,note_off,0,0,0,,7,,,67,127
21564,note_on,0,0,0,,10,,,69,127
21685,note_off,121,0,0,,10,,,69,127
21685,note_on,0,0,0,,7,,,67,127
21867,note_off,182,0,0,,7,,,67,127
21928,note_off,61,0,0,,7,,,55,127
21928,note_on,0,0,0,,0,,,60,127
21928,note_on,0,0,0,,7,,,79,127
22049,note_off,121,0,0,,0,,,60,127
22049,note_on,0,0,0,,4,,,64,127
22170,note_off,121,0,0,,4,,,64,127
22170,note_off,0,0,0,,7,,,79,127
22170,note_on,0,0,0,,2,,,62,127
22170,note_on,0,0,0,,12,,,71,127
22291,note_off,121,0,0,,2,,,62,127
22291,note_on,0,0,0,,5,,,65,127
22412,note_off,121,0,0,,5,,,65,127
22412,note_off,0,0,0,,12,,,71,127
22412,note_on,0,0,0,,4,,,64,127
22412,note_on,0,0,0,,0,,,72,127
22655,note_off,243,0,0,,0,,,72,127
22655,note_off,0,0,0,,4,,,64,127
22655,note_on,0,0,0,,7,,,43,127
22655,note_on,0,0,0,,2,,,74,127
22898,note_off,243,0,0,,7,,,43,127
22898,note_on,0,0,0,,7,,,43,127
23019,note_off,121,0,0,,2,,,74,127
23019,note_on,0,0,0,,4,,,76,127
23080,note_off,61,0,0,,4,,,76,127
23080,note_on,0,0,0,,5,,,77,127
23141,note_off,61,0,0,,5,,,77,127
23141,note_off,0,0,0,,7,,,43,127
23141,note_on,0,0,0,,0,,,48,127
23141,note_on,0,0,0,,4,,,76,127
23323,note_off,182,0,0,,4,,,76,127
23384,note_off,61,0,0,,0,,,48,127
23384,note_on,0,0,0,,0,,,60,127
23384,note_on,0,0,0,,7,,,79,127
23505,note_off,121,0,0,,0,,,60,127
23505,note_on,0,0,0,,4,,,64,127
23626,note_off,121,0,0,,4,,,64,127
23626,note_off,0,0,0,,7,,,79,127
23626,note_on,0,0,0,,2,,,62,127
23626,note_on,0,0,0,,12,,,71,127
23747,note_off,121,0,0,,2,,,62,127
23747,note_on,0,0,0,,5,,,65,127
23868,note_off,121,0,0,,5,,,65,127
23868,note_off,0,0,0,,12,,,71,127
23868,note_on,0,0,0,,4,,,64,127
23868,note_on,0,0,0,,0,,,72,127
24111,note_off,243,0,0,,0,,,72,127
24111,note_off,0,0,0,,4,,,64,127
24111,note_on,0,0,0,,7,,,43,127
24111,note_on,0,0,0,,2,,,74,127
24354,note_off,243,0,0,,7,,,43,127
24354,note_on,0,0,0,,7,,,43,127
24475,note_off,121,0,0,,2,,,74,127
24475,note_on,0,0,0,,4,,,76,127
24536,note_off,61,0,0,,4,,,76,127
24536,note_on,0,0,0,,5,,,77,127
24597,note_off,61,0,0,,5,,,77,127
24597,note_off,0,0,0,,7,,,43,127
24597,note_on,0,0,0,,0,,,48,127
24597,note_on,0,0,0,,4,,,76,127
24840,note_off,243,0,0,,4,,,76,127
24840,note_off,0,0,0,,0,,,48,127
24840,note_on,0,0,0,,0,,,60,127
24961,note_on,121,0,0,,0,,,72,127
25082,note_off,121,0,0,,0,,,72,127
25082,note_off,0,0,0,,0,,,60,127
25082,note_on,0,0,0,,2,,,62,127
25082,note_on,0,0,0,,2,,,74,127
25203,note_off,121,0,0,,2,,,74,127
25203,note_on,0,0,0,,4,,,76,127
25324,note_off,121,0,0,,4,,,76,127
25324,note_off,0,0,0,,2,,,62,127
25324,note_on,0,0,0,,4,,,64,127
25324,note_on,0,0,0,,5,,,77,127
25445,note_off,121,0,0,,5,,,77,127
25445,note_on,0,0,0,,7,,,79,127
25566,note_off,121,0,0,,7,,,79,127
25566,note_off,0,0,0,,4,,,64,127
25566,note_on,0,0,0,,5,,,65,127
25566,note_on,0,0,0,,8,,,80,127
25687,note_off,121,0,0,,8,,,80,127
25687,note_on,0,0,0,,10,,,81,127
25808,note_off,121,0,0,,10,,,81,127
25808,note_off,0,0,0,,5,,,65,127
25808,note_on,0,0,0,,7,,,67,127
25808,note_on,0,0,0,,7,,,79,127
25929,note_off,121,0,0,,7,,,79,127
25929,note_on,0,0,0,,5,,,77,127
26050,note_off,121,0,0,,5,,,77,127
26050,note_off,0,0,0,,7,,,67,127
26050,note_on,0,0,0,,10,,,69,127
26050,note_on,0,0,0,,4,,,76,127
26171,note_off,121,0,0,,4,,,76,127
26171,note_on,0,0,0,,2,,,74,127
26292,note_off,121,0,0,,2,,,74,127
26292,note_off,0,0,0,,10,,,69,127
26292,note_on,0,0,0,,7,,,67,127
26292,note_on,0,0,0,,0,,,72,127
26332,note_on,40,0,0,,2,,,74,127
26352,note_off,20,0,0,,0,,,72,127
26372,note_on,20,0,0,,0,,,72,127
26392,note_off,20,0,0,,2,,,74,127
26412,note_on,20,0,0,,12,,,71,127
26432,note_off,20,0,0,,0,,,72,127
26452,note_on,20,0,0,,0,,,72,127
26472,note_off,20,0,0,,12,,,71,127
26492,note_on,20,0,0,,2,,,74,127
26512,note_off,20,0,0,,0,,,72,127
26532,note_on,20,0,0,,4,,,76,127
26552,note_off,20,0,0,,2,,,74,127
26592,note_off,40,0,0,,4,,,76,127
26592,note_on,0,0,0,,2,,,74,127
26653,note_off,61,0,0,,2,,,74,127
26653,note_on,0,0,0,,4,,,76,127
26714,note_off,61,0,0,,4,,,76,127
26714,note_on,0,0,0,,2,,,74,127
26775,note_off,61,0,0,,2,,,74,127
26775,note_off,0,0,0,,7,,,67,127
26775,note_on,0,0,0,,7,,,43,127
26775,note_on,0,0,0,,4,,,76,127
26836,note_off,61,0,0,,4,,,76,127
26836,note_on,0,0,0,,2,,,74,127
26897,note_off,61,0,0,,2,,,74,127
26897,note_on,0,0,0,,0,,,72,127
26958,note_off,61,0,0,,0,,,72,127
26958,note_on,0,0,0,,2,,,74,127
27019,note_off,61,0,0,,2,,,74,127
27019,note_off,0,0,0,,7,,,43,127
27019,note_on,0,0,0,,0,,,36,127
27019,note_on,0,0,0,,0,,,72,127
27140,note_on,121,0,0,,0,,,84,127
27261,note_off,121,0,0,,0,,,84,127
27261,note_off,0,0,0,,0,,,72,127
27261,note_on,0,0,0,,7,,,79,127
27382,note_off,121,0,0,,7,,,79,127
27382,note_on,0,0,0,,4,,,76,127
27503,note_off,121,0,0,,4,,,76,127
27503,note_on,0,0,0,,0,,,72,127
27624,note_off,121,0,0,,0,,,72,127
27624,note_on,0,0,0,,7,,,67,127
27745,note_off,121,0,0,,0,,,36,127
27745,note_on,0,0,0,,0,,,60,127
27866,note_off,121,0,0,,7,,,67,127
27866,note_on,0,0,0,,0,,,72,127
27987,note_off,121,0,0,,0,,,72,127
27987,note_off,0,0,0,,0,,,60,127
27987,note_on,0,0,0,,2,,,62,127
27987,note_on,0,0,0,,2,,,74,127
28108,note_off,121,0,0,,2,,,74,127
28108,note_on,0,0,0,,4,,,76,127
28229,note_off,121,0,0,,4,,,76,127
28229,note_off,0,0,0,,2,,,62,127
28229,note_on,0,0,0,,4,,,64,127
28229,note_on,0,0,0,,5,,,77,127
28350,note_off,121,0,0,,5,,,77,127
28350,note_on,0,0,0,,7,,,79,127
28471,note_off,121,0,0,,7,,,79,127
28471,note_off,0,0,0,,4,,,64,127
28471,note_on,0,0,0,,5,,,65,127
28471,note_on,0,0,0,,8,,,80,127
28592,note_off,121,0,0,,8,,,80,127
28592,note_on,0,0,0,,10,,,81,127
28713,note_off,121,0,0,,10,,,81,127
28713,note_off,0,0,0,,5,,,65,127
28713,note_on,0,0,0,,7,,,67,127
28713,note_on,0,0,0,,7,,,79,127
28834,note_off,121,0,0,,7,,,79,127
28834,note_on,0,0,0,,5,,,77,127
28955,note_off,121,0,0,,5,,,77,127
28955,note_off,0,0,0,,7,,,67,127
28955,note_on,0,0,0,,10,,,69,127
28955,note_on,0,0,0,,4,,,76,127
29076,note_off,121,0,0,,4,,,76,127
29076,note_on,0,0,0,,2,,,74,127
29197,note_off,121,0,0,,2,,,74,127
29197,note_off,0,0,0,,10,,,69,127
29197,note_on,0,0,0,,7,,,67,127
29197,note_on,0,0,0,,0,,,72,127
29318,note_off,121,0,0,,0,,,72,127
29318,note_on,0,0,0,,2,,,74,127
29439,note_off,121,0,0,,2,,,74,127
29439,note_off,0,0,0,,7,,,67,127
29439,note_on,0,0,0,,7,,,55,127
29439,note_on,0,0,0,,4,,,76,127
29500,note_off,61,0,0,,4,,,76,127
29500,note_on,0,0,0,,2,,,74,127
29561,note_off,61,0,0,,2,,,74,127
29561,note_on,0,0,0,,4,,,76,127
29622,note_off,61,0,0,,4,,,76,127
29622,note_on,0,0,0,,2,,,74,127
29683,note_off,61,0,0,,2,,,74,127
29683,note_off,0,0,0,,7,,,55,127
29683,note_on,0,0,0,,7,,,43,127
29683,note_on,0,0,0,,4,,,76,127
29744,note_off,61,0,0,,4,,,76,127
29744,note_on,0,0,0,,2,,,74,127
29805,note_off,61,0,0,,2,,,74,127
29805,note_on,0,0,0,,0,,,72,127
29866,note_off,61,0,0,,0,,,72,127
29866,note_on,0,0,0,,2,,,74,127
29927,note_off,61,0,0,,2,,,74,127
29927,note_off,0,0,0,,7,,,43,127
29927,note_on,0,0,0,,0,,,36,127
29927,note_on,0,0,0,,0,,,72,127
30170,note_off,243,0,0,,0,,,36,127
30170,note_on,0,0,0,,0,,,48,127
30413,note_off,243,0,0,,0,,,48,127
30413,note_off,0,0,0,,0,,,72,127
30413,note_on,0,0,0,,0,,,60,127
30656,note_off,243,0,0,,0,,,60,127
30656,note_on,0,0,0,,0,,,72,127
30777,note_on,121,0,0,,7,,,79,127
30898,note_off,121,0,0,,7,,,79,127
30898,note_on,0,0,0,,11,,,82,127
30898,note_on,0,0,0,,8,,,80,127
31019,note_off,121,0,0,,8,,,80,127
31019,note_off,0,0,0,,11,,,82,127
31019,note_on,0,0,0,,7,,,79,127
31140,note_off,121,0,0,,7,,,79,127
31140,note_off,0,0,0,,0,,,72,127
31140,note_on,0,0,0,,11,,,70,127
31140,note_on,0,0,0,,8,,,80,127
31261,note_off,121,0,0,,8,,,80,127
31261,note_on,0,0,0,,7,,,79,127
31382,note_off,121,0,0,,11,,,70,127
31382,note_on,0,0,0,,0,,,72,127
31382,note_on,0,0,0,,8,,,68,127
31503,note_off,121,0,0,,7,,,79,127
31503,note_on,0,0,0,,4,,,76,127
31624,note_off,121,0,0,,4,,,76,127
31624,note_on,0,0,0,,7,,,79,127
31624,note_on,0,0,0,,5,,,77,127
31745,note_off,121,0,0,,5,,,77,127
31745,note_off,0,0,0,,7,,,79,127
31745,note_on,0,0,0,,4,,,76,127
31866,note_off,121,0,0,,4,,,76,127
31866,note_off,0,0,0,,8,,,68,127
31866,note_off,0,0,0,,0,,,72,127
31866,note_on,0,0,0,,11,,,70,127
31866,note_on,0,0,0,,7,,,67,127
31866,note_on,0,0,0,,5,,,77,127
31987,note_off,121,0,0,,5,,,77,127
31987,note_on,0,0,0,,4,,,76,127
32108,note_off,121,0,0,,4,,,76,127
32108,note_off,0,0,0,,7,,,67,127
32108,note_off,0,0,0,,11,,,70,127
32108,note_on,0,0,0,,5,,,65,127
32108,note_on,0,0,0,,0,,,72,127
32108,note_on,0,0,0,,5,,,77,127
32229,note_off,121,0,0,,5,,,77,127
32229,note_on,0,0,0,,7,,,79,127
32350,note_off,121,0,0,,7,,,79,127
32350,note_off,0,0,0,,0,,,72,127
32350,note_off,0,0,0,,5,,,65,127
32350,note_on,0,0,0,,7,,,67,127
32350,note_on,0,0,0,,5,,,77,127
32471,note_off,121,0,0,,5,,,77,127
32471,note_on,0,0,0,,3,,,75,127
32592,note_off,121,0,0,,3,,,75,127
32592,note_off,0,0,0,,7,,,67,127
32592,note_on,0,0,0,,8,,,68,127
32592,note_on,0,0,0,,2,,,74,127
32713,note_off,121,0,0,,2,,,74,127
32713,note_on,0,0,0,,0,,,72,127
32834,note_off,121,0,0,,0,,,72,127
32834,note_off,0,0,0,,8,,,68,127
32834,note_on,0,0,0,,7,,,67,127
32834,note_on,0,0,0,,0,,,72,127
32955,note_off,121,0,0,,7,,,67,127
32955,note_on,0,0,0,,8,,,68,127
33076,note_off,121,0,0,,8,,,68,127
33076,note_off,0,0,0,,0,,,72,127
33076,note_on,0,0,0,,7,,,67,127
33076,note_on,0,0,0,,12,,,71,127
33116,note_on,40,0,0,,0,,,72,127
33136,note_off,20,0,0,,12,,,71,127
33156,note_on,20,0,0,,12,,,71,127
33176,note_off,20,0,0,,0,,,72,127
33196,note_off,20,0,0,,7,,,67,127
33196,note_on,0,0,0,,5,,,65,127
33317,note_off,121,0,0,,5,,,65,127
33317,note_on,0,0,0,,3,,,63,127
33337,note_off,20,0,0,,12,,,71,127
33438,note_off,101,0,0,,3,,,63,127
33438,note_on,0,0,0,,2,,,62,127
33559,note_off,121,0,0,,2,,,62,127
33559,note_on,0,0,0,,0,,,60,127
33680,note_on,121,0,0,,7,,,79,127
33801,note_off,121,0,0,,7,,,79,127
33801,note_off,0,0,0,,0,,,60,127
33801,note_on,0,0,0,,0,,,72,127
33801,note_on,0,0,0,,8,,,80,127
33801,note_on,0,0,0,,11,,,82,127
33922,note_off,121,0,0,,11,,,82,127
33922,note_off,0,0,0,,8,,,80,127
33922,note_on,0,0,0,,7,,,79,127
34043,note_off,121,0,0,,7,,,79,127
34043,note_off,0,0,0,,0,,,72,127
34043,note_on,0,0,0,,11,,,70,127
34043,note_on,0,0,0,,8,,,80,127
34164,note_off,121,0,0,,8,,,80,127
34164,note_on,0,0,0,,7,,,79,127
34285,note_off,121,0,0,,11,,,70,127
34285,note_on,0,0,0,,8,,,68,127
34285,note_on,0,0,0,,0,,,72,127
34406,note_off,121,0,0,,7,,,79,127
34406,note_on,0,0,0,,4,,,76,127
34527,note_off,121,0,0,,4,,,76,127
34527,note_on,0,0,0,,7,,,79,127
34527,note_on,0,0,0,,5,,,77,127
34648,note_off,121,0,0,,5,,,77,127
34648,note_off,0,0,0,,7,,,79,127
34648,note_on,0,0,0,,4,,,76,127
34769,note_off,121,0,0,,4,,,76,127
34769,note_off,0,0,0,,0,,,72,127
34769,note_off,0,0,0,,8,,,68,127
34769,note_on,0,0,0,,11,,,70,127
34769,note_on,0,0,0,,7,,,67,127
34769,note_on,0,0,0,,5,,,77,127
34890,note_off,121,0,0,,5,,,77,127
34890,note_on,0,0,0,,4,,,76,127
35011,note_off,121,0,0,,4,,,76,127
35011,note_off,0,0,0,,7,,,67,127
35011,note_off,0,0,0,,11,,,70,127
35011,note_on,0,0,0,,5,,,65,127
35011,note_on,0,0,0,,0,,,72,127
35011,note_on,0,0,0,,5,,,77,127
35132,note_off,121,0,0,,5,,,77,127
35132,note_on,0,0,0,,7,,,79,127
35253,note_off,121,0,0,,7,,,79,127
35253,note_off,0,0,0,,0,,,72,127
35253,note_off,0,0,0,,5,,,65,127
35253,note_on,0,0,0,,7,,,67,127
35253,note_on,0,0,0,,5,,,77,127
35374,note_off,121,0,0,,5,,,77,127
35374,note_on,0,0,0,,3,,,75,127
35495,note_off,121,0,0,,3,,,75,127
35495,note_off,0,0,0,,7,,,67,127
35495,note_on,0,0,0,,8,,,68,127
35495,note_on,0,0,0,,2,,,74,127
35616,note_off,121,0,0,,2,,,74,127
35616,note_on,0,0,0,,0,,,72,127
35737,note_off,121,0,0,,0,,,72,127
35737,note_off,0,0,0,,8,,,68,127
35737,note_on,0,0,0,,7,,,67,127
35737,note_on,0,0,0,,12,,,71,127
35858,note_off,121,0,0,,12,,,71,127
35858,note_on,0,0,0,,2,,,74,127
35979,note_off,121,0,0,,2,,,74,127
35979,note_on,0,0,0,,12,,,71,127
36100,note_off,121,0,0,,12,,,71,127
36100,note_off,0,0,0,,7,,,67,127
36100,note_on,0,0,0,,7,,,67,127
36221,note_off,121,0,0,,7,,,67,127
36221,note_on,0,0,0,,2,,,62,127
36342,note_off,121,0,0,,2,,,62,127
36342,note_on,0,0,0,,12,,,59,127
36463,note_off,121,0,0,,12,,,59,127
36463,note_on,0,0,0,,7,,,55,127
36584,note_on,121,0,0,,5,,,77,127
36705,note_off,121,0,0,,5,,,77,127
36705,note_off,0,0,0,,7,,,55,127
36705,note_on,0,0,0,,3,,,75,127
36705,note_on,0,0,0,,2,,,62,127
36826,note_off,121,0,0,,3,,,75,127
36826,note_on,0,0,0,,2,,,74,127
36947,note_off,121,0,0,,2,,,74,127
36947,note_off,0,0,0,,2,,,62,127
36947,note_on,0,0,0,,0,,,72,127
36947,note_on,0,0,0,,5,,,65,127
37068,note_off,121,0,0,,0,,,72,127
37068,note_on,0,0,0,,12,,,71,127
37189,note_off,121,0,0,,12,,,71,127
37189,note_off,0,0,0,,5,,,65,127
37189,note_on,0,0,0,,0,,,72,127
37189,note_on,0,0,0,,3,,,63,127
37310,note_off,121,0,0,,3,,,63,127
37310,note_on,0,0,0,,2,,,62,127
37431,note_off,121,0,0,,2,,,62,127
37431,note_off,0,0,0,,0,,,72,127
37431,note_on,0,0,0,,0,,,72,127
37431,note_on,0,0,0,,0,,,60,127
37552,note_off,121,0,0,,0,,,60,127
37552,note_on,0,0,0,,12,,,59,127
37673,note_off,121,0,0,,12,,,59,127
37673,note_off,0,0,0,,0,,,72,127
37673,note_on,0,0,0,,0,,,72,127
37673,note_on,0,0,0,,0,,,60,127
37794,note_off,121,0,0,,0,,,60,127
37794,note_on,0,0,0,,8,,,56,127
37915,note_off,121,0,0,,8,,,56,127
37915,note_off,0,0,0,,0,,,72,127
37915,note_on,0,0,0,,7,,,55,127
38036,note_on,121,0,0,,5,,,77,127
38157,note_off,121,0,0,,5,,,77,127
38157,note_off,0,0,0,,7,,,55,127
38157,note_on,0,0,0,,3,,,75,127
38157,note_on,0,0,0,,2,,,62,127
38278,note_off,121,0,0,,3,,,75,127
38278,note_on,0,0,0,,2,,,74,127
38399,note_off,121,0,0,,2,,,74,127
38399,note_off,0,0,0,,2,,,62,127
38399,note_on,0,0,0,,0,,,72,127
38399,note_on,0,0,0,,5,,,65,127
38520,note_off,121,0,0,,0,,,72,127
38520,note_on,0,0,0,,12,,,71,127
38641,note_off,121,0,0,,12,,,71,127
38641,note_off,0,0,0,,5,,,65,127
38641,note_on,0,0,0,,0,,,72,127
38641,note_on,0,0,0,,3,,,63,127
38762,note_off,121,0,0,,3,,,63,127
38762,note_on,0,0,0,,2,,,62,127
38883,note_off,121,0,0,,2,,,62,127
38883,note_off,0,0,0,,0,,,72,127
38883,note_on,0,0,0,,0,,,72,127
38883,note_on,0,0,0,,0,,,60,127
39004,note_off,121,0,0,,0,,,60,127
39004,note_on,0,0,0,,12,,,59,127
39125,note_off,121,0,0,,12,,,59,127
39125,note_off,0,0,0,,0,,,72,127
39125,note_on,0,0,0,,0,,,72,127
39125,note_on,0,0,0,,0,,,60,127
39246,note_off,121,0,0,,0,,,60,127
39246,note_on,0,0,0,,8,,,56,127
39367,note_off,121,0,0,,8,,,56,127
39367,note_off,0,0,0,,0,,,72,127
39367,note_on,0,0,0,,7,,,55,127
39488,note_on,121,0,0,,8,,,80,127
39609,note_off,121,0,0,,8,,,80,127
39609,note_off,0,0,0,,7,,,55,127
39609,note_on,0,0,0,,7,,,79,127
39609,note_on,0,0,0,,2,,,62,127
39730,note_off,121,0,0,,7,,,79,127
39730,note_on,0,0,0,,5,,,77,127
39851,note_off,121,0,0,,5,,,77,127
39851,note_off,0,0,0,,2,,,62,127
39851,note_on,0,0,0,,3,,,75,127
39851,note_on,0,0,0,,5,,,65,127
39972,note_off,121,0,0,,3,,,75,127
39972,note_on,0,0,0,,2,,,74,127
40093,note_off,121,0,0,,2,,,74,127
40093,note_off,0,0,0,,5,,,65,127
40093,note_on,0,0,0,,0,,,72,127
40093,note_on,0,0,0,,3,,,63,127
40214,note_off,121,0,0,,3,,,63,127
40214,note_on,0,0,0,,2,,,62,127
40335,note_off,121,0,0,,2,,,62,127
40335,note_on,0,0,0,,3,,,63,127
40456,note_off,121,0,0,,3,,,63,127
40456,note_off,0,0,0,,0,,,72,127
40456,note_on,0,0,0,,2,,,74,127
40456,note_on,0,0,0,,5,,,65,127
40577,note_off,121,0,0,,5,,,65,127
40577,note_off,0,0,0,,2,,,74,127
40577,note_on,0,0,0,,3,,,75,127
40577,note_on,0,0,0,,7,,,67,127
40698,note_off,121,0,0,,7,,,67,127
40698,note_on,0,0,0,,0,,,60,127
40759,note_off,61,0,0,,3,,,75,127
40820,note_off,61,0,0,,0,,,60,127
40820,note_on,0,0,0,,5,,,53,127
40820,note_on,0,0,0,,2,,,62,127
40941,note_off,121,0,0,,2,,,62,127
40941,note_on,0,0,0,,5,,,65,127
41062,note_off,121,0,0,,5,,,65,127
41062,note_off,0,0,0,,5,,,53,127
41062,note_on,0,0,0,,7,,,55,127
41062,note_on,0,0,0,,3,,,63,127
41183,note_off,121,0,0,,3,,,63,127
41183,note_on,0,0,0,,2,,,62,127
41304,note_off,121,0,0,,2,,,62,127
41304,note_on,0,0,0,,7,,,43,127
41304,note_on,0,0,0,,0,,,60,127
41425,note_off,121,0,0,,0,,,60,127
41425,note_on,0,0,0,,12,,,59,127
41546,note_off,121,0,0,,12,,,59,127
41546,note_off,0,0,0,,7,,,43,127
41546,note_off,0,0,0,,7,,,55,127
41546,note_on,0,0,0,,0,,,48,127
41546,note_on,0,0,0,,12,,,59,127
41789,note_off,243,0,0,,12,,,59,127
41789,note_on,0,0,0,,0,,,60,127
42229,note_off,440,0,0,,0,,,48,127
42274,note_off,45,0,0,,0,,,60,127
42274,note_on,0,0,0,,7,,,55,127
42395,note_on,121,0,0,,5,,,77,127
42516,note_off,121,0,0,,5,,,77,127
42516,note_off,0,0,0,,7,,,55,127
42516,note_on,0,0,0,,3,,,75,127
42516,note_on,0,0,0,,2,,,62,127
42637,note_off,121,0,0,,3,,,75,127
42637,note_on,0,0,0,,2,,,74,127
42758,note_off,121,0,0,,2,,,74,127
42758,note_off,0,0,0,,2,,,62,127
42758,note_on,0,0,0,,0,,,72,127
42758,note_on,0,0,0,,5,,,65,127
42879,note_off,121,0,0,,0,,,72,127
42879,note_on,0,0,0,,12,,,71,127
43000,note_off,121,0,0,,12,,,71,127
43000,note_off,0,0,0,,5,,,65,127
43000,note_on,0,0,0,,0,,,72,127
43000,note_on,0,0,0,,3,,,63,127
43121,note_off,121,0,0,,3,,,63,127
43121,note_on,0,0,0,,2,,,62,127
43242,note_off,121,0,0,,2,,,62,127
43242,note_off,0,0,0,,0,,,72,127
43242,note_on,0,0,0,,0,,,72,127
43242,note_on,0,0,0,,0,,,60,127
43363,note_off,121,0,0,,0,,,60,127
43363,note_on,0,0,0,,12,,,59,127
43484,note_off,121,0,0,,12,,,59,127
43484,note_off,0,0,0,,0,,,72,127
43484,note_on,0,0,0,,0,,,72,127
43484,note_on,0,0,0,,0,,,60,127
43605,note_off,121,0,0,,0,,,60,127
43605,note_on,0,0,0,,8,,,56,127
43726,note_off,121,0,0,,8,,,56,127
43726,note_off,0,0,0,,0,,,72,127
43726,note_on,0,0,0,,7,,,55,127
43847,note_on,121,0,0,,5,,,77,127
43968,note_off,121,0,0,,5,,,77,127
43968,note_off,0,0,0,,7,,,55,127
43968,note_on,0,0,0,,3,,,75,127
43968,note_on,0,0,0,,2,,,62,127
44089,note_off,121,0,0,,3,,,75,127
44089,note_on,0,0,0,,2,,,74,127
44210,note_off,121,0,0,,2,,,74,127
44210,note_off,0,0,0,,2,,,62,127
44210,note_on,0,0,0,,0,,,72,127
44210,note_on,0,0,0,,5,,,65,127
44331,note_off,121,0,0,,0,,,72,127
44331,note_on,0,0,0,,12,,,71,127
44452,note_off,121,0,0,,12,,,71,127
44452,note_off,0,0,0,,5,,,65,127
44452,note_on,0,0,0,,0,,,72,127
44452,note_on,0,0,0,,3,,,63,127
44573,note_off,121,0,0,,3,,,63,127
44573,note_on,0,0,0,,2,,,62,127
44694,note_off,121,0,0,,2,,,62,127
44694,note_off,0,0,0,,0,,,72,127
44694,note_on,0,0,0,,0,,,72,127
44694,note_on,0,0,0,,0,,,60,127
44815,note_off,121,0,0,,0,,,60,127
44815,note_on,0,0,0,,12,,,59,127
44936,note_off,121,0,0,,12,,,59,127
44936,note_off,0,0,0,,0,,,72,127
44936,note_on,0,0,0,,0,,,72,127
44936,note_on,0,0,0,,0,,,60,127
45057,note_off,121,0,0,,0,,,60,127
45057,note_on,0,0,0,,8,,,56,127
45178,note_off,121,0,0,,8,,,56,127
45178,note_on,0,0,0,,7,,,55,127
45299,note_off,121,0,0,,0,,,72,127
45299,note_on,0,0,0,,8,,,80,127
45420,note_off,121,0,0,,8,,,80,127
45420,note_off,0,0,0,,7,,,55,127
45420,note_on,0,0,0,,7,,,79,127
45420,note_on,0,0,0,,2,,,62,127
45541,note_off,121,0,0,,7,,,79,127
45541,note_on,0,0,0,,5,,,77,127
45662,note_off,121,0,0,,5,,,77,127
45662,note_off,0,0,0,,2,,,62,127
45662,note_on,0,0,0,,3,,,75,127
45662,note_on,0,0,0,,5,,,65,127
45783,note_off,121,0,0,,3,,,75,127
45783,note_on,0,0,0,,2,,,74,127
45904,note_off,121,0,0,,2,,,74,127
45904,note_off,0,0,0,,5,,,65,127
45904,note_on,0,0,0,,0,,,72,127
45904,note_on,0,0,0,,3,,,63,127
46025,note_off,121,0,0,,3,,,63,127
46025,note_on,0,0,0,,2,,,62,127
46146,note_off,121,0,0,,2,,,62,127
46146,note_on,0,0,0,,3,,,63,127
46267,note_off,121,0,0,,3,,,63,127
46267,note_off,0,0,0,,0,,,72,127
46267,note_on,0,0,0,,2,,,74,127
46267,note_on,0,0,0,,5,,,65,127
46388,note_off,121,0,0,,5,,,65,127
46388,note_off,0,0,0,,2,,,74,127
46388,note_on,0,0,0,,3,,,75,127
46388,note_on,0,0,0,,7,,,67,127
46509,note_off,121,0,0,,7,,,67,127
46509,note_on,0,0,0,,0,,,60,127
46630,note_off,121,0,0,,0,,,60,127
46630,note_off,0,0,0,,3,,,75,127
46630,note_on,0,0,0,,5,,,53,127
46630,note_on,0,0,0,,2,,,62,127
46751,note_off,121,0,0,,2,,,62,127
46751,note_on,0,0,0,,5,,,65,127
46872,note_off,121,0,0,,5,,,65,127
46872,note_off,0,0,0,,5,,,53,127
46872,note_on,0,0,0,,7,,,55,127
46872,note_on,0,0,0,,3,,,63,127
46993,note_off,121,0,0,,3,,,63,127
46993,note_on,0,0,0,,2,,,62,127
47114,note_off,121,0,0,,2,,,62,127
47114,note_on,0,0,0,,7,,,43,127
47114,note_on,0,0,0,,0,,,60,127
47235,note_off,121,0,0,,0,,,60,127
47235,note_on,0,0,0,,12,,,59,127
47326,note_off,91,0,0,,12,,,59,127
47356,note_off,30,0,0,,7,,,43,127
47356,note_off,0,0,0,,7,,,55,127
47356,note_on,0,0,0,,0,,,48,127
47477,note_on,121,0,0,,7,,,67,127
47598,note_on,121,0,0,,4,,,76,127
47719,note_off,121,0,0,,0,,,48,127
47719,note_on,0,0,0,,0,,,60,127
47840,note_off,121,0,0,,0,,,60,127
47840,note_on,0,0,0,,7,,,55,127
47961,note_off,121,0,0,,7,,,55,127
47961,note_on,0,0,0,,4,,,52,127
48082,note_off,121,0,0,,4,,,52,127
48082,note_on,0,0,0,,0,,,48,127
48203,note_off,121,0,0,,4,,,76,127
48203,note_off,0,0,0,,7,,,67,127
48203,note_on,0,0,0,,5,,,77,127
48203,note_on,0,0,0,,10,,,69,127
48324,note_off,121,0,0,,10,,,69,127
48324,note_off,0,0,0,,5,,,77,127
48324,note_on,0,0,0,,4,,,76,127
48324,note_on,0,0,0,,7,,,67,127
48445,note_off,121,0,0,,0,,,48,127
48445,note_on,0,0,0,,0,,,60,127
48566,note_off,121,0,0,,0,,,60,127
48566,note_off,0,0,0,,7,,,67,127
48566,note_off,0,0,0,,4,,,76,127
48566,note_on,0,0,0,,7,,,55,127
48566,note_on,0,0,0,,7,,,67,127
48566,note_on,0,0,0,,4,,,76,127
48687,note_off,121,0,0,,7,,,55,127
48687,note_on,0,0,0,,4,,,52,127
48808,note_off,121,0,0,,4,,,52,127
48808,note_on,0,0,0,,0,,,48,127
48929,note_off,121,0,0,,4,,,76,127
48929,note_off,0,0,0,,7,,,67,127
48929,note_on,0,0,0,,5,,,77,127
48929,note_on,0,0,0,,2,,,74,127
49050,note_off,121,0,0,,2,,,74,127
49050,note_off,0,0,0,,5,,,77,127
49050,note_on,0,0,0,,7,,,79,127
49050,note_on,0,0,0,,4,,,76,127
49171,note_off,121,0,0,,0,,,48,127
49171,note_on,0,0,0,,4,,,64,127
49292,note_off,121,0,0,,4,,,64,127
49292,note_off,0,0,0,,4,,,76,127
49292,note_off,0,0,0,,7,,,79,127
49292,note_on,0,0,0,,0,,,60,127
49292,note_on,0,0,0,,4,,,76,127
49292,note_on,0,0,0,,7,,,79,127
49413,note_off,121,0,0,,0,,,60,127
49413,note_on,0,0,0,,7,,,55,127
49534,note_off,121,0,0,,7,,,55,127
49534,note_on,0,0,0,,4,,,52,127
49655,note_off,121,0,0,,7,,,79,127
49655,note_off,0,0,0,,4,,,76,127
49655,note_on,0,0,0,,10,,,81,127
49655,note_on,0,0,0,,5,,,77,127
49776,note_off,121,0,0,,5,,,77,127
49776,note_off,0,0,0,,10,,,81,127
49776,note_on,0,0,0,,7,,,79,127
49776,note_on,0,0,0,,4,,,76,127
49897,note_off,121,0,0,,4,,,52,127
49897,note_on,0,0,0,,4,,,64,127
50018,note_off,121,0,0,,4,,,64,127
50018,note_off,0,0,0,,4,,,76,127
50018,note_off,0,0,0,,7,,,79,127
50018,note_on,0,0,0,,0,,,60,127
50018,note_on,0,0,0,,7,,,79,127
50018,note_on,0,0,0,,4,,,76,127
50139,note_off,121,0,0,,0,,,60,127
50139,note_on,0,0,0,,7,,,55,127
50260,note_off,121,0,0,,7,,,55,127
50260,note_on,0,0,0,,4,,,52,127
50381,note_off,121,0,0,,4,,,76,127
50381,note_off,0,0,0,,7,,,79,127
50381,note_on,0,0,0,,10,,,81,127
50381,note_on,0,0,0,,5,,,77,127
50502,note_off,121,0,0,,5,,,77,127
50502,note_off,0,0,0,,10,,,81,127
50502,note_on,0,0,0,,7,,,79,127
50502,note_on,0,0,0,,4,,,76,127
50623,note_off,121,0,0,,4,,,52,127
50623,note_on,0,0,0,,7,,,55,127
50744,note_off,121,0,0,,7,,,55,127
50744,note_off,0,0,0,,4,,,76,127
50744,note_off,0,0,0,,7,,,79,127
50744,note_on,0,0,0,,4,,,52,127
50744,note_on,0,0,0,,4,,,76,127
50744,note_on,0,0,0,,7,,,79,127
50865,note_off,121,0,0,,4,,,52,127
50865,note_on,0,0,0,,0,,,48,127
50986,note_off,121,0,0,,0,,,48,127
50986,note_on,0,0,0,,5,,,53,127
51107,note_off,121,0,0,,7,,,79,127
51107,note_off,0,0,0,,4,,,76,127
51107,note_on,0,0,0,,5,,,77,127
51107,note_on,0,0,0,,10,,,69,127
51228,note_off,121,0,0,,10,,,69,127
51228,note_off,0,0,0,,5,,,77,127
51228,note_off,0,0,0,,5,,,53,127
51228,note_on,0,0,0,,7,,,55,127
51228,note_on,0,0,0,,7,,,67,127
51228,note_on,0,0,0,,4,,,76,127
51349,note_off,121,0,0,,4,,,76,127
51349,note_off,0,0,0,,7,,,67,127
51349,note_on,0,0,0,,2,,,74,127
51349,note_on,0,0,0,,5,,,65,127
51470,note_off,121,0,0,,5,,,65,127
51470,note_off,0,0,0,,2,,,74,127
51470,note_off,0,0,0,,7,,,55,127
51470,note_on,0,0,0,,7,,,55,127
51470,note_on,0,0,0,,4,,,64,127
51470,note_on,0,0,0,,0,,,72,127
51591,note_off,121,0,0,,0,,,72,127
51591,note_off,0,0,0,,4,,,64,127
51591,note_on,0,0,0,,2,,,62,127
51591,note_on,0,0,0,,12,,,71,127
51712,note_off,121,0,0,,12,,,71,127
51712,note_off,0,0,0,,2,,,62,127
51712,note_off,0,0,0,,7,,,55,127
51712,note_on,0,0,0,,0,,,48,127
51712,note_on,0,0,0,,0,,,72,127
51712,note_on,0,0,0,,4,,,64,127
51833,note_off,121,0,0,,4,,,64,127
51833,note_off,0,0,0,,0,,,72,127
51833,note_on,0,0,0,,5,,,65,127
51833,note_on,0,0,0,,2,,,74,127
51954,note_off,121,0,0,,2,,,74,127
51954,note_off,0,0,0,,5,,,65,127
51954,note_on,0,0,0,,7,,,67,127
51954,note_on,0,0,0,,4,,,76,127
52075,note_off,121,0,0,,0,,,48,127
52075,note_on,0,0,0,,0,,,60,127
52196,note_off,121,0,0,,0,,,60,127
52196,note_off,0,0,0,,4,,,76,127
52196,note_off,0,0,0,,7,,,67,127
52196,note_on,0,0,0,,7,,,55,127
52196,note_on,0,0,0,,7,,,67,127
52196,note_on,0,0,0,,4,,,76,127
52317,note_off,121,0,0,,7,,,55,127
52317,note_on,0,0,0,,4,,,52,127
52438,note_off,121,0,0,,4,,,52,127
52438,note_on,0,0,0,,0,,,48,127
52559,note_off,121,0,0,,4,,,76,127
52559,note_off,0,0,0,,7,,,67,127
52559,note_on,0,0,0,,5,,,77,127
52559,note_on,0,0,0,,10,,,69,127
52680,note_off,121,0,0,,10,,,69,127
52680,note_off,0,0,0,,5,,,77,127
52680,note_on,0,0,0,,7,,,67,127
52680,note_on,0,0,0,,4,,,76,127
52801,note_off,121,0,0,,0,,,48,127
52801,note_on,0,0,0,,0,,,60,127
52922,note_off,121,0,0,,0,,,60,127
52922,note_off,0,0,0,,4,,,76,127
52922,note_off,0,0,0,,7,,,67,127
52922,note_on,0,0,0,,7,,,55,127
52922,note_on,0,0,0,,4,,,76,127
52922,note_on,0,0,0,,7,,,67,127
53043,note_off,121,0,0,,7,,,55,127
53043,note_on,0,0,0,,4,,,52,127
53164,note_off,121,0,0,,4,,,52,127
53164,note_on,0,0,0,,0,,,48,127
53285,note_off,121,0,0,,7,,,67,127
53285,note_off,0,0,0,,4,,,76,127
53285,note_on,0,0,0,,2,,,74,127
53285,note_on,0,0,0,,5,,,77,127
53406,note_off,121,0,0,,5,,,77,127
53406,note_off,0,0,0,,2,,,74,127
53406,note_on,0,0,0,,7,,,79,127
53406,note_on,0,0,0,,4,,,76,127
53527,note_off,121,0,0,,0,,,48,127
53527,note_on,0,0,0,,4,,,64,127
53648,note_off,121,0,0,,4,,,64,127
53648,note_off,0,0,0,,4,,,76,127
53648,note_off,0,0,0,,7,,,79,127
53648,note_on,0,0,0,,0,,,60,127
53648,note_on,0,0,0,,7,,,79,127
53648,note_on,0,0,0,,4,,,76,127
53769,note_off,121,0,0,,0,,,60,127
53769,note_on,0,0,0,,7,,,55,127
53890,note_off,121,0,0,,7,,,55,127
53890,note_on,0,0,0,,4,,,52,127
54011,note_off,121,0,0,,4,,,76,127
54011,note_off,0,0,0,,7,,,79,127
54011,note_on,0,0,0,,10,,,81,127
54011,note_on,0,0,0,,5,,,77,127
54132,note_off,121,0,0,,5,,,77,127
54132,note_off,0,0,0,,10,,,81,127
54132,note_on,0,0,0,,4,,,76,127
54132,note_on,0,0,0,,7,,,79,127
54253,note_off,121,0,0,,4,,,52,127
54253,note_on,0,0,0,,4,,,64,127
54374,note_off,121,0,0,,4,,,64,127
54374,note_off,0,0,0,,7,,,79,127
54374,note_off,0,0,0,,4,,,76,127
54374,note_on,0,0,0,,0,,,60,127
54374,note_on,0,0,0,,7,,,79,127
54374,note_on,0,0,0,,4,,,76,127
54495,note_off,121,0,0,,0,,,60,127
54495,note_on,0,0,0,,7,,,55,127
54616,note_off,121,0,0,,7,,,55,127
54616,note_on,0,0,0,,4,,,52,127
54737,note_off,121,0,0,,4,,,76,127
54737,note_off,0,0,0,,7,,,79,127
54737,note_on,0,0,0,,10,,,81,127
54737,note_on,0,0,0,,5,,,77,127
54858,note_off,121,0,0,,5,,,77,127
54858,note_off,0,0,0,,10,,,81,127
54858,note_on,0,0,0,,4,,,76,127
54858,note_on,0,0,0,,7,,,79,127
54979,note_off,121,0,0,,4,,,52,127
54979,note_on,0,0,0,,7,,,55,127
55100,note_off,121,0,0,,7,,,55,127
55100,note_off,0,0,0,,7,,,79,127
55100,note_off,0,0,0,,4,,,76,127
55100,note_on,0,0,0,,4,,,52,127
55100,note_on,0,0,0,,7,,,79,127
55100,note_on,0,0,0,,4,,,76,127
55221,note_off,121,0,0,,4,,,52,127
55221,note_on,0,0,0,,0,,,48,127
55342,note_off,121,0,0,,0,,,48,127
55342,note_on,0,0,0,,5,,,53,127
55463,note_off,121,0,0,,4,,,76,127
55463,note_off,0,0,0,,7,,,79,127
55463,note_on,0,0,0,,10,,,81,127
55463,note_on,0,0,0,,5,,,77,127
55584,note_off,121,0,0,,5,,,77,127
55584,note_off,0,0,0,,10,,,81,127
55584,note_off,0,0,0,,5,,,53,127
55584,note_on,0,0,0,,7,,,55,127
55584,note_on,0,0,0,,7,,,79,127
55584,note_on,0,0,0,,4,,,76,127
55705,note_off,121,0,0,,4,,,76,127
55705,note_off,0,0,0,,7,,,79,127
55705,note_on,0,0,0,,5,,,77,127
55705,note_on,0,0,0,,2,,,74,127
55826,note_off,121,0,0,,2,,,74,127
55826,note_off,0,0,0,,5,,,77,127
55826,note_off,0,0,0,,7,,,55,127
55826,note_on,0,0,0,,7,,,55,127
55826,note_on,0,0,0,,4,,,76,127
55826,note_on,0,0,0,,0,,,72,127
55947,note_off,121,0,0,,0,,,72,127
55947,note_off,0,0,0,,4,,,76,127
55947,note_on,0,0,0,,2,,,74,127
55947,note_on,0,0,0,,12,,,71,127
56068,note_off,121,0,0,,12,,,71,127
56068,note_off,0,0,0,,2,,,74,127
56068,note_off,0,0,0,,7,,,55,127
56068,note_on,0,0,0,,0,,,60,127
56068,note_on,0,0,0,,4,,,76,127
56189,note_off,121,0,0,,4,,,76,127
56189,note_on,0,0,0,,0,,,72,127
56310,note_off,121,0,0,,0,,,72,127
56310,note_on,0,0,0,,0,,,48,127
56310,note_on,0,0,0,,7,,,79,127
56431,note_off,121,0,0,,0,,,48,127
56431,note_off,0,0,0,,0,,,60,127
56431,note_on,0,0,0,,2,,,50,127
56431,note_on,0,0,0,,0,,,72,127
56492,note_off,61,0,0,,7,,,79,127
56553,note_off,61,0,0,,0,,,72,127
56553,note_off,0,0,0,,2,,,50,127
56553,note_on,0,0,0,,4,,,52,127
56553,note_on,0,0,0,,0,,,84,127
56674,note_on,121,0,0,,0,,,72,127
56735,note_off,61,0,0,,0,,,84,127
56796,note_off,61,0,0,,0,,,72,127
56796,note_off,0,0,0,,4,,,52,127
56796,note_on,0,0,0,,5,,,53,127
56796,note_on,0,0,0,,0,,,72,127
56917,note_off,121,0,0,,0,,,72,127
56917,note_on,0,0,0,,2,,,74,127
57038,note_off,121,0,0,,2,,,74,127
57038,note_off,0,0,0,,5,,,53,127
57038,note_on,0,0,0,,7,,,55,127
57038,note_on,0,0,0,,4,,,76,127
57099,note_off,61,0,0,,4,,,76,127
57099,note_on,0,0,0,,2,,,74,127
57160,note_off,61,0,0,,2,,,74,127
57160,note_on,0,0,0,,4,,,76,127
57221,note_off,61,0,0,,4,,,76,127
57221,note_on,0,0,0,,2,,,74,127
57282,note_off,61,0,0,,2,,,74,127
57282,note_on,0,0,0,,7,,,43,127
57282,note_on,0,0,0,,4,,,76,127
57343,note_off,61,0,0,,4,,,76,127
57343,note_on,0,0,0,,2,,,74,127
57404,note_off,61,0,0,,2,,,74,127
57404,note_on,0,0,0,,0,,,72,127
57465,note_off,61,0,0,,0,,,72,127
57465,note_on,0,0,0,,2,,,74,127
57521,note_off,56,0,0,,7,,,55,127
57526,note_off,5,0,0,,2,,,74,127
57526,note_off,0,0,0,,7,,,43,127
57526,note_on,0,0,0,,0,,,48,127
57526,note_on,0,0,0,,4,,,76,127
57647,note_on,121,0,0,,0,,,72,127
57708,note_off,61,0,0,,4,,,76,127
57769,note_off,61,0,0,,0,,,72,127
57769,note_on,0,0,0,,7,,,79,127
57890,note_off,121,0,0,,0,,,48,127
57890,note_on,0,0,0,,2,,,50,127
57890,note_on,0,0,0,,0,,,72,127
57951,note_off,61,0,0,,7,,,79,127
58012,note_off,61,0,0,,0,,,72,127
58012,note_off,0,0,0,,2,,,50,127
58012,note_on,0,0,0,,4,,,52,127
58012,note_on,0,0,0,,0,,,84,127
58133,note_on,121,0,0,,0,,,72,127
58194,note_off,61,0,0,,0,,,84,127
58255,note_off,61,0,0,,0,,,72,127
58255,note_off,0,0,0,,4,,,52,127
58255,note_on,0,0,0,,5,,,53,127
58255,note_on,0,0,0,,0,,,72,127
58376,note_off,121,0,0,,0,,,72,127
58376,note_on,0,0,0,,5,,,77,127
58497,note_off,121,0,0,,5,,,77,127
58497,note_off,0,0,0,,5,,,53,127
58497,note_on,0,0,0,,7,,,55,127
58497,note_on,0,0,0,,4,,,76,127
58558,note_off,61,0,0,,4,,,76,127
58558,note_on,0,0,0,,2,,,74,127
58619,note_off,61,0,0,,2,,,74,127
58619,note_on,0,0,0,,4,,,76,127
58680,note_off,61,0,0,,4,,,76,127
58680,note_on,0,0,0,,2,,,74,127
58741,note_off,61,0,0,,2,,,74,127
58741,note_on,0,0,0,,7,,,43,127
58741,note_on,0,0,0,,4,,,76,127
58802,note_off,61,0,0,,4,,,76,127
58802,note_on,0,0,0,,2,,,74,127
58863,note_off,61,0,0,,2,,,74,127
58863,note_on,0,0,0,,0,,,72,127
58924,note_off,61,0,0,,0,,,72,127
58924,note_on,0,0,0,,2,,,74,127
58980,note_off,56,0,0,,7,,,55,127
58985,note_off,5,0,0,,2,,,74,127
58985,note_off,0,0,0,,7,,,43,127
58985,note_on,0,0,0,,0,,,48,127
58985,note_on,0,0,0,,0,,,72,127
59470,note_off,485,0,0,,0,,,72,127
59713,note_off,243,0,0,,0,,,48,127
59713,note_on,0,0,0,,0,,,72,127
59956,note_off,243,0,0,,0,,,72,127
59956,note_on,0,0,0,,0,,,72,127
60199,note_off,243,0,0,,0,,,72,127
60199,note_on,0,0,0,,0,,,72,127
60442,note_off,243,0,0,,0,,,72,127
60442,note_on,0,0,0,,11,,,82,127
60563,note_off,121,0,0,,11,,,82,127
60563,note_on,0,0,0,,7,,,79,127
60684,note_off,121,0,0,,7,,,79,127
60684,note_on,0,0,0,,4,,,76,127
60805,note_off,121,0,0,,4,,,76,127
60805,note_on,0,0,0,,1,,,73,127
60926,note_off,121,0,0,,1,,,73,127
60926,note_on,0,0,0,,0,,,72,127
61047,note_off,121,0,0,,0,,,72,127
61047,note_on,0,0,0,,11,,,70,127
61168,note_on,121,0,0,,0,,,60,127
61289,note_off,121,0,0,,11,,,70,127
61289,note_on,0,0,0,,1,,,73,127
61410,note_off,121,0,0,,1,,,73,127
61410,note_off,0,0,0,,0,,,60,127
61410,note_on,0,0,0,,0,,,60,127
61410,note_on,0,0,0,,0,,,72,127
61531,note_off,121,0,0,,0,,,72,127
61531,note_on,0,0,0,,11,,,70,127
61652,note_off,121,0,0,,11,,,70,127
61652,note_off,0,0,0,,0,,,60,127
61652,note_on,0,0,0,,0,,,60,127
61652,note_on,0,0,0,,8,,,68,127
61773,note_off,121,0,0,,8,,,68,127
61773,note_on,0,0,0,,7,,,67,127
61894,note_off,121,0,0,,7,,,67,127
61894,note_off,0,0,0,,0,,,60,127
61894,note_on,0,0,0,,5,,,65,127
61894,note_on,0,0,0,,0,,,72,127
62015,note_off,121,0,0,,0,,,72,127
62015,note_on,0,0,0,,8,,,68,127
62136,note_off,121,0,0,,8,,,68,127
62136,note_off,0,0,0,,5,,,65,127
62136,note_on,0,0,0,,5,,,65,127
62136,note_on,0,0,0,,11,,,70,127
62257,note_off,121,0,0,,11,,,70,127
62257,note_on,0,0,0,,7,,,67,127
62378,note_off,121,0,0,,7,,,67,127
62378,note_off,0,0,0,,5,,,65,127
62378,note_on,0,0,0,,5,,,65,127
62378,note_on,0,0,0,,4,,,76,127
62621,note_off,243,0,0,,5,,,65,127
62621,note_on,0,0,0,,11,,,58,127
62742,note_off,121,0,0,,4,,,76,127
62742,note_on,0,0,0,,5,,,77,127
62863,note_off,121,0,0,,5,,,77,127
62863,note_off,0,0,0,,11,,,58,127
62863,note_on,0,0,0,,0,,,60,127
62863,note_on,0,0,0,,1,,,73,127
62984,note_off,121,0,0,,1,,,73,127
62984,note_on,0,0,0,,11,,,70,127
63105,note_off,121,0,0,,11,,,70,127
63105,note_off,0,0,0,,0,,,60,127
63105,note_on,0,0,0,,4,,,64,127
63105,note_on,0,0,0,,0,,,72,127
63226,note_off,121,0,0,,0,,,72,127
63226,note_on,0,0,0,,7,,,67,127
63347,note_off,121,0,0,,7,,,67,127
63347,note_off,0,0,0,,4,,,64,127
63347,note_on,0,0,0,,5,,,65,127
63347,note_on,0,0,0,,0,,,72,127
63468,note_off,121,0,0,,0,,,72,127
63468,note_on,0,0,0,,8,,,68,127
63589,note_off,121,0,0,,8,,,68,127
63589,note_off,0,0,0,,5,,,65,127
63589,note_on,0,0,0,,5,,,65,127
63589,note_on,0,0,0,,11,,,70,127
63710,note_off,121,0,0,,11,,,70,127
63710,note_on,0,0,0,,7,,,67,127
63831,note_off,121,0,0,,7,,,67,127
63831,note_off,0,0,0,,5,,,65,127
63831,note_on,0,0,0,,5,,,65,127
63831,note_on,0,0,0,,4,,,76,127
64074,note_off,243,0,0,,5,,,65,127
64074,note_on,0,0,0,,11,,,58,127
64195,note_off,121,0,0,,4,,,76,127
64195,note_on,0,0,0,,5,,,77,127
64316,note_off,121,0,0,,5,,,77,127
64316,note_off,0,0,0,,11,,,58,127
64316,note_on,0,0,0,,0,,,60,127
64316,note_on,0,0,0,,1,,,73,127
64437,note_off,121,0,0,,1,,,73,127
64437,note_on,0,0,0,,11,,,70,127
64558,note_off,121,0,0,,11,,,70,127
64558,note_off,0,0,0,,0,,,60,127
64558,note_on,0,0,0,,4,,,64,127
64558,note_on,0,0,0,,0,,,72,127
64679,note_off,121,0,0,,0,,,72,127
64679,note_on,0,0,0,,7,,,67,127
64800,note_off,121,0,0,,7,,,67,127
64800,note_off,0,0,0,,4,,,64,127
64800,note_on,0,0,0,,5,,,53,127
64800,note_on,0,0,0,,8,,,68,127
64861,note_off,61,0,0,,8,,,68,127
64861,note_on,0,0,0,,7,,,67,127
64922,note_off,61,0,0,,7,,,67,127
64922,note_on,0,0,0,,8,,,68,127
65043,note_on,121,0,0,,5,,,65,127
65164,note_off,121,0,0,,8,,,68,127
65164,note_on,0,0,0,,7,,,67,127
65285,note_off,121,0,0,,7,,,67,127
65285,note_off,0,0,0,,5,,,65,127
65285,note_on,0,0,0,,5,,,65,127
65406,note_off,121,0,0,,5,,,53,127
65525,note_off,119,0,0,,5,,,65,127
65528,note_on,3,0,0,,5,,,65,127
65649,note_on,121,0,0,,0,,,72,127
65770,note_off,121,0,0,,0,,,72,127
65770,note_on,0,0,0,,1,,,73,127
65891,note_off,121,0,0,,1,,,73,127
65891,note_on,0,0,0,,0,,,72,127
66012,note_off,121,0,0,,0,,,72,127
66012,note_off,0,0,0,,5,,,65,127
66012,note_on,0,0,0,,3,,,63,127
66012,note_on,0,0,0,,8,,,80,127
66133,note_off,121,0,0,,8,,,80,127
66133,note_on,0,0,0,,7,,,79,127
66254,note_off,121,0,0,,7,,,79,127
66254,note_off,0,0,0,,3,,,63,127
66254,note_on,0,0,0,,1,,,61,127
66254,note_on,0,0,0,,4,,,76,127
66375,note_off,121,0,0,,4,,,76,127
66375,note_on,0,0,0,,5,,,77,127
66496,note_on,121,0,0,,10,,,69,127
66557,note_off,61,0,0,,5,,,77,127
66618,note_off,61,0,0,,10,,,69,127
66618,note_on,0,0,0,,11,,,70,127
66739,note_off,121,0,0,,1,,,61,127
66739,note_on,0,0,0,,0,,,60,127
66739,note_on,0,0,0,,5,,,77,127
66800,note_off,61,0,0,,11,,,70,127
66861,note_off,61,0,0,,5,,,77,127
66861,note_on,0,0,0,,3,,,75,127
66982,note_off,121,0,0,,3,,,75,127
66982,note_off,0,0,0,,0,,,60,127
66982,note_on,0,0,0,,11,,,58,127
66982,note_on,0,0,0,,0,,,72,127
67103,note_off,121,0,0,,0,,,72,127
67103,note_on,0,0,0,,1,,,73,127
67224,note_on,121,0,0,,4,,,64,127
67285,note_off,61,0,0,,1,,,73,127
67346,note_off,61,0,0,,4,,,64,127
67346,note_on,0,0,0,,5,,,65,127
67467,note_off,121,0,0,,11,,,58,127
67467,note_on,0,0,0,,8,,,56,127
67467,note_on,0,0,0,,0,,,60,127
67467,note_on,0,0,0,,8,,,68,127
67528,note_off,61,0,0,,5,,,65,127
67589,note_off,61,0,0,,8,,,68,127
67589,note_on,0,0,0,,7,,,67,127
67710,note_off,121,0,0,,0,,,60,127
67710,note_off,0,0,0,,8,,,56,127
67710,note_on,0,0,0,,7,,,55,127
67710,note_on,0,0,0,,0,,,60,127
67710,note_on,0,0,0,,0,,,72,127
67710,note_on,0,0,0,,4,,,64,127
67771,note_off,61,0,0,,7,,,67,127
67832,note_off,61,0,0,,0,,,72,127
67832,note_on,0,0,0,,11,,,70,127
67953,note_off,121,0,0,,11,,,70,127
67953,note_off,0,0,0,,4,,,64,127
67953,note_off,0,0,0,,7,,,55,127
67953,note_on,0,0,0,,5,,,53,127
67953,note_on,0,0,0,,11,,,70,127
68014,note_off,61,0,0,,11,,,70,127
68014,note_on,0,0,0,,8,,,68,127
68075,note_off,61,0,0,,8,,,68,127
68075,note_on,0,0,0,,11,,,70,127
68136,note_off,61,0,0,,11,,,70,127
68136,note_on,0,0,0,,8,,,68,127
68197,note_off,61,0,0,,8,,,68,127
68197,note_off,0,0,0,,5,,,53,127
68197,note_on,0,0,0,,5,,,65,127
68197,note_on,0,0,0,,11,,,70,127
68258,note_off,61,0,0,,11,,,70,127
68258,note_on,0,0,0,,8,,,68,127
68319,note_off,61,0,0,,8,,,68,127
68319,note_on,0,0,0,,7,,,67,127
68380,note_off,61,0,0,,7,,,67,127
68380,note_on,0,0,0,,8,,,68,127
68441,note_off,61,0,0,,8,,,68,127
68441,note_off,0,0,0,,5,,,65,127
68441,note_off,0,0,0,,0,,,60,127
68441,note_on,0,0,0,,0,,,60,127
68441,note_on,0,0,0,,8,,,68,127
68562,note_off,121,0,0,,0,,,60,127
68562,note_on,0,0,0,,1,,,61,127
68683,note_off,121,0,0,,1,,,61,127
68683,note_off,0,0,0,,8,,,68,127
68683,note_on,0,0,0,,0,,,60,127
68683,note_on,0,0,0,,7,,,67,127
68804,note_off,121,0,0,,0,,,60,127
68804,note_on,0,0,0,,11,,,58,127
68925,note_off,121,0,0,,11,,,58,127
68925,note_on,0,0,0,,8,,,56,127
69046,note_off,121,0,0,,8,,,56,127
69046,note_off,0,0,0,,7,,,67,127
69046,note_on,0,0,0,,7,,,55,127
69167,note_off,121,0,0,,7,,,55,127
69167,note_on,0,0,0,,5,,,53,127
69167,note_on,0,0,0,,5,,,65,127
69288,note_on,121,0,0,,0,,,72,127
69409,note_off,121,0,0,,0,,,72,127
69409,note_on,0,0,0,,1,,,73,127
69530,note_off,121,0,0,,1,,,73,127
69530,note_on,0,0,0,,0,,,72,127
69651,note_off,121,0,0,,0,,,72,127
69651,note_off,0,0,0,,5,,,65,127
69651,note_off,0,0,0,,5,,,53,127
69651,note_on,0,0,0,,3,,,63,127
69651,note_on,0,0,0,,8,,,80,127
69772,note_off,121,0,0,,8,,,80,127
69772,note_on,0,0,0,,7,,,79,127
69893,note_off,121,0,0,,7,,,79,127
69893,note_off,0,0,0,,3,,,63,127
69893,note_on,0,0,0,,1,,,61,127
69893,note_on,0,0,0,,4,,,76,127
70014,note_off,121,0,0,,4,,,76,127
70014,note_on,0,0,0,,5,,,77,127
70135,note_on,121,0,0,,10,,,69,127
70254,note_off,119,0,0,,5,,,77,127
70257,note_off,3,0,0,,10,,,69,127
70257,note_on,0,0,0,,11,,,70,127
70378,note_off,121,0,0,,1,,,61,127
70378,note_on,0,0,0,,0,,,60,127
70378,note_on,0,0,0,,5,,,77,127
70497,note_off,119,0,0,,11,,,70,127
70500,note_off,3,0,0,,5,,,77,127
70500,note_on,0,0,0,,3,,,75,127
70621,note_off,121,0,0,,3,,,75,127
70621,note_off,0,0,0,,0,,,60,127
70621,note_on,0,0,0,,11,,,58,127
70621,note_on,0,0,0,,0,,,72,127
70742,note_off,121,0,0,,0,,,72,127
70742,note_on,0,0,0,,1,,,73,127
70863,note_on,121,0,0,,4,,,64,127
70982,note_off,119,0,0,,1,,,73,127
70985,note_off,3,0,0,,4,,,64,127
70985,note_on,0,0,0,,5,,,65,127
71106,note_off,121,0,0,,11,,,58,127
71106,note_on,0,0,0,,8,,,56,127
71106,note_on,0,0,0,,0,,,60,127
71106,note_on,0,0,0,,8,,,68,127
71167,note_off,61,0,0,,5,,,65,127
71228,note_off,61,0,0,,8,,,68,127
71228,note_on,0,0,0,,7,,,67,127
71349,note_off,121,0,0,,0,,,60,127
71349,note_off,0,0,0,,8,,,56,127
71349,note_on,0,0,0,,7,,,55,127
71349,note_on,0,0,0,,0,,,72,127
71349,note_on,0,0,0,,4,,,64,127
71349,note_on,0,0,0,,0,,,60,127
71410,note_off,61,0,0,,7,,,67,127
71471,note_off,61,0,0,,0,,,72,127
71471,note_on,0,0,0,,11,,,70,127
71592,note_off,121,0,0,,11,,,70,127
71592,note_off,0,0,0,,4,,,64,127
71592,note_off,0,0,0,,7,,,55,127
71592,note_on,0,0,0,,5,,,53,127
71592,note_on,0,0,0,,11,,,70,127
71653,note_off,61,0,0,,11,,,70,127
71653,note_on,0,0,0,,8,,,68,127
71714,note_off,61,0,0,,8,,,68,127
71714,note_on,0,0,0,,11,,,70,127
71775,note_off,61,0,0,,11,,,70,127
71775,note_on,0,0,0,,8,,,68,127
71836,note_off,61,0,0,,8,,,68,127
71836,note_off,0,0,0,,5,,,53,127
71836,note_on,0,0,0,,5,,,65,127
71836,note_on,0,0,0,,11,,,70,127
71897,note_off,61,0,0,,11,,,70,127
71897,note_on,0,0,0,,8,,,68,127
71958,note_off,61,0,0,,8,,,68,127
71958,note_on,0,0,0,,7,,,67,127
72019,note_off,61,0,0,,7,,,67,127
72019,note_on,0,0,0,,8,,,68,127
72080,note_off,61,0,0,,8,,,68,127
72080,note_off,0,0,0,,5,,,65,127
72080,note_off,0,0,0,,0,,,60,127
72080,note_on,0,0,0,,0,,,60,127
72080,note_on,0,0,0,,8,,,68,127
72201,note_off,121,0,0,,8,,,68,127
72201,note_on,0,0,0,,7,,,67,127
72262,note_off,61,0,0,,7,,,67,127
72262,note_on,0,0,0,,8,,,68,127
72323,note_off,61,0,0,,8,,,68,127
72323,note_off,0,0,0,,0,,,60,127
72323,note_on,0,0,0,,0,,,48,127
72323,note_on,0,0,0,,7,,,67,127
72384,note_off,61,0,0,,7,,,67,127
72384,note_on,0,0,0,,8,,,68,127
72445,note_off,61,0,0,,8,,,68,127
72445,note_on,0,0,0,,7,,,67,127
72506,note_off,61,0,0,,7,,,67,127
72506,note_on,0,0,0,,8,,,68,127
72567,note_off,61,0,0,,8,,,68,127
72567,note_on,0,0,0,,0,,,36,127
72567,note_on,0,0,0,,7,,,67,127
72749,note_off,182,0,0,,7,,,67,127
72805,note_off,56,0,0,,0,,,48,127
72810,note_off,5,0,0,,0,,,36,127
72810,note_on,0,0,0,,0,,,60,127
72810,note_on,0,0,0,,7,,,79,127
72931,note_off,121,0,0,,0,,,60,127
72931,note_on,0,0,0,,3,,,63,127
73052,note_off,121,0,0,,3,,,63,127
73052,note_off,0,0,0,,7,,,79,127
73052,note_on,0,0,0,,2,,,62,127
73052,note_on,0,0,0,,12,,,71,127
73173,note_off,121,0,0,,2,,,62,127
73173,note_on,0,0,0,,5,,,65,127
73294,note_off,121,0,0,,5,,,65,127
73294,note_off,0,0,0,,12,,,71,127
73294,note_on,0,0,0,,3,,,63,127
73294,note_on,0,0,0,,0,,,72,127
73537,note_off,243,0,0,,0,,,72,127
73537,note_off,0,0,0,,3,,,63,127
73537,note_on,0,0,0,,7,,,43,127
73537,note_on,0,0,0,,2,,,74,127
73780,note_off,243,0,0,,7,,,43,127
73780,note_on,0,0,0,,7,,,43,127
73901,note_off,121,0,0,,2,,,74,127
73901,note_on,0,0,0,,3,,,75,127
73962,note_off,61,0,0,,3,,,75,127
73962,note_on,0,0,0,,5,,,77,127
74023,note_off,61,0,0,,5,,,77,127
74023,note_off,0,0,0,,7,,,43,127
74023,note_on,0,0,0,,0,,,48,127
74023,note_on,0,0,0,,3,,,75,127
74266,note_off,243,0,0,,3,,,75,127
74266,note_off,0,0,0,,0,,,48,127
74266,note_on,0,0,0,,0,,,60,127
74266,note_on,0,0,0,,7,,,79,127
74387,note_off,121,0,0,,0,,,60,127
74387,note_on,0,0,0,,3,,,63,127
74508,note_off,121,0,0,,3,,,63,127
74508,note_off,0,0,0,,7,,,79,127
74508,note_on,0,0,0,,2,,,62,127
74508,note_on,0,0,0,,12,,,71,127
74629,note_off,121,0,0,,2,,,62,127
74629,note_on,0,0,0,,5,,,65,127
74750,note_off,121,0,0,,5,,,65,127
74750,note_off,0,0,0,,12,,,71,127
74750,note_on,0,0,0,,3,,,63,127
74750,note_on,0,0,0,,0,,,72,127
74993,note_off,243,0,0,,0,,,72,127
74993,note_off,0,0,0,,3,,,63,127
74993,note_on,0,0,0,,7,,,43,127
74993,note_on,0,0,0,,2,,,74,127
75236,note_off,243,0,0,,7,,,43,127
75236,note_on,0,0,0,,7,,,43,127
75357,note_off,121,0,0,,2,,,74,127
75357,note_on,0,0,0,,4,,,76,127
75418,note_off,61,0,0,,4,,,76,127
75418,note_on,0,0,0,,5,,,77,127
75479,note_off,61,0,0,,5,,,77,127
75479,note_off,0,0,0,,7,,,43,127
75479,note_on,0,0,0,,0,,,48,127
75479,note_on,0,0,0,,4,,,76,127
75661,note_off,182,0,0,,4,,,76,127
75722,note_off,61,0,0,,0,,,48,127
75722,note_on,0,0,0,,5,,,65,127
75722,note_on,0,0,0,,0,,,84,127
75843,note_off,121,0,0,,5,,,65,127
75843,note_on,0,0,0,,8,,,68,127
75964,note_off,121,0,0,,8,,,68,127
75964,note_off,0,0,0,,0,,,84,127
75964,note_on,0,0,0,,7,,,67,127
75964,note_on,0,0,0,,4,,,76,127
76085,note_off,121,0,0,,7,,,67,127
76085,note_on,0,0,0,,11,,,70,127
76206,note_off,121,0,0,,11,,,70,127
76206,note_off,0,0,0,,4,,,76,127
76206,note_on,0,0,0,,8,,,68,127
76206,note_on,0,0,0,,5,,,77,127
76449,note_off,243,0,0,,5,,,77,127
76449,note_off,0,0,0,,8,,,68,127
76449,note_on,0,0,0,,0,,,36,127
76449,note_on,0,0,0,,7,,,79,127
76692,note_off,243,0,0,,0,,,36,127
76692,note_on,0,0,0,,0,,,36,127
76813,note_off,121,0,0,,7,,,79,127
76813,note_on,0,0,0,,8,,,80,127
76874,note_off,61,0,0,,8,,,80,127
76874,note_on,0,0,0,,11,,,82,127
76935,note_off,61,0,0,,11,,,82,127
76935,note_off,0,0,0,,0,,,36,127
76935,note_on,0,0,0,,5,,,41,127
76935,note_on,0,0,0,,8,,,80,127
77178,note_off,243,0,0,,8,,,80,127
77178,note_off,0,0,0,,5,,,41,127
77178,note_on,0,0,0,,5,,,65,127
77178,note_on,0,0,0,,0,,,84,127
77299,note_off,121,0,0,,5,,,65,127
77299,note_on,0,0,0,,8,,,68,127
77420,note_off,121,0,0,,8,,,68,127
77420,note_off,0,0,0,,0,,,84,127
77420,note_on,0,0,0,,7,,,67,127
77420,note_on,0,0,0,,4,,,76,127
77541,note_off,121,0,0,,7,,,67,127
77541,note_on,0,0,0,,11,,,70,127
77662,note_off,121,0,0,,11,,,70,127
77662,note_off,0,0,0,,4,,,76,127
77662,note_on,0,0,0,,8,,,68,127
77662,note_on,0,0,0,,5,,,77,127
77905,note_off,243,0,0,,5,,,77,127
77905,note_off,0,0,0,,8,,,68,127
77905,note_on,0,0,0,,0,,,36,127
77905,note_on,0,0,0,,7,,,79,127
78148,note_off,243,0,0,,0,,,36,127
78148,note_on,0,0,0,,0,,,36,127
78269,note_off,121,0,0,,7,,,79,127
78269,note_on,0,0,0,,10,,,81,127
78330,note_off,61,0,0,,10,,,81,127
78330,note_on,0,0,0,,11,,,82,127
78391,note_off,61,0,0,,11,,,82,127
78391,note_off,0,0,0,,0,,,36,127
78391,note_on,0,0,0,,5,,,41,127
78391,note_on,0,0,0,,10,,,81,127
78573,note_off,182,0,0,,10,,,81,127
78634,note_off,61,0,0,,5,,,41,127
78634,note_on,0,0,0,,0,,,72,127
78634,note_on,0,0,0,,5,,,65,127
78755,note_on,121,0,0,,0,,,84,127
78816,note_off,61,0,0,,0,,,72,127
78877,note_off,61,0,0,,0,,,84,127
78877,note_off,0,0,0,,5,,,65,127
78877,note_on,0,0,0,,0,,,72,127
78877,note_on,0,0,0,,5,,,65,127
78877,note_on,0,0,0,,10,,,81,127
78998,note_off,121,0,0,,10,,,81,127
78998,note_on,0,0,0,,6,,,78,127
79059,note_off,61,0,0,,0,,,72,127
79120,note_off,61,0,0,,6,,,78,127
79120,note_off,0,0,0,,5,,,65,127
79120,note_on,0,0,0,,5,,,65,127
79120,note_on,0,0,0,,0,,,72,127
79120,note_on,0,0,0,,3,,,75,127
79239,note_off,119,0,0,,0,,,72,127
79242,note_off,3,0,0,,3,,,75,127
79242,note_on,0,0,0,,0,,,72,127
79363,note_off,121,0,0,,0,,,72,127
79363,note_off,0,0,0,,5,,,65,127
79363,note_on,0,0,0,,5,,,65,127
79363,note_on,0,0,0,,11,,,70,127
79363,note_on,0,0,0,,3,,,75,127
79403,note_on,40,0,0,,1,,,73,127
79423,note_off,20,0,0,,3,,,75,127
79443,note_on,20,0,0,,3,,,75,127
79463,note_off,20,0,0,,1,,,73,127
79483,note_on,20,0,0,,1,,,73,127
79503,note_off,20,0,0,,3,,,75,127
79604,note_off,101,0,0,,11,,,70,127
79604,note_off,0,0,0,,5,,,65,127
79604,note_on,0,0,0,,11,,,70,127
79604,note_on,0,0,0,,5,,,65,127
79725,note_off,121,0,0,,1,,,73,127
79725,note_on,0,0,0,,0,,,72,127
79846,note_off,121,0,0,,0,,,72,127
79846,note_off,0,0,0,,5,,,65,127
79846,note_off,0,0,0,,11,,,70,127
79846,note_on,0,0,0,,5,,,65,127
79846,note_on,0,0,0,,11,,,70,127
79846,note_on,0,0,0,,1,,,73,127
80089,note_off,243,0,0,,11,,,70,127
80089,note_off,0,0,0,,5,,,65,127
80089,note_on,0,0,0,,11,,,70,127
80089,note_on,0,0,0,,7,,,67,127
80089,note_on,0,0,0,,4,,,64,127
80210,note_off,121,0,0,,1,,,73,127
80210,note_on,0,0,0,,11,,,82,127
80331,note_off,121,0,0,,11,,,82,127
80331,note_off,0,0,0,,4,,,64,127
80331,note_off,0,0,0,,7,,,67,127
80331,note_off,0,0,0,,11,,,70,127
80331,note_on,0,0,0,,4,,,64,127
80331,note_on,0,0,0,,11,,,70,127
80331,note_on,0,0,0,,7,,,67,127
80331,note_on,0,0,0,,7,,,79,127
80452,note_off,121,0,0,,7,,,79,127
80452,note_on,0,0,0,,4,,,76,127
80573,note_off,121,0,0,,4,,,76,127
80573,note_off,0,0,0,,7,,,67,127
80573,note_off,0,0,0,,11,,,70,127
80573,note_off,0,0,0,,4,,,64,127
80573,note_on,0,0,0,,7,,,67,127
80573,note_on,0,0,0,,4,,,64,127
80573,note_on,0,0,0,,11,,,70,127
80693,note_off,120,0,0,,7,,,67,127
80694,note_off,1,0,0,,11,,,70,127
80694,note_on,0,0,0,,7,,,67,127
80815,note_off,121,0,0,,7,,,67,127
80815,note_off,0,0,0,,4,,,64,127
80815,note_on,0,0,0,,5,,,65,127
80815,note_on,0,0,0,,11,,,70,127
80855,note_on,40,0,0,,8,,,68,127
80875,note_off,20,0,0,,11,,,70,127
80895,note_on,20,0,0,,11,,,70,127
80915,note_off,20,0,0,,8,,,68,127
80935,note_on,20,0,0,,8,,,68,127
80955,note_off,20,0,0,,11,,,70,127
81056,note_off,101,0,0,,5,,,65,127
81056,note_on,0,0,0,,5,,,65,127
81177,note_off,121,0,0,,8,,,68,127
81177,note_on,0,0,0,,7,,,67,127
81298,note_off,121,0,0,,7,,,67,127
81298,note_off,0,0,0,,5,,,65,127
81298,note_on,0,0,0,,5,,,65,127
81298,note_on,0,0,0,,8,,,68,127
81541,note_off,243,0,0,,8,,,68,127
81541,note_off,0,0,0,,5,,,65,127
81541,note_on,0,0,0,,5,,,65,127
81662,note_on,121,0,0,,0,,,84,127
81783,note_off,121,0,0,,0,,,84,127
81783,note_off,0,0,0,,5,,,65,127
81783,note_on,0,0,0,,0,,,72,127
81783,note_on,0,0,0,,5,,,65,127
81783,note_on,0,0,0,,10,,,81,127
81903,note_off,120,0,0,,0,,,72,127
81904,note_off,1,0,0,,10,,,81,127
81904,note_on,0,0,0,,6,,,78,127
82025,note_off,121,0,0,,6,,,78,127
82025,note_off,0,0,0,,5,,,65,127
82025,note_on,0,0,0,,0,,,72,127
82025,note_on,0,0,0,,5,,,65,127
82025,note_on,0,0,0,,3,,,75,127
82146,note_off,121,0,0,,3,,,75,127
82146,note_off,0,0,0,,0,,,72,127
82146,note_on,0,0,0,,0,,,72,127
82267,note_off,121,0,0,,0,,,72,127
82267,note_off,0,0,0,,5,,,65,127
82267,note_on,0,0,0,,11,,,70,127
82267,note_on,0,0,0,,5,,,65,127
82267,note_on,0,0,0,,3,,,75,127
82307,note_on,40,0,0,,1,,,73,127
82327,note_off,20,0,0,,3,,,75,127
82347,note_on,20,0,0,,3,,,75,127
82367,note_off,20,0,0,,1,,,73,127
82387,note_on,20,0,0,,1,,,73,127
82407,note_off,20,0,0,,3,,,75,127
82508,note_off,101,0,0,,5,,,65,127
82508,note_off,0,0,0,,11,,,70,127
82508,note_on,0,0,0,,11,,,70,127
82508,note_on,0,0,0,,5,,,65,127
82629,note_off,121,0,0,,1,,,73,127
82629,note_on,0,0,0,,0,,,72,127
82750,note_off,121,0,0,,0,,,72,127
82750,note_off,0,0,0,,5,,,65,127
82750,note_off,0,0,0,,11,,,70,127
82750,note_on,0,0,0,,11,,,70,127
82750,note_on,0,0,0,,5,,,65,127
82750,note_on,0,0,0,,1,,,73,127
82993,note_off,243,0,0,,5,,,65,127
82993,note_off,0,0,0,,11,,,70,127
82993,note_on,0,0,0,,4,,,64,127
82993,note_on,0,0,0,,11,,,70,127
82993,note_on,0,0,0,,7,,,67,127
83114,note_off,121,0,0,,1,,,73,127
83114,note_on,0,0,0,,11,,,82,127
83235,note_off,121,0,0,,11,,,82,127
83235,note_off,0,0,0,,7,,,67,127
83235,note_off,0,0,0,,11,,,70,127
83235,note_off,0,0,0,,4,,,64,127
83235,note_on,0,0,0,,11,,,70,127
83235,note_on,0,0,0,,4,,,64,127
83235,note_on,0,0,0,,7,,,67,127
83235,note_on,0,0,0,,7,,,79,127
83356,note_off,121,0,0,,7,,,79,127
83356,note_on,0,0,0,,4,,,76,127
83477,note_off,121,0,0,,4,,,76,127
83477,note_off,0,0,0,,7,,,67,127
83477,note_off,0,0,0,,4,,,64,127
83477,note_off,0,0,0,,11,,,70,127
83477,note_on,0,0,0,,11,,,70,127
83477,note_on,0,0,0,,4,,,64,127
83477,note_on,0,0,0,,7,,,67,127
83598,note_off,121,0,0,,7,,,67,127
83598,note_on,0,0,0,,7,,,67,127
83719,note_off,121,0,0,,7,,,67,127
83719,note_off,0,0,0,,4,,,64,127
83719,note_off,0,0,0,,11,,,70,127
83719,note_on,0,0,0,,5,,,65,127
83719,note_on,0,0,0,,11,,,70,127
83759,note_on,40,0,0,,8,,,68,127
83779,note_off,20,0,0,,11,,,70,127
83799,note_on,20,0,0,,11,,,70,127
83819,note_off,20,0,0,,8,,,68,127
83839,note_on,20,0,0,,8,,,68,127
83859,note_off,20,0,0,,11,,,70,127
83960,note_off,101,0,0,,5,,,65,127
83960,note_on,0,0,0,,5,,,65,127
84081,note_off,121,0,0,,8,,,68,127
84081,note_on,0,0,0,,7,,,67,127
84202,note_off,121,0,0,,7,,,67,127
84202,note_off,0,0,0,,5,,,65,127
84202,note_on,0,0,0,,5,,,65,127
84202,note_on,0,0,0,,8,,,68,127
84445,note_off,243,0,0,,8,,,68,127
84445,note_off,0,0,0,,5,,,65,127
84445,note_on,0,0,0,,5,,,65,127
84445,note_on,0,0,0,,8,,,68,127
84506,note_off,61,0,0,,8,,,68,127
84506,note_on,0,0,0,,7,,,67,127
84567,note_off,61,0,0,,7,,,67,127
84567,note_on,0,0,0,,8,,,68,127
84688,note_off,121,0,0,,8,,,68,127
84688,note_off,0,0,0,,5,,,65,127
84688,note_on,0,0,0,,1,,,61,127
84688,note_on,0,0,0,,11,,,70,127
84749,note_off,61,0,0,,11,,,70,127
84749,note_on,0,0,0,,8,,,68,127
84810,note_off,61,0,0,,8,,,68,127
84810,note_on,0,0,0,,11,,,70,127
84931,note_off,121,0,0,,11,,,70,127
84931,note_off,0,0,0,,1,,,61,127
84931,note_on,0,0,0,,8,,,56,127
84931,note_on,0,0,0,,0,,,60,127
84931,note_on,0,0,0,,5,,,65,127
84931,note_on,0,0,0,,0,,,72,127
84992,note_off,61,0,0,,0,,,72,127
84992,note_on,0,0,0,,11,,,70,127
85053,note_off,61,0,0,,11,,,70,127
85053,note_on,0,0,0,,0,,,72,127
85174,note_off,121,0,0,,0,,,72,127
85174,note_off,0,0,0,,5,,,65,127
85174,note_off,0,0,0,,0,,,60,127
85174,note_off,0,0,0,,8,,,56,127
85174,note_on,0,0,0,,5,,,65,127
85174,note_on,0,0,0,,11,,,58,127
85174,note_on,0,0,0,,2,,,74,127
85235,note_off,61,0,0,,2,,,74,127
85235,note_on,0,0,0,,0,,,72,127
85296,note_off,61,0,0,,0,,,72,127
85296,note_on,0,0,0,,2,,,74,127
85417,note_off,121,0,0,,2,,,74,127
85417,note_off,0,0,0,,11,,,58,127
85417,note_off,0,0,0,,5,,,65,127
85417,note_on,0,0,0,,7,,,55,127
85417,note_on,0,0,0,,4,,,64,127
85417,note_on,0,0,0,,4,,,76,127
85478,note_off,61,0,0,,4,,,76,127
85478,note_on,0,0,0,,2,,,74,127
85539,note_off,61,0,0,,2,,,74,127
85539,note_on,0,0,0,,4,,,76,127
85660,note_off,121,0,0,,4,,,76,127
85660,note_off,0,0,0,,4,,,64,127
85660,note_off,0,0,0,,7,,,55,127
85660,note_on,0,0,0,,8,,,56,127
85660,note_on,0,0,0,,5,,,65,127
85660,note_on,0,0,0,,5,,,77,127
85721,note_off,61,0,0,,5,,,77,127
85721,note_on,0,0,0,,4,,,76,127
85782,note_off,61,0,0,,4,,,76,127
85782,note_on,0,0,0,,5,,,77,127
85903,note_off,121,0,0,,5,,,77,127
85903,note_off,0,0,0,,5,,,65,127
85903,note_off,0,0,0,,8,,,56,127
85903,note_on,0,0,0,,0,,,60,127
85903,note_on,0,0,0,,4,,,52,127
85903,note_on,0,0,0,,7,,,79,127
85964,note_off,61,0,0,,7,,,79,127
85964,note_on,0,0,0,,5,,,77,127
86025,note_off,61,0,0,,5,,,77,127
86025,note_on,0,0,0,,7,,,79,127
86146,note_off,121,0,0,,7,,,79,127
86146,note_off,0,0,0,,4,,,52,127
86146,note_off,0,0,0,,0,,,60,127
86146,note_on,0,0,0,,5,,,53,127
86146,note_on,0,0,0,,8,,,80,127
86207,note_off,61,0,0,,8,,,80,127
86207,note_on,0,0,0,,7,,,79,127
86268,note_off,61,0,0,,7,,,79,127
86268,note_on,0,0,0,,8,,,80,127
86389,note_off,121,0,0,,8,,,80,127
86389,note_off,0,0,0,,5,,,53,127
86389,note_on,0,0,0,,1,,,49,127
86389,note_on,0,0,0,,11,,,82,127
86450,note_off,61,0,0,,11,,,82,127
86450,note_on,0,0,0,,8,,,80,127
86511,note_off,61,0,0,,8,,,80,127
86511,note_on,0,0,0,,11,,,82,127
86632,note_off,121,0,0,,11,,,82,127
86632,note_off,0,0,0,,1,,,49,127
86632,note_on,0,0,0,,0,,,48,127
86632,note_on,0,0,0,,0,,,84,127
86753,note_off,121,0,0,,0,,,84,127
86753,note_on,0,0,0,,7,,,79,127
86874,note_off,121,0,0,,7,,,79,127
86874,note_on,0,0,0,,4,,,76,127
86995,note_off,121,0,0,,4,,,76,127
86995,note_on,0,0,0,,0,,,72,127
87116,note_off,121,0,0,,0,,,72,127
87116,note_on,0,0,0,,7,,,67,127
87237,note_off,121,0,0,,7,,,67,127
87237,note_on,0,0,0,,4,,,64,127
87357,note_off,120,0,0,,0,,,48,127
87358,note_off,1,0,0,,4,,,64,127
87358,note_on,0,0,0,,0,,,60,127
87479,note_on,121,0,0,,11,,,82,127
87600,note_off,121,0,0,,11,,,82,127
87600,note_off,0,0,0,,0,,,60,127
87600,note_on,0,0,0,,8,,,80,127
87600,note_on,0,0,0,,7,,,67,127
87721,note_off,121,0,0,,8,,,80,127
87721,note_on,0,0,0,,7,,,79,127
87842,note_off,121,0,0,,7,,,79,127
87842,note_off,0,0,0,,7,,,67,127
87842,note_on,0,0,0,,5,,,77,127
87842,note_on,0,0,0,,11,,,70,127
87963,note_off,121,0,0,,5,,,77,127
87963,note_on,0,0,0,,4,,,76,127
88084,note_off,121,0,0,,4,,,76,127
88084,note_off,0,0,0,,11,,,70,127
88084,note_on,0,0,0,,5,,,77,127
88084,note_on,0,0,0,,8,,,68,127
88205,note_off,121,0,0,,8,,,68,127
88205,note_on,0,0,0,,7,,,67,127
88326,note_off,121,0,0,,7,,,67,127
88326,note_off,0,0,0,,5,,,77,127
88326,note_on,0,0,0,,5,,,77,127
88326,note_on,0,0,0,,5,,,65,127
88447,note_off,121,0,0,,5,,,65,127
88447,note_on,0,0,0,,4,,,64,127
88568,note_off,121,0,0,,4,,,64,127
88568,note_off,0,0,0,,5,,,77,127
88568,note_on,0,0,0,,5,,,77,127
88568,note_on,0,0,0,,5,,,65,127
88689,note_off,121,0,0,,5,,,65,127
88689,note_on,0,0,0,,1,,,61,127
88810,note_off,121,0,0,,1,,,61,127
88810,note_off,0,0,0,,5,,,77,127
88810,note_on,0,0,0,,0,,,60,127
88931,note_on,121,0,0,,11,,,82,127
89052,note_off,121,0,0,,11,,,82,127
89052,note_off,0,0,0,,0,,,60,127
89052,note_on,0,0,0,,8,,,80,127
89052,note_on,0,0,0,,7,,,67,127
89173,note_off,121,0,0,,8,,,80,127
89173,note_on,0,0,0,,7,,,79,127
89294,note_off,121,0,0,,7,,,79,127
89294,note_off,0,0,0,,7,,,67,127
89294,note_on,0,0,0,,5,,,77,127
89294,note_on,0,0,0,,11,,,70,127
89415,note_off,121,0,0,,5,,,77,127
89415,note_on,0,0,0,,4,,,76,127
89536,note_off,121,0,0,,4,,,76,127
89536,note_off,0,0,0,,11,,,70,127
89536,note_on,0,0,0,,5,,,77,127
89536,note_on,0,0,0,,8,,,68,127
89657,note_off,121,0,0,,8,,,68,127
89657,note_on,0,0,0,,7,,,67,127
89778,note_off,121,0,0,,7,,,67,127
89778,note_off,0,0,0,,5,,,77,127
89778,note_on,0,0,0,,5,,,77,127
89778,note_on,0,0,0,,5,,,65,127
89899,note_off,121,0,0,,5,,,65,127
89899,note_on,0,0,0,,4,,,64,127
90020,note_off,121,0,0,,4,,,64,127
90020,note_off,0,0,0,,5,,,77,127
90020,note_on,0,0,0,,5,,,77,127
90020,note_on,0,0,0,,5,,,65,127
90141,note_off,121,0,0,,5,,,65,127
90141,note_on,0,0,0,,1,,,61,127
90262,note_off,121,0,0,,1,,,61,127
90262,note_off,0,0,0,,5,,,77,127
90262,note_on,0,0,0,,0,,,60,127
90383,note_on,121,0,0,,11,,,82,127
90504,note_off,121,0,0,,11,,,82,127
90504,note_off,0,0,0,,0,,,60,127
90504,note_on,0,0,0,,8,,,80,127
90504,note_on,0,0,0,,7,,,67,127
90625,note_off,121,0,0,,8,,,80,127
90625,note_on,0,0,0,,7,,,79,127
90746,note_off,121,0,0,,7,,,79,127
90746,note_off,0,0,0,,7,,,67,127
90746,note_on,0,0,0,,5,,,77,127
90746,note_on,0,0,0,,11,,,70,127
90867,note_off,121,0,0,,5,,,77,127
90867,note_on,0,0,0,,4,,,76,127
90988,note_off,121,0,0,,4,,,76,127
90988,note_off,0,0,0,,11,,,70,127
90988,note_on,0,0,0,,5,,,77,127
90988,note_on,0,0,0,,8,,,68,127
91109,note_off,121,0,0,,8,,,68,127
91109,note_on,0,0,0,,7,,,67,127
91230,note_off,121,0,0,,7,,,67,127
91230,note_on,0,0,0,,8,,,68,127
91351,note_off,121,0,0,,8,,,68,127
91351,note_off,0,0,0,,5,,,77,127
91351,note_on,0,0,0,,7,,,79,127
91351,note_on,0,0,0,,11,,,70,127
91472,note_off,121,0,0,,11,,,70,127
91472,note_off,0,0,0,,7,,,79,127
91472,note_on,0,0,0,,8,,,80,127
91472,note_on,0,0,0,,0,,,72,127
91593,note_off,121,0,0,,0,,,72,127
91593,note_on,0,0,0,,5,,,65,127
91654,note_off,61,0,0,,8,,,80,127
91715,note_off,61,0,0,,5,,,65,127
91715,note_on,0,0,0,,11,,,58,127
91715,note_on,0,0,0,,7,,,67,127
91836,note_off,121,0,0,,7,,,67,127
91836,note_on,0,0,0,,11,,,70,127
91957,note_off,121,0,0,,11,,,70,127
91957,note_off,0,0,0,,11,,,58,127
91957,note_on,0,0,0,,0,,,60,127
91957,note_on,0,0,0,,8,,,68,127
92078,note_off,121,0,0,,8,,,68,127
92078,note_on,0,0,0,,7,,,67,127
92199,note_off,121,0,0,,7,,,67,127
92199,note_on,0,0,0,,0,,,48,127
92199,note_on,0,0,0,,5,,,65,127
92320,note_off,121,0,0,,5,,,65,127
92320,note_on,0,0,0,,4,,,64,127
92436,note_off,116,0,0,,0,,,60,127
92441,note_off,5,0,0,,4,,,64,127
92441,note_off,0,0,0,,0,,,48,127
92441,note_on,0,0,0,,5,,,53,127
92441,note_on,0,0,0,,4,,,64,127
92684,note_off,243,0,0,,4,,,64,127
92684,note_on,0,0,0,,5,,,65,127
93048,note_off,364,0,0,,5,,,65,127
93169,note_off,121,0,0,,5,,,53,127
93169,note_on,0,0,0,,0,,,60,127
93290,note_on,121,0,0,,11,,,82,127
93411,note_off,121,0,0,,11,,,82,127
93411,note_off,0,0,0,,0,,,60,127
93411,note_on,0,0,0,,8,,,80,127
93411,note_on,0,0,0,,7,,,67,127
93532,note_off,121,0,0,,8,,,80,127
93532,note_on,0,0,0,,7,,,79,127
93653,note_off,121,0,0,,7,,,79,127
93653,note_off,0,0,0,,7,,,67,127
93653,note_on,0,0,0,,5,,,77,127
93653,note_on,0,0,0,,11,,,70,127
93774,note_off,121,0,0,,5,,,77,127
93774,note_on,0,0,0,,4,,,76,127
93895,note_off,121,0,0,,4,,,76,127
93895,note_off,0,0,0,,11,,,70,127
93895,note_on,0,0,0,,5,,,77,127
93895,note_on,0,0,0,,8,,,68,127
94016,note_off,121,0,0,,8,,,68,127
94016,note_on,0,0,0,,7,,,67,127
94137,note_off,121,0,0,,7,,,67,127
94137,note_off,0,0,0,,5,,,77,127
94137,note_on,0,0,0,,5,,,77,127
94137,note_on,0,0,0,,5,,,65,127
94258,note_off,121,0,0,,5,,,65,127
94258,note_on,0,0,0,,4,,,64,127
94379,note_off,121,0,0,,4,,,64,127
94379,note_off,0,0,0,,5,,,77,127
94379,note_on,0,0,0,,5,,,77,127
94379,note_on,0,0,0,,5,,,65,127
94500,note_off,121,0,0,,5,,,65,127
94500,note_on,0,0,0,,1,,,61,127
94621,note_off,121,0,0,,1,,,61,127
94621,note_off,0,0,0,,5,,,77,127
94621,note_on,0,0,0,,0,,,60,127
94742,note_on,121,0,0,,11,,,82,127
94863,note_off,121,0,0,,11,,,82,127
94863,note_off,0,0,0,,0,,,60,127
94863,note_on,0,0,0,,8,,,80,127
94863,note_on,0,0,0,,7,,,67,127
94984,note_off,121,0,0,,8,,,80,127
94984,note_on,0,0,0,,7,,,79,127
95105,note_off,121,0,0,,7,,,79,127
95105,note_off,0,0,0,,7,,,67,127
95105,note_on,0,0,0,,5,,,77,127
95105,note_on,0,0,0,,11,,,70,127
95226,note_off,121,0,0,,5,,,77,127
95226,note_on,0,0,0,,4,,,76,127
95347,note_off,121,0,0,,4,,,76,127
95347,note_off,0,0,0,,11,,,70,127
95347,note_on,0,0,0,,5,,,77,127
95347,note_on,0,0,0,,8,,,68,127
95468,note_off,121,0,0,,8,,,68,127
95468,note_on,0,0,0,,7,,,67,127
95589,note_off,121,0,0,,7,,,67,127
95589,note_off,0,0,0,,5,,,77,127
95589,note_on,0,0,0,,5,,,77,127
95589,note_on,0,0,0,,5,,,65,127
95710,note_off,121,0,0,,5,,,65,127
95710,note_on,0,0,0,,4,,,64,127
95831,note_off,121,0,0,,4,,,64,127
95831,note_off,0,0,0,,5,,,77,127
95831,note_on,0,0,0,,5,,,77,127
95831,note_on,0,0,0,,5,,,65,127
95952,note_off,121,0,0,,5,,,65,127
95952,note_on,0,0,0,,1,,,61,127
96073,note_off,121,0,0,,1,,,61,127
96073,note_on,0,0,0,,0,,,60,127
96194,note_off,121,0,0,,5,,,77,127
96194,note_on,0,0,0,,1,,,85,127
96315,note_off,121,0,0,,1,,,85,127
96315,note_off,0,0,0,,0,,,60,127
96315,note_on,0,0,0,,0,,,84,127
96315,note_on,0,0,0,,7,,,67,127
96436,note_off,121,0,0,,0,,,84,127
96436,note_on,0,0,0,,11,,,82,127
96557,note_off,121,0,0,,11,,,82,127
96557,note_off,0,0,0,,7,,,67,127
96557,note_on,0,0,0,,8,,,80,127
96557,note_on,0,0,0,,11,,,70,127
96678,note_off,121,0,0,,8,,,80,127
96678,note_on,0,0,0,,7,,,79,127
96799,note_off,121,0,0,,7,,,79,127
96799,note_off,0,0,0,,11,,,70,127
96799,note_on,0,0,0,,5,,,77,127
96799,note_on,0,0,0,,8,,,68,127
96920,note_off,121,0,0,,8,,,68,127
96920,note_on,0,0,0,,7,,,67,127
97041,note_off,121,0,0,,7,,,67,127
97041,note_on,0,0,0,,8,,,68,127
97162,note_off,121,0,0,,8,,,68,127
97162,note_off,0,0,0,,5,,,77,127
97162,note_on,0,0,0,,7,,,79,127
97162,note_on,0,0,0,,11,,,70,127
97283,note_off,121,0,0,,11,,,70,127
97283,note_off,0,0,0,,7,,,79,127
97283,note_on,0,0,0,,8,,,80,127
97283,note_on,0,0,0,,0,,,72,127
97404,note_off,121,0,0,,0,,,72,127
97404,note_on,0,0,0,,5,,,65,127
97465,note_off,61,0,0,,8,,,80,127
97526,note_off,61,0,0,,5,,,65,127
97526,note_on,0,0,0,,11,,,58,127
97526,note_on,0,0,0,,7,,,67,127
97647,note_off,121,0,0,,7,,,67,127
97647,note_on,0,0,0,,11,,,70,127
97768,note_off,121,0,0,,11,,,70,127
97768,note_off,0,0,0,,11,,,58,127
97768,note_on,0,0,0,,0,,,60,127
97768,note_on,0,0,0,,8,,,68,127
97889,note_off,121,0,0,,8,,,68,127
97889,note_on,0,0,0,,7,,,67,127
98010,note_off,121,0,0,,7,,,67,127
98010,note_on,0,0,0,,0,,,48,127
98010,note_on,0,0,0,,5,,,65,127
98131,note_off,121,0,0,,5,,,65,127
98131,note_on,0,0,0,,4,,,64,127
98247,note_off,116,0,0,,0,,,60,127
98252,note_off,5,0,0,,4,,,64,127
98252,note_off,0,0,0,,0,,,48,127
98252,note_on,0,0,0,,5,,,53,127
98373,note_on,121,0,0,,0,,,72,127
98494,note_on,121,0,0,,10,,,81,127
98615,note_off,121,0,0,,5,,,53,127
98615,note_on,0,0,0,,5,,,65,127
98736,note_off,121,0,0,,5,,,65,127
98736,note_on,0,0,0,,0,,,60,127
98857,note_off,121,0,0,,0,,,60,127
98857,note_on,0,0,0,,10,,,57,127
98978,note_off,121,0,0,,10,,,57,127
98978,note_on,0,0,0,,5,,,53,127
99099,note_off,121,0,0,,10,,,81,127
99099,note_off,0,0,0,,0,,,72,127
99099,note_on,0,0,0,,2,,,74,127
99099,note_on,0,0,0,,11,,,82,127
99220,note_off,121,0,0,,11,,,82,127
99220,note_off,0,0,0,,2,,,74,127
99220,note_on,0,0,0,,10,,,81,127
99220,note_on,0,0,0,,0,,,72,127
99341,note_off,121,0,0,,5,,,53,127
99341,note_on,0,0,0,,5,,,65,127
99462,note_off,121,0,0,,5,,,65,127
99462,note_off,0,0,0,,0,,,72,127
99462,note_off,0,0,0,,10,,,81,127
99462,note_on,0,0,0,,0,,,60,127
99462,note_on,0,0,0,,0,,,72,127
99462,note_on,0,0,0,,10,,,81,127
99583,note_off,121,0,0,,0,,,60,127
99583,note_on,0,0,0,,10,,,57,127
99704,note_off,121,0,0,,10,,,57,127
99704,note_on,0,0,0,,5,,,53,127
99825,note_off,121,0,0,,10,,,81,127
99825,note_off,0,0,0,,0,,,72,127
99825,note_on,0,0,0,,11,,,82,127
99825,note_on,0,0,0,,7,,,79,127
99946,note_off,121,0,0,,7,,,79,127
99946,note_off,0,0,0,,11,,,82,127
99946,note_on,0,0,0,,0,,,84,127
99946,note_on,0,0,0,,10,,,81,127
100067,note_off,121,0,0,,5,,,53,127
100067,note_on,0,0,0,,10,,,69,127
100187,note_off,120,0,0,,0,,,84,127
100188,note_off,1,0,0,,10,,,69,127
100188,note_off,0,0,0,,10,,,81,127
100188,note_on,0,0,0,,5,,,65,127
100188,note_on,0,0,0,,0,,,84,127
100188,note_on,0,0,0,,10,,,81,127
100309,note_off,121,0,0,,5,,,65,127
100309,note_on,0,0,0,,0,,,60,127
100430,note_off,121,0,0,,0,,,60,127
100430,note_on,0,0,0,,10,,,57,127
100550,note_off,120,0,0,,0,,,84,127
100551,note_off,1,0,0,,10,,,81,127
100551,note_on,0,0,0,,7,,,79,127
100551,note_on,0,0,0,,11,,,82,127
100672,note_off,121,0,0,,11,,,82,127
100672,note_off,0,0,0,,7,,,79,127
100672,note_on,0,0,0,,10,,,81,127
100672,note_on,0,0,0,,0,,,84,127
100793,note_off,121,0,0,,10,,,57,127
100793,note_on,0,0,0,,10,,,69,127
100913,note_off,120,0,0,,0,,,84,127
100914,note_off,1,0,0,,10,,,69,127
100914,note_off,0,0,0,,10,,,81,127
100914,note_on,0,0,0,,5,,,65,127
100914,note_on,0,0,0,,10,,,81,127
100914,note_on,0,0,0,,0,,,84,127
101035,note_off,121,0,0,,5,,,65,127
101035,note_on,0,0,0,,0,,,60,127
101156,note_off,121,0,0,,0,,,60,127
101156,note_on,0,0,0,,10,,,57,127
101277,note_off,121,0,0,,0,,,84,127
101277,note_off,0,0,0,,10,,,81,127
101277,note_on,0,0,0,,7,,,79,127
101277,note_on,0,0,0,,11,,,82,127
101398,note_off,121,0,0,,11,,,82,127
101398,note_off,0,0,0,,7,,,79,127
101398,note_on,0,0,0,,10,,,81,127
101398,note_on,0,0,0,,0,,,84,127
101519,note_off,121,0,0,,10,,,57,127
101519,note_on,0,0,0,,0,,,60,127
101639,note_off,120,0,0,,0,,,84,127
101640,note_off,1,0,0,,0,,,60,127
101640,note_off,0,0,0,,10,,,81,127
101640,note_on,0,0,0,,10,,,57,127
101640,note_on,0,0,0,,10,,,81,127
101640,note_on,0,0,0,,0,,,84,127
101761,note_off,121,0,0,,10,,,57,127
101761,note_on,0,0,0,,5,,,53,127
101882,note_off,121,0,0,,5,,,53,127
101882,note_on,0,0,0,,11,,,58,127
102003,note_off,121,0,0,,0,,,84,127
102003,note_off,0,0,0,,10,,,81,127
102003,note_on,0,0,0,,11,,,82,127
102003,note_on,0,0,0,,2,,,74,127
102124,note_off,121,0,0,,2,,,74,127
102124,note_off,0,0,0,,11,,,82,127
102124,note_off,0,0,0,,11,,,58,127
102124,note_on,0,0,0,,0,,,60,127
102124,note_on,0,0,0,,0,,,72,127
102124,note_on,0,0,0,,10,,,81,127
102245,note_off,121,0,0,,10,,,81,127
102245,note_off,0,0,0,,0,,,72,127
102245,note_on,0,0,0,,11,,,70,127
102245,note_on,0,0,0,,7,,,79,127
102366,note_off,121,0,0,,7,,,79,127
102366,note_off,0,0,0,,11,,,70,127
102366,note_off,0,0,0,,0,,,60,127
102366,note_on,0,0,0,,0,,,60,127
102366,note_on,0,0,0,,10,,,69,127
102366,note_on,0,0,0,,5,,,77,127
102487,note_off,121,0,0,,5,,,77,127
102487,note_off,0,0,0,,10,,,69,127
102487,note_on,0,0,0,,4,,,76,127
102487,note_on,0,0,0,,7,,,67,127
102608,note_off,121,0,0,,7,,,67,127
102608,note_off,0,0,0,,4,,,76,127
102608,note_off,0,0,0,,0,,,60,127
102608,note_on,0,0,0,,5,,,53,127
102608,note_on,0,0,0,,10,,,69,127
102608,note_on,0,0,0,,5,,,77,127
102729,note_off,121,0,0,,5,,,77,127
102729,note_off,0,0,0,,10,,,69,127
102729,note_on,0,0,0,,7,,,79,127
102729,note_on,0,0,0,,11,,,70,127
102850,note_off,121,0,0,,11,,,70,127
102850,note_off,0,0,0,,7,,,79,127
102850,note_on,0,0,0,,0,,,72,127
102850,note_on,0,0,0,,10,,,81,127
102971,note_off,121,0,0,,5,,,53,127
102971,note_on,0,0,0,,5,,,65,127
103092,note_off,121,0,0,,5,,,65,127
103092,note_off,0,0,0,,10,,,81,127
103092,note_off,0,0,0,,0,,,72,127
103092,note_on,0,0,0,,0,,,60,127
103092,note_on,0,0,0,,10,,,81,127
103092,note_on,0,0,0,,0,,,72,127
103213,note_off,121,0,0,,0,,,60,127
103213,note_on,0,0,0,,10,,,57,127
103334,note_off,121,0,0,,10,,,57,127
103334,note_on,0,0,0,,5,,,53,127
103455,note_off,121,0,0,,0,,,72,127
103455,note_off,0,0,0,,10,,,81,127
103455,note_on,0,0,0,,11,,,82,127
103455,note_on,0,0,0,,2,,,74,127
103576,note_off,121,0,0,,2,,,74,127
103576,note_off,0,0,0,,11,,,82,127
103576,note_on,0,0,0,,0,,,72,127
103576,note_on,0,0,0,,10,,,81,127
103697,note_off,121,0,0,,5,,,53,127
103697,note_on,0,0,0,,5,,,65,127
103818,note_off,121,0,0,,5,,,65,127
103818,note_off,0,0,0,,10,,,81,127
103818,note_off,0,0,0,,0,,,72,127
103818,note_on,0,0,0,,0,,,60,127
103818,note_on,0,0,0,,10,,,81,127
103818,note_on,0,0,0,,0,,,72,127
103939,note_off,121,0,0,,0,,,60,127
103939,note_on,0,0,0,,10,,,57,127
104060,note_off,121,0,0,,10,,,57,127
104060,note_on,0,0,0,,5,,,53,127
104181,note_off,121,0,0,,0,,,72,127
104181,note_off,0,0,0,,10,,,81,127
104181,note_on,0,0,0,,7,,,79,127
104181,note_on,0,0,0,,11,,,82,127
104302,note_off,121,0,0,,11,,,82,127
104302,note_off,0,0,0,,7,,,79,127
104302,note_on,0,0,0,,0,,,84,127
104302,note_on,0,0,0,,10,,,81,127
104423,note_off,121,0,0,,5,,,53,127
104423,note_on,0,0,0,,10,,,69,127
104543,note_off,120,0,0,,0,,,84,127
104544,note_off,1,0,0,,10,,,69,127
104544,note_off,0,0,0,,10,,,81,127
104544,note_on,0,0,0,,5,,,65,127
104544,note_on,0,0,0,,10,,,81,127
104544,note_on,0,0,0,,0,,,84,127
104665,note_off,121,0,0,,5,,,65,127
104665,note_on,0,0,0,,0,,,60,127
104786,note_off,121,0,0,,0,,,60,127
104786,note_on,0,0,0,,10,,,57,127
104907,note_off,121,0,0,,0,,,84,127
104907,note_off,0,0,0,,10,,,81,127
104907,note_on,0,0,0,,11,,,82,127
104907,note_on,0,0,0,,7,,,79,127
105028,note_off,121,0,0,,7,,,79,127
105028,note_off,0,0,0,,11,,,82,127
105028,note_on,0,0,0,,0,,,84,127
105028,note_on,0,0,0,,10,,,81,127
105149,note_off,121,0,0,,10,,,57,127
105149,note_on,0,0,0,,10,,,69,127
105269,note_off,120,0,0,,0,,,84,127
105270,note_off,1,0,0,,10,,,69,127
105270,note_off,0,0,0,,10,,,81,127
105270,note_on,0,0,0,,5,,,65,127
105270,note_on,0,0,0,,0,,,84,127
105270,note_on,0,0,0,,10,,,81,127
105391,note_off,121,0,0,,5,,,65,127
105391,note_on,0,0,0,,0,,,60,127
105512,note_off,121,0,0,,0,,,60,127
105512,note_on,0,0,0,,10,,,57,127
105633,note_off,121,0,0,,10,,,81,127
105633,note_off,0,0,0,,0,,,84,127
105633,note_on,0,0,0,,7,,,79,127
105633,note_on,0,0,0,,11,,,82,127
105754,note_off,121,0,0,,11,,,82,127
105754,note_off,0,0,0,,7,,,79,127
105754,note_on,0,0,0,,10,,,81,127
105754,note_on,0,0,0,,0,,,84,127
105875,note_off,121,0,0,,10,,,57,127
105875,note_on,0,0,0,,0,,,60,127
105995,note_off,120,0,0,,0,,,84,127
105996,note_off,1,0,0,,0,,,60,127
105996,note_off,0,0,0,,10,,,81,127
105996,note_on,0,0,0,,10,,,57,127
105996,note_on,0,0,0,,0,,,84,127
105996,note_on,0,0,0,,10,,,81,127
106117,note_off,121,0,0,,10,,,57,127
106117,note_on,0,0,0,,5,,,53,127
106238,note_off,121,0,0,,5,,,53,127
106238,note_on,0,0,0,,11,,,58,127
106359,note_off,121,0,0,,10,,,81,127
106359,note_off,0,0,0,,0,,,84,127
106359,note_on,0,0,0,,11,,,82,127
106359,note_on,0,0,0,,2,,,74,127
106480,note_off,121,0,0,,2,,,74,127
106480,note_off,0,0,0,,11,,,82,127
106480,note_off,0,0,0,,11,,,58,127
106480,note_on,0,0,0,,0,,,60,127
106480,note_on,0,0,0,,10,,,81,127
106480,note_on,0,0,0,,0,,,72,127
106601,note_off,121,0,0,,0,,,72,127
106601,note_off,0,0,0,,10,,,81,127
106601,note_on,0,0,0,,11,,,70,127
106601,note_on,0,0,0,,7,,,79,127
106722,note_off,121,0,0,,7,,,79,127
106722,note_off,0,0,0,,11,,,70,127
106722,note_off,0,0,0,,0,,,60,127
106722,note_on,0,0,0,,0,,,60,127
106722,note_on,0,0,0,,10,,,69,127
106722,note_on,0,0,0,,5,,,77,127
106843,note_off,121,0,0,,5,,,77,127
106843,note_off,0,0,0,,10,,,69,127
106843,note_on,0,0,0,,4,,,76,127
106843,note_on,0,0,0,,7,,,67,127
106964,note_off,121,0,0,,0,,,60,127
106965,note_off,1,0,0,,7,,,67,127
106965,note_off,0,0,0,,4,,,76,127
106966,note_on,1,0,0,,10,,,69,127
106966,note_on,0,0,0,,5,,,77,127
106966,note_on,0,0,0,,5,,,53,127
107089,note_off,123,0,0,,10,,,69,127
107092,note_on,3,0,0,,0,,,84,127
107151,note_off,59,0,0,,5,,,77,127
107214,note_off,63,0,0,,0,,,84,127
107217,note_on,3,0,0,,10,,,81,127
107337,note_off,120,0,0,,5,,,53,127
107340,note_off,3,0,0,,10,,,81,127
107343,note_on,3,0,0,,5,,,77,127
107343,note_on,0,0,0,,7,,,55,127
107466,note_off,123,0,0,,7,,,55,127
107466,note_off,0,0,0,,5,,,77,127
107469,note_on,3,0,0,,0,,,72,127
107469,note_on,0,0,0,,10,,,57,127
107592,note_off,123,0,0,,0,,,72,127
107595,note_on,3,0,0,,10,,,69,127
107716,note_off,121,0,0,,10,,,57,127
107717,note_off,1,0,0,,10,,,69,127
107720,note_on,3,0,0,,2,,,74,127
107720,note_on,0,0,0,,11,,,58,127
107781,note_off,61,0,0,,2,,,74,127
107782,note_on,1,0,0,,4,,,76,127
107843,note_off,61,0,0,,4,,,76,127
107846,note_on,3,0,0,,5,,,77,127
107907,note_off,61,0,0,,5,,,77,127
107908,note_on,1,0,0,,7,,,79,127
107967,note_off,59,0,0,,11,,,58,127
107968,note_off,1,0,0,,7,,,79,127
107969,note_on,1,0,0,,10,,,81,127
107969,note_on,0,0,0,,0,,,60,127
108030,note_off,61,0,0,,10,,,81,127
108033,note_on,3,0,0,,7,,,79,127
108094,note_off,61,0,0,,7,,,79,127
108095,note_on,1,0,0,,10,,,81,127
108156,note_off,61,0,0,,10,,,81,127
108159,note_on,3,0,0,,7,,,79,127
108217,note_off,58,0,0,,0,,,60,127
108220,note_off,3,0,0,,7,,,79,127
108221,note_on,1,0,0,,10,,,81,127
108221,note_on,0,0,0,,0,,,48,127
108282,note_off,61,0,0,,10,,,81,127
108285,note_on,3,0,0,,7,,,79,127
108346,note_off,61,0,0,,7,,,79,127
108347,note_on,1,0,0,,5,,,77,127
108409,note_off,62,0,0,,5,,,77,127
108412,note_on,3,0,0,,7,,,79,127
108469,note_off,57,0,0,,0,,,48,127
108474,note_off,5,0,0,,7,,,79,127
108477,note_on,3,0,0,,5,,,53,127
108477,note_on,0,0,0,,10,,,81,127
108603,note_off,126,0,0,,10,,,81,127
108607,note_on,4,0,0,,0,,,84,127
108733,note_off,126,0,0,,0,,,84,127
108737,note_on,4,0,0,,10,,,81,127
108861,note_off,124,0,0,,5,,,53,127
108864,note_off,3,0,0,,10,,,81,127
108868,note_on,4,0,0,,7,,,55,127
108868,note_on,0,0,0,,5,,,77,127
108994,note_off,126,0,0,,5,,,77,127
108994,note_off,0,0,0,,7,,,55,127
108998,note_on,4,0,0,,10,,,57,127
108998,note_on,0,0,0,,0,,,72,127
109124,note_off,126,0,0,,0,,,72,127
109130,note_on,6,0,0,,10,,,69,127
109253,note_off,123,0,0,,10,,,57,127
109259,note_off,6,0,0,,10,,,69,127
109263,note_on,4,0,0,,2,,,74,127
109263,note_on,0,0,0,,11,,,58,127
109392,note_off,129,0,0,,2,,,74,127
109397,note_on,5,0,0,,11,,,70,127
109523,note_off,126,0,0,,11,,,58,127
109526,note_off,3,0,0,,11,,,70,127
109531,note_on,5,0,0,,10,,,69,127
109531,note_on,0,0,0,,0,,,60,127
109593,note_off,62,0,0,,10,,,69,127
109599,note_on,6,0,0,,7,,,67,127
109661,note_off,62,0,0,,7,,,67,127
109665,note_on,4,0,0,,10,,,69,127
109727,note_off,62,0,0,,10,,,69,127
109733,note_on,6,0,0,,7,,,67,127
109795,note_off,62,0,0,,7,,,67,127
109799,note_on,4,0,0,,10,,,69,127
109799,note_on,0,0,0,,0,,,48,127
109861,note_off,62,0,0,,10,,,69,127
109871,note_on,10,0,0,,7,,,67,127
109923,note_off,52,0,0,,0,,,60,127
109933,note_off,10,0,0,,7,,,67,127
109941,note_on,8,0,0,,5,,,65,127
110003,note_off,62,0,0,,5,,,65,127
110014,note_on,11,0,0,,7,,,67,127
110059,note_off,45,0,0,,0,,,48,127
110084,note_off,25,0,0,,7,,,67,127
110112,note_on,28,0,0,,5,,,65,127
110112,note_on,0,0,0,,5,,,41,127
111880,note_off,1768,0,0,,5,,,41,127
111880,note_off,0,0,0,,5,,,65,127
115200,end_of_track,3320,1,0,,,,,,
