tick,type,time,meta,track,program,channel,pitch,tempo,note,velocity
0,copyright,0,1,0,,,,,,
0,program_change,0,0,0,6,0,,,,
0,pitchwheel,0,0,0,,0,0,,,
0,program_change,0,0,0,6,1,,,,
0,pitchwheel,0,0,0,,1,-590,,,
0,program_change,0,0,0,6,2,,,,
0,pitchwheel,0,0,0,,2,-272,,,
0,program_change,0,0,0,6,3,,,,
0,pitchwheel,0,0,0,,3,-353,,,
0,program_change,0,0,0,6,4,,,,
0,pitchwheel,0,0,0,,4,-560,,,
0,program_change,0,0,0,6,5,,,,
0,pitchwheel,0,0,0,,5,-80,,,
0,program_change,0,0,0,6,6,,,,
0,pitchwheel,0,0,0,,6,-625,,,
0,program_change,0,0,0,6,7,,,,
0,pitchwheel,0,0,0,,7,-130,,,
0,program_change,0,0,0,6,8,,,,
0,pitchwheel,0,0,0,,8,-512,,,
0,program_change,0,0,0,6,10,,,,
0,pitchwheel,0,0,0,,10,-464,,,
0,program_change,0,0,0,6,11,,,,
0,pitchwheel,0,0,0,,11,-208,,,
0,program_change,0,0,0,6,12,,,,
0,pitchwheel,0,0,0,,12,-553,,,
0,set_tempo,0,1,0,,,,500000,,
85,note_on,85,0,0,,6,,,78,127
254,note_off,169,0,0,,6,,,78,127
256,note_on,2,0,0,,7,,,79,127
425,note_off,169,0,0,,7,,,79,127
427,note_on,2,0,0,,10,,,81,127
598,note_on,171,0,0,,10,,,69,127
765,note_off,167,0,0,,10,,,81,127
769,note_on,4,0,0,,7,,,79,127
936,note_off,167,0,0,,10,,,69,127
938,note_off,2,0,0,,7,,,79,127
940,note_on,2,0,0,,6,,,78,127
1111,note_on,171,0,0,,6,,,66,127
1280,note_off,169,0,0,,6,,,66,127
1282,note_on,2,0,0,,7,,,67,127
1451,note_off,169,0,0,,7,,,67,127
1451,note_off,0,0,0,,6,,,78,127
1453,note_on,2,0,0,,4,,,76,127
1453,note_on,0,0,0,,10,,,69,127
1624,note_on,171,0,0,,10,,,57,127
1791,note_off,167,0,0,,10,,,69,127
1793,note_off,2,0,0,,10,,,57,127
1795,note_on,2,0,0,,7,,,67,127
1964,note_off,169,0,0,,7,,,67,127
1965,note_off,1,0,0,,4,,,76,127
1966,note_on,1,0,0,,6,,,66,127
2137,note_on,171,0,0,,8,,,80,127
2306,note_off,169,0,0,,8,,,80,127
2308,note_on,2,0,0,,10,,,81,127
2477,note_off,169,0,0,,6,,,66,127
2479,note_on,2,0,0,,7,,,67,127
2648,note_off,169,0,0,,10,,,81,127
2650,note_on,2,0,0,,11,,,82,127
2819,note_off,169,0,0,,11,,,82,127
2821,note_on,2,0,0,,12,,,83,127
2990,note_off,169,0,0,,7,,,67,127
2992,note_on,2,0,0,,4,,,64,127
3076,note_off,84,0,0,,12,,,83,127
3078,note_on,2,0,0,,10,,,81,127
3163,note_on,85,0,0,,7,,,79,127
3175,note_off,12,0,0,,10,,,81,127
3248,note_on,73,0,0,,6,,,78,127
3260,note_off,12,0,0,,7,,,79,127
3333,note_on,73,0,0,,4,,,76,127
3345,note_off,12,0,0,,6,,,78,127
3418,note_on,73,0,0,,2,,,74,127
3430,note_off,12,0,0,,4,,,76,127
3501,note_off,71,0,0,,4,,,64,127
3503,note_on,2,0,0,,1,,,73,127
3503,note_on,0,0,0,,10,,,57,127
3515,note_off,12,0,0,,2,,,74,127
3588,note_on,73,0,0,,12,,,71,127
3631,note_off,43,0,0,,1,,,73,127
3674,note_on,43,0,0,,10,,,69,127
3686,note_off,12,0,0,,12,,,71,127
3759,note_on,73,0,0,,7,,,67,127
3771,note_off,12,0,0,,10,,,69,127
3844,note_on,73,0,0,,6,,,66,127
3856,note_off,12,0,0,,7,,,67,127
3929,note_on,73,0,0,,4,,,64,127
3941,note_off,12,0,0,,6,,,66,127
4012,note_off,71,0,0,,10,,,57,127
4014,note_on,2,0,0,,2,,,62,127
4026,note_off,12,0,0,,4,,,64,127
4184,note_on,158,0,0,,8,,,80,127
4353,note_off,169,0,0,,8,,,80,127
4355,note_on,2,0,0,,10,,,81,127
4524,note_off,169,0,0,,2,,,62,127
4526,note_on,2,0,0,,6,,,66,127
4695,note_off,169,0,0,,10,,,81,127
4697,note_on,2,0,0,,11,,,82,127
4866,note_off,169,0,0,,11,,,82,127
4868,note_on,2,0,0,,12,,,83,127
5037,note_off,169,0,0,,6,,,66,127
5039,note_on,2,0,0,,7,,,67,127
5123,note_off,84,0,0,,12,,,83,127
5125,note_on,2,0,0,,10,,,81,127
5210,note_on,85,0,0,,7,,,79,127
5222,note_off,12,0,0,,10,,,81,127
5295,note_on,73,0,0,,6,,,78,127
5307,note_off,12,0,0,,7,,,79,127
5380,note_on,73,0,0,,4,,,76,127
5392,note_off,12,0,0,,6,,,78,127
5465,note_on,73,0,0,,2,,,74,127
5477,note_off,12,0,0,,4,,,76,127
5548,note_off,71,0,0,,7,,,67,127
5550,note_on,2,0,0,,1,,,73,127
5550,note_on,0,0,0,,10,,,57,127
5562,note_off,12,0,0,,2,,,74,127
5635,note_on,73,0,0,,12,,,71,127
5678,note_off,43,0,0,,1,,,73,127
5721,note_on,43,0,0,,10,,,69,127
5733,note_off,12,0,0,,12,,,71,127
5806,note_on,73,0,0,,7,,,67,127
5818,note_off,12,0,0,,10,,,69,127
5891,note_on,73,0,0,,6,,,66,127
5903,note_off,12,0,0,,7,,,67,127
5976,note_on,73,0,0,,4,,,64,127
5988,note_off,12,0,0,,6,,,66,127
6059,note_off,71,0,0,,10,,,57,127
6061,note_on,2,0,0,,2,,,62,127
6073,note_off,12,0,0,,4,,,64,127
6231,note_on,158,0,0,,10,,,69,127
6398,note_off,167,0,0,,2,,,62,127
6400,note_off,2,0,0,,10,,,69,127
6402,note_on,2,0,0,,2,,,74,127
6402,note_on,0,0,0,,6,,,66,127
6571,note_off,169,0,0,,6,,,66,127
6573,note_on,2,0,0,,4,,,64,127
6742,note_off,169,0,0,,4,,,64,127
6742,note_off,0,0,0,,2,,,74,127
6744,note_on,2,0,0,,1,,,73,127
6744,note_on,0,0,0,,10,,,57,127
6915,note_on,171,0,0,,10,,,69,127
7082,note_off,167,0,0,,10,,,57,127
7084,note_off,2,0,0,,10,,,69,127
7086,note_on,2,0,0,,2,,,62,127
7118,note_off,32,0,0,,1,,,73,127
7257,note_on,139,0,0,,10,,,69,127
7426,note_off,169,0,0,,10,,,69,127
7428,note_on,2,0,0,,2,,,74,127
7428,note_on,0,0,0,,6,,,78,127
7597,note_off,169,0,0,,2,,,62,127
7599,note_on,2,0,0,,10,,,57,127
7768,note_off,169,0,0,,6,,,78,127
7768,note_off,0,0,0,,2,,,74,127
7770,note_on,2,0,0,,1,,,73,127
7770,note_on,0,0,0,,4,,,76,127
7939,note_off,169,0,0,,4,,,76,127
7939,note_off,0,0,0,,1,,,73,127
7941,note_on,2,0,0,,7,,,79,127
8110,note_off,169,0,0,,10,,,57,127
8112,note_on,2,0,0,,2,,,62,127
8137,note_off,25,0,0,,7,,,79,127
8283,note_on,146,0,0,,10,,,69,127
8450,note_off,167,0,0,,2,,,62,127
8452,note_off,2,0,0,,10,,,69,127
8454,note_on,2,0,0,,2,,,74,127
8454,note_on,0,0,0,,6,,,66,127
8623,note_off,169,0,0,,6,,,66,127
8625,note_on,2,0,0,,4,,,64,127
8794,note_off,169,0,0,,4,,,64,127
8794,note_off,0,0,0,,2,,,74,127
8796,note_on,2,0,0,,1,,,73,127
8796,note_on,0,0,0,,10,,,57,127
8967,note_on,171,0,0,,10,,,69,127
9134,note_off,167,0,0,,10,,,57,127
9136,note_off,2,0,0,,10,,,69,127
9138,note_on,2,0,0,,2,,,62,127
9170,note_off,32,0,0,,1,,,73,127
9309,note_on,139,0,0,,10,,,69,127
9478,note_off,169,0,0,,10,,,69,127
9480,note_on,2,0,0,,6,,,78,127
9480,note_on,0,0,0,,2,,,74,127
9649,note_off,169,0,0,,2,,,62,127
9651,note_on,2,0,0,,10,,,57,127
9820,note_off,169,0,0,,2,,,74,127
9820,note_off,0,0,0,,6,,,78,127
9822,note_on,2,0,0,,1,,,73,127
9822,note_on,0,0,0,,4,,,76,127
9991,note_off,169,0,0,,4,,,76,127
9991,note_off,0,0,0,,1,,,73,127
9993,note_on,2,0,0,,7,,,79,127
10162,note_off,169,0,0,,10,,,57,127
10164,note_on,2,0,0,,2,,,74,127
10164,note_on,0,0,0,,2,,,50,127
10331,note_off,167,0,0,,7,,,79,127
10335,note_on,4,0,0,,6,,,78,127
10504,note_off,169,0,0,,6,,,78,127
10506,note_on,2,0,0,,7,,,79,127
10675,note_off,169,0,0,,7,,,79,127
10675,note_off,0,0,0,,2,,,50,127
10676,note_off,1,0,0,,2,,,74,127
10677,note_on,1,0,0,,10,,,81,127
10677,note_on,0,0,0,,6,,,54,127
10762,note_on,85,0,0,,7,,,79,127
10783,note_off,21,0,0,,10,,,81,127
10847,note_on,64,0,0,,6,,,78,127
10859,note_off,12,0,0,,7,,,79,127
10932,note_on,73,0,0,,4,,,76,127
10944,note_off,12,0,0,,6,,,78,127
11017,note_on,73,0,0,,2,,,74,127
11029,note_off,12,0,0,,4,,,76,127
11102,note_on,73,0,0,,1,,,73,127
11114,note_off,12,0,0,,2,,,74,127
11185,note_off,71,0,0,,6,,,54,127
11187,note_on,2,0,0,,12,,,71,127
11187,note_on,0,0,0,,7,,,55,127
11199,note_off,12,0,0,,1,,,73,127
11272,note_on,73,0,0,,10,,,69,127
11284,note_off,12,0,0,,12,,,71,127
11357,note_on,73,0,0,,7,,,67,127
11369,note_off,12,0,0,,10,,,69,127
11442,note_on,73,0,0,,6,,,66,127
11454,note_off,12,0,0,,7,,,67,127
11527,note_on,73,0,0,,4,,,64,127
11539,note_off,12,0,0,,6,,,66,127
11612,note_on,73,0,0,,2,,,62,127
11624,note_off,12,0,0,,4,,,64,127
11695,note_off,71,0,0,,7,,,55,127
11697,note_on,2,0,0,,1,,,61,127
11697,note_on,0,0,0,,10,,,45,127
11709,note_off,12,0,0,,2,,,62,127
11782,note_on,73,0,0,,12,,,59,127
11794,note_off,12,0,0,,1,,,61,127
11867,note_on,73,0,0,,10,,,57,127
11879,note_off,12,0,0,,12,,,59,127
11952,note_on,73,0,0,,7,,,55,127
11964,note_off,12,0,0,,10,,,57,127
12037,note_on,73,0,0,,6,,,54,127
12049,note_off,12,0,0,,7,,,55,127
12122,note_on,73,0,0,,4,,,52,127
12134,note_off,12,0,0,,6,,,54,127
12205,note_off,71,0,0,,10,,,45,127
12207,note_on,2,0,0,,2,,,74,127
12207,note_on,0,0,0,,2,,,50,127
12219,note_off,12,0,0,,4,,,52,127
12375,note_off,156,0,0,,2,,,74,127
12377,note_on,2,0,0,,6,,,78,127
12546,note_off,169,0,0,,6,,,78,127
12548,note_on,2,0,0,,7,,,79,127
12717,note_off,169,0,0,,7,,,79,127
12717,note_off,0,0,0,,2,,,50,127
12719,note_on,2,0,0,,10,,,81,127
12719,note_on,0,0,0,,6,,,54,127
12804,note_on,85,0,0,,7,,,79,127
12825,note_off,21,0,0,,10,,,81,127
12889,note_on,64,0,0,,6,,,78,127
12901,note_off,12,0,0,,7,,,79,127
12974,note_on,73,0,0,,4,,,76,127
12986,note_off,12,0,0,,6,,,78,127
13059,note_on,73,0,0,,2,,,74,127
13071,note_off,12,0,0,,4,,,76,127
13144,note_on,73,0,0,,1,,,73,127
13156,note_off,12,0,0,,2,,,74,127
13227,note_off,71,0,0,,6,,,54,127
13229,note_on,2,0,0,,12,,,71,127
13229,note_on,0,0,0,,7,,,55,127
13241,note_off,12,0,0,,1,,,73,127
13314,note_on,73,0,0,,10,,,69,127
13326,note_off,12,0,0,,12,,,71,127
13399,note_on,73,0,0,,7,,,67,127
13411,note_off,12,0,0,,10,,,69,127
13484,note_on,73,0,0,,6,,,66,127
13496,note_off,12,0,0,,7,,,67,127
13569,note_on,73,0,0,,4,,,64,127
13581,note_off,12,0,0,,6,,,66,127
13654,note_on,73,0,0,,2,,,62,127
13666,note_off,12,0,0,,4,,,64,127
13737,note_off,71,0,0,,7,,,55,127
13739,note_on,2,0,0,,1,,,61,127
13739,note_on,0,0,0,,10,,,45,127
13751,note_off,12,0,0,,2,,,62,127
13824,note_on,73,0,0,,12,,,59,127
13836,note_off,12,0,0,,1,,,61,127
13909,note_on,73,0,0,,10,,,57,127
13921,note_off,12,0,0,,12,,,59,127
13994,note_on,73,0,0,,7,,,55,127
14006,note_off,12,0,0,,10,,,57,127
14079,note_on,73,0,0,,6,,,54,127
14091,note_off,12,0,0,,7,,,55,127
14164,note_on,73,0,0,,4,,,52,127
14176,note_off,12,0,0,,6,,,54,127
14247,note_off,71,0,0,,10,,,45,127
14249,note_on,2,0,0,,2,,,50,127
14261,note_off,12,0,0,,4,,,52,127
14419,note_on,158,0,0,,10,,,69,127
14503,note_off,84,0,0,,2,,,50,127
14505,note_on,2,0,0,,4,,,52,127
14589,note_off,84,0,0,,10,,,69,127
14591,note_on,2,0,0,,2,,,74,127
14591,note_on,0,0,0,,6,,,54,127
14603,note_off,12,0,0,,4,,,52,127
14676,note_on,73,0,0,,7,,,55,127
14688,note_off,12,0,0,,6,,,54,127
14761,note_on,73,0,0,,10,,,57,127
14773,note_off,12,0,0,,7,,,55,127
14846,note_on,73,0,0,,12,,,59,127
14858,note_off,12,0,0,,10,,,57,127
14929,note_off,71,0,0,,2,,,74,127
14931,note_on,2,0,0,,4,,,76,127
14931,note_on,0,0,0,,1,,,61,127
14943,note_off,12,0,0,,12,,,59,127
15016,note_on,73,0,0,,2,,,62,127
15028,note_off,12,0,0,,1,,,61,127
15099,note_off,71,0,0,,4,,,76,127
15101,note_on,2,0,0,,7,,,67,127
15101,note_on,0,0,0,,4,,,64,127
15113,note_off,12,0,0,,2,,,62,127
15186,note_on,73,0,0,,1,,,61,127
15198,note_off,12,0,0,,4,,,64,127
15269,note_off,71,0,0,,7,,,67,127
15271,note_on,2,0,0,,6,,,66,127
15271,note_on,0,0,0,,2,,,50,127
15283,note_off,12,0,0,,1,,,61,127
15439,note_off,156,0,0,,6,,,66,127
15441,note_on,2,0,0,,10,,,69,127
15525,note_off,84,0,0,,2,,,50,127
15527,note_on,2,0,0,,4,,,52,127
15611,note_off,84,0,0,,10,,,69,127
15613,note_on,2,0,0,,2,,,74,127
15613,note_on,0,0,0,,6,,,54,127
15625,note_off,12,0,0,,4,,,52,127
15698,note_on,73,0,0,,7,,,55,127
15710,note_off,12,0,0,,6,,,54,127
15783,note_on,73,0,0,,10,,,57,127
15795,note_off,12,0,0,,7,,,55,127
15868,note_on,73,0,0,,12,,,59,127
15880,note_off,12,0,0,,10,,,57,127
15951,note_off,71,0,0,,2,,,74,127
15953,note_on,2,0,0,,4,,,76,127
15953,note_on,0,0,0,,1,,,61,127
15965,note_off,12,0,0,,12,,,59,127
16038,note_on,73,0,0,,2,,,62,127
16050,note_off,12,0,0,,1,,,61,127
16121,note_off,71,0,0,,4,,,76,127
16123,note_on,2,0,0,,7,,,67,127
16123,note_on,0,0,0,,4,,,64,127
16135,note_off,12,0,0,,2,,,62,127
16208,note_on,73,0,0,,1,,,61,127
16220,note_off,12,0,0,,4,,,64,127
16291,note_off,71,0,0,,7,,,67,127
16293,note_on,2,0,0,,6,,,66,127
16293,note_on,0,0,0,,2,,,50,127
16305,note_off,12,0,0,,1,,,61,127
16461,note_off,156,0,0,,6,,,66,127
16463,note_on,2,0,0,,10,,,69,127
16547,note_off,84,0,0,,2,,,50,127
16549,note_on,2,0,0,,4,,,52,127
16633,note_off,84,0,0,,10,,,69,127
16635,note_on,2,0,0,,2,,,74,127
16635,note_on,0,0,0,,6,,,54,127
16647,note_off,12,0,0,,4,,,52,127
16720,note_on,73,0,0,,7,,,55,127
16732,note_off,12,0,0,,6,,,54,127
16805,note_on,73,0,0,,10,,,57,127
16817,note_off,12,0,0,,7,,,55,127
16890,note_on,73,0,0,,12,,,59,127
16902,note_off,12,0,0,,10,,,57,127
16973,note_off,71,0,0,,2,,,74,127
16975,note_on,2,0,0,,4,,,76,127
16975,note_on,0,0,0,,1,,,61,127
16987,note_off,12,0,0,,12,,,59,127
17060,note_on,73,0,0,,2,,,62,127
17072,note_off,12,0,0,,1,,,61,127
17143,note_off,71,0,0,,4,,,76,127
17145,note_on,2,0,0,,7,,,67,127
17145,note_on,0,0,0,,4,,,64,127
17157,note_off,12,0,0,,2,,,62,127
17230,note_on,73,0,0,,1,,,61,127
17242,note_off,12,0,0,,4,,,64,127
17313,note_off,71,0,0,,7,,,67,127
17315,note_on,2,0,0,,6,,,66,127
17315,note_on,0,0,0,,2,,,62,127
17327,note_off,12,0,0,,1,,,61,127
17400,note_on,73,0,0,,1,,,61,127
17412,note_off,12,0,0,,2,,,62,127
17483,note_off,71,0,0,,6,,,66,127
17485,note_on,2,0,0,,2,,,74,127
17485,note_on,0,0,0,,12,,,59,127
17497,note_off,12,0,0,,1,,,61,127
17570,note_on,73,0,0,,10,,,57,127
17582,note_off,12,0,0,,12,,,59,127
17655,note_on,73,0,0,,8,,,56,127
17667,note_off,12,0,0,,10,,,57,127
17740,note_on,73,0,0,,6,,,54,127
17752,note_off,12,0,0,,8,,,56,127
17825,note_on,73,0,0,,4,,,52,127
17837,note_off,12,0,0,,6,,,54,127
17908,note_off,71,0,0,,2,,,74,127
17910,note_on,2,0,0,,1,,,73,127
17995,note_on,85,0,0,,12,,,71,127
18007,note_off,12,0,0,,1,,,73,127
18080,note_on,73,0,0,,10,,,69,127
18092,note_off,12,0,0,,12,,,71,127
18165,note_on,73,0,0,,8,,,68,127
18177,note_off,12,0,0,,10,,,69,127
18250,note_on,73,0,0,,2,,,74,127
18293,note_off,43,0,0,,8,,,68,127
18334,note_off,41,0,0,,4,,,52,127
18336,note_on,2,0,0,,1,,,73,127
18336,note_on,0,0,0,,4,,,52,127
18336,note_on,0,0,0,,10,,,57,127
18348,note_off,12,0,0,,2,,,74,127
18421,note_on,73,0,0,,12,,,71,127
18433,note_off,12,0,0,,1,,,73,127
18506,note_on,73,0,0,,10,,,69,127
18518,note_off,12,0,0,,12,,,71,127
18591,note_on,73,0,0,,8,,,68,127
18603,note_off,12,0,0,,10,,,69,127
18676,note_on,73,0,0,,10,,,69,127
18688,note_off,12,0,0,,8,,,68,127
18761,note_on,73,0,0,,4,,,76,127
18804,note_off,43,0,0,,10,,,69,127
18845,note_off,41,0,0,,10,,,57,127
18845,note_off,0,0,0,,4,,,52,127
18847,note_on,2,0,0,,2,,,74,127
18847,note_on,0,0,0,,4,,,52,127
18847,note_on,0,0,0,,12,,,59,127
18859,note_off,12,0,0,,4,,,76,127
18932,note_on,73,0,0,,1,,,73,127
18944,note_off,12,0,0,,2,,,74,127
19017,note_on,73,0,0,,12,,,71,127
19029,note_off,12,0,0,,1,,,73,127
19102,note_on,73,0,0,,10,,,69,127
19114,note_off,12,0,0,,12,,,71,127
19187,note_on,73,0,0,,12,,,71,127
19199,note_off,12,0,0,,10,,,69,127
19272,note_on,73,0,0,,6,,,78,127
19315,note_off,43,0,0,,12,,,71,127
19356,note_off,41,0,0,,12,,,59,127
19356,note_off,0,0,0,,4,,,52,127
19358,note_on,2,0,0,,4,,,76,127
19358,note_on,0,0,0,,1,,,61,127
19358,note_on,0,0,0,,4,,,52,127
19370,note_off,12,0,0,,6,,,78,127
19443,note_on,73,0,0,,2,,,74,127
19455,note_off,12,0,0,,4,,,76,127
19528,note_on,73,0,0,,1,,,73,127
19540,note_off,12,0,0,,2,,,74,127
19613,note_on,73,0,0,,12,,,71,127
19625,note_off,12,0,0,,1,,,73,127
19698,note_on,73,0,0,,1,,,73,127
19710,note_off,12,0,0,,12,,,71,127
19783,note_on,73,0,0,,8,,,80,127
19826,note_off,43,0,0,,1,,,73,127
19867,note_off,41,0,0,,4,,,52,127
19867,note_off,0,0,0,,1,,,61,127
19869,note_on,2,0,0,,6,,,78,127
19869,note_on,0,0,0,,4,,,52,127
19869,note_on,0,0,0,,2,,,62,127
19881,note_off,12,0,0,,8,,,80,127
19954,note_on,73,0,0,,4,,,76,127
19966,note_off,12,0,0,,6,,,78,127
20039,note_on,73,0,0,,2,,,74,127
20051,note_off,12,0,0,,4,,,76,127
20124,note_on,73,0,0,,1,,,73,127
20136,note_off,12,0,0,,2,,,74,127
20209,note_on,73,0,0,,2,,,74,127
20221,note_off,12,0,0,,1,,,73,127
20294,note_on,73,0,0,,10,,,81,127
20337,note_off,43,0,0,,2,,,74,127
20378,note_off,41,0,0,,2,,,62,127
20378,note_off,0,0,0,,4,,,52,127
20380,note_on,2,0,0,,8,,,80,127
20380,note_on,0,0,0,,4,,,64,127
20380,note_on,0,0,0,,4,,,52,127
20392,note_off,12,0,0,,10,,,81,127
20465,note_on,73,0,0,,6,,,78,127
20477,note_off,12,0,0,,8,,,80,127
20550,note_on,73,0,0,,4,,,76,127
20562,note_off,12,0,0,,6,,,78,127
20635,note_on,73,0,0,,2,,,74,127
20647,note_off,12,0,0,,4,,,76,127
20720,note_on,73,0,0,,1,,,73,127
20732,note_off,12,0,0,,2,,,74,127
20805,note_on,73,0,0,,12,,,71,127
20817,note_off,12,0,0,,1,,,73,127
20888,note_off,71,0,0,,4,,,52,127
20888,note_off,0,0,0,,4,,,64,127
20890,note_on,2,0,0,,1,,,73,127
20890,note_on,0,0,0,,4,,,64,127
20890,note_on,0,0,0,,10,,,57,127
20902,note_off,12,0,0,,12,,,71,127
20975,note_on,73,0,0,,4,,,76,127
21018,note_off,43,0,0,,1,,,73,127
21061,note_on,43,0,0,,2,,,74,127
21073,note_off,12,0,0,,4,,,76,127
21146,note_on,73,0,0,,1,,,73,127
21158,note_off,12,0,0,,2,,,74,127
21231,note_on,73,0,0,,12,,,71,127
21243,note_off,12,0,0,,1,,,73,127
21316,note_on,73,0,0,,10,,,69,127
21328,note_off,12,0,0,,12,,,71,127
21399,note_off,71,0,0,,10,,,57,127
21399,note_off,0,0,0,,4,,,64,127
21401,note_on,2,0,0,,8,,,68,127
21401,note_on,0,0,0,,4,,,52,127
21413,note_off,12,0,0,,10,,,69,127
21486,note_on,73,0,0,,6,,,66,127
21570,note_off,84,0,0,,8,,,68,127
21572,note_on,2,0,0,,4,,,64,127
21584,note_off,12,0,0,,6,,,66,127
21657,note_on,73,0,0,,2,,,62,127
21669,note_off,12,0,0,,4,,,64,127
21742,note_on,73,0,0,,1,,,61,127
21754,note_off,12,0,0,,2,,,62,127
21827,note_on,73,0,0,,12,,,59,127
21839,note_off,12,0,0,,1,,,61,127
21911,note_off,72,0,0,,4,,,52,127
21912,note_on,1,0,0,,1,,,73,127
21912,note_on,0,0,0,,10,,,57,127
21924,note_off,12,0,0,,12,,,59,127
21997,note_on,73,0,0,,4,,,76,127
22081,note_off,84,0,0,,1,,,73,127
22083,note_on,2,0,0,,2,,,74,127
22095,note_off,12,0,0,,4,,,76,127
22168,note_on,73,0,0,,1,,,73,127
22180,note_off,12,0,0,,2,,,74,127
22253,note_on,73,0,0,,12,,,71,127
22265,note_off,12,0,0,,1,,,73,127
22338,note_on,73,0,0,,10,,,69,127
22350,note_off,12,0,0,,12,,,71,127
22421,note_off,71,0,0,,10,,,57,127
22423,note_on,2,0,0,,8,,,68,127
22423,note_on,0,0,0,,4,,,52,127
22435,note_off,12,0,0,,10,,,69,127
22508,note_on,73,0,0,,6,,,66,127
22592,note_off,84,0,0,,8,,,68,127
22594,note_on,2,0,0,,4,,,64,127
22606,note_off,12,0,0,,6,,,66,127
22679,note_on,73,0,0,,2,,,62,127
22691,note_off,12,0,0,,4,,,64,127
22764,note_on,73,0,0,,1,,,61,127
22776,note_off,12,0,0,,2,,,62,127
22849,note_on,73,0,0,,12,,,59,127
22861,note_off,12,0,0,,1,,,61,127
22933,note_off,72,0,0,,4,,,52,127
22934,note_on,1,0,0,,1,,,73,127
22934,note_on,0,0,0,,10,,,57,127
22946,note_off,12,0,0,,12,,,59,127
23019,note_on,73,0,0,,4,,,76,127
23031,note_off,12,0,0,,1,,,73,127
23104,note_on,73,0,0,,2,,,74,127
23116,note_off,12,0,0,,4,,,76,127
23189,note_on,73,0,0,,1,,,73,127
23201,note_off,12,0,0,,2,,,74,127
23274,note_on,73,0,0,,12,,,71,127
23286,note_off,12,0,0,,1,,,73,127
23359,note_on,73,0,0,,10,,,69,127
23371,note_off,12,0,0,,12,,,71,127
23442,note_off,71,0,0,,10,,,57,127
23444,note_on,2,0,0,,8,,,68,127
23444,note_on,0,0,0,,4,,,52,127
23456,note_off,12,0,0,,10,,,69,127
23529,note_on,73,0,0,,6,,,66,127
23541,note_off,12,0,0,,8,,,68,127
23615,note_on,74,0,0,,4,,,64,127
23627,note_off,12,0,0,,6,,,66,127
23700,note_on,73,0,0,,2,,,62,127
23712,note_off,12,0,0,,4,,,64,127
23785,note_on,73,0,0,,1,,,61,127
23797,note_off,12,0,0,,2,,,62,127
23870,note_on,73,0,0,,12,,,59,127
23882,note_off,12,0,0,,1,,,61,127
23953,note_off,71,0,0,,4,,,52,127
23955,note_on,2,0,0,,10,,,57,127
23967,note_off,12,0,0,,12,,,59,127
24125,note_on,158,0,0,,5,,,65,127
24296,note_on,171,0,0,,0,,,72,127
24296,note_on,0,0,0,,0,,,84,127
24466,note_off,170,0,0,,10,,,57,127
24467,note_on,1,0,0,,7,,,55,127
24636,note_off,169,0,0,,0,,,84,127
24636,note_off,0,0,0,,0,,,72,127
24638,note_on,2,0,0,,12,,,83,127
24638,note_on,0,0,0,,12,,,71,127
24808,note_off,170,0,0,,5,,,65,127
24809,note_on,1,0,0,,4,,,64,127
24979,note_off,170,0,0,,7,,,55,127
24980,note_on,1,0,0,,5,,,53,127
25149,note_off,169,0,0,,12,,,71,127
25149,note_off,0,0,0,,12,,,83,127
25150,note_off,1,0,0,,4,,,64,127
25151,note_on,1,0,0,,10,,,69,127
25151,note_on,0,0,0,,10,,,81,127
25151,note_on,0,0,0,,2,,,62,127
25491,note_off,340,0,0,,2,,,62,127
25492,note_off,1,0,0,,5,,,53,127
25493,note_on,1,0,0,,4,,,52,127
25493,note_on,0,0,0,,0,,,60,127
25662,note_off,169,0,0,,0,,,60,127
25662,note_off,0,0,0,,10,,,81,127
25662,note_off,0,0,0,,10,,,69,127
25664,note_on,2,0,0,,8,,,68,127
25664,note_on,0,0,0,,8,,,80,127
25664,note_on,0,0,0,,12,,,59,127
25833,note_off,169,0,0,,12,,,59,127
25835,note_on,2,0,0,,2,,,62,127
26004,note_off,169,0,0,,2,,,62,127
26005,note_off,1,0,0,,8,,,80,127
26005,note_off,0,0,0,,8,,,68,127
26005,note_off,0,0,0,,4,,,52,127
26006,note_on,1,0,0,,10,,,57,127
26177,note_on,171,0,0,,5,,,65,127
26348,note_on,171,0,0,,0,,,84,127
26348,note_on,0,0,0,,0,,,72,127
26518,note_off,170,0,0,,10,,,57,127
26519,note_on,1,0,0,,7,,,55,127
26688,note_off,169,0,0,,0,,,72,127
26688,note_off,0,0,0,,0,,,84,127
26690,note_on,2,0,0,,12,,,83,127
26690,note_on,0,0,0,,12,,,71,127
26860,note_off,170,0,0,,5,,,65,127
26861,note_on,1,0,0,,4,,,64,127
27031,note_off,170,0,0,,7,,,55,127
27032,note_on,1,0,0,,5,,,53,127
27201,note_off,169,0,0,,12,,,71,127
27201,note_off,0,0,0,,12,,,83,127
27202,note_off,1,0,0,,4,,,64,127
27203,note_on,1,0,0,,10,,,81,127
27203,note_on,0,0,0,,10,,,69,127
27203,note_on,0,0,0,,2,,,62,127
27543,note_off,340,0,0,,2,,,62,127
27544,note_off,1,0,0,,5,,,53,127
27545,note_on,1,0,0,,0,,,60,127
27545,note_on,0,0,0,,4,,,52,127
27714,note_off,169,0,0,,0,,,60,127
27714,note_off,0,0,0,,10,,,69,127
27714,note_off,0,0,0,,10,,,81,127
27716,note_on,2,0,0,,7,,,79,127
27716,note_on,0,0,0,,7,,,67,127
27716,note_on,0,0,0,,12,,,59,127
27885,note_off,169,0,0,,12,,,59,127
27887,note_on,2,0,0,,1,,,61,127
28056,note_off,169,0,0,,1,,,61,127
28057,note_off,1,0,0,,4,,,52,127
28058,note_on,1,0,0,,2,,,50,127
28227,note_off,169,0,0,,7,,,67,127
28227,note_off,0,0,0,,7,,,79,127
28229,note_on,2,0,0,,5,,,77,127
28229,note_on,0,0,0,,5,,,65,127
28400,note_on,171,0,0,,2,,,62,127
28569,note_off,169,0,0,,2,,,62,127
28570,note_off,1,0,0,,5,,,65,127
28570,note_off,0,0,0,,2,,,50,127
28571,note_on,1,0,0,,4,,,52,127
28740,note_off,169,0,0,,5,,,77,127
28742,note_on,2,0,0,,4,,,76,127
28827,note_on,85,0,0,,2,,,74,127
28839,note_off,12,0,0,,4,,,76,127
28910,note_off,71,0,0,,4,,,52,127
28912,note_on,2,0,0,,0,,,72,127
28912,note_on,0,0,0,,8,,,56,127
28924,note_off,12,0,0,,2,,,74,127
28997,note_on,73,0,0,,12,,,71,127
29009,note_off,12,0,0,,0,,,72,127
29080,note_off,71,0,0,,8,,,56,127
29082,note_on,2,0,0,,0,,,72,127
29082,note_on,0,0,0,,10,,,57,127
29094,note_off,12,0,0,,12,,,71,127
29167,note_on,73,0,0,,2,,,74,127
29179,note_off,12,0,0,,0,,,72,127
29252,note_on,73,0,0,,4,,,76,127
29264,note_off,12,0,0,,2,,,74,127
29337,note_on,73,0,0,,0,,,72,127
29349,note_off,12,0,0,,4,,,76,127
29420,note_off,71,0,0,,10,,,57,127
29422,note_on,2,0,0,,12,,,71,127
29422,note_on,0,0,0,,2,,,50,127
29434,note_off,12,0,0,,0,,,72,127
29507,note_on,73,0,0,,10,,,69,127
29519,note_off,12,0,0,,12,,,71,127
29590,note_off,71,0,0,,2,,,50,127
29592,note_on,2,0,0,,12,,,71,127
29592,note_on,0,0,0,,4,,,52,127
29604,note_off,12,0,0,,10,,,69,127
29677,note_on,73,0,0,,0,,,72,127
29689,note_off,12,0,0,,12,,,71,127
29760,note_off,71,0,0,,4,,,52,127
29762,note_on,2,0,0,,2,,,74,127
29762,note_on,0,0,0,,2,,,50,127
29774,note_off,12,0,0,,0,,,72,127
29847,note_on,73,0,0,,12,,,71,127
29859,note_off,12,0,0,,2,,,74,127
29930,note_off,71,0,0,,2,,,50,127
29932,note_on,2,0,0,,10,,,69,127
29932,note_on,0,0,0,,4,,,52,127
29944,note_off,12,0,0,,12,,,71,127
30017,note_on,73,0,0,,8,,,68,127
30029,note_off,12,0,0,,10,,,69,127
30100,note_off,71,0,0,,4,,,52,127
30102,note_on,2,0,0,,10,,,69,127
30102,note_on,0,0,0,,10,,,57,127
30114,note_off,12,0,0,,8,,,68,127
30272,note_on,158,0,0,,5,,,65,127
30441,note_off,169,0,0,,10,,,69,127
30443,note_on,2,0,0,,0,,,72,127
30443,note_on,0,0,0,,0,,,84,127
30613,note_off,170,0,0,,10,,,57,127
30614,note_on,1,0,0,,7,,,55,127
30783,note_off,169,0,0,,0,,,84,127
30783,note_off,0,0,0,,0,,,72,127
30785,note_on,2,0,0,,12,,,71,127
30785,note_on,0,0,0,,12,,,83,127
30955,note_off,170,0,0,,5,,,65,127
30956,note_on,1,0,0,,4,,,64,127
31126,note_off,170,0,0,,7,,,55,127
31127,note_on,1,0,0,,5,,,53,127
31296,note_off,169,0,0,,12,,,83,127
31296,note_off,0,0,0,,12,,,71,127
31297,note_off,1,0,0,,4,,,64,127
31298,note_on,1,0,0,,10,,,69,127
31298,note_on,0,0,0,,10,,,81,127
31298,note_on,0,0,0,,2,,,62,127
31638,note_off,340,0,0,,2,,,62,127
31639,note_off,1,0,0,,5,,,53,127
31640,note_on,1,0,0,,0,,,60,127
31640,note_on,0,0,0,,4,,,52,127
31809,note_off,169,0,0,,0,,,60,127
31809,note_off,0,0,0,,10,,,81,127
31809,note_off,0,0,0,,10,,,69,127
31811,note_on,2,0,0,,8,,,68,127
31811,note_on,0,0,0,,8,,,80,127
31811,note_on,0,0,0,,12,,,59,127
31980,note_off,169,0,0,,12,,,59,127
31982,note_on,2,0,0,,2,,,62,127
32151,note_off,169,0,0,,2,,,62,127
32152,note_off,1,0,0,,8,,,80,127
32152,note_off,0,0,0,,8,,,68,127
32152,note_off,0,0,0,,4,,,52,127
32153,note_on,1,0,0,,10,,,57,127
32324,note_on,171,0,0,,5,,,65,127
32495,note_on,171,0,0,,0,,,72,127
32495,note_on,0,0,0,,0,,,84,127
32665,note_off,170,0,0,,10,,,57,127
32666,note_on,1,0,0,,7,,,55,127
32835,note_off,169,0,0,,0,,,84,127
32835,note_off,0,0,0,,0,,,72,127
32837,note_on,2,0,0,,12,,,71,127
32837,note_on,0,0,0,,12,,,83,127
33007,note_off,170,0,0,,5,,,65,127
33008,note_on,1,0,0,,4,,,64,127
33178,note_off,170,0,0,,7,,,55,127
33179,note_on,1,0,0,,5,,,53,127
33348,note_off,169,0,0,,12,,,83,127
33348,note_off,0,0,0,,12,,,71,127
33349,note_off,1,0,0,,4,,,64,127
33350,note_on,1,0,0,,10,,,81,127
33350,note_on,0,0,0,,10,,,69,127
33350,note_on,0,0,0,,2,,,62,127
33690,note_off,340,0,0,,2,,,62,127
33691,note_off,1,0,0,,5,,,53,127
33692,note_on,1,0,0,,0,,,60,127
33692,note_on,0,0,0,,4,,,52,127
33861,note_off,169,0,0,,0,,,60,127
33861,note_off,0,0,0,,10,,,69,127
33861,note_off,0,0,0,,10,,,81,127
33863,note_on,2,0,0,,7,,,79,127
33863,note_on,0,0,0,,7,,,67,127
33863,note_on,0,0,0,,12,,,59,127
34032,note_off,169,0,0,,12,,,59,127
34034,note_on,2,0,0,,1,,,61,127
34203,note_off,169,0,0,,1,,,61,127
34204,note_off,1,0,0,,4,,,52,127
34205,note_on,1,0,0,,2,,,50,127
34374,note_off,169,0,0,,7,,,67,127
34374,note_off,0,0,0,,7,,,79,127
34376,note_on,2,0,0,,5,,,77,127
34376,note_on,0,0,0,,5,,,65,127
34547,note_on,171,0,0,,2,,,62,127
34716,note_off,169,0,0,,2,,,62,127
34717,note_off,1,0,0,,5,,,65,127
34717,note_off,0,0,0,,2,,,50,127
34718,note_on,1,0,0,,4,,,52,127
34887,note_off,169,0,0,,5,,,77,127
34889,note_on,2,0,0,,4,,,76,127
34974,note_on,85,0,0,,2,,,74,127
34986,note_off,12,0,0,,4,,,76,127
35057,note_off,71,0,0,,4,,,52,127
35059,note_on,2,0,0,,0,,,72,127
35059,note_on,0,0,0,,8,,,56,127
35071,note_off,12,0,0,,2,,,74,127
35144,note_on,73,0,0,,12,,,71,127
35156,note_off,12,0,0,,0,,,72,127
35227,note_off,71,0,0,,8,,,56,127
35229,note_on,2,0,0,,0,,,72,127
35229,note_on,0,0,0,,10,,,57,127
35241,note_off,12,0,0,,12,,,71,127
35314,note_on,73,0,0,,2,,,74,127
35326,note_off,12,0,0,,0,,,72,127
35399,note_on,73,0,0,,4,,,76,127
35411,note_off,12,0,0,,2,,,74,127
35484,note_on,73,0,0,,0,,,72,127
35496,note_off,12,0,0,,4,,,76,127
35567,note_off,71,0,0,,10,,,57,127
35569,note_on,2,0,0,,12,,,71,127
35569,note_on,0,0,0,,0,,,48,127
35581,note_off,12,0,0,,0,,,72,127
35654,note_on,73,0,0,,10,,,69,127
35666,note_off,12,0,0,,12,,,71,127
35737,note_off,71,0,0,,0,,,48,127
35739,note_on,2,0,0,,12,,,71,127
35739,note_on,0,0,0,,2,,,50,127
35751,note_off,12,0,0,,10,,,69,127
35824,note_on,73,0,0,,0,,,72,127
35836,note_off,12,0,0,,12,,,71,127
35909,note_on,73,0,0,,2,,,74,127
35921,note_off,12,0,0,,0,,,72,127
35994,note_on,73,0,0,,12,,,71,127
36006,note_off,12,0,0,,2,,,74,127
36077,note_off,71,0,0,,2,,,50,127
36079,note_on,2,0,0,,10,,,69,127
36079,note_on,0,0,0,,4,,,52,127
36091,note_off,12,0,0,,12,,,71,127
36164,note_on,73,0,0,,8,,,68,127
36176,note_off,12,0,0,,10,,,69,127
36247,note_off,71,0,0,,4,,,52,127
36249,note_on,2,0,0,,10,,,69,127
36249,note_on,0,0,0,,10,,,45,127
36261,note_off,12,0,0,,8,,,68,127
36417,note_off,156,0,0,,10,,,69,127
36419,note_on,2,0,0,,1,,,73,127
36503,note_off,84,0,0,,10,,,45,127
36505,note_on,2,0,0,,12,,,47,127
36589,note_off,84,0,0,,1,,,73,127
36591,note_on,2,0,0,,4,,,76,127
36591,note_on,0,0,0,,1,,,49,127
36603,note_off,12,0,0,,12,,,47,127
36676,note_on,73,0,0,,2,,,50,127
36688,note_off,12,0,0,,1,,,49,127
36761,note_on,73,0,0,,4,,,52,127
36773,note_off,12,0,0,,2,,,50,127
36846,note_on,73,0,0,,6,,,54,127
36858,note_off,12,0,0,,4,,,52,127
36929,note_off,71,0,0,,4,,,76,127
36931,note_on,2,0,0,,2,,,74,127
36931,note_on,0,0,0,,8,,,56,127
36943,note_off,12,0,0,,6,,,54,127
37016,note_on,73,0,0,,10,,,57,127
37028,note_off,12,0,0,,8,,,56,127
37099,note_off,71,0,0,,2,,,74,127
37101,note_on,2,0,0,,12,,,71,127
37101,note_on,0,0,0,,12,,,59,127
37113,note_off,12,0,0,,10,,,57,127
37186,note_on,73,0,0,,8,,,56,127
37198,note_off,12,0,0,,12,,,59,127
37269,note_off,71,0,0,,12,,,71,127
37271,note_on,2,0,0,,1,,,73,127
37271,note_on,0,0,0,,10,,,57,127
37283,note_off,12,0,0,,8,,,56,127
37439,note_off,156,0,0,,1,,,73,127
37441,note_on,2,0,0,,10,,,69,127
37525,note_off,84,0,0,,10,,,57,127
37527,note_on,2,0,0,,12,,,59,127
37611,note_off,84,0,0,,10,,,69,127
37613,note_on,2,0,0,,4,,,76,127
37613,note_on,0,0,0,,1,,,61,127
37625,note_off,12,0,0,,12,,,59,127
37698,note_on,73,0,0,,2,,,62,127
37710,note_off,12,0,0,,1,,,61,127
37783,note_on,73,0,0,,4,,,64,127
37795,note_off,12,0,0,,2,,,62,127
37868,note_on,73,0,0,,6,,,66,127
37880,note_off,12,0,0,,4,,,64,127
37951,note_off,71,0,0,,4,,,76,127
37953,note_on,2,0,0,,12,,,83,127
37953,note_on,0,0,0,,8,,,68,127
37965,note_off,12,0,0,,6,,,66,127
38038,note_on,73,0,0,,10,,,69,127
38050,note_off,12,0,0,,8,,,68,127
38121,note_off,71,0,0,,12,,,83,127
38123,note_on,2,0,0,,2,,,74,127
38123,note_on,0,0,0,,12,,,71,127
38135,note_off,12,0,0,,10,,,69,127
38208,note_on,73,0,0,,8,,,68,127
38220,note_off,12,0,0,,12,,,71,127
38291,note_off,71,0,0,,2,,,74,127
38293,note_on,2,0,0,,1,,,73,127
38293,note_on,0,0,0,,10,,,69,127
38305,note_off,12,0,0,,8,,,68,127
38378,note_on,73,0,0,,2,,,74,127
38390,note_off,12,0,0,,1,,,73,127
38463,note_on,73,0,0,,4,,,76,127
38475,note_off,12,0,0,,2,,,74,127
38548,note_on,73,0,0,,1,,,73,127
38560,note_off,12,0,0,,4,,,76,127
38631,note_off,71,0,0,,10,,,69,127
38633,note_on,2,0,0,,12,,,71,127
38633,note_on,0,0,0,,1,,,61,127
38645,note_off,12,0,0,,1,,,73,127
38718,note_on,73,0,0,,10,,,69,127
38730,note_off,12,0,0,,12,,,71,127
38801,note_off,71,0,0,,1,,,61,127
38803,note_on,2,0,0,,12,,,71,127
38803,note_on,0,0,0,,2,,,62,127
38815,note_off,12,0,0,,10,,,69,127
38888,note_on,73,0,0,,1,,,73,127
38900,note_off,12,0,0,,12,,,71,127
38973,note_on,73,0,0,,2,,,74,127
38985,note_off,12,0,0,,1,,,73,127
39058,note_on,73,0,0,,12,,,71,127
39070,note_off,12,0,0,,2,,,74,127
39141,note_off,71,0,0,,2,,,62,127
39143,note_on,2,0,0,,10,,,69,127
39143,note_on,0,0,0,,4,,,64,127
39155,note_off,12,0,0,,12,,,71,127
39228,note_on,73,0,0,,8,,,68,127
39240,note_off,12,0,0,,10,,,69,127
39311,note_off,71,0,0,,4,,,64,127
39313,note_on,2,0,0,,1,,,73,127
39313,note_on,0,0,0,,10,,,57,127
39325,note_off,12,0,0,,8,,,68,127
39398,note_on,73,0,0,,2,,,74,127
39410,note_off,12,0,0,,1,,,73,127
39483,note_on,73,0,0,,4,,,76,127
39495,note_off,12,0,0,,2,,,74,127
39568,note_on,73,0,0,,1,,,73,127
39580,note_off,12,0,0,,4,,,76,127
39651,note_off,71,0,0,,10,,,57,127
39653,note_on,2,0,0,,12,,,71,127
39653,note_on,0,0,0,,1,,,61,127
39665,note_off,12,0,0,,1,,,73,127
39738,note_on,73,0,0,,10,,,69,127
39750,note_off,12,0,0,,12,,,71,127
39821,note_off,71,0,0,,1,,,61,127
39823,note_on,2,0,0,,12,,,71,127
39823,note_on,0,0,0,,2,,,62,127
39835,note_off,12,0,0,,10,,,69,127
39908,note_on,73,0,0,,1,,,73,127
39920,note_off,12,0,0,,12,,,71,127
39993,note_on,73,0,0,,2,,,74,127
40005,note_off,12,0,0,,1,,,73,127
40078,note_on,73,0,0,,12,,,71,127
40090,note_off,12,0,0,,2,,,74,127
40161,note_off,71,0,0,,2,,,62,127
40163,note_on,2,0,0,,10,,,69,127
40163,note_on,0,0,0,,4,,,64,127
40175,note_off,12,0,0,,12,,,71,127
40248,note_on,73,0,0,,8,,,68,127
40260,note_off,12,0,0,,10,,,69,127
40331,note_off,71,0,0,,4,,,64,127
40333,note_on,2,0,0,,10,,,69,127
40333,note_on,0,0,0,,10,,,57,127
40345,note_off,12,0,0,,8,,,68,127
40430,note_off,85,0,0,,10,,,57,127
40502,note_off,72,0,0,,10,,,69,127
40503,note_on,1,0,0,,8,,,68,127
40588,note_on,85,0,0,,6,,,66,127
40600,note_off,12,0,0,,8,,,68,127
40673,note_on,73,0,0,,4,,,64,127
40685,note_off,12,0,0,,6,,,66,127
40758,note_on,73,0,0,,2,,,62,127
40770,note_off,12,0,0,,4,,,64,127
40843,note_on,73,0,0,,1,,,61,127
40855,note_off,12,0,0,,2,,,62,127
40928,note_on,73,0,0,,10,,,81,127
41013,note_on,85,0,0,,8,,,80,127
41025,note_off,12,0,0,,10,,,81,127
41098,note_on,73,0,0,,6,,,78,127
41110,note_off,12,0,0,,8,,,80,127
41181,note_off,71,0,0,,1,,,61,127
41183,note_on,2,0,0,,4,,,76,127
41183,note_on,0,0,0,,2,,,62,127
41195,note_off,12,0,0,,6,,,78,127
41268,note_on,73,0,0,,2,,,74,127
41280,note_off,12,0,0,,4,,,76,127
41351,note_off,71,0,0,,2,,,62,127
41353,note_on,2,0,0,,1,,,73,127
41353,note_on,0,0,0,,4,,,64,127
41365,note_off,12,0,0,,2,,,74,127
41438,note_on,73,0,0,,6,,,78,127
41450,note_off,12,0,0,,1,,,73,127
41523,note_on,73,0,0,,4,,,76,127
41535,note_off,12,0,0,,6,,,78,127
41608,note_on,73,0,0,,2,,,74,127
41620,note_off,12,0,0,,4,,,76,127
41691,note_off,71,0,0,,4,,,64,127
41693,note_on,2,0,0,,1,,,73,127
41693,note_on,0,0,0,,4,,,52,127
41705,note_off,12,0,0,,2,,,74,127
41778,note_on,73,0,0,,12,,,71,127
41790,note_off,12,0,0,,1,,,73,127
41861,note_off,71,0,0,,4,,,52,127
41863,note_on,2,0,0,,10,,,69,127
41863,note_on,0,0,0,,10,,,57,127
41875,note_off,12,0,0,,12,,,71,127
41948,note_on,73,0,0,,10,,,81,127
41960,note_off,12,0,0,,10,,,69,127
42033,note_on,73,0,0,,8,,,80,127
42045,note_off,12,0,0,,10,,,81,127
42118,note_on,73,0,0,,6,,,78,127
42130,note_off,12,0,0,,8,,,80,127
42201,note_off,71,0,0,,10,,,57,127
42203,note_on,2,0,0,,4,,,76,127
42203,note_on,0,0,0,,2,,,50,127
42215,note_off,12,0,0,,6,,,78,127
42288,note_on,73,0,0,,2,,,74,127
42300,note_off,12,0,0,,4,,,76,127
42371,note_off,71,0,0,,2,,,50,127
42373,note_on,2,0,0,,1,,,73,127
42373,note_on,0,0,0,,4,,,52,127
42385,note_off,12,0,0,,2,,,74,127
42458,note_on,73,0,0,,6,,,78,127
42470,note_off,12,0,0,,1,,,73,127
42543,note_on,73,0,0,,4,,,76,127
42555,note_off,12,0,0,,6,,,78,127
42628,note_on,73,0,0,,2,,,74,127
42640,note_off,12,0,0,,4,,,76,127
42713,note_on,73,0,0,,1,,,73,127
42713,note_on,0,0,0,,4,,,40,127
42725,note_off,12,0,0,,2,,,74,127
42798,note_on,73,0,0,,12,,,71,127
42810,note_off,12,0,0,,1,,,73,127
42881,note_off,71,0,0,,4,,,40,127
42882,note_off,1,0,0,,4,,,52,127
42883,note_on,1,0,0,,10,,,69,127
42883,note_on,0,0,0,,10,,,45,127
42895,note_off,12,0,0,,12,,,71,127
43052,note_off,157,0,0,,10,,,45,127
43053,note_on,1,0,0,,4,,,76,127
43053,note_on,0,0,0,,1,,,73,127
43222,note_off,169,0,0,,1,,,73,127
43222,note_off,0,0,0,,4,,,76,127
43223,note_off,1,0,0,,10,,,69,127
43224,note_on,1,0,0,,5,,,77,127
43224,note_on,0,0,0,,2,,,74,127
43393,note_off,169,0,0,,2,,,74,127
43393,note_off,0,0,0,,5,,,77,127
43395,note_on,2,0,0,,4,,,76,127
43395,note_on,0,0,0,,7,,,79,127
43564,note_off,169,0,0,,4,,,76,127
43566,note_on,2,0,0,,10,,,69,127
43736,note_off,170,0,0,,7,,,79,127
43737,note_on,1,0,0,,2,,,74,127
43737,note_on,0,0,0,,5,,,77,127
43906,note_off,169,0,0,,5,,,77,127
43906,note_off,0,0,0,,2,,,74,127
43907,note_off,1,0,0,,10,,,69,127
43908,note_on,1,0,0,,11,,,70,127
43908,note_on,0,0,0,,7,,,43,127
44079,note_on,171,0,0,,4,,,76,127
44079,note_on,0,0,0,,1,,,73,127
44248,note_off,169,0,0,,1,,,73,127
44248,note_off,0,0,0,,4,,,76,127
44249,note_off,1,0,0,,11,,,70,127
44250,note_on,1,0,0,,2,,,74,127
44250,note_on,0,0,0,,5,,,77,127
44419,note_off,169,0,0,,5,,,77,127
44419,note_off,0,0,0,,2,,,74,127
44420,note_off,1,0,0,,7,,,43,127
44421,note_on,1,0,0,,7,,,79,127
44421,note_on,0,0,0,,4,,,76,127
44590,note_off,169,0,0,,4,,,76,127
44592,note_on,2,0,0,,11,,,70,127
44762,note_off,170,0,0,,7,,,79,127
44763,note_on,1,0,0,,5,,,77,127
44763,note_on,0,0,0,,2,,,74,127
44932,note_off,169,0,0,,2,,,74,127
44932,note_off,0,0,0,,5,,,77,127
44933,note_off,1,0,0,,11,,,70,127
44934,note_on,1,0,0,,10,,,69,127
44934,note_on,0,0,0,,10,,,45,127
45105,note_on,171,0,0,,1,,,73,127
45105,note_on,0,0,0,,4,,,76,127
45274,note_off,169,0,0,,4,,,76,127
45274,note_off,0,0,0,,1,,,73,127
45275,note_off,1,0,0,,10,,,69,127
45276,note_on,1,0,0,,5,,,77,127
45276,note_on,0,0,0,,2,,,74,127
45445,note_off,169,0,0,,2,,,74,127
45445,note_off,0,0,0,,5,,,77,127
45446,note_off,1,0,0,,10,,,45,127
45447,note_on,1,0,0,,7,,,79,127
45447,note_on,0,0,0,,4,,,76,127
45616,note_off,169,0,0,,4,,,76,127
45618,note_on,2,0,0,,10,,,69,127
45788,note_off,170,0,0,,7,,,79,127
45789,note_on,1,0,0,,2,,,74,127
45789,note_on,0,0,0,,5,,,77,127
45958,note_off,169,0,0,,5,,,77,127
45958,note_off,0,0,0,,2,,,74,127
45959,note_off,1,0,0,,10,,,69,127
45960,note_on,1,0,0,,11,,,70,127
45960,note_on,0,0,0,,7,,,43,127
46131,note_on,171,0,0,,4,,,76,127
46131,note_on,0,0,0,,1,,,73,127
46300,note_off,169,0,0,,1,,,73,127
46300,note_off,0,0,0,,4,,,76,127
46301,note_off,1,0,0,,11,,,70,127
46302,note_on,1,0,0,,5,,,77,127
46302,note_on,0,0,0,,2,,,74,127
46471,note_off,169,0,0,,2,,,74,127
46471,note_off,0,0,0,,5,,,77,127
46472,note_off,1,0,0,,7,,,43,127
46473,note_on,1,0,0,,4,,,76,127
46473,note_on,0,0,0,,7,,,79,127
46642,note_off,169,0,0,,4,,,76,127
46644,note_on,2,0,0,,11,,,70,127
46814,note_off,170,0,0,,7,,,79,127
46815,note_on,1,0,0,,5,,,77,127
46815,note_on,0,0,0,,2,,,74,127
46984,note_off,169,0,0,,2,,,74,127
46984,note_off,0,0,0,,5,,,77,127
46985,note_off,1,0,0,,11,,,70,127
46986,note_on,1,0,0,,1,,,73,127
46986,note_on,0,0,0,,4,,,76,127
47156,note_off,170,0,0,,1,,,73,127
47157,note_on,1,0,0,,10,,,57,127
47242,note_on,85,0,0,,12,,,59,127
47254,note_off,12,0,0,,10,,,57,127
47327,note_on,73,0,0,,1,,,61,127
47339,note_off,12,0,0,,12,,,59,127
47412,note_on,73,0,0,,2,,,62,127
47424,note_off,12,0,0,,1,,,61,127
47496,note_off,72,0,0,,4,,,76,127
47497,note_on,1,0,0,,4,,,64,127
47509,note_off,12,0,0,,2,,,62,127
47582,note_on,73,0,0,,6,,,66,127
47594,note_off,12,0,0,,4,,,64,127
47667,note_on,73,0,0,,7,,,67,127
47679,note_off,12,0,0,,6,,,66,127
47752,note_on,73,0,0,,4,,,64,127
47764,note_off,12,0,0,,7,,,67,127
47837,note_on,73,0,0,,10,,,69,127
47849,note_off,12,0,0,,4,,,64,127
47922,note_on,73,0,0,,7,,,67,127
47934,note_off,12,0,0,,10,,,69,127
48007,note_on,73,0,0,,6,,,66,127
48019,note_off,12,0,0,,7,,,67,127
48177,note_on,158,0,0,,10,,,69,127
48262,note_on,85,0,0,,12,,,71,127
48274,note_off,12,0,0,,10,,,69,127
48347,note_on,73,0,0,,1,,,73,127
48359,note_off,12,0,0,,12,,,71,127
48432,note_on,73,0,0,,2,,,74,127
48444,note_off,12,0,0,,1,,,73,127
48515,note_off,71,0,0,,6,,,66,127
48517,note_on,2,0,0,,4,,,76,127
48517,note_on,0,0,0,,4,,,64,127
48529,note_off,12,0,0,,2,,,74,127
48602,note_on,73,0,0,,6,,,78,127
48614,note_off,12,0,0,,4,,,76,127
48687,note_on,73,0,0,,7,,,79,127
48699,note_off,12,0,0,,6,,,78,127
48772,note_on,73,0,0,,4,,,76,127
48784,note_off,12,0,0,,7,,,79,127
48857,note_on,73,0,0,,10,,,81,127
48869,note_off,12,0,0,,4,,,76,127
48942,note_on,73,0,0,,7,,,79,127
48954,note_off,12,0,0,,10,,,81,127
49025,note_off,71,0,0,,4,,,64,127
49027,note_on,2,0,0,,6,,,78,127
49027,note_on,0,0,0,,2,,,62,127
49039,note_off,12,0,0,,7,,,79,127
49112,note_on,73,0,0,,4,,,76,127
49124,note_off,12,0,0,,6,,,78,127
49197,note_on,73,0,0,,2,,,74,127
49209,note_off,12,0,0,,4,,,76,127
49282,note_on,73,0,0,,1,,,73,127
49294,note_off,12,0,0,,2,,,74,127
49367,note_on,73,0,0,,12,,,71,127
49379,note_off,12,0,0,,1,,,73,127
49452,note_on,73,0,0,,10,,,69,127
49464,note_off,12,0,0,,12,,,71,127
49535,note_off,71,0,0,,2,,,62,127
49537,note_on,2,0,0,,12,,,83,127
49537,note_on,0,0,0,,7,,,67,127
49549,note_off,12,0,0,,10,,,69,127
49622,note_on,73,0,0,,10,,,81,127
49634,note_off,12,0,0,,12,,,83,127
49707,note_on,73,0,0,,7,,,79,127
49719,note_off,12,0,0,,10,,,81,127
49792,note_on,73,0,0,,6,,,78,127
49804,note_off,12,0,0,,7,,,79,127
49877,note_on,73,0,0,,4,,,76,127
49889,note_off,12,0,0,,6,,,78,127
49962,note_on,73,0,0,,2,,,74,127
49974,note_off,12,0,0,,4,,,76,127
50045,note_off,71,0,0,,7,,,67,127
50047,note_on,2,0,0,,4,,,76,127
50047,note_on,0,0,0,,1,,,61,127
50059,note_off,12,0,0,,2,,,74,127
50132,note_on,73,0,0,,2,,,74,127
50144,note_off,12,0,0,,4,,,76,127
50217,note_on,73,0,0,,1,,,73,127
50229,note_off,12,0,0,,2,,,74,127
50302,note_on,73,0,0,,12,,,71,127
50314,note_off,12,0,0,,1,,,73,127
50387,note_on,73,0,0,,10,,,69,127
50399,note_off,12,0,0,,12,,,71,127
50472,note_on,73,0,0,,7,,,67,127
50484,note_off,12,0,0,,10,,,69,127
50555,note_off,71,0,0,,1,,,61,127
50557,note_on,2,0,0,,10,,,81,127
50557,note_on,0,0,0,,6,,,66,127
50569,note_off,12,0,0,,7,,,67,127
50642,note_on,73,0,0,,7,,,79,127
50654,note_off,12,0,0,,10,,,81,127
50727,note_on,73,0,0,,6,,,78,127
50739,note_off,12,0,0,,7,,,79,127
50812,note_on,73,0,0,,4,,,76,127
50824,note_off,12,0,0,,6,,,78,127
50897,note_on,73,0,0,,2,,,74,127
50909,note_off,12,0,0,,4,,,76,127
50982,note_on,73,0,0,,1,,,73,127
50994,note_off,12,0,0,,2,,,74,127
51065,note_off,71,0,0,,6,,,66,127
51067,note_on,2,0,0,,2,,,74,127
51067,note_on,0,0,0,,12,,,59,127
51079,note_off,12,0,0,,1,,,73,127
51152,note_on,73,0,0,,1,,,73,127
51164,note_off,12,0,0,,2,,,74,127
51237,note_on,73,0,0,,12,,,71,127
51249,note_off,12,0,0,,1,,,73,127
51322,note_on,73,0,0,,10,,,69,127
51334,note_off,12,0,0,,12,,,71,127
51407,note_on,73,0,0,,7,,,67,127
51419,note_off,12,0,0,,10,,,69,127
51492,note_on,73,0,0,,6,,,66,127
51504,note_off,12,0,0,,7,,,67,127
51575,note_off,71,0,0,,12,,,59,127
51577,note_on,2,0,0,,7,,,79,127
51577,note_on,0,0,0,,4,,,64,127
51589,note_off,12,0,0,,6,,,66,127
51662,note_on,73,0,0,,6,,,78,127
51674,note_off,12,0,0,,7,,,79,127
51747,note_on,73,0,0,,4,,,76,127
51759,note_off,12,0,0,,6,,,78,127
51832,note_on,73,0,0,,2,,,74,127
51844,note_off,12,0,0,,4,,,76,127
51917,note_on,73,0,0,,1,,,73,127
51929,note_off,12,0,0,,2,,,74,127
52002,note_on,73,0,0,,12,,,71,127
52014,note_off,12,0,0,,1,,,73,127
52085,note_off,71,0,0,,4,,,64,127
52087,note_on,2,0,0,,1,,,73,127
52087,note_on,0,0,0,,10,,,57,127
52099,note_off,12,0,0,,12,,,71,127
52172,note_on,73,0,0,,12,,,71,127
52184,note_off,12,0,0,,1,,,73,127
52257,note_on,73,0,0,,10,,,69,127
52269,note_off,12,0,0,,12,,,71,127
52342,note_on,73,0,0,,7,,,67,127
52354,note_off,12,0,0,,10,,,69,127
52427,note_on,73,0,0,,6,,,66,127
52439,note_off,12,0,0,,7,,,67,127
52512,note_on,73,0,0,,4,,,64,127
52524,note_off,12,0,0,,6,,,66,127
52595,note_off,71,0,0,,10,,,57,127
52597,note_on,2,0,0,,6,,,66,127
52597,note_on,0,0,0,,2,,,62,127
52609,note_off,12,0,0,,4,,,64,127
52682,note_on,73,0,0,,10,,,69,127
52694,note_off,12,0,0,,6,,,66,127
52767,note_on,73,0,0,,7,,,67,127
52779,note_off,12,0,0,,10,,,69,127
52852,note_on,73,0,0,,6,,,66,127
52864,note_off,12,0,0,,7,,,67,127
52937,note_on,73,0,0,,4,,,64,127
52949,note_off,12,0,0,,6,,,66,127
53017,note_off,68,0,0,,2,,,62,127
53022,note_on,5,0,0,,2,,,62,127
53034,note_off,12,0,0,,4,,,64,127
53107,note_on,73,0,0,,1,,,61,127
53107,note_on,0,0,0,,10,,,57,127
53119,note_off,12,0,0,,2,,,62,127
53192,note_on,73,0,0,,2,,,62,127
53192,note_on,0,0,0,,12,,,59,127
53204,note_off,12,0,0,,10,,,57,127
53204,note_off,0,0,0,,1,,,61,127
53277,note_on,73,0,0,,4,,,64,127
53277,note_on,0,0,0,,1,,,61,127
53289,note_off,12,0,0,,12,,,59,127
53289,note_off,0,0,0,,2,,,62,127
53362,note_on,73,0,0,,6,,,66,127
53362,note_on,0,0,0,,2,,,62,127
53374,note_off,12,0,0,,1,,,61,127
53374,note_off,0,0,0,,4,,,64,127
53447,note_on,73,0,0,,7,,,67,127
53447,note_on,0,0,0,,4,,,64,127
53459,note_off,12,0,0,,2,,,62,127
53459,note_off,0,0,0,,6,,,66,127
53532,note_on,73,0,0,,10,,,69,127
53532,note_on,0,0,0,,6,,,66,127
53544,note_off,12,0,0,,4,,,64,127
53544,note_off,0,0,0,,7,,,67,127
53617,note_on,73,0,0,,12,,,71,127
53617,note_on,0,0,0,,7,,,67,127
53629,note_off,12,0,0,,6,,,66,127
53629,note_off,0,0,0,,10,,,69,127
53702,note_on,73,0,0,,1,,,73,127
53702,note_on,0,0,0,,10,,,69,127
53714,note_off,12,0,0,,7,,,67,127
53714,note_off,0,0,0,,12,,,71,127
53787,note_on,73,0,0,,2,,,74,127
53787,note_on,0,0,0,,12,,,71,127
53799,note_off,12,0,0,,10,,,69,127
53799,note_off,0,0,0,,1,,,73,127
53872,note_on,73,0,0,,4,,,76,127
53872,note_on,0,0,0,,1,,,73,127
53884,note_off,12,0,0,,12,,,71,127
53884,note_off,0,0,0,,2,,,74,127
53957,note_on,73,0,0,,6,,,78,127
53957,note_on,0,0,0,,2,,,74,127
53969,note_off,12,0,0,,1,,,73,127
53969,note_off,0,0,0,,4,,,76,127
54042,note_on,73,0,0,,7,,,79,127
54042,note_on,0,0,0,,4,,,76,127
54054,note_off,12,0,0,,2,,,74,127
54054,note_off,0,0,0,,6,,,78,127
54127,note_on,73,0,0,,10,,,81,127
54127,note_on,0,0,0,,6,,,78,127
54139,note_off,12,0,0,,4,,,76,127
54139,note_off,0,0,0,,7,,,79,127
54297,note_on,158,0,0,,10,,,69,127
54382,note_off,85,0,0,,6,,,78,127
54466,note_off,84,0,0,,10,,,69,127
54466,note_off,0,0,0,,10,,,81,127
54468,note_on,2,0,0,,7,,,79,127
54468,note_on,0,0,0,,4,,,76,127
54637,note_off,169,0,0,,4,,,76,127
54637,note_off,0,0,0,,7,,,79,127
54639,note_on,2,0,0,,6,,,78,127
54639,note_on,0,0,0,,2,,,74,127
54810,note_on,171,0,0,,10,,,69,127
54895,note_off,85,0,0,,2,,,74,127
54979,note_off,84,0,0,,10,,,69,127
54979,note_off,0,0,0,,6,,,78,127
54981,note_on,2,0,0,,4,,,76,127
54981,note_on,0,0,0,,1,,,73,127
55150,note_off,169,0,0,,1,,,73,127
55150,note_off,0,0,0,,4,,,76,127
55152,note_on,2,0,0,,10,,,81,127
55152,note_on,0,0,0,,6,,,78,127
55323,note_on,171,0,0,,10,,,69,127
55408,note_off,85,0,0,,6,,,78,127
55492,note_off,84,0,0,,10,,,69,127
55492,note_off,0,0,0,,10,,,81,127
55494,note_on,2,0,0,,7,,,79,127
55494,note_on,0,0,0,,4,,,76,127
55663,note_off,169,0,0,,4,,,76,127
55663,note_off,0,0,0,,7,,,79,127
55665,note_on,2,0,0,,6,,,78,127
55665,note_on,0,0,0,,2,,,74,127
55836,note_on,171,0,0,,10,,,69,127
55921,note_off,85,0,0,,2,,,74,127
56005,note_off,84,0,0,,10,,,69,127
56005,note_off,0,0,0,,6,,,78,127
56007,note_on,2,0,0,,4,,,76,127
56007,note_on,0,0,0,,1,,,73,127
56176,note_off,169,0,0,,1,,,73,127
56176,note_off,0,0,0,,4,,,76,127
56178,note_on,2,0,0,,6,,,78,127
56178,note_on,0,0,0,,2,,,74,127
56262,note_off,84,0,0,,6,,,78,127
56264,note_on,2,0,0,,10,,,81,127
56264,note_on,0,0,0,,6,,,78,127
56276,note_off,12,0,0,,2,,,74,127
56349,note_on,73,0,0,,7,,,79,127
56349,note_on,0,0,0,,4,,,76,127
56361,note_off,12,0,0,,6,,,78,127
56361,note_off,0,0,0,,10,,,81,127
56434,note_on,73,0,0,,6,,,78,127
56434,note_on,0,0,0,,2,,,74,127
56446,note_off,12,0,0,,4,,,76,127
56446,note_off,0,0,0,,7,,,79,127
56519,note_on,73,0,0,,4,,,76,127
56519,note_on,0,0,0,,1,,,73,127
56531,note_off,12,0,0,,2,,,74,127
56531,note_off,0,0,0,,6,,,78,127
56604,note_on,73,0,0,,2,,,74,127
56604,note_on,0,0,0,,12,,,71,127
56616,note_off,12,0,0,,1,,,73,127
56616,note_off,0,0,0,,4,,,76,127
56689,note_on,73,0,0,,1,,,73,127
56689,note_on,0,0,0,,10,,,69,127
56701,note_off,12,0,0,,12,,,71,127
56701,note_off,0,0,0,,2,,,74,127
56774,note_on,73,0,0,,12,,,71,127
56774,note_on,0,0,0,,7,,,67,127
56786,note_off,12,0,0,,10,,,69,127
56786,note_off,0,0,0,,1,,,73,127
56859,note_on,73,0,0,,10,,,69,127
56859,note_on,0,0,0,,6,,,66,127
56871,note_off,12,0,0,,7,,,67,127
56871,note_off,0,0,0,,12,,,71,127
56944,note_on,73,0,0,,7,,,67,127
56944,note_on,0,0,0,,4,,,64,127
56956,note_off,12,0,0,,6,,,66,127
56956,note_off,0,0,0,,10,,,69,127
57029,note_on,73,0,0,,6,,,66,127
57029,note_on,0,0,0,,2,,,62,127
57041,note_off,12,0,0,,4,,,64,127
57041,note_off,0,0,0,,7,,,67,127
57114,note_on,73,0,0,,4,,,64,127
57114,note_on,0,0,0,,1,,,61,127
57126,note_off,12,0,0,,2,,,62,127
57126,note_off,0,0,0,,6,,,66,127
57199,note_on,73,0,0,,10,,,69,127
57199,note_on,0,0,0,,6,,,66,127
57211,note_off,12,0,0,,1,,,61,127
57211,note_off,0,0,0,,4,,,64,127
57367,note_off,156,0,0,,6,,,66,127
57369,note_on,2,0,0,,10,,,57,127
57538,note_off,169,0,0,,10,,,57,127
57538,note_off,0,0,0,,10,,,69,127
57540,note_on,2,0,0,,7,,,67,127
57540,note_on,0,0,0,,4,,,64,127
57709,note_off,169,0,0,,4,,,64,127
57709,note_off,0,0,0,,7,,,67,127
57711,note_on,2,0,0,,6,,,66,127
57711,note_on,0,0,0,,2,,,62,127
57880,note_off,169,0,0,,2,,,62,127
57882,note_on,2,0,0,,10,,,57,127
58051,note_off,169,0,0,,10,,,57,127
58051,note_off,0,0,0,,6,,,66,127
58053,note_on,2,0,0,,4,,,64,127
58053,note_on,0,0,0,,1,,,61,127
58222,note_off,169,0,0,,1,,,61,127
58222,note_off,0,0,0,,4,,,64,127
58224,note_on,2,0,0,,10,,,69,127
58224,note_on,0,0,0,,6,,,66,127
58393,note_off,169,0,0,,6,,,66,127
58395,note_on,2,0,0,,10,,,57,127
58564,note_off,169,0,0,,10,,,57,127
58564,note_off,0,0,0,,10,,,69,127
58566,note_on,2,0,0,,7,,,67,127
58566,note_on,0,0,0,,4,,,64,127
58735,note_off,169,0,0,,4,,,64,127
58735,note_off,0,0,0,,7,,,67,127
58737,note_on,2,0,0,,6,,,66,127
58737,note_on,0,0,0,,2,,,62,127
58906,note_off,169,0,0,,2,,,62,127
58908,note_on,2,0,0,,10,,,57,127
59077,note_off,169,0,0,,10,,,57,127
59077,note_off,0,0,0,,6,,,66,127
59079,note_on,2,0,0,,4,,,64,127
59079,note_on,0,0,0,,1,,,61,127
59248,note_off,169,0,0,,1,,,61,127
59248,note_off,0,0,0,,4,,,64,127
59250,note_on,2,0,0,,6,,,66,127
59250,note_on,0,0,0,,2,,,62,127
59334,note_off,84,0,0,,6,,,66,127
59336,note_on,2,0,0,,10,,,69,127
59336,note_on,0,0,0,,6,,,66,127
59348,note_off,12,0,0,,2,,,62,127
59421,note_on,73,0,0,,7,,,67,127
59421,note_on,0,0,0,,4,,,64,127
59433,note_off,12,0,0,,6,,,66,127
59433,note_off,0,0,0,,10,,,69,127
59506,note_on,73,0,0,,6,,,66,127
59506,note_on,0,0,0,,2,,,62,127
59518,note_off,12,0,0,,4,,,64,127
59518,note_off,0,0,0,,7,,,67,127
59591,note_on,73,0,0,,4,,,64,127
59591,note_on,0,0,0,,1,,,61,127
59603,note_off,12,0,0,,2,,,62,127
59603,note_off,0,0,0,,6,,,66,127
59676,note_on,73,0,0,,2,,,62,127
59676,note_on,0,0,0,,12,,,59,127
59688,note_off,12,0,0,,1,,,61,127
59688,note_off,0,0,0,,4,,,64,127
59761,note_on,73,0,0,,1,,,61,127
59761,note_on,0,0,0,,10,,,57,127
59773,note_off,12,0,0,,12,,,59,127
59773,note_off,0,0,0,,2,,,62,127
59846,note_on,73,0,0,,2,,,62,127
59846,note_on,0,0,0,,12,,,59,127
59858,note_off,12,0,0,,10,,,57,127
59858,note_off,0,0,0,,1,,,61,127
59931,note_on,73,0,0,,1,,,61,127
59931,note_on,0,0,0,,10,,,57,127
59943,note_off,12,0,0,,12,,,59,127
59943,note_off,0,0,0,,2,,,62,127
60016,note_on,73,0,0,,12,,,59,127
60016,note_on,0,0,0,,7,,,55,127
60028,note_off,12,0,0,,10,,,57,127
60028,note_off,0,0,0,,1,,,61,127
60101,note_on,73,0,0,,10,,,57,127
60101,note_on,0,0,0,,6,,,54,127
60113,note_off,12,0,0,,7,,,55,127
60113,note_off,0,0,0,,12,,,59,127
60186,note_on,73,0,0,,7,,,55,127
60186,note_on,0,0,0,,4,,,52,127
60198,note_off,12,0,0,,6,,,54,127
60198,note_off,0,0,0,,10,,,57,127
60271,note_on,73,0,0,,6,,,54,127
60271,note_on,0,0,0,,2,,,50,127
60283,note_off,12,0,0,,4,,,52,127
60283,note_off,0,0,0,,7,,,55,127
60356,note_on,73,0,0,,4,,,52,127
60368,note_off,12,0,0,,6,,,54,127
60440,note_off,72,0,0,,2,,,50,127
60441,note_on,1,0,0,,2,,,50,127
60453,note_off,12,0,0,,4,,,52,127
60526,note_on,73,0,0,,4,,,52,127
60538,note_off,12,0,0,,2,,,50,127
60611,note_on,73,0,0,,6,,,54,127
60623,note_off,12,0,0,,4,,,52,127
60696,note_on,73,0,0,,7,,,55,127
60708,note_off,12,0,0,,6,,,54,127
60781,note_on,73,0,0,,10,,,57,127
60781,note_on,0,0,0,,10,,,45,127
60793,note_off,12,0,0,,7,,,55,127
61035,note_off,242,0,0,,10,,,57,127
61037,note_on,2,0,0,,7,,,55,127
61122,note_on,85,0,0,,5,,,53,127
61134,note_off,12,0,0,,7,,,55,127
61207,note_on,73,0,0,,4,,,52,127
61219,note_off,12,0,0,,5,,,53,127
61290,note_off,71,0,0,,10,,,45,127
61292,note_on,2,0,0,,2,,,50,127
61312,note_off,20,0,0,,4,,,52,127
61463,note_on,151,0,0,,5,,,65,127
61463,note_on,0,0,0,,5,,,77,127
61634,note_on,171,0,0,,11,,,58,127
61804,note_off,170,0,0,,2,,,50,127
61805,note_on,1,0,0,,0,,,48,127
61974,note_off,169,0,0,,5,,,77,127
61974,note_off,0,0,0,,5,,,65,127
61976,note_on,2,0,0,,4,,,64,127
61976,note_on,0,0,0,,4,,,76,127
62145,note_off,169,0,0,,4,,,76,127
62145,note_off,0,0,0,,4,,,64,127
62146,note_off,1,0,0,,11,,,58,127
62147,note_on,1,0,0,,6,,,78,127
62147,note_on,0,0,0,,6,,,66,127
62147,note_on,0,0,0,,10,,,57,127
62316,note_off,169,0,0,,6,,,66,127
62316,note_off,0,0,0,,6,,,78,127
62318,note_on,2,0,0,,7,,,67,127
62318,note_on,0,0,0,,7,,,79,127
62487,note_off,169,0,0,,10,,,57,127
62488,note_off,1,0,0,,0,,,48,127
62489,note_on,1,0,0,,11,,,46,127
62658,note_off,169,0,0,,7,,,79,127
62658,note_off,0,0,0,,7,,,67,127
62660,note_on,2,0,0,,8,,,68,127
62660,note_on,0,0,0,,8,,,80,127
62829,note_off,169,0,0,,11,,,46,127
62831,note_on,2,0,0,,10,,,45,127
63000,note_off,169,0,0,,8,,,80,127
63000,note_off,0,0,0,,8,,,68,127
63002,note_on,2,0,0,,10,,,81,127
63002,note_on,0,0,0,,10,,,69,127
63171,note_off,169,0,0,,10,,,45,127
63173,note_on,2,0,0,,7,,,43,127
63342,note_off,169,0,0,,10,,,69,127
63342,note_off,0,0,0,,10,,,81,127
63344,note_on,2,0,0,,11,,,82,127
63344,note_on,0,0,0,,11,,,70,127
63515,note_on,171,0,0,,7,,,55,127
63684,note_off,169,0,0,,7,,,55,127
63685,note_off,1,0,0,,7,,,43,127
63686,note_on,1,0,0,,11,,,46,127
63855,note_off,169,0,0,,11,,,46,127
63856,note_off,1,0,0,,11,,,70,127
63856,note_off,0,0,0,,11,,,82,127
63857,note_on,1,0,0,,10,,,45,127
64028,note_on,171,0,0,,10,,,81,127
64113,note_on,85,0,0,,7,,,79,127
64125,note_off,12,0,0,,10,,,81,127
64196,note_off,71,0,0,,10,,,45,127
64198,note_on,2,0,0,,5,,,77,127
64198,note_on,0,0,0,,1,,,49,127
64210,note_off,12,0,0,,7,,,79,127
64283,note_on,73,0,0,,4,,,76,127
64295,note_off,12,0,0,,5,,,77,127
64366,note_off,71,0,0,,1,,,49,127
64368,note_on,2,0,0,,5,,,77,127
64368,note_on,0,0,0,,2,,,50,127
64380,note_off,12,0,0,,4,,,76,127
64536,note_off,156,0,0,,5,,,77,127
64538,note_on,2,0,0,,2,,,74,127
64707,note_off,169,0,0,,2,,,74,127
64709,note_on,2,0,0,,5,,,77,127
64709,note_on,0,0,0,,5,,,65,127
64709,note_on,0,0,0,,11,,,58,127
65049,note_off,340,0,0,,5,,,65,127
65049,note_off,0,0,0,,5,,,77,127
65050,note_off,1,0,0,,2,,,50,127
65051,note_on,1,0,0,,4,,,76,127
65051,note_on,0,0,0,,4,,,64,127
65051,note_on,0,0,0,,0,,,48,127
65220,note_off,169,0,0,,4,,,64,127
65220,note_off,0,0,0,,4,,,76,127
65221,note_off,1,0,0,,11,,,58,127
65222,note_on,1,0,0,,6,,,66,127
65222,note_on,0,0,0,,6,,,78,127
65222,note_on,0,0,0,,10,,,57,127
65391,note_off,169,0,0,,6,,,78,127
65391,note_off,0,0,0,,6,,,66,127
65393,note_on,2,0,0,,7,,,67,127
65393,note_on,0,0,0,,7,,,79,127
65562,note_off,169,0,0,,10,,,57,127
65563,note_off,1,0,0,,0,,,48,127
65564,note_on,1,0,0,,11,,,46,127
65733,note_off,169,0,0,,7,,,79,127
65733,note_off,0,0,0,,7,,,67,127
65735,note_on,2,0,0,,8,,,68,127
65735,note_on,0,0,0,,8,,,80,127
65904,note_off,169,0,0,,11,,,46,127
65906,note_on,2,0,0,,10,,,45,127
66075,note_off,169,0,0,,8,,,80,127
66075,note_off,0,0,0,,8,,,68,127
66077,note_on,2,0,0,,10,,,69,127
66077,note_on,0,0,0,,10,,,81,127
66246,note_off,169,0,0,,10,,,45,127
66248,note_on,2,0,0,,7,,,43,127
66417,note_off,169,0,0,,10,,,81,127
66417,note_off,0,0,0,,10,,,69,127
66419,note_on,2,0,0,,11,,,82,127
66419,note_on,0,0,0,,11,,,70,127
66590,note_on,171,0,0,,7,,,55,127
66759,note_off,169,0,0,,7,,,55,127
66760,note_off,1,0,0,,7,,,43,127
66761,note_on,1,0,0,,11,,,46,127
66930,note_off,169,0,0,,11,,,46,127
66931,note_off,1,0,0,,11,,,70,127
66931,note_off,0,0,0,,11,,,82,127
66932,note_on,1,0,0,,10,,,45,127
67103,note_on,171,0,0,,10,,,81,127
67188,note_on,85,0,0,,7,,,79,127
67200,note_off,12,0,0,,10,,,81,127
67271,note_off,71,0,0,,10,,,45,127
67273,note_on,2,0,0,,5,,,77,127
67273,note_on,0,0,0,,1,,,49,127
67285,note_off,12,0,0,,7,,,79,127
67358,note_on,73,0,0,,4,,,76,127
67370,note_off,12,0,0,,5,,,77,127
67441,note_off,71,0,0,,1,,,49,127
67443,note_on,2,0,0,,5,,,77,127
67443,note_on,0,0,0,,2,,,50,127
67455,note_off,12,0,0,,4,,,76,127
67528,note_on,73,0,0,,7,,,79,127
67540,note_off,12,0,0,,5,,,77,127
67613,note_on,73,0,0,,10,,,81,127
67625,note_off,12,0,0,,7,,,79,127
67698,note_on,73,0,0,,5,,,77,127
67710,note_off,12,0,0,,10,,,81,127
67781,note_off,71,0,0,,2,,,50,127
67783,note_on,2,0,0,,4,,,76,127
67783,note_on,0,0,0,,5,,,53,127
67795,note_off,12,0,0,,5,,,77,127
67868,note_on,73,0,0,,2,,,74,127
67880,note_off,12,0,0,,4,,,76,127
67951,note_off,71,0,0,,5,,,53,127
67953,note_on,2,0,0,,4,,,76,127
67953,note_on,0,0,0,,7,,,55,127
67965,note_off,12,0,0,,2,,,74,127
68038,note_on,73,0,0,,5,,,77,127
68050,note_off,12,0,0,,4,,,76,127
68123,note_on,73,0,0,,7,,,79,127
68135,note_off,12,0,0,,5,,,77,127
68208,note_on,73,0,0,,4,,,76,127
68220,note_off,12,0,0,,7,,,79,127
68291,note_off,71,0,0,,7,,,55,127
68293,note_on,2,0,0,,2,,,74,127
68293,note_on,0,0,0,,10,,,57,127
68305,note_off,12,0,0,,4,,,76,127
68378,note_on,73,0,0,,1,,,73,127
68390,note_off,12,0,0,,2,,,74,127
68461,note_off,71,0,0,,10,,,57,127
68463,note_on,2,0,0,,2,,,74,127
68463,note_on,0,0,0,,2,,,50,127
68475,note_off,12,0,0,,1,,,73,127
68617,note_off,142,0,0,,2,,,74,127
68633,note_on,16,0,0,,10,,,69,127
68717,note_off,84,0,0,,2,,,50,127
68719,note_on,2,0,0,,4,,,52,127
68804,note_on,85,0,0,,2,,,74,127
68804,note_on,0,0,0,,6,,,54,127
68812,note_off,8,0,0,,10,,,69,127
68816,note_off,4,0,0,,4,,,52,127
68889,note_on,73,0,0,,7,,,55,127
68901,note_off,12,0,0,,6,,,54,127
68974,note_on,73,0,0,,10,,,57,127
68986,note_off,12,0,0,,7,,,55,127
69059,note_on,73,0,0,,12,,,59,127
69071,note_off,12,0,0,,10,,,57,127
69142,note_off,71,0,0,,2,,,74,127
69144,note_on,2,0,0,,4,,,76,127
69144,note_on,0,0,0,,1,,,61,127
69156,note_off,12,0,0,,12,,,59,127
69229,note_on,73,0,0,,2,,,62,127
69241,note_off,12,0,0,,1,,,61,127
69312,note_off,71,0,0,,4,,,76,127
69314,note_on,2,0,0,,7,,,67,127
69314,note_on,0,0,0,,4,,,64,127
69326,note_off,12,0,0,,2,,,62,127
69399,note_on,73,0,0,,1,,,61,127
69411,note_off,12,0,0,,4,,,64,127
69482,note_off,71,0,0,,7,,,67,127
69484,note_on,2,0,0,,6,,,66,127
69484,note_on,0,0,0,,2,,,62,127
69496,note_off,12,0,0,,1,,,61,127
69652,note_off,156,0,0,,6,,,66,127
69654,note_on,2,0,0,,10,,,69,127
69738,note_off,84,0,0,,2,,,62,127
69740,note_on,2,0,0,,4,,,64,127
69824,note_off,84,0,0,,10,,,69,127
69826,note_on,2,0,0,,2,,,74,127
69826,note_on,0,0,0,,6,,,66,127
69838,note_off,12,0,0,,4,,,64,127
69911,note_on,73,0,0,,7,,,67,127
69923,note_off,12,0,0,,6,,,66,127
69996,note_on,73,0,0,,10,,,69,127
70008,note_off,12,0,0,,7,,,67,127
70081,note_on,73,0,0,,12,,,71,127
70093,note_off,12,0,0,,10,,,69,127
70164,note_off,71,0,0,,2,,,74,127
70166,note_on,2,0,0,,4,,,76,127
70166,note_on,0,0,0,,1,,,73,127
70178,note_off,12,0,0,,12,,,71,127
70251,note_on,73,0,0,,2,,,74,127
70263,note_off,12,0,0,,1,,,73,127
70334,note_off,71,0,0,,4,,,76,127
70336,note_on,2,0,0,,7,,,79,127
70336,note_on,0,0,0,,4,,,76,127
70348,note_off,12,0,0,,2,,,74,127
70421,note_on,73,0,0,,1,,,73,127
70433,note_off,12,0,0,,4,,,76,127
70504,note_off,71,0,0,,7,,,79,127
70506,note_on,2,0,0,,6,,,78,127
70506,note_on,0,0,0,,2,,,74,127
70518,note_off,12,0,0,,1,,,73,127
70591,note_on,73,0,0,,7,,,79,127
70603,note_off,12,0,0,,6,,,78,127
70676,note_on,73,0,0,,10,,,81,127
70688,note_off,12,0,0,,7,,,79,127
70761,note_on,73,0,0,,6,,,78,127
70773,note_off,12,0,0,,10,,,81,127
70844,note_off,71,0,0,,2,,,74,127
70846,note_on,2,0,0,,4,,,76,127
70846,note_on,0,0,0,,6,,,66,127
70858,note_off,12,0,0,,6,,,78,127
70931,note_on,73,0,0,,2,,,74,127
70943,note_off,12,0,0,,4,,,76,127
71014,note_off,71,0,0,,6,,,66,127
71016,note_on,2,0,0,,4,,,76,127
71016,note_on,0,0,0,,7,,,67,127
71028,note_off,12,0,0,,2,,,74,127
71101,note_on,73,0,0,,6,,,78,127
71113,note_off,12,0,0,,4,,,76,127
71186,note_on,73,0,0,,7,,,79,127
71198,note_off,12,0,0,,6,,,78,127
71271,note_on,73,0,0,,4,,,76,127
71283,note_off,12,0,0,,7,,,79,127
71354,note_off,71,0,0,,7,,,67,127
71356,note_on,2,0,0,,2,,,74,127
71356,note_on,0,0,0,,10,,,69,127
71368,note_off,12,0,0,,4,,,76,127
71441,note_on,73,0,0,,1,,,73,127
71453,note_off,12,0,0,,2,,,74,127
71524,note_off,71,0,0,,10,,,69,127
71526,note_on,2,0,0,,6,,,78,127
71526,note_on,0,0,0,,2,,,62,127
71538,note_off,12,0,0,,1,,,73,127
71611,note_on,73,0,0,,7,,,79,127
71623,note_off,12,0,0,,6,,,78,127
71696,note_on,73,0,0,,10,,,81,127
71708,note_off,12,0,0,,7,,,79,127
71781,note_on,73,0,0,,6,,,78,127
71793,note_off,12,0,0,,10,,,81,127
71864,note_off,71,0,0,,2,,,62,127
71866,note_on,2,0,0,,4,,,76,127
71866,note_on,0,0,0,,6,,,66,127
71878,note_off,12,0,0,,6,,,78,127
71951,note_on,73,0,0,,2,,,74,127
71963,note_off,12,0,0,,4,,,76,127
72034,note_off,71,0,0,,6,,,66,127
72036,note_on,2,0,0,,4,,,76,127
72036,note_on,0,0,0,,7,,,67,127
72048,note_off,12,0,0,,2,,,74,127
72121,note_on,73,0,0,,6,,,78,127
72133,note_off,12,0,0,,4,,,76,127
72206,note_on,73,0,0,,7,,,79,127
72218,note_off,12,0,0,,6,,,78,127
72291,note_on,73,0,0,,4,,,76,127
72303,note_off,12,0,0,,7,,,79,127
72374,note_off,71,0,0,,7,,,67,127
72376,note_on,2,0,0,,2,,,74,127
72376,note_on,0,0,0,,10,,,69,127
72388,note_off,12,0,0,,4,,,76,127
72461,note_on,73,0,0,,1,,,73,127
72473,note_off,12,0,0,,2,,,74,127
72544,note_off,71,0,0,,10,,,69,127
72546,note_on,2,0,0,,2,,,74,127
72546,note_on,0,0,0,,2,,,62,127
72558,note_off,12,0,0,,1,,,73,127
72631,note_on,73,0,0,,6,,,78,127
72674,note_off,43,0,0,,2,,,74,127
72717,note_on,43,0,0,,4,,,76,127
72729,note_off,12,0,0,,6,,,78,127
72802,note_on,73,0,0,,2,,,74,127
72814,note_off,12,0,0,,4,,,76,127
72885,note_off,71,0,0,,2,,,62,127
72887,note_on,2,0,0,,1,,,73,127
72887,note_on,0,0,0,,7,,,55,127
72899,note_off,12,0,0,,2,,,74,127
72972,note_on,73,0,0,,12,,,71,127
72984,note_off,12,0,0,,1,,,73,127
73055,note_off,71,0,0,,7,,,55,127
73057,note_on,2,0,0,,10,,,69,127
73057,note_on,0,0,0,,10,,,57,127
73069,note_off,12,0,0,,12,,,71,127
73142,note_on,73,0,0,,7,,,67,127
73154,note_off,12,0,0,,10,,,69,127
73227,note_on,73,0,0,,6,,,66,127
73239,note_off,12,0,0,,7,,,67,127
73312,note_on,73,0,0,,4,,,64,127
73324,note_off,12,0,0,,6,,,66,127
73395,note_off,71,0,0,,10,,,57,127
73397,note_on,2,0,0,,2,,,62,127
73397,note_on,0,0,0,,10,,,45,127
73409,note_off,12,0,0,,4,,,64,127
73482,note_on,73,0,0,,1,,,61,127
73494,note_off,12,0,0,,2,,,62,127
73565,note_off,71,0,0,,10,,,45,127
73567,note_on,2,0,0,,2,,,62,127
73567,note_on,0,0,0,,2,,,50,127
73579,note_off,12,0,0,,1,,,61,127
73652,note_on,73,0,0,,6,,,66,127
73695,note_off,43,0,0,,2,,,62,127
73738,note_on,43,0,0,,4,,,64,127
73750,note_off,12,0,0,,6,,,66,127
73823,note_on,73,0,0,,2,,,62,127
73835,note_off,12,0,0,,4,,,64,127
73906,note_off,71,0,0,,2,,,50,127
73908,note_on,2,0,0,,1,,,61,127
73908,note_on,0,0,0,,7,,,43,127
73920,note_off,12,0,0,,2,,,62,127
73993,note_on,73,0,0,,12,,,59,127
74005,note_off,12,0,0,,1,,,61,127
74076,note_off,71,0,0,,7,,,43,127
74078,note_on,2,0,0,,10,,,57,127
74078,note_on,0,0,0,,10,,,45,127
74090,note_off,12,0,0,,12,,,59,127
74163,note_on,73,0,0,,7,,,55,127
74175,note_off,12,0,0,,10,,,57,127
74248,note_on,73,0,0,,6,,,54,127
74260,note_off,12,0,0,,7,,,55,127
74333,note_on,73,0,0,,4,,,52,127
74345,note_off,12,0,0,,6,,,54,127
74416,note_off,71,0,0,,10,,,45,127
74418,note_on,2,0,0,,2,,,50,127
74418,note_on,0,0,0,,10,,,45,127
74430,note_off,12,0,0,,4,,,52,127
74503,note_on,73,0,0,,1,,,49,127
74515,note_off,12,0,0,,2,,,50,127
74586,note_off,71,0,0,,1,,,49,127
74586,note_off,0,0,0,,10,,,45,127
74588,note_on,2,0,0,,2,,,50,127
74588,note_on,0,0,0,,2,,,38,127
75921,note_off,1333,0,0,,2,,,38,127
75921,note_off,0,0,0,,2,,,50,127
79872,end_of_track,3951,1,0,,,,,,
