tick,type,time,meta,track,program,channel,pitch,tempo,note,velocity
0,copyright,0,1,0,,,,,,
0,program_change,0,0,0,6,0,,,,
0,pitchwheel,0,0,0,,0,0,,,
0,program_change,0,0,0,6,1,,,,
0,pitchwheel,0,0,0,,1,-590,,,
0,program_change,0,0,0,6,2,,,,
0,pitchwheel,0,0,0,,2,-272,,,
0,program_change,0,0,0,6,3,,,,
0,pitchwheel,0,0,0,,3,-353,,,
0,program_change,0,0,0,6,4,,,,
0,pitchwheel,0,0,0,,4,-560,,,
0,program_change,0,0,0,6,5,,,,
0,pitchwheel,0,0,0,,5,-80,,,
0,program_change,0,0,0,6,6,,,,
0,pitchwheel,0,0,0,,6,-625,,,
0,program_change,0,0,0,6,7,,,,
0,pitchwheel,0,0,0,,7,-130,,,
0,program_change,0,0,0,6,8,,,,
0,pitchwheel,0,0,0,,8,-512,,,
0,program_change,0,0,0,6,10,,,,
0,pitchwheel,0,0,0,,10,-464,,,
0,program_change,0,0,0,6,11,,,,
0,pitchwheel,0,0,0,,11,-208,,,
0,program_change,0,0,0,6,12,,,,
0,pitchwheel,0,0,0,,12,-553,,,
0,set_tempo,0,1,0,,,,500000,,
110,note_on,110,0,0,,4,,,40,127
329,note_on,219,0,0,,4,,,76,127
439,note_off,110,0,0,,4,,,76,127
439,note_on,0,0,0,,8,,,80,127
549,note_off,110,0,0,,8,,,80,127
549,note_on,0,0,0,,4,,,76,127
768,note_off,219,0,0,,4,,,76,127
768,note_on,0,0,0,,12,,,71,127
987,note_off,219,0,0,,12,,,71,127
987,note_on,0,0,0,,8,,,68,127
1024,note_off,37,0,0,,4,,,40,127
1207,note_off,183,0,0,,8,,,68,127
1207,note_on,0,0,0,,8,,,80,127
1207,note_on,0,0,0,,4,,,76,127
1207,note_on,0,0,0,,4,,,64,127
1317,note_off,110,0,0,,4,,,64,127
1317,note_on,0,0,0,,8,,,68,127
1427,note_off,110,0,0,,8,,,68,127
1427,note_on,0,0,0,,4,,,64,127
1646,note_off,219,0,0,,4,,,64,127
1646,note_off,0,0,0,,4,,,76,127
1646,note_off,0,0,0,,8,,,80,127
1646,note_on,0,0,0,,3,,,75,127
1646,note_on,0,0,0,,6,,,78,127
1646,note_on,0,0,0,,12,,,59,127
1865,note_off,219,0,0,,12,,,59,127
1865,note_off,0,0,0,,6,,,78,127
1865,note_off,0,0,0,,3,,,75,127
1865,note_on,0,0,0,,4,,,76,127
1865,note_on,0,0,0,,8,,,56,127
2084,note_off,219,0,0,,8,,,56,127
2084,note_off,0,0,0,,4,,,76,127
2084,note_on,0,0,0,,12,,,83,127
2084,note_on,0,0,0,,8,,,80,127
2084,note_on,0,0,0,,4,,,52,127
2194,note_off,110,0,0,,4,,,52,127
2194,note_on,0,0,0,,8,,,56,127
2304,note_off,110,0,0,,8,,,56,127
2304,note_on,0,0,0,,4,,,52,127
2523,note_off,219,0,0,,4,,,52,127
2523,note_off,0,0,0,,8,,,80,127
2523,note_off,0,0,0,,12,,,83,127
2523,note_on,0,0,0,,6,,,78,127
2523,note_on,0,0,0,,10,,,81,127
2523,note_on,0,0,0,,12,,,47,127
2742,note_off,219,0,0,,12,,,47,127
2742,note_off,0,0,0,,6,,,78,127
2742,note_on,0,0,0,,4,,,40,127
2852,note_off,110,0,0,,10,,,81,127
2852,note_on,0,0,0,,8,,,80,127
2962,note_off,110,0,0,,8,,,80,127
2962,note_on,0,0,0,,6,,,78,127
2962,note_on,0,0,0,,4,,,52,127
3072,note_off,110,0,0,,6,,,78,127
3072,note_on,0,0,0,,8,,,80,127
3131,note_off,59,0,0,,4,,,40,127
3181,note_off,50,0,0,,8,,,80,127
3181,note_off,0,0,0,,4,,,52,127
3181,note_on,0,0,0,,12,,,83,127
3181,note_on,0,0,0,,6,,,54,127
3291,note_off,110,0,0,,12,,,83,127
3291,note_on,0,0,0,,10,,,81,127
3401,note_off,110,0,0,,10,,,81,127
3401,note_off,0,0,0,,6,,,54,127
3401,note_on,0,0,0,,8,,,80,127
3401,note_on,0,0,0,,12,,,47,127
3511,note_off,110,0,0,,8,,,80,127
3511,note_on,0,0,0,,6,,,78,127
3621,note_off,110,0,0,,6,,,78,127
3621,note_off,0,0,0,,12,,,47,127
3621,note_on,0,0,0,,10,,,81,127
3621,note_on,0,0,0,,4,,,40,127
3731,note_off,110,0,0,,10,,,81,127
3731,note_on,0,0,0,,8,,,80,127
3841,note_off,110,0,0,,8,,,80,127
3841,note_on,0,0,0,,6,,,78,127
3841,note_on,0,0,0,,4,,,52,127
3951,note_off,110,0,0,,6,,,78,127
3951,note_on,0,0,0,,8,,,80,127
4010,note_off,59,0,0,,4,,,40,127
4060,note_off,50,0,0,,8,,,80,127
4060,note_off,0,0,0,,4,,,52,127
4060,note_on,0,0,0,,12,,,83,127
4060,note_on,0,0,0,,6,,,54,127
4170,note_off,110,0,0,,12,,,83,127
4170,note_on,0,0,0,,10,,,81,127
4280,note_off,110,0,0,,10,,,81,127
4280,note_off,0,0,0,,6,,,54,127
4280,note_on,0,0,0,,8,,,80,127
4280,note_on,0,0,0,,12,,,47,127
4390,note_off,110,0,0,,8,,,80,127
4390,note_on,0,0,0,,6,,,78,127
4500,note_off,110,0,0,,6,,,78,127
4500,note_off,0,0,0,,12,,,47,127
4500,note_on,0,0,0,,10,,,81,127
4500,note_on,0,0,0,,4,,,40,127
4610,note_off,110,0,0,,10,,,81,127
4610,note_on,0,0,0,,8,,,80,127
4720,note_off,110,0,0,,8,,,80,127
4720,note_on,0,0,0,,6,,,78,127
4720,note_on,0,0,0,,4,,,52,127
4830,note_off,110,0,0,,6,,,78,127
4830,note_on,0,0,0,,8,,,80,127
4889,note_off,59,0,0,,4,,,40,127
4939,note_off,50,0,0,,8,,,80,127
4939,note_off,0,0,0,,4,,,52,127
4939,note_on,0,0,0,,12,,,83,127
4939,note_on,0,0,0,,6,,,54,127
5049,note_off,110,0,0,,12,,,83,127
5049,note_on,0,0,0,,10,,,81,127
5159,note_off,110,0,0,,10,,,81,127
5159,note_off,0,0,0,,6,,,54,127
5159,note_on,0,0,0,,8,,,80,127
5159,note_on,0,0,0,,12,,,47,127
5269,note_off,110,0,0,,8,,,80,127
5269,note_on,0,0,0,,6,,,78,127
5379,note_off,110,0,0,,6,,,78,127
5379,note_off,0,0,0,,12,,,47,127
5379,note_on,0,0,0,,8,,,80,127
5379,note_on,0,0,0,,4,,,40,127
5489,note_on,110,0,0,,4,,,76,127
5599,note_off,110,0,0,,4,,,76,127
5599,note_on,0,0,0,,12,,,71,127
5709,note_off,110,0,0,,12,,,71,127
5709,note_on,0,0,0,,8,,,68,127
5814,note_off,105,0,0,,4,,,40,127
5814,note_off,0,0,0,,8,,,80,127
5819,note_off,5,0,0,,8,,,68,127
5819,note_on,0,0,0,,4,,,64,127
5929,note_on,110,0,0,,12,,,59,127
6039,note_off,110,0,0,,12,,,59,127
6039,note_on,0,0,0,,8,,,56,127
6149,note_off,110,0,0,,8,,,56,127
6149,note_on,0,0,0,,4,,,52,127
6254,note_off,105,0,0,,4,,,64,127
6259,note_off,5,0,0,,4,,,52,127
6259,note_on,0,0,0,,4,,,40,127
6917,note_off,658,0,0,,4,,,40,127
6917,note_on,0,0,0,,8,,,80,127
6917,note_on,0,0,0,,8,,,68,127
6917,note_on,0,0,0,,4,,,64,127
7027,note_off,110,0,0,,8,,,80,127
7027,note_on,0,0,0,,4,,,76,127
7137,note_off,110,0,0,,4,,,76,127
7137,note_off,0,0,0,,4,,,64,127
7137,note_off,0,0,0,,8,,,68,127
7137,note_on,0,0,0,,11,,,82,127
7137,note_on,0,0,0,,6,,,66,127
7137,note_on,0,0,0,,3,,,63,127
7356,note_off,219,0,0,,3,,,63,127
7356,note_off,0,0,0,,6,,,66,127
7356,note_off,0,0,0,,11,,,82,127
7356,note_on,0,0,0,,12,,,83,127
7356,note_on,0,0,0,,3,,,63,127
7356,note_on,0,0,0,,6,,,66,127
7575,note_off,219,0,0,,6,,,66,127
7575,note_off,0,0,0,,3,,,63,127
7575,note_on,0,0,0,,4,,,64,127
7575,note_on,0,0,0,,8,,,68,127
7575,note_on,0,0,0,,12,,,71,127
7794,note_off,219,0,0,,8,,,68,127
7794,note_off,0,0,0,,4,,,64,127
7794,note_off,0,0,0,,12,,,83,127
7794,note_on,0,0,0,,8,,,80,127
7794,note_on,0,0,0,,4,,,64,127
7794,note_on,0,0,0,,8,,,68,127
7904,note_off,110,0,0,,8,,,80,127
7904,note_on,0,0,0,,4,,,76,127
8014,note_off,110,0,0,,4,,,76,127
8014,note_off,0,0,0,,8,,,68,127
8014,note_off,0,0,0,,4,,,64,127
8014,note_on,0,0,0,,5,,,77,127
8014,note_on,0,0,0,,6,,,66,127
8014,note_on,0,0,0,,3,,,63,127
8233,note_off,219,0,0,,3,,,63,127
8233,note_off,0,0,0,,6,,,66,127
8233,note_off,0,0,0,,5,,,77,127
8233,note_on,0,0,0,,6,,,78,127
8233,note_on,0,0,0,,3,,,63,127
8233,note_on,0,0,0,,6,,,66,127
8452,note_off,219,0,0,,6,,,66,127
8452,note_off,0,0,0,,3,,,63,127
8452,note_off,0,0,0,,12,,,71,127
8452,note_on,0,0,0,,8,,,68,127
8452,note_on,0,0,0,,4,,,64,127
8452,note_on,0,0,0,,12,,,71,127
8671,note_off,219,0,0,,4,,,64,127
8671,note_off,0,0,0,,8,,,68,127
8671,note_off,0,0,0,,6,,,78,127
8671,note_on,0,0,0,,8,,,80,127
8671,note_on,0,0,0,,4,,,64,127
8671,note_on,0,0,0,,8,,,68,127
8781,note_off,110,0,0,,8,,,80,127
8781,note_on,0,0,0,,4,,,76,127
8891,note_off,110,0,0,,4,,,76,127
8891,note_off,0,0,0,,8,,,68,127
8891,note_off,0,0,0,,4,,,64,127
8891,note_on,0,0,0,,11,,,82,127
8891,note_on,0,0,0,,3,,,63,127
8891,note_on,0,0,0,,6,,,66,127
9110,note_off,219,0,0,,6,,,66,127
9110,note_off,0,0,0,,3,,,63,127
9110,note_off,0,0,0,,11,,,82,127
9110,note_on,0,0,0,,12,,,83,127
9110,note_on,0,0,0,,6,,,66,127
9110,note_on,0,0,0,,3,,,63,127
9329,note_off,219,0,0,,3,,,63,127
9329,note_off,0,0,0,,6,,,66,127
9329,note_off,0,0,0,,12,,,71,127
9329,note_on,0,0,0,,8,,,68,127
9329,note_on,0,0,0,,4,,,64,127
9329,note_on,0,0,0,,12,,,71,127
9548,note_off,219,0,0,,4,,,64,127
9548,note_off,0,0,0,,8,,,68,127
9548,note_off,0,0,0,,12,,,83,127
9548,note_on,0,0,0,,8,,,80,127
9548,note_on,0,0,0,,8,,,68,127
9548,note_on,0,0,0,,4,,,64,127
9658,note_off,110,0,0,,8,,,80,127
9658,note_on,0,0,0,,4,,,76,127
9768,note_off,110,0,0,,4,,,76,127
9768,note_off,0,0,0,,4,,,64,127
9768,note_off,0,0,0,,8,,,68,127
9768,note_on,0,0,0,,5,,,77,127
9768,note_on,0,0,0,,6,,,66,127
9768,note_on,0,0,0,,3,,,63,127
9987,note_off,219,0,0,,3,,,63,127
9987,note_off,0,0,0,,6,,,66,127
9987,note_off,0,0,0,,5,,,77,127
9987,note_on,0,0,0,,6,,,78,127
9987,note_on,0,0,0,,6,,,66,127
9987,note_on,0,0,0,,3,,,63,127
10206,note_off,219,0,0,,3,,,63,127
10206,note_off,0,0,0,,6,,,66,127
10206,note_off,0,0,0,,12,,,71,127
10206,note_on,0,0,0,,4,,,64,127
10206,note_on,0,0,0,,8,,,68,127
10425,note_off,219,0,0,,8,,,68,127
10425,note_off,0,0,0,,4,,,64,127
10425,note_off,0,0,0,,6,,,78,127
10425,note_on,0,0,0,,8,,,80,127
10425,note_on,0,0,0,,8,,,68,127
10425,note_on,0,0,0,,4,,,64,127
10535,note_off,110,0,0,,8,,,80,127
10535,note_on,0,0,0,,4,,,76,127
10645,note_off,110,0,0,,4,,,76,127
10645,note_off,0,0,0,,4,,,64,127
10645,note_off,0,0,0,,8,,,68,127
10645,note_on,0,0,0,,12,,,83,127
10645,note_on,0,0,0,,6,,,66,127
10645,note_on,0,0,0,,3,,,63,127
10755,note_on,110,0,0,,6,,,78,127
10865,note_off,110,0,0,,6,,,78,127
10865,note_off,0,0,0,,3,,,63,127
10865,note_off,0,0,0,,6,,,66,127
10865,note_on,0,0,0,,4,,,76,127
10865,note_on,0,0,0,,12,,,59,127
10975,note_off,110,0,0,,4,,,76,127
10975,note_on,0,0,0,,3,,,75,127
11080,note_off,105,0,0,,12,,,83,127
11085,note_off,5,0,0,,3,,,75,127
11085,note_off,0,0,0,,12,,,59,127
11085,note_on,0,0,0,,6,,,78,127
11085,note_on,0,0,0,,1,,,61,127
11195,note_off,110,0,0,,6,,,78,127
11195,note_on,0,0,0,,4,,,76,127
11305,note_off,110,0,0,,4,,,76,127
11305,note_off,0,0,0,,1,,,61,127
11305,note_on,0,0,0,,3,,,75,127
11305,note_on,0,0,0,,6,,,54,127
11415,note_off,110,0,0,,3,,,75,127
11415,note_on,0,0,0,,1,,,73,127
11525,note_off,110,0,0,,1,,,73,127
11525,note_off,0,0,0,,6,,,54,127
11525,note_on,0,0,0,,4,,,76,127
11525,note_on,0,0,0,,12,,,59,127
11635,note_off,110,0,0,,4,,,76,127
11635,note_on,0,0,0,,3,,,75,127
11745,note_off,110,0,0,,3,,,75,127
11745,note_off,0,0,0,,12,,,59,127
11745,note_on,0,0,0,,1,,,73,127
11745,note_on,0,0,0,,3,,,63,127
11855,note_off,110,0,0,,1,,,73,127
11855,note_on,0,0,0,,3,,,75,127
11965,note_off,110,0,0,,3,,,75,127
11965,note_off,0,0,0,,3,,,63,127
11965,note_on,0,0,0,,6,,,78,127
11965,note_on,0,0,0,,1,,,61,127
12075,note_off,110,0,0,,6,,,78,127
12075,note_on,0,0,0,,4,,,76,127
12185,note_off,110,0,0,,4,,,76,127
12185,note_off,0,0,0,,1,,,61,127
12185,note_on,0,0,0,,3,,,75,127
12185,note_on,0,0,0,,6,,,54,127
12295,note_off,110,0,0,,3,,,75,127
12295,note_on,0,0,0,,1,,,73,127
12405,note_off,110,0,0,,1,,,73,127
12405,note_off,0,0,0,,6,,,54,127
12405,note_on,0,0,0,,4,,,76,127
12405,note_on,0,0,0,,12,,,59,127
12515,note_off,110,0,0,,4,,,76,127
12515,note_on,0,0,0,,3,,,75,127
12625,note_off,110,0,0,,3,,,75,127
12625,note_off,0,0,0,,12,,,59,127
12625,note_on,0,0,0,,1,,,73,127
12625,note_on,0,0,0,,3,,,63,127
12735,note_off,110,0,0,,1,,,73,127
12735,note_on,0,0,0,,3,,,75,127
12845,note_off,110,0,0,,3,,,75,127
12845,note_off,0,0,0,,3,,,63,127
12845,note_on,0,0,0,,6,,,78,127
12845,note_on,0,0,0,,1,,,61,127
12955,note_off,110,0,0,,6,,,78,127
12955,note_on,0,0,0,,4,,,76,127
13065,note_off,110,0,0,,4,,,76,127
13065,note_off,0,0,0,,1,,,61,127
13065,note_on,0,0,0,,3,,,75,127
13065,note_on,0,0,0,,6,,,54,127
13175,note_off,110,0,0,,3,,,75,127
13175,note_on,0,0,0,,1,,,73,127
13285,note_off,110,0,0,,1,,,73,127
13285,note_off,0,0,0,,6,,,54,127
13285,note_on,0,0,0,,12,,,83,127
13285,note_on,0,0,0,,12,,,47,127
13395,note_on,110,0,0,,6,,,78,127
13505,note_off,110,0,0,,6,,,78,127
13505,note_on,0,0,0,,3,,,75,127
13615,note_off,110,0,0,,3,,,75,127
13615,note_on,0,0,0,,12,,,71,127
13720,note_off,105,0,0,,12,,,47,127
13720,note_off,0,0,0,,12,,,83,127
13725,note_off,5,0,0,,12,,,71,127
13725,note_on,0,0,0,,12,,,71,127
13835,note_on,110,0,0,,6,,,66,127
13945,note_off,110,0,0,,6,,,66,127
13945,note_on,0,0,0,,3,,,63,127
14055,note_off,110,0,0,,3,,,63,127
14055,note_on,0,0,0,,12,,,59,127
14160,note_off,105,0,0,,12,,,71,127
14165,note_off,5,0,0,,12,,,59,127
14165,note_on,0,0,0,,12,,,59,127
14275,note_on,110,0,0,,6,,,54,127
14385,note_off,110,0,0,,6,,,54,127
14385,note_on,0,0,0,,3,,,51,127
14495,note_off,110,0,0,,3,,,51,127
14495,note_on,0,0,0,,12,,,47,127
14600,note_off,105,0,0,,12,,,59,127
14605,note_off,5,0,0,,12,,,47,127
14605,note_on,0,0,0,,12,,,47,127
14715,note_on,110,0,0,,6,,,42,127
14825,note_off,110,0,0,,6,,,42,127
14825,note_on,0,0,0,,3,,,39,127
14935,note_off,110,0,0,,3,,,39,127
14935,note_on,0,0,0,,12,,,35,127
15038,note_off,103,0,0,,12,,,35,127
15045,note_on,7,0,0,,12,,,35,127
15263,note_off,218,0,0,,12,,,47,127
15922,note_off,659,0,0,,12,,,35,127
15922,note_on,0,0,0,,1,,,49,127
15922,note_on,0,0,0,,1,,,37,127
16141,note_on,219,0,0,,12,,,83,127
16251,note_on,110,0,0,,2,,,74,127
16251,note_on,0,0,0,,6,,,78,127
16361,note_off,110,0,0,,6,,,78,127
16361,note_off,0,0,0,,2,,,74,127
16361,note_on,0,0,0,,1,,,73,127
16361,note_on,0,0,0,,5,,,77,127
16580,note_off,219,0,0,,5,,,77,127
16580,note_off,0,0,0,,1,,,73,127
16580,note_off,0,0,0,,12,,,83,127
16580,note_on,0,0,0,,12,,,83,127
16690,note_on,110,0,0,,2,,,74,127
16690,note_on,0,0,0,,6,,,78,127
16800,note_off,110,0,0,,6,,,78,127
16800,note_off,0,0,0,,2,,,74,127
16800,note_off,0,0,0,,1,,,37,127
16800,note_off,0,0,0,,1,,,49,127
16800,note_on,0,0,0,,1,,,73,127
16800,note_on,0,0,0,,5,,,77,127
16800,note_on,0,0,0,,1,,,49,127
16800,note_on,0,0,0,,1,,,37,127
17019,note_off,219,0,0,,5,,,77,127
17019,note_off,0,0,0,,1,,,73,127
17019,note_off,0,0,0,,12,,,83,127
17019,note_on,0,0,0,,12,,,83,127
17129,note_on,110,0,0,,2,,,74,127
17129,note_on,0,0,0,,6,,,78,127
17239,note_off,110,0,0,,6,,,78,127
17239,note_off,0,0,0,,2,,,74,127
17239,note_on,0,0,0,,1,,,73,127
17239,note_on,0,0,0,,5,,,77,127
17458,note_off,219,0,0,,5,,,77,127
17458,note_off,0,0,0,,1,,,73,127
17458,note_off,0,0,0,,12,,,83,127
17458,note_on,0,0,0,,12,,,83,127
17568,note_on,110,0,0,,6,,,78,127
17568,note_on,0,0,0,,2,,,74,127
17678,note_off,110,0,0,,2,,,74,127
17678,note_off,0,0,0,,6,,,78,127
17678,note_off,0,0,0,,1,,,37,127
17678,note_off,0,0,0,,1,,,49,127
17678,note_on,0,0,0,,1,,,73,127
17678,note_on,0,0,0,,5,,,77,127
17678,note_on,0,0,0,,1,,,49,127
17678,note_on,0,0,0,,1,,,37,127
17897,note_off,219,0,0,,5,,,77,127
17897,note_off,0,0,0,,1,,,73,127
17897,note_off,0,0,0,,12,,,83,127
17897,note_on,0,0,0,,12,,,83,127
18007,note_on,110,0,0,,2,,,74,127
18117,note_off,110,0,0,,2,,,74,127
18117,note_on,0,0,0,,1,,,73,127
18227,note_off,110,0,0,,12,,,83,127
18227,note_on,0,0,0,,10,,,81,127
18337,note_off,110,0,0,,1,,,73,127
18337,note_on,0,0,0,,12,,,71,127
18447,note_off,110,0,0,,10,,,81,127
18447,note_on,0,0,0,,8,,,80,127
18557,note_off,110,0,0,,1,,,37,127
18557,note_off,0,0,0,,1,,,49,127
18557,note_on,0,0,0,,1,,,49,127
18557,note_on,0,0,0,,1,,,37,127
18776,note_off,219,0,0,,8,,,80,127
18776,note_off,0,0,0,,12,,,71,127
18776,note_on,0,0,0,,10,,,81,127
18886,note_on,110,0,0,,1,,,73,127
18996,note_off,110,0,0,,1,,,73,127
18996,note_on,0,0,0,,12,,,71,127
19106,note_off,110,0,0,,10,,,81,127
19106,note_on,0,0,0,,8,,,80,127
19216,note_off,110,0,0,,12,,,71,127
19216,note_on,0,0,0,,10,,,69,127
19326,note_off,110,0,0,,8,,,80,127
19326,note_on,0,0,0,,6,,,78,127
19436,note_off,110,0,0,,1,,,37,127
19436,note_off,0,0,0,,1,,,49,127
19436,note_on,0,0,0,,1,,,49,127
19436,note_on,0,0,0,,1,,,37,127
19655,note_off,219,0,0,,6,,,78,127
19655,note_off,0,0,0,,10,,,69,127
19655,note_on,0,0,0,,8,,,80,127
19765,note_on,110,0,0,,12,,,71,127
19875,note_off,110,0,0,,12,,,71,127
19875,note_on,0,0,0,,10,,,69,127
19985,note_off,110,0,0,,8,,,80,127
19985,note_on,0,0,0,,6,,,78,127
20095,note_off,110,0,0,,10,,,69,127
20095,note_on,0,0,0,,8,,,68,127
20205,note_off,110,0,0,,6,,,78,127
20205,note_on,0,0,0,,5,,,77,127
20315,note_off,110,0,0,,5,,,77,127
20315,note_off,0,0,0,,8,,,68,127
20315,note_off,0,0,0,,1,,,37,127
20315,note_off,0,0,0,,1,,,49,127
20315,note_on,0,0,0,,6,,,78,127
20315,note_on,0,0,0,,6,,,42,127
20425,note_on,110,0,0,,1,,,73,127
20535,note_off,110,0,0,,1,,,73,127
20535,note_on,0,0,0,,10,,,69,127
20645,note_off,110,0,0,,10,,,69,127
20645,note_on,0,0,0,,6,,,66,127
20750,note_off,105,0,0,,6,,,42,127
20750,note_off,0,0,0,,6,,,78,127
20755,note_off,5,0,0,,6,,,66,127
20755,note_on,0,0,0,,1,,,61,127
20865,note_on,110,0,0,,10,,,57,127
20975,note_off,110,0,0,,10,,,57,127
20975,note_on,0,0,0,,6,,,54,127
21085,note_off,110,0,0,,6,,,54,127
21085,note_on,0,0,0,,1,,,49,127
21190,note_off,105,0,0,,1,,,61,127
21195,note_off,5,0,0,,1,,,49,127
21195,note_on,0,0,0,,6,,,42,127
22073,note_off,878,0,0,,6,,,42,127
22073,note_on,0,0,0,,12,,,47,127
22073,note_on,0,0,0,,12,,,35,127
22292,note_on,219,0,0,,10,,,81,127
22402,note_on,110,0,0,,4,,,76,127
22402,note_on,0,0,0,,0,,,72,127
22512,note_off,110,0,0,,0,,,72,127
22512,note_off,0,0,0,,4,,,76,127
22512,note_on,0,0,0,,12,,,71,127
22512,note_on,0,0,0,,3,,,75,127
22731,note_off,219,0,0,,12,,,71,127
22731,note_off,0,0,0,,10,,,81,127
22731,note_on,0,0,0,,10,,,81,127
22737,note_off,6,0,0,,3,,,75,127
22841,note_on,104,0,0,,0,,,72,127
22841,note_on,0,0,0,,4,,,76,127
22951,note_off,110,0,0,,4,,,76,127
22951,note_off,0,0,0,,0,,,72,127
22951,note_off,0,0,0,,12,,,35,127
22951,note_off,0,0,0,,12,,,47,127
22951,note_on,0,0,0,,3,,,75,127
22951,note_on,0,0,0,,12,,,71,127
22951,note_on,0,0,0,,12,,,47,127
22951,note_on,0,0,0,,12,,,35,127
23170,note_off,219,0,0,,12,,,71,127
23170,note_off,0,0,0,,3,,,75,127
23170,note_off,0,0,0,,10,,,81,127
23170,note_on,0,0,0,,10,,,81,127
23280,note_on,110,0,0,,4,,,76,127
23280,note_on,0,0,0,,0,,,72,127
23390,note_off,110,0,0,,0,,,72,127
23390,note_off,0,0,0,,4,,,76,127
23390,note_on,0,0,0,,12,,,71,127
23390,note_on,0,0,0,,3,,,75,127
23609,note_off,219,0,0,,3,,,75,127
23609,note_off,0,0,0,,12,,,71,127
23609,note_off,0,0,0,,10,,,81,127
23609,note_on,0,0,0,,10,,,81,127
23719,note_on,110,0,0,,0,,,72,127
23719,note_on,0,0,0,,4,,,76,127
23829,note_off,110,0,0,,4,,,76,127
23829,note_off,0,0,0,,0,,,72,127
23829,note_off,0,0,0,,12,,,35,127
23829,note_off,0,0,0,,12,,,47,127
23829,note_on,0,0,0,,3,,,75,127
23829,note_on,0,0,0,,12,,,71,127
23829,note_on,0,0,0,,12,,,47,127
23829,note_on,0,0,0,,12,,,35,127
24048,note_off,219,0,0,,12,,,71,127
24048,note_off,0,0,0,,3,,,75,127
24048,note_off,0,0,0,,10,,,81,127
24048,note_on,0,0,0,,10,,,81,127
24158,note_on,110,0,0,,0,,,72,127
24268,note_off,110,0,0,,0,,,72,127
24268,note_on,0,0,0,,12,,,71,127
24378,note_off,110,0,0,,10,,,81,127
24378,note_on,0,0,0,,7,,,79,127
24488,note_off,110,0,0,,12,,,71,127
24488,note_on,0,0,0,,10,,,69,127
24598,note_off,110,0,0,,7,,,79,127
24598,note_on,0,0,0,,6,,,78,127
24708,note_off,110,0,0,,12,,,35,127
24708,note_off,0,0,0,,12,,,47,127
24708,note_on,0,0,0,,12,,,47,127
24708,note_on,0,0,0,,12,,,35,127
24927,note_off,219,0,0,,6,,,78,127
24927,note_off,0,0,0,,10,,,69,127
24927,note_on,0,0,0,,7,,,79,127
25037,note_on,110,0,0,,12,,,71,127
25147,note_off,110,0,0,,12,,,71,127
25147,note_on,0,0,0,,10,,,69,127
25257,note_off,110,0,0,,7,,,79,127
25257,note_on,0,0,0,,6,,,78,127
25367,note_off,110,0,0,,10,,,69,127
25367,note_on,0,0,0,,7,,,67,127
25477,note_off,110,0,0,,6,,,78,127
25477,note_on,0,0,0,,4,,,76,127
25587,note_off,110,0,0,,12,,,35,127
25587,note_off,0,0,0,,12,,,47,127
25587,note_on,0,0,0,,12,,,47,127
25587,note_on,0,0,0,,12,,,35,127
25806,note_off,219,0,0,,4,,,76,127
25806,note_off,0,0,0,,7,,,67,127
25806,note_on,0,0,0,,6,,,78,127
25916,note_on,110,0,0,,10,,,69,127
26026,note_off,110,0,0,,10,,,69,127
26026,note_on,0,0,0,,7,,,67,127
26136,note_off,110,0,0,,6,,,78,127
26136,note_on,0,0,0,,4,,,76,127
26246,note_off,110,0,0,,7,,,67,127
26246,note_on,0,0,0,,6,,,66,127
26356,note_off,110,0,0,,4,,,76,127
26356,note_on,0,0,0,,3,,,75,127
26466,note_off,110,0,0,,3,,,75,127
26466,note_off,0,0,0,,6,,,66,127
26466,note_off,0,0,0,,12,,,35,127
26466,note_off,0,0,0,,12,,,47,127
26466,note_on,0,0,0,,4,,,76,127
26466,note_on,0,0,0,,4,,,40,127
26576,note_on,110,0,0,,12,,,71,127
26686,note_off,110,0,0,,12,,,71,127
26686,note_on,0,0,0,,7,,,67,127
26796,note_off,110,0,0,,7,,,67,127
26796,note_on,0,0,0,,4,,,64,127
26901,note_off,105,0,0,,4,,,76,127
26906,note_off,5,0,0,,4,,,64,127
26906,note_off,0,0,0,,4,,,40,127
26906,note_on,0,0,0,,12,,,59,127
27016,note_on,110,0,0,,7,,,55,127
27126,note_off,110,0,0,,7,,,55,127
27126,note_on,0,0,0,,4,,,52,127
27236,note_off,110,0,0,,4,,,52,127
27236,note_on,0,0,0,,12,,,47,127
27341,note_off,105,0,0,,12,,,59,127
27346,note_off,5,0,0,,12,,,47,127
27346,note_on,0,0,0,,4,,,40,127
28004,note_off,658,0,0,,4,,,40,127
28004,note_on,0,0,0,,7,,,79,127
28004,note_on,0,0,0,,7,,,67,127
28004,note_on,0,0,0,,4,,,64,127
28114,note_off,110,0,0,,7,,,79,127
28114,note_on,0,0,0,,4,,,76,127
28224,note_off,110,0,0,,4,,,76,127
28224,note_off,0,0,0,,4,,,64,127
28224,note_off,0,0,0,,7,,,67,127
28224,note_on,0,0,0,,11,,,82,127
28224,note_on,0,0,0,,6,,,66,127
28224,note_on,0,0,0,,2,,,62,127
28443,note_off,219,0,0,,2,,,62,127
28443,note_off,0,0,0,,6,,,66,127
28443,note_off,0,0,0,,11,,,82,127
28443,note_on,0,0,0,,12,,,83,127
28443,note_on,0,0,0,,2,,,62,127
28443,note_on,0,0,0,,6,,,66,127
28662,note_off,219,0,0,,2,,,62,127
28662,note_on,0,0,0,,4,,,64,127
28662,note_on,0,0,0,,7,,,67,127
28663,note_off,1,0,0,,6,,,66,127
28881,note_off,218,0,0,,7,,,67,127
28881,note_off,0,0,0,,4,,,64,127
28881,note_off,0,0,0,,12,,,83,127
28881,note_on,0,0,0,,7,,,79,127
28881,note_on,0,0,0,,4,,,64,127
28881,note_on,0,0,0,,7,,,67,127
28991,note_off,110,0,0,,7,,,79,127
28991,note_on,0,0,0,,4,,,76,127
29101,note_off,110,0,0,,4,,,76,127
29101,note_off,0,0,0,,7,,,67,127
29101,note_off,0,0,0,,4,,,64,127
29101,note_on,0,0,0,,5,,,77,127
29101,note_on,0,0,0,,6,,,66,127
29101,note_on,0,0,0,,2,,,62,127
29320,note_off,219,0,0,,2,,,62,127
29320,note_off,0,0,0,,6,,,66,127
29320,note_off,0,0,0,,5,,,77,127
29320,note_on,0,0,0,,6,,,78,127
29320,note_on,0,0,0,,2,,,62,127
29320,note_on,0,0,0,,6,,,66,127
29539,note_off,219,0,0,,6,,,66,127
29539,note_off,0,0,0,,2,,,62,127
29539,note_on,0,0,0,,7,,,67,127
29539,note_on,0,0,0,,4,,,64,127
29758,note_off,219,0,0,,4,,,64,127
29758,note_off,0,0,0,,7,,,67,127
29758,note_off,0,0,0,,6,,,78,127
29758,note_on,0,0,0,,7,,,79,127
29758,note_on,0,0,0,,4,,,64,127
29758,note_on,0,0,0,,7,,,67,127
29868,note_off,110,0,0,,7,,,79,127
29868,note_on,0,0,0,,4,,,76,127
29978,note_off,110,0,0,,4,,,76,127
29978,note_off,0,0,0,,7,,,67,127
29978,note_off,0,0,0,,4,,,64,127
29978,note_on,0,0,0,,11,,,82,127
29978,note_on,0,0,0,,6,,,66,127
29978,note_on,0,0,0,,2,,,62,127
30197,note_off,219,0,0,,2,,,62,127
30197,note_off,0,0,0,,6,,,66,127
30197,note_off,0,0,0,,11,,,82,127
30197,note_on,0,0,0,,12,,,83,127
30197,note_on,0,0,0,,6,,,66,127
30197,note_on,0,0,0,,2,,,62,127
30416,note_off,219,0,0,,6,,,66,127
30416,note_on,0,0,0,,4,,,64,127
30416,note_on,0,0,0,,7,,,67,127
30421,note_off,5,0,0,,2,,,62,127
30636,note_off,215,0,0,,7,,,67,127
30636,note_off,0,0,0,,4,,,64,127
30636,note_off,0,0,0,,12,,,83,127
30636,note_on,0,0,0,,7,,,79,127
30636,note_on,0,0,0,,4,,,64,127
30636,note_on,0,0,0,,7,,,67,127
30746,note_off,110,0,0,,7,,,79,127
30746,note_on,0,0,0,,4,,,76,127
30856,note_off,110,0,0,,4,,,76,127
30856,note_off,0,0,0,,4,,,64,127
30856,note_on,0,0,0,,5,,,77,127
30856,note_on,0,0,0,,6,,,66,127
30856,note_on,0,0,0,,2,,,62,127
30859,note_off,3,0,0,,7,,,67,127
31075,note_off,216,0,0,,2,,,62,127
31075,note_off,0,0,0,,6,,,66,127
31075,note_off,0,0,0,,5,,,77,127
31075,note_on,0,0,0,,6,,,78,127
31075,note_on,0,0,0,,2,,,62,127
31075,note_on,0,0,0,,6,,,66,127
31294,note_off,219,0,0,,6,,,66,127
31294,note_off,0,0,0,,2,,,62,127
31294,note_on,0,0,0,,2,,,62,127
31294,note_on,0,0,0,,12,,,59,127
31513,note_off,219,0,0,,12,,,59,127
31513,note_off,0,0,0,,2,,,62,127
31513,note_off,0,0,0,,6,,,78,127
31513,note_on,0,0,0,,12,,,83,127
31513,note_on,0,0,0,,2,,,62,127
31513,note_on,0,0,0,,12,,,59,127
31623,note_off,110,0,0,,12,,,83,127
31623,note_on,0,0,0,,2,,,74,127
31733,note_off,110,0,0,,2,,,74,127
31733,note_off,0,0,0,,12,,,59,127
31733,note_off,0,0,0,,2,,,62,127
31733,note_on,0,0,0,,3,,,75,127
31733,note_on,0,0,0,,1,,,61,127
31733,note_on,0,0,0,,4,,,64,127
31951,note_off,218,0,0,,1,,,61,127
31952,note_off,1,0,0,,4,,,64,127
31952,note_off,0,0,0,,3,,,75,127
31952,note_on,0,0,0,,4,,,76,127
31952,note_on,0,0,0,,4,,,64,127
31952,note_on,0,0,0,,1,,,61,127
32170,note_off,218,0,0,,1,,,61,127
32171,note_off,1,0,0,,4,,,64,127
32171,note_on,0,0,0,,1,,,61,127
32171,note_on,0,0,0,,4,,,64,127
32171,note_on,0,0,0,,6,,,54,127
32389,note_off,218,0,0,,1,,,61,127
32390,note_off,1,0,0,,6,,,54,127
32390,note_off,0,0,0,,4,,,64,127
32390,note_off,0,0,0,,4,,,76,127
32390,note_on,0,0,0,,12,,,83,127
32390,note_on,0,0,0,,4,,,64,127
32390,note_on,0,0,0,,1,,,61,127
32390,note_on,0,0,0,,6,,,54,127
32500,note_off,110,0,0,,12,,,83,127
32500,note_on,0,0,0,,1,,,73,127
32610,note_off,110,0,0,,1,,,73,127
32610,note_off,0,0,0,,6,,,54,127
32610,note_off,0,0,0,,1,,,61,127
32610,note_off,0,0,0,,4,,,64,127
32610,note_on,0,0,0,,1,,,73,127
32610,note_on,0,0,0,,12,,,47,127
32829,note_off,219,0,0,,1,,,73,127
32829,note_on,0,0,0,,3,,,75,127
32829,note_on,0,0,0,,12,,,59,127
33048,note_off,219,0,0,,12,,,59,127
33048,note_on,0,0,0,,12,,,59,127
33048,note_on,0,0,0,,12,,,71,127
33266,note_off,218,0,0,,12,,,47,127
33267,note_off,1,0,0,,3,,,75,127
33267,note_on,0,0,0,,6,,,78,127
33267,note_on,0,0,0,,12,,,47,127
33482,note_off,215,0,0,,12,,,59,127
33487,note_off,5,0,0,,12,,,47,127
33487,note_on,0,0,0,,4,,,52,127
33597,note_off,110,0,0,,6,,,78,127
33597,note_on,0,0,0,,4,,,76,127
33707,note_off,110,0,0,,4,,,76,127
33707,note_on,0,0,0,,8,,,80,127
33817,note_off,110,0,0,,8,,,80,127
33817,note_on,0,0,0,,6,,,78,127
33922,note_off,105,0,0,,12,,,71,127
33927,note_off,5,0,0,,6,,,78,127
33927,note_on,0,0,0,,4,,,76,127
34037,note_off,110,0,0,,4,,,76,127
34037,note_on,0,0,0,,3,,,75,127
34147,note_off,110,0,0,,3,,,75,127
34147,note_off,0,0,0,,4,,,52,127
34147,note_on,0,0,0,,1,,,73,127
34147,note_on,0,0,0,,4,,,52,127
34257,note_off,110,0,0,,1,,,73,127
34257,note_on,0,0,0,,12,,,71,127
34367,note_off,110,0,0,,12,,,71,127
34367,note_off,0,0,0,,4,,,52,127
34367,note_on,0,0,0,,11,,,70,127
34367,note_on,0,0,0,,6,,,54,127
34586,note_off,219,0,0,,6,,,54,127
34586,note_on,0,0,0,,6,,,78,127
34586,note_on,0,0,0,,11,,,58,127
34696,note_off,110,0,0,,11,,,70,127
34806,note_off,110,0,0,,11,,,58,127
34806,note_off,0,0,0,,6,,,78,127
34806,note_on,0,0,0,,3,,,75,127
34806,note_on,0,0,0,,12,,,59,127
35025,note_off,219,0,0,,12,,,59,127
35025,note_off,0,0,0,,3,,,75,127
35025,note_on,0,0,0,,1,,,73,127
35025,note_on,0,0,0,,3,,,51,127
35135,note_off,110,0,0,,1,,,73,127
35135,note_on,0,0,0,,12,,,71,127
35245,note_off,110,0,0,,12,,,71,127
35245,note_off,0,0,0,,3,,,51,127
35245,note_on,0,0,0,,12,,,83,127
35245,note_on,0,0,0,,4,,,52,127
35464,note_off,219,0,0,,12,,,83,127
35464,note_on,0,0,0,,8,,,80,127
35683,note_off,219,0,0,,8,,,80,127
35683,note_on,0,0,0,,4,,,76,127
35902,note_off,219,0,0,,4,,,76,127
35902,note_off,0,0,0,,4,,,52,127
35902,note_on,0,0,0,,1,,,73,127
35902,note_on,0,0,0,,4,,,52,127
36121,note_off,219,0,0,,4,,,52,127
36121,note_off,0,0,0,,1,,,73,127
36121,note_on,0,0,0,,11,,,70,127
36121,note_on,0,0,0,,6,,,54,127
36340,note_off,219,0,0,,6,,,54,127
36340,note_on,0,0,0,,6,,,78,127
36340,note_on,0,0,0,,11,,,58,127
36555,note_off,215,0,0,,11,,,70,127
36560,note_off,5,0,0,,11,,,58,127
36560,note_off,0,0,0,,6,,,78,127
36560,note_on,0,0,0,,3,,,75,127
36560,note_on,0,0,0,,12,,,59,127
36779,note_off,219,0,0,,12,,,59,127
36779,note_off,0,0,0,,3,,,75,127
36779,note_on,0,0,0,,1,,,73,127
36779,note_on,0,0,0,,3,,,51,127
36889,note_off,110,0,0,,1,,,73,127
36889,note_on,0,0,0,,12,,,71,127
36999,note_off,110,0,0,,12,,,71,127
36999,note_off,0,0,0,,3,,,51,127
36999,note_on,0,0,0,,12,,,83,127
36999,note_on,0,0,0,,4,,,52,127
37218,note_off,219,0,0,,12,,,83,127
37218,note_on,0,0,0,,8,,,80,127
37437,note_off,219,0,0,,8,,,80,127
37437,note_on,0,0,0,,4,,,76,127
37656,note_off,219,0,0,,4,,,76,127
37656,note_off,0,0,0,,4,,,52,127
37656,note_on,0,0,0,,1,,,73,127
37656,note_on,0,0,0,,4,,,52,127
37875,note_off,219,0,0,,4,,,52,127
37875,note_off,0,0,0,,1,,,73,127
37875,note_on,0,0,0,,11,,,70,127
37875,note_on,0,0,0,,6,,,54,127
38094,note_off,219,0,0,,11,,,70,127
38094,note_on,0,0,0,,6,,,78,127
38094,note_on,0,0,0,,1,,,61,127
38094,note_on,0,0,0,,6,,,66,127
38313,note_off,219,0,0,,1,,,61,127
38313,note_on,0,0,0,,2,,,62,127
38532,note_off,219,0,0,,2,,,62,127
38532,note_on,0,0,0,,12,,,59,127
38740,note_off,208,0,0,,6,,,66,127
38740,note_off,0,0,0,,6,,,78,127
38751,note_off,11,0,0,,12,,,59,127
38751,note_off,0,0,0,,6,,,54,127
38751,note_on,0,0,0,,7,,,79,127
38751,note_on,0,0,0,,4,,,52,127
38751,note_on,0,0,0,,7,,,67,127
38959,note_off,208,0,0,,7,,,67,127
38959,note_off,0,0,0,,7,,,79,127
38970,note_on,11,0,0,,11,,,82,127
38970,note_on,0,0,0,,1,,,61,127
38970,note_on,0,0,0,,11,,,70,127
39178,note_off,208,0,0,,11,,,70,127
39178,note_off,0,0,0,,11,,,82,127
39189,note_off,11,0,0,,1,,,61,127
39189,note_on,0,0,0,,12,,,83,127
39189,note_on,0,0,0,,2,,,62,127
39189,note_on,0,0,0,,12,,,71,127
39397,note_off,208,0,0,,12,,,71,127
39397,note_off,0,0,0,,12,,,83,127
39408,note_off,11,0,0,,2,,,62,127
39408,note_on,0,0,0,,7,,,79,127
39408,note_on,0,0,0,,12,,,59,127
39408,note_on,0,0,0,,7,,,67,127
39616,note_off,208,0,0,,7,,,67,127
39616,note_off,0,0,0,,7,,,79,127
39627,note_off,11,0,0,,12,,,59,127
39627,note_off,0,0,0,,4,,,52,127
39627,note_on,0,0,0,,5,,,77,127
39627,note_on,0,0,0,,6,,,54,127
39627,note_on,0,0,0,,5,,,65,127
39835,note_off,208,0,0,,5,,,65,127
39835,note_off,0,0,0,,5,,,77,127
39846,note_on,11,0,0,,6,,,78,127
39846,note_on,0,0,0,,1,,,61,127
39846,note_on,0,0,0,,6,,,66,127
40065,note_off,219,0,0,,1,,,61,127
40065,note_on,0,0,0,,2,,,62,127
40284,note_off,219,0,0,,2,,,62,127
40284,note_on,0,0,0,,12,,,59,127
40492,note_off,208,0,0,,6,,,66,127
40492,note_off,0,0,0,,6,,,78,127
40503,note_off,11,0,0,,12,,,59,127
40503,note_off,0,0,0,,6,,,54,127
40503,note_on,0,0,0,,7,,,79,127
40503,note_on,0,0,0,,4,,,52,127
40503,note_on,0,0,0,,7,,,67,127
40711,note_off,208,0,0,,7,,,67,127
40711,note_off,0,0,0,,7,,,79,127
40722,note_on,11,0,0,,11,,,82,127
40722,note_on,0,0,0,,1,,,61,127
40722,note_on,0,0,0,,11,,,70,127
40930,note_off,208,0,0,,11,,,70,127
40930,note_off,0,0,0,,11,,,82,127
40941,note_off,11,0,0,,1,,,61,127
40941,note_on,0,0,0,,12,,,83,127
40941,note_on,0,0,0,,2,,,62,127
40941,note_on,0,0,0,,12,,,71,127
41149,note_off,208,0,0,,12,,,71,127
41149,note_off,0,0,0,,12,,,83,127
41160,note_off,11,0,0,,2,,,62,127
41160,note_on,0,0,0,,7,,,79,127
41160,note_on,0,0,0,,12,,,59,127
41160,note_on,0,0,0,,7,,,67,127
41368,note_off,208,0,0,,7,,,67,127
41368,note_off,0,0,0,,7,,,79,127
41379,note_off,11,0,0,,12,,,59,127
41379,note_off,0,0,0,,4,,,52,127
41379,note_on,0,0,0,,5,,,77,127
41379,note_on,0,0,0,,6,,,54,127
41379,note_on,0,0,0,,5,,,65,127
41587,note_off,208,0,0,,5,,,65,127
41587,note_off,0,0,0,,5,,,77,127
41598,note_on,11,0,0,,6,,,78,127
41598,note_on,0,0,0,,1,,,61,127
41598,note_on,0,0,0,,6,,,66,127
41817,note_off,219,0,0,,1,,,61,127
41817,note_on,0,0,0,,2,,,62,127
42036,note_off,219,0,0,,2,,,62,127
42036,note_on,0,0,0,,12,,,59,127
42244,note_off,208,0,0,,6,,,66,127
42244,note_off,0,0,0,,6,,,78,127
42255,note_off,11,0,0,,12,,,59,127
42255,note_off,0,0,0,,6,,,54,127
42255,note_on,0,0,0,,4,,,76,127
42255,note_on,0,0,0,,1,,,73,127
42255,note_on,0,0,0,,11,,,70,127
42255,note_on,0,0,0,,4,,,64,127
42255,note_on,0,0,0,,1,,,61,127
42255,note_on,0,0,0,,6,,,54,127
42694,note_off,439,0,0,,6,,,54,127
42694,note_off,0,0,0,,1,,,61,127
42694,note_off,0,0,0,,4,,,64,127
42694,note_off,0,0,0,,11,,,70,127
42694,note_off,0,0,0,,1,,,73,127
42694,note_off,0,0,0,,4,,,76,127
42694,note_on,0,0,0,,2,,,74,127
42694,note_on,0,0,0,,12,,,71,127
42694,note_on,0,0,0,,2,,,62,127
42694,note_on,0,0,0,,6,,,54,127
42694,note_on,0,0,0,,12,,,59,127
42804,note_off,110,0,0,,2,,,74,127
42804,note_on,0,0,0,,1,,,73,127
42914,note_off,110,0,0,,1,,,73,127
42914,note_on,0,0,0,,2,,,74,127
43133,note_off,219,0,0,,2,,,74,127
43133,note_off,0,0,0,,12,,,59,127
43133,note_off,0,0,0,,6,,,54,127
43133,note_off,0,0,0,,2,,,62,127
43133,note_off,0,0,0,,12,,,71,127
43133,note_on,0,0,0,,1,,,73,127
43133,note_on,0,0,0,,11,,,70,127
43133,note_on,0,0,0,,6,,,54,127
43243,note_off,110,0,0,,1,,,73,127
43243,note_on,0,0,0,,12,,,71,127
43353,note_off,110,0,0,,12,,,71,127
43353,note_on,0,0,0,,1,,,73,127
43353,note_on,0,0,0,,1,,,61,127
43572,note_off,219,0,0,,1,,,61,127
43572,note_off,0,0,0,,11,,,70,127
43572,note_on,0,0,0,,4,,,64,127
43764,note_off,192,0,0,,1,,,73,127
43791,note_off,27,0,0,,4,,,64,127
43791,note_on,0,0,0,,12,,,71,127
43791,note_on,0,0,0,,6,,,78,127
43791,note_on,0,0,0,,2,,,62,127
44010,note_off,219,0,0,,2,,,62,127
44010,note_off,0,0,0,,6,,,78,127
44010,note_off,0,0,0,,12,,,71,127
44010,note_off,0,0,0,,6,,,54,127
44010,note_on,0,0,0,,4,,,76,127
44010,note_on,0,0,0,,11,,,70,127
44010,note_on,0,0,0,,1,,,73,127
44010,note_on,0,0,0,,6,,,54,127
44229,note_on,219,0,0,,1,,,61,127
44448,note_off,219,0,0,,1,,,61,127
44448,note_off,0,0,0,,1,,,73,127
44448,note_off,0,0,0,,11,,,70,127
44448,note_off,0,0,0,,4,,,76,127
44448,note_on,0,0,0,,12,,,71,127
44448,note_on,0,0,0,,2,,,74,127
44448,note_on,0,0,0,,2,,,62,127
44557,note_off,109,0,0,,2,,,74,127
44558,note_on,1,0,0,,1,,,73,127
44668,note_off,110,0,0,,1,,,73,127
44668,note_off,0,0,0,,2,,,62,127
44668,note_on,0,0,0,,2,,,74,127
44668,note_on,0,0,0,,12,,,59,127
44887,note_off,219,0,0,,12,,,59,127
44887,note_off,0,0,0,,12,,,71,127
44887,note_off,0,0,0,,6,,,54,127
44887,note_on,0,0,0,,11,,,70,127
44887,note_on,0,0,0,,1,,,73,127
44887,note_on,0,0,0,,6,,,54,127
44889,note_off,2,0,0,,2,,,74,127
45106,note_on,217,0,0,,1,,,61,127
45325,note_off,219,0,0,,1,,,61,127
45325,note_off,0,0,0,,11,,,70,127
45325,note_on,0,0,0,,2,,,62,127
45544,note_off,219,0,0,,2,,,62,127
45544,note_off,0,0,0,,1,,,73,127
45544,note_on,0,0,0,,12,,,71,127
45544,note_on,0,0,0,,2,,,74,127
45544,note_on,0,0,0,,12,,,59,127
45763,note_off,219,0,0,,12,,,59,127
45763,note_off,0,0,0,,2,,,74,127
45763,note_off,0,0,0,,12,,,71,127
45763,note_off,0,0,0,,6,,,54,127
45763,note_on,0,0,0,,11,,,70,127
45763,note_on,0,0,0,,4,,,76,127
45763,note_on,0,0,0,,1,,,73,127
45763,note_on,0,0,0,,1,,,61,127
45982,note_off,219,0,0,,1,,,61,127
45982,note_on,0,0,0,,11,,,58,127
46201,note_off,219,0,0,,11,,,58,127
46201,note_off,0,0,0,,1,,,73,127
46201,note_off,0,0,0,,4,,,76,127
46201,note_off,0,0,0,,11,,,70,127
46201,note_on,0,0,0,,2,,,74,127
46201,note_on,0,0,0,,12,,,71,127
46201,note_on,0,0,0,,12,,,59,127
46311,note_off,110,0,0,,12,,,71,127
46311,note_off,0,0,0,,2,,,74,127
46311,note_on,0,0,0,,1,,,73,127
46421,note_off,110,0,0,,1,,,73,127
46421,note_on,0,0,0,,2,,,74,127
46421,note_on,0,0,0,,12,,,47,127
46531,note_off,110,0,0,,12,,,59,127
46641,note_off,110,0,0,,12,,,47,127
46641,note_off,0,0,0,,2,,,74,127
46641,note_on,0,0,0,,1,,,73,127
46641,note_on,0,0,0,,6,,,42,127
46751,note_off,110,0,0,,1,,,73,127
46751,note_on,0,0,0,,12,,,71,127
46861,note_off,110,0,0,,12,,,71,127
46861,note_on,0,0,0,,12,,,83,127
46971,note_off,110,0,0,,12,,,83,127
46971,note_on,0,0,0,,12,,,71,127
47081,note_off,110,0,0,,12,,,71,127
47081,note_off,0,0,0,,6,,,42,127
47081,note_on,0,0,0,,3,,,75,127
47081,note_on,0,0,0,,3,,,63,127
47191,note_off,110,0,0,,3,,,75,127
47191,note_on,0,0,0,,12,,,71,127
47301,note_off,110,0,0,,12,,,71,127
47301,note_off,0,0,0,,3,,,63,127
47301,note_on,0,0,0,,12,,,83,127
47301,note_on,0,0,0,,1,,,61,127
47411,note_off,110,0,0,,1,,,61,127
47411,note_off,0,0,0,,12,,,83,127
47411,note_on,0,0,0,,12,,,71,127
47411,note_on,0,0,0,,12,,,59,127
47521,note_off,110,0,0,,12,,,59,127
47521,note_off,0,0,0,,12,,,71,127
47521,note_on,0,0,0,,3,,,75,127
47521,note_on,0,0,0,,6,,,42,127
47631,note_off,110,0,0,,3,,,75,127
47631,note_on,0,0,0,,12,,,71,127
47741,note_off,110,0,0,,12,,,71,127
47741,note_on,0,0,0,,12,,,83,127
47851,note_off,110,0,0,,12,,,83,127
47851,note_on,0,0,0,,12,,,71,127
47961,note_off,110,0,0,,12,,,71,127
47961,note_off,0,0,0,,6,,,42,127
47961,note_on,0,0,0,,3,,,75,127
47961,note_on,0,0,0,,3,,,63,127
48071,note_off,110,0,0,,3,,,75,127
48071,note_on,0,0,0,,12,,,71,127
48181,note_off,110,0,0,,12,,,71,127
48181,note_off,0,0,0,,3,,,63,127
48181,note_on,0,0,0,,6,,,78,127
48181,note_on,0,0,0,,1,,,61,127
48291,note_off,110,0,0,,1,,,61,127
48291,note_off,0,0,0,,6,,,78,127
48291,note_on,0,0,0,,12,,,71,127
48291,note_on,0,0,0,,12,,,59,127
48401,note_off,110,0,0,,12,,,59,127
48401,note_off,0,0,0,,12,,,71,127
48401,note_on,0,0,0,,8,,,80,127
48401,note_on,0,0,0,,4,,,40,127
48511,note_off,110,0,0,,8,,,80,127
48511,note_on,0,0,0,,12,,,71,127
48621,note_off,110,0,0,,12,,,71,127
48621,note_on,0,0,0,,12,,,83,127
48731,note_off,110,0,0,,12,,,83,127
48731,note_on,0,0,0,,12,,,71,127
48841,note_off,110,0,0,,12,,,71,127
48841,note_off,0,0,0,,4,,,40,127
48841,note_on,0,0,0,,8,,,80,127
48841,note_on,0,0,0,,3,,,63,127
48951,note_off,110,0,0,,8,,,80,127
48951,note_on,0,0,0,,12,,,71,127
49061,note_off,110,0,0,,12,,,71,127
49061,note_off,0,0,0,,3,,,63,127
49061,note_on,0,0,0,,4,,,76,127
49061,note_on,0,0,0,,1,,,61,127
49171,note_off,110,0,0,,1,,,61,127
49171,note_off,0,0,0,,4,,,76,127
49171,note_on,0,0,0,,12,,,71,127
49171,note_on,0,0,0,,12,,,59,127
49281,note_off,110,0,0,,12,,,59,127
49281,note_off,0,0,0,,12,,,71,127
49281,note_on,0,0,0,,6,,,78,127
49281,note_on,0,0,0,,3,,,39,127
49391,note_off,110,0,0,,6,,,78,127
49391,note_on,0,0,0,,12,,,71,127
49501,note_off,110,0,0,,12,,,71,127
49501,note_on,0,0,0,,12,,,83,127
49611,note_off,110,0,0,,12,,,83,127
49611,note_on,0,0,0,,12,,,71,127
49721,note_off,110,0,0,,12,,,71,127
49721,note_off,0,0,0,,3,,,39,127
49721,note_on,0,0,0,,6,,,78,127
49721,note_on,0,0,0,,3,,,63,127
49831,note_off,110,0,0,,6,,,78,127
49831,note_on,0,0,0,,12,,,71,127
49941,note_off,110,0,0,,12,,,71,127
49941,note_off,0,0,0,,3,,,63,127
49941,note_on,0,0,0,,3,,,75,127
49941,note_on,0,0,0,,1,,,61,127
50051,note_off,110,0,0,,1,,,61,127
50051,note_off,0,0,0,,3,,,75,127
50051,note_on,0,0,0,,12,,,71,127
50051,note_on,0,0,0,,12,,,59,127
50161,note_off,110,0,0,,12,,,59,127
50161,note_off,0,0,0,,12,,,71,127
50161,note_on,0,0,0,,4,,,76,127
50161,note_on,0,0,0,,1,,,37,127
50271,note_off,110,0,0,,4,,,76,127
50271,note_on,0,0,0,,12,,,71,127
50381,note_off,110,0,0,,12,,,71,127
50381,note_on,0,0,0,,12,,,83,127
50491,note_off,110,0,0,,12,,,83,127
50491,note_on,0,0,0,,12,,,71,127
50601,note_off,110,0,0,,12,,,71,127
50601,note_off,0,0,0,,1,,,37,127
50601,note_on,0,0,0,,4,,,76,127
50601,note_on,0,0,0,,3,,,63,127
50711,note_off,110,0,0,,4,,,76,127
50711,note_on,0,0,0,,12,,,71,127
50821,note_off,110,0,0,,12,,,71,127
50821,note_off,0,0,0,,3,,,63,127
50821,note_on,0,0,0,,1,,,73,127
50821,note_on,0,0,0,,1,,,61,127
50931,note_off,110,0,0,,1,,,61,127
50931,note_off,0,0,0,,1,,,73,127
50931,note_on,0,0,0,,12,,,71,127
50931,note_on,0,0,0,,12,,,59,127
51041,note_off,110,0,0,,12,,,59,127
51041,note_off,0,0,0,,12,,,71,127
51041,note_on,0,0,0,,3,,,75,127
51041,note_on,0,0,0,,12,,,35,127
51151,note_on,110,0,0,,12,,,71,127
51258,note_off,107,0,0,,3,,,75,127
51260,note_off,2,0,0,,12,,,71,127
51260,note_on,0,0,0,,3,,,75,127
51370,note_off,110,0,0,,3,,,75,127
51370,note_on,0,0,0,,6,,,78,127
51480,note_off,110,0,0,,6,,,78,127
51480,note_on,0,0,0,,12,,,83,127
51590,note_off,110,0,0,,12,,,83,127
51590,note_on,0,0,0,,11,,,82,127
51700,note_off,110,0,0,,11,,,82,127
51700,note_off,0,0,0,,12,,,35,127
51700,note_on,0,0,0,,8,,,80,127
51700,note_on,0,0,0,,3,,,39,127
51810,note_off,110,0,0,,8,,,80,127
51810,note_on,0,0,0,,6,,,78,127
51920,note_off,110,0,0,,6,,,78,127
51920,note_off,0,0,0,,3,,,39,127
51920,note_on,0,0,0,,4,,,76,127
51920,note_on,0,0,0,,4,,,40,127
52030,note_off,110,0,0,,4,,,76,127
52030,note_on,0,0,0,,3,,,75,127
52140,note_off,110,0,0,,3,,,75,127
52140,note_off,0,0,0,,4,,,40,127
52140,note_on,0,0,0,,1,,,73,127
52140,note_on,0,0,0,,4,,,52,127
52250,note_off,110,0,0,,1,,,73,127
52250,note_on,0,0,0,,12,,,71,127
52360,note_off,110,0,0,,12,,,71,127
52360,note_off,0,0,0,,4,,,52,127
52360,note_on,0,0,0,,6,,,78,127
52360,note_on,0,0,0,,6,,,54,127
52470,note_off,110,0,0,,6,,,78,127
52470,note_on,0,0,0,,4,,,76,127
52580,note_off,110,0,0,,4,,,76,127
52580,note_on,0,0,0,,3,,,75,127
52580,note_on,0,0,0,,6,,,42,127
52690,note_off,110,0,0,,3,,,75,127
52690,note_on,0,0,0,,1,,,73,127
52795,note_off,105,0,0,,6,,,54,127
52800,note_off,5,0,0,,1,,,73,127
52800,note_off,0,0,0,,6,,,42,127
52800,note_on,0,0,0,,12,,,83,127
52800,note_on,0,0,0,,12,,,47,127
52910,note_off,110,0,0,,12,,,83,127
52910,note_on,0,0,0,,12,,,71,127
53020,note_off,110,0,0,,12,,,71,127
53020,note_on,0,0,0,,3,,,75,127
53130,note_off,110,0,0,,3,,,75,127
53130,note_on,0,0,0,,12,,,71,127
53240,note_off,110,0,0,,12,,,71,127
53240,note_off,0,0,0,,12,,,47,127
53240,note_on,0,0,0,,6,,,78,127
53240,note_on,0,0,0,,3,,,63,127
53350,note_off,110,0,0,,6,,,78,127
53350,note_on,0,0,0,,12,,,71,127
53460,note_off,110,0,0,,12,,,71,127
53460,note_off,0,0,0,,3,,,63,127
53460,note_on,0,0,0,,4,,,76,127
53460,note_on,0,0,0,,1,,,61,127
53570,note_off,110,0,0,,1,,,61,127
53570,note_off,0,0,0,,4,,,76,127
53570,note_on,0,0,0,,12,,,71,127
53570,note_on,0,0,0,,12,,,59,127
53680,note_off,110,0,0,,12,,,59,127
53680,note_off,0,0,0,,12,,,71,127
53680,note_on,0,0,0,,3,,,75,127
53680,note_on,0,0,0,,6,,,42,127
53790,note_off,110,0,0,,3,,,75,127
53790,note_on,0,0,0,,12,,,71,127
53900,note_off,110,0,0,,12,,,71,127
53900,note_on,0,0,0,,12,,,83,127
54010,note_off,110,0,0,,12,,,83,127
54010,note_on,0,0,0,,12,,,71,127
54120,note_off,110,0,0,,12,,,71,127
54120,note_off,0,0,0,,6,,,42,127
54120,note_on,0,0,0,,3,,,75,127
54120,note_on,0,0,0,,3,,,63,127
54230,note_off,110,0,0,,3,,,75,127
54230,note_on,0,0,0,,12,,,71,127
54340,note_off,110,0,0,,12,,,71,127
54340,note_off,0,0,0,,3,,,63,127
54340,note_on,0,0,0,,6,,,78,127
54340,note_on,0,0,0,,1,,,61,127
54450,note_off,110,0,0,,1,,,61,127
54450,note_off,0,0,0,,6,,,78,127
54450,note_on,0,0,0,,12,,,71,127
54450,note_on,0,0,0,,12,,,59,127
54560,note_off,110,0,0,,12,,,59,127
54560,note_off,0,0,0,,12,,,71,127
54560,note_on,0,0,0,,8,,,80,127
54560,note_on,0,0,0,,4,,,40,127
54670,note_off,110,0,0,,8,,,80,127
54670,note_on,0,0,0,,12,,,71,127
54780,note_off,110,0,0,,12,,,71,127
54780,note_on,0,0,0,,12,,,83,127
54890,note_off,110,0,0,,12,,,83,127
54890,note_on,0,0,0,,12,,,71,127
55000,note_off,110,0,0,,12,,,71,127
55000,note_off,0,0,0,,4,,,40,127
55000,note_on,0,0,0,,8,,,80,127
55000,note_on,0,0,0,,3,,,63,127
55110,note_off,110,0,0,,8,,,80,127
55110,note_on,0,0,0,,12,,,71,127
55220,note_off,110,0,0,,12,,,71,127
55220,note_off,0,0,0,,3,,,63,127
55220,note_on,0,0,0,,4,,,76,127
55220,note_on,0,0,0,,1,,,61,127
55330,note_off,110,0,0,,1,,,61,127
55330,note_off,0,0,0,,4,,,76,127
55330,note_on,0,0,0,,12,,,71,127
55330,note_on,0,0,0,,12,,,59,127
55440,note_off,110,0,0,,12,,,59,127
55440,note_off,0,0,0,,12,,,71,127
55440,note_on,0,0,0,,6,,,78,127
55440,note_on,0,0,0,,3,,,39,127
55550,note_off,110,0,0,,6,,,78,127
55550,note_on,0,0,0,,12,,,71,127
55660,note_off,110,0,0,,12,,,71,127
55660,note_on,0,0,0,,12,,,83,127
55770,note_off,110,0,0,,12,,,83,127
55770,note_on,0,0,0,,12,,,71,127
55880,note_off,110,0,0,,12,,,71,127
55880,note_off,0,0,0,,3,,,39,127
55880,note_on,0,0,0,,6,,,78,127
55880,note_on,0,0,0,,3,,,63,127
55990,note_off,110,0,0,,6,,,78,127
55990,note_on,0,0,0,,12,,,71,127
56100,note_off,110,0,0,,12,,,71,127
56100,note_off,0,0,0,,3,,,63,127
56100,note_on,0,0,0,,3,,,75,127
56100,note_on,0,0,0,,1,,,61,127
56210,note_off,110,0,0,,1,,,61,127
56210,note_off,0,0,0,,3,,,75,127
56210,note_on,0,0,0,,12,,,71,127
56210,note_on,0,0,0,,12,,,59,127
56320,note_off,110,0,0,,12,,,59,127
56320,note_off,0,0,0,,12,,,71,127
56320,note_on,0,0,0,,4,,,76,127
56320,note_on,0,0,0,,1,,,37,127
56430,note_off,110,0,0,,4,,,76,127
56430,note_on,0,0,0,,12,,,71,127
56540,note_off,110,0,0,,12,,,71,127
56540,note_on,0,0,0,,12,,,83,127
56650,note_off,110,0,0,,12,,,83,127
56650,note_on,0,0,0,,12,,,71,127
56760,note_off,110,0,0,,12,,,71,127
56760,note_off,0,0,0,,1,,,37,127
56760,note_on,0,0,0,,4,,,76,127
56760,note_on,0,0,0,,3,,,63,127
56870,note_off,110,0,0,,4,,,76,127
56870,note_on,0,0,0,,12,,,71,127
56980,note_off,110,0,0,,12,,,71,127
56980,note_off,0,0,0,,3,,,63,127
56980,note_on,0,0,0,,1,,,73,127
56980,note_on,0,0,0,,1,,,61,127
57090,note_off,110,0,0,,1,,,61,127
57090,note_off,0,0,0,,1,,,73,127
57090,note_on,0,0,0,,12,,,71,127
57090,note_on,0,0,0,,12,,,59,127
57200,note_off,110,0,0,,12,,,59,127
57200,note_off,0,0,0,,12,,,71,127
57200,note_on,0,0,0,,3,,,75,127
57200,note_on,0,0,0,,12,,,35,127
57310,note_on,110,0,0,,12,,,71,127
57417,note_off,107,0,0,,3,,,75,127
57419,note_off,2,0,0,,12,,,71,127
57419,note_on,0,0,0,,3,,,75,127
57529,note_off,110,0,0,,3,,,75,127
57529,note_on,0,0,0,,6,,,78,127
57639,note_off,110,0,0,,6,,,78,127
57639,note_on,0,0,0,,12,,,83,127
57749,note_off,110,0,0,,12,,,83,127
57749,note_on,0,0,0,,11,,,82,127
57859,note_off,110,0,0,,11,,,82,127
57859,note_off,0,0,0,,12,,,35,127
57859,note_on,0,0,0,,8,,,80,127
57859,note_on,0,0,0,,3,,,39,127
57969,note_off,110,0,0,,8,,,80,127
57969,note_on,0,0,0,,6,,,78,127
58079,note_off,110,0,0,,6,,,78,127
58079,note_off,0,0,0,,3,,,39,127
58079,note_on,0,0,0,,4,,,76,127
58079,note_on,0,0,0,,4,,,40,127
58189,note_off,110,0,0,,4,,,76,127
58189,note_on,0,0,0,,3,,,75,127
58299,note_off,110,0,0,,3,,,75,127
58299,note_on,0,0,0,,1,,,73,127
58299,note_on,0,0,0,,4,,,52,127
58409,note_off,110,0,0,,1,,,73,127
58409,note_on,0,0,0,,12,,,71,127
58519,note_off,110,0,0,,12,,,71,127
58519,note_off,0,0,0,,4,,,52,127
58519,note_off,0,0,0,,4,,,40,127
58519,note_on,0,0,0,,6,,,78,127
58519,note_on,0,0,0,,6,,,54,127
58629,note_off,110,0,0,,6,,,78,127
58629,note_on,0,0,0,,4,,,76,127
58739,note_off,110,0,0,,4,,,76,127
58739,note_on,0,0,0,,3,,,75,127
58739,note_on,0,0,0,,6,,,42,127
58849,note_off,110,0,0,,3,,,75,127
58849,note_on,0,0,0,,1,,,73,127
58954,note_off,105,0,0,,6,,,54,127
58959,note_off,5,0,0,,1,,,73,127
58959,note_on,0,0,0,,12,,,83,127
58959,note_on,0,0,0,,12,,,71,127
59014,note_off,55,0,0,,6,,,42,127
59069,note_on,55,0,0,,12,,,59,127
59179,note_off,110,0,0,,12,,,59,127
59179,note_on,0,0,0,,1,,,61,127
59289,note_off,110,0,0,,1,,,61,127
59289,note_on,0,0,0,,3,,,63,127
59399,note_off,110,0,0,,3,,,63,127
59399,note_off,0,0,0,,12,,,71,127
59399,note_off,0,0,0,,12,,,83,127
59399,note_on,0,0,0,,8,,,80,127
59399,note_on,0,0,0,,4,,,64,127
59509,note_off,110,0,0,,4,,,64,127
59509,note_on,0,0,0,,6,,,66,127
59619,note_off,110,0,0,,6,,,66,127
59619,note_on,0,0,0,,8,,,68,127
59729,note_off,110,0,0,,8,,,68,127
59729,note_on,0,0,0,,11,,,70,127
59839,note_off,110,0,0,,11,,,70,127
59839,note_on,0,0,0,,6,,,42,127
59949,note_off,110,0,0,,8,,,80,127
59949,note_on,0,0,0,,8,,,80,127
60059,note_off,110,0,0,,8,,,80,127
60059,note_on,0,0,0,,6,,,78,127
60169,note_off,110,0,0,,6,,,78,127
60169,note_on,0,0,0,,4,,,76,127
60279,note_off,110,0,0,,4,,,76,127
60279,note_off,0,0,0,,6,,,42,127
60279,note_on,0,0,0,,4,,,76,127
60279,note_on,0,0,0,,12,,,47,127
60279,note_on,0,0,0,,12,,,59,127
60389,note_off,110,0,0,,4,,,76,127
60389,note_on,0,0,0,,3,,,75,127
60499,note_off,110,0,0,,3,,,75,127
60499,note_on,0,0,0,,1,,,73,127
60609,note_off,110,0,0,,1,,,73,127
60609,note_on,0,0,0,,12,,,71,127
60707,note_off,98,0,0,,12,,,59,127
60707,note_off,0,0,0,,12,,,47,127
60718,note_off,11,0,0,,12,,,71,127
60718,note_on,0,0,0,,1,,,73,127
60718,note_on,0,0,0,,4,,,40,127
60718,note_on,0,0,0,,4,,,52,127
60828,note_off,110,0,0,,1,,,73,127
60828,note_on,0,0,0,,4,,,76,127
60938,note_off,110,0,0,,4,,,76,127
60938,note_on,0,0,0,,3,,,75,127
61048,note_off,110,0,0,,3,,,75,127
61048,note_on,0,0,0,,1,,,73,127
61146,note_off,98,0,0,,4,,,52,127
61146,note_off,0,0,0,,4,,,40,127
61157,note_off,11,0,0,,1,,,73,127
61157,note_on,0,0,0,,6,,,78,127
61157,note_on,0,0,0,,6,,,42,127
61157,note_on,0,0,0,,6,,,54,127
61267,note_off,110,0,0,,6,,,78,127
61267,note_on,0,0,0,,4,,,76,127
61377,note_off,110,0,0,,4,,,76,127
61377,note_on,0,0,0,,3,,,75,127
61487,note_off,110,0,0,,3,,,75,127
61487,note_on,0,0,0,,1,,,73,127
61597,note_off,110,0,0,,1,,,73,127
61597,note_on,0,0,0,,12,,,83,127
61597,note_on,0,0,0,,12,,,71,127
61695,note_off,98,0,0,,6,,,42,127
61706,note_off,11,0,0,,6,,,54,127
61706,note_on,0,0,0,,12,,,59,127
61816,note_off,110,0,0,,12,,,59,127
61816,note_on,0,0,0,,1,,,61,127
61926,note_off,110,0,0,,1,,,61,127
61926,note_on,0,0,0,,3,,,63,127
62036,note_off,110,0,0,,3,,,63,127
62036,note_off,0,0,0,,12,,,71,127
62036,note_off,0,0,0,,12,,,83,127
62036,note_on,0,0,0,,8,,,80,127
62036,note_on,0,0,0,,4,,,64,127
62146,note_off,110,0,0,,4,,,64,127
62146,note_on,0,0,0,,6,,,66,127
62256,note_off,110,0,0,,6,,,66,127
62256,note_on,0,0,0,,8,,,68,127
62366,note_off,110,0,0,,8,,,68,127
62366,note_on,0,0,0,,11,,,70,127
62476,note_off,110,0,0,,11,,,70,127
62476,note_on,0,0,0,,6,,,42,127
62586,note_off,110,0,0,,8,,,80,127
62586,note_on,0,0,0,,8,,,80,127
62696,note_off,110,0,0,,8,,,80,127
62696,note_on,0,0,0,,6,,,78,127
62806,note_off,110,0,0,,6,,,78,127
62806,note_on,0,0,0,,4,,,76,127
62916,note_off,110,0,0,,4,,,76,127
62916,note_off,0,0,0,,6,,,42,127
62916,note_on,0,0,0,,4,,,76,127
62916,note_on,0,0,0,,12,,,59,127
62916,note_on,0,0,0,,12,,,47,127
63026,note_off,110,0,0,,4,,,76,127
63026,note_on,0,0,0,,3,,,75,127
63136,note_off,110,0,0,,3,,,75,127
63136,note_on,0,0,0,,1,,,73,127
63246,note_off,110,0,0,,1,,,73,127
63246,note_on,0,0,0,,12,,,71,127
63344,note_off,98,0,0,,12,,,47,127
63344,note_off,0,0,0,,12,,,59,127
63355,note_off,11,0,0,,12,,,71,127
63355,note_on,0,0,0,,1,,,73,127
63355,note_on,0,0,0,,4,,,52,127
63355,note_on,0,0,0,,4,,,40,127
63465,note_off,110,0,0,,1,,,73,127
63465,note_on,0,0,0,,4,,,76,127
63575,note_off,110,0,0,,4,,,76,127
63575,note_on,0,0,0,,3,,,75,127
63685,note_off,110,0,0,,3,,,75,127
63685,note_on,0,0,0,,1,,,73,127
63783,note_off,98,0,0,,4,,,40,127
63783,note_off,0,0,0,,4,,,52,127
63794,note_off,11,0,0,,1,,,73,127
63794,note_on,0,0,0,,6,,,78,127
63794,note_on,0,0,0,,6,,,42,127
63794,note_on,0,0,0,,6,,,54,127
63904,note_off,110,0,0,,6,,,78,127
63904,note_on,0,0,0,,4,,,76,127
64014,note_off,110,0,0,,4,,,76,127
64014,note_on,0,0,0,,3,,,75,127
64124,note_off,110,0,0,,3,,,75,127
64124,note_on,0,0,0,,1,,,73,127
64222,note_off,98,0,0,,6,,,54,127
64222,note_off,0,0,0,,6,,,42,127
64233,note_off,11,0,0,,1,,,73,127
64233,note_on,0,0,0,,12,,,83,127
64233,note_on,0,0,0,,12,,,35,127
64233,note_on,0,0,0,,12,,,47,127
64343,note_on,110,0,0,,6,,,78,127
64453,note_off,110,0,0,,6,,,78,127
64453,note_on,0,0,0,,3,,,75,127
64563,note_off,110,0,0,,3,,,75,127
64563,note_on,0,0,0,,12,,,71,127
64668,note_off,105,0,0,,12,,,47,127
64668,note_off,0,0,0,,12,,,35,127
64668,note_off,0,0,0,,12,,,83,127
64673,note_off,5,0,0,,12,,,71,127
64673,note_on,0,0,0,,12,,,71,127
64783,note_on,110,0,0,,6,,,66,127
64893,note_off,110,0,0,,6,,,66,127
64893,note_on,0,0,0,,3,,,63,127
65003,note_off,110,0,0,,3,,,63,127
65003,note_on,0,0,0,,12,,,59,127
65108,note_off,105,0,0,,12,,,71,127
65113,note_off,5,0,0,,12,,,59,127
65113,note_on,0,0,0,,12,,,59,127
65223,note_on,110,0,0,,6,,,54,127
65333,note_off,110,0,0,,6,,,54,127
65333,note_on,0,0,0,,3,,,51,127
65443,note_off,110,0,0,,3,,,51,127
65443,note_on,0,0,0,,12,,,47,127
65548,note_off,105,0,0,,12,,,59,127
65553,note_off,5,0,0,,12,,,47,127
65553,note_on,0,0,0,,12,,,47,127
65663,note_on,110,0,0,,6,,,42,127
65773,note_off,110,0,0,,6,,,42,127
65773,note_on,0,0,0,,3,,,39,127
65883,note_off,110,0,0,,3,,,39,127
65883,note_on,0,0,0,,12,,,35,127
65986,note_off,103,0,0,,12,,,35,127
65988,note_off,2,0,0,,12,,,47,127
65993,note_on,5,0,0,,12,,,35,127
66871,note_off,878,0,0,,12,,,35,127
66871,note_on,0,0,0,,8,,,56,127
66871,note_on,0,0,0,,8,,,44,127
67090,note_on,219,0,0,,6,,,78,127
67200,note_on,110,0,0,,10,,,69,127
67200,note_on,0,0,0,,1,,,73,127
67310,note_off,110,0,0,,1,,,73,127
67310,note_off,0,0,0,,10,,,69,127
67310,note_on,0,0,0,,0,,,72,127
67310,note_on,0,0,0,,8,,,68,127
67529,note_off,219,0,0,,8,,,68,127
67529,note_off,0,0,0,,0,,,72,127
67529,note_off,0,0,0,,6,,,78,127
67529,note_on,0,0,0,,6,,,78,127
67639,note_on,110,0,0,,1,,,73,127
67639,note_on,0,0,0,,10,,,69,127
67749,note_off,110,0,0,,10,,,69,127
67749,note_off,0,0,0,,1,,,73,127
67749,note_off,0,0,0,,8,,,44,127
67749,note_off,0,0,0,,8,,,56,127
67749,note_on,0,0,0,,0,,,72,127
67749,note_on,0,0,0,,8,,,68,127
67749,note_on,0,0,0,,8,,,56,127
67749,note_on,0,0,0,,8,,,44,127
67968,note_off,219,0,0,,8,,,68,127
67968,note_off,0,0,0,,0,,,72,127
67968,note_off,0,0,0,,6,,,78,127
67968,note_on,0,0,0,,6,,,78,127
68078,note_on,110,0,0,,1,,,73,127
68078,note_on,0,0,0,,10,,,69,127
68188,note_off,110,0,0,,10,,,69,127
68188,note_off,0,0,0,,1,,,73,127
68188,note_on,0,0,0,,0,,,72,127
68188,note_on,0,0,0,,8,,,68,127
68407,note_off,219,0,0,,8,,,68,127
68407,note_off,0,0,0,,0,,,72,127
68407,note_off,0,0,0,,6,,,78,127
68407,note_on,0,0,0,,6,,,78,127
68517,note_on,110,0,0,,1,,,73,127
68517,note_on,0,0,0,,10,,,69,127
68627,note_off,110,0,0,,10,,,69,127
68627,note_off,0,0,0,,1,,,73,127
68627,note_off,0,0,0,,8,,,44,127
68627,note_off,0,0,0,,8,,,56,127
68627,note_on,0,0,0,,0,,,72,127
68627,note_on,0,0,0,,8,,,68,127
68627,note_on,0,0,0,,8,,,56,127
68627,note_on,0,0,0,,8,,,44,127
68846,note_off,219,0,0,,8,,,68,127
68846,note_off,0,0,0,,0,,,72,127
68846,note_off,0,0,0,,6,,,78,127
68846,note_on,0,0,0,,6,,,78,127
68956,note_on,110,0,0,,10,,,69,127
69066,note_off,110,0,0,,10,,,69,127
69066,note_on,0,0,0,,8,,,68,127
69176,note_off,110,0,0,,6,,,78,127
69176,note_on,0,0,0,,4,,,76,127
69286,note_off,110,0,0,,8,,,68,127
69286,note_on,0,0,0,,6,,,66,127
69396,note_off,110,0,0,,4,,,76,127
69396,note_on,0,0,0,,3,,,75,127
69506,note_off,110,0,0,,8,,,44,127
69506,note_off,0,0,0,,8,,,56,127
69506,note_on,0,0,0,,8,,,56,127
69506,note_on,0,0,0,,8,,,44,127
69725,note_off,219,0,0,,3,,,75,127
69725,note_off,0,0,0,,6,,,66,127
69725,note_on,0,0,0,,4,,,76,127
69835,note_on,110,0,0,,8,,,68,127
69945,note_off,110,0,0,,8,,,68,127
69945,note_on,0,0,0,,6,,,66,127
70055,note_off,110,0,0,,4,,,76,127
70055,note_on,0,0,0,,3,,,75,127
70165,note_off,110,0,0,,6,,,66,127
70165,note_on,0,0,0,,4,,,64,127
70275,note_off,110,0,0,,3,,,75,127
70275,note_on,0,0,0,,1,,,73,127
70385,note_off,110,0,0,,8,,,44,127
70385,note_off,0,0,0,,8,,,56,127
70385,note_on,0,0,0,,8,,,56,127
70385,note_on,0,0,0,,8,,,44,127
70604,note_off,219,0,0,,1,,,73,127
70604,note_off,0,0,0,,4,,,64,127
70604,note_on,0,0,0,,3,,,75,127
70714,note_on,110,0,0,,6,,,66,127
70824,note_off,110,0,0,,6,,,66,127
70824,note_on,0,0,0,,4,,,64,127
70934,note_off,110,0,0,,3,,,75,127
70934,note_on,0,0,0,,1,,,73,127
71044,note_off,110,0,0,,4,,,64,127
71044,note_on,0,0,0,,3,,,63,127
71154,note_off,110,0,0,,1,,,73,127
71154,note_on,0,0,0,,0,,,72,127
71264,note_off,110,0,0,,0,,,72,127
71264,note_off,0,0,0,,3,,,63,127
71264,note_off,0,0,0,,8,,,44,127
71264,note_off,0,0,0,,8,,,56,127
71264,note_on,0,0,0,,1,,,73,127
71264,note_on,0,0,0,,1,,,37,127
71374,note_on,110,0,0,,8,,,68,127
71484,note_off,110,0,0,,8,,,68,127
71484,note_on,0,0,0,,4,,,64,127
71594,note_off,110,0,0,,4,,,64,127
71594,note_on,0,0,0,,1,,,61,127
71699,note_off,105,0,0,,1,,,73,127
71704,note_off,5,0,0,,1,,,61,127
71704,note_off,0,0,0,,1,,,37,127
71704,note_on,0,0,0,,8,,,56,127
71814,note_on,110,0,0,,4,,,52,127
71924,note_off,110,0,0,,4,,,52,127
71924,note_on,0,0,0,,1,,,49,127
72034,note_off,110,0,0,,1,,,49,127
72034,note_on,0,0,0,,8,,,44,127
72139,note_off,105,0,0,,8,,,56,127
72144,note_off,5,0,0,,8,,,44,127
72144,note_on,0,0,0,,1,,,37,127
73022,note_off,878,0,0,,1,,,37,127
73022,note_on,0,0,0,,6,,,54,127
73022,note_on,0,0,0,,6,,,42,127
73241,note_on,219,0,0,,4,,,76,127
73351,note_on,110,0,0,,12,,,71,127
73351,note_on,0,0,0,,7,,,67,127
73461,note_off,110,0,0,,7,,,67,127
73461,note_off,0,0,0,,12,,,71,127
73461,note_on,0,0,0,,6,,,66,127
73461,note_on,0,0,0,,11,,,70,127
73680,note_off,219,0,0,,11,,,70,127
73680,note_off,0,0,0,,6,,,66,127
73680,note_off,0,0,0,,4,,,76,127
73680,note_on,0,0,0,,4,,,76,127
73790,note_on,110,0,0,,12,,,71,127
73790,note_on,0,0,0,,7,,,67,127
73900,note_off,110,0,0,,7,,,67,127
73900,note_off,0,0,0,,12,,,71,127
73900,note_off,0,0,0,,6,,,42,127
73900,note_off,0,0,0,,6,,,54,127
73900,note_on,0,0,0,,6,,,66,127
73900,note_on,0,0,0,,11,,,70,127
73900,note_on,0,0,0,,6,,,54,127
73900,note_on,0,0,0,,6,,,42,127
74119,note_off,219,0,0,,11,,,70,127
74119,note_off,0,0,0,,6,,,66,127
74119,note_off,0,0,0,,4,,,76,127
74119,note_on,0,0,0,,4,,,76,127
74229,note_on,110,0,0,,12,,,71,127
74229,note_on,0,0,0,,7,,,67,127
74339,note_off,110,0,0,,7,,,67,127
74339,note_off,0,0,0,,12,,,71,127
74339,note_on,0,0,0,,6,,,66,127
74339,note_on,0,0,0,,11,,,70,127
74558,note_off,219,0,0,,11,,,70,127
74558,note_off,0,0,0,,6,,,66,127
74558,note_off,0,0,0,,4,,,76,127
74558,note_on,0,0,0,,4,,,76,127
74668,note_on,110,0,0,,7,,,67,127
74668,note_on,0,0,0,,12,,,71,127
74778,note_off,110,0,0,,6,,,42,127
74778,note_off,0,0,0,,6,,,54,127
74778,note_on,0,0,0,,11,,,70,127
74778,note_on,0,0,0,,6,,,66,127
74778,note_on,0,0,0,,6,,,54,127
74778,note_on,0,0,0,,6,,,42,127
74787,note_off,9,0,0,,12,,,71,127
74787,note_off,0,0,0,,7,,,67,127
74997,note_off,210,0,0,,6,,,66,127
74997,note_off,0,0,0,,11,,,70,127
74997,note_off,0,0,0,,4,,,76,127
74997,note_on,0,0,0,,4,,,76,127
75107,note_on,110,0,0,,7,,,67,127
75217,note_off,110,0,0,,7,,,67,127
75217,note_on,0,0,0,,6,,,66,127
75327,note_off,110,0,0,,4,,,76,127
75327,note_on,0,0,0,,2,,,74,127
75437,note_off,110,0,0,,6,,,66,127
75437,note_on,0,0,0,,4,,,64,127
75547,note_off,110,0,0,,2,,,74,127
75547,note_on,0,0,0,,1,,,73,127
75657,note_off,110,0,0,,6,,,42,127
75657,note_off,0,0,0,,6,,,54,127
75657,note_on,0,0,0,,6,,,54,127
75657,note_on,0,0,0,,6,,,42,127
75876,note_off,219,0,0,,1,,,73,127
75876,note_off,0,0,0,,4,,,64,127
75876,note_on,0,0,0,,2,,,74,127
75986,note_on,110,0,0,,6,,,66,127
76096,note_off,110,0,0,,6,,,66,127
76096,note_on,0,0,0,,4,,,64,127
76206,note_off,110,0,0,,2,,,74,127
76206,note_on,0,0,0,,1,,,73,127
76316,note_off,110,0,0,,4,,,64,127
76316,note_on,0,0,0,,2,,,62,127
76426,note_off,110,0,0,,1,,,73,127
76426,note_on,0,0,0,,12,,,71,127
76536,note_off,110,0,0,,6,,,42,127
76536,note_off,0,0,0,,6,,,54,127
76536,note_on,0,0,0,,6,,,54,127
76536,note_on,0,0,0,,6,,,42,127
76755,note_off,219,0,0,,12,,,71,127
76755,note_off,0,0,0,,2,,,62,127
76755,note_on,0,0,0,,1,,,73,127
76865,note_on,110,0,0,,4,,,64,127
76975,note_off,110,0,0,,4,,,64,127
76975,note_on,0,0,0,,2,,,62,127
77085,note_off,110,0,0,,1,,,73,127
77085,note_on,0,0,0,,12,,,71,127
77195,note_off,110,0,0,,2,,,62,127
77195,note_on,0,0,0,,1,,,61,127
77305,note_off,110,0,0,,12,,,71,127
77305,note_on,0,0,0,,11,,,70,127
77415,note_off,110,0,0,,11,,,70,127
77415,note_off,0,0,0,,1,,,61,127
77415,note_off,0,0,0,,6,,,42,127
77415,note_off,0,0,0,,6,,,54,127
77415,note_on,0,0,0,,12,,,71,127
77415,note_on,0,0,0,,12,,,47,127
77525,note_on,110,0,0,,6,,,66,127
77635,note_off,110,0,0,,6,,,66,127
77635,note_on,0,0,0,,2,,,62,127
77745,note_off,110,0,0,,2,,,62,127
77745,note_on,0,0,0,,12,,,59,127
77850,note_off,105,0,0,,12,,,71,127
77855,note_off,5,0,0,,12,,,59,127
77855,note_off,0,0,0,,12,,,47,127
77855,note_on,0,0,0,,6,,,54,127
77965,note_on,110,0,0,,2,,,50,127
78075,note_off,110,0,0,,2,,,50,127
78075,note_on,0,0,0,,12,,,47,127
78185,note_off,110,0,0,,12,,,47,127
78185,note_on,0,0,0,,6,,,42,127
78290,note_off,105,0,0,,6,,,54,127
78295,note_off,5,0,0,,6,,,42,127
78295,note_on,0,0,0,,12,,,35,127
78953,note_off,658,0,0,,12,,,35,127
78953,note_on,0,0,0,,2,,,74,127
78953,note_on,0,0,0,,2,,,62,127
78953,note_on,0,0,0,,12,,,59,127
79063,note_off,110,0,0,,2,,,74,127
79063,note_on,0,0,0,,12,,,71,127
79173,note_off,110,0,0,,12,,,71,127
79173,note_off,0,0,0,,12,,,59,127
79173,note_off,0,0,0,,2,,,62,127
79173,note_on,0,0,0,,5,,,77,127
79173,note_on,0,0,0,,12,,,59,127
79173,note_on,0,0,0,,2,,,62,127
79392,note_off,219,0,0,,12,,,59,127
79392,note_off,0,0,0,,5,,,77,127
79392,note_on,0,0,0,,6,,,78,127
79392,note_on,0,0,0,,1,,,61,127
79392,note_on,0,0,0,,10,,,57,127
79399,note_off,7,0,0,,2,,,62,127
79612,note_off,213,0,0,,10,,,57,127
79612,note_off,0,0,0,,1,,,61,127
79612,note_on,0,0,0,,2,,,62,127
79612,note_on,0,0,0,,12,,,59,127
79831,note_off,219,0,0,,12,,,59,127
79831,note_off,0,0,0,,2,,,62,127
79831,note_off,0,0,0,,6,,,78,127
79831,note_on,0,0,0,,2,,,74,127
79831,note_on,0,0,0,,12,,,59,127
79831,note_on,0,0,0,,2,,,62,127
79941,note_off,110,0,0,,2,,,74,127
79941,note_on,0,0,0,,12,,,71,127
80051,note_off,110,0,0,,12,,,71,127
80051,note_off,0,0,0,,2,,,62,127
80051,note_off,0,0,0,,12,,,59,127
80051,note_on,0,0,0,,0,,,72,127
80051,note_on,0,0,0,,12,,,59,127
80051,note_on,0,0,0,,1,,,61,127
80270,note_off,219,0,0,,1,,,61,127
80270,note_off,0,0,0,,12,,,59,127
80270,note_off,0,0,0,,0,,,72,127
80270,note_on,0,0,0,,1,,,73,127
80270,note_on,0,0,0,,1,,,61,127
80270,note_on,0,0,0,,10,,,57,127
80489,note_off,219,0,0,,10,,,57,127
80489,note_off,0,0,0,,1,,,61,127
80489,note_on,0,0,0,,2,,,62,127
80489,note_on,0,0,0,,12,,,59,127
80708,note_off,219,0,0,,12,,,59,127
80708,note_off,0,0,0,,2,,,62,127
80708,note_off,0,0,0,,1,,,73,127
80708,note_on,0,0,0,,2,,,74,127
80708,note_on,0,0,0,,2,,,62,127
80708,note_on,0,0,0,,12,,,59,127
80818,note_off,110,0,0,,2,,,74,127
80818,note_on,0,0,0,,12,,,71,127
80928,note_off,110,0,0,,12,,,71,127
80928,note_off,0,0,0,,12,,,59,127
80928,note_off,0,0,0,,2,,,62,127
80928,note_on,0,0,0,,5,,,77,127
80928,note_on,0,0,0,,2,,,62,127
80928,note_on,0,0,0,,12,,,59,127
81147,note_off,219,0,0,,12,,,59,127
81147,note_off,0,0,0,,2,,,62,127
81147,note_off,0,0,0,,5,,,77,127
81147,note_on,0,0,0,,6,,,78,127
81147,note_on,0,0,0,,1,,,61,127
81147,note_on,0,0,0,,10,,,57,127
81366,note_off,219,0,0,,10,,,57,127
81366,note_off,0,0,0,,1,,,61,127
81366,note_on,0,0,0,,10,,,57,127
81366,note_on,0,0,0,,1,,,61,127
81585,note_off,219,0,0,,1,,,61,127
81585,note_off,0,0,0,,10,,,57,127
81585,note_off,0,0,0,,6,,,78,127
81585,note_on,0,0,0,,0,,,72,127
81585,note_on,0,0,0,,10,,,81,127
81585,note_on,0,0,0,,4,,,64,127
81585,note_on,0,0,0,,10,,,57,127
81695,note_off,110,0,0,,0,,,72,127
81695,note_on,0,0,0,,10,,,69,127
81802,note_off,107,0,0,,10,,,81,127
81804,note_off,2,0,0,,10,,,69,127
81804,note_off,0,0,0,,10,,,57,127
81804,note_off,0,0,0,,4,,,64,127
81804,note_on,0,0,0,,12,,,83,127
81804,note_on,0,0,0,,3,,,75,127
81804,note_on,0,0,0,,10,,,57,127
81804,note_on,0,0,0,,12,,,59,127
81804,note_on,0,0,0,,3,,,63,127
82023,note_off,219,0,0,,3,,,63,127
82023,note_off,0,0,0,,12,,,59,127
82023,note_off,0,0,0,,10,,,57,127
82023,note_off,0,0,0,,3,,,75,127
82023,note_on,0,0,0,,4,,,76,127
82023,note_on,0,0,0,,4,,,64,127
82023,note_on,0,0,0,,12,,,59,127
82023,note_on,0,0,0,,7,,,55,127
82242,note_off,219,0,0,,7,,,55,127
82242,note_off,0,0,0,,12,,,59,127
82242,note_off,0,0,0,,4,,,64,127
82242,note_off,0,0,0,,12,,,83,127
82242,note_on,0,0,0,,0,,,60,127
82242,note_on,0,0,0,,4,,,64,127
82242,note_on,0,0,0,,10,,,57,127
82461,note_off,219,0,0,,10,,,57,127
82461,note_off,0,0,0,,4,,,64,127
82461,note_off,0,0,0,,0,,,60,127
82461,note_off,0,0,0,,4,,,76,127
82461,note_on,0,0,0,,0,,,72,127
82461,note_on,0,0,0,,0,,,60,127
82461,note_on,0,0,0,,4,,,64,127
82461,note_on,0,0,0,,10,,,57,127
82571,note_off,110,0,0,,0,,,72,127
82571,note_on,0,0,0,,10,,,69,127
82681,note_off,110,0,0,,10,,,69,127
82681,note_off,0,0,0,,10,,,57,127
82681,note_off,0,0,0,,4,,,64,127
82681,note_off,0,0,0,,0,,,60,127
82681,note_on,0,0,0,,11,,,70,127
82681,note_on,0,0,0,,3,,,63,127
82681,note_on,0,0,0,,12,,,59,127
82681,note_on,0,0,0,,10,,,57,127
82900,note_off,219,0,0,,10,,,57,127
82900,note_off,0,0,0,,12,,,59,127
82900,note_off,0,0,0,,3,,,63,127
82900,note_off,0,0,0,,11,,,70,127
82900,note_on,0,0,0,,12,,,71,127
82900,note_on,0,0,0,,4,,,64,127
82900,note_on,0,0,0,,12,,,59,127
82900,note_on,0,0,0,,7,,,55,127
83119,note_off,219,0,0,,7,,,55,127
83119,note_off,0,0,0,,12,,,59,127
83119,note_off,0,0,0,,4,,,64,127
83119,note_on,0,0,0,,0,,,60,127
83119,note_on,0,0,0,,10,,,57,127
83119,note_on,0,0,0,,4,,,64,127
83338,note_off,219,0,0,,4,,,64,127
83338,note_off,0,0,0,,10,,,57,127
83338,note_off,0,0,0,,0,,,60,127
83338,note_off,0,0,0,,12,,,71,127
83338,note_on,0,0,0,,10,,,81,127
83338,note_on,0,0,0,,0,,,72,127
83338,note_on,0,0,0,,0,,,60,127
83338,note_on,0,0,0,,4,,,64,127
83338,note_on,0,0,0,,10,,,57,127
83448,note_off,110,0,0,,0,,,72,127
83448,note_on,0,0,0,,10,,,69,127
83555,note_off,107,0,0,,10,,,81,127
83557,note_off,2,0,0,,10,,,57,127
83557,note_off,0,0,0,,4,,,64,127
83557,note_off,0,0,0,,0,,,60,127
83557,note_on,0,0,0,,12,,,83,127
83557,note_on,0,0,0,,3,,,75,127
83557,note_on,0,0,0,,10,,,57,127
83557,note_on,0,0,0,,3,,,63,127
83557,note_on,0,0,0,,12,,,59,127
83567,note_off,10,0,0,,10,,,69,127
83776,note_off,209,0,0,,12,,,59,127
83776,note_off,0,0,0,,3,,,63,127
83776,note_off,0,0,0,,10,,,57,127
83776,note_off,0,0,0,,3,,,75,127
83776,note_on,0,0,0,,4,,,76,127
83776,note_on,0,0,0,,4,,,64,127
83776,note_on,0,0,0,,7,,,55,127
83776,note_on,0,0,0,,12,,,59,127
83995,note_off,219,0,0,,12,,,59,127
83995,note_off,0,0,0,,7,,,55,127
83995,note_off,0,0,0,,4,,,64,127
83995,note_off,0,0,0,,12,,,83,127
83995,note_on,0,0,0,,4,,,64,127
83995,note_on,0,0,0,,12,,,59,127
83995,note_on,0,0,0,,7,,,55,127
84214,note_off,219,0,0,,7,,,55,127
84214,note_off,0,0,0,,12,,,59,127
84214,note_off,0,0,0,,4,,,64,127
84214,note_off,0,0,0,,4,,,76,127
84214,note_on,0,0,0,,12,,,83,127
84214,note_on,0,0,0,,12,,,71,127
84214,note_on,0,0,0,,4,,,64,127
84214,note_on,0,0,0,,12,,,59,127
84214,note_on,0,0,0,,7,,,55,127
84433,note_off,219,0,0,,7,,,55,127
84433,note_off,0,0,0,,12,,,59,127
84433,note_off,0,0,0,,4,,,64,127
84433,note_on,0,0,0,,4,,,64,127
84433,note_on,0,0,0,,10,,,57,127
84433,note_on,0,0,0,,5,,,53,127
84641,note_off,208,0,0,,12,,,71,127
84641,note_off,0,0,0,,12,,,83,127
84652,note_on,11,0,0,,0,,,84,127
84652,note_on,0,0,0,,0,,,72,127
84860,note_off,208,0,0,,0,,,72,127
84860,note_off,0,0,0,,0,,,84,127
84871,note_on,11,0,0,,8,,,80,127
84871,note_on,0,0,0,,8,,,68,127
85079,note_off,208,0,0,,8,,,68,127
85079,note_off,0,0,0,,8,,,80,127
85090,note_off,11,0,0,,5,,,53,127
85090,note_off,0,0,0,,10,,,57,127
85090,note_off,0,0,0,,4,,,64,127
85090,note_on,0,0,0,,10,,,81,127
85090,note_on,0,0,0,,10,,,69,127
85090,note_on,0,0,0,,2,,,62,127
85090,note_on,0,0,0,,5,,,53,127
85090,note_on,0,0,0,,10,,,57,127
85298,note_off,208,0,0,,10,,,69,127
85298,note_off,0,0,0,,10,,,81,127
85309,note_off,11,0,0,,10,,,57,127
85309,note_off,0,0,0,,5,,,53,127
85309,note_off,0,0,0,,2,,,62,127
85309,note_on,0,0,0,,12,,,83,127
85309,note_on,0,0,0,,12,,,59,127
85309,note_on,0,0,0,,4,,,64,127
85309,note_on,0,0,0,,4,,,52,127
85309,note_on,0,0,0,,12,,,71,127
85419,note_off,110,0,0,,12,,,83,127
85419,note_on,0,0,0,,10,,,81,127
85529,note_off,110,0,0,,10,,,81,127
85529,note_off,0,0,0,,12,,,71,127
85529,note_on,0,0,0,,8,,,80,127
85639,note_off,110,0,0,,8,,,80,127
85639,note_on,0,0,0,,5,,,77,127
85749,note_off,110,0,0,,5,,,77,127
85749,note_on,0,0,0,,4,,,76,127
85859,note_off,110,0,0,,4,,,76,127
85859,note_on,0,0,0,,2,,,74,127
85969,note_off,110,0,0,,2,,,74,127
85969,note_off,0,0,0,,4,,,52,127
85969,note_off,0,0,0,,4,,,64,127
85969,note_off,0,0,0,,12,,,59,127
85969,note_on,0,0,0,,0,,,72,127
85969,note_on,0,0,0,,12,,,59,127
85969,note_on,0,0,0,,4,,,64,127
85969,note_on,0,0,0,,4,,,52,127
86079,note_off,110,0,0,,0,,,72,127
86079,note_on,0,0,0,,12,,,71,127
86189,note_off,110,0,0,,12,,,71,127
86189,note_off,0,0,0,,4,,,52,127
86189,note_off,0,0,0,,4,,,64,127
86189,note_off,0,0,0,,12,,,59,127
86189,note_on,0,0,0,,12,,,83,127
86189,note_on,0,0,0,,4,,,64,127
86189,note_on,0,0,0,,5,,,53,127
86189,note_on,0,0,0,,10,,,57,127
86189,note_on,0,0,0,,12,,,71,127
86408,note_off,219,0,0,,12,,,71,127
86408,note_off,0,0,0,,4,,,64,127
86408,note_off,0,0,0,,12,,,83,127
86408,note_on,0,0,0,,0,,,84,127
86408,note_on,0,0,0,,2,,,62,127
86408,note_on,0,0,0,,0,,,72,127
86627,note_off,219,0,0,,0,,,72,127
86627,note_off,0,0,0,,0,,,84,127
86627,note_on,0,0,0,,8,,,80,127
86627,note_on,0,0,0,,8,,,68,127
86845,note_off,218,0,0,,10,,,57,127
86845,note_off,0,0,0,,5,,,53,127
86846,note_off,1,0,0,,8,,,68,127
86846,note_off,0,0,0,,8,,,80,127
86846,note_off,0,0,0,,2,,,62,127
86846,note_on,0,0,0,,10,,,81,127
86846,note_on,0,0,0,,2,,,62,127
86846,note_on,0,0,0,,5,,,53,127
86846,note_on,0,0,0,,10,,,57,127
86846,note_on,0,0,0,,10,,,69,127
87065,note_off,219,0,0,,10,,,69,127
87065,note_off,0,0,0,,10,,,57,127
87065,note_off,0,0,0,,5,,,53,127
87065,note_off,0,0,0,,2,,,62,127
87065,note_off,0,0,0,,10,,,81,127
87065,note_on,0,0,0,,12,,,83,127
87065,note_on,0,0,0,,4,,,64,127
87065,note_on,0,0,0,,4,,,52,127
87065,note_on,0,0,0,,12,,,59,127
87065,note_on,0,0,0,,12,,,71,127
87175,note_off,110,0,0,,12,,,83,127
87175,note_on,0,0,0,,10,,,81,127
87285,note_off,110,0,0,,10,,,81,127
87285,note_on,0,0,0,,8,,,80,127
87395,note_off,110,0,0,,8,,,80,127
87395,note_on,0,0,0,,5,,,77,127
87505,note_off,110,0,0,,5,,,77,127
87505,note_off,0,0,0,,12,,,71,127
87505,note_on,0,0,0,,4,,,76,127
87615,note_off,110,0,0,,4,,,76,127
87615,note_on,0,0,0,,2,,,74,127
87725,note_off,110,0,0,,2,,,74,127
87725,note_off,0,0,0,,12,,,59,127
87725,note_off,0,0,0,,4,,,52,127
87725,note_off,0,0,0,,4,,,64,127
87725,note_on,0,0,0,,0,,,72,127
87725,note_on,0,0,0,,4,,,64,127
87725,note_on,0,0,0,,12,,,59,127
87725,note_on,0,0,0,,4,,,52,127
87835,note_off,110,0,0,,0,,,72,127
87835,note_on,0,0,0,,12,,,71,127
87945,note_off,110,0,0,,12,,,71,127
87945,note_off,0,0,0,,4,,,52,127
87945,note_off,0,0,0,,12,,,59,127
87945,note_off,0,0,0,,4,,,64,127
87945,note_on,0,0,0,,12,,,83,127
87945,note_on,0,0,0,,4,,,64,127
87945,note_on,0,0,0,,10,,,57,127
87945,note_on,0,0,0,,5,,,53,127
87945,note_on,0,0,0,,12,,,71,127
88164,note_off,219,0,0,,12,,,71,127
88164,note_off,0,0,0,,12,,,83,127
88164,note_on,0,0,0,,0,,,84,127
88164,note_on,0,0,0,,0,,,72,127
88383,note_off,219,0,0,,0,,,72,127
88383,note_off,0,0,0,,0,,,84,127
88383,note_on,0,0,0,,8,,,80,127
88383,note_on,0,0,0,,8,,,68,127
88602,note_off,219,0,0,,8,,,68,127
88602,note_off,0,0,0,,8,,,80,127
88602,note_off,0,0,0,,5,,,53,127
88602,note_off,0,0,0,,10,,,57,127
88602,note_off,0,0,0,,4,,,64,127
88602,note_on,0,0,0,,10,,,81,127
88602,note_on,0,0,0,,2,,,62,127
88602,note_on,0,0,0,,5,,,53,127
88602,note_on,0,0,0,,10,,,57,127
88602,note_on,0,0,0,,10,,,69,127
88821,note_off,219,0,0,,10,,,69,127
88821,note_off,0,0,0,,10,,,57,127
88821,note_off,0,0,0,,5,,,53,127
88821,note_off,0,0,0,,2,,,62,127
88821,note_off,0,0,0,,10,,,81,127
88821,note_on,0,0,0,,12,,,83,127
88821,note_on,0,0,0,,4,,,64,127
88821,note_on,0,0,0,,12,,,59,127
88821,note_on,0,0,0,,4,,,52,127
88821,note_on,0,0,0,,12,,,71,127
88931,note_off,110,0,0,,12,,,83,127
88931,note_on,0,0,0,,10,,,81,127
89041,note_off,110,0,0,,10,,,81,127
89041,note_on,0,0,0,,8,,,80,127
89151,note_off,110,0,0,,8,,,80,127
89151,note_on,0,0,0,,5,,,77,127
89261,note_off,110,0,0,,5,,,77,127
89261,note_off,0,0,0,,12,,,71,127
89261,note_on,0,0,0,,4,,,76,127
89371,note_off,110,0,0,,4,,,76,127
89371,note_on,0,0,0,,2,,,74,127
89481,note_off,110,0,0,,2,,,74,127
89481,note_off,0,0,0,,4,,,52,127
89481,note_off,0,0,0,,12,,,59,127
89481,note_off,0,0,0,,4,,,64,127
89481,note_on,0,0,0,,0,,,72,127
89481,note_on,0,0,0,,4,,,64,127
89481,note_on,0,0,0,,4,,,52,127
89481,note_on,0,0,0,,12,,,59,127
89591,note_off,110,0,0,,0,,,72,127
89591,note_on,0,0,0,,12,,,71,127
89701,note_off,110,0,0,,12,,,71,127
89701,note_off,0,0,0,,12,,,59,127
89701,note_off,0,0,0,,4,,,52,127
89701,note_off,0,0,0,,4,,,64,127
89701,note_on,0,0,0,,0,,,72,127
89701,note_on,0,0,0,,10,,,45,127
89811,note_off,110,0,0,,0,,,72,127
89811,note_on,0,0,0,,10,,,69,127
89921,note_off,110,0,0,,10,,,69,127
89921,note_on,0,0,0,,3,,,75,127
90031,note_off,110,0,0,,3,,,75,127
90031,note_on,0,0,0,,10,,,69,127
90141,note_off,110,0,0,,10,,,69,127
90141,note_off,0,0,0,,10,,,45,127
90141,note_on,0,0,0,,4,,,76,127
90141,note_on,0,0,0,,0,,,60,127
90251,note_off,110,0,0,,4,,,76,127
90251,note_on,0,0,0,,10,,,69,127
90361,note_off,110,0,0,,10,,,69,127
90361,note_off,0,0,0,,0,,,60,127
90361,note_on,0,0,0,,0,,,72,127
90361,note_on,0,0,0,,12,,,59,127
90471,note_off,110,0,0,,12,,,59,127
90471,note_off,0,0,0,,0,,,72,127
90471,note_on,0,0,0,,10,,,69,127
90471,note_on,0,0,0,,10,,,57,127
90581,note_off,110,0,0,,10,,,57,127
90581,note_off,0,0,0,,10,,,69,127
90581,note_on,0,0,0,,12,,,71,127
90581,note_on,0,0,0,,7,,,43,127
90691,note_off,110,0,0,,12,,,71,127
90691,note_on,0,0,0,,7,,,67,127
90801,note_off,110,0,0,,7,,,67,127
90801,note_on,0,0,0,,3,,,75,127
90911,note_off,110,0,0,,3,,,75,127
90911,note_on,0,0,0,,7,,,67,127
91021,note_off,110,0,0,,7,,,67,127
91021,note_off,0,0,0,,7,,,43,127
91021,note_on,0,0,0,,4,,,76,127
91021,note_on,0,0,0,,12,,,59,127
91131,note_off,110,0,0,,4,,,76,127
91131,note_on,0,0,0,,7,,,67,127
91241,note_off,110,0,0,,7,,,67,127
91241,note_off,0,0,0,,12,,,59,127
91241,note_on,0,0,0,,12,,,71,127
91241,note_on,0,0,0,,10,,,57,127
91351,note_off,110,0,0,,10,,,57,127
91351,note_off,0,0,0,,12,,,71,127
91351,note_on,0,0,0,,7,,,67,127
91351,note_on,0,0,0,,7,,,55,127
91461,note_off,110,0,0,,7,,,55,127
91461,note_off,0,0,0,,7,,,67,127
91461,note_on,0,0,0,,10,,,69,127
91461,note_on,0,0,0,,6,,,42,127
91571,note_off,110,0,0,,10,,,69,127
91571,note_on,0,0,0,,6,,,66,127
91681,note_off,110,0,0,,6,,,66,127
91681,note_on,0,0,0,,3,,,75,127
91791,note_off,110,0,0,,3,,,75,127
91791,note_on,0,0,0,,6,,,66,127
91901,note_off,110,0,0,,6,,,66,127
91901,note_off,0,0,0,,6,,,42,127
91901,note_on,0,0,0,,4,,,76,127
91901,note_on,0,0,0,,10,,,57,127
92011,note_off,110,0,0,,4,,,76,127
92011,note_on,0,0,0,,6,,,66,127
92121,note_off,110,0,0,,6,,,66,127
92121,note_off,0,0,0,,10,,,57,127
92121,note_on,0,0,0,,10,,,69,127
92121,note_on,0,0,0,,7,,,55,127
92231,note_off,110,0,0,,7,,,55,127
92231,note_off,0,0,0,,10,,,69,127
92231,note_on,0,0,0,,6,,,66,127
92231,note_on,0,0,0,,6,,,54,127
92341,note_off,110,0,0,,6,,,54,127
92341,note_off,0,0,0,,6,,,66,127
92341,note_on,0,0,0,,7,,,67,127
92341,note_on,0,0,0,,4,,,40,127
92451,note_off,110,0,0,,7,,,67,127
92451,note_on,0,0,0,,4,,,64,127
92561,note_off,110,0,0,,4,,,64,127
92561,note_on,0,0,0,,3,,,75,127
92671,note_off,110,0,0,,3,,,75,127
92671,note_on,0,0,0,,7,,,67,127
92781,note_off,110,0,0,,7,,,67,127
92781,note_off,0,0,0,,4,,,40,127
92781,note_on,0,0,0,,4,,,76,127
92781,note_on,0,0,0,,7,,,55,127
92891,note_off,110,0,0,,4,,,76,127
92891,note_on,0,0,0,,7,,,67,127
93001,note_off,110,0,0,,7,,,67,127
93001,note_off,0,0,0,,7,,,55,127
93001,note_on,0,0,0,,12,,,71,127
93001,note_on,0,0,0,,6,,,54,127
93111,note_off,110,0,0,,6,,,54,127
93111,note_off,0,0,0,,12,,,71,127
93111,note_on,0,0,0,,7,,,67,127
93111,note_on,0,0,0,,4,,,52,127
93221,note_off,110,0,0,,4,,,52,127
93221,note_off,0,0,0,,7,,,67,127
93221,note_on,0,0,0,,0,,,72,127
93221,note_on,0,0,0,,10,,,45,127
93331,note_off,110,0,0,,0,,,72,127
93331,note_on,0,0,0,,10,,,69,127
93441,note_off,110,0,0,,10,,,69,127
93441,note_on,0,0,0,,3,,,75,127
93551,note_off,110,0,0,,3,,,75,127
93551,note_on,0,0,0,,10,,,69,127
93661,note_off,110,0,0,,10,,,69,127
93661,note_off,0,0,0,,10,,,45,127
93661,note_on,0,0,0,,4,,,76,127
93661,note_on,0,0,0,,0,,,60,127
93771,note_off,110,0,0,,4,,,76,127
93771,note_on,0,0,0,,10,,,69,127
93881,note_off,110,0,0,,10,,,69,127
93881,note_off,0,0,0,,0,,,60,127
93881,note_on,0,0,0,,0,,,72,127
93881,note_on,0,0,0,,12,,,59,127
93991,note_off,110,0,0,,12,,,59,127
93991,note_off,0,0,0,,0,,,72,127
93991,note_on,0,0,0,,10,,,69,127
93991,note_on,0,0,0,,10,,,57,127
94101,note_off,110,0,0,,10,,,57,127
94101,note_off,0,0,0,,10,,,69,127
94101,note_on,0,0,0,,12,,,71,127
94101,note_on,0,0,0,,7,,,43,127
94211,note_off,110,0,0,,12,,,71,127
94211,note_on,0,0,0,,7,,,67,127
94321,note_off,110,0,0,,7,,,67,127
94321,note_on,0,0,0,,3,,,75,127
94431,note_off,110,0,0,,3,,,75,127
94431,note_on,0,0,0,,7,,,67,127
94541,note_off,110,0,0,,7,,,67,127
94541,note_off,0,0,0,,7,,,43,127
94541,note_on,0,0,0,,4,,,76,127
94541,note_on,0,0,0,,12,,,59,127
94651,note_off,110,0,0,,4,,,76,127
94651,note_on,0,0,0,,7,,,67,127
94761,note_off,110,0,0,,7,,,67,127
94761,note_off,0,0,0,,12,,,59,127
94761,note_on,0,0,0,,12,,,71,127
94761,note_on,0,0,0,,10,,,57,127
94871,note_off,110,0,0,,10,,,57,127
94871,note_off,0,0,0,,12,,,71,127
94871,note_on,0,0,0,,7,,,67,127
94871,note_on,0,0,0,,7,,,55,127
94981,note_off,110,0,0,,7,,,55,127
94981,note_off,0,0,0,,7,,,67,127
94981,note_on,0,0,0,,10,,,69,127
94981,note_on,0,0,0,,6,,,42,127
95091,note_off,110,0,0,,10,,,69,127
95091,note_on,0,0,0,,6,,,66,127
95201,note_off,110,0,0,,6,,,66,127
95201,note_on,0,0,0,,3,,,75,127
95311,note_off,110,0,0,,3,,,75,127
95311,note_on,0,0,0,,6,,,66,127
95421,note_off,110,0,0,,6,,,66,127
95421,note_off,0,0,0,,6,,,42,127
95421,note_on,0,0,0,,4,,,76,127
95421,note_on,0,0,0,,10,,,57,127
95531,note_off,110,0,0,,4,,,76,127
95531,note_on,0,0,0,,6,,,66,127
95641,note_off,110,0,0,,6,,,66,127
95641,note_off,0,0,0,,10,,,57,127
95641,note_on,0,0,0,,10,,,69,127
95641,note_on,0,0,0,,7,,,55,127
95751,note_off,110,0,0,,7,,,55,127
95751,note_off,0,0,0,,10,,,69,127
95751,note_on,0,0,0,,6,,,66,127
95751,note_on,0,0,0,,6,,,54,127
95861,note_off,110,0,0,,6,,,54,127
95861,note_off,0,0,0,,6,,,66,127
95861,note_on,0,0,0,,7,,,67,127
95861,note_on,0,0,0,,4,,,40,127
95971,note_on,110,0,0,,4,,,64,127
96078,note_off,107,0,0,,7,,,67,127
96080,note_off,2,0,0,,4,,,64,127
96080,note_on,0,0,0,,7,,,67,127
96190,note_off,110,0,0,,7,,,67,127
96190,note_on,0,0,0,,12,,,71,127
96300,note_off,110,0,0,,12,,,71,127
96300,note_off,0,0,0,,4,,,40,127
96300,note_on,0,0,0,,4,,,76,127
96300,note_on,0,0,0,,7,,,55,127
96519,note_off,219,0,0,,7,,,55,127
96519,note_on,0,0,0,,6,,,54,127
96629,note_off,110,0,0,,6,,,54,127
96629,note_on,0,0,0,,4,,,52,127
96739,note_off,110,0,0,,4,,,52,127
96739,note_on,0,0,0,,10,,,45,127
96849,note_off,110,0,0,,4,,,76,127
96849,note_on,0,0,0,,2,,,74,127
96959,note_off,110,0,0,,2,,,74,127
96959,note_on,0,0,0,,0,,,72,127
97069,note_off,110,0,0,,0,,,72,127
97069,note_on,0,0,0,,12,,,71,127
97179,note_off,110,0,0,,12,,,71,127
97179,note_on,0,0,0,,10,,,69,127
97179,note_on,0,0,0,,10,,,57,127
97289,note_off,110,0,0,,10,,,69,127
97289,note_on,0,0,0,,7,,,67,127
97399,note_off,110,0,0,,7,,,67,127
97399,note_on,0,0,0,,6,,,66,127
97509,note_off,110,0,0,,6,,,66,127
97509,note_on,0,0,0,,4,,,64,127
97610,note_off,101,0,0,,10,,,45,127
97619,note_off,9,0,0,,4,,,64,127
97619,note_off,0,0,0,,10,,,57,127
97619,note_on,0,0,0,,3,,,63,127
97619,note_on,0,0,0,,12,,,47,127
97729,note_on,110,0,0,,12,,,59,127
97836,note_off,107,0,0,,3,,,63,127
97838,note_off,2,0,0,,12,,,59,127
97838,note_on,0,0,0,,3,,,63,127
97948,note_off,110,0,0,,3,,,63,127
97948,note_on,0,0,0,,6,,,66,127
98030,note_off,82,0,0,,6,,,66,127
98057,note_off,27,0,0,,12,,,47,127
98057,note_on,0,0,0,,4,,,76,127
98057,note_on,0,0,0,,7,,,55,127
98276,note_off,219,0,0,,7,,,55,127
98276,note_on,0,0,0,,6,,,54,127
98386,note_off,110,0,0,,6,,,54,127
98386,note_on,0,0,0,,4,,,52,127
98496,note_off,110,0,0,,4,,,52,127
98496,note_on,0,0,0,,10,,,45,127
98606,note_off,110,0,0,,4,,,76,127
98606,note_on,0,0,0,,2,,,74,127
98716,note_off,110,0,0,,2,,,74,127
98716,note_on,0,0,0,,0,,,72,127
98826,note_off,110,0,0,,0,,,72,127
98826,note_on,0,0,0,,12,,,71,127
98936,note_off,110,0,0,,12,,,71,127
98936,note_on,0,0,0,,10,,,69,127
98936,note_on,0,0,0,,10,,,57,127
99046,note_off,110,0,0,,10,,,69,127
99046,note_on,0,0,0,,7,,,67,127
99155,note_off,109,0,0,,10,,,45,127
99156,note_off,1,0,0,,7,,,67,127
99156,note_on,0,0,0,,6,,,66,127
99266,note_off,110,0,0,,6,,,66,127
99266,note_on,0,0,0,,4,,,64,127
99376,note_off,110,0,0,,4,,,64,127
99376,note_off,0,0,0,,10,,,57,127
99376,note_on,0,0,0,,3,,,63,127
99376,note_on,0,0,0,,12,,,47,127
99486,note_on,110,0,0,,12,,,59,127
99593,note_off,107,0,0,,3,,,63,127
99595,note_off,2,0,0,,12,,,59,127
99595,note_on,0,0,0,,3,,,63,127
99705,note_off,110,0,0,,3,,,63,127
99705,note_on,0,0,0,,6,,,66,127
99787,note_off,82,0,0,,6,,,66,127
99814,note_off,27,0,0,,12,,,47,127
99814,note_on,0,0,0,,4,,,76,127
99814,note_on,0,0,0,,7,,,55,127
100033,note_off,219,0,0,,7,,,55,127
100033,note_on,0,0,0,,6,,,54,127
100143,note_off,110,0,0,,6,,,54,127
100143,note_on,0,0,0,,4,,,52,127
100253,note_off,110,0,0,,4,,,52,127
100253,note_on,0,0,0,,10,,,45,127
100363,note_off,110,0,0,,4,,,76,127
100363,note_on,0,0,0,,2,,,74,127
100473,note_off,110,0,0,,2,,,74,127
100473,note_on,0,0,0,,0,,,72,127
100583,note_off,110,0,0,,0,,,72,127
100583,note_on,0,0,0,,12,,,71,127
100693,note_off,110,0,0,,12,,,71,127
100693,note_off,0,0,0,,10,,,45,127
100693,note_on,0,0,0,,10,,,69,127
100693,note_on,0,0,0,,10,,,57,127
100803,note_off,110,0,0,,10,,,69,127
100803,note_on,0,0,0,,7,,,67,127
100913,note_off,110,0,0,,7,,,67,127
100913,note_on,0,0,0,,6,,,66,127
101023,note_off,110,0,0,,6,,,66,127
101023,note_on,0,0,0,,4,,,64,127
101133,note_off,110,0,0,,4,,,64,127
101133,note_off,0,0,0,,10,,,57,127
101133,note_on,0,0,0,,12,,,59,127
101352,note_off,219,0,0,,12,,,59,127
101352,note_on,0,0,0,,12,,,59,127
101352,note_on,0,0,0,,12,,,47,127
101571,note_off,219,0,0,,12,,,47,127
101571,note_off,0,0,0,,12,,,59,127
101571,note_on,0,0,0,,0,,,60,127
101571,note_on,0,0,0,,0,,,48,127
101790,note_off,219,0,0,,0,,,48,127
101790,note_off,0,0,0,,0,,,60,127
101790,note_on,0,0,0,,12,,,83,127
101790,note_on,0,0,0,,8,,,56,127
101790,note_on,0,0,0,,12,,,71,127
101790,note_on,0,0,0,,8,,,44,127
101998,note_off,208,0,0,,12,,,71,127
101998,note_off,0,0,0,,12,,,83,127
102009,note_off,11,0,0,,8,,,44,127
102009,note_off,0,0,0,,8,,,56,127
102009,note_on,0,0,0,,0,,,84,127
102009,note_on,0,0,0,,10,,,57,127
102009,note_on,0,0,0,,0,,,72,127
102009,note_on,0,0,0,,10,,,45,127
102217,note_off,208,0,0,,0,,,72,127
102217,note_off,0,0,0,,0,,,84,127
102228,note_off,11,0,0,,10,,,45,127
102228,note_off,0,0,0,,10,,,57,127
102228,note_on,0,0,0,,8,,,80,127
102228,note_on,0,0,0,,12,,,59,127
102228,note_on,0,0,0,,8,,,68,127
102228,note_on,0,0,0,,12,,,47,127
102436,note_off,208,0,0,,8,,,68,127
102436,note_off,0,0,0,,8,,,80,127
102447,note_off,11,0,0,,12,,,47,127
102447,note_off,0,0,0,,12,,,59,127
102447,note_on,0,0,0,,10,,,81,127
102447,note_on,0,0,0,,0,,,60,127
102447,note_on,0,0,0,,10,,,69,127
102447,note_on,0,0,0,,0,,,48,127
102666,note_off,219,0,0,,0,,,48,127
102666,note_off,0,0,0,,0,,,60,127
102666,note_on,0,0,0,,1,,,61,127
102666,note_on,0,0,0,,1,,,49,127
102885,note_off,219,0,0,,1,,,49,127
102885,note_off,0,0,0,,1,,,61,127
102885,note_on,0,0,0,,3,,,63,127
102885,note_on,0,0,0,,3,,,51,127
103093,note_off,208,0,0,,10,,,69,127
103093,note_off,0,0,0,,10,,,81,127
103104,note_off,11,0,0,,3,,,51,127
103104,note_off,0,0,0,,3,,,63,127
103104,note_on,0,0,0,,7,,,79,127
103104,note_on,0,0,0,,4,,,64,127
103104,note_on,0,0,0,,7,,,67,127
103104,note_on,0,0,0,,4,,,52,127
103312,note_off,208,0,0,,7,,,67,127
103312,note_off,0,0,0,,7,,,79,127
103323,note_off,11,0,0,,4,,,52,127
103323,note_off,0,0,0,,4,,,64,127
103323,note_on,0,0,0,,6,,,78,127
103323,note_on,0,0,0,,10,,,57,127
103323,note_on,0,0,0,,6,,,66,127
103323,note_on,0,0,0,,10,,,45,127
103531,note_off,208,0,0,,6,,,66,127
103531,note_off,0,0,0,,6,,,78,127
103542,note_off,11,0,0,,10,,,45,127
103542,note_off,0,0,0,,10,,,57,127
103542,note_on,0,0,0,,4,,,76,127
103542,note_on,0,0,0,,0,,,60,127
103542,note_on,0,0,0,,4,,,64,127
103542,note_on,0,0,0,,0,,,48,127
103750,note_off,208,0,0,,4,,,64,127
103750,note_off,0,0,0,,4,,,76,127
103761,note_on,11,0,0,,6,,,78,127
103761,note_on,0,0,0,,6,,,66,127
103871,note_off,110,0,0,,0,,,48,127
103871,note_off,0,0,0,,0,,,60,127
103981,note_on,110,0,0,,12,,,59,127
103981,note_on,0,0,0,,12,,,47,127
104200,note_off,219,0,0,,12,,,47,127
104200,note_off,0,0,0,,12,,,59,127
104200,note_on,0,0,0,,0,,,60,127
104200,note_on,0,0,0,,0,,,48,127
104408,note_off,208,0,0,,6,,,66,127
104408,note_off,0,0,0,,6,,,78,127
104419,note_off,11,0,0,,0,,,48,127
104419,note_off,0,0,0,,0,,,60,127
104419,note_on,0,0,0,,12,,,83,127
104419,note_on,0,0,0,,8,,,56,127
104419,note_on,0,0,0,,12,,,71,127
104419,note_on,0,0,0,,8,,,44,127
104627,note_off,208,0,0,,12,,,71,127
104627,note_off,0,0,0,,12,,,83,127
104638,note_off,11,0,0,,8,,,44,127
104638,note_off,0,0,0,,8,,,56,127
104638,note_on,0,0,0,,0,,,84,127
104638,note_on,0,0,0,,10,,,57,127
104638,note_on,0,0,0,,10,,,45,127
104638,note_on,0,0,0,,0,,,72,127
104846,note_off,208,0,0,,0,,,72,127
104846,note_off,0,0,0,,0,,,84,127
104857,note_off,11,0,0,,10,,,45,127
104857,note_off,0,0,0,,10,,,57,127
104857,note_on,0,0,0,,8,,,80,127
104857,note_on,0,0,0,,12,,,59,127
104857,note_on,0,0,0,,12,,,47,127
104857,note_on,0,0,0,,8,,,68,127
105065,note_off,208,0,0,,8,,,68,127
105065,note_off,0,0,0,,8,,,80,127
105076,note_off,11,0,0,,12,,,47,127
105076,note_off,0,0,0,,12,,,59,127
105076,note_on,0,0,0,,10,,,81,127
105076,note_on,0,0,0,,0,,,60,127
105076,note_on,0,0,0,,0,,,48,127
105076,note_on,0,0,0,,10,,,69,127
105295,note_off,219,0,0,,0,,,48,127
105295,note_off,0,0,0,,0,,,60,127
105295,note_on,0,0,0,,1,,,61,127
105295,note_on,0,0,0,,1,,,49,127
105514,note_off,219,0,0,,1,,,49,127
105514,note_off,0,0,0,,1,,,61,127
105514,note_on,0,0,0,,3,,,63,127
105514,note_on,0,0,0,,3,,,51,127
105722,note_off,208,0,0,,10,,,69,127
105722,note_off,0,0,0,,10,,,81,127
105733,note_off,11,0,0,,3,,,51,127
105733,note_off,0,0,0,,3,,,63,127
105733,note_on,0,0,0,,7,,,79,127
105733,note_on,0,0,0,,4,,,64,127
105733,note_on,0,0,0,,4,,,52,127
105733,note_on,0,0,0,,7,,,67,127
105941,note_off,208,0,0,,7,,,67,127
105941,note_off,0,0,0,,7,,,79,127
105952,note_off,11,0,0,,4,,,52,127
105952,note_off,0,0,0,,4,,,64,127
105952,note_on,0,0,0,,6,,,78,127
105952,note_on,0,0,0,,10,,,57,127
105952,note_on,0,0,0,,10,,,45,127
105952,note_on,0,0,0,,6,,,66,127
106160,note_off,208,0,0,,6,,,66,127
106160,note_off,0,0,0,,6,,,78,127
106171,note_off,11,0,0,,10,,,45,127
106171,note_off,0,0,0,,10,,,57,127
106171,note_on,0,0,0,,4,,,76,127
106171,note_on,0,0,0,,0,,,60,127
106171,note_on,0,0,0,,0,,,48,127
106171,note_on,0,0,0,,4,,,64,127
106379,note_off,208,0,0,,4,,,64,127
106390,note_off,11,0,0,,0,,,48,127
106390,note_off,0,0,0,,0,,,60,127
106390,note_off,0,0,0,,4,,,76,127
106390,note_on,0,0,0,,12,,,83,127
106390,note_on,0,0,0,,12,,,59,127
106390,note_on,0,0,0,,12,,,47,127
106500,note_off,110,0,0,,12,,,83,127
106500,note_on,0,0,0,,12,,,71,127
106610,note_off,110,0,0,,12,,,71,127
106610,note_on,0,0,0,,3,,,75,127
106720,note_off,110,0,0,,3,,,75,127
106720,note_on,0,0,0,,12,,,71,127
106830,note_off,110,0,0,,12,,,71,127
106830,note_off,0,0,0,,12,,,47,127
106830,note_off,0,0,0,,12,,,59,127
106830,note_on,0,0,0,,4,,,76,127
106830,note_on,0,0,0,,8,,,68,127
106940,note_off,110,0,0,,4,,,76,127
106940,note_on,0,0,0,,12,,,71,127
107050,note_off,110,0,0,,12,,,71,127
107050,note_off,0,0,0,,8,,,68,127
107050,note_on,0,0,0,,8,,,80,127
107050,note_on,0,0,0,,6,,,66,127
107160,note_off,110,0,0,,6,,,66,127
107160,note_off,0,0,0,,8,,,80,127
107160,note_on,0,0,0,,12,,,71,127
107160,note_on,0,0,0,,4,,,64,127
107270,note_off,110,0,0,,4,,,64,127
107270,note_off,0,0,0,,12,,,71,127
107270,note_on,0,0,0,,12,,,83,127
107270,note_on,0,0,0,,12,,,47,127
107380,note_off,110,0,0,,12,,,83,127
107380,note_on,0,0,0,,12,,,71,127
107490,note_off,110,0,0,,12,,,71,127
107490,note_on,0,0,0,,3,,,75,127
107600,note_off,110,0,0,,3,,,75,127
107600,note_on,0,0,0,,12,,,71,127
107710,note_off,110,0,0,,12,,,71,127
107710,note_off,0,0,0,,12,,,47,127
107710,note_on,0,0,0,,4,,,76,127
107710,note_on,0,0,0,,8,,,68,127
107820,note_off,110,0,0,,4,,,76,127
107820,note_on,0,0,0,,12,,,71,127
107930,note_off,110,0,0,,12,,,71,127
107930,note_off,0,0,0,,8,,,68,127
107930,note_on,0,0,0,,8,,,80,127
107930,note_on,0,0,0,,6,,,66,127
108040,note_off,110,0,0,,6,,,66,127
108040,note_off,0,0,0,,8,,,80,127
108040,note_on,0,0,0,,12,,,71,127
108040,note_on,0,0,0,,4,,,64,127
108150,note_off,110,0,0,,4,,,64,127
108150,note_off,0,0,0,,12,,,71,127
108150,note_on,0,0,0,,12,,,83,127
108150,note_on,0,0,0,,10,,,45,127
108260,note_off,110,0,0,,12,,,83,127
108260,note_on,0,0,0,,12,,,71,127
108370,note_off,110,0,0,,12,,,71,127
108370,note_on,0,0,0,,3,,,75,127
108480,note_off,110,0,0,,3,,,75,127
108480,note_on,0,0,0,,12,,,71,127
108590,note_off,110,0,0,,12,,,71,127
108590,note_off,0,0,0,,10,,,45,127
108590,note_on,0,0,0,,4,,,76,127
108590,note_on,0,0,0,,8,,,68,127
108700,note_off,110,0,0,,4,,,76,127
108700,note_on,0,0,0,,12,,,71,127
108810,note_off,110,0,0,,12,,,71,127
108810,note_off,0,0,0,,8,,,68,127
108810,note_on,0,0,0,,6,,,78,127
108810,note_on,0,0,0,,6,,,66,127
108920,note_off,110,0,0,,6,,,66,127
108920,note_off,0,0,0,,6,,,78,127
108920,note_on,0,0,0,,12,,,71,127
108920,note_on,0,0,0,,4,,,64,127
109030,note_off,110,0,0,,4,,,64,127
109030,note_off,0,0,0,,12,,,71,127
109030,note_on,0,0,0,,12,,,83,127
109030,note_on,0,0,0,,8,,,44,127
109140,note_off,110,0,0,,12,,,83,127
109140,note_on,0,0,0,,12,,,71,127
109250,note_off,110,0,0,,12,,,71,127
109250,note_on,0,0,0,,4,,,76,127
109360,note_off,110,0,0,,4,,,76,127
109360,note_on,0,0,0,,12,,,71,127
109470,note_off,110,0,0,,12,,,71,127
109470,note_off,0,0,0,,8,,,44,127
109470,note_on,0,0,0,,6,,,78,127
109470,note_on,0,0,0,,8,,,68,127
109580,note_off,110,0,0,,6,,,78,127
109580,note_on,0,0,0,,12,,,71,127
109690,note_off,110,0,0,,12,,,71,127
109690,note_off,0,0,0,,8,,,68,127
109690,note_on,0,0,0,,8,,,80,127
109690,note_on,0,0,0,,6,,,66,127
109800,note_off,110,0,0,,6,,,66,127
109800,note_off,0,0,0,,8,,,80,127
109800,note_on,0,0,0,,12,,,71,127
109800,note_on,0,0,0,,4,,,64,127
109910,note_off,110,0,0,,4,,,64,127
109910,note_off,0,0,0,,12,,,71,127
109910,note_on,0,0,0,,10,,,81,127
109910,note_on,0,0,0,,6,,,42,127
110020,note_off,110,0,0,,10,,,81,127
110020,note_on,0,0,0,,12,,,71,127
110130,note_off,110,0,0,,12,,,71,127
110130,note_on,0,0,0,,3,,,75,127
110240,note_off,110,0,0,,3,,,75,127
110240,note_on,0,0,0,,12,,,71,127
110350,note_off,110,0,0,,12,,,71,127
110350,note_off,0,0,0,,6,,,42,127
110350,note_on,0,0,0,,4,,,76,127
110350,note_on,0,0,0,,8,,,68,127
110460,note_off,110,0,0,,4,,,76,127
110460,note_on,0,0,0,,12,,,71,127
110570,note_off,110,0,0,,12,,,71,127
110570,note_off,0,0,0,,8,,,68,127
110570,note_on,0,0,0,,6,,,78,127
110570,note_on,0,0,0,,6,,,66,127
110680,note_off,110,0,0,,6,,,66,127
110680,note_off,0,0,0,,6,,,78,127
110680,note_on,0,0,0,,12,,,71,127
110680,note_on,0,0,0,,4,,,64,127
110790,note_off,110,0,0,,4,,,64,127
110790,note_off,0,0,0,,12,,,71,127
110790,note_on,0,0,0,,8,,,80,127
110790,note_on,0,0,0,,4,,,40,127
110900,note_off,110,0,0,,8,,,80,127
110900,note_on,0,0,0,,10,,,81,127
111010,note_off,110,0,0,,10,,,81,127
111010,note_on,0,0,0,,12,,,83,127
111120,note_off,110,0,0,,12,,,83,127
111120,note_on,0,0,0,,10,,,81,127
111230,note_off,110,0,0,,10,,,81,127
111230,note_on,0,0,0,,8,,,80,127
111340,note_off,110,0,0,,8,,,80,127
111340,note_on,0,0,0,,6,,,78,127
111450,note_off,110,0,0,,6,,,78,127
111450,note_off,0,0,0,,4,,,40,127
111450,note_on,0,0,0,,4,,,76,127
111450,note_on,0,0,0,,8,,,56,127
111560,note_off,110,0,0,,4,,,76,127
111560,note_on,0,0,0,,3,,,75,127
111670,note_off,110,0,0,,3,,,75,127
111670,note_off,0,0,0,,8,,,56,127
111670,note_on,0,0,0,,1,,,73,127
111670,note_on,0,0,0,,10,,,45,127
111780,note_off,110,0,0,,1,,,73,127
111780,note_on,0,0,0,,4,,,76,127
111890,note_off,110,0,0,,4,,,76,127
111890,note_on,0,0,0,,3,,,75,127
111890,note_on,0,0,0,,10,,,57,127
112000,note_off,110,0,0,,3,,,75,127
112000,note_on,0,0,0,,1,,,73,127
112110,note_off,110,0,0,,1,,,73,127
112110,note_off,0,0,0,,10,,,57,127
112110,note_off,0,0,0,,10,,,45,127
112110,note_on,0,0,0,,12,,,71,127
112110,note_on,0,0,0,,12,,,59,127
112220,note_off,110,0,0,,12,,,71,127
112220,note_on,0,0,0,,10,,,69,127
112330,note_off,110,0,0,,10,,,69,127
112330,note_on,0,0,0,,8,,,68,127
112330,note_on,0,0,0,,12,,,47,127
112440,note_off,110,0,0,,8,,,68,127
112440,note_off,0,0,0,,12,,,59,127
112440,note_on,0,0,0,,6,,,66,127
112550,note_off,110,0,0,,6,,,66,127
112550,note_off,0,0,0,,12,,,47,127
112550,note_on,0,0,0,,12,,,83,127
112550,note_on,0,0,0,,4,,,40,127
112660,note_off,110,0,0,,12,,,83,127
112660,note_on,0,0,0,,12,,,71,127
112770,note_off,110,0,0,,12,,,71,127
112770,note_on,0,0,0,,3,,,75,127
112880,note_off,110,0,0,,3,,,75,127
112880,note_on,0,0,0,,12,,,71,127
112990,note_off,110,0,0,,12,,,71,127
112990,note_off,0,0,0,,4,,,40,127
112990,note_on,0,0,0,,4,,,76,127
112990,note_on,0,0,0,,8,,,68,127
113100,note_off,110,0,0,,4,,,76,127
113100,note_on,0,0,0,,12,,,71,127
113210,note_off,110,0,0,,12,,,71,127
113210,note_off,0,0,0,,8,,,68,127
113210,note_on,0,0,0,,8,,,80,127
113210,note_on,0,0,0,,6,,,66,127
113320,note_off,110,0,0,,6,,,66,127
113320,note_off,0,0,0,,8,,,80,127
113320,note_on,0,0,0,,12,,,71,127
113320,note_on,0,0,0,,4,,,64,127
113430,note_off,110,0,0,,4,,,64,127
113430,note_off,0,0,0,,12,,,71,127
113430,note_on,0,0,0,,12,,,83,127
113430,note_on,0,0,0,,12,,,47,127
113540,note_off,110,0,0,,12,,,83,127
113540,note_on,0,0,0,,12,,,71,127
113650,note_off,110,0,0,,12,,,71,127
113650,note_on,0,0,0,,3,,,75,127
113760,note_off,110,0,0,,3,,,75,127
113760,note_on,0,0,0,,12,,,71,127
113870,note_off,110,0,0,,12,,,71,127
113870,note_off,0,0,0,,12,,,47,127
113870,note_on,0,0,0,,4,,,76,127
113870,note_on,0,0,0,,8,,,68,127
113980,note_off,110,0,0,,4,,,76,127
113980,note_on,0,0,0,,12,,,71,127
114090,note_off,110,0,0,,12,,,71,127
114090,note_off,0,0,0,,8,,,68,127
114090,note_on,0,0,0,,8,,,80,127
114090,note_on,0,0,0,,6,,,66,127
114200,note_off,110,0,0,,6,,,66,127
114200,note_off,0,0,0,,8,,,80,127
114200,note_on,0,0,0,,12,,,71,127
114200,note_on,0,0,0,,4,,,64,127
114310,note_off,110,0,0,,4,,,64,127
114310,note_off,0,0,0,,12,,,71,127
114310,note_on,0,0,0,,12,,,83,127
114310,note_on,0,0,0,,10,,,45,127
114420,note_off,110,0,0,,12,,,83,127
114420,note_on,0,0,0,,12,,,71,127
114530,note_off,110,0,0,,12,,,71,127
114530,note_on,0,0,0,,3,,,75,127
114640,note_off,110,0,0,,3,,,75,127
114640,note_on,0,0,0,,12,,,71,127
114750,note_off,110,0,0,,12,,,71,127
114750,note_off,0,0,0,,10,,,45,127
114750,note_on,0,0,0,,4,,,76,127
114750,note_on,0,0,0,,8,,,68,127
114860,note_off,110,0,0,,4,,,76,127
114860,note_on,0,0,0,,12,,,71,127
114970,note_off,110,0,0,,12,,,71,127
114970,note_off,0,0,0,,8,,,68,127
114970,note_on,0,0,0,,8,,,80,127
114970,note_on,0,0,0,,6,,,66,127
115080,note_off,110,0,0,,6,,,66,127
115080,note_off,0,0,0,,8,,,80,127
115080,note_on,0,0,0,,12,,,71,127
115080,note_on,0,0,0,,4,,,64,127
115190,note_off,110,0,0,,4,,,64,127
115190,note_off,0,0,0,,12,,,71,127
115190,note_on,0,0,0,,12,,,83,127
115190,note_on,0,0,0,,8,,,44,127
115300,note_off,110,0,0,,12,,,83,127
115300,note_on,0,0,0,,12,,,71,127
115410,note_off,110,0,0,,12,,,71,127
115410,note_on,0,0,0,,4,,,76,127
115520,note_off,110,0,0,,4,,,76,127
115520,note_on,0,0,0,,12,,,71,127
115630,note_off,110,0,0,,12,,,71,127
115630,note_off,0,0,0,,8,,,44,127
115630,note_on,0,0,0,,6,,,78,127
115630,note_on,0,0,0,,8,,,68,127
115740,note_off,110,0,0,,6,,,78,127
115740,note_on,0,0,0,,12,,,71,127
115850,note_off,110,0,0,,12,,,71,127
115850,note_off,0,0,0,,8,,,68,127
115850,note_on,0,0,0,,8,,,80,127
115850,note_on,0,0,0,,6,,,66,127
115960,note_off,110,0,0,,6,,,66,127
115960,note_off,0,0,0,,8,,,80,127
115960,note_on,0,0,0,,12,,,71,127
115960,note_on,0,0,0,,4,,,64,127
116070,note_off,110,0,0,,4,,,64,127
116070,note_off,0,0,0,,12,,,71,127
116070,note_on,0,0,0,,10,,,81,127
116070,note_on,0,0,0,,6,,,42,127
116180,note_off,110,0,0,,10,,,81,127
116180,note_on,0,0,0,,12,,,71,127
116290,note_off,110,0,0,,12,,,71,127
116290,note_on,0,0,0,,3,,,75,127
116400,note_off,110,0,0,,3,,,75,127
116400,note_on,0,0,0,,12,,,71,127
116510,note_off,110,0,0,,12,,,71,127
116510,note_off,0,0,0,,6,,,42,127
116510,note_on,0,0,0,,4,,,76,127
116510,note_on,0,0,0,,8,,,68,127
116620,note_off,110,0,0,,4,,,76,127
116620,note_on,0,0,0,,12,,,71,127
116730,note_off,110,0,0,,12,,,71,127
116730,note_off,0,0,0,,8,,,68,127
116730,note_on,0,0,0,,6,,,78,127
116730,note_on,0,0,0,,6,,,66,127
116840,note_off,110,0,0,,6,,,66,127
116840,note_off,0,0,0,,6,,,78,127
116840,note_on,0,0,0,,12,,,71,127
116840,note_on,0,0,0,,4,,,64,127
116950,note_off,110,0,0,,4,,,64,127
116950,note_off,0,0,0,,12,,,71,127
116950,note_on,0,0,0,,8,,,80,127
116950,note_on,0,0,0,,4,,,40,127
117060,note_off,110,0,0,,8,,,80,127
117060,note_on,0,0,0,,10,,,81,127
117170,note_off,110,0,0,,10,,,81,127
117170,note_on,0,0,0,,12,,,83,127
117280,note_off,110,0,0,,12,,,83,127
117280,note_on,0,0,0,,10,,,81,127
117390,note_off,110,0,0,,10,,,81,127
117390,note_on,0,0,0,,8,,,80,127
117500,note_off,110,0,0,,8,,,80,127
117500,note_on,0,0,0,,6,,,78,127
117610,note_off,110,0,0,,6,,,78,127
117610,note_off,0,0,0,,4,,,40,127
117610,note_on,0,0,0,,4,,,76,127
117610,note_on,0,0,0,,8,,,56,127
117720,note_off,110,0,0,,4,,,76,127
117720,note_on,0,0,0,,3,,,75,127
117830,note_off,110,0,0,,3,,,75,127
117830,note_off,0,0,0,,8,,,56,127
117830,note_on,0,0,0,,1,,,73,127
117830,note_on,0,0,0,,10,,,45,127
117940,note_off,110,0,0,,1,,,73,127
117940,note_on,0,0,0,,4,,,76,127
118050,note_off,110,0,0,,4,,,76,127
118050,note_on,0,0,0,,3,,,75,127
118050,note_on,0,0,0,,10,,,57,127
118160,note_off,110,0,0,,3,,,75,127
118160,note_on,0,0,0,,1,,,73,127
118270,note_off,110,0,0,,1,,,73,127
118270,note_off,0,0,0,,10,,,57,127
118270,note_off,0,0,0,,10,,,45,127
118270,note_on,0,0,0,,12,,,71,127
118270,note_on,0,0,0,,12,,,59,127
118380,note_off,110,0,0,,12,,,71,127
118380,note_on,0,0,0,,10,,,69,127
118490,note_off,110,0,0,,10,,,69,127
118490,note_on,0,0,0,,8,,,68,127
118490,note_on,0,0,0,,12,,,47,127
118600,note_off,110,0,0,,8,,,68,127
118600,note_on,0,0,0,,6,,,66,127
118705,note_off,105,0,0,,12,,,59,127
118707,note_off,2,0,0,,12,,,47,127
118709,note_off,2,0,0,,6,,,66,127
118709,note_on,0,0,0,,8,,,80,127
118709,note_on,0,0,0,,12,,,71,127
118819,note_on,110,0,0,,4,,,64,127
118929,note_off,110,0,0,,4,,,64,127
118929,note_on,0,0,0,,6,,,66,127
119039,note_off,110,0,0,,6,,,66,127
119039,note_on,0,0,0,,8,,,68,127
119149,note_off,110,0,0,,8,,,68,127
119149,note_off,0,0,0,,12,,,71,127
119149,note_off,0,0,0,,8,,,80,127
119149,note_on,0,0,0,,1,,,73,127
119149,note_on,0,0,0,,10,,,81,127
119149,note_on,0,0,0,,10,,,69,127
119259,note_off,110,0,0,,10,,,69,127
119259,note_on,0,0,0,,8,,,68,127
119369,note_off,110,0,0,,8,,,68,127
119369,note_on,0,0,0,,6,,,66,127
119479,note_off,110,0,0,,6,,,66,127
119479,note_on,0,0,0,,4,,,64,127
119589,note_off,110,0,0,,4,,,64,127
119589,note_off,0,0,0,,10,,,81,127
119589,note_off,0,0,0,,1,,,73,127
119589,note_on,0,0,0,,12,,,71,127
119589,note_on,0,0,0,,12,,,35,127
119699,note_on,110,0,0,,10,,,81,127
119809,note_off,110,0,0,,10,,,81,127
119809,note_on,0,0,0,,8,,,80,127
119919,note_off,110,0,0,,8,,,80,127
119919,note_on,0,0,0,,6,,,78,127
120024,note_off,105,0,0,,12,,,71,127
120029,note_off,5,0,0,,6,,,78,127
120029,note_off,0,0,0,,12,,,35,127
120029,note_on,0,0,0,,8,,,80,127
120029,note_on,0,0,0,,4,,,40,127
120139,note_off,110,0,0,,8,,,80,127
120139,note_on,0,0,0,,6,,,78,127
120249,note_off,110,0,0,,6,,,78,127
120249,note_on,0,0,0,,4,,,76,127
120359,note_off,110,0,0,,4,,,76,127
120359,note_on,0,0,0,,3,,,75,127
120469,note_off,110,0,0,,3,,,75,127
120469,note_off,0,0,0,,4,,,40,127
120469,note_on,0,0,0,,1,,,73,127
120469,note_on,0,0,0,,10,,,45,127
120579,note_off,110,0,0,,1,,,73,127
120579,note_on,0,0,0,,3,,,75,127
120689,note_off,110,0,0,,3,,,75,127
120689,note_on,0,0,0,,4,,,76,127
120799,note_off,110,0,0,,4,,,76,127
120799,note_on,0,0,0,,6,,,78,127
120909,note_off,110,0,0,,6,,,78,127
120909,note_off,0,0,0,,10,,,45,127
120909,note_on,0,0,0,,8,,,80,127
120909,note_on,0,0,0,,12,,,83,127
120909,note_on,0,0,0,,12,,,47,127
121019,note_off,110,0,0,,8,,,80,127
121019,note_on,0,0,0,,4,,,76,127
121074,note_off,55,0,0,,12,,,83,127
121129,note_off,55,0,0,,4,,,76,127
121129,note_on,0,0,0,,10,,,81,127
121129,note_on,0,0,0,,6,,,78,127
121239,note_off,110,0,0,,6,,,78,127
121239,note_on,0,0,0,,3,,,75,127
121294,note_off,55,0,0,,10,,,81,127
121344,note_off,50,0,0,,12,,,47,127
121349,note_off,5,0,0,,3,,,75,127
121349,note_on,0,0,0,,8,,,80,127
121349,note_on,0,0,0,,12,,,71,127
121459,note_on,110,0,0,,4,,,64,127
121569,note_off,110,0,0,,4,,,64,127
121569,note_on,0,0,0,,6,,,66,127
121679,note_off,110,0,0,,6,,,66,127
121679,note_on,0,0,0,,8,,,68,127
121789,note_off,110,0,0,,8,,,68,127
121789,note_off,0,0,0,,12,,,71,127
121789,note_off,0,0,0,,8,,,80,127
121789,note_on,0,0,0,,1,,,73,127
121789,note_on,0,0,0,,10,,,81,127
121789,note_on,0,0,0,,10,,,69,127
121899,note_off,110,0,0,,10,,,69,127
121899,note_on,0,0,0,,8,,,68,127
122009,note_off,110,0,0,,8,,,68,127
122009,note_on,0,0,0,,6,,,66,127
122119,note_off,110,0,0,,6,,,66,127
122119,note_on,0,0,0,,4,,,64,127
122229,note_off,110,0,0,,4,,,64,127
122229,note_off,0,0,0,,10,,,81,127
122229,note_off,0,0,0,,1,,,73,127
122229,note_on,0,0,0,,12,,,71,127
122229,note_on,0,0,0,,12,,,35,127
122339,note_on,110,0,0,,10,,,81,127
122449,note_off,110,0,0,,10,,,81,127
122449,note_on,0,0,0,,8,,,80,127
122559,note_off,110,0,0,,8,,,80,127
122559,note_on,0,0,0,,6,,,78,127
122664,note_off,105,0,0,,12,,,71,127
122669,note_off,5,0,0,,6,,,78,127
122669,note_off,0,0,0,,12,,,35,127
122669,note_on,0,0,0,,8,,,80,127
122669,note_on,0,0,0,,4,,,40,127
122779,note_off,110,0,0,,8,,,80,127
122779,note_on,0,0,0,,6,,,78,127
122889,note_off,110,0,0,,6,,,78,127
122889,note_on,0,0,0,,4,,,76,127
122999,note_off,110,0,0,,4,,,76,127
122999,note_on,0,0,0,,3,,,75,127
123109,note_off,110,0,0,,3,,,75,127
123109,note_off,0,0,0,,4,,,40,127
123109,note_on,0,0,0,,1,,,73,127
123109,note_on,0,0,0,,10,,,45,127
123219,note_off,110,0,0,,1,,,73,127
123219,note_on,0,0,0,,3,,,75,127
123329,note_off,110,0,0,,3,,,75,127
123329,note_on,0,0,0,,4,,,76,127
123439,note_off,110,0,0,,4,,,76,127
123439,note_on,0,0,0,,6,,,78,127
123549,note_off,110,0,0,,6,,,78,127
123549,note_off,0,0,0,,10,,,45,127
123549,note_on,0,0,0,,12,,,83,127
123549,note_on,0,0,0,,8,,,80,127
123549,note_on,0,0,0,,12,,,47,127
123659,note_off,110,0,0,,8,,,80,127
123659,note_on,0,0,0,,4,,,76,127
123766,note_off,107,0,0,,12,,,83,127
123768,note_off,2,0,0,,4,,,76,127
123768,note_on,0,0,0,,6,,,78,127
123768,note_on,0,0,0,,10,,,81,127
123878,note_off,110,0,0,,6,,,78,127
123878,note_on,0,0,0,,3,,,75,127
123985,note_off,107,0,0,,10,,,81,127
123987,note_off,2,0,0,,3,,,75,127
123987,note_off,0,0,0,,12,,,47,127
123987,note_on,0,0,0,,4,,,76,127
123987,note_on,0,0,0,,8,,,80,127
123987,note_on,0,0,0,,4,,,40,127
124096,note_off,109,0,0,,4,,,76,127
124097,note_on,1,0,0,,4,,,76,127
124207,note_off,110,0,0,,4,,,76,127
124207,note_on,0,0,0,,12,,,71,127
124317,note_off,110,0,0,,12,,,71,127
124317,note_on,0,0,0,,8,,,68,127
124422,note_off,105,0,0,,8,,,80,127
124427,note_off,5,0,0,,8,,,68,127
124427,note_on,0,0,0,,4,,,76,127
124537,note_on,110,0,0,,12,,,71,127
124647,note_off,110,0,0,,12,,,71,127
124647,note_on,0,0,0,,8,,,68,127
124757,note_off,110,0,0,,8,,,68,127
124757,note_on,0,0,0,,4,,,64,127
124862,note_off,105,0,0,,4,,,76,127
124865,note_off,3,0,0,,4,,,40,127
124866,note_off,1,0,0,,4,,,64,127
124866,note_on,0,0,0,,4,,,64,127
124976,note_on,110,0,0,,12,,,59,127
125086,note_off,110,0,0,,12,,,59,127
125086,note_on,0,0,0,,8,,,56,127
125196,note_off,110,0,0,,8,,,56,127
125196,note_on,0,0,0,,4,,,52,127
125301,note_off,105,0,0,,4,,,64,127
125306,note_off,5,0,0,,4,,,52,127
125306,note_on,0,0,0,,4,,,52,127
125416,note_on,110,0,0,,12,,,47,127
125526,note_off,110,0,0,,12,,,47,127
125526,note_on,0,0,0,,8,,,44,127
125636,note_off,110,0,0,,8,,,44,127
125636,note_on,0,0,0,,4,,,40,127
125741,note_off,105,0,0,,4,,,40,127
125746,note_on,5,0,0,,4,,,40,127
127250,note_off,1504,0,0,,4,,,52,127
127575,note_off,325,0,0,,4,,,40,127
130560,end_of_track,2985,1,0,,,,,,
