tick,type,time,meta,track,program,channel,pitch,tempo,note,velocity
0,copyright,0,1,0,,,,,,
0,program_change,0,0,0,6,0,,,,
0,pitchwheel,0,0,0,,0,0,,,
0,program_change,0,0,0,6,1,,,,
0,pitchwheel,0,0,0,,1,-590,,,
0,program_change,0,0,0,6,2,,,,
0,pitchwheel,0,0,0,,2,-272,,,
0,program_change,0,0,0,6,3,,,,
0,pitchwheel,0,0,0,,3,-353,,,
0,program_change,0,0,0,6,4,,,,
0,pitchwheel,0,0,0,,4,-560,,,
0,program_change,0,0,0,6,5,,,,
0,pitchwheel,0,0,0,,5,-80,,,
0,program_change,0,0,0,6,6,,,,
0,pitchwheel,0,0,0,,6,-625,,,
0,program_change,0,0,0,6,7,,,,
0,pitchwheel,0,0,0,,7,-130,,,
0,program_change,0,0,0,6,8,,,,
0,pitchwheel,0,0,0,,8,-512,,,
0,program_change,0,0,0,6,10,,,,
0,pitchwheel,0,0,0,,10,-464,,,
0,program_change,0,0,0,6,11,,,,
0,pitchwheel,0,0,0,,11,-208,,,
0,program_change,0,0,0,6,12,,,,
0,pitchwheel,0,0,0,,12,-553,,,
0,set_tempo,0,1,0,,,,500000,,
96,note_on,96,0,0,,11,,,46,127
288,note_on,192,0,0,,11,,,82,127
460,note_off,172,0,0,,11,,,82,127
480,note_on,20,0,0,,5,,,77,127
671,note_off,191,0,0,,11,,,46,127
672,note_on,1,0,0,,2,,,74,127
672,note_on,0,0,0,,11,,,70,127
863,note_off,191,0,0,,11,,,70,127
863,note_off,0,0,0,,2,,,74,127
864,note_on,1,0,0,,0,,,72,127
864,note_on,0,0,0,,10,,,69,127
1055,note_off,191,0,0,,5,,,77,127
1056,note_on,1,0,0,,3,,,75,127
1247,note_off,191,0,0,,3,,,75,127
1247,note_off,0,0,0,,10,,,69,127
1247,note_off,0,0,0,,0,,,72,127
1248,note_on,1,0,0,,10,,,69,127
1248,note_on,0,0,0,,5,,,65,127
1248,note_on,0,0,0,,2,,,74,127
1439,note_off,191,0,0,,2,,,74,127
1440,note_on,1,0,0,,0,,,72,127
1631,note_off,191,0,0,,0,,,72,127
1631,note_off,0,0,0,,5,,,65,127
1631,note_off,0,0,0,,10,,,69,127
1632,note_on,1,0,0,,7,,,67,127
1632,note_on,0,0,0,,0,,,72,127
1680,note_on,48,0,0,,11,,,70,127
1696,note_off,16,0,0,,0,,,72,127
1728,note_on,32,0,0,,0,,,72,127
1744,note_off,16,0,0,,11,,,70,127
1776,note_on,32,0,0,,11,,,70,127
1792,note_off,16,0,0,,0,,,72,127
1824,note_on,32,0,0,,10,,,69,127
1840,note_off,16,0,0,,11,,,70,127
2015,note_off,175,0,0,,10,,,69,127
2016,note_on,1,0,0,,11,,,70,127
2207,note_off,191,0,0,,7,,,67,127
2208,note_on,1,0,0,,5,,,65,127
2208,note_on,0,0,0,,2,,,62,127
2399,note_off,191,0,0,,2,,,62,127
2399,note_off,0,0,0,,5,,,65,127
2400,note_on,1,0,0,,7,,,67,127
2400,note_on,0,0,0,,3,,,63,127
2591,note_off,191,0,0,,11,,,70,127
2592,note_on,1,0,0,,0,,,72,127
2656,note_off,64,0,0,,0,,,72,127
2656,note_on,0,0,0,,2,,,74,127
2720,note_off,64,0,0,,2,,,74,127
2720,note_on,0,0,0,,3,,,75,127
2783,note_off,63,0,0,,3,,,63,127
2783,note_off,0,0,0,,7,,,67,127
2784,note_off,1,0,0,,3,,,75,127
2784,note_on,0,0,0,,11,,,70,127
2784,note_on,0,0,0,,5,,,65,127
2784,note_on,0,0,0,,2,,,74,127
2975,note_off,191,0,0,,2,,,74,127
2975,note_off,0,0,0,,11,,,70,127
2976,note_on,1,0,0,,10,,,69,127
2976,note_on,0,0,0,,0,,,72,127
3167,note_off,191,0,0,,0,,,72,127
3167,note_off,0,0,0,,10,,,69,127
3167,note_off,0,0,0,,5,,,65,127
3168,note_on,1,0,0,,11,,,58,127
3168,note_on,0,0,0,,2,,,74,127
3350,note_off,182,0,0,,2,,,74,127
3360,note_on,10,0,0,,11,,,82,127
3542,note_off,182,0,0,,11,,,82,127
3552,note_on,10,0,0,,0,,,72,127
3600,note_on,48,0,0,,11,,,70,127
3616,note_off,16,0,0,,0,,,72,127
3648,note_on,32,0,0,,0,,,72,127
3664,note_off,16,0,0,,11,,,70,127
3696,note_on,32,0,0,,11,,,70,127
3712,note_off,16,0,0,,0,,,72,127
3743,note_off,31,0,0,,11,,,58,127
3744,note_on,1,0,0,,5,,,65,127
3744,note_on,0,0,0,,2,,,62,127
3935,note_off,191,0,0,,2,,,62,127
3935,note_off,0,0,0,,5,,,65,127
3936,note_on,1,0,0,,7,,,67,127
3936,note_on,0,0,0,,3,,,63,127
4127,note_off,191,0,0,,11,,,70,127
4128,note_on,1,0,0,,0,,,72,127
4192,note_off,64,0,0,,0,,,72,127
4192,note_on,0,0,0,,2,,,74,127
4256,note_off,64,0,0,,2,,,74,127
4256,note_on,0,0,0,,3,,,75,127
4319,note_off,63,0,0,,3,,,63,127
4319,note_off,0,0,0,,7,,,67,127
4320,note_off,1,0,0,,3,,,75,127
4320,note_on,0,0,0,,11,,,70,127
4320,note_on,0,0,0,,5,,,65,127
4320,note_on,0,0,0,,2,,,74,127
4511,note_off,191,0,0,,2,,,74,127
4511,note_off,0,0,0,,11,,,70,127
4512,note_on,1,0,0,,10,,,69,127
4512,note_on,0,0,0,,0,,,72,127
4703,note_off,191,0,0,,0,,,72,127
4703,note_off,0,0,0,,10,,,69,127
4703,note_off,0,0,0,,5,,,65,127
4704,note_on,1,0,0,,11,,,58,127
4704,note_on,0,0,0,,2,,,74,127
4896,note_on,192,0,0,,11,,,82,127
4992,note_off,96,0,0,,2,,,74,127
5087,note_off,95,0,0,,11,,,82,127
5088,note_on,1,0,0,,0,,,72,127
5136,note_on,48,0,0,,11,,,70,127
5152,note_off,16,0,0,,0,,,72,127
5184,note_on,32,0,0,,0,,,72,127
5200,note_off,16,0,0,,11,,,70,127
5232,note_on,32,0,0,,11,,,70,127
5248,note_off,16,0,0,,0,,,72,127
5279,note_off,31,0,0,,11,,,58,127
5280,note_on,1,0,0,,5,,,65,127
5280,note_on,0,0,0,,2,,,62,127
5471,note_off,191,0,0,,2,,,62,127
5471,note_off,0,0,0,,5,,,65,127
5472,note_on,1,0,0,,3,,,63,127
5472,note_on,0,0,0,,7,,,67,127
5663,note_off,191,0,0,,11,,,70,127
5664,note_on,1,0,0,,0,,,72,127
5728,note_off,64,0,0,,0,,,72,127
5728,note_on,0,0,0,,2,,,74,127
5792,note_off,64,0,0,,2,,,74,127
5792,note_on,0,0,0,,3,,,75,127
5855,note_off,63,0,0,,7,,,67,127
5855,note_off,0,0,0,,3,,,63,127
5856,note_off,1,0,0,,3,,,75,127
5856,note_on,0,0,0,,11,,,70,127
5856,note_on,0,0,0,,5,,,65,127
5856,note_on,0,0,0,,2,,,74,127
6047,note_off,191,0,0,,2,,,74,127
6047,note_off,0,0,0,,11,,,70,127
6048,note_on,1,0,0,,10,,,69,127
6048,note_on,0,0,0,,0,,,72,127
6239,note_off,191,0,0,,0,,,72,127
6239,note_off,0,0,0,,10,,,69,127
6239,note_off,0,0,0,,5,,,65,127
6240,note_on,1,0,0,,11,,,70,127
6240,note_on,0,0,0,,2,,,74,127
6479,note_off,239,0,0,,11,,,70,127
6480,note_on,1,0,0,,11,,,46,127
6528,note_on,48,0,0,,0,,,48,127
6544,note_off,16,0,0,,11,,,46,127
6576,note_on,32,0,0,,2,,,50,127
6592,note_off,16,0,0,,0,,,48,127
6624,note_on,32,0,0,,3,,,51,127
6640,note_off,16,0,0,,2,,,50,127
6672,note_on,32,0,0,,5,,,53,127
6688,note_off,16,0,0,,3,,,51,127
6720,note_on,32,0,0,,7,,,55,127
6736,note_off,16,0,0,,5,,,53,127
6768,note_on,32,0,0,,10,,,57,127
6784,note_off,16,0,0,,7,,,55,127
6816,note_on,32,0,0,,11,,,58,127
6832,note_off,16,0,0,,10,,,57,127
6864,note_on,32,0,0,,0,,,60,127
6880,note_off,16,0,0,,11,,,58,127
6912,note_on,32,0,0,,2,,,62,127
6928,note_off,16,0,0,,0,,,60,127
6960,note_on,32,0,0,,3,,,63,127
6976,note_off,16,0,0,,2,,,62,127
7008,note_on,32,0,0,,5,,,65,127
7024,note_off,16,0,0,,3,,,63,127
7199,note_off,175,0,0,,5,,,65,127
7199,note_off,0,0,0,,2,,,74,127
7200,note_on,1,0,0,,3,,,63,127
7200,note_on,0,0,0,,0,,,72,127
7391,note_off,191,0,0,,0,,,72,127
7391,note_off,0,0,0,,3,,,63,127
7392,note_on,1,0,0,,2,,,62,127
7392,note_on,0,0,0,,11,,,70,127
7583,note_off,191,0,0,,11,,,70,127
7583,note_off,0,0,0,,2,,,62,127
7584,note_on,1,0,0,,0,,,60,127
7584,note_on,0,0,0,,10,,,69,127
7775,note_off,191,0,0,,10,,,69,127
7775,note_off,0,0,0,,0,,,60,127
7776,note_on,1,0,0,,11,,,70,127
7776,note_on,0,0,0,,2,,,74,127
8015,note_off,239,0,0,,11,,,70,127
8016,note_on,1,0,0,,11,,,46,127
8064,note_on,48,0,0,,0,,,48,127
8080,note_off,16,0,0,,11,,,46,127
8112,note_on,32,0,0,,2,,,50,127
8128,note_off,16,0,0,,0,,,48,127
8160,note_on,32,0,0,,3,,,51,127
8176,note_off,16,0,0,,2,,,50,127
8208,note_on,32,0,0,,5,,,53,127
8224,note_off,16,0,0,,3,,,51,127
8256,note_on,32,0,0,,7,,,55,127
8272,note_off,16,0,0,,5,,,53,127
8304,note_on,32,0,0,,10,,,57,127
8320,note_off,16,0,0,,7,,,55,127
8352,note_on,32,0,0,,11,,,58,127
8368,note_off,16,0,0,,10,,,57,127
8400,note_on,32,0,0,,0,,,60,127
8416,note_off,16,0,0,,11,,,58,127
8448,note_on,32,0,0,,2,,,62,127
8464,note_off,16,0,0,,0,,,60,127
8496,note_on,32,0,0,,3,,,63,127
8512,note_off,16,0,0,,2,,,62,127
8544,note_on,32,0,0,,5,,,65,127
8560,note_off,16,0,0,,3,,,63,127
8735,note_off,175,0,0,,5,,,65,127
8735,note_off,0,0,0,,2,,,74,127
8736,note_on,1,0,0,,3,,,63,127
8736,note_on,0,0,0,,0,,,72,127
8927,note_off,191,0,0,,0,,,72,127
8927,note_off,0,0,0,,3,,,63,127
8928,note_on,1,0,0,,2,,,62,127
8928,note_on,0,0,0,,11,,,70,127
9119,note_off,191,0,0,,11,,,70,127
9119,note_off,0,0,0,,2,,,62,127
9120,note_on,1,0,0,,0,,,60,127
9120,note_on,0,0,0,,10,,,69,127
9311,note_off,191,0,0,,10,,,69,127
9311,note_off,0,0,0,,0,,,60,127
9312,note_on,1,0,0,,2,,,62,127
9312,note_on,0,0,0,,11,,,70,127
9599,note_off,287,0,0,,11,,,70,127
9600,note_on,1,0,0,,5,,,65,127
9648,note_on,48,0,0,,7,,,67,127
9664,note_off,16,0,0,,5,,,65,127
9696,note_on,32,0,0,,10,,,69,127
9712,note_off,16,0,0,,7,,,67,127
9744,note_on,32,0,0,,11,,,70,127
9760,note_off,16,0,0,,10,,,69,127
9792,note_on,32,0,0,,0,,,72,127
9808,note_off,16,0,0,,11,,,70,127
9840,note_on,32,0,0,,2,,,74,127
9856,note_off,16,0,0,,0,,,72,127
9887,note_off,31,0,0,,2,,,62,127
9888,note_on,1,0,0,,0,,,60,127
9888,note_on,0,0,0,,3,,,75,127
9904,note_off,16,0,0,,2,,,74,127
9936,note_on,32,0,0,,5,,,77,127
9952,note_off,16,0,0,,3,,,75,127
9984,note_on,32,0,0,,7,,,79,127
10000,note_off,16,0,0,,5,,,77,127
10032,note_on,32,0,0,,10,,,81,127
10048,note_off,16,0,0,,7,,,79,127
10079,note_off,31,0,0,,0,,,60,127
10080,note_on,1,0,0,,11,,,58,127
10080,note_on,0,0,0,,11,,,82,127
10080,note_on,0,0,0,,2,,,74,127
10096,note_off,16,0,0,,10,,,81,127
10271,note_off,175,0,0,,2,,,74,127
10271,note_off,0,0,0,,11,,,82,127
10272,note_on,1,0,0,,0,,,72,127
10272,note_on,0,0,0,,10,,,81,127
10463,note_off,191,0,0,,10,,,81,127
10463,note_off,0,0,0,,0,,,72,127
10464,note_on,1,0,0,,11,,,70,127
10464,note_on,0,0,0,,7,,,79,127
10655,note_off,191,0,0,,7,,,79,127
10655,note_off,0,0,0,,11,,,70,127
10656,note_on,1,0,0,,2,,,74,127
10656,note_on,0,0,0,,5,,,77,127
10847,note_off,191,0,0,,5,,,77,127
10847,note_off,0,0,0,,2,,,74,127
10847,note_off,0,0,0,,11,,,58,127
10848,note_on,1,0,0,,0,,,60,127
10848,note_on,0,0,0,,3,,,75,127
10848,note_on,0,0,0,,0,,,72,127
11039,note_off,191,0,0,,0,,,72,127
11039,note_off,0,0,0,,3,,,75,127
11040,note_on,1,0,0,,7,,,79,127
11040,note_on,0,0,0,,11,,,70,127
11231,note_off,191,0,0,,11,,,70,127
11231,note_off,0,0,0,,7,,,79,127
11231,note_off,0,0,0,,0,,,60,127
11232,note_on,1,0,0,,5,,,53,127
11232,note_on,0,0,0,,10,,,69,127
11232,note_on,0,0,0,,5,,,77,127
11423,note_off,191,0,0,,5,,,77,127
11423,note_off,0,0,0,,10,,,69,127
11424,note_on,1,0,0,,0,,,72,127
11424,note_on,0,0,0,,3,,,75,127
11615,note_off,191,0,0,,3,,,75,127
11615,note_off,0,0,0,,0,,,72,127
11615,note_off,0,0,0,,5,,,53,127
11616,note_on,1,0,0,,11,,,58,127
11616,note_on,0,0,0,,2,,,74,127
11616,note_on,0,0,0,,11,,,70,127
11807,note_off,191,0,0,,11,,,70,127
11807,note_off,0,0,0,,2,,,74,127
11808,note_on,1,0,0,,2,,,74,127
11808,note_on,0,0,0,,5,,,77,127
11999,note_off,191,0,0,,5,,,77,127
11999,note_off,0,0,0,,2,,,74,127
11999,note_off,0,0,0,,11,,,58,127
12000,note_on,1,0,0,,3,,,51,127
12000,note_on,0,0,0,,0,,,72,127
12000,note_on,0,0,0,,3,,,75,127
12191,note_off,191,0,0,,3,,,75,127
12191,note_off,0,0,0,,0,,,72,127
12192,note_on,1,0,0,,11,,,70,127
12192,note_on,0,0,0,,2,,,74,127
12383,note_off,191,0,0,,2,,,74,127
12383,note_off,0,0,0,,11,,,70,127
12383,note_off,0,0,0,,3,,,51,127
12384,note_on,1,0,0,,5,,,41,127
12384,note_on,0,0,0,,10,,,69,127
12384,note_on,0,0,0,,0,,,72,127
12480,note_on,96,0,0,,5,,,53,127
12574,note_off,94,0,0,,5,,,41,127
12575,note_off,1,0,0,,5,,,53,127
12575,note_off,0,0,0,,10,,,69,127
12576,note_on,1,0,0,,4,,,52,127
12576,note_on,0,0,0,,5,,,65,127
12671,note_off,95,0,0,,4,,,52,127
12672,note_on,1,0,0,,5,,,53,127
12767,note_off,95,0,0,,5,,,53,127
12767,note_off,0,0,0,,5,,,65,127
12768,note_on,1,0,0,,7,,,55,127
12768,note_on,0,0,0,,4,,,64,127
12959,note_off,191,0,0,,0,,,72,127
12960,note_on,1,0,0,,11,,,70,127
13151,note_off,191,0,0,,11,,,70,127
13151,note_off,0,0,0,,4,,,64,127
13151,note_off,0,0,0,,7,,,55,127
13152,note_on,1,0,0,,5,,,41,127
13152,note_on,0,0,0,,10,,,69,127
13152,note_on,0,0,0,,0,,,72,127
13248,note_on,96,0,0,,5,,,53,127
13342,note_off,94,0,0,,5,,,41,127
13343,note_off,1,0,0,,5,,,53,127
13343,note_off,0,0,0,,10,,,69,127
13344,note_on,1,0,0,,4,,,52,127
13344,note_on,0,0,0,,5,,,65,127
13439,note_off,95,0,0,,4,,,52,127
13440,note_on,1,0,0,,5,,,53,127
13535,note_off,95,0,0,,5,,,53,127
13535,note_off,0,0,0,,5,,,65,127
13536,note_on,1,0,0,,7,,,55,127
13536,note_on,0,0,0,,4,,,64,127
13727,note_off,191,0,0,,0,,,72,127
13728,note_on,1,0,0,,11,,,70,127
13919,note_off,191,0,0,,11,,,70,127
13919,note_off,0,0,0,,4,,,64,127
13919,note_off,0,0,0,,7,,,55,127
13920,note_on,1,0,0,,10,,,45,127
13920,note_on,0,0,0,,0,,,72,127
14016,note_on,96,0,0,,10,,,57,127
14080,note_off,64,0,0,,10,,,45,127
14111,note_off,31,0,0,,10,,,57,127
14112,note_on,1,0,0,,7,,,55,127
14112,note_on,0,0,0,,10,,,69,127
14207,note_off,95,0,0,,7,,,55,127
14208,note_on,1,0,0,,10,,,57,127
14303,note_off,95,0,0,,10,,,57,127
14303,note_off,0,0,0,,10,,,69,127
14304,note_on,1,0,0,,11,,,58,127
14304,note_on,0,0,0,,5,,,65,127
14495,note_off,191,0,0,,0,,,72,127
14496,note_on,1,0,0,,2,,,74,127
14687,note_off,191,0,0,,2,,,74,127
14687,note_off,0,0,0,,5,,,65,127
14687,note_off,0,0,0,,11,,,58,127
14688,note_on,1,0,0,,10,,,45,127
14688,note_on,0,0,0,,0,,,72,127
14784,note_on,96,0,0,,10,,,57,127
14848,note_off,64,0,0,,10,,,45,127
14879,note_off,31,0,0,,10,,,57,127
14880,note_on,1,0,0,,7,,,55,127
14880,note_on,0,0,0,,10,,,69,127
14975,note_off,95,0,0,,7,,,55,127
14976,note_on,1,0,0,,10,,,57,127
15071,note_off,95,0,0,,10,,,57,127
15071,note_off,0,0,0,,10,,,69,127
15072,note_on,1,0,0,,11,,,58,127
15072,note_on,0,0,0,,5,,,65,127
15263,note_off,191,0,0,,0,,,72,127
15264,note_on,1,0,0,,2,,,74,127
15455,note_off,191,0,0,,2,,,74,127
15455,note_off,0,0,0,,5,,,65,127
15455,note_off,0,0,0,,11,,,58,127
15456,note_on,1,0,0,,0,,,48,127
15456,note_on,0,0,0,,3,,,75,127
15552,note_on,96,0,0,,0,,,60,127
15596,note_off,44,0,0,,0,,,48,127
15647,note_off,51,0,0,,0,,,60,127
15648,note_on,1,0,0,,12,,,59,127
15648,note_on,0,0,0,,0,,,72,127
15743,note_off,95,0,0,,12,,,59,127
15744,note_on,1,0,0,,0,,,60,127
15839,note_off,95,0,0,,0,,,60,127
15839,note_off,0,0,0,,0,,,72,127
15840,note_on,1,0,0,,2,,,62,127
15840,note_on,0,0,0,,12,,,71,127
16031,note_off,191,0,0,,3,,,75,127
16032,note_on,1,0,0,,5,,,77,127
16223,note_off,191,0,0,,5,,,77,127
16223,note_off,0,0,0,,12,,,71,127
16223,note_off,0,0,0,,2,,,62,127
16224,note_on,1,0,0,,0,,,48,127
16224,note_on,0,0,0,,3,,,75,127
16320,note_on,96,0,0,,0,,,60,127
16364,note_off,44,0,0,,0,,,48,127
16415,note_off,51,0,0,,0,,,60,127
16416,note_on,1,0,0,,12,,,59,127
16416,note_on,0,0,0,,0,,,72,127
16511,note_off,95,0,0,,12,,,59,127
16512,note_on,1,0,0,,0,,,60,127
16607,note_off,95,0,0,,0,,,60,127
16607,note_off,0,0,0,,0,,,72,127
16608,note_on,1,0,0,,2,,,62,127
16608,note_on,0,0,0,,12,,,71,127
16799,note_off,191,0,0,,3,,,75,127
16800,note_on,1,0,0,,5,,,77,127
16991,note_off,191,0,0,,5,,,77,127
16991,note_off,0,0,0,,12,,,71,127
16991,note_off,0,0,0,,2,,,62,127
16992,note_on,1,0,0,,0,,,48,127
16992,note_on,0,0,0,,3,,,75,127
16992,note_on,0,0,0,,0,,,72,127
17183,note_off,191,0,0,,0,,,72,127
17183,note_off,0,0,0,,3,,,75,127
17184,note_on,1,0,0,,7,,,79,127
17184,note_on,0,0,0,,11,,,70,127
17375,note_off,191,0,0,,11,,,70,127
17375,note_off,0,0,0,,7,,,79,127
17376,note_on,1,0,0,,5,,,77,127
17376,note_on,0,0,0,,8,,,68,127
17567,note_off,191,0,0,,8,,,68,127
17567,note_off,0,0,0,,5,,,77,127
17568,note_on,1,0,0,,7,,,67,127
17568,note_on,0,0,0,,3,,,75,127
17759,note_off,191,0,0,,3,,,75,127
17759,note_off,0,0,0,,7,,,67,127
17759,note_off,0,0,0,,0,,,48,127
17760,note_on,1,0,0,,0,,,48,127
17760,note_on,0,0,0,,5,,,77,127
17760,note_on,0,0,0,,8,,,68,127
17951,note_off,191,0,0,,8,,,68,127
17951,note_off,0,0,0,,5,,,77,127
17952,note_on,1,0,0,,0,,,72,127
17952,note_on,0,0,0,,8,,,80,127
18143,note_off,191,0,0,,8,,,80,127
18143,note_off,0,0,0,,0,,,72,127
18144,note_on,1,0,0,,7,,,79,127
18144,note_on,0,0,0,,11,,,70,127
18335,note_off,191,0,0,,11,,,70,127
18335,note_off,0,0,0,,7,,,79,127
18336,note_on,1,0,0,,5,,,77,127
18336,note_on,0,0,0,,8,,,68,127
18527,note_off,191,0,0,,8,,,68,127
18527,note_off,0,0,0,,5,,,77,127
18527,note_off,0,0,0,,0,,,48,127
18528,note_on,1,0,0,,0,,,48,127
18528,note_on,0,0,0,,3,,,75,127
18528,note_on,0,0,0,,7,,,67,127
18719,note_off,191,0,0,,7,,,67,127
18719,note_off,0,0,0,,3,,,75,127
18720,note_on,1,0,0,,1,,,73,127
18720,note_on,0,0,0,,11,,,70,127
18911,note_off,191,0,0,,11,,,70,127
18911,note_off,0,0,0,,1,,,73,127
18912,note_on,1,0,0,,0,,,72,127
18912,note_on,0,0,0,,8,,,68,127
19103,note_off,191,0,0,,8,,,68,127
19103,note_off,0,0,0,,0,,,72,127
19104,note_on,1,0,0,,11,,,70,127
19104,note_on,0,0,0,,7,,,67,127
19295,note_off,191,0,0,,7,,,67,127
19295,note_off,0,0,0,,11,,,70,127
19295,note_off,0,0,0,,0,,,48,127
19296,note_on,1,0,0,,0,,,48,127
19296,note_on,0,0,0,,0,,,72,127
19296,note_on,0,0,0,,8,,,68,127
19487,note_off,191,0,0,,8,,,68,127
19487,note_off,0,0,0,,0,,,72,127
19488,note_on,1,0,0,,0,,,72,127
19488,note_on,0,0,0,,8,,,80,127
19679,note_off,191,0,0,,8,,,80,127
19679,note_off,0,0,0,,0,,,72,127
19680,note_on,1,0,0,,7,,,79,127
19680,note_on,0,0,0,,11,,,70,127
19871,note_off,191,0,0,,11,,,70,127
19871,note_off,0,0,0,,7,,,79,127
19872,note_on,1,0,0,,8,,,68,127
19872,note_on,0,0,0,,5,,,77,127
20063,note_off,191,0,0,,5,,,77,127
20063,note_off,0,0,0,,8,,,68,127
20063,note_off,0,0,0,,0,,,48,127
20064,note_on,1,0,0,,0,,,48,127
20064,note_on,0,0,0,,7,,,67,127
20064,note_on,0,0,0,,3,,,75,127
20255,note_off,191,0,0,,3,,,75,127
20255,note_off,0,0,0,,7,,,67,127
20256,note_on,1,0,0,,1,,,73,127
20256,note_on,0,0,0,,11,,,70,127
20447,note_off,191,0,0,,11,,,70,127
20447,note_off,0,0,0,,1,,,73,127
20448,note_on,1,0,0,,8,,,68,127
20448,note_on,0,0,0,,0,,,72,127
20639,note_off,191,0,0,,0,,,72,127
20639,note_off,0,0,0,,8,,,68,127
20640,note_on,1,0,0,,7,,,67,127
20640,note_on,0,0,0,,11,,,70,127
20831,note_off,191,0,0,,11,,,70,127
20831,note_off,0,0,0,,7,,,67,127
20831,note_off,0,0,0,,0,,,48,127
20832,note_on,1,0,0,,0,,,48,127
20832,note_on,0,0,0,,8,,,68,127
20832,note_on,0,0,0,,0,,,72,127
21023,note_off,191,0,0,,0,,,72,127
21023,note_off,0,0,0,,8,,,68,127
21024,note_on,1,0,0,,5,,,65,127
21024,note_on,0,0,0,,8,,,68,127
21215,note_off,191,0,0,,8,,,68,127
21215,note_off,0,0,0,,5,,,65,127
21216,note_on,1,0,0,,7,,,67,127
21216,note_on,0,0,0,,3,,,63,127
21407,note_off,191,0,0,,3,,,63,127
21407,note_off,0,0,0,,7,,,67,127
21408,note_on,1,0,0,,1,,,61,127
21408,note_on,0,0,0,,5,,,65,127
21599,note_off,191,0,0,,5,,,65,127
21599,note_off,0,0,0,,1,,,61,127
21599,note_off,0,0,0,,0,,,48,127
21600,note_on,1,0,0,,0,,,60,127
21600,note_on,0,0,0,,4,,,64,127
21792,note_on,192,0,0,,0,,,84,127
21983,note_off,191,0,0,,0,,,84,127
21984,note_on,1,0,0,,11,,,82,127
22175,note_off,191,0,0,,11,,,82,127
22175,note_off,0,0,0,,4,,,64,127
22176,note_on,1,0,0,,8,,,80,127
22176,note_on,0,0,0,,5,,,65,127
22367,note_off,191,0,0,,5,,,65,127
22367,note_off,0,0,0,,8,,,80,127
22367,note_off,0,0,0,,0,,,60,127
22368,note_on,1,0,0,,8,,,80,127
22368,note_on,0,0,0,,0,,,60,127
22368,note_on,0,0,0,,7,,,67,127
22416,note_on,48,0,0,,7,,,79,127
22432,note_off,16,0,0,,8,,,80,127
22464,note_on,32,0,0,,8,,,80,127
22480,note_off,16,0,0,,7,,,79,127
22512,note_on,32,0,0,,7,,,79,127
22528,note_off,16,0,0,,8,,,80,127
22559,note_off,31,0,0,,7,,,67,127
22560,note_on,1,0,0,,5,,,77,127
22560,note_on,0,0,0,,8,,,68,127
22560,note_on,0,0,0,,5,,,65,127
22576,note_off,16,0,0,,7,,,79,127
22751,note_off,175,0,0,,5,,,65,127
22751,note_off,0,0,0,,8,,,68,127
22751,note_off,0,0,0,,5,,,77,127
22752,note_on,1,0,0,,4,,,76,127
22752,note_on,0,0,0,,7,,,67,127
22752,note_on,0,0,0,,11,,,70,127
22943,note_off,191,0,0,,11,,,70,127
22943,note_off,0,0,0,,7,,,67,127
22943,note_off,0,0,0,,4,,,76,127
22944,note_on,1,0,0,,5,,,77,127
22944,note_on,0,0,0,,8,,,68,127
23135,note_off,191,0,0,,8,,,68,127
23135,note_off,0,0,0,,5,,,77,127
23135,note_off,0,0,0,,0,,,60,127
23136,note_on,1,0,0,,0,,,72,127
23136,note_on,0,0,0,,4,,,64,127
23136,note_on,0,0,0,,0,,,60,127
23136,note_on,0,0,0,,7,,,67,127
23327,note_off,191,0,0,,0,,,72,127
23328,note_on,1,0,0,,0,,,84,127
23519,note_off,191,0,0,,0,,,84,127
23520,note_on,1,0,0,,11,,,82,127
23711,note_off,191,0,0,,11,,,82,127
23711,note_off,0,0,0,,7,,,67,127
23711,note_off,0,0,0,,4,,,64,127
23712,note_on,1,0,0,,8,,,80,127
23712,note_on,0,0,0,,5,,,65,127
23712,note_on,0,0,0,,8,,,68,127
23903,note_off,191,0,0,,8,,,68,127
23903,note_off,0,0,0,,5,,,65,127
23903,note_off,0,0,0,,8,,,80,127
23903,note_off,0,0,0,,0,,,60,127
23904,note_on,1,0,0,,8,,,80,127
23904,note_on,0,0,0,,11,,,70,127
23904,note_on,0,0,0,,0,,,60,127
23904,note_on,0,0,0,,7,,,67,127
23952,note_on,48,0,0,,7,,,79,127
23968,note_off,16,0,0,,8,,,80,127
24000,note_on,32,0,0,,8,,,80,127
24016,note_off,16,0,0,,7,,,79,127
24048,note_on,32,0,0,,7,,,79,127
24064,note_off,16,0,0,,8,,,80,127
24095,note_off,31,0,0,,7,,,67,127
24095,note_off,0,0,0,,11,,,70,127
24096,note_on,1,0,0,,5,,,77,127
24096,note_on,0,0,0,,8,,,68,127
24096,note_on,0,0,0,,5,,,65,127
24112,note_off,16,0,0,,7,,,79,127
24287,note_off,175,0,0,,5,,,65,127
24287,note_off,0,0,0,,8,,,68,127
24287,note_off,0,0,0,,5,,,77,127
24288,note_on,1,0,0,,4,,,76,127
24288,note_on,0,0,0,,7,,,67,127
24288,note_on,0,0,0,,11,,,70,127
24479,note_off,191,0,0,,11,,,70,127
24479,note_off,0,0,0,,7,,,67,127
24479,note_off,0,0,0,,4,,,76,127
24480,note_on,1,0,0,,5,,,77,127
24480,note_on,0,0,0,,5,,,65,127
24480,note_on,0,0,0,,8,,,68,127
24671,note_off,191,0,0,,8,,,68,127
24671,note_off,0,0,0,,5,,,65,127
24671,note_off,0,0,0,,5,,,77,127
24671,note_off,0,0,0,,0,,,60,127
24672,note_on,1,0,0,,0,,,72,127
24672,note_on,0,0,0,,0,,,60,127
24672,note_on,0,0,0,,4,,,64,127
24864,note_on,192,0,0,,0,,,84,127
25055,note_off,191,0,0,,0,,,84,127
25055,note_off,0,0,0,,0,,,72,127
25056,note_on,1,0,0,,11,,,82,127
25247,note_off,191,0,0,,11,,,82,127
25247,note_off,0,0,0,,4,,,64,127
25247,note_off,0,0,0,,0,,,60,127
25248,note_on,1,0,0,,10,,,81,127
25248,note_on,0,0,0,,3,,,63,127
25248,note_on,0,0,0,,6,,,66,127
25439,note_off,191,0,0,,6,,,66,127
25439,note_off,0,0,0,,3,,,63,127
25439,note_off,0,0,0,,10,,,81,127
25440,note_on,1,0,0,,11,,,82,127
25440,note_on,0,0,0,,5,,,65,127
25440,note_on,0,0,0,,1,,,61,127
25631,note_off,191,0,0,,1,,,61,127
25631,note_off,0,0,0,,5,,,65,127
25632,note_on,1,0,0,,3,,,63,127
25632,note_on,0,0,0,,6,,,66,127
25823,note_off,191,0,0,,6,,,66,127
25823,note_off,0,0,0,,3,,,63,127
25824,note_on,1,0,0,,1,,,61,127
25824,note_on,0,0,0,,5,,,65,127
26015,note_off,191,0,0,,5,,,65,127
26015,note_off,0,0,0,,1,,,61,127
26015,note_off,0,0,0,,11,,,82,127
26016,note_on,1,0,0,,11,,,82,127
26016,note_on,0,0,0,,0,,,60,127
26016,note_on,0,0,0,,3,,,63,127
26064,note_on,48,0,0,,10,,,81,127
26080,note_off,16,0,0,,11,,,82,127
26112,note_on,32,0,0,,11,,,82,127
26128,note_off,16,0,0,,10,,,81,127
26160,note_on,32,0,0,,10,,,81,127
26176,note_off,16,0,0,,11,,,82,127
26207,note_off,31,0,0,,3,,,63,127
26207,note_off,0,0,0,,0,,,60,127
26208,note_on,1,0,0,,11,,,82,127
26208,note_on,0,0,0,,1,,,61,127
26208,note_on,0,0,0,,5,,,65,127
26224,note_off,16,0,0,,10,,,81,127
26399,note_off,175,0,0,,5,,,65,127
26399,note_off,0,0,0,,1,,,61,127
26400,note_on,1,0,0,,3,,,63,127
26400,note_on,0,0,0,,6,,,66,127
26591,note_off,191,0,0,,6,,,66,127
26591,note_off,0,0,0,,3,,,63,127
26592,note_on,1,0,0,,1,,,61,127
26592,note_on,0,0,0,,5,,,65,127
26783,note_off,191,0,0,,5,,,65,127
26783,note_off,0,0,0,,1,,,61,127
26783,note_off,0,0,0,,11,,,82,127
26784,note_on,1,0,0,,11,,,82,127
26784,note_on,0,0,0,,0,,,60,127
26784,note_on,0,0,0,,3,,,63,127
26832,note_on,48,0,0,,10,,,81,127
26848,note_off,16,0,0,,11,,,82,127
26880,note_on,32,0,0,,11,,,82,127
26896,note_off,16,0,0,,10,,,81,127
26928,note_on,32,0,0,,10,,,81,127
26944,note_off,16,0,0,,11,,,82,127
26975,note_off,31,0,0,,3,,,63,127
26975,note_off,0,0,0,,0,,,60,127
26976,note_on,1,0,0,,11,,,82,127
26976,note_on,0,0,0,,1,,,61,127
26976,note_on,0,0,0,,5,,,65,127
26992,note_off,16,0,0,,10,,,81,127
27167,note_off,175,0,0,,5,,,65,127
27167,note_off,0,0,0,,1,,,61,127
27167,note_off,0,0,0,,11,,,82,127
27168,note_on,1,0,0,,0,,,84,127
27168,note_on,0,0,0,,3,,,63,127
27168,note_on,0,0,0,,0,,,60,127
27359,note_off,191,0,0,,0,,,60,127
27359,note_off,0,0,0,,3,,,63,127
27359,note_off,0,0,0,,0,,,84,127
27360,note_on,1,0,0,,11,,,82,127
27360,note_on,0,0,0,,1,,,61,127
27360,note_on,0,0,0,,5,,,65,127
27551,note_off,191,0,0,,5,,,65,127
27551,note_off,0,0,0,,1,,,61,127
27551,note_off,0,0,0,,11,,,82,127
27552,note_on,1,0,0,,10,,,81,127
27552,note_on,0,0,0,,3,,,63,127
27552,note_on,0,0,0,,6,,,66,127
27743,note_off,191,0,0,,6,,,66,127
27743,note_off,0,0,0,,3,,,63,127
27743,note_off,0,0,0,,10,,,81,127
27744,note_on,1,0,0,,11,,,82,127
27744,note_on,0,0,0,,1,,,61,127
27744,note_on,0,0,0,,5,,,65,127
27935,note_off,191,0,0,,11,,,82,127
27936,note_on,1,0,0,,8,,,80,127
28127,note_off,191,0,0,,8,,,80,127
28127,note_off,0,0,0,,5,,,65,127
28127,note_off,0,0,0,,1,,,61,127
28128,note_on,1,0,0,,7,,,79,127
28128,note_on,0,0,0,,4,,,64,127
28128,note_on,0,0,0,,7,,,67,127
28319,note_off,191,0,0,,7,,,67,127
28319,note_off,0,0,0,,4,,,64,127
28319,note_off,0,0,0,,7,,,79,127
28320,note_on,1,0,0,,5,,,77,127
28320,note_on,0,0,0,,5,,,65,127
28320,note_on,0,0,0,,8,,,68,127
28511,note_off,191,0,0,,8,,,68,127
28511,note_off,0,0,0,,5,,,65,127
28511,note_off,0,0,0,,5,,,77,127
28512,note_on,1,0,0,,4,,,76,127
28512,note_on,0,0,0,,7,,,67,127
28512,note_on,0,0,0,,11,,,70,127
28512,note_on,0,0,0,,0,,,60,127
28703,note_off,191,0,0,,11,,,70,127
28703,note_off,0,0,0,,7,,,67,127
28703,note_off,0,0,0,,4,,,76,127
28704,note_on,1,0,0,,5,,,77,127
28704,note_on,0,0,0,,8,,,68,127
28704,note_on,0,0,0,,5,,,65,127
28895,note_off,191,0,0,,5,,,65,127
28895,note_off,0,0,0,,8,,,68,127
28895,note_off,0,0,0,,5,,,77,127
28896,note_on,1,0,0,,7,,,79,127
28896,note_on,0,0,0,,4,,,64,127
28896,note_on,0,0,0,,7,,,67,127
29087,note_off,191,0,0,,7,,,67,127
29087,note_off,0,0,0,,4,,,64,127
29087,note_off,0,0,0,,7,,,79,127
29088,note_on,1,0,0,,8,,,80,127
29088,note_on,0,0,0,,2,,,62,127
29088,note_on,0,0,0,,5,,,65,127
29279,note_off,191,0,0,,5,,,65,127
29279,note_off,0,0,0,,2,,,62,127
29279,note_off,0,0,0,,8,,,80,127
29279,note_off,0,0,0,,0,,,60,127
29280,note_on,1,0,0,,11,,,82,127
29280,note_on,0,0,0,,0,,,60,127
29280,note_on,0,0,0,,4,,,64,127
29471,note_off,191,0,0,,4,,,64,127
29471,note_off,0,0,0,,11,,,82,127
29472,note_on,1,0,0,,8,,,80,127
29472,note_on,0,0,0,,5,,,65,127
29663,note_off,191,0,0,,5,,,65,127
29663,note_off,0,0,0,,8,,,80,127
29664,note_on,1,0,0,,7,,,79,127
29664,note_on,0,0,0,,4,,,64,127
29664,note_on,0,0,0,,7,,,67,127
29855,note_off,191,0,0,,7,,,67,127
29855,note_off,0,0,0,,4,,,64,127
29855,note_off,0,0,0,,7,,,79,127
29856,note_on,1,0,0,,5,,,77,127
29856,note_on,0,0,0,,5,,,65,127
29856,note_on,0,0,0,,8,,,68,127
30047,note_off,191,0,0,,8,,,68,127
30047,note_off,0,0,0,,5,,,65,127
30047,note_off,0,0,0,,5,,,77,127
30047,note_off,0,0,0,,0,,,60,127
30048,note_on,1,0,0,,4,,,76,127
30048,note_on,0,0,0,,7,,,67,127
30048,note_on,0,0,0,,11,,,70,127
30048,note_on,0,0,0,,0,,,60,127
30239,note_off,191,0,0,,11,,,70,127
30239,note_off,0,0,0,,7,,,67,127
30239,note_off,0,0,0,,4,,,76,127
30240,note_on,1,0,0,,5,,,77,127
30240,note_on,0,0,0,,5,,,65,127
30240,note_on,0,0,0,,8,,,68,127
30431,note_off,191,0,0,,8,,,68,127
30431,note_off,0,0,0,,5,,,65,127
30431,note_off,0,0,0,,5,,,77,127
30432,note_on,1,0,0,,7,,,79,127
30432,note_on,0,0,0,,4,,,64,127
30432,note_on,0,0,0,,7,,,67,127
30623,note_off,191,0,0,,7,,,67,127
30623,note_off,0,0,0,,4,,,64,127
30623,note_off,0,0,0,,7,,,79,127
30624,note_on,1,0,0,,8,,,80,127
30624,note_on,0,0,0,,2,,,62,127
30624,note_on,0,0,0,,5,,,65,127
30815,note_off,191,0,0,,5,,,65,127
30815,note_off,0,0,0,,2,,,62,127
30815,note_off,0,0,0,,8,,,80,127
30815,note_off,0,0,0,,0,,,60,127
30816,note_on,1,0,0,,11,,,82,127
30816,note_on,0,0,0,,0,,,60,127
30816,note_on,0,0,0,,4,,,64,127
31007,note_off,191,0,0,,4,,,64,127
31007,note_off,0,0,0,,11,,,82,127
31008,note_on,1,0,0,,8,,,80,127
31008,note_on,0,0,0,,5,,,65,127
31199,note_off,191,0,0,,5,,,65,127
31199,note_off,0,0,0,,8,,,80,127
31200,note_on,1,0,0,,7,,,79,127
31200,note_on,0,0,0,,7,,,67,127
31295,note_off,95,0,0,,7,,,79,127
31296,note_on,1,0,0,,5,,,77,127
31391,note_off,95,0,0,,5,,,77,127
31392,note_on,1,0,0,,4,,,76,127
31487,note_off,95,0,0,,4,,,76,127
31488,note_on,1,0,0,,2,,,74,127
31583,note_off,95,0,0,,2,,,74,127
31583,note_off,0,0,0,,0,,,60,127
31584,note_on,1,0,0,,0,,,72,127
31679,note_off,95,0,0,,7,,,67,127
31680,note_on,1,0,0,,0,,,60,127
31775,note_off,95,0,0,,0,,,60,127
31776,note_on,1,0,0,,2,,,62,127
31871,note_off,95,0,0,,2,,,62,127
31872,note_on,1,0,0,,4,,,64,127
31967,note_off,95,0,0,,4,,,64,127
31968,note_on,1,0,0,,5,,,65,127
32063,note_off,95,0,0,,5,,,65,127
32064,note_on,1,0,0,,7,,,67,127
32159,note_off,95,0,0,,7,,,67,127
32160,note_on,1,0,0,,10,,,69,127
32255,note_off,95,0,0,,10,,,69,127
32256,note_on,1,0,0,,12,,,71,127
32351,note_off,95,0,0,,12,,,71,127
32351,note_off,0,0,0,,0,,,72,127
32352,note_on,1,0,0,,0,,,60,127
32352,note_on,0,0,0,,0,,,72,127
32543,note_off,191,0,0,,0,,,72,127
32544,note_on,1,0,0,,11,,,70,127
32735,note_off,191,0,0,,11,,,70,127
32735,note_off,0,0,0,,0,,,60,127
32736,note_on,1,0,0,,4,,,64,127
32736,note_on,0,0,0,,0,,,72,127
32784,note_on,48,0,0,,11,,,70,127
32800,note_off,16,0,0,,0,,,72,127
32832,note_on,32,0,0,,0,,,72,127
32848,note_off,16,0,0,,11,,,70,127
32880,note_on,32,0,0,,11,,,70,127
32896,note_off,16,0,0,,0,,,72,127
32927,note_off,31,0,0,,4,,,64,127
32928,note_on,1,0,0,,5,,,65,127
32928,note_on,0,0,0,,0,,,72,127
32944,note_off,16,0,0,,11,,,70,127
32976,note_on,32,0,0,,11,,,70,127
32992,note_off,16,0,0,,0,,,72,127
33024,note_on,32,0,0,,10,,,69,127
33040,note_off,16,0,0,,11,,,70,127
33072,note_on,32,0,0,,7,,,67,127
33088,note_off,16,0,0,,10,,,69,127
33119,note_off,31,0,0,,5,,,65,127
33120,note_on,1,0,0,,11,,,58,127
33120,note_on,0,0,0,,10,,,69,127
33136,note_off,16,0,0,,7,,,67,127
33312,note_on,176,0,0,,10,,,81,127
33500,note_off,188,0,0,,10,,,69,127
33503,note_off,3,0,0,,10,,,81,127
33504,note_on,1,0,0,,7,,,79,127
33599,note_off,95,0,0,,7,,,79,127
33600,note_on,1,0,0,,5,,,77,127
33695,note_off,95,0,0,,5,,,77,127
33696,note_on,1,0,0,,4,,,76,127
33791,note_off,95,0,0,,4,,,76,127
33792,note_on,1,0,0,,2,,,74,127
33887,note_off,95,0,0,,2,,,74,127
33887,note_off,0,0,0,,11,,,58,127
33888,note_on,1,0,0,,0,,,60,127
33888,note_on,0,0,0,,5,,,65,127
33888,note_on,0,0,0,,10,,,69,127
33888,note_on,0,0,0,,0,,,72,127
34175,note_off,287,0,0,,0,,,72,127
34176,note_on,1,0,0,,2,,,74,127
34224,note_on,48,0,0,,4,,,76,127
34240,note_off,16,0,0,,2,,,74,127
34271,note_off,31,0,0,,10,,,69,127
34271,note_off,0,0,0,,5,,,65,127
34271,note_off,0,0,0,,0,,,60,127
34272,note_on,1,0,0,,7,,,67,127
34272,note_on,0,0,0,,11,,,70,127
34272,note_on,0,0,0,,0,,,60,127
34272,note_on,0,0,0,,5,,,77,127
34288,note_off,16,0,0,,4,,,76,127
34320,note_on,32,0,0,,4,,,76,127
34336,note_off,16,0,0,,5,,,77,127
34368,note_on,32,0,0,,5,,,77,127
34384,note_off,16,0,0,,4,,,76,127
34416,note_on,32,0,0,,4,,,76,127
34432,note_off,16,0,0,,5,,,77,127
34464,note_on,32,0,0,,5,,,77,127
34480,note_off,16,0,0,,4,,,76,127
34512,note_on,32,0,0,,4,,,76,127
34528,note_off,16,0,0,,5,,,77,127
34560,note_on,32,0,0,,2,,,74,127
34576,note_off,16,0,0,,4,,,76,127
34608,note_on,32,0,0,,4,,,76,127
34624,note_off,16,0,0,,2,,,74,127
34655,note_off,31,0,0,,0,,,60,127
34655,note_off,0,0,0,,11,,,70,127
34655,note_off,0,0,0,,7,,,67,127
34656,note_on,1,0,0,,5,,,65,127
34656,note_on,0,0,0,,5,,,77,127
34672,note_off,16,0,0,,4,,,76,127
34847,note_off,175,0,0,,5,,,77,127
34848,note_on,1,0,0,,10,,,81,127
35039,note_off,191,0,0,,10,,,81,127
35039,note_off,0,0,0,,5,,,65,127
35040,note_on,1,0,0,,10,,,69,127
35040,note_on,0,0,0,,4,,,76,127
35231,note_off,191,0,0,,4,,,76,127
35232,note_on,1,0,0,,5,,,77,127
35423,note_off,191,0,0,,5,,,77,127
35423,note_off,0,0,0,,10,,,69,127
35424,note_on,1,0,0,,11,,,70,127
35424,note_on,0,0,0,,1,,,73,127
35615,note_off,191,0,0,,1,,,73,127
35616,note_on,1,0,0,,2,,,74,127
35807,note_off,191,0,0,,2,,,74,127
35807,note_off,0,0,0,,11,,,70,127
35808,note_on,1,0,0,,10,,,69,127
35808,note_on,0,0,0,,12,,,71,127
35999,note_off,191,0,0,,12,,,71,127
36000,note_on,1,0,0,,0,,,72,127
36191,note_off,191,0,0,,0,,,72,127
36191,note_off,0,0,0,,10,,,69,127
36192,note_on,1,0,0,,7,,,67,127
36192,note_on,0,0,0,,10,,,69,127
36383,note_off,191,0,0,,10,,,69,127
36384,note_on,1,0,0,,11,,,70,127
36575,note_off,191,0,0,,11,,,70,127
36575,note_off,0,0,0,,7,,,67,127
36576,note_on,1,0,0,,5,,,65,127
36576,note_on,0,0,0,,8,,,68,127
36767,note_off,191,0,0,,8,,,68,127
36768,note_on,1,0,0,,10,,,69,127
36959,note_off,191,0,0,,10,,,69,127
36959,note_off,0,0,0,,5,,,65,127
36960,note_on,1,0,0,,11,,,58,127
36960,note_on,0,0,0,,6,,,66,127
37151,note_off,191,0,0,,6,,,66,127
37152,note_on,1,0,0,,7,,,67,127
37343,note_off,191,0,0,,7,,,67,127
37343,note_off,0,0,0,,11,,,58,127
37344,note_on,1,0,0,,2,,,62,127
37344,note_on,0,0,0,,4,,,64,127
37535,note_off,191,0,0,,4,,,64,127
37536,note_on,1,0,0,,5,,,65,127
37727,note_off,191,0,0,,5,,,65,127
37727,note_off,0,0,0,,2,,,62,127
37728,note_on,1,0,0,,0,,,60,127
37728,note_on,0,0,0,,5,,,65,127
37823,note_off,95,0,0,,5,,,65,127
37824,note_on,1,0,0,,4,,,64,127
37919,note_off,95,0,0,,4,,,64,127
37920,note_on,1,0,0,,2,,,62,127
38015,note_off,95,0,0,,2,,,62,127
38015,note_off,0,0,0,,0,,,60,127
38016,note_on,1,0,0,,0,,,60,127
38111,note_off,95,0,0,,0,,,60,127
38112,note_on,1,0,0,,10,,,57,127
38112,note_on,0,0,0,,0,,,72,127
38303,note_off,191,0,0,,10,,,57,127
38304,note_on,1,0,0,,11,,,58,127
38495,note_off,191,0,0,,11,,,58,127
38496,note_on,1,0,0,,0,,,60,127
38687,note_off,191,0,0,,0,,,72,127
38688,note_on,1,0,0,,11,,,70,127
38688,note_on,0,0,0,,7,,,67,127
38879,note_off,191,0,0,,7,,,67,127
38879,note_off,0,0,0,,11,,,70,127
38880,note_on,1,0,0,,0,,,48,127
38880,note_on,0,0,0,,5,,,65,127
38880,note_on,0,0,0,,10,,,69,127
39071,note_off,191,0,0,,10,,,69,127
39071,note_off,0,0,0,,5,,,65,127
39072,note_on,1,0,0,,7,,,67,127
39072,note_on,0,0,0,,4,,,64,127
39263,note_off,191,0,0,,4,,,64,127
39263,note_off,0,0,0,,7,,,67,127
39263,note_off,0,0,0,,0,,,48,127
39263,note_off,0,0,0,,0,,,60,127
39264,note_on,1,0,0,,5,,,53,127
39264,note_on,0,0,0,,10,,,69,127
39456,note_on,192,0,0,,10,,,81,127
39644,note_off,188,0,0,,10,,,69,127
39647,note_off,3,0,0,,10,,,81,127
39647,note_off,0,0,0,,5,,,53,127
39648,note_on,1,0,0,,0,,,72,127
39648,note_on,0,0,0,,10,,,69,127
39648,note_on,0,0,0,,4,,,76,127
39839,note_off,191,0,0,,4,,,76,127
39840,note_on,1,0,0,,5,,,77,127
40031,note_off,191,0,0,,10,,,69,127
40031,note_off,0,0,0,,0,,,72,127
40032,note_on,1,0,0,,11,,,70,127
40127,note_off,95,0,0,,5,,,77,127
40128,note_on,1,0,0,,1,,,73,127
40223,note_off,95,0,0,,1,,,73,127
40224,note_on,1,0,0,,2,,,74,127
40415,note_off,191,0,0,,11,,,70,127
40416,note_on,1,0,0,,10,,,69,127
40511,note_off,95,0,0,,2,,,74,127
40512,note_on,1,0,0,,12,,,71,127
40607,note_off,95,0,0,,12,,,71,127
40608,note_on,1,0,0,,0,,,72,127
40799,note_off,191,0,0,,10,,,69,127
40800,note_on,1,0,0,,7,,,67,127
40895,note_off,95,0,0,,0,,,72,127
40896,note_on,1,0,0,,10,,,69,127
40991,note_off,95,0,0,,10,,,69,127
40992,note_on,1,0,0,,11,,,70,127
41183,note_off,191,0,0,,7,,,67,127
41184,note_on,1,0,0,,5,,,65,127
41279,note_off,95,0,0,,11,,,70,127
41280,note_on,1,0,0,,8,,,68,127
41375,note_off,95,0,0,,8,,,68,127
41376,note_on,1,0,0,,10,,,69,127
41567,note_off,191,0,0,,5,,,65,127
41568,note_on,1,0,0,,11,,,58,127
41663,note_off,95,0,0,,10,,,69,127
41664,note_on,1,0,0,,6,,,66,127
41759,note_off,95,0,0,,6,,,66,127
41760,note_on,1,0,0,,7,,,67,127
41951,note_off,191,0,0,,11,,,58,127
41952,note_on,1,0,0,,2,,,62,127
42047,note_off,95,0,0,,7,,,67,127
42048,note_on,1,0,0,,4,,,64,127
42143,note_off,95,0,0,,4,,,64,127
42144,note_on,1,0,0,,5,,,65,127
42335,note_off,191,0,0,,2,,,62,127
42336,note_on,1,0,0,,0,,,60,127
42431,note_off,95,0,0,,5,,,65,127
42432,note_on,1,0,0,,4,,,64,127
42527,note_off,95,0,0,,4,,,64,127
42528,note_on,1,0,0,,2,,,62,127
42623,note_off,95,0,0,,2,,,62,127
42623,note_off,0,0,0,,0,,,60,127
42624,note_on,1,0,0,,0,,,60,127
42719,note_off,95,0,0,,0,,,60,127
42720,note_on,1,0,0,,10,,,57,127
42720,note_on,0,0,0,,5,,,65,127
42720,note_on,0,0,0,,0,,,72,127
42911,note_off,191,0,0,,0,,,72,127
42911,note_off,0,0,0,,10,,,57,127
42912,note_on,1,0,0,,11,,,58,127
42912,note_on,0,0,0,,11,,,70,127
43103,note_off,191,0,0,,11,,,70,127
43103,note_off,0,0,0,,11,,,58,127
43103,note_off,0,0,0,,5,,,65,127
43104,note_on,1,0,0,,0,,,60,127
43104,note_on,0,0,0,,10,,,69,127
43104,note_on,0,0,0,,5,,,65,127
43487,note_off,383,0,0,,5,,,65,127
43488,note_on,1,0,0,,0,,,48,127
43488,note_on,0,0,0,,4,,,64,127
43533,note_off,45,0,0,,10,,,69,127
43536,note_on,3,0,0,,7,,,67,127
43584,note_on,48,0,0,,10,,,69,127
43600,note_off,16,0,0,,7,,,67,127
43632,note_on,32,0,0,,7,,,67,127
43648,note_off,16,0,0,,10,,,69,127
43871,note_off,223,0,0,,7,,,67,127
43871,note_off,0,0,0,,4,,,64,127
43871,note_off,0,0,0,,0,,,48,127
43871,note_off,0,0,0,,0,,,60,127
43872,note_on,1,0,0,,5,,,65,127
43872,note_on,0,0,0,,10,,,69,127
43967,note_off,95,0,0,,5,,,65,127
43968,note_on,1,0,0,,7,,,67,127
44063,note_off,95,0,0,,7,,,67,127
44063,note_off,0,0,0,,10,,,69,127
44064,note_on,1,0,0,,10,,,69,127
44159,note_off,95,0,0,,10,,,69,127
44160,note_on,1,0,0,,11,,,70,127
44255,note_off,95,0,0,,11,,,70,127
44256,note_on,1,0,0,,0,,,72,127
44256,note_on,0,0,0,,10,,,81,127
44351,note_off,95,0,0,,0,,,72,127
44352,note_on,1,0,0,,2,,,74,127
44447,note_off,95,0,0,,2,,,74,127
44448,note_on,1,0,0,,4,,,76,127
44543,note_off,95,0,0,,4,,,76,127
44544,note_on,1,0,0,,5,,,77,127
44639,note_off,95,0,0,,5,,,77,127
44640,note_on,1,0,0,,0,,,36,127
44831,note_off,191,0,0,,10,,,81,127
44832,note_on,1,0,0,,7,,,79,127
44832,note_on,0,0,0,,11,,,70,127
45023,note_off,191,0,0,,11,,,70,127
45023,note_off,0,0,0,,7,,,79,127
45024,note_on,1,0,0,,10,,,69,127
45024,note_on,0,0,0,,5,,,77,127
45215,note_off,191,0,0,,5,,,77,127
45215,note_off,0,0,0,,10,,,69,127
45216,note_on,1,0,0,,4,,,76,127
45216,note_on,0,0,0,,7,,,67,127
45407,note_off,191,0,0,,7,,,67,127
45407,note_off,0,0,0,,4,,,76,127
45407,note_off,0,0,0,,0,,,36,127
45408,note_on,1,0,0,,5,,,65,127
45408,note_on,0,0,0,,5,,,77,127
45408,note_on,0,0,0,,10,,,69,127
45503,note_off,95,0,0,,5,,,65,127
45504,note_on,1,0,0,,7,,,67,127
45599,note_off,95,0,0,,7,,,67,127
45599,note_off,0,0,0,,10,,,69,127
45600,note_on,1,0,0,,10,,,69,127
45695,note_off,95,0,0,,10,,,69,127
45696,note_on,1,0,0,,11,,,70,127
45791,note_off,95,0,0,,11,,,70,127
45791,note_off,0,0,0,,5,,,77,127
45792,note_on,1,0,0,,0,,,72,127
45792,note_on,0,0,0,,0,,,84,127
45887,note_off,95,0,0,,0,,,72,127
45888,note_on,1,0,0,,2,,,74,127
45983,note_off,95,0,0,,2,,,74,127
45984,note_on,1,0,0,,4,,,76,127
46079,note_off,95,0,0,,4,,,76,127
46080,note_on,1,0,0,,5,,,77,127
46175,note_off,95,0,0,,5,,,77,127
46176,note_on,1,0,0,,0,,,36,127
46176,note_on,0,0,0,,10,,,81,127
46367,note_off,191,0,0,,10,,,81,127
46367,note_off,0,0,0,,0,,,84,127
46368,note_on,1,0,0,,11,,,82,127
46368,note_on,0,0,0,,7,,,79,127
46559,note_off,191,0,0,,7,,,79,127
46559,note_off,0,0,0,,11,,,82,127
46560,note_on,1,0,0,,10,,,81,127
46560,note_on,0,0,0,,5,,,77,127
46751,note_off,191,0,0,,5,,,77,127
46751,note_off,0,0,0,,10,,,81,127
46752,note_on,1,0,0,,7,,,79,127
46752,note_on,0,0,0,,4,,,76,127
46943,note_off,191,0,0,,4,,,76,127
46943,note_off,0,0,0,,7,,,79,127
46943,note_off,0,0,0,,0,,,36,127
46944,note_on,1,0,0,,5,,,65,127
46944,note_on,0,0,0,,5,,,77,127
46944,note_on,0,0,0,,10,,,81,127
47039,note_off,95,0,0,,5,,,65,127
47040,note_on,1,0,0,,7,,,67,127
47135,note_off,95,0,0,,7,,,67,127
47136,note_on,1,0,0,,10,,,69,127
47231,note_off,95,0,0,,10,,,69,127
47232,note_on,1,0,0,,11,,,70,127
47327,note_off,95,0,0,,11,,,70,127
47327,note_off,0,0,0,,10,,,81,127
47327,note_off,0,0,0,,5,,,77,127
47328,note_on,1,0,0,,0,,,72,127
47328,note_on,0,0,0,,10,,,81,127
47423,note_off,95,0,0,,0,,,72,127
47424,note_on,1,0,0,,2,,,74,127
47519,note_off,95,0,0,,2,,,74,127
47520,note_on,1,0,0,,4,,,76,127
47615,note_off,95,0,0,,4,,,76,127
47616,note_on,1,0,0,,5,,,77,127
47711,note_off,95,0,0,,5,,,77,127
47712,note_on,1,0,0,,0,,,36,127
47903,note_off,191,0,0,,10,,,81,127
47904,note_on,1,0,0,,11,,,70,127
47904,note_on,0,0,0,,7,,,79,127
48095,note_off,191,0,0,,7,,,79,127
48095,note_off,0,0,0,,11,,,70,127
48096,note_on,1,0,0,,5,,,77,127
48096,note_on,0,0,0,,10,,,69,127
48287,note_off,191,0,0,,10,,,69,127
48287,note_off,0,0,0,,5,,,77,127
48288,note_on,1,0,0,,4,,,76,127
48288,note_on,0,0,0,,7,,,67,127
48479,note_off,191,0,0,,7,,,67,127
48479,note_off,0,0,0,,4,,,76,127
48479,note_off,0,0,0,,0,,,36,127
48480,note_on,1,0,0,,5,,,65,127
48480,note_on,0,0,0,,5,,,77,127
48480,note_on,0,0,0,,10,,,69,127
48575,note_off,95,0,0,,5,,,65,127
48576,note_on,1,0,0,,7,,,67,127
48671,note_off,95,0,0,,7,,,67,127
48671,note_off,0,0,0,,10,,,69,127
48672,note_on,1,0,0,,10,,,69,127
48767,note_off,95,0,0,,10,,,69,127
48768,note_on,1,0,0,,11,,,70,127
48863,note_off,95,0,0,,11,,,70,127
48863,note_off,0,0,0,,5,,,77,127
48864,note_on,1,0,0,,0,,,72,127
48864,note_on,0,0,0,,0,,,84,127
48959,note_off,95,0,0,,0,,,72,127
48960,note_on,1,0,0,,2,,,74,127
49055,note_off,95,0,0,,2,,,74,127
49056,note_on,1,0,0,,4,,,76,127
49151,note_off,95,0,0,,4,,,76,127
49152,note_on,1,0,0,,5,,,77,127
49247,note_off,95,0,0,,5,,,77,127
49248,note_on,1,0,0,,0,,,36,127
49248,note_on,0,0,0,,10,,,81,127
49439,note_off,191,0,0,,10,,,81,127
49439,note_off,0,0,0,,0,,,84,127
49440,note_on,1,0,0,,7,,,79,127
49440,note_on,0,0,0,,11,,,82,127
49631,note_off,191,0,0,,11,,,82,127
49631,note_off,0,0,0,,7,,,79,127
49632,note_on,1,0,0,,5,,,77,127
49632,note_on,0,0,0,,10,,,81,127
49823,note_off,191,0,0,,10,,,81,127
49823,note_off,0,0,0,,5,,,77,127
49824,note_on,1,0,0,,4,,,76,127
49824,note_on,0,0,0,,7,,,79,127
50015,note_off,191,0,0,,7,,,79,127
50015,note_off,0,0,0,,4,,,76,127
50015,note_off,0,0,0,,0,,,36,127
50016,note_on,1,0,0,,5,,,53,127
50016,note_on,0,0,0,,5,,,77,127
50016,note_on,0,0,0,,10,,,81,127
50111,note_off,95,0,0,,5,,,77,127
50112,note_on,1,0,0,,4,,,76,127
50207,note_off,95,0,0,,4,,,76,127
50208,note_on,1,0,0,,2,,,74,127
50303,note_off,95,0,0,,2,,,74,127
50304,note_on,1,0,0,,0,,,72,127
50399,note_off,95,0,0,,0,,,72,127
50399,note_off,0,0,0,,5,,,53,127
50400,note_on,1,0,0,,11,,,58,127
50400,note_on,0,0,0,,2,,,74,127
50591,note_off,191,0,0,,10,,,81,127
50592,note_on,1,0,0,,11,,,82,127
50783,note_off,191,0,0,,11,,,82,127
50783,note_off,0,0,0,,2,,,74,127
50783,note_off,0,0,0,,11,,,58,127
50784,note_on,1,0,0,,5,,,65,127
50784,note_on,0,0,0,,10,,,69,127
50784,note_on,0,0,0,,0,,,60,127
50784,note_on,0,0,0,,10,,,81,127
50879,note_off,95,0,0,,10,,,81,127
50880,note_on,1,0,0,,7,,,79,127
50975,note_off,95,0,0,,7,,,79,127
50976,note_on,1,0,0,,5,,,77,127
51167,note_off,191,0,0,,0,,,60,127
51167,note_off,0,0,0,,10,,,69,127
51167,note_off,0,0,0,,5,,,65,127
51168,note_on,1,0,0,,7,,,67,127
51168,note_on,0,0,0,,0,,,60,127
51168,note_on,0,0,0,,11,,,70,127
51359,note_off,191,0,0,,5,,,77,127
51360,note_on,1,0,0,,4,,,76,127
51551,note_off,191,0,0,,4,,,76,127
51551,note_off,0,0,0,,11,,,70,127
51551,note_off,0,0,0,,0,,,60,127
51551,note_off,0,0,0,,7,,,67,127
51552,note_on,1,0,0,,5,,,65,127
51552,note_on,0,0,0,,5,,,77,127
51647,note_off,95,0,0,,5,,,77,127
51648,note_on,1,0,0,,4,,,76,127
51743,note_off,95,0,0,,4,,,76,127
51744,note_on,1,0,0,,2,,,74,127
51839,note_off,95,0,0,,2,,,74,127
51840,note_on,1,0,0,,0,,,72,127
51935,note_off,95,0,0,,0,,,72,127
51935,note_off,0,0,0,,5,,,65,127
51936,note_on,1,0,0,,11,,,58,127
51936,note_on,0,0,0,,11,,,70,127
52000,note_off,64,0,0,,11,,,70,127
52000,note_on,0,0,0,,10,,,69,127
52064,note_off,64,0,0,,10,,,69,127
52064,note_on,0,0,0,,7,,,67,127
52128,note_off,64,0,0,,7,,,67,127
52128,note_on,0,0,0,,5,,,65,127
52223,note_off,95,0,0,,5,,,65,127
52224,note_on,1,0,0,,2,,,74,127
52319,note_off,95,0,0,,2,,,74,127
52319,note_off,0,0,0,,11,,,58,127
52320,note_on,1,0,0,,0,,,60,127
52320,note_on,0,0,0,,0,,,72,127
52511,note_off,191,0,0,,0,,,72,127
52512,note_on,1,0,0,,5,,,65,127
52704,note_on,192,0,0,,0,,,48,127
52895,note_off,191,0,0,,5,,,65,127
52896,note_on,1,0,0,,4,,,64,127
53087,note_off,191,0,0,,4,,,64,127
53087,note_off,0,0,0,,0,,,48,127
53087,note_off,0,0,0,,0,,,60,127
53088,note_on,1,0,0,,5,,,53,127
53088,note_on,0,0,0,,5,,,65,127
53183,note_off,95,0,0,,5,,,65,127
53184,note_on,1,0,0,,4,,,64,127
53279,note_off,95,0,0,,4,,,64,127
53280,note_on,1,0,0,,2,,,62,127
53375,note_off,95,0,0,,2,,,62,127
53376,note_on,1,0,0,,0,,,60,127
53471,note_off,95,0,0,,0,,,60,127
53471,note_off,0,0,0,,5,,,53,127
53472,note_on,1,0,0,,11,,,46,127
53472,note_on,0,0,0,,11,,,58,127
53536,note_off,64,0,0,,11,,,58,127
53536,note_on,0,0,0,,10,,,57,127
53600,note_off,64,0,0,,10,,,57,127
53600,note_on,0,0,0,,7,,,55,127
53664,note_off,64,0,0,,7,,,55,127
53664,note_on,0,0,0,,5,,,53,127
53759,note_off,95,0,0,,5,,,53,127
53760,note_on,1,0,0,,2,,,62,127
53855,note_off,95,0,0,,2,,,62,127
53855,note_off,0,0,0,,11,,,46,127
53856,note_on,1,0,0,,0,,,48,127
53856,note_on,0,0,0,,0,,,60,127
54047,note_off,191,0,0,,0,,,60,127
54048,note_on,1,0,0,,5,,,53,127
54240,note_on,192,0,0,,0,,,36,127
54431,note_off,191,0,0,,5,,,53,127
54432,note_on,1,0,0,,4,,,52,127
54623,note_off,191,0,0,,4,,,52,127
54623,note_off,0,0,0,,0,,,36,127
54623,note_off,0,0,0,,0,,,48,127
54624,note_on,1,0,0,,5,,,41,127
54624,note_on,0,0,0,,5,,,53,127
55391,note_off,767,0,0,,5,,,53,127
55391,note_off,0,0,0,,5,,,41,127
55392,note_on,1,0,0,,5,,,41,127
55584,note_on,192,0,0,,5,,,77,127
55775,note_off,191,0,0,,5,,,77,127
55776,note_on,1,0,0,,0,,,72,127
55967,note_off,191,0,0,,5,,,41,127
55968,note_on,1,0,0,,5,,,65,127
55968,note_on,0,0,0,,10,,,69,127
56159,note_off,191,0,0,,10,,,69,127
56159,note_off,0,0,0,,5,,,65,127
56160,note_on,1,0,0,,7,,,67,127
56160,note_on,0,0,0,,4,,,64,127
56351,note_off,191,0,0,,0,,,72,127
56352,note_on,1,0,0,,11,,,70,127
56543,note_off,191,0,0,,11,,,70,127
56543,note_off,0,0,0,,4,,,64,127
56543,note_off,0,0,0,,7,,,67,127
56544,note_on,1,0,0,,4,,,64,127
56544,note_on,0,0,0,,0,,,60,127
56544,note_on,0,0,0,,10,,,69,127
56735,note_off,191,0,0,,10,,,69,127
56736,note_on,1,0,0,,7,,,67,127
56927,note_off,191,0,0,,7,,,67,127
56927,note_off,0,0,0,,0,,,60,127
56927,note_off,0,0,0,,4,,,64,127
56928,note_on,1,0,0,,2,,,62,127
56928,note_on,0,0,0,,7,,,67,127
56976,note_on,48,0,0,,5,,,65,127
56992,note_off,16,0,0,,7,,,67,127
57024,note_on,32,0,0,,7,,,67,127
57040,note_off,16,0,0,,5,,,65,127
57072,note_on,32,0,0,,5,,,65,127
57088,note_off,16,0,0,,7,,,67,127
57120,note_on,32,0,0,,4,,,64,127
57136,note_off,16,0,0,,5,,,65,127
57311,note_off,175,0,0,,4,,,64,127
57312,note_on,1,0,0,,5,,,65,127
57503,note_off,191,0,0,,2,,,62,127
57504,note_on,1,0,0,,10,,,57,127
57504,note_on,0,0,0,,0,,,60,127
57695,note_off,191,0,0,,0,,,60,127
57695,note_off,0,0,0,,10,,,57,127
57696,note_on,1,0,0,,11,,,58,127
57696,note_on,0,0,0,,2,,,62,127
57887,note_off,191,0,0,,5,,,65,127
57888,note_on,1,0,0,,7,,,67,127
57952,note_off,64,0,0,,7,,,67,127
57952,note_on,0,0,0,,10,,,69,127
58016,note_off,64,0,0,,10,,,69,127
58016,note_on,0,0,0,,11,,,70,127
58079,note_off,63,0,0,,2,,,62,127
58079,note_off,0,0,0,,11,,,58,127
58080,note_off,1,0,0,,11,,,70,127
58080,note_on,0,0,0,,0,,,60,127
58080,note_on,0,0,0,,5,,,65,127
58080,note_on,0,0,0,,10,,,69,127
58271,note_off,191,0,0,,10,,,69,127
58271,note_off,0,0,0,,5,,,65,127
58272,note_on,1,0,0,,4,,,64,127
58272,note_on,0,0,0,,7,,,67,127
58463,note_off,191,0,0,,7,,,67,127
58463,note_off,0,0,0,,4,,,64,127
58463,note_off,0,0,0,,0,,,60,127
58464,note_on,1,0,0,,5,,,65,127
58464,note_on,0,0,0,,10,,,69,127
58655,note_off,191,0,0,,10,,,69,127
58656,note_on,1,0,0,,10,,,81,127
58847,note_off,191,0,0,,10,,,81,127
58847,note_off,0,0,0,,5,,,65,127
58848,note_on,1,0,0,,7,,,67,127
58896,note_on,48,0,0,,5,,,65,127
58912,note_off,16,0,0,,7,,,67,127
58944,note_on,32,0,0,,7,,,67,127
58960,note_off,16,0,0,,5,,,65,127
58992,note_on,32,0,0,,5,,,65,127
59008,note_off,16,0,0,,7,,,67,127
59040,note_on,32,0,0,,0,,,60,127
59040,note_on,0,0,0,,10,,,57,127
59231,note_off,191,0,0,,10,,,57,127
59231,note_off,0,0,0,,0,,,60,127
59232,note_on,1,0,0,,11,,,58,127
59232,note_on,0,0,0,,2,,,62,127
59423,note_off,191,0,0,,5,,,65,127
59424,note_on,1,0,0,,7,,,67,127
59488,note_off,64,0,0,,7,,,67,127
59488,note_on,0,0,0,,10,,,69,127
59552,note_off,64,0,0,,10,,,69,127
59552,note_on,0,0,0,,11,,,70,127
59615,note_off,63,0,0,,2,,,62,127
59615,note_off,0,0,0,,11,,,58,127
59616,note_off,1,0,0,,11,,,70,127
59616,note_on,0,0,0,,5,,,65,127
59616,note_on,0,0,0,,0,,,60,127
59616,note_on,0,0,0,,10,,,69,127
59807,note_off,191,0,0,,10,,,69,127
59807,note_off,0,0,0,,5,,,65,127
59808,note_on,1,0,0,,4,,,64,127
59808,note_on,0,0,0,,7,,,67,127
59999,note_off,191,0,0,,7,,,67,127
59999,note_off,0,0,0,,4,,,64,127
59999,note_off,0,0,0,,0,,,60,127
60000,note_on,1,0,0,,5,,,53,127
60000,note_on,0,0,0,,5,,,65,127
60000,note_on,0,0,0,,10,,,69,127
60191,note_off,191,0,0,,10,,,69,127
60192,note_on,1,0,0,,0,,,84,127
60380,note_off,188,0,0,,5,,,53,127
60383,note_off,3,0,0,,0,,,84,127
60383,note_off,0,0,0,,5,,,65,127
60384,note_on,1,0,0,,7,,,67,127
60432,note_on,48,0,0,,5,,,65,127
60448,note_off,16,0,0,,7,,,67,127
60480,note_on,32,0,0,,7,,,67,127
60496,note_off,16,0,0,,5,,,65,127
60528,note_on,32,0,0,,5,,,65,127
60544,note_off,16,0,0,,7,,,67,127
60576,note_on,32,0,0,,10,,,57,127
60576,note_on,0,0,0,,0,,,60,127
60767,note_off,191,0,0,,0,,,60,127
60767,note_off,0,0,0,,10,,,57,127
60768,note_on,1,0,0,,11,,,58,127
60768,note_on,0,0,0,,2,,,62,127
60959,note_off,191,0,0,,5,,,65,127
60960,note_on,1,0,0,,7,,,67,127
61024,note_off,64,0,0,,7,,,67,127
61024,note_on,0,0,0,,10,,,69,127
61088,note_off,64,0,0,,10,,,69,127
61088,note_on,0,0,0,,11,,,70,127
61151,note_off,63,0,0,,2,,,62,127
61151,note_off,0,0,0,,11,,,58,127
61152,note_off,1,0,0,,11,,,70,127
61152,note_on,0,0,0,,5,,,65,127
61152,note_on,0,0,0,,0,,,60,127
61152,note_on,0,0,0,,10,,,69,127
61343,note_off,191,0,0,,10,,,69,127
61343,note_off,0,0,0,,5,,,65,127
61344,note_on,1,0,0,,4,,,64,127
61344,note_on,0,0,0,,7,,,67,127
61535,note_off,191,0,0,,7,,,67,127
61535,note_off,0,0,0,,4,,,64,127
61535,note_off,0,0,0,,0,,,60,127
61536,note_on,1,0,0,,5,,,65,127
61536,note_on,0,0,0,,5,,,53,127
61536,note_on,0,0,0,,10,,,69,127
61727,note_off,191,0,0,,10,,,69,127
61728,note_on,1,0,0,,0,,,84,127
61919,note_off,191,0,0,,0,,,84,127
61919,note_off,0,0,0,,5,,,65,127
61920,note_on,1,0,0,,7,,,67,127
61968,note_on,48,0,0,,5,,,65,127
61984,note_off,16,0,0,,7,,,67,127
62016,note_on,32,0,0,,7,,,67,127
62032,note_off,16,0,0,,5,,,65,127
62064,note_on,32,0,0,,5,,,65,127
62080,note_off,16,0,0,,7,,,67,127
62111,note_off,31,0,0,,5,,,53,127
62112,note_on,1,0,0,,0,,,60,127
62112,note_on,0,0,0,,10,,,57,127
62303,note_off,191,0,0,,10,,,57,127
62303,note_off,0,0,0,,0,,,60,127
62304,note_on,1,0,0,,2,,,62,127
62304,note_on,0,0,0,,11,,,58,127
62495,note_off,191,0,0,,5,,,65,127
62496,note_on,1,0,0,,7,,,67,127
62560,note_off,64,0,0,,7,,,67,127
62560,note_on,0,0,0,,10,,,69,127
62624,note_off,64,0,0,,10,,,69,127
62624,note_on,0,0,0,,11,,,70,127
62687,note_off,63,0,0,,11,,,58,127
62687,note_off,0,0,0,,2,,,62,127
62688,note_off,1,0,0,,11,,,70,127
62688,note_on,0,0,0,,0,,,60,127
62688,note_on,0,0,0,,5,,,65,127
62688,note_on,0,0,0,,10,,,69,127
62879,note_off,191,0,0,,10,,,69,127
62879,note_off,0,0,0,,5,,,65,127
62880,note_on,1,0,0,,4,,,64,127
62880,note_on,0,0,0,,7,,,67,127
63071,note_off,191,0,0,,7,,,67,127
63071,note_off,0,0,0,,4,,,64,127
63071,note_off,0,0,0,,0,,,60,127
63072,note_on,1,0,0,,5,,,53,127
63072,note_on,0,0,0,,5,,,65,127
63072,note_on,0,0,0,,10,,,69,127
63455,note_off,383,0,0,,10,,,69,127
63456,note_on,1,0,0,,3,,,75,127
63456,note_on,0,0,0,,0,,,84,127
63647,note_off,191,0,0,,5,,,65,127
63647,note_off,0,0,0,,5,,,53,127
63840,note_on,193,0,0,,0,,,60,127
64031,note_off,191,0,0,,0,,,84,127
64031,note_off,0,0,0,,3,,,75,127
64032,note_on,1,0,0,,2,,,74,127
64032,note_on,0,0,0,,11,,,82,127
64223,note_off,191,0,0,,11,,,82,127
64223,note_off,0,0,0,,2,,,74,127
64224,note_on,1,0,0,,0,,,72,127
64224,note_on,0,0,0,,10,,,81,127
64415,note_off,191,0,0,,10,,,81,127
64415,note_off,0,0,0,,0,,,72,127
64416,note_on,1,0,0,,11,,,70,127
64416,note_on,0,0,0,,7,,,79,127
64607,note_off,191,0,0,,7,,,79,127
64607,note_off,0,0,0,,11,,,70,127
64607,note_off,0,0,0,,0,,,60,127
64608,note_on,1,0,0,,2,,,62,127
64608,note_on,0,0,0,,6,,,78,127
64608,note_on,0,0,0,,10,,,69,127
64968,note_off,360,0,0,,10,,,69,127
64968,note_off,0,0,0,,6,,,78,127
64992,note_on,24,0,0,,3,,,75,127
64992,note_on,0,0,0,,7,,,67,127
65375,note_off,383,0,0,,2,,,62,127
65376,note_on,1,0,0,,0,,,60,127
65567,note_off,191,0,0,,7,,,67,127
65567,note_off,0,0,0,,3,,,75,127
65568,note_on,1,0,0,,2,,,74,127
65568,note_on,0,0,0,,11,,,70,127
65759,note_off,191,0,0,,11,,,70,127
65759,note_off,0,0,0,,2,,,74,127
65760,note_on,1,0,0,,10,,,69,127
65760,note_on,0,0,0,,0,,,72,127
65951,note_off,191,0,0,,0,,,72,127
65951,note_off,0,0,0,,10,,,69,127
65952,note_on,1,0,0,,11,,,70,127
65952,note_on,0,0,0,,7,,,67,127
66143,note_off,191,0,0,,7,,,67,127
66143,note_off,0,0,0,,11,,,70,127
66143,note_off,0,0,0,,0,,,60,127
66144,note_on,1,0,0,,2,,,62,127
66144,note_on,0,0,0,,10,,,69,127
66144,note_on,0,0,0,,6,,,66,127
66336,note_on,192,0,0,,10,,,81,127
66527,note_off,191,0,0,,10,,,81,127
66528,note_on,1,0,0,,0,,,84,127
66719,note_off,191,0,0,,0,,,84,127
66719,note_off,0,0,0,,6,,,66,127
66719,note_off,0,0,0,,10,,,69,127
66720,note_on,1,0,0,,11,,,82,127
66720,note_on,0,0,0,,7,,,67,127
66911,note_off,191,0,0,,7,,,67,127
66911,note_off,0,0,0,,11,,,82,127
66911,note_off,0,0,0,,2,,,62,127
66912,note_on,1,0,0,,10,,,81,127
66912,note_on,0,0,0,,6,,,66,127
66912,note_on,0,0,0,,10,,,69,127
66912,note_on,0,0,0,,2,,,62,127
67103,note_off,191,0,0,,10,,,69,127
67103,note_off,0,0,0,,6,,,66,127
67103,note_off,0,0,0,,10,,,81,127
67104,note_on,1,0,0,,7,,,79,127
67104,note_on,0,0,0,,11,,,70,127
67104,note_on,0,0,0,,7,,,67,127
67295,note_off,191,0,0,,7,,,67,127
67295,note_off,0,0,0,,11,,,70,127
67295,note_off,0,0,0,,7,,,79,127
67296,note_on,1,0,0,,7,,,79,127
67296,note_on,0,0,0,,10,,,69,127
67296,note_on,0,0,0,,0,,,72,127
67344,note_on,48,0,0,,6,,,78,127
67360,note_off,16,0,0,,7,,,79,127
67392,note_on,32,0,0,,7,,,79,127
67408,note_off,16,0,0,,6,,,78,127
67440,note_on,32,0,0,,6,,,78,127
67456,note_off,16,0,0,,7,,,79,127
67487,note_off,31,0,0,,0,,,72,127
67487,note_off,0,0,0,,10,,,69,127
67488,note_on,1,0,0,,7,,,79,127
67488,note_on,0,0,0,,11,,,70,127
67488,note_on,0,0,0,,7,,,67,127
67504,note_off,16,0,0,,6,,,78,127
67679,note_off,175,0,0,,7,,,67,127
67679,note_off,0,0,0,,11,,,70,127
67679,note_off,0,0,0,,7,,,79,127
67679,note_off,0,0,0,,2,,,62,127
67680,note_on,1,0,0,,2,,,74,127
67680,note_on,0,0,0,,10,,,69,127
67680,note_on,0,0,0,,6,,,66,127
67680,note_on,0,0,0,,2,,,62,127
67871,note_off,191,0,0,,2,,,74,127
67872,note_on,1,0,0,,10,,,81,127
68063,note_off,191,0,0,,10,,,81,127
68064,note_on,1,0,0,,0,,,84,127
68255,note_off,191,0,0,,0,,,84,127
68255,note_off,0,0,0,,6,,,66,127
68255,note_off,0,0,0,,10,,,69,127
68256,note_on,1,0,0,,11,,,82,127
68256,note_on,0,0,0,,7,,,67,127
68447,note_off,191,0,0,,7,,,67,127
68447,note_off,0,0,0,,11,,,82,127
68447,note_off,0,0,0,,2,,,62,127
68448,note_on,1,0,0,,10,,,81,127
68448,note_on,0,0,0,,6,,,66,127
68448,note_on,0,0,0,,2,,,62,127
68448,note_on,0,0,0,,10,,,69,127
68639,note_off,191,0,0,,10,,,69,127
68639,note_off,0,0,0,,6,,,66,127
68639,note_off,0,0,0,,10,,,81,127
68640,note_on,1,0,0,,7,,,79,127
68640,note_on,0,0,0,,11,,,70,127
68640,note_on,0,0,0,,7,,,67,127
68831,note_off,191,0,0,,7,,,67,127
68831,note_off,0,0,0,,11,,,70,127
68831,note_off,0,0,0,,7,,,79,127
68832,note_on,1,0,0,,7,,,79,127
68832,note_on,0,0,0,,0,,,72,127
68832,note_on,0,0,0,,10,,,69,127
68880,note_on,48,0,0,,6,,,78,127
68896,note_off,16,0,0,,7,,,79,127
68928,note_on,32,0,0,,7,,,79,127
68944,note_off,16,0,0,,6,,,78,127
68976,note_on,32,0,0,,6,,,78,127
68992,note_off,16,0,0,,7,,,79,127
69023,note_off,31,0,0,,10,,,69,127
69023,note_off,0,0,0,,0,,,72,127
69024,note_on,1,0,0,,7,,,79,127
69024,note_on,0,0,0,,11,,,70,127
69024,note_on,0,0,0,,7,,,67,127
69040,note_off,16,0,0,,6,,,78,127
69215,note_off,175,0,0,,7,,,67,127
69215,note_off,0,0,0,,11,,,70,127
69215,note_off,0,0,0,,7,,,79,127
69215,note_off,0,0,0,,2,,,62,127
69216,note_on,1,0,0,,2,,,74,127
69216,note_on,0,0,0,,6,,,66,127
69216,note_on,0,0,0,,10,,,69,127
69216,note_on,0,0,0,,2,,,62,127
69407,note_off,191,0,0,,2,,,74,127
69408,note_on,1,0,0,,10,,,81,127
69599,note_off,191,0,0,,10,,,81,127
69600,note_on,1,0,0,,0,,,84,127
69791,note_off,191,0,0,,0,,,84,127
69791,note_off,0,0,0,,10,,,69,127
69791,note_off,0,0,0,,6,,,66,127
69792,note_on,1,0,0,,11,,,82,127
69792,note_on,0,0,0,,7,,,67,127
69983,note_off,191,0,0,,7,,,67,127
69983,note_off,0,0,0,,11,,,82,127
69983,note_off,0,0,0,,2,,,62,127
69984,note_on,1,0,0,,10,,,81,127
69984,note_on,0,0,0,,2,,,62,127
69984,note_on,0,0,0,,10,,,69,127
69984,note_on,0,0,0,,6,,,66,127
70175,note_off,191,0,0,,6,,,66,127
70175,note_off,0,0,0,,10,,,69,127
70175,note_off,0,0,0,,10,,,81,127
70176,note_on,1,0,0,,7,,,79,127
70176,note_on,0,0,0,,7,,,67,127
70176,note_on,0,0,0,,11,,,70,127
70367,note_off,191,0,0,,11,,,70,127
70367,note_off,0,0,0,,7,,,67,127
70367,note_off,0,0,0,,7,,,79,127
70368,note_on,1,0,0,,7,,,79,127
70368,note_on,0,0,0,,10,,,69,127
70368,note_on,0,0,0,,0,,,72,127
70416,note_on,48,0,0,,6,,,78,127
70432,note_off,16,0,0,,7,,,79,127
70464,note_on,32,0,0,,7,,,79,127
70480,note_off,16,0,0,,6,,,78,127
70512,note_on,32,0,0,,6,,,78,127
70528,note_off,16,0,0,,7,,,79,127
70559,note_off,31,0,0,,0,,,72,127
70559,note_off,0,0,0,,10,,,69,127
70560,note_on,1,0,0,,7,,,79,127
70560,note_on,0,0,0,,11,,,70,127
70560,note_on,0,0,0,,7,,,67,127
70576,note_off,16,0,0,,6,,,78,127
70751,note_off,175,0,0,,7,,,67,127
70751,note_off,0,0,0,,11,,,70,127
70751,note_off,0,0,0,,7,,,79,127
70751,note_off,0,0,0,,2,,,62,127
70752,note_on,1,0,0,,2,,,74,127
70752,note_on,0,0,0,,6,,,66,127
70752,note_on,0,0,0,,2,,,62,127
70752,note_on,0,0,0,,10,,,69,127
70943,note_off,191,0,0,,2,,,74,127
70944,note_on,1,0,0,,0,,,84,127
71135,note_off,191,0,0,,0,,,84,127
71136,note_on,1,0,0,,11,,,82,127
71327,note_off,191,0,0,,11,,,82,127
71327,note_off,0,0,0,,10,,,69,127
71327,note_off,0,0,0,,2,,,62,127
71327,note_off,0,0,0,,6,,,66,127
71328,note_on,1,0,0,,10,,,81,127
71328,note_on,0,0,0,,0,,,72,127
71519,note_off,191,0,0,,0,,,72,127
71519,note_off,0,0,0,,10,,,81,127
71520,note_on,1,0,0,,7,,,43,127
71520,note_on,0,0,0,,11,,,70,127
71520,note_on,0,0,0,,2,,,62,127
71711,note_off,191,0,0,,11,,,70,127
71712,note_on,1,0,0,,7,,,67,127
71903,note_off,191,0,0,,7,,,67,127
71903,note_off,0,0,0,,2,,,62,127
71903,note_off,0,0,0,,7,,,43,127
71904,note_on,1,0,0,,2,,,38,127
71904,note_on,0,0,0,,2,,,62,127
71904,note_on,0,0,0,,6,,,66,127
71904,note_on,0,0,0,,10,,,69,127
72095,note_off,191,0,0,,10,,,69,127
72096,note_on,1,0,0,,0,,,72,127
72287,note_off,191,0,0,,0,,,72,127
72287,note_off,0,0,0,,6,,,66,127
72287,note_off,0,0,0,,2,,,62,127
72287,note_off,0,0,0,,2,,,38,127
72288,note_on,1,0,0,,7,,,43,127
72288,note_on,0,0,0,,11,,,70,127
72288,note_on,0,0,0,,7,,,67,127
72288,note_on,0,0,0,,2,,,62,127
72479,note_off,191,0,0,,7,,,43,127
72480,note_on,1,0,0,,11,,,82,127
72671,note_off,191,0,0,,11,,,82,127
72672,note_on,1,0,0,,10,,,81,127
72863,note_off,191,0,0,,10,,,81,127
72863,note_off,0,0,0,,2,,,62,127
72863,note_off,0,0,0,,7,,,67,127
72863,note_off,0,0,0,,11,,,70,127
72864,note_on,1,0,0,,7,,,79,127
72864,note_on,0,0,0,,11,,,70,127
73055,note_off,191,0,0,,11,,,70,127
73055,note_off,0,0,0,,7,,,79,127
73056,note_on,1,0,0,,5,,,41,127
73056,note_on,0,0,0,,10,,,69,127
73056,note_on,0,0,0,,0,,,60,127
73247,note_off,191,0,0,,10,,,69,127
73248,note_on,1,0,0,,5,,,65,127
73439,note_off,191,0,0,,5,,,65,127
73439,note_off,0,0,0,,0,,,60,127
73439,note_off,0,0,0,,5,,,41,127
73440,note_on,1,0,0,,0,,,36,127
73440,note_on,0,0,0,,7,,,67,127
73440,note_on,0,0,0,,0,,,60,127
73440,note_on,0,0,0,,11,,,70,127
73631,note_off,191,0,0,,7,,,67,127
73632,note_on,1,0,0,,4,,,64,127
73823,note_off,191,0,0,,4,,,64,127
73823,note_off,0,0,0,,11,,,70,127
73823,note_off,0,0,0,,0,,,60,127
73823,note_off,0,0,0,,0,,,36,127
73824,note_on,1,0,0,,5,,,41,127
73824,note_on,0,0,0,,5,,,65,127
73824,note_on,0,0,0,,0,,,60,127
73824,note_on,0,0,0,,10,,,69,127
74015,note_off,191,0,0,,5,,,41,127
74016,note_on,1,0,0,,10,,,81,127
74207,note_off,191,0,0,,10,,,81,127
74208,note_on,1,0,0,,7,,,79,127
74399,note_off,191,0,0,,7,,,79,127
74399,note_off,0,0,0,,10,,,69,127
74399,note_off,0,0,0,,0,,,60,127
74399,note_off,0,0,0,,5,,,65,127
74400,note_on,1,0,0,,5,,,77,127
74400,note_on,0,0,0,,10,,,69,127
74591,note_off,191,0,0,,10,,,69,127
74591,note_off,0,0,0,,5,,,77,127
74592,note_on,1,0,0,,4,,,40,127
74592,note_on,0,0,0,,7,,,67,127
74592,note_on,0,0,0,,1,,,61,127
74783,note_off,191,0,0,,7,,,67,127
74784,note_on,1,0,0,,4,,,64,127
74975,note_off,191,0,0,,4,,,64,127
74975,note_off,0,0,0,,1,,,61,127
74975,note_off,0,0,0,,4,,,40,127
74976,note_on,1,0,0,,2,,,38,127
74976,note_on,0,0,0,,10,,,57,127
74976,note_on,0,0,0,,5,,,65,127
75167,note_off,191,0,0,,5,,,65,127
75168,note_on,1,0,0,,2,,,62,127
75359,note_off,191,0,0,,2,,,62,127
75359,note_off,0,0,0,,10,,,57,127
75359,note_off,0,0,0,,2,,,38,127
75360,note_on,1,0,0,,4,,,40,127
75360,note_on,0,0,0,,4,,,64,127
75360,note_on,0,0,0,,1,,,61,127
75360,note_on,0,0,0,,10,,,57,127
75360,note_on,0,0,0,,7,,,67,127
75551,note_off,191,0,0,,4,,,40,127
75552,note_on,1,0,0,,7,,,79,127
75743,note_off,191,0,0,,7,,,79,127
75744,note_on,1,0,0,,5,,,77,127
75935,note_off,191,0,0,,5,,,77,127
75935,note_off,0,0,0,,7,,,67,127
75935,note_off,0,0,0,,10,,,57,127
75935,note_off,0,0,0,,1,,,61,127
75935,note_off,0,0,0,,4,,,64,127
75936,note_on,1,0,0,,4,,,76,127
75936,note_on,0,0,0,,7,,,67,127
76127,note_off,191,0,0,,7,,,67,127
76127,note_off,0,0,0,,4,,,76,127
76128,note_on,1,0,0,,2,,,38,127
76128,note_on,0,0,0,,10,,,57,127
76128,note_on,0,0,0,,5,,,65,127
76319,note_off,191,0,0,,5,,,65,127
76320,note_on,1,0,0,,2,,,62,127
76511,note_off,191,0,0,,2,,,62,127
76511,note_off,0,0,0,,10,,,57,127
76511,note_off,0,0,0,,2,,,38,127
76512,note_on,1,0,0,,10,,,45,127
76512,note_on,0,0,0,,4,,,64,127
76512,note_on,0,0,0,,1,,,61,127
76512,note_on,0,0,0,,10,,,57,127
76703,note_off,191,0,0,,1,,,61,127
76703,note_off,0,0,0,,4,,,64,127
76704,note_on,1,0,0,,7,,,67,127
76895,note_off,191,0,0,,7,,,67,127
76895,note_off,0,0,0,,10,,,57,127
76895,note_off,0,0,0,,10,,,45,127
76896,note_on,1,0,0,,2,,,38,127
76896,note_on,0,0,0,,5,,,65,127
76896,note_on,0,0,0,,10,,,57,127
76944,note_on,48,0,0,,2,,,62,127
76960,note_off,16,0,0,,10,,,57,127
76986,note_off,26,0,0,,5,,,65,127
76992,note_on,6,0,0,,4,,,64,127
77008,note_off,16,0,0,,2,,,62,127
77040,note_on,32,0,0,,5,,,65,127
77056,note_off,16,0,0,,4,,,64,127
77088,note_on,32,0,0,,7,,,67,127
77104,note_off,16,0,0,,5,,,65,127
77136,note_on,32,0,0,,10,,,69,127
77152,note_off,16,0,0,,7,,,67,127
77184,note_on,32,0,0,,11,,,70,127
77200,note_off,16,0,0,,10,,,69,127
77232,note_on,32,0,0,,0,,,72,127
77248,note_off,16,0,0,,11,,,70,127
77280,note_on,32,0,0,,2,,,74,127
77296,note_off,16,0,0,,0,,,72,127
77471,note_off,175,0,0,,2,,,74,127
77472,note_on,1,0,0,,0,,,72,127
77663,note_off,191,0,0,,0,,,72,127
77663,note_off,0,0,0,,2,,,38,127
77664,note_on,1,0,0,,7,,,43,127
77664,note_on,0,0,0,,7,,,55,127
77664,note_on,0,0,0,,11,,,70,127
77712,note_on,48,0,0,,7,,,67,127
77728,note_off,16,0,0,,11,,,70,127
77760,note_on,32,0,0,,10,,,69,127
77776,note_off,16,0,0,,7,,,67,127
77808,note_on,32,0,0,,11,,,70,127
77824,note_off,16,0,0,,10,,,69,127
77856,note_on,32,0,0,,0,,,72,127
77872,note_off,16,0,0,,11,,,70,127
77904,note_on,32,0,0,,2,,,74,127
77920,note_off,16,0,0,,0,,,72,127
77952,note_on,32,0,0,,4,,,76,127
77968,note_off,16,0,0,,2,,,74,127
78000,note_on,32,0,0,,5,,,77,127
78016,note_off,16,0,0,,4,,,76,127
78048,note_on,32,0,0,,7,,,79,127
78064,note_off,16,0,0,,5,,,77,127
78239,note_off,175,0,0,,7,,,79,127
78240,note_on,1,0,0,,5,,,77,127
78431,note_off,191,0,0,,5,,,77,127
78431,note_off,0,0,0,,7,,,55,127
78431,note_off,0,0,0,,7,,,43,127
78432,note_on,1,0,0,,0,,,60,127
78432,note_on,0,0,0,,0,,,48,127
78432,note_on,0,0,0,,3,,,75,127
78480,note_on,48,0,0,,0,,,72,127
78496,note_off,16,0,0,,3,,,75,127
78528,note_on,32,0,0,,2,,,74,127
78544,note_off,16,0,0,,0,,,72,127
78576,note_on,32,0,0,,3,,,75,127
78592,note_off,16,0,0,,2,,,74,127
78624,note_on,32,0,0,,5,,,77,127
78640,note_off,16,0,0,,3,,,75,127
78672,note_on,32,0,0,,7,,,79,127
78688,note_off,16,0,0,,5,,,77,127
78720,note_on,32,0,0,,10,,,81,127
78736,note_off,16,0,0,,7,,,79,127
78768,note_on,32,0,0,,11,,,82,127
78784,note_off,16,0,0,,10,,,81,127
78816,note_on,32,0,0,,0,,,84,127
78816,note_on,0,0,0,,3,,,75,127
78832,note_off,16,0,0,,11,,,82,127
79007,note_off,175,0,0,,3,,,75,127
79007,note_off,0,0,0,,0,,,84,127
79008,note_on,1,0,0,,11,,,82,127
79008,note_on,0,0,0,,2,,,74,127
79199,note_off,191,0,0,,2,,,74,127
79199,note_off,0,0,0,,11,,,82,127
79199,note_off,0,0,0,,0,,,48,127
79199,note_off,0,0,0,,0,,,60,127
79200,note_on,1,0,0,,5,,,53,127
79200,note_on,0,0,0,,5,,,41,127
79200,note_on,0,0,0,,10,,,81,127
79200,note_on,0,0,0,,0,,,72,127
79391,note_off,191,0,0,,0,,,72,127
79391,note_off,0,0,0,,10,,,81,127
79392,note_on,1,0,0,,7,,,79,127
79392,note_on,0,0,0,,11,,,70,127
79583,note_off,191,0,0,,11,,,70,127
79583,note_off,0,0,0,,7,,,79,127
79584,note_on,1,0,0,,5,,,77,127
79584,note_on,0,0,0,,10,,,69,127
79775,note_off,191,0,0,,10,,,69,127
79775,note_off,0,0,0,,5,,,77,127
79776,note_on,1,0,0,,3,,,75,127
79776,note_on,0,0,0,,0,,,72,127
79967,note_off,191,0,0,,0,,,72,127
79967,note_off,0,0,0,,3,,,75,127
79967,note_off,0,0,0,,5,,,41,127
79967,note_off,0,0,0,,5,,,53,127
79968,note_on,1,0,0,,11,,,58,127
79968,note_on,0,0,0,,11,,,46,127
79968,note_on,0,0,0,,11,,,70,127
79968,note_on,0,0,0,,2,,,74,127
80159,note_off,191,0,0,,2,,,74,127
80159,note_off,0,0,0,,11,,,70,127
80160,note_on,1,0,0,,0,,,72,127
80160,note_on,0,0,0,,10,,,69,127
80351,note_off,191,0,0,,10,,,69,127
80351,note_off,0,0,0,,0,,,72,127
80352,note_on,1,0,0,,11,,,70,127
80352,note_on,0,0,0,,7,,,67,127
80543,note_off,191,0,0,,7,,,67,127
80543,note_off,0,0,0,,11,,,70,127
80544,note_on,1,0,0,,5,,,65,127
80544,note_on,0,0,0,,10,,,69,127
80735,note_off,191,0,0,,10,,,69,127
80735,note_off,0,0,0,,5,,,65,127
80735,note_off,0,0,0,,11,,,46,127
80735,note_off,0,0,0,,11,,,58,127
80736,note_on,1,0,0,,3,,,51,127
80736,note_on,0,0,0,,3,,,39,127
80736,note_on,0,0,0,,3,,,63,127
80736,note_on,0,0,0,,7,,,67,127
80927,note_off,191,0,0,,7,,,67,127
80927,note_off,0,0,0,,3,,,63,127
80928,note_on,1,0,0,,2,,,62,127
80928,note_on,0,0,0,,5,,,65,127
81119,note_off,191,0,0,,5,,,65,127
81119,note_off,0,0,0,,2,,,62,127
81120,note_on,1,0,0,,3,,,63,127
81120,note_on,0,0,0,,0,,,60,127
81311,note_off,191,0,0,,0,,,60,127
81311,note_off,0,0,0,,3,,,63,127
81312,note_on,1,0,0,,11,,,58,127
81312,note_on,0,0,0,,2,,,62,127
81503,note_off,191,0,0,,2,,,62,127
81503,note_off,0,0,0,,11,,,58,127
81503,note_off,0,0,0,,3,,,39,127
81503,note_off,0,0,0,,3,,,51,127
81504,note_on,1,0,0,,5,,,53,127
81504,note_on,0,0,0,,10,,,57,127
81504,note_on,0,0,0,,0,,,60,127
81696,note_on,192,0,0,,5,,,77,127
81887,note_off,191,0,0,,5,,,77,127
81888,note_on,1,0,0,,3,,,75,127
82079,note_off,191,0,0,,3,,,75,127
82079,note_off,0,0,0,,0,,,60,127
82079,note_off,0,0,0,,10,,,57,127
82080,note_on,1,0,0,,1,,,73,127
82080,note_on,0,0,0,,11,,,58,127
82271,note_off,191,0,0,,11,,,58,127
82271,note_off,0,0,0,,1,,,73,127
82271,note_off,0,0,0,,5,,,53,127
82272,note_on,1,0,0,,1,,,73,127
82272,note_on,0,0,0,,0,,,60,127
82272,note_on,0,0,0,,10,,,57,127
82272,note_on,0,0,0,,5,,,53,127
82320,note_on,48,0,0,,0,,,72,127
82336,note_off,16,0,0,,1,,,73,127
82368,note_on,32,0,0,,1,,,73,127
82384,note_off,16,0,0,,0,,,72,127
82416,note_on,32,0,0,,0,,,72,127
82432,note_off,16,0,0,,1,,,73,127
82463,note_off,31,0,0,,10,,,57,127
82463,note_off,0,0,0,,0,,,60,127
82464,note_on,1,0,0,,11,,,70,127
82464,note_on,0,0,0,,11,,,58,127
82464,note_on,0,0,0,,1,,,61,127
82480,note_off,16,0,0,,0,,,72,127
82655,note_off,175,0,0,,1,,,61,127
82655,note_off,0,0,0,,11,,,58,127
82655,note_off,0,0,0,,11,,,70,127
82656,note_on,1,0,0,,10,,,69,127
82656,note_on,0,0,0,,0,,,60,127
82656,note_on,0,0,0,,3,,,63,127
82847,note_off,191,0,0,,3,,,63,127
82847,note_off,0,0,0,,0,,,60,127
82847,note_off,0,0,0,,10,,,69,127
82848,note_on,1,0,0,,11,,,70,127
82848,note_on,0,0,0,,11,,,58,127
82848,note_on,0,0,0,,1,,,61,127
83039,note_off,191,0,0,,1,,,61,127
83039,note_off,0,0,0,,11,,,58,127
83039,note_off,0,0,0,,11,,,70,127
83039,note_off,0,0,0,,5,,,53,127
83040,note_on,1,0,0,,5,,,65,127
83040,note_on,0,0,0,,10,,,57,127
83040,note_on,0,0,0,,5,,,53,127
83040,note_on,0,0,0,,0,,,60,127
83231,note_off,191,0,0,,5,,,65,127
83232,note_on,1,0,0,,5,,,77,127
83423,note_off,191,0,0,,5,,,77,127
83424,note_on,1,0,0,,3,,,75,127
83615,note_off,191,0,0,,3,,,75,127
83615,note_off,0,0,0,,0,,,60,127
83615,note_off,0,0,0,,10,,,57,127
83616,note_on,1,0,0,,1,,,73,127
83616,note_on,0,0,0,,11,,,58,127
83807,note_off,191,0,0,,11,,,58,127
83807,note_off,0,0,0,,1,,,73,127
83807,note_off,0,0,0,,5,,,53,127
83808,note_on,1,0,0,,1,,,73,127
83808,note_on,0,0,0,,0,,,60,127
83808,note_on,0,0,0,,10,,,57,127
83808,note_on,0,0,0,,5,,,53,127
83856,note_on,48,0,0,,0,,,72,127
83872,note_off,16,0,0,,1,,,73,127
83904,note_on,32,0,0,,1,,,73,127
83920,note_off,16,0,0,,0,,,72,127
83952,note_on,32,0,0,,0,,,72,127
83968,note_off,16,0,0,,1,,,73,127
83999,note_off,31,0,0,,10,,,57,127
83999,note_off,0,0,0,,0,,,60,127
84000,note_on,1,0,0,,11,,,70,127
84000,note_on,0,0,0,,11,,,58,127
84000,note_on,0,0,0,,1,,,61,127
84016,note_off,16,0,0,,0,,,72,127
84191,note_off,175,0,0,,1,,,61,127
84191,note_off,0,0,0,,11,,,58,127
84191,note_off,0,0,0,,11,,,70,127
84192,note_on,1,0,0,,10,,,69,127
84192,note_on,0,0,0,,3,,,63,127
84192,note_on,0,0,0,,0,,,60,127
84383,note_off,191,0,0,,0,,,60,127
84383,note_off,0,0,0,,3,,,63,127
84383,note_off,0,0,0,,10,,,69,127
84384,note_on,1,0,0,,11,,,70,127
84384,note_on,0,0,0,,1,,,61,127
84384,note_on,0,0,0,,11,,,58,127
84575,note_off,191,0,0,,11,,,58,127
84575,note_off,0,0,0,,1,,,61,127
84575,note_off,0,0,0,,11,,,70,127
84575,note_off,0,0,0,,5,,,53,127
84576,note_on,1,0,0,,5,,,65,127
84576,note_on,0,0,0,,0,,,60,127
84576,note_on,0,0,0,,10,,,57,127
84576,note_on,0,0,0,,5,,,53,127
84767,note_off,191,0,0,,5,,,65,127
84768,note_on,1,0,0,,5,,,77,127
84959,note_off,191,0,0,,5,,,77,127
84960,note_on,1,0,0,,3,,,75,127
85151,note_off,191,0,0,,3,,,75,127
85151,note_off,0,0,0,,10,,,57,127
85151,note_off,0,0,0,,0,,,60,127
85152,note_on,1,0,0,,1,,,73,127
85152,note_on,0,0,0,,11,,,58,127
85343,note_off,191,0,0,,11,,,58,127
85343,note_off,0,0,0,,1,,,73,127
85343,note_off,0,0,0,,5,,,53,127
85344,note_on,1,0,0,,1,,,73,127
85344,note_on,0,0,0,,10,,,57,127
85344,note_on,0,0,0,,5,,,53,127
85344,note_on,0,0,0,,0,,,60,127
85392,note_on,48,0,0,,0,,,72,127
85408,note_off,16,0,0,,1,,,73,127
85440,note_on,32,0,0,,1,,,73,127
85456,note_off,16,0,0,,0,,,72,127
85488,note_on,32,0,0,,0,,,72,127
85504,note_off,16,0,0,,1,,,73,127
85535,note_off,31,0,0,,0,,,60,127
85535,note_off,0,0,0,,10,,,57,127
85536,note_on,1,0,0,,11,,,70,127
85536,note_on,0,0,0,,1,,,61,127
85536,note_on,0,0,0,,11,,,58,127
85552,note_off,16,0,0,,0,,,72,127
85727,note_off,175,0,0,,11,,,58,127
85727,note_off,0,0,0,,1,,,61,127
85727,note_off,0,0,0,,11,,,70,127
85728,note_on,1,0,0,,10,,,69,127
85728,note_on,0,0,0,,0,,,60,127
85728,note_on,0,0,0,,3,,,63,127
85919,note_off,191,0,0,,3,,,63,127
85919,note_off,0,0,0,,0,,,60,127
85919,note_off,0,0,0,,10,,,69,127
85920,note_on,1,0,0,,11,,,70,127
85920,note_on,0,0,0,,1,,,61,127
85920,note_on,0,0,0,,11,,,58,127
86111,note_off,191,0,0,,11,,,58,127
86111,note_off,0,0,0,,1,,,61,127
86111,note_off,0,0,0,,11,,,70,127
86111,note_off,0,0,0,,5,,,53,127
86112,note_on,1,0,0,,5,,,65,127
86112,note_on,0,0,0,,10,,,57,127
86112,note_on,0,0,0,,5,,,53,127
86112,note_on,0,0,0,,0,,,60,127
86303,note_off,191,0,0,,5,,,65,127
86304,note_on,1,0,0,,5,,,77,127
86495,note_off,191,0,0,,5,,,77,127
86496,note_on,1,0,0,,3,,,75,127
86592,note_off,96,0,0,,5,,,53,127
86687,note_off,95,0,0,,3,,,75,127
86687,note_off,0,0,0,,0,,,60,127
86687,note_off,0,0,0,,10,,,57,127
86688,note_on,1,0,0,,2,,,74,127
86688,note_on,0,0,0,,8,,,56,127
86688,note_on,0,0,0,,12,,,59,127
86879,note_off,191,0,0,,12,,,59,127
86879,note_off,0,0,0,,8,,,56,127
86879,note_off,0,0,0,,2,,,74,127
86880,note_on,1,0,0,,3,,,75,127
86880,note_on,0,0,0,,6,,,54,127
86880,note_on,0,0,0,,11,,,58,127
87071,note_off,191,0,0,,11,,,58,127
87071,note_off,0,0,0,,6,,,54,127
87072,note_on,1,0,0,,8,,,56,127
87072,note_on,0,0,0,,12,,,59,127
87263,note_off,191,0,0,,12,,,59,127
87263,note_off,0,0,0,,8,,,56,127
87264,note_on,1,0,0,,6,,,54,127
87264,note_on,0,0,0,,11,,,58,127
87455,note_off,191,0,0,,11,,,58,127
87455,note_off,0,0,0,,6,,,54,127
87455,note_off,0,0,0,,3,,,75,127
87456,note_on,1,0,0,,3,,,75,127
87456,note_on,0,0,0,,5,,,53,127
87456,note_on,0,0,0,,8,,,56,127
87504,note_on,48,0,0,,2,,,74,127
87520,note_off,16,0,0,,3,,,75,127
87552,note_on,32,0,0,,3,,,75,127
87568,note_off,16,0,0,,2,,,74,127
87600,note_on,32,0,0,,2,,,74,127
87616,note_off,16,0,0,,3,,,75,127
87647,note_off,31,0,0,,8,,,56,127
87647,note_off,0,0,0,,5,,,53,127
87648,note_on,1,0,0,,3,,,75,127
87648,note_on,0,0,0,,6,,,54,127
87648,note_on,0,0,0,,11,,,58,127
87664,note_off,16,0,0,,2,,,74,127
87839,note_off,175,0,0,,11,,,58,127
87839,note_off,0,0,0,,6,,,54,127
87840,note_on,1,0,0,,8,,,56,127
87840,note_on,0,0,0,,12,,,59,127
88031,note_off,191,0,0,,12,,,59,127
88031,note_off,0,0,0,,8,,,56,127
88032,note_on,1,0,0,,6,,,54,127
88032,note_on,0,0,0,,11,,,58,127
88223,note_off,191,0,0,,11,,,58,127
88223,note_off,0,0,0,,6,,,54,127
88223,note_off,0,0,0,,3,,,75,127
88224,note_on,1,0,0,,3,,,75,127
88224,note_on,0,0,0,,5,,,53,127
88224,note_on,0,0,0,,8,,,56,127
88272,note_on,48,0,0,,2,,,74,127
88288,note_off,16,0,0,,3,,,75,127
88320,note_on,32,0,0,,3,,,75,127
88336,note_off,16,0,0,,2,,,74,127
88368,note_on,32,0,0,,2,,,74,127
88384,note_off,16,0,0,,3,,,75,127
88415,note_off,31,0,0,,8,,,56,127
88415,note_off,0,0,0,,5,,,53,127
88416,note_on,1,0,0,,3,,,75,127
88416,note_on,0,0,0,,6,,,54,127
88416,note_on,0,0,0,,11,,,58,127
88432,note_off,16,0,0,,2,,,74,127
88607,note_off,175,0,0,,11,,,58,127
88607,note_off,0,0,0,,6,,,54,127
88607,note_off,0,0,0,,3,,,75,127
88608,note_on,1,0,0,,5,,,77,127
88608,note_on,0,0,0,,5,,,53,127
88608,note_on,0,0,0,,8,,,56,127
88799,note_off,191,0,0,,8,,,56,127
88799,note_off,0,0,0,,5,,,53,127
88799,note_off,0,0,0,,5,,,77,127
88800,note_on,1,0,0,,3,,,75,127
88800,note_on,0,0,0,,6,,,54,127
88800,note_on,0,0,0,,11,,,58,127
88991,note_off,191,0,0,,11,,,58,127
88991,note_off,0,0,0,,6,,,54,127
88991,note_off,0,0,0,,3,,,75,127
88992,note_on,1,0,0,,2,,,74,127
88992,note_on,0,0,0,,8,,,56,127
88992,note_on,0,0,0,,12,,,59,127
89183,note_off,191,0,0,,12,,,59,127
89183,note_off,0,0,0,,8,,,56,127
89183,note_off,0,0,0,,2,,,74,127
89184,note_on,1,0,0,,3,,,75,127
89184,note_on,0,0,0,,6,,,54,127
89184,note_on,0,0,0,,11,,,58,127
89375,note_off,191,0,0,,3,,,75,127
89376,note_on,1,0,0,,1,,,73,127
89567,note_off,191,0,0,,1,,,73,127
89567,note_off,0,0,0,,11,,,58,127
89568,note_on,1,0,0,,0,,,72,127
89568,note_on,0,0,0,,0,,,60,127
89759,note_off,191,0,0,,0,,,60,127
89759,note_off,0,0,0,,0,,,72,127
89760,note_on,1,0,0,,11,,,70,127
89760,note_on,0,0,0,,1,,,61,127
89951,note_off,191,0,0,,1,,,61,127
89951,note_off,0,0,0,,11,,,70,127
89951,note_off,0,0,0,,6,,,54,127
89952,note_on,1,0,0,,10,,,69,127
89952,note_on,0,0,0,,0,,,60,127
89952,note_on,0,0,0,,3,,,63,127
89952,note_on,0,0,0,,5,,,53,127
90143,note_off,191,0,0,,3,,,63,127
90143,note_off,0,0,0,,0,,,60,127
90143,note_off,0,0,0,,10,,,69,127
90144,note_on,1,0,0,,11,,,70,127
90144,note_on,0,0,0,,1,,,61,127
90335,note_off,191,0,0,,1,,,61,127
90335,note_off,0,0,0,,11,,,70,127
90336,note_on,1,0,0,,0,,,72,127
90336,note_on,0,0,0,,0,,,60,127
90527,note_off,191,0,0,,0,,,60,127
90527,note_off,0,0,0,,0,,,72,127
90528,note_on,1,0,0,,1,,,73,127
90528,note_on,0,0,0,,11,,,58,127
90719,note_off,191,0,0,,11,,,58,127
90719,note_off,0,0,0,,1,,,73,127
90719,note_off,0,0,0,,5,,,53,127
90720,note_on,1,0,0,,3,,,75,127
90720,note_on,0,0,0,,5,,,53,127
90720,note_on,0,0,0,,0,,,60,127
90720,note_on,0,0,0,,10,,,57,127
90911,note_off,191,0,0,,10,,,57,127
90911,note_off,0,0,0,,0,,,60,127
90911,note_off,0,0,0,,3,,,75,127
90912,note_on,1,0,0,,1,,,73,127
90912,note_on,0,0,0,,11,,,58,127
91103,note_off,191,0,0,,11,,,58,127
91103,note_off,0,0,0,,1,,,73,127
91104,note_on,1,0,0,,0,,,72,127
91104,note_on,0,0,0,,0,,,60,127
91295,note_off,191,0,0,,0,,,60,127
91295,note_off,0,0,0,,0,,,72,127
91296,note_on,1,0,0,,11,,,70,127
91296,note_on,0,0,0,,1,,,61,127
91487,note_off,191,0,0,,1,,,61,127
91487,note_off,0,0,0,,11,,,70,127
91487,note_off,0,0,0,,5,,,53,127
91488,note_on,1,0,0,,10,,,69,127
91488,note_on,0,0,0,,5,,,53,127
91488,note_on,0,0,0,,3,,,63,127
91488,note_on,0,0,0,,0,,,60,127
91679,note_off,191,0,0,,0,,,60,127
91679,note_off,0,0,0,,3,,,63,127
91679,note_off,0,0,0,,10,,,69,127
91680,note_on,1,0,0,,11,,,70,127
91680,note_on,0,0,0,,1,,,61,127
91871,note_off,191,0,0,,1,,,61,127
91871,note_off,0,0,0,,11,,,70,127
91872,note_on,1,0,0,,0,,,72,127
91872,note_on,0,0,0,,0,,,60,127
92063,note_off,191,0,0,,0,,,60,127
92063,note_off,0,0,0,,0,,,72,127
92064,note_on,1,0,0,,1,,,73,127
92064,note_on,0,0,0,,11,,,58,127
92255,note_off,191,0,0,,11,,,58,127
92255,note_off,0,0,0,,1,,,73,127
92255,note_off,0,0,0,,5,,,53,127
92256,note_on,1,0,0,,3,,,75,127
92256,note_on,0,0,0,,5,,,53,127
92256,note_on,0,0,0,,10,,,57,127
92447,note_off,191,0,0,,10,,,57,127
92447,note_off,0,0,0,,3,,,75,127
92448,note_on,1,0,0,,1,,,73,127
92448,note_on,0,0,0,,11,,,58,127
92639,note_off,191,0,0,,11,,,58,127
92639,note_off,0,0,0,,1,,,73,127
92640,note_on,1,0,0,,0,,,72,127
92640,note_on,0,0,0,,0,,,60,127
92735,note_off,95,0,0,,0,,,72,127
92736,note_on,1,0,0,,11,,,70,127
92831,note_off,95,0,0,,11,,,70,127
92832,note_on,1,0,0,,10,,,69,127
92927,note_off,95,0,0,,10,,,69,127
92928,note_on,1,0,0,,7,,,67,127
93023,note_off,95,0,0,,7,,,67,127
93023,note_off,0,0,0,,5,,,53,127
93024,note_on,1,0,0,,5,,,65,127
93119,note_off,95,0,0,,0,,,60,127
93120,note_on,1,0,0,,5,,,53,127
93215,note_off,95,0,0,,5,,,53,127
93216,note_on,1,0,0,,7,,,55,127
93311,note_off,95,0,0,,7,,,55,127
93312,note_on,1,0,0,,10,,,57,127
93407,note_off,95,0,0,,10,,,57,127
93408,note_on,1,0,0,,11,,,58,127
93503,note_off,95,0,0,,11,,,58,127
93504,note_on,1,0,0,,0,,,60,127
93599,note_off,95,0,0,,0,,,60,127
93600,note_on,1,0,0,,2,,,62,127
93695,note_off,95,0,0,,2,,,62,127
93696,note_on,1,0,0,,3,,,63,127
93791,note_off,95,0,0,,3,,,63,127
93791,note_off,0,0,0,,5,,,65,127
93792,note_on,1,0,0,,5,,,41,127
93792,note_on,0,0,0,,5,,,65,127
93983,note_off,191,0,0,,5,,,65,127
93984,note_on,1,0,0,,3,,,63,127
94175,note_off,191,0,0,,3,,,63,127
94175,note_off,0,0,0,,5,,,41,127
94176,note_on,1,0,0,,10,,,57,127
94176,note_on,0,0,0,,5,,,65,127
94271,note_off,95,0,0,,5,,,65,127
94272,note_on,1,0,0,,3,,,63,127
94367,note_off,95,0,0,,3,,,63,127
94368,note_on,1,0,0,,2,,,62,127
94463,note_off,95,0,0,,2,,,62,127
94464,note_on,1,0,0,,0,,,60,127
94559,note_off,95,0,0,,0,,,60,127
94559,note_off,0,0,0,,10,,,57,127
94560,note_on,1,0,0,,11,,,58,127
94560,note_on,0,0,0,,2,,,62,127
94752,note_on,192,0,0,,2,,,74,127
94940,note_off,188,0,0,,2,,,62,127
94943,note_off,3,0,0,,2,,,74,127
94944,note_on,1,0,0,,3,,,51,127
94944,note_on,0,0,0,,0,,,72,127
95039,note_off,95,0,0,,0,,,72,127
95040,note_on,1,0,0,,11,,,70,127
95135,note_off,95,0,0,,11,,,70,127
95135,note_off,0,0,0,,11,,,58,127
95136,note_on,1,0,0,,0,,,60,127
95136,note_on,0,0,0,,10,,,69,127
95231,note_off,95,0,0,,10,,,69,127
95232,note_on,1,0,0,,7,,,67,127
95327,note_off,95,0,0,,7,,,67,127
95327,note_off,0,0,0,,0,,,60,127
95327,note_off,0,0,0,,3,,,51,127
95328,note_on,1,0,0,,5,,,53,127
95328,note_on,0,0,0,,2,,,62,127
95328,note_on,0,0,0,,11,,,58,127
95328,note_on,0,0,0,,5,,,65,127
95615,note_off,287,0,0,,5,,,65,127
95616,note_on,1,0,0,,7,,,67,127
95664,note_on,48,0,0,,10,,,69,127
95680,note_off,16,0,0,,7,,,67,127
95711,note_off,31,0,0,,11,,,58,127
95711,note_off,0,0,0,,2,,,62,127
95711,note_off,0,0,0,,5,,,53,127
95712,note_on,1,0,0,,5,,,53,127
95712,note_on,0,0,0,,3,,,63,127
95712,note_on,0,0,0,,0,,,60,127
95712,note_on,0,0,0,,11,,,70,127
95728,note_off,16,0,0,,10,,,69,127
95760,note_on,32,0,0,,10,,,69,127
95776,note_off,16,0,0,,11,,,70,127
95808,note_on,32,0,0,,11,,,70,127
95824,note_off,16,0,0,,10,,,69,127
95856,note_on,32,0,0,,10,,,69,127
95872,note_off,16,0,0,,11,,,70,127
95904,note_on,32,0,0,,11,,,70,127
95920,note_off,16,0,0,,10,,,69,127
95952,note_on,32,0,0,,10,,,69,127
95968,note_off,16,0,0,,11,,,70,127
96000,note_on,32,0,0,,7,,,67,127
96016,note_off,16,0,0,,10,,,69,127
96048,note_on,32,0,0,,10,,,69,127
96064,note_off,16,0,0,,7,,,67,127
96095,note_off,31,0,0,,0,,,60,127
96095,note_off,0,0,0,,3,,,63,127
96095,note_off,0,0,0,,5,,,53,127
96096,note_on,1,0,0,,11,,,58,127
96096,note_on,0,0,0,,11,,,70,127
96112,note_off,16,0,0,,10,,,69,127
96288,note_on,176,0,0,,11,,,82,127
96476,note_off,188,0,0,,11,,,70,127
96479,note_off,3,0,0,,11,,,82,127
96479,note_off,0,0,0,,11,,,58,127
96480,note_on,1,0,0,,2,,,74,127
96480,note_on,0,0,0,,11,,,70,127
96480,note_on,0,0,0,,6,,,78,127
96671,note_off,191,0,0,,6,,,78,127
96672,note_on,1,0,0,,7,,,79,127
96863,note_off,191,0,0,,7,,,79,127
96863,note_off,0,0,0,,11,,,70,127
96863,note_off,0,0,0,,2,,,74,127
96864,note_on,1,0,0,,0,,,72,127
96864,note_on,0,0,0,,10,,,69,127
96864,note_on,0,0,0,,4,,,76,127
97055,note_off,191,0,0,,4,,,76,127
97056,note_on,1,0,0,,5,,,77,127
97247,note_off,191,0,0,,5,,,77,127
97247,note_off,0,0,0,,10,,,69,127
97247,note_off,0,0,0,,0,,,72,127
97248,note_on,1,0,0,,10,,,69,127
97248,note_on,0,0,0,,5,,,65,127
97248,note_on,0,0,0,,2,,,74,127
97439,note_off,191,0,0,,2,,,74,127
97440,note_on,1,0,0,,3,,,75,127
97631,note_off,191,0,0,,3,,,75,127
97631,note_off,0,0,0,,5,,,65,127
97631,note_off,0,0,0,,10,,,69,127
97632,note_on,1,0,0,,11,,,70,127
97632,note_on,0,0,0,,1,,,73,127
97823,note_off,191,0,0,,1,,,73,127
97824,note_on,1,0,0,,2,,,74,127
98015,note_off,191,0,0,,2,,,74,127
98015,note_off,0,0,0,,11,,,70,127
98016,note_on,1,0,0,,5,,,65,127
98016,note_on,0,0,0,,2,,,62,127
98016,note_on,0,0,0,,12,,,71,127
98207,note_off,191,0,0,,12,,,71,127
98208,note_on,1,0,0,,0,,,72,127
98399,note_off,191,0,0,,0,,,72,127
98399,note_off,0,0,0,,2,,,62,127
98399,note_off,0,0,0,,5,,,65,127
98400,note_on,1,0,0,,3,,,63,127
98400,note_on,0,0,0,,7,,,67,127
98400,note_on,0,0,0,,10,,,69,127
98591,note_off,191,0,0,,10,,,69,127
98592,note_on,1,0,0,,11,,,70,127
98783,note_off,191,0,0,,11,,,70,127
98783,note_off,0,0,0,,7,,,67,127
98783,note_off,0,0,0,,3,,,63,127
98784,note_on,1,0,0,,4,,,64,127
98784,note_on,0,0,0,,7,,,67,127
98975,note_off,191,0,0,,7,,,67,127
98976,note_on,1,0,0,,0,,,72,127
99167,note_off,191,0,0,,0,,,72,127
99167,note_off,0,0,0,,4,,,64,127
99168,note_on,1,0,0,,5,,,65,127
99168,note_on,0,0,0,,11,,,70,127
99263,note_off,95,0,0,,11,,,70,127
99264,note_on,1,0,0,,10,,,69,127
99359,note_off,95,0,0,,10,,,69,127
99360,note_on,1,0,0,,7,,,67,127
99455,note_off,95,0,0,,7,,,67,127
99455,note_off,0,0,0,,5,,,65,127
99456,note_on,1,0,0,,5,,,65,127
99551,note_off,95,0,0,,5,,,65,127
99552,note_on,1,0,0,,5,,,65,127
99552,note_on,0,0,0,,2,,,62,127
99552,note_on,0,0,0,,5,,,77,127
99743,note_off,191,0,0,,2,,,62,127
99743,note_off,0,0,0,,5,,,65,127
99744,note_on,1,0,0,,7,,,67,127
99744,note_on,0,0,0,,3,,,63,127
99935,note_off,191,0,0,,3,,,63,127
99935,note_off,0,0,0,,7,,,67,127
99936,note_on,1,0,0,,5,,,65,127
100031,note_off,95,0,0,,5,,,77,127
100032,note_on,1,0,0,,2,,,74,127
100127,note_off,95,0,0,,2,,,74,127
100128,note_on,1,0,0,,3,,,75,127
100223,note_off,95,0,0,,3,,,75,127
100224,note_on,1,0,0,,0,,,72,127
100319,note_off,95,0,0,,0,,,72,127
100320,note_on,1,0,0,,5,,,53,127
100320,note_on,0,0,0,,2,,,74,127
100415,note_off,95,0,0,,2,,,74,127
100416,note_on,1,0,0,,11,,,70,127
100511,note_off,95,0,0,,11,,,70,127
100512,note_on,1,0,0,,0,,,72,127
100607,note_off,95,0,0,,0,,,72,127
100608,note_on,1,0,0,,10,,,69,127
100703,note_off,95,0,0,,10,,,69,127
100703,note_off,0,0,0,,5,,,53,127
100703,note_off,0,0,0,,5,,,65,127
100704,note_on,1,0,0,,11,,,46,127
100704,note_on,0,0,0,,11,,,70,127
100896,note_on,192,0,0,,11,,,82,127
101084,note_off,188,0,0,,11,,,70,127
101087,note_off,3,0,0,,11,,,82,127
101087,note_off,0,0,0,,11,,,46,127
101088,note_on,1,0,0,,11,,,70,127
101088,note_on,0,0,0,,2,,,74,127
101088,note_on,0,0,0,,6,,,78,127
101279,note_off,191,0,0,,6,,,78,127
101280,note_on,1,0,0,,7,,,79,127
101471,note_off,191,0,0,,2,,,74,127
101471,note_off,0,0,0,,11,,,70,127
101472,note_on,1,0,0,,0,,,72,127
101472,note_on,0,0,0,,10,,,69,127
101567,note_off,95,0,0,,7,,,79,127
101568,note_on,1,0,0,,4,,,76,127
101663,note_off,95,0,0,,4,,,76,127
101664,note_on,1,0,0,,5,,,77,127
101855,note_off,191,0,0,,10,,,69,127
101855,note_off,0,0,0,,0,,,72,127
101856,note_on,1,0,0,,5,,,65,127
101856,note_on,0,0,0,,10,,,69,127
101951,note_off,95,0,0,,5,,,77,127
101952,note_on,1,0,0,,2,,,74,127
102047,note_off,95,0,0,,2,,,74,127
102048,note_on,1,0,0,,3,,,75,127
102239,note_off,191,0,0,,10,,,69,127
102239,note_off,0,0,0,,5,,,65,127
102240,note_on,1,0,0,,11,,,70,127
102335,note_off,95,0,0,,3,,,75,127
102336,note_on,1,0,0,,1,,,73,127
102431,note_off,95,0,0,,1,,,73,127
102432,note_on,1,0,0,,2,,,74,127
102623,note_off,191,0,0,,11,,,70,127
102624,note_on,1,0,0,,2,,,62,127
102624,note_on,0,0,0,,5,,,65,127
102719,note_off,95,0,0,,2,,,74,127
102720,note_on,1,0,0,,12,,,71,127
102815,note_off,95,0,0,,12,,,71,127
102816,note_on,1,0,0,,0,,,72,127
103007,note_off,191,0,0,,5,,,65,127
103007,note_off,0,0,0,,2,,,62,127
103008,note_on,1,0,0,,3,,,63,127
103008,note_on,0,0,0,,7,,,67,127
103103,note_off,95,0,0,,0,,,72,127
103104,note_on,1,0,0,,10,,,69,127
103199,note_off,95,0,0,,10,,,69,127
103200,note_on,1,0,0,,11,,,70,127
103391,note_off,191,0,0,,7,,,67,127
103391,note_off,0,0,0,,3,,,63,127
103392,note_on,1,0,0,,4,,,64,127
103487,note_off,95,0,0,,11,,,70,127
103488,note_on,1,0,0,,7,,,67,127
103583,note_off,95,0,0,,7,,,67,127
103584,note_on,1,0,0,,0,,,72,127
103775,note_off,191,0,0,,0,,,72,127
103775,note_off,0,0,0,,4,,,64,127
103776,note_on,1,0,0,,5,,,65,127
103776,note_on,0,0,0,,11,,,70,127
103871,note_off,95,0,0,,11,,,70,127
103872,note_on,1,0,0,,10,,,69,127
103967,note_off,95,0,0,,10,,,69,127
103968,note_on,1,0,0,,7,,,67,127
104063,note_off,95,0,0,,7,,,67,127
104063,note_off,0,0,0,,5,,,65,127
104064,note_on,1,0,0,,5,,,65,127
104159,note_off,95,0,0,,5,,,65,127
104160,note_on,1,0,0,,5,,,65,127
104160,note_on,0,0,0,,2,,,62,127
104160,note_on,0,0,0,,11,,,70,127
104160,note_on,0,0,0,,5,,,77,127
104351,note_off,191,0,0,,5,,,77,127
104351,note_off,0,0,0,,2,,,62,127
104351,note_off,0,0,0,,5,,,65,127
104352,note_on,1,0,0,,3,,,63,127
104352,note_on,0,0,0,,7,,,67,127
104352,note_on,0,0,0,,3,,,75,127
104543,note_off,191,0,0,,3,,,75,127
104543,note_off,0,0,0,,7,,,67,127
104543,note_off,0,0,0,,3,,,63,127
104543,note_off,0,0,0,,11,,,70,127
104544,note_on,1,0,0,,5,,,65,127
104544,note_on,0,0,0,,11,,,70,127
104544,note_on,0,0,0,,2,,,74,127
104927,note_off,383,0,0,,11,,,70,127
104928,note_on,1,0,0,,5,,,53,127
104928,note_on,0,0,0,,10,,,69,127
104973,note_off,45,0,0,,2,,,74,127
104976,note_on,3,0,0,,0,,,72,127
105024,note_on,48,0,0,,2,,,74,127
105040,note_off,16,0,0,,0,,,72,127
105072,note_on,32,0,0,,0,,,72,127
105088,note_off,16,0,0,,2,,,74,127
105311,note_off,223,0,0,,0,,,72,127
105311,note_off,0,0,0,,10,,,69,127
105311,note_off,0,0,0,,5,,,53,127
105311,note_off,0,0,0,,5,,,65,127
105312,note_on,1,0,0,,11,,,58,127
105312,note_on,0,0,0,,11,,,70,127
105407,note_off,95,0,0,,11,,,58,127
105408,note_on,1,0,0,,0,,,60,127
105503,note_off,95,0,0,,0,,,60,127
105504,note_on,1,0,0,,2,,,62,127
105599,note_off,95,0,0,,2,,,62,127
105600,note_on,1,0,0,,3,,,63,127
105695,note_off,95,0,0,,3,,,63,127
105695,note_off,0,0,0,,11,,,70,127
105696,note_on,1,0,0,,5,,,65,127
105696,note_on,0,0,0,,5,,,77,127
105791,note_off,95,0,0,,5,,,65,127
105792,note_on,1,0,0,,7,,,67,127
105887,note_off,95,0,0,,7,,,67,127
105888,note_on,1,0,0,,10,,,69,127
105983,note_off,95,0,0,,10,,,69,127
105984,note_on,1,0,0,,11,,,70,127
106079,note_off,95,0,0,,11,,,70,127
106080,note_on,1,0,0,,5,,,41,127
106271,note_off,191,0,0,,5,,,77,127
106272,note_on,1,0,0,,3,,,75,127
106272,note_on,0,0,0,,0,,,72,127
106463,note_off,191,0,0,,0,,,72,127
106463,note_off,0,0,0,,3,,,75,127
106464,note_on,1,0,0,,11,,,70,127
106464,note_on,0,0,0,,2,,,74,127
106655,note_off,191,0,0,,2,,,74,127
106655,note_off,0,0,0,,11,,,70,127
106656,note_on,1,0,0,,10,,,69,127
106656,note_on,0,0,0,,0,,,72,127
106847,note_off,191,0,0,,0,,,72,127
106847,note_off,0,0,0,,10,,,69,127
106847,note_off,0,0,0,,5,,,41,127
106848,note_on,1,0,0,,11,,,58,127
106848,note_on,0,0,0,,2,,,74,127
106848,note_on,0,0,0,,11,,,70,127
106943,note_off,95,0,0,,11,,,58,127
106944,note_on,1,0,0,,0,,,60,127
107039,note_off,95,0,0,,0,,,60,127
107040,note_on,1,0,0,,2,,,62,127
107135,note_off,95,0,0,,2,,,62,127
107136,note_on,1,0,0,,3,,,63,127
107231,note_off,95,0,0,,3,,,63,127
107231,note_off,0,0,0,,11,,,70,127
107231,note_off,0,0,0,,2,,,74,127
107232,note_on,1,0,0,,5,,,65,127
107232,note_on,0,0,0,,11,,,82,127
107327,note_off,95,0,0,,5,,,65,127
107328,note_on,1,0,0,,7,,,67,127
107423,note_off,95,0,0,,7,,,67,127
107424,note_on,1,0,0,,10,,,69,127
107519,note_off,95,0,0,,10,,,69,127
107520,note_on,1,0,0,,11,,,70,127
107615,note_off,95,0,0,,11,,,70,127
107616,note_on,1,0,0,,5,,,41,127
107807,note_off,191,0,0,,11,,,82,127
107808,note_on,1,0,0,,0,,,84,127
107808,note_on,0,0,0,,3,,,75,127
107999,note_off,191,0,0,,3,,,75,127
107999,note_off,0,0,0,,0,,,84,127
108000,note_on,1,0,0,,11,,,82,127
108000,note_on,0,0,0,,2,,,74,127
108191,note_off,191,0,0,,2,,,74,127
108191,note_off,0,0,0,,11,,,82,127
108192,note_on,1,0,0,,10,,,81,127
108192,note_on,0,0,0,,0,,,72,127
108383,note_off,191,0,0,,0,,,72,127
108383,note_off,0,0,0,,10,,,81,127
108383,note_off,0,0,0,,5,,,41,127
108384,note_on,1,0,0,,11,,,58,127
108384,note_on,0,0,0,,11,,,82,127
108384,note_on,0,0,0,,2,,,74,127
108479,note_off,95,0,0,,11,,,58,127
108480,note_on,1,0,0,,0,,,60,127
108575,note_off,95,0,0,,0,,,60,127
108576,note_on,1,0,0,,2,,,62,127
108671,note_off,95,0,0,,2,,,62,127
108672,note_on,1,0,0,,3,,,63,127
108767,note_off,95,0,0,,3,,,63,127
108767,note_off,0,0,0,,2,,,74,127
108767,note_off,0,0,0,,11,,,82,127
108768,note_on,1,0,0,,5,,,65,127
108768,note_on,0,0,0,,5,,,77,127
108863,note_off,95,0,0,,5,,,65,127
108864,note_on,1,0,0,,7,,,67,127
108959,note_off,95,0,0,,7,,,67,127
108960,note_on,1,0,0,,10,,,69,127
109055,note_off,95,0,0,,10,,,69,127
109056,note_on,1,0,0,,11,,,70,127
109151,note_off,95,0,0,,11,,,70,127
109152,note_on,1,0,0,,5,,,41,127
109343,note_off,191,0,0,,5,,,77,127
109344,note_on,1,0,0,,3,,,75,127
109344,note_on,0,0,0,,0,,,72,127
109535,note_off,191,0,0,,0,,,72,127
109535,note_off,0,0,0,,3,,,75,127
109536,note_on,1,0,0,,11,,,70,127
109536,note_on,0,0,0,,2,,,74,127
109727,note_off,191,0,0,,2,,,74,127
109727,note_off,0,0,0,,11,,,70,127
109728,note_on,1,0,0,,10,,,69,127
109728,note_on,0,0,0,,0,,,72,127
109919,note_off,191,0,0,,0,,,72,127
109919,note_off,0,0,0,,10,,,69,127
109919,note_off,0,0,0,,5,,,41,127
109920,note_on,1,0,0,,11,,,58,127
109920,note_on,0,0,0,,11,,,70,127
109920,note_on,0,0,0,,2,,,74,127
110015,note_off,95,0,0,,11,,,58,127
110016,note_on,1,0,0,,0,,,60,127
110111,note_off,95,0,0,,0,,,60,127
110112,note_on,1,0,0,,2,,,62,127
110207,note_off,95,0,0,,2,,,62,127
110208,note_on,1,0,0,,3,,,63,127
110303,note_off,95,0,0,,3,,,63,127
110303,note_off,0,0,0,,2,,,74,127
110303,note_off,0,0,0,,11,,,70,127
110304,note_on,1,0,0,,5,,,65,127
110304,note_on,0,0,0,,11,,,82,127
110399,note_off,95,0,0,,5,,,65,127
110400,note_on,1,0,0,,7,,,67,127
110495,note_off,95,0,0,,7,,,67,127
110496,note_on,1,0,0,,10,,,69,127
110591,note_off,95,0,0,,10,,,69,127
110592,note_on,1,0,0,,11,,,70,127
110687,note_off,95,0,0,,11,,,70,127
110688,note_on,1,0,0,,5,,,41,127
110879,note_off,191,0,0,,11,,,82,127
110880,note_on,1,0,0,,0,,,84,127
110880,note_on,0,0,0,,3,,,75,127
111071,note_off,191,0,0,,3,,,75,127
111071,note_off,0,0,0,,0,,,84,127
111072,note_on,1,0,0,,11,,,82,127
111072,note_on,0,0,0,,2,,,74,127
111263,note_off,191,0,0,,2,,,74,127
111263,note_off,0,0,0,,11,,,82,127
111264,note_on,1,0,0,,10,,,81,127
111264,note_on,0,0,0,,0,,,72,127
111455,note_off,191,0,0,,0,,,72,127
111455,note_off,0,0,0,,10,,,81,127
111455,note_off,0,0,0,,5,,,41,127
111456,note_on,1,0,0,,11,,,58,127
111456,note_on,0,0,0,,2,,,74,127
111456,note_on,0,0,0,,11,,,82,127
111551,note_off,95,0,0,,11,,,82,127
111552,note_on,1,0,0,,10,,,81,127
111647,note_off,95,0,0,,10,,,81,127
111648,note_on,1,0,0,,7,,,79,127
111743,note_off,95,0,0,,7,,,79,127
111744,note_on,1,0,0,,5,,,77,127
111836,note_off,92,0,0,,2,,,74,127
111839,note_off,3,0,0,,5,,,77,127
111839,note_off,0,0,0,,11,,,58,127
111840,note_on,1,0,0,,3,,,51,127
111840,note_on,0,0,0,,3,,,75,127
111904,note_off,64,0,0,,3,,,75,127
111904,note_on,0,0,0,,2,,,74,127
111968,note_off,64,0,0,,2,,,74,127
111968,note_on,0,0,0,,0,,,72,127
112032,note_off,64,0,0,,0,,,72,127
112032,note_on,0,0,0,,11,,,70,127
112128,note_on,96,0,0,,7,,,79,127
112222,note_off,94,0,0,,11,,,70,127
112223,note_off,1,0,0,,7,,,79,127
112223,note_off,0,0,0,,3,,,51,127
112224,note_on,1,0,0,,5,,,53,127
112224,note_on,0,0,0,,5,,,77,127
112415,note_off,191,0,0,,5,,,77,127
112416,note_on,1,0,0,,11,,,70,127
112608,note_on,192,0,0,,5,,,41,127
112799,note_off,191,0,0,,11,,,70,127
112800,note_on,1,0,0,,10,,,69,127
112991,note_off,191,0,0,,10,,,69,127
112991,note_off,0,0,0,,5,,,41,127
112991,note_off,0,0,0,,5,,,53,127
112992,note_on,1,0,0,,11,,,46,127
112992,note_on,0,0,0,,11,,,70,127
113087,note_off,95,0,0,,11,,,70,127
113088,note_on,1,0,0,,10,,,69,127
113183,note_off,95,0,0,,10,,,69,127
113184,note_on,1,0,0,,7,,,67,127
113279,note_off,95,0,0,,7,,,67,127
113280,note_on,1,0,0,,5,,,65,127
113375,note_off,95,0,0,,5,,,65,127
113375,note_off,0,0,0,,11,,,46,127
113376,note_on,1,0,0,,3,,,51,127
113376,note_on,0,0,0,,3,,,63,127
113440,note_off,64,0,0,,3,,,63,127
113440,note_on,0,0,0,,2,,,62,127
113504,note_off,64,0,0,,2,,,62,127
113504,note_on,0,0,0,,0,,,60,127
113568,note_off,64,0,0,,0,,,60,127
113568,note_on,0,0,0,,11,,,58,127
113663,note_off,95,0,0,,11,,,58,127
113664,note_on,1,0,0,,7,,,67,127
113759,note_off,95,0,0,,7,,,67,127
113759,note_off,0,0,0,,3,,,51,127
113760,note_on,1,0,0,,5,,,53,127
113760,note_on,0,0,0,,5,,,65,127
113951,note_off,191,0,0,,5,,,65,127
113952,note_on,1,0,0,,11,,,58,127
114144,note_on,192,0,0,,5,,,41,127
114335,note_off,191,0,0,,11,,,58,127
114336,note_on,1,0,0,,10,,,57,127
114527,note_off,191,0,0,,10,,,57,127
114527,note_off,0,0,0,,5,,,41,127
114527,note_off,0,0,0,,5,,,53,127
114528,note_on,1,0,0,,11,,,46,127
114528,note_on,0,0,0,,11,,,58,127
116060,note_off,1532,0,0,,11,,,58,127
116060,note_off,0,0,0,,11,,,46,127
119808,end_of_track,3748,1,0,,,,,,
