tick,type,time,meta,track,program,channel,pitch,tempo,note,velocity
0,copyright,0,1,0,,,,,,
0,program_change,0,0,0,6,0,,,,
0,pitchwheel,0,0,0,,0,0,,,
0,program_change,0,0,0,6,1,,,,
0,pitchwheel,0,0,0,,1,-590,,,
0,program_change,0,0,0,6,2,,,,
0,pitchwheel,0,0,0,,2,-272,,,
0,program_change,0,0,0,6,3,,,,
0,pitchwheel,0,0,0,,3,-353,,,
0,program_change,0,0,0,6,4,,,,
0,pitchwheel,0,0,0,,4,-560,,,
0,program_change,0,0,0,6,5,,,,
0,pitchwheel,0,0,0,,5,-80,,,
0,program_change,0,0,0,6,6,,,,
0,pitchwheel,0,0,0,,6,-625,,,
0,program_change,0,0,0,6,7,,,,
0,pitchwheel,0,0,0,,7,-130,,,
0,program_change,0,0,0,6,8,,,,
0,pitchwheel,0,0,0,,8,-512,,,
0,program_change,0,0,0,6,10,,,,
0,pitchwheel,0,0,0,,10,-464,,,
0,program_change,0,0,0,6,11,,,,
0,pitchwheel,0,0,0,,11,-208,,,
0,program_change,0,0,0,6,12,,,,
0,pitchwheel,0,0,0,,12,-553,,,
0,set_tempo,0,1,0,,,,500000,,
115,note_on,115,0,0,,0,,,72,127
230,note_on,115,0,0,,7,,,67,127
271,note_off,41,0,0,,0,,,72,127
344,note_off,73,0,0,,7,,,67,127
345,note_on,1,0,0,,3,,,63,127
459,note_off,114,0,0,,3,,,63,127
460,note_on,1,0,0,,0,,,60,127
574,note_off,114,0,0,,0,,,60,127
575,note_on,1,0,0,,7,,,79,127
804,note_off,229,0,0,,7,,,79,127
805,note_on,1,0,0,,0,,,60,127
805,note_on,0,0,0,,8,,,80,127
920,note_on,115,0,0,,7,,,55,127
949,note_off,29,0,0,,0,,,60,127
1034,note_off,85,0,0,,7,,,55,127
1035,note_on,1,0,0,,3,,,51,127
1149,note_off,114,0,0,,3,,,51,127
1150,note_on,1,0,0,,0,,,48,127
1264,note_off,114,0,0,,0,,,48,127
1264,note_off,0,0,0,,8,,,80,127
1265,note_on,1,0,0,,7,,,67,127
1265,note_on,0,0,0,,7,,,79,127
1494,note_off,229,0,0,,7,,,79,127
1494,note_off,0,0,0,,7,,,67,127
1495,note_on,1,0,0,,8,,,68,127
1610,note_on,115,0,0,,0,,,72,127
1724,note_off,114,0,0,,0,,,72,127
1724,note_off,0,0,0,,8,,,68,127
1725,note_on,1,0,0,,5,,,65,127
1725,note_on,0,0,0,,2,,,74,127
1839,note_off,114,0,0,,2,,,74,127
1840,note_on,1,0,0,,5,,,77,127
1954,note_off,114,0,0,,5,,,77,127
1954,note_off,0,0,0,,5,,,65,127
1955,note_on,1,0,0,,7,,,67,127
1955,note_on,0,0,0,,3,,,75,127
2069,note_off,114,0,0,,3,,,75,127
2070,note_on,1,0,0,,12,,,71,127
2184,note_off,114,0,0,,12,,,71,127
2184,note_off,0,0,0,,7,,,67,127
2185,note_on,1,0,0,,0,,,72,127
2300,note_on,115,0,0,,0,,,60,127
2414,note_off,114,0,0,,0,,,60,127
2415,note_on,1,0,0,,3,,,63,127
2529,note_off,114,0,0,,3,,,63,127
2529,note_off,0,0,0,,0,,,72,127
2530,note_on,1,0,0,,5,,,65,127
2530,note_on,0,0,0,,12,,,71,127
2644,note_off,114,0,0,,12,,,71,127
2644,note_off,0,0,0,,5,,,65,127
2645,note_on,1,0,0,,3,,,63,127
2645,note_on,0,0,0,,0,,,72,127
2759,note_off,114,0,0,,0,,,72,127
2759,note_off,0,0,0,,3,,,63,127
2760,note_on,1,0,0,,12,,,59,127
2760,note_on,0,0,0,,2,,,74,127
2874,note_off,114,0,0,,2,,,74,127
2874,note_off,0,0,0,,12,,,59,127
2875,note_on,1,0,0,,0,,,60,127
2875,note_on,0,0,0,,3,,,75,127
2990,note_on,115,0,0,,3,,,63,127
3007,note_off,17,0,0,,0,,,60,127
3104,note_off,97,0,0,,3,,,75,127
3105,note_on,1,0,0,,2,,,62,127
3105,note_on,0,0,0,,5,,,77,127
3122,note_off,17,0,0,,3,,,63,127
3220,note_on,98,0,0,,5,,,65,127
3237,note_off,17,0,0,,2,,,62,127
3334,note_off,97,0,0,,5,,,77,127
3335,note_on,1,0,0,,3,,,63,127
3335,note_on,0,0,0,,7,,,79,127
3352,note_off,17,0,0,,5,,,65,127
3450,note_on,98,0,0,,7,,,67,127
3467,note_off,17,0,0,,3,,,63,127
3564,note_off,97,0,0,,7,,,67,127
3564,note_off,0,0,0,,7,,,79,127
3565,note_on,1,0,0,,5,,,65,127
3565,note_on,0,0,0,,8,,,80,127
3680,note_on,115,0,0,,0,,,72,127
3738,note_off,58,0,0,,8,,,80,127
3794,note_off,56,0,0,,0,,,72,127
3794,note_off,0,0,0,,5,,,65,127
3795,note_on,1,0,0,,7,,,67,127
3795,note_on,0,0,0,,12,,,71,127
3910,note_on,115,0,0,,7,,,79,127
4023,note_off,113,0,0,,12,,,71,127
4024,note_off,1,0,0,,7,,,67,127
4025,note_on,1,0,0,,8,,,68,127
4025,note_on,0,0,0,,0,,,72,127
4138,note_off,113,0,0,,7,,,79,127
4140,note_on,2,0,0,,5,,,77,127
4253,note_off,113,0,0,,0,,,72,127
4254,note_off,1,0,0,,5,,,77,127
4254,note_off,0,0,0,,8,,,68,127
4255,note_on,1,0,0,,7,,,67,127
4255,note_on,0,0,0,,7,,,79,127
4370,note_on,115,0,0,,2,,,74,127
4483,note_off,113,0,0,,7,,,79,127
4484,note_off,1,0,0,,2,,,74,127
4484,note_off,0,0,0,,7,,,67,127
4485,note_on,1,0,0,,8,,,68,127
4485,note_on,0,0,0,,5,,,77,127
4599,note_off,114,0,0,,5,,,77,127
4600,note_on,1,0,0,,3,,,75,127
4714,note_off,114,0,0,,3,,,75,127
4714,note_off,0,0,0,,8,,,68,127
4715,note_on,1,0,0,,8,,,68,127
4715,note_on,0,0,0,,2,,,74,127
4829,note_off,114,0,0,,2,,,74,127
4830,note_on,1,0,0,,0,,,72,127
4944,note_off,114,0,0,,0,,,72,127
4944,note_off,0,0,0,,8,,,68,127
4945,note_on,1,0,0,,7,,,67,127
4945,note_on,0,0,0,,0,,,72,127
4945,note_on,0,0,0,,2,,,74,127
5059,note_off,114,0,0,,2,,,74,127
5059,note_off,0,0,0,,0,,,72,127
5060,note_on,1,0,0,,12,,,71,127
5174,note_off,114,0,0,,12,,,71,127
5174,note_off,0,0,0,,7,,,67,127
5175,note_on,1,0,0,,8,,,68,127
5175,note_on,0,0,0,,5,,,77,127
5289,note_off,114,0,0,,5,,,77,127
5290,note_on,1,0,0,,3,,,75,127
5404,note_off,114,0,0,,3,,,75,127
5404,note_off,0,0,0,,8,,,68,127
5405,note_on,1,0,0,,8,,,68,127
5405,note_on,0,0,0,,2,,,74,127
5519,note_off,114,0,0,,2,,,74,127
5520,note_on,1,0,0,,0,,,72,127
5634,note_off,114,0,0,,0,,,72,127
5634,note_off,0,0,0,,8,,,68,127
5635,note_on,1,0,0,,7,,,67,127
5635,note_on,0,0,0,,2,,,74,127
5635,note_on,0,0,0,,0,,,72,127
5749,note_off,114,0,0,,0,,,72,127
5749,note_off,0,0,0,,2,,,74,127
5750,note_on,1,0,0,,12,,,71,127
5864,note_off,114,0,0,,12,,,71,127
5864,note_off,0,0,0,,7,,,67,127
5865,note_on,1,0,0,,8,,,68,127
5865,note_on,0,0,0,,5,,,77,127
5979,note_off,114,0,0,,5,,,77,127
5980,note_on,1,0,0,,3,,,75,127
6094,note_off,114,0,0,,3,,,75,127
6094,note_off,0,0,0,,8,,,68,127
6095,note_on,1,0,0,,8,,,68,127
6095,note_on,0,0,0,,2,,,74,127
6209,note_off,114,0,0,,2,,,74,127
6210,note_on,1,0,0,,0,,,72,127
6324,note_off,114,0,0,,0,,,72,127
6324,note_off,0,0,0,,8,,,68,127
6325,note_on,1,0,0,,7,,,67,127
6325,note_on,0,0,0,,0,,,72,127
6325,note_on,0,0,0,,2,,,74,127
6439,note_off,114,0,0,,2,,,74,127
6439,note_off,0,0,0,,0,,,72,127
6440,note_on,1,0,0,,12,,,71,127
6554,note_off,114,0,0,,12,,,71,127
6554,note_off,0,0,0,,7,,,67,127
6555,note_on,1,0,0,,10,,,69,127
6555,note_on,0,0,0,,7,,,79,127
6669,note_off,114,0,0,,7,,,79,127
6670,note_on,1,0,0,,5,,,77,127
6784,note_off,114,0,0,,5,,,77,127
6784,note_off,0,0,0,,10,,,69,127
6785,note_on,1,0,0,,12,,,71,127
6785,note_on,0,0,0,,3,,,75,127
6899,note_off,114,0,0,,3,,,75,127
6900,note_on,1,0,0,,2,,,74,127
7014,note_off,114,0,0,,2,,,74,127
7014,note_off,0,0,0,,12,,,71,127
7015,note_on,1,0,0,,0,,,60,127
7015,note_on,0,0,0,,2,,,74,127
7129,note_off,114,0,0,,2,,,74,127
7130,note_on,1,0,0,,3,,,75,127
7244,note_off,114,0,0,,3,,,75,127
7244,note_off,0,0,0,,0,,,60,127
7245,note_on,1,0,0,,2,,,62,127
7245,note_on,0,0,0,,0,,,84,127
7359,note_off,114,0,0,,0,,,84,127
7360,note_on,1,0,0,,11,,,82,127
7474,note_off,114,0,0,,11,,,82,127
7474,note_off,0,0,0,,2,,,62,127
7475,note_on,1,0,0,,3,,,63,127
7475,note_on,0,0,0,,8,,,80,127
7589,note_off,114,0,0,,8,,,80,127
7590,note_on,1,0,0,,7,,,79,127
7704,note_off,114,0,0,,7,,,79,127
7704,note_off,0,0,0,,3,,,63,127
7705,note_on,1,0,0,,5,,,65,127
7705,note_on,0,0,0,,8,,,80,127
7819,note_off,114,0,0,,8,,,80,127
7820,note_on,1,0,0,,7,,,79,127
7934,note_off,114,0,0,,7,,,79,127
7934,note_off,0,0,0,,5,,,65,127
7935,note_on,1,0,0,,7,,,67,127
7935,note_on,0,0,0,,5,,,77,127
8049,note_off,114,0,0,,5,,,77,127
8050,note_on,1,0,0,,3,,,75,127
8164,note_off,114,0,0,,3,,,75,127
8164,note_off,0,0,0,,7,,,67,127
8165,note_on,1,0,0,,8,,,68,127
8165,note_on,0,0,0,,2,,,74,127
8279,note_off,114,0,0,,2,,,74,127
8280,note_on,1,0,0,,0,,,72,127
8394,note_off,114,0,0,,8,,,68,127
8395,note_on,1,0,0,,11,,,58,127
8508,note_off,113,0,0,,0,,,72,127
8510,note_on,2,0,0,,2,,,74,127
8624,note_off,114,0,0,,2,,,74,127
8624,note_off,0,0,0,,11,,,58,127
8625,note_on,1,0,0,,0,,,60,127
8625,note_on,0,0,0,,11,,,82,127
8739,note_off,114,0,0,,11,,,82,127
8740,note_on,1,0,0,,8,,,80,127
8854,note_off,114,0,0,,8,,,80,127
8854,note_off,0,0,0,,0,,,60,127
8855,note_on,1,0,0,,2,,,62,127
8855,note_on,0,0,0,,7,,,79,127
8969,note_off,114,0,0,,7,,,79,127
8970,note_on,1,0,0,,5,,,77,127
9084,note_off,114,0,0,,5,,,77,127
9084,note_off,0,0,0,,2,,,62,127
9085,note_on,1,0,0,,3,,,63,127
9085,note_on,0,0,0,,7,,,79,127
9200,note_on,115,0,0,,3,,,75,127
9217,note_off,17,0,0,,7,,,79,127
9314,note_off,97,0,0,,3,,,63,127
9315,note_on,1,0,0,,2,,,62,127
9315,note_on,0,0,0,,5,,,77,127
9332,note_off,17,0,0,,3,,,75,127
9430,note_on,98,0,0,,2,,,74,127
9447,note_off,17,0,0,,5,,,77,127
9544,note_off,97,0,0,,2,,,62,127
9545,note_on,1,0,0,,0,,,60,127
9545,note_on,0,0,0,,3,,,75,127
9562,note_off,17,0,0,,2,,,74,127
9660,note_on,98,0,0,,0,,,72,127
9677,note_off,17,0,0,,3,,,75,127
9774,note_off,97,0,0,,0,,,72,127
9774,note_off,0,0,0,,0,,,60,127
9775,note_on,1,0,0,,11,,,58,127
9775,note_on,0,0,0,,2,,,74,127
9889,note_off,114,0,0,,11,,,58,127
9890,note_on,1,0,0,,2,,,62,127
10004,note_off,114,0,0,,2,,,62,127
10004,note_off,0,0,0,,2,,,74,127
10005,note_on,1,0,0,,0,,,60,127
10005,note_on,0,0,0,,11,,,82,127
10119,note_off,114,0,0,,0,,,60,127
10120,note_on,1,0,0,,3,,,63,127
10234,note_off,114,0,0,,3,,,63,127
10234,note_off,0,0,0,,11,,,82,127
10235,note_on,1,0,0,,2,,,62,127
10235,note_on,0,0,0,,8,,,80,127
10235,note_on,0,0,0,,5,,,77,127
10349,note_off,114,0,0,,2,,,62,127
10350,note_on,1,0,0,,5,,,65,127
10464,note_off,114,0,0,,5,,,65,127
10464,note_off,0,0,0,,5,,,77,127
10464,note_off,0,0,0,,8,,,80,127
10465,note_on,1,0,0,,3,,,63,127
10465,note_on,0,0,0,,7,,,79,127
10465,note_on,0,0,0,,3,,,75,127
10579,note_off,114,0,0,,3,,,63,127
10580,note_on,1,0,0,,7,,,67,127
10694,note_off,114,0,0,,7,,,67,127
10694,note_off,0,0,0,,3,,,75,127
10694,note_off,0,0,0,,7,,,79,127
10695,note_on,1,0,0,,2,,,62,127
10695,note_on,0,0,0,,5,,,77,127
10695,note_on,0,0,0,,2,,,74,127
10809,note_off,114,0,0,,2,,,62,127
10810,note_on,1,0,0,,5,,,65,127
10924,note_off,114,0,0,,5,,,65,127
10924,note_off,0,0,0,,2,,,74,127
10924,note_off,0,0,0,,5,,,77,127
10925,note_on,1,0,0,,0,,,60,127
10925,note_on,0,0,0,,0,,,72,127
10925,note_on,0,0,0,,3,,,75,127
11039,note_off,114,0,0,,0,,,60,127
11040,note_on,1,0,0,,3,,,63,127
11154,note_off,114,0,0,,3,,,63,127
11154,note_off,0,0,0,,3,,,75,127
11154,note_off,0,0,0,,0,,,72,127
11155,note_on,1,0,0,,11,,,58,127
11155,note_on,0,0,0,,11,,,46,127
11270,note_on,115,0,0,,2,,,62,127
11287,note_off,17,0,0,,11,,,58,127
11384,note_off,97,0,0,,11,,,46,127
11385,note_on,1,0,0,,0,,,60,127
11385,note_on,0,0,0,,11,,,82,127
11402,note_off,17,0,0,,2,,,62,127
11500,note_on,98,0,0,,3,,,63,127
11517,note_off,17,0,0,,0,,,60,127
11614,note_off,97,0,0,,11,,,82,127
11615,note_on,1,0,0,,2,,,62,127
11615,note_on,0,0,0,,8,,,80,127
11615,note_on,0,0,0,,5,,,77,127
11632,note_off,17,0,0,,3,,,63,127
11730,note_on,98,0,0,,5,,,65,127
11747,note_off,17,0,0,,2,,,62,127
11844,note_off,97,0,0,,5,,,77,127
11844,note_off,0,0,0,,8,,,80,127
11845,note_on,1,0,0,,3,,,63,127
11845,note_on,0,0,0,,7,,,79,127
11845,note_on,0,0,0,,3,,,75,127
11862,note_off,17,0,0,,5,,,65,127
11960,note_on,98,0,0,,7,,,67,127
11977,note_off,17,0,0,,3,,,63,127
12074,note_off,97,0,0,,3,,,75,127
12074,note_off,0,0,0,,7,,,79,127
12075,note_on,1,0,0,,2,,,62,127
12075,note_on,0,0,0,,2,,,74,127
12075,note_on,0,0,0,,5,,,77,127
12092,note_off,17,0,0,,7,,,67,127
12190,note_on,98,0,0,,5,,,65,127
12207,note_off,17,0,0,,2,,,62,127
12304,note_off,97,0,0,,5,,,77,127
12304,note_off,0,0,0,,2,,,74,127
12305,note_on,1,0,0,,0,,,60,127
12305,note_on,0,0,0,,3,,,75,127
12305,note_on,0,0,0,,0,,,72,127
12322,note_off,17,0,0,,5,,,65,127
12420,note_on,98,0,0,,3,,,63,127
12437,note_off,17,0,0,,0,,,60,127
12534,note_off,97,0,0,,0,,,72,127
12534,note_off,0,0,0,,3,,,75,127
12535,note_on,1,0,0,,11,,,58,127
12535,note_on,0,0,0,,11,,,46,127
12552,note_off,17,0,0,,3,,,63,127
12650,note_on,98,0,0,,2,,,62,127
12703,note_off,53,0,0,,11,,,58,127
12764,note_off,61,0,0,,11,,,46,127
12765,note_on,1,0,0,,0,,,60,127
12765,note_on,0,0,0,,11,,,82,127
12818,note_off,53,0,0,,2,,,62,127
12880,note_on,62,0,0,,3,,,63,127
12933,note_off,53,0,0,,0,,,60,127
12994,note_off,61,0,0,,11,,,82,127
12995,note_on,1,0,0,,2,,,62,127
12995,note_on,0,0,0,,5,,,77,127
12995,note_on,0,0,0,,8,,,80,127
13048,note_off,53,0,0,,3,,,63,127
13110,note_on,62,0,0,,5,,,65,127
13163,note_off,53,0,0,,2,,,62,127
13224,note_off,61,0,0,,8,,,80,127
13224,note_off,0,0,0,,5,,,77,127
13225,note_on,1,0,0,,3,,,63,127
13225,note_on,0,0,0,,3,,,75,127
13225,note_on,0,0,0,,7,,,79,127
13278,note_off,53,0,0,,5,,,65,127
13340,note_on,62,0,0,,7,,,67,127
13393,note_off,53,0,0,,3,,,63,127
13454,note_off,61,0,0,,7,,,79,127
13454,note_off,0,0,0,,3,,,75,127
13455,note_on,1,0,0,,2,,,62,127
13455,note_on,0,0,0,,5,,,77,127
13455,note_on,0,0,0,,2,,,74,127
13508,note_off,53,0,0,,7,,,67,127
13570,note_on,62,0,0,,5,,,65,127
13623,note_off,53,0,0,,2,,,62,127
13684,note_off,61,0,0,,2,,,74,127
13684,note_off,0,0,0,,5,,,77,127
13685,note_on,1,0,0,,0,,,60,127
13685,note_on,0,0,0,,3,,,75,127
13685,note_on,0,0,0,,0,,,72,127
13738,note_off,53,0,0,,5,,,65,127
13800,note_on,62,0,0,,3,,,63,127
13853,note_off,53,0,0,,0,,,60,127
13914,note_off,61,0,0,,0,,,72,127
13914,note_off,0,0,0,,3,,,75,127
13915,note_on,1,0,0,,11,,,58,127
13915,note_on,0,0,0,,11,,,46,127
13968,note_off,53,0,0,,3,,,63,127
13992,note_on,24,0,0,,2,,,62,127
14065,note_off,73,0,0,,11,,,58,127
14069,note_on,4,0,0,,5,,,65,127
14142,note_off,73,0,0,,2,,,62,127
14144,note_off,2,0,0,,11,,,46,127
14145,note_on,1,0,0,,11,,,58,127
14145,note_on,0,0,0,,0,,,48,127
14218,note_off,73,0,0,,5,,,65,127
14222,note_on,4,0,0,,2,,,62,127
14295,note_off,73,0,0,,11,,,58,127
14299,note_on,4,0,0,,5,,,65,127
14372,note_off,73,0,0,,2,,,62,127
14374,note_off,2,0,0,,0,,,48,127
14375,note_on,1,0,0,,11,,,58,127
14375,note_on,0,0,0,,2,,,50,127
14448,note_off,73,0,0,,5,,,65,127
14452,note_on,4,0,0,,2,,,62,127
14525,note_off,73,0,0,,11,,,58,127
14529,note_on,4,0,0,,5,,,65,127
14602,note_off,73,0,0,,2,,,62,127
14604,note_off,2,0,0,,2,,,50,127
14605,note_on,1,0,0,,11,,,58,127
14605,note_on,0,0,0,,3,,,51,127
14678,note_off,73,0,0,,5,,,65,127
14682,note_on,4,0,0,,3,,,63,127
14755,note_off,73,0,0,,11,,,58,127
14759,note_on,4,0,0,,7,,,67,127
14832,note_off,73,0,0,,3,,,63,127
14834,note_off,2,0,0,,3,,,51,127
14835,note_on,1,0,0,,11,,,58,127
14835,note_on,0,0,0,,7,,,43,127
14908,note_off,73,0,0,,7,,,67,127
14912,note_on,4,0,0,,3,,,63,127
14985,note_off,73,0,0,,11,,,58,127
14989,note_on,4,0,0,,7,,,67,127
15062,note_off,73,0,0,,3,,,63,127
15064,note_off,2,0,0,,7,,,43,127
15065,note_on,1,0,0,,11,,,58,127
15065,note_on,0,0,0,,8,,,44,127
15138,note_off,73,0,0,,7,,,67,127
15142,note_on,4,0,0,,3,,,63,127
15215,note_off,73,0,0,,11,,,58,127
15219,note_on,4,0,0,,7,,,67,127
15292,note_off,73,0,0,,3,,,63,127
15294,note_off,2,0,0,,8,,,44,127
15295,note_on,1,0,0,,11,,,58,127
15295,note_on,0,0,0,,11,,,46,127
15368,note_off,73,0,0,,7,,,67,127
15372,note_on,4,0,0,,2,,,62,127
15445,note_off,73,0,0,,11,,,58,127
15449,note_on,4,0,0,,5,,,65,127
15522,note_off,73,0,0,,2,,,62,127
15524,note_off,2,0,0,,11,,,46,127
15525,note_on,1,0,0,,11,,,58,127
15525,note_on,0,0,0,,0,,,48,127
15598,note_off,73,0,0,,5,,,65,127
15602,note_on,4,0,0,,2,,,62,127
15675,note_off,73,0,0,,11,,,58,127
15679,note_on,4,0,0,,5,,,65,127
15752,note_off,73,0,0,,2,,,62,127
15754,note_off,2,0,0,,0,,,48,127
15755,note_on,1,0,0,,11,,,58,127
15755,note_on,0,0,0,,2,,,50,127
15828,note_off,73,0,0,,5,,,65,127
15832,note_on,4,0,0,,2,,,62,127
15905,note_off,73,0,0,,11,,,58,127
15909,note_on,4,0,0,,5,,,65,127
15982,note_off,73,0,0,,2,,,62,127
15984,note_off,2,0,0,,2,,,50,127
15985,note_on,1,0,0,,11,,,58,127
15985,note_on,0,0,0,,3,,,51,127
16058,note_off,73,0,0,,5,,,65,127
16062,note_on,4,0,0,,3,,,63,127
16135,note_off,73,0,0,,11,,,58,127
16139,note_on,4,0,0,,7,,,67,127
16212,note_off,73,0,0,,3,,,63,127
16214,note_off,2,0,0,,3,,,51,127
16215,note_on,1,0,0,,11,,,58,127
16215,note_on,0,0,0,,7,,,43,127
16288,note_off,73,0,0,,7,,,67,127
16292,note_on,4,0,0,,3,,,63,127
16365,note_off,73,0,0,,11,,,58,127
16369,note_on,4,0,0,,7,,,67,127
16442,note_off,73,0,0,,3,,,63,127
16444,note_off,2,0,0,,7,,,43,127
16445,note_on,1,0,0,,11,,,58,127
16445,note_on,0,0,0,,8,,,44,127
16518,note_off,73,0,0,,7,,,67,127
16522,note_on,4,0,0,,3,,,63,127
16595,note_off,73,0,0,,11,,,58,127
16599,note_on,4,0,0,,7,,,67,127
16672,note_off,73,0,0,,3,,,63,127
16674,note_off,2,0,0,,8,,,44,127
16675,note_on,1,0,0,,11,,,58,127
16675,note_on,0,0,0,,11,,,46,127
16748,note_off,73,0,0,,7,,,67,127
16752,note_on,4,0,0,,2,,,62,127
16825,note_off,73,0,0,,11,,,58,127
16829,note_on,4,0,0,,5,,,65,127
16902,note_off,73,0,0,,2,,,62,127
16904,note_off,2,0,0,,11,,,46,127
16905,note_on,1,0,0,,11,,,58,127
16905,note_on,0,0,0,,0,,,48,127
16978,note_off,73,0,0,,5,,,65,127
16982,note_on,4,0,0,,2,,,62,127
17055,note_off,73,0,0,,11,,,58,127
17059,note_on,4,0,0,,5,,,65,127
17132,note_off,73,0,0,,2,,,62,127
17134,note_off,2,0,0,,0,,,48,127
17135,note_on,1,0,0,,11,,,58,127
17135,note_on,0,0,0,,2,,,50,127
17208,note_off,73,0,0,,5,,,65,127
17212,note_on,4,0,0,,2,,,62,127
17285,note_off,73,0,0,,11,,,58,127
17289,note_on,4,0,0,,5,,,65,127
17362,note_off,73,0,0,,2,,,62,127
17364,note_off,2,0,0,,2,,,50,127
17365,note_on,1,0,0,,11,,,58,127
17365,note_on,0,0,0,,3,,,51,127
17438,note_off,73,0,0,,5,,,65,127
17442,note_on,4,0,0,,3,,,63,127
17515,note_off,73,0,0,,11,,,58,127
17519,note_on,4,0,0,,7,,,67,127
17592,note_off,73,0,0,,3,,,63,127
17594,note_off,2,0,0,,3,,,51,127
17595,note_on,1,0,0,,11,,,58,127
17595,note_on,0,0,0,,7,,,43,127
17668,note_off,73,0,0,,7,,,67,127
17672,note_on,4,0,0,,3,,,63,127
17745,note_off,73,0,0,,11,,,58,127
17749,note_on,4,0,0,,7,,,67,127
17822,note_off,73,0,0,,3,,,63,127
17824,note_off,2,0,0,,7,,,43,127
17825,note_on,1,0,0,,11,,,58,127
17825,note_on,0,0,0,,8,,,44,127
17898,note_off,73,0,0,,7,,,67,127
17902,note_on,4,0,0,,3,,,63,127
17975,note_off,73,0,0,,11,,,58,127
17979,note_on,4,0,0,,7,,,67,127
18052,note_off,73,0,0,,3,,,63,127
18053,note_off,1,0,0,,7,,,67,127
18054,note_off,1,0,0,,8,,,44,127
18054,note_on,0,0,0,,11,,,58,127
18055,note_on,1,0,0,,11,,,46,127
18169,note_off,114,0,0,,11,,,58,127
18170,note_on,1,0,0,,2,,,62,127
18284,note_off,114,0,0,,2,,,62,127
18284,note_off,0,0,0,,11,,,46,127
18285,note_on,1,0,0,,0,,,60,127
18285,note_on,0,0,0,,11,,,82,127
18399,note_off,114,0,0,,0,,,60,127
18400,note_on,1,0,0,,3,,,63,127
18514,note_off,114,0,0,,3,,,63,127
18514,note_off,0,0,0,,11,,,82,127
18515,note_on,1,0,0,,2,,,62,127
18515,note_on,0,0,0,,5,,,77,127
18515,note_on,0,0,0,,8,,,80,127
18629,note_off,114,0,0,,2,,,62,127
18630,note_on,1,0,0,,5,,,65,127
18744,note_off,114,0,0,,5,,,65,127
18744,note_off,0,0,0,,8,,,80,127
18744,note_off,0,0,0,,5,,,77,127
18745,note_on,1,0,0,,3,,,63,127
18745,note_on,0,0,0,,7,,,79,127
18745,note_on,0,0,0,,3,,,75,127
18859,note_off,114,0,0,,3,,,63,127
18860,note_on,1,0,0,,7,,,67,127
18974,note_off,114,0,0,,7,,,67,127
18974,note_off,0,0,0,,3,,,75,127
18974,note_off,0,0,0,,7,,,79,127
18975,note_on,1,0,0,,2,,,62,127
18975,note_on,0,0,0,,2,,,74,127
18975,note_on,0,0,0,,5,,,77,127
19089,note_off,114,0,0,,2,,,62,127
19090,note_on,1,0,0,,5,,,65,127
19204,note_off,114,0,0,,5,,,65,127
19204,note_off,0,0,0,,5,,,77,127
19204,note_off,0,0,0,,2,,,74,127
19205,note_on,1,0,0,,0,,,60,127
19205,note_on,0,0,0,,6,,,78,127
19205,note_on,0,0,0,,3,,,75,127
19319,note_off,114,0,0,,0,,,60,127
19320,note_on,1,0,0,,3,,,63,127
19434,note_off,114,0,0,,3,,,63,127
19434,note_off,0,0,0,,3,,,75,127
19434,note_off,0,0,0,,6,,,78,127
19435,note_on,1,0,0,,11,,,58,127
19435,note_on,0,0,0,,7,,,79,127
19435,note_on,0,0,0,,2,,,74,127
19550,note_on,115,0,0,,7,,,67,127
19579,note_off,29,0,0,,11,,,58,127
19664,note_off,85,0,0,,2,,,74,127
19664,note_off,0,0,0,,7,,,79,127
19665,note_on,1,0,0,,10,,,57,127
19665,note_on,0,0,0,,0,,,72,127
19694,note_off,29,0,0,,7,,,67,127
19780,note_on,86,0,0,,6,,,66,127
19809,note_off,29,0,0,,10,,,57,127
19894,note_off,85,0,0,,0,,,72,127
19895,note_on,1,0,0,,7,,,55,127
19895,note_on,0,0,0,,11,,,70,127
19924,note_off,29,0,0,,6,,,66,127
20010,note_on,86,0,0,,7,,,67,127
20039,note_off,29,0,0,,7,,,55,127
20124,note_off,85,0,0,,11,,,70,127
20125,note_on,1,0,0,,0,,,48,127
20125,note_on,0,0,0,,10,,,69,127
20154,note_off,29,0,0,,7,,,67,127
20240,note_on,86,0,0,,0,,,60,127
20269,note_off,29,0,0,,0,,,48,127
20354,note_off,85,0,0,,10,,,69,127
20355,note_on,1,0,0,,2,,,50,127
20355,note_on,0,0,0,,3,,,75,127
20384,note_off,29,0,0,,0,,,60,127
20470,note_on,86,0,0,,0,,,60,127
20499,note_off,29,0,0,,2,,,50,127
20584,note_off,85,0,0,,3,,,75,127
20585,note_on,1,0,0,,3,,,51,127
20585,note_on,0,0,0,,7,,,67,127
20614,note_off,29,0,0,,0,,,60,127
20700,note_on,86,0,0,,0,,,60,127
20729,note_off,29,0,0,,3,,,51,127
20814,note_off,85,0,0,,7,,,67,127
20815,note_on,1,0,0,,2,,,50,127
20815,note_on,0,0,0,,6,,,66,127
20844,note_off,29,0,0,,0,,,60,127
20930,note_on,86,0,0,,2,,,62,127
20959,note_off,29,0,0,,2,,,50,127
21044,note_off,85,0,0,,6,,,66,127
21045,note_on,1,0,0,,4,,,52,127
21045,note_on,0,0,0,,2,,,74,127
21074,note_off,29,0,0,,2,,,62,127
21160,note_on,86,0,0,,2,,,62,127
21189,note_off,29,0,0,,4,,,52,127
21274,note_off,85,0,0,,2,,,74,127
21275,note_on,1,0,0,,6,,,54,127
21275,note_on,0,0,0,,0,,,72,127
21304,note_off,29,0,0,,2,,,62,127
21390,note_on,86,0,0,,2,,,62,127
21419,note_off,29,0,0,,6,,,54,127
21504,note_off,85,0,0,,0,,,72,127
21505,note_on,1,0,0,,7,,,55,127
21505,note_on,0,0,0,,11,,,70,127
21534,note_off,29,0,0,,2,,,62,127
21620,note_on,86,0,0,,2,,,62,127
21649,note_off,29,0,0,,7,,,55,127
21734,note_off,85,0,0,,11,,,70,127
21735,note_on,1,0,0,,5,,,53,127
21735,note_on,0,0,0,,10,,,69,127
21764,note_off,29,0,0,,2,,,62,127
21850,note_on,86,0,0,,2,,,62,127
21879,note_off,29,0,0,,5,,,53,127
21964,note_off,85,0,0,,10,,,69,127
21965,note_on,1,0,0,,3,,,51,127
21965,note_on,0,0,0,,7,,,67,127
21994,note_off,29,0,0,,2,,,62,127
22080,note_on,86,0,0,,0,,,60,127
22109,note_off,29,0,0,,3,,,51,127
22194,note_off,85,0,0,,7,,,67,127
22195,note_on,1,0,0,,2,,,50,127
22195,note_on,0,0,0,,2,,,38,127
22224,note_off,29,0,0,,0,,,60,127
22310,note_on,86,0,0,,2,,,62,127
22339,note_off,29,0,0,,2,,,50,127
22424,note_off,85,0,0,,2,,,38,127
22425,note_on,1,0,0,,6,,,54,127
22425,note_on,0,0,0,,2,,,74,127
22454,note_off,29,0,0,,2,,,62,127
22540,note_on,86,0,0,,2,,,62,127
22569,note_off,29,0,0,,6,,,54,127
22654,note_off,85,0,0,,2,,,74,127
22655,note_on,1,0,0,,2,,,50,127
22655,note_on,0,0,0,,0,,,72,127
22684,note_off,29,0,0,,2,,,62,127
22770,note_on,86,0,0,,2,,,62,127
22799,note_off,29,0,0,,2,,,50,127
22884,note_off,85,0,0,,0,,,72,127
22885,note_on,1,0,0,,7,,,55,127
22885,note_on,0,0,0,,11,,,70,127
22914,note_off,29,0,0,,2,,,62,127
23000,note_on,86,0,0,,2,,,62,127
23029,note_off,29,0,0,,7,,,55,127
23114,note_off,85,0,0,,11,,,70,127
23115,note_on,1,0,0,,5,,,53,127
23115,note_on,0,0,0,,10,,,69,127
23144,note_off,29,0,0,,2,,,62,127
23230,note_on,86,0,0,,2,,,62,127
23259,note_off,29,0,0,,5,,,53,127
23344,note_off,85,0,0,,10,,,69,127
23345,note_on,1,0,0,,3,,,51,127
23345,note_on,0,0,0,,7,,,67,127
23374,note_off,29,0,0,,2,,,62,127
23460,note_on,86,0,0,,0,,,60,127
23489,note_off,29,0,0,,3,,,51,127
23574,note_off,85,0,0,,7,,,67,127
23575,note_on,1,0,0,,2,,,50,127
23575,note_on,0,0,0,,2,,,38,127
23604,note_off,29,0,0,,0,,,60,127
23690,note_on,86,0,0,,2,,,62,127
23719,note_off,29,0,0,,2,,,50,127
23804,note_off,85,0,0,,2,,,38,127
23805,note_on,1,0,0,,6,,,54,127
23805,note_on,0,0,0,,2,,,74,127
23834,note_off,29,0,0,,2,,,62,127
23920,note_on,86,0,0,,2,,,62,127
23949,note_off,29,0,0,,6,,,54,127
24034,note_off,85,0,0,,2,,,74,127
24035,note_on,1,0,0,,2,,,50,127
24035,note_on,0,0,0,,0,,,72,127
24064,note_off,29,0,0,,2,,,62,127
24150,note_on,86,0,0,,2,,,62,127
24179,note_off,29,0,0,,2,,,50,127
24264,note_off,85,0,0,,0,,,72,127
24265,note_on,1,0,0,,7,,,55,127
24265,note_on,0,0,0,,11,,,70,127
24294,note_off,29,0,0,,2,,,62,127
24380,note_on,86,0,0,,2,,,62,127
24409,note_off,29,0,0,,7,,,55,127
24494,note_off,85,0,0,,11,,,70,127
24495,note_on,1,0,0,,5,,,53,127
24495,note_on,0,0,0,,10,,,69,127
24524,note_off,29,0,0,,2,,,62,127
24610,note_on,86,0,0,,2,,,62,127
24639,note_off,29,0,0,,5,,,53,127
24724,note_off,85,0,0,,10,,,69,127
24725,note_on,1,0,0,,3,,,51,127
24725,note_on,0,0,0,,7,,,67,127
24754,note_off,29,0,0,,2,,,62,127
24840,note_on,86,0,0,,0,,,60,127
24869,note_off,29,0,0,,3,,,51,127
24954,note_off,85,0,0,,7,,,67,127
24955,note_on,1,0,0,,2,,,50,127
24955,note_on,0,0,0,,2,,,38,127
24984,note_off,29,0,0,,0,,,60,127
25070,note_on,86,0,0,,2,,,62,127
25099,note_off,29,0,0,,2,,,50,127
25184,note_off,85,0,0,,2,,,38,127
25185,note_on,1,0,0,,6,,,54,127
25185,note_on,0,0,0,,6,,,42,127
25214,note_off,29,0,0,,2,,,62,127
25300,note_on,86,0,0,,2,,,62,127
25329,note_off,29,0,0,,6,,,54,127
25414,note_off,85,0,0,,6,,,42,127
25415,note_on,1,0,0,,2,,,50,127
25415,note_on,0,0,0,,2,,,38,127
25444,note_off,29,0,0,,2,,,62,127
25530,note_on,86,0,0,,2,,,62,127
25559,note_off,29,0,0,,2,,,50,127
25644,note_off,85,0,0,,2,,,38,127
25645,note_on,1,0,0,,7,,,55,127
25645,note_on,0,0,0,,7,,,43,127
25674,note_off,29,0,0,,2,,,62,127
25760,note_on,86,0,0,,2,,,62,127
25789,note_off,29,0,0,,7,,,55,127
25874,note_off,85,0,0,,7,,,43,127
25875,note_on,1,0,0,,11,,,58,127
25875,note_on,0,0,0,,11,,,46,127
25904,note_off,29,0,0,,2,,,62,127
25990,note_on,86,0,0,,2,,,62,127
26019,note_off,29,0,0,,11,,,58,127
26104,note_off,85,0,0,,11,,,46,127
26105,note_on,1,0,0,,7,,,55,127
26105,note_on,0,0,0,,7,,,43,127
26134,note_off,29,0,0,,2,,,62,127
26220,note_on,86,0,0,,2,,,62,127
26249,note_off,29,0,0,,7,,,55,127
26334,note_off,85,0,0,,7,,,43,127
26335,note_on,1,0,0,,0,,,48,127
26335,note_on,0,0,0,,3,,,75,127
26364,note_off,29,0,0,,2,,,62,127
26450,note_on,86,0,0,,0,,,60,127
26479,note_off,29,0,0,,0,,,48,127
26564,note_off,85,0,0,,3,,,75,127
26565,note_on,1,0,0,,3,,,51,127
26565,note_on,0,0,0,,7,,,79,127
26594,note_off,29,0,0,,0,,,60,127
26680,note_on,86,0,0,,0,,,60,127
26709,note_off,29,0,0,,3,,,51,127
26794,note_off,85,0,0,,7,,,79,127
26795,note_on,1,0,0,,0,,,48,127
26795,note_on,0,0,0,,3,,,75,127
26824,note_off,29,0,0,,0,,,60,127
26910,note_on,86,0,0,,0,,,60,127
26939,note_off,29,0,0,,0,,,48,127
27024,note_off,85,0,0,,3,,,75,127
27025,note_on,1,0,0,,5,,,53,127
27025,note_on,0,0,0,,5,,,41,127
27054,note_off,29,0,0,,0,,,60,127
27140,note_on,86,0,0,,0,,,60,127
27169,note_off,29,0,0,,5,,,53,127
27254,note_off,85,0,0,,5,,,41,127
27255,note_on,1,0,0,,10,,,57,127
27255,note_on,0,0,0,,10,,,45,127
27284,note_off,29,0,0,,0,,,60,127
27370,note_on,86,0,0,,0,,,60,127
27399,note_off,29,0,0,,10,,,57,127
27484,note_off,85,0,0,,10,,,45,127
27485,note_on,1,0,0,,5,,,53,127
27485,note_on,0,0,0,,5,,,41,127
27514,note_off,29,0,0,,0,,,60,127
27600,note_on,86,0,0,,0,,,60,127
27629,note_off,29,0,0,,5,,,53,127
27714,note_off,85,0,0,,5,,,41,127
27715,note_on,1,0,0,,11,,,58,127
27715,note_on,0,0,0,,2,,,74,127
27744,note_off,29,0,0,,0,,,60,127
27830,note_on,86,0,0,,2,,,62,127
27859,note_off,29,0,0,,11,,,58,127
27944,note_off,85,0,0,,2,,,74,127
27945,note_on,1,0,0,,11,,,58,127
27945,note_on,0,0,0,,5,,,77,127
27974,note_off,29,0,0,,2,,,62,127
28060,note_on,86,0,0,,2,,,62,127
28089,note_off,29,0,0,,11,,,58,127
28174,note_off,85,0,0,,5,,,77,127
28175,note_on,1,0,0,,11,,,58,127
28175,note_on,0,0,0,,2,,,74,127
28204,note_off,29,0,0,,2,,,62,127
28290,note_on,86,0,0,,2,,,62,127
28319,note_off,29,0,0,,11,,,58,127
28404,note_off,85,0,0,,2,,,74,127
28405,note_on,1,0,0,,3,,,51,127
28405,note_on,0,0,0,,3,,,39,127
28434,note_off,29,0,0,,2,,,62,127
28520,note_on,86,0,0,,2,,,62,127
28549,note_off,29,0,0,,3,,,51,127
28634,note_off,85,0,0,,3,,,39,127
28635,note_on,1,0,0,,7,,,55,127
28635,note_on,0,0,0,,7,,,43,127
28664,note_off,29,0,0,,2,,,62,127
28750,note_on,86,0,0,,2,,,62,127
28779,note_off,29,0,0,,7,,,55,127
28864,note_off,85,0,0,,7,,,43,127
28865,note_on,1,0,0,,3,,,51,127
28865,note_on,0,0,0,,3,,,39,127
28894,note_off,29,0,0,,2,,,62,127
28980,note_on,86,0,0,,2,,,62,127
29009,note_off,29,0,0,,3,,,51,127
29094,note_off,85,0,0,,3,,,39,127
29095,note_on,1,0,0,,10,,,57,127
29095,note_on,0,0,0,,0,,,72,127
29124,note_off,29,0,0,,2,,,62,127
29210,note_on,86,0,0,,0,,,60,127
29239,note_off,29,0,0,,10,,,57,127
29324,note_off,85,0,0,,0,,,72,127
29325,note_on,1,0,0,,10,,,57,127
29325,note_on,0,0,0,,3,,,75,127
29354,note_off,29,0,0,,0,,,60,127
29440,note_on,86,0,0,,0,,,60,127
29469,note_off,29,0,0,,10,,,57,127
29554,note_off,85,0,0,,3,,,75,127
29555,note_on,1,0,0,,10,,,57,127
29555,note_on,0,0,0,,0,,,72,127
29584,note_off,29,0,0,,0,,,60,127
29670,note_on,86,0,0,,0,,,60,127
29699,note_off,29,0,0,,10,,,57,127
29784,note_off,85,0,0,,0,,,72,127
29785,note_on,1,0,0,,2,,,50,127
29785,note_on,0,0,0,,2,,,38,127
29814,note_off,29,0,0,,0,,,60,127
29900,note_on,86,0,0,,2,,,62,127
29929,note_off,29,0,0,,2,,,50,127
30014,note_off,85,0,0,,2,,,38,127
30015,note_on,1,0,0,,6,,,54,127
30015,note_on,0,0,0,,6,,,42,127
30044,note_off,29,0,0,,2,,,62,127
30130,note_on,86,0,0,,2,,,62,127
30159,note_off,29,0,0,,6,,,54,127
30244,note_off,85,0,0,,6,,,42,127
30245,note_on,1,0,0,,2,,,50,127
30245,note_on,0,0,0,,2,,,38,127
30274,note_off,29,0,0,,2,,,62,127
30360,note_on,86,0,0,,2,,,62,127
30389,note_off,29,0,0,,2,,,50,127
30474,note_off,85,0,0,,2,,,38,127
30475,note_on,1,0,0,,7,,,55,127
30475,note_on,0,0,0,,7,,,43,127
30504,note_off,29,0,0,,2,,,62,127
30590,note_on,86,0,0,,2,,,62,127
30619,note_off,29,0,0,,7,,,55,127
30704,note_off,85,0,0,,7,,,43,127
30705,note_on,1,0,0,,11,,,58,127
30705,note_on,0,0,0,,7,,,79,127
30734,note_off,29,0,0,,2,,,62,127
30820,note_on,86,0,0,,2,,,62,127
30849,note_off,29,0,0,,11,,,58,127
30934,note_off,85,0,0,,7,,,79,127
30935,note_on,1,0,0,,7,,,55,127
30935,note_on,0,0,0,,5,,,77,127
30964,note_off,29,0,0,,2,,,62,127
31050,note_on,86,0,0,,2,,,62,127
31079,note_off,29,0,0,,7,,,55,127
31164,note_off,85,0,0,,5,,,77,127
31165,note_on,1,0,0,,0,,,60,127
31165,note_on,0,0,0,,3,,,75,127
31194,note_off,29,0,0,,2,,,62,127
31280,note_on,86,0,0,,7,,,67,127
31309,note_off,29,0,0,,0,,,60,127
31394,note_off,85,0,0,,3,,,75,127
31395,note_on,1,0,0,,12,,,59,127
31395,note_on,0,0,0,,2,,,74,127
31424,note_off,29,0,0,,7,,,67,127
31510,note_on,86,0,0,,7,,,67,127
31539,note_off,29,0,0,,12,,,59,127
31624,note_off,85,0,0,,2,,,74,127
31625,note_on,1,0,0,,10,,,57,127
31625,note_on,0,0,0,,6,,,78,127
31654,note_off,29,0,0,,7,,,67,127
31740,note_on,86,0,0,,6,,,66,127
31769,note_off,29,0,0,,10,,,57,127
31854,note_off,85,0,0,,6,,,78,127
31855,note_on,1,0,0,,7,,,55,127
31855,note_on,0,0,0,,7,,,79,127
31855,note_on,0,0,0,,11,,,70,127
31884,note_off,29,0,0,,6,,,66,127
31970,note_on,86,0,0,,7,,,67,127
31999,note_off,29,0,0,,7,,,55,127
32084,note_off,85,0,0,,11,,,70,127
32084,note_off,0,0,0,,7,,,79,127
32085,note_on,1,0,0,,10,,,57,127
32085,note_on,0,0,0,,10,,,69,127
32114,note_off,29,0,0,,7,,,67,127
32200,note_on,86,0,0,,6,,,66,127
32229,note_off,29,0,0,,10,,,57,127
32314,note_off,85,0,0,,10,,,69,127
32315,note_on,1,0,0,,11,,,58,127
32315,note_on,0,0,0,,7,,,67,127
32344,note_off,29,0,0,,6,,,66,127
32430,note_on,86,0,0,,2,,,62,127
32459,note_off,29,0,0,,11,,,58,127
32544,note_off,85,0,0,,7,,,67,127
32545,note_on,1,0,0,,0,,,60,127
32545,note_on,0,0,0,,10,,,69,127
32574,note_off,29,0,0,,2,,,62,127
32621,note_off,47,0,0,,10,,,69,127
32622,note_on,1,0,0,,11,,,70,127
32698,note_off,76,0,0,,11,,,70,127
32699,note_on,1,0,0,,0,,,72,127
32775,note_off,76,0,0,,0,,,72,127
32775,note_off,0,0,0,,0,,,60,127
32776,note_on,1,0,0,,2,,,62,127
32776,note_on,0,0,0,,11,,,70,127
32776,note_on,0,0,0,,7,,,67,127
33005,note_off,229,0,0,,7,,,67,127
33005,note_off,0,0,0,,11,,,70,127
33005,note_off,0,0,0,,2,,,62,127
33006,note_on,1,0,0,,2,,,50,127
33006,note_on,0,0,0,,10,,,69,127
33006,note_on,0,0,0,,6,,,66,127
33235,note_off,229,0,0,,6,,,66,127
33235,note_off,0,0,0,,10,,,69,127
33235,note_off,0,0,0,,2,,,50,127
33236,note_on,1,0,0,,7,,,55,127
33236,note_on,0,0,0,,7,,,67,127
33351,note_on,115,0,0,,7,,,79,127
33464,note_off,113,0,0,,7,,,67,127
33465,note_off,1,0,0,,7,,,79,127
33466,note_on,1,0,0,,6,,,78,127
33580,note_off,114,0,0,,6,,,78,127
33581,note_on,1,0,0,,7,,,79,127
33695,note_off,114,0,0,,7,,,79,127
33695,note_off,0,0,0,,7,,,55,127
33696,note_on,1,0,0,,11,,,70,127
33696,note_on,0,0,0,,2,,,74,127
33696,note_on,0,0,0,,6,,,78,127
33810,note_off,114,0,0,,6,,,78,127
33811,note_on,1,0,0,,7,,,79,127
33925,note_off,114,0,0,,7,,,79,127
33925,note_off,0,0,0,,2,,,74,127
33925,note_off,0,0,0,,11,,,70,127
33926,note_on,1,0,0,,3,,,75,127
33926,note_on,0,0,0,,0,,,72,127
33926,note_on,0,0,0,,6,,,78,127
34040,note_off,114,0,0,,6,,,78,127
34041,note_on,1,0,0,,7,,,79,127
34155,note_off,114,0,0,,7,,,79,127
34155,note_off,0,0,0,,0,,,72,127
34155,note_off,0,0,0,,3,,,75,127
34156,note_on,1,0,0,,11,,,70,127
34156,note_on,0,0,0,,2,,,74,127
34156,note_on,0,0,0,,6,,,78,127
34270,note_off,114,0,0,,6,,,78,127
34271,note_on,1,0,0,,7,,,79,127
34385,note_off,114,0,0,,7,,,79,127
34385,note_off,0,0,0,,2,,,74,127
34385,note_off,0,0,0,,11,,,70,127
34386,note_on,1,0,0,,0,,,72,127
34386,note_on,0,0,0,,10,,,69,127
34386,note_on,0,0,0,,6,,,78,127
34500,note_off,114,0,0,,6,,,78,127
34501,note_on,1,0,0,,7,,,79,127
34615,note_off,114,0,0,,7,,,79,127
34615,note_off,0,0,0,,10,,,69,127
34615,note_off,0,0,0,,0,,,72,127
34616,note_on,1,0,0,,11,,,70,127
34616,note_on,0,0,0,,7,,,67,127
34616,note_on,0,0,0,,6,,,78,127
34730,note_off,114,0,0,,6,,,78,127
34731,note_on,1,0,0,,7,,,79,127
34845,note_off,114,0,0,,7,,,79,127
34845,note_off,0,0,0,,7,,,67,127
34845,note_off,0,0,0,,11,,,70,127
34846,note_on,1,0,0,,10,,,69,127
34846,note_on,0,0,0,,5,,,65,127
34846,note_on,0,0,0,,6,,,78,127
34960,note_off,114,0,0,,6,,,78,127
34961,note_on,1,0,0,,7,,,79,127
35075,note_off,114,0,0,,7,,,79,127
35075,note_off,0,0,0,,5,,,65,127
35075,note_off,0,0,0,,10,,,69,127
35076,note_on,1,0,0,,3,,,63,127
35076,note_on,0,0,0,,7,,,67,127
35305,note_off,229,0,0,,7,,,67,127
35305,note_off,0,0,0,,3,,,63,127
35306,note_on,1,0,0,,0,,,60,127
35306,note_on,0,0,0,,10,,,69,127
35382,note_off,76,0,0,,10,,,69,127
35383,note_on,1,0,0,,11,,,70,127
35459,note_off,76,0,0,,11,,,70,127
35460,note_on,1,0,0,,0,,,72,127
35536,note_off,76,0,0,,0,,,72,127
35536,note_off,0,0,0,,0,,,60,127
35537,note_on,1,0,0,,2,,,62,127
35537,note_on,0,0,0,,7,,,67,127
35537,note_on,0,0,0,,11,,,70,127
35766,note_off,229,0,0,,11,,,70,127
35766,note_off,0,0,0,,7,,,67,127
35767,note_on,1,0,0,,2,,,50,127
35767,note_on,0,0,0,,6,,,66,127
35767,note_on,0,0,0,,10,,,69,127
35993,note_off,226,0,0,,2,,,62,127
35997,note_off,4,0,0,,10,,,69,127
35997,note_off,0,0,0,,6,,,66,127
35997,note_off,0,0,0,,2,,,50,127
35998,note_on,1,0,0,,7,,,55,127
36113,note_on,115,0,0,,7,,,67,127
36227,note_off,114,0,0,,7,,,67,127
36227,note_off,0,0,0,,7,,,55,127
36228,note_on,1,0,0,,10,,,57,127
36228,note_on,0,0,0,,6,,,66,127
36342,note_off,114,0,0,,6,,,66,127
36343,note_on,1,0,0,,7,,,67,127
36457,note_off,114,0,0,,7,,,67,127
36457,note_off,0,0,0,,10,,,57,127
36458,note_on,1,0,0,,11,,,58,127
36458,note_on,0,0,0,,2,,,62,127
36458,note_on,0,0,0,,6,,,66,127
36572,note_off,114,0,0,,6,,,66,127
36573,note_on,1,0,0,,7,,,67,127
36687,note_off,114,0,0,,7,,,67,127
36687,note_off,0,0,0,,2,,,62,127
36687,note_off,0,0,0,,11,,,58,127
36688,note_on,1,0,0,,3,,,63,127
36688,note_on,0,0,0,,0,,,60,127
36688,note_on,0,0,0,,6,,,66,127
36802,note_off,114,0,0,,6,,,66,127
36803,note_on,1,0,0,,7,,,67,127
36917,note_off,114,0,0,,7,,,67,127
36917,note_off,0,0,0,,0,,,60,127
36917,note_off,0,0,0,,3,,,63,127
36918,note_on,1,0,0,,11,,,58,127
36918,note_on,0,0,0,,2,,,62,127
36918,note_on,0,0,0,,6,,,66,127
37032,note_off,114,0,0,,6,,,66,127
37033,note_on,1,0,0,,7,,,67,127
37147,note_off,114,0,0,,7,,,67,127
37147,note_off,0,0,0,,2,,,62,127
37147,note_off,0,0,0,,11,,,58,127
37148,note_on,1,0,0,,0,,,60,127
37148,note_on,0,0,0,,10,,,57,127
37148,note_on,0,0,0,,6,,,66,127
37262,note_off,114,0,0,,6,,,66,127
37263,note_on,1,0,0,,7,,,67,127
37377,note_off,114,0,0,,7,,,67,127
37377,note_off,0,0,0,,10,,,57,127
37377,note_off,0,0,0,,0,,,60,127
37378,note_on,1,0,0,,7,,,55,127
37378,note_on,0,0,0,,11,,,58,127
37378,note_on,0,0,0,,6,,,66,127
37492,note_off,114,0,0,,6,,,66,127
37493,note_on,1,0,0,,7,,,67,127
37607,note_off,114,0,0,,7,,,67,127
37607,note_off,0,0,0,,11,,,58,127
37607,note_off,0,0,0,,7,,,55,127
37608,note_on,1,0,0,,10,,,57,127
37608,note_on,0,0,0,,5,,,53,127
37608,note_on,0,0,0,,6,,,66,127
37722,note_off,114,0,0,,6,,,66,127
37723,note_on,1,0,0,,7,,,67,127
37837,note_off,114,0,0,,7,,,67,127
37837,note_off,0,0,0,,5,,,53,127
37837,note_off,0,0,0,,10,,,57,127
37838,note_on,1,0,0,,7,,,55,127
37838,note_on,0,0,0,,3,,,51,127
38067,note_off,229,0,0,,3,,,51,127
38067,note_off,0,0,0,,7,,,55,127
38068,note_on,1,0,0,,0,,,48,127
38068,note_on,0,0,0,,10,,,57,127
38144,note_off,76,0,0,,10,,,57,127
38145,note_on,1,0,0,,11,,,58,127
38221,note_off,76,0,0,,11,,,58,127
38222,note_on,1,0,0,,0,,,60,127
38298,note_off,76,0,0,,0,,,60,127
38298,note_off,0,0,0,,0,,,48,127
38299,note_on,1,0,0,,2,,,50,127
38299,note_on,0,0,0,,11,,,58,127
38299,note_on,0,0,0,,7,,,55,127
38528,note_off,229,0,0,,7,,,55,127
38528,note_off,0,0,0,,11,,,58,127
38529,note_on,1,0,0,,2,,,38,127
38529,note_on,0,0,0,,10,,,57,127
38529,note_on,0,0,0,,6,,,54,127
38755,note_off,226,0,0,,2,,,50,127
38759,note_off,4,0,0,,6,,,54,127
38759,note_off,0,0,0,,10,,,57,127
38759,note_off,0,0,0,,2,,,38,127
38760,note_on,1,0,0,,7,,,55,127
38875,note_on,115,0,0,,11,,,58,127
38989,note_off,114,0,0,,11,,,58,127
38989,note_off,0,0,0,,7,,,55,127
38990,note_on,1,0,0,,10,,,57,127
38990,note_on,0,0,0,,6,,,78,127
39104,note_off,114,0,0,,10,,,57,127
39105,note_on,1,0,0,,0,,,60,127
39219,note_off,114,0,0,,0,,,60,127
39219,note_off,0,0,0,,6,,,78,127
39220,note_on,1,0,0,,11,,,58,127
39220,note_on,0,0,0,,7,,,79,127
39334,note_off,114,0,0,,11,,,58,127
39335,note_on,1,0,0,,2,,,62,127
39449,note_off,114,0,0,,2,,,62,127
39449,note_off,0,0,0,,7,,,79,127
39450,note_on,1,0,0,,0,,,60,127
39450,note_on,0,0,0,,5,,,77,127
39506,note_off,56,0,0,,5,,,77,127
39507,note_on,1,0,0,,3,,,75,127
39563,note_off,56,0,0,,3,,,75,127
39563,note_off,0,0,0,,0,,,60,127
39564,note_on,1,0,0,,3,,,63,127
39564,note_on,0,0,0,,5,,,77,127
39620,note_off,56,0,0,,5,,,77,127
39621,note_on,1,0,0,,3,,,75,127
39677,note_off,56,0,0,,3,,,75,127
39677,note_off,0,0,0,,3,,,63,127
39678,note_on,1,0,0,,2,,,62,127
39678,note_on,0,0,0,,2,,,74,127
39907,note_off,229,0,0,,2,,,74,127
39908,note_on,1,0,0,,2,,,50,127
40023,note_off,115,0,0,,2,,,62,127
40137,note_off,114,0,0,,2,,,50,127
40138,note_on,1,0,0,,7,,,43,127
40252,note_off,114,0,0,,7,,,43,127
40253,note_on,1,0,0,,11,,,46,127
40367,note_off,114,0,0,,11,,,46,127
40368,note_on,1,0,0,,10,,,45,127
40368,note_on,0,0,0,,6,,,66,127
40482,note_off,114,0,0,,10,,,45,127
40483,note_on,1,0,0,,0,,,48,127
40597,note_off,114,0,0,,0,,,48,127
40597,note_off,0,0,0,,6,,,66,127
40598,note_on,1,0,0,,11,,,46,127
40598,note_on,0,0,0,,7,,,67,127
40712,note_off,114,0,0,,11,,,46,127
40713,note_on,1,0,0,,2,,,50,127
40827,note_off,114,0,0,,2,,,50,127
40827,note_off,0,0,0,,7,,,67,127
40828,note_on,1,0,0,,0,,,48,127
40828,note_on,0,0,0,,5,,,65,127
40884,note_off,56,0,0,,5,,,65,127
40885,note_on,1,0,0,,3,,,63,127
40941,note_off,56,0,0,,3,,,63,127
40941,note_off,0,0,0,,0,,,48,127
40942,note_on,1,0,0,,3,,,51,127
40942,note_on,0,0,0,,5,,,65,127
40998,note_off,56,0,0,,5,,,65,127
40999,note_on,1,0,0,,3,,,63,127
41055,note_off,56,0,0,,3,,,63,127
41055,note_off,0,0,0,,3,,,51,127
41056,note_on,1,0,0,,2,,,50,127
41056,note_on,0,0,0,,2,,,62,127
41285,note_off,229,0,0,,2,,,62,127
41286,note_on,1,0,0,,2,,,38,127
41512,note_off,226,0,0,,2,,,50,127
41516,note_off,4,0,0,,2,,,38,127
41517,note_on,1,0,0,,7,,,43,127
41631,note_off,114,0,0,,7,,,43,127
41632,note_on,1,0,0,,11,,,46,127
41746,note_off,114,0,0,,11,,,46,127
41747,note_on,1,0,0,,10,,,45,127
41747,note_on,0,0,0,,6,,,54,127
41861,note_off,114,0,0,,10,,,45,127
41862,note_on,1,0,0,,0,,,48,127
41976,note_off,114,0,0,,0,,,48,127
41976,note_off,0,0,0,,6,,,54,127
41977,note_on,1,0,0,,11,,,46,127
41977,note_on,0,0,0,,7,,,55,127
42091,note_off,114,0,0,,11,,,46,127
42092,note_on,1,0,0,,2,,,50,127
42206,note_off,114,0,0,,2,,,50,127
42206,note_off,0,0,0,,7,,,55,127
42207,note_on,1,0,0,,0,,,48,127
42207,note_on,0,0,0,,10,,,57,127
42283,note_off,76,0,0,,10,,,57,127
42284,note_on,1,0,0,,11,,,58,127
42360,note_off,76,0,0,,11,,,58,127
42361,note_on,1,0,0,,0,,,60,127
42437,note_off,76,0,0,,0,,,60,127
42437,note_off,0,0,0,,0,,,48,127
42438,note_on,1,0,0,,2,,,50,127
42438,note_on,0,0,0,,7,,,55,127
42438,note_on,0,0,0,,11,,,58,127
42667,note_off,229,0,0,,11,,,58,127
42667,note_off,0,0,0,,7,,,55,127
42668,note_on,1,0,0,,2,,,38,127
42668,note_on,0,0,0,,10,,,57,127
42668,note_on,0,0,0,,6,,,54,127
42894,note_off,226,0,0,,2,,,50,127
42898,note_off,4,0,0,,6,,,54,127
42898,note_off,0,0,0,,10,,,57,127
42898,note_off,0,0,0,,2,,,38,127
42899,note_on,1,0,0,,7,,,43,127
42899,note_on,0,0,0,,7,,,55,127
43475,note_off,576,0,0,,7,,,43,127
43589,note_off,114,0,0,,7,,,55,127
43590,note_on,1,0,0,,2,,,74,127
43704,note_off,114,0,0,,2,,,74,127
43705,note_on,1,0,0,,12,,,71,127
43819,note_off,114,0,0,,12,,,71,127
43820,note_on,1,0,0,,7,,,67,127
43934,note_off,114,0,0,,7,,,67,127
43935,note_on,1,0,0,,2,,,62,127
44049,note_off,114,0,0,,2,,,62,127
44050,note_on,1,0,0,,2,,,74,127
44126,note_off,76,0,0,,2,,,74,127
44127,note_on,1,0,0,,3,,,75,127
44203,note_off,76,0,0,,3,,,75,127
44204,note_on,1,0,0,,5,,,77,127
44280,note_off,76,0,0,,5,,,77,127
44281,note_on,1,0,0,,0,,,60,127
44281,note_on,0,0,0,,5,,,77,127
44357,note_off,76,0,0,,5,,,77,127
44358,note_on,1,0,0,,3,,,75,127
44395,note_off,37,0,0,,0,,,60,127
44396,note_on,1,0,0,,8,,,56,127
44433,note_off,37,0,0,,3,,,75,127
44434,note_on,1,0,0,,5,,,77,127
44510,note_off,76,0,0,,5,,,77,127
44510,note_off,0,0,0,,8,,,56,127
44511,note_on,1,0,0,,5,,,53,127
44511,note_on,0,0,0,,3,,,75,127
44587,note_off,76,0,0,,3,,,75,127
44588,note_on,1,0,0,,2,,,74,127
44625,note_off,37,0,0,,5,,,53,127
44626,note_on,1,0,0,,0,,,48,127
44663,note_off,37,0,0,,2,,,74,127
44664,note_on,1,0,0,,3,,,75,127
44740,note_off,76,0,0,,3,,,75,127
44740,note_off,0,0,0,,0,,,48,127
44741,note_on,1,0,0,,7,,,55,127
44741,note_on,0,0,0,,2,,,74,127
44970,note_off,229,0,0,,2,,,74,127
44970,note_off,0,0,0,,7,,,55,127
44971,note_on,1,0,0,,7,,,55,127
44971,note_on,0,0,0,,2,,,74,127
45085,note_off,114,0,0,,2,,,74,127
45086,note_on,1,0,0,,12,,,71,127
45200,note_off,114,0,0,,12,,,71,127
45201,note_on,1,0,0,,7,,,67,127
45315,note_off,114,0,0,,7,,,67,127
45316,note_on,1,0,0,,2,,,62,127
45430,note_off,114,0,0,,2,,,62,127
45431,note_on,1,0,0,,2,,,74,127
45507,note_off,76,0,0,,2,,,74,127
45508,note_on,1,0,0,,3,,,75,127
45584,note_off,76,0,0,,3,,,75,127
45585,note_on,1,0,0,,5,,,77,127
45661,note_off,76,0,0,,5,,,77,127
45661,note_off,0,0,0,,7,,,55,127
45662,note_on,1,0,0,,0,,,60,127
45662,note_on,0,0,0,,5,,,77,127
45738,note_off,76,0,0,,5,,,77,127
45739,note_on,1,0,0,,3,,,75,127
45776,note_off,37,0,0,,0,,,60,127
45777,note_on,1,0,0,,8,,,56,127
45814,note_off,37,0,0,,3,,,75,127
45815,note_on,1,0,0,,5,,,77,127
45891,note_off,76,0,0,,5,,,77,127
45891,note_off,0,0,0,,8,,,56,127
45892,note_on,1,0,0,,5,,,53,127
45892,note_on,0,0,0,,3,,,75,127
45968,note_off,76,0,0,,3,,,75,127
45969,note_on,1,0,0,,2,,,74,127
46006,note_off,37,0,0,,5,,,53,127
46007,note_on,1,0,0,,0,,,48,127
46044,note_off,37,0,0,,2,,,74,127
46045,note_on,1,0,0,,3,,,75,127
46121,note_off,76,0,0,,3,,,75,127
46121,note_off,0,0,0,,0,,,48,127
46122,note_on,1,0,0,,7,,,43,127
46122,note_on,0,0,0,,2,,,74,127
46351,note_off,229,0,0,,2,,,74,127
46351,note_off,0,0,0,,7,,,43,127
46352,note_on,1,0,0,,7,,,55,127
46352,note_on,0,0,0,,2,,,74,127
46466,note_off,114,0,0,,2,,,74,127
46467,note_on,1,0,0,,12,,,71,127
46581,note_off,114,0,0,,12,,,71,127
46582,note_on,1,0,0,,7,,,67,127
46696,note_off,114,0,0,,7,,,67,127
46697,note_on,1,0,0,,2,,,62,127
46811,note_off,114,0,0,,2,,,62,127
46812,note_on,1,0,0,,2,,,74,127
46888,note_off,76,0,0,,2,,,74,127
46889,note_on,1,0,0,,3,,,75,127
46965,note_off,76,0,0,,3,,,75,127
46966,note_on,1,0,0,,5,,,77,127
47042,note_off,76,0,0,,7,,,55,127
47043,note_on,1,0,0,,0,,,60,127
47119,note_off,76,0,0,,5,,,77,127
47120,note_on,1,0,0,,3,,,75,127
47157,note_off,37,0,0,,0,,,60,127
47158,note_on,1,0,0,,8,,,56,127
47195,note_off,37,0,0,,3,,,75,127
47196,note_on,1,0,0,,5,,,77,127
47272,note_off,76,0,0,,5,,,77,127
47272,note_off,0,0,0,,8,,,56,127
47273,note_on,1,0,0,,5,,,53,127
47273,note_on,0,0,0,,3,,,75,127
47349,note_off,76,0,0,,3,,,75,127
47350,note_on,1,0,0,,2,,,74,127
47387,note_off,37,0,0,,5,,,53,127
47388,note_on,1,0,0,,0,,,48,127
47425,note_off,37,0,0,,2,,,74,127
47426,note_on,1,0,0,,3,,,75,127
47502,note_off,76,0,0,,3,,,75,127
47502,note_off,0,0,0,,0,,,48,127
47503,note_on,1,0,0,,7,,,43,127
47503,note_on,0,0,0,,2,,,74,127
47732,note_off,229,0,0,,2,,,74,127
47732,note_off,0,0,0,,7,,,43,127
47733,note_on,1,0,0,,7,,,67,127
47848,note_on,115,0,0,,2,,,74,127
47962,note_off,114,0,0,,2,,,74,127
47962,note_off,0,0,0,,7,,,67,127
47963,note_on,1,0,0,,8,,,68,127
47963,note_on,0,0,0,,5,,,77,127
48077,note_off,114,0,0,,5,,,77,127
48078,note_on,1,0,0,,3,,,75,127
48192,note_off,114,0,0,,3,,,75,127
48192,note_off,0,0,0,,8,,,68,127
48193,note_on,1,0,0,,8,,,68,127
48193,note_on,0,0,0,,2,,,74,127
48307,note_off,114,0,0,,2,,,74,127
48308,note_on,1,0,0,,0,,,72,127
48422,note_off,114,0,0,,0,,,72,127
48422,note_off,0,0,0,,8,,,68,127
48423,note_on,1,0,0,,7,,,67,127
48423,note_on,0,0,0,,2,,,74,127
48423,note_on,0,0,0,,0,,,72,127
48537,note_off,114,0,0,,0,,,72,127
48537,note_off,0,0,0,,2,,,74,127
48538,note_on,1,0,0,,12,,,71,127
48652,note_off,114,0,0,,12,,,71,127
48652,note_off,0,0,0,,7,,,67,127
48653,note_on,1,0,0,,8,,,68,127
48653,note_on,0,0,0,,5,,,77,127
48767,note_off,114,0,0,,5,,,77,127
48768,note_on,1,0,0,,3,,,75,127
48882,note_off,114,0,0,,3,,,75,127
48882,note_off,0,0,0,,8,,,68,127
48883,note_on,1,0,0,,8,,,68,127
48883,note_on,0,0,0,,2,,,74,127
48997,note_off,114,0,0,,2,,,74,127
48998,note_on,1,0,0,,0,,,72,127
49112,note_off,114,0,0,,0,,,72,127
49112,note_off,0,0,0,,8,,,68,127
49113,note_on,1,0,0,,7,,,67,127
49113,note_on,0,0,0,,2,,,74,127
49113,note_on,0,0,0,,0,,,72,127
49227,note_off,114,0,0,,0,,,72,127
49227,note_off,0,0,0,,2,,,74,127
49228,note_on,1,0,0,,12,,,71,127
49342,note_off,114,0,0,,12,,,71,127
49342,note_off,0,0,0,,7,,,67,127
49343,note_on,1,0,0,,8,,,68,127
49343,note_on,0,0,0,,5,,,77,127
49457,note_off,114,0,0,,5,,,77,127
49458,note_on,1,0,0,,3,,,75,127
49572,note_off,114,0,0,,3,,,75,127
49572,note_off,0,0,0,,8,,,68,127
49573,note_on,1,0,0,,8,,,68,127
49573,note_on,0,0,0,,2,,,74,127
49687,note_off,114,0,0,,2,,,74,127
49688,note_on,1,0,0,,0,,,72,127
49802,note_off,114,0,0,,0,,,72,127
49802,note_off,0,0,0,,8,,,68,127
49803,note_on,1,0,0,,7,,,67,127
49803,note_on,0,0,0,,0,,,72,127
49803,note_on,0,0,0,,2,,,74,127
49917,note_off,114,0,0,,2,,,74,127
49917,note_off,0,0,0,,0,,,72,127
49918,note_on,1,0,0,,12,,,71,127
50032,note_off,114,0,0,,12,,,71,127
50032,note_off,0,0,0,,7,,,67,127
50033,note_on,1,0,0,,11,,,70,127
50033,note_on,0,0,0,,7,,,67,127
50033,note_on,0,0,0,,11,,,82,127
50147,note_off,114,0,0,,11,,,82,127
50148,note_on,1,0,0,,8,,,80,127
50262,note_off,114,0,0,,8,,,80,127
50262,note_off,0,0,0,,7,,,67,127
50262,note_off,0,0,0,,11,,,70,127
50263,note_on,1,0,0,,0,,,72,127
50263,note_on,0,0,0,,7,,,67,127
50263,note_on,0,0,0,,7,,,79,127
50377,note_off,114,0,0,,7,,,79,127
50378,note_on,1,0,0,,5,,,77,127
50492,note_off,114,0,0,,5,,,77,127
50492,note_off,0,0,0,,7,,,67,127
50492,note_off,0,0,0,,0,,,72,127
50493,note_on,1,0,0,,7,,,67,127
50493,note_on,0,0,0,,1,,,73,127
50493,note_on,0,0,0,,11,,,70,127
50493,note_on,0,0,0,,7,,,79,127
50493,note_on,0,0,0,,5,,,77,127
50607,note_off,114,0,0,,5,,,77,127
50607,note_off,0,0,0,,7,,,79,127
50608,note_on,1,0,0,,4,,,76,127
50722,note_off,114,0,0,,4,,,76,127
50722,note_off,0,0,0,,11,,,70,127
50722,note_off,0,0,0,,1,,,73,127
50722,note_off,0,0,0,,7,,,67,127
50723,note_on,1,0,0,,1,,,73,127
50723,note_on,0,0,0,,11,,,70,127
50723,note_on,0,0,0,,7,,,67,127
50723,note_on,0,0,0,,11,,,82,127
50837,note_off,114,0,0,,11,,,82,127
50838,note_on,1,0,0,,8,,,80,127
50952,note_off,114,0,0,,8,,,80,127
50952,note_off,0,0,0,,7,,,67,127
50952,note_off,0,0,0,,11,,,70,127
50952,note_off,0,0,0,,1,,,73,127
50953,note_on,1,0,0,,0,,,72,127
50953,note_on,0,0,0,,8,,,68,127
50953,note_on,0,0,0,,7,,,79,127
51067,note_off,114,0,0,,7,,,79,127
51068,note_on,1,0,0,,5,,,77,127
51182,note_off,114,0,0,,5,,,77,127
51182,note_off,0,0,0,,8,,,68,127
51182,note_off,0,0,0,,0,,,72,127
51183,note_on,1,0,0,,11,,,70,127
51183,note_on,0,0,0,,1,,,73,127
51183,note_on,0,0,0,,7,,,67,127
51183,note_on,0,0,0,,7,,,79,127
51183,note_on,0,0,0,,5,,,77,127
51297,note_off,114,0,0,,5,,,77,127
51297,note_off,0,0,0,,7,,,79,127
51298,note_on,1,0,0,,4,,,76,127
51412,note_off,114,0,0,,4,,,76,127
51412,note_off,0,0,0,,7,,,67,127
51412,note_off,0,0,0,,1,,,73,127
51412,note_off,0,0,0,,11,,,70,127
51413,note_on,1,0,0,,7,,,67,127
51413,note_on,0,0,0,,11,,,70,127
51413,note_on,0,0,0,,1,,,73,127
51413,note_on,0,0,0,,11,,,82,127
51527,note_off,114,0,0,,11,,,82,127
51528,note_on,1,0,0,,8,,,80,127
51642,note_off,114,0,0,,8,,,80,127
51642,note_off,0,0,0,,1,,,73,127
51642,note_off,0,0,0,,11,,,70,127
51642,note_off,0,0,0,,7,,,67,127
51643,note_on,1,0,0,,8,,,68,127
51643,note_on,0,0,0,,0,,,72,127
51643,note_on,0,0,0,,7,,,79,127
51757,note_off,114,0,0,,7,,,79,127
51758,note_on,1,0,0,,5,,,77,127
51872,note_off,114,0,0,,5,,,77,127
51872,note_off,0,0,0,,0,,,72,127
51872,note_off,0,0,0,,8,,,68,127
51873,note_on,1,0,0,,7,,,67,127
51873,note_on,0,0,0,,1,,,73,127
51873,note_on,0,0,0,,11,,,70,127
51873,note_on,0,0,0,,5,,,77,127
51873,note_on,0,0,0,,7,,,79,127
51987,note_off,114,0,0,,7,,,79,127
51987,note_off,0,0,0,,5,,,77,127
51988,note_on,1,0,0,,4,,,76,127
52102,note_off,114,0,0,,4,,,76,127
52102,note_off,0,0,0,,11,,,70,127
52102,note_off,0,0,0,,1,,,73,127
52102,note_off,0,0,0,,7,,,67,127
52103,note_on,1,0,0,,0,,,60,127
52103,note_on,0,0,0,,0,,,72,127
52103,note_on,0,0,0,,0,,,84,127
52217,note_off,114,0,0,,0,,,84,127
52218,note_on,1,0,0,,11,,,82,127
52332,note_off,114,0,0,,11,,,82,127
52332,note_off,0,0,0,,0,,,72,127
52332,note_off,0,0,0,,0,,,60,127
52333,note_on,1,0,0,,4,,,64,127
52333,note_on,0,0,0,,8,,,80,127
52447,note_off,114,0,0,,8,,,80,127
52448,note_on,1,0,0,,7,,,79,127
52562,note_off,114,0,0,,7,,,79,127
52562,note_off,0,0,0,,4,,,64,127
52563,note_on,1,0,0,,5,,,65,127
52563,note_on,0,0,0,,8,,,80,127
52563,note_on,0,0,0,,5,,,77,127
52678,note_on,115,0,0,,0,,,72,127
52707,note_off,29,0,0,,5,,,65,127
52792,note_off,85,0,0,,5,,,77,127
52792,note_off,0,0,0,,8,,,80,127
52793,note_on,1,0,0,,4,,,64,127
52793,note_on,0,0,0,,7,,,79,127
52793,note_on,0,0,0,,4,,,76,127
52822,note_off,29,0,0,,0,,,72,127
52908,note_on,86,0,0,,0,,,72,127
52937,note_off,29,0,0,,4,,,64,127
53022,note_off,85,0,0,,4,,,76,127
53022,note_off,0,0,0,,7,,,79,127
53023,note_on,1,0,0,,5,,,65,127
53023,note_on,0,0,0,,8,,,80,127
53023,note_on,0,0,0,,5,,,77,127
53052,note_off,29,0,0,,0,,,72,127
53138,note_on,86,0,0,,0,,,72,127
53167,note_off,29,0,0,,5,,,65,127
53252,note_off,85,0,0,,5,,,77,127
53252,note_off,0,0,0,,8,,,80,127
53253,note_on,1,0,0,,0,,,60,127
53253,note_on,0,0,0,,0,,,48,127
53282,note_off,29,0,0,,0,,,72,127
53368,note_on,86,0,0,,0,,,72,127
53397,note_off,29,0,0,,0,,,60,127
53482,note_off,85,0,0,,0,,,48,127
53483,note_on,1,0,0,,4,,,64,127
53483,note_on,0,0,0,,0,,,84,127
53512,note_off,29,0,0,,0,,,72,127
53598,note_on,86,0,0,,0,,,72,127
53627,note_off,29,0,0,,4,,,64,127
53712,note_off,85,0,0,,0,,,84,127
53713,note_on,1,0,0,,0,,,60,127
53713,note_on,0,0,0,,7,,,79,127
53713,note_on,0,0,0,,11,,,82,127
53742,note_off,29,0,0,,0,,,72,127
53828,note_on,86,0,0,,0,,,72,127
53857,note_off,29,0,0,,0,,,60,127
53942,note_off,85,0,0,,11,,,82,127
53942,note_off,0,0,0,,7,,,79,127
53943,note_on,1,0,0,,5,,,65,127
53943,note_on,0,0,0,,8,,,80,127
53943,note_on,0,0,0,,5,,,77,127
53972,note_off,29,0,0,,0,,,72,127
54058,note_on,86,0,0,,0,,,72,127
54087,note_off,29,0,0,,5,,,65,127
54172,note_off,85,0,0,,5,,,77,127
54172,note_off,0,0,0,,8,,,80,127
54173,note_on,1,0,0,,4,,,64,127
54173,note_on,0,0,0,,4,,,76,127
54173,note_on,0,0,0,,7,,,79,127
54202,note_off,29,0,0,,0,,,72,127
54288,note_on,86,0,0,,0,,,72,127
54317,note_off,29,0,0,,4,,,64,127
54402,note_off,85,0,0,,7,,,79,127
54402,note_off,0,0,0,,4,,,76,127
54403,note_on,1,0,0,,5,,,65,127
54403,note_on,0,0,0,,8,,,80,127
54403,note_on,0,0,0,,5,,,77,127
54432,note_off,29,0,0,,0,,,72,127
54518,note_on,86,0,0,,0,,,72,127
54547,note_off,29,0,0,,5,,,65,127
54632,note_off,85,0,0,,5,,,77,127
54632,note_off,0,0,0,,8,,,80,127
54633,note_on,1,0,0,,0,,,60,127
54633,note_on,0,0,0,,0,,,48,127
54746,note_off,113,0,0,,0,,,72,127
54748,note_on,2,0,0,,0,,,72,127
54806,note_off,58,0,0,,0,,,60,127
54862,note_off,56,0,0,,0,,,48,127
54863,note_on,1,0,0,,4,,,64,127
54863,note_on,0,0,0,,0,,,84,127
54976,note_off,113,0,0,,0,,,72,127
54978,note_on,2,0,0,,0,,,72,127
55036,note_off,58,0,0,,4,,,64,127
55092,note_off,56,0,0,,0,,,84,127
55093,note_on,1,0,0,,0,,,60,127
55093,note_on,0,0,0,,11,,,82,127
55093,note_on,0,0,0,,7,,,79,127
55206,note_off,113,0,0,,0,,,72,127
55208,note_on,2,0,0,,0,,,72,127
55266,note_off,58,0,0,,0,,,60,127
55322,note_off,56,0,0,,7,,,79,127
55322,note_off,0,0,0,,11,,,82,127
55323,note_on,1,0,0,,5,,,65,127
55323,note_on,0,0,0,,8,,,80,127
55323,note_on,0,0,0,,5,,,77,127
55436,note_off,113,0,0,,0,,,72,127
55438,note_on,2,0,0,,0,,,72,127
55496,note_off,58,0,0,,5,,,65,127
55552,note_off,56,0,0,,5,,,77,127
55552,note_off,0,0,0,,8,,,80,127
55553,note_on,1,0,0,,4,,,64,127
55553,note_on,0,0,0,,7,,,79,127
55553,note_on,0,0,0,,4,,,76,127
55666,note_off,113,0,0,,0,,,72,127
55668,note_on,2,0,0,,0,,,72,127
55726,note_off,58,0,0,,4,,,64,127
55782,note_off,56,0,0,,4,,,76,127
55782,note_off,0,0,0,,7,,,79,127
55783,note_on,1,0,0,,5,,,65,127
55783,note_on,0,0,0,,5,,,77,127
55783,note_on,0,0,0,,8,,,80,127
55896,note_off,113,0,0,,0,,,72,127
55898,note_on,2,0,0,,0,,,72,127
55956,note_off,58,0,0,,5,,,65,127
56012,note_off,56,0,0,,0,,,72,127
56012,note_off,0,0,0,,8,,,80,127
56012,note_off,0,0,0,,5,,,77,127
56013,note_on,1,0,0,,0,,,60,127
56013,note_on,0,0,0,,0,,,48,127
56090,note_on,77,0,0,,4,,,64,127
56157,note_off,67,0,0,,0,,,60,127
56167,note_on,10,0,0,,7,,,67,127
56234,note_off,67,0,0,,4,,,64,127
56242,note_off,8,0,0,,0,,,48,127
56243,note_on,1,0,0,,0,,,60,127
56243,note_on,0,0,0,,2,,,50,127
56310,note_off,67,0,0,,7,,,67,127
56320,note_on,10,0,0,,4,,,64,127
56393,note_off,73,0,0,,0,,,60,127
56397,note_on,4,0,0,,7,,,67,127
56470,note_off,73,0,0,,4,,,64,127
56472,note_off,2,0,0,,2,,,50,127
56473,note_on,1,0,0,,0,,,60,127
56473,note_on,0,0,0,,4,,,52,127
56546,note_off,73,0,0,,7,,,67,127
56550,note_on,4,0,0,,4,,,64,127
56627,note_on,77,0,0,,7,,,67,127
56629,note_off,2,0,0,,0,,,60,127
56702,note_off,73,0,0,,4,,,52,127
56703,note_on,1,0,0,,0,,,60,127
56703,note_on,0,0,0,,5,,,53,127
56705,note_off,2,0,0,,4,,,64,127
56779,note_on,74,0,0,,5,,,65,127
56781,note_off,2,0,0,,7,,,67,127
56855,note_on,74,0,0,,8,,,68,127
56857,note_off,2,0,0,,0,,,60,127
56930,note_off,73,0,0,,5,,,53,127
56931,note_on,1,0,0,,0,,,60,127
56931,note_on,0,0,0,,8,,,44,127
56933,note_off,2,0,0,,5,,,65,127
57007,note_on,74,0,0,,5,,,65,127
57009,note_off,2,0,0,,8,,,68,127
57083,note_on,74,0,0,,8,,,68,127
57085,note_off,2,0,0,,0,,,60,127
57158,note_off,73,0,0,,8,,,44,127
57159,note_on,1,0,0,,0,,,60,127
57159,note_on,0,0,0,,11,,,46,127
57161,note_off,2,0,0,,5,,,65,127
57235,note_on,74,0,0,,5,,,65,127
57237,note_off,2,0,0,,8,,,68,127
57311,note_on,74,0,0,,8,,,68,127
57313,note_off,2,0,0,,0,,,60,127
57386,note_off,73,0,0,,11,,,46,127
57387,note_on,1,0,0,,0,,,60,127
57387,note_on,0,0,0,,0,,,48,127
57389,note_off,2,0,0,,5,,,65,127
57463,note_on,74,0,0,,4,,,64,127
57465,note_off,2,0,0,,8,,,68,127
57539,note_on,74,0,0,,7,,,67,127
57541,note_off,2,0,0,,0,,,60,127
57614,note_off,73,0,0,,0,,,48,127
57615,note_on,1,0,0,,0,,,60,127
57615,note_on,0,0,0,,2,,,50,127
57617,note_off,2,0,0,,4,,,64,127
57691,note_on,74,0,0,,4,,,64,127
57693,note_off,2,0,0,,7,,,67,127
57767,note_on,74,0,0,,7,,,67,127
57769,note_off,2,0,0,,0,,,60,127
57842,note_off,73,0,0,,2,,,50,127
57843,note_on,1,0,0,,0,,,60,127
57843,note_on,0,0,0,,4,,,52,127
57845,note_off,2,0,0,,4,,,64,127
57919,note_on,74,0,0,,4,,,64,127
57921,note_off,2,0,0,,7,,,67,127
57995,note_on,74,0,0,,7,,,67,127
57997,note_off,2,0,0,,0,,,60,127
58070,note_off,73,0,0,,4,,,52,127
58071,note_on,1,0,0,,0,,,60,127
58071,note_on,0,0,0,,5,,,53,127
58073,note_off,2,0,0,,4,,,64,127
58147,note_on,74,0,0,,5,,,65,127
58149,note_off,2,0,0,,7,,,67,127
58223,note_on,74,0,0,,8,,,68,127
58225,note_off,2,0,0,,0,,,60,127
58298,note_off,73,0,0,,5,,,53,127
58299,note_on,1,0,0,,0,,,60,127
58299,note_on,0,0,0,,8,,,44,127
58301,note_off,2,0,0,,5,,,65,127
58375,note_on,74,0,0,,5,,,65,127
58377,note_off,2,0,0,,8,,,68,127
58451,note_on,74,0,0,,8,,,68,127
58453,note_off,2,0,0,,0,,,60,127
58526,note_off,73,0,0,,8,,,44,127
58527,note_on,1,0,0,,0,,,60,127
58527,note_on,0,0,0,,11,,,46,127
58529,note_off,2,0,0,,5,,,65,127
58603,note_on,74,0,0,,5,,,65,127
58605,note_off,2,0,0,,8,,,68,127
58679,note_on,74,0,0,,8,,,68,127
58681,note_off,2,0,0,,0,,,60,127
58754,note_off,73,0,0,,11,,,46,127
58755,note_on,1,0,0,,0,,,60,127
58755,note_on,0,0,0,,0,,,48,127
58757,note_off,2,0,0,,5,,,65,127
58831,note_on,74,0,0,,4,,,64,127
58833,note_off,2,0,0,,8,,,68,127
58907,note_on,74,0,0,,7,,,67,127
58909,note_off,2,0,0,,0,,,60,127
58982,note_off,73,0,0,,0,,,48,127
58983,note_on,1,0,0,,0,,,60,127
58983,note_on,0,0,0,,2,,,50,127
58985,note_off,2,0,0,,4,,,64,127
59059,note_on,74,0,0,,4,,,64,127
59061,note_off,2,0,0,,7,,,67,127
59135,note_on,74,0,0,,7,,,67,127
59137,note_off,2,0,0,,0,,,60,127
59210,note_off,73,0,0,,2,,,50,127
59211,note_on,1,0,0,,0,,,60,127
59211,note_on,0,0,0,,4,,,52,127
59213,note_off,2,0,0,,4,,,64,127
59287,note_on,74,0,0,,4,,,64,127
59289,note_off,2,0,0,,7,,,67,127
59363,note_on,74,0,0,,7,,,67,127
59365,note_off,2,0,0,,0,,,60,127
59438,note_off,73,0,0,,4,,,52,127
59439,note_on,1,0,0,,0,,,60,127
59439,note_on,0,0,0,,5,,,53,127
59441,note_off,2,0,0,,4,,,64,127
59515,note_on,74,0,0,,5,,,65,127
59517,note_off,2,0,0,,7,,,67,127
59591,note_on,74,0,0,,8,,,68,127
59593,note_off,2,0,0,,0,,,60,127
59666,note_off,73,0,0,,5,,,53,127
59667,note_on,1,0,0,,0,,,60,127
59667,note_on,0,0,0,,8,,,44,127
59669,note_off,2,0,0,,5,,,65,127
59743,note_on,74,0,0,,5,,,65,127
59745,note_off,2,0,0,,8,,,68,127
59819,note_on,74,0,0,,8,,,68,127
59821,note_off,2,0,0,,0,,,60,127
59894,note_off,73,0,0,,8,,,44,127
59895,note_on,1,0,0,,0,,,60,127
59895,note_on,0,0,0,,11,,,46,127
59897,note_off,2,0,0,,5,,,65,127
59971,note_on,74,0,0,,5,,,65,127
59973,note_off,2,0,0,,8,,,68,127
60047,note_on,74,0,0,,8,,,68,127
60049,note_off,2,0,0,,0,,,60,127
60122,note_off,73,0,0,,11,,,46,127
60123,note_on,1,0,0,,11,,,58,127
60123,note_on,0,0,0,,11,,,46,127
60125,note_off,2,0,0,,5,,,65,127
60199,note_on,74,0,0,,5,,,65,127
60201,note_off,2,0,0,,8,,,68,127
60275,note_on,74,0,0,,8,,,68,127
60277,note_off,2,0,0,,11,,,58,127
60350,note_off,73,0,0,,11,,,46,127
60351,note_on,1,0,0,,11,,,58,127
60351,note_on,0,0,0,,0,,,48,127
60353,note_off,2,0,0,,5,,,65,127
60427,note_on,74,0,0,,5,,,65,127
60429,note_off,2,0,0,,8,,,68,127
60503,note_on,74,0,0,,8,,,68,127
60505,note_off,2,0,0,,11,,,58,127
60578,note_off,73,0,0,,0,,,48,127
60579,note_on,1,0,0,,11,,,58,127
60579,note_on,0,0,0,,2,,,50,127
60581,note_off,2,0,0,,5,,,65,127
60655,note_on,74,0,0,,5,,,65,127
60657,note_off,2,0,0,,8,,,68,127
60731,note_on,74,0,0,,8,,,68,127
60733,note_off,2,0,0,,11,,,58,127
60806,note_off,73,0,0,,2,,,50,127
60807,note_on,1,0,0,,11,,,58,127
60807,note_on,0,0,0,,3,,,51,127
60809,note_off,2,0,0,,5,,,65,127
60883,note_on,74,0,0,,3,,,63,127
60885,note_off,2,0,0,,8,,,68,127
60959,note_on,74,0,0,,7,,,67,127
60961,note_off,2,0,0,,11,,,58,127
61034,note_off,73,0,0,,3,,,51,127
61035,note_on,1,0,0,,11,,,58,127
61035,note_on,0,0,0,,5,,,53,127
61037,note_off,2,0,0,,3,,,63,127
61111,note_on,74,0,0,,3,,,63,127
61113,note_off,2,0,0,,7,,,67,127
61187,note_on,74,0,0,,7,,,67,127
61189,note_off,2,0,0,,11,,,58,127
61262,note_off,73,0,0,,5,,,53,127
61263,note_on,1,0,0,,11,,,58,127
61263,note_on,0,0,0,,7,,,55,127
61265,note_off,2,0,0,,3,,,63,127
61339,note_on,74,0,0,,3,,,63,127
61341,note_off,2,0,0,,7,,,67,127
61415,note_on,74,0,0,,7,,,67,127
61417,note_off,2,0,0,,11,,,58,127
61490,note_off,73,0,0,,7,,,55,127
61491,note_on,1,0,0,,8,,,56,127
61491,note_on,0,0,0,,8,,,44,127
61493,note_off,2,0,0,,3,,,63,127
61497,note_off,4,0,0,,7,,,67,127
61568,note_on,71,0,0,,0,,,60,127
61645,note_on,77,0,0,,7,,,67,127
61647,note_off,2,0,0,,8,,,56,127
61720,note_off,73,0,0,,8,,,44,127
61721,note_on,1,0,0,,8,,,56,127
61721,note_on,0,0,0,,11,,,46,127
61723,note_off,2,0,0,,0,,,60,127
61797,note_on,74,0,0,,0,,,60,127
61799,note_off,2,0,0,,7,,,67,127
61873,note_on,74,0,0,,7,,,67,127
61875,note_off,2,0,0,,8,,,56,127
61948,note_off,73,0,0,,11,,,46,127
61949,note_on,1,0,0,,8,,,56,127
61949,note_on,0,0,0,,0,,,48,127
61951,note_off,2,0,0,,0,,,60,127
62025,note_on,74,0,0,,0,,,60,127
62027,note_off,2,0,0,,7,,,67,127
62101,note_on,74,0,0,,7,,,67,127
62103,note_off,2,0,0,,8,,,56,127
62176,note_off,73,0,0,,0,,,48,127
62177,note_on,1,0,0,,8,,,56,127
62177,note_on,0,0,0,,2,,,50,127
62179,note_off,2,0,0,,0,,,60,127
62253,note_on,74,0,0,,0,,,60,127
62255,note_off,2,0,0,,7,,,67,127
62329,note_on,74,0,0,,5,,,65,127
62331,note_off,2,0,0,,8,,,56,127
62404,note_off,73,0,0,,2,,,50,127
62405,note_on,1,0,0,,8,,,56,127
62405,note_on,0,0,0,,3,,,51,127
62407,note_off,2,0,0,,0,,,60,127
62481,note_on,74,0,0,,0,,,60,127
62483,note_off,2,0,0,,5,,,65,127
62557,note_on,74,0,0,,5,,,65,127
62559,note_off,2,0,0,,8,,,56,127
62632,note_off,73,0,0,,3,,,51,127
62633,note_on,1,0,0,,8,,,56,127
62633,note_on,0,0,0,,5,,,53,127
62635,note_off,2,0,0,,0,,,60,127
62709,note_on,74,0,0,,0,,,60,127
62711,note_off,2,0,0,,5,,,65,127
62785,note_on,74,0,0,,5,,,65,127
62787,note_off,2,0,0,,8,,,56,127
62860,note_off,73,0,0,,5,,,53,127
62861,note_on,1,0,0,,7,,,55,127
62861,note_on,0,0,0,,7,,,43,127
62863,note_off,2,0,0,,0,,,60,127
62937,note_on,74,0,0,,2,,,62,127
62939,note_off,2,0,0,,5,,,65,127
62986,note_off,47,0,0,,7,,,55,127
63014,note_on,28,0,0,,7,,,67,127
63063,note_off,49,0,0,,2,,,62,127
63089,note_off,26,0,0,,7,,,43,127
63090,note_on,1,0,0,,12,,,59,127
63090,note_on,0,0,0,,7,,,79,127
63139,note_off,49,0,0,,7,,,67,127
63167,note_on,28,0,0,,2,,,62,127
63216,note_off,49,0,0,,12,,,59,127
63244,note_on,28,0,0,,7,,,67,127
63293,note_off,49,0,0,,2,,,62,127
63319,note_off,26,0,0,,7,,,79,127
63320,note_on,1,0,0,,7,,,55,127
63320,note_on,0,0,0,,5,,,77,127
63320,note_on,0,0,0,,2,,,74,127
63369,note_off,49,0,0,,7,,,67,127
63397,note_on,28,0,0,,2,,,62,127
63446,note_off,49,0,0,,7,,,55,127
63474,note_on,28,0,0,,7,,,67,127
63523,note_off,49,0,0,,2,,,62,127
63549,note_off,26,0,0,,2,,,74,127
63549,note_off,0,0,0,,5,,,77,127
63550,note_on,1,0,0,,0,,,60,127
63550,note_on,0,0,0,,3,,,75,127
63550,note_on,0,0,0,,0,,,72,127
63599,note_off,49,0,0,,7,,,67,127
63627,note_on,28,0,0,,3,,,63,127
63676,note_off,49,0,0,,0,,,60,127
63704,note_on,28,0,0,,7,,,67,127
63753,note_off,49,0,0,,3,,,63,127
63779,note_off,26,0,0,,0,,,72,127
63779,note_off,0,0,0,,3,,,75,127
63780,note_on,1,0,0,,12,,,59,127
63780,note_on,0,0,0,,2,,,74,127
63780,note_on,0,0,0,,12,,,71,127
63829,note_off,49,0,0,,7,,,67,127
63857,note_on,28,0,0,,2,,,62,127
63906,note_off,49,0,0,,12,,,59,127
63934,note_on,28,0,0,,7,,,67,127
63983,note_off,49,0,0,,2,,,62,127
64009,note_off,26,0,0,,12,,,71,127
64009,note_off,0,0,0,,2,,,74,127
64010,note_on,1,0,0,,0,,,60,127
64010,note_on,0,0,0,,0,,,72,127
64010,note_on,0,0,0,,3,,,75,127
64059,note_off,49,0,0,,7,,,67,127
64087,note_on,28,0,0,,3,,,63,127
64136,note_off,49,0,0,,0,,,60,127
64164,note_on,28,0,0,,7,,,67,127
64213,note_off,49,0,0,,3,,,63,127
64239,note_off,26,0,0,,3,,,75,127
64239,note_off,0,0,0,,0,,,72,127
64240,note_on,1,0,0,,7,,,55,127
64240,note_on,0,0,0,,7,,,43,127
64289,note_off,49,0,0,,7,,,67,127
64317,note_on,28,0,0,,2,,,62,127
64366,note_off,49,0,0,,7,,,55,127
64394,note_on,28,0,0,,7,,,67,127
64443,note_off,49,0,0,,2,,,62,127
64469,note_off,26,0,0,,7,,,43,127
64470,note_on,1,0,0,,12,,,59,127
64470,note_on,0,0,0,,7,,,79,127
64519,note_off,49,0,0,,7,,,67,127
64547,note_on,28,0,0,,2,,,62,127
64596,note_off,49,0,0,,12,,,59,127
64624,note_on,28,0,0,,7,,,67,127
64673,note_off,49,0,0,,2,,,62,127
64699,note_off,26,0,0,,7,,,79,127
64700,note_on,1,0,0,,7,,,55,127
64700,note_on,0,0,0,,5,,,77,127
64700,note_on,0,0,0,,2,,,74,127
64749,note_off,49,0,0,,7,,,67,127
64777,note_on,28,0,0,,2,,,62,127
64826,note_off,49,0,0,,7,,,55,127
64854,note_on,28,0,0,,7,,,67,127
64903,note_off,49,0,0,,2,,,62,127
64929,note_off,26,0,0,,2,,,74,127
64929,note_off,0,0,0,,5,,,77,127
64930,note_on,1,0,0,,0,,,60,127
64930,note_on,0,0,0,,3,,,75,127
64930,note_on,0,0,0,,0,,,72,127
64979,note_off,49,0,0,,7,,,67,127
65007,note_on,28,0,0,,3,,,63,127
65056,note_off,49,0,0,,0,,,60,127
65084,note_on,28,0,0,,7,,,67,127
65133,note_off,49,0,0,,3,,,63,127
65159,note_off,26,0,0,,0,,,72,127
65159,note_off,0,0,0,,3,,,75,127
65160,note_on,1,0,0,,12,,,59,127
65160,note_on,0,0,0,,2,,,74,127
65160,note_on,0,0,0,,12,,,71,127
65209,note_off,49,0,0,,7,,,67,127
65237,note_on,28,0,0,,2,,,62,127
65286,note_off,49,0,0,,12,,,59,127
65314,note_on,28,0,0,,7,,,67,127
65363,note_off,49,0,0,,2,,,62,127
65389,note_off,26,0,0,,12,,,71,127
65389,note_off,0,0,0,,2,,,74,127
65390,note_on,1,0,0,,0,,,60,127
65390,note_on,0,0,0,,0,,,72,127
65390,note_on,0,0,0,,3,,,75,127
65439,note_off,49,0,0,,7,,,67,127
65467,note_on,28,0,0,,3,,,63,127
65516,note_off,49,0,0,,0,,,60,127
65544,note_on,28,0,0,,7,,,67,127
65593,note_off,49,0,0,,3,,,63,127
65619,note_off,26,0,0,,3,,,75,127
65619,note_off,0,0,0,,0,,,72,127
65620,note_on,1,0,0,,7,,,55,127
65620,note_on,0,0,0,,7,,,43,127
65669,note_off,49,0,0,,7,,,67,127
65697,note_on,28,0,0,,2,,,62,127
65746,note_off,49,0,0,,7,,,55,127
65774,note_on,28,0,0,,7,,,67,127
65823,note_off,49,0,0,,2,,,62,127
65849,note_off,26,0,0,,7,,,43,127
65850,note_on,1,0,0,,12,,,59,127
65850,note_on,0,0,0,,7,,,79,127
65899,note_off,49,0,0,,7,,,67,127
65927,note_on,28,0,0,,2,,,62,127
65976,note_off,49,0,0,,12,,,59,127
66004,note_on,28,0,0,,7,,,67,127
66053,note_off,49,0,0,,2,,,62,127
66079,note_off,26,0,0,,7,,,79,127
66080,note_on,1,0,0,,7,,,55,127
66080,note_on,0,0,0,,5,,,77,127
66080,note_on,0,0,0,,2,,,74,127
66129,note_off,49,0,0,,7,,,67,127
66157,note_on,28,0,0,,2,,,62,127
66206,note_off,49,0,0,,7,,,55,127
66234,note_on,28,0,0,,7,,,67,127
66283,note_off,49,0,0,,2,,,62,127
66309,note_off,26,0,0,,2,,,74,127
66309,note_off,0,0,0,,5,,,77,127
66310,note_on,1,0,0,,0,,,60,127
66310,note_on,0,0,0,,3,,,75,127
66310,note_on,0,0,0,,0,,,72,127
66359,note_off,49,0,0,,7,,,67,127
66387,note_on,28,0,0,,3,,,63,127
66436,note_off,49,0,0,,0,,,60,127
66464,note_on,28,0,0,,7,,,67,127
66513,note_off,49,0,0,,3,,,63,127
66539,note_off,26,0,0,,0,,,72,127
66539,note_off,0,0,0,,3,,,75,127
66540,note_on,1,0,0,,12,,,59,127
66540,note_on,0,0,0,,2,,,74,127
66540,note_on,0,0,0,,12,,,71,127
66589,note_off,49,0,0,,7,,,67,127
66617,note_on,28,0,0,,2,,,62,127
66666,note_off,49,0,0,,12,,,59,127
66694,note_on,28,0,0,,7,,,67,127
66743,note_off,49,0,0,,2,,,62,127
66769,note_off,26,0,0,,12,,,71,127
66769,note_off,0,0,0,,2,,,74,127
66770,note_on,1,0,0,,0,,,60,127
66770,note_on,0,0,0,,0,,,72,127
66770,note_on,0,0,0,,3,,,75,127
66819,note_off,49,0,0,,7,,,67,127
66847,note_on,28,0,0,,3,,,63,127
66896,note_off,49,0,0,,0,,,60,127
66924,note_on,28,0,0,,7,,,67,127
66973,note_off,49,0,0,,3,,,63,127
66999,note_off,26,0,0,,3,,,75,127
66999,note_off,0,0,0,,0,,,72,127
67000,note_on,1,0,0,,7,,,55,127
67000,note_on,0,0,0,,7,,,43,127
67005,note_off,5,0,0,,7,,,67,127
67077,note_on,72,0,0,,2,,,62,127
67154,note_on,77,0,0,,7,,,67,127
67156,note_off,2,0,0,,7,,,55,127
67229,note_off,73,0,0,,7,,,43,127
67230,note_on,1,0,0,,12,,,59,127
67230,note_on,0,0,0,,12,,,47,127
67232,note_off,2,0,0,,2,,,62,127
67306,note_on,74,0,0,,2,,,62,127
67308,note_off,2,0,0,,7,,,67,127
67382,note_on,74,0,0,,7,,,67,127
67384,note_off,2,0,0,,12,,,59,127
67457,note_off,73,0,0,,12,,,47,127
67458,note_on,1,0,0,,7,,,55,127
67458,note_on,0,0,0,,7,,,43,127
67460,note_off,2,0,0,,2,,,62,127
67534,note_on,74,0,0,,2,,,62,127
67536,note_off,2,0,0,,7,,,67,127
67610,note_on,74,0,0,,7,,,67,127
67612,note_off,2,0,0,,7,,,55,127
67685,note_off,73,0,0,,7,,,43,127
67686,note_on,1,0,0,,0,,,60,127
67686,note_on,0,0,0,,0,,,48,127
67688,note_off,2,0,0,,2,,,62,127
67762,note_on,74,0,0,,3,,,63,127
67764,note_off,2,0,0,,7,,,67,127
67838,note_on,74,0,0,,7,,,67,127
67840,note_off,2,0,0,,0,,,60,127
67913,note_off,73,0,0,,0,,,48,127
67914,note_on,1,0,0,,0,,,60,127
67914,note_on,0,0,0,,3,,,51,127
67916,note_off,2,0,0,,3,,,63,127
67990,note_on,74,0,0,,3,,,63,127
67992,note_off,2,0,0,,7,,,67,127
68066,note_on,74,0,0,,7,,,67,127
68068,note_off,2,0,0,,0,,,60,127
68141,note_off,73,0,0,,3,,,51,127
68142,note_on,1,0,0,,0,,,60,127
68142,note_on,0,0,0,,0,,,48,127
68144,note_off,2,0,0,,3,,,63,127
68218,note_on,74,0,0,,3,,,63,127
68220,note_off,2,0,0,,7,,,67,127
68294,note_on,74,0,0,,7,,,67,127
68296,note_off,2,0,0,,0,,,60,127
68369,note_off,73,0,0,,0,,,48,127
68370,note_on,1,0,0,,5,,,65,127
68370,note_on,0,0,0,,5,,,41,127
68372,note_off,2,0,0,,3,,,63,127
68446,note_on,74,0,0,,8,,,68,127
68448,note_off,2,0,0,,7,,,67,127
68522,note_on,74,0,0,,0,,,72,127
68524,note_off,2,0,0,,5,,,65,127
68597,note_off,73,0,0,,5,,,41,127
68598,note_on,1,0,0,,5,,,65,127
68598,note_on,0,0,0,,8,,,44,127
68600,note_off,2,0,0,,8,,,68,127
68674,note_on,74,0,0,,8,,,68,127
68676,note_off,2,0,0,,0,,,72,127
68750,note_on,74,0,0,,0,,,72,127
68752,note_off,2,0,0,,5,,,65,127
68825,note_off,73,0,0,,8,,,44,127
68826,note_on,1,0,0,,5,,,65,127
68826,note_on,0,0,0,,5,,,41,127
68828,note_off,2,0,0,,8,,,68,127
68902,note_on,74,0,0,,8,,,68,127
68904,note_off,2,0,0,,0,,,72,127
68978,note_on,74,0,0,,0,,,72,127
68980,note_off,2,0,0,,5,,,65,127
69053,note_off,73,0,0,,5,,,41,127
69054,note_on,1,0,0,,5,,,65,127
69054,note_on,0,0,0,,11,,,46,127
69056,note_off,2,0,0,,8,,,68,127
69130,note_on,74,0,0,,11,,,70,127
69132,note_off,2,0,0,,0,,,72,127
69206,note_on,74,0,0,,2,,,74,127
69208,note_off,2,0,0,,5,,,65,127
69281,note_off,73,0,0,,11,,,46,127
69282,note_on,1,0,0,,5,,,65,127
69282,note_on,0,0,0,,2,,,50,127
69284,note_off,2,0,0,,11,,,70,127
69358,note_on,74,0,0,,11,,,70,127
69360,note_off,2,0,0,,2,,,74,127
69434,note_on,74,0,0,,2,,,74,127
69436,note_off,2,0,0,,5,,,65,127
69509,note_off,73,0,0,,2,,,50,127
69510,note_on,1,0,0,,5,,,65,127
69510,note_on,0,0,0,,11,,,46,127
69512,note_off,2,0,0,,11,,,70,127
69586,note_on,74,0,0,,11,,,70,127
69588,note_off,2,0,0,,2,,,74,127
69662,note_on,74,0,0,,2,,,74,127
69664,note_off,2,0,0,,5,,,65,127
69737,note_off,73,0,0,,11,,,46,127
69738,note_on,1,0,0,,3,,,63,127
69738,note_on,0,0,0,,3,,,39,127
69740,note_off,2,0,0,,11,,,70,127
69814,note_on,74,0,0,,7,,,67,127
69816,note_off,2,0,0,,2,,,74,127
69890,note_on,74,0,0,,2,,,74,127
69892,note_off,2,0,0,,3,,,63,127
69965,note_off,73,0,0,,3,,,39,127
69966,note_on,1,0,0,,3,,,63,127
69966,note_on,0,0,0,,7,,,43,127
69968,note_off,2,0,0,,7,,,67,127
70042,note_on,74,0,0,,7,,,67,127
70044,note_off,2,0,0,,2,,,74,127
70118,note_on,74,0,0,,2,,,74,127
70120,note_off,2,0,0,,3,,,63,127
70193,note_off,73,0,0,,7,,,43,127
70194,note_on,1,0,0,,3,,,63,127
70194,note_on,0,0,0,,3,,,39,127
70196,note_off,2,0,0,,7,,,67,127
70270,note_on,74,0,0,,7,,,67,127
70272,note_off,2,0,0,,2,,,74,127
70346,note_on,74,0,0,,2,,,74,127
70348,note_off,2,0,0,,3,,,63,127
70421,note_off,73,0,0,,3,,,39,127
70422,note_on,1,0,0,,3,,,63,127
70422,note_on,0,0,0,,8,,,44,127
70424,note_off,2,0,0,,7,,,67,127
70498,note_on,74,0,0,,8,,,68,127
70500,note_off,2,0,0,,2,,,74,127
70574,note_on,74,0,0,,0,,,72,127
70576,note_off,2,0,0,,3,,,63,127
70649,note_off,73,0,0,,8,,,44,127
70650,note_on,1,0,0,,3,,,63,127
70650,note_on,0,0,0,,0,,,48,127
70652,note_off,2,0,0,,8,,,68,127
70726,note_on,74,0,0,,8,,,68,127
70728,note_off,2,0,0,,0,,,72,127
70802,note_on,74,0,0,,0,,,72,127
70804,note_off,2,0,0,,3,,,63,127
70877,note_off,73,0,0,,0,,,48,127
70878,note_on,1,0,0,,3,,,63,127
70878,note_on,0,0,0,,8,,,44,127
70880,note_off,2,0,0,,8,,,68,127
70954,note_on,74,0,0,,8,,,68,127
70956,note_off,2,0,0,,0,,,72,127
71030,note_on,74,0,0,,0,,,72,127
71032,note_off,2,0,0,,3,,,63,127
71105,note_off,73,0,0,,8,,,44,127
71106,note_on,1,0,0,,2,,,62,127
71106,note_on,0,0,0,,2,,,38,127
71108,note_off,2,0,0,,8,,,68,127
71182,note_on,74,0,0,,5,,,65,127
71184,note_off,2,0,0,,0,,,72,127
71258,note_on,74,0,0,,0,,,72,127
71260,note_off,2,0,0,,2,,,62,127
71333,note_off,73,0,0,,2,,,38,127
71334,note_on,1,0,0,,2,,,62,127
71334,note_on,0,0,0,,5,,,41,127
71336,note_off,2,0,0,,5,,,65,127
71410,note_on,74,0,0,,5,,,65,127
71412,note_off,2,0,0,,0,,,72,127
71486,note_on,74,0,0,,0,,,72,127
71488,note_off,2,0,0,,2,,,62,127
71561,note_off,73,0,0,,5,,,41,127
71562,note_on,1,0,0,,2,,,62,127
71562,note_on,0,0,0,,2,,,38,127
71564,note_off,2,0,0,,5,,,65,127
71638,note_on,74,0,0,,5,,,65,127
71640,note_off,2,0,0,,0,,,72,127
71714,note_on,74,0,0,,0,,,72,127
71716,note_off,2,0,0,,2,,,62,127
71789,note_off,73,0,0,,2,,,38,127
71790,note_on,1,0,0,,7,,,67,127
71790,note_on,0,0,0,,7,,,43,127
71792,note_off,2,0,0,,5,,,65,127
71866,note_on,74,0,0,,12,,,71,127
71868,note_off,2,0,0,,0,,,72,127
71942,note_on,74,0,0,,2,,,74,127
71944,note_off,2,0,0,,7,,,67,127
72017,note_off,73,0,0,,7,,,43,127
72018,note_on,1,0,0,,7,,,67,127
72018,note_on,0,0,0,,12,,,47,127
72020,note_off,2,0,0,,12,,,71,127
72094,note_on,74,0,0,,12,,,71,127
72096,note_off,2,0,0,,2,,,74,127
72170,note_on,74,0,0,,2,,,74,127
72172,note_off,2,0,0,,7,,,67,127
72245,note_off,73,0,0,,12,,,47,127
72246,note_on,1,0,0,,7,,,67,127
72246,note_on,0,0,0,,7,,,43,127
72248,note_off,2,0,0,,12,,,71,127
72322,note_on,74,0,0,,12,,,71,127
72324,note_off,2,0,0,,2,,,74,127
72398,note_on,74,0,0,,2,,,74,127
72400,note_off,2,0,0,,7,,,67,127
72473,note_off,73,0,0,,7,,,43,127
72474,note_on,1,0,0,,0,,,60,127
72474,note_on,0,0,0,,0,,,48,127
72474,note_on,0,0,0,,0,,,36,127
72476,note_off,2,0,0,,12,,,71,127
72553,note_off,77,0,0,,2,,,74,127
72588,note_off,35,0,0,,0,,,60,127
72589,note_on,1,0,0,,0,,,72,127
72703,note_off,114,0,0,,0,,,72,127
72703,note_off,0,0,0,,0,,,36,127
72703,note_off,0,0,0,,0,,,48,127
72704,note_on,1,0,0,,3,,,63,127
72704,note_on,0,0,0,,0,,,84,127
72818,note_off,114,0,0,,3,,,63,127
72819,note_on,1,0,0,,0,,,72,127
72933,note_off,114,0,0,,0,,,72,127
72933,note_off,0,0,0,,0,,,84,127
72934,note_on,1,0,0,,0,,,60,127
72934,note_on,0,0,0,,11,,,82,127
73048,note_off,114,0,0,,0,,,60,127
73049,note_on,1,0,0,,0,,,72,127
73162,note_off,113,0,0,,0,,,72,127
73163,note_off,1,0,0,,11,,,82,127
73163,note_on,0,0,0,,5,,,65,127
73164,note_on,1,0,0,,8,,,80,127
73278,note_off,114,0,0,,5,,,65,127
73279,note_on,1,0,0,,0,,,72,127
73393,note_off,114,0,0,,0,,,72,127
73393,note_off,0,0,0,,8,,,80,127
73394,note_on,1,0,0,,3,,,63,127
73394,note_on,0,0,0,,7,,,79,127
73508,note_off,114,0,0,,3,,,63,127
73509,note_on,1,0,0,,0,,,72,127
73623,note_off,114,0,0,,0,,,72,127
73623,note_off,0,0,0,,7,,,79,127
73624,note_on,1,0,0,,2,,,62,127
73624,note_on,0,0,0,,12,,,83,127
73738,note_off,114,0,0,,2,,,62,127
73739,note_on,1,0,0,,12,,,71,127
73853,note_off,114,0,0,,12,,,71,127
73853,note_off,0,0,0,,12,,,83,127
73854,note_on,1,0,0,,0,,,60,127
73854,note_on,0,0,0,,3,,,75,127
73854,note_on,0,0,0,,0,,,84,127
73968,note_off,114,0,0,,0,,,60,127
73969,note_on,1,0,0,,0,,,72,127
74083,note_off,114,0,0,,0,,,72,127
74083,note_off,0,0,0,,0,,,84,127
74083,note_off,0,0,0,,3,,,75,127
74084,note_on,1,0,0,,2,,,62,127
74084,note_on,0,0,0,,2,,,74,127
74198,note_off,114,0,0,,2,,,62,127
74199,note_on,1,0,0,,12,,,71,127
74313,note_off,114,0,0,,12,,,71,127
74313,note_off,0,0,0,,2,,,74,127
74314,note_on,1,0,0,,3,,,63,127
74314,note_on,0,0,0,,0,,,72,127
74428,note_off,114,0,0,,3,,,63,127
74429,note_on,1,0,0,,7,,,67,127
74543,note_off,114,0,0,,7,,,67,127
74543,note_off,0,0,0,,0,,,72,127
74544,note_on,1,0,0,,5,,,65,127
74544,note_on,0,0,0,,2,,,74,127
74620,note_off,76,0,0,,2,,,74,127
74621,note_on,1,0,0,,3,,,75,127
74697,note_off,76,0,0,,3,,,75,127
74698,note_on,1,0,0,,5,,,77,127
74774,note_off,76,0,0,,5,,,77,127
74774,note_off,0,0,0,,5,,,65,127
74775,note_on,1,0,0,,7,,,67,127
74775,note_on,0,0,0,,3,,,75,127
74775,note_on,0,0,0,,0,,,72,127
75004,note_off,229,0,0,,0,,,72,127
75004,note_off,0,0,0,,3,,,75,127
75004,note_off,0,0,0,,7,,,67,127
75005,note_on,1,0,0,,7,,,55,127
75005,note_on,0,0,0,,2,,,74,127
75005,note_on,0,0,0,,12,,,71,127
75234,note_off,229,0,0,,12,,,71,127
75234,note_off,0,0,0,,2,,,74,127
75234,note_off,0,0,0,,7,,,55,127
75235,note_on,1,0,0,,0,,,60,127
75235,note_on,0,0,0,,0,,,72,127
75350,note_on,115,0,0,,0,,,84,127
75463,note_off,113,0,0,,0,,,72,127
75464,note_off,1,0,0,,0,,,84,127
75465,note_on,1,0,0,,12,,,83,127
75579,note_off,114,0,0,,12,,,83,127
75580,note_on,1,0,0,,0,,,84,127
75694,note_off,114,0,0,,0,,,84,127
75694,note_off,0,0,0,,0,,,60,127
75695,note_on,1,0,0,,3,,,75,127
75695,note_on,0,0,0,,0,,,72,127
75695,note_on,0,0,0,,12,,,83,127
75809,note_off,114,0,0,,12,,,83,127
75810,note_on,1,0,0,,0,,,84,127
75924,note_off,114,0,0,,0,,,84,127
75924,note_off,0,0,0,,0,,,72,127
75924,note_off,0,0,0,,3,,,75,127
75925,note_on,1,0,0,,2,,,74,127
75925,note_on,0,0,0,,5,,,77,127
75925,note_on,0,0,0,,12,,,83,127
76039,note_off,114,0,0,,12,,,83,127
76040,note_on,1,0,0,,0,,,84,127
76154,note_off,114,0,0,,0,,,84,127
76154,note_off,0,0,0,,5,,,77,127
76154,note_off,0,0,0,,2,,,74,127
76155,note_on,1,0,0,,3,,,75,127
76155,note_on,0,0,0,,0,,,72,127
76155,note_on,0,0,0,,12,,,83,127
76269,note_off,114,0,0,,12,,,83,127
76270,note_on,1,0,0,,0,,,84,127
76384,note_off,114,0,0,,0,,,84,127
76384,note_off,0,0,0,,0,,,72,127
76384,note_off,0,0,0,,3,,,75,127
76385,note_on,1,0,0,,12,,,71,127
76385,note_on,0,0,0,,2,,,74,127
76385,note_on,0,0,0,,12,,,83,127
76499,note_off,114,0,0,,12,,,83,127
76500,note_on,1,0,0,,0,,,84,127
76614,note_off,114,0,0,,0,,,84,127
76614,note_off,0,0,0,,2,,,74,127
76614,note_off,0,0,0,,12,,,71,127
76615,note_on,1,0,0,,3,,,75,127
76615,note_on,0,0,0,,0,,,72,127
76615,note_on,0,0,0,,12,,,83,127
76729,note_off,114,0,0,,12,,,83,127
76730,note_on,1,0,0,,0,,,84,127
76844,note_off,114,0,0,,0,,,84,127
76844,note_off,0,0,0,,0,,,72,127
76844,note_off,0,0,0,,3,,,75,127
76845,note_on,1,0,0,,11,,,70,127
76845,note_on,0,0,0,,2,,,74,127
76845,note_on,0,0,0,,12,,,83,127
76959,note_off,114,0,0,,12,,,83,127
76960,note_on,1,0,0,,0,,,84,127
77074,note_off,114,0,0,,0,,,84,127
77074,note_off,0,0,0,,2,,,74,127
77074,note_off,0,0,0,,11,,,70,127
77075,note_on,1,0,0,,0,,,72,127
77075,note_on,0,0,0,,8,,,68,127
77304,note_off,229,0,0,,8,,,68,127
77304,note_off,0,0,0,,0,,,72,127
77305,note_on,1,0,0,,5,,,65,127
77305,note_on,0,0,0,,2,,,74,127
77381,note_off,76,0,0,,2,,,74,127
77382,note_on,1,0,0,,3,,,75,127
77458,note_off,76,0,0,,3,,,75,127
77459,note_on,1,0,0,,5,,,77,127
77535,note_off,76,0,0,,5,,,77,127
77535,note_off,0,0,0,,5,,,65,127
77536,note_on,1,0,0,,7,,,67,127
77536,note_on,0,0,0,,0,,,72,127
77536,note_on,0,0,0,,3,,,75,127
77765,note_off,229,0,0,,3,,,75,127
77765,note_off,0,0,0,,0,,,72,127
77765,note_off,0,0,0,,7,,,67,127
77766,note_on,1,0,0,,7,,,55,127
77766,note_on,0,0,0,,2,,,74,127
77766,note_on,0,0,0,,12,,,71,127
77995,note_off,229,0,0,,12,,,71,127
77995,note_off,0,0,0,,2,,,74,127
77995,note_off,0,0,0,,7,,,55,127
77996,note_on,1,0,0,,0,,,48,127
77996,note_on,0,0,0,,0,,,60,127
78111,note_on,115,0,0,,0,,,72,127
78224,note_off,113,0,0,,0,,,60,127
78225,note_off,1,0,0,,0,,,72,127
78226,note_on,1,0,0,,12,,,71,127
78340,note_off,114,0,0,,12,,,71,127
78341,note_on,1,0,0,,0,,,72,127
78455,note_off,114,0,0,,0,,,72,127
78455,note_off,0,0,0,,0,,,48,127
78456,note_on,1,0,0,,0,,,60,127
78456,note_on,0,0,0,,3,,,63,127
78456,note_on,0,0,0,,12,,,71,127
78570,note_off,114,0,0,,12,,,71,127
78571,note_on,1,0,0,,0,,,72,127
78685,note_off,114,0,0,,0,,,72,127
78685,note_off,0,0,0,,3,,,63,127
78685,note_off,0,0,0,,0,,,60,127
78686,note_on,1,0,0,,2,,,62,127
78686,note_on,0,0,0,,5,,,65,127
78686,note_on,0,0,0,,12,,,71,127
78800,note_off,114,0,0,,12,,,71,127
78801,note_on,1,0,0,,0,,,72,127
78915,note_off,114,0,0,,0,,,72,127
78915,note_off,0,0,0,,5,,,65,127
78915,note_off,0,0,0,,2,,,62,127
78916,note_on,1,0,0,,3,,,63,127
78916,note_on,0,0,0,,0,,,60,127
78916,note_on,0,0,0,,12,,,71,127
79030,note_off,114,0,0,,12,,,71,127
79031,note_on,1,0,0,,0,,,72,127
79145,note_off,114,0,0,,0,,,72,127
79145,note_off,0,0,0,,0,,,60,127
79145,note_off,0,0,0,,3,,,63,127
79146,note_on,1,0,0,,2,,,62,127
79146,note_on,0,0,0,,12,,,59,127
79146,note_on,0,0,0,,12,,,71,127
79260,note_off,114,0,0,,12,,,71,127
79261,note_on,1,0,0,,0,,,72,127
79375,note_off,114,0,0,,0,,,72,127
79375,note_off,0,0,0,,12,,,59,127
79375,note_off,0,0,0,,2,,,62,127
79376,note_on,1,0,0,,3,,,63,127
79376,note_on,0,0,0,,0,,,60,127
79376,note_on,0,0,0,,12,,,71,127
79490,note_off,114,0,0,,12,,,71,127
79491,note_on,1,0,0,,0,,,72,127
79605,note_off,114,0,0,,0,,,72,127
79605,note_off,0,0,0,,0,,,60,127
79605,note_off,0,0,0,,3,,,63,127
79606,note_on,1,0,0,,11,,,58,127
79606,note_on,0,0,0,,2,,,62,127
79606,note_on,0,0,0,,12,,,71,127
79720,note_off,114,0,0,,12,,,71,127
79721,note_on,1,0,0,,0,,,72,127
79835,note_off,114,0,0,,0,,,72,127
79835,note_off,0,0,0,,2,,,62,127
79835,note_off,0,0,0,,11,,,58,127
79836,note_on,1,0,0,,0,,,60,127
79836,note_on,0,0,0,,8,,,56,127
80065,note_off,229,0,0,,8,,,56,127
80065,note_off,0,0,0,,0,,,60,127
80066,note_on,1,0,0,,5,,,53,127
80066,note_on,0,0,0,,2,,,62,127
80142,note_off,76,0,0,,2,,,62,127
80143,note_on,1,0,0,,3,,,63,127
80219,note_off,76,0,0,,3,,,63,127
80220,note_on,1,0,0,,5,,,65,127
80296,note_off,76,0,0,,5,,,65,127
80296,note_off,0,0,0,,5,,,53,127
80297,note_on,1,0,0,,7,,,55,127
80297,note_on,0,0,0,,3,,,63,127
80297,note_on,0,0,0,,0,,,60,127
80526,note_off,229,0,0,,0,,,60,127
80526,note_off,0,0,0,,3,,,63,127
80526,note_off,0,0,0,,7,,,55,127
80527,note_on,1,0,0,,7,,,43,127
80527,note_on,0,0,0,,2,,,62,127
80527,note_on,0,0,0,,12,,,59,127
80756,note_off,229,0,0,,12,,,59,127
80756,note_off,0,0,0,,2,,,62,127
80756,note_off,0,0,0,,7,,,43,127
80757,note_on,1,0,0,,0,,,60,127
80872,note_on,115,0,0,,3,,,63,127
80986,note_off,114,0,0,,3,,,63,127
80986,note_off,0,0,0,,0,,,60,127
80987,note_on,1,0,0,,2,,,62,127
80987,note_on,0,0,0,,12,,,83,127
81101,note_off,114,0,0,,2,,,62,127
81102,note_on,1,0,0,,5,,,65,127
81216,note_off,114,0,0,,5,,,65,127
81216,note_off,0,0,0,,12,,,83,127
81217,note_on,1,0,0,,3,,,63,127
81217,note_on,0,0,0,,0,,,84,127
81331,note_off,114,0,0,,3,,,63,127
81332,note_on,1,0,0,,7,,,67,127
81446,note_off,114,0,0,,7,,,67,127
81446,note_off,0,0,0,,0,,,84,127
81447,note_on,1,0,0,,5,,,65,127
81447,note_on,0,0,0,,11,,,82,127
81503,note_off,56,0,0,,11,,,82,127
81504,note_on,1,0,0,,8,,,80,127
81560,note_off,56,0,0,,8,,,80,127
81560,note_off,0,0,0,,5,,,65,127
81561,note_on,1,0,0,,8,,,68,127
81561,note_on,0,0,0,,11,,,82,127
81617,note_off,56,0,0,,11,,,82,127
81618,note_on,1,0,0,,8,,,80,127
81674,note_off,56,0,0,,8,,,80,127
81674,note_off,0,0,0,,8,,,68,127
81675,note_on,1,0,0,,7,,,67,127
81675,note_on,0,0,0,,7,,,79,127
81904,note_off,229,0,0,,7,,,79,127
81905,note_on,1,0,0,,7,,,55,127
82020,note_off,115,0,0,,7,,,67,127
82134,note_off,114,0,0,,7,,,55,127
82135,note_on,1,0,0,,0,,,48,127
82249,note_off,114,0,0,,0,,,48,127
82250,note_on,1,0,0,,3,,,51,127
82364,note_off,114,0,0,,3,,,51,127
82365,note_on,1,0,0,,2,,,50,127
82365,note_on,0,0,0,,12,,,71,127
82479,note_off,114,0,0,,2,,,50,127
82480,note_on,1,0,0,,5,,,53,127
82594,note_off,114,0,0,,5,,,53,127
82594,note_off,0,0,0,,12,,,71,127
82595,note_on,1,0,0,,3,,,51,127
82595,note_on,0,0,0,,0,,,72,127
82709,note_off,114,0,0,,3,,,51,127
82710,note_on,1,0,0,,7,,,55,127
82824,note_off,114,0,0,,7,,,55,127
82824,note_off,0,0,0,,0,,,72,127
82825,note_on,1,0,0,,5,,,53,127
82825,note_on,0,0,0,,11,,,70,127
82881,note_off,56,0,0,,11,,,70,127
82882,note_on,1,0,0,,8,,,68,127
82938,note_off,56,0,0,,8,,,68,127
82938,note_off,0,0,0,,5,,,53,127
82939,note_on,1,0,0,,8,,,56,127
82939,note_on,0,0,0,,11,,,70,127
82995,note_off,56,0,0,,11,,,70,127
82996,note_on,1,0,0,,8,,,68,127
83052,note_off,56,0,0,,8,,,68,127
83052,note_off,0,0,0,,8,,,56,127
83053,note_on,1,0,0,,7,,,55,127
83053,note_on,0,0,0,,7,,,67,127
83282,note_off,229,0,0,,7,,,67,127
83283,note_on,1,0,0,,7,,,43,127
83509,note_off,226,0,0,,7,,,55,127
83513,note_off,4,0,0,,7,,,43,127
83514,note_on,1,0,0,,0,,,48,127
83629,note_on,115,0,0,,3,,,51,127
83658,note_off,29,0,0,,0,,,48,127
83743,note_off,85,0,0,,3,,,51,127
83744,note_on,1,0,0,,2,,,50,127
83744,note_on,0,0,0,,12,,,59,127
83859,note_on,115,0,0,,5,,,53,127
83888,note_off,29,0,0,,2,,,50,127
83973,note_off,85,0,0,,5,,,53,127
83973,note_off,0,0,0,,12,,,59,127
83974,note_on,1,0,0,,3,,,51,127
83974,note_on,0,0,0,,0,,,60,127
84089,note_on,115,0,0,,7,,,55,127
84118,note_off,29,0,0,,3,,,51,127
84203,note_off,85,0,0,,7,,,55,127
84203,note_off,0,0,0,,0,,,60,127
84204,note_on,1,0,0,,5,,,53,127
84204,note_on,0,0,0,,2,,,62,127
84280,note_off,76,0,0,,2,,,62,127
84281,note_on,1,0,0,,3,,,63,127
84357,note_off,76,0,0,,3,,,63,127
84358,note_on,1,0,0,,5,,,65,127
84434,note_off,76,0,0,,5,,,65,127
84434,note_off,0,0,0,,5,,,53,127
84435,note_on,1,0,0,,7,,,55,127
84435,note_on,0,0,0,,3,,,63,127
84435,note_on,0,0,0,,0,,,60,127
84664,note_off,229,0,0,,0,,,60,127
84664,note_off,0,0,0,,3,,,63,127
84699,note_on,35,0,0,,2,,,62,127
84699,note_on,0,0,0,,7,,,43,127
84699,note_on,0,0,0,,12,,,59,127
84781,note_off,82,0,0,,7,,,55,127
84929,note_off,148,0,0,,12,,,59,127
84929,note_off,0,0,0,,7,,,43,127
84929,note_off,0,0,0,,2,,,62,127
84997,note_on,68,0,0,,0,,,60,127
84997,note_on,0,0,0,,0,,,36,127
86677,note_off,1680,0,0,,0,,,36,127
86677,note_off,0,0,0,,0,,,60,127
92160,end_of_track,5483,1,0,,,,,,
