tick,type,time,meta,track,program,channel,pitch,tempo,note,velocity
0,copyright,0,1,0,,,,,,
0,program_change,0,0,0,6,0,,,,
0,pitchwheel,0,0,0,,0,0,,,
0,program_change,0,0,0,6,1,,,,
0,pitchwheel,0,0,0,,1,-590,,,
0,program_change,0,0,0,6,2,,,,
0,pitchwheel,0,0,0,,2,-272,,,
0,program_change,0,0,0,6,3,,,,
0,pitchwheel,0,0,0,,3,-353,,,
0,program_change,0,0,0,6,4,,,,
0,pitchwheel,0,0,0,,4,-560,,,
0,program_change,0,0,0,6,5,,,,
0,pitchwheel,0,0,0,,5,-80,,,
0,program_change,0,0,0,6,6,,,,
0,pitchwheel,0,0,0,,6,-625,,,
0,program_change,0,0,0,6,7,,,,
0,pitchwheel,0,0,0,,7,-130,,,
0,program_change,0,0,0,6,8,,,,
0,pitchwheel,0,0,0,,8,-512,,,
0,program_change,0,0,0,6,10,,,,
0,pitchwheel,0,0,0,,10,-464,,,
0,program_change,0,0,0,6,11,,,,
0,pitchwheel,0,0,0,,11,-208,,,
0,program_change,0,0,0,6,12,,,,
0,pitchwheel,0,0,0,,12,-553,,,
0,set_tempo,0,1,0,,,,500000,,
128,note_on,128,0,0,,0,,,48,127
384,note_on,256,0,0,,7,,,79,127
511,note_off,127,0,0,,7,,,79,127
512,note_on,1,0,0,,4,,,76,127
639,note_off,127,0,0,,4,,,76,127
640,note_on,1,0,0,,0,,,72,127
895,note_off,255,0,0,,0,,,72,127
896,note_on,1,0,0,,7,,,67,127
1023,note_off,127,0,0,,7,,,67,127
1024,note_on,1,0,0,,4,,,64,127
1147,note_off,123,0,0,,0,,,48,127
1151,note_off,4,0,0,,4,,,64,127
1152,note_on,1,0,0,,0,,,48,127
1152,note_on,0,0,0,,0,,,60,127
1407,note_off,255,0,0,,0,,,60,127
1408,note_on,1,0,0,,4,,,64,127
1535,note_off,127,0,0,,4,,,64,127
1536,note_on,1,0,0,,7,,,67,127
1663,note_off,127,0,0,,7,,,67,127
1664,note_on,1,0,0,,0,,,72,127
1791,note_off,127,0,0,,0,,,72,127
1792,note_on,1,0,0,,7,,,67,127
1872,note_off,80,0,0,,0,,,48,127
1919,note_off,47,0,0,,7,,,67,127
1920,note_on,1,0,0,,0,,,48,127
1920,note_on,0,0,0,,4,,,76,127
2047,note_off,127,0,0,,4,,,76,127
2048,note_on,1,0,0,,0,,,72,127
2175,note_off,127,0,0,,0,,,72,127
2175,note_off,0,0,0,,0,,,48,127
2176,note_on,1,0,0,,5,,,41,127
2176,note_on,0,0,0,,12,,,71,127
2303,note_off,127,0,0,,12,,,71,127
2304,note_on,1,0,0,,10,,,69,127
2431,note_off,127,0,0,,10,,,69,127
2431,note_off,0,0,0,,5,,,41,127
2432,note_on,1,0,0,,5,,,53,127
2432,note_on,0,0,0,,8,,,80,127
2559,note_off,127,0,0,,8,,,80,127
2560,note_on,1,0,0,,10,,,81,127
2687,note_off,127,0,0,,10,,,81,127
2687,note_off,0,0,0,,5,,,53,127
2688,note_on,1,0,0,,7,,,55,127
2688,note_on,0,0,0,,0,,,72,127
2944,note_on,256,0,0,,7,,,43,127
3007,note_off,63,0,0,,0,,,72,127
3008,note_on,1,0,0,,12,,,71,127
3072,note_off,64,0,0,,12,,,71,127
3072,note_on,0,0,0,,0,,,72,127
3136,note_off,64,0,0,,0,,,72,127
3136,note_on,0,0,0,,12,,,71,127
3199,note_off,63,0,0,,7,,,43,127
3199,note_off,0,0,0,,7,,,55,127
3200,note_on,1,0,0,,0,,,48,127
3455,note_off,255,0,0,,12,,,71,127
3456,note_on,1,0,0,,0,,,72,127
3693,note_off,237,0,0,,0,,,48,127
3712,note_on,19,0,0,,4,,,52,127
3839,note_off,127,0,0,,0,,,72,127
3840,note_on,1,0,0,,5,,,77,127
3967,note_off,127,0,0,,5,,,77,127
3967,note_off,0,0,0,,4,,,52,127
3968,note_on,1,0,0,,0,,,48,127
3968,note_on,0,0,0,,4,,,76,127
4095,note_off,127,0,0,,4,,,76,127
4096,note_on,1,0,0,,0,,,72,127
4223,note_off,127,0,0,,0,,,72,127
4223,note_off,0,0,0,,0,,,48,127
4224,note_on,1,0,0,,5,,,41,127
4224,note_on,0,0,0,,12,,,71,127
4351,note_off,127,0,0,,12,,,71,127
4352,note_on,1,0,0,,10,,,69,127
4479,note_off,127,0,0,,10,,,69,127
4479,note_off,0,0,0,,5,,,41,127
4480,note_on,1,0,0,,5,,,53,127
4480,note_on,0,0,0,,8,,,80,127
4607,note_off,127,0,0,,8,,,80,127
4608,note_on,1,0,0,,10,,,81,127
4735,note_off,127,0,0,,10,,,81,127
4735,note_off,0,0,0,,5,,,53,127
4736,note_on,1,0,0,,7,,,55,127
4736,note_on,0,0,0,,0,,,72,127
4992,note_on,256,0,0,,7,,,43,127
5055,note_off,63,0,0,,0,,,72,127
5056,note_on,1,0,0,,12,,,71,127
5120,note_off,64,0,0,,12,,,71,127
5120,note_on,0,0,0,,0,,,72,127
5184,note_off,64,0,0,,0,,,72,127
5184,note_on,0,0,0,,12,,,71,127
5247,note_off,63,0,0,,7,,,43,127
5247,note_off,0,0,0,,7,,,55,127
5248,note_on,1,0,0,,0,,,48,127
5503,note_off,255,0,0,,12,,,71,127
5504,note_on,1,0,0,,0,,,72,127
5741,note_off,237,0,0,,0,,,48,127
5760,note_on,19,0,0,,4,,,52,127
5888,note_off,128,0,0,,0,,,72,127
6015,note_off,127,0,0,,4,,,52,127
6016,note_on,1,0,0,,0,,,48,127
6016,note_on,0,0,0,,4,,,76,127
6271,note_off,255,0,0,,4,,,76,127
6271,note_off,0,0,0,,0,,,48,127
6272,note_on,1,0,0,,2,,,50,127
6272,note_on,0,0,0,,5,,,77,127
6272,note_on,0,0,0,,7,,,79,127
6356,note_off,84,0,0,,7,,,79,127
6356,note_off,0,0,0,,5,,,77,127
6357,note_on,1,0,0,,4,,,76,127
6441,note_off,84,0,0,,4,,,76,127
6442,note_on,1,0,0,,2,,,74,127
6526,note_off,84,0,0,,2,,,74,127
6527,note_on,1,0,0,,0,,,72,127
6611,note_off,84,0,0,,0,,,72,127
6612,note_on,1,0,0,,12,,,71,127
6696,note_off,84,0,0,,12,,,71,127
6697,note_on,1,0,0,,10,,,69,127
6781,note_off,84,0,0,,10,,,69,127
6782,note_on,1,0,0,,7,,,67,127
7017,note_off,235,0,0,,2,,,50,127
7037,note_off,20,0,0,,7,,,67,127
7038,note_on,1,0,0,,7,,,43,127
7038,note_on,0,0,0,,5,,,77,127
7293,note_off,255,0,0,,5,,,77,127
7293,note_off,0,0,0,,7,,,43,127
7294,note_on,1,0,0,,0,,,48,127
7294,note_on,0,0,0,,2,,,74,127
7549,note_off,255,0,0,,2,,,74,127
7550,note_on,1,0,0,,3,,,75,127
7805,note_off,255,0,0,,3,,,75,127
7806,note_on,1,0,0,,4,,,76,127
8041,note_off,235,0,0,,0,,,48,127
8046,note_off,5,0,0,,4,,,76,127
8062,note_on,16,0,0,,4,,,64,127
8062,note_on,0,0,0,,0,,,72,127
8317,note_off,255,0,0,,0,,,72,127
8317,note_off,0,0,0,,4,,,64,127
8318,note_on,1,0,0,,5,,,65,127
8318,note_on,0,0,0,,10,,,69,127
8402,note_off,84,0,0,,5,,,65,127
8403,note_on,1,0,0,,4,,,64,127
8487,note_off,84,0,0,,4,,,64,127
8488,note_on,1,0,0,,2,,,62,127
8572,note_off,84,0,0,,2,,,62,127
8572,note_off,0,0,0,,10,,,69,127
8573,note_on,1,0,0,,0,,,60,127
8573,note_on,0,0,0,,2,,,74,127
8657,note_off,84,0,0,,0,,,60,127
8658,note_on,1,0,0,,12,,,59,127
8742,note_off,84,0,0,,12,,,59,127
8743,note_on,1,0,0,,10,,,57,127
8827,note_off,84,0,0,,10,,,57,127
8827,note_off,0,0,0,,2,,,74,127
8828,note_on,1,0,0,,7,,,55,127
8828,note_on,0,0,0,,7,,,67,127
9055,note_off,227,0,0,,7,,,67,127
9083,note_off,28,0,0,,7,,,55,127
9084,note_on,1,0,0,,5,,,53,127
9084,note_on,0,0,0,,12,,,71,127
9339,note_off,255,0,0,,5,,,53,127
9340,note_on,1,0,0,,4,,,52,127
9595,note_off,255,0,0,,12,,,71,127
9596,note_on,1,0,0,,0,,,72,127
9852,note_on,256,0,0,,0,,,60,127
10049,note_off,197,0,0,,0,,,72,127
10108,note_on,59,0,0,,4,,,76,127
10363,note_off,255,0,0,,4,,,76,127
10363,note_off,0,0,0,,4,,,52,127
10364,note_on,1,0,0,,2,,,50,127
10364,note_on,0,0,0,,5,,,77,127
10364,note_on,0,0,0,,7,,,79,127
10448,note_off,84,0,0,,7,,,79,127
10448,note_off,0,0,0,,5,,,77,127
10449,note_on,1,0,0,,4,,,76,127
10533,note_off,84,0,0,,4,,,76,127
10534,note_on,1,0,0,,2,,,74,127
10618,note_off,84,0,0,,2,,,74,127
10619,note_on,1,0,0,,0,,,72,127
10703,note_off,84,0,0,,0,,,72,127
10704,note_on,1,0,0,,12,,,71,127
10788,note_off,84,0,0,,12,,,71,127
10789,note_on,1,0,0,,10,,,69,127
10873,note_off,84,0,0,,10,,,69,127
10873,note_off,0,0,0,,2,,,50,127
10873,note_off,0,0,0,,0,,,60,127
10874,note_on,1,0,0,,7,,,55,127
10874,note_on,0,0,0,,12,,,59,127
10874,note_on,0,0,0,,7,,,67,127
11129,note_off,255,0,0,,7,,,67,127
11130,note_on,1,0,0,,5,,,65,127
11385,note_off,255,0,0,,5,,,65,127
11385,note_off,0,0,0,,12,,,59,127
11385,note_off,0,0,0,,7,,,55,127
11386,note_on,1,0,0,,0,,,48,127
11386,note_on,0,0,0,,2,,,62,127
11641,note_off,255,0,0,,2,,,62,127
11642,note_on,1,0,0,,3,,,63,127
11897,note_off,255,0,0,,3,,,63,127
11897,note_off,0,0,0,,0,,,48,127
11898,note_on,1,0,0,,0,,,60,127
11898,note_on,0,0,0,,4,,,64,127
12153,note_off,255,0,0,,4,,,64,127
12154,note_on,1,0,0,,4,,,76,127
12409,note_off,255,0,0,,4,,,76,127
12409,note_off,0,0,0,,0,,,60,127
12410,note_on,1,0,0,,12,,,59,127
12410,note_on,0,0,0,,7,,,79,127
12410,note_on,0,0,0,,10,,,81,127
12509,note_off,99,0,0,,10,,,81,127
12509,note_off,0,0,0,,7,,,79,127
12510,note_on,1,0,0,,5,,,77,127
12609,note_off,99,0,0,,5,,,77,127
12610,note_on,1,0,0,,4,,,76,127
12709,note_off,99,0,0,,4,,,76,127
12710,note_on,1,0,0,,2,,,74,127
12809,note_off,99,0,0,,2,,,74,127
12810,note_on,1,0,0,,0,,,72,127
12921,note_off,111,0,0,,0,,,72,127
12922,note_on,1,0,0,,7,,,67,127
12922,note_on,0,0,0,,1,,,73,127
13177,note_off,255,0,0,,1,,,73,127
13178,note_on,1,0,0,,2,,,74,127
13433,note_off,255,0,0,,2,,,74,127
13433,note_off,0,0,0,,12,,,59,127
13434,note_on,1,0,0,,10,,,57,127
13434,note_on,0,0,0,,7,,,79,127
13518,note_off,84,0,0,,7,,,79,127
13519,note_on,1,0,0,,6,,,78,127
13603,note_off,84,0,0,,6,,,78,127
13604,note_on,1,0,0,,4,,,76,127
13688,note_off,84,0,0,,4,,,76,127
13689,note_on,1,0,0,,2,,,74,127
13773,note_off,84,0,0,,2,,,74,127
13774,note_on,1,0,0,,0,,,72,127
13858,note_off,84,0,0,,0,,,72,127
13859,note_on,1,0,0,,12,,,71,127
13943,note_off,84,0,0,,7,,,67,127
13944,note_on,1,0,0,,6,,,66,127
14199,note_off,255,0,0,,12,,,71,127
14200,note_on,1,0,0,,0,,,72,127
14455,note_off,255,0,0,,0,,,72,127
14455,note_off,0,0,0,,6,,,66,127
14455,note_off,0,0,0,,10,,,57,127
14456,note_on,1,0,0,,7,,,67,127
14456,note_on,0,0,0,,7,,,55,127
14456,note_on,0,0,0,,7,,,79,127
14583,note_off,127,0,0,,7,,,79,127
14584,note_on,1,0,0,,6,,,78,127
14648,note_off,64,0,0,,6,,,78,127
14648,note_on,0,0,0,,4,,,76,127
14712,note_off,64,0,0,,4,,,76,127
14712,note_on,0,0,0,,2,,,74,127
14776,note_off,64,0,0,,2,,,74,127
14776,note_on,0,0,0,,0,,,72,127
14840,note_off,64,0,0,,0,,,72,127
14840,note_on,0,0,0,,12,,,71,127
14904,note_off,64,0,0,,12,,,71,127
14904,note_on,0,0,0,,10,,,69,127
14967,note_off,63,0,0,,7,,,67,127
14968,note_off,1,0,0,,10,,,69,127
14968,note_on,0,0,0,,7,,,43,127
14968,note_on,0,0,0,,11,,,70,127
15223,note_off,255,0,0,,11,,,70,127
15224,note_on,1,0,0,,12,,,71,127
15451,note_off,227,0,0,,12,,,71,127
15470,note_off,19,0,0,,7,,,55,127
15479,note_off,9,0,0,,7,,,43,127
15480,note_on,1,0,0,,0,,,48,127
15480,note_on,0,0,0,,3,,,75,127
15735,note_off,255,0,0,,3,,,75,127
15736,note_on,1,0,0,,4,,,76,127
15991,note_off,255,0,0,,0,,,48,127
15992,note_on,1,0,0,,0,,,48,127
16152,note_off,160,0,0,,4,,,76,127
16163,note_on,11,0,0,,2,,,74,127
16247,note_off,84,0,0,,2,,,74,127
16248,note_on,1,0,0,,0,,,72,127
16332,note_off,84,0,0,,0,,,72,127
16333,note_on,1,0,0,,12,,,71,127
16417,note_off,84,0,0,,12,,,71,127
16418,note_on,1,0,0,,10,,,69,127
16502,note_off,84,0,0,,10,,,69,127
16502,note_off,0,0,0,,0,,,48,127
16503,note_on,1,0,0,,2,,,50,127
16503,note_on,0,0,0,,7,,,67,127
16567,note_off,64,0,0,,7,,,67,127
16567,note_on,0,0,0,,6,,,66,127
16631,note_off,64,0,0,,6,,,66,127
16631,note_on,0,0,0,,7,,,67,127
16695,note_off,64,0,0,,7,,,67,127
16695,note_on,0,0,0,,6,,,66,127
16759,note_off,64,0,0,,6,,,66,127
16759,note_on,0,0,0,,7,,,67,127
16823,note_off,64,0,0,,7,,,67,127
16823,note_on,0,0,0,,6,,,66,127
16887,note_off,64,0,0,,6,,,66,127
16890,note_on,3,0,0,,4,,,64,127
17017,note_off,127,0,0,,4,,,64,127
17021,note_on,4,0,0,,2,,,62,127
17270,note_off,249,0,0,,2,,,50,127
17275,note_off,5,0,0,,2,,,62,127
17314,note_on,39,0,0,,12,,,83,127
17314,note_on,0,0,0,,7,,,67,127
17569,note_off,255,0,0,,7,,,67,127
17569,note_off,0,0,0,,12,,,83,127
17570,note_on,1,0,0,,10,,,81,127
17570,note_on,0,0,0,,6,,,66,127
17697,note_off,127,0,0,,6,,,66,127
17697,note_off,0,0,0,,10,,,81,127
17698,note_on,1,0,0,,7,,,79,127
17698,note_on,0,0,0,,7,,,67,127
17825,note_off,127,0,0,,7,,,67,127
17825,note_off,0,0,0,,7,,,79,127
17826,note_on,1,0,0,,6,,,78,127
17826,note_on,0,0,0,,10,,,69,127
17953,note_off,127,0,0,,10,,,69,127
17953,note_off,0,0,0,,6,,,78,127
17954,note_on,1,0,0,,4,,,76,127
17954,note_on,0,0,0,,12,,,71,127
18081,note_off,127,0,0,,12,,,71,127
18081,note_off,0,0,0,,4,,,76,127
18082,note_on,1,0,0,,2,,,74,127
18082,note_on,0,0,0,,0,,,72,127
18337,note_off,255,0,0,,0,,,72,127
18338,note_on,1,0,0,,2,,,50,127
18338,note_on,0,0,0,,2,,,38,127
18338,note_on,0,0,0,,10,,,69,127
18593,note_off,255,0,0,,10,,,69,127
18593,note_off,0,0,0,,2,,,38,127
18593,note_off,0,0,0,,2,,,50,127
18593,note_off,0,0,0,,2,,,74,127
18594,note_on,1,0,0,,7,,,55,127
18594,note_on,0,0,0,,7,,,43,127
18594,note_on,0,0,0,,2,,,74,127
18678,note_off,84,0,0,,2,,,74,127
18679,note_on,1,0,0,,0,,,72,127
18763,note_off,84,0,0,,0,,,72,127
18764,note_on,1,0,0,,12,,,71,127
18848,note_off,84,0,0,,12,,,71,127
18849,note_on,1,0,0,,0,,,72,127
18933,note_off,84,0,0,,0,,,72,127
18934,note_on,1,0,0,,12,,,71,127
19018,note_off,84,0,0,,12,,,71,127
19019,note_on,1,0,0,,10,,,69,127
19103,note_off,84,0,0,,10,,,69,127
19104,note_on,1,0,0,,7,,,67,127
19359,note_off,255,0,0,,7,,,67,127
19359,note_off,0,0,0,,7,,,43,127
19359,note_off,0,0,0,,7,,,55,127
19360,note_on,1,0,0,,12,,,83,127
19360,note_on,0,0,0,,7,,,67,127
19615,note_off,255,0,0,,7,,,67,127
19615,note_off,0,0,0,,12,,,83,127
19616,note_on,1,0,0,,10,,,81,127
19616,note_on,0,0,0,,6,,,66,127
19743,note_off,127,0,0,,6,,,66,127
19743,note_off,0,0,0,,10,,,81,127
19744,note_on,1,0,0,,7,,,79,127
19744,note_on,0,0,0,,7,,,67,127
19871,note_off,127,0,0,,7,,,67,127
19871,note_off,0,0,0,,7,,,79,127
19872,note_on,1,0,0,,6,,,78,127
19872,note_on,0,0,0,,10,,,69,127
19999,note_off,127,0,0,,10,,,69,127
19999,note_off,0,0,0,,6,,,78,127
20000,note_on,1,0,0,,4,,,76,127
20000,note_on,0,0,0,,12,,,71,127
20127,note_off,127,0,0,,12,,,71,127
20127,note_off,0,0,0,,4,,,76,127
20128,note_on,1,0,0,,2,,,74,127
20128,note_on,0,0,0,,0,,,72,127
20383,note_off,255,0,0,,0,,,72,127
20384,note_on,1,0,0,,2,,,50,127
20384,note_on,0,0,0,,2,,,38,127
20384,note_on,0,0,0,,10,,,69,127
20639,note_off,255,0,0,,10,,,69,127
20639,note_off,0,0,0,,2,,,38,127
20639,note_off,0,0,0,,2,,,50,127
20639,note_off,0,0,0,,2,,,74,127
20640,note_on,1,0,0,,7,,,55,127
20640,note_on,0,0,0,,7,,,43,127
20640,note_on,0,0,0,,2,,,74,127
20724,note_off,84,0,0,,2,,,74,127
20725,note_on,1,0,0,,0,,,72,127
20809,note_off,84,0,0,,0,,,72,127
20810,note_on,1,0,0,,12,,,71,127
20894,note_off,84,0,0,,12,,,71,127
20895,note_on,1,0,0,,0,,,72,127
20979,note_off,84,0,0,,0,,,72,127
20980,note_on,1,0,0,,12,,,71,127
21064,note_off,84,0,0,,12,,,71,127
21065,note_on,1,0,0,,10,,,69,127
21149,note_off,84,0,0,,10,,,69,127
21150,note_on,1,0,0,,12,,,71,127
21234,note_off,84,0,0,,12,,,71,127
21235,note_on,1,0,0,,10,,,69,127
21319,note_off,84,0,0,,10,,,69,127
21320,note_on,1,0,0,,7,,,67,127
21404,note_off,84,0,0,,7,,,67,127
21404,note_off,0,0,0,,7,,,43,127
21404,note_off,0,0,0,,7,,,55,127
21405,note_on,1,0,0,,12,,,47,127
21405,note_on,0,0,0,,10,,,69,127
21489,note_off,84,0,0,,10,,,69,127
21490,note_on,1,0,0,,7,,,67,127
21574,note_off,84,0,0,,7,,,67,127
21575,note_on,1,0,0,,6,,,66,127
21659,note_off,84,0,0,,6,,,66,127
21659,note_off,0,0,0,,12,,,47,127
21660,note_on,1,0,0,,0,,,48,127
21660,note_on,0,0,0,,7,,,67,127
21744,note_off,84,0,0,,7,,,67,127
21745,note_on,1,0,0,,6,,,66,127
21829,note_off,84,0,0,,6,,,66,127
21830,note_on,1,0,0,,4,,,64,127
21914,note_off,84,0,0,,4,,,64,127
21915,note_on,1,0,0,,0,,,60,127
21915,note_on,0,0,0,,3,,,75,127
21952,note_off,37,0,0,,0,,,48,127
22041,note_off,89,0,0,,3,,,75,127
22042,note_on,1,0,0,,4,,,76,127
22169,note_off,127,0,0,,4,,,76,127
22169,note_off,0,0,0,,0,,,60,127
22170,note_on,1,0,0,,2,,,62,127
22170,note_on,0,0,0,,7,,,67,127
22426,note_on,256,0,0,,2,,,50,127
22489,note_off,63,0,0,,7,,,67,127
22490,note_on,1,0,0,,6,,,66,127
22554,note_off,64,0,0,,6,,,66,127
22554,note_off,0,0,0,,2,,,62,127
22554,note_on,0,0,0,,7,,,67,127
22618,note_off,64,0,0,,7,,,67,127
22618,note_on,0,0,0,,6,,,66,127
22681,note_off,63,0,0,,2,,,50,127
22682,note_on,1,0,0,,7,,,43,127
22937,note_off,255,0,0,,6,,,66,127
22938,note_on,1,0,0,,7,,,67,127
23194,note_on,256,0,0,,2,,,62,127
23438,note_off,244,0,0,,7,,,67,127
23449,note_off,11,0,0,,2,,,62,127
23449,note_off,0,0,0,,7,,,43,127
23472,note_on,23,0,0,,7,,,67,127
23472,note_on,0,0,0,,11,,,82,127
23727,note_off,255,0,0,,11,,,82,127
23727,note_off,0,0,0,,7,,,67,127
23728,note_on,1,0,0,,6,,,66,127
23728,note_on,0,0,0,,10,,,81,127
23855,note_off,127,0,0,,10,,,81,127
23855,note_off,0,0,0,,6,,,66,127
23856,note_on,1,0,0,,7,,,67,127
23856,note_on,0,0,0,,7,,,79,127
23983,note_off,127,0,0,,7,,,79,127
23983,note_off,0,0,0,,7,,,67,127
23984,note_on,1,0,0,,10,,,69,127
23984,note_on,0,0,0,,6,,,78,127
24111,note_off,127,0,0,,6,,,78,127
24111,note_off,0,0,0,,10,,,69,127
24112,note_on,1,0,0,,11,,,70,127
24112,note_on,0,0,0,,4,,,76,127
24239,note_off,127,0,0,,4,,,76,127
24239,note_off,0,0,0,,11,,,70,127
24240,note_on,1,0,0,,0,,,72,127
24240,note_on,0,0,0,,2,,,74,127
24495,note_off,255,0,0,,0,,,72,127
24496,note_on,1,0,0,,10,,,69,127
24496,note_on,0,0,0,,2,,,38,127
24496,note_on,0,0,0,,2,,,50,127
24751,note_off,255,0,0,,2,,,50,127
24751,note_off,0,0,0,,2,,,38,127
24751,note_off,0,0,0,,10,,,69,127
24751,note_off,0,0,0,,2,,,74,127
24752,note_on,1,0,0,,2,,,74,127
24752,note_on,0,0,0,,7,,,55,127
24752,note_on,0,0,0,,7,,,43,127
24836,note_off,84,0,0,,2,,,74,127
24837,note_on,1,0,0,,0,,,72,127
24921,note_off,84,0,0,,0,,,72,127
24922,note_on,1,0,0,,11,,,70,127
25006,note_off,84,0,0,,11,,,70,127
25007,note_on,1,0,0,,0,,,72,127
25091,note_off,84,0,0,,0,,,72,127
25092,note_on,1,0,0,,11,,,70,127
25176,note_off,84,0,0,,11,,,70,127
25177,note_on,1,0,0,,10,,,69,127
25261,note_off,84,0,0,,10,,,69,127
25262,note_on,1,0,0,,7,,,67,127
25517,note_off,255,0,0,,7,,,67,127
25517,note_off,0,0,0,,7,,,43,127
25517,note_off,0,0,0,,7,,,55,127
25518,note_on,1,0,0,,7,,,67,127
25518,note_on,0,0,0,,11,,,82,127
25773,note_off,255,0,0,,11,,,82,127
25773,note_off,0,0,0,,7,,,67,127
25774,note_on,1,0,0,,6,,,66,127
25774,note_on,0,0,0,,10,,,81,127
25901,note_off,127,0,0,,10,,,81,127
25901,note_off,0,0,0,,6,,,66,127
25902,note_on,1,0,0,,7,,,67,127
25902,note_on,0,0,0,,7,,,79,127
26029,note_off,127,0,0,,7,,,79,127
26029,note_off,0,0,0,,7,,,67,127
26030,note_on,1,0,0,,10,,,69,127
26030,note_on,0,0,0,,6,,,78,127
26157,note_off,127,0,0,,6,,,78,127
26157,note_off,0,0,0,,10,,,69,127
26158,note_on,1,0,0,,11,,,70,127
26158,note_on,0,0,0,,4,,,76,127
26285,note_off,127,0,0,,4,,,76,127
26285,note_off,0,0,0,,11,,,70,127
26286,note_on,1,0,0,,0,,,72,127
26286,note_on,0,0,0,,2,,,74,127
26541,note_off,255,0,0,,0,,,72,127
26542,note_on,1,0,0,,10,,,69,127
26542,note_on,0,0,0,,2,,,38,127
26542,note_on,0,0,0,,2,,,50,127
26797,note_off,255,0,0,,2,,,50,127
26797,note_off,0,0,0,,2,,,38,127
26797,note_off,0,0,0,,10,,,69,127
26797,note_off,0,0,0,,2,,,74,127
26798,note_on,1,0,0,,2,,,74,127
26798,note_on,0,0,0,,7,,,55,127
26798,note_on,0,0,0,,7,,,43,127
26882,note_off,84,0,0,,2,,,74,127
26883,note_on,1,0,0,,0,,,72,127
26967,note_off,84,0,0,,0,,,72,127
26968,note_on,1,0,0,,11,,,70,127
27052,note_off,84,0,0,,11,,,70,127
27053,note_on,1,0,0,,0,,,72,127
27137,note_off,84,0,0,,0,,,72,127
27138,note_on,1,0,0,,11,,,70,127
27222,note_off,84,0,0,,11,,,70,127
27223,note_on,1,0,0,,10,,,69,127
27307,note_off,84,0,0,,10,,,69,127
27308,note_on,1,0,0,,11,,,70,127
27392,note_off,84,0,0,,11,,,70,127
27393,note_on,1,0,0,,10,,,69,127
27477,note_off,84,0,0,,10,,,69,127
27478,note_on,1,0,0,,7,,,67,127
27562,note_off,84,0,0,,7,,,67,127
27562,note_off,0,0,0,,7,,,43,127
27562,note_off,0,0,0,,7,,,55,127
27563,note_on,1,0,0,,10,,,69,127
27563,note_on,0,0,0,,11,,,58,127
27647,note_off,84,0,0,,10,,,69,127
27648,note_on,1,0,0,,7,,,67,127
27732,note_off,84,0,0,,7,,,67,127
27733,note_on,1,0,0,,5,,,65,127
27817,note_off,84,0,0,,5,,,65,127
27817,note_off,0,0,0,,11,,,58,127
27818,note_on,1,0,0,,3,,,63,127
27818,note_on,0,0,0,,0,,,48,127
27902,note_off,84,0,0,,3,,,63,127
27903,note_on,1,0,0,,2,,,62,127
27987,note_off,84,0,0,,2,,,62,127
27988,note_on,1,0,0,,0,,,60,127
28072,note_off,84,0,0,,0,,,60,127
28072,note_off,0,0,0,,0,,,48,127
28073,note_on,1,0,0,,0,,,72,127
28073,note_on,0,0,0,,0,,,60,127
28157,note_off,84,0,0,,0,,,72,127
28158,note_on,1,0,0,,11,,,70,127
28242,note_off,84,0,0,,11,,,70,127
28243,note_on,1,0,0,,10,,,69,127
28327,note_off,84,0,0,,10,,,69,127
28327,note_off,0,0,0,,0,,,60,127
28328,note_on,1,0,0,,7,,,67,127
28328,note_on,0,0,0,,2,,,62,127
28584,note_on,256,0,0,,2,,,50,127
28647,note_off,63,0,0,,7,,,67,127
28648,note_on,1,0,0,,6,,,66,127
28712,note_off,64,0,0,,6,,,66,127
28712,note_off,0,0,0,,2,,,62,127
28712,note_on,0,0,0,,7,,,67,127
28776,note_off,64,0,0,,7,,,67,127
28776,note_on,0,0,0,,6,,,66,127
28839,note_off,63,0,0,,2,,,50,127
28840,note_off,1,0,0,,6,,,66,127
28840,note_on,0,0,0,,7,,,67,127
28840,note_on,0,0,0,,7,,,43,127
29095,note_off,255,0,0,,7,,,43,127
29095,note_off,0,0,0,,7,,,67,127
29096,note_on,1,0,0,,7,,,67,127
29245,note_on,149,0,0,,12,,,71,127
29309,note_off,64,0,0,,12,,,71,127
29309,note_on,0,0,0,,10,,,69,127
29350,note_off,41,0,0,,7,,,67,127
29373,note_off,23,0,0,,10,,,69,127
29373,note_on,0,0,0,,4,,,64,127
29373,note_on,0,0,0,,7,,,67,127
29629,note_on,256,0,0,,0,,,60,127
29692,note_off,63,0,0,,7,,,67,127
29693,note_on,1,0,0,,0,,,72,127
29757,note_off,64,0,0,,0,,,72,127
29757,note_on,0,0,0,,12,,,71,127
29821,note_off,64,0,0,,12,,,71,127
29821,note_on,0,0,0,,10,,,69,127
29826,note_off,5,0,0,,4,,,64,127
29883,note_off,57,0,0,,0,,,60,127
29884,note_off,1,0,0,,10,,,69,127
29884,note_on,0,0,0,,2,,,62,127
29884,note_on,0,0,0,,12,,,59,127
29884,note_on,0,0,0,,7,,,67,127
30140,note_on,256,0,0,,7,,,55,127
30203,note_off,63,0,0,,7,,,67,127
30204,note_on,1,0,0,,2,,,74,127
30268,note_off,64,0,0,,2,,,74,127
30268,note_on,0,0,0,,12,,,71,127
30332,note_off,64,0,0,,12,,,71,127
30332,note_on,0,0,0,,10,,,69,127
30337,note_off,5,0,0,,12,,,59,127
30337,note_off,0,0,0,,2,,,62,127
30394,note_off,57,0,0,,7,,,55,127
30395,note_off,1,0,0,,10,,,69,127
30395,note_on,0,0,0,,0,,,60,127
30395,note_on,0,0,0,,4,,,64,127
30395,note_on,0,0,0,,7,,,67,127
30651,note_on,256,0,0,,10,,,57,127
30714,note_off,63,0,0,,7,,,67,127
30715,note_on,1,0,0,,4,,,76,127
30779,note_off,64,0,0,,4,,,76,127
30779,note_on,0,0,0,,12,,,71,127
30843,note_off,64,0,0,,12,,,71,127
30843,note_on,0,0,0,,10,,,69,127
30848,note_off,5,0,0,,4,,,64,127
30848,note_off,0,0,0,,0,,,60,127
30905,note_off,57,0,0,,10,,,57,127
30906,note_off,1,0,0,,10,,,69,127
30906,note_on,0,0,0,,2,,,62,127
30906,note_on,0,0,0,,12,,,59,127
30906,note_on,0,0,0,,7,,,67,127
31162,note_on,256,0,0,,7,,,55,127
31225,note_off,63,0,0,,7,,,67,127
31226,note_on,1,0,0,,6,,,78,127
31290,note_off,64,0,0,,6,,,78,127
31290,note_on,0,0,0,,12,,,71,127
31354,note_off,64,0,0,,12,,,71,127
31354,note_on,0,0,0,,10,,,69,127
31359,note_off,5,0,0,,12,,,59,127
31359,note_off,0,0,0,,2,,,62,127
31416,note_off,57,0,0,,7,,,55,127
31417,note_off,1,0,0,,10,,,69,127
31417,note_on,0,0,0,,4,,,64,127
31417,note_on,0,0,0,,0,,,60,127
31417,note_on,0,0,0,,7,,,67,127
31673,note_on,256,0,0,,10,,,57,127
31736,note_off,63,0,0,,7,,,67,127
31737,note_on,1,0,0,,7,,,79,127
31801,note_off,64,0,0,,7,,,79,127
31801,note_on,0,0,0,,12,,,71,127
31865,note_off,64,0,0,,12,,,71,127
31865,note_on,0,0,0,,10,,,69,127
31870,note_off,5,0,0,,0,,,60,127
31870,note_off,0,0,0,,4,,,64,127
31927,note_off,57,0,0,,10,,,57,127
31928,note_off,1,0,0,,10,,,69,127
31928,note_on,0,0,0,,12,,,59,127
31928,note_on,0,0,0,,2,,,62,127
31928,note_on,0,0,0,,7,,,67,127
32184,note_on,256,0,0,,7,,,79,127
32312,note_off,128,0,0,,7,,,67,127
32439,note_off,127,0,0,,7,,,79,127
32440,note_on,1,0,0,,6,,,78,127
32524,note_off,84,0,0,,6,,,78,127
32525,note_on,1,0,0,,4,,,76,127
32594,note_off,69,0,0,,2,,,62,127
32594,note_off,0,0,0,,12,,,59,127
32609,note_off,15,0,0,,4,,,76,127
32610,note_on,1,0,0,,2,,,74,127
32694,note_off,84,0,0,,2,,,74,127
32695,note_on,1,0,0,,0,,,60,127
32695,note_on,0,0,0,,10,,,57,127
32695,note_on,0,0,0,,0,,,72,127
32779,note_off,84,0,0,,0,,,72,127
32780,note_on,1,0,0,,12,,,71,127
32864,note_off,84,0,0,,12,,,71,127
32865,note_on,1,0,0,,10,,,69,127
32949,note_off,84,0,0,,10,,,69,127
32949,note_off,0,0,0,,10,,,57,127
32949,note_off,0,0,0,,0,,,60,127
32950,note_on,1,0,0,,2,,,62,127
32950,note_on,0,0,0,,7,,,55,127
32950,note_on,0,0,0,,12,,,71,127
33034,note_off,84,0,0,,12,,,71,127
33035,note_on,1,0,0,,0,,,72,127
33119,note_off,84,0,0,,0,,,72,127
33120,note_on,1,0,0,,2,,,74,127
33204,note_off,84,0,0,,2,,,74,127
33204,note_off,0,0,0,,7,,,55,127
33204,note_off,0,0,0,,2,,,62,127
33205,note_on,1,0,0,,0,,,48,127
33205,note_on,0,0,0,,0,,,72,127
33289,note_off,84,0,0,,0,,,72,127
33290,note_on,1,0,0,,12,,,71,127
33374,note_off,84,0,0,,12,,,71,127
33375,note_on,1,0,0,,10,,,69,127
33459,note_off,84,0,0,,10,,,69,127
33459,note_off,0,0,0,,0,,,48,127
33460,note_on,1,0,0,,2,,,50,127
33460,note_on,0,0,0,,2,,,74,127
33544,note_off,84,0,0,,2,,,74,127
33545,note_on,1,0,0,,0,,,72,127
33629,note_off,84,0,0,,0,,,72,127
33630,note_on,1,0,0,,12,,,71,127
33714,note_off,84,0,0,,12,,,71,127
33715,note_on,1,0,0,,2,,,38,127
33715,note_on,0,0,0,,10,,,69,127
33799,note_off,84,0,0,,10,,,69,127
33800,note_on,1,0,0,,7,,,67,127
33884,note_off,84,0,0,,7,,,67,127
33885,note_on,1,0,0,,6,,,66,127
33969,note_off,84,0,0,,6,,,66,127
33969,note_off,0,0,0,,2,,,38,127
33969,note_off,0,0,0,,2,,,50,127
33970,note_on,1,0,0,,7,,,43,127
33970,note_on,0,0,0,,10,,,69,127
34013,note_on,43,0,0,,7,,,67,127
34034,note_off,21,0,0,,10,,,69,127
34055,note_on,21,0,0,,10,,,69,127
34076,note_off,21,0,0,,7,,,67,127
34097,note_on,21,0,0,,7,,,67,127
34118,note_off,21,0,0,,10,,,69,127
34139,note_on,21,0,0,,10,,,69,127
34160,note_off,21,0,0,,7,,,67,127
34181,note_on,21,0,0,,7,,,67,127
34202,note_off,21,0,0,,10,,,69,127
34222,note_off,20,0,0,,7,,,43,127
34223,note_on,1,0,0,,10,,,69,127
34244,note_off,21,0,0,,7,,,67,127
34265,note_on,21,0,0,,7,,,67,127
34286,note_off,21,0,0,,10,,,69,127
34350,note_on,64,0,0,,12,,,71,127
34474,note_off,124,0,0,,7,,,67,127
34477,note_off,3,0,0,,12,,,71,127
34478,note_on,1,0,0,,4,,,64,127
34478,note_on,0,0,0,,10,,,69,127
34521,note_on,43,0,0,,7,,,67,127
34542,note_off,21,0,0,,10,,,69,127
34563,note_on,21,0,0,,10,,,69,127
34584,note_off,21,0,0,,7,,,67,127
34605,note_on,21,0,0,,7,,,67,127
34626,note_off,21,0,0,,10,,,69,127
34647,note_on,21,0,0,,10,,,69,127
34668,note_off,21,0,0,,7,,,67,127
34689,note_on,21,0,0,,7,,,67,127
34710,note_off,21,0,0,,10,,,69,127
34730,note_off,20,0,0,,4,,,64,127
34731,note_on,1,0,0,,0,,,60,127
34731,note_on,0,0,0,,10,,,69,127
34752,note_off,21,0,0,,7,,,67,127
34773,note_on,21,0,0,,7,,,67,127
34794,note_off,21,0,0,,10,,,69,127
34857,note_off,63,0,0,,7,,,67,127
34858,note_on,1,0,0,,0,,,72,127
34985,note_off,127,0,0,,0,,,72,127
34985,note_off,0,0,0,,0,,,60,127
34986,note_on,1,0,0,,2,,,62,127
34986,note_on,0,0,0,,12,,,59,127
34986,note_on,0,0,0,,10,,,69,127
35029,note_on,43,0,0,,7,,,67,127
35050,note_off,21,0,0,,10,,,69,127
35071,note_on,21,0,0,,10,,,69,127
35092,note_off,21,0,0,,7,,,67,127
35113,note_on,21,0,0,,7,,,67,127
35134,note_off,21,0,0,,10,,,69,127
35155,note_on,21,0,0,,10,,,69,127
35176,note_off,21,0,0,,7,,,67,127
35197,note_on,21,0,0,,7,,,67,127
35218,note_off,21,0,0,,10,,,69,127
35238,note_off,20,0,0,,12,,,59,127
35238,note_off,0,0,0,,2,,,62,127
35239,note_on,1,0,0,,7,,,55,127
35239,note_on,0,0,0,,10,,,69,127
35260,note_off,21,0,0,,7,,,67,127
35281,note_on,21,0,0,,7,,,67,127
35302,note_off,21,0,0,,10,,,69,127
35365,note_off,63,0,0,,7,,,67,127
35366,note_on,1,0,0,,2,,,74,127
35493,note_off,127,0,0,,2,,,74,127
35493,note_off,0,0,0,,7,,,55,127
35494,note_on,1,0,0,,4,,,64,127
35494,note_on,0,0,0,,0,,,60,127
35494,note_on,0,0,0,,10,,,69,127
35537,note_on,43,0,0,,7,,,67,127
35558,note_off,21,0,0,,10,,,69,127
35579,note_on,21,0,0,,10,,,69,127
35600,note_off,21,0,0,,7,,,67,127
35621,note_on,21,0,0,,7,,,67,127
35642,note_off,21,0,0,,10,,,69,127
35663,note_on,21,0,0,,10,,,69,127
35684,note_off,21,0,0,,7,,,67,127
35705,note_on,21,0,0,,7,,,67,127
35726,note_off,21,0,0,,10,,,69,127
35746,note_off,20,0,0,,0,,,60,127
35746,note_off,0,0,0,,4,,,64,127
35747,note_on,1,0,0,,10,,,57,127
35747,note_on,0,0,0,,10,,,69,127
35768,note_off,21,0,0,,7,,,67,127
35789,note_on,21,0,0,,7,,,67,127
35810,note_off,21,0,0,,10,,,69,127
35873,note_off,63,0,0,,7,,,67,127
35874,note_on,1,0,0,,4,,,76,127
36001,note_off,127,0,0,,4,,,76,127
36001,note_off,0,0,0,,10,,,57,127
36002,note_on,1,0,0,,12,,,59,127
36002,note_on,0,0,0,,2,,,62,127
36002,note_on,0,0,0,,10,,,69,127
36045,note_on,43,0,0,,7,,,67,127
36066,note_off,21,0,0,,10,,,69,127
36087,note_on,21,0,0,,10,,,69,127
36108,note_off,21,0,0,,7,,,67,127
36129,note_on,21,0,0,,7,,,67,127
36150,note_off,21,0,0,,10,,,69,127
36171,note_on,21,0,0,,10,,,69,127
36192,note_off,21,0,0,,7,,,67,127
36213,note_on,21,0,0,,7,,,67,127
36234,note_off,21,0,0,,10,,,69,127
36254,note_off,20,0,0,,2,,,62,127
36254,note_off,0,0,0,,12,,,59,127
36255,note_on,1,0,0,,7,,,55,127
36255,note_on,0,0,0,,10,,,69,127
36276,note_off,21,0,0,,7,,,67,127
36297,note_on,21,0,0,,7,,,67,127
36318,note_off,21,0,0,,10,,,69,127
36381,note_off,63,0,0,,7,,,67,127
36382,note_on,1,0,0,,6,,,78,127
36509,note_off,127,0,0,,6,,,78,127
36509,note_off,0,0,0,,7,,,55,127
36510,note_on,1,0,0,,4,,,64,127
36510,note_on,0,0,0,,0,,,60,127
36510,note_on,0,0,0,,10,,,69,127
36553,note_on,43,0,0,,7,,,67,127
36574,note_off,21,0,0,,10,,,69,127
36595,note_on,21,0,0,,10,,,69,127
36616,note_off,21,0,0,,7,,,67,127
36637,note_on,21,0,0,,7,,,67,127
36658,note_off,21,0,0,,10,,,69,127
36679,note_on,21,0,0,,10,,,69,127
36700,note_off,21,0,0,,7,,,67,127
36721,note_on,21,0,0,,7,,,67,127
36742,note_off,21,0,0,,10,,,69,127
36762,note_off,20,0,0,,0,,,60,127
36762,note_off,0,0,0,,4,,,64,127
36763,note_on,1,0,0,,10,,,57,127
36763,note_on,0,0,0,,10,,,69,127
36784,note_off,21,0,0,,7,,,67,127
36805,note_on,21,0,0,,7,,,67,127
36826,note_off,21,0,0,,10,,,69,127
36889,note_off,63,0,0,,7,,,67,127
36890,note_on,1,0,0,,7,,,79,127
37017,note_off,127,0,0,,7,,,79,127
37017,note_off,0,0,0,,10,,,57,127
37018,note_on,1,0,0,,2,,,62,127
37018,note_on,0,0,0,,12,,,59,127
37018,note_on,0,0,0,,10,,,69,127
37066,note_on,48,0,0,,7,,,67,127
37082,note_off,16,0,0,,10,,,69,127
37114,note_on,32,0,0,,10,,,69,127
37130,note_off,16,0,0,,7,,,67,127
37162,note_on,32,0,0,,7,,,67,127
37178,note_off,16,0,0,,10,,,69,127
37269,note_off,91,0,0,,7,,,67,127
37296,note_on,27,0,0,,12,,,83,127
37551,note_off,255,0,0,,12,,,83,127
37552,note_on,1,0,0,,10,,,81,127
37636,note_off,84,0,0,,10,,,81,127
37637,note_on,1,0,0,,7,,,79,127
37658,note_off,21,0,0,,12,,,59,127
37658,note_off,0,0,0,,2,,,62,127
37721,note_off,63,0,0,,7,,,79,127
37722,note_on,1,0,0,,6,,,78,127
37806,note_off,84,0,0,,6,,,78,127
37807,note_on,1,0,0,,4,,,76,127
37807,note_on,0,0,0,,0,,,60,127
37807,note_on,0,0,0,,10,,,57,127
37891,note_off,84,0,0,,4,,,76,127
37892,note_on,1,0,0,,2,,,74,127
37976,note_off,84,0,0,,2,,,74,127
37977,note_on,1,0,0,,0,,,72,127
38061,note_off,84,0,0,,0,,,72,127
38061,note_off,0,0,0,,10,,,57,127
38061,note_off,0,0,0,,0,,,60,127
38062,note_on,1,0,0,,12,,,71,127
38062,note_on,0,0,0,,7,,,55,127
38062,note_on,0,0,0,,2,,,62,127
38146,note_off,84,0,0,,12,,,71,127
38147,note_on,1,0,0,,0,,,72,127
38231,note_off,84,0,0,,0,,,72,127
38232,note_on,1,0,0,,2,,,74,127
38316,note_off,84,0,0,,2,,,74,127
38316,note_off,0,0,0,,2,,,62,127
38316,note_off,0,0,0,,7,,,55,127
38317,note_on,1,0,0,,0,,,72,127
38317,note_on,0,0,0,,0,,,48,127
38401,note_off,84,0,0,,0,,,72,127
38402,note_on,1,0,0,,12,,,71,127
38486,note_off,84,0,0,,12,,,71,127
38487,note_on,1,0,0,,10,,,69,127
38571,note_off,84,0,0,,10,,,69,127
38571,note_off,0,0,0,,0,,,48,127
38572,note_on,1,0,0,,2,,,74,127
38572,note_on,0,0,0,,2,,,50,127
38656,note_off,84,0,0,,2,,,74,127
38657,note_on,1,0,0,,0,,,72,127
38741,note_off,84,0,0,,0,,,72,127
38742,note_on,1,0,0,,12,,,71,127
38826,note_off,84,0,0,,12,,,71,127
38827,note_on,1,0,0,,10,,,69,127
38827,note_on,0,0,0,,2,,,38,127
38911,note_off,84,0,0,,10,,,69,127
38912,note_on,1,0,0,,7,,,67,127
38955,note_off,43,0,0,,2,,,50,127
38996,note_off,41,0,0,,7,,,67,127
38997,note_on,1,0,0,,6,,,66,127
39081,note_off,84,0,0,,6,,,66,127
39081,note_off,0,0,0,,2,,,38,127
39082,note_on,1,0,0,,7,,,67,127
39146,note_on,64,0,0,,7,,,43,127
39210,note_off,64,0,0,,7,,,43,127
39210,note_on,0,0,0,,12,,,47,127
39274,note_off,64,0,0,,12,,,47,127
39274,note_on,0,0,0,,2,,,50,127
39338,note_off,64,0,0,,2,,,50,127
39338,note_on,0,0,0,,7,,,55,127
39402,note_off,64,0,0,,7,,,55,127
39402,note_on,0,0,0,,12,,,59,127
39466,note_off,64,0,0,,12,,,59,127
39466,note_off,0,0,0,,7,,,67,127
39466,note_on,0,0,0,,2,,,62,127
39530,note_off,64,0,0,,2,,,62,127
39530,note_on,0,0,0,,7,,,67,127
39594,note_off,64,0,0,,7,,,67,127
39594,note_on,0,0,0,,12,,,71,127
39658,note_off,64,0,0,,12,,,71,127
39658,note_on,0,0,0,,2,,,74,127
39722,note_off,64,0,0,,2,,,74,127
39722,note_on,0,0,0,,7,,,79,127
40106,note_off,384,0,0,,7,,,79,127
40362,note_on,256,0,0,,6,,,78,127
40362,note_on,0,0,0,,4,,,76,127
40362,note_on,0,0,0,,0,,,60,127
40617,note_off,255,0,0,,0,,,60,127
40617,note_off,0,0,0,,4,,,76,127
40617,note_off,0,0,0,,6,,,78,127
40618,note_on,1,0,0,,2,,,74,127
40618,note_on,0,0,0,,2,,,62,127
40702,note_off,84,0,0,,2,,,74,127
40703,note_on,1,0,0,,0,,,72,127
40787,note_off,84,0,0,,0,,,72,127
40788,note_on,1,0,0,,12,,,71,127
40872,note_off,84,0,0,,12,,,71,127
40872,note_off,0,0,0,,2,,,62,127
40873,note_on,1,0,0,,10,,,69,127
40873,note_on,0,0,0,,2,,,50,127
40957,note_off,84,0,0,,10,,,69,127
40958,note_on,1,0,0,,7,,,67,127
41042,note_off,84,0,0,,7,,,67,127
41043,note_on,1,0,0,,6,,,66,127
41127,note_off,84,0,0,,6,,,66,127
41127,note_off,0,0,0,,2,,,50,127
41128,note_on,1,0,0,,7,,,67,127
41192,note_on,64,0,0,,7,,,43,127
41256,note_off,64,0,0,,7,,,43,127
41256,note_on,0,0,0,,11,,,46,127
41320,note_off,64,0,0,,11,,,46,127
41320,note_on,0,0,0,,2,,,50,127
41384,note_off,64,0,0,,2,,,50,127
41384,note_on,0,0,0,,7,,,55,127
41448,note_off,64,0,0,,7,,,55,127
41448,note_on,0,0,0,,11,,,58,127
41512,note_off,64,0,0,,11,,,58,127
41512,note_off,0,0,0,,7,,,67,127
41512,note_on,0,0,0,,2,,,62,127
41576,note_off,64,0,0,,2,,,62,127
41576,note_on,0,0,0,,7,,,67,127
41640,note_off,64,0,0,,7,,,67,127
41640,note_on,0,0,0,,11,,,70,127
41704,note_off,64,0,0,,11,,,70,127
41704,note_on,0,0,0,,2,,,74,127
41768,note_off,64,0,0,,2,,,74,127
41768,note_on,0,0,0,,7,,,79,127
42152,note_off,384,0,0,,7,,,79,127
42408,note_on,256,0,0,,5,,,77,127
42408,note_on,0,0,0,,3,,,75,127
42408,note_on,0,0,0,,0,,,60,127
42663,note_off,255,0,0,,0,,,60,127
42663,note_off,0,0,0,,3,,,75,127
42663,note_off,0,0,0,,5,,,77,127
42664,note_on,1,0,0,,2,,,74,127
42664,note_on,0,0,0,,2,,,62,127
42748,note_off,84,0,0,,2,,,74,127
42749,note_on,1,0,0,,0,,,72,127
42833,note_off,84,0,0,,0,,,72,127
42834,note_on,1,0,0,,11,,,70,127
42918,note_off,84,0,0,,11,,,70,127
42918,note_off,0,0,0,,2,,,62,127
42919,note_on,1,0,0,,10,,,69,127
42919,note_on,0,0,0,,2,,,50,127
43003,note_off,84,0,0,,10,,,69,127
43004,note_on,1,0,0,,7,,,67,127
43088,note_off,84,0,0,,7,,,67,127
43089,note_on,1,0,0,,6,,,66,127
43173,note_off,84,0,0,,6,,,66,127
43173,note_off,0,0,0,,2,,,50,127
43174,note_on,1,0,0,,7,,,67,127
43238,note_on,64,0,0,,7,,,43,127
43302,note_off,64,0,0,,7,,,43,127
43302,note_on,0,0,0,,12,,,47,127
43366,note_off,64,0,0,,12,,,47,127
43366,note_on,0,0,0,,2,,,50,127
43430,note_off,64,0,0,,2,,,50,127
43430,note_on,0,0,0,,7,,,55,127
43494,note_off,64,0,0,,7,,,55,127
43494,note_on,0,0,0,,12,,,59,127
43558,note_off,64,0,0,,12,,,59,127
43558,note_off,0,0,0,,7,,,67,127
43558,note_on,0,0,0,,2,,,62,127
43622,note_off,64,0,0,,2,,,62,127
43622,note_on,0,0,0,,7,,,67,127
43686,note_off,64,0,0,,7,,,67,127
43686,note_on,0,0,0,,12,,,71,127
43750,note_off,64,0,0,,12,,,71,127
43750,note_on,0,0,0,,2,,,74,127
43814,note_off,64,0,0,,2,,,74,127
43814,note_on,0,0,0,,7,,,79,127
43878,note_off,64,0,0,,7,,,79,127
43878,note_on,0,0,0,,12,,,83,127
44385,note_off,507,0,0,,12,,,83,127
44518,note_on,133,0,0,,4,,,64,127
44518,note_on,0,0,0,,0,,,60,127
44518,note_on,0,0,0,,4,,,76,127
44518,note_on,0,0,0,,0,,,84,127
44773,note_off,255,0,0,,0,,,84,127
44773,note_off,0,0,0,,4,,,76,127
44773,note_off,0,0,0,,0,,,60,127
44773,note_off,0,0,0,,4,,,64,127
44774,note_on,1,0,0,,2,,,62,127
44774,note_on,0,0,0,,2,,,74,127
44774,note_on,0,0,0,,12,,,83,127
44858,note_off,84,0,0,,12,,,83,127
44859,note_on,1,0,0,,10,,,81,127
44943,note_off,84,0,0,,10,,,81,127
44944,note_on,1,0,0,,7,,,79,127
45028,note_off,84,0,0,,7,,,79,127
45028,note_off,0,0,0,,2,,,74,127
45029,note_on,1,0,0,,2,,,50,127
45029,note_on,0,0,0,,10,,,81,127
45029,note_on,0,0,0,,0,,,72,127
45113,note_off,84,0,0,,10,,,81,127
45114,note_on,1,0,0,,7,,,79,127
45198,note_off,84,0,0,,7,,,79,127
45199,note_on,1,0,0,,6,,,78,127
45283,note_off,84,0,0,,6,,,78,127
45283,note_off,0,0,0,,0,,,72,127
45283,note_off,0,0,0,,2,,,50,127
45283,note_off,0,0,0,,2,,,62,127
45284,note_on,1,0,0,,7,,,55,127
45284,note_on,0,0,0,,7,,,79,127
45369,note_on,85,0,0,,2,,,74,127
45430,note_off,61,0,0,,7,,,79,127
45454,note_on,24,0,0,,12,,,71,127
45515,note_off,61,0,0,,2,,,74,127
45538,note_off,23,0,0,,7,,,55,127
45539,note_on,1,0,0,,0,,,60,127
45539,note_on,0,0,0,,4,,,64,127
45539,note_on,0,0,0,,4,,,76,127
45600,note_off,61,0,0,,12,,,71,127
45624,note_on,24,0,0,,0,,,72,127
45685,note_off,61,0,0,,4,,,76,127
45709,note_on,24,0,0,,10,,,69,127
45770,note_off,61,0,0,,0,,,72,127
45793,note_off,23,0,0,,4,,,64,127
45793,note_off,0,0,0,,0,,,60,127
45794,note_on,1,0,0,,2,,,62,127
45794,note_on,0,0,0,,12,,,59,127
45794,note_on,0,0,0,,2,,,74,127
45855,note_off,61,0,0,,10,,,69,127
45879,note_on,24,0,0,,12,,,71,127
45940,note_off,61,0,0,,2,,,74,127
45964,note_on,24,0,0,,7,,,67,127
46025,note_off,61,0,0,,12,,,71,127
46048,note_off,23,0,0,,12,,,59,127
46048,note_off,0,0,0,,2,,,62,127
46049,note_on,1,0,0,,0,,,60,127
46049,note_on,0,0,0,,10,,,57,127
46049,note_on,0,0,0,,0,,,72,127
46110,note_off,61,0,0,,7,,,67,127
46134,note_on,24,0,0,,10,,,69,127
46195,note_off,61,0,0,,0,,,72,127
46219,note_on,24,0,0,,6,,,66,127
46280,note_off,61,0,0,,10,,,69,127
46303,note_off,23,0,0,,10,,,57,127
46303,note_off,0,0,0,,0,,,60,127
46304,note_on,1,0,0,,12,,,59,127
46304,note_on,0,0,0,,7,,,55,127
46304,note_on,0,0,0,,12,,,71,127
46365,note_off,61,0,0,,6,,,66,127
46389,note_on,24,0,0,,7,,,67,127
46450,note_off,61,0,0,,12,,,71,127
46474,note_on,24,0,0,,2,,,62,127
46535,note_off,61,0,0,,7,,,67,127
46558,note_off,23,0,0,,7,,,55,127
46558,note_off,0,0,0,,12,,,59,127
46559,note_on,1,0,0,,0,,,48,127
46559,note_on,0,0,0,,0,,,72,127
46620,note_off,61,0,0,,2,,,62,127
46644,note_on,24,0,0,,7,,,67,127
46705,note_off,61,0,0,,0,,,72,127
46729,note_on,24,0,0,,4,,,64,127
46790,note_off,61,0,0,,7,,,67,127
46813,note_off,23,0,0,,0,,,48,127
46814,note_on,1,0,0,,2,,,50,127
46814,note_on,0,0,0,,12,,,71,127
46875,note_off,61,0,0,,4,,,64,127
46899,note_on,24,0,0,,7,,,67,127
46960,note_off,61,0,0,,12,,,71,127
46984,note_on,24,0,0,,2,,,62,127
47045,note_off,61,0,0,,7,,,67,127
47069,note_on,24,0,0,,2,,,38,127
47069,note_on,0,0,0,,10,,,69,127
47130,note_off,61,0,0,,2,,,62,127
47154,note_on,24,0,0,,7,,,67,127
47215,note_off,61,0,0,,10,,,69,127
47239,note_on,24,0,0,,6,,,66,127
47300,note_off,61,0,0,,7,,,67,127
47323,note_off,23,0,0,,2,,,38,127
47323,note_off,0,0,0,,2,,,50,127
47324,note_on,1,0,0,,7,,,55,127
47324,note_on,0,0,0,,7,,,67,127
47385,note_off,61,0,0,,6,,,66,127
47409,note_on,24,0,0,,2,,,62,127
47470,note_off,61,0,0,,7,,,67,127
47494,note_on,24,0,0,,12,,,59,127
47555,note_off,61,0,0,,2,,,62,127
47578,note_off,23,0,0,,7,,,55,127
47579,note_on,1,0,0,,0,,,48,127
47579,note_on,0,0,0,,4,,,64,127
47640,note_off,61,0,0,,12,,,59,127
47664,note_on,24,0,0,,0,,,60,127
47725,note_off,61,0,0,,4,,,64,127
47749,note_on,24,0,0,,10,,,57,127
47810,note_off,61,0,0,,0,,,60,127
47833,note_off,23,0,0,,0,,,48,127
47834,note_on,1,0,0,,12,,,47,127
47834,note_on,0,0,0,,2,,,62,127
47895,note_off,61,0,0,,10,,,57,127
47919,note_on,24,0,0,,12,,,59,127
47980,note_off,61,0,0,,2,,,62,127
48004,note_on,24,0,0,,7,,,55,127
48065,note_off,61,0,0,,12,,,59,127
48088,note_off,23,0,0,,12,,,47,127
48089,note_on,1,0,0,,10,,,45,127
48089,note_on,0,0,0,,0,,,60,127
48150,note_off,61,0,0,,7,,,55,127
48174,note_on,24,0,0,,10,,,57,127
48235,note_off,61,0,0,,0,,,60,127
48259,note_on,24,0,0,,6,,,54,127
48320,note_off,61,0,0,,10,,,57,127
48343,note_off,23,0,0,,10,,,45,127
48344,note_on,1,0,0,,7,,,43,127
48344,note_on,0,0,0,,12,,,59,127
48405,note_off,61,0,0,,6,,,54,127
48429,note_on,24,0,0,,7,,,55,127
48490,note_off,61,0,0,,12,,,59,127
48514,note_on,24,0,0,,2,,,50,127
48575,note_off,61,0,0,,7,,,55,127
48598,note_off,23,0,0,,7,,,43,127
48599,note_on,1,0,0,,0,,,48,127
48599,note_on,0,0,0,,0,,,60,127
48660,note_off,61,0,0,,2,,,50,127
48684,note_on,24,0,0,,7,,,55,127
48745,note_off,61,0,0,,0,,,60,127
48769,note_on,24,0,0,,4,,,52,127
48830,note_off,61,0,0,,7,,,55,127
48853,note_off,23,0,0,,0,,,48,127
48854,note_on,1,0,0,,2,,,50,127
48854,note_on,0,0,0,,12,,,59,127
48915,note_off,61,0,0,,4,,,52,127
48939,note_on,24,0,0,,7,,,55,127
49000,note_off,61,0,0,,12,,,59,127
49023,note_off,23,0,0,,2,,,50,127
49024,note_on,1,0,0,,2,,,50,127
49085,note_off,61,0,0,,7,,,55,127
49109,note_on,24,0,0,,2,,,38,127
49109,note_on,0,0,0,,10,,,57,127
49194,note_on,85,0,0,,7,,,55,127
49255,note_off,61,0,0,,10,,,57,127
49279,note_on,24,0,0,,6,,,54,127
49340,note_off,61,0,0,,7,,,55,127
49343,note_off,3,0,0,,2,,,50,127
49363,note_off,20,0,0,,2,,,38,127
49364,note_on,1,0,0,,7,,,43,127
49364,note_on,0,0,0,,7,,,55,127
49372,note_off,8,0,0,,6,,,54,127
49619,note_off,247,0,0,,7,,,55,127
49663,note_on,44,0,0,,2,,,74,127
49790,note_off,127,0,0,,2,,,74,127
49791,note_on,1,0,0,,12,,,71,127
49918,note_off,127,0,0,,12,,,71,127
49919,note_on,1,0,0,,7,,,67,127
50174,note_off,255,0,0,,7,,,67,127
50175,note_on,1,0,0,,2,,,62,127
50302,note_off,127,0,0,,2,,,62,127
50303,note_on,1,0,0,,12,,,59,127
50387,note_off,84,0,0,,7,,,43,127
50430,note_off,43,0,0,,12,,,59,127
50431,note_on,1,0,0,,7,,,43,127
50431,note_on,0,0,0,,7,,,55,127
50686,note_off,255,0,0,,7,,,55,127
50687,note_on,1,0,0,,12,,,59,127
50814,note_off,127,0,0,,12,,,59,127
50815,note_on,1,0,0,,2,,,62,127
50942,note_off,127,0,0,,2,,,62,127
50943,note_on,1,0,0,,7,,,67,127
51070,note_off,127,0,0,,7,,,67,127
51071,note_on,1,0,0,,2,,,62,127
51178,note_off,107,0,0,,7,,,43,127
51198,note_off,20,0,0,,2,,,62,127
51199,note_on,1,0,0,,12,,,59,127
51199,note_on,0,0,0,,12,,,71,127
51326,note_off,127,0,0,,12,,,71,127
51327,note_on,1,0,0,,7,,,67,127
51454,note_off,127,0,0,,7,,,67,127
51454,note_off,0,0,0,,12,,,59,127
51455,note_on,1,0,0,,0,,,48,127
51455,note_on,0,0,0,,6,,,66,127
51582,note_off,127,0,0,,6,,,66,127
51583,note_on,1,0,0,,4,,,64,127
51710,note_off,127,0,0,,4,,,64,127
51710,note_off,0,0,0,,0,,,48,127
51711,note_on,1,0,0,,0,,,60,127
51711,note_on,0,0,0,,3,,,75,127
51838,note_off,127,0,0,,3,,,75,127
51839,note_on,1,0,0,,4,,,76,127
51966,note_off,127,0,0,,4,,,76,127
51966,note_off,0,0,0,,0,,,60,127
51967,note_on,1,0,0,,2,,,62,127
51967,note_on,0,0,0,,7,,,67,127
52223,note_on,256,0,0,,2,,,50,127
52286,note_off,63,0,0,,7,,,67,127
52287,note_on,1,0,0,,6,,,66,127
52351,note_off,64,0,0,,6,,,66,127
52351,note_on,0,0,0,,7,,,67,127
52415,note_off,64,0,0,,7,,,67,127
52415,note_on,0,0,0,,6,,,66,127
52478,note_off,63,0,0,,2,,,50,127
52478,note_off,0,0,0,,2,,,62,127
52479,note_on,1,0,0,,7,,,43,127
52734,note_off,255,0,0,,6,,,66,127
52735,note_on,1,0,0,,7,,,67,127
52972,note_off,237,0,0,,7,,,43,127
52991,note_on,19,0,0,,12,,,59,127
53055,note_off,64,0,0,,7,,,67,127
53119,note_on,64,0,0,,0,,,72,127
53246,note_off,127,0,0,,0,,,72,127
53247,note_on,1,0,0,,12,,,71,127
53374,note_off,127,0,0,,12,,,71,127
53375,note_on,1,0,0,,7,,,67,127
53502,note_off,127,0,0,,7,,,67,127
53502,note_off,0,0,0,,12,,,59,127
53503,note_on,1,0,0,,0,,,48,127
53503,note_on,0,0,0,,6,,,66,127
53630,note_off,127,0,0,,6,,,66,127
53631,note_on,1,0,0,,4,,,64,127
53758,note_off,127,0,0,,4,,,64,127
53758,note_off,0,0,0,,0,,,48,127
53759,note_on,1,0,0,,0,,,60,127
53759,note_on,0,0,0,,3,,,75,127
53886,note_off,127,0,0,,3,,,75,127
53887,note_on,1,0,0,,4,,,76,127
54014,note_off,127,0,0,,4,,,76,127
54014,note_off,0,0,0,,0,,,60,127
54015,note_on,1,0,0,,2,,,62,127
54015,note_on,0,0,0,,7,,,67,127
54271,note_on,256,0,0,,2,,,50,127
54334,note_off,63,0,0,,7,,,67,127
54335,note_on,1,0,0,,6,,,66,127
54399,note_off,64,0,0,,6,,,66,127
54399,note_on,0,0,0,,7,,,67,127
54463,note_off,64,0,0,,7,,,67,127
54463,note_on,0,0,0,,6,,,66,127
54526,note_off,63,0,0,,2,,,50,127
54526,note_off,0,0,0,,2,,,62,127
54527,note_off,1,0,0,,6,,,66,127
54527,note_on,0,0,0,,7,,,43,127
54527,note_on,0,0,0,,7,,,67,127
54767,note_off,240,0,0,,7,,,67,127
54826,note_on,59,0,0,,2,,,74,127
54953,note_off,127,0,0,,2,,,74,127
54954,note_on,1,0,0,,12,,,71,127
55034,note_off,80,0,0,,7,,,43,127
55081,note_off,47,0,0,,12,,,71,127
55082,note_on,1,0,0,,7,,,67,127
55146,note_off,64,0,0,,7,,,67,127
55146,note_on,0,0,0,,5,,,65,127
55210,note_off,64,0,0,,5,,,65,127
55210,note_on,0,0,0,,7,,,67,127
55274,note_off,64,0,0,,7,,,67,127
55274,note_on,0,0,0,,5,,,65,127
55338,note_off,64,0,0,,5,,,65,127
55338,note_on,0,0,0,,2,,,62,127
55338,note_on,0,0,0,,10,,,57,127
55338,note_on,0,0,0,,7,,,67,127
55402,note_off,64,0,0,,7,,,67,127
55402,note_on,0,0,0,,5,,,65,127
55466,note_off,64,0,0,,5,,,65,127
55466,note_on,0,0,0,,7,,,67,127
55530,note_off,64,0,0,,7,,,67,127
55530,note_on,0,0,0,,5,,,65,127
55593,note_off,63,0,0,,10,,,57,127
55593,note_off,0,0,0,,2,,,62,127
55594,note_on,1,0,0,,2,,,62,127
55594,note_on,0,0,0,,8,,,56,127
55721,note_off,127,0,0,,5,,,65,127
55722,note_on,1,0,0,,4,,,64,127
55849,note_off,127,0,0,,4,,,64,127
55850,note_on,1,0,0,,2,,,74,127
55977,note_off,127,0,0,,2,,,74,127
55978,note_on,1,0,0,,12,,,71,127
56105,note_off,127,0,0,,12,,,71,127
56106,note_on,1,0,0,,7,,,67,127
56170,note_off,64,0,0,,7,,,67,127
56170,note_on,0,0,0,,5,,,65,127
56234,note_off,64,0,0,,5,,,65,127
56234,note_on,0,0,0,,7,,,67,127
56298,note_off,64,0,0,,7,,,67,127
56298,note_on,0,0,0,,5,,,65,127
56314,note_off,16,0,0,,8,,,56,127
56361,note_off,47,0,0,,2,,,62,127
56362,note_off,1,0,0,,5,,,65,127
56362,note_on,0,0,0,,10,,,57,127
56362,note_on,0,0,0,,2,,,62,127
56362,note_on,0,0,0,,7,,,67,127
56426,note_off,64,0,0,,7,,,67,127
56426,note_on,0,0,0,,5,,,65,127
56490,note_off,64,0,0,,5,,,65,127
56490,note_on,0,0,0,,7,,,67,127
56554,note_off,64,0,0,,7,,,67,127
56554,note_on,0,0,0,,5,,,65,127
56617,note_off,63,0,0,,2,,,62,127
56617,note_off,0,0,0,,10,,,57,127
56618,note_on,1,0,0,,2,,,62,127
56618,note_on,0,0,0,,8,,,56,127
56745,note_off,127,0,0,,5,,,65,127
56746,note_on,1,0,0,,4,,,64,127
56873,note_off,127,0,0,,4,,,64,127
56874,note_on,1,0,0,,5,,,77,127
57001,note_off,127,0,0,,5,,,77,127
57002,note_on,1,0,0,,4,,,76,127
57129,note_off,127,0,0,,4,,,76,127
57130,note_on,1,0,0,,4,,,76,127
57257,note_off,127,0,0,,4,,,76,127
57258,note_on,1,0,0,,2,,,74,127
57338,note_off,80,0,0,,8,,,56,127
57385,note_off,47,0,0,,2,,,74,127
57385,note_off,0,0,0,,2,,,62,127
57386,note_on,1,0,0,,4,,,64,127
57386,note_on,0,0,0,,2,,,62,127
57386,note_on,0,0,0,,8,,,56,127
57386,note_on,0,0,0,,0,,,72,127
57513,note_off,127,0,0,,0,,,72,127
57514,note_on,1,0,0,,12,,,71,127
57641,note_off,127,0,0,,12,,,71,127
57641,note_off,0,0,0,,8,,,56,127
57641,note_off,0,0,0,,2,,,62,127
57641,note_off,0,0,0,,4,,,64,127
57642,note_on,1,0,0,,10,,,57,127
57642,note_on,0,0,0,,12,,,71,127
57769,note_off,127,0,0,,12,,,71,127
57770,note_on,1,0,0,,0,,,72,127
57919,note_on,149,0,0,,10,,,69,127
58024,note_off,105,0,0,,0,,,72,127
58025,note_off,1,0,0,,10,,,57,127
58046,note_on,21,0,0,,0,,,84,127
58173,note_off,127,0,0,,0,,,84,127
58173,note_off,0,0,0,,10,,,69,127
58174,note_on,1,0,0,,10,,,81,127
58174,note_on,0,0,0,,10,,,69,127
58301,note_off,127,0,0,,10,,,81,127
58302,note_on,1,0,0,,6,,,78,127
58429,note_off,127,0,0,,6,,,78,127
58429,note_off,0,0,0,,10,,,69,127
58430,note_on,1,0,0,,3,,,75,127
58430,note_on,0,0,0,,10,,,69,127
58557,note_off,127,0,0,,3,,,75,127
58558,note_on,1,0,0,,0,,,72,127
58685,note_off,127,0,0,,0,,,72,127
58685,note_off,0,0,0,,10,,,69,127
58686,note_on,1,0,0,,11,,,70,127
58686,note_on,0,0,0,,10,,,69,127
58813,note_off,127,0,0,,11,,,70,127
58814,note_on,1,0,0,,12,,,71,127
58941,note_off,127,0,0,,10,,,69,127
58942,note_on,1,0,0,,7,,,67,127
59069,note_off,127,0,0,,12,,,71,127
59070,note_on,1,0,0,,12,,,83,127
59197,note_off,127,0,0,,12,,,83,127
59197,note_off,0,0,0,,7,,,67,127
59198,note_on,1,0,0,,7,,,79,127
59198,note_on,0,0,0,,7,,,67,127
59325,note_off,127,0,0,,7,,,79,127
59326,note_on,1,0,0,,4,,,76,127
59453,note_off,127,0,0,,4,,,76,127
59453,note_off,0,0,0,,7,,,67,127
59454,note_on,1,0,0,,3,,,75,127
59454,note_on,0,0,0,,7,,,67,127
59581,note_off,127,0,0,,3,,,75,127
59582,note_on,1,0,0,,0,,,72,127
59709,note_off,127,0,0,,0,,,72,127
59709,note_off,0,0,0,,7,,,67,127
59710,note_on,1,0,0,,8,,,68,127
59710,note_on,0,0,0,,7,,,67,127
59837,note_off,127,0,0,,8,,,68,127
59838,note_on,1,0,0,,10,,,69,127
59965,note_off,127,0,0,,7,,,67,127
59966,note_on,1,0,0,,6,,,66,127
60093,note_off,127,0,0,,10,,,69,127
60094,note_on,1,0,0,,10,,,81,127
60221,note_off,127,0,0,,10,,,81,127
60221,note_off,0,0,0,,6,,,66,127
60222,note_on,1,0,0,,6,,,78,127
60222,note_on,0,0,0,,6,,,66,127
60349,note_off,127,0,0,,6,,,78,127
60350,note_on,1,0,0,,3,,,75,127
60477,note_off,127,0,0,,3,,,75,127
60477,note_off,0,0,0,,6,,,66,127
60478,note_on,1,0,0,,0,,,72,127
60478,note_on,0,0,0,,6,,,66,127
60605,note_off,127,0,0,,0,,,72,127
60606,note_on,1,0,0,,10,,,69,127
60733,note_off,127,0,0,,10,,,69,127
60733,note_off,0,0,0,,6,,,66,127
60734,note_on,1,0,0,,6,,,66,127
60862,note_on,128,0,0,,7,,,67,127
60989,note_off,127,0,0,,6,,,66,127
60990,note_on,1,0,0,,4,,,64,127
61245,note_off,255,0,0,,4,,,64,127
61246,note_on,1,0,0,,6,,,66,127
61315,note_off,69,0,0,,7,,,67,127
61374,note_on,59,0,0,,12,,,71,127
61501,note_off,127,0,0,,12,,,71,127
61501,note_off,0,0,0,,6,,,66,127
61502,note_on,1,0,0,,4,,,76,127
61502,note_on,0,0,0,,4,,,64,127
61629,note_off,127,0,0,,4,,,76,127
61630,note_on,1,0,0,,12,,,71,127
61757,note_off,127,0,0,,12,,,71,127
61757,note_off,0,0,0,,4,,,64,127
61758,note_on,1,0,0,,2,,,74,127
61758,note_on,0,0,0,,10,,,57,127
61822,note_off,64,0,0,,2,,,74,127
61822,note_on,0,0,0,,0,,,72,127
61886,note_off,64,0,0,,0,,,72,127
61886,note_on,0,0,0,,2,,,74,127
61950,note_off,64,0,0,,2,,,74,127
61950,note_on,0,0,0,,0,,,72,127
62014,note_off,64,0,0,,0,,,72,127
62014,note_on,0,0,0,,2,,,74,127
62014,note_on,0,0,0,,10,,,45,127
62078,note_off,64,0,0,,2,,,74,127
62078,note_on,0,0,0,,0,,,72,127
62142,note_off,64,0,0,,0,,,72,127
62142,note_on,0,0,0,,12,,,71,127
62269,note_off,127,0,0,,12,,,71,127
62269,note_off,0,0,0,,10,,,45,127
62270,note_on,1,0,0,,10,,,69,127
62270,note_on,0,0,0,,10,,,45,127
62397,note_off,127,0,0,,10,,,69,127
62398,note_on,1,0,0,,7,,,67,127
62525,note_off,127,0,0,,7,,,67,127
62525,note_off,0,0,0,,10,,,45,127
62525,note_off,0,0,0,,10,,,57,127
62526,note_on,1,0,0,,6,,,66,127
62526,note_on,0,0,0,,10,,,57,127
62653,note_off,127,0,0,,6,,,66,127
62654,note_on,1,0,0,,4,,,64,127
62781,note_off,127,0,0,,4,,,64,127
62781,note_off,0,0,0,,10,,,57,127
62782,note_on,1,0,0,,4,,,64,127
62782,note_on,0,0,0,,12,,,59,127
62846,note_off,64,0,0,,4,,,64,127
62846,note_on,0,0,0,,3,,,63,127
62910,note_off,64,0,0,,3,,,63,127
62910,note_on,0,0,0,,4,,,64,127
62974,note_off,64,0,0,,4,,,64,127
62974,note_on,0,0,0,,3,,,63,127
63038,note_off,64,0,0,,3,,,63,127
63038,note_on,0,0,0,,4,,,64,127
63038,note_on,0,0,0,,12,,,47,127
63102,note_off,64,0,0,,4,,,64,127
63102,note_on,0,0,0,,3,,,63,127
63166,note_off,64,0,0,,3,,,63,127
63166,note_on,0,0,0,,1,,,61,127
63289,note_off,123,0,0,,12,,,59,127
63293,note_off,4,0,0,,1,,,61,127
63294,note_on,1,0,0,,12,,,59,127
63549,note_off,255,0,0,,12,,,59,127
63549,note_off,0,0,0,,12,,,47,127
63593,note_on,44,0,0,,4,,,64,127
63593,note_on,0,0,0,,7,,,79,127
63848,note_off,255,0,0,,7,,,79,127
63848,note_off,0,0,0,,4,,,64,127
63849,note_on,1,0,0,,3,,,63,127
63849,note_on,0,0,0,,6,,,78,127
63976,note_off,127,0,0,,6,,,78,127
63976,note_off,0,0,0,,3,,,63,127
63977,note_on,1,0,0,,4,,,64,127
63977,note_on,0,0,0,,4,,,76,127
64104,note_off,127,0,0,,4,,,76,127
64104,note_off,0,0,0,,4,,,64,127
64105,note_on,1,0,0,,6,,,66,127
64105,note_on,0,0,0,,3,,,75,127
64232,note_off,127,0,0,,3,,,75,127
64232,note_off,0,0,0,,6,,,66,127
64233,note_on,1,0,0,,7,,,67,127
64233,note_on,0,0,0,,1,,,73,127
64360,note_off,127,0,0,,1,,,73,127
64360,note_off,0,0,0,,7,,,67,127
64361,note_on,1,0,0,,10,,,69,127
64361,note_on,0,0,0,,12,,,71,127
64616,note_off,255,0,0,,10,,,69,127
64617,note_on,1,0,0,,6,,,66,127
64617,note_on,0,0,0,,12,,,47,127
64617,note_on,0,0,0,,12,,,35,127
64872,note_off,255,0,0,,12,,,35,127
64872,note_off,0,0,0,,12,,,47,127
64872,note_off,0,0,0,,6,,,66,127
64872,note_off,0,0,0,,12,,,71,127
64873,note_on,1,0,0,,12,,,71,127
64873,note_on,0,0,0,,4,,,52,127
64873,note_on,0,0,0,,4,,,40,127
64957,note_off,84,0,0,,12,,,71,127
64958,note_on,1,0,0,,10,,,69,127
65042,note_off,84,0,0,,10,,,69,127
65043,note_on,1,0,0,,7,,,67,127
65127,note_off,84,0,0,,7,,,67,127
65128,note_on,1,0,0,,10,,,69,127
65212,note_off,84,0,0,,10,,,69,127
65213,note_on,1,0,0,,7,,,67,127
65297,note_off,84,0,0,,7,,,67,127
65298,note_on,1,0,0,,6,,,66,127
65382,note_off,84,0,0,,6,,,66,127
65382,note_off,0,0,0,,4,,,40,127
65382,note_off,0,0,0,,4,,,52,127
65383,note_on,1,0,0,,7,,,67,127
65383,note_on,0,0,0,,4,,,64,127
65638,note_off,255,0,0,,4,,,64,127
65638,note_off,0,0,0,,7,,,67,127
65639,note_on,1,0,0,,4,,,64,127
65639,note_on,0,0,0,,4,,,76,127
65894,note_off,255,0,0,,4,,,76,127
65894,note_off,0,0,0,,4,,,64,127
65895,note_on,1,0,0,,3,,,63,127
65895,note_on,0,0,0,,6,,,78,127
66022,note_off,127,0,0,,6,,,78,127
66022,note_off,0,0,0,,3,,,63,127
66023,note_on,1,0,0,,4,,,64,127
66023,note_on,0,0,0,,4,,,76,127
66150,note_off,127,0,0,,4,,,76,127
66150,note_off,0,0,0,,4,,,64,127
66151,note_on,1,0,0,,6,,,66,127
66151,note_on,0,0,0,,3,,,75,127
66278,note_off,127,0,0,,3,,,75,127
66278,note_off,0,0,0,,6,,,66,127
66279,note_on,1,0,0,,7,,,67,127
66279,note_on,0,0,0,,1,,,73,127
66406,note_off,127,0,0,,1,,,73,127
66406,note_off,0,0,0,,7,,,67,127
66407,note_on,1,0,0,,10,,,69,127
66407,note_on,0,0,0,,12,,,71,127
66662,note_off,255,0,0,,10,,,69,127
66663,note_on,1,0,0,,6,,,66,127
66663,note_on,0,0,0,,12,,,35,127
66663,note_on,0,0,0,,12,,,47,127
66918,note_off,255,0,0,,12,,,47,127
66918,note_off,0,0,0,,12,,,35,127
66918,note_off,0,0,0,,6,,,66,127
66918,note_off,0,0,0,,12,,,71,127
66919,note_on,1,0,0,,12,,,71,127
66919,note_on,0,0,0,,4,,,40,127
66919,note_on,0,0,0,,4,,,52,127
67003,note_off,84,0,0,,12,,,71,127
67004,note_on,1,0,0,,10,,,69,127
67088,note_off,84,0,0,,10,,,69,127
67089,note_on,1,0,0,,7,,,67,127
67173,note_off,84,0,0,,7,,,67,127
67174,note_on,1,0,0,,10,,,69,127
67258,note_off,84,0,0,,10,,,69,127
67259,note_on,1,0,0,,7,,,67,127
67343,note_off,84,0,0,,7,,,67,127
67344,note_on,1,0,0,,6,,,66,127
67428,note_off,84,0,0,,6,,,66,127
67428,note_off,0,0,0,,4,,,52,127
67428,note_off,0,0,0,,4,,,40,127
67429,note_on,1,0,0,,7,,,67,127
67429,note_on,0,0,0,,4,,,64,127
67684,note_off,255,0,0,,4,,,64,127
67684,note_off,0,0,0,,7,,,67,127
67707,note_on,23,0,0,,0,,,84,127
67707,note_on,0,0,0,,10,,,69,127
67962,note_off,255,0,0,,10,,,69,127
67962,note_off,0,0,0,,0,,,84,127
67963,note_on,1,0,0,,12,,,83,127
67963,note_on,0,0,0,,8,,,68,127
68090,note_off,127,0,0,,8,,,68,127
68090,note_off,0,0,0,,12,,,83,127
68091,note_on,1,0,0,,10,,,81,127
68091,note_on,0,0,0,,10,,,69,127
68218,note_off,127,0,0,,10,,,69,127
68218,note_off,0,0,0,,10,,,81,127
68219,note_on,1,0,0,,8,,,80,127
68219,note_on,0,0,0,,12,,,71,127
68346,note_off,127,0,0,,12,,,71,127
68346,note_off,0,0,0,,8,,,80,127
68347,note_on,1,0,0,,6,,,78,127
68347,note_on,0,0,0,,0,,,72,127
68474,note_off,127,0,0,,0,,,72,127
68474,note_off,0,0,0,,6,,,78,127
68475,note_on,1,0,0,,4,,,76,127
68475,note_on,0,0,0,,2,,,74,127
68730,note_off,255,0,0,,2,,,74,127
68731,note_on,1,0,0,,4,,,52,127
68731,note_on,0,0,0,,4,,,40,127
68731,note_on,0,0,0,,12,,,71,127
68986,note_off,255,0,0,,12,,,71,127
68986,note_off,0,0,0,,4,,,40,127
68986,note_off,0,0,0,,4,,,52,127
68986,note_off,0,0,0,,4,,,76,127
68987,note_on,1,0,0,,10,,,57,127
68987,note_on,0,0,0,,10,,,45,127
68987,note_on,0,0,0,,4,,,76,127
69071,note_off,84,0,0,,4,,,76,127
69072,note_on,1,0,0,,2,,,74,127
69156,note_off,84,0,0,,2,,,74,127
69157,note_on,1,0,0,,0,,,72,127
69241,note_off,84,0,0,,0,,,72,127
69242,note_on,1,0,0,,2,,,74,127
69326,note_off,84,0,0,,2,,,74,127
69327,note_on,1,0,0,,0,,,72,127
69411,note_off,84,0,0,,0,,,72,127
69412,note_on,1,0,0,,12,,,71,127
69496,note_off,84,0,0,,12,,,71,127
69496,note_off,0,0,0,,10,,,45,127
69496,note_off,0,0,0,,10,,,57,127
69497,note_on,1,0,0,,4,,,76,127
69497,note_on,0,0,0,,0,,,72,127
69752,note_off,255,0,0,,0,,,72,127
69752,note_off,0,0,0,,4,,,76,127
69753,note_on,1,0,0,,0,,,84,127
69753,note_on,0,0,0,,10,,,69,127
70008,note_off,255,0,0,,10,,,69,127
70008,note_off,0,0,0,,0,,,84,127
70009,note_on,1,0,0,,12,,,83,127
70009,note_on,0,0,0,,8,,,68,127
70136,note_off,127,0,0,,8,,,68,127
70136,note_off,0,0,0,,12,,,83,127
70137,note_on,1,0,0,,10,,,81,127
70137,note_on,0,0,0,,10,,,69,127
70264,note_off,127,0,0,,10,,,69,127
70264,note_off,0,0,0,,10,,,81,127
70265,note_on,1,0,0,,8,,,80,127
70265,note_on,0,0,0,,12,,,71,127
70392,note_off,127,0,0,,12,,,71,127
70392,note_off,0,0,0,,8,,,80,127
70393,note_on,1,0,0,,6,,,78,127
70393,note_on,0,0,0,,0,,,72,127
70520,note_off,127,0,0,,0,,,72,127
70520,note_off,0,0,0,,6,,,78,127
70521,note_on,1,0,0,,4,,,76,127
70521,note_on,0,0,0,,2,,,74,127
70776,note_off,255,0,0,,2,,,74,127
70777,note_on,1,0,0,,4,,,40,127
70777,note_on,0,0,0,,4,,,52,127
70777,note_on,0,0,0,,12,,,71,127
71032,note_off,255,0,0,,12,,,71,127
71032,note_off,0,0,0,,4,,,52,127
71032,note_off,0,0,0,,4,,,40,127
71032,note_off,0,0,0,,4,,,76,127
71033,note_on,1,0,0,,10,,,45,127
71033,note_on,0,0,0,,10,,,57,127
71033,note_on,0,0,0,,4,,,76,127
71117,note_off,84,0,0,,4,,,76,127
71118,note_on,1,0,0,,2,,,74,127
71202,note_off,84,0,0,,2,,,74,127
71203,note_on,1,0,0,,0,,,72,127
71287,note_off,84,0,0,,0,,,72,127
71288,note_on,1,0,0,,2,,,74,127
71372,note_off,84,0,0,,2,,,74,127
71373,note_on,1,0,0,,0,,,72,127
71457,note_off,84,0,0,,0,,,72,127
71458,note_on,1,0,0,,12,,,71,127
71542,note_off,84,0,0,,12,,,71,127
71543,note_on,1,0,0,,8,,,80,127
71798,note_off,255,0,0,,8,,,80,127
71798,note_off,0,0,0,,10,,,57,127
71798,note_off,0,0,0,,10,,,45,127
71799,note_on,1,0,0,,10,,,57,127
71799,note_on,0,0,0,,10,,,81,127
72039,note_off,240,0,0,,10,,,57,127
72076,note_on,37,0,0,,5,,,65,127
72117,note_off,41,0,0,,10,,,81,127
72140,note_on,23,0,0,,7,,,79,127
72204,note_off,64,0,0,,7,,,79,127
72204,note_on,0,0,0,,5,,,77,127
72268,note_off,64,0,0,,5,,,77,127
72268,note_on,0,0,0,,4,,,76,127
72331,note_off,63,0,0,,5,,,65,127
72332,note_off,1,0,0,,4,,,76,127
72332,note_on,0,0,0,,2,,,74,127
72332,note_on,0,0,0,,5,,,65,127
72396,note_off,64,0,0,,2,,,74,127
72396,note_on,0,0,0,,0,,,72,127
72460,note_off,64,0,0,,0,,,72,127
72460,note_on,0,0,0,,12,,,71,127
72524,note_off,64,0,0,,12,,,71,127
72524,note_on,0,0,0,,10,,,69,127
72587,note_off,63,0,0,,5,,,65,127
72588,note_off,1,0,0,,10,,,69,127
72588,note_on,0,0,0,,10,,,81,127
72588,note_on,0,0,0,,5,,,65,127
72843,note_off,255,0,0,,5,,,65,127
72844,note_on,1,0,0,,10,,,69,127
72844,note_on,0,0,0,,5,,,65,127
73095,note_off,251,0,0,,10,,,81,127
73099,note_off,4,0,0,,5,,,65,127
73100,note_on,1,0,0,,7,,,55,127
73100,note_on,0,0,0,,5,,,65,127
73163,note_off,63,0,0,,10,,,69,127
73164,note_on,1,0,0,,7,,,67,127
73228,note_off,64,0,0,,7,,,67,127
73228,note_on,0,0,0,,10,,,69,127
73292,note_off,64,0,0,,10,,,69,127
73292,note_on,0,0,0,,7,,,67,127
73355,note_off,63,0,0,,5,,,65,127
73355,note_off,0,0,0,,7,,,55,127
73356,note_off,1,0,0,,7,,,67,127
73356,note_on,0,0,0,,10,,,69,127
73356,note_on,0,0,0,,5,,,65,127
73356,note_on,0,0,0,,7,,,55,127
73420,note_off,64,0,0,,10,,,69,127
73420,note_on,0,0,0,,7,,,67,127
73611,note_off,191,0,0,,7,,,67,127
73611,note_off,0,0,0,,7,,,55,127
73611,note_off,0,0,0,,5,,,65,127
73612,note_on,1,0,0,,6,,,78,127
73612,note_on,0,0,0,,7,,,55,127
73612,note_on,0,0,0,,5,,,65,127
73867,note_off,255,0,0,,5,,,65,127
73867,note_off,0,0,0,,7,,,55,127
73867,note_off,0,0,0,,6,,,78,127
73868,note_on,1,0,0,,7,,,79,127
73868,note_on,0,0,0,,7,,,55,127
73868,note_on,0,0,0,,5,,,65,127
74123,note_off,255,0,0,,5,,,65,127
74123,note_off,0,0,0,,7,,,55,127
74124,note_on,1,0,0,,7,,,55,127
74124,note_on,0,0,0,,4,,,64,127
74187,note_off,63,0,0,,7,,,79,127
74188,note_on,1,0,0,,5,,,77,127
74252,note_off,64,0,0,,5,,,77,127
74252,note_on,0,0,0,,4,,,76,127
74316,note_off,64,0,0,,4,,,76,127
74316,note_on,0,0,0,,2,,,74,127
74379,note_off,63,0,0,,4,,,64,127
74379,note_off,0,0,0,,7,,,55,127
74380,note_off,1,0,0,,2,,,74,127
74380,note_on,0,0,0,,0,,,72,127
74380,note_on,0,0,0,,7,,,55,127
74380,note_on,0,0,0,,4,,,64,127
74444,note_off,64,0,0,,0,,,72,127
74444,note_on,0,0,0,,12,,,71,127
74508,note_off,64,0,0,,12,,,71,127
74508,note_on,0,0,0,,10,,,69,127
74572,note_off,64,0,0,,10,,,69,127
74572,note_on,0,0,0,,7,,,67,127
74635,note_off,63,0,0,,4,,,64,127
74635,note_off,0,0,0,,7,,,55,127
74636,note_off,1,0,0,,7,,,67,127
74636,note_on,0,0,0,,7,,,79,127
74636,note_on,0,0,0,,7,,,55,127
74636,note_on,0,0,0,,4,,,64,127
74891,note_off,255,0,0,,4,,,64,127
74891,note_off,0,0,0,,7,,,55,127
74892,note_on,1,0,0,,7,,,67,127
74892,note_on,0,0,0,,7,,,55,127
74892,note_on,0,0,0,,4,,,64,127
75143,note_off,251,0,0,,7,,,79,127
75147,note_off,4,0,0,,4,,,64,127
75147,note_off,0,0,0,,7,,,55,127
75148,note_on,1,0,0,,4,,,64,127
75148,note_on,0,0,0,,5,,,53,127
75211,note_off,63,0,0,,7,,,67,127
75212,note_on,1,0,0,,5,,,65,127
75276,note_off,64,0,0,,5,,,65,127
75276,note_on,0,0,0,,7,,,67,127
75340,note_off,64,0,0,,7,,,67,127
75340,note_on,0,0,0,,5,,,65,127
75403,note_off,63,0,0,,5,,,53,127
75403,note_off,0,0,0,,4,,,64,127
75404,note_off,1,0,0,,5,,,65,127
75404,note_on,0,0,0,,7,,,67,127
75404,note_on,0,0,0,,5,,,53,127
75404,note_on,0,0,0,,4,,,64,127
75468,note_off,64,0,0,,7,,,67,127
75468,note_on,0,0,0,,5,,,65,127
75659,note_off,191,0,0,,5,,,65,127
75659,note_off,0,0,0,,4,,,64,127
75659,note_off,0,0,0,,5,,,53,127
75660,note_on,1,0,0,,4,,,76,127
75660,note_on,0,0,0,,5,,,53,127
75660,note_on,0,0,0,,4,,,64,127
75915,note_off,255,0,0,,4,,,64,127
75915,note_off,0,0,0,,5,,,53,127
75915,note_off,0,0,0,,4,,,76,127
75916,note_on,1,0,0,,5,,,77,127
75916,note_on,0,0,0,,5,,,53,127
75916,note_on,0,0,0,,4,,,64,127
76171,note_off,255,0,0,,4,,,64,127
76171,note_off,0,0,0,,5,,,53,127
76172,note_on,1,0,0,,5,,,53,127
76172,note_on,0,0,0,,2,,,62,127
76235,note_off,63,0,0,,5,,,77,127
76236,note_on,1,0,0,,4,,,76,127
76300,note_off,64,0,0,,4,,,76,127
76300,note_on,0,0,0,,2,,,74,127
76364,note_off,64,0,0,,2,,,74,127
76364,note_on,0,0,0,,0,,,72,127
76427,note_off,63,0,0,,2,,,62,127
76427,note_off,0,0,0,,5,,,53,127
76428,note_off,1,0,0,,0,,,72,127
76428,note_on,0,0,0,,12,,,71,127
76428,note_on,0,0,0,,5,,,53,127
76428,note_on,0,0,0,,2,,,62,127
76492,note_off,64,0,0,,12,,,71,127
76492,note_on,0,0,0,,10,,,69,127
76556,note_off,64,0,0,,10,,,69,127
76556,note_on,0,0,0,,7,,,67,127
76620,note_off,64,0,0,,7,,,67,127
76620,note_on,0,0,0,,5,,,65,127
76683,note_off,63,0,0,,2,,,62,127
76683,note_off,0,0,0,,5,,,53,127
76684,note_off,1,0,0,,5,,,65,127
76684,note_on,0,0,0,,5,,,77,127
76684,note_on,0,0,0,,5,,,53,127
76684,note_on,0,0,0,,2,,,62,127
76939,note_off,255,0,0,,2,,,62,127
76939,note_off,0,0,0,,5,,,53,127
76940,note_on,1,0,0,,5,,,65,127
76940,note_on,0,0,0,,5,,,53,127
76940,note_on,0,0,0,,2,,,62,127
77191,note_off,251,0,0,,5,,,77,127
77195,note_off,4,0,0,,2,,,62,127
77195,note_off,0,0,0,,5,,,53,127
77196,note_on,1,0,0,,4,,,52,127
77196,note_on,0,0,0,,2,,,62,127
77259,note_off,63,0,0,,5,,,65,127
77260,note_on,1,0,0,,4,,,64,127
77324,note_off,64,0,0,,4,,,64,127
77324,note_on,0,0,0,,5,,,65,127
77388,note_off,64,0,0,,5,,,65,127
77388,note_on,0,0,0,,4,,,64,127
77451,note_off,63,0,0,,2,,,62,127
77451,note_off,0,0,0,,4,,,52,127
77452,note_off,1,0,0,,4,,,64,127
77452,note_on,0,0,0,,5,,,65,127
77452,note_on,0,0,0,,2,,,62,127
77452,note_on,0,0,0,,4,,,52,127
77516,note_off,64,0,0,,5,,,65,127
77516,note_on,0,0,0,,4,,,64,127
77707,note_off,191,0,0,,4,,,64,127
77707,note_off,0,0,0,,4,,,52,127
77707,note_off,0,0,0,,2,,,62,127
77708,note_on,1,0,0,,3,,,75,127
77708,note_on,0,0,0,,2,,,62,127
77708,note_on,0,0,0,,4,,,52,127
77963,note_off,255,0,0,,4,,,52,127
77963,note_off,0,0,0,,2,,,62,127
77963,note_off,0,0,0,,3,,,75,127
77964,note_on,1,0,0,,4,,,76,127
77964,note_on,0,0,0,,4,,,52,127
77964,note_on,0,0,0,,2,,,62,127
78219,note_off,255,0,0,,2,,,62,127
78219,note_off,0,0,0,,4,,,52,127
78220,note_on,1,0,0,,0,,,60,127
78220,note_on,0,0,0,,4,,,52,127
78347,note_off,127,0,0,,4,,,76,127
78348,note_on,1,0,0,,2,,,74,127
78412,note_off,64,0,0,,2,,,74,127
78412,note_on,0,0,0,,0,,,72,127
78475,note_off,63,0,0,,4,,,52,127
78475,note_off,0,0,0,,0,,,60,127
78476,note_off,1,0,0,,0,,,72,127
78476,note_on,0,0,0,,12,,,71,127
78476,note_on,0,0,0,,4,,,52,127
78476,note_on,0,0,0,,0,,,60,127
78540,note_off,64,0,0,,12,,,71,127
78540,note_on,0,0,0,,10,,,69,127
78604,note_off,64,0,0,,10,,,69,127
78604,note_on,0,0,0,,7,,,67,127
78668,note_off,64,0,0,,7,,,67,127
78668,note_on,0,0,0,,5,,,65,127
78731,note_off,63,0,0,,0,,,60,127
78731,note_off,0,0,0,,4,,,52,127
78732,note_off,1,0,0,,5,,,65,127
78732,note_on,0,0,0,,4,,,64,127
78732,note_on,0,0,0,,4,,,52,127
78732,note_on,0,0,0,,0,,,60,127
78796,note_off,64,0,0,,4,,,64,127
78796,note_on,0,0,0,,5,,,65,127
78860,note_off,64,0,0,,5,,,65,127
78860,note_on,0,0,0,,7,,,67,127
78924,note_off,64,0,0,,7,,,67,127
78924,note_on,0,0,0,,10,,,69,127
78980,note_on,56,0,0,,12,,,71,127
78987,note_off,7,0,0,,0,,,60,127
78987,note_off,0,0,0,,4,,,52,127
78988,note_off,1,0,0,,10,,,69,127
78988,note_on,0,0,0,,4,,,52,127
78988,note_on,0,0,0,,0,,,60,127
79024,note_on,36,0,0,,0,,,72,127
79044,note_off,20,0,0,,12,,,71,127
79068,note_on,24,0,0,,2,,,74,127
79088,note_off,20,0,0,,0,,,72,127
79112,note_on,24,0,0,,4,,,76,127
79132,note_off,20,0,0,,2,,,74,127
79156,note_on,24,0,0,,5,,,77,127
79176,note_off,20,0,0,,4,,,76,127
79200,note_on,24,0,0,,7,,,79,127
79220,note_off,20,0,0,,5,,,77,127
79243,note_off,23,0,0,,0,,,60,127
79243,note_off,0,0,0,,4,,,52,127
79244,note_on,1,0,0,,10,,,81,127
79244,note_on,0,0,0,,5,,,53,127
79244,note_on,0,0,0,,5,,,65,127
79264,note_off,20,0,0,,7,,,79,127
79328,note_off,64,0,0,,10,,,81,127
79329,note_on,1,0,0,,7,,,79,127
79413,note_off,84,0,0,,7,,,79,127
79414,note_on,1,0,0,,5,,,77,127
79498,note_off,84,0,0,,5,,,77,127
79498,note_off,0,0,0,,5,,,65,127
79498,note_off,0,0,0,,5,,,53,127
79499,note_on,1,0,0,,7,,,79,127
79499,note_on,0,0,0,,5,,,53,127
79499,note_on,0,0,0,,4,,,64,127
79583,note_off,84,0,0,,7,,,79,127
79584,note_on,1,0,0,,5,,,77,127
79668,note_off,84,0,0,,5,,,77,127
79669,note_on,1,0,0,,4,,,76,127
79753,note_off,84,0,0,,4,,,76,127
79753,note_off,0,0,0,,4,,,64,127
79753,note_off,0,0,0,,5,,,53,127
79754,note_on,1,0,0,,5,,,77,127
79754,note_on,0,0,0,,5,,,53,127
79754,note_on,0,0,0,,2,,,62,127
79838,note_off,84,0,0,,5,,,77,127
79839,note_on,1,0,0,,4,,,76,127
79923,note_off,84,0,0,,4,,,76,127
79924,note_on,1,0,0,,2,,,74,127
80008,note_off,84,0,0,,2,,,74,127
80008,note_off,0,0,0,,2,,,62,127
80008,note_off,0,0,0,,5,,,53,127
80009,note_on,1,0,0,,4,,,76,127
80009,note_on,0,0,0,,5,,,53,127
80009,note_on,0,0,0,,0,,,60,127
80093,note_off,84,0,0,,4,,,76,127
80094,note_on,1,0,0,,2,,,74,127
80178,note_off,84,0,0,,2,,,74,127
80179,note_on,1,0,0,,0,,,72,127
80263,note_off,84,0,0,,0,,,72,127
80263,note_off,0,0,0,,0,,,60,127
80263,note_off,0,0,0,,5,,,53,127
80264,note_on,1,0,0,,10,,,81,127
80264,note_on,0,0,0,,5,,,53,127
80264,note_on,0,0,0,,5,,,65,127
80348,note_off,84,0,0,,10,,,81,127
80349,note_on,1,0,0,,7,,,79,127
80433,note_off,84,0,0,,7,,,79,127
80434,note_on,1,0,0,,5,,,77,127
80518,note_off,84,0,0,,5,,,77,127
80518,note_off,0,0,0,,5,,,65,127
80518,note_off,0,0,0,,5,,,53,127
80519,note_on,1,0,0,,7,,,79,127
80519,note_on,0,0,0,,5,,,53,127
80519,note_on,0,0,0,,4,,,64,127
80603,note_off,84,0,0,,7,,,79,127
80604,note_on,1,0,0,,5,,,77,127
80688,note_off,84,0,0,,5,,,77,127
80689,note_on,1,0,0,,4,,,76,127
80773,note_off,84,0,0,,4,,,76,127
80773,note_off,0,0,0,,4,,,64,127
80773,note_off,0,0,0,,5,,,53,127
80774,note_on,1,0,0,,5,,,77,127
80774,note_on,0,0,0,,5,,,53,127
80774,note_on,0,0,0,,2,,,62,127
80858,note_off,84,0,0,,5,,,77,127
80859,note_on,1,0,0,,4,,,76,127
80943,note_off,84,0,0,,4,,,76,127
80944,note_on,1,0,0,,2,,,74,127
81028,note_off,84,0,0,,2,,,74,127
81028,note_off,0,0,0,,2,,,62,127
81028,note_off,0,0,0,,5,,,53,127
81029,note_on,1,0,0,,4,,,76,127
81029,note_on,0,0,0,,0,,,60,127
81029,note_on,0,0,0,,5,,,53,127
81113,note_off,84,0,0,,4,,,76,127
81114,note_on,1,0,0,,2,,,74,127
81198,note_off,84,0,0,,2,,,74,127
81199,note_on,1,0,0,,0,,,72,127
81283,note_off,84,0,0,,0,,,72,127
81283,note_off,0,0,0,,5,,,53,127
81283,note_off,0,0,0,,0,,,60,127
81284,note_on,1,0,0,,0,,,72,127
81284,note_on,0,0,0,,7,,,55,127
81284,note_on,0,0,0,,2,,,62,127
81327,note_on,43,0,0,,12,,,71,127
81348,note_off,21,0,0,,0,,,72,127
81369,note_on,21,0,0,,0,,,72,127
81390,note_off,21,0,0,,12,,,71,127
81411,note_on,21,0,0,,12,,,71,127
81432,note_off,21,0,0,,0,,,72,127
81453,note_on,21,0,0,,0,,,72,127
81474,note_off,21,0,0,,12,,,71,127
81495,note_on,21,0,0,,12,,,71,127
81516,note_off,21,0,0,,0,,,72,127
81536,note_off,20,0,0,,2,,,62,127
81536,note_off,0,0,0,,7,,,55,127
81537,note_on,1,0,0,,0,,,72,127
81537,note_on,0,0,0,,7,,,55,127
81537,note_on,0,0,0,,2,,,62,127
81558,note_off,21,0,0,,12,,,71,127
81579,note_on,21,0,0,,12,,,71,127
81600,note_off,21,0,0,,0,,,72,127
81663,note_off,63,0,0,,12,,,71,127
81664,note_on,1,0,0,,7,,,67,127
81791,note_off,127,0,0,,7,,,67,127
81791,note_off,0,0,0,,2,,,62,127
81791,note_off,0,0,0,,7,,,55,127
81792,note_on,1,0,0,,2,,,74,127
81792,note_on,0,0,0,,0,,,60,127
81792,note_on,0,0,0,,7,,,55,127
81792,note_on,0,0,0,,4,,,64,127
81835,note_on,43,0,0,,0,,,72,127
81856,note_off,21,0,0,,2,,,74,127
81877,note_on,21,0,0,,2,,,74,127
81898,note_off,21,0,0,,0,,,72,127
81919,note_on,21,0,0,,0,,,72,127
81940,note_off,21,0,0,,2,,,74,127
81961,note_on,21,0,0,,2,,,74,127
81982,note_off,21,0,0,,0,,,72,127
82003,note_on,21,0,0,,0,,,72,127
82024,note_off,21,0,0,,2,,,74,127
82044,note_off,20,0,0,,4,,,64,127
82044,note_off,0,0,0,,7,,,55,127
82044,note_off,0,0,0,,0,,,60,127
82045,note_on,1,0,0,,2,,,74,127
82045,note_on,0,0,0,,7,,,55,127
82045,note_on,0,0,0,,0,,,60,127
82045,note_on,0,0,0,,4,,,64,127
82066,note_off,21,0,0,,0,,,72,127
82087,note_on,21,0,0,,0,,,72,127
82108,note_off,21,0,0,,2,,,74,127
82171,note_off,63,0,0,,0,,,72,127
82172,note_on,1,0,0,,7,,,67,127
82299,note_off,127,0,0,,7,,,67,127
82299,note_off,0,0,0,,4,,,64,127
82299,note_off,0,0,0,,0,,,60,127
82299,note_off,0,0,0,,7,,,55,127
82300,note_on,1,0,0,,4,,,76,127
82300,note_on,0,0,0,,7,,,55,127
82300,note_on,0,0,0,,12,,,59,127
82300,note_on,0,0,0,,2,,,62,127
82343,note_on,43,0,0,,2,,,74,127
82364,note_off,21,0,0,,4,,,76,127
82385,note_on,21,0,0,,4,,,76,127
82406,note_off,21,0,0,,2,,,74,127
82427,note_on,21,0,0,,2,,,74,127
82448,note_off,21,0,0,,4,,,76,127
82469,note_on,21,0,0,,4,,,76,127
82490,note_off,21,0,0,,2,,,74,127
82511,note_on,21,0,0,,2,,,74,127
82532,note_off,21,0,0,,4,,,76,127
82552,note_off,20,0,0,,2,,,62,127
82552,note_off,0,0,0,,12,,,59,127
82552,note_off,0,0,0,,7,,,55,127
82553,note_on,1,0,0,,4,,,76,127
82553,note_on,0,0,0,,12,,,59,127
82553,note_on,0,0,0,,7,,,55,127
82553,note_on,0,0,0,,2,,,62,127
82574,note_off,21,0,0,,2,,,74,127
82595,note_on,21,0,0,,2,,,74,127
82616,note_off,21,0,0,,4,,,76,127
82679,note_off,63,0,0,,2,,,74,127
82680,note_on,1,0,0,,7,,,67,127
82807,note_off,127,0,0,,7,,,67,127
82807,note_off,0,0,0,,2,,,62,127
82807,note_off,0,0,0,,7,,,55,127
82807,note_off,0,0,0,,12,,,59,127
82808,note_on,1,0,0,,5,,,77,127
82808,note_on,0,0,0,,0,,,60,127
82808,note_on,0,0,0,,4,,,64,127
82808,note_on,0,0,0,,7,,,55,127
82851,note_on,43,0,0,,4,,,76,127
82872,note_off,21,0,0,,5,,,77,127
82893,note_on,21,0,0,,5,,,77,127
82914,note_off,21,0,0,,4,,,76,127
82935,note_on,21,0,0,,4,,,76,127
82956,note_off,21,0,0,,5,,,77,127
82977,note_on,21,0,0,,5,,,77,127
82998,note_off,21,0,0,,4,,,76,127
83019,note_on,21,0,0,,4,,,76,127
83040,note_off,21,0,0,,5,,,77,127
83060,note_off,20,0,0,,7,,,55,127
83060,note_off,0,0,0,,4,,,64,127
83060,note_off,0,0,0,,0,,,60,127
83061,note_on,1,0,0,,5,,,77,127
83061,note_on,0,0,0,,7,,,55,127
83061,note_on,0,0,0,,0,,,60,127
83061,note_on,0,0,0,,4,,,64,127
83082,note_off,21,0,0,,4,,,76,127
83103,note_on,21,0,0,,4,,,76,127
83124,note_off,21,0,0,,5,,,77,127
83187,note_off,63,0,0,,4,,,76,127
83188,note_on,1,0,0,,7,,,67,127
83315,note_off,127,0,0,,7,,,67,127
83315,note_off,0,0,0,,4,,,64,127
83315,note_off,0,0,0,,0,,,60,127
83315,note_off,0,0,0,,7,,,55,127
83316,note_on,1,0,0,,7,,,79,127
83316,note_on,0,0,0,,7,,,55,127
83316,note_on,0,0,0,,2,,,62,127
83316,note_on,0,0,0,,12,,,59,127
83359,note_on,43,0,0,,5,,,77,127
83380,note_off,21,0,0,,7,,,79,127
83401,note_on,21,0,0,,7,,,79,127
83422,note_off,21,0,0,,5,,,77,127
83443,note_on,21,0,0,,5,,,77,127
83464,note_off,21,0,0,,7,,,79,127
83485,note_on,21,0,0,,7,,,79,127
83506,note_off,21,0,0,,5,,,77,127
83527,note_on,21,0,0,,5,,,77,127
83548,note_off,21,0,0,,7,,,79,127
83568,note_off,20,0,0,,12,,,59,127
83568,note_off,0,0,0,,2,,,62,127
83568,note_off,0,0,0,,7,,,55,127
83569,note_on,1,0,0,,7,,,79,127
83569,note_on,0,0,0,,7,,,55,127
83569,note_on,0,0,0,,2,,,62,127
83569,note_on,0,0,0,,12,,,59,127
83590,note_off,21,0,0,,5,,,77,127
83611,note_on,21,0,0,,5,,,77,127
83632,note_off,21,0,0,,7,,,79,127
83695,note_off,63,0,0,,5,,,77,127
83696,note_on,1,0,0,,7,,,67,127
83823,note_off,127,0,0,,7,,,67,127
83823,note_off,0,0,0,,12,,,59,127
83823,note_off,0,0,0,,2,,,62,127
83823,note_off,0,0,0,,7,,,55,127
83824,note_on,1,0,0,,2,,,74,127
83824,note_on,0,0,0,,7,,,55,127
83824,note_on,0,0,0,,4,,,64,127
83824,note_on,0,0,0,,0,,,60,127
83867,note_on,43,0,0,,0,,,72,127
83888,note_off,21,0,0,,2,,,74,127
83909,note_on,21,0,0,,2,,,74,127
83930,note_off,21,0,0,,0,,,72,127
83951,note_on,21,0,0,,0,,,72,127
83972,note_off,21,0,0,,2,,,74,127
83993,note_on,21,0,0,,2,,,74,127
84014,note_off,21,0,0,,0,,,72,127
84035,note_on,21,0,0,,0,,,72,127
84056,note_off,21,0,0,,2,,,74,127
84076,note_off,20,0,0,,0,,,60,127
84076,note_off,0,0,0,,4,,,64,127
84076,note_off,0,0,0,,7,,,55,127
84077,note_on,1,0,0,,2,,,74,127
84077,note_on,0,0,0,,0,,,60,127
84077,note_on,0,0,0,,7,,,55,127
84077,note_on,0,0,0,,4,,,64,127
84098,note_off,21,0,0,,0,,,72,127
84119,note_on,21,0,0,,0,,,72,127
84140,note_off,21,0,0,,2,,,74,127
84203,note_off,63,0,0,,0,,,72,127
84204,note_on,1,0,0,,7,,,67,127
84331,note_off,127,0,0,,7,,,67,127
84331,note_off,0,0,0,,4,,,64,127
84331,note_off,0,0,0,,7,,,55,127
84331,note_off,0,0,0,,0,,,60,127
84332,note_on,1,0,0,,4,,,76,127
84332,note_on,0,0,0,,7,,,55,127
84332,note_on,0,0,0,,12,,,59,127
84332,note_on,0,0,0,,2,,,62,127
84375,note_on,43,0,0,,2,,,74,127
84396,note_off,21,0,0,,4,,,76,127
84417,note_on,21,0,0,,4,,,76,127
84438,note_off,21,0,0,,2,,,74,127
84459,note_on,21,0,0,,2,,,74,127
84480,note_off,21,0,0,,4,,,76,127
84501,note_on,21,0,0,,4,,,76,127
84522,note_off,21,0,0,,2,,,74,127
84543,note_on,21,0,0,,2,,,74,127
84564,note_off,21,0,0,,4,,,76,127
84584,note_off,20,0,0,,2,,,62,127
84584,note_off,0,0,0,,12,,,59,127
84584,note_off,0,0,0,,7,,,55,127
84585,note_on,1,0,0,,4,,,76,127
84585,note_on,0,0,0,,7,,,55,127
84585,note_on,0,0,0,,2,,,62,127
84585,note_on,0,0,0,,12,,,59,127
84606,note_off,21,0,0,,2,,,74,127
84627,note_on,21,0,0,,2,,,74,127
84648,note_off,21,0,0,,4,,,76,127
84711,note_off,63,0,0,,2,,,74,127
84712,note_on,1,0,0,,7,,,67,127
84839,note_off,127,0,0,,7,,,67,127
84839,note_off,0,0,0,,12,,,59,127
84839,note_off,0,0,0,,2,,,62,127
84839,note_off,0,0,0,,7,,,55,127
84840,note_on,1,0,0,,5,,,77,127
84840,note_on,0,0,0,,7,,,55,127
84840,note_on,0,0,0,,0,,,60,127
84840,note_on,0,0,0,,4,,,64,127
84883,note_on,43,0,0,,4,,,76,127
84904,note_off,21,0,0,,5,,,77,127
84925,note_on,21,0,0,,5,,,77,127
84946,note_off,21,0,0,,4,,,76,127
84967,note_on,21,0,0,,4,,,76,127
84988,note_off,21,0,0,,5,,,77,127
85009,note_on,21,0,0,,5,,,77,127
85030,note_off,21,0,0,,4,,,76,127
85051,note_on,21,0,0,,4,,,76,127
85072,note_off,21,0,0,,5,,,77,127
85092,note_off,20,0,0,,4,,,64,127
85092,note_off,0,0,0,,0,,,60,127
85092,note_off,0,0,0,,7,,,55,127
85093,note_on,1,0,0,,5,,,77,127
85093,note_on,0,0,0,,7,,,55,127
85093,note_on,0,0,0,,0,,,60,127
85093,note_on,0,0,0,,4,,,64,127
85114,note_off,21,0,0,,4,,,76,127
85135,note_on,21,0,0,,4,,,76,127
85156,note_off,21,0,0,,5,,,77,127
85261,note_off,105,0,0,,4,,,76,127
85262,note_on,1,0,0,,7,,,79,127
85346,note_off,84,0,0,,7,,,79,127
85346,note_off,0,0,0,,4,,,64,127
85346,note_off,0,0,0,,0,,,60,127
85346,note_off,0,0,0,,7,,,55,127
85369,note_on,23,0,0,,10,,,69,127
85369,note_on,0,0,0,,7,,,43,127
85433,note_off,64,0,0,,10,,,69,127
85436,note_on,3,0,0,,7,,,67,127
85500,note_off,64,0,0,,7,,,67,127
85503,note_on,3,0,0,,10,,,69,127
85567,note_off,64,0,0,,10,,,69,127
85571,note_on,4,0,0,,7,,,67,127
85635,note_off,64,0,0,,7,,,67,127
85638,note_on,3,0,0,,10,,,69,127
85683,note_on,45,0,0,,7,,,67,127
85702,note_off,19,0,0,,10,,,69,127
85727,note_on,25,0,0,,10,,,69,127
85747,note_off,20,0,0,,7,,,67,127
85772,note_on,25,0,0,,7,,,67,127
85791,note_off,19,0,0,,10,,,69,127
85818,note_on,27,0,0,,10,,,69,127
85837,note_off,19,0,0,,7,,,67,127
85862,note_on,25,0,0,,7,,,67,127
85882,note_off,20,0,0,,10,,,69,127
85907,note_on,25,0,0,,10,,,69,127
85926,note_off,19,0,0,,7,,,67,127
85951,note_on,25,0,0,,7,,,67,127
85971,note_off,20,0,0,,10,,,69,127
85996,note_on,25,0,0,,10,,,69,127
86015,note_off,19,0,0,,7,,,67,127
86042,note_on,27,0,0,,7,,,67,127
86061,note_off,19,0,0,,10,,,69,127
86086,note_on,25,0,0,,10,,,69,127
86106,note_off,20,0,0,,7,,,67,127
86131,note_on,25,0,0,,7,,,67,127
86150,note_off,19,0,0,,10,,,69,127
86195,note_off,45,0,0,,7,,,67,127
86198,note_on,3,0,0,,6,,,66,127
86243,note_on,45,0,0,,7,,,67,127
86262,note_off,19,0,0,,6,,,66,127
86287,note_on,25,0,0,,10,,,69,127
86307,note_off,20,0,0,,7,,,67,127
86332,note_on,25,0,0,,12,,,71,127
86351,note_off,19,0,0,,10,,,69,127
86378,note_on,27,0,0,,0,,,72,127
86397,note_off,19,0,0,,12,,,71,127
86422,note_on,25,0,0,,2,,,74,127
86442,note_off,20,0,0,,0,,,72,127
86467,note_on,25,0,0,,0,,,72,127
86486,note_off,19,0,0,,2,,,74,127
86511,note_on,25,0,0,,12,,,71,127
86531,note_off,20,0,0,,0,,,72,127
86556,note_on,25,0,0,,10,,,69,127
86575,note_off,19,0,0,,12,,,71,127
86602,note_on,27,0,0,,7,,,67,127
86621,note_off,19,0,0,,10,,,69,127
86646,note_on,25,0,0,,6,,,66,127
86666,note_off,20,0,0,,7,,,67,127
86691,note_on,25,0,0,,4,,,64,127
86710,note_off,19,0,0,,6,,,66,127
86735,note_on,25,0,0,,2,,,62,127
86755,note_off,20,0,0,,4,,,64,127
86780,note_on,25,0,0,,0,,,60,127
86799,note_off,19,0,0,,2,,,62,127
86826,note_on,27,0,0,,12,,,59,127
86845,note_off,19,0,0,,0,,,60,127
86870,note_on,25,0,0,,10,,,57,127
86890,note_off,20,0,0,,12,,,59,127
86906,note_off,16,0,0,,7,,,43,127
86915,note_on,9,0,0,,7,,,55,127
86934,note_off,19,0,0,,10,,,57,127
86959,note_on,25,0,0,,6,,,54,127
86979,note_off,20,0,0,,7,,,55,127
87004,note_on,25,0,0,,4,,,52,127
87023,note_off,19,0,0,,6,,,54,127
87050,note_on,27,0,0,,2,,,50,127
87069,note_off,19,0,0,,4,,,52,127
87094,note_on,25,0,0,,0,,,48,127
87114,note_off,20,0,0,,2,,,50,127
87139,note_on,25,0,0,,12,,,47,127
87158,note_off,19,0,0,,0,,,48,127
87183,note_on,25,0,0,,10,,,45,127
87203,note_off,20,0,0,,12,,,47,127
87228,note_on,25,0,0,,7,,,43,127
87247,note_off,19,0,0,,10,,,45,127
87274,note_on,27,0,0,,6,,,42,127
87293,note_off,19,0,0,,7,,,43,127
87318,note_on,25,0,0,,4,,,40,127
87338,note_off,20,0,0,,6,,,42,127
87363,note_on,25,0,0,,2,,,38,127
87382,note_off,19,0,0,,4,,,40,127
87407,note_on,25,0,0,,0,,,36,127
87427,note_off,20,0,0,,2,,,38,127
87452,note_on,25,0,0,,12,,,35,127
87471,note_off,19,0,0,,0,,,36,127
87498,note_on,27,0,0,,10,,,33,127
87517,note_off,19,0,0,,12,,,35,127
87542,note_on,25,0,0,,7,,,31,127
87562,note_off,20,0,0,,10,,,33,127
89078,note_off,1516,0,0,,7,,,31,127
89231,note_on,153,0,0,,0,,,72,127
89231,note_on,0,0,0,,4,,,76,127
89358,note_off,127,0,0,,4,,,76,127
89359,note_on,1,0,0,,5,,,77,127
89486,note_off,127,0,0,,5,,,77,127
89486,note_off,0,0,0,,0,,,72,127
89487,note_on,1,0,0,,12,,,71,127
89487,note_on,0,0,0,,7,,,79,127
89614,note_off,127,0,0,,7,,,79,127
89614,note_off,0,0,0,,12,,,71,127
89615,note_on,1,0,0,,0,,,72,127
89615,note_on,0,0,0,,10,,,81,127
89742,note_off,127,0,0,,10,,,81,127
89742,note_off,0,0,0,,0,,,72,127
89743,note_on,1,0,0,,2,,,74,127
89743,note_on,0,0,0,,7,,,79,127
89870,note_off,127,0,0,,7,,,79,127
89870,note_off,0,0,0,,2,,,74,127
89871,note_on,1,0,0,,4,,,76,127
89871,note_on,0,0,0,,10,,,81,127
89998,note_off,127,0,0,,10,,,81,127
89998,note_off,0,0,0,,4,,,76,127
89999,note_on,1,0,0,,5,,,77,127
89999,note_on,0,0,0,,7,,,79,127
90254,note_off,255,0,0,,5,,,77,127
90255,note_on,1,0,0,,2,,,74,127
90255,note_on,0,0,0,,7,,,43,127
90255,note_on,0,0,0,,7,,,55,127
90510,note_off,255,0,0,,7,,,55,127
90510,note_off,0,0,0,,7,,,43,127
90510,note_off,0,0,0,,2,,,74,127
90510,note_off,0,0,0,,7,,,79,127
90511,note_on,1,0,0,,7,,,79,127
90511,note_on,0,0,0,,0,,,36,127
90511,note_on,0,0,0,,0,,,48,127
90595,note_off,84,0,0,,7,,,79,127
90596,note_on,1,0,0,,5,,,77,127
90680,note_off,84,0,0,,5,,,77,127
90681,note_on,1,0,0,,4,,,76,127
90765,note_off,84,0,0,,4,,,76,127
90766,note_on,1,0,0,,5,,,77,127
90850,note_off,84,0,0,,5,,,77,127
90851,note_on,1,0,0,,4,,,76,127
90935,note_off,84,0,0,,4,,,76,127
90936,note_on,1,0,0,,2,,,74,127
91020,note_off,84,0,0,,2,,,74,127
91021,note_on,1,0,0,,4,,,76,127
91276,note_off,255,0,0,,4,,,76,127
91276,note_off,0,0,0,,0,,,48,127
91276,note_off,0,0,0,,0,,,36,127
91277,note_on,1,0,0,,0,,,72,127
91277,note_on,0,0,0,,4,,,76,127
91404,note_off,127,0,0,,4,,,76,127
91405,note_on,1,0,0,,5,,,77,127
91532,note_off,127,0,0,,5,,,77,127
91532,note_off,0,0,0,,0,,,72,127
91533,note_on,1,0,0,,12,,,71,127
91533,note_on,0,0,0,,7,,,79,127
91660,note_off,127,0,0,,7,,,79,127
91660,note_off,0,0,0,,12,,,71,127
91661,note_on,1,0,0,,0,,,72,127
91661,note_on,0,0,0,,10,,,81,127
91788,note_off,127,0,0,,10,,,81,127
91788,note_off,0,0,0,,0,,,72,127
91789,note_on,1,0,0,,2,,,74,127
91789,note_on,0,0,0,,7,,,79,127
91916,note_off,127,0,0,,7,,,79,127
91916,note_off,0,0,0,,2,,,74,127
91917,note_on,1,0,0,,4,,,76,127
91917,note_on,0,0,0,,10,,,81,127
92044,note_off,127,0,0,,10,,,81,127
92044,note_off,0,0,0,,4,,,76,127
92045,note_on,1,0,0,,5,,,77,127
92045,note_on,0,0,0,,7,,,79,127
92300,note_off,255,0,0,,5,,,77,127
92301,note_on,1,0,0,,2,,,74,127
92301,note_on,0,0,0,,7,,,43,127
92301,note_on,0,0,0,,7,,,55,127
92556,note_off,255,0,0,,7,,,55,127
92556,note_off,0,0,0,,7,,,43,127
92556,note_off,0,0,0,,2,,,74,127
92556,note_off,0,0,0,,7,,,79,127
92557,note_on,1,0,0,,7,,,79,127
92557,note_on,0,0,0,,0,,,36,127
92557,note_on,0,0,0,,0,,,48,127
92641,note_off,84,0,0,,7,,,79,127
92642,note_on,1,0,0,,5,,,77,127
92726,note_off,84,0,0,,5,,,77,127
92727,note_on,1,0,0,,4,,,76,127
92811,note_off,84,0,0,,4,,,76,127
92812,note_on,1,0,0,,5,,,77,127
92896,note_off,84,0,0,,5,,,77,127
92897,note_on,1,0,0,,4,,,76,127
92981,note_off,84,0,0,,4,,,76,127
92982,note_on,1,0,0,,2,,,74,127
93066,note_off,84,0,0,,2,,,74,127
93067,note_on,1,0,0,,4,,,76,127
93151,note_off,84,0,0,,4,,,76,127
93152,note_on,1,0,0,,2,,,74,127
93236,note_off,84,0,0,,2,,,74,127
93237,note_on,1,0,0,,0,,,72,127
93321,note_off,84,0,0,,0,,,72,127
93321,note_off,0,0,0,,0,,,48,127
93321,note_off,0,0,0,,0,,,36,127
93322,note_on,1,0,0,,2,,,74,127
93322,note_on,0,0,0,,4,,,52,127
93406,note_off,84,0,0,,2,,,74,127
93407,note_on,1,0,0,,0,,,72,127
93491,note_off,84,0,0,,0,,,72,127
93492,note_on,1,0,0,,12,,,71,127
93576,note_off,84,0,0,,12,,,71,127
93576,note_off,0,0,0,,4,,,52,127
93577,note_on,1,0,0,,0,,,72,127
93577,note_on,0,0,0,,5,,,53,127
93661,note_off,84,0,0,,0,,,72,127
93662,note_on,1,0,0,,12,,,71,127
93746,note_off,84,0,0,,12,,,71,127
93747,note_on,1,0,0,,10,,,69,127
93831,note_off,84,0,0,,10,,,69,127
93831,note_off,0,0,0,,5,,,53,127
93832,note_on,1,0,0,,8,,,80,127
93832,note_on,0,0,0,,5,,,53,127
93959,note_off,127,0,0,,8,,,80,127
93960,note_on,1,0,0,,10,,,81,127
94087,note_off,127,0,0,,10,,,81,127
94087,note_off,0,0,0,,5,,,53,127
94088,note_on,1,0,0,,0,,,72,127
94088,note_on,0,0,0,,7,,,55,127
94344,note_on,256,0,0,,7,,,43,127
94407,note_off,63,0,0,,0,,,72,127
94408,note_on,1,0,0,,12,,,71,127
94472,note_off,64,0,0,,12,,,71,127
94472,note_on,0,0,0,,0,,,72,127
94536,note_off,64,0,0,,0,,,72,127
94536,note_on,0,0,0,,12,,,71,127
94595,note_off,59,0,0,,7,,,55,127
94599,note_off,4,0,0,,7,,,43,127
94600,note_on,1,0,0,,0,,,48,127
94855,note_off,255,0,0,,12,,,71,127
94856,note_on,1,0,0,,0,,,72,127
95112,note_on,256,0,0,,7,,,67,127
95363,note_off,251,0,0,,0,,,72,127
95367,note_off,4,0,0,,7,,,67,127
95367,note_off,0,0,0,,0,,,48,127
95390,note_on,23,0,0,,3,,,75,127
95390,note_on,0,0,0,,0,,,72,127
95517,note_off,127,0,0,,3,,,75,127
95518,note_on,1,0,0,,5,,,77,127
95645,note_off,127,0,0,,5,,,77,127
95645,note_off,0,0,0,,0,,,72,127
95646,note_on,1,0,0,,7,,,79,127
95646,note_on,0,0,0,,12,,,71,127
95773,note_off,127,0,0,,12,,,71,127
95773,note_off,0,0,0,,7,,,79,127
95774,note_on,1,0,0,,8,,,80,127
95774,note_on,0,0,0,,0,,,72,127
95901,note_off,127,0,0,,0,,,72,127
95901,note_off,0,0,0,,8,,,80,127
95902,note_on,1,0,0,,7,,,79,127
95902,note_on,0,0,0,,2,,,74,127
96029,note_off,127,0,0,,2,,,74,127
96029,note_off,0,0,0,,7,,,79,127
96030,note_on,1,0,0,,8,,,80,127
96030,note_on,0,0,0,,3,,,75,127
96157,note_off,127,0,0,,3,,,75,127
96157,note_off,0,0,0,,8,,,80,127
96158,note_on,1,0,0,,7,,,79,127
96158,note_on,0,0,0,,5,,,77,127
96413,note_off,255,0,0,,5,,,77,127
96414,note_on,1,0,0,,7,,,55,127
96414,note_on,0,0,0,,7,,,43,127
96414,note_on,0,0,0,,2,,,74,127
96669,note_off,255,0,0,,2,,,74,127
96669,note_off,0,0,0,,7,,,43,127
96669,note_off,0,0,0,,7,,,55,127
96669,note_off,0,0,0,,7,,,79,127
96670,note_on,1,0,0,,0,,,48,127
96670,note_on,0,0,0,,0,,,36,127
96670,note_on,0,0,0,,7,,,79,127
96754,note_off,84,0,0,,7,,,79,127
96755,note_on,1,0,0,,5,,,77,127
96839,note_off,84,0,0,,5,,,77,127
96840,note_on,1,0,0,,3,,,75,127
96924,note_off,84,0,0,,3,,,75,127
96925,note_on,1,0,0,,5,,,77,127
97009,note_off,84,0,0,,5,,,77,127
97010,note_on,1,0,0,,3,,,75,127
97094,note_off,84,0,0,,3,,,75,127
97095,note_on,1,0,0,,2,,,74,127
97179,note_off,84,0,0,,2,,,74,127
97179,note_off,0,0,0,,0,,,36,127
97179,note_off,0,0,0,,0,,,48,127
97180,note_on,1,0,0,,3,,,75,127
97180,note_on,0,0,0,,0,,,72,127
97435,note_off,255,0,0,,0,,,72,127
97435,note_off,0,0,0,,3,,,75,127
97436,note_on,1,0,0,,3,,,75,127
97436,note_on,0,0,0,,0,,,72,127
97563,note_off,127,0,0,,3,,,75,127
97564,note_on,1,0,0,,5,,,77,127
97691,note_off,127,0,0,,5,,,77,127
97691,note_off,0,0,0,,0,,,72,127
97692,note_on,1,0,0,,7,,,79,127
97692,note_on,0,0,0,,12,,,71,127
97819,note_off,127,0,0,,12,,,71,127
97819,note_off,0,0,0,,7,,,79,127
97820,note_on,1,0,0,,8,,,80,127
97820,note_on,0,0,0,,0,,,72,127
97947,note_off,127,0,0,,0,,,72,127
97947,note_off,0,0,0,,8,,,80,127
97948,note_on,1,0,0,,7,,,79,127
97948,note_on,0,0,0,,2,,,74,127
98075,note_off,127,0,0,,2,,,74,127
98075,note_off,0,0,0,,7,,,79,127
98076,note_on,1,0,0,,8,,,80,127
98076,note_on,0,0,0,,3,,,75,127
98203,note_off,127,0,0,,3,,,75,127
98203,note_off,0,0,0,,8,,,80,127
98204,note_on,1,0,0,,7,,,79,127
98204,note_on,0,0,0,,5,,,77,127
98459,note_off,255,0,0,,5,,,77,127
98460,note_on,1,0,0,,7,,,55,127
98460,note_on,0,0,0,,7,,,43,127
98460,note_on,0,0,0,,2,,,74,127
98715,note_off,255,0,0,,2,,,74,127
98715,note_off,0,0,0,,7,,,43,127
98715,note_off,0,0,0,,7,,,55,127
98715,note_off,0,0,0,,7,,,79,127
98716,note_on,1,0,0,,0,,,36,127
98716,note_on,0,0,0,,0,,,48,127
98716,note_on,0,0,0,,7,,,79,127
98800,note_off,84,0,0,,7,,,79,127
98801,note_on,1,0,0,,5,,,77,127
98885,note_off,84,0,0,,5,,,77,127
98886,note_on,1,0,0,,3,,,75,127
98970,note_off,84,0,0,,3,,,75,127
98971,note_on,1,0,0,,5,,,77,127
99055,note_off,84,0,0,,5,,,77,127
99056,note_on,1,0,0,,3,,,75,127
99140,note_off,84,0,0,,3,,,75,127
99141,note_on,1,0,0,,2,,,74,127
99225,note_off,84,0,0,,2,,,74,127
99226,note_on,1,0,0,,3,,,75,127
99310,note_off,84,0,0,,3,,,75,127
99311,note_on,1,0,0,,2,,,74,127
99395,note_off,84,0,0,,2,,,74,127
99396,note_on,1,0,0,,0,,,72,127
99480,note_off,84,0,0,,0,,,72,127
99480,note_off,0,0,0,,0,,,48,127
99480,note_off,0,0,0,,0,,,36,127
99481,note_on,1,0,0,,3,,,51,127
99481,note_on,0,0,0,,0,,,60,127
99481,note_on,0,0,0,,2,,,74,127
99565,note_off,84,0,0,,2,,,74,127
99566,note_on,1,0,0,,0,,,72,127
99650,note_off,84,0,0,,0,,,72,127
99651,note_on,1,0,0,,11,,,70,127
99735,note_off,84,0,0,,11,,,70,127
99735,note_off,0,0,0,,0,,,60,127
99735,note_off,0,0,0,,3,,,51,127
99736,note_on,1,0,0,,0,,,60,127
99736,note_on,0,0,0,,5,,,53,127
99736,note_on,0,0,0,,8,,,68,127
99820,note_off,84,0,0,,8,,,68,127
99821,note_on,1,0,0,,7,,,67,127
99905,note_off,84,0,0,,7,,,67,127
99906,note_on,1,0,0,,5,,,65,127
99990,note_off,84,0,0,,5,,,65,127
99990,note_off,0,0,0,,0,,,60,127
99991,note_on,1,0,0,,5,,,65,127
99991,note_on,0,0,0,,5,,,77,127
100075,note_off,84,0,0,,5,,,77,127
100076,note_on,1,0,0,,3,,,75,127
100160,note_off,84,0,0,,3,,,75,127
100161,note_on,1,0,0,,2,,,74,127
100241,note_off,80,0,0,,5,,,53,127
100245,note_off,4,0,0,,2,,,74,127
100245,note_off,0,0,0,,5,,,65,127
100246,note_on,1,0,0,,3,,,63,127
100246,note_on,0,0,0,,7,,,55,127
100246,note_on,0,0,0,,0,,,72,127
100501,note_off,255,0,0,,3,,,63,127
100502,note_on,1,0,0,,2,,,62,127
100565,note_off,63,0,0,,0,,,72,127
100566,note_on,1,0,0,,12,,,71,127
100619,note_off,53,0,0,,7,,,55,127
100630,note_off,11,0,0,,12,,,71,127
100630,note_on,0,0,0,,0,,,72,127
100694,note_off,64,0,0,,0,,,72,127
100694,note_on,0,0,0,,12,,,71,127
100757,note_off,63,0,0,,2,,,62,127
100758,note_off,1,0,0,,12,,,71,127
100758,note_on,0,0,0,,0,,,48,127
100758,note_on,0,0,0,,0,,,72,127
101013,note_off,255,0,0,,0,,,48,127
101036,note_on,23,0,0,,0,,,60,127
101141,note_off,105,0,0,,0,,,72,127
101164,note_on,23,0,0,,4,,,76,127
101228,note_off,64,0,0,,4,,,76,127
101228,note_on,0,0,0,,2,,,74,127
101291,note_off,63,0,0,,0,,,60,127
101292,note_off,1,0,0,,2,,,74,127
101292,note_on,0,0,0,,0,,,72,127
101292,note_on,0,0,0,,10,,,69,127
101292,note_on,0,0,0,,5,,,65,127
101547,note_off,255,0,0,,5,,,65,127
101547,note_off,0,0,0,,10,,,69,127
101548,note_on,1,0,0,,2,,,62,127
101611,note_off,63,0,0,,0,,,72,127
101612,note_on,1,0,0,,5,,,77,127
101676,note_off,64,0,0,,5,,,77,127
101676,note_on,0,0,0,,4,,,76,127
101740,note_off,64,0,0,,4,,,76,127
101740,note_on,0,0,0,,2,,,74,127
101803,note_off,63,0,0,,2,,,62,127
101804,note_off,1,0,0,,2,,,74,127
101804,note_on,0,0,0,,0,,,72,127
101804,note_on,0,0,0,,4,,,64,127
101804,note_on,0,0,0,,7,,,67,127
102059,note_off,255,0,0,,7,,,67,127
102059,note_off,0,0,0,,4,,,64,127
102060,note_on,1,0,0,,0,,,60,127
102123,note_off,63,0,0,,0,,,72,127
102124,note_on,1,0,0,,7,,,79,127
102188,note_off,64,0,0,,7,,,79,127
102188,note_on,0,0,0,,4,,,76,127
102252,note_off,64,0,0,,4,,,76,127
102252,note_on,0,0,0,,2,,,74,127
102315,note_off,63,0,0,,0,,,60,127
102316,note_off,1,0,0,,2,,,74,127
102316,note_on,0,0,0,,0,,,72,127
102316,note_on,0,0,0,,10,,,69,127
102316,note_on,0,0,0,,5,,,65,127
102571,note_off,255,0,0,,5,,,65,127
102571,note_off,0,0,0,,10,,,69,127
102572,note_on,1,0,0,,2,,,62,127
102635,note_off,63,0,0,,0,,,72,127
102636,note_on,1,0,0,,10,,,81,127
102700,note_off,64,0,0,,10,,,81,127
102700,note_on,0,0,0,,4,,,76,127
102764,note_off,64,0,0,,4,,,76,127
102764,note_on,0,0,0,,2,,,74,127
102827,note_off,63,0,0,,2,,,62,127
102828,note_off,1,0,0,,2,,,74,127
102828,note_on,0,0,0,,0,,,72,127
102828,note_on,0,0,0,,7,,,67,127
102828,note_on,0,0,0,,4,,,64,127
103083,note_off,255,0,0,,4,,,64,127
103083,note_off,0,0,0,,7,,,67,127
103084,note_on,1,0,0,,0,,,60,127
103147,note_off,63,0,0,,0,,,72,127
103148,note_on,1,0,0,,12,,,83,127
103212,note_off,64,0,0,,12,,,83,127
103212,note_on,0,0,0,,4,,,76,127
103276,note_off,64,0,0,,4,,,76,127
103276,note_on,0,0,0,,2,,,74,127
103339,note_off,63,0,0,,0,,,60,127
103340,note_off,1,0,0,,2,,,74,127
103340,note_on,0,0,0,,0,,,72,127
103340,note_on,0,0,0,,5,,,65,127
103340,note_on,0,0,0,,10,,,69,127
103595,note_off,255,0,0,,10,,,69,127
103595,note_off,0,0,0,,5,,,65,127
103596,note_on,1,0,0,,2,,,62,127
103659,note_off,63,0,0,,0,,,72,127
103660,note_on,1,0,0,,0,,,84,127
103724,note_off,64,0,0,,0,,,84,127
103724,note_on,0,0,0,,4,,,76,127
103788,note_off,64,0,0,,4,,,76,127
103788,note_on,0,0,0,,2,,,74,127
103851,note_off,63,0,0,,2,,,62,127
103852,note_off,1,0,0,,2,,,74,127
103852,note_on,0,0,0,,0,,,72,127
103852,note_on,0,0,0,,7,,,67,127
103852,note_on,0,0,0,,4,,,64,127
104108,note_on,256,0,0,,0,,,84,127
104359,note_off,251,0,0,,0,,,72,127
104363,note_off,4,0,0,,0,,,84,127
104364,note_on,1,0,0,,12,,,83,127
104448,note_off,84,0,0,,12,,,83,127
104449,note_on,1,0,0,,10,,,81,127
104533,note_off,84,0,0,,10,,,81,127
104534,note_on,1,0,0,,7,,,79,127
104618,note_off,84,0,0,,7,,,79,127
104618,note_off,0,0,0,,4,,,64,127
104618,note_off,0,0,0,,7,,,67,127
104619,note_on,1,0,0,,5,,,77,127
104619,note_on,0,0,0,,5,,,65,127
104619,note_on,0,0,0,,2,,,62,127
104703,note_off,84,0,0,,5,,,77,127
104704,note_on,1,0,0,,4,,,76,127
104788,note_off,84,0,0,,4,,,76,127
104789,note_on,1,0,0,,2,,,74,127
104873,note_off,84,0,0,,2,,,74,127
104873,note_off,0,0,0,,2,,,62,127
104873,note_off,0,0,0,,5,,,65,127
104874,note_on,1,0,0,,4,,,76,127
104874,note_on,0,0,0,,4,,,64,127
104874,note_on,0,0,0,,0,,,60,127
104958,note_off,84,0,0,,4,,,76,127
104959,note_on,1,0,0,,5,,,77,127
105043,note_off,84,0,0,,5,,,77,127
105044,note_on,1,0,0,,7,,,79,127
105128,note_off,84,0,0,,7,,,79,127
105128,note_off,0,0,0,,0,,,60,127
105128,note_off,0,0,0,,4,,,64,127
105129,note_on,1,0,0,,5,,,77,127
105129,note_on,0,0,0,,5,,,53,127
105129,note_on,0,0,0,,5,,,65,127
105213,note_off,84,0,0,,5,,,77,127
105214,note_on,1,0,0,,4,,,76,127
105298,note_off,84,0,0,,4,,,76,127
105299,note_on,1,0,0,,2,,,74,127
105383,note_off,84,0,0,,2,,,74,127
105383,note_off,0,0,0,,5,,,65,127
105383,note_off,0,0,0,,5,,,53,127
105384,note_on,1,0,0,,7,,,79,127
105384,note_on,0,0,0,,4,,,64,127
105384,note_on,0,0,0,,7,,,55,127
105468,note_off,84,0,0,,7,,,79,127
105469,note_on,1,0,0,,5,,,77,127
105553,note_off,84,0,0,,5,,,77,127
105554,note_on,1,0,0,,4,,,76,127
105638,note_off,84,0,0,,4,,,76,127
105638,note_off,0,0,0,,4,,,64,127
105639,note_on,1,0,0,,2,,,74,127
105639,note_on,0,0,0,,2,,,62,127
105723,note_off,84,0,0,,2,,,74,127
105724,note_on,1,0,0,,0,,,72,127
105808,note_off,84,0,0,,0,,,72,127
105809,note_on,1,0,0,,12,,,71,127
105893,note_off,84,0,0,,12,,,71,127
105893,note_off,0,0,0,,2,,,62,127
105893,note_off,0,0,0,,7,,,55,127
105894,note_on,1,0,0,,2,,,74,127
105894,note_on,0,0,0,,0,,,48,127
105937,note_on,43,0,0,,0,,,72,127
105958,note_off,21,0,0,,2,,,74,127
105979,note_on,21,0,0,,2,,,74,127
106000,note_off,21,0,0,,0,,,72,127
106021,note_on,21,0,0,,0,,,72,127
106042,note_off,21,0,0,,2,,,74,127
106063,note_on,21,0,0,,2,,,74,127
106084,note_off,21,0,0,,0,,,72,127
106105,note_on,21,0,0,,0,,,72,127
106126,note_off,21,0,0,,2,,,74,127
106146,note_off,20,0,0,,0,,,48,127
106147,note_on,1,0,0,,2,,,74,127
106147,note_on,0,0,0,,0,,,60,127
106168,note_off,21,0,0,,0,,,72,127
106189,note_on,21,0,0,,0,,,72,127
106210,note_off,21,0,0,,2,,,74,127
106273,note_off,63,0,0,,0,,,72,127
106274,note_on,1,0,0,,4,,,76,127
106401,note_off,127,0,0,,4,,,76,127
106401,note_off,0,0,0,,0,,,60,127
106402,note_on,1,0,0,,2,,,74,127
106402,note_on,0,0,0,,5,,,65,127
106402,note_on,0,0,0,,10,,,69,127
106445,note_on,43,0,0,,0,,,72,127
106466,note_off,21,0,0,,2,,,74,127
106487,note_on,21,0,0,,2,,,74,127
106508,note_off,21,0,0,,0,,,72,127
106529,note_on,21,0,0,,0,,,72,127
106550,note_off,21,0,0,,2,,,74,127
106571,note_on,21,0,0,,2,,,74,127
106592,note_off,21,0,0,,0,,,72,127
106613,note_on,21,0,0,,0,,,72,127
106634,note_off,21,0,0,,2,,,74,127
106654,note_off,20,0,0,,10,,,69,127
106654,note_off,0,0,0,,5,,,65,127
106655,note_on,1,0,0,,2,,,74,127
106655,note_on,0,0,0,,2,,,62,127
106676,note_off,21,0,0,,0,,,72,127
106697,note_on,21,0,0,,0,,,72,127
106718,note_off,21,0,0,,2,,,74,127
106781,note_off,63,0,0,,0,,,72,127
106782,note_on,1,0,0,,5,,,77,127
106909,note_off,127,0,0,,5,,,77,127
106909,note_off,0,0,0,,2,,,62,127
106910,note_on,1,0,0,,2,,,74,127
106910,note_on,0,0,0,,4,,,64,127
106910,note_on,0,0,0,,7,,,67,127
106953,note_on,43,0,0,,0,,,72,127
106974,note_off,21,0,0,,2,,,74,127
106995,note_on,21,0,0,,2,,,74,127
107016,note_off,21,0,0,,0,,,72,127
107037,note_on,21,0,0,,0,,,72,127
107058,note_off,21,0,0,,2,,,74,127
107079,note_on,21,0,0,,2,,,74,127
107100,note_off,21,0,0,,0,,,72,127
107121,note_on,21,0,0,,0,,,72,127
107142,note_off,21,0,0,,2,,,74,127
107162,note_off,20,0,0,,7,,,67,127
107162,note_off,0,0,0,,4,,,64,127
107163,note_on,1,0,0,,2,,,74,127
107163,note_on,0,0,0,,0,,,60,127
107184,note_off,21,0,0,,0,,,72,127
107205,note_on,21,0,0,,0,,,72,127
107226,note_off,21,0,0,,2,,,74,127
107289,note_off,63,0,0,,0,,,72,127
107290,note_on,1,0,0,,7,,,79,127
107417,note_off,127,0,0,,7,,,79,127
107417,note_off,0,0,0,,0,,,60,127
107418,note_on,1,0,0,,2,,,74,127
107418,note_on,0,0,0,,5,,,65,127
107418,note_on,0,0,0,,10,,,69,127
107461,note_on,43,0,0,,0,,,72,127
107482,note_off,21,0,0,,2,,,74,127
107503,note_on,21,0,0,,2,,,74,127
107524,note_off,21,0,0,,0,,,72,127
107545,note_on,21,0,0,,0,,,72,127
107566,note_off,21,0,0,,2,,,74,127
107587,note_on,21,0,0,,2,,,74,127
107608,note_off,21,0,0,,0,,,72,127
107629,note_on,21,0,0,,0,,,72,127
107650,note_off,21,0,0,,2,,,74,127
107670,note_off,20,0,0,,10,,,69,127
107670,note_off,0,0,0,,5,,,65,127
107671,note_on,1,0,0,,2,,,74,127
107671,note_on,0,0,0,,2,,,62,127
107692,note_off,21,0,0,,0,,,72,127
107713,note_on,21,0,0,,0,,,72,127
107734,note_off,21,0,0,,2,,,74,127
107797,note_off,63,0,0,,0,,,72,127
107798,note_on,1,0,0,,10,,,81,127
107925,note_off,127,0,0,,10,,,81,127
107925,note_off,0,0,0,,2,,,62,127
107926,note_on,1,0,0,,2,,,74,127
107926,note_on,0,0,0,,4,,,64,127
107926,note_on,0,0,0,,7,,,67,127
107969,note_on,43,0,0,,0,,,72,127
107990,note_off,21,0,0,,2,,,74,127
108011,note_on,21,0,0,,2,,,74,127
108032,note_off,21,0,0,,0,,,72,127
108053,note_on,21,0,0,,0,,,72,127
108074,note_off,21,0,0,,2,,,74,127
108095,note_on,21,0,0,,2,,,74,127
108116,note_off,21,0,0,,0,,,72,127
108137,note_on,21,0,0,,0,,,72,127
108158,note_off,21,0,0,,2,,,74,127
108178,note_off,20,0,0,,7,,,67,127
108178,note_off,0,0,0,,4,,,64,127
108179,note_on,1,0,0,,2,,,74,127
108179,note_on,0,0,0,,0,,,60,127
108200,note_off,21,0,0,,0,,,72,127
108221,note_on,21,0,0,,0,,,72,127
108242,note_off,21,0,0,,2,,,74,127
108305,note_off,63,0,0,,0,,,72,127
108306,note_on,1,0,0,,12,,,83,127
108433,note_off,127,0,0,,12,,,83,127
108433,note_off,0,0,0,,0,,,60,127
108434,note_on,1,0,0,,2,,,74,127
108434,note_on,0,0,0,,10,,,69,127
108434,note_on,0,0,0,,5,,,65,127
108477,note_on,43,0,0,,0,,,72,127
108498,note_off,21,0,0,,2,,,74,127
108519,note_on,21,0,0,,2,,,74,127
108540,note_off,21,0,0,,0,,,72,127
108561,note_on,21,0,0,,0,,,72,127
108582,note_off,21,0,0,,2,,,74,127
108603,note_on,21,0,0,,2,,,74,127
108624,note_off,21,0,0,,0,,,72,127
108645,note_on,21,0,0,,0,,,72,127
108666,note_off,21,0,0,,2,,,74,127
108686,note_off,20,0,0,,5,,,65,127
108686,note_off,0,0,0,,10,,,69,127
108687,note_on,1,0,0,,2,,,74,127
108687,note_on,0,0,0,,2,,,62,127
108708,note_off,21,0,0,,0,,,72,127
108729,note_on,21,0,0,,0,,,72,127
108750,note_off,21,0,0,,2,,,74,127
108813,note_off,63,0,0,,0,,,72,127
108814,note_on,1,0,0,,0,,,84,127
108941,note_off,127,0,0,,0,,,84,127
108941,note_off,0,0,0,,2,,,62,127
108942,note_on,1,0,0,,2,,,74,127
108942,note_on,0,0,0,,4,,,64,127
108942,note_on,0,0,0,,7,,,67,127
108985,note_on,43,0,0,,0,,,72,127
109006,note_off,21,0,0,,2,,,74,127
109027,note_on,21,0,0,,2,,,74,127
109048,note_off,21,0,0,,0,,,72,127
109069,note_on,21,0,0,,0,,,72,127
109090,note_off,21,0,0,,2,,,74,127
109111,note_on,21,0,0,,2,,,74,127
109132,note_off,21,0,0,,0,,,72,127
109153,note_on,21,0,0,,0,,,72,127
109174,note_off,21,0,0,,2,,,74,127
109195,note_on,21,0,0,,0,,,84,127
109216,note_off,21,0,0,,0,,,72,127
109449,note_off,233,0,0,,0,,,84,127
109450,note_on,1,0,0,,12,,,83,127
109534,note_off,84,0,0,,12,,,83,127
109535,note_on,1,0,0,,10,,,81,127
109619,note_off,84,0,0,,10,,,81,127
109620,note_on,1,0,0,,7,,,79,127
109704,note_off,84,0,0,,7,,,79,127
109704,note_off,0,0,0,,7,,,67,127
109704,note_off,0,0,0,,4,,,64,127
109705,note_on,1,0,0,,5,,,77,127
109705,note_on,0,0,0,,2,,,62,127
109705,note_on,0,0,0,,5,,,65,127
109789,note_off,84,0,0,,5,,,77,127
109790,note_on,1,0,0,,4,,,76,127
109874,note_off,84,0,0,,4,,,76,127
109875,note_on,1,0,0,,2,,,74,127
109959,note_off,84,0,0,,2,,,74,127
109959,note_off,0,0,0,,5,,,65,127
109959,note_off,0,0,0,,2,,,62,127
109960,note_on,1,0,0,,4,,,76,127
109960,note_on,0,0,0,,0,,,60,127
109960,note_on,0,0,0,,4,,,64,127
110044,note_off,84,0,0,,4,,,76,127
110045,note_on,1,0,0,,5,,,77,127
110129,note_off,84,0,0,,5,,,77,127
110130,note_on,1,0,0,,7,,,79,127
110214,note_off,84,0,0,,7,,,79,127
110214,note_off,0,0,0,,4,,,64,127
110214,note_off,0,0,0,,0,,,60,127
110215,note_on,1,0,0,,5,,,77,127
110215,note_on,0,0,0,,5,,,53,127
110215,note_on,0,0,0,,5,,,65,127
110299,note_off,84,0,0,,5,,,77,127
110300,note_on,1,0,0,,4,,,76,127
110384,note_off,84,0,0,,4,,,76,127
110385,note_on,1,0,0,,2,,,74,127
110469,note_off,84,0,0,,2,,,74,127
110469,note_off,0,0,0,,5,,,65,127
110469,note_off,0,0,0,,5,,,53,127
110470,note_on,1,0,0,,7,,,79,127
110470,note_on,0,0,0,,4,,,64,127
110470,note_on,0,0,0,,7,,,55,127
110554,note_off,84,0,0,,7,,,79,127
110555,note_on,1,0,0,,5,,,77,127
110639,note_off,84,0,0,,5,,,77,127
110640,note_on,1,0,0,,4,,,76,127
110724,note_off,84,0,0,,4,,,76,127
110724,note_off,0,0,0,,7,,,55,127
110724,note_off,0,0,0,,4,,,64,127
110725,note_on,1,0,0,,2,,,74,127
110725,note_on,0,0,0,,2,,,62,127
110809,note_off,84,0,0,,2,,,74,127
110810,note_on,1,0,0,,0,,,72,127
110894,note_off,84,0,0,,0,,,72,127
110895,note_on,1,0,0,,12,,,71,127
110979,note_off,84,0,0,,12,,,71,127
110979,note_off,0,0,0,,2,,,62,127
110980,note_on,1,0,0,,0,,,72,127
111044,note_on,64,0,0,,0,,,36,127
111108,note_off,64,0,0,,0,,,36,127
111108,note_on,0,0,0,,4,,,40,127
111172,note_off,64,0,0,,4,,,40,127
111172,note_on,0,0,0,,7,,,43,127
111236,note_off,64,0,0,,7,,,43,127
111236,note_on,0,0,0,,0,,,48,127
111300,note_off,64,0,0,,0,,,48,127
111300,note_on,0,0,0,,4,,,52,127
111364,note_off,64,0,0,,4,,,52,127
111364,note_off,0,0,0,,0,,,72,127
111364,note_on,0,0,0,,7,,,55,127
111428,note_off,64,0,0,,7,,,55,127
111428,note_on,0,0,0,,0,,,60,127
111492,note_off,64,0,0,,0,,,60,127
111492,note_on,0,0,0,,4,,,64,127
111556,note_off,64,0,0,,4,,,64,127
111556,note_on,0,0,0,,7,,,67,127
111620,note_off,64,0,0,,7,,,67,127
111620,note_on,0,0,0,,0,,,72,127
111684,note_off,64,0,0,,0,,,72,127
111684,note_on,0,0,0,,4,,,76,127
112004,note_off,320,0,0,,4,,,76,127
112260,note_on,256,0,0,,5,,,77,127
112260,note_on,0,0,0,,5,,,53,127
112260,note_on,0,0,0,,5,,,65,127
112344,note_off,84,0,0,,5,,,77,127
112345,note_on,1,0,0,,7,,,79,127
112429,note_off,84,0,0,,7,,,79,127
112430,note_on,1,0,0,,10,,,81,127
112514,note_off,84,0,0,,10,,,81,127
112514,note_off,0,0,0,,5,,,65,127
112514,note_off,0,0,0,,5,,,53,127
112515,note_on,1,0,0,,7,,,79,127
112515,note_on,0,0,0,,7,,,55,127
112515,note_on,0,0,0,,4,,,64,127
112599,note_off,84,0,0,,7,,,79,127
112600,note_on,1,0,0,,5,,,77,127
112684,note_off,84,0,0,,5,,,77,127
112685,note_on,1,0,0,,4,,,76,127
112769,note_off,84,0,0,,4,,,76,127
112769,note_off,0,0,0,,4,,,64,127
112769,note_off,0,0,0,,7,,,55,127
112770,note_on,1,0,0,,2,,,74,127
112770,note_on,0,0,0,,2,,,62,127
112854,note_off,84,0,0,,2,,,74,127
112855,note_on,1,0,0,,0,,,72,127
112939,note_off,84,0,0,,0,,,72,127
112940,note_on,1,0,0,,12,,,71,127
113024,note_off,84,0,0,,12,,,71,127
113024,note_off,0,0,0,,2,,,62,127
113025,note_on,1,0,0,,0,,,72,127
113089,note_on,64,0,0,,0,,,48,127
113153,note_off,64,0,0,,0,,,48,127
113153,note_on,0,0,0,,3,,,51,127
113217,note_off,64,0,0,,3,,,51,127
113217,note_on,0,0,0,,7,,,55,127
113281,note_off,64,0,0,,7,,,55,127
113281,note_on,0,0,0,,0,,,60,127
113345,note_off,64,0,0,,0,,,60,127
113345,note_on,0,0,0,,3,,,63,127
113409,note_off,64,0,0,,3,,,63,127
113409,note_off,0,0,0,,0,,,72,127
113409,note_on,0,0,0,,7,,,67,127
113473,note_off,64,0,0,,7,,,67,127
113473,note_on,0,0,0,,0,,,72,127
113537,note_off,64,0,0,,0,,,72,127
113537,note_on,0,0,0,,3,,,75,127
113601,note_off,64,0,0,,3,,,75,127
113601,note_on,0,0,0,,7,,,79,127
113665,note_off,64,0,0,,7,,,79,127
113665,note_on,0,0,0,,0,,,84,127
114049,note_off,384,0,0,,0,,,84,127
114305,note_on,256,0,0,,8,,,80,127
114305,note_on,0,0,0,,11,,,82,127
114305,note_on,0,0,0,,5,,,53,127
114305,note_on,0,0,0,,5,,,65,127
114560,note_off,255,0,0,,5,,,65,127
114560,note_off,0,0,0,,5,,,53,127
114560,note_off,0,0,0,,11,,,82,127
114560,note_off,0,0,0,,8,,,80,127
114561,note_on,1,0,0,,7,,,79,127
114561,note_on,0,0,0,,3,,,63,127
114561,note_on,0,0,0,,7,,,55,127
114645,note_off,84,0,0,,7,,,79,127
114646,note_on,1,0,0,,5,,,77,127
114730,note_off,84,0,0,,5,,,77,127
114731,note_on,1,0,0,,3,,,75,127
114815,note_off,84,0,0,,3,,,75,127
114815,note_off,0,0,0,,7,,,55,127
114815,note_off,0,0,0,,3,,,63,127
114816,note_on,1,0,0,,2,,,74,127
114816,note_on,0,0,0,,2,,,62,127
114900,note_off,84,0,0,,2,,,74,127
114901,note_on,1,0,0,,0,,,72,127
114985,note_off,84,0,0,,0,,,72,127
114986,note_on,1,0,0,,12,,,71,127
115070,note_off,84,0,0,,12,,,71,127
115070,note_off,0,0,0,,2,,,62,127
115071,note_on,1,0,0,,0,,,72,127
115135,note_on,64,0,0,,0,,,36,127
115199,note_off,64,0,0,,0,,,36,127
115199,note_on,0,0,0,,4,,,40,127
115263,note_off,64,0,0,,4,,,40,127
115263,note_on,0,0,0,,7,,,43,127
115327,note_off,64,0,0,,7,,,43,127
115327,note_on,0,0,0,,0,,,48,127
115391,note_off,64,0,0,,0,,,48,127
115391,note_on,0,0,0,,4,,,52,127
115455,note_off,64,0,0,,4,,,52,127
115455,note_on,0,0,0,,7,,,55,127
115519,note_off,64,0,0,,7,,,55,127
115519,note_on,0,0,0,,0,,,60,127
115582,note_off,63,0,0,,0,,,72,127
115583,note_off,1,0,0,,0,,,60,127
115583,note_on,0,0,0,,4,,,64,127
115647,note_off,64,0,0,,4,,,64,127
115647,note_on,0,0,0,,7,,,67,127
115711,note_off,64,0,0,,7,,,67,127
115711,note_on,0,0,0,,0,,,72,127
115775,note_off,64,0,0,,0,,,72,127
115775,note_on,0,0,0,,4,,,76,127
115839,note_off,64,0,0,,4,,,76,127
115839,note_on,0,0,0,,7,,,79,127
116094,note_off,255,0,0,,7,,,79,127
116458,note_on,364,0,0,,5,,,65,127
116458,note_on,0,0,0,,5,,,53,127
116458,note_on,0,0,0,,5,,,77,127
116542,note_off,84,0,0,,5,,,77,127
116543,note_on,1,0,0,,7,,,79,127
116627,note_off,84,0,0,,7,,,79,127
116628,note_on,1,0,0,,10,,,81,127
116712,note_off,84,0,0,,10,,,81,127
116712,note_off,0,0,0,,5,,,53,127
116712,note_off,0,0,0,,5,,,65,127
116713,note_on,1,0,0,,4,,,64,127
116713,note_on,0,0,0,,7,,,55,127
116713,note_on,0,0,0,,7,,,79,127
116797,note_off,84,0,0,,7,,,79,127
116798,note_on,1,0,0,,5,,,77,127
116882,note_off,84,0,0,,5,,,77,127
116883,note_on,1,0,0,,4,,,76,127
116967,note_off,84,0,0,,4,,,76,127
116967,note_off,0,0,0,,7,,,55,127
116967,note_off,0,0,0,,4,,,64,127
116968,note_on,1,0,0,,2,,,62,127
116968,note_on,0,0,0,,7,,,55,127
116968,note_on,0,0,0,,5,,,77,127
117052,note_off,84,0,0,,5,,,77,127
117053,note_on,1,0,0,,4,,,76,127
117137,note_off,84,0,0,,4,,,76,127
117138,note_on,1,0,0,,2,,,74,127
117222,note_off,84,0,0,,2,,,74,127
117222,note_off,0,0,0,,7,,,55,127
117222,note_off,0,0,0,,2,,,62,127
117223,note_on,1,0,0,,0,,,48,127
117223,note_on,0,0,0,,4,,,76,127
117308,note_on,85,0,0,,5,,,77,127
117369,note_off,61,0,0,,4,,,76,127
117393,note_on,24,0,0,,7,,,79,127
117454,note_off,61,0,0,,5,,,77,127
117477,note_off,23,0,0,,0,,,48,127
117478,note_on,1,0,0,,10,,,69,127
117478,note_on,0,0,0,,5,,,65,127
117478,note_on,0,0,0,,10,,,81,127
117539,note_off,61,0,0,,7,,,79,127
117563,note_on,24,0,0,,5,,,77,127
117624,note_off,61,0,0,,10,,,81,127
117648,note_on,24,0,0,,2,,,74,127
117709,note_off,61,0,0,,5,,,77,127
117732,note_off,23,0,0,,5,,,65,127
117732,note_off,0,0,0,,10,,,69,127
117733,note_on,1,0,0,,7,,,67,127
117733,note_on,0,0,0,,4,,,64,127
117733,note_on,0,0,0,,7,,,79,127
117794,note_off,61,0,0,,2,,,74,127
117818,note_on,24,0,0,,4,,,76,127
117879,note_off,61,0,0,,7,,,79,127
117903,note_on,24,0,0,,0,,,72,127
117964,note_off,61,0,0,,4,,,76,127
117987,note_off,23,0,0,,4,,,64,127
117987,note_off,0,0,0,,7,,,67,127
117988,note_on,1,0,0,,2,,,62,127
117988,note_on,0,0,0,,5,,,65,127
117988,note_on,0,0,0,,5,,,77,127
118049,note_off,61,0,0,,0,,,72,127
118073,note_on,24,0,0,,2,,,74,127
118134,note_off,61,0,0,,5,,,77,127
118158,note_on,24,0,0,,12,,,71,127
118219,note_off,61,0,0,,2,,,74,127
118242,note_off,23,0,0,,5,,,65,127
118242,note_off,0,0,0,,2,,,62,127
118243,note_on,1,0,0,,0,,,60,127
118243,note_on,0,0,0,,4,,,64,127
118243,note_on,0,0,0,,4,,,76,127
118304,note_off,61,0,0,,12,,,71,127
118328,note_on,24,0,0,,0,,,72,127
118389,note_off,61,0,0,,4,,,76,127
118413,note_on,24,0,0,,7,,,67,127
118474,note_off,61,0,0,,0,,,72,127
118497,note_off,23,0,0,,4,,,64,127
118497,note_off,0,0,0,,0,,,60,127
118498,note_on,1,0,0,,5,,,65,127
118498,note_on,0,0,0,,5,,,53,127
118498,note_on,0,0,0,,5,,,77,127
118559,note_off,61,0,0,,7,,,67,127
118583,note_on,24,0,0,,0,,,72,127
118644,note_off,61,0,0,,5,,,77,127
118668,note_on,24,0,0,,10,,,69,127
118729,note_off,61,0,0,,0,,,72,127
118752,note_off,23,0,0,,5,,,53,127
118752,note_off,0,0,0,,5,,,65,127
118753,note_on,1,0,0,,7,,,55,127
118753,note_on,0,0,0,,4,,,64,127
118753,note_on,0,0,0,,4,,,76,127
118814,note_off,61,0,0,,10,,,69,127
118838,note_on,24,0,0,,0,,,72,127
118899,note_off,61,0,0,,4,,,76,127
118923,note_on,24,0,0,,7,,,67,127
118984,note_off,61,0,0,,0,,,72,127
119007,note_off,23,0,0,,4,,,64,127
119008,note_on,1,0,0,,2,,,62,127
119008,note_on,0,0,0,,2,,,74,127
119069,note_off,61,0,0,,7,,,67,127
119093,note_on,24,0,0,,0,,,72,127
119152,note_off,59,0,0,,7,,,55,127
119155,note_off,3,0,0,,2,,,74,127
119179,note_on,24,0,0,,12,,,71,127
119240,note_off,61,0,0,,0,,,72,127
119263,note_off,23,0,0,,2,,,62,127
119264,note_on,1,0,0,,0,,,48,127
119264,note_on,0,0,0,,0,,,72,127
119325,note_off,61,0,0,,12,,,71,127
119349,note_on,24,0,0,,7,,,67,127
119410,note_off,61,0,0,,0,,,72,127
119434,note_on,24,0,0,,4,,,64,127
119495,note_off,61,0,0,,7,,,67,127
119518,note_off,23,0,0,,0,,,48,127
119519,note_on,1,0,0,,10,,,57,127
119519,note_on,0,0,0,,5,,,53,127
119519,note_on,0,0,0,,10,,,69,127
119580,note_off,61,0,0,,4,,,64,127
119604,note_on,24,0,0,,5,,,65,127
119665,note_off,61,0,0,,10,,,69,127
119689,note_on,24,0,0,,2,,,62,127
119750,note_off,61,0,0,,5,,,65,127
119773,note_off,23,0,0,,5,,,53,127
119773,note_off,0,0,0,,10,,,57,127
119774,note_on,1,0,0,,7,,,55,127
119774,note_on,0,0,0,,4,,,52,127
119774,note_on,0,0,0,,7,,,67,127
119835,note_off,61,0,0,,2,,,62,127
119859,note_on,24,0,0,,4,,,64,127
119920,note_off,61,0,0,,7,,,67,127
119944,note_on,24,0,0,,0,,,60,127
120005,note_off,61,0,0,,4,,,64,127
120028,note_off,23,0,0,,4,,,52,127
120028,note_off,0,0,0,,7,,,55,127
120029,note_on,1,0,0,,2,,,50,127
120029,note_on,0,0,0,,5,,,53,127
120029,note_on,0,0,0,,5,,,65,127
120090,note_off,61,0,0,,0,,,60,127
120114,note_on,24,0,0,,2,,,62,127
120175,note_off,61,0,0,,5,,,65,127
120199,note_on,24,0,0,,12,,,59,127
120260,note_off,61,0,0,,2,,,62,127
120283,note_off,23,0,0,,5,,,53,127
120283,note_off,0,0,0,,2,,,50,127
120284,note_on,1,0,0,,7,,,55,127
120284,note_on,0,0,0,,0,,,48,127
120284,note_on,0,0,0,,4,,,64,127
120345,note_off,61,0,0,,12,,,59,127
120369,note_on,24,0,0,,0,,,60,127
120430,note_off,61,0,0,,4,,,64,127
120453,note_off,23,0,0,,7,,,55,127
120454,note_on,1,0,0,,7,,,55,127
120515,note_off,61,0,0,,0,,,60,127
120538,note_off,23,0,0,,0,,,48,127
120539,note_on,1,0,0,,5,,,41,127
120539,note_on,0,0,0,,5,,,53,127
120539,note_on,0,0,0,,5,,,65,127
120600,note_off,61,0,0,,7,,,55,127
120624,note_on,24,0,0,,0,,,60,127
120685,note_off,61,0,0,,5,,,65,127
120709,note_on,24,0,0,,10,,,57,127
120770,note_off,61,0,0,,0,,,60,127
120793,note_off,23,0,0,,5,,,53,127
120793,note_off,0,0,0,,5,,,41,127
120794,note_on,1,0,0,,4,,,52,127
120794,note_on,0,0,0,,7,,,43,127
120794,note_on,0,0,0,,4,,,64,127
120855,note_off,61,0,0,,10,,,57,127
120879,note_on,24,0,0,,0,,,60,127
120940,note_off,61,0,0,,4,,,64,127
120964,note_on,24,0,0,,7,,,55,127
121025,note_off,61,0,0,,0,,,60,127
121048,note_off,23,0,0,,7,,,43,127
121048,note_off,0,0,0,,4,,,52,127
121049,note_on,1,0,0,,2,,,50,127
121049,note_on,0,0,0,,7,,,43,127
121049,note_on,0,0,0,,2,,,62,127
121110,note_off,61,0,0,,7,,,55,127
121134,note_on,24,0,0,,0,,,60,127
121195,note_off,61,0,0,,2,,,62,127
121219,note_on,24,0,0,,12,,,59,127
121280,note_off,61,0,0,,0,,,60,127
121303,note_off,23,0,0,,7,,,43,127
121303,note_off,0,0,0,,2,,,50,127
121326,note_on,23,0,0,,0,,,36,127
121326,note_on,0,0,0,,0,,,60,127
121366,note_off,40,0,0,,12,,,59,127
123369,note_off,2003,0,0,,0,,,60,127
123369,note_off,0,0,0,,0,,,36,127
127488,end_of_track,4119,1,0,,,,,,
