tick,type,time,meta,track,program,channel,pitch,tempo,note,velocity
0,copyright,0,1,0,,,,,,
0,program_change,0,0,0,6,0,,,,
0,pitchwheel,0,0,0,,0,0,,,
0,program_change,0,0,0,6,1,,,,
0,pitchwheel,0,0,0,,1,-590,,,
0,program_change,0,0,0,6,2,,,,
0,pitchwheel,0,0,0,,2,-272,,,
0,program_change,0,0,0,6,3,,,,
0,pitchwheel,0,0,0,,3,-353,,,
0,program_change,0,0,0,6,4,,,,
0,pitchwheel,0,0,0,,4,-560,,,
0,program_change,0,0,0,6,5,,,,
0,pitchwheel,0,0,0,,5,-80,,,
0,program_change,0,0,0,6,6,,,,
0,pitchwheel,0,0,0,,6,-625,,,
0,program_change,0,0,0,6,7,,,,
0,pitchwheel,0,0,0,,7,-130,,,
0,program_change,0,0,0,6,8,,,,
0,pitchwheel,0,0,0,,8,-512,,,
0,program_change,0,0,0,6,10,,,,
0,pitchwheel,0,0,0,,10,-464,,,
0,program_change,0,0,0,6,11,,,,
0,pitchwheel,0,0,0,,11,-208,,,
0,program_change,0,0,0,6,12,,,,
0,pitchwheel,0,0,0,,12,-553,,,
0,set_tempo,0,1,0,,,,500000,,
110,note_on,110,0,0,,5,,,77,127
220,note_on,110,0,0,,5,,,65,127
329,note_off,109,0,0,,5,,,65,127
330,note_on,1,0,0,,0,,,60,127
439,note_off,109,0,0,,0,,,60,127
440,note_on,1,0,0,,5,,,65,127
549,note_off,109,0,0,,5,,,65,127
550,note_on,1,0,0,,8,,,56,127
659,note_off,109,0,0,,8,,,56,127
660,note_on,1,0,0,,0,,,60,127
769,note_off,109,0,0,,0,,,60,127
769,note_off,0,0,0,,5,,,77,127
770,note_on,1,0,0,,5,,,53,127
770,note_on,0,0,0,,8,,,80,127
879,note_off,109,0,0,,5,,,53,127
880,note_on,1,0,0,,8,,,56,127
989,note_off,109,0,0,,8,,,56,127
990,note_on,1,0,0,,0,,,48,127
1099,note_off,109,0,0,,0,,,48,127
1100,note_on,1,0,0,,5,,,53,127
1209,note_off,109,0,0,,5,,,53,127
1210,note_on,1,0,0,,8,,,44,127
1319,note_off,109,0,0,,8,,,44,127
1320,note_on,1,0,0,,0,,,48,127
1429,note_off,109,0,0,,0,,,48,127
1429,note_off,0,0,0,,8,,,80,127
1430,note_on,1,0,0,,5,,,41,127
1430,note_on,0,0,0,,0,,,84,127
1539,note_off,109,0,0,,0,,,84,127
1540,note_on,1,0,0,,11,,,82,127
1649,note_off,109,0,0,,11,,,82,127
1650,note_on,1,0,0,,8,,,80,127
1759,note_off,109,0,0,,8,,,80,127
1760,note_on,1,0,0,,7,,,79,127
1869,note_off,109,0,0,,7,,,79,127
1870,note_on,1,0,0,,5,,,77,127
1979,note_off,109,0,0,,5,,,77,127
1980,note_on,1,0,0,,3,,,75,127
2089,note_off,109,0,0,,3,,,75,127
2089,note_off,0,0,0,,5,,,41,127
2090,note_on,1,0,0,,11,,,46,127
2090,note_on,0,0,0,,1,,,73,127
2199,note_off,109,0,0,,1,,,73,127
2200,note_on,1,0,0,,0,,,72,127
2309,note_off,109,0,0,,0,,,72,127
2310,note_on,1,0,0,,11,,,70,127
2419,note_off,109,0,0,,11,,,70,127
2420,note_on,1,0,0,,8,,,68,127
2529,note_off,109,0,0,,8,,,68,127
2530,note_on,1,0,0,,7,,,67,127
2639,note_off,109,0,0,,7,,,67,127
2640,note_on,1,0,0,,5,,,65,127
2749,note_off,109,0,0,,5,,,65,127
2749,note_off,0,0,0,,11,,,46,127
2750,note_on,1,0,0,,0,,,48,127
2750,note_on,0,0,0,,4,,,64,127
2859,note_off,109,0,0,,4,,,64,127
2860,note_on,1,0,0,,1,,,61,127
2969,note_off,109,0,0,,1,,,61,127
2970,note_on,1,0,0,,0,,,60,127
3079,note_off,109,0,0,,0,,,60,127
3080,note_on,1,0,0,,11,,,58,127
3189,note_off,109,0,0,,11,,,58,127
3190,note_on,1,0,0,,8,,,56,127
3299,note_off,109,0,0,,8,,,56,127
3300,note_on,1,0,0,,7,,,55,127
3409,note_off,109,0,0,,7,,,55,127
3409,note_off,0,0,0,,0,,,48,127
3410,note_on,1,0,0,,5,,,77,127
3520,note_on,110,0,0,,5,,,65,127
3629,note_off,109,0,0,,5,,,65,127
3630,note_on,1,0,0,,0,,,60,127
3739,note_off,109,0,0,,0,,,60,127
3740,note_on,1,0,0,,5,,,65,127
3849,note_off,109,0,0,,5,,,65,127
3850,note_on,1,0,0,,8,,,56,127
3959,note_off,109,0,0,,8,,,56,127
3960,note_on,1,0,0,,0,,,60,127
4069,note_off,109,0,0,,0,,,60,127
4069,note_off,0,0,0,,5,,,77,127
4070,note_on,1,0,0,,5,,,53,127
4070,note_on,0,0,0,,8,,,80,127
4179,note_off,109,0,0,,5,,,53,127
4180,note_on,1,0,0,,8,,,56,127
4289,note_off,109,0,0,,8,,,56,127
4290,note_on,1,0,0,,0,,,48,127
4399,note_off,109,0,0,,0,,,48,127
4400,note_on,1,0,0,,5,,,53,127
4509,note_off,109,0,0,,5,,,53,127
4510,note_on,1,0,0,,8,,,44,127
4619,note_off,109,0,0,,8,,,44,127
4620,note_on,1,0,0,,0,,,48,127
4729,note_off,109,0,0,,0,,,48,127
4729,note_off,0,0,0,,8,,,80,127
4730,note_on,1,0,0,,5,,,41,127
4730,note_on,0,0,0,,0,,,84,127
4839,note_off,109,0,0,,0,,,84,127
4840,note_on,1,0,0,,11,,,82,127
4949,note_off,109,0,0,,11,,,82,127
4950,note_on,1,0,0,,8,,,80,127
5059,note_off,109,0,0,,8,,,80,127
5060,note_on,1,0,0,,7,,,79,127
5169,note_off,109,0,0,,7,,,79,127
5170,note_on,1,0,0,,5,,,77,127
5279,note_off,109,0,0,,5,,,77,127
5280,note_on,1,0,0,,3,,,75,127
5389,note_off,109,0,0,,3,,,75,127
5389,note_off,0,0,0,,5,,,41,127
5390,note_on,1,0,0,,7,,,43,127
5390,note_on,0,0,0,,1,,,73,127
5499,note_off,109,0,0,,1,,,73,127
5500,note_on,1,0,0,,0,,,72,127
5609,note_off,109,0,0,,0,,,72,127
5610,note_on,1,0,0,,11,,,70,127
5719,note_off,109,0,0,,11,,,70,127
5720,note_on,1,0,0,,8,,,68,127
5829,note_off,109,0,0,,8,,,68,127
5830,note_on,1,0,0,,7,,,67,127
5939,note_off,109,0,0,,7,,,67,127
5940,note_on,1,0,0,,5,,,65,127
6049,note_off,109,0,0,,5,,,65,127
6049,note_off,0,0,0,,7,,,43,127
6050,note_on,1,0,0,,0,,,36,127
6050,note_on,0,0,0,,1,,,61,127
6104,note_off,54,0,0,,1,,,61,127
6105,note_on,1,0,0,,0,,,60,127
6159,note_off,54,0,0,,0,,,60,127
6160,note_on,1,0,0,,1,,,61,127
6214,note_off,54,0,0,,1,,,61,127
6215,note_on,1,0,0,,0,,,60,127
6708,note_off,493,0,0,,0,,,60,127
6708,note_off,0,0,0,,0,,,36,127
6709,note_on,1,0,0,,0,,,60,127
6782,note_on,73,0,0,,7,,,67,127
6854,note_off,72,0,0,,7,,,67,127
6855,note_on,1,0,0,,8,,,68,127
6927,note_off,72,0,0,,8,,,68,127
6927,note_off,0,0,0,,0,,,60,127
6928,note_on,1,0,0,,0,,,60,127
6928,note_on,0,0,0,,11,,,70,127
6982,note_off,54,0,0,,11,,,70,127
6983,note_on,1,0,0,,8,,,68,127
7037,note_off,54,0,0,,8,,,68,127
7038,note_on,1,0,0,,11,,,70,127
7092,note_off,54,0,0,,11,,,70,127
7093,note_on,1,0,0,,8,,,68,127
7147,note_off,54,0,0,,8,,,68,127
7147,note_off,0,0,0,,0,,,60,127
7148,note_on,1,0,0,,0,,,60,127
7148,note_on,0,0,0,,11,,,70,127
7202,note_off,54,0,0,,11,,,70,127
7203,note_on,1,0,0,,8,,,68,127
7257,note_off,54,0,0,,8,,,68,127
7258,note_on,1,0,0,,7,,,67,127
7367,note_off,109,0,0,,7,,,67,127
7367,note_off,0,0,0,,0,,,60,127
7368,note_on,1,0,0,,11,,,58,127
7368,note_on,0,0,0,,1,,,73,127
7586,note_off,218,0,0,,1,,,73,127
7586,note_off,0,0,0,,11,,,58,127
7587,note_on,1,0,0,,11,,,58,127
7587,note_on,0,0,0,,7,,,67,127
7641,note_off,54,0,0,,7,,,67,127
7642,note_on,1,0,0,,5,,,65,127
7696,note_off,54,0,0,,5,,,65,127
7697,note_on,1,0,0,,7,,,67,127
7751,note_off,54,0,0,,7,,,67,127
7752,note_on,1,0,0,,5,,,65,127
7806,note_off,54,0,0,,5,,,65,127
7806,note_off,0,0,0,,11,,,58,127
7807,note_on,1,0,0,,11,,,58,127
7807,note_on,0,0,0,,7,,,67,127
7861,note_off,54,0,0,,7,,,67,127
7862,note_on,1,0,0,,5,,,65,127
7916,note_off,54,0,0,,5,,,65,127
7917,note_on,1,0,0,,4,,,64,127
7971,note_off,54,0,0,,4,,,64,127
7972,note_on,1,0,0,,5,,,65,127
8026,note_off,54,0,0,,5,,,65,127
8026,note_off,0,0,0,,11,,,58,127
8027,note_on,1,0,0,,0,,,60,127
8027,note_on,0,0,0,,4,,,64,127
8099,note_off,72,0,0,,4,,,64,127
8100,note_on,1,0,0,,7,,,67,127
8172,note_off,72,0,0,,7,,,67,127
8173,note_on,1,0,0,,8,,,68,127
8245,note_off,72,0,0,,8,,,68,127
8245,note_off,0,0,0,,0,,,60,127
8246,note_on,1,0,0,,0,,,60,127
8246,note_on,0,0,0,,11,,,70,127
8300,note_off,54,0,0,,11,,,70,127
8301,note_on,1,0,0,,8,,,68,127
8355,note_off,54,0,0,,8,,,68,127
8356,note_on,1,0,0,,11,,,70,127
8410,note_off,54,0,0,,11,,,70,127
8411,note_on,1,0,0,,8,,,68,127
8465,note_off,54,0,0,,8,,,68,127
8465,note_off,0,0,0,,0,,,60,127
8466,note_on,1,0,0,,0,,,60,127
8466,note_on,0,0,0,,11,,,70,127
8520,note_off,54,0,0,,11,,,70,127
8521,note_on,1,0,0,,8,,,68,127
8575,note_off,54,0,0,,8,,,68,127
8576,note_on,1,0,0,,7,,,67,127
8685,note_off,109,0,0,,7,,,67,127
8685,note_off,0,0,0,,0,,,60,127
8686,note_on,1,0,0,,11,,,58,127
8686,note_on,0,0,0,,1,,,73,127
8904,note_off,218,0,0,,1,,,73,127
8904,note_off,0,0,0,,11,,,58,127
8905,note_on,1,0,0,,11,,,58,127
8905,note_on,0,0,0,,7,,,67,127
8959,note_off,54,0,0,,7,,,67,127
8960,note_on,1,0,0,,5,,,65,127
9014,note_off,54,0,0,,5,,,65,127
9015,note_on,1,0,0,,7,,,67,127
9069,note_off,54,0,0,,7,,,67,127
9070,note_on,1,0,0,,5,,,65,127
9124,note_off,54,0,0,,5,,,65,127
9124,note_off,0,0,0,,11,,,58,127
9125,note_on,1,0,0,,11,,,58,127
9125,note_on,0,0,0,,7,,,67,127
9179,note_off,54,0,0,,7,,,67,127
9180,note_on,1,0,0,,5,,,65,127
9234,note_off,54,0,0,,5,,,65,127
9235,note_on,1,0,0,,4,,,64,127
9289,note_off,54,0,0,,4,,,64,127
9290,note_on,1,0,0,,5,,,65,127
9344,note_off,54,0,0,,5,,,65,127
9344,note_off,0,0,0,,11,,,58,127
9345,note_on,1,0,0,,0,,,60,127
9345,note_on,0,0,0,,4,,,64,127
9417,note_off,72,0,0,,4,,,64,127
9418,note_on,1,0,0,,7,,,67,127
9490,note_off,72,0,0,,7,,,67,127
9491,note_on,1,0,0,,8,,,68,127
9563,note_off,72,0,0,,8,,,68,127
9563,note_off,0,0,0,,0,,,60,127
9564,note_on,1,0,0,,0,,,60,127
9564,note_on,0,0,0,,11,,,70,127
9618,note_off,54,0,0,,11,,,70,127
9619,note_on,1,0,0,,8,,,68,127
9673,note_off,54,0,0,,8,,,68,127
9674,note_on,1,0,0,,11,,,70,127
9728,note_off,54,0,0,,11,,,70,127
9729,note_on,1,0,0,,8,,,68,127
9783,note_off,54,0,0,,8,,,68,127
9783,note_off,0,0,0,,0,,,60,127
9784,note_on,1,0,0,,4,,,52,127
9784,note_on,0,0,0,,11,,,70,127
9838,note_off,54,0,0,,11,,,70,127
9839,note_on,1,0,0,,8,,,68,127
9893,note_off,54,0,0,,8,,,68,127
9894,note_on,1,0,0,,7,,,67,127
10003,note_off,109,0,0,,7,,,67,127
10003,note_off,0,0,0,,4,,,52,127
10004,note_on,1,0,0,,5,,,53,127
10004,note_on,0,0,0,,8,,,68,127
10076,note_off,72,0,0,,8,,,68,127
10077,note_on,1,0,0,,11,,,70,127
10149,note_off,72,0,0,,11,,,70,127
10150,note_on,1,0,0,,0,,,72,127
10222,note_off,72,0,0,,0,,,72,127
10222,note_off,0,0,0,,5,,,53,127
10223,note_on,1,0,0,,5,,,53,127
10223,note_on,0,0,0,,1,,,73,127
10277,note_off,54,0,0,,1,,,73,127
10278,note_on,1,0,0,,0,,,72,127
10332,note_off,54,0,0,,0,,,72,127
10333,note_on,1,0,0,,1,,,73,127
10387,note_off,54,0,0,,1,,,73,127
10388,note_on,1,0,0,,0,,,72,127
10442,note_off,54,0,0,,0,,,72,127
10442,note_off,0,0,0,,5,,,53,127
10443,note_on,1,0,0,,8,,,56,127
10443,note_on,0,0,0,,1,,,73,127
10497,note_off,54,0,0,,1,,,73,127
10498,note_on,1,0,0,,0,,,72,127
10552,note_off,54,0,0,,0,,,72,127
10553,note_on,1,0,0,,12,,,71,127
10607,note_off,54,0,0,,12,,,71,127
10608,note_on,1,0,0,,0,,,72,127
10662,note_off,54,0,0,,0,,,72,127
10662,note_off,0,0,0,,8,,,56,127
10663,note_on,1,0,0,,7,,,55,127
10663,note_on,0,0,0,,12,,,71,127
10735,note_off,72,0,0,,12,,,71,127
10736,note_on,1,0,0,,2,,,74,127
10808,note_off,72,0,0,,2,,,74,127
10809,note_on,1,0,0,,3,,,75,127
10881,note_off,72,0,0,,3,,,75,127
10881,note_off,0,0,0,,7,,,55,127
10882,note_on,1,0,0,,7,,,55,127
10882,note_on,0,0,0,,5,,,77,127
10936,note_off,54,0,0,,5,,,77,127
10937,note_on,1,0,0,,3,,,75,127
10991,note_off,54,0,0,,3,,,75,127
10992,note_on,1,0,0,,5,,,77,127
11046,note_off,54,0,0,,5,,,77,127
11047,note_on,1,0,0,,3,,,75,127
11101,note_off,54,0,0,,3,,,75,127
11101,note_off,0,0,0,,7,,,55,127
11102,note_on,1,0,0,,12,,,59,127
11102,note_on,0,0,0,,5,,,77,127
11156,note_off,54,0,0,,5,,,77,127
11157,note_on,1,0,0,,3,,,75,127
11211,note_off,54,0,0,,3,,,75,127
11212,note_on,1,0,0,,2,,,74,127
11321,note_off,109,0,0,,2,,,74,127
11321,note_off,0,0,0,,12,,,59,127
11322,note_on,1,0,0,,0,,,60,127
11322,note_on,0,0,0,,3,,,75,127
11431,note_off,109,0,0,,3,,,75,127
11432,note_on,1,0,0,,7,,,79,127
11541,note_off,109,0,0,,7,,,79,127
11542,note_on,1,0,0,,0,,,48,127
11542,note_on,0,0,0,,5,,,77,127
11651,note_off,109,0,0,,5,,,77,127
11652,note_on,1,0,0,,3,,,75,127
11761,note_off,109,0,0,,3,,,75,127
11761,note_off,0,0,0,,0,,,48,127
11762,note_on,1,0,0,,0,,,48,127
11762,note_on,0,0,0,,5,,,77,127
11871,note_off,109,0,0,,5,,,77,127
11872,note_on,1,0,0,,7,,,79,127
11981,note_off,109,0,0,,7,,,79,127
11981,note_off,0,0,0,,0,,,48,127
11981,note_off,0,0,0,,0,,,60,127
11982,note_on,1,0,0,,5,,,53,127
11982,note_on,0,0,0,,8,,,80,127
12091,note_off,109,0,0,,8,,,80,127
12092,note_on,1,0,0,,7,,,79,127
12201,note_off,109,0,0,,7,,,79,127
12202,note_on,1,0,0,,5,,,41,127
12202,note_on,0,0,0,,5,,,77,127
12311,note_off,109,0,0,,5,,,77,127
12312,note_on,1,0,0,,3,,,75,127
12421,note_off,109,0,0,,3,,,75,127
12421,note_off,0,0,0,,5,,,41,127
12422,note_on,1,0,0,,5,,,41,127
12422,note_on,0,0,0,,2,,,74,127
12531,note_off,109,0,0,,2,,,74,127
12532,note_on,1,0,0,,0,,,72,127
12555,note_off,23,0,0,,5,,,53,127
12641,note_off,86,0,0,,5,,,41,127
12642,note_on,1,0,0,,7,,,43,127
12697,note_off,55,0,0,,0,,,72,127
12697,note_on,0,0,0,,12,,,71,127
12751,note_off,54,0,0,,12,,,71,127
12752,note_on,1,0,0,,0,,,72,127
12806,note_off,54,0,0,,0,,,72,127
12807,note_on,1,0,0,,12,,,71,127
12861,note_off,54,0,0,,12,,,71,127
12862,note_on,1,0,0,,0,,,72,127
12916,note_off,54,0,0,,0,,,72,127
12917,note_on,1,0,0,,12,,,71,127
12971,note_off,54,0,0,,12,,,71,127
12972,note_on,1,0,0,,0,,,72,127
13026,note_off,54,0,0,,0,,,72,127
13027,note_on,1,0,0,,12,,,71,127
13300,note_off,273,0,0,,12,,,71,127
13300,note_off,0,0,0,,7,,,43,127
13301,note_on,1,0,0,,7,,,55,127
13301,note_on,0,0,0,,7,,,67,127
13410,note_off,109,0,0,,7,,,55,127
13411,note_on,1,0,0,,5,,,65,127
13520,note_off,109,0,0,,5,,,65,127
13520,note_off,0,0,0,,7,,,67,127
13521,note_on,1,0,0,,2,,,62,127
13521,note_on,0,0,0,,2,,,74,127
13630,note_off,109,0,0,,2,,,62,127
13631,note_on,1,0,0,,12,,,59,127
13740,note_off,109,0,0,,12,,,59,127
13740,note_off,0,0,0,,2,,,74,127
13741,note_on,1,0,0,,7,,,55,127
13741,note_on,0,0,0,,5,,,77,127
13850,note_off,109,0,0,,7,,,55,127
13851,note_on,1,0,0,,2,,,62,127
13960,note_off,109,0,0,,2,,,62,127
13960,note_off,0,0,0,,5,,,77,127
13961,note_on,1,0,0,,0,,,48,127
13961,note_on,0,0,0,,5,,,77,127
14015,note_off,54,0,0,,5,,,77,127
14016,note_on,1,0,0,,3,,,75,127
14070,note_off,54,0,0,,3,,,75,127
14071,note_on,1,0,0,,5,,,77,127
14125,note_off,54,0,0,,5,,,77,127
14126,note_on,1,0,0,,3,,,75,127
14180,note_off,54,0,0,,3,,,75,127
14181,note_on,1,0,0,,2,,,74,127
14399,note_off,218,0,0,,2,,,74,127
14400,note_on,1,0,0,,0,,,72,127
14618,note_off,218,0,0,,0,,,72,127
14618,note_off,0,0,0,,0,,,48,127
14619,note_on,1,0,0,,7,,,55,127
14619,note_on,0,0,0,,7,,,67,127
14728,note_off,109,0,0,,7,,,55,127
14729,note_on,1,0,0,,5,,,65,127
14838,note_off,109,0,0,,5,,,65,127
14838,note_off,0,0,0,,7,,,67,127
14839,note_on,1,0,0,,2,,,62,127
14839,note_on,0,0,0,,2,,,74,127
14948,note_off,109,0,0,,2,,,62,127
14949,note_on,1,0,0,,12,,,59,127
15058,note_off,109,0,0,,12,,,59,127
15058,note_off,0,0,0,,2,,,74,127
15059,note_on,1,0,0,,7,,,55,127
15059,note_on,0,0,0,,5,,,77,127
15168,note_off,109,0,0,,7,,,55,127
15169,note_on,1,0,0,,2,,,62,127
15278,note_off,109,0,0,,2,,,62,127
15278,note_off,0,0,0,,5,,,77,127
15279,note_on,1,0,0,,0,,,48,127
15279,note_on,0,0,0,,5,,,77,127
15333,note_off,54,0,0,,5,,,77,127
15334,note_on,1,0,0,,3,,,75,127
15388,note_off,54,0,0,,3,,,75,127
15389,note_on,1,0,0,,5,,,77,127
15443,note_off,54,0,0,,5,,,77,127
15444,note_on,1,0,0,,3,,,75,127
15498,note_off,54,0,0,,3,,,75,127
15499,note_on,1,0,0,,2,,,74,127
15717,note_off,218,0,0,,2,,,74,127
15718,note_on,1,0,0,,0,,,72,127
15936,note_off,218,0,0,,0,,,72,127
15936,note_off,0,0,0,,0,,,48,127
15937,note_on,1,0,0,,7,,,55,127
15937,note_on,0,0,0,,7,,,67,127
16046,note_off,109,0,0,,7,,,55,127
16047,note_on,1,0,0,,5,,,65,127
16156,note_off,109,0,0,,5,,,65,127
16156,note_off,0,0,0,,7,,,67,127
16157,note_on,1,0,0,,2,,,62,127
16157,note_on,0,0,0,,2,,,74,127
16266,note_off,109,0,0,,2,,,62,127
16267,note_on,1,0,0,,12,,,59,127
16376,note_off,109,0,0,,12,,,59,127
16376,note_off,0,0,0,,2,,,74,127
16377,note_on,1,0,0,,7,,,55,127
16377,note_on,0,0,0,,5,,,77,127
16486,note_off,109,0,0,,7,,,55,127
16487,note_on,1,0,0,,2,,,62,127
16596,note_off,109,0,0,,2,,,62,127
16596,note_off,0,0,0,,5,,,77,127
16597,note_on,1,0,0,,0,,,48,127
16597,note_on,0,0,0,,3,,,75,127
16706,note_off,109,0,0,,3,,,75,127
16707,note_on,1,0,0,,5,,,77,127
16816,note_off,109,0,0,,5,,,77,127
16817,note_on,1,0,0,,7,,,79,127
16926,note_off,109,0,0,,7,,,79,127
16927,note_on,1,0,0,,3,,,75,127
17036,note_off,109,0,0,,3,,,75,127
17036,note_off,0,0,0,,0,,,48,127
17037,note_on,1,0,0,,3,,,51,127
17037,note_on,0,0,0,,3,,,75,127
17091,note_off,54,0,0,,3,,,75,127
17092,note_on,1,0,0,,2,,,74,127
17146,note_off,54,0,0,,2,,,74,127
17147,note_on,1,0,0,,0,,,72,127
17256,note_off,109,0,0,,0,,,72,127
17256,note_off,0,0,0,,3,,,51,127
17257,note_on,1,0,0,,5,,,53,127
17257,note_on,0,0,0,,2,,,74,127
17366,note_off,109,0,0,,2,,,74,127
17367,note_on,1,0,0,,3,,,75,127
17476,note_off,109,0,0,,3,,,75,127
17476,note_off,0,0,0,,5,,,53,127
17477,note_on,1,0,0,,7,,,55,127
17477,note_on,0,0,0,,5,,,77,127
17586,note_off,109,0,0,,5,,,77,127
17587,note_on,1,0,0,,2,,,74,127
17696,note_off,109,0,0,,2,,,74,127
17697,note_on,1,0,0,,7,,,43,127
17697,note_on,0,0,0,,2,,,74,127
17751,note_off,54,0,0,,2,,,74,127
17752,note_on,1,0,0,,0,,,72,127
17806,note_off,54,0,0,,0,,,72,127
17807,note_on,1,0,0,,12,,,71,127
17912,note_off,105,0,0,,7,,,55,127
17915,note_off,3,0,0,,12,,,71,127
17915,note_off,0,0,0,,7,,,43,127
17916,note_on,1,0,0,,0,,,48,127
17916,note_on,0,0,0,,12,,,71,127
18350,note_off,434,0,0,,12,,,71,127
18355,note_on,5,0,0,,0,,,72,127
18572,note_off,217,0,0,,0,,,72,127
18573,note_off,1,0,0,,0,,,48,127
18574,note_on,1,0,0,,7,,,55,127
18574,note_on,0,0,0,,7,,,67,127
18683,note_off,109,0,0,,7,,,55,127
18684,note_on,1,0,0,,5,,,65,127
18793,note_off,109,0,0,,5,,,65,127
18793,note_off,0,0,0,,7,,,67,127
18794,note_on,1,0,0,,2,,,62,127
18794,note_on,0,0,0,,2,,,74,127
18903,note_off,109,0,0,,2,,,62,127
18904,note_on,1,0,0,,12,,,59,127
19013,note_off,109,0,0,,12,,,59,127
19013,note_off,0,0,0,,2,,,74,127
19014,note_on,1,0,0,,7,,,55,127
19014,note_on,0,0,0,,5,,,77,127
19123,note_off,109,0,0,,7,,,55,127
19124,note_on,1,0,0,,2,,,62,127
19233,note_off,109,0,0,,2,,,62,127
19233,note_off,0,0,0,,5,,,77,127
19234,note_on,1,0,0,,0,,,36,127
19234,note_on,0,0,0,,5,,,77,127
19288,note_off,54,0,0,,5,,,77,127
19289,note_on,1,0,0,,3,,,75,127
19343,note_off,54,0,0,,3,,,75,127
19344,note_on,1,0,0,,5,,,77,127
19398,note_off,54,0,0,,5,,,77,127
19399,note_on,1,0,0,,3,,,75,127
19453,note_off,54,0,0,,3,,,75,127
19454,note_on,1,0,0,,2,,,74,127
19672,note_off,218,0,0,,2,,,74,127
19673,note_on,1,0,0,,0,,,72,127
19891,note_off,218,0,0,,0,,,72,127
19891,note_off,0,0,0,,0,,,36,127
19892,note_on,1,0,0,,7,,,55,127
19892,note_on,0,0,0,,7,,,67,127
20001,note_off,109,0,0,,7,,,55,127
20002,note_on,1,0,0,,5,,,65,127
20111,note_off,109,0,0,,5,,,65,127
20111,note_off,0,0,0,,7,,,67,127
20112,note_on,1,0,0,,2,,,62,127
20112,note_on,0,0,0,,2,,,74,127
20221,note_off,109,0,0,,2,,,62,127
20222,note_on,1,0,0,,12,,,59,127
20331,note_off,109,0,0,,12,,,59,127
20331,note_off,0,0,0,,2,,,74,127
20332,note_on,1,0,0,,7,,,55,127
20332,note_on,0,0,0,,5,,,77,127
20441,note_off,109,0,0,,7,,,55,127
20442,note_on,1,0,0,,2,,,62,127
20551,note_off,109,0,0,,2,,,62,127
20551,note_off,0,0,0,,5,,,77,127
20552,note_on,1,0,0,,0,,,36,127
20552,note_on,0,0,0,,5,,,77,127
20606,note_off,54,0,0,,5,,,77,127
20607,note_on,1,0,0,,3,,,75,127
20661,note_off,54,0,0,,3,,,75,127
20662,note_on,1,0,0,,5,,,77,127
20716,note_off,54,0,0,,5,,,77,127
20717,note_on,1,0,0,,3,,,75,127
20771,note_off,54,0,0,,3,,,75,127
20772,note_on,1,0,0,,2,,,74,127
20990,note_off,218,0,0,,2,,,74,127
20991,note_on,1,0,0,,0,,,72,127
21209,note_off,218,0,0,,0,,,72,127
21209,note_off,0,0,0,,0,,,36,127
21210,note_on,1,0,0,,7,,,55,127
21210,note_on,0,0,0,,7,,,67,127
21319,note_off,109,0,0,,7,,,55,127
21320,note_on,1,0,0,,5,,,65,127
21429,note_off,109,0,0,,5,,,65,127
21429,note_off,0,0,0,,7,,,67,127
21430,note_on,1,0,0,,2,,,62,127
21430,note_on,0,0,0,,2,,,74,127
21539,note_off,109,0,0,,2,,,62,127
21540,note_on,1,0,0,,12,,,59,127
21649,note_off,109,0,0,,12,,,59,127
21649,note_off,0,0,0,,2,,,74,127
21650,note_on,1,0,0,,7,,,55,127
21650,note_on,0,0,0,,5,,,77,127
21759,note_off,109,0,0,,7,,,55,127
21760,note_on,1,0,0,,5,,,65,127
21869,note_off,109,0,0,,5,,,65,127
21869,note_off,0,0,0,,5,,,77,127
21870,note_on,1,0,0,,0,,,36,127
21870,note_on,0,0,0,,3,,,75,127
21979,note_off,109,0,0,,3,,,75,127
21980,note_on,1,0,0,,5,,,77,127
22089,note_off,109,0,0,,5,,,77,127
22090,note_on,1,0,0,,7,,,79,127
22199,note_off,109,0,0,,7,,,79,127
22200,note_on,1,0,0,,3,,,75,127
22309,note_off,109,0,0,,3,,,75,127
22309,note_off,0,0,0,,0,,,36,127
22310,note_on,1,0,0,,3,,,51,127
22310,note_on,0,0,0,,3,,,75,127
22364,note_off,54,0,0,,3,,,75,127
22365,note_on,1,0,0,,2,,,74,127
22419,note_off,54,0,0,,2,,,74,127
22420,note_on,1,0,0,,0,,,72,127
22529,note_off,109,0,0,,0,,,72,127
22529,note_off,0,0,0,,3,,,51,127
22530,note_on,1,0,0,,5,,,53,127
22530,note_on,0,0,0,,2,,,74,127
22639,note_off,109,0,0,,2,,,74,127
22640,note_on,1,0,0,,3,,,75,127
22749,note_off,109,0,0,,3,,,75,127
22749,note_off,0,0,0,,5,,,53,127
22750,note_on,1,0,0,,7,,,55,127
22750,note_on,0,0,0,,5,,,77,127
22859,note_off,109,0,0,,5,,,77,127
22860,note_on,1,0,0,,2,,,74,127
22969,note_off,109,0,0,,2,,,74,127
22970,note_on,1,0,0,,7,,,43,127
22970,note_on,0,0,0,,2,,,74,127
23024,note_off,54,0,0,,2,,,74,127
23025,note_on,1,0,0,,0,,,72,127
23079,note_off,54,0,0,,0,,,72,127
23080,note_off,1,0,0,,7,,,55,127
23080,note_on,0,0,0,,12,,,71,127
23189,note_off,109,0,0,,12,,,71,127
23189,note_off,0,0,0,,7,,,43,127
23190,note_on,1,0,0,,0,,,36,127
23190,note_on,0,0,0,,12,,,71,127
23408,note_off,218,0,0,,12,,,71,127
23409,note_on,1,0,0,,0,,,48,127
23409,note_on,0,0,0,,0,,,72,127
23464,note_off,55,0,0,,0,,,36,127
23627,note_off,163,0,0,,0,,,72,127
23628,note_on,1,0,0,,0,,,60,127
23628,note_on,0,0,0,,3,,,63,127
23628,note_on,0,0,0,,7,,,67,127
23738,note_off,110,0,0,,0,,,48,127
23847,note_off,109,0,0,,7,,,67,127
23847,note_off,0,0,0,,3,,,63,127
23847,note_off,0,0,0,,0,,,60,127
23848,note_on,1,0,0,,5,,,65,127
23848,note_on,0,0,0,,0,,,60,127
23848,note_on,0,0,0,,8,,,68,127
23848,note_on,0,0,0,,5,,,77,127
24066,note_off,218,0,0,,5,,,77,127
24066,note_off,0,0,0,,0,,,60,127
24066,note_off,0,0,0,,5,,,65,127
24067,note_on,1,0,0,,5,,,65,127
24067,note_on,0,0,0,,0,,,60,127
24067,note_on,0,0,0,,3,,,75,127
24176,note_off,109,0,0,,3,,,75,127
24177,note_on,1,0,0,,2,,,74,127
24286,note_off,109,0,0,,2,,,74,127
24286,note_off,0,0,0,,0,,,60,127
24286,note_off,0,0,0,,5,,,65,127
24286,note_off,0,0,0,,8,,,68,127
24287,note_on,1,0,0,,5,,,65,127
24287,note_on,0,0,0,,0,,,60,127
24287,note_on,0,0,0,,0,,,72,127
24396,note_off,109,0,0,,0,,,72,127
24397,note_on,1,0,0,,12,,,71,127
24506,note_off,109,0,0,,12,,,71,127
24506,note_off,0,0,0,,0,,,60,127
24506,note_off,0,0,0,,5,,,65,127
24507,note_on,1,0,0,,3,,,63,127
24507,note_on,0,0,0,,0,,,60,127
24507,note_on,0,0,0,,12,,,71,127
24725,note_off,218,0,0,,12,,,71,127
24725,note_off,0,0,0,,0,,,60,127
24725,note_off,0,0,0,,3,,,63,127
24726,note_on,1,0,0,,3,,,63,127
24726,note_on,0,0,0,,0,,,60,127
24726,note_on,0,0,0,,0,,,72,127
24944,note_off,218,0,0,,0,,,72,127
24944,note_off,0,0,0,,0,,,60,127
24944,note_off,0,0,0,,3,,,63,127
24945,note_on,1,0,0,,3,,,63,127
24945,note_on,0,0,0,,0,,,60,127
24945,note_on,0,0,0,,7,,,67,127
25163,note_off,218,0,0,,7,,,67,127
25163,note_off,0,0,0,,0,,,60,127
25163,note_off,0,0,0,,3,,,63,127
25164,note_on,1,0,0,,2,,,62,127
25164,note_on,0,0,0,,0,,,60,127
25164,note_on,0,0,0,,5,,,65,127
25236,note_off,72,0,0,,5,,,65,127
25237,note_on,1,0,0,,7,,,67,127
25309,note_off,72,0,0,,7,,,67,127
25310,note_on,1,0,0,,8,,,68,127
25382,note_off,72,0,0,,8,,,68,127
25382,note_off,0,0,0,,0,,,60,127
25382,note_off,0,0,0,,2,,,62,127
25383,note_on,1,0,0,,12,,,59,127
25383,note_on,0,0,0,,7,,,67,127
25492,note_off,109,0,0,,7,,,67,127
25493,note_on,1,0,0,,5,,,65,127
25602,note_off,109,0,0,,5,,,65,127
25602,note_off,0,0,0,,12,,,59,127
25603,note_on,1,0,0,,7,,,55,127
25603,note_on,0,0,0,,3,,,63,127
25712,note_off,109,0,0,,3,,,63,127
25713,note_on,1,0,0,,2,,,62,127
25822,note_off,109,0,0,,2,,,62,127
25822,note_off,0,0,0,,7,,,55,127
25823,note_on,1,0,0,,0,,,48,127
25823,note_on,0,0,0,,2,,,62,127
26041,note_off,218,0,0,,2,,,62,127
26042,note_on,1,0,0,,0,,,60,127
26042,note_on,0,0,0,,3,,,63,127
26152,note_off,110,0,0,,0,,,48,127
26261,note_off,109,0,0,,3,,,63,127
26261,note_off,0,0,0,,0,,,60,127
26262,note_on,1,0,0,,0,,,60,127
26262,note_on,0,0,0,,3,,,63,127
26262,note_on,0,0,0,,7,,,67,127
26480,note_off,218,0,0,,7,,,67,127
26480,note_off,0,0,0,,3,,,63,127
26480,note_off,0,0,0,,0,,,60,127
26481,note_on,1,0,0,,0,,,60,127
26481,note_on,0,0,0,,5,,,65,127
26481,note_on,0,0,0,,5,,,77,127
26481,note_on,0,0,0,,8,,,68,127
26699,note_off,218,0,0,,5,,,77,127
26699,note_off,0,0,0,,5,,,65,127
26699,note_off,0,0,0,,0,,,60,127
26700,note_on,1,0,0,,0,,,60,127
26700,note_on,0,0,0,,5,,,65,127
26700,note_on,0,0,0,,3,,,75,127
26809,note_off,109,0,0,,3,,,75,127
26810,note_on,1,0,0,,2,,,74,127
26919,note_off,109,0,0,,2,,,74,127
26919,note_off,0,0,0,,5,,,65,127
26919,note_off,0,0,0,,0,,,60,127
26919,note_off,0,0,0,,8,,,68,127
26920,note_on,1,0,0,,0,,,60,127
26920,note_on,0,0,0,,5,,,65,127
26920,note_on,0,0,0,,0,,,72,127
27029,note_off,109,0,0,,0,,,72,127
27030,note_on,1,0,0,,12,,,71,127
27139,note_off,109,0,0,,12,,,71,127
27139,note_off,0,0,0,,5,,,65,127
27139,note_off,0,0,0,,0,,,60,127
27140,note_on,1,0,0,,3,,,63,127
27140,note_on,0,0,0,,0,,,60,127
27140,note_on,0,0,0,,12,,,71,127
27358,note_off,218,0,0,,12,,,71,127
27358,note_off,0,0,0,,0,,,60,127
27358,note_off,0,0,0,,3,,,63,127
27359,note_on,1,0,0,,0,,,60,127
27359,note_on,0,0,0,,3,,,63,127
27359,note_on,0,0,0,,0,,,72,127
27577,note_off,218,0,0,,0,,,72,127
27577,note_off,0,0,0,,3,,,63,127
27577,note_off,0,0,0,,0,,,60,127
27578,note_on,1,0,0,,3,,,63,127
27578,note_on,0,0,0,,0,,,60,127
27578,note_on,0,0,0,,7,,,67,127
27796,note_off,218,0,0,,7,,,67,127
27796,note_off,0,0,0,,0,,,60,127
27796,note_off,0,0,0,,3,,,63,127
27797,note_on,1,0,0,,0,,,60,127
27797,note_on,0,0,0,,2,,,62,127
27797,note_on,0,0,0,,5,,,65,127
27869,note_off,72,0,0,,5,,,65,127
27870,note_on,1,0,0,,7,,,67,127
27942,note_off,72,0,0,,7,,,67,127
27943,note_on,1,0,0,,8,,,68,127
28015,note_off,72,0,0,,8,,,68,127
28015,note_off,0,0,0,,2,,,62,127
28015,note_off,0,0,0,,0,,,60,127
28016,note_on,1,0,0,,12,,,59,127
28016,note_on,0,0,0,,7,,,67,127
28125,note_off,109,0,0,,7,,,67,127
28126,note_on,1,0,0,,5,,,65,127
28235,note_off,109,0,0,,5,,,65,127
28235,note_off,0,0,0,,12,,,59,127
28236,note_on,1,0,0,,7,,,55,127
28236,note_on,0,0,0,,3,,,63,127
28345,note_off,109,0,0,,3,,,63,127
28346,note_on,1,0,0,,2,,,62,127
28455,note_off,109,0,0,,2,,,62,127
28455,note_off,0,0,0,,7,,,55,127
28456,note_on,1,0,0,,0,,,48,127
28456,note_on,0,0,0,,2,,,62,127
28674,note_off,218,0,0,,2,,,62,127
28675,note_on,1,0,0,,0,,,60,127
28675,note_on,0,0,0,,3,,,63,127
28893,note_off,218,0,0,,3,,,63,127
28893,note_off,0,0,0,,0,,,60,127
28894,note_on,1,0,0,,0,,,60,127
28894,note_on,0,0,0,,3,,,63,127
29112,note_off,218,0,0,,3,,,63,127
29112,note_off,0,0,0,,0,,,60,127
29112,note_off,0,0,0,,0,,,48,127
29113,note_on,1,0,0,,5,,,41,127
29113,note_on,0,0,0,,2,,,62,127
29222,note_off,109,0,0,,2,,,62,127
29223,note_on,1,0,0,,3,,,63,127
29332,note_off,109,0,0,,3,,,63,127
29333,note_on,1,0,0,,5,,,53,127
29333,note_on,0,0,0,,5,,,65,127
29442,note_off,109,0,0,,5,,,65,127
29443,note_on,1,0,0,,7,,,67,127
29552,note_off,109,0,0,,7,,,67,127
29552,note_off,0,0,0,,5,,,53,127
29553,note_on,1,0,0,,5,,,53,127
29553,note_on,0,0,0,,8,,,68,127
29662,note_off,109,0,0,,8,,,68,127
29663,note_on,1,0,0,,0,,,60,127
29772,note_off,109,0,0,,0,,,60,127
29772,note_off,0,0,0,,5,,,53,127
29772,note_off,0,0,0,,5,,,41,127
29773,note_on,1,0,0,,7,,,43,127
29773,note_on,0,0,0,,12,,,59,127
29991,note_off,218,0,0,,12,,,59,127
29992,note_on,1,0,0,,12,,,59,127
30210,note_off,218,0,0,,12,,,59,127
30210,note_off,0,0,0,,7,,,43,127
30211,note_on,1,0,0,,5,,,77,127
30211,note_on,0,0,0,,12,,,59,127
30320,note_off,109,0,0,,12,,,59,127
30321,note_on,1,0,0,,7,,,55,127
30430,note_off,109,0,0,,7,,,55,127
30430,note_off,0,0,0,,5,,,77,127
30431,note_on,1,0,0,,5,,,77,127
30431,note_on,0,0,0,,0,,,60,127
30485,note_off,54,0,0,,5,,,77,127
30486,note_on,1,0,0,,3,,,75,127
30540,note_off,54,0,0,,3,,,75,127
30541,note_on,1,0,0,,5,,,77,127
30541,note_on,0,0,0,,7,,,55,127
30557,note_off,16,0,0,,0,,,60,127
30595,note_off,38,0,0,,5,,,77,127
30596,note_on,1,0,0,,3,,,75,127
30650,note_off,54,0,0,,3,,,75,127
30651,note_on,1,0,0,,2,,,74,127
30651,note_on,0,0,0,,2,,,62,127
30667,note_off,16,0,0,,7,,,55,127
30761,note_on,94,0,0,,7,,,55,127
30777,note_off,16,0,0,,2,,,62,127
30870,note_off,93,0,0,,2,,,74,127
30871,note_on,1,0,0,,0,,,72,127
30871,note_on,0,0,0,,3,,,63,127
30887,note_off,16,0,0,,7,,,55,127
30981,note_on,94,0,0,,7,,,55,127
30997,note_off,16,0,0,,3,,,63,127
31090,note_off,93,0,0,,0,,,72,127
31091,note_on,1,0,0,,7,,,43,127
31091,note_on,0,0,0,,2,,,62,127
31107,note_off,16,0,0,,7,,,55,127
31201,note_on,94,0,0,,7,,,55,127
31217,note_off,16,0,0,,2,,,62,127
31311,note_on,94,0,0,,0,,,60,127
31327,note_off,16,0,0,,7,,,55,127
31421,note_on,94,0,0,,7,,,55,127
31437,note_off,16,0,0,,0,,,60,127
31530,note_off,93,0,0,,7,,,43,127
31531,note_on,1,0,0,,5,,,77,127
31531,note_on,0,0,0,,12,,,59,127
31547,note_off,16,0,0,,7,,,55,127
31641,note_on,94,0,0,,7,,,55,127
31657,note_off,16,0,0,,12,,,59,127
31750,note_off,93,0,0,,5,,,77,127
31751,note_on,1,0,0,,5,,,77,127
31751,note_on,0,0,0,,0,,,60,127
31767,note_off,16,0,0,,7,,,55,127
31805,note_off,38,0,0,,5,,,77,127
31806,note_on,1,0,0,,3,,,75,127
31860,note_off,54,0,0,,3,,,75,127
31861,note_on,1,0,0,,5,,,77,127
31861,note_on,0,0,0,,7,,,55,127
31877,note_off,16,0,0,,0,,,60,127
31915,note_off,38,0,0,,5,,,77,127
31916,note_on,1,0,0,,3,,,75,127
31970,note_off,54,0,0,,3,,,75,127
31971,note_on,1,0,0,,2,,,74,127
31971,note_on,0,0,0,,2,,,62,127
31987,note_off,16,0,0,,7,,,55,127
32081,note_on,94,0,0,,7,,,55,127
32097,note_off,16,0,0,,2,,,62,127
32190,note_off,93,0,0,,2,,,74,127
32191,note_on,1,0,0,,0,,,72,127
32191,note_on,0,0,0,,3,,,63,127
32207,note_off,16,0,0,,7,,,55,127
32301,note_on,94,0,0,,7,,,55,127
32317,note_off,16,0,0,,3,,,63,127
32410,note_off,93,0,0,,0,,,72,127
32411,note_on,1,0,0,,5,,,41,127
32411,note_on,0,0,0,,2,,,62,127
32427,note_off,16,0,0,,7,,,55,127
32521,note_on,94,0,0,,7,,,55,127
32537,note_off,16,0,0,,2,,,62,127
32631,note_on,94,0,0,,0,,,60,127
32647,note_off,16,0,0,,7,,,55,127
32741,note_on,94,0,0,,7,,,55,127
32757,note_off,16,0,0,,0,,,60,127
32850,note_off,93,0,0,,5,,,41,127
32851,note_on,1,0,0,,5,,,77,127
32851,note_on,0,0,0,,12,,,59,127
32867,note_off,16,0,0,,7,,,55,127
32961,note_on,94,0,0,,7,,,55,127
32977,note_off,16,0,0,,12,,,59,127
33070,note_off,93,0,0,,5,,,77,127
33071,note_on,1,0,0,,5,,,77,127
33071,note_on,0,0,0,,0,,,60,127
33087,note_off,16,0,0,,7,,,55,127
33125,note_off,38,0,0,,5,,,77,127
33126,note_on,1,0,0,,3,,,75,127
33180,note_off,54,0,0,,3,,,75,127
33181,note_on,1,0,0,,5,,,77,127
33181,note_on,0,0,0,,7,,,55,127
33197,note_off,16,0,0,,0,,,60,127
33235,note_off,38,0,0,,5,,,77,127
33236,note_on,1,0,0,,3,,,75,127
33290,note_off,54,0,0,,3,,,75,127
33291,note_on,1,0,0,,2,,,74,127
33291,note_on,0,0,0,,2,,,62,127
33307,note_off,16,0,0,,7,,,55,127
33401,note_on,94,0,0,,7,,,55,127
33417,note_off,16,0,0,,2,,,62,127
33510,note_off,93,0,0,,2,,,74,127
33511,note_on,1,0,0,,0,,,72,127
33511,note_on,0,0,0,,3,,,63,127
33527,note_off,16,0,0,,7,,,55,127
33621,note_on,94,0,0,,7,,,55,127
33637,note_off,16,0,0,,3,,,63,127
33730,note_off,93,0,0,,0,,,72,127
33731,note_on,1,0,0,,3,,,39,127
33731,note_on,0,0,0,,0,,,60,127
33747,note_off,16,0,0,,7,,,55,127
33841,note_on,94,0,0,,7,,,55,127
33857,note_off,16,0,0,,0,,,60,127
33951,note_on,94,0,0,,7,,,67,127
33967,note_off,16,0,0,,7,,,55,127
34061,note_on,94,0,0,,7,,,55,127
34077,note_off,16,0,0,,7,,,67,127
34170,note_off,93,0,0,,3,,,39,127
34171,note_on,1,0,0,,5,,,77,127
34171,note_on,0,0,0,,12,,,59,127
34187,note_off,16,0,0,,7,,,55,127
34281,note_on,94,0,0,,7,,,55,127
34297,note_off,16,0,0,,12,,,59,127
34390,note_off,93,0,0,,5,,,77,127
34391,note_on,1,0,0,,5,,,77,127
34391,note_on,0,0,0,,0,,,60,127
34407,note_off,16,0,0,,7,,,55,127
34445,note_off,38,0,0,,5,,,77,127
34446,note_on,1,0,0,,3,,,75,127
34500,note_off,54,0,0,,3,,,75,127
34501,note_on,1,0,0,,5,,,77,127
34501,note_on,0,0,0,,7,,,55,127
34517,note_off,16,0,0,,0,,,60,127
34555,note_off,38,0,0,,5,,,77,127
34556,note_on,1,0,0,,3,,,75,127
34610,note_off,54,0,0,,3,,,75,127
34611,note_on,1,0,0,,2,,,74,127
34611,note_on,0,0,0,,2,,,62,127
34627,note_off,16,0,0,,7,,,55,127
34721,note_on,94,0,0,,7,,,55,127
34737,note_off,16,0,0,,2,,,62,127
34830,note_off,93,0,0,,2,,,74,127
34831,note_on,1,0,0,,0,,,72,127
34831,note_on,0,0,0,,3,,,63,127
34847,note_off,16,0,0,,7,,,55,127
34941,note_on,94,0,0,,7,,,55,127
34957,note_off,16,0,0,,3,,,63,127
35050,note_off,93,0,0,,0,,,72,127
35051,note_on,1,0,0,,5,,,41,127
35051,note_on,0,0,0,,2,,,62,127
35067,note_off,16,0,0,,7,,,55,127
35161,note_on,94,0,0,,7,,,55,127
35177,note_off,16,0,0,,2,,,62,127
35270,note_off,93,0,0,,5,,,41,127
35271,note_on,1,0,0,,7,,,43,127
35271,note_on,0,0,0,,3,,,63,127
35287,note_off,16,0,0,,7,,,55,127
35381,note_on,94,0,0,,7,,,55,127
35397,note_off,16,0,0,,3,,,63,127
35490,note_off,93,0,0,,7,,,43,127
35491,note_on,1,0,0,,8,,,44,127
35491,note_on,0,0,0,,5,,,65,127
35507,note_off,16,0,0,,7,,,55,127
35601,note_on,94,0,0,,7,,,55,127
35617,note_off,16,0,0,,5,,,65,127
35710,note_off,93,0,0,,8,,,44,127
35711,note_on,1,0,0,,7,,,43,127
35711,note_on,0,0,0,,5,,,65,127
35711,note_on,0,0,0,,2,,,62,127
35727,note_off,16,0,0,,7,,,55,127
35821,note_on,94,0,0,,7,,,55,127
35837,note_off,16,0,0,,2,,,62,127
35930,note_off,93,0,0,,5,,,65,127
35930,note_off,0,0,0,,7,,,43,127
35931,note_on,1,0,0,,5,,,41,127
35931,note_on,0,0,0,,0,,,60,127
35931,note_on,0,0,0,,3,,,63,127
35947,note_off,16,0,0,,7,,,55,127
36041,note_on,94,0,0,,7,,,55,127
36057,note_off,16,0,0,,0,,,60,127
36150,note_off,93,0,0,,3,,,63,127
36150,note_off,0,0,0,,5,,,41,127
36151,note_on,1,0,0,,7,,,43,127
36151,note_on,0,0,0,,2,,,62,127
36151,note_on,0,0,0,,12,,,59,127
36167,note_off,16,0,0,,7,,,55,127
36261,note_on,94,0,0,,7,,,55,127
36277,note_off,16,0,0,,12,,,59,127
36370,note_off,93,0,0,,2,,,62,127
36370,note_off,0,0,0,,7,,,43,127
36371,note_on,1,0,0,,0,,,36,127
36371,note_on,0,0,0,,0,,,60,127
36387,note_off,16,0,0,,7,,,55,127
36481,note_on,94,0,0,,7,,,55,127
36497,note_off,16,0,0,,0,,,60,127
36591,note_on,94,0,0,,7,,,67,127
36607,note_off,16,0,0,,7,,,55,127
36701,note_on,94,0,0,,7,,,55,127
36717,note_off,16,0,0,,7,,,67,127
36810,note_off,93,0,0,,0,,,36,127
36811,note_on,1,0,0,,5,,,77,127
36811,note_on,0,0,0,,12,,,59,127
36827,note_off,16,0,0,,7,,,55,127
36921,note_on,94,0,0,,7,,,55,127
36937,note_off,16,0,0,,12,,,59,127
37030,note_off,93,0,0,,5,,,77,127
37031,note_on,1,0,0,,5,,,77,127
37031,note_on,0,0,0,,0,,,60,127
37047,note_off,16,0,0,,7,,,55,127
37085,note_off,38,0,0,,5,,,77,127
37086,note_on,1,0,0,,3,,,75,127
37140,note_off,54,0,0,,3,,,75,127
37141,note_on,1,0,0,,5,,,77,127
37141,note_on,0,0,0,,7,,,55,127
37157,note_off,16,0,0,,0,,,60,127
37196,note_off,39,0,0,,5,,,77,127
37196,note_on,0,0,0,,3,,,75,127
37251,note_off,55,0,0,,3,,,75,127
37251,note_on,0,0,0,,2,,,74,127
37251,note_on,0,0,0,,2,,,62,127
37267,note_off,16,0,0,,7,,,55,127
37361,note_on,94,0,0,,7,,,55,127
37377,note_off,16,0,0,,2,,,62,127
37470,note_off,93,0,0,,2,,,74,127
37471,note_on,1,0,0,,0,,,72,127
37471,note_on,0,0,0,,3,,,63,127
37487,note_off,16,0,0,,7,,,55,127
37581,note_on,94,0,0,,7,,,55,127
37597,note_off,16,0,0,,3,,,63,127
37690,note_off,93,0,0,,0,,,72,127
37691,note_on,1,0,0,,7,,,43,127
37691,note_on,0,0,0,,2,,,62,127
37707,note_off,16,0,0,,7,,,55,127
37801,note_on,94,0,0,,7,,,55,127
37817,note_off,16,0,0,,2,,,62,127
37911,note_on,94,0,0,,0,,,60,127
37927,note_off,16,0,0,,7,,,55,127
38021,note_on,94,0,0,,7,,,55,127
38037,note_off,16,0,0,,0,,,60,127
38130,note_off,93,0,0,,7,,,43,127
38131,note_on,1,0,0,,5,,,77,127
38131,note_on,0,0,0,,12,,,59,127
38147,note_off,16,0,0,,7,,,55,127
38241,note_on,94,0,0,,7,,,55,127
38257,note_off,16,0,0,,12,,,59,127
38350,note_off,93,0,0,,5,,,77,127
38351,note_on,1,0,0,,5,,,77,127
38351,note_on,0,0,0,,0,,,60,127
38367,note_off,16,0,0,,7,,,55,127
38405,note_off,38,0,0,,5,,,77,127
38406,note_on,1,0,0,,3,,,75,127
38460,note_off,54,0,0,,3,,,75,127
38461,note_on,1,0,0,,5,,,77,127
38461,note_on,0,0,0,,7,,,55,127
38477,note_off,16,0,0,,0,,,60,127
38515,note_off,38,0,0,,5,,,77,127
38516,note_on,1,0,0,,3,,,75,127
38570,note_off,54,0,0,,3,,,75,127
38571,note_on,1,0,0,,2,,,74,127
38571,note_on,0,0,0,,2,,,62,127
38587,note_off,16,0,0,,7,,,55,127
38681,note_on,94,0,0,,7,,,55,127
38697,note_off,16,0,0,,2,,,62,127
38790,note_off,93,0,0,,2,,,74,127
38791,note_on,1,0,0,,0,,,72,127
38791,note_on,0,0,0,,3,,,63,127
38807,note_off,16,0,0,,7,,,55,127
38901,note_on,94,0,0,,7,,,55,127
38917,note_off,16,0,0,,3,,,63,127
39010,note_off,93,0,0,,0,,,72,127
39011,note_on,1,0,0,,5,,,41,127
39011,note_on,0,0,0,,2,,,62,127
39027,note_off,16,0,0,,7,,,55,127
39121,note_on,94,0,0,,7,,,55,127
39137,note_off,16,0,0,,2,,,62,127
39231,note_on,94,0,0,,0,,,60,127
39247,note_off,16,0,0,,7,,,55,127
39341,note_on,94,0,0,,7,,,55,127
39357,note_off,16,0,0,,0,,,60,127
39450,note_off,93,0,0,,5,,,41,127
39451,note_on,1,0,0,,5,,,77,127
39451,note_on,0,0,0,,12,,,59,127
39467,note_off,16,0,0,,7,,,55,127
39561,note_on,94,0,0,,7,,,55,127
39577,note_off,16,0,0,,12,,,59,127
39670,note_off,93,0,0,,5,,,77,127
39671,note_on,1,0,0,,5,,,77,127
39671,note_on,0,0,0,,0,,,60,127
39687,note_off,16,0,0,,7,,,55,127
39725,note_off,38,0,0,,5,,,77,127
39726,note_on,1,0,0,,3,,,75,127
39780,note_off,54,0,0,,3,,,75,127
39781,note_on,1,0,0,,5,,,77,127
39781,note_on,0,0,0,,7,,,55,127
39797,note_off,16,0,0,,0,,,60,127
39835,note_off,38,0,0,,5,,,77,127
39836,note_on,1,0,0,,3,,,75,127
39890,note_off,54,0,0,,3,,,75,127
39891,note_on,1,0,0,,2,,,74,127
39891,note_on,0,0,0,,2,,,62,127
39907,note_off,16,0,0,,7,,,55,127
40001,note_on,94,0,0,,7,,,55,127
40017,note_off,16,0,0,,2,,,62,127
40110,note_off,93,0,0,,2,,,74,127
40111,note_on,1,0,0,,0,,,72,127
40111,note_on,0,0,0,,3,,,63,127
40127,note_off,16,0,0,,7,,,55,127
40221,note_on,94,0,0,,7,,,55,127
40237,note_off,16,0,0,,3,,,63,127
40330,note_off,93,0,0,,0,,,72,127
40331,note_on,1,0,0,,3,,,39,127
40331,note_on,0,0,0,,0,,,60,127
40347,note_off,16,0,0,,7,,,55,127
40441,note_on,94,0,0,,7,,,55,127
40457,note_off,16,0,0,,0,,,60,127
40551,note_on,94,0,0,,7,,,67,127
40567,note_off,16,0,0,,7,,,55,127
40661,note_on,94,0,0,,7,,,55,127
40677,note_off,16,0,0,,7,,,67,127
40770,note_off,93,0,0,,3,,,39,127
40771,note_on,1,0,0,,5,,,77,127
40771,note_on,0,0,0,,12,,,59,127
40787,note_off,16,0,0,,7,,,55,127
40881,note_on,94,0,0,,7,,,55,127
40897,note_off,16,0,0,,12,,,59,127
40990,note_off,93,0,0,,5,,,77,127
40991,note_on,1,0,0,,5,,,77,127
40991,note_on,0,0,0,,0,,,60,127
41007,note_off,16,0,0,,7,,,55,127
41045,note_off,38,0,0,,5,,,77,127
41046,note_on,1,0,0,,3,,,75,127
41100,note_off,54,0,0,,3,,,75,127
41101,note_on,1,0,0,,5,,,77,127
41101,note_on,0,0,0,,7,,,55,127
41117,note_off,16,0,0,,0,,,60,127
41155,note_off,38,0,0,,5,,,77,127
41156,note_on,1,0,0,,3,,,75,127
41210,note_off,54,0,0,,3,,,75,127
41211,note_on,1,0,0,,2,,,74,127
41211,note_on,0,0,0,,2,,,62,127
41227,note_off,16,0,0,,7,,,55,127
41321,note_on,94,0,0,,7,,,55,127
41337,note_off,16,0,0,,2,,,62,127
41430,note_off,93,0,0,,2,,,74,127
41431,note_on,1,0,0,,0,,,72,127
41431,note_on,0,0,0,,3,,,63,127
41447,note_off,16,0,0,,7,,,55,127
41541,note_on,94,0,0,,7,,,55,127
41557,note_off,16,0,0,,3,,,63,127
41650,note_off,93,0,0,,0,,,72,127
41651,note_on,1,0,0,,5,,,41,127
41651,note_on,0,0,0,,2,,,62,127
41667,note_off,16,0,0,,7,,,55,127
41761,note_on,94,0,0,,7,,,55,127
41777,note_off,16,0,0,,2,,,62,127
41870,note_off,93,0,0,,5,,,41,127
41871,note_on,1,0,0,,7,,,43,127
41871,note_on,0,0,0,,3,,,63,127
41887,note_off,16,0,0,,7,,,55,127
41981,note_on,94,0,0,,7,,,55,127
41997,note_off,16,0,0,,3,,,63,127
42090,note_off,93,0,0,,7,,,43,127
42091,note_on,1,0,0,,8,,,44,127
42091,note_on,0,0,0,,5,,,65,127
42107,note_off,16,0,0,,7,,,55,127
42201,note_on,94,0,0,,7,,,55,127
42217,note_off,16,0,0,,5,,,65,127
42310,note_off,93,0,0,,8,,,44,127
42311,note_on,1,0,0,,7,,,43,127
42311,note_on,0,0,0,,2,,,62,127
42311,note_on,0,0,0,,5,,,65,127
42327,note_off,16,0,0,,7,,,55,127
42421,note_on,94,0,0,,7,,,55,127
42437,note_off,16,0,0,,2,,,62,127
42530,note_off,93,0,0,,5,,,65,127
42530,note_off,0,0,0,,7,,,43,127
42531,note_on,1,0,0,,5,,,41,127
42531,note_on,0,0,0,,0,,,60,127
42531,note_on,0,0,0,,3,,,63,127
42547,note_off,16,0,0,,7,,,55,127
42641,note_on,94,0,0,,7,,,55,127
42657,note_off,16,0,0,,0,,,60,127
42750,note_off,93,0,0,,3,,,63,127
42750,note_off,0,0,0,,5,,,41,127
42751,note_on,1,0,0,,7,,,43,127
42751,note_on,0,0,0,,2,,,62,127
42751,note_on,0,0,0,,12,,,59,127
42767,note_off,16,0,0,,7,,,55,127
42861,note_on,94,0,0,,7,,,55,127
42877,note_off,16,0,0,,12,,,59,127
42970,note_off,93,0,0,,7,,,55,127
42970,note_off,0,0,0,,2,,,62,127
42970,note_off,0,0,0,,7,,,43,127
42971,note_on,1,0,0,,0,,,48,127
42971,note_on,0,0,0,,7,,,55,127
43080,note_off,109,0,0,,7,,,55,127
43081,note_on,1,0,0,,0,,,60,127
43190,note_off,109,0,0,,0,,,60,127
43191,note_on,1,0,0,,3,,,63,127
43300,note_off,109,0,0,,3,,,63,127
43301,note_on,1,0,0,,7,,,67,127
43410,note_off,109,0,0,,7,,,67,127
43410,note_off,0,0,0,,0,,,48,127
43411,note_on,1,0,0,,12,,,47,127
43411,note_on,0,0,0,,7,,,55,127
43520,note_off,109,0,0,,7,,,55,127
43521,note_on,1,0,0,,5,,,65,127
43630,note_off,109,0,0,,5,,,65,127
43630,note_off,0,0,0,,12,,,47,127
43631,note_on,1,0,0,,0,,,48,127
43631,note_on,0,0,0,,0,,,60,127
43740,note_off,109,0,0,,0,,,60,127
43741,note_on,1,0,0,,3,,,63,127
43850,note_off,109,0,0,,3,,,63,127
43851,note_on,1,0,0,,7,,,67,127
43960,note_off,109,0,0,,7,,,67,127
43961,note_on,1,0,0,,0,,,72,127
44070,note_off,109,0,0,,0,,,72,127
44070,note_off,0,0,0,,0,,,48,127
44071,note_on,1,0,0,,12,,,47,127
44071,note_on,0,0,0,,2,,,62,127
44180,note_off,109,0,0,,2,,,62,127
44181,note_on,1,0,0,,12,,,71,127
44290,note_off,109,0,0,,12,,,71,127
44290,note_off,0,0,0,,12,,,47,127
44291,note_on,1,0,0,,0,,,48,127
44291,note_on,0,0,0,,0,,,60,127
44400,note_off,109,0,0,,0,,,60,127
44401,note_on,1,0,0,,3,,,63,127
44510,note_off,109,0,0,,3,,,63,127
44511,note_on,1,0,0,,7,,,67,127
44620,note_off,109,0,0,,7,,,67,127
44621,note_on,1,0,0,,0,,,72,127
44730,note_off,109,0,0,,0,,,72,127
44730,note_off,0,0,0,,0,,,48,127
44731,note_on,1,0,0,,12,,,47,127
44731,note_on,0,0,0,,5,,,65,127
44840,note_off,109,0,0,,5,,,65,127
44841,note_on,1,0,0,,2,,,74,127
44950,note_off,109,0,0,,2,,,74,127
44950,note_off,0,0,0,,12,,,47,127
44951,note_on,1,0,0,,0,,,48,127
44951,note_on,0,0,0,,7,,,67,127
45060,note_off,109,0,0,,7,,,67,127
45061,note_on,1,0,0,,3,,,75,127
45170,note_off,109,0,0,,3,,,75,127
45170,note_off,0,0,0,,0,,,48,127
45171,note_on,1,0,0,,5,,,41,127
45171,note_on,0,0,0,,5,,,65,127
45280,note_off,109,0,0,,5,,,65,127
45281,note_on,1,0,0,,2,,,74,127
45390,note_off,109,0,0,,2,,,74,127
45390,note_off,0,0,0,,5,,,41,127
45391,note_on,1,0,0,,7,,,43,127
45391,note_on,0,0,0,,2,,,74,127
45445,note_off,54,0,0,,2,,,74,127
45446,note_on,1,0,0,,0,,,72,127
45500,note_off,54,0,0,,0,,,72,127
45501,note_on,1,0,0,,12,,,71,127
45610,note_off,109,0,0,,12,,,71,127
45610,note_off,0,0,0,,7,,,43,127
45611,note_on,1,0,0,,0,,,36,127
45611,note_on,0,0,0,,12,,,71,127
46049,note_off,438,0,0,,12,,,71,127
46050,note_on,1,0,0,,0,,,72,127
46268,note_off,218,0,0,,0,,,72,127
46268,note_off,0,0,0,,0,,,36,127
46269,note_on,1,0,0,,0,,,72,127
46379,note_on,110,0,0,,0,,,60,127
46488,note_off,109,0,0,,0,,,60,127
46489,note_on,1,0,0,,7,,,55,127
46598,note_off,109,0,0,,7,,,55,127
46599,note_on,1,0,0,,0,,,60,127
46708,note_off,109,0,0,,0,,,60,127
46709,note_on,1,0,0,,4,,,52,127
46818,note_off,109,0,0,,4,,,52,127
46819,note_on,1,0,0,,7,,,55,127
46928,note_off,109,0,0,,7,,,55,127
46928,note_off,0,0,0,,0,,,72,127
46929,note_on,1,0,0,,0,,,48,127
46929,note_on,0,0,0,,4,,,76,127
47038,note_off,109,0,0,,0,,,48,127
47039,note_on,1,0,0,,4,,,52,127
47148,note_off,109,0,0,,4,,,52,127
47149,note_on,1,0,0,,7,,,43,127
47258,note_off,109,0,0,,7,,,43,127
47259,note_on,1,0,0,,0,,,48,127
47368,note_off,109,0,0,,0,,,48,127
47369,note_on,1,0,0,,4,,,40,127
47478,note_off,109,0,0,,4,,,40,127
47479,note_on,1,0,0,,7,,,43,127
47588,note_off,109,0,0,,7,,,43,127
47588,note_off,0,0,0,,4,,,76,127
47589,note_on,1,0,0,,0,,,36,127
47589,note_on,0,0,0,,7,,,79,127
47698,note_off,109,0,0,,7,,,79,127
47699,note_on,1,0,0,,11,,,82,127
47808,note_off,109,0,0,,11,,,82,127
47809,note_on,1,0,0,,4,,,76,127
47918,note_off,109,0,0,,4,,,76,127
47919,note_on,1,0,0,,7,,,79,127
48028,note_off,109,0,0,,7,,,79,127
48029,note_on,1,0,0,,11,,,70,127
48138,note_off,109,0,0,,11,,,70,127
48139,note_on,1,0,0,,1,,,73,127
48248,note_off,109,0,0,,1,,,73,127
48248,note_off,0,0,0,,0,,,36,127
48249,note_on,1,0,0,,0,,,60,127
48249,note_on,0,0,0,,7,,,67,127
48358,note_off,109,0,0,,7,,,67,127
48359,note_on,1,0,0,,11,,,70,127
48468,note_off,109,0,0,,11,,,70,127
48468,note_off,0,0,0,,0,,,60,127
48469,note_on,1,0,0,,0,,,60,127
48469,note_on,0,0,0,,4,,,64,127
48578,note_off,109,0,0,,4,,,64,127
48579,note_on,1,0,0,,11,,,70,127
48688,note_off,109,0,0,,11,,,70,127
48688,note_off,0,0,0,,0,,,60,127
48689,note_on,1,0,0,,0,,,60,127
48689,note_on,0,0,0,,11,,,70,127
48743,note_off,54,0,0,,11,,,70,127
48744,note_on,1,0,0,,8,,,68,127
48798,note_off,54,0,0,,8,,,68,127
48799,note_on,1,0,0,,7,,,67,127
48908,note_off,109,0,0,,7,,,67,127
48908,note_off,0,0,0,,0,,,60,127
48909,note_on,1,0,0,,5,,,53,127
48909,note_on,0,0,0,,8,,,68,127
49018,note_off,109,0,0,,8,,,68,127
49019,note_on,1,0,0,,0,,,72,127
49128,note_off,109,0,0,,0,,,72,127
49129,note_on,1,0,0,,5,,,65,127
49238,note_off,109,0,0,,5,,,53,127
49239,note_on,1,0,0,,3,,,63,127
49348,note_off,109,0,0,,3,,,63,127
49349,note_on,1,0,0,,1,,,61,127
49458,note_off,109,0,0,,1,,,61,127
49459,note_on,1,0,0,,0,,,60,127
49568,note_off,109,0,0,,0,,,60,127
49568,note_off,0,0,0,,5,,,65,127
49569,note_on,1,0,0,,11,,,58,127
49569,note_on,0,0,0,,1,,,73,127
49678,note_off,109,0,0,,1,,,73,127
49679,note_on,1,0,0,,5,,,77,127
49788,note_off,109,0,0,,5,,,77,127
49789,note_on,1,0,0,,11,,,70,127
49898,note_off,109,0,0,,11,,,58,127
49899,note_on,1,0,0,,8,,,68,127
50008,note_off,109,0,0,,8,,,68,127
50009,note_on,1,0,0,,7,,,67,127
50118,note_off,109,0,0,,7,,,67,127
50119,note_on,1,0,0,,5,,,65,127
50228,note_off,109,0,0,,5,,,65,127
50228,note_off,0,0,0,,11,,,70,127
50229,note_on,1,0,0,,0,,,60,127
50229,note_on,0,0,0,,4,,,76,127
50338,note_off,109,0,0,,4,,,76,127
50339,note_on,1,0,0,,7,,,79,127
50448,note_off,109,0,0,,7,,,79,127
50449,note_on,1,0,0,,0,,,72,127
50558,note_off,109,0,0,,0,,,60,127
50559,note_on,1,0,0,,11,,,70,127
50668,note_off,109,0,0,,11,,,70,127
50669,note_on,1,0,0,,8,,,68,127
50778,note_off,109,0,0,,8,,,68,127
50779,note_on,1,0,0,,7,,,67,127
50888,note_off,109,0,0,,7,,,67,127
50888,note_off,0,0,0,,0,,,72,127
50889,note_on,1,0,0,,5,,,65,127
50889,note_on,0,0,0,,10,,,81,127
50998,note_off,109,0,0,,10,,,81,127
50999,note_on,1,0,0,,0,,,84,127
51108,note_off,109,0,0,,0,,,84,127
51109,note_on,1,0,0,,3,,,75,127
51218,note_off,109,0,0,,3,,,75,127
51219,note_on,1,0,0,,6,,,78,127
51328,note_off,109,0,0,,6,,,78,127
51329,note_on,1,0,0,,0,,,72,127
51438,note_off,109,0,0,,0,,,72,127
51439,note_on,1,0,0,,3,,,75,127
51548,note_off,109,0,0,,3,,,75,127
51548,note_off,0,0,0,,5,,,65,127
51549,note_on,1,0,0,,5,,,53,127
51549,note_on,0,0,0,,10,,,69,127
51658,note_off,109,0,0,,10,,,69,127
51659,note_on,1,0,0,,0,,,72,127
51768,note_off,109,0,0,,0,,,72,127
51769,note_on,1,0,0,,5,,,65,127
51878,note_off,109,0,0,,5,,,65,127
51879,note_on,1,0,0,,3,,,75,127
51988,note_off,109,0,0,,3,,,75,127
51989,note_on,1,0,0,,3,,,75,127
52043,note_off,54,0,0,,3,,,75,127
52044,note_on,1,0,0,,1,,,73,127
52098,note_off,54,0,0,,1,,,73,127
52099,note_on,1,0,0,,0,,,72,127
52208,note_off,109,0,0,,0,,,72,127
52208,note_off,0,0,0,,5,,,53,127
52209,note_on,1,0,0,,11,,,58,127
52209,note_on,0,0,0,,1,,,73,127
52318,note_off,109,0,0,,1,,,73,127
52319,note_on,1,0,0,,5,,,77,127
52428,note_off,109,0,0,,5,,,77,127
52428,note_off,0,0,0,,11,,,58,127
52429,note_on,1,0,0,,11,,,70,127
52539,note_on,110,0,0,,8,,,68,127
52648,note_off,109,0,0,,8,,,68,127
52649,note_on,1,0,0,,7,,,67,127
52758,note_off,109,0,0,,7,,,67,127
52759,note_on,1,0,0,,5,,,65,127
52868,note_off,109,0,0,,5,,,65,127
52869,note_on,1,0,0,,3,,,63,127
52978,note_off,109,0,0,,11,,,70,127
52979,note_on,1,0,0,,8,,,68,127
53088,note_off,109,0,0,,8,,,68,127
53088,note_off,0,0,0,,3,,,63,127
53089,note_on,1,0,0,,3,,,63,127
53089,note_on,0,0,0,,7,,,67,127
53198,note_off,109,0,0,,7,,,67,127
53198,note_off,0,0,0,,3,,,63,127
53199,note_on,1,0,0,,1,,,61,127
53199,note_on,0,0,0,,5,,,65,127
53308,note_off,109,0,0,,5,,,65,127
53308,note_off,0,0,0,,1,,,61,127
53309,note_on,1,0,0,,0,,,60,127
53309,note_on,0,0,0,,3,,,63,127
53418,note_off,109,0,0,,3,,,63,127
53418,note_off,0,0,0,,0,,,60,127
53419,note_on,1,0,0,,11,,,58,127
53419,note_on,0,0,0,,1,,,61,127
53528,note_off,109,0,0,,1,,,61,127
53528,note_off,0,0,0,,11,,,58,127
53529,note_on,1,0,0,,8,,,56,127
53529,note_on,0,0,0,,0,,,60,127
53601,note_off,72,0,0,,0,,,60,127
53602,note_on,1,0,0,,1,,,61,127
53674,note_off,72,0,0,,1,,,61,127
53675,note_on,1,0,0,,3,,,63,127
53747,note_off,72,0,0,,8,,,56,127
53748,note_on,1,0,0,,8,,,56,127
53802,note_off,54,0,0,,3,,,63,127
53803,note_on,1,0,0,,1,,,61,127
53857,note_off,54,0,0,,1,,,61,127
53858,note_on,1,0,0,,3,,,63,127
53912,note_off,54,0,0,,3,,,63,127
53913,note_on,1,0,0,,1,,,61,127
53967,note_off,54,0,0,,1,,,61,127
53967,note_off,0,0,0,,8,,,56,127
53968,note_on,1,0,0,,8,,,56,127
53968,note_on,0,0,0,,3,,,63,127
54022,note_off,54,0,0,,3,,,63,127
54023,note_on,1,0,0,,1,,,61,127
54077,note_off,54,0,0,,1,,,61,127
54078,note_on,1,0,0,,0,,,60,127
54187,note_off,109,0,0,,0,,,60,127
54187,note_off,0,0,0,,8,,,56,127
54188,note_on,1,0,0,,1,,,49,127
54188,note_on,0,0,0,,11,,,58,127
54188,note_on,0,0,0,,8,,,56,127
54188,note_on,0,0,0,,7,,,67,127
54260,note_off,72,0,0,,7,,,67,127
54261,note_on,1,0,0,,8,,,68,127
54333,note_off,72,0,0,,8,,,68,127
54334,note_on,1,0,0,,11,,,70,127
54406,note_off,72,0,0,,8,,,56,127
54406,note_off,0,0,0,,11,,,58,127
54406,note_off,0,0,0,,1,,,49,127
54407,note_on,1,0,0,,11,,,58,127
54407,note_on,0,0,0,,8,,,56,127
54407,note_on,0,0,0,,1,,,49,127
54461,note_off,54,0,0,,11,,,70,127
54462,note_on,1,0,0,,8,,,68,127
54516,note_off,54,0,0,,8,,,68,127
54517,note_on,1,0,0,,11,,,70,127
54571,note_off,54,0,0,,11,,,70,127
54572,note_on,1,0,0,,8,,,68,127
54626,note_off,54,0,0,,8,,,68,127
54626,note_off,0,0,0,,1,,,49,127
54626,note_off,0,0,0,,8,,,56,127
54626,note_off,0,0,0,,11,,,58,127
54627,note_on,1,0,0,,1,,,49,127
54627,note_on,0,0,0,,11,,,58,127
54627,note_on,0,0,0,,8,,,56,127
54627,note_on,0,0,0,,11,,,70,127
54681,note_off,54,0,0,,11,,,70,127
54682,note_on,1,0,0,,8,,,68,127
54736,note_off,54,0,0,,8,,,68,127
54737,note_on,1,0,0,,7,,,67,127
54846,note_off,109,0,0,,7,,,67,127
54846,note_off,0,0,0,,8,,,56,127
54846,note_off,0,0,0,,11,,,58,127
54846,note_off,0,0,0,,1,,,49,127
54847,note_on,1,0,0,,3,,,51,127
54847,note_on,0,0,0,,8,,,56,127
54847,note_on,0,0,0,,0,,,48,127
54847,note_on,0,0,0,,0,,,72,127
54919,note_off,72,0,0,,0,,,72,127
54920,note_on,1,0,0,,1,,,73,127
54992,note_off,72,0,0,,1,,,73,127
54993,note_on,1,0,0,,3,,,75,127
55065,note_off,72,0,0,,0,,,48,127
55065,note_off,0,0,0,,8,,,56,127
55065,note_off,0,0,0,,3,,,51,127
55066,note_on,1,0,0,,8,,,56,127
55066,note_on,0,0,0,,3,,,51,127
55066,note_on,0,0,0,,0,,,48,127
55120,note_off,54,0,0,,3,,,75,127
55121,note_on,1,0,0,,1,,,73,127
55175,note_off,54,0,0,,1,,,73,127
55176,note_on,1,0,0,,3,,,75,127
55230,note_off,54,0,0,,3,,,75,127
55231,note_on,1,0,0,,1,,,73,127
55285,note_off,54,0,0,,1,,,73,127
55285,note_off,0,0,0,,0,,,48,127
55285,note_off,0,0,0,,3,,,51,127
55285,note_off,0,0,0,,8,,,56,127
55286,note_on,1,0,0,,0,,,48,127
55286,note_on,0,0,0,,8,,,56,127
55286,note_on,0,0,0,,3,,,51,127
55286,note_on,0,0,0,,3,,,75,127
55340,note_off,54,0,0,,3,,,75,127
55341,note_on,1,0,0,,1,,,73,127
55395,note_off,54,0,0,,1,,,73,127
55396,note_on,1,0,0,,0,,,72,127
55505,note_off,109,0,0,,0,,,72,127
55505,note_off,0,0,0,,3,,,51,127
55505,note_off,0,0,0,,8,,,56,127
55505,note_off,0,0,0,,0,,,48,127
55506,note_on,1,0,0,,8,,,56,127
55506,note_on,0,0,0,,1,,,49,127
55506,note_on,0,0,0,,11,,,58,127
55506,note_on,0,0,0,,7,,,79,127
55578,note_off,72,0,0,,7,,,79,127
55579,note_on,1,0,0,,8,,,80,127
55651,note_off,72,0,0,,8,,,80,127
55652,note_on,1,0,0,,11,,,82,127
55724,note_off,72,0,0,,11,,,58,127
55724,note_off,0,0,0,,1,,,49,127
55724,note_off,0,0,0,,8,,,56,127
55725,note_on,1,0,0,,1,,,49,127
55725,note_on,0,0,0,,11,,,58,127
55725,note_on,0,0,0,,8,,,56,127
55779,note_off,54,0,0,,11,,,82,127
55780,note_on,1,0,0,,8,,,80,127
55834,note_off,54,0,0,,8,,,80,127
55835,note_on,1,0,0,,11,,,82,127
55889,note_off,54,0,0,,11,,,82,127
55890,note_on,1,0,0,,8,,,80,127
55944,note_off,54,0,0,,8,,,80,127
55944,note_off,0,0,0,,8,,,56,127
55944,note_off,0,0,0,,11,,,58,127
55944,note_off,0,0,0,,1,,,49,127
55945,note_on,1,0,0,,1,,,49,127
55945,note_on,0,0,0,,8,,,56,127
55945,note_on,0,0,0,,11,,,58,127
55945,note_on,0,0,0,,11,,,82,127
55999,note_off,54,0,0,,11,,,82,127
56000,note_on,1,0,0,,8,,,80,127
56054,note_off,54,0,0,,8,,,80,127
56055,note_on,1,0,0,,7,,,79,127
56164,note_off,109,0,0,,7,,,79,127
56164,note_off,0,0,0,,11,,,58,127
56164,note_off,0,0,0,,8,,,56,127
56164,note_off,0,0,0,,1,,,49,127
56165,note_on,1,0,0,,0,,,48,127
56165,note_on,0,0,0,,8,,,56,127
56165,note_on,0,0,0,,3,,,51,127
56165,note_on,0,0,0,,0,,,84,127
56274,note_off,109,0,0,,0,,,84,127
56275,note_on,1,0,0,,11,,,82,127
56384,note_off,109,0,0,,11,,,82,127
56384,note_off,0,0,0,,3,,,51,127
56384,note_off,0,0,0,,8,,,56,127
56384,note_off,0,0,0,,0,,,48,127
56385,note_on,1,0,0,,8,,,56,127
56385,note_on,0,0,0,,3,,,51,127
56385,note_on,0,0,0,,0,,,48,127
56385,note_on,0,0,0,,8,,,80,127
56494,note_off,109,0,0,,8,,,80,127
56495,note_on,1,0,0,,7,,,79,127
56604,note_off,109,0,0,,7,,,79,127
56604,note_off,0,0,0,,0,,,48,127
56604,note_off,0,0,0,,3,,,51,127
56604,note_off,0,0,0,,8,,,56,127
56605,note_on,1,0,0,,3,,,51,127
56605,note_on,0,0,0,,0,,,48,127
56605,note_on,0,0,0,,8,,,56,127
56605,note_on,0,0,0,,5,,,77,127
56714,note_off,109,0,0,,5,,,77,127
56715,note_on,1,0,0,,3,,,75,127
56824,note_off,109,0,0,,3,,,75,127
56824,note_off,0,0,0,,8,,,56,127
56824,note_off,0,0,0,,0,,,48,127
56824,note_off,0,0,0,,3,,,51,127
56825,note_on,1,0,0,,1,,,49,127
56825,note_on,0,0,0,,11,,,58,127
56825,note_on,0,0,0,,8,,,56,127
56825,note_on,0,0,0,,1,,,73,127
56934,note_off,109,0,0,,1,,,73,127
56935,note_on,1,0,0,,0,,,72,127
57044,note_off,109,0,0,,0,,,72,127
57044,note_off,0,0,0,,8,,,56,127
57044,note_off,0,0,0,,11,,,58,127
57044,note_off,0,0,0,,1,,,49,127
57045,note_on,1,0,0,,1,,,49,127
57045,note_on,0,0,0,,8,,,56,127
57045,note_on,0,0,0,,11,,,58,127
57045,note_on,0,0,0,,11,,,70,127
57154,note_off,109,0,0,,11,,,70,127
57155,note_on,1,0,0,,8,,,68,127
57264,note_off,109,0,0,,8,,,68,127
57264,note_off,0,0,0,,11,,,58,127
57264,note_off,0,0,0,,8,,,56,127
57264,note_off,0,0,0,,1,,,49,127
57265,note_on,1,0,0,,1,,,49,127
57265,note_on,0,0,0,,11,,,58,127
57265,note_on,0,0,0,,8,,,56,127
57265,note_on,0,0,0,,7,,,67,127
57374,note_off,109,0,0,,7,,,67,127
57375,note_on,1,0,0,,5,,,65,127
57484,note_off,109,0,0,,5,,,65,127
57484,note_off,0,0,0,,8,,,56,127
57484,note_off,0,0,0,,11,,,58,127
57484,note_off,0,0,0,,1,,,49,127
57485,note_on,1,0,0,,3,,,51,127
57485,note_on,0,0,0,,3,,,63,127
57923,note_off,438,0,0,,3,,,63,127
57923,note_off,0,0,0,,3,,,51,127
57924,note_on,1,0,0,,11,,,82,127
57924,note_on,0,0,0,,7,,,67,127
58033,note_off,109,0,0,,7,,,67,127
58034,note_on,1,0,0,,3,,,63,127
58143,note_off,109,0,0,,3,,,63,127
58143,note_off,0,0,0,,11,,,82,127
58144,note_on,1,0,0,,0,,,84,127
58144,note_on,0,0,0,,8,,,68,127
58254,note_on,110,0,0,,3,,,63,127
58270,note_off,16,0,0,,8,,,68,127
58363,note_off,93,0,0,,0,,,84,127
58364,note_on,1,0,0,,11,,,82,127
58364,note_on,0,0,0,,11,,,70,127
58380,note_off,16,0,0,,3,,,63,127
58474,note_on,94,0,0,,3,,,63,127
58490,note_off,16,0,0,,11,,,70,127
58583,note_off,93,0,0,,11,,,82,127
58584,note_on,1,0,0,,8,,,80,127
58584,note_on,0,0,0,,0,,,72,127
58600,note_off,16,0,0,,3,,,63,127
58694,note_on,94,0,0,,3,,,63,127
58710,note_off,16,0,0,,0,,,72,127
58803,note_off,93,0,0,,8,,,80,127
58804,note_on,1,0,0,,3,,,51,127
58804,note_on,0,0,0,,11,,,70,127
58820,note_off,16,0,0,,3,,,63,127
58914,note_on,94,0,0,,3,,,63,127
58930,note_off,16,0,0,,11,,,70,127
59024,note_on,94,0,0,,8,,,68,127
59040,note_off,16,0,0,,3,,,63,127
59134,note_on,94,0,0,,3,,,63,127
59150,note_off,16,0,0,,8,,,68,127
59243,note_off,93,0,0,,3,,,51,127
59244,note_on,1,0,0,,11,,,82,127
59244,note_on,0,0,0,,7,,,67,127
59260,note_off,16,0,0,,3,,,63,127
59354,note_on,94,0,0,,3,,,63,127
59370,note_off,16,0,0,,7,,,67,127
59463,note_off,93,0,0,,11,,,82,127
59464,note_on,1,0,0,,0,,,84,127
59464,note_on,0,0,0,,8,,,68,127
59480,note_off,16,0,0,,3,,,63,127
59574,note_on,94,0,0,,3,,,63,127
59590,note_off,16,0,0,,8,,,68,127
59683,note_off,93,0,0,,0,,,84,127
59684,note_on,1,0,0,,11,,,82,127
59684,note_on,0,0,0,,11,,,70,127
59700,note_off,16,0,0,,3,,,63,127
59794,note_on,94,0,0,,3,,,63,127
59810,note_off,16,0,0,,11,,,70,127
59903,note_off,93,0,0,,11,,,82,127
59904,note_on,1,0,0,,8,,,80,127
59904,note_on,0,0,0,,0,,,72,127
59920,note_off,16,0,0,,3,,,63,127
60014,note_on,94,0,0,,3,,,63,127
60030,note_off,16,0,0,,0,,,72,127
60123,note_off,93,0,0,,8,,,80,127
60124,note_on,1,0,0,,1,,,49,127
60124,note_on,0,0,0,,11,,,70,127
60140,note_off,16,0,0,,3,,,63,127
60234,note_on,94,0,0,,3,,,63,127
60250,note_off,16,0,0,,11,,,70,127
60344,note_on,94,0,0,,8,,,68,127
60360,note_off,16,0,0,,3,,,63,127
60454,note_on,94,0,0,,3,,,63,127
60470,note_off,16,0,0,,8,,,68,127
60563,note_off,93,0,0,,1,,,49,127
60564,note_on,1,0,0,,11,,,82,127
60564,note_on,0,0,0,,7,,,67,127
60580,note_off,16,0,0,,3,,,63,127
60674,note_on,94,0,0,,3,,,63,127
60690,note_off,16,0,0,,7,,,67,127
60783,note_off,93,0,0,,11,,,82,127
60784,note_on,1,0,0,,0,,,84,127
60784,note_on,0,0,0,,8,,,68,127
60800,note_off,16,0,0,,3,,,63,127
60894,note_on,94,0,0,,3,,,63,127
60910,note_off,16,0,0,,8,,,68,127
61003,note_off,93,0,0,,0,,,84,127
61004,note_on,1,0,0,,11,,,82,127
61004,note_on,0,0,0,,11,,,70,127
61020,note_off,16,0,0,,3,,,63,127
61114,note_on,94,0,0,,3,,,63,127
61130,note_off,16,0,0,,11,,,70,127
61223,note_off,93,0,0,,11,,,82,127
61224,note_on,1,0,0,,8,,,80,127
61224,note_on,0,0,0,,0,,,72,127
61240,note_off,16,0,0,,3,,,63,127
61334,note_on,94,0,0,,3,,,63,127
61350,note_off,16,0,0,,0,,,72,127
61443,note_off,93,0,0,,8,,,80,127
61444,note_on,1,0,0,,0,,,48,127
61444,note_on,0,0,0,,8,,,68,127
61460,note_off,16,0,0,,3,,,63,127
61554,note_on,94,0,0,,3,,,63,127
61609,note_off,55,0,0,,8,,,68,127
61664,note_on,55,0,0,,3,,,75,127
61719,note_off,55,0,0,,3,,,63,127
61774,note_on,55,0,0,,3,,,63,127
61829,note_off,55,0,0,,3,,,75,127
61884,note_on,55,0,0,,7,,,67,127
61939,note_off,55,0,0,,3,,,63,127
61994,note_on,55,0,0,,3,,,63,127
62049,note_off,55,0,0,,7,,,67,127
62103,note_off,54,0,0,,0,,,48,127
62104,note_on,1,0,0,,0,,,48,127
62104,note_on,0,0,0,,8,,,68,127
62159,note_off,55,0,0,,3,,,63,127
62214,note_on,55,0,0,,3,,,63,127
62269,note_off,55,0,0,,8,,,68,127
62323,note_off,54,0,0,,0,,,48,127
62324,note_on,1,0,0,,11,,,46,127
62324,note_on,0,0,0,,11,,,70,127
62379,note_off,55,0,0,,3,,,63,127
62434,note_on,55,0,0,,3,,,63,127
62489,note_off,55,0,0,,11,,,70,127
62543,note_off,54,0,0,,11,,,46,127
62544,note_on,1,0,0,,8,,,44,127
62544,note_on,0,0,0,,0,,,72,127
62599,note_off,55,0,0,,3,,,63,127
62654,note_on,55,0,0,,3,,,63,127
62709,note_off,55,0,0,,0,,,72,127
62763,note_off,54,0,0,,8,,,44,127
62764,note_on,1,0,0,,1,,,49,127
62764,note_on,0,0,0,,11,,,70,127
62819,note_off,55,0,0,,3,,,63,127
62874,note_on,55,0,0,,1,,,61,127
62929,note_off,55,0,0,,11,,,70,127
62983,note_off,54,0,0,,1,,,49,127
62984,note_on,1,0,0,,0,,,48,127
62984,note_on,0,0,0,,0,,,72,127
63039,note_off,55,0,0,,1,,,61,127
63094,note_on,55,0,0,,3,,,63,127
63149,note_off,55,0,0,,0,,,72,127
63203,note_off,54,0,0,,0,,,48,127
63204,note_on,1,0,0,,11,,,46,127
63204,note_on,0,0,0,,1,,,73,127
63259,note_off,55,0,0,,3,,,63,127
63314,note_on,55,0,0,,5,,,65,127
63369,note_off,55,0,0,,1,,,73,127
63423,note_off,54,0,0,,11,,,46,127
63424,note_on,1,0,0,,3,,,51,127
63424,note_on,0,0,0,,1,,,73,127
63479,note_off,55,0,0,,5,,,65,127
63534,note_on,55,0,0,,5,,,65,127
63589,note_off,55,0,0,,1,,,73,127
63644,note_on,55,0,0,,0,,,72,127
63699,note_off,55,0,0,,5,,,65,127
63754,note_on,55,0,0,,3,,,63,127
63809,note_off,55,0,0,,0,,,72,127
63863,note_off,54,0,0,,3,,,51,127
63864,note_on,1,0,0,,6,,,54,127
63864,note_on,0,0,0,,11,,,70,127
63919,note_off,55,0,0,,3,,,63,127
63974,note_on,55,0,0,,1,,,61,127
64029,note_off,55,0,0,,11,,,70,127
64083,note_off,54,0,0,,6,,,54,127
64084,note_on,1,0,0,,5,,,53,127
64084,note_on,0,0,0,,11,,,70,127
64139,note_off,55,0,0,,1,,,61,127
64194,note_on,55,0,0,,1,,,61,127
64249,note_off,55,0,0,,11,,,70,127
64304,note_on,55,0,0,,10,,,69,127
64359,note_off,55,0,0,,1,,,61,127
64414,note_on,55,0,0,,0,,,60,127
64469,note_off,55,0,0,,10,,,69,127
64523,note_off,54,0,0,,5,,,53,127
64524,note_on,1,0,0,,3,,,51,127
64524,note_on,0,0,0,,10,,,69,127
64579,note_off,55,0,0,,0,,,60,127
64634,note_on,55,0,0,,0,,,60,127
64689,note_off,55,0,0,,10,,,69,127
64743,note_off,54,0,0,,3,,,51,127
64744,note_on,1,0,0,,1,,,49,127
64744,note_on,0,0,0,,11,,,70,127
64799,note_off,55,0,0,,0,,,60,127
64854,note_on,55,0,0,,1,,,61,127
64909,note_off,55,0,0,,11,,,70,127
64963,note_off,54,0,0,,1,,,49,127
64964,note_on,1,0,0,,0,,,48,127
64964,note_on,0,0,0,,0,,,72,127
65019,note_off,55,0,0,,1,,,61,127
65074,note_on,55,0,0,,3,,,63,127
65129,note_off,55,0,0,,0,,,72,127
65183,note_off,54,0,0,,0,,,48,127
65184,note_on,1,0,0,,11,,,46,127
65184,note_on,0,0,0,,1,,,73,127
65239,note_off,55,0,0,,3,,,63,127
65294,note_on,55,0,0,,5,,,65,127
65349,note_off,55,0,0,,1,,,73,127
65403,note_off,54,0,0,,11,,,46,127
65404,note_on,1,0,0,,3,,,51,127
65404,note_on,0,0,0,,0,,,72,127
65459,note_off,55,0,0,,5,,,65,127
65514,note_on,55,0,0,,3,,,63,127
65569,note_off,55,0,0,,0,,,72,127
65624,note_on,55,0,0,,1,,,73,127
65679,note_off,55,0,0,,3,,,63,127
65734,note_on,55,0,0,,5,,,65,127
65789,note_off,55,0,0,,1,,,73,127
65844,note_on,55,0,0,,3,,,75,127
65899,note_off,55,0,0,,5,,,65,127
65954,note_on,55,0,0,,6,,,66,127
66009,note_off,55,0,0,,3,,,75,127
66063,note_off,54,0,0,,3,,,51,127
66064,note_on,1,0,0,,5,,,53,127
66064,note_on,0,0,0,,3,,,75,127
66119,note_off,55,0,0,,6,,,66,127
66174,note_on,55,0,0,,6,,,66,127
66229,note_off,55,0,0,,3,,,75,127
66284,note_on,55,0,0,,1,,,73,127
66339,note_off,55,0,0,,6,,,66,127
66394,note_on,55,0,0,,5,,,65,127
66449,note_off,55,0,0,,1,,,73,127
66503,note_off,54,0,0,,5,,,53,127
66504,note_on,1,0,0,,8,,,56,127
66504,note_on,0,0,0,,0,,,72,127
66559,note_off,55,0,0,,5,,,65,127
66614,note_on,55,0,0,,3,,,63,127
66669,note_off,55,0,0,,0,,,72,127
66723,note_off,54,0,0,,8,,,56,127
66724,note_on,1,0,0,,7,,,55,127
66724,note_on,0,0,0,,0,,,72,127
66779,note_off,55,0,0,,3,,,63,127
66834,note_on,55,0,0,,3,,,63,127
66889,note_off,55,0,0,,0,,,72,127
66944,note_on,55,0,0,,12,,,71,127
66999,note_off,55,0,0,,3,,,63,127
67054,note_on,55,0,0,,2,,,62,127
67109,note_off,55,0,0,,12,,,71,127
67163,note_off,54,0,0,,7,,,55,127
67164,note_on,1,0,0,,2,,,50,127
67164,note_on,0,0,0,,12,,,71,127
67219,note_off,55,0,0,,2,,,62,127
67274,note_on,55,0,0,,2,,,62,127
67329,note_off,55,0,0,,12,,,71,127
67383,note_off,54,0,0,,2,,,50,127
67384,note_on,1,0,0,,3,,,51,127
67384,note_on,0,0,0,,0,,,72,127
67439,note_off,55,0,0,,2,,,62,127
67494,note_on,55,0,0,,3,,,63,127
67549,note_off,55,0,0,,0,,,72,127
67603,note_off,54,0,0,,3,,,51,127
67604,note_on,1,0,0,,2,,,50,127
67604,note_on,0,0,0,,2,,,74,127
67659,note_off,55,0,0,,3,,,63,127
67714,note_on,55,0,0,,5,,,65,127
67769,note_off,55,0,0,,2,,,74,127
67823,note_off,54,0,0,,2,,,50,127
67824,note_on,1,0,0,,0,,,48,127
67824,note_on,0,0,0,,3,,,75,127
67879,note_off,55,0,0,,5,,,65,127
67934,note_on,55,0,0,,7,,,67,127
67989,note_off,55,0,0,,3,,,75,127
68043,note_off,54,0,0,,0,,,48,127
68044,note_on,1,0,0,,5,,,53,127
68044,note_on,0,0,0,,2,,,74,127
68099,note_off,55,0,0,,7,,,67,127
68154,note_on,55,0,0,,5,,,65,127
68209,note_off,55,0,0,,2,,,74,127
68263,note_off,54,0,0,,5,,,53,127
68264,note_on,1,0,0,,7,,,55,127
68264,note_on,0,0,0,,3,,,75,127
68319,note_off,55,0,0,,5,,,65,127
68374,note_on,55,0,0,,7,,,67,127
68429,note_off,55,0,0,,3,,,75,127
68483,note_off,54,0,0,,7,,,55,127
68484,note_on,1,0,0,,8,,,56,127
68484,note_on,0,0,0,,5,,,77,127
68539,note_off,55,0,0,,7,,,67,127
68594,note_on,55,0,0,,8,,,68,127
68649,note_off,55,0,0,,5,,,77,127
68703,note_off,54,0,0,,8,,,56,127
68704,note_on,1,0,0,,7,,,55,127
68704,note_on,0,0,0,,5,,,77,127
68704,note_on,0,0,0,,2,,,74,127
68759,note_off,55,0,0,,8,,,68,127
68813,note_off,54,0,0,,2,,,74,127
68814,note_on,1,0,0,,7,,,67,127
68923,note_off,109,0,0,,7,,,67,127
68923,note_off,0,0,0,,5,,,77,127
68923,note_off,0,0,0,,7,,,55,127
68924,note_on,1,0,0,,5,,,53,127
68924,note_on,0,0,0,,3,,,75,127
68924,note_on,0,0,0,,0,,,72,127
69033,note_off,109,0,0,,0,,,72,127
69034,note_on,1,0,0,,7,,,67,127
69143,note_off,109,0,0,,7,,,67,127
69143,note_off,0,0,0,,3,,,75,127
69143,note_off,0,0,0,,5,,,53,127
69144,note_on,1,0,0,,7,,,55,127
69144,note_on,0,0,0,,2,,,74,127
69144,note_on,0,0,0,,12,,,71,127
69253,note_off,109,0,0,,12,,,71,127
69254,note_on,1,0,0,,7,,,67,127
69363,note_off,109,0,0,,7,,,67,127
69363,note_off,0,0,0,,2,,,74,127
69363,note_off,0,0,0,,7,,,55,127
69364,note_on,1,0,0,,0,,,48,127
69364,note_on,0,0,0,,2,,,74,127
69418,note_off,54,0,0,,2,,,74,127
69419,note_on,1,0,0,,0,,,72,127
69473,note_off,54,0,0,,0,,,72,127
69474,note_on,1,0,0,,2,,,74,127
69528,note_off,54,0,0,,2,,,74,127
69529,note_on,1,0,0,,0,,,72,127
69583,note_off,54,0,0,,0,,,72,127
69584,note_on,1,0,0,,2,,,74,127
69638,note_off,54,0,0,,2,,,74,127
69639,note_on,1,0,0,,0,,,72,127
69802,note_off,163,0,0,,0,,,72,127
69802,note_off,0,0,0,,0,,,48,127
69803,note_on,1,0,0,,0,,,60,127
69803,note_on,0,0,0,,7,,,67,127
70021,note_off,218,0,0,,7,,,67,127
70021,note_off,0,0,0,,0,,,60,127
70022,note_on,1,0,0,,0,,,60,127
70022,note_on,0,0,0,,5,,,65,127
70022,note_on,0,0,0,,7,,,67,127
70094,note_off,72,0,0,,7,,,67,127
70095,note_on,1,0,0,,8,,,68,127
70167,note_off,72,0,0,,8,,,68,127
70168,note_on,1,0,0,,11,,,70,127
70240,note_off,72,0,0,,5,,,65,127
70240,note_off,0,0,0,,0,,,60,127
70241,note_on,1,0,0,,5,,,65,127
70241,note_on,0,0,0,,0,,,60,127
70295,note_off,54,0,0,,11,,,70,127
70296,note_on,1,0,0,,8,,,68,127
70350,note_off,54,0,0,,8,,,68,127
70351,note_on,1,0,0,,11,,,70,127
70405,note_off,54,0,0,,11,,,70,127
70406,note_on,1,0,0,,8,,,68,127
70460,note_off,54,0,0,,8,,,68,127
70460,note_off,0,0,0,,0,,,60,127
70460,note_off,0,0,0,,5,,,65,127
70461,note_on,1,0,0,,0,,,60,127
70461,note_on,0,0,0,,5,,,65,127
70461,note_on,0,0,0,,11,,,70,127
70515,note_off,54,0,0,,11,,,70,127
70516,note_on,1,0,0,,8,,,68,127
70570,note_off,54,0,0,,8,,,68,127
70571,note_on,1,0,0,,7,,,67,127
70625,note_off,54,0,0,,7,,,67,127
70626,note_on,1,0,0,,8,,,68,127
70680,note_off,54,0,0,,8,,,68,127
70680,note_off,0,0,0,,5,,,65,127
70680,note_off,0,0,0,,0,,,60,127
70681,note_on,1,0,0,,4,,,64,127
70681,note_on,0,0,0,,0,,,60,127
70681,note_on,0,0,0,,8,,,68,127
70899,note_off,218,0,0,,8,,,68,127
70899,note_off,0,0,0,,0,,,60,127
70899,note_off,0,0,0,,4,,,64,127
70900,note_on,1,0,0,,0,,,60,127
70900,note_on,0,0,0,,4,,,64,127
70900,note_on,0,0,0,,7,,,67,127
71118,note_off,218,0,0,,7,,,67,127
71118,note_off,0,0,0,,4,,,64,127
71118,note_off,0,0,0,,0,,,60,127
71119,note_on,1,0,0,,4,,,64,127
71119,note_on,0,0,0,,0,,,60,127
71119,note_on,0,0,0,,0,,,72,127
71228,note_off,109,0,0,,0,,,72,127
71229,note_on,1,0,0,,8,,,68,127
71338,note_off,109,0,0,,8,,,68,127
71338,note_off,0,0,0,,0,,,60,127
71338,note_off,0,0,0,,4,,,64,127
71339,note_on,1,0,0,,0,,,60,127
71339,note_on,0,0,0,,1,,,61,127
71339,note_on,0,0,0,,7,,,67,127
71557,note_off,218,0,0,,7,,,67,127
71557,note_off,0,0,0,,1,,,61,127
71557,note_off,0,0,0,,0,,,60,127
71558,note_on,1,0,0,,11,,,58,127
71558,note_on,0,0,0,,1,,,61,127
71558,note_on,0,0,0,,7,,,67,127
71612,note_off,54,0,0,,7,,,67,127
71613,note_on,1,0,0,,5,,,65,127
71667,note_off,54,0,0,,5,,,65,127
71668,note_on,1,0,0,,7,,,67,127
71722,note_off,54,0,0,,7,,,67,127
71723,note_on,1,0,0,,5,,,65,127
71777,note_off,54,0,0,,5,,,65,127
71777,note_off,0,0,0,,1,,,61,127
71777,note_off,0,0,0,,11,,,58,127
71778,note_on,1,0,0,,11,,,58,127
71778,note_on,0,0,0,,1,,,61,127
71778,note_on,0,0,0,,7,,,67,127
71832,note_off,54,0,0,,7,,,67,127
71833,note_on,1,0,0,,5,,,65,127
71887,note_off,54,0,0,,5,,,65,127
71888,note_on,1,0,0,,4,,,64,127
71942,note_off,54,0,0,,4,,,64,127
71943,note_on,1,0,0,,5,,,65,127
71997,note_off,54,0,0,,5,,,65,127
71997,note_off,0,0,0,,1,,,61,127
71997,note_off,0,0,0,,11,,,58,127
71998,note_on,1,0,0,,0,,,48,127
71998,note_on,0,0,0,,5,,,65,127
72216,note_off,218,0,0,,5,,,65,127
72217,note_on,1,0,0,,4,,,64,127
72435,note_off,218,0,0,,4,,,64,127
72435,note_off,0,0,0,,0,,,48,127
72436,note_on,1,0,0,,0,,,60,127
72436,note_on,0,0,0,,7,,,67,127
72654,note_off,218,0,0,,7,,,67,127
72654,note_off,0,0,0,,0,,,60,127
72655,note_on,1,0,0,,5,,,65,127
72655,note_on,0,0,0,,0,,,60,127
72655,note_on,0,0,0,,7,,,67,127
72727,note_off,72,0,0,,7,,,67,127
72728,note_on,1,0,0,,8,,,68,127
72800,note_off,72,0,0,,8,,,68,127
72801,note_on,1,0,0,,11,,,70,127
72873,note_off,72,0,0,,0,,,60,127
72873,note_off,0,0,0,,5,,,65,127
72874,note_on,1,0,0,,0,,,60,127
72874,note_on,0,0,0,,5,,,65,127
72928,note_off,54,0,0,,11,,,70,127
72929,note_on,1,0,0,,8,,,68,127
72983,note_off,54,0,0,,8,,,68,127
72984,note_on,1,0,0,,11,,,70,127
73038,note_off,54,0,0,,11,,,70,127
73039,note_on,1,0,0,,8,,,68,127
73093,note_off,54,0,0,,8,,,68,127
73093,note_off,0,0,0,,5,,,65,127
73093,note_off,0,0,0,,0,,,60,127
73094,note_on,1,0,0,,5,,,65,127
73094,note_on,0,0,0,,0,,,60,127
73094,note_on,0,0,0,,11,,,70,127
73148,note_off,54,0,0,,11,,,70,127
73149,note_on,1,0,0,,8,,,68,127
73203,note_off,54,0,0,,8,,,68,127
73204,note_on,1,0,0,,7,,,67,127
73258,note_off,54,0,0,,7,,,67,127
73259,note_on,1,0,0,,8,,,68,127
73313,note_off,54,0,0,,8,,,68,127
73313,note_off,0,0,0,,0,,,60,127
73313,note_off,0,0,0,,5,,,65,127
73314,note_on,1,0,0,,4,,,64,127
73314,note_on,0,0,0,,0,,,60,127
73314,note_on,0,0,0,,8,,,68,127
73532,note_off,218,0,0,,8,,,68,127
73532,note_off,0,0,0,,0,,,60,127
73532,note_off,0,0,0,,4,,,64,127
73533,note_on,1,0,0,,0,,,60,127
73533,note_on,0,0,0,,4,,,64,127
73533,note_on,0,0,0,,7,,,67,127
73751,note_off,218,0,0,,7,,,67,127
73751,note_off,0,0,0,,4,,,64,127
73751,note_off,0,0,0,,0,,,60,127
73752,note_on,1,0,0,,0,,,60,127
73752,note_on,0,0,0,,4,,,64,127
73752,note_on,0,0,0,,0,,,72,127
73861,note_off,109,0,0,,0,,,72,127
73862,note_on,1,0,0,,8,,,68,127
73971,note_off,109,0,0,,8,,,68,127
73971,note_off,0,0,0,,4,,,64,127
73971,note_off,0,0,0,,0,,,60,127
73972,note_on,1,0,0,,1,,,61,127
73972,note_on,0,0,0,,0,,,60,127
73972,note_on,0,0,0,,7,,,67,127
74190,note_off,218,0,0,,7,,,67,127
74190,note_off,0,0,0,,0,,,60,127
74190,note_off,0,0,0,,1,,,61,127
74191,note_on,1,0,0,,11,,,58,127
74191,note_on,0,0,0,,1,,,61,127
74191,note_on,0,0,0,,7,,,67,127
74245,note_off,54,0,0,,7,,,67,127
74246,note_on,1,0,0,,5,,,65,127
74300,note_off,54,0,0,,5,,,65,127
74301,note_on,1,0,0,,7,,,67,127
74355,note_off,54,0,0,,7,,,67,127
74356,note_on,1,0,0,,5,,,65,127
74410,note_off,54,0,0,,5,,,65,127
74410,note_off,0,0,0,,1,,,61,127
74410,note_off,0,0,0,,11,,,58,127
74411,note_on,1,0,0,,11,,,58,127
74411,note_on,0,0,0,,1,,,61,127
74411,note_on,0,0,0,,7,,,67,127
74465,note_off,54,0,0,,7,,,67,127
74466,note_on,1,0,0,,5,,,65,127
74520,note_off,54,0,0,,5,,,65,127
74521,note_on,1,0,0,,4,,,64,127
74575,note_off,54,0,0,,4,,,64,127
74576,note_on,1,0,0,,5,,,65,127
74630,note_off,54,0,0,,5,,,65,127
74630,note_off,0,0,0,,1,,,61,127
74630,note_off,0,0,0,,11,,,58,127
74631,note_on,1,0,0,,0,,,48,127
74631,note_on,0,0,0,,5,,,65,127
74685,note_off,54,0,0,,5,,,65,127
74686,note_on,1,0,0,,4,,,64,127
74740,note_off,54,0,0,,4,,,64,127
74741,note_on,1,0,0,,5,,,65,127
74795,note_off,54,0,0,,5,,,65,127
74796,note_on,1,0,0,,4,,,64,127
74850,note_off,54,0,0,,4,,,64,127
74851,note_on,1,0,0,,5,,,65,127
74905,note_off,54,0,0,,5,,,65,127
74906,note_on,1,0,0,,4,,,64,127
74960,note_off,54,0,0,,4,,,64,127
74961,note_on,1,0,0,,5,,,65,127
75015,note_off,54,0,0,,5,,,65,127
75016,note_on,1,0,0,,4,,,64,127
75070,note_off,54,0,0,,0,,,48,127
75071,note_on,1,0,0,,11,,,82,127
75181,note_on,110,0,0,,0,,,60,127
75288,note_off,107,0,0,,4,,,64,127
75289,note_off,1,0,0,,0,,,60,127
75289,note_off,0,0,0,,11,,,82,127
75290,note_on,1,0,0,,11,,,82,127
75290,note_on,0,0,0,,5,,,65,127
75344,note_off,54,0,0,,11,,,82,127
75345,note_on,1,0,0,,8,,,80,127
75399,note_off,54,0,0,,8,,,80,127
75400,note_on,1,0,0,,11,,,82,127
75400,note_on,0,0,0,,0,,,60,127
75416,note_off,16,0,0,,5,,,65,127
75454,note_off,38,0,0,,11,,,82,127
75455,note_on,1,0,0,,8,,,80,127
75509,note_off,54,0,0,,8,,,80,127
75510,note_on,1,0,0,,7,,,79,127
75510,note_on,0,0,0,,7,,,67,127
75526,note_off,16,0,0,,0,,,60,127
75620,note_on,94,0,0,,0,,,60,127
75636,note_off,16,0,0,,7,,,67,127
75729,note_off,93,0,0,,7,,,79,127
75730,note_on,1,0,0,,5,,,77,127
75730,note_on,0,0,0,,8,,,68,127
75746,note_off,16,0,0,,0,,,60,127
75840,note_on,94,0,0,,0,,,60,127
75856,note_off,16,0,0,,8,,,68,127
75949,note_off,93,0,0,,5,,,77,127
75950,note_on,1,0,0,,0,,,48,127
75950,note_on,0,0,0,,7,,,67,127
75966,note_off,16,0,0,,0,,,60,127
76060,note_on,94,0,0,,0,,,60,127
76076,note_off,16,0,0,,7,,,67,127
76170,note_on,94,0,0,,5,,,65,127
76186,note_off,16,0,0,,0,,,60,127
76280,note_on,94,0,0,,0,,,60,127
76296,note_off,16,0,0,,5,,,65,127
76389,note_off,93,0,0,,0,,,48,127
76390,note_on,1,0,0,,11,,,82,127
76390,note_on,0,0,0,,4,,,64,127
76406,note_off,16,0,0,,0,,,60,127
76500,note_on,94,0,0,,0,,,60,127
76516,note_off,16,0,0,,4,,,64,127
76609,note_off,93,0,0,,11,,,82,127
76610,note_on,1,0,0,,11,,,82,127
76610,note_on,0,0,0,,5,,,65,127
76626,note_off,16,0,0,,0,,,60,127
76664,note_off,38,0,0,,11,,,82,127
76665,note_on,1,0,0,,8,,,80,127
76719,note_off,54,0,0,,8,,,80,127
76720,note_on,1,0,0,,11,,,82,127
76720,note_on,0,0,0,,0,,,60,127
76736,note_off,16,0,0,,5,,,65,127
76774,note_off,38,0,0,,11,,,82,127
76775,note_on,1,0,0,,8,,,80,127
76829,note_off,54,0,0,,8,,,80,127
76830,note_on,1,0,0,,7,,,79,127
76830,note_on,0,0,0,,7,,,67,127
76846,note_off,16,0,0,,0,,,60,127
76940,note_on,94,0,0,,0,,,60,127
76956,note_off,16,0,0,,7,,,67,127
77049,note_off,93,0,0,,7,,,79,127
77050,note_on,1,0,0,,5,,,77,127
77050,note_on,0,0,0,,8,,,68,127
77066,note_off,16,0,0,,0,,,60,127
77160,note_on,94,0,0,,0,,,60,127
77176,note_off,16,0,0,,8,,,68,127
77269,note_off,93,0,0,,5,,,77,127
77270,note_on,1,0,0,,11,,,46,127
77270,note_on,0,0,0,,7,,,67,127
77286,note_off,16,0,0,,0,,,60,127
77380,note_on,94,0,0,,0,,,60,127
77396,note_off,16,0,0,,7,,,67,127
77490,note_on,94,0,0,,5,,,65,127
77506,note_off,16,0,0,,0,,,60,127
77600,note_on,94,0,0,,0,,,60,127
77616,note_off,16,0,0,,5,,,65,127
77709,note_off,93,0,0,,11,,,46,127
77710,note_on,1,0,0,,11,,,82,127
77710,note_on,0,0,0,,4,,,64,127
77726,note_off,16,0,0,,0,,,60,127
77820,note_on,94,0,0,,0,,,60,127
77836,note_off,16,0,0,,4,,,64,127
77929,note_off,93,0,0,,11,,,82,127
77930,note_on,1,0,0,,11,,,82,127
77930,note_on,0,0,0,,5,,,65,127
77946,note_off,16,0,0,,0,,,60,127
77984,note_off,38,0,0,,11,,,82,127
77985,note_on,1,0,0,,8,,,80,127
78039,note_off,54,0,0,,8,,,80,127
78040,note_on,1,0,0,,11,,,82,127
78040,note_on,0,0,0,,0,,,60,127
78056,note_off,16,0,0,,5,,,65,127
78094,note_off,38,0,0,,11,,,82,127
78095,note_on,1,0,0,,8,,,80,127
78149,note_off,54,0,0,,8,,,80,127
78150,note_on,1,0,0,,7,,,79,127
78150,note_on,0,0,0,,7,,,67,127
78166,note_off,16,0,0,,0,,,60,127
78260,note_on,94,0,0,,0,,,60,127
78276,note_off,16,0,0,,7,,,67,127
78369,note_off,93,0,0,,7,,,79,127
78370,note_on,1,0,0,,5,,,77,127
78370,note_on,0,0,0,,8,,,68,127
78386,note_off,16,0,0,,0,,,60,127
78480,note_on,94,0,0,,0,,,60,127
78496,note_off,16,0,0,,8,,,68,127
78589,note_off,93,0,0,,5,,,77,127
78590,note_on,1,0,0,,8,,,44,127
78590,note_on,0,0,0,,5,,,65,127
78606,note_off,16,0,0,,0,,,60,127
78700,note_on,94,0,0,,0,,,60,127
78716,note_off,16,0,0,,5,,,65,127
78810,note_on,94,0,0,,0,,,72,127
78826,note_off,16,0,0,,0,,,60,127
78920,note_on,94,0,0,,0,,,60,127
78936,note_off,16,0,0,,0,,,72,127
79029,note_off,93,0,0,,8,,,44,127
79030,note_on,1,0,0,,11,,,82,127
79030,note_on,0,0,0,,4,,,64,127
79046,note_off,16,0,0,,0,,,60,127
79140,note_on,94,0,0,,0,,,60,127
79156,note_off,16,0,0,,4,,,64,127
79249,note_off,93,0,0,,11,,,82,127
79250,note_on,1,0,0,,11,,,82,127
79250,note_on,0,0,0,,5,,,65,127
79266,note_off,16,0,0,,0,,,60,127
79304,note_off,38,0,0,,11,,,82,127
79305,note_on,1,0,0,,8,,,80,127
79359,note_off,54,0,0,,8,,,80,127
79360,note_on,1,0,0,,11,,,82,127
79360,note_on,0,0,0,,0,,,60,127
79376,note_off,16,0,0,,5,,,65,127
79414,note_off,38,0,0,,11,,,82,127
79415,note_on,1,0,0,,8,,,80,127
79469,note_off,54,0,0,,8,,,80,127
79470,note_on,1,0,0,,7,,,79,127
79470,note_on,0,0,0,,7,,,67,127
79486,note_off,16,0,0,,0,,,60,127
79580,note_on,94,0,0,,0,,,60,127
79596,note_off,16,0,0,,7,,,67,127
79689,note_off,93,0,0,,7,,,79,127
79690,note_on,1,0,0,,5,,,77,127
79690,note_on,0,0,0,,8,,,68,127
79706,note_off,16,0,0,,0,,,60,127
79800,note_on,94,0,0,,0,,,60,127
79816,note_off,16,0,0,,8,,,68,127
79909,note_off,93,0,0,,5,,,77,127
79910,note_on,1,0,0,,11,,,46,127
79910,note_on,0,0,0,,7,,,67,127
79926,note_off,16,0,0,,0,,,60,127
80020,note_on,94,0,0,,0,,,60,127
80036,note_off,16,0,0,,7,,,67,127
80129,note_off,93,0,0,,11,,,46,127
80130,note_on,1,0,0,,0,,,48,127
80130,note_on,0,0,0,,8,,,68,127
80146,note_off,16,0,0,,0,,,60,127
80240,note_on,94,0,0,,0,,,60,127
80256,note_off,16,0,0,,8,,,68,127
80349,note_off,93,0,0,,0,,,48,127
80350,note_on,1,0,0,,1,,,49,127
80350,note_on,0,0,0,,11,,,70,127
80366,note_off,16,0,0,,0,,,60,127
80460,note_on,94,0,0,,0,,,60,127
80476,note_off,16,0,0,,11,,,70,127
80569,note_off,93,0,0,,1,,,49,127
80570,note_on,1,0,0,,0,,,48,127
80570,note_on,0,0,0,,7,,,67,127
80570,note_on,0,0,0,,11,,,70,127
80586,note_off,16,0,0,,0,,,60,127
80680,note_on,94,0,0,,0,,,60,127
80696,note_off,16,0,0,,7,,,67,127
80789,note_off,93,0,0,,11,,,70,127
80789,note_off,0,0,0,,0,,,48,127
80790,note_on,1,0,0,,11,,,46,127
80790,note_on,0,0,0,,8,,,68,127
80790,note_on,0,0,0,,5,,,65,127
80806,note_off,16,0,0,,0,,,60,127
80900,note_on,94,0,0,,0,,,60,127
80916,note_off,16,0,0,,5,,,65,127
81009,note_off,93,0,0,,8,,,68,127
81009,note_off,0,0,0,,11,,,46,127
81010,note_on,1,0,0,,0,,,48,127
81010,note_on,0,0,0,,7,,,67,127
81010,note_on,0,0,0,,4,,,64,127
81026,note_off,16,0,0,,0,,,60,127
81120,note_on,94,0,0,,0,,,60,127
81136,note_off,16,0,0,,4,,,64,127
81229,note_off,93,0,0,,7,,,67,127
81229,note_off,0,0,0,,0,,,48,127
81230,note_on,1,0,0,,5,,,41,127
81230,note_on,0,0,0,,5,,,65,127
81246,note_off,16,0,0,,0,,,60,127
81340,note_on,94,0,0,,0,,,60,127
81356,note_off,16,0,0,,5,,,65,127
81450,note_on,94,0,0,,0,,,72,127
81466,note_off,16,0,0,,0,,,60,127
81560,note_on,94,0,0,,0,,,60,127
81576,note_off,16,0,0,,0,,,72,127
81669,note_off,93,0,0,,5,,,41,127
81670,note_on,1,0,0,,11,,,82,127
81670,note_on,0,0,0,,4,,,64,127
81686,note_off,16,0,0,,0,,,60,127
81780,note_on,94,0,0,,0,,,60,127
81796,note_off,16,0,0,,4,,,64,127
81889,note_off,93,0,0,,11,,,82,127
81890,note_on,1,0,0,,11,,,82,127
81890,note_on,0,0,0,,5,,,65,127
81906,note_off,16,0,0,,0,,,60,127
81944,note_off,38,0,0,,11,,,82,127
81945,note_on,1,0,0,,8,,,80,127
81999,note_off,54,0,0,,8,,,80,127
82000,note_on,1,0,0,,11,,,82,127
82000,note_on,0,0,0,,0,,,60,127
82016,note_off,16,0,0,,5,,,65,127
82054,note_off,38,0,0,,11,,,82,127
82055,note_on,1,0,0,,8,,,80,127
82109,note_off,54,0,0,,8,,,80,127
82110,note_on,1,0,0,,7,,,79,127
82110,note_on,0,0,0,,7,,,67,127
82126,note_off,16,0,0,,0,,,60,127
82220,note_on,94,0,0,,0,,,60,127
82236,note_off,16,0,0,,7,,,67,127
82329,note_off,93,0,0,,7,,,79,127
82330,note_on,1,0,0,,5,,,77,127
82330,note_on,0,0,0,,8,,,68,127
82346,note_off,16,0,0,,0,,,60,127
82440,note_on,94,0,0,,0,,,60,127
82456,note_off,16,0,0,,8,,,68,127
82549,note_off,93,0,0,,5,,,77,127
82550,note_on,1,0,0,,0,,,48,127
82550,note_on,0,0,0,,7,,,67,127
82566,note_off,16,0,0,,0,,,60,127
82660,note_on,94,0,0,,0,,,60,127
82676,note_off,16,0,0,,7,,,67,127
82770,note_on,94,0,0,,5,,,65,127
82786,note_off,16,0,0,,0,,,60,127
82880,note_on,94,0,0,,0,,,60,127
82896,note_off,16,0,0,,5,,,65,127
82989,note_off,93,0,0,,0,,,48,127
82990,note_on,1,0,0,,11,,,82,127
82990,note_on,0,0,0,,4,,,64,127
83006,note_off,16,0,0,,0,,,60,127
83100,note_on,94,0,0,,0,,,60,127
83116,note_off,16,0,0,,4,,,64,127
83209,note_off,93,0,0,,11,,,82,127
83210,note_on,1,0,0,,11,,,82,127
83210,note_on,0,0,0,,5,,,65,127
83226,note_off,16,0,0,,0,,,60,127
83264,note_off,38,0,0,,11,,,82,127
83265,note_on,1,0,0,,8,,,80,127
83319,note_off,54,0,0,,8,,,80,127
83320,note_on,1,0,0,,11,,,82,127
83320,note_on,0,0,0,,0,,,60,127
83336,note_off,16,0,0,,5,,,65,127
83374,note_off,38,0,0,,11,,,82,127
83375,note_on,1,0,0,,8,,,80,127
83429,note_off,54,0,0,,8,,,80,127
83430,note_on,1,0,0,,7,,,79,127
83430,note_on,0,0,0,,7,,,67,127
83446,note_off,16,0,0,,0,,,60,127
83540,note_on,94,0,0,,0,,,60,127
83556,note_off,16,0,0,,7,,,67,127
83649,note_off,93,0,0,,7,,,79,127
83650,note_on,1,0,0,,5,,,77,127
83650,note_on,0,0,0,,8,,,68,127
83666,note_off,16,0,0,,0,,,60,127
83760,note_on,94,0,0,,0,,,60,127
83776,note_off,16,0,0,,8,,,68,127
83869,note_off,93,0,0,,5,,,77,127
83870,note_on,1,0,0,,11,,,46,127
83870,note_on,0,0,0,,7,,,67,127
83886,note_off,16,0,0,,0,,,60,127
83980,note_on,94,0,0,,0,,,60,127
83996,note_off,16,0,0,,7,,,67,127
84090,note_on,94,0,0,,5,,,65,127
84106,note_off,16,0,0,,0,,,60,127
84200,note_on,94,0,0,,0,,,60,127
84216,note_off,16,0,0,,5,,,65,127
84309,note_off,93,0,0,,11,,,46,127
84310,note_on,1,0,0,,11,,,82,127
84310,note_on,0,0,0,,4,,,64,127
84326,note_off,16,0,0,,0,,,60,127
84420,note_on,94,0,0,,0,,,60,127
84436,note_off,16,0,0,,4,,,64,127
84529,note_off,93,0,0,,11,,,82,127
84530,note_on,1,0,0,,11,,,82,127
84530,note_on,0,0,0,,5,,,65,127
84546,note_off,16,0,0,,0,,,60,127
84584,note_off,38,0,0,,11,,,82,127
84585,note_on,1,0,0,,8,,,80,127
84639,note_off,54,0,0,,8,,,80,127
84640,note_on,1,0,0,,11,,,82,127
84640,note_on,0,0,0,,0,,,60,127
84656,note_off,16,0,0,,5,,,65,127
84694,note_off,38,0,0,,11,,,82,127
84695,note_on,1,0,0,,8,,,80,127
84749,note_off,54,0,0,,8,,,80,127
84750,note_on,1,0,0,,7,,,79,127
84750,note_on,0,0,0,,7,,,67,127
84766,note_off,16,0,0,,0,,,60,127
84860,note_on,94,0,0,,0,,,60,127
84876,note_off,16,0,0,,7,,,67,127
84969,note_off,93,0,0,,7,,,79,127
84970,note_on,1,0,0,,5,,,77,127
84970,note_on,0,0,0,,8,,,68,127
84986,note_off,16,0,0,,0,,,60,127
85080,note_on,94,0,0,,0,,,60,127
85096,note_off,16,0,0,,8,,,68,127
85189,note_off,93,0,0,,5,,,77,127
85190,note_on,1,0,0,,8,,,44,127
85190,note_on,0,0,0,,5,,,65,127
85206,note_off,16,0,0,,0,,,60,127
85300,note_on,94,0,0,,0,,,60,127
85316,note_off,16,0,0,,5,,,65,127
85410,note_on,94,0,0,,0,,,72,127
85426,note_off,16,0,0,,0,,,60,127
85520,note_on,94,0,0,,0,,,60,127
85536,note_off,16,0,0,,0,,,72,127
85629,note_off,93,0,0,,8,,,44,127
85630,note_on,1,0,0,,11,,,82,127
85630,note_on,0,0,0,,4,,,64,127
85646,note_off,16,0,0,,0,,,60,127
85740,note_on,94,0,0,,0,,,60,127
85756,note_off,16,0,0,,4,,,64,127
85849,note_off,93,0,0,,11,,,82,127
85850,note_on,1,0,0,,11,,,82,127
85850,note_on,0,0,0,,5,,,65,127
85866,note_off,16,0,0,,0,,,60,127
85904,note_off,38,0,0,,11,,,82,127
85905,note_on,1,0,0,,8,,,80,127
85959,note_off,54,0,0,,8,,,80,127
85960,note_on,1,0,0,,11,,,82,127
85960,note_on,0,0,0,,0,,,60,127
85976,note_off,16,0,0,,5,,,65,127
86014,note_off,38,0,0,,11,,,82,127
86015,note_on,1,0,0,,8,,,80,127
86069,note_off,54,0,0,,8,,,80,127
86070,note_on,1,0,0,,7,,,79,127
86070,note_on,0,0,0,,7,,,67,127
86086,note_off,16,0,0,,0,,,60,127
86180,note_on,94,0,0,,0,,,60,127
86196,note_off,16,0,0,,7,,,67,127
86289,note_off,93,0,0,,7,,,79,127
86290,note_on,1,0,0,,5,,,77,127
86290,note_on,0,0,0,,8,,,68,127
86306,note_off,16,0,0,,0,,,60,127
86400,note_on,94,0,0,,0,,,60,127
86416,note_off,16,0,0,,8,,,68,127
86509,note_off,93,0,0,,5,,,77,127
86510,note_on,1,0,0,,11,,,46,127
86510,note_on,0,0,0,,7,,,67,127
86526,note_off,16,0,0,,0,,,60,127
86620,note_on,94,0,0,,0,,,60,127
86636,note_off,16,0,0,,7,,,67,127
86729,note_off,93,0,0,,11,,,46,127
86730,note_on,1,0,0,,0,,,48,127
86730,note_on,0,0,0,,8,,,68,127
86746,note_off,16,0,0,,0,,,60,127
86840,note_on,94,0,0,,0,,,60,127
86856,note_off,16,0,0,,8,,,68,127
86949,note_off,93,0,0,,0,,,48,127
86950,note_on,1,0,0,,1,,,49,127
86950,note_on,0,0,0,,11,,,70,127
86966,note_off,16,0,0,,0,,,60,127
87060,note_on,94,0,0,,0,,,60,127
87076,note_off,16,0,0,,11,,,70,127
87169,note_off,93,0,0,,1,,,49,127
87170,note_on,1,0,0,,0,,,48,127
87170,note_on,0,0,0,,11,,,70,127
87170,note_on,0,0,0,,7,,,67,127
87186,note_off,16,0,0,,0,,,60,127
87280,note_on,94,0,0,,0,,,60,127
87296,note_off,16,0,0,,7,,,67,127
87389,note_off,93,0,0,,11,,,70,127
87389,note_off,0,0,0,,0,,,48,127
87390,note_on,1,0,0,,11,,,46,127
87390,note_on,0,0,0,,5,,,65,127
87390,note_on,0,0,0,,8,,,68,127
87406,note_off,16,0,0,,0,,,60,127
87500,note_on,94,0,0,,0,,,60,127
87516,note_off,16,0,0,,5,,,65,127
87609,note_off,93,0,0,,8,,,68,127
87609,note_off,0,0,0,,11,,,46,127
87610,note_on,1,0,0,,0,,,48,127
87610,note_on,0,0,0,,7,,,67,127
87610,note_on,0,0,0,,4,,,64,127
87626,note_off,16,0,0,,0,,,60,127
87720,note_on,94,0,0,,0,,,60,127
87736,note_off,16,0,0,,4,,,64,127
87829,note_off,93,0,0,,7,,,67,127
87829,note_off,0,0,0,,0,,,48,127
87830,note_on,1,0,0,,5,,,41,127
87830,note_on,0,0,0,,7,,,67,127
87846,note_off,16,0,0,,0,,,60,127
87884,note_off,38,0,0,,7,,,67,127
87885,note_on,1,0,0,,5,,,65,127
87939,note_off,54,0,0,,5,,,65,127
87940,note_on,1,0,0,,7,,,67,127
87994,note_off,54,0,0,,7,,,67,127
87995,note_on,1,0,0,,5,,,65,127
88049,note_off,54,0,0,,5,,,65,127
88049,note_off,0,0,0,,5,,,41,127
88050,note_on,1,0,0,,5,,,41,127
88050,note_on,0,0,0,,7,,,67,127
88104,note_off,54,0,0,,7,,,67,127
88105,note_on,1,0,0,,5,,,65,127
88159,note_off,54,0,0,,5,,,65,127
88160,note_on,1,0,0,,7,,,67,127
88214,note_off,54,0,0,,7,,,67,127
88215,note_on,1,0,0,,5,,,65,127
88269,note_off,54,0,0,,5,,,41,127
88270,note_on,1,0,0,,5,,,41,127
88488,note_off,218,0,0,,5,,,41,127
88488,note_off,0,0,0,,5,,,65,127
88489,note_on,1,0,0,,1,,,61,127
88489,note_on,0,0,0,,11,,,58,127
88489,note_on,0,0,0,,7,,,67,127
88561,note_off,72,0,0,,7,,,67,127
88562,note_on,1,0,0,,8,,,68,127
88634,note_off,72,0,0,,8,,,68,127
88635,note_on,1,0,0,,11,,,70,127
88707,note_off,72,0,0,,11,,,70,127
88707,note_off,0,0,0,,11,,,58,127
88707,note_off,0,0,0,,1,,,61,127
88708,note_on,1,0,0,,1,,,61,127
88708,note_on,0,0,0,,11,,,58,127
88708,note_on,0,0,0,,8,,,68,127
88817,note_off,109,0,0,,8,,,68,127
88818,note_on,1,0,0,,7,,,67,127
88927,note_off,109,0,0,,7,,,67,127
88927,note_off,0,0,0,,11,,,58,127
88927,note_off,0,0,0,,1,,,61,127
88928,note_on,1,0,0,,11,,,58,127
88928,note_on,0,0,0,,1,,,61,127
88928,note_on,0,0,0,,5,,,65,127
89037,note_off,109,0,0,,5,,,65,127
89038,note_on,1,0,0,,4,,,64,127
89147,note_off,109,0,0,,4,,,64,127
89147,note_off,0,0,0,,1,,,61,127
89147,note_off,0,0,0,,11,,,58,127
89148,note_on,1,0,0,,0,,,60,127
89148,note_on,0,0,0,,8,,,56,127
89148,note_on,0,0,0,,4,,,64,127
89366,note_off,218,0,0,,4,,,64,127
89366,note_off,0,0,0,,8,,,56,127
89366,note_off,0,0,0,,0,,,60,127
89367,note_on,1,0,0,,0,,,60,127
89367,note_on,0,0,0,,8,,,56,127
89367,note_on,0,0,0,,5,,,65,127
89585,note_off,218,0,0,,5,,,65,127
89585,note_off,0,0,0,,8,,,56,127
89585,note_off,0,0,0,,0,,,60,127
89586,note_on,1,0,0,,0,,,60,127
89586,note_on,0,0,0,,8,,,56,127
89586,note_on,0,0,0,,0,,,72,127
89804,note_off,218,0,0,,0,,,72,127
89804,note_off,0,0,0,,8,,,56,127
89804,note_off,0,0,0,,0,,,60,127
89805,note_on,1,0,0,,11,,,58,127
89805,note_on,0,0,0,,4,,,64,127
89805,note_on,0,0,0,,1,,,61,127
89805,note_on,0,0,0,,11,,,70,127
89877,note_off,72,0,0,,11,,,70,127
89878,note_on,1,0,0,,0,,,72,127
89950,note_off,72,0,0,,0,,,72,127
89951,note_on,1,0,0,,1,,,73,127
90023,note_off,72,0,0,,1,,,73,127
90023,note_off,0,0,0,,1,,,61,127
90023,note_off,0,0,0,,4,,,64,127
90023,note_off,0,0,0,,11,,,58,127
90024,note_on,1,0,0,,1,,,61,127
90024,note_on,0,0,0,,11,,,58,127
90024,note_on,0,0,0,,4,,,64,127
90024,note_on,0,0,0,,0,,,72,127
90133,note_off,109,0,0,,0,,,72,127
90134,note_on,1,0,0,,11,,,70,127
90243,note_off,109,0,0,,11,,,70,127
90243,note_off,0,0,0,,4,,,64,127
90243,note_off,0,0,0,,11,,,58,127
90243,note_off,0,0,0,,1,,,61,127
90244,note_on,1,0,0,,11,,,58,127
90244,note_on,0,0,0,,4,,,64,127
90244,note_on,0,0,0,,1,,,61,127
90244,note_on,0,0,0,,4,,,76,127
90244,note_on,0,0,0,,8,,,68,127
90353,note_off,109,0,0,,8,,,68,127
90354,note_on,1,0,0,,7,,,67,127
90463,note_off,109,0,0,,7,,,67,127
90463,note_off,0,0,0,,4,,,76,127
90463,note_off,0,0,0,,1,,,61,127
90463,note_off,0,0,0,,4,,,64,127
90463,note_off,0,0,0,,11,,,58,127
90464,note_on,1,0,0,,0,,,60,127
90464,note_on,0,0,0,,8,,,56,127
90464,note_on,0,0,0,,7,,,67,127
90464,note_on,0,0,0,,4,,,76,127
90682,note_off,218,0,0,,4,,,76,127
90682,note_off,0,0,0,,7,,,67,127
90682,note_off,0,0,0,,8,,,56,127
90682,note_off,0,0,0,,0,,,60,127
90683,note_on,1,0,0,,8,,,56,127
90683,note_on,0,0,0,,0,,,60,127
90683,note_on,0,0,0,,5,,,77,127
90683,note_on,0,0,0,,5,,,65,127
90901,note_off,218,0,0,,5,,,65,127
90901,note_off,0,0,0,,5,,,77,127
90901,note_off,0,0,0,,0,,,60,127
90901,note_off,0,0,0,,8,,,56,127
90902,note_on,1,0,0,,0,,,60,127
90902,note_on,0,0,0,,8,,,56,127
90902,note_on,0,0,0,,5,,,65,127
91120,note_off,218,0,0,,5,,,65,127
91120,note_off,0,0,0,,8,,,56,127
91120,note_off,0,0,0,,0,,,60,127
91121,note_on,1,0,0,,1,,,61,127
91121,note_on,0,0,0,,11,,,58,127
91121,note_on,0,0,0,,7,,,67,127
91193,note_off,72,0,0,,7,,,67,127
91194,note_on,1,0,0,,8,,,68,127
91266,note_off,72,0,0,,8,,,68,127
91267,note_on,1,0,0,,11,,,70,127
91339,note_off,72,0,0,,11,,,70,127
91339,note_off,0,0,0,,11,,,58,127
91339,note_off,0,0,0,,1,,,61,127
91340,note_on,1,0,0,,1,,,61,127
91340,note_on,0,0,0,,11,,,58,127
91340,note_on,0,0,0,,8,,,68,127
91449,note_off,109,0,0,,8,,,68,127
91450,note_on,1,0,0,,7,,,67,127
91559,note_off,109,0,0,,7,,,67,127
91559,note_off,0,0,0,,11,,,58,127
91559,note_off,0,0,0,,1,,,61,127
91560,note_on,1,0,0,,1,,,61,127
91560,note_on,0,0,0,,11,,,58,127
91560,note_on,0,0,0,,5,,,65,127
91669,note_off,109,0,0,,5,,,65,127
91670,note_on,1,0,0,,4,,,64,127
91779,note_off,109,0,0,,4,,,64,127
91779,note_off,0,0,0,,11,,,58,127
91779,note_off,0,0,0,,1,,,61,127
91780,note_on,1,0,0,,8,,,56,127
91780,note_on,0,0,0,,0,,,60,127
91780,note_on,0,0,0,,4,,,64,127
91998,note_off,218,0,0,,4,,,64,127
91998,note_off,0,0,0,,0,,,60,127
91998,note_off,0,0,0,,8,,,56,127
91999,note_on,1,0,0,,8,,,56,127
91999,note_on,0,0,0,,0,,,60,127
91999,note_on,0,0,0,,5,,,65,127
92217,note_off,218,0,0,,5,,,65,127
92217,note_off,0,0,0,,0,,,60,127
92217,note_off,0,0,0,,8,,,56,127
92218,note_on,1,0,0,,0,,,60,127
92218,note_on,0,0,0,,8,,,56,127
92218,note_on,0,0,0,,0,,,72,127
92436,note_off,218,0,0,,0,,,72,127
92436,note_off,0,0,0,,8,,,56,127
92436,note_off,0,0,0,,0,,,60,127
92437,note_on,1,0,0,,11,,,58,127
92437,note_on,0,0,0,,1,,,61,127
92437,note_on,0,0,0,,4,,,64,127
92437,note_on,0,0,0,,11,,,70,127
92509,note_off,72,0,0,,11,,,70,127
92510,note_on,1,0,0,,0,,,72,127
92582,note_off,72,0,0,,0,,,72,127
92583,note_on,1,0,0,,1,,,73,127
92655,note_off,72,0,0,,1,,,73,127
92655,note_off,0,0,0,,4,,,64,127
92655,note_off,0,0,0,,1,,,61,127
92655,note_off,0,0,0,,11,,,58,127
92656,note_on,1,0,0,,1,,,61,127
92656,note_on,0,0,0,,11,,,58,127
92656,note_on,0,0,0,,4,,,64,127
92656,note_on,0,0,0,,0,,,72,127
92765,note_off,109,0,0,,0,,,72,127
92766,note_on,1,0,0,,11,,,70,127
92875,note_off,109,0,0,,11,,,70,127
92875,note_off,0,0,0,,4,,,64,127
92875,note_off,0,0,0,,11,,,58,127
92875,note_off,0,0,0,,1,,,61,127
92876,note_on,1,0,0,,1,,,61,127
92876,note_on,0,0,0,,11,,,58,127
92876,note_on,0,0,0,,4,,,64,127
92876,note_on,0,0,0,,4,,,76,127
92876,note_on,0,0,0,,8,,,68,127
92985,note_off,109,0,0,,8,,,68,127
92986,note_on,1,0,0,,7,,,67,127
93095,note_off,109,0,0,,7,,,67,127
93095,note_off,0,0,0,,4,,,76,127
93095,note_off,0,0,0,,4,,,64,127
93095,note_off,0,0,0,,11,,,58,127
93095,note_off,0,0,0,,1,,,61,127
93096,note_on,1,0,0,,8,,,56,127
93096,note_on,0,0,0,,0,,,60,127
93096,note_on,0,0,0,,7,,,67,127
93096,note_on,0,0,0,,4,,,76,127
93314,note_off,218,0,0,,4,,,76,127
93314,note_off,0,0,0,,7,,,67,127
93314,note_off,0,0,0,,0,,,60,127
93314,note_off,0,0,0,,8,,,56,127
93315,note_on,1,0,0,,0,,,60,127
93315,note_on,0,0,0,,8,,,56,127
93315,note_on,0,0,0,,5,,,65,127
93315,note_on,0,0,0,,5,,,77,127
93533,note_off,218,0,0,,5,,,77,127
93533,note_off,0,0,0,,5,,,65,127
93533,note_off,0,0,0,,8,,,56,127
93533,note_off,0,0,0,,0,,,60,127
93534,note_on,1,0,0,,0,,,60,127
93534,note_on,0,0,0,,8,,,56,127
93534,note_on,0,0,0,,3,,,75,127
93752,note_off,218,0,0,,3,,,75,127
93752,note_off,0,0,0,,8,,,56,127
93752,note_off,0,0,0,,0,,,60,127
93753,note_on,1,0,0,,1,,,61,127
93753,note_on,0,0,0,,11,,,58,127
93753,note_on,0,0,0,,1,,,73,127
93862,note_off,109,0,0,,1,,,73,127
93863,note_on,1,0,0,,0,,,72,127
93972,note_off,109,0,0,,0,,,72,127
93972,note_off,0,0,0,,11,,,58,127
93972,note_off,0,0,0,,1,,,61,127
93973,note_on,1,0,0,,11,,,58,127
93973,note_on,0,0,0,,1,,,61,127
93973,note_on,0,0,0,,11,,,70,127
94082,note_off,109,0,0,,11,,,70,127
94083,note_on,1,0,0,,8,,,68,127
94192,note_off,109,0,0,,8,,,68,127
94192,note_off,0,0,0,,1,,,61,127
94192,note_off,0,0,0,,11,,,58,127
94193,note_on,1,0,0,,11,,,46,127
94193,note_on,0,0,0,,7,,,67,127
94302,note_off,109,0,0,,7,,,67,127
94303,note_on,1,0,0,,5,,,65,127
94412,note_off,109,0,0,,5,,,65,127
94412,note_off,0,0,0,,11,,,46,127
94413,note_on,1,0,0,,0,,,48,127
94413,note_on,0,0,0,,4,,,64,127
94741,note_off,328,0,0,,4,,,64,127
94742,note_on,1,0,0,,7,,,67,127
94851,note_off,109,0,0,,7,,,67,127
94851,note_off,0,0,0,,0,,,48,127
94852,note_on,1,0,0,,0,,,84,127
94852,note_on,0,0,0,,8,,,68,127
94961,note_off,109,0,0,,8,,,68,127
94962,note_on,1,0,0,,5,,,65,127
95071,note_off,109,0,0,,5,,,65,127
95071,note_off,0,0,0,,0,,,84,127
95072,note_on,1,0,0,,0,,,48,127
95072,note_on,0,0,0,,7,,,67,127
95181,note_off,109,0,0,,7,,,67,127
95182,note_on,1,0,0,,4,,,64,127
95291,note_off,109,0,0,,4,,,64,127
95292,note_on,1,0,0,,0,,,60,127
95401,note_off,109,0,0,,0,,,60,127
95402,note_on,1,0,0,,7,,,67,127
95511,note_off,109,0,0,,7,,,67,127
95511,note_off,0,0,0,,0,,,48,127
95512,note_on,1,0,0,,0,,,84,127
95512,note_on,0,0,0,,8,,,68,127
95621,note_off,109,0,0,,8,,,68,127
95622,note_on,1,0,0,,5,,,65,127
95731,note_off,109,0,0,,5,,,65,127
95731,note_off,0,0,0,,0,,,84,127
95732,note_on,1,0,0,,0,,,48,127
95732,note_on,0,0,0,,7,,,67,127
95841,note_off,109,0,0,,7,,,67,127
95842,note_on,1,0,0,,4,,,64,127
95951,note_off,109,0,0,,4,,,64,127
95952,note_on,1,0,0,,0,,,60,127
96061,note_off,109,0,0,,0,,,60,127
96062,note_on,1,0,0,,7,,,67,127
96171,note_off,109,0,0,,7,,,67,127
96171,note_off,0,0,0,,0,,,48,127
96172,note_on,1,0,0,,0,,,84,127
96172,note_on,0,0,0,,8,,,68,127
96281,note_off,109,0,0,,8,,,68,127
96282,note_on,1,0,0,,5,,,65,127
96391,note_off,109,0,0,,5,,,65,127
96391,note_off,0,0,0,,0,,,84,127
96392,note_on,1,0,0,,0,,,48,127
96392,note_on,0,0,0,,7,,,67,127
96501,note_off,109,0,0,,7,,,67,127
96502,note_on,1,0,0,,4,,,64,127
96611,note_off,109,0,0,,4,,,64,127
96612,note_on,1,0,0,,0,,,60,127
96721,note_off,109,0,0,,0,,,60,127
96722,note_on,1,0,0,,7,,,67,127
96831,note_off,109,0,0,,7,,,67,127
96831,note_off,0,0,0,,0,,,48,127
96832,note_on,1,0,0,,0,,,84,127
96832,note_on,0,0,0,,8,,,68,127
96941,note_off,109,0,0,,8,,,68,127
96942,note_on,1,0,0,,5,,,65,127
97051,note_off,109,0,0,,5,,,65,127
97051,note_off,0,0,0,,0,,,84,127
97052,note_on,1,0,0,,0,,,48,127
97052,note_on,0,0,0,,7,,,67,127
97161,note_off,109,0,0,,7,,,67,127
97162,note_on,1,0,0,,4,,,64,127
97271,note_off,109,0,0,,4,,,64,127
97272,note_on,1,0,0,,0,,,60,127
97381,note_off,109,0,0,,0,,,60,127
97382,note_on,1,0,0,,11,,,70,127
97491,note_off,109,0,0,,11,,,70,127
97491,note_off,0,0,0,,0,,,48,127
97492,note_on,1,0,0,,0,,,48,127
97492,note_on,0,0,0,,8,,,68,127
97601,note_off,109,0,0,,8,,,68,127
97602,note_on,1,0,0,,7,,,67,127
97711,note_off,109,0,0,,7,,,67,127
97711,note_off,0,0,0,,0,,,48,127
97712,note_on,1,0,0,,5,,,53,127
97712,note_on,0,0,0,,8,,,68,127
97821,note_off,109,0,0,,8,,,68,127
97822,note_on,1,0,0,,11,,,70,127
97931,note_off,109,0,0,,11,,,70,127
97931,note_off,0,0,0,,5,,,53,127
97932,note_on,1,0,0,,11,,,46,127
97932,note_on,0,0,0,,0,,,72,127
98041,note_off,109,0,0,,0,,,72,127
98042,note_on,1,0,0,,5,,,65,127
98151,note_off,109,0,0,,5,,,65,127
98151,note_off,0,0,0,,11,,,46,127
98152,note_on,1,0,0,,0,,,48,127
98152,note_on,0,0,0,,7,,,67,127
98261,note_off,109,0,0,,7,,,67,127
98262,note_on,1,0,0,,4,,,64,127
98371,note_off,109,0,0,,4,,,64,127
98371,note_off,0,0,0,,0,,,48,127
98372,note_on,1,0,0,,5,,,41,127
98372,note_on,0,0,0,,5,,,65,127
98481,note_off,109,0,0,,5,,,65,127
98482,note_on,1,0,0,,8,,,68,127
98591,note_off,109,0,0,,8,,,68,127
98591,note_off,0,0,0,,5,,,41,127
98592,note_on,1,0,0,,1,,,49,127
98592,note_on,0,0,0,,11,,,70,127
98701,note_off,109,0,0,,11,,,70,127
98702,note_on,1,0,0,,8,,,68,127
98811,note_off,109,0,0,,8,,,68,127
98811,note_off,0,0,0,,1,,,49,127
98812,note_on,1,0,0,,11,,,46,127
98812,note_on,0,0,0,,8,,,68,127
98866,note_off,54,0,0,,8,,,68,127
98867,note_on,1,0,0,,7,,,67,127
98921,note_off,54,0,0,,7,,,67,127
98922,note_on,1,0,0,,5,,,65,127
99031,note_off,109,0,0,,5,,,65,127
99031,note_off,0,0,0,,11,,,46,127
99032,note_on,1,0,0,,0,,,36,127
99032,note_on,0,0,0,,7,,,67,127
99141,note_off,109,0,0,,7,,,67,127
99142,note_on,1,0,0,,4,,,64,127
99251,note_off,109,0,0,,4,,,64,127
99252,note_on,1,0,0,,0,,,60,127
99361,note_off,109,0,0,,0,,,60,127
99362,note_on,1,0,0,,7,,,67,127
99471,note_off,109,0,0,,7,,,67,127
99471,note_off,0,0,0,,0,,,36,127
99472,note_on,1,0,0,,0,,,84,127
99472,note_on,0,0,0,,8,,,68,127
99581,note_off,109,0,0,,8,,,68,127
99582,note_on,1,0,0,,5,,,65,127
99691,note_off,109,0,0,,5,,,65,127
99691,note_off,0,0,0,,0,,,84,127
99692,note_on,1,0,0,,0,,,36,127
99692,note_on,0,0,0,,7,,,67,127
99801,note_off,109,0,0,,7,,,67,127
99802,note_on,1,0,0,,4,,,64,127
99911,note_off,109,0,0,,4,,,64,127
99912,note_on,1,0,0,,0,,,60,127
100021,note_off,109,0,0,,0,,,60,127
100022,note_on,1,0,0,,7,,,67,127
100131,note_off,109,0,0,,7,,,67,127
100131,note_off,0,0,0,,0,,,36,127
100132,note_on,1,0,0,,0,,,84,127
100132,note_on,0,0,0,,8,,,68,127
100241,note_off,109,0,0,,8,,,68,127
100242,note_on,1,0,0,,5,,,65,127
100351,note_off,109,0,0,,5,,,65,127
100351,note_off,0,0,0,,0,,,84,127
100352,note_on,1,0,0,,0,,,36,127
100352,note_on,0,0,0,,7,,,67,127
100461,note_off,109,0,0,,7,,,67,127
100462,note_on,1,0,0,,4,,,64,127
100571,note_off,109,0,0,,4,,,64,127
100572,note_on,1,0,0,,0,,,60,127
100681,note_off,109,0,0,,0,,,60,127
100682,note_on,1,0,0,,7,,,67,127
100791,note_off,109,0,0,,7,,,67,127
100791,note_off,0,0,0,,0,,,36,127
100792,note_on,1,0,0,,0,,,84,127
100792,note_on,0,0,0,,8,,,68,127
100901,note_off,109,0,0,,8,,,68,127
100902,note_on,1,0,0,,5,,,65,127
101011,note_off,109,0,0,,5,,,65,127
101011,note_off,0,0,0,,0,,,84,127
101012,note_on,1,0,0,,0,,,36,127
101012,note_on,0,0,0,,7,,,67,127
101121,note_off,109,0,0,,7,,,67,127
101122,note_on,1,0,0,,4,,,64,127
101231,note_off,109,0,0,,4,,,64,127
101232,note_on,1,0,0,,0,,,60,127
101341,note_off,109,0,0,,0,,,60,127
101342,note_on,1,0,0,,7,,,67,127
101451,note_off,109,0,0,,7,,,67,127
101451,note_off,0,0,0,,0,,,36,127
101452,note_on,1,0,0,,0,,,84,127
101452,note_on,0,0,0,,8,,,68,127
101561,note_off,109,0,0,,8,,,68,127
101562,note_on,1,0,0,,5,,,65,127
101671,note_off,109,0,0,,5,,,65,127
101671,note_off,0,0,0,,0,,,84,127
101672,note_on,1,0,0,,0,,,36,127
101672,note_on,0,0,0,,7,,,67,127
101781,note_off,109,0,0,,7,,,67,127
101782,note_on,1,0,0,,4,,,64,127
101891,note_off,109,0,0,,4,,,64,127
101892,note_on,1,0,0,,0,,,60,127
102001,note_off,109,0,0,,0,,,60,127
102002,note_on,1,0,0,,11,,,70,127
102111,note_off,109,0,0,,11,,,70,127
102111,note_off,0,0,0,,0,,,36,127
102112,note_on,1,0,0,,0,,,36,127
102112,note_on,0,0,0,,8,,,68,127
102221,note_off,109,0,0,,8,,,68,127
102222,note_on,1,0,0,,7,,,67,127
102331,note_off,109,0,0,,7,,,67,127
102331,note_off,0,0,0,,0,,,36,127
102332,note_on,1,0,0,,5,,,41,127
102332,note_on,0,0,0,,8,,,68,127
102441,note_off,109,0,0,,8,,,68,127
102442,note_on,1,0,0,,11,,,70,127
102551,note_off,109,0,0,,11,,,70,127
102551,note_off,0,0,0,,5,,,41,127
102552,note_on,1,0,0,,11,,,46,127
102552,note_on,0,0,0,,0,,,72,127
102661,note_off,109,0,0,,0,,,72,127
102662,note_on,1,0,0,,5,,,65,127
102771,note_off,109,0,0,,5,,,65,127
102771,note_off,0,0,0,,11,,,46,127
102772,note_on,1,0,0,,0,,,48,127
102772,note_on,0,0,0,,7,,,67,127
102881,note_off,109,0,0,,7,,,67,127
102882,note_on,1,0,0,,4,,,64,127
102991,note_off,109,0,0,,4,,,64,127
102991,note_off,0,0,0,,0,,,48,127
102992,note_on,1,0,0,,1,,,49,127
102992,note_on,0,0,0,,5,,,65,127
103101,note_off,109,0,0,,5,,,65,127
103102,note_on,1,0,0,,1,,,73,127
103211,note_off,109,0,0,,1,,,73,127
103211,note_off,0,0,0,,1,,,49,127
103212,note_on,1,0,0,,11,,,46,127
103212,note_on,0,0,0,,0,,,72,127
103321,note_off,109,0,0,,0,,,72,127
103322,note_on,1,0,0,,11,,,70,127
103431,note_off,109,0,0,,11,,,70,127
103431,note_off,0,0,0,,11,,,46,127
103432,note_on,1,0,0,,4,,,52,127
103432,note_on,0,0,0,,8,,,68,127
103541,note_off,109,0,0,,8,,,68,127
103542,note_on,1,0,0,,7,,,67,127
103651,note_off,109,0,0,,4,,,52,127
103658,note_off,7,0,0,,7,,,67,127
103660,note_on,2,0,0,,8,,,68,127
103660,note_on,0,0,0,,5,,,53,127
103779,note_on,119,0,0,,0,,,72,127
103836,note_off,57,0,0,,8,,,68,127
103893,note_off,57,0,0,,5,,,53,127
103894,note_off,1,0,0,,0,,,72,127
103897,note_on,3,0,0,,5,,,77,127
103897,note_on,0,0,0,,11,,,46,127
104015,note_on,118,0,0,,8,,,68,127
104073,note_off,58,0,0,,5,,,77,127
104130,note_off,57,0,0,,8,,,68,127
104130,note_off,0,0,0,,11,,,46,127
104151,note_on,21,0,0,,7,,,67,127
104151,note_on,0,0,0,,0,,,48,127
104289,note_on,138,0,0,,4,,,76,127
104327,note_off,38,0,0,,7,,,67,127
104384,note_off,57,0,0,,0,,,48,127
104405,note_off,21,0,0,,4,,,76,127
104438,note_on,33,0,0,,5,,,65,127
104438,note_on,0,0,0,,5,,,77,127
104438,note_on,0,0,0,,5,,,41,127
106395,note_off,1957,0,0,,5,,,41,127
106395,note_off,0,0,0,,5,,,77,127
106395,note_off,0,0,0,,5,,,65,127
110592,end_of_track,4197,1,0,,,,,,
