tick,type,time,meta,track,program,channel,pitch,tempo,note,velocity
0,copyright,0,1,0,,,,,,
0,program_change,0,0,0,6,0,,,,
0,pitchwheel,0,0,0,,0,0,,,
0,program_change,0,0,0,6,1,,,,
0,pitchwheel,0,0,0,,1,-590,,,
0,program_change,0,0,0,6,2,,,,
0,pitchwheel,0,0,0,,2,-272,,,
0,program_change,0,0,0,6,3,,,,
0,pitchwheel,0,0,0,,3,-353,,,
0,program_change,0,0,0,6,4,,,,
0,pitchwheel,0,0,0,,4,-560,,,
0,program_change,0,0,0,6,5,,,,
0,pitchwheel,0,0,0,,5,-80,,,
0,program_change,0,0,0,6,6,,,,
0,pitchwheel,0,0,0,,6,-625,,,
0,program_change,0,0,0,6,7,,,,
0,pitchwheel,0,0,0,,7,-130,,,
0,program_change,0,0,0,6,8,,,,
0,pitchwheel,0,0,0,,8,-512,,,
0,program_change,0,0,0,6,10,,,,
0,pitchwheel,0,0,0,,10,-464,,,
0,program_change,0,0,0,6,11,,,,
0,pitchwheel,0,0,0,,11,-208,,,
0,program_change,0,0,0,6,12,,,,
0,pitchwheel,0,0,0,,12,-553,,,
0,set_tempo,0,1,0,,,,500000,,
115,note_on,115,0,0,,3,,,39,127
230,note_on,115,0,0,,3,,,75,127
345,note_on,115,0,0,,7,,,67,127
403,note_off,58,0,0,,3,,,75,127
461,note_on,58,0,0,,0,,,72,127
519,note_off,58,0,0,,7,,,67,127
575,note_off,56,0,0,,3,,,39,127
576,note_on,1,0,0,,7,,,67,127
576,note_on,0,0,0,,11,,,70,127
634,note_off,58,0,0,,0,,,72,127
692,note_on,58,0,0,,11,,,82,127
750,note_off,58,0,0,,11,,,70,127
806,note_off,56,0,0,,7,,,67,127
807,note_on,1,0,0,,5,,,65,127
807,note_on,0,0,0,,2,,,74,127
865,note_off,58,0,0,,11,,,82,127
923,note_on,58,0,0,,8,,,80,127
981,note_off,58,0,0,,2,,,74,127
1037,note_off,56,0,0,,5,,,65,127
1038,note_on,1,0,0,,3,,,63,127
1038,note_on,0,0,0,,11,,,70,127
1096,note_off,58,0,0,,8,,,80,127
1154,note_on,58,0,0,,7,,,79,127
1212,note_off,58,0,0,,11,,,70,127
1268,note_off,56,0,0,,3,,,63,127
1269,note_on,1,0,0,,8,,,56,127
1269,note_on,0,0,0,,8,,,68,127
1327,note_off,58,0,0,,7,,,79,127
1385,note_on,58,0,0,,5,,,77,127
1443,note_off,58,0,0,,8,,,68,127
1499,note_off,56,0,0,,8,,,56,127
1500,note_on,1,0,0,,11,,,58,127
1500,note_on,0,0,0,,7,,,67,127
1558,note_off,58,0,0,,5,,,77,127
1616,note_on,58,0,0,,3,,,75,127
1674,note_off,58,0,0,,7,,,67,127
1732,note_on,58,0,0,,11,,,46,127
1732,note_on,0,0,0,,5,,,65,127
1790,note_off,58,0,0,,3,,,75,127
1848,note_off,58,0,0,,11,,,58,127
1848,note_on,0,0,0,,2,,,74,127
1906,note_off,58,0,0,,5,,,65,127
1962,note_off,56,0,0,,2,,,74,127
1962,note_off,0,0,0,,11,,,46,127
1963,note_on,1,0,0,,3,,,39,127
2078,note_on,115,0,0,,3,,,75,127
2193,note_on,115,0,0,,7,,,67,127
2231,note_off,38,0,0,,3,,,75,127
2308,note_on,77,0,0,,0,,,72,127
2346,note_off,38,0,0,,7,,,67,127
2422,note_off,76,0,0,,3,,,39,127
2423,note_on,1,0,0,,7,,,67,127
2423,note_on,0,0,0,,11,,,70,127
2461,note_off,38,0,0,,0,,,72,127
2538,note_on,77,0,0,,11,,,82,127
2576,note_off,38,0,0,,11,,,70,127
2652,note_off,76,0,0,,7,,,67,127
2653,note_on,1,0,0,,5,,,65,127
2653,note_on,0,0,0,,2,,,74,127
2691,note_off,38,0,0,,11,,,82,127
2768,note_on,77,0,0,,8,,,80,127
2806,note_off,38,0,0,,2,,,74,127
2882,note_off,76,0,0,,5,,,65,127
2883,note_on,1,0,0,,3,,,63,127
2883,note_on,0,0,0,,11,,,70,127
2921,note_off,38,0,0,,8,,,80,127
2998,note_on,77,0,0,,7,,,79,127
3036,note_off,38,0,0,,11,,,70,127
3112,note_off,76,0,0,,3,,,63,127
3113,note_on,1,0,0,,8,,,56,127
3113,note_on,0,0,0,,8,,,68,127
3151,note_off,38,0,0,,7,,,79,127
3228,note_on,77,0,0,,5,,,77,127
3266,note_off,38,0,0,,8,,,68,127
3342,note_off,76,0,0,,8,,,56,127
3343,note_on,1,0,0,,11,,,58,127
3343,note_on,0,0,0,,7,,,67,127
3381,note_off,38,0,0,,5,,,77,127
3458,note_on,77,0,0,,3,,,75,127
3496,note_off,38,0,0,,7,,,67,127
3573,note_on,77,0,0,,11,,,46,127
3573,note_on,0,0,0,,5,,,65,127
3611,note_off,38,0,0,,3,,,75,127
3688,note_off,77,0,0,,11,,,58,127
3688,note_on,0,0,0,,2,,,74,127
3726,note_off,38,0,0,,5,,,65,127
3802,note_off,76,0,0,,2,,,74,127
3802,note_off,0,0,0,,11,,,46,127
3803,note_on,1,0,0,,3,,,39,127
3803,note_on,0,0,0,,3,,,75,127
3917,note_off,114,0,0,,3,,,75,127
3918,note_on,1,0,0,,11,,,70,127
4032,note_off,114,0,0,,11,,,70,127
4033,note_on,1,0,0,,7,,,67,127
4147,note_off,114,0,0,,3,,,39,127
4148,note_on,1,0,0,,3,,,63,127
4262,note_off,114,0,0,,7,,,67,127
4263,note_on,1,0,0,,5,,,77,127
4263,note_on,0,0,0,,8,,,80,127
4377,note_off,114,0,0,,3,,,63,127
4378,note_on,1,0,0,,5,,,53,127
4492,note_off,114,0,0,,5,,,53,127
4493,note_on,1,0,0,,2,,,50,127
4607,note_off,114,0,0,,2,,,50,127
4608,note_on,1,0,0,,11,,,46,127
4722,note_off,114,0,0,,11,,,46,127
4722,note_off,0,0,0,,8,,,80,127
4722,note_off,0,0,0,,5,,,77,127
4723,note_on,1,0,0,,3,,,39,127
4723,note_on,0,0,0,,3,,,75,127
4723,note_on,0,0,0,,7,,,79,127
4837,note_off,114,0,0,,7,,,79,127
4837,note_off,0,0,0,,3,,,75,127
4838,note_on,1,0,0,,11,,,70,127
4952,note_off,114,0,0,,11,,,70,127
4953,note_on,1,0,0,,7,,,67,127
5067,note_off,114,0,0,,3,,,39,127
5068,note_on,1,0,0,,3,,,63,127
5182,note_off,114,0,0,,7,,,67,127
5183,note_on,1,0,0,,8,,,80,127
5183,note_on,0,0,0,,5,,,77,127
5297,note_off,114,0,0,,3,,,63,127
5298,note_on,1,0,0,,5,,,53,127
5412,note_off,114,0,0,,5,,,53,127
5413,note_on,1,0,0,,2,,,50,127
5527,note_off,114,0,0,,2,,,50,127
5528,note_on,1,0,0,,11,,,46,127
5642,note_off,114,0,0,,11,,,46,127
5642,note_off,0,0,0,,5,,,77,127
5642,note_off,0,0,0,,8,,,80,127
5643,note_on,1,0,0,,3,,,39,127
5643,note_on,0,0,0,,7,,,79,127
5643,note_on,0,0,0,,3,,,75,127
5757,note_off,114,0,0,,3,,,75,127
5757,note_off,0,0,0,,7,,,79,127
5758,note_on,1,0,0,,11,,,70,127
5872,note_off,114,0,0,,11,,,70,127
5873,note_on,1,0,0,,7,,,67,127
5987,note_off,114,0,0,,7,,,67,127
5988,note_on,1,0,0,,3,,,63,127
6102,note_off,114,0,0,,3,,,63,127
6103,note_on,1,0,0,,5,,,77,127
6103,note_on,0,0,0,,8,,,80,127
6217,note_off,114,0,0,,3,,,39,127
6218,note_on,1,0,0,,5,,,53,127
6332,note_off,114,0,0,,5,,,53,127
6333,note_on,1,0,0,,2,,,50,127
6447,note_off,114,0,0,,2,,,50,127
6448,note_on,1,0,0,,11,,,46,127
6562,note_off,114,0,0,,11,,,46,127
6562,note_off,0,0,0,,8,,,80,127
6562,note_off,0,0,0,,5,,,77,127
6563,note_on,1,0,0,,3,,,51,127
6563,note_on,0,0,0,,3,,,75,127
6563,note_on,0,0,0,,7,,,79,127
6677,note_off,114,0,0,,7,,,79,127
6677,note_off,0,0,0,,3,,,75,127
6678,note_on,1,0,0,,7,,,67,127
6792,note_off,114,0,0,,7,,,67,127
6792,note_off,0,0,0,,3,,,51,127
6793,note_on,1,0,0,,2,,,50,127
6793,note_on,0,0,0,,10,,,69,127
6908,note_on,115,0,0,,5,,,77,127
7021,note_off,113,0,0,,10,,,69,127
7022,note_off,1,0,0,,2,,,50,127
7023,note_on,1,0,0,,0,,,48,127
7137,note_off,114,0,0,,5,,,77,127
7138,note_on,1,0,0,,3,,,75,127
7252,note_off,114,0,0,,3,,,75,127
7252,note_off,0,0,0,,0,,,48,127
7253,note_on,1,0,0,,5,,,53,127
7253,note_on,0,0,0,,2,,,74,127
7367,note_off,114,0,0,,2,,,74,127
7368,note_on,1,0,0,,0,,,72,127
7482,note_off,114,0,0,,0,,,72,127
7482,note_off,0,0,0,,5,,,53,127
7483,note_on,1,0,0,,11,,,46,127
7483,note_on,0,0,0,,2,,,74,127
7483,note_on,0,0,0,,11,,,70,127
7597,note_off,114,0,0,,11,,,70,127
7597,note_off,0,0,0,,2,,,74,127
7598,note_on,1,0,0,,5,,,65,127
7712,note_off,114,0,0,,5,,,65,127
7713,note_on,1,0,0,,2,,,62,127
7827,note_off,114,0,0,,11,,,46,127
7828,note_on,1,0,0,,11,,,58,127
7942,note_off,114,0,0,,2,,,62,127
7943,note_on,1,0,0,,3,,,75,127
7943,note_on,0,0,0,,0,,,72,127
8057,note_off,114,0,0,,11,,,58,127
8058,note_on,1,0,0,,5,,,53,127
8172,note_off,114,0,0,,5,,,53,127
8173,note_on,1,0,0,,0,,,48,127
8287,note_off,114,0,0,,0,,,48,127
8288,note_on,1,0,0,,5,,,41,127
8402,note_off,114,0,0,,5,,,41,127
8402,note_off,0,0,0,,0,,,72,127
8402,note_off,0,0,0,,3,,,75,127
8403,note_on,1,0,0,,11,,,46,127
8403,note_on,0,0,0,,11,,,70,127
8403,note_on,0,0,0,,2,,,74,127
8517,note_off,114,0,0,,2,,,74,127
8517,note_off,0,0,0,,11,,,70,127
8518,note_on,1,0,0,,5,,,65,127
8632,note_off,114,0,0,,5,,,65,127
8633,note_on,1,0,0,,2,,,62,127
8747,note_off,114,0,0,,11,,,46,127
8748,note_on,1,0,0,,11,,,58,127
8862,note_off,114,0,0,,2,,,62,127
8863,note_on,1,0,0,,0,,,72,127
8863,note_on,0,0,0,,3,,,75,127
8977,note_off,114,0,0,,11,,,58,127
8978,note_on,1,0,0,,5,,,53,127
9092,note_off,114,0,0,,5,,,53,127
9093,note_on,1,0,0,,0,,,48,127
9207,note_off,114,0,0,,0,,,48,127
9208,note_on,1,0,0,,5,,,41,127
9322,note_off,114,0,0,,5,,,41,127
9322,note_off,0,0,0,,3,,,75,127
9322,note_off,0,0,0,,0,,,72,127
9323,note_on,1,0,0,,11,,,46,127
9323,note_on,0,0,0,,11,,,70,127
9323,note_on,0,0,0,,2,,,74,127
9437,note_off,114,0,0,,2,,,74,127
9437,note_off,0,0,0,,11,,,70,127
9438,note_on,1,0,0,,5,,,65,127
9552,note_off,114,0,0,,5,,,65,127
9553,note_on,1,0,0,,2,,,62,127
9667,note_off,114,0,0,,11,,,46,127
9668,note_on,1,0,0,,11,,,58,127
9782,note_off,114,0,0,,2,,,62,127
9783,note_on,1,0,0,,3,,,75,127
9783,note_on,0,0,0,,0,,,72,127
9897,note_off,114,0,0,,11,,,58,127
9898,note_on,1,0,0,,5,,,53,127
10012,note_off,114,0,0,,5,,,53,127
10013,note_on,1,0,0,,0,,,48,127
10127,note_off,114,0,0,,0,,,48,127
10128,note_on,1,0,0,,5,,,41,127
10242,note_off,114,0,0,,5,,,41,127
10242,note_off,0,0,0,,0,,,72,127
10242,note_off,0,0,0,,3,,,75,127
10243,note_on,1,0,0,,11,,,46,127
10243,note_on,0,0,0,,2,,,74,127
10243,note_on,0,0,0,,11,,,70,127
10357,note_off,114,0,0,,11,,,70,127
10357,note_off,0,0,0,,2,,,74,127
10358,note_on,1,0,0,,5,,,65,127
10472,note_off,114,0,0,,5,,,65,127
10473,note_on,1,0,0,,2,,,62,127
10587,note_off,114,0,0,,11,,,46,127
10588,note_on,1,0,0,,11,,,58,127
10702,note_off,114,0,0,,2,,,62,127
10703,note_on,1,0,0,,2,,,74,127
10703,note_on,0,0,0,,5,,,77,127
10817,note_off,114,0,0,,11,,,58,127
10818,note_on,1,0,0,,5,,,65,127
10932,note_off,114,0,0,,5,,,65,127
10933,note_on,1,0,0,,2,,,62,127
11047,note_off,114,0,0,,2,,,62,127
11048,note_on,1,0,0,,11,,,58,127
11162,note_off,114,0,0,,11,,,58,127
11162,note_off,0,0,0,,5,,,77,127
11162,note_off,0,0,0,,2,,,74,127
11163,note_on,1,0,0,,7,,,55,127
11163,note_on,0,0,0,,7,,,79,127
11163,note_on,0,0,0,,3,,,75,127
11277,note_off,114,0,0,,3,,,75,127
11277,note_off,0,0,0,,7,,,79,127
11278,note_on,1,0,0,,7,,,67,127
11392,note_off,114,0,0,,7,,,55,127
11393,note_on,1,0,0,,3,,,63,127
11507,note_off,114,0,0,,3,,,63,127
11508,note_on,1,0,0,,7,,,55,127
11622,note_off,114,0,0,,7,,,55,127
11622,note_off,0,0,0,,7,,,67,127
11623,note_on,1,0,0,,5,,,53,127
11623,note_on,0,0,0,,8,,,80,127
11623,note_on,0,0,0,,5,,,77,127
11737,note_off,114,0,0,,5,,,53,127
11738,note_on,1,0,0,,2,,,62,127
11852,note_off,114,0,0,,2,,,62,127
11853,note_on,1,0,0,,8,,,56,127
11967,note_off,114,0,0,,8,,,56,127
11968,note_on,1,0,0,,5,,,53,127
12082,note_off,114,0,0,,5,,,53,127
12082,note_off,0,0,0,,5,,,77,127
12082,note_off,0,0,0,,8,,,80,127
12083,note_on,1,0,0,,3,,,51,127
12083,note_on,0,0,0,,3,,,75,127
12083,note_on,0,0,0,,7,,,79,127
12197,note_off,114,0,0,,7,,,79,127
12197,note_off,0,0,0,,3,,,75,127
12198,note_on,1,0,0,,11,,,70,127
12312,note_off,114,0,0,,11,,,70,127
12313,note_on,1,0,0,,7,,,67,127
12427,note_off,114,0,0,,3,,,51,127
12428,note_on,1,0,0,,3,,,63,127
12542,note_off,114,0,0,,7,,,67,127
12543,note_on,1,0,0,,11,,,70,127
12543,note_on,0,0,0,,1,,,73,127
12657,note_off,114,0,0,,3,,,63,127
12658,note_on,1,0,0,,11,,,58,127
12772,note_off,114,0,0,,11,,,58,127
12773,note_on,1,0,0,,7,,,55,127
12887,note_off,114,0,0,,7,,,55,127
12888,note_on,1,0,0,,3,,,51,127
13002,note_off,114,0,0,,3,,,51,127
13002,note_off,0,0,0,,1,,,73,127
13002,note_off,0,0,0,,11,,,70,127
13003,note_on,1,0,0,,8,,,44,127
13003,note_on,0,0,0,,0,,,72,127
13003,note_on,0,0,0,,8,,,68,127
13117,note_off,114,0,0,,8,,,68,127
13117,note_off,0,0,0,,0,,,72,127
13118,note_on,1,0,0,,3,,,63,127
13232,note_off,114,0,0,,3,,,63,127
13233,note_on,1,0,0,,0,,,60,127
13347,note_off,114,0,0,,8,,,44,127
13348,note_on,1,0,0,,8,,,56,127
13462,note_off,114,0,0,,0,,,60,127
13463,note_on,1,0,0,,3,,,75,127
13463,note_on,0,0,0,,0,,,72,127
13577,note_off,114,0,0,,8,,,56,127
13578,note_on,1,0,0,,0,,,60,127
13692,note_off,114,0,0,,0,,,60,127
13693,note_on,1,0,0,,10,,,57,127
13807,note_off,114,0,0,,10,,,57,127
13808,note_on,1,0,0,,5,,,53,127
13922,note_off,114,0,0,,5,,,53,127
13922,note_off,0,0,0,,0,,,72,127
13922,note_off,0,0,0,,3,,,75,127
13923,note_on,1,0,0,,11,,,46,127
13923,note_on,0,0,0,,11,,,70,127
13923,note_on,0,0,0,,2,,,74,127
14037,note_off,114,0,0,,2,,,74,127
14037,note_off,0,0,0,,11,,,70,127
14038,note_on,1,0,0,,5,,,65,127
14152,note_off,114,0,0,,5,,,65,127
14153,note_on,1,0,0,,2,,,62,127
14267,note_off,114,0,0,,11,,,46,127
14268,note_on,1,0,0,,11,,,58,127
14382,note_off,114,0,0,,2,,,62,127
14383,note_on,1,0,0,,8,,,80,127
14383,note_on,0,0,0,,5,,,77,127
14497,note_off,114,0,0,,11,,,58,127
14498,note_on,1,0,0,,5,,,65,127
14612,note_off,114,0,0,,5,,,65,127
14613,note_on,1,0,0,,2,,,62,127
14727,note_off,114,0,0,,2,,,62,127
14728,note_on,1,0,0,,11,,,58,127
14842,note_off,114,0,0,,11,,,58,127
14842,note_off,0,0,0,,5,,,77,127
14842,note_off,0,0,0,,8,,,80,127
14843,note_on,1,0,0,,3,,,63,127
14843,note_on,0,0,0,,7,,,79,127
14958,note_on,115,0,0,,2,,,74,127
14996,note_off,38,0,0,,7,,,79,127
15072,note_off,76,0,0,,2,,,74,127
15072,note_off,0,0,0,,3,,,63,127
15073,note_on,1,0,0,,0,,,72,127
15073,note_on,0,0,0,,3,,,75,127
15188,note_on,115,0,0,,10,,,81,127
15226,note_off,38,0,0,,3,,,75,127
15302,note_off,76,0,0,,10,,,81,127
15302,note_off,0,0,0,,0,,,72,127
15303,note_on,1,0,0,,2,,,62,127
15303,note_on,0,0,0,,11,,,82,127
15418,note_on,115,0,0,,4,,,76,127
15456,note_off,38,0,0,,11,,,82,127
15532,note_off,76,0,0,,4,,,76,127
15532,note_off,0,0,0,,2,,,62,127
15533,note_on,1,0,0,,11,,,70,127
15533,note_on,0,0,0,,5,,,77,127
15647,note_off,114,0,0,,5,,,77,127
15648,note_on,1,0,0,,6,,,78,127
15762,note_off,114,0,0,,6,,,78,127
15762,note_off,0,0,0,,11,,,70,127
15763,note_on,1,0,0,,3,,,63,127
15763,note_on,0,0,0,,7,,,79,127
15878,note_on,115,0,0,,2,,,74,127
15897,note_off,19,0,0,,7,,,79,127
15992,note_off,95,0,0,,2,,,74,127
15992,note_off,0,0,0,,3,,,63,127
15993,note_on,1,0,0,,0,,,72,127
15993,note_on,0,0,0,,3,,,75,127
16108,note_on,115,0,0,,10,,,81,127
16146,note_off,38,0,0,,3,,,75,127
16222,note_off,76,0,0,,10,,,81,127
16222,note_off,0,0,0,,0,,,72,127
16223,note_on,1,0,0,,2,,,62,127
16223,note_on,0,0,0,,11,,,82,127
16338,note_on,115,0,0,,4,,,76,127
16376,note_off,38,0,0,,11,,,82,127
16452,note_off,76,0,0,,4,,,76,127
16452,note_off,0,0,0,,2,,,62,127
16453,note_on,1,0,0,,11,,,70,127
16453,note_on,0,0,0,,5,,,77,127
16567,note_off,114,0,0,,5,,,77,127
16568,note_on,1,0,0,,6,,,78,127
16682,note_off,114,0,0,,6,,,78,127
16682,note_off,0,0,0,,11,,,70,127
16683,note_on,1,0,0,,3,,,63,127
16683,note_on,0,0,0,,7,,,79,127
16798,note_on,115,0,0,,2,,,74,127
16836,note_off,38,0,0,,7,,,79,127
16912,note_off,76,0,0,,2,,,74,127
16912,note_off,0,0,0,,3,,,63,127
16913,note_on,1,0,0,,0,,,72,127
16913,note_on,0,0,0,,3,,,75,127
17028,note_on,115,0,0,,10,,,81,127
17066,note_off,38,0,0,,3,,,75,127
17142,note_off,76,0,0,,10,,,81,127
17142,note_off,0,0,0,,0,,,72,127
17143,note_on,1,0,0,,2,,,62,127
17143,note_on,0,0,0,,11,,,82,127
17258,note_on,115,0,0,,4,,,76,127
17296,note_off,38,0,0,,11,,,82,127
17372,note_off,76,0,0,,4,,,76,127
17372,note_off,0,0,0,,2,,,62,127
17373,note_on,1,0,0,,11,,,70,127
17373,note_on,0,0,0,,5,,,77,127
17487,note_off,114,0,0,,5,,,77,127
17488,note_on,1,0,0,,6,,,78,127
17602,note_off,114,0,0,,6,,,78,127
17602,note_off,0,0,0,,11,,,70,127
17603,note_on,1,0,0,,3,,,63,127
17603,note_on,0,0,0,,7,,,79,127
17718,note_on,115,0,0,,10,,,69,127
17831,note_off,113,0,0,,7,,,79,127
17832,note_off,1,0,0,,10,,,69,127
17832,note_off,0,0,0,,3,,,63,127
17833,note_on,1,0,0,,2,,,62,127
17833,note_on,0,0,0,,11,,,70,127
17948,note_on,115,0,0,,5,,,77,127
17986,note_off,38,0,0,,11,,,70,127
18062,note_off,76,0,0,,5,,,77,127
18062,note_off,0,0,0,,2,,,62,127
18063,note_on,1,0,0,,0,,,60,127
18063,note_on,0,0,0,,3,,,75,127
18178,note_on,115,0,0,,0,,,72,127
18291,note_off,113,0,0,,3,,,75,127
18292,note_off,1,0,0,,0,,,72,127
18292,note_off,0,0,0,,0,,,60,127
18293,note_on,1,0,0,,11,,,58,127
18293,note_on,0,0,0,,5,,,65,127
18407,note_off,114,0,0,,5,,,65,127
18408,note_on,1,0,0,,2,,,74,127
18408,note_on,0,0,0,,11,,,70,127
18522,note_off,114,0,0,,11,,,70,127
18522,note_off,0,0,0,,2,,,74,127
18522,note_off,0,0,0,,11,,,58,127
18523,note_on,1,0,0,,5,,,53,127
18523,note_on,0,0,0,,2,,,74,127
18523,note_on,0,0,0,,11,,,70,127
18752,note_off,229,0,0,,11,,,70,127
18752,note_off,0,0,0,,2,,,74,127
18753,note_on,1,0,0,,5,,,41,127
18753,note_on,0,0,0,,0,,,72,127
18753,note_on,0,0,0,,10,,,69,127
18979,note_off,226,0,0,,5,,,53,127
19213,note_off,234,0,0,,10,,,69,127
19213,note_off,0,0,0,,0,,,72,127
19213,note_off,0,0,0,,5,,,41,127
19214,note_on,1,0,0,,5,,,65,127
19214,note_on,0,0,0,,5,,,77,127
19328,note_off,114,0,0,,5,,,77,127
19329,note_on,1,0,0,,3,,,75,127
19443,note_off,114,0,0,,3,,,75,127
19443,note_off,0,0,0,,5,,,65,127
19444,note_on,1,0,0,,6,,,66,127
19444,note_on,0,0,0,,3,,,75,127
19444,note_on,0,0,0,,5,,,77,127
19558,note_off,114,0,0,,5,,,77,127
19558,note_off,0,0,0,,3,,,75,127
19559,note_on,1,0,0,,1,,,73,127
19673,note_off,114,0,0,,1,,,73,127
19673,note_off,0,0,0,,6,,,66,127
19674,note_on,1,0,0,,3,,,63,127
19674,note_on,0,0,0,,0,,,72,127
19788,note_off,114,0,0,,0,,,72,127
19789,note_on,1,0,0,,11,,,70,127
19903,note_off,114,0,0,,11,,,70,127
19904,note_on,1,0,0,,11,,,70,127
19904,note_on,0,0,0,,0,,,72,127
20018,note_off,114,0,0,,0,,,72,127
20018,note_off,0,0,0,,11,,,70,127
20019,note_on,1,0,0,,10,,,69,127
20105,note_off,86,0,0,,3,,,63,127
20133,note_off,28,0,0,,10,,,69,127
20134,note_on,1,0,0,,5,,,65,127
20134,note_on,0,0,0,,5,,,77,127
20248,note_off,114,0,0,,5,,,77,127
20249,note_on,1,0,0,,3,,,75,127
20363,note_off,114,0,0,,3,,,75,127
20363,note_off,0,0,0,,5,,,65,127
20364,note_on,1,0,0,,6,,,66,127
20364,note_on,0,0,0,,5,,,77,127
20364,note_on,0,0,0,,3,,,75,127
20478,note_off,114,0,0,,3,,,75,127
20478,note_off,0,0,0,,5,,,77,127
20479,note_on,1,0,0,,1,,,73,127
20593,note_off,114,0,0,,1,,,73,127
20593,note_off,0,0,0,,6,,,66,127
20594,note_on,1,0,0,,3,,,63,127
20594,note_on,0,0,0,,0,,,72,127
20708,note_off,114,0,0,,0,,,72,127
20709,note_on,1,0,0,,11,,,70,127
20823,note_off,114,0,0,,11,,,70,127
20824,note_on,1,0,0,,0,,,72,127
20824,note_on,0,0,0,,11,,,70,127
20938,note_off,114,0,0,,11,,,70,127
20938,note_off,0,0,0,,0,,,72,127
20939,note_on,1,0,0,,10,,,69,127
21025,note_off,86,0,0,,3,,,63,127
21053,note_off,28,0,0,,10,,,69,127
21054,note_on,1,0,0,,5,,,65,127
21054,note_on,0,0,0,,5,,,77,127
21168,note_off,114,0,0,,5,,,77,127
21169,note_on,1,0,0,,10,,,69,127
21283,note_off,114,0,0,,10,,,69,127
21283,note_off,0,0,0,,5,,,65,127
21284,note_on,1,0,0,,6,,,66,127
21284,note_on,0,0,0,,10,,,69,127
21398,note_off,114,0,0,,10,,,69,127
21399,note_on,1,0,0,,11,,,70,127
21513,note_off,114,0,0,,11,,,70,127
21513,note_off,0,0,0,,6,,,66,127
21514,note_on,1,0,0,,3,,,63,127
21514,note_on,0,0,0,,6,,,78,127
21628,note_off,114,0,0,,6,,,78,127
21629,note_on,1,0,0,,11,,,70,127
21743,note_off,114,0,0,,11,,,70,127
21744,note_on,1,0,0,,0,,,72,127
21744,note_on,0,0,0,,11,,,70,127
21858,note_off,114,0,0,,11,,,70,127
21858,note_off,0,0,0,,0,,,72,127
21859,note_on,1,0,0,,10,,,69,127
21945,note_off,86,0,0,,3,,,63,127
21973,note_off,28,0,0,,10,,,69,127
21974,note_on,1,0,0,,5,,,65,127
21974,note_on,0,0,0,,5,,,77,127
22088,note_off,114,0,0,,5,,,77,127
22089,note_on,1,0,0,,10,,,69,127
22203,note_off,114,0,0,,10,,,69,127
22203,note_off,0,0,0,,5,,,65,127
22204,note_on,1,0,0,,6,,,66,127
22204,note_on,0,0,0,,10,,,69,127
22318,note_off,114,0,0,,10,,,69,127
22319,note_on,1,0,0,,11,,,70,127
22433,note_off,114,0,0,,11,,,70,127
22433,note_off,0,0,0,,6,,,66,127
22434,note_on,1,0,0,,3,,,63,127
22434,note_on,0,0,0,,6,,,78,127
22548,note_off,114,0,0,,6,,,78,127
22549,note_on,1,0,0,,11,,,70,127
22663,note_off,114,0,0,,11,,,70,127
22664,note_on,1,0,0,,0,,,72,127
22664,note_on,0,0,0,,11,,,70,127
22778,note_off,114,0,0,,11,,,70,127
22778,note_off,0,0,0,,0,,,72,127
22779,note_on,1,0,0,,10,,,69,127
22877,note_off,98,0,0,,3,,,63,127
22893,note_off,16,0,0,,10,,,69,127
22894,note_on,1,0,0,,5,,,65,127
22894,note_on,0,0,0,,0,,,84,127
23008,note_off,114,0,0,,0,,,84,127
23009,note_on,1,0,0,,10,,,81,127
23123,note_off,114,0,0,,10,,,81,127
23123,note_off,0,0,0,,5,,,65,127
23124,note_on,1,0,0,,6,,,66,127
23124,note_on,0,0,0,,10,,,81,127
23238,note_off,114,0,0,,10,,,81,127
23239,note_on,1,0,0,,11,,,82,127
23353,note_off,114,0,0,,11,,,82,127
23353,note_off,0,0,0,,6,,,66,127
23354,note_on,1,0,0,,3,,,63,127
23354,note_on,0,0,0,,6,,,78,127
23468,note_off,114,0,0,,6,,,78,127
23469,note_on,1,0,0,,4,,,76,127
23583,note_off,114,0,0,,4,,,76,127
23584,note_on,1,0,0,,4,,,76,127
23698,note_off,114,0,0,,4,,,76,127
23699,note_on,1,0,0,,5,,,77,127
23797,note_off,98,0,0,,3,,,63,127
23813,note_off,16,0,0,,5,,,77,127
23814,note_on,1,0,0,,5,,,65,127
23814,note_on,0,0,0,,0,,,84,127
23928,note_off,114,0,0,,0,,,84,127
23929,note_on,1,0,0,,10,,,81,127
24043,note_off,114,0,0,,10,,,81,127
24043,note_off,0,0,0,,5,,,65,127
24044,note_on,1,0,0,,6,,,66,127
24044,note_on,0,0,0,,10,,,81,127
24158,note_off,114,0,0,,10,,,81,127
24159,note_on,1,0,0,,11,,,82,127
24273,note_off,114,0,0,,11,,,82,127
24273,note_off,0,0,0,,6,,,66,127
24274,note_on,1,0,0,,3,,,63,127
24274,note_on,0,0,0,,6,,,78,127
24388,note_off,114,0,0,,6,,,78,127
24389,note_on,1,0,0,,4,,,76,127
24503,note_off,114,0,0,,4,,,76,127
24504,note_on,1,0,0,,4,,,76,127
24618,note_off,114,0,0,,4,,,76,127
24619,note_on,1,0,0,,5,,,77,127
24733,note_off,114,0,0,,5,,,77,127
24733,note_off,0,0,0,,3,,,63,127
24734,note_on,1,0,0,,5,,,65,127
24734,note_on,0,0,0,,0,,,84,127
24848,note_off,114,0,0,,0,,,84,127
24849,note_on,1,0,0,,10,,,81,127
24963,note_off,114,0,0,,10,,,81,127
24963,note_off,0,0,0,,5,,,65,127
24964,note_on,1,0,0,,6,,,66,127
24964,note_on,0,0,0,,10,,,81,127
25078,note_off,114,0,0,,10,,,81,127
25079,note_on,1,0,0,,11,,,82,127
25193,note_off,114,0,0,,11,,,82,127
25193,note_off,0,0,0,,6,,,66,127
25194,note_on,1,0,0,,3,,,63,127
25194,note_on,0,0,0,,6,,,78,127
25308,note_off,114,0,0,,6,,,78,127
25309,note_on,1,0,0,,4,,,76,127
25423,note_off,114,0,0,,4,,,76,127
25423,note_off,0,0,0,,3,,,63,127
25424,note_on,1,0,0,,10,,,69,127
25424,note_on,0,0,0,,4,,,76,127
25538,note_off,114,0,0,,4,,,76,127
25539,note_on,1,0,0,,5,,,77,127
25653,note_off,114,0,0,,5,,,77,127
25653,note_off,0,0,0,,10,,,69,127
25654,note_on,1,0,0,,5,,,65,127
25654,note_on,0,0,0,,5,,,77,127
25768,note_off,114,0,0,,5,,,77,127
25769,note_on,1,0,0,,0,,,72,127
25883,note_off,114,0,0,,0,,,72,127
25883,note_off,0,0,0,,5,,,65,127
25884,note_on,1,0,0,,11,,,70,127
25884,note_on,0,0,0,,0,,,72,127
25998,note_off,114,0,0,,0,,,72,127
25999,note_on,1,0,0,,2,,,74,127
26113,note_off,114,0,0,,2,,,74,127
26113,note_off,0,0,0,,11,,,70,127
26114,note_on,1,0,0,,5,,,65,127
26114,note_on,0,0,0,,2,,,74,127
26228,note_off,114,0,0,,2,,,74,127
26229,note_on,1,0,0,,10,,,69,127
26343,note_off,114,0,0,,10,,,69,127
26343,note_off,0,0,0,,5,,,65,127
26344,note_on,1,0,0,,7,,,67,127
26344,note_on,0,0,0,,10,,,69,127
26458,note_off,114,0,0,,10,,,69,127
26459,note_on,1,0,0,,11,,,70,127
26573,note_off,114,0,0,,11,,,70,127
26573,note_off,0,0,0,,7,,,67,127
26574,note_on,1,0,0,,2,,,62,127
26574,note_on,0,0,0,,11,,,70,127
26688,note_off,114,0,0,,11,,,70,127
26689,note_on,1,0,0,,5,,,65,127
26803,note_off,114,0,0,,5,,,65,127
26803,note_off,0,0,0,,2,,,62,127
26804,note_on,1,0,0,,3,,,63,127
26804,note_on,0,0,0,,7,,,67,127
26918,note_off,114,0,0,,7,,,67,127
26919,note_on,1,0,0,,3,,,75,127
27033,note_off,114,0,0,,3,,,75,127
27034,note_on,1,0,0,,0,,,60,127
27034,note_on,0,0,0,,2,,,74,127
27068,note_off,34,0,0,,3,,,63,127
27148,note_off,80,0,0,,2,,,74,127
27149,note_on,1,0,0,,0,,,72,127
27263,note_off,114,0,0,,0,,,72,127
27264,note_on,1,0,0,,5,,,65,127
27264,note_on,0,0,0,,5,,,77,127
27298,note_off,34,0,0,,0,,,60,127
27378,note_off,80,0,0,,5,,,77,127
27379,note_on,1,0,0,,3,,,75,127
27493,note_off,114,0,0,,3,,,75,127
27494,note_on,1,0,0,,5,,,53,127
27494,note_on,0,0,0,,2,,,74,127
27608,note_off,114,0,0,,2,,,74,127
27609,note_off,1,0,0,,5,,,65,127
27609,note_on,0,0,0,,0,,,72,127
27723,note_off,114,0,0,,0,,,72,127
27723,note_off,0,0,0,,5,,,53,127
27724,note_on,1,0,0,,11,,,46,127
27724,note_on,0,0,0,,2,,,74,127
27724,note_on,0,0,0,,11,,,70,127
27838,note_off,114,0,0,,11,,,70,127
27838,note_off,0,0,0,,2,,,74,127
27839,note_on,1,0,0,,5,,,65,127
27953,note_off,114,0,0,,5,,,65,127
27954,note_on,1,0,0,,2,,,62,127
28068,note_off,114,0,0,,11,,,46,127
28069,note_on,1,0,0,,11,,,58,127
28183,note_off,114,0,0,,2,,,62,127
28184,note_on,1,0,0,,3,,,75,127
28184,note_on,0,0,0,,0,,,72,127
28298,note_off,114,0,0,,11,,,58,127
28299,note_on,1,0,0,,5,,,53,127
28413,note_off,114,0,0,,5,,,53,127
28414,note_on,1,0,0,,0,,,48,127
28528,note_off,114,0,0,,0,,,48,127
28529,note_on,1,0,0,,5,,,41,127
28643,note_off,114,0,0,,5,,,41,127
28643,note_off,0,0,0,,0,,,72,127
28643,note_off,0,0,0,,3,,,75,127
28644,note_on,1,0,0,,11,,,46,127
28644,note_on,0,0,0,,11,,,70,127
28644,note_on,0,0,0,,2,,,74,127
28758,note_off,114,0,0,,2,,,74,127
28758,note_off,0,0,0,,11,,,70,127
28759,note_on,1,0,0,,5,,,65,127
28873,note_off,114,0,0,,5,,,65,127
28874,note_on,1,0,0,,2,,,62,127
28988,note_off,114,0,0,,11,,,46,127
28989,note_on,1,0,0,,11,,,58,127
29103,note_off,114,0,0,,2,,,62,127
29104,note_on,1,0,0,,3,,,75,127
29104,note_on,0,0,0,,0,,,72,127
29218,note_off,114,0,0,,11,,,58,127
29219,note_on,1,0,0,,5,,,53,127
29333,note_off,114,0,0,,5,,,53,127
29334,note_on,1,0,0,,0,,,48,127
29448,note_off,114,0,0,,0,,,48,127
29449,note_on,1,0,0,,5,,,41,127
29563,note_off,114,0,0,,5,,,41,127
29563,note_off,0,0,0,,0,,,72,127
29563,note_off,0,0,0,,3,,,75,127
29564,note_on,1,0,0,,11,,,46,127
29564,note_on,0,0,0,,11,,,70,127
29564,note_on,0,0,0,,2,,,74,127
29678,note_off,114,0,0,,2,,,74,127
29678,note_off,0,0,0,,11,,,70,127
29679,note_on,1,0,0,,5,,,65,127
29793,note_off,114,0,0,,5,,,65,127
29794,note_on,1,0,0,,2,,,62,127
29908,note_off,114,0,0,,11,,,46,127
29909,note_on,1,0,0,,11,,,58,127
30023,note_off,114,0,0,,2,,,62,127
30024,note_on,1,0,0,,3,,,75,127
30024,note_on,0,0,0,,7,,,79,127
30138,note_off,114,0,0,,11,,,58,127
30139,note_on,1,0,0,,5,,,53,127
30253,note_off,114,0,0,,5,,,53,127
30254,note_on,1,0,0,,0,,,48,127
30368,note_off,114,0,0,,0,,,48,127
30369,note_on,1,0,0,,5,,,41,127
30483,note_off,114,0,0,,5,,,41,127
30483,note_off,0,0,0,,7,,,79,127
30483,note_off,0,0,0,,3,,,75,127
30484,note_on,1,0,0,,11,,,46,127
30484,note_on,0,0,0,,5,,,77,127
30484,note_on,0,0,0,,2,,,74,127
30598,note_off,114,0,0,,2,,,74,127
30599,note_on,1,0,0,,11,,,70,127
30657,note_off,58,0,0,,5,,,77,127
30713,note_off,56,0,0,,11,,,46,127
30714,note_on,1,0,0,,3,,,51,127
30714,note_on,0,0,0,,3,,,75,127
30772,note_off,58,0,0,,11,,,70,127
30830,note_on,58,0,0,,0,,,72,127
30888,note_off,58,0,0,,3,,,75,127
30944,note_off,56,0,0,,3,,,51,127
30945,note_on,1,0,0,,5,,,53,127
30945,note_on,0,0,0,,2,,,74,127
31003,note_off,58,0,0,,0,,,72,127
31061,note_on,58,0,0,,11,,,70,127
31119,note_off,58,0,0,,2,,,74,127
31177,note_on,58,0,0,,5,,,41,127
31177,note_on,0,0,0,,0,,,72,127
31235,note_off,58,0,0,,11,,,70,127
31293,note_on,58,0,0,,10,,,69,127
31351,note_off,58,0,0,,0,,,72,127
31404,note_off,53,0,0,,5,,,53,127
31408,note_off,4,0,0,,10,,,69,127
31408,note_off,0,0,0,,5,,,41,127
31409,note_on,1,0,0,,11,,,46,127
31409,note_on,0,0,0,,11,,,82,127
31523,note_off,114,0,0,,11,,,82,127
31524,note_on,1,0,0,,5,,,77,127
31638,note_off,114,0,0,,5,,,77,127
31639,note_on,1,0,0,,2,,,74,127
31753,note_off,114,0,0,,2,,,74,127
31754,note_on,1,0,0,,11,,,70,127
31868,note_off,114,0,0,,11,,,70,127
31869,note_on,1,0,0,,0,,,84,127
31869,note_on,0,0,0,,3,,,75,127
31972,note_off,103,0,0,,11,,,46,127
31984,note_on,12,0,0,,5,,,53,127
32098,note_off,114,0,0,,5,,,53,127
32099,note_on,1,0,0,,0,,,48,127
32213,note_off,114,0,0,,0,,,48,127
32214,note_on,1,0,0,,5,,,41,127
32328,note_off,114,0,0,,5,,,41,127
32328,note_off,0,0,0,,3,,,75,127
32328,note_off,0,0,0,,0,,,84,127
32329,note_on,1,0,0,,11,,,46,127
32329,note_on,0,0,0,,11,,,82,127
32443,note_off,114,0,0,,11,,,82,127
32444,note_on,1,0,0,,5,,,77,127
32558,note_off,114,0,0,,5,,,77,127
32559,note_on,1,0,0,,2,,,74,127
32673,note_off,114,0,0,,2,,,74,127
32674,note_on,1,0,0,,11,,,70,127
32788,note_off,114,0,0,,11,,,70,127
32789,note_on,1,0,0,,0,,,72,127
32789,note_on,0,0,0,,10,,,81,127
32892,note_off,103,0,0,,11,,,46,127
32904,note_on,12,0,0,,5,,,53,127
33018,note_off,114,0,0,,5,,,53,127
33019,note_on,1,0,0,,0,,,48,127
33133,note_off,114,0,0,,0,,,48,127
33134,note_on,1,0,0,,5,,,41,127
33248,note_off,114,0,0,,5,,,41,127
33248,note_off,0,0,0,,10,,,81,127
33248,note_off,0,0,0,,0,,,72,127
33249,note_on,1,0,0,,11,,,46,127
33249,note_on,0,0,0,,11,,,82,127
33363,note_off,114,0,0,,11,,,82,127
33364,note_on,1,0,0,,5,,,77,127
33478,note_off,114,0,0,,5,,,77,127
33479,note_on,1,0,0,,2,,,74,127
33593,note_off,114,0,0,,2,,,74,127
33594,note_on,1,0,0,,11,,,70,127
33708,note_off,114,0,0,,11,,,70,127
33709,note_on,1,0,0,,0,,,84,127
33709,note_on,0,0,0,,3,,,75,127
33812,note_off,103,0,0,,11,,,46,127
33824,note_on,12,0,0,,5,,,53,127
33938,note_off,114,0,0,,5,,,53,127
33939,note_on,1,0,0,,0,,,48,127
34053,note_off,114,0,0,,0,,,48,127
34054,note_on,1,0,0,,5,,,41,127
34168,note_off,114,0,0,,5,,,41,127
34168,note_off,0,0,0,,3,,,75,127
34168,note_off,0,0,0,,0,,,84,127
34169,note_on,1,0,0,,11,,,46,127
34169,note_on,0,0,0,,11,,,82,127
34283,note_off,114,0,0,,11,,,82,127
34284,note_on,1,0,0,,5,,,77,127
34398,note_off,114,0,0,,5,,,77,127
34399,note_on,1,0,0,,2,,,74,127
34513,note_off,114,0,0,,2,,,74,127
34514,note_on,1,0,0,,11,,,70,127
34628,note_off,114,0,0,,11,,,70,127
34629,note_on,1,0,0,,0,,,72,127
34629,note_on,0,0,0,,10,,,81,127
34743,note_off,114,0,0,,11,,,46,127
34744,note_on,1,0,0,,5,,,53,127
34858,note_off,114,0,0,,5,,,53,127
34859,note_on,1,0,0,,0,,,48,127
34973,note_off,114,0,0,,0,,,48,127
34974,note_on,1,0,0,,5,,,41,127
35088,note_off,114,0,0,,5,,,41,127
35088,note_off,0,0,0,,10,,,81,127
35088,note_off,0,0,0,,0,,,72,127
35089,note_on,1,0,0,,11,,,46,127
35089,note_on,0,0,0,,11,,,82,127
35203,note_off,114,0,0,,11,,,82,127
35204,note_on,1,0,0,,2,,,74,127
35204,note_on,0,0,0,,5,,,77,127
35318,note_off,114,0,0,,5,,,77,127
35318,note_off,0,0,0,,11,,,46,127
35319,note_on,1,0,0,,3,,,63,127
35319,note_on,0,0,0,,7,,,79,127
35377,note_off,58,0,0,,2,,,74,127
35433,note_off,56,0,0,,7,,,79,127
35434,note_on,1,0,0,,3,,,75,127
35434,note_on,0,0,0,,0,,,72,127
35548,note_off,114,0,0,,3,,,75,127
35548,note_off,0,0,0,,3,,,63,127
35549,note_on,1,0,0,,2,,,62,127
35549,note_on,0,0,0,,5,,,77,127
35607,note_off,58,0,0,,0,,,72,127
35663,note_off,56,0,0,,5,,,77,127
35664,note_on,1,0,0,,2,,,74,127
35664,note_on,0,0,0,,11,,,70,127
35778,note_off,114,0,0,,2,,,74,127
35778,note_off,0,0,0,,2,,,62,127
35779,note_on,1,0,0,,0,,,60,127
35779,note_on,0,0,0,,3,,,75,127
35837,note_off,58,0,0,,11,,,70,127
35893,note_off,56,0,0,,3,,,75,127
35894,note_on,1,0,0,,0,,,72,127
35894,note_on,0,0,0,,10,,,69,127
36008,note_off,114,0,0,,0,,,72,127
36008,note_off,0,0,0,,0,,,60,127
36009,note_on,1,0,0,,11,,,58,127
36009,note_on,0,0,0,,2,,,74,127
36067,note_off,58,0,0,,10,,,69,127
36123,note_off,56,0,0,,2,,,74,127
36124,note_on,1,0,0,,11,,,70,127
36238,note_off,114,0,0,,11,,,70,127
36238,note_off,0,0,0,,11,,,58,127
36239,note_on,1,0,0,,3,,,51,127
36239,note_on,0,0,0,,7,,,67,127
36353,note_off,114,0,0,,7,,,67,127
36354,note_on,1,0,0,,3,,,75,127
36468,note_off,114,0,0,,3,,,75,127
36468,note_off,0,0,0,,3,,,51,127
36469,note_on,1,0,0,,5,,,53,127
36469,note_on,0,0,0,,5,,,65,127
36469,note_on,0,0,0,,2,,,74,127
36583,note_off,114,0,0,,2,,,74,127
36584,note_on,1,0,0,,11,,,70,127
36642,note_off,58,0,0,,5,,,65,127
36698,note_off,56,0,0,,11,,,70,127
36699,note_on,1,0,0,,5,,,41,127
36699,note_on,0,0,0,,3,,,63,127
36699,note_on,0,0,0,,0,,,72,127
36813,note_off,114,0,0,,0,,,72,127
36814,note_on,1,0,0,,10,,,69,127
36872,note_off,58,0,0,,3,,,63,127
36925,note_off,53,0,0,,5,,,53,127
36929,note_off,4,0,0,,10,,,69,127
36929,note_off,0,0,0,,5,,,41,127
36930,note_on,1,0,0,,11,,,46,127
36930,note_on,0,0,0,,11,,,70,127
36930,note_on,0,0,0,,2,,,62,127
37044,note_off,114,0,0,,11,,,70,127
37045,note_on,1,0,0,,5,,,65,127
37159,note_off,114,0,0,,5,,,65,127
37159,note_off,0,0,0,,2,,,62,127
37159,note_off,0,0,0,,11,,,46,127
37160,note_on,1,0,0,,3,,,51,127
37160,note_on,0,0,0,,7,,,67,127
37274,note_off,114,0,0,,7,,,67,127
37275,note_on,1,0,0,,3,,,63,127
37389,note_off,114,0,0,,3,,,63,127
37389,note_off,0,0,0,,3,,,51,127
37390,note_on,1,0,0,,2,,,50,127
37390,note_on,0,0,0,,5,,,65,127
37504,note_off,114,0,0,,5,,,65,127
37505,note_on,1,0,0,,2,,,62,127
37619,note_off,114,0,0,,2,,,62,127
37619,note_off,0,0,0,,2,,,50,127
37620,note_on,1,0,0,,0,,,48,127
37620,note_on,0,0,0,,3,,,63,127
37734,note_off,114,0,0,,3,,,63,127
37735,note_on,1,0,0,,0,,,60,127
37849,note_off,114,0,0,,0,,,60,127
37849,note_off,0,0,0,,0,,,48,127
37850,note_on,1,0,0,,11,,,46,127
37850,note_on,0,0,0,,2,,,62,127
37964,note_off,114,0,0,,2,,,62,127
37965,note_on,1,0,0,,11,,,58,127
38079,note_off,114,0,0,,11,,,58,127
38079,note_off,0,0,0,,11,,,46,127
38080,note_on,1,0,0,,3,,,51,127
38080,note_on,0,0,0,,7,,,55,127
38194,note_off,114,0,0,,7,,,55,127
38195,note_on,1,0,0,,3,,,63,127
38309,note_off,114,0,0,,3,,,63,127
38309,note_off,0,0,0,,3,,,51,127
38310,note_on,1,0,0,,5,,,53,127
38310,note_on,0,0,0,,2,,,62,127
38424,note_off,114,0,0,,2,,,62,127
38425,note_on,1,0,0,,11,,,58,127
38539,note_off,114,0,0,,11,,,58,127
38540,note_on,1,0,0,,5,,,41,127
38540,note_on,0,0,0,,0,,,60,127
38654,note_off,114,0,0,,0,,,60,127
38655,note_on,1,0,0,,10,,,57,127
38765,note_off,110,0,0,,5,,,53,127
38769,note_off,4,0,0,,10,,,57,127
38769,note_off,0,0,0,,5,,,41,127
38770,note_on,1,0,0,,11,,,46,127
38770,note_on,0,0,0,,10,,,57,127
38999,note_off,229,0,0,,10,,,57,127
39000,note_on,1,0,0,,11,,,58,127
39690,note_off,690,0,0,,11,,,58,127
39690,note_off,0,0,0,,11,,,46,127
39691,note_on,1,0,0,,11,,,46,127
39806,note_on,115,0,0,,11,,,70,127
39921,note_on,115,0,0,,2,,,62,127
39979,note_off,58,0,0,,11,,,70,127
40037,note_on,58,0,0,,7,,,67,127
40095,note_off,58,0,0,,2,,,62,127
40151,note_off,56,0,0,,11,,,46,127
40152,note_on,1,0,0,,5,,,65,127
40152,note_on,0,0,0,,2,,,62,127
40210,note_off,58,0,0,,7,,,67,127
40268,note_on,58,0,0,,5,,,77,127
40326,note_off,58,0,0,,5,,,65,127
40382,note_off,56,0,0,,2,,,62,127
40383,note_on,1,0,0,,10,,,69,127
40383,note_on,0,0,0,,0,,,60,127
40441,note_off,58,0,0,,5,,,77,127
40499,note_on,58,0,0,,3,,,75,127
40557,note_off,58,0,0,,10,,,69,127
40613,note_off,56,0,0,,0,,,60,127
40614,note_on,1,0,0,,5,,,65,127
40614,note_on,0,0,0,,11,,,58,127
40672,note_off,58,0,0,,3,,,75,127
40730,note_on,58,0,0,,2,,,74,127
40788,note_off,58,0,0,,5,,,65,127
40844,note_off,56,0,0,,11,,,58,127
40845,note_on,1,0,0,,3,,,63,127
40845,note_on,0,0,0,,3,,,51,127
40903,note_off,58,0,0,,2,,,74,127
40961,note_on,58,0,0,,0,,,72,127
41019,note_off,58,0,0,,3,,,63,127
41075,note_off,56,0,0,,3,,,51,127
41076,note_on,1,0,0,,2,,,62,127
41076,note_on,0,0,0,,5,,,53,127
41134,note_off,58,0,0,,0,,,72,127
41192,note_on,58,0,0,,11,,,70,127
41250,note_off,58,0,0,,2,,,62,127
41308,note_on,58,0,0,,0,,,60,127
41308,note_on,0,0,0,,5,,,41,127
41366,note_off,58,0,0,,11,,,70,127
41424,note_on,58,0,0,,10,,,69,127
41482,note_off,58,0,0,,0,,,60,127
41535,note_off,53,0,0,,5,,,53,127
41539,note_off,4,0,0,,5,,,41,127
41540,note_on,1,0,0,,11,,,46,127
41598,note_off,58,0,0,,10,,,69,127
41656,note_on,58,0,0,,11,,,70,127
41771,note_on,115,0,0,,2,,,62,127
41809,note_off,38,0,0,,11,,,70,127
41886,note_on,77,0,0,,7,,,67,127
41924,note_off,38,0,0,,2,,,62,127
42000,note_off,76,0,0,,11,,,46,127
42001,note_on,1,0,0,,5,,,65,127
42001,note_on,0,0,0,,2,,,62,127
42039,note_off,38,0,0,,7,,,67,127
42116,note_on,77,0,0,,5,,,77,127
42154,note_off,38,0,0,,5,,,65,127
42230,note_off,76,0,0,,2,,,62,127
42231,note_on,1,0,0,,10,,,69,127
42231,note_on,0,0,0,,0,,,60,127
42269,note_off,38,0,0,,5,,,77,127
42346,note_on,77,0,0,,3,,,75,127
42384,note_off,38,0,0,,10,,,69,127
42460,note_off,76,0,0,,0,,,60,127
42461,note_on,1,0,0,,5,,,65,127
42461,note_on,0,0,0,,11,,,58,127
42499,note_off,38,0,0,,3,,,75,127
42576,note_on,77,0,0,,2,,,74,127
42614,note_off,38,0,0,,5,,,65,127
42690,note_off,76,0,0,,11,,,58,127
42691,note_on,1,0,0,,3,,,63,127
42691,note_on,0,0,0,,3,,,51,127
42729,note_off,38,0,0,,2,,,74,127
42806,note_on,77,0,0,,0,,,72,127
42844,note_off,38,0,0,,3,,,63,127
42920,note_off,76,0,0,,3,,,51,127
42921,note_on,1,0,0,,2,,,62,127
42921,note_on,0,0,0,,5,,,53,127
42959,note_off,38,0,0,,0,,,72,127
43036,note_on,77,0,0,,11,,,70,127
43074,note_off,38,0,0,,2,,,62,127
43151,note_on,77,0,0,,0,,,60,127
43151,note_on,0,0,0,,5,,,41,127
43189,note_off,38,0,0,,11,,,70,127
43266,note_on,77,0,0,,10,,,69,127
43304,note_off,38,0,0,,0,,,60,127
43376,note_off,72,0,0,,5,,,53,127
43380,note_off,4,0,0,,5,,,41,127
43381,note_on,1,0,0,,2,,,62,127
43381,note_on,0,0,0,,5,,,53,127
43419,note_off,38,0,0,,10,,,69,127
43496,note_on,77,0,0,,12,,,71,127
43534,note_off,38,0,0,,2,,,62,127
43610,note_off,76,0,0,,5,,,53,127
43611,note_on,1,0,0,,3,,,63,127
43611,note_on,0,0,0,,3,,,51,127
43649,note_off,38,0,0,,12,,,71,127
43726,note_on,77,0,0,,0,,,72,127
43764,note_off,38,0,0,,3,,,63,127
43840,note_off,76,0,0,,3,,,51,127
43841,note_on,1,0,0,,5,,,65,127
43841,note_on,0,0,0,,2,,,50,127
43879,note_off,38,0,0,,0,,,72,127
43956,note_on,77,0,0,,2,,,74,127
43994,note_off,38,0,0,,5,,,65,127
44070,note_off,76,0,0,,2,,,50,127
44071,note_on,1,0,0,,7,,,67,127
44071,note_on,0,0,0,,0,,,48,127
44109,note_off,38,0,0,,2,,,74,127
44186,note_on,77,0,0,,3,,,75,127
44224,note_off,38,0,0,,7,,,67,127
44300,note_off,76,0,0,,0,,,48,127
44301,note_on,1,0,0,,8,,,68,127
44301,note_on,0,0,0,,12,,,47,127
44339,note_off,38,0,0,,3,,,75,127
44416,note_on,77,0,0,,5,,,77,127
44454,note_off,38,0,0,,8,,,68,127
44530,note_off,76,0,0,,12,,,47,127
44531,note_on,1,0,0,,7,,,67,127
44531,note_on,0,0,0,,0,,,48,127
44569,note_off,38,0,0,,5,,,77,127
44646,note_on,77,0,0,,3,,,75,127
44684,note_off,38,0,0,,7,,,67,127
44760,note_off,76,0,0,,0,,,48,127
44761,note_on,1,0,0,,5,,,65,127
44761,note_on,0,0,0,,2,,,50,127
44799,note_off,38,0,0,,3,,,75,127
44876,note_on,77,0,0,,2,,,74,127
44914,note_off,38,0,0,,5,,,65,127
44990,note_off,76,0,0,,2,,,50,127
44991,note_on,1,0,0,,3,,,63,127
44991,note_on,0,0,0,,3,,,51,127
45029,note_off,38,0,0,,2,,,74,127
45106,note_on,77,0,0,,0,,,72,127
45144,note_off,38,0,0,,3,,,63,127
45220,note_off,76,0,0,,3,,,51,127
45221,note_on,1,0,0,,2,,,62,127
45221,note_on,0,0,0,,5,,,53,127
45259,note_off,38,0,0,,0,,,72,127
45336,note_on,77,0,0,,12,,,71,127
45341,note_off,5,0,0,,2,,,62,127
45450,note_off,109,0,0,,5,,,53,127
45451,note_on,1,0,0,,3,,,63,127
45451,note_on,0,0,0,,3,,,51,127
45456,note_off,5,0,0,,12,,,71,127
45566,note_on,110,0,0,,0,,,72,127
45571,note_off,5,0,0,,3,,,63,127
45680,note_off,109,0,0,,3,,,51,127
45681,note_on,1,0,0,,5,,,65,127
45681,note_on,0,0,0,,2,,,50,127
45686,note_off,5,0,0,,0,,,72,127
45796,note_on,110,0,0,,2,,,74,127
45801,note_off,5,0,0,,5,,,65,127
45910,note_off,109,0,0,,2,,,50,127
45911,note_on,1,0,0,,7,,,67,127
45911,note_on,0,0,0,,0,,,48,127
45916,note_off,5,0,0,,2,,,74,127
46026,note_on,110,0,0,,3,,,75,127
46031,note_off,5,0,0,,7,,,67,127
46140,note_off,109,0,0,,0,,,48,127
46141,note_on,1,0,0,,8,,,68,127
46141,note_on,0,0,0,,12,,,47,127
46146,note_off,5,0,0,,3,,,75,127
46256,note_on,110,0,0,,5,,,77,127
46261,note_off,5,0,0,,8,,,68,127
46370,note_off,109,0,0,,12,,,47,127
46371,note_on,1,0,0,,7,,,67,127
46371,note_on,0,0,0,,0,,,48,127
46376,note_off,5,0,0,,5,,,77,127
46486,note_on,110,0,0,,3,,,75,127
46491,note_off,5,0,0,,7,,,67,127
46600,note_off,109,0,0,,0,,,48,127
46601,note_on,1,0,0,,5,,,65,127
46601,note_on,0,0,0,,5,,,53,127
46606,note_off,5,0,0,,3,,,75,127
46716,note_on,110,0,0,,2,,,74,127
46721,note_off,5,0,0,,5,,,65,127
46830,note_off,109,0,0,,5,,,53,127
46831,note_on,1,0,0,,3,,,63,127
46831,note_on,0,0,0,,8,,,56,127
46836,note_off,5,0,0,,2,,,74,127
46946,note_on,110,0,0,,0,,,72,127
46951,note_off,5,0,0,,3,,,63,127
47060,note_off,109,0,0,,8,,,56,127
47061,note_on,1,0,0,,12,,,71,127
47061,note_on,0,0,0,,7,,,55,127
47066,note_off,5,0,0,,0,,,72,127
47176,note_on,110,0,0,,7,,,67,127
47214,note_off,38,0,0,,12,,,71,127
47291,note_on,77,0,0,,8,,,68,127
47329,note_off,38,0,0,,7,,,67,127
47406,note_on,77,0,0,,10,,,69,127
47444,note_off,38,0,0,,8,,,68,127
47521,note_on,77,0,0,,11,,,70,127
47559,note_off,38,0,0,,10,,,69,127
47636,note_on,77,0,0,,12,,,71,127
47674,note_off,38,0,0,,11,,,70,127
47750,note_off,76,0,0,,7,,,55,127
47751,note_on,1,0,0,,0,,,72,127
47751,note_on,0,0,0,,4,,,64,127
47789,note_off,38,0,0,,12,,,71,127
47866,note_on,77,0,0,,7,,,67,127
47904,note_off,38,0,0,,0,,,72,127
47980,note_off,76,0,0,,4,,,64,127
47981,note_on,1,0,0,,8,,,68,127
47981,note_on,0,0,0,,5,,,65,127
48019,note_off,38,0,0,,7,,,67,127
48096,note_on,77,0,0,,10,,,69,127
48134,note_off,38,0,0,,8,,,68,127
48210,note_off,76,0,0,,5,,,65,127
48211,note_on,1,0,0,,11,,,70,127
48211,note_on,0,0,0,,5,,,65,127
48249,note_off,38,0,0,,10,,,69,127
48326,note_on,77,0,0,,12,,,71,127
48364,note_off,38,0,0,,11,,,70,127
48441,note_on,77,0,0,,0,,,72,127
48479,note_off,38,0,0,,12,,,71,127
48556,note_on,77,0,0,,1,,,73,127
48594,note_off,38,0,0,,0,,,72,127
48670,note_off,76,0,0,,5,,,65,127
48671,note_on,1,0,0,,2,,,74,127
48671,note_on,0,0,0,,6,,,66,127
48709,note_off,38,0,0,,1,,,73,127
48786,note_on,77,0,0,,10,,,69,127
48824,note_off,38,0,0,,2,,,74,127
48900,note_off,76,0,0,,6,,,66,127
48901,note_on,1,0,0,,12,,,71,127
48901,note_on,0,0,0,,7,,,67,127
48939,note_off,38,0,0,,10,,,69,127
49016,note_on,77,0,0,,2,,,74,127
49054,note_off,38,0,0,,12,,,71,127
49130,note_off,76,0,0,,7,,,67,127
49131,note_on,1,0,0,,3,,,75,127
49131,note_on,0,0,0,,7,,,67,127
49169,note_off,38,0,0,,2,,,74,127
49246,note_on,77,0,0,,4,,,76,127
49284,note_off,38,0,0,,3,,,75,127
49361,note_on,77,0,0,,5,,,77,127
49399,note_off,38,0,0,,4,,,76,127
49476,note_on,77,0,0,,6,,,78,127
49514,note_off,38,0,0,,5,,,77,127
49590,note_off,76,0,0,,7,,,67,127
49591,note_on,1,0,0,,7,,,79,127
49591,note_on,0,0,0,,12,,,59,127
49629,note_off,38,0,0,,6,,,78,127
49706,note_on,77,0,0,,2,,,74,127
49744,note_off,38,0,0,,7,,,79,127
49820,note_off,76,0,0,,12,,,59,127
49821,note_on,1,0,0,,3,,,75,127
49821,note_on,0,0,0,,0,,,60,127
49859,note_off,38,0,0,,2,,,74,127
49936,note_on,77,0,0,,4,,,76,127
49974,note_off,38,0,0,,3,,,75,127
50050,note_off,76,0,0,,0,,,60,127
50051,note_on,1,0,0,,5,,,77,127
50051,note_on,0,0,0,,0,,,60,127
50089,note_off,38,0,0,,4,,,76,127
50166,note_on,77,0,0,,6,,,78,127
50204,note_off,38,0,0,,5,,,77,127
50281,note_on,77,0,0,,7,,,79,127
50319,note_off,38,0,0,,6,,,78,127
50396,note_on,77,0,0,,8,,,80,127
50434,note_off,38,0,0,,7,,,79,127
50510,note_off,76,0,0,,0,,,60,127
50511,note_on,1,0,0,,10,,,81,127
50511,note_on,0,0,0,,1,,,61,127
50549,note_off,38,0,0,,8,,,80,127
50626,note_on,77,0,0,,4,,,76,127
50664,note_off,38,0,0,,10,,,81,127
50740,note_off,76,0,0,,1,,,61,127
50741,note_on,1,0,0,,6,,,78,127
50741,note_on,0,0,0,,2,,,62,127
50779,note_off,38,0,0,,4,,,76,127
50856,note_on,77,0,0,,10,,,69,127
50862,note_off,6,0,0,,2,,,62,127
50970,note_off,108,0,0,,6,,,78,127
50971,note_on,1,0,0,,10,,,81,127
50971,note_on,0,0,0,,7,,,67,127
50977,note_off,6,0,0,,10,,,69,127
51086,note_on,109,0,0,,2,,,62,127
51092,note_off,6,0,0,,7,,,67,127
51201,note_on,109,0,0,,0,,,60,127
51207,note_off,6,0,0,,2,,,62,127
51315,note_off,108,0,0,,10,,,81,127
51316,note_on,1,0,0,,11,,,82,127
51316,note_on,0,0,0,,10,,,69,127
51322,note_off,6,0,0,,0,,,60,127
51430,note_off,108,0,0,,11,,,82,127
51431,note_on,1,0,0,,0,,,84,127
51431,note_on,0,0,0,,7,,,67,127
51437,note_off,6,0,0,,10,,,69,127
51545,note_off,108,0,0,,0,,,84,127
51546,note_on,1,0,0,,7,,,79,127
51546,note_on,0,0,0,,0,,,60,127
51552,note_off,6,0,0,,7,,,67,127
51660,note_off,108,0,0,,7,,,79,127
51661,note_on,1,0,0,,6,,,78,127
51661,note_on,0,0,0,,2,,,62,127
51667,note_off,6,0,0,,0,,,60,127
51776,note_on,109,0,0,,10,,,69,127
51782,note_off,6,0,0,,2,,,62,127
51878,note_off,96,0,0,,6,,,78,127
51891,note_on,13,0,0,,10,,,81,127
51891,note_on,0,0,0,,7,,,67,127
51897,note_off,6,0,0,,10,,,69,127
52006,note_on,109,0,0,,2,,,62,127
52012,note_off,6,0,0,,7,,,67,127
52121,note_on,109,0,0,,0,,,60,127
52127,note_off,6,0,0,,2,,,62,127
52235,note_off,108,0,0,,10,,,81,127
52236,note_on,1,0,0,,11,,,82,127
52236,note_on,0,0,0,,10,,,69,127
52242,note_off,6,0,0,,0,,,60,127
52350,note_off,108,0,0,,11,,,82,127
52351,note_on,1,0,0,,0,,,84,127
52351,note_on,0,0,0,,7,,,67,127
52357,note_off,6,0,0,,10,,,69,127
52465,note_off,108,0,0,,0,,,84,127
52466,note_on,1,0,0,,7,,,79,127
52466,note_on,0,0,0,,0,,,60,127
52472,note_off,6,0,0,,7,,,67,127
52580,note_off,108,0,0,,7,,,79,127
52581,note_on,1,0,0,,6,,,78,127
52581,note_on,0,0,0,,2,,,62,127
52587,note_off,6,0,0,,0,,,60,127
52696,note_on,109,0,0,,10,,,69,127
52702,note_off,6,0,0,,2,,,62,127
52798,note_off,96,0,0,,6,,,78,127
52811,note_on,13,0,0,,10,,,81,127
52811,note_on,0,0,0,,7,,,67,127
52817,note_off,6,0,0,,10,,,69,127
52926,note_on,109,0,0,,2,,,62,127
52932,note_off,6,0,0,,7,,,67,127
53041,note_on,109,0,0,,0,,,60,127
53047,note_off,6,0,0,,2,,,62,127
53155,note_off,108,0,0,,10,,,81,127
53156,note_on,1,0,0,,11,,,82,127
53156,note_on,0,0,0,,10,,,69,127
53162,note_off,6,0,0,,0,,,60,127
53270,note_off,108,0,0,,11,,,82,127
53271,note_on,1,0,0,,0,,,84,127
53271,note_on,0,0,0,,7,,,67,127
53277,note_off,6,0,0,,10,,,69,127
53385,note_off,108,0,0,,0,,,84,127
53386,note_on,1,0,0,,3,,,75,127
53386,note_on,0,0,0,,0,,,60,127
53392,note_off,6,0,0,,7,,,67,127
53500,note_off,108,0,0,,3,,,75,127
53501,note_on,1,0,0,,2,,,74,127
53501,note_on,0,0,0,,12,,,59,127
53507,note_off,6,0,0,,0,,,60,127
53616,note_on,109,0,0,,7,,,67,127
53622,note_off,6,0,0,,12,,,59,127
53718,note_off,96,0,0,,2,,,74,127
53731,note_on,13,0,0,,2,,,74,127
53731,note_on,0,0,0,,5,,,65,127
53737,note_off,6,0,0,,7,,,67,127
53846,note_on,109,0,0,,12,,,59,127
53852,note_off,6,0,0,,5,,,65,127
53961,note_on,109,0,0,,0,,,60,127
53967,note_off,6,0,0,,12,,,59,127
54075,note_off,108,0,0,,2,,,74,127
54076,note_on,1,0,0,,3,,,75,127
54076,note_on,0,0,0,,7,,,67,127
54082,note_off,6,0,0,,0,,,60,127
54190,note_off,108,0,0,,3,,,75,127
54191,note_on,1,0,0,,5,,,77,127
54191,note_on,0,0,0,,5,,,65,127
54197,note_off,6,0,0,,7,,,67,127
54305,note_off,108,0,0,,5,,,77,127
54306,note_on,1,0,0,,0,,,72,127
54306,note_on,0,0,0,,0,,,60,127
54312,note_off,6,0,0,,5,,,65,127
54420,note_off,108,0,0,,0,,,72,127
54421,note_on,1,0,0,,2,,,74,127
54421,note_on,0,0,0,,12,,,59,127
54427,note_off,6,0,0,,0,,,60,127
54536,note_on,109,0,0,,7,,,67,127
54542,note_off,6,0,0,,12,,,59,127
54638,note_off,96,0,0,,2,,,74,127
54651,note_on,13,0,0,,2,,,74,127
54651,note_on,0,0,0,,5,,,65,127
54657,note_off,6,0,0,,7,,,67,127
54766,note_on,109,0,0,,12,,,59,127
54772,note_off,6,0,0,,5,,,65,127
54881,note_on,109,0,0,,0,,,60,127
54887,note_off,6,0,0,,12,,,59,127
54995,note_off,108,0,0,,2,,,74,127
54996,note_on,1,0,0,,3,,,75,127
54996,note_on,0,0,0,,7,,,67,127
55002,note_off,6,0,0,,0,,,60,127
55110,note_off,108,0,0,,3,,,75,127
55111,note_on,1,0,0,,5,,,77,127
55111,note_on,0,0,0,,5,,,65,127
55117,note_off,6,0,0,,7,,,67,127
55225,note_off,108,0,0,,5,,,77,127
55226,note_on,1,0,0,,0,,,60,127
55226,note_on,0,0,0,,0,,,72,127
55232,note_off,6,0,0,,5,,,65,127
55340,note_off,108,0,0,,0,,,72,127
55341,note_on,1,0,0,,2,,,74,127
55341,note_on,0,0,0,,12,,,59,127
55347,note_off,6,0,0,,0,,,60,127
55456,note_on,109,0,0,,7,,,67,127
55462,note_off,6,0,0,,12,,,59,127
55558,note_off,96,0,0,,2,,,74,127
55571,note_on,13,0,0,,7,,,79,127
55571,note_on,0,0,0,,5,,,65,127
55577,note_off,6,0,0,,7,,,67,127
55686,note_on,109,0,0,,12,,,59,127
55692,note_off,6,0,0,,5,,,65,127
55801,note_on,109,0,0,,11,,,58,127
55807,note_off,6,0,0,,12,,,59,127
55915,note_off,108,0,0,,7,,,79,127
55916,note_on,1,0,0,,7,,,79,127
55916,note_on,0,0,0,,7,,,67,127
55922,note_off,6,0,0,,11,,,58,127
56030,note_off,108,0,0,,7,,,79,127
56031,note_on,1,0,0,,8,,,80,127
56031,note_on,0,0,0,,5,,,65,127
56037,note_off,6,0,0,,7,,,67,127
56145,note_off,108,0,0,,8,,,80,127
56146,note_on,1,0,0,,4,,,76,127
56146,note_on,0,0,0,,11,,,58,127
56152,note_off,6,0,0,,5,,,65,127
56260,note_off,108,0,0,,4,,,76,127
56261,note_on,1,0,0,,5,,,77,127
56261,note_on,0,0,0,,8,,,56,127
56267,note_off,6,0,0,,11,,,58,127
56376,note_on,109,0,0,,5,,,65,127
56382,note_off,6,0,0,,8,,,56,127
56478,note_off,96,0,0,,5,,,77,127
56491,note_on,13,0,0,,5,,,77,127
56491,note_on,0,0,0,,0,,,60,127
56497,note_off,6,0,0,,5,,,65,127
56606,note_on,109,0,0,,8,,,56,127
56612,note_off,6,0,0,,0,,,60,127
56721,note_on,109,0,0,,11,,,58,127
56727,note_off,6,0,0,,8,,,56,127
56835,note_off,108,0,0,,5,,,77,127
56836,note_on,1,0,0,,7,,,79,127
56836,note_on,0,0,0,,5,,,65,127
56842,note_off,6,0,0,,11,,,58,127
56950,note_off,108,0,0,,7,,,79,127
56951,note_on,1,0,0,,8,,,80,127
56951,note_on,0,0,0,,1,,,61,127
56957,note_off,6,0,0,,5,,,65,127
57065,note_off,108,0,0,,8,,,80,127
57066,note_on,1,0,0,,4,,,76,127
57066,note_on,0,0,0,,11,,,58,127
57072,note_off,6,0,0,,1,,,61,127
57180,note_off,108,0,0,,4,,,76,127
57181,note_on,1,0,0,,5,,,77,127
57181,note_on,0,0,0,,8,,,56,127
57187,note_off,6,0,0,,11,,,58,127
57296,note_on,109,0,0,,5,,,65,127
57302,note_off,6,0,0,,8,,,56,127
57398,note_off,96,0,0,,5,,,77,127
57411,note_on,13,0,0,,5,,,77,127
57411,note_on,0,0,0,,0,,,60,127
57417,note_off,6,0,0,,5,,,65,127
57526,note_on,109,0,0,,8,,,56,127
57532,note_off,6,0,0,,0,,,60,127
57641,note_on,109,0,0,,11,,,58,127
57647,note_off,6,0,0,,8,,,56,127
57755,note_off,108,0,0,,5,,,77,127
57756,note_on,1,0,0,,7,,,79,127
57756,note_on,0,0,0,,5,,,65,127
57762,note_off,6,0,0,,11,,,58,127
57870,note_off,108,0,0,,7,,,79,127
57871,note_on,1,0,0,,8,,,80,127
57871,note_on,0,0,0,,1,,,61,127
57877,note_off,6,0,0,,5,,,65,127
57985,note_off,108,0,0,,8,,,80,127
57986,note_on,1,0,0,,4,,,76,127
57986,note_on,0,0,0,,11,,,58,127
57992,note_off,6,0,0,,1,,,61,127
58100,note_off,108,0,0,,4,,,76,127
58101,note_on,1,0,0,,5,,,77,127
58101,note_on,0,0,0,,8,,,56,127
58107,note_off,6,0,0,,11,,,58,127
58216,note_on,109,0,0,,0,,,72,127
58330,note_off,114,0,0,,0,,,72,127
58330,note_off,0,0,0,,8,,,56,127
58331,note_on,1,0,0,,1,,,73,127
58331,note_on,0,0,0,,11,,,58,127
58445,note_off,114,0,0,,1,,,73,127
58446,note_on,1,0,0,,11,,,70,127
58560,note_off,114,0,0,,11,,,70,127
58560,note_off,0,0,0,,11,,,58,127
58561,note_on,1,0,0,,0,,,72,127
58561,note_on,0,0,0,,8,,,56,127
58675,note_off,114,0,0,,0,,,72,127
58676,note_off,1,0,0,,5,,,77,127
58676,note_on,0,0,0,,8,,,68,127
58790,note_off,114,0,0,,8,,,68,127
58790,note_off,0,0,0,,8,,,56,127
58791,note_on,1,0,0,,11,,,70,127
58791,note_on,0,0,0,,4,,,76,127
58791,note_on,0,0,0,,7,,,55,127
58905,note_off,114,0,0,,11,,,70,127
58906,note_on,1,0,0,,7,,,67,127
58995,note_off,89,0,0,,4,,,76,127
59020,note_off,25,0,0,,7,,,67,127
59020,note_off,0,0,0,,7,,,55,127
59021,note_on,1,0,0,,8,,,68,127
59021,note_on,0,0,0,,5,,,77,127
59021,note_on,0,0,0,,5,,,53,127
59136,note_on,115,0,0,,0,,,60,127
59174,note_off,38,0,0,,8,,,68,127
59251,note_off,77,0,0,,5,,,77,127
59251,note_on,0,0,0,,1,,,61,127
59289,note_off,38,0,0,,0,,,60,127
59366,note_on,77,0,0,,2,,,62,127
59404,note_off,38,0,0,,1,,,61,127
59481,note_on,77,0,0,,3,,,63,127
59519,note_off,38,0,0,,2,,,62,127
59596,note_on,77,0,0,,4,,,64,127
59634,note_off,38,0,0,,3,,,63,127
59710,note_off,76,0,0,,5,,,53,127
59711,note_on,1,0,0,,5,,,65,127
59711,note_on,0,0,0,,10,,,57,127
59749,note_off,38,0,0,,4,,,64,127
59826,note_on,77,0,0,,0,,,60,127
59864,note_off,38,0,0,,5,,,65,127
59940,note_off,76,0,0,,10,,,57,127
59941,note_on,1,0,0,,1,,,61,127
59941,note_on,0,0,0,,11,,,58,127
59979,note_off,38,0,0,,0,,,60,127
60056,note_on,77,0,0,,2,,,62,127
60094,note_off,38,0,0,,1,,,61,127
60170,note_off,76,0,0,,11,,,58,127
60171,note_on,1,0,0,,3,,,63,127
60171,note_on,0,0,0,,11,,,58,127
60209,note_off,38,0,0,,2,,,62,127
60286,note_on,77,0,0,,4,,,64,127
60324,note_off,38,0,0,,3,,,63,127
60401,note_on,77,0,0,,5,,,65,127
60439,note_off,38,0,0,,4,,,64,127
60516,note_on,77,0,0,,6,,,66,127
60554,note_off,38,0,0,,5,,,65,127
60630,note_off,76,0,0,,11,,,58,127
60631,note_on,1,0,0,,7,,,67,127
60631,note_on,0,0,0,,12,,,59,127
60669,note_off,38,0,0,,6,,,66,127
60746,note_on,77,0,0,,2,,,62,127
60784,note_off,38,0,0,,7,,,67,127
60860,note_off,76,0,0,,12,,,59,127
60861,note_on,1,0,0,,4,,,64,127
60861,note_on,0,0,0,,0,,,60,127
60899,note_off,38,0,0,,2,,,62,127
60975,note_off,76,0,0,,4,,,64,127
60976,note_on,1,0,0,,11,,,70,127
61090,note_off,114,0,0,,11,,,70,127
61090,note_off,0,0,0,,0,,,60,127
61091,note_on,1,0,0,,7,,,67,127
61091,note_on,0,0,0,,0,,,48,127
61205,note_off,114,0,0,,7,,,67,127
61206,note_on,1,0,0,,4,,,64,127
61320,note_off,114,0,0,,4,,,64,127
61321,note_on,1,0,0,,11,,,70,127
61321,note_on,0,0,0,,1,,,73,127
61435,note_off,114,0,0,,0,,,48,127
61436,note_on,1,0,0,,7,,,55,127
61550,note_off,114,0,0,,7,,,55,127
61551,note_on,1,0,0,,4,,,52,127
61665,note_off,114,0,0,,4,,,52,127
61666,note_on,1,0,0,,11,,,46,127
61780,note_off,114,0,0,,11,,,46,127
61780,note_off,0,0,0,,1,,,73,127
61780,note_off,0,0,0,,11,,,70,127
61781,note_on,1,0,0,,8,,,68,127
61781,note_on,0,0,0,,0,,,72,127
61781,note_on,0,0,0,,8,,,44,127
61895,note_off,114,0,0,,8,,,44,127
61896,note_on,1,0,0,,5,,,53,127
62010,note_off,114,0,0,,5,,,53,127
62011,note_on,1,0,0,,0,,,48,127
62125,note_off,114,0,0,,0,,,48,127
62126,note_on,1,0,0,,8,,,44,127
62240,note_off,114,0,0,,8,,,44,127
62240,note_off,0,0,0,,0,,,72,127
62240,note_off,0,0,0,,8,,,68,127
62241,note_on,1,0,0,,11,,,70,127
62241,note_on,0,0,0,,3,,,63,127
62241,note_on,0,0,0,,6,,,42,127
62355,note_off,114,0,0,,6,,,42,127
62356,note_on,1,0,0,,3,,,51,127
62470,note_off,114,0,0,,3,,,51,127
62471,note_on,1,0,0,,11,,,46,127
62585,note_off,114,0,0,,11,,,46,127
62586,note_on,1,0,0,,6,,,42,127
62700,note_off,114,0,0,,6,,,42,127
62700,note_off,0,0,0,,3,,,63,127
62700,note_off,0,0,0,,11,,,70,127
62701,note_on,1,0,0,,10,,,69,127
62701,note_on,0,0,0,,5,,,41,127
62815,note_off,114,0,0,,10,,,69,127
62816,note_on,1,0,0,,0,,,72,127
62930,note_off,114,0,0,,0,,,72,127
62931,note_on,1,0,0,,10,,,69,127
63045,note_off,114,0,0,,10,,,69,127
63046,note_on,1,0,0,,5,,,65,127
63160,note_off,114,0,0,,5,,,65,127
63161,note_on,1,0,0,,10,,,69,127
63161,note_on,0,0,0,,6,,,78,127
63275,note_off,114,0,0,,5,,,41,127
63276,note_on,1,0,0,,0,,,60,127
63390,note_off,114,0,0,,0,,,60,127
63391,note_on,1,0,0,,10,,,57,127
63505,note_off,114,0,0,,10,,,57,127
63506,note_on,1,0,0,,3,,,51,127
63620,note_off,114,0,0,,3,,,51,127
63620,note_off,0,0,0,,6,,,78,127
63620,note_off,0,0,0,,10,,,69,127
63621,note_on,1,0,0,,11,,,70,127
63621,note_on,0,0,0,,5,,,77,127
63621,note_on,0,0,0,,1,,,49,127
63735,note_off,114,0,0,,1,,,49,127
63736,note_on,1,0,0,,11,,,58,127
63850,note_off,114,0,0,,11,,,58,127
63851,note_on,1,0,0,,5,,,53,127
63965,note_off,114,0,0,,5,,,53,127
63966,note_on,1,0,0,,1,,,49,127
64080,note_off,114,0,0,,1,,,49,127
64080,note_off,0,0,0,,5,,,77,127
64080,note_off,0,0,0,,11,,,70,127
64081,note_on,1,0,0,,10,,,69,127
64081,note_on,0,0,0,,3,,,75,127
64081,note_on,0,0,0,,0,,,48,127
64195,note_off,114,0,0,,0,,,48,127
64196,note_on,1,0,0,,10,,,57,127
64310,note_off,114,0,0,,10,,,57,127
64311,note_on,1,0,0,,3,,,51,127
64425,note_off,114,0,0,,3,,,51,127
64426,note_on,1,0,0,,0,,,48,127
64540,note_off,114,0,0,,0,,,48,127
64540,note_off,0,0,0,,3,,,75,127
64540,note_off,0,0,0,,10,,,69,127
64541,note_on,1,0,0,,11,,,70,127
64541,note_on,0,0,0,,1,,,73,127
64541,note_on,0,0,0,,11,,,46,127
64655,note_off,114,0,0,,1,,,73,127
64655,note_off,0,0,0,,11,,,70,127
64656,note_on,1,0,0,,5,,,65,127
64771,note_on,115,0,0,,6,,,66,127
64809,note_off,38,0,0,,5,,,65,127
64886,note_on,77,0,0,,7,,,67,127
64924,note_off,38,0,0,,6,,,66,127
65001,note_on,77,0,0,,8,,,68,127
65039,note_off,38,0,0,,7,,,67,127
65116,note_on,77,0,0,,10,,,69,127
65154,note_off,38,0,0,,8,,,68,127
65230,note_off,76,0,0,,11,,,46,127
65231,note_on,1,0,0,,11,,,70,127
65231,note_on,0,0,0,,2,,,62,127
65269,note_off,38,0,0,,10,,,69,127
65346,note_on,77,0,0,,5,,,65,127
65384,note_off,38,0,0,,11,,,70,127
65460,note_off,76,0,0,,2,,,62,127
65461,note_on,1,0,0,,7,,,67,127
65461,note_on,0,0,0,,3,,,63,127
65499,note_off,38,0,0,,5,,,65,127
65576,note_on,77,0,0,,11,,,70,127
65614,note_off,38,0,0,,7,,,67,127
65690,note_off,76,0,0,,3,,,63,127
65691,note_on,1,0,0,,12,,,71,127
65691,note_on,0,0,0,,3,,,63,127
65729,note_off,38,0,0,,11,,,70,127
65806,note_on,77,0,0,,0,,,72,127
65844,note_off,38,0,0,,12,,,71,127
65921,note_on,77,0,0,,1,,,73,127
65959,note_off,38,0,0,,0,,,72,127
66036,note_on,77,0,0,,2,,,74,127
66074,note_off,38,0,0,,1,,,73,127
66150,note_off,76,0,0,,3,,,63,127
66151,note_on,1,0,0,,3,,,75,127
66151,note_on,0,0,0,,7,,,67,127
66189,note_off,38,0,0,,2,,,74,127
66266,note_on,77,0,0,,11,,,70,127
66304,note_off,38,0,0,,3,,,75,127
66380,note_off,76,0,0,,7,,,67,127
66381,note_on,1,0,0,,0,,,72,127
66381,note_on,0,0,0,,8,,,68,127
66419,note_off,38,0,0,,11,,,70,127
66495,note_off,76,0,0,,0,,,72,127
66496,note_on,1,0,0,,2,,,74,127
66610,note_off,114,0,0,,2,,,74,127
66610,note_off,0,0,0,,8,,,68,127
66611,note_on,1,0,0,,3,,,75,127
66611,note_on,0,0,0,,7,,,67,127
66725,note_off,114,0,0,,3,,,75,127
66726,note_on,1,0,0,,11,,,70,127
66840,note_off,114,0,0,,11,,,70,127
66840,note_off,0,0,0,,7,,,67,127
66841,note_on,1,0,0,,8,,,68,127
66841,note_on,0,0,0,,5,,,65,127
66955,note_off,114,0,0,,8,,,68,127
66956,note_on,1,0,0,,2,,,74,127
67070,note_off,114,0,0,,2,,,74,127
67070,note_off,0,0,0,,5,,,65,127
67071,note_on,1,0,0,,3,,,75,127
67071,note_on,0,0,0,,3,,,63,127
67185,note_off,114,0,0,,3,,,75,127
67186,note_on,1,0,0,,7,,,67,127
67300,note_off,114,0,0,,7,,,67,127
67300,note_off,0,0,0,,3,,,63,127
67301,note_on,1,0,0,,8,,,68,127
67301,note_on,0,0,0,,3,,,63,127
67301,note_on,0,0,0,,11,,,58,127
67359,note_on,58,0,0,,7,,,67,127
67378,note_off,19,0,0,,8,,,68,127
67416,note_on,38,0,0,,8,,,68,127
67435,note_off,19,0,0,,7,,,67,127
67473,note_on,38,0,0,,7,,,67,127
67492,note_off,19,0,0,,8,,,68,127
67529,note_off,37,0,0,,7,,,67,127
67529,note_off,0,0,0,,3,,,63,127
67530,note_on,1,0,0,,5,,,65,127
67530,note_on,0,0,0,,2,,,62,127
67990,note_off,460,0,0,,2,,,62,127
67990,note_off,0,0,0,,5,,,65,127
67990,note_off,0,0,0,,11,,,58,127
67991,note_on,1,0,0,,11,,,70,127
67991,note_on,0,0,0,,11,,,58,127
68105,note_off,114,0,0,,11,,,70,127
68106,note_on,1,0,0,,8,,,68,127
68220,note_off,114,0,0,,8,,,68,127
68220,note_off,0,0,0,,11,,,58,127
68221,note_on,1,0,0,,11,,,70,127
68221,note_on,0,0,0,,8,,,68,127
68221,note_on,0,0,0,,12,,,59,127
68335,note_off,114,0,0,,8,,,68,127
68335,note_off,0,0,0,,11,,,70,127
68336,note_on,1,0,0,,6,,,66,127
68450,note_off,114,0,0,,6,,,66,127
68450,note_off,0,0,0,,12,,,59,127
68451,note_on,1,0,0,,5,,,65,127
68451,note_on,0,0,0,,8,,,56,127
68565,note_off,114,0,0,,5,,,65,127
68566,note_on,1,0,0,,3,,,63,127
68680,note_off,114,0,0,,3,,,63,127
68681,note_on,1,0,0,,5,,,65,127
68681,note_on,0,0,0,,3,,,63,127
68795,note_off,114,0,0,,3,,,63,127
68795,note_off,0,0,0,,5,,,65,127
68796,note_on,1,0,0,,2,,,62,127
68910,note_off,114,0,0,,2,,,62,127
68910,note_off,0,0,0,,8,,,56,127
68911,note_on,1,0,0,,11,,,70,127
68911,note_on,0,0,0,,11,,,58,127
69025,note_off,114,0,0,,11,,,70,127
69026,note_on,1,0,0,,8,,,68,127
69140,note_off,114,0,0,,8,,,68,127
69140,note_off,0,0,0,,11,,,58,127
69141,note_on,1,0,0,,11,,,70,127
69141,note_on,0,0,0,,8,,,68,127
69141,note_on,0,0,0,,12,,,59,127
69255,note_off,114,0,0,,8,,,68,127
69255,note_off,0,0,0,,11,,,70,127
69256,note_on,1,0,0,,6,,,66,127
69370,note_off,114,0,0,,6,,,66,127
69370,note_off,0,0,0,,12,,,59,127
69371,note_on,1,0,0,,5,,,65,127
69371,note_on,0,0,0,,8,,,56,127
69485,note_off,114,0,0,,5,,,65,127
69486,note_on,1,0,0,,3,,,63,127
69600,note_off,114,0,0,,3,,,63,127
69601,note_on,1,0,0,,3,,,63,127
69601,note_on,0,0,0,,5,,,65,127
69715,note_off,114,0,0,,5,,,65,127
69715,note_off,0,0,0,,3,,,63,127
69716,note_on,1,0,0,,2,,,62,127
69830,note_off,114,0,0,,2,,,62,127
69830,note_off,0,0,0,,8,,,56,127
69831,note_on,1,0,0,,11,,,70,127
69831,note_on,0,0,0,,11,,,58,127
69945,note_off,114,0,0,,11,,,70,127
69946,note_on,1,0,0,,8,,,68,127
70060,note_off,114,0,0,,8,,,68,127
70060,note_off,0,0,0,,11,,,58,127
70061,note_on,1,0,0,,11,,,70,127
70061,note_on,0,0,0,,8,,,68,127
70061,note_on,0,0,0,,11,,,58,127
70061,note_on,0,0,0,,1,,,61,127
70061,note_on,0,0,0,,3,,,63,127
70175,note_off,114,0,0,,8,,,68,127
70175,note_off,0,0,0,,11,,,70,127
70176,note_on,1,0,0,,7,,,67,127
70290,note_off,114,0,0,,7,,,67,127
70290,note_off,0,0,0,,3,,,63,127
70290,note_off,0,0,0,,1,,,61,127
70290,note_off,0,0,0,,11,,,58,127
70291,note_on,1,0,0,,4,,,76,127
70291,note_on,0,0,0,,3,,,63,127
70291,note_on,0,0,0,,1,,,61,127
70291,note_on,0,0,0,,11,,,58,127
70405,note_off,114,0,0,,4,,,76,127
70406,note_on,1,0,0,,3,,,75,127
70520,note_off,114,0,0,,3,,,75,127
70521,note_on,1,0,0,,3,,,75,127
70635,note_off,114,0,0,,3,,,75,127
70636,note_on,1,0,0,,1,,,73,127
70750,note_off,114,0,0,,1,,,73,127
70750,note_off,0,0,0,,11,,,58,127
70750,note_off,0,0,0,,1,,,61,127
70750,note_off,0,0,0,,3,,,63,127
70751,note_on,1,0,0,,12,,,71,127
70751,note_on,0,0,0,,3,,,63,127
70751,note_on,0,0,0,,1,,,61,127
70751,note_on,0,0,0,,11,,,58,127
70865,note_off,114,0,0,,12,,,71,127
70866,note_on,1,0,0,,11,,,70,127
70980,note_off,114,0,0,,11,,,70,127
70980,note_off,0,0,0,,11,,,58,127
70980,note_off,0,0,0,,1,,,61,127
70980,note_off,0,0,0,,3,,,63,127
70981,note_on,1,0,0,,11,,,70,127
70981,note_on,0,0,0,,3,,,63,127
70981,note_on,0,0,0,,8,,,56,127
71095,note_off,114,0,0,,11,,,70,127
71096,note_on,1,0,0,,12,,,71,127
71210,note_off,114,0,0,,12,,,71,127
71210,note_off,0,0,0,,8,,,56,127
71210,note_off,0,0,0,,3,,,63,127
71211,note_on,1,0,0,,8,,,80,127
71211,note_on,0,0,0,,3,,,63,127
71211,note_on,0,0,0,,8,,,56,127
71325,note_off,114,0,0,,8,,,80,127
71326,note_on,1,0,0,,6,,,78,127
71440,note_off,114,0,0,,6,,,78,127
71441,note_on,1,0,0,,5,,,77,127
71555,note_off,114,0,0,,5,,,77,127
71556,note_on,1,0,0,,3,,,75,127
71670,note_off,114,0,0,,3,,,75,127
71670,note_off,0,0,0,,8,,,56,127
71670,note_off,0,0,0,,3,,,63,127
71671,note_on,1,0,0,,5,,,77,127
71671,note_on,0,0,0,,3,,,75,127
71671,note_on,0,0,0,,11,,,58,127
71671,note_on,0,0,0,,2,,,62,127
71671,note_on,0,0,0,,8,,,56,127
71785,note_off,114,0,0,,3,,,75,127
71785,note_off,0,0,0,,5,,,77,127
71786,note_on,1,0,0,,2,,,74,127
71900,note_off,114,0,0,,2,,,74,127
71900,note_off,0,0,0,,8,,,56,127
71900,note_off,0,0,0,,2,,,62,127
71900,note_off,0,0,0,,11,,,58,127
71901,note_on,1,0,0,,3,,,75,127
71901,note_on,0,0,0,,11,,,58,127
71901,note_on,0,0,0,,6,,,54,127
71901,note_on,0,0,0,,3,,,63,127
72015,note_off,114,0,0,,3,,,75,127
72016,note_on,1,0,0,,1,,,73,127
72130,note_off,114,0,0,,1,,,73,127
72130,note_off,0,0,0,,3,,,63,127
72130,note_off,0,0,0,,6,,,54,127
72130,note_off,0,0,0,,11,,,58,127
72131,note_on,1,0,0,,0,,,72,127
72131,note_on,0,0,0,,4,,,76,127
72131,note_on,0,0,0,,6,,,54,127
72131,note_on,0,0,0,,11,,,58,127
72245,note_off,114,0,0,,0,,,72,127
72246,note_on,1,0,0,,11,,,70,127
72304,note_off,58,0,0,,4,,,76,127
72360,note_off,56,0,0,,11,,,70,127
72360,note_off,0,0,0,,11,,,58,127
72360,note_off,0,0,0,,6,,,54,127
72361,note_on,1,0,0,,5,,,77,127
72361,note_on,0,0,0,,11,,,70,127
72361,note_on,0,0,0,,5,,,53,127
72361,note_on,0,0,0,,0,,,60,127
72475,note_off,114,0,0,,11,,,70,127
72476,note_on,1,0,0,,10,,,69,127
72590,note_off,114,0,0,,10,,,69,127
72590,note_off,0,0,0,,0,,,60,127
72590,note_off,0,0,0,,5,,,53,127
72591,note_on,1,0,0,,11,,,70,127
72591,note_on,0,0,0,,3,,,51,127
72705,note_off,114,0,0,,11,,,70,127
72705,note_off,0,0,0,,5,,,77,127
72706,note_on,1,0,0,,10,,,69,127
72820,note_off,114,0,0,,10,,,69,127
72820,note_off,0,0,0,,3,,,51,127
72821,note_on,1,0,0,,11,,,70,127
72821,note_on,0,0,0,,11,,,58,127
72821,note_on,0,0,0,,2,,,50,127
72935,note_off,114,0,0,,11,,,70,127
72936,note_on,1,0,0,,0,,,72,127
73050,note_off,114,0,0,,0,,,72,127
73050,note_off,0,0,0,,2,,,50,127
73050,note_off,0,0,0,,11,,,58,127
73051,note_on,1,0,0,,2,,,74,127
73051,note_on,0,0,0,,11,,,46,127
73165,note_off,114,0,0,,2,,,74,127
73166,note_on,1,0,0,,3,,,75,127
73280,note_off,114,0,0,,3,,,75,127
73281,note_on,1,0,0,,5,,,77,127
73396,note_on,115,0,0,,8,,,68,127
73510,note_off,114,0,0,,8,,,68,127
73510,note_off,0,0,0,,5,,,77,127
73510,note_off,0,0,0,,11,,,46,127
73511,note_on,1,0,0,,7,,,67,127
73511,note_on,0,0,0,,2,,,50,127
73625,note_off,114,0,0,,7,,,67,127
73626,note_on,1,0,0,,5,,,65,127
73740,note_off,114,0,0,,5,,,65,127
73740,note_off,0,0,0,,2,,,50,127
73741,note_on,1,0,0,,7,,,67,127
73741,note_on,0,0,0,,3,,,51,127
73856,note_on,115,0,0,,3,,,75,127
73914,note_off,58,0,0,,7,,,67,127
73970,note_off,56,0,0,,3,,,51,127
73971,note_on,1,0,0,,0,,,72,127
73971,note_on,0,0,0,,8,,,56,127
74029,note_off,58,0,0,,3,,,75,127
74087,note_on,58,0,0,,0,,,84,127
74145,note_off,58,0,0,,0,,,72,127
74201,note_off,56,0,0,,8,,,56,127
74202,note_on,1,0,0,,3,,,75,127
74202,note_on,0,0,0,,7,,,55,127
74260,note_off,58,0,0,,0,,,84,127
74318,note_on,58,0,0,,11,,,82,127
74376,note_off,58,0,0,,3,,,75,127
74432,note_off,56,0,0,,7,,,55,127
74433,note_on,1,0,0,,2,,,74,127
74433,note_on,0,0,0,,5,,,53,127
74491,note_off,58,0,0,,11,,,82,127
74549,note_on,58,0,0,,8,,,80,127
74607,note_off,58,0,0,,2,,,74,127
74663,note_off,56,0,0,,5,,,53,127
74664,note_on,1,0,0,,11,,,70,127
74664,note_on,0,0,0,,3,,,51,127
74722,note_off,58,0,0,,8,,,80,127
74780,note_on,58,0,0,,7,,,79,127
74838,note_off,58,0,0,,11,,,70,127
74894,note_off,56,0,0,,3,,,51,127
74895,note_on,1,0,0,,8,,,68,127
74895,note_on,0,0,0,,8,,,56,127
74953,note_off,58,0,0,,7,,,79,127
75011,note_on,58,0,0,,5,,,77,127
75069,note_off,58,0,0,,8,,,68,127
75125,note_off,56,0,0,,8,,,56,127
75126,note_on,1,0,0,,7,,,67,127
75126,note_on,0,0,0,,11,,,58,127
75184,note_off,58,0,0,,5,,,77,127
75242,note_on,58,0,0,,3,,,75,127
75300,note_off,58,0,0,,7,,,67,127
75358,note_on,58,0,0,,5,,,65,127
75358,note_on,0,0,0,,11,,,46,127
75416,note_off,58,0,0,,3,,,75,127
75474,note_on,58,0,0,,2,,,74,127
75532,note_off,58,0,0,,5,,,65,127
75585,note_off,53,0,0,,11,,,58,127
75589,note_off,4,0,0,,2,,,74,127
75589,note_off,0,0,0,,11,,,46,127
75590,note_on,1,0,0,,3,,,75,127
75590,note_on,0,0,0,,3,,,51,127
75704,note_off,114,0,0,,3,,,75,127
75705,note_on,1,0,0,,11,,,70,127
75819,note_off,114,0,0,,11,,,70,127
75820,note_on,1,0,0,,7,,,67,127
75934,note_off,114,0,0,,3,,,51,127
75935,note_on,1,0,0,,3,,,63,127
76049,note_off,114,0,0,,7,,,67,127
76050,note_on,1,0,0,,5,,,77,127
76050,note_on,0,0,0,,8,,,80,127
76164,note_off,114,0,0,,3,,,63,127
76165,note_on,1,0,0,,5,,,53,127
76279,note_off,114,0,0,,5,,,53,127
76280,note_on,1,0,0,,2,,,50,127
76394,note_off,114,0,0,,2,,,50,127
76395,note_on,1,0,0,,11,,,46,127
76509,note_off,114,0,0,,11,,,46,127
76509,note_off,0,0,0,,8,,,80,127
76509,note_off,0,0,0,,5,,,77,127
76510,note_on,1,0,0,,3,,,75,127
76510,note_on,0,0,0,,7,,,79,127
76510,note_on,0,0,0,,3,,,39,127
76624,note_off,114,0,0,,7,,,79,127
76624,note_off,0,0,0,,3,,,75,127
76625,note_on,1,0,0,,11,,,70,127
76739,note_off,114,0,0,,11,,,70,127
76740,note_on,1,0,0,,7,,,67,127
76854,note_off,114,0,0,,3,,,39,127
76855,note_on,1,0,0,,3,,,63,127
76969,note_off,114,0,0,,7,,,67,127
76970,note_on,1,0,0,,0,,,72,127
76970,note_on,0,0,0,,10,,,81,127
77084,note_off,114,0,0,,3,,,63,127
77085,note_on,1,0,0,,5,,,53,127
77199,note_off,114,0,0,,5,,,53,127
77200,note_on,1,0,0,,0,,,48,127
77314,note_off,114,0,0,,0,,,48,127
77315,note_on,1,0,0,,5,,,41,127
77429,note_off,114,0,0,,5,,,41,127
77429,note_off,0,0,0,,10,,,81,127
77429,note_off,0,0,0,,0,,,72,127
77430,note_on,1,0,0,,2,,,74,127
77430,note_on,0,0,0,,11,,,82,127
77430,note_on,0,0,0,,11,,,46,127
77544,note_off,114,0,0,,11,,,82,127
77544,note_off,0,0,0,,2,,,74,127
77545,note_on,1,0,0,,5,,,77,127
77659,note_off,114,0,0,,5,,,77,127
77660,note_on,1,0,0,,2,,,74,127
77774,note_off,114,0,0,,2,,,74,127
77775,note_on,1,0,0,,11,,,70,127
77889,note_off,114,0,0,,11,,,70,127
77890,note_on,1,0,0,,5,,,77,127
77890,note_on,0,0,0,,8,,,80,127
78004,note_off,114,0,0,,11,,,46,127
78005,note_on,1,0,0,,5,,,53,127
78119,note_off,114,0,0,,5,,,53,127
78120,note_on,1,0,0,,2,,,50,127
78234,note_off,114,0,0,,2,,,50,127
78235,note_on,1,0,0,,11,,,46,127
78349,note_off,114,0,0,,11,,,46,127
78349,note_off,0,0,0,,8,,,80,127
78349,note_off,0,0,0,,5,,,77,127
78350,note_on,1,0,0,,3,,,75,127
78350,note_on,0,0,0,,7,,,79,127
78350,note_on,0,0,0,,3,,,39,127
78464,note_off,114,0,0,,7,,,79,127
78464,note_off,0,0,0,,3,,,75,127
78465,note_on,1,0,0,,11,,,70,127
78579,note_off,114,0,0,,11,,,70,127
78580,note_on,1,0,0,,7,,,67,127
78694,note_off,114,0,0,,3,,,39,127
78695,note_on,1,0,0,,3,,,63,127
78809,note_off,114,0,0,,7,,,67,127
78810,note_on,1,0,0,,0,,,72,127
78810,note_on,0,0,0,,10,,,81,127
78924,note_off,114,0,0,,3,,,63,127
78925,note_on,1,0,0,,5,,,53,127
79039,note_off,114,0,0,,5,,,53,127
79040,note_on,1,0,0,,0,,,48,127
79154,note_off,114,0,0,,0,,,48,127
79155,note_on,1,0,0,,5,,,41,127
79269,note_off,114,0,0,,5,,,41,127
79269,note_off,0,0,0,,10,,,81,127
79269,note_off,0,0,0,,0,,,72,127
79270,note_on,1,0,0,,11,,,82,127
79270,note_on,0,0,0,,2,,,74,127
79270,note_on,0,0,0,,11,,,46,127
79384,note_off,114,0,0,,2,,,74,127
79384,note_off,0,0,0,,11,,,82,127
79385,note_on,1,0,0,,5,,,77,127
79499,note_off,114,0,0,,5,,,77,127
79500,note_on,1,0,0,,2,,,74,127
79614,note_off,114,0,0,,2,,,74,127
79615,note_on,1,0,0,,11,,,70,127
79729,note_off,114,0,0,,11,,,70,127
79730,note_on,1,0,0,,8,,,80,127
79730,note_on,0,0,0,,5,,,77,127
79844,note_off,114,0,0,,11,,,46,127
79845,note_on,1,0,0,,5,,,53,127
79959,note_off,114,0,0,,5,,,53,127
79960,note_on,1,0,0,,2,,,50,127
80074,note_off,114,0,0,,2,,,50,127
80075,note_on,1,0,0,,11,,,46,127
80189,note_off,114,0,0,,11,,,46,127
80189,note_off,0,0,0,,5,,,77,127
80189,note_off,0,0,0,,8,,,80,127
80190,note_on,1,0,0,,7,,,79,127
80190,note_on,0,0,0,,3,,,39,127
80304,note_off,114,0,0,,7,,,79,127
80305,note_on,1,0,0,,3,,,75,127
80419,note_off,114,0,0,,3,,,75,127
80419,note_off,0,0,0,,3,,,39,127
80420,note_on,1,0,0,,0,,,84,127
80420,note_on,0,0,0,,8,,,68,127
80534,note_off,114,0,0,,0,,,84,127
80535,note_on,1,0,0,,5,,,77,127
80535,note_on,0,0,0,,8,,,80,127
80649,note_off,114,0,0,,8,,,80,127
80649,note_off,0,0,0,,8,,,68,127
80650,note_on,1,0,0,,11,,,82,127
80650,note_on,0,0,0,,7,,,67,127
80708,note_off,58,0,0,,5,,,77,127
80764,note_off,56,0,0,,11,,,82,127
80765,note_on,1,0,0,,7,,,79,127
80765,note_on,0,0,0,,3,,,75,127
80879,note_off,114,0,0,,7,,,79,127
80879,note_off,0,0,0,,7,,,67,127
80880,note_on,1,0,0,,8,,,80,127
80880,note_on,0,0,0,,5,,,65,127
80938,note_off,58,0,0,,3,,,75,127
80994,note_off,56,0,0,,8,,,80,127
80995,note_on,1,0,0,,2,,,74,127
80995,note_on,0,0,0,,5,,,77,127
81109,note_off,114,0,0,,5,,,77,127
81109,note_off,0,0,0,,5,,,65,127
81110,note_on,1,0,0,,7,,,79,127
81110,note_on,0,0,0,,3,,,63,127
81168,note_off,58,0,0,,2,,,74,127
81224,note_off,56,0,0,,7,,,79,127
81225,note_on,1,0,0,,3,,,75,127
81339,note_off,114,0,0,,3,,,75,127
81339,note_off,0,0,0,,3,,,63,127
81340,note_on,1,0,0,,0,,,72,127
81340,note_on,0,0,0,,8,,,56,127
81455,note_on,115,0,0,,8,,,80,127
81513,note_off,58,0,0,,0,,,72,127
81569,note_off,56,0,0,,8,,,80,127
81569,note_off,0,0,0,,8,,,56,127
81570,note_on,1,0,0,,11,,,70,127
81570,note_on,0,0,0,,7,,,79,127
81570,note_on,0,0,0,,11,,,58,127
81684,note_off,114,0,0,,7,,,79,127
81685,note_on,1,0,0,,3,,,75,127
81743,note_off,58,0,0,,11,,,70,127
81799,note_off,56,0,0,,3,,,75,127
81800,note_on,1,0,0,,8,,,68,127
81800,note_on,0,0,0,,5,,,77,127
81800,note_on,0,0,0,,11,,,46,127
81914,note_off,114,0,0,,5,,,77,127
81915,note_on,1,0,0,,2,,,74,127
81973,note_off,58,0,0,,8,,,68,127
82026,note_off,53,0,0,,11,,,58,127
82030,note_off,4,0,0,,2,,,74,127
82030,note_off,0,0,0,,11,,,46,127
82031,note_on,1,0,0,,7,,,67,127
82031,note_on,0,0,0,,3,,,75,127
82031,note_on,0,0,0,,3,,,51,127
82145,note_off,114,0,0,,3,,,75,127
82145,note_off,0,0,0,,7,,,67,127
82146,note_on,1,0,0,,11,,,70,127
82146,note_on,0,0,0,,7,,,67,127
82260,note_off,114,0,0,,11,,,70,127
82260,note_off,0,0,0,,3,,,51,127
82261,note_on,1,0,0,,0,,,72,127
82261,note_on,0,0,0,,8,,,56,127
82319,note_off,58,0,0,,7,,,67,127
82375,note_off,56,0,0,,0,,,72,127
82376,note_on,1,0,0,,5,,,65,127
82376,note_on,0,0,0,,8,,,68,127
82490,note_off,114,0,0,,8,,,68,127
82490,note_off,0,0,0,,8,,,56,127
82491,note_on,1,0,0,,11,,,70,127
82491,note_on,0,0,0,,7,,,55,127
82549,note_off,58,0,0,,5,,,65,127
82605,note_off,56,0,0,,11,,,70,127
82606,note_on,1,0,0,,3,,,63,127
82606,note_on,0,0,0,,7,,,67,127
82720,note_off,114,0,0,,7,,,67,127
82720,note_off,0,0,0,,7,,,55,127
82721,note_on,1,0,0,,8,,,68,127
82721,note_on,0,0,0,,5,,,53,127
82779,note_off,58,0,0,,3,,,63,127
82835,note_off,56,0,0,,8,,,68,127
82836,note_on,1,0,0,,2,,,62,127
82836,note_on,0,0,0,,5,,,65,127
82950,note_off,114,0,0,,5,,,65,127
82950,note_off,0,0,0,,5,,,53,127
82951,note_on,1,0,0,,7,,,67,127
82951,note_on,0,0,0,,3,,,51,127
83009,note_off,58,0,0,,2,,,62,127
83065,note_off,56,0,0,,7,,,67,127
83066,note_on,1,0,0,,3,,,63,127
83180,note_off,114,0,0,,3,,,63,127
83180,note_off,0,0,0,,3,,,51,127
83181,note_on,1,0,0,,0,,,60,127
83181,note_on,0,0,0,,8,,,56,127
83181,note_on,0,0,0,,8,,,44,127
83296,note_on,115,0,0,,8,,,68,127
83354,note_off,58,0,0,,0,,,60,127
83410,note_off,56,0,0,,8,,,68,127
83410,note_off,0,0,0,,8,,,44,127
83410,note_off,0,0,0,,8,,,56,127
83411,note_on,1,0,0,,7,,,67,127
83411,note_on,0,0,0,,11,,,58,127
83411,note_on,0,0,0,,11,,,46,127
83525,note_off,114,0,0,,7,,,67,127
83526,note_on,1,0,0,,3,,,63,127
83640,note_off,114,0,0,,3,,,63,127
83640,note_off,0,0,0,,11,,,46,127
83640,note_off,0,0,0,,11,,,58,127
83641,note_on,1,0,0,,5,,,65,127
83641,note_on,0,0,0,,11,,,46,127
83641,note_on,0,0,0,,8,,,56,127
83755,note_off,114,0,0,,5,,,65,127
83756,note_on,1,0,0,,2,,,62,127
83870,note_off,114,0,0,,2,,,62,127
83870,note_off,0,0,0,,8,,,56,127
83870,note_off,0,0,0,,11,,,46,127
83871,note_on,1,0,0,,2,,,62,127
83871,note_on,0,0,0,,7,,,55,127
83871,note_on,0,0,0,,3,,,51,127
83871,note_on,0,0,0,,3,,,39,127
84217,note_on,346,0,0,,3,,,63,127
84219,note_off,2,0,0,,2,,,62,127
85712,note_off,1493,0,0,,3,,,63,127
85712,note_off,0,0,0,,3,,,39,127
85712,note_off,0,0,0,,3,,,51,127
85712,note_off,0,0,0,,7,,,55,127
90624,end_of_track,4912,1,0,,,,,,
