tick,type,time,meta,track,program,channel,pitch,tempo,note,velocity
0,copyright,0,1,0,,,,,,
0,program_change,0,0,0,6,0,,,,
0,pitchwheel,0,0,0,,0,0,,,
0,program_change,0,0,0,6,1,,,,
0,pitchwheel,0,0,0,,1,-590,,,
0,program_change,0,0,0,6,2,,,,
0,pitchwheel,0,0,0,,2,-272,,,
0,program_change,0,0,0,6,3,,,,
0,pitchwheel,0,0,0,,3,-353,,,
0,program_change,0,0,0,6,4,,,,
0,pitchwheel,0,0,0,,4,-560,,,
0,program_change,0,0,0,6,5,,,,
0,pitchwheel,0,0,0,,5,-80,,,
0,program_change,0,0,0,6,6,,,,
0,pitchwheel,0,0,0,,6,-625,,,
0,program_change,0,0,0,6,7,,,,
0,pitchwheel,0,0,0,,7,-130,,,
0,program_change,0,0,0,6,8,,,,
0,pitchwheel,0,0,0,,8,-512,,,
0,program_change,0,0,0,6,10,,,,
0,pitchwheel,0,0,0,,10,-464,,,
0,program_change,0,0,0,6,11,,,,
0,pitchwheel,0,0,0,,11,-208,,,
0,program_change,0,0,0,6,12,,,,
0,pitchwheel,0,0,0,,12,-553,,,
0,set_tempo,0,1,0,,,,500000,,
53,note_on,53,0,0,,2,,,50,127
53,note_on,0,0,0,,2,,,62,127
53,note_on,0,0,0,,5,,,65,127
53,note_on,0,0,0,,2,,,74,127
371,note_off,318,0,0,,2,,,50,127
373,note_on,2,0,0,,11,,,58,127
691,note_off,318,0,0,,11,,,58,127
693,note_on,2,0,0,,10,,,57,127
1011,note_off,318,0,0,,10,,,57,127
1011,note_off,0,0,0,,2,,,74,127
1011,note_off,0,0,0,,5,,,65,127
1013,note_on,2,0,0,,7,,,55,127
1013,note_on,0,0,0,,7,,,67,127
1013,note_on,0,0,0,,4,,,76,127
1013,note_on,0,0,0,,1,,,73,127
1331,note_off,318,0,0,,1,,,73,127
1331,note_off,0,0,0,,4,,,76,127
1331,note_off,0,0,0,,7,,,67,127
1331,note_off,0,0,0,,7,,,55,127
1333,note_on,2,0,0,,5,,,53,127
1333,note_on,0,0,0,,10,,,69,127
1333,note_on,0,0,0,,5,,,77,127
1333,note_on,0,0,0,,2,,,74,127
1651,note_off,318,0,0,,5,,,53,127
1653,note_on,2,0,0,,4,,,52,127
1971,note_off,318,0,0,,4,,,52,127
1973,note_on,2,0,0,,2,,,50,127
2285,note_off,312,0,0,,2,,,62,127
2290,note_off,5,0,0,,5,,,77,127
2292,note_off,2,0,0,,2,,,50,127
2292,note_off,0,0,0,,10,,,69,127
2294,note_on,2,0,0,,1,,,49,127
2294,note_on,0,0,0,,11,,,70,127
2294,note_on,0,0,0,,7,,,79,127
2612,note_off,318,0,0,,7,,,79,127
2612,note_off,0,0,0,,11,,,70,127
2612,note_off,0,0,0,,1,,,49,127
2614,note_on,2,0,0,,2,,,50,127
2614,note_on,0,0,0,,10,,,69,127
2614,note_on,0,0,0,,5,,,77,127
2931,note_off,317,0,0,,2,,,74,127
2933,note_off,2,0,0,,5,,,77,127
2933,note_off,0,0,0,,10,,,69,127
2933,note_off,0,0,0,,2,,,50,127
2935,note_on,2,0,0,,4,,,52,127
2935,note_on,0,0,0,,7,,,67,127
2935,note_on,0,0,0,,4,,,76,127
3253,note_off,318,0,0,,4,,,52,127
3255,note_on,2,0,0,,5,,,53,127
3573,note_off,318,0,0,,5,,,53,127
3573,note_off,0,0,0,,4,,,76,127
3573,note_off,0,0,0,,7,,,67,127
3575,note_on,2,0,0,,7,,,55,127
3575,note_on,0,0,0,,5,,,65,127
3575,note_on,0,0,0,,2,,,74,127
3893,note_off,318,0,0,,2,,,74,127
3893,note_off,0,0,0,,5,,,65,127
3893,note_off,0,0,0,,7,,,55,127
3895,note_on,2,0,0,,10,,,57,127
3895,note_on,0,0,0,,4,,,64,127
3895,note_on,0,0,0,,10,,,69,127
3895,note_on,0,0,0,,1,,,73,127
4213,note_off,318,0,0,,1,,,73,127
4213,note_off,0,0,0,,10,,,57,127
4215,note_on,2,0,0,,12,,,59,127
4215,note_on,0,0,0,,2,,,74,127
4533,note_off,318,0,0,,2,,,74,127
4533,note_off,0,0,0,,12,,,59,127
4535,note_on,2,0,0,,1,,,61,127
4535,note_on,0,0,0,,4,,,76,127
4853,note_off,318,0,0,,1,,,61,127
4853,note_off,0,0,0,,10,,,69,127
4855,note_on,2,0,0,,10,,,57,127
4855,note_on,0,0,0,,7,,,67,127
5170,note_off,315,0,0,,10,,,57,127
5173,note_off,3,0,0,,7,,,67,127
5173,note_off,0,0,0,,4,,,64,127
5175,note_on,2,0,0,,2,,,62,127
5175,note_on,0,0,0,,5,,,65,127
5202,note_off,27,0,0,,4,,,76,127
5495,note_on,293,0,0,,5,,,53,127
5495,note_on,0,0,0,,2,,,74,127
5813,note_off,318,0,0,,5,,,53,127
5813,note_off,0,0,0,,5,,,65,127
5815,note_on,2,0,0,,7,,,55,127
5815,note_on,0,0,0,,4,,,64,127
6132,note_off,317,0,0,,2,,,62,127
6134,note_off,2,0,0,,7,,,55,127
6134,note_off,0,0,0,,2,,,74,127
6136,note_on,2,0,0,,10,,,57,127
6136,note_on,0,0,0,,4,,,76,127
6136,note_on,0,0,0,,1,,,73,127
6453,note_off,317,0,0,,4,,,64,127
6455,note_off,2,0,0,,1,,,73,127
6455,note_off,0,0,0,,4,,,76,127
6455,note_off,0,0,0,,10,,,57,127
6457,note_on,2,0,0,,2,,,50,127
6457,note_on,0,0,0,,10,,,69,127
6457,note_on,0,0,0,,5,,,77,127
6457,note_on,0,0,0,,2,,,74,127
6777,note_on,320,0,0,,2,,,62,127
7090,note_off,313,0,0,,2,,,50,127
7095,note_off,5,0,0,,2,,,62,127
7097,note_on,2,0,0,,0,,,60,127
7415,note_off,318,0,0,,0,,,60,127
7415,note_off,0,0,0,,2,,,74,127
7415,note_off,0,0,0,,5,,,77,127
7415,note_off,0,0,0,,10,,,69,127
7417,note_on,2,0,0,,11,,,58,127
7417,note_on,0,0,0,,11,,,70,127
7417,note_on,0,0,0,,7,,,79,127
7417,note_on,0,0,0,,4,,,76,127
7735,note_off,318,0,0,,4,,,76,127
7735,note_off,0,0,0,,7,,,79,127
7735,note_off,0,0,0,,11,,,70,127
7735,note_off,0,0,0,,11,,,58,127
7737,note_on,2,0,0,,10,,,57,127
7737,note_on,0,0,0,,0,,,60,127
7737,note_on,0,0,0,,0,,,72,127
7737,note_on,0,0,0,,10,,,81,127
7737,note_on,0,0,0,,5,,,77,127
8055,note_off,318,0,0,,0,,,60,127
8055,note_off,0,0,0,,10,,,57,127
8057,note_on,2,0,0,,7,,,55,127
8057,note_on,0,0,0,,11,,,58,127
8375,note_off,318,0,0,,11,,,58,127
8375,note_off,0,0,0,,7,,,55,127
8377,note_on,2,0,0,,5,,,53,127
8377,note_on,0,0,0,,10,,,57,127
8695,note_off,318,0,0,,10,,,57,127
8695,note_off,0,0,0,,5,,,53,127
8695,note_off,0,0,0,,5,,,77,127
8695,note_off,0,0,0,,10,,,81,127
8695,note_off,0,0,0,,0,,,72,127
8697,note_on,2,0,0,,7,,,55,127
8697,note_on,0,0,0,,11,,,58,127
8697,note_on,0,0,0,,11,,,70,127
8697,note_on,0,0,0,,7,,,79,127
8697,note_on,0,0,0,,4,,,76,127
8854,note_off,157,0,0,,4,,,76,127
8857,note_on,3,0,0,,2,,,74,127
9014,note_off,157,0,0,,2,,,74,127
9016,note_off,2,0,0,,7,,,79,127
9016,note_off,0,0,0,,11,,,70,127
9016,note_off,0,0,0,,11,,,58,127
9016,note_off,0,0,0,,7,,,55,127
9018,note_on,2,0,0,,10,,,57,127
9018,note_on,0,0,0,,0,,,60,127
9018,note_on,0,0,0,,10,,,69,127
9018,note_on,0,0,0,,5,,,77,127
9018,note_on,0,0,0,,0,,,72,127
9336,note_off,318,0,0,,5,,,77,127
9336,note_off,0,0,0,,10,,,69,127
9338,note_on,2,0,0,,7,,,67,127
9338,note_on,0,0,0,,4,,,76,127
9656,note_off,318,0,0,,0,,,60,127
9656,note_off,0,0,0,,10,,,57,127
9658,note_on,2,0,0,,11,,,58,127
9658,note_on,0,0,0,,2,,,62,127
9975,note_off,317,0,0,,0,,,72,127
9977,note_off,2,0,0,,4,,,76,127
9977,note_off,0,0,0,,7,,,67,127
9979,note_on,2,0,0,,5,,,65,127
9979,note_on,0,0,0,,2,,,74,127
9979,note_on,0,0,0,,11,,,70,127
10136,note_off,157,0,0,,11,,,70,127
10139,note_on,3,0,0,,10,,,69,127
10296,note_off,157,0,0,,10,,,69,127
10298,note_off,2,0,0,,2,,,74,127
10298,note_off,0,0,0,,5,,,65,127
10298,note_off,0,0,0,,2,,,62,127
10300,note_on,2,0,0,,0,,,60,127
10300,note_on,0,0,0,,4,,,64,127
10300,note_on,0,0,0,,0,,,72,127
10300,note_on,0,0,0,,7,,,67,127
10617,note_off,317,0,0,,7,,,67,127
10619,note_off,2,0,0,,4,,,64,127
10619,note_off,0,0,0,,11,,,58,127
10621,note_on,2,0,0,,10,,,57,127
10621,note_on,0,0,0,,5,,,65,127
10938,note_off,317,0,0,,0,,,72,127
10940,note_off,2,0,0,,5,,,65,127
10940,note_off,0,0,0,,10,,,57,127
10942,note_on,2,0,0,,7,,,55,127
10942,note_on,0,0,0,,7,,,67,127
11260,note_off,318,0,0,,7,,,67,127
11260,note_off,0,0,0,,7,,,55,127
11262,note_on,2,0,0,,5,,,53,127
11262,note_on,0,0,0,,10,,,69,127
11580,note_off,318,0,0,,10,,,69,127
11580,note_off,0,0,0,,5,,,53,127
11580,note_off,0,0,0,,0,,,60,127
11582,note_on,2,0,0,,4,,,52,127
11582,note_on,0,0,0,,11,,,58,127
11582,note_on,0,0,0,,7,,,67,127
11582,note_on,0,0,0,,11,,,70,127
11582,note_on,0,0,0,,0,,,60,127
11900,note_off,318,0,0,,11,,,70,127
11902,note_on,2,0,0,,7,,,79,127
12220,note_off,318,0,0,,7,,,67,127
12220,note_off,0,0,0,,11,,,58,127
12220,note_off,0,0,0,,4,,,52,127
12222,note_on,2,0,0,,5,,,53,127
12222,note_on,0,0,0,,10,,,57,127
12222,note_on,0,0,0,,10,,,69,127
12540,note_off,318,0,0,,7,,,79,127
12542,note_on,2,0,0,,5,,,77,127
12859,note_off,317,0,0,,0,,,60,127
12861,note_off,2,0,0,,5,,,77,127
12861,note_off,0,0,0,,10,,,69,127
12861,note_off,0,0,0,,10,,,57,127
12861,note_off,0,0,0,,5,,,53,127
12863,note_on,2,0,0,,0,,,48,127
12863,note_on,0,0,0,,7,,,55,127
12863,note_on,0,0,0,,7,,,67,127
12863,note_on,0,0,0,,4,,,76,127
13181,note_off,318,0,0,,4,,,76,127
13181,note_off,0,0,0,,7,,,67,127
13181,note_off,0,0,0,,7,,,55,127
13183,note_on,2,0,0,,0,,,60,127
13183,note_on,0,0,0,,10,,,69,127
13183,note_on,0,0,0,,5,,,77,127
13501,note_off,318,0,0,,5,,,77,127
13501,note_off,0,0,0,,10,,,69,127
13501,note_off,0,0,0,,0,,,60,127
13503,note_on,2,0,0,,11,,,58,127
13503,note_on,0,0,0,,11,,,70,127
13503,note_on,0,0,0,,7,,,79,127
13820,note_off,317,0,0,,0,,,48,127
13822,note_off,2,0,0,,7,,,79,127
13822,note_off,0,0,0,,11,,,70,127
13822,note_off,0,0,0,,11,,,58,127
13824,note_on,2,0,0,,10,,,57,127
13824,note_on,0,0,0,,0,,,72,127
13824,note_on,0,0,0,,10,,,81,127
14142,note_off,318,0,0,,10,,,81,127
14142,note_off,0,0,0,,0,,,72,127
14142,note_off,0,0,0,,10,,,57,127
14144,note_on,2,0,0,,7,,,55,127
14144,note_on,0,0,0,,11,,,58,127
14144,note_on,0,0,0,,2,,,74,127
14144,note_on,0,0,0,,11,,,82,127
14462,note_off,318,0,0,,2,,,74,127
14464,note_on,2,0,0,,4,,,76,127
14782,note_off,318,0,0,,4,,,76,127
14782,note_off,0,0,0,,11,,,58,127
14782,note_off,0,0,0,,7,,,55,127
14784,note_on,2,0,0,,5,,,53,127
14784,note_on,0,0,0,,0,,,60,127
14784,note_on,0,0,0,,5,,,77,127
14784,note_on,0,0,0,,5,,,65,127
15102,note_off,318,0,0,,11,,,82,127
15104,note_on,2,0,0,,10,,,81,127
15421,note_off,317,0,0,,5,,,65,127
15421,note_off,0,0,0,,0,,,60,127
15423,note_off,2,0,0,,10,,,81,127
15423,note_off,0,0,0,,5,,,53,127
15425,note_on,2,0,0,,0,,,48,127
15425,note_on,0,0,0,,7,,,79,127
15743,note_off,318,0,0,,7,,,79,127
15743,note_off,0,0,0,,5,,,77,127
15745,note_on,2,0,0,,0,,,60,127
15745,note_on,0,0,0,,4,,,76,127
15745,note_on,0,0,0,,0,,,84,127
16057,note_off,312,0,0,,0,,,48,127
16064,note_off,7,0,0,,4,,,76,127
16064,note_off,0,0,0,,0,,,60,127
16066,note_on,2,0,0,,2,,,62,127
16066,note_on,0,0,0,,5,,,77,127
16384,note_off,318,0,0,,5,,,77,127
16384,note_off,0,0,0,,2,,,62,127
16384,note_off,0,0,0,,0,,,84,127
16386,note_on,2,0,0,,4,,,64,127
16386,note_on,0,0,0,,7,,,79,127
16386,note_on,0,0,0,,11,,,82,127
16704,note_off,318,0,0,,7,,,79,127
16704,note_off,0,0,0,,4,,,64,127
16706,note_on,2,0,0,,5,,,65,127
16706,note_on,0,0,0,,0,,,72,127
17024,note_off,318,0,0,,0,,,72,127
17024,note_off,0,0,0,,5,,,65,127
17024,note_off,0,0,0,,11,,,82,127
17026,note_on,2,0,0,,10,,,57,127
17026,note_on,0,0,0,,5,,,77,127
17026,note_on,0,0,0,,10,,,81,127
17344,note_off,318,0,0,,10,,,81,127
17344,note_off,0,0,0,,10,,,57,127
17346,note_on,2,0,0,,11,,,58,127
17346,note_on,0,0,0,,7,,,79,127
17664,note_off,318,0,0,,11,,,58,127
17664,note_off,0,0,0,,5,,,77,127
17666,note_on,2,0,0,,0,,,60,127
17666,note_on,0,0,0,,4,,,76,127
17984,note_off,318,0,0,,0,,,60,127
17984,note_off,0,0,0,,7,,,79,127
17986,note_on,2,0,0,,2,,,62,127
17986,note_on,0,0,0,,5,,,77,127
18304,note_off,318,0,0,,5,,,77,127
18304,note_off,0,0,0,,4,,,76,127
18306,note_on,2,0,0,,2,,,50,127
18306,note_on,0,0,0,,5,,,65,127
18306,note_on,0,0,0,,2,,,74,127
18306,note_on,0,0,0,,11,,,70,127
18619,note_off,313,0,0,,2,,,62,127
18624,note_off,5,0,0,,2,,,74,127
18624,note_off,0,0,0,,5,,,65,127
18624,note_off,0,0,0,,2,,,50,127
18626,note_on,2,0,0,,4,,,52,127
18626,note_on,0,0,0,,7,,,67,127
18626,note_on,0,0,0,,0,,,72,127
18944,note_off,318,0,0,,7,,,67,127
18944,note_off,0,0,0,,4,,,52,127
18944,note_off,0,0,0,,11,,,70,127
18946,note_on,2,0,0,,5,,,53,127
18946,note_on,0,0,0,,5,,,65,127
18946,note_on,0,0,0,,10,,,69,127
19264,note_off,318,0,0,,5,,,53,127
19264,note_off,0,0,0,,0,,,72,127
19266,note_on,2,0,0,,7,,,55,127
19266,note_on,0,0,0,,11,,,70,127
19584,note_off,318,0,0,,10,,,69,127
19584,note_off,0,0,0,,5,,,65,127
19586,note_on,2,0,0,,7,,,43,127
19586,note_on,0,0,0,,4,,,64,127
19586,note_on,0,0,0,,7,,,67,127
19743,note_off,157,0,0,,4,,,64,127
19746,note_on,3,0,0,,2,,,62,127
19899,note_off,153,0,0,,7,,,55,127
19902,note_off,3,0,0,,2,,,62,127
19904,note_off,2,0,0,,7,,,43,127
19904,note_off,0,0,0,,11,,,70,127
19906,note_on,2,0,0,,10,,,45,127
19906,note_on,0,0,0,,0,,,60,127
19906,note_on,0,0,0,,10,,,69,127
20224,note_off,318,0,0,,10,,,45,127
20224,note_off,0,0,0,,7,,,67,127
20226,note_on,2,0,0,,11,,,46,127
20226,note_on,0,0,0,,5,,,65,127
20543,note_off,317,0,0,,0,,,60,127
20545,note_off,2,0,0,,11,,,46,127
20545,note_off,0,0,0,,10,,,69,127
20547,note_on,2,0,0,,0,,,48,127
20547,note_on,0,0,0,,0,,,60,127
20547,note_on,0,0,0,,7,,,67,127
20865,note_off,318,0,0,,7,,,67,127
20865,note_off,0,0,0,,0,,,60,127
20865,note_off,0,0,0,,5,,,65,127
20867,note_on,2,0,0,,0,,,36,127
20867,note_on,0,0,0,,4,,,64,127
20867,note_on,0,0,0,,0,,,72,127
21180,note_off,313,0,0,,0,,,48,127
21183,note_off,3,0,0,,4,,,64,127
21185,note_off,2,0,0,,0,,,36,127
21187,note_on,2,0,0,,2,,,38,127
21187,note_on,0,0,0,,5,,,65,127
21505,note_off,318,0,0,,5,,,65,127
21505,note_off,0,0,0,,2,,,38,127
21505,note_off,0,0,0,,0,,,72,127
21507,note_on,2,0,0,,4,,,40,127
21507,note_on,0,0,0,,7,,,67,127
21507,note_on,0,0,0,,11,,,70,127
21825,note_off,318,0,0,,4,,,40,127
21827,note_on,2,0,0,,5,,,41,127
21827,note_on,0,0,0,,0,,,60,127
21985,note_off,158,0,0,,11,,,70,127
22145,note_off,160,0,0,,0,,,60,127
22145,note_off,0,0,0,,7,,,67,127
22147,note_on,2,0,0,,5,,,53,127
22147,note_on,0,0,0,,5,,,65,127
22147,note_on,0,0,0,,10,,,69,127
22307,note_off,160,0,0,,5,,,41,127
22465,note_off,158,0,0,,10,,,69,127
22467,note_on,2,0,0,,0,,,48,127
22467,note_on,0,0,0,,7,,,67,127
22784,note_off,317,0,0,,5,,,53,127
22786,note_off,2,0,0,,5,,,65,127
22788,note_on,2,0,0,,0,,,60,127
22788,note_on,0,0,0,,4,,,64,127
22948,note_off,160,0,0,,0,,,48,127
23106,note_off,158,0,0,,7,,,67,127
23108,note_on,2,0,0,,2,,,50,127
23108,note_on,0,0,0,,5,,,65,127
23426,note_off,318,0,0,,4,,,64,127
23426,note_off,0,0,0,,0,,,60,127
23428,note_on,2,0,0,,11,,,58,127
23428,note_on,0,0,0,,2,,,62,127
23641,note_off,213,0,0,,2,,,50,127
23746,note_off,105,0,0,,5,,,65,127
23748,note_on,2,0,0,,4,,,52,127
23748,note_on,0,0,0,,7,,,67,127
24066,note_off,318,0,0,,2,,,62,127
24066,note_off,0,0,0,,11,,,58,127
24068,note_on,2,0,0,,10,,,57,127
24068,note_on,0,0,0,,0,,,60,127
24226,note_off,158,0,0,,10,,,57,127
24228,note_on,2,0,0,,7,,,55,127
24315,note_off,87,0,0,,4,,,52,127
24387,note_off,72,0,0,,7,,,55,127
24389,note_on,2,0,0,,5,,,53,127
24389,note_on,0,0,0,,10,,,57,127
24706,note_off,317,0,0,,0,,,60,127
24708,note_off,2,0,0,,7,,,67,127
24710,note_on,2,0,0,,5,,,65,127
25028,note_off,318,0,0,,10,,,57,127
25028,note_off,0,0,0,,5,,,53,127
25030,note_on,2,0,0,,7,,,55,127
25030,note_on,0,0,0,,11,,,58,127
25348,note_off,318,0,0,,5,,,65,127
25350,note_on,2,0,0,,4,,,64,127
25508,note_off,158,0,0,,4,,,64,127
25510,note_on,2,0,0,,2,,,62,127
25668,note_off,158,0,0,,2,,,62,127
25670,note_on,2,0,0,,4,,,64,127
25988,note_off,318,0,0,,4,,,64,127
25988,note_off,0,0,0,,11,,,58,127
25988,note_off,0,0,0,,7,,,55,127
25990,note_on,2,0,0,,10,,,57,127
25990,note_on,0,0,0,,0,,,60,127
25990,note_on,0,0,0,,5,,,65,127
26308,note_off,318,0,0,,5,,,65,127
26308,note_off,0,0,0,,0,,,60,127
26308,note_off,0,0,0,,10,,,57,127
26310,note_on,2,0,0,,7,,,55,127
26310,note_on,0,0,0,,11,,,58,127
26310,note_on,0,0,0,,4,,,64,127
26310,note_on,0,0,0,,7,,,67,127
26628,note_off,318,0,0,,7,,,67,127
26628,note_off,0,0,0,,4,,,64,127
26628,note_off,0,0,0,,11,,,58,127
26628,note_off,0,0,0,,7,,,55,127
26630,note_on,2,0,0,,5,,,53,127
26630,note_on,0,0,0,,10,,,57,127
26630,note_on,0,0,0,,5,,,65,127
26630,note_on,0,0,0,,10,,,69,127
26948,note_off,318,0,0,,10,,,69,127
26948,note_off,0,0,0,,5,,,65,127
26948,note_off,0,0,0,,10,,,57,127
26948,note_off,0,0,0,,5,,,53,127
26950,note_on,2,0,0,,4,,,52,127
26950,note_on,0,0,0,,11,,,58,127
26950,note_on,0,0,0,,7,,,67,127
26950,note_on,0,0,0,,11,,,70,127
26950,note_on,0,0,0,,0,,,60,127
27268,note_off,318,0,0,,11,,,70,127
27270,note_on,2,0,0,,7,,,79,127
27588,note_off,318,0,0,,7,,,67,127
27588,note_off,0,0,0,,11,,,58,127
27588,note_off,0,0,0,,4,,,52,127
27590,note_on,2,0,0,,5,,,53,127
27590,note_on,0,0,0,,10,,,57,127
27590,note_on,0,0,0,,10,,,69,127
27908,note_off,318,0,0,,7,,,79,127
27910,note_on,2,0,0,,5,,,77,127
28227,note_off,317,0,0,,10,,,57,127
28229,note_off,2,0,0,,10,,,69,127
28229,note_off,0,0,0,,5,,,53,127
28231,note_on,2,0,0,,0,,,48,127
28231,note_on,0,0,0,,7,,,67,127
28549,note_off,318,0,0,,5,,,77,127
28551,note_on,2,0,0,,11,,,58,127
28551,note_on,0,0,0,,4,,,76,127
28709,note_off,158,0,0,,4,,,76,127
28711,note_on,2,0,0,,2,,,74,127
28868,note_off,157,0,0,,0,,,60,127
28870,note_off,2,0,0,,2,,,74,127
28870,note_off,0,0,0,,11,,,58,127
28872,note_on,2,0,0,,10,,,57,127
28872,note_on,0,0,0,,4,,,76,127
29190,note_off,318,0,0,,4,,,76,127
29190,note_off,0,0,0,,10,,,57,127
29190,note_off,0,0,0,,7,,,67,127
29190,note_off,0,0,0,,0,,,48,127
29192,note_on,2,0,0,,7,,,55,127
29192,note_on,0,0,0,,10,,,69,127
29192,note_on,0,0,0,,5,,,77,127
29509,note_off,317,0,0,,10,,,69,127
29511,note_off,2,0,0,,5,,,77,127
29511,note_off,0,0,0,,7,,,55,127
29513,note_on,2,0,0,,7,,,55,127
29513,note_on,0,0,0,,11,,,58,127
29513,note_on,0,0,0,,11,,,70,127
29513,note_on,0,0,0,,0,,,60,127
29833,note_on,320,0,0,,4,,,64,127
30151,note_off,318,0,0,,4,,,64,127
30151,note_off,0,0,0,,11,,,58,127
30151,note_off,0,0,0,,7,,,55,127
30153,note_on,2,0,0,,5,,,53,127
30153,note_on,0,0,0,,5,,,65,127
30471,note_off,318,0,0,,11,,,70,127
30473,note_on,2,0,0,,10,,,69,127
30783,note_off,310,0,0,,0,,,60,127
30788,note_off,5,0,0,,5,,,53,127
30791,note_off,3,0,0,,10,,,69,127
30793,note_on,2,0,0,,0,,,60,127
30793,note_on,0,0,0,,7,,,67,127
31111,note_off,318,0,0,,7,,,67,127
31111,note_off,0,0,0,,5,,,65,127
31113,note_on,2,0,0,,0,,,48,127
31113,note_on,0,0,0,,4,,,64,127
31113,note_on,0,0,0,,0,,,72,127
31431,note_off,318,0,0,,4,,,64,127
31431,note_off,0,0,0,,0,,,48,127
31433,note_on,2,0,0,,2,,,50,127
31433,note_on,0,0,0,,5,,,65,127
31751,note_off,318,0,0,,5,,,65,127
31751,note_off,0,0,0,,2,,,50,127
31751,note_off,0,0,0,,0,,,72,127
31753,note_on,2,0,0,,4,,,52,127
31753,note_on,0,0,0,,7,,,67,127
31753,note_on,0,0,0,,11,,,70,127
32070,note_off,317,0,0,,0,,,60,127
32072,note_off,2,0,0,,7,,,67,127
32072,note_off,0,0,0,,4,,,52,127
32074,note_on,2,0,0,,5,,,53,127
32074,note_on,0,0,0,,0,,,60,127
32392,note_off,318,0,0,,11,,,70,127
32394,note_on,2,0,0,,8,,,68,127
32552,note_off,158,0,0,,8,,,68,127
32554,note_on,2,0,0,,7,,,67,127
32711,note_off,157,0,0,,0,,,60,127
32713,note_off,2,0,0,,7,,,67,127
32715,note_on,2,0,0,,5,,,65,127
32715,note_on,0,0,0,,10,,,69,127
33035,note_on,320,0,0,,0,,,72,127
33353,note_off,318,0,0,,0,,,72,127
33353,note_off,0,0,0,,5,,,53,127
33355,note_on,2,0,0,,5,,,53,127
33355,note_on,0,0,0,,5,,,77,127
33672,note_off,317,0,0,,10,,,69,127
33674,note_off,2,0,0,,5,,,65,127
33676,note_on,2,0,0,,3,,,63,127
33676,note_on,0,0,0,,7,,,67,127
33994,note_off,318,0,0,,7,,,67,127
33994,note_off,0,0,0,,3,,,63,127
33996,note_on,2,0,0,,2,,,62,127
33996,note_on,0,0,0,,5,,,65,127
34314,note_off,318,0,0,,2,,,62,127
34314,note_off,0,0,0,,5,,,77,127
34316,note_on,2,0,0,,0,,,60,127
34316,note_on,0,0,0,,3,,,75,127
34634,note_off,318,0,0,,3,,,75,127
34634,note_off,0,0,0,,0,,,60,127
34634,note_off,0,0,0,,5,,,53,127
34636,note_on,2,0,0,,7,,,55,127
34636,note_on,0,0,0,,2,,,74,127
34954,note_off,318,0,0,,2,,,74,127
34954,note_off,0,0,0,,5,,,65,127
34956,note_on,2,0,0,,3,,,63,127
34956,note_on,0,0,0,,7,,,67,127
34956,note_on,0,0,0,,0,,,72,127
35274,note_off,318,0,0,,0,,,72,127
35274,note_off,0,0,0,,7,,,67,127
35274,note_off,0,0,0,,3,,,63,127
35276,note_on,2,0,0,,2,,,62,127
35276,note_on,0,0,0,,5,,,65,127
35276,note_on,0,0,0,,12,,,71,127
35594,note_off,318,0,0,,12,,,71,127
35594,note_off,0,0,0,,5,,,65,127
35594,note_off,0,0,0,,2,,,62,127
35596,note_on,2,0,0,,0,,,60,127
35596,note_on,0,0,0,,8,,,68,127
35596,note_on,0,0,0,,0,,,72,127
35913,note_off,317,0,0,,0,,,72,127
35915,note_off,2,0,0,,8,,,68,127
35915,note_off,0,0,0,,0,,,60,127
35915,note_off,0,0,0,,7,,,55,127
35917,note_on,2,0,0,,12,,,59,127
35917,note_on,0,0,0,,2,,,62,127
35917,note_on,0,0,0,,7,,,67,127
36235,note_off,318,0,0,,12,,,59,127
36237,note_on,2,0,0,,7,,,55,127
36237,note_on,0,0,0,,2,,,74,127
36555,note_off,318,0,0,,2,,,74,127
36555,note_off,0,0,0,,7,,,55,127
36555,note_off,0,0,0,,2,,,62,127
36557,note_on,2,0,0,,0,,,48,127
36557,note_on,0,0,0,,3,,,51,127
36557,note_on,0,0,0,,3,,,75,127
36875,note_off,318,0,0,,3,,,75,127
36875,note_off,0,0,0,,3,,,51,127
36875,note_off,0,0,0,,0,,,48,127
36877,note_on,2,0,0,,2,,,50,127
36877,note_on,0,0,0,,5,,,53,127
36877,note_on,0,0,0,,12,,,71,127
37192,note_off,315,0,0,,12,,,71,127
37195,note_off,3,0,0,,5,,,53,127
37195,note_off,0,0,0,,2,,,50,127
37195,note_off,0,0,0,,7,,,67,127
37197,note_on,2,0,0,,4,,,52,127
37197,note_on,0,0,0,,7,,,55,127
37197,note_on,0,0,0,,0,,,72,127
37515,note_off,318,0,0,,4,,,52,127
37517,note_on,2,0,0,,0,,,48,127
37517,note_on,0,0,0,,7,,,79,127
37835,note_off,318,0,0,,7,,,79,127
37835,note_off,0,0,0,,0,,,48,127
37835,note_off,0,0,0,,7,,,55,127
37837,note_on,2,0,0,,5,,,53,127
37837,note_on,0,0,0,,8,,,56,127
37837,note_on,0,0,0,,8,,,80,127
38155,note_off,318,0,0,,8,,,80,127
38155,note_off,0,0,0,,8,,,56,127
38155,note_off,0,0,0,,5,,,53,127
38157,note_on,2,0,0,,7,,,55,127
38157,note_on,0,0,0,,11,,,58,127
38157,note_on,0,0,0,,4,,,76,127
38475,note_off,318,0,0,,4,,,76,127
38475,note_off,0,0,0,,11,,,58,127
38475,note_off,0,0,0,,7,,,55,127
38475,note_off,0,0,0,,0,,,72,127
38477,note_on,2,0,0,,8,,,56,127
38477,note_on,0,0,0,,0,,,60,127
38477,note_on,0,0,0,,5,,,77,127
38795,note_off,318,0,0,,0,,,60,127
38797,note_on,2,0,0,,12,,,59,127
38797,note_on,0,0,0,,2,,,74,127
39114,note_off,317,0,0,,5,,,77,127
39114,note_off,0,0,0,,8,,,56,127
39116,note_off,2,0,0,,2,,,74,127
39116,note_off,0,0,0,,12,,,59,127
39118,note_on,2,0,0,,7,,,55,127
39118,note_on,0,0,0,,0,,,60,127
39118,note_on,0,0,0,,3,,,75,127
39436,note_off,318,0,0,,3,,,75,127
39436,note_off,0,0,0,,0,,,60,127
39436,note_off,0,0,0,,7,,,55,127
39438,note_on,2,0,0,,5,,,53,127
39438,note_on,0,0,0,,2,,,62,127
39438,note_on,0,0,0,,12,,,71,127
39756,note_off,318,0,0,,12,,,71,127
39756,note_off,0,0,0,,2,,,62,127
39756,note_off,0,0,0,,5,,,53,127
39758,note_on,2,0,0,,4,,,52,127
39758,note_on,0,0,0,,0,,,60,127
39758,note_on,0,0,0,,0,,,72,127
39758,note_on,0,0,0,,4,,,64,127
40076,note_off,318,0,0,,4,,,64,127
40078,note_on,2,0,0,,7,,,55,127
40078,note_on,0,0,0,,7,,,79,127
40390,note_off,312,0,0,,0,,,60,127
40395,note_off,5,0,0,,4,,,52,127
40397,note_off,2,0,0,,7,,,79,127
40397,note_off,0,0,0,,7,,,55,127
40399,note_on,2,0,0,,5,,,53,127
40399,note_on,0,0,0,,8,,,56,127
40399,note_on,0,0,0,,8,,,80,127
40717,note_off,318,0,0,,8,,,80,127
40717,note_off,0,0,0,,8,,,56,127
40717,note_off,0,0,0,,5,,,53,127
40719,note_on,2,0,0,,7,,,55,127
40719,note_on,0,0,0,,11,,,58,127
40719,note_on,0,0,0,,4,,,76,127
41037,note_off,318,0,0,,4,,,76,127
41037,note_off,0,0,0,,11,,,58,127
41037,note_off,0,0,0,,7,,,55,127
41039,note_on,2,0,0,,8,,,56,127
41039,note_on,0,0,0,,0,,,60,127
41039,note_on,0,0,0,,5,,,77,127
41357,note_off,318,0,0,,0,,,60,127
41357,note_off,0,0,0,,0,,,72,127
41359,note_on,2,0,0,,12,,,59,127
41359,note_on,0,0,0,,2,,,74,127
41676,note_off,317,0,0,,5,,,77,127
41676,note_off,0,0,0,,8,,,56,127
41678,note_off,2,0,0,,2,,,74,127
41678,note_off,0,0,0,,12,,,59,127
41680,note_on,2,0,0,,7,,,55,127
41680,note_on,0,0,0,,0,,,60,127
41680,note_on,0,0,0,,3,,,75,127
41998,note_off,318,0,0,,3,,,75,127
41998,note_off,0,0,0,,0,,,60,127
41998,note_off,0,0,0,,7,,,55,127
42000,note_on,2,0,0,,5,,,53,127
42000,note_on,0,0,0,,2,,,62,127
42000,note_on,0,0,0,,12,,,71,127
42318,note_off,318,0,0,,12,,,71,127
42318,note_off,0,0,0,,2,,,62,127
42318,note_off,0,0,0,,5,,,53,127
42320,note_on,2,0,0,,4,,,52,127
42320,note_on,0,0,0,,0,,,60,127
42320,note_on,0,0,0,,0,,,72,127
42320,note_on,0,0,0,,4,,,64,127
42635,note_off,315,0,0,,4,,,52,127
42638,note_off,3,0,0,,4,,,64,127
42638,note_off,0,0,0,,0,,,60,127
42640,note_on,2,0,0,,7,,,55,127
42640,note_on,0,0,0,,10,,,81,127
42958,note_off,318,0,0,,10,,,81,127
42958,note_off,0,0,0,,7,,,55,127
42960,note_on,2,0,0,,5,,,53,127
42960,note_on,0,0,0,,10,,,57,127
42960,note_on,0,0,0,,11,,,82,127
43277,note_off,317,0,0,,10,,,57,127
43279,note_off,2,0,0,,11,,,82,127
43279,note_off,0,0,0,,5,,,53,127
43281,note_on,2,0,0,,7,,,55,127
43281,note_on,0,0,0,,11,,,58,127
43281,note_on,0,0,0,,4,,,76,127
43598,note_off,317,0,0,,11,,,58,127
43598,note_off,0,0,0,,7,,,55,127
43600,note_off,2,0,0,,4,,,76,127
43602,note_on,2,0,0,,10,,,57,127
43602,note_on,0,0,0,,0,,,84,127
43920,note_off,318,0,0,,0,,,84,127
43920,note_off,0,0,0,,0,,,72,127
43922,note_on,2,0,0,,10,,,45,127
43922,note_on,0,0,0,,5,,,77,127
43922,note_on,0,0,0,,0,,,84,127
44080,note_off,158,0,0,,5,,,77,127
44082,note_on,2,0,0,,0,,,72,127
44239,note_off,157,0,0,,10,,,57,127
44241,note_off,2,0,0,,0,,,72,127
44241,note_off,0,0,0,,10,,,45,127
44243,note_on,2,0,0,,11,,,46,127
44243,note_on,0,0,0,,2,,,74,127
44561,note_off,318,0,0,,2,,,74,127
44561,note_off,0,0,0,,0,,,84,127
44563,note_on,2,0,0,,7,,,79,127
44563,note_on,0,0,0,,11,,,82,127
44563,note_on,0,0,0,,7,,,55,127
44721,note_off,158,0,0,,7,,,79,127
44723,note_on,2,0,0,,5,,,77,127
44881,note_off,158,0,0,,5,,,77,127
44881,note_off,0,0,0,,11,,,46,127
44883,note_on,2,0,0,,0,,,48,127
44883,note_on,0,0,0,,4,,,76,127
45130,note_off,247,0,0,,7,,,55,127
45202,note_off,72,0,0,,4,,,76,127
45202,note_off,0,0,0,,11,,,82,127
45204,note_on,2,0,0,,10,,,57,127
45204,note_on,0,0,0,,5,,,77,127
45204,note_on,0,0,0,,10,,,81,127
45522,note_off,318,0,0,,10,,,81,127
45522,note_off,0,0,0,,10,,,57,127
45524,note_on,2,0,0,,11,,,58,127
45524,note_on,0,0,0,,7,,,79,127
45842,note_off,318,0,0,,11,,,58,127
45842,note_off,0,0,0,,5,,,77,127
45844,note_on,2,0,0,,0,,,60,127
45844,note_on,0,0,0,,4,,,76,127
46162,note_off,318,0,0,,7,,,79,127
46162,note_off,0,0,0,,0,,,48,127
46164,note_on,2,0,0,,2,,,50,127
46164,note_on,0,0,0,,5,,,77,127
46324,note_off,160,0,0,,0,,,60,127
46482,note_off,158,0,0,,4,,,76,127
46484,note_on,2,0,0,,11,,,58,127
46484,note_on,0,0,0,,2,,,74,127
46802,note_off,318,0,0,,5,,,77,127
46802,note_off,0,0,0,,2,,,50,127
46804,note_on,2,0,0,,4,,,52,127
46804,note_on,0,0,0,,7,,,79,127
47067,note_off,263,0,0,,11,,,58,127
47122,note_off,55,0,0,,2,,,74,127
47124,note_on,2,0,0,,10,,,57,127
47124,note_on,0,0,0,,0,,,72,127
47282,note_off,158,0,0,,0,,,72,127
47282,note_off,0,0,0,,10,,,57,127
47284,note_on,2,0,0,,7,,,55,127
47284,note_on,0,0,0,,11,,,70,127
47442,note_off,158,0,0,,11,,,70,127
47442,note_off,0,0,0,,7,,,55,127
47442,note_off,0,0,0,,4,,,52,127
47444,note_on,2,0,0,,5,,,65,127
47444,note_on,0,0,0,,10,,,69,127
47762,note_off,318,0,0,,7,,,79,127
47764,note_on,2,0,0,,5,,,53,127
47764,note_on,0,0,0,,5,,,77,127
47922,note_off,158,0,0,,5,,,77,127
47924,note_on,2,0,0,,4,,,76,127
48082,note_off,158,0,0,,4,,,76,127
48082,note_off,0,0,0,,5,,,53,127
48084,note_on,2,0,0,,11,,,58,127
48084,note_on,0,0,0,,2,,,74,127
48402,note_off,318,0,0,,10,,,69,127
48402,note_off,0,0,0,,5,,,65,127
48404,note_on,2,0,0,,4,,,64,127
48404,note_on,0,0,0,,7,,,67,127
48562,note_off,158,0,0,,7,,,67,127
48562,note_off,0,0,0,,4,,,64,127
48564,note_on,2,0,0,,2,,,62,127
48564,note_on,0,0,0,,5,,,65,127
48722,note_off,158,0,0,,5,,,65,127
48722,note_off,0,0,0,,2,,,62,127
48722,note_off,0,0,0,,2,,,74,127
48724,note_on,2,0,0,,0,,,60,127
48724,note_on,0,0,0,,4,,,64,127
48724,note_on,0,0,0,,0,,,72,127
48724,note_on,0,0,0,,7,,,67,127
48967,note_off,243,0,0,,11,,,58,127
49040,note_off,73,0,0,,7,,,67,127
49042,note_off,2,0,0,,4,,,64,127
49044,note_on,2,0,0,,10,,,57,127
49044,note_on,0,0,0,,5,,,65,127
49362,note_off,318,0,0,,5,,,65,127
49362,note_off,0,0,0,,10,,,57,127
49364,note_on,2,0,0,,7,,,55,127
49364,note_on,0,0,0,,7,,,67,127
49682,note_off,318,0,0,,7,,,67,127
49682,note_off,0,0,0,,7,,,55,127
49684,note_on,2,0,0,,5,,,53,127
49684,note_on,0,0,0,,10,,,69,127
50001,note_off,317,0,0,,0,,,72,127
50003,note_off,2,0,0,,10,,,69,127
50003,note_off,0,0,0,,5,,,53,127
50003,note_off,0,0,0,,0,,,60,127
50005,note_on,2,0,0,,4,,,52,127
50005,note_on,0,0,0,,11,,,58,127
50005,note_on,0,0,0,,7,,,67,127
50005,note_on,0,0,0,,11,,,70,127
50005,note_on,0,0,0,,0,,,60,127
50323,note_off,318,0,0,,11,,,70,127
50325,note_on,2,0,0,,7,,,79,127
50643,note_off,318,0,0,,7,,,67,127
50643,note_off,0,0,0,,11,,,58,127
50643,note_off,0,0,0,,4,,,52,127
50645,note_on,2,0,0,,5,,,53,127
50645,note_on,0,0,0,,10,,,57,127
50645,note_on,0,0,0,,10,,,69,127
50963,note_off,318,0,0,,7,,,79,127
50965,note_on,2,0,0,,5,,,77,127
51282,note_off,317,0,0,,0,,,60,127
51284,note_off,2,0,0,,5,,,77,127
51284,note_off,0,0,0,,10,,,69,127
51284,note_off,0,0,0,,10,,,57,127
51284,note_off,0,0,0,,5,,,53,127
51286,note_on,2,0,0,,0,,,48,127
51286,note_on,0,0,0,,0,,,60,127
51286,note_on,0,0,0,,7,,,67,127
51286,note_on,0,0,0,,4,,,76,127
51604,note_off,318,0,0,,4,,,76,127
51604,note_off,0,0,0,,7,,,67,127
51604,note_off,0,0,0,,0,,,48,127
51606,note_on,2,0,0,,2,,,50,127
51606,note_on,0,0,0,,5,,,65,127
51606,note_on,0,0,0,,2,,,74,127
51924,note_off,318,0,0,,5,,,65,127
51924,note_off,0,0,0,,2,,,50,127
51924,note_off,0,0,0,,0,,,60,127
51926,note_on,2,0,0,,4,,,52,127
51926,note_on,0,0,0,,11,,,58,127
51926,note_on,0,0,0,,7,,,67,127
52244,note_off,318,0,0,,2,,,74,127
52246,note_on,2,0,0,,0,,,72,127
52404,note_off,158,0,0,,0,,,72,127
52406,note_on,2,0,0,,11,,,70,127
52564,note_off,158,0,0,,11,,,70,127
52564,note_off,0,0,0,,11,,,58,127
52564,note_off,0,0,0,,4,,,52,127
52566,note_on,2,0,0,,5,,,53,127
52566,note_on,0,0,0,,0,,,60,127
52566,note_on,0,0,0,,10,,,69,127
52883,note_off,317,0,0,,7,,,67,127
52886,note_on,3,0,0,,5,,,65,127
53204,note_off,318,0,0,,10,,,69,127
53204,note_off,0,0,0,,0,,,60,127
53204,note_off,0,0,0,,5,,,53,127
53206,note_on,2,0,0,,0,,,48,127
53206,note_on,0,0,0,,7,,,55,127
53206,note_on,0,0,0,,7,,,67,127
53206,note_on,0,0,0,,0,,,60,127
53523,note_off,317,0,0,,5,,,65,127
53526,note_on,3,0,0,,4,,,64,127
53843,note_off,317,0,0,,4,,,64,127
53843,note_off,0,0,0,,0,,,60,127
53843,note_off,0,0,0,,7,,,55,127
53845,note_off,2,0,0,,7,,,67,127
53845,note_off,0,0,0,,0,,,48,127
53847,note_on,2,0,0,,5,,,41,127
53847,note_on,0,0,0,,5,,,65,127
54165,note_off,318,0,0,,5,,,41,127
54167,note_on,2,0,0,,0,,,48,127
54167,note_on,0,0,0,,0,,,60,127
54485,note_off,318,0,0,,0,,,48,127
54487,note_on,2,0,0,,2,,,50,127
54805,note_off,318,0,0,,2,,,50,127
54805,note_off,0,0,0,,0,,,60,127
54805,note_off,0,0,0,,5,,,65,127
54807,note_on,2,0,0,,4,,,52,127
54807,note_on,0,0,0,,11,,,58,127
54807,note_on,0,0,0,,7,,,67,127
55125,note_off,318,0,0,,7,,,67,127
55125,note_off,0,0,0,,4,,,52,127
55127,note_on,2,0,0,,5,,,53,127
55127,note_on,0,0,0,,0,,,60,127
55444,note_off,317,0,0,,0,,,60,127
55446,note_off,2,0,0,,11,,,58,127
55448,note_on,2,0,0,,5,,,41,127
55448,note_on,0,0,0,,10,,,57,127
55448,note_on,0,0,0,,5,,,65,127
55761,note_off,313,0,0,,5,,,53,127
55766,note_off,5,0,0,,10,,,57,127
55766,note_off,0,0,0,,5,,,41,127
55768,note_on,2,0,0,,0,,,48,127
55768,note_on,0,0,0,,7,,,55,127
56085,note_off,317,0,0,,5,,,65,127
56087,note_off,2,0,0,,7,,,55,127
56089,note_on,2,0,0,,0,,,36,127
56089,note_on,0,0,0,,7,,,55,127
56089,note_on,0,0,0,,0,,,60,127
56089,note_on,0,0,0,,4,,,64,127
56089,note_on,0,0,0,,11,,,58,127
56401,note_off,312,0,0,,0,,,48,127
56404,note_off,3,0,0,,4,,,64,127
56407,note_off,3,0,0,,0,,,36,127
56409,note_on,2,0,0,,5,,,41,127
56489,note_off,80,0,0,,11,,,58,127
56489,note_off,0,0,0,,0,,,60,127
56726,note_off,237,0,0,,7,,,55,127
56729,note_on,3,0,0,,10,,,57,127
56729,note_on,0,0,0,,0,,,60,127
56729,note_on,0,0,0,,5,,,65,127
57046,note_off,317,0,0,,5,,,41,127
57049,note_on,3,0,0,,5,,,41,127
57366,note_off,317,0,0,,10,,,57,127
57368,note_off,2,0,0,,5,,,65,127
57368,note_off,0,0,0,,0,,,60,127
57370,note_on,2,0,0,,11,,,58,127
57370,note_on,0,0,0,,4,,,64,127
57370,note_on,0,0,0,,7,,,67,127
57687,note_off,317,0,0,,4,,,64,127
57689,note_off,2,0,0,,7,,,67,127
57689,note_off,0,0,0,,11,,,58,127
57691,note_on,2,0,0,,0,,,60,127
57691,note_on,0,0,0,,10,,,69,127
58011,note_on,320,0,0,,5,,,65,127
58321,note_off,310,0,0,,5,,,41,127
58331,note_on,10,0,0,,5,,,41,127
58649,note_off,318,0,0,,5,,,65,127
58649,note_off,0,0,0,,10,,,69,127
58651,note_on,2,0,0,,4,,,64,127
58651,note_on,0,0,0,,11,,,70,127
58651,note_on,0,0,0,,7,,,67,127
58968,note_off,317,0,0,,5,,,41,127
58970,note_off,2,0,0,,11,,,70,127
58970,note_off,0,0,0,,4,,,64,127
58972,note_on,2,0,0,,5,,,41,127
58972,note_on,0,0,0,,10,,,69,127
59289,note_off,317,0,0,,7,,,67,127
59292,note_on,3,0,0,,5,,,65,127
59609,note_off,317,0,0,,5,,,41,127
59612,note_on,3,0,0,,5,,,41,127
59929,note_off,317,0,0,,5,,,65,127
59931,note_off,2,0,0,,10,,,69,127
59933,note_on,2,0,0,,4,,,64,127
59933,note_on,0,0,0,,11,,,70,127
59933,note_on,0,0,0,,7,,,67,127
60250,note_off,317,0,0,,4,,,64,127
60250,note_off,0,0,0,,0,,,60,127
60252,note_off,2,0,0,,7,,,67,127
60252,note_off,0,0,0,,11,,,70,127
60254,note_on,2,0,0,,5,,,65,127
60254,note_on,0,0,0,,10,,,69,127
60554,note_off,300,0,0,,10,,,69,127
60571,note_off,17,0,0,,5,,,65,127
60571,note_off,0,0,0,,5,,,41,127
60574,note_on,3,0,0,,5,,,53,127
60574,note_on,0,0,0,,10,,,57,127
60574,note_on,0,0,0,,0,,,60,127
60892,note_off,318,0,0,,0,,,60,127
60892,note_off,0,0,0,,10,,,57,127
60894,note_on,2,0,0,,12,,,59,127
60894,note_on,0,0,0,,2,,,62,127
61212,note_off,318,0,0,,2,,,62,127
61212,note_off,0,0,0,,12,,,59,127
61212,note_off,0,0,0,,5,,,53,127
61214,note_on,2,0,0,,4,,,52,127
61214,note_on,0,0,0,,0,,,60,127
61214,note_on,0,0,0,,4,,,64,127
61532,note_off,318,0,0,,4,,,64,127
61532,note_off,0,0,0,,0,,,60,127
61532,note_off,0,0,0,,4,,,52,127
61534,note_on,2,0,0,,2,,,50,127
61534,note_on,0,0,0,,2,,,62,127
61534,note_on,0,0,0,,5,,,65,127
61852,note_off,318,0,0,,5,,,65,127
61852,note_off,0,0,0,,2,,,62,127
61852,note_off,0,0,0,,2,,,50,127
61854,note_on,2,0,0,,7,,,55,127
61854,note_on,0,0,0,,12,,,59,127
61854,note_on,0,0,0,,2,,,62,127
62172,note_off,318,0,0,,2,,,62,127
62172,note_off,0,0,0,,12,,,59,127
62174,note_on,2,0,0,,1,,,61,127
62174,note_on,0,0,0,,4,,,64,127
62492,note_off,318,0,0,,4,,,64,127
62492,note_off,0,0,0,,1,,,61,127
62492,note_off,0,0,0,,7,,,55,127
62494,note_on,2,0,0,,5,,,53,127
62494,note_on,0,0,0,,2,,,62,127
62494,note_on,0,0,0,,5,,,65,127
62812,note_off,318,0,0,,5,,,65,127
62812,note_off,0,0,0,,2,,,62,127
62812,note_off,0,0,0,,5,,,53,127
62814,note_on,2,0,0,,4,,,52,127
62814,note_on,0,0,0,,7,,,55,127
62814,note_on,0,0,0,,4,,,64,127
62814,note_on,0,0,0,,7,,,67,127
63132,note_off,318,0,0,,7,,,67,127
63132,note_off,0,0,0,,4,,,64,127
63134,note_on,2,0,0,,2,,,62,127
63134,note_on,0,0,0,,5,,,65,127
63452,note_off,318,0,0,,7,,,55,127
63452,note_off,0,0,0,,4,,,52,127
63454,note_on,2,0,0,,10,,,45,127
63454,note_on,0,0,0,,10,,,57,127
63772,note_off,318,0,0,,5,,,65,127
63772,note_off,0,0,0,,2,,,62,127
63774,note_on,2,0,0,,1,,,61,127
63774,note_on,0,0,0,,4,,,64,127
64092,note_off,318,0,0,,4,,,64,127
64092,note_off,0,0,0,,1,,,61,127
64092,note_off,0,0,0,,10,,,45,127
64094,note_on,2,0,0,,2,,,50,127
64094,note_on,0,0,0,,6,,,66,127
64094,note_on,0,0,0,,2,,,74,127
64412,note_off,318,0,0,,6,,,66,127
64412,note_off,0,0,0,,2,,,50,127
64412,note_off,0,0,0,,10,,,57,127
64414,note_on,2,0,0,,11,,,58,127
64414,note_on,0,0,0,,2,,,62,127
64414,note_on,0,0,0,,7,,,67,127
64732,note_off,318,0,0,,7,,,67,127
64732,note_off,0,0,0,,2,,,62,127
64732,note_off,0,0,0,,11,,,58,127
64732,note_off,0,0,0,,2,,,74,127
64734,note_on,2,0,0,,10,,,57,127
64734,note_on,0,0,0,,0,,,60,127
64734,note_on,0,0,0,,6,,,66,127
64734,note_on,0,0,0,,10,,,69,127
65052,note_off,318,0,0,,10,,,69,127
65052,note_off,0,0,0,,6,,,66,127
65052,note_off,0,0,0,,0,,,60,127
65052,note_off,0,0,0,,10,,,57,127
65054,note_on,2,0,0,,7,,,55,127
65054,note_on,0,0,0,,2,,,62,127
65054,note_on,0,0,0,,7,,,67,127
65054,note_on,0,0,0,,11,,,70,127
65212,note_off,158,0,0,,11,,,70,127
65214,note_on,2,0,0,,0,,,72,127
65372,note_off,158,0,0,,0,,,72,127
65372,note_off,0,0,0,,7,,,67,127
65372,note_off,0,0,0,,2,,,62,127
65372,note_off,0,0,0,,7,,,55,127
65374,note_on,2,0,0,,6,,,54,127
65374,note_on,0,0,0,,2,,,62,127
65374,note_on,0,0,0,,10,,,69,127
65374,note_on,0,0,0,,2,,,74,127
65692,note_off,318,0,0,,10,,,69,127
65692,note_off,0,0,0,,6,,,54,127
65694,note_on,2,0,0,,7,,,55,127
65694,note_on,0,0,0,,11,,,70,127
66012,note_off,318,0,0,,11,,,70,127
66012,note_off,0,0,0,,7,,,55,127
66014,note_on,2,0,0,,5,,,53,127
66014,note_on,0,0,0,,10,,,69,127
66332,note_off,318,0,0,,10,,,69,127
66332,note_off,0,0,0,,5,,,53,127
66332,note_off,0,0,0,,2,,,74,127
66332,note_off,0,0,0,,2,,,62,127
66334,note_on,2,0,0,,3,,,51,127
66334,note_on,0,0,0,,11,,,58,127
66334,note_on,0,0,0,,7,,,67,127
66334,note_on,0,0,0,,7,,,79,127
66492,note_off,158,0,0,,11,,,58,127
66494,note_on,2,0,0,,0,,,60,127
66652,note_off,158,0,0,,0,,,60,127
66652,note_off,0,0,0,,7,,,79,127
66652,note_off,0,0,0,,7,,,67,127
66652,note_off,0,0,0,,3,,,51,127
66654,note_on,2,0,0,,2,,,50,127
66654,note_on,0,0,0,,2,,,62,127
66654,note_on,0,0,0,,10,,,69,127
66654,note_on,0,0,0,,6,,,78,127
66972,note_off,318,0,0,,6,,,78,127
66972,note_off,0,0,0,,10,,,69,127
66972,note_off,0,0,0,,2,,,62,127
66974,note_on,2,0,0,,0,,,60,127
66974,note_on,0,0,0,,7,,,67,127
66974,note_on,0,0,0,,3,,,75,127
67132,note_off,158,0,0,,7,,,67,127
67134,note_on,2,0,0,,6,,,66,127
67292,note_off,158,0,0,,6,,,66,127
67292,note_off,0,0,0,,3,,,75,127
67292,note_off,0,0,0,,0,,,60,127
67294,note_on,2,0,0,,11,,,58,127
67294,note_on,0,0,0,,7,,,67,127
67294,note_on,0,0,0,,2,,,74,127
67612,note_off,318,0,0,,2,,,74,127
67612,note_off,0,0,0,,7,,,67,127
67612,note_off,0,0,0,,11,,,58,127
67614,note_on,2,0,0,,10,,,57,127
67614,note_on,0,0,0,,10,,,69,127
67614,note_on,0,0,0,,0,,,72,127
67932,note_off,318,0,0,,10,,,69,127
67932,note_off,0,0,0,,10,,,57,127
67932,note_off,0,0,0,,2,,,50,127
67934,note_on,2,0,0,,7,,,55,127
67934,note_on,0,0,0,,2,,,62,127
68252,note_off,318,0,0,,2,,,62,127
68252,note_off,0,0,0,,7,,,55,127
68252,note_off,0,0,0,,0,,,72,127
68254,note_on,2,0,0,,11,,,58,127
68254,note_on,0,0,0,,7,,,67,127
68254,note_on,0,0,0,,11,,,70,127
68412,note_off,158,0,0,,11,,,70,127
68414,note_on,2,0,0,,0,,,72,127
68572,note_off,158,0,0,,0,,,72,127
68574,note_on,2,0,0,,2,,,74,127
68892,note_off,318,0,0,,7,,,67,127
68892,note_off,0,0,0,,11,,,58,127
68894,note_on,2,0,0,,12,,,59,127
68894,note_on,0,0,0,,5,,,65,127
69212,note_off,318,0,0,,5,,,65,127
69212,note_off,0,0,0,,12,,,59,127
69212,note_off,0,0,0,,2,,,74,127
69214,note_on,2,0,0,,0,,,48,127
69214,note_on,0,0,0,,4,,,64,127
69214,note_on,0,0,0,,0,,,72,127
69531,note_off,317,0,0,,0,,,48,127
69533,note_off,2,0,0,,4,,,64,127
69535,note_on,2,0,0,,10,,,57,127
69535,note_on,0,0,0,,0,,,60,127
69535,note_on,0,0,0,,5,,,65,127
69853,note_off,318,0,0,,5,,,65,127
69853,note_off,0,0,0,,0,,,60,127
69853,note_off,0,0,0,,10,,,57,127
69853,note_off,0,0,0,,0,,,72,127
69855,note_on,2,0,0,,7,,,55,127
69855,note_on,0,0,0,,11,,,58,127
69855,note_on,0,0,0,,4,,,64,127
69855,note_on,0,0,0,,7,,,67,127
70173,note_off,318,0,0,,7,,,67,127
70173,note_off,0,0,0,,4,,,64,127
70173,note_off,0,0,0,,11,,,58,127
70173,note_off,0,0,0,,7,,,55,127
70175,note_on,2,0,0,,5,,,53,127
70175,note_on,0,0,0,,0,,,60,127
70175,note_on,0,0,0,,5,,,65,127
70175,note_on,0,0,0,,10,,,69,127
70333,note_off,158,0,0,,10,,,69,127
70335,note_on,2,0,0,,11,,,70,127
70493,note_off,158,0,0,,11,,,70,127
70493,note_off,0,0,0,,5,,,65,127
70493,note_off,0,0,0,,0,,,60,127
70493,note_off,0,0,0,,5,,,53,127
70495,note_on,2,0,0,,4,,,52,127
70495,note_on,0,0,0,,0,,,60,127
70495,note_on,0,0,0,,7,,,67,127
70495,note_on,0,0,0,,0,,,72,127
70813,note_off,318,0,0,,7,,,67,127
70813,note_off,0,0,0,,4,,,52,127
70815,note_on,2,0,0,,5,,,53,127
70815,note_on,0,0,0,,10,,,69,127
71133,note_off,318,0,0,,10,,,69,127
71133,note_off,0,0,0,,5,,,53,127
71135,note_on,2,0,0,,4,,,52,127
71135,note_on,0,0,0,,7,,,67,127
71453,note_off,318,0,0,,7,,,67,127
71453,note_off,0,0,0,,4,,,52,127
71453,note_off,0,0,0,,0,,,72,127
71453,note_off,0,0,0,,0,,,60,127
71455,note_on,2,0,0,,2,,,50,127
71455,note_on,0,0,0,,10,,,57,127
71455,note_on,0,0,0,,5,,,65,127
71455,note_on,0,0,0,,5,,,77,127
71613,note_off,158,0,0,,10,,,57,127
71615,note_on,2,0,0,,12,,,59,127
71773,note_off,158,0,0,,12,,,59,127
71773,note_off,0,0,0,,5,,,77,127
71773,note_off,0,0,0,,5,,,65,127
71773,note_off,0,0,0,,2,,,50,127
71775,note_on,2,0,0,,0,,,48,127
71775,note_on,0,0,0,,0,,,60,127
71775,note_on,0,0,0,,7,,,67,127
71775,note_on,0,0,0,,4,,,76,127
72093,note_off,318,0,0,,4,,,76,127
72093,note_off,0,0,0,,7,,,67,127
72093,note_off,0,0,0,,0,,,60,127
72095,note_on,2,0,0,,11,,,58,127
72095,note_on,0,0,0,,5,,,65,127
72095,note_on,0,0,0,,2,,,74,127
72253,note_off,158,0,0,,5,,,65,127
72255,note_on,2,0,0,,4,,,64,127
72413,note_off,158,0,0,,4,,,64,127
72413,note_off,0,0,0,,2,,,74,127
72413,note_off,0,0,0,,11,,,58,127
72415,note_on,2,0,0,,10,,,57,127
72415,note_on,0,0,0,,5,,,65,127
72415,note_on,0,0,0,,0,,,72,127
72733,note_off,318,0,0,,0,,,72,127
72733,note_off,0,0,0,,5,,,65,127
72733,note_off,0,0,0,,10,,,57,127
72735,note_on,2,0,0,,7,,,55,127
72735,note_on,0,0,0,,7,,,67,127
72735,note_on,0,0,0,,11,,,70,127
73053,note_off,318,0,0,,7,,,67,127
73053,note_off,0,0,0,,7,,,55,127
73053,note_off,0,0,0,,0,,,48,127
73055,note_on,2,0,0,,5,,,53,127
73055,note_on,0,0,0,,0,,,60,127
73373,note_off,318,0,0,,0,,,60,127
73373,note_off,0,0,0,,11,,,70,127
73375,note_on,2,0,0,,5,,,65,127
73375,note_on,0,0,0,,10,,,69,127
73693,note_off,318,0,0,,5,,,53,127
73695,note_on,2,0,0,,0,,,60,127
74013,note_off,318,0,0,,10,,,69,127
74013,note_off,0,0,0,,5,,,65,127
74015,note_on,2,0,0,,4,,,64,127
74015,note_on,0,0,0,,7,,,67,127
74173,note_off,158,0,0,,7,,,67,127
74173,note_off,0,0,0,,4,,,64,127
74175,note_on,2,0,0,,2,,,62,127
74175,note_on,0,0,0,,5,,,65,127
74333,note_off,158,0,0,,5,,,65,127
74333,note_off,0,0,0,,2,,,62,127
74335,note_on,2,0,0,,4,,,64,127
74335,note_on,0,0,0,,7,,,67,127
74495,note_off,160,0,0,,0,,,60,127
74652,note_off,157,0,0,,7,,,67,127
74654,note_off,2,0,0,,4,,,64,127
74656,note_on,2,0,0,,11,,,58,127
74656,note_on,0,0,0,,2,,,62,127
74656,note_on,0,0,0,,0,,,72,127
74814,note_off,158,0,0,,2,,,62,127
74814,note_off,0,0,0,,11,,,58,127
74816,note_on,2,0,0,,10,,,57,127
74816,note_on,0,0,0,,0,,,60,127
74974,note_off,158,0,0,,0,,,60,127
74974,note_off,0,0,0,,10,,,57,127
74976,note_on,2,0,0,,7,,,55,127
74976,note_on,0,0,0,,2,,,62,127
75294,note_off,318,0,0,,2,,,62,127
75294,note_off,0,0,0,,0,,,72,127
75296,note_on,2,0,0,,7,,,67,127
75296,note_on,0,0,0,,11,,,70,127
75614,note_off,318,0,0,,7,,,55,127
75616,note_on,2,0,0,,2,,,50,127
75616,note_on,0,0,0,,2,,,62,127
75933,note_off,317,0,0,,11,,,70,127
75935,note_off,2,0,0,,7,,,67,127
75937,note_on,2,0,0,,5,,,65,127
75937,note_on,0,0,0,,10,,,69,127
76095,note_off,158,0,0,,10,,,69,127
76095,note_off,0,0,0,,5,,,65,127
76097,note_on,2,0,0,,4,,,64,127
76097,note_on,0,0,0,,7,,,67,127
76255,note_off,158,0,0,,7,,,67,127
76255,note_off,0,0,0,,4,,,64,127
76257,note_on,2,0,0,,5,,,65,127
76257,note_on,0,0,0,,10,,,69,127
76450,note_off,193,0,0,,2,,,50,127
76575,note_off,125,0,0,,10,,,69,127
76575,note_off,0,0,0,,5,,,65,127
76575,note_off,0,0,0,,2,,,62,127
76577,note_on,2,0,0,,0,,,60,127
76577,note_on,0,0,0,,4,,,64,127
76577,note_on,0,0,0,,2,,,74,127
76735,note_off,158,0,0,,4,,,64,127
76735,note_off,0,0,0,,0,,,60,127
76737,note_on,2,0,0,,12,,,59,127
76737,note_on,0,0,0,,2,,,62,127
76895,note_off,158,0,0,,2,,,62,127
76895,note_off,0,0,0,,12,,,59,127
76897,note_on,2,0,0,,10,,,57,127
76897,note_on,0,0,0,,4,,,64,127
77214,note_off,317,0,0,,4,,,64,127
77216,note_off,2,0,0,,2,,,74,127
77218,note_on,2,0,0,,10,,,69,127
77218,note_on,0,0,0,,0,,,72,127
77536,note_off,318,0,0,,10,,,57,127
77538,note_on,2,0,0,,4,,,52,127
77538,note_on,0,0,0,,4,,,64,127
77855,note_off,317,0,0,,10,,,69,127
77857,note_off,2,0,0,,0,,,72,127
77859,note_on,2,0,0,,8,,,68,127
77859,note_on,0,0,0,,12,,,71,127
78017,note_off,158,0,0,,12,,,71,127
78017,note_off,0,0,0,,8,,,68,127
78019,note_on,2,0,0,,6,,,66,127
78019,note_on,0,0,0,,10,,,69,127
78177,note_off,158,0,0,,10,,,69,127
78177,note_off,0,0,0,,6,,,66,127
78179,note_on,2,0,0,,8,,,68,127
78179,note_on,0,0,0,,12,,,71,127
78406,note_off,227,0,0,,4,,,52,127
78498,note_off,92,0,0,,12,,,71,127
78498,note_off,0,0,0,,8,,,68,127
78498,note_off,0,0,0,,4,,,64,127
78500,note_on,2,0,0,,2,,,62,127
78500,note_on,0,0,0,,10,,,69,127
78500,note_on,0,0,0,,0,,,72,127
78658,note_off,158,0,0,,2,,,62,127
78660,note_on,2,0,0,,0,,,60,127
78818,note_off,158,0,0,,0,,,60,127
78818,note_off,0,0,0,,0,,,72,127
78818,note_off,0,0,0,,10,,,69,127
78820,note_on,2,0,0,,12,,,59,127
78820,note_on,0,0,0,,2,,,62,127
78820,note_on,0,0,0,,8,,,68,127
78820,note_on,0,0,0,,2,,,74,127
79138,note_off,318,0,0,,2,,,74,127
79138,note_off,0,0,0,,8,,,68,127
79138,note_off,0,0,0,,2,,,62,127
79138,note_off,0,0,0,,12,,,59,127
79140,note_on,2,0,0,,10,,,57,127
79140,note_on,0,0,0,,4,,,64,127
79140,note_on,0,0,0,,10,,,69,127
79140,note_on,0,0,0,,0,,,72,127
79298,note_off,158,0,0,,0,,,72,127
79300,note_on,2,0,0,,2,,,74,127
79458,note_off,158,0,0,,2,,,74,127
79458,note_off,0,0,0,,10,,,69,127
79458,note_off,0,0,0,,4,,,64,127
79458,note_off,0,0,0,,10,,,57,127
79460,note_on,2,0,0,,8,,,56,127
79460,note_on,0,0,0,,4,,,64,127
79460,note_on,0,0,0,,12,,,71,127
79460,note_on,0,0,0,,4,,,76,127
79778,note_off,318,0,0,,12,,,71,127
79778,note_off,0,0,0,,8,,,56,127
79780,note_on,2,0,0,,10,,,57,127
79780,note_on,0,0,0,,0,,,72,127
80098,note_off,318,0,0,,0,,,72,127
80098,note_off,0,0,0,,10,,,57,127
80100,note_on,2,0,0,,7,,,55,127
80100,note_on,0,0,0,,12,,,71,127
80418,note_off,318,0,0,,12,,,71,127
80418,note_off,0,0,0,,7,,,55,127
80418,note_off,0,0,0,,4,,,76,127
80418,note_off,0,0,0,,4,,,64,127
80420,note_on,2,0,0,,5,,,53,127
80420,note_on,0,0,0,,0,,,60,127
80420,note_on,0,0,0,,10,,,69,127
80420,note_on,0,0,0,,10,,,81,127
80578,note_off,158,0,0,,0,,,60,127
80580,note_on,2,0,0,,2,,,62,127
80738,note_off,158,0,0,,2,,,62,127
80738,note_off,0,0,0,,10,,,81,127
80738,note_off,0,0,0,,10,,,69,127
80738,note_off,0,0,0,,5,,,53,127
80740,note_on,2,0,0,,4,,,52,127
80740,note_on,0,0,0,,4,,,64,127
80740,note_on,0,0,0,,12,,,71,127
80740,note_on,0,0,0,,8,,,80,127
81058,note_off,318,0,0,,8,,,80,127
81058,note_off,0,0,0,,12,,,71,127
81058,note_off,0,0,0,,4,,,64,127
81060,note_on,2,0,0,,2,,,62,127
81060,note_on,0,0,0,,10,,,69,127
81060,note_on,0,0,0,,5,,,77,127
81218,note_off,158,0,0,,10,,,69,127
81220,note_on,2,0,0,,8,,,68,127
81378,note_off,158,0,0,,8,,,68,127
81378,note_off,0,0,0,,5,,,77,127
81378,note_off,0,0,0,,2,,,62,127
81380,note_on,2,0,0,,0,,,60,127
81380,note_on,0,0,0,,10,,,69,127
81380,note_on,0,0,0,,4,,,76,127
81698,note_off,318,0,0,,4,,,76,127
81698,note_off,0,0,0,,10,,,69,127
81698,note_off,0,0,0,,0,,,60,127
81700,note_on,2,0,0,,12,,,59,127
81700,note_on,0,0,0,,12,,,71,127
81700,note_on,0,0,0,,2,,,74,127
82018,note_off,318,0,0,,12,,,71,127
82018,note_off,0,0,0,,12,,,59,127
82018,note_off,0,0,0,,4,,,52,127
82020,note_on,2,0,0,,10,,,57,127
82020,note_on,0,0,0,,4,,,64,127
82338,note_off,318,0,0,,4,,,64,127
82338,note_off,0,0,0,,2,,,74,127
82340,note_on,2,0,0,,10,,,45,127
82340,note_on,0,0,0,,10,,,69,127
82340,note_on,0,0,0,,1,,,73,127
82498,note_off,158,0,0,,1,,,73,127
82500,note_on,2,0,0,,12,,,71,127
82658,note_off,158,0,0,,12,,,71,127
82660,note_on,2,0,0,,1,,,73,127
82978,note_off,318,0,0,,1,,,73,127
82978,note_off,0,0,0,,10,,,69,127
82978,note_off,0,0,0,,10,,,45,127
82978,note_off,0,0,0,,10,,,57,127
82980,note_on,2,0,0,,12,,,47,127
82980,note_on,0,0,0,,7,,,55,127
82980,note_on,0,0,0,,2,,,62,127
82980,note_on,0,0,0,,2,,,74,127
83138,note_off,158,0,0,,7,,,55,127
83140,note_on,2,0,0,,5,,,53,127
83298,note_off,158,0,0,,5,,,53,127
83298,note_off,0,0,0,,2,,,74,127
83298,note_off,0,0,0,,2,,,62,127
83298,note_off,0,0,0,,12,,,47,127
83300,note_on,2,0,0,,1,,,49,127
83300,note_on,0,0,0,,4,,,52,127
83300,note_on,0,0,0,,7,,,67,127
83300,note_on,0,0,0,,4,,,76,127
83618,note_off,318,0,0,,4,,,76,127
83618,note_off,0,0,0,,7,,,67,127
83618,note_off,0,0,0,,4,,,52,127
83618,note_off,0,0,0,,1,,,49,127
83620,note_on,2,0,0,,2,,,50,127
83620,note_on,0,0,0,,5,,,53,127
83620,note_on,0,0,0,,5,,,65,127
83620,note_on,0,0,0,,2,,,74,127
83938,note_off,318,0,0,,5,,,65,127
83938,note_off,0,0,0,,5,,,53,127
83938,note_off,0,0,0,,2,,,50,127
83940,note_on,2,0,0,,4,,,52,127
83940,note_on,0,0,0,,7,,,55,127
83940,note_on,0,0,0,,4,,,64,127
84258,note_off,318,0,0,,4,,,64,127
84258,note_off,0,0,0,,7,,,55,127
84258,note_off,0,0,0,,4,,,52,127
84258,note_off,0,0,0,,2,,,74,127
84260,note_on,2,0,0,,10,,,45,127
84260,note_on,0,0,0,,10,,,57,127
84260,note_on,0,0,0,,10,,,69,127
84260,note_on,0,0,0,,1,,,73,127
84578,note_off,318,0,0,,1,,,73,127
84578,note_off,0,0,0,,10,,,69,127
84578,note_off,0,0,0,,10,,,45,127
84580,note_on,2,0,0,,11,,,46,127
84580,note_on,0,0,0,,2,,,62,127
84580,note_on,0,0,0,,2,,,74,127
84898,note_off,318,0,0,,2,,,62,127
84898,note_off,0,0,0,,10,,,57,127
84900,note_on,2,0,0,,7,,,55,127
84900,note_on,0,0,0,,2,,,62,127
85058,note_off,158,0,0,,7,,,55,127
85060,note_on,2,0,0,,6,,,54,127
85218,note_off,158,0,0,,6,,,54,127
85218,note_off,0,0,0,,2,,,62,127
85220,note_on,2,0,0,,7,,,55,127
85220,note_on,0,0,0,,7,,,67,127
85513,note_off,293,0,0,,11,,,46,127
85538,note_off,25,0,0,,2,,,74,127
85540,note_on,2,0,0,,0,,,48,127
85540,note_on,0,0,0,,3,,,75,127
85858,note_off,318,0,0,,3,,,75,127
85858,note_off,0,0,0,,0,,,48,127
85860,note_on,2,0,0,,2,,,50,127
85860,note_on,0,0,0,,11,,,70,127
86175,note_off,315,0,0,,2,,,50,127
86178,note_off,3,0,0,,11,,,70,127
86178,note_off,0,0,0,,7,,,67,127
86178,note_off,0,0,0,,7,,,55,127
86180,note_on,2,0,0,,2,,,62,127
86180,note_on,0,0,0,,5,,,65,127
86180,note_on,0,0,0,,10,,,69,127
86338,note_off,158,0,0,,10,,,69,127
86338,note_off,0,0,0,,5,,,65,127
86340,note_on,2,0,0,,4,,,64,127
86340,note_on,0,0,0,,7,,,67,127
86498,note_off,158,0,0,,7,,,67,127
86498,note_off,0,0,0,,4,,,64,127
86500,note_on,2,0,0,,5,,,65,127
86500,note_on,0,0,0,,10,,,69,127
86818,note_off,318,0,0,,10,,,69,127
86818,note_off,0,0,0,,2,,,62,127
86820,note_on,2,0,0,,0,,,60,127
86820,note_on,0,0,0,,2,,,74,127
87137,note_off,317,0,0,,0,,,60,127
87139,note_off,2,0,0,,2,,,74,127
87141,note_on,2,0,0,,12,,,59,127
87141,note_on,0,0,0,,7,,,67,127
87459,note_off,318,0,0,,12,,,59,127
87459,note_off,0,0,0,,5,,,65,127
87461,note_on,2,0,0,,0,,,60,127
87461,note_on,0,0,0,,3,,,63,127
87619,note_off,158,0,0,,3,,,63,127
87621,note_on,2,0,0,,2,,,62,127
87779,note_off,158,0,0,,2,,,62,127
87779,note_off,0,0,0,,7,,,67,127
87781,note_on,2,0,0,,3,,,63,127
87781,note_on,0,0,0,,0,,,72,127
88099,note_off,318,0,0,,3,,,63,127
88099,note_off,0,0,0,,0,,,60,127
88101,note_on,2,0,0,,8,,,56,127
88101,note_on,0,0,0,,2,,,62,127
88101,note_on,0,0,0,,5,,,65,127
88419,note_off,318,0,0,,5,,,65,127
88419,note_off,0,0,0,,2,,,62,127
88419,note_off,0,0,0,,8,,,56,127
88421,note_on,2,0,0,,7,,,55,127
88421,note_on,0,0,0,,3,,,63,127
88421,note_on,0,0,0,,7,,,67,127
88739,note_off,318,0,0,,7,,,67,127
88739,note_off,0,0,0,,3,,,63,127
88739,note_off,0,0,0,,0,,,72,127
88741,note_on,2,0,0,,2,,,62,127
88741,note_on,0,0,0,,12,,,71,127
88741,note_on,0,0,0,,7,,,79,127
88899,note_off,158,0,0,,12,,,71,127
88899,note_off,0,0,0,,2,,,62,127
88901,note_on,2,0,0,,0,,,60,127
88901,note_on,0,0,0,,10,,,69,127
89059,note_off,158,0,0,,10,,,69,127
89059,note_off,0,0,0,,0,,,60,127
89061,note_on,2,0,0,,2,,,62,127
89061,note_on,0,0,0,,12,,,71,127
89379,note_off,318,0,0,,12,,,71,127
89379,note_off,0,0,0,,7,,,79,127
89381,note_on,2,0,0,,2,,,74,127
89381,note_on,0,0,0,,5,,,77,127
89699,note_off,318,0,0,,2,,,74,127
89699,note_off,0,0,0,,2,,,62,127
89699,note_off,0,0,0,,7,,,55,127
89701,note_on,2,0,0,,0,,,60,127
89701,note_on,0,0,0,,7,,,67,127
90019,note_off,318,0,0,,7,,,67,127
90019,note_off,0,0,0,,5,,,77,127
90021,note_on,2,0,0,,0,,,48,127
90021,note_on,0,0,0,,0,,,72,127
90021,note_on,0,0,0,,4,,,76,127
90179,note_off,158,0,0,,4,,,76,127
90181,note_on,2,0,0,,2,,,74,127
90339,note_off,158,0,0,,2,,,74,127
90339,note_off,0,0,0,,0,,,60,127
90341,note_on,2,0,0,,0,,,60,127
90341,note_on,0,0,0,,4,,,76,127
90659,note_off,318,0,0,,4,,,76,127
90659,note_off,0,0,0,,0,,,72,127
90659,note_off,0,0,0,,0,,,48,127
90661,note_on,2,0,0,,2,,,50,127
90661,note_on,0,0,0,,11,,,70,127
90661,note_on,0,0,0,,5,,,77,127
90819,note_off,158,0,0,,11,,,70,127
90821,note_on,2,0,0,,10,,,69,127
90979,note_off,158,0,0,,10,,,69,127
90979,note_off,0,0,0,,5,,,77,127
90979,note_off,0,0,0,,2,,,50,127
90981,note_on,2,0,0,,4,,,52,127
90981,note_on,0,0,0,,7,,,67,127
90981,note_on,0,0,0,,7,,,79,127
91299,note_off,318,0,0,,7,,,79,127
91299,note_off,0,0,0,,7,,,67,127
91299,note_off,0,0,0,,4,,,52,127
91301,note_on,2,0,0,,5,,,53,127
91301,note_on,0,0,0,,10,,,69,127
91301,note_on,0,0,0,,5,,,77,127
91619,note_off,318,0,0,,10,,,69,127
91619,note_off,0,0,0,,5,,,53,127
91619,note_off,0,0,0,,0,,,60,127
91621,note_on,2,0,0,,7,,,55,127
91621,note_on,0,0,0,,11,,,58,127
91621,note_on,0,0,0,,11,,,70,127
91939,note_off,318,0,0,,5,,,77,127
91941,note_on,2,0,0,,4,,,76,127
92259,note_off,318,0,0,,4,,,76,127
92259,note_off,0,0,0,,11,,,58,127
92259,note_off,0,0,0,,7,,,55,127
92261,note_on,2,0,0,,5,,,53,127
92261,note_on,0,0,0,,0,,,60,127
92261,note_on,0,0,0,,5,,,77,127
92579,note_off,318,0,0,,5,,,77,127
92579,note_off,0,0,0,,0,,,60,127
92579,note_off,0,0,0,,11,,,70,127
92581,note_on,2,0,0,,5,,,65,127
92581,note_on,0,0,0,,10,,,69,127
92581,note_on,0,0,0,,0,,,72,127
92739,note_off,158,0,0,,10,,,69,127
92741,note_on,2,0,0,,7,,,67,127
92899,note_off,158,0,0,,7,,,67,127
92901,note_on,2,0,0,,10,,,69,127
93219,note_off,318,0,0,,10,,,69,127
93219,note_off,0,0,0,,0,,,72,127
93219,note_off,0,0,0,,5,,,65,127
93221,note_on,2,0,0,,3,,,63,127
93221,note_on,0,0,0,,11,,,70,127
93221,note_on,0,0,0,,2,,,74,127
93379,note_off,158,0,0,,3,,,63,127
93381,note_on,2,0,0,,2,,,62,127
93538,note_off,157,0,0,,11,,,70,127
93540,note_off,2,0,0,,2,,,62,127
93540,note_off,0,0,0,,2,,,74,127
93542,note_on,2,0,0,,0,,,60,127
93542,note_on,0,0,0,,10,,,69,127
93542,note_on,0,0,0,,3,,,75,127
93859,note_off,317,0,0,,10,,,69,127
93861,note_off,2,0,0,,3,,,75,127
93861,note_off,0,0,0,,0,,,60,127
93863,note_on,2,0,0,,2,,,62,127
93863,note_on,0,0,0,,11,,,70,127
93863,note_on,0,0,0,,2,,,74,127
94181,note_off,318,0,0,,2,,,74,127
94181,note_off,0,0,0,,2,,,62,127
94183,note_on,2,0,0,,3,,,63,127
94183,note_on,0,0,0,,0,,,72,127
94500,note_off,317,0,0,,11,,,70,127
94502,note_off,2,0,0,,3,,,63,127
94504,note_on,2,0,0,,5,,,65,127
94504,note_on,0,0,0,,10,,,69,127
94821,note_off,317,0,0,,10,,,69,127
94821,note_off,0,0,0,,5,,,65,127
94821,note_off,0,0,0,,0,,,72,127
94821,note_off,0,0,0,,5,,,53,127
94824,note_on,3,0,0,,7,,,55,127
94824,note_on,0,0,0,,0,,,72,127
94824,note_on,0,0,0,,2,,,74,127
95141,note_off,317,0,0,,0,,,72,127
95144,note_on,3,0,0,,7,,,67,127
95144,note_on,0,0,0,,11,,,70,127
95302,note_off,158,0,0,,11,,,70,127
95304,note_on,2,0,0,,10,,,69,127
95462,note_off,158,0,0,,10,,,69,127
95462,note_off,0,0,0,,2,,,74,127
95464,note_on,2,0,0,,11,,,70,127
95464,note_on,0,0,0,,7,,,79,127
95782,note_off,318,0,0,,7,,,67,127
95782,note_off,0,0,0,,7,,,55,127
95784,note_on,2,0,0,,4,,,64,127
96102,note_off,318,0,0,,4,,,64,127
96102,note_off,0,0,0,,11,,,70,127
96104,note_on,2,0,0,,1,,,61,127
96104,note_on,0,0,0,,10,,,69,127
96422,note_off,318,0,0,,10,,,69,127
96422,note_off,0,0,0,,1,,,61,127
96422,note_off,0,0,0,,7,,,79,127
96424,note_on,2,0,0,,2,,,62,127
96424,note_on,0,0,0,,2,,,74,127
96424,note_on,0,0,0,,5,,,77,127
96582,note_off,158,0,0,,5,,,77,127
96582,note_off,0,0,0,,2,,,62,127
96584,note_on,2,0,0,,4,,,64,127
96584,note_on,0,0,0,,7,,,79,127
96742,note_off,158,0,0,,7,,,79,127
96742,note_off,0,0,0,,4,,,64,127
96744,note_on,2,0,0,,5,,,53,127
96744,note_on,0,0,0,,5,,,65,127
96744,note_on,0,0,0,,10,,,81,127
97062,note_off,318,0,0,,10,,,81,127
97062,note_off,0,0,0,,5,,,65,127
97062,note_off,0,0,0,,5,,,53,127
97062,note_off,0,0,0,,2,,,74,127
97064,note_on,2,0,0,,7,,,55,127
97064,note_on,0,0,0,,2,,,62,127
97064,note_on,0,0,0,,2,,,74,127
97064,note_on,0,0,0,,11,,,82,127
97381,note_off,317,0,0,,2,,,62,127
97383,note_off,2,0,0,,11,,,82,127
97383,note_off,0,0,0,,7,,,55,127
97385,note_on,2,0,0,,10,,,57,127
97385,note_on,0,0,0,,5,,,77,127
97703,note_off,318,0,0,,5,,,77,127
97703,note_off,0,0,0,,10,,,57,127
97703,note_off,0,0,0,,2,,,74,127
97705,note_on,2,0,0,,10,,,69,127
97705,note_on,0,0,0,,0,,,72,127
97705,note_on,0,0,0,,3,,,75,127
97863,note_off,158,0,0,,3,,,75,127
97863,note_off,0,0,0,,0,,,72,127
97865,note_on,2,0,0,,12,,,71,127
97865,note_on,0,0,0,,2,,,74,127
98023,note_off,158,0,0,,2,,,74,127
98023,note_off,0,0,0,,12,,,71,127
98025,note_on,2,0,0,,0,,,72,127
98025,note_on,0,0,0,,3,,,75,127
98343,note_off,318,0,0,,3,,,75,127
98343,note_off,0,0,0,,10,,,69,127
98345,note_on,2,0,0,,7,,,67,127
98345,note_on,0,0,0,,10,,,81,127
98663,note_off,318,0,0,,10,,,81,127
98663,note_off,0,0,0,,7,,,67,127
98665,note_on,2,0,0,,6,,,66,127
98665,note_on,0,0,0,,2,,,74,127
98983,note_off,318,0,0,,6,,,66,127
98983,note_off,0,0,0,,0,,,72,127
98985,note_on,2,0,0,,7,,,67,127
98985,note_on,0,0,0,,11,,,70,127
99143,note_off,158,0,0,,11,,,70,127
99143,note_off,0,0,0,,2,,,74,127
99145,note_on,2,0,0,,10,,,69,127
99145,note_on,0,0,0,,1,,,73,127
99303,note_off,158,0,0,,1,,,73,127
99303,note_off,0,0,0,,10,,,69,127
99305,note_on,2,0,0,,11,,,70,127
99305,note_on,0,0,0,,2,,,74,127
99623,note_off,318,0,0,,2,,,74,127
99623,note_off,0,0,0,,7,,,67,127
99625,note_on,2,0,0,,5,,,65,127
99625,note_on,0,0,0,,7,,,79,127
99943,note_off,318,0,0,,7,,,79,127
99943,note_off,0,0,0,,5,,,65,127
99945,note_on,2,0,0,,4,,,64,127
99945,note_on,0,0,0,,0,,,72,127
100263,note_off,318,0,0,,4,,,64,127
100263,note_off,0,0,0,,11,,,70,127
100265,note_on,2,0,0,,5,,,65,127
100265,note_on,0,0,0,,10,,,69,127
100423,note_off,158,0,0,,10,,,69,127
100423,note_off,0,0,0,,0,,,72,127
100425,note_on,2,0,0,,8,,,68,127
100425,note_on,0,0,0,,12,,,71,127
100583,note_off,158,0,0,,12,,,71,127
100583,note_off,0,0,0,,8,,,68,127
100585,note_on,2,0,0,,10,,,69,127
100585,note_on,0,0,0,,0,,,72,127
100903,note_off,318,0,0,,0,,,72,127
100903,note_off,0,0,0,,5,,,65,127
100905,note_on,2,0,0,,4,,,64,127
100905,note_on,0,0,0,,5,,,77,127
101223,note_off,318,0,0,,5,,,77,127
101223,note_off,0,0,0,,4,,,64,127
101225,note_on,2,0,0,,2,,,62,127
101225,note_on,0,0,0,,11,,,70,127
101543,note_off,318,0,0,,2,,,62,127
101543,note_off,0,0,0,,10,,,69,127
101545,note_on,2,0,0,,4,,,64,127
101545,note_on,0,0,0,,7,,,67,127
101703,note_off,158,0,0,,7,,,67,127
101703,note_off,0,0,0,,11,,,70,127
101705,note_on,2,0,0,,6,,,66,127
101705,note_on,0,0,0,,10,,,69,127
101863,note_off,158,0,0,,10,,,69,127
101863,note_off,0,0,0,,6,,,66,127
101865,note_on,2,0,0,,7,,,67,127
101865,note_on,0,0,0,,11,,,70,127
102183,note_off,318,0,0,,11,,,70,127
102183,note_off,0,0,0,,4,,,64,127
102185,note_on,2,0,0,,2,,,62,127
102185,note_on,0,0,0,,4,,,76,127
102503,note_off,318,0,0,,4,,,76,127
102503,note_off,0,0,0,,2,,,62,127
102505,note_on,2,0,0,,1,,,61,127
102505,note_on,0,0,0,,10,,,69,127
102823,note_off,318,0,0,,1,,,61,127
102823,note_off,0,0,0,,7,,,67,127
102825,note_on,2,0,0,,2,,,62,127
102825,note_on,0,0,0,,5,,,65,127
102983,note_off,158,0,0,,5,,,65,127
102985,note_on,2,0,0,,4,,,64,127
103143,note_off,158,0,0,,4,,,64,127
103145,note_on,2,0,0,,5,,,65,127
103463,note_off,318,0,0,,5,,,65,127
103463,note_off,0,0,0,,2,,,62,127
103463,note_off,0,0,0,,10,,,69,127
103465,note_on,2,0,0,,0,,,60,127
103465,note_on,0,0,0,,7,,,67,127
103465,note_on,0,0,0,,2,,,74,127
103623,note_off,158,0,0,,0,,,60,127
103625,note_on,2,0,0,,11,,,58,127
103783,note_off,158,0,0,,11,,,58,127
103783,note_off,0,0,0,,2,,,74,127
103783,note_off,0,0,0,,7,,,67,127
103785,note_on,2,0,0,,10,,,57,127
103785,note_on,0,0,0,,4,,,64,127
103785,note_on,0,0,0,,10,,,69,127
103785,note_on,0,0,0,,1,,,73,127
104103,note_off,318,0,0,,1,,,73,127
104103,note_off,0,0,0,,10,,,69,127
104103,note_off,0,0,0,,4,,,64,127
104103,note_off,0,0,0,,10,,,57,127
104105,note_on,2,0,0,,5,,,53,127
104105,note_on,0,0,0,,2,,,62,127
104105,note_on,0,0,0,,10,,,69,127
104105,note_on,0,0,0,,2,,,74,127
104423,note_off,318,0,0,,2,,,74,127
104423,note_off,0,0,0,,10,,,69,127
104423,note_off,0,0,0,,2,,,62,127
104423,note_off,0,0,0,,5,,,53,127
104425,note_on,2,0,0,,4,,,52,127
104425,note_on,0,0,0,,1,,,61,127
104425,note_on,0,0,0,,7,,,67,127
104425,note_on,0,0,0,,4,,,76,127
104743,note_off,318,0,0,,4,,,76,127
104743,note_off,0,0,0,,7,,,67,127
104743,note_off,0,0,0,,1,,,61,127
104743,note_off,0,0,0,,4,,,52,127
104745,note_on,2,0,0,,2,,,50,127
104745,note_on,0,0,0,,2,,,62,127
104745,note_on,0,0,0,,10,,,69,127
104745,note_on,0,0,0,,5,,,77,127
104903,note_off,158,0,0,,5,,,77,127
104905,note_on,2,0,0,,7,,,79,127
105063,note_off,158,0,0,,7,,,79,127
105063,note_off,0,0,0,,10,,,69,127
105063,note_off,0,0,0,,2,,,62,127
105063,note_off,0,0,0,,2,,,50,127
105065,note_on,2,0,0,,1,,,49,127
105065,note_on,0,0,0,,10,,,57,127
105065,note_on,0,0,0,,10,,,69,127
105065,note_on,0,0,0,,10,,,81,127
105383,note_off,318,0,0,,1,,,49,127
105385,note_on,2,0,0,,2,,,50,127
105385,note_on,0,0,0,,5,,,77,127
105697,note_off,312,0,0,,10,,,81,127
105704,note_off,7,0,0,,5,,,77,127
105704,note_off,0,0,0,,2,,,50,127
105706,note_on,2,0,0,,0,,,48,127
105706,note_on,0,0,0,,4,,,76,127
106024,note_off,318,0,0,,4,,,76,127
106024,note_off,0,0,0,,0,,,48,127
106024,note_off,0,0,0,,10,,,69,127
106026,note_on,2,0,0,,11,,,46,127
106026,note_on,0,0,0,,5,,,65,127
106026,note_on,0,0,0,,2,,,74,127
106184,note_off,158,0,0,,5,,,65,127
106186,note_on,2,0,0,,7,,,67,127
106344,note_off,158,0,0,,7,,,67,127
106344,note_off,0,0,0,,11,,,46,127
106346,note_on,2,0,0,,10,,,45,127
106346,note_on,0,0,0,,10,,,69,127
106664,note_off,318,0,0,,10,,,69,127
106664,note_off,0,0,0,,2,,,74,127
106666,note_on,2,0,0,,4,,,64,127
106666,note_on,0,0,0,,1,,,73,127
106824,note_off,158,0,0,,1,,,73,127
106826,note_on,2,0,0,,12,,,71,127
106984,note_off,158,0,0,,12,,,71,127
106986,note_on,2,0,0,,1,,,73,127
107303,note_off,317,0,0,,10,,,57,127
107305,note_off,2,0,0,,1,,,73,127
107305,note_off,0,0,0,,4,,,64,127
107307,note_on,2,0,0,,7,,,55,127
107307,note_on,0,0,0,,5,,,65,127
107307,note_on,0,0,0,,2,,,74,127
107465,note_off,158,0,0,,7,,,55,127
107467,note_on,2,0,0,,5,,,53,127
107624,note_off,157,0,0,,5,,,53,127
107626,note_off,2,0,0,,2,,,74,127
107626,note_off,0,0,0,,5,,,65,127
107626,note_off,0,0,0,,10,,,45,127
107628,note_on,2,0,0,,4,,,52,127
107628,note_on,0,0,0,,7,,,67,127
107628,note_on,0,0,0,,4,,,76,127
107946,note_off,318,0,0,,4,,,76,127
107946,note_off,0,0,0,,7,,,67,127
107946,note_off,0,0,0,,4,,,52,127
107948,note_on,2,0,0,,2,,,50,127
107948,note_on,0,0,0,,10,,,69,127
107948,note_on,0,0,0,,5,,,77,127
108266,note_off,318,0,0,,5,,,77,127
108266,note_off,0,0,0,,10,,,69,127
108268,note_on,2,0,0,,11,,,70,127
108268,note_on,0,0,0,,7,,,79,127
108585,note_off,317,0,0,,2,,,50,127
108587,note_off,2,0,0,,11,,,70,127
108589,note_on,2,0,0,,1,,,49,127
108589,note_on,0,0,0,,10,,,69,127
108907,note_off,318,0,0,,10,,,69,127
108907,note_off,0,0,0,,1,,,49,127
108909,note_on,2,0,0,,2,,,50,127
108909,note_on,0,0,0,,10,,,69,127
109224,note_off,315,0,0,,2,,,50,127
109227,note_off,3,0,0,,7,,,79,127
109229,note_on,2,0,0,,2,,,62,127
109229,note_on,0,0,0,,6,,,78,127
109387,note_off,158,0,0,,6,,,78,127
109389,note_on,2,0,0,,4,,,76,127
109547,note_off,158,0,0,,4,,,76,127
109549,note_on,2,0,0,,6,,,78,127
109867,note_off,318,0,0,,6,,,78,127
109867,note_off,0,0,0,,2,,,62,127
109867,note_off,0,0,0,,10,,,69,127
109869,note_on,2,0,0,,0,,,60,127
109869,note_on,0,0,0,,11,,,70,127
109869,note_on,0,0,0,,7,,,79,127
110027,note_off,158,0,0,,0,,,60,127
110029,note_on,2,0,0,,11,,,58,127
110186,note_off,157,0,0,,11,,,58,127
110188,note_off,2,0,0,,7,,,79,127
110188,note_off,0,0,0,,11,,,70,127
110190,note_on,2,0,0,,10,,,57,127
110190,note_on,0,0,0,,0,,,72,127
110190,note_on,0,0,0,,10,,,81,127
110508,note_off,318,0,0,,10,,,81,127
110508,note_off,0,0,0,,0,,,72,127
110508,note_off,0,0,0,,10,,,57,127
110510,note_on,2,0,0,,7,,,55,127
110510,note_on,0,0,0,,2,,,74,127
110510,note_on,0,0,0,,11,,,82,127
110828,note_off,318,0,0,,11,,,82,127
110828,note_off,0,0,0,,2,,,74,127
110830,note_on,2,0,0,,3,,,75,127
110830,note_on,0,0,0,,0,,,84,127
111147,note_off,317,0,0,,7,,,55,127
111149,note_off,2,0,0,,3,,,75,127
111151,note_on,2,0,0,,6,,,54,127
111151,note_on,0,0,0,,2,,,74,127
111469,note_off,318,0,0,,2,,,74,127
111469,note_off,0,0,0,,6,,,54,127
111471,note_on,2,0,0,,7,,,55,127
111471,note_on,0,0,0,,2,,,62,127
111471,note_on,0,0,0,,2,,,74,127
111789,note_off,318,0,0,,2,,,62,127
111789,note_off,0,0,0,,7,,,55,127
111789,note_off,0,0,0,,0,,,84,127
111791,note_on,2,0,0,,7,,,67,127
111791,note_on,0,0,0,,11,,,82,127
112109,note_off,318,0,0,,7,,,67,127
112109,note_off,0,0,0,,2,,,74,127
112111,note_on,2,0,0,,4,,,64,127
112111,note_on,0,0,0,,0,,,72,127
112429,note_off,318,0,0,,4,,,64,127
112429,note_off,0,0,0,,11,,,82,127
112431,note_on,2,0,0,,5,,,65,127
112431,note_on,0,0,0,,10,,,81,127
112431,note_on,0,0,0,,5,,,77,127
112749,note_off,318,0,0,,0,,,72,127
112751,note_on,2,0,0,,2,,,62,127
112751,note_on,0,0,0,,11,,,70,127
113069,note_off,318,0,0,,5,,,77,127
113069,note_off,0,0,0,,10,,,81,127
113069,note_off,0,0,0,,5,,,65,127
113071,note_on,2,0,0,,4,,,64,127
113071,note_on,0,0,0,,7,,,79,127
113071,note_on,0,0,0,,4,,,76,127
113389,note_off,318,0,0,,11,,,70,127
113389,note_off,0,0,0,,2,,,62,127
113391,note_on,2,0,0,,0,,,60,127
113391,note_on,0,0,0,,10,,,69,127
113708,note_off,317,0,0,,4,,,64,127
113710,note_off,2,0,0,,4,,,76,127
113710,note_off,0,0,0,,7,,,79,127
113712,note_on,2,0,0,,2,,,62,127
113712,note_on,0,0,0,,5,,,77,127
113712,note_on,0,0,0,,2,,,74,127
114030,note_off,318,0,0,,10,,,69,127
114030,note_off,0,0,0,,0,,,60,127
114032,note_on,2,0,0,,11,,,58,127
114032,note_on,0,0,0,,7,,,67,127
114349,note_off,317,0,0,,2,,,62,127
114351,note_off,2,0,0,,2,,,74,127
114351,note_off,0,0,0,,5,,,77,127
114353,note_on,2,0,0,,0,,,60,127
114353,note_on,0,0,0,,4,,,76,127
114353,note_on,0,0,0,,0,,,72,127
114671,note_off,318,0,0,,7,,,67,127
114671,note_off,0,0,0,,11,,,58,127
114673,note_on,2,0,0,,10,,,57,127
114673,note_on,0,0,0,,5,,,65,127
114990,note_off,317,0,0,,0,,,60,127
114992,note_off,2,0,0,,10,,,57,127
114992,note_off,0,0,0,,0,,,72,127
114992,note_off,0,0,0,,4,,,76,127
114994,note_on,2,0,0,,11,,,58,127
114994,note_on,0,0,0,,2,,,74,127
114994,note_on,0,0,0,,11,,,70,127
115152,note_off,158,0,0,,11,,,58,127
115154,note_on,2,0,0,,10,,,57,127
115311,note_off,157,0,0,,10,,,57,127
115313,note_off,2,0,0,,5,,,65,127
115315,note_on,2,0,0,,7,,,55,127
115315,note_on,0,0,0,,4,,,64,127
115633,note_off,318,0,0,,4,,,64,127
115633,note_off,0,0,0,,7,,,55,127
115633,note_off,0,0,0,,11,,,70,127
115633,note_off,0,0,0,,2,,,74,127
115635,note_on,2,0,0,,10,,,57,127
115635,note_on,0,0,0,,10,,,69,127
115635,note_on,0,0,0,,1,,,73,127
115793,note_off,158,0,0,,10,,,57,127
115795,note_on,2,0,0,,7,,,55,127
115953,note_off,158,0,0,,7,,,55,127
115953,note_off,0,0,0,,1,,,73,127
115955,note_on,2,0,0,,5,,,53,127
115955,note_on,0,0,0,,10,,,57,127
115955,note_on,0,0,0,,2,,,74,127
116272,note_off,317,0,0,,10,,,57,127
116274,note_off,2,0,0,,2,,,74,127
116274,note_off,0,0,0,,5,,,53,127
116274,note_off,0,0,0,,10,,,69,127
116276,note_on,2,0,0,,4,,,52,127
116276,note_on,0,0,0,,7,,,55,127
116276,note_on,0,0,0,,12,,,71,127
116276,note_on,0,0,0,,4,,,76,127
116434,note_off,158,0,0,,12,,,71,127
116436,note_on,2,0,0,,1,,,73,127
116593,note_off,157,0,0,,7,,,55,127
116595,note_off,2,0,0,,1,,,73,127
116595,note_off,0,0,0,,4,,,76,127
116595,note_off,0,0,0,,4,,,52,127
116597,note_on,2,0,0,,2,,,50,127
116597,note_on,0,0,0,,10,,,57,127
116597,note_on,0,0,0,,2,,,74,127
116597,note_on,0,0,0,,5,,,77,127
116755,note_off,158,0,0,,2,,,74,127
116757,note_on,2,0,0,,0,,,72,127
116914,note_off,157,0,0,,2,,,50,127
116916,note_off,2,0,0,,0,,,72,127
116916,note_off,0,0,0,,5,,,77,127
116916,note_off,0,0,0,,10,,,57,127
116918,note_on,2,0,0,,7,,,43,127
116918,note_on,0,0,0,,7,,,55,127
116918,note_on,0,0,0,,11,,,70,127
116918,note_on,0,0,0,,7,,,79,127
117076,note_off,158,0,0,,7,,,79,127
117076,note_off,0,0,0,,11,,,70,127
117078,note_on,2,0,0,,10,,,69,127
117078,note_on,0,0,0,,5,,,77,127
117236,note_off,158,0,0,,5,,,77,127
117236,note_off,0,0,0,,10,,,69,127
117238,note_on,2,0,0,,7,,,67,127
117238,note_on,0,0,0,,4,,,76,127
117555,note_off,317,0,0,,7,,,43,127
117557,note_off,2,0,0,,4,,,76,127
117557,note_off,0,0,0,,7,,,67,127
117557,note_off,0,0,0,,7,,,55,127
117559,note_on,2,0,0,,7,,,43,127
117559,note_on,0,0,0,,7,,,55,127
117559,note_on,0,0,0,,5,,,65,127
117559,note_on,0,0,0,,2,,,74,127
117877,note_off,318,0,0,,2,,,74,127
117877,note_off,0,0,0,,5,,,65,127
117877,note_off,0,0,0,,7,,,55,127
117877,note_off,0,0,0,,7,,,43,127
117879,note_on,2,0,0,,10,,,45,127
117879,note_on,0,0,0,,10,,,57,127
117879,note_on,0,0,0,,4,,,64,127
117879,note_on,0,0,0,,1,,,73,127
118196,note_off,317,0,0,,1,,,73,127
118196,note_off,0,0,0,,10,,,57,127
118198,note_off,2,0,0,,4,,,64,127
118200,note_on,2,0,0,,1,,,61,127
118200,note_on,0,0,0,,10,,,69,127
118200,note_on,0,0,0,,4,,,76,127
118518,note_off,318,0,0,,4,,,76,127
118518,note_off,0,0,0,,1,,,61,127
118520,note_on,2,0,0,,2,,,62,127
118520,note_on,0,0,0,,5,,,77,127
118838,note_off,318,0,0,,5,,,77,127
118838,note_off,0,0,0,,2,,,62,127
118838,note_off,0,0,0,,10,,,69,127
118840,note_on,2,0,0,,4,,,64,127
118840,note_on,0,0,0,,7,,,67,127
118840,note_on,0,0,0,,1,,,73,127
118840,note_on,0,0,0,,11,,,70,127
119157,note_off,317,0,0,,10,,,45,127
119159,note_off,2,0,0,,11,,,70,127
119159,note_off,0,0,0,,1,,,73,127
119159,note_off,0,0,0,,7,,,67,127
119159,note_off,0,0,0,,4,,,64,127
119161,note_on,2,0,0,,5,,,65,127
119161,note_on,0,0,0,,10,,,69,127
119161,note_on,0,0,0,,2,,,74,127
119478,note_off,317,0,0,,5,,,65,127
119480,note_off,2,0,0,,2,,,74,127
119480,note_off,0,0,0,,10,,,69,127
119482,note_on,2,0,0,,6,,,66,127
119482,note_on,0,0,0,,2,,,74,127
119482,note_on,0,0,0,,10,,,81,127
119799,note_off,317,0,0,,6,,,66,127
119801,note_off,2,0,0,,10,,,81,127
119803,note_on,2,0,0,,7,,,67,127
119803,note_on,0,0,0,,11,,,82,127
120120,note_off,317,0,0,,7,,,67,127
120120,note_off,0,0,0,,2,,,74,127
120122,note_off,2,0,0,,11,,,82,127
120124,note_on,2,0,0,,10,,,69,127
120124,note_on,0,0,0,,0,,,72,127
120124,note_on,0,0,0,,6,,,78,127
120124,note_on,0,0,0,,3,,,75,127
120442,note_off,318,0,0,,3,,,75,127
120442,note_off,0,0,0,,6,,,78,127
120442,note_off,0,0,0,,0,,,72,127
120442,note_off,0,0,0,,10,,,69,127
120444,note_on,2,0,0,,11,,,70,127
120444,note_on,0,0,0,,2,,,74,127
120444,note_on,0,0,0,,7,,,79,127
120761,note_off,317,0,0,,7,,,79,127
120763,note_off,2,0,0,,2,,,74,127
120763,note_off,0,0,0,,11,,,70,127
120765,note_on,2,0,0,,10,,,69,127
120765,note_on,0,0,0,,2,,,74,127
120765,note_on,0,0,0,,5,,,77,127
121083,note_off,318,0,0,,10,,,69,127
121085,note_on,2,0,0,,7,,,67,127
121403,note_off,318,0,0,,7,,,67,127
121403,note_off,0,0,0,,5,,,77,127
121403,note_off,0,0,0,,2,,,74,127
121405,note_on,2,0,0,,7,,,67,127
121405,note_on,0,0,0,,1,,,73,127
121405,note_on,0,0,0,,4,,,76,127
121563,note_off,158,0,0,,4,,,76,127
121563,note_off,0,0,0,,1,,,73,127
121565,note_on,2,0,0,,12,,,71,127
121565,note_on,0,0,0,,2,,,74,127
121723,note_off,158,0,0,,2,,,74,127
121723,note_off,0,0,0,,12,,,71,127
121725,note_on,2,0,0,,1,,,73,127
121725,note_on,0,0,0,,4,,,76,127
122043,note_off,318,0,0,,4,,,76,127
122043,note_off,0,0,0,,1,,,73,127
122043,note_off,0,0,0,,7,,,67,127
122045,note_on,2,0,0,,5,,,65,127
122045,note_on,0,0,0,,10,,,69,127
122045,note_on,0,0,0,,2,,,74,127
122363,note_off,318,0,0,,2,,,74,127
122363,note_off,0,0,0,,10,,,69,127
122363,note_off,0,0,0,,5,,,65,127
122365,note_on,2,0,0,,4,,,64,127
122365,note_on,0,0,0,,7,,,67,127
122365,note_on,0,0,0,,0,,,72,127
122683,note_off,318,0,0,,0,,,72,127
122683,note_off,0,0,0,,7,,,67,127
122683,note_off,0,0,0,,4,,,64,127
122685,note_on,2,0,0,,2,,,62,127
122685,note_on,0,0,0,,5,,,65,127
122685,note_on,0,0,0,,11,,,70,127
123003,note_off,318,0,0,,11,,,70,127
123003,note_off,0,0,0,,5,,,65,127
123003,note_off,0,0,0,,2,,,62,127
123005,note_on,2,0,0,,1,,,61,127
123005,note_on,0,0,0,,4,,,64,127
123005,note_on,0,0,0,,10,,,69,127
123323,note_off,318,0,0,,4,,,64,127
123323,note_off,0,0,0,,1,,,61,127
123325,note_on,2,0,0,,2,,,62,127
123325,note_on,0,0,0,,5,,,65,127
123643,note_off,318,0,0,,5,,,65,127
123643,note_off,0,0,0,,2,,,62,127
123645,note_on,2,0,0,,0,,,60,127
123645,note_on,0,0,0,,4,,,64,127
123963,note_off,318,0,0,,4,,,64,127
123963,note_off,0,0,0,,0,,,60,127
123963,note_off,0,0,0,,10,,,69,127
123965,note_on,2,0,0,,11,,,58,127
123965,note_on,0,0,0,,2,,,62,127
123965,note_on,0,0,0,,7,,,67,127
124283,note_off,318,0,0,,7,,,67,127
124283,note_off,0,0,0,,2,,,62,127
124283,note_off,0,0,0,,11,,,58,127
124285,note_on,2,0,0,,10,,,45,127
124285,note_on,0,0,0,,1,,,61,127
124285,note_on,0,0,0,,10,,,69,127
124285,note_on,0,0,0,,10,,,57,127
124603,note_off,318,0,0,,10,,,69,127
124603,note_off,0,0,0,,1,,,61,127
124605,note_on,2,0,0,,1,,,61,127
124605,note_on,0,0,0,,4,,,64,127
124923,note_off,318,0,0,,4,,,64,127
124923,note_off,0,0,0,,1,,,61,127
124925,note_on,2,0,0,,2,,,62,127
124925,note_on,0,0,0,,5,,,65,127
125242,note_off,317,0,0,,10,,,57,127
125244,note_off,2,0,0,,5,,,65,127
125244,note_off,0,0,0,,2,,,62,127
125246,note_on,2,0,0,,7,,,55,127
125246,note_on,0,0,0,,11,,,58,127
125246,note_on,0,0,0,,1,,,61,127
125563,note_off,317,0,0,,10,,,45,127
125565,note_off,2,0,0,,1,,,61,127
125565,note_off,0,0,0,,11,,,58,127
125565,note_off,0,0,0,,7,,,55,127
125567,note_on,2,0,0,,6,,,54,127
125567,note_on,0,0,0,,10,,,57,127
125567,note_on,0,0,0,,2,,,62,127
125567,note_on,0,0,0,,10,,,45,127
125885,note_off,318,0,0,,2,,,62,127
125885,note_off,0,0,0,,6,,,54,127
125887,note_on,2,0,0,,6,,,66,127
125887,note_on,0,0,0,,10,,,69,127
126205,note_off,318,0,0,,10,,,69,127
126205,note_off,0,0,0,,6,,,66,127
126207,note_on,2,0,0,,7,,,67,127
126207,note_on,0,0,0,,11,,,70,127
126525,note_off,318,0,0,,11,,,70,127
126525,note_off,0,0,0,,7,,,67,127
126527,note_on,2,0,0,,0,,,60,127
126527,note_on,0,0,0,,3,,,63,127
126527,note_on,0,0,0,,6,,,66,127
126844,note_off,317,0,0,,0,,,60,127
126844,note_off,0,0,0,,10,,,45,127
126844,note_off,0,0,0,,10,,,57,127
126846,note_off,2,0,0,,6,,,66,127
126846,note_off,0,0,0,,3,,,63,127
126848,note_on,2,0,0,,12,,,59,127
126848,note_on,0,0,0,,2,,,62,127
126848,note_on,0,0,0,,7,,,67,127
126848,note_on,0,0,0,,10,,,45,127
126848,note_on,0,0,0,,10,,,57,127
127165,note_off,317,0,0,,12,,,59,127
127167,note_off,2,0,0,,7,,,67,127
127167,note_off,0,0,0,,2,,,62,127
127169,note_on,2,0,0,,8,,,68,127
127169,note_on,0,0,0,,12,,,71,127
127487,note_off,318,0,0,,12,,,71,127
127487,note_off,0,0,0,,8,,,68,127
127489,note_on,2,0,0,,10,,,69,127
127489,note_on,0,0,0,,0,,,72,127
127807,note_off,318,0,0,,0,,,72,127
127807,note_off,0,0,0,,10,,,69,127
127809,note_on,2,0,0,,2,,,62,127
127809,note_on,0,0,0,,5,,,65,127
127809,note_on,0,0,0,,8,,,68,127
128126,note_off,317,0,0,,5,,,65,127
128126,note_off,0,0,0,,2,,,62,127
128126,note_off,0,0,0,,10,,,57,127
128126,note_off,0,0,0,,10,,,45,127
128128,note_off,2,0,0,,8,,,68,127
128130,note_on,2,0,0,,1,,,61,127
128130,note_on,0,0,0,,4,,,64,127
128130,note_on,0,0,0,,10,,,69,127
128130,note_on,0,0,0,,10,,,45,127
128130,note_on,0,0,0,,10,,,57,127
128447,note_off,317,0,0,,4,,,64,127
128447,note_off,0,0,0,,1,,,61,127
128449,note_off,2,0,0,,10,,,69,127
128451,note_on,2,0,0,,1,,,73,127
128451,note_on,0,0,0,,4,,,76,127
128769,note_off,318,0,0,,4,,,76,127
128769,note_off,0,0,0,,1,,,73,127
128771,note_on,2,0,0,,2,,,74,127
128771,note_on,0,0,0,,5,,,77,127
129089,note_off,318,0,0,,5,,,77,127
129089,note_off,0,0,0,,2,,,74,127
129091,note_on,2,0,0,,7,,,67,127
129091,note_on,0,0,0,,11,,,70,127
129091,note_on,0,0,0,,1,,,73,127
129408,note_off,317,0,0,,10,,,57,127
129408,note_off,0,0,0,,10,,,45,127
129410,note_off,2,0,0,,1,,,73,127
129410,note_off,0,0,0,,11,,,70,127
129410,note_off,0,0,0,,7,,,67,127
129412,note_on,2,0,0,,5,,,65,127
129412,note_on,0,0,0,,10,,,69,127
129412,note_on,0,0,0,,2,,,74,127
129412,note_on,0,0,0,,10,,,45,127
129412,note_on,0,0,0,,10,,,57,127
129729,note_off,317,0,0,,10,,,69,127
129729,note_off,0,0,0,,5,,,65,127
129731,note_off,2,0,0,,2,,,74,127
129733,note_on,2,0,0,,2,,,62,127
129733,note_on,0,0,0,,5,,,65,127
129733,note_on,0,0,0,,11,,,70,127
130050,note_off,317,0,0,,5,,,65,127
130050,note_off,0,0,0,,2,,,62,127
130052,note_off,2,0,0,,11,,,70,127
130054,note_on,2,0,0,,1,,,61,127
130054,note_on,0,0,0,,4,,,64,127
130054,note_on,0,0,0,,10,,,69,127
130372,note_off,318,0,0,,10,,,69,127
130372,note_off,0,0,0,,4,,,64,127
130372,note_off,0,0,0,,1,,,61,127
130374,note_on,2,0,0,,12,,,59,127
130374,note_on,0,0,0,,2,,,62,127
130374,note_on,0,0,0,,8,,,68,127
130691,note_off,317,0,0,,10,,,57,127
130691,note_off,0,0,0,,10,,,45,127
130693,note_off,2,0,0,,8,,,68,127
130693,note_off,0,0,0,,2,,,62,127
130693,note_off,0,0,0,,12,,,59,127
130695,note_on,2,0,0,,1,,,61,127
130695,note_on,0,0,0,,4,,,64,127
130695,note_on,0,0,0,,10,,,69,127
130695,note_on,0,0,0,,10,,,57,127
130695,note_on,0,0,0,,10,,,45,127
131013,note_off,318,0,0,,10,,,69,127
131013,note_off,0,0,0,,4,,,64,127
131013,note_off,0,0,0,,1,,,61,127
131015,note_on,2,0,0,,1,,,61,127
131015,note_on,0,0,0,,10,,,69,127
131327,note_off,312,0,0,,10,,,45,127
131327,note_off,0,0,0,,10,,,57,127
131334,note_off,7,0,0,,1,,,61,127
131336,note_on,2,0,0,,12,,,47,127
131336,note_on,0,0,0,,10,,,57,127
131336,note_on,0,0,0,,2,,,62,127
131654,note_off,318,0,0,,2,,,62,127
131654,note_off,0,0,0,,12,,,47,127
131654,note_off,0,0,0,,10,,,69,127
131656,note_on,2,0,0,,1,,,49,127
131656,note_on,0,0,0,,4,,,64,127
131656,note_on,0,0,0,,7,,,67,127
131974,note_off,318,0,0,,1,,,49,127
131976,note_on,2,0,0,,2,,,50,127
132293,note_off,317,0,0,,10,,,57,127
132295,note_off,2,0,0,,2,,,50,127
132295,note_off,0,0,0,,7,,,67,127
132295,note_off,0,0,0,,4,,,64,127
132297,note_on,2,0,0,,7,,,43,127
132297,note_on,0,0,0,,2,,,62,127
132297,note_on,0,0,0,,5,,,65,127
132455,note_off,158,0,0,,5,,,65,127
132457,note_on,2,0,0,,7,,,67,127
132615,note_off,158,0,0,,7,,,67,127
132615,note_off,0,0,0,,7,,,43,127
132617,note_on,2,0,0,,10,,,45,127
132617,note_on,0,0,0,,5,,,65,127
132935,note_off,318,0,0,,5,,,65,127
132935,note_off,0,0,0,,10,,,45,127
132935,note_off,0,0,0,,2,,,62,127
132937,note_on,2,0,0,,10,,,45,127
132937,note_on,0,0,0,,1,,,61,127
132937,note_on,0,0,0,,4,,,64,127
133252,note_off,315,0,0,,4,,,64,127
133252,note_off,0,0,0,,1,,,61,127
133255,note_off,3,0,0,,10,,,45,127
133257,note_on,2,0,0,,2,,,38,127
133257,note_on,0,0,0,,2,,,50,127
133257,note_on,0,0,0,,10,,,57,127
133577,note_on,320,0,0,,2,,,62,127
133577,note_on,0,0,0,,6,,,66,127
134215,note_off,638,0,0,,6,,,66,127
134215,note_off,0,0,0,,2,,,62,127
134217,note_on,2,0,0,,0,,,60,127
134217,note_on,0,0,0,,7,,,67,127
134375,note_off,158,0,0,,0,,,60,127
134377,note_on,2,0,0,,11,,,58,127
134532,note_off,155,0,0,,10,,,57,127
134535,note_off,3,0,0,,11,,,58,127
134537,note_on,2,0,0,,10,,,57,127
134855,note_off,318,0,0,,7,,,67,127
134857,note_on,2,0,0,,2,,,62,127
134857,note_on,0,0,0,,6,,,66,127
135015,note_off,158,0,0,,6,,,66,127
135017,note_on,2,0,0,,4,,,64,127
135175,note_off,158,0,0,,4,,,64,127
135177,note_on,2,0,0,,6,,,66,127
135495,note_off,318,0,0,,6,,,66,127
135495,note_off,0,0,0,,2,,,62,127
135497,note_on,2,0,0,,4,,,64,127
135497,note_on,0,0,0,,7,,,67,127
135805,note_off,308,0,0,,2,,,50,127
135805,note_off,0,0,0,,2,,,38,127
135812,note_off,7,0,0,,10,,,57,127
135815,note_off,3,0,0,,7,,,67,127
135815,note_off,0,0,0,,4,,,64,127
135817,note_on,2,0,0,,2,,,62,127
135817,note_on,0,0,0,,10,,,69,127
135817,note_on,0,0,0,,6,,,66,127
135817,note_on,0,0,0,,2,,,38,127
135817,note_on,0,0,0,,2,,,50,127
136134,note_off,317,0,0,,6,,,66,127
136136,note_off,2,0,0,,10,,,69,127
136138,note_on,2,0,0,,11,,,70,127
136138,note_on,0,0,0,,7,,,67,127
136455,note_off,317,0,0,,2,,,62,127
136458,note_on,3,0,0,,2,,,62,127
136776,note_off,318,0,0,,7,,,67,127
136776,note_off,0,0,0,,11,,,70,127
136778,note_on,2,0,0,,0,,,72,127
136778,note_on,0,0,0,,10,,,69,127
137096,note_off,318,0,0,,2,,,62,127
137098,note_on,2,0,0,,2,,,62,127
137416,note_off,318,0,0,,10,,,69,127
137416,note_off,0,0,0,,0,,,72,127
137418,note_on,2,0,0,,11,,,70,127
137418,note_on,0,0,0,,7,,,67,127
137576,note_off,158,0,0,,7,,,67,127
137576,note_off,0,0,0,,11,,,70,127
137578,note_on,2,0,0,,10,,,69,127
137578,note_on,0,0,0,,6,,,66,127
137736,note_off,158,0,0,,6,,,66,127
137736,note_off,0,0,0,,10,,,69,127
137736,note_off,0,0,0,,2,,,62,127
137738,note_on,2,0,0,,2,,,62,127
137738,note_on,0,0,0,,11,,,70,127
137738,note_on,0,0,0,,7,,,67,127
138056,note_off,318,0,0,,7,,,67,127
138056,note_off,0,0,0,,11,,,70,127
138058,note_on,2,0,0,,1,,,73,127
138058,note_on,0,0,0,,6,,,66,127
138216,note_off,158,0,0,,6,,,66,127
138218,note_on,2,0,0,,4,,,64,127
138376,note_off,158,0,0,,4,,,64,127
138376,note_off,0,0,0,,1,,,73,127
138376,note_off,0,0,0,,2,,,62,127
138378,note_on,2,0,0,,6,,,66,127
138378,note_on,0,0,0,,2,,,74,127
138378,note_on,0,0,0,,10,,,69,127
140923,note_off,2545,0,0,,2,,,50,127
140923,note_off,0,0,0,,2,,,38,127
140935,note_off,12,0,0,,10,,,69,127
140935,note_off,0,0,0,,2,,,74,127
140935,note_off,0,0,0,,6,,,66,127
142848,end_of_track,1913,1,0,,,,,,
