tick,type,time,meta,track,program,channel,pitch,tempo,note,velocity
0,copyright,0,1,0,,,,,,
0,program_change,0,0,0,6,0,,,,
0,pitchwheel,0,0,0,,0,0,,,
0,program_change,0,0,0,6,1,,,,
0,pitchwheel,0,0,0,,1,-590,,,
0,program_change,0,0,0,6,2,,,,
0,pitchwheel,0,0,0,,2,-272,,,
0,program_change,0,0,0,6,3,,,,
0,pitchwheel,0,0,0,,3,-353,,,
0,program_change,0,0,0,6,4,,,,
0,pitchwheel,0,0,0,,4,-560,,,
0,program_change,0,0,0,6,5,,,,
0,pitchwheel,0,0,0,,5,-80,,,
0,program_change,0,0,0,6,6,,,,
0,pitchwheel,0,0,0,,6,-625,,,
0,program_change,0,0,0,6,7,,,,
0,pitchwheel,0,0,0,,7,-130,,,
0,program_change,0,0,0,6,8,,,,
0,pitchwheel,0,0,0,,8,-512,,,
0,program_change,0,0,0,6,10,,,,
0,pitchwheel,0,0,0,,10,-464,,,
0,program_change,0,0,0,6,11,,,,
0,pitchwheel,0,0,0,,11,-208,,,
0,program_change,0,0,0,6,12,,,,
0,pitchwheel,0,0,0,,12,-553,,,
0,set_tempo,0,1,0,,,,500000,,
96,note_on,96,0,0,,2,,,38,127
96,note_on,0,0,0,,2,,,74,127
288,note_on,192,0,0,,2,,,62,127
476,note_off,188,0,0,,2,,,74,127
479,note_off,3,0,0,,2,,,62,127
480,note_on,1,0,0,,7,,,67,127
527,note_off,47,0,0,,7,,,67,127
528,note_on,1,0,0,,6,,,66,127
575,note_off,47,0,0,,6,,,66,127
576,note_on,1,0,0,,7,,,67,127
623,note_off,47,0,0,,7,,,67,127
624,note_on,1,0,0,,6,,,66,127
671,note_off,47,0,0,,6,,,66,127
672,note_on,1,0,0,,4,,,64,127
767,note_off,95,0,0,,4,,,64,127
768,note_on,1,0,0,,2,,,62,127
863,note_off,95,0,0,,2,,,62,127
863,note_off,0,0,0,,2,,,38,127
864,note_on,1,0,0,,2,,,38,127
864,note_on,0,0,0,,6,,,78,127
864,note_on,0,0,0,,2,,,74,127
1055,note_off,191,0,0,,6,,,78,127
1056,note_on,1,0,0,,2,,,62,127
1152,note_off,96,0,0,,2,,,74,127
1247,note_off,95,0,0,,2,,,62,127
1248,note_on,1,0,0,,7,,,67,127
1295,note_off,47,0,0,,7,,,67,127
1296,note_on,1,0,0,,6,,,66,127
1343,note_off,47,0,0,,6,,,66,127
1344,note_on,1,0,0,,7,,,67,127
1391,note_off,47,0,0,,7,,,67,127
1392,note_on,1,0,0,,6,,,66,127
1439,note_off,47,0,0,,6,,,66,127
1440,note_on,1,0,0,,4,,,64,127
1535,note_off,95,0,0,,4,,,64,127
1536,note_on,1,0,0,,2,,,62,127
1631,note_off,95,0,0,,2,,,62,127
1631,note_off,0,0,0,,2,,,38,127
1632,note_on,1,0,0,,2,,,38,127
1632,note_on,0,0,0,,10,,,81,127
1632,note_on,0,0,0,,6,,,78,127
1823,note_off,191,0,0,,6,,,78,127
1823,note_off,0,0,0,,10,,,81,127
1824,note_on,1,0,0,,2,,,62,127
2015,note_off,191,0,0,,2,,,62,127
2016,note_on,1,0,0,,7,,,67,127
2063,note_off,47,0,0,,7,,,67,127
2064,note_on,1,0,0,,6,,,66,127
2111,note_off,47,0,0,,6,,,66,127
2112,note_on,1,0,0,,7,,,67,127
2159,note_off,47,0,0,,7,,,67,127
2160,note_on,1,0,0,,6,,,66,127
2207,note_off,47,0,0,,6,,,66,127
2208,note_on,1,0,0,,4,,,64,127
2303,note_off,95,0,0,,4,,,64,127
2304,note_on,1,0,0,,2,,,62,127
2399,note_off,95,0,0,,2,,,62,127
2399,note_off,0,0,0,,2,,,38,127
2400,note_on,1,0,0,,7,,,43,127
2400,note_on,0,0,0,,2,,,74,127
2400,note_on,0,0,0,,12,,,83,127
2591,note_off,191,0,0,,12,,,83,127
2592,note_on,1,0,0,,10,,,81,127
2687,note_off,95,0,0,,10,,,81,127
2688,note_on,1,0,0,,7,,,79,127
2783,note_off,95,0,0,,7,,,79,127
2783,note_off,0,0,0,,2,,,74,127
2783,note_off,0,0,0,,7,,,43,127
2784,note_on,1,0,0,,10,,,45,127
2784,note_on,0,0,0,,6,,,78,127
2879,note_off,95,0,0,,6,,,78,127
2880,note_on,1,0,0,,4,,,76,127
2975,note_off,95,0,0,,4,,,76,127
2976,note_on,1,0,0,,2,,,74,127
3071,note_off,95,0,0,,2,,,74,127
3072,note_on,1,0,0,,1,,,73,127
3167,note_off,95,0,0,,1,,,73,127
3167,note_off,0,0,0,,10,,,45,127
3168,note_on,1,0,0,,2,,,38,127
3168,note_on,0,0,0,,2,,,74,127
3360,note_on,192,0,0,,2,,,62,127
3548,note_off,188,0,0,,2,,,74,127
3551,note_off,3,0,0,,2,,,62,127
3552,note_on,1,0,0,,7,,,67,127
3599,note_off,47,0,0,,7,,,67,127
3600,note_on,1,0,0,,6,,,66,127
3647,note_off,47,0,0,,6,,,66,127
3648,note_on,1,0,0,,7,,,67,127
3695,note_off,47,0,0,,7,,,67,127
3696,note_on,1,0,0,,6,,,66,127
3743,note_off,47,0,0,,6,,,66,127
3744,note_on,1,0,0,,4,,,64,127
3839,note_off,95,0,0,,4,,,64,127
3840,note_on,1,0,0,,2,,,62,127
3935,note_off,95,0,0,,2,,,62,127
3935,note_off,0,0,0,,2,,,38,127
3936,note_on,1,0,0,,2,,,38,127
3936,note_on,0,0,0,,2,,,74,127
3936,note_on,0,0,0,,6,,,78,127
4127,note_off,191,0,0,,6,,,78,127
4128,note_on,1,0,0,,2,,,62,127
4224,note_off,96,0,0,,2,,,74,127
4319,note_off,95,0,0,,2,,,62,127
4320,note_on,1,0,0,,7,,,67,127
4367,note_off,47,0,0,,7,,,67,127
4368,note_on,1,0,0,,6,,,66,127
4415,note_off,47,0,0,,6,,,66,127
4416,note_on,1,0,0,,7,,,67,127
4463,note_off,47,0,0,,7,,,67,127
4464,note_on,1,0,0,,6,,,66,127
4511,note_off,47,0,0,,6,,,66,127
4512,note_on,1,0,0,,4,,,64,127
4607,note_off,95,0,0,,4,,,64,127
4608,note_on,1,0,0,,2,,,62,127
4703,note_off,95,0,0,,2,,,62,127
4703,note_off,0,0,0,,2,,,38,127
4704,note_on,1,0,0,,2,,,38,127
4704,note_on,0,0,0,,10,,,81,127
4704,note_on,0,0,0,,6,,,78,127
4895,note_off,191,0,0,,6,,,78,127
4895,note_off,0,0,0,,10,,,81,127
4896,note_on,1,0,0,,2,,,62,127
5087,note_off,191,0,0,,2,,,62,127
5088,note_on,1,0,0,,7,,,67,127
5135,note_off,47,0,0,,7,,,67,127
5136,note_on,1,0,0,,6,,,66,127
5183,note_off,47,0,0,,6,,,66,127
5184,note_on,1,0,0,,7,,,67,127
5231,note_off,47,0,0,,7,,,67,127
5232,note_on,1,0,0,,6,,,66,127
5279,note_off,47,0,0,,6,,,66,127
5280,note_on,1,0,0,,4,,,64,127
5375,note_off,95,0,0,,4,,,64,127
5376,note_on,1,0,0,,2,,,62,127
5471,note_off,95,0,0,,2,,,62,127
5471,note_off,0,0,0,,2,,,38,127
5472,note_on,1,0,0,,7,,,43,127
5472,note_on,0,0,0,,12,,,83,127
5472,note_on,0,0,0,,2,,,74,127
5663,note_off,191,0,0,,12,,,83,127
5664,note_on,1,0,0,,10,,,81,127
5759,note_off,95,0,0,,10,,,81,127
5760,note_on,1,0,0,,7,,,79,127
5855,note_off,95,0,0,,7,,,79,127
5855,note_off,0,0,0,,2,,,74,127
5855,note_off,0,0,0,,7,,,43,127
5856,note_on,1,0,0,,10,,,45,127
5856,note_on,0,0,0,,6,,,78,127
5951,note_off,95,0,0,,6,,,78,127
5952,note_on,1,0,0,,4,,,76,127
6047,note_off,95,0,0,,4,,,76,127
6048,note_on,1,0,0,,2,,,74,127
6143,note_off,95,0,0,,2,,,74,127
6144,note_on,1,0,0,,1,,,73,127
6239,note_off,95,0,0,,1,,,73,127
6239,note_off,0,0,0,,10,,,45,127
6240,note_on,1,0,0,,2,,,74,127
6336,note_on,96,0,0,,2,,,50,127
6431,note_off,95,0,0,,2,,,50,127
6432,note_on,1,0,0,,6,,,54,127
6527,note_off,95,0,0,,6,,,54,127
6528,note_on,1,0,0,,10,,,57,127
6623,note_off,95,0,0,,10,,,57,127
6623,note_off,0,0,0,,2,,,74,127
6624,note_on,1,0,0,,2,,,62,127
6624,note_on,0,0,0,,10,,,81,127
6719,note_off,95,0,0,,2,,,62,127
6720,note_on,1,0,0,,6,,,66,127
6815,note_off,95,0,0,,6,,,66,127
6816,note_on,1,0,0,,10,,,69,127
6911,note_off,95,0,0,,10,,,69,127
6912,note_on,1,0,0,,2,,,74,127
7007,note_off,95,0,0,,2,,,74,127
7008,note_on,1,0,0,,10,,,45,127
7199,note_off,191,0,0,,10,,,81,127
7200,note_on,1,0,0,,7,,,79,127
7295,note_off,95,0,0,,7,,,79,127
7296,note_on,1,0,0,,6,,,78,127
7391,note_off,95,0,0,,6,,,78,127
7392,note_on,1,0,0,,4,,,76,127
7487,note_off,95,0,0,,4,,,76,127
7488,note_on,1,0,0,,2,,,74,127
7583,note_off,95,0,0,,2,,,74,127
7584,note_on,1,0,0,,1,,,73,127
7680,note_on,96,0,0,,7,,,79,127
7704,note_off,24,0,0,,1,,,73,127
7775,note_off,71,0,0,,7,,,79,127
7775,note_off,0,0,0,,10,,,45,127
7776,note_on,1,0,0,,6,,,78,127
7872,note_on,96,0,0,,2,,,50,127
7967,note_off,95,0,0,,2,,,50,127
7968,note_on,1,0,0,,6,,,54,127
8063,note_off,95,0,0,,6,,,54,127
8064,note_on,1,0,0,,10,,,57,127
8159,note_off,95,0,0,,10,,,57,127
8159,note_off,0,0,0,,6,,,78,127
8160,note_on,1,0,0,,2,,,62,127
8160,note_on,0,0,0,,10,,,81,127
8255,note_off,95,0,0,,2,,,62,127
8256,note_on,1,0,0,,6,,,66,127
8351,note_off,95,0,0,,6,,,66,127
8352,note_on,1,0,0,,10,,,69,127
8447,note_off,95,0,0,,10,,,69,127
8448,note_on,1,0,0,,2,,,74,127
8543,note_off,95,0,0,,2,,,74,127
8544,note_on,1,0,0,,10,,,45,127
8736,note_on,192,0,0,,7,,,79,127
8831,note_off,95,0,0,,7,,,79,127
8832,note_on,1,0,0,,6,,,78,127
8927,note_off,95,0,0,,6,,,78,127
8928,note_on,1,0,0,,4,,,76,127
9023,note_off,95,0,0,,4,,,76,127
9024,note_on,1,0,0,,2,,,74,127
9119,note_off,95,0,0,,2,,,74,127
9119,note_off,0,0,0,,10,,,81,127
9120,note_on,1,0,0,,4,,,76,127
9120,note_on,0,0,0,,7,,,79,127
9215,note_off,95,0,0,,4,,,76,127
9216,note_on,1,0,0,,1,,,73,127
9311,note_off,95,0,0,,1,,,73,127
9311,note_off,0,0,0,,7,,,79,127
9311,note_off,0,0,0,,10,,,45,127
9312,note_on,1,0,0,,2,,,74,127
9312,note_on,0,0,0,,6,,,78,127
9408,note_on,96,0,0,,2,,,50,127
9503,note_off,95,0,0,,2,,,50,127
9504,note_on,1,0,0,,6,,,54,127
9599,note_off,95,0,0,,6,,,54,127
9600,note_on,1,0,0,,10,,,57,127
9695,note_off,95,0,0,,10,,,57,127
9695,note_off,0,0,0,,6,,,78,127
9695,note_off,0,0,0,,2,,,74,127
9696,note_on,1,0,0,,2,,,62,127
9696,note_on,0,0,0,,10,,,81,127
9791,note_off,95,0,0,,2,,,62,127
9792,note_on,1,0,0,,6,,,66,127
9887,note_off,95,0,0,,6,,,66,127
9888,note_on,1,0,0,,10,,,69,127
9983,note_off,95,0,0,,10,,,69,127
9984,note_on,1,0,0,,2,,,74,127
10079,note_off,95,0,0,,2,,,74,127
10080,note_on,1,0,0,,4,,,40,127
10272,note_on,192,0,0,,8,,,80,127
10367,note_off,95,0,0,,8,,,80,127
10368,note_on,1,0,0,,6,,,78,127
10463,note_off,95,0,0,,6,,,78,127
10464,note_on,1,0,0,,4,,,76,127
10559,note_off,95,0,0,,4,,,76,127
10560,note_on,1,0,0,,2,,,74,127
10655,note_off,95,0,0,,2,,,74,127
10655,note_off,0,0,0,,10,,,81,127
10656,note_on,1,0,0,,1,,,73,127
10656,note_on,0,0,0,,8,,,80,127
10751,note_off,95,0,0,,1,,,73,127
10752,note_on,1,0,0,,12,,,71,127
10847,note_off,95,0,0,,12,,,71,127
10847,note_off,0,0,0,,8,,,80,127
10847,note_off,0,0,0,,4,,,40,127
10848,note_on,1,0,0,,1,,,73,127
10848,note_on,0,0,0,,10,,,81,127
10944,note_on,96,0,0,,10,,,45,127
11039,note_off,95,0,0,,10,,,45,127
11040,note_on,1,0,0,,1,,,49,127
11135,note_off,95,0,0,,1,,,49,127
11136,note_on,1,0,0,,4,,,52,127
11231,note_off,95,0,0,,4,,,52,127
11231,note_off,0,0,0,,10,,,81,127
11231,note_off,0,0,0,,1,,,73,127
11232,note_on,1,0,0,,10,,,57,127
11232,note_on,0,0,0,,4,,,76,127
11327,note_off,95,0,0,,10,,,57,127
11328,note_on,1,0,0,,1,,,61,127
11423,note_off,95,0,0,,1,,,61,127
11424,note_on,1,0,0,,4,,,64,127
11519,note_off,95,0,0,,4,,,64,127
11520,note_on,1,0,0,,10,,,69,127
11615,note_off,95,0,0,,10,,,69,127
11616,note_on,1,0,0,,4,,,40,127
11711,note_off,95,0,0,,4,,,76,127
11712,note_on,1,0,0,,6,,,78,127
11807,note_off,95,0,0,,6,,,78,127
11808,note_on,1,0,0,,4,,,76,127
11903,note_off,95,0,0,,4,,,76,127
11904,note_on,1,0,0,,2,,,74,127
11999,note_off,95,0,0,,2,,,74,127
12000,note_on,1,0,0,,1,,,73,127
12095,note_off,95,0,0,,1,,,73,127
12096,note_on,1,0,0,,12,,,71,127
12191,note_off,95,0,0,,12,,,71,127
12192,note_on,1,0,0,,10,,,69,127
12287,note_off,95,0,0,,10,,,69,127
12288,note_on,1,0,0,,8,,,68,127
12383,note_off,95,0,0,,8,,,68,127
12383,note_off,0,0,0,,4,,,40,127
12384,note_on,1,0,0,,10,,,69,127
12480,note_on,96,0,0,,10,,,45,127
12575,note_off,95,0,0,,10,,,45,127
12576,note_on,1,0,0,,1,,,49,127
12671,note_off,95,0,0,,1,,,49,127
12672,note_on,1,0,0,,4,,,52,127
12767,note_off,95,0,0,,4,,,52,127
12768,note_on,1,0,0,,10,,,57,127
12768,note_on,0,0,0,,10,,,81,127
12863,note_off,95,0,0,,10,,,57,127
12864,note_off,1,0,0,,10,,,69,127
12864,note_on,0,0,0,,1,,,61,127
12959,note_off,95,0,0,,1,,,61,127
12960,note_on,1,0,0,,4,,,64,127
13055,note_off,95,0,0,,4,,,64,127
13056,note_on,1,0,0,,10,,,69,127
13151,note_off,95,0,0,,10,,,69,127
13152,note_on,1,0,0,,4,,,40,127
13344,note_on,192,0,0,,8,,,80,127
13439,note_off,95,0,0,,8,,,80,127
13440,note_on,1,0,0,,6,,,78,127
13535,note_off,95,0,0,,6,,,78,127
13535,note_off,0,0,0,,10,,,81,127
13536,note_on,1,0,0,,4,,,76,127
13536,note_on,0,0,0,,8,,,80,127
13631,note_off,95,0,0,,4,,,76,127
13632,note_on,1,0,0,,2,,,74,127
13727,note_off,95,0,0,,2,,,74,127
13728,note_on,1,0,0,,1,,,73,127
13823,note_off,95,0,0,,1,,,73,127
13824,note_on,1,0,0,,12,,,71,127
13919,note_off,95,0,0,,12,,,71,127
13919,note_off,0,0,0,,8,,,80,127
13919,note_off,0,0,0,,4,,,40,127
13920,note_on,1,0,0,,1,,,73,127
13920,note_on,0,0,0,,10,,,81,127
14016,note_on,96,0,0,,10,,,45,127
14111,note_off,95,0,0,,10,,,45,127
14112,note_on,1,0,0,,1,,,49,127
14207,note_off,95,0,0,,1,,,49,127
14208,note_off,1,0,0,,10,,,81,127
14208,note_off,0,0,0,,1,,,73,127
14208,note_on,0,0,0,,4,,,52,127
14303,note_off,95,0,0,,4,,,52,127
14304,note_on,1,0,0,,10,,,57,127
14400,note_on,96,0,0,,1,,,73,127
14495,note_off,95,0,0,,1,,,73,127
14496,note_on,1,0,0,,10,,,69,127
14591,note_off,95,0,0,,10,,,69,127
14592,note_on,1,0,0,,4,,,64,127
14687,note_off,95,0,0,,4,,,64,127
14688,note_on,1,0,0,,6,,,66,127
14783,note_off,95,0,0,,10,,,57,127
14784,note_on,1,0,0,,2,,,62,127
14879,note_off,95,0,0,,2,,,62,127
14879,note_off,0,0,0,,6,,,66,127
14880,note_on,1,0,0,,6,,,66,127
14976,note_on,96,0,0,,10,,,69,127
15071,note_off,95,0,0,,10,,,69,127
15071,note_off,0,0,0,,6,,,66,127
15072,note_on,1,0,0,,4,,,64,127
15168,note_on,96,0,0,,2,,,74,127
15263,note_off,95,0,0,,2,,,74,127
15264,note_on,1,0,0,,12,,,71,127
15359,note_off,95,0,0,,12,,,71,127
15360,note_on,1,0,0,,8,,,68,127
15455,note_off,95,0,0,,8,,,68,127
15456,note_on,1,0,0,,10,,,69,127
15551,note_off,95,0,0,,10,,,69,127
15551,note_off,0,0,0,,4,,,64,127
15552,note_on,1,0,0,,10,,,57,127
15647,note_off,95,0,0,,10,,,57,127
15648,note_on,1,0,0,,1,,,61,127
15743,note_off,95,0,0,,1,,,61,127
15744,note_on,1,0,0,,4,,,64,127
15839,note_off,95,0,0,,4,,,64,127
15840,note_on,1,0,0,,10,,,69,127
15936,note_on,96,0,0,,1,,,73,127
16031,note_off,95,0,0,,1,,,73,127
16031,note_off,0,0,0,,10,,,69,127
16032,note_on,1,0,0,,10,,,69,127
16128,note_on,96,0,0,,4,,,64,127
16223,note_off,95,0,0,,4,,,64,127
16223,note_off,0,0,0,,10,,,69,127
16224,note_on,1,0,0,,6,,,66,127
16320,note_on,96,0,0,,2,,,62,127
16415,note_off,95,0,0,,2,,,62,127
16415,note_off,0,0,0,,6,,,66,127
16416,note_on,1,0,0,,6,,,66,127
16512,note_on,96,0,0,,10,,,69,127
16607,note_off,95,0,0,,10,,,69,127
16607,note_off,0,0,0,,6,,,66,127
16608,note_on,1,0,0,,4,,,64,127
16704,note_on,96,0,0,,2,,,74,127
16799,note_off,95,0,0,,2,,,74,127
16800,note_on,1,0,0,,12,,,71,127
16895,note_off,95,0,0,,12,,,71,127
16896,note_on,1,0,0,,8,,,68,127
16991,note_off,95,0,0,,8,,,68,127
16991,note_off,0,0,0,,4,,,64,127
16992,note_on,1,0,0,,10,,,57,127
16992,note_on,0,0,0,,10,,,69,127
17088,note_on,96,0,0,,4,,,64,127
17182,note_off,94,0,0,,10,,,69,127
17183,note_off,1,0,0,,4,,,64,127
17184,note_on,1,0,0,,10,,,69,127
17279,note_off,95,0,0,,10,,,69,127
17280,note_on,1,0,0,,12,,,71,127
17375,note_off,95,0,0,,12,,,71,127
17375,note_off,0,0,0,,10,,,57,127
17376,note_on,1,0,0,,4,,,76,127
17376,note_on,0,0,0,,0,,,72,127
17472,note_on,96,0,0,,10,,,69,127
17496,note_off,24,0,0,,0,,,72,127
17568,note_on,72,0,0,,4,,,64,127
17592,note_off,24,0,0,,10,,,69,127
17664,note_on,72,0,0,,0,,,72,127
17688,note_off,24,0,0,,4,,,64,127
17759,note_off,71,0,0,,4,,,76,127
17760,note_on,1,0,0,,5,,,77,127
17760,note_on,0,0,0,,12,,,71,127
17784,note_off,24,0,0,,0,,,72,127
17856,note_on,72,0,0,,5,,,65,127
17880,note_off,24,0,0,,12,,,71,127
17952,note_on,72,0,0,,2,,,62,127
17976,note_off,24,0,0,,5,,,65,127
18048,note_on,72,0,0,,5,,,65,127
18072,note_off,24,0,0,,2,,,62,127
18143,note_off,71,0,0,,5,,,77,127
18144,note_on,1,0,0,,2,,,50,127
18144,note_on,0,0,0,,8,,,68,127
18168,note_off,24,0,0,,5,,,65,127
18240,note_on,72,0,0,,5,,,65,127
18264,note_off,24,0,0,,8,,,68,127
18336,note_on,72,0,0,,2,,,62,127
18360,note_off,24,0,0,,5,,,65,127
18432,note_on,72,0,0,,5,,,65,127
18456,note_off,24,0,0,,2,,,62,127
18527,note_off,71,0,0,,2,,,50,127
18528,note_on,1,0,0,,0,,,48,127
18528,note_on,0,0,0,,10,,,69,127
18552,note_off,24,0,0,,5,,,65,127
18624,note_on,72,0,0,,4,,,64,127
18648,note_off,24,0,0,,10,,,69,127
18720,note_on,72,0,0,,0,,,60,127
18744,note_off,24,0,0,,4,,,64,127
18816,note_on,72,0,0,,4,,,64,127
18840,note_off,24,0,0,,0,,,60,127
18911,note_off,71,0,0,,0,,,48,127
18912,note_on,1,0,0,,4,,,76,127
18912,note_on,0,0,0,,0,,,72,127
18936,note_off,24,0,0,,4,,,64,127
19008,note_on,72,0,0,,10,,,69,127
19032,note_off,24,0,0,,0,,,72,127
19104,note_on,72,0,0,,4,,,64,127
19128,note_off,24,0,0,,10,,,69,127
19200,note_on,72,0,0,,10,,,69,127
19224,note_off,24,0,0,,4,,,64,127
19295,note_off,71,0,0,,4,,,76,127
19296,note_on,1,0,0,,5,,,77,127
19296,note_on,0,0,0,,12,,,71,127
19320,note_off,24,0,0,,10,,,69,127
19392,note_on,72,0,0,,5,,,65,127
19416,note_off,24,0,0,,12,,,71,127
19488,note_on,72,0,0,,2,,,62,127
19512,note_off,24,0,0,,5,,,65,127
19584,note_on,72,0,0,,5,,,65,127
19608,note_off,24,0,0,,2,,,62,127
19679,note_off,71,0,0,,5,,,77,127
19680,note_on,1,0,0,,2,,,50,127
19680,note_on,0,0,0,,8,,,68,127
19704,note_off,24,0,0,,5,,,65,127
19776,note_on,72,0,0,,5,,,65,127
19800,note_off,24,0,0,,8,,,68,127
19872,note_on,72,0,0,,2,,,62,127
19896,note_off,24,0,0,,5,,,65,127
19968,note_on,72,0,0,,5,,,65,127
19992,note_off,24,0,0,,2,,,62,127
20063,note_off,71,0,0,,2,,,50,127
20064,note_on,1,0,0,,0,,,48,127
20064,note_on,0,0,0,,10,,,69,127
20088,note_off,24,0,0,,5,,,65,127
20160,note_on,72,0,0,,4,,,64,127
20184,note_off,24,0,0,,10,,,69,127
20256,note_on,72,0,0,,0,,,60,127
20280,note_off,24,0,0,,4,,,64,127
20352,note_on,72,0,0,,4,,,64,127
20376,note_off,24,0,0,,0,,,60,127
20447,note_off,71,0,0,,0,,,48,127
20448,note_on,1,0,0,,10,,,81,127
20448,note_on,0,0,0,,0,,,72,127
20472,note_off,24,0,0,,4,,,64,127
20544,note_on,72,0,0,,10,,,69,127
20568,note_off,24,0,0,,0,,,72,127
20640,note_on,72,0,0,,4,,,64,127
20664,note_off,24,0,0,,10,,,69,127
20736,note_on,72,0,0,,10,,,69,127
20760,note_off,24,0,0,,4,,,64,127
20831,note_off,71,0,0,,10,,,81,127
20832,note_on,1,0,0,,8,,,80,127
20832,note_on,0,0,0,,12,,,71,127
20856,note_off,24,0,0,,10,,,69,127
20928,note_on,72,0,0,,8,,,68,127
20952,note_off,24,0,0,,12,,,71,127
21024,note_on,72,0,0,,2,,,62,127
21048,note_off,24,0,0,,8,,,68,127
21120,note_on,72,0,0,,8,,,68,127
21144,note_off,24,0,0,,2,,,62,127
21215,note_off,71,0,0,,8,,,80,127
21216,note_on,1,0,0,,12,,,47,127
21216,note_on,0,0,0,,2,,,74,127
21240,note_off,24,0,0,,8,,,68,127
21312,note_on,72,0,0,,8,,,68,127
21336,note_off,24,0,0,,2,,,74,127
21408,note_on,72,0,0,,4,,,64,127
21432,note_off,24,0,0,,8,,,68,127
21504,note_on,72,0,0,,8,,,68,127
21528,note_off,24,0,0,,4,,,64,127
21599,note_off,71,0,0,,12,,,47,127
21600,note_on,1,0,0,,10,,,45,127
21600,note_on,0,0,0,,0,,,72,127
21624,note_off,24,0,0,,8,,,68,127
21696,note_on,72,0,0,,10,,,69,127
21720,note_off,24,0,0,,0,,,72,127
21792,note_on,72,0,0,,4,,,64,127
21816,note_off,24,0,0,,10,,,69,127
21888,note_on,72,0,0,,10,,,69,127
21912,note_off,24,0,0,,4,,,64,127
21983,note_off,71,0,0,,10,,,45,127
21984,note_on,1,0,0,,10,,,81,127
21984,note_on,0,0,0,,0,,,72,127
22008,note_off,24,0,0,,10,,,69,127
22080,note_on,72,0,0,,10,,,69,127
22104,note_off,24,0,0,,0,,,72,127
22176,note_on,72,0,0,,4,,,64,127
22200,note_off,24,0,0,,10,,,69,127
22272,note_on,72,0,0,,10,,,69,127
22296,note_off,24,0,0,,4,,,64,127
22367,note_off,71,0,0,,10,,,81,127
22368,note_on,1,0,0,,8,,,80,127
22368,note_on,0,0,0,,12,,,71,127
22392,note_off,24,0,0,,10,,,69,127
22464,note_on,72,0,0,,8,,,68,127
22488,note_off,24,0,0,,12,,,71,127
22560,note_on,72,0,0,,2,,,62,127
22584,note_off,24,0,0,,8,,,68,127
22656,note_on,72,0,0,,8,,,68,127
22680,note_off,24,0,0,,2,,,62,127
22751,note_off,71,0,0,,8,,,80,127
22752,note_on,1,0,0,,12,,,47,127
22752,note_on,0,0,0,,2,,,74,127
22776,note_off,24,0,0,,8,,,68,127
22848,note_on,72,0,0,,8,,,68,127
22872,note_off,24,0,0,,2,,,74,127
22944,note_on,72,0,0,,4,,,64,127
22968,note_off,24,0,0,,8,,,68,127
23040,note_on,72,0,0,,8,,,68,127
23064,note_off,24,0,0,,4,,,64,127
23135,note_off,71,0,0,,12,,,47,127
23136,note_on,1,0,0,,10,,,45,127
23136,note_on,0,0,0,,0,,,72,127
23160,note_off,24,0,0,,8,,,68,127
23232,note_on,72,0,0,,10,,,69,127
23256,note_off,24,0,0,,0,,,72,127
23328,note_on,72,0,0,,4,,,64,127
23352,note_off,24,0,0,,10,,,69,127
23424,note_on,72,0,0,,10,,,69,127
23448,note_off,24,0,0,,4,,,64,127
23519,note_off,71,0,0,,10,,,45,127
23520,note_on,1,0,0,,10,,,81,127
23520,note_on,0,0,0,,4,,,76,127
23544,note_off,24,0,0,,10,,,69,127
23616,note_on,72,0,0,,10,,,69,127
23640,note_off,24,0,0,,4,,,76,127
23712,note_on,72,0,0,,4,,,64,127
23736,note_off,24,0,0,,10,,,69,127
23808,note_on,72,0,0,,4,,,76,127
23832,note_off,24,0,0,,4,,,64,127
23900,note_off,68,0,0,,4,,,76,127
23903,note_off,3,0,0,,10,,,81,127
23904,note_on,1,0,0,,2,,,50,127
23904,note_on,0,0,0,,4,,,76,127
24000,note_on,96,0,0,,10,,,69,127
24024,note_off,24,0,0,,4,,,76,127
24096,note_on,72,0,0,,5,,,65,127
24120,note_off,24,0,0,,10,,,69,127
24192,note_on,72,0,0,,10,,,69,127
24216,note_off,24,0,0,,5,,,65,127
24287,note_off,71,0,0,,2,,,50,127
24288,note_on,1,0,0,,12,,,83,127
24288,note_on,0,0,0,,2,,,74,127
24312,note_off,24,0,0,,10,,,69,127
24384,note_on,72,0,0,,12,,,71,127
24408,note_off,24,0,0,,2,,,74,127
24480,note_on,72,0,0,,5,,,65,127
24504,note_off,24,0,0,,12,,,71,127
24576,note_on,72,0,0,,12,,,71,127
24600,note_off,24,0,0,,5,,,65,127
24671,note_off,71,0,0,,12,,,83,127
24672,note_on,1,0,0,,4,,,52,127
24672,note_on,0,0,0,,2,,,74,127
24696,note_off,24,0,0,,12,,,71,127
24768,note_on,72,0,0,,12,,,71,127
24792,note_off,24,0,0,,2,,,74,127
24864,note_on,72,0,0,,4,,,64,127
24888,note_off,24,0,0,,12,,,71,127
24960,note_on,72,0,0,,12,,,71,127
24984,note_off,24,0,0,,4,,,64,127
25055,note_off,71,0,0,,4,,,52,127
25056,note_on,1,0,0,,12,,,83,127
25056,note_on,0,0,0,,2,,,74,127
25080,note_off,24,0,0,,12,,,71,127
25152,note_on,72,0,0,,12,,,71,127
25176,note_off,24,0,0,,2,,,74,127
25248,note_on,72,0,0,,4,,,64,127
25272,note_off,24,0,0,,12,,,71,127
25344,note_on,72,0,0,,12,,,71,127
25368,note_off,24,0,0,,4,,,64,127
25438,note_off,70,0,0,,12,,,71,127
25439,note_off,1,0,0,,12,,,83,127
25440,note_on,1,0,0,,8,,,44,127
25440,note_on,0,0,0,,2,,,74,127
25536,note_on,96,0,0,,12,,,71,127
25560,note_off,24,0,0,,2,,,74,127
25632,note_on,72,0,0,,4,,,64,127
25656,note_off,24,0,0,,12,,,71,127
25728,note_on,72,0,0,,12,,,71,127
25752,note_off,24,0,0,,4,,,64,127
25823,note_off,71,0,0,,8,,,44,127
25824,note_on,1,0,0,,4,,,40,127
25824,note_on,0,0,0,,2,,,74,127
25848,note_off,24,0,0,,12,,,71,127
25920,note_on,72,0,0,,12,,,71,127
25944,note_off,24,0,0,,2,,,74,127
26016,note_on,72,0,0,,4,,,64,127
26040,note_off,24,0,0,,12,,,71,127
26112,note_on,72,0,0,,12,,,71,127
26136,note_off,24,0,0,,4,,,64,127
26207,note_off,71,0,0,,4,,,40,127
26208,note_on,1,0,0,,10,,,45,127
26208,note_on,0,0,0,,1,,,73,127
26232,note_off,24,0,0,,12,,,71,127
26303,note_off,71,0,0,,1,,,73,127
26304,note_on,1,0,0,,10,,,69,127
26399,note_off,95,0,0,,10,,,69,127
26400,note_on,1,0,0,,6,,,78,127
26495,note_off,95,0,0,,6,,,78,127
26496,note_on,1,0,0,,2,,,74,127
26591,note_off,95,0,0,,2,,,74,127
26591,note_off,0,0,0,,10,,,45,127
26592,note_on,1,0,0,,2,,,50,127
26592,note_on,0,0,0,,4,,,76,127
26687,note_off,95,0,0,,4,,,76,127
26688,note_on,1,0,0,,1,,,73,127
26783,note_off,95,0,0,,1,,,73,127
26784,note_on,1,0,0,,2,,,74,127
26879,note_off,95,0,0,,2,,,74,127
26880,note_on,1,0,0,,12,,,71,127
26975,note_off,95,0,0,,12,,,71,127
26975,note_off,0,0,0,,2,,,50,127
26976,note_on,1,0,0,,4,,,52,127
26976,note_on,0,0,0,,1,,,73,127
27071,note_off,95,0,0,,1,,,73,127
27072,note_on,1,0,0,,2,,,74,127
27167,note_off,95,0,0,,2,,,74,127
27168,note_on,1,0,0,,4,,,76,127
27263,note_off,95,0,0,,4,,,76,127
27264,note_on,1,0,0,,2,,,74,127
27359,note_off,95,0,0,,2,,,74,127
27360,note_on,1,0,0,,4,,,40,127
27360,note_on,0,0,0,,1,,,73,127
27455,note_off,95,0,0,,1,,,73,127
27456,note_on,1,0,0,,12,,,71,127
27551,note_off,95,0,0,,12,,,71,127
27551,note_off,0,0,0,,4,,,52,127
27552,note_on,1,0,0,,10,,,69,127
27647,note_off,95,0,0,,10,,,69,127
27648,note_on,1,0,0,,8,,,68,127
27743,note_off,95,0,0,,8,,,68,127
27743,note_off,0,0,0,,4,,,40,127
27744,note_on,1,0,0,,10,,,45,127
27744,note_on,0,0,0,,10,,,69,127
27839,note_off,95,0,0,,10,,,69,127
27840,note_on,1,0,0,,8,,,68,127
27935,note_off,95,0,0,,8,,,68,127
27936,note_on,1,0,0,,6,,,66,127
28031,note_off,95,0,0,,6,,,66,127
28032,note_on,1,0,0,,4,,,64,127
28127,note_off,95,0,0,,4,,,64,127
28127,note_off,0,0,0,,10,,,45,127
28128,note_on,1,0,0,,2,,,50,127
28128,note_on,0,0,0,,2,,,62,127
28223,note_off,95,0,0,,2,,,62,127
28224,note_on,1,0,0,,1,,,61,127
28319,note_off,95,0,0,,1,,,61,127
28320,note_on,1,0,0,,12,,,59,127
28415,note_off,95,0,0,,12,,,59,127
28416,note_on,1,0,0,,10,,,57,127
28511,note_off,95,0,0,,10,,,57,127
28511,note_off,0,0,0,,2,,,50,127
28512,note_on,1,0,0,,4,,,52,127
28512,note_on,0,0,0,,1,,,61,127
28607,note_off,95,0,0,,1,,,61,127
28608,note_on,1,0,0,,2,,,62,127
28703,note_off,95,0,0,,2,,,62,127
28704,note_on,1,0,0,,4,,,64,127
28799,note_off,95,0,0,,4,,,64,127
28800,note_on,1,0,0,,2,,,62,127
28895,note_off,95,0,0,,2,,,62,127
28896,note_on,1,0,0,,4,,,40,127
28896,note_on,0,0,0,,1,,,61,127
28991,note_off,95,0,0,,1,,,61,127
28992,note_on,1,0,0,,12,,,59,127
29087,note_off,95,0,0,,12,,,59,127
29088,note_on,1,0,0,,10,,,57,127
29183,note_off,95,0,0,,10,,,57,127
29184,note_on,1,0,0,,8,,,56,127
29272,note_off,88,0,0,,4,,,52,127
29279,note_off,7,0,0,,8,,,56,127
29279,note_off,0,0,0,,4,,,40,127
29280,note_on,1,0,0,,10,,,45,127
29280,note_on,0,0,0,,10,,,57,127
29375,note_off,95,0,0,,10,,,57,127
29376,note_on,1,0,0,,1,,,61,127
29471,note_off,95,0,0,,1,,,61,127
29472,note_on,1,0,0,,4,,,64,127
29567,note_off,95,0,0,,4,,,64,127
29568,note_on,1,0,0,,10,,,69,127
29663,note_off,95,0,0,,10,,,69,127
29663,note_off,0,0,0,,10,,,45,127
29664,note_on,1,0,0,,10,,,45,127
29664,note_on,0,0,0,,1,,,61,127
29759,note_off,95,0,0,,1,,,61,127
29760,note_on,1,0,0,,4,,,64,127
29855,note_off,95,0,0,,4,,,64,127
29856,note_on,1,0,0,,10,,,69,127
29951,note_off,95,0,0,,10,,,69,127
29952,note_on,1,0,0,,1,,,73,127
30047,note_off,95,0,0,,1,,,73,127
30047,note_off,0,0,0,,10,,,45,127
30048,note_on,1,0,0,,10,,,45,127
30048,note_on,0,0,0,,4,,,64,127
30143,note_off,95,0,0,,4,,,64,127
30144,note_on,1,0,0,,10,,,69,127
30239,note_off,95,0,0,,10,,,69,127
30240,note_on,1,0,0,,1,,,73,127
30335,note_off,95,0,0,,1,,,73,127
30336,note_on,1,0,0,,4,,,76,127
30431,note_off,95,0,0,,4,,,76,127
30431,note_off,0,0,0,,10,,,45,127
30432,note_on,1,0,0,,10,,,45,127
30432,note_on,0,0,0,,10,,,69,127
30527,note_off,95,0,0,,10,,,69,127
30528,note_on,1,0,0,,1,,,73,127
30623,note_off,95,0,0,,1,,,73,127
30624,note_on,1,0,0,,4,,,76,127
30719,note_off,95,0,0,,4,,,76,127
30720,note_on,1,0,0,,10,,,81,127
30815,note_off,95,0,0,,10,,,81,127
30815,note_off,0,0,0,,10,,,45,127
30816,note_on,1,0,0,,10,,,45,127
30816,note_on,0,0,0,,12,,,71,127
30848,note_on,32,0,0,,10,,,69,127
30864,note_off,16,0,0,,12,,,71,127
30880,note_on,16,0,0,,12,,,71,127
30896,note_off,16,0,0,,10,,,69,127
30912,note_on,16,0,0,,10,,,69,127
30928,note_off,16,0,0,,12,,,71,127
31487,note_off,559,0,0,,10,,,69,127
31583,note_off,96,0,0,,10,,,45,127
31584,note_on,1,0,0,,10,,,45,127
31584,note_on,0,0,0,,10,,,69,127
31776,note_on,192,0,0,,10,,,57,127
31964,note_off,188,0,0,,10,,,69,127
31967,note_off,3,0,0,,10,,,57,127
31968,note_on,1,0,0,,2,,,62,127
32015,note_off,47,0,0,,2,,,62,127
32016,note_on,1,0,0,,1,,,61,127
32063,note_off,47,0,0,,1,,,61,127
32064,note_on,1,0,0,,2,,,62,127
32111,note_off,47,0,0,,2,,,62,127
32112,note_on,1,0,0,,1,,,61,127
32159,note_off,47,0,0,,1,,,61,127
32160,note_on,1,0,0,,12,,,59,127
32255,note_off,95,0,0,,12,,,59,127
32256,note_on,1,0,0,,10,,,57,127
32351,note_off,95,0,0,,10,,,57,127
32351,note_off,0,0,0,,10,,,45,127
32352,note_on,1,0,0,,10,,,45,127
32352,note_on,0,0,0,,10,,,69,127
32352,note_on,0,0,0,,1,,,73,127
32543,note_off,191,0,0,,1,,,73,127
32544,note_on,1,0,0,,10,,,57,127
32640,note_off,96,0,0,,10,,,69,127
32735,note_off,95,0,0,,10,,,57,127
32736,note_on,1,0,0,,2,,,62,127
32783,note_off,47,0,0,,2,,,62,127
32784,note_on,1,0,0,,1,,,61,127
32831,note_off,47,0,0,,1,,,61,127
32832,note_on,1,0,0,,2,,,62,127
32879,note_off,47,0,0,,2,,,62,127
32880,note_on,1,0,0,,1,,,61,127
32927,note_off,47,0,0,,1,,,61,127
32928,note_on,1,0,0,,12,,,59,127
33023,note_off,95,0,0,,12,,,59,127
33024,note_on,1,0,0,,10,,,57,127
33119,note_off,95,0,0,,10,,,57,127
33119,note_off,0,0,0,,10,,,45,127
33120,note_on,1,0,0,,10,,,45,127
33120,note_on,0,0,0,,1,,,73,127
33120,note_on,0,0,0,,4,,,76,127
33311,note_off,191,0,0,,4,,,76,127
33311,note_off,0,0,0,,1,,,73,127
33312,note_on,1,0,0,,10,,,57,127
33503,note_off,191,0,0,,10,,,57,127
33504,note_on,1,0,0,,2,,,62,127
33551,note_off,47,0,0,,2,,,62,127
33552,note_on,1,0,0,,1,,,61,127
33599,note_off,47,0,0,,1,,,61,127
33600,note_on,1,0,0,,2,,,62,127
33647,note_off,47,0,0,,2,,,62,127
33648,note_on,1,0,0,,1,,,61,127
33695,note_off,47,0,0,,1,,,61,127
33696,note_on,1,0,0,,12,,,59,127
33791,note_off,95,0,0,,12,,,59,127
33792,note_on,1,0,0,,10,,,57,127
33887,note_off,95,0,0,,10,,,57,127
33887,note_off,0,0,0,,10,,,45,127
33888,note_on,1,0,0,,2,,,50,127
33888,note_on,0,0,0,,2,,,38,127
33888,note_on,0,0,0,,6,,,78,127
33888,note_on,0,0,0,,10,,,69,127
34079,note_off,191,0,0,,6,,,78,127
34080,note_on,1,0,0,,4,,,76,127
34175,note_off,95,0,0,,4,,,76,127
34176,note_on,1,0,0,,2,,,74,127
34271,note_off,95,0,0,,2,,,74,127
34271,note_off,0,0,0,,10,,,69,127
34271,note_off,0,0,0,,2,,,38,127
34271,note_off,0,0,0,,2,,,50,127
34272,note_on,1,0,0,,4,,,52,127
34272,note_on,0,0,0,,4,,,40,127
34272,note_on,0,0,0,,1,,,73,127
34367,note_off,95,0,0,,1,,,73,127
34368,note_on,1,0,0,,12,,,71,127
34463,note_off,95,0,0,,12,,,71,127
34464,note_on,1,0,0,,10,,,69,127
34559,note_off,95,0,0,,10,,,69,127
34560,note_on,1,0,0,,8,,,68,127
34655,note_off,95,0,0,,8,,,68,127
34655,note_off,0,0,0,,4,,,40,127
34655,note_off,0,0,0,,4,,,52,127
34656,note_on,1,0,0,,10,,,45,127
34656,note_on,0,0,0,,10,,,69,127
34848,note_on,192,0,0,,10,,,57,127
35036,note_off,188,0,0,,10,,,69,127
35039,note_off,3,0,0,,10,,,57,127
35040,note_on,1,0,0,,2,,,62,127
35087,note_off,47,0,0,,2,,,62,127
35088,note_on,1,0,0,,1,,,61,127
35135,note_off,47,0,0,,1,,,61,127
35136,note_on,1,0,0,,2,,,62,127
35183,note_off,47,0,0,,2,,,62,127
35184,note_on,1,0,0,,1,,,61,127
35231,note_off,47,0,0,,1,,,61,127
35232,note_on,1,0,0,,12,,,59,127
35327,note_off,95,0,0,,12,,,59,127
35328,note_on,1,0,0,,10,,,57,127
35423,note_off,95,0,0,,10,,,57,127
35423,note_off,0,0,0,,10,,,45,127
35424,note_on,1,0,0,,10,,,45,127
35424,note_on,0,0,0,,10,,,69,127
35424,note_on,0,0,0,,1,,,73,127
35615,note_off,191,0,0,,1,,,73,127
35616,note_on,1,0,0,,10,,,57,127
35712,note_off,96,0,0,,10,,,69,127
35807,note_off,95,0,0,,10,,,57,127
35808,note_on,1,0,0,,2,,,62,127
35855,note_off,47,0,0,,2,,,62,127
35856,note_on,1,0,0,,1,,,61,127
35903,note_off,47,0,0,,1,,,61,127
35904,note_on,1,0,0,,2,,,62,127
35951,note_off,47,0,0,,2,,,62,127
35952,note_on,1,0,0,,1,,,61,127
35999,note_off,47,0,0,,1,,,61,127
36000,note_on,1,0,0,,12,,,59,127
36095,note_off,95,0,0,,12,,,59,127
36096,note_on,1,0,0,,10,,,57,127
36191,note_off,95,0,0,,10,,,57,127
36191,note_off,0,0,0,,10,,,45,127
36192,note_on,1,0,0,,10,,,45,127
36192,note_on,0,0,0,,1,,,73,127
36192,note_on,0,0,0,,4,,,76,127
36383,note_off,191,0,0,,4,,,76,127
36383,note_off,0,0,0,,1,,,73,127
36384,note_on,1,0,0,,10,,,57,127
36575,note_off,191,0,0,,10,,,57,127
36576,note_on,1,0,0,,2,,,62,127
36623,note_off,47,0,0,,2,,,62,127
36624,note_on,1,0,0,,1,,,61,127
36671,note_off,47,0,0,,1,,,61,127
36672,note_on,1,0,0,,2,,,62,127
36719,note_off,47,0,0,,2,,,62,127
36720,note_on,1,0,0,,1,,,61,127
36767,note_off,47,0,0,,1,,,61,127
36768,note_on,1,0,0,,12,,,59,127
36863,note_off,95,0,0,,12,,,59,127
36864,note_on,1,0,0,,10,,,57,127
36959,note_off,95,0,0,,10,,,57,127
36959,note_off,0,0,0,,10,,,45,127
36960,note_on,1,0,0,,2,,,50,127
36960,note_on,0,0,0,,2,,,38,127
36960,note_on,0,0,0,,10,,,69,127
36960,note_on,0,0,0,,6,,,78,127
37151,note_off,191,0,0,,6,,,78,127
37152,note_on,1,0,0,,4,,,76,127
37247,note_off,95,0,0,,4,,,76,127
37248,note_on,1,0,0,,2,,,74,127
37343,note_off,95,0,0,,2,,,74,127
37343,note_off,0,0,0,,10,,,69,127
37343,note_off,0,0,0,,2,,,38,127
37343,note_off,0,0,0,,2,,,50,127
37344,note_on,1,0,0,,4,,,52,127
37344,note_on,0,0,0,,4,,,40,127
37344,note_on,0,0,0,,1,,,73,127
37439,note_off,95,0,0,,1,,,73,127
37440,note_on,1,0,0,,12,,,71,127
37535,note_off,95,0,0,,12,,,71,127
37536,note_on,1,0,0,,10,,,69,127
37631,note_off,95,0,0,,10,,,69,127
37632,note_on,1,0,0,,8,,,68,127
37727,note_off,95,0,0,,8,,,68,127
37727,note_off,0,0,0,,4,,,40,127
37727,note_off,0,0,0,,4,,,52,127
37728,note_on,1,0,0,,10,,,69,127
37824,note_on,96,0,0,,10,,,45,127
37919,note_off,95,0,0,,10,,,45,127
37920,note_on,1,0,0,,1,,,49,127
38015,note_off,95,0,0,,1,,,49,127
38016,note_on,1,0,0,,4,,,52,127
38111,note_off,95,0,0,,4,,,52,127
38112,note_on,1,0,0,,10,,,57,127
38112,note_on,0,0,0,,10,,,81,127
38207,note_off,95,0,0,,10,,,57,127
38208,note_off,1,0,0,,10,,,69,127
38208,note_on,0,0,0,,1,,,61,127
38303,note_off,95,0,0,,1,,,61,127
38304,note_on,1,0,0,,4,,,64,127
38399,note_off,95,0,0,,4,,,64,127
38400,note_on,1,0,0,,10,,,69,127
38495,note_off,95,0,0,,10,,,69,127
38496,note_on,1,0,0,,10,,,45,127
38687,note_off,191,0,0,,10,,,81,127
38688,note_on,1,0,0,,7,,,79,127
38783,note_off,95,0,0,,7,,,79,127
38784,note_on,1,0,0,,6,,,78,127
38879,note_off,95,0,0,,6,,,78,127
38880,note_on,1,0,0,,4,,,76,127
38975,note_off,95,0,0,,4,,,76,127
38976,note_on,1,0,0,,2,,,74,127
39071,note_off,95,0,0,,2,,,74,127
39072,note_on,1,0,0,,1,,,73,127
39167,note_off,95,0,0,,1,,,73,127
39168,note_on,1,0,0,,12,,,71,127
39263,note_off,95,0,0,,12,,,71,127
39263,note_off,0,0,0,,10,,,45,127
39264,note_on,1,0,0,,1,,,73,127
39264,note_on,0,0,0,,4,,,76,127
39360,note_on,96,0,0,,7,,,43,127
39455,note_off,95,0,0,,7,,,43,127
39456,note_on,1,0,0,,1,,,49,127
39551,note_off,95,0,0,,1,,,49,127
39552,note_on,1,0,0,,4,,,52,127
39647,note_off,95,0,0,,4,,,52,127
39647,note_off,0,0,0,,4,,,76,127
39647,note_off,0,0,0,,1,,,73,127
39648,note_on,1,0,0,,7,,,55,127
39648,note_on,0,0,0,,10,,,81,127
39743,note_off,95,0,0,,7,,,55,127
39744,note_on,1,0,0,,1,,,61,127
39839,note_off,95,0,0,,1,,,61,127
39840,note_on,1,0,0,,4,,,64,127
39935,note_off,95,0,0,,4,,,64,127
39936,note_on,1,0,0,,7,,,67,127
40031,note_off,95,0,0,,7,,,67,127
40032,note_on,1,0,0,,7,,,43,127
40223,note_off,191,0,0,,10,,,81,127
40224,note_on,1,0,0,,7,,,79,127
40319,note_off,95,0,0,,7,,,79,127
40320,note_on,1,0,0,,6,,,78,127
40415,note_off,95,0,0,,6,,,78,127
40416,note_on,1,0,0,,4,,,76,127
40511,note_off,95,0,0,,4,,,76,127
40512,note_on,1,0,0,,2,,,74,127
40607,note_off,95,0,0,,2,,,74,127
40608,note_on,1,0,0,,1,,,73,127
40703,note_off,95,0,0,,1,,,73,127
40704,note_on,1,0,0,,12,,,71,127
40799,note_off,95,0,0,,12,,,71,127
40799,note_off,0,0,0,,7,,,43,127
40800,note_on,1,0,0,,10,,,69,127
40896,note_on,96,0,0,,6,,,42,127
40991,note_off,95,0,0,,6,,,42,127
40992,note_on,1,0,0,,10,,,45,127
41087,note_off,95,0,0,,10,,,45,127
41088,note_on,1,0,0,,2,,,50,127
41183,note_off,95,0,0,,2,,,50,127
41183,note_off,0,0,0,,10,,,69,127
41184,note_on,1,0,0,,6,,,54,127
41184,note_on,0,0,0,,10,,,81,127
41279,note_off,95,0,0,,6,,,54,127
41280,note_on,1,0,0,,10,,,57,127
41375,note_off,95,0,0,,10,,,57,127
41376,note_on,1,0,0,,2,,,62,127
41471,note_off,95,0,0,,2,,,62,127
41472,note_on,1,0,0,,6,,,66,127
41567,note_off,95,0,0,,6,,,66,127
41568,note_on,1,0,0,,6,,,42,127
41663,note_off,95,0,0,,10,,,81,127
41664,note_on,1,0,0,,7,,,79,127
41759,note_off,95,0,0,,7,,,79,127
41760,note_on,1,0,0,,6,,,78,127
41855,note_off,95,0,0,,6,,,78,127
41856,note_on,1,0,0,,4,,,76,127
41951,note_off,95,0,0,,4,,,76,127
41952,note_on,1,0,0,,2,,,74,127
42047,note_off,95,0,0,,2,,,74,127
42048,note_on,1,0,0,,1,,,73,127
42143,note_off,95,0,0,,1,,,73,127
42144,note_on,1,0,0,,12,,,71,127
42239,note_off,95,0,0,,12,,,71,127
42240,note_on,1,0,0,,10,,,69,127
42335,note_off,95,0,0,,10,,,69,127
42335,note_off,0,0,0,,6,,,42,127
42336,note_on,1,0,0,,7,,,67,127
42432,note_on,96,0,0,,4,,,40,127
42527,note_off,95,0,0,,4,,,40,127
42528,note_on,1,0,0,,7,,,43,127
42623,note_off,95,0,0,,7,,,43,127
42624,note_on,1,0,0,,1,,,49,127
42719,note_off,95,0,0,,1,,,49,127
42719,note_off,0,0,0,,7,,,67,127
42720,note_on,1,0,0,,4,,,52,127
42720,note_on,0,0,0,,7,,,79,127
42815,note_off,95,0,0,,4,,,52,127
42816,note_on,1,0,0,,7,,,55,127
42911,note_off,95,0,0,,7,,,55,127
42912,note_on,1,0,0,,1,,,61,127
43007,note_off,95,0,0,,1,,,61,127
43008,note_on,1,0,0,,4,,,64,127
43103,note_off,95,0,0,,4,,,64,127
43104,note_on,1,0,0,,4,,,40,127
43199,note_off,95,0,0,,7,,,79,127
43200,note_on,1,0,0,,6,,,78,127
43295,note_off,95,0,0,,6,,,78,127
43296,note_on,1,0,0,,4,,,76,127
43391,note_off,95,0,0,,4,,,76,127
43392,note_on,1,0,0,,2,,,74,127
43487,note_off,95,0,0,,2,,,74,127
43488,note_on,1,0,0,,1,,,73,127
43583,note_off,95,0,0,,1,,,73,127
43584,note_on,1,0,0,,12,,,71,127
43679,note_off,95,0,0,,12,,,71,127
43680,note_on,1,0,0,,10,,,69,127
43775,note_off,95,0,0,,10,,,69,127
43776,note_on,1,0,0,,7,,,67,127
43871,note_off,95,0,0,,7,,,67,127
43871,note_off,0,0,0,,4,,,40,127
43872,note_on,1,0,0,,6,,,66,127
43968,note_on,96,0,0,,2,,,38,127
44063,note_off,95,0,0,,2,,,38,127
44064,note_on,1,0,0,,6,,,42,127
44159,note_off,95,0,0,,6,,,42,127
44160,note_on,1,0,0,,10,,,45,127
44255,note_off,95,0,0,,10,,,45,127
44255,note_off,0,0,0,,6,,,66,127
44256,note_on,1,0,0,,2,,,50,127
44256,note_on,0,0,0,,10,,,81,127
44351,note_off,95,0,0,,2,,,50,127
44352,note_on,1,0,0,,6,,,54,127
44447,note_off,95,0,0,,6,,,54,127
44448,note_on,1,0,0,,10,,,57,127
44543,note_off,95,0,0,,10,,,57,127
44544,note_on,1,0,0,,2,,,62,127
44639,note_off,95,0,0,,2,,,62,127
44640,note_on,1,0,0,,2,,,38,127
44735,note_off,95,0,0,,10,,,81,127
44736,note_on,1,0,0,,7,,,79,127
44831,note_off,95,0,0,,7,,,79,127
44832,note_on,1,0,0,,6,,,78,127
44927,note_off,95,0,0,,6,,,78,127
44928,note_on,1,0,0,,4,,,76,127
45023,note_off,95,0,0,,4,,,76,127
45024,note_on,1,0,0,,2,,,74,127
45119,note_off,95,0,0,,2,,,74,127
45120,note_on,1,0,0,,1,,,73,127
45215,note_off,95,0,0,,1,,,73,127
45216,note_on,1,0,0,,12,,,71,127
45311,note_off,95,0,0,,12,,,71,127
45312,note_on,1,0,0,,10,,,69,127
45407,note_off,95,0,0,,10,,,69,127
45407,note_off,0,0,0,,2,,,38,127
45408,note_on,1,0,0,,12,,,71,127
45504,note_on,96,0,0,,7,,,43,127
45599,note_off,95,0,0,,7,,,43,127
45600,note_on,1,0,0,,12,,,47,127
45695,note_off,95,0,0,,12,,,47,127
45696,note_on,1,0,0,,2,,,50,127
45791,note_off,95,0,0,,2,,,50,127
45791,note_off,0,0,0,,12,,,71,127
45792,note_on,1,0,0,,7,,,55,127
45792,note_on,0,0,0,,12,,,83,127
45887,note_off,95,0,0,,7,,,55,127
45888,note_on,1,0,0,,12,,,59,127
45983,note_off,95,0,0,,12,,,59,127
45984,note_on,1,0,0,,2,,,62,127
46079,note_off,95,0,0,,2,,,62,127
46080,note_on,1,0,0,,7,,,67,127
46175,note_off,95,0,0,,7,,,67,127
46176,note_on,1,0,0,,7,,,43,127
46271,note_off,95,0,0,,12,,,83,127
46272,note_on,1,0,0,,10,,,81,127
46367,note_off,95,0,0,,10,,,81,127
46368,note_on,1,0,0,,7,,,79,127
46463,note_off,95,0,0,,7,,,79,127
46464,note_on,1,0,0,,6,,,78,127
46559,note_off,95,0,0,,6,,,78,127
46560,note_on,1,0,0,,4,,,76,127
46655,note_off,95,0,0,,4,,,76,127
46656,note_on,1,0,0,,2,,,74,127
46751,note_off,95,0,0,,2,,,74,127
46752,note_on,1,0,0,,1,,,73,127
46847,note_off,95,0,0,,1,,,73,127
46848,note_on,1,0,0,,12,,,71,127
46943,note_off,95,0,0,,12,,,71,127
46943,note_off,0,0,0,,7,,,43,127
46944,note_on,1,0,0,,10,,,45,127
46944,note_on,0,0,0,,4,,,76,127
47039,note_off,95,0,0,,4,,,76,127
47040,note_on,1,0,0,,2,,,74,127
47135,note_off,95,0,0,,2,,,74,127
47136,note_on,1,0,0,,1,,,73,127
47231,note_off,95,0,0,,1,,,73,127
47232,note_on,1,0,0,,12,,,71,127
47327,note_off,95,0,0,,12,,,71,127
47328,note_on,1,0,0,,10,,,57,127
47328,note_on,0,0,0,,10,,,69,127
47423,note_off,95,0,0,,10,,,69,127
47424,note_on,1,0,0,,7,,,67,127
47519,note_off,95,0,0,,7,,,67,127
47519,note_off,0,0,0,,10,,,45,127
47520,note_on,1,0,0,,6,,,66,127
47615,note_off,95,0,0,,6,,,66,127
47616,note_on,1,0,0,,4,,,64,127
47711,note_off,95,0,0,,4,,,64,127
47711,note_off,0,0,0,,10,,,57,127
47712,note_on,1,0,0,,2,,,62,127
47712,note_on,0,0,0,,6,,,66,127
47807,note_off,95,0,0,,6,,,66,127
47808,note_on,1,0,0,,10,,,69,127
47903,note_off,95,0,0,,10,,,69,127
47904,note_on,1,0,0,,7,,,67,127
47999,note_off,95,0,0,,7,,,67,127
48000,note_on,1,0,0,,6,,,66,127
48095,note_off,95,0,0,,6,,,66,127
48095,note_off,0,0,0,,2,,,62,127
48096,note_on,1,0,0,,7,,,55,127
48096,note_on,0,0,0,,4,,,64,127
48191,note_off,95,0,0,,4,,,64,127
48192,note_on,1,0,0,,2,,,62,127
48287,note_off,95,0,0,,2,,,62,127
48288,note_on,1,0,0,,1,,,61,127
48383,note_off,95,0,0,,1,,,61,127
48384,note_on,1,0,0,,12,,,59,127
48479,note_off,95,0,0,,12,,,59,127
48479,note_off,0,0,0,,7,,,55,127
48480,note_on,1,0,0,,10,,,45,127
48480,note_on,0,0,0,,1,,,61,127
48576,note_on,96,0,0,,10,,,57,127
48600,note_off,24,0,0,,1,,,61,127
48672,note_on,72,0,0,,1,,,61,127
48696,note_off,24,0,0,,10,,,57,127
48768,note_on,72,0,0,,4,,,64,127
48792,note_off,24,0,0,,1,,,61,127
48863,note_off,71,0,0,,10,,,45,127
48864,note_on,1,0,0,,5,,,77,127
48864,note_on,0,0,0,,5,,,65,127
48888,note_off,24,0,0,,4,,,64,127
48960,note_on,72,0,0,,2,,,62,127
48984,note_off,24,0,0,,5,,,65,127
49056,note_on,72,0,0,,10,,,57,127
49080,note_off,24,0,0,,2,,,62,127
49152,note_on,72,0,0,,5,,,65,127
49176,note_off,24,0,0,,10,,,57,127
49247,note_off,71,0,0,,5,,,77,127
49248,note_on,1,0,0,,7,,,79,127
49248,note_on,0,0,0,,4,,,64,127
49272,note_off,24,0,0,,5,,,65,127
49344,note_on,72,0,0,,11,,,58,127
49368,note_off,24,0,0,,4,,,64,127
49440,note_on,72,0,0,,7,,,55,127
49464,note_off,24,0,0,,11,,,58,127
49536,note_on,72,0,0,,4,,,64,127
49560,note_off,24,0,0,,7,,,55,127
49631,note_off,71,0,0,,7,,,79,127
49632,note_on,1,0,0,,11,,,46,127
49632,note_on,0,0,0,,2,,,62,127
49656,note_off,24,0,0,,4,,,64,127
49728,note_on,72,0,0,,11,,,58,127
49752,note_off,24,0,0,,2,,,62,127
49824,note_on,72,0,0,,7,,,55,127
49848,note_off,24,0,0,,11,,,58,127
49920,note_on,72,0,0,,11,,,58,127
49944,note_off,24,0,0,,7,,,55,127
50015,note_off,71,0,0,,11,,,46,127
50016,note_on,1,0,0,,10,,,45,127
50016,note_on,0,0,0,,4,,,64,127
50040,note_off,24,0,0,,11,,,58,127
50112,note_on,72,0,0,,1,,,61,127
50136,note_off,24,0,0,,4,,,64,127
50208,note_on,72,0,0,,10,,,57,127
50232,note_off,24,0,0,,1,,,61,127
50304,note_on,72,0,0,,1,,,61,127
50328,note_off,24,0,0,,10,,,57,127
50399,note_off,71,0,0,,10,,,45,127
50400,note_on,1,0,0,,10,,,81,127
50400,note_on,0,0,0,,5,,,65,127
50424,note_off,24,0,0,,1,,,61,127
50496,note_on,72,0,0,,2,,,62,127
50520,note_off,24,0,0,,5,,,65,127
50592,note_on,72,0,0,,10,,,57,127
50616,note_off,24,0,0,,2,,,62,127
50688,note_on,72,0,0,,5,,,65,127
50712,note_off,24,0,0,,10,,,57,127
50783,note_off,71,0,0,,10,,,81,127
50784,note_on,1,0,0,,11,,,82,127
50784,note_on,0,0,0,,7,,,67,127
50808,note_off,24,0,0,,5,,,65,127
50880,note_on,72,0,0,,11,,,58,127
50904,note_off,24,0,0,,7,,,67,127
50976,note_on,72,0,0,,7,,,55,127
51000,note_off,24,0,0,,11,,,58,127
51072,note_on,72,0,0,,11,,,58,127
51096,note_off,24,0,0,,7,,,55,127
51167,note_off,71,0,0,,11,,,82,127
51168,note_on,1,0,0,,7,,,43,127
51168,note_on,0,0,0,,7,,,67,127
51192,note_off,24,0,0,,11,,,58,127
51264,note_on,72,0,0,,11,,,58,127
51288,note_off,24,0,0,,7,,,67,127
51360,note_on,72,0,0,,7,,,55,127
51384,note_off,24,0,0,,11,,,58,127
51456,note_on,72,0,0,,11,,,58,127
51480,note_off,24,0,0,,7,,,55,127
51551,note_off,71,0,0,,7,,,43,127
51552,note_on,1,0,0,,10,,,45,127
51552,note_on,0,0,0,,7,,,67,127
51576,note_off,24,0,0,,11,,,58,127
51648,note_on,72,0,0,,1,,,61,127
51672,note_off,24,0,0,,7,,,67,127
51744,note_on,72,0,0,,10,,,57,127
51768,note_off,24,0,0,,1,,,61,127
51840,note_on,72,0,0,,1,,,61,127
51864,note_off,24,0,0,,10,,,57,127
51935,note_off,71,0,0,,10,,,45,127
51936,note_on,1,0,0,,10,,,81,127
51936,note_on,0,0,0,,5,,,65,127
51960,note_off,24,0,0,,1,,,61,127
52032,note_on,72,0,0,,2,,,62,127
52056,note_off,24,0,0,,5,,,65,127
52128,note_on,72,0,0,,10,,,57,127
52152,note_off,24,0,0,,2,,,62,127
52224,note_on,72,0,0,,2,,,62,127
52248,note_off,24,0,0,,10,,,57,127
52319,note_off,71,0,0,,10,,,81,127
52320,note_on,1,0,0,,7,,,79,127
52320,note_on,0,0,0,,4,,,64,127
52344,note_off,24,0,0,,2,,,62,127
52416,note_on,72,0,0,,11,,,58,127
52440,note_off,24,0,0,,4,,,64,127
52512,note_on,72,0,0,,7,,,55,127
52536,note_off,24,0,0,,11,,,58,127
52608,note_on,72,0,0,,11,,,58,127
52632,note_off,24,0,0,,7,,,55,127
52703,note_off,71,0,0,,7,,,79,127
52704,note_on,1,0,0,,11,,,46,127
52704,note_on,0,0,0,,2,,,62,127
52728,note_off,24,0,0,,11,,,58,127
52800,note_on,72,0,0,,11,,,58,127
52824,note_off,24,0,0,,2,,,62,127
52896,note_on,72,0,0,,7,,,55,127
52920,note_off,24,0,0,,11,,,58,127
52992,note_on,72,0,0,,11,,,58,127
53016,note_off,24,0,0,,7,,,55,127
53087,note_off,71,0,0,,11,,,46,127
53088,note_on,1,0,0,,10,,,45,127
53088,note_on,0,0,0,,4,,,64,127
53112,note_off,24,0,0,,11,,,58,127
53184,note_on,72,0,0,,1,,,61,127
53208,note_off,24,0,0,,4,,,64,127
53280,note_on,72,0,0,,10,,,57,127
53304,note_off,24,0,0,,1,,,61,127
53376,note_on,72,0,0,,1,,,61,127
53400,note_off,24,0,0,,10,,,57,127
53471,note_off,71,0,0,,10,,,45,127
53472,note_on,1,0,0,,10,,,81,127
53472,note_on,0,0,0,,5,,,65,127
53496,note_off,24,0,0,,1,,,61,127
53568,note_on,72,0,0,,2,,,62,127
53592,note_off,24,0,0,,5,,,65,127
53664,note_on,72,0,0,,10,,,57,127
53688,note_off,24,0,0,,2,,,62,127
53760,note_on,72,0,0,,2,,,62,127
53784,note_off,24,0,0,,10,,,57,127
53855,note_off,71,0,0,,10,,,81,127
53856,note_on,1,0,0,,11,,,82,127
53856,note_on,0,0,0,,7,,,67,127
53880,note_off,24,0,0,,2,,,62,127
53952,note_on,72,0,0,,11,,,58,127
53976,note_off,24,0,0,,7,,,67,127
54048,note_on,72,0,0,,7,,,55,127
54072,note_off,24,0,0,,11,,,58,127
54144,note_on,72,0,0,,11,,,58,127
54168,note_off,24,0,0,,7,,,55,127
54239,note_off,71,0,0,,11,,,82,127
54240,note_on,1,0,0,,7,,,43,127
54240,note_on,0,0,0,,7,,,67,127
54264,note_off,24,0,0,,11,,,58,127
54336,note_on,72,0,0,,11,,,58,127
54360,note_off,24,0,0,,7,,,67,127
54432,note_on,72,0,0,,7,,,55,127
54456,note_off,24,0,0,,11,,,58,127
54528,note_on,72,0,0,,11,,,58,127
54552,note_off,24,0,0,,7,,,55,127
54623,note_off,71,0,0,,7,,,43,127
54624,note_on,1,0,0,,10,,,45,127
54624,note_on,0,0,0,,7,,,67,127
54648,note_off,24,0,0,,11,,,58,127
54720,note_on,72,0,0,,1,,,61,127
54744,note_off,24,0,0,,7,,,67,127
54816,note_on,72,0,0,,10,,,57,127
54840,note_off,24,0,0,,1,,,61,127
54912,note_on,72,0,0,,1,,,61,127
54936,note_off,24,0,0,,10,,,57,127
55007,note_off,71,0,0,,10,,,45,127
55008,note_on,1,0,0,,10,,,81,127
55008,note_on,0,0,0,,4,,,64,127
55032,note_off,24,0,0,,1,,,61,127
55104,note_on,72,0,0,,1,,,61,127
55128,note_off,24,0,0,,4,,,64,127
55200,note_on,72,0,0,,10,,,57,127
55224,note_off,24,0,0,,1,,,61,127
55296,note_on,72,0,0,,1,,,61,127
55320,note_off,24,0,0,,10,,,57,127
55391,note_off,71,0,0,,10,,,81,127
55392,note_on,1,0,0,,5,,,41,127
55392,note_on,0,0,0,,10,,,69,127
55416,note_off,24,0,0,,1,,,61,127
55488,note_on,72,0,0,,2,,,62,127
55512,note_off,24,0,0,,10,,,69,127
55584,note_on,72,0,0,,10,,,57,127
55608,note_off,24,0,0,,2,,,62,127
55680,note_on,72,0,0,,2,,,62,127
55704,note_off,24,0,0,,10,,,57,127
55775,note_off,71,0,0,,5,,,41,127
55776,note_on,1,0,0,,10,,,81,127
55776,note_on,0,0,0,,10,,,69,127
55800,note_off,24,0,0,,2,,,62,127
55872,note_on,72,0,0,,2,,,62,127
55896,note_off,24,0,0,,10,,,69,127
55968,note_on,72,0,0,,10,,,57,127
55992,note_off,24,0,0,,2,,,62,127
56064,note_on,72,0,0,,0,,,60,127
56088,note_off,24,0,0,,10,,,57,127
56159,note_off,71,0,0,,10,,,81,127
56160,note_on,1,0,0,,7,,,43,127
56160,note_on,0,0,0,,10,,,69,127
56184,note_off,24,0,0,,0,,,60,127
56256,note_on,72,0,0,,2,,,62,127
56280,note_off,24,0,0,,10,,,69,127
56352,note_on,72,0,0,,11,,,58,127
56376,note_off,24,0,0,,2,,,62,127
56448,note_on,72,0,0,,2,,,62,127
56472,note_off,24,0,0,,11,,,58,127
56543,note_off,71,0,0,,7,,,43,127
56544,note_on,1,0,0,,7,,,79,127
56544,note_on,0,0,0,,7,,,67,127
56568,note_off,24,0,0,,2,,,62,127
56640,note_on,72,0,0,,2,,,62,127
56664,note_off,24,0,0,,7,,,67,127
56736,note_on,72,0,0,,11,,,58,127
56760,note_off,24,0,0,,2,,,62,127
56832,note_on,72,0,0,,2,,,62,127
56856,note_off,24,0,0,,11,,,58,127
56927,note_off,71,0,0,,7,,,79,127
56928,note_on,1,0,0,,4,,,40,127
56928,note_on,0,0,0,,7,,,67,127
56952,note_off,24,0,0,,2,,,62,127
57024,note_on,72,0,0,,11,,,58,127
57048,note_off,24,0,0,,7,,,67,127
57120,note_on,72,0,0,,7,,,55,127
57144,note_off,24,0,0,,11,,,58,127
57216,note_on,72,0,0,,11,,,58,127
57240,note_off,24,0,0,,7,,,55,127
57311,note_off,71,0,0,,4,,,40,127
57312,note_on,1,0,0,,4,,,76,127
57312,note_on,0,0,0,,7,,,67,127
57336,note_off,24,0,0,,11,,,58,127
57408,note_on,72,0,0,,11,,,58,127
57432,note_off,24,0,0,,7,,,67,127
57504,note_on,72,0,0,,7,,,55,127
57528,note_off,24,0,0,,11,,,58,127
57600,note_on,72,0,0,,11,,,58,127
57624,note_off,24,0,0,,7,,,55,127
57695,note_off,71,0,0,,4,,,76,127
57696,note_on,1,0,0,,5,,,41,127
57696,note_on,0,0,0,,7,,,67,127
57720,note_off,24,0,0,,11,,,58,127
57792,note_on,72,0,0,,1,,,61,127
57816,note_off,24,0,0,,7,,,67,127
57888,note_on,72,0,0,,10,,,57,127
57912,note_off,24,0,0,,1,,,61,127
57984,note_on,72,0,0,,1,,,61,127
58008,note_off,24,0,0,,10,,,57,127
58079,note_off,71,0,0,,5,,,41,127
58080,note_on,1,0,0,,5,,,77,127
58080,note_on,0,0,0,,10,,,69,127
58104,note_off,24,0,0,,1,,,61,127
58176,note_on,72,0,0,,1,,,61,127
58200,note_off,24,0,0,,10,,,69,127
58272,note_on,72,0,0,,10,,,57,127
58296,note_off,24,0,0,,1,,,61,127
58368,note_on,72,0,0,,1,,,61,127
58392,note_off,24,0,0,,10,,,57,127
58463,note_off,71,0,0,,5,,,77,127
58464,note_on,1,0,0,,2,,,38,127
58464,note_on,0,0,0,,5,,,65,127
58488,note_off,24,0,0,,1,,,61,127
58560,note_on,72,0,0,,2,,,62,127
58584,note_off,24,0,0,,5,,,65,127
58656,note_on,72,0,0,,10,,,57,127
58680,note_off,24,0,0,,2,,,62,127
58752,note_on,72,0,0,,2,,,62,127
58776,note_off,24,0,0,,10,,,57,127
58847,note_off,71,0,0,,2,,,38,127
58848,note_on,1,0,0,,2,,,74,127
58848,note_on,0,0,0,,5,,,65,127
58872,note_off,24,0,0,,2,,,62,127
58944,note_on,72,0,0,,2,,,62,127
58968,note_off,24,0,0,,5,,,65,127
59040,note_on,72,0,0,,10,,,57,127
59064,note_off,24,0,0,,2,,,62,127
59136,note_on,72,0,0,,2,,,62,127
59160,note_off,24,0,0,,10,,,57,127
59231,note_off,71,0,0,,2,,,74,127
59232,note_on,1,0,0,,4,,,40,127
59232,note_on,0,0,0,,5,,,65,127
59256,note_off,24,0,0,,2,,,62,127
59328,note_on,72,0,0,,11,,,58,127
59352,note_off,24,0,0,,5,,,65,127
59424,note_on,72,0,0,,7,,,55,127
59448,note_off,24,0,0,,11,,,58,127
59520,note_on,72,0,0,,11,,,58,127
59544,note_off,24,0,0,,7,,,55,127
59615,note_off,71,0,0,,4,,,40,127
59616,note_on,1,0,0,,4,,,76,127
59616,note_on,0,0,0,,4,,,64,127
59640,note_off,24,0,0,,11,,,58,127
59712,note_on,72,0,0,,11,,,58,127
59736,note_off,24,0,0,,4,,,64,127
59808,note_on,72,0,0,,7,,,55,127
59832,note_off,24,0,0,,11,,,58,127
59904,note_on,72,0,0,,11,,,58,127
59928,note_off,24,0,0,,7,,,55,127
59999,note_off,71,0,0,,4,,,76,127
60000,note_on,1,0,0,,1,,,37,127
60000,note_on,0,0,0,,4,,,64,127
60024,note_off,24,0,0,,11,,,58,127
60096,note_on,72,0,0,,10,,,57,127
60120,note_off,24,0,0,,4,,,64,127
60192,note_on,72,0,0,,7,,,55,127
60216,note_off,24,0,0,,10,,,57,127
60288,note_on,72,0,0,,10,,,57,127
60312,note_off,24,0,0,,7,,,55,127
60383,note_off,71,0,0,,1,,,37,127
60384,note_on,1,0,0,,1,,,73,127
60384,note_on,0,0,0,,4,,,64,127
60408,note_off,24,0,0,,10,,,57,127
60480,note_on,72,0,0,,10,,,57,127
60504,note_off,24,0,0,,4,,,64,127
60576,note_on,72,0,0,,7,,,55,127
60600,note_off,24,0,0,,10,,,57,127
60672,note_on,72,0,0,,10,,,57,127
60696,note_off,24,0,0,,7,,,55,127
60767,note_off,71,0,0,,1,,,73,127
60768,note_on,1,0,0,,2,,,38,127
60768,note_on,0,0,0,,4,,,64,127
60792,note_off,24,0,0,,10,,,57,127
60864,note_on,72,0,0,,10,,,57,127
60888,note_off,24,0,0,,4,,,64,127
60960,note_on,72,0,0,,5,,,53,127
60984,note_off,24,0,0,,10,,,57,127
61056,note_on,72,0,0,,10,,,57,127
61080,note_off,24,0,0,,5,,,53,127
61151,note_off,71,0,0,,2,,,38,127
61152,note_on,1,0,0,,2,,,74,127
61152,note_on,0,0,0,,2,,,62,127
61176,note_off,24,0,0,,10,,,57,127
61248,note_on,72,0,0,,10,,,57,127
61272,note_off,24,0,0,,2,,,62,127
61344,note_on,72,0,0,,5,,,53,127
61368,note_off,24,0,0,,10,,,57,127
61440,note_on,72,0,0,,10,,,57,127
61464,note_off,24,0,0,,5,,,53,127
61535,note_off,71,0,0,,2,,,74,127
61536,note_on,1,0,0,,5,,,41,127
61536,note_on,0,0,0,,2,,,62,127
61560,note_off,24,0,0,,10,,,57,127
61632,note_on,72,0,0,,10,,,57,127
61656,note_off,24,0,0,,2,,,62,127
61728,note_on,72,0,0,,5,,,53,127
61752,note_off,24,0,0,,10,,,57,127
61824,note_on,72,0,0,,10,,,57,127
61848,note_off,24,0,0,,5,,,53,127
61919,note_off,71,0,0,,5,,,41,127
61920,note_on,1,0,0,,5,,,77,127
61920,note_on,0,0,0,,2,,,62,127
61944,note_off,24,0,0,,10,,,57,127
62016,note_on,72,0,0,,10,,,57,127
62040,note_off,24,0,0,,2,,,62,127
62112,note_on,72,0,0,,5,,,53,127
62136,note_off,24,0,0,,10,,,57,127
62208,note_on,72,0,0,,10,,,57,127
62232,note_off,24,0,0,,5,,,53,127
62303,note_off,71,0,0,,5,,,77,127
62304,note_on,1,0,0,,7,,,43,127
62304,note_on,0,0,0,,2,,,62,127
62328,note_off,24,0,0,,10,,,57,127
62400,note_on,72,0,0,,11,,,58,127
62424,note_off,24,0,0,,2,,,62,127
62496,note_on,72,0,0,,7,,,55,127
62520,note_off,24,0,0,,11,,,58,127
62592,note_on,72,0,0,,11,,,58,127
62616,note_off,24,0,0,,7,,,55,127
62687,note_off,71,0,0,,7,,,43,127
62688,note_on,1,0,0,,7,,,79,127
62688,note_on,0,0,0,,4,,,64,127
62712,note_off,24,0,0,,11,,,58,127
62784,note_on,72,0,0,,11,,,58,127
62808,note_off,24,0,0,,4,,,64,127
62880,note_on,72,0,0,,7,,,55,127
62904,note_off,24,0,0,,11,,,58,127
62976,note_on,72,0,0,,11,,,58,127
63000,note_off,24,0,0,,7,,,55,127
63071,note_off,71,0,0,,7,,,79,127
63072,note_on,1,0,0,,10,,,45,127
63072,note_on,0,0,0,,2,,,62,127
63096,note_off,24,0,0,,11,,,58,127
63168,note_on,72,0,0,,1,,,61,127
63192,note_off,24,0,0,,2,,,62,127
63264,note_on,72,0,0,,10,,,57,127
63288,note_off,24,0,0,,1,,,61,127
63360,note_on,72,0,0,,1,,,61,127
63384,note_off,24,0,0,,10,,,57,127
63455,note_off,71,0,0,,10,,,45,127
63456,note_on,1,0,0,,10,,,81,127
63456,note_on,0,0,0,,5,,,65,127
63480,note_off,24,0,0,,1,,,61,127
63552,note_on,72,0,0,,1,,,61,127
63576,note_off,24,0,0,,5,,,65,127
63648,note_on,72,0,0,,10,,,57,127
63672,note_off,24,0,0,,1,,,61,127
63744,note_on,72,0,0,,1,,,61,127
63768,note_off,24,0,0,,10,,,57,127
63839,note_off,71,0,0,,10,,,81,127
63840,note_on,1,0,0,,11,,,46,127
63840,note_on,0,0,0,,5,,,65,127
63864,note_off,24,0,0,,1,,,61,127
63936,note_on,72,0,0,,2,,,62,127
63960,note_off,24,0,0,,5,,,65,127
64032,note_on,72,0,0,,11,,,58,127
64056,note_off,24,0,0,,2,,,62,127
64128,note_on,72,0,0,,2,,,62,127
64152,note_off,24,0,0,,11,,,58,127
64223,note_off,71,0,0,,11,,,46,127
64224,note_on,1,0,0,,11,,,82,127
64224,note_on,0,0,0,,7,,,67,127
64248,note_off,24,0,0,,2,,,62,127
64320,note_on,72,0,0,,2,,,62,127
64344,note_off,24,0,0,,7,,,67,127
64416,note_on,72,0,0,,11,,,58,127
64440,note_off,24,0,0,,2,,,62,127
64512,note_on,72,0,0,,2,,,62,127
64536,note_off,24,0,0,,11,,,58,127
64607,note_off,71,0,0,,11,,,82,127
64608,note_on,1,0,0,,1,,,49,127
64608,note_on,0,0,0,,1,,,37,127
64608,note_on,0,0,0,,7,,,67,127
64632,note_off,24,0,0,,2,,,62,127
64704,note_on,72,0,0,,4,,,64,127
64738,note_off,34,0,0,,7,,,67,127
64800,note_on,62,0,0,,1,,,61,127
64834,note_off,34,0,0,,4,,,64,127
64896,note_on,62,0,0,,4,,,64,127
64930,note_off,34,0,0,,1,,,61,127
64991,note_off,61,0,0,,1,,,37,127
64991,note_off,0,0,0,,1,,,49,127
64992,note_on,1,0,0,,10,,,45,127
64992,note_on,0,0,0,,10,,,69,127
65026,note_off,34,0,0,,4,,,64,127
65088,note_on,62,0,0,,4,,,64,127
65122,note_off,34,0,0,,10,,,69,127
65184,note_on,62,0,0,,1,,,61,127
65218,note_off,34,0,0,,4,,,64,127
65280,note_on,62,0,0,,4,,,64,127
65314,note_off,34,0,0,,1,,,61,127
65375,note_off,61,0,0,,10,,,45,127
65376,note_on,1,0,0,,2,,,38,127
65376,note_on,0,0,0,,10,,,69,127
65410,note_off,34,0,0,,4,,,64,127
65472,note_on,62,0,0,,5,,,65,127
65506,note_off,34,0,0,,10,,,69,127
65568,note_on,62,0,0,,2,,,62,127
65602,note_off,34,0,0,,5,,,65,127
65664,note_on,62,0,0,,5,,,65,127
65698,note_off,34,0,0,,2,,,62,127
65759,note_off,61,0,0,,2,,,38,127
65760,note_on,1,0,0,,7,,,43,127
65760,note_on,0,0,0,,11,,,70,127
65794,note_off,34,0,0,,5,,,65,127
65856,note_on,62,0,0,,7,,,67,127
65890,note_off,34,0,0,,11,,,70,127
65952,note_on,62,0,0,,2,,,62,127
65986,note_off,34,0,0,,7,,,67,127
66048,note_on,62,0,0,,7,,,67,127
66082,note_off,34,0,0,,2,,,62,127
66143,note_off,61,0,0,,7,,,43,127
66144,note_on,1,0,0,,10,,,45,127
66144,note_on,0,0,0,,10,,,69,127
66178,note_off,34,0,0,,7,,,67,127
66240,note_on,62,0,0,,5,,,65,127
66274,note_off,34,0,0,,10,,,69,127
66336,note_on,62,0,0,,2,,,62,127
66370,note_off,34,0,0,,5,,,65,127
66432,note_on,62,0,0,,5,,,65,127
66466,note_off,34,0,0,,2,,,62,127
66527,note_off,61,0,0,,10,,,45,127
66528,note_on,1,0,0,,10,,,45,127
66528,note_on,0,0,0,,4,,,76,127
66562,note_off,34,0,0,,5,,,65,127
66624,note_on,62,0,0,,7,,,67,127
66658,note_off,34,0,0,,4,,,76,127
66720,note_on,62,0,0,,4,,,64,127
66754,note_off,34,0,0,,7,,,67,127
66816,note_on,62,0,0,,7,,,67,127
66850,note_off,34,0,0,,4,,,64,127
66911,note_off,61,0,0,,10,,,45,127
66912,note_on,1,0,0,,2,,,50,127
66912,note_on,0,0,0,,5,,,77,127
66946,note_off,34,0,0,,7,,,67,127
67008,note_on,62,0,0,,10,,,69,127
67072,note_off,64,0,0,,5,,,77,127
67104,note_on,32,0,0,,5,,,65,127
67168,note_off,64,0,0,,10,,,69,127
67200,note_on,32,0,0,,10,,,69,127
67264,note_off,64,0,0,,5,,,65,127
67295,note_off,31,0,0,,2,,,50,127
67296,note_on,1,0,0,,7,,,55,127
67296,note_on,0,0,0,,4,,,76,127
67360,note_off,64,0,0,,10,,,69,127
67392,note_on,32,0,0,,11,,,70,127
67456,note_off,64,0,0,,4,,,76,127
67488,note_on,32,0,0,,7,,,67,127
67552,note_off,64,0,0,,11,,,70,127
67584,note_on,32,0,0,,11,,,70,127
67648,note_off,64,0,0,,7,,,67,127
67679,note_off,31,0,0,,7,,,55,127
67680,note_on,1,0,0,,10,,,57,127
67680,note_on,0,0,0,,2,,,74,127
67744,note_off,64,0,0,,11,,,70,127
67776,note_on,32,0,0,,10,,,69,127
67840,note_off,64,0,0,,2,,,74,127
67872,note_on,32,0,0,,5,,,65,127
67936,note_off,64,0,0,,10,,,69,127
67968,note_on,32,0,0,,10,,,69,127
68032,note_off,64,0,0,,5,,,65,127
68063,note_off,31,0,0,,10,,,57,127
68064,note_on,1,0,0,,10,,,45,127
68064,note_on,0,0,0,,1,,,73,127
68128,note_off,64,0,0,,10,,,69,127
68160,note_on,32,0,0,,7,,,67,127
68224,note_off,64,0,0,,1,,,73,127
68256,note_on,32,0,0,,4,,,64,127
68320,note_off,64,0,0,,7,,,67,127
68352,note_on,32,0,0,,7,,,67,127
68416,note_off,64,0,0,,4,,,64,127
68447,note_off,31,0,0,,10,,,45,127
68448,note_on,1,0,0,,2,,,50,127
68448,note_on,0,0,0,,5,,,77,127
68512,note_off,64,0,0,,7,,,67,127
68544,note_on,32,0,0,,10,,,69,127
68578,note_off,34,0,0,,5,,,77,127
68640,note_on,62,0,0,,5,,,65,127
68674,note_off,34,0,0,,10,,,69,127
68736,note_on,62,0,0,,10,,,69,127
68770,note_off,34,0,0,,5,,,65,127
68831,note_off,61,0,0,,2,,,50,127
68832,note_on,1,0,0,,7,,,55,127
68832,note_on,0,0,0,,4,,,76,127
68866,note_off,34,0,0,,10,,,69,127
68928,note_on,62,0,0,,11,,,70,127
68962,note_off,34,0,0,,4,,,76,127
69024,note_on,62,0,0,,7,,,67,127
69058,note_off,34,0,0,,11,,,70,127
69120,note_on,62,0,0,,11,,,70,127
69154,note_off,34,0,0,,7,,,67,127
69215,note_off,61,0,0,,7,,,55,127
69216,note_on,1,0,0,,10,,,57,127
69216,note_on,0,0,0,,2,,,74,127
69250,note_off,34,0,0,,11,,,70,127
69312,note_on,62,0,0,,10,,,69,127
69346,note_off,34,0,0,,2,,,74,127
69408,note_on,62,0,0,,5,,,65,127
69442,note_off,34,0,0,,10,,,69,127
69504,note_on,62,0,0,,10,,,69,127
69538,note_off,34,0,0,,5,,,65,127
69599,note_off,61,0,0,,10,,,57,127
69600,note_on,1,0,0,,10,,,45,127
69600,note_on,0,0,0,,1,,,73,127
69634,note_off,34,0,0,,10,,,69,127
69696,note_on,62,0,0,,7,,,67,127
69730,note_off,34,0,0,,1,,,73,127
69792,note_on,62,0,0,,4,,,64,127
69826,note_off,34,0,0,,7,,,67,127
69888,note_on,62,0,0,,7,,,67,127
69922,note_off,34,0,0,,4,,,64,127
69983,note_off,61,0,0,,10,,,45,127
69984,note_on,1,0,0,,2,,,50,127
69984,note_on,0,0,0,,5,,,77,127
70018,note_off,34,0,0,,7,,,67,127
70080,note_on,62,0,0,,10,,,69,127
70094,note_off,14,0,0,,5,,,77,127
70176,note_on,82,0,0,,5,,,65,127
70190,note_off,14,0,0,,10,,,69,127
70272,note_on,82,0,0,,10,,,69,127
70286,note_off,14,0,0,,5,,,65,127
70367,note_off,81,0,0,,2,,,50,127
70368,note_on,1,0,0,,7,,,55,127
70368,note_on,0,0,0,,4,,,76,127
70382,note_off,14,0,0,,10,,,69,127
70464,note_on,82,0,0,,11,,,70,127
70478,note_off,14,0,0,,4,,,76,127
70560,note_on,82,0,0,,7,,,67,127
70574,note_off,14,0,0,,11,,,70,127
70656,note_on,82,0,0,,11,,,70,127
70670,note_off,14,0,0,,7,,,67,127
70751,note_off,81,0,0,,7,,,55,127
70752,note_on,1,0,0,,10,,,57,127
70752,note_on,0,0,0,,2,,,74,127
70766,note_off,14,0,0,,11,,,70,127
70848,note_on,82,0,0,,10,,,69,127
70862,note_off,14,0,0,,2,,,74,127
70944,note_on,82,0,0,,5,,,65,127
70958,note_off,14,0,0,,10,,,69,127
71040,note_on,82,0,0,,10,,,69,127
71054,note_off,14,0,0,,5,,,65,127
71135,note_off,81,0,0,,10,,,57,127
71136,note_on,1,0,0,,10,,,45,127
71136,note_on,0,0,0,,1,,,73,127
71150,note_off,14,0,0,,10,,,69,127
71232,note_on,82,0,0,,7,,,67,127
71246,note_off,14,0,0,,1,,,73,127
71328,note_on,82,0,0,,4,,,64,127
71342,note_off,14,0,0,,7,,,67,127
71424,note_on,82,0,0,,7,,,67,127
71438,note_off,14,0,0,,4,,,64,127
71519,note_off,81,0,0,,10,,,45,127
71520,note_on,1,0,0,,2,,,74,127
71520,note_on,0,0,0,,2,,,50,127
71534,note_off,14,0,0,,7,,,67,127
71615,note_off,81,0,0,,2,,,74,127
71617,note_on,2,0,0,,1,,,73,127
71712,note_off,95,0,0,,1,,,73,127
71714,note_on,2,0,0,,12,,,71,127
71809,note_off,95,0,0,,12,,,71,127
71811,note_on,2,0,0,,10,,,69,127
71903,note_off,92,0,0,,2,,,50,127
71906,note_off,3,0,0,,10,,,69,127
71908,note_on,2,0,0,,7,,,67,127
71908,note_on,0,0,0,,7,,,55,127
72003,note_off,95,0,0,,7,,,67,127
72005,note_on,2,0,0,,6,,,66,127
72100,note_off,95,0,0,,6,,,66,127
72102,note_on,2,0,0,,4,,,64,127
72197,note_off,95,0,0,,4,,,64,127
72199,note_on,2,0,0,,2,,,62,127
72291,note_off,92,0,0,,7,,,55,127
72294,note_off,3,0,0,,2,,,62,127
72296,note_on,2,0,0,,6,,,66,127
72296,note_on,0,0,0,,10,,,57,127
72391,note_off,95,0,0,,6,,,66,127
72393,note_on,2,0,0,,7,,,67,127
72488,note_off,95,0,0,,7,,,67,127
72490,note_on,2,0,0,,10,,,69,127
72585,note_off,95,0,0,,10,,,69,127
72587,note_on,2,0,0,,7,,,67,127
72682,note_off,95,0,0,,7,,,67,127
72684,note_on,2,0,0,,6,,,66,127
72684,note_on,0,0,0,,10,,,45,127
72779,note_off,95,0,0,,6,,,66,127
72781,note_on,2,0,0,,4,,,64,127
72876,note_off,95,0,0,,4,,,64,127
72878,note_on,2,0,0,,2,,,62,127
72973,note_off,95,0,0,,2,,,62,127
72975,note_on,2,0,0,,1,,,61,127
73063,note_off,88,0,0,,10,,,57,127
73067,note_off,4,0,0,,10,,,45,127
73070,note_off,3,0,0,,1,,,61,127
73072,note_on,2,0,0,,2,,,62,127
73072,note_on,0,0,0,,2,,,50,127
73167,note_off,95,0,0,,2,,,62,127
73169,note_on,2,0,0,,1,,,61,127
73264,note_off,95,0,0,,1,,,61,127
73266,note_on,2,0,0,,12,,,59,127
73361,note_off,95,0,0,,12,,,59,127
73363,note_on,2,0,0,,10,,,57,127
73455,note_off,92,0,0,,2,,,50,127
73458,note_off,3,0,0,,10,,,57,127
73460,note_on,2,0,0,,7,,,55,127
73460,note_on,0,0,0,,7,,,43,127
73555,note_off,95,0,0,,7,,,55,127
73557,note_on,2,0,0,,6,,,54,127
73652,note_off,95,0,0,,6,,,54,127
73654,note_on,2,0,0,,4,,,52,127
73749,note_off,95,0,0,,4,,,52,127
73751,note_on,2,0,0,,2,,,50,127
73843,note_off,92,0,0,,7,,,43,127
73846,note_off,3,0,0,,2,,,50,127
73848,note_on,2,0,0,,6,,,54,127
73848,note_on,0,0,0,,10,,,45,127
73943,note_off,95,0,0,,6,,,54,127
73944,note_on,1,0,0,,7,,,55,127
74039,note_off,95,0,0,,7,,,55,127
74041,note_on,2,0,0,,10,,,57,127
74136,note_off,95,0,0,,10,,,57,127
74138,note_on,2,0,0,,7,,,55,127
74231,note_off,93,0,0,,10,,,45,127
74233,note_off,2,0,0,,7,,,55,127
74235,note_on,2,0,0,,6,,,54,127
74235,note_on,0,0,0,,10,,,45,127
74330,note_off,95,0,0,,6,,,54,127
74332,note_on,2,0,0,,4,,,52,127
74427,note_off,95,0,0,,4,,,52,127
74429,note_on,2,0,0,,2,,,50,127
74524,note_off,95,0,0,,2,,,50,127
74526,note_on,2,0,0,,1,,,49,127
74618,note_off,92,0,0,,10,,,45,127
74621,note_off,3,0,0,,1,,,49,127
74625,note_on,4,0,0,,2,,,38,127
74625,note_on,0,0,0,,2,,,50,127
74720,note_off,95,0,0,,2,,,50,127
74724,note_on,4,0,0,,6,,,54,127
74819,note_off,95,0,0,,6,,,54,127
74824,note_on,5,0,0,,10,,,57,127
74919,note_off,95,0,0,,10,,,57,127
74924,note_on,5,0,0,,2,,,62,127
75014,note_off,90,0,0,,2,,,38,127
75019,note_off,5,0,0,,2,,,62,127
75024,note_on,5,0,0,,2,,,38,127
75024,note_on,0,0,0,,10,,,57,127
75119,note_off,95,0,0,,10,,,57,127
75123,note_on,4,0,0,,2,,,62,127
75218,note_off,95,0,0,,2,,,62,127
75223,note_on,5,0,0,,6,,,66,127
75318,note_off,95,0,0,,6,,,66,127
75323,note_on,5,0,0,,10,,,69,127
75413,note_off,90,0,0,,2,,,38,127
75418,note_off,5,0,0,,10,,,69,127
75423,note_on,5,0,0,,2,,,38,127
75423,note_on,0,0,0,,2,,,62,127
75518,note_off,95,0,0,,2,,,62,127
75523,note_on,5,0,0,,6,,,66,127
75618,note_off,95,0,0,,6,,,66,127
75622,note_on,4,0,0,,10,,,69,127
75717,note_off,95,0,0,,10,,,69,127
75722,note_on,5,0,0,,2,,,74,127
75812,note_off,90,0,0,,2,,,38,127
75817,note_off,5,0,0,,2,,,74,127
75822,note_on,5,0,0,,2,,,38,127
75822,note_on,0,0,0,,10,,,69,127
75917,note_off,95,0,0,,10,,,69,127
75922,note_on,5,0,0,,2,,,74,127
76017,note_off,95,0,0,,2,,,74,127
76022,note_on,5,0,0,,6,,,78,127
76117,note_off,95,0,0,,6,,,78,127
76121,note_on,4,0,0,,10,,,81,127
76211,note_off,90,0,0,,2,,,38,127
76216,note_off,5,0,0,,10,,,81,127
76221,note_on,5,0,0,,2,,,38,127
76221,note_on,0,0,0,,4,,,76,127
76253,note_on,32,0,0,,2,,,74,127
76268,note_off,15,0,0,,4,,,76,127
76287,note_on,19,0,0,,4,,,76,127
76300,note_off,13,0,0,,2,,,74,127
76321,note_on,21,0,0,,2,,,74,127
76334,note_off,13,0,0,,4,,,76,127
77990,note_off,1656,0,0,,2,,,38,127
77992,note_off,2,0,0,,2,,,74,127
82944,end_of_track,4952,1,0,,,,,,
