tick,type,time,meta,track,program,channel,pitch,tempo,note,velocity
0,copyright,0,1,0,,,,,,
0,program_change,0,0,0,6,0,,,,
0,pitchwheel,0,0,0,,0,0,,,
0,program_change,0,0,0,6,1,,,,
0,pitchwheel,0,0,0,,1,-590,,,
0,program_change,0,0,0,6,2,,,,
0,pitchwheel,0,0,0,,2,-272,,,
0,program_change,0,0,0,6,3,,,,
0,pitchwheel,0,0,0,,3,-353,,,
0,program_change,0,0,0,6,4,,,,
0,pitchwheel,0,0,0,,4,-560,,,
0,program_change,0,0,0,6,5,,,,
0,pitchwheel,0,0,0,,5,-80,,,
0,program_change,0,0,0,6,6,,,,
0,pitchwheel,0,0,0,,6,-625,,,
0,program_change,0,0,0,6,7,,,,
0,pitchwheel,0,0,0,,7,-130,,,
0,program_change,0,0,0,6,8,,,,
0,pitchwheel,0,0,0,,8,-512,,,
0,program_change,0,0,0,6,10,,,,
0,pitchwheel,0,0,0,,10,-464,,,
0,program_change,0,0,0,6,11,,,,
0,pitchwheel,0,0,0,,11,-208,,,
0,program_change,0,0,0,6,12,,,,
0,pitchwheel,0,0,0,,12,-553,,,
0,set_tempo,0,1,0,,,,500000,,
101,note_on,101,0,0,,7,,,67,127
101,note_on,0,0,0,,7,,,79,127
301,note_off,200,0,0,,7,,,79,127
303,note_on,2,0,0,,2,,,74,127
503,note_off,200,0,0,,2,,,74,127
505,note_on,2,0,0,,12,,,71,127
705,note_off,200,0,0,,12,,,71,127
705,note_off,0,0,0,,7,,,67,127
707,note_on,2,0,0,,7,,,67,127
707,note_on,0,0,0,,7,,,79,127
907,note_off,200,0,0,,7,,,79,127
909,note_on,2,0,0,,4,,,76,127
1109,note_off,200,0,0,,4,,,76,127
1111,note_on,2,0,0,,0,,,72,127
1311,note_off,200,0,0,,0,,,72,127
1311,note_off,0,0,0,,7,,,67,127
1313,note_on,2,0,0,,7,,,67,127
1313,note_on,0,0,0,,7,,,79,127
1513,note_off,200,0,0,,7,,,79,127
1515,note_on,2,0,0,,2,,,74,127
1715,note_off,200,0,0,,2,,,74,127
1717,note_on,2,0,0,,12,,,71,127
1917,note_off,200,0,0,,12,,,71,127
1917,note_off,0,0,0,,7,,,67,127
1919,note_on,2,0,0,,6,,,66,127
1919,note_on,0,0,0,,10,,,81,127
2018,note_off,99,0,0,,10,,,81,127
2020,note_on,2,0,0,,7,,,79,127
2119,note_off,99,0,0,,7,,,79,127
2121,note_on,2,0,0,,6,,,78,127
2220,note_off,99,0,0,,6,,,78,127
2222,note_on,2,0,0,,4,,,76,127
2321,note_off,99,0,0,,4,,,76,127
2323,note_on,2,0,0,,2,,,74,127
2422,note_off,99,0,0,,2,,,74,127
2424,note_on,2,0,0,,0,,,72,127
2523,note_off,99,0,0,,0,,,72,127
2523,note_off,0,0,0,,6,,,66,127
2525,note_on,2,0,0,,7,,,67,127
2525,note_on,0,0,0,,12,,,71,127
2624,note_off,99,0,0,,7,,,67,127
2626,note_on,2,0,0,,6,,,66,127
2725,note_off,99,0,0,,6,,,66,127
2727,note_on,2,0,0,,4,,,64,127
2826,note_off,99,0,0,,4,,,64,127
2828,note_on,2,0,0,,2,,,62,127
2927,note_off,99,0,0,,2,,,62,127
2929,note_on,2,0,0,,0,,,60,127
3028,note_off,99,0,0,,0,,,60,127
3030,note_on,2,0,0,,12,,,59,127
3129,note_off,99,0,0,,12,,,59,127
3129,note_off,0,0,0,,12,,,71,127
3131,note_on,2,0,0,,0,,,60,127
3131,note_on,0,0,0,,10,,,69,127
3232,note_on,101,0,0,,0,,,72,127
3257,note_off,25,0,0,,10,,,69,127
3331,note_off,74,0,0,,0,,,72,127
3331,note_off,0,0,0,,0,,,60,127
3333,note_on,2,0,0,,2,,,62,127
3333,note_on,0,0,0,,12,,,71,127
3432,note_off,99,0,0,,12,,,71,127
3434,note_on,2,0,0,,10,,,69,127
3533,note_off,99,0,0,,10,,,69,127
3533,note_off,0,0,0,,2,,,62,127
3535,note_on,2,0,0,,0,,,60,127
3535,note_on,0,0,0,,7,,,67,127
3634,note_off,99,0,0,,7,,,67,127
3636,note_on,2,0,0,,6,,,66,127
3735,note_off,99,0,0,,6,,,66,127
3735,note_off,0,0,0,,0,,,60,127
3737,note_on,2,0,0,,12,,,59,127
3737,note_on,0,0,0,,2,,,74,127
3836,note_off,99,0,0,,12,,,59,127
3838,note_on,2,0,0,,10,,,57,127
3937,note_off,99,0,0,,10,,,57,127
3939,note_on,2,0,0,,7,,,55,127
4038,note_off,99,0,0,,7,,,55,127
4040,note_on,2,0,0,,6,,,54,127
4139,note_off,99,0,0,,6,,,54,127
4141,note_on,2,0,0,,4,,,52,127
4240,note_off,99,0,0,,4,,,52,127
4242,note_on,2,0,0,,2,,,50,127
4341,note_off,99,0,0,,2,,,50,127
4341,note_off,0,0,0,,2,,,74,127
4343,note_on,2,0,0,,0,,,48,127
4343,note_on,0,0,0,,10,,,69,127
4444,note_on,101,0,0,,0,,,72,127
4469,note_off,25,0,0,,10,,,69,127
4543,note_off,74,0,0,,0,,,72,127
4543,note_off,0,0,0,,0,,,48,127
4545,note_on,2,0,0,,2,,,50,127
4545,note_on,0,0,0,,12,,,71,127
4644,note_off,99,0,0,,12,,,71,127
4646,note_on,2,0,0,,10,,,69,127
4745,note_off,99,0,0,,10,,,69,127
4745,note_off,0,0,0,,2,,,50,127
4747,note_on,2,0,0,,0,,,48,127
4747,note_on,0,0,0,,7,,,67,127
4846,note_off,99,0,0,,7,,,67,127
4848,note_on,2,0,0,,6,,,66,127
4947,note_off,99,0,0,,6,,,66,127
4947,note_off,0,0,0,,0,,,48,127
4949,note_on,2,0,0,,12,,,47,127
4949,note_on,0,0,0,,2,,,74,127
5048,note_off,99,0,0,,12,,,47,127
5050,note_on,2,0,0,,10,,,45,127
5149,note_off,99,0,0,,10,,,45,127
5151,note_on,2,0,0,,7,,,43,127
5250,note_off,99,0,0,,7,,,43,127
5252,note_on,2,0,0,,6,,,42,127
5351,note_off,99,0,0,,6,,,42,127
5353,note_on,2,0,0,,4,,,40,127
5452,note_off,99,0,0,,4,,,40,127
5454,note_on,2,0,0,,2,,,38,127
5553,note_off,99,0,0,,2,,,38,127
5553,note_off,0,0,0,,2,,,74,127
5555,note_on,2,0,0,,0,,,36,127
5555,note_on,0,0,0,,10,,,69,127
5656,note_on,101,0,0,,0,,,72,127
5681,note_off,25,0,0,,10,,,69,127
5755,note_off,74,0,0,,0,,,72,127
5755,note_off,0,0,0,,0,,,36,127
5757,note_on,2,0,0,,2,,,38,127
5757,note_on,0,0,0,,12,,,71,127
5856,note_off,99,0,0,,12,,,71,127
5858,note_on,2,0,0,,10,,,69,127
5957,note_off,99,0,0,,10,,,69,127
5957,note_off,0,0,0,,2,,,38,127
5959,note_on,2,0,0,,2,,,38,127
5959,note_on,0,0,0,,7,,,67,127
6058,note_off,99,0,0,,7,,,67,127
6060,note_on,2,0,0,,6,,,66,127
6159,note_off,99,0,0,,6,,,66,127
6159,note_off,0,0,0,,2,,,38,127
6161,note_on,2,0,0,,7,,,43,127
6161,note_on,0,0,0,,6,,,66,127
6563,note_off,402,0,0,,6,,,66,127
6565,note_on,2,0,0,,7,,,67,127
6765,note_off,200,0,0,,7,,,67,127
6766,note_off,1,0,0,,7,,,43,127
6767,note_on,1,0,0,,2,,,74,127
6767,note_on,0,0,0,,12,,,71,127
6967,note_off,200,0,0,,12,,,71,127
6969,note_on,2,0,0,,2,,,62,127
7169,note_off,200,0,0,,2,,,62,127
7170,note_off,1,0,0,,2,,,74,127
7171,note_on,1,0,0,,12,,,59,127
7171,note_on,0,0,0,,12,,,71,127
7171,note_on,0,0,0,,2,,,74,127
7371,note_off,200,0,0,,2,,,74,127
7371,note_off,0,0,0,,12,,,71,127
7371,note_off,0,0,0,,12,,,59,127
7373,note_on,2,0,0,,10,,,57,127
7373,note_on,0,0,0,,12,,,71,127
7373,note_on,0,0,0,,2,,,74,127
7421,note_off,48,0,0,,2,,,74,127
7421,note_off,0,0,0,,12,,,71,127
7423,note_on,2,0,0,,10,,,69,127
7423,note_on,0,0,0,,0,,,72,127
7471,note_off,48,0,0,,0,,,72,127
7471,note_off,0,0,0,,10,,,69,127
7473,note_on,2,0,0,,2,,,74,127
7473,note_on,0,0,0,,12,,,71,127
7521,note_off,48,0,0,,12,,,71,127
7521,note_off,0,0,0,,2,,,74,127
7523,note_on,2,0,0,,0,,,72,127
7523,note_on,0,0,0,,10,,,69,127
7571,note_off,48,0,0,,10,,,69,127
7571,note_off,0,0,0,,0,,,72,127
7571,note_off,0,0,0,,10,,,57,127
7573,note_on,2,0,0,,2,,,50,127
7573,note_on,0,0,0,,2,,,74,127
7573,note_on,0,0,0,,12,,,71,127
7621,note_off,48,0,0,,12,,,71,127
7621,note_off,0,0,0,,2,,,74,127
7623,note_on,2,0,0,,10,,,69,127
7623,note_on,0,0,0,,0,,,72,127
7671,note_off,48,0,0,,0,,,72,127
7671,note_off,0,0,0,,10,,,69,127
7673,note_on,2,0,0,,2,,,74,127
7673,note_on,0,0,0,,12,,,71,127
7721,note_off,48,0,0,,12,,,71,127
7721,note_off,0,0,0,,2,,,74,127
7723,note_on,2,0,0,,10,,,69,127
7723,note_on,0,0,0,,0,,,72,127
7771,note_off,48,0,0,,0,,,72,127
7771,note_off,0,0,0,,10,,,69,127
7771,note_off,0,0,0,,2,,,50,127
7773,note_on,2,0,0,,7,,,55,127
7773,note_on,0,0,0,,12,,,71,127
7773,note_on,0,0,0,,7,,,67,127
7973,note_off,200,0,0,,7,,,67,127
7973,note_off,0,0,0,,12,,,71,127
7975,note_on,2,0,0,,12,,,83,127
7975,note_on,0,0,0,,7,,,79,127
8175,note_off,200,0,0,,7,,,79,127
8177,note_on,2,0,0,,12,,,71,127
8377,note_off,200,0,0,,12,,,71,127
8377,note_off,0,0,0,,7,,,55,127
8378,note_off,1,0,0,,12,,,83,127
8379,note_on,1,0,0,,7,,,55,127
8379,note_on,0,0,0,,7,,,79,127
8379,note_on,0,0,0,,12,,,83,127
8579,note_off,200,0,0,,12,,,83,127
8579,note_off,0,0,0,,7,,,79,127
8579,note_off,0,0,0,,7,,,55,127
8581,note_on,2,0,0,,2,,,62,127
8581,note_on,0,0,0,,7,,,79,127
8581,note_on,0,0,0,,12,,,83,127
8629,note_off,48,0,0,,12,,,83,127
8629,note_off,0,0,0,,7,,,79,127
8631,note_on,2,0,0,,6,,,78,127
8631,note_on,0,0,0,,10,,,81,127
8679,note_off,48,0,0,,10,,,81,127
8679,note_off,0,0,0,,6,,,78,127
8681,note_on,2,0,0,,12,,,83,127
8681,note_on,0,0,0,,7,,,79,127
8729,note_off,48,0,0,,7,,,79,127
8729,note_off,0,0,0,,12,,,83,127
8731,note_on,2,0,0,,10,,,81,127
8731,note_on,0,0,0,,6,,,78,127
8779,note_off,48,0,0,,6,,,78,127
8779,note_off,0,0,0,,10,,,81,127
8779,note_off,0,0,0,,2,,,62,127
8781,note_on,2,0,0,,2,,,50,127
8781,note_on,0,0,0,,12,,,83,127
8781,note_on,0,0,0,,7,,,79,127
8829,note_off,48,0,0,,7,,,79,127
8829,note_off,0,0,0,,12,,,83,127
8831,note_on,2,0,0,,10,,,81,127
8831,note_on,0,0,0,,6,,,78,127
8879,note_off,48,0,0,,6,,,78,127
8879,note_off,0,0,0,,10,,,81,127
8881,note_on,2,0,0,,4,,,76,127
8881,note_on,0,0,0,,7,,,79,127
8929,note_off,48,0,0,,7,,,79,127
8929,note_off,0,0,0,,4,,,76,127
8931,note_on,2,0,0,,6,,,78,127
8931,note_on,0,0,0,,10,,,81,127
8979,note_off,48,0,0,,10,,,81,127
8979,note_off,0,0,0,,6,,,78,127
8979,note_off,0,0,0,,2,,,50,127
8981,note_on,2,0,0,,7,,,43,127
8981,note_on,0,0,0,,7,,,79,127
8981,note_on,0,0,0,,12,,,83,127
9181,note_off,200,0,0,,12,,,83,127
9181,note_off,0,0,0,,7,,,79,127
9183,note_on,2,0,0,,2,,,74,127
9183,note_on,0,0,0,,12,,,71,127
9383,note_off,200,0,0,,12,,,71,127
9385,note_on,2,0,0,,2,,,62,127
9585,note_off,200,0,0,,2,,,62,127
9585,note_off,0,0,0,,7,,,43,127
9586,note_off,1,0,0,,2,,,74,127
9587,note_on,1,0,0,,12,,,59,127
9587,note_on,0,0,0,,2,,,74,127
9587,note_on,0,0,0,,12,,,71,127
9787,note_off,200,0,0,,12,,,71,127
9787,note_off,0,0,0,,2,,,74,127
9787,note_off,0,0,0,,12,,,59,127
9789,note_on,2,0,0,,10,,,57,127
9789,note_on,0,0,0,,12,,,71,127
9789,note_on,0,0,0,,2,,,74,127
9837,note_off,48,0,0,,2,,,74,127
9837,note_off,0,0,0,,12,,,71,127
9839,note_on,2,0,0,,0,,,72,127
9839,note_on,0,0,0,,10,,,69,127
9887,note_off,48,0,0,,10,,,69,127
9887,note_off,0,0,0,,0,,,72,127
9889,note_on,2,0,0,,12,,,71,127
9889,note_on,0,0,0,,2,,,74,127
9937,note_off,48,0,0,,2,,,74,127
9937,note_off,0,0,0,,12,,,71,127
9939,note_on,2,0,0,,0,,,72,127
9939,note_on,0,0,0,,10,,,69,127
9987,note_off,48,0,0,,10,,,69,127
9987,note_off,0,0,0,,0,,,72,127
9987,note_off,0,0,0,,10,,,57,127
9989,note_on,2,0,0,,2,,,50,127
9989,note_on,0,0,0,,2,,,74,127
9989,note_on,0,0,0,,12,,,71,127
10037,note_off,48,0,0,,12,,,71,127
10037,note_off,0,0,0,,2,,,74,127
10039,note_on,2,0,0,,10,,,69,127
10039,note_on,0,0,0,,0,,,72,127
10087,note_off,48,0,0,,0,,,72,127
10087,note_off,0,0,0,,10,,,69,127
10089,note_on,2,0,0,,2,,,74,127
10089,note_on,0,0,0,,12,,,71,127
10137,note_off,48,0,0,,12,,,71,127
10137,note_off,0,0,0,,2,,,74,127
10139,note_on,2,0,0,,0,,,72,127
10139,note_on,0,0,0,,10,,,69,127
10187,note_off,48,0,0,,10,,,69,127
10187,note_off,0,0,0,,0,,,72,127
10187,note_off,0,0,0,,2,,,50,127
10189,note_on,2,0,0,,7,,,55,127
10189,note_on,0,0,0,,7,,,67,127
10189,note_on,0,0,0,,12,,,71,127
10389,note_off,200,0,0,,12,,,71,127
10389,note_off,0,0,0,,7,,,67,127
10391,note_on,2,0,0,,12,,,83,127
10391,note_on,0,0,0,,7,,,79,127
10591,note_off,200,0,0,,7,,,79,127
10593,note_on,2,0,0,,12,,,71,127
10793,note_off,200,0,0,,12,,,71,127
10793,note_off,0,0,0,,7,,,55,127
10794,note_off,1,0,0,,12,,,83,127
10795,note_on,1,0,0,,7,,,55,127
10795,note_on,0,0,0,,12,,,83,127
10795,note_on,0,0,0,,7,,,79,127
10995,note_off,200,0,0,,7,,,79,127
10995,note_off,0,0,0,,12,,,83,127
10995,note_off,0,0,0,,7,,,55,127
10997,note_on,2,0,0,,2,,,62,127
10997,note_on,0,0,0,,12,,,83,127
10997,note_on,0,0,0,,7,,,79,127
11045,note_off,48,0,0,,7,,,79,127
11045,note_off,0,0,0,,12,,,83,127
11047,note_on,2,0,0,,10,,,81,127
11047,note_on,0,0,0,,6,,,78,127
11095,note_off,48,0,0,,6,,,78,127
11095,note_off,0,0,0,,10,,,81,127
11097,note_on,2,0,0,,12,,,83,127
11097,note_on,0,0,0,,7,,,79,127
11145,note_off,48,0,0,,7,,,79,127
11145,note_off,0,0,0,,12,,,83,127
11147,note_on,2,0,0,,6,,,78,127
11147,note_on,0,0,0,,10,,,81,127
11195,note_off,48,0,0,,10,,,81,127
11195,note_off,0,0,0,,6,,,78,127
11195,note_off,0,0,0,,2,,,62,127
11197,note_on,2,0,0,,2,,,50,127
11197,note_on,0,0,0,,7,,,79,127
11197,note_on,0,0,0,,12,,,83,127
11245,note_off,48,0,0,,12,,,83,127
11245,note_off,0,0,0,,7,,,79,127
11247,note_on,2,0,0,,6,,,78,127
11247,note_on,0,0,0,,10,,,81,127
11295,note_off,48,0,0,,10,,,81,127
11295,note_off,0,0,0,,6,,,78,127
11297,note_on,2,0,0,,4,,,76,127
11297,note_on,0,0,0,,7,,,79,127
11345,note_off,48,0,0,,7,,,79,127
11345,note_off,0,0,0,,4,,,76,127
11347,note_on,2,0,0,,10,,,81,127
11347,note_on,0,0,0,,6,,,78,127
11395,note_off,48,0,0,,6,,,78,127
11395,note_off,0,0,0,,10,,,81,127
11395,note_off,0,0,0,,2,,,50,127
11397,note_on,2,0,0,,7,,,43,127
11397,note_on,0,0,0,,7,,,79,127
11397,note_on,0,0,0,,12,,,83,127
11597,note_off,200,0,0,,7,,,43,127
11599,note_on,2,0,0,,7,,,67,127
11698,note_off,99,0,0,,12,,,83,127
11698,note_off,0,0,0,,7,,,79,127
11700,note_on,2,0,0,,12,,,83,127
11801,note_on,101,0,0,,12,,,71,127
11900,note_off,99,0,0,,12,,,71,127
11900,note_off,0,0,0,,12,,,83,127
11902,note_on,2,0,0,,1,,,73,127
12001,note_off,99,0,0,,1,,,73,127
12003,note_on,2,0,0,,2,,,74,127
12102,note_off,99,0,0,,2,,,74,127
12104,note_on,2,0,0,,4,,,76,127
12203,note_off,99,0,0,,4,,,76,127
12203,note_off,0,0,0,,7,,,67,127
12205,note_on,2,0,0,,5,,,65,127
12205,note_on,0,0,0,,5,,,77,127
12304,note_off,99,0,0,,5,,,77,127
12306,note_on,2,0,0,,8,,,80,127
12405,note_off,99,0,0,,8,,,80,127
12407,note_on,2,0,0,,10,,,81,127
12506,note_off,99,0,0,,10,,,81,127
12508,note_on,2,0,0,,8,,,80,127
12607,note_off,99,0,0,,8,,,80,127
12609,note_on,2,0,0,,8,,,80,127
12708,note_off,99,0,0,,8,,,80,127
12710,note_on,2,0,0,,10,,,81,127
12809,note_off,99,0,0,,5,,,65,127
12811,note_on,2,0,0,,5,,,65,127
12910,note_off,99,0,0,,10,,,81,127
12912,note_on,2,0,0,,10,,,81,127
13013,note_on,101,0,0,,10,,,69,127
13112,note_off,99,0,0,,10,,,69,127
13112,note_off,0,0,0,,10,,,81,127
13114,note_on,2,0,0,,12,,,71,127
13213,note_off,99,0,0,,12,,,71,127
13215,note_on,2,0,0,,1,,,73,127
13314,note_off,99,0,0,,1,,,73,127
13316,note_on,2,0,0,,2,,,74,127
13415,note_off,99,0,0,,2,,,74,127
13415,note_off,0,0,0,,5,,,65,127
13417,note_on,2,0,0,,4,,,64,127
13417,note_on,0,0,0,,4,,,76,127
13516,note_off,99,0,0,,4,,,76,127
13518,note_on,2,0,0,,6,,,78,127
13617,note_off,99,0,0,,6,,,78,127
13619,note_on,2,0,0,,7,,,79,127
13718,note_off,99,0,0,,7,,,79,127
13720,note_on,2,0,0,,6,,,78,127
13819,note_off,99,0,0,,6,,,78,127
13821,note_on,2,0,0,,6,,,78,127
13920,note_off,99,0,0,,6,,,78,127
13922,note_on,2,0,0,,7,,,79,127
14021,note_off,99,0,0,,4,,,64,127
14023,note_on,2,0,0,,7,,,67,127
14023,note_on,0,0,0,,4,,,64,127
14122,note_off,99,0,0,,7,,,79,127
14124,note_on,2,0,0,,7,,,79,127
14223,note_off,99,0,0,,7,,,79,127
14225,note_on,2,0,0,,1,,,73,127
14324,note_off,99,0,0,,1,,,73,127
14326,note_on,2,0,0,,2,,,74,127
14425,note_off,99,0,0,,2,,,74,127
14425,note_off,0,0,0,,4,,,64,127
14426,note_off,1,0,0,,7,,,67,127
14427,note_on,1,0,0,,2,,,62,127
14427,note_on,0,0,0,,7,,,67,127
14526,note_off,99,0,0,,7,,,67,127
14528,note_on,2,0,0,,11,,,70,127
14627,note_off,99,0,0,,11,,,70,127
14627,note_off,0,0,0,,2,,,62,127
14629,note_on,2,0,0,,1,,,61,127
14629,note_on,0,0,0,,10,,,69,127
14730,note_on,101,0,0,,7,,,79,127
14829,note_off,99,0,0,,7,,,79,127
14831,note_on,2,0,0,,5,,,77,127
14930,note_off,99,0,0,,5,,,77,127
14932,note_on,2,0,0,,4,,,76,127
15031,note_off,99,0,0,,4,,,76,127
15031,note_off,0,0,0,,1,,,61,127
15033,note_on,2,0,0,,2,,,62,127
15033,note_on,0,0,0,,10,,,81,127
15132,note_off,99,0,0,,10,,,81,127
15134,note_on,2,0,0,,2,,,74,127
15233,note_off,99,0,0,,2,,,62,127
15234,note_off,1,0,0,,10,,,69,127
15235,note_on,1,0,0,,4,,,64,127
15235,note_on,0,0,0,,7,,,67,127
15334,note_off,99,0,0,,2,,,74,127
15336,note_on,2,0,0,,7,,,79,127
15435,note_off,99,0,0,,7,,,79,127
15437,note_on,2,0,0,,1,,,73,127
15536,note_off,99,0,0,,1,,,73,127
15538,note_on,2,0,0,,2,,,74,127
15637,note_off,99,0,0,,2,,,74,127
15637,note_off,0,0,0,,4,,,64,127
15638,note_off,1,0,0,,7,,,67,127
15639,note_on,1,0,0,,2,,,62,127
15639,note_on,0,0,0,,7,,,67,127
15738,note_off,99,0,0,,7,,,67,127
15740,note_on,2,0,0,,11,,,70,127
15839,note_off,99,0,0,,11,,,70,127
15839,note_off,0,0,0,,2,,,62,127
15841,note_on,2,0,0,,1,,,61,127
15841,note_on,0,0,0,,10,,,69,127
15942,note_on,101,0,0,,7,,,79,127
16041,note_off,99,0,0,,7,,,79,127
16043,note_on,2,0,0,,5,,,77,127
16142,note_off,99,0,0,,5,,,77,127
16144,note_on,2,0,0,,4,,,76,127
16243,note_off,99,0,0,,4,,,76,127
16243,note_off,0,0,0,,1,,,61,127
16245,note_on,2,0,0,,2,,,62,127
16245,note_on,0,0,0,,10,,,81,127
16344,note_off,99,0,0,,10,,,81,127
16346,note_on,2,0,0,,2,,,74,127
16445,note_off,99,0,0,,2,,,62,127
16446,note_off,1,0,0,,10,,,69,127
16447,note_on,1,0,0,,7,,,67,127
16447,note_on,0,0,0,,4,,,64,127
16546,note_off,99,0,0,,2,,,74,127
16548,note_on,2,0,0,,7,,,79,127
16647,note_off,99,0,0,,7,,,79,127
16649,note_on,2,0,0,,1,,,73,127
16748,note_off,99,0,0,,1,,,73,127
16750,note_on,2,0,0,,2,,,74,127
16849,note_off,99,0,0,,2,,,74,127
16849,note_off,0,0,0,,4,,,64,127
16850,note_off,1,0,0,,7,,,67,127
16851,note_on,1,0,0,,2,,,62,127
16851,note_on,0,0,0,,7,,,67,127
16950,note_off,99,0,0,,7,,,67,127
16952,note_on,2,0,0,,11,,,70,127
17051,note_off,99,0,0,,11,,,70,127
17051,note_off,0,0,0,,2,,,62,127
17053,note_on,2,0,0,,1,,,61,127
17053,note_on,0,0,0,,10,,,69,127
17154,note_on,101,0,0,,7,,,79,127
17253,note_off,99,0,0,,7,,,79,127
17255,note_on,2,0,0,,5,,,77,127
17354,note_off,99,0,0,,5,,,77,127
17356,note_on,2,0,0,,4,,,76,127
17455,note_off,99,0,0,,4,,,76,127
17455,note_off,0,0,0,,1,,,61,127
17456,note_off,1,0,0,,10,,,69,127
17457,note_on,1,0,0,,2,,,62,127
17457,note_on,0,0,0,,5,,,65,127
17457,note_on,0,0,0,,5,,,77,127
17556,note_off,99,0,0,,5,,,77,127
17558,note_on,2,0,0,,7,,,79,127
17657,note_off,99,0,0,,7,,,79,127
17657,note_off,0,0,0,,5,,,65,127
17657,note_off,0,0,0,,2,,,62,127
17659,note_on,2,0,0,,7,,,55,127
17659,note_on,0,0,0,,5,,,77,127
17718,note_off,59,0,0,,5,,,77,127
17719,note_on,1,0,0,,4,,,76,127
17758,note_off,39,0,0,,7,,,55,127
17760,note_on,2,0,0,,11,,,58,127
17777,note_off,17,0,0,,4,,,76,127
17780,note_on,3,0,0,,5,,,77,127
17839,note_off,59,0,0,,5,,,77,127
17840,note_on,1,0,0,,4,,,76,127
17859,note_off,19,0,0,,11,,,58,127
17861,note_on,2,0,0,,10,,,57,127
17898,note_off,37,0,0,,4,,,76,127
17901,note_on,3,0,0,,5,,,77,127
17960,note_off,59,0,0,,5,,,77,127
17960,note_off,0,0,0,,10,,,57,127
17962,note_on,2,0,0,,2,,,62,127
17962,note_on,0,0,0,,4,,,76,127
18021,note_off,59,0,0,,4,,,76,127
18022,note_on,1,0,0,,5,,,77,127
18061,note_off,39,0,0,,2,,,62,127
18063,note_on,2,0,0,,1,,,61,127
18080,note_off,17,0,0,,5,,,77,127
18083,note_on,3,0,0,,4,,,76,127
18142,note_off,59,0,0,,4,,,76,127
18143,note_on,1,0,0,,5,,,77,127
18162,note_off,19,0,0,,1,,,61,127
18164,note_on,2,0,0,,7,,,67,127
18201,note_off,37,0,0,,5,,,77,127
18204,note_on,3,0,0,,4,,,76,127
18263,note_off,59,0,0,,7,,,67,127
18265,note_on,2,0,0,,5,,,65,127
18364,note_off,99,0,0,,4,,,76,127
18366,note_on,2,0,0,,2,,,74,127
18465,note_off,99,0,0,,2,,,74,127
18467,note_on,2,0,0,,4,,,76,127
18566,note_off,99,0,0,,4,,,76,127
18568,note_on,2,0,0,,5,,,77,127
18667,note_off,99,0,0,,5,,,77,127
18669,note_on,2,0,0,,8,,,80,127
18768,note_off,99,0,0,,8,,,80,127
18770,note_on,2,0,0,,10,,,81,127
18869,note_off,99,0,0,,10,,,81,127
18869,note_off,0,0,0,,5,,,65,127
18871,note_on,2,0,0,,7,,,55,127
18871,note_on,0,0,0,,5,,,77,127
18930,note_off,59,0,0,,5,,,77,127
18931,note_on,1,0,0,,4,,,76,127
18970,note_off,39,0,0,,7,,,55,127
18972,note_on,2,0,0,,11,,,58,127
18989,note_off,17,0,0,,4,,,76,127
18992,note_on,3,0,0,,5,,,77,127
19051,note_off,59,0,0,,5,,,77,127
19052,note_on,1,0,0,,4,,,76,127
19071,note_off,19,0,0,,11,,,58,127
19073,note_on,2,0,0,,10,,,57,127
19110,note_off,37,0,0,,4,,,76,127
19113,note_on,3,0,0,,5,,,77,127
19172,note_off,59,0,0,,5,,,77,127
19172,note_off,0,0,0,,10,,,57,127
19174,note_on,2,0,0,,2,,,62,127
19174,note_on,0,0,0,,4,,,76,127
19233,note_off,59,0,0,,4,,,76,127
19234,note_on,1,0,0,,5,,,77,127
19273,note_off,39,0,0,,2,,,62,127
19275,note_on,2,0,0,,1,,,61,127
19292,note_off,17,0,0,,5,,,77,127
19295,note_on,3,0,0,,4,,,76,127
19354,note_off,59,0,0,,4,,,76,127
19355,note_on,1,0,0,,5,,,77,127
19374,note_off,19,0,0,,1,,,61,127
19376,note_on,2,0,0,,7,,,67,127
19413,note_off,37,0,0,,5,,,77,127
19416,note_on,3,0,0,,4,,,76,127
19475,note_off,59,0,0,,7,,,67,127
19477,note_on,2,0,0,,5,,,65,127
19576,note_off,99,0,0,,4,,,76,127
19578,note_on,2,0,0,,2,,,74,127
19677,note_off,99,0,0,,2,,,74,127
19679,note_on,2,0,0,,4,,,76,127
19778,note_off,99,0,0,,4,,,76,127
19780,note_on,2,0,0,,5,,,77,127
19879,note_off,99,0,0,,5,,,77,127
19881,note_on,2,0,0,,8,,,80,127
19980,note_off,99,0,0,,8,,,80,127
19982,note_on,2,0,0,,10,,,81,127
20081,note_off,99,0,0,,10,,,81,127
20081,note_off,0,0,0,,5,,,65,127
20083,note_on,2,0,0,,7,,,55,127
20083,note_on,0,0,0,,5,,,77,127
20142,note_off,59,0,0,,5,,,77,127
20143,note_on,1,0,0,,4,,,76,127
20182,note_off,39,0,0,,7,,,55,127
20184,note_on,2,0,0,,11,,,58,127
20201,note_off,17,0,0,,4,,,76,127
20204,note_on,3,0,0,,5,,,77,127
20263,note_off,59,0,0,,5,,,77,127
20264,note_on,1,0,0,,4,,,76,127
20283,note_off,19,0,0,,11,,,58,127
20285,note_on,2,0,0,,10,,,57,127
20322,note_off,37,0,0,,4,,,76,127
20325,note_on,3,0,0,,5,,,77,127
20384,note_off,59,0,0,,5,,,77,127
20384,note_off,0,0,0,,10,,,57,127
20386,note_on,2,0,0,,2,,,62,127
20386,note_on,0,0,0,,4,,,76,127
20445,note_off,59,0,0,,4,,,76,127
20446,note_on,1,0,0,,5,,,77,127
20485,note_off,39,0,0,,2,,,62,127
20487,note_on,2,0,0,,1,,,61,127
20504,note_off,17,0,0,,5,,,77,127
20507,note_on,3,0,0,,4,,,76,127
20566,note_off,59,0,0,,4,,,76,127
20567,note_on,1,0,0,,5,,,77,127
20586,note_off,19,0,0,,1,,,61,127
20588,note_on,2,0,0,,7,,,67,127
20625,note_off,37,0,0,,5,,,77,127
20628,note_on,3,0,0,,4,,,76,127
20687,note_off,59,0,0,,7,,,67,127
20689,note_on,2,0,0,,6,,,66,127
20788,note_off,99,0,0,,4,,,76,127
20790,note_on,2,0,0,,10,,,81,127
20889,note_off,99,0,0,,10,,,81,127
20891,note_on,2,0,0,,6,,,78,127
20990,note_off,99,0,0,,6,,,78,127
20992,note_on,2,0,0,,4,,,76,127
21091,note_off,99,0,0,,4,,,76,127
21093,note_on,2,0,0,,2,,,74,127
21192,note_off,99,0,0,,2,,,74,127
21194,note_on,2,0,0,,1,,,73,127
21293,note_off,99,0,0,,1,,,73,127
21293,note_off,0,0,0,,6,,,66,127
21295,note_on,2,0,0,,7,,,67,127
21295,note_on,0,0,0,,12,,,71,127
21396,note_on,101,0,0,,12,,,83,127
21495,note_off,99,0,0,,12,,,83,127
21495,note_off,0,0,0,,12,,,71,127
21497,note_on,2,0,0,,7,,,79,127
21596,note_off,99,0,0,,7,,,79,127
21598,note_on,2,0,0,,6,,,78,127
21697,note_off,99,0,0,,6,,,78,127
21699,note_on,2,0,0,,4,,,76,127
21798,note_off,99,0,0,,4,,,76,127
21800,note_on,2,0,0,,2,,,74,127
21899,note_off,99,0,0,,2,,,74,127
21899,note_off,0,0,0,,7,,,67,127
21901,note_on,2,0,0,,10,,,69,127
21901,note_on,0,0,0,,1,,,73,127
22000,note_off,99,0,0,,1,,,73,127
22002,note_on,2,0,0,,12,,,71,127
22101,note_off,99,0,0,,12,,,71,127
22101,note_off,0,0,0,,10,,,69,127
22103,note_on,2,0,0,,10,,,57,127
22103,note_on,0,0,0,,10,,,69,127
22202,note_off,99,0,0,,10,,,69,127
22204,note_on,2,0,0,,7,,,67,127
22303,note_off,99,0,0,,7,,,67,127
22303,note_off,0,0,0,,10,,,57,127
22305,note_on,2,0,0,,1,,,61,127
22305,note_on,0,0,0,,6,,,66,127
22404,note_off,99,0,0,,6,,,66,127
22406,note_on,2,0,0,,4,,,64,127
22505,note_off,99,0,0,,4,,,64,127
22505,note_off,0,0,0,,1,,,61,127
22507,note_on,2,0,0,,2,,,62,127
22507,note_on,0,0,0,,6,,,66,127
22606,note_off,99,0,0,,6,,,66,127
22608,note_on,2,0,0,,10,,,69,127
22707,note_off,99,0,0,,10,,,69,127
22707,note_off,0,0,0,,2,,,62,127
22709,note_on,2,0,0,,7,,,55,127
22709,note_on,0,0,0,,2,,,74,127
22808,note_off,99,0,0,,2,,,74,127
22810,note_on,2,0,0,,6,,,66,127
22909,note_off,99,0,0,,6,,,66,127
22909,note_off,0,0,0,,7,,,55,127
22911,note_on,2,0,0,,10,,,57,127
22911,note_on,0,0,0,,4,,,64,127
23010,note_off,99,0,0,,4,,,64,127
23012,note_on,2,0,0,,1,,,73,127
23111,note_off,99,0,0,,1,,,73,127
23111,note_off,0,0,0,,10,,,57,127
23113,note_on,2,0,0,,2,,,38,127
23113,note_on,0,0,0,,2,,,74,127
23212,note_off,99,0,0,,2,,,74,127
23214,note_on,2,0,0,,10,,,69,127
23313,note_off,99,0,0,,10,,,69,127
23313,note_off,0,0,0,,2,,,38,127
23315,note_on,2,0,0,,2,,,50,127
23315,note_on,0,0,0,,6,,,66,127
23414,note_off,99,0,0,,6,,,66,127
23416,note_on,2,0,0,,2,,,62,127
23515,note_off,99,0,0,,2,,,62,127
23515,note_off,0,0,0,,2,,,50,127
23517,note_on,2,0,0,,10,,,57,127
23517,note_on,0,0,0,,6,,,66,127
23616,note_off,99,0,0,,6,,,66,127
23618,note_on,2,0,0,,2,,,74,127
23717,note_off,99,0,0,,2,,,74,127
23717,note_off,0,0,0,,10,,,57,127
23719,note_on,2,0,0,,10,,,33,127
23719,note_on,0,0,0,,4,,,76,127
23818,note_off,99,0,0,,4,,,76,127
23820,note_on,2,0,0,,1,,,73,127
23919,note_off,99,0,0,,1,,,73,127
23919,note_off,0,0,0,,10,,,33,127
23921,note_on,2,0,0,,10,,,45,127
23921,note_on,0,0,0,,10,,,69,127
24020,note_off,99,0,0,,10,,,69,127
24022,note_on,2,0,0,,4,,,64,127
24121,note_off,99,0,0,,4,,,64,127
24121,note_off,0,0,0,,10,,,45,127
24123,note_on,2,0,0,,10,,,57,127
24123,note_on,0,0,0,,7,,,67,127
24222,note_off,99,0,0,,7,,,67,127
24224,note_on,2,0,0,,1,,,73,127
24323,note_off,99,0,0,,1,,,73,127
24323,note_off,0,0,0,,10,,,57,127
24325,note_on,2,0,0,,2,,,38,127
24325,note_on,0,0,0,,2,,,74,127
24424,note_off,99,0,0,,2,,,74,127
24426,note_on,2,0,0,,10,,,69,127
24525,note_off,99,0,0,,10,,,69,127
24525,note_off,0,0,0,,2,,,38,127
24527,note_on,2,0,0,,2,,,50,127
24527,note_on,0,0,0,,6,,,66,127
24626,note_off,99,0,0,,6,,,66,127
24628,note_on,2,0,0,,2,,,62,127
24727,note_off,99,0,0,,2,,,62,127
24727,note_off,0,0,0,,2,,,50,127
24729,note_on,2,0,0,,10,,,57,127
24729,note_on,0,0,0,,6,,,66,127
24828,note_off,99,0,0,,6,,,66,127
24830,note_on,2,0,0,,2,,,74,127
24929,note_off,99,0,0,,2,,,74,127
24929,note_off,0,0,0,,10,,,57,127
24931,note_on,2,0,0,,10,,,33,127
24931,note_on,0,0,0,,4,,,76,127
25030,note_off,99,0,0,,4,,,76,127
25032,note_on,2,0,0,,1,,,73,127
25131,note_off,99,0,0,,1,,,73,127
25131,note_off,0,0,0,,10,,,33,127
25133,note_on,2,0,0,,10,,,45,127
25133,note_on,0,0,0,,10,,,69,127
25232,note_off,99,0,0,,10,,,69,127
25234,note_on,2,0,0,,4,,,64,127
25333,note_off,99,0,0,,4,,,64,127
25333,note_off,0,0,0,,10,,,45,127
25335,note_on,2,0,0,,10,,,57,127
25335,note_on,0,0,0,,7,,,67,127
25434,note_off,99,0,0,,7,,,67,127
25436,note_on,2,0,0,,1,,,73,127
25535,note_off,99,0,0,,1,,,73,127
25535,note_off,0,0,0,,10,,,57,127
25537,note_on,2,0,0,,2,,,38,127
25537,note_on,0,0,0,,2,,,74,127
25636,note_off,99,0,0,,2,,,74,127
25638,note_on,2,0,0,,10,,,69,127
25737,note_off,99,0,0,,10,,,69,127
25737,note_off,0,0,0,,2,,,38,127
25739,note_on,2,0,0,,2,,,50,127
25739,note_on,0,0,0,,6,,,66,127
25838,note_off,99,0,0,,6,,,66,127
25840,note_on,2,0,0,,2,,,62,127
25939,note_off,99,0,0,,2,,,62,127
25939,note_off,0,0,0,,2,,,50,127
25941,note_on,2,0,0,,10,,,57,127
25941,note_on,0,0,0,,6,,,66,127
26040,note_off,99,0,0,,6,,,66,127
26042,note_on,2,0,0,,2,,,74,127
26141,note_off,99,0,0,,2,,,74,127
26141,note_off,0,0,0,,10,,,57,127
26143,note_on,2,0,0,,10,,,33,127
26143,note_on,0,0,0,,4,,,76,127
26242,note_off,99,0,0,,4,,,76,127
26244,note_on,2,0,0,,1,,,73,127
26343,note_off,99,0,0,,1,,,73,127
26343,note_off,0,0,0,,10,,,33,127
26345,note_on,2,0,0,,10,,,45,127
26345,note_on,0,0,0,,10,,,69,127
26444,note_off,99,0,0,,10,,,69,127
26446,note_on,2,0,0,,4,,,64,127
26545,note_off,99,0,0,,4,,,64,127
26545,note_off,0,0,0,,10,,,45,127
26547,note_on,2,0,0,,10,,,57,127
26547,note_on,0,0,0,,7,,,67,127
26646,note_off,99,0,0,,7,,,67,127
26648,note_on,2,0,0,,1,,,73,127
26747,note_off,99,0,0,,1,,,73,127
26747,note_off,0,0,0,,10,,,57,127
26749,note_on,2,0,0,,2,,,50,127
26749,note_on,0,0,0,,2,,,74,127
26749,note_on,0,0,0,,6,,,66,127
26848,note_off,99,0,0,,6,,,66,127
26850,note_on,2,0,0,,4,,,64,127
26949,note_off,99,0,0,,4,,,64,127
26949,note_off,0,0,0,,2,,,50,127
26951,note_on,2,0,0,,4,,,52,127
26951,note_on,0,0,0,,6,,,66,127
27050,note_off,99,0,0,,6,,,66,127
27052,note_on,2,0,0,,7,,,67,127
27151,note_off,99,0,0,,7,,,67,127
27151,note_off,0,0,0,,4,,,52,127
27152,note_off,1,0,0,,2,,,74,127
27153,note_on,1,0,0,,6,,,54,127
27153,note_on,0,0,0,,10,,,69,127
27252,note_off,99,0,0,,10,,,69,127
27254,note_on,2,0,0,,7,,,67,127
27353,note_off,99,0,0,,7,,,67,127
27353,note_off,0,0,0,,6,,,54,127
27355,note_on,2,0,0,,7,,,55,127
27355,note_on,0,0,0,,10,,,69,127
27454,note_off,99,0,0,,10,,,69,127
27456,note_on,2,0,0,,12,,,71,127
27555,note_off,99,0,0,,12,,,71,127
27555,note_off,0,0,0,,7,,,55,127
27557,note_on,2,0,0,,10,,,57,127
27557,note_on,0,0,0,,10,,,69,127
27656,note_off,99,0,0,,10,,,69,127
27658,note_on,2,0,0,,7,,,67,127
27757,note_off,99,0,0,,7,,,67,127
27757,note_off,0,0,0,,10,,,57,127
27759,note_on,2,0,0,,10,,,45,127
27759,note_on,0,0,0,,6,,,66,127
27858,note_off,99,0,0,,6,,,66,127
27860,note_on,2,0,0,,4,,,64,127
27959,note_off,99,0,0,,4,,,64,127
27959,note_off,0,0,0,,10,,,45,127
27961,note_on,2,0,0,,2,,,38,127
27961,note_on,0,0,0,,6,,,78,127
28060,note_off,99,0,0,,6,,,78,127
28062,note_on,2,0,0,,2,,,74,127
28161,note_off,99,0,0,,2,,,74,127
28161,note_off,0,0,0,,2,,,38,127
28163,note_on,2,0,0,,2,,,50,127
28163,note_on,0,0,0,,10,,,69,127
28262,note_off,99,0,0,,10,,,69,127
28264,note_on,2,0,0,,6,,,78,127
28363,note_off,99,0,0,,6,,,78,127
28363,note_off,0,0,0,,2,,,50,127
28365,note_on,2,0,0,,10,,,57,127
28365,note_on,0,0,0,,10,,,81,127
28464,note_off,99,0,0,,10,,,81,127
28466,note_on,2,0,0,,6,,,78,127
28565,note_off,99,0,0,,6,,,78,127
28565,note_off,0,0,0,,10,,,57,127
28567,note_on,2,0,0,,10,,,33,127
28567,note_on,0,0,0,,7,,,79,127
28666,note_off,99,0,0,,7,,,79,127
28668,note_on,2,0,0,,4,,,76,127
28767,note_off,99,0,0,,4,,,76,127
28767,note_off,0,0,0,,10,,,33,127
28769,note_on,2,0,0,,10,,,45,127
28769,note_on,0,0,0,,10,,,69,127
28868,note_off,99,0,0,,10,,,69,127
28870,note_on,2,0,0,,4,,,76,127
28969,note_off,99,0,0,,4,,,76,127
28969,note_off,0,0,0,,10,,,45,127
28971,note_on,2,0,0,,10,,,57,127
28971,note_on,0,0,0,,7,,,79,127
29070,note_off,99,0,0,,7,,,79,127
29072,note_on,2,0,0,,4,,,76,127
29171,note_off,99,0,0,,4,,,76,127
29171,note_off,0,0,0,,10,,,57,127
29173,note_on,2,0,0,,2,,,38,127
29173,note_on,0,0,0,,6,,,78,127
29272,note_off,99,0,0,,6,,,78,127
29274,note_on,2,0,0,,2,,,74,127
29373,note_off,99,0,0,,2,,,74,127
29373,note_off,0,0,0,,2,,,38,127
29375,note_on,2,0,0,,2,,,50,127
29375,note_on,0,0,0,,10,,,69,127
29474,note_off,99,0,0,,10,,,69,127
29476,note_on,2,0,0,,6,,,78,127
29575,note_off,99,0,0,,6,,,78,127
29575,note_off,0,0,0,,2,,,50,127
29577,note_on,2,0,0,,10,,,57,127
29577,note_on,0,0,0,,10,,,81,127
29676,note_off,99,0,0,,10,,,81,127
29678,note_on,2,0,0,,6,,,78,127
29777,note_off,99,0,0,,6,,,78,127
29777,note_off,0,0,0,,10,,,57,127
29779,note_on,2,0,0,,10,,,33,127
29779,note_on,0,0,0,,7,,,79,127
29878,note_off,99,0,0,,7,,,79,127
29880,note_on,2,0,0,,4,,,76,127
29979,note_off,99,0,0,,4,,,76,127
29979,note_off,0,0,0,,10,,,33,127
29981,note_on,2,0,0,,10,,,45,127
29981,note_on,0,0,0,,10,,,69,127
30080,note_off,99,0,0,,10,,,69,127
30082,note_on,2,0,0,,4,,,76,127
30181,note_off,99,0,0,,4,,,76,127
30181,note_off,0,0,0,,10,,,45,127
30183,note_on,2,0,0,,10,,,57,127
30183,note_on,0,0,0,,7,,,79,127
30282,note_off,99,0,0,,7,,,79,127
30284,note_on,2,0,0,,4,,,76,127
30383,note_off,99,0,0,,4,,,76,127
30383,note_off,0,0,0,,10,,,57,127
30385,note_on,2,0,0,,2,,,38,127
30385,note_on,0,0,0,,6,,,78,127
30484,note_off,99,0,0,,6,,,78,127
30486,note_on,2,0,0,,2,,,74,127
30585,note_off,99,0,0,,2,,,74,127
30585,note_off,0,0,0,,2,,,38,127
30587,note_on,2,0,0,,2,,,50,127
30587,note_on,0,0,0,,10,,,69,127
30686,note_off,99,0,0,,10,,,69,127
30688,note_on,2,0,0,,6,,,78,127
30787,note_off,99,0,0,,6,,,78,127
30787,note_off,0,0,0,,2,,,50,127
30789,note_on,2,0,0,,10,,,57,127
30789,note_on,0,0,0,,10,,,81,127
30888,note_off,99,0,0,,10,,,81,127
30890,note_on,2,0,0,,6,,,78,127
30989,note_off,99,0,0,,6,,,78,127
30989,note_off,0,0,0,,10,,,57,127
30991,note_on,2,0,0,,10,,,33,127
30991,note_on,0,0,0,,7,,,79,127
31090,note_off,99,0,0,,7,,,79,127
31092,note_on,2,0,0,,4,,,76,127
31191,note_off,99,0,0,,4,,,76,127
31191,note_off,0,0,0,,10,,,33,127
31193,note_on,2,0,0,,10,,,45,127
31193,note_on,0,0,0,,10,,,69,127
31292,note_off,99,0,0,,10,,,69,127
31294,note_on,2,0,0,,4,,,76,127
31393,note_off,99,0,0,,4,,,76,127
31393,note_off,0,0,0,,10,,,45,127
31395,note_on,2,0,0,,10,,,57,127
31395,note_on,0,0,0,,7,,,79,127
31494,note_off,99,0,0,,7,,,79,127
31496,note_on,2,0,0,,4,,,76,127
31595,note_off,99,0,0,,4,,,76,127
31595,note_off,0,0,0,,10,,,57,127
31597,note_on,2,0,0,,2,,,50,127
31597,note_on,0,0,0,,6,,,78,127
31696,note_off,99,0,0,,6,,,78,127
31698,note_on,2,0,0,,4,,,76,127
31797,note_off,99,0,0,,4,,,76,127
31797,note_off,0,0,0,,2,,,50,127
31799,note_on,2,0,0,,4,,,52,127
31799,note_on,0,0,0,,6,,,78,127
31898,note_off,99,0,0,,6,,,78,127
31900,note_on,2,0,0,,7,,,79,127
31999,note_off,99,0,0,,7,,,79,127
31999,note_off,0,0,0,,4,,,52,127
32001,note_on,2,0,0,,6,,,54,127
32001,note_on,0,0,0,,10,,,81,127
32100,note_off,99,0,0,,10,,,81,127
32102,note_on,2,0,0,,7,,,79,127
32201,note_off,99,0,0,,7,,,79,127
32201,note_off,0,0,0,,6,,,54,127
32203,note_on,2,0,0,,7,,,55,127
32203,note_on,0,0,0,,10,,,81,127
32302,note_off,99,0,0,,10,,,81,127
32304,note_on,2,0,0,,12,,,83,127
32403,note_off,99,0,0,,12,,,83,127
32403,note_off,0,0,0,,7,,,55,127
32405,note_on,2,0,0,,10,,,57,127
32405,note_on,0,0,0,,10,,,81,127
32504,note_off,99,0,0,,10,,,81,127
32506,note_on,2,0,0,,7,,,79,127
32605,note_off,99,0,0,,7,,,79,127
32607,note_on,2,0,0,,10,,,45,127
32607,note_on,0,0,0,,6,,,78,127
32706,note_off,99,0,0,,6,,,78,127
32708,note_on,2,0,0,,4,,,76,127
32807,note_off,99,0,0,,4,,,76,127
32807,note_off,0,0,0,,10,,,45,127
32808,note_off,1,0,0,,10,,,57,127
32809,note_on,1,0,0,,2,,,50,127
32809,note_on,0,0,0,,2,,,74,127
32910,note_on,101,0,0,,10,,,81,127
32935,note_off,25,0,0,,2,,,74,127
33009,note_off,74,0,0,,10,,,81,127
33009,note_off,0,0,0,,2,,,50,127
33011,note_on,2,0,0,,4,,,52,127
33011,note_on,0,0,0,,6,,,78,127
33110,note_off,99,0,0,,6,,,78,127
33112,note_on,2,0,0,,4,,,76,127
33211,note_off,99,0,0,,4,,,76,127
33211,note_off,0,0,0,,4,,,52,127
33213,note_on,2,0,0,,6,,,54,127
33213,note_on,0,0,0,,2,,,74,127
33312,note_off,99,0,0,,2,,,74,127
33314,note_on,2,0,0,,1,,,73,127
33413,note_off,99,0,0,,1,,,73,127
33413,note_off,0,0,0,,6,,,54,127
33415,note_on,2,0,0,,7,,,55,127
33415,note_on,0,0,0,,12,,,71,127
33516,note_on,101,0,0,,7,,,79,127
33541,note_off,25,0,0,,12,,,71,127
33615,note_off,74,0,0,,7,,,79,127
33615,note_off,0,0,0,,7,,,55,127
33617,note_on,2,0,0,,10,,,57,127
33617,note_on,0,0,0,,6,,,78,127
33716,note_off,99,0,0,,6,,,78,127
33718,note_on,2,0,0,,4,,,76,127
33817,note_off,99,0,0,,4,,,76,127
33819,note_on,2,0,0,,10,,,45,127
33819,note_on,0,0,0,,2,,,74,127
33918,note_off,99,0,0,,2,,,74,127
33920,note_on,2,0,0,,1,,,73,127
34019,note_off,99,0,0,,1,,,73,127
34019,note_off,0,0,0,,10,,,45,127
34020,note_off,1,0,0,,10,,,57,127
34021,note_on,1,0,0,,2,,,50,127
34021,note_on,0,0,0,,2,,,74,127
34122,note_on,101,0,0,,10,,,69,127
34147,note_off,25,0,0,,2,,,74,127
34221,note_off,74,0,0,,10,,,69,127
34221,note_off,0,0,0,,2,,,50,127
34223,note_on,2,0,0,,4,,,52,127
34223,note_on,0,0,0,,6,,,66,127
34322,note_off,99,0,0,,6,,,66,127
34324,note_on,2,0,0,,4,,,64,127
34423,note_off,99,0,0,,4,,,64,127
34423,note_off,0,0,0,,4,,,52,127
34425,note_on,2,0,0,,6,,,54,127
34425,note_on,0,0,0,,2,,,62,127
34524,note_off,99,0,0,,2,,,62,127
34526,note_on,2,0,0,,1,,,61,127
34625,note_off,99,0,0,,1,,,61,127
34625,note_off,0,0,0,,6,,,54,127
34627,note_on,2,0,0,,7,,,55,127
34627,note_on,0,0,0,,12,,,59,127
34728,note_on,101,0,0,,7,,,67,127
34753,note_off,25,0,0,,12,,,59,127
34827,note_off,74,0,0,,7,,,67,127
34827,note_off,0,0,0,,7,,,55,127
34829,note_on,2,0,0,,10,,,57,127
34829,note_on,0,0,0,,6,,,66,127
34928,note_off,99,0,0,,6,,,66,127
34930,note_on,2,0,0,,4,,,64,127
35029,note_off,99,0,0,,4,,,64,127
35029,note_off,0,0,0,,10,,,57,127
35031,note_on,2,0,0,,10,,,45,127
35031,note_on,0,0,0,,2,,,62,127
35130,note_off,99,0,0,,2,,,62,127
35132,note_on,2,0,0,,1,,,61,127
35231,note_off,99,0,0,,1,,,61,127
35231,note_off,0,0,0,,10,,,45,127
35233,note_on,2,0,0,,2,,,38,127
35233,note_on,0,0,0,,2,,,62,127
35837,note_off,604,0,0,,2,,,62,127
35837,note_off,0,0,0,,2,,,38,127
35839,note_on,2,0,0,,2,,,62,127
35839,note_on,0,0,0,,2,,,74,127
36039,note_off,200,0,0,,2,,,74,127
36041,note_on,2,0,0,,10,,,69,127
36241,note_off,200,0,0,,10,,,69,127
36243,note_on,2,0,0,,6,,,66,127
36443,note_off,200,0,0,,6,,,66,127
36443,note_off,0,0,0,,2,,,62,127
36445,note_on,2,0,0,,2,,,62,127
36445,note_on,0,0,0,,2,,,74,127
36645,note_off,200,0,0,,2,,,74,127
36647,note_on,2,0,0,,12,,,71,127
36847,note_off,200,0,0,,12,,,71,127
36849,note_on,2,0,0,,7,,,67,127
37049,note_off,200,0,0,,7,,,67,127
37049,note_off,0,0,0,,2,,,62,127
37051,note_on,2,0,0,,2,,,62,127
37051,note_on,0,0,0,,2,,,74,127
37251,note_off,200,0,0,,2,,,74,127
37253,note_on,2,0,0,,10,,,69,127
37453,note_off,200,0,0,,10,,,69,127
37455,note_on,2,0,0,,6,,,66,127
37554,note_off,99,0,0,,6,,,66,127
37556,note_on,2,0,0,,4,,,76,127
37655,note_off,99,0,0,,4,,,76,127
37655,note_off,0,0,0,,2,,,62,127
37657,note_on,2,0,0,,0,,,60,127
37657,note_on,0,0,0,,3,,,75,127
37857,note_off,200,0,0,,3,,,75,127
37859,note_on,2,0,0,,10,,,69,127
38059,note_off,200,0,0,,10,,,69,127
38061,note_on,2,0,0,,4,,,76,127
38261,note_off,200,0,0,,4,,,76,127
38261,note_off,0,0,0,,0,,,60,127
38263,note_on,2,0,0,,12,,,59,127
38263,note_on,0,0,0,,6,,,78,127
38364,note_on,101,0,0,,0,,,72,127
38389,note_off,25,0,0,,6,,,78,127
38463,note_off,74,0,0,,0,,,72,127
38463,note_off,0,0,0,,12,,,59,127
38465,note_on,2,0,0,,12,,,47,127
38465,note_on,0,0,0,,12,,,71,127
38564,note_off,99,0,0,,12,,,71,127
38566,note_on,2,0,0,,10,,,69,127
38665,note_off,99,0,0,,10,,,69,127
38665,note_off,0,0,0,,12,,,47,127
38667,note_on,2,0,0,,3,,,63,127
38667,note_on,0,0,0,,7,,,67,127
38766,note_off,99,0,0,,7,,,67,127
38768,note_on,2,0,0,,6,,,66,127
38867,note_off,99,0,0,,6,,,66,127
38867,note_off,0,0,0,,3,,,63,127
38869,note_on,2,0,0,,4,,,64,127
38869,note_on,0,0,0,,12,,,83,127
38968,note_off,99,0,0,,12,,,83,127
38970,note_on,2,0,0,,7,,,79,127
39069,note_off,99,0,0,,7,,,79,127
39069,note_off,0,0,0,,4,,,64,127
39071,note_on,2,0,0,,7,,,55,127
39071,note_on,0,0,0,,6,,,78,127
39170,note_off,99,0,0,,6,,,78,127
39172,note_on,2,0,0,,4,,,76,127
39271,note_off,99,0,0,,4,,,76,127
39271,note_off,0,0,0,,7,,,55,127
39273,note_on,2,0,0,,10,,,57,127
39273,note_on,0,0,0,,3,,,75,127
39372,note_off,99,0,0,,3,,,75,127
39374,note_on,2,0,0,,4,,,76,127
39473,note_off,99,0,0,,4,,,76,127
39473,note_off,0,0,0,,10,,,57,127
39475,note_on,2,0,0,,12,,,59,127
39475,note_on,0,0,0,,6,,,78,127
39576,note_on,101,0,0,,0,,,72,127
39601,note_off,25,0,0,,6,,,78,127
39675,note_off,74,0,0,,0,,,72,127
39675,note_off,0,0,0,,12,,,59,127
39677,note_on,2,0,0,,12,,,47,127
39677,note_on,0,0,0,,12,,,71,127
39776,note_off,99,0,0,,12,,,71,127
39778,note_on,2,0,0,,10,,,69,127
39877,note_off,99,0,0,,10,,,69,127
39877,note_off,0,0,0,,12,,,47,127
39879,note_on,2,0,0,,3,,,63,127
39879,note_on,0,0,0,,7,,,67,127
39978,note_off,99,0,0,,7,,,67,127
39980,note_on,2,0,0,,6,,,66,127
40079,note_off,99,0,0,,6,,,66,127
40079,note_off,0,0,0,,3,,,63,127
40081,note_on,2,0,0,,4,,,64,127
40081,note_on,0,0,0,,12,,,83,127
40180,note_off,99,0,0,,12,,,83,127
40182,note_on,2,0,0,,7,,,79,127
40281,note_off,99,0,0,,7,,,79,127
40281,note_off,0,0,0,,4,,,64,127
40283,note_on,2,0,0,,7,,,55,127
40283,note_on,0,0,0,,6,,,78,127
40382,note_off,99,0,0,,6,,,78,127
40384,note_on,2,0,0,,4,,,76,127
40483,note_off,99,0,0,,4,,,76,127
40483,note_off,0,0,0,,7,,,55,127
40485,note_on,2,0,0,,10,,,57,127
40485,note_on,0,0,0,,3,,,75,127
40584,note_off,99,0,0,,3,,,75,127
40586,note_on,2,0,0,,4,,,76,127
40685,note_off,99,0,0,,4,,,76,127
40685,note_off,0,0,0,,10,,,57,127
40687,note_on,2,0,0,,12,,,59,127
40687,note_on,0,0,0,,6,,,78,127
40788,note_on,101,0,0,,0,,,72,127
40813,note_off,25,0,0,,6,,,78,127
40887,note_off,74,0,0,,0,,,72,127
40887,note_off,0,0,0,,12,,,59,127
40889,note_on,2,0,0,,12,,,47,127
40889,note_on,0,0,0,,12,,,71,127
40988,note_off,99,0,0,,12,,,71,127
40990,note_on,2,0,0,,10,,,69,127
41089,note_off,99,0,0,,10,,,69,127
41089,note_off,0,0,0,,12,,,47,127
41091,note_on,2,0,0,,3,,,63,127
41091,note_on,0,0,0,,7,,,67,127
41190,note_off,99,0,0,,7,,,67,127
41192,note_on,2,0,0,,6,,,66,127
41291,note_off,99,0,0,,6,,,66,127
41291,note_off,0,0,0,,3,,,63,127
41293,note_on,2,0,0,,4,,,64,127
41293,note_on,0,0,0,,12,,,83,127
41392,note_off,99,0,0,,12,,,83,127
41394,note_on,2,0,0,,10,,,81,127
41493,note_off,99,0,0,,10,,,81,127
41493,note_off,0,0,0,,4,,,64,127
41495,note_on,2,0,0,,4,,,52,127
41495,note_on,0,0,0,,8,,,80,127
41594,note_off,99,0,0,,8,,,80,127
41596,note_on,2,0,0,,5,,,77,127
41695,note_off,99,0,0,,5,,,77,127
41695,note_off,0,0,0,,4,,,52,127
41697,note_on,2,0,0,,8,,,56,127
41697,note_on,0,0,0,,4,,,76,127
41796,note_off,99,0,0,,4,,,76,127
41798,note_on,2,0,0,,2,,,74,127
41897,note_off,99,0,0,,2,,,74,127
41897,note_off,0,0,0,,8,,,56,127
41899,note_on,2,0,0,,10,,,57,127
41899,note_on,0,0,0,,1,,,73,127
42000,note_on,101,0,0,,11,,,70,127
42025,note_off,25,0,0,,1,,,73,127
42099,note_off,74,0,0,,11,,,70,127
42099,note_off,0,0,0,,10,,,57,127
42101,note_on,2,0,0,,10,,,45,127
42101,note_on,0,0,0,,10,,,69,127
42200,note_off,99,0,0,,10,,,69,127
42202,note_on,2,0,0,,7,,,67,127
42301,note_off,99,0,0,,7,,,67,127
42301,note_off,0,0,0,,10,,,45,127
42303,note_on,2,0,0,,1,,,61,127
42303,note_on,0,0,0,,5,,,65,127
42402,note_off,99,0,0,,5,,,65,127
42404,note_on,2,0,0,,4,,,64,127
42503,note_off,99,0,0,,4,,,64,127
42503,note_off,0,0,0,,1,,,61,127
42505,note_on,2,0,0,,2,,,62,127
42505,note_on,0,0,0,,10,,,81,127
42604,note_off,99,0,0,,10,,,81,127
42606,note_on,2,0,0,,5,,,77,127
42705,note_off,99,0,0,,5,,,77,127
42705,note_off,0,0,0,,2,,,62,127
42707,note_on,2,0,0,,5,,,53,127
42707,note_on,0,0,0,,4,,,76,127
42806,note_off,99,0,0,,4,,,76,127
42808,note_on,2,0,0,,2,,,74,127
42907,note_off,99,0,0,,2,,,74,127
42907,note_off,0,0,0,,5,,,53,127
42909,note_on,2,0,0,,7,,,55,127
42909,note_on,0,0,0,,1,,,73,127
43008,note_off,99,0,0,,1,,,73,127
43010,note_on,2,0,0,,2,,,74,127
43109,note_off,99,0,0,,2,,,74,127
43109,note_off,0,0,0,,7,,,55,127
43111,note_on,2,0,0,,10,,,57,127
43111,note_on,0,0,0,,4,,,76,127
43212,note_on,101,0,0,,11,,,70,127
43237,note_off,25,0,0,,4,,,76,127
43311,note_off,74,0,0,,11,,,70,127
43311,note_off,0,0,0,,10,,,57,127
43313,note_on,2,0,0,,10,,,45,127
43313,note_on,0,0,0,,10,,,69,127
43412,note_off,99,0,0,,10,,,69,127
43414,note_on,2,0,0,,7,,,67,127
43513,note_off,99,0,0,,7,,,67,127
43513,note_off,0,0,0,,10,,,45,127
43515,note_on,2,0,0,,1,,,61,127
43515,note_on,0,0,0,,5,,,65,127
43614,note_off,99,0,0,,5,,,65,127
43616,note_on,2,0,0,,4,,,64,127
43715,note_off,99,0,0,,4,,,64,127
43715,note_off,0,0,0,,1,,,61,127
43717,note_on,2,0,0,,2,,,62,127
43717,note_on,0,0,0,,10,,,81,127
43816,note_off,99,0,0,,10,,,81,127
43818,note_on,2,0,0,,5,,,77,127
43917,note_off,99,0,0,,5,,,77,127
43917,note_off,0,0,0,,2,,,62,127
43919,note_on,2,0,0,,5,,,53,127
43919,note_on,0,0,0,,4,,,76,127
44018,note_off,99,0,0,,4,,,76,127
44020,note_on,2,0,0,,2,,,74,127
44119,note_off,99,0,0,,2,,,74,127
44119,note_off,0,0,0,,5,,,53,127
44121,note_on,2,0,0,,7,,,55,127
44121,note_on,0,0,0,,1,,,73,127
44220,note_off,99,0,0,,1,,,73,127
44222,note_on,2,0,0,,2,,,74,127
44321,note_off,99,0,0,,2,,,74,127
44321,note_off,0,0,0,,7,,,55,127
44323,note_on,2,0,0,,10,,,57,127
44323,note_on,0,0,0,,4,,,76,127
44424,note_on,101,0,0,,11,,,70,127
44449,note_off,25,0,0,,4,,,76,127
44523,note_off,74,0,0,,11,,,70,127
44523,note_off,0,0,0,,10,,,57,127
44525,note_on,2,0,0,,10,,,45,127
44525,note_on,0,0,0,,10,,,69,127
44624,note_off,99,0,0,,10,,,69,127
44626,note_on,2,0,0,,7,,,67,127
44725,note_off,99,0,0,,7,,,67,127
44725,note_off,0,0,0,,10,,,45,127
44727,note_on,2,0,0,,1,,,61,127
44727,note_on,0,0,0,,5,,,65,127
44826,note_off,99,0,0,,5,,,65,127
44828,note_on,2,0,0,,4,,,64,127
44927,note_off,99,0,0,,4,,,64,127
44927,note_off,0,0,0,,1,,,61,127
44929,note_on,2,0,0,,2,,,62,127
44929,note_on,0,0,0,,6,,,66,127
45028,note_off,99,0,0,,6,,,66,127
45030,note_on,2,0,0,,7,,,67,127
45129,note_off,99,0,0,,7,,,67,127
45131,note_on,2,0,0,,10,,,69,127
45230,note_off,99,0,0,,10,,,69,127
45232,note_on,2,0,0,,11,,,70,127
45331,note_off,99,0,0,,11,,,70,127
45333,note_on,2,0,0,,0,,,72,127
45432,note_off,99,0,0,,0,,,72,127
45434,note_on,2,0,0,,2,,,74,127
45533,note_off,99,0,0,,2,,,74,127
45533,note_off,0,0,0,,2,,,62,127
45535,note_on,2,0,0,,0,,,60,127
45535,note_on,0,0,0,,5,,,77,127
45594,note_off,59,0,0,,5,,,77,127
45595,note_on,1,0,0,,3,,,75,127
45634,note_off,39,0,0,,0,,,60,127
45636,note_on,2,0,0,,3,,,63,127
45653,note_off,17,0,0,,3,,,75,127
45656,note_on,3,0,0,,5,,,77,127
45715,note_off,59,0,0,,5,,,77,127
45716,note_on,1,0,0,,3,,,75,127
45735,note_off,19,0,0,,3,,,63,127
45737,note_on,2,0,0,,10,,,57,127
45774,note_off,37,0,0,,3,,,75,127
45777,note_on,3,0,0,,5,,,77,127
45836,note_off,59,0,0,,10,,,57,127
45837,note_off,1,0,0,,5,,,77,127
45838,note_on,1,0,0,,0,,,60,127
45838,note_on,0,0,0,,3,,,75,127
45897,note_off,59,0,0,,3,,,75,127
45898,note_on,1,0,0,,5,,,77,127
45937,note_off,39,0,0,,0,,,60,127
45939,note_on,2,0,0,,6,,,54,127
45956,note_off,17,0,0,,5,,,77,127
45959,note_on,3,0,0,,3,,,75,127
46018,note_off,59,0,0,,3,,,75,127
46019,note_on,1,0,0,,5,,,77,127
46038,note_off,19,0,0,,6,,,54,127
46040,note_on,2,0,0,,10,,,57,127
46077,note_off,37,0,0,,5,,,77,127
46080,note_on,3,0,0,,3,,,75,127
46139,note_off,59,0,0,,3,,,75,127
46139,note_off,0,0,0,,10,,,57,127
46141,note_on,2,0,0,,2,,,50,127
46141,note_on,0,0,0,,6,,,66,127
46240,note_off,99,0,0,,6,,,66,127
46242,note_on,2,0,0,,7,,,67,127
46341,note_off,99,0,0,,7,,,67,127
46343,note_on,2,0,0,,10,,,69,127
46442,note_off,99,0,0,,10,,,69,127
46444,note_on,2,0,0,,11,,,70,127
46543,note_off,99,0,0,,11,,,70,127
46545,note_on,2,0,0,,0,,,72,127
46644,note_off,99,0,0,,0,,,72,127
46646,note_on,2,0,0,,2,,,74,127
46745,note_off,99,0,0,,2,,,74,127
46745,note_off,0,0,0,,2,,,50,127
46747,note_on,2,0,0,,0,,,60,127
46747,note_on,0,0,0,,5,,,77,127
46806,note_off,59,0,0,,5,,,77,127
46807,note_on,1,0,0,,3,,,75,127
46846,note_off,39,0,0,,0,,,60,127
46848,note_on,2,0,0,,3,,,63,127
46865,note_off,17,0,0,,3,,,75,127
46868,note_on,3,0,0,,5,,,77,127
46927,note_off,59,0,0,,5,,,77,127
46928,note_on,1,0,0,,3,,,75,127
46947,note_off,19,0,0,,3,,,63,127
46949,note_on,2,0,0,,10,,,57,127
46986,note_off,37,0,0,,3,,,75,127
46989,note_on,3,0,0,,5,,,77,127
47048,note_off,59,0,0,,5,,,77,127
47048,note_off,0,0,0,,10,,,57,127
47050,note_on,2,0,0,,0,,,60,127
47050,note_on,0,0,0,,3,,,75,127
47109,note_off,59,0,0,,3,,,75,127
47110,note_on,1,0,0,,5,,,77,127
47149,note_off,39,0,0,,0,,,60,127
47151,note_on,2,0,0,,6,,,54,127
47168,note_off,17,0,0,,5,,,77,127
47171,note_on,3,0,0,,3,,,75,127
47230,note_off,59,0,0,,3,,,75,127
47231,note_on,1,0,0,,5,,,77,127
47250,note_off,19,0,0,,6,,,54,127
47252,note_on,2,0,0,,10,,,57,127
47289,note_off,37,0,0,,5,,,77,127
47292,note_on,3,0,0,,3,,,75,127
47351,note_off,59,0,0,,3,,,75,127
47351,note_off,0,0,0,,10,,,57,127
47353,note_on,2,0,0,,2,,,50,127
47353,note_on,0,0,0,,12,,,71,127
47452,note_off,99,0,0,,12,,,71,127
47454,note_on,2,0,0,,0,,,72,127
47553,note_off,99,0,0,,0,,,72,127
47555,note_on,2,0,0,,2,,,74,127
47654,note_off,99,0,0,,2,,,74,127
47656,note_on,2,0,0,,3,,,75,127
47755,note_off,99,0,0,,3,,,75,127
47757,note_on,2,0,0,,5,,,77,127
47856,note_off,99,0,0,,5,,,77,127
47858,note_on,2,0,0,,7,,,79,127
47957,note_off,99,0,0,,7,,,79,127
47957,note_off,0,0,0,,2,,,50,127
47959,note_on,2,0,0,,2,,,62,127
47959,note_on,0,0,0,,7,,,79,127
48018,note_off,59,0,0,,7,,,79,127
48019,note_on,1,0,0,,5,,,77,127
48058,note_off,39,0,0,,2,,,62,127
48060,note_on,2,0,0,,5,,,65,127
48077,note_off,17,0,0,,5,,,77,127
48080,note_on,3,0,0,,7,,,79,127
48139,note_off,59,0,0,,7,,,79,127
48140,note_on,1,0,0,,5,,,77,127
48159,note_off,19,0,0,,5,,,65,127
48161,note_on,2,0,0,,12,,,59,127
48198,note_off,37,0,0,,5,,,77,127
48201,note_on,3,0,0,,7,,,79,127
48260,note_off,59,0,0,,7,,,79,127
48260,note_off,0,0,0,,12,,,59,127
48262,note_on,2,0,0,,2,,,62,127
48262,note_on,0,0,0,,5,,,77,127
48321,note_off,59,0,0,,5,,,77,127
48322,note_on,1,0,0,,7,,,79,127
48361,note_off,39,0,0,,2,,,62,127
48363,note_on,2,0,0,,5,,,53,127
48380,note_off,17,0,0,,7,,,79,127
48383,note_on,3,0,0,,5,,,77,127
48442,note_off,59,0,0,,5,,,77,127
48443,note_on,1,0,0,,7,,,79,127
48462,note_off,19,0,0,,5,,,53,127
48464,note_on,2,0,0,,8,,,56,127
48501,note_off,37,0,0,,7,,,79,127
48504,note_on,3,0,0,,5,,,77,127
48563,note_off,59,0,0,,5,,,77,127
48563,note_off,0,0,0,,8,,,56,127
48565,note_on,2,0,0,,2,,,50,127
48565,note_on,0,0,0,,12,,,71,127
48664,note_off,99,0,0,,12,,,71,127
48666,note_on,2,0,0,,0,,,72,127
48765,note_off,99,0,0,,0,,,72,127
48767,note_on,2,0,0,,2,,,74,127
48866,note_off,99,0,0,,2,,,74,127
48868,note_on,2,0,0,,3,,,75,127
48967,note_off,99,0,0,,3,,,75,127
48969,note_on,2,0,0,,5,,,77,127
49068,note_off,99,0,0,,5,,,77,127
49070,note_on,2,0,0,,7,,,79,127
49169,note_off,99,0,0,,7,,,79,127
49169,note_off,0,0,0,,2,,,50,127
49171,note_on,2,0,0,,2,,,62,127
49171,note_on,0,0,0,,7,,,79,127
49230,note_off,59,0,0,,7,,,79,127
49231,note_on,1,0,0,,5,,,77,127
49270,note_off,39,0,0,,2,,,62,127
49272,note_on,2,0,0,,5,,,65,127
49289,note_off,17,0,0,,5,,,77,127
49292,note_on,3,0,0,,7,,,79,127
49351,note_off,59,0,0,,7,,,79,127
49352,note_on,1,0,0,,5,,,77,127
49371,note_off,19,0,0,,5,,,65,127
49373,note_on,2,0,0,,12,,,59,127
49410,note_off,37,0,0,,5,,,77,127
49413,note_on,3,0,0,,7,,,79,127
49472,note_off,59,0,0,,7,,,79,127
49472,note_off,0,0,0,,12,,,59,127
49474,note_on,2,0,0,,2,,,62,127
49474,note_on,0,0,0,,5,,,77,127
49533,note_off,59,0,0,,5,,,77,127
49534,note_on,1,0,0,,7,,,79,127
49573,note_off,39,0,0,,2,,,62,127
49575,note_on,2,0,0,,5,,,53,127
49592,note_off,17,0,0,,7,,,79,127
49595,note_on,3,0,0,,5,,,77,127
49654,note_off,59,0,0,,5,,,77,127
49655,note_on,1,0,0,,7,,,79,127
49674,note_off,19,0,0,,5,,,53,127
49676,note_on,2,0,0,,8,,,56,127
49713,note_off,37,0,0,,7,,,79,127
49716,note_on,3,0,0,,5,,,77,127
49775,note_off,59,0,0,,5,,,77,127
49775,note_off,0,0,0,,8,,,56,127
49777,note_on,2,0,0,,2,,,50,127
49777,note_on,0,0,0,,12,,,71,127
49876,note_off,99,0,0,,12,,,71,127
49878,note_on,2,0,0,,0,,,72,127
49977,note_off,99,0,0,,0,,,72,127
49979,note_on,2,0,0,,2,,,74,127
50078,note_off,99,0,0,,2,,,74,127
50080,note_on,2,0,0,,3,,,75,127
50179,note_off,99,0,0,,3,,,75,127
50181,note_on,2,0,0,,5,,,77,127
50280,note_off,99,0,0,,5,,,77,127
50282,note_on,2,0,0,,7,,,79,127
50381,note_off,99,0,0,,7,,,79,127
50381,note_off,0,0,0,,2,,,50,127
50383,note_on,2,0,0,,7,,,43,127
50383,note_on,0,0,0,,7,,,55,127
50383,note_on,0,0,0,,5,,,77,127
50482,note_off,99,0,0,,5,,,77,127
50484,note_on,2,0,0,,8,,,80,127
50583,note_off,99,0,0,,8,,,80,127
50585,note_on,2,0,0,,7,,,79,127
50684,note_off,99,0,0,,7,,,79,127
50686,note_on,2,0,0,,5,,,77,127
50785,note_off,99,0,0,,5,,,77,127
50787,note_on,2,0,0,,3,,,75,127
50886,note_off,99,0,0,,3,,,75,127
50888,note_on,2,0,0,,2,,,74,127
50987,note_off,99,0,0,,2,,,74,127
50987,note_off,0,0,0,,7,,,55,127
50987,note_off,0,0,0,,7,,,43,127
50989,note_on,2,0,0,,0,,,48,127
50989,note_on,0,0,0,,7,,,79,127
51088,note_off,99,0,0,,7,,,79,127
51090,note_on,2,0,0,,5,,,77,127
51189,note_off,99,0,0,,5,,,77,127
51191,note_on,2,0,0,,0,,,60,127
51191,note_on,0,0,0,,3,,,75,127
51290,note_off,99,0,0,,3,,,75,127
51292,note_off,2,0,0,,0,,,48,127
51292,note_on,0,0,0,,2,,,74,127
51391,note_off,99,0,0,,2,,,74,127
51391,note_off,0,0,0,,0,,,60,127
51393,note_on,2,0,0,,1,,,61,127
51393,note_on,0,0,0,,0,,,72,127
51492,note_off,99,0,0,,0,,,72,127
51494,note_on,2,0,0,,11,,,70,127
51593,note_off,99,0,0,,11,,,70,127
51593,note_off,0,0,0,,1,,,61,127
51595,note_on,2,0,0,,2,,,50,127
51595,note_on,0,0,0,,10,,,69,127
51696,note_on,101,0,0,,6,,,78,127
51795,note_off,99,0,0,,6,,,78,127
51797,note_on,2,0,0,,2,,,62,127
51797,note_on,0,0,0,,7,,,79,127
51897,note_off,100,0,0,,10,,,69,127
51898,note_off,1,0,0,,2,,,50,127
51898,note_on,0,0,0,,11,,,70,127
51997,note_off,99,0,0,,11,,,70,127
51997,note_off,0,0,0,,2,,,62,127
51999,note_on,2,0,0,,1,,,61,127
51999,note_on,0,0,0,,10,,,69,127
52098,note_off,99,0,0,,10,,,69,127
52100,note_off,2,0,0,,7,,,79,127
52100,note_on,0,0,0,,11,,,70,127
52199,note_off,99,0,0,,11,,,70,127
52199,note_off,0,0,0,,1,,,61,127
52201,note_on,2,0,0,,2,,,50,127
52201,note_on,0,0,0,,10,,,69,127
52302,note_on,101,0,0,,6,,,78,127
52401,note_off,99,0,0,,6,,,78,127
52403,note_on,2,0,0,,2,,,62,127
52403,note_on,0,0,0,,7,,,79,127
52503,note_off,100,0,0,,10,,,69,127
52504,note_off,1,0,0,,2,,,50,127
52504,note_on,0,0,0,,11,,,70,127
52603,note_off,99,0,0,,11,,,70,127
52603,note_off,0,0,0,,2,,,62,127
52605,note_on,2,0,0,,1,,,61,127
52605,note_on,0,0,0,,10,,,69,127
52704,note_off,99,0,0,,10,,,69,127
52706,note_off,2,0,0,,7,,,79,127
52706,note_on,0,0,0,,11,,,70,127
52805,note_off,99,0,0,,11,,,70,127
52805,note_off,0,0,0,,1,,,61,127
52807,note_on,2,0,0,,2,,,62,127
52807,note_on,0,0,0,,10,,,69,127
52908,note_on,101,0,0,,7,,,67,127
53007,note_off,99,0,0,,7,,,67,127
53007,note_off,0,0,0,,10,,,69,127
53009,note_on,2,0,0,,6,,,66,127
53009,note_on,0,0,0,,0,,,72,127
53108,note_off,99,0,0,,6,,,66,127
53110,note_on,2,0,0,,7,,,67,127
53209,note_off,99,0,0,,7,,,67,127
53209,note_off,0,0,0,,0,,,72,127
53211,note_on,2,0,0,,6,,,66,127
53211,note_on,0,0,0,,2,,,74,127
53310,note_off,99,0,0,,6,,,66,127
53312,note_on,2,0,0,,7,,,67,127
53411,note_off,99,0,0,,7,,,67,127
53411,note_off,0,0,0,,2,,,74,127
53412,note_off,1,0,0,,2,,,62,127
53413,note_on,1,0,0,,0,,,60,127
53413,note_on,0,0,0,,3,,,75,127
53514,note_on,101,0,0,,7,,,67,127
53613,note_off,99,0,0,,7,,,67,127
53613,note_off,0,0,0,,3,,,75,127
53615,note_on,2,0,0,,6,,,66,127
53615,note_on,0,0,0,,0,,,72,127
53714,note_off,99,0,0,,6,,,66,127
53716,note_on,2,0,0,,7,,,67,127
53815,note_off,99,0,0,,7,,,67,127
53815,note_off,0,0,0,,0,,,72,127
53817,note_on,2,0,0,,6,,,66,127
53817,note_on,0,0,0,,7,,,79,127
53916,note_off,99,0,0,,6,,,66,127
53918,note_on,2,0,0,,7,,,67,127
54017,note_off,99,0,0,,7,,,67,127
54017,note_off,0,0,0,,7,,,79,127
54018,note_off,1,0,0,,0,,,60,127
54019,note_on,1,0,0,,2,,,62,127
54019,note_on,0,0,0,,6,,,78,127
54120,note_on,101,0,0,,7,,,67,127
54219,note_off,99,0,0,,7,,,67,127
54219,note_off,0,0,0,,6,,,78,127
54221,note_on,2,0,0,,6,,,66,127
54221,note_on,0,0,0,,10,,,81,127
54320,note_off,99,0,0,,6,,,66,127
54322,note_on,2,0,0,,7,,,67,127
54421,note_off,99,0,0,,7,,,67,127
54421,note_off,0,0,0,,10,,,81,127
54423,note_on,2,0,0,,6,,,66,127
54423,note_on,0,0,0,,11,,,82,127
54522,note_off,99,0,0,,6,,,66,127
54524,note_on,2,0,0,,7,,,67,127
54623,note_off,99,0,0,,7,,,67,127
54623,note_off,0,0,0,,11,,,82,127
54624,note_off,1,0,0,,2,,,62,127
54625,note_on,1,0,0,,3,,,63,127
54625,note_on,0,0,0,,0,,,84,127
54726,note_on,101,0,0,,7,,,67,127
54825,note_off,99,0,0,,7,,,67,127
54825,note_off,0,0,0,,0,,,84,127
54827,note_on,2,0,0,,6,,,66,127
54827,note_on,0,0,0,,10,,,81,127
54926,note_off,99,0,0,,6,,,66,127
54928,note_on,2,0,0,,7,,,67,127
55027,note_off,99,0,0,,7,,,67,127
55027,note_off,0,0,0,,10,,,81,127
55029,note_on,2,0,0,,6,,,66,127
55029,note_on,0,0,0,,7,,,79,127
55128,note_off,99,0,0,,6,,,66,127
55130,note_on,2,0,0,,7,,,67,127
55229,note_off,99,0,0,,7,,,67,127
55229,note_off,0,0,0,,7,,,79,127
55230,note_off,1,0,0,,3,,,63,127
55231,note_on,1,0,0,,2,,,62,127
55231,note_on,0,0,0,,6,,,78,127
55332,note_on,101,0,0,,7,,,67,127
55431,note_off,99,0,0,,7,,,67,127
55431,note_off,0,0,0,,6,,,78,127
55433,note_on,2,0,0,,6,,,66,127
55433,note_on,0,0,0,,0,,,72,127
55532,note_off,99,0,0,,6,,,66,127
55534,note_on,2,0,0,,7,,,67,127
55633,note_off,99,0,0,,7,,,67,127
55633,note_off,0,0,0,,0,,,72,127
55635,note_on,2,0,0,,6,,,66,127
55635,note_on,0,0,0,,2,,,74,127
55734,note_off,99,0,0,,6,,,66,127
55736,note_on,2,0,0,,7,,,67,127
55835,note_off,99,0,0,,7,,,67,127
55835,note_off,0,0,0,,2,,,74,127
55836,note_off,1,0,0,,2,,,62,127
55837,note_on,1,0,0,,0,,,60,127
55837,note_on,0,0,0,,3,,,75,127
55938,note_on,101,0,0,,7,,,67,127
56037,note_off,99,0,0,,7,,,67,127
56037,note_off,0,0,0,,3,,,75,127
56039,note_on,2,0,0,,6,,,66,127
56039,note_on,0,0,0,,0,,,72,127
56138,note_off,99,0,0,,6,,,66,127
56140,note_on,2,0,0,,7,,,67,127
56239,note_off,99,0,0,,7,,,67,127
56239,note_off,0,0,0,,0,,,72,127
56241,note_on,2,0,0,,6,,,66,127
56241,note_on,0,0,0,,7,,,79,127
56340,note_off,99,0,0,,6,,,66,127
56342,note_on,2,0,0,,7,,,67,127
56441,note_off,99,0,0,,7,,,67,127
56441,note_off,0,0,0,,7,,,79,127
56442,note_off,1,0,0,,0,,,60,127
56443,note_on,1,0,0,,2,,,62,127
56443,note_on,0,0,0,,6,,,78,127
56544,note_on,101,0,0,,7,,,67,127
56643,note_off,99,0,0,,7,,,67,127
56643,note_off,0,0,0,,6,,,78,127
56645,note_on,2,0,0,,6,,,66,127
56645,note_on,0,0,0,,10,,,81,127
56744,note_off,99,0,0,,6,,,66,127
56746,note_on,2,0,0,,7,,,67,127
56845,note_off,99,0,0,,7,,,67,127
56845,note_off,0,0,0,,10,,,81,127
56847,note_on,2,0,0,,6,,,66,127
56847,note_on,0,0,0,,11,,,82,127
56946,note_off,99,0,0,,6,,,66,127
56948,note_on,2,0,0,,7,,,67,127
57047,note_off,99,0,0,,7,,,67,127
57047,note_off,0,0,0,,11,,,82,127
57048,note_off,1,0,0,,2,,,62,127
57049,note_on,1,0,0,,3,,,63,127
57049,note_on,0,0,0,,0,,,84,127
57150,note_on,101,0,0,,7,,,67,127
57249,note_off,99,0,0,,7,,,67,127
57249,note_off,0,0,0,,0,,,84,127
57251,note_on,2,0,0,,6,,,66,127
57251,note_on,0,0,0,,10,,,81,127
57350,note_off,99,0,0,,6,,,66,127
57352,note_on,2,0,0,,7,,,67,127
57451,note_off,99,0,0,,7,,,67,127
57451,note_off,0,0,0,,10,,,81,127
57452,note_off,1,0,0,,3,,,63,127
57453,note_on,1,0,0,,6,,,66,127
57453,note_on,0,0,0,,7,,,79,127
57552,note_off,99,0,0,,6,,,66,127
57554,note_on,2,0,0,,7,,,67,127
57653,note_off,99,0,0,,7,,,67,127
57653,note_off,0,0,0,,7,,,79,127
57655,note_on,2,0,0,,2,,,62,127
57655,note_on,0,0,0,,6,,,78,127
57754,note_off,99,0,0,,6,,,78,127
57756,note_on,2,0,0,,3,,,75,127
57855,note_off,99,0,0,,3,,,75,127
57857,note_on,2,0,0,,2,,,50,127
57857,note_on,0,0,0,,2,,,74,127
57956,note_off,99,0,0,,2,,,74,127
57958,note_on,2,0,0,,0,,,72,127
58057,note_off,99,0,0,,0,,,72,127
58057,note_off,0,0,0,,2,,,50,127
58058,note_off,1,0,0,,2,,,62,127
58059,note_on,1,0,0,,6,,,66,127
58059,note_on,0,0,0,,11,,,70,127
58158,note_off,99,0,0,,11,,,70,127
58160,note_on,2,0,0,,10,,,69,127
58259,note_off,99,0,0,,10,,,69,127
58259,note_off,0,0,0,,6,,,66,127
58261,note_on,2,0,0,,7,,,67,127
58261,note_on,0,0,0,,11,,,70,127
58360,note_off,99,0,0,,11,,,70,127
58362,note_on,2,0,0,,2,,,74,127
58461,note_off,99,0,0,,2,,,74,127
58463,note_on,2,0,0,,7,,,55,127
58463,note_on,0,0,0,,0,,,72,127
58562,note_off,99,0,0,,0,,,72,127
58564,note_on,2,0,0,,11,,,70,127
58663,note_off,99,0,0,,11,,,70,127
58663,note_off,0,0,0,,7,,,55,127
58664,note_off,1,0,0,,7,,,67,127
58665,note_on,1,0,0,,11,,,58,127
58665,note_on,0,0,0,,10,,,69,127
58764,note_off,99,0,0,,10,,,69,127
58766,note_on,2,0,0,,7,,,67,127
58865,note_off,99,0,0,,11,,,58,127
58867,note_on,2,0,0,,0,,,60,127
58867,note_on,0,0,0,,10,,,57,127
58966,note_off,99,0,0,,7,,,67,127
58968,note_on,2,0,0,,0,,,72,127
59067,note_off,99,0,0,,0,,,72,127
59069,note_on,2,0,0,,6,,,66,127
59168,note_off,99,0,0,,6,,,66,127
59170,note_on,2,0,0,,7,,,67,127
59269,note_off,99,0,0,,7,,,67,127
59269,note_off,0,0,0,,10,,,57,127
59270,note_off,1,0,0,,0,,,60,127
59271,note_on,1,0,0,,7,,,55,127
59271,note_on,0,0,0,,0,,,60,127
59370,note_off,99,0,0,,0,,,60,127
59372,note_on,2,0,0,,3,,,63,127
59471,note_off,99,0,0,,3,,,63,127
59471,note_off,0,0,0,,7,,,55,127
59473,note_on,2,0,0,,6,,,54,127
59473,note_on,0,0,0,,0,,,60,127
59473,note_on,0,0,0,,2,,,62,127
59572,note_off,99,0,0,,2,,,62,127
59574,note_on,2,0,0,,0,,,72,127
59673,note_off,99,0,0,,0,,,72,127
59675,note_on,2,0,0,,11,,,70,127
59774,note_off,99,0,0,,11,,,70,127
59776,note_on,2,0,0,,10,,,69,127
59875,note_off,99,0,0,,10,,,69,127
59875,note_off,0,0,0,,6,,,54,127
59877,note_on,2,0,0,,7,,,55,127
59877,note_on,0,0,0,,2,,,74,127
59976,note_off,99,0,0,,2,,,74,127
59978,note_on,2,0,0,,7,,,67,127
60077,note_off,99,0,0,,7,,,55,127
60078,note_off,1,0,0,,0,,,60,127
60079,note_on,1,0,0,,0,,,60,127
60079,note_on,0,0,0,,10,,,57,127
60178,note_off,99,0,0,,7,,,67,127
60180,note_on,2,0,0,,0,,,72,127
60279,note_off,99,0,0,,0,,,72,127
60281,note_on,2,0,0,,6,,,66,127
60380,note_off,99,0,0,,6,,,66,127
60382,note_on,2,0,0,,7,,,67,127
60481,note_off,99,0,0,,7,,,67,127
60481,note_off,0,0,0,,10,,,57,127
60482,note_off,1,0,0,,0,,,60,127
60483,note_on,1,0,0,,7,,,55,127
60483,note_on,0,0,0,,0,,,60,127
60582,note_off,99,0,0,,0,,,60,127
60584,note_on,2,0,0,,3,,,63,127
60683,note_off,99,0,0,,3,,,63,127
60683,note_off,0,0,0,,7,,,55,127
60685,note_on,2,0,0,,0,,,60,127
60685,note_on,0,0,0,,6,,,54,127
60685,note_on,0,0,0,,2,,,62,127
60784,note_off,99,0,0,,2,,,62,127
60786,note_on,2,0,0,,0,,,72,127
60885,note_off,99,0,0,,0,,,72,127
60887,note_on,2,0,0,,11,,,70,127
60986,note_off,99,0,0,,11,,,70,127
60988,note_on,2,0,0,,10,,,69,127
61087,note_off,99,0,0,,10,,,69,127
61087,note_off,0,0,0,,6,,,54,127
61089,note_on,2,0,0,,7,,,55,127
61089,note_on,0,0,0,,2,,,74,127
61188,note_off,99,0,0,,2,,,74,127
61190,note_on,2,0,0,,7,,,67,127
61289,note_off,99,0,0,,7,,,55,127
61290,note_off,1,0,0,,0,,,60,127
61291,note_on,1,0,0,,0,,,60,127
61291,note_on,0,0,0,,10,,,57,127
61390,note_off,99,0,0,,7,,,67,127
61392,note_on,2,0,0,,0,,,72,127
61491,note_off,99,0,0,,0,,,72,127
61493,note_on,2,0,0,,6,,,66,127
61592,note_off,99,0,0,,6,,,66,127
61594,note_on,2,0,0,,7,,,67,127
61693,note_off,99,0,0,,7,,,67,127
61693,note_off,0,0,0,,10,,,57,127
61694,note_off,1,0,0,,0,,,60,127
61695,note_on,1,0,0,,7,,,55,127
61695,note_on,0,0,0,,0,,,60,127
61794,note_off,99,0,0,,0,,,60,127
61796,note_on,2,0,0,,3,,,63,127
61895,note_off,99,0,0,,3,,,63,127
61895,note_off,0,0,0,,7,,,55,127
61897,note_on,2,0,0,,0,,,60,127
61897,note_on,0,0,0,,6,,,54,127
61897,note_on,0,0,0,,2,,,62,127
61996,note_off,99,0,0,,2,,,62,127
61998,note_on,2,0,0,,0,,,72,127
62097,note_off,99,0,0,,0,,,72,127
62099,note_on,2,0,0,,11,,,70,127
62198,note_off,99,0,0,,11,,,70,127
62200,note_on,2,0,0,,10,,,69,127
62299,note_off,99,0,0,,10,,,69,127
62299,note_off,0,0,0,,6,,,54,127
62299,note_off,0,0,0,,0,,,60,127
62301,note_on,2,0,0,,7,,,55,127
62301,note_on,0,0,0,,11,,,70,127
62400,note_off,99,0,0,,11,,,70,127
62402,note_on,2,0,0,,0,,,72,127
62501,note_off,99,0,0,,0,,,72,127
62501,note_off,0,0,0,,7,,,55,127
62503,note_on,2,0,0,,0,,,48,127
62503,note_on,0,0,0,,11,,,70,127
62562,note_off,59,0,0,,11,,,70,127
62563,note_on,1,0,0,,10,,,69,127
62602,note_off,39,0,0,,0,,,48,127
62604,note_on,2,0,0,,3,,,51,127
62621,note_off,17,0,0,,10,,,69,127
62624,note_on,3,0,0,,11,,,70,127
62683,note_off,59,0,0,,11,,,70,127
62684,note_on,1,0,0,,10,,,69,127
62703,note_off,19,0,0,,3,,,51,127
62705,note_on,2,0,0,,2,,,50,127
62742,note_off,37,0,0,,10,,,69,127
62745,note_on,3,0,0,,11,,,70,127
62804,note_off,59,0,0,,11,,,70,127
62804,note_off,0,0,0,,2,,,50,127
62806,note_on,2,0,0,,7,,,55,127
62806,note_on,0,0,0,,10,,,69,127
62865,note_off,59,0,0,,10,,,69,127
62866,note_on,1,0,0,,11,,,70,127
62905,note_off,39,0,0,,7,,,55,127
62907,note_on,2,0,0,,6,,,54,127
62924,note_off,17,0,0,,11,,,70,127
62927,note_on,3,0,0,,10,,,69,127
62986,note_off,59,0,0,,10,,,69,127
62987,note_on,1,0,0,,11,,,70,127
63006,note_off,19,0,0,,6,,,54,127
63008,note_on,2,0,0,,0,,,60,127
63045,note_off,37,0,0,,11,,,70,127
63048,note_on,3,0,0,,10,,,69,127
63107,note_off,59,0,0,,0,,,60,127
63109,note_on,2,0,0,,11,,,58,127
63208,note_off,99,0,0,,10,,,69,127
63210,note_on,2,0,0,,7,,,67,127
63309,note_off,99,0,0,,7,,,67,127
63311,note_on,2,0,0,,10,,,69,127
63410,note_off,99,0,0,,10,,,69,127
63412,note_on,2,0,0,,11,,,70,127
63511,note_off,99,0,0,,11,,,70,127
63513,note_on,2,0,0,,1,,,73,127
63612,note_off,99,0,0,,1,,,73,127
63614,note_on,2,0,0,,2,,,74,127
63713,note_off,99,0,0,,2,,,74,127
63713,note_off,0,0,0,,11,,,58,127
63715,note_on,2,0,0,,0,,,48,127
63715,note_on,0,0,0,,11,,,70,127
63774,note_off,59,0,0,,11,,,70,127
63775,note_on,1,0,0,,10,,,69,127
63814,note_off,39,0,0,,0,,,48,127
63816,note_on,2,0,0,,3,,,51,127
63833,note_off,17,0,0,,10,,,69,127
63836,note_on,3,0,0,,11,,,70,127
63895,note_off,59,0,0,,11,,,70,127
63896,note_on,1,0,0,,10,,,69,127
63915,note_off,19,0,0,,3,,,51,127
63917,note_on,2,0,0,,2,,,50,127
63954,note_off,37,0,0,,10,,,69,127
63957,note_on,3,0,0,,11,,,70,127
64016,note_off,59,0,0,,11,,,70,127
64016,note_off,0,0,0,,2,,,50,127
64018,note_on,2,0,0,,7,,,55,127
64018,note_on,0,0,0,,10,,,69,127
64077,note_off,59,0,0,,10,,,69,127
64078,note_on,1,0,0,,11,,,70,127
64117,note_off,39,0,0,,7,,,55,127
64119,note_on,2,0,0,,6,,,54,127
64136,note_off,17,0,0,,11,,,70,127
64139,note_on,3,0,0,,10,,,69,127
64198,note_off,59,0,0,,10,,,69,127
64199,note_on,1,0,0,,11,,,70,127
64218,note_off,19,0,0,,6,,,54,127
64220,note_on,2,0,0,,0,,,60,127
64257,note_off,37,0,0,,11,,,70,127
64260,note_on,3,0,0,,10,,,69,127
64319,note_off,59,0,0,,0,,,60,127
64321,note_on,2,0,0,,11,,,58,127
64420,note_off,99,0,0,,10,,,69,127
64422,note_on,2,0,0,,7,,,67,127
64521,note_off,99,0,0,,7,,,67,127
64523,note_on,2,0,0,,10,,,69,127
64622,note_off,99,0,0,,10,,,69,127
64624,note_on,2,0,0,,11,,,70,127
64723,note_off,99,0,0,,11,,,70,127
64725,note_on,2,0,0,,1,,,73,127
64824,note_off,99,0,0,,1,,,73,127
64826,note_on,2,0,0,,2,,,74,127
64925,note_off,99,0,0,,2,,,74,127
64925,note_off,0,0,0,,11,,,58,127
64927,note_on,2,0,0,,0,,,48,127
64927,note_on,0,0,0,,11,,,70,127
64986,note_off,59,0,0,,11,,,70,127
64987,note_on,1,0,0,,10,,,69,127
65026,note_off,39,0,0,,0,,,48,127
65028,note_on,2,0,0,,3,,,51,127
65045,note_off,17,0,0,,10,,,69,127
65048,note_on,3,0,0,,11,,,70,127
65107,note_off,59,0,0,,11,,,70,127
65108,note_on,1,0,0,,10,,,69,127
65127,note_off,19,0,0,,3,,,51,127
65129,note_on,2,0,0,,2,,,50,127
65166,note_off,37,0,0,,10,,,69,127
65169,note_on,3,0,0,,11,,,70,127
65228,note_off,59,0,0,,11,,,70,127
65228,note_off,0,0,0,,2,,,50,127
65230,note_on,2,0,0,,7,,,55,127
65230,note_on,0,0,0,,10,,,69,127
65289,note_off,59,0,0,,10,,,69,127
65290,note_on,1,0,0,,11,,,70,127
65329,note_off,39,0,0,,7,,,55,127
65331,note_on,2,0,0,,6,,,54,127
65348,note_off,17,0,0,,11,,,70,127
65351,note_on,3,0,0,,10,,,69,127
65410,note_off,59,0,0,,10,,,69,127
65411,note_on,1,0,0,,11,,,70,127
65430,note_off,19,0,0,,6,,,54,127
65432,note_on,2,0,0,,0,,,60,127
65469,note_off,37,0,0,,11,,,70,127
65472,note_on,3,0,0,,10,,,69,127
65531,note_off,59,0,0,,0,,,60,127
65533,note_on,2,0,0,,12,,,59,127
65634,note_on,101,0,0,,2,,,74,127
65672,note_off,38,0,0,,10,,,69,127
65733,note_off,61,0,0,,2,,,74,127
65735,note_on,2,0,0,,12,,,71,127
65834,note_off,99,0,0,,12,,,71,127
65836,note_on,2,0,0,,10,,,69,127
65935,note_off,99,0,0,,10,,,69,127
65937,note_on,2,0,0,,7,,,67,127
66036,note_off,99,0,0,,7,,,67,127
66038,note_on,2,0,0,,6,,,66,127
66137,note_off,99,0,0,,6,,,66,127
66137,note_off,0,0,0,,12,,,59,127
66139,note_on,2,0,0,,0,,,60,127
66139,note_on,0,0,0,,4,,,64,127
66240,note_on,101,0,0,,4,,,76,127
66339,note_off,99,0,0,,4,,,76,127
66339,note_off,0,0,0,,4,,,64,127
66341,note_on,2,0,0,,0,,,72,127
66440,note_off,99,0,0,,0,,,72,127
66442,note_on,2,0,0,,12,,,71,127
66541,note_off,99,0,0,,12,,,71,127
66543,note_on,2,0,0,,10,,,69,127
66642,note_off,99,0,0,,10,,,69,127
66644,note_on,2,0,0,,7,,,79,127
66743,note_off,99,0,0,,7,,,79,127
66743,note_off,0,0,0,,0,,,60,127
66745,note_on,2,0,0,,2,,,62,127
66745,note_on,0,0,0,,6,,,78,127
66844,note_off,99,0,0,,6,,,78,127
66846,note_on,2,0,0,,4,,,76,127
66945,note_off,99,0,0,,4,,,76,127
66947,note_on,2,0,0,,2,,,50,127
66947,note_on,0,0,0,,2,,,74,127
67046,note_off,99,0,0,,2,,,74,127
67048,note_on,2,0,0,,0,,,72,127
67147,note_off,99,0,0,,0,,,72,127
67147,note_off,0,0,0,,2,,,50,127
67148,note_off,1,0,0,,2,,,62,127
67149,note_on,1,0,0,,6,,,54,127
67149,note_on,0,0,0,,12,,,71,127
67248,note_off,99,0,0,,12,,,71,127
67250,note_on,2,0,0,,10,,,69,127
67349,note_off,99,0,0,,10,,,69,127
67349,note_off,0,0,0,,6,,,54,127
67351,note_on,2,0,0,,7,,,55,127
67351,note_on,0,0,0,,12,,,71,127
67450,note_off,99,0,0,,12,,,71,127
67452,note_on,2,0,0,,0,,,72,127
67551,note_off,99,0,0,,0,,,72,127
67551,note_off,0,0,0,,7,,,55,127
67553,note_on,2,0,0,,0,,,48,127
67553,note_on,0,0,0,,2,,,74,127
67652,note_off,99,0,0,,2,,,74,127
67654,note_on,2,0,0,,0,,,72,127
67753,note_off,99,0,0,,0,,,72,127
67753,note_off,0,0,0,,0,,,48,127
67755,note_on,2,0,0,,2,,,50,127
67755,note_on,0,0,0,,12,,,71,127
67854,note_off,99,0,0,,12,,,71,127
67856,note_on,2,0,0,,10,,,69,127
67955,note_off,99,0,0,,10,,,69,127
67955,note_off,0,0,0,,2,,,50,127
67957,note_on,2,0,0,,7,,,43,127
67957,note_on,0,0,0,,7,,,79,127
68056,note_off,99,0,0,,7,,,79,127
68058,note_on,2,0,0,,2,,,74,127
68157,note_off,99,0,0,,2,,,74,127
68157,note_off,0,0,0,,7,,,43,127
68159,note_on,2,0,0,,7,,,55,127
68159,note_on,0,0,0,,12,,,71,127
68258,note_off,99,0,0,,12,,,71,127
68260,note_on,2,0,0,,7,,,67,127
68359,note_off,99,0,0,,7,,,67,127
68359,note_off,0,0,0,,7,,,55,127
68361,note_on,2,0,0,,2,,,62,127
68361,note_on,0,0,0,,12,,,71,127
68460,note_off,99,0,0,,12,,,71,127
68462,note_on,2,0,0,,7,,,79,127
68561,note_off,99,0,0,,7,,,79,127
68561,note_off,0,0,0,,2,,,62,127
68563,note_on,2,0,0,,2,,,38,127
68563,note_on,0,0,0,,10,,,81,127
68662,note_off,99,0,0,,10,,,81,127
68664,note_on,2,0,0,,6,,,78,127
68763,note_off,99,0,0,,6,,,78,127
68763,note_off,0,0,0,,2,,,38,127
68765,note_on,2,0,0,,2,,,50,127
68765,note_on,0,0,0,,2,,,74,127
68864,note_off,99,0,0,,2,,,74,127
68866,note_on,2,0,0,,10,,,69,127
68965,note_off,99,0,0,,10,,,69,127
68965,note_off,0,0,0,,2,,,50,127
68967,note_on,2,0,0,,2,,,62,127
68967,note_on,0,0,0,,0,,,72,127
69066,note_off,99,0,0,,0,,,72,127
69068,note_on,2,0,0,,6,,,78,127
69167,note_off,99,0,0,,6,,,78,127
69167,note_off,0,0,0,,2,,,62,127
69169,note_on,2,0,0,,7,,,43,127
69169,note_on,0,0,0,,7,,,79,127
69268,note_off,99,0,0,,7,,,79,127
69270,note_on,2,0,0,,2,,,74,127
69369,note_off,99,0,0,,2,,,74,127
69369,note_off,0,0,0,,7,,,43,127
69371,note_on,2,0,0,,7,,,55,127
69371,note_on,0,0,0,,12,,,71,127
69470,note_off,99,0,0,,12,,,71,127
69472,note_on,2,0,0,,7,,,67,127
69571,note_off,99,0,0,,7,,,67,127
69571,note_off,0,0,0,,7,,,55,127
69573,note_on,2,0,0,,2,,,62,127
69573,note_on,0,0,0,,12,,,71,127
69672,note_off,99,0,0,,12,,,71,127
69674,note_on,2,0,0,,7,,,79,127
69773,note_off,99,0,0,,7,,,79,127
69773,note_off,0,0,0,,2,,,62,127
69775,note_on,2,0,0,,2,,,38,127
69775,note_on,0,0,0,,10,,,81,127
69874,note_off,99,0,0,,10,,,81,127
69876,note_on,2,0,0,,6,,,78,127
69975,note_off,99,0,0,,6,,,78,127
69975,note_off,0,0,0,,2,,,38,127
69977,note_on,2,0,0,,2,,,50,127
69977,note_on,0,0,0,,2,,,74,127
70076,note_off,99,0,0,,2,,,74,127
70078,note_on,2,0,0,,10,,,69,127
70177,note_off,99,0,0,,10,,,69,127
70177,note_off,0,0,0,,2,,,50,127
70179,note_on,2,0,0,,2,,,62,127
70179,note_on,0,0,0,,0,,,72,127
70278,note_off,99,0,0,,0,,,72,127
70280,note_on,2,0,0,,6,,,78,127
70379,note_off,99,0,0,,6,,,78,127
70379,note_off,0,0,0,,2,,,62,127
70381,note_on,2,0,0,,7,,,43,127
70381,note_on,0,0,0,,7,,,79,127
70480,note_off,99,0,0,,7,,,79,127
70482,note_on,2,0,0,,2,,,74,127
70581,note_off,99,0,0,,2,,,74,127
70581,note_off,0,0,0,,7,,,43,127
70583,note_on,2,0,0,,7,,,55,127
70583,note_on,0,0,0,,12,,,71,127
70682,note_off,99,0,0,,12,,,71,127
70684,note_on,2,0,0,,7,,,67,127
70783,note_off,99,0,0,,7,,,67,127
70783,note_off,0,0,0,,7,,,55,127
70785,note_on,2,0,0,,2,,,62,127
70785,note_on,0,0,0,,12,,,71,127
70884,note_off,99,0,0,,12,,,71,127
70886,note_on,2,0,0,,7,,,79,127
70985,note_off,99,0,0,,7,,,79,127
70985,note_off,0,0,0,,2,,,62,127
70987,note_on,2,0,0,,2,,,38,127
70987,note_on,0,0,0,,10,,,81,127
71086,note_off,99,0,0,,10,,,81,127
71088,note_on,2,0,0,,6,,,78,127
71187,note_off,99,0,0,,6,,,78,127
71187,note_off,0,0,0,,2,,,38,127
71189,note_on,2,0,0,,2,,,50,127
71189,note_on,0,0,0,,2,,,74,127
71288,note_off,99,0,0,,2,,,74,127
71290,note_on,2,0,0,,10,,,69,127
71389,note_off,99,0,0,,10,,,69,127
71389,note_off,0,0,0,,2,,,50,127
71391,note_on,2,0,0,,2,,,62,127
71391,note_on,0,0,0,,0,,,72,127
71490,note_off,99,0,0,,0,,,72,127
71492,note_on,2,0,0,,6,,,78,127
71591,note_off,99,0,0,,6,,,78,127
71591,note_off,0,0,0,,2,,,62,127
71593,note_on,2,0,0,,7,,,43,127
71593,note_on,0,0,0,,7,,,79,127
71593,note_on,0,0,0,,12,,,71,127
71692,note_off,99,0,0,,12,,,71,127
71694,note_on,2,0,0,,10,,,69,127
71793,note_off,99,0,0,,10,,,69,127
71793,note_off,0,0,0,,7,,,43,127
71795,note_on,2,0,0,,10,,,45,127
71795,note_on,0,0,0,,12,,,71,127
71894,note_off,99,0,0,,12,,,71,127
71896,note_on,2,0,0,,0,,,72,127
71995,note_off,99,0,0,,0,,,72,127
71995,note_off,0,0,0,,10,,,45,127
71996,note_off,1,0,0,,7,,,79,127
71997,note_on,1,0,0,,12,,,47,127
71997,note_on,0,0,0,,2,,,74,127
72096,note_off,99,0,0,,2,,,74,127
72098,note_on,2,0,0,,0,,,72,127
72197,note_off,99,0,0,,0,,,72,127
72197,note_off,0,0,0,,12,,,47,127
72199,note_on,2,0,0,,0,,,48,127
72199,note_on,0,0,0,,2,,,74,127
72298,note_off,99,0,0,,2,,,74,127
72300,note_on,2,0,0,,4,,,76,127
72399,note_off,99,0,0,,4,,,76,127
72399,note_off,0,0,0,,0,,,48,127
72401,note_on,2,0,0,,2,,,50,127
72401,note_on,0,0,0,,2,,,74,127
72500,note_off,99,0,0,,2,,,74,127
72502,note_on,2,0,0,,0,,,72,127
72601,note_off,99,0,0,,0,,,72,127
72603,note_on,2,0,0,,2,,,38,127
72603,note_on,0,0,0,,12,,,71,127
72702,note_off,99,0,0,,12,,,71,127
72704,note_on,2,0,0,,10,,,69,127
72803,note_off,99,0,0,,10,,,69,127
72803,note_off,0,0,0,,2,,,38,127
72804,note_off,1,0,0,,2,,,50,127
72805,note_on,1,0,0,,7,,,43,127
72805,note_on,0,0,0,,12,,,83,127
72904,note_off,99,0,0,,12,,,83,127
72906,note_on,2,0,0,,7,,,79,127
73005,note_off,99,0,0,,7,,,79,127
73005,note_off,0,0,0,,7,,,43,127
73007,note_on,2,0,0,,7,,,55,127
73007,note_on,0,0,0,,2,,,74,127
73106,note_off,99,0,0,,2,,,74,127
73108,note_on,2,0,0,,12,,,71,127
73207,note_off,99,0,0,,12,,,71,127
73207,note_off,0,0,0,,7,,,55,127
73209,note_on,2,0,0,,2,,,62,127
73209,note_on,0,0,0,,2,,,74,127
73308,note_off,99,0,0,,2,,,74,127
73310,note_on,2,0,0,,12,,,83,127
73409,note_off,99,0,0,,12,,,83,127
73409,note_off,0,0,0,,2,,,62,127
73411,note_on,2,0,0,,2,,,38,127
73411,note_on,0,0,0,,0,,,84,127
73510,note_off,99,0,0,,0,,,84,127
73512,note_on,2,0,0,,10,,,81,127
73611,note_off,99,0,0,,10,,,81,127
73611,note_off,0,0,0,,2,,,38,127
73613,note_on,2,0,0,,2,,,50,127
73613,note_on,0,0,0,,6,,,78,127
73712,note_off,99,0,0,,6,,,78,127
73714,note_on,2,0,0,,2,,,74,127
73813,note_off,99,0,0,,2,,,74,127
73813,note_off,0,0,0,,2,,,50,127
73815,note_on,2,0,0,,2,,,62,127
73815,note_on,0,0,0,,6,,,78,127
73914,note_off,99,0,0,,6,,,78,127
73916,note_on,2,0,0,,0,,,84,127
74015,note_off,99,0,0,,0,,,84,127
74015,note_off,0,0,0,,2,,,62,127
74017,note_on,2,0,0,,7,,,43,127
74017,note_on,0,0,0,,12,,,83,127
74116,note_off,99,0,0,,12,,,83,127
74118,note_on,2,0,0,,7,,,79,127
74217,note_off,99,0,0,,7,,,79,127
74217,note_off,0,0,0,,7,,,43,127
74219,note_on,2,0,0,,7,,,55,127
74219,note_on,0,0,0,,2,,,74,127
74318,note_off,99,0,0,,2,,,74,127
74320,note_on,2,0,0,,12,,,71,127
74419,note_off,99,0,0,,12,,,71,127
74419,note_off,0,0,0,,7,,,55,127
74421,note_on,2,0,0,,2,,,62,127
74421,note_on,0,0,0,,2,,,74,127
74520,note_off,99,0,0,,2,,,74,127
74522,note_on,2,0,0,,12,,,83,127
74621,note_off,99,0,0,,12,,,83,127
74621,note_off,0,0,0,,2,,,62,127
74623,note_on,2,0,0,,2,,,38,127
74623,note_on,0,0,0,,0,,,84,127
74722,note_off,99,0,0,,0,,,84,127
74724,note_on,2,0,0,,10,,,81,127
74823,note_off,99,0,0,,10,,,81,127
74823,note_off,0,0,0,,2,,,38,127
74825,note_on,2,0,0,,2,,,50,127
74825,note_on,0,0,0,,6,,,78,127
74924,note_off,99,0,0,,6,,,78,127
74926,note_on,2,0,0,,2,,,74,127
75025,note_off,99,0,0,,2,,,74,127
75025,note_off,0,0,0,,2,,,50,127
75027,note_on,2,0,0,,2,,,62,127
75027,note_on,0,0,0,,6,,,78,127
75126,note_off,99,0,0,,6,,,78,127
75128,note_on,2,0,0,,0,,,84,127
75227,note_off,99,0,0,,0,,,84,127
75227,note_off,0,0,0,,2,,,62,127
75229,note_on,2,0,0,,7,,,43,127
75229,note_on,0,0,0,,12,,,83,127
75328,note_off,99,0,0,,12,,,83,127
75330,note_on,2,0,0,,7,,,79,127
75429,note_off,99,0,0,,7,,,79,127
75429,note_off,0,0,0,,7,,,43,127
75431,note_on,2,0,0,,7,,,55,127
75431,note_on,0,0,0,,2,,,74,127
75530,note_off,99,0,0,,2,,,74,127
75532,note_on,2,0,0,,12,,,71,127
75631,note_off,99,0,0,,12,,,71,127
75631,note_off,0,0,0,,7,,,55,127
75633,note_on,2,0,0,,2,,,62,127
75633,note_on,0,0,0,,2,,,74,127
75732,note_off,99,0,0,,2,,,74,127
75734,note_on,2,0,0,,12,,,83,127
75833,note_off,99,0,0,,12,,,83,127
75833,note_off,0,0,0,,2,,,62,127
75835,note_on,2,0,0,,2,,,38,127
75835,note_on,0,0,0,,0,,,84,127
75934,note_off,99,0,0,,0,,,84,127
75936,note_on,2,0,0,,10,,,81,127
76035,note_off,99,0,0,,10,,,81,127
76035,note_off,0,0,0,,2,,,38,127
76037,note_on,2,0,0,,2,,,50,127
76037,note_on,0,0,0,,6,,,78,127
76136,note_off,99,0,0,,6,,,78,127
76138,note_on,2,0,0,,2,,,74,127
76237,note_off,99,0,0,,2,,,74,127
76237,note_off,0,0,0,,2,,,50,127
76239,note_on,2,0,0,,2,,,62,127
76239,note_on,0,0,0,,6,,,78,127
76338,note_off,99,0,0,,6,,,78,127
76340,note_on,2,0,0,,0,,,84,127
76439,note_off,99,0,0,,0,,,84,127
76439,note_off,0,0,0,,2,,,62,127
76441,note_on,2,0,0,,7,,,43,127
76441,note_on,0,0,0,,12,,,83,127
76540,note_off,99,0,0,,12,,,83,127
76542,note_on,2,0,0,,10,,,81,127
76641,note_off,99,0,0,,10,,,81,127
76641,note_off,0,0,0,,7,,,43,127
76643,note_on,2,0,0,,10,,,45,127
76643,note_on,0,0,0,,7,,,79,127
76742,note_off,99,0,0,,7,,,79,127
76744,note_on,2,0,0,,6,,,78,127
76843,note_off,99,0,0,,6,,,78,127
76843,note_off,0,0,0,,10,,,45,127
76845,note_on,2,0,0,,12,,,47,127
76845,note_on,0,0,0,,7,,,79,127
76944,note_off,99,0,0,,7,,,79,127
76946,note_on,2,0,0,,2,,,74,127
77045,note_off,99,0,0,,2,,,74,127
77045,note_off,0,0,0,,12,,,47,127
77047,note_on,2,0,0,,0,,,48,127
77047,note_on,0,0,0,,4,,,76,127
77146,note_off,99,0,0,,4,,,76,127
77148,note_on,2,0,0,,0,,,72,127
77247,note_off,99,0,0,,0,,,72,127
77247,note_off,0,0,0,,0,,,48,127
77249,note_on,2,0,0,,2,,,50,127
77249,note_on,0,0,0,,12,,,71,127
77348,note_off,99,0,0,,12,,,71,127
77350,note_on,2,0,0,,10,,,69,127
77449,note_off,99,0,0,,10,,,69,127
77451,note_on,2,0,0,,2,,,38,127
77451,note_on,0,0,0,,7,,,67,127
77550,note_off,99,0,0,,7,,,67,127
77552,note_on,2,0,0,,6,,,66,127
77651,note_off,99,0,0,,6,,,66,127
77651,note_off,0,0,0,,2,,,38,127
77652,note_off,1,0,0,,2,,,50,127
77653,note_on,1,0,0,,7,,,43,127
77653,note_on,0,0,0,,7,,,67,127
77754,note_on,101,0,0,,2,,,74,127
77779,note_off,25,0,0,,7,,,67,127
77853,note_off,74,0,0,,2,,,74,127
77853,note_off,0,0,0,,7,,,43,127
77855,note_on,2,0,0,,10,,,45,127
77855,note_on,0,0,0,,12,,,71,127
77954,note_off,99,0,0,,12,,,71,127
77956,note_on,2,0,0,,10,,,69,127
78055,note_off,99,0,0,,10,,,69,127
78055,note_off,0,0,0,,10,,,45,127
78057,note_on,2,0,0,,12,,,47,127
78057,note_on,0,0,0,,7,,,67,127
78156,note_off,99,0,0,,7,,,67,127
78158,note_on,2,0,0,,6,,,66,127
78257,note_off,99,0,0,,6,,,66,127
78257,note_off,0,0,0,,12,,,47,127
78259,note_on,2,0,0,,0,,,48,127
78259,note_on,0,0,0,,4,,,64,127
78360,note_on,101,0,0,,0,,,72,127
78385,note_off,25,0,0,,4,,,64,127
78459,note_off,74,0,0,,0,,,72,127
78459,note_off,0,0,0,,0,,,48,127
78461,note_on,2,0,0,,2,,,50,127
78461,note_on,0,0,0,,12,,,71,127
78560,note_off,99,0,0,,12,,,71,127
78562,note_on,2,0,0,,10,,,69,127
78661,note_off,99,0,0,,10,,,69,127
78663,note_on,2,0,0,,2,,,38,127
78663,note_on,0,0,0,,7,,,67,127
78762,note_off,99,0,0,,7,,,67,127
78764,note_on,2,0,0,,6,,,66,127
78863,note_off,99,0,0,,6,,,66,127
78863,note_off,0,0,0,,2,,,38,127
78864,note_off,1,0,0,,2,,,50,127
78865,note_on,1,0,0,,7,,,43,127
78865,note_on,0,0,0,,7,,,67,127
78966,note_on,101,0,0,,2,,,62,127
78991,note_off,25,0,0,,7,,,67,127
79065,note_off,74,0,0,,2,,,62,127
79065,note_off,0,0,0,,7,,,43,127
79067,note_on,2,0,0,,10,,,45,127
79067,note_on,0,0,0,,12,,,59,127
79166,note_off,99,0,0,,12,,,59,127
79168,note_on,2,0,0,,10,,,57,127
79267,note_off,99,0,0,,10,,,57,127
79267,note_off,0,0,0,,10,,,45,127
79269,note_on,2,0,0,,12,,,47,127
79269,note_on,0,0,0,,7,,,55,127
79368,note_off,99,0,0,,7,,,55,127
79370,note_on,2,0,0,,6,,,54,127
79469,note_off,99,0,0,,6,,,54,127
79469,note_off,0,0,0,,12,,,47,127
79471,note_on,2,0,0,,0,,,48,127
79471,note_on,0,0,0,,4,,,52,127
79572,note_on,101,0,0,,0,,,60,127
79597,note_off,25,0,0,,4,,,52,127
79671,note_off,74,0,0,,0,,,60,127
79671,note_off,0,0,0,,0,,,48,127
79673,note_on,2,0,0,,2,,,50,127
79673,note_on,0,0,0,,12,,,59,127
79772,note_off,99,0,0,,12,,,59,127
79774,note_on,2,0,0,,10,,,57,127
79873,note_off,99,0,0,,10,,,57,127
79875,note_on,2,0,0,,2,,,38,127
79875,note_on,0,0,0,,7,,,55,127
79974,note_off,99,0,0,,7,,,55,127
80001,note_on,27,0,0,,6,,,54,127
80076,note_off,75,0,0,,2,,,50,127
80085,note_off,9,0,0,,2,,,38,127
80108,note_off,23,0,0,,6,,,54,127
80133,note_on,25,0,0,,7,,,43,127
80133,note_on,0,0,0,,7,,,55,127
82028,note_off,1895,0,0,,7,,,55,127
82028,note_off,0,0,0,,7,,,43,127
86016,end_of_track,3988,1,0,,,,,,
