tick,type,time,meta,track,program,channel,pitch,tempo,note,velocity
0,copyright,0,1,0,,,,,,
0,program_change,0,0,0,6,0,,,,
0,pitchwheel,0,0,0,,0,0,,,
0,program_change,0,0,0,6,1,,,,
0,pitchwheel,0,0,0,,1,-590,,,
0,program_change,0,0,0,6,2,,,,
0,pitchwheel,0,0,0,,2,-272,,,
0,program_change,0,0,0,6,3,,,,
0,pitchwheel,0,0,0,,3,-353,,,
0,program_change,0,0,0,6,4,,,,
0,pitchwheel,0,0,0,,4,-560,,,
0,program_change,0,0,0,6,5,,,,
0,pitchwheel,0,0,0,,5,-80,,,
0,program_change,0,0,0,6,6,,,,
0,pitchwheel,0,0,0,,6,-625,,,
0,program_change,0,0,0,6,7,,,,
0,pitchwheel,0,0,0,,7,-130,,,
0,program_change,0,0,0,6,8,,,,
0,pitchwheel,0,0,0,,8,-512,,,
0,program_change,0,0,0,6,10,,,,
0,pitchwheel,0,0,0,,10,-464,,,
0,program_change,0,0,0,6,11,,,,
0,pitchwheel,0,0,0,,11,-208,,,
0,program_change,0,0,0,6,12,,,,
0,pitchwheel,0,0,0,,12,-553,,,
0,set_tempo,0,1,0,,,,500000,,
79,note_on,79,0,0,,0,,,48,127
158,note_on,79,0,0,,0,,,72,127
237,note_off,79,0,0,,0,,,72,127
238,note_on,1,0,0,,2,,,74,127
317,note_off,79,0,0,,2,,,74,127
318,note_on,1,0,0,,3,,,75,127
394,note_off,76,0,0,,0,,,48,127
396,note_off,2,0,0,,3,,,75,127
397,note_on,1,0,0,,5,,,77,127
476,note_off,79,0,0,,5,,,77,127
477,note_on,1,0,0,,7,,,79,127
556,note_off,79,0,0,,7,,,79,127
557,note_on,1,0,0,,8,,,80,127
715,note_off,158,0,0,,8,,,80,127
716,note_on,1,0,0,,7,,,79,127
875,note_on,159,0,0,,2,,,74,127
1031,note_off,156,0,0,,7,,,79,127
1033,note_off,2,0,0,,2,,,74,127
1034,note_on,1,0,0,,3,,,75,127
1192,note_off,158,0,0,,3,,,75,127
1193,note_on,1,0,0,,2,,,74,127
1352,note_on,159,0,0,,7,,,67,127
1508,note_off,156,0,0,,2,,,74,127
1510,note_off,2,0,0,,7,,,67,127
1511,note_on,1,0,0,,8,,,68,127
1669,note_off,158,0,0,,8,,,68,127
1670,note_on,1,0,0,,7,,,67,127
1829,note_on,159,0,0,,2,,,62,127
1985,note_off,156,0,0,,7,,,67,127
1987,note_off,2,0,0,,2,,,62,127
1988,note_on,1,0,0,,3,,,63,127
2146,note_off,158,0,0,,3,,,63,127
2147,note_on,1,0,0,,2,,,62,127
2306,note_on,159,0,0,,7,,,55,127
2462,note_off,156,0,0,,2,,,62,127
2464,note_off,2,0,0,,7,,,55,127
2465,note_on,1,0,0,,8,,,56,127
2623,note_off,158,0,0,,8,,,56,127
2624,note_on,1,0,0,,7,,,55,127
2783,note_on,159,0,0,,7,,,43,127
2939,note_off,156,0,0,,7,,,55,127
2941,note_off,2,0,0,,7,,,43,127
2942,note_on,1,0,0,,0,,,36,127
3101,note_on,159,0,0,,0,,,72,127
3180,note_off,79,0,0,,0,,,72,127
3181,note_on,1,0,0,,2,,,74,127
3260,note_off,79,0,0,,2,,,74,127
3261,note_on,1,0,0,,3,,,75,127
3340,note_off,79,0,0,,3,,,75,127
3341,note_on,1,0,0,,5,,,77,127
3420,note_off,79,0,0,,5,,,77,127
3420,note_off,0,0,0,,0,,,36,127
3421,note_on,1,0,0,,5,,,65,127
3421,note_on,0,0,0,,2,,,74,127
3579,note_off,158,0,0,,2,,,74,127
3579,note_off,0,0,0,,5,,,65,127
3580,note_on,1,0,0,,3,,,63,127
3580,note_on,0,0,0,,0,,,72,127
3738,note_off,158,0,0,,0,,,72,127
3738,note_off,0,0,0,,3,,,63,127
3739,note_on,1,0,0,,2,,,62,127
3739,note_on,0,0,0,,12,,,71,127
3897,note_off,158,0,0,,12,,,71,127
3897,note_off,0,0,0,,2,,,62,127
3898,note_on,1,0,0,,3,,,63,127
3898,note_on,0,0,0,,7,,,79,127
4056,note_off,158,0,0,,3,,,63,127
4057,note_on,1,0,0,,2,,,62,127
4057,note_on,0,0,0,,0,,,72,127
4136,note_off,79,0,0,,0,,,72,127
4137,note_on,1,0,0,,2,,,74,127
4216,note_off,79,0,0,,2,,,74,127
4216,note_off,0,0,0,,2,,,62,127
4217,note_on,1,0,0,,0,,,60,127
4217,note_on,0,0,0,,3,,,75,127
4296,note_off,79,0,0,,3,,,75,127
4297,note_on,1,0,0,,5,,,77,127
4371,note_off,74,0,0,,7,,,79,127
4375,note_off,4,0,0,,5,,,77,127
4375,note_off,0,0,0,,0,,,60,127
4376,note_on,1,0,0,,5,,,65,127
4376,note_on,0,0,0,,2,,,74,127
4534,note_off,158,0,0,,2,,,74,127
4534,note_off,0,0,0,,5,,,65,127
4535,note_on,1,0,0,,3,,,63,127
4535,note_on,0,0,0,,0,,,72,127
4693,note_off,158,0,0,,0,,,72,127
4693,note_off,0,0,0,,3,,,63,127
4694,note_on,1,0,0,,2,,,62,127
4694,note_on,0,0,0,,12,,,71,127
4852,note_off,158,0,0,,12,,,71,127
4852,note_off,0,0,0,,2,,,62,127
4853,note_on,1,0,0,,3,,,63,127
4853,note_on,0,0,0,,7,,,79,127
5011,note_off,158,0,0,,3,,,63,127
5012,note_on,1,0,0,,2,,,62,127
5012,note_on,0,0,0,,0,,,72,127
5091,note_off,79,0,0,,0,,,72,127
5092,note_on,1,0,0,,2,,,74,127
5171,note_off,79,0,0,,2,,,74,127
5171,note_off,0,0,0,,2,,,62,127
5172,note_on,1,0,0,,0,,,60,127
5172,note_on,0,0,0,,3,,,75,127
5251,note_off,79,0,0,,3,,,75,127
5252,note_on,1,0,0,,5,,,77,127
5326,note_off,74,0,0,,7,,,79,127
5330,note_off,4,0,0,,5,,,77,127
5330,note_off,0,0,0,,0,,,60,127
5331,note_on,1,0,0,,5,,,65,127
5331,note_on,0,0,0,,2,,,74,127
5489,note_off,158,0,0,,2,,,74,127
5489,note_off,0,0,0,,5,,,65,127
5490,note_on,1,0,0,,3,,,63,127
5490,note_on,0,0,0,,0,,,72,127
5648,note_off,158,0,0,,0,,,72,127
5648,note_off,0,0,0,,3,,,63,127
5649,note_on,1,0,0,,2,,,62,127
5649,note_on,0,0,0,,12,,,71,127
5807,note_off,158,0,0,,12,,,71,127
5807,note_off,0,0,0,,2,,,62,127
5808,note_on,1,0,0,,3,,,63,127
5808,note_on,0,0,0,,0,,,72,127
5966,note_off,158,0,0,,3,,,63,127
5967,note_on,1,0,0,,0,,,60,127
6125,note_off,158,0,0,,0,,,60,127
6126,note_on,1,0,0,,8,,,56,127
6284,note_off,158,0,0,,8,,,56,127
6285,note_on,1,0,0,,5,,,53,127
6443,note_off,158,0,0,,5,,,53,127
6444,note_on,1,0,0,,2,,,50,127
6602,note_off,158,0,0,,2,,,50,127
6602,note_off,0,0,0,,0,,,72,127
6603,note_on,1,0,0,,7,,,43,127
6603,note_on,0,0,0,,7,,,67,127
6603,note_on,0,0,0,,12,,,71,127
6603,note_on,0,0,0,,5,,,77,127
6603,note_on,0,0,0,,2,,,74,127
6761,note_off,158,0,0,,2,,,74,127
6761,note_off,0,0,0,,5,,,77,127
6761,note_off,0,0,0,,12,,,71,127
6761,note_off,0,0,0,,7,,,43,127
6762,note_on,1,0,0,,3,,,75,127
6762,note_on,0,0,0,,0,,,72,127
6920,note_off,158,0,0,,0,,,72,127
6920,note_off,0,0,0,,3,,,75,127
6920,note_off,0,0,0,,7,,,67,127
6921,note_on,1,0,0,,0,,,60,127
6921,note_on,0,0,0,,12,,,71,127
6921,note_on,0,0,0,,2,,,74,127
7079,note_off,158,0,0,,2,,,74,127
7079,note_off,0,0,0,,12,,,71,127
7079,note_off,0,0,0,,0,,,60,127
7080,note_on,1,0,0,,8,,,56,127
7080,note_on,0,0,0,,0,,,72,127
7238,note_off,158,0,0,,8,,,56,127
7239,note_on,1,0,0,,5,,,53,127
7397,note_off,158,0,0,,5,,,53,127
7398,note_on,1,0,0,,2,,,50,127
7556,note_off,158,0,0,,2,,,50,127
7556,note_off,0,0,0,,0,,,72,127
7557,note_on,1,0,0,,7,,,43,127
7557,note_on,0,0,0,,7,,,67,127
7557,note_on,0,0,0,,12,,,71,127
7557,note_on,0,0,0,,2,,,74,127
7557,note_on,0,0,0,,5,,,77,127
7715,note_off,158,0,0,,5,,,77,127
7715,note_off,0,0,0,,2,,,74,127
7715,note_off,0,0,0,,12,,,71,127
7715,note_off,0,0,0,,7,,,43,127
7716,note_on,1,0,0,,0,,,72,127
7716,note_on,0,0,0,,3,,,75,127
7874,note_off,158,0,0,,3,,,75,127
7874,note_off,0,0,0,,0,,,72,127
7874,note_off,0,0,0,,7,,,67,127
7875,note_on,1,0,0,,0,,,60,127
7875,note_on,0,0,0,,12,,,71,127
7875,note_on,0,0,0,,2,,,74,127
8033,note_off,158,0,0,,2,,,74,127
8033,note_off,0,0,0,,12,,,71,127
8033,note_off,0,0,0,,0,,,60,127
8034,note_on,1,0,0,,8,,,56,127
8034,note_on,0,0,0,,0,,,72,127
8192,note_off,158,0,0,,8,,,56,127
8193,note_on,1,0,0,,5,,,53,127
8351,note_off,158,0,0,,5,,,53,127
8352,note_on,1,0,0,,2,,,50,127
8510,note_off,158,0,0,,2,,,50,127
8510,note_off,0,0,0,,0,,,72,127
8511,note_on,1,0,0,,7,,,43,127
8511,note_on,0,0,0,,12,,,71,127
8511,note_on,0,0,0,,7,,,67,127
8511,note_on,0,0,0,,2,,,74,127
8511,note_on,0,0,0,,5,,,77,127
8669,note_off,158,0,0,,5,,,77,127
8669,note_off,0,0,0,,2,,,74,127
8669,note_off,0,0,0,,12,,,71,127
8669,note_off,0,0,0,,7,,,43,127
8670,note_on,1,0,0,,0,,,60,127
8670,note_on,0,0,0,,3,,,75,127
8670,note_on,0,0,0,,0,,,72,127
8828,note_off,158,0,0,,0,,,72,127
8828,note_off,0,0,0,,3,,,75,127
8829,note_on,1,0,0,,5,,,77,127
8987,note_off,158,0,0,,5,,,77,127
8988,note_on,1,0,0,,7,,,79,127
9146,note_off,158,0,0,,0,,,60,127
9146,note_off,0,0,0,,7,,,67,127
9147,note_on,1,0,0,,5,,,53,127
9147,note_on,0,0,0,,8,,,68,127
9305,note_off,158,0,0,,7,,,79,127
9306,note_on,1,0,0,,5,,,77,127
9385,note_off,79,0,0,,5,,,77,127
9386,note_on,1,0,0,,3,,,75,127
9465,note_off,79,0,0,,3,,,75,127
9465,note_off,0,0,0,,8,,,68,127
9466,note_on,1,0,0,,2,,,74,127
9545,note_off,79,0,0,,2,,,74,127
9546,note_on,1,0,0,,0,,,72,127
9625,note_off,79,0,0,,0,,,72,127
9625,note_off,0,0,0,,5,,,53,127
9626,note_on,1,0,0,,7,,,43,127
9626,note_on,0,0,0,,7,,,55,127
9626,note_on,0,0,0,,12,,,71,127
9784,note_off,158,0,0,,12,,,71,127
9785,note_on,1,0,0,,7,,,67,127
9944,note_on,159,0,0,,2,,,74,127
10102,note_off,158,0,0,,7,,,67,127
10102,note_off,0,0,0,,7,,,55,127
10102,note_off,0,0,0,,7,,,43,127
10103,note_on,1,0,0,,12,,,83,127
10103,note_on,0,0,0,,7,,,67,127
10103,note_on,0,0,0,,5,,,77,127
10261,note_off,158,0,0,,5,,,77,127
10261,note_off,0,0,0,,2,,,74,127
10262,note_on,1,0,0,,3,,,75,127
10262,note_on,0,0,0,,0,,,72,127
10420,note_off,158,0,0,,0,,,72,127
10420,note_off,0,0,0,,3,,,75,127
10421,note_on,1,0,0,,12,,,71,127
10421,note_on,0,0,0,,2,,,74,127
10579,note_off,158,0,0,,2,,,74,127
10579,note_off,0,0,0,,12,,,71,127
10579,note_off,0,0,0,,12,,,83,127
10580,note_on,1,0,0,,0,,,84,127
10580,note_on,0,0,0,,3,,,75,127
10580,note_on,0,0,0,,0,,,72,127
10738,note_off,158,0,0,,0,,,84,127
10739,note_on,1,0,0,,10,,,81,127
10897,note_off,158,0,0,,10,,,81,127
10898,note_on,1,0,0,,6,,,78,127
11056,note_off,158,0,0,,6,,,78,127
11057,note_on,1,0,0,,0,,,84,127
11215,note_off,158,0,0,,0,,,84,127
11215,note_off,0,0,0,,0,,,72,127
11215,note_off,0,0,0,,3,,,75,127
11216,note_on,1,0,0,,12,,,83,127
11216,note_on,0,0,0,,2,,,74,127
11374,note_off,158,0,0,,2,,,74,127
11374,note_off,0,0,0,,12,,,83,127
11375,note_off,1,0,0,,7,,,67,127
11375,note_on,0,0,0,,10,,,81,127
11375,note_on,0,0,0,,0,,,72,127
11533,note_off,158,0,0,,0,,,72,127
11533,note_off,0,0,0,,10,,,81,127
11534,note_on,1,0,0,,12,,,83,127
11534,note_on,0,0,0,,2,,,74,127
11692,note_off,158,0,0,,2,,,74,127
11693,note_on,1,0,0,,7,,,67,127
11852,note_on,159,0,0,,2,,,74,127
12010,note_off,158,0,0,,7,,,67,127
12011,note_on,1,0,0,,7,,,67,127
12011,note_on,0,0,0,,5,,,77,127
12169,note_off,158,0,0,,5,,,77,127
12169,note_off,0,0,0,,2,,,74,127
12170,note_on,1,0,0,,3,,,75,127
12170,note_on,0,0,0,,0,,,72,127
12328,note_off,158,0,0,,0,,,72,127
12328,note_off,0,0,0,,3,,,75,127
12329,note_on,1,0,0,,2,,,74,127
12329,note_on,0,0,0,,12,,,71,127
12487,note_off,158,0,0,,12,,,71,127
12487,note_off,0,0,0,,2,,,74,127
12487,note_off,0,0,0,,12,,,83,127
12488,note_on,1,0,0,,0,,,84,127
12488,note_on,0,0,0,,3,,,75,127
12488,note_on,0,0,0,,0,,,72,127
12646,note_off,158,0,0,,0,,,84,127
12647,note_on,1,0,0,,10,,,81,127
12805,note_off,158,0,0,,10,,,81,127
12806,note_on,1,0,0,,6,,,78,127
12964,note_off,158,0,0,,6,,,78,127
12965,note_on,1,0,0,,0,,,84,127
13123,note_off,158,0,0,,0,,,84,127
13123,note_off,0,0,0,,0,,,72,127
13123,note_off,0,0,0,,3,,,75,127
13124,note_on,1,0,0,,12,,,83,127
13124,note_on,0,0,0,,2,,,74,127
13282,note_off,158,0,0,,2,,,74,127
13282,note_off,0,0,0,,12,,,83,127
13283,note_off,1,0,0,,7,,,67,127
13283,note_on,0,0,0,,10,,,81,127
13283,note_on,0,0,0,,0,,,72,127
13441,note_off,158,0,0,,0,,,72,127
13441,note_off,0,0,0,,10,,,81,127
13442,note_on,1,0,0,,12,,,83,127
13442,note_on,0,0,0,,2,,,74,127
13600,note_off,158,0,0,,2,,,74,127
13601,note_on,1,0,0,,7,,,67,127
13760,note_on,159,0,0,,2,,,74,127
13918,note_off,158,0,0,,7,,,67,127
13919,note_on,1,0,0,,5,,,77,127
13919,note_on,0,0,0,,7,,,67,127
14077,note_off,158,0,0,,5,,,77,127
14077,note_off,0,0,0,,2,,,74,127
14078,note_on,1,0,0,,3,,,75,127
14078,note_on,0,0,0,,0,,,72,127
14236,note_off,158,0,0,,0,,,72,127
14236,note_off,0,0,0,,3,,,75,127
14237,note_on,1,0,0,,12,,,71,127
14237,note_on,0,0,0,,2,,,74,127
14395,note_off,158,0,0,,2,,,74,127
14395,note_off,0,0,0,,12,,,71,127
14395,note_off,0,0,0,,12,,,83,127
14396,note_on,1,0,0,,0,,,84,127
14396,note_on,0,0,0,,3,,,75,127
14396,note_on,0,0,0,,0,,,72,127
14554,note_off,158,0,0,,0,,,84,127
14555,note_on,1,0,0,,10,,,81,127
14713,note_off,158,0,0,,10,,,81,127
14714,note_on,1,0,0,,6,,,78,127
14872,note_off,158,0,0,,6,,,78,127
14873,note_on,1,0,0,,0,,,84,127
15031,note_off,158,0,0,,0,,,84,127
15031,note_off,0,0,0,,0,,,72,127
15031,note_off,0,0,0,,3,,,75,127
15032,note_on,1,0,0,,11,,,82,127
15032,note_on,0,0,0,,2,,,74,127
15190,note_off,158,0,0,,2,,,74,127
15190,note_off,0,0,0,,11,,,82,127
15191,note_off,1,0,0,,7,,,67,127
15191,note_on,0,0,0,,10,,,81,127
15191,note_on,0,0,0,,0,,,72,127
15349,note_off,158,0,0,,0,,,72,127
15349,note_off,0,0,0,,10,,,81,127
15350,note_on,1,0,0,,11,,,82,127
15350,note_on,0,0,0,,2,,,74,127
15508,note_off,158,0,0,,2,,,74,127
15509,note_on,1,0,0,,11,,,70,127
15668,note_on,159,0,0,,2,,,62,127
15826,note_off,158,0,0,,11,,,70,127
15827,note_on,1,0,0,,11,,,70,127
15985,note_off,158,0,0,,11,,,70,127
15985,note_off,0,0,0,,11,,,82,127
15986,note_on,1,0,0,,10,,,81,127
15986,note_on,0,0,0,,10,,,69,127
16144,note_off,158,0,0,,10,,,69,127
16144,note_off,0,0,0,,10,,,81,127
16145,note_on,1,0,0,,7,,,79,127
16145,note_on,0,0,0,,7,,,67,127
16303,note_off,158,0,0,,7,,,67,127
16303,note_off,0,0,0,,7,,,79,127
16304,note_on,1,0,0,,10,,,81,127
16304,note_on,0,0,0,,0,,,72,127
16304,note_on,0,0,0,,10,,,69,127
16462,note_off,158,0,0,,10,,,81,127
16463,note_on,1,0,0,,6,,,78,127
16621,note_off,158,0,0,,6,,,78,127
16622,note_on,1,0,0,,2,,,74,127
16780,note_off,158,0,0,,2,,,74,127
16781,note_on,1,0,0,,10,,,81,127
16939,note_off,158,0,0,,10,,,81,127
16939,note_off,0,0,0,,10,,,69,127
16939,note_off,0,0,0,,0,,,72,127
16940,note_off,1,0,0,,2,,,62,127
16940,note_on,0,0,0,,7,,,79,127
16940,note_on,0,0,0,,11,,,70,127
17098,note_off,158,0,0,,11,,,70,127
17098,note_off,0,0,0,,7,,,79,127
17099,note_on,1,0,0,,6,,,78,127
17099,note_on,0,0,0,,10,,,69,127
17257,note_off,158,0,0,,10,,,69,127
17257,note_off,0,0,0,,6,,,78,127
17258,note_on,1,0,0,,7,,,79,127
17258,note_on,0,0,0,,11,,,70,127
17416,note_off,158,0,0,,11,,,70,127
17417,note_on,1,0,0,,7,,,67,127
17576,note_on,159,0,0,,2,,,62,127
17734,note_off,158,0,0,,7,,,67,127
17735,note_on,1,0,0,,2,,,74,127
17735,note_on,0,0,0,,11,,,70,127
17893,note_off,158,0,0,,11,,,70,127
17893,note_off,0,0,0,,2,,,74,127
17894,note_on,1,0,0,,0,,,72,127
17894,note_on,0,0,0,,10,,,69,127
18052,note_off,158,0,0,,10,,,69,127
18052,note_off,0,0,0,,0,,,72,127
18053,note_on,1,0,0,,11,,,70,127
18053,note_on,0,0,0,,7,,,67,127
18211,note_off,158,0,0,,7,,,67,127
18211,note_off,0,0,0,,11,,,70,127
18211,note_off,0,0,0,,7,,,79,127
18212,note_on,1,0,0,,10,,,81,127
18212,note_on,0,0,0,,0,,,72,127
18212,note_on,0,0,0,,10,,,69,127
18370,note_off,158,0,0,,10,,,81,127
18371,note_on,1,0,0,,6,,,78,127
18529,note_off,158,0,0,,6,,,78,127
18530,note_on,1,0,0,,2,,,74,127
18688,note_off,158,0,0,,2,,,74,127
18689,note_on,1,0,0,,10,,,81,127
18847,note_off,158,0,0,,10,,,81,127
18847,note_off,0,0,0,,10,,,69,127
18847,note_off,0,0,0,,0,,,72,127
18848,note_off,1,0,0,,2,,,62,127
18848,note_on,0,0,0,,7,,,79,127
18848,note_on,0,0,0,,11,,,70,127
19006,note_off,158,0,0,,11,,,70,127
19006,note_off,0,0,0,,7,,,79,127
19007,note_on,1,0,0,,6,,,78,127
19007,note_on,0,0,0,,10,,,69,127
19165,note_off,158,0,0,,10,,,69,127
19165,note_off,0,0,0,,6,,,78,127
19166,note_on,1,0,0,,7,,,79,127
19166,note_on,0,0,0,,3,,,63,127
19325,note_on,159,0,0,,7,,,67,127
19365,note_off,40,0,0,,3,,,63,127
19483,note_off,118,0,0,,7,,,67,127
19484,note_on,1,0,0,,11,,,70,127
19642,note_off,158,0,0,,11,,,70,127
19642,note_off,0,0,0,,7,,,79,127
19643,note_on,1,0,0,,6,,,78,127
19643,note_on,0,0,0,,0,,,72,127
19643,note_on,0,0,0,,0,,,60,127
19802,note_on,159,0,0,,6,,,66,127
19842,note_off,40,0,0,,0,,,60,127
19960,note_off,118,0,0,,6,,,66,127
19961,note_on,1,0,0,,10,,,69,127
20119,note_off,158,0,0,,10,,,69,127
20119,note_off,0,0,0,,0,,,72,127
20119,note_off,0,0,0,,6,,,78,127
20120,note_on,1,0,0,,7,,,79,127
20120,note_on,0,0,0,,2,,,74,127
20120,note_on,0,0,0,,11,,,58,127
20279,note_on,159,0,0,,2,,,62,127
20319,note_off,40,0,0,,11,,,58,127
20437,note_off,118,0,0,,2,,,62,127
20438,note_on,1,0,0,,7,,,67,127
20596,note_off,158,0,0,,7,,,67,127
20596,note_off,0,0,0,,2,,,74,127
20596,note_off,0,0,0,,7,,,79,127
20597,note_on,1,0,0,,10,,,81,127
20597,note_on,0,0,0,,0,,,72,127
20597,note_on,0,0,0,,10,,,57,127
20756,note_on,159,0,0,,6,,,66,127
20796,note_off,40,0,0,,10,,,57,127
20914,note_off,118,0,0,,6,,,66,127
20915,note_on,1,0,0,,10,,,69,127
21073,note_off,158,0,0,,10,,,69,127
21073,note_off,0,0,0,,0,,,72,127
21073,note_off,0,0,0,,10,,,81,127
21074,note_on,1,0,0,,11,,,82,127
21074,note_on,0,0,0,,2,,,74,127
21074,note_on,0,0,0,,7,,,55,127
21233,note_on,159,0,0,,11,,,58,127
21389,note_off,156,0,0,,7,,,55,127
21391,note_off,2,0,0,,11,,,58,127
21392,note_on,1,0,0,,2,,,62,127
21550,note_off,158,0,0,,2,,,62,127
21550,note_off,0,0,0,,2,,,74,127
21550,note_off,0,0,0,,11,,,82,127
21551,note_on,1,0,0,,7,,,79,127
21710,note_on,159,0,0,,2,,,74,127
21866,note_off,156,0,0,,7,,,79,127
21868,note_off,2,0,0,,2,,,74,127
21869,note_on,1,0,0,,11,,,70,127
22027,note_off,158,0,0,,11,,,70,127
22028,note_on,1,0,0,,7,,,67,127
22187,note_on,159,0,0,,2,,,62,127
22343,note_off,156,0,0,,7,,,67,127
22345,note_off,2,0,0,,2,,,62,127
22346,note_on,1,0,0,,11,,,58,127
22504,note_off,158,0,0,,11,,,58,127
22505,note_on,1,0,0,,7,,,55,127
22664,note_on,159,0,0,,2,,,50,127
22820,note_off,156,0,0,,7,,,55,127
22822,note_off,2,0,0,,2,,,50,127
22823,note_on,1,0,0,,11,,,46,127
22981,note_off,158,0,0,,11,,,46,127
22982,note_on,1,0,0,,7,,,43,127
23141,note_on,159,0,0,,11,,,82,127
23299,note_off,158,0,0,,11,,,82,127
23300,note_on,1,0,0,,6,,,78,127
23458,note_off,158,0,0,,6,,,78,127
23458,note_off,0,0,0,,7,,,43,127
23459,note_on,1,0,0,,11,,,46,127
23459,note_on,0,0,0,,7,,,55,127
23459,note_on,0,0,0,,7,,,79,127
23617,note_off,158,0,0,,7,,,79,127
23618,note_on,1,0,0,,5,,,77,127
23776,note_off,158,0,0,,5,,,77,127
23777,note_on,1,0,0,,2,,,74,127
23935,note_off,158,0,0,,2,,,74,127
23935,note_off,0,0,0,,11,,,46,127
23936,note_on,1,0,0,,0,,,48,127
23936,note_on,0,0,0,,3,,,75,127
24094,note_off,158,0,0,,3,,,75,127
24095,note_on,1,0,0,,2,,,74,127
24253,note_off,158,0,0,,2,,,74,127
24254,note_on,1,0,0,,11,,,70,127
24412,note_off,158,0,0,,11,,,70,127
24412,note_off,0,0,0,,0,,,48,127
24413,note_on,1,0,0,,3,,,51,127
24413,note_on,0,0,0,,1,,,73,127
24572,note_on,159,0,0,,10,,,69,127
24730,note_off,158,0,0,,10,,,69,127
24731,note_off,1,0,0,,7,,,55,127
24731,note_on,0,0,0,,7,,,67,127
24817,note_off,86,0,0,,1,,,73,127
24889,note_off,72,0,0,,7,,,67,127
24889,note_off,0,0,0,,3,,,51,127
24890,note_on,1,0,0,,2,,,50,127
24890,note_on,0,0,0,,6,,,66,127
25048,note_off,158,0,0,,6,,,66,127
25049,note_on,1,0,0,,11,,,82,127
25207,note_off,158,0,0,,11,,,82,127
25208,note_on,1,0,0,,6,,,78,127
25366,note_off,158,0,0,,6,,,78,127
25366,note_off,0,0,0,,2,,,50,127
25367,note_on,1,0,0,,11,,,46,127
25367,note_on,0,0,0,,7,,,55,127
25367,note_on,0,0,0,,7,,,79,127
25525,note_off,158,0,0,,7,,,79,127
25526,note_on,1,0,0,,5,,,77,127
25684,note_off,158,0,0,,5,,,77,127
25685,note_on,1,0,0,,2,,,74,127
25843,note_off,158,0,0,,2,,,74,127
25843,note_off,0,0,0,,11,,,46,127
25844,note_on,1,0,0,,0,,,48,127
25844,note_on,0,0,0,,3,,,75,127
26002,note_off,158,0,0,,3,,,75,127
26003,note_on,1,0,0,,2,,,74,127
26161,note_off,158,0,0,,2,,,74,127
26162,note_on,1,0,0,,11,,,70,127
26320,note_off,158,0,0,,11,,,70,127
26320,note_off,0,0,0,,0,,,48,127
26321,note_on,1,0,0,,3,,,51,127
26321,note_on,0,0,0,,1,,,73,127
26480,note_on,159,0,0,,10,,,69,127
26638,note_off,158,0,0,,10,,,69,127
26639,note_off,1,0,0,,7,,,55,127
26639,note_on,0,0,0,,7,,,67,127
26725,note_off,86,0,0,,1,,,73,127
26797,note_off,72,0,0,,7,,,67,127
26797,note_off,0,0,0,,3,,,51,127
26798,note_on,1,0,0,,2,,,50,127
26798,note_on,0,0,0,,6,,,66,127
26956,note_off,158,0,0,,6,,,66,127
26957,note_on,1,0,0,,11,,,82,127
27115,note_off,158,0,0,,11,,,82,127
27116,note_on,1,0,0,,6,,,78,127
27274,note_off,158,0,0,,6,,,78,127
27274,note_off,0,0,0,,2,,,50,127
27275,note_on,1,0,0,,11,,,46,127
27275,note_on,0,0,0,,7,,,55,127
27275,note_on,0,0,0,,7,,,79,127
27433,note_off,158,0,0,,7,,,79,127
27434,note_on,1,0,0,,5,,,77,127
27592,note_off,158,0,0,,5,,,77,127
27593,note_on,1,0,0,,2,,,74,127
27751,note_off,158,0,0,,2,,,74,127
27751,note_off,0,0,0,,7,,,55,127
27751,note_off,0,0,0,,11,,,46,127
27752,note_on,1,0,0,,0,,,48,127
27752,note_on,0,0,0,,3,,,75,127
27910,note_off,158,0,0,,3,,,75,127
27911,note_on,1,0,0,,2,,,74,127
28069,note_off,158,0,0,,2,,,74,127
28070,note_on,1,0,0,,11,,,70,127
28228,note_off,158,0,0,,11,,,70,127
28228,note_off,0,0,0,,0,,,48,127
28229,note_on,1,0,0,,3,,,51,127
28229,note_on,0,0,0,,1,,,73,127
28387,note_off,158,0,0,,1,,,73,127
28388,note_on,1,0,0,,10,,,69,127
28546,note_off,158,0,0,,10,,,69,127
28547,note_on,1,0,0,,7,,,67,127
28705,note_off,158,0,0,,7,,,67,127
28705,note_off,0,0,0,,3,,,51,127
28706,note_on,1,0,0,,2,,,50,127
28706,note_on,0,0,0,,2,,,62,127
28865,note_on,159,0,0,,6,,,66,127
29023,note_off,158,0,0,,6,,,66,127
29024,note_on,1,0,0,,10,,,69,127
29182,note_off,158,0,0,,10,,,69,127
29182,note_off,0,0,0,,2,,,50,127
29183,note_on,1,0,0,,10,,,81,127
29183,note_on,0,0,0,,0,,,72,127
29341,note_off,158,0,0,,0,,,72,127
29342,note_on,1,0,0,,11,,,70,127
29500,note_off,158,0,0,,11,,,70,127
29501,note_on,1,0,0,,10,,,69,127
29659,note_off,158,0,0,,10,,,69,127
29659,note_off,0,0,0,,10,,,81,127
29659,note_off,0,0,0,,2,,,62,127
29660,note_on,1,0,0,,7,,,43,127
29660,note_on,0,0,0,,2,,,62,127
29819,note_on,159,0,0,,7,,,67,127
29977,note_off,158,0,0,,7,,,67,127
29978,note_on,1,0,0,,11,,,70,127
30136,note_off,158,0,0,,11,,,70,127
30136,note_off,0,0,0,,7,,,43,127
30137,note_on,1,0,0,,11,,,82,127
30137,note_on,0,0,0,,2,,,74,127
30295,note_off,158,0,0,,2,,,74,127
30296,note_on,1,0,0,,0,,,72,127
30454,note_off,158,0,0,,0,,,72,127
30455,note_on,1,0,0,,11,,,70,127
30613,note_off,158,0,0,,11,,,70,127
30613,note_off,0,0,0,,11,,,82,127
30613,note_off,0,0,0,,2,,,62,127
30614,note_on,1,0,0,,2,,,38,127
30614,note_on,0,0,0,,2,,,62,127
30773,note_on,159,0,0,,6,,,66,127
30931,note_off,158,0,0,,6,,,66,127
30932,note_on,1,0,0,,10,,,69,127
31090,note_off,158,0,0,,10,,,69,127
31090,note_off,0,0,0,,2,,,38,127
31091,note_on,1,0,0,,10,,,81,127
31091,note_on,0,0,0,,0,,,72,127
31249,note_off,158,0,0,,0,,,72,127
31250,note_on,1,0,0,,11,,,70,127
31408,note_off,158,0,0,,11,,,70,127
31409,note_on,1,0,0,,10,,,69,127
31567,note_off,158,0,0,,10,,,69,127
31567,note_off,0,0,0,,10,,,81,127
31567,note_off,0,0,0,,2,,,62,127
31568,note_on,1,0,0,,7,,,43,127
31568,note_on,0,0,0,,2,,,62,127
31727,note_on,159,0,0,,7,,,67,127
31885,note_off,158,0,0,,7,,,67,127
31886,note_on,1,0,0,,11,,,70,127
32044,note_off,158,0,0,,11,,,70,127
32044,note_off,0,0,0,,7,,,43,127
32045,note_on,1,0,0,,11,,,82,127
32045,note_on,0,0,0,,2,,,74,127
32203,note_off,158,0,0,,2,,,74,127
32204,note_on,1,0,0,,0,,,72,127
32362,note_off,158,0,0,,0,,,72,127
32363,note_on,1,0,0,,11,,,70,127
32521,note_off,158,0,0,,11,,,70,127
32521,note_off,0,0,0,,11,,,82,127
32521,note_off,0,0,0,,2,,,62,127
32522,note_on,1,0,0,,2,,,38,127
32522,note_on,0,0,0,,2,,,62,127
32681,note_on,159,0,0,,6,,,66,127
32839,note_off,158,0,0,,6,,,66,127
32840,note_on,1,0,0,,10,,,69,127
32998,note_off,158,0,0,,10,,,69,127
32998,note_off,0,0,0,,2,,,38,127
32999,note_on,1,0,0,,10,,,81,127
32999,note_on,0,0,0,,0,,,72,127
33157,note_off,158,0,0,,0,,,72,127
33158,note_on,1,0,0,,11,,,70,127
33316,note_off,158,0,0,,11,,,70,127
33317,note_on,1,0,0,,10,,,69,127
33334,note_off,17,0,0,,2,,,62,127
33476,note_off,142,0,0,,10,,,69,127
33476,note_off,0,0,0,,10,,,81,127
33477,note_on,1,0,0,,7,,,43,127
33477,note_on,0,0,0,,11,,,70,127
33636,note_on,159,0,0,,7,,,79,127
33792,note_off,156,0,0,,11,,,70,127
33794,note_off,2,0,0,,7,,,79,127
33795,note_on,1,0,0,,2,,,74,127
33953,note_off,158,0,0,,2,,,74,127
33953,note_off,0,0,0,,7,,,43,127
33954,note_on,1,0,0,,0,,,48,127
33954,note_on,0,0,0,,3,,,75,127
34113,note_on,159,0,0,,7,,,79,127
34153,note_off,40,0,0,,3,,,75,127
34271,note_off,118,0,0,,7,,,79,127
34272,note_on,1,0,0,,10,,,69,127
34430,note_off,158,0,0,,10,,,69,127
34430,note_off,0,0,0,,0,,,48,127
34431,note_on,1,0,0,,2,,,50,127
34431,note_on,0,0,0,,11,,,70,127
34590,note_on,159,0,0,,2,,,74,127
34630,note_off,40,0,0,,11,,,70,127
34748,note_off,118,0,0,,2,,,74,127
34749,note_on,1,0,0,,7,,,67,127
34907,note_off,158,0,0,,7,,,67,127
34908,note_on,1,0,0,,2,,,38,127
34908,note_on,0,0,0,,10,,,69,127
35067,note_on,159,0,0,,0,,,72,127
35107,note_off,40,0,0,,10,,,69,127
35225,note_off,118,0,0,,0,,,72,127
35226,note_on,1,0,0,,6,,,66,127
35383,note_off,157,0,0,,2,,,50,127
35384,note_off,1,0,0,,6,,,66,127
35384,note_off,0,0,0,,2,,,38,127
35385,note_on,1,0,0,,7,,,43,127
35385,note_on,0,0,0,,2,,,62,127
35544,note_on,159,0,0,,7,,,67,127
35702,note_off,158,0,0,,7,,,67,127
35703,note_on,1,0,0,,11,,,70,127
35861,note_off,158,0,0,,11,,,70,127
35861,note_off,0,0,0,,7,,,43,127
35862,note_on,1,0,0,,11,,,82,127
35862,note_on,0,0,0,,2,,,74,127
36020,note_off,158,0,0,,2,,,74,127
36021,note_on,1,0,0,,0,,,72,127
36179,note_off,158,0,0,,0,,,72,127
36180,note_on,1,0,0,,11,,,70,127
36338,note_off,158,0,0,,11,,,70,127
36338,note_off,0,0,0,,11,,,82,127
36338,note_off,0,0,0,,2,,,62,127
36339,note_on,1,0,0,,2,,,38,127
36339,note_on,0,0,0,,2,,,62,127
36498,note_on,159,0,0,,6,,,66,127
36656,note_off,158,0,0,,6,,,66,127
36657,note_on,1,0,0,,10,,,69,127
36815,note_off,158,0,0,,10,,,69,127
36815,note_off,0,0,0,,2,,,38,127
36816,note_on,1,0,0,,10,,,81,127
36816,note_on,0,0,0,,0,,,72,127
36974,note_off,158,0,0,,0,,,72,127
36975,note_on,1,0,0,,11,,,70,127
37133,note_off,158,0,0,,11,,,70,127
37134,note_on,1,0,0,,10,,,69,127
37292,note_off,158,0,0,,10,,,69,127
37292,note_off,0,0,0,,10,,,81,127
37292,note_off,0,0,0,,2,,,62,127
37293,note_on,1,0,0,,7,,,43,127
37293,note_on,0,0,0,,2,,,62,127
37452,note_on,159,0,0,,7,,,67,127
37610,note_off,158,0,0,,7,,,67,127
37611,note_on,1,0,0,,11,,,70,127
37769,note_off,158,0,0,,11,,,70,127
37769,note_off,0,0,0,,7,,,43,127
37770,note_on,1,0,0,,11,,,82,127
37770,note_on,0,0,0,,2,,,74,127
37928,note_off,158,0,0,,2,,,74,127
37929,note_on,1,0,0,,0,,,72,127
38087,note_off,158,0,0,,0,,,72,127
38088,note_on,1,0,0,,11,,,70,127
38246,note_off,158,0,0,,11,,,70,127
38246,note_off,0,0,0,,11,,,82,127
38246,note_off,0,0,0,,2,,,62,127
38247,note_on,1,0,0,,2,,,38,127
38247,note_on,0,0,0,,2,,,62,127
38406,note_on,159,0,0,,6,,,66,127
38564,note_off,158,0,0,,6,,,66,127
38565,note_on,1,0,0,,10,,,69,127
38723,note_off,158,0,0,,10,,,69,127
38723,note_off,0,0,0,,2,,,38,127
38724,note_on,1,0,0,,10,,,81,127
38724,note_on,0,0,0,,0,,,72,127
38882,note_off,158,0,0,,0,,,72,127
38883,note_on,1,0,0,,11,,,70,127
39041,note_off,158,0,0,,11,,,70,127
39042,note_on,1,0,0,,10,,,69,127
39200,note_off,158,0,0,,10,,,69,127
39200,note_off,0,0,0,,10,,,81,127
39200,note_off,0,0,0,,2,,,62,127
39201,note_on,1,0,0,,7,,,43,127
39201,note_on,0,0,0,,11,,,70,127
39360,note_on,159,0,0,,7,,,79,127
39516,note_off,156,0,0,,11,,,70,127
39518,note_off,2,0,0,,7,,,79,127
39519,note_on,1,0,0,,2,,,74,127
39677,note_off,158,0,0,,2,,,74,127
39677,note_off,0,0,0,,7,,,43,127
39678,note_on,1,0,0,,0,,,48,127
39678,note_on,0,0,0,,3,,,75,127
39837,note_on,159,0,0,,7,,,79,127
39877,note_off,40,0,0,,3,,,75,127
39995,note_off,118,0,0,,7,,,79,127
39996,note_on,1,0,0,,10,,,69,127
40154,note_off,158,0,0,,10,,,69,127
40154,note_off,0,0,0,,0,,,48,127
40155,note_on,1,0,0,,2,,,50,127
40155,note_on,0,0,0,,11,,,70,127
40314,note_on,159,0,0,,2,,,74,127
40354,note_off,40,0,0,,11,,,70,127
40472,note_off,118,0,0,,2,,,74,127
40473,note_on,1,0,0,,7,,,67,127
40631,note_off,158,0,0,,7,,,67,127
40632,note_on,1,0,0,,2,,,38,127
40632,note_on,0,0,0,,10,,,69,127
40791,note_on,159,0,0,,0,,,72,127
40831,note_off,40,0,0,,10,,,69,127
40949,note_off,118,0,0,,0,,,72,127
40950,note_on,1,0,0,,6,,,66,127
41107,note_off,157,0,0,,2,,,50,127
41108,note_off,1,0,0,,6,,,66,127
41108,note_off,0,0,0,,2,,,38,127
41109,note_on,1,0,0,,7,,,43,127
41109,note_on,0,0,0,,7,,,67,127
41267,note_off,158,0,0,,7,,,67,127
41268,note_on,1,0,0,,11,,,82,127
41268,note_on,0,0,0,,11,,,70,127
41426,note_off,158,0,0,,7,,,43,127
41427,note_on,1,0,0,,5,,,53,127
41427,note_on,0,0,0,,5,,,65,127
41585,note_off,158,0,0,,5,,,65,127
41585,note_off,0,0,0,,5,,,53,127
41586,note_on,1,0,0,,3,,,51,127
41586,note_on,0,0,0,,3,,,63,127
41744,note_off,158,0,0,,11,,,70,127
41744,note_off,0,0,0,,11,,,82,127
41745,note_on,1,0,0,,0,,,72,127
41745,note_on,0,0,0,,0,,,84,127
41903,note_off,158,0,0,,3,,,63,127
41903,note_off,0,0,0,,3,,,51,127
41904,note_on,1,0,0,,2,,,50,127
41904,note_on,0,0,0,,2,,,62,127
42062,note_off,158,0,0,,2,,,62,127
42062,note_off,0,0,0,,2,,,50,127
42063,note_on,1,0,0,,0,,,60,127
42063,note_on,0,0,0,,0,,,48,127
42221,note_off,158,0,0,,0,,,84,127
42221,note_off,0,0,0,,0,,,72,127
42222,note_on,1,0,0,,10,,,81,127
42222,note_on,0,0,0,,10,,,69,127
42380,note_off,158,0,0,,0,,,48,127
42380,note_off,0,0,0,,0,,,60,127
42381,note_on,1,0,0,,11,,,46,127
42381,note_on,0,0,0,,11,,,58,127
42539,note_off,158,0,0,,11,,,58,127
42539,note_off,0,0,0,,11,,,46,127
42540,note_on,1,0,0,,10,,,57,127
42540,note_on,0,0,0,,10,,,45,127
42698,note_off,158,0,0,,10,,,69,127
42698,note_off,0,0,0,,10,,,81,127
42699,note_on,1,0,0,,6,,,78,127
42699,note_on,0,0,0,,6,,,66,127
42857,note_off,158,0,0,,10,,,45,127
42857,note_off,0,0,0,,10,,,57,127
42858,note_on,1,0,0,,7,,,43,127
42858,note_on,0,0,0,,7,,,55,127
43016,note_off,158,0,0,,7,,,55,127
43016,note_off,0,0,0,,7,,,43,127
43017,note_on,1,0,0,,6,,,54,127
43017,note_on,0,0,0,,6,,,42,127
43175,note_off,158,0,0,,6,,,66,127
43175,note_off,0,0,0,,6,,,78,127
43176,note_on,1,0,0,,3,,,75,127
43176,note_on,0,0,0,,3,,,63,127
43334,note_off,158,0,0,,6,,,42,127
43334,note_off,0,0,0,,6,,,54,127
43335,note_on,1,0,0,,3,,,51,127
43335,note_on,0,0,0,,3,,,39,127
43493,note_off,158,0,0,,3,,,39,127
43493,note_off,0,0,0,,3,,,51,127
43494,note_on,1,0,0,,2,,,38,127
43494,note_on,0,0,0,,2,,,50,127
43652,note_off,158,0,0,,3,,,63,127
43652,note_off,0,0,0,,3,,,75,127
43653,note_on,1,0,0,,2,,,74,127
43811,note_off,158,0,0,,2,,,74,127
43811,note_off,0,0,0,,2,,,50,127
43811,note_off,0,0,0,,2,,,38,127
43812,note_on,1,0,0,,6,,,54,127
43812,note_on,0,0,0,,0,,,72,127
43970,note_off,158,0,0,,0,,,72,127
43970,note_off,0,0,0,,6,,,54,127
43971,note_on,1,0,0,,7,,,55,127
43971,note_on,0,0,0,,11,,,70,127
44129,note_off,158,0,0,,11,,,70,127
44130,note_on,1,0,0,,10,,,69,127
44288,note_off,158,0,0,,10,,,69,127
44288,note_off,0,0,0,,7,,,55,127
44289,note_on,1,0,0,,3,,,63,127
44289,note_on,0,0,0,,7,,,67,127
44289,note_on,0,0,0,,11,,,70,127
44447,note_off,158,0,0,,11,,,70,127
44447,note_off,0,0,0,,7,,,67,127
44447,note_off,0,0,0,,3,,,63,127
44448,note_on,1,0,0,,0,,,60,127
44448,note_on,0,0,0,,0,,,72,127
44448,note_on,0,0,0,,10,,,69,127
44606,note_off,158,0,0,,10,,,69,127
44606,note_off,0,0,0,,0,,,72,127
44607,note_on,1,0,0,,11,,,70,127
44607,note_on,0,0,0,,7,,,67,127
44765,note_off,158,0,0,,7,,,67,127
44765,note_off,0,0,0,,11,,,70,127
44765,note_off,0,0,0,,0,,,60,127
44766,note_on,1,0,0,,2,,,62,127
44766,note_on,0,0,0,,6,,,66,127
44766,note_on,0,0,0,,10,,,69,127
44924,note_off,158,0,0,,10,,,69,127
44924,note_off,0,0,0,,6,,,66,127
44924,note_off,0,0,0,,2,,,62,127
44925,note_on,1,0,0,,7,,,55,127
44925,note_on,0,0,0,,7,,,67,127
45083,note_off,158,0,0,,7,,,67,127
45084,note_on,1,0,0,,11,,,82,127
45084,note_on,0,0,0,,11,,,70,127
45242,note_off,158,0,0,,7,,,55,127
45243,note_on,1,0,0,,5,,,65,127
45243,note_on,0,0,0,,5,,,53,127
45401,note_off,158,0,0,,5,,,53,127
45401,note_off,0,0,0,,5,,,65,127
45402,note_on,1,0,0,,3,,,51,127
45402,note_on,0,0,0,,3,,,63,127
45560,note_off,158,0,0,,11,,,70,127
45560,note_off,0,0,0,,11,,,82,127
45561,note_on,1,0,0,,0,,,84,127
45561,note_on,0,0,0,,0,,,72,127
45719,note_off,158,0,0,,3,,,63,127
45719,note_off,0,0,0,,3,,,51,127
45720,note_on,1,0,0,,2,,,50,127
45720,note_on,0,0,0,,2,,,62,127
45878,note_off,158,0,0,,2,,,62,127
45878,note_off,0,0,0,,2,,,50,127
45879,note_on,1,0,0,,0,,,48,127
45879,note_on,0,0,0,,0,,,60,127
46037,note_off,158,0,0,,0,,,72,127
46037,note_off,0,0,0,,0,,,84,127
46038,note_on,1,0,0,,10,,,81,127
46038,note_on,0,0,0,,10,,,69,127
46196,note_off,158,0,0,,0,,,60,127
46196,note_off,0,0,0,,0,,,48,127
46197,note_on,1,0,0,,11,,,58,127
46197,note_on,0,0,0,,11,,,46,127
46355,note_off,158,0,0,,11,,,46,127
46355,note_off,0,0,0,,11,,,58,127
46356,note_on,1,0,0,,10,,,45,127
46356,note_on,0,0,0,,10,,,57,127
46514,note_off,158,0,0,,10,,,69,127
46514,note_off,0,0,0,,10,,,81,127
46515,note_on,1,0,0,,6,,,66,127
46515,note_on,0,0,0,,6,,,78,127
46673,note_off,158,0,0,,10,,,57,127
46673,note_off,0,0,0,,10,,,45,127
46674,note_on,1,0,0,,7,,,43,127
46674,note_on,0,0,0,,7,,,55,127
46832,note_off,158,0,0,,7,,,55,127
46832,note_off,0,0,0,,7,,,43,127
46833,note_on,1,0,0,,6,,,54,127
46833,note_on,0,0,0,,6,,,42,127
46991,note_off,158,0,0,,6,,,78,127
46991,note_off,0,0,0,,6,,,66,127
46992,note_on,1,0,0,,3,,,63,127
46992,note_on,0,0,0,,3,,,75,127
47150,note_off,158,0,0,,6,,,42,127
47150,note_off,0,0,0,,6,,,54,127
47151,note_on,1,0,0,,3,,,51,127
47151,note_on,0,0,0,,3,,,39,127
47309,note_off,158,0,0,,3,,,39,127
47309,note_off,0,0,0,,3,,,51,127
47310,note_on,1,0,0,,2,,,38,127
47310,note_on,0,0,0,,2,,,50,127
47468,note_off,158,0,0,,3,,,75,127
47468,note_off,0,0,0,,3,,,63,127
47469,note_on,1,0,0,,2,,,74,127
47627,note_off,158,0,0,,2,,,74,127
47627,note_off,0,0,0,,2,,,50,127
47627,note_off,0,0,0,,2,,,38,127
47628,note_on,1,0,0,,6,,,54,127
47628,note_on,0,0,0,,0,,,72,127
47786,note_off,158,0,0,,0,,,72,127
47786,note_off,0,0,0,,6,,,54,127
47787,note_on,1,0,0,,7,,,55,127
47787,note_on,0,0,0,,11,,,70,127
47787,note_on,0,0,0,,0,,,72,127
47945,note_off,158,0,0,,0,,,72,127
47945,note_off,0,0,0,,11,,,70,127
47946,note_on,1,0,0,,10,,,69,127
48104,note_off,158,0,0,,10,,,69,127
48104,note_off,0,0,0,,7,,,55,127
48105,note_on,1,0,0,,3,,,63,127
48105,note_on,0,0,0,,7,,,67,127
48105,note_on,0,0,0,,11,,,70,127
48263,note_off,158,0,0,,11,,,70,127
48263,note_off,0,0,0,,7,,,67,127
48263,note_off,0,0,0,,3,,,63,127
48264,note_on,1,0,0,,0,,,60,127
48264,note_on,0,0,0,,0,,,72,127
48264,note_on,0,0,0,,10,,,69,127
48422,note_off,158,0,0,,10,,,69,127
48422,note_off,0,0,0,,0,,,72,127
48423,note_on,1,0,0,,11,,,70,127
48423,note_on,0,0,0,,7,,,67,127
48581,note_off,158,0,0,,7,,,67,127
48581,note_off,0,0,0,,11,,,70,127
48581,note_off,0,0,0,,0,,,60,127
48582,note_on,1,0,0,,2,,,62,127
48582,note_on,0,0,0,,6,,,66,127
48582,note_on,0,0,0,,10,,,69,127
48740,note_off,158,0,0,,10,,,69,127
48740,note_off,0,0,0,,6,,,66,127
48740,note_off,0,0,0,,2,,,62,127
48741,note_on,1,0,0,,7,,,43,127
48741,note_on,0,0,0,,7,,,67,127
48899,note_off,158,0,0,,7,,,43,127
48900,note_on,1,0,0,,7,,,55,127
49058,note_off,158,0,0,,7,,,55,127
49059,note_on,1,0,0,,11,,,58,127
49059,note_on,0,0,0,,2,,,62,127
49217,note_off,158,0,0,,11,,,58,127
49218,note_on,1,0,0,,2,,,38,127
49376,note_off,158,0,0,,2,,,38,127
49376,note_off,0,0,0,,7,,,67,127
49377,note_on,1,0,0,,2,,,50,127
49377,note_on,0,0,0,,10,,,69,127
49535,note_off,158,0,0,,10,,,69,127
49535,note_off,0,0,0,,2,,,50,127
49536,note_on,1,0,0,,6,,,54,127
49536,note_on,0,0,0,,0,,,72,127
49694,note_off,158,0,0,,0,,,72,127
49694,note_off,0,0,0,,6,,,54,127
49694,note_off,0,0,0,,2,,,62,127
49695,note_on,1,0,0,,7,,,43,127
49695,note_on,0,0,0,,0,,,72,127
49695,note_on,0,0,0,,11,,,70,127
49853,note_off,158,0,0,,11,,,70,127
49853,note_off,0,0,0,,0,,,72,127
49853,note_off,0,0,0,,7,,,43,127
49854,note_on,1,0,0,,7,,,55,127
49854,note_on,0,0,0,,10,,,69,127
50012,note_off,158,0,0,,10,,,69,127
50012,note_off,0,0,0,,7,,,55,127
50013,note_on,1,0,0,,11,,,58,127
50013,note_on,0,0,0,,7,,,67,127
50171,note_off,158,0,0,,11,,,58,127
50172,note_on,1,0,0,,2,,,38,127
50172,note_on,0,0,0,,2,,,62,127
50330,note_off,158,0,0,,2,,,38,127
50330,note_off,0,0,0,,7,,,67,127
50331,note_on,1,0,0,,2,,,50,127
50331,note_on,0,0,0,,10,,,69,127
50489,note_off,158,0,0,,10,,,69,127
50489,note_off,0,0,0,,2,,,50,127
50490,note_on,1,0,0,,6,,,54,127
50490,note_on,0,0,0,,0,,,72,127
50648,note_off,158,0,0,,0,,,72,127
50648,note_off,0,0,0,,6,,,54,127
50648,note_off,0,0,0,,2,,,62,127
50649,note_on,1,0,0,,7,,,43,127
50649,note_on,0,0,0,,0,,,72,127
50649,note_on,0,0,0,,11,,,70,127
50807,note_off,158,0,0,,11,,,70,127
50807,note_off,0,0,0,,0,,,72,127
50807,note_off,0,0,0,,7,,,43,127
50808,note_on,1,0,0,,7,,,55,127
50808,note_on,0,0,0,,10,,,69,127
50966,note_off,158,0,0,,10,,,69,127
50966,note_off,0,0,0,,7,,,55,127
50967,note_on,1,0,0,,11,,,58,127
50967,note_on,0,0,0,,7,,,67,127
51125,note_off,158,0,0,,11,,,58,127
51126,note_on,1,0,0,,2,,,38,127
51126,note_on,0,0,0,,2,,,62,127
51284,note_off,158,0,0,,2,,,38,127
51284,note_off,0,0,0,,7,,,67,127
51285,note_on,1,0,0,,2,,,50,127
51285,note_on,0,0,0,,10,,,69,127
51443,note_off,158,0,0,,10,,,69,127
51443,note_off,0,0,0,,2,,,50,127
51444,note_on,1,0,0,,6,,,54,127
51444,note_on,0,0,0,,0,,,72,127
51602,note_off,158,0,0,,0,,,72,127
51602,note_off,0,0,0,,6,,,54,127
51602,note_off,0,0,0,,2,,,62,127
51603,note_on,1,0,0,,7,,,43,127
51603,note_on,0,0,0,,7,,,67,127
51603,note_on,0,0,0,,11,,,70,127
51761,note_off,158,0,0,,11,,,70,127
51761,note_off,0,0,0,,7,,,67,127
51762,note_on,1,0,0,,6,,,66,127
51762,note_on,0,0,0,,10,,,69,127
51920,note_off,158,0,0,,10,,,69,127
51920,note_off,0,0,0,,6,,,66,127
51920,note_off,0,0,0,,7,,,43,127
51921,note_on,1,0,0,,3,,,51,127
51921,note_on,0,0,0,,11,,,70,127
51921,note_on,0,0,0,,7,,,67,127
52079,note_off,158,0,0,,7,,,67,127
52079,note_off,0,0,0,,11,,,70,127
52079,note_off,0,0,0,,3,,,51,127
52080,note_on,1,0,0,,0,,,48,127
52080,note_on,0,0,0,,10,,,69,127
52080,note_on,0,0,0,,0,,,72,127
52238,note_off,158,0,0,,0,,,72,127
52238,note_off,0,0,0,,10,,,69,127
52239,note_on,1,0,0,,7,,,67,127
52239,note_on,0,0,0,,11,,,70,127
52397,note_off,158,0,0,,11,,,70,127
52397,note_off,0,0,0,,7,,,67,127
52397,note_off,0,0,0,,0,,,48,127
52398,note_on,1,0,0,,2,,,50,127
52398,note_on,0,0,0,,6,,,66,127
52398,note_on,0,0,0,,10,,,69,127
52556,note_off,158,0,0,,10,,,69,127
52556,note_off,0,0,0,,6,,,66,127
52556,note_off,0,0,0,,2,,,50,127
52557,note_on,1,0,0,,7,,,43,127
52557,note_on,0,0,0,,7,,,67,127
52715,note_off,158,0,0,,7,,,43,127
52716,note_on,1,0,0,,7,,,55,127
52874,note_off,158,0,0,,7,,,55,127
52874,note_off,0,0,0,,7,,,67,127
52875,note_on,1,0,0,,11,,,58,127
52875,note_on,0,0,0,,7,,,79,127
53033,note_off,158,0,0,,11,,,58,127
53034,note_on,1,0,0,,2,,,38,127
53192,note_off,158,0,0,,2,,,38,127
53192,note_off,0,0,0,,7,,,79,127
53193,note_on,1,0,0,,2,,,50,127
53193,note_on,0,0,0,,10,,,81,127
53351,note_off,158,0,0,,10,,,81,127
53351,note_off,0,0,0,,2,,,50,127
53352,note_on,1,0,0,,6,,,54,127
53352,note_on,0,0,0,,0,,,72,127
53510,note_off,158,0,0,,0,,,72,127
53510,note_off,0,0,0,,6,,,54,127
53511,note_on,1,0,0,,7,,,43,127
53511,note_on,0,0,0,,11,,,70,127
53511,note_on,0,0,0,,0,,,72,127
53669,note_off,158,0,0,,0,,,72,127
53669,note_off,0,0,0,,11,,,70,127
53669,note_off,0,0,0,,7,,,43,127
53670,note_on,1,0,0,,7,,,55,127
53670,note_on,0,0,0,,10,,,69,127
53828,note_off,158,0,0,,10,,,69,127
53828,note_off,0,0,0,,7,,,55,127
53829,note_on,1,0,0,,11,,,58,127
53829,note_on,0,0,0,,7,,,79,127
53829,note_on,0,0,0,,11,,,70,127
53987,note_off,158,0,0,,11,,,58,127
53988,note_on,1,0,0,,2,,,38,127
54146,note_off,158,0,0,,2,,,38,127
54146,note_off,0,0,0,,11,,,70,127
54146,note_off,0,0,0,,7,,,79,127
54147,note_on,1,0,0,,2,,,50,127
54147,note_on,0,0,0,,10,,,81,127
54305,note_off,158,0,0,,10,,,81,127
54305,note_off,0,0,0,,2,,,50,127
54306,note_on,1,0,0,,6,,,54,127
54306,note_on,0,0,0,,0,,,72,127
54464,note_off,158,0,0,,0,,,72,127
54464,note_off,0,0,0,,6,,,54,127
54465,note_on,1,0,0,,7,,,43,127
54465,note_on,0,0,0,,0,,,72,127
54465,note_on,0,0,0,,11,,,70,127
54623,note_off,158,0,0,,11,,,70,127
54623,note_off,0,0,0,,0,,,72,127
54623,note_off,0,0,0,,7,,,43,127
54624,note_on,1,0,0,,7,,,55,127
54624,note_on,0,0,0,,10,,,69,127
54782,note_off,158,0,0,,10,,,69,127
54782,note_off,0,0,0,,7,,,55,127
54783,note_on,1,0,0,,11,,,58,127
54783,note_on,0,0,0,,11,,,70,127
54783,note_on,0,0,0,,7,,,79,127
54941,note_off,158,0,0,,11,,,58,127
54942,note_on,1,0,0,,2,,,38,127
55100,note_off,158,0,0,,2,,,38,127
55100,note_off,0,0,0,,7,,,79,127
55100,note_off,0,0,0,,11,,,70,127
55101,note_on,1,0,0,,2,,,50,127
55101,note_on,0,0,0,,10,,,81,127
55259,note_off,158,0,0,,10,,,81,127
55259,note_off,0,0,0,,2,,,50,127
55260,note_on,1,0,0,,6,,,54,127
55260,note_on,0,0,0,,0,,,72,127
55418,note_off,158,0,0,,0,,,72,127
55418,note_off,0,0,0,,6,,,54,127
55419,note_on,1,0,0,,7,,,43,127
55419,note_on,0,0,0,,0,,,72,127
55419,note_on,0,0,0,,11,,,70,127
55577,note_off,158,0,0,,11,,,70,127
55577,note_off,0,0,0,,0,,,72,127
55578,note_on,1,0,0,,10,,,69,127
55736,note_off,158,0,0,,10,,,69,127
55736,note_off,0,0,0,,7,,,43,127
55737,note_on,1,0,0,,3,,,51,127
55737,note_on,0,0,0,,7,,,67,127
55737,note_on,0,0,0,,11,,,70,127
55895,note_off,158,0,0,,11,,,70,127
55895,note_off,0,0,0,,7,,,67,127
55895,note_off,0,0,0,,3,,,51,127
55896,note_on,1,0,0,,0,,,48,127
55896,note_on,0,0,0,,10,,,69,127
55896,note_on,0,0,0,,0,,,72,127
56054,note_off,158,0,0,,0,,,72,127
56054,note_off,0,0,0,,10,,,69,127
56055,note_on,1,0,0,,11,,,70,127
56055,note_on,0,0,0,,7,,,67,127
56213,note_off,158,0,0,,7,,,67,127
56213,note_off,0,0,0,,11,,,70,127
56213,note_off,0,0,0,,0,,,48,127
56214,note_on,1,0,0,,2,,,50,127
56214,note_on,0,0,0,,10,,,69,127
56214,note_on,0,0,0,,6,,,66,127
56372,note_off,158,0,0,,6,,,66,127
56372,note_off,0,0,0,,10,,,69,127
56372,note_off,0,0,0,,2,,,50,127
56373,note_on,1,0,0,,7,,,43,127
56373,note_on,0,0,0,,7,,,67,127
56532,note_on,159,0,0,,7,,,79,127
56688,note_off,156,0,0,,7,,,67,127
56690,note_off,2,0,0,,7,,,79,127
56691,note_on,1,0,0,,3,,,75,127
56849,note_off,158,0,0,,3,,,75,127
56850,note_on,1,0,0,,2,,,74,127
57009,note_on,159,0,0,,7,,,79,127
57088,note_off,79,0,0,,2,,,74,127
57167,note_off,79,0,0,,7,,,79,127
57168,note_on,1,0,0,,0,,,72,127
57326,note_off,158,0,0,,0,,,72,127
57327,note_on,1,0,0,,12,,,71,127
57486,note_on,159,0,0,,7,,,79,127
57565,note_off,79,0,0,,12,,,71,127
57644,note_off,79,0,0,,7,,,79,127
57645,note_on,1,0,0,,8,,,68,127
57803,note_off,158,0,0,,8,,,68,127
57803,note_off,0,0,0,,7,,,43,127
57804,note_on,1,0,0,,7,,,67,127
57963,note_on,159,0,0,,5,,,77,127
57963,note_on,0,0,0,,2,,,74,127
58121,note_off,158,0,0,,2,,,74,127
58121,note_off,0,0,0,,5,,,77,127
58122,note_on,1,0,0,,3,,,75,127
58122,note_on,0,0,0,,0,,,72,127
58280,note_off,158,0,0,,0,,,72,127
58280,note_off,0,0,0,,3,,,75,127
58281,note_on,1,0,0,,2,,,74,127
58281,note_on,0,0,0,,12,,,71,127
58433,note_off,152,0,0,,7,,,67,127
58440,note_on,7,0,0,,8,,,68,127
58598,note_off,158,0,0,,8,,,68,127
58599,note_on,1,0,0,,7,,,67,127
58757,note_off,158,0,0,,7,,,67,127
58758,note_on,1,0,0,,5,,,65,127
58916,note_off,158,0,0,,12,,,71,127
58916,note_off,0,0,0,,2,,,74,127
58917,note_on,1,0,0,,12,,,71,127
58917,note_on,0,0,0,,2,,,74,127
59075,note_off,158,0,0,,5,,,65,127
59076,note_on,1,0,0,,3,,,63,127
59234,note_off,158,0,0,,3,,,63,127
59235,note_on,1,0,0,,2,,,62,127
59393,note_off,158,0,0,,2,,,74,127
59393,note_off,0,0,0,,12,,,71,127
59394,note_on,1,0,0,,3,,,75,127
59394,note_on,0,0,0,,0,,,72,127
59552,note_off,158,0,0,,2,,,62,127
59553,note_on,1,0,0,,0,,,60,127
59711,note_off,158,0,0,,0,,,60,127
59712,note_on,1,0,0,,12,,,59,127
59870,note_off,158,0,0,,0,,,72,127
59870,note_off,0,0,0,,3,,,75,127
59871,note_on,1,0,0,,2,,,74,127
59871,note_on,0,0,0,,5,,,77,127
60029,note_off,158,0,0,,12,,,59,127
60030,note_on,1,0,0,,8,,,56,127
60188,note_off,158,0,0,,8,,,56,127
60189,note_on,1,0,0,,7,,,55,127
60347,note_off,158,0,0,,5,,,77,127
60347,note_off,0,0,0,,2,,,74,127
60348,note_on,1,0,0,,2,,,74,127
60348,note_on,0,0,0,,5,,,77,127
60506,note_off,158,0,0,,7,,,55,127
60507,note_on,1,0,0,,5,,,65,127
60665,note_off,158,0,0,,5,,,65,127
60666,note_on,1,0,0,,3,,,63,127
60824,note_off,158,0,0,,5,,,77,127
60824,note_off,0,0,0,,2,,,74,127
60825,note_on,1,0,0,,7,,,79,127
60825,note_on,0,0,0,,3,,,75,127
60983,note_off,158,0,0,,3,,,63,127
60984,note_on,1,0,0,,2,,,62,127
61142,note_off,158,0,0,,2,,,62,127
61143,note_on,1,0,0,,0,,,60,127
61301,note_off,158,0,0,,3,,,75,127
61301,note_off,0,0,0,,7,,,79,127
61302,note_on,1,0,0,,3,,,75,127
61302,note_on,0,0,0,,7,,,79,127
61460,note_off,158,0,0,,0,,,60,127
61461,note_on,1,0,0,,11,,,58,127
61619,note_off,158,0,0,,11,,,58,127
61620,note_on,1,0,0,,8,,,56,127
61778,note_off,158,0,0,,7,,,79,127
61778,note_off,0,0,0,,3,,,75,127
61779,note_on,1,0,0,,3,,,75,127
61779,note_on,0,0,0,,0,,,72,127
61779,note_on,0,0,0,,0,,,84,127
61937,note_off,158,0,0,,8,,,56,127
61938,note_on,1,0,0,,7,,,55,127
62096,note_off,158,0,0,,7,,,55,127
62097,note_on,1,0,0,,5,,,53,127
62255,note_off,158,0,0,,0,,,84,127
62255,note_off,0,0,0,,0,,,72,127
62255,note_off,0,0,0,,3,,,75,127
62256,note_on,1,0,0,,8,,,80,127
62256,note_on,0,0,0,,0,,,72,127
62256,note_on,0,0,0,,0,,,84,127
62414,note_off,158,0,0,,5,,,53,127
62415,note_on,1,0,0,,3,,,51,127
62573,note_off,158,0,0,,3,,,51,127
62574,note_on,1,0,0,,2,,,50,127
62732,note_off,158,0,0,,0,,,84,127
62732,note_off,0,0,0,,0,,,72,127
62732,note_off,0,0,0,,8,,,80,127
62733,note_on,1,0,0,,8,,,80,127
62733,note_on,0,0,0,,0,,,84,127
62733,note_on,0,0,0,,0,,,72,127
62891,note_off,158,0,0,,2,,,50,127
62892,note_on,1,0,0,,0,,,48,127
63050,note_off,158,0,0,,0,,,48,127
63051,note_on,1,0,0,,11,,,46,127
63209,note_off,158,0,0,,0,,,72,127
63209,note_off,0,0,0,,0,,,84,127
63209,note_off,0,0,0,,8,,,80,127
63210,note_on,1,0,0,,8,,,80,127
63210,note_on,0,0,0,,0,,,84,127
63368,note_off,158,0,0,,0,,,84,127
63368,note_off,0,0,0,,8,,,80,127
63369,note_on,1,0,0,,11,,,82,127
63369,note_on,0,0,0,,7,,,79,127
63526,note_off,157,0,0,,7,,,79,127
63526,note_off,0,0,0,,11,,,82,127
63527,note_off,1,0,0,,11,,,46,127
63528,note_on,1,0,0,,11,,,46,127
63528,note_on,0,0,0,,5,,,77,127
63528,note_on,0,0,0,,8,,,80,127
63528,note_on,0,0,0,,7,,,79,127
63528,note_on,0,0,0,,11,,,82,127
63568,note_off,40,0,0,,11,,,82,127
63568,note_off,0,0,0,,7,,,79,127
63686,note_off,118,0,0,,8,,,80,127
63686,note_off,0,0,0,,5,,,77,127
63687,note_on,1,0,0,,3,,,75,127
63687,note_on,0,0,0,,7,,,79,127
63845,note_off,158,0,0,,7,,,79,127
63845,note_off,0,0,0,,3,,,75,127
63846,note_on,1,0,0,,5,,,77,127
63846,note_on,0,0,0,,2,,,74,127
64004,note_off,158,0,0,,2,,,74,127
64004,note_off,0,0,0,,5,,,77,127
64004,note_off,0,0,0,,11,,,46,127
64005,note_on,1,0,0,,11,,,46,127
64005,note_on,0,0,0,,7,,,79,127
64005,note_on,0,0,0,,3,,,75,127
64163,note_off,158,0,0,,3,,,75,127
64163,note_off,0,0,0,,7,,,79,127
64164,note_on,1,0,0,,11,,,82,127
64164,note_on,0,0,0,,7,,,79,127
64322,note_off,158,0,0,,7,,,79,127
64322,note_off,0,0,0,,11,,,82,127
64323,note_on,1,0,0,,8,,,80,127
64323,note_on,0,0,0,,5,,,77,127
64481,note_off,158,0,0,,5,,,77,127
64481,note_off,0,0,0,,8,,,80,127
64481,note_off,0,0,0,,11,,,46,127
64482,note_on,1,0,0,,11,,,46,127
64482,note_on,0,0,0,,3,,,75,127
64482,note_on,0,0,0,,7,,,79,127
64640,note_off,158,0,0,,7,,,79,127
64640,note_off,0,0,0,,3,,,75,127
64641,note_on,1,0,0,,2,,,74,127
64641,note_on,0,0,0,,5,,,77,127
64799,note_off,158,0,0,,5,,,77,127
64799,note_off,0,0,0,,2,,,74,127
64800,note_on,1,0,0,,0,,,72,127
64800,note_on,0,0,0,,3,,,75,127
64958,note_off,158,0,0,,3,,,75,127
64958,note_off,0,0,0,,0,,,72,127
64958,note_off,0,0,0,,11,,,46,127
64959,note_on,1,0,0,,11,,,46,127
64959,note_on,0,0,0,,5,,,65,127
65117,note_off,158,0,0,,5,,,65,127
65118,note_on,1,0,0,,11,,,70,127
65276,note_off,158,0,0,,11,,,70,127
65277,note_on,1,0,0,,2,,,74,127
65435,note_off,158,0,0,,2,,,74,127
65435,note_off,0,0,0,,11,,,46,127
65436,note_on,1,0,0,,11,,,82,127
65436,note_on,0,0,0,,5,,,77,127
65594,note_off,158,0,0,,5,,,77,127
65595,note_on,1,0,0,,3,,,75,127
65753,note_off,158,0,0,,3,,,75,127
65754,note_on,1,0,0,,2,,,74,127
65912,note_off,158,0,0,,2,,,74,127
65912,note_off,0,0,0,,11,,,82,127
65913,note_on,1,0,0,,3,,,39,127
65913,note_on,0,0,0,,7,,,67,127
66071,note_off,158,0,0,,7,,,67,127
66072,note_on,1,0,0,,11,,,70,127
66230,note_off,158,0,0,,11,,,70,127
66231,note_on,1,0,0,,3,,,75,127
66389,note_off,158,0,0,,3,,,75,127
66389,note_off,0,0,0,,3,,,39,127
66390,note_on,1,0,0,,11,,,82,127
66390,note_on,0,0,0,,7,,,79,127
66548,note_off,158,0,0,,7,,,79,127
66549,note_on,1,0,0,,5,,,77,127
66707,note_off,158,0,0,,5,,,77,127
66708,note_on,1,0,0,,3,,,75,127
66866,note_off,158,0,0,,3,,,75,127
66866,note_off,0,0,0,,11,,,82,127
66867,note_on,1,0,0,,11,,,46,127
66867,note_on,0,0,0,,5,,,65,127
67025,note_off,158,0,0,,5,,,65,127
67026,note_on,1,0,0,,11,,,70,127
67184,note_off,158,0,0,,11,,,70,127
67185,note_on,1,0,0,,2,,,74,127
67343,note_off,158,0,0,,2,,,74,127
67343,note_off,0,0,0,,11,,,46,127
67344,note_on,1,0,0,,11,,,82,127
67344,note_on,0,0,0,,5,,,77,127
67502,note_off,158,0,0,,5,,,77,127
67503,note_on,1,0,0,,3,,,75,127
67661,note_off,158,0,0,,3,,,75,127
67662,note_on,1,0,0,,2,,,74,127
67820,note_off,158,0,0,,2,,,74,127
67820,note_off,0,0,0,,11,,,82,127
67821,note_on,1,0,0,,3,,,39,127
67821,note_on,0,0,0,,7,,,67,127
67979,note_off,158,0,0,,7,,,67,127
67980,note_on,1,0,0,,11,,,70,127
68138,note_off,158,0,0,,11,,,70,127
68139,note_on,1,0,0,,3,,,75,127
68297,note_off,158,0,0,,3,,,75,127
68297,note_off,0,0,0,,3,,,39,127
68298,note_on,1,0,0,,11,,,82,127
68298,note_on,0,0,0,,7,,,79,127
68456,note_off,158,0,0,,7,,,79,127
68457,note_on,1,0,0,,5,,,77,127
68615,note_off,158,0,0,,5,,,77,127
68616,note_on,1,0,0,,3,,,75,127
68774,note_off,158,0,0,,3,,,75,127
68774,note_off,0,0,0,,11,,,82,127
68775,note_on,1,0,0,,0,,,36,127
68775,note_on,0,0,0,,7,,,67,127
68933,note_off,158,0,0,,7,,,67,127
68934,note_on,1,0,0,,4,,,76,127
69092,note_off,158,0,0,,4,,,76,127
69093,note_on,1,0,0,,7,,,79,127
69251,note_off,158,0,0,,7,,,79,127
69251,note_off,0,0,0,,0,,,36,127
69252,note_on,1,0,0,,11,,,82,127
69252,note_on,0,0,0,,11,,,70,127
69410,note_off,158,0,0,,11,,,70,127
69411,note_on,1,0,0,,8,,,68,127
69569,note_off,158,0,0,,8,,,68,127
69570,note_on,1,0,0,,7,,,67,127
69728,note_off,158,0,0,,7,,,67,127
69728,note_off,0,0,0,,11,,,82,127
69729,note_on,1,0,0,,5,,,41,127
69729,note_on,0,0,0,,8,,,68,127
69887,note_off,158,0,0,,8,,,68,127
69888,note_on,1,0,0,,0,,,72,127
70046,note_off,158,0,0,,0,,,72,127
70047,note_on,1,0,0,,5,,,77,127
70205,note_off,158,0,0,,5,,,77,127
70205,note_off,0,0,0,,5,,,41,127
70206,note_on,1,0,0,,0,,,84,127
70206,note_on,0,0,0,,8,,,68,127
70364,note_off,158,0,0,,8,,,68,127
70365,note_on,1,0,0,,7,,,67,127
70523,note_off,158,0,0,,7,,,67,127
70524,note_on,1,0,0,,5,,,65,127
70682,note_off,158,0,0,,5,,,65,127
70682,note_off,0,0,0,,0,,,84,127
70683,note_on,1,0,0,,0,,,36,127
70683,note_on,0,0,0,,7,,,67,127
70841,note_off,158,0,0,,7,,,67,127
70842,note_on,1,0,0,,4,,,76,127
71000,note_off,158,0,0,,4,,,76,127
71001,note_on,1,0,0,,7,,,79,127
71159,note_off,158,0,0,,7,,,79,127
71159,note_off,0,0,0,,0,,,36,127
71160,note_on,1,0,0,,11,,,82,127
71160,note_on,0,0,0,,11,,,70,127
71318,note_off,158,0,0,,11,,,70,127
71319,note_on,1,0,0,,8,,,68,127
71477,note_off,158,0,0,,8,,,68,127
71478,note_on,1,0,0,,7,,,67,127
71636,note_off,158,0,0,,7,,,67,127
71636,note_off,0,0,0,,11,,,82,127
71637,note_on,1,0,0,,5,,,41,127
71637,note_on,0,0,0,,8,,,68,127
71795,note_off,158,0,0,,8,,,68,127
71796,note_on,1,0,0,,0,,,72,127
71954,note_off,158,0,0,,0,,,72,127
71955,note_on,1,0,0,,5,,,77,127
72113,note_off,158,0,0,,5,,,77,127
72113,note_off,0,0,0,,5,,,41,127
72114,note_on,1,0,0,,0,,,84,127
72114,note_on,0,0,0,,8,,,68,127
72272,note_off,158,0,0,,8,,,68,127
72273,note_on,1,0,0,,7,,,67,127
72431,note_off,158,0,0,,7,,,67,127
72432,note_on,1,0,0,,5,,,65,127
72590,note_off,158,0,0,,5,,,65,127
72590,note_off,0,0,0,,0,,,84,127
72591,note_on,1,0,0,,2,,,38,127
72591,note_on,0,0,0,,10,,,69,127
72749,note_off,158,0,0,,10,,,69,127
72750,note_on,1,0,0,,6,,,78,127
72908,note_off,158,0,0,,6,,,78,127
72909,note_on,1,0,0,,10,,,81,127
73067,note_off,158,0,0,,10,,,81,127
73067,note_off,0,0,0,,2,,,38,127
73068,note_on,1,0,0,,0,,,84,127
73068,note_on,0,0,0,,0,,,72,127
73226,note_off,158,0,0,,0,,,72,127
73227,note_on,1,0,0,,11,,,70,127
73385,note_off,158,0,0,,11,,,70,127
73386,note_on,1,0,0,,10,,,69,127
73544,note_off,158,0,0,,10,,,69,127
73544,note_off,0,0,0,,0,,,84,127
73545,note_on,1,0,0,,7,,,43,127
73545,note_on,0,0,0,,11,,,70,127
73703,note_off,158,0,0,,11,,,70,127
73704,note_on,1,0,0,,2,,,74,127
73862,note_off,158,0,0,,2,,,74,127
73863,note_on,1,0,0,,7,,,79,127
74021,note_off,158,0,0,,7,,,79,127
74021,note_off,0,0,0,,7,,,43,127
74022,note_on,1,0,0,,2,,,86,127
74022,note_on,0,0,0,,11,,,70,127
74180,note_off,158,0,0,,11,,,70,127
74181,note_on,1,0,0,,10,,,69,127
74339,note_off,158,0,0,,10,,,69,127
74340,note_on,1,0,0,,7,,,67,127
74498,note_off,158,0,0,,7,,,67,127
74498,note_off,0,0,0,,2,,,86,127
74499,note_on,1,0,0,,2,,,38,127
74499,note_on,0,0,0,,10,,,69,127
74657,note_off,158,0,0,,10,,,69,127
74658,note_on,1,0,0,,6,,,78,127
74816,note_off,158,0,0,,6,,,78,127
74817,note_on,1,0,0,,10,,,81,127
74975,note_off,158,0,0,,10,,,81,127
74975,note_off,0,0,0,,2,,,38,127
74976,note_on,1,0,0,,0,,,84,127
74976,note_on,0,0,0,,0,,,72,127
75134,note_off,158,0,0,,0,,,72,127
75135,note_on,1,0,0,,11,,,70,127
75293,note_off,158,0,0,,11,,,70,127
75294,note_on,1,0,0,,10,,,69,127
75452,note_off,158,0,0,,10,,,69,127
75452,note_off,0,0,0,,0,,,84,127
75453,note_on,1,0,0,,7,,,43,127
75453,note_on,0,0,0,,7,,,67,127
75611,note_off,158,0,0,,7,,,67,127
75612,note_on,1,0,0,,12,,,71,127
75612,note_on,0,0,0,,2,,,74,127
75770,note_off,158,0,0,,2,,,74,127
75770,note_off,0,0,0,,12,,,71,127
75771,note_on,1,0,0,,3,,,75,127
75771,note_on,0,0,0,,0,,,72,127
75929,note_off,158,0,0,,0,,,72,127
75929,note_off,0,0,0,,3,,,75,127
75929,note_off,0,0,0,,7,,,43,127
75930,note_on,1,0,0,,12,,,83,127
75930,note_on,0,0,0,,5,,,77,127
75930,note_on,0,0,0,,2,,,74,127
76088,note_off,158,0,0,,2,,,74,127
76088,note_off,0,0,0,,5,,,77,127
76089,note_on,1,0,0,,3,,,75,127
76089,note_on,0,0,0,,0,,,72,127
76247,note_off,158,0,0,,0,,,72,127
76247,note_off,0,0,0,,3,,,75,127
76248,note_on,1,0,0,,2,,,74,127
76248,note_on,0,0,0,,12,,,71,127
76406,note_off,158,0,0,,12,,,71,127
76406,note_off,0,0,0,,2,,,74,127
76406,note_off,0,0,0,,12,,,83,127
76407,note_on,1,0,0,,0,,,36,127
76407,note_on,0,0,0,,7,,,67,127
76565,note_off,158,0,0,,7,,,67,127
76566,note_on,1,0,0,,3,,,75,127
76566,note_on,0,0,0,,7,,,79,127
76724,note_off,158,0,0,,7,,,79,127
76724,note_off,0,0,0,,3,,,75,127
76725,note_on,1,0,0,,5,,,77,127
76725,note_on,0,0,0,,2,,,74,127
76883,note_off,158,0,0,,2,,,74,127
76883,note_off,0,0,0,,5,,,77,127
76883,note_off,0,0,0,,0,,,36,127
76884,note_on,1,0,0,,0,,,84,127
76884,note_on,0,0,0,,3,,,75,127
76884,note_on,0,0,0,,0,,,72,127
77042,note_off,158,0,0,,0,,,72,127
77042,note_off,0,0,0,,3,,,75,127
77043,note_on,1,0,0,,2,,,74,127
77043,note_on,0,0,0,,12,,,71,127
77201,note_off,158,0,0,,12,,,71,127
77201,note_off,0,0,0,,2,,,74,127
77202,note_on,1,0,0,,0,,,72,127
77202,note_on,0,0,0,,3,,,75,127
77360,note_off,158,0,0,,3,,,75,127
77360,note_off,0,0,0,,0,,,72,127
77360,note_off,0,0,0,,0,,,84,127
77361,note_on,1,0,0,,7,,,43,127
77361,note_on,0,0,0,,7,,,67,127
77519,note_off,158,0,0,,7,,,67,127
77520,note_on,1,0,0,,2,,,74,127
77520,note_on,0,0,0,,12,,,71,127
77678,note_off,158,0,0,,12,,,71,127
77678,note_off,0,0,0,,2,,,74,127
77679,note_on,1,0,0,,0,,,72,127
77679,note_on,0,0,0,,3,,,75,127
77837,note_off,158,0,0,,3,,,75,127
77837,note_off,0,0,0,,0,,,72,127
77837,note_off,0,0,0,,7,,,43,127
77838,note_on,1,0,0,,12,,,83,127
77838,note_on,0,0,0,,2,,,74,127
77838,note_on,0,0,0,,5,,,77,127
77996,note_off,158,0,0,,5,,,77,127
77996,note_off,0,0,0,,2,,,74,127
77997,note_on,1,0,0,,3,,,75,127
77997,note_on,0,0,0,,0,,,72,127
78155,note_off,158,0,0,,0,,,72,127
78155,note_off,0,0,0,,3,,,75,127
78156,note_on,1,0,0,,2,,,74,127
78156,note_on,0,0,0,,12,,,71,127
78314,note_off,158,0,0,,12,,,71,127
78314,note_off,0,0,0,,2,,,74,127
78314,note_off,0,0,0,,12,,,83,127
78315,note_on,1,0,0,,0,,,36,127
78315,note_on,0,0,0,,7,,,67,127
78473,note_off,158,0,0,,7,,,67,127
78474,note_on,1,0,0,,7,,,79,127
78474,note_on,0,0,0,,3,,,75,127
78632,note_off,158,0,0,,3,,,75,127
78632,note_off,0,0,0,,7,,,79,127
78633,note_on,1,0,0,,2,,,74,127
78633,note_on,0,0,0,,5,,,77,127
78791,note_off,158,0,0,,5,,,77,127
78791,note_off,0,0,0,,2,,,74,127
78791,note_off,0,0,0,,0,,,36,127
78792,note_on,1,0,0,,0,,,84,127
78792,note_on,0,0,0,,3,,,75,127
78792,note_on,0,0,0,,0,,,72,127
78950,note_off,158,0,0,,0,,,72,127
78950,note_off,0,0,0,,3,,,75,127
78951,note_on,1,0,0,,2,,,74,127
78951,note_on,0,0,0,,12,,,71,127
79109,note_off,158,0,0,,12,,,71,127
79109,note_off,0,0,0,,2,,,74,127
79110,note_on,1,0,0,,0,,,72,127
79110,note_on,0,0,0,,3,,,75,127
79268,note_off,158,0,0,,3,,,75,127
79268,note_off,0,0,0,,0,,,72,127
79268,note_off,0,0,0,,0,,,84,127
79269,note_on,1,0,0,,7,,,43,127
79269,note_on,0,0,0,,7,,,67,127
79427,note_off,158,0,0,,7,,,67,127
79428,note_on,1,0,0,,2,,,74,127
79428,note_on,0,0,0,,12,,,71,127
79586,note_off,158,0,0,,12,,,71,127
79586,note_off,0,0,0,,2,,,74,127
79587,note_on,1,0,0,,0,,,72,127
79587,note_on,0,0,0,,3,,,75,127
79745,note_off,158,0,0,,3,,,75,127
79745,note_off,0,0,0,,0,,,72,127
79745,note_off,0,0,0,,7,,,43,127
79746,note_on,1,0,0,,12,,,83,127
79746,note_on,0,0,0,,2,,,74,127
79746,note_on,0,0,0,,5,,,77,127
79904,note_off,158,0,0,,5,,,77,127
79904,note_off,0,0,0,,2,,,74,127
79905,note_on,1,0,0,,3,,,75,127
79905,note_on,0,0,0,,0,,,72,127
80063,note_off,158,0,0,,0,,,72,127
80063,note_off,0,0,0,,3,,,75,127
80064,note_on,1,0,0,,2,,,74,127
80064,note_on,0,0,0,,12,,,71,127
80222,note_off,158,0,0,,12,,,71,127
80222,note_off,0,0,0,,2,,,74,127
80222,note_off,0,0,0,,12,,,83,127
80223,note_on,1,0,0,,0,,,36,127
80223,note_on,0,0,0,,7,,,67,127
80382,note_on,159,0,0,,7,,,79,127
80538,note_off,156,0,0,,7,,,67,127
80540,note_off,2,0,0,,7,,,79,127
80541,note_on,1,0,0,,5,,,77,127
80699,note_off,158,0,0,,5,,,77,127
80699,note_off,0,0,0,,0,,,36,127
80700,note_on,1,0,0,,0,,,72,127
80700,note_on,0,0,0,,3,,,75,127
80858,note_off,158,0,0,,3,,,75,127
80859,note_on,1,0,0,,2,,,74,127
81017,note_off,158,0,0,,2,,,74,127
81018,note_on,1,0,0,,3,,,75,127
81176,note_off,158,0,0,,3,,,75,127
81176,note_off,0,0,0,,0,,,72,127
81177,note_on,1,0,0,,8,,,68,127
81177,note_on,0,0,0,,2,,,74,127
81177,note_on,0,0,0,,0,,,72,127
81335,note_off,158,0,0,,0,,,72,127
81335,note_off,0,0,0,,2,,,74,127
81336,note_on,1,0,0,,12,,,71,127
81494,note_off,158,0,0,,12,,,71,127
81495,note_on,1,0,0,,0,,,72,127
81653,note_off,158,0,0,,0,,,72,127
81653,note_off,0,0,0,,8,,,68,127
81654,note_on,1,0,0,,5,,,65,127
81654,note_on,0,0,0,,8,,,80,127
81813,note_on,159,0,0,,12,,,71,127
81971,note_off,158,0,0,,12,,,71,127
81972,note_on,1,0,0,,0,,,72,127
82130,note_off,158,0,0,,0,,,72,127
82130,note_off,0,0,0,,5,,,65,127
82131,note_on,1,0,0,,7,,,67,127
82131,note_on,0,0,0,,12,,,71,127
82289,note_off,158,0,0,,8,,,80,127
82290,note_on,1,0,0,,7,,,79,127
82448,note_off,158,0,0,,7,,,79,127
82448,note_off,0,0,0,,12,,,71,127
82449,note_on,1,0,0,,5,,,77,127
82607,note_off,158,0,0,,5,,,77,127
82607,note_off,0,0,0,,7,,,67,127
82608,note_on,1,0,0,,0,,,72,127
82608,note_on,0,0,0,,3,,,75,127
82766,note_off,158,0,0,,3,,,75,127
82767,note_on,1,0,0,,2,,,74,127
82925,note_off,158,0,0,,2,,,74,127
82926,note_on,1,0,0,,3,,,75,127
83084,note_off,158,0,0,,3,,,75,127
83084,note_off,0,0,0,,0,,,72,127
83085,note_on,1,0,0,,8,,,68,127
83085,note_on,0,0,0,,2,,,74,127
83085,note_on,0,0,0,,0,,,72,127
83243,note_off,158,0,0,,0,,,72,127
83243,note_off,0,0,0,,2,,,74,127
83244,note_on,1,0,0,,12,,,71,127
83402,note_off,158,0,0,,12,,,71,127
83403,note_on,1,0,0,,0,,,72,127
83561,note_off,158,0,0,,0,,,72,127
83561,note_off,0,0,0,,8,,,68,127
83562,note_on,1,0,0,,5,,,65,127
83562,note_on,0,0,0,,8,,,80,127
83721,note_on,159,0,0,,12,,,71,127
83879,note_off,158,0,0,,12,,,71,127
83880,note_on,1,0,0,,0,,,72,127
84038,note_off,158,0,0,,0,,,72,127
84038,note_off,0,0,0,,8,,,80,127
84038,note_off,0,0,0,,5,,,65,127
84039,note_on,1,0,0,,7,,,55,127
84039,note_on,0,0,0,,12,,,71,127
84198,note_on,159,0,0,,8,,,80,127
84356,note_off,158,0,0,,8,,,80,127
84356,note_off,0,0,0,,12,,,71,127
84357,note_on,1,0,0,,7,,,79,127
84515,note_off,158,0,0,,7,,,79,127
84516,note_on,1,0,0,,8,,,68,127
84516,note_on,0,0,0,,5,,,77,127
84674,note_off,158,0,0,,5,,,77,127
84675,note_on,1,0,0,,2,,,74,127
84833,note_off,158,0,0,,2,,,74,127
84833,note_off,0,0,0,,8,,,68,127
84834,note_on,1,0,0,,7,,,67,127
84834,note_on,0,0,0,,3,,,75,127
84992,note_off,158,0,0,,3,,,75,127
84992,note_off,0,0,0,,7,,,67,127
84993,note_on,1,0,0,,5,,,65,127
84993,note_on,0,0,0,,2,,,74,127
85151,note_off,158,0,0,,2,,,74,127
85152,note_on,1,0,0,,12,,,71,127
85310,note_off,158,0,0,,12,,,71,127
85310,note_off,0,0,0,,5,,,65,127
85311,note_on,1,0,0,,3,,,63,127
85311,note_on,0,0,0,,0,,,72,127
85469,note_off,158,0,0,,0,,,72,127
85469,note_off,0,0,0,,3,,,63,127
85470,note_on,1,0,0,,2,,,62,127
85470,note_on,0,0,0,,12,,,71,127
85628,note_off,158,0,0,,12,,,71,127
85629,note_on,1,0,0,,2,,,74,127
85681,note_off,52,0,0,,2,,,74,127
85682,note_on,1,0,0,,0,,,72,127
85734,note_off,52,0,0,,0,,,72,127
85735,note_on,1,0,0,,2,,,74,127
85787,note_off,52,0,0,,2,,,74,127
85787,note_off,0,0,0,,2,,,62,127
85788,note_on,1,0,0,,0,,,60,127
85788,note_on,0,0,0,,0,,,72,127
85840,note_off,52,0,0,,0,,,72,127
85841,note_on,1,0,0,,12,,,71,127
85893,note_off,52,0,0,,12,,,71,127
85894,note_on,1,0,0,,0,,,72,127
85946,note_off,52,0,0,,0,,,72,127
85946,note_off,0,0,0,,0,,,60,127
85946,note_off,0,0,0,,7,,,55,127
85947,note_on,1,0,0,,7,,,55,127
85947,note_on,0,0,0,,2,,,74,127
86105,note_off,158,0,0,,2,,,74,127
86106,note_on,1,0,0,,8,,,80,127
86264,note_off,158,0,0,,8,,,80,127
86265,note_on,1,0,0,,7,,,79,127
86423,note_off,158,0,0,,7,,,79,127
86424,note_on,1,0,0,,8,,,68,127
86424,note_on,0,0,0,,5,,,77,127
86582,note_off,158,0,0,,5,,,77,127
86583,note_on,1,0,0,,2,,,74,127
86741,note_off,158,0,0,,2,,,74,127
86741,note_off,0,0,0,,8,,,68,127
86742,note_on,1,0,0,,7,,,67,127
86742,note_on,0,0,0,,3,,,75,127
86900,note_off,158,0,0,,3,,,75,127
86900,note_off,0,0,0,,7,,,67,127
86901,note_on,1,0,0,,5,,,65,127
86901,note_on,0,0,0,,2,,,74,127
87059,note_off,158,0,0,,2,,,74,127
87060,note_on,1,0,0,,12,,,71,127
87218,note_off,158,0,0,,12,,,71,127
87218,note_off,0,0,0,,5,,,65,127
87219,note_on,1,0,0,,3,,,63,127
87219,note_on,0,0,0,,0,,,72,127
87377,note_off,158,0,0,,0,,,72,127
87377,note_off,0,0,0,,3,,,63,127
87378,note_on,1,0,0,,2,,,62,127
87378,note_on,0,0,0,,12,,,71,127
87536,note_off,158,0,0,,12,,,71,127
87537,note_on,1,0,0,,2,,,74,127
87589,note_off,52,0,0,,2,,,74,127
87590,note_on,1,0,0,,0,,,72,127
87642,note_off,52,0,0,,0,,,72,127
87643,note_on,1,0,0,,2,,,74,127
87695,note_off,52,0,0,,2,,,74,127
87695,note_off,0,0,0,,2,,,62,127
87696,note_on,1,0,0,,0,,,60,127
87696,note_on,0,0,0,,0,,,72,127
87748,note_off,52,0,0,,0,,,72,127
87749,note_on,1,0,0,,12,,,71,127
87801,note_off,52,0,0,,12,,,71,127
87802,note_on,1,0,0,,0,,,72,127
87854,note_off,52,0,0,,0,,,60,127
87854,note_off,0,0,0,,7,,,55,127
87855,note_on,1,0,0,,7,,,55,127
88225,note_off,370,0,0,,0,,,72,127
88226,note_on,1,0,0,,2,,,74,127
88331,note_off,105,0,0,,2,,,74,127
88332,note_on,1,0,0,,0,,,72,127
88384,note_off,52,0,0,,0,,,72,127
88385,note_on,1,0,0,,12,,,71,127
88437,note_off,52,0,0,,12,,,71,127
88438,note_on,1,0,0,,8,,,68,127
88490,note_off,52,0,0,,8,,,68,127
88491,note_on,1,0,0,,7,,,67,127
88543,note_off,52,0,0,,7,,,67,127
88544,note_on,1,0,0,,5,,,65,127
88596,note_off,52,0,0,,5,,,65,127
88597,note_on,1,0,0,,3,,,63,127
88649,note_off,52,0,0,,3,,,63,127
88650,note_on,1,0,0,,2,,,62,127
88702,note_off,52,0,0,,2,,,62,127
88703,note_on,1,0,0,,0,,,60,127
88755,note_off,52,0,0,,0,,,60,127
88756,note_on,1,0,0,,12,,,59,127
88806,note_off,50,0,0,,12,,,59,127
88808,note_off,2,0,0,,7,,,55,127
88809,note_on,1,0,0,,0,,,60,127
88968,note_on,159,0,0,,7,,,67,127
88968,note_on,0,0,0,,3,,,75,127
89126,note_off,158,0,0,,3,,,75,127
89126,note_off,0,0,0,,7,,,67,127
89127,note_on,1,0,0,,2,,,74,127
89127,note_on,0,0,0,,5,,,65,127
89285,note_off,158,0,0,,5,,,65,127
89285,note_off,0,0,0,,2,,,74,127
89286,note_on,1,0,0,,3,,,63,127
89286,note_on,0,0,0,,0,,,72,127
89444,note_off,158,0,0,,0,,,72,127
89444,note_off,0,0,0,,3,,,63,127
89445,note_on,1,0,0,,2,,,62,127
89445,note_on,0,0,0,,12,,,71,127
89603,note_off,158,0,0,,12,,,71,127
89603,note_off,0,0,0,,2,,,62,127
89604,note_on,1,0,0,,3,,,63,127
89604,note_on,0,0,0,,0,,,72,127
89762,note_off,158,0,0,,3,,,63,127
89762,note_off,0,0,0,,0,,,60,127
89763,note_on,1,0,0,,7,,,55,127
90133,note_off,370,0,0,,0,,,72,127
90134,note_on,1,0,0,,2,,,74,127
90239,note_off,105,0,0,,2,,,74,127
90240,note_on,1,0,0,,0,,,72,127
90292,note_off,52,0,0,,0,,,72,127
90293,note_on,1,0,0,,12,,,71,127
90345,note_off,52,0,0,,12,,,71,127
90346,note_on,1,0,0,,8,,,68,127
90398,note_off,52,0,0,,8,,,68,127
90399,note_on,1,0,0,,7,,,67,127
90451,note_off,52,0,0,,7,,,67,127
90452,note_on,1,0,0,,5,,,65,127
90504,note_off,52,0,0,,5,,,65,127
90505,note_on,1,0,0,,3,,,63,127
90557,note_off,52,0,0,,3,,,63,127
90558,note_on,1,0,0,,2,,,62,127
90610,note_off,52,0,0,,2,,,62,127
90611,note_on,1,0,0,,0,,,60,127
90663,note_off,52,0,0,,0,,,60,127
90664,note_on,1,0,0,,12,,,59,127
90714,note_off,50,0,0,,12,,,59,127
90716,note_off,2,0,0,,7,,,55,127
90717,note_on,1,0,0,,0,,,60,127
90876,note_on,159,0,0,,3,,,75,127
90876,note_on,0,0,0,,7,,,67,127
91034,note_off,158,0,0,,7,,,67,127
91034,note_off,0,0,0,,3,,,75,127
91035,note_on,1,0,0,,5,,,65,127
91035,note_on,0,0,0,,2,,,74,127
91193,note_off,158,0,0,,2,,,74,127
91193,note_off,0,0,0,,5,,,65,127
91194,note_on,1,0,0,,3,,,63,127
91194,note_on,0,0,0,,0,,,72,127
91352,note_off,158,0,0,,0,,,72,127
91352,note_off,0,0,0,,3,,,63,127
91353,note_on,1,0,0,,12,,,71,127
91353,note_on,0,0,0,,2,,,62,127
91511,note_off,158,0,0,,2,,,62,127
91511,note_off,0,0,0,,12,,,71,127
91512,note_on,1,0,0,,0,,,72,127
91512,note_on,0,0,0,,3,,,63,127
91670,note_off,158,0,0,,3,,,63,127
91670,note_off,0,0,0,,0,,,60,127
91671,note_on,1,0,0,,7,,,55,127
92094,note_off,423,0,0,,0,,,72,127
92095,note_on,1,0,0,,2,,,74,127
92147,note_off,52,0,0,,2,,,74,127
92148,note_on,1,0,0,,0,,,72,127
92200,note_off,52,0,0,,0,,,72,127
92201,note_on,1,0,0,,12,,,71,127
92253,note_off,52,0,0,,12,,,71,127
92254,note_on,1,0,0,,8,,,68,127
92306,note_off,52,0,0,,8,,,68,127
92307,note_on,1,0,0,,7,,,67,127
92359,note_off,52,0,0,,7,,,67,127
92360,note_on,1,0,0,,5,,,65,127
92412,note_off,52,0,0,,5,,,65,127
92413,note_on,1,0,0,,3,,,63,127
92465,note_off,52,0,0,,3,,,63,127
92466,note_on,1,0,0,,2,,,62,127
92518,note_off,52,0,0,,2,,,62,127
92519,note_on,1,0,0,,0,,,60,127
92571,note_off,52,0,0,,0,,,60,127
92572,note_on,1,0,0,,12,,,59,127
92622,note_off,50,0,0,,12,,,59,127
92624,note_off,2,0,0,,7,,,55,127
92625,note_on,1,0,0,,0,,,48,127
92625,note_on,0,0,0,,0,,,60,127
92784,note_on,159,0,0,,3,,,63,127
92784,note_on,0,0,0,,3,,,75,127
92942,note_off,158,0,0,,0,,,60,127
92942,note_off,0,0,0,,0,,,48,127
92943,note_on,1,0,0,,11,,,46,127
92943,note_on,0,0,0,,11,,,58,127
93101,note_off,158,0,0,,11,,,58,127
93101,note_off,0,0,0,,11,,,46,127
93102,note_on,1,0,0,,8,,,44,127
93102,note_on,0,0,0,,8,,,56,127
93260,note_off,158,0,0,,3,,,75,127
93260,note_off,0,0,0,,3,,,63,127
93261,note_on,1,0,0,,4,,,64,127
93261,note_on,0,0,0,,4,,,76,127
93419,note_off,158,0,0,,8,,,56,127
93419,note_off,0,0,0,,8,,,44,127
93420,note_on,1,0,0,,7,,,43,127
93420,note_on,0,0,0,,7,,,55,127
93578,note_off,158,0,0,,7,,,55,127
93578,note_off,0,0,0,,7,,,43,127
93579,note_on,1,0,0,,5,,,41,127
93579,note_on,0,0,0,,5,,,53,127
93737,note_off,158,0,0,,4,,,76,127
93737,note_off,0,0,0,,4,,,64,127
93738,note_on,1,0,0,,5,,,65,127
93738,note_on,0,0,0,,5,,,77,127
93896,note_off,158,0,0,,5,,,53,127
93896,note_off,0,0,0,,5,,,41,127
93897,note_on,1,0,0,,3,,,51,127
93897,note_on,0,0,0,,3,,,63,127
94055,note_off,158,0,0,,3,,,63,127
94055,note_off,0,0,0,,3,,,51,127
94056,note_on,1,0,0,,2,,,50,127
94056,note_on,0,0,0,,2,,,62,127
94214,note_off,158,0,0,,5,,,77,127
94214,note_off,0,0,0,,5,,,65,127
94215,note_on,1,0,0,,8,,,80,127
94215,note_on,0,0,0,,8,,,68,127
94373,note_off,158,0,0,,2,,,62,127
94373,note_off,0,0,0,,2,,,50,127
94374,note_on,1,0,0,,0,,,48,127
94374,note_on,0,0,0,,0,,,60,127
94532,note_off,158,0,0,,0,,,60,127
94532,note_off,0,0,0,,0,,,48,127
94533,note_on,1,0,0,,12,,,47,127
94533,note_on,0,0,0,,12,,,59,127
94691,note_off,158,0,0,,8,,,68,127
94691,note_off,0,0,0,,8,,,80,127
94692,note_on,1,0,0,,12,,,83,127
94692,note_on,0,0,0,,12,,,71,127
94850,note_off,158,0,0,,12,,,59,127
94850,note_off,0,0,0,,12,,,47,127
94851,note_on,1,0,0,,8,,,44,127
94851,note_on,0,0,0,,8,,,56,127
95009,note_off,158,0,0,,8,,,56,127
95009,note_off,0,0,0,,8,,,44,127
95010,note_on,1,0,0,,7,,,43,127
95010,note_on,0,0,0,,7,,,55,127
95168,note_off,158,0,0,,12,,,71,127
95168,note_off,0,0,0,,12,,,83,127
95169,note_on,1,0,0,,0,,,84,127
95169,note_on,0,0,0,,0,,,72,127
95327,note_off,158,0,0,,0,,,72,127
95327,note_off,0,0,0,,0,,,84,127
95327,note_off,0,0,0,,7,,,55,127
95327,note_off,0,0,0,,7,,,43,127
95328,note_on,1,0,0,,5,,,41,127
95328,note_on,0,0,0,,5,,,53,127
95328,note_on,0,0,0,,12,,,83,127
95328,note_on,0,0,0,,12,,,71,127
95486,note_off,158,0,0,,12,,,71,127
95486,note_off,0,0,0,,12,,,83,127
95486,note_off,0,0,0,,5,,,53,127
95486,note_off,0,0,0,,5,,,41,127
95487,note_on,1,0,0,,3,,,39,127
95487,note_on,0,0,0,,3,,,51,127
95487,note_on,0,0,0,,0,,,84,127
95487,note_on,0,0,0,,0,,,72,127
95645,note_off,158,0,0,,0,,,84,127
95646,note_on,1,0,0,,7,,,79,127
95804,note_off,158,0,0,,7,,,79,127
95804,note_off,0,0,0,,3,,,51,127
95804,note_off,0,0,0,,3,,,39,127
95805,note_on,1,0,0,,5,,,53,127
95805,note_on,0,0,0,,5,,,41,127
95805,note_on,0,0,0,,5,,,77,127
95963,note_off,158,0,0,,5,,,41,127
95963,note_off,0,0,0,,5,,,53,127
95964,note_on,1,0,0,,7,,,55,127
95964,note_on,0,0,0,,7,,,43,127
96122,note_off,158,0,0,,5,,,77,127
96122,note_off,0,0,0,,0,,,72,127
96123,note_on,1,0,0,,3,,,75,127
96123,note_on,0,0,0,,0,,,72,127
96281,note_off,158,0,0,,0,,,72,127
96281,note_off,0,0,0,,3,,,75,127
96281,note_off,0,0,0,,7,,,43,127
96281,note_off,0,0,0,,7,,,55,127
96282,note_on,1,0,0,,7,,,43,127
96282,note_on,0,0,0,,7,,,55,127
96282,note_on,0,0,0,,12,,,71,127
96282,note_on,0,0,0,,2,,,74,127
96440,note_off,158,0,0,,7,,,55,127
96440,note_off,0,0,0,,7,,,43,127
96441,note_on,1,0,0,,0,,,60,127
96441,note_on,0,0,0,,0,,,48,127
96520,note_off,79,0,0,,2,,,74,127
96520,note_off,0,0,0,,12,,,71,127
96599,note_on,79,0,0,,3,,,75,127
96599,note_on,0,0,0,,3,,,63,127
96757,note_off,158,0,0,,0,,,48,127
96757,note_off,0,0,0,,0,,,60,127
96758,note_on,1,0,0,,11,,,58,127
96758,note_on,0,0,0,,11,,,46,127
96916,note_off,158,0,0,,11,,,46,127
96916,note_off,0,0,0,,11,,,58,127
96917,note_on,1,0,0,,8,,,56,127
96917,note_on,0,0,0,,8,,,44,127
97075,note_off,158,0,0,,3,,,63,127
97075,note_off,0,0,0,,3,,,75,127
97076,note_on,1,0,0,,4,,,76,127
97076,note_on,0,0,0,,4,,,64,127
97234,note_off,158,0,0,,8,,,44,127
97234,note_off,0,0,0,,8,,,56,127
97235,note_on,1,0,0,,7,,,43,127
97235,note_on,0,0,0,,7,,,55,127
97393,note_off,158,0,0,,7,,,55,127
97393,note_off,0,0,0,,7,,,43,127
97394,note_on,1,0,0,,5,,,41,127
97394,note_on,0,0,0,,5,,,53,127
97552,note_off,158,0,0,,4,,,64,127
97552,note_off,0,0,0,,4,,,76,127
97553,note_on,1,0,0,,5,,,65,127
97553,note_on,0,0,0,,5,,,77,127
97711,note_off,158,0,0,,5,,,53,127
97711,note_off,0,0,0,,5,,,41,127
97712,note_on,1,0,0,,3,,,51,127
97712,note_on,0,0,0,,3,,,63,127
97870,note_off,158,0,0,,3,,,63,127
97870,note_off,0,0,0,,3,,,51,127
97871,note_on,1,0,0,,2,,,50,127
97871,note_on,0,0,0,,2,,,62,127
98029,note_off,158,0,0,,5,,,77,127
98029,note_off,0,0,0,,5,,,65,127
98030,note_on,1,0,0,,8,,,80,127
98030,note_on,0,0,0,,8,,,68,127
98188,note_off,158,0,0,,2,,,62,127
98188,note_off,0,0,0,,2,,,50,127
98189,note_on,1,0,0,,0,,,48,127
98189,note_on,0,0,0,,0,,,60,127
98347,note_off,158,0,0,,0,,,60,127
98347,note_off,0,0,0,,0,,,48,127
98348,note_on,1,0,0,,12,,,59,127
98348,note_on,0,0,0,,12,,,47,127
98506,note_off,158,0,0,,8,,,68,127
98506,note_off,0,0,0,,8,,,80,127
98507,note_on,1,0,0,,12,,,83,127
98507,note_on,0,0,0,,12,,,71,127
98665,note_off,158,0,0,,12,,,47,127
98665,note_off,0,0,0,,12,,,59,127
98666,note_on,1,0,0,,8,,,44,127
98666,note_on,0,0,0,,8,,,56,127
98824,note_off,158,0,0,,8,,,56,127
98824,note_off,0,0,0,,8,,,44,127
98825,note_on,1,0,0,,7,,,43,127
98825,note_on,0,0,0,,7,,,55,127
98983,note_off,158,0,0,,12,,,71,127
98983,note_off,0,0,0,,12,,,83,127
98984,note_on,1,0,0,,0,,,72,127
98984,note_on,0,0,0,,0,,,84,127
99142,note_off,158,0,0,,0,,,84,127
99142,note_off,0,0,0,,0,,,72,127
99142,note_off,0,0,0,,7,,,55,127
99142,note_off,0,0,0,,7,,,43,127
99143,note_on,1,0,0,,5,,,53,127
99143,note_on,0,0,0,,5,,,41,127
99143,note_on,0,0,0,,12,,,71,127
99143,note_on,0,0,0,,12,,,83,127
99301,note_off,158,0,0,,12,,,83,127
99301,note_off,0,0,0,,12,,,71,127
99301,note_off,0,0,0,,5,,,41,127
99301,note_off,0,0,0,,5,,,53,127
99302,note_on,1,0,0,,3,,,51,127
99302,note_on,0,0,0,,3,,,39,127
99302,note_on,0,0,0,,0,,,72,127
99302,note_on,0,0,0,,0,,,84,127
99460,note_off,158,0,0,,0,,,84,127
99461,note_on,1,0,0,,7,,,79,127
99619,note_off,158,0,0,,7,,,79,127
99619,note_off,0,0,0,,3,,,39,127
99619,note_off,0,0,0,,3,,,51,127
99620,note_on,1,0,0,,5,,,53,127
99620,note_on,0,0,0,,5,,,41,127
99620,note_on,0,0,0,,5,,,77,127
99778,note_off,158,0,0,,5,,,41,127
99778,note_off,0,0,0,,5,,,53,127
99779,note_on,1,0,0,,7,,,55,127
99779,note_on,0,0,0,,7,,,43,127
99937,note_off,158,0,0,,5,,,77,127
99937,note_off,0,0,0,,0,,,72,127
99938,note_on,1,0,0,,3,,,75,127
99938,note_on,0,0,0,,0,,,72,127
100096,note_off,158,0,0,,0,,,72,127
100096,note_off,0,0,0,,3,,,75,127
100096,note_off,0,0,0,,7,,,43,127
100096,note_off,0,0,0,,7,,,55,127
100097,note_on,1,0,0,,7,,,43,127
100097,note_on,0,0,0,,7,,,55,127
100097,note_on,0,0,0,,2,,,74,127
100097,note_on,0,0,0,,12,,,71,127
100255,note_off,158,0,0,,12,,,71,127
100255,note_off,0,0,0,,2,,,74,127
100255,note_off,0,0,0,,7,,,55,127
100255,note_off,0,0,0,,7,,,43,127
100256,note_on,1,0,0,,0,,,48,127
100256,note_on,0,0,0,,0,,,72,127
100414,note_off,158,0,0,,0,,,48,127
100415,note_on,1,0,0,,0,,,60,127
100573,note_off,158,0,0,,0,,,60,127
100574,note_on,1,0,0,,3,,,63,127
100732,note_off,158,0,0,,3,,,63,127
100733,note_on,1,0,0,,7,,,43,127
100733,note_on,0,0,0,,7,,,67,127
100891,note_off,158,0,0,,7,,,43,127
100891,note_off,0,0,0,,0,,,72,127
100892,note_on,1,0,0,,7,,,55,127
100892,note_on,0,0,0,,2,,,74,127
101050,note_off,158,0,0,,2,,,74,127
101050,note_off,0,0,0,,7,,,55,127
101051,note_on,1,0,0,,12,,,59,127
101051,note_on,0,0,0,,5,,,77,127
101209,note_off,158,0,0,,5,,,77,127
101209,note_off,0,0,0,,12,,,59,127
101209,note_off,0,0,0,,7,,,67,127
101210,note_on,1,0,0,,0,,,48,127
101210,note_on,0,0,0,,5,,,77,127
101210,note_on,0,0,0,,3,,,75,127
101368,note_off,158,0,0,,3,,,75,127
101368,note_off,0,0,0,,5,,,77,127
101368,note_off,0,0,0,,0,,,48,127
101369,note_on,1,0,0,,0,,,60,127
101369,note_on,0,0,0,,2,,,74,127
101527,note_off,158,0,0,,2,,,74,127
101527,note_off,0,0,0,,0,,,60,127
101528,note_on,1,0,0,,3,,,63,127
101528,note_on,0,0,0,,0,,,72,127
101686,note_off,158,0,0,,3,,,63,127
101687,note_on,1,0,0,,7,,,43,127
101687,note_on,0,0,0,,7,,,67,127
101845,note_off,158,0,0,,7,,,43,127
101845,note_off,0,0,0,,0,,,72,127
101846,note_on,1,0,0,,7,,,55,127
101846,note_on,0,0,0,,2,,,74,127
102004,note_off,158,0,0,,2,,,74,127
102004,note_off,0,0,0,,7,,,55,127
102005,note_on,1,0,0,,12,,,59,127
102005,note_on,0,0,0,,5,,,77,127
102163,note_off,158,0,0,,5,,,77,127
102163,note_off,0,0,0,,12,,,59,127
102163,note_off,0,0,0,,7,,,67,127
102164,note_on,1,0,0,,0,,,48,127
102164,note_on,0,0,0,,5,,,77,127
102164,note_on,0,0,0,,3,,,75,127
102322,note_off,158,0,0,,3,,,75,127
102322,note_off,0,0,0,,5,,,77,127
102322,note_off,0,0,0,,0,,,48,127
102323,note_on,1,0,0,,0,,,60,127
102323,note_on,0,0,0,,2,,,74,127
102481,note_off,158,0,0,,2,,,74,127
102481,note_off,0,0,0,,0,,,60,127
102482,note_on,1,0,0,,3,,,63,127
102482,note_on,0,0,0,,0,,,72,127
102640,note_off,158,0,0,,3,,,63,127
102641,note_on,1,0,0,,7,,,43,127
102641,note_on,0,0,0,,7,,,67,127
102799,note_off,158,0,0,,7,,,43,127
102799,note_off,0,0,0,,0,,,72,127
102800,note_on,1,0,0,,7,,,55,127
102800,note_on,0,0,0,,2,,,74,127
102958,note_off,158,0,0,,2,,,74,127
102958,note_off,0,0,0,,7,,,55,127
102959,note_on,1,0,0,,12,,,59,127
102959,note_on,0,0,0,,5,,,77,127
103117,note_off,158,0,0,,5,,,77,127
103117,note_off,0,0,0,,12,,,59,127
103117,note_off,0,0,0,,7,,,67,127
103118,note_on,1,0,0,,0,,,48,127
103118,note_on,0,0,0,,3,,,75,127
103118,note_on,0,0,0,,0,,,72,127
103276,note_off,158,0,0,,0,,,72,127
103276,note_off,0,0,0,,3,,,75,127
103277,note_on,1,0,0,,12,,,71,127
103277,note_on,0,0,0,,2,,,74,127
103435,note_off,158,0,0,,2,,,74,127
103435,note_off,0,0,0,,12,,,71,127
103435,note_off,0,0,0,,0,,,48,127
103436,note_on,1,0,0,,8,,,56,127
103436,note_on,0,0,0,,0,,,72,127
103436,note_on,0,0,0,,3,,,75,127
103594,note_off,158,0,0,,3,,,75,127
103594,note_off,0,0,0,,0,,,72,127
103594,note_off,0,0,0,,8,,,56,127
103595,note_on,1,0,0,,5,,,53,127
103595,note_on,0,0,0,,5,,,77,127
103595,note_on,0,0,0,,2,,,74,127
103753,note_off,158,0,0,,2,,,74,127
103753,note_off,0,0,0,,5,,,77,127
103754,note_on,1,0,0,,3,,,75,127
103754,note_on,0,0,0,,0,,,72,127
103912,note_off,158,0,0,,0,,,72,127
103912,note_off,0,0,0,,3,,,75,127
103912,note_off,0,0,0,,5,,,53,127
103913,note_on,1,0,0,,7,,,55,127
103913,note_on,0,0,0,,12,,,71,127
103913,note_on,0,0,0,,2,,,74,127
104071,note_off,158,0,0,,2,,,74,127
104071,note_off,0,0,0,,12,,,71,127
104071,note_off,0,0,0,,7,,,55,127
104072,note_on,1,0,0,,0,,,36,127
104072,note_on,0,0,0,,0,,,72,127
104230,note_off,158,0,0,,0,,,36,127
104231,note_on,1,0,0,,0,,,48,127
104389,note_off,158,0,0,,0,,,48,127
104390,note_on,1,0,0,,3,,,51,127
104548,note_off,158,0,0,,3,,,51,127
104549,note_on,1,0,0,,7,,,43,127
104707,note_off,158,0,0,,7,,,43,127
104707,note_off,0,0,0,,0,,,72,127
104708,note_on,1,0,0,,7,,,55,127
104708,note_on,0,0,0,,2,,,74,127
104866,note_off,158,0,0,,2,,,74,127
104866,note_off,0,0,0,,7,,,55,127
104867,note_on,1,0,0,,12,,,59,127
104867,note_on,0,0,0,,5,,,65,127
105025,note_off,158,0,0,,5,,,65,127
105025,note_off,0,0,0,,12,,,59,127
105026,note_on,1,0,0,,0,,,36,127
105026,note_on,0,0,0,,5,,,65,127
105026,note_on,0,0,0,,3,,,63,127
105184,note_off,158,0,0,,3,,,63,127
105184,note_off,0,0,0,,5,,,65,127
105184,note_off,0,0,0,,0,,,36,127
105185,note_on,1,0,0,,0,,,48,127
105185,note_on,0,0,0,,2,,,62,127
105343,note_off,158,0,0,,2,,,62,127
105343,note_off,0,0,0,,0,,,48,127
105344,note_on,1,0,0,,3,,,51,127
105344,note_on,0,0,0,,3,,,63,127
105344,note_on,0,0,0,,0,,,72,127
105502,note_off,158,0,0,,3,,,51,127
105503,note_on,1,0,0,,7,,,43,127
105661,note_off,158,0,0,,7,,,43,127
105661,note_off,0,0,0,,0,,,72,127
105661,note_off,0,0,0,,3,,,63,127
105662,note_on,1,0,0,,7,,,55,127
105662,note_on,0,0,0,,2,,,74,127
105820,note_off,158,0,0,,2,,,74,127
105820,note_off,0,0,0,,7,,,55,127
105821,note_on,1,0,0,,12,,,59,127
105821,note_on,0,0,0,,5,,,65,127
105979,note_off,158,0,0,,5,,,65,127
105979,note_off,0,0,0,,12,,,59,127
105980,note_on,1,0,0,,0,,,36,127
105980,note_on,0,0,0,,5,,,65,127
105980,note_on,0,0,0,,3,,,63,127
106138,note_off,158,0,0,,3,,,63,127
106138,note_off,0,0,0,,5,,,65,127
106138,note_off,0,0,0,,0,,,36,127
106139,note_on,1,0,0,,0,,,48,127
106139,note_on,0,0,0,,2,,,62,127
106297,note_off,158,0,0,,2,,,62,127
106297,note_off,0,0,0,,0,,,48,127
106298,note_on,1,0,0,,3,,,51,127
106298,note_on,0,0,0,,3,,,63,127
106298,note_on,0,0,0,,0,,,72,127
106456,note_off,158,0,0,,3,,,51,127
106457,note_on,1,0,0,,7,,,43,127
106615,note_off,158,0,0,,7,,,43,127
106615,note_off,0,0,0,,0,,,72,127
106615,note_off,0,0,0,,3,,,63,127
106616,note_on,1,0,0,,7,,,55,127
106616,note_on,0,0,0,,2,,,74,127
106774,note_off,158,0,0,,2,,,74,127
106774,note_off,0,0,0,,7,,,55,127
106775,note_on,1,0,0,,12,,,59,127
106775,note_on,0,0,0,,5,,,65,127
106933,note_off,158,0,0,,5,,,65,127
106933,note_off,0,0,0,,12,,,59,127
106934,note_on,1,0,0,,0,,,60,127
106934,note_on,0,0,0,,5,,,65,127
106934,note_on,0,0,0,,3,,,63,127
107092,note_off,158,0,0,,3,,,63,127
107092,note_off,0,0,0,,5,,,65,127
107093,note_on,1,0,0,,2,,,62,127
107251,note_off,158,0,0,,2,,,62,127
107251,note_off,0,0,0,,0,,,60,127
107252,note_on,1,0,0,,8,,,56,127
107252,note_on,0,0,0,,3,,,63,127
107252,note_on,0,0,0,,0,,,60,127
107410,note_off,158,0,0,,0,,,60,127
107410,note_off,0,0,0,,3,,,63,127
107410,note_off,0,0,0,,8,,,56,127
107411,note_on,1,0,0,,5,,,53,127
107411,note_on,0,0,0,,5,,,65,127
107411,note_on,0,0,0,,2,,,62,127
107569,note_off,158,0,0,,2,,,62,127
107569,note_off,0,0,0,,5,,,65,127
107570,note_on,1,0,0,,0,,,60,127
107570,note_on,0,0,0,,3,,,63,127
107728,note_off,158,0,0,,3,,,63,127
107728,note_off,0,0,0,,0,,,60,127
107728,note_off,0,0,0,,5,,,53,127
107729,note_on,1,0,0,,7,,,55,127
107729,note_on,0,0,0,,2,,,62,127
107729,note_on,0,0,0,,12,,,59,127
107887,note_off,158,0,0,,12,,,59,127
107887,note_off,0,0,0,,2,,,62,127
107887,note_off,0,0,0,,7,,,55,127
107888,note_on,1,0,0,,0,,,36,127
107888,note_on,0,0,0,,0,,,60,127
108046,note_off,158,0,0,,0,,,60,127
108047,note_on,1,0,0,,3,,,63,127
108205,note_off,158,0,0,,3,,,63,127
108206,note_on,1,0,0,,7,,,67,127
108364,note_off,158,0,0,,7,,,67,127
108365,note_on,1,0,0,,0,,,72,127
108523,note_off,158,0,0,,0,,,72,127
108524,note_on,1,0,0,,3,,,75,127
108682,note_off,158,0,0,,3,,,75,127
108683,note_on,1,0,0,,0,,,84,127
108841,note_off,158,0,0,,0,,,84,127
108841,note_off,0,0,0,,0,,,36,127
108961,note_on,120,0,0,,0,,,36,127
111940,note_off,2979,0,0,,0,,,36,127
115200,end_of_track,3260,1,0,,,,,,
