tick,type,time,meta,track,program,channel,pitch,tempo,note,velocity
0,copyright,0,1,0,,,,,,
0,program_change,0,0,0,6,0,,,,
0,pitchwheel,0,0,0,,0,0,,,
0,program_change,0,0,0,6,1,,,,
0,pitchwheel,0,0,0,,1,-590,,,
0,program_change,0,0,0,6,2,,,,
0,pitchwheel,0,0,0,,2,-272,,,
0,program_change,0,0,0,6,3,,,,
0,pitchwheel,0,0,0,,3,-353,,,
0,program_change,0,0,0,6,4,,,,
0,pitchwheel,0,0,0,,4,-560,,,
0,program_change,0,0,0,6,5,,,,
0,pitchwheel,0,0,0,,5,-80,,,
0,program_change,0,0,0,6,6,,,,
0,pitchwheel,0,0,0,,6,-625,,,
0,program_change,0,0,0,6,7,,,,
0,pitchwheel,0,0,0,,7,-130,,,
0,program_change,0,0,0,6,8,,,,
0,pitchwheel,0,0,0,,8,-512,,,
0,program_change,0,0,0,6,10,,,,
0,pitchwheel,0,0,0,,10,-464,,,
0,program_change,0,0,0,6,11,,,,
0,pitchwheel,0,0,0,,11,-208,,,
0,program_change,0,0,0,6,12,,,,
0,pitchwheel,0,0,0,,12,-553,,,
0,set_tempo,0,1,0,,,,500000,,
110,note_on,110,0,0,,5,,,65,127
329,note_off,219,0,0,,5,,,65,127
329,note_on,0,0,0,,2,,,62,127
329,note_on,0,0,0,,11,,,70,127
548,note_off,219,0,0,,2,,,62,127
548,note_on,0,0,0,,11,,,58,127
767,note_off,219,0,0,,11,,,70,127
767,note_on,0,0,0,,11,,,70,127
986,note_off,219,0,0,,11,,,70,127
986,note_off,0,0,0,,11,,,58,127
986,note_on,0,0,0,,11,,,58,127
986,note_on,0,0,0,,2,,,74,127
1205,note_off,219,0,0,,11,,,58,127
1205,note_on,0,0,0,,5,,,53,127
1424,note_off,219,0,0,,2,,,74,127
1424,note_on,0,0,0,,2,,,74,127
1643,note_off,219,0,0,,2,,,74,127
1643,note_off,0,0,0,,5,,,53,127
1643,note_on,0,0,0,,5,,,53,127
1643,note_on,0,0,0,,5,,,77,127
1862,note_off,219,0,0,,5,,,53,127
1862,note_on,0,0,0,,2,,,50,127
2081,note_off,219,0,0,,2,,,50,127
2081,note_off,0,0,0,,5,,,77,127
2081,note_on,0,0,0,,5,,,77,127
2081,note_on,0,0,0,,11,,,46,127
2300,note_off,219,0,0,,11,,,46,127
2300,note_off,0,0,0,,5,,,77,127
2300,note_on,0,0,0,,5,,,41,127
2300,note_on,0,0,0,,11,,,82,127
2519,note_off,219,0,0,,5,,,41,127
2519,note_on,0,0,0,,2,,,38,127
2738,note_off,219,0,0,,2,,,38,127
2738,note_on,0,0,0,,11,,,34,127
2957,note_off,219,0,0,,11,,,82,127
2957,note_on,0,0,0,,11,,,82,127
3067,note_off,110,0,0,,11,,,82,127
3067,note_on,0,0,0,,5,,,77,127
3177,note_off,110,0,0,,5,,,77,127
3177,note_on,0,0,0,,2,,,74,127
3287,note_off,110,0,0,,2,,,74,127
3287,note_on,0,0,0,,11,,,70,127
3397,note_off,110,0,0,,11,,,70,127
3397,note_off,0,0,0,,11,,,34,127
3397,note_on,0,0,0,,11,,,34,127
3397,note_on,0,0,0,,5,,,65,127
3507,note_off,110,0,0,,5,,,65,127
3507,note_on,0,0,0,,2,,,62,127
3617,note_off,110,0,0,,2,,,62,127
3617,note_on,0,0,0,,11,,,58,127
3727,note_off,110,0,0,,11,,,58,127
3727,note_on,0,0,0,,5,,,53,127
3837,note_off,110,0,0,,5,,,53,127
3837,note_on,0,0,0,,2,,,50,127
3947,note_off,110,0,0,,2,,,50,127
3947,note_on,0,0,0,,11,,,46,127
4057,note_off,110,0,0,,11,,,46,127
4057,note_off,0,0,0,,11,,,34,127
4057,note_on,0,0,0,,3,,,39,127
4276,note_on,219,0,0,,7,,,79,127
4495,note_off,219,0,0,,7,,,79,127
4495,note_on,0,0,0,,5,,,77,127
4714,note_off,219,0,0,,3,,,39,127
4714,note_on,0,0,0,,5,,,41,127
4933,note_off,219,0,0,,5,,,77,127
4933,note_on,0,0,0,,5,,,77,127
5006,note_on,73,0,0,,3,,,75,127
5015,note_off,9,0,0,,5,,,77,127
5079,note_on,64,0,0,,5,,,77,127
5088,note_off,9,0,0,,3,,,75,127
5152,note_on,64,0,0,,3,,,75,127
5161,note_off,9,0,0,,5,,,77,127
5225,note_on,64,0,0,,2,,,74,127
5234,note_off,9,0,0,,3,,,75,127
5298,note_on,64,0,0,,3,,,75,127
5307,note_off,9,0,0,,2,,,74,127
5371,note_off,64,0,0,,5,,,41,127
5371,note_on,0,0,0,,11,,,34,127
5371,note_on,0,0,0,,2,,,74,127
5380,note_off,9,0,0,,3,,,75,127
5590,note_off,210,0,0,,2,,,74,127
5590,note_on,0,0,0,,11,,,82,127
5700,note_off,110,0,0,,11,,,82,127
5700,note_on,0,0,0,,5,,,77,127
5810,note_off,110,0,0,,5,,,77,127
5810,note_on,0,0,0,,2,,,74,127
5920,note_off,110,0,0,,2,,,74,127
5920,note_on,0,0,0,,11,,,70,127
6030,note_off,110,0,0,,11,,,70,127
6030,note_off,0,0,0,,11,,,34,127
6030,note_on,0,0,0,,11,,,34,127
6030,note_on,0,0,0,,5,,,65,127
6140,note_off,110,0,0,,5,,,65,127
6140,note_on,0,0,0,,2,,,62,127
6250,note_off,110,0,0,,2,,,62,127
6250,note_on,0,0,0,,11,,,58,127
6360,note_off,110,0,0,,11,,,58,127
6360,note_on,0,0,0,,5,,,53,127
6470,note_off,110,0,0,,5,,,53,127
6470,note_on,0,0,0,,2,,,50,127
6580,note_off,110,0,0,,2,,,50,127
6580,note_on,0,0,0,,11,,,46,127
6690,note_off,110,0,0,,11,,,34,127
6690,note_on,0,0,0,,3,,,39,127
6745,note_off,55,0,0,,11,,,46,127
6910,note_on,165,0,0,,7,,,67,127
7129,note_off,219,0,0,,7,,,67,127
7129,note_on,0,0,0,,5,,,65,127
7348,note_off,219,0,0,,3,,,39,127
7348,note_on,0,0,0,,5,,,41,127
7567,note_off,219,0,0,,5,,,65,127
7567,note_on,0,0,0,,5,,,65,127
7640,note_on,73,0,0,,3,,,63,127
7649,note_off,9,0,0,,5,,,65,127
7713,note_on,64,0,0,,5,,,65,127
7722,note_off,9,0,0,,3,,,63,127
7786,note_on,64,0,0,,3,,,63,127
7795,note_off,9,0,0,,5,,,65,127
7859,note_on,64,0,0,,2,,,62,127
7868,note_off,9,0,0,,3,,,63,127
7932,note_on,64,0,0,,3,,,63,127
7941,note_off,9,0,0,,2,,,62,127
8004,note_off,63,0,0,,3,,,63,127
8005,note_off,1,0,0,,5,,,41,127
8005,note_on,0,0,0,,11,,,46,127
8005,note_on,0,0,0,,3,,,63,127
8224,note_off,219,0,0,,3,,,63,127
8224,note_on,0,0,0,,2,,,62,127
8443,note_on,219,0,0,,11,,,58,127
8661,note_off,218,0,0,,11,,,46,127
8662,note_off,1,0,0,,11,,,58,127
8662,note_off,0,0,0,,2,,,62,127
8662,note_on,0,0,0,,11,,,46,127
8662,note_on,0,0,0,,5,,,65,127
8881,note_off,219,0,0,,5,,,65,127
8881,note_on,0,0,0,,7,,,67,127
8991,note_off,110,0,0,,7,,,67,127
8991,note_on,0,0,0,,10,,,69,127
9101,note_off,110,0,0,,10,,,69,127
9101,note_on,0,0,0,,11,,,70,127
9211,note_on,110,0,0,,2,,,62,127
9321,note_off,110,0,0,,2,,,62,127
9321,note_off,0,0,0,,11,,,46,127
9321,note_on,0,0,0,,5,,,53,127
9321,note_on,0,0,0,,0,,,60,127
9540,note_off,219,0,0,,11,,,70,127
9540,note_on,0,0,0,,10,,,69,127
9650,note_off,110,0,0,,10,,,69,127
9650,note_on,0,0,0,,11,,,70,127
9760,note_off,110,0,0,,11,,,70,127
9760,note_on,0,0,0,,0,,,72,127
9870,note_off,110,0,0,,0,,,60,127
9870,note_on,0,0,0,,3,,,63,127
9980,note_off,110,0,0,,3,,,63,127
9980,note_off,0,0,0,,5,,,53,127
9980,note_on,0,0,0,,11,,,46,127
9980,note_on,0,0,0,,2,,,62,127
10199,note_off,219,0,0,,0,,,72,127
10199,note_on,0,0,0,,11,,,70,127
10309,note_off,110,0,0,,11,,,70,127
10309,note_on,0,0,0,,0,,,72,127
10419,note_off,110,0,0,,0,,,72,127
10419,note_on,0,0,0,,2,,,74,127
10529,note_off,110,0,0,,2,,,62,127
10529,note_on,0,0,0,,5,,,65,127
10639,note_off,110,0,0,,5,,,65,127
10639,note_off,0,0,0,,11,,,46,127
10639,note_on,0,0,0,,0,,,48,127
10639,note_on,0,0,0,,3,,,63,127
10858,note_off,219,0,0,,2,,,74,127
10858,note_on,0,0,0,,0,,,72,127
10968,note_off,110,0,0,,0,,,72,127
10968,note_on,0,0,0,,2,,,74,127
11078,note_off,110,0,0,,2,,,74,127
11078,note_on,0,0,0,,3,,,75,127
11188,note_off,110,0,0,,3,,,63,127
11188,note_on,0,0,0,,10,,,69,127
11298,note_off,110,0,0,,10,,,69,127
11298,note_off,0,0,0,,0,,,48,127
11298,note_on,0,0,0,,2,,,50,127
11298,note_on,0,0,0,,11,,,70,127
11517,note_off,219,0,0,,3,,,75,127
11517,note_on,0,0,0,,2,,,74,127
11627,note_off,110,0,0,,2,,,74,127
11627,note_on,0,0,0,,3,,,75,127
11737,note_off,110,0,0,,3,,,75,127
11737,note_on,0,0,0,,5,,,77,127
11847,note_off,110,0,0,,11,,,70,127
11847,note_on,0,0,0,,10,,,69,127
11957,note_off,110,0,0,,10,,,69,127
11957,note_off,0,0,0,,2,,,50,127
11957,note_on,0,0,0,,4,,,52,127
11957,note_on,0,0,0,,7,,,67,127
12176,note_off,219,0,0,,5,,,77,127
12176,note_on,0,0,0,,4,,,76,127
12286,note_off,110,0,0,,4,,,76,127
12286,note_on,0,0,0,,5,,,77,127
12396,note_off,110,0,0,,5,,,77,127
12396,note_on,0,0,0,,7,,,79,127
12506,note_off,110,0,0,,7,,,67,127
12506,note_on,0,0,0,,11,,,70,127
12616,note_off,110,0,0,,11,,,70,127
12616,note_off,0,0,0,,4,,,52,127
12616,note_on,0,0,0,,5,,,53,127
12616,note_on,0,0,0,,10,,,69,127
12835,note_off,219,0,0,,7,,,79,127
12835,note_on,0,0,0,,5,,,77,127
12945,note_off,110,0,0,,5,,,77,127
12945,note_on,0,0,0,,7,,,79,127
13055,note_off,110,0,0,,7,,,79,127
13055,note_on,0,0,0,,10,,,81,127
13165,note_off,110,0,0,,10,,,69,127
13165,note_on,0,0,0,,0,,,72,127
13275,note_off,110,0,0,,0,,,72,127
13275,note_off,0,0,0,,5,,,53,127
13275,note_on,0,0,0,,11,,,58,127
13275,note_on,0,0,0,,2,,,74,127
13385,note_off,110,0,0,,10,,,81,127
13385,note_on,0,0,0,,7,,,79,127
13495,note_off,110,0,0,,7,,,79,127
13495,note_on,0,0,0,,11,,,82,127
13605,note_off,110,0,0,,11,,,82,127
13605,note_on,0,0,0,,10,,,81,127
13710,note_off,105,0,0,,2,,,74,127
13715,note_off,5,0,0,,10,,,81,127
13715,note_on,0,0,0,,7,,,79,127
13825,note_off,110,0,0,,7,,,79,127
13825,note_on,0,0,0,,5,,,77,127
13935,note_off,110,0,0,,5,,,77,127
13935,note_off,0,0,0,,11,,,58,127
13935,note_on,0,0,0,,0,,,60,127
13935,note_on,0,0,0,,5,,,77,127
14045,note_on,110,0,0,,4,,,76,127
14055,note_off,10,0,0,,5,,,77,127
14081,note_on,26,0,0,,5,,,77,127
14131,note_off,50,0,0,,4,,,76,127
14154,note_on,23,0,0,,4,,,76,127
14163,note_off,9,0,0,,5,,,77,127
14264,note_off,101,0,0,,4,,,76,127
14264,note_on,0,0,0,,2,,,74,127
14374,note_off,110,0,0,,2,,,74,127
14374,note_on,0,0,0,,0,,,72,127
14593,note_off,219,0,0,,0,,,72,127
14593,note_off,0,0,0,,0,,,60,127
14593,note_on,0,0,0,,0,,,60,127
14593,note_on,0,0,0,,0,,,84,127
14703,note_off,110,0,0,,0,,,60,127
14703,note_on,0,0,0,,4,,,64,127
14813,note_off,110,0,0,,4,,,64,127
14813,note_on,0,0,0,,2,,,62,127
14923,note_off,110,0,0,,2,,,62,127
14923,note_on,0,0,0,,5,,,65,127
15033,note_off,110,0,0,,5,,,65,127
15033,note_on,0,0,0,,4,,,64,127
15143,note_off,110,0,0,,4,,,64,127
15143,note_on,0,0,0,,7,,,67,127
15253,note_off,110,0,0,,7,,,67,127
15253,note_on,0,0,0,,5,,,65,127
15253,note_on,0,0,0,,10,,,69,127
15363,note_off,110,0,0,,0,,,84,127
15363,note_on,0,0,0,,0,,,60,127
15473,note_off,110,0,0,,0,,,60,127
15473,note_on,0,0,0,,10,,,57,127
15583,note_off,110,0,0,,10,,,57,127
15583,note_on,0,0,0,,5,,,53,127
15693,note_off,110,0,0,,5,,,53,127
15693,note_on,0,0,0,,5,,,41,127
15912,note_off,219,0,0,,5,,,41,127
15912,note_off,0,0,0,,10,,,69,127
15912,note_off,0,0,0,,5,,,65,127
15912,note_on,0,0,0,,5,,,65,127
15912,note_on,0,0,0,,0,,,84,127
16022,note_off,110,0,0,,5,,,65,127
16022,note_on,0,0,0,,10,,,69,127
16132,note_off,110,0,0,,10,,,69,127
16132,note_on,0,0,0,,4,,,64,127
16242,note_off,110,0,0,,4,,,64,127
16242,note_on,0,0,0,,7,,,67,127
16352,note_off,110,0,0,,7,,,67,127
16352,note_on,0,0,0,,2,,,62,127
16462,note_off,110,0,0,,2,,,62,127
16462,note_on,0,0,0,,5,,,65,127
16572,note_off,110,0,0,,5,,,65,127
16572,note_on,0,0,0,,4,,,64,127
16572,note_on,0,0,0,,0,,,60,127
16682,note_off,110,0,0,,0,,,84,127
16682,note_on,0,0,0,,7,,,55,127
16792,note_off,110,0,0,,7,,,55,127
16792,note_on,0,0,0,,4,,,52,127
16902,note_off,110,0,0,,4,,,52,127
16902,note_on,0,0,0,,0,,,48,127
17012,note_off,110,0,0,,0,,,48,127
17012,note_on,0,0,0,,0,,,36,127
17231,note_off,219,0,0,,0,,,36,127
17231,note_off,0,0,0,,0,,,60,127
17231,note_off,0,0,0,,4,,,64,127
17231,note_on,0,0,0,,0,,,60,127
17231,note_on,0,0,0,,0,,,84,127
17341,note_off,110,0,0,,0,,,60,127
17341,note_on,0,0,0,,4,,,64,127
17451,note_off,110,0,0,,4,,,64,127
17451,note_on,0,0,0,,2,,,62,127
17561,note_off,110,0,0,,2,,,62,127
17561,note_on,0,0,0,,5,,,65,127
17671,note_off,110,0,0,,5,,,65,127
17671,note_on,0,0,0,,4,,,64,127
17781,note_off,110,0,0,,4,,,64,127
17781,note_on,0,0,0,,7,,,67,127
17891,note_off,110,0,0,,7,,,67,127
17891,note_on,0,0,0,,10,,,69,127
17891,note_on,0,0,0,,5,,,65,127
18001,note_off,110,0,0,,0,,,84,127
18001,note_on,0,0,0,,0,,,60,127
18111,note_off,110,0,0,,0,,,60,127
18111,note_on,0,0,0,,10,,,57,127
18221,note_off,110,0,0,,10,,,57,127
18221,note_on,0,0,0,,5,,,53,127
18331,note_off,110,0,0,,5,,,53,127
18331,note_on,0,0,0,,5,,,41,127
18550,note_off,219,0,0,,5,,,41,127
18550,note_off,0,0,0,,5,,,65,127
18550,note_off,0,0,0,,10,,,69,127
18550,note_on,0,0,0,,5,,,65,127
18550,note_on,0,0,0,,5,,,77,127
18660,note_off,110,0,0,,5,,,65,127
18660,note_on,0,0,0,,10,,,69,127
18770,note_off,110,0,0,,10,,,69,127
18770,note_on,0,0,0,,7,,,67,127
18880,note_off,110,0,0,,7,,,67,127
18880,note_on,0,0,0,,11,,,70,127
18990,note_off,110,0,0,,11,,,70,127
18990,note_on,0,0,0,,10,,,69,127
19100,note_off,110,0,0,,10,,,69,127
19100,note_on,0,0,0,,0,,,72,127
19210,note_off,110,0,0,,0,,,72,127
19210,note_on,0,0,0,,11,,,70,127
19210,note_on,0,0,0,,2,,,74,127
19320,note_off,110,0,0,,5,,,77,127
19320,note_on,0,0,0,,5,,,65,127
19430,note_off,110,0,0,,5,,,65,127
19430,note_on,0,0,0,,2,,,62,127
19540,note_off,110,0,0,,2,,,62,127
19540,note_on,0,0,0,,11,,,58,127
19650,note_off,110,0,0,,11,,,58,127
19650,note_on,0,0,0,,11,,,46,127
19869,note_off,219,0,0,,11,,,46,127
19869,note_off,0,0,0,,2,,,74,127
19869,note_off,0,0,0,,11,,,70,127
19869,note_on,0,0,0,,11,,,70,127
19869,note_on,0,0,0,,5,,,77,127
19979,note_off,110,0,0,,11,,,70,127
19979,note_on,0,0,0,,2,,,74,127
20089,note_off,110,0,0,,2,,,74,127
20089,note_on,0,0,0,,10,,,69,127
20199,note_off,110,0,0,,10,,,69,127
20199,note_on,0,0,0,,0,,,72,127
20309,note_off,110,0,0,,0,,,72,127
20309,note_on,0,0,0,,7,,,67,127
20419,note_off,110,0,0,,7,,,67,127
20419,note_on,0,0,0,,11,,,70,127
20529,note_off,110,0,0,,11,,,70,127
20529,note_on,0,0,0,,0,,,72,127
20529,note_on,0,0,0,,10,,,69,127
20639,note_off,110,0,0,,5,,,77,127
20639,note_on,0,0,0,,0,,,60,127
20749,note_off,110,0,0,,0,,,60,127
20749,note_on,0,0,0,,10,,,57,127
20859,note_off,110,0,0,,10,,,57,127
20859,note_on,0,0,0,,5,,,53,127
20969,note_off,110,0,0,,5,,,53,127
20969,note_on,0,0,0,,5,,,41,127
21188,note_off,219,0,0,,5,,,41,127
21188,note_off,0,0,0,,10,,,69,127
21188,note_off,0,0,0,,0,,,72,127
21188,note_on,0,0,0,,10,,,69,127
21188,note_on,0,0,0,,5,,,77,127
21298,note_off,110,0,0,,10,,,69,127
21298,note_on,0,0,0,,0,,,72,127
21408,note_off,110,0,0,,0,,,72,127
21408,note_on,0,0,0,,7,,,67,127
21518,note_off,110,0,0,,7,,,67,127
21518,note_on,0,0,0,,11,,,70,127
21628,note_off,110,0,0,,11,,,70,127
21628,note_on,0,0,0,,5,,,65,127
21738,note_off,110,0,0,,5,,,65,127
21738,note_on,0,0,0,,10,,,69,127
21848,note_off,110,0,0,,10,,,69,127
21848,note_on,0,0,0,,11,,,70,127
21848,note_on,0,0,0,,7,,,67,127
21958,note_off,110,0,0,,5,,,77,127
21958,note_on,0,0,0,,11,,,58,127
22068,note_off,110,0,0,,11,,,58,127
22068,note_on,0,0,0,,7,,,55,127
22178,note_off,110,0,0,,7,,,55,127
22178,note_on,0,0,0,,4,,,52,127
22288,note_off,110,0,0,,4,,,52,127
22288,note_on,0,0,0,,7,,,43,127
22507,note_off,219,0,0,,7,,,43,127
22507,note_off,0,0,0,,7,,,67,127
22507,note_off,0,0,0,,11,,,70,127
22507,note_on,0,0,0,,7,,,67,127
22507,note_on,0,0,0,,5,,,77,127
22617,note_off,110,0,0,,7,,,67,127
22617,note_on,0,0,0,,11,,,70,127
22727,note_off,110,0,0,,11,,,70,127
22727,note_on,0,0,0,,5,,,65,127
22837,note_off,110,0,0,,5,,,65,127
22837,note_on,0,0,0,,10,,,69,127
22947,note_off,110,0,0,,10,,,69,127
22947,note_on,0,0,0,,4,,,64,127
23057,note_off,110,0,0,,4,,,64,127
23057,note_on,0,0,0,,7,,,67,127
23167,note_off,110,0,0,,7,,,67,127
23167,note_on,0,0,0,,5,,,65,127
23167,note_on,0,0,0,,10,,,69,127
23277,note_off,110,0,0,,5,,,77,127
23277,note_on,0,0,0,,0,,,60,127
23387,note_off,110,0,0,,0,,,60,127
23387,note_on,0,0,0,,10,,,57,127
23497,note_off,110,0,0,,10,,,57,127
23497,note_on,0,0,0,,5,,,53,127
23607,note_off,110,0,0,,5,,,53,127
23607,note_on,0,0,0,,5,,,41,127
23826,note_off,219,0,0,,10,,,69,127
23826,note_off,0,0,0,,5,,,65,127
23826,note_on,0,0,0,,5,,,65,127
23826,note_on,0,0,0,,10,,,69,127
23936,note_off,110,0,0,,5,,,41,127
23936,note_on,0,0,0,,1,,,73,127
24046,note_off,110,0,0,,1,,,73,127
24046,note_off,0,0,0,,10,,,69,127
24046,note_off,0,0,0,,5,,,65,127
24046,note_on,0,0,0,,5,,,65,127
24046,note_on,0,0,0,,10,,,69,127
24046,note_on,0,0,0,,2,,,74,127
24265,note_off,219,0,0,,10,,,69,127
24265,note_off,0,0,0,,5,,,65,127
24265,note_on,0,0,0,,7,,,67,127
24265,note_on,0,0,0,,11,,,70,127
24375,note_off,110,0,0,,2,,,74,127
24375,note_on,0,0,0,,1,,,73,127
24485,note_off,110,0,0,,1,,,73,127
24485,note_off,0,0,0,,11,,,70,127
24485,note_off,0,0,0,,7,,,67,127
24485,note_on,0,0,0,,5,,,65,127
24485,note_on,0,0,0,,10,,,69,127
24485,note_on,0,0,0,,2,,,74,127
24595,note_off,110,0,0,,2,,,74,127
24595,note_on,0,0,0,,1,,,73,127
24705,note_off,110,0,0,,1,,,73,127
24705,note_off,0,0,0,,10,,,69,127
24705,note_off,0,0,0,,5,,,65,127
24705,note_on,0,0,0,,5,,,65,127
24705,note_on,0,0,0,,10,,,69,127
24705,note_on,0,0,0,,2,,,74,127
24924,note_off,219,0,0,,10,,,69,127
24924,note_off,0,0,0,,5,,,65,127
24924,note_on,0,0,0,,7,,,67,127
24924,note_on,0,0,0,,11,,,70,127
25143,note_off,219,0,0,,11,,,70,127
25143,note_off,0,0,0,,7,,,67,127
25143,note_on,0,0,0,,5,,,65,127
25143,note_on,0,0,0,,10,,,69,127
25253,note_off,110,0,0,,2,,,74,127
25253,note_on,0,0,0,,1,,,73,127
25363,note_off,110,0,0,,1,,,73,127
25363,note_off,0,0,0,,10,,,69,127
25363,note_off,0,0,0,,5,,,65,127
25363,note_on,0,0,0,,5,,,65,127
25363,note_on,0,0,0,,10,,,69,127
25363,note_on,0,0,0,,2,,,74,127
25473,note_off,110,0,0,,2,,,74,127
25473,note_on,0,0,0,,1,,,73,127
25583,note_off,110,0,0,,1,,,73,127
25583,note_off,0,0,0,,10,,,69,127
25583,note_off,0,0,0,,5,,,65,127
25583,note_on,0,0,0,,7,,,67,127
25583,note_on,0,0,0,,11,,,70,127
25583,note_on,0,0,0,,2,,,74,127
25693,note_off,110,0,0,,2,,,74,127
25693,note_on,0,0,0,,1,,,73,127
25803,note_off,110,0,0,,1,,,73,127
25803,note_off,0,0,0,,11,,,70,127
25803,note_off,0,0,0,,7,,,67,127
25803,note_on,0,0,0,,5,,,65,127
25803,note_on,0,0,0,,10,,,69,127
25803,note_on,0,0,0,,2,,,74,127
26022,note_off,219,0,0,,10,,,69,127
26022,note_off,0,0,0,,5,,,65,127
26022,note_on,0,0,0,,4,,,64,127
26022,note_on,0,0,0,,7,,,67,127
26241,note_off,219,0,0,,4,,,64,127
26241,note_off,0,0,0,,2,,,74,127
26241,note_on,0,0,0,,10,,,57,127
26241,note_on,0,0,0,,4,,,76,127
26314,note_on,73,0,0,,5,,,77,127
26323,note_off,9,0,0,,4,,,76,127
26387,note_on,64,0,0,,7,,,79,127
26396,note_off,9,0,0,,5,,,77,127
26455,note_off,59,0,0,,7,,,67,127
26460,note_off,5,0,0,,7,,,79,127
26460,note_off,0,0,0,,10,,,57,127
26460,note_on,0,0,0,,2,,,50,127
26460,note_on,0,0,0,,7,,,79,127
26533,note_on,73,0,0,,5,,,77,127
26542,note_off,9,0,0,,7,,,79,127
26606,note_on,64,0,0,,7,,,79,127
26615,note_off,9,0,0,,5,,,77,127
26679,note_on,64,0,0,,5,,,77,127
26688,note_off,9,0,0,,7,,,79,127
26789,note_off,101,0,0,,5,,,77,127
26789,note_on,0,0,0,,4,,,76,127
26899,note_off,110,0,0,,4,,,76,127
26899,note_on,0,0,0,,2,,,74,127
27009,note_off,110,0,0,,2,,,74,127
27119,note_off,110,0,0,,2,,,50,127
27229,note_on,110,0,0,,0,,,72,127
27229,note_on,0,0,0,,3,,,63,127
27339,note_on,110,0,0,,6,,,78,127
27449,note_off,110,0,0,,6,,,78,127
27449,note_off,0,0,0,,3,,,63,127
27449,note_off,0,0,0,,0,,,72,127
27449,note_on,0,0,0,,7,,,79,127
27449,note_on,0,0,0,,0,,,72,127
27449,note_on,0,0,0,,3,,,63,127
27668,note_off,219,0,0,,3,,,63,127
27668,note_off,0,0,0,,0,,,72,127
27668,note_on,0,0,0,,11,,,70,127
27668,note_on,0,0,0,,2,,,62,127
27887,note_off,219,0,0,,2,,,62,127
27887,note_off,0,0,0,,11,,,70,127
27887,note_on,0,0,0,,0,,,72,127
27887,note_on,0,0,0,,3,,,63,127
27997,note_off,110,0,0,,7,,,79,127
27997,note_on,0,0,0,,6,,,78,127
28107,note_off,110,0,0,,6,,,78,127
28107,note_off,0,0,0,,3,,,63,127
28107,note_off,0,0,0,,0,,,72,127
28107,note_on,0,0,0,,7,,,79,127
28107,note_on,0,0,0,,0,,,72,127
28107,note_on,0,0,0,,3,,,63,127
28326,note_off,219,0,0,,3,,,63,127
28326,note_off,0,0,0,,0,,,72,127
28326,note_on,0,0,0,,11,,,70,127
28326,note_on,0,0,0,,2,,,62,127
28545,note_off,219,0,0,,2,,,62,127
28545,note_off,0,0,0,,11,,,70,127
28545,note_on,0,0,0,,10,,,69,127
28545,note_on,0,0,0,,0,,,60,127
28655,note_off,110,0,0,,7,,,79,127
28655,note_on,0,0,0,,6,,,78,127
28765,note_off,110,0,0,,6,,,78,127
28765,note_off,0,0,0,,0,,,60,127
28765,note_off,0,0,0,,10,,,69,127
28765,note_on,0,0,0,,7,,,79,127
28765,note_on,0,0,0,,10,,,69,127
28765,note_on,0,0,0,,0,,,60,127
28875,note_off,110,0,0,,7,,,79,127
28875,note_on,0,0,0,,6,,,78,127
28985,note_off,110,0,0,,6,,,78,127
28985,note_off,0,0,0,,0,,,60,127
28985,note_off,0,0,0,,10,,,69,127
28985,note_on,0,0,0,,7,,,79,127
28985,note_on,0,0,0,,7,,,67,127
28985,note_on,0,0,0,,11,,,58,127
29095,note_off,110,0,0,,7,,,79,127
29095,note_on,0,0,0,,6,,,78,127
29205,note_off,110,0,0,,6,,,78,127
29205,note_off,0,0,0,,11,,,58,127
29205,note_off,0,0,0,,7,,,67,127
29205,note_on,0,0,0,,7,,,79,127
29205,note_on,0,0,0,,10,,,69,127
29205,note_on,0,0,0,,0,,,60,127
29424,note_off,219,0,0,,0,,,60,127
29424,note_off,0,0,0,,10,,,69,127
29424,note_on,0,0,0,,7,,,67,127
29424,note_on,0,0,0,,11,,,58,127
29643,note_off,219,0,0,,11,,,58,127
29643,note_off,0,0,0,,7,,,67,127
29643,note_off,0,0,0,,7,,,79,127
29643,note_on,0,0,0,,10,,,81,127
29643,note_on,0,0,0,,6,,,66,127
29643,note_on,0,0,0,,10,,,57,127
29716,note_on,73,0,0,,11,,,82,127
29725,note_off,9,0,0,,10,,,81,127
29789,note_on,64,0,0,,0,,,84,127
29798,note_off,9,0,0,,11,,,82,127
29862,note_off,64,0,0,,0,,,84,127
29862,note_off,0,0,0,,10,,,57,127
29862,note_off,0,0,0,,6,,,66,127
29862,note_on,0,0,0,,0,,,84,127
29862,note_on,0,0,0,,7,,,55,127
29935,note_on,73,0,0,,11,,,82,127
29944,note_off,9,0,0,,0,,,84,127
30008,note_on,64,0,0,,0,,,84,127
30017,note_off,9,0,0,,11,,,82,127
30081,note_on,64,0,0,,7,,,67,127
30081,note_on,0,0,0,,11,,,82,127
30090,note_off,9,0,0,,0,,,84,127
30191,note_off,101,0,0,,11,,,82,127
30191,note_on,0,0,0,,10,,,81,127
30296,note_off,105,0,0,,7,,,55,127
30301,note_off,5,0,0,,10,,,81,127
30301,note_off,0,0,0,,7,,,67,127
30301,note_on,0,0,0,,7,,,79,127
30411,note_off,110,0,0,,7,,,79,127
31069,note_on,658,0,0,,5,,,65,127
31288,note_off,219,0,0,,5,,,65,127
31288,note_on,0,0,0,,12,,,71,127
31288,note_on,0,0,0,,8,,,80,127
31288,note_on,0,0,0,,5,,,65,127
31507,note_off,219,0,0,,5,,,65,127
31507,note_on,0,0,0,,5,,,65,127
31726,note_off,219,0,0,,5,,,65,127
31726,note_off,0,0,0,,12,,,71,127
31726,note_on,0,0,0,,0,,,72,127
31726,note_on,0,0,0,,7,,,67,127
31726,note_on,0,0,0,,3,,,63,127
31944,note_off,218,0,0,,8,,,80,127
31945,note_off,1,0,0,,3,,,63,127
31945,note_off,0,0,0,,7,,,67,127
31945,note_off,0,0,0,,0,,,72,127
31945,note_on,0,0,0,,7,,,79,127
31945,note_on,0,0,0,,7,,,67,127
31945,note_on,0,0,0,,3,,,63,127
32018,note_on,73,0,0,,5,,,77,127
32027,note_off,9,0,0,,7,,,79,127
32091,note_on,64,0,0,,3,,,75,127
32100,note_off,9,0,0,,5,,,77,127
32164,note_off,64,0,0,,3,,,63,127
32164,note_off,0,0,0,,7,,,67,127
32164,note_on,0,0,0,,5,,,77,127
32164,note_on,0,0,0,,7,,,67,127
32164,note_on,0,0,0,,3,,,63,127
32173,note_off,9,0,0,,3,,,75,127
32237,note_on,64,0,0,,3,,,75,127
32246,note_off,9,0,0,,5,,,77,127
32310,note_on,64,0,0,,2,,,74,127
32319,note_off,9,0,0,,3,,,75,127
32383,note_on,64,0,0,,0,,,72,127
32392,note_off,9,0,0,,2,,,74,127
32602,note_off,210,0,0,,0,,,72,127
32602,note_off,0,0,0,,3,,,63,127
32602,note_on,0,0,0,,12,,,71,127
32602,note_on,0,0,0,,8,,,80,127
32602,note_on,0,0,0,,5,,,65,127
32666,note_off,64,0,0,,7,,,67,127
32821,note_off,155,0,0,,5,,,65,127
32821,note_on,0,0,0,,5,,,65,127
33040,note_off,219,0,0,,5,,,65,127
33040,note_off,0,0,0,,12,,,71,127
33040,note_on,0,0,0,,0,,,72,127
33040,note_on,0,0,0,,7,,,67,127
33040,note_on,0,0,0,,3,,,63,127
33258,note_off,218,0,0,,8,,,80,127
33259,note_off,1,0,0,,3,,,63,127
33259,note_off,0,0,0,,7,,,67,127
33259,note_off,0,0,0,,0,,,72,127
33259,note_on,0,0,0,,7,,,79,127
33259,note_on,0,0,0,,7,,,67,127
33259,note_on,0,0,0,,3,,,63,127
33332,note_on,73,0,0,,5,,,77,127
33341,note_off,9,0,0,,7,,,79,127
33405,note_on,64,0,0,,3,,,75,127
33414,note_off,9,0,0,,5,,,77,127
33478,note_off,64,0,0,,3,,,63,127
33478,note_off,0,0,0,,7,,,67,127
33478,note_on,0,0,0,,5,,,77,127
33478,note_on,0,0,0,,7,,,67,127
33478,note_on,0,0,0,,3,,,63,127
33487,note_off,9,0,0,,3,,,75,127
33551,note_on,64,0,0,,3,,,75,127
33560,note_off,9,0,0,,5,,,77,127
33624,note_on,64,0,0,,2,,,74,127
33633,note_off,9,0,0,,3,,,75,127
33697,note_on,64,0,0,,0,,,72,127
33706,note_off,9,0,0,,2,,,74,127
33916,note_off,210,0,0,,0,,,72,127
33916,note_off,0,0,0,,3,,,63,127
33916,note_off,0,0,0,,7,,,67,127
33916,note_on,0,0,0,,10,,,69,127
33916,note_on,0,0,0,,7,,,79,127
33916,note_on,0,0,0,,5,,,65,127
33916,note_on,0,0,0,,3,,,63,127
34135,note_off,219,0,0,,3,,,63,127
34135,note_off,0,0,0,,5,,,65,127
34135,note_on,0,0,0,,5,,,65,127
34135,note_on,0,0,0,,3,,,63,127
34354,note_off,219,0,0,,3,,,63,127
34354,note_off,0,0,0,,5,,,65,127
34354,note_off,0,0,0,,10,,,69,127
34354,note_on,0,0,0,,11,,,70,127
34354,note_on,0,0,0,,5,,,65,127
34354,note_on,0,0,0,,2,,,62,127
34572,note_off,218,0,0,,7,,,79,127
34573,note_off,1,0,0,,2,,,62,127
34573,note_off,0,0,0,,5,,,65,127
34573,note_off,0,0,0,,11,,,70,127
34573,note_on,0,0,0,,5,,,77,127
34573,note_on,0,0,0,,5,,,65,127
34573,note_on,0,0,0,,2,,,62,127
34646,note_on,73,0,0,,3,,,75,127
34655,note_off,9,0,0,,5,,,77,127
34719,note_on,64,0,0,,2,,,74,127
34728,note_off,9,0,0,,3,,,75,127
34792,note_off,64,0,0,,2,,,62,127
34792,note_off,0,0,0,,5,,,65,127
34792,note_on,0,0,0,,3,,,75,127
34792,note_on,0,0,0,,5,,,65,127
34792,note_on,0,0,0,,2,,,62,127
34801,note_off,9,0,0,,2,,,74,127
34865,note_on,64,0,0,,2,,,74,127
34874,note_off,9,0,0,,3,,,75,127
34938,note_on,64,0,0,,0,,,72,127
34947,note_off,9,0,0,,2,,,74,127
35011,note_on,64,0,0,,11,,,70,127
35020,note_off,9,0,0,,0,,,72,127
35230,note_off,210,0,0,,11,,,70,127
35230,note_off,0,0,0,,2,,,62,127
35230,note_off,0,0,0,,5,,,65,127
35230,note_on,0,0,0,,10,,,69,127
35230,note_on,0,0,0,,7,,,79,127
35230,note_on,0,0,0,,5,,,65,127
35230,note_on,0,0,0,,3,,,63,127
35449,note_off,219,0,0,,3,,,63,127
35449,note_off,0,0,0,,5,,,65,127
35449,note_on,0,0,0,,5,,,65,127
35449,note_on,0,0,0,,3,,,63,127
35668,note_off,219,0,0,,3,,,63,127
35668,note_off,0,0,0,,5,,,65,127
35668,note_off,0,0,0,,10,,,69,127
35668,note_on,0,0,0,,11,,,70,127
35668,note_on,0,0,0,,5,,,65,127
35668,note_on,0,0,0,,2,,,62,127
35886,note_off,218,0,0,,7,,,79,127
35887,note_off,1,0,0,,2,,,62,127
35887,note_off,0,0,0,,5,,,65,127
35887,note_off,0,0,0,,11,,,70,127
35887,note_on,0,0,0,,5,,,77,127
35887,note_on,0,0,0,,5,,,65,127
35887,note_on,0,0,0,,2,,,62,127
35960,note_on,73,0,0,,3,,,75,127
35969,note_off,9,0,0,,5,,,77,127
36033,note_on,64,0,0,,2,,,74,127
36042,note_off,9,0,0,,3,,,75,127
36106,note_off,64,0,0,,2,,,62,127
36106,note_off,0,0,0,,5,,,65,127
36106,note_on,0,0,0,,3,,,75,127
36106,note_on,0,0,0,,5,,,65,127
36106,note_on,0,0,0,,2,,,62,127
36115,note_off,9,0,0,,2,,,74,127
36179,note_on,64,0,0,,2,,,74,127
36188,note_off,9,0,0,,3,,,75,127
36252,note_on,64,0,0,,0,,,72,127
36261,note_off,9,0,0,,2,,,74,127
36325,note_off,64,0,0,,0,,,72,127
36325,note_off,0,0,0,,2,,,62,127
36325,note_off,0,0,0,,5,,,65,127
36325,note_on,0,0,0,,11,,,82,127
36325,note_on,0,0,0,,5,,,65,127
36325,note_on,0,0,0,,2,,,62,127
36325,note_on,0,0,0,,11,,,70,127
36435,note_off,110,0,0,,11,,,70,127
36545,note_off,110,0,0,,2,,,62,127
36545,note_off,0,0,0,,5,,,65,127
36545,note_on,0,0,0,,5,,,65,127
36545,note_on,0,0,0,,2,,,62,127
36655,note_off,110,0,0,,11,,,82,127
36655,note_on,0,0,0,,10,,,81,127
36765,note_off,110,0,0,,10,,,81,127
36765,note_off,0,0,0,,2,,,62,127
36765,note_off,0,0,0,,5,,,65,127
36765,note_on,0,0,0,,7,,,79,127
36765,note_on,0,0,0,,11,,,70,127
36765,note_on,0,0,0,,5,,,65,127
36765,note_on,0,0,0,,2,,,62,127
36875,note_off,110,0,0,,7,,,79,127
36875,note_on,0,0,0,,5,,,77,127
36985,note_off,110,0,0,,5,,,77,127
36985,note_off,0,0,0,,2,,,62,127
36985,note_off,0,0,0,,5,,,65,127
36985,note_off,0,0,0,,11,,,70,127
36985,note_on,0,0,0,,5,,,77,127
36985,note_on,0,0,0,,11,,,70,127
36985,note_on,0,0,0,,0,,,60,127
37058,note_on,73,0,0,,4,,,76,127
37067,note_off,9,0,0,,5,,,77,127
37131,note_on,64,0,0,,5,,,77,127
37140,note_off,9,0,0,,4,,,76,127
37204,note_off,64,0,0,,0,,,60,127
37204,note_off,0,0,0,,11,,,70,127
37204,note_on,0,0,0,,4,,,76,127
37204,note_on,0,0,0,,11,,,70,127
37204,note_on,0,0,0,,0,,,60,127
37213,note_off,9,0,0,,5,,,77,127
37277,note_on,64,0,0,,2,,,74,127
37286,note_off,9,0,0,,4,,,76,127
37350,note_on,64,0,0,,4,,,76,127
37359,note_off,9,0,0,,2,,,74,127
37423,note_off,64,0,0,,0,,,60,127
37423,note_off,0,0,0,,11,,,70,127
37423,note_on,0,0,0,,5,,,77,127
37423,note_on,0,0,0,,8,,,68,127
37423,note_on,0,0,0,,0,,,60,127
37432,note_off,9,0,0,,4,,,76,127
37642,note_off,210,0,0,,0,,,60,127
37642,note_off,0,0,0,,8,,,68,127
37642,note_on,0,0,0,,11,,,70,127
37642,note_on,0,0,0,,7,,,67,127
37642,note_on,0,0,0,,0,,,60,127
37861,note_off,219,0,0,,0,,,60,127
37861,note_off,0,0,0,,7,,,67,127
37861,note_off,0,0,0,,11,,,70,127
37861,note_off,0,0,0,,5,,,77,127
37861,note_on,0,0,0,,4,,,76,127
37861,note_on,0,0,0,,11,,,70,127
37861,note_on,0,0,0,,7,,,67,127
37861,note_on,0,0,0,,0,,,60,127
38080,note_off,219,0,0,,0,,,60,127
38080,note_off,0,0,0,,7,,,67,127
38080,note_off,0,0,0,,11,,,70,127
38080,note_off,0,0,0,,4,,,76,127
38080,note_on,0,0,0,,5,,,77,127
38080,note_on,0,0,0,,8,,,68,127
38080,note_on,0,0,0,,5,,,65,127
38080,note_on,0,0,0,,0,,,60,127
38153,note_on,73,0,0,,4,,,76,127
38162,note_off,9,0,0,,5,,,77,127
38226,note_on,64,0,0,,5,,,77,127
38235,note_off,9,0,0,,4,,,76,127
38299,note_off,64,0,0,,0,,,60,127
38299,note_off,0,0,0,,5,,,65,127
38299,note_off,0,0,0,,8,,,68,127
38299,note_on,0,0,0,,7,,,67,127
38299,note_on,0,0,0,,4,,,64,127
38299,note_on,0,0,0,,0,,,60,127
38518,note_off,219,0,0,,0,,,60,127
38518,note_off,0,0,0,,4,,,64,127
38518,note_off,0,0,0,,7,,,67,127
38518,note_on,0,0,0,,7,,,79,127
38518,note_on,0,0,0,,7,,,67,127
38518,note_on,0,0,0,,4,,,64,127
38518,note_on,0,0,0,,0,,,60,127
38527,note_off,9,0,0,,5,,,77,127
38737,note_off,210,0,0,,0,,,60,127
38737,note_off,0,0,0,,4,,,64,127
38737,note_off,0,0,0,,7,,,67,127
38737,note_off,0,0,0,,7,,,79,127
38737,note_on,0,0,0,,5,,,77,127
38737,note_on,0,0,0,,8,,,68,127
38737,note_on,0,0,0,,5,,,65,127
38737,note_on,0,0,0,,0,,,60,127
38956,note_off,219,0,0,,0,,,60,127
38956,note_off,0,0,0,,5,,,65,127
38956,note_off,0,0,0,,8,,,68,127
38956,note_on,0,0,0,,11,,,70,127
38956,note_on,0,0,0,,7,,,67,127
38956,note_on,0,0,0,,0,,,60,127
39175,note_off,219,0,0,,0,,,60,127
39175,note_off,0,0,0,,7,,,67,127
39175,note_off,0,0,0,,11,,,70,127
39175,note_off,0,0,0,,5,,,77,127
39175,note_on,0,0,0,,4,,,76,127
39175,note_on,0,0,0,,11,,,70,127
39175,note_on,0,0,0,,7,,,67,127
39175,note_on,0,0,0,,0,,,60,127
39394,note_off,219,0,0,,0,,,60,127
39394,note_off,0,0,0,,7,,,67,127
39394,note_off,0,0,0,,11,,,70,127
39394,note_off,0,0,0,,4,,,76,127
39394,note_on,0,0,0,,5,,,77,127
39394,note_on,0,0,0,,8,,,68,127
39394,note_on,0,0,0,,5,,,65,127
39394,note_on,0,0,0,,0,,,60,127
39467,note_on,73,0,0,,4,,,76,127
39476,note_off,9,0,0,,5,,,77,127
39540,note_on,64,0,0,,5,,,77,127
39549,note_off,9,0,0,,4,,,76,127
39613,note_off,64,0,0,,0,,,60,127
39613,note_off,0,0,0,,5,,,65,127
39613,note_off,0,0,0,,8,,,68,127
39613,note_on,0,0,0,,7,,,67,127
39613,note_on,0,0,0,,4,,,64,127
39613,note_on,0,0,0,,0,,,60,127
39832,note_off,219,0,0,,0,,,60,127
39832,note_off,0,0,0,,4,,,64,127
39832,note_off,0,0,0,,7,,,67,127
39832,note_on,0,0,0,,7,,,79,127
39832,note_on,0,0,0,,7,,,67,127
39832,note_on,0,0,0,,4,,,64,127
39832,note_on,0,0,0,,0,,,60,127
39841,note_off,9,0,0,,5,,,77,127
40051,note_off,210,0,0,,0,,,60,127
40051,note_off,0,0,0,,4,,,64,127
40051,note_off,0,0,0,,7,,,67,127
40051,note_off,0,0,0,,7,,,79,127
40051,note_on,0,0,0,,5,,,77,127
40051,note_on,0,0,0,,8,,,68,127
40051,note_on,0,0,0,,5,,,65,127
40051,note_on,0,0,0,,0,,,60,127
40270,note_off,219,0,0,,0,,,60,127
40270,note_off,0,0,0,,5,,,65,127
40270,note_off,0,0,0,,8,,,68,127
40270,note_on,0,0,0,,11,,,70,127
40270,note_on,0,0,0,,7,,,67,127
40270,note_on,0,0,0,,0,,,60,127
40489,note_off,219,0,0,,0,,,60,127
40489,note_off,0,0,0,,7,,,67,127
40489,note_off,0,0,0,,11,,,70,127
40489,note_off,0,0,0,,5,,,77,127
40489,note_on,0,0,0,,4,,,76,127
40489,note_on,0,0,0,,11,,,70,127
40489,note_on,0,0,0,,7,,,67,127
40489,note_on,0,0,0,,0,,,60,127
40708,note_off,219,0,0,,0,,,60,127
40708,note_off,0,0,0,,7,,,67,127
40708,note_off,0,0,0,,11,,,70,127
40708,note_off,0,0,0,,4,,,76,127
40708,note_on,0,0,0,,5,,,77,127
40708,note_on,0,0,0,,8,,,68,127
40708,note_on,0,0,0,,5,,,65,127
40708,note_on,0,0,0,,0,,,60,127
40781,note_on,73,0,0,,4,,,76,127
40790,note_off,9,0,0,,5,,,77,127
40854,note_on,64,0,0,,5,,,77,127
40863,note_off,9,0,0,,4,,,76,127
40925,note_off,62,0,0,,5,,,77,127
40927,note_off,2,0,0,,0,,,60,127
40927,note_off,0,0,0,,5,,,65,127
40927,note_off,0,0,0,,8,,,68,127
40927,note_on,0,0,0,,5,,,77,127
40927,note_on,0,0,0,,7,,,67,127
40927,note_on,0,0,0,,4,,,64,127
40927,note_on,0,0,0,,0,,,60,127
41132,note_off,205,0,0,,5,,,77,127
41147,note_off,15,0,0,,0,,,60,127
41147,note_off,0,0,0,,4,,,64,127
41147,note_off,0,0,0,,7,,,67,127
41147,note_on,0,0,0,,7,,,79,127
41147,note_on,0,0,0,,7,,,67,127
41147,note_on,0,0,0,,4,,,64,127
41147,note_on,0,0,0,,0,,,60,127
41366,note_off,219,0,0,,0,,,60,127
41366,note_off,0,0,0,,4,,,64,127
41366,note_off,0,0,0,,7,,,67,127
41366,note_on,0,0,0,,5,,,65,127
41366,note_on,0,0,0,,2,,,62,127
41585,note_off,219,0,0,,2,,,62,127
41585,note_off,0,0,0,,5,,,65,127
41585,note_on,0,0,0,,7,,,67,127
41585,note_on,0,0,0,,4,,,64,127
41695,note_off,110,0,0,,7,,,79,127
41695,note_on,0,0,0,,5,,,77,127
41805,note_off,110,0,0,,5,,,77,127
41805,note_off,0,0,0,,4,,,64,127
41805,note_on,0,0,0,,4,,,76,127
41805,note_on,0,0,0,,0,,,60,127
41915,note_off,110,0,0,,4,,,76,127
41915,note_on,0,0,0,,2,,,74,127
42025,note_off,110,0,0,,2,,,74,127
42025,note_off,0,0,0,,0,,,60,127
42025,note_off,0,0,0,,7,,,67,127
42025,note_on,0,0,0,,0,,,72,127
42025,note_on,0,0,0,,7,,,67,127
42025,note_on,0,0,0,,4,,,64,127
42135,note_off,110,0,0,,0,,,72,127
42135,note_on,0,0,0,,11,,,70,127
42245,note_off,110,0,0,,11,,,70,127
42245,note_off,0,0,0,,4,,,64,127
42245,note_off,0,0,0,,7,,,67,127
42245,note_on,0,0,0,,0,,,72,127
42245,note_on,0,0,0,,5,,,53,127
42355,note_off,110,0,0,,0,,,72,127
42355,note_on,0,0,0,,11,,,70,127
42465,note_off,110,0,0,,11,,,70,127
42465,note_on,0,0,0,,10,,,69,127
42684,note_off,219,0,0,,10,,,69,127
42684,note_off,0,0,0,,5,,,53,127
42684,note_on,0,0,0,,5,,,77,127
42684,note_on,0,0,0,,5,,,65,127
42794,note_off,110,0,0,,5,,,65,127
42794,note_on,0,0,0,,10,,,69,127
42904,note_off,110,0,0,,10,,,69,127
42904,note_on,0,0,0,,4,,,64,127
43014,note_off,110,0,0,,4,,,64,127
43014,note_on,0,0,0,,7,,,67,127
43124,note_off,110,0,0,,7,,,67,127
43124,note_off,0,0,0,,5,,,77,127
43124,note_on,0,0,0,,7,,,79,127
43124,note_on,0,0,0,,0,,,60,127
43234,note_off,110,0,0,,0,,,60,127
43234,note_on,0,0,0,,7,,,67,127
43344,note_off,110,0,0,,7,,,67,127
43344,note_off,0,0,0,,7,,,79,127
43344,note_on,0,0,0,,11,,,46,127
43344,note_on,0,0,0,,4,,,64,127
43454,note_off,110,0,0,,4,,,64,127
43454,note_on,0,0,0,,7,,,67,127
43564,note_off,110,0,0,,7,,,67,127
43564,note_off,0,0,0,,11,,,46,127
43564,note_on,0,0,0,,10,,,45,127
43564,note_on,0,0,0,,5,,,65,127
43674,note_off,110,0,0,,5,,,65,127
43674,note_on,0,0,0,,10,,,69,127
43784,note_off,110,0,0,,10,,,69,127
43784,note_off,0,0,0,,10,,,45,127
43784,note_on,0,0,0,,5,,,41,127
43784,note_on,0,0,0,,5,,,65,127
43894,note_off,110,0,0,,5,,,65,127
43894,note_on,0,0,0,,10,,,69,127
44004,note_off,110,0,0,,10,,,69,127
44004,note_off,0,0,0,,5,,,41,127
44004,note_on,0,0,0,,5,,,77,127
44004,note_on,0,0,0,,5,,,65,127
44114,note_off,110,0,0,,5,,,65,127
44114,note_on,0,0,0,,10,,,69,127
44224,note_off,110,0,0,,10,,,69,127
44224,note_on,0,0,0,,4,,,64,127
44334,note_off,110,0,0,,4,,,64,127
44334,note_on,0,0,0,,7,,,67,127
44444,note_off,110,0,0,,7,,,67,127
44444,note_off,0,0,0,,5,,,77,127
44444,note_on,0,0,0,,7,,,79,127
44444,note_on,0,0,0,,0,,,60,127
44554,note_off,110,0,0,,0,,,60,127
44554,note_on,0,0,0,,7,,,67,127
44664,note_off,110,0,0,,7,,,67,127
44664,note_off,0,0,0,,7,,,79,127
44664,note_on,0,0,0,,11,,,46,127
44664,note_on,0,0,0,,0,,,60,127
44774,note_off,110,0,0,,0,,,60,127
44774,note_on,0,0,0,,7,,,67,127
44884,note_off,110,0,0,,7,,,67,127
44884,note_off,0,0,0,,11,,,46,127
44884,note_on,0,0,0,,10,,,45,127
44884,note_on,0,0,0,,5,,,65,127
44994,note_off,110,0,0,,5,,,65,127
44994,note_on,0,0,0,,10,,,69,127
45104,note_off,110,0,0,,10,,,69,127
45104,note_off,0,0,0,,10,,,45,127
45104,note_on,0,0,0,,5,,,41,127
45104,note_on,0,0,0,,5,,,65,127
45214,note_off,110,0,0,,5,,,65,127
45214,note_on,0,0,0,,10,,,69,127
45324,note_off,110,0,0,,10,,,69,127
45324,note_off,0,0,0,,5,,,41,127
45324,note_on,0,0,0,,5,,,77,127
45324,note_on,0,0,0,,5,,,65,127
45434,note_off,110,0,0,,5,,,65,127
45434,note_on,0,0,0,,10,,,69,127
45544,note_off,110,0,0,,10,,,69,127
45544,note_on,0,0,0,,4,,,64,127
45654,note_off,110,0,0,,4,,,64,127
45654,note_on,0,0,0,,7,,,67,127
45764,note_off,110,0,0,,7,,,67,127
45764,note_off,0,0,0,,5,,,77,127
45764,note_on,0,0,0,,7,,,79,127
45764,note_on,0,0,0,,0,,,60,127
45874,note_off,110,0,0,,0,,,60,127
45874,note_on,0,0,0,,7,,,67,127
45984,note_off,110,0,0,,7,,,67,127
45984,note_off,0,0,0,,7,,,79,127
45984,note_on,0,0,0,,11,,,46,127
45984,note_on,0,0,0,,4,,,64,127
46094,note_off,110,0,0,,4,,,64,127
46094,note_on,0,0,0,,7,,,67,127
46204,note_off,110,0,0,,7,,,67,127
46204,note_off,0,0,0,,11,,,46,127
46204,note_on,0,0,0,,10,,,45,127
46204,note_on,0,0,0,,5,,,65,127
46314,note_off,110,0,0,,5,,,65,127
46314,note_on,0,0,0,,10,,,69,127
46424,note_off,110,0,0,,10,,,69,127
46424,note_off,0,0,0,,10,,,45,127
46424,note_on,0,0,0,,5,,,41,127
46424,note_on,0,0,0,,5,,,65,127
46534,note_off,110,0,0,,5,,,65,127
46534,note_on,0,0,0,,10,,,69,127
46644,note_off,110,0,0,,10,,,69,127
46644,note_off,0,0,0,,5,,,41,127
46644,note_on,0,0,0,,10,,,45,127
46644,note_on,0,0,0,,5,,,65,127
46754,note_off,110,0,0,,5,,,65,127
46754,note_on,0,0,0,,10,,,69,127
46864,note_off,110,0,0,,10,,,69,127
46864,note_off,0,0,0,,10,,,45,127
46864,note_on,0,0,0,,11,,,46,127
46864,note_on,0,0,0,,7,,,67,127
46974,note_off,110,0,0,,7,,,67,127
46974,note_on,0,0,0,,11,,,70,127
47084,note_off,110,0,0,,11,,,70,127
47084,note_off,0,0,0,,11,,,46,127
47084,note_on,0,0,0,,0,,,48,127
47084,note_on,0,0,0,,10,,,69,127
47194,note_off,110,0,0,,10,,,69,127
47194,note_on,0,0,0,,5,,,65,127
47304,note_off,110,0,0,,5,,,65,127
47304,note_on,0,0,0,,0,,,36,127
47304,note_on,0,0,0,,7,,,67,127
47414,note_off,110,0,0,,7,,,67,127
47414,note_on,0,0,0,,4,,,64,127
47519,note_off,105,0,0,,0,,,48,127
47524,note_off,5,0,0,,4,,,64,127
47524,note_off,0,0,0,,0,,,36,127
47524,note_on,0,0,0,,5,,,41,127
47524,note_on,0,0,0,,5,,,65,127
47634,note_off,110,0,0,,5,,,65,127
47634,note_on,0,0,0,,10,,,69,127
47744,note_off,110,0,0,,10,,,69,127
47744,note_off,0,0,0,,5,,,41,127
47744,note_on,0,0,0,,10,,,45,127
47744,note_on,0,0,0,,5,,,65,127
47854,note_off,110,0,0,,5,,,65,127
47854,note_on,0,0,0,,10,,,69,127
47964,note_off,110,0,0,,10,,,69,127
47964,note_off,0,0,0,,10,,,45,127
47964,note_on,0,0,0,,5,,,77,127
47964,note_on,0,0,0,,5,,,65,127
48074,note_off,110,0,0,,5,,,65,127
48074,note_on,0,0,0,,10,,,69,127
48184,note_off,110,0,0,,10,,,69,127
48184,note_on,0,0,0,,4,,,64,127
48294,note_off,110,0,0,,4,,,64,127
48294,note_on,0,0,0,,7,,,67,127
48404,note_off,110,0,0,,7,,,67,127
48404,note_off,0,0,0,,5,,,77,127
48404,note_on,0,0,0,,7,,,79,127
48404,note_on,0,0,0,,0,,,60,127
48514,note_off,110,0,0,,0,,,60,127
48514,note_on,0,0,0,,7,,,67,127
48624,note_off,110,0,0,,7,,,67,127
48624,note_off,0,0,0,,7,,,79,127
48624,note_on,0,0,0,,11,,,46,127
48624,note_on,0,0,0,,4,,,64,127
48734,note_off,110,0,0,,4,,,64,127
48734,note_on,0,0,0,,7,,,67,127
48844,note_off,110,0,0,,7,,,67,127
48844,note_off,0,0,0,,11,,,46,127
48844,note_on,0,0,0,,10,,,45,127
48844,note_on,0,0,0,,5,,,65,127
48954,note_off,110,0,0,,5,,,65,127
48954,note_on,0,0,0,,10,,,69,127
49064,note_off,110,0,0,,10,,,69,127
49064,note_off,0,0,0,,10,,,45,127
49064,note_on,0,0,0,,5,,,41,127
49064,note_on,0,0,0,,5,,,65,127
49174,note_off,110,0,0,,5,,,65,127
49174,note_on,0,0,0,,10,,,69,127
49284,note_off,110,0,0,,10,,,69,127
49284,note_off,0,0,0,,5,,,41,127
49284,note_on,0,0,0,,5,,,77,127
49284,note_on,0,0,0,,5,,,65,127
49394,note_off,110,0,0,,5,,,65,127
49394,note_on,0,0,0,,10,,,69,127
49504,note_off,110,0,0,,10,,,69,127
49504,note_on,0,0,0,,4,,,64,127
49614,note_off,110,0,0,,4,,,64,127
49614,note_on,0,0,0,,7,,,67,127
49724,note_off,110,0,0,,7,,,67,127
49724,note_off,0,0,0,,5,,,77,127
49724,note_on,0,0,0,,7,,,79,127
49724,note_on,0,0,0,,0,,,60,127
49834,note_off,110,0,0,,0,,,60,127
49834,note_on,0,0,0,,7,,,67,127
49944,note_off,110,0,0,,7,,,67,127
49944,note_off,0,0,0,,7,,,79,127
49944,note_on,0,0,0,,11,,,46,127
49944,note_on,0,0,0,,4,,,64,127
50054,note_off,110,0,0,,4,,,64,127
50054,note_on,0,0,0,,7,,,67,127
50164,note_off,110,0,0,,7,,,67,127
50164,note_off,0,0,0,,11,,,46,127
50164,note_on,0,0,0,,10,,,45,127
50164,note_on,0,0,0,,5,,,65,127
50274,note_off,110,0,0,,5,,,65,127
50274,note_on,0,0,0,,10,,,69,127
50384,note_off,110,0,0,,10,,,69,127
50384,note_off,0,0,0,,10,,,45,127
50384,note_on,0,0,0,,5,,,41,127
50384,note_on,0,0,0,,5,,,65,127
50494,note_off,110,0,0,,5,,,65,127
50494,note_on,0,0,0,,10,,,69,127
50604,note_off,110,0,0,,10,,,69,127
50604,note_off,0,0,0,,5,,,41,127
50604,note_on,0,0,0,,5,,,77,127
50604,note_on,0,0,0,,5,,,65,127
50714,note_off,110,0,0,,5,,,65,127
50714,note_on,0,0,0,,10,,,69,127
50824,note_off,110,0,0,,10,,,69,127
50824,note_on,0,0,0,,4,,,64,127
50934,note_off,110,0,0,,4,,,64,127
50934,note_on,0,0,0,,7,,,67,127
51044,note_off,110,0,0,,7,,,67,127
51044,note_off,0,0,0,,5,,,77,127
51044,note_on,0,0,0,,7,,,79,127
51044,note_on,0,0,0,,0,,,60,127
51154,note_off,110,0,0,,0,,,60,127
51154,note_on,0,0,0,,7,,,67,127
51264,note_off,110,0,0,,7,,,67,127
51264,note_off,0,0,0,,7,,,79,127
51264,note_on,0,0,0,,11,,,46,127
51264,note_on,0,0,0,,4,,,64,127
51374,note_off,110,0,0,,4,,,64,127
51374,note_on,0,0,0,,7,,,67,127
51484,note_off,110,0,0,,7,,,67,127
51484,note_off,0,0,0,,11,,,46,127
51484,note_on,0,0,0,,10,,,45,127
51484,note_on,0,0,0,,5,,,65,127
51594,note_off,110,0,0,,5,,,65,127
51594,note_on,0,0,0,,10,,,69,127
51704,note_off,110,0,0,,10,,,69,127
51704,note_off,0,0,0,,10,,,45,127
51704,note_on,0,0,0,,5,,,41,127
51704,note_on,0,0,0,,5,,,65,127
51814,note_off,110,0,0,,5,,,65,127
51814,note_on,0,0,0,,10,,,69,127
51924,note_off,110,0,0,,10,,,69,127
51924,note_off,0,0,0,,5,,,41,127
51924,note_on,0,0,0,,10,,,45,127
51924,note_on,0,0,0,,5,,,65,127
52034,note_off,110,0,0,,5,,,65,127
52034,note_on,0,0,0,,10,,,69,127
52144,note_off,110,0,0,,10,,,69,127
52144,note_off,0,0,0,,10,,,45,127
52144,note_on,0,0,0,,11,,,46,127
52144,note_on,0,0,0,,7,,,67,127
52254,note_off,110,0,0,,7,,,67,127
52254,note_on,0,0,0,,11,,,70,127
52364,note_off,110,0,0,,11,,,70,127
52364,note_off,0,0,0,,11,,,46,127
52364,note_on,0,0,0,,0,,,48,127
52364,note_on,0,0,0,,10,,,69,127
52474,note_off,110,0,0,,10,,,69,127
52474,note_on,0,0,0,,5,,,65,127
52584,note_off,110,0,0,,5,,,65,127
52584,note_on,0,0,0,,0,,,36,127
52584,note_on,0,0,0,,7,,,67,127
52694,note_off,110,0,0,,7,,,67,127
52694,note_on,0,0,0,,4,,,64,127
52799,note_off,105,0,0,,0,,,48,127
52804,note_off,5,0,0,,4,,,64,127
52804,note_off,0,0,0,,0,,,36,127
52804,note_on,0,0,0,,5,,,41,127
52804,note_on,0,0,0,,5,,,65,127
52914,note_off,110,0,0,,5,,,41,127
52914,note_on,0,0,0,,10,,,45,127
53024,note_off,110,0,0,,10,,,45,127
53024,note_on,0,0,0,,0,,,48,127
53134,note_off,110,0,0,,0,,,48,127
53134,note_on,0,0,0,,5,,,53,127
53244,note_off,110,0,0,,5,,,53,127
53244,note_off,0,0,0,,5,,,65,127
53244,note_on,0,0,0,,10,,,57,127
53244,note_on,0,0,0,,10,,,45,127
53354,note_off,110,0,0,,10,,,57,127
53354,note_on,0,0,0,,0,,,60,127
53464,note_off,110,0,0,,0,,,60,127
53464,note_off,0,0,0,,10,,,45,127
53464,note_on,0,0,0,,7,,,55,127
53464,note_on,0,0,0,,11,,,46,127
53574,note_off,110,0,0,,7,,,55,127
53574,note_on,0,0,0,,11,,,58,127
53684,note_off,110,0,0,,11,,,58,127
53684,note_off,0,0,0,,11,,,46,127
53684,note_on,0,0,0,,10,,,57,127
53684,note_on,0,0,0,,0,,,48,127
53794,note_off,110,0,0,,10,,,57,127
53794,note_on,0,0,0,,5,,,53,127
53904,note_off,110,0,0,,5,,,53,127
53904,note_on,0,0,0,,7,,,55,127
53904,note_on,0,0,0,,0,,,36,127
54014,note_off,110,0,0,,7,,,55,127
54014,note_on,0,0,0,,4,,,52,127
54119,note_off,105,0,0,,0,,,48,127
54124,note_off,5,0,0,,4,,,52,127
54124,note_off,0,0,0,,0,,,36,127
54124,note_on,0,0,0,,5,,,53,127
54124,note_on,0,0,0,,5,,,41,127
54234,note_off,110,0,0,,5,,,53,127
54234,note_on,0,0,0,,10,,,57,127
54344,note_off,110,0,0,,10,,,57,127
54344,note_on,0,0,0,,0,,,60,127
54454,note_off,110,0,0,,0,,,60,127
54454,note_on,0,0,0,,5,,,65,127
54564,note_off,110,0,0,,5,,,65,127
54564,note_off,0,0,0,,5,,,41,127
54564,note_on,0,0,0,,10,,,69,127
54564,note_on,0,0,0,,5,,,53,127
54674,note_off,110,0,0,,10,,,69,127
54674,note_on,0,0,0,,0,,,72,127
54784,note_off,110,0,0,,0,,,72,127
54784,note_off,0,0,0,,5,,,53,127
54784,note_on,0,0,0,,11,,,70,127
54784,note_on,0,0,0,,11,,,58,127
54894,note_off,110,0,0,,11,,,70,127
54894,note_on,0,0,0,,2,,,74,127
55004,note_off,110,0,0,,2,,,74,127
55004,note_off,0,0,0,,11,,,58,127
55004,note_on,0,0,0,,0,,,72,127
55004,note_on,0,0,0,,0,,,60,127
55114,note_off,110,0,0,,0,,,72,127
55114,note_on,0,0,0,,10,,,69,127
55224,note_off,110,0,0,,10,,,69,127
55224,note_on,0,0,0,,7,,,67,127
55224,note_on,0,0,0,,0,,,48,127
55334,note_off,110,0,0,,7,,,67,127
55334,note_on,0,0,0,,4,,,64,127
55439,note_off,105,0,0,,0,,,60,127
55444,note_off,5,0,0,,4,,,64,127
55444,note_off,0,0,0,,0,,,48,127
55444,note_on,0,0,0,,5,,,65,127
55444,note_on,0,0,0,,5,,,53,127
55554,note_off,110,0,0,,5,,,65,127
55554,note_on,0,0,0,,8,,,80,127
55554,note_on,0,0,0,,4,,,76,127
55664,note_off,110,0,0,,4,,,76,127
55664,note_off,0,0,0,,8,,,80,127
55664,note_on,0,0,0,,10,,,81,127
55664,note_on,0,0,0,,5,,,77,127
55664,note_on,0,0,0,,5,,,65,127
55719,note_off,55,0,0,,5,,,53,127
55774,note_off,55,0,0,,5,,,77,127
55774,note_off,0,0,0,,10,,,81,127
55774,note_on,0,0,0,,8,,,80,127
55774,note_on,0,0,0,,4,,,76,127
55884,note_off,110,0,0,,4,,,76,127
55884,note_off,0,0,0,,8,,,80,127
55884,note_off,0,0,0,,5,,,65,127
55884,note_on,0,0,0,,10,,,81,127
55884,note_on,0,0,0,,5,,,77,127
55884,note_on,0,0,0,,4,,,64,127
56103,note_off,219,0,0,,4,,,64,127
56103,note_on,0,0,0,,2,,,50,127
56213,note_off,110,0,0,,5,,,77,127
56213,note_off,0,0,0,,10,,,81,127
56213,note_on,0,0,0,,4,,,76,127
56213,note_on,0,0,0,,1,,,73,127
56323,note_off,110,0,0,,1,,,73,127
56323,note_off,0,0,0,,4,,,76,127
56323,note_on,0,0,0,,5,,,77,127
56323,note_on,0,0,0,,2,,,74,127
56323,note_on,0,0,0,,2,,,62,127
56378,note_off,55,0,0,,2,,,50,127
56433,note_off,55,0,0,,2,,,74,127
56433,note_off,0,0,0,,5,,,77,127
56433,note_on,0,0,0,,4,,,76,127
56433,note_on,0,0,0,,1,,,73,127
56543,note_off,110,0,0,,1,,,73,127
56543,note_off,0,0,0,,4,,,76,127
56543,note_off,0,0,0,,2,,,62,127
56543,note_on,0,0,0,,5,,,77,127
56543,note_on,0,0,0,,2,,,74,127
56543,note_on,0,0,0,,0,,,60,127
56762,note_off,219,0,0,,0,,,60,127
56762,note_on,0,0,0,,11,,,46,127
56872,note_off,110,0,0,,2,,,74,127
56872,note_off,0,0,0,,5,,,77,127
56872,note_on,0,0,0,,1,,,73,127
56872,note_on,0,0,0,,10,,,69,127
56982,note_off,110,0,0,,10,,,69,127
56982,note_off,0,0,0,,1,,,73,127
56982,note_on,0,0,0,,2,,,74,127
56982,note_on,0,0,0,,11,,,70,127
56982,note_on,0,0,0,,11,,,58,127
57037,note_off,55,0,0,,11,,,46,127
57092,note_off,55,0,0,,11,,,70,127
57092,note_off,0,0,0,,2,,,74,127
57092,note_on,0,0,0,,1,,,73,127
57092,note_on,0,0,0,,10,,,69,127
57202,note_off,110,0,0,,10,,,69,127
57202,note_off,0,0,0,,1,,,73,127
57202,note_off,0,0,0,,11,,,58,127
57202,note_on,0,0,0,,2,,,74,127
57202,note_on,0,0,0,,11,,,70,127
57202,note_on,0,0,0,,10,,,57,127
57421,note_off,219,0,0,,10,,,57,127
57421,note_on,0,0,0,,11,,,58,127
57531,note_off,110,0,0,,11,,,70,127
57531,note_off,0,0,0,,2,,,74,127
57531,note_on,0,0,0,,0,,,72,127
57531,note_on,0,0,0,,10,,,69,127
57641,note_off,110,0,0,,10,,,69,127
57641,note_off,0,0,0,,0,,,72,127
57641,note_off,0,0,0,,11,,,58,127
57641,note_on,0,0,0,,0,,,72,127
57641,note_on,0,0,0,,10,,,69,127
57641,note_on,0,0,0,,0,,,60,127
57714,note_on,73,0,0,,11,,,70,127
57714,note_on,0,0,0,,7,,,67,127
57723,note_off,9,0,0,,10,,,69,127
57723,note_off,0,0,0,,0,,,72,127
57787,note_on,64,0,0,,0,,,72,127
57787,note_on,0,0,0,,10,,,69,127
57796,note_off,9,0,0,,7,,,67,127
57796,note_off,0,0,0,,11,,,70,127
57860,note_off,64,0,0,,0,,,60,127
57860,note_on,0,0,0,,11,,,70,127
57860,note_on,0,0,0,,7,,,67,127
57860,note_on,0,0,0,,0,,,48,127
57869,note_off,9,0,0,,10,,,69,127
57869,note_off,0,0,0,,0,,,72,127
57933,note_on,64,0,0,,10,,,69,127
57933,note_on,0,0,0,,5,,,65,127
57942,note_off,9,0,0,,7,,,67,127
57942,note_off,0,0,0,,11,,,70,127
58006,note_on,64,0,0,,7,,,67,127
58006,note_on,0,0,0,,4,,,64,127
58015,note_off,9,0,0,,5,,,65,127
58015,note_off,0,0,0,,10,,,69,127
58079,note_off,64,0,0,,7,,,67,127
58079,note_off,0,0,0,,0,,,48,127
58079,note_on,0,0,0,,10,,,69,127
58079,note_on,0,0,0,,5,,,65,127
58079,note_on,0,0,0,,5,,,53,127
58080,note_off,1,0,0,,4,,,64,127
58189,note_off,109,0,0,,5,,,65,127
58189,note_off,0,0,0,,10,,,69,127
58189,note_on,0,0,0,,8,,,80,127
58189,note_on,0,0,0,,4,,,76,127
58299,note_off,110,0,0,,4,,,76,127
58299,note_off,0,0,0,,8,,,80,127
58299,note_on,0,0,0,,10,,,81,127
58299,note_on,0,0,0,,5,,,77,127
58299,note_on,0,0,0,,5,,,65,127
58409,note_off,110,0,0,,5,,,77,127
58409,note_off,0,0,0,,10,,,81,127
58409,note_off,0,0,0,,5,,,53,127
58409,note_on,0,0,0,,8,,,80,127
58409,note_on,0,0,0,,4,,,76,127
58519,note_off,110,0,0,,4,,,76,127
58519,note_off,0,0,0,,8,,,80,127
58519,note_off,0,0,0,,5,,,65,127
58519,note_on,0,0,0,,10,,,81,127
58519,note_on,0,0,0,,5,,,77,127
58519,note_on,0,0,0,,4,,,64,127
58738,note_off,219,0,0,,4,,,64,127
58738,note_on,0,0,0,,2,,,50,127
58848,note_off,110,0,0,,5,,,77,127
58848,note_off,0,0,0,,10,,,81,127
58848,note_on,0,0,0,,4,,,76,127
58848,note_on,0,0,0,,1,,,73,127
58958,note_off,110,0,0,,1,,,73,127
58958,note_off,0,0,0,,4,,,76,127
58958,note_on,0,0,0,,5,,,77,127
58958,note_on,0,0,0,,2,,,74,127
58958,note_on,0,0,0,,2,,,62,127
59068,note_off,110,0,0,,2,,,74,127
59068,note_off,0,0,0,,5,,,77,127
59068,note_off,0,0,0,,2,,,50,127
59068,note_on,0,0,0,,4,,,76,127
59068,note_on,0,0,0,,1,,,73,127
59178,note_off,110,0,0,,1,,,73,127
59178,note_off,0,0,0,,4,,,76,127
59178,note_off,0,0,0,,2,,,62,127
59178,note_on,0,0,0,,5,,,77,127
59178,note_on,0,0,0,,2,,,74,127
59178,note_on,0,0,0,,0,,,60,127
59397,note_off,219,0,0,,0,,,60,127
59397,note_on,0,0,0,,11,,,46,127
59507,note_off,110,0,0,,2,,,74,127
59507,note_off,0,0,0,,5,,,77,127
59507,note_on,0,0,0,,1,,,73,127
59507,note_on,0,0,0,,10,,,69,127
59617,note_off,110,0,0,,10,,,69,127
59617,note_off,0,0,0,,1,,,73,127
59617,note_on,0,0,0,,2,,,74,127
59617,note_on,0,0,0,,11,,,70,127
59617,note_on,0,0,0,,11,,,58,127
59727,note_off,110,0,0,,11,,,70,127
59727,note_off,0,0,0,,2,,,74,127
59727,note_off,0,0,0,,11,,,46,127
59727,note_on,0,0,0,,1,,,73,127
59727,note_on,0,0,0,,10,,,69,127
59837,note_off,110,0,0,,10,,,69,127
59837,note_off,0,0,0,,1,,,73,127
59837,note_off,0,0,0,,11,,,58,127
59837,note_on,0,0,0,,2,,,74,127
59837,note_on,0,0,0,,11,,,70,127
59837,note_on,0,0,0,,10,,,57,127
59947,note_off,110,0,0,,2,,,74,127
59947,note_on,0,0,0,,0,,,72,127
60057,note_off,110,0,0,,0,,,72,127
60057,note_off,0,0,0,,10,,,57,127
60057,note_off,0,0,0,,11,,,70,127
60057,note_on,0,0,0,,11,,,70,127
60057,note_on,0,0,0,,11,,,58,127
60130,note_on,73,0,0,,10,,,69,127
60139,note_off,9,0,0,,11,,,70,127
60203,note_on,64,0,0,,7,,,67,127
60212,note_off,9,0,0,,10,,,69,127
60276,note_off,64,0,0,,11,,,58,127
60276,note_on,0,0,0,,10,,,69,127
60276,note_on,0,0,0,,0,,,60,127
60285,note_off,9,0,0,,7,,,67,127
60349,note_on,64,0,0,,7,,,67,127
60358,note_off,9,0,0,,10,,,69,127
60422,note_on,64,0,0,,5,,,65,127
60431,note_off,9,0,0,,7,,,67,127
60495,note_off,64,0,0,,0,,,60,127
60495,note_on,0,0,0,,7,,,67,127
60495,note_on,0,0,0,,0,,,48,127
60504,note_off,9,0,0,,5,,,65,127
60568,note_on,64,0,0,,5,,,65,127
60577,note_off,9,0,0,,7,,,67,127
60641,note_on,64,0,0,,4,,,64,127
60650,note_off,9,0,0,,5,,,65,127
60714,note_off,64,0,0,,0,,,48,127
60714,note_on,0,0,0,,10,,,69,127
60714,note_on,0,0,0,,5,,,41,127
60723,note_off,9,0,0,,4,,,64,127
60824,note_off,101,0,0,,10,,,69,127
60824,note_on,0,0,0,,7,,,67,127
60934,note_off,110,0,0,,7,,,67,127
60934,note_off,0,0,0,,5,,,41,127
60934,note_on,0,0,0,,5,,,65,127
60934,note_on,0,0,0,,7,,,43,127
61044,note_off,110,0,0,,5,,,65,127
61044,note_on,0,0,0,,4,,,64,127
61154,note_off,110,0,0,,4,,,64,127
61154,note_off,0,0,0,,7,,,43,127
61154,note_on,0,0,0,,2,,,62,127
61154,note_on,0,0,0,,10,,,45,127
61264,note_off,110,0,0,,2,,,62,127
61264,note_on,0,0,0,,0,,,60,127
61374,note_off,110,0,0,,0,,,60,127
61374,note_off,0,0,0,,10,,,45,127
61374,note_on,0,0,0,,11,,,58,127
61374,note_on,0,0,0,,11,,,46,127
61447,note_on,73,0,0,,10,,,57,127
61456,note_off,9,0,0,,11,,,58,127
61520,note_on,64,0,0,,7,,,55,127
61529,note_off,9,0,0,,10,,,57,127
61593,note_off,64,0,0,,11,,,46,127
61593,note_on,0,0,0,,10,,,57,127
61593,note_on,0,0,0,,0,,,48,127
61602,note_off,9,0,0,,7,,,55,127
61666,note_on,64,0,0,,7,,,55,127
61675,note_off,9,0,0,,10,,,57,127
61739,note_on,64,0,0,,5,,,53,127
61748,note_off,9,0,0,,7,,,55,127
61812,note_off,64,0,0,,0,,,48,127
61812,note_on,0,0,0,,7,,,55,127
61812,note_on,0,0,0,,0,,,36,127
61821,note_off,9,0,0,,5,,,53,127
61885,note_on,64,0,0,,5,,,53,127
61894,note_off,9,0,0,,7,,,55,127
61958,note_on,64,0,0,,4,,,52,127
61967,note_off,9,0,0,,5,,,53,127
62031,note_off,64,0,0,,0,,,36,127
62031,note_on,0,0,0,,5,,,53,127
62031,note_on,0,0,0,,5,,,41,127
62040,note_off,9,0,0,,4,,,52,127
62689,note_off,649,0,0,,5,,,53,127
62689,note_on,0,0,0,,0,,,72,127
62774,note_off,85,0,0,,5,,,41,127
62909,note_off,135,0,0,,0,,,72,127
62909,note_on,0,0,0,,5,,,77,127
62909,note_on,0,0,0,,10,,,69,127
63128,note_off,219,0,0,,10,,,69,127
63128,note_on,0,0,0,,5,,,65,127
63347,note_off,219,0,0,,5,,,77,127
63347,note_on,0,0,0,,5,,,77,127
63566,note_off,219,0,0,,5,,,77,127
63566,note_off,0,0,0,,5,,,65,127
63566,note_on,0,0,0,,10,,,81,127
63566,note_on,0,0,0,,5,,,65,127
63785,note_off,219,0,0,,5,,,65,127
63785,note_on,0,0,0,,0,,,60,127
64004,note_off,219,0,0,,10,,,81,127
64004,note_on,0,0,0,,10,,,81,127
64223,note_off,219,0,0,,10,,,81,127
64223,note_off,0,0,0,,0,,,60,127
64223,note_on,0,0,0,,0,,,84,127
64223,note_on,0,0,0,,0,,,60,127
64442,note_off,219,0,0,,0,,,60,127
64442,note_on,0,0,0,,10,,,57,127
64661,note_off,219,0,0,,10,,,57,127
64661,note_on,0,0,0,,5,,,53,127
64880,note_off,219,0,0,,5,,,53,127
64880,note_on,0,0,0,,0,,,48,127
65099,note_off,219,0,0,,0,,,48,127
65099,note_on,0,0,0,,10,,,45,127
65318,note_off,219,0,0,,10,,,45,127
65318,note_on,0,0,0,,5,,,41,127
65428,note_off,110,0,0,,0,,,84,127
65428,note_on,0,0,0,,10,,,81,127
65538,note_off,110,0,0,,10,,,81,127
65538,note_on,0,0,0,,5,,,77,127
65648,note_off,110,0,0,,5,,,77,127
65648,note_on,0,0,0,,0,,,72,127
65758,note_off,110,0,0,,0,,,72,127
65758,note_on,0,0,0,,10,,,69,127
65868,note_off,110,0,0,,10,,,69,127
65868,note_on,0,0,0,,5,,,65,127
65978,note_off,110,0,0,,5,,,41,127
65978,note_on,0,0,0,,5,,,53,127
65978,note_on,0,0,0,,10,,,45,127
66088,note_off,110,0,0,,5,,,65,127
66088,note_on,0,0,0,,0,,,84,127
66198,note_off,110,0,0,,0,,,84,127
66198,note_on,0,0,0,,8,,,80,127
66308,note_off,110,0,0,,8,,,80,127
66308,note_on,0,0,0,,10,,,81,127
66418,note_off,110,0,0,,10,,,81,127
66418,note_on,0,0,0,,4,,,76,127
66528,note_off,110,0,0,,4,,,76,127
66528,note_on,0,0,0,,5,,,77,127
66638,note_off,110,0,0,,5,,,77,127
66638,note_off,0,0,0,,10,,,45,127
66638,note_off,0,0,0,,5,,,53,127
66638,note_on,0,0,0,,1,,,73,127
66638,note_on,0,0,0,,5,,,53,127
66638,note_on,0,0,0,,11,,,46,127
66748,note_off,110,0,0,,1,,,73,127
66748,note_on,0,0,0,,2,,,74,127
66858,note_off,110,0,0,,2,,,74,127
66858,note_on,0,0,0,,10,,,69,127
66968,note_off,110,0,0,,10,,,69,127
66968,note_on,0,0,0,,11,,,70,127
67078,note_off,110,0,0,,11,,,70,127
67078,note_on,0,0,0,,5,,,65,127
67188,note_off,110,0,0,,5,,,65,127
67188,note_on,0,0,0,,11,,,70,127
67298,note_off,110,0,0,,11,,,70,127
67298,note_off,0,0,0,,11,,,46,127
67298,note_on,0,0,0,,10,,,69,127
67298,note_on,0,0,0,,0,,,48,127
67517,note_off,219,0,0,,10,,,69,127
67517,note_off,0,0,0,,5,,,53,127
67517,note_on,0,0,0,,10,,,69,127
67517,note_on,0,0,0,,4,,,52,127
67590,note_on,73,0,0,,7,,,67,127
67599,note_off,9,0,0,,10,,,69,127
67663,note_on,64,0,0,,10,,,69,127
67672,note_off,9,0,0,,7,,,67,127
67736,note_on,64,0,0,,7,,,67,127
67745,note_off,9,0,0,,10,,,69,127
67809,note_on,64,0,0,,5,,,65,127
67818,note_off,9,0,0,,7,,,67,127
67882,note_on,64,0,0,,7,,,67,127
67891,note_off,9,0,0,,5,,,65,127
67955,note_off,64,0,0,,4,,,52,127
67955,note_off,0,0,0,,0,,,48,127
67955,note_on,0,0,0,,10,,,69,127
67955,note_on,0,0,0,,5,,,53,127
67955,note_on,0,0,0,,5,,,41,127
67964,note_off,9,0,0,,7,,,67,127
68065,note_off,101,0,0,,10,,,69,127
68065,note_on,0,0,0,,0,,,84,127
68175,note_off,110,0,0,,0,,,84,127
68175,note_on,0,0,0,,8,,,80,127
68285,note_off,110,0,0,,8,,,80,127
68285,note_on,0,0,0,,10,,,81,127
68395,note_off,110,0,0,,10,,,81,127
68395,note_on,0,0,0,,4,,,76,127
68505,note_off,110,0,0,,4,,,76,127
68505,note_on,0,0,0,,5,,,77,127
68615,note_off,110,0,0,,5,,,77,127
68615,note_off,0,0,0,,5,,,41,127
68615,note_off,0,0,0,,5,,,53,127
68615,note_on,0,0,0,,1,,,73,127
68615,note_on,0,0,0,,5,,,53,127
68615,note_on,0,0,0,,10,,,45,127
68725,note_off,110,0,0,,1,,,73,127
68725,note_on,0,0,0,,2,,,74,127
68835,note_off,110,0,0,,2,,,74,127
68835,note_on,0,0,0,,10,,,69,127
68945,note_off,110,0,0,,10,,,69,127
68945,note_on,0,0,0,,11,,,70,127
69055,note_off,110,0,0,,11,,,70,127
69055,note_on,0,0,0,,4,,,64,127
69165,note_off,110,0,0,,4,,,64,127
69165,note_on,0,0,0,,5,,,65,127
69275,note_off,110,0,0,,5,,,65,127
69275,note_off,0,0,0,,10,,,45,127
69275,note_off,0,0,0,,5,,,53,127
69275,note_on,0,0,0,,1,,,61,127
69275,note_on,0,0,0,,5,,,53,127
69275,note_on,0,0,0,,11,,,46,127
69385,note_off,110,0,0,,1,,,61,127
69385,note_on,0,0,0,,2,,,62,127
69495,note_off,110,0,0,,2,,,62,127
69495,note_on,0,0,0,,10,,,57,127
69605,note_off,110,0,0,,10,,,57,127
69605,note_on,0,0,0,,11,,,58,127
69715,note_off,110,0,0,,11,,,58,127
69715,note_off,0,0,0,,5,,,53,127
69715,note_on,0,0,0,,5,,,53,127
69825,note_on,110,0,0,,11,,,58,127
69935,note_off,110,0,0,,11,,,58,127
69935,note_off,0,0,0,,11,,,46,127
69935,note_on,0,0,0,,10,,,57,127
69935,note_on,0,0,0,,0,,,48,127
70154,note_off,219,0,0,,10,,,57,127
70154,note_off,0,0,0,,5,,,53,127
70154,note_on,0,0,0,,10,,,57,127
70154,note_on,0,0,0,,4,,,52,127
70227,note_on,73,0,0,,7,,,55,127
70236,note_off,9,0,0,,10,,,57,127
70300,note_on,64,0,0,,10,,,57,127
70309,note_off,9,0,0,,7,,,55,127
70373,note_on,64,0,0,,7,,,55,127
70382,note_off,9,0,0,,10,,,57,127
70446,note_on,64,0,0,,5,,,53,127
70455,note_off,9,0,0,,7,,,55,127
70519,note_on,64,0,0,,7,,,55,127
70528,note_off,9,0,0,,5,,,53,127
70590,note_off,62,0,0,,7,,,55,127
70592,note_off,2,0,0,,4,,,52,127
70592,note_off,0,0,0,,0,,,48,127
70592,note_on,0,0,0,,7,,,55,127
70592,note_on,0,0,0,,5,,,41,127
70811,note_off,219,0,0,,7,,,55,127
70811,note_on,0,0,0,,10,,,57,127
71030,note_off,219,0,0,,5,,,41,127
71030,note_on,0,0,0,,5,,,53,127
71249,note_off,219,0,0,,5,,,53,127
71249,note_off,0,0,0,,10,,,57,127
72127,note_on,878,0,0,,0,,,72,127
72127,note_on,0,0,0,,10,,,81,127
72127,note_on,0,0,0,,10,,,69,127
72127,note_on,0,0,0,,5,,,65,127
72346,note_off,219,0,0,,5,,,65,127
72346,note_off,0,0,0,,10,,,69,127
72346,note_on,0,0,0,,10,,,69,127
72346,note_on,0,0,0,,5,,,65,127
72565,note_off,219,0,0,,5,,,65,127
72565,note_off,0,0,0,,10,,,69,127
72565,note_on,0,0,0,,10,,,69,127
72565,note_on,0,0,0,,4,,,64,127
72784,note_off,219,0,0,,4,,,64,127
72784,note_off,0,0,0,,10,,,69,127
72784,note_off,0,0,0,,10,,,81,127
72784,note_off,0,0,0,,0,,,72,127
72784,note_on,0,0,0,,10,,,81,127
72784,note_on,0,0,0,,0,,,72,127
72784,note_on,0,0,0,,10,,,69,127
72784,note_on,0,0,0,,4,,,64,127
73003,note_off,219,0,0,,4,,,64,127
73003,note_off,0,0,0,,10,,,69,127
73003,note_on,0,0,0,,10,,,69,127
73003,note_on,0,0,0,,4,,,64,127
73222,note_off,219,0,0,,4,,,64,127
73222,note_off,0,0,0,,10,,,69,127
73222,note_on,0,0,0,,10,,,69,127
73222,note_on,0,0,0,,3,,,63,127
73441,note_off,219,0,0,,3,,,63,127
73441,note_off,0,0,0,,10,,,69,127
73441,note_off,0,0,0,,0,,,72,127
73441,note_off,0,0,0,,10,,,81,127
73441,note_on,0,0,0,,0,,,72,127
73441,note_on,0,0,0,,10,,,81,127
73441,note_on,0,0,0,,10,,,69,127
73441,note_on,0,0,0,,3,,,63,127
73660,note_off,219,0,0,,3,,,63,127
73660,note_off,0,0,0,,10,,,69,127
73660,note_on,0,0,0,,10,,,69,127
73660,note_on,0,0,0,,3,,,63,127
73875,note_off,215,0,0,,0,,,72,127
73880,note_off,5,0,0,,3,,,63,127
73880,note_off,0,0,0,,10,,,69,127
73880,note_on,0,0,0,,12,,,71,127
73880,note_on,0,0,0,,4,,,64,127
74099,note_off,219,0,0,,4,,,64,127
74099,note_off,0,0,0,,12,,,71,127
74099,note_off,0,0,0,,10,,,81,127
74099,note_on,0,0,0,,8,,,80,127
74099,note_on,0,0,0,,12,,,71,127
74099,note_on,0,0,0,,4,,,64,127
74209,note_off,110,0,0,,8,,,80,127
74209,note_on,0,0,0,,6,,,78,127
74319,note_off,110,0,0,,6,,,78,127
74319,note_off,0,0,0,,4,,,64,127
74319,note_off,0,0,0,,12,,,71,127
74319,note_on,0,0,0,,4,,,76,127
74319,note_on,0,0,0,,12,,,71,127
74319,note_on,0,0,0,,4,,,64,127
74429,note_off,110,0,0,,4,,,76,127
74429,note_on,0,0,0,,2,,,74,127
74539,note_off,110,0,0,,4,,,64,127
74539,note_off,0,0,0,,12,,,71,127
74539,note_on,0,0,0,,10,,,69,127
74539,note_on,0,0,0,,5,,,65,127
74758,note_off,219,0,0,,5,,,65,127
74758,note_off,0,0,0,,10,,,69,127
74758,note_off,0,0,0,,2,,,74,127
74758,note_on,0,0,0,,5,,,77,127
74758,note_on,0,0,0,,10,,,69,127
74758,note_on,0,0,0,,5,,,65,127
74831,note_on,73,0,0,,4,,,76,127
74840,note_off,9,0,0,,5,,,77,127
74904,note_on,64,0,0,,2,,,74,127
74913,note_off,9,0,0,,4,,,76,127
74977,note_off,64,0,0,,5,,,65,127
74977,note_off,0,0,0,,10,,,69,127
74977,note_on,0,0,0,,10,,,81,127
74977,note_on,0,0,0,,10,,,69,127
74977,note_on,0,0,0,,5,,,65,127
74986,note_off,9,0,0,,2,,,74,127
75196,note_off,210,0,0,,5,,,65,127
75196,note_off,0,0,0,,10,,,69,127
75196,note_on,0,0,0,,12,,,71,127
75196,note_on,0,0,0,,4,,,64,127
75415,note_off,219,0,0,,4,,,64,127
75415,note_off,0,0,0,,12,,,71,127
75415,note_off,0,0,0,,10,,,81,127
75415,note_on,0,0,0,,8,,,80,127
75415,note_on,0,0,0,,12,,,71,127
75415,note_on,0,0,0,,4,,,64,127
75525,note_off,110,0,0,,8,,,80,127
75525,note_on,0,0,0,,5,,,77,127
75635,note_off,110,0,0,,5,,,77,127
75635,note_off,0,0,0,,4,,,64,127
75635,note_off,0,0,0,,12,,,71,127
75635,note_on,0,0,0,,4,,,76,127
75635,note_on,0,0,0,,12,,,71,127
75635,note_on,0,0,0,,4,,,64,127
75745,note_off,110,0,0,,4,,,76,127
75745,note_on,0,0,0,,2,,,74,127
75855,note_off,110,0,0,,4,,,64,127
75855,note_off,0,0,0,,12,,,71,127
75855,note_on,0,0,0,,10,,,69,127
75855,note_on,0,0,0,,5,,,65,127
76074,note_off,219,0,0,,5,,,65,127
76074,note_off,0,0,0,,10,,,69,127
76074,note_off,0,0,0,,2,,,74,127
76074,note_on,0,0,0,,5,,,77,127
76074,note_on,0,0,0,,10,,,69,127
76074,note_on,0,0,0,,5,,,65,127
76147,note_on,73,0,0,,4,,,76,127
76156,note_off,9,0,0,,5,,,77,127
76220,note_on,64,0,0,,2,,,74,127
76229,note_off,9,0,0,,4,,,76,127
76293,note_off,64,0,0,,5,,,65,127
76293,note_off,0,0,0,,10,,,69,127
76293,note_on,0,0,0,,10,,,81,127
76293,note_on,0,0,0,,10,,,69,127
76293,note_on,0,0,0,,5,,,65,127
76302,note_off,9,0,0,,2,,,74,127
76512,note_off,210,0,0,,5,,,65,127
76512,note_off,0,0,0,,10,,,69,127
76512,note_on,0,0,0,,11,,,70,127
76512,note_on,0,0,0,,7,,,67,127
76512,note_on,0,0,0,,4,,,64,127
76731,note_off,219,0,0,,4,,,64,127
76731,note_off,0,0,0,,7,,,67,127
76731,note_off,0,0,0,,11,,,70,127
76731,note_on,0,0,0,,1,,,73,127
76731,note_on,0,0,0,,7,,,67,127
76731,note_on,0,0,0,,4,,,64,127
76949,note_off,218,0,0,,10,,,81,127
76950,note_off,1,0,0,,4,,,64,127
76950,note_off,0,0,0,,7,,,67,127
76950,note_off,0,0,0,,1,,,73,127
76950,note_on,0,0,0,,11,,,82,127
76950,note_on,0,0,0,,7,,,67,127
76950,note_on,0,0,0,,4,,,64,127
77169,note_off,219,0,0,,4,,,64,127
77169,note_off,0,0,0,,7,,,67,127
77169,note_on,0,0,0,,10,,,69,127
77169,note_on,0,0,0,,5,,,65,127
77388,note_off,219,0,0,,5,,,65,127
77388,note_off,0,0,0,,10,,,69,127
77388,note_off,0,0,0,,11,,,82,127
77388,note_on,0,0,0,,10,,,81,127
77388,note_on,0,0,0,,10,,,69,127
77388,note_on,0,0,0,,5,,,65,127
77461,note_on,73,0,0,,7,,,79,127
77470,note_off,9,0,0,,10,,,81,127
77534,note_on,64,0,0,,5,,,77,127
77543,note_off,9,0,0,,7,,,79,127
77607,note_off,64,0,0,,5,,,65,127
77607,note_off,0,0,0,,10,,,69,127
77607,note_on,0,0,0,,10,,,81,127
77607,note_on,0,0,0,,10,,,69,127
77607,note_on,0,0,0,,5,,,65,127
77616,note_off,9,0,0,,5,,,77,127
77826,note_off,210,0,0,,5,,,65,127
77826,note_off,0,0,0,,10,,,69,127
77826,note_on,0,0,0,,11,,,70,127
77826,note_on,0,0,0,,4,,,64,127
77826,note_on,0,0,0,,7,,,67,127
78045,note_off,219,0,0,,7,,,67,127
78045,note_off,0,0,0,,4,,,64,127
78045,note_off,0,0,0,,11,,,70,127
78045,note_on,0,0,0,,1,,,73,127
78045,note_on,0,0,0,,7,,,67,127
78045,note_on,0,0,0,,4,,,64,127
78263,note_off,218,0,0,,10,,,81,127
78264,note_off,1,0,0,,4,,,64,127
78264,note_off,0,0,0,,7,,,67,127
78264,note_off,0,0,0,,1,,,73,127
78264,note_on,0,0,0,,11,,,82,127
78264,note_on,0,0,0,,7,,,67,127
78264,note_on,0,0,0,,4,,,64,127
78483,note_off,219,0,0,,4,,,64,127
78483,note_off,0,0,0,,7,,,67,127
78483,note_on,0,0,0,,0,,,72,127
78483,note_on,0,0,0,,3,,,63,127
78483,note_on,0,0,0,,7,,,67,127
78702,note_off,219,0,0,,7,,,67,127
78702,note_off,0,0,0,,3,,,63,127
78702,note_off,0,0,0,,0,,,72,127
78702,note_off,0,0,0,,11,,,82,127
78702,note_on,0,0,0,,11,,,82,127
78702,note_on,0,0,0,,0,,,72,127
78702,note_on,0,0,0,,7,,,67,127
78702,note_on,0,0,0,,3,,,63,127
78775,note_on,73,0,0,,10,,,81,127
78784,note_off,9,0,0,,11,,,82,127
78848,note_on,64,0,0,,7,,,79,127
78857,note_off,9,0,0,,10,,,81,127
78920,note_off,63,0,0,,7,,,79,127
78921,note_off,1,0,0,,3,,,63,127
78921,note_off,0,0,0,,7,,,67,127
78921,note_off,0,0,0,,0,,,72,127
78921,note_on,0,0,0,,7,,,79,127
78921,note_on,0,0,0,,0,,,72,127
78921,note_on,0,0,0,,3,,,63,127
78921,note_on,0,0,0,,7,,,67,127
79140,note_off,219,0,0,,7,,,67,127
79140,note_off,0,0,0,,3,,,63,127
79140,note_off,0,0,0,,0,,,72,127
79140,note_on,0,0,0,,11,,,70,127
79140,note_on,0,0,0,,2,,,62,127
79140,note_on,0,0,0,,7,,,67,127
79359,note_off,219,0,0,,7,,,67,127
79359,note_off,0,0,0,,2,,,62,127
79359,note_off,0,0,0,,11,,,70,127
79359,note_off,0,0,0,,7,,,79,127
79359,note_on,0,0,0,,10,,,81,127
79359,note_on,0,0,0,,10,,,69,127
79359,note_on,0,0,0,,2,,,62,127
79432,note_on,73,0,0,,7,,,79,127
79441,note_off,9,0,0,,10,,,81,127
79505,note_on,64,0,0,,6,,,78,127
79514,note_off,9,0,0,,7,,,79,127
79578,note_off,64,0,0,,2,,,62,127
79578,note_off,0,0,0,,10,,,69,127
79578,note_on,0,0,0,,10,,,81,127
79578,note_on,0,0,0,,10,,,69,127
79578,note_on,0,0,0,,2,,,62,127
79587,note_off,9,0,0,,6,,,78,127
79797,note_off,210,0,0,,2,,,62,127
79797,note_off,0,0,0,,10,,,69,127
79797,note_on,0,0,0,,0,,,72,127
79797,note_on,0,0,0,,7,,,67,127
79797,note_on,0,0,0,,3,,,63,127
80016,note_off,219,0,0,,3,,,63,127
80016,note_off,0,0,0,,7,,,67,127
80016,note_off,0,0,0,,0,,,72,127
80016,note_off,0,0,0,,10,,,81,127
80016,note_on,0,0,0,,11,,,82,127
80016,note_on,0,0,0,,0,,,72,127
80016,note_on,0,0,0,,3,,,63,127
80016,note_on,0,0,0,,7,,,67,127
80089,note_on,73,0,0,,10,,,81,127
80098,note_off,9,0,0,,11,,,82,127
80162,note_on,64,0,0,,7,,,79,127
80171,note_off,9,0,0,,10,,,81,127
80234,note_off,63,0,0,,7,,,79,127
80235,note_off,1,0,0,,7,,,67,127
80235,note_off,0,0,0,,3,,,63,127
80235,note_off,0,0,0,,0,,,72,127
80235,note_on,0,0,0,,7,,,79,127
80235,note_on,0,0,0,,0,,,72,127
80235,note_on,0,0,0,,3,,,63,127
80235,note_on,0,0,0,,7,,,67,127
80454,note_off,219,0,0,,7,,,67,127
80454,note_off,0,0,0,,3,,,63,127
80454,note_off,0,0,0,,0,,,72,127
80454,note_on,0,0,0,,11,,,70,127
80454,note_on,0,0,0,,2,,,62,127
80454,note_on,0,0,0,,7,,,67,127
80673,note_off,219,0,0,,7,,,67,127
80673,note_off,0,0,0,,2,,,62,127
80673,note_off,0,0,0,,11,,,70,127
80673,note_off,0,0,0,,7,,,79,127
80673,note_on,0,0,0,,10,,,81,127
80673,note_on,0,0,0,,10,,,69,127
80673,note_on,0,0,0,,2,,,62,127
80746,note_on,73,0,0,,7,,,79,127
80755,note_off,9,0,0,,10,,,81,127
80819,note_on,64,0,0,,6,,,78,127
80828,note_off,9,0,0,,7,,,79,127
80891,note_off,63,0,0,,6,,,78,127
80892,note_off,1,0,0,,2,,,62,127
80892,note_off,0,0,0,,10,,,69,127
80892,note_on,0,0,0,,6,,,78,127
80892,note_on,0,0,0,,10,,,69,127
80892,note_on,0,0,0,,2,,,62,127
81111,note_off,219,0,0,,2,,,62,127
81111,note_off,0,0,0,,10,,,69,127
81111,note_on,0,0,0,,0,,,72,127
81111,note_on,0,0,0,,10,,,69,127
81111,note_on,0,0,0,,6,,,66,127
81330,note_off,219,0,0,,6,,,78,127
81330,note_on,0,0,0,,10,,,81,127
81549,note_off,219,0,0,,6,,,66,127
81549,note_off,0,0,0,,10,,,69,127
81549,note_on,0,0,0,,2,,,62,127
81622,note_on,73,0,0,,7,,,79,127
81631,note_off,9,0,0,,10,,,81,127
81695,note_on,64,0,0,,10,,,81,127
81704,note_off,9,0,0,,7,,,79,127
81768,note_off,64,0,0,,2,,,62,127
81768,note_off,0,0,0,,0,,,72,127
81768,note_on,0,0,0,,2,,,74,127
81768,note_on,0,0,0,,11,,,70,127
81768,note_on,0,0,0,,7,,,67,127
81878,note_on,110,0,0,,2,,,62,127
81887,note_off,9,0,0,,10,,,81,127
81988,note_off,101,0,0,,2,,,62,127
81988,note_on,0,0,0,,11,,,58,127
82098,note_off,110,0,0,,11,,,58,127
82098,note_on,0,0,0,,7,,,55,127
82208,note_off,110,0,0,,7,,,55,127
82208,note_off,0,0,0,,7,,,67,127
82208,note_off,0,0,0,,11,,,70,127
82208,note_off,0,0,0,,2,,,74,127
82208,note_on,0,0,0,,7,,,43,127
82208,note_on,0,0,0,,2,,,74,127
82208,note_on,0,0,0,,7,,,67,127
82208,note_on,0,0,0,,11,,,70,127
82427,note_off,219,0,0,,11,,,70,127
82427,note_off,0,0,0,,7,,,67,127
82427,note_off,0,0,0,,2,,,74,127
82427,note_on,0,0,0,,2,,,74,127
82427,note_on,0,0,0,,6,,,66,127
82427,note_on,0,0,0,,10,,,69,127
82482,note_off,55,0,0,,7,,,43,127
82647,note_on,165,0,0,,10,,,81,127
82866,note_off,219,0,0,,10,,,69,127
82866,note_off,0,0,0,,6,,,66,127
82866,note_on,0,0,0,,2,,,62,127
82939,note_on,73,0,0,,7,,,79,127
82948,note_off,9,0,0,,10,,,81,127
83012,note_on,64,0,0,,10,,,81,127
83021,note_off,9,0,0,,7,,,79,127
83085,note_off,64,0,0,,2,,,62,127
83085,note_off,0,0,0,,2,,,74,127
83085,note_on,0,0,0,,2,,,74,127
83085,note_on,0,0,0,,7,,,67,127
83085,note_on,0,0,0,,11,,,70,127
83195,note_on,110,0,0,,2,,,62,127
83204,note_off,9,0,0,,10,,,81,127
83305,note_off,101,0,0,,2,,,62,127
83305,note_on,0,0,0,,11,,,58,127
83415,note_off,110,0,0,,11,,,58,127
83415,note_on,0,0,0,,7,,,55,127
83525,note_off,110,0,0,,7,,,55,127
83525,note_on,0,0,0,,7,,,43,127
83744,note_off,219,0,0,,11,,,70,127
83744,note_off,0,0,0,,7,,,67,127
83744,note_off,0,0,0,,2,,,74,127
83744,note_on,0,0,0,,2,,,74,127
83744,note_on,0,0,0,,7,,,67,127
83744,note_on,0,0,0,,11,,,70,127
83963,note_off,219,0,0,,7,,,43,127
83963,note_on,0,0,0,,11,,,82,127
84182,note_off,219,0,0,,11,,,70,127
84182,note_off,0,0,0,,7,,,67,127
84182,note_off,0,0,0,,2,,,74,127
84182,note_on,0,0,0,,0,,,72,127
84182,note_on,0,0,0,,10,,,69,127
84401,note_off,219,0,0,,10,,,69,127
84401,note_off,0,0,0,,0,,,72,127
84401,note_on,0,0,0,,2,,,74,127
84401,note_on,0,0,0,,11,,,70,127
84583,note_off,182,0,0,,11,,,82,127
84621,note_off,38,0,0,,11,,,70,127
84621,note_on,0,0,0,,11,,,82,127
84621,note_on,0,0,0,,7,,,67,127
84840,note_off,219,0,0,,7,,,67,127
84840,note_off,0,0,0,,2,,,74,127
84840,note_on,0,0,0,,0,,,72,127
84840,note_on,0,0,0,,10,,,69,127
85059,note_off,219,0,0,,10,,,69,127
85059,note_off,0,0,0,,0,,,72,127
85059,note_on,0,0,0,,2,,,74,127
85059,note_on,0,0,0,,11,,,70,127
85169,note_off,110,0,0,,11,,,82,127
85169,note_on,0,0,0,,10,,,81,127
85279,note_off,110,0,0,,10,,,81,127
85279,note_on,0,0,0,,8,,,80,127
85389,note_off,110,0,0,,8,,,80,127
85389,note_on,0,0,0,,7,,,79,127
85499,note_off,110,0,0,,7,,,79,127
85499,note_off,0,0,0,,11,,,70,127
85499,note_off,0,0,0,,2,,,74,127
85499,note_on,0,0,0,,6,,,78,127
85499,note_on,0,0,0,,2,,,74,127
85499,note_on,0,0,0,,12,,,71,127
85609,note_off,110,0,0,,6,,,78,127
85609,note_on,0,0,0,,5,,,77,127
85716,note_off,107,0,0,,12,,,71,127
85718,note_off,2,0,0,,5,,,77,127
85718,note_off,0,0,0,,2,,,74,127
85718,note_on,0,0,0,,7,,,79,127
85718,note_on,0,0,0,,0,,,72,127
85828,note_off,110,0,0,,7,,,79,127
85828,note_on,0,0,0,,5,,,77,127
85938,note_off,110,0,0,,5,,,77,127
85938,note_on,0,0,0,,4,,,76,127
85938,note_on,0,0,0,,0,,,60,127
86157,note_off,219,0,0,,0,,,60,127
86157,note_on,0,0,0,,2,,,62,127
86376,note_off,219,0,0,,2,,,62,127
86376,note_off,0,0,0,,0,,,72,127
86376,note_on,0,0,0,,0,,,72,127
86376,note_on,0,0,0,,4,,,64,127
86376,note_on,0,0,0,,7,,,67,127
86595,note_off,219,0,0,,4,,,76,127
86595,note_on,0,0,0,,10,,,81,127
86705,note_off,110,0,0,,10,,,81,127
86705,note_on,0,0,0,,7,,,79,127
86815,note_off,110,0,0,,7,,,79,127
86815,note_off,0,0,0,,7,,,67,127
86815,note_off,0,0,0,,4,,,64,127
86815,note_on,0,0,0,,5,,,77,127
86815,note_on,0,0,0,,0,,,60,127
86925,note_off,110,0,0,,5,,,77,127
86925,note_on,0,0,0,,7,,,79,127
87035,note_off,110,0,0,,0,,,60,127
87035,note_off,0,0,0,,0,,,72,127
87035,note_on,0,0,0,,0,,,72,127
87035,note_on,0,0,0,,10,,,69,127
87035,note_on,0,0,0,,5,,,65,127
87145,note_off,110,0,0,,7,,,79,127
87145,note_on,0,0,0,,0,,,60,127
87255,note_off,110,0,0,,0,,,60,127
87255,note_on,0,0,0,,10,,,57,127
87365,note_off,110,0,0,,10,,,57,127
87365,note_on,0,0,0,,5,,,53,127
87475,note_off,110,0,0,,5,,,53,127
87475,note_off,0,0,0,,5,,,65,127
87475,note_off,0,0,0,,10,,,69,127
87475,note_off,0,0,0,,0,,,72,127
87475,note_on,0,0,0,,5,,,41,127
87475,note_on,0,0,0,,0,,,72,127
87475,note_on,0,0,0,,5,,,65,127
87475,note_on,0,0,0,,10,,,69,127
87694,note_off,219,0,0,,10,,,69,127
87694,note_off,0,0,0,,5,,,65,127
87694,note_off,0,0,0,,0,,,72,127
87694,note_on,0,0,0,,0,,,72,127
87694,note_on,0,0,0,,4,,,64,127
87694,note_on,0,0,0,,7,,,67,127
87749,note_off,55,0,0,,5,,,41,127
87914,note_on,165,0,0,,10,,,81,127
87987,note_on,73,0,0,,7,,,79,127
87996,note_off,9,0,0,,10,,,81,127
88060,note_on,64,0,0,,10,,,81,127
88069,note_off,9,0,0,,7,,,79,127
88132,note_off,63,0,0,,4,,,64,127
88133,note_on,1,0,0,,7,,,79,127
88133,note_on,0,0,0,,0,,,60,127
88142,note_off,9,0,0,,10,,,81,127
88160,note_off,18,0,0,,7,,,67,127
88206,note_on,46,0,0,,5,,,77,127
88215,note_off,9,0,0,,7,,,79,127
88279,note_on,64,0,0,,7,,,79,127
88288,note_off,9,0,0,,5,,,77,127
88352,note_off,64,0,0,,0,,,60,127
88352,note_off,0,0,0,,0,,,72,127
88352,note_on,0,0,0,,0,,,72,127
88352,note_on,0,0,0,,5,,,65,127
88352,note_on,0,0,0,,10,,,69,127
88462,note_on,110,0,0,,0,,,60,127
88471,note_off,9,0,0,,7,,,79,127
88572,note_off,101,0,0,,0,,,60,127
88572,note_on,0,0,0,,10,,,57,127
88682,note_off,110,0,0,,10,,,57,127
88682,note_on,0,0,0,,5,,,53,127
88792,note_off,110,0,0,,5,,,53,127
88792,note_on,0,0,0,,5,,,41,127
89011,note_off,219,0,0,,10,,,69,127
89011,note_off,0,0,0,,5,,,65,127
89011,note_off,0,0,0,,0,,,72,127
89011,note_on,0,0,0,,10,,,69,127
89011,note_on,0,0,0,,5,,,65,127
89230,note_off,219,0,0,,5,,,41,127
89230,note_on,0,0,0,,10,,,81,127
89449,note_off,219,0,0,,5,,,65,127
89449,note_off,0,0,0,,10,,,69,127
89449,note_on,0,0,0,,11,,,70,127
89449,note_on,0,0,0,,7,,,67,127
89668,note_off,219,0,0,,7,,,67,127
89668,note_off,0,0,0,,11,,,70,127
89668,note_on,0,0,0,,0,,,72,127
89668,note_on,0,0,0,,10,,,69,127
89887,note_off,219,0,0,,10,,,69,127
89887,note_off,0,0,0,,10,,,81,127
89887,note_on,0,0,0,,10,,,81,127
89887,note_on,0,0,0,,5,,,65,127
90106,note_off,219,0,0,,5,,,65,127
90106,note_off,0,0,0,,0,,,72,127
90106,note_on,0,0,0,,11,,,70,127
90106,note_on,0,0,0,,7,,,67,127
90325,note_off,219,0,0,,7,,,67,127
90325,note_off,0,0,0,,11,,,70,127
90325,note_on,0,0,0,,0,,,72,127
90325,note_on,0,0,0,,10,,,69,127
90435,note_off,110,0,0,,10,,,81,127
90435,note_on,0,0,0,,7,,,79,127
90545,note_off,110,0,0,,7,,,79,127
90545,note_on,0,0,0,,6,,,78,127
90655,note_off,110,0,0,,6,,,78,127
90655,note_on,0,0,0,,5,,,77,127
90765,note_off,110,0,0,,5,,,77,127
90765,note_off,0,0,0,,10,,,69,127
90765,note_off,0,0,0,,0,,,72,127
90765,note_on,0,0,0,,4,,,76,127
90765,note_on,0,0,0,,0,,,72,127
90765,note_on,0,0,0,,10,,,69,127
90875,note_off,110,0,0,,4,,,76,127
90875,note_on,0,0,0,,3,,,75,127
90985,note_off,110,0,0,,3,,,75,127
90985,note_off,0,0,0,,10,,,69,127
90985,note_off,0,0,0,,0,,,72,127
90985,note_on,0,0,0,,5,,,77,127
90985,note_on,0,0,0,,11,,,70,127
91095,note_off,110,0,0,,5,,,77,127
91095,note_on,0,0,0,,3,,,75,127
91205,note_off,110,0,0,,3,,,75,127
91205,note_off,0,0,0,,11,,,70,127
91205,note_on,0,0,0,,2,,,74,127
91205,note_on,0,0,0,,11,,,70,127
91424,note_off,219,0,0,,11,,,70,127
91424,note_on,0,0,0,,6,,,66,127
91424,note_on,0,0,0,,10,,,69,127
91643,note_off,219,0,0,,10,,,69,127
91643,note_off,0,0,0,,6,,,66,127
91643,note_on,0,0,0,,0,,,72,127
91643,note_on,0,0,0,,10,,,69,127
91643,note_on,0,0,0,,6,,,66,127
91753,note_off,110,0,0,,2,,,74,127
91753,note_on,0,0,0,,10,,,81,127
91863,note_off,110,0,0,,10,,,81,127
91863,note_on,0,0,0,,3,,,75,127
92082,note_off,219,0,0,,3,,,75,127
92082,note_off,0,0,0,,6,,,66,127
92082,note_off,0,0,0,,10,,,69,127
92082,note_off,0,0,0,,0,,,72,127
92082,note_on,0,0,0,,2,,,74,127
92082,note_on,0,0,0,,0,,,72,127
92082,note_on,0,0,0,,6,,,66,127
92082,note_on,0,0,0,,10,,,69,127
92299,note_off,217,0,0,,6,,,66,127
92301,note_off,2,0,0,,10,,,69,127
92301,note_off,0,0,0,,0,,,72,127
92301,note_on,0,0,0,,11,,,70,127
92301,note_on,0,0,0,,7,,,67,127
92411,note_off,110,0,0,,2,,,74,127
92411,note_on,0,0,0,,11,,,82,127
92521,note_off,110,0,0,,11,,,82,127
92521,note_on,0,0,0,,3,,,75,127
92740,note_off,219,0,0,,3,,,75,127
92740,note_off,0,0,0,,7,,,67,127
92740,note_off,0,0,0,,11,,,70,127
92740,note_on,0,0,0,,2,,,74,127
92740,note_on,0,0,0,,11,,,70,127
92740,note_on,0,0,0,,7,,,67,127
92959,note_off,219,0,0,,7,,,67,127
92959,note_off,0,0,0,,11,,,70,127
92959,note_on,0,0,0,,0,,,72,127
92959,note_on,0,0,0,,6,,,66,127
92959,note_on,0,0,0,,10,,,69,127
93069,note_off,110,0,0,,2,,,74,127
93069,note_on,0,0,0,,0,,,84,127
93179,note_off,110,0,0,,0,,,84,127
93179,note_on,0,0,0,,3,,,75,127
93398,note_off,219,0,0,,3,,,75,127
93398,note_off,0,0,0,,10,,,69,127
93398,note_off,0,0,0,,6,,,66,127
93398,note_off,0,0,0,,0,,,72,127
93398,note_on,0,0,0,,2,,,74,127
93398,note_on,0,0,0,,0,,,72,127
93398,note_on,0,0,0,,10,,,69,127
93398,note_on,0,0,0,,6,,,66,127
93617,note_off,219,0,0,,6,,,66,127
93617,note_off,0,0,0,,10,,,69,127
93617,note_off,0,0,0,,0,,,72,127
93617,note_on,0,0,0,,12,,,71,127
93617,note_on,0,0,0,,5,,,65,127
93617,note_on,0,0,0,,7,,,67,127
93727,note_off,110,0,0,,2,,,74,127
93727,note_on,0,0,0,,8,,,80,127
93837,note_off,110,0,0,,8,,,80,127
93837,note_on,0,0,0,,3,,,75,127
94056,note_off,219,0,0,,3,,,75,127
94056,note_off,0,0,0,,7,,,67,127
94056,note_off,0,0,0,,5,,,65,127
94056,note_off,0,0,0,,12,,,71,127
94056,note_on,0,0,0,,2,,,74,127
94056,note_on,0,0,0,,12,,,71,127
94056,note_on,0,0,0,,5,,,65,127
94056,note_on,0,0,0,,7,,,67,127
94275,note_off,219,0,0,,7,,,67,127
94275,note_off,0,0,0,,5,,,65,127
94275,note_off,0,0,0,,12,,,71,127
94275,note_on,0,0,0,,12,,,71,127
94275,note_on,0,0,0,,7,,,67,127
94275,note_on,0,0,0,,5,,,65,127
94385,note_off,110,0,0,,2,,,74,127
94385,note_on,0,0,0,,5,,,77,127
94495,note_off,110,0,0,,5,,,77,127
94495,note_on,0,0,0,,3,,,75,127
94714,note_off,219,0,0,,3,,,75,127
94714,note_off,0,0,0,,5,,,65,127
94714,note_off,0,0,0,,7,,,67,127
94714,note_off,0,0,0,,12,,,71,127
94714,note_on,0,0,0,,2,,,74,127
94714,note_on,0,0,0,,12,,,71,127
94714,note_on,0,0,0,,5,,,65,127
94714,note_on,0,0,0,,7,,,67,127
94933,note_off,219,0,0,,7,,,67,127
94933,note_off,0,0,0,,5,,,65,127
94933,note_off,0,0,0,,12,,,71,127
94933,note_on,0,0,0,,12,,,71,127
94933,note_on,0,0,0,,5,,,65,127
94933,note_on,0,0,0,,7,,,67,127
95043,note_off,110,0,0,,2,,,74,127
95043,note_on,0,0,0,,5,,,77,127
95153,note_off,110,0,0,,5,,,77,127
95153,note_on,0,0,0,,3,,,75,127
95372,note_off,219,0,0,,3,,,75,127
95372,note_off,0,0,0,,7,,,67,127
95372,note_off,0,0,0,,5,,,65,127
95372,note_off,0,0,0,,12,,,71,127
95372,note_on,0,0,0,,2,,,74,127
95372,note_on,0,0,0,,12,,,71,127
95372,note_on,0,0,0,,7,,,67,127
95372,note_on,0,0,0,,5,,,65,127
95591,note_off,219,0,0,,5,,,65,127
95591,note_off,0,0,0,,7,,,67,127
95591,note_off,0,0,0,,12,,,71,127
95591,note_off,0,0,0,,2,,,74,127
95591,note_on,0,0,0,,3,,,75,127
95591,note_on,0,0,0,,0,,,72,127
95591,note_on,0,0,0,,7,,,67,127
95591,note_on,0,0,0,,3,,,63,127
95664,note_on,73,0,0,,5,,,77,127
95673,note_off,9,0,0,,3,,,75,127
95737,note_on,64,0,0,,7,,,79,127
95746,note_off,9,0,0,,5,,,77,127
95810,note_on,64,0,0,,5,,,77,127
95819,note_off,9,0,0,,7,,,79,127
95920,note_off,101,0,0,,5,,,77,127
95920,note_on,0,0,0,,3,,,75,127
96030,note_off,110,0,0,,3,,,75,127
96030,note_off,0,0,0,,3,,,63,127
96030,note_off,0,0,0,,7,,,67,127
96030,note_on,0,0,0,,2,,,74,127
96030,note_on,0,0,0,,3,,,63,127
96030,note_on,0,0,0,,7,,,67,127
96135,note_off,105,0,0,,0,,,72,127
96140,note_off,5,0,0,,2,,,74,127
96140,note_on,0,0,0,,0,,,72,127
96250,note_off,110,0,0,,0,,,72,127
96250,note_off,0,0,0,,7,,,67,127
96250,note_off,0,0,0,,3,,,63,127
96250,note_on,0,0,0,,2,,,74,127
96250,note_on,0,0,0,,11,,,70,127
96250,note_on,0,0,0,,5,,,65,127
96250,note_on,0,0,0,,2,,,62,127
96323,note_on,73,0,0,,3,,,75,127
96332,note_off,9,0,0,,2,,,74,127
96396,note_on,64,0,0,,5,,,77,127
96405,note_off,9,0,0,,3,,,75,127
96469,note_on,64,0,0,,3,,,75,127
96478,note_off,9,0,0,,5,,,77,127
96579,note_off,101,0,0,,3,,,75,127
96579,note_on,0,0,0,,2,,,74,127
96689,note_off,110,0,0,,2,,,74,127
96689,note_off,0,0,0,,2,,,62,127
96689,note_off,0,0,0,,5,,,65,127
96689,note_on,0,0,0,,0,,,72,127
96689,note_on,0,0,0,,5,,,65,127
96689,note_on,0,0,0,,2,,,62,127
96794,note_off,105,0,0,,11,,,70,127
96799,note_off,5,0,0,,0,,,72,127
96799,note_on,0,0,0,,11,,,70,127
96909,note_off,110,0,0,,11,,,70,127
96909,note_off,0,0,0,,2,,,62,127
96909,note_off,0,0,0,,5,,,65,127
96909,note_on,0,0,0,,0,,,72,127
96909,note_on,0,0,0,,10,,,69,127
96909,note_on,0,0,0,,0,,,60,127
96909,note_on,0,0,0,,3,,,63,127
96982,note_on,73,0,0,,2,,,74,127
96991,note_off,9,0,0,,0,,,72,127
97055,note_on,64,0,0,,3,,,75,127
97064,note_off,9,0,0,,2,,,74,127
97128,note_on,64,0,0,,2,,,74,127
97137,note_off,9,0,0,,3,,,75,127
97238,note_off,101,0,0,,2,,,74,127
97238,note_on,0,0,0,,0,,,72,127
97348,note_off,110,0,0,,0,,,72,127
97348,note_off,0,0,0,,3,,,63,127
97348,note_off,0,0,0,,0,,,60,127
97348,note_on,0,0,0,,11,,,70,127
97348,note_on,0,0,0,,0,,,60,127
97348,note_on,0,0,0,,3,,,63,127
97453,note_off,105,0,0,,10,,,69,127
97458,note_off,5,0,0,,11,,,70,127
97458,note_on,0,0,0,,10,,,69,127
97565,note_off,107,0,0,,0,,,60,127
97567,note_off,2,0,0,,10,,,69,127
97567,note_off,0,0,0,,3,,,63,127
97567,note_on,0,0,0,,11,,,70,127
97567,note_on,0,0,0,,5,,,65,127
97567,note_on,0,0,0,,2,,,62,127
97622,note_off,55,0,0,,11,,,70,127
97622,note_on,0,0,0,,0,,,72,127
97677,note_off,55,0,0,,0,,,72,127
97677,note_on,0,0,0,,2,,,74,127
97732,note_off,55,0,0,,2,,,74,127
97732,note_on,0,0,0,,3,,,75,127
97787,note_off,55,0,0,,3,,,75,127
97787,note_off,0,0,0,,5,,,65,127
97787,note_on,0,0,0,,5,,,77,127
97787,note_on,0,0,0,,11,,,70,127
97897,note_off,110,0,0,,5,,,77,127
97897,note_on,0,0,0,,7,,,79,127
98007,note_off,110,0,0,,7,,,79,127
98007,note_off,0,0,0,,2,,,62,127
98007,note_on,0,0,0,,10,,,81,127
98007,note_on,0,0,0,,3,,,63,127
98117,note_off,110,0,0,,10,,,81,127
98117,note_on,0,0,0,,11,,,82,127
98227,note_off,110,0,0,,11,,,82,127
98227,note_off,0,0,0,,3,,,63,127
98227,note_on,0,0,0,,2,,,74,127
98227,note_on,0,0,0,,5,,,65,127
98446,note_off,219,0,0,,2,,,74,127
98446,note_off,0,0,0,,11,,,70,127
98446,note_on,0,0,0,,0,,,72,127
98446,note_on,0,0,0,,10,,,69,127
98556,note_off,110,0,0,,0,,,72,127
98556,note_on,0,0,0,,2,,,74,127
98666,note_off,110,0,0,,2,,,74,127
98666,note_on,0,0,0,,3,,,75,127
98776,note_off,110,0,0,,3,,,75,127
98776,note_on,0,0,0,,5,,,77,127
98886,note_off,110,0,0,,5,,,77,127
98886,note_off,0,0,0,,10,,,69,127
98886,note_on,0,0,0,,5,,,77,127
98886,note_on,0,0,0,,11,,,70,127
98941,note_off,55,0,0,,5,,,77,127
98941,note_on,0,0,0,,3,,,75,127
98996,note_off,55,0,0,,3,,,75,127
98996,note_on,0,0,0,,2,,,74,127
99051,note_off,55,0,0,,2,,,74,127
99051,note_on,0,0,0,,3,,,75,127
99106,note_off,55,0,0,,3,,,75,127
99106,note_on,0,0,0,,2,,,74,127
99216,note_off,110,0,0,,2,,,74,127
99216,note_on,0,0,0,,10,,,81,127
99326,note_off,110,0,0,,10,,,81,127
99326,note_off,0,0,0,,5,,,65,127
99326,note_on,0,0,0,,11,,,82,127
99326,note_on,0,0,0,,3,,,63,127
99436,note_off,110,0,0,,11,,,82,127
99436,note_on,0,0,0,,0,,,84,127
99546,note_off,110,0,0,,0,,,84,127
99546,note_off,0,0,0,,3,,,63,127
99546,note_on,0,0,0,,2,,,74,127
99546,note_on,0,0,0,,5,,,65,127
99765,note_off,219,0,0,,2,,,74,127
99765,note_off,0,0,0,,11,,,70,127
99765,note_on,0,0,0,,0,,,72,127
99765,note_on,0,0,0,,10,,,69,127
99875,note_off,110,0,0,,0,,,72,127
99875,note_on,0,0,0,,2,,,74,127
99985,note_off,110,0,0,,2,,,74,127
99985,note_on,0,0,0,,3,,,75,127
100095,note_off,110,0,0,,3,,,75,127
100095,note_on,0,0,0,,5,,,77,127
100205,note_off,110,0,0,,5,,,77,127
100205,note_off,0,0,0,,10,,,69,127
100205,note_off,0,0,0,,5,,,65,127
100205,note_on,0,0,0,,3,,,75,127
100205,note_on,0,0,0,,11,,,70,127
100205,note_on,0,0,0,,11,,,58,127
100424,note_off,219,0,0,,3,,,75,127
100424,note_on,0,0,0,,2,,,74,127
100534,note_off,110,0,0,,2,,,74,127
100534,note_on,0,0,0,,10,,,81,127
100644,note_off,110,0,0,,10,,,81,127
100644,note_off,0,0,0,,11,,,58,127
100644,note_on,0,0,0,,11,,,82,127
100644,note_on,0,0,0,,3,,,63,127
100754,note_off,110,0,0,,11,,,82,127
100754,note_on,0,0,0,,0,,,84,127
100864,note_off,110,0,0,,0,,,84,127
100864,note_off,0,0,0,,3,,,63,127
100864,note_on,0,0,0,,2,,,74,127
100864,note_on,0,0,0,,5,,,65,127
101083,note_off,219,0,0,,2,,,74,127
101083,note_off,0,0,0,,11,,,70,127
101083,note_on,0,0,0,,0,,,72,127
101083,note_on,0,0,0,,10,,,69,127
101193,note_off,110,0,0,,5,,,65,127
101193,note_on,0,0,0,,3,,,63,127
101303,note_off,110,0,0,,3,,,63,127
101303,note_off,0,0,0,,0,,,72,127
101303,note_on,0,0,0,,5,,,77,127
101303,note_on,0,0,0,,2,,,62,127
101413,note_off,110,0,0,,2,,,62,127
101413,note_on,0,0,0,,0,,,60,127
101523,note_off,110,0,0,,0,,,60,127
101523,note_off,0,0,0,,10,,,69,127
101523,note_on,0,0,0,,2,,,62,127
101633,note_off,110,0,0,,2,,,62,127
101633,note_on,0,0,0,,5,,,65,127
101743,note_off,110,0,0,,5,,,65,127
101743,note_off,0,0,0,,5,,,77,127
101743,note_on,0,0,0,,0,,,84,127
101743,note_on,0,0,0,,10,,,57,127
101853,note_off,110,0,0,,10,,,57,127
101853,note_on,0,0,0,,0,,,60,127
101963,note_off,110,0,0,,0,,,60,127
101963,note_off,0,0,0,,0,,,84,127
101963,note_on,0,0,0,,3,,,51,127
101963,note_on,0,0,0,,5,,,53,127
102073,note_off,110,0,0,,5,,,53,127
102073,note_on,0,0,0,,0,,,60,127
102183,note_off,110,0,0,,0,,,60,127
102183,note_off,0,0,0,,3,,,51,127
102183,note_on,0,0,0,,2,,,50,127
102183,note_on,0,0,0,,11,,,58,127
102293,note_off,110,0,0,,11,,,58,127
102293,note_on,0,0,0,,5,,,65,127
102403,note_off,110,0,0,,5,,,65,127
102403,note_off,0,0,0,,2,,,50,127
102403,note_on,0,0,0,,11,,,46,127
102403,note_on,0,0,0,,2,,,62,127
102513,note_off,110,0,0,,2,,,62,127
102513,note_on,0,0,0,,5,,,65,127
102623,note_off,110,0,0,,5,,,65,127
102623,note_off,0,0,0,,11,,,46,127
102623,note_on,0,0,0,,5,,,77,127
102623,note_on,0,0,0,,11,,,58,127
102733,note_off,110,0,0,,11,,,58,127
102733,note_on,0,0,0,,5,,,65,127
102843,note_off,110,0,0,,5,,,65,127
102843,note_on,0,0,0,,11,,,58,127
102953,note_off,110,0,0,,11,,,58,127
102953,note_on,0,0,0,,2,,,62,127
103063,note_off,110,0,0,,2,,,62,127
103063,note_off,0,0,0,,5,,,77,127
103063,note_on,0,0,0,,0,,,84,127
103063,note_on,0,0,0,,10,,,57,127
103173,note_off,110,0,0,,10,,,57,127
103173,note_on,0,0,0,,5,,,65,127
103283,note_off,110,0,0,,5,,,65,127
103283,note_off,0,0,0,,0,,,84,127
103283,note_on,0,0,0,,3,,,51,127
103283,note_on,0,0,0,,5,,,53,127
103393,note_off,110,0,0,,5,,,53,127
103393,note_on,0,0,0,,5,,,65,127
103503,note_off,110,0,0,,5,,,65,127
103503,note_off,0,0,0,,3,,,51,127
103503,note_on,0,0,0,,2,,,50,127
103503,note_on,0,0,0,,11,,,58,127
103613,note_off,110,0,0,,11,,,58,127
103613,note_on,0,0,0,,5,,,65,127
103723,note_off,110,0,0,,5,,,65,127
103723,note_off,0,0,0,,2,,,50,127
103723,note_on,0,0,0,,11,,,46,127
103723,note_on,0,0,0,,2,,,62,127
103833,note_off,110,0,0,,2,,,62,127
103833,note_on,0,0,0,,5,,,65,127
103943,note_off,110,0,0,,5,,,65,127
103943,note_off,0,0,0,,11,,,46,127
103943,note_on,0,0,0,,5,,,77,127
103943,note_on,0,0,0,,11,,,58,127
104053,note_off,110,0,0,,11,,,58,127
104053,note_on,0,0,0,,5,,,65,127
104163,note_off,110,0,0,,5,,,65,127
104163,note_on,0,0,0,,11,,,58,127
104273,note_off,110,0,0,,11,,,58,127
104273,note_on,0,0,0,,2,,,62,127
104383,note_off,110,0,0,,2,,,62,127
104383,note_off,0,0,0,,5,,,77,127
104383,note_on,0,0,0,,0,,,84,127
104383,note_on,0,0,0,,10,,,57,127
104493,note_off,110,0,0,,10,,,57,127
104493,note_on,0,0,0,,5,,,65,127
104603,note_off,110,0,0,,5,,,65,127
104603,note_off,0,0,0,,0,,,84,127
104603,note_on,0,0,0,,3,,,51,127
104603,note_on,0,0,0,,5,,,53,127
104713,note_off,110,0,0,,5,,,53,127
104713,note_on,0,0,0,,5,,,65,127
104823,note_off,110,0,0,,5,,,65,127
104823,note_off,0,0,0,,3,,,51,127
104823,note_on,0,0,0,,2,,,50,127
104823,note_on,0,0,0,,11,,,58,127
104933,note_off,110,0,0,,2,,,50,127
104933,note_on,0,0,0,,11,,,46,127
105043,note_off,110,0,0,,11,,,46,127
105043,note_on,0,0,0,,2,,,50,127
105153,note_off,110,0,0,,2,,,50,127
105153,note_on,0,0,0,,5,,,53,127
105263,note_off,110,0,0,,5,,,53,127
105263,note_off,0,0,0,,11,,,58,127
105263,note_on,0,0,0,,11,,,58,127
105263,note_on,0,0,0,,2,,,50,127
105373,note_off,110,0,0,,11,,,58,127
105373,note_on,0,0,0,,2,,,62,127
105483,note_off,110,0,0,,2,,,62,127
105483,note_off,0,0,0,,2,,,50,127
105483,note_on,0,0,0,,0,,,60,127
105483,note_on,0,0,0,,3,,,51,127
105593,note_off,110,0,0,,0,,,60,127
105593,note_on,0,0,0,,3,,,63,127
105703,note_off,110,0,0,,3,,,63,127
105703,note_off,0,0,0,,3,,,51,127
105703,note_on,0,0,0,,11,,,58,127
105703,note_on,0,0,0,,5,,,53,127
105813,note_off,110,0,0,,11,,,58,127
105813,note_on,0,0,0,,2,,,62,127
105923,note_off,110,0,0,,2,,,62,127
105923,note_off,0,0,0,,5,,,53,127
105923,note_on,0,0,0,,0,,,60,127
105923,note_on,0,0,0,,5,,,41,127
106033,note_off,110,0,0,,0,,,60,127
106033,note_on,0,0,0,,10,,,57,127
106143,note_off,110,0,0,,10,,,57,127
106143,note_off,0,0,0,,5,,,41,127
106143,note_on,0,0,0,,11,,,58,127
106253,note_on,110,0,0,,5,,,65,127
106360,note_off,107,0,0,,11,,,58,127
106362,note_off,2,0,0,,5,,,65,127
106362,note_on,0,0,0,,2,,,62,127
106472,note_off,110,0,0,,2,,,62,127
106472,note_on,0,0,0,,5,,,65,127
106582,note_off,110,0,0,,5,,,65,127
106582,note_on,0,0,0,,5,,,77,127
106582,note_on,0,0,0,,11,,,58,127
106692,note_off,110,0,0,,11,,,58,127
106692,note_on,0,0,0,,5,,,65,127
106802,note_off,110,0,0,,5,,,65,127
106802,note_on,0,0,0,,11,,,58,127
106912,note_off,110,0,0,,11,,,58,127
106912,note_on,0,0,0,,2,,,62,127
107022,note_off,110,0,0,,2,,,62,127
107022,note_off,0,0,0,,5,,,77,127
107022,note_on,0,0,0,,0,,,84,127
107022,note_on,0,0,0,,10,,,57,127
107132,note_off,110,0,0,,10,,,57,127
107132,note_on,0,0,0,,5,,,65,127
107242,note_off,110,0,0,,5,,,65,127
107242,note_off,0,0,0,,0,,,84,127
107242,note_on,0,0,0,,3,,,51,127
107242,note_on,0,0,0,,5,,,53,127
107352,note_off,110,0,0,,5,,,53,127
107352,note_on,0,0,0,,5,,,65,127
107462,note_off,110,0,0,,5,,,65,127
107462,note_off,0,0,0,,3,,,51,127
107462,note_on,0,0,0,,2,,,50,127
107462,note_on,0,0,0,,11,,,58,127
107572,note_off,110,0,0,,11,,,58,127
107572,note_on,0,0,0,,5,,,65,127
107682,note_off,110,0,0,,5,,,65,127
107682,note_off,0,0,0,,2,,,50,127
107682,note_on,0,0,0,,11,,,46,127
107682,note_on,0,0,0,,2,,,62,127
107792,note_off,110,0,0,,2,,,62,127
107792,note_on,0,0,0,,5,,,65,127
107902,note_off,110,0,0,,5,,,65,127
107902,note_off,0,0,0,,11,,,46,127
107902,note_on,0,0,0,,5,,,77,127
107902,note_on,0,0,0,,11,,,58,127
108012,note_off,110,0,0,,11,,,58,127
108012,note_on,0,0,0,,5,,,65,127
108122,note_off,110,0,0,,5,,,65,127
108122,note_on,0,0,0,,11,,,58,127
108232,note_off,110,0,0,,11,,,58,127
108232,note_on,0,0,0,,2,,,62,127
108342,note_off,110,0,0,,2,,,62,127
108342,note_off,0,0,0,,5,,,77,127
108342,note_on,0,0,0,,0,,,84,127
108342,note_on,0,0,0,,10,,,57,127
108452,note_off,110,0,0,,10,,,57,127
108452,note_on,0,0,0,,5,,,65,127
108562,note_off,110,0,0,,5,,,65,127
108562,note_off,0,0,0,,0,,,84,127
108562,note_on,0,0,0,,3,,,51,127
108562,note_on,0,0,0,,5,,,53,127
108672,note_off,110,0,0,,5,,,53,127
108672,note_on,0,0,0,,5,,,65,127
108782,note_off,110,0,0,,5,,,65,127
108782,note_off,0,0,0,,3,,,51,127
108782,note_on,0,0,0,,2,,,50,127
108782,note_on,0,0,0,,11,,,58,127
108892,note_off,110,0,0,,11,,,58,127
108892,note_on,0,0,0,,5,,,65,127
109002,note_off,110,0,0,,5,,,65,127
109002,note_off,0,0,0,,2,,,50,127
109002,note_on,0,0,0,,11,,,46,127
109002,note_on,0,0,0,,2,,,62,127
109112,note_off,110,0,0,,2,,,62,127
109112,note_on,0,0,0,,5,,,65,127
109222,note_off,110,0,0,,5,,,65,127
109222,note_off,0,0,0,,11,,,46,127
109222,note_on,0,0,0,,5,,,77,127
109222,note_on,0,0,0,,11,,,58,127
109332,note_off,110,0,0,,11,,,58,127
109332,note_on,0,0,0,,5,,,65,127
109442,note_off,110,0,0,,5,,,65,127
109442,note_on,0,0,0,,11,,,58,127
109552,note_off,110,0,0,,11,,,58,127
109552,note_on,0,0,0,,2,,,62,127
109662,note_off,110,0,0,,2,,,62,127
109662,note_off,0,0,0,,5,,,77,127
109662,note_on,0,0,0,,0,,,84,127
109662,note_on,0,0,0,,10,,,57,127
109772,note_off,110,0,0,,10,,,57,127
109772,note_on,0,0,0,,5,,,65,127
109882,note_off,110,0,0,,5,,,65,127
109882,note_off,0,0,0,,0,,,84,127
109882,note_on,0,0,0,,3,,,51,127
109882,note_on,0,0,0,,5,,,53,127
109992,note_off,110,0,0,,5,,,53,127
109992,note_on,0,0,0,,5,,,65,127
110102,note_off,110,0,0,,5,,,65,127
110102,note_off,0,0,0,,3,,,51,127
110102,note_on,0,0,0,,2,,,50,127
110102,note_on,0,0,0,,11,,,58,127
110212,note_off,110,0,0,,2,,,50,127
110212,note_on,0,0,0,,11,,,46,127
110322,note_off,110,0,0,,11,,,46,127
110322,note_on,0,0,0,,2,,,50,127
110432,note_off,110,0,0,,2,,,50,127
110432,note_on,0,0,0,,5,,,53,127
110542,note_off,110,0,0,,5,,,53,127
110542,note_off,0,0,0,,11,,,58,127
110542,note_on,0,0,0,,11,,,58,127
110542,note_on,0,0,0,,2,,,50,127
110652,note_off,110,0,0,,11,,,58,127
110652,note_on,0,0,0,,2,,,62,127
110762,note_off,110,0,0,,2,,,62,127
110762,note_off,0,0,0,,2,,,50,127
110762,note_on,0,0,0,,0,,,60,127
110762,note_on,0,0,0,,3,,,51,127
110872,note_off,110,0,0,,0,,,60,127
110872,note_on,0,0,0,,3,,,63,127
110982,note_off,110,0,0,,3,,,63,127
110982,note_off,0,0,0,,3,,,51,127
110982,note_on,0,0,0,,11,,,58,127
110982,note_on,0,0,0,,5,,,53,127
111092,note_off,110,0,0,,11,,,58,127
111092,note_on,0,0,0,,2,,,62,127
111202,note_off,110,0,0,,2,,,62,127
111202,note_off,0,0,0,,5,,,53,127
111202,note_on,0,0,0,,0,,,60,127
111202,note_on,0,0,0,,5,,,41,127
111312,note_off,110,0,0,,0,,,60,127
111312,note_on,0,0,0,,10,,,57,127
111422,note_off,110,0,0,,10,,,57,127
111422,note_off,0,0,0,,5,,,41,127
111422,note_on,0,0,0,,11,,,58,127
111422,note_on,0,0,0,,11,,,46,127
111532,note_off,110,0,0,,11,,,58,127
111532,note_on,0,0,0,,2,,,62,127
111642,note_off,110,0,0,,2,,,62,127
111642,note_on,0,0,0,,5,,,65,127
111752,note_off,110,0,0,,5,,,65,127
111752,note_on,0,0,0,,11,,,70,127
111862,note_off,110,0,0,,11,,,70,127
111862,note_off,0,0,0,,11,,,46,127
111862,note_on,0,0,0,,2,,,74,127
111862,note_on,0,0,0,,11,,,58,127
111862,note_on,0,0,0,,2,,,50,127
111972,note_off,110,0,0,,2,,,74,127
111972,note_on,0,0,0,,5,,,77,127
112082,note_off,110,0,0,,5,,,77,127
112082,note_off,0,0,0,,2,,,50,127
112082,note_off,0,0,0,,11,,,58,127
112082,note_on,0,0,0,,0,,,72,127
112082,note_on,0,0,0,,0,,,60,127
112082,note_on,0,0,0,,3,,,51,127
112192,note_off,110,0,0,,0,,,72,127
112192,note_on,0,0,0,,3,,,75,127
112302,note_off,110,0,0,,3,,,75,127
112302,note_off,0,0,0,,3,,,51,127
112302,note_off,0,0,0,,0,,,60,127
112302,note_on,0,0,0,,11,,,70,127
112302,note_on,0,0,0,,2,,,62,127
112302,note_on,0,0,0,,11,,,58,127
112302,note_on,0,0,0,,5,,,53,127
112412,note_off,110,0,0,,11,,,70,127
112412,note_on,0,0,0,,2,,,74,127
112522,note_off,110,0,0,,2,,,74,127
112522,note_off,0,0,0,,5,,,53,127
112522,note_off,0,0,0,,11,,,58,127
112522,note_off,0,0,0,,2,,,62,127
112522,note_on,0,0,0,,0,,,72,127
112522,note_on,0,0,0,,3,,,63,127
112522,note_on,0,0,0,,0,,,60,127
112522,note_on,0,0,0,,5,,,53,127
112632,note_off,110,0,0,,0,,,72,127
112632,note_on,0,0,0,,10,,,69,127
112742,note_off,110,0,0,,10,,,69,127
112742,note_on,0,0,0,,11,,,70,127
112742,note_on,0,0,0,,11,,,46,127
112769,note_off,27,0,0,,5,,,53,127
112769,note_off,0,0,0,,0,,,60,127
112851,note_off,82,0,0,,11,,,70,127
112851,note_off,0,0,0,,3,,,63,127
112851,note_on,0,0,0,,4,,,76,127
112851,note_on,0,0,0,,1,,,73,127
112933,note_off,82,0,0,,11,,,46,127
112960,note_off,27,0,0,,1,,,73,127
112960,note_off,0,0,0,,4,,,76,127
112960,note_on,0,0,0,,5,,,77,127
112960,note_on,0,0,0,,2,,,74,127
112960,note_on,0,0,0,,11,,,70,127
113070,note_off,110,0,0,,2,,,74,127
113070,note_off,0,0,0,,5,,,77,127
113070,note_on,0,0,0,,4,,,76,127
113070,note_on,0,0,0,,1,,,73,127
113180,note_off,110,0,0,,1,,,73,127
113180,note_off,0,0,0,,4,,,76,127
113180,note_off,0,0,0,,11,,,70,127
113180,note_on,0,0,0,,5,,,77,127
113180,note_on,0,0,0,,2,,,74,127
113180,note_on,0,0,0,,10,,,69,127
113399,note_off,219,0,0,,10,,,69,127
113399,note_on,0,0,0,,11,,,46,127
113509,note_off,110,0,0,,2,,,74,127
113509,note_off,0,0,0,,5,,,77,127
113509,note_on,0,0,0,,6,,,78,127
113509,note_on,0,0,0,,2,,,74,127
113619,note_off,110,0,0,,2,,,74,127
113619,note_off,0,0,0,,6,,,78,127
113619,note_off,0,0,0,,11,,,46,127
113619,note_on,0,0,0,,7,,,79,127
113619,note_on,0,0,0,,3,,,75,127
113619,note_on,0,0,0,,7,,,67,127
113729,note_off,110,0,0,,3,,,75,127
113729,note_off,0,0,0,,7,,,79,127
113729,note_on,0,0,0,,6,,,78,127
113729,note_on,0,0,0,,2,,,74,127
113839,note_off,110,0,0,,2,,,74,127
113839,note_off,0,0,0,,6,,,78,127
113839,note_off,0,0,0,,7,,,67,127
113839,note_on,0,0,0,,7,,,79,127
113839,note_on,0,0,0,,3,,,75,127
113839,note_on,0,0,0,,5,,,65,127
114058,note_off,219,0,0,,5,,,65,127
114058,note_on,0,0,0,,3,,,51,127
114168,note_off,110,0,0,,3,,,75,127
114168,note_off,0,0,0,,7,,,79,127
114168,note_on,0,0,0,,10,,,81,127
114168,note_on,0,0,0,,6,,,78,127
114278,note_off,110,0,0,,6,,,78,127
114278,note_off,0,0,0,,10,,,81,127
114278,note_off,0,0,0,,3,,,51,127
114278,note_on,0,0,0,,11,,,82,127
114278,note_on,0,0,0,,7,,,79,127
114278,note_on,0,0,0,,3,,,63,127
114388,note_off,110,0,0,,7,,,79,127
114388,note_off,0,0,0,,11,,,82,127
114388,note_on,0,0,0,,10,,,81,127
114388,note_on,0,0,0,,6,,,78,127
114498,note_off,110,0,0,,6,,,78,127
114498,note_off,0,0,0,,10,,,81,127
114498,note_off,0,0,0,,3,,,63,127
114498,note_on,0,0,0,,11,,,82,127
114498,note_on,0,0,0,,7,,,79,127
114498,note_on,0,0,0,,2,,,62,127
114717,note_off,219,0,0,,2,,,62,127
114717,note_on,0,0,0,,3,,,63,127
114827,note_off,110,0,0,,7,,,79,127
114827,note_off,0,0,0,,11,,,82,127
114827,note_on,0,0,0,,10,,,81,127
114827,note_on,0,0,0,,5,,,77,127
114882,note_off,55,0,0,,5,,,77,127
114882,note_off,0,0,0,,10,,,81,127
114882,note_on,0,0,0,,7,,,79,127
114882,note_on,0,0,0,,3,,,75,127
114937,note_off,55,0,0,,3,,,75,127
114937,note_off,0,0,0,,7,,,79,127
114937,note_off,0,0,0,,3,,,63,127
114937,note_on,0,0,0,,5,,,77,127
114937,note_on,0,0,0,,2,,,74,127
114937,note_on,0,0,0,,5,,,65,127
115047,note_off,110,0,0,,2,,,74,127
115047,note_off,0,0,0,,5,,,77,127
115047,note_on,0,0,0,,3,,,75,127
115047,note_on,0,0,0,,0,,,72,127
115157,note_off,110,0,0,,0,,,72,127
115157,note_off,0,0,0,,3,,,75,127
115157,note_off,0,0,0,,5,,,65,127
115157,note_on,0,0,0,,2,,,74,127
115157,note_on,0,0,0,,11,,,70,127
115157,note_on,0,0,0,,5,,,53,127
115267,note_off,110,0,0,,11,,,70,127
115267,note_off,0,0,0,,2,,,74,127
115267,note_on,0,0,0,,0,,,72,127
115267,note_on,0,0,0,,10,,,69,127
115377,note_off,110,0,0,,10,,,69,127
115377,note_off,0,0,0,,0,,,72,127
115377,note_off,0,0,0,,5,,,53,127
115377,note_on,0,0,0,,2,,,74,127
115377,note_on,0,0,0,,11,,,70,127
115377,note_on,0,0,0,,11,,,58,127
115487,note_off,110,0,0,,11,,,70,127
115487,note_off,0,0,0,,2,,,74,127
115487,note_on,0,0,0,,4,,,76,127
115487,note_on,0,0,0,,1,,,73,127
115597,note_off,110,0,0,,1,,,73,127
115597,note_off,0,0,0,,4,,,76,127
115597,note_on,0,0,0,,5,,,77,127
115597,note_on,0,0,0,,2,,,74,127
115597,note_on,0,0,0,,11,,,70,127
115652,note_off,55,0,0,,11,,,58,127
115707,note_off,55,0,0,,2,,,74,127
115707,note_off,0,0,0,,5,,,77,127
115707,note_on,0,0,0,,4,,,76,127
115707,note_on,0,0,0,,1,,,73,127
115817,note_off,110,0,0,,1,,,73,127
115817,note_off,0,0,0,,4,,,76,127
115817,note_off,0,0,0,,11,,,70,127
115817,note_on,0,0,0,,5,,,77,127
115817,note_on,0,0,0,,2,,,74,127
115817,note_on,0,0,0,,10,,,69,127
116036,note_off,219,0,0,,10,,,69,127
116036,note_on,0,0,0,,7,,,55,127
116146,note_off,110,0,0,,2,,,74,127
116146,note_off,0,0,0,,5,,,77,127
116146,note_on,0,0,0,,6,,,78,127
116146,note_on,0,0,0,,2,,,74,127
116256,note_off,110,0,0,,2,,,74,127
116256,note_off,0,0,0,,6,,,78,127
116256,note_on,0,0,0,,7,,,79,127
116256,note_on,0,0,0,,3,,,75,127
116256,note_on,0,0,0,,7,,,67,127
116311,note_off,55,0,0,,7,,,55,127
116366,note_off,55,0,0,,3,,,75,127
116366,note_off,0,0,0,,7,,,79,127
116366,note_on,0,0,0,,6,,,78,127
116366,note_on,0,0,0,,2,,,74,127
116476,note_off,110,0,0,,2,,,74,127
116476,note_off,0,0,0,,6,,,78,127
116476,note_off,0,0,0,,7,,,67,127
116476,note_on,0,0,0,,7,,,79,127
116476,note_on,0,0,0,,3,,,75,127
116476,note_on,0,0,0,,5,,,65,127
116695,note_off,219,0,0,,5,,,65,127
116695,note_on,0,0,0,,3,,,51,127
116805,note_off,110,0,0,,3,,,75,127
116805,note_off,0,0,0,,7,,,79,127
116805,note_on,0,0,0,,10,,,81,127
116805,note_on,0,0,0,,0,,,72,127
116915,note_off,110,0,0,,0,,,72,127
116915,note_off,0,0,0,,10,,,81,127
116915,note_on,0,0,0,,11,,,82,127
116915,note_on,0,0,0,,2,,,74,127
116915,note_on,0,0,0,,3,,,63,127
116970,note_off,55,0,0,,3,,,51,127
117025,note_off,55,0,0,,2,,,74,127
117025,note_off,0,0,0,,11,,,82,127
117025,note_on,0,0,0,,10,,,81,127
117025,note_on,0,0,0,,0,,,72,127
117135,note_off,110,0,0,,0,,,72,127
117135,note_off,0,0,0,,10,,,81,127
117135,note_off,0,0,0,,3,,,63,127
117135,note_on,0,0,0,,11,,,82,127
117135,note_on,0,0,0,,11,,,70,127
117135,note_on,0,0,0,,2,,,62,127
117245,note_off,110,0,0,,11,,,82,127
117245,note_on,0,0,0,,5,,,77,127
117355,note_off,110,0,0,,5,,,77,127
117355,note_off,0,0,0,,2,,,62,127
117355,note_off,0,0,0,,11,,,70,127
117355,note_on,0,0,0,,7,,,79,127
117355,note_on,0,0,0,,3,,,63,127
117465,note_off,110,0,0,,7,,,79,127
117465,note_on,0,0,0,,3,,,75,127
117575,note_off,110,0,0,,3,,,75,127
117575,note_off,0,0,0,,3,,,63,127
117575,note_on,0,0,0,,2,,,74,127
117575,note_on,0,0,0,,5,,,65,127
117685,note_off,110,0,0,,2,,,74,127
117685,note_on,0,0,0,,0,,,72,127
117795,note_off,110,0,0,,0,,,72,127
117795,note_on,0,0,0,,11,,,70,127
117795,note_on,0,0,0,,5,,,53,127
117905,note_off,110,0,0,,11,,,70,127
117905,note_on,0,0,0,,10,,,69,127
118010,note_off,105,0,0,,5,,,65,127
118015,note_off,5,0,0,,5,,,53,127
118020,note_off,5,0,0,,10,,,69,127
118021,note_on,1,0,0,,11,,,58,127
118021,note_on,0,0,0,,11,,,70,127
118138,note_on,117,0,0,,5,,,77,127
118194,note_off,56,0,0,,11,,,70,127
118252,note_off,58,0,0,,5,,,77,127
118254,note_on,2,0,0,,11,,,46,127
118254,note_on,0,0,0,,2,,,74,127
118368,note_off,114,0,0,,2,,,74,127
118370,note_on,2,0,0,,11,,,70,127
118476,note_off,106,0,0,,11,,,58,127
118483,note_off,7,0,0,,11,,,46,127
118484,note_off,1,0,0,,11,,,70,127
118485,note_on,1,0,0,,2,,,50,127
118485,note_on,0,0,0,,5,,,65,127
118599,note_off,114,0,0,,5,,,65,127
118601,note_on,2,0,0,,2,,,62,127
118714,note_off,113,0,0,,2,,,50,127
118715,note_off,1,0,0,,2,,,62,127
118717,note_on,2,0,0,,3,,,51,127
118717,note_on,0,0,0,,0,,,60,127
118831,note_off,114,0,0,,0,,,60,127
118833,note_on,2,0,0,,3,,,63,127
118946,note_off,113,0,0,,3,,,51,127
118947,note_off,1,0,0,,3,,,63,127
118948,note_on,1,0,0,,5,,,53,127
118948,note_on,0,0,0,,2,,,62,127
119062,note_off,114,0,0,,2,,,62,127
119064,note_on,2,0,0,,11,,,58,127
119178,note_off,114,0,0,,11,,,58,127
119180,note_on,2,0,0,,5,,,41,127
119180,note_on,0,0,0,,0,,,60,127
119294,note_off,114,0,0,,0,,,60,127
119305,note_on,11,0,0,,10,,,57,127
119402,note_off,97,0,0,,5,,,53,127
119409,note_off,7,0,0,,5,,,41,127
119419,note_off,10,0,0,,10,,,57,127
119441,note_on,22,0,0,,11,,,46,127
119441,note_on,0,0,0,,11,,,58,127
121601,note_off,2160,0,0,,11,,,58,127
121601,note_off,0,0,0,,11,,,46,127
125952,end_of_track,4351,1,0,,,,,,
