tick,type,time,meta,track,program,channel,pitch,tempo,note,velocity
0,copyright,0,1,0,,,,,,
0,program_change,0,0,0,6,0,,,,
0,pitchwheel,0,0,0,,0,0,,,
0,program_change,0,0,0,6,1,,,,
0,pitchwheel,0,0,0,,1,-590,,,
0,program_change,0,0,0,6,2,,,,
0,pitchwheel,0,0,0,,2,-272,,,
0,program_change,0,0,0,6,3,,,,
0,pitchwheel,0,0,0,,3,-353,,,
0,program_change,0,0,0,6,4,,,,
0,pitchwheel,0,0,0,,4,-560,,,
0,program_change,0,0,0,6,5,,,,
0,pitchwheel,0,0,0,,5,-80,,,
0,program_change,0,0,0,6,6,,,,
0,pitchwheel,0,0,0,,6,-625,,,
0,program_change,0,0,0,6,7,,,,
0,pitchwheel,0,0,0,,7,-130,,,
0,program_change,0,0,0,6,8,,,,
0,pitchwheel,0,0,0,,8,-512,,,
0,program_change,0,0,0,6,10,,,,
0,pitchwheel,0,0,0,,10,-464,,,
0,program_change,0,0,0,6,11,,,,
0,pitchwheel,0,0,0,,11,-208,,,
0,program_change,0,0,0,6,12,,,,
0,pitchwheel,0,0,0,,12,-553,,,
0,set_tempo,0,1,0,,,,500000,,
49,note_on,49,0,0,,0,,,72,127
1229,note_off,1180,0,0,,0,,,72,127
1231,note_on,2,0,0,,12,,,71,127
1820,note_off,589,0,0,,12,,,71,127
1822,note_on,2,0,0,,11,,,70,127
2411,note_off,589,0,0,,11,,,70,127
2413,note_on,2,0,0,,10,,,69,127
3002,note_off,589,0,0,,10,,,69,127
3004,note_on,2,0,0,,8,,,68,127
3593,note_off,589,0,0,,8,,,68,127
3595,note_on,2,0,0,,7,,,67,127
4173,note_off,578,0,0,,7,,,67,127
4185,note_on,12,0,0,,3,,,63,127
4185,note_on,0,0,0,,0,,,72,127
4774,note_off,589,0,0,,3,,,63,127
4776,note_on,2,0,0,,5,,,65,127
5365,note_off,589,0,0,,5,,,65,127
5365,note_off,0,0,0,,0,,,72,127
5367,note_on,2,0,0,,7,,,67,127
5367,note_on,0,0,0,,12,,,71,127
5956,note_off,589,0,0,,12,,,71,127
5956,note_off,0,0,0,,7,,,67,127
5958,note_on,2,0,0,,0,,,60,127
5958,note_on,0,0,0,,0,,,72,127
6252,note_off,294,0,0,,0,,,60,127
6254,note_on,2,0,0,,2,,,62,127
6548,note_off,294,0,0,,2,,,62,127
6550,note_on,2,0,0,,3,,,63,127
6844,note_off,294,0,0,,3,,,63,127
6846,note_on,2,0,0,,5,,,65,127
7129,note_off,283,0,0,,0,,,72,127
7140,note_off,11,0,0,,5,,,65,127
7142,note_on,2,0,0,,12,,,71,127
7142,note_on,0,0,0,,7,,,67,127
7142,note_on,0,0,0,,7,,,79,127
7434,note_off,292,0,0,,12,,,71,127
7436,note_off,2,0,0,,7,,,67,127
7438,note_on,2,0,0,,10,,,69,127
7732,note_off,294,0,0,,10,,,69,127
7734,note_on,2,0,0,,12,,,71,127
8028,note_off,294,0,0,,12,,,71,127
8030,note_on,2,0,0,,0,,,72,127
8324,note_off,294,0,0,,0,,,72,127
8324,note_off,0,0,0,,7,,,79,127
8326,note_on,2,0,0,,2,,,74,127
8326,note_on,0,0,0,,6,,,78,127
8620,note_off,294,0,0,,2,,,74,127
8622,note_on,2,0,0,,0,,,72,127
8768,note_off,146,0,0,,0,,,72,127
8770,note_on,2,0,0,,12,,,71,127
8916,note_off,146,0,0,,12,,,71,127
8916,note_off,0,0,0,,6,,,78,127
8918,note_on,2,0,0,,10,,,69,127
8918,note_on,0,0,0,,5,,,77,127
9212,note_off,294,0,0,,10,,,69,127
9214,note_on,2,0,0,,12,,,71,127
9508,note_off,294,0,0,,12,,,71,127
9508,note_off,0,0,0,,5,,,77,127
9510,note_on,2,0,0,,0,,,72,127
9510,note_on,0,0,0,,4,,,76,127
9804,note_off,294,0,0,,0,,,72,127
9806,note_on,2,0,0,,11,,,70,127
9952,note_off,146,0,0,,11,,,70,127
9954,note_on,2,0,0,,10,,,69,127
10100,note_off,146,0,0,,10,,,69,127
10100,note_off,0,0,0,,4,,,76,127
10102,note_on,2,0,0,,7,,,67,127
10102,note_on,0,0,0,,3,,,75,127
10396,note_off,294,0,0,,7,,,67,127
10398,note_on,2,0,0,,10,,,69,127
10692,note_off,294,0,0,,10,,,69,127
10692,note_off,0,0,0,,3,,,75,127
10694,note_on,2,0,0,,11,,,70,127
10694,note_on,0,0,0,,2,,,74,127
11283,note_off,589,0,0,,2,,,74,127
11283,note_off,0,0,0,,11,,,70,127
11285,note_on,2,0,0,,11,,,70,127
11285,note_on,0,0,0,,7,,,79,127
11874,note_off,589,0,0,,11,,,70,127
11876,note_on,2,0,0,,0,,,72,127
12465,note_off,589,0,0,,0,,,72,127
12465,note_off,0,0,0,,7,,,79,127
12467,note_on,2,0,0,,2,,,74,127
12467,note_on,0,0,0,,6,,,78,127
13056,note_off,589,0,0,,6,,,78,127
13056,note_off,0,0,0,,2,,,74,127
13058,note_on,2,0,0,,7,,,67,127
13058,note_on,0,0,0,,7,,,79,127
13352,note_off,294,0,0,,7,,,67,127
13354,note_on,2,0,0,,7,,,67,127
13648,note_off,294,0,0,,7,,,67,127
13650,note_on,2,0,0,,10,,,69,127
13944,note_off,294,0,0,,10,,,69,127
13944,note_off,0,0,0,,7,,,79,127
13946,note_on,2,0,0,,12,,,71,127
13946,note_on,0,0,0,,5,,,77,127
14240,note_off,294,0,0,,5,,,77,127
14240,note_off,0,0,0,,12,,,71,127
14242,note_on,2,0,0,,0,,,60,127
14242,note_on,0,0,0,,0,,,72,127
14242,note_on,0,0,0,,3,,,75,127
14536,note_off,294,0,0,,0,,,72,127
14538,note_on,2,0,0,,7,,,67,127
14832,note_off,294,0,0,,7,,,67,127
14834,note_on,2,0,0,,0,,,72,127
15128,note_off,294,0,0,,3,,,75,127
15130,note_on,2,0,0,,5,,,77,127
15424,note_off,294,0,0,,5,,,77,127
15424,note_off,0,0,0,,0,,,72,127
15424,note_off,0,0,0,,0,,,60,127
15426,note_on,2,0,0,,12,,,59,127
15426,note_on,0,0,0,,2,,,74,127
15426,note_on,0,0,0,,7,,,79,127
15720,note_off,294,0,0,,7,,,79,127
15722,note_on,2,0,0,,5,,,77,127
15868,note_off,146,0,0,,5,,,77,127
15870,note_on,2,0,0,,3,,,75,127
16016,note_off,146,0,0,,3,,,75,127
16016,note_off,0,0,0,,2,,,74,127
16016,note_off,0,0,0,,12,,,59,127
16018,note_on,2,0,0,,11,,,58,127
16018,note_on,0,0,0,,7,,,67,127
16018,note_on,0,0,0,,2,,,74,127
16312,note_off,294,0,0,,2,,,74,127
16314,note_on,2,0,0,,3,,,75,127
16608,note_off,294,0,0,,3,,,75,127
16608,note_off,0,0,0,,7,,,67,127
16608,note_off,0,0,0,,11,,,58,127
16610,note_on,2,0,0,,10,,,57,127
16610,note_on,0,0,0,,0,,,72,127
16610,note_on,0,0,0,,5,,,77,127
16904,note_off,294,0,0,,5,,,77,127
16906,note_on,2,0,0,,3,,,75,127
17052,note_off,146,0,0,,3,,,75,127
17054,note_on,2,0,0,,2,,,74,127
17200,note_off,146,0,0,,2,,,74,127
17200,note_off,0,0,0,,0,,,72,127
17200,note_off,0,0,0,,10,,,57,127
17202,note_on,2,0,0,,8,,,56,127
17202,note_on,0,0,0,,5,,,65,127
17202,note_on,0,0,0,,0,,,72,127
17496,note_off,294,0,0,,0,,,72,127
17498,note_on,2,0,0,,2,,,74,127
17792,note_off,294,0,0,,2,,,74,127
17792,note_off,0,0,0,,5,,,65,127
17792,note_off,0,0,0,,8,,,56,127
17794,note_on,2,0,0,,7,,,55,127
17794,note_on,0,0,0,,7,,,67,127
17794,note_on,0,0,0,,3,,,75,127
18088,note_off,294,0,0,,7,,,67,127
18090,note_on,2,0,0,,10,,,69,127
18236,note_off,146,0,0,,10,,,69,127
18238,note_on,2,0,0,,12,,,71,127
18384,note_off,146,0,0,,12,,,71,127
18384,note_off,0,0,0,,7,,,55,127
18386,note_on,2,0,0,,3,,,51,127
18386,note_on,0,0,0,,0,,,60,127
18386,note_on,0,0,0,,0,,,72,127
18975,note_off,589,0,0,,0,,,72,127
18975,note_off,0,0,0,,3,,,51,127
18975,note_off,0,0,0,,3,,,75,127
18977,note_on,2,0,0,,5,,,53,127
18977,note_on,0,0,0,,5,,,65,127
18977,note_on,0,0,0,,2,,,74,127
19271,note_off,294,0,0,,5,,,65,127
19273,note_on,2,0,0,,7,,,67,127
19419,note_off,146,0,0,,7,,,67,127
19421,note_on,2,0,0,,8,,,68,127
19567,note_off,146,0,0,,8,,,68,127
19567,note_off,0,0,0,,5,,,53,127
19567,note_off,0,0,0,,0,,,60,127
19569,note_on,2,0,0,,7,,,55,127
19569,note_on,0,0,0,,12,,,59,127
19569,note_on,0,0,0,,7,,,67,127
19863,note_off,294,0,0,,7,,,67,127
19865,note_on,2,0,0,,5,,,65,127
20159,note_off,294,0,0,,5,,,65,127
20159,note_off,0,0,0,,12,,,59,127
20159,note_off,0,0,0,,7,,,55,127
20159,note_off,0,0,0,,2,,,74,127
20161,note_on,2,0,0,,0,,,48,127
20161,note_on,0,0,0,,0,,,60,127
20161,note_on,0,0,0,,3,,,63,127
20161,note_on,0,0,0,,0,,,72,127
20455,note_off,294,0,0,,3,,,63,127
20455,note_off,0,0,0,,0,,,48,127
20457,note_on,2,0,0,,2,,,50,127
20457,note_on,0,0,0,,5,,,65,127
20603,note_off,146,0,0,,5,,,65,127
20605,note_on,2,0,0,,7,,,67,127
20747,note_off,142,0,0,,0,,,60,127
20752,note_off,5,0,0,,7,,,67,127
20752,note_off,0,0,0,,2,,,50,127
20754,note_on,2,0,0,,3,,,51,127
20754,note_on,0,0,0,,0,,,60,127
20754,note_on,0,0,0,,5,,,65,127
21048,note_off,294,0,0,,5,,,65,127
21048,note_off,0,0,0,,3,,,51,127
21050,note_on,2,0,0,,5,,,53,127
21050,note_on,0,0,0,,3,,,63,127
21339,note_off,289,0,0,,0,,,60,127
21344,note_off,5,0,0,,3,,,63,127
21344,note_off,0,0,0,,5,,,53,127
21344,note_off,0,0,0,,0,,,72,127
21346,note_on,2,0,0,,7,,,43,127
21346,note_on,0,0,0,,7,,,55,127
21346,note_on,0,0,0,,2,,,62,127
21346,note_on,0,0,0,,11,,,70,127
21640,note_off,294,0,0,,11,,,70,127
21642,note_on,2,0,0,,7,,,67,127
21936,note_off,294,0,0,,7,,,67,127
21936,note_off,0,0,0,,2,,,62,127
21938,note_on,2,0,0,,7,,,67,127
21938,note_on,0,0,0,,11,,,70,127
22232,note_off,294,0,0,,11,,,70,127
22234,note_on,2,0,0,,0,,,72,127
22528,note_off,294,0,0,,0,,,72,127
22528,note_off,0,0,0,,7,,,67,127
22528,note_off,0,0,0,,7,,,55,127
22528,note_off,0,0,0,,7,,,43,127
22530,note_on,2,0,0,,6,,,42,127
22530,note_on,0,0,0,,6,,,54,127
22530,note_on,0,0,0,,10,,,69,127
22530,note_on,0,0,0,,2,,,74,127
22824,note_off,294,0,0,,2,,,74,127
22826,note_on,2,0,0,,0,,,72,127
22972,note_off,146,0,0,,0,,,72,127
22974,note_on,2,0,0,,11,,,70,127
23120,note_off,146,0,0,,11,,,70,127
23120,note_off,0,0,0,,10,,,69,127
23120,note_off,0,0,0,,6,,,54,127
23120,note_off,0,0,0,,6,,,42,127
23122,note_on,2,0,0,,5,,,41,127
23122,note_on,0,0,0,,5,,,53,127
23122,note_on,0,0,0,,2,,,62,127
23122,note_on,0,0,0,,10,,,69,127
23416,note_off,294,0,0,,10,,,69,127
23418,note_on,2,0,0,,11,,,70,127
23712,note_off,294,0,0,,11,,,70,127
23712,note_off,0,0,0,,2,,,62,127
23712,note_off,0,0,0,,5,,,53,127
23712,note_off,0,0,0,,5,,,41,127
23714,note_on,2,0,0,,4,,,40,127
23714,note_on,0,0,0,,4,,,52,127
23714,note_on,0,0,0,,7,,,67,127
23714,note_on,0,0,0,,0,,,72,127
24008,note_off,294,0,0,,0,,,72,127
24010,note_on,2,0,0,,11,,,70,127
24156,note_off,146,0,0,,11,,,70,127
24158,note_on,2,0,0,,10,,,69,127
24304,note_off,146,0,0,,10,,,69,127
24304,note_off,0,0,0,,7,,,67,127
24304,note_off,0,0,0,,4,,,52,127
24304,note_off,0,0,0,,4,,,40,127
24306,note_on,2,0,0,,3,,,51,127
24306,note_on,0,0,0,,0,,,60,127
24306,note_on,0,0,0,,7,,,67,127
24600,note_off,294,0,0,,7,,,67,127
24602,note_on,2,0,0,,10,,,69,127
24896,note_off,294,0,0,,10,,,69,127
24896,note_off,0,0,0,,0,,,60,127
24896,note_off,0,0,0,,3,,,51,127
24898,note_on,2,0,0,,2,,,50,127
24898,note_on,0,0,0,,2,,,62,127
24898,note_on,0,0,0,,11,,,70,127
25192,note_off,294,0,0,,2,,,62,127
25194,note_on,2,0,0,,3,,,63,127
25340,note_off,146,0,0,,3,,,63,127
25342,note_on,2,0,0,,5,,,65,127
25488,note_off,146,0,0,,5,,,65,127
25488,note_off,0,0,0,,2,,,50,127
25490,note_on,2,0,0,,7,,,55,127
25490,note_on,0,0,0,,11,,,46,127
25490,note_on,0,0,0,,7,,,67,127
25784,note_off,294,0,0,,11,,,70,127
25786,note_on,2,0,0,,0,,,72,127
25932,note_off,146,0,0,,0,,,72,127
25934,note_on,2,0,0,,11,,,70,127
26080,note_off,146,0,0,,11,,,70,127
26080,note_off,0,0,0,,11,,,46,127
26082,note_on,2,0,0,,0,,,48,127
26082,note_on,0,0,0,,0,,,72,127
26376,note_off,294,0,0,,0,,,72,127
26378,note_on,2,0,0,,3,,,75,127
26672,note_off,294,0,0,,3,,,75,127
26672,note_off,0,0,0,,0,,,48,127
26672,note_off,0,0,0,,7,,,67,127
26672,note_off,0,0,0,,7,,,55,127
26674,note_on,2,0,0,,6,,,54,127
26674,note_on,0,0,0,,2,,,50,127
26674,note_on,0,0,0,,6,,,66,127
26674,note_on,0,0,0,,2,,,74,127
26968,note_off,294,0,0,,2,,,74,127
26970,note_on,2,0,0,,0,,,72,127
27264,note_off,294,0,0,,0,,,72,127
27264,note_off,0,0,0,,6,,,66,127
27264,note_off,0,0,0,,2,,,50,127
27264,note_off,0,0,0,,6,,,54,127
27266,note_on,2,0,0,,7,,,55,127
27266,note_on,0,0,0,,7,,,43,127
27266,note_on,0,0,0,,7,,,67,127
27266,note_on,0,0,0,,12,,,71,127
27560,note_off,294,0,0,,12,,,71,127
27560,note_off,0,0,0,,7,,,43,127
27562,note_on,2,0,0,,7,,,43,127
27562,note_on,0,0,0,,12,,,71,127
27851,note_off,289,0,0,,7,,,55,127
27856,note_off,5,0,0,,12,,,71,127
27856,note_off,0,0,0,,7,,,43,127
27856,note_off,0,0,0,,7,,,67,127
27858,note_on,2,0,0,,10,,,45,127
27858,note_on,0,0,0,,5,,,53,127
27858,note_on,0,0,0,,5,,,65,127
27858,note_on,0,0,0,,0,,,72,127
28152,note_off,294,0,0,,0,,,72,127
28152,note_off,0,0,0,,10,,,45,127
28154,note_on,2,0,0,,12,,,47,127
28154,note_on,0,0,0,,2,,,74,127
28443,note_off,289,0,0,,5,,,53,127
28448,note_off,5,0,0,,2,,,74,127
28448,note_off,0,0,0,,12,,,47,127
28448,note_off,0,0,0,,5,,,65,127
28450,note_on,2,0,0,,0,,,48,127
28450,note_on,0,0,0,,7,,,67,127
28450,note_on,0,0,0,,3,,,63,127
28450,note_on,0,0,0,,0,,,60,127
28450,note_on,0,0,0,,0,,,72,127
28744,note_off,294,0,0,,0,,,60,127
28744,note_off,0,0,0,,3,,,63,127
28744,note_off,0,0,0,,7,,,67,127
28744,note_off,0,0,0,,0,,,48,127
28746,note_on,2,0,0,,2,,,50,127
28746,note_on,0,0,0,,5,,,65,127
29040,note_off,294,0,0,,5,,,65,127
29040,note_off,0,0,0,,2,,,50,127
29042,note_on,2,0,0,,3,,,51,127
29042,note_on,0,0,0,,7,,,67,127
29336,note_off,294,0,0,,7,,,67,127
29336,note_off,0,0,0,,3,,,51,127
29338,note_on,2,0,0,,5,,,53,127
29338,note_on,0,0,0,,8,,,68,127
29632,note_off,294,0,0,,8,,,68,127
29632,note_off,0,0,0,,5,,,53,127
29632,note_off,0,0,0,,0,,,72,127
29634,note_on,2,0,0,,7,,,55,127
29634,note_on,0,0,0,,7,,,67,127
29634,note_on,0,0,0,,12,,,71,127
29928,note_off,294,0,0,,7,,,67,127
29930,note_on,2,0,0,,5,,,65,127
30076,note_off,146,0,0,,5,,,65,127
30078,note_on,2,0,0,,3,,,63,127
30224,note_off,146,0,0,,3,,,63,127
30224,note_off,0,0,0,,12,,,71,127
30226,note_on,2,0,0,,2,,,62,127
30226,note_on,0,0,0,,11,,,70,127
30374,note_off,148,0,0,,7,,,55,127
30520,note_off,146,0,0,,2,,,62,127
30522,note_on,2,0,0,,0,,,48,127
30522,note_on,0,0,0,,4,,,64,127
30816,note_off,294,0,0,,4,,,64,127
30816,note_off,0,0,0,,0,,,48,127
30816,note_off,0,0,0,,11,,,70,127
30818,note_on,2,0,0,,5,,,53,127
30818,note_on,0,0,0,,5,,,65,127
30818,note_on,0,0,0,,10,,,69,127
31112,note_off,294,0,0,,5,,,65,127
31114,note_on,2,0,0,,3,,,63,127
31260,note_off,146,0,0,,3,,,63,127
31262,note_on,2,0,0,,2,,,62,127
31408,note_off,146,0,0,,2,,,62,127
31408,note_off,0,0,0,,10,,,69,127
31410,note_on,2,0,0,,0,,,60,127
31410,note_on,0,0,0,,8,,,68,127
31558,note_off,148,0,0,,5,,,53,127
31704,note_off,146,0,0,,0,,,60,127
31706,note_on,2,0,0,,11,,,46,127
31706,note_on,0,0,0,,2,,,62,127
32000,note_off,294,0,0,,2,,,62,127
32000,note_off,0,0,0,,11,,,46,127
32000,note_off,0,0,0,,8,,,68,127
32002,note_on,2,0,0,,3,,,51,127
32002,note_on,0,0,0,,7,,,67,127
32002,note_on,0,0,0,,3,,,75,127
32296,note_off,294,0,0,,7,,,67,127
32296,note_off,0,0,0,,3,,,51,127
32298,note_on,2,0,0,,5,,,53,127
32298,note_on,0,0,0,,8,,,68,127
32592,note_off,294,0,0,,8,,,68,127
32592,note_off,0,0,0,,5,,,53,127
32594,note_on,2,0,0,,7,,,55,127
32594,note_on,0,0,0,,11,,,70,127
32888,note_off,294,0,0,,11,,,70,127
32888,note_off,0,0,0,,7,,,55,127
32890,note_on,2,0,0,,8,,,56,127
32890,note_on,0,0,0,,0,,,72,127
33184,note_off,294,0,0,,0,,,72,127
33184,note_off,0,0,0,,8,,,56,127
33184,note_off,0,0,0,,3,,,75,127
33186,note_on,2,0,0,,11,,,58,127
33186,note_on,0,0,0,,5,,,65,127
33186,note_on,0,0,0,,2,,,74,127
33480,note_off,294,0,0,,5,,,65,127
33480,note_off,0,0,0,,11,,,58,127
33482,note_on,2,0,0,,8,,,56,127
33482,note_on,0,0,0,,7,,,67,127
33628,note_off,146,0,0,,8,,,56,127
33630,note_on,2,0,0,,7,,,55,127
33776,note_off,146,0,0,,7,,,55,127
33776,note_off,0,0,0,,7,,,67,127
33776,note_off,0,0,0,,2,,,74,127
33778,note_on,2,0,0,,5,,,53,127
33778,note_on,0,0,0,,8,,,68,127
33778,note_on,0,0,0,,1,,,73,127
34072,note_off,294,0,0,,8,,,68,127
34072,note_off,0,0,0,,5,,,53,127
34074,note_on,2,0,0,,7,,,55,127
34074,note_on,0,0,0,,11,,,70,127
34222,note_off,148,0,0,,1,,,73,127
34368,note_off,146,0,0,,11,,,70,127
34368,note_off,0,0,0,,7,,,55,127
34370,note_on,2,0,0,,8,,,56,127
34370,note_on,0,0,0,,0,,,72,127
34370,note_on,0,0,0,,5,,,77,127
34664,note_off,294,0,0,,0,,,72,127
34664,note_off,0,0,0,,8,,,56,127
34666,note_on,2,0,0,,7,,,55,127
34666,note_on,0,0,0,,11,,,70,127
34960,note_off,294,0,0,,11,,,70,127
34960,note_off,0,0,0,,7,,,55,127
34962,note_on,2,0,0,,8,,,56,127
34962,note_on,0,0,0,,0,,,72,127
35256,note_off,294,0,0,,0,,,72,127
35256,note_off,0,0,0,,8,,,56,127
35258,note_on,2,0,0,,11,,,58,127
35258,note_on,0,0,0,,1,,,73,127
35552,note_off,294,0,0,,1,,,73,127
35552,note_off,0,0,0,,11,,,58,127
35552,note_off,0,0,0,,5,,,77,127
35554,note_on,2,0,0,,0,,,60,127
35554,note_on,0,0,0,,7,,,67,127
35554,note_on,0,0,0,,4,,,76,127
35848,note_off,294,0,0,,7,,,67,127
35848,note_off,0,0,0,,0,,,60,127
35850,note_on,2,0,0,,11,,,58,127
35850,note_on,0,0,0,,8,,,68,127
35996,note_off,146,0,0,,11,,,58,127
35998,note_on,2,0,0,,8,,,56,127
36144,note_off,146,0,0,,8,,,56,127
36144,note_off,0,0,0,,8,,,68,127
36144,note_off,0,0,0,,4,,,76,127
36146,note_on,2,0,0,,7,,,55,127
36146,note_on,0,0,0,,11,,,70,127
36146,note_on,0,0,0,,3,,,75,127
36440,note_off,294,0,0,,11,,,70,127
36440,note_off,0,0,0,,7,,,55,127
36442,note_on,2,0,0,,8,,,56,127
36442,note_on,0,0,0,,0,,,72,127
36736,note_off,294,0,0,,0,,,72,127
36736,note_off,0,0,0,,8,,,56,127
36736,note_off,0,0,0,,3,,,75,127
36738,note_on,2,0,0,,11,,,58,127
36738,note_on,0,0,0,,5,,,65,127
36738,note_on,0,0,0,,2,,,74,127
37032,note_off,294,0,0,,5,,,65,127
37032,note_off,0,0,0,,11,,,58,127
37034,note_on,2,0,0,,8,,,56,127
37034,note_on,0,0,0,,7,,,67,127
37180,note_off,146,0,0,,8,,,56,127
37182,note_on,2,0,0,,7,,,55,127
37328,note_off,146,0,0,,7,,,55,127
37328,note_off,0,0,0,,7,,,67,127
37328,note_off,0,0,0,,2,,,74,127
37330,note_on,2,0,0,,5,,,53,127
37330,note_on,0,0,0,,8,,,68,127
37330,note_on,0,0,0,,1,,,73,127
37624,note_off,294,0,0,,8,,,68,127
37624,note_off,0,0,0,,5,,,53,127
37626,note_on,2,0,0,,7,,,55,127
37626,note_on,0,0,0,,11,,,70,127
37920,note_off,294,0,0,,11,,,70,127
37920,note_off,0,0,0,,7,,,55,127
37920,note_off,0,0,0,,1,,,73,127
37922,note_on,2,0,0,,8,,,56,127
37922,note_on,0,0,0,,0,,,72,127
38216,note_off,294,0,0,,8,,,56,127
38218,note_on,2,0,0,,5,,,53,127
38512,note_off,294,0,0,,5,,,53,127
38512,note_off,0,0,0,,0,,,72,127
38514,note_on,2,0,0,,8,,,56,127
38514,note_on,0,0,0,,0,,,72,127
38514,note_on,0,0,0,,5,,,77,127
38808,note_off,294,0,0,,0,,,72,127
38808,note_off,0,0,0,,8,,,56,127
38810,note_on,2,0,0,,11,,,58,127
38810,note_on,0,0,0,,1,,,73,127
39104,note_off,294,0,0,,1,,,73,127
39104,note_off,0,0,0,,11,,,58,127
39106,note_on,2,0,0,,0,,,60,127
39106,note_on,0,0,0,,7,,,67,127
39401,note_on,295,0,0,,0,,,48,127
39690,note_off,289,0,0,,0,,,60,127
39695,note_off,5,0,0,,0,,,48,127
39695,note_off,0,0,0,,7,,,67,127
39695,note_off,0,0,0,,5,,,77,127
39697,note_on,2,0,0,,0,,,60,127
39697,note_on,0,0,0,,0,,,72,127
39697,note_on,0,0,0,,3,,,75,127
39989,note_off,292,0,0,,0,,,72,127
39991,note_off,2,0,0,,3,,,75,127
39993,note_on,2,0,0,,2,,,74,127
40139,note_off,146,0,0,,2,,,74,127
40141,note_on,2,0,0,,0,,,72,127
40287,note_off,146,0,0,,0,,,72,127
40287,note_off,0,0,0,,0,,,60,127
40289,note_on,2,0,0,,12,,,59,127
40289,note_on,0,0,0,,2,,,74,127
40584,note_on,295,0,0,,3,,,75,127
40730,note_off,146,0,0,,3,,,75,127
40732,note_on,2,0,0,,5,,,77,127
40878,note_off,146,0,0,,5,,,77,127
40878,note_off,0,0,0,,12,,,59,127
40880,note_on,2,0,0,,11,,,58,127
40880,note_on,0,0,0,,7,,,79,127
41174,note_off,294,0,0,,2,,,74,127
41176,note_on,2,0,0,,7,,,67,127
41470,note_off,294,0,0,,7,,,67,127
41470,note_off,0,0,0,,7,,,79,127
41470,note_off,0,0,0,,11,,,58,127
41472,note_on,2,0,0,,10,,,57,127
41472,note_on,0,0,0,,0,,,72,127
41767,note_on,295,0,0,,2,,,74,127
41913,note_off,146,0,0,,2,,,74,127
41915,note_on,2,0,0,,3,,,75,127
42061,note_off,146,0,0,,3,,,75,127
42061,note_off,0,0,0,,10,,,57,127
42063,note_on,2,0,0,,8,,,56,127
42063,note_on,0,0,0,,5,,,77,127
42357,note_off,294,0,0,,0,,,72,127
42359,note_on,2,0,0,,5,,,65,127
42653,note_off,294,0,0,,5,,,65,127
42653,note_off,0,0,0,,8,,,56,127
42655,note_on,2,0,0,,7,,,55,127
42655,note_on,0,0,0,,12,,,71,127
43244,note_off,589,0,0,,12,,,71,127
43244,note_off,0,0,0,,7,,,55,127
43244,note_off,0,0,0,,5,,,77,127
43246,note_on,2,0,0,,3,,,51,127
43246,note_on,0,0,0,,0,,,60,127
43246,note_on,0,0,0,,0,,,72,127
43246,note_on,0,0,0,,3,,,75,127
43538,note_off,292,0,0,,0,,,72,127
43540,note_off,2,0,0,,3,,,75,127
43542,note_on,2,0,0,,2,,,74,127
43688,note_off,146,0,0,,2,,,74,127
43690,note_on,2,0,0,,0,,,72,127
43836,note_off,146,0,0,,0,,,72,127
43836,note_off,0,0,0,,3,,,51,127
43838,note_on,2,0,0,,5,,,53,127
43838,note_on,0,0,0,,5,,,65,127
43838,note_on,0,0,0,,2,,,74,127
44132,note_off,294,0,0,,5,,,65,127
44134,note_on,2,0,0,,7,,,67,127
44280,note_off,146,0,0,,7,,,67,127
44282,note_on,2,0,0,,8,,,68,127
44428,note_off,146,0,0,,8,,,68,127
44428,note_off,0,0,0,,5,,,53,127
44428,note_off,0,0,0,,0,,,60,127
44430,note_on,2,0,0,,7,,,55,127
44430,note_on,0,0,0,,12,,,59,127
44430,note_on,0,0,0,,7,,,67,127
44724,note_off,294,0,0,,7,,,67,127
44726,note_on,2,0,0,,5,,,65,127
45020,note_off,294,0,0,,5,,,65,127
45020,note_off,0,0,0,,12,,,59,127
45020,note_off,0,0,0,,7,,,55,127
45020,note_off,0,0,0,,2,,,74,127
45022,note_on,2,0,0,,0,,,60,127
45022,note_on,0,0,0,,0,,,48,127
45022,note_on,0,0,0,,3,,,63,127
45022,note_on,0,0,0,,0,,,72,127
45316,note_off,294,0,0,,3,,,63,127
45316,note_off,0,0,0,,0,,,48,127
45318,note_on,2,0,0,,2,,,50,127
45318,note_on,0,0,0,,5,,,65,127
45607,note_off,289,0,0,,0,,,60,127
45612,note_off,5,0,0,,5,,,65,127
45612,note_off,0,0,0,,2,,,50,127
45612,note_off,0,0,0,,0,,,72,127
45614,note_on,2,0,0,,3,,,51,127
45614,note_on,0,0,0,,7,,,67,127
45614,note_on,0,0,0,,0,,,72,127
45908,note_off,294,0,0,,7,,,67,127
45908,note_off,0,0,0,,3,,,51,127
45910,note_on,2,0,0,,5,,,53,127
45910,note_on,0,0,0,,5,,,65,127
46056,note_off,146,0,0,,5,,,65,127
46058,note_on,2,0,0,,3,,,63,127
46204,note_off,146,0,0,,3,,,63,127
46204,note_off,0,0,0,,5,,,53,127
46204,note_off,0,0,0,,0,,,72,127
46206,note_on,2,0,0,,7,,,55,127
46206,note_on,0,0,0,,2,,,62,127
46206,note_on,0,0,0,,11,,,70,127
46500,note_off,294,0,0,,11,,,70,127
46500,note_off,0,0,0,,7,,,55,127
46502,note_on,2,0,0,,8,,,56,127
46502,note_on,0,0,0,,0,,,72,127
46796,note_off,294,0,0,,0,,,72,127
46796,note_off,0,0,0,,8,,,56,127
46798,note_on,2,0,0,,11,,,58,127
46798,note_on,0,0,0,,2,,,74,127
47092,note_off,294,0,0,,2,,,74,127
47092,note_off,0,0,0,,11,,,58,127
47092,note_off,0,0,0,,2,,,62,127
47094,note_on,2,0,0,,8,,,56,127
47094,note_on,0,0,0,,5,,,65,127
47094,note_on,0,0,0,,3,,,75,127
47240,note_off,146,0,0,,5,,,65,127
47240,note_off,0,0,0,,8,,,56,127
47242,note_on,2,0,0,,7,,,55,127
47242,note_on,0,0,0,,7,,,67,127
47388,note_off,146,0,0,,7,,,67,127
47388,note_off,0,0,0,,7,,,55,127
47388,note_off,0,0,0,,3,,,75,127
47390,note_on,2,0,0,,5,,,53,127
47390,note_on,0,0,0,,8,,,68,127
47390,note_on,0,0,0,,5,,,77,127
47684,note_off,294,0,0,,5,,,77,127
47684,note_off,0,0,0,,8,,,68,127
47684,note_off,0,0,0,,5,,,53,127
47686,note_on,2,0,0,,7,,,55,127
47686,note_on,0,0,0,,7,,,67,127
47686,note_on,0,0,0,,3,,,75,127
47832,note_off,146,0,0,,3,,,75,127
47832,note_off,0,0,0,,7,,,67,127
47832,note_off,0,0,0,,7,,,55,127
47834,note_on,2,0,0,,8,,,56,127
47834,note_on,0,0,0,,5,,,65,127
47834,note_on,0,0,0,,2,,,74,127
47980,note_off,146,0,0,,2,,,74,127
47980,note_off,0,0,0,,5,,,65,127
47980,note_off,0,0,0,,8,,,56,127
47982,note_on,2,0,0,,7,,,55,127
47982,note_on,0,0,0,,3,,,63,127
47982,note_on,0,0,0,,0,,,72,127
48276,note_off,294,0,0,,0,,,72,127
48276,note_off,0,0,0,,3,,,63,127
48276,note_off,0,0,0,,7,,,55,127
48278,note_on,2,0,0,,5,,,53,127
48278,note_on,0,0,0,,5,,,65,127
48278,note_on,0,0,0,,2,,,74,127
48572,note_off,294,0,0,,2,,,74,127
48572,note_off,0,0,0,,5,,,65,127
48572,note_off,0,0,0,,5,,,53,127
48574,note_on,2,0,0,,3,,,51,127
48574,note_on,0,0,0,,7,,,67,127
48574,note_on,0,0,0,,3,,,75,127
48868,note_off,294,0,0,,7,,,67,127
48868,note_off,0,0,0,,3,,,51,127
48870,note_on,2,0,0,,5,,,53,127
48870,note_on,0,0,0,,8,,,68,127
49164,note_off,294,0,0,,8,,,68,127
49164,note_off,0,0,0,,5,,,53,127
49166,note_on,2,0,0,,7,,,55,127
49166,note_on,0,0,0,,11,,,70,127
49460,note_off,294,0,0,,11,,,70,127
49460,note_off,0,0,0,,7,,,55,127
49462,note_on,2,0,0,,8,,,56,127
49462,note_on,0,0,0,,0,,,72,127
49756,note_off,294,0,0,,0,,,72,127
49756,note_off,0,0,0,,8,,,56,127
49756,note_off,0,0,0,,3,,,75,127
49758,note_on,2,0,0,,11,,,58,127
49758,note_on,0,0,0,,5,,,65,127
49758,note_on,0,0,0,,2,,,74,127
50052,note_off,294,0,0,,5,,,65,127
50052,note_off,0,0,0,,11,,,58,127
50054,note_on,2,0,0,,8,,,56,127
50054,note_on,0,0,0,,7,,,67,127
50200,note_off,146,0,0,,8,,,56,127
50202,note_on,2,0,0,,7,,,55,127
50348,note_off,146,0,0,,7,,,55,127
50348,note_off,0,0,0,,7,,,67,127
50348,note_off,0,0,0,,2,,,74,127
50350,note_on,2,0,0,,5,,,53,127
50350,note_on,0,0,0,,8,,,68,127
50350,note_on,0,0,0,,1,,,73,127
50644,note_off,294,0,0,,8,,,68,127
50644,note_off,0,0,0,,5,,,53,127
50646,note_on,2,0,0,,7,,,55,127
50646,note_on,0,0,0,,11,,,70,127
50940,note_off,294,0,0,,11,,,70,127
50940,note_off,0,0,0,,7,,,55,127
50940,note_off,0,0,0,,1,,,73,127
50942,note_on,2,0,0,,0,,,60,127
50942,note_on,0,0,0,,8,,,56,127
50942,note_on,0,0,0,,3,,,75,127
50942,note_on,0,0,0,,0,,,84,127
51236,note_off,294,0,0,,3,,,75,127
51236,note_off,0,0,0,,8,,,56,127
51238,note_on,2,0,0,,7,,,55,127
51238,note_on,0,0,0,,5,,,77,127
51384,note_off,146,0,0,,7,,,55,127
51386,note_on,2,0,0,,5,,,53,127
51528,note_off,142,0,0,,0,,,60,127
51533,note_off,5,0,0,,5,,,53,127
51533,note_off,0,0,0,,5,,,77,127
51535,note_on,2,0,0,,3,,,51,127
51535,note_on,0,0,0,,0,,,60,127
51535,note_on,0,0,0,,7,,,79,127
51829,note_off,294,0,0,,7,,,79,127
51829,note_off,0,0,0,,3,,,51,127
51831,note_on,2,0,0,,5,,,53,127
51831,note_on,0,0,0,,5,,,77,127
51977,note_off,146,0,0,,5,,,77,127
51979,note_on,2,0,0,,3,,,75,127
52121,note_off,142,0,0,,0,,,60,127
52126,note_off,5,0,0,,3,,,75,127
52126,note_off,0,0,0,,5,,,53,127
52126,note_off,0,0,0,,0,,,84,127
52128,note_on,2,0,0,,12,,,59,127
52128,note_on,0,0,0,,7,,,55,127
52128,note_on,0,0,0,,2,,,74,127
52128,note_on,0,0,0,,12,,,83,127
52422,note_off,294,0,0,,2,,,74,127
52422,note_off,0,0,0,,12,,,59,127
52424,note_on,2,0,0,,0,,,60,127
52424,note_on,0,0,0,,3,,,75,127
52713,note_off,289,0,0,,7,,,55,127
52718,note_off,5,0,0,,3,,,75,127
52718,note_off,0,0,0,,0,,,60,127
52718,note_off,0,0,0,,12,,,83,127
52720,note_on,2,0,0,,7,,,55,127
52720,note_on,0,0,0,,2,,,62,127
52720,note_on,0,0,0,,5,,,77,127
52720,note_on,0,0,0,,11,,,82,127
53014,note_off,294,0,0,,5,,,77,127
53014,note_off,0,0,0,,2,,,62,127
53016,note_on,2,0,0,,3,,,63,127
53016,note_on,0,0,0,,7,,,79,127
53305,note_off,289,0,0,,7,,,55,127
53310,note_off,5,0,0,,7,,,79,127
53310,note_off,0,0,0,,3,,,63,127
53310,note_off,0,0,0,,11,,,82,127
53312,note_on,2,0,0,,5,,,53,127
53312,note_on,0,0,0,,5,,,65,127
53312,note_on,0,0,0,,0,,,72,127
53312,note_on,0,0,0,,10,,,81,127
53606,note_off,294,0,0,,0,,,72,127
53606,note_off,0,0,0,,5,,,65,127
53608,note_on,2,0,0,,3,,,63,127
53608,note_on,0,0,0,,2,,,74,127
53754,note_off,146,0,0,,3,,,63,127
53756,note_on,2,0,0,,2,,,62,127
53902,note_off,146,0,0,,2,,,62,127
53902,note_off,0,0,0,,2,,,74,127
53902,note_off,0,0,0,,10,,,81,127
53904,note_on,2,0,0,,0,,,60,127
53904,note_on,0,0,0,,3,,,75,127
53904,note_on,0,0,0,,8,,,80,127
54198,note_off,294,0,0,,3,,,75,127
54198,note_off,0,0,0,,0,,,60,127
54200,note_on,2,0,0,,2,,,62,127
54200,note_on,0,0,0,,5,,,77,127
54494,note_off,294,0,0,,5,,,77,127
54494,note_off,0,0,0,,2,,,62,127
54494,note_off,0,0,0,,8,,,80,127
54494,note_off,0,0,0,,5,,,53,127
54496,note_on,2,0,0,,3,,,51,127
54496,note_on,0,0,0,,3,,,63,127
54496,note_on,0,0,0,,7,,,67,127
54496,note_on,0,0,0,,7,,,79,127
54790,note_off,294,0,0,,7,,,67,127
54790,note_off,0,0,0,,3,,,51,127
54792,note_on,2,0,0,,5,,,53,127
54792,note_on,0,0,0,,8,,,68,127
55081,note_off,289,0,0,,3,,,63,127
55086,note_off,5,0,0,,8,,,68,127
55086,note_off,0,0,0,,5,,,53,127
55086,note_off,0,0,0,,7,,,79,127
55088,note_on,2,0,0,,3,,,63,127
55088,note_on,0,0,0,,7,,,55,127
55088,note_on,0,0,0,,11,,,70,127
55088,note_on,0,0,0,,7,,,79,127
55382,note_off,294,0,0,,11,,,70,127
55382,note_off,0,0,0,,7,,,55,127
55384,note_on,2,0,0,,10,,,57,127
55384,note_on,0,0,0,,0,,,72,127
55673,note_off,289,0,0,,3,,,63,127
55678,note_off,5,0,0,,0,,,72,127
55678,note_off,0,0,0,,10,,,57,127
55678,note_off,0,0,0,,7,,,79,127
55680,note_on,2,0,0,,11,,,46,127
55680,note_on,0,0,0,,11,,,58,127
55680,note_on,0,0,0,,1,,,73,127
55680,note_on,0,0,0,,5,,,77,127
55974,note_off,294,0,0,,1,,,73,127
55974,note_off,0,0,0,,11,,,46,127
55976,note_on,2,0,0,,0,,,48,127
55976,note_on,0,0,0,,0,,,72,127
56265,note_off,289,0,0,,11,,,58,127
56270,note_off,5,0,0,,0,,,72,127
56270,note_off,0,0,0,,0,,,48,127
56272,note_on,2,0,0,,11,,,58,127
56272,note_on,0,0,0,,1,,,49,127
56272,note_on,0,0,0,,11,,,70,127
56566,note_off,294,0,0,,1,,,49,127
56566,note_off,0,0,0,,5,,,77,127
56568,note_on,2,0,0,,3,,,51,127
56568,note_on,0,0,0,,3,,,75,127
56714,note_off,146,0,0,,3,,,75,127
56716,note_on,2,0,0,,1,,,73,127
56858,note_off,142,0,0,,11,,,58,127
56863,note_off,5,0,0,,1,,,73,127
56863,note_off,0,0,0,,3,,,51,127
56863,note_off,0,0,0,,11,,,70,127
56865,note_on,2,0,0,,5,,,41,127
56865,note_on,0,0,0,,5,,,53,127
56865,note_on,0,0,0,,8,,,68,127
56865,note_on,0,0,0,,0,,,72,127
57159,note_off,294,0,0,,8,,,68,127
57159,note_off,0,0,0,,5,,,41,127
57161,note_on,2,0,0,,7,,,43,127
57161,note_on,0,0,0,,11,,,70,127
57450,note_off,289,0,0,,5,,,53,127
57455,note_off,5,0,0,,11,,,70,127
57455,note_off,0,0,0,,7,,,43,127
57455,note_off,0,0,0,,0,,,72,127
57457,note_on,2,0,0,,8,,,44,127
57457,note_on,0,0,0,,5,,,53,127
57457,note_on,0,0,0,,0,,,72,127
57457,note_on,0,0,0,,5,,,77,127
57751,note_off,294,0,0,,0,,,72,127
57751,note_off,0,0,0,,8,,,44,127
57753,note_on,2,0,0,,11,,,46,127
57753,note_on,0,0,0,,11,,,70,127
57899,note_off,146,0,0,,11,,,70,127
57901,note_on,2,0,0,,8,,,68,127
58043,note_off,142,0,0,,5,,,53,127
58048,note_off,5,0,0,,8,,,68,127
58048,note_off,0,0,0,,11,,,46,127
58048,note_off,0,0,0,,5,,,77,127
58050,note_on,2,0,0,,0,,,36,127
58050,note_on,0,0,0,,0,,,48,127
58050,note_on,0,0,0,,7,,,67,127
58050,note_on,0,0,0,,3,,,75,127
58344,note_off,294,0,0,,3,,,75,127
58344,note_off,0,0,0,,0,,,48,127
58344,note_off,0,0,0,,0,,,36,127
58346,note_on,2,0,0,,2,,,50,127
58346,note_on,0,0,0,,2,,,38,127
58346,note_on,0,0,0,,5,,,77,127
58640,note_off,294,0,0,,5,,,77,127
58640,note_off,0,0,0,,2,,,38,127
58640,note_off,0,0,0,,2,,,50,127
58640,note_off,0,0,0,,7,,,67,127
58642,note_on,2,0,0,,3,,,39,127
58642,note_on,0,0,0,,3,,,51,127
58642,note_on,0,0,0,,0,,,72,127
58642,note_on,0,0,0,,7,,,79,127
58936,note_off,294,0,0,,7,,,79,127
58936,note_off,0,0,0,,3,,,51,127
58936,note_off,0,0,0,,3,,,39,127
58938,note_on,2,0,0,,5,,,41,127
58938,note_on,0,0,0,,5,,,53,127
58938,note_on,0,0,0,,5,,,77,127
59084,note_off,146,0,0,,5,,,77,127
59086,note_on,2,0,0,,3,,,75,127
59232,note_off,146,0,0,,3,,,75,127
59232,note_off,0,0,0,,5,,,53,127
59232,note_off,0,0,0,,5,,,41,127
59232,note_off,0,0,0,,0,,,72,127
59234,note_on,2,0,0,,7,,,43,127
59234,note_on,0,0,0,,7,,,55,127
59234,note_on,0,0,0,,12,,,71,127
59234,note_on,0,0,0,,2,,,74,127
59528,note_off,294,0,0,,12,,,71,127
59530,note_on,2,0,0,,7,,,67,127
59824,note_off,294,0,0,,7,,,67,127
59824,note_off,0,0,0,,2,,,74,127
59824,note_off,0,0,0,,7,,,55,127
59824,note_off,0,0,0,,7,,,43,127
59826,note_on,2,0,0,,8,,,44,127
59826,note_on,0,0,0,,8,,,56,127
59826,note_on,0,0,0,,5,,,65,127
59826,note_on,0,0,0,,0,,,72,127
60120,note_off,294,0,0,,5,,,65,127
60122,note_on,2,0,0,,0,,,60,127
60416,note_off,294,0,0,,0,,,60,127
60416,note_off,0,0,0,,8,,,56,127
60416,note_off,0,0,0,,8,,,44,127
60418,note_on,2,0,0,,7,,,43,127
60418,note_on,0,0,0,,7,,,55,127
60418,note_on,0,0,0,,3,,,63,127
60712,note_off,294,0,0,,3,,,63,127
60714,note_on,2,0,0,,2,,,62,127
60860,note_off,146,0,0,,2,,,62,127
60862,note_on,2,0,0,,0,,,60,127
61008,note_off,146,0,0,,0,,,60,127
61008,note_off,0,0,0,,7,,,55,127
61008,note_off,0,0,0,,7,,,43,127
61010,note_on,2,0,0,,6,,,42,127
61010,note_on,0,0,0,,6,,,54,127
61010,note_on,0,0,0,,2,,,62,127
61304,note_off,294,0,0,,0,,,72,127
61306,note_on,2,0,0,,11,,,70,127
61452,note_off,146,0,0,,11,,,70,127
61454,note_on,2,0,0,,10,,,69,127
61600,note_off,146,0,0,,10,,,69,127
61600,note_off,0,0,0,,6,,,54,127
61600,note_off,0,0,0,,6,,,42,127
61602,note_on,2,0,0,,7,,,43,127
61602,note_on,0,0,0,,7,,,55,127
61602,note_on,0,0,0,,11,,,70,127
61896,note_off,294,0,0,,11,,,70,127
61896,note_off,0,0,0,,7,,,43,127
61898,note_on,2,0,0,,10,,,45,127
61898,note_on,0,0,0,,0,,,72,127
62187,note_off,289,0,0,,7,,,55,127
62192,note_off,5,0,0,,0,,,72,127
62192,note_off,0,0,0,,10,,,45,127
62192,note_off,0,0,0,,2,,,62,127
62194,note_on,2,0,0,,11,,,46,127
62194,note_on,0,0,0,,7,,,55,127
62194,note_on,0,0,0,,7,,,67,127
62194,note_on,0,0,0,,2,,,74,127
62488,note_off,294,0,0,,2,,,74,127
62488,note_off,0,0,0,,11,,,46,127
62490,note_on,2,0,0,,0,,,48,127
62490,note_on,0,0,0,,4,,,76,127
62779,note_off,289,0,0,,7,,,55,127
62784,note_off,5,0,0,,4,,,76,127
62784,note_off,0,0,0,,0,,,48,127
62784,note_off,0,0,0,,7,,,67,127
62786,note_on,2,0,0,,2,,,50,127
62786,note_on,0,0,0,,10,,,57,127
62786,note_on,0,0,0,,10,,,69,127
62786,note_on,0,0,0,,6,,,78,127
63080,note_off,294,0,0,,10,,,69,127
63080,note_off,0,0,0,,10,,,57,127
63082,note_on,2,0,0,,11,,,58,127
63082,note_on,0,0,0,,2,,,74,127
63371,note_off,289,0,0,,2,,,50,127
63376,note_off,5,0,0,,2,,,74,127
63376,note_off,0,0,0,,11,,,58,127
63376,note_off,0,0,0,,6,,,78,127
63378,note_on,2,0,0,,3,,,51,127
63378,note_on,0,0,0,,0,,,60,127
63378,note_on,0,0,0,,0,,,72,127
63378,note_on,0,0,0,,7,,,79,127
63672,note_off,294,0,0,,0,,,72,127
63674,note_on,2,0,0,,7,,,67,127
63963,note_off,289,0,0,,3,,,51,127
63968,note_off,5,0,0,,7,,,67,127
63968,note_off,0,0,0,,0,,,60,127
63970,note_on,2,0,0,,2,,,50,127
63970,note_on,0,0,0,,2,,,62,127
63970,note_on,0,0,0,,11,,,70,127
64264,note_off,294,0,0,,11,,,70,127
64264,note_off,0,0,0,,7,,,79,127
64266,note_on,2,0,0,,8,,,68,127
64266,note_on,0,0,0,,5,,,77,127
64412,note_off,146,0,0,,5,,,77,127
64412,note_off,0,0,0,,8,,,68,127
64414,note_on,2,0,0,,7,,,67,127
64414,note_on,0,0,0,,3,,,75,127
64560,note_off,146,0,0,,3,,,75,127
64560,note_off,0,0,0,,7,,,67,127
64562,note_on,2,0,0,,8,,,68,127
64562,note_on,0,0,0,,5,,,77,127
64856,note_off,294,0,0,,2,,,62,127
64856,note_off,0,0,0,,2,,,50,127
64858,note_on,2,0,0,,0,,,48,127
64858,note_on,0,0,0,,0,,,60,127
65152,note_off,294,0,0,,0,,,60,127
65152,note_off,0,0,0,,0,,,48,127
65152,note_off,0,0,0,,8,,,68,127
65154,note_on,2,0,0,,12,,,47,127
65154,note_on,0,0,0,,12,,,59,127
65154,note_on,0,0,0,,7,,,67,127
65448,note_off,294,0,0,,12,,,59,127
65448,note_off,0,0,0,,5,,,77,127
65450,note_on,2,0,0,,7,,,55,127
65450,note_on,0,0,0,,4,,,76,127
65596,note_off,146,0,0,,4,,,76,127
65598,note_on,2,0,0,,2,,,74,127
65740,note_off,142,0,0,,12,,,47,127
65745,note_off,5,0,0,,2,,,74,127
65745,note_off,0,0,0,,7,,,55,127
65747,note_on,2,0,0,,0,,,48,127
65747,note_on,0,0,0,,0,,,60,127
65747,note_on,0,0,0,,4,,,76,127
66041,note_off,294,0,0,,0,,,60,127
66041,note_off,0,0,0,,7,,,67,127
66043,note_on,2,0,0,,11,,,58,127
66043,note_on,0,0,0,,7,,,67,127
66332,note_off,289,0,0,,0,,,48,127
66337,note_off,5,0,0,,7,,,67,127
66337,note_off,0,0,0,,11,,,58,127
66337,note_off,0,0,0,,4,,,76,127
66339,note_on,2,0,0,,5,,,53,127
66339,note_on,0,0,0,,8,,,56,127
66339,note_on,0,0,0,,8,,,68,127
66339,note_on,0,0,0,,5,,,77,127
66633,note_off,294,0,0,,5,,,77,127
66633,note_off,0,0,0,,8,,,68,127
66635,note_on,2,0,0,,11,,,70,127
66635,note_on,0,0,0,,7,,,79,127
66929,note_off,294,0,0,,7,,,79,127
66929,note_off,0,0,0,,11,,,70,127
66931,note_on,2,0,0,,0,,,72,127
66931,note_on,0,0,0,,8,,,80,127
67079,note_off,148,0,0,,8,,,56,127
67079,note_off,0,0,0,,5,,,53,127
67225,note_off,146,0,0,,0,,,72,127
67227,note_on,2,0,0,,11,,,46,127
67227,note_on,0,0,0,,11,,,58,127
67227,note_on,0,0,0,,2,,,74,127
67521,note_off,294,0,0,,2,,,74,127
67521,note_off,0,0,0,,11,,,46,127
67523,note_on,2,0,0,,3,,,51,127
67523,note_on,0,0,0,,3,,,75,127
67817,note_off,294,0,0,,3,,,75,127
67817,note_off,0,0,0,,8,,,80,127
67819,note_on,2,0,0,,11,,,70,127
67819,note_on,0,0,0,,7,,,79,127
67965,note_off,146,0,0,,7,,,79,127
67967,note_on,2,0,0,,5,,,77,127
68113,note_off,146,0,0,,5,,,77,127
68113,note_off,0,0,0,,11,,,70,127
68115,note_on,2,0,0,,3,,,75,127
68115,note_on,0,0,0,,7,,,79,127
68260,note_off,145,0,0,,11,,,58,127
68263,note_off,3,0,0,,3,,,51,127
68409,note_off,146,0,0,,7,,,79,127
68411,note_on,2,0,0,,5,,,53,127
68411,note_on,0,0,0,,8,,,80,127
68705,note_off,294,0,0,,8,,,80,127
68705,note_off,0,0,0,,5,,,53,127
68707,note_on,2,0,0,,11,,,46,127
68707,note_on,0,0,0,,11,,,58,127
68707,note_on,0,0,0,,11,,,82,127
69001,note_off,294,0,0,,3,,,75,127
69003,note_on,2,0,0,,2,,,74,127
69149,note_off,146,0,0,,2,,,74,127
69151,note_on,2,0,0,,0,,,72,127
69297,note_off,146,0,0,,0,,,72,127
69297,note_off,0,0,0,,11,,,82,127
69299,note_on,2,0,0,,2,,,74,127
69299,note_on,0,0,0,,11,,,82,127
69447,note_off,148,0,0,,11,,,58,127
69447,note_off,0,0,0,,11,,,46,127
69593,note_off,146,0,0,,2,,,74,127
69595,note_on,2,0,0,,0,,,48,127
69595,note_on,0,0,0,,0,,,60,127
69595,note_on,0,0,0,,4,,,76,127
69889,note_off,294,0,0,,4,,,76,127
69889,note_off,0,0,0,,0,,,48,127
69891,note_on,2,0,0,,5,,,53,127
69891,note_on,0,0,0,,5,,,77,127
70185,note_off,294,0,0,,5,,,77,127
70185,note_off,0,0,0,,11,,,82,127
70187,note_on,2,0,0,,0,,,72,127
70187,note_on,0,0,0,,8,,,80,127
70333,note_off,146,0,0,,8,,,80,127
70335,note_on,2,0,0,,7,,,79,127
70481,note_off,146,0,0,,7,,,79,127
70481,note_off,0,0,0,,0,,,72,127
70483,note_on,2,0,0,,5,,,77,127
70483,note_on,0,0,0,,8,,,80,127
70631,note_off,148,0,0,,5,,,53,127
70777,note_off,146,0,0,,8,,,80,127
70777,note_off,0,0,0,,0,,,60,127
70779,note_on,2,0,0,,7,,,55,127
70779,note_on,0,0,0,,12,,,83,127
71073,note_off,294,0,0,,12,,,83,127
71073,note_off,0,0,0,,7,,,55,127
71075,note_on,2,0,0,,0,,,48,127
71075,note_on,0,0,0,,0,,,60,127
71075,note_on,0,0,0,,0,,,84,127
71369,note_off,294,0,0,,5,,,77,127
71371,note_on,2,0,0,,3,,,75,127
71517,note_off,146,0,0,,3,,,75,127
71519,note_on,2,0,0,,2,,,74,127
71665,note_off,146,0,0,,2,,,74,127
71667,note_on,2,0,0,,3,,,75,127
71815,note_off,148,0,0,,0,,,48,127
71961,note_off,146,0,0,,3,,,75,127
71961,note_off,0,0,0,,0,,,84,127
71961,note_off,0,0,0,,0,,,60,127
71963,note_on,2,0,0,,5,,,77,127
71963,note_on,0,0,0,,0,,,84,127
72257,note_off,294,0,0,,0,,,84,127
72257,note_off,0,0,0,,5,,,77,127
72259,note_on,2,0,0,,7,,,79,127
72259,note_on,0,0,0,,12,,,83,127
72553,note_off,294,0,0,,7,,,79,127
72555,note_on,2,0,0,,5,,,77,127
72701,note_off,146,0,0,,5,,,77,127
72703,note_on,2,0,0,,3,,,75,127
72849,note_off,146,0,0,,3,,,75,127
72849,note_off,0,0,0,,12,,,83,127
72851,note_on,2,0,0,,2,,,74,127
72851,note_on,0,0,0,,11,,,82,127
73145,note_off,294,0,0,,2,,,74,127
73147,note_on,2,0,0,,3,,,75,127
73441,note_off,294,0,0,,3,,,75,127
73441,note_off,0,0,0,,11,,,82,127
73443,note_on,2,0,0,,5,,,77,127
73443,note_on,0,0,0,,10,,,81,127
73737,note_off,294,0,0,,5,,,77,127
73739,note_on,2,0,0,,3,,,75,127
73885,note_off,146,0,0,,3,,,75,127
73887,note_on,2,0,0,,2,,,74,127
74033,note_off,146,0,0,,2,,,74,127
74033,note_off,0,0,0,,10,,,81,127
74035,note_on,2,0,0,,0,,,72,127
74035,note_on,0,0,0,,8,,,80,127
74329,note_off,294,0,0,,0,,,72,127
74331,note_on,2,0,0,,2,,,74,127
74625,note_off,294,0,0,,2,,,74,127
74625,note_off,0,0,0,,8,,,80,127
74627,note_on,2,0,0,,3,,,75,127
74627,note_on,0,0,0,,7,,,79,127
74921,note_off,294,0,0,,3,,,75,127
74923,note_on,2,0,0,,2,,,74,127
75069,note_off,146,0,0,,2,,,74,127
75071,note_on,2,0,0,,0,,,72,127
75217,note_off,146,0,0,,0,,,72,127
75217,note_off,0,0,0,,7,,,79,127
75219,note_on,2,0,0,,11,,,70,127
75219,note_on,0,0,0,,6,,,78,127
75513,note_off,294,0,0,,11,,,70,127
75515,note_on,2,0,0,,0,,,72,127
75809,note_off,294,0,0,,0,,,72,127
75809,note_off,0,0,0,,6,,,78,127
75811,note_on,2,0,0,,1,,,73,127
75811,note_on,0,0,0,,5,,,77,127
76105,note_off,294,0,0,,1,,,73,127
76107,note_on,2,0,0,,0,,,72,127
76253,note_off,146,0,0,,0,,,72,127
76255,note_on,2,0,0,,11,,,70,127
76401,note_off,146,0,0,,11,,,70,127
76401,note_off,0,0,0,,5,,,77,127
76403,note_on,2,0,0,,8,,,68,127
76403,note_on,0,0,0,,5,,,77,127
76697,note_off,294,0,0,,8,,,68,127
76699,note_on,2,0,0,,11,,,70,127
76993,note_off,294,0,0,,11,,,70,127
76993,note_off,0,0,0,,5,,,77,127
76995,note_on,2,0,0,,0,,,60,127
76995,note_on,0,0,0,,0,,,72,127
76995,note_on,0,0,0,,3,,,75,127
77287,note_off,292,0,0,,0,,,72,127
77289,note_off,2,0,0,,3,,,75,127
77291,note_on,2,0,0,,0,,,72,127
77586,note_on,295,0,0,,3,,,75,127
77880,note_off,294,0,0,,3,,,75,127
77882,note_on,2,0,0,,5,,,77,127
78176,note_off,294,0,0,,5,,,77,127
78176,note_off,0,0,0,,0,,,72,127
78176,note_off,0,0,0,,0,,,60,127
78178,note_on,2,0,0,,12,,,59,127
78178,note_on,0,0,0,,7,,,67,127
78178,note_on,0,0,0,,7,,,79,127
78472,note_off,294,0,0,,7,,,79,127
78474,note_on,2,0,0,,5,,,77,127
78620,note_off,146,0,0,,5,,,77,127
78622,note_on,2,0,0,,3,,,75,127
78768,note_off,146,0,0,,3,,,75,127
78768,note_off,0,0,0,,7,,,67,127
78768,note_off,0,0,0,,12,,,59,127
78770,note_on,2,0,0,,11,,,58,127
78770,note_on,0,0,0,,7,,,67,127
78770,note_on,0,0,0,,2,,,74,127
79064,note_off,294,0,0,,2,,,74,127
79066,note_on,2,0,0,,3,,,75,127
79360,note_off,294,0,0,,3,,,75,127
79360,note_off,0,0,0,,7,,,67,127
79360,note_off,0,0,0,,11,,,58,127
79362,note_on,2,0,0,,10,,,57,127
79362,note_on,0,0,0,,5,,,65,127
79362,note_on,0,0,0,,5,,,77,127
79656,note_off,294,0,0,,5,,,77,127
79658,note_on,2,0,0,,3,,,75,127
79804,note_off,146,0,0,,3,,,75,127
79806,note_on,2,0,0,,2,,,74,127
79952,note_off,146,0,0,,2,,,74,127
79952,note_off,0,0,0,,5,,,65,127
79952,note_off,0,0,0,,10,,,57,127
79954,note_on,2,0,0,,8,,,56,127
79954,note_on,0,0,0,,5,,,65,127
79954,note_on,0,0,0,,0,,,72,127
80248,note_off,294,0,0,,0,,,72,127
80250,note_on,2,0,0,,2,,,74,127
80544,note_off,294,0,0,,2,,,74,127
80544,note_off,0,0,0,,5,,,65,127
80544,note_off,0,0,0,,8,,,56,127
80546,note_on,2,0,0,,7,,,55,127
80546,note_on,0,0,0,,7,,,67,127
80546,note_on,0,0,0,,3,,,75,127
80840,note_off,294,0,0,,7,,,67,127
80842,note_on,2,0,0,,10,,,69,127
80988,note_off,146,0,0,,10,,,69,127
80990,note_on,2,0,0,,12,,,71,127
81136,note_off,146,0,0,,12,,,71,127
81136,note_off,0,0,0,,7,,,55,127
81138,note_on,2,0,0,,3,,,51,127
81138,note_on,0,0,0,,0,,,60,127
81138,note_on,0,0,0,,0,,,72,127
81432,note_off,294,0,0,,3,,,75,127
81434,note_on,2,0,0,,3,,,75,127
81728,note_off,294,0,0,,3,,,75,127
81728,note_off,0,0,0,,0,,,72,127
81728,note_off,0,0,0,,3,,,51,127
81730,note_on,2,0,0,,5,,,53,127
81730,note_on,0,0,0,,5,,,65,127
81730,note_on,0,0,0,,2,,,74,127
82024,note_off,294,0,0,,5,,,65,127
82026,note_on,2,0,0,,7,,,67,127
82172,note_off,146,0,0,,7,,,67,127
82174,note_on,2,0,0,,8,,,68,127
82320,note_off,146,0,0,,8,,,68,127
82320,note_off,0,0,0,,5,,,53,127
82320,note_off,0,0,0,,0,,,60,127
82322,note_on,2,0,0,,7,,,55,127
82322,note_on,0,0,0,,11,,,58,127
82322,note_on,0,0,0,,7,,,67,127
82616,note_off,294,0,0,,7,,,67,127
82618,note_on,2,0,0,,5,,,65,127
82912,note_off,294,0,0,,5,,,65,127
82912,note_off,0,0,0,,7,,,55,127
82912,note_off,0,0,0,,2,,,74,127
82914,note_on,2,0,0,,0,,,48,127
82914,note_on,0,0,0,,7,,,67,127
82914,note_on,0,0,0,,4,,,76,127
83208,note_off,294,0,0,,4,,,76,127
83210,note_on,2,0,0,,0,,,72,127
83504,note_off,294,0,0,,0,,,72,127
83504,note_off,0,0,0,,7,,,67,127
83504,note_off,0,0,0,,0,,,48,127
83504,note_off,0,0,0,,11,,,58,127
83506,note_on,2,0,0,,1,,,49,127
83506,note_on,0,0,0,,8,,,56,127
83506,note_on,0,0,0,,5,,,65,127
83506,note_on,0,0,0,,5,,,77,127
83800,note_off,294,0,0,,8,,,56,127
83802,note_on,2,0,0,,7,,,55,127
83948,note_off,146,0,0,,7,,,55,127
83950,note_on,2,0,0,,5,,,53,127
84092,note_off,142,0,0,,1,,,49,127
84097,note_off,5,0,0,,5,,,53,127
84097,note_off,0,0,0,,5,,,65,127
84099,note_on,2,0,0,,11,,,46,127
84099,note_on,0,0,0,,7,,,55,127
84099,note_on,0,0,0,,7,,,67,127
84393,note_off,294,0,0,,5,,,77,127
84395,note_on,2,0,0,,4,,,76,127
84541,note_off,146,0,0,,4,,,76,127
84543,note_on,2,0,0,,2,,,74,127
84689,note_off,146,0,0,,2,,,74,127
84689,note_off,0,0,0,,7,,,67,127
84689,note_off,0,0,0,,11,,,46,127
84691,note_on,2,0,0,,0,,,48,127
84691,note_on,0,0,0,,7,,,67,127
84691,note_on,0,0,0,,4,,,76,127
84985,note_off,294,0,0,,7,,,67,127
84987,note_on,2,0,0,,7,,,67,127
85281,note_off,294,0,0,,7,,,67,127
85281,note_off,0,0,0,,4,,,76,127
85281,note_off,0,0,0,,0,,,48,127
85281,note_off,0,0,0,,7,,,55,127
85283,note_on,2,0,0,,5,,,53,127
85283,note_on,0,0,0,,8,,,68,127
85283,note_on,0,0,0,,5,,,77,127
85577,note_off,294,0,0,,8,,,68,127
85577,note_off,0,0,0,,5,,,53,127
85579,note_on,2,0,0,,7,,,55,127
85579,note_on,0,0,0,,11,,,70,127
85725,note_off,146,0,0,,11,,,70,127
85727,note_on,2,0,0,,0,,,72,127
85873,note_off,146,0,0,,0,,,72,127
85873,note_off,0,0,0,,7,,,55,127
85873,note_off,0,0,0,,5,,,77,127
85875,note_on,2,0,0,,8,,,56,127
85875,note_on,0,0,0,,11,,,70,127
85875,note_on,0,0,0,,5,,,77,127
86169,note_off,294,0,0,,11,,,70,127
86169,note_off,0,0,0,,8,,,56,127
86171,note_on,2,0,0,,11,,,58,127
86171,note_on,0,0,0,,8,,,68,127
86465,note_off,294,0,0,,8,,,68,127
86465,note_off,0,0,0,,11,,,58,127
86465,note_off,0,0,0,,5,,,77,127
86467,note_on,2,0,0,,0,,,60,127
86467,note_on,0,0,0,,7,,,67,127
86467,note_on,0,0,0,,4,,,76,127
86761,note_off,294,0,0,,7,,,67,127
86761,note_off,0,0,0,,0,,,60,127
86763,note_on,2,0,0,,11,,,58,127
86763,note_on,0,0,0,,8,,,68,127
86909,note_off,146,0,0,,8,,,68,127
86909,note_off,0,0,0,,11,,,58,127
86911,note_on,2,0,0,,8,,,56,127
86911,note_on,0,0,0,,11,,,70,127
87057,note_off,146,0,0,,11,,,70,127
87057,note_off,0,0,0,,8,,,56,127
87057,note_off,0,0,0,,4,,,76,127
87059,note_on,2,0,0,,7,,,55,127
87059,note_on,0,0,0,,8,,,68,127
87059,note_on,0,0,0,,3,,,75,127
87353,note_off,294,0,0,,8,,,68,127
87353,note_off,0,0,0,,7,,,55,127
87355,note_on,2,0,0,,8,,,56,127
87355,note_on,0,0,0,,7,,,67,127
87649,note_off,294,0,0,,7,,,67,127
87649,note_off,0,0,0,,8,,,56,127
87651,note_on,2,0,0,,11,,,58,127
87651,note_on,0,0,0,,5,,,65,127
87945,note_off,294,0,0,,3,,,75,127
87947,note_on,2,0,0,,1,,,73,127
88093,note_off,146,0,0,,1,,,73,127
88095,note_on,2,0,0,,0,,,72,127
88241,note_off,146,0,0,,0,,,72,127
88241,note_off,0,0,0,,5,,,65,127
88243,note_on,2,0,0,,5,,,65,127
88243,note_on,0,0,0,,1,,,73,127
88537,note_off,294,0,0,,1,,,73,127
88539,note_on,2,0,0,,3,,,75,127
88833,note_off,294,0,0,,3,,,75,127
88833,note_off,0,0,0,,5,,,65,127
88833,note_off,0,0,0,,11,,,58,127
88835,note_on,2,0,0,,10,,,57,127
88835,note_on,0,0,0,,5,,,65,127
88835,note_on,0,0,0,,5,,,77,127
89129,note_off,294,0,0,,5,,,77,127
89131,note_on,2,0,0,,3,,,75,127
89277,note_off,146,0,0,,3,,,75,127
89279,note_on,2,0,0,,1,,,73,127
89425,note_off,146,0,0,,1,,,73,127
89425,note_off,0,0,0,,5,,,65,127
89425,note_off,0,0,0,,10,,,57,127
89427,note_on,2,0,0,,8,,,56,127
89427,note_on,0,0,0,,5,,,65,127
89427,note_on,0,0,0,,0,,,72,127
89721,note_off,294,0,0,,0,,,72,127
89723,note_on,2,0,0,,1,,,73,127
90017,note_off,294,0,0,,1,,,73,127
90017,note_off,0,0,0,,5,,,65,127
90017,note_off,0,0,0,,8,,,56,127
90019,note_on,2,0,0,,7,,,55,127
90019,note_on,0,0,0,,11,,,70,127
90019,note_on,0,0,0,,3,,,75,127
90313,note_off,294,0,0,,3,,,75,127
90315,note_on,2,0,0,,1,,,73,127
90461,note_off,146,0,0,,1,,,73,127
90463,note_on,2,0,0,,0,,,72,127
90605,note_off,142,0,0,,11,,,70,127
90610,note_off,5,0,0,,0,,,72,127
90610,note_off,0,0,0,,7,,,55,127
90612,note_on,2,0,0,,6,,,54,127
90612,note_on,0,0,0,,11,,,70,127
90906,note_off,294,0,0,,11,,,70,127
90908,note_on,2,0,0,,6,,,66,127
90908,note_on,0,0,0,,0,,,72,127
91202,note_off,294,0,0,,0,,,72,127
91202,note_off,0,0,0,,6,,,66,127
91202,note_off,0,0,0,,6,,,54,127
91204,note_on,2,0,0,,5,,,53,127
91204,note_on,0,0,0,,5,,,65,127
91204,note_on,0,0,0,,1,,,73,127
91498,note_off,294,0,0,,5,,,65,127
91500,note_on,2,0,0,,7,,,67,127
91646,note_off,146,0,0,,7,,,67,127
91648,note_on,2,0,0,,8,,,68,127
91794,note_off,146,0,0,,8,,,68,127
91794,note_off,0,0,0,,5,,,53,127
91796,note_on,2,0,0,,1,,,49,127
91796,note_on,0,0,0,,11,,,58,127
91796,note_on,0,0,0,,11,,,70,127
92090,note_off,294,0,0,,1,,,73,127
92092,note_on,2,0,0,,3,,,75,127
92238,note_off,146,0,0,,3,,,75,127
92240,note_on,2,0,0,,1,,,73,127
92386,note_off,146,0,0,,1,,,73,127
92386,note_off,0,0,0,,1,,,49,127
92388,note_on,2,0,0,,3,,,51,127
92388,note_on,0,0,0,,0,,,72,127
92682,note_off,294,0,0,,11,,,70,127
92684,note_on,2,0,0,,8,,,68,127
92830,note_off,146,0,0,,8,,,68,127
92832,note_on,2,0,0,,6,,,66,127
92978,note_off,146,0,0,,6,,,66,127
92978,note_off,0,0,0,,0,,,72,127
92978,note_off,0,0,0,,3,,,51,127
92978,note_off,0,0,0,,11,,,58,127
92980,note_on,2,0,0,,8,,,56,127
92980,note_on,0,0,0,,5,,,53,127
92980,note_on,0,0,0,,8,,,68,127
92980,note_on,0,0,0,,0,,,72,127
93274,note_off,294,0,0,,5,,,53,127
93276,note_on,2,0,0,,3,,,51,127
93570,note_off,294,0,0,,3,,,51,127
93570,note_off,0,0,0,,0,,,72,127
93572,note_on,2,0,0,,1,,,49,127
93572,note_on,0,0,0,,11,,,70,127
93866,note_off,294,0,0,,1,,,49,127
93866,note_off,0,0,0,,8,,,68,127
93868,note_on,2,0,0,,3,,,51,127
93868,note_on,0,0,0,,7,,,67,127
94014,note_off,146,0,0,,7,,,67,127
94014,note_off,0,0,0,,3,,,51,127
94016,note_on,2,0,0,,5,,,53,127
94016,note_on,0,0,0,,5,,,65,127
94162,note_off,146,0,0,,5,,,65,127
94162,note_off,0,0,0,,5,,,53,127
94162,note_off,0,0,0,,11,,,70,127
94162,note_off,0,0,0,,8,,,56,127
94164,note_on,2,0,0,,3,,,51,127
94164,note_on,0,0,0,,7,,,55,127
94164,note_on,0,0,0,,7,,,67,127
94164,note_on,0,0,0,,11,,,70,127
94458,note_off,294,0,0,,3,,,51,127
94460,note_on,2,0,0,,1,,,49,127
94749,note_off,289,0,0,,7,,,55,127
94754,note_off,5,0,0,,1,,,49,127
94754,note_off,0,0,0,,11,,,70,127
94754,note_off,0,0,0,,7,,,67,127
94756,note_on,2,0,0,,8,,,56,127
94756,note_on,0,0,0,,0,,,48,127
94756,note_on,0,0,0,,8,,,68,127
94756,note_on,0,0,0,,0,,,72,127
95050,note_off,294,0,0,,0,,,72,127
95050,note_off,0,0,0,,0,,,48,127
95052,note_on,2,0,0,,11,,,46,127
95052,note_on,0,0,0,,1,,,73,127
95341,note_off,289,0,0,,8,,,56,127
95346,note_off,5,0,0,,1,,,73,127
95346,note_off,0,0,0,,11,,,46,127
95348,note_on,2,0,0,,8,,,44,127
95348,note_on,0,0,0,,8,,,56,127
95348,note_on,0,0,0,,3,,,75,127
95642,note_off,294,0,0,,8,,,68,127
95644,note_on,2,0,0,,7,,,67,127
95938,note_off,294,0,0,,7,,,67,127
95938,note_off,0,0,0,,8,,,56,127
95938,note_off,0,0,0,,8,,,44,127
95940,note_on,2,0,0,,11,,,46,127
95940,note_on,0,0,0,,11,,,58,127
95940,note_on,0,0,0,,5,,,65,127
96234,note_off,294,0,0,,3,,,75,127
96236,note_on,2,0,0,,2,,,74,127
96382,note_off,146,0,0,,2,,,74,127
96384,note_on,2,0,0,,0,,,72,127
96530,note_off,146,0,0,,0,,,72,127
96532,note_on,2,0,0,,2,,,74,127
96680,note_off,148,0,0,,11,,,58,127
96680,note_off,0,0,0,,11,,,46,127
96826,note_off,146,0,0,,2,,,74,127
96826,note_off,0,0,0,,5,,,65,127
96828,note_on,2,0,0,,0,,,48,127
96828,note_on,0,0,0,,0,,,60,127
96828,note_on,0,0,0,,11,,,70,127
96828,note_on,0,0,0,,4,,,76,127
97122,note_off,294,0,0,,4,,,76,127
97122,note_off,0,0,0,,11,,,70,127
97122,note_off,0,0,0,,0,,,60,127
97122,note_off,0,0,0,,0,,,48,127
97124,note_on,2,0,0,,5,,,41,127
97124,note_on,0,0,0,,5,,,53,127
97124,note_on,0,0,0,,10,,,69,127
97124,note_on,0,0,0,,5,,,77,127
97418,note_off,294,0,0,,10,,,69,127
97420,note_on,2,0,0,,5,,,65,127
97714,note_off,294,0,0,,5,,,65,127
97714,note_off,0,0,0,,5,,,77,127
97716,note_on,2,0,0,,10,,,69,127
97716,note_on,0,0,0,,5,,,77,127
97864,note_off,148,0,0,,5,,,53,127
97864,note_off,0,0,0,,5,,,41,127
98010,note_off,146,0,0,,10,,,69,127
98012,note_on,2,0,0,,7,,,43,127
98012,note_on,0,0,0,,7,,,55,127
98012,note_on,0,0,0,,12,,,71,127
98306,note_off,294,0,0,,12,,,71,127
98306,note_off,0,0,0,,7,,,55,127
98306,note_off,0,0,0,,7,,,43,127
98308,note_on,2,0,0,,0,,,48,127
98308,note_on,0,0,0,,0,,,60,127
98308,note_on,0,0,0,,0,,,72,127
98602,note_off,294,0,0,,5,,,77,127
98604,note_on,2,0,0,,4,,,76,127
98750,note_off,146,0,0,,4,,,76,127
98752,note_on,2,0,0,,2,,,74,127
98898,note_off,146,0,0,,2,,,74,127
98898,note_off,0,0,0,,0,,,72,127
98900,note_on,2,0,0,,0,,,72,127
98900,note_on,0,0,0,,4,,,76,127
99048,note_off,148,0,0,,0,,,60,127
99048,note_off,0,0,0,,0,,,48,127
99194,note_off,146,0,0,,4,,,76,127
99196,note_on,2,0,0,,2,,,50,127
99196,note_on,0,0,0,,2,,,62,127
99196,note_on,0,0,0,,6,,,78,127
99490,note_off,294,0,0,,6,,,78,127
99490,note_off,0,0,0,,2,,,62,127
99490,note_off,0,0,0,,2,,,50,127
99492,note_on,2,0,0,,7,,,43,127
99492,note_on,0,0,0,,7,,,55,127
99492,note_on,0,0,0,,7,,,79,127
99786,note_off,294,0,0,,7,,,79,127
99786,note_off,0,0,0,,0,,,72,127
99788,note_on,2,0,0,,11,,,70,127
99788,note_on,0,0,0,,2,,,74,127
99934,note_off,146,0,0,,11,,,70,127
99936,note_on,2,0,0,,10,,,69,127
100082,note_off,146,0,0,,10,,,69,127
100082,note_off,0,0,0,,2,,,74,127
100084,note_on,2,0,0,,11,,,70,127
100084,note_on,0,0,0,,7,,,79,127
100232,note_off,148,0,0,,7,,,55,127
100232,note_off,0,0,0,,7,,,43,127
100378,note_off,146,0,0,,11,,,70,127
100380,note_on,2,0,0,,3,,,51,127
100380,note_on,0,0,0,,0,,,72,127
100674,note_off,294,0,0,,0,,,72,127
100674,note_off,0,0,0,,3,,,51,127
100674,note_off,0,0,0,,7,,,79,127
100676,note_on,2,0,0,,2,,,50,127
100676,note_on,0,0,0,,2,,,74,127
100676,note_on,0,0,0,,6,,,78,127
100970,note_off,294,0,0,,2,,,74,127
100970,note_off,0,0,0,,2,,,50,127
100972,note_on,2,0,0,,3,,,51,127
100972,note_on,0,0,0,,0,,,72,127
101118,note_off,146,0,0,,0,,,72,127
101120,note_on,2,0,0,,11,,,70,127
101266,note_off,146,0,0,,11,,,70,127
101266,note_off,0,0,0,,3,,,51,127
101266,note_off,0,0,0,,6,,,78,127
101268,note_on,2,0,0,,5,,,53,127
101268,note_on,0,0,0,,10,,,69,127
101268,note_on,0,0,0,,5,,,77,127
101562,note_off,294,0,0,,10,,,69,127
101562,note_off,0,0,0,,5,,,53,127
101564,note_on,2,0,0,,7,,,55,127
101564,note_on,0,0,0,,12,,,71,127
101858,note_off,294,0,0,,12,,,71,127
101858,note_off,0,0,0,,7,,,55,127
101858,note_off,0,0,0,,5,,,77,127
101860,note_on,2,0,0,,0,,,48,127
101860,note_on,0,0,0,,0,,,72,127
101860,note_on,0,0,0,,4,,,76,127
102154,note_off,294,0,0,,0,,,72,127
102154,note_off,0,0,0,,0,,,48,127
102156,note_on,2,0,0,,2,,,50,127
102156,note_on,0,0,0,,11,,,70,127
102302,note_off,146,0,0,,11,,,70,127
102304,note_on,2,0,0,,10,,,69,127
102450,note_off,146,0,0,,10,,,69,127
102450,note_off,0,0,0,,2,,,50,127
102450,note_off,0,0,0,,4,,,76,127
102452,note_on,2,0,0,,3,,,51,127
102452,note_on,0,0,0,,7,,,67,127
102452,note_on,0,0,0,,3,,,75,127
102746,note_off,294,0,0,,7,,,67,127
102746,note_off,0,0,0,,3,,,51,127
102748,note_on,2,0,0,,5,,,53,127
102748,note_on,0,0,0,,10,,,69,127
103042,note_off,294,0,0,,10,,,69,127
103042,note_off,0,0,0,,5,,,53,127
103042,note_off,0,0,0,,3,,,75,127
103044,note_on,2,0,0,,7,,,55,127
103044,note_on,0,0,0,,11,,,70,127
103044,note_on,0,0,0,,2,,,74,127
103338,note_off,294,0,0,,2,,,74,127
103340,note_on,2,0,0,,7,,,43,127
103340,note_on,0,0,0,,4,,,76,127
103486,note_off,146,0,0,,4,,,76,127
103488,note_on,2,0,0,,6,,,78,127
103630,note_off,142,0,0,,7,,,55,127
103635,note_off,5,0,0,,6,,,78,127
103637,note_on,2,0,0,,7,,,55,127
103637,note_on,0,0,0,,7,,,79,127
103926,note_off,289,0,0,,7,,,43,127
103931,note_off,5,0,0,,11,,,70,127
103933,note_on,2,0,0,,7,,,43,127
103933,note_on,0,0,0,,11,,,70,127
104222,note_off,289,0,0,,7,,,55,127
104227,note_off,5,0,0,,11,,,70,127
104227,note_off,0,0,0,,7,,,43,127
104229,note_on,2,0,0,,0,,,60,127
104229,note_on,0,0,0,,0,,,48,127
104229,note_on,0,0,0,,10,,,69,127
104523,note_off,294,0,0,,10,,,69,127
104525,note_on,2,0,0,,3,,,75,127
104819,note_off,294,0,0,,3,,,75,127
104819,note_off,0,0,0,,0,,,48,127
104819,note_off,0,0,0,,0,,,60,127
104819,note_off,0,0,0,,7,,,79,127
104821,note_on,2,0,0,,2,,,50,127
104821,note_on,0,0,0,,2,,,62,127
104821,note_on,0,0,0,,2,,,74,127
104821,note_on,0,0,0,,5,,,77,127
105115,note_off,294,0,0,,2,,,74,127
105117,note_on,2,0,0,,0,,,72,127
105411,note_off,294,0,0,,0,,,72,127
105411,note_off,0,0,0,,2,,,50,127
105413,note_on,2,0,0,,7,,,55,127
105413,note_on,0,0,0,,12,,,71,127
105707,note_off,294,0,0,,12,,,71,127
105707,note_off,0,0,0,,2,,,62,127
105709,note_on,2,0,0,,0,,,60,127
105709,note_on,0,0,0,,7,,,67,127
105855,note_off,146,0,0,,0,,,60,127
105857,note_on,2,0,0,,12,,,59,127
105999,note_off,142,0,0,,7,,,55,127
106004,note_off,5,0,0,,12,,,59,127
106004,note_off,0,0,0,,7,,,67,127
106004,note_off,0,0,0,,5,,,77,127
106006,note_on,2,0,0,,8,,,56,127
106006,note_on,0,0,0,,0,,,60,127
106006,note_on,0,0,0,,0,,,72,127
106006,note_on,0,0,0,,3,,,75,127
106300,note_off,294,0,0,,8,,,56,127
106302,note_on,2,0,0,,7,,,55,127
106591,note_off,289,0,0,,0,,,60,127
106596,note_off,5,0,0,,7,,,55,127
106596,note_off,0,0,0,,3,,,75,127
106598,note_on,2,0,0,,5,,,53,127
106598,note_on,0,0,0,,2,,,62,127
106598,note_on,0,0,0,,2,,,74,127
106892,note_off,294,0,0,,5,,,53,127
106894,note_on,2,0,0,,7,,,55,127
107040,note_off,146,0,0,,7,,,55,127
107042,note_on,2,0,0,,8,,,56,127
107188,note_off,146,0,0,,8,,,56,127
107188,note_off,0,0,0,,0,,,72,127
107190,note_on,2,0,0,,7,,,55,127
107190,note_on,0,0,0,,12,,,71,127
107484,note_off,294,0,0,,7,,,55,127
107486,note_on,2,0,0,,5,,,53,127
107780,note_off,294,0,0,,5,,,53,127
107780,note_off,0,0,0,,12,,,71,127
107780,note_off,0,0,0,,2,,,74,127
107780,note_off,0,0,0,,2,,,62,127
107782,note_on,2,0,0,,3,,,51,127
107782,note_on,0,0,0,,3,,,63,127
107782,note_on,0,0,0,,0,,,72,127
108076,note_off,294,0,0,,0,,,72,127
108076,note_off,0,0,0,,3,,,63,127
108076,note_off,0,0,0,,3,,,51,127
108078,note_on,2,0,0,,2,,,50,127
108078,note_on,0,0,0,,5,,,65,127
108078,note_on,0,0,0,,2,,,74,127
108372,note_off,294,0,0,,2,,,74,127
108372,note_off,0,0,0,,5,,,65,127
108372,note_off,0,0,0,,2,,,50,127
108374,note_on,2,0,0,,0,,,48,127
108374,note_on,0,0,0,,7,,,67,127
108374,note_on,0,0,0,,3,,,75,127
108668,note_off,294,0,0,,7,,,67,127
108668,note_off,0,0,0,,0,,,48,127
108670,note_on,2,0,0,,11,,,46,127
108670,note_on,0,0,0,,10,,,69,127
108816,note_off,146,0,0,,11,,,46,127
108818,note_on,2,0,0,,10,,,45,127
108964,note_off,146,0,0,,10,,,45,127
108964,note_off,0,0,0,,10,,,69,127
108964,note_off,0,0,0,,3,,,75,127
108966,note_on,2,0,0,,7,,,55,127
108966,note_on,0,0,0,,12,,,71,127
108966,note_on,0,0,0,,2,,,74,127
109260,note_off,294,0,0,,2,,,74,127
109260,note_off,0,0,0,,12,,,71,127
109260,note_off,0,0,0,,7,,,55,127
109262,note_on,2,0,0,,5,,,53,127
109262,note_on,0,0,0,,0,,,72,127
109262,note_on,0,0,0,,3,,,75,127
109408,note_off,146,0,0,,5,,,53,127
109410,note_on,2,0,0,,3,,,51,127
109556,note_off,146,0,0,,3,,,51,127
109556,note_off,0,0,0,,3,,,75,127
109558,note_on,2,0,0,,2,,,50,127
109558,note_on,0,0,0,,5,,,77,127
109852,note_off,294,0,0,,2,,,50,127
109852,note_off,0,0,0,,0,,,72,127
109854,note_on,2,0,0,,7,,,55,127
109854,note_on,0,0,0,,12,,,71,127
110148,note_off,294,0,0,,12,,,71,127
110148,note_off,0,0,0,,7,,,55,127
110148,note_off,0,0,0,,5,,,77,127
110150,note_on,2,0,0,,0,,,60,127
110150,note_on,0,0,0,,0,,,72,127
110150,note_on,0,0,0,,4,,,76,127
110444,note_off,294,0,0,,4,,,76,127
110444,note_off,0,0,0,,0,,,72,127
110444,note_off,0,0,0,,0,,,60,127
110446,note_on,2,0,0,,11,,,58,127
110446,note_on,0,0,0,,7,,,67,127
110446,note_on,0,0,0,,5,,,77,127
110592,note_off,146,0,0,,11,,,58,127
110594,note_on,2,0,0,,8,,,56,127
110740,note_off,146,0,0,,8,,,56,127
110740,note_off,0,0,0,,7,,,67,127
110742,note_on,2,0,0,,7,,,55,127
110742,note_on,0,0,0,,11,,,70,127
111036,note_off,294,0,0,,7,,,55,127
111036,note_off,0,0,0,,5,,,77,127
111038,note_on,2,0,0,,0,,,60,127
111038,note_on,0,0,0,,4,,,76,127
111332,note_off,294,0,0,,4,,,76,127
111332,note_off,0,0,0,,0,,,60,127
111332,note_off,0,0,0,,11,,,70,127
111334,note_on,2,0,0,,5,,,77,127
111334,note_on,0,0,0,,8,,,68,127
111334,note_on,0,0,0,,8,,,56,127
111334,note_on,0,0,0,,5,,,53,127
111632,note_off,298,0,0,,8,,,68,127
111632,note_off,0,0,0,,5,,,77,127
111634,note_on,2,0,0,,7,,,79,127
111634,note_on,0,0,0,,11,,,70,127
111932,note_off,298,0,0,,11,,,70,127
111932,note_off,0,0,0,,7,,,79,127
111935,note_on,3,0,0,,8,,,80,127
111935,note_on,0,0,0,,0,,,72,127
112233,note_off,298,0,0,,0,,,72,127
112235,note_off,2,0,0,,5,,,53,127
112235,note_off,0,0,0,,8,,,56,127
112237,note_on,2,0,0,,2,,,74,127
112237,note_on,0,0,0,,3,,,51,127
112237,note_on,0,0,0,,7,,,55,127
112385,note_off,148,0,0,,7,,,55,127
112385,note_off,0,0,0,,3,,,51,127
112388,note_on,3,0,0,,5,,,53,127
112388,note_on,0,0,0,,2,,,50,127
112536,note_off,148,0,0,,2,,,50,127
112536,note_off,0,0,0,,5,,,53,127
112536,note_off,0,0,0,,2,,,74,127
112536,note_off,0,0,0,,8,,,80,127
112539,note_on,3,0,0,,7,,,79,127
112539,note_on,0,0,0,,3,,,75,127
112539,note_on,0,0,0,,0,,,60,127
112539,note_on,0,0,0,,0,,,48,127
112837,note_off,298,0,0,,0,,,48,127
112837,note_off,0,0,0,,3,,,75,127
112840,note_on,3,0,0,,2,,,74,127
112840,note_on,0,0,0,,2,,,50,127
113134,note_off,294,0,0,,0,,,60,127
113139,note_off,5,0,0,,2,,,50,127
113139,note_off,0,0,0,,2,,,74,127
113142,note_on,3,0,0,,0,,,72,127
113142,note_on,0,0,0,,0,,,60,127
113142,note_on,0,0,0,,3,,,51,127
113440,note_off,298,0,0,,3,,,51,127
113440,note_off,0,0,0,,7,,,79,127
113442,note_on,2,0,0,,5,,,77,127
113442,note_on,0,0,0,,5,,,53,127
113590,note_off,148,0,0,,5,,,77,127
113593,note_on,3,0,0,,3,,,75,127
113738,note_off,145,0,0,,0,,,60,127
113741,note_off,3,0,0,,3,,,75,127
113741,note_off,0,0,0,,5,,,53,127
113743,note_off,2,0,0,,0,,,72,127
113745,note_on,2,0,0,,2,,,74,127
113745,note_on,0,0,0,,12,,,71,127
113745,note_on,0,0,0,,7,,,55,127
113745,note_on,0,0,0,,7,,,43,127
114047,note_off,302,0,0,,12,,,71,127
114047,note_off,0,0,0,,2,,,74,127
114052,note_on,5,0,0,,7,,,79,127
114052,note_on,0,0,0,,7,,,67,127
114354,note_off,302,0,0,,7,,,67,127
114354,note_off,0,0,0,,7,,,79,127
114356,note_off,2,0,0,,7,,,43,127
114356,note_off,0,0,0,,7,,,55,127
114361,note_on,5,0,0,,6,,,78,127
114361,note_on,0,0,0,,10,,,69,127
114361,note_on,0,0,0,,7,,,55,127
114361,note_on,0,0,0,,7,,,43,127
114663,note_off,302,0,0,,10,,,69,127
114663,note_off,0,0,0,,6,,,78,127
114669,note_on,6,0,0,,5,,,77,127
114669,note_on,0,0,0,,12,,,71,127
114971,note_off,302,0,0,,12,,,71,127
114971,note_off,0,0,0,,5,,,77,127
114971,note_off,0,0,0,,7,,,43,127
114971,note_off,0,0,0,,7,,,55,127
114977,note_on,6,0,0,,4,,,76,127
114977,note_on,0,0,0,,0,,,72,127
114977,note_on,0,0,0,,7,,,55,127
114977,note_on,0,0,0,,7,,,43,127
115279,note_off,302,0,0,,7,,,55,127
115279,note_off,0,0,0,,0,,,72,127
115279,note_off,0,0,0,,4,,,76,127
115285,note_on,6,0,0,,3,,,75,127
115285,note_on,0,0,0,,0,,,72,127
115285,note_on,0,0,0,,7,,,55,127
115582,note_off,297,0,0,,7,,,43,127
115587,note_off,5,0,0,,7,,,55,127
115592,note_on,5,0,0,,7,,,43,127
115592,note_on,0,0,0,,6,,,54,127
115894,note_off,302,0,0,,6,,,54,127
115896,note_off,2,0,0,,0,,,72,127
115896,note_off,0,0,0,,3,,,75,127
115901,note_on,5,0,0,,2,,,74,127
115901,note_on,0,0,0,,12,,,71,127
115901,note_on,0,0,0,,5,,,53,127
116049,note_off,148,0,0,,12,,,71,127
116049,note_off,0,0,0,,2,,,74,127
116055,note_on,6,0,0,,0,,,72,127
116055,note_on,0,0,0,,10,,,69,127
116198,note_off,143,0,0,,7,,,43,127
116203,note_off,5,0,0,,10,,,69,127
116203,note_off,0,0,0,,0,,,72,127
116209,note_on,6,0,0,,12,,,71,127
116209,note_on,0,0,0,,7,,,67,127
116209,note_on,0,0,0,,7,,,43,127
116506,note_off,297,0,0,,5,,,53,127
116511,note_off,5,0,0,,7,,,67,127
116511,note_off,0,0,0,,12,,,71,127
116517,note_on,6,0,0,,0,,,72,127
116517,note_on,0,0,0,,7,,,67,127
116517,note_on,0,0,0,,3,,,51,127
116814,note_off,297,0,0,,7,,,43,127
116819,note_off,5,0,0,,3,,,51,127
116819,note_off,0,0,0,,7,,,67,127
116819,note_off,0,0,0,,0,,,72,127
116825,note_on,6,0,0,,2,,,74,127
116825,note_on,0,0,0,,5,,,65,127
116825,note_on,0,0,0,,2,,,50,127
116825,note_on,0,0,0,,7,,,43,127
117127,note_off,302,0,0,,2,,,50,127
117127,note_off,0,0,0,,5,,,65,127
117127,note_off,0,0,0,,2,,,74,127
117133,note_on,6,0,0,,2,,,74,127
117133,note_on,0,0,0,,12,,,71,127
117133,note_on,0,0,0,,7,,,55,127
117281,note_off,148,0,0,,7,,,55,127
117287,note_on,6,0,0,,5,,,53,127
117430,note_off,143,0,0,,7,,,43,127
117435,note_off,5,0,0,,5,,,53,127
117435,note_off,0,0,0,,12,,,71,127
117435,note_off,0,0,0,,2,,,74,127
117441,note_on,6,0,0,,4,,,76,127
117441,note_on,0,0,0,,0,,,72,127
117441,note_on,0,0,0,,0,,,48,127
117441,note_on,0,0,0,,4,,,52,127
117743,note_off,302,0,0,,0,,,72,127
117743,note_off,0,0,0,,4,,,76,127
117748,note_on,5,0,0,,0,,,84,127
117748,note_on,0,0,0,,0,,,72,127
118050,note_off,302,0,0,,0,,,72,127
118050,note_off,0,0,0,,0,,,84,127
118052,note_off,2,0,0,,4,,,52,127
118052,note_off,0,0,0,,0,,,48,127
118057,note_on,5,0,0,,12,,,83,127
118057,note_on,0,0,0,,2,,,74,127
118057,note_on,0,0,0,,0,,,48,127
118359,note_off,302,0,0,,2,,,74,127
118359,note_off,0,0,0,,12,,,83,127
118364,note_on,5,0,0,,11,,,82,127
118364,note_on,0,0,0,,4,,,76,127
118666,note_off,302,0,0,,4,,,76,127
118666,note_off,0,0,0,,11,,,82,127
118668,note_off,2,0,0,,0,,,48,127
118673,note_on,5,0,0,,10,,,81,127
118673,note_on,0,0,0,,5,,,77,127
118673,note_on,0,0,0,,0,,,48,127
118973,note_off,300,0,0,,10,,,81,127
118975,note_off,2,0,0,,5,,,77,127
118981,note_on,6,0,0,,8,,,80,127
118981,note_on,0,0,0,,5,,,77,127
118981,note_on,0,0,0,,0,,,60,127
119129,note_off,148,0,0,,5,,,77,127
119135,note_on,6,0,0,,3,,,75,127
119283,note_off,148,0,0,,3,,,75,127
119283,note_off,0,0,0,,0,,,60,127
119289,note_on,6,0,0,,2,,,74,127
119289,note_on,0,0,0,,12,,,59,127
119586,note_off,297,0,0,,8,,,80,127
119591,note_off,5,0,0,,12,,,59,127
119591,note_off,0,0,0,,2,,,74,127
119597,note_on,6,0,0,,7,,,79,127
119597,note_on,0,0,0,,2,,,74,127
119597,note_on,0,0,0,,11,,,58,127
119745,note_off,148,0,0,,7,,,79,127
119751,note_on,6,0,0,,5,,,77,127
119899,note_off,148,0,0,,5,,,77,127
119899,note_off,0,0,0,,2,,,74,127
119899,note_off,0,0,0,,0,,,48,127
119905,note_on,6,0,0,,4,,,76,127
119905,note_on,0,0,0,,7,,,67,127
119905,note_on,0,0,0,,0,,,48,127
120202,note_off,297,0,0,,11,,,58,127
120207,note_off,5,0,0,,7,,,67,127
120207,note_off,0,0,0,,4,,,76,127
120213,note_on,6,0,0,,5,,,77,127
120213,note_on,0,0,0,,8,,,68,127
120213,note_on,0,0,0,,8,,,56,127
120510,note_off,297,0,0,,0,,,48,127
120515,note_off,5,0,0,,8,,,56,127
120515,note_off,0,0,0,,8,,,68,127
120521,note_on,6,0,0,,11,,,70,127
120521,note_on,0,0,0,,7,,,55,127
120521,note_on,0,0,0,,0,,,48,127
120823,note_off,302,0,0,,7,,,55,127
120823,note_off,0,0,0,,11,,,70,127
120823,note_off,0,0,0,,5,,,77,127
120828,note_on,5,0,0,,4,,,76,127
120828,note_on,0,0,0,,7,,,67,127
120828,note_on,0,0,0,,0,,,60,127
120976,note_off,148,0,0,,0,,,60,127
120982,note_on,6,0,0,,11,,,58,127
121127,note_off,145,0,0,,0,,,48,127
121130,note_off,3,0,0,,11,,,58,127
121130,note_off,0,0,0,,7,,,67,127
121130,note_off,0,0,0,,4,,,76,127
121136,note_on,6,0,0,,5,,,77,127
121136,note_on,0,0,0,,5,,,65,127
121136,note_on,0,0,0,,5,,,53,127
121136,note_on,0,0,0,,10,,,57,127
121438,note_off,302,0,0,,10,,,57,127
121438,note_off,0,0,0,,5,,,77,127
121444,note_on,6,0,0,,3,,,75,127
121444,note_on,0,0,0,,11,,,58,127
121592,note_off,148,0,0,,3,,,75,127
121597,note_on,5,0,0,,2,,,74,127
121742,note_off,145,0,0,,5,,,53,127
121745,note_off,3,0,0,,2,,,74,127
121747,note_off,2,0,0,,5,,,65,127
121752,note_on,5,0,0,,0,,,72,127
121752,note_on,0,0,0,,5,,,65,127
121752,note_on,0,0,0,,5,,,53,127
122050,note_off,298,0,0,,11,,,58,127
122053,note_off,3,0,0,,0,,,72,127
122059,note_on,6,0,0,,5,,,77,127
122059,note_on,0,0,0,,10,,,57,127
122207,note_off,148,0,0,,5,,,77,127
122213,note_on,6,0,0,,3,,,75,127
122356,note_off,143,0,0,,5,,,53,127
122361,note_off,5,0,0,,3,,,75,127
122361,note_off,0,0,0,,10,,,57,127
122361,note_off,0,0,0,,5,,,65,127
122367,note_on,6,0,0,,2,,,74,127
122367,note_on,0,0,0,,5,,,65,127
122367,note_on,0,0,0,,11,,,58,127
122367,note_on,0,0,0,,11,,,46,127
122669,note_off,302,0,0,,11,,,58,127
122669,note_off,0,0,0,,5,,,65,127
122669,note_off,0,0,0,,2,,,74,127
122674,note_on,5,0,0,,3,,,75,127
122674,note_on,0,0,0,,7,,,67,127
122674,note_on,0,0,0,,5,,,53,127
122972,note_off,298,0,0,,11,,,46,127
122975,note_off,3,0,0,,7,,,67,127
122981,note_on,6,0,0,,8,,,68,127
122981,note_on,0,0,0,,11,,,46,127
123278,note_off,297,0,0,,5,,,53,127
123283,note_off,5,0,0,,8,,,68,127
123283,note_off,0,0,0,,3,,,75,127
123288,note_on,5,0,0,,2,,,74,127
123288,note_on,0,0,0,,5,,,65,127
123288,note_on,0,0,0,,11,,,58,127
123436,note_off,148,0,0,,11,,,58,127
123442,note_on,6,0,0,,8,,,56,127
123587,note_off,145,0,0,,11,,,46,127
123590,note_off,3,0,0,,8,,,56,127
123590,note_off,0,0,0,,5,,,65,127
123590,note_off,0,0,0,,2,,,74,127
123596,note_on,6,0,0,,3,,,75,127
123596,note_on,0,0,0,,7,,,67,127
123596,note_on,0,0,0,,7,,,55,127
123596,note_on,0,0,0,,3,,,51,127
123898,note_off,302,0,0,,3,,,51,127
123898,note_off,0,0,0,,7,,,55,127
123898,note_off,0,0,0,,7,,,67,127
123904,note_on,6,0,0,,10,,,69,127
123904,note_on,0,0,0,,2,,,50,127
123904,note_on,0,0,0,,5,,,53,127
124052,note_off,148,0,0,,10,,,69,127
124058,note_on,6,0,0,,12,,,71,127
124206,note_off,148,0,0,,12,,,71,127
124206,note_off,0,0,0,,5,,,53,127
124206,note_off,0,0,0,,2,,,50,127
124206,note_off,0,0,0,,3,,,75,127
124212,note_on,6,0,0,,7,,,79,127
124212,note_on,0,0,0,,3,,,75,127
124212,note_on,0,0,0,,0,,,72,127
124212,note_on,0,0,0,,0,,,48,127
124212,note_on,0,0,0,,3,,,51,127
124514,note_off,302,0,0,,3,,,51,127
124514,note_off,0,0,0,,0,,,48,127
124514,note_off,0,0,0,,0,,,72,127
124514,note_off,0,0,0,,3,,,75,127
124520,note_on,6,0,0,,2,,,74,127
124520,note_on,0,0,0,,11,,,46,127
124520,note_on,0,0,0,,5,,,53,127
124668,note_off,148,0,0,,11,,,46,127
124668,note_off,0,0,0,,2,,,74,127
124674,note_on,6,0,0,,0,,,72,127
124674,note_on,0,0,0,,8,,,44,127
124820,note_off,146,0,0,,5,,,53,127
124822,note_off,2,0,0,,8,,,44,127
124822,note_off,0,0,0,,0,,,72,127
124828,note_on,6,0,0,,7,,,55,127
124828,note_on,0,0,0,,7,,,43,127
124828,note_on,0,0,0,,12,,,71,127
125134,note_off,306,0,0,,12,,,71,127
125134,note_off,0,0,0,,7,,,55,127
125142,note_on,8,0,0,,12,,,71,127
125142,note_on,0,0,0,,7,,,67,127
125142,note_on,0,0,0,,7,,,55,127
125444,note_off,302,0,0,,7,,,43,127
125450,note_off,6,0,0,,7,,,55,127
125450,note_off,0,0,0,,7,,,67,127
125450,note_off,0,0,0,,12,,,71,127
125459,note_on,9,0,0,,0,,,72,127
125459,note_on,0,0,0,,10,,,69,127
125459,note_on,0,0,0,,6,,,54,127
125459,note_on,0,0,0,,7,,,43,127
125767,note_off,308,0,0,,6,,,54,127
125767,note_off,0,0,0,,10,,,69,127
125767,note_off,0,0,0,,0,,,72,127
125775,note_on,8,0,0,,2,,,74,127
125775,note_on,0,0,0,,8,,,68,127
125775,note_on,0,0,0,,5,,,53,127
126081,note_off,306,0,0,,7,,,43,127
126083,note_off,2,0,0,,5,,,53,127
126083,note_off,0,0,0,,8,,,68,127
126083,note_off,0,0,0,,2,,,74,127
126092,note_on,9,0,0,,7,,,67,127
126092,note_on,0,0,0,,4,,,52,127
126092,note_on,0,0,0,,7,,,43,127
126361,note_off,269,0,0,,7,,,79,127
126399,note_off,38,0,0,,4,,,52,127
126399,note_off,0,0,0,,7,,,67,127
126408,note_on,9,0,0,,0,,,84,127
126408,note_on,0,0,0,,0,,,72,127
126408,note_on,0,0,0,,3,,,51,127
126713,note_off,305,0,0,,7,,,43,127
126716,note_off,3,0,0,,3,,,51,127
126716,note_off,0,0,0,,0,,,72,127
126716,note_off,0,0,0,,0,,,84,127
126725,note_on,9,0,0,,12,,,83,127
126725,note_on,0,0,0,,2,,,74,127
126725,note_on,0,0,0,,7,,,43,127
126725,note_on,0,0,0,,2,,,50,127
127033,note_off,308,0,0,,2,,,50,127
127033,note_off,0,0,0,,2,,,74,127
127033,note_off,0,0,0,,12,,,83,127
127041,note_on,8,0,0,,11,,,82,127
127041,note_on,0,0,0,,4,,,76,127
127041,note_on,0,0,0,,0,,,48,127
127347,note_off,306,0,0,,7,,,43,127
127349,note_off,2,0,0,,0,,,48,127
127349,note_off,0,0,0,,4,,,76,127
127349,note_off,0,0,0,,11,,,82,127
127357,note_on,8,0,0,,10,,,81,127
127357,note_on,0,0,0,,5,,,77,127
127357,note_on,0,0,0,,7,,,43,127
127665,note_off,308,0,0,,5,,,77,127
127665,note_off,0,0,0,,10,,,81,127
127674,note_on,9,0,0,,8,,,80,127
127674,note_on,0,0,0,,0,,,72,127
127674,note_on,0,0,0,,5,,,53,127
127979,note_off,305,0,0,,7,,,43,127
127982,note_off,3,0,0,,5,,,53,127
127982,note_off,0,0,0,,0,,,72,127
127982,note_off,0,0,0,,8,,,80,127
127991,note_on,9,0,0,,7,,,79,127
127991,note_on,0,0,0,,12,,,71,127
127991,note_on,0,0,0,,7,,,43,127
127991,note_on,0,0,0,,7,,,55,127
128299,note_off,308,0,0,,7,,,55,127
128299,note_off,0,0,0,,12,,,71,127
128299,note_off,0,0,0,,7,,,79,127
128310,note_on,11,0,0,,7,,,79,127
128310,note_on,0,0,0,,11,,,70,127
128310,note_on,0,0,0,,7,,,55,127
128613,note_off,303,0,0,,7,,,43,127
128618,note_off,5,0,0,,7,,,55,127
128618,note_off,0,0,0,,11,,,70,127
128618,note_off,0,0,0,,7,,,79,127
128629,note_on,11,0,0,,6,,,78,127
128629,note_on,0,0,0,,10,,,69,127
128629,note_on,0,0,0,,7,,,55,127
128629,note_on,0,0,0,,7,,,43,127
128937,note_off,308,0,0,,10,,,69,127
128937,note_off,0,0,0,,6,,,78,127
128945,note_on,8,0,0,,5,,,77,127
128945,note_on,0,0,0,,8,,,68,127
129253,note_off,308,0,0,,8,,,68,127
129253,note_off,0,0,0,,5,,,77,127
129258,note_off,5,0,0,,7,,,43,127
129258,note_off,0,0,0,,7,,,55,127
129263,note_on,5,0,0,,4,,,76,127
129263,note_on,0,0,0,,7,,,67,127
129263,note_on,0,0,0,,7,,,55,127
129263,note_on,0,0,0,,7,,,43,127
129571,note_off,308,0,0,,7,,,67,127
129571,note_off,0,0,0,,4,,,76,127
129580,note_on,9,0,0,,3,,,75,127
129580,note_on,0,0,0,,7,,,67,127
129888,note_off,308,0,0,,7,,,67,127
129891,note_off,3,0,0,,7,,,43,127
129891,note_off,0,0,0,,7,,,55,127
129897,note_on,6,0,0,,8,,,68,127
129897,note_on,0,0,0,,5,,,53,127
129897,note_on,0,0,0,,7,,,43,127
130208,note_off,311,0,0,,3,,,75,127
130214,note_on,6,0,0,,2,,,74,127
130363,note_off,149,0,0,,2,,,74,127
130372,note_on,9,0,0,,0,,,72,127
130521,note_off,149,0,0,,0,,,72,127
130524,note_off,3,0,0,,7,,,43,127
130524,note_off,0,0,0,,5,,,53,127
130524,note_off,0,0,0,,8,,,68,127
130530,note_on,6,0,0,,12,,,71,127
130530,note_on,0,0,0,,7,,,67,127
130530,note_on,0,0,0,,7,,,55,127
130530,note_on,0,0,0,,7,,,43,127
130838,note_off,308,0,0,,7,,,55,127
130838,note_off,0,0,0,,7,,,67,127
130838,note_off,0,0,0,,12,,,71,127
130846,note_on,8,0,0,,0,,,72,127
130846,note_on,0,0,0,,5,,,65,127
130846,note_on,0,0,0,,2,,,50,127
130995,note_off,149,0,0,,0,,,72,127
131004,note_on,9,0,0,,2,,,74,127
131152,note_off,148,0,0,,7,,,43,127
131154,note_off,2,0,0,,2,,,74,127
131154,note_off,0,0,0,,2,,,50,127
131154,note_off,0,0,0,,5,,,65,127
131163,note_on,9,0,0,,7,,,67,127
131163,note_on,0,0,0,,3,,,63,127
131163,note_on,0,0,0,,7,,,43,127
131163,note_on,0,0,0,,3,,,51,127
131471,note_off,308,0,0,,7,,,67,127
131480,note_on,9,0,0,,10,,,69,127
131629,note_off,149,0,0,,10,,,69,127
131638,note_on,9,0,0,,12,,,71,127
131787,note_off,149,0,0,,12,,,71,127
131790,note_off,3,0,0,,7,,,43,127
131796,note_on,6,0,0,,0,,,72,127
131796,note_on,0,0,0,,7,,,43,127
132107,note_off,311,0,0,,3,,,51,127
132107,note_off,0,0,0,,3,,,63,127
132113,note_on,6,0,0,,2,,,62,127
132113,note_on,0,0,0,,5,,,53,127
132262,note_off,149,0,0,,2,,,62,127
132271,note_on,9,0,0,,0,,,60,127
132417,note_off,146,0,0,,7,,,43,127
132420,note_off,3,0,0,,0,,,60,127
132420,note_off,0,0,0,,5,,,53,127
132429,note_on,9,0,0,,2,,,62,127
132429,note_on,0,0,0,,7,,,55,127
132429,note_on,0,0,0,,7,,,43,127
132740,note_off,311,0,0,,0,,,72,127
132746,note_on,6,0,0,,12,,,71,127
132895,note_off,149,0,0,,12,,,71,127
132903,note_on,8,0,0,,10,,,69,127
133052,note_off,149,0,0,,10,,,69,127
133057,note_off,5,0,0,,7,,,43,127
133057,note_off,0,0,0,,7,,,55,127
133062,note_on,5,0,0,,12,,,71,127
133062,note_on,0,0,0,,7,,,43,127
133062,note_on,0,0,0,,7,,,55,127
133374,note_off,312,0,0,,2,,,62,127
133377,note_on,3,0,0,,2,,,62,127
133688,note_off,311,0,0,,2,,,62,127
133690,note_off,2,0,0,,7,,,55,127
133690,note_off,0,0,0,,7,,,43,127
133690,note_off,0,0,0,,12,,,71,127
133698,note_on,8,0,0,,0,,,72,127
133698,note_on,0,0,0,,4,,,64,127
133698,note_on,0,0,0,,0,,,48,127
133698,note_on,0,0,0,,0,,,36,127
134015,note_off,317,0,0,,4,,,64,127
134026,note_on,11,0,0,,5,,,65,127
134343,note_off,317,0,0,,5,,,65,127
134345,note_off,2,0,0,,0,,,36,127
134345,note_off,0,0,0,,0,,,48,127
134356,note_on,11,0,0,,0,,,36,127
134356,note_on,0,0,0,,0,,,48,127
134356,note_on,0,0,0,,7,,,67,127
134671,note_off,315,0,0,,0,,,72,127
134694,note_on,23,0,0,,11,,,70,127
135014,note_off,320,0,0,,0,,,48,127
135014,note_off,0,0,0,,0,,,36,127
135017,note_off,3,0,0,,11,,,70,127
135029,note_on,12,0,0,,0,,,48,127
135029,note_on,0,0,0,,0,,,36,127
135029,note_on,0,0,0,,8,,,68,127
135346,note_off,317,0,0,,7,,,67,127
135363,note_on,17,0,0,,5,,,65,127
135515,note_off,152,0,0,,5,,,65,127
135532,note_on,17,0,0,,4,,,64,127
135684,note_off,152,0,0,,4,,,64,127
135687,note_off,3,0,0,,0,,,36,127
135687,note_off,0,0,0,,0,,,48,127
135699,note_on,12,0,0,,0,,,36,127
135699,note_on,0,0,0,,0,,,48,127
135699,note_on,0,0,0,,5,,,65,127
136019,note_off,320,0,0,,8,,,68,127
136037,note_on,18,0,0,,11,,,70,127
136189,note_off,152,0,0,,11,,,70,127
136207,note_on,18,0,0,,8,,,68,127
136356,note_off,149,0,0,,0,,,48,127
136356,note_off,0,0,0,,0,,,36,127
136359,note_off,3,0,0,,8,,,68,127
136376,note_on,17,0,0,,7,,,67,127
136376,note_on,0,0,0,,0,,,48,127
136376,note_on,0,0,0,,0,,,36,127
136699,note_off,323,0,0,,7,,,67,127
136714,note_on,15,0,0,,10,,,69,127
136866,note_off,152,0,0,,10,,,69,127
136883,note_on,17,0,0,,12,,,71,127
137034,note_off,151,0,0,,0,,,36,127
137034,note_off,0,0,0,,0,,,48,127
137036,note_off,2,0,0,,12,,,71,127
137053,note_on,17,0,0,,0,,,72,127
137053,note_on,0,0,0,,0,,,36,127
137053,note_on,0,0,0,,0,,,48,127
137355,note_off,302,0,0,,5,,,65,127
137377,note_off,22,0,0,,0,,,72,127
137400,note_on,23,0,0,,12,,,71,127
137400,note_on,0,0,0,,5,,,65,127
137712,note_off,312,0,0,,0,,,48,127
137712,note_off,0,0,0,,0,,,36,127
137730,note_off,18,0,0,,5,,,65,127
137730,note_off,0,0,0,,12,,,71,127
137762,note_on,32,0,0,,0,,,72,127
137762,note_on,0,0,0,,7,,,67,127
137762,note_on,0,0,0,,4,,,64,127
137762,note_on,0,0,0,,0,,,48,127
137762,note_on,0,0,0,,0,,,36,127
140356,note_off,2594,0,0,,0,,,36,127
140356,note_off,0,0,0,,0,,,48,127
140356,note_off,0,0,0,,4,,,64,127
140356,note_off,0,0,0,,7,,,67,127
140356,note_off,0,0,0,,0,,,72,127
145920,end_of_track,5564,1,0,,,,,,
