tick,type,time,meta,track,program,channel,pitch,tempo,note,velocity
0,copyright,0,1,0,,,,,,
0,program_change,0,0,0,6,0,,,,
0,pitchwheel,0,0,0,,0,0,,,
0,program_change,0,0,0,6,1,,,,
0,pitchwheel,0,0,0,,1,-590,,,
0,program_change,0,0,0,6,2,,,,
0,pitchwheel,0,0,0,,2,-272,,,
0,program_change,0,0,0,6,3,,,,
0,pitchwheel,0,0,0,,3,-353,,,
0,program_change,0,0,0,6,4,,,,
0,pitchwheel,0,0,0,,4,-560,,,
0,program_change,0,0,0,6,5,,,,
0,pitchwheel,0,0,0,,5,-80,,,
0,program_change,0,0,0,6,6,,,,
0,pitchwheel,0,0,0,,6,-625,,,
0,program_change,0,0,0,6,7,,,,
0,pitchwheel,0,0,0,,7,-130,,,
0,program_change,0,0,0,6,8,,,,
0,pitchwheel,0,0,0,,8,-512,,,
0,program_change,0,0,0,6,10,,,,
0,pitchwheel,0,0,0,,10,-464,,,
0,program_change,0,0,0,6,11,,,,
0,pitchwheel,0,0,0,,11,-208,,,
0,program_change,0,0,0,6,12,,,,
0,pitchwheel,0,0,0,,12,-553,,,
0,set_tempo,0,1,0,,,,500000,,
96,note_on,96,0,0,,5,,,77,127
288,note_on,192,0,0,,0,,,72,127
384,note_off,96,0,0,,5,,,77,127
478,note_off,94,0,0,,0,,,72,127
480,note_on,2,0,0,,10,,,69,127
670,note_off,190,0,0,,10,,,69,127
672,note_on,2,0,0,,5,,,65,127
862,note_off,190,0,0,,5,,,65,127
864,note_on,2,0,0,,5,,,41,127
864,note_on,0,0,0,,7,,,79,127
928,note_on,64,0,0,,5,,,77,127
944,note_off,16,0,0,,7,,,79,127
992,note_on,48,0,0,,7,,,79,127
1008,note_off,16,0,0,,5,,,77,127
1054,note_off,46,0,0,,5,,,41,127
1056,note_on,2,0,0,,10,,,45,127
1056,note_on,0,0,0,,5,,,77,127
1072,note_off,16,0,0,,7,,,79,127
1120,note_on,48,0,0,,7,,,79,127
1136,note_off,16,0,0,,5,,,77,127
1184,note_on,48,0,0,,5,,,77,127
1200,note_off,16,0,0,,7,,,79,127
1246,note_off,46,0,0,,10,,,45,127
1248,note_on,2,0,0,,0,,,48,127
1248,note_on,0,0,0,,7,,,79,127
1264,note_off,16,0,0,,5,,,77,127
1312,note_on,48,0,0,,5,,,77,127
1328,note_off,16,0,0,,7,,,79,127
1376,note_on,48,0,0,,7,,,79,127
1392,note_off,16,0,0,,5,,,77,127
1438,note_off,46,0,0,,0,,,48,127
1440,note_on,2,0,0,,5,,,53,127
1440,note_on,0,0,0,,5,,,77,127
1456,note_off,16,0,0,,7,,,79,127
1504,note_on,48,0,0,,4,,,76,127
1520,note_off,16,0,0,,5,,,77,127
1568,note_on,48,0,0,,2,,,74,127
1584,note_off,16,0,0,,4,,,76,127
1630,note_off,46,0,0,,5,,,53,127
1632,note_on,2,0,0,,0,,,48,127
1632,note_on,0,0,0,,4,,,76,127
1634,note_off,2,0,0,,2,,,74,127
1824,note_on,190,0,0,,0,,,72,127
1872,note_off,48,0,0,,4,,,76,127
2014,note_off,142,0,0,,0,,,72,127
2014,note_off,0,0,0,,0,,,48,127
2016,note_on,2,0,0,,0,,,48,127
2016,note_on,0,0,0,,7,,,79,127
2208,note_on,192,0,0,,0,,,72,127
2256,note_off,48,0,0,,7,,,79,127
2398,note_off,142,0,0,,0,,,72,127
2398,note_off,0,0,0,,0,,,48,127
2400,note_on,2,0,0,,2,,,50,127
2400,note_on,0,0,0,,0,,,72,127
2464,note_on,64,0,0,,11,,,70,127
2480,note_off,16,0,0,,0,,,72,127
2528,note_on,48,0,0,,0,,,72,127
2544,note_off,16,0,0,,11,,,70,127
2592,note_on,48,0,0,,11,,,70,127
2608,note_off,16,0,0,,0,,,72,127
2656,note_on,48,0,0,,0,,,72,127
2672,note_off,16,0,0,,11,,,70,127
2720,note_on,48,0,0,,11,,,70,127
2736,note_off,16,0,0,,0,,,72,127
2782,note_off,46,0,0,,2,,,50,127
2784,note_on,2,0,0,,4,,,52,127
2784,note_on,0,0,0,,0,,,72,127
2800,note_off,16,0,0,,11,,,70,127
2848,note_on,48,0,0,,11,,,70,127
2864,note_off,16,0,0,,0,,,72,127
2912,note_on,48,0,0,,0,,,72,127
2928,note_off,16,0,0,,11,,,70,127
2976,note_on,48,0,0,,11,,,70,127
2992,note_off,16,0,0,,0,,,72,127
3040,note_on,48,0,0,,10,,,69,127
3056,note_off,16,0,0,,11,,,70,127
3104,note_on,48,0,0,,7,,,67,127
3120,note_off,16,0,0,,10,,,69,127
3166,note_off,46,0,0,,4,,,52,127
3168,note_on,2,0,0,,5,,,53,127
3168,note_on,0,0,0,,10,,,69,127
3184,note_off,16,0,0,,7,,,67,127
3358,note_off,174,0,0,,5,,,53,127
3360,note_on,2,0,0,,0,,,48,127
3550,note_off,190,0,0,,0,,,48,127
3550,note_off,0,0,0,,10,,,69,127
3552,note_on,2,0,0,,10,,,45,127
3552,note_on,0,0,0,,0,,,72,127
3742,note_off,190,0,0,,10,,,45,127
3744,note_on,2,0,0,,5,,,41,127
3934,note_off,190,0,0,,5,,,41,127
3934,note_off,0,0,0,,0,,,72,127
3936,note_on,2,0,0,,7,,,55,127
3936,note_on,0,0,0,,5,,,77,127
4000,note_on,64,0,0,,5,,,53,127
4016,note_off,16,0,0,,7,,,55,127
4064,note_on,48,0,0,,7,,,55,127
4080,note_off,16,0,0,,5,,,53,127
4128,note_on,48,0,0,,5,,,53,127
4128,note_on,0,0,0,,0,,,72,127
4144,note_off,16,0,0,,7,,,55,127
4176,note_off,32,0,0,,5,,,77,127
4192,note_on,16,0,0,,7,,,55,127
4208,note_off,16,0,0,,5,,,53,127
4256,note_on,48,0,0,,5,,,53,127
4272,note_off,16,0,0,,7,,,55,127
4318,note_off,46,0,0,,0,,,72,127
4320,note_on,2,0,0,,7,,,55,127
4320,note_on,0,0,0,,10,,,81,127
4336,note_off,16,0,0,,5,,,53,127
4384,note_on,48,0,0,,5,,,53,127
4400,note_off,16,0,0,,7,,,55,127
4448,note_on,48,0,0,,7,,,55,127
4464,note_off,16,0,0,,5,,,53,127
4512,note_on,48,0,0,,5,,,53,127
4528,note_off,16,0,0,,7,,,55,127
4576,note_on,48,0,0,,4,,,52,127
4592,note_off,16,0,0,,5,,,53,127
4640,note_on,48,0,0,,2,,,50,127
4656,note_off,16,0,0,,4,,,52,127
4702,note_off,46,0,0,,10,,,81,127
4704,note_on,2,0,0,,0,,,48,127
4704,note_on,0,0,0,,7,,,79,127
4720,note_off,16,0,0,,2,,,50,127
4896,note_on,176,0,0,,0,,,72,127
4944,note_off,48,0,0,,7,,,79,127
5086,note_off,142,0,0,,0,,,48,127
5088,note_on,2,0,0,,10,,,57,127
5278,note_off,190,0,0,,0,,,72,127
5280,note_on,2,0,0,,2,,,74,127
5374,note_off,94,0,0,,2,,,74,127
5376,note_on,2,0,0,,4,,,76,127
5470,note_off,94,0,0,,4,,,76,127
5470,note_off,0,0,0,,10,,,57,127
5472,note_on,2,0,0,,2,,,50,127
5472,note_on,0,0,0,,5,,,77,127
5664,note_on,192,0,0,,12,,,71,127
5712,note_off,48,0,0,,5,,,77,127
5854,note_off,142,0,0,,2,,,50,127
5856,note_on,2,0,0,,5,,,53,127
6046,note_off,190,0,0,,12,,,71,127
6048,note_on,2,0,0,,0,,,72,127
6096,note_on,48,0,0,,2,,,74,127
6118,note_off,22,0,0,,0,,,72,127
6144,note_on,26,0,0,,4,,,76,127
6166,note_off,22,0,0,,2,,,74,127
6192,note_on,26,0,0,,5,,,77,127
6214,note_off,22,0,0,,4,,,76,127
6238,note_off,24,0,0,,5,,,53,127
6240,note_on,2,0,0,,4,,,52,127
6240,note_on,0,0,0,,7,,,79,127
6255,note_off,15,0,0,,5,,,77,127
6432,note_on,177,0,0,,0,,,72,127
6480,note_off,48,0,0,,7,,,79,127
6622,note_off,142,0,0,,4,,,52,127
6624,note_on,2,0,0,,10,,,57,127
6814,note_off,190,0,0,,0,,,72,127
6816,note_on,2,0,0,,2,,,74,127
6910,note_off,94,0,0,,2,,,74,127
6912,note_on,2,0,0,,4,,,76,127
7006,note_off,94,0,0,,4,,,76,127
7006,note_off,0,0,0,,10,,,57,127
7008,note_on,2,0,0,,2,,,50,127
7008,note_on,0,0,0,,5,,,77,127
7200,note_on,192,0,0,,12,,,71,127
7248,note_off,48,0,0,,5,,,77,127
7390,note_off,142,0,0,,2,,,50,127
7392,note_on,2,0,0,,5,,,53,127
7582,note_off,190,0,0,,12,,,71,127
7584,note_on,2,0,0,,0,,,72,127
7632,note_on,48,0,0,,2,,,74,127
7654,note_off,22,0,0,,0,,,72,127
7680,note_on,26,0,0,,4,,,76,127
7702,note_off,22,0,0,,2,,,74,127
7728,note_on,26,0,0,,5,,,77,127
7750,note_off,22,0,0,,4,,,76,127
7774,note_off,24,0,0,,5,,,53,127
7776,note_on,2,0,0,,4,,,52,127
7776,note_on,0,0,0,,7,,,79,127
7798,note_off,22,0,0,,5,,,77,127
7968,note_on,170,0,0,,0,,,72,127
8016,note_off,48,0,0,,7,,,79,127
8158,note_off,142,0,0,,4,,,52,127
8160,note_on,2,0,0,,0,,,48,127
8350,note_off,190,0,0,,0,,,72,127
8352,note_on,2,0,0,,2,,,74,127
8400,note_on,48,0,0,,4,,,76,127
8422,note_off,22,0,0,,2,,,74,127
8448,note_on,26,0,0,,5,,,77,127
8470,note_off,22,0,0,,4,,,76,127
8496,note_on,26,0,0,,7,,,79,127
8518,note_off,22,0,0,,5,,,77,127
8542,note_off,24,0,0,,0,,,48,127
8544,note_on,2,0,0,,5,,,53,127
8544,note_on,0,0,0,,10,,,81,127
8566,note_off,22,0,0,,7,,,79,127
8736,note_on,170,0,0,,4,,,76,127
8784,note_off,48,0,0,,10,,,81,127
8926,note_off,142,0,0,,4,,,76,127
8926,note_off,0,0,0,,5,,,53,127
8928,note_on,2,0,0,,6,,,54,127
8928,note_on,0,0,0,,2,,,74,127
9118,note_off,190,0,0,,2,,,74,127
9120,note_on,2,0,0,,0,,,72,127
9310,note_off,190,0,0,,0,,,72,127
9310,note_off,0,0,0,,6,,,54,127
9312,note_on,2,0,0,,7,,,55,127
9312,note_on,0,0,0,,12,,,71,127
9504,note_on,192,0,0,,7,,,67,127
9552,note_off,48,0,0,,12,,,71,127
9696,note_on,144,0,0,,2,,,74,127
9744,note_off,48,0,0,,7,,,67,127
9888,note_on,144,0,0,,7,,,67,127
9936,note_off,48,0,0,,2,,,74,127
10079,note_off,143,0,0,,7,,,55,127
10080,note_on,1,0,0,,7,,,79,127
10128,note_off,48,0,0,,7,,,67,127
10144,note_on,16,0,0,,5,,,77,127
10160,note_off,16,0,0,,7,,,79,127
10208,note_on,48,0,0,,7,,,79,127
10224,note_off,16,0,0,,5,,,77,127
10272,note_on,48,0,0,,5,,,77,127
10288,note_off,16,0,0,,7,,,79,127
10336,note_on,48,0,0,,7,,,79,127
10352,note_off,16,0,0,,5,,,77,127
10400,note_on,48,0,0,,5,,,77,127
10416,note_off,16,0,0,,7,,,79,127
10464,note_on,48,0,0,,2,,,50,127
10464,note_on,0,0,0,,12,,,47,127
10464,note_on,0,0,0,,7,,,79,127
10480,note_off,16,0,0,,5,,,77,127
10528,note_on,48,0,0,,5,,,77,127
10544,note_off,16,0,0,,7,,,79,127
10592,note_on,48,0,0,,7,,,79,127
10608,note_off,16,0,0,,5,,,77,127
10656,note_on,48,0,0,,5,,,77,127
10672,note_off,16,0,0,,7,,,79,127
10720,note_on,48,0,0,,3,,,75,127
10736,note_off,16,0,0,,5,,,77,127
10784,note_on,48,0,0,,2,,,74,127
10800,note_off,16,0,0,,3,,,75,127
10846,note_off,46,0,0,,12,,,47,127
10846,note_off,0,0,0,,2,,,50,127
10848,note_on,2,0,0,,0,,,48,127
10848,note_on,0,0,0,,3,,,51,127
10848,note_on,0,0,0,,3,,,75,127
10864,note_off,16,0,0,,2,,,74,127
11040,note_on,176,0,0,,7,,,67,127
11088,note_off,48,0,0,,3,,,75,127
11230,note_off,142,0,0,,3,,,51,127
11230,note_off,0,0,0,,0,,,48,127
11232,note_on,2,0,0,,0,,,48,127
11232,note_on,0,0,0,,3,,,51,127
11232,note_on,0,0,0,,0,,,72,127
11280,note_off,48,0,0,,7,,,67,127
11424,note_on,144,0,0,,7,,,67,127
11472,note_off,48,0,0,,0,,,72,127
11616,note_on,144,0,0,,5,,,77,127
11664,note_off,48,0,0,,7,,,67,127
11680,note_on,16,0,0,,3,,,75,127
11696,note_off,16,0,0,,5,,,77,127
11744,note_on,48,0,0,,5,,,77,127
11760,note_off,16,0,0,,3,,,75,127
11808,note_on,48,0,0,,3,,,75,127
11824,note_off,16,0,0,,5,,,77,127
11872,note_on,48,0,0,,5,,,77,127
11888,note_off,16,0,0,,3,,,75,127
11936,note_on,48,0,0,,3,,,75,127
11952,note_off,16,0,0,,5,,,77,127
11998,note_off,46,0,0,,3,,,51,127
11998,note_off,0,0,0,,0,,,48,127
12000,note_on,2,0,0,,3,,,51,127
12000,note_on,0,0,0,,0,,,48,127
12000,note_on,0,0,0,,5,,,77,127
12016,note_off,16,0,0,,3,,,75,127
12064,note_on,48,0,0,,3,,,75,127
12080,note_off,16,0,0,,5,,,77,127
12128,note_on,48,0,0,,5,,,77,127
12144,note_off,16,0,0,,3,,,75,127
12192,note_on,48,0,0,,3,,,75,127
12208,note_off,16,0,0,,5,,,77,127
12256,note_on,48,0,0,,2,,,74,127
12272,note_off,16,0,0,,3,,,75,127
12320,note_on,48,0,0,,0,,,72,127
12336,note_off,16,0,0,,2,,,74,127
12382,note_off,46,0,0,,0,,,48,127
12382,note_off,0,0,0,,3,,,51,127
12384,note_on,2,0,0,,2,,,50,127
12384,note_on,0,0,0,,12,,,47,127
12384,note_on,0,0,0,,12,,,71,127
12400,note_off,16,0,0,,0,,,72,127
12576,note_on,176,0,0,,7,,,67,127
12624,note_off,48,0,0,,12,,,71,127
12766,note_off,142,0,0,,12,,,47,127
12766,note_off,0,0,0,,2,,,50,127
12768,note_on,2,0,0,,12,,,47,127
12768,note_on,0,0,0,,7,,,43,127
12768,note_on,0,0,0,,2,,,50,127
12768,note_on,0,0,0,,2,,,74,127
12816,note_off,48,0,0,,7,,,67,127
12960,note_on,144,0,0,,7,,,67,127
13008,note_off,48,0,0,,2,,,74,127
13152,note_on,144,0,0,,7,,,79,127
13200,note_off,48,0,0,,7,,,67,127
13216,note_on,16,0,0,,5,,,77,127
13232,note_off,16,0,0,,7,,,79,127
13280,note_on,48,0,0,,7,,,79,127
13296,note_off,16,0,0,,5,,,77,127
13344,note_on,48,0,0,,5,,,77,127
13360,note_off,16,0,0,,7,,,79,127
13408,note_on,48,0,0,,7,,,79,127
13424,note_off,16,0,0,,5,,,77,127
13472,note_on,48,0,0,,5,,,77,127
13488,note_off,16,0,0,,7,,,79,127
13534,note_off,46,0,0,,2,,,50,127
13534,note_off,0,0,0,,7,,,43,127
13534,note_off,0,0,0,,12,,,47,127
13536,note_on,2,0,0,,2,,,50,127
13536,note_on,0,0,0,,12,,,47,127
13536,note_on,0,0,0,,7,,,79,127
13552,note_off,16,0,0,,5,,,77,127
13600,note_on,48,0,0,,5,,,77,127
13616,note_off,16,0,0,,7,,,79,127
13664,note_on,48,0,0,,7,,,79,127
13680,note_off,16,0,0,,5,,,77,127
13728,note_on,48,0,0,,5,,,77,127
13744,note_off,16,0,0,,7,,,79,127
13792,note_on,48,0,0,,3,,,75,127
13808,note_off,16,0,0,,5,,,77,127
13856,note_on,48,0,0,,2,,,74,127
13872,note_off,16,0,0,,3,,,75,127
13918,note_off,46,0,0,,12,,,47,127
13918,note_off,0,0,0,,2,,,50,127
13920,note_on,2,0,0,,3,,,51,127
13920,note_on,0,0,0,,0,,,48,127
13920,note_on,0,0,0,,3,,,75,127
13936,note_off,16,0,0,,2,,,74,127
14112,note_on,176,0,0,,7,,,67,127
14160,note_off,48,0,0,,3,,,75,127
14302,note_off,142,0,0,,0,,,48,127
14302,note_off,0,0,0,,3,,,51,127
14304,note_on,2,0,0,,3,,,51,127
14304,note_on,0,0,0,,0,,,48,127
14304,note_on,0,0,0,,0,,,72,127
14352,note_off,48,0,0,,7,,,67,127
14496,note_on,144,0,0,,7,,,67,127
14544,note_off,48,0,0,,0,,,72,127
14688,note_on,144,0,0,,5,,,77,127
14736,note_off,48,0,0,,7,,,67,127
14752,note_on,16,0,0,,3,,,75,127
14768,note_off,16,0,0,,5,,,77,127
14816,note_on,48,0,0,,5,,,77,127
14832,note_off,16,0,0,,3,,,75,127
14880,note_on,48,0,0,,3,,,75,127
14896,note_off,16,0,0,,5,,,77,127
14944,note_on,48,0,0,,5,,,77,127
14960,note_off,16,0,0,,3,,,75,127
15008,note_on,48,0,0,,3,,,75,127
15024,note_off,16,0,0,,5,,,77,127
15070,note_off,46,0,0,,0,,,48,127
15070,note_off,0,0,0,,3,,,51,127
15072,note_on,2,0,0,,0,,,48,127
15072,note_on,0,0,0,,3,,,51,127
15072,note_on,0,0,0,,5,,,77,127
15088,note_off,16,0,0,,3,,,75,127
15136,note_on,48,0,0,,3,,,75,127
15152,note_off,16,0,0,,5,,,77,127
15200,note_on,48,0,0,,5,,,77,127
15216,note_off,16,0,0,,3,,,75,127
15264,note_on,48,0,0,,3,,,75,127
15280,note_off,16,0,0,,5,,,77,127
15328,note_on,48,0,0,,2,,,74,127
15344,note_off,16,0,0,,3,,,75,127
15392,note_on,48,0,0,,0,,,72,127
15408,note_off,16,0,0,,2,,,74,127
15454,note_off,46,0,0,,3,,,51,127
15454,note_off,0,0,0,,0,,,48,127
15456,note_on,2,0,0,,0,,,60,127
15456,note_on,0,0,0,,5,,,53,127
15456,note_on,0,0,0,,8,,,80,127
15472,note_off,16,0,0,,0,,,72,127
15648,note_on,176,0,0,,12,,,71,127
15744,note_off,96,0,0,,8,,,80,127
15838,note_off,94,0,0,,5,,,53,127
15838,note_off,0,0,0,,0,,,60,127
15840,note_on,2,0,0,,3,,,51,127
15840,note_on,0,0,0,,0,,,60,127
15840,note_on,0,0,0,,0,,,72,127
15888,note_off,48,0,0,,12,,,71,127
16032,note_on,144,0,0,,7,,,79,127
16080,note_off,48,0,0,,0,,,72,127
16222,note_off,142,0,0,,0,,,60,127
16222,note_off,0,0,0,,3,,,51,127
16224,note_on,2,0,0,,12,,,59,127
16224,note_on,0,0,0,,2,,,50,127
16224,note_on,0,0,0,,5,,,77,127
16272,note_off,48,0,0,,7,,,79,127
16416,note_on,144,0,0,,7,,,67,127
16512,note_off,96,0,0,,5,,,77,127
16606,note_off,94,0,0,,2,,,50,127
16606,note_off,0,0,0,,12,,,59,127
16608,note_on,2,0,0,,0,,,60,127
16608,note_on,0,0,0,,0,,,48,127
16608,note_on,0,0,0,,8,,,68,127
16656,note_off,48,0,0,,7,,,67,127
16800,note_on,144,0,0,,3,,,75,127
16848,note_off,48,0,0,,8,,,68,127
16990,note_off,142,0,0,,0,,,48,127
16990,note_off,0,0,0,,0,,,60,127
16992,note_on,2,0,0,,11,,,58,127
16992,note_on,0,0,0,,11,,,46,127
16992,note_on,0,0,0,,2,,,74,127
17040,note_off,48,0,0,,3,,,75,127
17184,note_on,144,0,0,,7,,,67,127
17280,note_off,96,0,0,,2,,,74,127
17374,note_off,94,0,0,,11,,,46,127
17374,note_off,0,0,0,,11,,,58,127
17376,note_on,2,0,0,,8,,,44,127
17376,note_on,0,0,0,,8,,,56,127
17376,note_on,0,0,0,,5,,,65,127
17424,note_off,48,0,0,,7,,,67,127
17568,note_on,144,0,0,,0,,,72,127
17616,note_off,48,0,0,,5,,,65,127
17758,note_off,142,0,0,,8,,,56,127
17758,note_off,0,0,0,,8,,,44,127
17760,note_on,2,0,0,,7,,,43,127
17760,note_on,0,0,0,,7,,,55,127
17760,note_on,0,0,0,,12,,,71,127
17808,note_off,48,0,0,,0,,,72,127
17952,note_on,144,0,0,,0,,,72,127
18000,note_off,48,0,0,,12,,,71,127
18046,note_off,46,0,0,,0,,,72,127
18048,note_on,2,0,0,,2,,,74,127
18142,note_off,94,0,0,,2,,,74,127
18144,note_on,2,0,0,,7,,,67,127
18334,note_off,190,0,0,,7,,,55,127
18334,note_off,0,0,0,,7,,,43,127
18336,note_on,2,0,0,,12,,,47,127
18336,note_on,0,0,0,,5,,,65,127
18384,note_off,48,0,0,,7,,,67,127
18528,note_on,144,0,0,,0,,,48,127
18528,note_on,0,0,0,,4,,,64,127
18576,note_off,48,0,0,,5,,,65,127
18576,note_off,0,0,0,,12,,,47,127
18718,note_off,142,0,0,,0,,,48,127
18720,note_on,2,0,0,,4,,,52,127
18720,note_on,0,0,0,,0,,,72,127
18768,note_off,48,0,0,,4,,,64,127
18910,note_off,142,0,0,,4,,,52,127
18912,note_on,2,0,0,,5,,,53,127
18912,note_on,0,0,0,,2,,,62,127
18960,note_off,48,0,0,,0,,,72,127
19102,note_off,142,0,0,,5,,,53,127
19104,note_on,2,0,0,,7,,,55,127
19104,note_on,0,0,0,,12,,,71,127
19152,note_off,48,0,0,,2,,,62,127
19294,note_off,142,0,0,,12,,,71,127
19294,note_off,0,0,0,,7,,,55,127
19296,note_on,2,0,0,,0,,,48,127
19296,note_on,0,0,0,,0,,,72,127
19488,note_on,192,0,0,,7,,,79,127
19536,note_off,48,0,0,,0,,,72,127
19678,note_off,142,0,0,,7,,,79,127
19680,note_on,2,0,0,,4,,,76,127
19870,note_off,190,0,0,,4,,,76,127
19871,note_off,1,0,0,,0,,,48,127
19872,note_on,1,0,0,,0,,,72,127
20062,note_off,190,0,0,,0,,,72,127
20064,note_on,2,0,0,,7,,,67,127
20256,note_on,192,0,0,,4,,,52,127
20352,note_off,96,0,0,,7,,,67,127
20446,note_off,94,0,0,,4,,,52,127
20448,note_on,2,0,0,,0,,,48,127
20638,note_off,190,0,0,,0,,,48,127
20640,note_on,2,0,0,,7,,,43,127
20830,note_off,190,0,0,,7,,,43,127
20832,note_on,2,0,0,,0,,,36,127
21599,note_off,767,0,0,,0,,,36,127
21600,note_on,1,0,0,,0,,,84,127
21792,note_on,192,0,0,,7,,,79,127
21888,note_off,96,0,0,,0,,,84,127
21982,note_off,94,0,0,,7,,,79,127
21984,note_on,2,0,0,,4,,,76,127
22174,note_off,190,0,0,,4,,,76,127
22176,note_on,2,0,0,,0,,,72,127
22366,note_off,190,0,0,,0,,,72,127
22368,note_on,2,0,0,,0,,,48,127
22368,note_on,0,0,0,,0,,,72,127
22432,note_on,64,0,0,,11,,,70,127
22448,note_off,16,0,0,,0,,,72,127
22496,note_on,48,0,0,,0,,,72,127
22512,note_off,16,0,0,,11,,,70,127
22558,note_off,46,0,0,,0,,,48,127
22560,note_on,2,0,0,,4,,,52,127
22560,note_on,0,0,0,,11,,,70,127
22576,note_off,16,0,0,,0,,,72,127
22624,note_on,48,0,0,,0,,,72,127
22640,note_off,16,0,0,,11,,,70,127
22688,note_on,48,0,0,,11,,,70,127
22704,note_off,16,0,0,,0,,,72,127
22750,note_off,46,0,0,,4,,,52,127
22752,note_on,2,0,0,,7,,,55,127
22752,note_on,0,0,0,,0,,,72,127
22768,note_off,16,0,0,,11,,,70,127
22816,note_on,48,0,0,,11,,,70,127
22832,note_off,16,0,0,,0,,,72,127
22880,note_on,48,0,0,,0,,,72,127
22896,note_off,16,0,0,,11,,,70,127
22942,note_off,46,0,0,,7,,,55,127
22944,note_on,2,0,0,,0,,,60,127
22944,note_on,0,0,0,,11,,,70,127
22960,note_off,16,0,0,,0,,,72,127
23008,note_on,48,0,0,,10,,,69,127
23024,note_off,16,0,0,,11,,,70,127
23072,note_on,48,0,0,,7,,,67,127
23088,note_off,16,0,0,,10,,,69,127
23134,note_off,46,0,0,,0,,,60,127
23136,note_on,2,0,0,,5,,,53,127
23136,note_on,0,0,0,,5,,,77,127
23152,note_off,16,0,0,,7,,,67,127
23328,note_on,176,0,0,,0,,,72,127
23424,note_off,96,0,0,,5,,,77,127
23518,note_off,94,0,0,,0,,,72,127
23520,note_on,2,0,0,,10,,,69,127
23710,note_off,190,0,0,,10,,,69,127
23712,note_on,2,0,0,,5,,,65,127
23902,note_off,190,0,0,,5,,,65,127
23902,note_off,0,0,0,,5,,,53,127
23904,note_on,2,0,0,,5,,,41,127
23904,note_on,0,0,0,,11,,,82,127
23968,note_on,64,0,0,,10,,,81,127
23984,note_off,16,0,0,,11,,,82,127
24032,note_on,48,0,0,,11,,,82,127
24048,note_off,16,0,0,,10,,,81,127
24094,note_off,46,0,0,,5,,,41,127
24096,note_on,2,0,0,,10,,,45,127
24096,note_on,0,0,0,,10,,,81,127
24112,note_off,16,0,0,,11,,,82,127
24160,note_on,48,0,0,,11,,,82,127
24176,note_off,16,0,0,,10,,,81,127
24224,note_on,48,0,0,,10,,,81,127
24240,note_off,16,0,0,,11,,,82,127
24286,note_off,46,0,0,,10,,,45,127
24288,note_on,2,0,0,,0,,,48,127
24288,note_on,0,0,0,,11,,,82,127
24304,note_off,16,0,0,,10,,,81,127
24352,note_on,48,0,0,,10,,,81,127
24368,note_off,16,0,0,,11,,,82,127
24416,note_on,48,0,0,,11,,,82,127
24432,note_off,16,0,0,,10,,,81,127
24478,note_off,46,0,0,,0,,,48,127
24480,note_on,2,0,0,,5,,,53,127
24480,note_on,0,0,0,,10,,,81,127
24496,note_off,16,0,0,,11,,,82,127
24544,note_on,48,0,0,,7,,,79,127
24560,note_off,16,0,0,,10,,,81,127
24608,note_on,48,0,0,,5,,,77,127
24624,note_off,16,0,0,,7,,,79,127
24670,note_off,46,0,0,,5,,,53,127
24672,note_on,2,0,0,,4,,,52,127
24672,note_on,0,0,0,,7,,,79,127
24688,note_off,16,0,0,,5,,,77,127
24864,note_on,176,0,0,,1,,,73,127
24912,note_off,48,0,0,,7,,,79,127
25054,note_off,142,0,0,,4,,,52,127
25056,note_on,2,0,0,,7,,,55,127
25246,note_off,190,0,0,,1,,,73,127
25248,note_on,2,0,0,,2,,,74,127
25296,note_on,48,0,0,,4,,,76,127
25318,note_off,22,0,0,,2,,,74,127
25344,note_on,26,0,0,,5,,,77,127
25366,note_off,22,0,0,,4,,,76,127
25392,note_on,26,0,0,,7,,,79,127
25414,note_off,22,0,0,,5,,,77,127
25438,note_off,24,0,0,,7,,,55,127
25440,note_on,2,0,0,,5,,,53,127
25440,note_on,0,0,0,,10,,,81,127
25462,note_off,22,0,0,,7,,,79,127
25632,note_on,170,0,0,,2,,,74,127
25680,note_off,48,0,0,,10,,,81,127
25822,note_off,142,0,0,,5,,,53,127
25824,note_on,2,0,0,,11,,,58,127
26014,note_off,190,0,0,,2,,,74,127
26016,note_on,2,0,0,,4,,,76,127
26110,note_off,94,0,0,,4,,,76,127
26112,note_on,2,0,0,,5,,,77,127
26206,note_off,94,0,0,,5,,,77,127
26206,note_off,0,0,0,,11,,,58,127
26208,note_on,2,0,0,,4,,,52,127
26208,note_on,0,0,0,,7,,,79,127
26400,note_on,192,0,0,,1,,,73,127
26448,note_off,48,0,0,,7,,,79,127
26590,note_off,142,0,0,,4,,,52,127
26592,note_on,2,0,0,,7,,,55,127
26782,note_off,190,0,0,,1,,,73,127
26784,note_on,2,0,0,,2,,,74,127
26832,note_on,48,0,0,,4,,,76,127
26854,note_off,22,0,0,,2,,,74,127
26880,note_on,26,0,0,,5,,,77,127
26902,note_off,22,0,0,,4,,,76,127
26928,note_on,26,0,0,,7,,,79,127
26950,note_off,22,0,0,,5,,,77,127
26974,note_off,24,0,0,,7,,,55,127
26976,note_on,2,0,0,,10,,,57,127
26976,note_on,0,0,0,,5,,,53,127
26976,note_on,0,0,0,,10,,,81,127
26998,note_off,22,0,0,,7,,,79,127
27168,note_on,170,0,0,,2,,,74,127
27216,note_off,48,0,0,,10,,,81,127
27358,note_off,142,0,0,,5,,,53,127
27358,note_off,0,0,0,,10,,,57,127
27360,note_on,2,0,0,,4,,,52,127
27360,note_on,0,0,0,,7,,,55,127
27360,note_on,0,0,0,,1,,,73,127
27408,note_off,48,0,0,,2,,,74,127
27552,note_on,144,0,0,,7,,,79,127
27600,note_off,48,0,0,,1,,,73,127
27742,note_off,142,0,0,,7,,,55,127
27742,note_off,0,0,0,,4,,,52,127
27744,note_on,2,0,0,,5,,,53,127
27744,note_on,0,0,0,,2,,,50,127
27744,note_on,0,0,0,,5,,,77,127
27792,note_off,48,0,0,,7,,,79,127
27936,note_on,144,0,0,,11,,,70,127
27984,note_off,48,0,0,,5,,,77,127
28126,note_off,142,0,0,,2,,,50,127
28126,note_off,0,0,0,,5,,,53,127
28128,note_on,2,0,0,,4,,,52,127
28128,note_on,0,0,0,,0,,,48,127
28128,note_on,0,0,0,,10,,,69,127
28176,note_off,48,0,0,,11,,,70,127
28320,note_on,144,0,0,,4,,,76,127
28368,note_off,48,0,0,,10,,,69,127
28510,note_off,142,0,0,,0,,,48,127
28510,note_off,0,0,0,,4,,,52,127
28512,note_on,2,0,0,,11,,,46,127
28512,note_on,0,0,0,,2,,,50,127
28512,note_on,0,0,0,,2,,,74,127
28560,note_off,48,0,0,,4,,,76,127
28704,note_on,144,0,0,,7,,,67,127
28752,note_off,48,0,0,,2,,,74,127
28894,note_off,142,0,0,,2,,,50,127
28894,note_off,0,0,0,,11,,,46,127
28896,note_on,2,0,0,,10,,,45,127
28896,note_on,0,0,0,,0,,,48,127
28896,note_on,0,0,0,,6,,,66,127
28944,note_off,48,0,0,,7,,,67,127
29088,note_on,144,0,0,,0,,,72,127
29136,note_off,48,0,0,,6,,,66,127
29278,note_off,142,0,0,,0,,,48,127
29278,note_off,0,0,0,,10,,,45,127
29280,note_on,2,0,0,,11,,,58,127
29280,note_on,0,0,0,,7,,,55,127
29280,note_on,0,0,0,,11,,,70,127
29328,note_off,48,0,0,,0,,,72,127
29472,note_on,144,0,0,,3,,,63,127
29520,note_off,48,0,0,,11,,,70,127
29662,note_off,142,0,0,,7,,,55,127
29662,note_off,0,0,0,,11,,,58,127
29664,note_on,2,0,0,,5,,,53,127
29664,note_on,0,0,0,,10,,,57,127
29664,note_on,0,0,0,,2,,,62,127
29712,note_off,48,0,0,,3,,,63,127
29856,note_on,144,0,0,,10,,,69,127
29904,note_off,48,0,0,,2,,,62,127
30046,note_off,142,0,0,,10,,,57,127
30046,note_off,0,0,0,,5,,,53,127
30048,note_on,2,0,0,,7,,,55,127
30048,note_on,0,0,0,,4,,,52,127
30048,note_on,0,0,0,,7,,,67,127
30096,note_off,48,0,0,,10,,,69,127
30240,note_on,144,0,0,,0,,,60,127
30288,note_off,48,0,0,,7,,,55,127
30430,note_off,142,0,0,,7,,,67,127
30431,note_off,1,0,0,,4,,,52,127
30432,note_on,1,0,0,,2,,,50,127
30432,note_on,0,0,0,,5,,,65,127
30480,note_off,48,0,0,,0,,,60,127
30624,note_on,144,0,0,,12,,,59,127
30672,note_off,48,0,0,,2,,,50,127
30814,note_off,142,0,0,,5,,,65,127
30816,note_on,2,0,0,,0,,,48,127
30816,note_on,0,0,0,,4,,,76,127
30864,note_off,48,0,0,,12,,,59,127
31006,note_off,142,0,0,,0,,,48,127
31008,note_on,2,0,0,,10,,,57,127
31198,note_off,190,0,0,,10,,,57,127
31198,note_off,0,0,0,,4,,,76,127
31200,note_on,2,0,0,,11,,,46,127
31200,note_on,0,0,0,,2,,,74,127
31390,note_off,190,0,0,,11,,,46,127
31392,note_on,2,0,0,,7,,,55,127
31582,note_off,190,0,0,,7,,,55,127
31582,note_off,0,0,0,,2,,,74,127
31584,note_on,2,0,0,,10,,,45,127
31584,note_on,0,0,0,,1,,,73,127
31774,note_off,190,0,0,,1,,,73,127
31776,note_on,2,0,0,,2,,,74,127
31870,note_off,94,0,0,,2,,,74,127
31872,note_on,2,0,0,,4,,,76,127
31966,note_off,94,0,0,,4,,,76,127
31968,note_on,2,0,0,,10,,,69,127
32158,note_off,190,0,0,,10,,,69,127
32158,note_off,0,0,0,,10,,,45,127
32160,note_on,2,0,0,,1,,,61,127
32160,note_on,0,0,0,,7,,,79,127
32350,note_off,190,0,0,,7,,,79,127
32350,note_off,0,0,0,,1,,,61,127
32352,note_on,2,0,0,,2,,,62,127
32352,note_on,0,0,0,,7,,,79,127
32416,note_on,64,0,0,,5,,,77,127
32432,note_off,16,0,0,,7,,,79,127
32480,note_on,48,0,0,,7,,,79,127
32496,note_off,16,0,0,,5,,,77,127
32544,note_on,48,0,0,,2,,,50,127
32544,note_on,0,0,0,,5,,,77,127
32560,note_off,16,0,0,,7,,,79,127
32608,note_on,48,0,0,,7,,,79,127
32624,note_off,16,0,0,,5,,,77,127
32672,note_on,48,0,0,,5,,,77,127
32688,note_off,16,0,0,,7,,,79,127
32732,note_off,44,0,0,,5,,,77,127
32732,note_off,0,0,0,,2,,,62,127
32734,note_off,2,0,0,,2,,,50,127
32736,note_on,2,0,0,,10,,,57,127
32736,note_on,0,0,0,,5,,,77,127
32800,note_on,64,0,0,,4,,,76,127
32816,note_off,16,0,0,,5,,,77,127
32864,note_on,48,0,0,,5,,,77,127
32880,note_off,16,0,0,,4,,,76,127
32928,note_on,48,0,0,,10,,,45,127
32928,note_on,0,0,0,,4,,,76,127
32944,note_off,16,0,0,,5,,,77,127
32992,note_on,48,0,0,,5,,,77,127
33008,note_off,16,0,0,,4,,,76,127
33024,note_off,16,0,0,,10,,,57,127
33056,note_on,32,0,0,,4,,,76,127
33072,note_off,16,0,0,,5,,,77,127
33118,note_off,46,0,0,,10,,,45,127
33120,note_on,2,0,0,,2,,,38,127
33120,note_on,0,0,0,,6,,,78,127
33136,note_off,16,0,0,,4,,,76,127
33310,note_off,174,0,0,,6,,,78,127
33312,note_on,2,0,0,,7,,,79,127
33406,note_off,94,0,0,,7,,,79,127
33408,note_on,2,0,0,,10,,,81,127
33502,note_off,94,0,0,,10,,,81,127
33504,note_on,2,0,0,,2,,,74,127
33694,note_off,190,0,0,,2,,,74,127
33694,note_off,0,0,0,,2,,,38,127
33696,note_on,2,0,0,,6,,,54,127
33696,note_on,0,0,0,,0,,,72,127
33886,note_off,190,0,0,,0,,,72,127
33886,note_off,0,0,0,,6,,,54,127
33888,note_on,2,0,0,,7,,,55,127
33888,note_on,0,0,0,,0,,,72,127
33952,note_on,64,0,0,,11,,,70,127
33968,note_off,16,0,0,,0,,,72,127
34016,note_on,48,0,0,,0,,,72,127
34032,note_off,16,0,0,,11,,,70,127
34080,note_on,48,0,0,,7,,,43,127
34080,note_on,0,0,0,,11,,,70,127
34096,note_off,16,0,0,,0,,,72,127
34144,note_on,48,0,0,,0,,,72,127
34160,note_off,16,0,0,,11,,,70,127
34208,note_on,48,0,0,,11,,,70,127
34224,note_off,16,0,0,,0,,,72,127
34268,note_off,44,0,0,,11,,,70,127
34268,note_off,0,0,0,,7,,,55,127
34270,note_off,2,0,0,,7,,,43,127
34272,note_on,2,0,0,,2,,,50,127
34272,note_on,0,0,0,,11,,,70,127
34336,note_on,64,0,0,,10,,,69,127
34352,note_off,16,0,0,,11,,,70,127
34400,note_on,48,0,0,,11,,,70,127
34416,note_off,16,0,0,,10,,,69,127
34464,note_on,48,0,0,,2,,,38,127
34464,note_on,0,0,0,,10,,,69,127
34480,note_off,16,0,0,,11,,,70,127
34528,note_on,48,0,0,,11,,,70,127
34544,note_off,16,0,0,,10,,,69,127
34592,note_on,48,0,0,,10,,,69,127
34608,note_off,16,0,0,,11,,,70,127
34652,note_off,44,0,0,,2,,,50,127
34654,note_off,2,0,0,,2,,,38,127
34656,note_on,2,0,0,,7,,,43,127
34656,note_on,0,0,0,,12,,,71,127
34672,note_off,16,0,0,,10,,,69,127
34846,note_off,174,0,0,,12,,,71,127
34848,note_on,2,0,0,,0,,,72,127
34942,note_off,94,0,0,,0,,,72,127
34944,note_on,2,0,0,,2,,,74,127
35038,note_off,94,0,0,,2,,,74,127
35040,note_on,2,0,0,,7,,,67,127
35230,note_off,190,0,0,,7,,,67,127
35230,note_off,0,0,0,,7,,,43,127
35232,note_on,2,0,0,,12,,,59,127
35232,note_on,0,0,0,,5,,,77,127
35422,note_off,190,0,0,,5,,,77,127
35422,note_off,0,0,0,,12,,,59,127
35424,note_on,2,0,0,,0,,,60,127
35424,note_on,0,0,0,,5,,,77,127
35488,note_on,64,0,0,,4,,,76,127
35504,note_off,16,0,0,,5,,,77,127
35552,note_on,48,0,0,,5,,,77,127
35568,note_off,16,0,0,,4,,,76,127
35616,note_on,48,0,0,,0,,,48,127
35616,note_on,0,0,0,,4,,,76,127
35632,note_off,16,0,0,,5,,,77,127
35680,note_on,48,0,0,,5,,,77,127
35696,note_off,16,0,0,,4,,,76,127
35744,note_on,48,0,0,,4,,,76,127
35760,note_off,16,0,0,,5,,,77,127
35804,note_off,44,0,0,,4,,,76,127
35804,note_off,0,0,0,,0,,,60,127
35806,note_off,2,0,0,,0,,,48,127
35808,note_on,2,0,0,,7,,,55,127
35808,note_on,0,0,0,,4,,,76,127
35872,note_on,64,0,0,,2,,,74,127
35888,note_off,16,0,0,,4,,,76,127
35936,note_on,48,0,0,,4,,,76,127
35952,note_off,16,0,0,,2,,,74,127
36000,note_on,48,0,0,,7,,,43,127
36000,note_on,0,0,0,,2,,,74,127
36016,note_off,16,0,0,,4,,,76,127
36064,note_on,48,0,0,,4,,,76,127
36080,note_off,16,0,0,,2,,,74,127
36096,note_off,16,0,0,,7,,,55,127
36128,note_on,32,0,0,,2,,,74,127
36144,note_off,16,0,0,,4,,,76,127
36190,note_off,46,0,0,,7,,,43,127
36192,note_on,2,0,0,,0,,,36,127
36192,note_on,0,0,0,,4,,,76,127
36208,note_off,16,0,0,,2,,,74,127
36382,note_off,174,0,0,,4,,,76,127
36384,note_on,2,0,0,,5,,,77,127
36478,note_off,94,0,0,,5,,,77,127
36480,note_on,2,0,0,,7,,,79,127
36574,note_off,94,0,0,,7,,,79,127
36576,note_on,2,0,0,,0,,,72,127
36766,note_off,190,0,0,,0,,,72,127
36766,note_off,0,0,0,,0,,,36,127
36768,note_on,2,0,0,,0,,,48,127
36768,note_on,0,0,0,,7,,,79,127
36958,note_off,190,0,0,,7,,,79,127
36958,note_off,0,0,0,,0,,,48,127
36960,note_on,2,0,0,,2,,,50,127
36960,note_on,0,0,0,,0,,,72,127
37024,note_on,64,0,0,,11,,,70,127
37040,note_off,16,0,0,,0,,,72,127
37088,note_on,48,0,0,,0,,,72,127
37104,note_off,16,0,0,,11,,,70,127
37152,note_on,48,0,0,,11,,,70,127
37168,note_off,16,0,0,,0,,,72,127
37216,note_on,48,0,0,,0,,,72,127
37232,note_off,16,0,0,,11,,,70,127
37280,note_on,48,0,0,,11,,,70,127
37296,note_off,16,0,0,,0,,,72,127
37342,note_off,46,0,0,,2,,,50,127
37344,note_on,2,0,0,,4,,,52,127
37344,note_on,0,0,0,,0,,,72,127
37360,note_off,16,0,0,,11,,,70,127
37408,note_on,48,0,0,,11,,,70,127
37424,note_off,16,0,0,,0,,,72,127
37472,note_on,48,0,0,,0,,,72,127
37488,note_off,16,0,0,,11,,,70,127
37536,note_on,48,0,0,,11,,,70,127
37552,note_off,16,0,0,,0,,,72,127
37600,note_on,48,0,0,,10,,,69,127
37616,note_off,16,0,0,,11,,,70,127
37664,note_on,48,0,0,,7,,,67,127
37680,note_off,16,0,0,,10,,,69,127
37726,note_off,46,0,0,,4,,,52,127
37728,note_on,2,0,0,,5,,,53,127
37728,note_on,0,0,0,,10,,,69,127
37744,note_off,16,0,0,,7,,,67,127
37920,note_on,176,0,0,,5,,,65,127
37968,note_off,48,0,0,,10,,,69,127
38110,note_off,142,0,0,,5,,,53,127
38112,note_on,2,0,0,,10,,,57,127
38302,note_off,190,0,0,,5,,,65,127
38304,note_on,2,0,0,,7,,,67,127
38398,note_off,94,0,0,,7,,,67,127
38400,note_on,2,0,0,,10,,,69,127
38494,note_off,94,0,0,,10,,,69,127
38494,note_off,0,0,0,,10,,,57,127
38496,note_on,2,0,0,,7,,,55,127
38496,note_on,0,0,0,,11,,,70,127
38688,note_on,192,0,0,,4,,,64,127
38736,note_off,48,0,0,,11,,,70,127
38878,note_off,142,0,0,,7,,,55,127
38880,note_on,2,0,0,,11,,,58,127
39070,note_off,190,0,0,,4,,,64,127
39072,note_on,2,0,0,,5,,,65,127
39120,note_on,48,0,0,,7,,,67,127
39142,note_off,22,0,0,,5,,,65,127
39168,note_on,26,0,0,,10,,,69,127
39190,note_off,22,0,0,,7,,,67,127
39216,note_on,26,0,0,,11,,,70,127
39238,note_off,22,0,0,,10,,,69,127
39262,note_off,24,0,0,,11,,,58,127
39264,note_on,2,0,0,,10,,,57,127
39264,note_on,0,0,0,,0,,,72,127
39286,note_off,22,0,0,,11,,,70,127
39456,note_on,170,0,0,,5,,,65,127
39504,note_off,48,0,0,,0,,,72,127
39646,note_off,142,0,0,,10,,,57,127
39648,note_on,2,0,0,,2,,,62,127
39838,note_off,190,0,0,,5,,,65,127
39840,note_on,2,0,0,,7,,,67,127
39934,note_off,94,0,0,,7,,,67,127
39936,note_on,2,0,0,,10,,,69,127
40030,note_off,94,0,0,,10,,,69,127
40030,note_off,0,0,0,,2,,,62,127
40032,note_on,2,0,0,,7,,,55,127
40032,note_on,0,0,0,,11,,,70,127
40224,note_on,192,0,0,,4,,,64,127
40272,note_off,48,0,0,,11,,,70,127
40414,note_off,142,0,0,,7,,,55,127
40416,note_on,2,0,0,,11,,,58,127
40606,note_off,190,0,0,,4,,,64,127
40608,note_on,2,0,0,,5,,,65,127
40656,note_on,48,0,0,,7,,,67,127
40678,note_off,22,0,0,,5,,,65,127
40704,note_on,26,0,0,,10,,,69,127
40726,note_off,22,0,0,,7,,,67,127
40752,note_on,26,0,0,,11,,,70,127
40774,note_off,22,0,0,,10,,,69,127
40798,note_off,24,0,0,,11,,,58,127
40800,note_on,2,0,0,,10,,,57,127
40800,note_on,0,0,0,,0,,,72,127
40822,note_off,22,0,0,,11,,,70,127
40992,note_on,170,0,0,,5,,,65,127
41040,note_off,48,0,0,,0,,,72,127
41182,note_off,142,0,0,,10,,,57,127
41184,note_on,2,0,0,,0,,,60,127
41184,note_on,0,0,0,,5,,,53,127
41374,note_off,190,0,0,,5,,,65,127
41376,note_on,2,0,0,,7,,,67,127
41424,note_on,48,0,0,,10,,,69,127
41446,note_off,22,0,0,,7,,,67,127
41472,note_on,26,0,0,,11,,,70,127
41494,note_off,22,0,0,,10,,,69,127
41520,note_on,26,0,0,,0,,,72,127
41542,note_off,22,0,0,,11,,,70,127
41566,note_off,24,0,0,,5,,,53,127
41566,note_off,0,0,0,,0,,,60,127
41568,note_on,2,0,0,,11,,,58,127
41568,note_on,0,0,0,,2,,,62,127
41568,note_on,0,0,0,,2,,,74,127
41590,note_off,22,0,0,,0,,,72,127
41760,note_on,170,0,0,,4,,,64,127
41856,note_off,96,0,0,,2,,,74,127
41950,note_off,94,0,0,,2,,,62,127
41950,note_off,0,0,0,,11,,,58,127
41952,note_on,2,0,0,,0,,,60,127
41952,note_on,0,0,0,,10,,,57,127
41952,note_on,0,0,0,,5,,,65,127
42000,note_off,48,0,0,,4,,,64,127
42144,note_on,144,0,0,,0,,,72,127
42192,note_off,48,0,0,,5,,,65,127
42334,note_off,142,0,0,,10,,,57,127
42334,note_off,0,0,0,,0,,,60,127
42336,note_on,2,0,0,,11,,,58,127
42336,note_on,0,0,0,,7,,,55,127
42336,note_on,0,0,0,,11,,,70,127
42384,note_off,48,0,0,,0,,,72,127
42528,note_on,144,0,0,,4,,,64,127
42624,note_off,96,0,0,,11,,,70,127
42718,note_off,94,0,0,,7,,,55,127
42718,note_off,0,0,0,,11,,,58,127
42720,note_on,2,0,0,,5,,,53,127
42720,note_on,0,0,0,,10,,,57,127
42720,note_on,0,0,0,,2,,,62,127
42768,note_off,48,0,0,,4,,,64,127
42912,note_on,144,0,0,,10,,,69,127
42960,note_off,48,0,0,,2,,,62,127
43102,note_off,142,0,0,,10,,,57,127
43102,note_off,0,0,0,,5,,,53,127
43104,note_on,2,0,0,,4,,,52,127
43104,note_on,0,0,0,,7,,,55,127
43104,note_on,0,0,0,,7,,,67,127
43152,note_off,48,0,0,,10,,,69,127
43296,note_on,144,0,0,,0,,,60,127
43392,note_off,96,0,0,,7,,,67,127
43486,note_off,94,0,0,,7,,,55,127
43486,note_off,0,0,0,,4,,,52,127
43488,note_on,2,0,0,,2,,,50,127
43488,note_on,0,0,0,,5,,,53,127
43488,note_on,0,0,0,,12,,,59,127
43536,note_off,48,0,0,,0,,,60,127
43680,note_on,144,0,0,,5,,,77,127
43728,note_off,48,0,0,,12,,,59,127
43870,note_off,142,0,0,,5,,,53,127
43870,note_off,0,0,0,,2,,,50,127
43872,note_on,2,0,0,,0,,,48,127
43872,note_on,0,0,0,,4,,,76,127
43920,note_off,48,0,0,,5,,,77,127
44064,note_on,144,0,0,,5,,,77,127
44112,note_off,48,0,0,,4,,,76,127
44158,note_off,46,0,0,,5,,,77,127
44160,note_on,2,0,0,,7,,,79,127
44254,note_off,94,0,0,,7,,,79,127
44256,note_on,2,0,0,,0,,,72,127
44446,note_off,190,0,0,,0,,,72,127
44446,note_off,0,0,0,,0,,,48,127
44448,note_on,2,0,0,,4,,,52,127
44448,note_on,0,0,0,,11,,,70,127
44638,note_off,190,0,0,,11,,,70,127
44638,note_off,0,0,0,,4,,,52,127
44640,note_on,2,0,0,,5,,,53,127
44640,note_on,0,0,0,,10,,,69,127
44832,note_on,192,0,0,,10,,,45,127
44832,note_on,0,0,0,,5,,,77,127
44880,note_off,48,0,0,,10,,,69,127
44880,note_off,0,0,0,,5,,,53,127
45022,note_off,142,0,0,,10,,,45,127
45024,note_on,2,0,0,,11,,,46,127
45024,note_on,0,0,0,,7,,,67,127
45072,note_off,48,0,0,,5,,,77,127
45214,note_off,142,0,0,,11,,,46,127
45216,note_on,2,0,0,,0,,,48,127
45216,note_on,0,0,0,,4,,,76,127
45264,note_off,48,0,0,,7,,,67,127
45408,note_on,144,0,0,,5,,,41,127
45408,note_on,0,0,0,,5,,,77,127
45456,note_off,48,0,0,,4,,,76,127
45456,note_off,0,0,0,,0,,,48,127
45600,note_on,144,0,0,,0,,,72,127
45648,note_off,48,0,0,,5,,,77,127
45792,note_on,144,0,0,,10,,,69,127
45840,note_off,48,0,0,,0,,,72,127
45983,note_off,143,0,0,,5,,,41,127
45984,note_on,1,0,0,,5,,,77,127
46032,note_off,48,0,0,,10,,,69,127
46176,note_on,144,0,0,,0,,,72,127
46224,note_off,48,0,0,,5,,,77,127
46368,note_on,144,0,0,,10,,,69,127
46416,note_off,48,0,0,,0,,,72,127
46560,note_on,144,0,0,,5,,,65,127
46608,note_off,48,0,0,,10,,,69,127
46752,note_on,144,0,0,,0,,,48,127
46800,note_off,48,0,0,,5,,,65,127
46942,note_off,142,0,0,,0,,,48,127
46944,note_on,2,0,0,,5,,,41,127
48479,note_off,1535,0,0,,5,,,41,127
52224,end_of_track,3745,1,0,,,,,,
