tick,type,time,meta,track,program,channel,pitch,tempo,note,velocity
0,copyright,0,1,0,,,,,,
0,program_change,0,0,0,6,0,,,,
0,pitchwheel,0,0,0,,0,0,,,
0,program_change,0,0,0,6,1,,,,
0,pitchwheel,0,0,0,,1,-590,,,
0,program_change,0,0,0,6,2,,,,
0,pitchwheel,0,0,0,,2,-272,,,
0,program_change,0,0,0,6,3,,,,
0,pitchwheel,0,0,0,,3,-353,,,
0,program_change,0,0,0,6,4,,,,
0,pitchwheel,0,0,0,,4,-560,,,
0,program_change,0,0,0,6,5,,,,
0,pitchwheel,0,0,0,,5,-80,,,
0,program_change,0,0,0,6,6,,,,
0,pitchwheel,0,0,0,,6,-625,,,
0,program_change,0,0,0,6,7,,,,
0,pitchwheel,0,0,0,,7,-130,,,
0,program_change,0,0,0,6,8,,,,
0,pitchwheel,0,0,0,,8,-512,,,
0,program_change,0,0,0,6,10,,,,
0,pitchwheel,0,0,0,,10,-464,,,
0,program_change,0,0,0,6,11,,,,
0,pitchwheel,0,0,0,,11,-208,,,
0,program_change,0,0,0,6,12,,,,
0,pitchwheel,0,0,0,,12,-553,,,
0,set_tempo,0,1,0,,,,500000,,
96,note_on,96,0,0,,7,,,43,127
96,note_on,0,0,0,,7,,,79,127
480,note_on,384,0,0,,7,,,67,127
671,note_off,191,0,0,,7,,,79,127
672,note_on,1,0,0,,5,,,77,127
768,note_off,96,0,0,,7,,,67,127
863,note_off,95,0,0,,5,,,77,127
863,note_off,0,0,0,,7,,,43,127
864,note_on,1,0,0,,7,,,55,127
864,note_on,0,0,0,,3,,,75,127
1055,note_off,191,0,0,,3,,,75,127
1056,note_on,1,0,0,,0,,,72,127
1247,note_off,191,0,0,,0,,,72,127
1247,note_off,0,0,0,,7,,,55,127
1248,note_on,1,0,0,,6,,,54,127
1248,note_on,0,0,0,,2,,,74,127
1440,note_on,192,0,0,,11,,,70,127
1468,note_off,28,0,0,,2,,,74,127
1631,note_off,163,0,0,,11,,,70,127
1632,note_on,1,0,0,,0,,,72,127
1823,note_off,191,0,0,,6,,,54,127
1824,note_on,1,0,0,,6,,,54,127
1824,note_on,0,0,0,,10,,,69,127
1852,note_off,28,0,0,,0,,,72,127
2015,note_off,163,0,0,,10,,,69,127
2015,note_off,0,0,0,,6,,,54,127
2016,note_on,1,0,0,,7,,,55,127
2016,note_on,0,0,0,,11,,,70,127
2208,note_on,192,0,0,,7,,,67,127
2236,note_off,28,0,0,,11,,,70,127
2399,note_off,163,0,0,,7,,,67,127
2399,note_off,0,0,0,,7,,,55,127
2400,note_on,1,0,0,,2,,,62,127
2400,note_on,0,0,0,,6,,,66,127
2591,note_off,191,0,0,,6,,,66,127
2592,note_on,1,0,0,,7,,,67,127
2783,note_off,191,0,0,,7,,,67,127
2783,note_off,0,0,0,,2,,,62,127
2784,note_on,1,0,0,,2,,,50,127
2784,note_on,0,0,0,,10,,,69,127
2975,note_off,191,0,0,,2,,,50,127
2976,note_on,1,0,0,,0,,,60,127
3164,note_off,188,0,0,,10,,,69,127
3167,note_off,3,0,0,,0,,,60,127
3168,note_on,1,0,0,,11,,,58,127
3168,note_on,0,0,0,,2,,,62,127
3359,note_off,191,0,0,,11,,,58,127
3360,note_on,1,0,0,,7,,,55,127
3551,note_off,191,0,0,,7,,,55,127
3552,note_on,1,0,0,,10,,,57,127
3743,note_off,191,0,0,,10,,,57,127
3743,note_off,0,0,0,,2,,,62,127
3744,note_on,1,0,0,,6,,,54,127
3744,note_on,0,0,0,,0,,,72,127
3744,note_on,0,0,0,,10,,,69,127
3935,note_off,191,0,0,,10,,,69,127
3935,note_off,0,0,0,,0,,,72,127
3935,note_off,0,0,0,,6,,,54,127
3936,note_on,1,0,0,,7,,,55,127
3936,note_on,0,0,0,,11,,,70,127
3936,note_on,0,0,0,,7,,,67,127
4127,note_off,191,0,0,,7,,,55,127
4128,note_on,1,0,0,,0,,,48,127
4319,note_off,191,0,0,,0,,,48,127
4320,note_on,1,0,0,,2,,,50,127
4511,note_off,191,0,0,,7,,,67,127
4511,note_off,0,0,0,,11,,,70,127
4512,note_on,1,0,0,,2,,,38,127
4512,note_on,0,0,0,,10,,,69,127
4512,note_on,0,0,0,,6,,,66,127
4703,note_off,191,0,0,,6,,,66,127
4703,note_off,0,0,0,,10,,,69,127
4703,note_off,0,0,0,,2,,,38,127
4703,note_off,0,0,0,,2,,,50,127
4704,note_on,1,0,0,,7,,,43,127
4704,note_on,0,0,0,,11,,,70,127
4896,note_on,192,0,0,,7,,,67,127
4944,note_off,48,0,0,,11,,,70,127
5088,note_on,144,0,0,,3,,,75,127
5096,note_off,8,0,0,,7,,,67,127
5279,note_off,183,0,0,,7,,,43,127
5280,note_on,1,0,0,,7,,,55,127
5471,note_off,191,0,0,,7,,,55,127
5472,note_on,1,0,0,,10,,,57,127
5663,note_off,191,0,0,,10,,,57,127
5664,note_on,1,0,0,,5,,,53,127
5664,note_on,0,0,0,,5,,,65,127
5855,note_off,191,0,0,,5,,,65,127
5855,note_off,0,0,0,,5,,,53,127
5855,note_off,0,0,0,,3,,,75,127
5856,note_on,1,0,0,,11,,,58,127
5856,note_on,0,0,0,,2,,,74,127
6048,note_on,192,0,0,,11,,,70,127
6096,note_off,48,0,0,,2,,,74,127
6240,note_on,144,0,0,,5,,,77,127
6248,note_off,8,0,0,,11,,,70,127
6431,note_off,183,0,0,,11,,,58,127
6432,note_on,1,0,0,,10,,,57,127
6623,note_off,191,0,0,,10,,,57,127
6624,note_on,1,0,0,,12,,,59,127
6815,note_off,191,0,0,,12,,,59,127
6816,note_on,1,0,0,,7,,,55,127
6816,note_on,0,0,0,,7,,,67,127
7007,note_off,191,0,0,,7,,,67,127
7007,note_off,0,0,0,,7,,,55,127
7007,note_off,0,0,0,,5,,,77,127
7008,note_on,1,0,0,,0,,,60,127
7008,note_on,0,0,0,,3,,,75,127
7200,note_on,192,0,0,,0,,,72,127
7248,note_off,48,0,0,,3,,,75,127
7392,note_on,144,0,0,,7,,,79,127
7400,note_off,8,0,0,,0,,,72,127
7583,note_off,183,0,0,,0,,,60,127
7584,note_on,1,0,0,,12,,,59,127
7775,note_off,191,0,0,,12,,,59,127
7776,note_on,1,0,0,,1,,,61,127
7967,note_off,191,0,0,,1,,,61,127
7968,note_on,1,0,0,,10,,,57,127
7968,note_on,0,0,0,,10,,,69,127
8159,note_off,191,0,0,,10,,,69,127
8159,note_off,0,0,0,,10,,,57,127
8159,note_off,0,0,0,,7,,,79,127
8160,note_on,1,0,0,,2,,,62,127
8160,note_on,0,0,0,,5,,,77,127
8352,note_on,192,0,0,,2,,,74,127
8400,note_off,48,0,0,,5,,,77,127
8544,note_on,144,0,0,,10,,,81,127
8552,note_off,8,0,0,,2,,,74,127
8735,note_off,183,0,0,,2,,,62,127
8736,note_on,1,0,0,,0,,,60,127
8927,note_off,191,0,0,,0,,,60,127
8928,note_on,1,0,0,,11,,,58,127
9120,note_on,192,0,0,,2,,,74,127
9311,note_off,191,0,0,,2,,,74,127
9311,note_off,0,0,0,,11,,,58,127
9311,note_off,0,0,0,,10,,,81,127
9312,note_on,1,0,0,,10,,,57,127
9312,note_on,0,0,0,,1,,,73,127
9503,note_off,191,0,0,,1,,,73,127
9504,note_on,1,0,0,,2,,,74,127
9695,note_off,191,0,0,,2,,,74,127
9696,note_on,1,0,0,,10,,,45,127
9696,note_on,0,0,0,,4,,,76,127
9887,note_off,191,0,0,,10,,,57,127
9888,note_on,1,0,0,,7,,,55,127
9984,note_off,96,0,0,,10,,,45,127
10079,note_off,95,0,0,,7,,,55,127
10079,note_off,0,0,0,,4,,,76,127
10080,note_on,1,0,0,,5,,,53,127
10080,note_on,0,0,0,,10,,,69,127
10271,note_off,191,0,0,,5,,,53,127
10272,note_on,1,0,0,,2,,,50,127
10463,note_off,191,0,0,,2,,,50,127
10464,note_on,1,0,0,,4,,,52,127
10655,note_off,191,0,0,,4,,,52,127
10655,note_off,0,0,0,,10,,,69,127
10656,note_on,1,0,0,,1,,,49,127
10656,note_on,0,0,0,,4,,,76,127
10656,note_on,0,0,0,,7,,,79,127
10847,note_off,191,0,0,,7,,,79,127
10847,note_off,0,0,0,,4,,,76,127
10847,note_off,0,0,0,,1,,,49,127
10848,note_on,1,0,0,,2,,,50,127
10848,note_on,0,0,0,,5,,,77,127
10848,note_on,0,0,0,,2,,,74,127
11039,note_off,191,0,0,,2,,,50,127
11040,note_on,1,0,0,,7,,,55,127
11231,note_off,191,0,0,,7,,,55,127
11232,note_on,1,0,0,,10,,,57,127
11423,note_off,191,0,0,,2,,,74,127
11423,note_off,0,0,0,,5,,,77,127
11424,note_on,1,0,0,,10,,,45,127
11424,note_on,0,0,0,,1,,,73,127
11424,note_on,0,0,0,,4,,,76,127
11615,note_off,191,0,0,,4,,,76,127
11615,note_off,0,0,0,,1,,,73,127
11615,note_off,0,0,0,,10,,,45,127
11615,note_off,0,0,0,,10,,,57,127
11616,note_on,1,0,0,,2,,,50,127
11616,note_on,0,0,0,,5,,,77,127
11616,note_on,0,0,0,,2,,,74,127
11807,note_off,191,0,0,,2,,,50,127
11808,note_on,1,0,0,,2,,,62,127
11999,note_off,191,0,0,,2,,,62,127
12000,note_on,1,0,0,,12,,,59,127
12191,note_off,191,0,0,,12,,,59,127
12191,note_off,0,0,0,,2,,,74,127
12191,note_off,0,0,0,,5,,,77,127
12192,note_on,1,0,0,,7,,,55,127
12192,note_on,0,0,0,,2,,,74,127
12192,note_on,0,0,0,,5,,,77,127
12383,note_off,191,0,0,,5,,,77,127
12383,note_off,0,0,0,,2,,,74,127
12383,note_off,0,0,0,,7,,,55,127
12384,note_on,1,0,0,,0,,,60,127
12384,note_on,0,0,0,,0,,,72,127
12384,note_on,0,0,0,,3,,,75,127
12576,note_on,192,0,0,,0,,,48,127
12767,note_off,191,0,0,,0,,,48,127
12767,note_off,0,0,0,,3,,,75,127
12767,note_off,0,0,0,,0,,,72,127
12767,note_off,0,0,0,,0,,,60,127
12768,note_on,1,0,0,,7,,,55,127
12768,note_on,0,0,0,,2,,,74,127
12768,note_on,0,0,0,,12,,,71,127
12960,note_on,192,0,0,,7,,,67,127
13008,note_off,48,0,0,,12,,,71,127
13151,note_off,143,0,0,,7,,,67,127
13151,note_off,0,0,0,,7,,,55,127
13152,note_on,1,0,0,,5,,,53,127
13152,note_on,0,0,0,,8,,,68,127
13343,note_off,191,0,0,,8,,,68,127
13344,note_on,1,0,0,,5,,,65,127
13535,note_off,191,0,0,,5,,,65,127
13535,note_off,0,0,0,,5,,,53,127
13535,note_off,0,0,0,,2,,,74,127
13536,note_on,1,0,0,,12,,,47,127
13536,note_on,0,0,0,,2,,,74,127
13728,note_on,192,0,0,,7,,,67,127
13919,note_off,191,0,0,,7,,,67,127
13919,note_off,0,0,0,,2,,,74,127
13919,note_off,0,0,0,,12,,,47,127
13920,note_on,1,0,0,,0,,,48,127
13920,note_on,0,0,0,,3,,,75,127
13920,note_on,0,0,0,,0,,,72,127
14111,note_off,191,0,0,,0,,,48,127
14112,note_on,1,0,0,,0,,,60,127
14303,note_off,191,0,0,,0,,,60,127
14304,note_on,1,0,0,,10,,,57,127
14495,note_off,191,0,0,,10,,,57,127
14495,note_off,0,0,0,,0,,,72,127
14495,note_off,0,0,0,,3,,,75,127
14496,note_on,1,0,0,,5,,,53,127
14496,note_on,0,0,0,,3,,,75,127
14496,note_on,0,0,0,,0,,,72,127
14687,note_off,191,0,0,,0,,,72,127
14687,note_off,0,0,0,,3,,,75,127
14687,note_off,0,0,0,,5,,,53,127
14688,note_on,1,0,0,,11,,,58,127
14688,note_on,0,0,0,,11,,,70,127
14688,note_on,0,0,0,,2,,,74,127
14879,note_off,191,0,0,,11,,,70,127
14880,note_on,1,0,0,,7,,,67,127
15071,note_off,191,0,0,,7,,,67,127
15071,note_off,0,0,0,,2,,,74,127
15071,note_off,0,0,0,,11,,,58,127
15072,note_on,1,0,0,,6,,,54,127
15072,note_on,0,0,0,,10,,,69,127
15072,note_on,0,0,0,,0,,,72,127
15264,note_on,192,0,0,,2,,,62,127
15312,note_off,48,0,0,,10,,,69,127
15455,note_off,143,0,0,,2,,,62,127
15455,note_off,0,0,0,,0,,,72,127
15455,note_off,0,0,0,,6,,,54,127
15456,note_on,1,0,0,,7,,,55,127
15456,note_on,0,0,0,,11,,,70,127
15456,note_on,0,0,0,,7,,,67,127
15647,note_off,191,0,0,,7,,,67,127
15648,note_on,1,0,0,,2,,,62,127
15839,note_off,191,0,0,,2,,,62,127
15839,note_off,0,0,0,,11,,,70,127
15839,note_off,0,0,0,,7,,,55,127
15840,note_on,1,0,0,,1,,,49,127
15840,note_on,0,0,0,,7,,,67,127
15840,note_on,0,0,0,,10,,,69,127
16031,note_off,191,0,0,,7,,,67,127
16032,note_on,1,0,0,,4,,,64,127
16223,note_off,191,0,0,,4,,,64,127
16223,note_off,0,0,0,,10,,,69,127
16223,note_off,0,0,0,,1,,,49,127
16224,note_on,1,0,0,,2,,,50,127
16224,note_on,0,0,0,,6,,,66,127
16415,note_off,191,0,0,,6,,,66,127
16416,note_on,1,0,0,,7,,,67,127
16607,note_off,191,0,0,,7,,,67,127
16608,note_on,1,0,0,,2,,,38,127
16608,note_on,0,0,0,,10,,,69,127
16799,note_off,191,0,0,,2,,,50,127
16800,note_on,1,0,0,,0,,,48,127
16896,note_off,96,0,0,,2,,,38,127
16991,note_off,95,0,0,,0,,,48,127
16991,note_off,0,0,0,,10,,,69,127
16992,note_on,1,0,0,,11,,,46,127
16992,note_on,0,0,0,,2,,,62,127
17183,note_off,191,0,0,,11,,,46,127
17184,note_on,1,0,0,,7,,,43,127
17375,note_off,191,0,0,,7,,,43,127
17376,note_on,1,0,0,,10,,,45,127
17567,note_off,191,0,0,,10,,,45,127
17567,note_off,0,0,0,,2,,,62,127
17568,note_on,1,0,0,,6,,,54,127
17568,note_on,0,0,0,,0,,,72,127
17568,note_on,0,0,0,,10,,,69,127
17759,note_off,191,0,0,,10,,,69,127
17759,note_off,0,0,0,,0,,,72,127
17759,note_off,0,0,0,,6,,,54,127
17760,note_on,1,0,0,,7,,,43,127
17760,note_on,0,0,0,,11,,,70,127
17760,note_on,0,0,0,,7,,,67,127
17951,note_off,191,0,0,,7,,,43,127
17952,note_on,1,0,0,,7,,,55,127
18143,note_off,191,0,0,,7,,,55,127
18143,note_off,0,0,0,,11,,,70,127
18144,note_on,1,0,0,,0,,,48,127
18144,note_on,0,0,0,,3,,,75,127
18335,note_off,191,0,0,,7,,,67,127
18336,note_on,1,0,0,,10,,,69,127
18431,note_off,95,0,0,,10,,,69,127
18432,note_on,1,0,0,,7,,,67,127
18527,note_off,95,0,0,,7,,,67,127
18527,note_off,0,0,0,,3,,,75,127
18527,note_off,0,0,0,,0,,,48,127
18528,note_on,1,0,0,,2,,,50,127
18528,note_on,0,0,0,,6,,,66,127
18528,note_on,0,0,0,,2,,,74,127
18719,note_off,191,0,0,,6,,,66,127
18720,note_on,1,0,0,,7,,,67,127
18911,note_off,191,0,0,,7,,,67,127
18912,note_on,1,0,0,,2,,,38,127
18912,note_on,0,0,0,,10,,,69,127
19103,note_off,191,0,0,,2,,,50,127
19104,note_on,1,0,0,,0,,,48,127
19200,note_off,96,0,0,,2,,,38,127
19295,note_off,95,0,0,,0,,,48,127
19295,note_off,0,0,0,,10,,,69,127
19295,note_off,0,0,0,,2,,,74,127
19296,note_on,1,0,0,,11,,,46,127
19296,note_on,0,0,0,,2,,,62,127
19487,note_off,191,0,0,,11,,,46,127
19488,note_on,1,0,0,,7,,,43,127
19679,note_off,191,0,0,,7,,,43,127
19680,note_on,1,0,0,,0,,,48,127
19871,note_off,191,0,0,,0,,,48,127
19871,note_off,0,0,0,,2,,,62,127
19872,note_on,1,0,0,,6,,,54,127
19872,note_on,0,0,0,,0,,,72,127
19872,note_on,0,0,0,,10,,,69,127
20063,note_off,191,0,0,,10,,,69,127
20063,note_off,0,0,0,,0,,,72,127
20063,note_off,0,0,0,,6,,,54,127
20064,note_on,1,0,0,,11,,,46,127
20064,note_on,0,0,0,,11,,,70,127
20064,note_on,0,0,0,,7,,,67,127
20255,note_off,191,0,0,,11,,,46,127
20256,note_on,1,0,0,,7,,,55,127
20447,note_off,191,0,0,,7,,,55,127
20447,note_off,0,0,0,,11,,,70,127
20448,note_on,1,0,0,,0,,,48,127
20448,note_on,0,0,0,,3,,,75,127
20639,note_off,191,0,0,,7,,,67,127
20640,note_on,1,0,0,,10,,,69,127
20735,note_off,95,0,0,,10,,,69,127
20736,note_on,1,0,0,,7,,,67,127
20831,note_off,95,0,0,,7,,,67,127
20831,note_off,0,0,0,,3,,,75,127
20831,note_off,0,0,0,,0,,,48,127
20832,note_on,1,0,0,,2,,,50,127
20832,note_on,0,0,0,,2,,,74,127
20832,note_on,0,0,0,,6,,,66,127
21023,note_off,191,0,0,,6,,,66,127
21024,note_on,1,0,0,,7,,,67,127
21215,note_off,191,0,0,,7,,,67,127
21216,note_on,1,0,0,,2,,,38,127
21216,note_on,0,0,0,,10,,,69,127
21407,note_off,191,0,0,,2,,,50,127
21408,note_on,1,0,0,,0,,,48,127
21504,note_off,96,0,0,,2,,,38,127
21599,note_off,95,0,0,,0,,,48,127
21599,note_off,0,0,0,,10,,,69,127
21600,note_on,1,0,0,,11,,,46,127
21600,note_on,0,0,0,,2,,,62,127
21788,note_off,188,0,0,,2,,,74,127
21791,note_off,3,0,0,,11,,,46,127
21792,note_on,1,0,0,,7,,,55,127
21792,note_on,0,0,0,,2,,,74,127
21983,note_off,191,0,0,,2,,,62,127
21984,note_on,1,0,0,,10,,,45,127
22175,note_off,191,0,0,,2,,,74,127
22175,note_off,0,0,0,,7,,,55,127
22176,note_on,1,0,0,,6,,,54,127
22176,note_on,0,0,0,,0,,,72,127
22367,note_off,191,0,0,,0,,,72,127
22367,note_off,0,0,0,,6,,,54,127
22367,note_off,0,0,0,,10,,,45,127
22368,note_on,1,0,0,,7,,,55,127
22368,note_on,0,0,0,,7,,,43,127
22368,note_on,0,0,0,,11,,,70,127
22751,note_off,383,0,0,,11,,,70,127
22751,note_off,0,0,0,,7,,,43,127
22751,note_off,0,0,0,,7,,,55,127
22752,note_on,1,0,0,,1,,,49,127
22752,note_on,0,0,0,,7,,,55,127
22752,note_on,0,0,0,,0,,,72,127
22800,note_on,48,0,0,,11,,,70,127
22816,note_off,16,0,0,,0,,,72,127
22848,note_on,32,0,0,,0,,,72,127
22864,note_off,16,0,0,,11,,,70,127
22896,note_on,32,0,0,,11,,,70,127
22912,note_off,16,0,0,,0,,,72,127
22944,note_on,32,0,0,,0,,,72,127
22960,note_off,16,0,0,,11,,,70,127
22992,note_on,32,0,0,,11,,,70,127
23008,note_off,16,0,0,,0,,,72,127
23040,note_on,32,0,0,,10,,,69,127
23056,note_off,16,0,0,,11,,,70,127
23088,note_on,32,0,0,,11,,,70,127
23104,note_off,16,0,0,,10,,,69,127
23135,note_off,31,0,0,,11,,,70,127
23135,note_off,0,0,0,,7,,,55,127
23135,note_off,0,0,0,,1,,,49,127
23136,note_on,1,0,0,,2,,,50,127
23136,note_on,0,0,0,,2,,,38,127
23136,note_on,0,0,0,,10,,,69,127
23327,note_off,191,0,0,,10,,,69,127
23328,note_on,1,0,0,,7,,,67,127
23423,note_off,95,0,0,,7,,,67,127
23424,note_on,1,0,0,,10,,,69,127
23519,note_off,95,0,0,,10,,,69,127
23520,note_on,1,0,0,,11,,,70,127
23712,note_on,192,0,0,,6,,,66,127
23808,note_off,96,0,0,,11,,,70,127
23903,note_off,95,0,0,,6,,,66,127
23904,note_on,1,0,0,,7,,,67,127
23904,note_on,0,0,0,,11,,,70,127
24095,note_off,191,0,0,,7,,,67,127
24096,note_on,1,0,0,,4,,,64,127
24287,note_off,191,0,0,,4,,,64,127
24287,note_off,0,0,0,,11,,,70,127
24287,note_off,0,0,0,,2,,,38,127
24287,note_off,0,0,0,,2,,,50,127
24288,note_on,1,0,0,,2,,,38,127
24288,note_on,0,0,0,,2,,,50,127
24288,note_on,0,0,0,,10,,,81,127
24288,note_on,0,0,0,,6,,,78,127
24479,note_off,191,0,0,,6,,,78,127
24480,note_on,1,0,0,,2,,,74,127
24671,note_off,191,0,0,,2,,,74,127
24671,note_off,0,0,0,,10,,,81,127
24672,note_on,1,0,0,,3,,,75,127
24672,note_on,0,0,0,,7,,,79,127
24863,note_off,191,0,0,,3,,,75,127
24864,note_on,1,0,0,,0,,,72,127
25055,note_off,191,0,0,,0,,,72,127
25055,note_off,0,0,0,,7,,,79,127
25056,note_on,1,0,0,,6,,,78,127
25056,note_on,0,0,0,,2,,,74,127
25247,note_off,191,0,0,,2,,,74,127
25248,note_on,1,0,0,,10,,,69,127
25439,note_off,191,0,0,,10,,,69,127
25439,note_off,0,0,0,,6,,,78,127
25439,note_off,0,0,0,,2,,,50,127
25439,note_off,0,0,0,,2,,,38,127
25440,note_on,1,0,0,,2,,,38,127
25440,note_on,0,0,0,,2,,,50,127
25440,note_on,0,0,0,,7,,,79,127
25440,note_on,0,0,0,,11,,,70,127
25631,note_off,191,0,0,,11,,,70,127
25632,note_on,1,0,0,,7,,,67,127
25823,note_off,191,0,0,,7,,,67,127
25823,note_off,0,0,0,,7,,,79,127
25823,note_off,0,0,0,,2,,,50,127
25823,note_off,0,0,0,,2,,,38,127
25824,note_on,1,0,0,,2,,,38,127
25824,note_on,0,0,0,,2,,,50,127
25824,note_on,0,0,0,,6,,,78,127
25824,note_on,0,0,0,,0,,,72,127
26015,note_off,191,0,0,,0,,,72,127
26016,note_on,1,0,0,,10,,,69,127
26207,note_off,191,0,0,,10,,,69,127
26207,note_off,0,0,0,,6,,,78,127
26207,note_off,0,0,0,,2,,,50,127
26207,note_off,0,0,0,,2,,,38,127
26208,note_on,1,0,0,,2,,,38,127
26208,note_on,0,0,0,,2,,,50,127
26208,note_on,0,0,0,,11,,,70,127
26208,note_on,0,0,0,,7,,,79,127
26399,note_off,191,0,0,,11,,,70,127
26400,note_on,1,0,0,,7,,,67,127
26591,note_off,191,0,0,,7,,,67,127
26591,note_off,0,0,0,,7,,,79,127
26591,note_off,0,0,0,,2,,,50,127
26591,note_off,0,0,0,,2,,,38,127
26592,note_on,1,0,0,,2,,,38,127
26592,note_on,0,0,0,,2,,,50,127
26592,note_on,0,0,0,,10,,,81,127
26592,note_on,0,0,0,,6,,,78,127
26592,note_on,0,0,0,,2,,,74,127
26592,note_on,0,0,0,,10,,,69,127
26880,note_off,288,0,0,,10,,,69,127
26880,note_off,0,0,0,,2,,,74,127
26880,note_off,0,0,0,,6,,,78,127
26880,note_off,0,0,0,,10,,,81,127
26976,note_on,96,0,0,,10,,,69,127
26976,note_on,0,0,0,,2,,,74,127
26976,note_on,0,0,0,,10,,,81,127
26976,note_on,0,0,0,,6,,,78,127
27167,note_off,191,0,0,,2,,,50,127
27167,note_off,0,0,0,,2,,,38,127
27168,note_on,1,0,0,,0,,,48,127
27264,note_off,96,0,0,,6,,,78,127
27264,note_off,0,0,0,,10,,,81,127
27264,note_off,0,0,0,,2,,,74,127
27264,note_off,0,0,0,,10,,,69,127
27359,note_off,95,0,0,,0,,,48,127
27360,note_on,1,0,0,,11,,,46,127
27551,note_off,191,0,0,,11,,,46,127
27552,note_on,1,0,0,,10,,,45,127
27743,note_off,191,0,0,,10,,,45,127
27744,note_on,1,0,0,,11,,,46,127
27744,note_on,0,0,0,,11,,,82,127
28128,note_on,384,0,0,,11,,,70,127
28319,note_off,191,0,0,,11,,,82,127
28320,note_on,1,0,0,,10,,,81,127
28416,note_off,96,0,0,,11,,,70,127
28511,note_off,95,0,0,,10,,,81,127
28511,note_off,0,0,0,,11,,,46,127
28512,note_on,1,0,0,,11,,,58,127
28512,note_on,0,0,0,,7,,,79,127
28703,note_off,191,0,0,,7,,,79,127
28704,note_on,1,0,0,,3,,,75,127
28895,note_off,191,0,0,,3,,,75,127
28895,note_off,0,0,0,,11,,,58,127
28896,note_on,1,0,0,,10,,,57,127
28896,note_on,0,0,0,,5,,,77,127
29088,note_on,192,0,0,,2,,,74,127
29116,note_off,28,0,0,,5,,,77,127
29279,note_off,163,0,0,,2,,,74,127
29280,note_on,1,0,0,,3,,,75,127
29471,note_off,191,0,0,,10,,,57,127
29472,note_on,1,0,0,,10,,,57,127
29472,note_on,0,0,0,,0,,,72,127
29500,note_off,28,0,0,,3,,,75,127
29663,note_off,163,0,0,,0,,,72,127
29663,note_off,0,0,0,,10,,,57,127
29664,note_on,1,0,0,,11,,,58,127
29664,note_on,0,0,0,,2,,,74,127
29856,note_on,192,0,0,,11,,,70,127
29884,note_off,28,0,0,,2,,,74,127
30047,note_off,163,0,0,,11,,,70,127
30047,note_off,0,0,0,,11,,,58,127
30048,note_on,1,0,0,,5,,,65,127
30048,note_on,0,0,0,,10,,,69,127
30239,note_off,191,0,0,,10,,,69,127
30240,note_on,1,0,0,,11,,,70,127
30431,note_off,191,0,0,,11,,,70,127
30432,note_on,1,0,0,,5,,,53,127
30432,note_on,0,0,0,,0,,,72,127
30623,note_off,191,0,0,,5,,,65,127
30624,note_on,1,0,0,,3,,,63,127
30720,note_off,96,0,0,,5,,,53,127
30815,note_off,95,0,0,,3,,,63,127
30815,note_off,0,0,0,,0,,,72,127
30816,note_on,1,0,0,,2,,,62,127
30816,note_on,0,0,0,,5,,,65,127
31007,note_off,191,0,0,,2,,,62,127
31008,note_on,1,0,0,,11,,,58,127
31199,note_off,191,0,0,,11,,,58,127
31200,note_on,1,0,0,,0,,,60,127
31391,note_off,191,0,0,,0,,,60,127
31391,note_off,0,0,0,,5,,,65,127
31392,note_on,1,0,0,,10,,,57,127
31392,note_on,0,0,0,,3,,,75,127
31392,note_on,0,0,0,,0,,,72,127
31583,note_off,191,0,0,,0,,,72,127
31583,note_off,0,0,0,,3,,,75,127
31583,note_off,0,0,0,,10,,,57,127
31584,note_on,1,0,0,,11,,,58,127
31584,note_on,0,0,0,,2,,,74,127
31584,note_on,0,0,0,,11,,,70,127
31775,note_off,191,0,0,,11,,,58,127
31776,note_on,1,0,0,,3,,,51,127
31967,note_off,191,0,0,,3,,,51,127
31968,note_on,1,0,0,,5,,,53,127
32159,note_off,191,0,0,,11,,,70,127
32159,note_off,0,0,0,,2,,,74,127
32160,note_on,1,0,0,,5,,,41,127
32160,note_on,0,0,0,,10,,,69,127
32160,note_on,0,0,0,,0,,,72,127
32351,note_off,191,0,0,,0,,,72,127
32351,note_off,0,0,0,,10,,,69,127
32351,note_off,0,0,0,,5,,,41,127
32351,note_off,0,0,0,,5,,,53,127
32352,note_on,1,0,0,,11,,,46,127
32352,note_on,0,0,0,,2,,,74,127
32352,note_on,0,0,0,,11,,,70,127
32543,note_off,191,0,0,,2,,,74,127
32544,note_on,1,0,0,,4,,,76,127
32735,note_off,191,0,0,,4,,,76,127
32736,note_on,1,0,0,,5,,,77,127
32927,note_off,191,0,0,,11,,,70,127
32927,note_off,0,0,0,,11,,,46,127
32928,note_on,1,0,0,,8,,,56,127
32928,note_on,0,0,0,,0,,,72,127
33119,note_off,191,0,0,,0,,,72,127
33119,note_off,0,0,0,,8,,,56,127
33120,note_on,1,0,0,,11,,,58,127
33120,note_on,0,0,0,,7,,,55,127
33120,note_on,0,0,0,,11,,,70,127
33311,note_off,191,0,0,,5,,,77,127
33312,note_on,1,0,0,,4,,,76,127
33503,note_off,191,0,0,,4,,,76,127
33503,note_off,0,0,0,,11,,,70,127
33503,note_off,0,0,0,,7,,,55,127
33503,note_off,0,0,0,,11,,,58,127
33504,note_on,1,0,0,,8,,,56,127
33504,note_on,0,0,0,,0,,,60,127
33504,note_on,0,0,0,,5,,,77,127
33696,note_on,192,0,0,,0,,,72,127
33724,note_off,28,0,0,,5,,,77,127
33887,note_off,163,0,0,,0,,,72,127
33887,note_off,0,0,0,,0,,,60,127
33887,note_off,0,0,0,,8,,,56,127
33888,note_on,1,0,0,,11,,,58,127
33888,note_on,0,0,0,,1,,,73,127
34080,note_on,192,0,0,,11,,,70,127
34108,note_off,28,0,0,,1,,,73,127
34271,note_off,163,0,0,,11,,,70,127
34271,note_off,0,0,0,,11,,,58,127
34272,note_on,1,0,0,,0,,,60,127
34272,note_on,0,0,0,,4,,,52,127
34272,note_on,0,0,0,,0,,,72,127
34464,note_on,192,0,0,,7,,,67,127
34492,note_off,28,0,0,,0,,,72,127
34655,note_off,163,0,0,,7,,,67,127
34655,note_off,0,0,0,,4,,,52,127
34655,note_off,0,0,0,,0,,,60,127
34656,note_on,1,0,0,,0,,,60,127
34656,note_on,0,0,0,,5,,,53,127
34656,note_on,0,0,0,,11,,,70,127
34704,note_on,48,0,0,,8,,,68,127
34720,note_off,16,0,0,,11,,,70,127
34752,note_on,32,0,0,,11,,,70,127
34768,note_off,16,0,0,,8,,,68,127
34800,note_on,32,0,0,,8,,,68,127
34816,note_off,16,0,0,,11,,,70,127
34941,note_off,125,0,0,,8,,,68,127
34944,note_on,3,0,0,,7,,,67,127
35039,note_off,95,0,0,,7,,,67,127
35040,note_on,1,0,0,,5,,,65,127
35231,note_off,191,0,0,,5,,,65,127
35231,note_off,0,0,0,,5,,,53,127
35231,note_off,0,0,0,,0,,,60,127
35232,note_on,1,0,0,,5,,,65,127
35423,note_off,191,0,0,,5,,,65,127
35424,note_on,1,0,0,,3,,,63,127
35424,note_on,0,0,0,,0,,,72,127
35615,note_off,191,0,0,,3,,,63,127
35616,note_on,1,0,0,,0,,,60,127
35807,note_off,191,0,0,,0,,,60,127
35808,note_on,1,0,0,,2,,,62,127
35999,note_off,191,0,0,,2,,,62,127
35999,note_off,0,0,0,,0,,,72,127
36000,note_on,1,0,0,,12,,,59,127
36000,note_on,0,0,0,,2,,,74,127
36000,note_on,0,0,0,,5,,,77,127
36191,note_off,191,0,0,,5,,,77,127
36191,note_off,0,0,0,,2,,,74,127
36191,note_off,0,0,0,,12,,,59,127
36192,note_on,1,0,0,,0,,,60,127
36192,note_on,0,0,0,,3,,,75,127
36192,note_on,0,0,0,,0,,,72,127
36383,note_off,191,0,0,,0,,,60,127
36384,note_on,1,0,0,,5,,,53,127
36575,note_off,191,0,0,,5,,,53,127
36576,note_on,1,0,0,,7,,,55,127
36767,note_off,191,0,0,,0,,,72,127
36767,note_off,0,0,0,,3,,,75,127
36768,note_on,1,0,0,,7,,,43,127
36768,note_on,0,0,0,,12,,,71,127
36768,note_on,0,0,0,,2,,,74,127
36959,note_off,191,0,0,,2,,,74,127
36959,note_off,0,0,0,,12,,,71,127
36959,note_off,0,0,0,,7,,,43,127
36959,note_off,0,0,0,,7,,,55,127
36960,note_on,1,0,0,,0,,,48,127
36960,note_on,0,0,0,,0,,,72,127
36960,note_on,0,0,0,,3,,,75,127
37152,note_on,192,0,0,,8,,,56,127
37180,note_off,28,0,0,,0,,,48,127
37343,note_off,163,0,0,,8,,,56,127
37343,note_off,0,0,0,,3,,,75,127
37343,note_off,0,0,0,,0,,,72,127
37344,note_on,1,0,0,,11,,,46,127
37344,note_on,0,0,0,,2,,,74,127
37536,note_on,192,0,0,,7,,,55,127
37564,note_off,28,0,0,,11,,,46,127
37727,note_off,163,0,0,,7,,,55,127
37727,note_off,0,0,0,,2,,,74,127
37728,note_on,1,0,0,,8,,,44,127
37728,note_on,0,0,0,,0,,,72,127
37920,note_on,192,0,0,,5,,,53,127
37948,note_off,28,0,0,,8,,,44,127
38111,note_off,163,0,0,,5,,,53,127
38111,note_off,0,0,0,,0,,,72,127
38112,note_on,1,0,0,,7,,,43,127
38112,note_on,0,0,0,,2,,,74,127
38303,note_off,191,0,0,,2,,,74,127
38304,note_on,1,0,0,,0,,,72,127
38399,note_off,95,0,0,,0,,,72,127
38400,note_on,1,0,0,,2,,,74,127
38495,note_off,95,0,0,,2,,,74,127
38496,note_on,1,0,0,,3,,,75,127
38688,note_on,192,0,0,,12,,,71,127
38879,note_off,191,0,0,,12,,,71,127
38879,note_off,0,0,0,,3,,,75,127
38880,note_on,1,0,0,,3,,,75,127
38880,note_on,0,0,0,,0,,,72,127
39071,note_off,191,0,0,,0,,,72,127
39072,note_on,1,0,0,,10,,,69,127
39263,note_off,191,0,0,,10,,,69,127
39263,note_off,0,0,0,,3,,,75,127
39263,note_off,0,0,0,,7,,,43,127
39264,note_on,1,0,0,,7,,,43,127
39264,note_on,0,0,0,,2,,,74,127
39264,note_on,0,0,0,,12,,,71,127
39455,note_off,191,0,0,,12,,,71,127
39456,note_on,1,0,0,,7,,,67,127
39647,note_off,191,0,0,,7,,,67,127
39647,note_off,0,0,0,,2,,,74,127
39648,note_on,1,0,0,,0,,,72,127
39648,note_on,0,0,0,,8,,,68,127
39839,note_off,191,0,0,,8,,,68,127
39840,note_on,1,0,0,,5,,,65,127
40031,note_off,191,0,0,,5,,,65,127
40031,note_off,0,0,0,,0,,,72,127
40032,note_on,1,0,0,,12,,,71,127
40032,note_on,0,0,0,,7,,,67,127
40223,note_off,191,0,0,,7,,,67,127
40224,note_on,1,0,0,,2,,,62,127
40415,note_off,191,0,0,,2,,,62,127
40415,note_off,0,0,0,,12,,,71,127
40415,note_off,0,0,0,,7,,,43,127
40416,note_on,1,0,0,,7,,,43,127
40416,note_on,0,0,0,,0,,,72,127
40416,note_on,0,0,0,,3,,,63,127
40607,note_off,191,0,0,,3,,,63,127
40608,note_on,1,0,0,,0,,,60,127
40799,note_off,191,0,0,,0,,,60,127
40799,note_off,0,0,0,,0,,,72,127
40799,note_off,0,0,0,,7,,,43,127
40800,note_on,1,0,0,,7,,,43,127
40800,note_on,0,0,0,,12,,,71,127
40800,note_on,0,0,0,,5,,,65,127
40991,note_off,191,0,0,,5,,,65,127
40992,note_on,1,0,0,,2,,,62,127
41183,note_off,191,0,0,,2,,,62,127
41183,note_off,0,0,0,,12,,,71,127
41183,note_off,0,0,0,,7,,,43,127
41184,note_on,1,0,0,,7,,,43,127
41184,note_on,0,0,0,,0,,,72,127
41184,note_on,0,0,0,,3,,,63,127
41375,note_off,191,0,0,,3,,,63,127
41376,note_on,1,0,0,,0,,,60,127
41567,note_off,191,0,0,,0,,,60,127
41567,note_off,0,0,0,,0,,,72,127
41567,note_off,0,0,0,,7,,,43,127
41568,note_on,1,0,0,,7,,,43,127
41568,note_on,0,0,0,,2,,,62,127
41568,note_on,0,0,0,,7,,,67,127
41568,note_on,0,0,0,,2,,,74,127
41568,note_on,0,0,0,,12,,,71,127
41856,note_off,288,0,0,,12,,,71,127
41856,note_off,0,0,0,,2,,,74,127
41856,note_off,0,0,0,,7,,,67,127
41856,note_off,0,0,0,,2,,,62,127
41952,note_on,96,0,0,,12,,,71,127
41952,note_on,0,0,0,,7,,,67,127
41952,note_on,0,0,0,,2,,,62,127
41952,note_on,0,0,0,,2,,,74,127
42143,note_off,191,0,0,,7,,,43,127
42144,note_on,1,0,0,,5,,,53,127
42240,note_off,96,0,0,,2,,,74,127
42240,note_off,0,0,0,,2,,,62,127
42240,note_off,0,0,0,,7,,,67,127
42240,note_off,0,0,0,,12,,,71,127
42335,note_off,95,0,0,,5,,,53,127
42336,note_on,1,0,0,,3,,,51,127
42336,note_on,0,0,0,,7,,,79,127
42527,note_off,191,0,0,,3,,,51,127
42528,note_on,1,0,0,,0,,,60,127
42719,note_off,191,0,0,,0,,,60,127
42719,note_off,0,0,0,,7,,,79,127
42720,note_on,1,0,0,,2,,,50,127
42720,note_on,0,0,0,,5,,,77,127
42912,note_on,192,0,0,,12,,,59,127
42940,note_off,28,0,0,,2,,,50,127
43103,note_off,163,0,0,,5,,,77,127
43104,note_on,1,0,0,,0,,,48,127
43104,note_on,0,0,0,,3,,,75,127
43132,note_off,28,0,0,,12,,,59,127
43296,note_on,164,0,0,,10,,,57,127
43324,note_off,28,0,0,,0,,,48,127
43487,note_off,163,0,0,,3,,,75,127
43488,note_on,1,0,0,,11,,,46,127
43488,note_on,0,0,0,,2,,,74,127
43516,note_off,28,0,0,,10,,,57,127
43680,note_on,164,0,0,,7,,,55,127
43708,note_off,28,0,0,,11,,,46,127
43871,note_off,163,0,0,,2,,,74,127
43872,note_on,1,0,0,,10,,,45,127
43872,note_on,0,0,0,,0,,,72,127
43900,note_off,28,0,0,,7,,,55,127
44064,note_on,164,0,0,,6,,,54,127
44092,note_off,28,0,0,,10,,,45,127
44255,note_off,163,0,0,,0,,,72,127
44256,note_on,1,0,0,,11,,,46,127
44256,note_on,0,0,0,,2,,,74,127
44284,note_off,28,0,0,,6,,,54,127
44448,note_on,164,0,0,,7,,,55,127
44476,note_off,28,0,0,,11,,,46,127
44639,note_off,163,0,0,,2,,,74,127
44640,note_on,1,0,0,,10,,,45,127
44640,note_on,0,0,0,,0,,,72,127
44668,note_off,28,0,0,,7,,,55,127
44832,note_on,164,0,0,,6,,,54,127
44860,note_off,28,0,0,,10,,,45,127
45023,note_off,163,0,0,,0,,,72,127
45024,note_on,1,0,0,,7,,,43,127
45024,note_on,0,0,0,,11,,,70,127
45052,note_off,28,0,0,,6,,,54,127
45215,note_off,163,0,0,,11,,,70,127
45216,note_on,1,0,0,,10,,,69,127
45311,note_off,95,0,0,,10,,,69,127
45312,note_on,1,0,0,,11,,,70,127
45407,note_off,95,0,0,,11,,,70,127
45407,note_off,0,0,0,,7,,,43,127
45408,note_on,1,0,0,,0,,,48,127
45408,note_on,0,0,0,,0,,,72,127
45599,note_off,191,0,0,,0,,,72,127
45600,note_on,1,0,0,,11,,,70,127
45791,note_off,191,0,0,,11,,,70,127
45791,note_off,0,0,0,,0,,,48,127
45792,note_on,1,0,0,,0,,,48,127
45792,note_on,0,0,0,,0,,,60,127
45792,note_on,0,0,0,,3,,,75,127
45792,note_on,0,0,0,,10,,,69,127
45983,note_off,191,0,0,,10,,,69,127
45984,note_on,1,0,0,,7,,,67,127
46175,note_off,191,0,0,,7,,,67,127
46175,note_off,0,0,0,,3,,,75,127
46176,note_on,1,0,0,,2,,,74,127
46176,note_on,0,0,0,,6,,,66,127
46367,note_off,191,0,0,,6,,,66,127
46367,note_off,0,0,0,,0,,,60,127
46367,note_off,0,0,0,,0,,,48,127
46368,note_on,1,0,0,,11,,,58,127
46368,note_on,0,0,0,,7,,,67,127
46559,note_off,191,0,0,,7,,,67,127
46559,note_off,0,0,0,,11,,,58,127
46560,note_on,1,0,0,,10,,,57,127
46560,note_on,0,0,0,,10,,,69,127
46751,note_off,191,0,0,,10,,,69,127
46751,note_off,0,0,0,,10,,,57,127
46751,note_off,0,0,0,,2,,,74,127
46752,note_on,1,0,0,,7,,,55,127
46752,note_on,0,0,0,,11,,,70,127
46943,note_off,191,0,0,,11,,,70,127
46943,note_off,0,0,0,,7,,,55,127
46944,note_on,1,0,0,,6,,,54,127
46944,note_on,0,0,0,,0,,,72,127
47135,note_off,191,0,0,,6,,,54,127
47136,note_on,1,0,0,,4,,,52,127
47327,note_off,191,0,0,,4,,,52,127
47328,note_on,1,0,0,,2,,,38,127
47328,note_on,0,0,0,,2,,,62,127
47519,note_off,191,0,0,,0,,,72,127
47520,note_on,1,0,0,,11,,,70,127
47711,note_off,191,0,0,,11,,,70,127
47711,note_off,0,0,0,,2,,,38,127
47712,note_on,1,0,0,,2,,,38,127
47712,note_on,0,0,0,,10,,,69,127
47903,note_off,191,0,0,,10,,,69,127
47903,note_off,0,0,0,,2,,,62,127
47904,note_on,1,0,0,,7,,,67,127
48095,note_off,191,0,0,,7,,,67,127
48095,note_off,0,0,0,,2,,,38,127
48096,note_on,1,0,0,,2,,,38,127
48096,note_on,0,0,0,,1,,,73,127
48096,note_on,0,0,0,,6,,,66,127
48287,note_off,191,0,0,,6,,,66,127
48288,note_on,1,0,0,,4,,,64,127
48479,note_off,191,0,0,,4,,,64,127
48479,note_off,0,0,0,,1,,,73,127
48479,note_off,0,0,0,,2,,,38,127
48480,note_on,1,0,0,,2,,,38,127
48480,note_on,0,0,0,,2,,,62,127
48480,note_on,0,0,0,,2,,,74,127
48671,note_off,191,0,0,,2,,,62,127
48672,note_on,1,0,0,,6,,,66,127
48767,note_off,95,0,0,,6,,,66,127
48768,note_on,1,0,0,,7,,,67,127
48863,note_off,95,0,0,,7,,,67,127
48864,note_on,1,0,0,,10,,,69,127
49055,note_off,191,0,0,,2,,,38,127
49056,note_on,1,0,0,,2,,,50,127
49247,note_off,191,0,0,,2,,,50,127
49247,note_off,0,0,0,,10,,,69,127
49247,note_off,0,0,0,,2,,,74,127
49248,note_on,1,0,0,,3,,,51,127
49248,note_on,0,0,0,,7,,,67,127
49440,note_on,192,0,0,,0,,,48,127
49468,note_off,28,0,0,,3,,,51,127
49631,note_off,163,0,0,,0,,,48,127
49632,note_on,1,0,0,,2,,,38,127
49728,note_off,96,0,0,,7,,,67,127
49824,note_on,96,0,0,,6,,,66,127
49919,note_off,95,0,0,,6,,,66,127
49920,note_on,1,0,0,,7,,,67,127
50015,note_off,95,0,0,,7,,,67,127
50016,note_on,1,0,0,,10,,,69,127
50207,note_off,191,0,0,,2,,,38,127
50208,note_on,1,0,0,,2,,,50,127
50399,note_off,191,0,0,,2,,,50,127
50399,note_off,0,0,0,,10,,,69,127
50400,note_on,1,0,0,,7,,,55,127
50400,note_on,0,0,0,,7,,,67,127
50592,note_on,192,0,0,,7,,,43,127
50688,note_off,96,0,0,,7,,,55,127
50783,note_off,95,0,0,,7,,,43,127
50784,note_on,1,0,0,,2,,,38,127
50880,note_off,96,0,0,,7,,,67,127
50976,note_on,96,0,0,,10,,,69,127
51071,note_off,95,0,0,,10,,,69,127
51072,note_on,1,0,0,,11,,,70,127
51167,note_off,95,0,0,,11,,,70,127
51168,note_on,1,0,0,,10,,,69,127
51168,note_on,0,0,0,,6,,,66,127
51168,note_on,0,0,0,,0,,,72,127
51359,note_off,191,0,0,,2,,,38,127
51360,note_on,1,0,0,,2,,,50,127
51551,note_off,191,0,0,,2,,,50,127
51551,note_off,0,0,0,,0,,,72,127
51551,note_off,0,0,0,,6,,,66,127
51551,note_off,0,0,0,,10,,,69,127
51552,note_on,1,0,0,,7,,,55,127
51552,note_on,0,0,0,,2,,,62,127
51552,note_on,0,0,0,,11,,,70,127
51552,note_on,0,0,0,,7,,,67,127
51744,note_on,192,0,0,,7,,,43,127
51840,note_off,96,0,0,,7,,,55,127
51935,note_off,95,0,0,,7,,,43,127
51935,note_off,0,0,0,,7,,,67,127
51935,note_off,0,0,0,,11,,,70,127
51935,note_off,0,0,0,,2,,,62,127
51936,note_on,1,0,0,,2,,,38,127
52128,note_on,192,0,0,,10,,,69,127
52223,note_off,95,0,0,,10,,,69,127
52224,note_on,1,0,0,,11,,,70,127
52319,note_off,95,0,0,,11,,,70,127
52320,note_on,1,0,0,,10,,,69,127
52320,note_on,0,0,0,,6,,,66,127
52320,note_on,0,0,0,,0,,,72,127
52511,note_off,191,0,0,,2,,,38,127
52512,note_on,1,0,0,,2,,,50,127
52703,note_off,191,0,0,,2,,,50,127
52703,note_off,0,0,0,,0,,,72,127
52703,note_off,0,0,0,,6,,,66,127
52703,note_off,0,0,0,,10,,,69,127
52704,note_on,1,0,0,,7,,,55,127
52704,note_on,0,0,0,,7,,,67,127
52704,note_on,0,0,0,,2,,,62,127
52704,note_on,0,0,0,,11,,,70,127
52896,note_on,192,0,0,,7,,,43,127
53087,note_off,191,0,0,,7,,,43,127
53087,note_off,0,0,0,,11,,,70,127
53087,note_off,0,0,0,,2,,,62,127
53087,note_off,0,0,0,,7,,,67,127
53088,note_on,1,0,0,,0,,,48,127
53088,note_on,0,0,0,,3,,,75,127
53088,note_on,0,0,0,,0,,,72,127
53089,note_off,1,0,0,,7,,,55,127
53280,note_on,191,0,0,,10,,,81,127
53471,note_off,191,0,0,,0,,,72,127
53471,note_off,0,0,0,,3,,,75,127
53471,note_off,0,0,0,,0,,,48,127
53472,note_on,1,0,0,,2,,,50,127
53472,note_on,0,0,0,,2,,,74,127
53472,note_on,0,0,0,,11,,,70,127
53663,note_off,191,0,0,,10,,,81,127
53664,note_on,1,0,0,,7,,,79,127
53855,note_off,191,0,0,,11,,,70,127
53855,note_off,0,0,0,,2,,,74,127
53856,note_on,1,0,0,,2,,,38,127
53856,note_on,0,0,0,,10,,,69,127
53856,note_on,0,0,0,,0,,,72,127
54047,note_off,191,0,0,,7,,,79,127
54048,note_on,1,0,0,,6,,,78,127
54239,note_off,191,0,0,,6,,,78,127
54239,note_off,0,0,0,,0,,,72,127
54239,note_off,0,0,0,,10,,,69,127
54239,note_off,0,0,0,,2,,,38,127
54239,note_off,0,0,0,,2,,,50,127
54240,note_on,1,0,0,,7,,,43,127
54240,note_on,0,0,0,,7,,,79,127
54240,note_on,0,0,0,,11,,,70,127
54431,note_off,191,0,0,,11,,,70,127
54432,note_on,1,0,0,,10,,,69,127
54527,note_off,95,0,0,,10,,,69,127
54528,note_on,1,0,0,,11,,,70,127
54623,note_off,95,0,0,,11,,,70,127
54624,note_on,1,0,0,,0,,,72,127
54815,note_off,191,0,0,,0,,,72,127
54816,note_on,1,0,0,,2,,,74,127
55007,note_off,191,0,0,,2,,,74,127
55008,note_on,1,0,0,,4,,,76,127
55199,note_off,191,0,0,,4,,,76,127
55199,note_off,0,0,0,,7,,,79,127
55200,note_on,1,0,0,,10,,,81,127
55200,note_on,0,0,0,,6,,,78,127
55391,note_off,191,0,0,,6,,,78,127
55391,note_off,0,0,0,,10,,,81,127
55391,note_off,0,0,0,,7,,,43,127
55392,note_on,1,0,0,,7,,,43,127
55392,note_on,0,0,0,,11,,,70,127
55392,note_on,0,0,0,,7,,,67,127
55583,note_off,191,0,0,,11,,,70,127
55584,note_on,1,0,0,,10,,,69,127
55679,note_off,95,0,0,,10,,,69,127
55680,note_on,1,0,0,,11,,,70,127
55775,note_off,95,0,0,,11,,,70,127
55776,note_on,1,0,0,,0,,,72,127
55967,note_off,191,0,0,,0,,,72,127
55968,note_on,1,0,0,,2,,,74,127
56159,note_off,191,0,0,,2,,,74,127
56160,note_on,1,0,0,,4,,,76,127
56351,note_off,191,0,0,,4,,,76,127
56351,note_off,0,0,0,,7,,,67,127
56352,note_on,1,0,0,,10,,,69,127
56352,note_on,0,0,0,,6,,,78,127
56543,note_off,191,0,0,,6,,,78,127
56543,note_off,0,0,0,,10,,,69,127
56543,note_off,0,0,0,,7,,,43,127
56544,note_on,1,0,0,,7,,,43,127
56544,note_on,0,0,0,,11,,,70,127
56544,note_on,0,0,0,,7,,,79,127
56735,note_off,191,0,0,,7,,,43,127
56736,note_on,1,0,0,,10,,,45,127
56831,note_off,95,0,0,,10,,,45,127
56832,note_on,1,0,0,,11,,,46,127
56927,note_off,95,0,0,,11,,,46,127
56927,note_off,0,0,0,,11,,,70,127
56928,note_on,1,0,0,,0,,,48,127
56928,note_on,0,0,0,,7,,,67,127
57119,note_off,191,0,0,,0,,,48,127
57120,note_on,1,0,0,,2,,,50,127
57311,note_off,191,0,0,,2,,,50,127
57311,note_off,0,0,0,,7,,,67,127
57312,note_on,1,0,0,,4,,,52,127
57312,note_on,0,0,0,,0,,,72,127
57503,note_off,191,0,0,,4,,,52,127
57504,note_on,1,0,0,,6,,,54,127
57695,note_off,191,0,0,,6,,,54,127
57695,note_off,0,0,0,,7,,,79,127
57696,note_on,1,0,0,,7,,,55,127
57887,note_off,191,0,0,,7,,,55,127
57887,note_off,0,0,0,,0,,,72,127
57888,note_on,1,0,0,,10,,,57,127
57888,note_on,0,0,0,,11,,,70,127
57983,note_off,95,0,0,,11,,,70,127
57984,note_on,1,0,0,,0,,,72,127
58079,note_off,95,0,0,,0,,,72,127
58079,note_off,0,0,0,,10,,,57,127
58080,note_on,1,0,0,,11,,,58,127
58080,note_on,0,0,0,,2,,,74,127
58271,note_off,191,0,0,,2,,,74,127
58271,note_off,0,0,0,,11,,,58,127
58272,note_on,1,0,0,,0,,,60,127
58272,note_on,0,0,0,,7,,,67,127
58463,note_off,191,0,0,,0,,,60,127
58464,note_on,1,0,0,,2,,,62,127
58655,note_off,191,0,0,,7,,,67,127
58656,note_on,1,0,0,,2,,,50,127
58656,note_on,0,0,0,,6,,,66,127
58847,note_off,191,0,0,,6,,,66,127
58847,note_off,0,0,0,,2,,,50,127
58847,note_off,0,0,0,,2,,,62,127
58848,note_on,1,0,0,,7,,,43,127
59040,note_on,192,0,0,,7,,,79,127
59231,note_off,191,0,0,,7,,,79,127
59231,note_off,0,0,0,,7,,,43,127
59232,note_on,1,0,0,,7,,,43,127
59232,note_on,0,0,0,,2,,,74,127
59423,note_off,191,0,0,,2,,,74,127
59424,note_on,1,0,0,,11,,,70,127
59615,note_off,191,0,0,,11,,,70,127
59615,note_off,0,0,0,,7,,,43,127
59616,note_on,1,0,0,,7,,,43,127
59616,note_on,0,0,0,,7,,,67,127
59808,note_on,192,0,0,,6,,,78,127
59996,note_off,188,0,0,,7,,,67,127
59999,note_off,3,0,0,,6,,,78,127
59999,note_off,0,0,0,,7,,,43,127
60000,note_on,1,0,0,,7,,,43,127
60000,note_on,0,0,0,,11,,,70,127
60000,note_on,0,0,0,,7,,,79,127
60000,note_on,0,0,0,,2,,,74,127
60000,note_on,0,0,0,,7,,,67,127
60288,note_off,288,0,0,,7,,,67,127
60288,note_off,0,0,0,,2,,,74,127
60288,note_off,0,0,0,,7,,,79,127
60288,note_off,0,0,0,,11,,,70,127
60384,note_on,96,0,0,,2,,,74,127
60384,note_on,0,0,0,,11,,,70,127
60384,note_on,0,0,0,,7,,,67,127
60384,note_on,0,0,0,,7,,,79,127
60724,note_off,340,0,0,,7,,,79,127
60724,note_off,0,0,0,,7,,,67,127
60724,note_off,0,0,0,,11,,,70,127
60724,note_off,0,0,0,,2,,,74,127
61152,note_off,428,0,0,,7,,,43,127
66048,end_of_track,4896,1,0,,,,,,
