tick,type,time,meta,track,program,channel,pitch,tempo,note,velocity
0,copyright,0,1,0,,,,,,
0,program_change,0,0,0,6,0,,,,
0,pitchwheel,0,0,0,,0,0,,,
0,program_change,0,0,0,6,1,,,,
0,pitchwheel,0,0,0,,1,-590,,,
0,program_change,0,0,0,6,2,,,,
0,pitchwheel,0,0,0,,2,-272,,,
0,program_change,0,0,0,6,3,,,,
0,pitchwheel,0,0,0,,3,-353,,,
0,program_change,0,0,0,6,4,,,,
0,pitchwheel,0,0,0,,4,-560,,,
0,program_change,0,0,0,6,5,,,,
0,pitchwheel,0,0,0,,5,-80,,,
0,program_change,0,0,0,6,6,,,,
0,pitchwheel,0,0,0,,6,-625,,,
0,program_change,0,0,0,6,7,,,,
0,pitchwheel,0,0,0,,7,-130,,,
0,program_change,0,0,0,6,8,,,,
0,pitchwheel,0,0,0,,8,-512,,,
0,program_change,0,0,0,6,10,,,,
0,pitchwheel,0,0,0,,10,-464,,,
0,program_change,0,0,0,6,11,,,,
0,pitchwheel,0,0,0,,11,-208,,,
0,program_change,0,0,0,6,12,,,,
0,pitchwheel,0,0,0,,12,-553,,,
0,set_tempo,0,1,0,,,,500000,,
115,note_on,115,0,0,,0,,,60,127
115,note_on,0,0,0,,10,,,57,127
115,note_on,0,0,0,,10,,,69,127
575,note_off,460,0,0,,10,,,57,127
575,note_off,0,0,0,,0,,,60,127
576,note_on,1,0,0,,10,,,57,127
576,note_on,0,0,0,,0,,,60,127
805,note_off,229,0,0,,10,,,69,127
806,note_on,1,0,0,,10,,,69,127
1035,note_off,229,0,0,,10,,,69,127
1035,note_off,0,0,0,,0,,,60,127
1035,note_off,0,0,0,,10,,,57,127
1036,note_on,1,0,0,,8,,,56,127
1036,note_on,0,0,0,,4,,,52,127
1036,note_on,0,0,0,,12,,,59,127
1036,note_on,0,0,0,,12,,,71,127
1265,note_off,229,0,0,,12,,,71,127
1266,note_on,1,0,0,,4,,,64,127
1495,note_off,229,0,0,,12,,,59,127
1495,note_off,0,0,0,,4,,,52,127
1495,note_off,0,0,0,,8,,,56,127
1496,note_on,1,0,0,,12,,,59,127
1496,note_on,0,0,0,,8,,,56,127
1496,note_on,0,0,0,,4,,,52,127
1725,note_off,229,0,0,,4,,,64,127
1726,note_on,1,0,0,,12,,,71,127
1955,note_off,229,0,0,,12,,,71,127
1955,note_off,0,0,0,,4,,,52,127
1955,note_off,0,0,0,,8,,,56,127
1955,note_off,0,0,0,,12,,,59,127
1956,note_on,1,0,0,,10,,,57,127
1956,note_on,0,0,0,,0,,,60,127
1956,note_on,0,0,0,,0,,,72,127
2185,note_off,229,0,0,,0,,,72,127
2186,note_on,1,0,0,,10,,,69,127
2415,note_off,229,0,0,,10,,,69,127
2415,note_off,0,0,0,,0,,,60,127
2415,note_off,0,0,0,,10,,,57,127
2416,note_on,1,0,0,,12,,,59,127
2416,note_on,0,0,0,,2,,,62,127
2416,note_on,0,0,0,,2,,,74,127
2645,note_off,229,0,0,,2,,,74,127
2646,note_on,1,0,0,,12,,,71,127
2875,note_off,229,0,0,,12,,,71,127
2875,note_off,0,0,0,,2,,,62,127
2875,note_off,0,0,0,,12,,,59,127
2876,note_on,1,0,0,,4,,,64,127
2876,note_on,0,0,0,,0,,,60,127
2876,note_on,0,0,0,,4,,,76,127
3105,note_off,229,0,0,,0,,,60,127
3106,note_on,1,0,0,,10,,,57,127
3221,note_off,115,0,0,,4,,,64,127
3335,note_off,114,0,0,,10,,,57,127
3335,note_off,0,0,0,,4,,,76,127
3336,note_on,1,0,0,,2,,,62,127
3336,note_on,0,0,0,,12,,,59,127
3336,note_on,0,0,0,,2,,,74,127
3565,note_off,229,0,0,,12,,,59,127
3566,note_on,1,0,0,,8,,,56,127
3681,note_off,115,0,0,,2,,,62,127
3795,note_off,114,0,0,,8,,,56,127
3795,note_off,0,0,0,,2,,,74,127
3796,note_on,1,0,0,,10,,,57,127
3796,note_on,0,0,0,,0,,,60,127
3796,note_on,0,0,0,,2,,,74,127
3910,note_off,114,0,0,,2,,,74,127
3911,note_on,1,0,0,,0,,,72,127
4025,note_off,114,0,0,,0,,,72,127
4026,note_on,1,0,0,,12,,,71,127
4140,note_off,114,0,0,,12,,,71,127
4141,note_on,1,0,0,,0,,,72,127
4255,note_off,114,0,0,,0,,,72,127
4255,note_off,0,0,0,,0,,,60,127
4255,note_off,0,0,0,,10,,,57,127
4256,note_on,1,0,0,,2,,,62,127
4256,note_on,0,0,0,,2,,,50,127
4256,note_on,0,0,0,,2,,,74,127
4370,note_off,114,0,0,,2,,,74,127
4371,note_on,1,0,0,,0,,,72,127
4485,note_off,114,0,0,,0,,,72,127
4486,note_on,1,0,0,,12,,,71,127
4600,note_off,114,0,0,,12,,,71,127
4601,note_on,1,0,0,,10,,,69,127
4715,note_off,114,0,0,,10,,,69,127
4715,note_off,0,0,0,,2,,,50,127
4715,note_off,0,0,0,,2,,,62,127
4716,note_on,1,0,0,,4,,,52,127
4716,note_on,0,0,0,,4,,,64,127
4716,note_on,0,0,0,,8,,,68,127
4945,note_off,229,0,0,,8,,,68,127
4946,note_on,1,0,0,,12,,,71,127
5175,note_off,229,0,0,,12,,,71,127
5175,note_off,0,0,0,,4,,,64,127
5175,note_off,0,0,0,,4,,,52,127
5176,note_on,1,0,0,,4,,,52,127
5176,note_on,0,0,0,,4,,,64,127
5291,note_on,115,0,0,,2,,,62,127
5405,note_off,114,0,0,,2,,,62,127
5406,note_on,1,0,0,,0,,,60,127
5520,note_off,114,0,0,,0,,,60,127
5521,note_off,1,0,0,,4,,,52,127
5521,note_on,0,0,0,,12,,,59,127
5635,note_off,114,0,0,,12,,,59,127
5635,note_off,0,0,0,,4,,,64,127
5636,note_on,1,0,0,,10,,,57,127
5636,note_on,0,0,0,,0,,,60,127
5636,note_on,0,0,0,,10,,,69,127
6096,note_off,460,0,0,,0,,,60,127
6096,note_off,0,0,0,,10,,,57,127
6097,note_on,1,0,0,,0,,,60,127
6097,note_on,0,0,0,,10,,,57,127
6326,note_off,229,0,0,,10,,,69,127
6327,note_on,1,0,0,,10,,,69,127
6556,note_off,229,0,0,,10,,,69,127
6556,note_off,0,0,0,,10,,,57,127
6556,note_off,0,0,0,,0,,,60,127
6557,note_on,1,0,0,,4,,,52,127
6557,note_on,0,0,0,,12,,,59,127
6557,note_on,0,0,0,,8,,,56,127
6557,note_on,0,0,0,,12,,,71,127
6786,note_off,229,0,0,,12,,,71,127
6787,note_on,1,0,0,,4,,,64,127
7016,note_off,229,0,0,,8,,,56,127
7016,note_off,0,0,0,,12,,,59,127
7016,note_off,0,0,0,,4,,,52,127
7017,note_on,1,0,0,,12,,,59,127
7017,note_on,0,0,0,,8,,,56,127
7017,note_on,0,0,0,,4,,,52,127
7246,note_off,229,0,0,,4,,,64,127
7247,note_on,1,0,0,,12,,,71,127
7476,note_off,229,0,0,,12,,,71,127
7476,note_off,0,0,0,,4,,,52,127
7476,note_off,0,0,0,,8,,,56,127
7476,note_off,0,0,0,,12,,,59,127
7477,note_on,1,0,0,,10,,,57,127
7477,note_on,0,0,0,,0,,,60,127
7477,note_on,0,0,0,,0,,,72,127
7706,note_off,229,0,0,,0,,,72,127
7707,note_on,1,0,0,,10,,,69,127
7936,note_off,229,0,0,,10,,,69,127
7936,note_off,0,0,0,,0,,,60,127
7936,note_off,0,0,0,,10,,,57,127
7937,note_on,1,0,0,,2,,,62,127
7937,note_on,0,0,0,,12,,,59,127
7937,note_on,0,0,0,,2,,,74,127
8166,note_off,229,0,0,,2,,,74,127
8167,note_on,1,0,0,,12,,,71,127
8396,note_off,229,0,0,,12,,,71,127
8396,note_off,0,0,0,,12,,,59,127
8396,note_off,0,0,0,,2,,,62,127
8397,note_on,1,0,0,,4,,,64,127
8397,note_on,0,0,0,,0,,,60,127
8397,note_on,0,0,0,,4,,,76,127
8626,note_off,229,0,0,,0,,,60,127
8627,note_on,1,0,0,,10,,,57,127
8742,note_off,115,0,0,,4,,,64,127
8856,note_off,114,0,0,,10,,,57,127
8856,note_off,0,0,0,,4,,,76,127
8857,note_on,1,0,0,,2,,,62,127
8857,note_on,0,0,0,,12,,,59,127
8857,note_on,0,0,0,,2,,,74,127
9086,note_off,229,0,0,,12,,,59,127
9087,note_on,1,0,0,,8,,,56,127
9202,note_off,115,0,0,,2,,,62,127
9316,note_off,114,0,0,,8,,,56,127
9316,note_off,0,0,0,,2,,,74,127
9317,note_on,1,0,0,,0,,,60,127
9317,note_on,0,0,0,,10,,,57,127
9317,note_on,0,0,0,,2,,,74,127
9431,note_off,114,0,0,,2,,,74,127
9432,note_on,1,0,0,,0,,,72,127
9546,note_off,114,0,0,,0,,,72,127
9546,note_off,0,0,0,,10,,,57,127
9546,note_off,0,0,0,,0,,,60,127
9547,note_on,1,0,0,,10,,,45,127
9547,note_on,0,0,0,,12,,,71,127
9661,note_off,114,0,0,,12,,,71,127
9662,note_on,1,0,0,,10,,,69,127
9776,note_off,114,0,0,,10,,,69,127
9776,note_off,0,0,0,,10,,,45,127
9777,note_on,1,0,0,,4,,,52,127
9777,note_on,0,0,0,,12,,,71,127
10006,note_off,229,0,0,,12,,,71,127
10006,note_off,0,0,0,,4,,,52,127
10007,note_on,1,0,0,,4,,,40,127
10007,note_on,0,0,0,,8,,,68,127
10236,note_off,229,0,0,,8,,,68,127
10236,note_off,0,0,0,,4,,,40,127
10237,note_on,1,0,0,,10,,,45,127
10237,note_on,0,0,0,,10,,,69,127
10466,note_off,229,0,0,,10,,,69,127
10467,note_on,1,0,0,,4,,,64,127
10696,note_off,229,0,0,,4,,,64,127
10697,note_on,1,0,0,,0,,,60,127
10926,note_off,229,0,0,,0,,,60,127
10927,note_on,1,0,0,,10,,,57,127
11156,note_off,229,0,0,,10,,,57,127
11156,note_off,0,0,0,,10,,,45,127
11157,note_on,1,0,0,,10,,,57,127
11157,note_on,0,0,0,,0,,,60,127
11157,note_on,0,0,0,,10,,,69,127
11272,note_on,115,0,0,,4,,,64,127
11330,note_off,58,0,0,,10,,,69,127
11388,note_on,58,0,0,,0,,,72,127
11446,note_off,58,0,0,,4,,,64,127
11504,note_on,58,0,0,,4,,,64,127
11562,note_off,58,0,0,,0,,,72,127
11618,note_off,56,0,0,,0,,,60,127
11618,note_off,0,0,0,,10,,,57,127
11619,note_on,1,0,0,,0,,,60,127
11619,note_on,0,0,0,,10,,,57,127
11619,note_on,0,0,0,,10,,,69,127
11677,note_off,58,0,0,,4,,,64,127
11735,note_on,58,0,0,,4,,,64,127
11793,note_off,58,0,0,,10,,,69,127
11851,note_on,58,0,0,,0,,,72,127
11909,note_off,58,0,0,,4,,,64,127
11967,note_on,58,0,0,,4,,,64,127
12025,note_off,58,0,0,,0,,,72,127
12081,note_off,56,0,0,,10,,,57,127
12081,note_off,0,0,0,,0,,,60,127
12082,note_on,1,0,0,,8,,,56,127
12082,note_on,0,0,0,,12,,,59,127
12082,note_on,0,0,0,,4,,,52,127
12082,note_on,0,0,0,,12,,,71,127
12140,note_off,58,0,0,,4,,,64,127
12198,note_on,58,0,0,,4,,,64,127
12256,note_off,58,0,0,,12,,,71,127
12314,note_on,58,0,0,,2,,,74,127
12372,note_off,58,0,0,,4,,,64,127
12430,note_on,58,0,0,,4,,,64,127
12488,note_off,58,0,0,,2,,,74,127
12544,note_off,56,0,0,,4,,,52,127
12544,note_off,0,0,0,,12,,,59,127
12544,note_off,0,0,0,,8,,,56,127
12545,note_on,1,0,0,,8,,,56,127
12545,note_on,0,0,0,,4,,,52,127
12545,note_on,0,0,0,,12,,,59,127
12545,note_on,0,0,0,,12,,,71,127
12603,note_off,58,0,0,,4,,,64,127
12661,note_on,58,0,0,,4,,,64,127
12719,note_off,58,0,0,,12,,,71,127
12777,note_on,58,0,0,,2,,,74,127
12835,note_off,58,0,0,,4,,,64,127
12893,note_on,58,0,0,,4,,,64,127
12951,note_off,58,0,0,,2,,,74,127
13007,note_off,56,0,0,,12,,,59,127
13007,note_off,0,0,0,,4,,,52,127
13007,note_off,0,0,0,,8,,,56,127
13008,note_on,1,0,0,,0,,,60,127
13008,note_on,0,0,0,,10,,,57,127
13008,note_on,0,0,0,,0,,,72,127
13066,note_off,58,0,0,,4,,,64,127
13124,note_on,58,0,0,,4,,,64,127
13182,note_off,58,0,0,,0,,,72,127
13240,note_on,58,0,0,,10,,,69,127
13298,note_off,58,0,0,,4,,,64,127
13356,note_on,58,0,0,,4,,,64,127
13414,note_off,58,0,0,,10,,,69,127
13470,note_off,56,0,0,,10,,,57,127
13470,note_off,0,0,0,,0,,,60,127
13471,note_on,1,0,0,,12,,,59,127
13471,note_on,0,0,0,,2,,,62,127
13471,note_on,0,0,0,,2,,,74,127
13529,note_off,58,0,0,,4,,,64,127
13587,note_on,58,0,0,,4,,,64,127
13645,note_off,58,0,0,,2,,,74,127
13703,note_on,58,0,0,,12,,,71,127
13761,note_off,58,0,0,,4,,,64,127
13819,note_on,58,0,0,,4,,,64,127
13877,note_off,58,0,0,,12,,,71,127
13932,note_off,55,0,0,,4,,,64,127
13933,note_off,1,0,0,,2,,,62,127
13933,note_off,0,0,0,,12,,,59,127
13934,note_on,1,0,0,,4,,,64,127
13934,note_on,0,0,0,,0,,,60,127
13934,note_on,0,0,0,,4,,,76,127
14047,note_off,113,0,0,,4,,,64,127
14049,note_on,2,0,0,,4,,,64,127
14107,note_off,58,0,0,,4,,,76,127
14163,note_off,56,0,0,,0,,,60,127
14164,note_on,1,0,0,,10,,,57,127
14164,note_on,0,0,0,,0,,,72,127
14222,note_off,58,0,0,,4,,,64,127
14280,note_on,58,0,0,,4,,,64,127
14338,note_off,58,0,0,,0,,,72,127
14394,note_off,56,0,0,,10,,,57,127
14395,note_on,1,0,0,,12,,,59,127
14395,note_on,0,0,0,,2,,,62,127
14395,note_on,0,0,0,,2,,,74,127
14453,note_off,58,0,0,,4,,,64,127
14511,note_on,58,0,0,,4,,,64,127
14569,note_off,58,0,0,,2,,,74,127
14625,note_off,56,0,0,,2,,,62,127
14625,note_off,0,0,0,,12,,,59,127
14626,note_on,1,0,0,,8,,,56,127
14626,note_on,0,0,0,,12,,,71,127
14684,note_off,58,0,0,,4,,,64,127
14742,note_on,58,0,0,,4,,,64,127
14800,note_off,58,0,0,,12,,,71,127
14856,note_off,56,0,0,,8,,,56,127
14857,note_on,1,0,0,,0,,,60,127
14857,note_on,0,0,0,,10,,,57,127
14857,note_on,0,0,0,,2,,,74,127
14915,note_off,58,0,0,,4,,,64,127
14971,note_off,56,0,0,,2,,,74,127
14972,note_on,1,0,0,,0,,,72,127
15086,note_off,114,0,0,,0,,,72,127
15087,note_on,1,0,0,,12,,,71,127
15201,note_off,114,0,0,,12,,,71,127
15202,note_on,1,0,0,,0,,,72,127
15316,note_off,114,0,0,,0,,,72,127
15316,note_off,0,0,0,,10,,,57,127
15316,note_off,0,0,0,,0,,,60,127
15317,note_on,1,0,0,,2,,,62,127
15317,note_on,0,0,0,,2,,,50,127
15317,note_on,0,0,0,,2,,,74,127
15431,note_off,114,0,0,,2,,,74,127
15432,note_on,1,0,0,,0,,,72,127
15546,note_off,114,0,0,,0,,,72,127
15547,note_on,1,0,0,,12,,,71,127
15661,note_off,114,0,0,,12,,,71,127
15662,note_on,1,0,0,,10,,,69,127
15776,note_off,114,0,0,,10,,,69,127
15776,note_off,0,0,0,,2,,,50,127
15776,note_off,0,0,0,,2,,,62,127
15777,note_on,1,0,0,,4,,,64,127
15777,note_on,0,0,0,,4,,,52,127
15777,note_on,0,0,0,,8,,,68,127
15890,note_off,113,0,0,,4,,,64,127
15892,note_on,2,0,0,,4,,,64,127
16005,note_off,113,0,0,,8,,,68,127
16007,note_on,2,0,0,,8,,,68,127
16121,note_off,114,0,0,,8,,,68,127
16122,note_on,1,0,0,,12,,,71,127
16236,note_off,114,0,0,,12,,,71,127
16236,note_off,0,0,0,,4,,,52,127
16237,note_off,1,0,0,,4,,,64,127
16237,note_on,0,0,0,,4,,,52,127
16237,note_on,0,0,0,,4,,,76,127
16351,note_off,114,0,0,,4,,,52,127
16352,note_on,1,0,0,,2,,,62,127
16466,note_off,114,0,0,,2,,,62,127
16467,note_on,1,0,0,,0,,,60,127
16467,note_on,0,0,0,,8,,,68,127
16525,note_off,58,0,0,,4,,,76,127
16581,note_off,56,0,0,,0,,,60,127
16582,note_on,1,0,0,,12,,,59,127
16696,note_off,114,0,0,,12,,,59,127
16696,note_off,0,0,0,,8,,,68,127
16697,note_on,1,0,0,,0,,,60,127
16697,note_on,0,0,0,,10,,,57,127
16697,note_on,0,0,0,,10,,,69,127
16812,note_on,115,0,0,,4,,,64,127
16870,note_off,58,0,0,,10,,,69,127
16928,note_on,58,0,0,,0,,,72,127
16986,note_off,58,0,0,,4,,,64,127
17044,note_on,58,0,0,,4,,,64,127
17102,note_off,58,0,0,,0,,,72,127
17158,note_off,56,0,0,,10,,,57,127
17158,note_off,0,0,0,,0,,,60,127
17159,note_on,1,0,0,,0,,,60,127
17159,note_on,0,0,0,,10,,,57,127
17159,note_on,0,0,0,,10,,,69,127
17217,note_off,58,0,0,,4,,,64,127
17275,note_on,58,0,0,,4,,,64,127
17333,note_off,58,0,0,,10,,,69,127
17391,note_on,58,0,0,,0,,,72,127
17449,note_off,58,0,0,,4,,,64,127
17507,note_on,58,0,0,,4,,,64,127
17565,note_off,58,0,0,,0,,,72,127
17621,note_off,56,0,0,,10,,,57,127
17621,note_off,0,0,0,,0,,,60,127
17622,note_on,1,0,0,,8,,,56,127
17622,note_on,0,0,0,,4,,,52,127
17622,note_on,0,0,0,,12,,,59,127
17622,note_on,0,0,0,,12,,,71,127
17680,note_off,58,0,0,,4,,,64,127
17738,note_on,58,0,0,,4,,,64,127
17796,note_off,58,0,0,,12,,,71,127
17854,note_on,58,0,0,,2,,,74,127
17912,note_off,58,0,0,,4,,,64,127
17970,note_on,58,0,0,,4,,,64,127
18028,note_off,58,0,0,,2,,,74,127
18084,note_off,56,0,0,,12,,,59,127
18084,note_off,0,0,0,,4,,,52,127
18084,note_off,0,0,0,,8,,,56,127
18085,note_on,1,0,0,,4,,,52,127
18085,note_on,0,0,0,,8,,,56,127
18085,note_on,0,0,0,,12,,,59,127
18085,note_on,0,0,0,,12,,,71,127
18143,note_off,58,0,0,,4,,,64,127
18201,note_on,58,0,0,,4,,,64,127
18259,note_off,58,0,0,,12,,,71,127
18317,note_on,58,0,0,,2,,,74,127
18375,note_off,58,0,0,,4,,,64,127
18433,note_on,58,0,0,,4,,,64,127
18491,note_off,58,0,0,,2,,,74,127
18547,note_off,56,0,0,,12,,,59,127
18547,note_off,0,0,0,,8,,,56,127
18547,note_off,0,0,0,,4,,,52,127
18548,note_on,1,0,0,,0,,,60,127
18548,note_on,0,0,0,,10,,,57,127
18548,note_on,0,0,0,,0,,,72,127
18606,note_off,58,0,0,,4,,,64,127
18664,note_on,58,0,0,,4,,,64,127
18722,note_off,58,0,0,,0,,,72,127
18780,note_on,58,0,0,,10,,,69,127
18838,note_off,58,0,0,,4,,,64,127
18896,note_on,58,0,0,,4,,,64,127
18954,note_off,58,0,0,,10,,,69,127
19010,note_off,56,0,0,,10,,,57,127
19010,note_off,0,0,0,,0,,,60,127
19011,note_on,1,0,0,,12,,,59,127
19011,note_on,0,0,0,,2,,,62,127
19011,note_on,0,0,0,,2,,,74,127
19069,note_off,58,0,0,,4,,,64,127
19127,note_on,58,0,0,,4,,,64,127
19185,note_off,58,0,0,,2,,,74,127
19243,note_on,58,0,0,,12,,,71,127
19301,note_off,58,0,0,,4,,,64,127
19359,note_on,58,0,0,,4,,,64,127
19417,note_off,58,0,0,,12,,,71,127
19472,note_off,55,0,0,,4,,,64,127
19473,note_off,1,0,0,,2,,,62,127
19473,note_off,0,0,0,,12,,,59,127
19474,note_on,1,0,0,,4,,,64,127
19474,note_on,0,0,0,,0,,,60,127
19474,note_on,0,0,0,,4,,,76,127
19587,note_off,113,0,0,,4,,,64,127
19589,note_on,2,0,0,,4,,,64,127
19647,note_off,58,0,0,,4,,,76,127
19703,note_off,56,0,0,,0,,,60,127
19704,note_on,1,0,0,,10,,,57,127
19704,note_on,0,0,0,,0,,,72,127
19762,note_off,58,0,0,,4,,,64,127
19820,note_on,58,0,0,,4,,,64,127
19878,note_off,58,0,0,,0,,,72,127
19934,note_off,56,0,0,,10,,,57,127
19935,note_on,1,0,0,,12,,,59,127
19935,note_on,0,0,0,,2,,,62,127
19935,note_on,0,0,0,,2,,,74,127
19993,note_off,58,0,0,,4,,,64,127
20051,note_on,58,0,0,,4,,,64,127
20109,note_off,58,0,0,,2,,,74,127
20165,note_off,56,0,0,,2,,,62,127
20165,note_off,0,0,0,,12,,,59,127
20166,note_on,1,0,0,,8,,,56,127
20166,note_on,0,0,0,,12,,,71,127
20224,note_off,58,0,0,,4,,,64,127
20282,note_on,58,0,0,,4,,,64,127
20340,note_off,58,0,0,,12,,,71,127
20396,note_off,56,0,0,,8,,,56,127
20397,note_on,1,0,0,,10,,,57,127
20397,note_on,0,0,0,,0,,,60,127
20397,note_on,0,0,0,,0,,,72,127
20455,note_off,58,0,0,,4,,,64,127
20513,note_on,58,0,0,,12,,,71,127
20571,note_off,58,0,0,,0,,,72,127
20627,note_off,56,0,0,,0,,,60,127
20627,note_off,0,0,0,,10,,,57,127
20628,note_on,1,0,0,,10,,,45,127
20628,note_on,0,0,0,,0,,,72,127
20686,note_off,58,0,0,,12,,,71,127
20744,note_on,58,0,0,,10,,,69,127
20802,note_off,58,0,0,,0,,,72,127
20858,note_off,56,0,0,,10,,,45,127
20859,note_on,1,0,0,,4,,,52,127
20859,note_on,0,0,0,,12,,,71,127
20917,note_off,58,0,0,,10,,,69,127
20975,note_on,58,0,0,,10,,,69,127
21033,note_off,58,0,0,,12,,,71,127
21089,note_off,56,0,0,,4,,,52,127
21090,note_on,1,0,0,,4,,,40,127
21090,note_on,0,0,0,,12,,,71,127
21148,note_off,58,0,0,,10,,,69,127
21206,note_on,58,0,0,,8,,,68,127
21264,note_off,58,0,0,,12,,,71,127
21320,note_off,56,0,0,,4,,,40,127
21321,note_off,1,0,0,,8,,,68,127
21321,note_on,0,0,0,,10,,,45,127
21321,note_on,0,0,0,,10,,,69,127
21550,note_off,229,0,0,,10,,,69,127
21551,note_on,1,0,0,,4,,,64,127
21780,note_off,229,0,0,,4,,,64,127
21781,note_on,1,0,0,,0,,,60,127
22010,note_off,229,0,0,,0,,,60,127
22011,note_on,1,0,0,,10,,,57,127
22240,note_off,229,0,0,,10,,,57,127
22240,note_off,0,0,0,,10,,,45,127
22241,note_on,1,0,0,,10,,,57,127
22241,note_on,0,0,0,,10,,,69,127
22356,note_on,115,0,0,,4,,,64,127
22373,note_off,17,0,0,,10,,,57,127
22471,note_on,98,0,0,,0,,,60,127
22488,note_off,17,0,0,,4,,,64,127
22586,note_on,98,0,0,,4,,,64,127
22603,note_off,17,0,0,,0,,,60,127
22701,note_on,98,0,0,,10,,,57,127
22718,note_off,17,0,0,,4,,,64,127
22816,note_on,98,0,0,,4,,,64,127
22833,note_off,17,0,0,,10,,,57,127
22930,note_off,97,0,0,,10,,,69,127
22931,note_on,1,0,0,,0,,,60,127
22931,note_on,0,0,0,,10,,,69,127
22948,note_off,17,0,0,,4,,,64,127
23046,note_on,98,0,0,,4,,,64,127
23063,note_off,17,0,0,,0,,,60,127
23160,note_off,97,0,0,,10,,,69,127
23161,note_on,1,0,0,,8,,,56,127
23161,note_on,0,0,0,,12,,,71,127
23178,note_off,17,0,0,,4,,,64,127
23276,note_on,98,0,0,,4,,,64,127
23293,note_off,17,0,0,,8,,,56,127
23391,note_on,98,0,0,,6,,,54,127
23408,note_off,17,0,0,,4,,,64,127
23506,note_on,98,0,0,,4,,,64,127
23523,note_off,17,0,0,,6,,,54,127
23621,note_on,98,0,0,,8,,,56,127
23638,note_off,17,0,0,,4,,,64,127
23736,note_on,98,0,0,,4,,,64,127
23753,note_off,17,0,0,,8,,,56,127
23850,note_off,97,0,0,,12,,,71,127
23851,note_on,1,0,0,,4,,,52,127
23851,note_on,0,0,0,,12,,,71,127
23868,note_off,17,0,0,,4,,,64,127
23966,note_on,98,0,0,,4,,,64,127
23983,note_off,17,0,0,,4,,,52,127
24080,note_off,97,0,0,,12,,,71,127
24081,note_on,1,0,0,,10,,,57,127
24081,note_on,0,0,0,,0,,,72,127
24098,note_off,17,0,0,,4,,,64,127
24196,note_on,98,0,0,,4,,,64,127
24213,note_off,17,0,0,,10,,,57,127
24310,note_off,97,0,0,,0,,,72,127
24311,note_on,1,0,0,,0,,,60,127
24311,note_on,0,0,0,,10,,,69,127
24328,note_off,17,0,0,,4,,,64,127
24426,note_on,98,0,0,,4,,,64,127
24443,note_off,17,0,0,,0,,,60,127
24540,note_off,97,0,0,,10,,,69,127
24541,note_on,1,0,0,,12,,,59,127
24541,note_on,0,0,0,,2,,,74,127
24558,note_off,17,0,0,,4,,,64,127
24656,note_on,98,0,0,,4,,,64,127
24673,note_off,17,0,0,,12,,,59,127
24770,note_off,97,0,0,,2,,,74,127
24771,note_on,1,0,0,,8,,,56,127
24771,note_on,0,0,0,,12,,,71,127
24788,note_off,17,0,0,,4,,,64,127
24886,note_on,98,0,0,,4,,,64,127
24903,note_off,17,0,0,,8,,,56,127
25000,note_off,97,0,0,,12,,,71,127
25001,note_on,1,0,0,,10,,,57,127
25001,note_on,0,0,0,,0,,,72,127
25018,note_off,17,0,0,,4,,,64,127
25116,note_on,98,0,0,,4,,,64,127
25133,note_off,17,0,0,,10,,,57,127
25230,note_off,97,0,0,,0,,,72,127
25231,note_on,1,0,0,,6,,,54,127
25231,note_on,0,0,0,,2,,,74,127
25248,note_off,17,0,0,,4,,,64,127
25346,note_on,98,0,0,,4,,,64,127
25363,note_off,17,0,0,,6,,,54,127
25460,note_off,97,0,0,,2,,,74,127
25461,note_on,1,0,0,,8,,,56,127
25461,note_on,0,0,0,,4,,,76,127
25478,note_off,17,0,0,,4,,,64,127
25576,note_on,98,0,0,,4,,,64,127
25593,note_off,17,0,0,,8,,,56,127
25690,note_off,97,0,0,,4,,,76,127
25691,note_on,1,0,0,,4,,,52,127
25691,note_on,0,0,0,,2,,,74,127
25708,note_off,17,0,0,,4,,,64,127
25806,note_on,98,0,0,,4,,,64,127
25823,note_off,17,0,0,,4,,,52,127
25920,note_off,97,0,0,,2,,,74,127
25921,note_on,1,0,0,,0,,,60,127
25921,note_on,0,0,0,,10,,,57,127
25921,note_on,0,0,0,,2,,,74,127
25938,note_off,17,0,0,,4,,,64,127
26035,note_off,97,0,0,,2,,,74,127
26036,note_on,1,0,0,,0,,,72,127
26150,note_off,114,0,0,,0,,,72,127
26151,note_on,1,0,0,,12,,,71,127
26265,note_off,114,0,0,,12,,,71,127
26266,note_on,1,0,0,,0,,,72,127
26380,note_off,114,0,0,,0,,,72,127
26380,note_off,0,0,0,,10,,,57,127
26380,note_off,0,0,0,,0,,,60,127
26381,note_on,1,0,0,,2,,,50,127
26381,note_on,0,0,0,,2,,,62,127
26381,note_on,0,0,0,,2,,,74,127
26495,note_off,114,0,0,,2,,,74,127
26496,note_on,1,0,0,,0,,,72,127
26610,note_off,114,0,0,,0,,,72,127
26611,note_on,1,0,0,,12,,,71,127
26725,note_off,114,0,0,,12,,,71,127
26726,note_on,1,0,0,,10,,,69,127
26840,note_off,114,0,0,,10,,,69,127
26840,note_off,0,0,0,,2,,,62,127
26840,note_off,0,0,0,,2,,,50,127
26841,note_on,1,0,0,,4,,,52,127
26841,note_on,0,0,0,,4,,,64,127
26841,note_on,0,0,0,,8,,,68,127
27070,note_off,229,0,0,,8,,,68,127
27071,note_on,1,0,0,,12,,,71,127
27300,note_off,229,0,0,,12,,,71,127
27300,note_off,0,0,0,,4,,,64,127
27300,note_off,0,0,0,,4,,,52,127
27301,note_on,1,0,0,,4,,,52,127
27301,note_on,0,0,0,,4,,,64,127
27415,note_off,114,0,0,,4,,,52,127
27416,note_on,1,0,0,,2,,,62,127
27530,note_off,114,0,0,,2,,,62,127
27531,note_on,1,0,0,,0,,,60,127
27645,note_off,114,0,0,,0,,,60,127
27646,note_on,1,0,0,,12,,,59,127
27760,note_off,114,0,0,,12,,,59,127
27760,note_off,0,0,0,,4,,,64,127
27761,note_on,1,0,0,,10,,,57,127
27761,note_on,0,0,0,,10,,,69,127
27876,note_on,115,0,0,,4,,,64,127
27893,note_off,17,0,0,,10,,,57,127
27991,note_on,98,0,0,,0,,,60,127
28008,note_off,17,0,0,,4,,,64,127
28106,note_on,98,0,0,,4,,,64,127
28123,note_off,17,0,0,,0,,,60,127
28221,note_on,98,0,0,,10,,,57,127
28238,note_off,17,0,0,,4,,,64,127
28336,note_on,98,0,0,,4,,,64,127
28353,note_off,17,0,0,,10,,,57,127
28450,note_off,97,0,0,,10,,,69,127
28451,note_on,1,0,0,,0,,,60,127
28451,note_on,0,0,0,,10,,,69,127
28468,note_off,17,0,0,,4,,,64,127
28566,note_on,98,0,0,,4,,,64,127
28583,note_off,17,0,0,,0,,,60,127
28680,note_off,97,0,0,,10,,,69,127
28681,note_on,1,0,0,,8,,,56,127
28681,note_on,0,0,0,,12,,,71,127
28698,note_off,17,0,0,,4,,,64,127
28796,note_on,98,0,0,,4,,,64,127
28813,note_off,17,0,0,,8,,,56,127
28911,note_on,98,0,0,,6,,,54,127
28928,note_off,17,0,0,,4,,,64,127
29026,note_on,98,0,0,,4,,,64,127
29043,note_off,17,0,0,,6,,,54,127
29141,note_on,98,0,0,,8,,,56,127
29158,note_off,17,0,0,,4,,,64,127
29256,note_on,98,0,0,,4,,,64,127
29273,note_off,17,0,0,,8,,,56,127
29370,note_off,97,0,0,,12,,,71,127
29371,note_on,1,0,0,,4,,,52,127
29371,note_on,0,0,0,,12,,,71,127
29388,note_off,17,0,0,,4,,,64,127
29486,note_on,98,0,0,,4,,,64,127
29503,note_off,17,0,0,,4,,,52,127
29600,note_off,97,0,0,,12,,,71,127
29601,note_on,1,0,0,,10,,,57,127
29601,note_on,0,0,0,,0,,,72,127
29618,note_off,17,0,0,,4,,,64,127
29716,note_on,98,0,0,,4,,,64,127
29733,note_off,17,0,0,,10,,,57,127
29830,note_off,97,0,0,,0,,,72,127
29831,note_on,1,0,0,,0,,,60,127
29831,note_on,0,0,0,,10,,,69,127
29848,note_off,17,0,0,,4,,,64,127
29946,note_on,98,0,0,,4,,,64,127
29963,note_off,17,0,0,,0,,,60,127
30060,note_off,97,0,0,,10,,,69,127
30061,note_on,1,0,0,,12,,,59,127
30061,note_on,0,0,0,,2,,,74,127
30078,note_off,17,0,0,,4,,,64,127
30176,note_on,98,0,0,,4,,,64,127
30193,note_off,17,0,0,,12,,,59,127
30290,note_off,97,0,0,,2,,,74,127
30291,note_on,1,0,0,,8,,,56,127
30291,note_on,0,0,0,,12,,,71,127
30308,note_off,17,0,0,,4,,,64,127
30406,note_on,98,0,0,,4,,,64,127
30423,note_off,17,0,0,,8,,,56,127
30520,note_off,97,0,0,,12,,,71,127
30521,note_on,1,0,0,,10,,,57,127
30521,note_on,0,0,0,,0,,,72,127
30538,note_off,17,0,0,,4,,,64,127
30636,note_on,98,0,0,,4,,,64,127
30653,note_off,17,0,0,,10,,,57,127
30750,note_off,97,0,0,,0,,,72,127
30751,note_on,1,0,0,,6,,,54,127
30751,note_on,0,0,0,,2,,,74,127
30768,note_off,17,0,0,,4,,,64,127
30866,note_on,98,0,0,,4,,,64,127
30883,note_off,17,0,0,,6,,,54,127
30980,note_off,97,0,0,,2,,,74,127
30981,note_on,1,0,0,,8,,,56,127
30981,note_on,0,0,0,,4,,,76,127
30998,note_off,17,0,0,,4,,,64,127
31096,note_on,98,0,0,,4,,,64,127
31113,note_off,17,0,0,,8,,,56,127
31210,note_off,97,0,0,,4,,,76,127
31211,note_on,1,0,0,,4,,,52,127
31211,note_on,0,0,0,,2,,,74,127
31228,note_off,17,0,0,,4,,,64,127
31326,note_on,98,0,0,,4,,,64,127
31343,note_off,17,0,0,,4,,,52,127
31440,note_off,97,0,0,,2,,,74,127
31441,note_on,1,0,0,,10,,,57,127
31441,note_on,0,0,0,,0,,,72,127
31458,note_off,17,0,0,,4,,,64,127
31555,note_off,97,0,0,,0,,,72,127
31556,note_on,1,0,0,,12,,,71,127
31670,note_off,114,0,0,,12,,,71,127
31671,note_on,1,0,0,,10,,,45,127
31671,note_on,0,0,0,,0,,,72,127
31785,note_off,114,0,0,,0,,,72,127
31786,note_on,1,0,0,,10,,,69,127
31896,note_off,110,0,0,,10,,,57,127
31900,note_off,4,0,0,,10,,,69,127
31900,note_off,0,0,0,,10,,,45,127
31901,note_on,1,0,0,,4,,,52,127
31901,note_on,0,0,0,,12,,,71,127
32015,note_off,114,0,0,,12,,,71,127
32016,note_on,1,0,0,,10,,,69,127
32130,note_off,114,0,0,,10,,,69,127
32131,note_on,1,0,0,,4,,,40,127
32131,note_on,0,0,0,,12,,,71,127
32245,note_off,114,0,0,,12,,,71,127
32246,note_on,1,0,0,,8,,,68,127
32356,note_off,110,0,0,,4,,,52,127
32360,note_off,4,0,0,,8,,,68,127
32360,note_off,0,0,0,,4,,,40,127
32361,note_on,1,0,0,,10,,,45,127
32361,note_on,0,0,0,,10,,,69,127
32590,note_off,229,0,0,,10,,,45,127
32591,note_on,1,0,0,,0,,,48,127
32820,note_off,229,0,0,,0,,,48,127
32821,note_on,1,0,0,,4,,,52,127
33050,note_off,229,0,0,,4,,,52,127
33051,note_on,1,0,0,,10,,,57,127
33280,note_off,229,0,0,,10,,,57,127
33280,note_off,0,0,0,,10,,,69,127
33281,note_on,1,0,0,,4,,,52,127
33281,note_on,0,0,0,,10,,,45,127
33281,note_on,0,0,0,,4,,,76,127
33510,note_off,229,0,0,,4,,,76,127
33511,note_on,1,0,0,,10,,,81,127
33740,note_off,229,0,0,,10,,,45,127
33740,note_off,0,0,0,,4,,,52,127
33741,note_on,1,0,0,,10,,,45,127
33741,note_on,0,0,0,,10,,,57,127
33855,note_off,114,0,0,,10,,,81,127
33856,note_on,1,0,0,,0,,,72,127
33970,note_off,114,0,0,,0,,,72,127
33971,note_on,1,0,0,,12,,,71,127
34085,note_off,114,0,0,,12,,,71,127
34086,note_on,1,0,0,,10,,,69,127
34200,note_off,114,0,0,,10,,,69,127
34200,note_off,0,0,0,,10,,,57,127
34200,note_off,0,0,0,,10,,,45,127
34201,note_on,1,0,0,,12,,,59,127
34201,note_on,0,0,0,,8,,,56,127
34201,note_on,0,0,0,,12,,,71,127
34316,note_on,115,0,0,,8,,,80,127
34374,note_off,58,0,0,,12,,,71,127
34430,note_off,56,0,0,,8,,,80,127
34431,note_on,1,0,0,,12,,,83,127
34660,note_off,229,0,0,,8,,,56,127
34660,note_off,0,0,0,,12,,,59,127
34661,note_on,1,0,0,,8,,,56,127
34661,note_on,0,0,0,,4,,,52,127
34661,note_on,0,0,0,,12,,,59,127
34775,note_off,114,0,0,,12,,,83,127
34776,note_on,1,0,0,,2,,,74,127
34890,note_off,114,0,0,,2,,,74,127
34891,note_on,1,0,0,,0,,,72,127
35005,note_off,114,0,0,,0,,,72,127
35006,note_on,1,0,0,,12,,,71,127
35120,note_off,114,0,0,,12,,,71,127
35120,note_off,0,0,0,,12,,,59,127
35120,note_off,0,0,0,,4,,,52,127
35120,note_off,0,0,0,,8,,,56,127
35121,note_on,1,0,0,,10,,,45,127
35121,note_on,0,0,0,,10,,,57,127
35121,note_on,0,0,0,,4,,,52,127
35121,note_on,0,0,0,,0,,,72,127
35236,note_on,115,0,0,,4,,,76,127
35294,note_off,58,0,0,,0,,,72,127
35350,note_off,56,0,0,,4,,,76,127
35351,note_on,1,0,0,,10,,,81,127
35465,note_off,114,0,0,,10,,,81,127
35466,note_on,1,0,0,,10,,,69,127
35580,note_off,114,0,0,,10,,,69,127
35580,note_off,0,0,0,,4,,,52,127
35580,note_off,0,0,0,,10,,,57,127
35580,note_off,0,0,0,,10,,,45,127
35581,note_on,1,0,0,,12,,,47,127
35581,note_on,0,0,0,,8,,,56,127
35581,note_on,0,0,0,,2,,,50,127
35581,note_on,0,0,0,,2,,,74,127
35696,note_on,115,0,0,,8,,,80,127
35754,note_off,58,0,0,,2,,,74,127
35810,note_off,56,0,0,,8,,,80,127
35811,note_on,1,0,0,,12,,,83,127
35925,note_off,114,0,0,,12,,,83,127
35926,note_on,1,0,0,,12,,,71,127
36040,note_off,114,0,0,,12,,,71,127
36040,note_off,0,0,0,,2,,,50,127
36040,note_off,0,0,0,,8,,,56,127
36040,note_off,0,0,0,,12,,,47,127
36041,note_on,1,0,0,,10,,,57,127
36041,note_on,0,0,0,,4,,,52,127
36041,note_on,0,0,0,,0,,,48,127
36041,note_on,0,0,0,,4,,,76,127
36156,note_on,115,0,0,,10,,,81,127
36214,note_off,58,0,0,,4,,,76,127
36270,note_off,56,0,0,,10,,,81,127
36270,note_off,0,0,0,,0,,,48,127
36270,note_off,0,0,0,,4,,,52,127
36271,note_on,1,0,0,,10,,,45,127
36271,note_on,0,0,0,,4,,,76,127
36385,note_off,114,0,0,,4,,,76,127
36386,note_on,1,0,0,,0,,,72,127
36500,note_off,114,0,0,,0,,,72,127
36500,note_off,0,0,0,,10,,,45,127
36500,note_off,0,0,0,,10,,,57,127
36501,note_on,1,0,0,,12,,,47,127
36501,note_on,0,0,0,,2,,,74,127
36616,note_on,115,0,0,,12,,,83,127
36674,note_off,58,0,0,,2,,,74,127
36730,note_off,56,0,0,,12,,,83,127
36731,note_on,1,0,0,,8,,,44,127
36731,note_on,0,0,0,,5,,,77,127
36845,note_off,114,0,0,,5,,,77,127
36846,note_off,1,0,0,,12,,,47,127
36846,note_on,0,0,0,,2,,,74,127
36960,note_off,114,0,0,,2,,,74,127
36960,note_off,0,0,0,,8,,,44,127
36961,note_on,1,0,0,,10,,,45,127
36961,note_on,0,0,0,,4,,,52,127
36961,note_on,0,0,0,,10,,,57,127
36961,note_on,0,0,0,,2,,,74,127
37075,note_off,114,0,0,,2,,,74,127
37076,note_on,1,0,0,,0,,,72,127
37190,note_off,114,0,0,,0,,,72,127
37191,note_on,1,0,0,,12,,,71,127
37305,note_off,114,0,0,,12,,,71,127
37306,note_on,1,0,0,,0,,,72,127
37420,note_off,114,0,0,,0,,,72,127
37420,note_off,0,0,0,,10,,,57,127
37420,note_off,0,0,0,,4,,,52,127
37420,note_off,0,0,0,,10,,,45,127
37421,note_on,1,0,0,,2,,,50,127
37421,note_on,0,0,0,,10,,,57,127
37421,note_on,0,0,0,,2,,,74,127
37535,note_off,114,0,0,,2,,,74,127
37536,note_on,1,0,0,,0,,,72,127
37650,note_off,114,0,0,,0,,,72,127
37651,note_on,1,0,0,,12,,,71,127
37765,note_off,114,0,0,,12,,,71,127
37766,note_on,1,0,0,,10,,,69,127
37880,note_off,114,0,0,,10,,,69,127
37880,note_off,0,0,0,,10,,,57,127
37880,note_off,0,0,0,,2,,,50,127
37881,note_on,1,0,0,,4,,,52,127
37881,note_on,0,0,0,,8,,,56,127
37881,note_on,0,0,0,,12,,,59,127
37881,note_on,0,0,0,,4,,,64,127
37881,note_on,0,0,0,,8,,,68,127
37995,note_off,114,0,0,,8,,,68,127
37996,note_on,1,0,0,,10,,,69,127
38110,note_off,114,0,0,,10,,,69,127
38111,note_on,1,0,0,,12,,,71,127
38225,note_off,114,0,0,,12,,,71,127
38226,note_on,1,0,0,,8,,,68,127
38336,note_off,110,0,0,,4,,,64,127
38340,note_off,4,0,0,,8,,,68,127
38341,note_on,1,0,0,,4,,,64,127
38455,note_off,114,0,0,,12,,,59,127
38455,note_off,0,0,0,,8,,,56,127
38456,note_on,1,0,0,,2,,,62,127
38570,note_off,114,0,0,,2,,,62,127
38570,note_off,0,0,0,,4,,,52,127
38571,note_on,1,0,0,,0,,,60,127
38685,note_off,114,0,0,,0,,,60,127
38686,note_on,1,0,0,,12,,,59,127
38800,note_off,114,0,0,,12,,,59,127
38800,note_off,0,0,0,,4,,,64,127
38801,note_on,1,0,0,,0,,,60,127
38801,note_on,0,0,0,,4,,,64,127
38801,note_on,0,0,0,,4,,,76,127
39030,note_off,229,0,0,,4,,,76,127
39031,note_on,1,0,0,,10,,,81,127
39260,note_off,229,0,0,,4,,,64,127
39260,note_off,0,0,0,,0,,,60,127
39261,note_on,1,0,0,,0,,,60,127
39261,note_on,0,0,0,,10,,,57,127
39261,note_on,0,0,0,,4,,,64,127
39375,note_off,114,0,0,,10,,,81,127
39376,note_on,1,0,0,,0,,,72,127
39490,note_off,114,0,0,,0,,,72,127
39491,note_on,1,0,0,,12,,,71,127
39605,note_off,114,0,0,,12,,,71,127
39606,note_on,1,0,0,,10,,,69,127
39720,note_off,114,0,0,,10,,,69,127
39720,note_off,0,0,0,,4,,,64,127
39720,note_off,0,0,0,,10,,,57,127
39720,note_off,0,0,0,,0,,,60,127
39721,note_on,1,0,0,,2,,,62,127
39721,note_on,0,0,0,,12,,,59,127
39721,note_on,0,0,0,,10,,,57,127
39721,note_on,0,0,0,,12,,,71,127
39836,note_on,115,0,0,,8,,,80,127
39894,note_off,58,0,0,,12,,,71,127
39950,note_off,56,0,0,,8,,,80,127
39951,note_on,1,0,0,,12,,,83,127
40180,note_off,229,0,0,,10,,,57,127
40180,note_off,0,0,0,,12,,,59,127
40180,note_off,0,0,0,,2,,,62,127
40181,note_on,1,0,0,,8,,,56,127
40181,note_on,0,0,0,,12,,,59,127
40181,note_on,0,0,0,,2,,,62,127
40295,note_off,114,0,0,,12,,,83,127
40296,note_on,1,0,0,,2,,,74,127
40410,note_off,114,0,0,,2,,,74,127
40411,note_on,1,0,0,,0,,,72,127
40525,note_off,114,0,0,,0,,,72,127
40526,note_on,1,0,0,,12,,,71,127
40640,note_off,114,0,0,,12,,,71,127
40640,note_off,0,0,0,,2,,,62,127
40640,note_off,0,0,0,,12,,,59,127
40640,note_off,0,0,0,,8,,,56,127
40641,note_on,1,0,0,,0,,,60,127
40641,note_on,0,0,0,,10,,,57,127
40641,note_on,0,0,0,,4,,,64,127
40641,note_on,0,0,0,,0,,,72,127
40756,note_on,115,0,0,,4,,,76,127
40814,note_off,58,0,0,,0,,,72,127
40870,note_off,56,0,0,,4,,,76,127
40871,note_on,1,0,0,,10,,,81,127
40985,note_off,114,0,0,,10,,,81,127
40986,note_on,1,0,0,,10,,,69,127
41100,note_off,114,0,0,,10,,,69,127
41100,note_off,0,0,0,,4,,,64,127
41100,note_off,0,0,0,,10,,,57,127
41100,note_off,0,0,0,,0,,,60,127
41101,note_on,1,0,0,,2,,,62,127
41101,note_on,0,0,0,,12,,,59,127
41101,note_on,0,0,0,,2,,,74,127
41216,note_on,115,0,0,,8,,,80,127
41274,note_off,58,0,0,,2,,,74,127
41330,note_off,56,0,0,,8,,,80,127
41331,note_on,1,0,0,,12,,,83,127
41445,note_off,114,0,0,,12,,,83,127
41446,note_on,1,0,0,,12,,,71,127
41560,note_off,114,0,0,,12,,,71,127
41560,note_off,0,0,0,,12,,,59,127
41560,note_off,0,0,0,,2,,,62,127
41561,note_on,1,0,0,,0,,,60,127
41561,note_on,0,0,0,,4,,,64,127
41561,note_on,0,0,0,,4,,,76,127
41676,note_on,115,0,0,,10,,,81,127
41734,note_off,58,0,0,,4,,,76,127
41790,note_off,56,0,0,,10,,,81,127
41790,note_off,0,0,0,,0,,,60,127
41791,note_on,1,0,0,,10,,,57,127
41791,note_on,0,0,0,,4,,,76,127
41905,note_off,114,0,0,,4,,,76,127
41906,note_off,1,0,0,,4,,,64,127
41906,note_on,0,0,0,,0,,,72,127
42020,note_off,114,0,0,,0,,,72,127
42020,note_off,0,0,0,,10,,,57,127
42021,note_on,1,0,0,,12,,,59,127
42021,note_on,0,0,0,,2,,,62,127
42021,note_on,0,0,0,,2,,,74,127
42136,note_on,115,0,0,,12,,,83,127
42194,note_off,58,0,0,,2,,,74,127
42250,note_off,56,0,0,,12,,,83,127
42250,note_off,0,0,0,,12,,,59,127
42251,note_on,1,0,0,,8,,,56,127
42251,note_on,0,0,0,,5,,,77,127
42365,note_off,114,0,0,,5,,,77,127
42366,note_off,1,0,0,,2,,,62,127
42366,note_on,0,0,0,,2,,,74,127
42480,note_off,114,0,0,,2,,,74,127
42480,note_off,0,0,0,,8,,,56,127
42481,note_on,1,0,0,,10,,,57,127
42481,note_on,0,0,0,,0,,,72,127
42596,note_on,115,0,0,,12,,,71,127
42654,note_off,58,0,0,,0,,,72,127
42710,note_off,56,0,0,,12,,,71,127
42711,note_on,1,0,0,,10,,,45,127
42711,note_on,0,0,0,,0,,,72,127
42825,note_off,114,0,0,,0,,,72,127
42826,note_off,1,0,0,,10,,,57,127
42826,note_on,0,0,0,,10,,,69,127
42940,note_off,114,0,0,,10,,,69,127
42940,note_off,0,0,0,,10,,,45,127
42941,note_on,1,0,0,,4,,,52,127
42941,note_on,0,0,0,,12,,,71,127
43056,note_on,115,0,0,,10,,,69,127
43114,note_off,58,0,0,,12,,,71,127
43170,note_off,56,0,0,,10,,,69,127
43171,note_on,1,0,0,,4,,,40,127
43171,note_on,0,0,0,,12,,,71,127
43285,note_off,114,0,0,,12,,,71,127
43286,note_off,1,0,0,,4,,,52,127
43286,note_on,0,0,0,,8,,,68,127
43400,note_off,114,0,0,,8,,,68,127
43400,note_off,0,0,0,,4,,,40,127
43401,note_on,1,0,0,,10,,,45,127
43401,note_on,0,0,0,,10,,,69,127
43630,note_off,229,0,0,,10,,,69,127
43631,note_on,1,0,0,,0,,,72,127
43860,note_off,229,0,0,,0,,,72,127
43861,note_on,1,0,0,,4,,,76,127
44090,note_off,229,0,0,,4,,,76,127
44091,note_on,1,0,0,,10,,,81,127
44320,note_off,229,0,0,,10,,,81,127
44320,note_off,0,0,0,,10,,,45,127
44321,note_on,1,0,0,,10,,,45,127
44321,note_on,0,0,0,,10,,,57,127
44321,note_on,0,0,0,,4,,,52,127
44321,note_on,0,0,0,,10,,,69,127
44436,note_on,115,0,0,,4,,,76,127
44550,note_off,114,0,0,,4,,,76,127
44551,note_on,1,0,0,,2,,,74,127
44665,note_off,114,0,0,,2,,,74,127
44666,note_on,1,0,0,,4,,,76,127
44780,note_off,114,0,0,,4,,,76,127
44780,note_off,0,0,0,,10,,,69,127
44780,note_off,0,0,0,,4,,,52,127
44780,note_off,0,0,0,,10,,,57,127
44780,note_off,0,0,0,,10,,,45,127
44781,note_on,1,0,0,,4,,,52,127
44781,note_on,0,0,0,,10,,,45,127
44781,note_on,0,0,0,,10,,,57,127
44781,note_on,0,0,0,,0,,,72,127
44896,note_on,115,0,0,,4,,,76,127
45010,note_off,114,0,0,,4,,,76,127
45011,note_on,1,0,0,,2,,,74,127
45125,note_off,114,0,0,,2,,,74,127
45126,note_on,1,0,0,,4,,,76,127
45240,note_off,114,0,0,,4,,,76,127
45240,note_off,0,0,0,,0,,,72,127
45240,note_off,0,0,0,,10,,,57,127
45240,note_off,0,0,0,,10,,,45,127
45240,note_off,0,0,0,,4,,,52,127
45241,note_on,1,0,0,,8,,,56,127
45241,note_on,0,0,0,,4,,,52,127
45241,note_on,0,0,0,,12,,,59,127
45241,note_on,0,0,0,,12,,,71,127
45356,note_on,115,0,0,,4,,,76,127
45470,note_off,114,0,0,,4,,,76,127
45471,note_on,1,0,0,,2,,,74,127
45585,note_off,114,0,0,,2,,,74,127
45586,note_on,1,0,0,,4,,,76,127
45700,note_off,114,0,0,,4,,,76,127
45700,note_off,0,0,0,,12,,,71,127
45700,note_off,0,0,0,,12,,,59,127
45700,note_off,0,0,0,,4,,,52,127
45700,note_off,0,0,0,,8,,,56,127
45701,note_on,1,0,0,,4,,,52,127
45701,note_on,0,0,0,,8,,,56,127
45701,note_on,0,0,0,,12,,,59,127
45701,note_on,0,0,0,,12,,,71,127
45816,note_on,115,0,0,,4,,,76,127
45930,note_off,114,0,0,,4,,,76,127
45931,note_on,1,0,0,,2,,,74,127
46045,note_off,114,0,0,,2,,,74,127
46046,note_on,1,0,0,,4,,,76,127
46160,note_off,114,0,0,,4,,,76,127
46160,note_off,0,0,0,,12,,,71,127
46160,note_off,0,0,0,,12,,,59,127
46160,note_off,0,0,0,,8,,,56,127
46160,note_off,0,0,0,,4,,,52,127
46161,note_on,1,0,0,,10,,,57,127
46161,note_on,0,0,0,,4,,,52,127
46161,note_on,0,0,0,,10,,,45,127
46161,note_on,0,0,0,,0,,,72,127
46276,note_on,115,0,0,,10,,,81,127
46390,note_off,114,0,0,,10,,,81,127
46391,note_on,1,0,0,,8,,,80,127
46505,note_off,114,0,0,,8,,,80,127
46506,note_on,1,0,0,,10,,,81,127
46620,note_off,114,0,0,,10,,,81,127
46620,note_off,0,0,0,,0,,,72,127
46620,note_off,0,0,0,,10,,,45,127
46620,note_off,0,0,0,,4,,,52,127
46620,note_off,0,0,0,,10,,,57,127
46621,note_on,1,0,0,,2,,,50,127
46621,note_on,0,0,0,,12,,,47,127
46621,note_on,0,0,0,,8,,,56,127
46621,note_on,0,0,0,,2,,,74,127
46736,note_on,115,0,0,,10,,,81,127
46850,note_off,114,0,0,,10,,,81,127
46851,note_on,1,0,0,,8,,,80,127
46965,note_off,114,0,0,,8,,,80,127
46966,note_on,1,0,0,,10,,,81,127
47080,note_off,114,0,0,,10,,,81,127
47080,note_off,0,0,0,,2,,,74,127
47080,note_off,0,0,0,,8,,,56,127
47080,note_off,0,0,0,,12,,,47,127
47080,note_off,0,0,0,,2,,,50,127
47081,note_on,1,0,0,,0,,,48,127
47081,note_on,0,0,0,,10,,,57,127
47081,note_on,0,0,0,,4,,,52,127
47081,note_on,0,0,0,,4,,,76,127
47196,note_on,115,0,0,,10,,,81,127
47310,note_off,114,0,0,,10,,,81,127
47311,note_on,1,0,0,,8,,,80,127
47425,note_off,114,0,0,,8,,,80,127
47426,note_on,1,0,0,,10,,,81,127
47540,note_off,114,0,0,,10,,,81,127
47540,note_off,0,0,0,,4,,,76,127
47540,note_off,0,0,0,,4,,,52,127
47540,note_off,0,0,0,,10,,,57,127
47540,note_off,0,0,0,,0,,,48,127
47541,note_on,1,0,0,,12,,,59,127
47541,note_on,0,0,0,,8,,,56,127
47541,note_on,0,0,0,,12,,,47,127
47541,note_on,0,0,0,,2,,,50,127
47541,note_on,0,0,0,,2,,,74,127
47656,note_on,115,0,0,,10,,,81,127
47770,note_off,114,0,0,,10,,,81,127
47771,note_on,1,0,0,,8,,,80,127
47885,note_off,114,0,0,,8,,,80,127
47886,note_on,1,0,0,,10,,,81,127
48000,note_off,114,0,0,,10,,,81,127
48000,note_off,0,0,0,,2,,,74,127
48000,note_off,0,0,0,,2,,,50,127
48000,note_off,0,0,0,,12,,,47,127
48000,note_off,0,0,0,,8,,,56,127
48000,note_off,0,0,0,,12,,,59,127
48001,note_on,1,0,0,,10,,,45,127
48001,note_on,0,0,0,,4,,,52,127
48001,note_on,0,0,0,,10,,,57,127
48001,note_on,0,0,0,,2,,,74,127
48116,note_on,115,0,0,,0,,,72,127
48230,note_off,114,0,0,,0,,,72,127
48230,note_off,0,0,0,,2,,,74,127
48231,note_on,1,0,0,,12,,,71,127
48345,note_off,114,0,0,,12,,,71,127
48346,note_on,1,0,0,,0,,,72,127
48460,note_off,114,0,0,,0,,,72,127
48460,note_off,0,0,0,,10,,,57,127
48460,note_off,0,0,0,,4,,,52,127
48460,note_off,0,0,0,,10,,,45,127
48461,note_on,1,0,0,,2,,,50,127
48461,note_on,0,0,0,,10,,,57,127
48461,note_on,0,0,0,,5,,,53,127
48461,note_on,0,0,0,,2,,,74,127
48575,note_off,114,0,0,,2,,,74,127
48576,note_on,1,0,0,,0,,,72,127
48690,note_off,114,0,0,,0,,,72,127
48691,note_on,1,0,0,,12,,,71,127
48805,note_off,114,0,0,,12,,,71,127
48806,note_on,1,0,0,,10,,,69,127
48920,note_off,114,0,0,,10,,,69,127
48920,note_off,0,0,0,,5,,,53,127
48920,note_off,0,0,0,,10,,,57,127
48920,note_off,0,0,0,,2,,,50,127
48921,note_on,1,0,0,,4,,,52,127
48921,note_on,0,0,0,,12,,,59,127
48921,note_on,0,0,0,,8,,,68,127
49036,note_on,115,0,0,,12,,,71,127
49150,note_off,114,0,0,,12,,,71,127
49150,note_off,0,0,0,,8,,,68,127
49151,note_on,1,0,0,,10,,,69,127
49265,note_off,114,0,0,,10,,,69,127
49266,note_on,1,0,0,,12,,,71,127
49380,note_off,114,0,0,,12,,,71,127
49381,note_on,1,0,0,,4,,,64,127
49495,note_off,114,0,0,,12,,,59,127
49495,note_off,0,0,0,,4,,,52,127
49496,note_on,1,0,0,,2,,,62,127
49610,note_off,114,0,0,,2,,,62,127
49611,note_on,1,0,0,,0,,,60,127
49725,note_off,114,0,0,,0,,,60,127
49726,note_on,1,0,0,,12,,,59,127
49840,note_off,114,0,0,,12,,,59,127
49840,note_off,0,0,0,,4,,,64,127
49841,note_on,1,0,0,,4,,,52,127
49841,note_on,0,0,0,,10,,,45,127
49841,note_on,0,0,0,,10,,,57,127
49841,note_on,0,0,0,,10,,,69,127
49956,note_on,115,0,0,,4,,,76,127
50070,note_off,114,0,0,,4,,,76,127
50071,note_on,1,0,0,,2,,,74,127
50185,note_off,114,0,0,,2,,,74,127
50186,note_on,1,0,0,,4,,,76,127
50300,note_off,114,0,0,,4,,,76,127
50300,note_off,0,0,0,,10,,,69,127
50300,note_off,0,0,0,,10,,,57,127
50300,note_off,0,0,0,,10,,,45,127
50300,note_off,0,0,0,,4,,,52,127
50301,note_on,1,0,0,,10,,,45,127
50301,note_on,0,0,0,,10,,,57,127
50301,note_on,0,0,0,,4,,,52,127
50301,note_on,0,0,0,,0,,,72,127
50416,note_on,115,0,0,,4,,,76,127
50530,note_off,114,0,0,,4,,,76,127
50531,note_on,1,0,0,,2,,,74,127
50645,note_off,114,0,0,,2,,,74,127
50646,note_on,1,0,0,,4,,,76,127
50760,note_off,114,0,0,,4,,,76,127
50760,note_off,0,0,0,,0,,,72,127
50760,note_off,0,0,0,,4,,,52,127
50760,note_off,0,0,0,,10,,,57,127
50760,note_off,0,0,0,,10,,,45,127
50761,note_on,1,0,0,,4,,,52,127
50761,note_on,0,0,0,,12,,,59,127
50761,note_on,0,0,0,,8,,,56,127
50761,note_on,0,0,0,,12,,,71,127
50876,note_on,115,0,0,,4,,,76,127
50990,note_off,114,0,0,,4,,,76,127
50991,note_on,1,0,0,,2,,,74,127
51105,note_off,114,0,0,,2,,,74,127
51106,note_on,1,0,0,,4,,,76,127
51220,note_off,114,0,0,,4,,,76,127
51220,note_off,0,0,0,,12,,,71,127
51220,note_off,0,0,0,,8,,,56,127
51220,note_off,0,0,0,,12,,,59,127
51220,note_off,0,0,0,,4,,,52,127
51221,note_on,1,0,0,,4,,,52,127
51221,note_on,0,0,0,,12,,,59,127
51221,note_on,0,0,0,,8,,,56,127
51221,note_on,0,0,0,,12,,,71,127
51336,note_on,115,0,0,,4,,,76,127
51450,note_off,114,0,0,,4,,,76,127
51451,note_on,1,0,0,,2,,,74,127
51565,note_off,114,0,0,,2,,,74,127
51566,note_on,1,0,0,,4,,,76,127
51680,note_off,114,0,0,,4,,,76,127
51680,note_off,0,0,0,,12,,,71,127
51680,note_off,0,0,0,,8,,,56,127
51680,note_off,0,0,0,,12,,,59,127
51680,note_off,0,0,0,,4,,,52,127
51681,note_on,1,0,0,,10,,,45,127
51681,note_on,0,0,0,,10,,,57,127
51681,note_on,0,0,0,,4,,,52,127
51681,note_on,0,0,0,,0,,,72,127
51796,note_on,115,0,0,,10,,,81,127
51910,note_off,114,0,0,,10,,,81,127
51911,note_on,1,0,0,,8,,,80,127
52025,note_off,114,0,0,,8,,,80,127
52026,note_on,1,0,0,,10,,,81,127
52140,note_off,114,0,0,,10,,,81,127
52140,note_off,0,0,0,,0,,,72,127
52140,note_off,0,0,0,,4,,,52,127
52140,note_off,0,0,0,,10,,,57,127
52140,note_off,0,0,0,,10,,,45,127
52141,note_on,1,0,0,,12,,,47,127
52141,note_on,0,0,0,,8,,,56,127
52141,note_on,0,0,0,,2,,,50,127
52141,note_on,0,0,0,,2,,,74,127
52256,note_on,115,0,0,,10,,,81,127
52370,note_off,114,0,0,,10,,,81,127
52371,note_on,1,0,0,,8,,,80,127
52485,note_off,114,0,0,,8,,,80,127
52486,note_on,1,0,0,,10,,,81,127
52600,note_off,114,0,0,,10,,,81,127
52600,note_off,0,0,0,,2,,,74,127
52600,note_off,0,0,0,,2,,,50,127
52600,note_off,0,0,0,,8,,,56,127
52600,note_off,0,0,0,,12,,,47,127
52601,note_on,1,0,0,,10,,,57,127
52601,note_on,0,0,0,,4,,,52,127
52601,note_on,0,0,0,,0,,,48,127
52601,note_on,0,0,0,,4,,,76,127
52716,note_on,115,0,0,,10,,,81,127
52830,note_off,114,0,0,,10,,,81,127
52831,note_on,1,0,0,,8,,,80,127
52945,note_off,114,0,0,,8,,,80,127
52946,note_on,1,0,0,,10,,,81,127
53060,note_off,114,0,0,,10,,,81,127
53060,note_off,0,0,0,,4,,,76,127
53060,note_off,0,0,0,,0,,,48,127
53060,note_off,0,0,0,,4,,,52,127
53060,note_off,0,0,0,,10,,,57,127
53061,note_on,1,0,0,,12,,,47,127
53061,note_on,0,0,0,,2,,,50,127
53061,note_on,0,0,0,,8,,,56,127
53061,note_on,0,0,0,,12,,,59,127
53061,note_on,0,0,0,,2,,,74,127
53176,note_on,115,0,0,,10,,,81,127
53290,note_off,114,0,0,,10,,,81,127
53291,note_on,1,0,0,,8,,,80,127
53405,note_off,114,0,0,,8,,,80,127
53406,note_on,1,0,0,,10,,,81,127
53520,note_off,114,0,0,,10,,,81,127
53520,note_off,0,0,0,,2,,,74,127
53520,note_off,0,0,0,,12,,,59,127
53520,note_off,0,0,0,,8,,,56,127
53520,note_off,0,0,0,,2,,,50,127
53520,note_off,0,0,0,,12,,,47,127
53521,note_on,1,0,0,,10,,,57,127
53521,note_on,0,0,0,,0,,,72,127
53636,note_on,115,0,0,,12,,,71,127
53750,note_off,114,0,0,,12,,,71,127
53750,note_off,0,0,0,,0,,,72,127
53751,note_on,1,0,0,,10,,,45,127
53751,note_on,0,0,0,,0,,,72,127
53865,note_off,114,0,0,,0,,,72,127
53866,note_on,1,0,0,,10,,,69,127
53980,note_off,114,0,0,,10,,,69,127
53980,note_off,0,0,0,,10,,,45,127
53980,note_off,0,0,0,,10,,,57,127
53981,note_on,1,0,0,,4,,,52,127
53981,note_on,0,0,0,,12,,,71,127
54096,note_on,115,0,0,,10,,,69,127
54210,note_off,114,0,0,,10,,,69,127
54210,note_off,0,0,0,,12,,,71,127
54211,note_on,1,0,0,,4,,,40,127
54211,note_on,0,0,0,,12,,,71,127
54325,note_off,114,0,0,,12,,,71,127
54326,note_on,1,0,0,,8,,,68,127
54440,note_off,114,0,0,,8,,,68,127
54440,note_off,0,0,0,,4,,,40,127
54440,note_off,0,0,0,,4,,,52,127
54441,note_on,1,0,0,,10,,,45,127
54441,note_on,0,0,0,,10,,,69,127
54670,note_off,229,0,0,,10,,,69,127
54671,note_on,1,0,0,,0,,,72,127
54900,note_off,229,0,0,,0,,,72,127
54901,note_on,1,0,0,,4,,,76,127
55130,note_off,229,0,0,,4,,,76,127
55131,note_on,1,0,0,,10,,,81,127
55360,note_off,229,0,0,,10,,,81,127
55360,note_off,0,0,0,,10,,,45,127
55361,note_on,1,0,0,,10,,,45,127
55361,note_on,0,0,0,,4,,,76,127
55361,note_on,0,0,0,,0,,,72,127
55361,note_on,0,0,0,,10,,,69,127
55475,note_off,114,0,0,,10,,,45,127
55476,note_on,1,0,0,,10,,,57,127
55590,note_off,114,0,0,,10,,,57,127
55591,note_on,1,0,0,,8,,,56,127
55705,note_off,114,0,0,,8,,,56,127
55706,note_on,1,0,0,,10,,,57,127
55820,note_off,114,0,0,,10,,,57,127
55821,note_on,1,0,0,,10,,,45,127
55935,note_off,114,0,0,,10,,,45,127
55936,note_on,1,0,0,,10,,,57,127
56050,note_off,114,0,0,,10,,,57,127
56050,note_off,0,0,0,,10,,,69,127
56050,note_off,0,0,0,,0,,,72,127
56050,note_off,0,0,0,,4,,,76,127
56051,note_on,1,0,0,,8,,,56,127
56051,note_on,0,0,0,,10,,,69,127
56051,note_on,0,0,0,,4,,,76,127
56051,note_on,0,0,0,,0,,,72,127
56165,note_off,114,0,0,,8,,,56,127
56166,note_on,1,0,0,,10,,,57,127
56280,note_off,114,0,0,,10,,,57,127
56280,note_off,0,0,0,,0,,,72,127
56280,note_off,0,0,0,,4,,,76,127
56280,note_off,0,0,0,,10,,,69,127
56281,note_on,1,0,0,,12,,,47,127
56281,note_on,0,0,0,,12,,,71,127
56281,note_on,0,0,0,,8,,,68,127
56281,note_on,0,0,0,,2,,,74,127
56395,note_off,114,0,0,,12,,,47,127
56396,note_on,1,0,0,,10,,,57,127
56510,note_off,114,0,0,,10,,,57,127
56511,note_on,1,0,0,,8,,,56,127
56625,note_off,114,0,0,,8,,,56,127
56626,note_on,1,0,0,,10,,,57,127
56740,note_off,114,0,0,,10,,,57,127
56741,note_on,1,0,0,,12,,,47,127
56855,note_off,114,0,0,,12,,,47,127
56856,note_on,1,0,0,,10,,,57,127
56970,note_off,114,0,0,,10,,,57,127
56970,note_off,0,0,0,,2,,,74,127
56970,note_off,0,0,0,,8,,,68,127
56970,note_off,0,0,0,,12,,,71,127
56971,note_on,1,0,0,,8,,,56,127
56971,note_on,0,0,0,,12,,,71,127
56971,note_on,0,0,0,,8,,,68,127
56971,note_on,0,0,0,,2,,,74,127
57085,note_off,114,0,0,,8,,,56,127
57086,note_on,1,0,0,,10,,,57,127
57200,note_off,114,0,0,,10,,,57,127
57200,note_off,0,0,0,,2,,,74,127
57200,note_off,0,0,0,,8,,,68,127
57200,note_off,0,0,0,,12,,,71,127
57201,note_on,1,0,0,,0,,,48,127
57201,note_on,0,0,0,,4,,,76,127
57201,note_on,0,0,0,,0,,,72,127
57201,note_on,0,0,0,,10,,,69,127
57315,note_off,114,0,0,,0,,,48,127
57316,note_on,1,0,0,,10,,,57,127
57430,note_off,114,0,0,,10,,,57,127
57431,note_on,1,0,0,,8,,,56,127
57545,note_off,114,0,0,,8,,,56,127
57546,note_on,1,0,0,,10,,,57,127
57660,note_off,114,0,0,,10,,,57,127
57660,note_off,0,0,0,,10,,,69,127
57660,note_off,0,0,0,,0,,,72,127
57660,note_off,0,0,0,,4,,,76,127
57661,note_on,1,0,0,,12,,,47,127
57661,note_on,0,0,0,,2,,,74,127
57661,note_on,0,0,0,,8,,,68,127
57661,note_on,0,0,0,,12,,,71,127
57775,note_off,114,0,0,,12,,,47,127
57776,note_on,1,0,0,,10,,,57,127
57890,note_off,114,0,0,,10,,,57,127
57891,note_on,1,0,0,,8,,,56,127
58005,note_off,114,0,0,,8,,,56,127
58006,note_on,1,0,0,,10,,,57,127
58120,note_off,114,0,0,,10,,,57,127
58120,note_off,0,0,0,,12,,,71,127
58120,note_off,0,0,0,,8,,,68,127
58120,note_off,0,0,0,,2,,,74,127
58121,note_on,1,0,0,,10,,,45,127
58121,note_on,0,0,0,,2,,,74,127
58235,note_off,114,0,0,,2,,,74,127
58236,note_on,1,0,0,,0,,,72,127
58350,note_off,114,0,0,,0,,,72,127
58351,note_on,1,0,0,,12,,,71,127
58465,note_off,114,0,0,,12,,,71,127
58466,note_on,1,0,0,,0,,,72,127
58580,note_off,114,0,0,,0,,,72,127
58580,note_off,0,0,0,,10,,,45,127
58581,note_on,1,0,0,,10,,,57,127
58581,note_on,0,0,0,,2,,,50,127
58581,note_on,0,0,0,,2,,,74,127
58695,note_off,114,0,0,,2,,,74,127
58696,note_on,1,0,0,,0,,,72,127
58810,note_off,114,0,0,,0,,,72,127
58811,note_on,1,0,0,,12,,,71,127
58925,note_off,114,0,0,,12,,,71,127
58926,note_on,1,0,0,,10,,,69,127
59040,note_off,114,0,0,,10,,,69,127
59040,note_off,0,0,0,,2,,,50,127
59040,note_off,0,0,0,,10,,,57,127
59041,note_on,1,0,0,,4,,,52,127
59041,note_on,0,0,0,,8,,,68,127
59155,note_off,114,0,0,,8,,,68,127
59156,note_on,1,0,0,,4,,,64,127
59271,note_on,115,0,0,,8,,,68,127
59385,note_off,114,0,0,,8,,,68,127
59386,note_on,1,0,0,,12,,,71,127
59492,note_off,106,0,0,,4,,,64,127
59500,note_off,8,0,0,,12,,,71,127
59500,note_off,0,0,0,,4,,,52,127
59501,note_on,1,0,0,,4,,,64,127
59501,note_on,0,0,0,,4,,,76,127
59615,note_off,114,0,0,,4,,,64,127
59616,note_on,1,0,0,,2,,,62,127
59730,note_off,114,0,0,,2,,,62,127
59731,note_on,1,0,0,,0,,,60,127
59845,note_off,114,0,0,,0,,,60,127
59846,note_on,1,0,0,,12,,,59,127
59960,note_off,114,0,0,,12,,,59,127
59960,note_off,0,0,0,,4,,,76,127
59961,note_on,1,0,0,,10,,,45,127
59961,note_on,0,0,0,,10,,,69,127
59961,note_on,0,0,0,,0,,,72,127
59961,note_on,0,0,0,,4,,,76,127
60075,note_off,114,0,0,,10,,,45,127
60076,note_on,1,0,0,,10,,,57,127
60190,note_off,114,0,0,,10,,,57,127
60191,note_on,1,0,0,,8,,,56,127
60305,note_off,114,0,0,,8,,,56,127
60306,note_on,1,0,0,,10,,,57,127
60420,note_off,114,0,0,,10,,,57,127
60421,note_on,1,0,0,,10,,,45,127
60535,note_off,114,0,0,,10,,,45,127
60536,note_on,1,0,0,,10,,,57,127
60650,note_off,114,0,0,,10,,,57,127
60650,note_off,0,0,0,,4,,,76,127
60650,note_off,0,0,0,,0,,,72,127
60650,note_off,0,0,0,,10,,,69,127
60651,note_on,1,0,0,,8,,,56,127
60651,note_on,0,0,0,,10,,,69,127
60651,note_on,0,0,0,,0,,,72,127
60651,note_on,0,0,0,,4,,,76,127
60765,note_off,114,0,0,,8,,,56,127
60766,note_on,1,0,0,,10,,,57,127
60880,note_off,114,0,0,,10,,,57,127
60880,note_off,0,0,0,,4,,,76,127
60880,note_off,0,0,0,,0,,,72,127
60880,note_off,0,0,0,,10,,,69,127
60881,note_on,1,0,0,,12,,,47,127
60881,note_on,0,0,0,,8,,,68,127
60881,note_on,0,0,0,,2,,,74,127
60881,note_on,0,0,0,,12,,,71,127
60995,note_off,114,0,0,,12,,,47,127
60996,note_on,1,0,0,,10,,,57,127
61110,note_off,114,0,0,,10,,,57,127
61111,note_on,1,0,0,,8,,,56,127
61225,note_off,114,0,0,,8,,,56,127
61226,note_on,1,0,0,,10,,,57,127
61340,note_off,114,0,0,,10,,,57,127
61341,note_on,1,0,0,,12,,,47,127
61455,note_off,114,0,0,,12,,,47,127
61456,note_on,1,0,0,,10,,,57,127
61570,note_off,114,0,0,,10,,,57,127
61570,note_off,0,0,0,,12,,,71,127
61570,note_off,0,0,0,,2,,,74,127
61570,note_off,0,0,0,,8,,,68,127
61571,note_on,1,0,0,,8,,,56,127
61571,note_on,0,0,0,,12,,,71,127
61571,note_on,0,0,0,,8,,,68,127
61571,note_on,0,0,0,,2,,,74,127
61685,note_off,114,0,0,,8,,,56,127
61686,note_on,1,0,0,,10,,,57,127
61800,note_off,114,0,0,,10,,,57,127
61800,note_off,0,0,0,,2,,,74,127
61800,note_off,0,0,0,,8,,,68,127
61800,note_off,0,0,0,,12,,,71,127
61801,note_on,1,0,0,,0,,,48,127
61801,note_on,0,0,0,,10,,,69,127
61801,note_on,0,0,0,,4,,,76,127
61801,note_on,0,0,0,,0,,,72,127
61915,note_off,114,0,0,,0,,,48,127
61916,note_on,1,0,0,,10,,,57,127
62030,note_off,114,0,0,,10,,,57,127
62031,note_on,1,0,0,,8,,,56,127
62145,note_off,114,0,0,,8,,,56,127
62146,note_on,1,0,0,,10,,,57,127
62260,note_off,114,0,0,,10,,,57,127
62260,note_off,0,0,0,,0,,,72,127
62260,note_off,0,0,0,,4,,,76,127
62260,note_off,0,0,0,,10,,,69,127
62261,note_on,1,0,0,,12,,,47,127
62261,note_on,0,0,0,,2,,,74,127
62261,note_on,0,0,0,,12,,,71,127
62261,note_on,0,0,0,,8,,,68,127
62375,note_off,114,0,0,,12,,,47,127
62376,note_on,1,0,0,,10,,,57,127
62490,note_off,114,0,0,,10,,,57,127
62491,note_on,1,0,0,,8,,,56,127
62605,note_off,114,0,0,,8,,,56,127
62606,note_on,1,0,0,,10,,,57,127
62720,note_off,114,0,0,,10,,,57,127
62720,note_off,0,0,0,,8,,,68,127
62720,note_off,0,0,0,,12,,,71,127
62720,note_off,0,0,0,,2,,,74,127
62721,note_on,1,0,0,,10,,,45,127
62721,note_on,0,0,0,,2,,,74,127
62721,note_on,0,0,0,,10,,,69,127
62835,note_off,114,0,0,,2,,,74,127
62836,note_on,1,0,0,,0,,,72,127
62950,note_off,114,0,0,,0,,,72,127
62950,note_off,0,0,0,,10,,,69,127
62950,note_off,0,0,0,,10,,,45,127
62951,note_on,1,0,0,,2,,,50,127
62951,note_on,0,0,0,,12,,,71,127
63065,note_off,114,0,0,,12,,,71,127
63066,note_on,1,0,0,,10,,,69,127
63180,note_off,114,0,0,,10,,,69,127
63180,note_off,0,0,0,,2,,,50,127
63181,note_on,1,0,0,,4,,,52,127
63181,note_on,0,0,0,,4,,,64,127
63181,note_on,0,0,0,,0,,,72,127
63181,note_on,0,0,0,,10,,,69,127
63397,note_off,216,0,0,,10,,,69,127
63397,note_off,0,0,0,,0,,,72,127
63397,note_off,0,0,0,,4,,,64,127
63411,note_on,14,0,0,,4,,,40,127
63411,note_on,0,0,0,,4,,,64,127
63411,note_on,0,0,0,,8,,,68,127
63411,note_on,0,0,0,,12,,,71,127
63627,note_off,216,0,0,,12,,,71,127
63627,note_off,0,0,0,,8,,,68,127
63627,note_off,0,0,0,,4,,,64,127
63637,note_off,10,0,0,,4,,,52,127
63641,note_off,4,0,0,,4,,,40,127
63642,note_on,1,0,0,,10,,,45,127
63642,note_on,0,0,0,,0,,,60,127
63642,note_on,0,0,0,,10,,,69,127
63642,note_on,0,0,0,,4,,,64,127
63871,note_off,229,0,0,,10,,,45,127
63872,note_on,1,0,0,,0,,,48,127
64101,note_off,229,0,0,,0,,,48,127
64102,note_on,1,0,0,,4,,,52,127
64331,note_off,229,0,0,,4,,,52,127
64332,note_on,1,0,0,,10,,,57,127
64561,note_off,229,0,0,,10,,,57,127
64561,note_off,0,0,0,,4,,,64,127
64561,note_off,0,0,0,,10,,,69,127
64561,note_off,0,0,0,,0,,,60,127
64562,note_on,1,0,0,,10,,,45,127
64562,note_on,0,0,0,,10,,,81,127
64676,note_off,114,0,0,,10,,,81,127
64677,note_on,1,0,0,,7,,,79,127
64791,note_off,114,0,0,,7,,,79,127
64792,note_on,1,0,0,,5,,,77,127
64906,note_off,114,0,0,,5,,,77,127
64907,note_on,1,0,0,,4,,,76,127
65021,note_off,114,0,0,,4,,,76,127
65022,note_on,1,0,0,,10,,,57,127
65022,note_on,0,0,0,,2,,,74,127
65136,note_off,114,0,0,,2,,,74,127
65137,note_on,1,0,0,,0,,,72,127
65251,note_off,114,0,0,,0,,,72,127
65252,note_on,1,0,0,,12,,,71,127
65366,note_off,114,0,0,,12,,,71,127
65367,note_on,1,0,0,,10,,,69,127
65481,note_off,114,0,0,,10,,,69,127
65481,note_off,0,0,0,,10,,,45,127
65482,note_on,1,0,0,,12,,,83,127
65596,note_off,114,0,0,,12,,,83,127
65597,note_on,1,0,0,,10,,,81,127
65711,note_off,114,0,0,,10,,,81,127
65712,note_on,1,0,0,,8,,,80,127
65826,note_off,114,0,0,,8,,,80,127
65827,note_on,1,0,0,,6,,,78,127
65941,note_off,114,0,0,,6,,,78,127
65941,note_off,0,0,0,,10,,,57,127
65942,note_on,1,0,0,,8,,,56,127
65942,note_on,0,0,0,,4,,,76,127
66056,note_off,114,0,0,,4,,,76,127
66057,note_on,1,0,0,,2,,,74,127
66171,note_off,114,0,0,,2,,,74,127
66172,note_on,1,0,0,,0,,,72,127
66286,note_off,114,0,0,,0,,,72,127
66287,note_on,1,0,0,,12,,,71,127
66401,note_off,114,0,0,,12,,,71,127
66401,note_off,0,0,0,,8,,,56,127
66402,note_on,1,0,0,,10,,,45,127
66402,note_on,0,0,0,,10,,,57,127
66402,note_on,0,0,0,,4,,,52,127
66402,note_on,0,0,0,,0,,,84,127
66516,note_off,114,0,0,,0,,,84,127
66517,note_on,1,0,0,,12,,,83,127
66631,note_off,114,0,0,,12,,,83,127
66632,note_on,1,0,0,,10,,,81,127
66746,note_off,114,0,0,,10,,,81,127
66747,note_on,1,0,0,,0,,,84,127
66861,note_off,114,0,0,,0,,,84,127
66861,note_off,0,0,0,,4,,,52,127
66861,note_off,0,0,0,,10,,,57,127
66861,note_off,0,0,0,,10,,,45,127
66862,note_on,1,0,0,,8,,,56,127
66862,note_on,0,0,0,,2,,,50,127
66862,note_on,0,0,0,,12,,,47,127
66862,note_on,0,0,0,,12,,,83,127
66976,note_off,114,0,0,,12,,,83,127
66977,note_on,1,0,0,,10,,,81,127
67091,note_off,114,0,0,,10,,,81,127
67092,note_on,1,0,0,,8,,,80,127
67206,note_off,114,0,0,,8,,,80,127
67207,note_on,1,0,0,,12,,,83,127
67321,note_off,114,0,0,,12,,,83,127
67321,note_off,0,0,0,,12,,,47,127
67321,note_off,0,0,0,,2,,,50,127
67321,note_off,0,0,0,,8,,,56,127
67322,note_on,1,0,0,,10,,,57,127
67322,note_on,0,0,0,,4,,,52,127
67322,note_on,0,0,0,,0,,,48,127
67322,note_on,0,0,0,,10,,,81,127
67436,note_off,114,0,0,,10,,,81,127
67437,note_on,1,0,0,,7,,,79,127
67551,note_off,114,0,0,,7,,,79,127
67552,note_on,1,0,0,,5,,,77,127
67666,note_off,114,0,0,,5,,,77,127
67667,note_on,1,0,0,,4,,,76,127
67781,note_off,114,0,0,,4,,,76,127
67781,note_off,0,0,0,,0,,,48,127
67781,note_off,0,0,0,,4,,,52,127
67781,note_off,0,0,0,,10,,,57,127
67782,note_on,1,0,0,,2,,,50,127
67782,note_on,0,0,0,,10,,,57,127
67782,note_on,0,0,0,,5,,,53,127
67782,note_on,0,0,0,,2,,,74,127
67896,note_off,114,0,0,,2,,,74,127
67897,note_on,1,0,0,,0,,,72,127
68011,note_off,114,0,0,,0,,,72,127
68012,note_on,1,0,0,,12,,,71,127
68126,note_off,114,0,0,,12,,,71,127
68127,note_on,1,0,0,,10,,,69,127
68241,note_off,114,0,0,,10,,,69,127
68241,note_off,0,0,0,,5,,,53,127
68241,note_off,0,0,0,,10,,,57,127
68241,note_off,0,0,0,,2,,,50,127
68242,note_on,1,0,0,,12,,,59,127
68242,note_on,0,0,0,,4,,,52,127
68242,note_on,0,0,0,,8,,,68,127
68356,note_off,114,0,0,,8,,,68,127
68357,note_on,1,0,0,,10,,,69,127
68471,note_off,114,0,0,,10,,,69,127
68472,note_on,1,0,0,,12,,,71,127
68586,note_off,114,0,0,,12,,,71,127
68587,note_on,1,0,0,,8,,,68,127
68701,note_off,114,0,0,,8,,,68,127
68701,note_off,0,0,0,,4,,,52,127
68701,note_off,0,0,0,,12,,,59,127
68702,note_on,1,0,0,,4,,,52,127
68702,note_on,0,0,0,,4,,,64,127
68816,note_off,114,0,0,,4,,,52,127
68817,note_on,1,0,0,,2,,,50,127
68931,note_off,114,0,0,,2,,,50,127
68932,note_on,1,0,0,,0,,,48,127
69046,note_off,114,0,0,,0,,,48,127
69047,note_on,1,0,0,,12,,,47,127
69161,note_off,114,0,0,,12,,,47,127
69161,note_off,0,0,0,,4,,,64,127
69162,note_on,1,0,0,,10,,,45,127
69162,note_on,0,0,0,,10,,,81,127
69276,note_off,114,0,0,,10,,,81,127
69277,note_on,1,0,0,,7,,,79,127
69391,note_off,114,0,0,,7,,,79,127
69392,note_on,1,0,0,,5,,,77,127
69506,note_off,114,0,0,,5,,,77,127
69507,note_on,1,0,0,,4,,,76,127
69621,note_off,114,0,0,,4,,,76,127
69622,note_on,1,0,0,,10,,,57,127
69622,note_on,0,0,0,,2,,,74,127
69736,note_off,114,0,0,,2,,,74,127
69737,note_on,1,0,0,,0,,,72,127
69851,note_off,114,0,0,,0,,,72,127
69852,note_on,1,0,0,,12,,,71,127
69966,note_off,114,0,0,,12,,,71,127
69967,note_on,1,0,0,,10,,,69,127
70081,note_off,114,0,0,,10,,,69,127
70081,note_off,0,0,0,,10,,,45,127
70082,note_on,1,0,0,,12,,,83,127
70196,note_off,114,0,0,,12,,,83,127
70197,note_on,1,0,0,,10,,,81,127
70311,note_off,114,0,0,,10,,,81,127
70312,note_on,1,0,0,,8,,,80,127
70426,note_off,114,0,0,,8,,,80,127
70427,note_on,1,0,0,,6,,,78,127
70541,note_off,114,0,0,,6,,,78,127
70541,note_off,0,0,0,,10,,,57,127
70542,note_on,1,0,0,,8,,,56,127
70542,note_on,0,0,0,,4,,,76,127
70656,note_off,114,0,0,,4,,,76,127
70657,note_on,1,0,0,,2,,,74,127
70771,note_off,114,0,0,,2,,,74,127
70772,note_on,1,0,0,,0,,,72,127
70886,note_off,114,0,0,,0,,,72,127
70887,note_on,1,0,0,,12,,,71,127
71001,note_off,114,0,0,,12,,,71,127
71001,note_off,0,0,0,,8,,,56,127
71002,note_on,1,0,0,,10,,,45,127
71002,note_on,0,0,0,,10,,,57,127
71002,note_on,0,0,0,,4,,,52,127
71002,note_on,0,0,0,,0,,,84,127
71116,note_off,114,0,0,,0,,,84,127
71117,note_on,1,0,0,,12,,,83,127
71231,note_off,114,0,0,,12,,,83,127
71232,note_on,1,0,0,,10,,,81,127
71346,note_off,114,0,0,,10,,,81,127
71347,note_on,1,0,0,,0,,,84,127
71461,note_off,114,0,0,,0,,,84,127
71461,note_off,0,0,0,,4,,,52,127
71461,note_off,0,0,0,,10,,,57,127
71461,note_off,0,0,0,,10,,,45,127
71462,note_on,1,0,0,,8,,,56,127
71462,note_on,0,0,0,,2,,,50,127
71462,note_on,0,0,0,,12,,,47,127
71462,note_on,0,0,0,,12,,,83,127
71576,note_off,114,0,0,,12,,,83,127
71577,note_on,1,0,0,,10,,,81,127
71691,note_off,114,0,0,,10,,,81,127
71692,note_on,1,0,0,,8,,,80,127
71806,note_off,114,0,0,,8,,,80,127
71807,note_on,1,0,0,,12,,,83,127
71921,note_off,114,0,0,,12,,,83,127
71921,note_off,0,0,0,,12,,,47,127
71921,note_off,0,0,0,,2,,,50,127
71921,note_off,0,0,0,,8,,,56,127
71922,note_on,1,0,0,,10,,,57,127
71922,note_on,0,0,0,,0,,,48,127
71922,note_on,0,0,0,,10,,,81,127
72037,note_on,115,0,0,,10,,,69,127
72150,note_off,113,0,0,,10,,,81,127
72151,note_off,1,0,0,,10,,,69,127
72151,note_off,0,0,0,,0,,,48,127
72151,note_off,0,0,0,,10,,,57,127
72152,note_on,1,0,0,,2,,,50,127
72152,note_on,0,0,0,,2,,,74,127
72267,note_on,115,0,0,,12,,,71,127
72296,note_off,29,0,0,,2,,,74,127
72381,note_off,85,0,0,,12,,,71,127
72381,note_off,0,0,0,,2,,,50,127
72382,note_on,1,0,0,,4,,,52,127
72382,note_on,0,0,0,,10,,,69,127
72382,note_on,0,0,0,,0,,,72,127
72382,note_on,0,0,0,,4,,,64,127
72611,note_off,229,0,0,,4,,,64,127
72611,note_off,0,0,0,,0,,,72,127
72611,note_off,0,0,0,,10,,,69,127
72611,note_off,0,0,0,,4,,,52,127
72612,note_on,1,0,0,,4,,,40,127
72612,note_on,0,0,0,,8,,,68,127
72612,note_on,0,0,0,,12,,,71,127
72612,note_on,0,0,0,,4,,,64,127
72841,note_off,229,0,0,,4,,,64,127
72841,note_off,0,0,0,,12,,,71,127
72841,note_off,0,0,0,,8,,,68,127
72841,note_off,0,0,0,,4,,,40,127
72842,note_on,1,0,0,,10,,,45,127
72842,note_on,0,0,0,,4,,,64,127
72842,note_on,0,0,0,,10,,,69,127
73071,note_off,229,0,0,,10,,,45,127
73072,note_on,1,0,0,,0,,,48,127
73298,note_off,226,0,0,,4,,,64,127
73302,note_off,4,0,0,,0,,,48,127
73303,note_on,1,0,0,,4,,,52,127
73532,note_off,229,0,0,,4,,,52,127
73533,note_on,1,0,0,,10,,,57,127
73762,note_off,229,0,0,,10,,,57,127
73762,note_off,0,0,0,,10,,,69,127
73763,note_on,1,0,0,,10,,,45,127
73763,note_on,0,0,0,,0,,,72,127
73839,note_off,76,0,0,,0,,,72,127
73840,note_on,1,0,0,,12,,,71,127
73916,note_off,76,0,0,,12,,,71,127
73917,note_on,1,0,0,,10,,,69,127
73993,note_off,76,0,0,,10,,,69,127
73994,note_on,1,0,0,,4,,,76,127
74070,note_off,76,0,0,,4,,,76,127
74071,note_on,1,0,0,,2,,,74,127
74147,note_off,76,0,0,,2,,,74,127
74148,note_on,1,0,0,,0,,,72,127
74224,note_off,76,0,0,,0,,,72,127
74225,note_on,1,0,0,,10,,,81,127
74454,note_off,229,0,0,,10,,,45,127
74455,note_on,1,0,0,,10,,,57,127
74455,note_on,0,0,0,,10,,,69,127
74684,note_off,229,0,0,,10,,,69,127
74684,note_off,0,0,0,,10,,,57,127
74684,note_off,0,0,0,,10,,,81,127
74685,note_on,1,0,0,,12,,,59,127
74685,note_on,0,0,0,,2,,,74,127
74761,note_off,76,0,0,,2,,,74,127
74762,note_on,1,0,0,,0,,,72,127
74838,note_off,76,0,0,,0,,,72,127
74839,note_on,1,0,0,,12,,,71,127
74915,note_off,76,0,0,,12,,,71,127
74915,note_off,0,0,0,,12,,,59,127
74916,note_on,1,0,0,,8,,,56,127
74916,note_on,0,0,0,,2,,,74,127
74992,note_off,76,0,0,,2,,,74,127
74993,note_on,1,0,0,,0,,,72,127
75069,note_off,76,0,0,,0,,,72,127
75070,note_on,1,0,0,,12,,,71,127
75146,note_off,76,0,0,,8,,,56,127
75147,note_on,1,0,0,,4,,,52,127
75147,note_on,0,0,0,,12,,,83,127
75298,note_off,151,0,0,,12,,,71,127
75376,note_off,78,0,0,,4,,,52,127
75377,note_on,1,0,0,,2,,,50,127
75377,note_on,0,0,0,,8,,,56,127
75377,note_on,0,0,0,,12,,,71,127
75606,note_off,229,0,0,,12,,,71,127
75606,note_off,0,0,0,,8,,,56,127
75606,note_off,0,0,0,,2,,,50,127
75606,note_off,0,0,0,,12,,,83,127
75607,note_on,1,0,0,,0,,,48,127
75607,note_on,0,0,0,,4,,,76,127
75683,note_off,76,0,0,,4,,,76,127
75684,note_on,1,0,0,,2,,,74,127
75760,note_off,76,0,0,,2,,,74,127
75761,note_on,1,0,0,,0,,,72,127
75837,note_off,76,0,0,,0,,,72,127
75838,note_on,1,0,0,,10,,,57,127
75838,note_on,0,0,0,,4,,,76,127
75914,note_off,76,0,0,,4,,,76,127
75915,note_on,1,0,0,,2,,,74,127
75953,note_off,38,0,0,,0,,,48,127
75990,note_off,37,0,0,,2,,,74,127
75991,note_on,1,0,0,,0,,,72,127
76067,note_off,76,0,0,,0,,,72,127
76068,note_on,1,0,0,,12,,,47,127
76068,note_on,0,0,0,,2,,,74,127
76144,note_off,76,0,0,,2,,,74,127
76145,note_on,1,0,0,,0,,,72,127
76183,note_off,38,0,0,,10,,,57,127
76220,note_off,37,0,0,,0,,,72,127
76221,note_on,1,0,0,,12,,,71,127
76297,note_off,76,0,0,,12,,,71,127
76298,note_on,1,0,0,,8,,,56,127
76298,note_on,0,0,0,,2,,,74,127
76374,note_off,76,0,0,,2,,,74,127
76375,note_on,1,0,0,,0,,,72,127
76413,note_off,38,0,0,,12,,,47,127
76450,note_off,37,0,0,,0,,,72,127
76451,note_on,1,0,0,,12,,,71,127
76527,note_off,76,0,0,,12,,,71,127
76527,note_off,0,0,0,,8,,,56,127
76528,note_on,1,0,0,,10,,,45,127
76528,note_on,0,0,0,,4,,,52,127
76528,note_on,0,0,0,,10,,,57,127
76528,note_on,0,0,0,,2,,,74,127
76642,note_off,114,0,0,,2,,,74,127
76643,note_on,1,0,0,,0,,,72,127
76757,note_off,114,0,0,,0,,,72,127
76758,note_on,1,0,0,,12,,,71,127
76872,note_off,114,0,0,,12,,,71,127
76873,note_on,1,0,0,,0,,,72,127
76987,note_off,114,0,0,,0,,,72,127
76987,note_off,0,0,0,,10,,,57,127
76987,note_off,0,0,0,,4,,,52,127
76987,note_off,0,0,0,,10,,,45,127
76988,note_on,1,0,0,,10,,,57,127
76988,note_on,0,0,0,,2,,,50,127
76988,note_on,0,0,0,,2,,,74,127
77102,note_off,114,0,0,,2,,,74,127
77103,note_on,1,0,0,,0,,,72,127
77217,note_off,114,0,0,,0,,,72,127
77218,note_on,1,0,0,,12,,,71,127
77332,note_off,114,0,0,,12,,,71,127
77333,note_on,1,0,0,,10,,,69,127
77447,note_off,114,0,0,,10,,,69,127
77447,note_off,0,0,0,,2,,,50,127
77447,note_off,0,0,0,,10,,,57,127
77448,note_on,1,0,0,,4,,,52,127
77448,note_on,0,0,0,,4,,,40,127
77448,note_on,0,0,0,,8,,,68,127
77524,note_off,76,0,0,,8,,,68,127
77525,note_on,1,0,0,,6,,,66,127
77601,note_off,76,0,0,,6,,,66,127
77602,note_on,1,0,0,,4,,,64,127
77678,note_off,76,0,0,,4,,,64,127
77679,note_on,1,0,0,,10,,,69,127
77755,note_off,76,0,0,,10,,,69,127
77756,note_on,1,0,0,,8,,,68,127
77832,note_off,76,0,0,,8,,,68,127
77833,note_on,1,0,0,,6,,,66,127
77909,note_off,76,0,0,,6,,,66,127
77910,note_on,1,0,0,,12,,,71,127
77986,note_off,76,0,0,,12,,,71,127
77987,note_on,1,0,0,,10,,,69,127
78063,note_off,76,0,0,,10,,,69,127
78064,note_on,1,0,0,,8,,,68,127
78140,note_off,76,0,0,,8,,,68,127
78141,note_on,1,0,0,,2,,,74,127
78217,note_off,76,0,0,,2,,,74,127
78218,note_on,1,0,0,,0,,,72,127
78294,note_off,76,0,0,,0,,,72,127
78295,note_on,1,0,0,,12,,,71,127
78371,note_off,76,0,0,,12,,,71,127
78371,note_off,0,0,0,,4,,,40,127
78371,note_off,0,0,0,,4,,,52,127
78372,note_on,1,0,0,,10,,,45,127
78372,note_on,0,0,0,,4,,,52,127
78372,note_on,0,0,0,,10,,,57,127
78372,note_on,0,0,0,,0,,,72,127
78448,note_off,76,0,0,,0,,,72,127
78449,note_on,1,0,0,,12,,,71,127
78525,note_off,76,0,0,,12,,,71,127
78526,note_on,1,0,0,,10,,,69,127
78602,note_off,76,0,0,,10,,,69,127
78603,note_on,1,0,0,,4,,,76,127
78679,note_off,76,0,0,,4,,,76,127
78680,note_on,1,0,0,,2,,,74,127
78756,note_off,76,0,0,,2,,,74,127
78757,note_on,1,0,0,,0,,,72,127
78833,note_off,76,0,0,,0,,,72,127
78834,note_on,1,0,0,,10,,,81,127
79063,note_off,229,0,0,,10,,,57,127
79063,note_off,0,0,0,,4,,,52,127
79063,note_off,0,0,0,,10,,,45,127
79064,note_on,1,0,0,,10,,,57,127
79064,note_on,0,0,0,,10,,,69,127
79290,note_off,226,0,0,,10,,,81,127
79294,note_off,4,0,0,,10,,,69,127
79294,note_off,0,0,0,,10,,,57,127
79295,note_on,1,0,0,,12,,,59,127
79295,note_on,0,0,0,,2,,,74,127
79371,note_off,76,0,0,,2,,,74,127
79372,note_on,1,0,0,,0,,,72,127
79448,note_off,76,0,0,,0,,,72,127
79449,note_on,1,0,0,,12,,,71,127
79525,note_off,76,0,0,,12,,,71,127
79525,note_off,0,0,0,,12,,,59,127
79526,note_on,1,0,0,,8,,,56,127
79526,note_on,0,0,0,,2,,,74,127
79602,note_off,76,0,0,,2,,,74,127
79603,note_on,1,0,0,,0,,,72,127
79679,note_off,76,0,0,,0,,,72,127
79680,note_on,1,0,0,,12,,,71,127
79756,note_off,76,0,0,,8,,,56,127
79757,note_on,1,0,0,,4,,,52,127
79757,note_on,0,0,0,,12,,,83,127
79908,note_off,151,0,0,,12,,,71,127
79986,note_off,78,0,0,,4,,,52,127
79987,note_on,1,0,0,,2,,,50,127
79987,note_on,0,0,0,,8,,,56,127
79987,note_on,0,0,0,,12,,,71,127
80213,note_off,226,0,0,,12,,,83,127
80217,note_off,4,0,0,,12,,,71,127
80217,note_off,0,0,0,,8,,,56,127
80217,note_off,0,0,0,,2,,,50,127
80218,note_on,1,0,0,,0,,,48,127
80218,note_on,0,0,0,,4,,,76,127
80294,note_off,76,0,0,,4,,,76,127
80295,note_on,1,0,0,,2,,,74,127
80371,note_off,76,0,0,,2,,,74,127
80372,note_on,1,0,0,,0,,,72,127
80448,note_off,76,0,0,,0,,,72,127
80449,note_on,1,0,0,,10,,,57,127
80449,note_on,0,0,0,,4,,,76,127
80525,note_off,76,0,0,,4,,,76,127
80526,note_on,1,0,0,,2,,,74,127
80564,note_off,38,0,0,,0,,,48,127
80601,note_off,37,0,0,,2,,,74,127
80602,note_on,1,0,0,,0,,,72,127
80678,note_off,76,0,0,,0,,,72,127
80679,note_on,1,0,0,,12,,,47,127
80679,note_on,0,0,0,,2,,,74,127
80755,note_off,76,0,0,,2,,,74,127
80756,note_on,1,0,0,,0,,,72,127
80794,note_off,38,0,0,,10,,,57,127
80831,note_off,37,0,0,,0,,,72,127
80832,note_on,1,0,0,,12,,,71,127
80908,note_off,76,0,0,,12,,,71,127
80909,note_on,1,0,0,,8,,,56,127
80909,note_on,0,0,0,,2,,,74,127
80985,note_off,76,0,0,,2,,,74,127
80986,note_on,1,0,0,,0,,,72,127
81024,note_off,38,0,0,,12,,,47,127
81061,note_off,37,0,0,,0,,,72,127
81062,note_on,1,0,0,,12,,,71,127
81138,note_off,76,0,0,,12,,,71,127
81138,note_off,0,0,0,,8,,,56,127
81139,note_on,1,0,0,,10,,,57,127
81139,note_on,0,0,0,,0,,,72,127
81215,note_off,76,0,0,,0,,,72,127
81216,note_on,1,0,0,,2,,,74,127
81292,note_off,76,0,0,,2,,,74,127
81293,note_on,1,0,0,,4,,,76,127
81369,note_off,76,0,0,,4,,,76,127
81370,note_on,1,0,0,,2,,,50,127
81370,note_on,0,0,0,,5,,,77,127
81446,note_off,76,0,0,,5,,,77,127
81447,note_on,1,0,0,,4,,,76,127
81485,note_off,38,0,0,,10,,,57,127
81522,note_off,37,0,0,,4,,,76,127
81523,note_on,1,0,0,,2,,,74,127
81599,note_off,76,0,0,,2,,,74,127
81599,note_off,0,0,0,,2,,,50,127
81600,note_on,1,0,0,,4,,,52,127
81600,note_on,0,0,0,,0,,,72,127
81600,note_on,0,0,0,,10,,,69,127
81829,note_off,229,0,0,,10,,,69,127
81829,note_off,0,0,0,,0,,,72,127
81830,note_on,1,0,0,,4,,,40,127
81830,note_on,0,0,0,,8,,,68,127
81830,note_on,0,0,0,,12,,,71,127
82059,note_off,229,0,0,,12,,,71,127
82059,note_off,0,0,0,,8,,,68,127
82059,note_off,0,0,0,,4,,,40,127
82059,note_off,0,0,0,,4,,,52,127
82060,note_on,1,0,0,,10,,,45,127
82060,note_on,0,0,0,,10,,,69,127
82289,note_off,229,0,0,,10,,,45,127
82290,note_on,1,0,0,,0,,,48,127
82519,note_off,229,0,0,,0,,,48,127
82520,note_on,1,0,0,,4,,,52,127
82749,note_off,229,0,0,,4,,,52,127
82750,note_on,1,0,0,,10,,,57,127
82979,note_off,229,0,0,,10,,,57,127
82979,note_off,0,0,0,,10,,,69,127
82980,note_on,1,0,0,,10,,,45,127
82980,note_on,0,0,0,,0,,,72,127
83210,note_on,230,0,0,,4,,,64,127
83439,note_off,229,0,0,,4,,,64,127
83440,note_on,1,0,0,,10,,,69,127
83669,note_off,229,0,0,,0,,,72,127
83669,note_off,0,0,0,,10,,,45,127
83670,note_on,1,0,0,,10,,,45,127
83670,note_on,0,0,0,,0,,,72,127
83899,note_off,229,0,0,,0,,,72,127
83899,note_off,0,0,0,,10,,,45,127
83900,note_on,1,0,0,,12,,,47,127
83900,note_on,0,0,0,,2,,,74,127
84129,note_off,229,0,0,,10,,,69,127
84130,note_on,1,0,0,,8,,,68,127
84359,note_off,229,0,0,,8,,,68,127
84360,note_on,1,0,0,,12,,,71,127
84589,note_off,229,0,0,,2,,,74,127
84589,note_off,0,0,0,,12,,,47,127
84590,note_on,1,0,0,,12,,,59,127
84590,note_on,0,0,0,,2,,,74,127
84819,note_off,229,0,0,,2,,,74,127
84819,note_off,0,0,0,,12,,,59,127
84819,note_off,0,0,0,,12,,,71,127
84820,note_on,1,0,0,,0,,,60,127
84820,note_on,0,0,0,,4,,,76,127
84935,note_on,115,0,0,,10,,,69,127
85049,note_off,114,0,0,,10,,,69,127
85049,note_off,0,0,0,,0,,,60,127
85050,note_on,1,0,0,,10,,,57,127
85050,note_on,0,0,0,,8,,,68,127
85164,note_off,114,0,0,,8,,,68,127
85165,note_on,1,0,0,,10,,,69,127
85279,note_off,114,0,0,,10,,,69,127
85279,note_off,0,0,0,,10,,,57,127
85279,note_off,0,0,0,,4,,,76,127
85280,note_on,1,0,0,,12,,,59,127
85280,note_on,0,0,0,,2,,,74,127
85395,note_on,115,0,0,,12,,,71,127
85509,note_off,114,0,0,,12,,,71,127
85509,note_off,0,0,0,,12,,,59,127
85510,note_on,1,0,0,,8,,,56,127
85510,note_on,0,0,0,,10,,,69,127
85624,note_off,114,0,0,,10,,,69,127
85625,note_on,1,0,0,,12,,,71,127
85739,note_off,114,0,0,,12,,,71,127
85739,note_off,0,0,0,,8,,,56,127
85739,note_off,0,0,0,,2,,,74,127
85740,note_on,1,0,0,,10,,,57,127
85740,note_on,0,0,0,,2,,,74,127
85855,note_on,115,0,0,,0,,,72,127
85969,note_off,114,0,0,,0,,,72,127
85969,note_off,0,0,0,,2,,,74,127
85970,note_on,1,0,0,,12,,,71,127
86084,note_off,114,0,0,,12,,,71,127
86085,note_on,1,0,0,,0,,,72,127
86199,note_off,114,0,0,,0,,,72,127
86199,note_off,0,0,0,,10,,,57,127
86200,note_on,1,0,0,,2,,,50,127
86200,note_on,0,0,0,,2,,,74,127
86314,note_off,114,0,0,,2,,,74,127
86315,note_on,1,0,0,,0,,,72,127
86429,note_off,114,0,0,,0,,,72,127
86430,note_on,1,0,0,,12,,,71,127
86544,note_off,114,0,0,,12,,,71,127
86545,note_on,1,0,0,,10,,,69,127
86659,note_off,114,0,0,,10,,,69,127
86659,note_off,0,0,0,,2,,,50,127
86660,note_on,1,0,0,,4,,,52,127
86660,note_on,0,0,0,,8,,,68,127
86736,note_off,76,0,0,,8,,,68,127
86737,note_on,1,0,0,,6,,,66,127
86813,note_off,76,0,0,,6,,,66,127
86814,note_on,1,0,0,,4,,,64,127
86890,note_off,76,0,0,,4,,,64,127
86891,note_on,1,0,0,,12,,,71,127
86967,note_off,76,0,0,,12,,,71,127
86968,note_on,1,0,0,,10,,,69,127
87044,note_off,76,0,0,,10,,,69,127
87045,note_on,1,0,0,,8,,,68,127
87121,note_off,76,0,0,,8,,,68,127
87122,note_on,1,0,0,,2,,,74,127
87198,note_off,76,0,0,,2,,,74,127
87199,note_on,1,0,0,,0,,,72,127
87275,note_off,76,0,0,,0,,,72,127
87276,note_on,1,0,0,,2,,,74,127
87352,note_off,76,0,0,,2,,,74,127
87353,note_on,1,0,0,,12,,,71,127
87429,note_off,76,0,0,,12,,,71,127
87430,note_on,1,0,0,,0,,,72,127
87506,note_off,76,0,0,,0,,,72,127
87507,note_on,1,0,0,,2,,,74,127
87583,note_off,76,0,0,,2,,,74,127
87583,note_off,0,0,0,,4,,,52,127
87584,note_on,1,0,0,,10,,,45,127
87584,note_on,0,0,0,,0,,,72,127
87814,note_on,230,0,0,,4,,,64,127
88043,note_off,229,0,0,,4,,,64,127
88044,note_on,1,0,0,,10,,,69,127
88273,note_off,229,0,0,,0,,,72,127
88273,note_off,0,0,0,,10,,,45,127
88274,note_on,1,0,0,,10,,,45,127
88274,note_on,0,0,0,,0,,,72,127
88503,note_off,229,0,0,,0,,,72,127
88503,note_off,0,0,0,,10,,,45,127
88504,note_on,1,0,0,,12,,,47,127
88504,note_on,0,0,0,,2,,,74,127
88733,note_off,229,0,0,,10,,,69,127
88734,note_on,1,0,0,,8,,,68,127
88963,note_off,229,0,0,,8,,,68,127
88964,note_on,1,0,0,,12,,,71,127
89193,note_off,229,0,0,,2,,,74,127
89193,note_off,0,0,0,,12,,,47,127
89194,note_on,1,0,0,,12,,,59,127
89194,note_on,0,0,0,,2,,,74,127
89423,note_off,229,0,0,,2,,,74,127
89423,note_off,0,0,0,,12,,,59,127
89423,note_off,0,0,0,,12,,,71,127
89424,note_on,1,0,0,,0,,,60,127
89424,note_on,0,0,0,,4,,,76,127
89539,note_on,115,0,0,,10,,,69,127
89653,note_off,114,0,0,,10,,,69,127
89653,note_off,0,0,0,,0,,,60,127
89654,note_on,1,0,0,,10,,,57,127
89654,note_on,0,0,0,,8,,,68,127
89768,note_off,114,0,0,,8,,,68,127
89769,note_on,1,0,0,,10,,,69,127
89883,note_off,114,0,0,,10,,,69,127
89883,note_off,0,0,0,,10,,,57,127
89883,note_off,0,0,0,,4,,,76,127
89884,note_on,1,0,0,,12,,,59,127
89884,note_on,0,0,0,,2,,,74,127
89999,note_on,115,0,0,,12,,,71,127
90113,note_off,114,0,0,,12,,,71,127
90113,note_off,0,0,0,,12,,,59,127
90114,note_on,1,0,0,,8,,,56,127
90114,note_on,0,0,0,,10,,,69,127
90228,note_off,114,0,0,,10,,,69,127
90229,note_on,1,0,0,,12,,,71,127
90343,note_off,114,0,0,,12,,,71,127
90343,note_off,0,0,0,,8,,,56,127
90343,note_off,0,0,0,,2,,,74,127
90344,note_on,1,0,0,,10,,,57,127
90344,note_on,0,0,0,,0,,,72,127
90459,note_on,115,0,0,,4,,,76,127
90573,note_off,114,0,0,,4,,,76,127
90573,note_off,0,0,0,,10,,,57,127
90574,note_on,1,0,0,,0,,,48,127
90574,note_on,0,0,0,,10,,,81,127
90688,note_off,114,0,0,,10,,,81,127
90689,note_off,1,0,0,,0,,,72,127
90689,note_on,0,0,0,,10,,,69,127
90803,note_off,114,0,0,,10,,,69,127
90803,note_off,0,0,0,,0,,,48,127
90804,note_on,1,0,0,,2,,,50,127
90804,note_on,0,0,0,,0,,,72,127
90918,note_off,114,0,0,,0,,,72,127
90919,note_on,1,0,0,,12,,,71,127
91033,note_off,114,0,0,,12,,,71,127
91033,note_off,0,0,0,,2,,,50,127
91034,note_on,1,0,0,,4,,,52,127
91034,note_on,0,0,0,,10,,,69,127
91148,note_off,114,0,0,,10,,,69,127
91149,note_on,1,0,0,,8,,,68,127
91263,note_off,114,0,0,,8,,,68,127
91263,note_off,0,0,0,,4,,,52,127
91264,note_on,1,0,0,,10,,,45,127
91264,note_on,0,0,0,,10,,,69,127
91493,note_off,229,0,0,,10,,,69,127
91494,note_on,1,0,0,,0,,,72,127
91723,note_off,229,0,0,,0,,,72,127
91724,note_on,1,0,0,,4,,,76,127
91953,note_off,229,0,0,,4,,,76,127
91954,note_on,1,0,0,,10,,,81,127
92183,note_off,229,0,0,,10,,,81,127
92183,note_off,0,0,0,,10,,,45,127
92184,note_on,1,0,0,,10,,,45,127
92184,note_on,0,0,0,,10,,,57,127
92184,note_on,0,0,0,,4,,,76,127
92299,note_on,115,0,0,,0,,,72,127
92413,note_off,114,0,0,,0,,,72,127
92414,note_on,1,0,0,,12,,,71,127
92528,note_off,114,0,0,,12,,,71,127
92529,note_on,1,0,0,,10,,,69,127
92643,note_off,114,0,0,,10,,,69,127
92643,note_off,0,0,0,,4,,,76,127
92644,note_on,1,0,0,,4,,,76,127
92759,note_on,115,0,0,,0,,,72,127
92873,note_off,114,0,0,,0,,,72,127
92873,note_off,0,0,0,,10,,,57,127
92873,note_off,0,0,0,,10,,,45,127
92874,note_on,1,0,0,,10,,,45,127
92874,note_on,0,0,0,,10,,,57,127
92874,note_on,0,0,0,,12,,,71,127
92988,note_off,114,0,0,,12,,,71,127
92989,note_on,1,0,0,,10,,,69,127
93103,note_off,114,0,0,,10,,,69,127
93103,note_off,0,0,0,,10,,,57,127
93103,note_off,0,0,0,,10,,,45,127
93103,note_off,0,0,0,,4,,,76,127
93104,note_on,1,0,0,,2,,,50,127
93104,note_on,0,0,0,,10,,,57,127
93104,note_on,0,0,0,,5,,,77,127
93219,note_on,115,0,0,,12,,,71,127
93333,note_off,114,0,0,,12,,,71,127
93334,note_on,1,0,0,,10,,,69,127
93448,note_off,114,0,0,,10,,,69,127
93449,note_on,1,0,0,,8,,,68,127
93563,note_off,114,0,0,,8,,,68,127
93563,note_off,0,0,0,,5,,,77,127
93564,note_on,1,0,0,,5,,,77,127
93679,note_on,115,0,0,,12,,,71,127
93793,note_off,114,0,0,,12,,,71,127
93793,note_off,0,0,0,,10,,,57,127
93793,note_off,0,0,0,,2,,,50,127
93794,note_on,1,0,0,,2,,,50,127
93794,note_on,0,0,0,,10,,,69,127
93908,note_off,114,0,0,,10,,,69,127
93909,note_on,1,0,0,,8,,,68,127
94023,note_off,114,0,0,,8,,,68,127
94023,note_off,0,0,0,,2,,,50,127
94023,note_off,0,0,0,,5,,,77,127
94024,note_on,1,0,0,,0,,,48,127
94024,note_on,0,0,0,,4,,,76,127
94139,note_on,115,0,0,,0,,,72,127
94253,note_off,114,0,0,,0,,,72,127
94253,note_off,0,0,0,,0,,,48,127
94254,note_on,1,0,0,,10,,,57,127
94254,note_on,0,0,0,,12,,,71,127
94368,note_off,114,0,0,,12,,,71,127
94369,note_on,1,0,0,,10,,,69,127
94483,note_off,114,0,0,,10,,,69,127
94483,note_off,0,0,0,,10,,,57,127
94483,note_off,0,0,0,,4,,,76,127
94484,note_on,1,0,0,,12,,,47,127
94484,note_on,0,0,0,,2,,,74,127
94599,note_on,115,0,0,,12,,,71,127
94713,note_off,114,0,0,,12,,,71,127
94713,note_off,0,0,0,,12,,,47,127
94714,note_on,1,0,0,,4,,,52,127
94714,note_on,0,0,0,,10,,,69,127
94828,note_off,114,0,0,,10,,,69,127
94829,note_on,1,0,0,,8,,,68,127
94943,note_off,114,0,0,,8,,,68,127
94943,note_off,0,0,0,,4,,,52,127
94943,note_off,0,0,0,,2,,,74,127
94944,note_on,1,0,0,,10,,,45,127
94944,note_on,0,0,0,,0,,,72,127
95059,note_on,115,0,0,,4,,,76,127
95173,note_off,114,0,0,,4,,,76,127
95173,note_off,0,0,0,,0,,,72,127
95174,note_on,1,0,0,,2,,,74,127
95288,note_off,114,0,0,,2,,,74,127
95289,note_on,1,0,0,,0,,,72,127
95403,note_off,114,0,0,,0,,,72,127
95403,note_off,0,0,0,,10,,,45,127
95404,note_on,1,0,0,,2,,,50,127
95404,note_on,0,0,0,,12,,,71,127
95518,note_off,114,0,0,,12,,,71,127
95519,note_on,1,0,0,,10,,,69,127
95633,note_off,114,0,0,,10,,,69,127
95634,note_on,1,0,0,,8,,,68,127
95748,note_off,114,0,0,,8,,,68,127
95749,note_on,1,0,0,,10,,,69,127
95863,note_off,114,0,0,,10,,,69,127
95863,note_off,0,0,0,,2,,,50,127
95864,note_on,1,0,0,,4,,,52,127
95864,note_on,0,0,0,,10,,,69,127
95920,note_off,56,0,0,,10,,,69,127
95921,note_on,1,0,0,,8,,,68,127
95977,note_off,56,0,0,,8,,,68,127
95978,note_on,1,0,0,,10,,,69,127
96034,note_off,56,0,0,,10,,,69,127
96035,note_on,1,0,0,,8,,,68,127
96091,note_off,56,0,0,,8,,,68,127
96092,note_on,1,0,0,,4,,,40,127
96092,note_on,0,0,0,,10,,,69,127
96148,note_off,56,0,0,,10,,,69,127
96149,note_on,1,0,0,,8,,,68,127
96205,note_off,56,0,0,,8,,,68,127
96206,note_on,1,0,0,,6,,,66,127
96316,note_off,110,0,0,,4,,,52,127
96320,note_off,4,0,0,,6,,,66,127
96320,note_off,0,0,0,,4,,,40,127
96321,note_on,1,0,0,,4,,,52,127
96321,note_on,0,0,0,,4,,,64,127
96435,note_off,114,0,0,,4,,,52,127
96436,note_on,1,0,0,,2,,,50,127
96550,note_off,114,0,0,,2,,,50,127
96551,note_on,1,0,0,,0,,,48,127
96665,note_off,114,0,0,,0,,,48,127
96666,note_on,1,0,0,,12,,,47,127
96780,note_off,114,0,0,,12,,,47,127
96780,note_off,0,0,0,,4,,,64,127
96781,note_on,1,0,0,,10,,,45,127
96781,note_on,0,0,0,,4,,,76,127
96896,note_on,115,0,0,,0,,,72,127
97010,note_off,114,0,0,,0,,,72,127
97011,note_on,1,0,0,,12,,,71,127
97125,note_off,114,0,0,,12,,,71,127
97126,note_on,1,0,0,,10,,,69,127
97240,note_off,114,0,0,,10,,,69,127
97240,note_off,0,0,0,,4,,,76,127
97241,note_on,1,0,0,,4,,,76,127
97356,note_on,115,0,0,,0,,,72,127
97470,note_off,114,0,0,,0,,,72,127
97470,note_off,0,0,0,,10,,,45,127
97471,note_on,1,0,0,,10,,,45,127
97471,note_on,0,0,0,,12,,,71,127
97585,note_off,114,0,0,,12,,,71,127
97586,note_on,1,0,0,,10,,,69,127
97700,note_off,114,0,0,,10,,,69,127
97700,note_off,0,0,0,,10,,,45,127
97700,note_off,0,0,0,,4,,,76,127
97701,note_on,1,0,0,,2,,,50,127
97701,note_on,0,0,0,,5,,,77,127
97816,note_on,115,0,0,,12,,,71,127
97930,note_off,114,0,0,,12,,,71,127
97931,note_on,1,0,0,,10,,,69,127
98045,note_off,114,0,0,,10,,,69,127
98046,note_on,1,0,0,,8,,,68,127
98160,note_off,114,0,0,,8,,,68,127
98160,note_off,0,0,0,,5,,,77,127
98161,note_on,1,0,0,,5,,,77,127
98276,note_on,115,0,0,,12,,,71,127
98390,note_off,114,0,0,,12,,,71,127
98390,note_off,0,0,0,,2,,,50,127
98391,note_on,1,0,0,,2,,,50,127
98391,note_on,0,0,0,,10,,,69,127
98505,note_off,114,0,0,,10,,,69,127
98506,note_on,1,0,0,,8,,,68,127
98620,note_off,114,0,0,,8,,,68,127
98620,note_off,0,0,0,,2,,,50,127
98620,note_off,0,0,0,,5,,,77,127
98621,note_on,1,0,0,,0,,,48,127
98621,note_on,0,0,0,,4,,,76,127
98736,note_on,115,0,0,,0,,,72,127
98850,note_off,114,0,0,,0,,,72,127
98850,note_off,0,0,0,,0,,,48,127
98851,note_on,1,0,0,,10,,,57,127
98851,note_on,0,0,0,,12,,,71,127
98965,note_off,114,0,0,,12,,,71,127
98966,note_on,1,0,0,,10,,,69,127
99080,note_off,114,0,0,,10,,,69,127
99080,note_off,0,0,0,,10,,,57,127
99080,note_off,0,0,0,,4,,,76,127
99081,note_on,1,0,0,,12,,,47,127
99081,note_on,0,0,0,,2,,,74,127
99196,note_on,115,0,0,,12,,,71,127
99310,note_off,114,0,0,,12,,,71,127
99310,note_off,0,0,0,,12,,,47,127
99311,note_on,1,0,0,,4,,,52,127
99311,note_on,0,0,0,,10,,,69,127
99425,note_off,114,0,0,,10,,,69,127
99426,note_on,1,0,0,,8,,,68,127
99540,note_off,114,0,0,,8,,,68,127
99540,note_off,0,0,0,,4,,,52,127
99540,note_off,0,0,0,,2,,,74,127
99541,note_on,1,0,0,,10,,,45,127
99541,note_on,0,0,0,,0,,,72,127
99656,note_on,115,0,0,,2,,,74,127
99770,note_off,114,0,0,,2,,,74,127
99770,note_off,0,0,0,,0,,,72,127
99770,note_off,0,0,0,,10,,,45,127
99771,note_on,1,0,0,,0,,,48,127
99771,note_on,0,0,0,,4,,,76,127
99885,note_off,114,0,0,,4,,,76,127
99886,note_on,1,0,0,,10,,,69,127
100000,note_off,114,0,0,,10,,,69,127
100000,note_off,0,0,0,,0,,,48,127
100001,note_on,1,0,0,,2,,,50,127
100001,note_on,0,0,0,,0,,,72,127
100057,note_off,56,0,0,,0,,,72,127
100058,note_on,1,0,0,,12,,,71,127
100114,note_off,56,0,0,,12,,,71,127
100115,note_on,1,0,0,,0,,,72,127
100171,note_off,56,0,0,,0,,,72,127
100172,note_on,1,0,0,,12,,,71,127
100228,note_off,56,0,0,,12,,,71,127
100228,note_off,0,0,0,,2,,,50,127
100229,note_on,1,0,0,,4,,,52,127
100229,note_on,0,0,0,,10,,,69,127
100343,note_off,114,0,0,,10,,,69,127
100344,note_on,1,0,0,,8,,,68,127
100458,note_off,114,0,0,,8,,,68,127
100458,note_off,0,0,0,,4,,,52,127
100459,note_on,1,0,0,,10,,,45,127
100459,note_on,0,0,0,,10,,,69,127
100688,note_off,229,0,0,,10,,,45,127
100689,note_on,1,0,0,,0,,,48,127
100918,note_off,229,0,0,,0,,,48,127
100919,note_on,1,0,0,,4,,,52,127
101148,note_off,229,0,0,,4,,,52,127
101149,note_on,1,0,0,,10,,,57,127
101378,note_off,229,0,0,,10,,,57,127
101378,note_off,0,0,0,,10,,,69,127
101379,note_on,1,0,0,,10,,,45,127
101379,note_on,0,0,0,,10,,,69,127
101493,note_off,114,0,0,,10,,,69,127
101494,note_on,1,0,0,,0,,,72,127
101608,note_off,114,0,0,,0,,,72,127
101609,note_on,1,0,0,,0,,,72,127
101723,note_off,114,0,0,,0,,,72,127
101724,note_on,1,0,0,,4,,,76,127
101838,note_off,114,0,0,,4,,,76,127
101839,note_on,1,0,0,,4,,,76,127
101953,note_off,114,0,0,,4,,,76,127
101954,note_on,1,0,0,,10,,,81,127
102068,note_off,114,0,0,,10,,,81,127
102068,note_off,0,0,0,,10,,,45,127
102069,note_on,1,0,0,,10,,,45,127
102069,note_on,0,0,0,,10,,,81,127
102184,note_on,115,0,0,,0,,,72,127
102297,note_off,113,0,0,,10,,,81,127
102298,note_off,1,0,0,,0,,,72,127
102298,note_off,0,0,0,,10,,,45,127
102299,note_on,1,0,0,,12,,,47,127
102299,note_on,0,0,0,,2,,,50,127
102299,note_on,0,0,0,,8,,,56,127
102299,note_on,0,0,0,,12,,,71,127
102413,note_off,114,0,0,,12,,,71,127
102414,note_on,1,0,0,,2,,,74,127
102528,note_off,114,0,0,,2,,,74,127
102529,note_on,1,0,0,,2,,,74,127
102643,note_off,114,0,0,,2,,,74,127
102644,note_on,1,0,0,,8,,,80,127
102758,note_off,114,0,0,,8,,,80,127
102759,note_on,1,0,0,,8,,,80,127
102873,note_off,114,0,0,,8,,,80,127
102874,note_on,1,0,0,,12,,,83,127
102988,note_off,114,0,0,,12,,,83,127
102988,note_off,0,0,0,,8,,,56,127
102988,note_off,0,0,0,,2,,,50,127
102988,note_off,0,0,0,,12,,,47,127
102989,note_on,1,0,0,,8,,,56,127
102989,note_on,0,0,0,,12,,,47,127
102989,note_on,0,0,0,,12,,,83,127
103103,note_off,114,0,0,,12,,,83,127
103104,note_on,1,0,0,,2,,,74,127
103218,note_off,114,0,0,,2,,,74,127
103218,note_off,0,0,0,,12,,,47,127
103218,note_off,0,0,0,,8,,,56,127
103219,note_on,1,0,0,,10,,,57,127
103219,note_on,0,0,0,,0,,,48,127
103219,note_on,0,0,0,,4,,,76,127
103334,note_on,115,0,0,,0,,,84,127
103448,note_off,114,0,0,,0,,,84,127
103448,note_off,0,0,0,,0,,,48,127
103449,note_on,1,0,0,,10,,,45,127
103449,note_on,0,0,0,,0,,,84,127
103555,note_off,106,0,0,,4,,,76,127
103565,note_on,10,0,0,,4,,,76,127
103678,note_off,113,0,0,,0,,,84,127
103679,note_off,1,0,0,,4,,,76,127
103679,note_off,0,0,0,,10,,,45,127
103679,note_off,0,0,0,,10,,,57,127
103680,note_on,1,0,0,,12,,,59,127
103680,note_on,0,0,0,,12,,,47,127
103680,note_on,0,0,0,,2,,,74,127
103795,note_on,115,0,0,,12,,,83,127
103909,note_off,114,0,0,,12,,,83,127
103909,note_off,0,0,0,,12,,,47,127
103910,note_on,1,0,0,,8,,,56,127
103910,note_on,0,0,0,,12,,,83,127
104025,note_off,115,0,0,,2,,,74,127
104025,note_on,0,0,0,,2,,,74,127
104138,note_off,113,0,0,,12,,,83,127
104139,note_off,1,0,0,,2,,,74,127
104139,note_off,0,0,0,,8,,,56,127
104139,note_off,0,0,0,,12,,,59,127
104140,note_on,1,0,0,,10,,,57,127
104140,note_on,0,0,0,,10,,,45,127
104140,note_on,0,0,0,,0,,,72,127
104255,note_on,115,0,0,,10,,,81,127
104369,note_off,114,0,0,,10,,,81,127
104370,note_on,1,0,0,,10,,,81,127
104485,note_off,115,0,0,,0,,,72,127
104485,note_on,0,0,0,,0,,,72,127
104598,note_off,113,0,0,,10,,,81,127
104599,note_off,1,0,0,,0,,,72,127
104599,note_off,0,0,0,,10,,,45,127
104599,note_off,0,0,0,,10,,,57,127
104600,note_on,1,0,0,,10,,,57,127
104600,note_on,0,0,0,,2,,,50,127
104600,note_on,0,0,0,,12,,,71,127
104715,note_on,115,0,0,,5,,,77,127
104829,note_off,114,0,0,,5,,,77,127
104830,note_on,1,0,0,,5,,,77,127
104945,note_off,115,0,0,,12,,,71,127
104945,note_on,0,0,0,,10,,,69,127
105058,note_off,113,0,0,,5,,,77,127
105059,note_off,1,0,0,,10,,,69,127
105059,note_off,0,0,0,,2,,,50,127
105059,note_off,0,0,0,,10,,,57,127
105060,note_on,1,0,0,,4,,,52,127
105060,note_on,0,0,0,,8,,,68,127
105175,note_on,115,0,0,,12,,,71,127
105288,note_off,113,0,0,,8,,,68,127
105289,note_off,1,0,0,,12,,,71,127
105290,note_on,1,0,0,,4,,,76,127
105405,note_on,115,0,0,,12,,,71,127
105518,note_off,113,0,0,,4,,,76,127
105519,note_off,1,0,0,,12,,,71,127
105519,note_off,0,0,0,,4,,,52,127
105520,note_on,1,0,0,,4,,,52,127
105520,note_on,0,0,0,,4,,,64,127
105634,note_off,114,0,0,,4,,,52,127
105635,note_on,1,0,0,,2,,,50,127
105749,note_off,114,0,0,,2,,,50,127
105750,note_on,1,0,0,,0,,,48,127
105864,note_off,114,0,0,,0,,,48,127
105865,note_on,1,0,0,,12,,,47,127
105979,note_off,114,0,0,,12,,,47,127
105979,note_off,0,0,0,,4,,,64,127
105980,note_on,1,0,0,,10,,,45,127
105980,note_on,0,0,0,,10,,,69,127
106094,note_off,114,0,0,,10,,,69,127
106095,note_on,1,0,0,,0,,,72,127
106209,note_off,114,0,0,,0,,,72,127
106210,note_on,1,0,0,,0,,,72,127
106324,note_off,114,0,0,,0,,,72,127
106325,note_on,1,0,0,,4,,,76,127
106439,note_off,114,0,0,,4,,,76,127
106440,note_on,1,0,0,,4,,,76,127
106554,note_off,114,0,0,,4,,,76,127
106555,note_on,1,0,0,,10,,,81,127
106669,note_off,114,0,0,,10,,,81,127
106669,note_off,0,0,0,,10,,,45,127
106670,note_on,1,0,0,,10,,,45,127
106670,note_on,0,0,0,,10,,,81,127
106785,note_on,115,0,0,,0,,,72,127
106898,note_off,113,0,0,,10,,,81,127
106899,note_off,1,0,0,,0,,,72,127
106899,note_off,0,0,0,,10,,,45,127
106900,note_on,1,0,0,,8,,,56,127
106900,note_on,0,0,0,,2,,,50,127
106900,note_on,0,0,0,,12,,,47,127
106900,note_on,0,0,0,,12,,,71,127
107014,note_off,114,0,0,,12,,,71,127
107015,note_on,1,0,0,,2,,,74,127
107129,note_off,114,0,0,,2,,,74,127
107130,note_on,1,0,0,,2,,,74,127
107244,note_off,114,0,0,,2,,,74,127
107245,note_on,1,0,0,,8,,,80,127
107359,note_off,114,0,0,,8,,,80,127
107360,note_on,1,0,0,,8,,,80,127
107474,note_off,114,0,0,,8,,,80,127
107475,note_on,1,0,0,,12,,,83,127
107589,note_off,114,0,0,,12,,,83,127
107589,note_off,0,0,0,,12,,,47,127
107589,note_off,0,0,0,,2,,,50,127
107589,note_off,0,0,0,,8,,,56,127
107590,note_on,1,0,0,,12,,,47,127
107590,note_on,0,0,0,,8,,,56,127
107590,note_on,0,0,0,,12,,,83,127
107704,note_off,114,0,0,,12,,,83,127
107705,note_on,1,0,0,,2,,,74,127
107819,note_off,114,0,0,,2,,,74,127
107819,note_off,0,0,0,,8,,,56,127
107819,note_off,0,0,0,,12,,,47,127
107820,note_on,1,0,0,,0,,,48,127
107820,note_on,0,0,0,,10,,,57,127
107820,note_on,0,0,0,,4,,,76,127
107935,note_on,115,0,0,,0,,,84,127
108048,note_off,113,0,0,,4,,,76,127
108049,note_off,1,0,0,,0,,,84,127
108049,note_off,0,0,0,,0,,,48,127
108050,note_on,1,0,0,,10,,,45,127
108050,note_on,0,0,0,,0,,,84,127
108164,note_off,114,0,0,,0,,,84,127
108165,note_on,1,0,0,,4,,,76,127
108279,note_off,114,0,0,,4,,,76,127
108279,note_off,0,0,0,,10,,,45,127
108279,note_off,0,0,0,,10,,,57,127
108280,note_on,1,0,0,,12,,,59,127
108280,note_on,0,0,0,,12,,,47,127
108280,note_on,0,0,0,,2,,,74,127
108395,note_on,115,0,0,,12,,,83,127
108508,note_off,113,0,0,,2,,,74,127
108509,note_off,1,0,0,,12,,,83,127
108509,note_off,0,0,0,,12,,,47,127
108510,note_on,1,0,0,,8,,,56,127
108510,note_on,0,0,0,,12,,,83,127
108624,note_off,114,0,0,,12,,,83,127
108625,note_on,1,0,0,,2,,,74,127
108739,note_off,114,0,0,,2,,,74,127
108739,note_off,0,0,0,,8,,,56,127
108739,note_off,0,0,0,,12,,,59,127
108740,note_on,1,0,0,,10,,,57,127
108740,note_on,0,0,0,,10,,,45,127
108740,note_on,0,0,0,,0,,,72,127
108855,note_on,115,0,0,,4,,,76,127
108968,note_off,113,0,0,,0,,,72,127
108969,note_off,1,0,0,,4,,,76,127
108969,note_off,0,0,0,,10,,,45,127
108970,note_on,1,0,0,,0,,,48,127
108970,note_on,0,0,0,,10,,,81,127
109085,note_on,115,0,0,,0,,,72,127
109198,note_off,113,0,0,,10,,,81,127
109199,note_off,1,0,0,,0,,,72,127
109199,note_off,0,0,0,,0,,,48,127
109199,note_off,0,0,0,,10,,,57,127
109200,note_on,1,0,0,,2,,,50,127
109200,note_on,0,0,0,,0,,,72,127
109314,note_off,114,0,0,,0,,,72,127
109315,note_on,1,0,0,,12,,,71,127
109429,note_off,114,0,0,,12,,,71,127
109429,note_off,0,0,0,,2,,,50,127
109430,note_on,1,0,0,,4,,,52,127
109430,note_on,0,0,0,,10,,,69,127
109544,note_off,114,0,0,,10,,,69,127
109545,note_on,1,0,0,,8,,,68,127
109659,note_off,114,0,0,,8,,,68,127
109659,note_off,0,0,0,,4,,,52,127
109660,note_on,1,0,0,,10,,,45,127
109660,note_on,0,0,0,,10,,,69,127
109889,note_off,229,0,0,,10,,,45,127
109890,note_on,1,0,0,,0,,,48,127
110119,note_off,229,0,0,,0,,,48,127
110120,note_on,1,0,0,,4,,,52,127
110349,note_off,229,0,0,,4,,,52,127
110350,note_on,1,0,0,,10,,,57,127
110579,note_off,229,0,0,,10,,,57,127
110579,note_off,0,0,0,,10,,,69,127
110580,note_on,1,0,0,,10,,,45,127
110580,note_on,0,0,0,,10,,,69,127
110657,note_on,77,0,0,,12,,,71,127
110667,note_off,10,0,0,,10,,,69,127
110734,note_on,67,0,0,,0,,,72,127
110744,note_off,10,0,0,,12,,,71,127
110806,note_off,62,0,0,,0,,,72,127
110811,note_on,5,0,0,,0,,,72,127
110888,note_on,77,0,0,,2,,,74,127
110898,note_off,10,0,0,,0,,,72,127
110965,note_on,67,0,0,,4,,,76,127
110975,note_off,10,0,0,,2,,,74,127
111037,note_off,62,0,0,,4,,,76,127
111042,note_on,5,0,0,,4,,,76,127
111119,note_on,77,0,0,,2,,,74,127
111129,note_off,10,0,0,,4,,,76,127
111196,note_on,67,0,0,,0,,,72,127
111206,note_off,10,0,0,,2,,,74,127
111268,note_off,62,0,0,,0,,,72,127
111272,note_off,4,0,0,,10,,,45,127
111273,note_on,1,0,0,,10,,,45,127
111273,note_on,0,0,0,,0,,,72,127
111350,note_on,77,0,0,,12,,,71,127
111360,note_off,10,0,0,,0,,,72,127
111427,note_on,67,0,0,,10,,,69,127
111437,note_off,10,0,0,,12,,,71,127
111499,note_off,62,0,0,,10,,,69,127
111503,note_off,4,0,0,,10,,,45,127
111504,note_on,1,0,0,,12,,,47,127
111504,note_on,0,0,0,,8,,,68,127
111581,note_on,77,0,0,,10,,,69,127
111591,note_off,10,0,0,,8,,,68,127
111658,note_on,67,0,0,,12,,,71,127
111668,note_off,10,0,0,,10,,,69,127
111730,note_off,62,0,0,,12,,,71,127
111735,note_on,5,0,0,,12,,,71,127
111812,note_on,77,0,0,,0,,,72,127
111822,note_off,10,0,0,,12,,,71,127
111889,note_on,67,0,0,,2,,,74,127
111899,note_off,10,0,0,,0,,,72,127
111961,note_off,62,0,0,,2,,,74,127
111966,note_on,5,0,0,,2,,,74,127
112043,note_on,77,0,0,,0,,,72,127
112053,note_off,10,0,0,,2,,,74,127
112120,note_on,67,0,0,,12,,,71,127
112130,note_off,10,0,0,,0,,,72,127
112192,note_off,62,0,0,,12,,,71,127
112196,note_off,4,0,0,,12,,,47,127
112197,note_on,1,0,0,,12,,,47,127
112197,note_on,0,0,0,,12,,,71,127
112274,note_on,77,0,0,,10,,,69,127
112284,note_off,10,0,0,,12,,,71,127
112351,note_on,67,0,0,,8,,,68,127
112361,note_off,10,0,0,,10,,,69,127
112423,note_off,62,0,0,,8,,,68,127
112427,note_off,4,0,0,,12,,,47,127
112428,note_on,1,0,0,,0,,,48,127
112428,note_on,0,0,0,,10,,,69,127
112505,note_on,77,0,0,,12,,,71,127
112515,note_off,10,0,0,,10,,,69,127
112582,note_on,67,0,0,,0,,,72,127
112592,note_off,10,0,0,,12,,,71,127
112654,note_off,62,0,0,,0,,,72,127
112658,note_off,4,0,0,,0,,,48,127
112659,note_on,1,0,0,,10,,,57,127
112659,note_on,0,0,0,,0,,,72,127
112736,note_on,77,0,0,,12,,,71,127
112746,note_off,10,0,0,,0,,,72,127
112813,note_on,67,0,0,,10,,,69,127
112823,note_off,10,0,0,,12,,,71,127
112885,note_off,62,0,0,,10,,,69,127
112889,note_off,4,0,0,,10,,,57,127
112890,note_on,1,0,0,,8,,,56,127
112890,note_on,0,0,0,,12,,,71,127
112967,note_on,77,0,0,,0,,,72,127
112977,note_off,10,0,0,,12,,,71,127
113044,note_on,67,0,0,,2,,,74,127
113054,note_off,10,0,0,,0,,,72,127
113116,note_off,62,0,0,,2,,,74,127
113120,note_off,4,0,0,,8,,,56,127
113121,note_on,1,0,0,,4,,,52,127
113121,note_on,0,0,0,,2,,,74,127
113198,note_on,77,0,0,,0,,,72,127
113208,note_off,10,0,0,,2,,,74,127
113275,note_on,67,0,0,,12,,,71,127
113285,note_off,10,0,0,,0,,,72,127
113347,note_off,62,0,0,,12,,,71,127
113351,note_off,4,0,0,,4,,,52,127
113352,note_on,1,0,0,,10,,,57,127
113352,note_on,0,0,0,,0,,,72,127
113429,note_on,77,0,0,,2,,,74,127
113439,note_off,10,0,0,,0,,,72,127
113506,note_on,67,0,0,,4,,,76,127
113516,note_off,10,0,0,,2,,,74,127
113578,note_off,62,0,0,,4,,,76,127
113582,note_off,4,0,0,,10,,,57,127
113583,note_on,1,0,0,,10,,,45,127
113583,note_on,0,0,0,,4,,,76,127
113660,note_on,77,0,0,,2,,,74,127
113670,note_off,10,0,0,,4,,,76,127
113737,note_on,67,0,0,,0,,,72,127
113747,note_off,10,0,0,,2,,,74,127
113809,note_off,62,0,0,,0,,,72,127
113813,note_off,4,0,0,,10,,,45,127
113814,note_on,1,0,0,,2,,,50,127
113814,note_on,0,0,0,,12,,,71,127
113891,note_on,77,0,0,,0,,,72,127
113901,note_off,10,0,0,,12,,,71,127
113968,note_on,67,0,0,,2,,,74,127
113978,note_off,10,0,0,,0,,,72,127
114040,note_off,62,0,0,,2,,,74,127
114044,note_off,4,0,0,,2,,,50,127
114045,note_on,1,0,0,,10,,,45,127
114045,note_on,0,0,0,,0,,,72,127
114122,note_on,77,0,0,,12,,,71,127
114132,note_off,10,0,0,,0,,,72,127
114199,note_on,67,0,0,,10,,,69,127
114209,note_off,10,0,0,,12,,,71,127
114271,note_off,62,0,0,,10,,,69,127
114275,note_off,4,0,0,,10,,,45,127
114276,note_on,1,0,0,,4,,,52,127
114276,note_on,0,0,0,,8,,,68,127
114353,note_on,77,0,0,,10,,,69,127
114363,note_off,10,0,0,,8,,,68,127
114430,note_on,67,0,0,,12,,,71,127
114440,note_off,10,0,0,,10,,,69,127
114502,note_off,62,0,0,,12,,,71,127
114507,note_on,5,0,0,,12,,,71,127
114584,note_on,77,0,0,,0,,,72,127
114594,note_off,10,0,0,,12,,,71,127
114661,note_on,67,0,0,,2,,,74,127
114671,note_off,10,0,0,,0,,,72,127
114733,note_off,62,0,0,,2,,,74,127
114737,note_off,4,0,0,,4,,,52,127
114738,note_on,1,0,0,,4,,,52,127
114738,note_on,0,0,0,,5,,,65,127
114796,note_on,58,0,0,,4,,,64,127
114815,note_off,19,0,0,,5,,,65,127
114852,note_off,37,0,0,,4,,,52,127
114853,note_on,1,0,0,,2,,,50,127
114853,note_on,0,0,0,,5,,,65,127
114872,note_off,19,0,0,,4,,,64,127
114910,note_on,38,0,0,,4,,,64,127
114929,note_off,19,0,0,,5,,,65,127
114966,note_off,37,0,0,,2,,,50,127
114967,note_on,1,0,0,,0,,,48,127
114967,note_on,0,0,0,,5,,,65,127
114986,note_off,19,0,0,,4,,,64,127
115024,note_on,38,0,0,,4,,,64,127
115043,note_off,19,0,0,,5,,,65,127
115080,note_off,37,0,0,,0,,,48,127
115081,note_on,1,0,0,,12,,,47,127
115081,note_on,0,0,0,,5,,,65,127
115100,note_off,19,0,0,,4,,,64,127
115138,note_on,38,0,0,,4,,,64,127
115157,note_off,19,0,0,,5,,,65,127
115194,note_off,37,0,0,,4,,,64,127
115194,note_off,0,0,0,,12,,,47,127
115195,note_on,1,0,0,,10,,,45,127
115195,note_on,0,0,0,,10,,,69,127
115272,note_on,77,0,0,,12,,,71,127
115282,note_off,10,0,0,,10,,,69,127
115349,note_on,67,0,0,,0,,,72,127
115359,note_off,10,0,0,,12,,,71,127
115421,note_off,62,0,0,,0,,,72,127
115426,note_on,5,0,0,,0,,,72,127
115503,note_on,77,0,0,,2,,,74,127
115513,note_off,10,0,0,,0,,,72,127
115580,note_on,67,0,0,,4,,,76,127
115590,note_off,10,0,0,,2,,,74,127
115652,note_off,62,0,0,,4,,,76,127
115657,note_on,5,0,0,,4,,,76,127
115734,note_on,77,0,0,,2,,,74,127
115744,note_off,10,0,0,,4,,,76,127
115811,note_on,67,0,0,,0,,,72,127
115821,note_off,10,0,0,,2,,,74,127
115883,note_off,62,0,0,,0,,,72,127
115887,note_off,4,0,0,,10,,,45,127
115888,note_on,1,0,0,,10,,,45,127
115888,note_on,0,0,0,,0,,,72,127
115965,note_on,77,0,0,,12,,,71,127
115975,note_off,10,0,0,,0,,,72,127
116042,note_on,67,0,0,,10,,,69,127
116052,note_off,10,0,0,,12,,,71,127
116114,note_off,62,0,0,,10,,,69,127
116118,note_off,4,0,0,,10,,,45,127
116119,note_on,1,0,0,,12,,,47,127
116119,note_on,0,0,0,,8,,,68,127
116196,note_on,77,0,0,,10,,,69,127
116206,note_off,10,0,0,,8,,,68,127
116273,note_on,67,0,0,,12,,,71,127
116283,note_off,10,0,0,,10,,,69,127
116345,note_off,62,0,0,,12,,,71,127
116350,note_on,5,0,0,,12,,,71,127
116427,note_on,77,0,0,,0,,,72,127
116437,note_off,10,0,0,,12,,,71,127
116504,note_on,67,0,0,,2,,,74,127
116514,note_off,10,0,0,,0,,,72,127
116576,note_off,62,0,0,,2,,,74,127
116581,note_on,5,0,0,,2,,,74,127
116658,note_on,77,0,0,,0,,,72,127
116668,note_off,10,0,0,,2,,,74,127
116735,note_on,67,0,0,,12,,,71,127
116745,note_off,10,0,0,,0,,,72,127
116807,note_off,62,0,0,,12,,,71,127
116811,note_off,4,0,0,,12,,,47,127
116812,note_on,1,0,0,,12,,,47,127
116812,note_on,0,0,0,,12,,,71,127
116889,note_on,77,0,0,,10,,,69,127
116899,note_off,10,0,0,,12,,,71,127
116966,note_on,67,0,0,,8,,,68,127
116976,note_off,10,0,0,,10,,,69,127
117038,note_off,62,0,0,,8,,,68,127
117042,note_off,4,0,0,,12,,,47,127
117043,note_on,1,0,0,,0,,,48,127
117043,note_on,0,0,0,,10,,,69,127
117120,note_on,77,0,0,,12,,,71,127
117130,note_off,10,0,0,,10,,,69,127
117197,note_on,67,0,0,,0,,,72,127
117207,note_off,10,0,0,,12,,,71,127
117269,note_off,62,0,0,,0,,,72,127
117273,note_off,4,0,0,,0,,,48,127
117274,note_on,1,0,0,,10,,,57,127
117274,note_on,0,0,0,,0,,,72,127
117351,note_on,77,0,0,,12,,,71,127
117361,note_off,10,0,0,,0,,,72,127
117428,note_on,67,0,0,,10,,,69,127
117438,note_off,10,0,0,,12,,,71,127
117500,note_off,62,0,0,,10,,,69,127
117504,note_off,4,0,0,,10,,,57,127
117505,note_on,1,0,0,,8,,,56,127
117505,note_on,0,0,0,,12,,,71,127
117582,note_on,77,0,0,,0,,,72,127
117592,note_off,10,0,0,,12,,,71,127
117659,note_on,67,0,0,,2,,,74,127
117669,note_off,10,0,0,,0,,,72,127
117731,note_off,62,0,0,,2,,,74,127
117735,note_off,4,0,0,,8,,,56,127
117736,note_on,1,0,0,,4,,,52,127
117736,note_on,0,0,0,,2,,,74,127
117813,note_on,77,0,0,,0,,,72,127
117823,note_off,10,0,0,,2,,,74,127
117890,note_on,67,0,0,,12,,,71,127
117900,note_off,10,0,0,,0,,,72,127
117962,note_off,62,0,0,,12,,,71,127
117966,note_off,4,0,0,,4,,,52,127
117967,note_on,1,0,0,,10,,,57,127
117967,note_on,0,0,0,,0,,,72,127
118044,note_on,77,0,0,,4,,,76,127
118054,note_off,10,0,0,,0,,,72,127
118121,note_on,67,0,0,,2,,,74,127
118131,note_off,10,0,0,,4,,,76,127
118193,note_off,62,0,0,,2,,,74,127
118197,note_off,4,0,0,,10,,,57,127
118198,note_on,1,0,0,,0,,,48,127
118198,note_on,0,0,0,,0,,,72,127
118275,note_on,77,0,0,,12,,,71,127
118285,note_off,10,0,0,,0,,,72,127
118352,note_on,67,0,0,,10,,,69,127
118362,note_off,10,0,0,,12,,,71,127
118424,note_off,62,0,0,,10,,,69,127
118428,note_off,4,0,0,,0,,,48,127
118429,note_on,1,0,0,,2,,,50,127
118429,note_on,0,0,0,,12,,,71,127
118506,note_on,77,0,0,,2,,,74,127
118516,note_off,10,0,0,,12,,,71,127
118583,note_on,67,0,0,,0,,,72,127
118593,note_off,10,0,0,,2,,,74,127
118655,note_off,62,0,0,,0,,,72,127
118659,note_off,4,0,0,,2,,,50,127
118660,note_on,1,0,0,,4,,,52,127
118660,note_on,0,0,0,,12,,,71,127
118737,note_on,77,0,0,,10,,,69,127
118747,note_off,10,0,0,,12,,,71,127
118814,note_on,67,0,0,,8,,,68,127
118824,note_off,10,0,0,,10,,,69,127
118886,note_off,62,0,0,,8,,,68,127
118890,note_off,4,0,0,,4,,,52,127
118891,note_on,1,0,0,,10,,,45,127
118891,note_on,0,0,0,,10,,,69,127
119120,note_off,229,0,0,,10,,,45,127
119121,note_on,1,0,0,,0,,,48,127
119350,note_off,229,0,0,,0,,,48,127
119351,note_on,1,0,0,,4,,,52,127
119580,note_off,229,0,0,,4,,,52,127
119581,note_on,1,0,0,,10,,,57,127
119810,note_off,229,0,0,,10,,,57,127
119810,note_off,0,0,0,,10,,,69,127
119811,note_on,1,0,0,,10,,,57,127
119811,note_on,0,0,0,,4,,,76,127
119811,note_on,0,0,0,,0,,,72,127
119877,note_off,66,0,0,,10,,,57,127
119888,note_on,11,0,0,,12,,,59,127
119954,note_off,66,0,0,,12,,,59,127
119965,note_on,11,0,0,,0,,,60,127
120031,note_off,66,0,0,,0,,,60,127
120041,note_off,10,0,0,,0,,,72,127
120041,note_off,0,0,0,,4,,,76,127
120042,note_on,1,0,0,,0,,,60,127
120042,note_on,0,0,0,,10,,,69,127
120042,note_on,0,0,0,,0,,,72,127
120108,note_off,66,0,0,,0,,,60,127
120119,note_on,11,0,0,,2,,,62,127
120185,note_off,66,0,0,,2,,,62,127
120196,note_on,11,0,0,,4,,,64,127
120262,note_off,66,0,0,,4,,,64,127
120272,note_off,10,0,0,,0,,,72,127
120272,note_off,0,0,0,,10,,,69,127
120273,note_on,1,0,0,,4,,,64,127
120273,note_on,0,0,0,,8,,,68,127
120273,note_on,0,0,0,,12,,,71,127
120339,note_off,66,0,0,,4,,,64,127
120350,note_on,11,0,0,,2,,,62,127
120416,note_off,66,0,0,,2,,,62,127
120427,note_on,11,0,0,,0,,,60,127
120493,note_off,66,0,0,,0,,,60,127
120503,note_off,10,0,0,,12,,,71,127
120503,note_off,0,0,0,,8,,,68,127
120504,note_on,1,0,0,,0,,,60,127
120504,note_on,0,0,0,,0,,,72,127
120504,note_on,0,0,0,,10,,,69,127
120570,note_off,66,0,0,,0,,,60,127
120581,note_on,11,0,0,,12,,,59,127
120647,note_off,66,0,0,,12,,,59,127
120658,note_on,11,0,0,,10,,,57,127
120724,note_off,66,0,0,,10,,,57,127
120734,note_off,10,0,0,,10,,,69,127
120734,note_off,0,0,0,,0,,,72,127
120735,note_on,1,0,0,,8,,,56,127
120735,note_on,0,0,0,,2,,,74,127
120735,note_on,0,0,0,,12,,,71,127
120801,note_off,66,0,0,,8,,,56,127
120812,note_on,11,0,0,,10,,,57,127
120878,note_off,66,0,0,,10,,,57,127
120889,note_on,11,0,0,,12,,,59,127
120955,note_off,66,0,0,,12,,,59,127
120965,note_off,10,0,0,,12,,,71,127
120965,note_off,0,0,0,,2,,,74,127
120966,note_on,1,0,0,,12,,,59,127
120966,note_on,0,0,0,,8,,,68,127
120966,note_on,0,0,0,,12,,,71,127
121032,note_off,66,0,0,,12,,,59,127
121043,note_on,11,0,0,,0,,,60,127
121109,note_off,66,0,0,,0,,,60,127
121120,note_on,11,0,0,,2,,,62,127
121186,note_off,66,0,0,,2,,,62,127
121196,note_off,10,0,0,,12,,,71,127
121196,note_off,0,0,0,,8,,,68,127
121197,note_on,1,0,0,,2,,,62,127
121197,note_on,0,0,0,,12,,,71,127
121197,note_on,0,0,0,,8,,,68,127
121263,note_off,66,0,0,,2,,,62,127
121274,note_on,11,0,0,,0,,,60,127
121340,note_off,66,0,0,,0,,,60,127
121351,note_on,11,0,0,,12,,,59,127
121417,note_off,66,0,0,,12,,,59,127
121427,note_off,10,0,0,,8,,,68,127
121427,note_off,0,0,0,,12,,,71,127
121428,note_on,1,0,0,,12,,,59,127
121428,note_on,0,0,0,,2,,,74,127
121428,note_on,0,0,0,,12,,,71,127
121494,note_off,66,0,0,,12,,,59,127
121505,note_on,11,0,0,,10,,,57,127
121571,note_off,66,0,0,,10,,,57,127
121582,note_on,11,0,0,,8,,,56,127
121648,note_off,66,0,0,,8,,,56,127
121658,note_off,10,0,0,,12,,,71,127
121658,note_off,0,0,0,,2,,,74,127
121659,note_on,1,0,0,,10,,,57,127
121659,note_on,0,0,0,,10,,,69,127
121659,note_on,0,0,0,,0,,,72,127
121725,note_off,66,0,0,,10,,,57,127
121736,note_on,11,0,0,,12,,,59,127
121802,note_off,66,0,0,,12,,,59,127
121813,note_on,11,0,0,,0,,,60,127
121879,note_off,66,0,0,,0,,,60,127
121889,note_off,10,0,0,,0,,,72,127
121889,note_off,0,0,0,,10,,,69,127
121890,note_on,1,0,0,,0,,,60,127
121890,note_on,0,0,0,,4,,,76,127
121890,note_on,0,0,0,,10,,,69,127
121956,note_off,66,0,0,,0,,,60,127
121967,note_on,11,0,0,,12,,,59,127
122033,note_off,66,0,0,,12,,,59,127
122044,note_on,11,0,0,,10,,,57,127
122110,note_off,66,0,0,,10,,,57,127
122120,note_off,10,0,0,,10,,,69,127
122120,note_off,0,0,0,,4,,,76,127
122121,note_on,1,0,0,,12,,,59,127
122121,note_on,0,0,0,,2,,,74,127
122121,note_on,0,0,0,,8,,,68,127
122187,note_off,66,0,0,,12,,,59,127
122198,note_on,11,0,0,,0,,,60,127
122264,note_off,66,0,0,,0,,,60,127
122275,note_on,11,0,0,,2,,,62,127
122341,note_off,66,0,0,,2,,,62,127
122351,note_off,10,0,0,,8,,,68,127
122351,note_off,0,0,0,,2,,,74,127
122352,note_on,1,0,0,,2,,,62,127
122352,note_on,0,0,0,,8,,,68,127
122352,note_on,0,0,0,,5,,,77,127
122418,note_off,66,0,0,,2,,,62,127
122429,note_on,11,0,0,,0,,,60,127
122495,note_off,66,0,0,,0,,,60,127
122506,note_on,11,0,0,,12,,,59,127
122572,note_off,66,0,0,,12,,,59,127
122582,note_off,10,0,0,,5,,,77,127
122582,note_off,0,0,0,,8,,,68,127
122583,note_on,1,0,0,,0,,,60,127
122583,note_on,0,0,0,,4,,,76,127
122583,note_on,0,0,0,,10,,,69,127
122649,note_off,66,0,0,,0,,,60,127
122660,note_on,11,0,0,,12,,,59,127
122726,note_off,66,0,0,,12,,,59,127
122737,note_on,11,0,0,,10,,,57,127
122803,note_off,66,0,0,,10,,,57,127
122813,note_off,10,0,0,,10,,,69,127
122813,note_off,0,0,0,,4,,,76,127
122814,note_on,1,0,0,,10,,,57,127
122814,note_on,0,0,0,,0,,,72,127
122814,note_on,0,0,0,,4,,,76,127
122880,note_off,66,0,0,,10,,,57,127
122891,note_on,11,0,0,,12,,,59,127
122957,note_off,66,0,0,,12,,,59,127
122968,note_on,11,0,0,,0,,,60,127
123034,note_off,66,0,0,,0,,,60,127
123044,note_off,10,0,0,,4,,,76,127
123044,note_off,0,0,0,,0,,,72,127
123045,note_on,1,0,0,,2,,,62,127
123045,note_on,0,0,0,,2,,,74,127
123045,note_on,0,0,0,,12,,,71,127
123111,note_off,66,0,0,,2,,,62,127
123122,note_on,11,0,0,,0,,,60,127
123188,note_off,66,0,0,,0,,,60,127
123199,note_on,11,0,0,,2,,,62,127
123265,note_off,66,0,0,,2,,,62,127
123275,note_off,10,0,0,,12,,,71,127
123275,note_off,0,0,0,,2,,,74,127
123276,note_on,1,0,0,,12,,,59,127
123276,note_on,0,0,0,,0,,,72,127
123276,note_on,0,0,0,,10,,,69,127
123342,note_off,66,0,0,,12,,,59,127
123353,note_on,11,0,0,,0,,,60,127
123419,note_off,66,0,0,,0,,,60,127
123430,note_on,11,0,0,,2,,,62,127
123496,note_off,66,0,0,,2,,,62,127
123506,note_off,10,0,0,,10,,,69,127
123506,note_off,0,0,0,,0,,,72,127
123507,note_on,1,0,0,,4,,,64,127
123507,note_on,0,0,0,,0,,,72,127
123507,note_on,0,0,0,,10,,,69,127
123736,note_off,229,0,0,,10,,,69,127
123736,note_off,0,0,0,,0,,,72,127
123737,note_on,1,0,0,,4,,,52,127
123737,note_on,0,0,0,,8,,,68,127
123737,note_on,0,0,0,,12,,,71,127
123851,note_off,114,0,0,,12,,,71,127
123851,note_off,0,0,0,,8,,,68,127
123852,note_on,1,0,0,,10,,,69,127
123852,note_on,0,0,0,,6,,,66,127
123966,note_off,114,0,0,,6,,,66,127
123966,note_off,0,0,0,,10,,,69,127
123966,note_off,0,0,0,,4,,,52,127
123966,note_off,0,0,0,,4,,,64,127
123967,note_on,1,0,0,,4,,,64,127
123967,note_on,0,0,0,,12,,,71,127
123967,note_on,0,0,0,,8,,,68,127
124081,note_off,114,0,0,,4,,,64,127
124082,note_on,1,0,0,,2,,,62,127
124196,note_off,114,0,0,,2,,,62,127
124197,note_on,1,0,0,,0,,,60,127
124311,note_off,114,0,0,,0,,,60,127
124312,note_on,1,0,0,,12,,,59,127
124426,note_off,114,0,0,,12,,,59,127
124426,note_off,0,0,0,,8,,,68,127
124426,note_off,0,0,0,,12,,,71,127
124427,note_on,1,0,0,,10,,,57,127
124427,note_on,0,0,0,,0,,,72,127
124427,note_on,0,0,0,,4,,,76,127
124493,note_off,66,0,0,,10,,,57,127
124504,note_on,11,0,0,,12,,,59,127
124570,note_off,66,0,0,,12,,,59,127
124581,note_on,11,0,0,,0,,,60,127
124647,note_off,66,0,0,,0,,,60,127
124657,note_off,10,0,0,,4,,,76,127
124657,note_off,0,0,0,,0,,,72,127
124658,note_on,1,0,0,,0,,,60,127
124658,note_on,0,0,0,,0,,,72,127
124658,note_on,0,0,0,,10,,,69,127
124724,note_off,66,0,0,,0,,,60,127
124735,note_on,11,0,0,,2,,,62,127
124801,note_off,66,0,0,,2,,,62,127
124812,note_on,11,0,0,,4,,,64,127
124878,note_off,66,0,0,,4,,,64,127
124888,note_off,10,0,0,,10,,,69,127
124888,note_off,0,0,0,,0,,,72,127
124889,note_on,1,0,0,,4,,,64,127
124889,note_on,0,0,0,,8,,,68,127
124889,note_on,0,0,0,,12,,,71,127
124955,note_off,66,0,0,,4,,,64,127
124966,note_on,11,0,0,,2,,,62,127
125032,note_off,66,0,0,,2,,,62,127
125043,note_on,11,0,0,,0,,,60,127
125109,note_off,66,0,0,,0,,,60,127
125119,note_off,10,0,0,,12,,,71,127
125119,note_off,0,0,0,,8,,,68,127
125120,note_on,1,0,0,,0,,,60,127
125120,note_on,0,0,0,,0,,,72,127
125120,note_on,0,0,0,,10,,,69,127
125186,note_off,66,0,0,,0,,,60,127
125197,note_on,11,0,0,,12,,,59,127
125263,note_off,66,0,0,,12,,,59,127
125274,note_on,11,0,0,,10,,,57,127
125340,note_off,66,0,0,,10,,,57,127
125350,note_off,10,0,0,,10,,,69,127
125350,note_off,0,0,0,,0,,,72,127
125351,note_on,1,0,0,,8,,,56,127
125351,note_on,0,0,0,,2,,,74,127
125351,note_on,0,0,0,,12,,,71,127
125417,note_off,66,0,0,,8,,,56,127
125428,note_on,11,0,0,,10,,,57,127
125494,note_off,66,0,0,,10,,,57,127
125505,note_on,11,0,0,,12,,,59,127
125571,note_off,66,0,0,,12,,,59,127
125581,note_off,10,0,0,,12,,,71,127
125581,note_off,0,0,0,,2,,,74,127
125582,note_on,1,0,0,,12,,,59,127
125582,note_on,0,0,0,,8,,,68,127
125582,note_on,0,0,0,,12,,,71,127
125648,note_off,66,0,0,,12,,,59,127
125659,note_on,11,0,0,,0,,,60,127
125725,note_off,66,0,0,,0,,,60,127
125736,note_on,11,0,0,,2,,,62,127
125802,note_off,66,0,0,,2,,,62,127
125812,note_off,10,0,0,,12,,,71,127
125812,note_off,0,0,0,,8,,,68,127
125813,note_on,1,0,0,,2,,,62,127
125813,note_on,0,0,0,,12,,,71,127
125813,note_on,0,0,0,,8,,,68,127
125879,note_off,66,0,0,,2,,,62,127
125890,note_on,11,0,0,,0,,,60,127
125956,note_off,66,0,0,,0,,,60,127
125967,note_on,11,0,0,,12,,,59,127
126033,note_off,66,0,0,,12,,,59,127
126043,note_off,10,0,0,,8,,,68,127
126043,note_off,0,0,0,,12,,,71,127
126044,note_on,1,0,0,,12,,,59,127
126044,note_on,0,0,0,,2,,,74,127
126044,note_on,0,0,0,,12,,,71,127
126110,note_off,66,0,0,,12,,,59,127
126121,note_on,11,0,0,,10,,,57,127
126187,note_off,66,0,0,,10,,,57,127
126198,note_on,11,0,0,,8,,,56,127
126264,note_off,66,0,0,,8,,,56,127
126274,note_off,10,0,0,,12,,,71,127
126274,note_off,0,0,0,,2,,,74,127
126275,note_on,1,0,0,,10,,,57,127
126275,note_on,0,0,0,,0,,,72,127
126275,note_on,0,0,0,,10,,,69,127
126341,note_off,66,0,0,,10,,,57,127
126352,note_on,11,0,0,,12,,,59,127
126418,note_off,66,0,0,,12,,,59,127
126429,note_on,11,0,0,,0,,,60,127
126495,note_off,66,0,0,,0,,,60,127
126505,note_off,10,0,0,,10,,,69,127
126505,note_off,0,0,0,,0,,,72,127
126506,note_on,1,0,0,,0,,,60,127
126506,note_on,0,0,0,,4,,,76,127
126506,note_on,0,0,0,,0,,,72,127
126572,note_off,66,0,0,,0,,,60,127
126583,note_on,11,0,0,,12,,,59,127
126649,note_off,66,0,0,,12,,,59,127
126660,note_on,11,0,0,,10,,,57,127
126726,note_off,66,0,0,,10,,,57,127
126736,note_off,10,0,0,,0,,,72,127
126736,note_off,0,0,0,,4,,,76,127
126737,note_on,1,0,0,,12,,,59,127
126737,note_on,0,0,0,,2,,,74,127
126803,note_off,66,0,0,,12,,,59,127
126813,note_off,10,0,0,,2,,,74,127
126814,note_on,1,0,0,,0,,,60,127
126814,note_on,0,0,0,,0,,,72,127
126880,note_off,66,0,0,,0,,,60,127
126890,note_off,10,0,0,,0,,,72,127
126891,note_on,1,0,0,,2,,,62,127
126891,note_on,0,0,0,,12,,,71,127
126957,note_off,66,0,0,,2,,,62,127
126967,note_off,10,0,0,,12,,,71,127
126968,note_on,1,0,0,,2,,,62,127
126968,note_on,0,0,0,,12,,,71,127
127034,note_off,66,0,0,,2,,,62,127
127044,note_off,10,0,0,,12,,,71,127
127045,note_on,1,0,0,,0,,,60,127
127045,note_on,0,0,0,,0,,,72,127
127111,note_off,66,0,0,,0,,,60,127
127121,note_off,10,0,0,,0,,,72,127
127122,note_on,1,0,0,,12,,,59,127
127122,note_on,0,0,0,,2,,,74,127
127188,note_off,66,0,0,,12,,,59,127
127198,note_off,10,0,0,,2,,,74,127
127199,note_on,1,0,0,,0,,,60,127
127199,note_on,0,0,0,,0,,,72,127
127275,note_off,76,0,0,,0,,,72,127
127276,note_on,1,0,0,,10,,,81,127
127352,note_off,76,0,0,,10,,,81,127
127353,note_on,1,0,0,,7,,,79,127
127429,note_off,76,0,0,,7,,,79,127
127429,note_off,0,0,0,,0,,,60,127
127430,note_on,1,0,0,,2,,,62,127
127430,note_on,0,0,0,,5,,,77,127
127506,note_off,76,0,0,,5,,,77,127
127507,note_on,1,0,0,,4,,,76,127
127583,note_off,76,0,0,,4,,,76,127
127584,note_on,1,0,0,,2,,,74,127
127660,note_off,76,0,0,,2,,,74,127
127660,note_off,0,0,0,,2,,,62,127
127661,note_on,1,0,0,,4,,,64,127
127661,note_on,0,0,0,,10,,,69,127
127661,note_on,0,0,0,,0,,,72,127
127890,note_off,229,0,0,,0,,,72,127
127890,note_off,0,0,0,,10,,,69,127
127891,note_on,1,0,0,,4,,,52,127
127891,note_on,0,0,0,,12,,,71,127
127891,note_on,0,0,0,,8,,,68,127
128120,note_off,229,0,0,,8,,,68,127
128120,note_off,0,0,0,,12,,,71,127
128120,note_off,0,0,0,,4,,,52,127
128120,note_off,0,0,0,,4,,,64,127
128121,note_on,1,0,0,,10,,,57,127
128121,note_on,0,0,0,,10,,,69,127
128350,note_off,229,0,0,,10,,,57,127
128351,note_on,1,0,0,,4,,,52,127
128580,note_off,229,0,0,,4,,,52,127
128581,note_on,1,0,0,,0,,,48,127
128810,note_off,229,0,0,,0,,,48,127
128811,note_on,1,0,0,,10,,,45,127
129040,note_off,229,0,0,,10,,,45,127
129040,note_off,0,0,0,,10,,,69,127
129041,note_on,1,0,0,,10,,,45,127
129041,note_on,0,0,0,,10,,,57,127
129041,note_on,0,0,0,,10,,,69,127
129156,note_on,115,0,0,,4,,,64,127
129270,note_off,114,0,0,,4,,,64,127
129271,note_on,1,0,0,,6,,,66,127
129385,note_off,114,0,0,,6,,,66,127
129386,note_on,1,0,0,,8,,,68,127
129500,note_off,114,0,0,,8,,,68,127
129500,note_off,0,0,0,,10,,,69,127
129501,note_on,1,0,0,,10,,,69,127
129615,note_off,114,0,0,,10,,,69,127
129616,note_on,1,0,0,,12,,,71,127
129730,note_off,114,0,0,,12,,,71,127
129731,note_on,1,0,0,,0,,,72,127
129845,note_off,114,0,0,,0,,,72,127
129846,note_on,1,0,0,,2,,,74,127
129960,note_off,114,0,0,,2,,,74,127
129960,note_off,0,0,0,,10,,,57,127
129960,note_off,0,0,0,,10,,,45,127
129961,note_on,1,0,0,,10,,,45,127
129961,note_on,0,0,0,,4,,,76,127
129961,note_on,0,0,0,,0,,,72,127
130075,note_off,114,0,0,,10,,,45,127
130076,note_on,1,0,0,,12,,,47,127
130190,note_off,114,0,0,,12,,,47,127
130191,note_on,1,0,0,,0,,,48,127
130305,note_off,114,0,0,,0,,,48,127
130306,note_on,1,0,0,,2,,,50,127
130420,note_off,114,0,0,,2,,,50,127
130421,note_on,1,0,0,,4,,,52,127
130535,note_off,114,0,0,,4,,,52,127
130536,note_on,1,0,0,,6,,,54,127
130650,note_off,114,0,0,,6,,,54,127
130651,note_on,1,0,0,,8,,,56,127
130765,note_off,114,0,0,,8,,,56,127
130766,note_on,1,0,0,,10,,,57,127
130880,note_off,114,0,0,,10,,,57,127
130880,note_off,0,0,0,,0,,,72,127
130880,note_off,0,0,0,,4,,,76,127
130881,note_on,1,0,0,,12,,,47,127
130881,note_on,0,0,0,,2,,,74,127
130996,note_on,115,0,0,,2,,,62,127
131110,note_off,114,0,0,,2,,,62,127
131111,note_on,1,0,0,,4,,,64,127
131225,note_off,114,0,0,,4,,,64,127
131226,note_on,1,0,0,,6,,,66,127
131340,note_off,114,0,0,,6,,,66,127
131341,note_on,1,0,0,,8,,,68,127
131455,note_off,114,0,0,,8,,,68,127
131456,note_on,1,0,0,,10,,,69,127
131570,note_off,114,0,0,,10,,,69,127
131571,note_on,1,0,0,,12,,,71,127
131685,note_off,114,0,0,,12,,,71,127
131686,note_on,1,0,0,,0,,,72,127
131800,note_off,114,0,0,,0,,,72,127
131800,note_off,0,0,0,,2,,,74,127
131800,note_off,0,0,0,,12,,,47,127
131801,note_on,1,0,0,,12,,,47,127
131801,note_on,0,0,0,,2,,,74,127
131801,note_on,0,0,0,,12,,,71,127
131915,note_off,114,0,0,,12,,,47,127
131916,note_on,1,0,0,,0,,,48,127
132030,note_off,114,0,0,,0,,,48,127
132031,note_on,1,0,0,,2,,,50,127
132145,note_off,114,0,0,,2,,,50,127
132146,note_on,1,0,0,,4,,,52,127
132260,note_off,114,0,0,,4,,,52,127
132261,note_on,1,0,0,,6,,,54,127
132375,note_off,114,0,0,,6,,,54,127
132376,note_on,1,0,0,,8,,,56,127
132490,note_off,114,0,0,,8,,,56,127
132491,note_on,1,0,0,,10,,,57,127
132605,note_off,114,0,0,,10,,,57,127
132606,note_on,1,0,0,,12,,,59,127
132720,note_off,114,0,0,,12,,,59,127
132720,note_off,0,0,0,,12,,,71,127
132720,note_off,0,0,0,,2,,,74,127
132721,note_on,1,0,0,,0,,,48,127
132721,note_on,0,0,0,,0,,,72,127
132721,note_on,0,0,0,,4,,,76,127
132835,note_off,114,0,0,,0,,,48,127
132836,note_on,1,0,0,,0,,,60,127
132950,note_off,114,0,0,,0,,,60,127
132951,note_on,1,0,0,,12,,,59,127
133065,note_off,114,0,0,,12,,,59,127
133066,note_on,1,0,0,,0,,,60,127
133180,note_off,114,0,0,,0,,,60,127
133180,note_off,0,0,0,,4,,,76,127
133180,note_off,0,0,0,,0,,,72,127
133181,note_on,1,0,0,,0,,,48,127
133181,note_on,0,0,0,,10,,,81,127
133181,note_on,0,0,0,,10,,,69,127
133295,note_off,114,0,0,,0,,,48,127
133296,note_on,1,0,0,,0,,,60,127
133410,note_off,114,0,0,,0,,,60,127
133411,note_on,1,0,0,,12,,,59,127
133525,note_off,114,0,0,,12,,,59,127
133526,note_on,1,0,0,,10,,,57,127
133640,note_off,114,0,0,,10,,,57,127
133640,note_off,0,0,0,,10,,,69,127
133640,note_off,0,0,0,,10,,,81,127
133641,note_on,1,0,0,,12,,,47,127
133641,note_on,0,0,0,,12,,,71,127
133641,note_on,0,0,0,,2,,,74,127
133755,note_off,114,0,0,,12,,,47,127
133756,note_on,1,0,0,,12,,,59,127
133870,note_off,114,0,0,,12,,,59,127
133871,note_on,1,0,0,,10,,,57,127
133985,note_off,114,0,0,,10,,,57,127
133986,note_on,1,0,0,,12,,,59,127
134100,note_off,114,0,0,,12,,,59,127
134100,note_off,0,0,0,,2,,,74,127
134100,note_off,0,0,0,,12,,,71,127
134101,note_on,1,0,0,,12,,,47,127
134101,note_on,0,0,0,,12,,,71,127
134101,note_on,0,0,0,,2,,,74,127
134215,note_off,114,0,0,,12,,,47,127
134216,note_on,1,0,0,,12,,,59,127
134330,note_off,114,0,0,,12,,,59,127
134331,note_on,1,0,0,,10,,,57,127
134445,note_off,114,0,0,,10,,,57,127
134446,note_on,1,0,0,,8,,,56,127
134560,note_off,114,0,0,,8,,,56,127
134560,note_off,0,0,0,,2,,,74,127
134560,note_off,0,0,0,,12,,,71,127
134561,note_on,1,0,0,,10,,,57,127
134561,note_on,0,0,0,,2,,,74,127
134676,note_on,115,0,0,,0,,,72,127
134734,note_off,58,0,0,,2,,,74,127
134790,note_off,56,0,0,,0,,,72,127
134791,note_on,1,0,0,,12,,,71,127
134905,note_off,114,0,0,,12,,,71,127
134906,note_on,1,0,0,,0,,,72,127
135020,note_off,114,0,0,,0,,,72,127
135020,note_off,0,0,0,,10,,,57,127
135021,note_on,1,0,0,,2,,,50,127
135021,note_on,0,0,0,,2,,,74,127
135136,note_on,115,0,0,,0,,,72,127
135194,note_off,58,0,0,,2,,,74,127
135250,note_off,56,0,0,,0,,,72,127
135251,note_on,1,0,0,,12,,,71,127
135365,note_off,114,0,0,,12,,,71,127
135366,note_on,1,0,0,,10,,,69,127
135480,note_off,114,0,0,,10,,,69,127
135480,note_off,0,0,0,,2,,,50,127
135481,note_on,1,0,0,,4,,,52,127
135481,note_on,0,0,0,,8,,,68,127
135596,note_on,115,0,0,,4,,,64,127
135710,note_off,114,0,0,,4,,,64,127
135711,note_on,1,0,0,,6,,,66,127
135824,note_off,113,0,0,,8,,,68,127
135825,note_off,1,0,0,,6,,,66,127
135826,note_on,1,0,0,,8,,,68,127
135940,note_off,114,0,0,,8,,,68,127
135941,note_on,1,0,0,,10,,,69,127
136055,note_off,114,0,0,,10,,,69,127
136056,note_on,1,0,0,,12,,,71,127
136170,note_off,114,0,0,,12,,,71,127
136170,note_off,0,0,0,,4,,,52,127
136171,note_on,1,0,0,,2,,,50,127
136171,note_on,0,0,0,,0,,,72,127
136285,note_off,114,0,0,,0,,,72,127
136286,note_on,1,0,0,,2,,,74,127
136400,note_off,114,0,0,,2,,,74,127
136400,note_off,0,0,0,,2,,,50,127
136401,note_on,1,0,0,,0,,,48,127
136401,note_on,0,0,0,,4,,,76,127
136515,note_off,114,0,0,,4,,,76,127
136515,note_off,0,0,0,,0,,,48,127
136516,note_on,1,0,0,,2,,,50,127
136516,note_on,0,0,0,,2,,,74,127
136630,note_off,114,0,0,,2,,,74,127
136630,note_off,0,0,0,,2,,,50,127
136631,note_on,1,0,0,,4,,,52,127
136631,note_on,0,0,0,,0,,,72,127
136745,note_off,114,0,0,,0,,,72,127
136745,note_off,0,0,0,,4,,,52,127
136746,note_on,1,0,0,,5,,,53,127
136746,note_on,0,0,0,,12,,,71,127
136860,note_off,114,0,0,,12,,,71,127
136860,note_off,0,0,0,,5,,,53,127
136861,note_on,1,0,0,,7,,,55,127
136861,note_on,0,0,0,,10,,,69,127
136975,note_off,114,0,0,,10,,,69,127
136975,note_off,0,0,0,,7,,,55,127
136976,note_on,1,0,0,,10,,,57,127
136976,note_on,0,0,0,,7,,,67,127
137090,note_off,114,0,0,,7,,,67,127
137090,note_off,0,0,0,,10,,,57,127
137091,note_on,1,0,0,,12,,,59,127
137091,note_on,0,0,0,,5,,,65,127
137205,note_off,114,0,0,,5,,,65,127
137205,note_off,0,0,0,,12,,,59,127
137206,note_on,1,0,0,,0,,,60,127
137206,note_on,0,0,0,,4,,,64,127
137320,note_off,114,0,0,,4,,,64,127
137320,note_off,0,0,0,,0,,,60,127
137321,note_on,1,0,0,,12,,,47,127
137321,note_on,0,0,0,,2,,,74,127
137435,note_off,114,0,0,,2,,,74,127
137435,note_off,0,0,0,,12,,,47,127
137436,note_on,1,0,0,,0,,,48,127
137436,note_on,0,0,0,,0,,,72,127
137550,note_off,114,0,0,,0,,,72,127
137550,note_off,0,0,0,,0,,,48,127
137551,note_on,1,0,0,,2,,,50,127
137551,note_on,0,0,0,,12,,,71,127
137665,note_off,114,0,0,,12,,,71,127
137665,note_off,0,0,0,,2,,,50,127
137666,note_on,1,0,0,,4,,,52,127
137666,note_on,0,0,0,,10,,,69,127
137780,note_off,114,0,0,,10,,,69,127
137780,note_off,0,0,0,,4,,,52,127
137781,note_on,1,0,0,,6,,,54,127
137781,note_on,0,0,0,,8,,,68,127
137895,note_off,114,0,0,,8,,,68,127
137895,note_off,0,0,0,,6,,,54,127
137896,note_on,1,0,0,,8,,,56,127
137896,note_on,0,0,0,,6,,,66,127
138010,note_off,114,0,0,,6,,,66,127
138010,note_off,0,0,0,,8,,,56,127
138011,note_on,1,0,0,,10,,,57,127
138011,note_on,0,0,0,,4,,,64,127
138125,note_off,114,0,0,,4,,,64,127
138125,note_off,0,0,0,,10,,,57,127
138126,note_on,1,0,0,,12,,,59,127
138126,note_on,0,0,0,,2,,,62,127
138240,note_off,114,0,0,,2,,,62,127
138240,note_off,0,0,0,,12,,,59,127
138241,note_on,1,0,0,,10,,,45,127
138241,note_on,0,0,0,,0,,,72,127
138355,note_off,114,0,0,,0,,,72,127
138355,note_off,0,0,0,,10,,,45,127
138356,note_on,1,0,0,,12,,,47,127
138356,note_on,0,0,0,,12,,,71,127
138470,note_off,114,0,0,,12,,,71,127
138470,note_off,0,0,0,,12,,,47,127
138471,note_on,1,0,0,,0,,,48,127
138471,note_on,0,0,0,,10,,,69,127
138585,note_off,114,0,0,,10,,,69,127
138585,note_off,0,0,0,,0,,,48,127
138586,note_on,1,0,0,,2,,,50,127
138586,note_on,0,0,0,,7,,,67,127
138700,note_off,114,0,0,,7,,,67,127
138700,note_off,0,0,0,,2,,,50,127
138701,note_on,1,0,0,,4,,,52,127
138701,note_on,0,0,0,,5,,,65,127
138815,note_off,114,0,0,,5,,,65,127
138815,note_off,0,0,0,,4,,,52,127
138816,note_on,1,0,0,,6,,,54,127
138816,note_on,0,0,0,,4,,,64,127
138930,note_off,114,0,0,,4,,,64,127
138930,note_off,0,0,0,,6,,,54,127
138931,note_on,1,0,0,,8,,,56,127
138931,note_on,0,0,0,,2,,,62,127
139045,note_off,114,0,0,,2,,,62,127
139045,note_off,0,0,0,,8,,,56,127
139046,note_on,1,0,0,,10,,,57,127
139046,note_on,0,0,0,,0,,,60,127
139160,note_off,114,0,0,,0,,,60,127
139160,note_off,0,0,0,,10,,,57,127
139161,note_on,1,0,0,,7,,,43,127
139161,note_on,0,0,0,,12,,,71,127
139276,note_on,115,0,0,,7,,,55,127
139276,note_on,0,0,0,,4,,,76,127
139334,note_off,58,0,0,,7,,,43,127
139390,note_off,56,0,0,,4,,,76,127
139390,note_off,0,0,0,,7,,,55,127
139391,note_on,1,0,0,,5,,,53,127
139391,note_on,0,0,0,,2,,,74,127
139505,note_off,114,0,0,,2,,,74,127
139505,note_off,0,0,0,,5,,,53,127
139506,note_on,1,0,0,,7,,,55,127
139506,note_on,0,0,0,,4,,,76,127
139620,note_off,114,0,0,,4,,,76,127
139620,note_off,0,0,0,,7,,,55,127
139620,note_off,0,0,0,,12,,,71,127
139621,note_on,1,0,0,,5,,,41,127
139621,note_on,0,0,0,,10,,,69,127
139736,note_on,115,0,0,,5,,,53,127
139736,note_on,0,0,0,,2,,,74,127
139794,note_off,58,0,0,,5,,,41,127
139850,note_off,56,0,0,,2,,,74,127
139850,note_off,0,0,0,,5,,,53,127
139851,note_on,1,0,0,,4,,,52,127
139851,note_on,0,0,0,,0,,,72,127
139965,note_off,114,0,0,,0,,,72,127
139965,note_off,0,0,0,,4,,,52,127
139966,note_on,1,0,0,,5,,,53,127
139966,note_on,0,0,0,,2,,,74,127
140080,note_off,114,0,0,,2,,,74,127
140080,note_off,0,0,0,,5,,,53,127
140080,note_off,0,0,0,,10,,,69,127
140081,note_on,1,0,0,,4,,,40,127
140081,note_on,0,0,0,,8,,,68,127
140196,note_on,115,0,0,,4,,,52,127
140225,note_off,29,0,0,,4,,,40,127
140310,note_off,85,0,0,,8,,,68,127
140311,note_on,1,0,0,,6,,,42,127
140311,note_on,0,0,0,,10,,,69,127
140340,note_off,29,0,0,,4,,,52,127
140426,note_on,86,0,0,,6,,,54,127
140455,note_off,29,0,0,,6,,,42,127
140540,note_off,85,0,0,,10,,,69,127
140541,note_on,1,0,0,,8,,,44,127
140541,note_on,0,0,0,,12,,,71,127
140570,note_off,29,0,0,,6,,,54,127
140656,note_on,86,0,0,,8,,,56,127
140685,note_off,29,0,0,,8,,,44,127
140770,note_off,85,0,0,,12,,,71,127
140771,note_on,1,0,0,,10,,,45,127
140771,note_on,0,0,0,,0,,,72,127
140800,note_off,29,0,0,,8,,,56,127
140886,note_on,86,0,0,,10,,,57,127
140915,note_off,29,0,0,,10,,,45,127
141000,note_off,85,0,0,,0,,,72,127
141001,note_on,1,0,0,,12,,,47,127
141001,note_on,0,0,0,,2,,,74,127
141030,note_off,29,0,0,,10,,,57,127
141116,note_on,86,0,0,,12,,,59,127
141145,note_off,29,0,0,,12,,,47,127
141230,note_off,85,0,0,,2,,,74,127
141231,note_on,1,0,0,,0,,,48,127
141231,note_on,0,0,0,,4,,,76,127
141260,note_off,29,0,0,,12,,,59,127
141346,note_on,86,0,0,,0,,,60,127
141375,note_off,29,0,0,,0,,,48,127
141460,note_off,85,0,0,,4,,,76,127
141461,note_on,1,0,0,,2,,,50,127
141461,note_on,0,0,0,,5,,,77,127
141490,note_off,29,0,0,,0,,,60,127
141576,note_on,86,0,0,,2,,,62,127
141690,note_off,114,0,0,,2,,,62,127
141690,note_off,0,0,0,,5,,,77,127
141690,note_off,0,0,0,,2,,,50,127
141691,note_on,1,0,0,,0,,,60,127
141691,note_on,0,0,0,,8,,,80,127
141805,note_off,114,0,0,,0,,,60,127
141806,note_on,1,0,0,,12,,,59,127
141920,note_off,114,0,0,,12,,,59,127
141920,note_off,0,0,0,,8,,,80,127
141921,note_on,1,0,0,,0,,,60,127
141921,note_on,0,0,0,,10,,,81,127
142036,note_on,115,0,0,,10,,,69,127
142094,note_off,58,0,0,,10,,,81,127
142150,note_off,56,0,0,,0,,,60,127
142151,note_on,1,0,0,,2,,,62,127
142151,note_on,0,0,0,,2,,,74,127
142209,note_off,58,0,0,,10,,,69,127
142267,note_on,58,0,0,,12,,,71,127
142381,note_off,114,0,0,,12,,,71,127
142381,note_off,0,0,0,,2,,,74,127
142381,note_off,0,0,0,,2,,,62,127
142382,note_on,1,0,0,,4,,,64,127
142382,note_on,0,0,0,,0,,,72,127
142382,note_on,0,0,0,,10,,,69,127
142611,note_off,229,0,0,,10,,,69,127
142612,note_on,1,0,0,,4,,,52,127
142612,note_on,0,0,0,,8,,,68,127
142670,note_off,58,0,0,,0,,,72,127
142670,note_on,0,0,0,,12,,,71,127
142728,note_off,58,0,0,,12,,,71,127
142728,note_on,0,0,0,,0,,,72,127
142786,note_off,58,0,0,,0,,,72,127
142786,note_on,0,0,0,,12,,,71,127
142842,note_off,56,0,0,,8,,,68,127
142842,note_off,0,0,0,,4,,,52,127
142842,note_off,0,0,0,,4,,,64,127
142843,note_off,1,0,0,,12,,,71,127
142843,note_on,0,0,0,,10,,,45,127
142843,note_on,0,0,0,,10,,,57,127
142843,note_on,0,0,0,,4,,,52,127
142843,note_on,0,0,0,,4,,,64,127
142843,note_on,0,0,0,,0,,,60,127
142843,note_on,0,0,0,,10,,,69,127
144681,note_off,1838,0,0,,10,,,69,127
144681,note_off,0,0,0,,0,,,60,127
144681,note_off,0,0,0,,4,,,64,127
144681,note_off,0,0,0,,4,,,52,127
144681,note_off,0,0,0,,10,,,57,127
144681,note_off,0,0,0,,10,,,45,127
147456,end_of_track,2775,1,0,,,,,,
