tick,type,time,meta,track,program,channel,pitch,tempo,note,velocity
0,copyright,0,1,0,,,,,,
0,program_change,0,0,0,6,0,,,,
0,pitchwheel,0,0,0,,0,0,,,
0,program_change,0,0,0,6,1,,,,
0,pitchwheel,0,0,0,,1,-590,,,
0,program_change,0,0,0,6,2,,,,
0,pitchwheel,0,0,0,,2,-272,,,
0,program_change,0,0,0,6,3,,,,
0,pitchwheel,0,0,0,,3,-353,,,
0,program_change,0,0,0,6,4,,,,
0,pitchwheel,0,0,0,,4,-560,,,
0,program_change,0,0,0,6,5,,,,
0,pitchwheel,0,0,0,,5,-80,,,
0,program_change,0,0,0,6,6,,,,
0,pitchwheel,0,0,0,,6,-625,,,
0,program_change,0,0,0,6,7,,,,
0,pitchwheel,0,0,0,,7,-130,,,
0,program_change,0,0,0,6,8,,,,
0,pitchwheel,0,0,0,,8,-512,,,
0,program_change,0,0,0,6,10,,,,
0,pitchwheel,0,0,0,,10,-464,,,
0,program_change,0,0,0,6,11,,,,
0,pitchwheel,0,0,0,,11,-208,,,
0,program_change,0,0,0,6,12,,,,
0,pitchwheel,0,0,0,,12,-553,,,
0,set_tempo,0,1,0,,,,500000,,
105,note_on,105,0,0,,10,,,81,127
209,note_off,104,0,0,,10,,,81,127
210,note_on,1,0,0,,8,,,80,127
314,note_off,104,0,0,,8,,,80,127
315,note_on,1,0,0,,10,,,81,127
419,note_off,104,0,0,,10,,,81,127
420,note_on,1,0,0,,4,,,76,127
524,note_off,104,0,0,,4,,,76,127
525,note_on,1,0,0,,1,,,73,127
629,note_off,104,0,0,,1,,,73,127
630,note_on,1,0,0,,10,,,69,127
734,note_off,104,0,0,,10,,,69,127
735,note_on,1,0,0,,4,,,76,127
839,note_off,104,0,0,,4,,,76,127
840,note_on,1,0,0,,3,,,75,127
944,note_off,104,0,0,,3,,,75,127
945,note_on,1,0,0,,4,,,76,127
1049,note_off,104,0,0,,4,,,76,127
1050,note_on,1,0,0,,12,,,71,127
1154,note_off,104,0,0,,12,,,71,127
1155,note_on,1,0,0,,8,,,68,127
1259,note_off,104,0,0,,8,,,68,127
1260,note_on,1,0,0,,4,,,64,127
1364,note_off,104,0,0,,4,,,64,127
1365,note_on,1,0,0,,10,,,69,127
1365,note_on,0,0,0,,2,,,74,127
1416,note_off,51,0,0,,2,,,74,127
1417,note_on,1,0,0,,1,,,73,127
1468,note_off,51,0,0,,1,,,73,127
1468,note_off,0,0,0,,10,,,69,127
1469,note_on,1,0,0,,8,,,68,127
1469,note_on,0,0,0,,2,,,74,127
1520,note_off,51,0,0,,2,,,74,127
1521,note_on,1,0,0,,1,,,73,127
1572,note_off,51,0,0,,8,,,68,127
1573,note_on,1,0,0,,10,,,69,127
1677,note_off,104,0,0,,10,,,69,127
1678,note_on,1,0,0,,4,,,64,127
1782,note_off,104,0,0,,4,,,64,127
1783,note_on,1,0,0,,1,,,61,127
1887,note_off,104,0,0,,1,,,61,127
1888,note_on,1,0,0,,10,,,57,127
1992,note_off,104,0,0,,10,,,57,127
1992,note_off,0,0,0,,1,,,73,127
1993,note_on,1,0,0,,4,,,64,127
1993,note_on,0,0,0,,1,,,73,127
2044,note_off,51,0,0,,1,,,73,127
2045,note_on,1,0,0,,12,,,71,127
2096,note_off,51,0,0,,12,,,71,127
2096,note_off,0,0,0,,4,,,64,127
2097,note_on,1,0,0,,3,,,63,127
2097,note_on,0,0,0,,1,,,73,127
2148,note_off,51,0,0,,1,,,73,127
2149,note_on,1,0,0,,12,,,71,127
2200,note_off,51,0,0,,3,,,63,127
2201,note_on,1,0,0,,4,,,64,127
2305,note_off,104,0,0,,4,,,64,127
2306,note_on,1,0,0,,12,,,59,127
2410,note_off,104,0,0,,12,,,59,127
2411,note_on,1,0,0,,8,,,56,127
2515,note_off,104,0,0,,8,,,56,127
2516,note_on,1,0,0,,4,,,52,127
2620,note_off,104,0,0,,4,,,52,127
2620,note_off,0,0,0,,12,,,71,127
2621,note_on,1,0,0,,10,,,45,127
2621,note_on,0,0,0,,1,,,73,127
2725,note_off,104,0,0,,1,,,73,127
2726,note_on,1,0,0,,4,,,76,127
2830,note_off,104,0,0,,4,,,76,127
2831,note_on,1,0,0,,10,,,69,127
2935,note_off,104,0,0,,10,,,69,127
2936,note_on,1,0,0,,1,,,73,127
3040,note_off,104,0,0,,1,,,73,127
3041,note_on,1,0,0,,4,,,64,127
3145,note_off,104,0,0,,4,,,64,127
3146,note_on,1,0,0,,10,,,69,127
3250,note_off,104,0,0,,10,,,69,127
3250,note_off,0,0,0,,10,,,45,127
3251,note_on,1,0,0,,12,,,59,127
3251,note_on,0,0,0,,1,,,73,127
3302,note_off,51,0,0,,12,,,59,127
3303,note_on,1,0,0,,10,,,57,127
3354,note_off,51,0,0,,10,,,57,127
3354,note_off,0,0,0,,1,,,73,127
3355,note_on,1,0,0,,12,,,59,127
3355,note_on,0,0,0,,4,,,76,127
3406,note_off,51,0,0,,12,,,59,127
3407,note_on,1,0,0,,10,,,57,127
3458,note_off,51,0,0,,4,,,76,127
3459,note_on,1,0,0,,10,,,69,127
3563,note_off,104,0,0,,10,,,69,127
3564,note_on,1,0,0,,1,,,73,127
3668,note_off,104,0,0,,1,,,73,127
3669,note_on,1,0,0,,4,,,64,127
3773,note_off,104,0,0,,4,,,64,127
3774,note_on,1,0,0,,10,,,69,127
3878,note_off,104,0,0,,10,,,69,127
3878,note_off,0,0,0,,10,,,57,127
3879,note_on,1,0,0,,12,,,59,127
3879,note_on,0,0,0,,1,,,73,127
3930,note_off,51,0,0,,12,,,59,127
3931,note_on,1,0,0,,10,,,57,127
3982,note_off,51,0,0,,10,,,57,127
3982,note_off,0,0,0,,1,,,73,127
3983,note_on,1,0,0,,12,,,59,127
3983,note_on,0,0,0,,4,,,76,127
4034,note_off,51,0,0,,12,,,59,127
4035,note_on,1,0,0,,10,,,57,127
4086,note_off,51,0,0,,4,,,76,127
4087,note_on,1,0,0,,10,,,69,127
4191,note_off,104,0,0,,10,,,69,127
4192,note_on,1,0,0,,1,,,73,127
4296,note_off,104,0,0,,1,,,73,127
4297,note_on,1,0,0,,4,,,64,127
4401,note_off,104,0,0,,4,,,64,127
4402,note_on,1,0,0,,10,,,69,127
4506,note_off,104,0,0,,10,,,69,127
4506,note_off,0,0,0,,10,,,57,127
4507,note_on,1,0,0,,12,,,59,127
4507,note_on,0,0,0,,1,,,73,127
4558,note_off,51,0,0,,12,,,59,127
4559,note_on,1,0,0,,10,,,57,127
4610,note_off,51,0,0,,10,,,57,127
4610,note_off,0,0,0,,1,,,73,127
4611,note_on,1,0,0,,12,,,59,127
4611,note_on,0,0,0,,4,,,76,127
4662,note_off,51,0,0,,12,,,59,127
4663,note_on,1,0,0,,10,,,57,127
4714,note_off,51,0,0,,4,,,76,127
4715,note_on,1,0,0,,10,,,69,127
4819,note_off,104,0,0,,10,,,69,127
4820,note_on,1,0,0,,1,,,73,127
4924,note_off,104,0,0,,1,,,73,127
4925,note_on,1,0,0,,4,,,64,127
5029,note_off,104,0,0,,4,,,64,127
5030,note_on,1,0,0,,10,,,69,127
5134,note_off,104,0,0,,10,,,69,127
5134,note_off,0,0,0,,10,,,57,127
5135,note_on,1,0,0,,12,,,59,127
5186,note_off,51,0,0,,12,,,59,127
5187,note_on,1,0,0,,10,,,57,127
5238,note_off,51,0,0,,10,,,57,127
5239,note_on,1,0,0,,12,,,59,127
5290,note_off,51,0,0,,12,,,59,127
5291,note_on,1,0,0,,10,,,57,127
5946,note_off,655,0,0,,10,,,57,127
6313,note_on,367,0,0,,8,,,56,127
6313,note_on,0,0,0,,2,,,62,127
6313,note_on,0,0,0,,5,,,65,127
6313,note_on,0,0,0,,8,,,68,127
6313,note_on,0,0,0,,12,,,71,127
6313,note_on,0,0,0,,5,,,77,127
6313,note_on,0,0,0,,2,,,74,127
6521,note_off,208,0,0,,2,,,74,127
6521,note_off,0,0,0,,5,,,77,127
6521,note_off,0,0,0,,12,,,71,127
6521,note_off,0,0,0,,8,,,68,127
6522,note_on,1,0,0,,4,,,76,127
6730,note_off,208,0,0,,4,,,76,127
6731,note_on,1,0,0,,2,,,74,127
6939,note_off,208,0,0,,2,,,74,127
6939,note_off,0,0,0,,5,,,65,127
6939,note_off,0,0,0,,2,,,62,127
6939,note_off,0,0,0,,8,,,56,127
6940,note_on,1,0,0,,0,,,60,127
6940,note_on,0,0,0,,10,,,57,127
6940,note_on,0,0,0,,4,,,64,127
6940,note_on,0,0,0,,2,,,74,127
6991,note_off,51,0,0,,2,,,74,127
6992,note_on,1,0,0,,0,,,72,127
7043,note_off,51,0,0,,0,,,72,127
7044,note_on,1,0,0,,2,,,74,127
7095,note_off,51,0,0,,2,,,74,127
7096,note_on,1,0,0,,0,,,72,127
7147,note_off,51,0,0,,0,,,72,127
7148,note_on,1,0,0,,12,,,71,127
7356,note_off,208,0,0,,12,,,71,127
7357,note_on,1,0,0,,10,,,69,127
7565,note_off,208,0,0,,10,,,69,127
7565,note_off,0,0,0,,4,,,64,127
7565,note_off,0,0,0,,10,,,57,127
7565,note_off,0,0,0,,0,,,60,127
7575,note_on,10,0,0,,5,,,77,127
7575,note_on,0,0,0,,2,,,74,127
7575,note_on,0,0,0,,12,,,71,127
7575,note_on,0,0,0,,8,,,68,127
7575,note_on,0,0,0,,5,,,65,127
7575,note_on,0,0,0,,8,,,56,127
7575,note_on,0,0,0,,2,,,62,127
7783,note_off,208,0,0,,8,,,68,127
7783,note_off,0,0,0,,12,,,71,127
7783,note_off,0,0,0,,2,,,74,127
7783,note_off,0,0,0,,5,,,77,127
7784,note_on,1,0,0,,4,,,76,127
7992,note_off,208,0,0,,4,,,76,127
7993,note_on,1,0,0,,2,,,74,127
8201,note_off,208,0,0,,2,,,74,127
8201,note_off,0,0,0,,2,,,62,127
8201,note_off,0,0,0,,8,,,56,127
8201,note_off,0,0,0,,5,,,65,127
8202,note_on,1,0,0,,2,,,74,127
8202,note_on,0,0,0,,4,,,64,127
8202,note_on,0,0,0,,10,,,57,127
8202,note_on,0,0,0,,0,,,60,127
8253,note_off,51,0,0,,2,,,74,127
8254,note_on,1,0,0,,0,,,72,127
8305,note_off,51,0,0,,0,,,72,127
8306,note_on,1,0,0,,2,,,74,127
8357,note_off,51,0,0,,2,,,74,127
8358,note_on,1,0,0,,0,,,72,127
8409,note_off,51,0,0,,0,,,72,127
8410,note_on,1,0,0,,12,,,71,127
8618,note_off,208,0,0,,12,,,71,127
8619,note_on,1,0,0,,0,,,72,127
8827,note_off,208,0,0,,0,,,60,127
8827,note_off,0,0,0,,10,,,57,127
8827,note_off,0,0,0,,4,,,64,127
8837,note_on,10,0,0,,10,,,69,127
8837,note_on,0,0,0,,6,,,66,127
8837,note_on,0,0,0,,3,,,63,127
9037,note_off,200,0,0,,0,,,72,127
9047,note_on,10,0,0,,10,,,81,127
9255,note_off,208,0,0,,10,,,81,127
9256,note_on,1,0,0,,0,,,72,127
9464,note_off,208,0,0,,0,,,72,127
9464,note_off,0,0,0,,3,,,63,127
9464,note_off,0,0,0,,6,,,66,127
9464,note_off,0,0,0,,10,,,69,127
9465,note_on,1,0,0,,4,,,64,127
9465,note_on,0,0,0,,8,,,68,127
9465,note_on,0,0,0,,2,,,74,127
9516,note_off,51,0,0,,2,,,74,127
9517,note_on,1,0,0,,0,,,72,127
9568,note_off,51,0,0,,0,,,72,127
9569,note_on,1,0,0,,2,,,74,127
9620,note_off,51,0,0,,2,,,74,127
9621,note_on,1,0,0,,0,,,72,127
9672,note_off,51,0,0,,0,,,72,127
9673,note_on,1,0,0,,12,,,71,127
9881,note_off,208,0,0,,12,,,71,127
9882,note_on,1,0,0,,8,,,80,127
10090,note_off,208,0,0,,8,,,68,127
10090,note_off,0,0,0,,4,,,64,127
10100,note_on,10,0,0,,3,,,63,127
10100,note_on,0,0,0,,6,,,66,127
10100,note_on,0,0,0,,10,,,69,127
10300,note_off,200,0,0,,8,,,80,127
10310,note_on,10,0,0,,10,,,81,127
10518,note_off,208,0,0,,10,,,81,127
10519,note_on,1,0,0,,0,,,72,127
10727,note_off,208,0,0,,0,,,72,127
10727,note_off,0,0,0,,10,,,69,127
10727,note_off,0,0,0,,6,,,66,127
10727,note_off,0,0,0,,3,,,63,127
10728,note_on,1,0,0,,2,,,74,127
10728,note_on,0,0,0,,4,,,64,127
10728,note_on,0,0,0,,8,,,68,127
10779,note_off,51,0,0,,2,,,74,127
10780,note_on,1,0,0,,0,,,72,127
10831,note_off,51,0,0,,0,,,72,127
10832,note_on,1,0,0,,2,,,74,127
10883,note_off,51,0,0,,2,,,74,127
10884,note_on,1,0,0,,0,,,72,127
10935,note_off,51,0,0,,0,,,72,127
10936,note_on,1,0,0,,12,,,71,127
11144,note_off,208,0,0,,12,,,71,127
11144,note_off,0,0,0,,8,,,68,127
11144,note_off,0,0,0,,4,,,64,127
11154,note_on,10,0,0,,2,,,62,127
11154,note_on,0,0,0,,6,,,78,127
11362,note_off,208,0,0,,2,,,62,127
11363,note_on,1,0,0,,1,,,61,127
11363,note_on,0,0,0,,7,,,67,127
11571,note_off,208,0,0,,6,,,78,127
11572,note_on,1,0,0,,7,,,79,127
11780,note_off,208,0,0,,7,,,79,127
11781,note_on,1,0,0,,11,,,70,127
11989,note_off,208,0,0,,11,,,70,127
11989,note_off,0,0,0,,7,,,67,127
11989,note_off,0,0,0,,1,,,61,127
11990,note_on,1,0,0,,2,,,62,127
11990,note_on,0,0,0,,7,,,67,127
11990,note_on,0,0,0,,0,,,72,127
12041,note_off,51,0,0,,0,,,72,127
12042,note_on,1,0,0,,11,,,70,127
12093,note_off,51,0,0,,11,,,70,127
12094,note_on,1,0,0,,0,,,72,127
12145,note_off,51,0,0,,0,,,72,127
12146,note_on,1,0,0,,11,,,70,127
12197,note_off,51,0,0,,11,,,70,127
12198,note_on,1,0,0,,10,,,69,127
12406,note_off,208,0,0,,10,,,69,127
12407,note_on,1,0,0,,6,,,78,127
12615,note_off,208,0,0,,7,,,67,127
12615,note_off,0,0,0,,2,,,62,127
12625,note_on,10,0,0,,1,,,61,127
12625,note_on,0,0,0,,7,,,67,127
12825,note_off,200,0,0,,6,,,78,127
12835,note_on,10,0,0,,7,,,79,127
13043,note_off,208,0,0,,7,,,79,127
13044,note_on,1,0,0,,11,,,70,127
13252,note_off,208,0,0,,11,,,70,127
13252,note_off,0,0,0,,7,,,67,127
13252,note_off,0,0,0,,1,,,61,127
13253,note_on,1,0,0,,0,,,72,127
13253,note_on,0,0,0,,7,,,67,127
13253,note_on,0,0,0,,2,,,62,127
13304,note_off,51,0,0,,0,,,72,127
13305,note_on,1,0,0,,11,,,70,127
13356,note_off,51,0,0,,11,,,70,127
13357,note_on,1,0,0,,0,,,72,127
13408,note_off,51,0,0,,0,,,72,127
13409,note_on,1,0,0,,11,,,70,127
13460,note_off,51,0,0,,11,,,70,127
13461,note_on,1,0,0,,10,,,69,127
13669,note_off,208,0,0,,10,,,69,127
13679,note_on,10,0,0,,4,,,76,127
13879,note_off,200,0,0,,2,,,62,127
13879,note_off,0,0,0,,7,,,67,127
13889,note_on,10,0,0,,10,,,69,127
13889,note_on,0,0,0,,4,,,64,127
13889,note_on,0,0,0,,1,,,61,127
14097,note_off,208,0,0,,4,,,76,127
14098,note_on,1,0,0,,5,,,77,127
14306,note_off,208,0,0,,5,,,77,127
14306,note_off,0,0,0,,10,,,69,127
14307,note_on,1,0,0,,10,,,69,127
14515,note_off,208,0,0,,10,,,69,127
14515,note_off,0,0,0,,1,,,61,127
14515,note_off,0,0,0,,4,,,64,127
14516,note_on,1,0,0,,2,,,62,127
14516,note_on,0,0,0,,12,,,59,127
14516,note_on,0,0,0,,12,,,71,127
14567,note_off,51,0,0,,12,,,71,127
14568,note_on,1,0,0,,10,,,69,127
14619,note_off,51,0,0,,10,,,69,127
14620,note_on,1,0,0,,12,,,71,127
14671,note_off,51,0,0,,12,,,71,127
14672,note_on,1,0,0,,10,,,69,127
14723,note_off,51,0,0,,10,,,69,127
14724,note_on,1,0,0,,8,,,68,127
14932,note_off,208,0,0,,8,,,68,127
14932,note_off,0,0,0,,12,,,59,127
14932,note_off,0,0,0,,2,,,62,127
14933,note_on,1,0,0,,4,,,64,127
14933,note_on,0,0,0,,0,,,60,127
14933,note_on,0,0,0,,10,,,69,127
15141,note_off,208,0,0,,10,,,69,127
15141,note_off,0,0,0,,0,,,60,127
15141,note_off,0,0,0,,4,,,64,127
15142,note_on,1,0,0,,12,,,59,127
15142,note_on,0,0,0,,2,,,62,127
15142,note_on,0,0,0,,12,,,71,127
15193,note_off,51,0,0,,12,,,71,127
15194,note_on,1,0,0,,10,,,69,127
15245,note_off,51,0,0,,10,,,69,127
15246,note_on,1,0,0,,12,,,71,127
15297,note_off,51,0,0,,12,,,71,127
15298,note_on,1,0,0,,10,,,69,127
15349,note_off,51,0,0,,10,,,69,127
15350,note_on,1,0,0,,8,,,68,127
15558,note_off,208,0,0,,8,,,68,127
15558,note_off,0,0,0,,2,,,62,127
15558,note_off,0,0,0,,12,,,59,127
15559,note_on,1,0,0,,4,,,64,127
15559,note_on,0,0,0,,0,,,60,127
15559,note_on,0,0,0,,10,,,69,127
15767,note_off,208,0,0,,10,,,69,127
15767,note_off,0,0,0,,0,,,60,127
15767,note_off,0,0,0,,4,,,64,127
15768,note_on,1,0,0,,4,,,40,127
15768,note_on,0,0,0,,10,,,69,127
15976,note_off,208,0,0,,10,,,69,127
15977,note_on,1,0,0,,12,,,71,127
16185,note_off,208,0,0,,12,,,71,127
16190,note_on,5,0,0,,4,,,76,127
16394,note_off,204,0,0,,4,,,40,127
16402,note_on,8,0,0,,4,,,52,127
16402,note_on,0,0,0,,4,,,40,127
16402,note_on,0,0,0,,3,,,51,127
16402,note_on,0,0,0,,7,,,67,127
16407,note_off,5,0,0,,4,,,76,127
16453,note_off,46,0,0,,7,,,67,127
16454,note_on,1,0,0,,5,,,65,127
16505,note_off,51,0,0,,5,,,65,127
16505,note_off,0,0,0,,3,,,51,127
16506,note_on,1,0,0,,7,,,67,127
16557,note_off,51,0,0,,7,,,67,127
16558,note_on,1,0,0,,5,,,65,127
16609,note_off,51,0,0,,5,,,65,127
16610,note_on,1,0,0,,4,,,64,127
16818,note_off,208,0,0,,4,,,64,127
16819,note_on,1,0,0,,2,,,74,127
17027,note_off,208,0,0,,2,,,74,127
17027,note_off,0,0,0,,4,,,40,127
17027,note_off,0,0,0,,4,,,52,127
17028,note_on,1,0,0,,4,,,40,127
17028,note_on,0,0,0,,4,,,52,127
17028,note_on,0,0,0,,3,,,51,127
17028,note_on,0,0,0,,7,,,67,127
17079,note_off,51,0,0,,7,,,67,127
17080,note_on,1,0,0,,5,,,65,127
17131,note_off,51,0,0,,5,,,65,127
17131,note_off,0,0,0,,3,,,51,127
17132,note_on,1,0,0,,7,,,67,127
17183,note_off,51,0,0,,7,,,67,127
17184,note_on,1,0,0,,5,,,65,127
17235,note_off,51,0,0,,5,,,65,127
17236,note_on,1,0,0,,4,,,64,127
17444,note_off,208,0,0,,4,,,64,127
17445,note_on,1,0,0,,0,,,72,127
17653,note_off,208,0,0,,0,,,72,127
17653,note_off,0,0,0,,4,,,52,127
17653,note_off,0,0,0,,4,,,40,127
17654,note_on,1,0,0,,4,,,52,127
17654,note_on,0,0,0,,4,,,40,127
17654,note_on,0,0,0,,3,,,51,127
17654,note_on,0,0,0,,7,,,67,127
17705,note_off,51,0,0,,7,,,67,127
17706,note_on,1,0,0,,5,,,65,127
17757,note_off,51,0,0,,5,,,65,127
17757,note_off,0,0,0,,3,,,51,127
17758,note_on,1,0,0,,7,,,67,127
17809,note_off,51,0,0,,7,,,67,127
17810,note_on,1,0,0,,5,,,65,127
17861,note_off,51,0,0,,5,,,65,127
17862,note_on,1,0,0,,4,,,64,127
18070,note_off,208,0,0,,4,,,64,127
18071,note_on,1,0,0,,12,,,71,127
18279,note_off,208,0,0,,12,,,71,127
18279,note_off,0,0,0,,4,,,40,127
18279,note_off,0,0,0,,4,,,52,127
18280,note_on,1,0,0,,4,,,52,127
18280,note_on,0,0,0,,4,,,40,127
18280,note_on,0,0,0,,3,,,51,127
18280,note_on,0,0,0,,7,,,67,127
18331,note_off,51,0,0,,7,,,67,127
18332,note_on,1,0,0,,5,,,65,127
18383,note_off,51,0,0,,5,,,65,127
18383,note_off,0,0,0,,3,,,51,127
18384,note_on,1,0,0,,7,,,67,127
18435,note_off,51,0,0,,7,,,67,127
18436,note_on,1,0,0,,5,,,65,127
18487,note_off,51,0,0,,5,,,65,127
18488,note_on,1,0,0,,4,,,64,127
18696,note_off,208,0,0,,4,,,64,127
18697,note_on,1,0,0,,4,,,76,127
18905,note_off,208,0,0,,4,,,40,127
18905,note_off,0,0,0,,4,,,52,127
18914,note_off,9,0,0,,4,,,76,127
18915,note_on,1,0,0,,5,,,53,127
18915,note_on,0,0,0,,4,,,40,127
18915,note_on,0,0,0,,12,,,71,127
18966,note_off,51,0,0,,12,,,71,127
18967,note_on,1,0,0,,10,,,69,127
19018,note_off,51,0,0,,10,,,69,127
19019,note_on,1,0,0,,12,,,71,127
19070,note_off,51,0,0,,12,,,71,127
19071,note_on,1,0,0,,10,,,69,127
19122,note_off,51,0,0,,10,,,69,127
19123,note_on,1,0,0,,8,,,68,127
19331,note_off,208,0,0,,8,,,68,127
19332,note_on,1,0,0,,10,,,69,127
19540,note_off,208,0,0,,10,,,69,127
19540,note_off,0,0,0,,4,,,40,127
19540,note_off,0,0,0,,5,,,53,127
19541,note_on,1,0,0,,4,,,40,127
19541,note_on,0,0,0,,4,,,52,127
19541,note_on,0,0,0,,3,,,51,127
19541,note_on,0,0,0,,10,,,69,127
19645,note_off,104,0,0,,3,,,51,127
19850,note_on,205,0,0,,12,,,71,127
19855,note_off,5,0,0,,10,,,69,127
20378,note_off,523,0,0,,4,,,52,127
20378,note_off,0,0,0,,4,,,40,127
20553,note_off,175,0,0,,12,,,71,127
21078,note_on,525,0,0,,3,,,63,127
21078,note_on,0,0,0,,6,,,66,127
21078,note_on,0,0,0,,10,,,69,127
21078,note_on,0,0,0,,0,,,72,127
21286,note_off,208,0,0,,0,,,72,127
21286,note_off,0,0,0,,10,,,69,127
21287,note_on,1,0,0,,7,,,67,127
21287,note_on,0,0,0,,12,,,71,127
21495,note_off,208,0,0,,12,,,71,127
21495,note_off,0,0,0,,7,,,67,127
21496,note_on,1,0,0,,10,,,69,127
21496,note_on,0,0,0,,0,,,72,127
21704,note_off,208,0,0,,0,,,72,127
21704,note_off,0,0,0,,10,,,69,127
21704,note_off,0,0,0,,6,,,66,127
21704,note_off,0,0,0,,3,,,63,127
21705,note_on,1,0,0,,7,,,67,127
21705,note_on,0,0,0,,4,,,64,127
21705,note_on,0,0,0,,12,,,71,127
21913,note_off,208,0,0,,4,,,64,127
21913,note_off,0,0,0,,7,,,67,127
21914,note_on,1,0,0,,3,,,63,127
21914,note_on,0,0,0,,6,,,66,127
22122,note_off,208,0,0,,6,,,66,127
22122,note_off,0,0,0,,3,,,63,127
22123,note_on,1,0,0,,7,,,67,127
22123,note_on,0,0,0,,4,,,64,127
22331,note_off,208,0,0,,4,,,64,127
22331,note_off,0,0,0,,7,,,67,127
22331,note_off,0,0,0,,12,,,71,127
22332,note_on,1,0,0,,3,,,63,127
22332,note_on,0,0,0,,6,,,66,127
22332,note_on,0,0,0,,10,,,69,127
22332,note_on,0,0,0,,0,,,72,127
22540,note_off,208,0,0,,0,,,72,127
22540,note_off,0,0,0,,10,,,69,127
22541,note_on,1,0,0,,12,,,71,127
22541,note_on,0,0,0,,7,,,67,127
22749,note_off,208,0,0,,7,,,67,127
22749,note_off,0,0,0,,12,,,71,127
22750,note_on,1,0,0,,10,,,69,127
22750,note_on,0,0,0,,0,,,72,127
22958,note_off,208,0,0,,0,,,72,127
22958,note_off,0,0,0,,10,,,69,127
22958,note_off,0,0,0,,6,,,66,127
22958,note_off,0,0,0,,3,,,63,127
22959,note_on,1,0,0,,7,,,67,127
22959,note_on,0,0,0,,4,,,64,127
22959,note_on,0,0,0,,12,,,71,127
23167,note_off,208,0,0,,4,,,64,127
23167,note_off,0,0,0,,7,,,67,127
23168,note_on,1,0,0,,3,,,63,127
23168,note_on,0,0,0,,6,,,66,127
23376,note_off,208,0,0,,6,,,66,127
23376,note_off,0,0,0,,3,,,63,127
23377,note_on,1,0,0,,4,,,64,127
23377,note_on,0,0,0,,7,,,67,127
23585,note_off,208,0,0,,7,,,67,127
23585,note_off,0,0,0,,4,,,64,127
23585,note_off,0,0,0,,12,,,71,127
23593,note_on,8,0,0,,0,,,72,127
23593,note_on,0,0,0,,10,,,69,127
23593,note_on,0,0,0,,6,,,66,127
23593,note_on,0,0,0,,3,,,63,127
23801,note_off,208,0,0,,10,,,69,127
23801,note_off,0,0,0,,0,,,72,127
23802,note_on,1,0,0,,7,,,67,127
23802,note_on,0,0,0,,12,,,71,127
24010,note_off,208,0,0,,12,,,71,127
24010,note_off,0,0,0,,7,,,67,127
24011,note_on,1,0,0,,10,,,69,127
24011,note_on,0,0,0,,0,,,72,127
24219,note_off,208,0,0,,0,,,72,127
24219,note_off,0,0,0,,10,,,69,127
24219,note_off,0,0,0,,3,,,63,127
24219,note_off,0,0,0,,6,,,66,127
24220,note_on,1,0,0,,12,,,71,127
24220,note_on,0,0,0,,7,,,67,127
24220,note_on,0,0,0,,4,,,64,127
24428,note_off,208,0,0,,4,,,64,127
24428,note_off,0,0,0,,7,,,67,127
24429,note_on,1,0,0,,3,,,63,127
24429,note_on,0,0,0,,6,,,66,127
24637,note_off,208,0,0,,6,,,66,127
24637,note_off,0,0,0,,3,,,63,127
24642,note_on,5,0,0,,4,,,64,127
24642,note_on,0,0,0,,7,,,67,127
24846,note_off,204,0,0,,12,,,71,127
24860,note_off,14,0,0,,7,,,67,127
24860,note_off,0,0,0,,4,,,64,127
24869,note_on,9,0,0,,0,,,72,127
24869,note_on,0,0,0,,2,,,62,127
24869,note_on,0,0,0,,6,,,66,127
24920,note_off,51,0,0,,0,,,72,127
24921,note_on,1,0,0,,12,,,71,127
24972,note_off,51,0,0,,12,,,71,127
24973,note_on,1,0,0,,0,,,72,127
25024,note_off,51,0,0,,0,,,72,127
25025,note_on,1,0,0,,12,,,71,127
25076,note_off,51,0,0,,6,,,66,127
25076,note_off,0,0,0,,2,,,62,127
25077,note_on,1,0,0,,0,,,60,127
25077,note_on,0,0,0,,4,,,64,127
25285,note_off,208,0,0,,4,,,64,127
25285,note_off,0,0,0,,0,,,60,127
25286,note_on,1,0,0,,2,,,62,127
25286,note_on,0,0,0,,6,,,66,127
25494,note_off,208,0,0,,6,,,66,127
25494,note_off,0,0,0,,2,,,62,127
25495,note_on,1,0,0,,0,,,60,127
25495,note_on,0,0,0,,4,,,64,127
25547,note_off,52,0,0,,12,,,71,127
25547,note_on,0,0,0,,10,,,69,127
25598,note_off,51,0,0,,10,,,69,127
25599,note_on,1,0,0,,12,,,71,127
25650,note_off,51,0,0,,12,,,71,127
25651,note_on,1,0,0,,10,,,69,127
25702,note_off,51,0,0,,4,,,64,127
25702,note_off,0,0,0,,0,,,60,127
25703,note_on,1,0,0,,2,,,62,127
25703,note_on,0,0,0,,12,,,59,127
25911,note_off,208,0,0,,12,,,59,127
25911,note_off,0,0,0,,2,,,62,127
25912,note_on,1,0,0,,0,,,60,127
25912,note_on,0,0,0,,4,,,64,127
26120,note_off,208,0,0,,4,,,64,127
26120,note_off,0,0,0,,0,,,60,127
26121,note_on,1,0,0,,12,,,59,127
26121,note_on,0,0,0,,2,,,62,127
26173,note_off,52,0,0,,10,,,69,127
26173,note_on,0,0,0,,7,,,67,127
26224,note_off,51,0,0,,7,,,67,127
26225,note_on,1,0,0,,10,,,69,127
26276,note_off,51,0,0,,10,,,69,127
26277,note_on,1,0,0,,7,,,67,127
26328,note_off,51,0,0,,2,,,62,127
26328,note_off,0,0,0,,12,,,59,127
26329,note_on,1,0,0,,10,,,57,127
26329,note_on,0,0,0,,0,,,60,127
26537,note_off,208,0,0,,0,,,60,127
26537,note_off,0,0,0,,10,,,57,127
26538,note_on,1,0,0,,12,,,59,127
26538,note_on,0,0,0,,2,,,62,127
26746,note_off,208,0,0,,2,,,62,127
26746,note_off,0,0,0,,12,,,59,127
26747,note_on,1,0,0,,0,,,60,127
26747,note_on,0,0,0,,10,,,57,127
26799,note_off,52,0,0,,7,,,67,127
26799,note_on,0,0,0,,6,,,66,127
26850,note_off,51,0,0,,6,,,66,127
26851,note_on,1,0,0,,7,,,67,127
26902,note_off,51,0,0,,7,,,67,127
26903,note_on,1,0,0,,6,,,66,127
26954,note_off,51,0,0,,10,,,57,127
26954,note_off,0,0,0,,0,,,60,127
26955,note_on,1,0,0,,12,,,59,127
26955,note_on,0,0,0,,7,,,55,127
27163,note_off,208,0,0,,7,,,55,127
27163,note_off,0,0,0,,12,,,59,127
27164,note_on,1,0,0,,0,,,60,127
27164,note_on,0,0,0,,10,,,57,127
27372,note_off,208,0,0,,10,,,57,127
27372,note_off,0,0,0,,0,,,60,127
27373,note_on,1,0,0,,7,,,55,127
27373,note_on,0,0,0,,12,,,59,127
27425,note_off,52,0,0,,6,,,66,127
27425,note_on,0,0,0,,4,,,64,127
27476,note_off,51,0,0,,4,,,64,127
27477,note_on,1,0,0,,6,,,66,127
27528,note_off,51,0,0,,6,,,66,127
27529,note_on,1,0,0,,4,,,64,127
27580,note_off,51,0,0,,12,,,59,127
27580,note_off,0,0,0,,7,,,55,127
27581,note_on,1,0,0,,6,,,54,127
27581,note_on,0,0,0,,10,,,57,127
27789,note_off,208,0,0,,10,,,57,127
27789,note_off,0,0,0,,6,,,54,127
27790,note_on,1,0,0,,7,,,55,127
27790,note_on,0,0,0,,12,,,59,127
27998,note_off,208,0,0,,12,,,59,127
27998,note_off,0,0,0,,7,,,55,127
27999,note_on,1,0,0,,6,,,54,127
27999,note_on,0,0,0,,10,,,57,127
28051,note_off,52,0,0,,4,,,64,127
28051,note_on,0,0,0,,3,,,63,127
28102,note_off,51,0,0,,3,,,63,127
28103,note_on,1,0,0,,4,,,64,127
28154,note_off,51,0,0,,4,,,64,127
28155,note_on,1,0,0,,3,,,63,127
28206,note_off,51,0,0,,10,,,57,127
28206,note_off,0,0,0,,6,,,54,127
28207,note_on,1,0,0,,7,,,55,127
28207,note_on,0,0,0,,4,,,52,127
28415,note_off,208,0,0,,4,,,52,127
28415,note_off,0,0,0,,7,,,55,127
28416,note_on,1,0,0,,6,,,54,127
28416,note_on,0,0,0,,10,,,57,127
28624,note_off,208,0,0,,10,,,57,127
28624,note_off,0,0,0,,6,,,54,127
28624,note_off,0,0,0,,3,,,63,127
28625,note_on,1,0,0,,6,,,66,127
28625,note_on,0,0,0,,4,,,52,127
28625,note_on,0,0,0,,7,,,55,127
28676,note_off,51,0,0,,6,,,66,127
28677,note_on,1,0,0,,4,,,64,127
28728,note_off,51,0,0,,4,,,64,127
28729,note_on,1,0,0,,6,,,66,127
28780,note_off,51,0,0,,6,,,66,127
28781,note_on,1,0,0,,4,,,64,127
28832,note_off,51,0,0,,7,,,55,127
28832,note_off,0,0,0,,4,,,52,127
28833,note_on,1,0,0,,3,,,51,127
28833,note_on,0,0,0,,6,,,54,127
29041,note_off,208,0,0,,6,,,54,127
29041,note_off,0,0,0,,3,,,51,127
29042,note_on,1,0,0,,4,,,52,127
29042,note_on,0,0,0,,7,,,55,127
29250,note_off,208,0,0,,7,,,55,127
29250,note_off,0,0,0,,4,,,52,127
29250,note_off,0,0,0,,4,,,64,127
29251,note_on,1,0,0,,12,,,47,127
29460,note_on,209,0,0,,3,,,51,127
29668,note_off,208,0,0,,3,,,51,127
29669,note_on,1,0,0,,4,,,52,127
29877,note_off,208,0,0,,4,,,52,127
29878,note_on,1,0,0,,6,,,54,127
30086,note_off,208,0,0,,6,,,54,127
30087,note_on,1,0,0,,10,,,57,127
30295,note_off,208,0,0,,10,,,57,127
30296,note_on,1,0,0,,10,,,69,127
30296,note_on,0,0,0,,3,,,63,127
30296,note_on,0,0,0,,6,,,66,127
30296,note_on,0,0,0,,12,,,59,127
30504,note_off,208,0,0,,12,,,59,127
30504,note_off,0,0,0,,6,,,66,127
30504,note_off,0,0,0,,3,,,63,127
30504,note_off,0,0,0,,10,,,69,127
30504,note_off,0,0,0,,12,,,47,127
30505,note_on,1,0,0,,12,,,59,127
30505,note_on,0,0,0,,4,,,64,127
30505,note_on,0,0,0,,8,,,68,127
30505,note_on,0,0,0,,4,,,52,127
30505,note_on,0,0,0,,4,,,40,127
30713,note_off,208,0,0,,8,,,68,127
30713,note_off,0,0,0,,4,,,64,127
30713,note_off,0,0,0,,12,,,59,127
30714,note_on,1,0,0,,4,,,64,127
30922,note_off,208,0,0,,4,,,64,127
30922,note_off,0,0,0,,4,,,40,127
30922,note_off,0,0,0,,4,,,52,127
30923,note_on,1,0,0,,1,,,61,127
30923,note_on,0,0,0,,4,,,64,127
30923,note_on,0,0,0,,10,,,69,127
30923,note_on,0,0,0,,10,,,57,127
30923,note_on,0,0,0,,4,,,52,127
30923,note_on,0,0,0,,10,,,45,127
31131,note_off,208,0,0,,10,,,45,127
31131,note_off,0,0,0,,4,,,52,127
31131,note_off,0,0,0,,10,,,57,127
31131,note_off,0,0,0,,10,,,69,127
31131,note_off,0,0,0,,4,,,64,127
31131,note_off,0,0,0,,1,,,61,127
31132,note_on,1,0,0,,4,,,64,127
31132,note_on,0,0,0,,8,,,68,127
31132,note_on,0,0,0,,12,,,59,127
31132,note_on,0,0,0,,12,,,47,127
31132,note_on,0,0,0,,4,,,52,127
31340,note_off,208,0,0,,8,,,68,127
31340,note_off,0,0,0,,4,,,64,127
31341,note_on,1,0,0,,10,,,69,127
31549,note_off,208,0,0,,10,,,69,127
31549,note_off,0,0,0,,4,,,52,127
31549,note_off,0,0,0,,12,,,47,127
31549,note_off,0,0,0,,12,,,59,127
31550,note_on,1,0,0,,6,,,66,127
31550,note_on,0,0,0,,3,,,63,127
31550,note_on,0,0,0,,6,,,54,127
31550,note_on,0,0,0,,10,,,57,127
31550,note_on,0,0,0,,12,,,47,127
31758,note_off,208,0,0,,12,,,47,127
31758,note_off,0,0,0,,10,,,57,127
31758,note_off,0,0,0,,6,,,54,127
31758,note_off,0,0,0,,3,,,63,127
31758,note_off,0,0,0,,6,,,66,127
31759,note_on,1,0,0,,4,,,64,127
31759,note_on,0,0,0,,4,,,40,127
31966,note_off,207,0,0,,4,,,64,127
31985,note_on,19,0,0,,4,,,76,127
32029,note_on,44,0,0,,3,,,75,127
32041,note_off,12,0,0,,4,,,76,127
32073,note_on,32,0,0,,1,,,73,127
32085,note_off,12,0,0,,3,,,75,127
32117,note_on,32,0,0,,12,,,71,127
32129,note_off,12,0,0,,1,,,73,127
32162,note_on,33,0,0,,10,,,69,127
32173,note_off,11,0,0,,12,,,71,127
32206,note_on,33,0,0,,8,,,68,127
32218,note_off,12,0,0,,10,,,69,127
32250,note_on,32,0,0,,6,,,66,127
32262,note_off,12,0,0,,8,,,68,127
32294,note_on,32,0,0,,4,,,64,127
32306,note_off,12,0,0,,6,,,66,127
32338,note_on,32,0,0,,12,,,71,127
32350,note_off,12,0,0,,4,,,64,127
32383,note_on,33,0,0,,10,,,69,127
32394,note_off,11,0,0,,12,,,71,127
32427,note_on,33,0,0,,8,,,68,127
32439,note_off,12,0,0,,10,,,69,127
32471,note_on,32,0,0,,6,,,66,127
32483,note_off,12,0,0,,8,,,68,127
32514,note_on,31,0,0,,4,,,64,127
32527,note_off,13,0,0,,6,,,66,127
32558,note_on,31,0,0,,3,,,63,127
32570,note_off,12,0,0,,4,,,64,127
32603,note_on,33,0,0,,1,,,61,127
32614,note_off,11,0,0,,3,,,63,127
32647,note_on,33,0,0,,12,,,59,127
32659,note_off,12,0,0,,1,,,61,127
32691,note_on,32,0,0,,4,,,64,127
32703,note_off,12,0,0,,12,,,59,127
32735,note_on,32,0,0,,3,,,63,127
32747,note_off,12,0,0,,4,,,64,127
32779,note_on,32,0,0,,1,,,61,127
32791,note_off,12,0,0,,3,,,63,127
32824,note_on,33,0,0,,12,,,59,127
32835,note_off,11,0,0,,1,,,61,127
32868,note_on,33,0,0,,10,,,57,127
32880,note_off,12,0,0,,12,,,59,127
32912,note_on,32,0,0,,8,,,56,127
32924,note_off,12,0,0,,10,,,57,127
32956,note_on,32,0,0,,6,,,54,127
32968,note_off,12,0,0,,8,,,56,127
33000,note_on,32,0,0,,4,,,52,127
33012,note_off,12,0,0,,6,,,54,127
33045,note_on,33,0,0,,12,,,59,127
33056,note_off,11,0,0,,4,,,52,127
33089,note_on,33,0,0,,10,,,57,127
33101,note_off,12,0,0,,12,,,59,127
33133,note_on,32,0,0,,8,,,56,127
33145,note_off,12,0,0,,10,,,57,127
33149,note_off,4,0,0,,4,,,40,127
33175,note_on,26,0,0,,6,,,54,127
33188,note_off,13,0,0,,8,,,56,127
33219,note_on,31,0,0,,4,,,52,127
33231,note_off,12,0,0,,6,,,54,127
33264,note_on,33,0,0,,3,,,51,127
33275,note_off,11,0,0,,4,,,52,127
33308,note_on,33,0,0,,1,,,49,127
33320,note_off,12,0,0,,3,,,51,127
33352,note_on,32,0,0,,12,,,47,127
33364,note_off,12,0,0,,1,,,49,127
33397,note_on,33,0,0,,10,,,45,127
33408,note_off,11,0,0,,12,,,47,127
33443,note_on,35,0,0,,8,,,44,127
33453,note_off,10,0,0,,10,,,45,127
33490,note_on,37,0,0,,6,,,42,127
33499,note_off,9,0,0,,8,,,44,127
33533,note_off,34,0,0,,6,,,42,127
33540,note_on,7,0,0,,4,,,40,127
33540,note_on,0,0,0,,4,,,28,127
34631,note_off,1091,0,0,,4,,,28,127
34631,note_off,0,0,0,,4,,,40,127
34703,note_on,72,0,0,,4,,,52,127
34807,note_off,104,0,0,,4,,,52,127
34808,note_on,1,0,0,,4,,,52,127
34912,note_off,104,0,0,,4,,,52,127
34913,note_on,1,0,0,,8,,,56,127
35017,note_off,104,0,0,,8,,,56,127
35018,note_on,1,0,0,,8,,,56,127
35122,note_off,104,0,0,,8,,,56,127
35123,note_on,1,0,0,,12,,,59,127
35227,note_off,104,0,0,,12,,,59,127
35228,note_on,1,0,0,,12,,,59,127
35332,note_off,104,0,0,,12,,,59,127
35333,note_on,1,0,0,,4,,,64,127
35437,note_off,104,0,0,,4,,,64,127
35438,note_on,1,0,0,,4,,,64,127
35542,note_off,104,0,0,,4,,,64,127
35543,note_on,1,0,0,,8,,,68,127
35647,note_off,104,0,0,,8,,,68,127
35648,note_on,1,0,0,,8,,,68,127
35752,note_off,104,0,0,,8,,,68,127
35753,note_on,1,0,0,,12,,,71,127
35857,note_off,104,0,0,,12,,,71,127
35858,note_on,1,0,0,,12,,,71,127
35962,note_off,104,0,0,,12,,,71,127
35963,note_on,1,0,0,,4,,,76,127
36068,note_on,105,0,0,,8,,,80,127
36171,note_off,103,0,0,,4,,,76,127
36172,note_off,1,0,0,,8,,,80,127
36173,note_on,1,0,0,,12,,,71,127
36278,note_on,105,0,0,,4,,,76,127
36381,note_off,103,0,0,,12,,,71,127
36382,note_off,1,0,0,,4,,,76,127
36383,note_on,1,0,0,,8,,,68,127
36488,note_on,105,0,0,,12,,,71,127
36591,note_off,103,0,0,,8,,,68,127
36592,note_off,1,0,0,,12,,,71,127
36593,note_on,1,0,0,,4,,,64,127
36698,note_on,105,0,0,,8,,,68,127
36801,note_off,103,0,0,,4,,,64,127
36802,note_off,1,0,0,,8,,,68,127
36803,note_on,1,0,0,,12,,,59,127
36908,note_on,105,0,0,,4,,,64,127
37011,note_off,103,0,0,,12,,,59,127
37012,note_off,1,0,0,,4,,,64,127
37013,note_on,1,0,0,,8,,,56,127
37118,note_on,105,0,0,,12,,,59,127
37221,note_off,103,0,0,,8,,,56,127
37222,note_off,1,0,0,,12,,,59,127
37223,note_on,1,0,0,,4,,,52,127
37328,note_on,105,0,0,,8,,,56,127
37431,note_off,103,0,0,,4,,,52,127
37432,note_off,1,0,0,,8,,,56,127
37433,note_on,1,0,0,,12,,,47,127
37538,note_on,105,0,0,,4,,,52,127
37641,note_off,103,0,0,,12,,,47,127
37642,note_off,1,0,0,,4,,,52,127
37643,note_on,1,0,0,,8,,,44,127
37748,note_on,105,0,0,,12,,,47,127
37851,note_off,103,0,0,,8,,,44,127
37852,note_off,1,0,0,,12,,,47,127
37853,note_on,1,0,0,,4,,,40,127
38480,note_off,627,0,0,,4,,,40,127
38533,note_on,53,0,0,,12,,,71,127
38533,note_on,0,0,0,,2,,,74,127
38533,note_on,0,0,0,,5,,,77,127
38533,note_on,0,0,0,,8,,,68,127
38533,note_on,0,0,0,,2,,,62,127
38533,note_on,0,0,0,,5,,,65,127
38533,note_on,0,0,0,,8,,,56,127
38741,note_off,208,0,0,,8,,,68,127
38741,note_off,0,0,0,,5,,,77,127
38741,note_off,0,0,0,,2,,,74,127
38741,note_off,0,0,0,,12,,,71,127
38742,note_on,1,0,0,,4,,,76,127
38950,note_off,208,0,0,,4,,,76,127
38951,note_on,1,0,0,,2,,,74,127
39159,note_off,208,0,0,,2,,,74,127
39159,note_off,0,0,0,,8,,,56,127
39159,note_off,0,0,0,,5,,,65,127
39159,note_off,0,0,0,,2,,,62,127
39160,note_on,1,0,0,,2,,,74,127
39160,note_on,0,0,0,,10,,,57,127
39160,note_on,0,0,0,,0,,,60,127
39160,note_on,0,0,0,,4,,,64,127
39211,note_off,51,0,0,,2,,,74,127
39212,note_on,1,0,0,,0,,,72,127
39263,note_off,51,0,0,,0,,,72,127
39264,note_on,1,0,0,,2,,,74,127
39315,note_off,51,0,0,,2,,,74,127
39316,note_on,1,0,0,,0,,,72,127
39367,note_off,51,0,0,,0,,,72,127
39368,note_on,1,0,0,,12,,,71,127
39576,note_off,208,0,0,,12,,,71,127
39577,note_on,1,0,0,,10,,,69,127
39785,note_off,208,0,0,,10,,,69,127
39785,note_off,0,0,0,,4,,,64,127
39785,note_off,0,0,0,,0,,,60,127
39785,note_off,0,0,0,,10,,,57,127
39786,note_on,1,0,0,,2,,,74,127
39786,note_on,0,0,0,,5,,,77,127
39786,note_on,0,0,0,,8,,,68,127
39786,note_on,0,0,0,,12,,,71,127
39786,note_on,0,0,0,,2,,,62,127
39786,note_on,0,0,0,,5,,,65,127
39786,note_on,0,0,0,,8,,,56,127
39994,note_off,208,0,0,,12,,,71,127
39994,note_off,0,0,0,,8,,,68,127
39994,note_off,0,0,0,,5,,,77,127
39994,note_off,0,0,0,,2,,,74,127
39995,note_on,1,0,0,,4,,,76,127
40203,note_off,208,0,0,,4,,,76,127
40204,note_on,1,0,0,,2,,,74,127
40412,note_off,208,0,0,,2,,,74,127
40412,note_off,0,0,0,,8,,,56,127
40412,note_off,0,0,0,,5,,,65,127
40412,note_off,0,0,0,,2,,,62,127
40413,note_on,1,0,0,,2,,,74,127
40413,note_on,0,0,0,,4,,,64,127
40413,note_on,0,0,0,,0,,,60,127
40413,note_on,0,0,0,,10,,,57,127
40464,note_off,51,0,0,,2,,,74,127
40465,note_on,1,0,0,,0,,,72,127
40516,note_off,51,0,0,,0,,,72,127
40517,note_on,1,0,0,,2,,,74,127
40568,note_off,51,0,0,,2,,,74,127
40569,note_on,1,0,0,,0,,,72,127
40620,note_off,51,0,0,,0,,,72,127
40621,note_on,1,0,0,,12,,,71,127
40829,note_off,208,0,0,,12,,,71,127
40830,note_on,1,0,0,,10,,,69,127
41038,note_off,208,0,0,,10,,,69,127
41038,note_off,0,0,0,,10,,,57,127
41038,note_off,0,0,0,,0,,,60,127
41038,note_off,0,0,0,,4,,,64,127
41046,note_on,8,0,0,,1,,,49,127
41046,note_on,0,0,0,,7,,,55,127
41046,note_on,0,0,0,,10,,,57,127
41046,note_on,0,0,0,,7,,,67,127
41046,note_on,0,0,0,,4,,,64,127
41254,note_off,208,0,0,,7,,,67,127
41255,note_on,1,0,0,,4,,,76,127
41463,note_off,208,0,0,,4,,,76,127
41464,note_on,1,0,0,,7,,,67,127
41672,note_off,208,0,0,,7,,,67,127
41672,note_off,0,0,0,,4,,,64,127
41672,note_off,0,0,0,,10,,,57,127
41672,note_off,0,0,0,,7,,,55,127
41672,note_off,0,0,0,,1,,,49,127
41673,note_on,1,0,0,,2,,,50,127
41673,note_on,0,0,0,,7,,,55,127
41673,note_on,0,0,0,,2,,,62,127
41673,note_on,0,0,0,,10,,,57,127
41673,note_on,0,0,0,,10,,,69,127
41724,note_off,51,0,0,,10,,,69,127
41725,note_on,1,0,0,,7,,,67,127
41776,note_off,51,0,0,,7,,,67,127
41777,note_on,1,0,0,,10,,,69,127
41828,note_off,51,0,0,,10,,,69,127
41829,note_on,1,0,0,,7,,,67,127
41880,note_off,51,0,0,,7,,,67,127
41881,note_on,1,0,0,,5,,,65,127
42089,note_off,208,0,0,,5,,,65,127
42090,note_on,1,0,0,,2,,,74,127
42298,note_off,208,0,0,,10,,,57,127
42298,note_off,0,0,0,,2,,,62,127
42298,note_off,0,0,0,,7,,,55,127
42298,note_off,0,0,0,,2,,,50,127
42299,note_on,1,0,0,,1,,,49,127
42299,note_on,0,0,0,,10,,,57,127
42299,note_on,0,0,0,,7,,,55,127
42299,note_on,0,0,0,,4,,,64,127
42504,note_off,205,0,0,,2,,,74,127
42508,note_on,4,0,0,,4,,,76,127
42716,note_off,208,0,0,,4,,,76,127
42717,note_on,1,0,0,,7,,,67,127
42925,note_off,208,0,0,,7,,,67,127
42925,note_off,0,0,0,,4,,,64,127
42925,note_off,0,0,0,,7,,,55,127
42925,note_off,0,0,0,,10,,,57,127
42925,note_off,0,0,0,,1,,,49,127
42926,note_on,1,0,0,,2,,,50,127
42926,note_on,0,0,0,,10,,,57,127
42926,note_on,0,0,0,,7,,,55,127
42926,note_on,0,0,0,,2,,,62,127
42926,note_on,0,0,0,,10,,,69,127
42977,note_off,51,0,0,,10,,,69,127
42978,note_on,1,0,0,,7,,,67,127
43029,note_off,51,0,0,,7,,,67,127
43030,note_on,1,0,0,,10,,,69,127
43081,note_off,51,0,0,,10,,,69,127
43082,note_on,1,0,0,,7,,,67,127
43133,note_off,51,0,0,,7,,,67,127
43134,note_on,1,0,0,,6,,,66,127
43342,note_off,208,0,0,,6,,,66,127
43350,note_on,8,0,0,,2,,,74,127
43552,note_off,202,0,0,,2,,,62,127
43552,note_off,0,0,0,,7,,,55,127
43552,note_off,0,0,0,,10,,,57,127
43552,note_off,0,0,0,,2,,,50,127
43560,note_on,8,0,0,,2,,,62,127
43560,note_on,0,0,0,,0,,,60,127
43560,note_on,0,0,0,,6,,,54,127
43768,note_off,208,0,0,,2,,,74,127
43769,note_on,1,0,0,,3,,,75,127
43977,note_off,208,0,0,,3,,,75,127
43977,note_off,0,0,0,,2,,,62,127
43978,note_on,1,0,0,,0,,,72,127
43978,note_on,0,0,0,,3,,,63,127
44186,note_off,208,0,0,,3,,,63,127
44186,note_off,0,0,0,,0,,,72,127
44186,note_off,0,0,0,,6,,,54,127
44186,note_off,0,0,0,,0,,,60,127
44187,note_on,1,0,0,,2,,,74,127
44187,note_on,0,0,0,,0,,,60,127
44187,note_on,0,0,0,,3,,,63,127
44187,note_on,0,0,0,,7,,,55,127
44238,note_off,51,0,0,,2,,,74,127
44239,note_on,1,0,0,,0,,,72,127
44290,note_off,51,0,0,,0,,,72,127
44291,note_on,1,0,0,,2,,,74,127
44342,note_off,51,0,0,,2,,,74,127
44343,note_on,1,0,0,,0,,,72,127
44394,note_off,51,0,0,,0,,,72,127
44394,note_off,0,0,0,,3,,,63,127
44395,note_on,1,0,0,,12,,,71,127
44395,note_on,0,0,0,,2,,,62,127
44603,note_off,208,0,0,,12,,,71,127
44604,note_on,1,0,0,,2,,,74,127
44812,note_off,208,0,0,,2,,,62,127
44812,note_off,0,0,0,,7,,,55,127
44812,note_off,0,0,0,,0,,,60,127
44813,note_on,1,0,0,,2,,,62,127
44813,note_on,0,0,0,,6,,,54,127
44813,note_on,0,0,0,,0,,,60,127
45021,note_off,208,0,0,,2,,,74,127
45022,note_on,1,0,0,,3,,,75,127
45230,note_off,208,0,0,,3,,,75,127
45230,note_off,0,0,0,,2,,,62,127
45231,note_on,1,0,0,,0,,,72,127
45231,note_on,0,0,0,,3,,,63,127
45439,note_off,208,0,0,,3,,,63,127
45439,note_off,0,0,0,,0,,,72,127
45439,note_off,0,0,0,,0,,,60,127
45439,note_off,0,0,0,,6,,,54,127
45440,note_on,1,0,0,,2,,,74,127
45440,note_on,0,0,0,,0,,,60,127
45440,note_on,0,0,0,,3,,,63,127
45440,note_on,0,0,0,,7,,,55,127
45491,note_off,51,0,0,,2,,,74,127
45492,note_on,1,0,0,,0,,,72,127
45543,note_off,51,0,0,,0,,,72,127
45544,note_on,1,0,0,,2,,,74,127
45595,note_off,51,0,0,,2,,,74,127
45596,note_on,1,0,0,,0,,,72,127
45647,note_off,51,0,0,,0,,,72,127
45647,note_off,0,0,0,,3,,,63,127
45648,note_on,1,0,0,,12,,,71,127
45648,note_on,0,0,0,,2,,,62,127
45856,note_off,208,0,0,,12,,,71,127
45864,note_on,8,0,0,,7,,,79,127
46066,note_off,202,0,0,,2,,,62,127
46066,note_off,0,0,0,,7,,,55,127
46066,note_off,0,0,0,,0,,,60,127
46074,note_on,8,0,0,,12,,,59,127
46074,note_on,0,0,0,,5,,,65,127
46074,note_on,0,0,0,,7,,,67,127
46282,note_off,208,0,0,,7,,,79,127
46283,note_on,1,0,0,,8,,,80,127
46491,note_off,208,0,0,,8,,,80,127
46491,note_off,0,0,0,,7,,,67,127
46492,note_on,1,0,0,,8,,,68,127
46492,note_on,0,0,0,,5,,,77,127
46700,note_off,208,0,0,,5,,,77,127
46700,note_off,0,0,0,,8,,,68,127
46700,note_off,0,0,0,,5,,,65,127
46700,note_off,0,0,0,,12,,,59,127
46701,note_on,1,0,0,,0,,,60,127
46701,note_on,0,0,0,,5,,,65,127
46701,note_on,0,0,0,,8,,,68,127
46701,note_on,0,0,0,,7,,,79,127
46752,note_off,51,0,0,,7,,,79,127
46753,note_on,1,0,0,,5,,,77,127
46804,note_off,51,0,0,,5,,,77,127
46805,note_on,1,0,0,,7,,,79,127
46856,note_off,51,0,0,,7,,,79,127
46857,note_on,1,0,0,,5,,,77,127
46908,note_off,51,0,0,,5,,,77,127
46908,note_off,0,0,0,,8,,,68,127
46909,note_on,1,0,0,,7,,,67,127
46909,note_on,0,0,0,,4,,,76,127
47117,note_off,208,0,0,,4,,,76,127
47118,note_on,1,0,0,,7,,,79,127
47326,note_off,208,0,0,,7,,,67,127
47326,note_off,0,0,0,,5,,,65,127
47326,note_off,0,0,0,,0,,,60,127
47327,note_on,1,0,0,,12,,,59,127
47327,note_on,0,0,0,,7,,,67,127
47327,note_on,0,0,0,,5,,,65,127
47535,note_off,208,0,0,,7,,,79,127
47536,note_on,1,0,0,,8,,,80,127
47744,note_off,208,0,0,,8,,,80,127
47744,note_off,0,0,0,,7,,,67,127
47745,note_on,1,0,0,,8,,,68,127
47745,note_on,0,0,0,,5,,,77,127
47953,note_off,208,0,0,,5,,,77,127
47953,note_off,0,0,0,,8,,,68,127
47953,note_off,0,0,0,,5,,,65,127
47953,note_off,0,0,0,,12,,,59,127
47954,note_on,1,0,0,,0,,,60,127
47954,note_on,0,0,0,,5,,,65,127
47954,note_on,0,0,0,,8,,,68,127
47954,note_on,0,0,0,,7,,,79,127
48005,note_off,51,0,0,,7,,,79,127
48006,note_on,1,0,0,,5,,,77,127
48057,note_off,51,0,0,,5,,,77,127
48058,note_on,1,0,0,,7,,,79,127
48109,note_off,51,0,0,,7,,,79,127
48110,note_on,1,0,0,,5,,,77,127
48161,note_off,51,0,0,,5,,,77,127
48161,note_off,0,0,0,,8,,,68,127
48162,note_on,1,0,0,,7,,,67,127
48162,note_on,0,0,0,,4,,,76,127
48370,note_off,208,0,0,,4,,,76,127
48389,note_on,19,0,0,,0,,,84,127
48580,note_off,191,0,0,,7,,,67,127
48580,note_off,0,0,0,,5,,,65,127
48580,note_off,0,0,0,,0,,,60,127
48599,note_on,19,0,0,,8,,,68,127
48599,note_on,0,0,0,,12,,,71,127
48807,note_off,208,0,0,,0,,,84,127
48808,note_on,1,0,0,,12,,,83,127
49016,note_off,208,0,0,,12,,,83,127
49017,note_on,1,0,0,,2,,,74,127
49225,note_off,208,0,0,,12,,,71,127
49225,note_off,0,0,0,,8,,,68,127
49226,note_on,1,0,0,,10,,,69,127
49434,note_off,208,0,0,,2,,,74,127
49435,note_on,1,0,0,,0,,,72,127
49643,note_off,208,0,0,,0,,,72,127
49644,note_on,1,0,0,,5,,,77,127
49852,note_off,208,0,0,,10,,,69,127
49853,note_on,1,0,0,,2,,,50,127
49853,note_on,0,0,0,,10,,,57,127
49853,note_on,0,0,0,,2,,,62,127
50061,note_off,208,0,0,,5,,,77,127
50062,note_on,1,0,0,,4,,,76,127
50270,note_off,208,0,0,,4,,,76,127
50271,note_on,1,0,0,,10,,,69,127
50479,note_off,208,0,0,,10,,,69,127
50479,note_off,0,0,0,,2,,,62,127
50479,note_off,0,0,0,,10,,,57,127
50479,note_off,0,0,0,,2,,,50,127
50480,note_on,1,0,0,,12,,,71,127
50480,note_on,0,0,0,,12,,,59,127
50480,note_on,0,0,0,,4,,,64,127
50480,note_on,0,0,0,,4,,,52,127
50531,note_off,51,0,0,,12,,,71,127
50532,note_on,1,0,0,,10,,,69,127
50583,note_off,51,0,0,,10,,,69,127
50584,note_on,1,0,0,,12,,,71,127
50635,note_off,51,0,0,,12,,,71,127
50636,note_on,1,0,0,,10,,,69,127
50687,note_off,51,0,0,,10,,,69,127
50699,note_on,12,0,0,,8,,,68,127
50893,note_off,194,0,0,,4,,,52,127
51106,note_off,213,0,0,,4,,,64,127
51106,note_off,0,0,0,,12,,,59,127
51223,note_off,117,0,0,,8,,,68,127
51736,note_on,513,0,0,,2,,,74,127
51736,note_on,0,0,0,,5,,,77,127
51736,note_on,0,0,0,,12,,,71,127
51736,note_on,0,0,0,,8,,,68,127
51944,note_off,208,0,0,,5,,,77,127
51944,note_off,0,0,0,,2,,,74,127
51945,note_on,1,0,0,,0,,,72,127
51945,note_on,0,0,0,,4,,,76,127
52153,note_off,208,0,0,,4,,,76,127
52153,note_off,0,0,0,,0,,,72,127
52154,note_on,1,0,0,,5,,,77,127
52154,note_on,0,0,0,,2,,,74,127
52362,note_off,208,0,0,,2,,,74,127
52362,note_off,0,0,0,,5,,,77,127
52362,note_off,0,0,0,,8,,,68,127
52362,note_off,0,0,0,,12,,,71,127
52363,note_on,1,0,0,,4,,,76,127
52363,note_on,0,0,0,,10,,,69,127
52363,note_on,0,0,0,,0,,,72,127
52571,note_off,208,0,0,,0,,,72,127
52571,note_off,0,0,0,,10,,,69,127
52572,note_on,1,0,0,,12,,,71,127
52572,note_on,0,0,0,,8,,,68,127
52780,note_off,208,0,0,,8,,,68,127
52780,note_off,0,0,0,,12,,,71,127
52781,note_on,1,0,0,,0,,,72,127
52781,note_on,0,0,0,,10,,,69,127
52989,note_off,208,0,0,,10,,,69,127
52989,note_off,0,0,0,,0,,,72,127
52989,note_off,0,0,0,,4,,,76,127
52990,note_on,1,0,0,,2,,,74,127
52990,note_on,0,0,0,,5,,,77,127
52990,note_on,0,0,0,,12,,,71,127
52990,note_on,0,0,0,,8,,,68,127
53198,note_off,208,0,0,,5,,,77,127
53198,note_off,0,0,0,,2,,,74,127
53199,note_on,1,0,0,,0,,,72,127
53199,note_on,0,0,0,,4,,,76,127
53407,note_off,208,0,0,,4,,,76,127
53407,note_off,0,0,0,,0,,,72,127
53408,note_on,1,0,0,,2,,,74,127
53408,note_on,0,0,0,,5,,,77,127
53616,note_off,208,0,0,,5,,,77,127
53616,note_off,0,0,0,,2,,,74,127
53616,note_off,0,0,0,,8,,,68,127
53616,note_off,0,0,0,,12,,,71,127
53617,note_on,1,0,0,,4,,,76,127
53617,note_on,0,0,0,,0,,,72,127
53617,note_on,0,0,0,,10,,,69,127
53825,note_off,208,0,0,,10,,,69,127
53825,note_off,0,0,0,,0,,,72,127
53826,note_on,1,0,0,,12,,,71,127
53826,note_on,0,0,0,,8,,,68,127
54034,note_off,208,0,0,,8,,,68,127
54034,note_off,0,0,0,,12,,,71,127
54035,note_on,1,0,0,,10,,,69,127
54035,note_on,0,0,0,,0,,,72,127
54243,note_off,208,0,0,,0,,,72,127
54243,note_off,0,0,0,,10,,,69,127
54243,note_off,0,0,0,,4,,,76,127
54251,note_on,8,0,0,,8,,,68,127
54251,note_on,0,0,0,,12,,,71,127
54251,note_on,0,0,0,,5,,,77,127
54251,note_on,0,0,0,,2,,,74,127
54459,note_off,208,0,0,,2,,,74,127
54459,note_off,0,0,0,,5,,,77,127
54460,note_on,1,0,0,,4,,,76,127
54460,note_on,0,0,0,,0,,,72,127
54668,note_off,208,0,0,,0,,,72,127
54668,note_off,0,0,0,,4,,,76,127
54669,note_on,1,0,0,,5,,,77,127
54669,note_on,0,0,0,,2,,,74,127
54877,note_off,208,0,0,,2,,,74,127
54877,note_off,0,0,0,,5,,,77,127
54877,note_off,0,0,0,,12,,,71,127
54877,note_off,0,0,0,,8,,,68,127
54878,note_on,1,0,0,,10,,,69,127
54878,note_on,0,0,0,,0,,,72,127
54878,note_on,0,0,0,,4,,,76,127
55086,note_off,208,0,0,,0,,,72,127
55086,note_off,0,0,0,,10,,,69,127
55087,note_on,1,0,0,,8,,,68,127
55087,note_on,0,0,0,,12,,,71,127
55295,note_off,208,0,0,,12,,,71,127
55295,note_off,0,0,0,,8,,,68,127
55296,note_on,1,0,0,,10,,,69,127
55296,note_on,0,0,0,,0,,,72,127
55504,note_off,208,0,0,,0,,,72,127
55504,note_off,0,0,0,,10,,,69,127
55504,note_off,0,0,0,,4,,,76,127
55518,note_on,14,0,0,,5,,,77,127
55518,note_on,0,0,0,,7,,,67,127
55518,note_on,0,0,0,,12,,,71,127
55569,note_off,51,0,0,,5,,,77,127
55570,note_on,1,0,0,,4,,,76,127
55621,note_off,51,0,0,,4,,,76,127
55622,note_on,1,0,0,,5,,,77,127
55673,note_off,51,0,0,,5,,,77,127
55674,note_on,1,0,0,,4,,,76,127
55725,note_off,51,0,0,,12,,,71,127
55725,note_off,0,0,0,,7,,,67,127
55726,note_on,1,0,0,,10,,,69,127
55726,note_on,0,0,0,,5,,,65,127
55934,note_off,208,0,0,,5,,,65,127
55934,note_off,0,0,0,,10,,,69,127
55935,note_on,1,0,0,,12,,,71,127
55935,note_on,0,0,0,,7,,,67,127
56143,note_off,208,0,0,,7,,,67,127
56143,note_off,0,0,0,,12,,,71,127
56144,note_on,1,0,0,,10,,,69,127
56144,note_on,0,0,0,,5,,,65,127
56196,note_off,52,0,0,,4,,,76,127
56196,note_on,0,0,0,,2,,,74,127
56247,note_off,51,0,0,,2,,,74,127
56248,note_on,1,0,0,,4,,,76,127
56299,note_off,51,0,0,,4,,,76,127
56300,note_on,1,0,0,,2,,,74,127
56351,note_off,51,0,0,,5,,,65,127
56351,note_off,0,0,0,,10,,,69,127
56352,note_on,1,0,0,,4,,,64,127
56352,note_on,0,0,0,,7,,,67,127
56560,note_off,208,0,0,,7,,,67,127
56560,note_off,0,0,0,,4,,,64,127
56561,note_on,1,0,0,,10,,,69,127
56561,note_on,0,0,0,,5,,,65,127
56769,note_off,208,0,0,,5,,,65,127
56769,note_off,0,0,0,,10,,,69,127
56770,note_on,1,0,0,,4,,,64,127
56770,note_on,0,0,0,,7,,,67,127
56822,note_off,52,0,0,,2,,,74,127
56822,note_on,0,0,0,,0,,,72,127
56873,note_off,51,0,0,,0,,,72,127
56874,note_on,1,0,0,,2,,,74,127
56925,note_off,51,0,0,,2,,,74,127
56926,note_on,1,0,0,,0,,,72,127
56977,note_off,51,0,0,,7,,,67,127
56977,note_off,0,0,0,,4,,,64,127
56978,note_on,1,0,0,,2,,,62,127
56978,note_on,0,0,0,,5,,,65,127
57186,note_off,208,0,0,,5,,,65,127
57186,note_off,0,0,0,,2,,,62,127
57187,note_on,1,0,0,,7,,,67,127
57187,note_on,0,0,0,,4,,,64,127
57395,note_off,208,0,0,,4,,,64,127
57395,note_off,0,0,0,,7,,,67,127
57396,note_on,1,0,0,,5,,,65,127
57396,note_on,0,0,0,,2,,,62,127
57448,note_off,52,0,0,,0,,,72,127
57448,note_on,0,0,0,,12,,,71,127
57499,note_off,51,0,0,,12,,,71,127
57500,note_on,1,0,0,,0,,,72,127
57551,note_off,51,0,0,,0,,,72,127
57552,note_on,1,0,0,,12,,,71,127
57603,note_off,51,0,0,,2,,,62,127
57603,note_off,0,0,0,,5,,,65,127
57604,note_on,1,0,0,,4,,,64,127
57604,note_on,0,0,0,,0,,,60,127
57812,note_off,208,0,0,,0,,,60,127
57812,note_off,0,0,0,,4,,,64,127
57813,note_on,1,0,0,,2,,,62,127
57813,note_on,0,0,0,,5,,,65,127
58021,note_off,208,0,0,,5,,,65,127
58021,note_off,0,0,0,,2,,,62,127
58022,note_on,1,0,0,,0,,,60,127
58022,note_on,0,0,0,,4,,,64,127
58074,note_off,52,0,0,,12,,,71,127
58074,note_on,0,0,0,,10,,,69,127
58125,note_off,51,0,0,,10,,,69,127
58126,note_on,1,0,0,,12,,,71,127
58177,note_off,51,0,0,,12,,,71,127
58178,note_on,1,0,0,,10,,,69,127
58229,note_off,51,0,0,,4,,,64,127
58229,note_off,0,0,0,,0,,,60,127
58230,note_on,1,0,0,,12,,,59,127
58230,note_on,0,0,0,,2,,,62,127
58438,note_off,208,0,0,,2,,,62,127
58438,note_off,0,0,0,,12,,,59,127
58439,note_on,1,0,0,,4,,,64,127
58439,note_on,0,0,0,,0,,,60,127
58647,note_off,208,0,0,,0,,,60,127
58647,note_off,0,0,0,,4,,,64,127
58648,note_on,1,0,0,,2,,,62,127
58648,note_on,0,0,0,,12,,,59,127
58700,note_off,52,0,0,,10,,,69,127
58700,note_on,0,0,0,,8,,,68,127
58751,note_off,51,0,0,,8,,,68,127
58752,note_on,1,0,0,,10,,,69,127
58803,note_off,51,0,0,,10,,,69,127
58804,note_on,1,0,0,,8,,,68,127
58855,note_off,51,0,0,,12,,,59,127
58855,note_off,0,0,0,,2,,,62,127
58856,note_on,1,0,0,,10,,,57,127
58856,note_on,0,0,0,,0,,,60,127
59064,note_off,208,0,0,,0,,,60,127
59064,note_off,0,0,0,,10,,,57,127
59065,note_on,1,0,0,,12,,,59,127
59065,note_on,0,0,0,,2,,,62,127
59273,note_off,208,0,0,,2,,,62,127
59273,note_off,0,0,0,,12,,,59,127
59273,note_off,0,0,0,,8,,,68,127
59274,note_on,1,0,0,,12,,,71,127
59274,note_on,0,0,0,,0,,,60,127
59274,note_on,0,0,0,,10,,,57,127
59325,note_off,51,0,0,,12,,,71,127
59326,note_on,1,0,0,,10,,,69,127
59377,note_off,51,0,0,,10,,,69,127
59378,note_on,1,0,0,,12,,,71,127
59429,note_off,51,0,0,,12,,,71,127
59430,note_on,1,0,0,,10,,,69,127
59481,note_off,51,0,0,,10,,,57,127
59481,note_off,0,0,0,,0,,,60,127
59482,note_on,1,0,0,,8,,,56,127
59482,note_on,0,0,0,,12,,,59,127
59690,note_off,208,0,0,,12,,,59,127
59690,note_off,0,0,0,,8,,,56,127
59691,note_on,1,0,0,,10,,,57,127
59691,note_on,0,0,0,,0,,,60,127
59899,note_off,208,0,0,,0,,,60,127
59899,note_off,0,0,0,,10,,,57,127
59899,note_off,0,0,0,,10,,,69,127
59913,note_on,14,0,0,,4,,,52,127
60122,note_on,209,0,0,,8,,,56,127
60330,note_off,208,0,0,,8,,,56,127
60331,note_on,1,0,0,,10,,,57,127
60539,note_off,208,0,0,,10,,,57,127
60540,note_on,1,0,0,,12,,,59,127
60748,note_off,208,0,0,,12,,,59,127
60749,note_on,1,0,0,,2,,,62,127
60957,note_off,208,0,0,,2,,,62,127
60958,note_on,1,0,0,,12,,,59,127
60958,note_on,0,0,0,,4,,,64,127
60958,note_on,0,0,0,,2,,,74,127
60958,note_on,0,0,0,,12,,,71,127
60958,note_on,0,0,0,,8,,,68,127
61166,note_off,208,0,0,,8,,,68,127
61166,note_off,0,0,0,,12,,,71,127
61166,note_off,0,0,0,,2,,,74,127
61166,note_off,0,0,0,,4,,,64,127
61166,note_off,0,0,0,,12,,,59,127
61166,note_off,0,0,0,,4,,,52,127
61167,note_on,1,0,0,,10,,,57,127
61167,note_on,0,0,0,,10,,,45,127
61167,note_on,0,0,0,,1,,,73,127
61167,note_on,0,0,0,,10,,,69,127
61167,note_on,0,0,0,,4,,,64,127
61375,note_off,208,0,0,,10,,,69,127
61375,note_off,0,0,0,,1,,,73,127
61376,note_on,1,0,0,,10,,,69,127
61584,note_off,208,0,0,,10,,,69,127
61584,note_off,0,0,0,,4,,,64,127
61584,note_off,0,0,0,,10,,,45,127
61584,note_off,0,0,0,,10,,,57,127
61585,note_on,1,0,0,,2,,,50,127
61585,note_on,0,0,0,,10,,,57,127
61585,note_on,0,0,0,,6,,,66,127
61585,note_on,0,0,0,,10,,,69,127
61585,note_on,0,0,0,,2,,,62,127
61585,note_on,0,0,0,,2,,,74,127
61793,note_off,208,0,0,,2,,,74,127
61793,note_off,0,0,0,,2,,,62,127
61793,note_off,0,0,0,,10,,,69,127
61793,note_off,0,0,0,,6,,,66,127
61793,note_off,0,0,0,,10,,,57,127
61793,note_off,0,0,0,,2,,,50,127
61794,note_on,1,0,0,,4,,,52,127
61794,note_on,0,0,0,,10,,,57,127
61794,note_on,0,0,0,,1,,,61,127
61794,note_on,0,0,0,,1,,,73,127
61794,note_on,0,0,0,,10,,,69,127
61794,note_on,0,0,0,,4,,,64,127
62002,note_off,208,0,0,,1,,,73,127
62003,note_on,1,0,0,,2,,,74,127
62211,note_off,208,0,0,,2,,,74,127
62211,note_off,0,0,0,,4,,,64,127
62211,note_off,0,0,0,,10,,,69,127
62211,note_off,0,0,0,,1,,,61,127
62211,note_off,0,0,0,,10,,,57,127
62211,note_off,0,0,0,,4,,,52,127
62212,note_on,1,0,0,,12,,,59,127
62212,note_on,0,0,0,,4,,,52,127
62212,note_on,0,0,0,,8,,,68,127
62212,note_on,0,0,0,,4,,,64,127
62212,note_on,0,0,0,,12,,,71,127
62420,note_off,208,0,0,,12,,,71,127
62420,note_off,0,0,0,,4,,,64,127
62420,note_off,0,0,0,,8,,,68,127
62420,note_off,0,0,0,,4,,,52,127
62420,note_off,0,0,0,,12,,,59,127
62434,note_on,14,0,0,,1,,,73,127
62434,note_on,0,0,0,,10,,,45,127
62538,note_off,104,0,0,,1,,,73,127
62539,note_on,1,0,0,,4,,,76,127
62643,note_off,104,0,0,,4,,,76,127
62644,note_on,1,0,0,,10,,,69,127
62748,note_off,104,0,0,,10,,,69,127
62749,note_on,1,0,0,,1,,,73,127
62853,note_off,104,0,0,,1,,,73,127
62854,note_on,1,0,0,,4,,,64,127
62958,note_off,104,0,0,,4,,,64,127
62959,note_on,1,0,0,,10,,,69,127
63063,note_off,104,0,0,,10,,,69,127
63063,note_off,0,0,0,,10,,,45,127
63064,note_on,1,0,0,,1,,,73,127
63064,note_on,0,0,0,,12,,,59,127
63115,note_off,51,0,0,,12,,,59,127
63116,note_on,1,0,0,,10,,,57,127
63167,note_off,51,0,0,,10,,,57,127
63167,note_off,0,0,0,,1,,,73,127
63168,note_on,1,0,0,,4,,,76,127
63168,note_on,0,0,0,,12,,,59,127
63219,note_off,51,0,0,,12,,,59,127
63220,note_on,1,0,0,,10,,,57,127
63271,note_off,51,0,0,,4,,,76,127
63272,note_on,1,0,0,,10,,,69,127
63376,note_off,104,0,0,,10,,,69,127
63377,note_on,1,0,0,,1,,,73,127
63481,note_off,104,0,0,,1,,,73,127
63482,note_on,1,0,0,,4,,,64,127
63586,note_off,104,0,0,,4,,,64,127
63587,note_on,1,0,0,,10,,,69,127
63691,note_off,104,0,0,,10,,,69,127
63691,note_off,0,0,0,,10,,,57,127
63692,note_on,1,0,0,,1,,,73,127
63692,note_on,0,0,0,,12,,,59,127
63743,note_off,51,0,0,,12,,,59,127
63744,note_on,1,0,0,,10,,,57,127
63795,note_off,51,0,0,,10,,,57,127
63795,note_off,0,0,0,,1,,,73,127
63796,note_on,1,0,0,,4,,,76,127
63796,note_on,0,0,0,,12,,,59,127
63847,note_off,51,0,0,,12,,,59,127
63848,note_on,1,0,0,,10,,,57,127
63899,note_off,51,0,0,,4,,,76,127
63900,note_on,1,0,0,,10,,,69,127
64004,note_off,104,0,0,,10,,,69,127
64005,note_on,1,0,0,,1,,,73,127
64109,note_off,104,0,0,,1,,,73,127
64110,note_on,1,0,0,,4,,,64,127
64214,note_off,104,0,0,,4,,,64,127
64215,note_on,1,0,0,,10,,,69,127
64319,note_off,104,0,0,,10,,,69,127
64319,note_off,0,0,0,,10,,,57,127
64320,note_on,1,0,0,,1,,,73,127
64320,note_on,0,0,0,,12,,,59,127
64371,note_off,51,0,0,,12,,,59,127
64372,note_on,1,0,0,,10,,,57,127
64423,note_off,51,0,0,,10,,,57,127
64424,note_on,1,0,0,,12,,,71,127
64424,note_on,0,0,0,,12,,,59,127
64475,note_off,51,0,0,,12,,,59,127
64476,note_on,1,0,0,,10,,,57,127
64527,note_off,51,0,0,,12,,,71,127
64528,note_on,1,0,0,,10,,,69,127
64632,note_off,104,0,0,,10,,,69,127
64633,note_on,1,0,0,,7,,,67,127
64737,note_off,104,0,0,,7,,,67,127
64738,note_on,1,0,0,,6,,,66,127
64842,note_off,104,0,0,,6,,,66,127
64843,note_on,1,0,0,,4,,,64,127
64947,note_off,104,0,0,,4,,,64,127
64947,note_off,0,0,0,,10,,,57,127
64947,note_off,0,0,0,,1,,,73,127
64955,note_on,8,0,0,,2,,,62,127
64955,note_on,0,0,0,,6,,,78,127
65059,note_off,104,0,0,,6,,,78,127
65060,note_on,1,0,0,,10,,,81,127
65164,note_off,104,0,0,,10,,,81,127
65165,note_on,1,0,0,,2,,,74,127
65269,note_off,104,0,0,,2,,,74,127
65270,note_on,1,0,0,,6,,,78,127
65374,note_off,104,0,0,,6,,,78,127
65375,note_on,1,0,0,,10,,,69,127
65479,note_off,104,0,0,,10,,,69,127
65480,note_on,1,0,0,,2,,,74,127
65584,note_off,104,0,0,,2,,,74,127
65584,note_off,0,0,0,,2,,,62,127
65585,note_on,1,0,0,,4,,,64,127
65585,note_on,0,0,0,,6,,,78,127
65636,note_off,51,0,0,,4,,,64,127
65637,note_on,1,0,0,,2,,,62,127
65688,note_off,51,0,0,,2,,,62,127
65688,note_off,0,0,0,,6,,,78,127
65689,note_on,1,0,0,,4,,,64,127
65689,note_on,0,0,0,,10,,,81,127
65740,note_off,51,0,0,,4,,,64,127
65741,note_on,1,0,0,,2,,,62,127
65792,note_off,51,0,0,,10,,,81,127
65793,note_on,1,0,0,,2,,,74,127
65897,note_off,104,0,0,,2,,,74,127
65898,note_on,1,0,0,,6,,,78,127
66002,note_off,104,0,0,,6,,,78,127
66003,note_on,1,0,0,,10,,,69,127
66107,note_off,104,0,0,,10,,,69,127
66108,note_on,1,0,0,,2,,,74,127
66212,note_off,104,0,0,,2,,,74,127
66212,note_off,0,0,0,,2,,,62,127
66213,note_on,1,0,0,,4,,,64,127
66213,note_on,0,0,0,,6,,,78,127
66264,note_off,51,0,0,,4,,,64,127
66265,note_on,1,0,0,,2,,,62,127
66316,note_off,51,0,0,,2,,,62,127
66316,note_off,0,0,0,,6,,,78,127
66317,note_on,1,0,0,,4,,,64,127
66317,note_on,0,0,0,,10,,,81,127
66368,note_off,51,0,0,,4,,,64,127
66369,note_on,1,0,0,,2,,,62,127
66420,note_off,51,0,0,,10,,,81,127
66421,note_on,1,0,0,,2,,,74,127
66525,note_off,104,0,0,,2,,,74,127
66526,note_on,1,0,0,,6,,,78,127
66630,note_off,104,0,0,,6,,,78,127
66631,note_on,1,0,0,,10,,,69,127
66735,note_off,104,0,0,,10,,,69,127
66736,note_on,1,0,0,,2,,,74,127
66840,note_off,104,0,0,,2,,,74,127
66840,note_off,0,0,0,,2,,,62,127
66841,note_on,1,0,0,,4,,,64,127
66841,note_on,0,0,0,,6,,,78,127
66892,note_off,51,0,0,,4,,,64,127
66893,note_on,1,0,0,,2,,,62,127
66944,note_off,51,0,0,,2,,,62,127
66944,note_off,0,0,0,,6,,,78,127
66945,note_on,1,0,0,,4,,,64,127
66945,note_on,0,0,0,,10,,,81,127
66996,note_off,51,0,0,,4,,,64,127
66997,note_on,1,0,0,,2,,,62,127
67048,note_off,51,0,0,,10,,,81,127
67049,note_on,1,0,0,,2,,,74,127
67153,note_off,104,0,0,,2,,,74,127
67154,note_on,1,0,0,,6,,,78,127
67258,note_off,104,0,0,,6,,,78,127
67259,note_on,1,0,0,,10,,,69,127
67363,note_off,104,0,0,,10,,,69,127
67364,note_on,1,0,0,,2,,,74,127
67468,note_off,104,0,0,,2,,,74,127
67468,note_off,0,0,0,,2,,,62,127
67476,note_on,8,0,0,,6,,,78,127
67476,note_on,0,0,0,,2,,,62,127
67580,note_off,104,0,0,,6,,,78,127
67581,note_on,1,0,0,,10,,,81,127
67685,note_off,104,0,0,,10,,,81,127
67686,note_on,1,0,0,,2,,,74,127
67790,note_off,104,0,0,,2,,,74,127
67791,note_on,1,0,0,,6,,,78,127
67895,note_off,104,0,0,,6,,,78,127
67896,note_on,1,0,0,,10,,,69,127
68000,note_off,104,0,0,,10,,,69,127
68001,note_on,1,0,0,,6,,,78,127
68105,note_off,104,0,0,,6,,,78,127
68105,note_off,0,0,0,,2,,,62,127
68106,note_on,1,0,0,,4,,,76,127
68106,note_on,0,0,0,,1,,,61,127
68210,note_off,104,0,0,,4,,,76,127
68211,note_on,1,0,0,,10,,,81,127
68315,note_off,104,0,0,,10,,,81,127
68316,note_on,1,0,0,,1,,,73,127
68420,note_off,104,0,0,,1,,,73,127
68421,note_on,1,0,0,,4,,,76,127
68525,note_off,104,0,0,,4,,,76,127
68526,note_on,1,0,0,,10,,,69,127
68630,note_off,104,0,0,,10,,,69,127
68631,note_on,1,0,0,,4,,,76,127
68735,note_off,104,0,0,,4,,,76,127
68735,note_off,0,0,0,,1,,,61,127
68736,note_on,1,0,0,,2,,,74,127
68736,note_on,0,0,0,,12,,,59,127
68840,note_off,104,0,0,,2,,,74,127
68841,note_on,1,0,0,,10,,,81,127
68945,note_off,104,0,0,,10,,,81,127
68946,note_on,1,0,0,,8,,,80,127
69050,note_off,104,0,0,,8,,,80,127
69051,note_on,1,0,0,,6,,,78,127
69155,note_off,104,0,0,,6,,,78,127
69155,note_off,0,0,0,,12,,,59,127
69156,note_on,1,0,0,,4,,,76,127
69156,note_on,0,0,0,,4,,,64,127
69260,note_off,104,0,0,,4,,,76,127
69261,note_on,1,0,0,,2,,,74,127
69365,note_off,104,0,0,,2,,,74,127
69365,note_off,0,0,0,,4,,,64,127
69366,note_on,1,0,0,,1,,,73,127
69366,note_on,0,0,0,,10,,,45,127
69366,note_on,0,0,0,,10,,,57,127
69470,note_off,104,0,0,,1,,,73,127
69471,note_on,1,0,0,,6,,,78,127
69575,note_off,104,0,0,,6,,,78,127
69576,note_on,1,0,0,,4,,,76,127
69680,note_off,104,0,0,,4,,,76,127
69681,note_on,1,0,0,,2,,,74,127
69785,note_off,104,0,0,,2,,,74,127
69785,note_off,0,0,0,,10,,,57,127
69785,note_off,0,0,0,,10,,,45,127
69786,note_on,1,0,0,,1,,,73,127
69786,note_on,0,0,0,,2,,,50,127
69786,note_on,0,0,0,,10,,,57,127
69890,note_off,104,0,0,,1,,,73,127
69891,note_on,1,0,0,,12,,,71,127
69995,note_off,104,0,0,,12,,,71,127
69995,note_off,0,0,0,,10,,,57,127
69995,note_off,0,0,0,,2,,,50,127
69996,note_on,1,0,0,,1,,,73,127
69996,note_on,0,0,0,,4,,,52,127
69996,note_on,0,0,0,,10,,,57,127
69996,note_on,0,0,0,,1,,,61,127
70100,note_off,104,0,0,,1,,,73,127
70101,note_on,1,0,0,,4,,,76,127
70205,note_off,104,0,0,,4,,,76,127
70206,note_on,1,0,0,,10,,,81,127
70310,note_off,104,0,0,,10,,,81,127
70311,note_on,1,0,0,,1,,,73,127
70415,note_off,104,0,0,,1,,,73,127
70415,note_off,0,0,0,,1,,,61,127
70415,note_off,0,0,0,,10,,,57,127
70415,note_off,0,0,0,,4,,,52,127
70416,note_on,1,0,0,,12,,,71,127
70416,note_on,0,0,0,,12,,,59,127
70416,note_on,0,0,0,,4,,,52,127
70520,note_off,104,0,0,,12,,,71,127
70521,note_on,1,0,0,,8,,,80,127
70625,note_off,104,0,0,,8,,,80,127
70625,note_off,0,0,0,,4,,,52,127
70625,note_off,0,0,0,,12,,,59,127
70626,note_on,1,0,0,,10,,,69,127
70626,note_on,0,0,0,,10,,,45,127
70830,note_on,204,0,0,,10,,,81,127
70833,note_off,3,0,0,,10,,,69,127
70873,note_on,40,0,0,,8,,,80,127
70885,note_off,12,0,0,,10,,,81,127
70917,note_on,32,0,0,,6,,,78,127
70929,note_off,12,0,0,,8,,,80,127
70961,note_on,32,0,0,,4,,,76,127
70973,note_off,12,0,0,,6,,,78,127
71006,note_on,33,0,0,,2,,,74,127
71017,note_off,11,0,0,,4,,,76,127
71050,note_on,33,0,0,,1,,,73,127
71062,note_off,12,0,0,,2,,,74,127
71094,note_on,32,0,0,,12,,,71,127
71106,note_off,12,0,0,,1,,,73,127
71138,note_on,32,0,0,,10,,,69,127
71150,note_off,12,0,0,,12,,,71,127
71182,note_on,32,0,0,,4,,,76,127
71194,note_off,12,0,0,,10,,,69,127
71227,note_on,33,0,0,,2,,,74,127
71238,note_off,11,0,0,,4,,,76,127
71271,note_on,33,0,0,,1,,,73,127
71283,note_off,12,0,0,,2,,,74,127
71315,note_on,32,0,0,,12,,,71,127
71327,note_off,12,0,0,,1,,,73,127
71358,note_on,31,0,0,,10,,,69,127
71371,note_off,13,0,0,,12,,,71,127
71402,note_on,31,0,0,,8,,,68,127
71414,note_off,12,0,0,,10,,,69,127
71447,note_on,33,0,0,,6,,,66,127
71458,note_off,11,0,0,,8,,,68,127
71491,note_on,33,0,0,,4,,,64,127
71503,note_off,12,0,0,,6,,,66,127
71535,note_on,32,0,0,,10,,,69,127
71547,note_off,12,0,0,,4,,,64,127
71579,note_on,32,0,0,,8,,,68,127
71591,note_off,12,0,0,,10,,,69,127
71623,note_on,32,0,0,,6,,,66,127
71635,note_off,12,0,0,,8,,,68,127
71668,note_on,33,0,0,,4,,,64,127
71679,note_off,11,0,0,,6,,,66,127
71712,note_on,33,0,0,,2,,,62,127
71724,note_off,12,0,0,,4,,,64,127
71756,note_on,32,0,0,,1,,,61,127
71768,note_off,12,0,0,,2,,,62,127
71800,note_on,32,0,0,,12,,,59,127
71812,note_off,12,0,0,,1,,,61,127
71844,note_on,32,0,0,,10,,,57,127
71856,note_off,12,0,0,,12,,,59,127
71889,note_on,33,0,0,,4,,,64,127
71900,note_off,11,0,0,,10,,,57,127
71933,note_on,33,0,0,,2,,,62,127
71945,note_off,12,0,0,,4,,,64,127
71977,note_on,32,0,0,,1,,,61,127
71989,note_off,12,0,0,,2,,,62,127
72015,note_off,26,0,0,,10,,,45,127
72019,note_on,4,0,0,,12,,,59,127
72032,note_off,13,0,0,,1,,,61,127
72063,note_on,31,0,0,,10,,,57,127
72075,note_off,12,0,0,,12,,,59,127
72108,note_on,33,0,0,,8,,,56,127
72119,note_off,11,0,0,,10,,,57,127
72152,note_on,33,0,0,,6,,,54,127
72164,note_off,12,0,0,,8,,,56,127
72196,note_on,32,0,0,,4,,,52,127
72208,note_off,12,0,0,,6,,,54,127
72240,note_on,32,0,0,,2,,,50,127
72252,note_off,12,0,0,,4,,,52,127
72284,note_on,32,0,0,,1,,,49,127
72296,note_off,12,0,0,,2,,,50,127
72329,note_on,33,0,0,,12,,,47,127
72340,note_off,11,0,0,,1,,,49,127
72372,note_off,32,0,0,,12,,,47,127
72373,note_on,1,0,0,,10,,,45,127
72373,note_on,0,0,0,,10,,,33,127
74337,note_off,1964,0,0,,10,,,33,127
74337,note_off,0,0,0,,10,,,45,127
78336,end_of_track,3999,1,0,,,,,,
