tick,type,time,meta,track,program,channel,pitch,tempo,note,velocity
0,copyright,0,1,0,,,,,,
0,program_change,0,0,0,6,0,,,,
0,pitchwheel,0,0,0,,0,0,,,
0,program_change,0,0,0,6,1,,,,
0,pitchwheel,0,0,0,,1,-590,,,
0,program_change,0,0,0,6,2,,,,
0,pitchwheel,0,0,0,,2,-272,,,
0,program_change,0,0,0,6,3,,,,
0,pitchwheel,0,0,0,,3,-353,,,
0,program_change,0,0,0,6,4,,,,
0,pitchwheel,0,0,0,,4,-560,,,
0,program_change,0,0,0,6,5,,,,
0,pitchwheel,0,0,0,,5,-80,,,
0,program_change,0,0,0,6,6,,,,
0,pitchwheel,0,0,0,,6,-625,,,
0,program_change,0,0,0,6,7,,,,
0,pitchwheel,0,0,0,,7,-130,,,
0,program_change,0,0,0,6,8,,,,
0,pitchwheel,0,0,0,,8,-512,,,
0,program_change,0,0,0,6,10,,,,
0,pitchwheel,0,0,0,,10,-464,,,
0,program_change,0,0,0,6,11,,,,
0,pitchwheel,0,0,0,,11,-208,,,
0,program_change,0,0,0,6,12,,,,
0,pitchwheel,0,0,0,,12,-553,,,
0,set_tempo,0,1,0,,,,500000,,
105,note_on,105,0,0,,7,,,43,127
105,note_on,0,0,0,,12,,,47,127
105,note_on,0,0,0,,7,,,55,127
105,note_on,0,0,0,,7,,,79,127
523,note_off,418,0,0,,7,,,79,127
523,note_off,0,0,0,,7,,,55,127
523,note_off,0,0,0,,12,,,47,127
523,note_off,0,0,0,,7,,,43,127
524,note_on,1,0,0,,0,,,48,127
524,note_on,0,0,0,,10,,,45,127
524,note_on,0,0,0,,6,,,54,127
524,note_on,0,0,0,,6,,,78,127
942,note_off,418,0,0,,6,,,78,127
942,note_off,0,0,0,,6,,,54,127
942,note_off,0,0,0,,10,,,45,127
942,note_off,0,0,0,,0,,,48,127
943,note_on,1,0,0,,2,,,50,127
943,note_on,0,0,0,,12,,,47,127
943,note_on,0,0,0,,7,,,55,127
943,note_on,0,0,0,,7,,,79,127
1151,note_off,208,0,0,,7,,,79,127
1152,note_on,1,0,0,,6,,,78,127
1256,note_off,104,0,0,,6,,,78,127
1257,note_on,1,0,0,,7,,,79,127
1362,note_on,105,0,0,,7,,,67,127
1563,note_off,201,0,0,,7,,,79,127
1571,note_off,8,0,0,,7,,,67,127
1571,note_off,0,0,0,,7,,,55,127
1571,note_off,0,0,0,,12,,,47,127
1571,note_off,0,0,0,,2,,,50,127
1572,note_on,1,0,0,,0,,,60,127
1572,note_on,0,0,0,,4,,,64,127
1572,note_on,0,0,0,,4,,,76,127
1780,note_off,208,0,0,,4,,,76,127
1780,note_off,0,0,0,,4,,,64,127
1780,note_off,0,0,0,,0,,,60,127
1781,note_on,1,0,0,,12,,,59,127
1781,note_on,0,0,0,,2,,,62,127
1781,note_on,0,0,0,,2,,,74,127
1989,note_off,208,0,0,,2,,,74,127
1989,note_off,0,0,0,,12,,,59,127
1990,note_on,1,0,0,,7,,,55,127
1990,note_on,0,0,0,,7,,,79,127
2198,note_off,208,0,0,,7,,,79,127
2198,note_off,0,0,0,,7,,,55,127
2198,note_off,0,0,0,,2,,,62,127
2199,note_on,1,0,0,,10,,,57,127
2199,note_on,0,0,0,,0,,,60,127
2199,note_on,0,0,0,,4,,,76,127
2250,note_off,51,0,0,,4,,,76,127
2251,note_on,1,0,0,,2,,,74,127
2302,note_off,51,0,0,,2,,,74,127
2303,note_on,1,0,0,,4,,,76,127
2354,note_off,51,0,0,,4,,,76,127
2355,note_on,1,0,0,,2,,,74,127
2406,note_off,51,0,0,,2,,,74,127
2406,note_off,0,0,0,,10,,,57,127
2407,note_on,1,0,0,,2,,,50,127
2407,note_on,0,0,0,,0,,,72,127
2615,note_off,208,0,0,,0,,,72,127
2615,note_off,0,0,0,,2,,,50,127
2615,note_off,0,0,0,,0,,,60,127
2616,note_on,1,0,0,,12,,,59,127
2616,note_on,0,0,0,,7,,,55,127
2616,note_on,0,0,0,,0,,,72,127
2667,note_off,51,0,0,,0,,,72,127
2668,note_on,1,0,0,,12,,,71,127
2719,note_off,51,0,0,,12,,,71,127
2720,note_on,1,0,0,,0,,,72,127
2771,note_off,51,0,0,,0,,,72,127
2772,note_on,1,0,0,,12,,,71,127
2823,note_off,51,0,0,,12,,,71,127
2824,note_on,1,0,0,,10,,,69,127
2928,note_off,104,0,0,,10,,,69,127
2929,note_on,1,0,0,,12,,,71,127
3033,note_off,104,0,0,,12,,,71,127
3034,note_on,1,0,0,,7,,,67,127
3242,note_off,208,0,0,,7,,,67,127
3242,note_off,0,0,0,,7,,,55,127
3242,note_off,0,0,0,,12,,,59,127
3243,note_on,1,0,0,,0,,,60,127
3243,note_on,0,0,0,,4,,,64,127
3243,note_on,0,0,0,,4,,,76,127
3451,note_off,208,0,0,,4,,,76,127
3451,note_off,0,0,0,,4,,,64,127
3451,note_off,0,0,0,,0,,,60,127
3452,note_on,1,0,0,,12,,,59,127
3452,note_on,0,0,0,,2,,,62,127
3452,note_on,0,0,0,,2,,,74,127
3660,note_off,208,0,0,,2,,,74,127
3660,note_off,0,0,0,,12,,,59,127
3661,note_on,1,0,0,,7,,,55,127
3661,note_on,0,0,0,,7,,,79,127
3869,note_off,208,0,0,,7,,,79,127
3869,note_off,0,0,0,,7,,,55,127
3869,note_off,0,0,0,,2,,,62,127
3870,note_on,1,0,0,,0,,,60,127
3870,note_on,0,0,0,,10,,,57,127
3870,note_on,0,0,0,,4,,,76,127
3921,note_off,51,0,0,,4,,,76,127
3922,note_on,1,0,0,,2,,,74,127
3973,note_off,51,0,0,,2,,,74,127
3974,note_on,1,0,0,,4,,,76,127
4025,note_off,51,0,0,,4,,,76,127
4026,note_on,1,0,0,,2,,,74,127
4077,note_off,51,0,0,,2,,,74,127
4077,note_off,0,0,0,,10,,,57,127
4078,note_on,1,0,0,,2,,,50,127
4078,note_on,0,0,0,,0,,,72,127
4286,note_off,208,0,0,,0,,,72,127
4286,note_off,0,0,0,,2,,,50,127
4286,note_off,0,0,0,,0,,,60,127
4287,note_on,1,0,0,,12,,,59,127
4287,note_on,0,0,0,,7,,,55,127
4287,note_on,0,0,0,,0,,,72,127
4338,note_off,51,0,0,,0,,,72,127
4339,note_on,1,0,0,,12,,,71,127
4390,note_off,51,0,0,,12,,,71,127
4391,note_on,1,0,0,,0,,,72,127
4442,note_off,51,0,0,,0,,,72,127
4443,note_on,1,0,0,,12,,,71,127
4494,note_off,51,0,0,,12,,,71,127
4495,note_on,1,0,0,,10,,,69,127
4599,note_off,104,0,0,,10,,,69,127
4600,note_on,1,0,0,,12,,,71,127
4704,note_off,104,0,0,,12,,,71,127
4705,note_on,1,0,0,,7,,,67,127
4913,note_off,208,0,0,,7,,,67,127
4913,note_off,0,0,0,,7,,,55,127
4913,note_off,0,0,0,,12,,,59,127
4914,note_on,1,0,0,,7,,,55,127
4914,note_on,0,0,0,,12,,,83,127
5122,note_off,208,0,0,,12,,,83,127
5122,note_off,0,0,0,,7,,,55,127
5123,note_on,1,0,0,,6,,,54,127
5123,note_on,0,0,0,,10,,,81,127
5332,note_on,209,0,0,,2,,,62,127
5332,note_on,0,0,0,,10,,,69,127
5537,note_off,205,0,0,,10,,,81,127
5540,note_off,3,0,0,,10,,,69,127
5540,note_off,0,0,0,,6,,,54,127
5541,note_on,1,0,0,,4,,,52,127
5541,note_on,0,0,0,,7,,,67,127
5749,note_off,208,0,0,,7,,,67,127
5749,note_off,0,0,0,,2,,,62,127
5750,note_on,1,0,0,,1,,,61,127
5750,note_on,0,0,0,,7,,,79,127
5958,note_off,208,0,0,,7,,,79,127
5958,note_off,0,0,0,,1,,,61,127
5958,note_off,0,0,0,,4,,,52,127
5959,note_on,1,0,0,,2,,,50,127
5959,note_on,0,0,0,,2,,,62,127
5959,note_on,0,0,0,,7,,,79,127
6010,note_off,51,0,0,,7,,,79,127
6011,note_on,1,0,0,,6,,,78,127
6062,note_off,51,0,0,,6,,,78,127
6063,note_on,1,0,0,,7,,,79,127
6114,note_off,51,0,0,,7,,,79,127
6115,note_on,1,0,0,,6,,,78,127
6166,note_off,51,0,0,,6,,,78,127
6167,note_on,1,0,0,,4,,,76,127
6271,note_off,104,0,0,,4,,,76,127
6272,note_on,1,0,0,,6,,,78,127
6376,note_off,104,0,0,,6,,,78,127
6377,note_on,1,0,0,,2,,,74,127
6585,note_off,208,0,0,,2,,,74,127
6585,note_off,0,0,0,,2,,,62,127
6585,note_off,0,0,0,,2,,,50,127
6586,note_on,1,0,0,,12,,,59,127
6586,note_on,0,0,0,,7,,,79,127
6794,note_off,208,0,0,,7,,,79,127
6794,note_off,0,0,0,,12,,,59,127
6795,note_on,1,0,0,,10,,,57,127
6795,note_on,0,0,0,,6,,,78,127
7003,note_off,208,0,0,,6,,,78,127
7003,note_off,0,0,0,,10,,,57,127
7004,note_on,1,0,0,,10,,,45,127
7004,note_on,0,0,0,,2,,,74,127
7212,note_off,208,0,0,,2,,,74,127
7212,note_off,0,0,0,,10,,,45,127
7213,note_on,1,0,0,,7,,,43,127
7213,note_on,0,0,0,,6,,,78,127
7264,note_off,51,0,0,,6,,,78,127
7265,note_on,1,0,0,,4,,,76,127
7316,note_off,51,0,0,,4,,,76,127
7317,note_on,1,0,0,,6,,,78,127
7368,note_off,51,0,0,,6,,,78,127
7369,note_on,1,0,0,,4,,,76,127
7420,note_off,51,0,0,,4,,,76,127
7420,note_off,0,0,0,,7,,,43,127
7421,note_on,1,0,0,,7,,,55,127
7421,note_on,0,0,0,,2,,,74,127
7525,note_off,104,0,0,,2,,,74,127
7526,note_on,1,0,0,,1,,,73,127
7630,note_off,104,0,0,,1,,,73,127
7630,note_off,0,0,0,,7,,,55,127
7631,note_on,1,0,0,,6,,,54,127
7631,note_on,0,0,0,,2,,,74,127
7839,note_off,208,0,0,,2,,,74,127
7840,note_on,1,0,0,,1,,,73,127
7944,note_off,104,0,0,,1,,,73,127
7945,note_on,1,0,0,,2,,,74,127
8049,note_off,104,0,0,,2,,,74,127
8050,note_on,1,0,0,,10,,,69,127
8155,note_on,105,0,0,,10,,,81,127
8207,note_off,52,0,0,,10,,,69,127
8258,note_off,51,0,0,,10,,,81,127
8258,note_off,0,0,0,,6,,,54,127
8259,note_on,1,0,0,,6,,,54,127
8259,note_on,0,0,0,,10,,,57,127
8259,note_on,0,0,0,,8,,,80,127
8363,note_off,104,0,0,,8,,,80,127
8364,note_on,1,0,0,,10,,,81,127
8468,note_off,104,0,0,,10,,,81,127
8468,note_off,0,0,0,,10,,,57,127
8468,note_off,0,0,0,,6,,,54,127
8469,note_on,1,0,0,,1,,,49,127
8469,note_on,0,0,0,,10,,,57,127
8469,note_on,0,0,0,,4,,,52,127
8469,note_on,0,0,0,,10,,,69,127
8574,note_on,105,0,0,,7,,,79,127
8626,note_off,52,0,0,,10,,,69,127
8677,note_off,51,0,0,,7,,,79,127
8678,note_on,1,0,0,,6,,,78,127
8782,note_off,104,0,0,,6,,,78,127
8783,note_on,1,0,0,,7,,,79,127
8887,note_off,104,0,0,,7,,,79,127
8887,note_off,0,0,0,,4,,,52,127
8887,note_off,0,0,0,,10,,,57,127
8887,note_off,0,0,0,,1,,,49,127
8888,note_on,1,0,0,,2,,,50,127
8888,note_on,0,0,0,,10,,,57,127
8888,note_on,0,0,0,,6,,,54,127
8888,note_on,0,0,0,,10,,,69,127
8993,note_on,105,0,0,,6,,,78,127
9045,note_off,52,0,0,,10,,,69,127
9096,note_off,51,0,0,,6,,,78,127
9097,note_on,1,0,0,,4,,,76,127
9201,note_off,104,0,0,,4,,,76,127
9202,note_on,1,0,0,,6,,,78,127
9306,note_off,104,0,0,,6,,,78,127
9306,note_off,0,0,0,,6,,,54,127
9306,note_off,0,0,0,,10,,,57,127
9306,note_off,0,0,0,,2,,,50,127
9307,note_on,1,0,0,,10,,,45,127
9307,note_on,0,0,0,,10,,,57,127
9307,note_on,0,0,0,,4,,,52,127
9307,note_on,0,0,0,,10,,,69,127
9412,note_on,105,0,0,,4,,,76,127
9464,note_off,52,0,0,,10,,,69,127
9515,note_off,51,0,0,,4,,,76,127
9516,note_on,1,0,0,,2,,,74,127
9620,note_off,104,0,0,,2,,,74,127
9621,note_on,1,0,0,,4,,,76,127
9725,note_off,104,0,0,,4,,,76,127
9726,note_on,1,0,0,,10,,,69,127
9831,note_on,105,0,0,,10,,,81,127
9883,note_off,52,0,0,,10,,,69,127
9934,note_off,51,0,0,,10,,,81,127
9934,note_off,0,0,0,,4,,,52,127
9934,note_off,0,0,0,,10,,,57,127
9934,note_off,0,0,0,,10,,,45,127
9935,note_on,1,0,0,,10,,,57,127
9935,note_on,0,0,0,,6,,,54,127
9935,note_on,0,0,0,,8,,,80,127
10039,note_off,104,0,0,,8,,,80,127
10040,note_on,1,0,0,,10,,,81,127
10144,note_off,104,0,0,,10,,,81,127
10144,note_off,0,0,0,,6,,,54,127
10144,note_off,0,0,0,,10,,,57,127
10145,note_on,1,0,0,,1,,,49,127
10145,note_on,0,0,0,,4,,,52,127
10145,note_on,0,0,0,,10,,,57,127
10145,note_on,0,0,0,,10,,,69,127
10250,note_on,105,0,0,,7,,,79,127
10302,note_off,52,0,0,,10,,,69,127
10353,note_off,51,0,0,,7,,,79,127
10354,note_on,1,0,0,,6,,,78,127
10458,note_off,104,0,0,,6,,,78,127
10459,note_on,1,0,0,,7,,,79,127
10563,note_off,104,0,0,,7,,,79,127
10563,note_off,0,0,0,,10,,,57,127
10563,note_off,0,0,0,,4,,,52,127
10563,note_off,0,0,0,,1,,,49,127
10564,note_on,1,0,0,,2,,,50,127
10564,note_on,0,0,0,,10,,,57,127
10564,note_on,0,0,0,,6,,,54,127
10564,note_on,0,0,0,,10,,,69,127
10669,note_on,105,0,0,,6,,,78,127
10721,note_off,52,0,0,,10,,,69,127
10772,note_off,51,0,0,,6,,,78,127
10773,note_on,1,0,0,,4,,,76,127
10877,note_off,104,0,0,,4,,,76,127
10878,note_on,1,0,0,,6,,,78,127
10982,note_off,104,0,0,,6,,,78,127
10982,note_off,0,0,0,,6,,,54,127
10982,note_off,0,0,0,,10,,,57,127
10982,note_off,0,0,0,,2,,,50,127
10983,note_on,1,0,0,,10,,,45,127
10983,note_on,0,0,0,,4,,,52,127
10983,note_on,0,0,0,,10,,,57,127
10983,note_on,0,0,0,,10,,,69,127
11088,note_on,105,0,0,,4,,,76,127
11140,note_off,52,0,0,,10,,,69,127
11191,note_off,51,0,0,,4,,,76,127
11192,note_on,1,0,0,,2,,,74,127
11296,note_off,104,0,0,,2,,,74,127
11297,note_on,1,0,0,,4,,,76,127
11401,note_off,104,0,0,,4,,,76,127
11402,note_on,1,0,0,,10,,,69,127
11506,note_off,104,0,0,,10,,,57,127
11506,note_off,0,0,0,,4,,,52,127
11506,note_off,0,0,0,,10,,,45,127
11507,note_on,1,0,0,,10,,,57,127
11611,note_off,104,0,0,,10,,,57,127
11612,note_on,1,0,0,,8,,,56,127
11716,note_off,104,0,0,,8,,,56,127
11717,note_on,1,0,0,,10,,,57,127
11821,note_off,104,0,0,,10,,,57,127
11821,note_off,0,0,0,,10,,,69,127
11822,note_on,1,0,0,,10,,,45,127
11926,note_off,104,0,0,,10,,,45,127
11927,note_on,1,0,0,,7,,,55,127
12031,note_off,104,0,0,,7,,,55,127
12032,note_on,1,0,0,,6,,,54,127
12032,note_on,0,0,0,,4,,,76,127
12136,note_off,104,0,0,,6,,,54,127
12137,note_on,1,0,0,,7,,,55,127
12241,note_off,104,0,0,,7,,,55,127
12241,note_off,0,0,0,,4,,,76,127
12242,note_on,1,0,0,,10,,,45,127
12242,note_on,0,0,0,,10,,,81,127
12346,note_off,104,0,0,,10,,,45,127
12347,note_on,1,0,0,,6,,,54,127
12451,note_off,104,0,0,,6,,,54,127
12451,note_off,0,0,0,,10,,,81,127
12452,note_on,1,0,0,,4,,,52,127
12452,note_on,0,0,0,,2,,,74,127
12556,note_off,104,0,0,,4,,,52,127
12557,note_on,1,0,0,,6,,,54,127
12661,note_off,104,0,0,,6,,,54,127
12661,note_off,0,0,0,,2,,,74,127
12662,note_on,1,0,0,,10,,,45,127
12662,note_on,0,0,0,,1,,,73,127
12766,note_off,104,0,0,,10,,,45,127
12767,note_on,1,0,0,,4,,,52,127
12871,note_off,104,0,0,,4,,,52,127
12871,note_off,0,0,0,,1,,,73,127
12872,note_on,1,0,0,,2,,,50,127
12872,note_on,0,0,0,,2,,,74,127
12976,note_off,104,0,0,,2,,,50,127
12977,note_on,1,0,0,,4,,,52,127
13081,note_off,104,0,0,,4,,,52,127
13081,note_off,0,0,0,,2,,,74,127
13082,note_on,1,0,0,,10,,,45,127
13082,note_on,0,0,0,,4,,,76,127
13186,note_off,104,0,0,,10,,,45,127
13187,note_on,1,0,0,,10,,,57,127
13291,note_off,104,0,0,,10,,,57,127
13292,note_on,1,0,0,,8,,,56,127
13396,note_off,104,0,0,,8,,,56,127
13397,note_on,1,0,0,,10,,,57,127
13501,note_off,104,0,0,,10,,,57,127
13501,note_off,0,0,0,,4,,,76,127
13502,note_on,1,0,0,,10,,,45,127
13606,note_off,104,0,0,,10,,,45,127
13607,note_on,1,0,0,,7,,,55,127
13711,note_off,104,0,0,,7,,,55,127
13712,note_on,1,0,0,,6,,,54,127
13712,note_on,0,0,0,,4,,,76,127
13816,note_off,104,0,0,,6,,,54,127
13817,note_on,1,0,0,,7,,,55,127
13921,note_off,104,0,0,,7,,,55,127
13921,note_off,0,0,0,,4,,,76,127
13922,note_on,1,0,0,,10,,,45,127
13922,note_on,0,0,0,,10,,,81,127
14026,note_off,104,0,0,,10,,,45,127
14027,note_on,1,0,0,,6,,,54,127
14131,note_off,104,0,0,,6,,,54,127
14131,note_off,0,0,0,,10,,,81,127
14132,note_on,1,0,0,,4,,,52,127
14132,note_on,0,0,0,,2,,,74,127
14236,note_off,104,0,0,,4,,,52,127
14237,note_on,1,0,0,,6,,,54,127
14341,note_off,104,0,0,,6,,,54,127
14341,note_off,0,0,0,,2,,,74,127
14342,note_on,1,0,0,,10,,,45,127
14342,note_on,0,0,0,,10,,,69,127
14446,note_off,104,0,0,,10,,,45,127
14447,note_on,1,0,0,,4,,,52,127
14551,note_off,104,0,0,,4,,,52,127
14551,note_off,0,0,0,,10,,,69,127
14552,note_on,1,0,0,,2,,,50,127
14552,note_on,0,0,0,,7,,,79,127
14656,note_off,104,0,0,,2,,,50,127
14657,note_on,1,0,0,,1,,,49,127
14761,note_off,104,0,0,,1,,,49,127
14761,note_off,0,0,0,,7,,,79,127
14762,note_on,1,0,0,,2,,,50,127
14762,note_on,0,0,0,,6,,,78,127
14866,note_off,104,0,0,,6,,,78,127
14867,note_on,1,0,0,,2,,,74,127
14971,note_off,104,0,0,,2,,,74,127
14971,note_off,0,0,0,,2,,,50,127
14972,note_on,1,0,0,,4,,,52,127
14972,note_on,0,0,0,,7,,,79,127
15076,note_off,104,0,0,,7,,,79,127
15077,note_on,1,0,0,,4,,,76,127
15181,note_off,104,0,0,,4,,,76,127
15181,note_off,0,0,0,,4,,,52,127
15182,note_on,1,0,0,,6,,,54,127
15182,note_on,0,0,0,,10,,,81,127
15286,note_off,104,0,0,,10,,,81,127
15287,note_on,1,0,0,,2,,,74,127
15391,note_off,104,0,0,,2,,,74,127
15391,note_off,0,0,0,,6,,,54,127
15392,note_on,1,0,0,,7,,,55,127
15392,note_on,0,0,0,,7,,,79,127
15496,note_off,104,0,0,,7,,,79,127
15497,note_on,1,0,0,,4,,,76,127
15601,note_off,104,0,0,,4,,,76,127
15601,note_off,0,0,0,,7,,,55,127
15602,note_on,1,0,0,,10,,,57,127
15602,note_on,0,0,0,,6,,,78,127
15706,note_off,104,0,0,,6,,,78,127
15707,note_on,1,0,0,,2,,,74,127
15811,note_off,104,0,0,,2,,,74,127
15812,note_on,1,0,0,,10,,,45,127
15812,note_on,0,0,0,,4,,,76,127
15916,note_off,104,0,0,,4,,,76,127
15917,note_on,1,0,0,,1,,,73,127
16017,note_off,100,0,0,,10,,,57,127
16020,note_off,3,0,0,,1,,,73,127
16020,note_off,0,0,0,,10,,,45,127
16021,note_on,1,0,0,,2,,,50,127
16021,note_on,0,0,0,,2,,,74,127
16229,note_off,208,0,0,,2,,,50,127
16230,note_on,1,0,0,,6,,,54,127
16230,note_on,0,0,0,,10,,,69,127
16335,note_off,105,0,0,,2,,,74,127
16439,note_off,104,0,0,,10,,,69,127
16439,note_off,0,0,0,,6,,,54,127
16440,note_on,1,0,0,,10,,,57,127
16440,note_on,0,0,0,,6,,,66,127
16648,note_off,208,0,0,,6,,,66,127
16648,note_off,0,0,0,,10,,,57,127
16649,note_on,1,0,0,,2,,,62,127
16649,note_on,0,0,0,,6,,,78,127
16857,note_off,208,0,0,,6,,,78,127
16857,note_off,0,0,0,,2,,,62,127
16858,note_on,1,0,0,,4,,,52,127
16858,note_on,0,0,0,,4,,,76,127
17066,note_off,208,0,0,,4,,,52,127
17067,note_on,1,0,0,,7,,,55,127
17067,note_on,0,0,0,,1,,,73,127
17172,note_off,105,0,0,,4,,,76,127
17276,note_off,104,0,0,,1,,,73,127
17276,note_off,0,0,0,,7,,,55,127
17277,note_on,1,0,0,,1,,,61,127
17277,note_on,0,0,0,,7,,,67,127
17485,note_off,208,0,0,,7,,,67,127
17485,note_off,0,0,0,,1,,,61,127
17486,note_on,1,0,0,,4,,,64,127
17486,note_on,0,0,0,,7,,,79,127
17694,note_off,208,0,0,,7,,,79,127
17694,note_off,0,0,0,,4,,,64,127
17695,note_on,1,0,0,,6,,,54,127
17695,note_on,0,0,0,,6,,,78,127
17903,note_off,208,0,0,,6,,,54,127
17904,note_on,1,0,0,,10,,,57,127
17904,note_on,0,0,0,,2,,,74,127
18009,note_off,105,0,0,,6,,,78,127
18113,note_off,104,0,0,,2,,,74,127
18113,note_off,0,0,0,,10,,,57,127
18114,note_on,1,0,0,,2,,,62,127
18114,note_on,0,0,0,,10,,,69,127
18322,note_off,208,0,0,,10,,,69,127
18322,note_off,0,0,0,,2,,,62,127
18323,note_on,1,0,0,,6,,,66,127
18323,note_on,0,0,0,,10,,,81,127
18531,note_off,208,0,0,,6,,,66,127
18532,note_on,1,0,0,,7,,,55,127
18532,note_on,0,0,0,,12,,,71,127
18584,note_off,52,0,0,,10,,,81,127
18741,note_on,157,0,0,,12,,,83,127
18846,note_off,105,0,0,,12,,,71,127
18950,note_off,104,0,0,,12,,,83,127
18951,note_on,1,0,0,,7,,,43,127
18951,note_on,0,0,0,,7,,,79,127
19159,note_off,208,0,0,,7,,,79,127
19160,note_on,1,0,0,,4,,,76,127
19368,note_off,208,0,0,,4,,,76,127
19368,note_off,0,0,0,,7,,,43,127
19368,note_off,0,0,0,,7,,,55,127
19369,note_on,1,0,0,,10,,,45,127
19369,note_on,0,0,0,,2,,,74,127
19420,note_off,51,0,0,,2,,,74,127
19421,note_on,1,0,0,,1,,,73,127
19472,note_off,51,0,0,,1,,,73,127
19473,note_on,1,0,0,,2,,,74,127
19524,note_off,51,0,0,,2,,,74,127
19525,note_on,1,0,0,,1,,,73,127
19576,note_off,51,0,0,,1,,,73,127
19577,note_on,1,0,0,,12,,,71,127
19681,note_off,104,0,0,,12,,,71,127
19682,note_on,1,0,0,,1,,,73,127
19786,note_off,104,0,0,,1,,,73,127
19787,note_on,1,0,0,,10,,,69,127
19995,note_off,208,0,0,,10,,,69,127
19995,note_off,0,0,0,,10,,,45,127
19996,note_on,1,0,0,,6,,,54,127
19996,note_on,0,0,0,,10,,,81,127
20204,note_off,208,0,0,,10,,,81,127
20204,note_off,0,0,0,,6,,,54,127
20205,note_on,1,0,0,,7,,,55,127
20205,note_on,0,0,0,,11,,,82,127
20310,note_on,105,0,0,,2,,,74,127
20362,note_off,52,0,0,,11,,,82,127
20413,note_off,51,0,0,,2,,,74,127
20414,note_on,1,0,0,,1,,,73,127
20518,note_off,104,0,0,,1,,,73,127
20519,note_on,1,0,0,,2,,,74,127
20623,note_off,104,0,0,,2,,,74,127
20624,note_on,1,0,0,,6,,,78,127
20832,note_off,208,0,0,,6,,,78,127
20832,note_off,0,0,0,,7,,,55,127
20833,note_on,1,0,0,,7,,,67,127
20833,note_on,0,0,0,,7,,,79,127
21041,note_off,208,0,0,,7,,,79,127
21041,note_off,0,0,0,,7,,,67,127
21042,note_on,1,0,0,,5,,,65,127
21042,note_on,0,0,0,,10,,,81,127
21147,note_on,105,0,0,,2,,,74,127
21199,note_off,52,0,0,,10,,,81,127
21250,note_off,51,0,0,,2,,,74,127
21251,note_on,1,0,0,,1,,,73,127
21355,note_off,104,0,0,,1,,,73,127
21356,note_on,1,0,0,,2,,,74,127
21460,note_off,104,0,0,,2,,,74,127
21461,note_on,1,0,0,,4,,,76,127
21669,note_off,208,0,0,,4,,,76,127
21669,note_off,0,0,0,,5,,,65,127
21670,note_on,1,0,0,,5,,,53,127
21670,note_on,0,0,0,,5,,,77,127
21878,note_off,208,0,0,,5,,,77,127
21878,note_off,0,0,0,,5,,,53,127
21879,note_on,1,0,0,,4,,,52,127
21879,note_on,0,0,0,,7,,,79,127
21984,note_on,105,0,0,,2,,,74,127
22036,note_off,52,0,0,,7,,,79,127
22087,note_off,51,0,0,,2,,,74,127
22088,note_on,1,0,0,,1,,,73,127
22192,note_off,104,0,0,,1,,,73,127
22193,note_on,1,0,0,,2,,,74,127
22297,note_off,104,0,0,,2,,,74,127
22298,note_on,1,0,0,,4,,,76,127
22506,note_off,208,0,0,,4,,,76,127
22506,note_off,0,0,0,,4,,,52,127
22507,note_on,1,0,0,,4,,,64,127
22507,note_on,0,0,0,,7,,,79,127
22715,note_off,208,0,0,,7,,,79,127
22715,note_off,0,0,0,,4,,,64,127
22716,note_on,1,0,0,,2,,,62,127
22716,note_on,0,0,0,,5,,,77,127
22821,note_on,105,0,0,,10,,,69,127
22873,note_off,52,0,0,,5,,,77,127
22924,note_off,51,0,0,,10,,,69,127
22925,note_on,1,0,0,,8,,,68,127
23029,note_off,104,0,0,,8,,,68,127
23030,note_on,1,0,0,,10,,,69,127
23134,note_off,104,0,0,,10,,,69,127
23135,note_on,1,0,0,,2,,,74,127
23343,note_off,208,0,0,,2,,,62,127
23344,note_on,1,0,0,,2,,,50,127
23344,note_on,0,0,0,,5,,,77,127
23449,note_off,105,0,0,,2,,,74,127
23553,note_off,104,0,0,,5,,,77,127
23553,note_off,0,0,0,,2,,,50,127
23554,note_on,1,0,0,,7,,,55,127
23554,note_on,0,0,0,,3,,,75,127
23659,note_on,105,0,0,,7,,,67,127
23763,note_off,104,0,0,,7,,,67,127
23764,note_on,1,0,0,,6,,,66,127
23868,note_off,104,0,0,,6,,,66,127
23869,note_on,1,0,0,,7,,,67,127
23969,note_off,100,0,0,,3,,,75,127
23972,note_off,3,0,0,,7,,,67,127
23973,note_on,1,0,0,,3,,,75,127
24181,note_off,208,0,0,,3,,,75,127
24181,note_off,0,0,0,,7,,,55,127
24182,note_on,1,0,0,,7,,,43,127
24182,note_on,0,0,0,,7,,,55,127
24182,note_on,0,0,0,,2,,,74,127
24390,note_off,208,0,0,,2,,,74,127
24390,note_off,0,0,0,,7,,,55,127
24390,note_off,0,0,0,,7,,,43,127
24391,note_on,1,0,0,,10,,,57,127
24391,note_on,0,0,0,,10,,,45,127
24391,note_on,0,0,0,,1,,,73,127
24391,note_on,0,0,0,,7,,,79,127
24599,note_off,208,0,0,,7,,,79,127
24599,note_off,0,0,0,,10,,,45,127
24599,note_off,0,0,0,,10,,,57,127
24600,note_on,1,0,0,,1,,,49,127
24600,note_on,0,0,0,,1,,,61,127
24600,note_on,0,0,0,,10,,,81,127
24808,note_off,208,0,0,,10,,,81,127
24808,note_off,0,0,0,,1,,,61,127
24808,note_off,0,0,0,,1,,,49,127
24808,note_off,0,0,0,,1,,,73,127
24809,note_on,1,0,0,,2,,,50,127
24809,note_on,0,0,0,,2,,,62,127
24809,note_on,0,0,0,,6,,,78,127
24809,note_on,0,0,0,,2,,,74,127
25017,note_off,208,0,0,,6,,,78,127
25017,note_off,0,0,0,,2,,,62,127
25017,note_off,0,0,0,,2,,,50,127
25018,note_on,1,0,0,,7,,,43,127
25018,note_on,0,0,0,,7,,,55,127
25018,note_on,0,0,0,,4,,,76,127
25226,note_off,208,0,0,,4,,,76,127
25226,note_off,0,0,0,,7,,,55,127
25226,note_off,0,0,0,,7,,,43,127
25226,note_off,0,0,0,,2,,,74,127
25227,note_on,1,0,0,,10,,,57,127
25227,note_on,0,0,0,,10,,,45,127
25227,note_on,0,0,0,,6,,,78,127
25227,note_on,0,0,0,,2,,,74,127
25645,note_off,418,0,0,,2,,,74,127
25645,note_off,0,0,0,,10,,,45,127
25645,note_off,0,0,0,,10,,,57,127
25646,note_on,1,0,0,,10,,,45,127
25646,note_on,0,0,0,,10,,,57,127
25646,note_on,0,0,0,,1,,,73,127
25698,note_on,52,0,0,,4,,,76,127
25713,note_off,15,0,0,,6,,,78,127
25749,note_off,36,0,0,,4,,,76,127
25750,note_on,1,0,0,,6,,,78,127
25801,note_off,51,0,0,,6,,,78,127
25802,note_on,1,0,0,,4,,,76,127
26063,note_off,261,0,0,,4,,,76,127
26063,note_off,0,0,0,,1,,,73,127
26063,note_off,0,0,0,,10,,,57,127
26063,note_off,0,0,0,,10,,,45,127
26064,note_on,1,0,0,,2,,,50,127
26064,note_on,0,0,0,,2,,,38,127
26064,note_on,0,0,0,,2,,,74,127
26828,note_off,764,0,0,,2,,,38,127
26901,note_off,73,0,0,,2,,,74,127
26901,note_off,0,0,0,,2,,,50,127
26902,note_on,1,0,0,,6,,,54,127
26902,note_on,0,0,0,,2,,,50,127
26902,note_on,0,0,0,,2,,,74,127
27320,note_off,418,0,0,,2,,,74,127
27320,note_off,0,0,0,,2,,,50,127
27320,note_off,0,0,0,,6,,,54,127
27321,note_on,1,0,0,,4,,,52,127
27321,note_on,0,0,0,,7,,,55,127
27321,note_on,0,0,0,,1,,,73,127
27739,note_off,418,0,0,,1,,,73,127
27739,note_off,0,0,0,,7,,,55,127
27739,note_off,0,0,0,,4,,,52,127
27740,note_on,1,0,0,,10,,,57,127
27740,note_on,0,0,0,,6,,,54,127
27740,note_on,0,0,0,,2,,,74,127
27948,note_off,208,0,0,,2,,,74,127
27949,note_on,1,0,0,,1,,,73,127
28053,note_off,104,0,0,,1,,,73,127
28054,note_on,1,0,0,,2,,,74,127
28159,note_on,105,0,0,,2,,,62,127
28360,note_off,201,0,0,,2,,,74,127
28368,note_off,8,0,0,,2,,,62,127
28368,note_off,0,0,0,,6,,,54,127
28368,note_off,0,0,0,,10,,,57,127
28369,note_on,1,0,0,,7,,,55,127
28369,note_on,0,0,0,,12,,,59,127
28369,note_on,0,0,0,,12,,,71,127
28577,note_off,208,0,0,,12,,,71,127
28577,note_off,0,0,0,,12,,,59,127
28577,note_off,0,0,0,,7,,,55,127
28578,note_on,1,0,0,,10,,,57,127
28578,note_on,0,0,0,,6,,,54,127
28578,note_on,0,0,0,,10,,,69,127
28786,note_off,208,0,0,,6,,,54,127
28787,note_on,1,0,0,,2,,,50,127
28995,note_off,208,0,0,,2,,,50,127
28995,note_off,0,0,0,,10,,,69,127
28995,note_off,0,0,0,,10,,,57,127
28996,note_on,1,0,0,,4,,,52,127
28996,note_on,0,0,0,,7,,,55,127
28996,note_on,0,0,0,,7,,,67,127
29204,note_off,208,0,0,,4,,,52,127
29205,note_on,1,0,0,,10,,,45,127
29413,note_off,208,0,0,,10,,,45,127
29413,note_off,0,0,0,,7,,,67,127
29413,note_off,0,0,0,,7,,,55,127
29414,note_on,1,0,0,,6,,,54,127
29414,note_on,0,0,0,,2,,,50,127
29414,note_on,0,0,0,,7,,,67,127
29465,note_off,51,0,0,,7,,,67,127
29466,note_on,1,0,0,,6,,,66,127
29517,note_off,51,0,0,,6,,,66,127
29518,note_on,1,0,0,,7,,,67,127
29569,note_off,51,0,0,,7,,,67,127
29570,note_on,1,0,0,,6,,,66,127
29621,note_off,51,0,0,,6,,,66,127
29622,note_on,1,0,0,,4,,,64,127
29726,note_off,104,0,0,,4,,,64,127
29727,note_on,1,0,0,,6,,,66,127
29831,note_off,104,0,0,,6,,,66,127
29832,note_on,1,0,0,,2,,,62,127
30040,note_off,208,0,0,,2,,,62,127
30040,note_off,0,0,0,,2,,,50,127
30040,note_off,0,0,0,,6,,,54,127
30041,note_on,1,0,0,,7,,,55,127
30041,note_on,0,0,0,,12,,,59,127
30041,note_on,0,0,0,,12,,,71,127
30249,note_off,208,0,0,,12,,,71,127
30249,note_off,0,0,0,,12,,,59,127
30249,note_off,0,0,0,,7,,,55,127
30250,note_on,1,0,0,,6,,,54,127
30250,note_on,0,0,0,,10,,,57,127
30250,note_on,0,0,0,,10,,,69,127
30458,note_off,208,0,0,,6,,,54,127
30459,note_on,1,0,0,,2,,,50,127
30667,note_off,208,0,0,,2,,,50,127
30667,note_off,0,0,0,,10,,,69,127
30667,note_off,0,0,0,,10,,,57,127
30668,note_on,1,0,0,,4,,,52,127
30668,note_on,0,0,0,,7,,,55,127
30668,note_on,0,0,0,,7,,,67,127
30876,note_off,208,0,0,,4,,,52,127
30877,note_on,1,0,0,,10,,,45,127
31085,note_off,208,0,0,,10,,,45,127
31085,note_off,0,0,0,,7,,,67,127
31085,note_off,0,0,0,,7,,,55,127
31086,note_on,1,0,0,,6,,,54,127
31086,note_on,0,0,0,,2,,,50,127
31086,note_on,0,0,0,,7,,,67,127
31137,note_off,51,0,0,,7,,,67,127
31138,note_on,1,0,0,,6,,,66,127
31189,note_off,51,0,0,,6,,,66,127
31190,note_on,1,0,0,,7,,,67,127
31241,note_off,51,0,0,,7,,,67,127
31242,note_on,1,0,0,,6,,,66,127
31293,note_off,51,0,0,,6,,,66,127
31294,note_on,1,0,0,,4,,,64,127
31398,note_off,104,0,0,,4,,,64,127
31399,note_on,1,0,0,,6,,,66,127
31503,note_off,104,0,0,,6,,,66,127
31504,note_on,1,0,0,,2,,,62,127
31602,note_off,98,0,0,,2,,,62,127
31607,note_off,5,0,0,,2,,,50,127
31607,note_off,0,0,0,,6,,,54,127
31608,note_on,1,0,0,,2,,,62,127
31712,note_off,104,0,0,,2,,,62,127
31713,note_on,1,0,0,,1,,,61,127
31713,note_on,0,0,0,,2,,,74,127
31817,note_off,104,0,0,,1,,,61,127
31818,note_on,1,0,0,,2,,,62,127
31922,note_off,104,0,0,,2,,,62,127
31922,note_off,0,0,0,,2,,,74,127
31923,note_on,1,0,0,,4,,,52,127
31923,note_on,0,0,0,,12,,,71,127
31923,note_on,0,0,0,,4,,,64,127
32131,note_off,208,0,0,,12,,,71,127
32132,note_on,1,0,0,,10,,,69,127
32132,note_on,0,0,0,,0,,,72,127
32340,note_off,208,0,0,,4,,,52,127
32341,note_on,1,0,0,,4,,,40,127
32549,note_off,208,0,0,,0,,,72,127
32549,note_off,0,0,0,,10,,,69,127
32550,note_on,1,0,0,,8,,,68,127
32550,note_on,0,0,0,,12,,,71,127
32758,note_off,208,0,0,,12,,,71,127
32758,note_off,0,0,0,,8,,,68,127
32758,note_off,0,0,0,,4,,,40,127
32758,note_off,0,0,0,,4,,,64,127
32759,note_on,1,0,0,,10,,,45,127
32759,note_on,0,0,0,,2,,,74,127
32810,note_off,51,0,0,,2,,,74,127
32811,note_on,1,0,0,,0,,,72,127
32862,note_off,51,0,0,,0,,,72,127
32863,note_on,1,0,0,,2,,,74,127
32914,note_off,51,0,0,,2,,,74,127
32915,note_on,1,0,0,,0,,,72,127
32966,note_off,51,0,0,,0,,,72,127
32967,note_on,1,0,0,,12,,,71,127
33071,note_off,104,0,0,,12,,,71,127
33072,note_on,1,0,0,,0,,,72,127
33176,note_off,104,0,0,,0,,,72,127
33177,note_on,1,0,0,,10,,,69,127
33385,note_off,208,0,0,,10,,,69,127
33385,note_off,0,0,0,,10,,,45,127
33386,note_on,1,0,0,,2,,,62,127
33386,note_on,0,0,0,,5,,,65,127
33386,note_on,0,0,0,,5,,,77,127
33594,note_off,208,0,0,,5,,,77,127
33594,note_off,0,0,0,,5,,,65,127
33594,note_off,0,0,0,,2,,,62,127
33595,note_on,1,0,0,,0,,,60,127
33595,note_on,0,0,0,,4,,,64,127
33595,note_on,0,0,0,,4,,,76,127
33803,note_off,208,0,0,,0,,,60,127
33804,note_on,1,0,0,,10,,,57,127
34012,note_off,208,0,0,,10,,,57,127
34012,note_off,0,0,0,,4,,,76,127
34012,note_off,0,0,0,,4,,,64,127
34013,note_on,1,0,0,,2,,,62,127
34013,note_on,0,0,0,,12,,,59,127
34013,note_on,0,0,0,,2,,,74,127
34221,note_off,208,0,0,,12,,,59,127
34222,note_on,1,0,0,,4,,,52,127
34430,note_off,208,0,0,,4,,,52,127
34430,note_off,0,0,0,,2,,,74,127
34430,note_off,0,0,0,,2,,,62,127
34431,note_on,1,0,0,,10,,,57,127
34431,note_on,0,0,0,,0,,,60,127
34431,note_on,0,0,0,,2,,,74,127
34482,note_off,51,0,0,,2,,,74,127
34483,note_on,1,0,0,,0,,,72,127
34534,note_off,51,0,0,,0,,,72,127
34535,note_on,1,0,0,,2,,,74,127
34586,note_off,51,0,0,,2,,,74,127
34587,note_on,1,0,0,,0,,,72,127
34638,note_off,51,0,0,,0,,,72,127
34639,note_on,1,0,0,,12,,,71,127
34743,note_off,104,0,0,,12,,,71,127
34744,note_on,1,0,0,,0,,,72,127
34848,note_off,104,0,0,,0,,,72,127
34849,note_on,1,0,0,,10,,,69,127
35057,note_off,208,0,0,,10,,,69,127
35057,note_off,0,0,0,,0,,,60,127
35057,note_off,0,0,0,,10,,,57,127
35058,note_on,1,0,0,,5,,,65,127
35058,note_on,0,0,0,,2,,,62,127
35058,note_on,0,0,0,,5,,,77,127
35266,note_off,208,0,0,,5,,,77,127
35266,note_off,0,0,0,,2,,,62,127
35266,note_off,0,0,0,,5,,,65,127
35267,note_on,1,0,0,,0,,,60,127
35267,note_on,0,0,0,,4,,,64,127
35267,note_on,0,0,0,,4,,,76,127
35475,note_off,208,0,0,,0,,,60,127
35476,note_on,1,0,0,,10,,,57,127
35684,note_off,208,0,0,,10,,,57,127
35684,note_off,0,0,0,,4,,,64,127
35685,note_on,1,0,0,,12,,,59,127
35685,note_on,0,0,0,,2,,,62,127
35735,note_off,50,0,0,,4,,,76,127
35737,note_on,2,0,0,,2,,,74,127
35788,note_off,51,0,0,,2,,,74,127
35789,note_on,1,0,0,,4,,,76,127
35840,note_off,51,0,0,,4,,,76,127
35841,note_on,1,0,0,,2,,,74,127
35892,note_off,51,0,0,,12,,,59,127
35893,note_on,1,0,0,,4,,,52,127
36094,note_off,201,0,0,,2,,,74,127
36102,note_off,8,0,0,,4,,,52,127
36102,note_off,0,0,0,,2,,,62,127
36103,note_on,1,0,0,,0,,,60,127
36103,note_on,0,0,0,,10,,,57,127
36103,note_on,0,0,0,,0,,,72,127
36207,note_off,104,0,0,,0,,,72,127
36208,note_on,1,0,0,,4,,,76,127
36312,note_off,104,0,0,,4,,,76,127
36313,note_on,1,0,0,,2,,,74,127
36417,note_off,104,0,0,,2,,,74,127
36418,note_on,1,0,0,,4,,,76,127
36522,note_off,104,0,0,,4,,,76,127
36523,note_on,1,0,0,,0,,,72,127
36627,note_off,104,0,0,,0,,,72,127
36628,note_on,1,0,0,,4,,,76,127
36732,note_off,104,0,0,,4,,,76,127
36732,note_off,0,0,0,,10,,,57,127
36732,note_off,0,0,0,,0,,,60,127
36733,note_on,1,0,0,,12,,,59,127
36733,note_on,0,0,0,,2,,,62,127
36733,note_on,0,0,0,,12,,,71,127
36837,note_off,104,0,0,,12,,,71,127
36838,note_on,1,0,0,,4,,,76,127
36942,note_off,104,0,0,,4,,,76,127
36942,note_off,0,0,0,,2,,,62,127
36942,note_off,0,0,0,,12,,,59,127
36943,note_on,1,0,0,,0,,,60,127
36943,note_on,0,0,0,,4,,,64,127
36943,note_on,0,0,0,,10,,,69,127
37047,note_off,104,0,0,,10,,,69,127
37048,note_on,1,0,0,,4,,,76,127
37152,note_off,104,0,0,,4,,,76,127
37153,note_on,1,0,0,,2,,,74,127
37257,note_off,104,0,0,,2,,,74,127
37258,note_on,1,0,0,,4,,,76,127
37362,note_off,104,0,0,,4,,,76,127
37363,note_on,1,0,0,,10,,,69,127
37467,note_off,104,0,0,,10,,,69,127
37468,note_on,1,0,0,,4,,,76,127
37572,note_off,104,0,0,,4,,,76,127
37572,note_off,0,0,0,,4,,,64,127
37572,note_off,0,0,0,,0,,,60,127
37573,note_on,1,0,0,,0,,,48,127
37573,note_on,0,0,0,,4,,,52,127
37573,note_on,0,0,0,,7,,,67,127
37677,note_off,104,0,0,,7,,,67,127
37678,note_on,1,0,0,,4,,,76,127
37782,note_off,104,0,0,,4,,,76,127
37782,note_off,0,0,0,,4,,,52,127
37782,note_off,0,0,0,,0,,,48,127
37783,note_on,1,0,0,,6,,,54,127
37783,note_on,0,0,0,,2,,,50,127
37783,note_on,0,0,0,,6,,,66,127
37887,note_off,104,0,0,,6,,,66,127
37888,note_on,1,0,0,,10,,,69,127
37992,note_off,104,0,0,,10,,,69,127
37993,note_on,1,0,0,,7,,,67,127
38097,note_off,104,0,0,,7,,,67,127
38098,note_on,1,0,0,,10,,,69,127
38202,note_off,104,0,0,,10,,,69,127
38203,note_on,1,0,0,,6,,,66,127
38307,note_off,104,0,0,,6,,,66,127
38308,note_on,1,0,0,,10,,,69,127
38412,note_off,104,0,0,,10,,,69,127
38412,note_off,0,0,0,,2,,,50,127
38412,note_off,0,0,0,,6,,,54,127
38413,note_on,1,0,0,,7,,,55,127
38413,note_on,0,0,0,,4,,,52,127
38413,note_on,0,0,0,,4,,,64,127
38517,note_off,104,0,0,,4,,,64,127
38518,note_on,1,0,0,,10,,,69,127
38622,note_off,104,0,0,,10,,,69,127
38622,note_off,0,0,0,,4,,,52,127
38622,note_off,0,0,0,,7,,,55,127
38623,note_on,1,0,0,,6,,,54,127
38623,note_on,0,0,0,,10,,,57,127
38623,note_on,0,0,0,,2,,,62,127
38727,note_off,104,0,0,,2,,,62,127
38728,note_on,1,0,0,,10,,,69,127
38832,note_off,104,0,0,,10,,,69,127
38833,note_on,1,0,0,,7,,,67,127
38937,note_off,104,0,0,,7,,,67,127
38938,note_on,1,0,0,,10,,,69,127
39042,note_off,104,0,0,,10,,,69,127
39043,note_on,1,0,0,,2,,,62,127
39147,note_off,104,0,0,,2,,,62,127
39148,note_on,1,0,0,,10,,,69,127
39252,note_off,104,0,0,,10,,,69,127
39252,note_off,0,0,0,,10,,,57,127
39252,note_off,0,0,0,,6,,,54,127
39253,note_on,1,0,0,,2,,,50,127
39253,note_on,0,0,0,,0,,,60,127
39357,note_off,104,0,0,,0,,,60,127
39358,note_on,1,0,0,,10,,,69,127
39462,note_off,104,0,0,,10,,,69,127
39462,note_off,0,0,0,,2,,,50,127
39463,note_on,1,0,0,,7,,,55,127
39463,note_on,0,0,0,,12,,,59,127
39671,note_off,208,0,0,,12,,,59,127
39671,note_off,0,0,0,,7,,,55,127
39672,note_on,1,0,0,,2,,,50,127
39672,note_on,0,0,0,,2,,,62,127
39880,note_off,208,0,0,,2,,,62,127
39880,note_off,0,0,0,,2,,,50,127
39881,note_on,1,0,0,,12,,,47,127
39881,note_on,0,0,0,,7,,,67,127
40089,note_off,208,0,0,,7,,,67,127
40089,note_off,0,0,0,,12,,,47,127
40090,note_on,1,0,0,,7,,,43,127
40090,note_on,0,0,0,,12,,,71,127
40298,note_off,208,0,0,,12,,,71,127
40298,note_off,0,0,0,,7,,,43,127
40299,note_on,1,0,0,,10,,,57,127
40299,note_on,0,0,0,,0,,,60,127
40507,note_off,208,0,0,,0,,,60,127
40507,note_off,0,0,0,,10,,,57,127
40508,note_on,1,0,0,,6,,,54,127
40508,note_on,0,0,0,,6,,,66,127
40716,note_off,208,0,0,,6,,,66,127
40716,note_off,0,0,0,,6,,,54,127
40717,note_on,1,0,0,,0,,,48,127
40717,note_on,0,0,0,,10,,,69,127
40925,note_off,208,0,0,,10,,,69,127
40925,note_off,0,0,0,,0,,,48,127
40926,note_on,1,0,0,,10,,,45,127
40926,note_on,0,0,0,,0,,,72,127
41134,note_off,208,0,0,,0,,,72,127
41134,note_off,0,0,0,,10,,,45,127
41135,note_on,1,0,0,,12,,,59,127
41135,note_on,0,0,0,,2,,,62,127
41343,note_off,208,0,0,,2,,,62,127
41343,note_off,0,0,0,,12,,,59,127
41344,note_on,1,0,0,,7,,,55,127
41344,note_on,0,0,0,,7,,,67,127
41552,note_off,208,0,0,,7,,,67,127
41552,note_off,0,0,0,,7,,,55,127
41553,note_on,1,0,0,,2,,,50,127
41553,note_on,0,0,0,,12,,,71,127
41761,note_off,208,0,0,,12,,,71,127
41761,note_off,0,0,0,,2,,,50,127
41762,note_on,1,0,0,,12,,,47,127
41762,note_on,0,0,0,,2,,,74,127
41970,note_off,208,0,0,,2,,,74,127
41970,note_off,0,0,0,,12,,,47,127
41971,note_on,1,0,0,,0,,,60,127
41971,note_on,0,0,0,,4,,,64,127
42179,note_off,208,0,0,,4,,,64,127
42179,note_off,0,0,0,,0,,,60,127
42180,note_on,1,0,0,,10,,,57,127
42180,note_on,0,0,0,,10,,,69,127
42388,note_off,208,0,0,,10,,,69,127
42388,note_off,0,0,0,,10,,,57,127
42389,note_on,1,0,0,,4,,,52,127
42389,note_on,0,0,0,,0,,,72,127
42597,note_off,208,0,0,,0,,,72,127
42597,note_off,0,0,0,,4,,,52,127
42598,note_on,1,0,0,,0,,,48,127
42598,note_on,0,0,0,,4,,,76,127
42806,note_off,208,0,0,,4,,,76,127
42806,note_off,0,0,0,,0,,,48,127
42807,note_on,1,0,0,,2,,,50,127
42807,note_on,0,0,0,,7,,,67,127
42858,note_off,51,0,0,,7,,,67,127
42859,note_on,1,0,0,,6,,,66,127
42910,note_off,51,0,0,,6,,,66,127
42911,note_on,1,0,0,,7,,,67,127
42962,note_off,51,0,0,,7,,,67,127
42963,note_on,1,0,0,,6,,,66,127
43014,note_off,51,0,0,,6,,,66,127
43015,note_on,1,0,0,,4,,,64,127
43119,note_off,104,0,0,,4,,,64,127
43120,note_on,1,0,0,,6,,,66,127
43224,note_off,104,0,0,,6,,,66,127
43225,note_on,1,0,0,,2,,,62,127
43433,note_off,208,0,0,,2,,,62,127
43433,note_off,0,0,0,,2,,,50,127
43434,note_on,1,0,0,,2,,,62,127
43434,note_on,0,0,0,,2,,,74,127
43642,note_off,208,0,0,,2,,,74,127
43642,note_off,0,0,0,,2,,,62,127
43643,note_on,1,0,0,,0,,,60,127
43643,note_on,0,0,0,,3,,,75,127
43748,note_on,105,0,0,,7,,,67,127
43800,note_off,52,0,0,,3,,,75,127
43851,note_off,51,0,0,,7,,,67,127
43852,note_on,1,0,0,,6,,,66,127
43956,note_off,104,0,0,,6,,,66,127
43957,note_on,1,0,0,,7,,,67,127
44061,note_off,104,0,0,,7,,,67,127
44062,note_on,1,0,0,,11,,,70,127
44270,note_off,208,0,0,,11,,,70,127
44270,note_off,0,0,0,,0,,,60,127
44271,note_on,1,0,0,,0,,,48,127
44271,note_on,0,0,0,,0,,,72,127
44479,note_off,208,0,0,,0,,,72,127
44479,note_off,0,0,0,,0,,,48,127
44480,note_on,1,0,0,,11,,,46,127
44480,note_on,0,0,0,,2,,,74,127
44585,note_on,105,0,0,,7,,,67,127
44637,note_off,52,0,0,,2,,,74,127
44688,note_off,51,0,0,,7,,,67,127
44689,note_on,1,0,0,,6,,,66,127
44793,note_off,104,0,0,,6,,,66,127
44794,note_on,1,0,0,,7,,,67,127
44898,note_off,104,0,0,,7,,,67,127
44899,note_on,1,0,0,,10,,,69,127
45107,note_off,208,0,0,,10,,,69,127
45107,note_off,0,0,0,,11,,,46,127
45108,note_on,1,0,0,,11,,,58,127
45108,note_on,0,0,0,,11,,,70,127
45316,note_off,208,0,0,,11,,,70,127
45316,note_off,0,0,0,,11,,,58,127
45317,note_on,1,0,0,,10,,,57,127
45317,note_on,0,0,0,,0,,,72,127
45422,note_on,105,0,0,,7,,,67,127
45474,note_off,52,0,0,,0,,,72,127
45525,note_off,51,0,0,,7,,,67,127
45526,note_on,1,0,0,,6,,,66,127
45630,note_off,104,0,0,,6,,,66,127
45631,note_on,1,0,0,,7,,,67,127
45735,note_off,104,0,0,,7,,,67,127
45736,note_on,1,0,0,,10,,,69,127
45944,note_off,208,0,0,,10,,,69,127
45944,note_off,0,0,0,,10,,,57,127
45945,note_on,1,0,0,,10,,,45,127
45945,note_on,0,0,0,,0,,,72,127
46153,note_off,208,0,0,,0,,,72,127
46153,note_off,0,0,0,,10,,,45,127
46154,note_on,1,0,0,,7,,,43,127
46154,note_on,0,0,0,,11,,,70,127
46259,note_on,105,0,0,,2,,,62,127
46311,note_off,52,0,0,,11,,,70,127
46362,note_off,51,0,0,,2,,,62,127
46363,note_on,1,0,0,,1,,,61,127
46467,note_off,104,0,0,,1,,,61,127
46468,note_on,1,0,0,,2,,,62,127
46572,note_off,104,0,0,,2,,,62,127
46573,note_on,1,0,0,,7,,,67,127
46781,note_off,208,0,0,,7,,,43,127
46782,note_on,1,0,0,,7,,,43,127
46782,note_on,0,0,0,,7,,,55,127
46782,note_on,0,0,0,,11,,,70,127
46887,note_off,105,0,0,,7,,,67,127
46991,note_off,104,0,0,,11,,,70,127
46991,note_off,0,0,0,,7,,,55,127
46991,note_off,0,0,0,,7,,,43,127
46992,note_on,1,0,0,,0,,,60,127
46992,note_on,0,0,0,,0,,,48,127
46992,note_on,0,0,0,,8,,,68,127
47097,note_on,105,0,0,,3,,,63,127
47201,note_off,104,0,0,,3,,,63,127
47202,note_on,1,0,0,,2,,,62,127
47306,note_off,104,0,0,,2,,,62,127
47307,note_on,1,0,0,,3,,,63,127
47386,note_off,79,0,0,,8,,,68,127
47411,note_off,25,0,0,,3,,,63,127
47412,note_on,1,0,0,,8,,,68,127
47412,note_on,0,0,0,,0,,,72,127
47620,note_off,208,0,0,,8,,,68,127
47620,note_off,0,0,0,,0,,,48,127
47620,note_off,0,0,0,,0,,,60,127
47621,note_on,1,0,0,,0,,,60,127
47621,note_on,0,0,0,,0,,,48,127
47621,note_on,0,0,0,,7,,,67,127
47829,note_off,208,0,0,,7,,,67,127
47829,note_off,0,0,0,,0,,,48,127
47829,note_off,0,0,0,,0,,,60,127
47830,note_on,1,0,0,,2,,,50,127
47830,note_on,0,0,0,,6,,,66,127
48038,note_off,208,0,0,,2,,,50,127
48038,note_off,0,0,0,,0,,,72,127
48039,note_on,1,0,0,,6,,,54,127
48039,note_on,0,0,0,,2,,,74,127
48247,note_off,208,0,0,,2,,,74,127
48247,note_off,0,0,0,,6,,,54,127
48247,note_off,0,0,0,,6,,,66,127
48248,note_on,1,0,0,,7,,,55,127
48248,note_on,0,0,0,,12,,,71,127
48248,note_on,0,0,0,,7,,,67,127
48456,note_off,208,0,0,,12,,,71,127
48456,note_off,0,0,0,,7,,,55,127
48457,note_on,1,0,0,,0,,,48,127
48457,note_on,0,0,0,,10,,,69,127
48665,note_off,208,0,0,,10,,,69,127
48665,note_off,0,0,0,,0,,,48,127
48665,note_off,0,0,0,,7,,,67,127
48666,note_on,1,0,0,,2,,,50,127
48666,note_on,0,0,0,,12,,,71,127
48666,note_on,0,0,0,,7,,,67,127
49084,note_off,418,0,0,,7,,,67,127
49107,note_on,23,0,0,,6,,,66,127
49107,note_on,0,0,0,,2,,,38,127
49153,note_off,46,0,0,,12,,,71,127
49163,note_on,10,0,0,,10,,,69,127
49215,note_off,52,0,0,,10,,,69,127
49217,note_on,2,0,0,,12,,,71,127
49269,note_off,52,0,0,,12,,,71,127
49272,note_on,3,0,0,,10,,,69,127
49502,note_off,230,0,0,,2,,,50,127
49540,note_off,38,0,0,,2,,,38,127
49540,note_off,0,0,0,,6,,,66,127
49542,note_off,2,0,0,,10,,,69,127
49577,note_on,35,0,0,,7,,,67,127
49577,note_on,0,0,0,,7,,,43,127
51283,note_off,1706,0,0,,7,,,43,127
51283,note_off,0,0,0,,7,,,67,127
52224,end_of_track,941,1,0,,,,,,
