tick,type,time,meta,track,program,channel,pitch,tempo,note,velocity
0,copyright,0,1,0,,,,,,
0,program_change,0,0,0,6,0,,,,
0,pitchwheel,0,0,0,,0,0,,,
0,program_change,0,0,0,6,1,,,,
0,pitchwheel,0,0,0,,1,-590,,,
0,program_change,0,0,0,6,2,,,,
0,pitchwheel,0,0,0,,2,-272,,,
0,program_change,0,0,0,6,3,,,,
0,pitchwheel,0,0,0,,3,-353,,,
0,program_change,0,0,0,6,4,,,,
0,pitchwheel,0,0,0,,4,-560,,,
0,program_change,0,0,0,6,5,,,,
0,pitchwheel,0,0,0,,5,-80,,,
0,program_change,0,0,0,6,6,,,,
0,pitchwheel,0,0,0,,6,-625,,,
0,program_change,0,0,0,6,7,,,,
0,pitchwheel,0,0,0,,7,-130,,,
0,program_change,0,0,0,6,8,,,,
0,pitchwheel,0,0,0,,8,-512,,,
0,program_change,0,0,0,6,10,,,,
0,pitchwheel,0,0,0,,10,-464,,,
0,program_change,0,0,0,6,11,,,,
0,pitchwheel,0,0,0,,11,-208,,,
0,program_change,0,0,0,6,12,,,,
0,pitchwheel,0,0,0,,12,-553,,,
0,set_tempo,0,1,0,,,,500000,,
105,note_on,105,0,0,,10,,,69,127
105,note_on,0,0,0,,2,,,74,127
105,note_on,0,0,0,,5,,,77,127
105,note_on,0,0,0,,10,,,57,127
105,note_on,0,0,0,,2,,,62,127
105,note_on,0,0,0,,2,,,50,127
520,note_off,415,0,0,,2,,,50,127
520,note_off,0,0,0,,2,,,62,127
520,note_off,0,0,0,,10,,,57,127
520,note_off,0,0,0,,5,,,77,127
520,note_off,0,0,0,,2,,,74,127
520,note_off,0,0,0,,10,,,69,127
524,note_on,4,0,0,,4,,,76,127
524,note_on,0,0,0,,4,,,52,127
524,note_on,0,0,0,,10,,,57,127
524,note_on,0,0,0,,10,,,45,127
729,note_off,205,0,0,,4,,,76,127
733,note_on,4,0,0,,2,,,74,127
833,note_off,100,0,0,,2,,,74,127
837,note_on,4,0,0,,1,,,73,127
937,note_off,100,0,0,,1,,,73,127
937,note_off,0,0,0,,10,,,45,127
937,note_off,0,0,0,,10,,,57,127
937,note_off,0,0,0,,4,,,52,127
941,note_on,4,0,0,,2,,,74,127
941,note_on,0,0,0,,10,,,57,127
941,note_on,0,0,0,,2,,,50,127
941,note_on,0,0,0,,5,,,53,127
1146,note_off,205,0,0,,2,,,74,127
1150,note_on,4,0,0,,10,,,69,127
1355,note_off,205,0,0,,10,,,69,127
1359,note_on,4,0,0,,11,,,70,127
1564,note_off,205,0,0,,5,,,53,127
1564,note_off,0,0,0,,2,,,50,127
1564,note_off,0,0,0,,10,,,57,127
1568,note_on,4,0,0,,2,,,62,127
1568,note_on,0,0,0,,7,,,55,127
1568,note_on,0,0,0,,2,,,50,127
1568,note_on,0,0,0,,7,,,43,127
1773,note_off,205,0,0,,7,,,43,127
1773,note_off,0,0,0,,2,,,50,127
1773,note_off,0,0,0,,7,,,55,127
1773,note_off,0,0,0,,2,,,62,127
1777,note_on,4,0,0,,2,,,62,127
1777,note_on,0,0,0,,10,,,45,127
1777,note_on,0,0,0,,2,,,50,127
1777,note_on,0,0,0,,10,,,57,127
1985,note_off,208,0,0,,11,,,70,127
1986,note_on,1,0,0,,7,,,67,127
2086,note_off,100,0,0,,7,,,67,127
2090,note_on,4,0,0,,5,,,65,127
2190,note_off,100,0,0,,5,,,65,127
2190,note_off,0,0,0,,10,,,57,127
2190,note_off,0,0,0,,2,,,50,127
2190,note_off,0,0,0,,10,,,45,127
2193,note_off,3,0,0,,2,,,62,127
2194,note_on,1,0,0,,1,,,61,127
2194,note_on,0,0,0,,7,,,67,127
2194,note_on,0,0,0,,7,,,55,127
2194,note_on,0,0,0,,10,,,45,127
2194,note_on,0,0,0,,4,,,52,127
2399,note_off,205,0,0,,7,,,67,127
2403,note_on,4,0,0,,10,,,69,127
2608,note_off,205,0,0,,10,,,69,127
2608,note_off,0,0,0,,4,,,52,127
2608,note_off,0,0,0,,10,,,45,127
2608,note_off,0,0,0,,7,,,55,127
2611,note_off,3,0,0,,1,,,61,127
2612,note_on,1,0,0,,2,,,62,127
2612,note_on,0,0,0,,5,,,65,127
2612,note_on,0,0,0,,5,,,53,127
2612,note_on,0,0,0,,10,,,57,127
2612,note_on,0,0,0,,2,,,50,127
2817,note_off,205,0,0,,5,,,65,127
2821,note_on,4,0,0,,4,,,64,127
2921,note_off,100,0,0,,4,,,64,127
2925,note_on,4,0,0,,5,,,65,127
3025,note_off,100,0,0,,5,,,65,127
3027,note_off,2,0,0,,2,,,62,127
3029,note_on,2,0,0,,2,,,62,127
3234,note_off,205,0,0,,2,,,50,127
3234,note_off,0,0,0,,10,,,57,127
3234,note_off,0,0,0,,5,,,53,127
3238,note_on,4,0,0,,7,,,55,127
3238,note_on,0,0,0,,4,,,52,127
3443,note_off,205,0,0,,4,,,52,127
3443,note_off,0,0,0,,7,,,55,127
3443,note_off,0,0,0,,2,,,62,127
3447,note_on,4,0,0,,2,,,74,127
3447,note_on,0,0,0,,10,,,69,127
3447,note_on,0,0,0,,5,,,77,127
3447,note_on,0,0,0,,5,,,53,127
3447,note_on,0,0,0,,10,,,57,127
3447,note_on,0,0,0,,2,,,50,127
3862,note_off,415,0,0,,2,,,50,127
3862,note_off,0,0,0,,10,,,57,127
3862,note_off,0,0,0,,5,,,53,127
3862,note_off,0,0,0,,5,,,77,127
3862,note_off,0,0,0,,10,,,69,127
3862,note_off,0,0,0,,2,,,74,127
3866,note_on,4,0,0,,4,,,76,127
3866,note_on,0,0,0,,10,,,57,127
3866,note_on,0,0,0,,10,,,45,127
3866,note_on,0,0,0,,4,,,52,127
4071,note_off,205,0,0,,4,,,76,127
4075,note_on,4,0,0,,2,,,74,127
4175,note_off,100,0,0,,2,,,74,127
4179,note_on,4,0,0,,1,,,73,127
4279,note_off,100,0,0,,1,,,73,127
4279,note_off,0,0,0,,4,,,52,127
4279,note_off,0,0,0,,10,,,45,127
4279,note_off,0,0,0,,10,,,57,127
4283,note_on,4,0,0,,2,,,74,127
4283,note_on,0,0,0,,10,,,57,127
4283,note_on,0,0,0,,2,,,62,127
4283,note_on,0,0,0,,5,,,53,127
4488,note_off,205,0,0,,2,,,74,127
4492,note_on,4,0,0,,8,,,80,127
4697,note_off,205,0,0,,8,,,80,127
4701,note_on,4,0,0,,10,,,81,127
4906,note_off,205,0,0,,10,,,81,127
4906,note_off,0,0,0,,5,,,53,127
4906,note_off,0,0,0,,2,,,62,127
4906,note_off,0,0,0,,10,,,57,127
4910,note_on,4,0,0,,10,,,69,127
4910,note_on,0,0,0,,2,,,62,127
4910,note_on,0,0,0,,10,,,57,127
4910,note_on,0,0,0,,5,,,53,127
5115,note_off,205,0,0,,5,,,53,127
5115,note_off,0,0,0,,10,,,57,127
5115,note_off,0,0,0,,2,,,62,127
5115,note_off,0,0,0,,10,,,69,127
5119,note_on,4,0,0,,2,,,74,127
5119,note_on,0,0,0,,0,,,60,127
5119,note_on,0,0,0,,4,,,52,127
5119,note_on,0,0,0,,10,,,57,127
5219,note_off,100,0,0,,2,,,74,127
5223,note_on,4,0,0,,0,,,72,127
5323,note_off,100,0,0,,0,,,72,127
5327,note_on,4,0,0,,12,,,71,127
5427,note_off,100,0,0,,12,,,71,127
5431,note_on,4,0,0,,10,,,69,127
5531,note_off,100,0,0,,10,,,69,127
5531,note_off,0,0,0,,10,,,57,127
5531,note_off,0,0,0,,4,,,52,127
5531,note_off,0,0,0,,0,,,60,127
5535,note_on,4,0,0,,12,,,71,127
5535,note_on,0,0,0,,2,,,62,127
5535,note_on,0,0,0,,4,,,52,127
5535,note_on,0,0,0,,12,,,59,127
5740,note_off,205,0,0,,12,,,71,127
5744,note_on,4,0,0,,8,,,68,127
5949,note_off,205,0,0,,8,,,68,127
5949,note_off,0,0,0,,12,,,59,127
5949,note_off,0,0,0,,4,,,52,127
5949,note_off,0,0,0,,2,,,62,127
5953,note_on,4,0,0,,10,,,69,127
5953,note_on,0,0,0,,10,,,57,127
5953,note_on,0,0,0,,4,,,52,127
5953,note_on,0,0,0,,10,,,45,127
6158,note_off,205,0,0,,10,,,69,127
6162,note_on,4,0,0,,4,,,64,127
6367,note_off,205,0,0,,4,,,64,127
6371,note_on,4,0,0,,5,,,65,127
6371,note_on,0,0,0,,7,,,67,127
6576,note_off,205,0,0,,7,,,67,127
6576,note_off,0,0,0,,5,,,65,127
6576,note_off,0,0,0,,10,,,45,127
6576,note_off,0,0,0,,4,,,52,127
6576,note_off,0,0,0,,10,,,57,127
6580,note_on,4,0,0,,4,,,64,127
6580,note_on,0,0,0,,10,,,57,127
6580,note_on,0,0,0,,4,,,52,127
6580,note_on,0,0,0,,10,,,45,127
6785,note_off,205,0,0,,10,,,45,127
6785,note_off,0,0,0,,4,,,52,127
6785,note_off,0,0,0,,10,,,57,127
6785,note_off,0,0,0,,4,,,64,127
6789,note_on,4,0,0,,8,,,68,127
6789,note_on,0,0,0,,12,,,71,127
6789,note_on,0,0,0,,10,,,57,127
6789,note_on,0,0,0,,12,,,59,127
6789,note_on,0,0,0,,8,,,44,127
6789,note_on,0,0,0,,4,,,52,127
6994,note_off,205,0,0,,12,,,71,127
6994,note_off,0,0,0,,8,,,68,127
6998,note_on,4,0,0,,4,,,64,127
7203,note_off,205,0,0,,4,,,64,127
7207,note_on,4,0,0,,5,,,65,127
7207,note_on,0,0,0,,7,,,67,127
7412,note_off,205,0,0,,7,,,67,127
7412,note_off,0,0,0,,5,,,65,127
7412,note_off,0,0,0,,4,,,52,127
7412,note_off,0,0,0,,8,,,44,127
7412,note_off,0,0,0,,12,,,59,127
7412,note_off,0,0,0,,10,,,57,127
7416,note_on,4,0,0,,4,,,64,127
7416,note_on,0,0,0,,10,,,57,127
7416,note_on,0,0,0,,12,,,59,127
7416,note_on,0,0,0,,4,,,52,127
7416,note_on,0,0,0,,8,,,44,127
7621,note_off,205,0,0,,8,,,44,127
7621,note_off,0,0,0,,4,,,52,127
7621,note_off,0,0,0,,12,,,59,127
7621,note_off,0,0,0,,10,,,57,127
7621,note_off,0,0,0,,4,,,64,127
7625,note_on,4,0,0,,10,,,69,127
7625,note_on,0,0,0,,0,,,72,127
7625,note_on,0,0,0,,10,,,57,127
7625,note_on,0,0,0,,4,,,52,127
7625,note_on,0,0,0,,10,,,45,127
7830,note_off,205,0,0,,0,,,72,127
7830,note_off,0,0,0,,10,,,69,127
7834,note_on,4,0,0,,4,,,64,127
8039,note_off,205,0,0,,4,,,64,127
8043,note_on,4,0,0,,7,,,67,127
8043,note_on,0,0,0,,5,,,65,127
8248,note_off,205,0,0,,5,,,65,127
8248,note_off,0,0,0,,7,,,67,127
8248,note_off,0,0,0,,10,,,45,127
8248,note_off,0,0,0,,4,,,52,127
8248,note_off,0,0,0,,10,,,57,127
8252,note_on,4,0,0,,4,,,64,127
8252,note_on,0,0,0,,10,,,57,127
8252,note_on,0,0,0,,4,,,52,127
8252,note_on,0,0,0,,10,,,45,127
8457,note_off,205,0,0,,10,,,45,127
8457,note_off,0,0,0,,4,,,52,127
8457,note_off,0,0,0,,10,,,57,127
8457,note_off,0,0,0,,4,,,64,127
8461,note_on,4,0,0,,12,,,71,127
8461,note_on,0,0,0,,2,,,74,127
8461,note_on,0,0,0,,4,,,52,127
8461,note_on,0,0,0,,8,,,56,127
8461,note_on,0,0,0,,12,,,47,127
8461,note_on,0,0,0,,2,,,50,127
8666,note_off,205,0,0,,2,,,74,127
8666,note_off,0,0,0,,12,,,71,127
8670,note_on,4,0,0,,4,,,64,127
8875,note_off,205,0,0,,4,,,64,127
8879,note_on,4,0,0,,7,,,67,127
8879,note_on,0,0,0,,5,,,65,127
9084,note_off,205,0,0,,5,,,65,127
9084,note_off,0,0,0,,7,,,67,127
9084,note_off,0,0,0,,2,,,50,127
9084,note_off,0,0,0,,12,,,47,127
9084,note_off,0,0,0,,8,,,56,127
9084,note_off,0,0,0,,4,,,52,127
9088,note_on,4,0,0,,4,,,64,127
9088,note_on,0,0,0,,8,,,56,127
9088,note_on,0,0,0,,4,,,52,127
9088,note_on,0,0,0,,2,,,50,127
9088,note_on,0,0,0,,12,,,47,127
9293,note_off,205,0,0,,12,,,47,127
9293,note_off,0,0,0,,2,,,50,127
9293,note_off,0,0,0,,4,,,52,127
9293,note_off,0,0,0,,8,,,56,127
9293,note_off,0,0,0,,4,,,64,127
9297,note_on,4,0,0,,4,,,76,127
9297,note_on,0,0,0,,0,,,72,127
9297,note_on,0,0,0,,10,,,57,127
9297,note_on,0,0,0,,4,,,52,127
9297,note_on,0,0,0,,0,,,48,127
9502,note_off,205,0,0,,0,,,72,127
9502,note_off,0,0,0,,4,,,76,127
9506,note_on,4,0,0,,4,,,64,127
9711,note_off,205,0,0,,4,,,64,127
9715,note_on,4,0,0,,4,,,76,127
9920,note_off,205,0,0,,4,,,76,127
9920,note_off,0,0,0,,0,,,48,127
9920,note_off,0,0,0,,4,,,52,127
9920,note_off,0,0,0,,10,,,57,127
9924,note_on,4,0,0,,2,,,74,127
9924,note_on,0,0,0,,10,,,57,127
9924,note_on,0,0,0,,4,,,52,127
9924,note_on,0,0,0,,0,,,48,127
10024,note_off,100,0,0,,2,,,74,127
10028,note_on,4,0,0,,0,,,72,127
10128,note_off,100,0,0,,0,,,72,127
10128,note_off,0,0,0,,0,,,48,127
10128,note_off,0,0,0,,4,,,52,127
10128,note_off,0,0,0,,10,,,57,127
10132,note_on,4,0,0,,0,,,72,127
10132,note_on,0,0,0,,12,,,59,127
10132,note_on,0,0,0,,10,,,57,127
10132,note_on,0,0,0,,2,,,50,127
10232,note_off,100,0,0,,0,,,72,127
10236,note_on,4,0,0,,12,,,71,127
10336,note_off,100,0,0,,12,,,71,127
10340,note_on,4,0,0,,10,,,69,127
10440,note_off,100,0,0,,10,,,69,127
10444,note_on,4,0,0,,12,,,71,127
10544,note_off,100,0,0,,12,,,71,127
10544,note_off,0,0,0,,2,,,50,127
10544,note_off,0,0,0,,10,,,57,127
10544,note_off,0,0,0,,12,,,59,127
10548,note_on,4,0,0,,4,,,64,127
10548,note_on,0,0,0,,10,,,57,127
10548,note_on,0,0,0,,4,,,52,127
10548,note_on,0,0,0,,8,,,56,127
10548,note_on,0,0,0,,12,,,59,127
10600,note_off,52,0,0,,10,,,57,127
10753,note_off,153,0,0,,4,,,64,127
10757,note_on,4,0,0,,8,,,80,127
10962,note_off,205,0,0,,8,,,80,127
10962,note_off,0,0,0,,12,,,59,127
10962,note_off,0,0,0,,8,,,56,127
10962,note_off,0,0,0,,4,,,52,127
10966,note_on,4,0,0,,10,,,81,127
10966,note_on,0,0,0,,5,,,53,127
10966,note_on,0,0,0,,10,,,57,127
11171,note_off,205,0,0,,10,,,81,127
11175,note_on,4,0,0,,10,,,69,127
11380,note_off,205,0,0,,10,,,69,127
11384,note_on,4,0,0,,4,,,76,127
11589,note_off,205,0,0,,4,,,76,127
11589,note_off,0,0,0,,10,,,57,127
11589,note_off,0,0,0,,5,,,53,127
11593,note_on,4,0,0,,2,,,74,127
11593,note_on,0,0,0,,10,,,57,127
11593,note_on,0,0,0,,4,,,52,127
11593,note_on,0,0,0,,0,,,48,127
11693,note_off,100,0,0,,2,,,74,127
11697,note_on,4,0,0,,0,,,72,127
11797,note_off,100,0,0,,0,,,72,127
11797,note_off,0,0,0,,0,,,48,127
11797,note_off,0,0,0,,4,,,52,127
11797,note_off,0,0,0,,10,,,57,127
11801,note_on,4,0,0,,0,,,72,127
11801,note_on,0,0,0,,10,,,57,127
11801,note_on,0,0,0,,12,,,59,127
11801,note_on,0,0,0,,2,,,50,127
11901,note_off,100,0,0,,0,,,72,127
11905,note_on,4,0,0,,12,,,71,127
12005,note_off,100,0,0,,12,,,71,127
12009,note_on,4,0,0,,10,,,69,127
12109,note_off,100,0,0,,10,,,69,127
12113,note_on,4,0,0,,12,,,71,127
12213,note_off,100,0,0,,12,,,71,127
12213,note_off,0,0,0,,2,,,50,127
12213,note_off,0,0,0,,12,,,59,127
12213,note_off,0,0,0,,10,,,57,127
12217,note_on,4,0,0,,4,,,64,127
12217,note_on,0,0,0,,10,,,57,127
12217,note_on,0,0,0,,8,,,56,127
12217,note_on,0,0,0,,12,,,59,127
12217,note_on,0,0,0,,4,,,52,127
12269,note_off,52,0,0,,10,,,57,127
12422,note_off,153,0,0,,4,,,64,127
12426,note_on,4,0,0,,8,,,68,127
12631,note_off,205,0,0,,8,,,68,127
12631,note_off,0,0,0,,4,,,52,127
12631,note_off,0,0,0,,12,,,59,127
12631,note_off,0,0,0,,8,,,56,127
12635,note_on,4,0,0,,10,,,69,127
12635,note_on,0,0,0,,10,,,57,127
12635,note_on,0,0,0,,10,,,45,127
12635,note_on,0,0,0,,4,,,52,127
13050,note_off,415,0,0,,4,,,52,127
13050,note_off,0,0,0,,10,,,45,127
13050,note_off,0,0,0,,10,,,57,127
13054,note_on,4,0,0,,10,,,57,127
13154,note_off,100,0,0,,10,,,57,127
13158,note_on,4,0,0,,7,,,55,127
13258,note_off,100,0,0,,7,,,55,127
13262,note_on,4,0,0,,5,,,53,127
13362,note_off,100,0,0,,5,,,53,127
13366,note_on,4,0,0,,4,,,52,127
13466,note_off,100,0,0,,4,,,52,127
13466,note_off,0,0,0,,10,,,69,127
13470,note_on,4,0,0,,0,,,72,127
13470,note_on,0,0,0,,5,,,53,127
13470,note_on,0,0,0,,5,,,41,127
13885,note_off,415,0,0,,5,,,41,127
13885,note_off,0,0,0,,5,,,53,127
13885,note_off,0,0,0,,0,,,72,127
13889,note_on,4,0,0,,0,,,72,127
13889,note_on,0,0,0,,0,,,60,127
13889,note_on,0,0,0,,7,,,55,127
13889,note_on,0,0,0,,4,,,52,127
14304,note_off,415,0,0,,4,,,52,127
14304,note_off,0,0,0,,7,,,55,127
14304,note_off,0,0,0,,0,,,60,127
14304,note_off,0,0,0,,0,,,72,127
14308,note_on,4,0,0,,0,,,72,127
14308,note_on,0,0,0,,10,,,57,127
14308,note_on,0,0,0,,0,,,60,127
14308,note_on,0,0,0,,5,,,53,127
14513,note_off,205,0,0,,0,,,72,127
14517,note_on,4,0,0,,2,,,74,127
14617,note_off,100,0,0,,2,,,74,127
14621,note_on,4,0,0,,0,,,72,127
14721,note_off,100,0,0,,0,,,72,127
14725,note_on,4,0,0,,5,,,77,127
14930,note_off,205,0,0,,5,,,77,127
14930,note_off,0,0,0,,5,,,53,127
14930,note_off,0,0,0,,0,,,60,127
14930,note_off,0,0,0,,10,,,57,127
14934,note_on,4,0,0,,0,,,72,127
14934,note_on,0,0,0,,0,,,60,127
14934,note_on,0,0,0,,7,,,55,127
14934,note_on,0,0,0,,4,,,52,127
15139,note_off,205,0,0,,4,,,52,127
15139,note_off,0,0,0,,7,,,55,127
15139,note_off,0,0,0,,0,,,60,127
15139,note_off,0,0,0,,0,,,72,127
15143,note_on,4,0,0,,0,,,72,127
15143,note_on,0,0,0,,0,,,60,127
15143,note_on,0,0,0,,5,,,53,127
15143,note_on,0,0,0,,10,,,57,127
15348,note_off,205,0,0,,0,,,72,127
15352,note_on,4,0,0,,2,,,74,127
15452,note_off,100,0,0,,2,,,74,127
15456,note_on,4,0,0,,0,,,72,127
15556,note_off,100,0,0,,0,,,72,127
15560,note_on,4,0,0,,5,,,77,127
15765,note_off,205,0,0,,5,,,77,127
15765,note_off,0,0,0,,10,,,57,127
15765,note_off,0,0,0,,5,,,53,127
15765,note_off,0,0,0,,0,,,60,127
15769,note_on,4,0,0,,0,,,72,127
15769,note_on,0,0,0,,0,,,60,127
15769,note_on,0,0,0,,7,,,55,127
15769,note_on,0,0,0,,4,,,52,127
15974,note_off,205,0,0,,4,,,52,127
15974,note_off,0,0,0,,7,,,55,127
15974,note_off,0,0,0,,0,,,60,127
15974,note_off,0,0,0,,0,,,72,127
15978,note_on,4,0,0,,0,,,72,127
15978,note_on,0,0,0,,5,,,53,127
16183,note_off,205,0,0,,0,,,72,127
16187,note_on,4,0,0,,2,,,74,127
16287,note_off,100,0,0,,2,,,74,127
16291,note_on,4,0,0,,0,,,72,127
16391,note_off,100,0,0,,0,,,72,127
16391,note_off,0,0,0,,5,,,53,127
16395,note_on,4,0,0,,5,,,77,127
16395,note_on,0,0,0,,5,,,41,127
16600,note_off,205,0,0,,5,,,41,127
16600,note_off,0,0,0,,5,,,77,127
16604,note_on,4,0,0,,0,,,72,127
16604,note_on,0,0,0,,10,,,57,127
16809,note_off,205,0,0,,10,,,57,127
16809,note_off,0,0,0,,0,,,72,127
16813,note_on,4,0,0,,4,,,76,127
16813,note_on,0,0,0,,2,,,74,127
16813,note_on,0,0,0,,11,,,58,127
17018,note_off,205,0,0,,11,,,58,127
17018,note_off,0,0,0,,2,,,74,127
17018,note_off,0,0,0,,4,,,76,127
17022,note_on,4,0,0,,0,,,72,127
17022,note_on,0,0,0,,10,,,57,127
17227,note_off,205,0,0,,10,,,57,127
17227,note_off,0,0,0,,0,,,72,127
17231,note_on,4,0,0,,11,,,70,127
17231,note_on,0,0,0,,7,,,55,127
17436,note_off,205,0,0,,7,,,55,127
17436,note_off,0,0,0,,11,,,70,127
17440,note_on,4,0,0,,10,,,69,127
17440,note_on,0,0,0,,5,,,53,127
17645,note_off,205,0,0,,5,,,53,127
17645,note_off,0,0,0,,10,,,69,127
17649,note_on,4,0,0,,7,,,67,127
17649,note_on,0,0,0,,4,,,52,127
17854,note_off,205,0,0,,4,,,52,127
17854,note_off,0,0,0,,7,,,67,127
17858,note_on,4,0,0,,5,,,65,127
17858,note_on,0,0,0,,2,,,50,127
18063,note_off,205,0,0,,2,,,50,127
18063,note_off,0,0,0,,5,,,65,127
18067,note_on,4,0,0,,4,,,64,127
18067,note_on,0,0,0,,0,,,48,127
18272,note_off,205,0,0,,0,,,48,127
18272,note_off,0,0,0,,4,,,64,127
18276,note_on,4,0,0,,2,,,62,127
18276,note_on,0,0,0,,11,,,46,127
18481,note_off,205,0,0,,11,,,46,127
18481,note_off,0,0,0,,2,,,62,127
18485,note_on,4,0,0,,0,,,72,127
18485,note_on,0,0,0,,10,,,45,127
18690,note_off,205,0,0,,10,,,45,127
18690,note_off,0,0,0,,0,,,72,127
18694,note_on,4,0,0,,11,,,70,127
18694,note_on,0,0,0,,7,,,43,127
18899,note_off,205,0,0,,7,,,43,127
18899,note_off,0,0,0,,11,,,70,127
18903,note_on,4,0,0,,10,,,69,127
18903,note_on,0,0,0,,5,,,41,127
19108,note_off,205,0,0,,5,,,41,127
19108,note_off,0,0,0,,10,,,69,127
19112,note_on,4,0,0,,7,,,67,127
19112,note_on,0,0,0,,4,,,40,127
19317,note_off,205,0,0,,4,,,40,127
19317,note_off,0,0,0,,7,,,67,127
19321,note_on,4,0,0,,5,,,65,127
19321,note_on,0,0,0,,2,,,38,127
19526,note_off,205,0,0,,5,,,65,127
19530,note_on,4,0,0,,5,,,77,127
19735,note_off,205,0,0,,5,,,77,127
19735,note_off,0,0,0,,2,,,38,127
19739,note_on,4,0,0,,7,,,79,127
19739,note_on,0,0,0,,0,,,36,127
19944,note_off,205,0,0,,7,,,79,127
19948,note_on,4,0,0,,5,,,77,127
20048,note_off,100,0,0,,5,,,77,127
20052,note_on,4,0,0,,4,,,76,127
20152,note_off,100,0,0,,4,,,76,127
20152,note_off,0,0,0,,0,,,36,127
20156,note_on,4,0,0,,5,,,65,127
20156,note_on,0,0,0,,5,,,41,127
20361,note_off,205,0,0,,5,,,65,127
20365,note_on,4,0,0,,7,,,67,127
20570,note_off,205,0,0,,7,,,67,127
20574,note_on,4,0,0,,10,,,69,127
20783,note_on,209,0,0,,4,,,64,127
20988,note_off,205,0,0,,4,,,64,127
20988,note_off,0,0,0,,5,,,41,127
20992,note_on,4,0,0,,2,,,62,127
20992,note_on,0,0,0,,10,,,57,127
20992,note_on,0,0,0,,2,,,50,127
20992,note_on,0,0,0,,6,,,54,127
20992,note_on,0,0,0,,6,,,42,127
21200,note_off,208,0,0,,10,,,69,127
21201,note_on,1,0,0,,11,,,70,127
21301,note_off,100,0,0,,11,,,70,127
21305,note_on,4,0,0,,0,,,72,127
21405,note_off,100,0,0,,0,,,72,127
21405,note_off,0,0,0,,6,,,42,127
21405,note_off,0,0,0,,6,,,54,127
21405,note_off,0,0,0,,2,,,50,127
21408,note_off,3,0,0,,10,,,57,127
21408,note_off,0,0,0,,2,,,62,127
21409,note_on,1,0,0,,11,,,70,127
21409,note_on,0,0,0,,2,,,38,127
21409,note_on,0,0,0,,2,,,50,127
21614,note_off,205,0,0,,11,,,70,127
21618,note_on,4,0,0,,10,,,69,127
21823,note_off,205,0,0,,10,,,69,127
21823,note_off,0,0,0,,2,,,50,127
21823,note_off,0,0,0,,2,,,38,127
21827,note_on,4,0,0,,11,,,70,127
21827,note_on,0,0,0,,2,,,50,127
21827,note_on,0,0,0,,7,,,55,127
21827,note_on,0,0,0,,7,,,43,127
21827,note_on,0,0,0,,11,,,46,127
22032,note_off,205,0,0,,11,,,70,127
22036,note_on,4,0,0,,6,,,66,127
22241,note_off,205,0,0,,6,,,66,127
22245,note_on,4,0,0,,7,,,67,127
22450,note_off,205,0,0,,11,,,46,127
22450,note_off,0,0,0,,7,,,43,127
22450,note_off,0,0,0,,7,,,55,127
22450,note_off,0,0,0,,2,,,50,127
22454,note_on,4,0,0,,2,,,62,127
22454,note_on,0,0,0,,7,,,55,127
22454,note_on,0,0,0,,2,,,50,127
22454,note_on,0,0,0,,11,,,46,127
22454,note_on,0,0,0,,7,,,43,127
22659,note_off,205,0,0,,7,,,43,127
22659,note_off,0,0,0,,11,,,46,127
22659,note_off,0,0,0,,2,,,50,127
22659,note_off,0,0,0,,7,,,55,127
22659,note_off,0,0,0,,2,,,62,127
22663,note_on,4,0,0,,1,,,61,127
22663,note_on,0,0,0,,2,,,50,127
22663,note_on,0,0,0,,10,,,45,127
22663,note_on,0,0,0,,4,,,52,127
22663,note_on,0,0,0,,7,,,55,127
22663,note_on,0,0,0,,10,,,57,127
22871,note_off,208,0,0,,7,,,67,127
22872,note_on,1,0,0,,10,,,69,127
22972,note_off,100,0,0,,10,,,69,127
22976,note_on,4,0,0,,11,,,70,127
23076,note_off,100,0,0,,11,,,70,127
23076,note_off,0,0,0,,10,,,57,127
23076,note_off,0,0,0,,7,,,55,127
23076,note_off,0,0,0,,4,,,52,127
23076,note_off,0,0,0,,10,,,45,127
23076,note_off,0,0,0,,2,,,50,127
23079,note_off,3,0,0,,1,,,61,127
23080,note_on,1,0,0,,10,,,69,127
23080,note_on,0,0,0,,2,,,50,127
23080,note_on,0,0,0,,4,,,52,127
23080,note_on,0,0,0,,7,,,55,127
23080,note_on,0,0,0,,10,,,57,127
23080,note_on,0,0,0,,10,,,45,127
23285,note_off,205,0,0,,10,,,69,127
23289,note_on,4,0,0,,7,,,67,127
23494,note_off,205,0,0,,7,,,67,127
23494,note_off,0,0,0,,10,,,45,127
23494,note_off,0,0,0,,10,,,57,127
23494,note_off,0,0,0,,7,,,55,127
23494,note_off,0,0,0,,4,,,52,127
23494,note_off,0,0,0,,2,,,50,127
23498,note_on,4,0,0,,5,,,65,127
23498,note_on,0,0,0,,10,,,57,127
23498,note_on,0,0,0,,5,,,53,127
23498,note_on,0,0,0,,2,,,50,127
23703,note_off,205,0,0,,5,,,65,127
23707,note_on,4,0,0,,10,,,69,127
23912,note_off,205,0,0,,10,,,69,127
23916,note_on,4,0,0,,2,,,74,127
24121,note_off,205,0,0,,2,,,50,127
24121,note_off,0,0,0,,5,,,53,127
24121,note_off,0,0,0,,10,,,57,127
24125,note_on,4,0,0,,2,,,62,127
24125,note_on,0,0,0,,10,,,57,127
24125,note_on,0,0,0,,5,,,53,127
24125,note_on,0,0,0,,2,,,50,127
24330,note_off,205,0,0,,2,,,50,127
24330,note_off,0,0,0,,5,,,53,127
24330,note_off,0,0,0,,10,,,57,127
24330,note_off,0,0,0,,2,,,62,127
24334,note_on,4,0,0,,7,,,67,127
24334,note_on,0,0,0,,10,,,57,127
24334,note_on,0,0,0,,7,,,55,127
24334,note_on,0,0,0,,2,,,50,127
24334,note_on,0,0,0,,11,,,46,127
24542,note_off,208,0,0,,2,,,74,127
24543,note_on,1,0,0,,4,,,76,127
24643,note_off,100,0,0,,4,,,76,127
24647,note_on,4,0,0,,5,,,77,127
24747,note_off,100,0,0,,5,,,77,127
24747,note_off,0,0,0,,11,,,46,127
24747,note_off,0,0,0,,2,,,50,127
24747,note_off,0,0,0,,7,,,55,127
24747,note_off,0,0,0,,10,,,57,127
24751,note_on,4,0,0,,4,,,76,127
24751,note_on,0,0,0,,7,,,43,127
24751,note_on,0,0,0,,10,,,57,127
24751,note_on,0,0,0,,7,,,55,127
24751,note_on,0,0,0,,11,,,46,127
24751,note_on,0,0,0,,2,,,50,127
24956,note_off,205,0,0,,4,,,76,127
24960,note_on,4,0,0,,2,,,74,127
25165,note_off,205,0,0,,2,,,74,127
25165,note_off,0,0,0,,2,,,50,127
25165,note_off,0,0,0,,11,,,46,127
25165,note_off,0,0,0,,7,,,55,127
25165,note_off,0,0,0,,10,,,57,127
25165,note_off,0,0,0,,7,,,43,127
25168,note_off,3,0,0,,7,,,67,127
25169,note_on,1,0,0,,4,,,76,127
25169,note_on,0,0,0,,1,,,73,127
25169,note_on,0,0,0,,10,,,69,127
25169,note_on,0,0,0,,4,,,52,127
25169,note_on,0,0,0,,7,,,55,127
25169,note_on,0,0,0,,10,,,57,127
25169,note_on,0,0,0,,1,,,49,127
25169,note_on,0,0,0,,10,,,45,127
25374,note_off,205,0,0,,10,,,69,127
25374,note_off,0,0,0,,1,,,73,127
25374,note_off,0,0,0,,4,,,76,127
25378,note_on,4,0,0,,10,,,69,127
25583,note_off,205,0,0,,10,,,69,127
25587,note_on,4,0,0,,0,,,72,127
25587,note_on,0,0,0,,11,,,70,127
25792,note_off,205,0,0,,11,,,70,127
25792,note_off,0,0,0,,0,,,72,127
25792,note_off,0,0,0,,10,,,45,127
25792,note_off,0,0,0,,1,,,49,127
25792,note_off,0,0,0,,10,,,57,127
25792,note_off,0,0,0,,7,,,55,127
25792,note_off,0,0,0,,4,,,52,127
25796,note_on,4,0,0,,10,,,69,127
25796,note_on,0,0,0,,10,,,57,127
25796,note_on,0,0,0,,7,,,55,127
25796,note_on,0,0,0,,4,,,52,127
25796,note_on,0,0,0,,1,,,49,127
25796,note_on,0,0,0,,10,,,45,127
26001,note_off,205,0,0,,10,,,45,127
26001,note_off,0,0,0,,1,,,49,127
26001,note_off,0,0,0,,4,,,52,127
26001,note_off,0,0,0,,7,,,55,127
26001,note_off,0,0,0,,10,,,57,127
26001,note_off,0,0,0,,10,,,69,127
26005,note_on,4,0,0,,4,,,76,127
26005,note_on,0,0,0,,1,,,73,127
26005,note_on,0,0,0,,7,,,55,127
26005,note_on,0,0,0,,10,,,57,127
26005,note_on,0,0,0,,4,,,52,127
26005,note_on,0,0,0,,1,,,49,127
26210,note_off,205,0,0,,1,,,73,127
26210,note_off,0,0,0,,4,,,76,127
26214,note_on,4,0,0,,10,,,69,127
26419,note_off,205,0,0,,10,,,69,127
26423,note_on,4,0,0,,11,,,70,127
26423,note_on,0,0,0,,0,,,72,127
26628,note_off,205,0,0,,0,,,72,127
26628,note_off,0,0,0,,11,,,70,127
26628,note_off,0,0,0,,1,,,49,127
26628,note_off,0,0,0,,4,,,52,127
26628,note_off,0,0,0,,10,,,57,127
26628,note_off,0,0,0,,7,,,55,127
26632,note_on,4,0,0,,10,,,69,127
26632,note_on,0,0,0,,10,,,57,127
26632,note_on,0,0,0,,7,,,55,127
26632,note_on,0,0,0,,4,,,52,127
26632,note_on,0,0,0,,1,,,49,127
26837,note_off,205,0,0,,1,,,49,127
26837,note_off,0,0,0,,4,,,52,127
26837,note_off,0,0,0,,7,,,55,127
26837,note_off,0,0,0,,10,,,57,127
26837,note_off,0,0,0,,10,,,69,127
26841,note_on,4,0,0,,5,,,77,127
26841,note_on,0,0,0,,2,,,74,127
26841,note_on,0,0,0,,10,,,57,127
26841,note_on,0,0,0,,5,,,53,127
26841,note_on,0,0,0,,2,,,50,127
27046,note_off,205,0,0,,2,,,74,127
27046,note_off,0,0,0,,5,,,77,127
27050,note_on,4,0,0,,10,,,69,127
27255,note_off,205,0,0,,10,,,69,127
27259,note_on,4,0,0,,11,,,70,127
27259,note_on,0,0,0,,0,,,72,127
27464,note_off,205,0,0,,0,,,72,127
27464,note_off,0,0,0,,11,,,70,127
27464,note_off,0,0,0,,2,,,50,127
27464,note_off,0,0,0,,5,,,53,127
27464,note_off,0,0,0,,10,,,57,127
27468,note_on,4,0,0,,10,,,69,127
27468,note_on,0,0,0,,10,,,57,127
27468,note_on,0,0,0,,5,,,53,127
27468,note_on,0,0,0,,2,,,50,127
27673,note_off,205,0,0,,2,,,50,127
27673,note_off,0,0,0,,5,,,53,127
27673,note_off,0,0,0,,10,,,57,127
27673,note_off,0,0,0,,10,,,69,127
27677,note_on,4,0,0,,7,,,79,127
27677,note_on,0,0,0,,4,,,76,127
27677,note_on,0,0,0,,7,,,55,127
27677,note_on,0,0,0,,4,,,52,127
27677,note_on,0,0,0,,1,,,61,127
27677,note_on,0,0,0,,10,,,57,127
27882,note_off,205,0,0,,4,,,76,127
27882,note_off,0,0,0,,7,,,79,127
27886,note_on,4,0,0,,10,,,69,127
28091,note_off,205,0,0,,10,,,69,127
28095,note_on,4,0,0,,0,,,72,127
28095,note_on,0,0,0,,11,,,70,127
28300,note_off,205,0,0,,11,,,70,127
28300,note_off,0,0,0,,0,,,72,127
28300,note_off,0,0,0,,10,,,57,127
28300,note_off,0,0,0,,1,,,61,127
28300,note_off,0,0,0,,4,,,52,127
28300,note_off,0,0,0,,7,,,55,127
28304,note_on,4,0,0,,10,,,69,127
28304,note_on,0,0,0,,1,,,61,127
28304,note_on,0,0,0,,10,,,57,127
28304,note_on,0,0,0,,7,,,55,127
28304,note_on,0,0,0,,4,,,52,127
28509,note_off,205,0,0,,4,,,52,127
28509,note_off,0,0,0,,7,,,55,127
28509,note_off,0,0,0,,10,,,57,127
28509,note_off,0,0,0,,1,,,61,127
28509,note_off,0,0,0,,10,,,69,127
28513,note_on,4,0,0,,10,,,81,127
28513,note_on,0,0,0,,5,,,77,127
28513,note_on,0,0,0,,5,,,53,127
28513,note_on,0,0,0,,2,,,62,127
28513,note_on,0,0,0,,10,,,57,127
28718,note_off,205,0,0,,5,,,77,127
28718,note_off,0,0,0,,10,,,81,127
28722,note_on,4,0,0,,10,,,69,127
28927,note_off,205,0,0,,10,,,69,127
28931,note_on,4,0,0,,11,,,82,127
29136,note_off,205,0,0,,11,,,82,127
29136,note_off,0,0,0,,10,,,57,127
29136,note_off,0,0,0,,2,,,62,127
29136,note_off,0,0,0,,5,,,53,127
29140,note_on,4,0,0,,10,,,81,127
29140,note_on,0,0,0,,2,,,62,127
29140,note_on,0,0,0,,10,,,57,127
29140,note_on,0,0,0,,5,,,53,127
29345,note_off,205,0,0,,5,,,53,127
29345,note_off,0,0,0,,10,,,57,127
29345,note_off,0,0,0,,2,,,62,127
29345,note_off,0,0,0,,10,,,81,127
29349,note_on,4,0,0,,7,,,79,127
29349,note_on,0,0,0,,11,,,70,127
29349,note_on,0,0,0,,11,,,58,127
29349,note_on,0,0,0,,7,,,55,127
29349,note_on,0,0,0,,2,,,62,127
29554,note_off,205,0,0,,11,,,70,127
29554,note_off,0,0,0,,7,,,79,127
29558,note_on,4,0,0,,5,,,77,127
29558,note_on,0,0,0,,10,,,69,127
29763,note_off,205,0,0,,10,,,69,127
29763,note_off,0,0,0,,5,,,77,127
29767,note_on,4,0,0,,4,,,76,127
29767,note_on,0,0,0,,7,,,67,127
29872,note_off,105,0,0,,2,,,62,127
29872,note_off,0,0,0,,7,,,55,127
29872,note_off,0,0,0,,11,,,58,127
29972,note_off,100,0,0,,7,,,67,127
29972,note_off,0,0,0,,4,,,76,127
29976,note_on,4,0,0,,2,,,74,127
29976,note_on,0,0,0,,5,,,65,127
29976,note_on,0,0,0,,7,,,55,127
29976,note_on,0,0,0,,2,,,50,127
29976,note_on,0,0,0,,7,,,43,127
30181,note_off,205,0,0,,7,,,43,127
30181,note_off,0,0,0,,2,,,50,127
30181,note_off,0,0,0,,7,,,55,127
30181,note_off,0,0,0,,5,,,65,127
30181,note_off,0,0,0,,2,,,74,127
30185,note_on,4,0,0,,2,,,62,127
30185,note_on,0,0,0,,2,,,74,127
30185,note_on,0,0,0,,4,,,52,127
30185,note_on,0,0,0,,10,,,45,127
30185,note_on,0,0,0,,2,,,50,127
30185,note_on,0,0,0,,10,,,57,127
30390,note_off,205,0,0,,2,,,74,127
30394,note_on,4,0,0,,1,,,73,127
30599,note_off,205,0,0,,1,,,73,127
30599,note_off,0,0,0,,10,,,57,127
30599,note_off,0,0,0,,2,,,50,127
30599,note_off,0,0,0,,10,,,45,127
30599,note_off,0,0,0,,4,,,52,127
30602,note_off,3,0,0,,2,,,62,127
30603,note_on,1,0,0,,2,,,74,127
30603,note_on,0,0,0,,2,,,62,127
30603,note_on,0,0,0,,10,,,57,127
30603,note_on,0,0,0,,2,,,50,127
30603,note_on,0,0,0,,11,,,46,127
30603,note_on,0,0,0,,7,,,55,127
30808,note_off,205,0,0,,2,,,74,127
30812,note_on,4,0,0,,7,,,67,127
30812,note_on,0,0,0,,7,,,43,127
31017,note_off,205,0,0,,7,,,43,127
31017,note_off,0,0,0,,7,,,67,127
31020,note_off,3,0,0,,7,,,55,127
31020,note_off,0,0,0,,11,,,46,127
31020,note_off,0,0,0,,2,,,50,127
31020,note_off,0,0,0,,10,,,57,127
31020,note_off,0,0,0,,2,,,62,127
31021,note_on,1,0,0,,2,,,62,127
31021,note_on,0,0,0,,2,,,74,127
31021,note_on,0,0,0,,10,,,69,127
31021,note_on,0,0,0,,5,,,65,127
31021,note_on,0,0,0,,2,,,50,127
31021,note_on,0,0,0,,10,,,45,127
31021,note_on,0,0,0,,10,,,57,127
31436,note_off,415,0,0,,10,,,57,127
31436,note_off,0,0,0,,10,,,45,127
31436,note_off,0,0,0,,2,,,50,127
31436,note_off,0,0,0,,5,,,65,127
31436,note_off,0,0,0,,10,,,69,127
31436,note_off,0,0,0,,2,,,74,127
31436,note_off,0,0,0,,2,,,62,127
31440,note_on,4,0,0,,1,,,73,127
31440,note_on,0,0,0,,4,,,64,127
31440,note_on,0,0,0,,10,,,69,127
31440,note_on,0,0,0,,7,,,67,127
31440,note_on,0,0,0,,2,,,50,127
31440,note_on,0,0,0,,4,,,52,127
31440,note_on,0,0,0,,10,,,45,127
31440,note_on,0,0,0,,7,,,55,127
31440,note_on,0,0,0,,10,,,57,127
31855,note_off,415,0,0,,10,,,57,127
31855,note_off,0,0,0,,7,,,55,127
31855,note_off,0,0,0,,10,,,45,127
31855,note_off,0,0,0,,4,,,52,127
31855,note_off,0,0,0,,2,,,50,127
31855,note_off,0,0,0,,7,,,67,127
31855,note_off,0,0,0,,10,,,69,127
31855,note_off,0,0,0,,4,,,64,127
31855,note_off,0,0,0,,1,,,73,127
31859,note_on,4,0,0,,2,,,74,127
31859,note_on,0,0,0,,5,,,65,127
31859,note_on,0,0,0,,10,,,57,127
31859,note_on,0,0,0,,5,,,53,127
31859,note_on,0,0,0,,2,,,50,127
32064,note_off,205,0,0,,2,,,74,127
32068,note_on,4,0,0,,10,,,69,127
32273,note_off,205,0,0,,10,,,69,127
32276,note_off,3,0,0,,5,,,65,127
32277,note_on,1,0,0,,11,,,70,127
32277,note_on,0,0,0,,0,,,72,127
32482,note_off,205,0,0,,0,,,72,127
32482,note_off,0,0,0,,11,,,70,127
32482,note_off,0,0,0,,2,,,50,127
32482,note_off,0,0,0,,5,,,53,127
32482,note_off,0,0,0,,10,,,57,127
32486,note_on,4,0,0,,10,,,69,127
32486,note_on,0,0,0,,10,,,57,127
32486,note_on,0,0,0,,5,,,53,127
32486,note_on,0,0,0,,2,,,50,127
32691,note_off,205,0,0,,2,,,50,127
32691,note_off,0,0,0,,5,,,53,127
32691,note_off,0,0,0,,10,,,57,127
32691,note_off,0,0,0,,10,,,69,127
32695,note_on,4,0,0,,1,,,73,127
32695,note_on,0,0,0,,4,,,76,127
32695,note_on,0,0,0,,1,,,49,127
32695,note_on,0,0,0,,7,,,55,127
32695,note_on,0,0,0,,4,,,52,127
32695,note_on,0,0,0,,10,,,57,127
32900,note_off,205,0,0,,4,,,76,127
32900,note_off,0,0,0,,1,,,73,127
32904,note_on,4,0,0,,10,,,69,127
33109,note_off,205,0,0,,10,,,69,127
33113,note_on,4,0,0,,0,,,72,127
33113,note_on,0,0,0,,11,,,70,127
33318,note_off,205,0,0,,11,,,70,127
33318,note_off,0,0,0,,0,,,72,127
33318,note_off,0,0,0,,10,,,57,127
33318,note_off,0,0,0,,4,,,52,127
33318,note_off,0,0,0,,7,,,55,127
33318,note_off,0,0,0,,1,,,49,127
33322,note_on,4,0,0,,10,,,69,127
33322,note_on,0,0,0,,10,,,57,127
33322,note_on,0,0,0,,7,,,55,127
33322,note_on,0,0,0,,4,,,52,127
33322,note_on,0,0,0,,1,,,49,127
33527,note_off,205,0,0,,1,,,49,127
33527,note_off,0,0,0,,4,,,52,127
33527,note_off,0,0,0,,7,,,55,127
33527,note_off,0,0,0,,10,,,57,127
33527,note_off,0,0,0,,10,,,69,127
33531,note_on,4,0,0,,5,,,77,127
33531,note_on,0,0,0,,2,,,74,127
33531,note_on,0,0,0,,10,,,57,127
33531,note_on,0,0,0,,5,,,53,127
33531,note_on,0,0,0,,2,,,50,127
33736,note_off,205,0,0,,2,,,74,127
33736,note_off,0,0,0,,5,,,77,127
33740,note_on,4,0,0,,10,,,69,127
33945,note_off,205,0,0,,10,,,69,127
33949,note_on,4,0,0,,0,,,72,127
33949,note_on,0,0,0,,11,,,70,127
34154,note_off,205,0,0,,11,,,70,127
34154,note_off,0,0,0,,0,,,72,127
34154,note_off,0,0,0,,2,,,50,127
34154,note_off,0,0,0,,5,,,53,127
34154,note_off,0,0,0,,10,,,57,127
34158,note_on,4,0,0,,10,,,69,127
34158,note_on,0,0,0,,10,,,57,127
34158,note_on,0,0,0,,5,,,53,127
34158,note_on,0,0,0,,2,,,50,127
34363,note_off,205,0,0,,2,,,50,127
34363,note_off,0,0,0,,5,,,53,127
34363,note_off,0,0,0,,10,,,57,127
34363,note_off,0,0,0,,10,,,69,127
34367,note_on,4,0,0,,7,,,79,127
34367,note_on,0,0,0,,4,,,76,127
34367,note_on,0,0,0,,7,,,55,127
34367,note_on,0,0,0,,4,,,52,127
34367,note_on,0,0,0,,1,,,61,127
34367,note_on,0,0,0,,10,,,57,127
34572,note_off,205,0,0,,4,,,76,127
34572,note_off,0,0,0,,7,,,79,127
34576,note_on,4,0,0,,10,,,69,127
34781,note_off,205,0,0,,10,,,69,127
34785,note_on,4,0,0,,0,,,72,127
34785,note_on,0,0,0,,11,,,70,127
34990,note_off,205,0,0,,11,,,70,127
34990,note_off,0,0,0,,0,,,72,127
34990,note_off,0,0,0,,10,,,57,127
34990,note_off,0,0,0,,1,,,61,127
34990,note_off,0,0,0,,4,,,52,127
34990,note_off,0,0,0,,7,,,55,127
34994,note_on,4,0,0,,10,,,69,127
34994,note_on,0,0,0,,1,,,61,127
34994,note_on,0,0,0,,10,,,57,127
34994,note_on,0,0,0,,7,,,55,127
34994,note_on,0,0,0,,4,,,52,127
35199,note_off,205,0,0,,4,,,52,127
35199,note_off,0,0,0,,7,,,55,127
35199,note_off,0,0,0,,10,,,57,127
35199,note_off,0,0,0,,1,,,61,127
35199,note_off,0,0,0,,10,,,69,127
35203,note_on,4,0,0,,10,,,81,127
35203,note_on,0,0,0,,5,,,77,127
35203,note_on,0,0,0,,5,,,53,127
35203,note_on,0,0,0,,2,,,62,127
35203,note_on,0,0,0,,10,,,57,127
35408,note_off,205,0,0,,5,,,77,127
35408,note_off,0,0,0,,10,,,81,127
35412,note_on,4,0,0,,10,,,69,127
35617,note_off,205,0,0,,10,,,69,127
35621,note_on,4,0,0,,11,,,82,127
35721,note_off,100,0,0,,11,,,82,127
35725,note_on,4,0,0,,2,,,74,127
35825,note_off,100,0,0,,2,,,74,127
35825,note_off,0,0,0,,10,,,57,127
35825,note_off,0,0,0,,2,,,62,127
35825,note_off,0,0,0,,5,,,53,127
35829,note_on,4,0,0,,10,,,81,127
35829,note_on,0,0,0,,2,,,62,127
35829,note_on,0,0,0,,10,,,57,127
35829,note_on,0,0,0,,5,,,53,127
35929,note_off,100,0,0,,10,,,81,127
35933,note_on,4,0,0,,0,,,72,127
36033,note_off,100,0,0,,0,,,72,127
36033,note_off,0,0,0,,5,,,53,127
36033,note_off,0,0,0,,10,,,57,127
36033,note_off,0,0,0,,2,,,62,127
36037,note_on,4,0,0,,7,,,79,127
36037,note_on,0,0,0,,7,,,55,127
36037,note_on,0,0,0,,2,,,62,127
36037,note_on,0,0,0,,11,,,58,127
36137,note_off,100,0,0,,7,,,79,127
36141,note_on,4,0,0,,11,,,70,127
36241,note_off,100,0,0,,11,,,70,127
36245,note_on,4,0,0,,5,,,77,127
36345,note_off,100,0,0,,5,,,77,127
36349,note_on,4,0,0,,10,,,69,127
36449,note_off,100,0,0,,10,,,69,127
36453,note_on,4,0,0,,4,,,76,127
36553,note_off,100,0,0,,4,,,76,127
36557,note_on,4,0,0,,7,,,67,127
36657,note_off,100,0,0,,7,,,67,127
36657,note_off,0,0,0,,11,,,58,127
36657,note_off,0,0,0,,2,,,62,127
36657,note_off,0,0,0,,7,,,55,127
36661,note_on,4,0,0,,2,,,74,127
36661,note_on,0,0,0,,7,,,55,127
36661,note_on,0,0,0,,2,,,50,127
36661,note_on,0,0,0,,7,,,43,127
36761,note_off,100,0,0,,2,,,74,127
36765,note_on,4,0,0,,5,,,65,127
36865,note_off,100,0,0,,5,,,65,127
36865,note_off,0,0,0,,7,,,43,127
36865,note_off,0,0,0,,2,,,50,127
36865,note_off,0,0,0,,7,,,55,127
36869,note_on,4,0,0,,2,,,74,127
36869,note_on,0,0,0,,2,,,62,127
36869,note_on,0,0,0,,4,,,52,127
36869,note_on,0,0,0,,2,,,50,127
36869,note_on,0,0,0,,10,,,45,127
36869,note_on,0,0,0,,10,,,57,127
37074,note_off,205,0,0,,2,,,74,127
37078,note_on,4,0,0,,1,,,73,127
37283,note_off,205,0,0,,1,,,73,127
37283,note_off,0,0,0,,10,,,57,127
37283,note_off,0,0,0,,10,,,45,127
37283,note_off,0,0,0,,2,,,50,127
37283,note_off,0,0,0,,4,,,52,127
37286,note_off,3,0,0,,2,,,62,127
37287,note_on,1,0,0,,2,,,74,127
37287,note_on,0,0,0,,2,,,62,127
37287,note_on,0,0,0,,10,,,57,127
37287,note_on,0,0,0,,2,,,50,127
37287,note_on,0,0,0,,11,,,46,127
37287,note_on,0,0,0,,7,,,55,127
37492,note_off,205,0,0,,2,,,74,127
37496,note_on,4,0,0,,7,,,67,127
37496,note_on,0,0,0,,7,,,43,127
37701,note_off,205,0,0,,7,,,43,127
37701,note_off,0,0,0,,7,,,67,127
37704,note_off,3,0,0,,7,,,55,127
37704,note_off,0,0,0,,11,,,46,127
37704,note_off,0,0,0,,2,,,50,127
37704,note_off,0,0,0,,10,,,57,127
37704,note_off,0,0,0,,2,,,62,127
37705,note_on,1,0,0,,5,,,65,127
37705,note_on,0,0,0,,2,,,62,127
37705,note_on,0,0,0,,10,,,69,127
37705,note_on,0,0,0,,2,,,74,127
37705,note_on,0,0,0,,10,,,45,127
37705,note_on,0,0,0,,10,,,57,127
37705,note_on,0,0,0,,2,,,50,127
38120,note_off,415,0,0,,2,,,50,127
38120,note_off,0,0,0,,10,,,57,127
38120,note_off,0,0,0,,10,,,45,127
38120,note_off,0,0,0,,2,,,74,127
38120,note_off,0,0,0,,10,,,69,127
38120,note_off,0,0,0,,2,,,62,127
38120,note_off,0,0,0,,5,,,65,127
38124,note_on,4,0,0,,1,,,73,127
38124,note_on,0,0,0,,4,,,64,127
38124,note_on,0,0,0,,10,,,69,127
38124,note_on,0,0,0,,7,,,67,127
38124,note_on,0,0,0,,2,,,50,127
38124,note_on,0,0,0,,4,,,52,127
38124,note_on,0,0,0,,10,,,45,127
38124,note_on,0,0,0,,10,,,57,127
38124,note_on,0,0,0,,7,,,55,127
38539,note_off,415,0,0,,7,,,55,127
38539,note_off,0,0,0,,10,,,57,127
38539,note_off,0,0,0,,10,,,45,127
38539,note_off,0,0,0,,4,,,52,127
38539,note_off,0,0,0,,2,,,50,127
38539,note_off,0,0,0,,7,,,67,127
38539,note_off,0,0,0,,10,,,69,127
38539,note_off,0,0,0,,4,,,64,127
38539,note_off,0,0,0,,1,,,73,127
38543,note_on,4,0,0,,10,,,69,127
38543,note_on,0,0,0,,5,,,65,127
38543,note_on,0,0,0,,2,,,62,127
38543,note_on,0,0,0,,2,,,74,127
38543,note_on,0,0,0,,2,,,50,127
38543,note_on,0,0,0,,10,,,57,127
38543,note_on,0,0,0,,5,,,53,127
40219,note_off,1676,0,0,,5,,,53,127
40219,note_off,0,0,0,,10,,,57,127
40219,note_off,0,0,0,,2,,,50,127
40219,note_off,0,0,0,,2,,,74,127
40219,note_off,0,0,0,,2,,,62,127
40219,note_off,0,0,0,,5,,,65,127
40219,note_off,0,0,0,,10,,,69,127
44544,end_of_track,4325,1,0,,,,,,
