tick,type,time,meta,track,program,channel,pitch,tempo,note,velocity
0,copyright,0,1,0,,,,,,
0,program_change,0,0,0,6,0,,,,
0,pitchwheel,0,0,0,,0,0,,,
0,program_change,0,0,0,6,1,,,,
0,pitchwheel,0,0,0,,1,-590,,,
0,program_change,0,0,0,6,2,,,,
0,pitchwheel,0,0,0,,2,-272,,,
0,program_change,0,0,0,6,3,,,,
0,pitchwheel,0,0,0,,3,-353,,,
0,program_change,0,0,0,6,4,,,,
0,pitchwheel,0,0,0,,4,-560,,,
0,program_change,0,0,0,6,5,,,,
0,pitchwheel,0,0,0,,5,-80,,,
0,program_change,0,0,0,6,6,,,,
0,pitchwheel,0,0,0,,6,-625,,,
0,program_change,0,0,0,6,7,,,,
0,pitchwheel,0,0,0,,7,-130,,,
0,program_change,0,0,0,6,8,,,,
0,pitchwheel,0,0,0,,8,-512,,,
0,program_change,0,0,0,6,10,,,,
0,pitchwheel,0,0,0,,10,-464,,,
0,program_change,0,0,0,6,11,,,,
0,pitchwheel,0,0,0,,11,-208,,,
0,program_change,0,0,0,6,12,,,,
0,pitchwheel,0,0,0,,12,-553,,,
0,set_tempo,0,1,0,,,,500000,,
105,note_on,105,0,0,,10,,,81,127
314,note_on,209,0,0,,4,,,76,127
522,note_off,208,0,0,,4,,,76,127
523,note_on,1,0,0,,1,,,73,127
731,note_off,208,0,0,,1,,,73,127
731,note_off,0,0,0,,10,,,81,127
732,note_on,1,0,0,,10,,,69,127
941,note_on,209,0,0,,4,,,64,127
1149,note_off,208,0,0,,4,,,64,127
1150,note_on,1,0,0,,1,,,61,127
1358,note_off,208,0,0,,1,,,61,127
1358,note_off,0,0,0,,10,,,69,127
1359,note_on,1,0,0,,10,,,57,127
1464,note_on,105,0,0,,10,,,45,127
1568,note_off,104,0,0,,10,,,45,127
1569,note_on,1,0,0,,1,,,49,127
1673,note_off,104,0,0,,1,,,49,127
1674,note_on,1,0,0,,4,,,52,127
1778,note_off,104,0,0,,4,,,52,127
1778,note_off,0,0,0,,10,,,57,127
1779,note_on,1,0,0,,10,,,57,127
1883,note_off,104,0,0,,10,,,57,127
1884,note_on,1,0,0,,1,,,61,127
1884,note_on,0,0,0,,4,,,64,127
1988,note_off,104,0,0,,4,,,64,127
1988,note_off,0,0,0,,1,,,61,127
1989,note_on,1,0,0,,2,,,62,127
1989,note_on,0,0,0,,6,,,66,127
2093,note_off,104,0,0,,6,,,66,127
2094,note_on,1,0,0,,10,,,81,127
2198,note_off,104,0,0,,10,,,81,127
2199,note_on,1,0,0,,6,,,78,127
2303,note_off,104,0,0,,6,,,78,127
2304,note_on,1,0,0,,2,,,74,127
2408,note_off,104,0,0,,2,,,74,127
2409,note_on,1,0,0,,10,,,69,127
2513,note_off,104,0,0,,10,,,69,127
2513,note_off,0,0,0,,2,,,62,127
2514,note_on,1,0,0,,2,,,62,127
2514,note_on,0,0,0,,6,,,66,127
2618,note_off,104,0,0,,6,,,66,127
2618,note_off,0,0,0,,2,,,62,127
2619,note_on,1,0,0,,1,,,61,127
2619,note_on,0,0,0,,4,,,64,127
2723,note_off,104,0,0,,1,,,61,127
2724,note_on,1,0,0,,10,,,45,127
2828,note_off,104,0,0,,10,,,45,127
2829,note_on,1,0,0,,1,,,49,127
2933,note_off,104,0,0,,1,,,49,127
2934,note_on,1,0,0,,4,,,52,127
3038,note_off,104,0,0,,4,,,52,127
3039,note_on,1,0,0,,10,,,57,127
3143,note_off,104,0,0,,10,,,57,127
3143,note_off,0,0,0,,4,,,64,127
3144,note_on,1,0,0,,1,,,61,127
3144,note_on,0,0,0,,4,,,64,127
3248,note_off,104,0,0,,4,,,64,127
3248,note_off,0,0,0,,1,,,61,127
3249,note_on,1,0,0,,2,,,62,127
3249,note_on,0,0,0,,6,,,66,127
3353,note_off,104,0,0,,6,,,66,127
3354,note_on,1,0,0,,10,,,81,127
3458,note_off,104,0,0,,10,,,81,127
3459,note_on,1,0,0,,6,,,78,127
3563,note_off,104,0,0,,6,,,78,127
3564,note_on,1,0,0,,2,,,74,127
3668,note_off,104,0,0,,2,,,74,127
3669,note_on,1,0,0,,10,,,69,127
3773,note_off,104,0,0,,10,,,69,127
3773,note_off,0,0,0,,2,,,62,127
3774,note_on,1,0,0,,2,,,62,127
3774,note_on,0,0,0,,6,,,66,127
3878,note_off,104,0,0,,6,,,66,127
3878,note_off,0,0,0,,2,,,62,127
3879,note_on,1,0,0,,1,,,61,127
3879,note_on,0,0,0,,4,,,64,127
3983,note_off,104,0,0,,1,,,61,127
3984,note_on,1,0,0,,10,,,45,127
4088,note_off,104,0,0,,10,,,45,127
4089,note_on,1,0,0,,1,,,49,127
4193,note_off,104,0,0,,1,,,49,127
4194,note_on,1,0,0,,4,,,52,127
4298,note_off,104,0,0,,4,,,52,127
4299,note_on,1,0,0,,10,,,57,127
4403,note_off,104,0,0,,10,,,57,127
4403,note_off,0,0,0,,4,,,64,127
4404,note_on,1,0,0,,1,,,61,127
4404,note_on,0,0,0,,4,,,64,127
4508,note_off,104,0,0,,4,,,64,127
4508,note_off,0,0,0,,1,,,61,127
4509,note_on,1,0,0,,2,,,62,127
4509,note_on,0,0,0,,6,,,66,127
4613,note_off,104,0,0,,6,,,66,127
4614,note_on,1,0,0,,10,,,81,127
4718,note_off,104,0,0,,10,,,81,127
4719,note_on,1,0,0,,6,,,78,127
4823,note_off,104,0,0,,6,,,78,127
4824,note_on,1,0,0,,2,,,74,127
4928,note_off,104,0,0,,2,,,74,127
4929,note_on,1,0,0,,10,,,69,127
5033,note_off,104,0,0,,10,,,69,127
5033,note_off,0,0,0,,2,,,62,127
5034,note_on,1,0,0,,2,,,62,127
5034,note_on,0,0,0,,6,,,66,127
5138,note_off,104,0,0,,6,,,66,127
5138,note_off,0,0,0,,2,,,62,127
5139,note_on,1,0,0,,1,,,61,127
5139,note_on,0,0,0,,4,,,64,127
5243,note_off,104,0,0,,1,,,61,127
5244,note_on,1,0,0,,10,,,45,127
5348,note_off,104,0,0,,10,,,45,127
5349,note_on,1,0,0,,1,,,49,127
5453,note_off,104,0,0,,1,,,49,127
5454,note_on,1,0,0,,4,,,52,127
5558,note_off,104,0,0,,4,,,52,127
5559,note_on,1,0,0,,10,,,57,127
5663,note_off,104,0,0,,4,,,64,127
5670,note_on,7,0,0,,4,,,64,127
5768,note_off,98,0,0,,10,,,57,127
5778,note_off,10,0,0,,4,,,64,127
5778,note_on,0,0,0,,1,,,61,127
5778,note_on,0,0,0,,10,,,57,127
5882,note_off,104,0,0,,1,,,61,127
5883,note_on,1,0,0,,4,,,64,127
5987,note_off,104,0,0,,4,,,64,127
5987,note_off,0,0,0,,10,,,57,127
5988,note_on,1,0,0,,12,,,59,127
5988,note_on,0,0,0,,8,,,56,127
6092,note_off,104,0,0,,12,,,59,127
6093,note_on,1,0,0,,4,,,64,127
6197,note_off,104,0,0,,4,,,64,127
6197,note_off,0,0,0,,8,,,56,127
6198,note_on,1,0,0,,10,,,57,127
6198,note_on,0,0,0,,6,,,54,127
6302,note_off,104,0,0,,10,,,57,127
6303,note_on,1,0,0,,3,,,63,127
6407,note_off,104,0,0,,3,,,63,127
6407,note_off,0,0,0,,6,,,54,127
6408,note_on,1,0,0,,12,,,59,127
6408,note_on,0,0,0,,8,,,56,127
6512,note_off,104,0,0,,8,,,56,127
6513,note_on,1,0,0,,4,,,40,127
6617,note_off,104,0,0,,4,,,40,127
6618,note_on,1,0,0,,8,,,44,127
6722,note_off,104,0,0,,8,,,44,127
6723,note_on,1,0,0,,12,,,47,127
6827,note_off,104,0,0,,12,,,47,127
6828,note_on,1,0,0,,4,,,52,127
6932,note_off,104,0,0,,4,,,52,127
6932,note_off,0,0,0,,12,,,59,127
6933,note_on,1,0,0,,12,,,59,127
6933,note_on,0,0,0,,8,,,56,127
7037,note_off,104,0,0,,8,,,56,127
7037,note_off,0,0,0,,12,,,59,127
7038,note_on,1,0,0,,1,,,61,127
7038,note_on,0,0,0,,10,,,57,127
7142,note_off,104,0,0,,1,,,61,127
7143,note_on,1,0,0,,4,,,76,127
7247,note_off,104,0,0,,4,,,76,127
7248,note_on,1,0,0,,1,,,73,127
7352,note_off,104,0,0,,1,,,73,127
7353,note_on,1,0,0,,10,,,69,127
7457,note_off,104,0,0,,10,,,69,127
7458,note_on,1,0,0,,4,,,64,127
7562,note_off,104,0,0,,4,,,64,127
7562,note_off,0,0,0,,10,,,57,127
7563,note_on,1,0,0,,1,,,61,127
7563,note_on,0,0,0,,10,,,57,127
7667,note_off,104,0,0,,10,,,57,127
7667,note_off,0,0,0,,1,,,61,127
7668,note_on,1,0,0,,12,,,59,127
7668,note_on,0,0,0,,8,,,56,127
7772,note_off,104,0,0,,8,,,56,127
7773,note_on,1,0,0,,4,,,40,127
7877,note_off,104,0,0,,4,,,40,127
7878,note_on,1,0,0,,8,,,44,127
7982,note_off,104,0,0,,8,,,44,127
7983,note_on,1,0,0,,12,,,47,127
8087,note_off,104,0,0,,12,,,47,127
8088,note_on,1,0,0,,4,,,52,127
8192,note_off,104,0,0,,4,,,52,127
8192,note_off,0,0,0,,12,,,59,127
8193,note_on,1,0,0,,12,,,59,127
8193,note_on,0,0,0,,8,,,56,127
8297,note_off,104,0,0,,8,,,56,127
8297,note_off,0,0,0,,12,,,59,127
8298,note_on,1,0,0,,1,,,61,127
8298,note_on,0,0,0,,10,,,57,127
8402,note_off,104,0,0,,1,,,61,127
8403,note_on,1,0,0,,4,,,76,127
8507,note_off,104,0,0,,4,,,76,127
8508,note_on,1,0,0,,1,,,73,127
8612,note_off,104,0,0,,1,,,73,127
8613,note_on,1,0,0,,10,,,69,127
8717,note_off,104,0,0,,10,,,69,127
8718,note_on,1,0,0,,4,,,64,127
8822,note_off,104,0,0,,4,,,64,127
8822,note_off,0,0,0,,10,,,57,127
8823,note_on,1,0,0,,1,,,61,127
8823,note_on,0,0,0,,10,,,57,127
8927,note_off,104,0,0,,10,,,57,127
8927,note_off,0,0,0,,1,,,61,127
8928,note_on,1,0,0,,12,,,59,127
8928,note_on,0,0,0,,8,,,56,127
9032,note_off,104,0,0,,8,,,56,127
9033,note_on,1,0,0,,4,,,40,127
9137,note_off,104,0,0,,4,,,40,127
9138,note_on,1,0,0,,8,,,44,127
9242,note_off,104,0,0,,8,,,44,127
9243,note_on,1,0,0,,12,,,47,127
9347,note_off,104,0,0,,12,,,47,127
9348,note_on,1,0,0,,4,,,52,127
9452,note_off,104,0,0,,4,,,52,127
9452,note_off,0,0,0,,12,,,59,127
9453,note_on,1,0,0,,12,,,59,127
9453,note_on,0,0,0,,8,,,56,127
9557,note_off,104,0,0,,8,,,56,127
9557,note_off,0,0,0,,12,,,59,127
9558,note_on,1,0,0,,1,,,61,127
9558,note_on,0,0,0,,10,,,57,127
9662,note_off,104,0,0,,1,,,61,127
9663,note_on,1,0,0,,4,,,76,127
9767,note_off,104,0,0,,4,,,76,127
9768,note_on,1,0,0,,1,,,73,127
9872,note_off,104,0,0,,1,,,73,127
9873,note_on,1,0,0,,10,,,69,127
9977,note_off,104,0,0,,10,,,69,127
9978,note_on,1,0,0,,4,,,64,127
10082,note_off,104,0,0,,4,,,64,127
10082,note_off,0,0,0,,10,,,57,127
10083,note_on,1,0,0,,1,,,61,127
10083,note_on,0,0,0,,10,,,57,127
10187,note_off,104,0,0,,10,,,57,127
10187,note_off,0,0,0,,1,,,61,127
10188,note_on,1,0,0,,12,,,59,127
10188,note_on,0,0,0,,8,,,56,127
10292,note_off,104,0,0,,8,,,56,127
10293,note_on,1,0,0,,4,,,40,127
10397,note_off,104,0,0,,4,,,40,127
10398,note_on,1,0,0,,8,,,44,127
10502,note_off,104,0,0,,8,,,44,127
10503,note_on,1,0,0,,12,,,47,127
10607,note_off,104,0,0,,12,,,47,127
10608,note_on,1,0,0,,4,,,52,127
10712,note_off,104,0,0,,12,,,59,127
10716,note_off,4,0,0,,4,,,52,127
10721,note_on,5,0,0,,8,,,56,127
10721,note_on,0,0,0,,12,,,59,127
10825,note_off,104,0,0,,12,,,59,127
10825,note_off,0,0,0,,8,,,56,127
10826,note_on,1,0,0,,10,,,57,127
10826,note_on,0,0,0,,0,,,60,127
10930,note_off,104,0,0,,0,,,60,127
10930,note_off,0,0,0,,10,,,57,127
10931,note_on,1,0,0,,7,,,55,127
10931,note_on,0,0,0,,1,,,61,127
11035,note_off,104,0,0,,1,,,61,127
11035,note_off,0,0,0,,7,,,55,127
11036,note_on,1,0,0,,6,,,54,127
11036,note_on,0,0,0,,2,,,62,127
11140,note_off,104,0,0,,2,,,62,127
11140,note_off,0,0,0,,6,,,54,127
11141,note_on,1,0,0,,12,,,59,127
11141,note_on,0,0,0,,3,,,63,127
11245,note_off,104,0,0,,3,,,63,127
11245,note_off,0,0,0,,12,,,59,127
11246,note_on,1,0,0,,7,,,55,127
11246,note_on,0,0,0,,4,,,64,127
11350,note_off,104,0,0,,4,,,64,127
11350,note_off,0,0,0,,7,,,55,127
11351,note_on,1,0,0,,6,,,54,127
11351,note_on,0,0,0,,6,,,66,127
11455,note_off,104,0,0,,6,,,66,127
11455,note_off,0,0,0,,6,,,54,127
11456,note_on,1,0,0,,4,,,52,127
11456,note_on,0,0,0,,7,,,67,127
11560,note_off,104,0,0,,7,,,67,127
11560,note_off,0,0,0,,4,,,52,127
11561,note_on,1,0,0,,2,,,50,127
11561,note_on,0,0,0,,8,,,68,127
11665,note_off,104,0,0,,8,,,68,127
11665,note_off,0,0,0,,2,,,50,127
11666,note_on,1,0,0,,0,,,48,127
11666,note_on,0,0,0,,10,,,69,127
11770,note_off,104,0,0,,10,,,69,127
11770,note_off,0,0,0,,0,,,48,127
11771,note_on,1,0,0,,12,,,47,127
11771,note_on,0,0,0,,7,,,67,127
11875,note_off,104,0,0,,7,,,67,127
11875,note_off,0,0,0,,12,,,47,127
11876,note_on,1,0,0,,10,,,45,127
11876,note_on,0,0,0,,6,,,66,127
11876,note_on,0,0,0,,0,,,72,127
11980,note_off,104,0,0,,6,,,66,127
11981,note_on,1,0,0,,4,,,64,127
12085,note_off,104,0,0,,4,,,64,127
12086,note_on,1,0,0,,3,,,63,127
12182,note_off,96,0,0,,0,,,72,127
12190,note_off,8,0,0,,3,,,63,127
12190,note_off,0,0,0,,10,,,45,127
12191,note_on,1,0,0,,12,,,59,127
12191,note_on,0,0,0,,12,,,71,127
12295,note_off,104,0,0,,12,,,71,127
12295,note_off,0,0,0,,12,,,59,127
12296,note_on,1,0,0,,0,,,60,127
12296,note_on,0,0,0,,4,,,64,127
12400,note_off,104,0,0,,4,,,64,127
12400,note_off,0,0,0,,0,,,60,127
12401,note_on,1,0,0,,1,,,61,127
12401,note_on,0,0,0,,7,,,67,127
12505,note_off,104,0,0,,7,,,67,127
12505,note_off,0,0,0,,1,,,61,127
12506,note_on,1,0,0,,2,,,62,127
12506,note_on,0,0,0,,6,,,66,127
12610,note_off,104,0,0,,6,,,66,127
12610,note_off,0,0,0,,2,,,62,127
12611,note_on,1,0,0,,3,,,63,127
12611,note_on,0,0,0,,10,,,69,127
12715,note_off,104,0,0,,10,,,69,127
12715,note_off,0,0,0,,3,,,63,127
12716,note_on,1,0,0,,4,,,64,127
12716,note_on,0,0,0,,8,,,68,127
12820,note_off,104,0,0,,8,,,68,127
12821,note_on,1,0,0,,4,,,76,127
12925,note_off,104,0,0,,4,,,76,127
12925,note_off,0,0,0,,4,,,64,127
12926,note_on,1,0,0,,5,,,65,127
12926,note_on,0,0,0,,10,,,69,127
13030,note_off,104,0,0,,10,,,69,127
13030,note_off,0,0,0,,5,,,65,127
13031,note_on,1,0,0,,6,,,66,127
13031,note_on,0,0,0,,0,,,72,127
13135,note_off,104,0,0,,0,,,72,127
13135,note_off,0,0,0,,6,,,66,127
13136,note_on,1,0,0,,7,,,67,127
13136,note_on,0,0,0,,12,,,71,127
13240,note_off,104,0,0,,12,,,71,127
13240,note_off,0,0,0,,7,,,67,127
13241,note_on,1,0,0,,8,,,68,127
13241,note_on,0,0,0,,2,,,74,127
13345,note_off,104,0,0,,2,,,74,127
13345,note_off,0,0,0,,8,,,68,127
13346,note_on,1,0,0,,10,,,69,127
13346,note_on,0,0,0,,1,,,73,127
13450,note_off,104,0,0,,1,,,73,127
13451,note_on,1,0,0,,10,,,81,127
13555,note_off,104,0,0,,10,,,81,127
13555,note_off,0,0,0,,10,,,69,127
13556,note_on,1,0,0,,12,,,71,127
13556,note_on,0,0,0,,3,,,75,127
13660,note_off,104,0,0,,3,,,75,127
13661,note_on,1,0,0,,6,,,78,127
13765,note_off,104,0,0,,6,,,78,127
13765,note_off,0,0,0,,12,,,71,127
13766,note_on,1,0,0,,0,,,72,127
13766,note_on,0,0,0,,4,,,76,127
13870,note_off,104,0,0,,4,,,76,127
13871,note_on,1,0,0,,11,,,82,127
13975,note_off,104,0,0,,11,,,82,127
13975,note_off,0,0,0,,0,,,72,127
13976,note_on,1,0,0,,12,,,71,127
13976,note_on,0,0,0,,12,,,83,127
14084,note_off,108,0,0,,12,,,83,127
14085,note_on,1,0,0,,6,,,78,127
14193,note_off,108,0,0,,6,,,78,127
14194,note_on,1,0,0,,3,,,75,127
14298,note_off,104,0,0,,12,,,71,127
14301,note_on,3,0,0,,12,,,71,127
14302,note_off,1,0,0,,3,,,75,127
14419,note_on,117,0,0,,8,,,80,127
14419,note_on,0,0,0,,12,,,83,127
14421,note_off,2,0,0,,12,,,71,127
14522,note_off,101,0,0,,8,,,80,127
14523,note_on,1,0,0,,4,,,76,127
14627,note_off,104,0,0,,4,,,76,127
14627,note_off,0,0,0,,12,,,83,127
14628,note_on,1,0,0,,6,,,78,127
14628,note_on,0,0,0,,12,,,47,127
14732,note_off,104,0,0,,6,,,78,127
14733,note_on,1,0,0,,3,,,75,127
14837,note_off,104,0,0,,3,,,75,127
14838,note_on,1,0,0,,12,,,71,127
14942,note_off,104,0,0,,12,,,71,127
14943,note_on,1,0,0,,6,,,78,127
15047,note_off,104,0,0,,6,,,78,127
15047,note_off,0,0,0,,12,,,47,127
15048,note_on,1,0,0,,8,,,80,127
15048,note_on,0,0,0,,12,,,83,127
15152,note_off,104,0,0,,8,,,80,127
15153,note_on,1,0,0,,4,,,76,127
15257,note_off,104,0,0,,4,,,76,127
15257,note_off,0,0,0,,12,,,83,127
15258,note_on,1,0,0,,6,,,78,127
15258,note_on,0,0,0,,12,,,47,127
15362,note_off,104,0,0,,6,,,78,127
15363,note_on,1,0,0,,3,,,75,127
15467,note_off,104,0,0,,3,,,75,127
15468,note_on,1,0,0,,12,,,71,127
15572,note_off,104,0,0,,12,,,71,127
15573,note_on,1,0,0,,6,,,78,127
15677,note_off,104,0,0,,6,,,78,127
15677,note_off,0,0,0,,12,,,47,127
15678,note_on,1,0,0,,8,,,80,127
15678,note_on,0,0,0,,12,,,83,127
15782,note_off,104,0,0,,8,,,80,127
15783,note_on,1,0,0,,4,,,76,127
15887,note_off,104,0,0,,4,,,76,127
15887,note_off,0,0,0,,12,,,83,127
15888,note_on,1,0,0,,6,,,78,127
15888,note_on,0,0,0,,12,,,47,127
15992,note_off,104,0,0,,6,,,78,127
15993,note_on,1,0,0,,4,,,76,127
16097,note_off,104,0,0,,4,,,76,127
16098,note_on,1,0,0,,3,,,75,127
16202,note_off,104,0,0,,3,,,75,127
16203,note_on,1,0,0,,1,,,73,127
16307,note_off,104,0,0,,1,,,73,127
16308,note_on,1,0,0,,12,,,71,127
16308,note_on,0,0,0,,3,,,75,127
16412,note_off,104,0,0,,12,,,71,127
16413,note_on,1,0,0,,10,,,69,127
16517,note_off,104,0,0,,10,,,69,127
16517,note_off,0,0,0,,3,,,75,127
16517,note_off,0,0,0,,12,,,47,127
16518,note_on,1,0,0,,8,,,68,127
16518,note_on,0,0,0,,4,,,76,127
16518,note_on,0,0,0,,4,,,40,127
16622,note_off,104,0,0,,8,,,68,127
16623,note_on,1,0,0,,6,,,66,127
16727,note_off,104,0,0,,6,,,66,127
16728,note_on,1,0,0,,4,,,64,127
16832,note_off,104,0,0,,4,,,64,127
16833,note_off,1,0,0,,4,,,76,127
16833,note_on,0,0,0,,12,,,71,127
16937,note_off,104,0,0,,12,,,71,127
16937,note_off,0,0,0,,4,,,40,127
16938,note_on,1,0,0,,1,,,73,127
16938,note_on,0,0,0,,4,,,76,127
17042,note_off,104,0,0,,1,,,73,127
17043,note_on,1,0,0,,10,,,69,127
17147,note_off,104,0,0,,10,,,69,127
17147,note_off,0,0,0,,4,,,76,127
17148,note_on,1,0,0,,12,,,71,127
17148,note_on,0,0,0,,4,,,40,127
17252,note_off,104,0,0,,12,,,71,127
17253,note_on,1,0,0,,8,,,68,127
17357,note_off,104,0,0,,8,,,68,127
17358,note_on,1,0,0,,4,,,64,127
17462,note_off,104,0,0,,4,,,64,127
17463,note_on,1,0,0,,12,,,71,127
17567,note_off,104,0,0,,12,,,71,127
17567,note_off,0,0,0,,4,,,40,127
17568,note_on,1,0,0,,1,,,73,127
17568,note_on,0,0,0,,4,,,76,127
17672,note_off,104,0,0,,1,,,73,127
17673,note_on,1,0,0,,10,,,69,127
17777,note_off,104,0,0,,10,,,69,127
17777,note_off,0,0,0,,4,,,76,127
17778,note_on,1,0,0,,12,,,71,127
17778,note_on,0,0,0,,4,,,40,127
17882,note_off,104,0,0,,12,,,71,127
17883,note_on,1,0,0,,8,,,68,127
17987,note_off,104,0,0,,8,,,68,127
17988,note_on,1,0,0,,4,,,64,127
18092,note_off,104,0,0,,4,,,64,127
18093,note_on,1,0,0,,12,,,71,127
18197,note_off,104,0,0,,12,,,71,127
18197,note_off,0,0,0,,4,,,40,127
18198,note_on,1,0,0,,1,,,73,127
18198,note_on,0,0,0,,4,,,76,127
18302,note_off,104,0,0,,1,,,73,127
18303,note_on,1,0,0,,10,,,69,127
18407,note_off,104,0,0,,10,,,69,127
18407,note_off,0,0,0,,4,,,76,127
18408,note_on,1,0,0,,12,,,71,127
18408,note_on,0,0,0,,4,,,40,127
18512,note_off,104,0,0,,12,,,71,127
18513,note_on,1,0,0,,10,,,69,127
18617,note_off,104,0,0,,10,,,69,127
18618,note_on,1,0,0,,8,,,68,127
18722,note_off,104,0,0,,8,,,68,127
18723,note_on,1,0,0,,6,,,66,127
18827,note_off,104,0,0,,6,,,66,127
18827,note_off,0,0,0,,4,,,40,127
18828,note_on,1,0,0,,4,,,64,127
18828,note_on,0,0,0,,4,,,40,127
18932,note_off,104,0,0,,4,,,64,127
18933,note_on,1,0,0,,8,,,68,127
19037,note_off,104,0,0,,8,,,68,127
19037,note_off,0,0,0,,4,,,40,127
19038,note_on,1,0,0,,6,,,66,127
19038,note_on,0,0,0,,12,,,47,127
19142,note_off,104,0,0,,6,,,66,127
19143,note_on,1,0,0,,4,,,64,127
19247,note_off,104,0,0,,4,,,64,127
19248,note_on,1,0,0,,3,,,63,127
19352,note_off,104,0,0,,3,,,63,127
19352,note_off,0,0,0,,12,,,47,127
19353,note_on,1,0,0,,1,,,61,127
19353,note_on,0,0,0,,10,,,57,127
19457,note_off,104,0,0,,10,,,57,127
19457,note_off,0,0,0,,1,,,61,127
19458,note_on,1,0,0,,12,,,59,127
19458,note_on,0,0,0,,8,,,56,127
19562,note_off,104,0,0,,8,,,56,127
19562,note_off,0,0,0,,12,,,59,127
19563,note_on,1,0,0,,3,,,63,127
19563,note_on,0,0,0,,6,,,54,127
19667,note_off,104,0,0,,6,,,54,127
19667,note_off,0,0,0,,3,,,63,127
19668,note_on,1,0,0,,4,,,64,127
19668,note_on,0,0,0,,4,,,52,127
19772,note_off,104,0,0,,4,,,64,127
19773,note_on,1,0,0,,6,,,66,127
19877,note_off,104,0,0,,6,,,66,127
19877,note_off,0,0,0,,4,,,52,127
19878,note_on,1,0,0,,12,,,71,127
19878,note_on,0,0,0,,8,,,68,127
19878,note_on,0,0,0,,12,,,59,127
19982,note_off,104,0,0,,8,,,68,127
19983,note_on,1,0,0,,4,,,64,127
20087,note_off,104,0,0,,4,,,64,127
20087,note_off,0,0,0,,12,,,59,127
20087,note_off,0,0,0,,12,,,71,127
20088,note_on,1,0,0,,6,,,66,127
20088,note_on,0,0,0,,12,,,47,127
20192,note_off,104,0,0,,6,,,66,127
20193,note_on,1,0,0,,3,,,63,127
20297,note_off,104,0,0,,3,,,63,127
20297,note_off,0,0,0,,12,,,47,127
20298,note_on,1,0,0,,4,,,64,127
20298,note_on,0,0,0,,8,,,68,127
20298,note_on,0,0,0,,4,,,40,127
20402,note_off,104,0,0,,4,,,64,127
20403,note_on,1,0,0,,12,,,59,127
20507,note_off,104,0,0,,12,,,59,127
20507,note_off,0,0,0,,8,,,68,127
20508,note_on,1,0,0,,1,,,61,127
20612,note_off,104,0,0,,1,,,61,127
20613,note_on,1,0,0,,10,,,57,127
20717,note_off,104,0,0,,10,,,57,127
20718,note_on,1,0,0,,12,,,59,127
20822,note_off,104,0,0,,12,,,59,127
20823,note_on,1,0,0,,8,,,56,127
20927,note_off,104,0,0,,8,,,56,127
20927,note_off,0,0,0,,4,,,40,127
20928,note_on,1,0,0,,1,,,61,127
20928,note_on,0,0,0,,10,,,57,127
21032,note_off,104,0,0,,10,,,57,127
21033,note_on,1,0,0,,6,,,54,127
21137,note_off,104,0,0,,6,,,54,127
21137,note_off,0,0,0,,1,,,61,127
21138,note_on,1,0,0,,12,,,59,127
21138,note_on,0,0,0,,8,,,56,127
21242,note_off,104,0,0,,8,,,56,127
21243,note_on,1,0,0,,4,,,52,127
21347,note_off,104,0,0,,4,,,52,127
21347,note_off,0,0,0,,12,,,59,127
21348,note_on,1,0,0,,10,,,57,127
21348,note_on,0,0,0,,6,,,54,127
21459,note_on,111,0,0,,3,,,51,127
21463,note_off,4,0,0,,6,,,54,127
21556,note_off,93,0,0,,10,,,57,127
21578,note_off,22,0,0,,3,,,51,127
21579,note_on,1,0,0,,8,,,56,127
21579,note_on,0,0,0,,4,,,52,127
21579,note_on,0,0,0,,4,,,40,127
22157,note_off,578,0,0,,4,,,40,127
22206,note_off,49,0,0,,4,,,52,127
22295,note_off,89,0,0,,8,,,56,127
22307,note_on,12,0,0,,4,,,52,127
22515,note_off,208,0,0,,4,,,52,127
22516,note_on,1,0,0,,8,,,56,127
22724,note_off,208,0,0,,8,,,56,127
22725,note_on,1,0,0,,12,,,59,127
22933,note_off,208,0,0,,12,,,59,127
22934,note_on,1,0,0,,4,,,64,127
23142,note_off,208,0,0,,4,,,64,127
23143,note_on,1,0,0,,8,,,68,127
23351,note_off,208,0,0,,8,,,68,127
23352,note_on,1,0,0,,12,,,71,127
23560,note_off,208,0,0,,12,,,71,127
23561,note_on,1,0,0,,4,,,76,127
23666,note_on,105,0,0,,4,,,40,127
23770,note_off,104,0,0,,4,,,40,127
23771,note_on,1,0,0,,8,,,44,127
23875,note_off,104,0,0,,8,,,44,127
23876,note_on,1,0,0,,12,,,47,127
23980,note_off,104,0,0,,12,,,47,127
23981,note_on,1,0,0,,4,,,52,127
24085,note_off,104,0,0,,4,,,52,127
24086,note_on,1,0,0,,8,,,56,127
24190,note_off,104,0,0,,8,,,56,127
24191,note_on,1,0,0,,12,,,59,127
24295,note_off,104,0,0,,12,,,59,127
24295,note_off,0,0,0,,4,,,76,127
24296,note_on,1,0,0,,1,,,73,127
24296,note_on,0,0,0,,4,,,64,127
24400,note_off,104,0,0,,4,,,64,127
24400,note_off,0,0,0,,1,,,73,127
24401,note_on,1,0,0,,12,,,71,127
24401,note_on,0,0,0,,3,,,63,127
24505,note_off,104,0,0,,3,,,63,127
24505,note_off,0,0,0,,12,,,71,127
24506,note_on,1,0,0,,10,,,69,127
24506,note_on,0,0,0,,1,,,61,127
24610,note_off,104,0,0,,1,,,61,127
24610,note_off,0,0,0,,10,,,69,127
24611,note_on,1,0,0,,8,,,68,127
24611,note_on,0,0,0,,12,,,59,127
24715,note_off,104,0,0,,12,,,59,127
24715,note_off,0,0,0,,8,,,68,127
24716,note_on,1,0,0,,12,,,71,127
24716,note_on,0,0,0,,3,,,63,127
24820,note_off,104,0,0,,3,,,63,127
24820,note_off,0,0,0,,12,,,71,127
24821,note_on,1,0,0,,10,,,69,127
24821,note_on,0,0,0,,1,,,61,127
24926,note_on,105,0,0,,4,,,76,127
25030,note_off,104,0,0,,4,,,76,127
25030,note_off,0,0,0,,1,,,61,127
25031,note_on,1,0,0,,2,,,74,127
25031,note_on,0,0,0,,12,,,59,127
25135,note_off,104,0,0,,2,,,74,127
25136,note_on,1,0,0,,1,,,73,127
25240,note_off,104,0,0,,1,,,73,127
25240,note_off,0,0,0,,12,,,59,127
25240,note_off,0,0,0,,10,,,69,127
25241,note_on,1,0,0,,8,,,68,127
25241,note_on,0,0,0,,12,,,71,127
25241,note_on,0,0,0,,4,,,64,127
25345,note_off,104,0,0,,12,,,71,127
25346,note_on,1,0,0,,2,,,74,127
25450,note_off,104,0,0,,2,,,74,127
25450,note_off,0,0,0,,4,,,64,127
25450,note_off,0,0,0,,8,,,68,127
25451,note_on,1,0,0,,1,,,73,127
25451,note_on,0,0,0,,10,,,69,127
25555,note_off,104,0,0,,10,,,69,127
25565,note_on,10,0,0,,10,,,45,127
25669,note_off,104,0,0,,10,,,45,127
25670,note_on,1,0,0,,1,,,49,127
25774,note_off,104,0,0,,1,,,49,127
25775,note_on,1,0,0,,4,,,52,127
25879,note_off,104,0,0,,4,,,52,127
25880,note_on,1,0,0,,10,,,57,127
25975,note_off,95,0,0,,1,,,73,127
25984,note_off,9,0,0,,10,,,57,127
25985,note_on,1,0,0,,1,,,61,127
25985,note_on,0,0,0,,4,,,64,127
26089,note_off,104,0,0,,4,,,64,127
26089,note_off,0,0,0,,1,,,61,127
26090,note_on,1,0,0,,2,,,62,127
26090,note_on,0,0,0,,6,,,66,127
26194,note_off,104,0,0,,6,,,66,127
26195,note_on,1,0,0,,10,,,81,127
26299,note_off,104,0,0,,10,,,81,127
26300,note_on,1,0,0,,6,,,78,127
26404,note_off,104,0,0,,6,,,78,127
26405,note_on,1,0,0,,2,,,74,127
26509,note_off,104,0,0,,2,,,74,127
26510,note_on,1,0,0,,10,,,69,127
26614,note_off,104,0,0,,10,,,69,127
26614,note_off,0,0,0,,2,,,62,127
26615,note_on,1,0,0,,2,,,62,127
26615,note_on,0,0,0,,6,,,66,127
26719,note_off,104,0,0,,6,,,66,127
26719,note_off,0,0,0,,2,,,62,127
26720,note_on,1,0,0,,1,,,61,127
26720,note_on,0,0,0,,4,,,64,127
26824,note_off,104,0,0,,1,,,61,127
26825,note_on,1,0,0,,10,,,45,127
26929,note_off,104,0,0,,10,,,45,127
26930,note_on,1,0,0,,1,,,49,127
27034,note_off,104,0,0,,1,,,49,127
27035,note_on,1,0,0,,4,,,52,127
27139,note_off,104,0,0,,4,,,52,127
27140,note_on,1,0,0,,10,,,57,127
27244,note_off,104,0,0,,10,,,57,127
27244,note_off,0,0,0,,4,,,64,127
27245,note_on,1,0,0,,1,,,61,127
27245,note_on,0,0,0,,4,,,64,127
27349,note_off,104,0,0,,4,,,64,127
27349,note_off,0,0,0,,1,,,61,127
27350,note_on,1,0,0,,2,,,62,127
27350,note_on,0,0,0,,6,,,66,127
27454,note_off,104,0,0,,6,,,66,127
27455,note_on,1,0,0,,10,,,81,127
27559,note_off,104,0,0,,10,,,81,127
27560,note_on,1,0,0,,6,,,78,127
27664,note_off,104,0,0,,6,,,78,127
27665,note_on,1,0,0,,2,,,74,127
27769,note_off,104,0,0,,2,,,74,127
27770,note_on,1,0,0,,10,,,69,127
27874,note_off,104,0,0,,10,,,69,127
27874,note_off,0,0,0,,2,,,62,127
27875,note_on,1,0,0,,2,,,62,127
27875,note_on,0,0,0,,6,,,66,127
27979,note_off,104,0,0,,6,,,66,127
27979,note_off,0,0,0,,2,,,62,127
27980,note_on,1,0,0,,1,,,61,127
27980,note_on,0,0,0,,4,,,64,127
28084,note_off,104,0,0,,1,,,61,127
28085,note_on,1,0,0,,10,,,45,127
28189,note_off,104,0,0,,10,,,45,127
28190,note_on,1,0,0,,1,,,49,127
28294,note_off,104,0,0,,1,,,49,127
28295,note_on,1,0,0,,4,,,52,127
28399,note_off,104,0,0,,4,,,52,127
28400,note_on,1,0,0,,10,,,57,127
28504,note_off,104,0,0,,4,,,64,127
28505,note_on,1,0,0,,4,,,64,127
28609,note_off,104,0,0,,4,,,64,127
28609,note_off,0,0,0,,10,,,57,127
28610,note_on,1,0,0,,10,,,57,127
28610,note_on,0,0,0,,1,,,61,127
28714,note_off,104,0,0,,1,,,61,127
28715,note_on,1,0,0,,4,,,64,127
28819,note_off,104,0,0,,4,,,64,127
28819,note_off,0,0,0,,10,,,57,127
28820,note_on,1,0,0,,8,,,56,127
28820,note_on,0,0,0,,12,,,59,127
28924,note_off,104,0,0,,12,,,59,127
28925,note_on,1,0,0,,4,,,64,127
29029,note_off,104,0,0,,4,,,64,127
29029,note_off,0,0,0,,8,,,56,127
29030,note_on,1,0,0,,6,,,54,127
29030,note_on,0,0,0,,10,,,57,127
29134,note_off,104,0,0,,10,,,57,127
29135,note_on,1,0,0,,3,,,63,127
29239,note_off,104,0,0,,3,,,63,127
29239,note_off,0,0,0,,6,,,54,127
29240,note_on,1,0,0,,4,,,52,127
29240,note_on,0,0,0,,4,,,64,127
29344,note_off,104,0,0,,4,,,64,127
29345,note_on,1,0,0,,7,,,67,127
29449,note_off,104,0,0,,7,,,67,127
29449,note_off,0,0,0,,4,,,52,127
29450,note_on,1,0,0,,2,,,62,127
29450,note_on,0,0,0,,6,,,66,127
29554,note_off,104,0,0,,6,,,66,127
29555,note_on,1,0,0,,12,,,71,127
29659,note_off,104,0,0,,2,,,62,127
29660,note_on,1,0,0,,1,,,61,127
29660,note_on,0,0,0,,4,,,64,127
29764,note_off,104,0,0,,12,,,71,127
29765,note_on,1,0,0,,11,,,70,127
29869,note_off,104,0,0,,11,,,70,127
29869,note_off,0,0,0,,4,,,64,127
29869,note_off,0,0,0,,1,,,61,127
29870,note_on,1,0,0,,12,,,59,127
29870,note_on,0,0,0,,12,,,71,127
29975,note_on,105,0,0,,2,,,74,127
30079,note_off,104,0,0,,2,,,74,127
30079,note_off,0,0,0,,12,,,71,127
30080,note_on,1,0,0,,1,,,73,127
30184,note_off,104,0,0,,12,,,59,127
30185,note_on,1,0,0,,10,,,57,127
30185,note_on,0,0,0,,6,,,78,127
30289,note_off,104,0,0,,10,,,57,127
30289,note_off,0,0,0,,1,,,73,127
30290,note_on,1,0,0,,8,,,56,127
30290,note_on,0,0,0,,12,,,71,127
30394,note_off,104,0,0,,6,,,78,127
30395,note_on,1,0,0,,5,,,77,127
30499,note_off,104,0,0,,5,,,77,127
30499,note_off,0,0,0,,8,,,56,127
30500,note_on,1,0,0,,6,,,54,127
30500,note_on,0,0,0,,6,,,78,127
30604,note_off,104,0,0,,12,,,71,127
30614,note_on,10,0,0,,11,,,70,127
30718,note_off,104,0,0,,11,,,70,127
30719,note_on,1,0,0,,12,,,71,127
30814,note_off,95,0,0,,6,,,54,127
30823,note_off,9,0,0,,12,,,71,127
30824,note_on,1,0,0,,1,,,73,127
30824,note_on,0,0,0,,4,,,52,127
30928,note_off,104,0,0,,4,,,52,127
30928,note_off,0,0,0,,1,,,73,127
30929,note_on,1,0,0,,6,,,66,127
30929,note_on,0,0,0,,2,,,50,127
30929,note_on,0,0,0,,2,,,62,127
31024,note_off,95,0,0,,6,,,78,127
31034,note_on,10,0,0,,2,,,74,127
31138,note_off,104,0,0,,2,,,62,127
31138,note_off,0,0,0,,2,,,50,127
31138,note_off,0,0,0,,6,,,66,127
31139,note_on,1,0,0,,7,,,67,127
31139,note_on,0,0,0,,4,,,64,127
31139,note_on,0,0,0,,4,,,52,127
31243,note_off,104,0,0,,2,,,74,127
31244,note_on,1,0,0,,1,,,73,127
31348,note_off,104,0,0,,4,,,52,127
31348,note_off,0,0,0,,4,,,64,127
31348,note_off,0,0,0,,7,,,67,127
31349,note_on,1,0,0,,6,,,66,127
31349,note_on,0,0,0,,2,,,62,127
31349,note_on,0,0,0,,6,,,54,127
31453,note_off,104,0,0,,1,,,73,127
31454,note_on,1,0,0,,12,,,71,127
31558,note_off,104,0,0,,2,,,62,127
31558,note_off,0,0,0,,6,,,66,127
31559,note_on,1,0,0,,4,,,64,127
31559,note_on,0,0,0,,1,,,61,127
31663,note_off,104,0,0,,12,,,71,127
31664,note_on,1,0,0,,11,,,70,127
31768,note_off,104,0,0,,11,,,70,127
31768,note_off,0,0,0,,1,,,61,127
31768,note_off,0,0,0,,6,,,54,127
31769,note_on,1,0,0,,12,,,71,127
31769,note_on,0,0,0,,12,,,59,127
31873,note_off,104,0,0,,4,,,64,127
31883,note_on,10,0,0,,3,,,63,127
31987,note_off,104,0,0,,3,,,63,127
31988,note_on,1,0,0,,4,,,64,127
32083,note_off,95,0,0,,12,,,59,127
32092,note_off,9,0,0,,4,,,64,127
32093,note_on,1,0,0,,10,,,57,127
32093,note_on,0,0,0,,6,,,66,127
32197,note_off,104,0,0,,6,,,66,127
32197,note_off,0,0,0,,10,,,57,127
32198,note_on,1,0,0,,8,,,56,127
32198,note_on,0,0,0,,4,,,64,127
32302,note_off,104,0,0,,4,,,64,127
32303,note_on,1,0,0,,8,,,68,127
32398,note_off,95,0,0,,12,,,71,127
32407,note_off,9,0,0,,8,,,56,127
32408,note_on,1,0,0,,10,,,57,127
32408,note_on,0,0,0,,1,,,73,127
32512,note_off,104,0,0,,8,,,68,127
32513,note_on,1,0,0,,6,,,66,127
32617,note_off,104,0,0,,1,,,73,127
32617,note_off,0,0,0,,10,,,57,127
32618,note_on,1,0,0,,12,,,59,127
32618,note_on,0,0,0,,12,,,71,127
32722,note_off,104,0,0,,6,,,66,127
32723,note_on,1,0,0,,4,,,64,127
32827,note_off,104,0,0,,12,,,71,127
32827,note_off,0,0,0,,12,,,59,127
32828,note_on,1,0,0,,12,,,47,127
32828,note_on,0,0,0,,10,,,69,127
32932,note_off,104,0,0,,4,,,64,127
32933,note_on,1,0,0,,3,,,63,127
33037,note_off,104,0,0,,3,,,63,127
33037,note_off,0,0,0,,12,,,47,127
33038,note_on,1,0,0,,4,,,52,127
33038,note_on,0,0,0,,4,,,64,127
33142,note_off,104,0,0,,10,,,69,127
33143,note_on,1,0,0,,8,,,68,127
33247,note_off,104,0,0,,8,,,68,127
33248,note_on,1,0,0,,10,,,69,127
33352,note_off,104,0,0,,10,,,69,127
33353,note_on,1,0,0,,2,,,62,127
33353,note_on,0,0,0,,12,,,71,127
33457,note_off,104,0,0,,12,,,71,127
33457,note_off,0,0,0,,2,,,62,127
33457,note_off,0,0,0,,4,,,64,127
33458,note_on,1,0,0,,1,,,61,127
33458,note_on,0,0,0,,4,,,64,127
33562,note_off,104,0,0,,4,,,64,127
33563,note_on,1,0,0,,1,,,73,127
33667,note_off,104,0,0,,1,,,61,127
33667,note_off,0,0,0,,4,,,52,127
33668,note_on,1,0,0,,2,,,62,127
33668,note_on,0,0,0,,2,,,50,127
33668,note_on,0,0,0,,6,,,66,127
33772,note_off,104,0,0,,1,,,73,127
33773,note_on,1,0,0,,12,,,71,127
33877,note_off,104,0,0,,6,,,66,127
33877,note_off,0,0,0,,2,,,50,127
33877,note_off,0,0,0,,2,,,62,127
33878,note_on,1,0,0,,4,,,52,127
33878,note_on,0,0,0,,1,,,61,127
33878,note_on,0,0,0,,4,,,64,127
33982,note_off,104,0,0,,12,,,71,127
33983,note_on,1,0,0,,10,,,69,127
34087,note_off,104,0,0,,4,,,64,127
34087,note_off,0,0,0,,1,,,61,127
34088,note_on,1,0,0,,12,,,59,127
34088,note_on,0,0,0,,2,,,62,127
34192,note_off,104,0,0,,10,,,69,127
34193,note_on,1,0,0,,8,,,68,127
34297,note_off,104,0,0,,8,,,68,127
34297,note_off,0,0,0,,2,,,62,127
34297,note_off,0,0,0,,12,,,59,127
34297,note_off,0,0,0,,4,,,52,127
34307,note_on,10,0,0,,10,,,69,127
34307,note_on,0,0,0,,4,,,64,127
34307,note_on,0,0,0,,1,,,61,127
34420,note_on,113,0,0,,10,,,45,127
34421,note_off,1,0,0,,1,,,61,127
34524,note_off,103,0,0,,10,,,45,127
34525,note_on,1,0,0,,1,,,49,127
34629,note_off,104,0,0,,1,,,49,127
34630,note_on,1,0,0,,4,,,52,127
34734,note_off,104,0,0,,4,,,52,127
34735,note_on,1,0,0,,10,,,57,127
34830,note_off,95,0,0,,4,,,64,127
34830,note_off,0,0,0,,10,,,69,127
34839,note_off,9,0,0,,10,,,57,127
34840,note_on,1,0,0,,1,,,61,127
34840,note_on,0,0,0,,4,,,64,127
34944,note_off,104,0,0,,4,,,64,127
34944,note_off,0,0,0,,1,,,61,127
34945,note_on,1,0,0,,2,,,62,127
34945,note_on,0,0,0,,6,,,66,127
35049,note_off,104,0,0,,6,,,66,127
35050,note_on,1,0,0,,10,,,81,127
35154,note_off,104,0,0,,10,,,81,127
35155,note_on,1,0,0,,6,,,78,127
35259,note_off,104,0,0,,6,,,78,127
35260,note_on,1,0,0,,2,,,74,127
35364,note_off,104,0,0,,2,,,74,127
35365,note_on,1,0,0,,10,,,69,127
35469,note_off,104,0,0,,10,,,69,127
35469,note_off,0,0,0,,2,,,62,127
35470,note_on,1,0,0,,2,,,62,127
35470,note_on,0,0,0,,6,,,66,127
35574,note_off,104,0,0,,6,,,66,127
35574,note_off,0,0,0,,2,,,62,127
35575,note_on,1,0,0,,1,,,61,127
35575,note_on,0,0,0,,4,,,64,127
35679,note_off,104,0,0,,1,,,61,127
35680,note_on,1,0,0,,10,,,45,127
35784,note_off,104,0,0,,10,,,45,127
35785,note_on,1,0,0,,1,,,49,127
35889,note_off,104,0,0,,1,,,49,127
35890,note_on,1,0,0,,4,,,52,127
35994,note_off,104,0,0,,4,,,52,127
35995,note_on,1,0,0,,10,,,57,127
36099,note_off,104,0,0,,10,,,57,127
36099,note_off,0,0,0,,4,,,64,127
36100,note_on,1,0,0,,1,,,61,127
36100,note_on,0,0,0,,4,,,64,127
36204,note_off,104,0,0,,4,,,64,127
36204,note_off,0,0,0,,1,,,61,127
36205,note_on,1,0,0,,2,,,62,127
36205,note_on,0,0,0,,6,,,66,127
36309,note_off,104,0,0,,6,,,66,127
36310,note_on,1,0,0,,10,,,81,127
36414,note_off,104,0,0,,10,,,81,127
36415,note_on,1,0,0,,6,,,78,127
36519,note_off,104,0,0,,6,,,78,127
36520,note_on,1,0,0,,2,,,74,127
36624,note_off,104,0,0,,2,,,74,127
36625,note_on,1,0,0,,10,,,69,127
36729,note_off,104,0,0,,10,,,69,127
36729,note_off,0,0,0,,2,,,62,127
36730,note_on,1,0,0,,2,,,62,127
36730,note_on,0,0,0,,6,,,66,127
36834,note_off,104,0,0,,6,,,66,127
36834,note_off,0,0,0,,2,,,62,127
36835,note_on,1,0,0,,1,,,61,127
36835,note_on,0,0,0,,4,,,64,127
36939,note_off,104,0,0,,1,,,61,127
36940,note_on,1,0,0,,10,,,45,127
37044,note_off,104,0,0,,10,,,45,127
37045,note_on,1,0,0,,1,,,49,127
37149,note_off,104,0,0,,1,,,49,127
37150,note_on,1,0,0,,4,,,52,127
37254,note_off,104,0,0,,4,,,52,127
37255,note_on,1,0,0,,10,,,57,127
37359,note_off,104,0,0,,4,,,64,127
37360,note_on,1,0,0,,4,,,64,127
37464,note_off,104,0,0,,4,,,64,127
37464,note_off,0,0,0,,10,,,57,127
37465,note_on,1,0,0,,10,,,57,127
37465,note_on,0,0,0,,1,,,61,127
37569,note_off,104,0,0,,1,,,61,127
37570,note_on,1,0,0,,4,,,64,127
37674,note_off,104,0,0,,4,,,64,127
37674,note_off,0,0,0,,10,,,57,127
37675,note_on,1,0,0,,8,,,56,127
37675,note_on,0,0,0,,12,,,59,127
37779,note_off,104,0,0,,12,,,59,127
37780,note_on,1,0,0,,4,,,64,127
37884,note_off,104,0,0,,4,,,64,127
37884,note_off,0,0,0,,8,,,56,127
37885,note_on,1,0,0,,6,,,54,127
37885,note_on,0,0,0,,10,,,57,127
37989,note_off,104,0,0,,10,,,57,127
37990,note_on,1,0,0,,3,,,63,127
38094,note_off,104,0,0,,3,,,63,127
38094,note_off,0,0,0,,6,,,54,127
38095,note_on,1,0,0,,8,,,56,127
38095,note_on,0,0,0,,12,,,59,127
38199,note_off,104,0,0,,8,,,56,127
38200,note_on,1,0,0,,4,,,40,127
38304,note_off,104,0,0,,4,,,40,127
38305,note_on,1,0,0,,8,,,44,127
38409,note_off,104,0,0,,8,,,44,127
38410,note_on,1,0,0,,12,,,47,127
38514,note_off,104,0,0,,12,,,47,127
38515,note_on,1,0,0,,4,,,52,127
38619,note_off,104,0,0,,4,,,52,127
38619,note_off,0,0,0,,12,,,59,127
38620,note_on,1,0,0,,8,,,56,127
38620,note_on,0,0,0,,12,,,59,127
38724,note_off,104,0,0,,12,,,59,127
38724,note_off,0,0,0,,8,,,56,127
38725,note_on,1,0,0,,10,,,57,127
38725,note_on,0,0,0,,1,,,61,127
38829,note_off,104,0,0,,1,,,61,127
38830,note_on,1,0,0,,4,,,76,127
38934,note_off,104,0,0,,4,,,76,127
38935,note_on,1,0,0,,1,,,73,127
39039,note_off,104,0,0,,1,,,73,127
39040,note_on,1,0,0,,10,,,69,127
39144,note_off,104,0,0,,10,,,69,127
39145,note_on,1,0,0,,4,,,64,127
39249,note_off,104,0,0,,4,,,64,127
39249,note_off,0,0,0,,10,,,57,127
39250,note_on,1,0,0,,10,,,57,127
39250,note_on,0,0,0,,1,,,61,127
39354,note_off,104,0,0,,1,,,61,127
39354,note_off,0,0,0,,10,,,57,127
39355,note_on,1,0,0,,8,,,56,127
39355,note_on,0,0,0,,12,,,59,127
39459,note_off,104,0,0,,8,,,56,127
39460,note_on,1,0,0,,4,,,40,127
39564,note_off,104,0,0,,4,,,40,127
39565,note_on,1,0,0,,8,,,44,127
39669,note_off,104,0,0,,8,,,44,127
39670,note_on,1,0,0,,12,,,47,127
39774,note_off,104,0,0,,12,,,47,127
39775,note_on,1,0,0,,4,,,52,127
39879,note_off,104,0,0,,4,,,52,127
39879,note_off,0,0,0,,12,,,59,127
39880,note_on,1,0,0,,8,,,56,127
39880,note_on,0,0,0,,12,,,59,127
39984,note_off,104,0,0,,12,,,59,127
39984,note_off,0,0,0,,8,,,56,127
39985,note_on,1,0,0,,10,,,57,127
39985,note_on,0,0,0,,1,,,61,127
40089,note_off,104,0,0,,1,,,61,127
40090,note_on,1,0,0,,4,,,76,127
40194,note_off,104,0,0,,4,,,76,127
40195,note_on,1,0,0,,1,,,73,127
40299,note_off,104,0,0,,1,,,73,127
40300,note_on,1,0,0,,10,,,69,127
40404,note_off,104,0,0,,10,,,69,127
40405,note_on,1,0,0,,4,,,64,127
40509,note_off,104,0,0,,4,,,64,127
40509,note_off,0,0,0,,10,,,57,127
40510,note_on,1,0,0,,10,,,57,127
40510,note_on,0,0,0,,1,,,61,127
40614,note_off,104,0,0,,1,,,61,127
40614,note_off,0,0,0,,10,,,57,127
40615,note_on,1,0,0,,8,,,56,127
40615,note_on,0,0,0,,12,,,59,127
40719,note_off,104,0,0,,8,,,56,127
40720,note_on,1,0,0,,4,,,40,127
40825,note_on,105,0,0,,4,,,52,127
40851,note_off,26,0,0,,4,,,40,127
40928,note_off,77,0,0,,12,,,59,127
40947,note_on,19,0,0,,12,,,71,127
41033,note_off,86,0,0,,4,,,52,127
41050,note_off,17,0,0,,12,,,71,127
41051,note_on,1,0,0,,1,,,73,127
41051,note_on,0,0,0,,4,,,76,127
41155,note_off,104,0,0,,1,,,73,127
41156,note_on,1,0,0,,10,,,69,127
41260,note_off,104,0,0,,10,,,69,127
41260,note_off,0,0,0,,4,,,76,127
41261,note_on,1,0,0,,12,,,71,127
41261,note_on,0,0,0,,4,,,40,127
41365,note_off,104,0,0,,12,,,71,127
41366,note_on,1,0,0,,8,,,68,127
41470,note_off,104,0,0,,8,,,68,127
41471,note_on,1,0,0,,4,,,64,127
41575,note_off,104,0,0,,4,,,64,127
41576,note_on,1,0,0,,12,,,71,127
41680,note_off,104,0,0,,12,,,71,127
41680,note_off,0,0,0,,4,,,40,127
41681,note_on,1,0,0,,1,,,73,127
41681,note_on,0,0,0,,4,,,76,127
41785,note_off,104,0,0,,1,,,73,127
41786,note_on,1,0,0,,10,,,69,127
41890,note_off,104,0,0,,10,,,69,127
41890,note_off,0,0,0,,4,,,76,127
41891,note_on,1,0,0,,12,,,71,127
41891,note_on,0,0,0,,4,,,40,127
41995,note_off,104,0,0,,12,,,71,127
41996,note_on,1,0,0,,8,,,68,127
42100,note_off,104,0,0,,8,,,68,127
42101,note_on,1,0,0,,4,,,64,127
42205,note_off,104,0,0,,4,,,64,127
42206,note_on,1,0,0,,12,,,71,127
42310,note_off,104,0,0,,12,,,71,127
42310,note_off,0,0,0,,4,,,40,127
42311,note_on,1,0,0,,1,,,73,127
42311,note_on,0,0,0,,4,,,76,127
42415,note_off,104,0,0,,1,,,73,127
42416,note_on,1,0,0,,10,,,69,127
42520,note_off,104,0,0,,10,,,69,127
42520,note_off,0,0,0,,4,,,76,127
42521,note_on,1,0,0,,12,,,71,127
42521,note_on,0,0,0,,4,,,40,127
42625,note_off,104,0,0,,12,,,71,127
42626,note_on,1,0,0,,8,,,68,127
42730,note_off,104,0,0,,8,,,68,127
42731,note_on,1,0,0,,4,,,64,127
42835,note_off,104,0,0,,4,,,64,127
42835,note_off,0,0,0,,4,,,40,127
42836,note_on,1,0,0,,8,,,68,127
42836,note_on,0,0,0,,2,,,62,127
42940,note_off,104,0,0,,2,,,62,127
42940,note_off,0,0,0,,8,,,68,127
42941,note_on,1,0,0,,10,,,69,127
42941,note_on,0,0,0,,1,,,61,127
43045,note_off,104,0,0,,10,,,69,127
43046,note_on,1,0,0,,1,,,73,127
43150,note_off,104,0,0,,1,,,61,127
43151,note_on,1,0,0,,6,,,66,127
43151,note_on,0,0,0,,2,,,62,127
43151,note_on,0,0,0,,2,,,50,127
43255,note_off,104,0,0,,1,,,73,127
43256,note_on,1,0,0,,12,,,71,127
43360,note_off,104,0,0,,2,,,50,127
43360,note_off,0,0,0,,2,,,62,127
43360,note_off,0,0,0,,6,,,66,127
43361,note_on,1,0,0,,4,,,64,127
43361,note_on,0,0,0,,4,,,52,127
43361,note_on,0,0,0,,1,,,61,127
43465,note_off,104,0,0,,12,,,71,127
43466,note_on,1,0,0,,10,,,69,127
43570,note_off,104,0,0,,1,,,61,127
43570,note_off,0,0,0,,4,,,64,127
43571,note_on,1,0,0,,2,,,62,127
43571,note_on,0,0,0,,12,,,59,127
43675,note_off,104,0,0,,10,,,69,127
43676,note_on,1,0,0,,8,,,68,127
43780,note_off,104,0,0,,8,,,68,127
43780,note_off,0,0,0,,12,,,59,127
43780,note_off,0,0,0,,2,,,62,127
43780,note_off,0,0,0,,4,,,52,127
43781,note_on,1,0,0,,10,,,69,127
43781,note_on,0,0,0,,10,,,45,127
43885,note_off,104,0,0,,10,,,69,127
43886,note_on,1,0,0,,4,,,64,127
43990,note_off,104,0,0,,4,,,64,127
43991,note_on,1,0,0,,6,,,66,127
44095,note_off,104,0,0,,6,,,66,127
44096,note_on,1,0,0,,2,,,62,127
44200,note_off,104,0,0,,2,,,62,127
44201,note_on,1,0,0,,4,,,64,127
44305,note_off,104,0,0,,4,,,64,127
44306,note_on,1,0,0,,1,,,61,127
44410,note_off,104,0,0,,1,,,61,127
44410,note_off,0,0,0,,10,,,45,127
44411,note_on,1,0,0,,6,,,66,127
44411,note_on,0,0,0,,2,,,62,127
44515,note_off,104,0,0,,2,,,62,127
44516,note_on,1,0,0,,12,,,59,127
44620,note_off,104,0,0,,12,,,59,127
44620,note_off,0,0,0,,6,,,66,127
44621,note_on,1,0,0,,4,,,64,127
44621,note_on,0,0,0,,1,,,61,127
44725,note_off,104,0,0,,1,,,61,127
44726,note_on,1,0,0,,10,,,57,127
44830,note_off,104,0,0,,10,,,57,127
44830,note_off,0,0,0,,4,,,64,127
44831,note_on,1,0,0,,2,,,62,127
44831,note_on,0,0,0,,12,,,59,127
44935,note_off,104,0,0,,12,,,59,127
44936,note_on,1,0,0,,8,,,56,127
45040,note_off,104,0,0,,8,,,56,127
45040,note_off,0,0,0,,2,,,62,127
45041,note_on,1,0,0,,1,,,61,127
45041,note_on,0,0,0,,10,,,57,127
45041,note_on,0,0,0,,10,,,45,127
45145,note_off,104,0,0,,10,,,45,127
45148,note_on,3,0,0,,4,,,52,127
45249,note_off,101,0,0,,10,,,57,127
45249,note_off,0,0,0,,1,,,61,127
45252,note_off,3,0,0,,4,,,52,127
45255,note_on,3,0,0,,6,,,54,127
45255,note_on,0,0,0,,2,,,62,127
45360,note_off,105,0,0,,6,,,54,127
45363,note_on,3,0,0,,2,,,50,127
45467,note_off,104,0,0,,2,,,62,127
45468,note_off,1,0,0,,2,,,50,127
45471,note_on,3,0,0,,4,,,52,127
45471,note_on,0,0,0,,1,,,61,127
45576,note_off,105,0,0,,4,,,52,127
45579,note_on,3,0,0,,1,,,49,127
45683,note_off,104,0,0,,1,,,61,127
45684,note_off,1,0,0,,1,,,49,127
45686,note_on,2,0,0,,2,,,50,127
45686,note_on,0,0,0,,12,,,59,127
45791,note_off,105,0,0,,2,,,50,127
45794,note_on,3,0,0,,12,,,47,127
45898,note_off,104,0,0,,12,,,59,127
45899,note_off,1,0,0,,12,,,47,127
45902,note_on,3,0,0,,1,,,49,127
45902,note_on,0,0,0,,10,,,57,127
46007,note_off,105,0,0,,1,,,49,127
46010,note_on,3,0,0,,10,,,45,127
46114,note_off,104,0,0,,10,,,57,127
46119,note_off,5,0,0,,10,,,45,127
46127,note_on,8,0,0,,12,,,47,127
46127,note_on,0,0,0,,8,,,56,127
46236,note_off,109,0,0,,12,,,47,127
46248,note_on,12,0,0,,4,,,40,127
46347,note_off,99,0,0,,8,,,56,127
46357,note_off,10,0,0,,4,,,40,127
46385,note_on,28,0,0,,10,,,45,127
46385,note_on,0,0,0,,8,,,56,127
46849,note_off,464,0,0,,8,,,56,127
46856,note_on,7,0,0,,10,,,57,127
48481,note_off,1625,0,0,,10,,,57,127
48481,note_off,0,0,0,,10,,,45,127
53760,end_of_track,5279,1,0,,,,,,
