tick,type,time,meta,track,program,channel,pitch,tempo,note,velocity
0,copyright,0,1,0,,,,,,
0,program_change,0,0,0,6,0,,,,
0,pitchwheel,0,0,0,,0,0,,,
0,program_change,0,0,0,6,1,,,,
0,pitchwheel,0,0,0,,1,-590,,,
0,program_change,0,0,0,6,2,,,,
0,pitchwheel,0,0,0,,2,-272,,,
0,program_change,0,0,0,6,3,,,,
0,pitchwheel,0,0,0,,3,-353,,,
0,program_change,0,0,0,6,4,,,,
0,pitchwheel,0,0,0,,4,-560,,,
0,program_change,0,0,0,6,5,,,,
0,pitchwheel,0,0,0,,5,-80,,,
0,program_change,0,0,0,6,6,,,,
0,pitchwheel,0,0,0,,6,-625,,,
0,program_change,0,0,0,6,7,,,,
0,pitchwheel,0,0,0,,7,-130,,,
0,program_change,0,0,0,6,8,,,,
0,pitchwheel,0,0,0,,8,-512,,,
0,program_change,0,0,0,6,10,,,,
0,pitchwheel,0,0,0,,10,-464,,,
0,program_change,0,0,0,6,11,,,,
0,pitchwheel,0,0,0,,11,-208,,,
0,program_change,0,0,0,6,12,,,,
0,pitchwheel,0,0,0,,12,-553,,,
0,set_tempo,0,1,0,,,,500000,,
121,note_on,121,0,0,,5,,,77,127
241,note_off,120,0,0,,5,,,77,127
242,note_on,1,0,0,,7,,,79,127
362,note_off,120,0,0,,7,,,79,127
363,note_on,1,0,0,,10,,,81,127
483,note_off,120,0,0,,10,,,81,127
484,note_on,1,0,0,,11,,,82,127
604,note_off,120,0,0,,11,,,82,127
605,note_on,1,0,0,,5,,,77,127
725,note_off,120,0,0,,5,,,77,127
726,note_on,1,0,0,,2,,,74,127
846,note_off,120,0,0,,2,,,74,127
847,note_on,1,0,0,,11,,,70,127
967,note_off,120,0,0,,11,,,70,127
968,note_on,1,0,0,,5,,,65,127
1088,note_off,120,0,0,,5,,,65,127
1089,note_on,1,0,0,,2,,,62,127
1209,note_off,120,0,0,,2,,,62,127
1210,note_on,1,0,0,,11,,,58,127
1330,note_off,120,0,0,,11,,,58,127
1331,note_on,1,0,0,,5,,,53,127
1451,note_off,120,0,0,,5,,,53,127
1452,note_on,1,0,0,,11,,,46,127
1695,note_on,243,0,0,,5,,,77,127
1936,note_off,241,0,0,,5,,,77,127
1936,note_off,0,0,0,,11,,,46,127
1937,note_on,1,0,0,,0,,,72,127
1996,note_off,59,0,0,,0,,,72,127
1997,note_on,1,0,0,,11,,,70,127
2056,note_off,59,0,0,,11,,,70,127
2057,note_on,1,0,0,,0,,,72,127
2116,note_off,59,0,0,,0,,,72,127
2117,note_on,1,0,0,,11,,,70,127
2176,note_off,59,0,0,,11,,,70,127
2177,note_on,1,0,0,,0,,,72,127
2177,note_on,0,0,0,,5,,,65,127
2177,note_on,0,0,0,,2,,,62,127
2236,note_off,59,0,0,,0,,,72,127
2237,note_on,1,0,0,,11,,,70,127
2296,note_off,59,0,0,,11,,,70,127
2297,note_on,1,0,0,,10,,,69,127
2356,note_off,59,0,0,,10,,,69,127
2357,note_on,1,0,0,,11,,,70,127
2416,note_off,59,0,0,,11,,,70,127
2416,note_off,0,0,0,,2,,,62,127
2416,note_off,0,0,0,,5,,,65,127
2417,note_on,1,0,0,,7,,,79,127
2417,note_on,0,0,0,,7,,,67,127
2417,note_on,0,0,0,,3,,,63,127
2658,note_off,241,0,0,,3,,,63,127
2658,note_off,0,0,0,,7,,,67,127
2658,note_off,0,0,0,,7,,,79,127
2659,note_on,1,0,0,,11,,,70,127
2659,note_on,0,0,0,,3,,,63,127
2659,note_on,0,0,0,,7,,,67,127
2900,note_off,241,0,0,,11,,,70,127
2901,note_on,1,0,0,,0,,,72,127
2960,note_off,59,0,0,,0,,,72,127
2961,note_on,1,0,0,,11,,,70,127
3020,note_off,59,0,0,,11,,,70,127
3021,note_off,1,0,0,,7,,,67,127
3021,note_off,0,0,0,,3,,,63,127
3021,note_on,0,0,0,,0,,,72,127
3080,note_off,59,0,0,,0,,,72,127
3081,note_on,1,0,0,,11,,,70,127
3140,note_off,59,0,0,,11,,,70,127
3141,note_on,1,0,0,,0,,,72,127
3141,note_on,0,0,0,,3,,,63,127
3141,note_on,0,0,0,,7,,,67,127
3200,note_off,59,0,0,,0,,,72,127
3201,note_on,1,0,0,,11,,,70,127
3260,note_off,59,0,0,,11,,,70,127
3261,note_on,1,0,0,,10,,,69,127
3320,note_off,59,0,0,,10,,,69,127
3321,note_on,1,0,0,,11,,,70,127
3380,note_off,59,0,0,,11,,,70,127
3380,note_off,0,0,0,,7,,,67,127
3380,note_off,0,0,0,,3,,,63,127
3381,note_on,1,0,0,,5,,,77,127
3381,note_on,0,0,0,,2,,,62,127
3381,note_on,0,0,0,,5,,,65,127
3622,note_off,241,0,0,,5,,,65,127
3622,note_off,0,0,0,,2,,,62,127
3622,note_off,0,0,0,,5,,,77,127
3623,note_on,1,0,0,,11,,,70,127
3623,note_on,0,0,0,,5,,,65,127
3623,note_on,0,0,0,,2,,,62,127
3864,note_off,241,0,0,,11,,,70,127
3865,note_on,1,0,0,,0,,,72,127
3924,note_off,59,0,0,,0,,,72,127
3925,note_on,1,0,0,,11,,,70,127
3984,note_off,59,0,0,,11,,,70,127
3985,note_off,1,0,0,,2,,,62,127
3985,note_off,0,0,0,,5,,,65,127
3985,note_on,0,0,0,,0,,,72,127
4044,note_off,59,0,0,,0,,,72,127
4045,note_on,1,0,0,,11,,,70,127
4104,note_off,59,0,0,,11,,,70,127
4105,note_on,1,0,0,,0,,,72,127
4105,note_on,0,0,0,,5,,,65,127
4105,note_on,0,0,0,,2,,,62,127
4164,note_off,59,0,0,,0,,,72,127
4165,note_on,1,0,0,,11,,,70,127
4224,note_off,59,0,0,,11,,,70,127
4225,note_on,1,0,0,,10,,,69,127
4284,note_off,59,0,0,,10,,,69,127
4285,note_on,1,0,0,,11,,,70,127
4344,note_off,59,0,0,,11,,,70,127
4344,note_off,0,0,0,,2,,,62,127
4344,note_off,0,0,0,,5,,,65,127
4345,note_on,1,0,0,,7,,,79,127
4345,note_on,0,0,0,,3,,,63,127
4345,note_on,0,0,0,,7,,,67,127
4465,note_off,120,0,0,,7,,,79,127
4466,note_on,1,0,0,,3,,,75,127
4586,note_off,120,0,0,,3,,,75,127
4586,note_off,0,0,0,,7,,,67,127
4586,note_off,0,0,0,,3,,,63,127
4587,note_on,1,0,0,,5,,,77,127
4587,note_on,0,0,0,,5,,,65,127
4587,note_on,0,0,0,,2,,,62,127
4707,note_off,120,0,0,,5,,,77,127
4708,note_on,1,0,0,,2,,,74,127
4828,note_off,120,0,0,,2,,,74,127
4828,note_off,0,0,0,,2,,,62,127
4828,note_off,0,0,0,,5,,,65,127
4829,note_on,1,0,0,,2,,,74,127
4829,note_on,0,0,0,,7,,,67,127
4829,note_on,0,0,0,,0,,,60,127
5070,note_off,241,0,0,,7,,,67,127
5070,note_off,0,0,0,,2,,,74,127
5071,note_on,1,0,0,,3,,,75,127
5071,note_on,0,0,0,,10,,,69,127
5312,note_off,241,0,0,,3,,,75,127
5312,note_off,0,0,0,,0,,,60,127
5313,note_on,1,0,0,,3,,,75,127
5313,note_on,0,0,0,,11,,,58,127
5393,note_off,80,0,0,,3,,,75,127
5394,note_on,1,0,0,,2,,,74,127
5474,note_off,80,0,0,,2,,,74,127
5475,note_on,1,0,0,,0,,,72,127
5555,note_off,80,0,0,,0,,,72,127
5555,note_off,0,0,0,,11,,,58,127
5556,note_on,1,0,0,,0,,,72,127
5556,note_on,0,0,0,,5,,,65,127
5797,note_off,241,0,0,,5,,,65,127
5797,note_off,0,0,0,,10,,,69,127
5798,note_on,1,0,0,,11,,,70,127
6039,note_off,241,0,0,,0,,,72,127
6040,note_on,1,0,0,,2,,,74,127
6281,note_off,241,0,0,,2,,,74,127
6281,note_off,0,0,0,,11,,,70,127
6282,note_on,1,0,0,,11,,,70,127
6282,note_on,0,0,0,,2,,,74,127
6362,note_off,80,0,0,,2,,,74,127
6362,note_off,0,0,0,,11,,,70,127
6363,note_on,1,0,0,,0,,,72,127
6363,note_on,0,0,0,,3,,,75,127
6443,note_off,80,0,0,,3,,,75,127
6443,note_off,0,0,0,,0,,,72,127
6444,note_on,1,0,0,,2,,,74,127
6444,note_on,0,0,0,,5,,,77,127
6524,note_off,80,0,0,,5,,,77,127
6524,note_off,0,0,0,,2,,,74,127
6525,note_on,1,0,0,,2,,,74,127
6525,note_on,0,0,0,,5,,,77,127
6768,note_on,243,0,0,,5,,,65,127
7009,note_off,241,0,0,,5,,,77,127
7009,note_off,0,0,0,,2,,,74,127
7010,note_on,1,0,0,,3,,,75,127
7010,note_on,0,0,0,,0,,,72,127
7251,note_off,241,0,0,,0,,,72,127
7251,note_off,0,0,0,,3,,,75,127
7251,note_off,0,0,0,,5,,,65,127
7252,note_on,1,0,0,,0,,,72,127
7252,note_on,0,0,0,,3,,,75,127
7252,note_on,0,0,0,,5,,,65,127
7332,note_off,80,0,0,,3,,,75,127
7332,note_off,0,0,0,,0,,,72,127
7333,note_on,1,0,0,,11,,,70,127
7333,note_on,0,0,0,,2,,,74,127
7413,note_off,80,0,0,,2,,,74,127
7413,note_off,0,0,0,,11,,,70,127
7414,note_on,1,0,0,,10,,,69,127
7414,note_on,0,0,0,,0,,,72,127
7494,note_off,80,0,0,,0,,,72,127
7494,note_off,0,0,0,,10,,,69,127
7495,note_on,1,0,0,,10,,,69,127
7495,note_on,0,0,0,,0,,,72,127
7736,note_off,241,0,0,,10,,,69,127
7737,note_on,1,0,0,,11,,,70,127
7978,note_off,241,0,0,,0,,,72,127
7979,note_on,1,0,0,,2,,,74,127
8220,note_off,241,0,0,,2,,,74,127
8220,note_off,0,0,0,,11,,,70,127
8221,note_on,1,0,0,,11,,,70,127
8221,note_on,0,0,0,,2,,,74,127
8301,note_off,80,0,0,,2,,,74,127
8301,note_off,0,0,0,,11,,,70,127
8302,note_on,1,0,0,,0,,,72,127
8302,note_on,0,0,0,,3,,,75,127
8382,note_off,80,0,0,,3,,,75,127
8382,note_off,0,0,0,,0,,,72,127
8383,note_on,1,0,0,,2,,,74,127
8383,note_on,0,0,0,,5,,,77,127
8463,note_off,80,0,0,,5,,,77,127
8463,note_off,0,0,0,,2,,,74,127
8464,note_on,1,0,0,,2,,,74,127
8464,note_on,0,0,0,,5,,,77,127
8705,note_off,241,0,0,,5,,,65,127
8706,note_on,1,0,0,,5,,,65,127
8947,note_off,241,0,0,,5,,,77,127
8947,note_off,0,0,0,,2,,,74,127
8948,note_on,1,0,0,,3,,,75,127
8948,note_on,0,0,0,,0,,,72,127
9189,note_off,241,0,0,,0,,,72,127
9189,note_off,0,0,0,,3,,,75,127
9189,note_off,0,0,0,,5,,,65,127
9190,note_on,1,0,0,,0,,,72,127
9190,note_on,0,0,0,,3,,,75,127
9190,note_on,0,0,0,,5,,,65,127
9270,note_off,80,0,0,,3,,,75,127
9270,note_off,0,0,0,,0,,,72,127
9271,note_on,1,0,0,,11,,,70,127
9271,note_on,0,0,0,,2,,,74,127
9351,note_off,80,0,0,,2,,,74,127
9351,note_off,0,0,0,,11,,,70,127
9352,note_on,1,0,0,,10,,,69,127
9352,note_on,0,0,0,,0,,,72,127
9432,note_off,80,0,0,,0,,,72,127
9432,note_off,0,0,0,,10,,,69,127
9433,note_on,1,0,0,,10,,,69,127
9433,note_on,0,0,0,,0,,,72,127
9674,note_off,241,0,0,,10,,,69,127
9675,note_on,1,0,0,,11,,,70,127
9916,note_off,241,0,0,,0,,,72,127
9917,note_on,1,0,0,,2,,,74,127
10158,note_off,241,0,0,,2,,,74,127
10158,note_off,0,0,0,,11,,,70,127
10158,note_off,0,0,0,,5,,,65,127
10159,note_on,1,0,0,,2,,,74,127
10159,note_on,0,0,0,,11,,,70,127
10279,note_off,120,0,0,,11,,,70,127
10279,note_off,0,0,0,,2,,,74,127
10280,note_on,1,0,0,,2,,,74,127
10400,note_off,120,0,0,,2,,,74,127
10401,note_on,1,0,0,,11,,,82,127
10401,note_on,0,0,0,,7,,,67,127
10521,note_off,120,0,0,,7,,,67,127
10522,note_on,1,0,0,,11,,,70,127
10642,note_off,120,0,0,,11,,,70,127
10643,note_on,1,0,0,,4,,,64,127
10763,note_off,120,0,0,,4,,,64,127
10764,note_on,1,0,0,,7,,,67,127
10884,note_off,120,0,0,,7,,,67,127
10884,note_off,0,0,0,,11,,,82,127
10885,note_on,1,0,0,,11,,,70,127
10885,note_on,0,0,0,,0,,,60,127
11005,note_off,120,0,0,,0,,,60,127
11006,note_on,1,0,0,,7,,,67,127
11126,note_off,120,0,0,,7,,,67,127
11126,note_off,0,0,0,,11,,,70,127
11127,note_on,1,0,0,,0,,,72,127
11127,note_on,0,0,0,,10,,,69,127
11247,note_off,120,0,0,,10,,,69,127
11247,note_off,0,0,0,,0,,,72,127
11248,note_on,1,0,0,,0,,,72,127
11368,note_off,120,0,0,,0,,,72,127
11369,note_on,1,0,0,,10,,,81,127
11369,note_on,0,0,0,,5,,,65,127
11489,note_off,120,0,0,,5,,,65,127
11490,note_on,1,0,0,,10,,,69,127
11610,note_off,120,0,0,,10,,,69,127
11611,note_on,1,0,0,,2,,,62,127
11731,note_off,120,0,0,,2,,,62,127
11732,note_on,1,0,0,,5,,,65,127
11852,note_off,120,0,0,,5,,,65,127
11852,note_off,0,0,0,,10,,,81,127
11853,note_on,1,0,0,,10,,,69,127
11853,note_on,0,0,0,,11,,,58,127
11973,note_off,120,0,0,,11,,,58,127
11974,note_on,1,0,0,,2,,,62,127
12094,note_off,120,0,0,,2,,,62,127
12094,note_off,0,0,0,,10,,,69,127
12095,note_on,1,0,0,,11,,,70,127
12095,note_on,0,0,0,,7,,,55,127
12215,note_off,120,0,0,,7,,,55,127
12216,note_on,1,0,0,,11,,,58,127
12336,note_off,120,0,0,,11,,,58,127
12336,note_off,0,0,0,,11,,,70,127
12337,note_on,1,0,0,,7,,,79,127
12337,note_on,0,0,0,,4,,,52,127
12457,note_off,120,0,0,,4,,,52,127
12458,note_on,1,0,0,,7,,,55,127
12578,note_off,120,0,0,,7,,,55,127
12579,note_on,1,0,0,,0,,,48,127
12699,note_off,120,0,0,,0,,,48,127
12700,note_on,1,0,0,,4,,,52,127
12820,note_off,120,0,0,,4,,,52,127
12820,note_off,0,0,0,,7,,,79,127
12821,note_on,1,0,0,,11,,,70,127
12821,note_on,0,0,0,,0,,,36,127
12941,note_off,120,0,0,,0,,,36,127
12942,note_on,1,0,0,,0,,,48,127
13062,note_off,120,0,0,,0,,,48,127
13062,note_off,0,0,0,,11,,,70,127
13063,note_on,1,0,0,,11,,,70,127
13063,note_on,0,0,0,,0,,,72,127
13063,note_on,0,0,0,,5,,,41,127
13143,note_off,80,0,0,,0,,,72,127
13143,note_off,0,0,0,,11,,,70,127
13144,note_on,1,0,0,,10,,,69,127
13224,note_off,80,0,0,,10,,,69,127
13225,note_on,1,0,0,,7,,,67,127
13305,note_off,80,0,0,,7,,,67,127
13305,note_off,0,0,0,,5,,,41,127
13306,note_on,1,0,0,,7,,,67,127
13306,note_on,0,0,0,,0,,,48,127
13547,note_off,241,0,0,,0,,,48,127
13548,note_on,1,0,0,,5,,,53,127
13789,note_off,241,0,0,,7,,,67,127
13790,note_on,1,0,0,,10,,,69,127
14031,note_off,241,0,0,,10,,,69,127
14031,note_off,0,0,0,,5,,,53,127
14032,note_on,1,0,0,,2,,,74,127
14032,note_on,0,0,0,,11,,,70,127
14152,note_off,120,0,0,,11,,,70,127
14152,note_off,0,0,0,,2,,,74,127
14153,note_on,1,0,0,,2,,,74,127
14273,note_off,120,0,0,,2,,,74,127
14274,note_on,1,0,0,,11,,,82,127
14274,note_on,0,0,0,,7,,,67,127
14394,note_off,120,0,0,,7,,,67,127
14395,note_on,1,0,0,,11,,,70,127
14515,note_off,120,0,0,,11,,,70,127
14516,note_on,1,0,0,,4,,,64,127
14636,note_off,120,0,0,,4,,,64,127
14637,note_on,1,0,0,,7,,,67,127
14757,note_off,120,0,0,,7,,,67,127
14757,note_off,0,0,0,,11,,,82,127
14758,note_on,1,0,0,,11,,,70,127
14758,note_on,0,0,0,,0,,,60,127
14878,note_off,120,0,0,,0,,,60,127
14879,note_on,1,0,0,,7,,,67,127
14999,note_off,120,0,0,,7,,,67,127
14999,note_off,0,0,0,,11,,,70,127
15000,note_on,1,0,0,,0,,,72,127
15000,note_on,0,0,0,,10,,,69,127
15120,note_off,120,0,0,,10,,,69,127
15120,note_off,0,0,0,,0,,,72,127
15121,note_on,1,0,0,,0,,,72,127
15241,note_off,120,0,0,,0,,,72,127
15242,note_on,1,0,0,,10,,,81,127
15242,note_on,0,0,0,,5,,,65,127
15362,note_off,120,0,0,,5,,,65,127
15363,note_on,1,0,0,,10,,,69,127
15483,note_off,120,0,0,,10,,,69,127
15484,note_on,1,0,0,,2,,,62,127
15604,note_off,120,0,0,,2,,,62,127
15605,note_on,1,0,0,,5,,,65,127
15725,note_off,120,0,0,,5,,,65,127
15725,note_off,0,0,0,,10,,,81,127
15726,note_on,1,0,0,,10,,,69,127
15726,note_on,0,0,0,,11,,,58,127
15846,note_off,120,0,0,,11,,,58,127
15847,note_on,1,0,0,,2,,,62,127
15967,note_off,120,0,0,,2,,,62,127
15967,note_off,0,0,0,,10,,,69,127
15968,note_on,1,0,0,,11,,,70,127
15968,note_on,0,0,0,,7,,,55,127
16088,note_off,120,0,0,,7,,,55,127
16089,note_on,1,0,0,,11,,,58,127
16209,note_off,120,0,0,,11,,,58,127
16209,note_off,0,0,0,,11,,,70,127
16210,note_on,1,0,0,,7,,,79,127
16210,note_on,0,0,0,,4,,,52,127
16330,note_off,120,0,0,,4,,,52,127
16331,note_on,1,0,0,,7,,,55,127
16451,note_off,120,0,0,,7,,,55,127
16452,note_on,1,0,0,,0,,,48,127
16572,note_off,120,0,0,,0,,,48,127
16573,note_on,1,0,0,,4,,,52,127
16693,note_off,120,0,0,,4,,,52,127
16693,note_off,0,0,0,,7,,,79,127
16694,note_on,1,0,0,,11,,,70,127
16694,note_on,0,0,0,,0,,,36,127
16814,note_off,120,0,0,,0,,,36,127
16815,note_on,1,0,0,,0,,,48,127
16935,note_off,120,0,0,,0,,,48,127
16935,note_off,0,0,0,,11,,,70,127
16936,note_on,1,0,0,,0,,,72,127
16936,note_on,0,0,0,,11,,,70,127
16936,note_on,0,0,0,,5,,,41,127
17016,note_off,80,0,0,,11,,,70,127
17016,note_off,0,0,0,,0,,,72,127
17017,note_on,1,0,0,,10,,,69,127
17097,note_off,80,0,0,,10,,,69,127
17098,note_on,1,0,0,,7,,,67,127
17178,note_off,80,0,0,,7,,,67,127
17178,note_off,0,0,0,,5,,,41,127
17179,note_on,1,0,0,,7,,,67,127
17179,note_on,0,0,0,,0,,,48,127
17420,note_off,241,0,0,,0,,,48,127
17421,note_on,1,0,0,,5,,,53,127
17662,note_off,241,0,0,,7,,,67,127
17663,note_on,1,0,0,,10,,,69,127
17904,note_off,241,0,0,,10,,,69,127
17904,note_off,0,0,0,,5,,,53,127
17905,note_on,1,0,0,,0,,,60,127
17905,note_on,0,0,0,,4,,,64,127
17985,note_off,80,0,0,,4,,,64,127
17985,note_off,0,0,0,,0,,,60,127
17986,note_on,1,0,0,,2,,,62,127
17986,note_on,0,0,0,,5,,,65,127
18066,note_off,80,0,0,,5,,,65,127
18066,note_off,0,0,0,,2,,,62,127
18067,note_on,1,0,0,,4,,,64,127
18067,note_on,0,0,0,,7,,,67,127
18147,note_off,80,0,0,,7,,,67,127
18147,note_off,0,0,0,,4,,,64,127
18148,note_on,1,0,0,,5,,,65,127
18148,note_on,0,0,0,,10,,,69,127
18228,note_off,80,0,0,,10,,,69,127
18228,note_off,0,0,0,,5,,,65,127
18229,note_on,1,0,0,,7,,,67,127
18229,note_on,0,0,0,,11,,,70,127
18309,note_off,80,0,0,,11,,,70,127
18309,note_off,0,0,0,,7,,,67,127
18310,note_on,1,0,0,,10,,,69,127
18310,note_on,0,0,0,,0,,,72,127
18390,note_off,80,0,0,,0,,,72,127
18390,note_off,0,0,0,,10,,,69,127
18391,note_on,1,0,0,,2,,,74,127
18391,note_on,0,0,0,,11,,,70,127
18391,note_on,0,0,0,,0,,,60,127
18632,note_off,241,0,0,,11,,,70,127
18632,note_off,0,0,0,,2,,,74,127
18633,note_on,1,0,0,,0,,,72,127
18633,note_on,0,0,0,,10,,,69,127
18874,note_off,241,0,0,,10,,,69,127
18874,note_off,0,0,0,,0,,,72,127
18874,note_off,0,0,0,,0,,,60,127
18875,note_on,1,0,0,,10,,,69,127
18875,note_on,0,0,0,,0,,,72,127
18875,note_on,0,0,0,,0,,,60,127
18955,note_off,80,0,0,,0,,,72,127
18955,note_off,0,0,0,,10,,,69,127
18956,note_on,1,0,0,,7,,,67,127
18956,note_on,0,0,0,,11,,,70,127
19036,note_off,80,0,0,,11,,,70,127
19036,note_off,0,0,0,,7,,,67,127
19037,note_on,1,0,0,,5,,,65,127
19037,note_on,0,0,0,,10,,,69,127
19117,note_off,80,0,0,,10,,,69,127
19117,note_off,0,0,0,,5,,,65,127
19118,note_on,1,0,0,,5,,,65,127
19118,note_on,0,0,0,,10,,,69,127
19359,note_off,241,0,0,,5,,,65,127
19360,note_on,1,0,0,,7,,,67,127
19601,note_off,241,0,0,,10,,,69,127
19602,note_on,1,0,0,,11,,,70,127
19843,note_off,241,0,0,,11,,,70,127
19843,note_off,0,0,0,,7,,,67,127
19844,note_on,1,0,0,,10,,,69,127
19844,note_on,0,0,0,,0,,,72,127
19924,note_off,80,0,0,,0,,,72,127
19924,note_off,0,0,0,,10,,,69,127
19925,note_on,1,0,0,,11,,,70,127
19925,note_on,0,0,0,,2,,,74,127
20005,note_off,80,0,0,,2,,,74,127
20005,note_off,0,0,0,,11,,,70,127
20006,note_on,1,0,0,,0,,,72,127
20006,note_on,0,0,0,,4,,,76,127
20086,note_off,80,0,0,,4,,,76,127
20086,note_off,0,0,0,,0,,,72,127
20087,note_on,1,0,0,,2,,,74,127
20087,note_on,0,0,0,,5,,,77,127
20167,note_off,80,0,0,,5,,,77,127
20167,note_off,0,0,0,,2,,,74,127
20168,note_on,1,0,0,,4,,,76,127
20168,note_on,0,0,0,,7,,,79,127
20248,note_off,80,0,0,,7,,,79,127
20248,note_off,0,0,0,,4,,,76,127
20249,note_on,1,0,0,,5,,,77,127
20249,note_on,0,0,0,,10,,,81,127
20329,note_off,80,0,0,,10,,,81,127
20329,note_off,0,0,0,,5,,,77,127
20329,note_off,0,0,0,,0,,,60,127
20330,note_on,1,0,0,,7,,,79,127
20330,note_on,0,0,0,,11,,,82,127
20330,note_on,0,0,0,,0,,,72,127
20532,note_off,202,0,0,,7,,,79,127
20571,note_off,39,0,0,,11,,,82,127
20572,note_on,1,0,0,,5,,,77,127
20572,note_on,0,0,0,,10,,,81,127
20754,note_off,182,0,0,,10,,,81,127
20813,note_off,59,0,0,,5,,,77,127
20813,note_off,0,0,0,,0,,,72,127
20814,note_on,1,0,0,,5,,,77,127
20814,note_on,0,0,0,,10,,,81,127
20814,note_on,0,0,0,,0,,,72,127
20894,note_off,80,0,0,,10,,,81,127
20894,note_off,0,0,0,,5,,,77,127
20895,note_on,1,0,0,,4,,,76,127
20895,note_on,0,0,0,,7,,,79,127
20975,note_off,80,0,0,,7,,,79,127
20975,note_off,0,0,0,,4,,,76,127
20976,note_on,1,0,0,,2,,,74,127
20976,note_on,0,0,0,,5,,,77,127
21056,note_off,80,0,0,,5,,,77,127
21056,note_off,0,0,0,,2,,,74,127
21057,note_on,1,0,0,,2,,,74,127
21057,note_on,0,0,0,,5,,,77,127
21298,note_off,241,0,0,,0,,,72,127
21299,note_on,1,0,0,,0,,,72,127
21540,note_off,241,0,0,,5,,,77,127
21540,note_off,0,0,0,,2,,,74,127
21541,note_on,1,0,0,,7,,,79,127
21782,note_off,241,0,0,,7,,,79,127
21783,note_on,1,0,0,,0,,,60,127
21783,note_on,0,0,0,,4,,,64,127
21863,note_off,80,0,0,,4,,,64,127
21863,note_off,0,0,0,,0,,,60,127
21864,note_on,1,0,0,,2,,,62,127
21864,note_on,0,0,0,,5,,,65,127
21944,note_off,80,0,0,,5,,,65,127
21944,note_off,0,0,0,,2,,,62,127
21945,note_on,1,0,0,,4,,,64,127
21945,note_on,0,0,0,,7,,,67,127
22025,note_off,80,0,0,,7,,,67,127
22025,note_off,0,0,0,,4,,,64,127
22025,note_off,0,0,0,,0,,,72,127
22026,note_on,1,0,0,,5,,,65,127
22026,note_on,0,0,0,,10,,,69,127
22106,note_off,80,0,0,,10,,,69,127
22106,note_off,0,0,0,,5,,,65,127
22107,note_on,1,0,0,,7,,,67,127
22107,note_on,0,0,0,,11,,,70,127
22187,note_off,80,0,0,,11,,,70,127
22187,note_off,0,0,0,,7,,,67,127
22188,note_on,1,0,0,,10,,,69,127
22188,note_on,0,0,0,,0,,,72,127
22268,note_off,80,0,0,,0,,,72,127
22268,note_off,0,0,0,,10,,,69,127
22269,note_on,1,0,0,,11,,,70,127
22269,note_on,0,0,0,,2,,,74,127
22269,note_on,0,0,0,,0,,,60,127
22510,note_off,241,0,0,,2,,,74,127
22510,note_off,0,0,0,,11,,,70,127
22511,note_on,1,0,0,,10,,,69,127
22511,note_on,0,0,0,,0,,,72,127
22752,note_off,241,0,0,,0,,,72,127
22752,note_off,0,0,0,,10,,,69,127
22752,note_off,0,0,0,,0,,,60,127
22753,note_on,1,0,0,,10,,,69,127
22753,note_on,0,0,0,,0,,,72,127
22753,note_on,0,0,0,,0,,,60,127
22833,note_off,80,0,0,,0,,,72,127
22833,note_off,0,0,0,,10,,,69,127
22834,note_on,1,0,0,,11,,,70,127
22834,note_on,0,0,0,,7,,,67,127
22914,note_off,80,0,0,,7,,,67,127
22914,note_off,0,0,0,,11,,,70,127
22915,note_on,1,0,0,,5,,,65,127
22915,note_on,0,0,0,,10,,,69,127
22995,note_off,80,0,0,,10,,,69,127
22995,note_off,0,0,0,,5,,,65,127
22996,note_on,1,0,0,,5,,,65,127
22996,note_on,0,0,0,,10,,,69,127
23237,note_off,241,0,0,,5,,,65,127
23238,note_on,1,0,0,,7,,,67,127
23479,note_off,241,0,0,,10,,,69,127
23480,note_on,1,0,0,,11,,,70,127
23721,note_off,241,0,0,,11,,,70,127
23721,note_off,0,0,0,,7,,,67,127
23722,note_on,1,0,0,,10,,,69,127
23722,note_on,0,0,0,,0,,,72,127
23802,note_off,80,0,0,,0,,,72,127
23802,note_off,0,0,0,,10,,,69,127
23803,note_on,1,0,0,,11,,,70,127
23803,note_on,0,0,0,,2,,,74,127
23883,note_off,80,0,0,,2,,,74,127
23883,note_off,0,0,0,,11,,,70,127
23884,note_on,1,0,0,,0,,,72,127
23884,note_on,0,0,0,,4,,,76,127
23964,note_off,80,0,0,,4,,,76,127
23964,note_off,0,0,0,,0,,,72,127
23965,note_on,1,0,0,,2,,,74,127
23965,note_on,0,0,0,,5,,,77,127
24045,note_off,80,0,0,,5,,,77,127
24045,note_off,0,0,0,,2,,,74,127
24046,note_on,1,0,0,,4,,,76,127
24046,note_on,0,0,0,,7,,,79,127
24126,note_off,80,0,0,,7,,,79,127
24126,note_off,0,0,0,,4,,,76,127
24127,note_on,1,0,0,,5,,,77,127
24127,note_on,0,0,0,,10,,,81,127
24207,note_off,80,0,0,,10,,,81,127
24207,note_off,0,0,0,,5,,,77,127
24207,note_off,0,0,0,,0,,,60,127
24208,note_on,1,0,0,,7,,,79,127
24208,note_on,0,0,0,,11,,,82,127
24208,note_on,0,0,0,,0,,,72,127
24410,note_off,202,0,0,,7,,,79,127
24449,note_off,39,0,0,,11,,,82,127
24450,note_on,1,0,0,,5,,,77,127
24450,note_on,0,0,0,,10,,,81,127
24632,note_off,182,0,0,,10,,,81,127
24691,note_off,59,0,0,,5,,,77,127
24691,note_off,0,0,0,,0,,,72,127
24692,note_on,1,0,0,,5,,,77,127
24692,note_on,0,0,0,,10,,,81,127
24692,note_on,0,0,0,,0,,,72,127
24772,note_off,80,0,0,,10,,,81,127
24772,note_off,0,0,0,,5,,,77,127
24773,note_on,1,0,0,,4,,,76,127
24773,note_on,0,0,0,,7,,,79,127
24853,note_off,80,0,0,,7,,,79,127
24853,note_off,0,0,0,,4,,,76,127
24854,note_on,1,0,0,,2,,,74,127
24854,note_on,0,0,0,,5,,,77,127
24934,note_off,80,0,0,,5,,,77,127
24934,note_off,0,0,0,,2,,,74,127
24935,note_on,1,0,0,,2,,,74,127
24935,note_on,0,0,0,,5,,,77,127
25176,note_off,241,0,0,,0,,,72,127
25177,note_on,1,0,0,,0,,,72,127
25418,note_off,241,0,0,,5,,,77,127
25418,note_off,0,0,0,,2,,,74,127
25419,note_on,1,0,0,,7,,,79,127
25660,note_off,241,0,0,,7,,,79,127
25660,note_off,0,0,0,,0,,,72,127
25661,note_on,1,0,0,,10,,,81,127
25661,note_on,0,0,0,,5,,,77,127
25781,note_off,120,0,0,,5,,,77,127
25781,note_off,0,0,0,,10,,,81,127
25782,note_on,1,0,0,,5,,,77,127
25902,note_off,120,0,0,,5,,,77,127
25903,note_on,1,0,0,,0,,,84,127
25903,note_on,0,0,0,,4,,,76,127
26023,note_off,120,0,0,,0,,,84,127
26024,note_on,1,0,0,,0,,,72,127
26144,note_off,120,0,0,,0,,,72,127
26144,note_off,0,0,0,,4,,,76,127
26145,note_on,1,0,0,,5,,,77,127
26145,note_on,0,0,0,,2,,,74,127
26265,note_off,120,0,0,,2,,,74,127
26265,note_off,0,0,0,,5,,,77,127
26266,note_on,1,0,0,,2,,,74,127
26386,note_off,120,0,0,,2,,,74,127
26387,note_on,1,0,0,,10,,,81,127
26387,note_on,0,0,0,,0,,,72,127
26507,note_off,120,0,0,,10,,,81,127
26508,note_on,1,0,0,,10,,,69,127
26628,note_off,120,0,0,,10,,,69,127
26628,note_off,0,0,0,,0,,,72,127
26629,note_on,1,0,0,,2,,,74,127
26629,note_on,0,0,0,,11,,,70,127
26749,note_off,120,0,0,,11,,,70,127
26749,note_off,0,0,0,,2,,,74,127
26750,note_on,1,0,0,,11,,,70,127
26870,note_off,120,0,0,,11,,,70,127
26871,note_on,1,0,0,,5,,,77,127
26871,note_on,0,0,0,,10,,,69,127
26991,note_off,120,0,0,,5,,,77,127
26992,note_on,1,0,0,,5,,,65,127
27112,note_off,120,0,0,,5,,,65,127
27112,note_off,0,0,0,,10,,,69,127
27113,note_on,1,0,0,,11,,,70,127
27113,note_on,0,0,0,,7,,,67,127
27233,note_off,120,0,0,,7,,,67,127
27233,note_off,0,0,0,,11,,,70,127
27234,note_on,1,0,0,,7,,,67,127
27354,note_off,120,0,0,,7,,,67,127
27355,note_on,1,0,0,,5,,,77,127
27355,note_on,0,0,0,,5,,,65,127
27475,note_off,120,0,0,,5,,,65,127
27475,note_off,0,0,0,,5,,,77,127
27476,note_on,1,0,0,,5,,,65,127
27596,note_off,120,0,0,,5,,,65,127
27597,note_on,1,0,0,,7,,,67,127
27597,note_on,0,0,0,,4,,,64,127
27717,note_off,120,0,0,,4,,,64,127
27718,note_on,1,0,0,,0,,,60,127
27838,note_off,120,0,0,,0,,,60,127
27838,note_off,0,0,0,,7,,,67,127
27839,note_on,1,0,0,,10,,,69,127
27839,note_on,0,0,0,,5,,,65,127
27959,note_off,120,0,0,,5,,,65,127
27959,note_off,0,0,0,,10,,,69,127
27960,note_on,1,0,0,,11,,,70,127
27960,note_on,0,0,0,,11,,,58,127
28080,note_off,120,0,0,,11,,,58,127
28080,note_off,0,0,0,,11,,,70,127
28081,note_on,1,0,0,,10,,,69,127
28081,note_on,0,0,0,,0,,,60,127
28081,note_on,0,0,0,,5,,,65,127
28322,note_off,241,0,0,,5,,,65,127
28322,note_off,0,0,0,,10,,,69,127
28323,note_on,1,0,0,,7,,,67,127
28323,note_on,0,0,0,,4,,,64,127
28564,note_off,241,0,0,,4,,,64,127
28564,note_off,0,0,0,,7,,,67,127
28564,note_off,0,0,0,,0,,,60,127
28565,note_on,1,0,0,,10,,,69,127
28565,note_on,0,0,0,,5,,,65,127
28685,note_off,120,0,0,,5,,,65,127
28685,note_off,0,0,0,,10,,,69,127
28686,note_on,1,0,0,,5,,,65,127
28806,note_off,120,0,0,,5,,,65,127
28807,note_on,1,0,0,,0,,,72,127
28807,note_on,0,0,0,,4,,,64,127
28927,note_off,120,0,0,,0,,,72,127
28928,note_on,1,0,0,,0,,,60,127
29048,note_off,120,0,0,,0,,,60,127
29048,note_off,0,0,0,,4,,,64,127
29049,note_on,1,0,0,,5,,,65,127
29049,note_on,0,0,0,,2,,,62,127
29169,note_off,120,0,0,,2,,,62,127
29169,note_off,0,0,0,,5,,,65,127
29170,note_on,1,0,0,,2,,,62,127
29290,note_off,120,0,0,,2,,,62,127
29291,note_on,1,0,0,,10,,,69,127
29291,note_on,0,0,0,,0,,,60,127
29411,note_off,120,0,0,,10,,,69,127
29412,note_on,1,0,0,,10,,,57,127
29532,note_off,120,0,0,,10,,,57,127
29532,note_off,0,0,0,,0,,,60,127
29533,note_on,1,0,0,,2,,,62,127
29533,note_on,0,0,0,,11,,,58,127
29653,note_off,120,0,0,,11,,,58,127
29653,note_off,0,0,0,,2,,,62,127
29654,note_on,1,0,0,,11,,,58,127
29774,note_off,120,0,0,,11,,,58,127
29775,note_on,1,0,0,,5,,,65,127
29775,note_on,0,0,0,,10,,,57,127
29895,note_off,120,0,0,,5,,,65,127
29896,note_on,1,0,0,,5,,,53,127
30016,note_off,120,0,0,,5,,,53,127
30016,note_off,0,0,0,,10,,,57,127
30017,note_on,1,0,0,,11,,,58,127
30017,note_on,0,0,0,,7,,,55,127
30137,note_off,120,0,0,,7,,,55,127
30137,note_off,0,0,0,,11,,,58,127
30138,note_on,1,0,0,,7,,,55,127
30258,note_off,120,0,0,,7,,,55,127
30259,note_on,1,0,0,,5,,,65,127
30259,note_on,0,0,0,,5,,,53,127
30379,note_off,120,0,0,,5,,,53,127
30379,note_off,0,0,0,,5,,,65,127
30380,note_on,1,0,0,,5,,,53,127
30500,note_off,120,0,0,,5,,,53,127
30501,note_on,1,0,0,,7,,,55,127
30501,note_on,0,0,0,,4,,,52,127
30742,note_off,241,0,0,,4,,,52,127
30742,note_off,0,0,0,,7,,,55,127
30743,note_on,1,0,0,,10,,,57,127
30743,note_on,0,0,0,,0,,,48,127
30743,note_on,0,0,0,,5,,,53,127
30863,note_off,120,0,0,,5,,,53,127
30863,note_off,0,0,0,,0,,,48,127
30863,note_off,0,0,0,,10,,,57,127
30864,note_on,1,0,0,,11,,,58,127
30864,note_on,0,0,0,,11,,,46,127
30984,note_off,120,0,0,,11,,,46,127
30984,note_off,0,0,0,,11,,,58,127
30985,note_on,1,0,0,,10,,,57,127
30985,note_on,0,0,0,,5,,,53,127
30985,note_on,0,0,0,,0,,,48,127
31226,note_off,241,0,0,,5,,,53,127
31226,note_off,0,0,0,,10,,,57,127
31227,note_on,1,0,0,,7,,,55,127
31227,note_on,0,0,0,,4,,,52,127
31468,note_off,241,0,0,,4,,,52,127
31468,note_off,0,0,0,,7,,,55,127
31468,note_off,0,0,0,,0,,,48,127
31469,note_on,1,0,0,,10,,,57,127
31469,note_on,0,0,0,,5,,,41,127
31589,note_off,120,0,0,,10,,,57,127
31590,note_on,1,0,0,,5,,,53,127
31710,note_off,120,0,0,,5,,,53,127
31711,note_on,1,0,0,,10,,,57,127
31831,note_off,120,0,0,,10,,,57,127
31832,note_on,1,0,0,,0,,,60,127
31952,note_off,120,0,0,,0,,,60,127
31952,note_off,0,0,0,,5,,,41,127
31953,note_on,1,0,0,,5,,,65,127
31953,note_on,0,0,0,,5,,,41,127
32073,note_off,120,0,0,,5,,,65,127
32074,note_on,1,0,0,,0,,,60,127
32194,note_off,120,0,0,,0,,,60,127
32195,note_on,1,0,0,,5,,,65,127
32315,note_off,120,0,0,,5,,,65,127
32316,note_on,1,0,0,,10,,,69,127
32436,note_off,120,0,0,,10,,,69,127
32436,note_off,0,0,0,,5,,,41,127
32437,note_on,1,0,0,,7,,,79,127
32437,note_on,0,0,0,,5,,,41,127
32466,note_off,29,0,0,,7,,,79,127
32467,note_on,1,0,0,,5,,,77,127
32496,note_off,29,0,0,,5,,,77,127
32497,note_on,1,0,0,,7,,,79,127
32526,note_off,29,0,0,,7,,,79,127
32527,note_on,1,0,0,,5,,,77,127
33041,note_off,514,0,0,,5,,,77,127
33042,note_on,1,0,0,,0,,,72,127
33162,note_off,120,0,0,,0,,,72,127
33162,note_off,0,0,0,,5,,,41,127
33163,note_on,1,0,0,,2,,,74,127
33283,note_off,120,0,0,,2,,,74,127
33284,note_on,1,0,0,,4,,,76,127
33404,note_off,120,0,0,,4,,,76,127
33405,note_on,1,0,0,,5,,,77,127
33525,note_off,120,0,0,,5,,,77,127
33526,note_on,1,0,0,,0,,,72,127
33646,note_off,120,0,0,,0,,,72,127
33647,note_on,1,0,0,,10,,,69,127
33767,note_off,120,0,0,,10,,,69,127
33768,note_on,1,0,0,,5,,,65,127
33888,note_off,120,0,0,,5,,,65,127
33889,note_on,1,0,0,,0,,,60,127
34009,note_off,120,0,0,,0,,,60,127
34010,note_on,1,0,0,,10,,,57,127
34130,note_off,120,0,0,,10,,,57,127
34131,note_on,1,0,0,,5,,,53,127
34251,note_off,120,0,0,,5,,,53,127
34252,note_on,1,0,0,,0,,,48,127
34372,note_off,120,0,0,,0,,,48,127
34373,note_on,1,0,0,,5,,,41,127
34616,note_on,243,0,0,,0,,,72,127
34857,note_off,241,0,0,,0,,,72,127
34857,note_off,0,0,0,,5,,,41,127
34858,note_on,1,0,0,,7,,,67,127
34917,note_off,59,0,0,,7,,,67,127
34918,note_on,1,0,0,,5,,,65,127
34977,note_off,59,0,0,,5,,,65,127
34978,note_on,1,0,0,,7,,,67,127
35037,note_off,59,0,0,,7,,,67,127
35038,note_on,1,0,0,,5,,,65,127
35097,note_off,59,0,0,,5,,,65,127
35098,note_on,1,0,0,,7,,,67,127
35098,note_on,0,0,0,,0,,,60,127
35098,note_on,0,0,0,,10,,,57,127
35157,note_off,59,0,0,,7,,,67,127
35158,note_on,1,0,0,,5,,,65,127
35217,note_off,59,0,0,,5,,,65,127
35218,note_on,1,0,0,,4,,,64,127
35277,note_off,59,0,0,,4,,,64,127
35278,note_on,1,0,0,,5,,,65,127
35337,note_off,59,0,0,,5,,,65,127
35337,note_off,0,0,0,,10,,,57,127
35337,note_off,0,0,0,,0,,,60,127
35338,note_on,1,0,0,,2,,,74,127
35338,note_on,0,0,0,,11,,,58,127
35338,note_on,0,0,0,,2,,,62,127
35579,note_off,241,0,0,,2,,,62,127
35579,note_off,0,0,0,,11,,,58,127
35579,note_off,0,0,0,,2,,,74,127
35580,note_on,1,0,0,,5,,,65,127
35580,note_on,0,0,0,,2,,,62,127
35580,note_on,0,0,0,,11,,,58,127
35821,note_off,241,0,0,,5,,,65,127
35822,note_on,1,0,0,,7,,,67,127
35881,note_off,59,0,0,,7,,,67,127
35882,note_on,1,0,0,,5,,,65,127
35941,note_off,59,0,0,,5,,,65,127
35942,note_off,1,0,0,,11,,,58,127
35942,note_off,0,0,0,,2,,,62,127
35942,note_on,0,0,0,,7,,,67,127
36001,note_off,59,0,0,,7,,,67,127
36002,note_on,1,0,0,,5,,,65,127
36061,note_off,59,0,0,,5,,,65,127
36062,note_on,1,0,0,,7,,,67,127
36062,note_on,0,0,0,,2,,,62,127
36062,note_on,0,0,0,,11,,,58,127
36121,note_off,59,0,0,,7,,,67,127
36122,note_on,1,0,0,,5,,,65,127
36181,note_off,59,0,0,,5,,,65,127
36182,note_on,1,0,0,,4,,,64,127
36241,note_off,59,0,0,,4,,,64,127
36242,note_on,1,0,0,,5,,,65,127
36301,note_off,59,0,0,,5,,,65,127
36301,note_off,0,0,0,,11,,,58,127
36301,note_off,0,0,0,,2,,,62,127
36302,note_on,1,0,0,,0,,,72,127
36302,note_on,0,0,0,,10,,,57,127
36302,note_on,0,0,0,,0,,,60,127
36543,note_off,241,0,0,,0,,,60,127
36543,note_off,0,0,0,,10,,,57,127
36543,note_off,0,0,0,,0,,,72,127
36544,note_on,1,0,0,,5,,,65,127
36544,note_on,0,0,0,,10,,,57,127
36544,note_on,0,0,0,,0,,,60,127
36785,note_off,241,0,0,,5,,,65,127
36786,note_on,1,0,0,,7,,,67,127
36845,note_off,59,0,0,,7,,,67,127
36846,note_on,1,0,0,,5,,,65,127
36905,note_off,59,0,0,,5,,,65,127
36906,note_off,1,0,0,,0,,,60,127
36906,note_off,0,0,0,,10,,,57,127
36906,note_on,0,0,0,,7,,,67,127
36965,note_off,59,0,0,,7,,,67,127
36966,note_on,1,0,0,,5,,,65,127
37025,note_off,59,0,0,,5,,,65,127
37026,note_on,1,0,0,,7,,,67,127
37026,note_on,0,0,0,,10,,,57,127
37026,note_on,0,0,0,,0,,,60,127
37085,note_off,59,0,0,,7,,,67,127
37086,note_on,1,0,0,,5,,,65,127
37145,note_off,59,0,0,,5,,,65,127
37146,note_on,1,0,0,,4,,,64,127
37205,note_off,59,0,0,,4,,,64,127
37206,note_on,1,0,0,,5,,,65,127
37265,note_off,59,0,0,,5,,,65,127
37265,note_off,0,0,0,,0,,,60,127
37265,note_off,0,0,0,,10,,,57,127
37266,note_on,1,0,0,,2,,,74,127
37266,note_on,0,0,0,,11,,,58,127
37266,note_on,0,0,0,,2,,,62,127
37386,note_off,120,0,0,,2,,,74,127
37387,note_on,1,0,0,,11,,,70,127
37507,note_off,120,0,0,,11,,,70,127
37507,note_off,0,0,0,,2,,,62,127
37507,note_off,0,0,0,,11,,,58,127
37508,note_on,1,0,0,,0,,,72,127
37508,note_on,0,0,0,,0,,,60,127
37508,note_on,0,0,0,,10,,,57,127
37628,note_off,120,0,0,,0,,,72,127
37629,note_on,1,0,0,,10,,,69,127
37749,note_off,120,0,0,,10,,,69,127
37749,note_off,0,0,0,,10,,,57,127
37749,note_off,0,0,0,,0,,,60,127
37750,note_on,1,0,0,,10,,,69,127
37750,note_on,0,0,0,,7,,,55,127
37750,note_on,0,0,0,,2,,,62,127
37991,note_off,241,0,0,,2,,,62,127
37991,note_off,0,0,0,,10,,,69,127
37992,note_on,1,0,0,,11,,,70,127
37992,note_on,0,0,0,,4,,,64,127
38233,note_off,241,0,0,,11,,,70,127
38233,note_off,0,0,0,,7,,,55,127
38234,note_on,1,0,0,,11,,,70,127
38234,note_on,0,0,0,,0,,,72,127
38234,note_on,0,0,0,,5,,,53,127
38314,note_off,80,0,0,,0,,,72,127
38314,note_off,0,0,0,,11,,,70,127
38315,note_on,1,0,0,,10,,,69,127
38395,note_off,80,0,0,,10,,,69,127
38396,note_on,1,0,0,,7,,,67,127
38476,note_off,80,0,0,,7,,,67,127
38476,note_off,0,0,0,,5,,,53,127
38477,note_on,1,0,0,,7,,,67,127
38477,note_on,0,0,0,,0,,,60,127
38718,note_off,241,0,0,,0,,,60,127
38718,note_off,0,0,0,,4,,,64,127
38719,note_on,1,0,0,,5,,,65,127
38960,note_off,241,0,0,,7,,,67,127
38961,note_on,1,0,0,,10,,,69,127
39202,note_off,241,0,0,,10,,,69,127
39202,note_off,0,0,0,,5,,,65,127
39203,note_on,1,0,0,,10,,,69,127
39203,note_on,0,0,0,,0,,,72,127
39283,note_off,80,0,0,,0,,,72,127
39283,note_off,0,0,0,,10,,,69,127
39284,note_on,1,0,0,,12,,,71,127
39284,note_on,0,0,0,,2,,,74,127
39364,note_off,80,0,0,,2,,,74,127
39364,note_off,0,0,0,,12,,,71,127
39365,note_on,1,0,0,,0,,,72,127
39365,note_on,0,0,0,,3,,,75,127
39445,note_off,80,0,0,,3,,,75,127
39445,note_off,0,0,0,,0,,,72,127
39446,note_on,1,0,0,,2,,,74,127
39446,note_on,0,0,0,,5,,,77,127
39689,note_on,243,0,0,,7,,,67,127
39930,note_off,241,0,0,,5,,,77,127
39930,note_off,0,0,0,,2,,,74,127
39931,note_on,1,0,0,,0,,,72,127
39931,note_on,0,0,0,,3,,,75,127
40172,note_off,241,0,0,,3,,,75,127
40172,note_off,0,0,0,,0,,,72,127
40172,note_off,0,0,0,,7,,,67,127
40173,note_on,1,0,0,,0,,,72,127
40173,note_on,0,0,0,,3,,,75,127
40173,note_on,0,0,0,,7,,,67,127
40253,note_off,80,0,0,,3,,,75,127
40253,note_off,0,0,0,,0,,,72,127
40254,note_on,1,0,0,,12,,,71,127
40254,note_on,0,0,0,,2,,,74,127
40334,note_off,80,0,0,,2,,,74,127
40334,note_off,0,0,0,,12,,,71,127
40335,note_on,1,0,0,,10,,,69,127
40335,note_on,0,0,0,,0,,,72,127
40415,note_off,80,0,0,,0,,,72,127
40415,note_off,0,0,0,,10,,,69,127
40416,note_on,1,0,0,,10,,,69,127
40416,note_on,0,0,0,,0,,,72,127
40657,note_off,241,0,0,,10,,,69,127
40658,note_on,1,0,0,,12,,,71,127
40899,note_off,241,0,0,,0,,,72,127
40900,note_on,1,0,0,,2,,,74,127
41141,note_off,241,0,0,,2,,,74,127
41141,note_off,0,0,0,,12,,,71,127
41142,note_on,1,0,0,,12,,,71,127
41142,note_on,0,0,0,,2,,,74,127
41222,note_off,80,0,0,,2,,,74,127
41222,note_off,0,0,0,,12,,,71,127
41223,note_on,1,0,0,,0,,,72,127
41223,note_on,0,0,0,,3,,,75,127
41303,note_off,80,0,0,,3,,,75,127
41303,note_off,0,0,0,,0,,,72,127
41304,note_on,1,0,0,,2,,,74,127
41304,note_on,0,0,0,,5,,,77,127
41384,note_off,80,0,0,,5,,,77,127
41384,note_off,0,0,0,,2,,,74,127
41385,note_on,1,0,0,,3,,,75,127
41385,note_on,0,0,0,,7,,,79,127
41626,note_off,241,0,0,,7,,,67,127
41627,note_on,1,0,0,,7,,,67,127
41868,note_off,241,0,0,,7,,,79,127
41868,note_off,0,0,0,,3,,,75,127
41869,note_on,1,0,0,,2,,,74,127
41869,note_on,0,0,0,,5,,,77,127
42110,note_off,241,0,0,,5,,,77,127
42110,note_off,0,0,0,,2,,,74,127
42110,note_off,0,0,0,,7,,,67,127
42111,note_on,1,0,0,,2,,,74,127
42111,note_on,0,0,0,,5,,,77,127
42111,note_on,0,0,0,,0,,,60,127
42191,note_off,80,0,0,,5,,,77,127
42191,note_off,0,0,0,,2,,,74,127
42192,note_on,1,0,0,,0,,,72,127
42192,note_on,0,0,0,,3,,,75,127
42272,note_off,80,0,0,,3,,,75,127
42272,note_off,0,0,0,,0,,,72,127
42273,note_on,1,0,0,,12,,,71,127
42273,note_on,0,0,0,,2,,,74,127
42353,note_off,80,0,0,,2,,,74,127
42353,note_off,0,0,0,,12,,,71,127
42354,note_on,1,0,0,,12,,,71,127
42354,note_on,0,0,0,,2,,,74,127
42595,note_off,241,0,0,,12,,,71,127
42596,note_on,1,0,0,,0,,,72,127
42837,note_off,241,0,0,,2,,,74,127
42838,note_on,1,0,0,,3,,,75,127
43079,note_off,241,0,0,,3,,,75,127
43079,note_off,0,0,0,,0,,,72,127
43079,note_off,0,0,0,,0,,,60,127
43080,note_on,1,0,0,,7,,,79,127
43080,note_on,0,0,0,,3,,,75,127
43200,note_off,120,0,0,,3,,,75,127
43200,note_off,0,0,0,,7,,,79,127
43201,note_on,1,0,0,,7,,,79,127
43321,note_off,120,0,0,,7,,,79,127
43322,note_on,1,0,0,,0,,,84,127
43322,note_on,0,0,0,,0,,,72,127
43442,note_off,120,0,0,,0,,,72,127
43443,note_on,1,0,0,,3,,,75,127
43563,note_off,120,0,0,,3,,,75,127
43564,note_on,1,0,0,,10,,,69,127
43684,note_off,120,0,0,,10,,,69,127
43685,note_on,1,0,0,,0,,,72,127
43805,note_off,120,0,0,,0,,,72,127
43805,note_off,0,0,0,,0,,,84,127
43806,note_on,1,0,0,,3,,,75,127
43806,note_on,0,0,0,,5,,,65,127
43926,note_off,120,0,0,,5,,,65,127
43927,note_on,1,0,0,,10,,,69,127
44047,note_off,120,0,0,,10,,,69,127
44047,note_off,0,0,0,,3,,,75,127
44048,note_on,1,0,0,,2,,,74,127
44048,note_on,0,0,0,,11,,,70,127
44168,note_off,120,0,0,,11,,,70,127
44168,note_off,0,0,0,,2,,,74,127
44169,note_on,1,0,0,,2,,,74,127
44289,note_off,120,0,0,,2,,,74,127
44290,note_on,1,0,0,,11,,,82,127
44290,note_on,0,0,0,,7,,,67,127
44410,note_off,120,0,0,,7,,,67,127
44411,note_on,1,0,0,,11,,,70,127
44531,note_off,120,0,0,,11,,,70,127
44532,note_on,1,0,0,,3,,,63,127
44652,note_off,120,0,0,,3,,,63,127
44653,note_on,1,0,0,,7,,,67,127
44773,note_off,120,0,0,,7,,,67,127
44773,note_off,0,0,0,,11,,,82,127
44774,note_on,1,0,0,,11,,,70,127
44774,note_on,0,0,0,,0,,,60,127
44894,note_off,120,0,0,,0,,,60,127
44895,note_on,1,0,0,,3,,,63,127
45015,note_off,120,0,0,,3,,,63,127
45015,note_off,0,0,0,,11,,,70,127
45016,note_on,1,0,0,,10,,,69,127
45016,note_on,0,0,0,,5,,,53,127
45136,note_off,120,0,0,,5,,,53,127
45137,note_on,1,0,0,,3,,,63,127
45257,note_off,120,0,0,,3,,,63,127
45257,note_off,0,0,0,,10,,,69,127
45258,note_on,1,0,0,,11,,,70,127
45258,note_on,0,0,0,,5,,,53,127
45378,note_off,120,0,0,,5,,,53,127
45379,note_on,1,0,0,,2,,,62,127
45499,note_off,120,0,0,,2,,,62,127
45499,note_off,0,0,0,,11,,,70,127
45500,note_on,1,0,0,,10,,,69,127
45500,note_on,0,0,0,,0,,,72,127
45500,note_on,0,0,0,,5,,,53,127
45620,note_off,120,0,0,,5,,,53,127
45621,note_on,1,0,0,,0,,,60,127
45741,note_off,120,0,0,,0,,,60,127
45741,note_off,0,0,0,,0,,,72,127
45741,note_off,0,0,0,,10,,,69,127
45742,note_on,1,0,0,,11,,,70,127
45742,note_on,0,0,0,,2,,,74,127
45742,note_on,0,0,0,,5,,,53,127
45862,note_off,120,0,0,,5,,,53,127
45863,note_on,1,0,0,,11,,,58,127
45983,note_off,120,0,0,,11,,,58,127
45984,note_on,1,0,0,,5,,,53,127
46043,note_off,59,0,0,,11,,,70,127
46225,note_off,182,0,0,,2,,,74,127
46226,note_on,1,0,0,,5,,,77,127
46285,note_off,59,0,0,,5,,,77,127
46286,note_on,1,0,0,,3,,,75,127
46345,note_off,59,0,0,,3,,,75,127
46346,note_on,1,0,0,,2,,,74,127
46405,note_off,59,0,0,,2,,,74,127
46406,note_on,1,0,0,,0,,,72,127
46465,note_off,59,0,0,,0,,,72,127
46466,note_on,1,0,0,,11,,,70,127
46525,note_off,59,0,0,,11,,,70,127
46526,note_on,1,0,0,,10,,,69,127
46585,note_off,59,0,0,,10,,,69,127
46586,note_on,1,0,0,,7,,,67,127
46645,note_off,59,0,0,,7,,,67,127
46646,note_on,1,0,0,,5,,,65,127
46705,note_off,59,0,0,,5,,,65,127
46706,note_on,1,0,0,,3,,,63,127
46765,note_off,59,0,0,,3,,,63,127
46766,note_on,1,0,0,,2,,,62,127
46825,note_off,59,0,0,,2,,,62,127
46826,note_on,1,0,0,,0,,,60,127
46885,note_off,59,0,0,,0,,,60,127
46886,note_on,1,0,0,,11,,,58,127
46945,note_off,59,0,0,,11,,,58,127
46945,note_off,0,0,0,,5,,,53,127
46946,note_on,1,0,0,,10,,,57,127
46946,note_on,0,0,0,,5,,,41,127
47066,note_off,120,0,0,,5,,,41,127
47067,note_on,1,0,0,,3,,,51,127
47187,note_off,120,0,0,,3,,,51,127
47187,note_off,0,0,0,,10,,,57,127
47188,note_on,1,0,0,,11,,,58,127
47188,note_on,0,0,0,,5,,,41,127
47308,note_off,120,0,0,,5,,,41,127
47309,note_on,1,0,0,,2,,,50,127
47429,note_off,120,0,0,,2,,,50,127
47429,note_off,0,0,0,,11,,,58,127
47430,note_on,1,0,0,,0,,,60,127
47430,note_on,0,0,0,,5,,,41,127
47550,note_off,120,0,0,,5,,,41,127
47551,note_on,1,0,0,,0,,,48,127
47671,note_off,120,0,0,,0,,,48,127
47671,note_off,0,0,0,,0,,,60,127
47672,note_on,1,0,0,,2,,,62,127
47672,note_on,0,0,0,,5,,,41,127
47792,note_off,120,0,0,,5,,,41,127
47793,note_on,1,0,0,,11,,,46,127
47913,note_off,120,0,0,,11,,,46,127
47913,note_off,0,0,0,,2,,,62,127
47914,note_on,1,0,0,,2,,,62,127
47914,note_on,0,0,0,,5,,,41,127
47994,note_off,80,0,0,,2,,,62,127
47995,note_on,1,0,0,,0,,,60,127
48075,note_off,80,0,0,,0,,,60,127
48076,note_on,1,0,0,,11,,,58,127
48156,note_off,80,0,0,,11,,,58,127
48157,note_on,1,0,0,,11,,,58,127
48398,note_off,241,0,0,,5,,,41,127
48399,note_on,1,0,0,,5,,,53,127
48640,note_off,241,0,0,,11,,,58,127
48641,note_on,1,0,0,,0,,,60,127
48641,note_on,0,0,0,,10,,,57,127
48882,note_off,241,0,0,,10,,,57,127
48882,note_off,0,0,0,,0,,,60,127
48882,note_off,0,0,0,,5,,,53,127
48883,note_on,1,0,0,,10,,,69,127
48883,note_on,0,0,0,,0,,,72,127
48963,note_off,80,0,0,,0,,,72,127
48963,note_off,0,0,0,,10,,,69,127
48964,note_on,1,0,0,,11,,,70,127
48964,note_on,0,0,0,,2,,,74,127
49044,note_off,80,0,0,,2,,,74,127
49044,note_off,0,0,0,,11,,,70,127
49045,note_on,1,0,0,,0,,,72,127
49045,note_on,0,0,0,,3,,,75,127
49125,note_off,80,0,0,,3,,,75,127
49125,note_off,0,0,0,,0,,,72,127
49126,note_on,1,0,0,,0,,,72,127
49126,note_on,0,0,0,,3,,,75,127
49369,note_on,243,0,0,,5,,,65,127
49610,note_off,241,0,0,,3,,,75,127
49610,note_off,0,0,0,,0,,,72,127
49611,note_on,1,0,0,,11,,,70,127
49611,note_on,0,0,0,,2,,,74,127
49852,note_off,241,0,0,,2,,,74,127
49852,note_off,0,0,0,,11,,,70,127
49852,note_off,0,0,0,,5,,,65,127
49853,note_on,1,0,0,,11,,,70,127
49853,note_on,0,0,0,,2,,,74,127
49853,note_on,0,0,0,,5,,,65,127
49933,note_off,80,0,0,,2,,,74,127
49933,note_off,0,0,0,,11,,,70,127
49934,note_on,1,0,0,,10,,,69,127
49934,note_on,0,0,0,,0,,,72,127
50014,note_off,80,0,0,,0,,,72,127
50014,note_off,0,0,0,,10,,,69,127
50015,note_on,1,0,0,,7,,,67,127
50015,note_on,0,0,0,,11,,,70,127
50095,note_off,80,0,0,,11,,,70,127
50095,note_off,0,0,0,,7,,,67,127
50096,note_on,1,0,0,,7,,,67,127
50096,note_on,0,0,0,,11,,,70,127
50337,note_off,241,0,0,,5,,,65,127
50338,note_on,1,0,0,,5,,,65,127
50579,note_off,241,0,0,,11,,,70,127
50579,note_off,0,0,0,,7,,,67,127
50580,note_on,1,0,0,,0,,,72,127
50821,note_off,241,0,0,,0,,,72,127
50822,note_on,1,0,0,,0,,,72,127
50822,note_on,0,0,0,,3,,,75,127
50902,note_off,80,0,0,,3,,,75,127
50902,note_off,0,0,0,,0,,,72,127
50903,note_on,1,0,0,,2,,,74,127
50903,note_on,0,0,0,,5,,,77,127
50983,note_off,80,0,0,,5,,,77,127
50983,note_off,0,0,0,,2,,,74,127
50984,note_on,1,0,0,,3,,,75,127
50984,note_on,0,0,0,,7,,,79,127
51064,note_off,80,0,0,,7,,,79,127
51064,note_off,0,0,0,,3,,,75,127
51065,note_on,1,0,0,,3,,,75,127
51065,note_on,0,0,0,,7,,,79,127
51306,note_off,241,0,0,,5,,,65,127
51307,note_on,1,0,0,,5,,,65,127
51548,note_off,241,0,0,,7,,,79,127
51548,note_off,0,0,0,,3,,,75,127
51549,note_on,1,0,0,,2,,,74,127
51549,note_on,0,0,0,,5,,,77,127
51790,note_off,241,0,0,,5,,,77,127
51790,note_off,0,0,0,,2,,,74,127
51790,note_off,0,0,0,,5,,,65,127
51791,note_on,1,0,0,,2,,,74,127
51791,note_on,0,0,0,,5,,,77,127
51791,note_on,0,0,0,,5,,,65,127
51871,note_off,80,0,0,,5,,,77,127
51871,note_off,0,0,0,,2,,,74,127
51872,note_on,1,0,0,,0,,,72,127
51872,note_on,0,0,0,,3,,,75,127
51952,note_off,80,0,0,,3,,,75,127
51952,note_off,0,0,0,,0,,,72,127
51953,note_on,1,0,0,,11,,,70,127
51953,note_on,0,0,0,,2,,,74,127
52033,note_off,80,0,0,,2,,,74,127
52033,note_off,0,0,0,,11,,,70,127
52034,note_on,1,0,0,,11,,,70,127
52034,note_on,0,0,0,,2,,,74,127
52275,note_off,241,0,0,,11,,,70,127
52276,note_on,1,0,0,,0,,,72,127
52517,note_off,241,0,0,,2,,,74,127
52518,note_on,1,0,0,,3,,,75,127
52759,note_off,241,0,0,,3,,,75,127
52759,note_off,0,0,0,,0,,,72,127
52759,note_off,0,0,0,,5,,,65,127
52760,note_on,1,0,0,,0,,,72,127
52760,note_on,0,0,0,,10,,,81,127
52760,note_on,0,0,0,,5,,,65,127
52840,note_off,80,0,0,,10,,,81,127
52840,note_off,0,0,0,,0,,,72,127
52841,note_on,1,0,0,,2,,,74,127
52841,note_on,0,0,0,,11,,,82,127
52921,note_off,80,0,0,,11,,,82,127
52921,note_off,0,0,0,,2,,,74,127
52922,note_on,1,0,0,,3,,,75,127
52922,note_on,0,0,0,,0,,,84,127
53002,note_off,80,0,0,,0,,,84,127
53002,note_off,0,0,0,,3,,,75,127
53003,note_on,1,0,0,,3,,,75,127
53003,note_on,0,0,0,,0,,,84,127
53244,note_off,241,0,0,,5,,,65,127
53245,note_on,1,0,0,,5,,,65,127
53486,note_off,241,0,0,,0,,,84,127
53486,note_off,0,0,0,,3,,,75,127
53487,note_on,1,0,0,,11,,,82,127
53487,note_on,0,0,0,,2,,,74,127
53728,note_off,241,0,0,,2,,,74,127
53728,note_off,0,0,0,,11,,,82,127
53728,note_off,0,0,0,,5,,,65,127
53729,note_on,1,0,0,,0,,,72,127
53729,note_on,0,0,0,,10,,,81,127
53729,note_on,0,0,0,,5,,,65,127
53809,note_off,80,0,0,,10,,,81,127
53810,note_on,1,0,0,,7,,,79,127
53890,note_off,80,0,0,,7,,,79,127
53891,note_on,1,0,0,,5,,,77,127
53971,note_off,80,0,0,,5,,,77,127
53971,note_off,0,0,0,,0,,,72,127
53972,note_on,1,0,0,,11,,,70,127
53972,note_on,0,0,0,,5,,,77,127
54213,note_off,241,0,0,,11,,,70,127
54214,note_on,1,0,0,,10,,,69,127
54455,note_off,241,0,0,,10,,,69,127
54455,note_off,0,0,0,,5,,,77,127
54456,note_on,1,0,0,,3,,,75,127
54456,note_on,0,0,0,,0,,,72,127
54697,note_off,241,0,0,,0,,,72,127
54697,note_off,0,0,0,,3,,,75,127
54697,note_off,0,0,0,,5,,,65,127
54698,note_on,1,0,0,,2,,,74,127
54698,note_on,0,0,0,,11,,,70,127
54818,note_off,120,0,0,,11,,,70,127
54818,note_off,0,0,0,,2,,,74,127
54819,note_on,1,0,0,,11,,,70,127
54939,note_off,120,0,0,,11,,,70,127
54940,note_on,1,0,0,,5,,,77,127
54940,note_on,0,0,0,,10,,,69,127
55060,note_off,120,0,0,,5,,,77,127
55061,note_on,1,0,0,,5,,,65,127
55181,note_off,120,0,0,,5,,,65,127
55181,note_off,0,0,0,,10,,,69,127
55182,note_on,1,0,0,,11,,,70,127
55182,note_on,0,0,0,,7,,,67,127
55302,note_off,120,0,0,,7,,,67,127
55302,note_off,0,0,0,,11,,,70,127
55303,note_on,1,0,0,,7,,,67,127
55423,note_off,120,0,0,,7,,,67,127
55424,note_on,1,0,0,,2,,,74,127
55424,note_on,0,0,0,,5,,,65,127
55544,note_off,120,0,0,,2,,,74,127
55545,note_on,1,0,0,,2,,,62,127
55665,note_off,120,0,0,,2,,,62,127
55665,note_off,0,0,0,,5,,,65,127
55666,note_on,1,0,0,,7,,,67,127
55666,note_on,0,0,0,,3,,,63,127
55786,note_off,120,0,0,,3,,,63,127
55786,note_off,0,0,0,,7,,,67,127
55787,note_on,1,0,0,,3,,,63,127
55907,note_off,120,0,0,,3,,,63,127
55908,note_on,1,0,0,,11,,,70,127
55908,note_on,0,0,0,,2,,,62,127
56028,note_off,120,0,0,,11,,,70,127
56029,note_on,1,0,0,,11,,,58,127
56149,note_off,120,0,0,,11,,,58,127
56149,note_off,0,0,0,,2,,,62,127
56150,note_on,1,0,0,,3,,,63,127
56150,note_on,0,0,0,,0,,,60,127
56270,note_off,120,0,0,,0,,,60,127
56270,note_off,0,0,0,,3,,,63,127
56271,note_on,1,0,0,,0,,,60,127
56391,note_off,120,0,0,,0,,,60,127
56392,note_on,1,0,0,,11,,,70,127
56392,note_on,0,0,0,,11,,,58,127
56512,note_off,120,0,0,,11,,,58,127
56512,note_off,0,0,0,,11,,,70,127
56513,note_on,1,0,0,,11,,,58,127
56633,note_off,120,0,0,,11,,,58,127
56634,note_on,1,0,0,,0,,,60,127
56634,note_on,0,0,0,,10,,,57,127
56754,note_off,120,0,0,,10,,,57,127
56755,note_on,1,0,0,,5,,,53,127
56875,note_off,120,0,0,,5,,,53,127
56875,note_off,0,0,0,,0,,,60,127
56876,note_on,1,0,0,,2,,,62,127
56876,note_on,0,0,0,,11,,,58,127
56996,note_off,120,0,0,,11,,,58,127
56996,note_off,0,0,0,,2,,,62,127
56997,note_on,1,0,0,,3,,,63,127
56997,note_on,0,0,0,,3,,,51,127
57117,note_off,120,0,0,,3,,,51,127
57117,note_off,0,0,0,,3,,,63,127
57118,note_on,1,0,0,,11,,,58,127
57118,note_on,0,0,0,,2,,,62,127
57118,note_on,0,0,0,,5,,,53,127
57359,note_off,241,0,0,,5,,,53,127
57359,note_off,0,0,0,,2,,,62,127
57359,note_off,0,0,0,,11,,,58,127
57360,note_on,1,0,0,,0,,,60,127
57360,note_on,0,0,0,,10,,,57,127
57360,note_on,0,0,0,,5,,,41,127
57601,note_off,241,0,0,,5,,,41,127
57601,note_off,0,0,0,,10,,,57,127
57601,note_off,0,0,0,,0,,,60,127
57602,note_on,1,0,0,,2,,,62,127
57602,note_on,0,0,0,,11,,,58,127
57722,note_off,120,0,0,,11,,,58,127
57722,note_off,0,0,0,,2,,,62,127
57723,note_on,1,0,0,,11,,,58,127
57843,note_off,120,0,0,,11,,,58,127
57844,note_on,1,0,0,,5,,,65,127
57844,note_on,0,0,0,,10,,,57,127
57964,note_off,120,0,0,,5,,,65,127
57965,note_on,1,0,0,,5,,,53,127
58085,note_off,120,0,0,,5,,,53,127
58085,note_off,0,0,0,,10,,,57,127
58086,note_on,1,0,0,,11,,,58,127
58086,note_on,0,0,0,,7,,,55,127
58206,note_off,120,0,0,,7,,,55,127
58206,note_off,0,0,0,,11,,,58,127
58207,note_on,1,0,0,,7,,,55,127
58327,note_off,120,0,0,,7,,,55,127
58328,note_on,1,0,0,,2,,,62,127
58328,note_on,0,0,0,,5,,,53,127
58448,note_off,120,0,0,,2,,,62,127
58449,note_on,1,0,0,,2,,,50,127
58569,note_off,120,0,0,,2,,,50,127
58569,note_off,0,0,0,,5,,,53,127
58570,note_on,1,0,0,,7,,,55,127
58570,note_on,0,0,0,,3,,,51,127
58690,note_off,120,0,0,,3,,,51,127
58690,note_off,0,0,0,,7,,,55,127
58691,note_on,1,0,0,,3,,,51,127
58811,note_off,120,0,0,,3,,,51,127
58812,note_on,1,0,0,,11,,,58,127
58812,note_on,0,0,0,,2,,,50,127
58932,note_off,120,0,0,,11,,,58,127
58933,note_on,1,0,0,,11,,,46,127
59053,note_off,120,0,0,,11,,,46,127
59053,note_off,0,0,0,,2,,,50,127
59054,note_on,1,0,0,,3,,,51,127
59054,note_on,0,0,0,,0,,,48,127
59174,note_off,120,0,0,,0,,,48,127
59174,note_off,0,0,0,,3,,,51,127
59175,note_on,1,0,0,,0,,,48,127
59295,note_off,120,0,0,,0,,,48,127
59296,note_on,1,0,0,,11,,,58,127
59296,note_on,0,0,0,,11,,,46,127
59416,note_off,120,0,0,,11,,,46,127
59416,note_off,0,0,0,,11,,,58,127
59417,note_on,1,0,0,,11,,,46,127
59537,note_off,120,0,0,,11,,,46,127
59538,note_on,1,0,0,,0,,,48,127
59538,note_on,0,0,0,,10,,,45,127
59658,note_off,120,0,0,,10,,,45,127
59659,note_on,1,0,0,,5,,,41,127
59779,note_off,120,0,0,,5,,,41,127
59779,note_off,0,0,0,,0,,,48,127
59780,note_on,1,0,0,,2,,,50,127
59780,note_on,0,0,0,,11,,,46,127
59900,note_off,120,0,0,,11,,,46,127
59900,note_off,0,0,0,,2,,,50,127
59901,note_on,1,0,0,,3,,,51,127
59901,note_on,0,0,0,,3,,,39,127
60021,note_off,120,0,0,,3,,,39,127
60021,note_off,0,0,0,,3,,,51,127
60022,note_on,1,0,0,,11,,,46,127
60022,note_on,0,0,0,,2,,,50,127
60022,note_on,0,0,0,,5,,,41,127
60263,note_off,241,0,0,,5,,,41,127
60263,note_off,0,0,0,,2,,,50,127
60263,note_off,0,0,0,,11,,,46,127
60264,note_on,1,0,0,,10,,,45,127
60264,note_on,0,0,0,,0,,,48,127
60264,note_on,0,0,0,,5,,,41,127
60505,note_off,241,0,0,,5,,,41,127
60505,note_off,0,0,0,,0,,,48,127
60505,note_off,0,0,0,,10,,,45,127
60506,note_on,1,0,0,,11,,,46,127
60627,note_on,121,0,0,,2,,,50,127
60747,note_off,120,0,0,,2,,,50,127
60748,note_on,1,0,0,,5,,,53,127
60868,note_off,120,0,0,,5,,,53,127
60869,note_on,1,0,0,,11,,,58,127
60989,note_off,120,0,0,,11,,,58,127
60990,note_on,1,0,0,,2,,,62,127
61110,note_off,120,0,0,,2,,,62,127
61111,note_on,1,0,0,,5,,,65,127
61231,note_off,120,0,0,,5,,,65,127
61232,note_on,1,0,0,,11,,,70,127
61352,note_off,120,0,0,,11,,,70,127
61353,note_on,1,0,0,,2,,,74,127
61473,note_off,120,0,0,,2,,,74,127
61474,note_on,1,0,0,,0,,,84,127
61503,note_off,29,0,0,,0,,,84,127
61504,note_on,1,0,0,,11,,,82,127
61533,note_off,29,0,0,,11,,,82,127
61534,note_on,1,0,0,,0,,,84,127
61563,note_off,29,0,0,,0,,,84,127
61564,note_on,1,0,0,,11,,,82,127
61956,note_off,392,0,0,,11,,,46,127
62533,note_off,577,0,0,,11,,,82,127
69120,end_of_track,6587,1,0,,,,,,
