tick,type,time,meta,track,program,channel,pitch,tempo,note,velocity
0,copyright,0,1,0,,,,,,
0,program_change,0,0,0,6,0,,,,
0,pitchwheel,0,0,0,,0,0,,,
0,program_change,0,0,0,6,1,,,,
0,pitchwheel,0,0,0,,1,-590,,,
0,program_change,0,0,0,6,2,,,,
0,pitchwheel,0,0,0,,2,-272,,,
0,program_change,0,0,0,6,3,,,,
0,pitchwheel,0,0,0,,3,-353,,,
0,program_change,0,0,0,6,4,,,,
0,pitchwheel,0,0,0,,4,-560,,,
0,program_change,0,0,0,6,5,,,,
0,pitchwheel,0,0,0,,5,-80,,,
0,program_change,0,0,0,6,6,,,,
0,pitchwheel,0,0,0,,6,-625,,,
0,program_change,0,0,0,6,7,,,,
0,pitchwheel,0,0,0,,7,-130,,,
0,program_change,0,0,0,6,8,,,,
0,pitchwheel,0,0,0,,8,-512,,,
0,program_change,0,0,0,6,10,,,,
0,pitchwheel,0,0,0,,10,-464,,,
0,program_change,0,0,0,6,11,,,,
0,pitchwheel,0,0,0,,11,-208,,,
0,program_change,0,0,0,6,12,,,,
0,pitchwheel,0,0,0,,12,-553,,,
0,set_tempo,0,1,0,,,,500000,,
128,note_on,128,0,0,,6,,,66,127
253,note_off,125,0,0,,6,,,66,127
256,note_on,3,0,0,,10,,,69,127
381,note_off,125,0,0,,10,,,69,127
384,note_on,3,0,0,,6,,,66,127
509,note_off,125,0,0,,6,,,66,127
512,note_on,3,0,0,,1,,,73,127
637,note_off,125,0,0,,1,,,73,127
640,note_on,3,0,0,,1,,,73,127
765,note_off,125,0,0,,1,,,73,127
768,note_on,3,0,0,,5,,,77,127
893,note_off,125,0,0,,5,,,77,127
896,note_on,3,0,0,,1,,,73,127
1021,note_off,125,0,0,,1,,,73,127
1024,note_on,3,0,0,,6,,,78,127
1149,note_off,125,0,0,,6,,,78,127
1152,note_on,3,0,0,,6,,,66,127
1277,note_off,125,0,0,,6,,,66,127
1280,note_on,3,0,0,,10,,,69,127
1405,note_off,125,0,0,,10,,,69,127
1408,note_on,3,0,0,,6,,,66,127
1533,note_off,125,0,0,,6,,,66,127
1536,note_on,3,0,0,,1,,,73,127
1661,note_off,125,0,0,,1,,,73,127
1664,note_on,3,0,0,,1,,,61,127
1789,note_off,125,0,0,,1,,,61,127
1792,note_on,3,0,0,,5,,,65,127
1917,note_off,125,0,0,,5,,,65,127
1920,note_on,3,0,0,,1,,,61,127
2045,note_off,125,0,0,,1,,,61,127
2048,note_on,3,0,0,,6,,,66,127
2176,note_on,128,0,0,,6,,,54,127
2299,note_off,123,0,0,,6,,,54,127
2302,note_off,3,0,0,,6,,,66,127
2305,note_on,3,0,0,,10,,,69,127
2305,note_on,0,0,0,,6,,,66,127
2305,note_on,0,0,0,,10,,,57,127
2428,note_off,123,0,0,,10,,,57,127
2433,note_on,5,0,0,,6,,,54,127
2556,note_off,123,0,0,,6,,,54,127
2559,note_off,3,0,0,,6,,,66,127
2559,note_off,0,0,0,,10,,,69,127
2562,note_on,3,0,0,,8,,,68,127
2562,note_on,0,0,0,,1,,,61,127
2685,note_off,123,0,0,,1,,,61,127
2690,note_on,5,0,0,,1,,,49,127
2813,note_off,123,0,0,,1,,,49,127
2816,note_off,3,0,0,,8,,,68,127
2819,note_on,3,0,0,,1,,,73,127
2819,note_on,0,0,0,,5,,,53,127
2942,note_off,123,0,0,,5,,,53,127
2947,note_on,5,0,0,,1,,,49,127
3070,note_off,123,0,0,,1,,,49,127
3073,note_off,3,0,0,,1,,,73,127
3076,note_on,3,0,0,,10,,,69,127
3076,note_on,0,0,0,,6,,,54,127
3199,note_off,123,0,0,,6,,,54,127
3204,note_on,5,0,0,,6,,,42,127
3327,note_off,123,0,0,,6,,,42,127
3330,note_off,3,0,0,,10,,,69,127
3333,note_on,3,0,0,,10,,,81,127
3333,note_on,0,0,0,,10,,,45,127
3456,note_off,123,0,0,,10,,,45,127
3461,note_on,5,0,0,,6,,,42,127
3584,note_off,123,0,0,,6,,,42,127
3587,note_off,3,0,0,,10,,,81,127
3590,note_on,3,0,0,,8,,,80,127
3590,note_on,0,0,0,,1,,,49,127
3713,note_off,123,0,0,,1,,,49,127
3718,note_on,5,0,0,,1,,,37,127
3841,note_off,123,0,0,,1,,,37,127
3844,note_off,3,0,0,,8,,,80,127
3847,note_on,3,0,0,,1,,,73,127
3847,note_on,0,0,0,,5,,,41,127
3970,note_off,123,0,0,,5,,,41,127
3975,note_on,5,0,0,,1,,,37,127
4098,note_off,123,0,0,,1,,,37,127
4101,note_off,3,0,0,,1,,,73,127
4104,note_on,3,0,0,,10,,,69,127
4104,note_on,0,0,0,,6,,,42,127
4227,note_off,123,0,0,,6,,,42,127
4232,note_on,5,0,0,,6,,,42,127
4331,note_off,99,0,0,,10,,,69,127
4355,note_off,24,0,0,,6,,,42,127
4360,note_on,5,0,0,,6,,,78,127
4360,note_on,0,0,0,,10,,,45,127
4483,note_off,123,0,0,,10,,,45,127
4488,note_on,5,0,0,,6,,,42,127
4611,note_off,123,0,0,,6,,,42,127
4614,note_off,3,0,0,,6,,,78,127
4617,note_on,3,0,0,,2,,,74,127
4617,note_on,0,0,0,,12,,,47,127
4740,note_off,123,0,0,,12,,,47,127
4745,note_on,5,0,0,,12,,,47,127
4868,note_off,123,0,0,,12,,,47,127
4871,note_off,3,0,0,,2,,,74,127
4874,note_on,3,0,0,,12,,,71,127
4874,note_on,0,0,0,,2,,,50,127
4997,note_off,123,0,0,,2,,,50,127
5002,note_on,5,0,0,,12,,,47,127
5125,note_off,123,0,0,,12,,,47,127
5128,note_off,3,0,0,,12,,,71,127
5131,note_on,3,0,0,,8,,,68,127
5131,note_on,0,0,0,,4,,,52,127
5254,note_off,123,0,0,,4,,,52,127
5259,note_on,5,0,0,,4,,,52,127
5358,note_off,99,0,0,,8,,,68,127
5382,note_off,24,0,0,,4,,,52,127
5387,note_on,5,0,0,,4,,,76,127
5387,note_on,0,0,0,,8,,,56,127
5510,note_off,123,0,0,,8,,,56,127
5515,note_on,5,0,0,,4,,,52,127
5638,note_off,123,0,0,,4,,,52,127
5641,note_off,3,0,0,,4,,,76,127
5644,note_on,3,0,0,,1,,,73,127
5644,note_on,0,0,0,,10,,,57,127
5767,note_off,123,0,0,,10,,,57,127
5772,note_on,5,0,0,,10,,,57,127
5895,note_off,123,0,0,,10,,,57,127
5900,note_on,5,0,0,,10,,,81,127
5900,note_on,0,0,0,,1,,,61,127
6023,note_off,123,0,0,,1,,,61,127
6028,note_off,5,0,0,,1,,,73,127
6028,note_on,0,0,0,,10,,,57,127
6151,note_off,123,0,0,,10,,,57,127
6154,note_off,3,0,0,,10,,,81,127
6157,note_on,3,0,0,,6,,,78,127
6157,note_on,0,0,0,,2,,,62,127
6282,note_off,125,0,0,,6,,,78,127
6285,note_on,3,0,0,,8,,,80,127
6408,note_off,123,0,0,,2,,,62,127
6411,note_off,3,0,0,,8,,,80,127
6414,note_on,3,0,0,,10,,,81,127
6414,note_on,0,0,0,,1,,,61,127
6542,note_on,128,0,0,,10,,,69,127
6665,note_off,123,0,0,,1,,,61,127
6668,note_off,3,0,0,,10,,,69,127
6671,note_on,3,0,0,,2,,,74,127
6671,note_on,0,0,0,,12,,,59,127
6796,note_off,125,0,0,,2,,,74,127
6799,note_on,3,0,0,,1,,,73,127
6922,note_off,123,0,0,,12,,,59,127
6925,note_off,3,0,0,,1,,,73,127
6926,note_off,1,0,0,,10,,,81,127
6927,note_on,1,0,0,,8,,,80,127
6927,note_on,0,0,0,,2,,,74,127
6927,note_on,0,0,0,,4,,,64,127
7052,note_off,125,0,0,,2,,,74,127
7055,note_on,3,0,0,,4,,,76,127
7180,note_off,125,0,0,,4,,,76,127
7181,note_off,1,0,0,,8,,,80,127
7182,note_on,1,0,0,,10,,,81,127
7182,note_on,0,0,0,,1,,,73,127
7305,note_off,123,0,0,,4,,,64,127
7310,note_on,5,0,0,,10,,,57,127
7433,note_off,123,0,0,,10,,,57,127
7436,note_off,3,0,0,,1,,,73,127
7439,note_on,3,0,0,,1,,,73,127
7439,note_on,0,0,0,,1,,,61,127
7562,note_off,123,0,0,,1,,,61,127
7567,note_off,5,0,0,,10,,,81,127
7567,note_on,0,0,0,,10,,,57,127
7690,note_off,123,0,0,,10,,,57,127
7693,note_off,3,0,0,,1,,,73,127
7696,note_on,3,0,0,,12,,,71,127
7696,note_on,0,0,0,,4,,,64,127
7819,note_off,123,0,0,,4,,,64,127
7824,note_on,5,0,0,,4,,,52,127
7947,note_off,123,0,0,,4,,,52,127
7950,note_off,3,0,0,,12,,,71,127
7953,note_on,3,0,0,,4,,,76,127
7953,note_on,0,0,0,,8,,,56,127
8076,note_off,123,0,0,,8,,,56,127
8081,note_on,5,0,0,,4,,,52,127
8204,note_off,123,0,0,,4,,,52,127
8207,note_off,3,0,0,,4,,,76,127
8210,note_on,3,0,0,,1,,,73,127
8210,note_on,0,0,0,,10,,,57,127
8333,note_off,123,0,0,,10,,,57,127
8338,note_on,5,0,0,,10,,,45,127
8461,note_off,123,0,0,,10,,,45,127
8464,note_off,3,0,0,,1,,,73,127
8467,note_on,3,0,0,,10,,,69,127
8467,note_on,0,0,0,,1,,,49,127
8590,note_off,123,0,0,,1,,,49,127
8595,note_on,5,0,0,,10,,,45,127
8718,note_off,123,0,0,,10,,,45,127
8721,note_off,3,0,0,,10,,,69,127
8724,note_on,3,0,0,,12,,,71,127
8724,note_on,0,0,0,,4,,,52,127
8847,note_off,123,0,0,,4,,,52,127
8852,note_on,5,0,0,,4,,,40,127
8975,note_off,123,0,0,,4,,,40,127
8980,note_on,5,0,0,,4,,,64,127
8980,note_on,0,0,0,,8,,,44,127
9103,note_off,123,0,0,,8,,,44,127
9108,note_off,5,0,0,,12,,,71,127
9108,note_on,0,0,0,,4,,,40,127
9233,note_off,125,0,0,,4,,,64,127
9236,note_on,3,0,0,,12,,,71,127
9236,note_on,0,0,0,,2,,,74,127
9359,note_off,123,0,0,,4,,,40,127
9364,note_on,5,0,0,,12,,,59,127
9487,note_off,123,0,0,,12,,,59,127
9490,note_off,3,0,0,,2,,,74,127
9490,note_off,0,0,0,,12,,,71,127
9493,note_on,3,0,0,,2,,,74,127
9493,note_on,0,0,0,,12,,,71,127
9493,note_on,0,0,0,,2,,,62,127
9616,note_off,123,0,0,,2,,,62,127
9621,note_on,5,0,0,,12,,,59,127
9744,note_off,123,0,0,,12,,,59,127
9747,note_off,3,0,0,,12,,,71,127
9747,note_off,0,0,0,,2,,,74,127
9750,note_on,3,0,0,,1,,,73,127
9750,note_on,0,0,0,,6,,,66,127
9873,note_off,123,0,0,,6,,,66,127
9878,note_on,5,0,0,,6,,,54,127
10001,note_off,123,0,0,,6,,,54,127
10004,note_off,3,0,0,,1,,,73,127
10007,note_on,3,0,0,,6,,,78,127
10007,note_on,0,0,0,,11,,,58,127
10130,note_off,123,0,0,,11,,,58,127
10135,note_on,5,0,0,,6,,,54,127
10258,note_off,123,0,0,,6,,,54,127
10261,note_off,3,0,0,,6,,,78,127
10264,note_on,3,0,0,,2,,,74,127
10264,note_on,0,0,0,,12,,,59,127
10387,note_off,123,0,0,,12,,,59,127
10392,note_on,5,0,0,,12,,,47,127
10515,note_off,123,0,0,,12,,,47,127
10518,note_off,3,0,0,,2,,,74,127
10521,note_on,3,0,0,,12,,,71,127
10521,note_on,0,0,0,,2,,,50,127
10644,note_off,123,0,0,,2,,,50,127
10649,note_on,5,0,0,,12,,,47,127
10772,note_off,123,0,0,,12,,,47,127
10775,note_off,3,0,0,,12,,,71,127
10778,note_on,3,0,0,,1,,,73,127
10778,note_on,0,0,0,,6,,,54,127
10901,note_off,123,0,0,,6,,,54,127
10906,note_on,5,0,0,,6,,,42,127
11029,note_off,123,0,0,,6,,,42,127
11034,note_on,5,0,0,,6,,,66,127
11034,note_on,0,0,0,,11,,,46,127
11157,note_off,123,0,0,,11,,,46,127
11162,note_off,5,0,0,,1,,,73,127
11162,note_on,0,0,0,,6,,,42,127
11287,note_off,125,0,0,,6,,,66,127
11290,note_on,3,0,0,,4,,,76,127
11290,note_on,0,0,0,,1,,,73,127
11413,note_off,123,0,0,,6,,,42,127
11418,note_on,5,0,0,,1,,,61,127
11541,note_off,123,0,0,,1,,,61,127
11544,note_off,3,0,0,,1,,,73,127
11544,note_off,0,0,0,,4,,,76,127
11547,note_on,3,0,0,,4,,,76,127
11547,note_on,0,0,0,,1,,,73,127
11547,note_on,0,0,0,,4,,,64,127
11670,note_off,123,0,0,,4,,,64,127
11675,note_on,5,0,0,,1,,,61,127
11798,note_off,123,0,0,,1,,,61,127
11801,note_off,3,0,0,,1,,,73,127
11801,note_off,0,0,0,,4,,,76,127
11804,note_on,3,0,0,,3,,,75,127
11804,note_on,0,0,0,,8,,,68,127
11927,note_off,123,0,0,,8,,,68,127
11932,note_on,5,0,0,,8,,,56,127
12055,note_off,123,0,0,,8,,,56,127
12058,note_off,3,0,0,,3,,,75,127
12061,note_on,3,0,0,,8,,,80,127
12061,note_on,0,0,0,,0,,,60,127
12184,note_off,123,0,0,,0,,,60,127
12189,note_on,5,0,0,,8,,,56,127
12312,note_off,123,0,0,,8,,,56,127
12315,note_off,3,0,0,,8,,,80,127
12318,note_on,3,0,0,,4,,,76,127
12318,note_on,0,0,0,,1,,,61,127
12441,note_off,123,0,0,,1,,,61,127
12446,note_on,5,0,0,,1,,,49,127
12569,note_off,123,0,0,,1,,,49,127
12572,note_off,3,0,0,,4,,,76,127
12575,note_on,3,0,0,,1,,,73,127
12575,note_on,0,0,0,,4,,,52,127
12698,note_off,123,0,0,,4,,,52,127
12703,note_on,5,0,0,,1,,,49,127
12826,note_off,123,0,0,,1,,,49,127
12829,note_off,3,0,0,,1,,,73,127
12832,note_on,3,0,0,,3,,,75,127
12832,note_on,0,0,0,,8,,,56,127
12955,note_off,123,0,0,,8,,,56,127
12960,note_on,5,0,0,,8,,,44,127
13059,note_off,99,0,0,,3,,,75,127
13083,note_off,24,0,0,,8,,,44,127
13088,note_on,5,0,0,,8,,,68,127
13088,note_on,0,0,0,,0,,,48,127
13211,note_off,123,0,0,,0,,,48,127
13216,note_on,5,0,0,,8,,,44,127
13339,note_off,123,0,0,,8,,,44,127
13342,note_off,3,0,0,,8,,,68,127
13345,note_on,3,0,0,,5,,,65,127
13345,note_on,0,0,0,,1,,,49,127
13468,note_off,123,0,0,,1,,,49,127
13473,note_on,5,0,0,,1,,,49,127
13596,note_off,123,0,0,,1,,,49,127
13599,note_off,3,0,0,,5,,,65,127
13602,note_on,3,0,0,,1,,,73,127
13602,note_on,0,0,0,,5,,,53,127
13725,note_off,123,0,0,,5,,,53,127
13730,note_on,5,0,0,,1,,,49,127
13853,note_off,123,0,0,,1,,,49,127
13856,note_off,3,0,0,,1,,,73,127
13859,note_on,3,0,0,,10,,,69,127
13859,note_on,0,0,0,,6,,,54,127
13982,note_off,123,0,0,,6,,,54,127
13987,note_on,5,0,0,,6,,,42,127
14086,note_off,99,0,0,,10,,,69,127
14110,note_off,24,0,0,,6,,,42,127
14115,note_on,5,0,0,,6,,,78,127
14115,note_on,0,0,0,,10,,,45,127
14238,note_off,123,0,0,,10,,,45,127
14243,note_on,5,0,0,,6,,,42,127
14366,note_off,123,0,0,,6,,,42,127
14369,note_off,3,0,0,,6,,,78,127
14372,note_on,3,0,0,,2,,,74,127
14372,note_on,0,0,0,,12,,,47,127
14495,note_off,123,0,0,,12,,,47,127
14500,note_on,5,0,0,,12,,,47,127
14623,note_off,123,0,0,,12,,,47,127
14626,note_off,3,0,0,,2,,,74,127
14629,note_on,3,0,0,,12,,,71,127
14629,note_on,0,0,0,,2,,,50,127
14752,note_off,123,0,0,,2,,,50,127
14757,note_on,5,0,0,,12,,,47,127
14880,note_off,123,0,0,,12,,,47,127
14883,note_off,3,0,0,,12,,,71,127
14886,note_on,3,0,0,,8,,,68,127
14886,note_on,0,0,0,,4,,,52,127
15009,note_off,123,0,0,,4,,,52,127
15014,note_on,5,0,0,,4,,,52,127
15113,note_off,99,0,0,,8,,,68,127
15137,note_off,24,0,0,,4,,,52,127
15142,note_on,5,0,0,,4,,,76,127
15142,note_on,0,0,0,,8,,,56,127
15265,note_off,123,0,0,,8,,,56,127
15270,note_on,5,0,0,,4,,,52,127
15393,note_off,123,0,0,,4,,,52,127
15396,note_off,3,0,0,,4,,,76,127
15399,note_on,3,0,0,,1,,,73,127
15399,note_on,0,0,0,,10,,,57,127
15522,note_off,123,0,0,,10,,,57,127
15527,note_on,5,0,0,,10,,,57,127
15650,note_off,123,0,0,,10,,,57,127
15653,note_off,3,0,0,,1,,,73,127
15656,note_on,3,0,0,,10,,,69,127
15656,note_on,0,0,0,,1,,,61,127
15779,note_off,123,0,0,,1,,,61,127
15784,note_on,5,0,0,,10,,,57,127
15907,note_off,123,0,0,,10,,,57,127
15910,note_off,3,0,0,,10,,,69,127
15913,note_on,3,0,0,,6,,,66,127
15913,note_on,0,0,0,,2,,,62,127
16036,note_off,123,0,0,,2,,,62,127
16041,note_on,5,0,0,,2,,,50,127
16140,note_off,99,0,0,,6,,,66,127
16164,note_off,24,0,0,,2,,,50,127
16169,note_on,5,0,0,,2,,,74,127
16169,note_on,0,0,0,,6,,,54,127
16292,note_off,123,0,0,,6,,,54,127
16297,note_on,5,0,0,,2,,,50,127
16420,note_off,123,0,0,,2,,,50,127
16423,note_off,3,0,0,,2,,,74,127
16426,note_on,3,0,0,,12,,,71,127
16426,note_on,0,0,0,,8,,,56,127
16549,note_off,123,0,0,,8,,,56,127
16554,note_on,5,0,0,,8,,,56,127
16677,note_off,123,0,0,,8,,,56,127
16680,note_off,3,0,0,,12,,,71,127
16683,note_on,3,0,0,,8,,,68,127
16683,note_on,0,0,0,,12,,,59,127
16806,note_off,123,0,0,,12,,,59,127
16811,note_on,5,0,0,,8,,,56,127
16934,note_off,123,0,0,,8,,,56,127
16937,note_off,3,0,0,,8,,,68,127
16940,note_on,3,0,0,,5,,,65,127
16940,note_on,0,0,0,,1,,,61,127
17063,note_off,123,0,0,,1,,,61,127
17068,note_on,5,0,0,,1,,,49,127
17191,note_off,123,0,0,,1,,,49,127
17196,note_on,5,0,0,,1,,,73,127
17196,note_on,0,0,0,,5,,,53,127
17319,note_off,123,0,0,,5,,,53,127
17324,note_off,5,0,0,,5,,,65,127
17324,note_on,0,0,0,,1,,,49,127
17447,note_off,123,0,0,,1,,,49,127
17450,note_off,3,0,0,,1,,,73,127
17453,note_on,3,0,0,,10,,,69,127
17453,note_on,0,0,0,,6,,,54,127
17578,note_off,125,0,0,,10,,,69,127
17581,note_on,3,0,0,,12,,,71,127
17704,note_off,123,0,0,,6,,,54,127
17707,note_off,3,0,0,,12,,,71,127
17710,note_on,3,0,0,,1,,,73,127
17710,note_on,0,0,0,,4,,,52,127
17838,note_on,128,0,0,,1,,,61,127
17961,note_off,123,0,0,,4,,,52,127
17964,note_off,3,0,0,,1,,,61,127
17967,note_on,3,0,0,,6,,,66,127
17967,note_on,0,0,0,,2,,,50,127
18092,note_off,125,0,0,,6,,,66,127
18095,note_on,3,0,0,,5,,,65,127
18220,note_off,125,0,0,,5,,,65,127
18221,note_off,1,0,0,,1,,,73,127
18222,note_on,1,0,0,,6,,,66,127
18222,note_on,0,0,0,,12,,,71,127
18222,note_on,0,0,0,,12,,,59,127
18347,note_off,125,0,0,,6,,,66,127
18350,note_on,3,0,0,,8,,,68,127
18473,note_off,123,0,0,,12,,,59,127
18473,note_off,0,0,0,,2,,,50,127
18476,note_off,3,0,0,,8,,,68,127
18477,note_off,1,0,0,,12,,,71,127
18478,note_on,1,0,0,,1,,,73,127
18478,note_on,0,0,0,,1,,,49,127
18478,note_on,0,0,0,,1,,,61,127
18603,note_off,125,0,0,,1,,,73,127
18606,note_on,3,0,0,,1,,,73,127
18731,note_off,125,0,0,,1,,,73,127
18734,note_on,3,0,0,,5,,,77,127
18859,note_off,125,0,0,,5,,,77,127
18862,note_on,3,0,0,,1,,,73,127
18987,note_off,125,0,0,,1,,,73,127
18988,note_off,1,0,0,,1,,,61,127
18988,note_off,0,0,0,,1,,,49,127
18989,note_on,1,0,0,,8,,,80,127
19114,note_off,125,0,0,,8,,,80,127
19117,note_on,3,0,0,,8,,,68,127
19242,note_off,125,0,0,,8,,,68,127
19245,note_on,3,0,0,,0,,,72,127
19370,note_off,125,0,0,,0,,,72,127
19373,note_on,3,0,0,,8,,,68,127
19498,note_off,125,0,0,,8,,,68,127
19501,note_on,3,0,0,,1,,,73,127
19626,note_off,125,0,0,,1,,,73,127
19629,note_on,3,0,0,,8,,,68,127
19754,note_off,125,0,0,,8,,,68,127
19757,note_on,3,0,0,,5,,,65,127
19882,note_off,125,0,0,,5,,,65,127
19885,note_on,3,0,0,,8,,,68,127
20010,note_off,125,0,0,,8,,,68,127
20013,note_on,3,0,0,,1,,,73,127
20138,note_off,125,0,0,,1,,,73,127
20141,note_on,3,0,0,,5,,,77,127
20266,note_off,125,0,0,,5,,,77,127
20269,note_on,3,0,0,,8,,,68,127
20394,note_off,125,0,0,,8,,,68,127
20397,note_on,3,0,0,,1,,,73,127
20522,note_off,125,0,0,,1,,,73,127
20525,note_on,3,0,0,,5,,,65,127
20650,note_off,125,0,0,,5,,,65,127
20653,note_on,3,0,0,,8,,,68,127
20778,note_off,125,0,0,,8,,,68,127
20781,note_on,3,0,0,,1,,,49,127
20904,note_off,123,0,0,,1,,,49,127
20909,note_on,5,0,0,,5,,,53,127
21032,note_off,123,0,0,,5,,,53,127
21037,note_on,5,0,0,,8,,,44,127
21160,note_off,123,0,0,,8,,,44,127
21165,note_on,5,0,0,,1,,,49,127
21288,note_off,123,0,0,,1,,,49,127
21293,note_on,5,0,0,,5,,,41,127
21416,note_off,123,0,0,,5,,,41,127
21421,note_on,5,0,0,,8,,,44,127
21544,note_off,123,0,0,,8,,,44,127
21549,note_on,5,0,0,,1,,,37,127
22060,note_off,511,0,0,,1,,,37,127
22061,note_on,1,0,0,,1,,,49,127
22061,note_on,0,0,0,,1,,,61,127
22189,note_on,128,0,0,,1,,,73,127
22314,note_off,125,0,0,,1,,,73,127
22317,note_on,3,0,0,,5,,,77,127
22442,note_off,125,0,0,,5,,,77,127
22445,note_on,3,0,0,,1,,,73,127
22570,note_off,125,0,0,,1,,,73,127
22573,note_on,3,0,0,,8,,,80,127
22698,note_off,125,0,0,,8,,,80,127
22701,note_on,3,0,0,,8,,,68,127
22826,note_off,125,0,0,,8,,,68,127
22829,note_on,3,0,0,,0,,,72,127
22954,note_off,125,0,0,,0,,,72,127
22957,note_on,3,0,0,,8,,,68,127
23082,note_off,125,0,0,,8,,,68,127
23085,note_on,3,0,0,,1,,,73,127
23208,note_off,123,0,0,,1,,,61,127
23208,note_off,0,0,0,,1,,,49,127
23213,note_on,5,0,0,,1,,,61,127
23336,note_off,123,0,0,,1,,,61,127
23339,note_off,3,0,0,,1,,,73,127
23342,note_on,3,0,0,,1,,,73,127
23342,note_on,0,0,0,,5,,,65,127
23465,note_off,123,0,0,,5,,,65,127
23470,note_on,5,0,0,,1,,,61,127
23593,note_off,123,0,0,,1,,,61,127
23596,note_off,3,0,0,,1,,,73,127
23599,note_on,3,0,0,,10,,,69,127
23599,note_on,0,0,0,,6,,,66,127
23722,note_off,123,0,0,,6,,,66,127
23727,note_on,5,0,0,,6,,,54,127
23850,note_off,123,0,0,,6,,,54,127
23853,note_off,3,0,0,,10,,,69,127
23856,note_on,3,0,0,,10,,,81,127
23856,note_on,0,0,0,,10,,,57,127
23979,note_off,123,0,0,,10,,,57,127
23984,note_on,5,0,0,,6,,,54,127
24107,note_off,123,0,0,,6,,,54,127
24110,note_off,3,0,0,,10,,,81,127
24113,note_on,3,0,0,,8,,,80,127
24113,note_on,0,0,0,,1,,,61,127
24236,note_off,123,0,0,,1,,,61,127
24241,note_on,5,0,0,,1,,,49,127
24340,note_off,99,0,0,,8,,,80,127
24364,note_off,24,0,0,,1,,,49,127
24369,note_on,5,0,0,,1,,,73,127
24369,note_on,0,0,0,,5,,,53,127
24492,note_off,123,0,0,,5,,,53,127
24497,note_on,5,0,0,,1,,,49,127
24620,note_off,123,0,0,,1,,,49,127
24623,note_off,3,0,0,,1,,,73,127
24626,note_on,3,0,0,,11,,,70,127
24626,note_on,0,0,0,,6,,,54,127
24749,note_off,123,0,0,,6,,,54,127
24754,note_on,5,0,0,,6,,,42,127
24877,note_off,123,0,0,,6,,,42,127
24880,note_off,3,0,0,,11,,,70,127
24883,note_on,3,0,0,,6,,,78,127
24883,note_on,0,0,0,,11,,,46,127
25006,note_off,123,0,0,,11,,,46,127
25011,note_on,5,0,0,,6,,,42,127
25134,note_off,123,0,0,,6,,,42,127
25137,note_off,3,0,0,,6,,,78,127
25140,note_on,3,0,0,,2,,,74,127
25140,note_on,0,0,0,,12,,,47,127
25263,note_off,123,0,0,,12,,,47,127
25268,note_on,5,0,0,,12,,,47,127
25367,note_off,99,0,0,,2,,,74,127
25391,note_off,24,0,0,,12,,,47,127
25396,note_on,5,0,0,,12,,,71,127
25396,note_on,0,0,0,,2,,,50,127
25519,note_off,123,0,0,,2,,,50,127
25524,note_on,5,0,0,,12,,,47,127
25647,note_off,123,0,0,,12,,,47,127
25650,note_off,3,0,0,,12,,,71,127
25653,note_on,3,0,0,,1,,,73,127
25653,note_on,0,0,0,,6,,,54,127
25776,note_off,123,0,0,,6,,,54,127
25781,note_on,5,0,0,,6,,,54,127
25904,note_off,123,0,0,,6,,,54,127
25907,note_off,3,0,0,,1,,,73,127
25910,note_on,3,0,0,,6,,,78,127
25910,note_on,0,0,0,,11,,,58,127
26033,note_off,123,0,0,,11,,,58,127
26038,note_on,5,0,0,,6,,,54,127
26161,note_off,123,0,0,,6,,,54,127
26164,note_off,3,0,0,,6,,,78,127
26167,note_on,3,0,0,,3,,,75,127
26167,note_on,0,0,0,,12,,,59,127
26290,note_off,123,0,0,,12,,,59,127
26295,note_on,5,0,0,,12,,,47,127
26394,note_off,99,0,0,,3,,,75,127
26418,note_off,24,0,0,,12,,,47,127
26423,note_on,5,0,0,,12,,,71,127
26423,note_on,0,0,0,,3,,,51,127
26546,note_off,123,0,0,,3,,,51,127
26551,note_on,5,0,0,,12,,,47,127
26674,note_off,123,0,0,,12,,,47,127
26677,note_off,3,0,0,,12,,,71,127
26680,note_on,3,0,0,,7,,,67,127
26680,note_on,0,0,0,,4,,,52,127
26803,note_off,123,0,0,,4,,,52,127
26808,note_on,5,0,0,,4,,,52,127
26931,note_off,123,0,0,,4,,,52,127
26934,note_off,3,0,0,,7,,,67,127
26937,note_on,3,0,0,,7,,,79,127
26937,note_on,0,0,0,,7,,,55,127
27060,note_off,123,0,0,,7,,,55,127
27065,note_on,5,0,0,,4,,,52,127
27188,note_off,123,0,0,,4,,,52,127
27191,note_off,3,0,0,,7,,,79,127
27194,note_on,3,0,0,,6,,,78,127
27194,note_on,0,0,0,,12,,,59,127
27317,note_off,123,0,0,,12,,,59,127
27322,note_on,5,0,0,,12,,,59,127
27421,note_off,99,0,0,,6,,,78,127
27445,note_off,24,0,0,,12,,,59,127
27450,note_on,5,0,0,,12,,,83,127
27450,note_on,0,0,0,,3,,,63,127
27573,note_off,123,0,0,,3,,,63,127
27578,note_on,5,0,0,,12,,,59,127
27701,note_off,123,0,0,,12,,,59,127
27704,note_off,3,0,0,,12,,,83,127
27707,note_on,3,0,0,,8,,,80,127
27707,note_on,0,0,0,,4,,,64,127
27830,note_off,123,0,0,,4,,,64,127
27835,note_on,5,0,0,,4,,,52,127
27958,note_off,123,0,0,,4,,,52,127
27961,note_off,3,0,0,,8,,,80,127
27964,note_on,3,0,0,,4,,,76,127
27964,note_on,0,0,0,,8,,,56,127
28087,note_off,123,0,0,,8,,,56,127
28092,note_on,5,0,0,,4,,,52,127
28215,note_off,123,0,0,,4,,,52,127
28218,note_off,3,0,0,,4,,,76,127
28221,note_on,3,0,0,,1,,,73,127
28221,note_on,0,0,0,,10,,,57,127
28344,note_off,123,0,0,,10,,,57,127
28349,note_on,5,0,0,,10,,,45,127
28448,note_off,99,0,0,,1,,,73,127
28472,note_off,24,0,0,,10,,,45,127
28477,note_on,5,0,0,,10,,,69,127
28477,note_on,0,0,0,,1,,,49,127
28600,note_off,123,0,0,,1,,,49,127
28605,note_on,5,0,0,,10,,,45,127
28728,note_off,123,0,0,,10,,,45,127
28731,note_off,3,0,0,,10,,,69,127
28734,note_on,3,0,0,,12,,,71,127
28734,note_on,0,0,0,,4,,,52,127
28857,note_off,123,0,0,,4,,,52,127
28862,note_on,5,0,0,,4,,,40,127
28985,note_off,123,0,0,,4,,,40,127
28988,note_off,3,0,0,,12,,,71,127
28991,note_on,3,0,0,,4,,,76,127
28991,note_on,0,0,0,,8,,,44,127
29114,note_off,123,0,0,,8,,,44,127
29119,note_on,5,0,0,,4,,,40,127
29242,note_off,123,0,0,,4,,,40,127
29245,note_off,3,0,0,,4,,,76,127
29248,note_on,3,0,0,,1,,,73,127
29248,note_on,0,0,0,,10,,,45,127
29371,note_off,123,0,0,,10,,,45,127
29376,note_on,5,0,0,,10,,,45,127
29475,note_off,99,0,0,,1,,,73,127
29499,note_off,24,0,0,,10,,,45,127
29504,note_on,5,0,0,,10,,,81,127
29504,note_on,0,0,0,,1,,,49,127
29627,note_off,123,0,0,,1,,,49,127
29632,note_on,5,0,0,,10,,,45,127
29755,note_off,123,0,0,,10,,,45,127
29758,note_off,3,0,0,,10,,,81,127
29761,note_on,3,0,0,,6,,,78,127
29761,note_on,0,0,0,,2,,,50,127
29884,note_off,123,0,0,,2,,,50,127
29889,note_on,5,0,0,,2,,,50,127
30012,note_off,123,0,0,,2,,,50,127
30015,note_off,3,0,0,,6,,,78,127
30018,note_on,3,0,0,,2,,,74,127
30018,note_on,0,0,0,,6,,,54,127
30141,note_off,123,0,0,,6,,,54,127
30146,note_on,5,0,0,,2,,,50,127
30269,note_off,123,0,0,,2,,,50,127
30272,note_off,3,0,0,,2,,,74,127
30275,note_on,3,0,0,,12,,,71,127
30275,note_on,0,0,0,,8,,,56,127
30398,note_off,123,0,0,,8,,,56,127
30403,note_on,5,0,0,,8,,,56,127
30502,note_off,99,0,0,,12,,,71,127
30526,note_off,24,0,0,,8,,,56,127
30531,note_on,5,0,0,,8,,,80,127
30531,note_on,0,0,0,,12,,,59,127
30654,note_off,123,0,0,,12,,,59,127
30659,note_on,5,0,0,,8,,,56,127
30782,note_off,123,0,0,,8,,,56,127
30785,note_off,3,0,0,,8,,,80,127
30788,note_on,3,0,0,,5,,,77,127
30788,note_on,0,0,0,,1,,,61,127
30911,note_off,123,0,0,,1,,,61,127
30916,note_on,5,0,0,,1,,,49,127
31039,note_off,123,0,0,,1,,,49,127
31042,note_off,3,0,0,,5,,,77,127
31045,note_on,3,0,0,,1,,,73,127
31045,note_on,0,0,0,,5,,,53,127
31168,note_off,123,0,0,,5,,,53,127
31173,note_on,5,0,0,,1,,,49,127
31296,note_off,123,0,0,,1,,,49,127
31299,note_off,3,0,0,,1,,,73,127
31302,note_on,3,0,0,,10,,,69,127
31302,note_on,0,0,0,,6,,,54,127
31427,note_off,125,0,0,,10,,,69,127
31430,note_on,3,0,0,,6,,,66,127
31553,note_off,123,0,0,,6,,,54,127
31556,note_off,3,0,0,,6,,,66,127
31559,note_on,3,0,0,,10,,,69,127
31559,note_on,0,0,0,,6,,,42,127
31684,note_off,125,0,0,,10,,,69,127
31687,note_on,3,0,0,,6,,,66,127
31810,note_off,123,0,0,,6,,,42,127
31813,note_off,3,0,0,,6,,,66,127
31816,note_on,3,0,0,,1,,,73,127
31816,note_on,0,0,0,,4,,,40,127
31941,note_off,125,0,0,,1,,,73,127
31944,note_on,3,0,0,,1,,,73,127
32067,note_off,123,0,0,,4,,,40,127
32070,note_off,3,0,0,,1,,,73,127
32073,note_on,3,0,0,,4,,,76,127
32073,note_on,0,0,0,,4,,,52,127
32198,note_off,125,0,0,,4,,,76,127
32201,note_on,3,0,0,,1,,,73,127
32324,note_off,123,0,0,,4,,,52,127
32327,note_off,3,0,0,,1,,,73,127
32330,note_on,3,0,0,,6,,,78,127
32330,note_on,0,0,0,,2,,,50,127
32455,note_off,125,0,0,,6,,,78,127
32458,note_on,3,0,0,,6,,,66,127
32581,note_off,123,0,0,,2,,,50,127
32584,note_off,3,0,0,,6,,,66,127
32587,note_on,3,0,0,,10,,,69,127
32587,note_on,0,0,0,,2,,,38,127
32712,note_off,125,0,0,,10,,,69,127
32715,note_on,3,0,0,,6,,,66,127
32838,note_off,123,0,0,,2,,,38,127
32841,note_off,3,0,0,,6,,,66,127
32844,note_on,3,0,0,,1,,,73,127
32844,note_on,0,0,0,,1,,,37,127
32969,note_off,125,0,0,,1,,,73,127
32972,note_on,3,0,0,,1,,,61,127
33095,note_off,123,0,0,,1,,,37,127
33098,note_off,3,0,0,,1,,,61,127
33101,note_on,3,0,0,,5,,,65,127
33101,note_on,0,0,0,,1,,,49,127
33226,note_off,125,0,0,,5,,,65,127
33229,note_on,3,0,0,,1,,,61,127
33354,note_off,125,0,0,,1,,,61,127
33354,note_off,0,0,0,,1,,,49,127
33357,note_on,3,0,0,,6,,,66,127
33485,note_on,128,0,0,,6,,,54,127
33608,note_off,123,0,0,,6,,,54,127
33611,note_off,3,0,0,,6,,,66,127
33614,note_on,3,0,0,,6,,,66,127
33614,note_on,0,0,0,,10,,,69,127
33614,note_on,0,0,0,,10,,,57,127
33737,note_off,123,0,0,,10,,,57,127
33742,note_on,5,0,0,,6,,,54,127
33865,note_off,123,0,0,,6,,,54,127
33868,note_off,3,0,0,,10,,,69,127
33868,note_off,0,0,0,,6,,,66,127
33871,note_on,3,0,0,,8,,,68,127
33871,note_on,0,0,0,,1,,,61,127
33994,note_off,123,0,0,,1,,,61,127
33999,note_on,5,0,0,,1,,,49,127
34122,note_off,123,0,0,,1,,,49,127
34125,note_off,3,0,0,,8,,,68,127
34128,note_on,3,0,0,,1,,,73,127
34128,note_on,0,0,0,,5,,,53,127
34251,note_off,123,0,0,,5,,,53,127
34256,note_on,5,0,0,,1,,,49,127
34379,note_off,123,0,0,,1,,,49,127
34382,note_off,3,0,0,,1,,,73,127
34385,note_on,3,0,0,,10,,,69,127
34385,note_on,0,0,0,,6,,,54,127
34508,note_off,123,0,0,,6,,,54,127
34513,note_on,5,0,0,,6,,,42,127
34636,note_off,123,0,0,,6,,,42,127
34639,note_off,3,0,0,,10,,,69,127
34642,note_on,3,0,0,,10,,,81,127
34642,note_on,0,0,0,,10,,,45,127
34765,note_off,123,0,0,,10,,,45,127
34770,note_on,5,0,0,,6,,,42,127
34893,note_off,123,0,0,,6,,,42,127
34896,note_off,3,0,0,,10,,,81,127
34899,note_on,3,0,0,,8,,,80,127
34899,note_on,0,0,0,,1,,,49,127
35022,note_off,123,0,0,,1,,,49,127
35027,note_on,5,0,0,,1,,,37,127
35150,note_off,123,0,0,,1,,,37,127
35155,note_on,5,0,0,,1,,,73,127
35155,note_on,0,0,0,,5,,,41,127
35278,note_off,123,0,0,,5,,,41,127
35283,note_off,5,0,0,,8,,,80,127
35283,note_on,0,0,0,,1,,,37,127
35406,note_off,123,0,0,,1,,,37,127
35409,note_off,3,0,0,,1,,,73,127
35412,note_on,3,0,0,,10,,,69,127
35412,note_on,0,0,0,,6,,,42,127
35537,note_off,125,0,0,,10,,,69,127
35540,note_on,3,0,0,,1,,,73,127
35663,note_off,123,0,0,,6,,,42,127
35666,note_off,3,0,0,,1,,,73,127
35669,note_on,3,0,0,,2,,,74,127
35669,note_on,0,0,0,,12,,,47,127
35794,note_off,125,0,0,,2,,,74,127
35797,note_on,3,0,0,,6,,,78,127
35920,note_off,123,0,0,,12,,,47,127
35923,note_off,3,0,0,,6,,,78,127
35926,note_on,3,0,0,,10,,,69,127
35926,note_on,0,0,0,,1,,,49,127
36051,note_off,125,0,0,,10,,,69,127
36054,note_on,3,0,0,,6,,,78,127
36177,note_off,123,0,0,,1,,,49,127
36180,note_off,3,0,0,,6,,,78,127
36183,note_on,3,0,0,,8,,,68,127
36183,note_on,0,0,0,,1,,,37,127
36308,note_off,125,0,0,,8,,,68,127
36311,note_on,3,0,0,,5,,,77,127
36434,note_off,123,0,0,,1,,,37,127
36437,note_off,3,0,0,,5,,,77,127
36440,note_on,3,0,0,,6,,,78,127
36440,note_on,0,0,0,,6,,,42,127
36565,note_off,125,0,0,,6,,,78,127
36568,note_on,3,0,0,,6,,,66,127
36691,note_off,123,0,0,,6,,,42,127
36694,note_off,3,0,0,,6,,,66,127
36697,note_on,3,0,0,,10,,,69,127
36697,note_on,0,0,0,,6,,,54,127
36822,note_off,125,0,0,,10,,,69,127
36825,note_on,3,0,0,,6,,,66,127
36948,note_off,123,0,0,,6,,,54,127
36951,note_off,3,0,0,,6,,,66,127
36954,note_on,3,0,0,,1,,,73,127
36954,note_on,0,0,0,,4,,,52,127
37079,note_off,125,0,0,,1,,,73,127
37082,note_on,3,0,0,,1,,,73,127
37205,note_off,123,0,0,,4,,,52,127
37208,note_off,3,0,0,,1,,,73,127
37211,note_on,3,0,0,,4,,,76,127
37211,note_on,0,0,0,,4,,,40,127
37336,note_off,125,0,0,,4,,,76,127
37339,note_on,3,0,0,,1,,,73,127
37462,note_off,123,0,0,,4,,,40,127
37465,note_off,3,0,0,,1,,,73,127
37468,note_on,3,0,0,,6,,,78,127
37468,note_on,0,0,0,,2,,,38,127
37593,note_off,125,0,0,,6,,,78,127
37596,note_on,3,0,0,,6,,,66,127
37719,note_off,123,0,0,,2,,,38,127
37722,note_off,3,0,0,,6,,,66,127
37725,note_on,3,0,0,,10,,,69,127
37725,note_on,0,0,0,,2,,,50,127
37850,note_off,125,0,0,,10,,,69,127
37853,note_on,3,0,0,,6,,,66,127
37978,note_off,125,0,0,,6,,,66,127
37978,note_off,0,0,0,,2,,,50,127
37981,note_on,3,0,0,,8,,,68,127
38109,note_on,128,0,0,,1,,,61,127
38232,note_off,123,0,0,,1,,,61,127
38235,note_off,3,0,0,,8,,,68,127
38238,note_on,3,0,0,,1,,,73,127
38238,note_on,0,0,0,,5,,,65,127
38361,note_off,123,0,0,,5,,,65,127
38366,note_on,5,0,0,,1,,,61,127
38489,note_off,123,0,0,,1,,,61,127
38492,note_off,3,0,0,,1,,,73,127
38495,note_on,3,0,0,,10,,,69,127
38495,note_on,0,0,0,,6,,,66,127
38618,note_off,123,0,0,,6,,,66,127
38623,note_on,5,0,0,,6,,,54,127
38746,note_off,123,0,0,,6,,,54,127
38749,note_off,3,0,0,,10,,,69,127
38752,note_on,3,0,0,,10,,,81,127
38752,note_on,0,0,0,,10,,,57,127
38875,note_off,123,0,0,,10,,,57,127
38880,note_on,5,0,0,,6,,,54,127
39003,note_off,123,0,0,,6,,,54,127
39006,note_off,3,0,0,,10,,,81,127
39009,note_on,3,0,0,,8,,,80,127
39009,note_on,0,0,0,,1,,,61,127
39132,note_off,123,0,0,,1,,,61,127
39137,note_on,5,0,0,,1,,,49,127
39260,note_off,123,0,0,,1,,,49,127
39265,note_on,5,0,0,,1,,,73,127
39265,note_on,0,0,0,,5,,,53,127
39388,note_off,123,0,0,,5,,,53,127
39393,note_off,5,0,0,,8,,,80,127
39393,note_on,0,0,0,,1,,,49,127
39516,note_off,123,0,0,,1,,,49,127
39519,note_off,3,0,0,,1,,,73,127
39522,note_on,3,0,0,,10,,,69,127
39522,note_on,0,0,0,,6,,,54,127
39647,note_off,125,0,0,,10,,,69,127
39650,note_on,3,0,0,,1,,,73,127
39773,note_off,123,0,0,,6,,,54,127
39776,note_off,3,0,0,,1,,,73,127
39779,note_on,3,0,0,,2,,,74,127
39779,note_on,0,0,0,,12,,,59,127
39904,note_off,125,0,0,,2,,,74,127
39907,note_on,3,0,0,,6,,,66,127
40030,note_off,123,0,0,,12,,,59,127
40033,note_off,3,0,0,,6,,,66,127
40036,note_on,3,0,0,,10,,,69,127
40036,note_on,0,0,0,,1,,,61,127
40161,note_off,125,0,0,,10,,,69,127
40164,note_on,3,0,0,,6,,,66,127
40287,note_off,123,0,0,,1,,,61,127
40290,note_off,3,0,0,,6,,,66,127
40293,note_on,3,0,0,,8,,,68,127
40293,note_on,0,0,0,,1,,,49,127
40418,note_off,125,0,0,,8,,,68,127
40421,note_on,3,0,0,,5,,,65,127
40544,note_off,123,0,0,,1,,,49,127
40547,note_off,3,0,0,,5,,,65,127
40550,note_on,3,0,0,,6,,,66,127
40550,note_on,0,0,0,,6,,,54,127
40675,note_off,125,0,0,,6,,,66,127
40678,note_on,3,0,0,,1,,,73,127
40801,note_off,123,0,0,,6,,,54,127
40804,note_off,3,0,0,,1,,,73,127
40807,note_on,3,0,0,,2,,,74,127
40807,note_on,0,0,0,,12,,,47,127
40932,note_off,125,0,0,,2,,,74,127
40935,note_on,3,0,0,,6,,,78,127
41058,note_off,123,0,0,,12,,,47,127
41061,note_off,3,0,0,,6,,,78,127
41064,note_on,3,0,0,,10,,,69,127
41064,note_on,0,0,0,,1,,,49,127
41189,note_off,125,0,0,,10,,,69,127
41192,note_on,3,0,0,,6,,,78,127
41315,note_off,123,0,0,,1,,,49,127
41318,note_off,3,0,0,,6,,,78,127
41321,note_on,3,0,0,,8,,,68,127
41321,note_on,0,0,0,,1,,,37,127
41446,note_off,125,0,0,,8,,,68,127
41449,note_on,3,0,0,,5,,,77,127
41572,note_off,123,0,0,,1,,,37,127
41575,note_off,3,0,0,,5,,,77,127
41578,note_on,3,0,0,,6,,,78,127
41578,note_on,0,0,0,,6,,,42,127
41703,note_off,125,0,0,,6,,,78,127
41706,note_on,3,0,0,,1,,,73,127
41831,note_off,125,0,0,,1,,,73,127
41834,note_on,3,0,0,,10,,,69,127
41959,note_off,125,0,0,,10,,,69,127
41962,note_on,3,0,0,,1,,,73,127
42087,note_off,125,0,0,,1,,,73,127
42090,note_on,3,0,0,,6,,,78,127
42215,note_off,125,0,0,,6,,,78,127
42218,note_on,3,0,0,,10,,,81,127
42343,note_off,125,0,0,,10,,,81,127
42346,note_on,3,0,0,,1,,,73,127
42471,note_off,125,0,0,,1,,,73,127
42474,note_on,3,0,0,,6,,,78,127
42599,note_off,125,0,0,,6,,,78,127
42602,note_on,3,0,0,,10,,,69,127
42727,note_off,125,0,0,,10,,,69,127
42730,note_on,3,0,0,,1,,,73,127
42855,note_off,125,0,0,,1,,,73,127
42858,note_off,3,0,0,,6,,,42,127
42858,note_on,0,0,0,,6,,,66,127
42983,note_off,125,0,0,,6,,,66,127
42986,note_on,3,0,0,,10,,,69,127
43111,note_off,125,0,0,,10,,,69,127
43114,note_on,3,0,0,,1,,,49,127
43237,note_off,123,0,0,,1,,,49,127
43242,note_on,5,0,0,,6,,,54,127
43365,note_off,123,0,0,,6,,,54,127
43370,note_on,5,0,0,,10,,,45,127
43493,note_off,123,0,0,,10,,,45,127
43498,note_on,5,0,0,,1,,,49,127
43621,note_off,123,0,0,,1,,,49,127
43626,note_on,5,0,0,,6,,,42,127
45162,note_off,1536,0,0,,6,,,42,127
50688,end_of_track,5526,1,0,,,,,,
