tick,type,time,meta,track,program,channel,pitch,tempo,note,velocity
0,copyright,0,1,0,,,,,,
0,program_change,0,0,0,6,0,,,,
0,pitchwheel,0,0,0,,0,0,,,
0,program_change,0,0,0,6,1,,,,
0,pitchwheel,0,0,0,,1,-590,,,
0,program_change,0,0,0,6,2,,,,
0,pitchwheel,0,0,0,,2,-272,,,
0,program_change,0,0,0,6,3,,,,
0,pitchwheel,0,0,0,,3,-353,,,
0,program_change,0,0,0,6,4,,,,
0,pitchwheel,0,0,0,,4,-560,,,
0,program_change,0,0,0,6,5,,,,
0,pitchwheel,0,0,0,,5,-80,,,
0,program_change,0,0,0,6,6,,,,
0,pitchwheel,0,0,0,,6,-625,,,
0,program_change,0,0,0,6,7,,,,
0,pitchwheel,0,0,0,,7,-130,,,
0,program_change,0,0,0,6,8,,,,
0,pitchwheel,0,0,0,,8,-512,,,
0,program_change,0,0,0,6,10,,,,
0,pitchwheel,0,0,0,,10,-464,,,
0,program_change,0,0,0,6,11,,,,
0,pitchwheel,0,0,0,,11,-208,,,
0,program_change,0,0,0,6,12,,,,
0,pitchwheel,0,0,0,,12,-553,,,
0,set_tempo,0,1,0,,,,500000,,
115,note_on,115,0,0,,3,,,63,127
173,note_on,58,0,0,,2,,,62,127
181,note_off,8,0,0,,3,,,63,127
230,note_on,49,0,0,,3,,,63,127
238,note_off,8,0,0,,2,,,62,127
344,note_off,106,0,0,,3,,,63,127
345,note_on,1,0,0,,7,,,67,127
574,note_off,229,0,0,,7,,,67,127
575,note_on,1,0,0,,11,,,70,127
804,note_off,229,0,0,,11,,,70,127
805,note_on,1,0,0,,3,,,51,127
805,note_on,0,0,0,,3,,,75,127
863,note_on,58,0,0,,2,,,50,127
871,note_off,8,0,0,,3,,,51,127
920,note_on,49,0,0,,3,,,51,127
928,note_off,8,0,0,,2,,,50,127
1034,note_off,106,0,0,,3,,,51,127
1035,note_on,1,0,0,,7,,,55,127
1264,note_off,229,0,0,,7,,,55,127
1265,note_on,1,0,0,,11,,,58,127
1494,note_off,229,0,0,,11,,,58,127
1494,note_off,0,0,0,,3,,,75,127
1495,note_on,1,0,0,,3,,,63,127
1495,note_on,0,0,0,,7,,,67,127
1553,note_on,58,0,0,,5,,,65,127
1561,note_off,8,0,0,,7,,,67,127
1610,note_on,49,0,0,,7,,,67,127
1618,note_off,8,0,0,,5,,,65,127
1724,note_off,106,0,0,,7,,,67,127
1725,note_on,1,0,0,,11,,,70,127
1954,note_off,229,0,0,,11,,,70,127
1955,note_on,1,0,0,,3,,,75,127
2184,note_off,229,0,0,,3,,,75,127
2184,note_off,0,0,0,,3,,,63,127
2185,note_on,1,0,0,,3,,,51,127
2185,note_on,0,0,0,,7,,,79,127
2243,note_on,58,0,0,,2,,,50,127
2251,note_off,8,0,0,,3,,,51,127
2300,note_on,49,0,0,,3,,,51,127
2308,note_off,8,0,0,,2,,,50,127
2414,note_off,106,0,0,,3,,,51,127
2415,note_on,1,0,0,,7,,,55,127
2644,note_off,229,0,0,,7,,,55,127
2645,note_on,1,0,0,,11,,,58,127
2874,note_off,229,0,0,,11,,,58,127
2874,note_off,0,0,0,,7,,,79,127
2875,note_on,1,0,0,,3,,,63,127
2875,note_on,0,0,0,,11,,,70,127
2933,note_on,58,0,0,,10,,,69,127
2941,note_off,8,0,0,,11,,,70,127
2990,note_on,49,0,0,,11,,,70,127
2998,note_off,8,0,0,,10,,,69,127
3104,note_off,106,0,0,,11,,,70,127
3105,note_on,1,0,0,,3,,,75,127
3334,note_off,229,0,0,,3,,,75,127
3335,note_on,1,0,0,,7,,,79,127
3564,note_off,229,0,0,,7,,,79,127
3564,note_off,0,0,0,,3,,,63,127
3565,note_on,1,0,0,,3,,,51,127
3565,note_on,0,0,0,,11,,,82,127
3623,note_on,58,0,0,,2,,,50,127
3631,note_off,8,0,0,,3,,,51,127
3680,note_on,49,0,0,,3,,,51,127
3688,note_off,8,0,0,,2,,,50,127
3794,note_off,106,0,0,,3,,,51,127
3795,note_on,1,0,0,,7,,,55,127
4024,note_off,229,0,0,,7,,,55,127
4025,note_on,1,0,0,,11,,,58,127
4254,note_off,229,0,0,,11,,,58,127
4255,note_on,1,0,0,,3,,,63,127
4369,note_off,114,0,0,,11,,,82,127
4370,note_on,1,0,0,,8,,,80,127
4484,note_off,114,0,0,,8,,,80,127
4484,note_off,0,0,0,,3,,,63,127
4485,note_on,1,0,0,,5,,,65,127
4485,note_on,0,0,0,,7,,,79,127
4599,note_off,114,0,0,,7,,,79,127
4600,note_on,1,0,0,,5,,,77,127
4714,note_off,114,0,0,,5,,,77,127
4714,note_off,0,0,0,,5,,,65,127
4715,note_on,1,0,0,,7,,,67,127
4715,note_on,0,0,0,,3,,,75,127
4829,note_off,114,0,0,,3,,,75,127
4830,note_on,1,0,0,,2,,,74,127
4944,note_off,114,0,0,,2,,,74,127
4944,note_off,0,0,0,,7,,,67,127
4945,note_on,1,0,0,,8,,,68,127
4945,note_on,0,0,0,,0,,,72,127
5059,note_off,114,0,0,,0,,,72,127
5059,note_off,0,0,0,,8,,,68,127
5060,note_on,1,0,0,,7,,,67,127
5060,note_on,0,0,0,,11,,,70,127
5174,note_off,114,0,0,,11,,,70,127
5174,note_off,0,0,0,,7,,,67,127
5175,note_on,1,0,0,,5,,,65,127
5175,note_on,0,0,0,,11,,,70,127
5404,note_off,229,0,0,,11,,,70,127
5404,note_off,0,0,0,,5,,,65,127
5405,note_on,1,0,0,,11,,,58,127
5405,note_on,0,0,0,,8,,,68,127
5634,note_off,229,0,0,,11,,,58,127
5635,note_on,1,0,0,,3,,,51,127
5711,note_off,76,0,0,,8,,,68,127
5712,note_on,1,0,0,,7,,,67,127
5788,note_off,76,0,0,,7,,,67,127
5789,note_on,1,0,0,,5,,,65,127
5865,note_off,76,0,0,,5,,,65,127
5866,note_on,1,0,0,,7,,,67,127
6095,note_off,229,0,0,,3,,,51,127
6096,note_on,1,0,0,,3,,,63,127
6211,note_off,115,0,0,,7,,,67,127
6325,note_off,114,0,0,,3,,,63,127
6326,note_on,1,0,0,,3,,,75,127
6326,note_on,0,0,0,,7,,,79,127
6384,note_on,58,0,0,,5,,,77,127
6392,note_off,8,0,0,,7,,,79,127
6441,note_on,49,0,0,,7,,,79,127
6449,note_off,8,0,0,,5,,,77,127
6555,note_off,106,0,0,,7,,,79,127
6556,note_on,1,0,0,,11,,,82,127
6785,note_off,229,0,0,,11,,,82,127
6785,note_off,0,0,0,,3,,,75,127
6786,note_on,1,0,0,,11,,,70,127
6786,note_on,0,0,0,,2,,,74,127
7015,note_off,229,0,0,,2,,,74,127
7015,note_off,0,0,0,,11,,,70,127
7016,note_on,1,0,0,,0,,,72,127
7016,note_on,0,0,0,,3,,,75,127
7074,note_on,58,0,0,,2,,,74,127
7082,note_off,8,0,0,,3,,,75,127
7131,note_on,49,0,0,,3,,,75,127
7139,note_off,8,0,0,,2,,,74,127
7245,note_off,106,0,0,,3,,,75,127
7246,note_on,1,0,0,,7,,,79,127
7475,note_off,229,0,0,,7,,,79,127
7475,note_off,0,0,0,,0,,,72,127
7476,note_on,1,0,0,,7,,,67,127
7476,note_on,0,0,0,,11,,,70,127
7705,note_off,229,0,0,,11,,,70,127
7705,note_off,0,0,0,,7,,,67,127
7706,note_on,1,0,0,,8,,,68,127
7706,note_on,0,0,0,,0,,,72,127
7764,note_on,58,0,0,,11,,,70,127
7772,note_off,8,0,0,,0,,,72,127
7821,note_on,49,0,0,,0,,,72,127
7829,note_off,8,0,0,,11,,,70,127
7935,note_off,106,0,0,,0,,,72,127
7936,note_on,1,0,0,,3,,,75,127
8165,note_off,229,0,0,,3,,,75,127
8165,note_off,0,0,0,,8,,,68,127
8166,note_on,1,0,0,,3,,,63,127
8166,note_on,0,0,0,,7,,,67,127
8395,note_off,229,0,0,,7,,,67,127
8395,note_off,0,0,0,,3,,,63,127
8396,note_on,1,0,0,,5,,,65,127
8396,note_on,0,0,0,,11,,,70,127
8472,note_off,76,0,0,,11,,,70,127
8473,note_on,1,0,0,,8,,,68,127
8549,note_off,76,0,0,,8,,,68,127
8550,note_on,1,0,0,,7,,,67,127
8626,note_off,76,0,0,,7,,,67,127
8626,note_off,0,0,0,,5,,,65,127
8627,note_on,1,0,0,,2,,,62,127
8627,note_on,0,0,0,,8,,,68,127
8799,note_off,172,0,0,,8,,,68,127
8800,note_on,1,0,0,,11,,,70,127
8856,note_off,56,0,0,,2,,,62,127
8857,note_on,1,0,0,,3,,,63,127
8857,note_on,0,0,0,,7,,,67,127
8865,note_off,8,0,0,,11,,,70,127
9028,note_off,163,0,0,,7,,,67,127
9029,note_on,1,0,0,,8,,,68,127
9085,note_off,56,0,0,,3,,,63,127
9086,note_on,1,0,0,,11,,,58,127
9086,note_on,0,0,0,,7,,,67,127
9094,note_off,8,0,0,,8,,,68,127
9143,note_on,49,0,0,,5,,,65,127
9151,note_off,8,0,0,,7,,,67,127
9200,note_on,49,0,0,,7,,,67,127
9208,note_off,8,0,0,,5,,,65,127
9257,note_on,49,0,0,,5,,,65,127
9265,note_off,8,0,0,,7,,,67,127
9314,note_on,49,0,0,,7,,,67,127
9322,note_off,8,0,0,,5,,,65,127
9371,note_on,49,0,0,,5,,,65,127
9379,note_off,8,0,0,,7,,,67,127
9428,note_on,49,0,0,,7,,,67,127
9436,note_off,8,0,0,,5,,,65,127
9485,note_on,49,0,0,,5,,,65,127
9493,note_off,8,0,0,,7,,,67,127
9542,note_on,49,0,0,,7,,,67,127
9550,note_off,8,0,0,,5,,,65,127
9599,note_on,49,0,0,,5,,,65,127
9607,note_off,8,0,0,,7,,,67,127
9713,note_off,106,0,0,,5,,,65,127
9771,note_off,58,0,0,,11,,,58,127
9772,note_on,1,0,0,,7,,,67,127
9772,note_on,0,0,0,,3,,,75,127
9772,note_on,0,0,0,,7,,,79,127
9830,note_on,58,0,0,,5,,,65,127
9838,note_off,8,0,0,,7,,,67,127
9887,note_on,49,0,0,,7,,,67,127
9895,note_off,8,0,0,,5,,,65,127
10001,note_off,106,0,0,,7,,,67,127
10002,note_on,1,0,0,,11,,,70,127
10231,note_off,229,0,0,,11,,,70,127
10231,note_off,0,0,0,,7,,,79,127
10231,note_off,0,0,0,,3,,,75,127
10232,note_on,1,0,0,,11,,,58,127
10232,note_on,0,0,0,,2,,,74,127
10232,note_on,0,0,0,,5,,,77,127
10461,note_off,229,0,0,,5,,,77,127
10461,note_off,0,0,0,,2,,,74,127
10461,note_off,0,0,0,,11,,,58,127
10462,note_on,1,0,0,,0,,,60,127
10462,note_on,0,0,0,,0,,,72,127
10462,note_on,0,0,0,,3,,,75,127
10520,note_on,58,0,0,,11,,,58,127
10528,note_off,8,0,0,,0,,,60,127
10577,note_on,49,0,0,,0,,,60,127
10585,note_off,8,0,0,,11,,,58,127
10691,note_off,106,0,0,,0,,,60,127
10692,note_on,1,0,0,,3,,,63,127
10921,note_off,229,0,0,,3,,,63,127
10921,note_off,0,0,0,,3,,,75,127
10921,note_off,0,0,0,,0,,,72,127
10922,note_on,1,0,0,,7,,,55,127
10922,note_on,0,0,0,,11,,,70,127
10922,note_on,0,0,0,,2,,,74,127
11151,note_off,229,0,0,,2,,,74,127
11151,note_off,0,0,0,,11,,,70,127
11151,note_off,0,0,0,,7,,,55,127
11152,note_on,1,0,0,,8,,,56,127
11152,note_on,0,0,0,,8,,,68,127
11152,note_on,0,0,0,,0,,,72,127
11210,note_on,58,0,0,,7,,,55,127
11218,note_off,8,0,0,,8,,,56,127
11267,note_on,49,0,0,,8,,,56,127
11275,note_off,8,0,0,,7,,,55,127
11381,note_off,106,0,0,,8,,,56,127
11382,note_on,1,0,0,,0,,,60,127
11611,note_off,229,0,0,,0,,,60,127
11611,note_off,0,0,0,,0,,,72,127
11611,note_off,0,0,0,,8,,,68,127
11612,note_on,1,0,0,,3,,,51,127
11612,note_on,0,0,0,,11,,,70,127
11612,note_on,0,0,0,,7,,,67,127
11841,note_off,229,0,0,,7,,,67,127
11841,note_off,0,0,0,,11,,,70,127
11841,note_off,0,0,0,,3,,,51,127
11842,note_on,1,0,0,,5,,,53,127
11842,note_on,0,0,0,,11,,,70,127
11918,note_off,76,0,0,,11,,,70,127
11919,note_on,1,0,0,,8,,,68,127
11995,note_off,76,0,0,,8,,,68,127
11996,note_on,1,0,0,,7,,,67,127
12072,note_off,76,0,0,,7,,,67,127
12072,note_off,0,0,0,,5,,,53,127
12073,note_on,1,0,0,,2,,,50,127
12073,note_on,0,0,0,,8,,,68,127
12245,note_off,172,0,0,,8,,,68,127
12246,note_on,1,0,0,,5,,,77,127
12302,note_off,56,0,0,,2,,,50,127
12303,note_on,1,0,0,,3,,,51,127
12303,note_on,0,0,0,,8,,,68,127
12311,note_off,8,0,0,,5,,,77,127
12474,note_off,163,0,0,,8,,,68,127
12475,note_on,1,0,0,,7,,,67,127
12531,note_off,56,0,0,,3,,,51,127
12532,note_on,1,0,0,,11,,,46,127
12588,note_off,56,0,0,,7,,,67,127
12589,note_on,1,0,0,,5,,,65,127
12647,note_on,58,0,0,,7,,,67,127
12655,note_off,8,0,0,,5,,,65,127
12704,note_on,49,0,0,,5,,,65,127
12712,note_off,8,0,0,,7,,,67,127
12761,note_on,49,0,0,,7,,,67,127
12769,note_off,8,0,0,,5,,,65,127
12818,note_on,49,0,0,,5,,,65,127
12826,note_off,8,0,0,,7,,,67,127
12875,note_on,49,0,0,,7,,,67,127
12883,note_off,8,0,0,,5,,,65,127
12932,note_on,49,0,0,,5,,,65,127
12940,note_off,8,0,0,,7,,,67,127
12989,note_on,49,0,0,,7,,,67,127
12997,note_off,8,0,0,,5,,,65,127
13046,note_on,49,0,0,,5,,,65,127
13054,note_off,8,0,0,,7,,,67,127
13160,note_off,106,0,0,,5,,,65,127
13218,note_off,58,0,0,,11,,,46,127
13219,note_on,1,0,0,,11,,,70,127
13219,note_on,0,0,0,,2,,,74,127
13277,note_on,58,0,0,,0,,,72,127
13285,note_off,8,0,0,,2,,,74,127
13334,note_on,49,0,0,,2,,,74,127
13342,note_off,8,0,0,,0,,,72,127
13448,note_off,106,0,0,,2,,,74,127
13449,note_on,1,0,0,,5,,,77,127
13678,note_off,229,0,0,,5,,,77,127
13678,note_off,0,0,0,,11,,,70,127
13679,note_on,1,0,0,,11,,,70,127
13679,note_on,0,0,0,,2,,,74,127
13908,note_off,229,0,0,,2,,,74,127
13908,note_off,0,0,0,,11,,,70,127
13909,note_on,1,0,0,,10,,,69,127
13909,note_on,0,0,0,,0,,,72,127
13967,note_on,58,0,0,,11,,,70,127
13975,note_off,8,0,0,,0,,,72,127
14024,note_on,49,0,0,,0,,,72,127
14032,note_off,8,0,0,,11,,,70,127
14138,note_off,106,0,0,,0,,,72,127
14139,note_on,1,0,0,,5,,,77,127
14368,note_off,229,0,0,,5,,,77,127
14368,note_off,0,0,0,,10,,,69,127
14369,note_on,1,0,0,,10,,,69,127
14369,note_on,0,0,0,,0,,,72,127
14598,note_off,229,0,0,,0,,,72,127
14598,note_off,0,0,0,,10,,,69,127
14599,note_on,1,0,0,,7,,,67,127
14599,note_on,0,0,0,,11,,,70,127
14657,note_on,58,0,0,,10,,,69,127
14665,note_off,8,0,0,,11,,,70,127
14714,note_on,49,0,0,,11,,,70,127
14722,note_off,8,0,0,,10,,,69,127
14828,note_off,106,0,0,,11,,,70,127
14829,note_on,1,0,0,,5,,,77,127
15058,note_off,229,0,0,,5,,,77,127
15058,note_off,0,0,0,,7,,,67,127
15059,note_on,1,0,0,,7,,,67,127
15059,note_on,0,0,0,,11,,,70,127
15288,note_off,229,0,0,,11,,,70,127
15288,note_off,0,0,0,,7,,,67,127
15289,note_on,1,0,0,,5,,,65,127
15289,note_on,0,0,0,,0,,,72,127
15347,note_on,58,0,0,,11,,,70,127
15355,note_off,8,0,0,,0,,,72,127
15404,note_on,49,0,0,,0,,,72,127
15412,note_off,8,0,0,,11,,,70,127
15461,note_on,49,0,0,,11,,,70,127
15469,note_off,8,0,0,,0,,,72,127
15518,note_on,49,0,0,,0,,,72,127
15526,note_off,8,0,0,,11,,,70,127
15575,note_on,49,0,0,,11,,,70,127
15583,note_off,8,0,0,,0,,,72,127
15632,note_on,49,0,0,,10,,,69,127
15640,note_off,8,0,0,,11,,,70,127
15689,note_on,49,0,0,,11,,,70,127
15697,note_off,8,0,0,,10,,,69,127
15745,note_off,48,0,0,,5,,,65,127
15746,note_on,1,0,0,,5,,,53,127
15746,note_on,0,0,0,,10,,,69,127
15754,note_off,8,0,0,,11,,,70,127
15975,note_off,221,0,0,,10,,,69,127
15975,note_off,0,0,0,,5,,,53,127
15976,note_on,1,0,0,,11,,,70,127
15976,note_on,0,0,0,,1,,,73,127
16034,note_on,58,0,0,,0,,,72,127
16042,note_off,8,0,0,,1,,,73,127
16091,note_on,49,0,0,,1,,,73,127
16099,note_off,8,0,0,,0,,,72,127
16205,note_off,106,0,0,,1,,,73,127
16206,note_on,1,0,0,,5,,,77,127
16435,note_off,229,0,0,,5,,,77,127
16435,note_off,0,0,0,,11,,,70,127
16436,note_on,1,0,0,,11,,,70,127
16436,note_on,0,0,0,,1,,,73,127
16665,note_off,229,0,0,,1,,,73,127
16665,note_off,0,0,0,,11,,,70,127
16666,note_on,1,0,0,,8,,,68,127
16666,note_on,0,0,0,,0,,,72,127
16724,note_on,58,0,0,,12,,,71,127
16732,note_off,8,0,0,,0,,,72,127
16781,note_on,49,0,0,,0,,,72,127
16789,note_off,8,0,0,,12,,,71,127
16895,note_off,106,0,0,,0,,,72,127
16896,note_on,1,0,0,,5,,,77,127
17125,note_off,229,0,0,,5,,,77,127
17125,note_off,0,0,0,,8,,,68,127
17126,note_on,1,0,0,,8,,,68,127
17126,note_on,0,0,0,,0,,,72,127
17355,note_off,229,0,0,,0,,,72,127
17355,note_off,0,0,0,,8,,,68,127
17356,note_on,1,0,0,,6,,,66,127
17356,note_on,0,0,0,,11,,,70,127
17414,note_on,58,0,0,,10,,,69,127
17422,note_off,8,0,0,,11,,,70,127
17471,note_on,49,0,0,,11,,,70,127
17479,note_off,8,0,0,,10,,,69,127
17585,note_off,106,0,0,,11,,,70,127
17586,note_on,1,0,0,,6,,,78,127
17815,note_off,229,0,0,,6,,,78,127
17815,note_off,0,0,0,,6,,,66,127
17816,note_on,1,0,0,,6,,,66,127
17816,note_on,0,0,0,,11,,,70,127
18045,note_off,229,0,0,,11,,,70,127
18045,note_off,0,0,0,,6,,,66,127
18046,note_on,1,0,0,,5,,,65,127
18046,note_on,0,0,0,,10,,,69,127
18104,note_on,58,0,0,,7,,,67,127
18112,note_off,8,0,0,,10,,,69,127
18161,note_on,49,0,0,,10,,,69,127
18169,note_off,8,0,0,,7,,,67,127
18275,note_off,106,0,0,,10,,,69,127
18276,note_on,1,0,0,,5,,,77,127
18505,note_off,229,0,0,,5,,,77,127
18505,note_off,0,0,0,,5,,,65,127
18506,note_on,1,0,0,,5,,,65,127
18735,note_off,229,0,0,,5,,,65,127
18736,note_on,1,0,0,,3,,,63,127
18736,note_on,0,0,0,,6,,,66,127
18794,note_on,58,0,0,,5,,,65,127
18802,note_off,8,0,0,,6,,,66,127
18851,note_on,49,0,0,,6,,,66,127
18859,note_off,8,0,0,,5,,,65,127
18965,note_off,106,0,0,,6,,,66,127
18965,note_off,0,0,0,,3,,,63,127
18966,note_on,1,0,0,,0,,,60,127
18966,note_on,0,0,0,,3,,,75,127
19195,note_off,229,0,0,,3,,,75,127
19195,note_off,0,0,0,,0,,,60,127
19196,note_on,1,0,0,,11,,,58,127
19196,note_on,0,0,0,,6,,,66,127
19425,note_off,229,0,0,,6,,,66,127
19425,note_off,0,0,0,,11,,,58,127
19426,note_on,1,0,0,,10,,,57,127
19426,note_on,0,0,0,,5,,,65,127
19484,note_on,58,0,0,,4,,,64,127
19492,note_off,8,0,0,,5,,,65,127
19541,note_on,49,0,0,,5,,,65,127
19549,note_off,8,0,0,,4,,,64,127
19655,note_off,106,0,0,,5,,,65,127
19655,note_off,0,0,0,,10,,,57,127
19656,note_on,1,0,0,,0,,,60,127
19656,note_on,0,0,0,,10,,,69,127
19885,note_off,229,0,0,,10,,,69,127
19885,note_off,0,0,0,,0,,,60,127
19886,note_on,1,0,0,,3,,,63,127
19886,note_on,0,0,0,,0,,,72,127
20115,note_off,229,0,0,,0,,,72,127
20115,note_off,0,0,0,,3,,,63,127
20116,note_on,1,0,0,,3,,,75,127
20174,note_on,58,0,0,,2,,,74,127
20182,note_off,8,0,0,,3,,,75,127
20231,note_on,49,0,0,,3,,,75,127
20239,note_off,8,0,0,,2,,,74,127
20345,note_off,106,0,0,,3,,,75,127
20346,note_on,1,0,0,,10,,,81,127
20575,note_off,229,0,0,,10,,,81,127
20576,note_on,1,0,0,,0,,,84,127
20805,note_off,229,0,0,,0,,,84,127
20806,note_on,1,0,0,,5,,,53,127
20806,note_on,0,0,0,,5,,,77,127
20864,note_on,58,0,0,,4,,,52,127
20864,note_on,0,0,0,,3,,,75,127
20872,note_off,8,0,0,,5,,,77,127
20872,note_off,0,0,0,,5,,,53,127
20921,note_on,49,0,0,,5,,,53,127
20921,note_on,0,0,0,,5,,,77,127
20929,note_off,8,0,0,,3,,,75,127
20929,note_off,0,0,0,,4,,,52,127
20978,note_on,49,0,0,,3,,,75,127
20986,note_off,8,0,0,,5,,,77,127
21034,note_off,48,0,0,,5,,,53,127
21035,note_on,1,0,0,,10,,,57,127
21035,note_on,0,0,0,,5,,,77,127
21043,note_off,8,0,0,,3,,,75,127
21092,note_on,49,0,0,,3,,,75,127
21100,note_off,8,0,0,,5,,,77,127
21149,note_on,49,0,0,,5,,,77,127
21157,note_off,8,0,0,,3,,,75,127
21206,note_on,49,0,0,,3,,,75,127
21214,note_off,8,0,0,,5,,,77,127
21262,note_off,48,0,0,,10,,,57,127
21263,note_on,1,0,0,,0,,,60,127
21263,note_on,0,0,0,,5,,,77,127
21271,note_off,8,0,0,,3,,,75,127
21320,note_on,49,0,0,,3,,,75,127
21328,note_off,8,0,0,,5,,,77,127
21377,note_on,49,0,0,,5,,,77,127
21385,note_off,8,0,0,,3,,,75,127
21434,note_on,49,0,0,,3,,,75,127
21442,note_off,8,0,0,,5,,,77,127
21490,note_off,48,0,0,,0,,,60,127
21491,note_on,1,0,0,,3,,,63,127
21491,note_on,0,0,0,,5,,,77,127
21499,note_off,8,0,0,,3,,,75,127
21548,note_on,49,0,0,,2,,,62,127
21548,note_on,0,0,0,,3,,,75,127
21556,note_off,8,0,0,,5,,,77,127
21556,note_off,0,0,0,,3,,,63,127
21605,note_on,49,0,0,,3,,,63,127
21605,note_on,0,0,0,,5,,,77,127
21613,note_off,8,0,0,,3,,,75,127
21613,note_off,0,0,0,,2,,,62,127
21662,note_on,49,0,0,,3,,,75,127
21670,note_off,8,0,0,,5,,,77,127
21718,note_off,48,0,0,,3,,,63,127
21719,note_on,1,0,0,,5,,,65,127
21719,note_on,0,0,0,,5,,,77,127
21727,note_off,8,0,0,,3,,,75,127
21776,note_on,49,0,0,,3,,,75,127
21784,note_off,8,0,0,,5,,,77,127
21833,note_on,49,0,0,,5,,,77,127
21841,note_off,8,0,0,,3,,,75,127
21890,note_on,49,0,0,,3,,,75,127
21898,note_off,8,0,0,,5,,,77,127
21946,note_off,48,0,0,,5,,,65,127
21947,note_on,1,0,0,,10,,,69,127
21947,note_on,0,0,0,,5,,,77,127
21955,note_off,8,0,0,,3,,,75,127
22004,note_on,49,0,0,,3,,,75,127
22012,note_off,8,0,0,,5,,,77,127
22061,note_on,49,0,0,,5,,,77,127
22069,note_off,8,0,0,,3,,,75,127
22118,note_on,49,0,0,,3,,,75,127
22126,note_off,8,0,0,,5,,,77,127
22174,note_off,48,0,0,,10,,,69,127
22175,note_on,1,0,0,,0,,,72,127
22175,note_on,0,0,0,,5,,,77,127
22183,note_off,8,0,0,,3,,,75,127
22232,note_on,49,0,0,,11,,,70,127
22232,note_on,0,0,0,,3,,,75,127
22240,note_off,8,0,0,,5,,,77,127
22240,note_off,0,0,0,,0,,,72,127
22289,note_on,49,0,0,,10,,,69,127
22289,note_on,0,0,0,,5,,,77,127
22297,note_off,8,0,0,,3,,,75,127
22297,note_off,0,0,0,,11,,,70,127
22346,note_on,49,0,0,,7,,,67,127
22346,note_on,0,0,0,,3,,,75,127
22354,note_off,8,0,0,,5,,,77,127
22354,note_off,0,0,0,,10,,,69,127
22403,note_on,49,0,0,,5,,,65,127
22403,note_on,0,0,0,,5,,,77,127
22411,note_off,8,0,0,,3,,,75,127
22411,note_off,0,0,0,,7,,,67,127
22460,note_on,49,0,0,,3,,,75,127
22468,note_off,8,0,0,,5,,,77,127
22517,note_on,49,0,0,,5,,,77,127
22525,note_off,8,0,0,,3,,,75,127
22574,note_on,49,0,0,,3,,,75,127
22582,note_off,8,0,0,,5,,,77,127
22630,note_off,48,0,0,,5,,,65,127
22631,note_on,1,0,0,,3,,,63,127
22631,note_on,0,0,0,,5,,,77,127
22639,note_off,8,0,0,,3,,,75,127
22688,note_on,49,0,0,,3,,,75,127
22696,note_off,8,0,0,,5,,,77,127
22745,note_on,49,0,0,,5,,,77,127
22753,note_off,8,0,0,,3,,,75,127
22802,note_on,49,0,0,,3,,,75,127
22810,note_off,8,0,0,,5,,,77,127
22858,note_off,48,0,0,,3,,,63,127
22859,note_on,1,0,0,,2,,,62,127
22867,note_off,8,0,0,,3,,,75,127
22974,note_on,107,0,0,,2,,,74,127
23088,note_off,114,0,0,,2,,,74,127
23089,note_on,1,0,0,,3,,,75,127
23147,note_on,58,0,0,,5,,,77,127
23155,note_off,8,0,0,,3,,,75,127
23204,note_on,49,0,0,,7,,,79,127
23212,note_off,8,0,0,,5,,,77,127
23261,note_on,49,0,0,,10,,,81,127
23269,note_off,8,0,0,,7,,,79,127
23317,note_off,48,0,0,,2,,,62,127
23318,note_on,1,0,0,,2,,,62,127
23318,note_on,0,0,0,,11,,,82,127
23326,note_off,8,0,0,,10,,,81,127
23547,note_off,221,0,0,,11,,,82,127
23547,note_off,0,0,0,,2,,,62,127
23548,note_on,1,0,0,,3,,,63,127
23548,note_on,0,0,0,,10,,,81,127
23720,note_off,172,0,0,,10,,,81,127
23721,note_on,1,0,0,,7,,,79,127
23777,note_off,56,0,0,,3,,,63,127
23778,note_on,1,0,0,,5,,,65,127
23778,note_on,0,0,0,,5,,,77,127
23786,note_off,8,0,0,,7,,,79,127
24007,note_off,221,0,0,,5,,,77,127
24007,note_off,0,0,0,,5,,,65,127
24008,note_on,1,0,0,,5,,,53,127
24008,note_on,0,0,0,,3,,,75,127
24237,note_off,229,0,0,,3,,,75,127
24237,note_off,0,0,0,,5,,,53,127
24238,note_on,1,0,0,,11,,,46,127
24238,note_on,0,0,0,,5,,,77,127
24296,note_on,58,0,0,,3,,,75,127
24304,note_off,8,0,0,,5,,,77,127
24353,note_on,49,0,0,,5,,,77,127
24361,note_off,8,0,0,,3,,,75,127
24410,note_on,49,0,0,,3,,,75,127
24418,note_off,8,0,0,,5,,,77,127
24467,note_on,49,0,0,,5,,,77,127
24475,note_off,8,0,0,,3,,,75,127
24524,note_on,49,0,0,,3,,,75,127
24532,note_off,8,0,0,,5,,,77,127
24581,note_on,49,0,0,,2,,,74,127
24589,note_off,8,0,0,,3,,,75,127
24638,note_on,49,0,0,,3,,,75,127
24646,note_off,8,0,0,,2,,,74,127
24694,note_off,48,0,0,,11,,,46,127
24695,note_on,1,0,0,,11,,,58,127
24695,note_on,0,0,0,,2,,,74,127
24703,note_off,8,0,0,,3,,,75,127
24867,note_off,164,0,0,,2,,,74,127
24923,note_off,56,0,0,,11,,,58,127
24924,note_on,1,0,0,,11,,,70,127
24924,note_on,0,0,0,,2,,,74,127
24982,note_on,58,0,0,,0,,,72,127
24990,note_off,8,0,0,,2,,,74,127
25039,note_on,49,0,0,,2,,,74,127
25047,note_off,8,0,0,,0,,,72,127
25153,note_off,106,0,0,,2,,,74,127
25154,note_on,1,0,0,,5,,,77,127
25383,note_off,229,0,0,,5,,,77,127
25383,note_off,0,0,0,,11,,,70,127
25384,note_on,1,0,0,,5,,,65,127
25384,note_on,0,0,0,,10,,,69,127
25613,note_off,229,0,0,,10,,,69,127
25613,note_off,0,0,0,,5,,,65,127
25614,note_on,1,0,0,,7,,,67,127
25614,note_on,0,0,0,,11,,,70,127
25672,note_on,58,0,0,,10,,,69,127
25680,note_off,8,0,0,,11,,,70,127
25729,note_on,49,0,0,,11,,,70,127
25737,note_off,8,0,0,,10,,,69,127
25843,note_off,106,0,0,,11,,,70,127
25844,note_on,1,0,0,,2,,,74,127
26073,note_off,229,0,0,,2,,,74,127
26073,note_off,0,0,0,,7,,,67,127
26074,note_on,1,0,0,,2,,,62,127
26074,note_on,0,0,0,,5,,,65,127
26303,note_off,229,0,0,,5,,,65,127
26303,note_off,0,0,0,,2,,,62,127
26304,note_on,1,0,0,,3,,,63,127
26304,note_on,0,0,0,,7,,,67,127
26362,note_on,58,0,0,,5,,,65,127
26370,note_off,8,0,0,,7,,,67,127
26419,note_on,49,0,0,,7,,,67,127
26427,note_off,8,0,0,,5,,,65,127
26533,note_off,106,0,0,,7,,,67,127
26534,note_on,1,0,0,,11,,,70,127
26763,note_off,229,0,0,,11,,,70,127
26763,note_off,0,0,0,,3,,,63,127
26764,note_on,1,0,0,,11,,,58,127
26764,note_on,0,0,0,,2,,,62,127
26993,note_off,229,0,0,,2,,,62,127
26993,note_off,0,0,0,,11,,,58,127
26994,note_on,1,0,0,,0,,,60,127
26994,note_on,0,0,0,,5,,,65,127
27070,note_off,76,0,0,,5,,,65,127
27071,note_on,1,0,0,,3,,,63,127
27147,note_off,76,0,0,,3,,,63,127
27148,note_on,1,0,0,,2,,,62,127
27224,note_off,76,0,0,,2,,,62,127
27224,note_off,0,0,0,,0,,,60,127
27225,note_on,1,0,0,,10,,,57,127
27225,note_on,0,0,0,,3,,,63,127
27397,note_off,172,0,0,,3,,,63,127
27398,note_on,1,0,0,,0,,,72,127
27454,note_off,56,0,0,,10,,,57,127
27455,note_on,1,0,0,,11,,,58,127
27455,note_on,0,0,0,,3,,,63,127
27463,note_off,8,0,0,,0,,,72,127
27626,note_off,163,0,0,,3,,,63,127
27627,note_on,1,0,0,,2,,,62,127
27683,note_off,56,0,0,,11,,,58,127
27684,note_on,1,0,0,,5,,,53,127
27684,note_on,0,0,0,,3,,,63,127
27692,note_off,8,0,0,,2,,,62,127
27741,note_on,49,0,0,,2,,,62,127
27749,note_off,8,0,0,,3,,,63,127
27798,note_on,49,0,0,,3,,,63,127
27806,note_off,8,0,0,,2,,,62,127
27855,note_on,49,0,0,,2,,,62,127
27863,note_off,8,0,0,,3,,,63,127
27912,note_on,49,0,0,,0,,,60,127
27920,note_off,8,0,0,,2,,,62,127
28141,note_off,221,0,0,,0,,,60,127
28142,note_on,1,0,0,,5,,,65,127
28329,note_off,187,0,0,,5,,,53,127
28371,note_off,42,0,0,,5,,,65,127
28372,note_on,1,0,0,,3,,,63,127
28372,note_on,0,0,0,,6,,,66,127
28430,note_on,58,0,0,,5,,,65,127
28438,note_off,8,0,0,,6,,,66,127
28487,note_on,49,0,0,,6,,,66,127
28495,note_off,8,0,0,,5,,,65,127
28601,note_off,106,0,0,,6,,,66,127
28602,note_on,1,0,0,,11,,,70,127
28831,note_off,229,0,0,,11,,,70,127
28831,note_off,0,0,0,,3,,,63,127
28832,note_on,1,0,0,,3,,,63,127
28832,note_on,0,0,0,,6,,,66,127
29061,note_off,229,0,0,,6,,,66,127
29061,note_off,0,0,0,,3,,,63,127
29062,note_on,1,0,0,,1,,,61,127
29062,note_on,0,0,0,,5,,,65,127
29120,note_on,58,0,0,,4,,,64,127
29128,note_off,8,0,0,,5,,,65,127
29177,note_on,49,0,0,,5,,,65,127
29185,note_off,8,0,0,,4,,,64,127
29291,note_off,106,0,0,,5,,,65,127
29292,note_on,1,0,0,,11,,,70,127
29521,note_off,229,0,0,,11,,,70,127
29521,note_off,0,0,0,,1,,,61,127
29522,note_on,1,0,0,,1,,,61,127
29522,note_on,0,0,0,,5,,,65,127
29751,note_off,229,0,0,,5,,,65,127
29751,note_off,0,0,0,,1,,,61,127
29752,note_on,1,0,0,,0,,,60,127
29752,note_on,0,0,0,,3,,,63,127
29810,note_on,58,0,0,,2,,,62,127
29818,note_off,8,0,0,,3,,,63,127
29867,note_on,49,0,0,,3,,,63,127
29875,note_off,8,0,0,,2,,,62,127
29981,note_off,106,0,0,,3,,,63,127
29982,note_on,1,0,0,,0,,,72,127
30211,note_off,229,0,0,,0,,,72,127
30211,note_off,0,0,0,,0,,,60,127
30212,note_on,1,0,0,,0,,,60,127
30212,note_on,0,0,0,,3,,,63,127
30441,note_off,229,0,0,,3,,,63,127
30441,note_off,0,0,0,,0,,,60,127
30442,note_on,1,0,0,,11,,,58,127
30442,note_on,0,0,0,,1,,,61,127
30500,note_on,58,0,0,,0,,,60,127
30508,note_off,8,0,0,,1,,,61,127
30557,note_on,49,0,0,,1,,,61,127
30565,note_off,8,0,0,,0,,,60,127
30671,note_off,106,0,0,,1,,,61,127
30672,note_on,1,0,0,,11,,,70,127
30901,note_off,229,0,0,,11,,,70,127
30901,note_off,0,0,0,,11,,,58,127
30902,note_on,1,0,0,,11,,,58,127
30902,note_on,0,0,0,,1,,,61,127
31131,note_off,229,0,0,,1,,,61,127
31131,note_off,0,0,0,,11,,,58,127
31132,note_on,1,0,0,,3,,,51,127
31132,note_on,0,0,0,,0,,,60,127
31190,note_on,58,0,0,,12,,,59,127
31198,note_off,8,0,0,,0,,,60,127
31247,note_on,49,0,0,,0,,,60,127
31255,note_off,8,0,0,,12,,,59,127
31361,note_off,106,0,0,,0,,,60,127
31362,note_on,1,0,0,,6,,,66,127
31591,note_off,229,0,0,,6,,,66,127
31591,note_off,0,0,0,,3,,,51,127
31592,note_on,1,0,0,,3,,,51,127
31592,note_on,0,0,0,,11,,,58,127
31821,note_off,229,0,0,,11,,,58,127
31821,note_off,0,0,0,,3,,,51,127
31822,note_on,1,0,0,,3,,,51,127
31822,note_on,0,0,0,,10,,,69,127
31822,note_on,0,0,0,,5,,,77,127
32051,note_off,229,0,0,,10,,,69,127
32052,note_on,1,0,0,,11,,,70,127
32166,note_off,114,0,0,,11,,,70,127
32167,note_on,1,0,0,,10,,,69,127
32281,note_off,114,0,0,,10,,,69,127
32281,note_off,0,0,0,,3,,,51,127
32282,note_on,1,0,0,,2,,,50,127
32282,note_on,0,0,0,,11,,,70,127
32511,note_off,229,0,0,,11,,,70,127
32511,note_off,0,0,0,,2,,,50,127
32511,note_off,0,0,0,,5,,,77,127
32512,note_on,1,0,0,,3,,,51,127
32512,note_on,0,0,0,,0,,,72,127
32570,note_on,58,0,0,,2,,,74,127
32578,note_off,8,0,0,,0,,,72,127
32627,note_on,49,0,0,,3,,,75,127
32635,note_off,8,0,0,,2,,,74,127
32741,note_off,106,0,0,,3,,,75,127
32741,note_off,0,0,0,,3,,,51,127
32742,note_on,1,0,0,,5,,,53,127
32742,note_on,0,0,0,,2,,,74,127
32971,note_off,229,0,0,,2,,,74,127
32972,note_on,1,0,0,,5,,,41,127
32972,note_on,0,0,0,,2,,,74,127
33030,note_on,58,0,0,,0,,,72,127
33038,note_off,8,0,0,,2,,,74,127
33087,note_on,49,0,0,,2,,,74,127
33095,note_off,8,0,0,,0,,,72,127
33144,note_on,49,0,0,,0,,,72,127
33152,note_off,8,0,0,,2,,,74,127
33196,note_off,44,0,0,,5,,,53,127
33200,note_off,4,0,0,,5,,,41,127
33201,note_on,1,0,0,,11,,,46,127
33201,note_on,0,0,0,,11,,,70,127
33209,note_off,8,0,0,,0,,,72,127
33258,note_on,49,0,0,,10,,,69,127
33266,note_off,8,0,0,,11,,,70,127
33315,note_on,49,0,0,,11,,,70,127
33323,note_off,8,0,0,,10,,,69,127
33429,note_off,106,0,0,,11,,,70,127
33430,note_on,1,0,0,,2,,,74,127
33659,note_off,229,0,0,,2,,,74,127
33660,note_on,1,0,0,,5,,,77,127
33889,note_off,229,0,0,,5,,,77,127
33889,note_off,0,0,0,,11,,,46,127
33890,note_on,1,0,0,,11,,,46,127
33890,note_on,0,0,0,,11,,,70,127
33948,note_on,58,0,0,,10,,,45,127
33956,note_off,8,0,0,,11,,,46,127
34005,note_on,49,0,0,,11,,,46,127
34013,note_off,8,0,0,,10,,,45,127
34119,note_off,106,0,0,,11,,,46,127
34120,note_on,1,0,0,,2,,,50,127
34349,note_off,229,0,0,,2,,,50,127
34350,note_on,1,0,0,,5,,,53,127
34579,note_off,229,0,0,,5,,,53,127
34579,note_off,0,0,0,,11,,,70,127
34580,note_on,1,0,0,,11,,,58,127
34580,note_on,0,0,0,,11,,,70,127
34638,note_on,58,0,0,,10,,,69,127
34646,note_off,8,0,0,,11,,,70,127
34695,note_on,49,0,0,,11,,,70,127
34703,note_off,8,0,0,,10,,,69,127
34809,note_off,106,0,0,,11,,,70,127
34810,note_on,1,0,0,,2,,,74,127
35039,note_off,229,0,0,,2,,,74,127
35040,note_on,1,0,0,,5,,,77,127
35269,note_off,229,0,0,,5,,,77,127
35269,note_off,0,0,0,,11,,,58,127
35270,note_on,1,0,0,,11,,,58,127
35270,note_on,0,0,0,,11,,,82,127
35328,note_on,58,0,0,,10,,,57,127
35336,note_off,8,0,0,,11,,,58,127
35385,note_on,49,0,0,,11,,,58,127
35393,note_off,8,0,0,,10,,,57,127
35499,note_off,106,0,0,,11,,,58,127
35500,note_on,1,0,0,,2,,,62,127
35729,note_off,229,0,0,,2,,,62,127
35730,note_on,1,0,0,,5,,,65,127
35959,note_off,229,0,0,,5,,,65,127
35960,note_on,1,0,0,,11,,,70,127
36074,note_off,114,0,0,,11,,,82,127
36075,note_on,1,0,0,,10,,,81,127
36133,note_on,58,0,0,,7,,,79,127
36141,note_off,8,0,0,,10,,,81,127
36190,note_on,49,0,0,,5,,,77,127
36198,note_off,8,0,0,,7,,,79,127
36247,note_on,49,0,0,,3,,,75,127
36255,note_off,8,0,0,,5,,,77,127
36304,note_on,49,0,0,,2,,,74,127
36312,note_off,8,0,0,,3,,,75,127
36361,note_on,49,0,0,,0,,,72,127
36369,note_off,8,0,0,,2,,,74,127
36417,note_off,48,0,0,,11,,,70,127
36418,note_on,1,0,0,,2,,,62,127
36418,note_on,0,0,0,,11,,,70,127
36426,note_off,8,0,0,,0,,,72,127
36647,note_off,221,0,0,,2,,,62,127
36648,note_on,1,0,0,,3,,,63,127
36820,note_off,172,0,0,,11,,,70,127
36821,note_on,1,0,0,,0,,,72,127
36877,note_off,56,0,0,,3,,,63,127
36878,note_on,1,0,0,,5,,,65,127
36878,note_on,0,0,0,,2,,,74,127
36886,note_off,8,0,0,,0,,,72,127
36935,note_on,49,0,0,,0,,,72,127
36943,note_off,8,0,0,,2,,,74,127
36992,note_on,49,0,0,,2,,,74,127
37000,note_off,8,0,0,,0,,,72,127
37049,note_on,49,0,0,,0,,,72,127
37057,note_off,8,0,0,,2,,,74,127
37106,note_on,49,0,0,,5,,,53,127
37106,note_on,0,0,0,,2,,,74,127
37114,note_off,8,0,0,,0,,,72,127
37163,note_on,49,0,0,,0,,,72,127
37171,note_off,8,0,0,,2,,,74,127
37220,note_off,49,0,0,,5,,,65,127
37220,note_on,0,0,0,,11,,,70,127
37228,note_off,8,0,0,,0,,,72,127
37314,note_off,86,0,0,,11,,,70,127
37333,note_off,19,0,0,,5,,,53,127
37334,note_on,1,0,0,,11,,,46,127
37334,note_on,0,0,0,,11,,,70,127
37448,note_off,114,0,0,,11,,,70,127
37449,note_on,1,0,0,,10,,,69,127
37507,note_on,58,0,0,,7,,,67,127
37515,note_off,8,0,0,,10,,,69,127
37564,note_on,49,0,0,,5,,,65,127
37572,note_off,8,0,0,,7,,,67,127
37621,note_on,49,0,0,,3,,,63,127
37629,note_off,8,0,0,,5,,,65,127
37678,note_on,49,0,0,,2,,,62,127
37686,note_off,8,0,0,,3,,,63,127
37735,note_on,49,0,0,,0,,,60,127
37743,note_off,8,0,0,,2,,,62,127
37791,note_off,48,0,0,,11,,,46,127
37792,note_on,1,0,0,,2,,,50,127
37792,note_on,0,0,0,,11,,,58,127
37800,note_off,8,0,0,,0,,,60,127
38021,note_off,221,0,0,,2,,,50,127
38022,note_on,1,0,0,,3,,,51,127
38194,note_off,172,0,0,,11,,,58,127
38195,note_on,1,0,0,,0,,,60,127
38251,note_off,56,0,0,,3,,,51,127
38252,note_on,1,0,0,,5,,,53,127
38252,note_on,0,0,0,,2,,,62,127
38260,note_off,8,0,0,,0,,,60,127
38309,note_on,49,0,0,,0,,,60,127
38317,note_off,8,0,0,,2,,,62,127
38366,note_on,49,0,0,,2,,,62,127
38374,note_off,8,0,0,,0,,,60,127
38423,note_on,49,0,0,,0,,,60,127
38431,note_off,8,0,0,,2,,,62,127
38480,note_on,49,0,0,,5,,,41,127
38480,note_on,0,0,0,,2,,,62,127
38488,note_off,8,0,0,,0,,,60,127
38537,note_on,49,0,0,,0,,,60,127
38545,note_off,8,0,0,,2,,,62,127
38594,note_on,49,0,0,,11,,,58,127
38602,note_off,8,0,0,,0,,,60,127
38704,note_off,102,0,0,,5,,,53,127
38708,note_off,4,0,0,,11,,,58,127
38708,note_off,0,0,0,,5,,,41,127
38709,note_on,1,0,0,,11,,,46,127
38709,note_on,0,0,0,,11,,,58,127
39285,note_off,576,0,0,,11,,,58,127
39399,note_off,114,0,0,,11,,,46,127
39400,note_on,1,0,0,,11,,,46,127
39400,note_on,0,0,0,,11,,,58,127
39458,note_on,58,0,0,,10,,,57,127
39466,note_off,8,0,0,,11,,,58,127
39515,note_on,49,0,0,,11,,,58,127
39523,note_off,8,0,0,,10,,,57,127
39629,note_off,106,0,0,,11,,,58,127
39630,note_on,1,0,0,,2,,,62,127
39859,note_off,229,0,0,,2,,,62,127
39860,note_on,1,0,0,,5,,,65,127
40089,note_off,229,0,0,,5,,,65,127
40089,note_off,0,0,0,,11,,,46,127
40090,note_on,1,0,0,,11,,,46,127
40090,note_on,0,0,0,,11,,,70,127
40148,note_on,58,0,0,,10,,,45,127
40156,note_off,8,0,0,,11,,,46,127
40205,note_on,49,0,0,,11,,,46,127
40213,note_off,8,0,0,,10,,,45,127
40319,note_off,106,0,0,,11,,,46,127
40320,note_on,1,0,0,,2,,,50,127
40549,note_off,229,0,0,,2,,,50,127
40550,note_on,1,0,0,,5,,,53,127
40779,note_off,229,0,0,,5,,,53,127
40779,note_off,0,0,0,,11,,,70,127
40780,note_on,1,0,0,,11,,,58,127
40780,note_on,0,0,0,,11,,,70,127
40838,note_on,58,0,0,,10,,,69,127
40846,note_off,8,0,0,,11,,,70,127
40895,note_on,49,0,0,,11,,,70,127
40903,note_off,8,0,0,,10,,,69,127
41009,note_off,106,0,0,,11,,,70,127
41010,note_on,1,0,0,,2,,,74,127
41239,note_off,229,0,0,,2,,,74,127
41240,note_on,1,0,0,,5,,,77,127
41469,note_off,229,0,0,,5,,,77,127
41469,note_off,0,0,0,,11,,,58,127
41470,note_on,1,0,0,,11,,,58,127
41470,note_on,0,0,0,,11,,,82,127
41528,note_on,58,0,0,,10,,,57,127
41536,note_off,8,0,0,,11,,,58,127
41585,note_on,49,0,0,,11,,,58,127
41593,note_off,8,0,0,,10,,,57,127
41699,note_off,106,0,0,,11,,,58,127
41700,note_on,1,0,0,,2,,,62,127
41929,note_off,229,0,0,,2,,,62,127
41930,note_on,1,0,0,,5,,,65,127
42159,note_off,229,0,0,,5,,,65,127
42160,note_on,1,0,0,,11,,,70,127
42274,note_off,114,0,0,,11,,,82,127
42275,note_on,1,0,0,,11,,,82,127
42389,note_off,114,0,0,,11,,,82,127
42390,note_on,1,0,0,,8,,,80,127
42504,note_off,114,0,0,,8,,,80,127
42504,note_off,0,0,0,,11,,,70,127
42505,note_on,1,0,0,,11,,,70,127
42505,note_on,0,0,0,,7,,,79,127
42619,note_off,114,0,0,,7,,,79,127
42619,note_off,0,0,0,,11,,,70,127
42620,note_on,1,0,0,,8,,,68,127
42620,note_on,0,0,0,,5,,,77,127
42734,note_off,114,0,0,,5,,,77,127
42734,note_off,0,0,0,,8,,,68,127
42735,note_on,1,0,0,,7,,,67,127
42735,note_on,0,0,0,,3,,,75,127
42849,note_off,114,0,0,,3,,,75,127
42849,note_off,0,0,0,,7,,,67,127
42850,note_on,1,0,0,,5,,,65,127
42850,note_on,0,0,0,,2,,,74,127
42964,note_off,114,0,0,,2,,,74,127
42964,note_off,0,0,0,,5,,,65,127
42965,note_on,1,0,0,,3,,,63,127
42965,note_on,0,0,0,,0,,,72,127
43079,note_off,114,0,0,,0,,,72,127
43079,note_off,0,0,0,,3,,,63,127
43080,note_on,1,0,0,,2,,,62,127
43080,note_on,0,0,0,,11,,,70,127
43194,note_off,114,0,0,,11,,,70,127
43194,note_off,0,0,0,,2,,,62,127
43195,note_on,1,0,0,,0,,,60,127
43195,note_on,0,0,0,,8,,,68,127
43309,note_off,114,0,0,,8,,,68,127
43309,note_off,0,0,0,,0,,,60,127
43310,note_on,1,0,0,,11,,,58,127
43310,note_on,0,0,0,,7,,,67,127
43424,note_off,114,0,0,,7,,,67,127
43424,note_off,0,0,0,,11,,,58,127
43425,note_on,1,0,0,,8,,,56,127
43425,note_on,0,0,0,,5,,,65,127
43539,note_off,114,0,0,,5,,,65,127
43539,note_off,0,0,0,,8,,,56,127
43540,note_on,1,0,0,,7,,,55,127
43540,note_on,0,0,0,,3,,,63,127
43598,note_on,58,0,0,,2,,,62,127
43606,note_off,8,0,0,,3,,,63,127
43655,note_on,49,0,0,,3,,,63,127
43663,note_off,8,0,0,,2,,,62,127
43769,note_off,106,0,0,,3,,,63,127
43770,note_on,1,0,0,,7,,,67,127
43999,note_off,229,0,0,,7,,,67,127
44000,note_on,1,0,0,,11,,,70,127
44229,note_off,229,0,0,,11,,,70,127
44229,note_off,0,0,0,,7,,,55,127
44230,note_on,1,0,0,,3,,,51,127
44230,note_on,0,0,0,,3,,,75,127
44288,note_on,58,0,0,,2,,,50,127
44296,note_off,8,0,0,,3,,,51,127
44345,note_on,49,0,0,,3,,,51,127
44353,note_off,8,0,0,,2,,,50,127
44459,note_off,106,0,0,,3,,,51,127
44460,note_on,1,0,0,,7,,,55,127
44689,note_off,229,0,0,,7,,,55,127
44690,note_on,1,0,0,,11,,,58,127
44919,note_off,229,0,0,,11,,,58,127
44919,note_off,0,0,0,,3,,,75,127
44920,note_on,1,0,0,,3,,,63,127
44920,note_on,0,0,0,,7,,,67,127
44978,note_on,58,0,0,,5,,,65,127
44986,note_off,8,0,0,,7,,,67,127
45035,note_on,49,0,0,,7,,,67,127
45043,note_off,8,0,0,,5,,,65,127
45149,note_off,106,0,0,,7,,,67,127
45150,note_on,1,0,0,,11,,,70,127
45379,note_off,229,0,0,,11,,,70,127
45380,note_on,1,0,0,,3,,,75,127
45609,note_off,229,0,0,,3,,,75,127
45609,note_off,0,0,0,,3,,,63,127
45610,note_on,1,0,0,,0,,,60,127
45610,note_on,0,0,0,,7,,,79,127
45668,note_on,58,0,0,,12,,,59,127
45676,note_off,8,0,0,,0,,,60,127
45725,note_on,49,0,0,,0,,,60,127
45733,note_off,8,0,0,,12,,,59,127
45839,note_off,106,0,0,,0,,,60,127
45840,note_on,1,0,0,,3,,,63,127
46069,note_off,229,0,0,,3,,,63,127
46070,note_on,1,0,0,,7,,,67,127
46299,note_off,229,0,0,,7,,,67,127
46300,note_on,1,0,0,,0,,,72,127
46414,note_off,114,0,0,,7,,,79,127
46415,note_on,1,0,0,,5,,,77,127
46529,note_off,114,0,0,,5,,,77,127
46530,note_on,1,0,0,,3,,,75,127
46644,note_off,114,0,0,,3,,,75,127
46644,note_off,0,0,0,,0,,,72,127
46645,note_on,1,0,0,,11,,,70,127
46645,note_on,0,0,0,,2,,,74,127
46759,note_off,114,0,0,,2,,,74,127
46759,note_off,0,0,0,,11,,,70,127
46760,note_on,1,0,0,,8,,,68,127
46760,note_on,0,0,0,,0,,,72,127
46874,note_off,114,0,0,,0,,,72,127
46874,note_off,0,0,0,,8,,,68,127
46875,note_on,1,0,0,,7,,,67,127
46875,note_on,0,0,0,,11,,,70,127
46989,note_off,114,0,0,,11,,,70,127
46989,note_off,0,0,0,,7,,,67,127
46990,note_on,1,0,0,,5,,,65,127
46990,note_on,0,0,0,,8,,,68,127
47104,note_off,114,0,0,,8,,,68,127
47104,note_off,0,0,0,,5,,,65,127
47105,note_on,1,0,0,,3,,,63,127
47105,note_on,0,0,0,,7,,,67,127
47219,note_off,114,0,0,,7,,,67,127
47219,note_off,0,0,0,,3,,,63,127
47220,note_on,1,0,0,,2,,,62,127
47220,note_on,0,0,0,,5,,,65,127
47334,note_off,114,0,0,,2,,,62,127
47335,note_on,1,0,0,,0,,,60,127
47449,note_off,114,0,0,,0,,,60,127
47449,note_off,0,0,0,,5,,,65,127
47450,note_on,1,0,0,,12,,,59,127
47450,note_on,0,0,0,,7,,,67,127
47564,note_off,114,0,0,,12,,,59,127
47565,note_on,1,0,0,,7,,,55,127
47679,note_off,114,0,0,,7,,,55,127
47679,note_off,0,0,0,,7,,,67,127
47680,note_on,1,0,0,,0,,,60,127
47680,note_on,0,0,0,,5,,,65,127
47738,note_on,58,0,0,,3,,,63,127
47746,note_off,8,0,0,,5,,,65,127
47795,note_on,49,0,0,,5,,,65,127
47803,note_off,8,0,0,,3,,,63,127
47852,note_on,49,0,0,,3,,,63,127
47860,note_off,8,0,0,,5,,,65,127
47909,note_on,49,0,0,,2,,,62,127
47917,note_off,8,0,0,,3,,,63,127
48023,note_off,106,0,0,,2,,,62,127
48024,note_on,1,0,0,,3,,,63,127
48138,note_off,114,0,0,,3,,,63,127
48138,note_off,0,0,0,,0,,,60,127
48139,note_on,1,0,0,,0,,,60,127
48368,note_off,229,0,0,,0,,,60,127
48369,note_on,1,0,0,,0,,,72,127
48369,note_on,0,0,0,,3,,,75,127
48427,note_on,58,0,0,,2,,,74,127
48435,note_off,8,0,0,,3,,,75,127
48484,note_on,49,0,0,,3,,,75,127
48492,note_off,8,0,0,,2,,,74,127
48598,note_off,106,0,0,,3,,,75,127
48599,note_on,1,0,0,,7,,,79,127
48828,note_off,229,0,0,,7,,,79,127
48828,note_off,0,0,0,,0,,,72,127
48829,note_on,1,0,0,,7,,,67,127
48829,note_on,0,0,0,,11,,,70,127
49058,note_off,229,0,0,,11,,,70,127
49058,note_off,0,0,0,,7,,,67,127
49059,note_on,1,0,0,,8,,,68,127
49059,note_on,0,0,0,,0,,,72,127
49117,note_on,58,0,0,,12,,,71,127
49125,note_off,8,0,0,,0,,,72,127
49174,note_on,49,0,0,,0,,,72,127
49182,note_off,8,0,0,,12,,,71,127
49288,note_off,106,0,0,,0,,,72,127
49289,note_on,1,0,0,,3,,,75,127
49518,note_off,229,0,0,,3,,,75,127
49518,note_off,0,0,0,,8,,,68,127
49519,note_on,1,0,0,,3,,,63,127
49519,note_on,0,0,0,,7,,,67,127
49748,note_off,229,0,0,,7,,,67,127
49748,note_off,0,0,0,,3,,,63,127
49749,note_on,1,0,0,,5,,,65,127
49749,note_on,0,0,0,,8,,,68,127
49807,note_on,58,0,0,,7,,,67,127
49815,note_off,8,0,0,,8,,,68,127
49864,note_on,49,0,0,,8,,,68,127
49872,note_off,8,0,0,,7,,,67,127
49978,note_off,106,0,0,,8,,,68,127
49979,note_on,1,0,0,,0,,,72,127
50208,note_off,229,0,0,,0,,,72,127
50208,note_off,0,0,0,,5,,,65,127
50209,note_on,1,0,0,,0,,,60,127
50209,note_on,0,0,0,,3,,,63,127
50438,note_off,229,0,0,,3,,,63,127
50438,note_off,0,0,0,,0,,,60,127
50439,note_on,1,0,0,,2,,,62,127
50439,note_on,0,0,0,,7,,,67,127
50515,note_off,76,0,0,,7,,,67,127
50516,note_on,1,0,0,,5,,,65,127
50592,note_off,76,0,0,,5,,,65,127
50593,note_on,1,0,0,,4,,,64,127
50669,note_off,76,0,0,,4,,,64,127
50669,note_off,0,0,0,,2,,,62,127
50670,note_on,1,0,0,,12,,,59,127
50670,note_on,0,0,0,,5,,,65,127
50842,note_off,172,0,0,,5,,,65,127
50843,note_on,1,0,0,,7,,,67,127
50899,note_off,56,0,0,,12,,,59,127
50900,note_on,1,0,0,,0,,,60,127
50900,note_on,0,0,0,,3,,,63,127
50908,note_off,8,0,0,,7,,,67,127
51071,note_off,163,0,0,,3,,,63,127
51072,note_on,1,0,0,,5,,,65,127
51128,note_off,56,0,0,,0,,,60,127
51129,note_on,1,0,0,,7,,,55,127
51129,note_on,0,0,0,,3,,,63,127
51137,note_off,8,0,0,,5,,,65,127
51186,note_on,49,0,0,,2,,,62,127
51194,note_off,8,0,0,,3,,,63,127
51243,note_on,49,0,0,,3,,,63,127
51251,note_off,8,0,0,,2,,,62,127
51300,note_on,49,0,0,,2,,,62,127
51308,note_off,8,0,0,,3,,,63,127
51357,note_on,49,0,0,,3,,,63,127
51365,note_off,8,0,0,,2,,,62,127
51414,note_on,49,0,0,,2,,,62,127
51422,note_off,8,0,0,,3,,,63,127
51471,note_on,49,0,0,,3,,,63,127
51479,note_off,8,0,0,,2,,,62,127
51528,note_on,49,0,0,,2,,,62,127
51536,note_off,8,0,0,,3,,,63,127
51585,note_on,49,0,0,,7,,,43,127
51585,note_on,0,0,0,,3,,,63,127
51593,note_off,8,0,0,,2,,,62,127
51642,note_on,49,0,0,,2,,,62,127
51650,note_off,8,0,0,,3,,,63,127
51756,note_off,106,0,0,,2,,,62,127
51814,note_off,58,0,0,,7,,,43,127
51814,note_off,0,0,0,,7,,,55,127
51815,note_on,1,0,0,,3,,,63,127
51815,note_on,0,0,0,,0,,,72,127
51873,note_on,58,0,0,,12,,,71,127
51881,note_off,8,0,0,,0,,,72,127
51930,note_on,49,0,0,,0,,,72,127
51938,note_off,8,0,0,,12,,,71,127
52044,note_off,106,0,0,,0,,,72,127
52045,note_on,1,0,0,,7,,,79,127
52274,note_off,229,0,0,,7,,,79,127
52274,note_off,0,0,0,,3,,,63,127
52275,note_on,1,0,0,,3,,,63,127
52275,note_on,0,0,0,,0,,,72,127
52504,note_off,229,0,0,,0,,,72,127
52504,note_off,0,0,0,,3,,,63,127
52505,note_on,1,0,0,,5,,,65,127
52505,note_on,0,0,0,,1,,,73,127
52563,note_on,58,0,0,,0,,,72,127
52571,note_off,8,0,0,,1,,,73,127
52620,note_on,49,0,0,,1,,,73,127
52628,note_off,8,0,0,,0,,,72,127
52735,note_on,107,0,0,,8,,,80,127
52746,note_off,11,0,0,,1,,,73,127
52964,note_off,218,0,0,,5,,,65,127
52965,note_on,1,0,0,,5,,,65,127
52965,note_on,0,0,0,,12,,,71,127
52976,note_off,11,0,0,,8,,,80,127
53194,note_off,218,0,0,,12,,,71,127
53194,note_off,0,0,0,,5,,,65,127
53195,note_on,1,0,0,,3,,,63,127
53195,note_on,0,0,0,,0,,,72,127
53253,note_on,58,0,0,,12,,,71,127
53261,note_off,8,0,0,,0,,,72,127
53310,note_on,49,0,0,,0,,,72,127
53318,note_off,8,0,0,,12,,,71,127
53425,note_on,107,0,0,,7,,,79,127
53448,note_off,23,0,0,,0,,,72,127
53654,note_off,206,0,0,,3,,,63,127
53655,note_on,1,0,0,,3,,,63,127
53655,note_on,0,0,0,,0,,,72,127
53678,note_off,23,0,0,,7,,,79,127
53884,note_off,206,0,0,,0,,,72,127
53884,note_off,0,0,0,,3,,,63,127
53885,note_on,1,0,0,,5,,,65,127
53885,note_on,0,0,0,,1,,,73,127
53943,note_on,58,0,0,,0,,,72,127
53951,note_off,8,0,0,,1,,,73,127
54000,note_on,49,0,0,,1,,,73,127
54008,note_off,8,0,0,,0,,,72,127
54115,note_on,107,0,0,,8,,,80,127
54150,note_off,35,0,0,,1,,,73,127
54344,note_off,194,0,0,,5,,,65,127
54345,note_on,1,0,0,,5,,,65,127
54345,note_on,0,0,0,,12,,,71,127
54380,note_off,35,0,0,,8,,,80,127
54574,note_off,194,0,0,,12,,,71,127
54574,note_off,0,0,0,,5,,,65,127
54575,note_on,1,0,0,,3,,,63,127
54575,note_on,0,0,0,,0,,,72,127
54633,note_on,58,0,0,,12,,,71,127
54641,note_off,8,0,0,,0,,,72,127
54690,note_on,49,0,0,,0,,,72,127
54698,note_off,8,0,0,,12,,,71,127
54805,note_on,107,0,0,,7,,,79,127
54852,note_off,47,0,0,,0,,,72,127
55034,note_off,182,0,0,,3,,,63,127
55035,note_on,1,0,0,,3,,,63,127
55035,note_on,0,0,0,,10,,,69,127
55082,note_off,47,0,0,,7,,,79,127
55264,note_off,182,0,0,,10,,,69,127
55264,note_off,0,0,0,,3,,,63,127
55265,note_on,1,0,0,,2,,,62,127
55265,note_on,0,0,0,,11,,,70,127
55323,note_on,58,0,0,,10,,,69,127
55331,note_off,8,0,0,,11,,,70,127
55380,note_on,49,0,0,,11,,,70,127
55388,note_off,8,0,0,,10,,,69,127
55495,note_on,107,0,0,,5,,,77,127
55554,note_off,59,0,0,,11,,,70,127
55724,note_off,170,0,0,,2,,,62,127
55725,note_on,1,0,0,,2,,,62,127
55725,note_on,0,0,0,,7,,,67,127
55784,note_off,59,0,0,,5,,,77,127
55954,note_off,170,0,0,,7,,,67,127
55954,note_off,0,0,0,,2,,,62,127
55955,note_on,1,0,0,,0,,,60,127
55955,note_on,0,0,0,,8,,,68,127
56013,note_on,58,0,0,,7,,,67,127
56021,note_off,8,0,0,,8,,,68,127
56070,note_on,49,0,0,,8,,,68,127
56078,note_off,8,0,0,,7,,,67,127
56185,note_on,107,0,0,,3,,,75,127
56256,note_off,71,0,0,,8,,,68,127
56414,note_off,158,0,0,,0,,,60,127
56415,note_on,1,0,0,,0,,,60,127
56415,note_on,0,0,0,,6,,,66,127
56486,note_off,71,0,0,,3,,,75,127
56644,note_off,158,0,0,,6,,,66,127
56644,note_off,0,0,0,,0,,,60,127
56645,note_on,1,0,0,,12,,,59,127
56645,note_on,0,0,0,,7,,,67,127
56703,note_on,58,0,0,,6,,,66,127
56711,note_off,8,0,0,,7,,,67,127
56760,note_on,49,0,0,,7,,,67,127
56768,note_off,8,0,0,,6,,,66,127
56875,note_on,107,0,0,,2,,,74,127
56958,note_off,83,0,0,,7,,,67,127
57104,note_off,146,0,0,,12,,,59,127
57105,note_on,1,0,0,,12,,,59,127
57105,note_on,0,0,0,,5,,,65,127
57188,note_off,83,0,0,,2,,,74,127
57334,note_off,146,0,0,,5,,,65,127
57334,note_off,0,0,0,,12,,,59,127
57335,note_on,1,0,0,,0,,,60,127
57335,note_on,0,0,0,,8,,,56,127
57335,note_on,0,0,0,,3,,,63,127
57393,note_on,58,0,0,,2,,,62,127
57401,note_off,8,0,0,,3,,,63,127
57450,note_on,49,0,0,,3,,,63,127
57458,note_off,8,0,0,,2,,,62,127
57565,note_on,107,0,0,,0,,,72,127
57660,note_off,95,0,0,,3,,,63,127
57794,note_off,134,0,0,,8,,,56,127
57794,note_off,0,0,0,,0,,,60,127
57795,note_on,1,0,0,,0,,,60,127
57795,note_on,0,0,0,,8,,,56,127
57795,note_on,0,0,0,,3,,,63,127
57890,note_off,95,0,0,,0,,,72,127
58024,note_off,134,0,0,,3,,,63,127
58024,note_off,0,0,0,,8,,,56,127
58024,note_off,0,0,0,,0,,,60,127
58025,note_on,1,0,0,,0,,,60,127
58025,note_on,0,0,0,,8,,,56,127
58025,note_on,0,0,0,,5,,,65,127
58083,note_on,58,0,0,,4,,,64,127
58091,note_off,8,0,0,,5,,,65,127
58140,note_on,49,0,0,,5,,,65,127
58148,note_off,8,0,0,,4,,,64,127
58255,note_on,107,0,0,,0,,,72,127
58362,note_off,107,0,0,,5,,,65,127
58484,note_off,122,0,0,,8,,,56,127
58484,note_off,0,0,0,,0,,,60,127
58485,note_on,1,0,0,,0,,,60,127
58485,note_on,0,0,0,,8,,,56,127
58485,note_on,0,0,0,,5,,,65,127
58592,note_off,107,0,0,,0,,,72,127
58714,note_off,122,0,0,,5,,,65,127
58714,note_off,0,0,0,,8,,,56,127
58714,note_off,0,0,0,,0,,,60,127
58715,note_on,1,0,0,,0,,,60,127
58715,note_on,0,0,0,,11,,,58,127
58715,note_on,0,0,0,,7,,,55,127
58715,note_on,0,0,0,,4,,,52,127
58715,note_on,0,0,0,,7,,,67,127
58773,note_on,58,0,0,,5,,,65,127
58781,note_off,8,0,0,,7,,,67,127
58830,note_on,49,0,0,,7,,,67,127
58838,note_off,8,0,0,,5,,,65,127
58945,note_on,107,0,0,,0,,,72,127
59064,note_off,119,0,0,,7,,,67,127
59174,note_off,110,0,0,,4,,,52,127
59174,note_off,0,0,0,,7,,,55,127
59174,note_off,0,0,0,,11,,,58,127
59174,note_off,0,0,0,,0,,,60,127
59175,note_on,1,0,0,,11,,,58,127
59175,note_on,0,0,0,,0,,,60,127
59175,note_on,0,0,0,,4,,,52,127
59175,note_on,0,0,0,,7,,,55,127
59175,note_on,0,0,0,,7,,,67,127
59294,note_off,119,0,0,,0,,,72,127
59404,note_off,110,0,0,,7,,,67,127
59404,note_off,0,0,0,,7,,,55,127
59404,note_off,0,0,0,,4,,,52,127
59404,note_off,0,0,0,,0,,,60,127
59404,note_off,0,0,0,,11,,,58,127
59405,note_on,1,0,0,,5,,,53,127
59405,note_on,0,0,0,,10,,,57,127
59405,note_on,0,0,0,,0,,,60,127
59405,note_on,0,0,0,,3,,,51,127
59405,note_on,0,0,0,,10,,,69,127
59463,note_on,58,0,0,,7,,,67,127
59471,note_off,8,0,0,,10,,,69,127
59520,note_on,49,0,0,,10,,,69,127
59528,note_off,8,0,0,,7,,,67,127
59635,note_on,107,0,0,,5,,,77,127
59766,note_off,131,0,0,,10,,,69,127
59864,note_off,98,0,0,,3,,,51,127
59864,note_off,0,0,0,,0,,,60,127
59864,note_off,0,0,0,,10,,,57,127
59864,note_off,0,0,0,,5,,,53,127
59865,note_on,1,0,0,,0,,,60,127
59865,note_on,0,0,0,,10,,,57,127
59865,note_on,0,0,0,,3,,,51,127
59865,note_on,0,0,0,,5,,,53,127
59865,note_on,0,0,0,,10,,,69,127
59996,note_off,131,0,0,,5,,,77,127
60094,note_off,98,0,0,,10,,,69,127
60094,note_off,0,0,0,,5,,,53,127
60094,note_off,0,0,0,,3,,,51,127
60094,note_off,0,0,0,,10,,,57,127
60094,note_off,0,0,0,,0,,,60,127
60095,note_on,1,0,0,,11,,,58,127
60095,note_on,0,0,0,,1,,,49,127
60095,note_on,0,0,0,,5,,,53,127
60095,note_on,0,0,0,,11,,,70,127
60153,note_on,58,0,0,,10,,,69,127
60161,note_off,8,0,0,,11,,,70,127
60210,note_on,49,0,0,,11,,,70,127
60218,note_off,8,0,0,,10,,,69,127
60325,note_on,107,0,0,,5,,,77,127
60468,note_off,143,0,0,,11,,,70,127
60554,note_off,86,0,0,,5,,,53,127
60554,note_off,0,0,0,,1,,,49,127
60554,note_off,0,0,0,,11,,,58,127
60555,note_on,1,0,0,,11,,,58,127
60555,note_on,0,0,0,,5,,,53,127
60555,note_on,0,0,0,,1,,,49,127
60555,note_on,0,0,0,,11,,,70,127
60698,note_off,143,0,0,,5,,,77,127
60784,note_off,86,0,0,,11,,,70,127
60784,note_off,0,0,0,,1,,,49,127
60784,note_off,0,0,0,,5,,,53,127
60784,note_off,0,0,0,,11,,,58,127
60785,note_on,1,0,0,,3,,,51,127
60785,note_on,0,0,0,,5,,,53,127
60785,note_on,0,0,0,,10,,,57,127
60785,note_on,0,0,0,,10,,,45,127
60785,note_on,0,0,0,,0,,,72,127
60843,note_on,58,0,0,,11,,,70,127
60851,note_off,8,0,0,,0,,,72,127
60900,note_on,49,0,0,,0,,,72,127
60908,note_off,8,0,0,,11,,,70,127
61015,note_on,107,0,0,,5,,,77,127
61170,note_off,155,0,0,,0,,,72,127
61244,note_off,74,0,0,,10,,,45,127
61244,note_off,0,0,0,,10,,,57,127
61244,note_off,0,0,0,,5,,,53,127
61244,note_off,0,0,0,,3,,,51,127
61245,note_on,1,0,0,,10,,,57,127
61245,note_on,0,0,0,,5,,,53,127
61245,note_on,0,0,0,,10,,,45,127
61245,note_on,0,0,0,,3,,,51,127
61245,note_on,0,0,0,,0,,,72,127
61412,note_off,167,0,0,,5,,,77,127
61474,note_off,62,0,0,,0,,,72,127
61474,note_off,0,0,0,,3,,,51,127
61474,note_off,0,0,0,,10,,,45,127
61474,note_off,0,0,0,,5,,,53,127
61474,note_off,0,0,0,,10,,,57,127
61475,note_on,1,0,0,,11,,,58,127
61475,note_on,0,0,0,,2,,,62,127
61475,note_on,0,0,0,,8,,,56,127
61475,note_on,0,0,0,,2,,,74,127
61533,note_on,58,0,0,,0,,,72,127
61541,note_off,8,0,0,,2,,,74,127
61590,note_on,49,0,0,,2,,,74,127
61598,note_off,8,0,0,,0,,,72,127
61705,note_on,107,0,0,,11,,,82,127
61872,note_off,167,0,0,,2,,,74,127
61934,note_off,62,0,0,,8,,,56,127
61934,note_off,0,0,0,,2,,,62,127
61934,note_off,0,0,0,,11,,,58,127
61935,note_on,1,0,0,,8,,,56,127
61935,note_on,0,0,0,,2,,,62,127
61935,note_on,0,0,0,,11,,,58,127
61935,note_on,0,0,0,,2,,,74,127
62126,note_off,191,0,0,,11,,,82,127
62164,note_off,38,0,0,,2,,,74,127
62164,note_off,0,0,0,,11,,,58,127
62164,note_off,0,0,0,,2,,,62,127
62164,note_off,0,0,0,,8,,,56,127
62165,note_on,1,0,0,,11,,,58,127
62165,note_on,0,0,0,,3,,,63,127
62165,note_on,0,0,0,,7,,,55,127
62165,note_on,0,0,0,,3,,,75,127
62223,note_on,58,0,0,,2,,,74,127
62231,note_off,8,0,0,,3,,,75,127
62280,note_on,49,0,0,,3,,,75,127
62288,note_off,8,0,0,,2,,,74,127
62395,note_on,107,0,0,,11,,,82,127
62574,note_off,179,0,0,,3,,,75,127
62624,note_off,50,0,0,,7,,,55,127
62624,note_off,0,0,0,,3,,,63,127
62624,note_off,0,0,0,,11,,,58,127
62625,note_on,1,0,0,,3,,,63,127
62625,note_on,0,0,0,,7,,,55,127
62625,note_on,0,0,0,,11,,,58,127
62625,note_on,0,0,0,,3,,,75,127
62854,note_off,229,0,0,,3,,,75,127
62854,note_off,0,0,0,,11,,,58,127
62854,note_off,0,0,0,,7,,,55,127
62854,note_off,0,0,0,,3,,,63,127
62855,note_on,1,0,0,,2,,,62,127
62855,note_on,0,0,0,,11,,,58,127
62855,note_on,0,0,0,,2,,,50,127
62855,note_on,0,0,0,,8,,,56,127
62855,note_on,0,0,0,,5,,,77,127
62856,note_off,1,0,0,,11,,,82,127
62912,note_on,56,0,0,,3,,,75,127
62920,note_off,8,0,0,,5,,,77,127
62969,note_on,49,0,0,,5,,,77,127
62977,note_off,8,0,0,,3,,,75,127
63084,note_on,107,0,0,,11,,,82,127
63275,note_off,191,0,0,,5,,,77,127
63300,note_off,25,0,0,,11,,,82,127
63313,note_off,13,0,0,,8,,,56,127
63313,note_off,0,0,0,,2,,,50,127
63313,note_off,0,0,0,,11,,,58,127
63313,note_off,0,0,0,,2,,,62,127
63314,note_on,1,0,0,,8,,,56,127
63314,note_on,0,0,0,,11,,,58,127
63314,note_on,0,0,0,,2,,,62,127
63314,note_on,0,0,0,,2,,,50,127
63314,note_on,0,0,0,,5,,,77,127
63543,note_off,229,0,0,,5,,,77,127
63543,note_off,0,0,0,,2,,,50,127
63543,note_off,0,0,0,,2,,,62,127
63543,note_off,0,0,0,,11,,,58,127
63543,note_off,0,0,0,,8,,,56,127
63544,note_on,1,0,0,,3,,,63,127
63544,note_on,0,0,0,,3,,,51,127
63544,note_on,0,0,0,,7,,,79,127
63602,note_on,58,0,0,,5,,,77,127
63610,note_off,8,0,0,,7,,,79,127
63659,note_on,49,0,0,,3,,,75,127
63667,note_off,8,0,0,,5,,,77,127
63773,note_off,106,0,0,,3,,,75,127
63773,note_off,0,0,0,,3,,,51,127
63774,note_on,1,0,0,,5,,,53,127
63774,note_on,0,0,0,,8,,,80,127
63832,note_on,58,0,0,,7,,,79,127
63840,note_off,8,0,0,,8,,,80,127
63889,note_on,49,0,0,,5,,,77,127
63897,note_off,8,0,0,,7,,,79,127
64003,note_off,106,0,0,,5,,,77,127
64003,note_off,0,0,0,,5,,,53,127
64004,note_on,1,0,0,,7,,,55,127
64004,note_on,0,0,0,,11,,,82,127
64062,note_on,58,0,0,,8,,,80,127
64070,note_off,8,0,0,,11,,,82,127
64119,note_on,49,0,0,,7,,,79,127
64127,note_off,8,0,0,,8,,,80,127
64233,note_off,106,0,0,,7,,,79,127
64233,note_off,0,0,0,,7,,,55,127
64234,note_on,1,0,0,,8,,,56,127
64234,note_on,0,0,0,,0,,,84,127
64406,note_off,172,0,0,,0,,,84,127
64407,note_on,1,0,0,,11,,,82,127
64463,note_off,56,0,0,,8,,,56,127
64464,note_on,1,0,0,,11,,,58,127
64464,note_on,0,0,0,,8,,,80,127
64472,note_off,8,0,0,,11,,,82,127
64635,note_off,163,0,0,,8,,,80,127
64636,note_on,1,0,0,,7,,,79,127
64692,note_off,56,0,0,,11,,,58,127
64693,note_on,1,0,0,,0,,,60,127
64693,note_on,0,0,0,,5,,,77,127
64701,note_off,8,0,0,,7,,,79,127
64864,note_off,163,0,0,,5,,,77,127
64865,note_on,1,0,0,,3,,,75,127
64921,note_off,56,0,0,,0,,,60,127
64921,note_off,0,0,0,,3,,,63,127
64922,note_on,1,0,0,,11,,,58,127
64922,note_on,0,0,0,,2,,,74,127
64930,note_off,8,0,0,,3,,,75,127
65093,note_off,163,0,0,,2,,,74,127
65094,note_on,1,0,0,,0,,,72,127
65150,note_off,56,0,0,,11,,,58,127
65151,note_on,1,0,0,,0,,,60,127
65151,note_on,0,0,0,,11,,,70,127
65159,note_off,8,0,0,,0,,,72,127
65322,note_off,163,0,0,,11,,,70,127
65323,note_on,1,0,0,,8,,,68,127
65379,note_off,56,0,0,,0,,,60,127
65380,note_on,1,0,0,,2,,,62,127
65380,note_on,0,0,0,,7,,,67,127
65388,note_off,8,0,0,,8,,,68,127
65551,note_off,163,0,0,,7,,,67,127
65552,note_on,1,0,0,,5,,,65,127
65608,note_off,56,0,0,,2,,,62,127
65609,note_on,1,0,0,,3,,,63,127
65609,note_on,0,0,0,,7,,,67,127
65617,note_off,8,0,0,,5,,,65,127
65780,note_off,163,0,0,,7,,,67,127
65781,note_on,1,0,0,,11,,,70,127
65837,note_off,56,0,0,,3,,,63,127
65838,note_on,1,0,0,,0,,,60,127
65838,note_on,0,0,0,,8,,,68,127
65846,note_off,8,0,0,,11,,,70,127
66009,note_off,163,0,0,,8,,,68,127
66010,note_on,1,0,0,,7,,,67,127
66066,note_off,56,0,0,,0,,,60,127
66067,note_on,1,0,0,,8,,,56,127
66067,note_on,0,0,0,,5,,,65,127
66075,note_off,8,0,0,,7,,,67,127
66238,note_off,163,0,0,,5,,,65,127
66239,note_on,1,0,0,,3,,,63,127
66293,note_off,54,0,0,,3,,,63,127
66295,note_off,2,0,0,,8,,,56,127
66296,note_on,1,0,0,,11,,,46,127
66296,note_on,0,0,0,,3,,,63,127
66354,note_on,58,0,0,,2,,,62,127
66362,note_off,8,0,0,,3,,,63,127
66411,note_on,49,0,0,,3,,,63,127
66419,note_off,8,0,0,,2,,,62,127
66468,note_on,49,0,0,,2,,,62,127
66476,note_off,8,0,0,,3,,,63,127
66525,note_on,49,0,0,,0,,,60,127
66533,note_off,8,0,0,,2,,,62,127
66639,note_off,106,0,0,,0,,,60,127
66640,note_on,1,0,0,,2,,,62,127
66754,note_off,114,0,0,,2,,,62,127
66755,note_on,1,0,0,,11,,,58,127
66928,note_off,173,0,0,,11,,,58,127
66984,note_off,56,0,0,,11,,,46,127
66985,note_on,1,0,0,,3,,,63,127
66985,note_on,0,0,0,,7,,,67,127
67043,note_on,58,0,0,,5,,,65,127
67051,note_off,8,0,0,,7,,,67,127
67100,note_on,49,0,0,,7,,,67,127
67108,note_off,8,0,0,,5,,,65,127
67214,note_off,106,0,0,,7,,,67,127
67215,note_on,1,0,0,,11,,,70,127
67444,note_off,229,0,0,,11,,,70,127
67444,note_off,0,0,0,,3,,,63,127
67445,note_on,1,0,0,,11,,,58,127
67445,note_on,0,0,0,,2,,,62,127
67674,note_off,229,0,0,,2,,,62,127
67674,note_off,0,0,0,,11,,,58,127
67675,note_on,1,0,0,,0,,,60,127
67675,note_on,0,0,0,,3,,,63,127
67733,note_on,58,0,0,,2,,,62,127
67741,note_off,8,0,0,,3,,,63,127
67790,note_on,49,0,0,,3,,,63,127
67798,note_off,8,0,0,,2,,,62,127
67904,note_off,106,0,0,,3,,,63,127
67905,note_on,1,0,0,,7,,,67,127
68134,note_off,229,0,0,,7,,,67,127
68134,note_off,0,0,0,,0,,,60,127
68135,note_on,1,0,0,,7,,,55,127
68135,note_on,0,0,0,,11,,,58,127
68364,note_off,229,0,0,,11,,,58,127
68364,note_off,0,0,0,,7,,,55,127
68365,note_on,1,0,0,,8,,,56,127
68365,note_on,0,0,0,,0,,,60,127
68423,note_on,58,0,0,,11,,,58,127
68431,note_off,8,0,0,,0,,,60,127
68480,note_on,49,0,0,,0,,,60,127
68488,note_off,8,0,0,,11,,,58,127
68594,note_off,106,0,0,,0,,,60,127
68595,note_on,1,0,0,,3,,,63,127
68824,note_off,229,0,0,,3,,,63,127
68824,note_off,0,0,0,,8,,,56,127
68825,note_on,1,0,0,,3,,,51,127
68825,note_on,0,0,0,,7,,,55,127
69054,note_off,229,0,0,,7,,,55,127
69054,note_off,0,0,0,,3,,,51,127
69055,note_on,1,0,0,,5,,,53,127
69055,note_on,0,0,0,,11,,,58,127
69131,note_off,76,0,0,,11,,,58,127
69132,note_on,1,0,0,,8,,,56,127
69208,note_off,76,0,0,,8,,,56,127
69209,note_on,1,0,0,,7,,,55,127
69285,note_off,76,0,0,,7,,,55,127
69285,note_off,0,0,0,,5,,,53,127
69286,note_on,1,0,0,,2,,,50,127
69286,note_on,0,0,0,,8,,,56,127
69458,note_off,172,0,0,,8,,,56,127
69459,note_on,1,0,0,,11,,,58,127
69515,note_off,56,0,0,,2,,,50,127
69516,note_on,1,0,0,,3,,,51,127
69516,note_on,0,0,0,,7,,,55,127
69524,note_off,8,0,0,,11,,,58,127
69687,note_off,163,0,0,,7,,,55,127
69688,note_on,1,0,0,,8,,,56,127
69744,note_off,56,0,0,,3,,,51,127
69745,note_on,1,0,0,,11,,,46,127
69745,note_on,0,0,0,,7,,,55,127
69753,note_off,8,0,0,,8,,,56,127
69802,note_on,49,0,0,,5,,,53,127
69810,note_off,8,0,0,,7,,,55,127
69859,note_on,49,0,0,,7,,,55,127
69867,note_off,8,0,0,,5,,,53,127
69916,note_on,49,0,0,,5,,,53,127
69924,note_off,8,0,0,,7,,,55,127
69973,note_on,49,0,0,,7,,,55,127
69981,note_off,8,0,0,,5,,,53,127
70030,note_on,49,0,0,,5,,,53,127
70038,note_off,8,0,0,,7,,,55,127
70087,note_on,49,0,0,,7,,,55,127
70095,note_off,8,0,0,,5,,,53,127
70144,note_on,49,0,0,,5,,,53,127
70152,note_off,8,0,0,,7,,,55,127
70201,note_on,49,0,0,,7,,,55,127
70209,note_off,8,0,0,,5,,,53,127
70258,note_on,49,0,0,,5,,,53,127
70266,note_off,8,0,0,,7,,,55,127
70372,note_off,106,0,0,,5,,,53,127
70430,note_off,58,0,0,,11,,,46,127
70431,note_on,1,0,0,,3,,,75,127
70431,note_on,0,0,0,,7,,,79,127
70489,note_on,58,0,0,,5,,,77,127
70497,note_off,8,0,0,,7,,,79,127
70546,note_on,49,0,0,,7,,,79,127
70554,note_off,8,0,0,,5,,,77,127
70660,note_off,106,0,0,,7,,,79,127
70661,note_on,1,0,0,,11,,,82,127
70890,note_off,229,0,0,,11,,,82,127
70890,note_off,0,0,0,,3,,,75,127
70891,note_on,1,0,0,,11,,,70,127
70891,note_on,0,0,0,,2,,,74,127
71120,note_off,229,0,0,,2,,,74,127
71120,note_off,0,0,0,,11,,,70,127
71121,note_on,1,0,0,,0,,,72,127
71121,note_on,0,0,0,,3,,,75,127
71179,note_on,58,0,0,,2,,,74,127
71187,note_off,8,0,0,,3,,,75,127
71236,note_on,49,0,0,,3,,,75,127
71244,note_off,8,0,0,,2,,,74,127
71350,note_off,106,0,0,,3,,,75,127
71351,note_on,1,0,0,,7,,,79,127
71580,note_off,229,0,0,,7,,,79,127
71580,note_off,0,0,0,,0,,,72,127
71581,note_on,1,0,0,,7,,,67,127
71581,note_on,0,0,0,,11,,,70,127
71810,note_off,229,0,0,,11,,,70,127
71810,note_off,0,0,0,,7,,,67,127
71811,note_on,1,0,0,,8,,,68,127
71811,note_on,0,0,0,,0,,,72,127
71869,note_on,58,0,0,,11,,,70,127
71877,note_off,8,0,0,,0,,,72,127
71926,note_on,49,0,0,,0,,,72,127
71934,note_off,8,0,0,,11,,,70,127
72040,note_off,106,0,0,,0,,,72,127
72041,note_on,1,0,0,,3,,,75,127
72270,note_off,229,0,0,,3,,,75,127
72270,note_off,0,0,0,,8,,,68,127
72271,note_on,1,0,0,,3,,,63,127
72271,note_on,0,0,0,,7,,,67,127
72500,note_off,229,0,0,,7,,,67,127
72500,note_off,0,0,0,,3,,,63,127
72501,note_on,1,0,0,,5,,,65,127
72501,note_on,0,0,0,,11,,,70,127
72577,note_off,76,0,0,,11,,,70,127
72578,note_on,1,0,0,,8,,,68,127
72654,note_off,76,0,0,,8,,,68,127
72655,note_on,1,0,0,,7,,,67,127
72731,note_off,76,0,0,,7,,,67,127
72731,note_off,0,0,0,,5,,,65,127
72732,note_on,1,0,0,,2,,,62,127
72732,note_on,0,0,0,,8,,,68,127
72904,note_off,172,0,0,,8,,,68,127
72905,note_on,1,0,0,,11,,,70,127
72961,note_off,56,0,0,,2,,,62,127
72962,note_on,1,0,0,,3,,,63,127
72962,note_on,0,0,0,,7,,,67,127
72970,note_off,8,0,0,,11,,,70,127
73133,note_off,163,0,0,,7,,,67,127
73134,note_on,1,0,0,,11,,,70,127
73190,note_off,56,0,0,,3,,,63,127
73191,note_on,1,0,0,,0,,,60,127
73191,note_on,0,0,0,,8,,,56,127
73191,note_on,0,0,0,,3,,,75,127
73199,note_off,8,0,0,,11,,,70,127
73362,note_off,163,0,0,,3,,,75,127
73363,note_on,1,0,0,,3,,,63,127
73419,note_off,56,0,0,,8,,,56,127
73419,note_off,0,0,0,,0,,,60,127
73420,note_on,1,0,0,,11,,,58,127
73420,note_on,0,0,0,,7,,,67,127
73428,note_off,8,0,0,,3,,,63,127
73650,note_on,222,0,0,,11,,,46,127
73705,note_off,55,0,0,,7,,,67,127
73707,note_on,2,0,0,,5,,,65,127
73765,note_on,58,0,0,,7,,,67,127
73773,note_off,8,0,0,,5,,,65,127
73822,note_on,49,0,0,,5,,,65,127
73830,note_off,8,0,0,,7,,,67,127
73874,note_off,44,0,0,,11,,,58,127
73878,note_off,4,0,0,,11,,,46,127
73879,note_on,1,0,0,,3,,,51,127
73879,note_on,0,0,0,,3,,,63,127
73887,note_off,8,0,0,,5,,,65,127
73936,note_on,49,0,0,,2,,,62,127
73944,note_off,8,0,0,,3,,,63,127
73993,note_on,49,0,0,,3,,,63,127
74001,note_off,8,0,0,,2,,,62,127
74107,note_off,106,0,0,,3,,,63,127
74108,note_on,1,0,0,,7,,,67,127
74337,note_off,229,0,0,,7,,,67,127
74338,note_on,1,0,0,,11,,,70,127
74567,note_off,229,0,0,,11,,,70,127
74567,note_off,0,0,0,,3,,,51,127
74568,note_on,1,0,0,,3,,,51,127
74568,note_on,0,0,0,,3,,,75,127
74626,note_on,58,0,0,,2,,,50,127
74634,note_off,8,0,0,,3,,,51,127
74683,note_on,49,0,0,,3,,,51,127
74691,note_off,8,0,0,,2,,,50,127
74797,note_off,106,0,0,,3,,,51,127
74798,note_on,1,0,0,,7,,,55,127
75027,note_off,229,0,0,,7,,,55,127
75028,note_on,1,0,0,,11,,,58,127
75257,note_off,229,0,0,,11,,,58,127
75257,note_off,0,0,0,,3,,,75,127
75258,note_on,1,0,0,,3,,,63,127
75258,note_on,0,0,0,,7,,,67,127
75316,note_on,58,0,0,,5,,,65,127
75324,note_off,8,0,0,,7,,,67,127
75373,note_on,49,0,0,,7,,,67,127
75381,note_off,8,0,0,,5,,,65,127
75487,note_off,106,0,0,,7,,,67,127
75488,note_on,1,0,0,,11,,,70,127
75717,note_off,229,0,0,,11,,,70,127
75718,note_on,1,0,0,,3,,,75,127
75947,note_off,229,0,0,,3,,,75,127
75947,note_off,0,0,0,,3,,,63,127
75948,note_on,1,0,0,,3,,,51,127
75948,note_on,0,0,0,,7,,,79,127
76006,note_on,58,0,0,,2,,,50,127
76014,note_off,8,0,0,,3,,,51,127
76063,note_on,49,0,0,,3,,,51,127
76071,note_off,8,0,0,,2,,,50,127
76177,note_off,106,0,0,,3,,,51,127
76178,note_on,1,0,0,,7,,,55,127
76407,note_off,229,0,0,,7,,,55,127
76408,note_on,1,0,0,,11,,,58,127
76637,note_off,229,0,0,,11,,,58,127
76637,note_off,0,0,0,,7,,,79,127
76638,note_on,1,0,0,,3,,,63,127
76638,note_on,0,0,0,,11,,,70,127
76696,note_on,58,0,0,,10,,,69,127
76704,note_off,8,0,0,,11,,,70,127
76753,note_on,49,0,0,,11,,,70,127
76761,note_off,8,0,0,,10,,,69,127
76867,note_off,106,0,0,,11,,,70,127
76868,note_on,1,0,0,,3,,,75,127
77097,note_off,229,0,0,,3,,,75,127
77098,note_on,1,0,0,,7,,,79,127
77327,note_off,229,0,0,,7,,,79,127
77327,note_off,0,0,0,,3,,,63,127
77328,note_on,1,0,0,,3,,,51,127
77328,note_on,0,0,0,,11,,,82,127
77386,note_on,58,0,0,,2,,,50,127
77394,note_off,8,0,0,,3,,,51,127
77443,note_on,49,0,0,,3,,,51,127
77451,note_off,8,0,0,,2,,,50,127
77557,note_off,106,0,0,,3,,,51,127
77558,note_on,1,0,0,,7,,,55,127
77787,note_off,229,0,0,,7,,,55,127
77788,note_on,1,0,0,,11,,,58,127
78017,note_off,229,0,0,,11,,,58,127
78018,note_on,1,0,0,,3,,,63,127
78074,note_off,56,0,0,,11,,,82,127
78075,note_on,1,0,0,,8,,,80,127
78133,note_on,58,0,0,,7,,,79,127
78141,note_off,8,0,0,,8,,,80,127
78190,note_on,49,0,0,,5,,,77,127
78198,note_off,8,0,0,,7,,,79,127
78247,note_on,49,0,0,,3,,,75,127
78255,note_off,8,0,0,,5,,,77,127
78304,note_on,49,0,0,,2,,,74,127
78312,note_off,8,0,0,,3,,,75,127
78361,note_on,49,0,0,,0,,,72,127
78369,note_off,8,0,0,,2,,,74,127
78418,note_on,49,0,0,,11,,,70,127
78426,note_off,8,0,0,,0,,,72,127
78475,note_on,49,0,0,,8,,,68,127
78483,note_off,8,0,0,,11,,,70,127
78532,note_on,49,0,0,,7,,,67,127
78540,note_off,8,0,0,,8,,,68,127
78589,note_on,49,0,0,,5,,,65,127
78597,note_off,8,0,0,,7,,,67,127
78645,note_off,48,0,0,,3,,,63,127
78651,note_on,6,0,0,,3,,,63,127
78658,note_off,7,0,0,,5,,,65,127
78714,note_on,56,0,0,,2,,,62,127
78714,note_on,0,0,0,,8,,,56,127
78720,note_off,6,0,0,,3,,,63,127
78778,note_on,58,0,0,,3,,,63,127
78784,note_off,6,0,0,,2,,,62,127
78842,note_on,58,0,0,,5,,,65,127
78848,note_off,6,0,0,,3,,,63,127
78906,note_on,58,0,0,,7,,,67,127
78912,note_off,6,0,0,,5,,,65,127
78960,note_off,48,0,0,,8,,,56,127
78968,note_on,8,0,0,,5,,,65,127
78968,note_on,0,0,0,,11,,,58,127
78975,note_off,7,0,0,,7,,,67,127
79031,note_on,56,0,0,,3,,,63,127
79037,note_off,6,0,0,,5,,,65,127
79095,note_on,58,0,0,,5,,,65,127
79101,note_off,6,0,0,,3,,,63,127
79159,note_on,58,0,0,,3,,,63,127
79165,note_off,6,0,0,,5,,,65,127
79223,note_on,58,0,0,,5,,,65,127
79223,note_on,0,0,0,,11,,,46,127
79229,note_off,6,0,0,,3,,,63,127
79285,note_on,56,0,0,,3,,,63,127
79292,note_off,7,0,0,,5,,,65,127
79354,note_off,62,0,0,,3,,,63,127
79354,note_on,0,0,0,,2,,,62,127
79455,note_off,101,0,0,,11,,,58,127
79466,note_off,11,0,0,,2,,,62,127
79467,note_off,1,0,0,,11,,,46,127
79508,note_on,41,0,0,,3,,,63,127
79508,note_on,0,0,0,,3,,,51,127
81306,note_off,1798,0,0,,3,,,51,127
81306,note_off,0,0,0,,3,,,63,127
86016,end_of_track,4710,1,0,,,,,,
