tick,type,time,meta,track,program,channel,pitch,tempo,note,velocity
0,copyright,0,1,0,,,,,,
0,program_change,0,0,0,6,0,,,,
0,pitchwheel,0,0,0,,0,0,,,
0,program_change,0,0,0,6,1,,,,
0,pitchwheel,0,0,0,,1,-590,,,
0,program_change,0,0,0,6,2,,,,
0,pitchwheel,0,0,0,,2,-272,,,
0,program_change,0,0,0,6,3,,,,
0,pitchwheel,0,0,0,,3,-353,,,
0,program_change,0,0,0,6,4,,,,
0,pitchwheel,0,0,0,,4,-560,,,
0,program_change,0,0,0,6,5,,,,
0,pitchwheel,0,0,0,,5,-80,,,
0,program_change,0,0,0,6,6,,,,
0,pitchwheel,0,0,0,,6,-625,,,
0,program_change,0,0,0,6,7,,,,
0,pitchwheel,0,0,0,,7,-130,,,
0,program_change,0,0,0,6,8,,,,
0,pitchwheel,0,0,0,,8,-512,,,
0,program_change,0,0,0,6,10,,,,
0,pitchwheel,0,0,0,,10,-464,,,
0,program_change,0,0,0,6,11,,,,
0,pitchwheel,0,0,0,,11,-208,,,
0,program_change,0,0,0,6,12,,,,
0,pitchwheel,0,0,0,,12,-553,,,
0,set_tempo,0,1,0,,,,500000,,
36,note_on,36,0,0,,5,,,53,127
36,note_on,0,0,0,,5,,,65,127
248,note_off,212,0,0,,5,,,65,127
249,note_on,1,0,0,,7,,,67,127
461,note_off,212,0,0,,7,,,67,127
462,note_on,1,0,0,,8,,,68,127
674,note_off,212,0,0,,5,,,53,127
675,note_on,1,0,0,,3,,,63,127
887,note_off,212,0,0,,3,,,63,127
888,note_on,1,0,0,,1,,,61,127
1100,note_off,212,0,0,,8,,,68,127
1101,note_on,1,0,0,,11,,,70,127
1313,note_off,212,0,0,,11,,,70,127
1313,note_off,0,0,0,,1,,,61,127
1314,note_on,1,0,0,,0,,,60,127
1314,note_on,0,0,0,,0,,,72,127
1527,note_on,213,0,0,,4,,,64,127
1739,note_off,212,0,0,,4,,,64,127
1739,note_off,0,0,0,,0,,,72,127
1740,note_on,1,0,0,,7,,,67,127
1952,note_off,212,0,0,,0,,,60,127
1953,note_on,1,0,0,,11,,,58,127
1953,note_on,0,0,0,,1,,,61,127
2165,note_off,212,0,0,,1,,,61,127
2165,note_off,0,0,0,,11,,,58,127
2166,note_on,1,0,0,,8,,,56,127
2166,note_on,0,0,0,,0,,,60,127
2378,note_off,212,0,0,,7,,,67,127
2379,note_on,1,0,0,,5,,,65,127
2591,note_off,212,0,0,,0,,,60,127
2591,note_off,0,0,0,,8,,,56,127
2592,note_on,1,0,0,,11,,,58,127
2592,note_on,0,0,0,,7,,,55,127
2592,note_on,0,0,0,,11,,,70,127
2804,note_off,212,0,0,,5,,,65,127
2805,note_on,1,0,0,,4,,,64,127
3017,note_off,212,0,0,,4,,,64,127
3017,note_off,0,0,0,,11,,,70,127
3017,note_off,0,0,0,,7,,,55,127
3017,note_off,0,0,0,,11,,,58,127
3018,note_on,1,0,0,,5,,,65,127
3018,note_on,0,0,0,,5,,,53,127
3018,note_on,0,0,0,,0,,,60,127
3018,note_on,0,0,0,,8,,,68,127
3230,note_off,212,0,0,,8,,,68,127
3231,note_on,1,0,0,,11,,,70,127
3443,note_off,212,0,0,,11,,,70,127
3444,note_on,1,0,0,,0,,,72,127
3656,note_off,212,0,0,,0,,,60,127
3656,note_off,0,0,0,,5,,,53,127
3656,note_off,0,0,0,,5,,,65,127
3657,note_on,1,0,0,,7,,,67,127
3657,note_on,0,0,0,,3,,,63,127
3869,note_off,212,0,0,,3,,,63,127
3869,note_off,0,0,0,,7,,,67,127
3870,note_on,1,0,0,,5,,,65,127
3870,note_on,0,0,0,,1,,,61,127
4082,note_off,212,0,0,,0,,,72,127
4083,note_on,1,0,0,,11,,,70,127
4295,note_off,212,0,0,,11,,,70,127
4295,note_off,0,0,0,,1,,,61,127
4296,note_on,1,0,0,,0,,,60,127
4296,note_on,0,0,0,,0,,,72,127
4508,note_off,212,0,0,,5,,,65,127
4509,note_on,1,0,0,,8,,,68,127
4703,note_off,194,0,0,,0,,,72,127
4721,note_off,18,0,0,,0,,,60,127
4722,note_on,1,0,0,,1,,,61,127
4722,note_on,0,0,0,,11,,,58,127
4722,note_on,0,0,0,,1,,,73,127
4934,note_off,212,0,0,,8,,,68,127
4935,note_on,1,0,0,,7,,,67,127
5147,note_off,212,0,0,,7,,,67,127
5147,note_off,0,0,0,,11,,,58,127
5147,note_off,0,0,0,,1,,,61,127
5148,note_on,1,0,0,,8,,,68,127
5148,note_on,0,0,0,,8,,,56,127
5360,note_off,212,0,0,,1,,,73,127
5361,note_on,1,0,0,,0,,,72,127
5573,note_off,212,0,0,,0,,,72,127
5574,note_on,1,0,0,,3,,,75,127
5786,note_off,212,0,0,,8,,,56,127
5786,note_off,0,0,0,,8,,,68,127
5787,note_on,1,0,0,,7,,,55,127
5999,note_off,212,0,0,,7,,,55,127
5999,note_off,0,0,0,,3,,,75,127
6000,note_on,1,0,0,,5,,,65,127
6000,note_on,0,0,0,,8,,,80,127
6213,note_on,213,0,0,,1,,,73,127
6425,note_off,212,0,0,,8,,,80,127
6425,note_off,0,0,0,,5,,,65,127
6426,note_on,1,0,0,,3,,,63,127
6426,note_on,0,0,0,,7,,,79,127
6638,note_off,212,0,0,,1,,,73,127
6639,note_on,1,0,0,,0,,,72,127
6851,note_off,212,0,0,,0,,,72,127
6852,note_on,1,0,0,,11,,,70,127
7064,note_off,212,0,0,,7,,,79,127
7064,note_off,0,0,0,,3,,,63,127
7065,note_on,1,0,0,,1,,,61,127
7065,note_on,0,0,0,,5,,,77,127
7277,note_off,212,0,0,,5,,,77,127
7277,note_off,0,0,0,,1,,,61,127
7278,note_on,1,0,0,,0,,,60,127
7278,note_on,0,0,0,,3,,,75,127
7490,note_off,212,0,0,,11,,,70,127
7491,note_on,1,0,0,,8,,,68,127
7655,note_off,164,0,0,,3,,,75,127
7703,note_off,48,0,0,,0,,,60,127
7704,note_on,1,0,0,,11,,,58,127
7704,note_on,0,0,0,,1,,,73,127
7916,note_off,212,0,0,,8,,,68,127
7917,note_on,1,0,0,,7,,,67,127
8129,note_off,212,0,0,,7,,,67,127
8130,note_on,1,0,0,,5,,,65,127
8342,note_off,212,0,0,,1,,,73,127
8342,note_off,0,0,0,,11,,,58,127
8343,note_on,1,0,0,,8,,,56,127
8343,note_on,0,0,0,,0,,,72,127
8555,note_off,212,0,0,,0,,,72,127
8555,note_off,0,0,0,,8,,,56,127
8556,note_on,1,0,0,,7,,,55,127
8556,note_on,0,0,0,,11,,,70,127
8768,note_off,212,0,0,,5,,,65,127
8769,note_on,1,0,0,,3,,,63,127
8933,note_off,164,0,0,,11,,,70,127
8981,note_off,48,0,0,,7,,,55,127
8982,note_on,1,0,0,,5,,,53,127
8982,note_on,0,0,0,,8,,,68,127
9194,note_off,212,0,0,,3,,,63,127
9195,note_on,1,0,0,,1,,,61,127
9407,note_off,212,0,0,,1,,,61,127
9408,note_on,1,0,0,,0,,,60,127
9620,note_off,212,0,0,,8,,,68,127
9620,note_off,0,0,0,,5,,,53,127
9621,note_on,1,0,0,,3,,,51,127
9621,note_on,0,0,0,,7,,,67,127
9833,note_off,212,0,0,,7,,,67,127
9833,note_off,0,0,0,,3,,,51,127
9834,note_on,1,0,0,,1,,,49,127
9834,note_on,0,0,0,,5,,,65,127
10046,note_off,212,0,0,,0,,,60,127
10047,note_on,1,0,0,,11,,,58,127
10259,note_off,212,0,0,,11,,,58,127
10259,note_off,0,0,0,,1,,,49,127
10260,note_on,1,0,0,,8,,,56,127
10260,note_on,0,0,0,,0,,,48,127
10472,note_off,212,0,0,,5,,,65,127
10473,note_on,1,0,0,,3,,,63,127
10685,note_off,212,0,0,,0,,,48,127
10685,note_off,0,0,0,,8,,,56,127
10686,note_on,1,0,0,,7,,,55,127
10686,note_on,0,0,0,,11,,,46,127
10898,note_off,212,0,0,,3,,,63,127
10899,note_on,1,0,0,,1,,,61,127
11111,note_off,212,0,0,,1,,,61,127
11111,note_off,0,0,0,,11,,,46,127
11112,note_on,1,0,0,,3,,,51,127
11112,note_on,0,0,0,,0,,,60,127
11324,note_off,212,0,0,,0,,,60,127
11325,note_on,1,0,0,,11,,,58,127
11537,note_off,212,0,0,,11,,,58,127
11537,note_off,0,0,0,,3,,,51,127
11537,note_off,0,0,0,,7,,,55,127
11538,note_on,1,0,0,,8,,,56,127
11538,note_on,0,0,0,,0,,,60,127
11750,note_off,212,0,0,,0,,,60,127
11751,note_on,1,0,0,,1,,,61,127
11963,note_off,212,0,0,,1,,,61,127
11964,note_on,1,0,0,,3,,,63,127
12176,note_off,212,0,0,,8,,,56,127
12177,note_on,1,0,0,,7,,,55,127
12389,note_off,212,0,0,,7,,,55,127
12389,note_off,0,0,0,,3,,,63,127
12390,note_on,1,0,0,,8,,,56,127
12390,note_on,0,0,0,,5,,,53,127
12390,note_on,0,0,0,,8,,,68,127
12603,note_on,213,0,0,,2,,,62,127
12815,note_off,212,0,0,,2,,,62,127
12815,note_off,0,0,0,,5,,,53,127
12815,note_off,0,0,0,,8,,,56,127
12816,note_on,1,0,0,,3,,,63,127
12816,note_on,0,0,0,,3,,,51,127
12816,note_on,0,0,0,,11,,,58,127
13028,note_off,212,0,0,,8,,,68,127
13029,note_on,1,0,0,,7,,,67,127
13241,note_off,212,0,0,,7,,,67,127
13241,note_off,0,0,0,,11,,,58,127
13241,note_off,0,0,0,,3,,,51,127
13242,note_on,1,0,0,,8,,,56,127
13242,note_on,0,0,0,,0,,,60,127
13242,note_on,0,0,0,,0,,,72,127
13454,note_off,212,0,0,,3,,,63,127
13455,note_on,1,0,0,,5,,,65,127
13666,note_off,211,0,0,,5,,,65,127
13667,note_off,1,0,0,,0,,,72,127
13667,note_off,0,0,0,,0,,,60,127
13667,note_off,0,0,0,,8,,,56,127
13668,note_on,1,0,0,,7,,,55,127
13668,note_on,0,0,0,,2,,,62,127
13668,note_on,0,0,0,,5,,,77,127
13881,note_on,213,0,0,,12,,,71,127
14093,note_off,212,0,0,,12,,,71,127
14093,note_off,0,0,0,,2,,,62,127
14093,note_off,0,0,0,,7,,,55,127
14094,note_on,1,0,0,,0,,,72,127
14094,note_on,0,0,0,,0,,,60,127
14094,note_on,0,0,0,,3,,,63,127
14306,note_off,212,0,0,,5,,,77,127
14307,note_on,1,0,0,,3,,,75,127
14519,note_off,212,0,0,,3,,,75,127
14520,note_on,1,0,0,,7,,,79,127
14732,note_off,212,0,0,,3,,,63,127
14732,note_off,0,0,0,,0,,,60,127
14732,note_off,0,0,0,,0,,,72,127
14733,note_on,1,0,0,,2,,,74,127
14733,note_on,0,0,0,,2,,,62,127
14733,note_on,0,0,0,,11,,,58,127
14944,note_off,211,0,0,,2,,,74,127
14945,note_off,1,0,0,,11,,,58,127
14945,note_off,0,0,0,,2,,,62,127
14945,note_off,0,0,0,,7,,,79,127
14946,note_on,1,0,0,,0,,,60,127
14946,note_on,0,0,0,,8,,,56,127
14946,note_on,0,0,0,,0,,,84,127
15159,note_on,213,0,0,,5,,,77,127
15371,note_off,212,0,0,,5,,,77,127
15371,note_off,0,0,0,,8,,,56,127
15371,note_off,0,0,0,,0,,,60,127
15372,note_on,1,0,0,,7,,,79,127
15372,note_on,0,0,0,,7,,,55,127
15584,note_off,212,0,0,,0,,,84,127
15585,note_on,1,0,0,,10,,,81,127
15797,note_off,212,0,0,,10,,,81,127
15797,note_off,0,0,0,,7,,,55,127
15798,note_on,1,0,0,,7,,,67,127
15798,note_on,0,0,0,,11,,,82,127
16010,note_off,212,0,0,,7,,,79,127
16011,note_on,1,0,0,,2,,,74,127
16223,note_off,212,0,0,,2,,,74,127
16223,note_off,0,0,0,,7,,,67,127
16224,note_on,1,0,0,,4,,,76,127
16224,note_on,0,0,0,,0,,,60,127
16436,note_off,212,0,0,,11,,,82,127
16437,note_on,1,0,0,,7,,,79,127
16646,note_off,209,0,0,,4,,,76,127
16649,note_off,3,0,0,,7,,,79,127
16649,note_off,0,0,0,,0,,,60,127
16650,note_on,1,0,0,,5,,,65,127
16650,note_on,0,0,0,,8,,,80,127
16863,note_on,213,0,0,,12,,,71,127
17075,note_off,212,0,0,,12,,,71,127
17076,note_on,1,0,0,,0,,,72,127
17288,note_off,212,0,0,,8,,,80,127
17288,note_off,0,0,0,,5,,,65,127
17289,note_on,1,0,0,,3,,,63,127
17289,note_on,0,0,0,,7,,,79,127
17501,note_off,212,0,0,,7,,,79,127
17501,note_off,0,0,0,,3,,,63,127
17502,note_on,1,0,0,,2,,,62,127
17502,note_on,0,0,0,,5,,,77,127
17714,note_off,212,0,0,,0,,,72,127
17715,note_on,1,0,0,,11,,,70,127
17715,note_on,0,0,0,,5,,,65,127
17926,note_off,211,0,0,,11,,,70,127
17927,note_off,1,0,0,,5,,,65,127
17927,note_off,0,0,0,,5,,,77,127
17927,note_off,0,0,0,,2,,,62,127
17928,note_on,1,0,0,,0,,,60,127
17928,note_on,0,0,0,,3,,,63,127
17928,note_on,0,0,0,,3,,,75,127
18141,note_on,213,0,0,,8,,,68,127
18353,note_off,212,0,0,,8,,,68,127
18354,note_on,1,0,0,,7,,,67,127
18566,note_off,212,0,0,,3,,,75,127
18566,note_off,0,0,0,,3,,,63,127
18566,note_off,0,0,0,,0,,,60,127
18567,note_on,1,0,0,,11,,,58,127
18567,note_on,0,0,0,,2,,,62,127
18567,note_on,0,0,0,,2,,,74,127
18779,note_off,212,0,0,,2,,,74,127
18779,note_off,0,0,0,,2,,,62,127
18779,note_off,0,0,0,,11,,,58,127
18780,note_on,1,0,0,,8,,,56,127
18780,note_on,0,0,0,,0,,,60,127
18780,note_on,0,0,0,,0,,,72,127
18992,note_off,212,0,0,,7,,,67,127
18993,note_on,1,0,0,,5,,,65,127
19205,note_off,212,0,0,,5,,,65,127
19205,note_off,0,0,0,,0,,,72,127
19205,note_off,0,0,0,,0,,,60,127
19205,note_off,0,0,0,,8,,,56,127
19206,note_on,1,0,0,,2,,,62,127
19206,note_on,0,0,0,,7,,,55,127
19206,note_on,0,0,0,,12,,,71,127
19418,note_off,212,0,0,,12,,,71,127
19419,note_on,1,0,0,,2,,,74,127
19631,note_off,212,0,0,,2,,,74,127
19632,note_on,1,0,0,,12,,,71,127
19844,note_off,212,0,0,,12,,,71,127
19845,note_on,1,0,0,,7,,,67,127
20005,note_off,160,0,0,,7,,,55,127
20005,note_off,0,0,0,,2,,,62,127
20057,note_off,52,0,0,,7,,,67,127
20058,note_on,1,0,0,,3,,,63,127
20058,note_on,0,0,0,,0,,,60,127
20058,note_on,0,0,0,,8,,,68,127
20270,note_off,212,0,0,,8,,,68,127
20271,note_on,1,0,0,,3,,,75,127
20483,note_off,212,0,0,,3,,,75,127
20483,note_off,0,0,0,,0,,,60,127
20483,note_off,0,0,0,,3,,,63,127
20484,note_on,1,0,0,,12,,,59,127
20484,note_on,0,0,0,,2,,,62,127
20484,note_on,0,0,0,,5,,,65,127
20484,note_on,0,0,0,,5,,,77,127
20696,note_off,212,0,0,,5,,,77,127
20697,note_on,1,0,0,,2,,,74,127
20909,note_off,212,0,0,,2,,,74,127
20910,note_on,1,0,0,,12,,,71,127
21122,note_off,212,0,0,,12,,,71,127
21123,note_on,1,0,0,,7,,,67,127
21335,note_off,212,0,0,,7,,,67,127
21335,note_off,0,0,0,,5,,,65,127
21335,note_off,0,0,0,,2,,,62,127
21335,note_off,0,0,0,,12,,,59,127
21336,note_on,1,0,0,,3,,,63,127
21336,note_on,0,0,0,,0,,,60,127
21336,note_on,0,0,0,,5,,,65,127
21336,note_on,0,0,0,,8,,,68,127
21548,note_off,212,0,0,,8,,,68,127
21549,note_on,1,0,0,,3,,,75,127
21761,note_off,212,0,0,,3,,,75,127
21761,note_off,0,0,0,,5,,,65,127
21761,note_off,0,0,0,,0,,,60,127
21761,note_off,0,0,0,,3,,,63,127
21762,note_on,1,0,0,,5,,,65,127
21762,note_on,0,0,0,,2,,,62,127
21762,note_on,0,0,0,,12,,,59,127
21762,note_on,0,0,0,,5,,,77,127
21974,note_off,212,0,0,,5,,,77,127
21975,note_on,1,0,0,,2,,,74,127
22187,note_off,212,0,0,,2,,,74,127
22188,note_on,1,0,0,,12,,,71,127
22400,note_off,212,0,0,,12,,,71,127
22401,note_on,1,0,0,,7,,,67,127
22613,note_off,212,0,0,,7,,,67,127
22613,note_off,0,0,0,,12,,,59,127
22613,note_off,0,0,0,,2,,,62,127
22613,note_off,0,0,0,,5,,,65,127
22614,note_on,1,0,0,,3,,,63,127
22614,note_on,0,0,0,,5,,,65,127
22614,note_on,0,0,0,,0,,,60,127
22614,note_on,0,0,0,,8,,,68,127
22826,note_off,212,0,0,,8,,,68,127
22827,note_on,1,0,0,,3,,,75,127
23039,note_off,212,0,0,,3,,,75,127
23039,note_off,0,0,0,,0,,,60,127
23039,note_off,0,0,0,,5,,,65,127
23039,note_off,0,0,0,,3,,,63,127
23040,note_on,1,0,0,,5,,,65,127
23040,note_on,0,0,0,,2,,,62,127
23040,note_on,0,0,0,,12,,,59,127
23040,note_on,0,0,0,,5,,,77,127
23252,note_off,212,0,0,,5,,,77,127
23253,note_on,1,0,0,,2,,,74,127
23465,note_off,212,0,0,,2,,,74,127
23466,note_on,1,0,0,,12,,,71,127
23678,note_off,212,0,0,,12,,,71,127
23679,note_on,1,0,0,,7,,,67,127
23828,note_off,149,0,0,,12,,,59,127
23828,note_off,0,0,0,,2,,,62,127
23828,note_off,0,0,0,,5,,,65,127
23891,note_off,63,0,0,,7,,,67,127
23892,note_on,1,0,0,,4,,,64,127
23892,note_on,0,0,0,,7,,,55,127
23892,note_on,0,0,0,,11,,,58,127
23892,note_on,0,0,0,,0,,,60,127
23892,note_on,0,0,0,,7,,,79,127
24104,note_off,212,0,0,,7,,,79,127
24105,note_on,1,0,0,,4,,,76,127
24317,note_off,212,0,0,,4,,,76,127
24317,note_off,0,0,0,,0,,,60,127
24317,note_off,0,0,0,,11,,,58,127
24317,note_off,0,0,0,,7,,,55,127
24317,note_off,0,0,0,,4,,,64,127
24318,note_on,1,0,0,,5,,,65,127
24318,note_on,0,0,0,,8,,,56,127
24318,note_on,0,0,0,,0,,,60,127
24318,note_on,0,0,0,,0,,,84,127
24530,note_off,212,0,0,,0,,,84,127
24531,note_on,1,0,0,,8,,,80,127
24743,note_off,212,0,0,,8,,,80,127
24744,note_on,1,0,0,,5,,,77,127
24956,note_off,212,0,0,,5,,,77,127
24957,note_on,1,0,0,,0,,,72,127
25150,note_off,193,0,0,,0,,,60,127
25150,note_off,0,0,0,,8,,,56,127
25150,note_off,0,0,0,,5,,,65,127
25169,note_off,19,0,0,,0,,,72,127
25170,note_on,1,0,0,,4,,,64,127
25170,note_on,0,0,0,,7,,,55,127
25170,note_on,0,0,0,,0,,,60,127
25170,note_on,0,0,0,,11,,,58,127
25170,note_on,0,0,0,,11,,,70,127
25382,note_off,212,0,0,,11,,,70,127
25383,note_on,1,0,0,,4,,,76,127
25595,note_off,212,0,0,,4,,,76,127
25595,note_off,0,0,0,,11,,,58,127
25595,note_off,0,0,0,,0,,,60,127
25595,note_off,0,0,0,,7,,,55,127
25595,note_off,0,0,0,,4,,,64,127
25596,note_on,1,0,0,,0,,,60,127
25596,note_on,0,0,0,,8,,,56,127
25596,note_on,0,0,0,,5,,,65,127
25596,note_on,0,0,0,,0,,,84,127
25808,note_off,212,0,0,,0,,,84,127
25809,note_on,1,0,0,,8,,,80,127
26021,note_off,212,0,0,,8,,,80,127
26022,note_on,1,0,0,,5,,,77,127
26234,note_off,212,0,0,,5,,,77,127
26235,note_on,1,0,0,,0,,,72,127
26447,note_off,212,0,0,,0,,,72,127
26447,note_off,0,0,0,,5,,,65,127
26447,note_off,0,0,0,,8,,,56,127
26447,note_off,0,0,0,,0,,,60,127
26448,note_on,1,0,0,,4,,,64,127
26448,note_on,0,0,0,,0,,,60,127
26448,note_on,0,0,0,,7,,,55,127
26448,note_on,0,0,0,,11,,,58,127
26448,note_on,0,0,0,,11,,,70,127
26660,note_off,212,0,0,,11,,,70,127
26661,note_on,1,0,0,,4,,,76,127
26859,note_off,198,0,0,,11,,,58,127
26859,note_off,0,0,0,,7,,,55,127
26859,note_off,0,0,0,,0,,,60,127
26859,note_off,0,0,0,,4,,,64,127
26873,note_off,14,0,0,,4,,,76,127
26874,note_on,1,0,0,,5,,,65,127
26874,note_on,0,0,0,,0,,,60,127
26874,note_on,0,0,0,,8,,,56,127
26874,note_on,0,0,0,,8,,,80,127
27085,note_off,211,0,0,,5,,,65,127
27087,note_on,2,0,0,,5,,,77,127
27299,note_off,212,0,0,,5,,,77,127
27300,note_on,1,0,0,,3,,,75,127
27512,note_off,212,0,0,,8,,,80,127
27512,note_off,0,0,0,,8,,,56,127
27513,note_on,1,0,0,,7,,,55,127
27513,note_on,0,0,0,,11,,,82,127
27620,note_off,107,0,0,,0,,,60,127
27726,note_off,106,0,0,,11,,,82,127
27726,note_off,0,0,0,,7,,,55,127
27727,note_on,1,0,0,,8,,,80,127
27727,note_on,0,0,0,,5,,,65,127
27939,note_off,212,0,0,,3,,,75,127
27940,note_on,1,0,0,,2,,,74,127
28152,note_off,212,0,0,,2,,,74,127
28152,note_off,0,0,0,,5,,,65,127
28153,note_on,1,0,0,,0,,,72,127
28153,note_on,0,0,0,,3,,,63,127
28365,note_off,212,0,0,,8,,,80,127
28366,note_on,1,0,0,,7,,,79,127
28578,note_off,212,0,0,,7,,,79,127
28579,note_on,1,0,0,,5,,,77,127
28791,note_off,212,0,0,,3,,,63,127
28791,note_off,0,0,0,,0,,,72,127
28792,note_on,1,0,0,,11,,,70,127
28792,note_on,0,0,0,,2,,,62,127
29004,note_off,212,0,0,,2,,,62,127
29004,note_off,0,0,0,,11,,,70,127
29005,note_on,1,0,0,,8,,,68,127
29005,note_on,0,0,0,,0,,,60,127
29217,note_off,212,0,0,,5,,,77,127
29218,note_on,1,0,0,,3,,,75,127
29430,note_off,212,0,0,,0,,,60,127
29430,note_off,0,0,0,,8,,,68,127
29431,note_on,1,0,0,,7,,,67,127
29431,note_on,0,0,0,,2,,,62,127
29431,note_on,0,0,0,,12,,,59,127
29484,note_off,53,0,0,,3,,,75,127
29644,note_on,160,0,0,,2,,,74,127
29856,note_off,212,0,0,,2,,,74,127
29856,note_off,0,0,0,,12,,,59,127
29857,note_on,1,0,0,,7,,,55,127
29857,note_on,0,0,0,,0,,,72,127
30069,note_off,212,0,0,,0,,,72,127
30070,note_on,1,0,0,,12,,,71,127
30282,note_off,212,0,0,,12,,,71,127
30282,note_off,0,0,0,,7,,,55,127
30282,note_off,0,0,0,,2,,,62,127
30282,note_off,0,0,0,,7,,,67,127
30283,note_on,1,0,0,,0,,,60,127
30283,note_on,0,0,0,,8,,,56,127
30283,note_on,0,0,0,,0,,,72,127
30496,note_on,213,0,0,,5,,,65,127
30708,note_off,212,0,0,,5,,,65,127
30708,note_off,0,0,0,,8,,,56,127
30708,note_off,0,0,0,,0,,,60,127
30709,note_on,1,0,0,,7,,,67,127
30709,note_on,0,0,0,,0,,,60,127
30709,note_on,0,0,0,,3,,,51,127
30921,note_off,212,0,0,,3,,,51,127
30921,note_off,0,0,0,,7,,,67,127
30922,note_on,1,0,0,,8,,,68,127
30922,note_on,0,0,0,,5,,,53,127
31134,note_off,212,0,0,,5,,,53,127
31134,note_off,0,0,0,,8,,,68,127
31134,note_off,0,0,0,,0,,,60,127
31135,note_on,1,0,0,,3,,,63,127
31135,note_on,0,0,0,,7,,,55,127
31347,note_off,212,0,0,,0,,,72,127
31348,note_on,1,0,0,,2,,,74,127
31560,note_off,212,0,0,,2,,,74,127
31560,note_off,0,0,0,,7,,,55,127
31560,note_off,0,0,0,,3,,,63,127
31561,note_on,1,0,0,,2,,,62,127
31561,note_on,0,0,0,,7,,,43,127
31561,note_on,0,0,0,,12,,,71,127
31983,note_off,422,0,0,,2,,,62,127
31986,note_off,3,0,0,,12,,,71,127
31986,note_off,0,0,0,,7,,,43,127
31987,note_on,1,0,0,,8,,,44,127
31987,note_on,0,0,0,,0,,,72,127
32200,note_on,213,0,0,,0,,,60,127
32412,note_off,212,0,0,,0,,,60,127
32413,note_on,1,0,0,,5,,,65,127
32625,note_off,212,0,0,,5,,,65,127
32625,note_off,0,0,0,,8,,,44,127
32626,note_on,1,0,0,,8,,,68,127
32626,note_on,0,0,0,,5,,,53,127
32838,note_off,212,0,0,,5,,,53,127
32838,note_off,0,0,0,,8,,,68,127
32839,note_on,1,0,0,,7,,,67,127
32839,note_on,0,0,0,,3,,,51,127
33051,note_off,212,0,0,,3,,,51,127
33051,note_off,0,0,0,,7,,,67,127
33052,note_on,1,0,0,,3,,,63,127
33052,note_on,0,0,0,,0,,,48,127
33264,note_off,212,0,0,,0,,,48,127
33264,note_off,0,0,0,,3,,,63,127
33264,note_off,0,0,0,,0,,,72,127
33265,note_on,1,0,0,,5,,,53,127
33265,note_on,0,0,0,,8,,,68,127
33477,note_off,212,0,0,,8,,,68,127
33477,note_off,0,0,0,,5,,,53,127
33478,note_on,1,0,0,,2,,,50,127
33478,note_on,0,0,0,,5,,,65,127
33690,note_off,212,0,0,,5,,,65,127
33690,note_off,0,0,0,,2,,,50,127
33691,note_on,1,0,0,,7,,,55,127
33691,note_on,0,0,0,,3,,,63,127
33904,note_on,213,0,0,,2,,,74,127
34116,note_off,212,0,0,,3,,,63,127
34116,note_off,0,0,0,,7,,,55,127
34117,note_on,1,0,0,,7,,,43,127
34117,note_on,0,0,0,,2,,,62,127
34329,note_off,212,0,0,,2,,,74,127
34330,note_on,1,0,0,,12,,,71,127
34542,note_off,212,0,0,,12,,,71,127
34542,note_off,0,0,0,,2,,,62,127
34542,note_off,0,0,0,,7,,,43,127
34543,note_on,1,0,0,,0,,,48,127
34543,note_on,0,0,0,,0,,,60,127
34755,note_off,212,0,0,,0,,,60,127
34756,note_on,1,0,0,,4,,,64,127
34968,note_off,212,0,0,,4,,,64,127
34969,note_on,1,0,0,,7,,,67,127
35181,note_off,212,0,0,,7,,,67,127
35181,note_off,0,0,0,,0,,,48,127
35182,note_on,1,0,0,,11,,,70,127
35394,note_off,212,0,0,,11,,,70,127
35395,note_on,1,0,0,,1,,,73,127
35607,note_off,212,0,0,,1,,,73,127
35608,note_on,1,0,0,,4,,,76,127
35820,note_off,212,0,0,,4,,,76,127
35821,note_on,1,0,0,,7,,,79,127
36033,note_off,212,0,0,,7,,,79,127
36034,note_on,1,0,0,,4,,,76,127
36246,note_off,212,0,0,,4,,,76,127
36247,note_on,1,0,0,,1,,,73,127
36459,note_off,212,0,0,,1,,,73,127
36460,note_on,1,0,0,,11,,,70,127
36672,note_off,212,0,0,,11,,,70,127
36673,note_on,1,0,0,,7,,,67,127
36885,note_off,212,0,0,,7,,,67,127
36893,note_on,8,0,0,,4,,,64,127
37105,note_off,212,0,0,,4,,,64,127
37117,note_on,12,0,0,,10,,,69,127
37117,note_on,0,0,0,,5,,,53,127
37117,note_on,0,0,0,,5,,,65,127
37117,note_on,0,0,0,,0,,,60,127
37329,note_off,212,0,0,,10,,,69,127
37330,note_on,1,0,0,,11,,,70,127
37542,note_off,212,0,0,,11,,,70,127
37543,note_on,1,0,0,,0,,,72,127
37755,note_off,212,0,0,,0,,,60,127
37755,note_off,0,0,0,,5,,,65,127
37755,note_off,0,0,0,,5,,,53,127
37756,note_on,1,0,0,,3,,,63,127
37968,note_off,212,0,0,,3,,,63,127
37969,note_on,1,0,0,,1,,,61,127
37969,note_on,0,0,0,,5,,,65,127
38181,note_off,212,0,0,,0,,,72,127
38182,note_on,1,0,0,,11,,,70,127
38394,note_off,212,0,0,,11,,,70,127
38394,note_off,0,0,0,,5,,,65,127
38394,note_off,0,0,0,,1,,,61,127
38395,note_on,1,0,0,,10,,,69,127
38395,note_on,0,0,0,,3,,,63,127
38395,note_on,0,0,0,,0,,,60,127
38607,note_off,212,0,0,,10,,,69,127
38608,note_on,1,0,0,,11,,,70,127
38820,note_off,212,0,0,,11,,,70,127
38821,note_on,1,0,0,,0,,,72,127
39033,note_off,212,0,0,,3,,,63,127
39034,note_on,1,0,0,,5,,,65,127
39246,note_off,212,0,0,,5,,,65,127
39246,note_off,0,0,0,,0,,,60,127
39247,note_on,1,0,0,,11,,,58,127
39247,note_on,0,0,0,,3,,,63,127
39247,note_on,0,0,0,,6,,,66,127
39459,note_off,212,0,0,,0,,,72,127
39460,note_on,1,0,0,,11,,,70,127
39672,note_off,212,0,0,,11,,,70,127
39672,note_off,0,0,0,,6,,,66,127
39672,note_off,0,0,0,,3,,,63,127
39672,note_off,0,0,0,,11,,,58,127
39673,note_on,1,0,0,,10,,,69,127
39673,note_on,0,0,0,,0,,,72,127
39673,note_on,0,0,0,,3,,,63,127
39673,note_on,0,0,0,,10,,,57,127
39673,note_on,0,0,0,,5,,,65,127
39885,note_off,212,0,0,,0,,,72,127
39885,note_off,0,0,0,,10,,,69,127
39886,note_on,1,0,0,,11,,,70,127
39886,note_on,0,0,0,,1,,,73,127
40098,note_off,212,0,0,,1,,,73,127
40098,note_off,0,0,0,,11,,,70,127
40099,note_on,1,0,0,,0,,,72,127
40099,note_on,0,0,0,,3,,,75,127
40311,note_off,212,0,0,,5,,,65,127
40311,note_off,0,0,0,,3,,,63,127
40312,note_on,1,0,0,,5,,,65,127
40524,note_off,212,0,0,,5,,,65,127
40524,note_off,0,0,0,,0,,,72,127
40524,note_off,0,0,0,,10,,,57,127
40525,note_on,1,0,0,,11,,,58,127
40525,note_on,0,0,0,,3,,,63,127
40525,note_on,0,0,0,,6,,,66,127
40525,note_on,0,0,0,,11,,,70,127
40737,note_off,212,0,0,,3,,,75,127
40738,note_on,1,0,0,,1,,,73,127
40950,note_off,212,0,0,,1,,,73,127
40950,note_off,0,0,0,,11,,,70,127
40950,note_off,0,0,0,,6,,,66,127
40950,note_off,0,0,0,,3,,,63,127
40950,note_off,0,0,0,,11,,,58,127
40951,note_on,1,0,0,,10,,,69,127
40951,note_on,0,0,0,,0,,,72,127
40951,note_on,0,0,0,,3,,,63,127
40951,note_on,0,0,0,,10,,,57,127
40951,note_on,0,0,0,,5,,,65,127
41163,note_off,212,0,0,,0,,,72,127
41163,note_off,0,0,0,,10,,,69,127
41164,note_on,1,0,0,,11,,,70,127
41164,note_on,0,0,0,,1,,,73,127
41376,note_off,212,0,0,,1,,,73,127
41376,note_off,0,0,0,,11,,,70,127
41377,note_on,1,0,0,,0,,,72,127
41377,note_on,0,0,0,,3,,,75,127
41589,note_off,212,0,0,,5,,,65,127
41589,note_off,0,0,0,,3,,,63,127
41590,note_on,1,0,0,,5,,,65,127
41801,note_off,211,0,0,,5,,,65,127
41802,note_off,1,0,0,,3,,,75,127
41802,note_off,0,0,0,,0,,,72,127
41802,note_off,0,0,0,,10,,,57,127
41803,note_on,1,0,0,,1,,,73,127
41803,note_on,0,0,0,,11,,,58,127
41803,note_on,0,0,0,,6,,,66,127
42014,note_off,211,0,0,,6,,,66,127
42015,note_off,1,0,0,,11,,,58,127
42015,note_off,0,0,0,,1,,,73,127
42016,note_on,1,0,0,,0,,,72,127
42016,note_on,0,0,0,,8,,,56,127
42016,note_on,0,0,0,,5,,,65,127
42228,note_off,212,0,0,,5,,,65,127
42228,note_off,0,0,0,,8,,,56,127
42228,note_off,0,0,0,,0,,,72,127
42229,note_on,1,0,0,,11,,,70,127
42229,note_on,0,0,0,,3,,,63,127
42229,note_on,0,0,0,,7,,,55,127
42229,note_on,0,0,0,,7,,,67,127
42441,note_off,212,0,0,,11,,,70,127
42442,note_on,1,0,0,,0,,,72,127
42654,note_off,212,0,0,,0,,,72,127
42655,note_on,1,0,0,,1,,,73,127
42867,note_off,212,0,0,,3,,,63,127
42868,note_on,1,0,0,,3,,,63,127
43080,note_off,212,0,0,,7,,,55,127
43081,note_on,1,0,0,,8,,,56,127
43293,note_off,212,0,0,,3,,,63,127
43293,note_off,0,0,0,,1,,,73,127
43293,note_off,0,0,0,,7,,,67,127
43294,note_on,1,0,0,,0,,,72,127
43294,note_on,0,0,0,,3,,,63,127
43294,note_on,0,0,0,,8,,,68,127
43506,note_off,212,0,0,,8,,,68,127
43506,note_off,0,0,0,,3,,,63,127
43506,note_off,0,0,0,,0,,,72,127
43506,note_off,0,0,0,,8,,,56,127
43507,note_on,1,0,0,,11,,,70,127
43507,note_on,0,0,0,,7,,,55,127
43507,note_on,0,0,0,,3,,,63,127
43507,note_on,0,0,0,,11,,,58,127
43719,note_off,212,0,0,,11,,,70,127
43720,note_on,1,0,0,,0,,,72,127
43932,note_off,212,0,0,,0,,,72,127
43933,note_on,1,0,0,,1,,,73,127
44145,note_off,212,0,0,,11,,,58,127
44145,note_off,0,0,0,,3,,,63,127
44146,note_on,1,0,0,,3,,,63,127
44358,note_off,212,0,0,,7,,,55,127
44359,note_on,1,0,0,,8,,,56,127
44571,note_off,212,0,0,,3,,,63,127
44571,note_off,0,0,0,,1,,,73,127
44572,note_on,1,0,0,,0,,,72,127
44572,note_on,0,0,0,,5,,,65,127
44784,note_off,212,0,0,,5,,,65,127
44784,note_off,0,0,0,,0,,,72,127
44784,note_off,0,0,0,,8,,,56,127
44785,note_on,1,0,0,,5,,,65,127
44785,note_on,0,0,0,,1,,,61,127
44785,note_on,0,0,0,,5,,,77,127
44998,note_on,213,0,0,,7,,,79,127
45210,note_off,212,0,0,,7,,,79,127
45211,note_on,1,0,0,,8,,,80,127
45423,note_off,212,0,0,,5,,,77,127
45423,note_off,0,0,0,,1,,,61,127
45424,note_on,1,0,0,,0,,,60,127
45424,note_on,0,0,0,,3,,,75,127
45636,note_off,212,0,0,,3,,,75,127
45636,note_off,0,0,0,,0,,,60,127
45636,note_off,0,0,0,,5,,,65,127
45637,note_on,1,0,0,,1,,,61,127
45637,note_on,0,0,0,,11,,,58,127
45637,note_on,0,0,0,,1,,,73,127
45849,note_off,212,0,0,,8,,,80,127
45850,note_on,1,0,0,,7,,,79,127
46059,note_off,209,0,0,,1,,,73,127
46062,note_off,3,0,0,,7,,,79,127
46062,note_off,0,0,0,,11,,,58,127
46062,note_off,0,0,0,,1,,,61,127
46063,note_on,1,0,0,,0,,,84,127
46063,note_on,0,0,0,,8,,,56,127
46063,note_on,0,0,0,,5,,,65,127
46063,note_on,0,0,0,,0,,,60,127
46276,note_on,213,0,0,,5,,,77,127
46488,note_off,212,0,0,,5,,,77,127
46488,note_off,0,0,0,,0,,,60,127
46488,note_off,0,0,0,,5,,,65,127
46488,note_off,0,0,0,,8,,,56,127
46489,note_on,1,0,0,,0,,,60,127
46489,note_on,0,0,0,,4,,,64,127
46489,note_on,0,0,0,,11,,,58,127
46489,note_on,0,0,0,,7,,,55,127
46489,note_on,0,0,0,,4,,,76,127
46701,note_off,212,0,0,,0,,,84,127
46702,note_on,1,0,0,,11,,,82,127
46914,note_off,212,0,0,,11,,,82,127
46914,note_off,0,0,0,,7,,,55,127
46914,note_off,0,0,0,,11,,,58,127
46914,note_off,0,0,0,,4,,,64,127
46914,note_off,0,0,0,,0,,,60,127
46915,note_on,1,0,0,,8,,,80,127
46915,note_on,0,0,0,,5,,,53,127
46915,note_on,0,0,0,,0,,,60,127
46915,note_on,0,0,0,,5,,,65,127
46977,note_off,62,0,0,,4,,,76,127
47128,note_on,151,0,0,,1,,,73,127
47337,note_off,209,0,0,,8,,,80,127
47340,note_off,3,0,0,,1,,,73,127
47340,note_off,0,0,0,,5,,,65,127
47340,note_off,0,0,0,,0,,,60,127
47340,note_off,0,0,0,,5,,,53,127
47341,note_on,1,0,0,,3,,,63,127
47341,note_on,0,0,0,,0,,,72,127
47554,note_on,213,0,0,,7,,,79,127
47766,note_off,212,0,0,,7,,,79,127
47766,note_off,0,0,0,,3,,,63,127
47767,note_on,1,0,0,,5,,,77,127
47767,note_on,0,0,0,,1,,,61,127
47767,note_on,0,0,0,,5,,,65,127
47979,note_off,212,0,0,,0,,,72,127
47980,note_on,1,0,0,,11,,,70,127
48192,note_off,212,0,0,,11,,,70,127
48192,note_off,0,0,0,,5,,,65,127
48192,note_off,0,0,0,,1,,,61,127
48193,note_on,1,0,0,,3,,,63,127
48193,note_on,0,0,0,,0,,,60,127
48193,note_on,0,0,0,,10,,,69,127
48405,note_off,212,0,0,,5,,,77,127
48406,note_on,1,0,0,,3,,,75,127
48615,note_off,209,0,0,,10,,,69,127
48618,note_off,3,0,0,,3,,,75,127
48618,note_off,0,0,0,,0,,,60,127
48618,note_off,0,0,0,,3,,,63,127
48619,note_on,1,0,0,,1,,,73,127
48619,note_on,0,0,0,,11,,,58,127
48619,note_on,0,0,0,,1,,,61,127
48832,note_on,213,0,0,,6,,,66,127
49044,note_off,212,0,0,,6,,,66,127
49045,note_on,1,0,0,,5,,,65,127
49257,note_off,212,0,0,,1,,,61,127
49257,note_off,0,0,0,,11,,,58,127
49257,note_off,0,0,0,,1,,,73,127
49258,note_on,1,0,0,,0,,,72,127
49258,note_on,0,0,0,,0,,,60,127
49258,note_on,0,0,0,,8,,,56,127
49470,note_off,212,0,0,,8,,,56,127
49470,note_off,0,0,0,,0,,,60,127
49470,note_off,0,0,0,,0,,,72,127
49471,note_on,1,0,0,,11,,,70,127
49471,note_on,0,0,0,,11,,,58,127
49471,note_on,0,0,0,,7,,,55,127
49471,note_on,0,0,0,,0,,,60,127
49683,note_off,212,0,0,,5,,,65,127
49684,note_on,1,0,0,,4,,,64,127
49896,note_off,212,0,0,,4,,,64,127
49896,note_off,0,0,0,,0,,,60,127
49896,note_off,0,0,0,,7,,,55,127
49896,note_off,0,0,0,,11,,,58,127
49896,note_off,0,0,0,,11,,,70,127
49897,note_on,1,0,0,,8,,,68,127
49897,note_on,0,0,0,,5,,,53,127
49897,note_on,0,0,0,,0,,,60,127
49897,note_on,0,0,0,,5,,,65,127
50109,note_off,212,0,0,,8,,,68,127
50110,note_on,1,0,0,,0,,,72,127
50322,note_off,212,0,0,,0,,,72,127
50322,note_off,0,0,0,,0,,,60,127
50322,note_off,0,0,0,,5,,,53,127
50323,note_on,1,0,0,,11,,,70,127
50323,note_on,0,0,0,,11,,,58,127
50323,note_on,0,0,0,,1,,,61,127
50535,note_off,212,0,0,,11,,,70,127
50536,note_on,1,0,0,,8,,,68,127
50748,note_off,212,0,0,,8,,,68,127
50749,note_on,1,0,0,,7,,,67,127
50961,note_off,212,0,0,,7,,,67,127
50961,note_off,0,0,0,,5,,,65,127
50971,note_on,10,0,0,,5,,,65,127
51174,note_off,203,0,0,,1,,,61,127
51174,note_off,0,0,0,,11,,,58,127
51183,note_off,9,0,0,,5,,,65,127
51193,note_on,10,0,0,,7,,,55,127
51193,note_on,0,0,0,,0,,,60,127
51193,note_on,0,0,0,,0,,,48,127
51193,note_on,0,0,0,,0,,,72,127
51405,note_off,212,0,0,,0,,,72,127
51406,note_on,1,0,0,,7,,,67,127
51618,note_off,212,0,0,,7,,,67,127
51619,note_on,1,0,0,,4,,,64,127
51831,note_off,212,0,0,,4,,,64,127
51831,note_off,0,0,0,,0,,,48,127
51831,note_off,0,0,0,,0,,,60,127
51831,note_off,0,0,0,,7,,,55,127
51832,note_on,1,0,0,,0,,,48,127
51832,note_on,0,0,0,,0,,,60,127
52044,note_off,212,0,0,,0,,,60,127
52044,note_off,0,0,0,,0,,,48,127
52045,note_on,1,0,0,,5,,,53,127
52045,note_on,0,0,0,,1,,,61,127
52257,note_off,212,0,0,,1,,,61,127
52258,note_on,1,0,0,,11,,,70,127
52470,note_off,212,0,0,,11,,,70,127
52470,note_off,0,0,0,,5,,,53,127
52471,note_on,1,0,0,,5,,,53,127
52471,note_on,0,0,0,,0,,,72,127
52535,note_on,64,0,0,,4,,,52,127
52541,note_off,6,0,0,,5,,,53,127
52600,note_on,59,0,0,,5,,,53,127
52606,note_off,6,0,0,,4,,,52,127
52665,note_on,59,0,0,,4,,,52,127
52671,note_off,6,0,0,,5,,,53,127
52684,note_off,13,0,0,,0,,,72,127
52685,note_on,1,0,0,,7,,,67,127
52897,note_off,212,0,0,,7,,,67,127
52898,note_on,1,0,0,,4,,,64,127
53102,note_off,204,0,0,,4,,,52,127
53110,note_off,8,0,0,,4,,,64,127
53111,note_on,1,0,0,,4,,,52,127
53111,note_on,0,0,0,,0,,,60,127
53323,note_off,212,0,0,,0,,,60,127
53323,note_off,0,0,0,,4,,,52,127
53324,note_on,1,0,0,,5,,,53,127
53324,note_on,0,0,0,,1,,,61,127
53536,note_off,212,0,0,,1,,,61,127
53537,note_on,1,0,0,,11,,,70,127
53749,note_off,212,0,0,,11,,,70,127
53749,note_off,0,0,0,,5,,,53,127
53750,note_on,1,0,0,,5,,,53,127
53750,note_on,0,0,0,,0,,,72,127
53818,note_on,68,0,0,,4,,,52,127
53820,note_off,2,0,0,,5,,,53,127
53886,note_on,66,0,0,,5,,,53,127
53888,note_off,2,0,0,,4,,,52,127
53954,note_on,66,0,0,,4,,,52,127
53956,note_off,2,0,0,,5,,,53,127
53963,note_off,7,0,0,,0,,,72,127
53964,note_on,1,0,0,,7,,,67,127
54176,note_off,212,0,0,,7,,,67,127
54177,note_on,1,0,0,,4,,,64,127
54389,note_off,212,0,0,,4,,,64,127
54389,note_off,0,0,0,,4,,,52,127
54390,note_on,1,0,0,,4,,,52,127
54390,note_on,0,0,0,,0,,,60,127
54602,note_off,212,0,0,,0,,,60,127
54602,note_off,0,0,0,,4,,,52,127
54603,note_on,1,0,0,,10,,,57,127
54603,note_on,0,0,0,,5,,,53,127
54603,note_on,0,0,0,,3,,,51,127
54603,note_on,0,0,0,,0,,,72,127
54815,note_off,212,0,0,,0,,,72,127
54816,note_on,1,0,0,,10,,,69,127
55028,note_off,212,0,0,,10,,,69,127
55028,note_off,0,0,0,,3,,,51,127
55028,note_off,0,0,0,,5,,,53,127
55028,note_off,0,0,0,,10,,,57,127
55029,note_on,1,0,0,,1,,,49,127
55029,note_on,0,0,0,,5,,,53,127
55029,note_on,0,0,0,,11,,,58,127
55029,note_on,0,0,0,,5,,,77,127
55241,note_off,212,0,0,,5,,,77,127
55242,note_on,1,0,0,,1,,,73,127
55454,note_off,212,0,0,,1,,,73,127
55455,note_on,1,0,0,,11,,,70,127
55667,note_off,212,0,0,,11,,,70,127
55667,note_off,0,0,0,,11,,,58,127
55667,note_off,0,0,0,,5,,,53,127
55667,note_off,0,0,0,,1,,,49,127
55668,note_on,1,0,0,,11,,,58,127
55668,note_on,0,0,0,,5,,,53,127
55668,note_on,0,0,0,,1,,,49,127
55668,note_on,0,0,0,,5,,,65,127
55880,note_off,212,0,0,,5,,,65,127
55880,note_off,0,0,0,,1,,,49,127
55880,note_off,0,0,0,,5,,,53,127
55880,note_off,0,0,0,,11,,,58,127
55881,note_on,1,0,0,,5,,,53,127
55881,note_on,0,0,0,,0,,,48,127
55881,note_on,0,0,0,,3,,,51,127
55881,note_on,0,0,0,,10,,,57,127
55881,note_on,0,0,0,,3,,,63,127
56093,note_off,212,0,0,,3,,,63,127
56094,note_on,1,0,0,,10,,,69,127
56306,note_off,212,0,0,,10,,,69,127
56306,note_off,0,0,0,,10,,,57,127
56306,note_off,0,0,0,,3,,,51,127
56306,note_off,0,0,0,,0,,,48,127
56306,note_off,0,0,0,,5,,,53,127
56307,note_on,1,0,0,,5,,,53,127
56307,note_on,0,0,0,,11,,,58,127
56307,note_on,0,0,0,,1,,,49,127
56307,note_on,0,0,0,,5,,,77,127
56519,note_off,212,0,0,,5,,,77,127
56520,note_on,1,0,0,,1,,,73,127
56732,note_off,212,0,0,,1,,,73,127
56733,note_on,1,0,0,,11,,,70,127
56945,note_off,212,0,0,,11,,,70,127
56945,note_off,0,0,0,,1,,,49,127
56945,note_off,0,0,0,,11,,,58,127
56945,note_off,0,0,0,,5,,,53,127
56946,note_on,1,0,0,,11,,,58,127
56946,note_on,0,0,0,,5,,,53,127
56946,note_on,0,0,0,,1,,,49,127
56946,note_on,0,0,0,,5,,,65,127
57158,note_off,212,0,0,,5,,,65,127
57158,note_off,0,0,0,,1,,,49,127
57158,note_off,0,0,0,,5,,,53,127
57158,note_off,0,0,0,,11,,,58,127
57159,note_on,1,0,0,,10,,,57,127
57159,note_on,0,0,0,,0,,,48,127
57159,note_on,0,0,0,,5,,,53,127
57159,note_on,0,0,0,,3,,,51,127
57159,note_on,0,0,0,,3,,,63,127
57371,note_off,212,0,0,,3,,,63,127
57372,note_on,1,0,0,,10,,,69,127
57584,note_off,212,0,0,,10,,,69,127
57584,note_off,0,0,0,,3,,,51,127
57584,note_off,0,0,0,,5,,,53,127
57584,note_off,0,0,0,,0,,,48,127
57584,note_off,0,0,0,,10,,,57,127
57585,note_on,1,0,0,,1,,,49,127
57585,note_on,0,0,0,,11,,,58,127
57585,note_on,0,0,0,,5,,,77,127
57798,note_on,213,0,0,,11,,,70,127
58010,note_off,212,0,0,,11,,,70,127
58010,note_off,0,0,0,,11,,,58,127
58010,note_off,0,0,0,,1,,,49,127
58011,note_on,1,0,0,,10,,,69,127
58011,note_on,0,0,0,,0,,,60,127
58011,note_on,0,0,0,,0,,,48,127
58223,note_off,212,0,0,,5,,,77,127
58224,note_on,1,0,0,,3,,,75,127
58433,note_off,209,0,0,,10,,,69,127
58436,note_off,3,0,0,,3,,,75,127
58436,note_off,0,0,0,,0,,,48,127
58436,note_off,0,0,0,,0,,,60,127
58437,note_on,1,0,0,,1,,,61,127
58437,note_on,0,0,0,,11,,,58,127
58437,note_on,0,0,0,,1,,,73,127
58650,note_on,213,0,0,,7,,,67,127
58862,note_off,212,0,0,,7,,,67,127
58862,note_off,0,0,0,,11,,,58,127
58862,note_off,0,0,0,,1,,,61,127
58863,note_on,1,0,0,,5,,,65,127
58863,note_on,0,0,0,,8,,,56,127
58863,note_on,0,0,0,,0,,,60,127
59075,note_off,212,0,0,,1,,,73,127
59076,note_on,1,0,0,,0,,,72,127
59288,note_off,212,0,0,,0,,,72,127
59288,note_off,0,0,0,,0,,,60,127
59288,note_off,0,0,0,,8,,,56,127
59289,note_on,1,0,0,,1,,,61,127
59289,note_on,0,0,0,,11,,,70,127
59501,note_off,212,0,0,,11,,,70,127
59502,note_on,1,0,0,,8,,,68,127
59714,note_off,212,0,0,,8,,,68,127
59714,note_off,0,0,0,,1,,,61,127
59714,note_off,0,0,0,,5,,,65,127
59715,note_on,1,0,0,,11,,,58,127
59715,note_on,0,0,0,,7,,,67,127
59927,note_off,212,0,0,,7,,,67,127
59928,note_on,1,0,0,,5,,,65,127
60130,note_off,202,0,0,,5,,,65,127
60140,note_off,10,0,0,,11,,,58,127
60141,note_on,1,0,0,,0,,,60,127
60141,note_on,0,0,0,,0,,,48,127
60141,note_on,0,0,0,,0,,,84,127
60353,note_off,212,0,0,,0,,,84,127
60354,note_on,1,0,0,,7,,,79,127
60566,note_off,212,0,0,,7,,,79,127
60567,note_on,1,0,0,,4,,,76,127
60779,note_off,212,0,0,,4,,,76,127
60779,note_off,0,0,0,,0,,,48,127
60779,note_off,0,0,0,,0,,,60,127
60780,note_on,1,0,0,,0,,,60,127
60780,note_on,0,0,0,,0,,,72,127
60992,note_off,212,0,0,,0,,,72,127
60992,note_off,0,0,0,,0,,,60,127
60993,note_on,1,0,0,,5,,,65,127
60993,note_on,0,0,0,,1,,,73,127
61205,note_off,212,0,0,,1,,,73,127
61206,note_on,1,0,0,,11,,,82,127
61418,note_off,212,0,0,,11,,,82,127
61418,note_off,0,0,0,,5,,,65,127
61419,note_on,1,0,0,,5,,,65,127
61419,note_on,0,0,0,,0,,,84,127
61477,note_on,58,0,0,,4,,,64,127
61489,note_off,12,0,0,,5,,,65,127
61535,note_on,46,0,0,,5,,,65,127
61547,note_off,12,0,0,,4,,,64,127
61593,note_on,46,0,0,,4,,,64,127
61605,note_off,12,0,0,,5,,,65,127
61632,note_off,27,0,0,,0,,,84,127
61633,note_on,1,0,0,,7,,,79,127
61845,note_off,212,0,0,,7,,,79,127
61846,note_on,1,0,0,,4,,,76,127
62046,note_off,200,0,0,,4,,,64,127
62058,note_off,12,0,0,,4,,,76,127
62059,note_on,1,0,0,,4,,,64,127
62059,note_on,0,0,0,,0,,,72,127
62271,note_off,212,0,0,,0,,,72,127
62271,note_off,0,0,0,,4,,,64,127
62272,note_on,1,0,0,,5,,,65,127
62272,note_on,0,0,0,,1,,,73,127
62484,note_off,212,0,0,,1,,,73,127
62485,note_on,1,0,0,,11,,,82,127
62697,note_off,212,0,0,,11,,,82,127
62697,note_off,0,0,0,,5,,,65,127
62698,note_on,1,0,0,,5,,,65,127
62698,note_on,0,0,0,,0,,,84,127
62765,note_on,67,0,0,,4,,,64,127
62768,note_off,3,0,0,,5,,,65,127
62831,note_on,63,0,0,,5,,,65,127
62834,note_off,3,0,0,,4,,,64,127
62897,note_on,63,0,0,,4,,,64,127
62900,note_off,3,0,0,,5,,,65,127
62909,note_off,9,0,0,,0,,,84,127
62910,note_on,1,0,0,,7,,,79,127
63122,note_off,212,0,0,,7,,,79,127
63123,note_on,1,0,0,,4,,,76,127
63333,note_off,210,0,0,,4,,,64,127
63335,note_off,2,0,0,,4,,,76,127
63336,note_on,1,0,0,,4,,,64,127
63336,note_on,0,0,0,,0,,,72,127
63548,note_off,212,0,0,,0,,,72,127
63548,note_off,0,0,0,,4,,,64,127
63549,note_on,1,0,0,,10,,,69,127
63549,note_on,0,0,0,,5,,,65,127
63549,note_on,0,0,0,,3,,,63,127
63549,note_on,0,0,0,,0,,,84,127
63761,note_off,212,0,0,,0,,,84,127
63762,note_on,1,0,0,,10,,,81,127
63974,note_off,212,0,0,,10,,,81,127
63974,note_off,0,0,0,,3,,,63,127
63974,note_off,0,0,0,,5,,,65,127
63974,note_off,0,0,0,,10,,,69,127
63975,note_on,1,0,0,,5,,,65,127
63975,note_on,0,0,0,,1,,,61,127
63975,note_on,0,0,0,,11,,,70,127
63975,note_on,0,0,0,,11,,,82,127
64187,note_off,212,0,0,,11,,,82,127
64188,note_on,1,0,0,,5,,,77,127
64400,note_off,212,0,0,,5,,,77,127
64401,note_on,1,0,0,,1,,,73,127
64613,note_off,212,0,0,,1,,,73,127
64613,note_off,0,0,0,,11,,,70,127
64614,note_on,1,0,0,,11,,,70,127
64826,note_off,212,0,0,,11,,,70,127
64826,note_off,0,0,0,,1,,,61,127
64826,note_off,0,0,0,,5,,,65,127
64827,note_on,1,0,0,,3,,,63,127
64827,note_on,0,0,0,,5,,,65,127
64827,note_on,0,0,0,,10,,,69,127
64827,note_on,0,0,0,,0,,,60,127
64827,note_on,0,0,0,,0,,,84,127
65039,note_off,212,0,0,,0,,,84,127
65040,note_on,1,0,0,,11,,,82,127
65146,note_off,106,0,0,,11,,,82,127
65147,note_on,1,0,0,,10,,,81,127
65253,note_off,106,0,0,,10,,,81,127
65253,note_off,0,0,0,,0,,,60,127
65253,note_off,0,0,0,,10,,,69,127
65253,note_off,0,0,0,,5,,,65,127
65253,note_off,0,0,0,,3,,,63,127
65254,note_on,1,0,0,,5,,,65,127
65254,note_on,0,0,0,,1,,,61,127
65254,note_on,0,0,0,,11,,,70,127
65254,note_on,0,0,0,,11,,,82,127
65466,note_off,212,0,0,,11,,,82,127
65467,note_on,1,0,0,,5,,,77,127
65679,note_off,212,0,0,,5,,,77,127
65680,note_on,1,0,0,,1,,,73,127
65892,note_off,212,0,0,,1,,,73,127
65892,note_off,0,0,0,,11,,,70,127
65893,note_on,1,0,0,,11,,,70,127
66105,note_off,212,0,0,,11,,,70,127
66105,note_off,0,0,0,,1,,,61,127
66105,note_off,0,0,0,,5,,,65,127
66106,note_on,1,0,0,,5,,,65,127
66106,note_on,0,0,0,,10,,,69,127
66106,note_on,0,0,0,,3,,,63,127
66106,note_on,0,0,0,,0,,,60,127
66106,note_on,0,0,0,,0,,,84,127
66318,note_off,212,0,0,,0,,,84,127
66319,note_on,1,0,0,,11,,,82,127
66425,note_off,106,0,0,,11,,,82,127
66426,note_on,1,0,0,,10,,,81,127
66532,note_off,106,0,0,,10,,,81,127
66532,note_off,0,0,0,,0,,,60,127
66532,note_off,0,0,0,,3,,,63,127
66532,note_off,0,0,0,,10,,,69,127
66532,note_off,0,0,0,,5,,,65,127
66533,note_on,1,0,0,,11,,,70,127
66533,note_on,0,0,0,,1,,,61,127
66533,note_on,0,0,0,,5,,,65,127
66533,note_on,0,0,0,,11,,,82,127
66746,note_on,213,0,0,,5,,,77,127
66958,note_off,212,0,0,,5,,,77,127
66958,note_off,0,0,0,,5,,,65,127
66958,note_off,0,0,0,,1,,,61,127
66958,note_off,0,0,0,,11,,,70,127
66959,note_on,1,0,0,,3,,,75,127
66959,note_on,0,0,0,,3,,,63,127
66959,note_on,0,0,0,,0,,,60,127
67171,note_off,212,0,0,,11,,,82,127
67172,note_on,1,0,0,,8,,,80,127
67384,note_off,212,0,0,,8,,,80,127
67384,note_off,0,0,0,,0,,,60,127
67384,note_off,0,0,0,,3,,,63,127
67385,note_on,1,0,0,,11,,,58,127
67385,note_on,0,0,0,,1,,,61,127
67385,note_on,0,0,0,,7,,,79,127
67597,note_off,212,0,0,,3,,,75,127
67598,note_on,1,0,0,,1,,,73,127
67810,note_off,212,0,0,,1,,,73,127
67810,note_off,0,0,0,,1,,,61,127
67810,note_off,0,0,0,,11,,,58,127
67811,note_on,1,0,0,,0,,,72,127
67811,note_on,0,0,0,,0,,,60,127
67811,note_on,0,0,0,,5,,,65,127
67811,note_on,0,0,0,,8,,,56,127
68023,note_off,212,0,0,,7,,,79,127
68024,note_on,1,0,0,,5,,,77,127
68236,note_off,212,0,0,,8,,,56,127
68236,note_off,0,0,0,,5,,,65,127
68236,note_off,0,0,0,,0,,,60,127
68236,note_off,0,0,0,,0,,,72,127
68237,note_on,1,0,0,,11,,,70,127
68237,note_on,0,0,0,,0,,,60,127
68237,note_on,0,0,0,,4,,,64,127
68237,note_on,0,0,0,,7,,,55,127
68237,note_on,0,0,0,,11,,,58,127
68449,note_off,212,0,0,,5,,,77,127
68450,note_on,1,0,0,,4,,,76,127
68662,note_off,212,0,0,,4,,,76,127
68662,note_off,0,0,0,,11,,,58,127
68662,note_off,0,0,0,,7,,,55,127
68662,note_off,0,0,0,,4,,,64,127
68662,note_off,0,0,0,,0,,,60,127
68663,note_on,1,0,0,,5,,,65,127
68663,note_on,0,0,0,,1,,,61,127
68663,note_on,0,0,0,,5,,,53,127
68663,note_on,0,0,0,,5,,,77,127
68875,note_off,212,0,0,,11,,,70,127
68876,note_on,1,0,0,,1,,,73,127
69087,note_off,211,0,0,,1,,,73,127
69088,note_off,1,0,0,,5,,,53,127
69088,note_off,0,0,0,,1,,,61,127
69088,note_off,0,0,0,,5,,,65,127
69089,note_on,1,0,0,,11,,,58,127
69089,note_on,0,0,0,,0,,,60,127
69089,note_on,0,0,0,,4,,,52,127
69302,note_on,213,0,0,,1,,,73,127
69514,note_off,212,0,0,,1,,,73,127
69514,note_off,0,0,0,,0,,,60,127
69514,note_off,0,0,0,,11,,,58,127
69514,note_off,0,0,0,,5,,,77,127
69515,note_on,1,0,0,,0,,,72,127
69515,note_on,0,0,0,,4,,,76,127
69515,note_on,0,0,0,,0,,,60,127
69727,note_off,212,0,0,,0,,,72,127
69727,note_off,0,0,0,,4,,,52,127
69728,note_on,1,0,0,,11,,,70,127
69728,note_on,0,0,0,,0,,,48,127
69940,note_off,212,0,0,,0,,,48,127
69940,note_off,0,0,0,,11,,,70,127
69940,note_off,0,0,0,,0,,,60,127
69940,note_off,0,0,0,,4,,,76,127
69941,note_on,1,0,0,,8,,,68,127
69941,note_on,0,0,0,,0,,,60,127
69941,note_on,0,0,0,,8,,,56,127
69941,note_on,0,0,0,,5,,,53,127
69941,note_on,0,0,0,,5,,,77,127
70153,note_off,212,0,0,,8,,,68,127
70154,note_on,1,0,0,,7,,,67,127
70366,note_off,212,0,0,,7,,,67,127
70366,note_off,0,0,0,,5,,,53,127
70366,note_off,0,0,0,,8,,,56,127
70366,note_off,0,0,0,,0,,,60,127
70367,note_on,1,0,0,,5,,,65,127
70367,note_on,0,0,0,,11,,,58,127
70367,note_on,0,0,0,,5,,,53,127
70367,note_on,0,0,0,,11,,,46,127
70579,note_off,212,0,0,,5,,,77,127
70580,note_on,1,0,0,,1,,,73,127
70792,note_off,212,0,0,,1,,,73,127
70792,note_off,0,0,0,,11,,,46,127
70793,note_on,1,0,0,,0,,,48,127
70793,note_on,0,0,0,,0,,,72,127
71005,note_off,212,0,0,,5,,,65,127
71006,note_on,1,0,0,,7,,,67,127
71218,note_off,212,0,0,,7,,,67,127
71218,note_off,0,0,0,,5,,,53,127
71218,note_off,0,0,0,,11,,,58,127
71219,note_on,1,0,0,,8,,,68,127
71219,note_on,0,0,0,,0,,,60,127
71431,note_off,212,0,0,,8,,,68,127
71432,note_on,1,0,0,,4,,,64,127
71644,note_off,212,0,0,,4,,,64,127
71644,note_off,0,0,0,,0,,,60,127
71644,note_off,0,0,0,,0,,,72,127
71644,note_off,0,0,0,,0,,,48,127
71645,note_on,1,0,0,,5,,,65,127
71645,note_on,0,0,0,,1,,,49,127
71858,note_on,213,0,0,,7,,,67,127
72070,note_off,212,0,0,,7,,,67,127
72071,note_on,1,0,0,,8,,,68,127
72283,note_off,212,0,0,,8,,,68,127
72283,note_off,0,0,0,,1,,,49,127
72284,note_on,1,0,0,,11,,,58,127
72284,note_on,0,0,0,,1,,,61,127
72284,note_on,0,0,0,,11,,,70,127
72496,note_off,212,0,0,,11,,,70,127
72496,note_off,0,0,0,,1,,,61,127
72496,note_off,0,0,0,,11,,,58,127
72497,note_on,1,0,0,,0,,,60,127
72497,note_on,0,0,0,,8,,,56,127
72497,note_on,0,0,0,,0,,,72,127
72709,note_off,212,0,0,,0,,,72,127
72710,note_on,1,0,0,,5,,,77,127
72922,note_off,212,0,0,,5,,,77,127
72922,note_off,0,0,0,,8,,,56,127
72922,note_off,0,0,0,,0,,,60,127
72922,note_off,0,0,0,,5,,,65,127
72923,note_on,1,0,0,,11,,,58,127
72923,note_on,0,0,0,,1,,,61,127
72923,note_on,0,0,0,,1,,,73,127
73135,note_off,212,0,0,,1,,,73,127
73136,note_on,1,0,0,,11,,,70,127
73348,note_off,212,0,0,,11,,,70,127
73348,note_off,0,0,0,,1,,,61,127
73348,note_off,0,0,0,,11,,,58,127
73349,note_on,1,0,0,,0,,,60,127
73349,note_on,0,0,0,,8,,,68,127
73561,note_off,212,0,0,,8,,,68,127
73562,note_on,1,0,0,,7,,,79,127
73774,note_off,212,0,0,,7,,,79,127
73774,note_off,0,0,0,,0,,,60,127
73775,note_on,1,0,0,,0,,,48,127
73775,note_on,0,0,0,,7,,,67,127
73987,note_off,212,0,0,,7,,,67,127
73988,note_on,1,0,0,,4,,,76,127
74200,note_off,212,0,0,,4,,,76,127
74200,note_off,0,0,0,,0,,,48,127
74201,note_on,1,0,0,,5,,,53,127
74201,note_on,0,0,0,,5,,,41,127
74201,note_on,0,0,0,,5,,,77,127
74414,note_off,213,0,0,,5,,,77,127
74418,note_on,4,0,0,,1,,,73,127
74631,note_off,213,0,0,,1,,,73,127
74635,note_on,4,0,0,,11,,,70,127
74848,note_off,213,0,0,,11,,,70,127
74852,note_on,4,0,0,,7,,,67,127
75065,note_off,213,0,0,,7,,,67,127
75068,note_on,3,0,0,,4,,,64,127
75281,note_off,213,0,0,,4,,,64,127
75285,note_on,4,0,0,,11,,,70,127
75488,note_off,203,0,0,,5,,,41,127
75488,note_off,0,0,0,,5,,,53,127
75498,note_off,10,0,0,,11,,,70,127
75502,note_on,4,0,0,,0,,,48,127
75502,note_on,0,0,0,,5,,,53,127
75502,note_on,0,0,0,,5,,,41,127
75502,note_on,0,0,0,,0,,,72,127
75715,note_off,213,0,0,,0,,,72,127
75719,note_on,4,0,0,,8,,,68,127
75932,note_off,213,0,0,,8,,,68,127
75936,note_on,4,0,0,,5,,,65,127
76149,note_off,213,0,0,,5,,,65,127
76152,note_on,3,0,0,,1,,,61,127
76365,note_off,213,0,0,,1,,,61,127
76369,note_on,4,0,0,,11,,,58,127
76582,note_off,213,0,0,,11,,,58,127
76586,note_on,4,0,0,,4,,,64,127
76789,note_off,203,0,0,,5,,,41,127
76789,note_off,0,0,0,,5,,,53,127
76789,note_off,0,0,0,,0,,,48,127
76799,note_off,10,0,0,,4,,,64,127
76805,note_on,6,0,0,,5,,,65,127
76805,note_on,0,0,0,,5,,,41,127
76805,note_on,0,0,0,,5,,,53,127
76805,note_on,0,0,0,,0,,,48,127
77029,note_on,224,0,0,,0,,,60,127
77248,note_off,219,0,0,,0,,,60,127
77252,note_on,4,0,0,,8,,,56,127
77468,note_off,216,0,0,,5,,,53,127
77471,note_off,3,0,0,,8,,,56,127
77477,note_on,6,0,0,,5,,,53,127
77696,note_off,219,0,0,,5,,,53,127
77700,note_on,4,0,0,,7,,,55,127
77911,note_off,211,0,0,,5,,,65,127
77924,note_on,13,0,0,,11,,,58,127
77924,note_on,0,0,0,,0,,,60,127
77924,note_on,0,0,0,,4,,,64,127
78133,note_off,209,0,0,,0,,,48,127
78133,note_off,0,0,0,,5,,,41,127
78137,note_off,4,0,0,,7,,,55,127
78143,note_off,6,0,0,,4,,,64,127
78143,note_off,0,0,0,,0,,,60,127
78143,note_off,0,0,0,,11,,,58,127
78149,note_on,6,0,0,,5,,,65,127
78149,note_on,0,0,0,,5,,,41,127
78149,note_on,0,0,0,,0,,,48,127
78149,note_on,0,0,0,,5,,,53,127
78373,note_on,224,0,0,,0,,,60,127
78592,note_off,219,0,0,,0,,,60,127
78598,note_on,6,0,0,,8,,,56,127
78812,note_off,214,0,0,,5,,,53,127
78816,note_off,4,0,0,,8,,,56,127
78820,note_on,4,0,0,,5,,,53,127
79039,note_off,219,0,0,,5,,,53,127
79045,note_on,6,0,0,,7,,,55,127
79255,note_off,210,0,0,,5,,,65,127
79269,note_on,14,0,0,,4,,,64,127
79269,note_on,0,0,0,,11,,,58,127
79269,note_on,0,0,0,,0,,,60,127
79477,note_off,208,0,0,,0,,,48,127
79477,note_off,0,0,0,,5,,,41,127
79485,note_off,8,0,0,,7,,,55,127
79489,note_off,4,0,0,,0,,,60,127
79489,note_off,0,0,0,,11,,,58,127
79489,note_off,0,0,0,,4,,,64,127
79498,note_on,9,0,0,,5,,,53,127
79498,note_on,0,0,0,,0,,,48,127
79498,note_on,0,0,0,,5,,,41,127
79498,note_on,0,0,0,,5,,,65,127
79718,note_off,220,0,0,,5,,,65,127
79726,note_on,8,0,0,,0,,,60,127
79946,note_off,220,0,0,,0,,,60,127
79955,note_on,9,0,0,,8,,,56,127
80167,note_off,212,0,0,,5,,,53,127
80175,note_off,8,0,0,,8,,,56,127
80184,note_on,9,0,0,,5,,,53,127
80392,note_off,208,0,0,,5,,,41,127
80392,note_off,0,0,0,,0,,,48,127
80404,note_off,12,0,0,,5,,,53,127
80452,note_on,48,0,0,,5,,,41,127
82552,note_off,2100,0,0,,5,,,41,127
86016,end_of_track,3464,1,0,,,,,,
