tick,type,time,meta,track,program,channel,pitch,tempo,note,velocity
0,copyright,0,1,0,,,,,,
0,program_change,0,0,0,6,0,,,,
0,pitchwheel,0,0,0,,0,0,,,
0,program_change,0,0,0,6,1,,,,
0,pitchwheel,0,0,0,,1,-590,,,
0,program_change,0,0,0,6,2,,,,
0,pitchwheel,0,0,0,,2,-272,,,
0,program_change,0,0,0,6,3,,,,
0,pitchwheel,0,0,0,,3,-353,,,
0,program_change,0,0,0,6,4,,,,
0,pitchwheel,0,0,0,,4,-560,,,
0,program_change,0,0,0,6,5,,,,
0,pitchwheel,0,0,0,,5,-80,,,
0,program_change,0,0,0,6,6,,,,
0,pitchwheel,0,0,0,,6,-625,,,
0,program_change,0,0,0,6,7,,,,
0,pitchwheel,0,0,0,,7,-130,,,
0,program_change,0,0,0,6,8,,,,
0,pitchwheel,0,0,0,,8,-512,,,
0,program_change,0,0,0,6,10,,,,
0,pitchwheel,0,0,0,,10,-464,,,
0,program_change,0,0,0,6,11,,,,
0,pitchwheel,0,0,0,,11,-208,,,
0,program_change,0,0,0,6,12,,,,
0,pitchwheel,0,0,0,,12,-553,,,
0,set_tempo,0,1,0,,,,500000,,
105,note_on,105,0,0,,11,,,46,127
105,note_on,0,0,0,,11,,,70,127
209,note_off,104,0,0,,11,,,70,127
210,note_on,1,0,0,,5,,,65,127
314,note_off,104,0,0,,5,,,65,127
315,note_on,1,0,0,,11,,,70,127
419,note_off,104,0,0,,11,,,70,127
420,note_on,1,0,0,,0,,,72,127
524,note_off,104,0,0,,0,,,72,127
525,note_on,1,0,0,,2,,,74,127
629,note_off,104,0,0,,2,,,74,127
630,note_on,1,0,0,,11,,,70,127
734,note_off,104,0,0,,11,,,70,127
735,note_on,1,0,0,,2,,,74,127
839,note_off,104,0,0,,2,,,74,127
840,note_on,1,0,0,,3,,,75,127
913,note_off,73,0,0,,11,,,46,127
944,note_off,31,0,0,,3,,,75,127
945,note_on,1,0,0,,11,,,46,127
945,note_on,0,0,0,,5,,,77,127
1049,note_off,104,0,0,,11,,,46,127
1050,note_on,1,0,0,,5,,,41,127
1154,note_off,104,0,0,,5,,,41,127
1155,note_on,1,0,0,,11,,,46,127
1259,note_off,104,0,0,,11,,,46,127
1260,note_on,1,0,0,,0,,,48,127
1364,note_off,104,0,0,,0,,,48,127
1365,note_on,1,0,0,,2,,,50,127
1469,note_off,104,0,0,,2,,,50,127
1470,note_on,1,0,0,,11,,,46,127
1525,note_off,55,0,0,,5,,,77,127
1574,note_off,49,0,0,,11,,,46,127
1575,note_on,1,0,0,,2,,,50,127
1575,note_on,0,0,0,,11,,,70,127
1679,note_off,104,0,0,,2,,,50,127
1680,note_on,1,0,0,,3,,,51,127
1784,note_off,104,0,0,,3,,,51,127
1784,note_off,0,0,0,,11,,,70,127
1785,note_on,1,0,0,,5,,,53,127
1785,note_on,0,0,0,,10,,,69,127
1889,note_off,104,0,0,,10,,,69,127
1890,note_on,1,0,0,,0,,,72,127
1994,note_off,104,0,0,,0,,,72,127
1994,note_off,0,0,0,,5,,,53,127
1995,note_on,1,0,0,,7,,,55,127
1995,note_on,0,0,0,,11,,,70,127
2099,note_off,104,0,0,,11,,,70,127
2100,note_on,1,0,0,,2,,,74,127
2204,note_off,104,0,0,,2,,,74,127
2204,note_off,0,0,0,,7,,,55,127
2205,note_on,1,0,0,,10,,,57,127
2205,note_on,0,0,0,,0,,,72,127
2309,note_off,104,0,0,,0,,,72,127
2310,note_on,1,0,0,,3,,,75,127
2414,note_off,104,0,0,,3,,,75,127
2414,note_off,0,0,0,,10,,,57,127
2415,note_on,1,0,0,,5,,,53,127
2415,note_on,0,0,0,,2,,,74,127
2519,note_off,104,0,0,,2,,,74,127
2520,note_on,1,0,0,,5,,,77,127
2624,note_off,104,0,0,,5,,,77,127
2624,note_off,0,0,0,,5,,,53,127
2625,note_on,1,0,0,,7,,,55,127
2625,note_on,0,0,0,,3,,,75,127
2729,note_off,104,0,0,,3,,,75,127
2730,note_on,1,0,0,,5,,,77,127
2834,note_off,104,0,0,,5,,,77,127
2834,note_off,0,0,0,,7,,,55,127
2835,note_on,1,0,0,,10,,,57,127
2835,note_on,0,0,0,,0,,,72,127
2939,note_off,104,0,0,,0,,,72,127
2940,note_on,1,0,0,,3,,,75,127
3044,note_off,104,0,0,,3,,,75,127
3044,note_off,0,0,0,,10,,,57,127
3045,note_on,1,0,0,,11,,,58,127
3045,note_on,0,0,0,,2,,,74,127
3149,note_off,104,0,0,,2,,,74,127
3150,note_on,1,0,0,,5,,,77,127
3254,note_off,104,0,0,,5,,,77,127
3254,note_off,0,0,0,,11,,,58,127
3255,note_on,1,0,0,,5,,,53,127
3255,note_on,0,0,0,,10,,,69,127
3359,note_off,104,0,0,,10,,,69,127
3360,note_on,1,0,0,,0,,,72,127
3464,note_off,104,0,0,,0,,,72,127
3464,note_off,0,0,0,,5,,,53,127
3465,note_on,1,0,0,,7,,,55,127
3465,note_on,0,0,0,,11,,,70,127
3569,note_off,104,0,0,,11,,,70,127
3570,note_on,1,0,0,,2,,,74,127
3674,note_off,104,0,0,,2,,,74,127
3674,note_off,0,0,0,,7,,,55,127
3675,note_on,1,0,0,,2,,,50,127
3675,note_on,0,0,0,,5,,,65,127
3779,note_off,104,0,0,,5,,,65,127
3780,note_on,1,0,0,,10,,,69,127
3884,note_off,104,0,0,,10,,,69,127
3884,note_off,0,0,0,,2,,,50,127
3885,note_on,1,0,0,,3,,,51,127
3885,note_on,0,0,0,,7,,,67,127
3989,note_off,104,0,0,,7,,,67,127
3990,note_on,1,0,0,,11,,,70,127
4094,note_off,104,0,0,,11,,,70,127
4094,note_off,0,0,0,,3,,,51,127
4095,note_on,1,0,0,,11,,,46,127
4095,note_on,0,0,0,,2,,,62,127
4200,note_on,105,0,0,,5,,,65,127
4221,note_off,21,0,0,,2,,,62,127
4288,note_off,67,0,0,,5,,,65,127
4304,note_off,16,0,0,,11,,,46,127
4305,note_on,1,0,0,,0,,,60,127
4305,note_on,0,0,0,,3,,,75,127
4409,note_off,104,0,0,,3,,,75,127
4410,note_on,1,0,0,,7,,,79,127
4514,note_off,104,0,0,,7,,,79,127
4514,note_off,0,0,0,,0,,,60,127
4515,note_on,1,0,0,,7,,,55,127
4515,note_on,0,0,0,,11,,,70,127
4619,note_off,104,0,0,,11,,,70,127
4620,note_on,1,0,0,,2,,,74,127
4724,note_off,104,0,0,,2,,,74,127
4724,note_off,0,0,0,,7,,,55,127
4725,note_on,1,0,0,,10,,,57,127
4725,note_on,0,0,0,,0,,,72,127
4829,note_off,104,0,0,,0,,,72,127
4830,note_on,1,0,0,,5,,,77,127
4934,note_off,104,0,0,,5,,,77,127
4934,note_off,0,0,0,,10,,,57,127
4935,note_on,1,0,0,,5,,,53,127
4935,note_on,0,0,0,,10,,,69,127
5039,note_off,104,0,0,,10,,,69,127
5040,note_on,1,0,0,,0,,,72,127
5144,note_off,104,0,0,,0,,,72,127
5144,note_off,0,0,0,,5,,,53,127
5145,note_on,1,0,0,,7,,,55,127
5145,note_on,0,0,0,,11,,,70,127
5249,note_off,104,0,0,,11,,,70,127
5250,note_on,1,0,0,,2,,,74,127
5354,note_off,104,0,0,,2,,,74,127
5354,note_off,0,0,0,,7,,,55,127
5355,note_on,1,0,0,,2,,,50,127
5355,note_on,0,0,0,,5,,,65,127
5459,note_off,104,0,0,,5,,,65,127
5460,note_on,1,0,0,,10,,,69,127
5564,note_off,104,0,0,,10,,,69,127
5564,note_off,0,0,0,,2,,,50,127
5565,note_on,1,0,0,,3,,,51,127
5565,note_on,0,0,0,,7,,,67,127
5669,note_off,104,0,0,,7,,,67,127
5670,note_on,1,0,0,,11,,,70,127
5774,note_off,104,0,0,,11,,,70,127
5774,note_off,0,0,0,,3,,,51,127
5775,note_on,1,0,0,,5,,,53,127
5775,note_on,0,0,0,,10,,,69,127
5880,note_on,105,0,0,,0,,,72,127
5891,note_off,11,0,0,,10,,,69,127
5974,note_off,83,0,0,,0,,,72,127
5984,note_off,10,0,0,,5,,,53,127
5985,note_on,1,0,0,,11,,,46,127
5985,note_on,0,0,0,,11,,,70,127
6089,note_off,104,0,0,,11,,,70,127
6090,note_on,1,0,0,,5,,,65,127
6194,note_off,104,0,0,,5,,,65,127
6195,note_on,1,0,0,,11,,,70,127
6299,note_off,104,0,0,,11,,,70,127
6300,note_on,1,0,0,,0,,,72,127
6404,note_off,104,0,0,,0,,,72,127
6405,note_on,1,0,0,,2,,,74,127
6509,note_off,104,0,0,,2,,,74,127
6510,note_on,1,0,0,,11,,,70,127
6614,note_off,104,0,0,,11,,,70,127
6615,note_on,1,0,0,,2,,,74,127
6719,note_off,104,0,0,,2,,,74,127
6720,note_on,1,0,0,,3,,,75,127
6824,note_off,104,0,0,,3,,,75,127
6824,note_off,0,0,0,,11,,,46,127
6825,note_on,1,0,0,,11,,,46,127
6825,note_on,0,0,0,,5,,,77,127
6929,note_off,104,0,0,,11,,,46,127
6930,note_on,1,0,0,,5,,,41,127
7034,note_off,104,0,0,,5,,,41,127
7035,note_on,1,0,0,,11,,,46,127
7139,note_off,104,0,0,,11,,,46,127
7140,note_on,1,0,0,,0,,,48,127
7244,note_off,104,0,0,,0,,,48,127
7245,note_on,1,0,0,,2,,,50,127
7349,note_off,104,0,0,,2,,,50,127
7350,note_on,1,0,0,,11,,,46,127
7405,note_off,55,0,0,,5,,,77,127
7454,note_off,49,0,0,,11,,,46,127
7455,note_on,1,0,0,,2,,,50,127
7455,note_on,0,0,0,,11,,,70,127
7559,note_off,104,0,0,,2,,,50,127
7560,note_on,1,0,0,,3,,,51,127
7664,note_off,104,0,0,,3,,,51,127
7664,note_off,0,0,0,,11,,,70,127
7665,note_on,1,0,0,,5,,,53,127
7665,note_on,0,0,0,,10,,,69,127
7769,note_off,104,0,0,,10,,,69,127
7770,note_on,1,0,0,,0,,,72,127
7874,note_off,104,0,0,,0,,,72,127
7874,note_off,0,0,0,,5,,,53,127
7875,note_on,1,0,0,,7,,,55,127
7875,note_on,0,0,0,,11,,,70,127
7979,note_off,104,0,0,,11,,,70,127
7980,note_on,1,0,0,,2,,,74,127
8084,note_off,104,0,0,,2,,,74,127
8084,note_off,0,0,0,,7,,,55,127
8085,note_on,1,0,0,,10,,,57,127
8085,note_on,0,0,0,,0,,,72,127
8189,note_off,104,0,0,,0,,,72,127
8190,note_on,1,0,0,,3,,,75,127
8294,note_off,104,0,0,,3,,,75,127
8294,note_off,0,0,0,,10,,,57,127
8295,note_on,1,0,0,,5,,,53,127
8295,note_on,0,0,0,,2,,,74,127
8399,note_off,104,0,0,,2,,,74,127
8400,note_on,1,0,0,,5,,,77,127
8504,note_off,104,0,0,,5,,,77,127
8504,note_off,0,0,0,,5,,,53,127
8505,note_on,1,0,0,,7,,,55,127
8505,note_on,0,0,0,,3,,,75,127
8609,note_off,104,0,0,,3,,,75,127
8610,note_on,1,0,0,,5,,,77,127
8714,note_off,104,0,0,,5,,,77,127
8714,note_off,0,0,0,,7,,,55,127
8715,note_on,1,0,0,,10,,,57,127
8715,note_on,0,0,0,,0,,,72,127
8819,note_off,104,0,0,,0,,,72,127
8820,note_on,1,0,0,,3,,,75,127
8924,note_off,104,0,0,,3,,,75,127
8924,note_off,0,0,0,,10,,,57,127
8925,note_on,1,0,0,,11,,,46,127
8925,note_on,0,0,0,,2,,,74,127
9029,note_off,104,0,0,,2,,,74,127
9030,note_on,1,0,0,,5,,,77,127
9134,note_off,104,0,0,,5,,,77,127
9134,note_off,0,0,0,,11,,,46,127
9135,note_on,1,0,0,,0,,,48,127
9135,note_on,0,0,0,,4,,,76,127
9239,note_off,104,0,0,,4,,,76,127
9240,note_on,1,0,0,,7,,,79,127
9344,note_off,104,0,0,,7,,,79,127
9344,note_off,0,0,0,,0,,,48,127
9345,note_on,1,0,0,,2,,,50,127
9345,note_on,0,0,0,,5,,,77,127
9449,note_off,104,0,0,,5,,,77,127
9450,note_on,1,0,0,,10,,,81,127
9554,note_off,104,0,0,,10,,,81,127
9554,note_off,0,0,0,,2,,,50,127
9555,note_on,1,0,0,,4,,,52,127
9555,note_on,0,0,0,,7,,,79,127
9659,note_off,104,0,0,,7,,,79,127
9660,note_on,1,0,0,,11,,,82,127
9764,note_off,104,0,0,,11,,,82,127
9764,note_off,0,0,0,,4,,,52,127
9765,note_on,1,0,0,,5,,,53,127
9765,note_on,0,0,0,,10,,,69,127
9869,note_off,104,0,0,,10,,,69,127
9870,note_on,1,0,0,,0,,,72,127
9974,note_off,104,0,0,,0,,,72,127
9974,note_off,0,0,0,,5,,,53,127
9975,note_on,1,0,0,,7,,,55,127
9975,note_on,0,0,0,,11,,,70,127
10079,note_off,104,0,0,,11,,,70,127
10080,note_on,1,0,0,,2,,,74,127
10184,note_off,104,0,0,,2,,,74,127
10184,note_off,0,0,0,,7,,,55,127
10185,note_on,1,0,0,,10,,,57,127
10185,note_on,0,0,0,,0,,,72,127
10289,note_off,104,0,0,,10,,,57,127
10290,note_on,1,0,0,,0,,,60,127
10394,note_off,104,0,0,,0,,,60,127
10394,note_off,0,0,0,,0,,,72,127
10395,note_on,1,0,0,,5,,,53,127
10395,note_on,0,0,0,,0,,,84,127
10499,note_off,104,0,0,,5,,,53,127
10500,note_on,1,0,0,,10,,,57,127
10604,note_off,104,0,0,,10,,,57,127
10604,note_off,0,0,0,,0,,,84,127
10605,note_on,1,0,0,,7,,,55,127
10605,note_on,0,0,0,,0,,,72,127
10709,note_off,104,0,0,,7,,,55,127
10710,note_on,1,0,0,,11,,,58,127
10814,note_off,104,0,0,,11,,,58,127
10814,note_off,0,0,0,,0,,,72,127
10815,note_on,1,0,0,,4,,,52,127
10815,note_on,0,0,0,,11,,,82,127
10919,note_off,104,0,0,,4,,,52,127
10920,note_on,1,0,0,,7,,,55,127
11024,note_off,104,0,0,,7,,,55,127
11024,note_off,0,0,0,,11,,,82,127
11025,note_on,1,0,0,,5,,,53,127
11025,note_on,0,0,0,,0,,,72,127
11129,note_off,104,0,0,,5,,,53,127
11130,note_on,1,0,0,,10,,,57,127
11234,note_off,104,0,0,,10,,,57,127
11234,note_off,0,0,0,,0,,,72,127
11235,note_on,1,0,0,,2,,,50,127
11235,note_on,0,0,0,,10,,,81,127
11339,note_off,104,0,0,,2,,,50,127
11340,note_on,1,0,0,,5,,,53,127
11444,note_off,104,0,0,,5,,,53,127
11444,note_off,0,0,0,,10,,,81,127
11445,note_on,1,0,0,,4,,,52,127
11445,note_on,0,0,0,,0,,,72,127
11549,note_off,104,0,0,,4,,,52,127
11550,note_on,1,0,0,,7,,,55,127
11654,note_off,104,0,0,,7,,,55,127
11654,note_off,0,0,0,,0,,,72,127
11655,note_on,1,0,0,,0,,,48,127
11655,note_on,0,0,0,,7,,,79,127
11759,note_off,104,0,0,,0,,,48,127
11760,note_on,1,0,0,,4,,,52,127
11864,note_off,104,0,0,,4,,,52,127
11864,note_off,0,0,0,,7,,,79,127
11865,note_on,1,0,0,,10,,,57,127
11865,note_on,0,0,0,,5,,,77,127
11969,note_off,104,0,0,,10,,,57,127
11970,note_on,1,0,0,,0,,,60,127
12074,note_off,104,0,0,,0,,,60,127
12074,note_off,0,0,0,,5,,,77,127
12075,note_on,1,0,0,,7,,,55,127
12075,note_on,0,0,0,,4,,,76,127
12179,note_off,104,0,0,,7,,,55,127
12180,note_on,1,0,0,,11,,,58,127
12284,note_off,104,0,0,,11,,,58,127
12284,note_off,0,0,0,,4,,,76,127
12285,note_on,1,0,0,,5,,,53,127
12285,note_on,0,0,0,,2,,,74,127
12389,note_off,104,0,0,,5,,,53,127
12390,note_on,1,0,0,,10,,,57,127
12494,note_off,104,0,0,,10,,,57,127
12494,note_off,0,0,0,,2,,,74,127
12495,note_on,1,0,0,,4,,,52,127
12495,note_on,0,0,0,,0,,,72,127
12599,note_off,104,0,0,,4,,,52,127
12600,note_on,1,0,0,,7,,,55,127
12704,note_off,104,0,0,,7,,,55,127
12704,note_off,0,0,0,,0,,,72,127
12705,note_on,1,0,0,,2,,,50,127
12705,note_on,0,0,0,,11,,,82,127
12809,note_off,104,0,0,,2,,,50,127
12810,note_on,1,0,0,,5,,,53,127
12914,note_off,104,0,0,,5,,,53,127
12914,note_off,0,0,0,,11,,,82,127
12915,note_on,1,0,0,,0,,,48,127
12915,note_on,0,0,0,,10,,,81,127
13019,note_off,104,0,0,,0,,,48,127
13020,note_on,1,0,0,,4,,,52,127
13124,note_off,104,0,0,,4,,,52,127
13124,note_off,0,0,0,,10,,,81,127
13125,note_on,1,0,0,,11,,,46,127
13125,note_on,0,0,0,,7,,,79,127
13229,note_off,104,0,0,,11,,,46,127
13230,note_on,1,0,0,,2,,,50,127
13334,note_off,104,0,0,,2,,,50,127
13334,note_off,0,0,0,,7,,,79,127
13335,note_on,1,0,0,,0,,,48,127
13335,note_on,0,0,0,,5,,,77,127
13439,note_off,104,0,0,,0,,,48,127
13440,note_on,1,0,0,,11,,,46,127
13544,note_off,104,0,0,,11,,,46,127
13544,note_off,0,0,0,,5,,,77,127
13545,note_on,1,0,0,,0,,,48,127
13545,note_on,0,0,0,,4,,,76,127
13649,note_off,104,0,0,,4,,,76,127
13650,note_on,1,0,0,,7,,,79,127
13754,note_off,104,0,0,,7,,,79,127
13755,note_on,1,0,0,,0,,,72,127
13859,note_off,104,0,0,,0,,,72,127
13860,note_on,1,0,0,,12,,,71,127
13964,note_off,104,0,0,,12,,,71,127
13964,note_off,0,0,0,,0,,,48,127
13965,note_on,1,0,0,,0,,,48,127
13965,note_on,0,0,0,,0,,,72,127
14070,note_on,105,0,0,,7,,,79,127
14122,note_off,52,0,0,,0,,,72,127
14173,note_off,51,0,0,,7,,,79,127
14174,note_on,1,0,0,,0,,,72,127
14278,note_off,104,0,0,,0,,,72,127
14279,note_on,1,0,0,,12,,,71,127
14383,note_off,104,0,0,,12,,,71,127
14383,note_off,0,0,0,,0,,,48,127
14384,note_on,1,0,0,,0,,,48,127
14384,note_on,0,0,0,,0,,,72,127
14489,note_on,105,0,0,,7,,,79,127
14541,note_off,52,0,0,,0,,,72,127
14592,note_off,51,0,0,,7,,,79,127
14593,note_on,1,0,0,,0,,,72,127
14697,note_off,104,0,0,,0,,,72,127
14698,note_on,1,0,0,,12,,,71,127
14802,note_off,104,0,0,,12,,,71,127
14803,note_on,1,0,0,,0,,,72,127
14907,note_off,104,0,0,,0,,,72,127
14908,note_off,1,0,0,,0,,,48,127
14908,note_on,0,0,0,,7,,,79,127
15012,note_off,104,0,0,,7,,,79,127
15013,note_on,1,0,0,,11,,,70,127
15117,note_off,104,0,0,,11,,,70,127
15118,note_on,1,0,0,,10,,,69,127
15222,note_off,104,0,0,,10,,,69,127
15223,note_on,1,0,0,,0,,,48,127
15223,note_on,0,0,0,,11,,,70,127
15328,note_on,105,0,0,,7,,,79,127
15380,note_off,52,0,0,,11,,,70,127
15431,note_off,51,0,0,,7,,,79,127
15432,note_on,1,0,0,,11,,,70,127
15536,note_off,104,0,0,,11,,,70,127
15537,note_on,1,0,0,,10,,,69,127
15641,note_off,104,0,0,,10,,,69,127
15641,note_off,0,0,0,,0,,,48,127
15642,note_on,1,0,0,,0,,,48,127
15642,note_on,0,0,0,,11,,,70,127
15747,note_on,105,0,0,,7,,,79,127
15799,note_off,52,0,0,,11,,,70,127
15850,note_off,51,0,0,,7,,,79,127
15851,note_on,1,0,0,,11,,,70,127
15955,note_off,104,0,0,,11,,,70,127
15956,note_on,1,0,0,,10,,,69,127
16060,note_off,104,0,0,,10,,,69,127
16060,note_off,0,0,0,,0,,,48,127
16061,note_on,1,0,0,,0,,,48,127
16061,note_on,0,0,0,,11,,,70,127
16166,note_on,105,0,0,,7,,,79,127
16218,note_off,52,0,0,,11,,,70,127
16269,note_off,51,0,0,,7,,,79,127
16270,note_on,1,0,0,,11,,,70,127
16374,note_off,104,0,0,,11,,,70,127
16375,note_on,1,0,0,,10,,,69,127
16479,note_off,104,0,0,,10,,,69,127
16480,note_on,1,0,0,,11,,,70,127
16584,note_off,104,0,0,,11,,,70,127
16585,note_off,1,0,0,,0,,,48,127
16585,note_on,0,0,0,,7,,,79,127
16689,note_off,104,0,0,,7,,,79,127
16690,note_on,1,0,0,,10,,,69,127
16794,note_off,104,0,0,,10,,,69,127
16795,note_on,1,0,0,,7,,,67,127
16899,note_off,104,0,0,,7,,,67,127
16900,note_on,1,0,0,,0,,,48,127
16900,note_on,0,0,0,,10,,,69,127
17005,note_on,105,0,0,,5,,,77,127
17057,note_off,52,0,0,,10,,,69,127
17108,note_off,51,0,0,,5,,,77,127
17109,note_on,1,0,0,,10,,,69,127
17213,note_off,104,0,0,,10,,,69,127
17214,note_on,1,0,0,,7,,,67,127
17318,note_off,104,0,0,,7,,,67,127
17318,note_off,0,0,0,,0,,,48,127
17319,note_on,1,0,0,,0,,,48,127
17319,note_on,0,0,0,,10,,,69,127
17424,note_on,105,0,0,,5,,,77,127
17476,note_off,52,0,0,,10,,,69,127
17527,note_off,51,0,0,,5,,,77,127
17528,note_on,1,0,0,,10,,,69,127
17632,note_off,104,0,0,,10,,,69,127
17633,note_on,1,0,0,,7,,,67,127
17737,note_off,104,0,0,,7,,,67,127
17737,note_off,0,0,0,,0,,,48,127
17738,note_on,1,0,0,,0,,,48,127
17738,note_on,0,0,0,,10,,,69,127
17843,note_on,105,0,0,,5,,,77,127
17895,note_off,52,0,0,,10,,,69,127
17946,note_off,51,0,0,,5,,,77,127
17947,note_on,1,0,0,,10,,,69,127
18051,note_off,104,0,0,,10,,,69,127
18052,note_on,1,0,0,,7,,,67,127
18156,note_off,104,0,0,,7,,,67,127
18157,note_on,1,0,0,,10,,,69,127
18261,note_off,104,0,0,,10,,,69,127
18262,note_off,1,0,0,,0,,,48,127
18262,note_on,0,0,0,,5,,,77,127
18366,note_off,104,0,0,,5,,,77,127
18367,note_on,1,0,0,,7,,,67,127
18471,note_off,104,0,0,,7,,,67,127
18472,note_on,1,0,0,,5,,,65,127
18576,note_off,104,0,0,,5,,,65,127
18577,note_on,1,0,0,,0,,,36,127
18577,note_on,0,0,0,,7,,,67,127
18682,note_on,105,0,0,,4,,,76,127
18734,note_off,52,0,0,,7,,,67,127
18785,note_off,51,0,0,,4,,,76,127
18786,note_on,1,0,0,,7,,,67,127
18890,note_off,104,0,0,,7,,,67,127
18891,note_on,1,0,0,,5,,,65,127
18995,note_off,104,0,0,,5,,,65,127
18995,note_off,0,0,0,,0,,,36,127
18996,note_on,1,0,0,,0,,,36,127
18996,note_on,0,0,0,,7,,,67,127
19101,note_on,105,0,0,,4,,,76,127
19153,note_off,52,0,0,,7,,,67,127
19204,note_off,51,0,0,,4,,,76,127
19205,note_on,1,0,0,,7,,,67,127
19309,note_off,104,0,0,,7,,,67,127
19310,note_on,1,0,0,,5,,,65,127
19414,note_off,104,0,0,,5,,,65,127
19414,note_off,0,0,0,,0,,,36,127
19415,note_on,1,0,0,,0,,,36,127
19415,note_on,0,0,0,,7,,,67,127
19520,note_on,105,0,0,,4,,,76,127
19572,note_off,52,0,0,,7,,,67,127
19623,note_off,51,0,0,,4,,,76,127
19624,note_on,1,0,0,,7,,,67,127
19728,note_off,104,0,0,,7,,,67,127
19729,note_on,1,0,0,,5,,,65,127
19829,note_off,100,0,0,,0,,,36,127
19832,note_off,3,0,0,,5,,,65,127
19833,note_on,1,0,0,,7,,,67,127
19927,note_off,94,0,0,,7,,,67,127
19938,note_on,11,0,0,,2,,,74,127
20042,note_off,104,0,0,,2,,,74,127
20043,note_on,1,0,0,,4,,,52,127
20043,note_on,0,0,0,,0,,,72,127
20147,note_off,104,0,0,,0,,,72,127
20148,note_on,1,0,0,,11,,,70,127
20252,note_off,104,0,0,,11,,,70,127
20252,note_off,0,0,0,,4,,,52,127
20253,note_on,1,0,0,,5,,,53,127
20253,note_on,0,0,0,,10,,,69,127
20357,note_off,104,0,0,,10,,,69,127
20358,note_on,1,0,0,,5,,,77,127
20462,note_off,104,0,0,,5,,,77,127
20462,note_off,0,0,0,,5,,,53,127
20463,note_on,1,0,0,,11,,,58,127
20463,note_on,0,0,0,,2,,,74,127
20567,note_off,104,0,0,,2,,,74,127
20568,note_on,1,0,0,,11,,,70,127
20672,note_off,104,0,0,,11,,,70,127
20672,note_off,0,0,0,,11,,,58,127
20673,note_on,1,0,0,,0,,,60,127
20673,note_on,0,0,0,,10,,,69,127
20777,note_off,104,0,0,,10,,,69,127
20778,note_on,1,0,0,,7,,,79,127
20882,note_off,104,0,0,,7,,,79,127
20882,note_off,0,0,0,,0,,,60,127
20883,note_on,1,0,0,,0,,,48,127
20883,note_on,0,0,0,,7,,,67,127
20987,note_off,104,0,0,,7,,,67,127
20988,note_on,1,0,0,,4,,,76,127
21092,note_off,104,0,0,,4,,,76,127
21092,note_off,0,0,0,,0,,,48,127
21093,note_on,1,0,0,,5,,,53,127
21093,note_on,0,0,0,,5,,,77,127
21197,note_off,104,0,0,,5,,,77,127
21198,note_on,1,0,0,,0,,,72,127
21302,note_off,104,0,0,,0,,,72,127
21303,note_on,1,0,0,,5,,,41,127
21303,note_on,0,0,0,,10,,,69,127
21407,note_off,104,0,0,,10,,,69,127
21408,note_on,1,0,0,,5,,,65,127
21508,note_off,100,0,0,,5,,,53,127
21511,note_off,3,0,0,,5,,,65,127
21511,note_off,0,0,0,,5,,,41,127
21512,note_on,1,0,0,,0,,,48,127
21512,note_on,0,0,0,,7,,,79,127
21616,note_off,104,0,0,,7,,,79,127
21617,note_on,1,0,0,,0,,,84,127
21721,note_off,104,0,0,,0,,,84,127
21722,note_on,1,0,0,,0,,,36,127
21722,note_on,0,0,0,,0,,,72,127
21826,note_off,104,0,0,,0,,,72,127
21827,note_on,1,0,0,,4,,,76,127
21927,note_off,100,0,0,,0,,,48,127
21930,note_off,3,0,0,,4,,,76,127
21930,note_off,0,0,0,,0,,,36,127
21931,note_on,1,0,0,,5,,,41,127
21931,note_on,0,0,0,,5,,,77,127
22035,note_off,104,0,0,,5,,,77,127
22036,note_on,1,0,0,,0,,,72,127
22140,note_off,104,0,0,,0,,,72,127
22141,note_on,1,0,0,,10,,,69,127
22245,note_off,104,0,0,,10,,,69,127
22246,note_on,1,0,0,,5,,,65,127
22350,note_off,104,0,0,,5,,,65,127
22350,note_off,0,0,0,,5,,,41,127
22351,note_on,1,0,0,,0,,,36,127
22351,note_on,0,0,0,,7,,,67,127
22455,note_off,104,0,0,,7,,,67,127
22456,note_on,1,0,0,,7,,,79,127
22560,note_off,104,0,0,,7,,,79,127
22561,note_on,1,0,0,,4,,,76,127
22665,note_off,104,0,0,,4,,,76,127
22666,note_on,1,0,0,,0,,,72,127
22770,note_off,104,0,0,,0,,,72,127
22770,note_off,0,0,0,,0,,,36,127
22771,note_on,1,0,0,,5,,,41,127
22771,note_on,0,0,0,,5,,,77,127
22876,note_on,105,0,0,,0,,,72,127
22887,note_off,11,0,0,,5,,,77,127
22980,note_off,93,0,0,,0,,,72,127
22981,note_on,1,0,0,,10,,,69,127
23085,note_off,104,0,0,,10,,,69,127
23086,note_on,1,0,0,,5,,,65,127
23186,note_off,100,0,0,,5,,,41,127
23189,note_off,3,0,0,,5,,,65,127
23190,note_on,1,0,0,,10,,,69,127
23294,note_off,104,0,0,,10,,,69,127
23295,note_on,1,0,0,,5,,,65,127
23399,note_off,104,0,0,,5,,,65,127
23400,note_on,1,0,0,,0,,,36,127
23400,note_on,0,0,0,,2,,,74,127
23400,note_on,0,0,0,,11,,,70,127
23504,note_off,104,0,0,,11,,,70,127
23505,note_on,1,0,0,,5,,,65,127
23609,note_off,104,0,0,,5,,,65,127
23609,note_off,0,0,0,,2,,,74,127
23609,note_off,0,0,0,,0,,,36,127
23610,note_on,1,0,0,,5,,,41,127
23610,note_on,0,0,0,,10,,,69,127
23610,note_on,0,0,0,,5,,,77,127
23714,note_off,104,0,0,,10,,,69,127
23715,note_on,1,0,0,,5,,,65,127
23819,note_off,104,0,0,,5,,,65,127
23819,note_off,0,0,0,,5,,,77,127
23819,note_off,0,0,0,,5,,,41,127
23820,note_on,1,0,0,,0,,,36,127
23820,note_on,0,0,0,,11,,,70,127
23820,note_on,0,0,0,,2,,,74,127
23924,note_off,104,0,0,,11,,,70,127
23925,note_on,1,0,0,,7,,,67,127
24029,note_off,104,0,0,,7,,,67,127
24029,note_off,0,0,0,,2,,,74,127
24029,note_off,0,0,0,,0,,,36,127
24030,note_on,1,0,0,,5,,,41,127
24030,note_on,0,0,0,,5,,,77,127
24030,note_on,0,0,0,,10,,,69,127
24134,note_off,104,0,0,,10,,,69,127
24135,note_on,1,0,0,,5,,,65,127
24239,note_off,104,0,0,,5,,,65,127
24239,note_off,0,0,0,,5,,,77,127
24239,note_off,0,0,0,,5,,,41,127
24240,note_on,1,0,0,,0,,,36,127
24240,note_on,0,0,0,,11,,,70,127
24240,note_on,0,0,0,,7,,,79,127
24344,note_off,104,0,0,,11,,,70,127
24345,note_on,1,0,0,,7,,,67,127
24449,note_off,104,0,0,,7,,,67,127
24449,note_off,0,0,0,,7,,,79,127
24449,note_off,0,0,0,,0,,,36,127
24450,note_on,1,0,0,,5,,,41,127
24450,note_on,0,0,0,,5,,,77,127
24450,note_on,0,0,0,,10,,,69,127
24554,note_off,104,0,0,,10,,,69,127
24555,note_on,1,0,0,,5,,,65,127
24659,note_off,104,0,0,,5,,,65,127
24659,note_off,0,0,0,,5,,,77,127
24660,note_on,1,0,0,,7,,,79,127
24660,note_on,0,0,0,,11,,,70,127
24764,note_off,104,0,0,,11,,,70,127
24765,note_on,1,0,0,,7,,,67,127
24869,note_off,104,0,0,,7,,,67,127
24869,note_off,0,0,0,,7,,,79,127
24870,note_on,1,0,0,,0,,,72,127
24870,note_on,0,0,0,,10,,,81,127
24974,note_off,104,0,0,,0,,,72,127
24975,note_on,1,0,0,,10,,,69,127
25079,note_off,104,0,0,,10,,,69,127
25079,note_off,0,0,0,,10,,,81,127
25079,note_off,0,0,0,,5,,,41,127
25080,note_on,1,0,0,,0,,,36,127
25080,note_on,0,0,0,,11,,,70,127
25080,note_on,0,0,0,,7,,,79,127
25184,note_off,104,0,0,,11,,,70,127
25185,note_on,1,0,0,,7,,,67,127
25289,note_off,104,0,0,,7,,,67,127
25289,note_off,0,0,0,,7,,,79,127
25289,note_off,0,0,0,,0,,,36,127
25290,note_on,1,0,0,,5,,,41,127
25290,note_on,0,0,0,,5,,,77,127
25290,note_on,0,0,0,,10,,,69,127
25394,note_off,104,0,0,,10,,,69,127
25395,note_on,1,0,0,,5,,,65,127
25499,note_off,104,0,0,,5,,,65,127
25499,note_off,0,0,0,,5,,,77,127
25499,note_off,0,0,0,,5,,,41,127
25500,note_on,1,0,0,,0,,,36,127
25500,note_on,0,0,0,,11,,,70,127
25500,note_on,0,0,0,,7,,,79,127
25604,note_off,104,0,0,,11,,,70,127
25605,note_on,1,0,0,,7,,,67,127
25709,note_off,104,0,0,,7,,,67,127
25709,note_off,0,0,0,,7,,,79,127
25709,note_off,0,0,0,,0,,,36,127
25710,note_on,1,0,0,,5,,,41,127
25710,note_on,0,0,0,,5,,,77,127
25710,note_on,0,0,0,,10,,,69,127
25814,note_off,104,0,0,,10,,,69,127
25815,note_on,1,0,0,,5,,,65,127
25919,note_off,104,0,0,,5,,,65,127
25919,note_off,0,0,0,,5,,,77,127
25919,note_off,0,0,0,,5,,,41,127
25920,note_on,1,0,0,,0,,,36,127
25920,note_on,0,0,0,,4,,,76,127
25920,note_on,0,0,0,,11,,,70,127
26024,note_off,104,0,0,,11,,,70,127
26025,note_on,1,0,0,,7,,,67,127
26129,note_off,104,0,0,,7,,,67,127
26129,note_off,0,0,0,,4,,,76,127
26129,note_off,0,0,0,,0,,,36,127
26130,note_on,1,0,0,,5,,,41,127
26130,note_on,0,0,0,,10,,,69,127
26130,note_on,0,0,0,,5,,,77,127
26757,note_off,627,0,0,,5,,,77,127
26966,note_off,209,0,0,,10,,,69,127
26966,note_off,0,0,0,,5,,,41,127
26967,note_on,1,0,0,,5,,,65,127
27071,note_off,104,0,0,,5,,,65,127
27072,note_on,1,0,0,,0,,,60,127
27176,note_off,104,0,0,,0,,,60,127
27177,note_on,1,0,0,,5,,,65,127
27281,note_off,104,0,0,,5,,,65,127
27282,note_on,1,0,0,,7,,,67,127
27386,note_off,104,0,0,,7,,,67,127
27387,note_on,1,0,0,,10,,,69,127
27491,note_off,104,0,0,,10,,,69,127
27492,note_on,1,0,0,,5,,,65,127
27596,note_off,104,0,0,,5,,,65,127
27597,note_on,1,0,0,,10,,,69,127
27701,note_off,104,0,0,,10,,,69,127
27702,note_on,1,0,0,,11,,,70,127
27806,note_off,104,0,0,,11,,,70,127
27807,note_on,1,0,0,,5,,,53,127
27807,note_on,0,0,0,,0,,,72,127
27911,note_off,104,0,0,,5,,,53,127
27912,note_on,1,0,0,,0,,,48,127
28016,note_off,104,0,0,,0,,,48,127
28017,note_on,1,0,0,,5,,,53,127
28121,note_off,104,0,0,,5,,,53,127
28122,note_on,1,0,0,,7,,,55,127
28226,note_off,104,0,0,,7,,,55,127
28227,note_on,1,0,0,,10,,,57,127
28331,note_off,104,0,0,,10,,,57,127
28332,note_on,1,0,0,,5,,,53,127
28397,note_off,65,0,0,,0,,,72,127
28435,note_off,38,0,0,,5,,,53,127
28436,note_on,1,0,0,,10,,,57,127
28436,note_on,0,0,0,,5,,,65,127
28540,note_off,104,0,0,,10,,,57,127
28541,note_on,1,0,0,,12,,,59,127
28645,note_off,104,0,0,,12,,,59,127
28645,note_off,0,0,0,,5,,,65,127
28646,note_on,1,0,0,,0,,,60,127
28646,note_on,0,0,0,,3,,,63,127
28750,note_off,104,0,0,,3,,,63,127
28750,note_off,0,0,0,,0,,,60,127
28751,note_on,1,0,0,,0,,,60,127
28856,note_on,105,0,0,,3,,,63,127
28960,note_off,104,0,0,,3,,,63,127
28961,note_on,1,0,0,,5,,,65,127
29065,note_off,104,0,0,,5,,,65,127
29066,note_on,1,0,0,,7,,,67,127
29170,note_off,104,0,0,,7,,,67,127
29170,note_off,0,0,0,,0,,,60,127
29171,note_on,1,0,0,,0,,,60,127
29275,note_off,104,0,0,,0,,,60,127
29276,note_on,1,0,0,,7,,,67,127
29380,note_off,104,0,0,,7,,,67,127
29381,note_on,1,0,0,,10,,,69,127
29485,note_off,104,0,0,,10,,,69,127
29486,note_on,1,0,0,,7,,,55,127
29486,note_on,0,0,0,,11,,,70,127
29590,note_off,104,0,0,,7,,,55,127
29591,note_on,1,0,0,,2,,,50,127
29695,note_off,104,0,0,,2,,,50,127
29696,note_on,1,0,0,,7,,,55,127
29800,note_off,104,0,0,,7,,,55,127
29801,note_on,1,0,0,,10,,,57,127
29905,note_off,104,0,0,,10,,,57,127
29906,note_on,1,0,0,,11,,,58,127
30010,note_off,104,0,0,,11,,,58,127
30011,note_on,1,0,0,,7,,,55,127
30087,note_off,76,0,0,,11,,,70,127
30114,note_off,27,0,0,,7,,,55,127
30115,note_on,1,0,0,,11,,,58,127
30115,note_on,0,0,0,,7,,,67,127
30219,note_off,104,0,0,,11,,,58,127
30220,note_on,1,0,0,,1,,,61,127
30324,note_off,104,0,0,,1,,,61,127
30324,note_off,0,0,0,,7,,,67,127
30325,note_on,1,0,0,,2,,,62,127
30325,note_on,0,0,0,,5,,,65,127
30429,note_off,104,0,0,,5,,,65,127
30429,note_off,0,0,0,,2,,,62,127
30430,note_on,1,0,0,,2,,,62,127
30535,note_on,105,0,0,,5,,,65,127
30639,note_off,104,0,0,,5,,,65,127
30640,note_on,1,0,0,,7,,,67,127
30744,note_off,104,0,0,,7,,,67,127
30745,note_on,1,0,0,,10,,,69,127
30849,note_off,104,0,0,,10,,,69,127
30849,note_off,0,0,0,,2,,,62,127
30850,note_on,1,0,0,,5,,,65,127
30954,note_off,104,0,0,,5,,,65,127
30955,note_on,1,0,0,,10,,,69,127
31059,note_off,104,0,0,,10,,,69,127
31060,note_on,1,0,0,,12,,,71,127
31164,note_off,104,0,0,,12,,,71,127
31165,note_on,1,0,0,,10,,,57,127
31165,note_on,0,0,0,,1,,,73,127
31269,note_off,104,0,0,,1,,,73,127
31269,note_off,0,0,0,,10,,,57,127
31270,note_on,1,0,0,,4,,,52,127
31270,note_on,0,0,0,,10,,,69,127
31374,note_off,104,0,0,,10,,,69,127
31374,note_off,0,0,0,,4,,,52,127
31375,note_on,1,0,0,,10,,,57,127
31375,note_on,0,0,0,,1,,,73,127
31479,note_off,104,0,0,,1,,,73,127
31479,note_off,0,0,0,,10,,,57,127
31480,note_on,1,0,0,,12,,,59,127
31480,note_on,0,0,0,,2,,,74,127
31584,note_off,104,0,0,,2,,,74,127
31584,note_off,0,0,0,,12,,,59,127
31585,note_on,1,0,0,,1,,,61,127
31585,note_on,0,0,0,,4,,,76,127
31689,note_off,104,0,0,,4,,,76,127
31689,note_off,0,0,0,,1,,,61,127
31690,note_on,1,0,0,,10,,,57,127
31690,note_on,0,0,0,,1,,,73,127
31794,note_off,104,0,0,,1,,,73,127
31794,note_off,0,0,0,,10,,,57,127
31795,note_on,1,0,0,,1,,,61,127
31795,note_on,0,0,0,,4,,,76,127
31899,note_off,104,0,0,,4,,,76,127
31899,note_off,0,0,0,,1,,,61,127
31900,note_on,1,0,0,,2,,,62,127
31900,note_on,0,0,0,,5,,,77,127
32004,note_off,104,0,0,,5,,,77,127
32004,note_off,0,0,0,,2,,,62,127
32005,note_on,1,0,0,,4,,,64,127
32005,note_on,0,0,0,,7,,,79,127
32109,note_off,104,0,0,,7,,,79,127
32110,note_on,1,0,0,,10,,,81,127
32214,note_off,104,0,0,,10,,,81,127
32214,note_off,0,0,0,,4,,,64,127
32215,note_on,1,0,0,,1,,,61,127
32215,note_on,0,0,0,,4,,,76,127
32319,note_off,104,0,0,,4,,,76,127
32320,note_on,1,0,0,,7,,,79,127
32424,note_off,104,0,0,,7,,,79,127
32424,note_off,0,0,0,,1,,,61,127
32425,note_on,1,0,0,,2,,,62,127
32425,note_on,0,0,0,,5,,,77,127
32529,note_off,104,0,0,,5,,,77,127
32530,note_on,1,0,0,,10,,,81,127
32634,note_off,104,0,0,,10,,,81,127
32634,note_off,0,0,0,,2,,,62,127
32635,note_on,1,0,0,,10,,,57,127
32635,note_on,0,0,0,,1,,,73,127
32739,note_off,104,0,0,,1,,,73,127
32740,note_on,1,0,0,,4,,,76,127
32844,note_off,104,0,0,,4,,,76,127
32844,note_off,0,0,0,,10,,,57,127
32845,note_on,1,0,0,,11,,,58,127
32845,note_on,0,0,0,,2,,,74,127
32949,note_off,104,0,0,,2,,,74,127
32950,note_on,1,0,0,,5,,,77,127
33054,note_off,104,0,0,,5,,,77,127
33054,note_off,0,0,0,,11,,,58,127
33055,note_on,1,0,0,,5,,,53,127
33055,note_on,0,0,0,,10,,,69,127
33159,note_off,104,0,0,,10,,,69,127
33160,note_on,1,0,0,,0,,,72,127
33264,note_off,104,0,0,,0,,,72,127
33264,note_off,0,0,0,,5,,,53,127
33265,note_on,1,0,0,,7,,,55,127
33265,note_on,0,0,0,,11,,,70,127
33369,note_off,104,0,0,,11,,,70,127
33370,note_on,1,0,0,,2,,,74,127
33474,note_off,104,0,0,,2,,,74,127
33474,note_off,0,0,0,,7,,,55,127
33475,note_on,1,0,0,,2,,,50,127
33475,note_on,0,0,0,,5,,,65,127
33579,note_off,104,0,0,,5,,,65,127
33580,note_on,1,0,0,,10,,,69,127
33684,note_off,104,0,0,,10,,,69,127
33684,note_off,0,0,0,,2,,,50,127
33685,note_on,1,0,0,,4,,,52,127
33685,note_on,0,0,0,,7,,,67,127
33789,note_off,104,0,0,,7,,,67,127
33790,note_on,1,0,0,,11,,,70,127
33894,note_off,104,0,0,,11,,,70,127
33894,note_off,0,0,0,,4,,,52,127
33895,note_on,1,0,0,,1,,,49,127
33895,note_on,0,0,0,,4,,,64,127
33999,note_off,104,0,0,,4,,,64,127
34000,note_on,1,0,0,,7,,,67,127
34104,note_off,104,0,0,,7,,,67,127
34104,note_off,0,0,0,,1,,,49,127
34105,note_on,1,0,0,,2,,,50,127
34105,note_on,0,0,0,,5,,,65,127
34209,note_off,104,0,0,,5,,,65,127
34210,note_on,1,0,0,,10,,,69,127
34314,note_off,104,0,0,,10,,,69,127
34314,note_off,0,0,0,,2,,,50,127
34315,note_on,1,0,0,,10,,,45,127
34315,note_on,0,0,0,,1,,,61,127
34420,note_on,105,0,0,,4,,,64,127
34435,note_off,15,0,0,,1,,,61,127
34507,note_off,72,0,0,,4,,,64,127
34523,note_off,16,0,0,,10,,,45,127
34524,note_on,1,0,0,,11,,,46,127
34524,note_on,0,0,0,,2,,,74,127
34628,note_off,104,0,0,,2,,,74,127
34629,note_on,1,0,0,,5,,,77,127
34733,note_off,104,0,0,,5,,,77,127
34733,note_off,0,0,0,,11,,,46,127
34734,note_on,1,0,0,,5,,,41,127
34734,note_on,0,0,0,,10,,,69,127
34838,note_off,104,0,0,,10,,,69,127
34839,note_on,1,0,0,,0,,,72,127
34943,note_off,104,0,0,,0,,,72,127
34943,note_off,0,0,0,,5,,,41,127
34944,note_on,1,0,0,,7,,,43,127
34944,note_on,0,0,0,,11,,,70,127
35048,note_off,104,0,0,,11,,,70,127
35049,note_on,1,0,0,,1,,,73,127
35153,note_off,104,0,0,,1,,,73,127
35153,note_off,0,0,0,,7,,,43,127
35154,note_on,1,0,0,,8,,,44,127
35154,note_on,0,0,0,,2,,,74,127
35258,note_off,104,0,0,,2,,,74,127
35259,note_on,1,0,0,,4,,,76,127
35363,note_off,104,0,0,,4,,,76,127
35363,note_off,0,0,0,,8,,,44,127
35364,note_on,1,0,0,,1,,,49,127
35364,note_on,0,0,0,,10,,,69,127
35468,note_off,104,0,0,,10,,,69,127
35469,note_on,1,0,0,,7,,,79,127
35573,note_off,104,0,0,,7,,,79,127
35573,note_off,0,0,0,,1,,,49,127
35574,note_on,1,0,0,,2,,,50,127
35574,note_on,0,0,0,,5,,,77,127
35678,note_off,104,0,0,,5,,,77,127
35679,note_on,1,0,0,,4,,,76,127
35783,note_off,104,0,0,,4,,,76,127
35783,note_off,0,0,0,,2,,,50,127
35784,note_on,1,0,0,,10,,,57,127
35784,note_on,0,0,0,,5,,,77,127
35888,note_off,104,0,0,,5,,,77,127
35889,note_on,1,0,0,,2,,,74,127
35993,note_off,104,0,0,,2,,,74,127
35994,note_on,1,0,0,,10,,,45,127
35994,note_on,0,0,0,,4,,,76,127
36099,note_on,105,0,0,,1,,,73,127
36110,note_off,11,0,0,,4,,,76,127
36193,note_off,83,0,0,,1,,,73,127
36200,note_off,7,0,0,,10,,,57,127
36203,note_off,3,0,0,,10,,,45,127
36204,note_on,1,0,0,,2,,,50,127
36204,note_on,0,0,0,,2,,,74,127
36308,note_off,104,0,0,,2,,,74,127
36309,note_on,1,0,0,,10,,,69,127
36413,note_off,104,0,0,,10,,,69,127
36414,note_on,1,0,0,,2,,,74,127
36518,note_off,104,0,0,,2,,,74,127
36519,note_on,1,0,0,,4,,,76,127
36623,note_off,104,0,0,,4,,,76,127
36624,note_on,1,0,0,,6,,,78,127
36728,note_off,104,0,0,,6,,,78,127
36728,note_off,0,0,0,,2,,,50,127
36729,note_on,1,0,0,,10,,,45,127
36729,note_on,0,0,0,,2,,,74,127
36833,note_off,104,0,0,,2,,,74,127
36833,note_off,0,0,0,,10,,,45,127
36834,note_on,1,0,0,,2,,,50,127
36834,note_on,0,0,0,,6,,,78,127
36938,note_off,104,0,0,,6,,,78,127
36938,note_off,0,0,0,,2,,,50,127
36939,note_on,1,0,0,,4,,,52,127
36939,note_on,0,0,0,,7,,,79,127
37043,note_off,104,0,0,,7,,,79,127
37043,note_off,0,0,0,,4,,,52,127
37044,note_on,1,0,0,,6,,,54,127
37044,note_on,0,0,0,,10,,,81,127
37148,note_off,104,0,0,,6,,,54,127
37149,note_on,1,0,0,,2,,,50,127
37253,note_off,104,0,0,,2,,,50,127
37254,note_on,1,0,0,,6,,,54,127
37358,note_off,104,0,0,,6,,,54,127
37359,note_on,1,0,0,,7,,,55,127
37463,note_off,104,0,0,,7,,,55,127
37464,note_on,1,0,0,,10,,,57,127
37568,note_off,104,0,0,,10,,,57,127
37568,note_off,0,0,0,,10,,,81,127
37569,note_on,1,0,0,,0,,,60,127
37569,note_on,0,0,0,,6,,,78,127
37673,note_off,104,0,0,,6,,,78,127
37673,note_off,0,0,0,,0,,,60,127
37674,note_on,1,0,0,,11,,,58,127
37674,note_on,0,0,0,,7,,,79,127
37778,note_off,104,0,0,,7,,,79,127
37778,note_off,0,0,0,,11,,,58,127
37779,note_on,1,0,0,,10,,,57,127
37779,note_on,0,0,0,,10,,,81,127
37883,note_off,104,0,0,,10,,,81,127
37883,note_off,0,0,0,,10,,,57,127
37884,note_on,1,0,0,,11,,,58,127
37884,note_on,0,0,0,,2,,,74,127
37988,note_off,104,0,0,,11,,,58,127
37989,note_on,1,0,0,,2,,,62,127
38093,note_off,104,0,0,,2,,,62,127
38093,note_off,0,0,0,,2,,,74,127
38094,note_on,1,0,0,,7,,,55,127
38094,note_on,0,0,0,,2,,,86,127
38198,note_off,104,0,0,,7,,,55,127
38199,note_on,1,0,0,,11,,,58,127
38303,note_off,104,0,0,,11,,,58,127
38303,note_off,0,0,0,,2,,,86,127
38304,note_on,1,0,0,,10,,,57,127
38304,note_on,0,0,0,,2,,,74,127
38408,note_off,104,0,0,,10,,,57,127
38409,note_on,1,0,0,,0,,,60,127
38513,note_off,104,0,0,,0,,,60,127
38513,note_off,0,0,0,,2,,,74,127
38514,note_on,1,0,0,,6,,,54,127
38514,note_on,0,0,0,,0,,,84,127
38618,note_off,104,0,0,,6,,,54,127
38619,note_on,1,0,0,,10,,,57,127
38723,note_off,104,0,0,,10,,,57,127
38723,note_off,0,0,0,,0,,,84,127
38724,note_on,1,0,0,,7,,,55,127
38724,note_on,0,0,0,,2,,,74,127
38828,note_off,104,0,0,,7,,,55,127
38829,note_on,1,0,0,,11,,,58,127
38933,note_off,104,0,0,,11,,,58,127
38933,note_off,0,0,0,,2,,,74,127
38934,note_on,1,0,0,,4,,,52,127
38934,note_on,0,0,0,,11,,,82,127
39038,note_off,104,0,0,,4,,,52,127
39039,note_on,1,0,0,,7,,,55,127
39143,note_off,104,0,0,,7,,,55,127
39143,note_off,0,0,0,,11,,,82,127
39144,note_on,1,0,0,,6,,,54,127
39144,note_on,0,0,0,,0,,,72,127
39248,note_off,104,0,0,,6,,,54,127
39249,note_on,1,0,0,,10,,,57,127
39353,note_off,104,0,0,,10,,,57,127
39354,note_on,1,0,0,,2,,,50,127
39354,note_on,0,0,0,,10,,,81,127
39365,note_off,11,0,0,,0,,,72,127
39458,note_off,93,0,0,,2,,,50,127
39459,note_on,1,0,0,,6,,,54,127
39531,note_off,72,0,0,,10,,,81,127
39563,note_off,32,0,0,,6,,,54,127
39564,note_on,1,0,0,,7,,,55,127
39564,note_on,0,0,0,,11,,,70,127
39668,note_off,104,0,0,,11,,,70,127
39669,note_on,1,0,0,,2,,,74,127
39773,note_off,104,0,0,,2,,,74,127
39773,note_off,0,0,0,,7,,,55,127
39774,note_on,1,0,0,,2,,,50,127
39774,note_on,0,0,0,,6,,,66,127
39878,note_off,104,0,0,,6,,,66,127
39879,note_on,1,0,0,,10,,,69,127
39983,note_off,104,0,0,,10,,,69,127
39983,note_off,0,0,0,,2,,,50,127
39984,note_on,1,0,0,,3,,,51,127
39984,note_on,0,0,0,,7,,,67,127
40088,note_off,104,0,0,,7,,,67,127
40089,note_on,1,0,0,,7,,,79,127
40193,note_off,104,0,0,,7,,,79,127
40193,note_off,0,0,0,,3,,,51,127
40194,note_on,1,0,0,,5,,,53,127
40194,note_on,0,0,0,,10,,,69,127
40298,note_off,104,0,0,,10,,,69,127
40299,note_on,1,0,0,,0,,,72,127
40403,note_off,104,0,0,,0,,,72,127
40403,note_off,0,0,0,,5,,,53,127
40404,note_on,1,0,0,,7,,,55,127
40404,note_on,0,0,0,,11,,,70,127
40508,note_off,104,0,0,,11,,,70,127
40509,note_on,1,0,0,,2,,,74,127
40613,note_off,104,0,0,,2,,,74,127
40613,note_off,0,0,0,,7,,,55,127
40614,note_on,1,0,0,,10,,,57,127
40614,note_on,0,0,0,,0,,,72,127
40718,note_off,104,0,0,,0,,,72,127
40719,note_on,1,0,0,,3,,,75,127
40823,note_off,104,0,0,,3,,,75,127
40823,note_off,0,0,0,,10,,,57,127
40824,note_on,1,0,0,,11,,,58,127
40824,note_on,0,0,0,,2,,,74,127
40928,note_off,104,0,0,,2,,,74,127
40929,note_on,1,0,0,,5,,,77,127
41033,note_off,104,0,0,,5,,,77,127
41033,note_off,0,0,0,,11,,,58,127
41034,note_on,1,0,0,,0,,,60,127
41034,note_on,0,0,0,,4,,,76,127
41138,note_off,104,0,0,,4,,,76,127
41139,note_on,1,0,0,,7,,,79,127
41243,note_off,104,0,0,,7,,,79,127
41243,note_off,0,0,0,,0,,,60,127
41244,note_on,1,0,0,,5,,,53,127
41244,note_on,0,0,0,,5,,,77,127
41349,note_on,105,0,0,,0,,,84,127
41401,note_off,52,0,0,,5,,,77,127
41452,note_off,51,0,0,,0,,,84,127
41453,note_on,1,0,0,,5,,,77,127
41557,note_off,104,0,0,,5,,,77,127
41558,note_on,1,0,0,,4,,,76,127
41662,note_off,104,0,0,,4,,,76,127
41662,note_off,0,0,0,,5,,,53,127
41663,note_on,1,0,0,,5,,,53,127
41663,note_on,0,0,0,,5,,,77,127
41768,note_on,105,0,0,,0,,,84,127
41820,note_off,52,0,0,,5,,,77,127
41871,note_off,51,0,0,,0,,,84,127
41872,note_on,1,0,0,,5,,,77,127
41976,note_off,104,0,0,,5,,,77,127
41977,note_on,1,0,0,,4,,,76,127
42081,note_off,104,0,0,,4,,,76,127
42081,note_off,0,0,0,,5,,,53,127
42082,note_on,1,0,0,,5,,,53,127
42082,note_on,0,0,0,,5,,,77,127
42187,note_on,105,0,0,,0,,,84,127
42239,note_off,52,0,0,,5,,,77,127
42290,note_off,51,0,0,,0,,,84,127
42291,note_on,1,0,0,,5,,,77,127
42395,note_off,104,0,0,,5,,,77,127
42396,note_on,1,0,0,,4,,,76,127
42500,note_off,104,0,0,,4,,,76,127
42501,note_on,1,0,0,,5,,,77,127
42605,note_off,104,0,0,,5,,,77,127
42606,note_off,1,0,0,,5,,,53,127
42606,note_on,0,0,0,,0,,,84,127
42710,note_off,104,0,0,,0,,,84,127
42711,note_on,1,0,0,,3,,,75,127
42815,note_off,104,0,0,,3,,,75,127
42816,note_on,1,0,0,,2,,,74,127
42920,note_off,104,0,0,,2,,,74,127
42921,note_on,1,0,0,,5,,,53,127
42921,note_on,0,0,0,,3,,,75,127
43026,note_on,105,0,0,,0,,,84,127
43078,note_off,52,0,0,,3,,,75,127
43129,note_off,51,0,0,,0,,,84,127
43130,note_on,1,0,0,,3,,,75,127
43234,note_off,104,0,0,,3,,,75,127
43235,note_on,1,0,0,,2,,,74,127
43339,note_off,104,0,0,,2,,,74,127
43339,note_off,0,0,0,,5,,,53,127
43340,note_on,1,0,0,,5,,,53,127
43340,note_on,0,0,0,,3,,,75,127
43445,note_on,105,0,0,,0,,,84,127
43497,note_off,52,0,0,,3,,,75,127
43548,note_off,51,0,0,,0,,,84,127
43549,note_on,1,0,0,,3,,,75,127
43653,note_off,104,0,0,,3,,,75,127
43654,note_on,1,0,0,,2,,,74,127
43758,note_off,104,0,0,,2,,,74,127
43758,note_off,0,0,0,,5,,,53,127
43759,note_on,1,0,0,,5,,,53,127
43759,note_on,0,0,0,,3,,,75,127
43864,note_on,105,0,0,,0,,,84,127
43916,note_off,52,0,0,,3,,,75,127
43967,note_off,51,0,0,,0,,,84,127
43968,note_on,1,0,0,,3,,,75,127
44072,note_off,104,0,0,,3,,,75,127
44073,note_on,1,0,0,,2,,,74,127
44177,note_off,104,0,0,,2,,,74,127
44178,note_on,1,0,0,,3,,,75,127
44282,note_off,104,0,0,,3,,,75,127
44283,note_off,1,0,0,,5,,,53,127
44283,note_on,0,0,0,,0,,,84,127
44387,note_off,104,0,0,,0,,,84,127
44388,note_on,1,0,0,,2,,,74,127
44492,note_off,104,0,0,,2,,,74,127
44493,note_on,1,0,0,,0,,,72,127
44597,note_off,104,0,0,,0,,,72,127
44598,note_on,1,0,0,,5,,,53,127
44598,note_on,0,0,0,,2,,,74,127
44703,note_on,105,0,0,,11,,,82,127
44755,note_off,52,0,0,,2,,,74,127
44806,note_off,51,0,0,,11,,,82,127
44807,note_on,1,0,0,,2,,,74,127
44911,note_off,104,0,0,,2,,,74,127
44912,note_on,1,0,0,,0,,,72,127
45016,note_off,104,0,0,,0,,,72,127
45016,note_off,0,0,0,,5,,,53,127
45017,note_on,1,0,0,,5,,,53,127
45017,note_on,0,0,0,,2,,,74,127
45122,note_on,105,0,0,,11,,,82,127
45174,note_off,52,0,0,,2,,,74,127
45225,note_off,51,0,0,,11,,,82,127
45226,note_on,1,0,0,,2,,,74,127
45330,note_off,104,0,0,,2,,,74,127
45331,note_on,1,0,0,,0,,,72,127
45435,note_off,104,0,0,,0,,,72,127
45435,note_off,0,0,0,,5,,,53,127
45436,note_on,1,0,0,,5,,,53,127
45436,note_on,0,0,0,,2,,,74,127
45541,note_on,105,0,0,,11,,,82,127
45593,note_off,52,0,0,,2,,,74,127
45644,note_off,51,0,0,,11,,,82,127
45645,note_on,1,0,0,,2,,,74,127
45749,note_off,104,0,0,,2,,,74,127
45750,note_on,1,0,0,,0,,,72,127
45854,note_off,104,0,0,,0,,,72,127
45855,note_on,1,0,0,,2,,,74,127
45959,note_off,104,0,0,,2,,,74,127
45960,note_off,1,0,0,,5,,,53,127
45960,note_on,0,0,0,,11,,,82,127
46064,note_off,104,0,0,,11,,,82,127
46065,note_on,1,0,0,,0,,,72,127
46169,note_off,104,0,0,,0,,,72,127
46170,note_on,1,0,0,,11,,,70,127
46274,note_off,104,0,0,,11,,,70,127
46275,note_on,1,0,0,,5,,,41,127
46275,note_on,0,0,0,,0,,,72,127
46380,note_on,105,0,0,,10,,,81,127
46432,note_off,52,0,0,,0,,,72,127
46483,note_off,51,0,0,,10,,,81,127
46484,note_on,1,0,0,,0,,,72,127
46588,note_off,104,0,0,,0,,,72,127
46589,note_on,1,0,0,,11,,,70,127
46693,note_off,104,0,0,,11,,,70,127
46693,note_off,0,0,0,,5,,,41,127
46694,note_on,1,0,0,,5,,,41,127
46694,note_on,0,0,0,,0,,,72,127
46799,note_on,105,0,0,,10,,,81,127
46851,note_off,52,0,0,,0,,,72,127
46902,note_off,51,0,0,,10,,,81,127
46903,note_on,1,0,0,,0,,,72,127
47007,note_off,104,0,0,,0,,,72,127
47008,note_on,1,0,0,,11,,,70,127
47112,note_off,104,0,0,,11,,,70,127
47112,note_off,0,0,0,,5,,,41,127
47113,note_on,1,0,0,,5,,,41,127
47113,note_on,0,0,0,,0,,,72,127
47218,note_on,105,0,0,,10,,,81,127
47270,note_off,52,0,0,,0,,,72,127
47321,note_off,51,0,0,,10,,,81,127
47322,note_on,1,0,0,,0,,,72,127
47426,note_off,104,0,0,,0,,,72,127
47427,note_on,1,0,0,,11,,,70,127
47531,note_off,104,0,0,,11,,,70,127
47532,note_on,1,0,0,,0,,,72,127
47626,note_off,94,0,0,,0,,,72,127
47637,note_on,11,0,0,,7,,,79,127
47741,note_off,104,0,0,,7,,,79,127
47741,note_off,0,0,0,,5,,,41,127
47742,note_on,1,0,0,,10,,,57,127
47742,note_on,0,0,0,,5,,,77,127
47846,note_off,104,0,0,,5,,,77,127
47847,note_on,1,0,0,,3,,,75,127
47951,note_off,104,0,0,,3,,,75,127
47951,note_off,0,0,0,,10,,,57,127
47952,note_on,1,0,0,,11,,,58,127
47952,note_on,0,0,0,,2,,,74,127
48056,note_off,104,0,0,,2,,,74,127
48057,note_on,1,0,0,,11,,,82,127
48161,note_off,104,0,0,,11,,,82,127
48161,note_off,0,0,0,,11,,,58,127
48162,note_on,1,0,0,,3,,,51,127
48162,note_on,0,0,0,,7,,,79,127
48266,note_off,104,0,0,,7,,,79,127
48267,note_on,1,0,0,,3,,,75,127
48371,note_off,104,0,0,,3,,,75,127
48371,note_off,0,0,0,,3,,,51,127
48372,note_on,1,0,0,,5,,,53,127
48372,note_on,0,0,0,,2,,,74,127
48476,note_off,104,0,0,,2,,,74,127
48477,note_on,1,0,0,,0,,,84,127
48581,note_off,104,0,0,,0,,,84,127
48582,note_on,1,0,0,,5,,,41,127
48582,note_on,0,0,0,,0,,,72,127
48686,note_off,104,0,0,,0,,,72,127
48687,note_on,1,0,0,,10,,,81,127
48787,note_off,100,0,0,,5,,,53,127
48790,note_off,3,0,0,,10,,,81,127
48790,note_off,0,0,0,,5,,,41,127
48791,note_on,1,0,0,,11,,,46,127
48791,note_on,0,0,0,,11,,,82,127
48895,note_off,104,0,0,,11,,,82,127
48896,note_on,1,0,0,,5,,,77,127
49000,note_off,104,0,0,,5,,,77,127
49001,note_on,1,0,0,,2,,,74,127
49105,note_off,104,0,0,,2,,,74,127
49106,note_on,1,0,0,,11,,,70,127
49206,note_off,100,0,0,,11,,,46,127
49209,note_off,3,0,0,,11,,,70,127
49210,note_on,1,0,0,,0,,,72,127
49314,note_off,104,0,0,,0,,,72,127
49315,note_on,1,0,0,,5,,,77,127
49419,note_off,104,0,0,,5,,,77,127
49420,note_on,1,0,0,,5,,,53,127
49420,note_on,0,0,0,,5,,,65,127
49525,note_on,105,0,0,,10,,,69,127
49536,note_off,11,0,0,,5,,,65,127
49619,note_off,83,0,0,,10,,,69,127
49629,note_off,10,0,0,,5,,,53,127
49630,note_on,1,0,0,,11,,,46,127
49630,note_on,0,0,0,,11,,,82,127
49734,note_off,104,0,0,,11,,,82,127
49735,note_on,1,0,0,,5,,,77,127
49839,note_off,104,0,0,,5,,,77,127
49840,note_on,1,0,0,,2,,,74,127
49944,note_off,104,0,0,,2,,,74,127
49945,note_on,1,0,0,,11,,,70,127
50049,note_off,104,0,0,,11,,,70,127
50050,note_on,1,0,0,,0,,,72,127
50154,note_off,104,0,0,,0,,,72,127
50155,note_on,1,0,0,,5,,,77,127
50259,note_off,104,0,0,,5,,,77,127
50259,note_off,0,0,0,,11,,,46,127
50260,note_on,1,0,0,,5,,,41,127
50260,note_on,0,0,0,,5,,,65,127
50364,note_off,104,0,0,,5,,,65,127
50365,note_on,1,0,0,,10,,,69,127
50469,note_off,104,0,0,,10,,,69,127
50469,note_off,0,0,0,,5,,,41,127
50470,note_on,1,0,0,,11,,,46,127
50470,note_on,0,0,0,,11,,,70,127
50574,note_off,104,0,0,,11,,,70,127
50575,note_on,1,0,0,,2,,,62,127
50679,note_off,104,0,0,,2,,,62,127
50680,note_on,1,0,0,,0,,,72,127
50784,note_off,104,0,0,,0,,,72,127
50785,note_on,1,0,0,,3,,,63,127
50889,note_off,104,0,0,,3,,,63,127
50890,note_on,1,0,0,,11,,,70,127
50994,note_off,104,0,0,,11,,,70,127
50995,note_on,1,0,0,,2,,,62,127
51099,note_off,104,0,0,,2,,,62,127
51099,note_off,0,0,0,,11,,,46,127
51100,note_on,1,0,0,,5,,,41,127
51100,note_on,0,0,0,,10,,,69,127
51204,note_off,104,0,0,,10,,,69,127
51205,note_on,1,0,0,,0,,,60,127
51309,note_off,104,0,0,,0,,,60,127
51309,note_off,0,0,0,,5,,,41,127
51310,note_on,1,0,0,,11,,,46,127
51310,note_on,0,0,0,,11,,,70,127
51414,note_off,104,0,0,,11,,,70,127
51415,note_on,1,0,0,,2,,,62,127
51519,note_off,104,0,0,,2,,,62,127
51519,note_off,0,0,0,,11,,,46,127
51520,note_on,1,0,0,,5,,,41,127
51520,note_on,0,0,0,,0,,,72,127
51624,note_off,104,0,0,,0,,,72,127
51625,note_on,1,0,0,,3,,,63,127
51729,note_off,104,0,0,,3,,,63,127
51729,note_off,0,0,0,,5,,,41,127
51730,note_on,1,0,0,,11,,,46,127
51730,note_on,0,0,0,,2,,,74,127
51834,note_off,104,0,0,,2,,,74,127
51835,note_on,1,0,0,,5,,,65,127
51939,note_off,104,0,0,,5,,,65,127
51939,note_off,0,0,0,,11,,,46,127
51940,note_on,1,0,0,,5,,,41,127
51940,note_on,0,0,0,,0,,,72,127
52044,note_off,104,0,0,,0,,,72,127
52045,note_on,1,0,0,,3,,,63,127
52149,note_off,104,0,0,,3,,,63,127
52149,note_off,0,0,0,,5,,,41,127
52150,note_on,1,0,0,,11,,,46,127
52150,note_on,0,0,0,,11,,,70,127
52254,note_off,104,0,0,,11,,,70,127
52255,note_on,1,0,0,,2,,,62,127
52359,note_off,104,0,0,,2,,,62,127
52359,note_off,0,0,0,,11,,,46,127
52360,note_on,1,0,0,,5,,,41,127
52360,note_on,0,0,0,,0,,,72,127
52464,note_off,104,0,0,,0,,,72,127
52465,note_on,1,0,0,,3,,,63,127
52569,note_off,104,0,0,,3,,,63,127
52569,note_off,0,0,0,,5,,,41,127
52570,note_on,1,0,0,,11,,,46,127
52570,note_on,0,0,0,,11,,,70,127
52674,note_off,104,0,0,,11,,,70,127
52675,note_on,1,0,0,,2,,,62,127
52779,note_off,104,0,0,,2,,,62,127
52779,note_off,0,0,0,,11,,,46,127
52780,note_on,1,0,0,,5,,,41,127
52780,note_on,0,0,0,,10,,,69,127
52884,note_off,104,0,0,,10,,,69,127
52885,note_on,1,0,0,,0,,,60,127
52989,note_off,104,0,0,,0,,,60,127
52989,note_off,0,0,0,,5,,,41,127
52990,note_on,1,0,0,,11,,,46,127
52990,note_on,0,0,0,,11,,,70,127
52990,note_on,0,0,0,,5,,,65,127
52990,note_on,0,0,0,,2,,,62,127
54247,note_off,1257,0,0,,2,,,62,127
54247,note_off,0,0,0,,5,,,65,127
54247,note_off,0,0,0,,11,,,70,127
54247,note_off,0,0,0,,11,,,46,127
59904,end_of_track,5657,1,0,,,,,,
