tick,type,time,meta,track,program,channel,pitch,tempo,note,velocity
0,copyright,0,1,0,,,,,,
0,program_change,0,0,0,6,0,,,,
0,pitchwheel,0,0,0,,0,0,,,
0,program_change,0,0,0,6,1,,,,
0,pitchwheel,0,0,0,,1,-590,,,
0,program_change,0,0,0,6,2,,,,
0,pitchwheel,0,0,0,,2,-272,,,
0,program_change,0,0,0,6,3,,,,
0,pitchwheel,0,0,0,,3,-353,,,
0,program_change,0,0,0,6,4,,,,
0,pitchwheel,0,0,0,,4,-560,,,
0,program_change,0,0,0,6,5,,,,
0,pitchwheel,0,0,0,,5,-80,,,
0,program_change,0,0,0,6,6,,,,
0,pitchwheel,0,0,0,,6,-625,,,
0,program_change,0,0,0,6,7,,,,
0,pitchwheel,0,0,0,,7,-130,,,
0,program_change,0,0,0,6,8,,,,
0,pitchwheel,0,0,0,,8,-512,,,
0,program_change,0,0,0,6,10,,,,
0,pitchwheel,0,0,0,,10,-464,,,
0,program_change,0,0,0,6,11,,,,
0,pitchwheel,0,0,0,,11,-208,,,
0,program_change,0,0,0,6,12,,,,
0,pitchwheel,0,0,0,,12,-553,,,
0,set_tempo,0,1,0,,,,500000,,
100,note_on,100,0,0,,7,,,55,127
300,note_on,200,0,0,,7,,,67,127
499,note_off,199,0,0,,7,,,67,127
500,note_on,1,0,0,,12,,,71,127
699,note_off,199,0,0,,12,,,71,127
700,note_on,1,0,0,,2,,,74,127
899,note_off,199,0,0,,2,,,74,127
900,note_on,1,0,0,,7,,,79,127
1000,note_on,100,0,0,,10,,,81,127
1025,note_off,25,0,0,,7,,,79,127
1099,note_off,74,0,0,,7,,,55,127
1100,note_on,1,0,0,,7,,,43,127
1100,note_on,0,0,0,,12,,,83,127
1125,note_off,25,0,0,,10,,,81,127
1200,note_on,75,0,0,,0,,,84,127
1225,note_off,25,0,0,,12,,,83,127
1299,note_off,74,0,0,,7,,,43,127
1300,note_on,1,0,0,,12,,,47,127
1300,note_on,0,0,0,,12,,,83,127
1325,note_off,25,0,0,,0,,,84,127
1400,note_on,75,0,0,,10,,,81,127
1425,note_off,25,0,0,,12,,,83,127
1499,note_off,74,0,0,,12,,,47,127
1500,note_on,1,0,0,,2,,,50,127
1500,note_on,0,0,0,,7,,,79,127
1525,note_off,25,0,0,,10,,,81,127
1600,note_on,75,0,0,,6,,,78,127
1625,note_off,25,0,0,,7,,,79,127
1699,note_off,74,0,0,,2,,,50,127
1700,note_on,1,0,0,,7,,,55,127
1700,note_on,0,0,0,,7,,,79,127
1725,note_off,25,0,0,,6,,,78,127
1800,note_on,75,0,0,,10,,,57,127
1815,note_off,15,0,0,,7,,,55,127
1901,note_on,86,0,0,,12,,,59,127
1916,note_off,15,0,0,,10,,,57,127
2002,note_on,86,0,0,,0,,,60,127
2017,note_off,15,0,0,,12,,,59,127
2103,note_on,86,0,0,,12,,,59,127
2118,note_off,15,0,0,,0,,,60,127
2204,note_on,86,0,0,,10,,,57,127
2219,note_off,15,0,0,,12,,,59,127
2257,note_off,38,0,0,,7,,,79,127
2305,note_on,48,0,0,,7,,,55,127
2305,note_on,0,0,0,,2,,,74,127
2320,note_off,15,0,0,,10,,,57,127
2406,note_on,86,0,0,,6,,,54,127
2421,note_off,15,0,0,,7,,,55,127
2506,note_off,85,0,0,,2,,,74,127
2507,note_on,1,0,0,,7,,,55,127
2507,note_on,0,0,0,,12,,,71,127
2522,note_off,15,0,0,,6,,,54,127
2608,note_on,86,0,0,,0,,,72,127
2633,note_off,25,0,0,,12,,,71,127
2708,note_on,75,0,0,,2,,,74,127
2733,note_off,25,0,0,,0,,,72,127
2808,note_on,75,0,0,,4,,,76,127
2833,note_off,25,0,0,,2,,,74,127
2908,note_on,75,0,0,,2,,,74,127
2933,note_off,25,0,0,,4,,,76,127
3008,note_on,75,0,0,,0,,,72,127
3033,note_off,25,0,0,,2,,,74,127
3107,note_off,74,0,0,,7,,,55,127
3108,note_on,1,0,0,,2,,,62,127
3108,note_on,0,0,0,,12,,,71,127
3133,note_off,25,0,0,,0,,,72,127
3208,note_on,75,0,0,,10,,,69,127
3233,note_off,25,0,0,,12,,,71,127
3307,note_off,74,0,0,,2,,,62,127
3308,note_on,1,0,0,,12,,,59,127
3308,note_on,0,0,0,,2,,,74,127
3333,note_off,25,0,0,,10,,,69,127
3408,note_on,75,0,0,,0,,,60,127
3423,note_off,15,0,0,,12,,,59,127
3509,note_on,86,0,0,,2,,,62,127
3524,note_off,15,0,0,,0,,,60,127
3610,note_on,86,0,0,,4,,,64,127
3625,note_off,15,0,0,,2,,,62,127
3711,note_on,86,0,0,,2,,,62,127
3726,note_off,15,0,0,,4,,,64,127
3812,note_on,86,0,0,,0,,,60,127
3827,note_off,15,0,0,,2,,,62,127
3865,note_off,38,0,0,,2,,,74,127
3913,note_on,48,0,0,,12,,,59,127
3913,note_on,0,0,0,,6,,,66,127
3928,note_off,15,0,0,,0,,,60,127
4014,note_on,86,0,0,,10,,,57,127
4029,note_off,15,0,0,,12,,,59,127
4114,note_off,85,0,0,,6,,,66,127
4115,note_on,1,0,0,,12,,,59,127
4115,note_on,0,0,0,,7,,,67,127
4130,note_off,15,0,0,,10,,,57,127
4216,note_on,86,0,0,,2,,,62,127
4241,note_off,25,0,0,,7,,,67,127
4315,note_off,74,0,0,,12,,,59,127
4316,note_on,1,0,0,,12,,,59,127
4316,note_on,0,0,0,,1,,,61,127
4341,note_off,25,0,0,,2,,,62,127
4416,note_on,75,0,0,,2,,,62,127
4441,note_off,25,0,0,,1,,,61,127
4515,note_off,74,0,0,,12,,,59,127
4516,note_on,1,0,0,,10,,,57,127
4516,note_on,0,0,0,,6,,,66,127
4541,note_off,25,0,0,,2,,,62,127
4616,note_on,75,0,0,,2,,,62,127
4641,note_off,25,0,0,,6,,,66,127
4715,note_off,74,0,0,,10,,,57,127
4716,note_on,1,0,0,,7,,,55,127
4716,note_on,0,0,0,,1,,,61,127
4741,note_off,25,0,0,,2,,,62,127
4816,note_on,75,0,0,,2,,,62,127
4841,note_off,25,0,0,,1,,,61,127
4915,note_off,74,0,0,,7,,,55,127
4916,note_on,1,0,0,,6,,,54,127
4916,note_on,0,0,0,,10,,,69,127
4941,note_off,25,0,0,,2,,,62,127
5016,note_on,75,0,0,,7,,,55,127
5031,note_off,15,0,0,,6,,,54,127
5117,note_on,86,0,0,,6,,,54,127
5132,note_off,15,0,0,,7,,,55,127
5218,note_on,86,0,0,,4,,,52,127
5233,note_off,15,0,0,,6,,,54,127
5319,note_on,86,0,0,,2,,,50,127
5334,note_off,15,0,0,,4,,,52,127
5420,note_on,86,0,0,,0,,,48,127
5435,note_off,15,0,0,,2,,,50,127
5473,note_off,38,0,0,,10,,,69,127
5521,note_on,48,0,0,,12,,,47,127
5521,note_on,0,0,0,,10,,,69,127
5536,note_off,15,0,0,,0,,,48,127
5622,note_on,86,0,0,,10,,,45,127
5637,note_off,15,0,0,,12,,,47,127
5722,note_off,85,0,0,,10,,,69,127
5723,note_on,1,0,0,,7,,,43,127
5723,note_on,0,0,0,,12,,,71,127
5738,note_off,15,0,0,,10,,,45,127
5824,note_on,86,0,0,,7,,,67,127
5849,note_off,25,0,0,,12,,,71,127
5923,note_off,74,0,0,,7,,,43,127
5924,note_on,1,0,0,,7,,,55,127
5924,note_on,0,0,0,,6,,,66,127
5949,note_off,25,0,0,,7,,,67,127
6024,note_on,75,0,0,,7,,,67,127
6049,note_off,25,0,0,,6,,,66,127
6123,note_off,74,0,0,,7,,,55,127
6124,note_on,1,0,0,,6,,,54,127
6124,note_on,0,0,0,,0,,,72,127
6149,note_off,25,0,0,,7,,,67,127
6224,note_on,75,0,0,,10,,,69,127
6249,note_off,25,0,0,,0,,,72,127
6323,note_off,74,0,0,,6,,,54,127
6324,note_on,1,0,0,,7,,,55,127
6324,note_on,0,0,0,,12,,,71,127
6349,note_off,25,0,0,,10,,,69,127
6424,note_on,75,0,0,,7,,,67,127
6449,note_off,25,0,0,,12,,,71,127
6523,note_off,74,0,0,,7,,,55,127
6524,note_on,1,0,0,,2,,,50,127
6524,note_on,0,0,0,,10,,,69,127
6549,note_off,25,0,0,,7,,,67,127
6624,note_on,75,0,0,,6,,,66,127
6649,note_off,25,0,0,,10,,,69,127
6724,note_on,75,0,0,,7,,,67,127
6749,note_off,25,0,0,,6,,,66,127
6824,note_on,75,0,0,,4,,,64,127
6849,note_off,25,0,0,,7,,,67,127
6924,note_on,75,0,0,,6,,,66,127
6949,note_off,25,0,0,,4,,,64,127
7024,note_on,75,0,0,,2,,,62,127
7049,note_off,25,0,0,,6,,,66,127
7123,note_off,74,0,0,,2,,,50,127
7124,note_on,1,0,0,,10,,,45,127
7124,note_on,0,0,0,,4,,,64,127
7149,note_off,25,0,0,,2,,,62,127
7224,note_on,75,0,0,,1,,,61,127
7249,note_off,25,0,0,,4,,,64,127
7318,note_off,69,0,0,,1,,,61,127
7323,note_off,5,0,0,,10,,,45,127
7324,note_on,1,0,0,,2,,,50,127
7324,note_on,0,0,0,,2,,,74,127
7424,note_on,100,0,0,,6,,,66,127
7449,note_off,25,0,0,,2,,,74,127
7524,note_on,75,0,0,,7,,,67,127
7549,note_off,25,0,0,,6,,,66,127
7624,note_on,75,0,0,,4,,,64,127
7649,note_off,25,0,0,,7,,,67,127
7724,note_on,75,0,0,,6,,,66,127
7749,note_off,25,0,0,,4,,,64,127
7824,note_on,75,0,0,,2,,,62,127
7849,note_off,25,0,0,,6,,,66,127
7923,note_off,74,0,0,,2,,,50,127
7924,note_on,1,0,0,,10,,,45,127
7924,note_on,0,0,0,,4,,,64,127
7949,note_off,25,0,0,,2,,,62,127
8024,note_on,75,0,0,,1,,,61,127
8049,note_off,25,0,0,,4,,,64,127
8118,note_off,69,0,0,,1,,,61,127
8123,note_off,5,0,0,,10,,,45,127
8124,note_on,1,0,0,,2,,,50,127
8124,note_on,0,0,0,,2,,,74,127
8224,note_on,100,0,0,,6,,,66,127
8249,note_off,25,0,0,,2,,,74,127
8324,note_on,75,0,0,,7,,,67,127
8349,note_off,25,0,0,,6,,,66,127
8424,note_on,75,0,0,,4,,,64,127
8449,note_off,25,0,0,,7,,,67,127
8524,note_on,75,0,0,,6,,,66,127
8549,note_off,25,0,0,,4,,,64,127
8624,note_on,75,0,0,,2,,,62,127
8649,note_off,25,0,0,,6,,,66,127
8723,note_off,74,0,0,,2,,,50,127
8724,note_on,1,0,0,,10,,,45,127
8724,note_on,0,0,0,,4,,,64,127
8749,note_off,25,0,0,,2,,,62,127
8824,note_on,75,0,0,,1,,,61,127
8849,note_off,25,0,0,,4,,,64,127
8918,note_off,69,0,0,,1,,,61,127
8923,note_off,5,0,0,,10,,,45,127
8924,note_on,1,0,0,,2,,,50,127
8924,note_on,0,0,0,,5,,,77,127
9024,note_on,100,0,0,,2,,,74,127
9049,note_off,25,0,0,,5,,,77,127
9124,note_on,75,0,0,,4,,,76,127
9149,note_off,25,0,0,,2,,,74,127
9224,note_on,75,0,0,,1,,,73,127
9249,note_off,25,0,0,,4,,,76,127
9324,note_on,75,0,0,,2,,,74,127
9349,note_off,25,0,0,,1,,,73,127
9424,note_on,75,0,0,,10,,,69,127
9449,note_off,25,0,0,,2,,,74,127
9523,note_off,74,0,0,,2,,,50,127
9524,note_on,1,0,0,,11,,,70,127
9549,note_off,25,0,0,,10,,,69,127
9624,note_on,75,0,0,,10,,,69,127
9649,note_off,25,0,0,,11,,,70,127
9724,note_on,75,0,0,,7,,,55,127
9724,note_on,0,0,0,,2,,,50,127
9724,note_on,0,0,0,,11,,,58,127
9724,note_on,0,0,0,,5,,,77,127
9749,note_off,25,0,0,,10,,,69,127
9824,note_on,75,0,0,,2,,,74,127
9849,note_off,25,0,0,,5,,,77,127
9924,note_on,75,0,0,,4,,,76,127
9949,note_off,25,0,0,,2,,,74,127
10024,note_on,75,0,0,,1,,,73,127
10049,note_off,25,0,0,,4,,,76,127
10124,note_on,75,0,0,,2,,,74,127
10149,note_off,25,0,0,,1,,,73,127
10224,note_on,75,0,0,,10,,,69,127
10249,note_off,25,0,0,,2,,,74,127
10323,note_off,74,0,0,,11,,,58,127
10323,note_off,0,0,0,,2,,,50,127
10323,note_off,0,0,0,,7,,,55,127
10324,note_on,1,0,0,,11,,,70,127
10349,note_off,25,0,0,,10,,,69,127
10424,note_on,75,0,0,,7,,,67,127
10449,note_off,25,0,0,,11,,,70,127
10524,note_on,75,0,0,,2,,,50,127
10524,note_on,0,0,0,,2,,,62,127
10524,note_on,0,0,0,,10,,,57,127
10524,note_on,0,0,0,,7,,,55,127
10524,note_on,0,0,0,,5,,,77,127
10549,note_off,25,0,0,,7,,,67,127
10624,note_on,75,0,0,,2,,,74,127
10649,note_off,25,0,0,,5,,,77,127
10724,note_on,75,0,0,,4,,,76,127
10749,note_off,25,0,0,,2,,,74,127
10824,note_on,75,0,0,,1,,,73,127
10849,note_off,25,0,0,,4,,,76,127
10924,note_on,75,0,0,,2,,,74,127
10949,note_off,25,0,0,,1,,,73,127
11024,note_on,75,0,0,,10,,,69,127
11049,note_off,25,0,0,,2,,,74,127
11123,note_off,74,0,0,,7,,,55,127
11123,note_off,0,0,0,,10,,,57,127
11123,note_off,0,0,0,,2,,,62,127
11123,note_off,0,0,0,,2,,,50,127
11124,note_on,1,0,0,,2,,,50,127
11124,note_on,0,0,0,,11,,,70,127
11149,note_off,25,0,0,,10,,,69,127
11224,note_on,75,0,0,,7,,,67,127
11249,note_off,25,0,0,,11,,,70,127
11323,note_off,74,0,0,,2,,,50,127
11324,note_on,1,0,0,,7,,,43,127
11324,note_on,0,0,0,,7,,,55,127
11324,note_on,0,0,0,,11,,,82,127
11349,note_off,25,0,0,,7,,,67,127
11424,note_on,75,0,0,,7,,,79,127
11449,note_off,25,0,0,,11,,,82,127
11524,note_on,75,0,0,,10,,,81,127
11549,note_off,25,0,0,,7,,,79,127
11624,note_on,75,0,0,,5,,,77,127
11649,note_off,25,0,0,,10,,,81,127
11724,note_on,75,0,0,,7,,,79,127
11749,note_off,25,0,0,,5,,,77,127
11824,note_on,75,0,0,,4,,,76,127
11849,note_off,25,0,0,,7,,,79,127
11923,note_off,74,0,0,,7,,,55,127
11923,note_off,0,0,0,,7,,,43,127
11924,note_on,1,0,0,,7,,,43,127
11924,note_on,0,0,0,,7,,,55,127
11924,note_on,0,0,0,,5,,,77,127
11949,note_off,25,0,0,,4,,,76,127
12024,note_on,75,0,0,,2,,,74,127
12049,note_off,25,0,0,,5,,,77,127
12123,note_off,74,0,0,,7,,,55,127
12123,note_off,0,0,0,,7,,,43,127
12124,note_on,1,0,0,,10,,,45,127
12124,note_on,0,0,0,,10,,,57,127
12124,note_on,0,0,0,,1,,,73,127
12149,note_off,25,0,0,,2,,,74,127
12224,note_on,75,0,0,,4,,,76,127
12249,note_off,25,0,0,,1,,,73,127
12324,note_on,75,0,0,,2,,,74,127
12349,note_off,25,0,0,,4,,,76,127
12424,note_on,75,0,0,,5,,,77,127
12449,note_off,25,0,0,,2,,,74,127
12523,note_off,74,0,0,,10,,,57,127
12523,note_off,0,0,0,,10,,,45,127
12524,note_on,1,0,0,,4,,,52,127
12524,note_on,0,0,0,,4,,,76,127
12549,note_off,25,0,0,,5,,,77,127
12624,note_on,75,0,0,,1,,,49,127
12639,note_off,15,0,0,,4,,,52,127
12725,note_on,86,0,0,,2,,,50,127
12740,note_off,15,0,0,,1,,,49,127
12826,note_on,86,0,0,,12,,,47,127
12841,note_off,15,0,0,,2,,,50,127
12927,note_on,86,0,0,,1,,,49,127
12942,note_off,15,0,0,,12,,,47,127
13028,note_on,86,0,0,,10,,,45,127
13084,note_off,56,0,0,,1,,,49,127
13127,note_off,43,0,0,,4,,,76,127
13128,note_on,1,0,0,,2,,,50,127
13128,note_on,0,0,0,,5,,,77,127
13184,note_off,56,0,0,,10,,,45,127
13228,note_on,44,0,0,,10,,,45,127
13284,note_off,56,0,0,,2,,,50,127
13327,note_off,43,0,0,,5,,,77,127
13328,note_on,1,0,0,,4,,,52,127
13328,note_on,0,0,0,,7,,,79,127
13384,note_off,56,0,0,,10,,,45,127
13428,note_on,44,0,0,,10,,,45,127
13484,note_off,56,0,0,,4,,,52,127
13527,note_off,43,0,0,,7,,,79,127
13528,note_on,1,0,0,,5,,,53,127
13528,note_on,0,0,0,,10,,,81,127
13584,note_off,56,0,0,,10,,,45,127
13628,note_on,44,0,0,,10,,,45,127
13684,note_off,56,0,0,,5,,,53,127
13727,note_off,43,0,0,,10,,,81,127
13728,note_on,1,0,0,,7,,,55,127
13728,note_on,0,0,0,,1,,,73,127
13784,note_off,56,0,0,,10,,,45,127
13828,note_on,44,0,0,,10,,,45,127
13884,note_off,56,0,0,,7,,,55,127
13927,note_off,43,0,0,,1,,,73,127
13928,note_on,1,0,0,,5,,,53,127
13928,note_on,0,0,0,,2,,,74,127
13984,note_off,56,0,0,,10,,,45,127
14028,note_on,44,0,0,,10,,,45,127
14084,note_off,56,0,0,,5,,,53,127
14127,note_off,43,0,0,,2,,,74,127
14128,note_on,1,0,0,,4,,,52,127
14128,note_on,0,0,0,,7,,,79,127
14184,note_off,56,0,0,,10,,,45,127
14228,note_on,44,0,0,,10,,,45,127
14284,note_off,56,0,0,,4,,,52,127
14327,note_off,43,0,0,,7,,,79,127
14328,note_on,1,0,0,,2,,,50,127
14328,note_on,0,0,0,,10,,,81,127
14384,note_off,56,0,0,,10,,,45,127
14428,note_on,44,0,0,,10,,,45,127
14484,note_off,56,0,0,,2,,,50,127
14528,note_on,44,0,0,,7,,,55,127
14584,note_off,56,0,0,,10,,,45,127
14628,note_on,44,0,0,,10,,,45,127
14672,note_off,44,0,0,,10,,,81,127
14685,note_off,13,0,0,,7,,,55,127
14729,note_on,44,0,0,,5,,,53,127
14729,note_on,0,0,0,,5,,,77,127
14785,note_off,56,0,0,,10,,,45,127
14829,note_on,44,0,0,,10,,,45,127
14885,note_off,56,0,0,,5,,,53,127
14928,note_off,43,0,0,,5,,,77,127
14929,note_on,1,0,0,,4,,,52,127
14929,note_on,0,0,0,,7,,,79,127
14985,note_off,56,0,0,,10,,,45,127
15029,note_on,44,0,0,,10,,,45,127
15085,note_off,56,0,0,,4,,,52,127
15128,note_off,43,0,0,,7,,,79,127
15129,note_on,1,0,0,,2,,,50,127
15129,note_on,0,0,0,,10,,,81,127
15185,note_off,56,0,0,,10,,,45,127
15229,note_on,44,0,0,,10,,,45,127
15285,note_off,56,0,0,,2,,,50,127
15328,note_off,43,0,0,,10,,,81,127
15329,note_on,1,0,0,,7,,,55,127
15329,note_on,0,0,0,,4,,,76,127
15329,note_on,0,0,0,,1,,,73,127
15385,note_off,56,0,0,,10,,,45,127
15429,note_on,44,0,0,,10,,,45,127
15485,note_off,56,0,0,,7,,,55,127
15528,note_off,43,0,0,,1,,,73,127
15528,note_off,0,0,0,,4,,,76,127
15529,note_on,1,0,0,,6,,,54,127
15529,note_on,0,0,0,,6,,,78,127
15529,note_on,0,0,0,,2,,,74,127
15585,note_off,56,0,0,,10,,,45,127
15629,note_on,44,0,0,,10,,,45,127
15685,note_off,56,0,0,,6,,,54,127
15728,note_off,43,0,0,,2,,,74,127
15728,note_off,0,0,0,,6,,,78,127
15729,note_on,1,0,0,,4,,,52,127
15729,note_on,0,0,0,,7,,,79,127
15729,note_on,0,0,0,,4,,,76,127
15785,note_off,56,0,0,,10,,,45,127
15829,note_on,44,0,0,,10,,,45,127
15885,note_off,56,0,0,,4,,,52,127
15928,note_off,43,0,0,,4,,,76,127
15928,note_off,0,0,0,,7,,,79,127
15929,note_on,1,0,0,,2,,,50,127
15929,note_on,0,0,0,,10,,,81,127
15929,note_on,0,0,0,,6,,,78,127
15985,note_off,56,0,0,,10,,,45,127
16029,note_on,44,0,0,,10,,,45,127
16085,note_off,56,0,0,,2,,,50,127
16128,note_off,43,0,0,,6,,,78,127
16128,note_off,0,0,0,,10,,,81,127
16129,note_on,1,0,0,,1,,,49,127
16129,note_on,0,0,0,,7,,,79,127
16129,note_on,0,0,0,,4,,,76,127
16185,note_off,56,0,0,,10,,,45,127
16229,note_on,44,0,0,,4,,,52,127
16285,note_off,56,0,0,,1,,,49,127
16329,note_on,44,0,0,,12,,,47,127
16385,note_off,56,0,0,,4,,,52,127
16429,note_on,44,0,0,,4,,,52,127
16485,note_off,56,0,0,,12,,,47,127
16529,note_on,44,0,0,,10,,,45,127
16585,note_off,56,0,0,,4,,,52,127
16629,note_on,44,0,0,,4,,,52,127
16685,note_off,56,0,0,,10,,,45,127
16702,note_off,17,0,0,,4,,,76,127
16702,note_off,0,0,0,,7,,,79,127
16729,note_on,27,0,0,,7,,,43,127
16729,note_on,0,0,0,,4,,,76,127
16785,note_off,56,0,0,,4,,,52,127
16829,note_on,44,0,0,,4,,,52,127
16885,note_off,56,0,0,,7,,,43,127
16928,note_off,43,0,0,,4,,,52,127
16928,note_off,0,0,0,,4,,,76,127
16929,note_on,1,0,0,,6,,,54,127
16929,note_on,0,0,0,,10,,,81,127
17029,note_on,100,0,0,,6,,,78,127
17054,note_off,25,0,0,,10,,,81,127
17128,note_off,74,0,0,,6,,,54,127
17129,note_on,1,0,0,,7,,,55,127
17129,note_on,0,0,0,,7,,,79,127
17154,note_off,25,0,0,,6,,,78,127
17229,note_on,75,0,0,,4,,,76,127
17254,note_off,25,0,0,,7,,,79,127
17328,note_off,74,0,0,,7,,,55,127
17329,note_on,1,0,0,,10,,,57,127
17329,note_on,0,0,0,,6,,,78,127
17354,note_off,25,0,0,,4,,,76,127
17429,note_on,75,0,0,,2,,,74,127
17454,note_off,25,0,0,,6,,,78,127
17529,note_on,75,0,0,,10,,,45,127
17529,note_on,0,0,0,,4,,,76,127
17554,note_off,25,0,0,,2,,,74,127
17629,note_on,75,0,0,,1,,,73,127
17654,note_off,25,0,0,,4,,,76,127
17728,note_off,74,0,0,,10,,,45,127
17728,note_off,0,0,0,,10,,,57,127
17729,note_on,1,0,0,,2,,,50,127
17729,note_on,0,0,0,,2,,,74,127
17754,note_off,25,0,0,,1,,,73,127
17829,note_on,75,0,0,,6,,,66,127
17854,note_off,25,0,0,,2,,,74,127
17929,note_on,75,0,0,,7,,,67,127
17954,note_off,25,0,0,,6,,,66,127
18029,note_on,75,0,0,,4,,,64,127
18054,note_off,25,0,0,,7,,,67,127
18129,note_on,75,0,0,,6,,,66,127
18154,note_off,25,0,0,,4,,,64,127
18229,note_on,75,0,0,,2,,,62,127
18254,note_off,25,0,0,,6,,,66,127
18328,note_off,74,0,0,,2,,,50,127
18329,note_on,1,0,0,,10,,,45,127
18329,note_on,0,0,0,,4,,,64,127
18354,note_off,25,0,0,,2,,,62,127
18429,note_on,75,0,0,,1,,,61,127
18454,note_off,25,0,0,,4,,,64,127
18523,note_off,69,0,0,,1,,,61,127
18528,note_off,5,0,0,,10,,,45,127
18529,note_on,1,0,0,,2,,,50,127
18529,note_on,0,0,0,,2,,,74,127
18629,note_on,100,0,0,,6,,,66,127
18654,note_off,25,0,0,,2,,,74,127
18729,note_on,75,0,0,,7,,,67,127
18754,note_off,25,0,0,,6,,,66,127
18829,note_on,75,0,0,,4,,,64,127
18854,note_off,25,0,0,,7,,,67,127
18929,note_on,75,0,0,,6,,,66,127
18954,note_off,25,0,0,,4,,,64,127
19029,note_on,75,0,0,,2,,,62,127
19054,note_off,25,0,0,,6,,,66,127
19128,note_off,74,0,0,,2,,,50,127
19129,note_on,1,0,0,,10,,,45,127
19129,note_on,0,0,0,,4,,,64,127
19154,note_off,25,0,0,,2,,,62,127
19229,note_on,75,0,0,,1,,,61,127
19254,note_off,25,0,0,,4,,,64,127
19323,note_off,69,0,0,,1,,,61,127
19328,note_off,5,0,0,,10,,,45,127
19329,note_on,1,0,0,,2,,,50,127
19329,note_on,0,0,0,,2,,,74,127
19429,note_on,100,0,0,,6,,,66,127
19454,note_off,25,0,0,,2,,,74,127
19528,note_off,74,0,0,,2,,,50,127
19529,note_on,1,0,0,,7,,,55,127
19529,note_on,0,0,0,,7,,,67,127
19554,note_off,25,0,0,,6,,,66,127
19629,note_on,75,0,0,,4,,,64,127
19654,note_off,25,0,0,,7,,,67,127
19728,note_off,74,0,0,,7,,,55,127
19729,note_on,1,0,0,,10,,,57,127
19729,note_on,0,0,0,,6,,,66,127
19754,note_off,25,0,0,,4,,,64,127
19829,note_on,75,0,0,,2,,,74,127
19854,note_off,25,0,0,,6,,,66,127
19929,note_on,75,0,0,,10,,,45,127
19929,note_on,0,0,0,,4,,,64,127
19954,note_off,25,0,0,,2,,,74,127
20029,note_on,75,0,0,,1,,,73,127
20054,note_off,25,0,0,,4,,,64,127
20128,note_off,74,0,0,,10,,,45,127
20128,note_off,0,0,0,,10,,,57,127
20129,note_on,1,0,0,,2,,,50,127
20129,note_on,0,0,0,,2,,,74,127
20154,note_off,25,0,0,,1,,,73,127
20229,note_on,75,0,0,,10,,,69,127
20254,note_off,25,0,0,,2,,,74,127
20329,note_on,75,0,0,,6,,,66,127
20354,note_off,25,0,0,,10,,,69,127
20429,note_on,75,0,0,,10,,,69,127
20454,note_off,25,0,0,,6,,,66,127
20529,note_on,75,0,0,,2,,,74,127
20554,note_off,25,0,0,,10,,,69,127
20629,note_on,75,0,0,,6,,,78,127
20654,note_off,25,0,0,,2,,,74,127
20728,note_off,74,0,0,,2,,,50,127
20729,note_on,1,0,0,,10,,,69,127
20754,note_off,25,0,0,,6,,,78,127
20829,note_on,75,0,0,,2,,,74,127
20854,note_off,25,0,0,,10,,,69,127
20929,note_on,75,0,0,,6,,,66,127
20954,note_off,25,0,0,,2,,,74,127
21029,note_on,75,0,0,,10,,,69,127
21054,note_off,25,0,0,,6,,,66,127
21129,note_on,75,0,0,,2,,,62,127
21154,note_off,25,0,0,,10,,,69,127
21229,note_on,75,0,0,,6,,,66,127
21254,note_off,25,0,0,,2,,,62,127
21329,note_on,75,0,0,,10,,,45,127
21354,note_off,25,0,0,,6,,,66,127
21429,note_on,75,0,0,,2,,,50,127
21444,note_off,15,0,0,,10,,,45,127
21530,note_on,86,0,0,,6,,,42,127
21545,note_off,15,0,0,,2,,,50,127
21631,note_on,86,0,0,,10,,,45,127
21646,note_off,15,0,0,,6,,,42,127
21732,note_on,86,0,0,,2,,,38,127
21747,note_off,15,0,0,,10,,,45,127
22533,note_off,786,0,0,,2,,,38,127
22534,note_on,1,0,0,,2,,,50,127
22734,note_on,200,0,0,,2,,,62,127
22933,note_off,199,0,0,,2,,,62,127
22934,note_on,1,0,0,,6,,,66,127
23133,note_off,199,0,0,,6,,,66,127
23134,note_on,1,0,0,,10,,,69,127
23333,note_off,199,0,0,,10,,,69,127
23334,note_on,1,0,0,,2,,,74,127
23434,note_on,100,0,0,,4,,,76,127
23459,note_off,25,0,0,,2,,,74,127
23533,note_off,74,0,0,,2,,,50,127
23534,note_on,1,0,0,,2,,,50,127
23534,note_on,0,0,0,,6,,,78,127
23559,note_off,25,0,0,,4,,,76,127
23634,note_on,75,0,0,,7,,,79,127
23659,note_off,25,0,0,,6,,,78,127
23733,note_off,74,0,0,,2,,,50,127
23734,note_on,1,0,0,,6,,,54,127
23734,note_on,0,0,0,,6,,,78,127
23759,note_off,25,0,0,,7,,,79,127
23834,note_on,75,0,0,,4,,,76,127
23859,note_off,25,0,0,,6,,,78,127
23933,note_off,74,0,0,,6,,,54,127
23934,note_on,1,0,0,,10,,,57,127
23934,note_on,0,0,0,,2,,,74,127
23959,note_off,25,0,0,,4,,,76,127
24034,note_on,75,0,0,,1,,,73,127
24059,note_off,25,0,0,,2,,,74,127
24133,note_off,74,0,0,,10,,,57,127
24134,note_on,1,0,0,,2,,,62,127
24134,note_on,0,0,0,,2,,,74,127
24159,note_off,25,0,0,,1,,,73,127
24234,note_on,75,0,0,,4,,,64,127
24249,note_off,15,0,0,,2,,,62,127
24335,note_on,86,0,0,,6,,,66,127
24350,note_off,15,0,0,,4,,,64,127
24436,note_on,86,0,0,,7,,,67,127
24451,note_off,15,0,0,,6,,,66,127
24537,note_on,86,0,0,,6,,,66,127
24552,note_off,15,0,0,,7,,,67,127
24638,note_on,86,0,0,,4,,,64,127
24653,note_off,15,0,0,,6,,,66,127
24691,note_off,38,0,0,,2,,,74,127
24739,note_on,48,0,0,,2,,,62,127
24739,note_on,0,0,0,,4,,,76,127
24754,note_off,15,0,0,,4,,,64,127
24840,note_on,86,0,0,,1,,,61,127
24855,note_off,15,0,0,,2,,,62,127
24940,note_off,85,0,0,,4,,,76,127
24941,note_on,1,0,0,,2,,,62,127
24941,note_on,0,0,0,,6,,,78,127
24956,note_off,15,0,0,,1,,,61,127
25042,note_on,86,0,0,,7,,,79,127
25067,note_off,25,0,0,,6,,,78,127
25142,note_on,75,0,0,,10,,,81,127
25167,note_off,25,0,0,,7,,,79,127
25242,note_on,75,0,0,,12,,,83,127
25267,note_off,25,0,0,,10,,,81,127
25342,note_on,75,0,0,,10,,,81,127
25367,note_off,25,0,0,,12,,,83,127
25442,note_on,75,0,0,,7,,,79,127
25467,note_off,25,0,0,,10,,,81,127
25541,note_off,74,0,0,,2,,,62,127
25542,note_on,1,0,0,,4,,,64,127
25542,note_on,0,0,0,,6,,,78,127
25567,note_off,25,0,0,,7,,,79,127
25642,note_on,75,0,0,,4,,,76,127
25667,note_off,25,0,0,,6,,,78,127
25741,note_off,74,0,0,,4,,,64,127
25742,note_on,1,0,0,,6,,,54,127
25742,note_on,0,0,0,,2,,,74,127
25767,note_off,25,0,0,,4,,,76,127
25842,note_on,75,0,0,,7,,,55,127
25857,note_off,15,0,0,,6,,,54,127
25943,note_on,86,0,0,,10,,,57,127
25958,note_off,15,0,0,,7,,,55,127
26044,note_on,86,0,0,,12,,,59,127
26059,note_off,15,0,0,,10,,,57,127
26145,note_on,86,0,0,,10,,,57,127
26160,note_off,15,0,0,,12,,,59,127
26246,note_on,86,0,0,,7,,,55,127
26261,note_off,15,0,0,,10,,,57,127
26299,note_off,38,0,0,,2,,,74,127
26347,note_on,48,0,0,,6,,,54,127
26347,note_on,0,0,0,,4,,,76,127
26362,note_off,15,0,0,,7,,,55,127
26448,note_on,86,0,0,,4,,,52,127
26463,note_off,15,0,0,,6,,,54,127
26548,note_off,85,0,0,,4,,,76,127
26549,note_on,1,0,0,,2,,,50,127
26549,note_on,0,0,0,,6,,,78,127
26564,note_off,15,0,0,,4,,,52,127
26650,note_on,86,0,0,,2,,,74,127
26675,note_off,25,0,0,,6,,,78,127
26749,note_off,74,0,0,,2,,,50,127
26750,note_on,1,0,0,,4,,,52,127
26750,note_on,0,0,0,,8,,,80,127
26775,note_off,25,0,0,,2,,,74,127
26850,note_on,75,0,0,,4,,,76,127
26875,note_off,25,0,0,,8,,,80,127
26949,note_off,74,0,0,,4,,,52,127
26950,note_on,1,0,0,,6,,,54,127
26950,note_on,0,0,0,,10,,,81,127
26975,note_off,25,0,0,,4,,,76,127
27050,note_on,75,0,0,,6,,,78,127
27075,note_off,25,0,0,,10,,,81,127
27149,note_off,74,0,0,,6,,,54,127
27150,note_on,1,0,0,,8,,,56,127
27150,note_on,0,0,0,,12,,,83,127
27175,note_off,25,0,0,,6,,,78,127
27250,note_on,75,0,0,,8,,,80,127
27275,note_off,25,0,0,,12,,,83,127
27346,note_off,71,0,0,,8,,,80,127
27349,note_off,3,0,0,,8,,,56,127
27350,note_on,1,0,0,,10,,,57,127
27350,note_on,0,0,0,,0,,,84,127
27450,note_on,100,0,0,,4,,,76,127
27475,note_off,25,0,0,,0,,,84,127
27550,note_on,75,0,0,,5,,,77,127
27575,note_off,25,0,0,,4,,,76,127
27650,note_on,75,0,0,,2,,,74,127
27675,note_off,25,0,0,,5,,,77,127
27750,note_on,75,0,0,,4,,,76,127
27775,note_off,25,0,0,,2,,,74,127
27850,note_on,75,0,0,,0,,,72,127
27875,note_off,25,0,0,,4,,,76,127
27949,note_off,74,0,0,,10,,,57,127
27950,note_on,1,0,0,,8,,,56,127
27950,note_on,0,0,0,,2,,,74,127
27975,note_off,25,0,0,,0,,,72,127
28050,note_on,75,0,0,,12,,,71,127
28075,note_off,25,0,0,,2,,,74,127
28144,note_off,69,0,0,,12,,,71,127
28149,note_off,5,0,0,,8,,,56,127
28150,note_on,1,0,0,,10,,,57,127
28150,note_on,0,0,0,,0,,,84,127
28250,note_on,100,0,0,,4,,,76,127
28275,note_off,25,0,0,,0,,,84,127
28350,note_on,75,0,0,,5,,,77,127
28375,note_off,25,0,0,,4,,,76,127
28450,note_on,75,0,0,,2,,,74,127
28475,note_off,25,0,0,,5,,,77,127
28550,note_on,75,0,0,,4,,,76,127
28575,note_off,25,0,0,,2,,,74,127
28650,note_on,75,0,0,,0,,,72,127
28675,note_off,25,0,0,,4,,,76,127
28749,note_off,74,0,0,,10,,,57,127
28750,note_on,1,0,0,,8,,,56,127
28750,note_on,0,0,0,,2,,,74,127
28775,note_off,25,0,0,,0,,,72,127
28850,note_on,75,0,0,,12,,,71,127
28875,note_off,25,0,0,,2,,,74,127
28949,note_off,74,0,0,,8,,,56,127
28950,note_on,1,0,0,,10,,,57,127
28950,note_on,0,0,0,,0,,,84,127
28975,note_off,25,0,0,,12,,,71,127
29050,note_on,75,0,0,,4,,,76,127
29075,note_off,25,0,0,,0,,,84,127
29150,note_on,75,0,0,,5,,,77,127
29175,note_off,25,0,0,,4,,,76,127
29250,note_on,75,0,0,,2,,,74,127
29275,note_off,25,0,0,,5,,,77,127
29350,note_on,75,0,0,,4,,,76,127
29375,note_off,25,0,0,,2,,,74,127
29450,note_on,75,0,0,,0,,,72,127
29475,note_off,25,0,0,,4,,,76,127
29549,note_off,74,0,0,,10,,,57,127
29550,note_on,1,0,0,,8,,,56,127
29550,note_on,0,0,0,,2,,,74,127
29575,note_off,25,0,0,,0,,,72,127
29650,note_on,75,0,0,,12,,,71,127
29675,note_off,25,0,0,,2,,,74,127
29744,note_off,69,0,0,,12,,,71,127
29749,note_off,5,0,0,,8,,,56,127
29750,note_on,1,0,0,,10,,,57,127
29750,note_on,0,0,0,,0,,,84,127
29850,note_on,100,0,0,,4,,,76,127
29875,note_off,25,0,0,,0,,,84,127
29949,note_off,74,0,0,,10,,,57,127
29950,note_on,1,0,0,,2,,,50,127
29950,note_on,0,0,0,,2,,,74,127
29975,note_off,25,0,0,,4,,,76,127
30050,note_on,75,0,0,,12,,,83,127
30075,note_off,25,0,0,,2,,,74,127
30149,note_off,74,0,0,,2,,,50,127
30150,note_on,1,0,0,,4,,,52,127
30150,note_on,0,0,0,,0,,,72,127
30175,note_off,25,0,0,,12,,,83,127
30250,note_on,75,0,0,,10,,,81,127
30275,note_off,25,0,0,,0,,,72,127
30350,note_on,75,0,0,,4,,,40,127
30350,note_on,0,0,0,,12,,,71,127
30375,note_off,25,0,0,,10,,,81,127
30450,note_on,75,0,0,,8,,,80,127
30475,note_off,25,0,0,,12,,,71,127
30549,note_off,74,0,0,,4,,,40,127
30549,note_off,0,0,0,,4,,,52,127
30550,note_on,1,0,0,,10,,,45,127
30550,note_on,0,0,0,,10,,,81,127
30575,note_off,25,0,0,,8,,,80,127
30650,note_on,75,0,0,,6,,,78,127
30675,note_off,25,0,0,,10,,,81,127
30750,note_on,75,0,0,,7,,,79,127
30775,note_off,25,0,0,,6,,,78,127
30850,note_on,75,0,0,,4,,,76,127
30875,note_off,25,0,0,,7,,,79,127
30950,note_on,75,0,0,,6,,,78,127
30975,note_off,25,0,0,,4,,,76,127
31050,note_on,75,0,0,,2,,,74,127
31075,note_off,25,0,0,,6,,,78,127
31149,note_off,74,0,0,,10,,,45,127
31150,note_on,1,0,0,,7,,,55,127
31150,note_on,0,0,0,,4,,,76,127
31175,note_off,25,0,0,,2,,,74,127
31250,note_on,75,0,0,,1,,,73,127
31275,note_off,25,0,0,,4,,,76,127
31349,note_off,74,0,0,,7,,,55,127
31350,note_on,1,0,0,,6,,,54,127
31350,note_on,0,0,0,,2,,,74,127
31375,note_off,25,0,0,,1,,,73,127
31450,note_on,75,0,0,,6,,,66,127
31475,note_off,25,0,0,,2,,,74,127
31549,note_off,74,0,0,,6,,,54,127
31550,note_on,1,0,0,,7,,,55,127
31550,note_on,0,0,0,,7,,,67,127
31575,note_off,25,0,0,,6,,,66,127
31650,note_on,75,0,0,,4,,,64,127
31675,note_off,25,0,0,,7,,,67,127
31749,note_off,74,0,0,,7,,,55,127
31750,note_on,1,0,0,,10,,,57,127
31750,note_on,0,0,0,,6,,,66,127
31775,note_off,25,0,0,,4,,,64,127
31850,note_on,75,0,0,,2,,,62,127
31875,note_off,25,0,0,,6,,,66,127
31949,note_off,74,0,0,,10,,,57,127
31950,note_on,1,0,0,,7,,,55,127
31950,note_on,0,0,0,,4,,,64,127
31975,note_off,25,0,0,,2,,,62,127
32050,note_on,75,0,0,,1,,,61,127
32075,note_off,25,0,0,,4,,,64,127
32149,note_off,74,0,0,,7,,,55,127
32150,note_on,1,0,0,,6,,,54,127
32150,note_on,0,0,0,,2,,,62,127
32175,note_off,25,0,0,,1,,,61,127
32250,note_on,75,0,0,,2,,,50,127
32306,note_off,56,0,0,,6,,,54,127
32350,note_on,44,0,0,,7,,,55,127
32406,note_off,56,0,0,,2,,,50,127
32450,note_on,44,0,0,,2,,,50,127
32506,note_off,56,0,0,,7,,,55,127
32550,note_on,44,0,0,,10,,,57,127
32606,note_off,56,0,0,,2,,,50,127
32650,note_on,44,0,0,,2,,,50,127
32706,note_off,56,0,0,,10,,,57,127
32749,note_off,43,0,0,,2,,,62,127
32750,note_on,1,0,0,,12,,,59,127
32750,note_on,0,0,0,,7,,,67,127
32806,note_off,56,0,0,,2,,,50,127
32850,note_on,44,0,0,,2,,,50,127
32906,note_off,56,0,0,,12,,,59,127
32949,note_off,43,0,0,,7,,,67,127
32950,note_on,1,0,0,,0,,,60,127
32950,note_on,0,0,0,,6,,,66,127
33006,note_off,56,0,0,,2,,,50,127
33050,note_on,44,0,0,,2,,,50,127
33106,note_off,56,0,0,,0,,,60,127
33149,note_off,43,0,0,,6,,,66,127
33150,note_on,1,0,0,,12,,,59,127
33150,note_on,0,0,0,,7,,,67,127
33206,note_off,56,0,0,,2,,,50,127
33250,note_on,44,0,0,,2,,,50,127
33306,note_off,56,0,0,,12,,,59,127
33349,note_off,43,0,0,,7,,,67,127
33350,note_on,1,0,0,,10,,,57,127
33350,note_on,0,0,0,,10,,,69,127
33406,note_off,56,0,0,,2,,,50,127
33450,note_on,44,0,0,,2,,,50,127
33506,note_off,56,0,0,,10,,,57,127
33549,note_off,43,0,0,,10,,,69,127
33550,note_on,1,0,0,,7,,,55,127
33550,note_on,0,0,0,,12,,,71,127
33606,note_off,56,0,0,,2,,,50,127
33650,note_on,44,0,0,,2,,,50,127
33706,note_off,56,0,0,,7,,,55,127
33749,note_off,43,0,0,,12,,,71,127
33750,note_on,1,0,0,,0,,,60,127
33750,note_on,0,0,0,,10,,,69,127
33750,note_on,0,0,0,,6,,,78,127
33806,note_off,56,0,0,,2,,,50,127
33850,note_on,44,0,0,,2,,,50,127
33906,note_off,56,0,0,,0,,,60,127
33949,note_off,43,0,0,,6,,,78,127
33949,note_off,0,0,0,,10,,,69,127
33950,note_on,1,0,0,,12,,,59,127
33950,note_on,0,0,0,,7,,,79,127
33950,note_on,0,0,0,,12,,,71,127
34006,note_off,56,0,0,,2,,,50,127
34050,note_on,44,0,0,,2,,,50,127
34106,note_off,56,0,0,,12,,,59,127
34149,note_off,43,0,0,,12,,,71,127
34149,note_off,0,0,0,,7,,,79,127
34150,note_on,1,0,0,,10,,,57,127
34150,note_on,0,0,0,,10,,,81,127
34150,note_on,0,0,0,,0,,,72,127
34206,note_off,56,0,0,,2,,,50,127
34250,note_on,44,0,0,,2,,,50,127
34306,note_off,56,0,0,,10,,,57,127
34349,note_off,43,0,0,,0,,,72,127
34349,note_off,0,0,0,,10,,,81,127
34350,note_on,1,0,0,,7,,,55,127
34350,note_on,0,0,0,,12,,,83,127
34350,note_on,0,0,0,,2,,,74,127
34406,note_off,56,0,0,,2,,,50,127
34450,note_on,44,0,0,,2,,,50,127
34506,note_off,56,0,0,,7,,,55,127
34549,note_off,43,0,0,,2,,,74,127
34549,note_off,0,0,0,,12,,,83,127
34550,note_on,1,0,0,,0,,,60,127
34550,note_on,0,0,0,,6,,,78,127
34550,note_on,0,0,0,,10,,,69,127
34606,note_off,56,0,0,,2,,,50,127
34650,note_on,44,0,0,,2,,,50,127
34706,note_off,56,0,0,,0,,,60,127
34749,note_off,43,0,0,,10,,,69,127
34749,note_off,0,0,0,,6,,,78,127
34750,note_on,1,0,0,,12,,,59,127
34750,note_on,0,0,0,,7,,,79,127
34750,note_on,0,0,0,,12,,,71,127
34806,note_off,56,0,0,,2,,,50,127
34850,note_on,44,0,0,,2,,,50,127
34906,note_off,56,0,0,,12,,,59,127
34949,note_off,43,0,0,,12,,,71,127
34949,note_off,0,0,0,,7,,,79,127
34950,note_on,1,0,0,,10,,,57,127
34950,note_on,0,0,0,,10,,,81,127
34950,note_on,0,0,0,,0,,,72,127
35006,note_off,56,0,0,,2,,,50,127
35050,note_on,44,0,0,,2,,,50,127
35106,note_off,56,0,0,,10,,,57,127
35149,note_off,43,0,0,,0,,,72,127
35149,note_off,0,0,0,,10,,,81,127
35150,note_on,1,0,0,,7,,,55,127
35150,note_on,0,0,0,,12,,,83,127
35150,note_on,0,0,0,,2,,,74,127
35206,note_off,56,0,0,,2,,,50,127
35250,note_on,44,0,0,,2,,,50,127
35306,note_off,56,0,0,,7,,,55,127
35349,note_off,43,0,0,,2,,,74,127
35349,note_off,0,0,0,,12,,,83,127
35350,note_on,1,0,0,,6,,,54,127
35350,note_on,0,0,0,,10,,,81,127
35350,note_on,0,0,0,,2,,,74,127
35350,note_on,0,0,0,,0,,,84,127
35406,note_off,56,0,0,,2,,,50,127
35450,note_on,44,0,0,,2,,,50,127
35506,note_off,56,0,0,,6,,,54,127
35550,note_on,44,0,0,,6,,,54,127
35606,note_off,56,0,0,,2,,,50,127
35649,note_off,43,0,0,,0,,,84,127
35649,note_off,0,0,0,,2,,,74,127
35649,note_off,0,0,0,,10,,,81,127
35650,note_on,1,0,0,,2,,,50,127
35650,note_on,0,0,0,,2,,,74,127
35650,note_on,0,0,0,,0,,,84,127
35650,note_on,0,0,0,,10,,,81,127
35706,note_off,56,0,0,,6,,,54,127
35748,note_off,42,0,0,,10,,,81,127
35748,note_off,0,0,0,,0,,,84,127
35748,note_off,0,0,0,,2,,,74,127
35750,note_on,2,0,0,,7,,,55,127
35750,note_on,0,0,0,,7,,,79,127
35750,note_on,0,0,0,,2,,,74,127
35750,note_on,0,0,0,,12,,,83,127
35806,note_off,56,0,0,,2,,,50,127
35850,note_on,44,0,0,,7,,,43,127
35906,note_off,56,0,0,,7,,,55,127
35950,note_on,44,0,0,,12,,,47,127
36006,note_off,56,0,0,,7,,,43,127
36049,note_off,43,0,0,,12,,,83,127
36049,note_off,0,0,0,,2,,,74,127
36049,note_off,0,0,0,,7,,,79,127
36050,note_on,1,0,0,,7,,,43,127
36050,note_on,0,0,0,,7,,,79,127
36050,note_on,0,0,0,,2,,,74,127
36050,note_on,0,0,0,,12,,,83,127
36106,note_off,56,0,0,,12,,,47,127
36148,note_off,42,0,0,,12,,,83,127
36148,note_off,0,0,0,,2,,,74,127
36148,note_off,0,0,0,,7,,,79,127
36149,note_off,1,0,0,,7,,,43,127
36150,note_on,1,0,0,,2,,,50,127
36150,note_on,0,0,0,,10,,,81,127
36250,note_on,100,0,0,,6,,,78,127
36275,note_off,25,0,0,,10,,,81,127
36350,note_on,75,0,0,,7,,,79,127
36375,note_off,25,0,0,,6,,,78,127
36450,note_on,75,0,0,,4,,,76,127
36475,note_off,25,0,0,,7,,,79,127
36550,note_on,75,0,0,,6,,,78,127
36575,note_off,25,0,0,,4,,,76,127
36650,note_on,75,0,0,,2,,,74,127
36675,note_off,25,0,0,,6,,,78,127
36749,note_off,74,0,0,,2,,,50,127
36750,note_on,1,0,0,,6,,,54,127
36750,note_on,0,0,0,,0,,,84,127
36775,note_off,25,0,0,,2,,,74,127
36850,note_on,75,0,0,,10,,,81,127
36875,note_off,25,0,0,,0,,,84,127
36949,note_off,74,0,0,,6,,,54,127
36950,note_on,1,0,0,,7,,,55,127
36950,note_on,0,0,0,,11,,,82,127
36975,note_off,25,0,0,,10,,,81,127
37050,note_on,75,0,0,,6,,,78,127
37075,note_off,25,0,0,,11,,,82,127
37150,note_on,75,0,0,,7,,,79,127
37175,note_off,25,0,0,,6,,,78,127
37250,note_on,75,0,0,,2,,,74,127
37275,note_off,25,0,0,,7,,,79,127
37350,note_on,75,0,0,,3,,,75,127
37375,note_off,25,0,0,,2,,,74,127
37450,note_on,75,0,0,,0,,,72,127
37475,note_off,25,0,0,,3,,,75,127
37549,note_off,74,0,0,,7,,,55,127
37550,note_on,1,0,0,,6,,,54,127
37550,note_on,0,0,0,,0,,,84,127
37575,note_off,25,0,0,,0,,,72,127
37650,note_on,75,0,0,,10,,,81,127
37675,note_off,25,0,0,,0,,,84,127
37749,note_off,74,0,0,,6,,,54,127
37750,note_on,1,0,0,,7,,,55,127
37750,note_on,0,0,0,,11,,,82,127
37775,note_off,25,0,0,,10,,,81,127
37850,note_on,75,0,0,,6,,,78,127
37875,note_off,25,0,0,,11,,,82,127
37950,note_on,75,0,0,,7,,,79,127
37975,note_off,25,0,0,,6,,,78,127
38050,note_on,75,0,0,,2,,,74,127
38075,note_off,25,0,0,,7,,,79,127
38150,note_on,75,0,0,,3,,,75,127
38175,note_off,25,0,0,,2,,,74,127
38250,note_on,75,0,0,,0,,,72,127
38275,note_off,25,0,0,,3,,,75,127
38349,note_off,74,0,0,,7,,,55,127
38350,note_on,1,0,0,,6,,,54,127
38350,note_on,0,0,0,,0,,,84,127
38375,note_off,25,0,0,,0,,,72,127
38450,note_on,75,0,0,,10,,,81,127
38475,note_off,25,0,0,,0,,,84,127
38549,note_off,74,0,0,,6,,,54,127
38550,note_on,1,0,0,,7,,,43,127
38550,note_on,0,0,0,,11,,,82,127
38575,note_off,25,0,0,,10,,,81,127
38650,note_on,75,0,0,,7,,,79,127
38675,note_off,25,0,0,,11,,,82,127
38749,note_off,74,0,0,,7,,,43,127
38750,note_on,1,0,0,,10,,,45,127
38750,note_on,0,0,0,,10,,,81,127
38775,note_off,25,0,0,,7,,,79,127
38850,note_on,75,0,0,,6,,,78,127
38875,note_off,25,0,0,,10,,,81,127
38949,note_off,74,0,0,,10,,,45,127
38950,note_on,1,0,0,,12,,,47,127
38950,note_on,0,0,0,,7,,,79,127
38975,note_off,25,0,0,,6,,,78,127
39050,note_on,75,0,0,,2,,,74,127
39075,note_off,25,0,0,,7,,,79,127
39149,note_off,74,0,0,,12,,,47,127
39150,note_on,1,0,0,,0,,,48,127
39150,note_on,0,0,0,,4,,,76,127
39175,note_off,25,0,0,,2,,,74,127
39250,note_on,75,0,0,,0,,,72,127
39275,note_off,25,0,0,,4,,,76,127
39349,note_off,74,0,0,,0,,,48,127
39350,note_on,1,0,0,,12,,,47,127
39350,note_on,0,0,0,,2,,,74,127
39375,note_off,25,0,0,,0,,,72,127
39450,note_on,75,0,0,,12,,,71,127
39475,note_off,25,0,0,,2,,,74,127
39549,note_off,74,0,0,,12,,,47,127
39550,note_on,1,0,0,,10,,,45,127
39550,note_on,0,0,0,,0,,,72,127
39575,note_off,25,0,0,,12,,,71,127
39650,note_on,75,0,0,,10,,,69,127
39675,note_off,25,0,0,,0,,,72,127
39749,note_off,74,0,0,,10,,,45,127
39750,note_on,1,0,0,,7,,,43,127
39750,note_on,0,0,0,,12,,,71,127
39775,note_off,25,0,0,,10,,,69,127
39850,note_on,75,0,0,,7,,,67,127
39875,note_off,25,0,0,,12,,,71,127
39949,note_off,74,0,0,,7,,,43,127
39950,note_on,1,0,0,,0,,,48,127
39950,note_on,0,0,0,,10,,,69,127
39975,note_off,25,0,0,,7,,,67,127
40050,note_on,75,0,0,,4,,,64,127
40075,note_off,25,0,0,,10,,,69,127
40149,note_off,74,0,0,,0,,,48,127
40150,note_on,1,0,0,,2,,,50,127
40150,note_on,0,0,0,,6,,,66,127
40175,note_off,25,0,0,,4,,,64,127
40250,note_on,75,0,0,,2,,,62,127
40275,note_off,25,0,0,,6,,,66,127
40350,note_on,75,0,0,,6,,,66,127
40375,note_off,25,0,0,,2,,,62,127
40450,note_on,75,0,0,,10,,,69,127
40475,note_off,25,0,0,,6,,,66,127
40550,note_on,75,0,0,,2,,,74,127
40575,note_off,25,0,0,,10,,,69,127
40650,note_on,75,0,0,,12,,,71,127
40675,note_off,25,0,0,,2,,,74,127
40749,note_off,74,0,0,,2,,,50,127
40750,note_on,1,0,0,,6,,,54,127
40750,note_on,0,0,0,,0,,,72,127
40775,note_off,25,0,0,,12,,,71,127
40850,note_on,75,0,0,,10,,,69,127
40875,note_off,25,0,0,,0,,,72,127
40949,note_off,74,0,0,,6,,,54,127
40950,note_on,1,0,0,,7,,,55,127
40950,note_on,0,0,0,,12,,,71,127
40975,note_off,25,0,0,,10,,,69,127
41050,note_on,75,0,0,,7,,,67,127
41075,note_off,25,0,0,,12,,,71,127
41149,note_off,74,0,0,,7,,,55,127
41150,note_on,1,0,0,,0,,,60,127
41150,note_on,0,0,0,,0,,,72,127
41175,note_off,25,0,0,,7,,,67,127
41250,note_on,75,0,0,,10,,,69,127
41275,note_off,25,0,0,,0,,,72,127
41349,note_off,74,0,0,,0,,,60,127
41350,note_on,1,0,0,,2,,,62,127
41350,note_on,0,0,0,,12,,,71,127
41375,note_off,25,0,0,,10,,,69,127
41450,note_on,75,0,0,,7,,,67,127
41475,note_off,25,0,0,,12,,,71,127
41550,note_on,75,0,0,,2,,,50,127
41550,note_on,0,0,0,,10,,,69,127
41575,note_off,25,0,0,,7,,,67,127
41650,note_on,75,0,0,,6,,,66,127
41675,note_off,25,0,0,,10,,,69,127
41744,note_off,69,0,0,,6,,,66,127
41749,note_off,5,0,0,,2,,,50,127
41749,note_off,0,0,0,,2,,,62,127
41750,note_on,1,0,0,,7,,,55,127
41750,note_on,0,0,0,,7,,,79,127
41850,note_on,100,0,0,,12,,,71,127
41875,note_off,25,0,0,,7,,,79,127
41950,note_on,75,0,0,,0,,,72,127
41975,note_off,25,0,0,,12,,,71,127
42050,note_on,75,0,0,,10,,,69,127
42075,note_off,25,0,0,,0,,,72,127
42150,note_on,75,0,0,,12,,,71,127
42175,note_off,25,0,0,,10,,,69,127
42250,note_on,75,0,0,,7,,,67,127
42275,note_off,25,0,0,,12,,,71,127
42349,note_off,74,0,0,,7,,,55,127
42350,note_on,1,0,0,,2,,,50,127
42350,note_on,0,0,0,,10,,,69,127
42375,note_off,25,0,0,,7,,,67,127
42450,note_on,75,0,0,,6,,,66,127
42475,note_off,25,0,0,,10,,,69,127
42544,note_off,69,0,0,,6,,,66,127
42549,note_off,5,0,0,,2,,,50,127
42550,note_on,1,0,0,,7,,,55,127
42550,note_on,0,0,0,,7,,,79,127
42650,note_on,100,0,0,,12,,,71,127
42675,note_off,25,0,0,,7,,,79,127
42750,note_on,75,0,0,,0,,,72,127
42775,note_off,25,0,0,,12,,,71,127
42850,note_on,75,0,0,,10,,,69,127
42875,note_off,25,0,0,,0,,,72,127
42950,note_on,75,0,0,,12,,,71,127
42975,note_off,25,0,0,,10,,,69,127
43050,note_on,75,0,0,,7,,,67,127
43075,note_off,25,0,0,,12,,,71,127
43149,note_off,74,0,0,,7,,,55,127
43150,note_on,1,0,0,,2,,,50,127
43150,note_on,0,0,0,,10,,,69,127
43175,note_off,25,0,0,,7,,,67,127
43250,note_on,75,0,0,,6,,,66,127
43275,note_off,25,0,0,,10,,,69,127
43344,note_off,69,0,0,,6,,,66,127
43349,note_off,5,0,0,,2,,,50,127
43350,note_on,1,0,0,,7,,,55,127
43350,note_on,0,0,0,,7,,,79,127
43450,note_on,100,0,0,,12,,,71,127
43475,note_off,25,0,0,,7,,,79,127
43549,note_off,74,0,0,,7,,,55,127
43550,note_on,1,0,0,,0,,,48,127
43550,note_on,0,0,0,,0,,,72,127
43575,note_off,25,0,0,,12,,,71,127
43650,note_on,75,0,0,,10,,,69,127
43675,note_off,25,0,0,,0,,,72,127
43749,note_off,74,0,0,,0,,,48,127
43750,note_on,1,0,0,,2,,,50,127
43750,note_on,0,0,0,,12,,,71,127
43775,note_off,25,0,0,,10,,,69,127
43850,note_on,75,0,0,,7,,,79,127
43875,note_off,25,0,0,,12,,,71,127
43950,note_on,75,0,0,,2,,,38,127
43950,note_on,0,0,0,,10,,,69,127
43975,note_off,25,0,0,,7,,,79,127
44050,note_on,75,0,0,,6,,,78,127
44075,note_off,25,0,0,,10,,,69,127
44149,note_off,74,0,0,,2,,,38,127
44149,note_off,0,0,0,,2,,,50,127
44150,note_on,1,0,0,,7,,,43,127
44150,note_on,0,0,0,,7,,,79,127
44175,note_off,25,0,0,,6,,,78,127
44250,note_on,75,0,0,,2,,,74,127
44275,note_off,25,0,0,,7,,,79,127
44350,note_on,75,0,0,,12,,,71,127
44375,note_off,25,0,0,,2,,,74,127
44450,note_on,75,0,0,,2,,,74,127
44475,note_off,25,0,0,,12,,,71,127
44549,note_off,74,0,0,,7,,,43,127
44550,note_on,1,0,0,,7,,,67,127
44575,note_off,25,0,0,,2,,,74,127
44650,note_on,75,0,0,,12,,,71,127
44675,note_off,25,0,0,,7,,,67,127
44750,note_on,75,0,0,,2,,,62,127
44775,note_off,25,0,0,,12,,,71,127
44850,note_on,75,0,0,,7,,,67,127
44875,note_off,25,0,0,,2,,,62,127
44950,note_on,75,0,0,,12,,,71,127
44975,note_off,25,0,0,,7,,,67,127
45050,note_on,75,0,0,,2,,,74,127
45075,note_off,25,0,0,,12,,,71,127
45150,note_on,75,0,0,,7,,,67,127
45175,note_off,25,0,0,,2,,,74,127
45250,note_on,75,0,0,,12,,,71,127
45275,note_off,25,0,0,,7,,,67,127
45350,note_on,75,0,0,,2,,,50,127
45375,note_off,25,0,0,,12,,,71,127
45450,note_on,75,0,0,,7,,,55,127
45465,note_off,15,0,0,,2,,,50,127
45551,note_on,86,0,0,,12,,,47,127
45566,note_off,15,0,0,,7,,,55,127
45652,note_on,86,0,0,,2,,,50,127
45667,note_off,15,0,0,,12,,,47,127
45753,note_on,86,0,0,,7,,,43,127
45768,note_off,15,0,0,,2,,,50,127
47352,note_off,1584,0,0,,7,,,43,127
52224,end_of_track,4872,1,0,,,,,,
