tick,type,time,meta,track,program,channel,pitch,tempo,note,velocity
0,copyright,0,1,0,,,,,,
0,program_change,0,0,0,6,0,,,,
0,pitchwheel,0,0,0,,0,0,,,
0,program_change,0,0,0,6,1,,,,
0,pitchwheel,0,0,0,,1,-590,,,
0,program_change,0,0,0,6,2,,,,
0,pitchwheel,0,0,0,,2,-272,,,
0,program_change,0,0,0,6,3,,,,
0,pitchwheel,0,0,0,,3,-353,,,
0,program_change,0,0,0,6,4,,,,
0,pitchwheel,0,0,0,,4,-560,,,
0,program_change,0,0,0,6,5,,,,
0,pitchwheel,0,0,0,,5,-80,,,
0,program_change,0,0,0,6,6,,,,
0,pitchwheel,0,0,0,,6,-625,,,
0,program_change,0,0,0,6,7,,,,
0,pitchwheel,0,0,0,,7,-130,,,
0,program_change,0,0,0,6,8,,,,
0,pitchwheel,0,0,0,,8,-512,,,
0,program_change,0,0,0,6,10,,,,
0,pitchwheel,0,0,0,,10,-464,,,
0,program_change,0,0,0,6,11,,,,
0,pitchwheel,0,0,0,,11,-208,,,
0,program_change,0,0,0,6,12,,,,
0,pitchwheel,0,0,0,,12,-553,,,
0,set_tempo,0,1,0,,,,500000,,
101,note_on,101,0,0,,0,,,72,127
297,note_off,196,0,0,,0,,,72,127
303,note_on,6,0,0,,0,,,72,127
499,note_off,196,0,0,,0,,,72,127
505,note_on,6,0,0,,0,,,72,127
701,note_off,196,0,0,,0,,,72,127
707,note_on,6,0,0,,0,,,72,127
903,note_off,196,0,0,,0,,,72,127
909,note_on,6,0,0,,0,,,60,127
909,note_on,0,0,0,,0,,,72,127
1004,note_off,95,0,0,,0,,,72,127
1010,note_on,6,0,0,,7,,,67,127
1105,note_off,95,0,0,,7,,,67,127
1105,note_off,0,0,0,,0,,,60,127
1111,note_on,6,0,0,,0,,,60,127
1111,note_on,0,0,0,,0,,,72,127
1206,note_off,95,0,0,,0,,,72,127
1212,note_on,6,0,0,,4,,,76,127
1307,note_off,95,0,0,,4,,,76,127
1307,note_off,0,0,0,,0,,,60,127
1313,note_on,6,0,0,,0,,,60,127
1313,note_on,0,0,0,,0,,,72,127
1509,note_off,196,0,0,,0,,,72,127
1509,note_off,0,0,0,,0,,,60,127
1515,note_on,6,0,0,,0,,,60,127
1515,note_on,0,0,0,,7,,,67,127
1711,note_off,196,0,0,,7,,,67,127
1711,note_off,0,0,0,,0,,,60,127
1734,note_on,23,0,0,,4,,,76,127
1734,note_on,0,0,0,,0,,,60,127
1829,note_off,95,0,0,,0,,,60,127
1835,note_on,6,0,0,,7,,,55,127
1930,note_off,95,0,0,,7,,,55,127
1930,note_off,0,0,0,,4,,,76,127
1936,note_on,6,0,0,,4,,,76,127
1936,note_on,0,0,0,,0,,,60,127
2031,note_off,95,0,0,,0,,,60,127
2037,note_on,6,0,0,,4,,,64,127
2132,note_off,95,0,0,,4,,,64,127
2132,note_off,0,0,0,,4,,,76,127
2138,note_on,6,0,0,,4,,,76,127
2138,note_on,0,0,0,,0,,,60,127
2334,note_off,196,0,0,,0,,,60,127
2334,note_off,0,0,0,,4,,,76,127
2340,note_on,6,0,0,,4,,,76,127
2340,note_on,0,0,0,,7,,,55,127
2536,note_off,196,0,0,,7,,,55,127
2536,note_off,0,0,0,,4,,,76,127
2542,note_on,6,0,0,,4,,,76,127
2542,note_on,0,0,0,,4,,,64,127
2637,note_off,95,0,0,,4,,,76,127
2643,note_on,6,0,0,,0,,,72,127
2738,note_off,95,0,0,,0,,,72,127
2738,note_off,0,0,0,,4,,,64,127
2744,note_on,6,0,0,,4,,,76,127
2744,note_on,0,0,0,,4,,,64,127
2839,note_off,95,0,0,,4,,,76,127
2845,note_on,6,0,0,,7,,,79,127
2940,note_off,95,0,0,,7,,,79,127
2940,note_off,0,0,0,,4,,,64,127
2946,note_on,6,0,0,,4,,,76,127
2946,note_on,0,0,0,,4,,,64,127
3142,note_off,196,0,0,,4,,,64,127
3142,note_off,0,0,0,,4,,,76,127
3148,note_on,6,0,0,,0,,,72,127
3148,note_on,0,0,0,,4,,,64,127
3344,note_off,196,0,0,,4,,,64,127
3344,note_off,0,0,0,,0,,,72,127
3367,note_on,23,0,0,,4,,,52,127
3367,note_on,0,0,0,,7,,,79,127
3462,note_off,95,0,0,,4,,,52,127
3468,note_on,6,0,0,,0,,,48,127
3563,note_off,95,0,0,,0,,,48,127
3563,note_off,0,0,0,,7,,,79,127
3569,note_on,6,0,0,,4,,,52,127
3569,note_on,0,0,0,,7,,,79,127
3664,note_off,95,0,0,,4,,,52,127
3670,note_on,6,0,0,,7,,,55,127
3765,note_off,95,0,0,,7,,,55,127
3765,note_off,0,0,0,,7,,,79,127
3771,note_on,6,0,0,,4,,,52,127
3771,note_on,0,0,0,,7,,,79,127
3866,note_off,95,0,0,,4,,,52,127
3872,note_on,6,0,0,,0,,,48,127
3967,note_off,95,0,0,,0,,,48,127
3967,note_off,0,0,0,,7,,,79,127
3973,note_on,6,0,0,,4,,,52,127
3973,note_on,0,0,0,,7,,,79,127
4068,note_off,95,0,0,,4,,,52,127
4074,note_on,6,0,0,,7,,,55,127
4169,note_off,95,0,0,,7,,,55,127
4169,note_off,0,0,0,,7,,,79,127
4175,note_on,6,0,0,,0,,,36,127
4175,note_on,0,0,0,,0,,,84,127
4270,note_off,95,0,0,,0,,,84,127
4276,note_on,6,0,0,,7,,,79,127
4371,note_off,95,0,0,,7,,,79,127
4377,note_on,6,0,0,,4,,,76,127
4472,note_off,95,0,0,,4,,,76,127
4478,note_on,6,0,0,,7,,,79,127
4573,note_off,95,0,0,,7,,,79,127
4579,note_on,6,0,0,,0,,,72,127
4674,note_off,95,0,0,,0,,,72,127
4680,note_on,6,0,0,,4,,,76,127
4775,note_off,95,0,0,,4,,,76,127
4781,note_on,6,0,0,,7,,,67,127
4876,note_off,95,0,0,,7,,,67,127
4882,note_on,6,0,0,,0,,,72,127
4977,note_off,95,0,0,,0,,,72,127
4982,note_off,5,0,0,,0,,,36,127
4983,note_on,1,0,0,,4,,,64,127
5078,note_off,95,0,0,,4,,,64,127
5084,note_on,6,0,0,,7,,,67,127
5179,note_off,95,0,0,,7,,,67,127
5185,note_on,6,0,0,,0,,,60,127
5280,note_off,95,0,0,,0,,,60,127
5286,note_on,6,0,0,,4,,,64,127
5381,note_off,95,0,0,,4,,,64,127
5387,note_on,6,0,0,,7,,,55,127
5482,note_off,95,0,0,,7,,,55,127
5488,note_on,6,0,0,,0,,,60,127
5583,note_off,95,0,0,,0,,,60,127
5589,note_on,6,0,0,,4,,,52,127
5684,note_off,95,0,0,,4,,,52,127
5690,note_on,6,0,0,,7,,,55,127
5785,note_off,95,0,0,,7,,,55,127
5791,note_on,6,0,0,,0,,,48,127
5886,note_off,95,0,0,,0,,,48,127
5892,note_on,6,0,0,,4,,,52,127
5987,note_off,95,0,0,,4,,,52,127
5993,note_on,6,0,0,,7,,,43,127
6088,note_off,95,0,0,,7,,,43,127
6094,note_on,6,0,0,,0,,,48,127
6189,note_off,95,0,0,,0,,,48,127
6195,note_on,6,0,0,,0,,,36,127
6313,note_on,118,0,0,,0,,,60,127
6408,note_off,95,0,0,,0,,,60,127
6414,note_on,6,0,0,,4,,,64,127
6509,note_off,95,0,0,,4,,,64,127
6515,note_on,6,0,0,,7,,,67,127
6610,note_off,95,0,0,,7,,,67,127
6616,note_on,6,0,0,,0,,,72,127
6711,note_off,95,0,0,,0,,,72,127
6717,note_on,6,0,0,,7,,,67,127
6812,note_off,95,0,0,,7,,,67,127
6818,note_on,6,0,0,,0,,,72,127
6913,note_off,95,0,0,,0,,,72,127
6919,note_on,6,0,0,,4,,,76,127
7014,note_off,95,0,0,,4,,,76,127
7020,note_on,6,0,0,,7,,,79,127
7115,note_off,95,0,0,,7,,,79,127
7121,note_on,6,0,0,,0,,,72,127
7216,note_off,95,0,0,,0,,,72,127
7222,note_on,6,0,0,,4,,,76,127
7317,note_off,95,0,0,,4,,,76,127
7323,note_on,6,0,0,,7,,,79,127
7407,note_off,84,0,0,,0,,,36,127
7418,note_off,11,0,0,,7,,,79,127
7424,note_on,6,0,0,,0,,,84,127
7519,note_off,95,0,0,,0,,,84,127
7525,note_on,6,0,0,,7,,,79,127
7620,note_off,95,0,0,,7,,,79,127
7626,note_on,6,0,0,,4,,,76,127
7721,note_off,95,0,0,,4,,,76,127
7727,note_on,6,0,0,,7,,,79,127
7822,note_off,95,0,0,,7,,,79,127
7828,note_on,6,0,0,,0,,,72,127
7929,note_on,101,0,0,,0,,,48,127
8024,note_off,95,0,0,,0,,,48,127
8030,note_on,6,0,0,,4,,,52,127
8125,note_off,95,0,0,,4,,,52,127
8131,note_on,6,0,0,,7,,,55,127
8226,note_off,95,0,0,,7,,,55,127
8232,note_on,6,0,0,,0,,,60,127
8327,note_off,95,0,0,,0,,,60,127
8333,note_on,6,0,0,,7,,,55,127
8428,note_off,95,0,0,,7,,,55,127
8434,note_on,6,0,0,,0,,,60,127
8529,note_off,95,0,0,,0,,,60,127
8535,note_on,6,0,0,,4,,,64,127
8630,note_off,95,0,0,,4,,,64,127
8636,note_on,6,0,0,,7,,,55,127
8731,note_off,95,0,0,,7,,,55,127
8737,note_on,6,0,0,,0,,,48,127
8832,note_off,95,0,0,,0,,,48,127
8838,note_on,6,0,0,,4,,,52,127
8933,note_off,95,0,0,,4,,,52,127
8939,note_on,6,0,0,,7,,,55,127
9034,note_off,95,0,0,,7,,,55,127
9040,note_off,6,0,0,,0,,,72,127
9040,note_on,0,0,0,,0,,,48,127
9135,note_off,95,0,0,,0,,,48,127
9141,note_on,6,0,0,,7,,,43,127
9236,note_off,95,0,0,,7,,,43,127
9242,note_on,6,0,0,,4,,,40,127
9337,note_off,95,0,0,,4,,,40,127
9343,note_on,6,0,0,,7,,,43,127
9438,note_off,95,0,0,,7,,,43,127
9444,note_on,6,0,0,,0,,,36,127
9562,note_on,118,0,0,,7,,,79,127
9640,note_off,78,0,0,,0,,,36,127
9657,note_off,17,0,0,,7,,,79,127
9663,note_on,6,0,0,,0,,,36,127
9663,note_on,0,0,0,,5,,,77,127
9758,note_off,95,0,0,,5,,,77,127
9764,note_on,6,0,0,,7,,,79,127
9859,note_off,95,0,0,,7,,,79,127
9859,note_off,0,0,0,,0,,,36,127
9865,note_on,6,0,0,,5,,,53,127
9865,note_on,0,0,0,,10,,,81,127
9960,note_off,95,0,0,,10,,,81,127
9966,note_on,6,0,0,,5,,,77,127
10061,note_off,95,0,0,,5,,,77,127
10061,note_off,0,0,0,,5,,,53,127
10067,note_on,6,0,0,,5,,,65,127
10067,note_on,0,0,0,,4,,,76,127
10162,note_off,95,0,0,,4,,,76,127
10168,note_on,6,0,0,,5,,,77,127
10263,note_off,95,0,0,,5,,,77,127
10263,note_off,0,0,0,,5,,,65,127
10269,note_on,6,0,0,,4,,,52,127
10269,note_on,0,0,0,,7,,,79,127
10364,note_off,95,0,0,,7,,,79,127
10370,note_on,6,0,0,,4,,,76,127
10465,note_off,95,0,0,,4,,,76,127
10465,note_off,0,0,0,,4,,,52,127
10471,note_on,6,0,0,,4,,,64,127
10471,note_on,0,0,0,,2,,,74,127
10566,note_off,95,0,0,,2,,,74,127
10572,note_on,6,0,0,,4,,,76,127
10667,note_off,95,0,0,,4,,,76,127
10667,note_off,0,0,0,,4,,,64,127
10673,note_on,6,0,0,,2,,,50,127
10673,note_on,0,0,0,,5,,,77,127
10768,note_off,95,0,0,,5,,,77,127
10774,note_on,6,0,0,,2,,,74,127
10869,note_off,95,0,0,,2,,,74,127
10869,note_off,0,0,0,,2,,,50,127
10875,note_on,6,0,0,,2,,,62,127
10875,note_on,0,0,0,,0,,,72,127
10970,note_off,95,0,0,,0,,,72,127
10976,note_on,6,0,0,,2,,,74,127
11071,note_off,95,0,0,,2,,,74,127
11071,note_off,0,0,0,,2,,,62,127
11077,note_on,6,0,0,,0,,,60,127
11077,note_on,0,0,0,,4,,,76,127
11172,note_off,95,0,0,,0,,,60,127
11178,note_on,6,0,0,,7,,,55,127
11273,note_off,95,0,0,,7,,,55,127
11273,note_off,0,0,0,,4,,,76,127
11279,note_on,6,0,0,,5,,,53,127
11279,note_on,0,0,0,,0,,,72,127
11374,note_off,95,0,0,,5,,,53,127
11380,note_on,6,0,0,,7,,,55,127
11475,note_off,95,0,0,,7,,,55,127
11477,note_off,2,0,0,,0,,,72,127
11481,note_on,4,0,0,,10,,,57,127
11576,note_off,95,0,0,,10,,,57,127
11582,note_on,6,0,0,,5,,,53,127
11677,note_off,95,0,0,,5,,,53,127
11683,note_on,6,0,0,,4,,,52,127
11683,note_on,0,0,0,,2,,,74,127
11778,note_off,95,0,0,,4,,,52,127
11784,note_on,6,0,0,,5,,,53,127
11879,note_off,95,0,0,,5,,,53,127
11879,note_off,0,0,0,,2,,,74,127
11885,note_on,6,0,0,,7,,,55,127
11885,note_on,0,0,0,,12,,,71,127
11980,note_off,95,0,0,,7,,,55,127
11986,note_on,6,0,0,,4,,,52,127
12081,note_off,95,0,0,,4,,,52,127
12081,note_off,0,0,0,,12,,,71,127
12087,note_on,6,0,0,,2,,,50,127
12087,note_on,0,0,0,,0,,,72,127
12182,note_off,95,0,0,,2,,,50,127
12188,note_on,6,0,0,,4,,,52,127
12283,note_off,95,0,0,,4,,,52,127
12283,note_off,0,0,0,,0,,,72,127
12289,note_on,6,0,0,,5,,,53,127
12289,note_on,0,0,0,,10,,,69,127
12384,note_off,95,0,0,,5,,,53,127
12390,note_on,6,0,0,,2,,,50,127
12485,note_off,95,0,0,,2,,,50,127
12485,note_off,0,0,0,,10,,,69,127
12491,note_on,6,0,0,,0,,,48,127
12491,note_on,0,0,0,,2,,,74,127
12586,note_off,95,0,0,,0,,,48,127
12592,note_on,6,0,0,,2,,,50,127
12687,note_off,95,0,0,,2,,,50,127
12687,note_off,0,0,0,,2,,,74,127
12693,note_on,6,0,0,,4,,,52,127
12693,note_on,0,0,0,,7,,,67,127
12753,note_off,60,0,0,,7,,,67,127
12794,note_on,41,0,0,,4,,,76,127
12889,note_off,95,0,0,,4,,,76,127
12889,note_off,0,0,0,,4,,,52,127
12895,note_on,6,0,0,,0,,,48,127
12895,note_on,0,0,0,,2,,,74,127
12990,note_off,95,0,0,,2,,,74,127
12996,note_on,6,0,0,,4,,,76,127
13091,note_off,95,0,0,,4,,,76,127
13091,note_off,0,0,0,,0,,,48,127
13097,note_on,6,0,0,,2,,,50,127
13097,note_on,0,0,0,,5,,,77,127
13192,note_off,95,0,0,,5,,,77,127
13198,note_on,6,0,0,,2,,,74,127
13293,note_off,95,0,0,,2,,,74,127
13293,note_off,0,0,0,,2,,,50,127
13299,note_on,6,0,0,,12,,,47,127
13299,note_on,0,0,0,,0,,,72,127
13394,note_off,95,0,0,,0,,,72,127
13400,note_on,6,0,0,,2,,,74,127
13495,note_off,95,0,0,,2,,,74,127
13495,note_off,0,0,0,,12,,,47,127
13501,note_on,6,0,0,,0,,,48,127
13501,note_on,0,0,0,,4,,,76,127
13596,note_off,95,0,0,,4,,,76,127
13602,note_on,6,0,0,,0,,,72,127
13697,note_off,95,0,0,,0,,,72,127
13703,note_on,6,0,0,,0,,,36,127
13703,note_on,0,0,0,,12,,,71,127
13798,note_off,95,0,0,,12,,,71,127
13804,note_on,6,0,0,,0,,,72,127
13899,note_off,95,0,0,,0,,,72,127
13899,note_off,0,0,0,,0,,,36,127
13901,note_off,2,0,0,,0,,,48,127
13905,note_on,4,0,0,,7,,,43,127
13905,note_on,0,0,0,,2,,,74,127
14000,note_off,95,0,0,,2,,,74,127
14006,note_on,6,0,0,,0,,,72,127
14101,note_off,95,0,0,,0,,,72,127
14107,note_on,6,0,0,,12,,,71,127
14202,note_off,95,0,0,,12,,,71,127
14208,note_on,6,0,0,,10,,,69,127
14303,note_off,95,0,0,,10,,,69,127
14309,note_on,6,0,0,,7,,,67,127
14404,note_off,95,0,0,,7,,,43,127
14410,note_on,6,0,0,,4,,,52,127
14477,note_off,67,0,0,,7,,,67,127
14504,note_off,27,0,0,,4,,,52,127
14510,note_on,6,0,0,,2,,,50,127
14510,note_on,0,0,0,,0,,,72,127
14605,note_off,95,0,0,,2,,,50,127
14611,note_on,6,0,0,,4,,,52,127
14706,note_off,95,0,0,,4,,,52,127
14706,note_off,0,0,0,,0,,,72,127
14712,note_on,6,0,0,,5,,,53,127
14712,note_on,0,0,0,,10,,,69,127
14807,note_off,95,0,0,,5,,,53,127
14813,note_on,6,0,0,,2,,,50,127
14908,note_off,95,0,0,,2,,,50,127
14908,note_off,0,0,0,,10,,,69,127
14914,note_on,6,0,0,,0,,,48,127
14914,note_on,0,0,0,,2,,,74,127
15009,note_off,95,0,0,,0,,,48,127
15015,note_on,6,0,0,,2,,,50,127
15110,note_off,95,0,0,,2,,,50,127
15110,note_off,0,0,0,,2,,,74,127
15116,note_on,6,0,0,,4,,,52,127
15116,note_on,0,0,0,,7,,,67,127
15211,note_off,95,0,0,,4,,,52,127
15217,note_on,6,0,0,,0,,,48,127
15312,note_off,95,0,0,,0,,,48,127
15312,note_off,0,0,0,,7,,,67,127
15318,note_on,6,0,0,,12,,,47,127
15318,note_on,0,0,0,,0,,,72,127
15413,note_off,95,0,0,,12,,,47,127
15419,note_on,6,0,0,,0,,,48,127
15464,note_off,45,0,0,,0,,,72,127
15513,note_off,49,0,0,,0,,,48,127
15519,note_on,6,0,0,,2,,,50,127
15519,note_on,0,0,0,,5,,,65,127
15614,note_off,95,0,0,,2,,,50,127
15620,note_on,6,0,0,,0,,,48,127
15715,note_off,95,0,0,,0,,,48,127
15721,note_on,6,0,0,,12,,,47,127
15721,note_on,0,0,0,,2,,,74,127
15753,note_off,32,0,0,,5,,,65,127
15816,note_off,63,0,0,,12,,,47,127
15822,note_on,6,0,0,,10,,,45,127
15917,note_off,95,0,0,,10,,,45,127
15917,note_off,0,0,0,,2,,,74,127
15923,note_on,6,0,0,,7,,,55,127
15923,note_on,0,0,0,,7,,,67,127
16018,note_off,95,0,0,,7,,,55,127
16024,note_on,6,0,0,,5,,,53,127
16119,note_off,95,0,0,,5,,,53,127
16125,note_on,6,0,0,,4,,,52,127
16125,note_on,0,0,0,,12,,,71,127
16148,note_off,23,0,0,,7,,,67,127
16220,note_off,72,0,0,,4,,,52,127
16226,note_on,6,0,0,,2,,,50,127
16307,note_off,81,0,0,,12,,,71,127
16321,note_off,14,0,0,,2,,,50,127
16344,note_on,23,0,0,,4,,,76,127
16344,note_on,0,0,0,,0,,,48,127
16439,note_off,95,0,0,,4,,,76,127
16445,note_on,6,0,0,,2,,,74,127
16540,note_off,95,0,0,,2,,,74,127
16546,note_on,6,0,0,,0,,,72,127
16641,note_off,95,0,0,,0,,,72,127
16647,note_on,6,0,0,,12,,,71,127
16742,note_off,95,0,0,,12,,,71,127
16742,note_off,0,0,0,,0,,,48,127
16748,note_on,6,0,0,,10,,,69,127
16748,note_on,0,0,0,,1,,,49,127
16843,note_off,95,0,0,,10,,,69,127
16849,note_on,6,0,0,,1,,,73,127
16944,note_off,95,0,0,,1,,,73,127
16950,note_on,6,0,0,,4,,,76,127
17045,note_off,95,0,0,,4,,,76,127
17051,note_on,6,0,0,,7,,,67,127
17146,note_off,95,0,0,,7,,,67,127
17146,note_off,0,0,0,,1,,,49,127
17152,note_on,6,0,0,,6,,,66,127
17152,note_on,0,0,0,,2,,,50,127
17247,note_off,95,0,0,,6,,,66,127
17253,note_on,6,0,0,,7,,,67,127
17348,note_off,95,0,0,,7,,,67,127
17354,note_on,6,0,0,,10,,,69,127
17449,note_off,95,0,0,,10,,,69,127
17455,note_on,6,0,0,,6,,,66,127
17550,note_off,95,0,0,,6,,,66,127
17556,note_on,6,0,0,,2,,,62,127
17639,note_off,83,0,0,,2,,,62,127
17657,note_off,18,0,0,,2,,,50,127
17668,note_on,11,0,0,,10,,,69,127
17763,note_off,95,0,0,,10,,,69,127
17776,note_on,13,0,0,,6,,,54,127
17776,note_on,0,0,0,,7,,,67,127
17871,note_off,95,0,0,,7,,,67,127
17877,note_on,6,0,0,,10,,,69,127
17972,note_off,95,0,0,,10,,,69,127
17972,note_off,0,0,0,,6,,,54,127
17978,note_on,6,0,0,,7,,,55,127
17978,note_on,0,0,0,,11,,,70,127
18073,note_off,95,0,0,,11,,,70,127
18079,note_on,6,0,0,,7,,,67,127
18174,note_off,95,0,0,,7,,,67,127
18174,note_off,0,0,0,,7,,,55,127
18180,note_on,6,0,0,,7,,,55,127
18180,note_on,0,0,0,,6,,,66,127
18275,note_off,95,0,0,,6,,,66,127
18281,note_on,6,0,0,,7,,,67,127
18376,note_off,95,0,0,,7,,,67,127
18382,note_on,6,0,0,,10,,,69,127
18477,note_off,95,0,0,,10,,,69,127
18483,note_off,6,0,0,,7,,,55,127
18483,note_on,0,0,0,,2,,,62,127
18578,note_off,95,0,0,,2,,,62,127
18584,note_on,6,0,0,,6,,,54,127
18584,note_on,0,0,0,,1,,,61,127
18679,note_off,95,0,0,,1,,,61,127
18685,note_on,6,0,0,,2,,,62,127
18780,note_off,95,0,0,,2,,,62,127
18780,note_off,0,0,0,,6,,,54,127
18786,note_on,6,0,0,,7,,,55,127
18786,note_on,0,0,0,,11,,,70,127
18881,note_off,95,0,0,,11,,,70,127
18887,note_on,6,0,0,,7,,,67,127
18982,note_off,95,0,0,,7,,,67,127
18982,note_off,0,0,0,,7,,,55,127
18988,note_on,6,0,0,,7,,,55,127
18988,note_on,0,0,0,,6,,,66,127
19083,note_off,95,0,0,,6,,,66,127
19089,note_on,6,0,0,,7,,,67,127
19184,note_off,95,0,0,,7,,,67,127
19190,note_on,6,0,0,,10,,,69,127
19285,note_off,95,0,0,,10,,,69,127
19291,note_off,6,0,0,,7,,,55,127
19291,note_on,0,0,0,,2,,,62,127
19386,note_off,95,0,0,,2,,,62,127
19392,note_on,6,0,0,,6,,,54,127
19392,note_on,0,0,0,,1,,,61,127
19487,note_off,95,0,0,,1,,,61,127
19493,note_on,6,0,0,,2,,,62,127
19588,note_off,95,0,0,,2,,,62,127
19588,note_off,0,0,0,,6,,,54,127
19594,note_on,6,0,0,,7,,,55,127
19594,note_on,0,0,0,,11,,,70,127
19689,note_off,95,0,0,,11,,,70,127
19695,note_on,6,0,0,,7,,,67,127
19790,note_off,95,0,0,,7,,,67,127
19796,note_on,6,0,0,,7,,,43,127
19796,note_on,0,0,0,,6,,,66,127
19891,note_off,95,0,0,,6,,,66,127
19897,note_on,6,0,0,,7,,,67,127
19994,note_off,97,0,0,,7,,,55,127
19998,note_on,4,0,0,,2,,,74,127
20009,note_off,11,0,0,,7,,,67,127
20100,note_off,91,0,0,,7,,,43,127
20108,note_on,8,0,0,,7,,,67,127
20113,note_off,5,0,0,,2,,,74,127
20202,note_off,89,0,0,,7,,,67,127
20208,note_on,6,0,0,,12,,,59,127
20208,note_on,0,0,0,,6,,,66,127
20303,note_off,95,0,0,,6,,,66,127
20309,note_on,6,0,0,,7,,,67,127
20404,note_off,95,0,0,,7,,,67,127
20404,note_off,0,0,0,,12,,,59,127
20410,note_on,6,0,0,,0,,,60,127
20410,note_on,0,0,0,,3,,,75,127
20505,note_off,95,0,0,,3,,,75,127
20511,note_on,6,0,0,,0,,,72,127
20606,note_off,95,0,0,,0,,,72,127
20606,note_off,0,0,0,,0,,,60,127
20612,note_on,6,0,0,,0,,,60,127
20612,note_on,0,0,0,,12,,,71,127
20707,note_off,95,0,0,,12,,,71,127
20713,note_on,6,0,0,,0,,,72,127
20808,note_off,95,0,0,,0,,,72,127
20814,note_on,6,0,0,,2,,,74,127
20909,note_off,95,0,0,,2,,,74,127
20915,note_off,6,0,0,,0,,,60,127
20915,note_on,0,0,0,,7,,,67,127
21010,note_off,95,0,0,,7,,,67,127
21016,note_on,6,0,0,,12,,,59,127
21016,note_on,0,0,0,,6,,,66,127
21111,note_off,95,0,0,,6,,,66,127
21117,note_on,6,0,0,,7,,,67,127
21212,note_off,95,0,0,,7,,,67,127
21212,note_off,0,0,0,,12,,,59,127
21218,note_on,6,0,0,,0,,,60,127
21218,note_on,0,0,0,,3,,,75,127
21313,note_off,95,0,0,,3,,,75,127
21319,note_on,6,0,0,,0,,,72,127
21414,note_off,95,0,0,,0,,,72,127
21414,note_off,0,0,0,,0,,,60,127
21420,note_on,6,0,0,,0,,,60,127
21420,note_on,0,0,0,,12,,,71,127
21515,note_off,95,0,0,,12,,,71,127
21521,note_on,6,0,0,,0,,,72,127
21616,note_off,95,0,0,,0,,,72,127
21622,note_on,6,0,0,,2,,,74,127
21717,note_off,95,0,0,,2,,,74,127
21723,note_off,6,0,0,,0,,,60,127
21723,note_on,0,0,0,,7,,,67,127
21818,note_off,95,0,0,,7,,,67,127
21824,note_on,6,0,0,,12,,,59,127
21824,note_on,0,0,0,,6,,,66,127
21919,note_off,95,0,0,,6,,,66,127
21925,note_on,6,0,0,,7,,,67,127
22020,note_off,95,0,0,,7,,,67,127
22020,note_off,0,0,0,,12,,,59,127
22043,note_on,23,0,0,,3,,,75,127
22043,note_on,0,0,0,,0,,,60,127
22138,note_off,95,0,0,,3,,,75,127
22144,note_on,6,0,0,,7,,,79,127
22239,note_off,95,0,0,,7,,,79,127
22245,note_on,6,0,0,,3,,,75,127
22340,note_off,95,0,0,,3,,,75,127
22346,note_on,6,0,0,,2,,,74,127
22441,note_off,95,0,0,,2,,,74,127
22447,note_on,6,0,0,,0,,,72,127
22542,note_off,95,0,0,,0,,,72,127
22548,note_on,6,0,0,,3,,,75,127
22643,note_off,95,0,0,,3,,,75,127
22649,note_on,6,0,0,,0,,,72,127
22744,note_off,95,0,0,,0,,,72,127
22750,note_on,6,0,0,,11,,,70,127
22845,note_off,95,0,0,,11,,,70,127
22845,note_off,0,0,0,,0,,,60,127
22851,note_on,6,0,0,,10,,,69,127
22851,note_on,0,0,0,,0,,,48,127
22851,note_on,0,0,0,,0,,,36,127
22946,note_off,95,0,0,,10,,,69,127
22952,note_on,6,0,0,,3,,,75,127
23047,note_off,95,0,0,,3,,,75,127
23053,note_on,6,0,0,,0,,,72,127
23148,note_off,95,0,0,,0,,,72,127
23154,note_on,6,0,0,,11,,,70,127
23249,note_off,95,0,0,,11,,,70,127
23249,note_off,0,0,0,,0,,,36,127
23249,note_off,0,0,0,,0,,,48,127
23255,note_on,6,0,0,,10,,,69,127
23255,note_on,0,0,0,,0,,,48,127
23255,note_on,0,0,0,,0,,,36,127
23350,note_off,95,0,0,,10,,,69,127
23356,note_on,6,0,0,,0,,,72,127
23451,note_off,95,0,0,,0,,,72,127
23457,note_on,6,0,0,,10,,,69,127
23552,note_off,95,0,0,,10,,,69,127
23558,note_on,6,0,0,,7,,,67,127
23653,note_off,95,0,0,,7,,,67,127
23653,note_off,0,0,0,,0,,,36,127
23653,note_off,0,0,0,,0,,,48,127
23659,note_on,6,0,0,,6,,,66,127
23659,note_on,0,0,0,,2,,,50,127
23659,note_on,0,0,0,,2,,,38,127
23754,note_off,95,0,0,,6,,,66,127
23760,note_on,6,0,0,,0,,,72,127
23855,note_off,95,0,0,,0,,,72,127
23861,note_on,6,0,0,,10,,,69,127
23956,note_off,95,0,0,,10,,,69,127
23962,note_on,6,0,0,,7,,,67,127
24057,note_off,95,0,0,,7,,,67,127
24057,note_off,0,0,0,,2,,,38,127
24057,note_off,0,0,0,,2,,,50,127
24063,note_on,6,0,0,,6,,,66,127
24063,note_on,0,0,0,,2,,,50,127
24063,note_on,0,0,0,,2,,,38,127
24158,note_off,95,0,0,,6,,,66,127
24164,note_on,6,0,0,,10,,,69,127
24259,note_off,95,0,0,,10,,,69,127
24265,note_on,6,0,0,,6,,,66,127
24360,note_off,95,0,0,,6,,,66,127
24366,note_on,6,0,0,,4,,,64,127
24461,note_off,95,0,0,,4,,,64,127
24467,note_on,6,0,0,,2,,,62,127
24562,note_off,95,0,0,,2,,,38,127
24562,note_off,0,0,0,,2,,,50,127
24585,note_on,23,0,0,,2,,,50,127
24680,note_off,95,0,0,,2,,,50,127
24686,note_on,6,0,0,,4,,,52,127
24781,note_off,95,0,0,,4,,,52,127
24787,note_on,6,0,0,,6,,,54,127
24882,note_off,95,0,0,,6,,,54,127
24888,note_on,6,0,0,,7,,,55,127
24983,note_off,95,0,0,,7,,,55,127
24989,note_on,6,0,0,,10,,,57,127
25072,note_off,83,0,0,,2,,,62,127
25084,note_off,12,0,0,,10,,,57,127
25090,note_on,6,0,0,,12,,,59,127
25185,note_off,95,0,0,,12,,,59,127
25191,note_on,6,0,0,,0,,,60,127
25286,note_off,95,0,0,,0,,,60,127
25292,note_on,6,0,0,,2,,,62,127
25387,note_off,95,0,0,,2,,,62,127
25393,note_on,6,0,0,,4,,,64,127
25488,note_off,95,0,0,,4,,,64,127
25494,note_on,6,0,0,,6,,,66,127
25494,note_on,0,0,0,,2,,,74,127
25589,note_off,95,0,0,,6,,,66,127
25595,note_on,6,0,0,,2,,,62,127
25690,note_off,95,0,0,,2,,,62,127
25690,note_off,0,0,0,,2,,,74,127
25696,note_on,6,0,0,,7,,,67,127
25696,note_on,0,0,0,,2,,,74,127
25791,note_off,95,0,0,,7,,,67,127
25797,note_on,6,0,0,,6,,,66,127
25892,note_off,95,0,0,,6,,,66,127
25892,note_off,0,0,0,,2,,,74,127
25898,note_on,6,0,0,,4,,,64,127
25898,note_on,0,0,0,,2,,,74,127
25993,note_off,95,0,0,,4,,,64,127
25999,note_on,6,0,0,,2,,,62,127
26094,note_off,95,0,0,,2,,,62,127
26094,note_off,0,0,0,,2,,,74,127
26100,note_on,6,0,0,,0,,,60,127
26100,note_on,0,0,0,,4,,,76,127
26195,note_off,95,0,0,,4,,,76,127
26195,note_off,0,0,0,,0,,,60,127
26201,note_on,6,0,0,,12,,,59,127
26201,note_on,0,0,0,,6,,,78,127
26296,note_off,95,0,0,,6,,,78,127
26296,note_off,0,0,0,,12,,,59,127
26302,note_on,6,0,0,,10,,,57,127
26302,note_on,0,0,0,,7,,,79,127
26397,note_off,95,0,0,,7,,,79,127
26397,note_off,0,0,0,,10,,,57,127
26403,note_on,6,0,0,,7,,,55,127
26403,note_on,0,0,0,,10,,,81,127
26498,note_off,95,0,0,,10,,,81,127
26498,note_off,0,0,0,,7,,,55,127
26504,note_on,6,0,0,,2,,,62,127
26504,note_on,0,0,0,,12,,,83,127
26599,note_off,95,0,0,,12,,,83,127
26605,note_on,6,0,0,,7,,,79,127
26700,note_off,95,0,0,,7,,,79,127
26700,note_off,0,0,0,,2,,,62,127
26706,note_on,6,0,0,,2,,,50,127
26706,note_on,0,0,0,,10,,,81,127
26801,note_off,95,0,0,,10,,,81,127
26807,note_on,6,0,0,,6,,,78,127
26902,note_off,95,0,0,,6,,,78,127
26902,note_off,0,0,0,,2,,,50,127
26908,note_on,6,0,0,,7,,,55,127
26908,note_on,0,0,0,,7,,,79,127
27009,note_on,101,0,0,,7,,,67,127
27034,note_off,25,0,0,,7,,,55,127
27091,note_off,57,0,0,,7,,,79,127
27104,note_off,13,0,0,,7,,,67,127
27110,note_on,6,0,0,,2,,,62,127
27110,note_on,0,0,0,,2,,,74,127
27205,note_off,95,0,0,,2,,,62,127
27211,note_on,6,0,0,,7,,,55,127
27306,note_off,95,0,0,,7,,,55,127
27306,note_off,0,0,0,,2,,,74,127
27312,note_on,6,0,0,,2,,,50,127
27312,note_on,0,0,0,,2,,,74,127
27413,note_on,101,0,0,,2,,,62,127
27438,note_off,25,0,0,,2,,,50,127
27507,note_off,69,0,0,,2,,,62,127
27507,note_off,0,0,0,,2,,,74,127
27513,note_on,6,0,0,,10,,,57,127
27513,note_on,0,0,0,,2,,,74,127
27608,note_off,95,0,0,,10,,,57,127
27614,note_on,6,0,0,,2,,,50,127
27709,note_off,95,0,0,,2,,,50,127
27709,note_off,0,0,0,,2,,,74,127
27715,note_on,6,0,0,,7,,,43,127
27715,note_on,0,0,0,,12,,,71,127
27816,note_on,101,0,0,,7,,,55,127
27862,note_off,46,0,0,,7,,,43,127
27910,note_off,48,0,0,,7,,,55,127
27910,note_off,0,0,0,,12,,,71,127
27916,note_on,6,0,0,,2,,,50,127
27916,note_on,0,0,0,,7,,,67,127
28011,note_off,95,0,0,,2,,,50,127
28017,note_on,6,0,0,,7,,,43,127
28112,note_off,95,0,0,,7,,,43,127
28112,note_off,0,0,0,,7,,,67,127
28118,note_on,6,0,0,,2,,,38,127
28118,note_on,0,0,0,,10,,,69,127
28219,note_on,101,0,0,,2,,,50,127
28244,note_off,25,0,0,,2,,,38,127
28313,note_off,69,0,0,,2,,,50,127
28313,note_off,0,0,0,,10,,,69,127
28319,note_on,6,0,0,,10,,,45,127
28319,note_on,0,0,0,,2,,,62,127
28414,note_off,95,0,0,,10,,,45,127
28420,note_on,6,0,0,,2,,,38,127
28515,note_off,95,0,0,,2,,,38,127
28515,note_off,0,0,0,,2,,,62,127
28521,note_on,6,0,0,,7,,,43,127
28521,note_on,0,0,0,,12,,,71,127
28622,note_on,101,0,0,,7,,,55,127
28668,note_off,46,0,0,,7,,,43,127
28716,note_off,48,0,0,,7,,,55,127
28716,note_off,0,0,0,,12,,,71,127
28722,note_on,6,0,0,,2,,,50,127
28722,note_on,0,0,0,,7,,,67,127
28817,note_off,95,0,0,,2,,,50,127
28823,note_on,6,0,0,,7,,,43,127
28918,note_off,95,0,0,,7,,,43,127
28918,note_off,0,0,0,,7,,,67,127
28924,note_on,6,0,0,,2,,,38,127
28924,note_on,0,0,0,,10,,,69,127
29025,note_on,101,0,0,,2,,,50,127
29050,note_off,25,0,0,,2,,,38,127
29119,note_off,69,0,0,,2,,,50,127
29119,note_off,0,0,0,,10,,,69,127
29125,note_on,6,0,0,,10,,,45,127
29125,note_on,0,0,0,,2,,,62,127
29220,note_off,95,0,0,,10,,,45,127
29226,note_on,6,0,0,,2,,,38,127
29321,note_off,95,0,0,,2,,,38,127
29321,note_off,0,0,0,,2,,,62,127
29327,note_on,6,0,0,,7,,,43,127
29327,note_on,0,0,0,,12,,,71,127
29428,note_on,101,0,0,,7,,,55,127
29474,note_off,46,0,0,,7,,,43,127
29522,note_off,48,0,0,,7,,,55,127
29522,note_off,0,0,0,,12,,,71,127
29528,note_on,6,0,0,,2,,,50,127
29528,note_on,0,0,0,,7,,,67,127
29623,note_off,95,0,0,,2,,,50,127
29629,note_on,6,0,0,,7,,,43,127
29724,note_off,95,0,0,,7,,,43,127
29724,note_off,0,0,0,,7,,,67,127
29730,note_on,6,0,0,,2,,,38,127
29730,note_on,0,0,0,,10,,,69,127
29831,note_on,101,0,0,,2,,,50,127
29856,note_off,25,0,0,,2,,,38,127
29925,note_off,69,0,0,,2,,,50,127
29925,note_off,0,0,0,,10,,,69,127
29931,note_on,6,0,0,,10,,,45,127
29931,note_on,0,0,0,,2,,,62,127
30026,note_off,95,0,0,,10,,,45,127
30032,note_on,6,0,0,,2,,,38,127
30127,note_off,95,0,0,,2,,,38,127
30127,note_off,0,0,0,,2,,,62,127
30140,note_on,13,0,0,,7,,,67,127
30140,note_on,0,0,0,,7,,,43,127
30745,note_off,605,0,0,,7,,,67,127
30942,note_off,197,0,0,,7,,,43,127
30993,note_on,51,0,0,,7,,,79,127
31189,note_off,196,0,0,,7,,,79,127
31195,note_on,6,0,0,,7,,,79,127
31391,note_off,196,0,0,,7,,,79,127
31397,note_on,6,0,0,,7,,,79,127
31593,note_off,196,0,0,,7,,,79,127
31599,note_on,6,0,0,,7,,,79,127
31795,note_off,196,0,0,,7,,,79,127
31801,note_on,6,0,0,,7,,,79,127
31801,note_on,0,0,0,,7,,,55,127
31896,note_off,95,0,0,,7,,,79,127
31902,note_on,6,0,0,,2,,,74,127
31997,note_off,95,0,0,,2,,,74,127
31997,note_off,0,0,0,,7,,,55,127
32003,note_on,6,0,0,,7,,,79,127
32003,note_on,0,0,0,,7,,,55,127
32098,note_off,95,0,0,,7,,,79,127
32104,note_on,6,0,0,,12,,,83,127
32199,note_off,95,0,0,,12,,,83,127
32199,note_off,0,0,0,,7,,,55,127
32205,note_on,6,0,0,,7,,,79,127
32205,note_on,0,0,0,,7,,,55,127
32401,note_off,196,0,0,,7,,,55,127
32401,note_off,0,0,0,,7,,,79,127
32407,note_on,6,0,0,,2,,,74,127
32407,note_on,0,0,0,,7,,,55,127
32603,note_off,196,0,0,,7,,,55,127
32603,note_off,0,0,0,,2,,,74,127
32609,note_on,6,0,0,,12,,,71,127
32609,note_on,0,0,0,,7,,,55,127
32704,note_off,95,0,0,,7,,,55,127
32710,note_on,6,0,0,,2,,,50,127
32805,note_off,95,0,0,,2,,,50,127
32805,note_off,0,0,0,,12,,,71,127
32811,note_on,6,0,0,,2,,,74,127
32811,note_on,0,0,0,,7,,,55,127
32906,note_off,95,0,0,,7,,,55,127
32912,note_on,6,0,0,,12,,,59,127
33007,note_off,95,0,0,,12,,,59,127
33007,note_off,0,0,0,,2,,,74,127
33013,note_on,6,0,0,,12,,,71,127
33013,note_on,0,0,0,,7,,,55,127
33108,note_off,95,0,0,,7,,,55,127
33114,note_on,6,0,0,,2,,,50,127
33209,note_off,95,0,0,,2,,,50,127
33209,note_off,0,0,0,,12,,,71,127
33215,note_on,6,0,0,,2,,,74,127
33215,note_on,0,0,0,,7,,,55,127
33310,note_off,95,0,0,,7,,,55,127
33316,note_on,6,0,0,,12,,,59,127
33411,note_off,95,0,0,,12,,,59,127
33411,note_off,0,0,0,,2,,,74,127
33417,note_on,6,0,0,,7,,,79,127
33417,note_on,0,0,0,,7,,,43,127
33512,note_off,95,0,0,,7,,,79,127
33518,note_on,6,0,0,,2,,,74,127
33613,note_off,95,0,0,,2,,,74,127
33619,note_on,6,0,0,,12,,,71,127
33714,note_off,95,0,0,,12,,,71,127
33720,note_on,6,0,0,,2,,,74,127
33815,note_off,95,0,0,,2,,,74,127
33821,note_on,6,0,0,,7,,,67,127
33916,note_off,95,0,0,,7,,,67,127
33922,note_off,6,0,0,,7,,,43,127
33930,note_on,8,0,0,,2,,,74,127
34023,note_on,93,0,0,,0,,,72,127
34023,note_on,0,0,0,,12,,,59,127
34038,note_off,15,0,0,,2,,,74,127
34118,note_off,80,0,0,,0,,,72,127
34124,note_on,6,0,0,,2,,,74,127
34219,note_off,95,0,0,,2,,,74,127
34219,note_off,0,0,0,,12,,,59,127
34225,note_on,6,0,0,,4,,,76,127
34225,note_on,0,0,0,,0,,,48,127
34320,note_off,95,0,0,,4,,,76,127
34326,note_on,6,0,0,,0,,,72,127
34421,note_off,95,0,0,,0,,,72,127
34421,note_off,0,0,0,,0,,,48,127
34427,note_on,6,0,0,,12,,,71,127
34427,note_on,0,0,0,,0,,,60,127
34522,note_off,95,0,0,,12,,,71,127
34528,note_on,6,0,0,,0,,,72,127
34623,note_off,95,0,0,,0,,,72,127
34623,note_off,0,0,0,,0,,,60,127
34629,note_on,6,0,0,,2,,,74,127
34629,note_on,0,0,0,,12,,,59,127
34724,note_off,95,0,0,,2,,,74,127
34730,note_on,6,0,0,,7,,,67,127
34825,note_off,95,0,0,,7,,,67,127
34825,note_off,0,0,0,,12,,,59,127
34831,note_on,6,0,0,,6,,,66,127
34831,note_on,0,0,0,,7,,,55,127
34926,note_off,95,0,0,,6,,,66,127
34932,note_on,6,0,0,,7,,,67,127
35027,note_off,95,0,0,,7,,,67,127
35027,note_off,0,0,0,,7,,,55,127
35033,note_on,6,0,0,,4,,,76,127
35033,note_on,0,0,0,,0,,,48,127
35128,note_off,95,0,0,,4,,,76,127
35134,note_on,6,0,0,,0,,,72,127
35229,note_off,95,0,0,,0,,,72,127
35229,note_off,0,0,0,,0,,,48,127
35235,note_on,6,0,0,,12,,,71,127
35235,note_on,0,0,0,,0,,,60,127
35330,note_off,95,0,0,,12,,,71,127
35336,note_on,6,0,0,,0,,,72,127
35437,note_on,101,0,0,,7,,,79,127
35446,note_off,9,0,0,,0,,,72,127
35527,note_off,81,0,0,,7,,,79,127
35548,note_on,21,0,0,,0,,,72,127
35632,note_off,84,0,0,,0,,,60,127
35638,note_on,6,0,0,,12,,,71,127
35638,note_on,0,0,0,,4,,,64,127
35655,note_off,17,0,0,,0,,,72,127
35733,note_off,78,0,0,,12,,,71,127
35739,note_on,6,0,0,,0,,,72,127
35834,note_off,95,0,0,,0,,,72,127
35834,note_off,0,0,0,,4,,,64,127
35840,note_on,6,0,0,,10,,,81,127
35840,note_on,0,0,0,,5,,,53,127
35935,note_off,95,0,0,,10,,,81,127
35941,note_on,6,0,0,,5,,,77,127
36036,note_off,95,0,0,,5,,,77,127
36036,note_off,0,0,0,,5,,,53,127
36042,note_on,6,0,0,,4,,,76,127
36042,note_on,0,0,0,,5,,,65,127
36137,note_off,95,0,0,,4,,,76,127
36143,note_on,6,0,0,,5,,,77,127
36238,note_off,95,0,0,,5,,,77,127
36238,note_off,0,0,0,,5,,,65,127
36244,note_on,6,0,0,,7,,,79,127
36244,note_on,0,0,0,,4,,,64,127
36339,note_off,95,0,0,,7,,,79,127
36345,note_on,6,0,0,,0,,,72,127
36440,note_off,95,0,0,,0,,,72,127
36440,note_off,0,0,0,,4,,,64,127
36446,note_on,6,0,0,,12,,,71,127
36446,note_on,0,0,0,,0,,,60,127
36541,note_off,95,0,0,,12,,,71,127
36547,note_on,6,0,0,,0,,,72,127
36642,note_off,95,0,0,,0,,,72,127
36642,note_off,0,0,0,,0,,,60,127
36648,note_on,6,0,0,,10,,,81,127
36648,note_on,0,0,0,,5,,,53,127
36743,note_off,95,0,0,,10,,,81,127
36760,note_on,17,0,0,,2,,,74,127
36844,note_off,84,0,0,,5,,,53,127
36850,note_on,6,0,0,,1,,,73,127
36850,note_on,0,0,0,,5,,,65,127
36854,note_off,4,0,0,,2,,,74,127
36945,note_off,91,0,0,,1,,,73,127
36951,note_on,6,0,0,,2,,,74,127
37046,note_off,95,0,0,,2,,,74,127
37051,note_off,5,0,0,,5,,,65,127
37052,note_on,1,0,0,,4,,,76,127
37143,note_off,91,0,0,,4,,,76,127
37154,note_on,11,0,0,,10,,,69,127
37249,note_off,95,0,0,,10,,,69,127
37255,note_on,6,0,0,,8,,,68,127
37255,note_on,0,0,0,,1,,,61,127
37350,note_off,95,0,0,,8,,,68,127
37356,note_on,6,0,0,,10,,,69,127
37451,note_off,95,0,0,,10,,,69,127
37451,note_off,0,0,0,,1,,,61,127
37457,note_on,6,0,0,,5,,,77,127
37457,note_on,0,0,0,,2,,,50,127
37552,note_off,95,0,0,,5,,,77,127
37558,note_on,6,0,0,,2,,,74,127
37653,note_off,95,0,0,,2,,,74,127
37653,note_off,0,0,0,,2,,,50,127
37659,note_on,6,0,0,,1,,,73,127
37659,note_on,0,0,0,,2,,,62,127
37754,note_off,95,0,0,,1,,,73,127
37760,note_on,6,0,0,,2,,,74,127
37855,note_off,95,0,0,,2,,,74,127
37855,note_off,0,0,0,,2,,,62,127
37861,note_on,6,0,0,,4,,,76,127
37861,note_on,0,0,0,,1,,,61,127
37956,note_off,95,0,0,,4,,,76,127
37962,note_on,6,0,0,,10,,,69,127
38057,note_off,95,0,0,,10,,,69,127
38057,note_off,0,0,0,,1,,,61,127
38063,note_on,6,0,0,,8,,,68,127
38063,note_on,0,0,0,,10,,,57,127
38158,note_off,95,0,0,,8,,,68,127
38164,note_on,6,0,0,,10,,,69,127
38259,note_off,95,0,0,,10,,,69,127
38259,note_off,0,0,0,,10,,,57,127
38265,note_on,6,0,0,,6,,,78,127
38265,note_on,0,0,0,,2,,,50,127
38360,note_off,95,0,0,,6,,,78,127
38366,note_on,6,0,0,,2,,,74,127
38461,note_off,95,0,0,,2,,,74,127
38461,note_off,0,0,0,,2,,,50,127
38467,note_on,6,0,0,,1,,,73,127
38467,note_on,0,0,0,,2,,,62,127
38562,note_off,95,0,0,,1,,,73,127
38568,note_on,6,0,0,,2,,,74,127
38663,note_off,95,0,0,,2,,,74,127
38668,note_off,5,0,0,,2,,,62,127
38669,note_on,1,0,0,,10,,,81,127
38760,note_off,91,0,0,,10,,,81,127
38781,note_on,21,0,0,,2,,,74,127
38872,note_on,91,0,0,,1,,,73,127
38872,note_on,0,0,0,,6,,,54,127
38876,note_off,4,0,0,,2,,,74,127
38967,note_off,91,0,0,,1,,,73,127
38973,note_on,6,0,0,,2,,,74,127
39068,note_off,95,0,0,,2,,,74,127
39068,note_off,0,0,0,,6,,,54,127
39074,note_on,6,0,0,,12,,,83,127
39074,note_on,0,0,0,,7,,,43,127
39169,note_off,95,0,0,,12,,,83,127
39175,note_on,6,0,0,,7,,,79,127
39270,note_off,95,0,0,,7,,,79,127
39270,note_off,0,0,0,,7,,,43,127
39276,note_on,6,0,0,,6,,,78,127
39276,note_on,0,0,0,,7,,,55,127
39371,note_off,95,0,0,,6,,,78,127
39377,note_on,6,0,0,,7,,,79,127
39472,note_off,95,0,0,,7,,,79,127
39472,note_off,0,0,0,,7,,,55,127
39478,note_on,6,0,0,,10,,,81,127
39478,note_on,0,0,0,,6,,,54,127
39573,note_off,95,0,0,,10,,,81,127
39579,note_on,6,0,0,,2,,,74,127
39674,note_off,95,0,0,,2,,,74,127
39674,note_off,0,0,0,,6,,,54,127
39680,note_on,6,0,0,,1,,,73,127
39680,note_on,0,0,0,,2,,,50,127
39775,note_off,95,0,0,,1,,,73,127
39781,note_on,6,0,0,,2,,,74,127
39876,note_off,95,0,0,,2,,,74,127
39876,note_off,0,0,0,,2,,,50,127
39882,note_on,6,0,0,,12,,,83,127
39882,note_on,0,0,0,,7,,,55,127
39977,note_off,95,0,0,,12,,,83,127
39983,note_on,6,0,0,,4,,,76,127
40078,note_off,95,0,0,,4,,,76,127
40084,note_on,6,0,0,,3,,,75,127
40179,note_off,95,0,0,,3,,,75,127
40185,note_on,6,0,0,,4,,,76,127
40280,note_off,95,0,0,,4,,,76,127
40280,note_off,0,0,0,,7,,,55,127
40286,note_on,6,0,0,,6,,,78,127
40286,note_on,0,0,0,,10,,,57,127
40377,note_off,91,0,0,,6,,,78,127
40388,note_on,11,0,0,,12,,,71,127
40483,note_off,95,0,0,,12,,,71,127
40483,note_off,0,0,0,,10,,,57,127
40489,note_on,6,0,0,,11,,,70,127
40489,note_on,0,0,0,,12,,,59,127
40584,note_off,95,0,0,,11,,,70,127
40590,note_on,6,0,0,,12,,,71,127
40685,note_off,95,0,0,,12,,,71,127
40685,note_off,0,0,0,,12,,,59,127
40691,note_on,6,0,0,,7,,,79,127
40691,note_on,0,0,0,,4,,,52,127
40786,note_off,95,0,0,,7,,,79,127
40792,note_on,6,0,0,,4,,,76,127
40887,note_off,95,0,0,,4,,,76,127
40887,note_off,0,0,0,,4,,,52,127
40893,note_on,6,0,0,,3,,,75,127
40893,note_on,0,0,0,,4,,,64,127
40988,note_off,95,0,0,,3,,,75,127
40994,note_on,6,0,0,,4,,,76,127
41089,note_off,95,0,0,,4,,,76,127
41089,note_off,0,0,0,,4,,,64,127
41095,note_on,6,0,0,,6,,,78,127
41095,note_on,0,0,0,,3,,,63,127
41190,note_off,95,0,0,,6,,,78,127
41196,note_on,6,0,0,,12,,,71,127
41291,note_off,95,0,0,,12,,,71,127
41291,note_off,0,0,0,,3,,,63,127
41297,note_on,6,0,0,,11,,,70,127
41297,note_on,0,0,0,,12,,,59,127
41392,note_off,95,0,0,,11,,,70,127
41398,note_on,6,0,0,,12,,,71,127
41493,note_off,95,0,0,,12,,,71,127
41493,note_off,0,0,0,,12,,,59,127
41499,note_on,6,0,0,,8,,,80,127
41499,note_on,0,0,0,,4,,,52,127
41594,note_off,95,0,0,,8,,,80,127
41600,note_on,6,0,0,,4,,,76,127
41695,note_off,95,0,0,,4,,,76,127
41695,note_off,0,0,0,,4,,,52,127
41701,note_on,6,0,0,,3,,,75,127
41701,note_on,0,0,0,,4,,,64,127
41796,note_off,95,0,0,,3,,,75,127
41802,note_on,6,0,0,,4,,,76,127
41897,note_off,95,0,0,,4,,,76,127
41903,note_on,6,0,0,,12,,,83,127
41994,note_off,91,0,0,,12,,,83,127
42005,note_off,11,0,0,,4,,,64,127
42013,note_on,8,0,0,,2,,,74,127
42106,note_on,93,0,0,,0,,,72,127
42106,note_on,0,0,0,,8,,,56,127
42121,note_off,15,0,0,,2,,,74,127
42201,note_off,80,0,0,,0,,,72,127
42207,note_on,6,0,0,,12,,,71,127
42302,note_off,95,0,0,,12,,,71,127
42302,note_off,0,0,0,,8,,,56,127
42308,note_on,6,0,0,,4,,,76,127
42308,note_on,0,0,0,,10,,,45,127
42403,note_off,95,0,0,,4,,,76,127
42409,note_on,6,0,0,,10,,,69,127
42504,note_off,95,0,0,,10,,,69,127
42504,note_off,0,0,0,,10,,,45,127
42510,note_on,6,0,0,,8,,,68,127
42510,note_on,0,0,0,,10,,,57,127
42605,note_off,95,0,0,,8,,,68,127
42611,note_on,6,0,0,,10,,,69,127
42706,note_off,95,0,0,,10,,,69,127
42706,note_off,0,0,0,,10,,,57,127
42712,note_on,6,0,0,,12,,,71,127
42712,note_on,0,0,0,,8,,,56,127
42807,note_off,95,0,0,,12,,,71,127
42813,note_on,6,0,0,,4,,,64,127
42908,note_off,95,0,0,,4,,,64,127
42908,note_off,0,0,0,,8,,,56,127
42914,note_on,6,0,0,,3,,,63,127
42914,note_on,0,0,0,,4,,,52,127
43009,note_off,95,0,0,,3,,,63,127
43015,note_on,6,0,0,,4,,,64,127
43102,note_off,87,0,0,,4,,,64,127
43109,note_off,7,0,0,,4,,,52,127
43132,note_on,23,0,0,,10,,,45,127
43132,note_on,0,0,0,,0,,,72,127
43227,note_off,95,0,0,,10,,,45,127
43233,note_on,6,0,0,,10,,,57,127
43328,note_off,95,0,0,,10,,,57,127
43328,note_off,0,0,0,,0,,,72,127
43334,note_on,6,0,0,,4,,,52,127
43334,note_on,0,0,0,,0,,,72,127
43429,note_off,95,0,0,,4,,,52,127
43435,note_on,6,0,0,,10,,,45,127
43530,note_off,95,0,0,,10,,,45,127
43530,note_off,0,0,0,,0,,,72,127
43536,note_on,6,0,0,,5,,,41,127
43536,note_on,0,0,0,,0,,,72,127
43631,note_off,95,0,0,,5,,,41,127
43637,note_on,6,0,0,,5,,,53,127
43732,note_off,95,0,0,,5,,,53,127
43732,note_off,0,0,0,,0,,,72,127
43738,note_on,6,0,0,,0,,,48,127
43738,note_on,0,0,0,,0,,,72,127
43833,note_off,95,0,0,,0,,,48,127
43839,note_on,6,0,0,,5,,,41,127
43934,note_off,95,0,0,,5,,,41,127
43934,note_off,0,0,0,,0,,,72,127
43940,note_on,6,0,0,,4,,,40,127
43940,note_on,0,0,0,,0,,,72,127
44035,note_off,95,0,0,,4,,,40,127
44041,note_on,6,0,0,,4,,,52,127
44136,note_off,95,0,0,,4,,,52,127
44136,note_off,0,0,0,,0,,,72,127
44142,note_on,6,0,0,,0,,,48,127
44142,note_on,0,0,0,,7,,,67,127
44237,note_off,95,0,0,,0,,,48,127
44243,note_on,6,0,0,,4,,,40,127
44338,note_off,95,0,0,,4,,,40,127
44338,note_off,0,0,0,,7,,,67,127
44344,note_on,6,0,0,,5,,,41,127
44344,note_on,0,0,0,,10,,,69,127
44439,note_off,95,0,0,,5,,,41,127
44445,note_on,6,0,0,,5,,,53,127
44540,note_off,95,0,0,,5,,,53,127
44540,note_off,0,0,0,,10,,,69,127
44546,note_on,6,0,0,,0,,,48,127
44546,note_on,0,0,0,,5,,,65,127
44641,note_off,95,0,0,,0,,,48,127
44647,note_on,6,0,0,,5,,,41,127
44742,note_off,95,0,0,,5,,,41,127
44742,note_off,0,0,0,,5,,,65,127
44748,note_on,6,0,0,,4,,,40,127
44748,note_on,0,0,0,,0,,,72,127
44843,note_off,95,0,0,,4,,,40,127
44849,note_on,6,0,0,,4,,,52,127
44944,note_off,95,0,0,,4,,,52,127
44944,note_off,0,0,0,,0,,,72,127
44950,note_on,6,0,0,,0,,,48,127
44950,note_on,0,0,0,,7,,,67,127
45045,note_off,95,0,0,,0,,,48,127
45051,note_on,6,0,0,,4,,,40,127
45146,note_off,95,0,0,,4,,,40,127
45146,note_off,0,0,0,,7,,,67,127
45152,note_on,6,0,0,,5,,,41,127
45152,note_on,0,0,0,,10,,,69,127
45247,note_off,95,0,0,,5,,,41,127
45253,note_on,6,0,0,,5,,,53,127
45348,note_off,95,0,0,,5,,,53,127
45348,note_off,0,0,0,,10,,,69,127
45354,note_on,6,0,0,,0,,,48,127
45354,note_on,0,0,0,,5,,,65,127
45449,note_off,95,0,0,,0,,,48,127
45455,note_on,6,0,0,,5,,,41,127
45550,note_off,95,0,0,,5,,,41,127
45550,note_off,0,0,0,,5,,,65,127
45556,note_on,6,0,0,,4,,,40,127
45556,note_on,0,0,0,,0,,,72,127
45651,note_off,95,0,0,,4,,,40,127
45657,note_on,6,0,0,,4,,,52,127
45752,note_off,95,0,0,,4,,,52,127
45758,note_on,6,0,0,,0,,,48,127
45758,note_on,0,0,0,,7,,,67,127
45766,note_off,8,0,0,,0,,,72,127
45852,note_off,86,0,0,,0,,,48,127
45858,note_on,6,0,0,,4,,,40,127
45953,note_off,95,0,0,,4,,,40,127
45953,note_off,0,0,0,,7,,,67,127
45959,note_on,6,0,0,,2,,,38,127
45959,note_on,0,0,0,,2,,,74,127
46054,note_off,95,0,0,,2,,,38,127
46060,note_on,6,0,0,,2,,,50,127
46155,note_off,95,0,0,,2,,,50,127
46161,note_on,6,0,0,,12,,,47,127
46161,note_on,0,0,0,,7,,,67,127
46169,note_off,8,0,0,,2,,,74,127
46255,note_off,86,0,0,,12,,,47,127
46261,note_on,6,0,0,,2,,,38,127
46356,note_off,95,0,0,,2,,,38,127
46356,note_off,0,0,0,,7,,,67,127
46362,note_on,6,0,0,,0,,,36,127
46362,note_on,0,0,0,,4,,,76,127
46457,note_off,95,0,0,,4,,,76,127
46463,note_on,6,0,0,,0,,,72,127
46558,note_off,95,0,0,,0,,,72,127
46558,note_off,0,0,0,,0,,,36,127
46564,note_on,6,0,0,,0,,,48,127
46564,note_on,0,0,0,,4,,,76,127
46659,note_off,95,0,0,,4,,,76,127
46665,note_on,6,0,0,,7,,,79,127
46760,note_off,95,0,0,,7,,,79,127
46766,note_on,6,0,0,,0,,,84,127
46859,note_off,93,0,0,,0,,,48,127
46861,note_off,2,0,0,,0,,,84,127
46867,note_on,6,0,0,,7,,,79,127
46962,note_off,95,0,0,,7,,,79,127
46968,note_on,6,0,0,,4,,,52,127
46968,note_on,0,0,0,,4,,,76,127
47063,note_off,95,0,0,,4,,,76,127
47069,note_on,6,0,0,,0,,,72,127
47164,note_off,95,0,0,,0,,,72,127
47164,note_off,0,0,0,,4,,,52,127
47170,note_on,6,0,0,,5,,,53,127
47170,note_on,0,0,0,,10,,,81,127
47271,note_on,101,0,0,,10,,,69,127
47296,note_off,25,0,0,,10,,,81,127
47365,note_off,69,0,0,,10,,,69,127
47365,note_off,0,0,0,,5,,,53,127
47371,note_on,6,0,0,,4,,,52,127
47371,note_on,0,0,0,,7,,,79,127
47472,note_on,101,0,0,,7,,,67,127
47497,note_off,25,0,0,,7,,,79,127
47566,note_off,69,0,0,,7,,,67,127
47566,note_off,0,0,0,,4,,,52,127
47572,note_on,6,0,0,,2,,,50,127
47572,note_on,0,0,0,,5,,,77,127
47673,note_on,101,0,0,,5,,,65,127
47698,note_off,25,0,0,,5,,,77,127
47767,note_off,69,0,0,,5,,,65,127
47767,note_off,0,0,0,,2,,,50,127
47773,note_on,6,0,0,,0,,,48,127
47773,note_on,0,0,0,,4,,,76,127
47874,note_on,101,0,0,,4,,,64,127
47899,note_off,25,0,0,,4,,,76,127
47968,note_off,69,0,0,,4,,,64,127
47968,note_off,0,0,0,,0,,,48,127
47974,note_on,6,0,0,,7,,,43,127
47974,note_on,0,0,0,,2,,,74,127
48086,note_on,112,0,0,,7,,,67,127
48098,note_off,12,0,0,,2,,,74,127
48181,note_off,83,0,0,,7,,,67,127
48189,note_on,8,0,0,,7,,,55,127
48189,note_on,0,0,0,,12,,,71,127
48269,note_off,80,0,0,,7,,,43,127
48294,note_off,25,0,0,,12,,,71,127
48294,note_on,0,0,0,,2,,,74,127
48389,note_off,95,0,0,,2,,,74,127
48395,note_on,6,0,0,,7,,,79,127
48490,note_off,95,0,0,,7,,,79,127
48492,note_off,2,0,0,,7,,,55,127
48496,note_on,4,0,0,,3,,,75,127
48591,note_off,95,0,0,,3,,,75,127
48597,note_on,6,0,0,,5,,,77,127
48597,note_on,0,0,0,,12,,,59,127
48692,note_off,95,0,0,,5,,,77,127
48698,note_on,6,0,0,,2,,,74,127
48789,note_off,91,0,0,,2,,,74,127
48793,note_off,4,0,0,,12,,,59,127
48799,note_on,6,0,0,,3,,,75,127
48799,note_on,0,0,0,,0,,,60,127
48894,note_off,95,0,0,,3,,,75,127
48900,note_on,6,0,0,,0,,,72,127
48995,note_off,95,0,0,,0,,,72,127
48995,note_off,0,0,0,,0,,,60,127
49001,note_on,6,0,0,,12,,,71,127
49001,note_on,0,0,0,,0,,,60,127
49096,note_off,95,0,0,,12,,,71,127
49102,note_on,6,0,0,,0,,,72,127
49197,note_off,95,0,0,,0,,,72,127
49203,note_on,6,0,0,,2,,,74,127
49298,note_off,95,0,0,,2,,,74,127
49304,note_off,6,0,0,,0,,,60,127
49304,note_on,0,0,0,,7,,,67,127
49399,note_off,95,0,0,,7,,,67,127
49405,note_on,6,0,0,,6,,,66,127
49405,note_on,0,0,0,,12,,,59,127
49500,note_off,95,0,0,,6,,,66,127
49506,note_on,6,0,0,,7,,,67,127
49601,note_off,95,0,0,,7,,,67,127
49601,note_off,0,0,0,,12,,,59,127
49607,note_on,6,0,0,,3,,,75,127
49607,note_on,0,0,0,,0,,,60,127
49702,note_off,95,0,0,,3,,,75,127
49708,note_on,6,0,0,,0,,,72,127
49803,note_off,95,0,0,,0,,,72,127
49803,note_off,0,0,0,,0,,,60,127
49809,note_on,6,0,0,,12,,,71,127
49809,note_on,0,0,0,,0,,,60,127
49904,note_off,95,0,0,,12,,,71,127
49910,note_on,6,0,0,,0,,,72,127
50005,note_off,95,0,0,,0,,,72,127
50011,note_on,6,0,0,,2,,,74,127
50106,note_off,95,0,0,,2,,,74,127
50112,note_off,6,0,0,,0,,,60,127
50112,note_on,0,0,0,,7,,,67,127
50207,note_off,95,0,0,,7,,,67,127
50213,note_on,6,0,0,,6,,,66,127
50213,note_on,0,0,0,,12,,,59,127
50308,note_off,95,0,0,,6,,,66,127
50314,note_on,6,0,0,,7,,,67,127
50409,note_off,95,0,0,,7,,,67,127
50409,note_off,0,0,0,,12,,,59,127
50415,note_on,6,0,0,,4,,,76,127
50415,note_on,0,0,0,,0,,,60,127
50510,note_off,95,0,0,,4,,,76,127
50516,note_on,6,0,0,,0,,,72,127
50611,note_off,95,0,0,,0,,,72,127
50611,note_off,0,0,0,,0,,,60,127
50617,note_on,6,0,0,,4,,,76,127
50617,note_on,0,0,0,,0,,,60,127
50712,note_off,95,0,0,,4,,,76,127
50718,note_on,6,0,0,,7,,,79,127
50813,note_off,95,0,0,,7,,,79,127
50819,note_on,6,0,0,,0,,,84,127
50914,note_off,95,0,0,,0,,,84,127
50920,note_off,6,0,0,,0,,,60,127
50920,note_on,0,0,0,,8,,,80,127
51015,note_off,95,0,0,,8,,,80,127
51021,note_on,6,0,0,,11,,,82,127
51021,note_on,0,0,0,,4,,,52,127
51116,note_off,95,0,0,,11,,,82,127
51122,note_on,6,0,0,,7,,,79,127
51217,note_off,95,0,0,,7,,,79,127
51217,note_off,0,0,0,,4,,,52,127
51223,note_on,6,0,0,,8,,,80,127
51223,note_on,0,0,0,,5,,,53,127
51318,note_off,95,0,0,,8,,,80,127
51324,note_on,6,0,0,,5,,,77,127
51419,note_off,95,0,0,,5,,,77,127
51419,note_off,0,0,0,,5,,,53,127
51425,note_on,6,0,0,,4,,,76,127
51425,note_on,0,0,0,,5,,,53,127
51520,note_off,95,0,0,,4,,,76,127
51526,note_on,6,0,0,,5,,,77,127
51621,note_off,95,0,0,,5,,,77,127
51627,note_on,6,0,0,,7,,,79,127
51722,note_off,95,0,0,,7,,,79,127
51728,note_off,6,0,0,,5,,,53,127
51728,note_on,0,0,0,,0,,,72,127
51823,note_off,95,0,0,,0,,,72,127
51829,note_on,6,0,0,,12,,,71,127
51829,note_on,0,0,0,,4,,,52,127
51924,note_off,95,0,0,,12,,,71,127
51930,note_on,6,0,0,,0,,,72,127
52025,note_off,95,0,0,,0,,,72,127
52025,note_off,0,0,0,,4,,,52,127
52031,note_on,6,0,0,,8,,,80,127
52031,note_on,0,0,0,,5,,,53,127
52126,note_off,95,0,0,,8,,,80,127
52132,note_on,6,0,0,,5,,,77,127
52227,note_off,95,0,0,,5,,,77,127
52227,note_off,0,0,0,,5,,,53,127
52233,note_on,6,0,0,,4,,,76,127
52233,note_on,0,0,0,,5,,,65,127
52328,note_off,95,0,0,,4,,,76,127
52334,note_on,6,0,0,,5,,,77,127
52429,note_off,95,0,0,,5,,,77,127
52429,note_off,0,0,0,,5,,,65,127
52435,note_on,6,0,0,,7,,,79,127
52435,note_on,0,0,0,,4,,,64,127
52530,note_off,95,0,0,,7,,,79,127
52536,note_on,6,0,0,,0,,,72,127
52631,note_off,95,0,0,,0,,,72,127
52631,note_off,0,0,0,,4,,,64,127
52637,note_on,6,0,0,,12,,,71,127
52637,note_on,0,0,0,,0,,,60,127
52732,note_off,95,0,0,,12,,,71,127
52738,note_on,6,0,0,,0,,,72,127
52819,note_off,81,0,0,,0,,,72,127
52833,note_off,14,0,0,,0,,,60,127
52856,note_on,23,0,0,,5,,,65,127
52856,note_on,0,0,0,,8,,,80,127
52951,note_off,95,0,0,,8,,,80,127
52957,note_on,6,0,0,,0,,,84,127
53052,note_off,95,0,0,,0,,,84,127
53052,note_off,0,0,0,,5,,,65,127
53058,note_on,6,0,0,,3,,,63,127
53058,note_on,0,0,0,,7,,,79,127
53153,note_off,95,0,0,,7,,,79,127
53159,note_on,6,0,0,,0,,,84,127
53254,note_off,95,0,0,,0,,,84,127
53254,note_off,0,0,0,,3,,,63,127
53260,note_on,6,0,0,,2,,,62,127
53260,note_on,0,0,0,,5,,,77,127
53355,note_off,95,0,0,,5,,,77,127
53361,note_on,6,0,0,,0,,,84,127
53456,note_off,95,0,0,,0,,,84,127
53456,note_off,0,0,0,,2,,,62,127
53462,note_on,6,0,0,,0,,,60,127
53462,note_on,0,0,0,,3,,,75,127
53557,note_off,95,0,0,,3,,,75,127
53563,note_on,6,0,0,,0,,,84,127
53658,note_off,95,0,0,,0,,,84,127
53658,note_off,0,0,0,,0,,,60,127
53664,note_on,6,0,0,,11,,,58,127
53664,note_on,0,0,0,,2,,,74,127
53759,note_off,95,0,0,,2,,,74,127
53765,note_on,6,0,0,,7,,,79,127
53860,note_off,95,0,0,,7,,,79,127
53860,note_off,0,0,0,,11,,,58,127
53866,note_on,6,0,0,,8,,,56,127
53866,note_on,0,0,0,,0,,,72,127
53961,note_off,95,0,0,,0,,,72,127
53967,note_on,6,0,0,,7,,,79,127
54062,note_off,95,0,0,,7,,,79,127
54062,note_off,0,0,0,,8,,,56,127
54068,note_on,6,0,0,,7,,,55,127
54068,note_on,0,0,0,,12,,,71,127
54163,note_off,95,0,0,,12,,,71,127
54169,note_on,6,0,0,,7,,,79,127
54264,note_off,95,0,0,,7,,,79,127
54264,note_off,0,0,0,,7,,,55,127
54270,note_on,6,0,0,,5,,,53,127
54270,note_on,0,0,0,,10,,,69,127
54365,note_off,95,0,0,,10,,,69,127
54371,note_on,6,0,0,,7,,,79,127
54466,note_off,95,0,0,,7,,,79,127
54466,note_off,0,0,0,,5,,,53,127
54472,note_on,6,0,0,,4,,,52,127
54472,note_on,0,0,0,,7,,,67,127
54567,note_off,95,0,0,,7,,,67,127
54573,note_on,6,0,0,,0,,,72,127
54668,note_off,95,0,0,,0,,,72,127
54668,note_off,0,0,0,,4,,,52,127
54674,note_on,6,0,0,,2,,,50,127
54674,note_on,0,0,0,,5,,,65,127
54769,note_off,95,0,0,,5,,,65,127
54775,note_on,6,0,0,,0,,,72,127
54870,note_off,95,0,0,,0,,,72,127
54870,note_off,0,0,0,,2,,,50,127
54876,note_on,6,0,0,,0,,,48,127
54876,note_on,0,0,0,,4,,,64,127
54971,note_off,95,0,0,,4,,,64,127
54977,note_on,6,0,0,,0,,,72,127
55072,note_off,95,0,0,,0,,,72,127
55072,note_off,0,0,0,,0,,,48,127
55078,note_on,6,0,0,,12,,,47,127
55078,note_on,0,0,0,,2,,,62,127
55173,note_off,95,0,0,,2,,,62,127
55179,note_on,6,0,0,,0,,,72,127
55274,note_off,95,0,0,,0,,,72,127
55274,note_off,0,0,0,,12,,,47,127
55280,note_on,6,0,0,,10,,,45,127
55280,note_on,0,0,0,,0,,,60,127
55375,note_off,95,0,0,,0,,,60,127
55381,note_on,6,0,0,,12,,,71,127
55476,note_off,95,0,0,,12,,,71,127
55476,note_off,0,0,0,,10,,,45,127
55482,note_on,6,0,0,,5,,,53,127
55482,note_on,0,0,0,,0,,,72,127
55577,note_off,95,0,0,,0,,,72,127
55583,note_on,6,0,0,,2,,,74,127
55678,note_off,95,0,0,,2,,,74,127
55678,note_off,0,0,0,,5,,,53,127
55684,note_on,6,0,0,,7,,,55,127
55684,note_on,0,0,0,,4,,,76,127
55779,note_off,95,0,0,,4,,,76,127
55785,note_on,6,0,0,,0,,,72,127
55880,note_off,95,0,0,,0,,,72,127
55886,note_on,6,0,0,,7,,,43,127
55886,note_on,0,0,0,,2,,,74,127
55981,note_off,95,0,0,,2,,,74,127
55987,note_on,6,0,0,,12,,,71,127
56082,note_off,95,0,0,,12,,,71,127
56082,note_off,0,0,0,,7,,,43,127
56084,note_off,2,0,0,,7,,,55,127
56088,note_on,4,0,0,,0,,,36,127
56088,note_on,0,0,0,,0,,,72,127
56206,note_on,118,0,0,,0,,,48,127
56257,note_off,51,0,0,,0,,,36,127
56264,note_off,7,0,0,,0,,,72,127
56301,note_off,37,0,0,,0,,,48,127
56307,note_on,6,0,0,,7,,,79,127
56307,note_on,0,0,0,,7,,,43,127
56402,note_off,95,0,0,,7,,,43,127
56408,note_on,6,0,0,,0,,,36,127
56503,note_off,95,0,0,,0,,,36,127
56503,note_off,0,0,0,,7,,,79,127
56509,note_on,6,0,0,,7,,,79,127
56509,note_on,0,0,0,,7,,,43,127
56610,note_on,101,0,0,,7,,,55,127
56656,note_off,46,0,0,,7,,,43,127
56704,note_off,48,0,0,,7,,,55,127
56704,note_off,0,0,0,,7,,,79,127
56710,note_on,6,0,0,,7,,,79,127
56710,note_on,0,0,0,,2,,,50,127
56805,note_off,95,0,0,,2,,,50,127
56811,note_on,6,0,0,,7,,,43,127
56906,note_off,95,0,0,,7,,,43,127
56906,note_off,0,0,0,,7,,,79,127
56912,note_on,6,0,0,,4,,,76,127
56912,note_on,0,0,0,,0,,,48,127
57013,note_on,101,0,0,,0,,,60,127
57059,note_off,46,0,0,,0,,,48,127
57107,note_off,48,0,0,,0,,,60,127
57107,note_off,0,0,0,,4,,,76,127
57113,note_on,6,0,0,,0,,,72,127
57113,note_on,0,0,0,,7,,,55,127
57208,note_off,95,0,0,,7,,,55,127
57214,note_on,6,0,0,,0,,,48,127
57309,note_off,95,0,0,,0,,,48,127
57309,note_off,0,0,0,,0,,,72,127
57315,note_on,6,0,0,,2,,,74,127
57315,note_on,0,0,0,,7,,,43,127
57416,note_on,101,0,0,,7,,,55,127
57462,note_off,46,0,0,,7,,,43,127
57510,note_off,48,0,0,,7,,,55,127
57510,note_off,0,0,0,,2,,,74,127
57516,note_on,6,0,0,,7,,,67,127
57516,note_on,0,0,0,,2,,,50,127
57611,note_off,95,0,0,,2,,,50,127
57617,note_on,6,0,0,,7,,,43,127
57712,note_off,95,0,0,,7,,,43,127
57712,note_off,0,0,0,,7,,,67,127
57718,note_on,6,0,0,,4,,,76,127
57718,note_on,0,0,0,,0,,,36,127
57819,note_on,101,0,0,,0,,,48,127
57886,note_off,67,0,0,,0,,,36,127
57913,note_off,27,0,0,,0,,,48,127
57913,note_off,0,0,0,,4,,,76,127
57919,note_on,6,0,0,,0,,,72,127
57919,note_on,0,0,0,,7,,,43,127
58014,note_off,95,0,0,,7,,,43,127
58020,note_on,6,0,0,,0,,,36,127
58115,note_off,95,0,0,,0,,,36,127
58115,note_off,0,0,0,,0,,,72,127
58121,note_on,6,0,0,,2,,,74,127
58121,note_on,0,0,0,,7,,,43,127
58222,note_on,101,0,0,,7,,,55,127
58247,note_off,25,0,0,,7,,,43,127
58316,note_off,69,0,0,,7,,,55,127
58316,note_off,0,0,0,,2,,,74,127
58322,note_on,6,0,0,,7,,,79,127
58322,note_on,0,0,0,,2,,,50,127
58417,note_off,95,0,0,,2,,,50,127
58423,note_on,6,0,0,,7,,,43,127
58518,note_off,95,0,0,,7,,,43,127
58518,note_off,0,0,0,,7,,,79,127
58524,note_on,6,0,0,,4,,,76,127
58524,note_on,0,0,0,,0,,,36,127
58625,note_on,101,0,0,,0,,,48,127
58692,note_off,67,0,0,,0,,,36,127
58719,note_off,27,0,0,,0,,,48,127
58719,note_off,0,0,0,,4,,,76,127
58725,note_on,6,0,0,,0,,,72,127
58725,note_on,0,0,0,,7,,,43,127
58820,note_off,95,0,0,,7,,,43,127
58826,note_on,6,0,0,,0,,,36,127
58921,note_off,95,0,0,,0,,,36,127
58921,note_off,0,0,0,,0,,,72,127
58927,note_on,6,0,0,,2,,,74,127
58927,note_on,0,0,0,,7,,,43,127
59028,note_on,101,0,0,,7,,,55,127
59053,note_off,25,0,0,,7,,,43,127
59122,note_off,69,0,0,,7,,,55,127
59122,note_off,0,0,0,,2,,,74,127
59128,note_on,6,0,0,,7,,,67,127
59128,note_on,0,0,0,,2,,,50,127
59223,note_off,95,0,0,,2,,,50,127
59229,note_on,6,0,0,,7,,,43,127
59324,note_off,95,0,0,,7,,,43,127
59324,note_off,0,0,0,,7,,,67,127
59368,note_on,44,0,0,,0,,,36,127
59368,note_on,0,0,0,,0,,,72,127
61052,note_off,1684,0,0,,0,,,72,127
61052,note_off,0,0,0,,0,,,36,127
66048,end_of_track,4996,1,0,,,,,,
