tick,type,time,meta,track,program,channel,pitch,tempo,note,velocity
0,copyright,0,1,0,,,,,,
0,program_change,0,0,0,6,0,,,,
0,pitchwheel,0,0,0,,0,0,,,
0,program_change,0,0,0,6,1,,,,
0,pitchwheel,0,0,0,,1,0,,,
0,program_change,0,0,0,6,2,,,,
0,pitchwheel,0,0,0,,2,0,,,
0,program_change,0,0,0,6,3,,,,
0,pitchwheel,0,0,0,,3,0,,,
0,program_change,0,0,0,6,4,,,,
0,pitchwheel,0,0,0,,4,0,,,
0,program_change,0,0,0,6,5,,,,
0,pitchwheel,0,0,0,,5,0,,,
0,program_change,0,0,0,6,6,,,,
0,pitchwheel,0,0,0,,6,0,,,
0,program_change,0,0,0,6,7,,,,
0,pitchwheel,0,0,0,,7,0,,,
0,program_change,0,0,0,6,8,,,,
0,pitchwheel,0,0,0,,8,0,,,
0,set_tempo,0,1,0,,,,500000,,
96,note_on,96,0,0,,0,,,48,95
96,note_on,0,0,0,,0,,,72,95
96,note_on,0,0,0,,0,,,67,95
96,note_on,0,0,0,,0,,,63,95
96,note_on,0,0,0,,1,,,72,127
330,note_off,234,0,0,,1,,,72,127
331,note_on,1,0,0,,1,,,67,127
565,note_off,234,0,0,,1,,,67,127
565,note_off,0,0,0,,0,,,63,95
565,note_off,0,0,0,,0,,,67,95
565,note_off,0,0,0,,0,,,72,95
565,note_off,0,0,0,,0,,,48,95
566,note_on,1,0,0,,1,,,75,127
801,note_on,235,0,0,,0,,,60,95
801,note_on,0,0,0,,0,,,67,95
993,note_off,192,0,0,,1,,,75,127
1035,note_off,42,0,0,,0,,,67,95
1035,note_off,0,0,0,,0,,,60,95
1036,note_on,1,0,0,,0,,,59,95
1036,note_on,0,0,0,,0,,,69,95
1036,note_on,0,0,0,,1,,,74,127
1270,note_off,234,0,0,,0,,,69,95
1270,note_off,0,0,0,,0,,,59,95
1271,note_on,1,0,0,,0,,,55,95
1271,note_on,0,0,0,,0,,,71,95
1463,note_off,192,0,0,,1,,,74,127
1505,note_off,42,0,0,,0,,,71,95
1505,note_off,0,0,0,,0,,,55,95
1506,note_on,1,0,0,,0,,,56,95
1506,note_on,0,0,0,,0,,,63,95
1506,note_on,0,0,0,,0,,,68,95
1506,note_on,0,0,0,,1,,,74,127
1623,note_off,117,0,0,,1,,,74,127
1624,note_on,1,0,0,,1,,,72,127
1741,note_off,117,0,0,,1,,,72,127
1742,note_on,1,0,0,,1,,,71,127
1976,note_off,234,0,0,,1,,,71,127
1976,note_off,0,0,0,,0,,,68,95
1976,note_off,0,0,0,,0,,,63,95
1976,note_off,0,0,0,,0,,,56,95
1977,note_on,1,0,0,,1,,,72,127
2212,note_on,235,0,0,,0,,,53,95
2212,note_on,0,0,0,,0,,,69,95
2380,note_off,168,0,0,,1,,,72,127
2446,note_off,66,0,0,,0,,,69,95
2446,note_off,0,0,0,,0,,,53,95
2447,note_on,1,0,0,,0,,,51,95
2447,note_on,0,0,0,,0,,,71,95
2447,note_on,0,0,0,,1,,,79,127
2681,note_off,234,0,0,,0,,,71,95
2681,note_off,0,0,0,,0,,,51,95
2682,note_on,1,0,0,,0,,,48,95
2682,note_on,0,0,0,,0,,,72,95
2916,note_off,234,0,0,,0,,,72,95
2916,note_off,0,0,0,,0,,,48,95
2916,note_off,0,0,0,,1,,,79,127
2917,note_on,1,0,0,,0,,,50,95
2917,note_on,0,0,0,,0,,,71,95
2917,note_on,0,0,0,,0,,,67,95
2917,note_on,0,0,0,,1,,,77,127
3151,note_off,234,0,0,,1,,,77,127
3151,note_off,0,0,0,,0,,,50,95
3152,note_on,1,0,0,,0,,,47,95
3152,note_on,0,0,0,,1,,,74,127
3386,note_off,234,0,0,,1,,,74,127
3386,note_off,0,0,0,,0,,,47,95
3386,note_off,0,0,0,,0,,,67,95
3386,note_off,0,0,0,,0,,,71,95
3387,note_on,1,0,0,,0,,,48,95
3387,note_on,0,0,0,,0,,,67,95
3387,note_on,0,0,0,,1,,,75,127
3621,note_off,234,0,0,,1,,,75,127
3621,note_off,0,0,0,,0,,,67,95
3621,note_off,0,0,0,,0,,,48,95
3622,note_on,1,0,0,,0,,,51,95
3622,note_on,0,0,0,,0,,,72,95
3622,note_on,0,0,0,,1,,,79,127
3856,note_off,234,0,0,,1,,,79,127
3856,note_off,0,0,0,,0,,,51,95
3857,note_on,1,0,0,,0,,,41,95
3857,note_on,0,0,0,,1,,,80,127
4091,note_off,234,0,0,,1,,,80,127
4091,note_off,0,0,0,,0,,,41,95
4091,note_off,0,0,0,,0,,,72,95
4092,note_on,1,0,0,,0,,,53,95
4092,note_on,0,0,0,,0,,,68,95
4092,note_on,0,0,0,,1,,,72,127
4326,note_off,234,0,0,,1,,,72,127
4326,note_off,0,0,0,,0,,,68,95
4326,note_off,0,0,0,,0,,,53,95
4327,note_on,1,0,0,,0,,,55,95
4327,note_on,0,0,0,,0,,,62,95
4327,note_on,0,0,0,,0,,,67,95
4327,note_on,0,0,0,,1,,,71,127
4561,note_off,234,0,0,,1,,,71,127
4562,note_on,1,0,0,,1,,,72,127
4679,note_off,117,0,0,,1,,,72,127
4680,note_on,1,0,0,,1,,,74,127
4797,note_off,117,0,0,,1,,,74,127
4797,note_off,0,0,0,,0,,,67,95
4797,note_off,0,0,0,,0,,,62,95
4797,note_off,0,0,0,,0,,,55,95
4798,note_on,1,0,0,,1,,,67,127
5033,note_on,235,0,0,,0,,,43,95
5033,note_on,0,0,0,,0,,,67,95
5225,note_off,192,0,0,,1,,,67,127
5267,note_off,42,0,0,,0,,,67,95
5267,note_off,0,0,0,,0,,,43,95
5268,note_on,1,0,0,,0,,,45,95
5268,note_on,0,0,0,,0,,,67,95
5268,note_on,0,0,0,,1,,,77,127
5502,note_off,234,0,0,,0,,,45,95
5503,note_on,1,0,0,,0,,,47,95
5503,note_on,0,0,0,,0,,,74,95
5737,note_off,234,0,0,,0,,,74,95
5737,note_off,0,0,0,,0,,,47,95
5737,note_off,0,0,0,,1,,,77,127
5737,note_off,0,0,0,,0,,,67,95
5738,note_on,1,0,0,,0,,,48,95
5738,note_on,0,0,0,,0,,,64,95
5738,note_on,0,0,0,,0,,,67,95
5738,note_on,0,0,0,,1,,,76,127
5972,note_off,234,0,0,,1,,,76,127
5973,note_on,1,0,0,,1,,,72,127
6207,note_off,234,0,0,,1,,,72,127
6207,note_off,0,0,0,,0,,,67,95
6207,note_off,0,0,0,,0,,,64,95
6207,note_off,0,0,0,,0,,,48,95
6208,note_on,1,0,0,,1,,,70,127
6443,note_on,235,0,0,,0,,,60,95
6443,note_on,0,0,0,,0,,,67,95
6623,note_off,180,0,0,,1,,,70,127
6677,note_off,54,0,0,,0,,,67,95
6677,note_off,0,0,0,,0,,,60,95
6678,note_on,1,0,0,,0,,,61,95
6678,note_on,0,0,0,,0,,,68,95
6678,note_on,0,0,0,,1,,,77,127
6912,note_off,234,0,0,,0,,,61,95
6913,note_on,1,0,0,,0,,,58,95
6913,note_on,0,0,0,,0,,,70,95
7147,note_off,234,0,0,,0,,,70,95
7147,note_off,0,0,0,,0,,,58,95
7147,note_off,0,0,0,,1,,,77,127
7147,note_off,0,0,0,,0,,,68,95
7148,note_on,1,0,0,,0,,,60,95
7148,note_on,0,0,0,,0,,,64,95
7148,note_on,0,0,0,,0,,,67,95
7148,note_on,0,0,0,,1,,,76,127
7382,note_off,234,0,0,,1,,,76,127
7383,note_on,1,0,0,,1,,,72,127
7617,note_off,234,0,0,,1,,,72,127
7617,note_off,0,0,0,,0,,,67,95
7617,note_off,0,0,0,,0,,,64,95
7617,note_off,0,0,0,,0,,,60,95
7618,note_on,1,0,0,,1,,,70,127
7853,note_on,235,0,0,,0,,,48,95
7853,note_on,0,0,0,,0,,,67,95
8087,note_off,234,0,0,,0,,,67,95
8087,note_off,0,0,0,,0,,,48,95
8088,note_on,1,0,0,,0,,,50,95
8088,note_on,0,0,0,,0,,,60,95
8322,note_off,234,0,0,,0,,,50,95
8322,note_off,0,0,0,,1,,,70,127
8323,note_on,1,0,0,,0,,,52,95
8323,note_on,0,0,0,,0,,,67,95
8323,note_on,0,0,0,,1,,,68,127
8440,note_off,117,0,0,,1,,,68,127
8441,note_on,1,0,0,,1,,,67,127
8558,note_off,117,0,0,,1,,,67,127
8558,note_off,0,0,0,,0,,,67,95
8558,note_off,0,0,0,,0,,,52,95
8558,note_off,0,0,0,,0,,,60,95
8559,note_on,1,0,0,,0,,,53,95
8559,note_on,0,0,0,,0,,,60,95
8559,note_on,0,0,0,,0,,,65,95
8559,note_on,0,0,0,,1,,,68,127
8793,note_off,234,0,0,,1,,,68,127
8794,note_on,1,0,0,,1,,,65,127
9020,note_off,226,0,0,,1,,,65,127
9029,note_off,9,0,0,,0,,,65,95
9029,note_off,0,0,0,,0,,,60,95
9029,note_off,0,0,0,,0,,,53,95
9030,note_on,1,0,0,,1,,,77,127
9265,note_on,235,0,0,,0,,,53,95
9265,note_on,0,0,0,,0,,,68,95
9499,note_off,234,0,0,,0,,,68,95
9499,note_off,0,0,0,,0,,,53,95
9499,note_off,0,0,0,,1,,,77,127
9500,note_on,1,0,0,,0,,,55,95
9500,note_on,0,0,0,,0,,,67,95
9500,note_on,0,0,0,,1,,,75,127
9734,note_off,234,0,0,,0,,,67,95
9734,note_off,0,0,0,,0,,,55,95
9735,note_on,1,0,0,,0,,,57,95
9735,note_on,0,0,0,,0,,,65,95
9969,note_off,234,0,0,,0,,,65,95
9969,note_off,0,0,0,,0,,,57,95
9969,note_off,0,0,0,,1,,,75,127
9970,note_on,1,0,0,,0,,,58,95
9970,note_on,0,0,0,,0,,,62,95
9970,note_on,0,0,0,,0,,,65,95
9970,note_on,0,0,0,,1,,,74,127
10204,note_off,234,0,0,,1,,,74,127
10205,note_on,1,0,0,,1,,,70,127
10439,note_off,234,0,0,,1,,,70,127
10439,note_off,0,0,0,,0,,,65,95
10439,note_off,0,0,0,,0,,,62,95
10439,note_off,0,0,0,,0,,,58,95
10440,note_on,1,0,0,,1,,,68,127
10675,note_on,235,0,0,,0,,,58,95
10675,note_on,0,0,0,,0,,,65,95
10855,note_off,180,0,0,,1,,,68,127
10909,note_off,54,0,0,,0,,,65,95
10909,note_off,0,0,0,,0,,,58,95
10910,note_on,1,0,0,,0,,,60,95
10910,note_on,0,0,0,,0,,,67,95
10910,note_on,0,0,0,,1,,,75,127
11144,note_off,234,0,0,,0,,,67,95
11144,note_off,0,0,0,,0,,,60,95
11145,note_on,1,0,0,,0,,,56,95
11145,note_on,0,0,0,,0,,,68,95
11379,note_off,234,0,0,,0,,,68,95
11379,note_off,0,0,0,,0,,,56,95
11379,note_off,0,0,0,,1,,,75,127
11380,note_on,1,0,0,,0,,,58,95
11380,note_on,0,0,0,,0,,,62,95
11380,note_on,0,0,0,,0,,,65,95
11380,note_on,0,0,0,,1,,,74,127
11614,note_off,234,0,0,,1,,,74,127
11615,note_on,1,0,0,,1,,,70,127
11849,note_off,234,0,0,,1,,,70,127
11849,note_off,0,0,0,,0,,,65,95
11849,note_off,0,0,0,,0,,,62,95
11849,note_off,0,0,0,,0,,,58,95
11850,note_on,1,0,0,,1,,,68,127
12085,note_on,235,0,0,,0,,,46,95
12085,note_on,0,0,0,,0,,,65,95
12319,note_off,234,0,0,,0,,,65,95
12319,note_off,0,0,0,,0,,,46,95
12320,note_on,1,0,0,,0,,,48,95
12320,note_on,0,0,0,,0,,,63,95
12554,note_off,234,0,0,,0,,,63,95
12554,note_off,0,0,0,,0,,,48,95
12554,note_off,0,0,0,,1,,,68,127
12555,note_on,1,0,0,,0,,,50,95
12555,note_on,0,0,0,,0,,,58,95
12555,note_on,0,0,0,,1,,,67,127
12672,note_off,117,0,0,,1,,,67,127
12673,note_on,1,0,0,,1,,,65,127
12790,note_off,117,0,0,,1,,,65,127
12790,note_off,0,0,0,,0,,,58,95
12790,note_off,0,0,0,,0,,,50,95
12791,note_on,1,0,0,,0,,,51,95
12791,note_on,0,0,0,,0,,,63,95
12791,note_on,0,0,0,,0,,,67,95
12791,note_on,0,0,0,,1,,,67,127
13025,note_off,234,0,0,,1,,,67,127
13026,note_on,1,0,0,,1,,,72,127
13260,note_off,234,0,0,,1,,,72,127
13260,note_off,0,0,0,,0,,,67,95
13260,note_off,0,0,0,,0,,,63,95
13260,note_off,0,0,0,,0,,,51,95
13261,note_on,1,0,0,,0,,,50,95
13261,note_on,0,0,0,,0,,,65,95
13261,note_on,0,0,0,,0,,,71,95
13261,note_on,0,0,0,,1,,,65,127
13495,note_off,234,0,0,,1,,,65,127
13496,note_on,1,0,0,,1,,,74,127
13730,note_off,234,0,0,,1,,,74,127
13730,note_off,0,0,0,,0,,,71,95
13730,note_off,0,0,0,,0,,,65,95
13730,note_off,0,0,0,,0,,,50,95
13731,note_on,1,0,0,,0,,,48,95
13731,note_on,0,0,0,,0,,,63,95
13731,note_on,0,0,0,,0,,,72,95
13731,note_on,0,0,0,,1,,,67,127
13965,note_off,234,0,0,,1,,,67,127
13966,note_on,1,0,0,,1,,,75,127
14200,note_off,234,0,0,,1,,,75,127
14200,note_off,0,0,0,,0,,,72,95
14200,note_off,0,0,0,,0,,,63,95
14200,note_off,0,0,0,,0,,,48,95
14201,note_on,1,0,0,,0,,,55,95
14201,note_on,0,0,0,,0,,,62,95
14201,note_on,0,0,0,,0,,,67,95
14201,note_on,0,0,0,,1,,,71,127
14435,note_off,234,0,0,,1,,,71,127
14436,note_on,1,0,0,,1,,,74,127
14553,note_off,117,0,0,,1,,,74,127
14554,note_on,1,0,0,,1,,,72,127
14671,note_off,117,0,0,,1,,,72,127
14671,note_off,0,0,0,,0,,,67,95
14671,note_off,0,0,0,,0,,,62,95
14671,note_off,0,0,0,,0,,,55,95
14672,note_on,1,0,0,,1,,,74,127
14906,note_off,234,0,0,,1,,,74,127
14907,note_on,1,0,0,,0,,,55,95
14907,note_on,0,0,0,,0,,,71,95
14907,note_on,0,0,0,,1,,,79,127
15141,note_off,234,0,0,,1,,,79,127
15141,note_off,0,0,0,,0,,,71,95
15141,note_off,0,0,0,,0,,,55,95
15142,note_on,1,0,0,,0,,,56,95
15142,note_on,0,0,0,,0,,,72,95
15142,note_on,0,0,0,,1,,,72,127
15376,note_off,234,0,0,,1,,,72,127
15376,note_off,0,0,0,,0,,,56,95
15377,note_on,1,0,0,,0,,,53,95
15377,note_on,0,0,0,,1,,,80,127
15603,note_off,226,0,0,,1,,,80,127
15612,note_off,9,0,0,,0,,,53,95
15612,note_off,0,0,0,,0,,,72,95
15613,note_on,1,0,0,,0,,,55,95
15613,note_on,0,0,0,,0,,,62,95
15613,note_on,0,0,0,,0,,,67,95
15613,note_on,0,0,0,,1,,,71,127
15847,note_off,234,0,0,,1,,,71,127
15848,note_on,1,0,0,,1,,,74,127
15965,note_off,117,0,0,,1,,,74,127
15966,note_on,1,0,0,,1,,,72,127
16083,note_off,117,0,0,,1,,,72,127
16083,note_off,0,0,0,,0,,,67,95
16083,note_off,0,0,0,,0,,,62,95
16083,note_off,0,0,0,,0,,,55,95
16084,note_on,1,0,0,,1,,,74,127
16318,note_off,234,0,0,,1,,,74,127
16319,note_on,1,0,0,,0,,,55,95
16319,note_on,0,0,0,,0,,,71,95
16319,note_on,0,0,0,,1,,,79,127
16553,note_off,234,0,0,,1,,,79,127
16553,note_off,0,0,0,,0,,,71,95
16553,note_off,0,0,0,,0,,,55,95
16554,note_on,1,0,0,,0,,,56,95
16554,note_on,0,0,0,,0,,,72,95
16554,note_on,0,0,0,,1,,,72,127
16788,note_off,234,0,0,,1,,,72,127
16788,note_off,0,0,0,,0,,,56,95
16789,note_on,1,0,0,,0,,,53,95
16789,note_on,0,0,0,,1,,,80,127
17008,note_off,219,0,0,,1,,,80,127
17023,note_off,15,0,0,,0,,,53,95
17023,note_off,0,0,0,,0,,,72,95
17024,note_on,1,0,0,,0,,,58,95
17024,note_on,0,0,0,,0,,,55,95
17024,note_on,0,0,0,,0,,,72,95
17024,note_on,0,0,0,,1,,,76,127
17258,note_off,234,0,0,,1,,,76,127
17259,note_on,1,0,0,,1,,,77,127
17376,note_off,117,0,0,,1,,,77,127
17377,note_on,1,0,0,,1,,,76,127
17494,note_off,117,0,0,,1,,,76,127
17494,note_off,0,0,0,,0,,,55,95
17494,note_off,0,0,0,,0,,,58,95
17495,note_on,1,0,0,,0,,,60,95
17495,note_on,0,0,0,,0,,,56,95
17495,note_on,0,0,0,,1,,,77,127
17729,note_off,234,0,0,,1,,,77,127
17730,note_on,1,0,0,,1,,,72,127
17949,note_off,219,0,0,,1,,,72,127
17964,note_off,15,0,0,,0,,,56,95
17964,note_off,0,0,0,,0,,,60,95
17964,note_off,0,0,0,,0,,,72,95
17965,note_on,1,0,0,,0,,,58,95
17965,note_on,0,0,0,,0,,,55,95
17965,note_on,0,0,0,,0,,,72,95
17965,note_on,0,0,0,,1,,,76,127
18199,note_off,234,0,0,,1,,,76,127
18200,note_on,1,0,0,,1,,,77,127
18317,note_off,117,0,0,,1,,,77,127
18318,note_on,1,0,0,,1,,,76,127
18435,note_off,117,0,0,,1,,,76,127
18435,note_off,0,0,0,,0,,,55,95
18435,note_off,0,0,0,,0,,,58,95
18436,note_on,1,0,0,,0,,,56,95
18436,note_on,0,0,0,,0,,,60,95
18436,note_on,0,0,0,,1,,,77,127
18670,note_off,234,0,0,,1,,,77,127
18671,note_on,1,0,0,,1,,,72,127
18890,note_off,219,0,0,,1,,,72,127
18905,note_off,15,0,0,,0,,,60,95
18905,note_off,0,0,0,,0,,,56,95
18905,note_off,0,0,0,,0,,,72,95
18906,note_on,1,0,0,,0,,,58,95
18906,note_on,0,0,0,,0,,,55,95
18906,note_on,0,0,0,,0,,,72,95
18906,note_on,0,0,0,,1,,,76,127
19140,note_off,234,0,0,,1,,,76,127
19141,note_on,1,0,0,,1,,,77,127
19258,note_off,117,0,0,,1,,,77,127
19259,note_on,1,0,0,,1,,,76,127
19376,note_off,117,0,0,,1,,,76,127
19376,note_off,0,0,0,,0,,,55,95
19376,note_off,0,0,0,,0,,,58,95
19377,note_on,1,0,0,,0,,,56,95
19377,note_on,0,0,0,,0,,,60,95
19377,note_on,0,0,0,,1,,,77,127
19611,note_off,234,0,0,,1,,,77,127
19612,note_on,1,0,0,,1,,,72,127
19819,note_off,207,0,0,,1,,,72,127
19846,note_off,27,0,0,,0,,,60,95
19846,note_off,0,0,0,,0,,,56,95
19846,note_off,0,0,0,,0,,,72,95
19847,note_on,1,0,0,,0,,,47,95
19847,note_on,0,0,0,,0,,,55,95
19847,note_on,0,0,0,,0,,,67,95
19847,note_on,0,0,0,,1,,,77,127
20081,note_off,234,0,0,,1,,,77,127
20082,note_on,1,0,0,,1,,,75,127
20199,note_off,117,0,0,,1,,,75,127
20200,note_on,1,0,0,,1,,,74,127
20317,note_off,117,0,0,,1,,,74,127
20317,note_off,0,0,0,,0,,,55,95
20317,note_off,0,0,0,,0,,,47,95
20318,note_on,1,0,0,,0,,,48,95
20318,note_on,0,0,0,,0,,,55,95
20318,note_on,0,0,0,,1,,,75,127
20552,note_off,234,0,0,,1,,,75,127
20553,note_on,1,0,0,,1,,,72,127
20772,note_off,219,0,0,,1,,,72,127
20787,note_off,15,0,0,,0,,,55,95
20787,note_off,0,0,0,,0,,,48,95
20787,note_off,0,0,0,,0,,,67,95
20788,note_on,1,0,0,,0,,,47,95
20788,note_on,0,0,0,,0,,,55,95
20788,note_on,0,0,0,,0,,,67,95
20788,note_on,0,0,0,,1,,,77,127
21022,note_off,234,0,0,,1,,,77,127
21023,note_on,1,0,0,,1,,,75,127
21140,note_off,117,0,0,,1,,,75,127
21141,note_on,1,0,0,,1,,,74,127
21258,note_off,117,0,0,,1,,,74,127
21258,note_off,0,0,0,,0,,,55,95
21258,note_off,0,0,0,,0,,,47,95
21259,note_on,1,0,0,,0,,,55,95
21259,note_on,0,0,0,,0,,,48,95
21259,note_on,0,0,0,,1,,,75,127
21493,note_off,234,0,0,,1,,,75,127
21494,note_on,1,0,0,,1,,,72,127
21720,note_off,226,0,0,,1,,,72,127
21729,note_off,9,0,0,,0,,,48,95
21729,note_off,0,0,0,,0,,,55,95
21729,note_off,0,0,0,,0,,,67,95
21730,note_on,1,0,0,,0,,,47,95
21730,note_on,0,0,0,,0,,,55,95
21730,note_on,0,0,0,,0,,,67,95
21730,note_on,0,0,0,,1,,,77,127
21964,note_off,234,0,0,,1,,,77,127
21965,note_on,1,0,0,,1,,,75,127
22082,note_off,117,0,0,,1,,,75,127
22083,note_on,1,0,0,,1,,,74,127
22200,note_off,117,0,0,,1,,,74,127
22200,note_off,0,0,0,,0,,,55,95
22200,note_off,0,0,0,,0,,,47,95
22201,note_on,1,0,0,,0,,,48,95
22201,note_on,0,0,0,,0,,,55,95
22201,note_on,0,0,0,,0,,,72,95
22201,note_on,0,0,0,,1,,,75,127
22435,note_off,234,0,0,,1,,,75,127
22436,note_on,1,0,0,,1,,,77,127
22553,note_off,117,0,0,,1,,,77,127
22554,note_on,1,0,0,,1,,,79,127
22671,note_off,117,0,0,,1,,,79,127
22671,note_off,0,0,0,,0,,,55,95
22671,note_off,0,0,0,,0,,,48,95
22671,note_off,0,0,0,,0,,,67,95
22672,note_on,1,0,0,,0,,,41,95
22672,note_on,0,0,0,,0,,,53,95
22672,note_on,0,0,0,,0,,,68,95
22672,note_on,0,0,0,,0,,,65,95
22672,note_on,0,0,0,,1,,,80,127
22906,note_off,234,0,0,,1,,,80,127
22907,note_on,1,0,0,,1,,,72,127
23141,note_off,234,0,0,,1,,,72,127
23141,note_off,0,0,0,,0,,,65,95
23141,note_off,0,0,0,,0,,,68,95
23141,note_off,0,0,0,,0,,,53,95
23141,note_off,0,0,0,,0,,,41,95
23141,note_off,0,0,0,,0,,,72,95
23142,note_on,1,0,0,,0,,,43,95
23142,note_on,0,0,0,,0,,,55,95
23142,note_on,0,0,0,,0,,,62,95
23142,note_on,0,0,0,,0,,,67,95
23142,note_on,0,0,0,,0,,,71,95
23142,note_on,0,0,0,,1,,,71,127
23611,note_off,469,0,0,,1,,,71,127
23611,note_off,0,0,0,,0,,,71,95
23611,note_off,0,0,0,,0,,,67,95
23611,note_off,0,0,0,,0,,,62,95
23611,note_off,0,0,0,,0,,,55,95
23611,note_off,0,0,0,,0,,,43,95
23612,note_on,1,0,0,,0,,,44,95
23612,note_on,0,0,0,,0,,,56,95
23612,note_on,0,0,0,,0,,,60,95
23612,note_on,0,0,0,,0,,,65,95
23612,note_on,0,0,0,,0,,,72,95
23612,note_on,0,0,0,,1,,,74,127
23689,note_off,77,0,0,,1,,,74,127
23690,note_on,1,0,0,,1,,,72,127
23767,note_off,77,0,0,,1,,,72,127
23768,note_on,1,0,0,,1,,,74,127
23845,note_off,77,0,0,,1,,,74,127
23846,note_on,1,0,0,,1,,,72,127
23923,note_off,77,0,0,,1,,,72,127
23924,note_on,1,0,0,,1,,,71,127
24001,note_off,77,0,0,,1,,,71,127
24002,note_on,1,0,0,,1,,,72,127
24079,note_off,77,0,0,,1,,,72,127
24079,note_off,0,0,0,,0,,,72,95
24079,note_off,0,0,0,,0,,,65,95
24079,note_off,0,0,0,,0,,,60,95
24079,note_off,0,0,0,,0,,,56,95
24079,note_off,0,0,0,,0,,,44,95
24080,note_on,1,0,0,,0,,,43,95
24080,note_on,0,0,0,,0,,,55,95
24080,note_on,0,0,0,,0,,,62,95
24080,note_on,0,0,0,,0,,,67,95
24080,note_on,0,0,0,,0,,,71,95
24080,note_on,0,0,0,,1,,,74,127
24197,note_off,117,0,0,,1,,,74,127
24198,note_on,1,0,0,,1,,,79,127
24315,note_off,117,0,0,,1,,,79,127
24316,note_on,1,0,0,,1,,,77,127
24433,note_off,117,0,0,,1,,,77,127
24434,note_on,1,0,0,,1,,,75,127
24551,note_off,117,0,0,,1,,,75,127
24551,note_off,0,0,0,,0,,,71,95
24551,note_off,0,0,0,,0,,,67,95
24551,note_off,0,0,0,,0,,,62,95
24551,note_off,0,0,0,,0,,,55,95
24551,note_off,0,0,0,,0,,,43,95
24552,note_on,1,0,0,,1,,,74,127
24669,note_off,117,0,0,,1,,,74,127
24670,note_on,1,0,0,,1,,,72,127
24787,note_off,117,0,0,,1,,,72,127
24788,note_on,1,0,0,,1,,,71,127
24905,note_off,117,0,0,,1,,,71,127
24906,note_on,1,0,0,,1,,,69,127
25023,note_off,117,0,0,,1,,,69,127
25024,note_on,1,0,0,,1,,,67,127
25141,note_off,117,0,0,,1,,,67,127
25142,note_on,1,0,0,,1,,,65,127
25259,note_off,117,0,0,,1,,,65,127
25260,note_on,1,0,0,,1,,,63,127
25377,note_off,117,0,0,,1,,,63,127
25378,note_on,1,0,0,,1,,,62,127
25495,note_off,117,0,0,,1,,,62,127
25496,note_on,1,0,0,,0,,,43,95
25496,note_on,0,0,0,,0,,,55,95
25496,note_on,0,0,0,,0,,,63,95
25496,note_on,0,0,0,,0,,,67,95
25496,note_on,0,0,0,,0,,,72,95
25496,note_on,0,0,0,,1,,,63,127
25613,note_off,117,0,0,,1,,,63,127
25614,note_on,1,0,0,,1,,,72,127
25731,note_off,117,0,0,,1,,,72,127
25732,note_on,1,0,0,,1,,,70,127
25849,note_off,117,0,0,,1,,,70,127
25850,note_on,1,0,0,,1,,,68,127
25967,note_off,117,0,0,,1,,,68,127
25967,note_off,0,0,0,,0,,,72,95
25967,note_off,0,0,0,,0,,,67,95
25967,note_off,0,0,0,,0,,,63,95
25967,note_off,0,0,0,,0,,,55,95
25967,note_off,0,0,0,,0,,,43,95
25968,note_on,1,0,0,,1,,,67,127
26085,note_off,117,0,0,,1,,,67,127
26086,note_on,1,0,0,,1,,,65,127
26203,note_off,117,0,0,,1,,,65,127
26204,note_on,1,0,0,,1,,,63,127
26321,note_off,117,0,0,,1,,,63,127
26322,note_on,1,0,0,,1,,,62,127
26439,note_off,117,0,0,,1,,,62,127
26440,note_on,1,0,0,,1,,,72,127
26557,note_off,117,0,0,,1,,,72,127
26558,note_on,1,0,0,,1,,,75,127
26675,note_off,117,0,0,,1,,,75,127
26676,note_on,1,0,0,,1,,,74,127
26793,note_off,117,0,0,,1,,,74,127
26794,note_on,1,0,0,,1,,,72,127
26911,note_off,117,0,0,,1,,,72,127
26912,note_on,1,0,0,,0,,,43,95
26912,note_on,0,0,0,,0,,,62,95
26912,note_on,0,0,0,,0,,,67,95
26912,note_on,0,0,0,,0,,,71,95
26912,note_on,0,0,0,,1,,,74,127
27029,note_off,117,0,0,,1,,,74,127
27030,note_on,1,0,0,,1,,,79,127
27147,note_off,117,0,0,,1,,,79,127
27148,note_on,1,0,0,,1,,,77,127
27265,note_off,117,0,0,,1,,,77,127
27266,note_on,1,0,0,,1,,,75,127
27383,note_off,117,0,0,,1,,,75,127
27383,note_off,0,0,0,,0,,,71,95
27383,note_off,0,0,0,,0,,,67,95
27383,note_off,0,0,0,,0,,,62,95
27383,note_off,0,0,0,,0,,,43,95
27384,note_on,1,0,0,,1,,,74,127
27501,note_off,117,0,0,,1,,,74,127
27502,note_on,1,0,0,,1,,,72,127
27619,note_off,117,0,0,,1,,,72,127
27620,note_on,1,0,0,,1,,,71,127
27737,note_off,117,0,0,,1,,,71,127
27738,note_on,1,0,0,,1,,,69,127
27855,note_off,117,0,0,,1,,,69,127
27856,note_on,1,0,0,,1,,,67,127
27973,note_off,117,0,0,,1,,,67,127
27974,note_on,1,0,0,,1,,,66,127
28091,note_off,117,0,0,,1,,,66,127
28092,note_on,1,0,0,,1,,,64,127
28209,note_off,117,0,0,,1,,,64,127
28210,note_on,1,0,0,,1,,,62,127
28327,note_off,117,0,0,,1,,,62,127
28328,note_on,1,0,0,,0,,,43,95
28328,note_on,0,0,0,,0,,,62,95
28328,note_on,0,0,0,,0,,,59,95
28328,note_on,0,0,0,,0,,,55,95
28328,note_on,0,0,0,,1,,,67,127
29267,note_off,939,0,0,,1,,,67,127
29267,note_off,0,0,0,,0,,,55,95
29267,note_off,0,0,0,,0,,,59,95
29267,note_off,0,0,0,,0,,,62,95
29267,note_off,0,0,0,,0,,,43,95
29738,note_on,471,0,0,,0,,,43,95
29738,note_on,0,0,0,,0,,,62,95
29738,note_on,0,0,0,,0,,,70,95
29738,note_on,0,0,0,,1,,,79,127
29972,note_off,234,0,0,,1,,,79,127
29973,note_on,1,0,0,,1,,,74,127
30207,note_off,234,0,0,,1,,,74,127
30207,note_off,0,0,0,,0,,,70,95
30207,note_off,0,0,0,,0,,,62,95
30207,note_off,0,0,0,,0,,,43,95
30208,note_on,1,0,0,,1,,,82,127
30443,note_on,235,0,0,,0,,,55,95
30648,note_off,205,0,0,,1,,,82,127
30677,note_off,29,0,0,,0,,,55,95
30678,note_on,1,0,0,,0,,,54,95
30678,note_on,0,0,0,,0,,,62,95
30678,note_on,0,0,0,,0,,,69,95
30678,note_on,0,0,0,,1,,,81,127
30912,note_off,234,0,0,,0,,,54,95
30913,note_on,1,0,0,,0,,,50,95
31118,note_off,205,0,0,,1,,,81,127
31147,note_off,29,0,0,,0,,,50,95
31147,note_off,0,0,0,,0,,,69,95
31147,note_off,0,0,0,,0,,,62,95
31148,note_on,1,0,0,,0,,,51,95
31148,note_on,0,0,0,,0,,,67,95
31148,note_on,0,0,0,,0,,,70,95
31148,note_on,0,0,0,,1,,,79,127
31382,note_off,234,0,0,,1,,,79,127
31383,note_on,1,0,0,,1,,,78,127
31617,note_off,234,0,0,,1,,,78,127
31617,note_off,0,0,0,,0,,,70,95
31617,note_off,0,0,0,,0,,,67,95
31617,note_off,0,0,0,,0,,,51,95
31618,note_on,1,0,0,,1,,,79,127
31853,note_on,235,0,0,,0,,,60,95
32076,note_off,223,0,0,,1,,,79,127
32087,note_off,11,0,0,,0,,,60,95
32088,note_on,1,0,0,,0,,,58,95
32088,note_on,0,0,0,,0,,,62,95
32088,note_on,0,0,0,,0,,,67,95
32088,note_on,0,0,0,,1,,,74,127
32322,note_off,234,0,0,,0,,,58,95
32323,note_on,1,0,0,,0,,,55,95
32546,note_off,223,0,0,,1,,,74,127
32557,note_off,11,0,0,,0,,,55,95
32557,note_off,0,0,0,,0,,,67,95
32557,note_off,0,0,0,,0,,,62,95
32558,note_on,1,0,0,,0,,,57,95
32558,note_on,0,0,0,,0,,,66,95
32558,note_on,0,0,0,,0,,,69,95
32558,note_on,0,0,0,,1,,,72,127
32792,note_off,234,0,0,,1,,,72,127
32793,note_on,1,0,0,,1,,,75,127
33027,note_off,234,0,0,,1,,,75,127
33027,note_off,0,0,0,,0,,,57,95
33028,note_on,1,0,0,,0,,,48,95
33028,note_on,0,0,0,,1,,,78,127
33262,note_off,234,0,0,,1,,,78,127
33263,note_on,1,0,0,,1,,,81,127
33497,note_off,234,0,0,,0,,,48,95
33497,note_off,0,0,0,,0,,,69,95
33497,note_off,0,0,0,,0,,,66,95
33498,note_on,1,0,0,,0,,,50,95
33498,note_on,0,0,0,,0,,,62,95
33498,note_on,0,0,0,,0,,,66,95
33498,note_on,0,0,0,,0,,,69,95
33732,note_off,234,0,0,,1,,,81,127
33733,note_on,1,0,0,,1,,,72,127
33967,note_off,234,0,0,,1,,,72,127
33967,note_off,0,0,0,,0,,,69,95
33967,note_off,0,0,0,,0,,,66,95
33967,note_off,0,0,0,,0,,,62,95
33967,note_off,0,0,0,,0,,,50,95
33968,note_on,1,0,0,,0,,,43,95
33968,note_on,0,0,0,,0,,,62,95
33968,note_on,0,0,0,,0,,,67,95
33968,note_on,0,0,0,,1,,,70,127
34202,note_off,234,0,0,,1,,,70,127
34203,note_on,1,0,0,,1,,,74,127
34437,note_off,234,0,0,,1,,,74,127
34437,note_off,0,0,0,,0,,,67,95
34437,note_off,0,0,0,,0,,,62,95
34437,note_off,0,0,0,,0,,,43,95
34438,note_on,1,0,0,,1,,,79,127
34673,note_on,235,0,0,,0,,,55,95
34896,note_off,223,0,0,,1,,,79,127
34907,note_off,11,0,0,,0,,,55,95
34908,note_on,1,0,0,,0,,,57,95
34908,note_on,0,0,0,,0,,,67,95
34908,note_on,0,0,0,,0,,,74,95
34908,note_on,0,0,0,,1,,,77,127
35142,note_off,234,0,0,,0,,,57,95
35143,note_on,1,0,0,,0,,,59,95
35366,note_off,223,0,0,,1,,,77,127
35377,note_off,11,0,0,,0,,,59,95
35377,note_off,0,0,0,,0,,,74,95
35377,note_off,0,0,0,,0,,,67,95
35378,note_on,1,0,0,,0,,,60,95
35378,note_on,0,0,0,,0,,,67,95
35378,note_on,0,0,0,,0,,,70,95
35378,note_on,0,0,0,,1,,,70,127
35612,note_off,234,0,0,,1,,,70,127
35613,note_on,1,0,0,,1,,,73,127
35847,note_off,234,0,0,,1,,,73,127
35847,note_off,0,0,0,,0,,,60,95
35848,note_on,1,0,0,,0,,,48,95
35848,note_on,0,0,0,,1,,,76,127
36082,note_off,234,0,0,,1,,,76,127
36083,note_on,1,0,0,,1,,,79,127
36317,note_off,234,0,0,,0,,,48,95
36317,note_off,0,0,0,,0,,,70,95
36317,note_off,0,0,0,,0,,,67,95
36318,note_on,1,0,0,,0,,,52,95
36318,note_on,0,0,0,,0,,,60,95
36318,note_on,0,0,0,,0,,,67,95
36552,note_off,234,0,0,,1,,,79,127
36553,note_on,1,0,0,,1,,,70,127
36787,note_off,234,0,0,,1,,,70,127
36787,note_off,0,0,0,,0,,,67,95
36787,note_off,0,0,0,,0,,,60,95
36787,note_off,0,0,0,,0,,,52,95
36788,note_on,1,0,0,,0,,,53,95
36788,note_on,0,0,0,,0,,,60,95
36788,note_on,0,0,0,,0,,,65,95
36788,note_on,0,0,0,,1,,,68,127
37022,note_off,234,0,0,,1,,,68,127
37023,note_on,1,0,0,,1,,,72,127
37257,note_off,234,0,0,,1,,,72,127
37257,note_off,0,0,0,,0,,,65,95
37257,note_off,0,0,0,,0,,,60,95
37257,note_off,0,0,0,,0,,,53,95
37258,note_on,1,0,0,,1,,,77,127
37493,note_on,235,0,0,,0,,,53,95
37716,note_off,223,0,0,,1,,,77,127
37727,note_off,11,0,0,,0,,,53,95
37728,note_on,1,0,0,,0,,,55,95
37728,note_on,0,0,0,,0,,,67,95
37728,note_on,0,0,0,,1,,,75,127
37962,note_off,234,0,0,,0,,,55,95
37963,note_on,1,0,0,,0,,,56,95
38186,note_off,223,0,0,,1,,,75,127
38197,note_off,11,0,0,,0,,,56,95
38197,note_off,0,0,0,,0,,,67,95
38198,note_on,1,0,0,,0,,,58,95
38198,note_on,0,0,0,,0,,,62,95
38198,note_on,0,0,0,,0,,,65,95
38198,note_on,0,0,0,,1,,,68,127
38432,note_off,234,0,0,,1,,,68,127
38433,note_on,1,0,0,,1,,,70,127
38667,note_off,234,0,0,,1,,,70,127
38667,note_off,0,0,0,,0,,,58,95
38668,note_on,1,0,0,,0,,,46,95
38668,note_on,0,0,0,,1,,,74,127
38902,note_off,234,0,0,,1,,,74,127
38903,note_on,1,0,0,,1,,,77,127
39137,note_off,234,0,0,,0,,,46,95
39137,note_off,0,0,0,,0,,,65,95
39137,note_off,0,0,0,,0,,,62,95
39138,note_on,1,0,0,,0,,,50,95
39138,note_on,0,0,0,,0,,,65,95
39138,note_on,0,0,0,,0,,,58,95
39372,note_off,234,0,0,,1,,,77,127
39373,note_on,1,0,0,,1,,,68,127
39599,note_off,226,0,0,,1,,,68,127
39608,note_off,9,0,0,,0,,,58,95
39608,note_off,0,0,0,,0,,,65,95
39608,note_off,0,0,0,,0,,,50,95
39609,note_on,1,0,0,,0,,,51,95
39609,note_on,0,0,0,,0,,,63,95
39609,note_on,0,0,0,,0,,,58,95
39609,note_on,0,0,0,,1,,,67,127
39843,note_off,234,0,0,,1,,,67,127
39844,note_on,1,0,0,,1,,,70,127
40078,note_off,234,0,0,,1,,,70,127
40078,note_off,0,0,0,,0,,,58,95
40078,note_off,0,0,0,,0,,,63,95
40078,note_off,0,0,0,,0,,,51,95
40079,note_on,1,0,0,,1,,,75,127
40313,note_off,234,0,0,,1,,,75,127
40314,note_on,1,0,0,,0,,,51,95
40314,note_on,0,0,0,,0,,,67,95
40314,note_on,0,0,0,,1,,,77,127
40431,note_off,117,0,0,,1,,,77,127
40432,note_on,1,0,0,,1,,,75,127
40549,note_off,117,0,0,,1,,,75,127
40549,note_off,0,0,0,,0,,,67,95
40549,note_off,0,0,0,,0,,,51,95
40550,note_on,1,0,0,,0,,,50,95
40550,note_on,0,0,0,,0,,,65,95
40550,note_on,0,0,0,,1,,,77,127
40784,note_off,234,0,0,,1,,,77,127
40784,note_off,0,0,0,,0,,,50,95
40785,note_on,1,0,0,,0,,,46,95
40785,note_on,0,0,0,,0,,,68,95
40785,note_on,0,0,0,,1,,,70,127
41019,note_off,234,0,0,,1,,,70,127
41019,note_off,0,0,0,,0,,,68,95
41019,note_off,0,0,0,,0,,,46,95
41019,note_off,0,0,0,,0,,,65,95
41020,note_on,1,0,0,,0,,,55,95
41020,note_on,0,0,0,,0,,,70,95
41020,note_on,0,0,0,,0,,,63,95
41020,note_on,0,0,0,,1,,,75,127
41254,note_off,234,0,0,,1,,,75,127
41255,note_on,1,0,0,,1,,,77,127
41372,note_off,117,0,0,,1,,,77,127
41373,note_on,1,0,0,,1,,,75,127
41490,note_off,117,0,0,,1,,,75,127
41490,note_off,0,0,0,,0,,,63,95
41490,note_off,0,0,0,,0,,,70,95
41490,note_off,0,0,0,,0,,,55,95
41491,note_on,1,0,0,,0,,,53,95
41491,note_on,0,0,0,,0,,,62,95
41491,note_on,0,0,0,,0,,,68,95
41491,note_on,0,0,0,,1,,,77,127
41725,note_off,234,0,0,,1,,,77,127
41726,note_on,1,0,0,,1,,,70,127
41960,note_off,234,0,0,,1,,,70,127
41960,note_off,0,0,0,,0,,,68,95
41960,note_off,0,0,0,,0,,,62,95
41960,note_off,0,0,0,,0,,,53,95
41961,note_on,1,0,0,,0,,,51,95
41961,note_on,0,0,0,,0,,,63,95
41961,note_on,0,0,0,,0,,,70,95
41961,note_on,0,0,0,,1,,,79,127
42195,note_off,234,0,0,,1,,,79,127
42196,note_on,1,0,0,,1,,,70,127
42430,note_off,234,0,0,,1,,,70,127
42430,note_off,0,0,0,,0,,,70,95
42430,note_off,0,0,0,,0,,,63,95
42430,note_off,0,0,0,,0,,,51,95
42431,note_on,1,0,0,,0,,,50,95
42431,note_on,0,0,0,,0,,,65,95
42431,note_on,0,0,0,,0,,,58,95
42431,note_on,0,0,0,,1,,,80,127
42665,note_off,234,0,0,,0,,,50,95
42666,note_on,1,0,0,,0,,,51,95
42783,note_off,117,0,0,,0,,,51,95
42784,note_on,1,0,0,,0,,,53,95
42901,note_off,117,0,0,,0,,,53,95
42902,note_on,1,0,0,,0,,,46,95
43092,note_off,190,0,0,,1,,,80,127
43136,note_off,44,0,0,,0,,,58,95
43136,note_off,0,0,0,,0,,,65,95
43137,note_on,1,0,0,,1,,,79,127
43254,note_off,117,0,0,,1,,,79,127
43255,note_on,1,0,0,,1,,,77,127
43372,note_off,117,0,0,,1,,,77,127
43372,note_off,0,0,0,,0,,,46,95
43373,note_on,1,0,0,,0,,,43,95
43373,note_on,0,0,0,,0,,,63,95
43373,note_on,0,0,0,,0,,,70,95
43373,note_on,0,0,0,,1,,,82,127
43607,note_off,234,0,0,,1,,,82,127
43608,note_on,1,0,0,,1,,,75,127
43842,note_off,234,0,0,,1,,,75,127
43842,note_off,0,0,0,,0,,,70,95
43842,note_off,0,0,0,,0,,,63,95
43842,note_off,0,0,0,,0,,,43,95
43843,note_on,1,0,0,,0,,,44,95
43843,note_on,0,0,0,,0,,,63,95
43843,note_on,0,0,0,,1,,,84,127
44077,note_off,234,0,0,,1,,,84,127
44077,note_off,0,0,0,,0,,,44,95
44078,note_on,1,0,0,,0,,,56,95
44078,note_on,0,0,0,,0,,,72,95
44078,note_on,0,0,0,,1,,,75,127
44312,note_off,234,0,0,,1,,,75,127
44312,note_off,0,0,0,,0,,,72,95
44312,note_off,0,0,0,,0,,,56,95
44313,note_on,1,0,0,,0,,,58,95
44313,note_on,0,0,0,,0,,,70,95
44313,note_on,0,0,0,,1,,,79,127
44765,note_off,452,0,0,,1,,,79,127
44782,note_off,17,0,0,,0,,,58,95
44782,note_off,0,0,0,,0,,,63,95
44783,note_on,1,0,0,,0,,,46,95
44783,note_on,0,0,0,,0,,,62,95
44783,note_on,0,0,0,,1,,,77,127
45235,note_off,452,0,0,,1,,,77,127
45252,note_off,17,0,0,,0,,,62,95
45252,note_off,0,0,0,,0,,,46,95
45252,note_off,0,0,0,,0,,,70,95
45269,note_on,17,0,0,,1,,,75,127
45269,note_on,0,0,0,,0,,,70,95
45269,note_on,0,0,0,,0,,,67,95
45269,note_on,0,0,0,,0,,,63,95
45269,note_on,0,0,0,,0,,,51,95
45503,note_off,234,0,0,,1,,,75,127
45504,note_on,1,0,0,,1,,,79,127
45621,note_off,117,0,0,,1,,,79,127
45622,note_on,1,0,0,,1,,,77,127
45739,note_off,117,0,0,,1,,,77,127
45739,note_off,0,0,0,,0,,,51,95
45739,note_off,0,0,0,,0,,,63,95
45739,note_off,0,0,0,,0,,,67,95
45739,note_off,0,0,0,,0,,,70,95
45740,note_on,1,0,0,,1,,,79,127
45975,note_on,235,0,0,,0,,,48,95
46198,note_off,223,0,0,,1,,,79,127
46209,note_off,11,0,0,,0,,,48,95
46210,note_on,1,0,0,,1,,,67,127
46210,note_on,0,0,0,,0,,,60,95
46210,note_on,0,0,0,,0,,,67,95
46210,note_on,0,0,0,,0,,,50,95
46444,note_off,234,0,0,,0,,,50,95
46445,note_on,1,0,0,,0,,,51,95
46679,note_off,234,0,0,,0,,,51,95
46679,note_off,0,0,0,,0,,,67,95
46679,note_off,0,0,0,,0,,,60,95
46679,note_off,0,0,0,,1,,,67,127
46680,note_on,1,0,0,,1,,,68,127
46680,note_on,0,0,0,,0,,,65,95
46680,note_on,0,0,0,,0,,,60,95
46680,note_on,0,0,0,,0,,,53,95
46914,note_off,234,0,0,,1,,,68,127
46915,note_on,1,0,0,,1,,,77,127
47032,note_off,117,0,0,,1,,,77,127
47033,note_on,1,0,0,,1,,,76,127
47150,note_off,117,0,0,,1,,,76,127
47150,note_off,0,0,0,,0,,,53,95
47150,note_off,0,0,0,,0,,,60,95
47150,note_off,0,0,0,,0,,,65,95
47151,note_on,1,0,0,,1,,,77,127
47386,note_on,235,0,0,,0,,,53,95
47609,note_off,223,0,0,,1,,,77,127
47620,note_off,11,0,0,,0,,,53,95
47621,note_on,1,0,0,,1,,,69,127
47621,note_on,0,0,0,,0,,,65,95
47621,note_on,0,0,0,,0,,,60,95
47621,note_on,0,0,0,,0,,,51,95
47855,note_off,234,0,0,,0,,,51,95
47856,note_on,1,0,0,,0,,,39,95
48090,note_off,234,0,0,,0,,,39,95
48090,note_off,0,0,0,,0,,,60,95
48090,note_off,0,0,0,,0,,,65,95
48090,note_off,0,0,0,,1,,,69,127
48091,note_on,1,0,0,,1,,,70,127
48091,note_on,0,0,0,,0,,,65,95
48091,note_on,0,0,0,,0,,,62,95
48091,note_on,0,0,0,,0,,,50,95
48325,note_off,234,0,0,,1,,,70,127
48326,note_on,1,0,0,,1,,,77,127
48443,note_off,117,0,0,,1,,,77,127
48444,note_on,1,0,0,,1,,,75,127
48561,note_off,117,0,0,,1,,,75,127
48561,note_off,0,0,0,,0,,,50,95
48561,note_off,0,0,0,,0,,,62,95
48561,note_off,0,0,0,,0,,,65,95
48562,note_on,1,0,0,,1,,,77,127
48797,note_on,235,0,0,,0,,,50,95
49020,note_off,223,0,0,,1,,,77,127
49031,note_off,11,0,0,,0,,,50,95
49032,note_on,1,0,0,,1,,,69,127
49032,note_on,0,0,0,,0,,,65,95
49032,note_on,0,0,0,,0,,,51,95
49266,note_off,234,0,0,,0,,,51,95
49267,note_on,1,0,0,,0,,,53,95
49501,note_off,234,0,0,,0,,,53,95
49501,note_off,0,0,0,,0,,,65,95
49501,note_off,0,0,0,,1,,,69,127
49502,note_on,1,0,0,,1,,,70,127
49502,note_on,0,0,0,,0,,,62,95
49502,note_on,0,0,0,,0,,,67,95
49502,note_on,0,0,0,,0,,,55,95
49736,note_off,234,0,0,,1,,,70,127
49737,note_on,1,0,0,,1,,,79,127
49854,note_off,117,0,0,,1,,,79,127
49855,note_on,1,0,0,,1,,,77,127
49972,note_off,117,0,0,,1,,,77,127
49972,note_off,0,0,0,,0,,,55,95
49972,note_off,0,0,0,,0,,,67,95
49972,note_off,0,0,0,,0,,,62,95
49973,note_on,1,0,0,,1,,,79,127
50208,note_on,235,0,0,,0,,,55,95
50431,note_off,223,0,0,,1,,,79,127
50442,note_off,11,0,0,,0,,,55,95
50443,note_on,1,0,0,,1,,,71,127
50443,note_on,0,0,0,,0,,,67,95
50443,note_on,0,0,0,,0,,,62,95
50443,note_on,0,0,0,,0,,,53,95
50677,note_off,234,0,0,,0,,,53,95
50678,note_on,1,0,0,,0,,,50,95
50901,note_off,223,0,0,,1,,,71,127
50912,note_off,11,0,0,,0,,,50,95
50912,note_off,0,0,0,,0,,,62,95
50912,note_off,0,0,0,,0,,,67,95
50913,note_on,1,0,0,,1,,,72,127
50913,note_on,0,0,0,,0,,,67,95
50913,note_on,0,0,0,,0,,,60,95
50913,note_on,0,0,0,,0,,,51,95
51147,note_off,234,0,0,,1,,,72,127
51148,note_on,1,0,0,,1,,,67,127
51382,note_off,234,0,0,,1,,,67,127
51382,note_off,0,0,0,,0,,,51,95
51382,note_off,0,0,0,,0,,,60,95
51382,note_off,0,0,0,,0,,,67,95
51383,note_on,1,0,0,,1,,,77,127
51383,note_on,0,0,0,,0,,,67,95
51383,note_on,0,0,0,,0,,,59,95
51383,note_on,0,0,0,,0,,,50,95
51617,note_off,234,0,0,,1,,,77,127
51618,note_on,1,0,0,,1,,,75,127
51735,note_off,117,0,0,,1,,,75,127
51736,note_on,1,0,0,,1,,,74,127
51853,note_off,117,0,0,,1,,,74,127
51853,note_off,0,0,0,,0,,,50,95
51853,note_off,0,0,0,,0,,,59,95
51853,note_off,0,0,0,,0,,,67,95
51854,note_on,1,0,0,,1,,,75,127
51854,note_on,0,0,0,,0,,,67,95
51854,note_on,0,0,0,,0,,,60,95
51854,note_on,0,0,0,,0,,,48,95
52088,note_off,234,0,0,,1,,,75,127
52089,note_on,1,0,0,,1,,,74,127
52206,note_off,117,0,0,,1,,,74,127
52207,note_on,1,0,0,,1,,,72,127
52316,note_off,109,0,0,,1,,,72,127
52323,note_off,7,0,0,,0,,,48,95
52323,note_off,0,0,0,,0,,,60,95
52323,note_off,0,0,0,,0,,,67,95
52324,note_on,1,0,0,,1,,,80,127
52324,note_on,0,0,0,,0,,,65,95
52324,note_on,0,0,0,,0,,,68,95
52324,note_on,0,0,0,,0,,,60,95
52324,note_on,0,0,0,,0,,,53,95
52558,note_off,234,0,0,,1,,,80,127
52559,note_on,1,0,0,,1,,,79,127
52793,note_off,234,0,0,,1,,,79,127
52793,note_off,0,0,0,,0,,,53,95
52793,note_off,0,0,0,,0,,,68,95
52793,note_off,0,0,0,,0,,,65,95
52794,note_on,1,0,0,,1,,,77,127
52794,note_on,0,0,0,,0,,,67,95
52794,note_on,0,0,0,,0,,,43,95
53028,note_off,234,0,0,,1,,,77,127
53029,note_on,1,0,0,,1,,,75,127
53263,note_off,234,0,0,,1,,,75,127
53263,note_off,0,0,0,,0,,,43,95
53263,note_off,0,0,0,,0,,,67,95
53263,note_off,0,0,0,,0,,,60,95
53264,note_on,1,0,0,,1,,,74,127
53264,note_on,0,0,0,,0,,,65,95
53264,note_on,0,0,0,,0,,,60,95
53264,note_on,0,0,0,,0,,,44,95
53498,note_off,234,0,0,,1,,,74,127
53499,note_on,1,0,0,,1,,,72,127
53733,note_off,234,0,0,,1,,,72,127
53733,note_off,0,0,0,,0,,,44,95
53733,note_off,0,0,0,,0,,,60,95
53733,note_off,0,0,0,,0,,,65,95
53734,note_on,1,0,0,,1,,,71,127
53734,note_on,0,0,0,,0,,,71,95
53734,note_on,0,0,0,,0,,,67,95
53734,note_on,0,0,0,,0,,,62,95
53734,note_on,0,0,0,,0,,,43,95
53968,note_off,234,0,0,,1,,,71,127
53969,note_on,1,0,0,,1,,,67,127
54203,note_off,234,0,0,,1,,,67,127
54203,note_off,0,0,0,,0,,,43,95
54203,note_off,0,0,0,,0,,,62,95
54203,note_off,0,0,0,,0,,,67,95
54203,note_off,0,0,0,,0,,,71,95
54204,note_on,1,0,0,,1,,,65,127
54439,note_on,235,0,0,,0,,,67,95
54439,note_on,0,0,0,,0,,,55,95
54673,note_off,234,0,0,,0,,,55,95
54673,note_off,0,0,0,,0,,,67,95
54674,note_on,1,0,0,,0,,,60,95
54674,note_on,0,0,0,,0,,,65,95
54674,note_on,0,0,0,,0,,,56,95
54800,note_off,126,0,0,,1,,,65,127
54908,note_off,108,0,0,,0,,,56,95
54909,note_on,1,0,0,,1,,,72,127
54909,note_on,0,0,0,,0,,,53,95
55143,note_off,234,0,0,,0,,,53,95
55143,note_off,0,0,0,,1,,,72,127
55143,note_off,0,0,0,,0,,,65,95
55143,note_off,0,0,0,,0,,,60,95
55144,note_on,1,0,0,,1,,,71,127
55144,note_on,0,0,0,,0,,,62,95
55144,note_on,0,0,0,,0,,,55,95
55378,note_off,234,0,0,,1,,,71,127
55379,note_on,1,0,0,,1,,,67,127
55598,note_off,219,0,0,,1,,,67,127
55613,note_off,15,0,0,,0,,,55,95
55613,note_off,0,0,0,,0,,,62,95
55614,note_on,1,0,0,,1,,,71,127
55614,note_on,0,0,0,,0,,,67,95
55614,note_on,0,0,0,,0,,,62,95
55614,note_on,0,0,0,,0,,,53,95
55614,note_on,0,0,0,,0,,,50,95
55848,note_off,234,0,0,,1,,,71,127
55849,note_on,1,0,0,,1,,,72,127
55966,note_off,117,0,0,,1,,,72,127
55967,note_on,1,0,0,,1,,,71,127
56084,note_off,117,0,0,,1,,,71,127
56084,note_off,0,0,0,,0,,,50,95
56084,note_off,0,0,0,,0,,,53,95
56084,note_off,0,0,0,,0,,,62,95
56085,note_on,1,0,0,,1,,,72,127
56085,note_on,0,0,0,,0,,,60,95
56085,note_on,0,0,0,,0,,,51,95
56085,note_on,0,0,0,,0,,,55,95
56319,note_off,234,0,0,,1,,,72,127
56320,note_on,1,0,0,,1,,,67,127
56554,note_off,234,0,0,,1,,,67,127
56554,note_off,0,0,0,,0,,,55,95
56554,note_off,0,0,0,,0,,,51,95
56554,note_off,0,0,0,,0,,,60,95
56554,note_off,0,0,0,,0,,,67,95
56555,note_on,1,0,0,,1,,,71,127
56555,note_on,0,0,0,,0,,,67,95
56555,note_on,0,0,0,,0,,,62,95
56555,note_on,0,0,0,,0,,,50,95
56555,note_on,0,0,0,,0,,,53,95
56789,note_off,234,0,0,,1,,,71,127
56790,note_on,1,0,0,,1,,,72,127
56907,note_off,117,0,0,,1,,,72,127
56908,note_on,1,0,0,,1,,,71,127
57025,note_off,117,0,0,,1,,,71,127
57025,note_off,0,0,0,,0,,,53,95
57025,note_off,0,0,0,,0,,,50,95
57025,note_off,0,0,0,,0,,,62,95
57026,note_on,1,0,0,,1,,,72,127
57026,note_on,0,0,0,,0,,,60,95
57026,note_on,0,0,0,,0,,,55,95
57026,note_on,0,0,0,,0,,,51,95
57260,note_off,234,0,0,,1,,,72,127
57261,note_on,1,0,0,,1,,,67,127
57495,note_off,234,0,0,,1,,,67,127
57495,note_off,0,0,0,,0,,,51,95
57495,note_off,0,0,0,,0,,,55,95
57495,note_off,0,0,0,,0,,,60,95
57495,note_off,0,0,0,,0,,,67,95
57496,note_on,1,0,0,,1,,,71,127
57496,note_on,0,0,0,,0,,,67,95
57496,note_on,0,0,0,,0,,,62,95
57496,note_on,0,0,0,,0,,,50,95
57496,note_on,0,0,0,,0,,,53,95
57730,note_off,234,0,0,,1,,,71,127
57731,note_on,1,0,0,,1,,,72,127
57848,note_off,117,0,0,,1,,,72,127
57849,note_on,1,0,0,,1,,,71,127
57966,note_off,117,0,0,,1,,,71,127
57966,note_off,0,0,0,,0,,,53,95
57966,note_off,0,0,0,,0,,,50,95
57966,note_off,0,0,0,,0,,,62,95
57967,note_on,1,0,0,,1,,,72,127
57967,note_on,0,0,0,,0,,,60,95
57967,note_on,0,0,0,,0,,,67,95
57967,note_on,0,0,0,,0,,,55,95
57967,note_on,0,0,0,,0,,,51,95
58193,note_off,226,0,0,,1,,,72,127
58203,note_on,10,0,0,,1,,,67,127
58422,note_off,219,0,0,,1,,,67,127
58437,note_off,15,0,0,,0,,,51,95
58437,note_off,0,0,0,,0,,,55,95
58437,note_off,0,0,0,,0,,,60,95
58437,note_off,0,0,0,,0,,,67,95
58438,note_on,1,0,0,,1,,,82,127
58438,note_on,0,0,0,,0,,,72,95
58438,note_on,0,0,0,,0,,,60,95
58438,note_on,0,0,0,,0,,,52,95
58672,note_off,234,0,0,,1,,,82,127
58673,note_on,1,0,0,,1,,,80,127
58790,note_off,117,0,0,,1,,,80,127
58791,note_on,1,0,0,,1,,,79,127
58908,note_off,117,0,0,,1,,,79,127
58908,note_off,0,0,0,,0,,,52,95
58908,note_off,0,0,0,,0,,,60,95
58908,note_off,0,0,0,,0,,,67,95
58909,note_on,1,0,0,,1,,,80,127
58909,note_on,0,0,0,,0,,,68,95
58909,note_on,0,0,0,,0,,,65,95
58909,note_on,0,0,0,,0,,,60,95
58909,note_on,0,0,0,,0,,,53,95
59143,note_off,234,0,0,,1,,,80,127
59144,note_on,1,0,0,,1,,,77,127
59378,note_off,234,0,0,,1,,,77,127
59378,note_off,0,0,0,,0,,,53,95
59378,note_off,0,0,0,,0,,,60,95
59378,note_off,0,0,0,,0,,,65,95
59378,note_off,0,0,0,,0,,,68,95
59378,note_off,0,0,0,,0,,,72,95
59379,note_on,1,0,0,,1,,,82,127
59379,note_on,0,0,0,,0,,,72,95
59379,note_on,0,0,0,,0,,,67,95
59379,note_on,0,0,0,,0,,,60,95
59379,note_on,0,0,0,,0,,,52,95
59613,note_off,234,0,0,,1,,,82,127
59614,note_on,1,0,0,,1,,,80,127
59731,note_off,117,0,0,,1,,,80,127
59732,note_on,1,0,0,,1,,,79,127
59849,note_off,117,0,0,,1,,,79,127
59849,note_off,0,0,0,,0,,,52,95
59849,note_off,0,0,0,,0,,,60,95
59849,note_off,0,0,0,,0,,,67,95
59850,note_on,1,0,0,,1,,,80,127
59850,note_on,0,0,0,,0,,,68,95
59850,note_on,0,0,0,,0,,,65,95
59850,note_on,0,0,0,,0,,,60,95
59850,note_on,0,0,0,,0,,,53,95
60084,note_off,234,0,0,,1,,,80,127
60085,note_on,1,0,0,,1,,,77,127
60319,note_off,234,0,0,,1,,,77,127
60319,note_off,0,0,0,,0,,,53,95
60319,note_off,0,0,0,,0,,,60,95
60319,note_off,0,0,0,,0,,,65,95
60319,note_off,0,0,0,,0,,,68,95
60319,note_off,0,0,0,,0,,,72,95
60320,note_on,1,0,0,,1,,,82,127
60320,note_on,0,0,0,,0,,,72,95
60320,note_on,0,0,0,,0,,,67,95
60320,note_on,0,0,0,,0,,,60,95
60320,note_on,0,0,0,,0,,,52,95
60554,note_off,234,0,0,,1,,,82,127
60555,note_on,1,0,0,,1,,,80,127
60672,note_off,117,0,0,,1,,,80,127
60673,note_on,1,0,0,,1,,,79,127
60776,note_off,103,0,0,,1,,,79,127
60789,note_off,13,0,0,,0,,,52,95
60789,note_off,0,0,0,,0,,,60,95
60789,note_off,0,0,0,,0,,,67,95
60789,note_off,0,0,0,,0,,,72,95
60790,note_on,1,0,0,,1,,,80,127
60790,note_on,0,0,0,,0,,,72,95
60790,note_on,0,0,0,,0,,,68,95
60790,note_on,0,0,0,,0,,,65,95
60790,note_on,0,0,0,,0,,,60,95
60790,note_on,0,0,0,,0,,,53,95
61024,note_off,234,0,0,,1,,,80,127
61025,note_on,1,0,0,,1,,,79,127
61142,note_off,117,0,0,,1,,,79,127
61143,note_on,1,0,0,,1,,,77,127
61246,note_off,103,0,0,,1,,,77,127
61259,note_off,13,0,0,,0,,,53,95
61259,note_off,0,0,0,,0,,,60,95
61259,note_off,0,0,0,,0,,,65,95
61259,note_off,0,0,0,,0,,,68,95
61259,note_off,0,0,0,,0,,,72,95
61260,note_on,1,0,0,,1,,,79,127
61260,note_on,0,0,0,,0,,,74,95
61260,note_on,0,0,0,,0,,,67,95
61260,note_on,0,0,0,,0,,,59,95
61260,note_on,0,0,0,,0,,,62,95
61494,note_off,234,0,0,,1,,,79,127
61495,note_on,1,0,0,,1,,,77,127
61612,note_off,117,0,0,,1,,,77,127
61613,note_on,1,0,0,,1,,,75,127
61716,note_off,103,0,0,,1,,,75,127
61729,note_off,13,0,0,,0,,,62,95
61729,note_off,0,0,0,,0,,,59,95
61730,note_on,1,0,0,,1,,,77,127
61730,note_on,0,0,0,,0,,,71,95
61730,note_on,0,0,0,,0,,,62,95
61730,note_on,0,0,0,,0,,,55,95
61964,note_off,234,0,0,,1,,,77,127
61965,note_on,1,0,0,,1,,,75,127
62082,note_off,117,0,0,,1,,,75,127
62083,note_on,1,0,0,,1,,,74,127
62186,note_off,103,0,0,,1,,,74,127
62199,note_off,13,0,0,,0,,,55,95
62199,note_off,0,0,0,,0,,,62,95
62199,note_off,0,0,0,,0,,,71,95
62199,note_off,0,0,0,,0,,,67,95
62199,note_off,0,0,0,,0,,,74,95
62200,note_on,1,0,0,,0,,,48,95
62200,note_on,0,0,0,,0,,,60,95
62200,note_on,0,0,0,,0,,,63,95
62200,note_on,0,0,0,,0,,,67,95
62200,note_on,0,0,0,,0,,,72,95
62200,note_on,0,0,0,,1,,,75,127
62437,note_off,237,0,0,,1,,,75,127
62438,note_on,1,0,0,,1,,,74,127
62556,note_off,118,0,0,,1,,,74,127
62557,note_on,1,0,0,,1,,,72,127
62675,note_off,118,0,0,,1,,,72,127
62675,note_off,0,0,0,,0,,,72,95
62675,note_off,0,0,0,,0,,,67,95
62675,note_off,0,0,0,,0,,,63,95
62675,note_off,0,0,0,,0,,,60,95
62675,note_off,0,0,0,,0,,,48,95
62676,note_on,1,0,0,,0,,,53,95
62676,note_on,0,0,0,,0,,,60,95
62676,note_on,0,0,0,,0,,,65,95
62676,note_on,0,0,0,,0,,,68,95
62676,note_on,0,0,0,,1,,,74,127
62913,note_off,237,0,0,,1,,,74,127
62914,note_on,1,0,0,,1,,,72,127
63032,note_off,118,0,0,,1,,,72,127
63033,note_on,1,0,0,,1,,,74,127
63151,note_off,118,0,0,,1,,,74,127
63151,note_off,0,0,0,,0,,,68,95
63151,note_off,0,0,0,,0,,,65,95
63151,note_off,0,0,0,,0,,,60,95
63151,note_off,0,0,0,,0,,,53,95
63152,note_on,1,0,0,,0,,,55,95
63152,note_on,0,0,0,,0,,,59,95
63152,note_on,0,0,0,,0,,,67,95
63152,note_on,0,0,0,,0,,,62,95
63152,note_on,0,0,0,,1,,,67,127
63374,note_off,222,0,0,,1,,,67,127
63390,note_on,16,0,0,,1,,,77,127
63612,note_off,222,0,0,,1,,,77,127
63627,note_off,15,0,0,,0,,,62,95
63627,note_off,0,0,0,,0,,,67,95
63627,note_off,0,0,0,,0,,,59,95
63627,note_off,0,0,0,,0,,,55,95
63628,note_on,1,0,0,,0,,,48,95
63628,note_on,0,0,0,,0,,,60,95
63628,note_on,0,0,0,,0,,,63,95
63628,note_on,0,0,0,,0,,,67,95
63628,note_on,0,0,0,,1,,,75,127
63867,note_off,239,0,0,,1,,,75,127
63868,note_on,1,0,0,,1,,,74,127
63987,note_off,119,0,0,,1,,,74,127
63988,note_on,1,0,0,,1,,,75,127
64107,note_off,119,0,0,,1,,,75,127
64107,note_off,0,0,0,,0,,,67,95
64107,note_off,0,0,0,,0,,,63,95
64107,note_off,0,0,0,,0,,,60,95
64107,note_off,0,0,0,,0,,,48,95
64108,note_on,1,0,0,,0,,,53,95
64108,note_on,0,0,0,,0,,,41,95
64108,note_on,0,0,0,,0,,,65,95
64108,note_on,0,0,0,,0,,,68,95
64108,note_on,0,0,0,,1,,,74,127
64347,note_off,239,0,0,,1,,,74,127
64348,note_on,1,0,0,,1,,,72,127
64467,note_off,119,0,0,,1,,,72,127
64468,note_on,1,0,0,,1,,,74,127
64587,note_off,119,0,0,,1,,,74,127
64587,note_off,0,0,0,,0,,,68,95
64587,note_off,0,0,0,,0,,,65,95
64587,note_off,0,0,0,,0,,,41,95
64587,note_off,0,0,0,,0,,,53,95
64588,note_on,1,0,0,,0,,,43,95
64588,note_on,0,0,0,,0,,,55,95
64588,note_on,0,0,0,,0,,,62,95
64588,note_on,0,0,0,,0,,,67,95
64588,note_on,0,0,0,,0,,,71,95
64588,note_on,0,0,0,,1,,,67,127
64812,note_off,224,0,0,,1,,,67,127
64828,note_on,16,0,0,,1,,,71,127
65052,note_off,224,0,0,,1,,,71,127
65067,note_off,15,0,0,,0,,,71,95
65067,note_off,0,0,0,,0,,,67,95
65067,note_off,0,0,0,,0,,,62,95
65067,note_off,0,0,0,,0,,,55,95
65067,note_off,0,0,0,,0,,,43,95
65068,note_on,1,0,0,,0,,,36,95
65068,note_on,0,0,0,,0,,,48,95
65068,note_on,0,0,0,,0,,,63,95
65068,note_on,0,0,0,,0,,,67,95
65068,note_on,0,0,0,,0,,,72,95
65068,note_on,0,0,0,,1,,,72,127
65190,note_off,122,0,0,,1,,,72,127
65191,note_on,1,0,0,,1,,,79,127
65313,note_off,122,0,0,,1,,,79,127
65314,note_on,1,0,0,,1,,,77,127
65436,note_off,122,0,0,,1,,,77,127
65437,note_on,1,0,0,,1,,,75,127
65559,note_off,122,0,0,,1,,,75,127
65559,note_off,0,0,0,,0,,,72,95
65559,note_off,0,0,0,,0,,,67,95
65559,note_off,0,0,0,,0,,,63,95
65559,note_off,0,0,0,,0,,,48,95
65559,note_off,0,0,0,,0,,,36,95
65560,note_on,1,0,0,,1,,,74,127
65682,note_off,122,0,0,,1,,,74,127
65683,note_on,1,0,0,,1,,,72,127
65805,note_off,122,0,0,,1,,,72,127
65806,note_on,1,0,0,,1,,,71,127
65928,note_off,122,0,0,,1,,,71,127
65929,note_on,1,0,0,,1,,,69,127
66051,note_off,122,0,0,,1,,,69,127
66052,note_on,1,0,0,,1,,,67,127
66174,note_off,122,0,0,,1,,,67,127
66175,note_on,1,0,0,,1,,,65,127
66297,note_off,122,0,0,,1,,,65,127
66298,note_on,1,0,0,,1,,,63,127
66420,note_off,122,0,0,,1,,,63,127
66421,note_on,1,0,0,,1,,,62,127
66543,note_off,122,0,0,,1,,,62,127
66544,note_on,1,0,0,,0,,,48,95
66544,note_on,0,0,0,,0,,,36,95
66544,note_on,0,0,0,,0,,,63,95
66544,note_on,0,0,0,,0,,,67,95
66544,note_on,0,0,0,,0,,,60,95
66544,note_on,0,0,0,,1,,,63,127
66668,note_off,124,0,0,,1,,,63,127
66669,note_on,1,0,0,,1,,,72,127
66793,note_off,124,0,0,,1,,,72,127
66794,note_on,1,0,0,,1,,,70,127
66918,note_off,124,0,0,,1,,,70,127
66919,note_on,1,0,0,,1,,,68,127
67043,note_off,124,0,0,,1,,,68,127
67043,note_off,0,0,0,,0,,,60,95
67043,note_off,0,0,0,,0,,,67,95
67043,note_off,0,0,0,,0,,,63,95
67043,note_off,0,0,0,,0,,,36,95
67043,note_off,0,0,0,,0,,,48,95
67044,note_on,1,0,0,,1,,,67,127
67168,note_off,124,0,0,,1,,,67,127
67169,note_on,1,0,0,,1,,,65,127
67293,note_off,124,0,0,,1,,,65,127
67294,note_on,1,0,0,,1,,,63,127
67418,note_off,124,0,0,,1,,,63,127
67419,note_on,1,0,0,,1,,,62,127
67543,note_off,124,0,0,,1,,,62,127
67544,note_on,1,0,0,,1,,,60,127
67668,note_off,124,0,0,,1,,,60,127
67669,note_on,1,0,0,,1,,,58,127
67793,note_off,124,0,0,,1,,,58,127
67794,note_on,1,0,0,,1,,,56,127
67918,note_off,124,0,0,,1,,,56,127
67924,note_on,6,0,0,,1,,,55,127
68048,note_off,124,0,0,,1,,,55,127
68060,note_on,12,0,0,,1,,,60,127
68060,note_on,0,0,0,,0,,,72,95
68060,note_on,0,0,0,,0,,,67,95
68060,note_on,0,0,0,,0,,,63,95
68060,note_on,0,0,0,,0,,,36,95
69859,note_off,1799,0,0,,0,,,36,95
69859,note_off,0,0,0,,0,,,63,95
69859,note_off,0,0,0,,0,,,67,95
69859,note_off,0,0,0,,0,,,72,95
69859,note_off,0,0,0,,1,,,60,127
70619,note_on,760,0,0,,0,,,60,95
70619,note_on,0,0,0,,0,,,64,95
70619,note_on,0,0,0,,0,,,67,95
70619,note_on,0,0,0,,0,,,72,95
70619,note_on,0,0,0,,1,,,72,127
70795,note_off,176,0,0,,1,,,72,127
70796,note_on,1,0,0,,1,,,76,127
70972,note_off,176,0,0,,1,,,76,127
70973,note_on,1,0,0,,1,,,79,127
71326,note_off,353,0,0,,0,,,64,95
71326,note_off,0,0,0,,0,,,60,95
71327,note_on,1,0,0,,0,,,64,95
71680,note_off,353,0,0,,0,,,64,95
71680,note_off,0,0,0,,1,,,79,127
71680,note_off,0,0,0,,0,,,72,95
71680,note_off,0,0,0,,0,,,67,95
71681,note_on,1,0,0,,0,,,65,95
71681,note_on,0,0,0,,0,,,72,95
71681,note_on,0,0,0,,0,,,69,95
71681,note_on,0,0,0,,1,,,69,127
71857,note_off,176,0,0,,1,,,69,127
71858,note_on,1,0,0,,1,,,71,127
72034,note_off,176,0,0,,1,,,71,127
72035,note_on,1,0,0,,1,,,72,127
72388,note_off,353,0,0,,0,,,65,95
72389,note_on,1,0,0,,0,,,64,95
72742,note_off,353,0,0,,0,,,64,95
72742,note_off,0,0,0,,1,,,72,127
72742,note_off,0,0,0,,0,,,69,95
72742,note_off,0,0,0,,0,,,72,95
72743,note_on,1,0,0,,0,,,62,95
72743,note_on,0,0,0,,0,,,67,95
72743,note_on,0,0,0,,0,,,65,95
72743,note_on,0,0,0,,1,,,71,127
72919,note_off,176,0,0,,1,,,71,127
72920,note_on,1,0,0,,1,,,74,127
73096,note_off,176,0,0,,1,,,74,127
73097,note_on,1,0,0,,1,,,77,127
73450,note_off,353,0,0,,0,,,62,95
73451,note_on,1,0,0,,0,,,59,95
73804,note_off,353,0,0,,0,,,59,95
73804,note_off,0,0,0,,1,,,77,127
73804,note_off,0,0,0,,0,,,65,95
73804,note_off,0,0,0,,0,,,67,95
73805,note_on,1,0,0,,0,,,64,95
73805,note_on,0,0,0,,0,,,71,95
73805,note_on,0,0,0,,0,,,67,95
73805,note_on,0,0,0,,1,,,67,127
73981,note_off,176,0,0,,1,,,67,127
73982,note_on,1,0,0,,1,,,69,127
74158,note_off,176,0,0,,1,,,69,127
74159,note_on,1,0,0,,1,,,71,127
74512,note_off,353,0,0,,0,,,64,95
74513,note_on,1,0,0,,0,,,62,95
74866,note_off,353,0,0,,0,,,62,95
74866,note_off,0,0,0,,1,,,71,127
74866,note_off,0,0,0,,0,,,67,95
74866,note_off,0,0,0,,0,,,71,95
74867,note_on,1,0,0,,0,,,60,95
74867,note_on,0,0,0,,0,,,69,95
74867,note_on,0,0,0,,0,,,64,95
74867,note_on,0,0,0,,1,,,69,127
75043,note_off,176,0,0,,1,,,69,127
75044,note_on,1,0,0,,1,,,72,127
75220,note_off,176,0,0,,1,,,72,127
75221,note_on,1,0,0,,1,,,76,127
75574,note_off,353,0,0,,0,,,60,95
75575,note_on,1,0,0,,0,,,57,95
75928,note_off,353,0,0,,0,,,57,95
75928,note_off,0,0,0,,1,,,76,127
75928,note_off,0,0,0,,0,,,64,95
75928,note_off,0,0,0,,0,,,69,95
75929,note_on,1,0,0,,0,,,62,95
75929,note_on,0,0,0,,0,,,69,95
75929,note_on,0,0,0,,0,,,65,95
75929,note_on,0,0,0,,1,,,65,127
76105,note_off,176,0,0,,1,,,65,127
76106,note_on,1,0,0,,1,,,67,127
76282,note_off,176,0,0,,1,,,67,127
76283,note_on,1,0,0,,1,,,69,127
76636,note_off,353,0,0,,0,,,62,95
76637,note_on,1,0,0,,0,,,60,95
76990,note_off,353,0,0,,0,,,60,95
76990,note_off,0,0,0,,1,,,69,127
76990,note_off,0,0,0,,0,,,65,95
76990,note_off,0,0,0,,0,,,69,95
76991,note_on,1,0,0,,0,,,59,95
76991,note_on,0,0,0,,0,,,65,95
76991,note_on,0,0,0,,0,,,67,95
76991,note_on,0,0,0,,1,,,67,127
77167,note_off,176,0,0,,1,,,67,127
77168,note_on,1,0,0,,1,,,71,127
77344,note_off,176,0,0,,1,,,71,127
77345,note_on,1,0,0,,1,,,74,127
77698,note_off,353,0,0,,0,,,59,95
77699,note_on,1,0,0,,0,,,55,95
78052,note_off,353,0,0,,0,,,55,95
78052,note_off,0,0,0,,1,,,74,127
78052,note_off,0,0,0,,0,,,67,95
78052,note_off,0,0,0,,0,,,65,95
78053,note_on,1,0,0,,0,,,60,95
78053,note_on,0,0,0,,0,,,67,95
78053,note_on,0,0,0,,0,,,64,95
78053,note_on,0,0,0,,1,,,64,127
78229,note_off,176,0,0,,1,,,64,127
78230,note_on,1,0,0,,1,,,67,127
78406,note_off,176,0,0,,1,,,67,127
78407,note_on,1,0,0,,1,,,72,127
78760,note_off,353,0,0,,0,,,60,95
78761,note_on,1,0,0,,0,,,48,95
79114,note_off,353,0,0,,0,,,48,95
79114,note_off,0,0,0,,1,,,72,127
79114,note_off,0,0,0,,0,,,64,95
79114,note_off,0,0,0,,0,,,67,95
79115,note_on,1,0,0,,0,,,53,95
79115,note_on,0,0,0,,0,,,65,95
79115,note_on,0,0,0,,0,,,69,95
79115,note_on,0,0,0,,1,,,69,127
79291,note_off,176,0,0,,1,,,69,127
79292,note_on,1,0,0,,1,,,72,127
79468,note_off,176,0,0,,1,,,72,127
79469,note_on,1,0,0,,1,,,77,127
79822,note_off,353,0,0,,0,,,69,95
79822,note_off,0,0,0,,0,,,65,95
79822,note_off,0,0,0,,0,,,53,95
79823,note_on,1,0,0,,0,,,48,95
79823,note_on,0,0,0,,0,,,67,95
80176,note_off,353,0,0,,0,,,48,95
80176,note_off,0,0,0,,1,,,77,127
80177,note_on,1,0,0,,0,,,43,95
80177,note_on,0,0,0,,1,,,74,127
80530,note_off,353,0,0,,1,,,74,127
80530,note_off,0,0,0,,0,,,43,95
80530,note_off,0,0,0,,0,,,67,95
80531,note_on,1,0,0,,0,,,55,95
80531,note_on,0,0,0,,0,,,62,95
80531,note_on,0,0,0,,0,,,67,95
80531,note_on,0,0,0,,1,,,72,127
80707,note_off,176,0,0,,1,,,72,127
80708,note_on,1,0,0,,1,,,71,127
80884,note_off,176,0,0,,1,,,71,127
80884,note_off,0,0,0,,0,,,62,95
80884,note_off,0,0,0,,0,,,55,95
80885,note_on,1,0,0,,0,,,52,95
80885,note_on,0,0,0,,0,,,72,95
80885,note_on,0,0,0,,1,,,79,127
81238,note_off,353,0,0,,1,,,79,127
81238,note_off,0,0,0,,0,,,52,95
81238,note_off,0,0,0,,0,,,67,95
81239,note_on,1,0,0,,0,,,53,95
81239,note_on,0,0,0,,1,,,77,127
81415,note_off,176,0,0,,1,,,77,127
81416,note_on,1,0,0,,1,,,76,127
81592,note_off,176,0,0,,1,,,76,127
81592,note_off,0,0,0,,0,,,53,95
81592,note_off,0,0,0,,0,,,72,95
81593,note_on,1,0,0,,0,,,55,95
81593,note_on,0,0,0,,0,,,62,95
81593,note_on,0,0,0,,0,,,71,95
81593,note_on,0,0,0,,1,,,74,127
81769,note_off,176,0,0,,1,,,74,127
81770,note_on,1,0,0,,1,,,72,127
81946,note_off,176,0,0,,1,,,72,127
81946,note_off,0,0,0,,0,,,55,95
81947,note_on,1,0,0,,0,,,43,95
81947,note_on,0,0,0,,1,,,74,127
82123,note_off,176,0,0,,1,,,74,127
82124,note_on,1,0,0,,1,,,71,127
82300,note_off,176,0,0,,1,,,71,127
82300,note_off,0,0,0,,0,,,43,95
82300,note_off,0,0,0,,0,,,71,95
82300,note_off,0,0,0,,0,,,62,95
82301,note_on,1,0,0,,0,,,48,95
82301,note_on,0,0,0,,0,,,64,95
82301,note_on,0,0,0,,0,,,67,95
82301,note_on,0,0,0,,1,,,72,127
83009,note_off,708,0,0,,0,,,67,95
83009,note_off,0,0,0,,0,,,64,95
83363,note_off,354,0,0,,1,,,72,127
83363,note_off,0,0,0,,0,,,48,95
83364,note_on,1,0,0,,0,,,48,95
83364,note_on,0,0,0,,0,,,64,95
83364,note_on,0,0,0,,0,,,67,95
83364,note_on,0,0,0,,1,,,72,127
83540,note_off,176,0,0,,1,,,72,127
83541,note_on,1,0,0,,1,,,76,127
83717,note_off,176,0,0,,1,,,76,127
83718,note_on,1,0,0,,1,,,79,127
84071,note_off,353,0,0,,0,,,48,95
84072,note_on,1,0,0,,0,,,60,95
84425,note_off,353,0,0,,0,,,60,95
84425,note_off,0,0,0,,1,,,79,127
84425,note_off,0,0,0,,0,,,67,95
84425,note_off,0,0,0,,0,,,64,95
84426,note_on,1,0,0,,0,,,62,95
84426,note_on,0,0,0,,0,,,66,95
84426,note_on,0,0,0,,0,,,69,95
84426,note_on,0,0,0,,1,,,78,127
84602,note_off,176,0,0,,1,,,78,127
84603,note_on,1,0,0,,1,,,81,127
84779,note_off,176,0,0,,1,,,81,127
84780,note_on,1,0,0,,1,,,72,127
85133,note_off,353,0,0,,0,,,62,95
85134,note_on,1,0,0,,0,,,50,95
85487,note_off,353,0,0,,0,,,50,95
85487,note_off,0,0,0,,1,,,72,127
85487,note_off,0,0,0,,0,,,69,95
85487,note_off,0,0,0,,0,,,66,95
85488,note_on,1,0,0,,0,,,51,95
85488,note_on,0,0,0,,0,,,67,95
85488,note_on,0,0,0,,0,,,60,95
85488,note_on,0,0,0,,1,,,72,127
85664,note_off,176,0,0,,1,,,72,127
85665,note_on,1,0,0,,1,,,75,127
85841,note_off,176,0,0,,1,,,75,127
85842,note_on,1,0,0,,1,,,79,127
86195,note_off,353,0,0,,0,,,51,95
86196,note_on,1,0,0,,0,,,48,95
86549,note_off,353,0,0,,0,,,48,95
86549,note_off,0,0,0,,1,,,79,127
86549,note_off,0,0,0,,0,,,60,95
86549,note_off,0,0,0,,0,,,67,95
86550,note_on,1,0,0,,0,,,50,95
86550,note_on,0,0,0,,0,,,69,95
86550,note_on,0,0,0,,0,,,66,95
86550,note_on,0,0,0,,1,,,78,127
86726,note_off,176,0,0,,1,,,78,127
86727,note_on,1,0,0,,1,,,81,127
86903,note_off,176,0,0,,1,,,81,127
86904,note_on,1,0,0,,1,,,72,127
87257,note_off,353,0,0,,0,,,50,95
87258,note_on,1,0,0,,0,,,52,95
87611,note_off,353,0,0,,0,,,52,95
87611,note_off,0,0,0,,1,,,72,127
87611,note_off,0,0,0,,0,,,66,95
87611,note_off,0,0,0,,0,,,69,95
87612,note_on,1,0,0,,0,,,54,95
87612,note_on,0,0,0,,0,,,62,95
87612,note_on,0,0,0,,1,,,72,127
87788,note_off,176,0,0,,1,,,72,127
87789,note_on,1,0,0,,1,,,76,127
87965,note_off,176,0,0,,1,,,76,127
87965,note_off,0,0,0,,0,,,54,95
87966,note_on,1,0,0,,0,,,50,95
87966,note_on,0,0,0,,0,,,69,95
87966,note_on,0,0,0,,1,,,74,127
88142,note_off,176,0,0,,1,,,74,127
88143,note_on,1,0,0,,1,,,72,127
88319,note_off,176,0,0,,1,,,72,127
88319,note_off,0,0,0,,0,,,50,95
88319,note_off,0,0,0,,0,,,62,95
88320,note_on,1,0,0,,0,,,54,95
88320,note_on,0,0,0,,0,,,62,95
88320,note_on,0,0,0,,1,,,71,127
88496,note_off,176,0,0,,1,,,71,127
88497,note_on,1,0,0,,1,,,69,127
88673,note_off,176,0,0,,1,,,69,127
88673,note_off,0,0,0,,0,,,62,95
88673,note_off,0,0,0,,0,,,54,95
88673,note_off,0,0,0,,0,,,69,95
88674,note_on,1,0,0,,0,,,55,95
88674,note_on,0,0,0,,0,,,62,95
88674,note_on,0,0,0,,0,,,67,95
88674,note_on,0,0,0,,1,,,71,127
88850,note_off,176,0,0,,1,,,71,127
88851,note_on,1,0,0,,1,,,72,127
89027,note_off,176,0,0,,1,,,72,127
89028,note_on,1,0,0,,1,,,74,127
89204,note_off,176,0,0,,1,,,74,127
89205,note_on,1,0,0,,1,,,71,127
89381,note_off,176,0,0,,1,,,71,127
89381,note_off,0,0,0,,0,,,67,95
89381,note_off,0,0,0,,0,,,55,95
89382,note_on,1,0,0,,0,,,47,95
89382,note_on,0,0,0,,1,,,69,127
89558,note_off,176,0,0,,1,,,69,127
89559,note_on,1,0,0,,1,,,67,127
89735,note_off,176,0,0,,1,,,67,127
89735,note_off,0,0,0,,0,,,47,95
89735,note_off,0,0,0,,0,,,62,95
89736,note_on,1,0,0,,0,,,48,95
89736,note_on,0,0,0,,0,,,64,95
89736,note_on,0,0,0,,0,,,67,95
89736,note_on,0,0,0,,1,,,76,127
89912,note_off,176,0,0,,1,,,76,127
89913,note_on,1,0,0,,1,,,67,127
90089,note_off,176,0,0,,1,,,67,127
90089,note_off,0,0,0,,0,,,64,95
90089,note_off,0,0,0,,0,,,48,95
90090,note_on,1,0,0,,0,,,50,95
90090,note_on,0,0,0,,0,,,62,95
90090,note_on,0,0,0,,1,,,71,127
90403,note_off,313,0,0,,1,,,71,127
90444,note_off,41,0,0,,0,,,50,95
90444,note_off,0,0,0,,0,,,67,95
90445,note_on,1,0,0,,0,,,38,95
90445,note_on,0,0,0,,0,,,66,95
90445,note_on,0,0,0,,1,,,69,127
90758,note_off,313,0,0,,1,,,69,127
90799,note_off,41,0,0,,0,,,66,95
90799,note_off,0,0,0,,0,,,38,95
90799,note_off,0,0,0,,0,,,62,95
90816,note_on,17,0,0,,1,,,67,127
90816,note_on,0,0,0,,0,,,67,95
90816,note_on,0,0,0,,0,,,62,95
90816,note_on,0,0,0,,0,,,43,95
90992,note_off,176,0,0,,1,,,67,127
90993,note_on,1,0,0,,1,,,71,127
91169,note_off,176,0,0,,1,,,71,127
91170,note_on,1,0,0,,1,,,74,127
91523,note_off,353,0,0,,0,,,43,95
91523,note_off,0,0,0,,0,,,62,95
91524,note_on,1,0,0,,0,,,71,95
91524,note_on,0,0,0,,0,,,62,95
91833,note_off,309,0,0,,1,,,74,127
91877,note_off,44,0,0,,0,,,62,95
91877,note_off,0,0,0,,0,,,71,95
91877,note_off,0,0,0,,0,,,67,95
91878,note_on,1,0,0,,1,,,67,127
91878,note_on,0,0,0,,0,,,72,95
91878,note_on,0,0,0,,0,,,67,95
91878,note_on,0,0,0,,0,,,63,95
92054,note_off,176,0,0,,1,,,67,127
92055,note_on,1,0,0,,1,,,72,127
92231,note_off,176,0,0,,1,,,72,127
92232,note_on,1,0,0,,1,,,75,127
92585,note_off,353,0,0,,0,,,63,95
92586,note_on,1,0,0,,0,,,63,95
92895,note_off,309,0,0,,1,,,75,127
92939,note_off,44,0,0,,0,,,63,95
92939,note_off,0,0,0,,0,,,67,95
92939,note_off,0,0,0,,0,,,72,95
92940,note_on,1,0,0,,1,,,65,127
92940,note_on,0,0,0,,0,,,67,95
92940,note_on,0,0,0,,0,,,65,95
92940,note_on,0,0,0,,0,,,59,95
93116,note_off,176,0,0,,1,,,65,127
93117,note_on,1,0,0,,1,,,71,127
93293,note_off,176,0,0,,1,,,71,127
93294,note_on,1,0,0,,1,,,74,127
93647,note_off,353,0,0,,0,,,59,95
93648,note_on,1,0,0,,0,,,59,95
93957,note_off,309,0,0,,1,,,74,127
94001,note_off,44,0,0,,0,,,59,95
94001,note_off,0,0,0,,0,,,65,95
94001,note_off,0,0,0,,0,,,67,95
94002,note_on,1,0,0,,1,,,63,127
94002,note_on,0,0,0,,0,,,67,95
94002,note_on,0,0,0,,0,,,63,95
94002,note_on,0,0,0,,0,,,60,95
94178,note_off,176,0,0,,1,,,63,127
94179,note_on,1,0,0,,1,,,67,127
94355,note_off,176,0,0,,1,,,67,127
94356,note_on,1,0,0,,1,,,72,127
94709,note_off,353,0,0,,0,,,60,95
94710,note_on,1,0,0,,0,,,60,95
95019,note_off,309,0,0,,1,,,72,127
95063,note_off,44,0,0,,0,,,60,95
95063,note_off,0,0,0,,0,,,63,95
95063,note_off,0,0,0,,0,,,67,95
95064,note_on,1,0,0,,1,,,71,127
95064,note_on,0,0,0,,0,,,71,95
95064,note_on,0,0,0,,0,,,62,95
95064,note_on,0,0,0,,0,,,55,95
95243,note_off,179,0,0,,1,,,71,127
95244,note_on,1,0,0,,1,,,74,127
95423,note_off,179,0,0,,1,,,74,127
95424,note_on,1,0,0,,1,,,79,127
95783,note_off,359,0,0,,0,,,55,95
95784,note_on,1,0,0,,0,,,55,95
96098,note_off,314,0,0,,1,,,79,127
96143,note_off,45,0,0,,0,,,55,95
96143,note_off,0,0,0,,0,,,62,95
96143,note_off,0,0,0,,0,,,71,95
96144,note_on,1,0,0,,1,,,65,127
96144,note_on,0,0,0,,0,,,62,95
96144,note_on,0,0,0,,0,,,59,95
96144,note_on,0,0,0,,0,,,43,95
96323,note_off,179,0,0,,1,,,65,127
96324,note_on,1,0,0,,1,,,71,127
96503,note_off,179,0,0,,1,,,71,127
96504,note_on,1,0,0,,1,,,74,127
96863,note_off,359,0,0,,0,,,43,95
96864,note_on,1,0,0,,0,,,43,95
97223,note_off,359,0,0,,0,,,43,95
97223,note_off,0,0,0,,1,,,74,127
97223,note_off,0,0,0,,0,,,59,95
97223,note_off,0,0,0,,0,,,62,95
97224,note_on,1,0,0,,1,,,64,127
97224,note_on,0,0,0,,0,,,67,95
97224,note_on,0,0,0,,0,,,64,95
97224,note_on,0,0,0,,0,,,60,95
97224,note_on,0,0,0,,0,,,48,95
97406,note_off,182,0,0,,1,,,64,127
97407,note_on,1,0,0,,1,,,67,127
97589,note_off,182,0,0,,1,,,67,127
97590,note_on,1,0,0,,1,,,72,127
97772,note_off,182,0,0,,1,,,72,127
97773,note_on,1,0,0,,1,,,67,127
97955,note_off,182,0,0,,1,,,67,127
97955,note_off,0,0,0,,0,,,48,95
97955,note_off,0,0,0,,0,,,60,95
97956,note_on,1,0,0,,1,,,79,127
97956,note_on,0,0,0,,0,,,72,95
97956,note_on,0,0,0,,0,,,52,95
98321,note_off,365,0,0,,0,,,52,95
98321,note_off,0,0,0,,1,,,79,127
98321,note_off,0,0,0,,0,,,64,95
98321,note_off,0,0,0,,0,,,67,95
98322,note_on,1,0,0,,1,,,77,127
98322,note_on,0,0,0,,0,,,69,95
98322,note_on,0,0,0,,0,,,53,95
98507,note_off,185,0,0,,1,,,77,127
98508,note_on,1,0,0,,1,,,76,127
98693,note_off,185,0,0,,1,,,76,127
98693,note_off,0,0,0,,0,,,53,95
98693,note_off,0,0,0,,0,,,69,95
98694,note_on,1,0,0,,1,,,74,127
98694,note_on,0,0,0,,0,,,67,95
98694,note_on,0,0,0,,0,,,55,95
98879,note_off,185,0,0,,1,,,74,127
98880,note_on,1,0,0,,1,,,72,127
99065,note_off,185,0,0,,1,,,72,127
99065,note_off,0,0,0,,0,,,55,95
99065,note_off,0,0,0,,0,,,72,95
99066,note_on,1,0,0,,1,,,74,127
99066,note_on,0,0,0,,0,,,71,95
99066,note_on,0,0,0,,0,,,43,95
99251,note_off,185,0,0,,1,,,74,127
99252,note_on,1,0,0,,1,,,71,127
99437,note_off,185,0,0,,1,,,71,127
99437,note_off,0,0,0,,0,,,71,95
99437,note_off,0,0,0,,0,,,67,95
99445,note_off,8,0,0,,0,,,43,95
99449,note_on,4,0,0,,0,,,64,95
99449,note_on,0,0,0,,0,,,48,95
99449,note_on,0,0,0,,0,,,67,95
99449,note_on,0,0,0,,1,,,72,127
100248,note_off,799,0,0,,0,,,67,95
100248,note_off,0,0,0,,0,,,64,95
100398,note_off,150,0,0,,1,,,72,127
100398,note_off,0,0,0,,0,,,48,95
100568,note_on,170,0,0,,0,,,48,95
100568,note_on,0,0,0,,0,,,60,95
100568,note_on,0,0,0,,0,,,63,95
100568,note_on,0,0,0,,1,,,72,127
100756,note_off,188,0,0,,1,,,72,127
100757,note_on,1,0,0,,1,,,74,127
100850,note_off,93,0,0,,1,,,74,127
100851,note_on,1,0,0,,1,,,75,127
100944,note_off,93,0,0,,1,,,75,127
100945,note_on,1,0,0,,1,,,72,127
101322,note_off,377,0,0,,1,,,72,127
101322,note_off,0,0,0,,0,,,63,95
101322,note_off,0,0,0,,0,,,60,95
101322,note_off,0,0,0,,0,,,48,95
101323,note_on,1,0,0,,0,,,50,95
101323,note_on,0,0,0,,0,,,62,95
101323,note_on,0,0,0,,0,,,65,95
101323,note_on,0,0,0,,1,,,71,127
101700,note_off,377,0,0,,1,,,71,127
101700,note_off,0,0,0,,0,,,65,95
101700,note_off,0,0,0,,0,,,62,95
101700,note_off,0,0,0,,0,,,50,95
101701,note_on,1,0,0,,0,,,51,95
101701,note_on,0,0,0,,0,,,60,95
101701,note_on,0,0,0,,0,,,67,95
101701,note_on,0,0,0,,1,,,72,127
101889,note_off,188,0,0,,1,,,72,127
101890,note_on,1,0,0,,1,,,74,127
101983,note_off,93,0,0,,1,,,74,127
101984,note_on,1,0,0,,1,,,75,127
102077,note_off,93,0,0,,1,,,75,127
102078,note_on,1,0,0,,1,,,67,127
102455,note_off,377,0,0,,1,,,67,127
102455,note_off,0,0,0,,0,,,67,95
102455,note_off,0,0,0,,0,,,60,95
102455,note_off,0,0,0,,0,,,51,95
102456,note_on,1,0,0,,0,,,53,95
102456,note_on,0,0,0,,0,,,60,95
102456,note_on,0,0,0,,0,,,65,95
102456,note_on,0,0,0,,1,,,68,127
102833,note_off,377,0,0,,1,,,68,127
102833,note_off,0,0,0,,0,,,60,95
102833,note_off,0,0,0,,0,,,53,95
102834,note_on,1,0,0,,0,,,50,95
102834,note_on,0,0,0,,0,,,59,95
102834,note_on,0,0,0,,1,,,71,127
103022,note_off,188,0,0,,1,,,71,127
103023,note_on,1,0,0,,1,,,72,127
103116,note_off,93,0,0,,1,,,72,127
103117,note_on,1,0,0,,1,,,74,127
103210,note_off,93,0,0,,1,,,74,127
103211,note_on,1,0,0,,1,,,65,127
103588,note_off,377,0,0,,1,,,65,127
103588,note_off,0,0,0,,0,,,59,95
103588,note_off,0,0,0,,0,,,50,95
103588,note_off,0,0,0,,0,,,65,95
103589,note_on,1,0,0,,0,,,51,95
103589,note_on,0,0,0,,0,,,60,95
103589,note_on,0,0,0,,0,,,67,95
103589,note_on,0,0,0,,1,,,67,127
103966,note_off,377,0,0,,1,,,67,127
103966,note_off,0,0,0,,0,,,60,95
103966,note_off,0,0,0,,0,,,51,95
103967,note_on,1,0,0,,0,,,48,95
103967,note_on,0,0,0,,0,,,63,95
103967,note_on,0,0,0,,1,,,72,127
104155,note_off,188,0,0,,1,,,72,127
104156,note_on,1,0,0,,1,,,74,127
104249,note_off,93,0,0,,1,,,74,127
104250,note_on,1,0,0,,1,,,75,127
104343,note_off,93,0,0,,1,,,75,127
104344,note_on,1,0,0,,1,,,67,127
104721,note_off,377,0,0,,1,,,67,127
104721,note_off,0,0,0,,0,,,63,95
104721,note_off,0,0,0,,0,,,48,95
104721,note_off,0,0,0,,0,,,67,95
104722,note_on,1,0,0,,0,,,53,95
104722,note_on,0,0,0,,0,,,60,95
104722,note_on,0,0,0,,0,,,65,95
104722,note_on,0,0,0,,1,,,68,127
105099,note_off,377,0,0,,1,,,68,127
105099,note_off,0,0,0,,0,,,60,95
105099,note_off,0,0,0,,0,,,53,95
105100,note_on,1,0,0,,0,,,50,95
105100,note_on,0,0,0,,0,,,59,95
105100,note_on,0,0,0,,1,,,74,127
105288,note_off,188,0,0,,1,,,74,127
105289,note_on,1,0,0,,1,,,75,127
105382,note_off,93,0,0,,1,,,75,127
105383,note_on,1,0,0,,1,,,77,127
105476,note_off,93,0,0,,1,,,77,127
105477,note_on,1,0,0,,1,,,71,127
105854,note_off,377,0,0,,1,,,71,127
105854,note_off,0,0,0,,0,,,59,95
105854,note_off,0,0,0,,0,,,50,95
105854,note_off,0,0,0,,0,,,65,95
105855,note_on,1,0,0,,0,,,51,95
105855,note_on,0,0,0,,0,,,67,95
105855,note_on,0,0,0,,0,,,60,95
105855,note_on,0,0,0,,1,,,72,127
106232,note_off,377,0,0,,1,,,72,127
106232,note_off,0,0,0,,0,,,60,95
106232,note_off,0,0,0,,0,,,51,95
106233,note_on,1,0,0,,0,,,50,95
106233,note_on,0,0,0,,0,,,59,95
106233,note_on,0,0,0,,1,,,77,127
106421,note_off,188,0,0,,1,,,77,127
106422,note_on,1,0,0,,1,,,79,127
106515,note_off,93,0,0,,1,,,79,127
106516,note_on,1,0,0,,1,,,80,127
106609,note_off,93,0,0,,1,,,80,127
106610,note_on,1,0,0,,1,,,71,127
106987,note_off,377,0,0,,1,,,71,127
106987,note_off,0,0,0,,0,,,59,95
106987,note_off,0,0,0,,0,,,50,95
106987,note_off,0,0,0,,0,,,67,95
106988,note_on,1,0,0,,0,,,51,95
106988,note_on,0,0,0,,0,,,60,95
106988,note_on,0,0,0,,0,,,67,95
106988,note_on,0,0,0,,1,,,72,127
107365,note_off,377,0,0,,1,,,72,127
107365,note_off,0,0,0,,0,,,51,95
107366,note_on,1,0,0,,0,,,51,95
107366,note_on,0,0,0,,1,,,67,127
107554,note_off,188,0,0,,1,,,67,127
107555,note_on,1,0,0,,1,,,66,127
107648,note_off,93,0,0,,1,,,66,127
107649,note_on,1,0,0,,1,,,67,127
107742,note_off,93,0,0,,1,,,67,127
107742,note_off,0,0,0,,0,,,51,95
107742,note_off,0,0,0,,0,,,67,95
107742,note_off,0,0,0,,0,,,60,95
107743,note_on,1,0,0,,0,,,50,95
107743,note_on,0,0,0,,0,,,59,95
107743,note_on,0,0,0,,0,,,67,95
107743,note_on,0,0,0,,1,,,77,127
107931,note_off,188,0,0,,1,,,77,127
107932,note_on,1,0,0,,1,,,75,127
108025,note_off,93,0,0,,1,,,75,127
108026,note_on,1,0,0,,1,,,74,127
108119,note_off,93,0,0,,1,,,74,127
108119,note_off,0,0,0,,0,,,59,95
108119,note_off,0,0,0,,0,,,50,95
108120,note_on,1,0,0,,0,,,48,95
108120,note_on,0,0,0,,0,,,60,95
108120,note_on,0,0,0,,1,,,75,127
108308,note_off,188,0,0,,1,,,75,127
108309,note_on,1,0,0,,1,,,74,127
108402,note_off,93,0,0,,1,,,74,127
108403,note_on,1,0,0,,1,,,72,127
108496,note_off,93,0,0,,1,,,72,127
108496,note_off,0,0,0,,0,,,60,95
108496,note_off,0,0,0,,0,,,48,95
108496,note_off,0,0,0,,0,,,67,95
108497,note_on,1,0,0,,0,,,55,95
108497,note_on,0,0,0,,0,,,71,95
108497,note_on,0,0,0,,0,,,67,95
108497,note_on,0,0,0,,0,,,62,95
108497,note_on,0,0,0,,1,,,74,127
109251,note_off,754,0,0,,0,,,62,95
109251,note_off,0,0,0,,0,,,67,95
109251,note_off,0,0,0,,0,,,71,95
109456,note_off,205,0,0,,1,,,74,127
109629,note_off,173,0,0,,0,,,55,95
109630,note_on,1,0,0,,0,,,43,95
109630,note_on,0,0,0,,0,,,62,95
109630,note_on,0,0,0,,0,,,67,95
109630,note_on,0,0,0,,0,,,70,95
109630,note_on,0,0,0,,1,,,79,127
109818,note_off,188,0,0,,1,,,79,127
109819,note_on,1,0,0,,1,,,80,127
109912,note_off,93,0,0,,1,,,80,127
109913,note_on,1,0,0,,1,,,82,127
110006,note_off,93,0,0,,1,,,82,127
110007,note_on,1,0,0,,1,,,79,127
110384,note_off,377,0,0,,1,,,79,127
110384,note_off,0,0,0,,0,,,70,95
110384,note_off,0,0,0,,0,,,67,95
110384,note_off,0,0,0,,0,,,62,95
110384,note_off,0,0,0,,0,,,43,95
110385,note_on,1,0,0,,0,,,46,95
110385,note_on,0,0,0,,0,,,62,95
110385,note_on,0,0,0,,0,,,67,95
110385,note_on,0,0,0,,1,,,77,127
110762,note_off,377,0,0,,1,,,77,127
110762,note_off,0,0,0,,0,,,62,95
110762,note_off,0,0,0,,0,,,46,95
110763,note_on,1,0,0,,0,,,48,95
110763,note_on,0,0,0,,0,,,60,95
110763,note_on,0,0,0,,1,,,76,127
110951,note_off,188,0,0,,1,,,76,127
110952,note_on,1,0,0,,1,,,77,127
111045,note_off,93,0,0,,1,,,77,127
111046,note_on,1,0,0,,1,,,79,127
111139,note_off,93,0,0,,1,,,79,127
111140,note_on,1,0,0,,1,,,73,127
111517,note_off,377,0,0,,1,,,73,127
111517,note_off,0,0,0,,0,,,60,95
111517,note_off,0,0,0,,0,,,48,95
111517,note_off,0,0,0,,0,,,67,95
111518,note_on,1,0,0,,0,,,48,95
111518,note_on,0,0,0,,0,,,67,95
111518,note_on,0,0,0,,0,,,64,95
111518,note_on,0,0,0,,1,,,72,127
111895,note_off,377,0,0,,1,,,72,127
111895,note_off,0,0,0,,0,,,64,95
111895,note_off,0,0,0,,0,,,67,95
111895,note_off,0,0,0,,0,,,48,95
111896,note_on,1,0,0,,0,,,49,95
111896,note_on,0,0,0,,0,,,65,95
111896,note_on,0,0,0,,0,,,58,95
111896,note_on,0,0,0,,1,,,70,127
112084,note_off,188,0,0,,1,,,70,127
112085,note_on,1,0,0,,1,,,72,127
112178,note_off,93,0,0,,1,,,72,127
112179,note_on,1,0,0,,1,,,73,127
112272,note_off,93,0,0,,1,,,73,127
112273,note_on,1,0,0,,1,,,66,127
112650,note_off,377,0,0,,1,,,66,127
112650,note_off,0,0,0,,0,,,58,95
112650,note_off,0,0,0,,0,,,65,95
112650,note_off,0,0,0,,0,,,49,95
112651,note_on,1,0,0,,0,,,49,95
112651,note_on,0,0,0,,0,,,58,95
112651,note_on,0,0,0,,0,,,61,95
112651,note_on,0,0,0,,1,,,65,127
113028,note_off,377,0,0,,1,,,65,127
113028,note_off,0,0,0,,0,,,61,95
113028,note_off,0,0,0,,0,,,58,95
113028,note_off,0,0,0,,0,,,49,95
113029,note_on,1,0,0,,0,,,48,95
113029,note_on,0,0,0,,0,,,67,95
113029,note_on,0,0,0,,0,,,60,95
113029,note_on,0,0,0,,1,,,64,127
113217,note_off,188,0,0,,1,,,64,127
113218,note_on,1,0,0,,1,,,65,127
113311,note_off,93,0,0,,1,,,65,127
113312,note_on,1,0,0,,1,,,67,127
113405,note_off,93,0,0,,1,,,67,127
113406,note_on,1,0,0,,1,,,71,127
113783,note_off,377,0,0,,1,,,71,127
113783,note_off,0,0,0,,0,,,60,95
113783,note_off,0,0,0,,0,,,67,95
113783,note_off,0,0,0,,0,,,48,95
113784,note_on,1,0,0,,0,,,48,95
113784,note_on,0,0,0,,0,,,64,95
113784,note_on,0,0,0,,0,,,67,95
113784,note_on,0,0,0,,1,,,72,127
114161,note_off,377,0,0,,1,,,72,127
114161,note_off,0,0,0,,0,,,67,95
114161,note_off,0,0,0,,0,,,64,95
114161,note_off,0,0,0,,0,,,48,95
114162,note_on,1,0,0,,0,,,50,95
114162,note_on,0,0,0,,0,,,68,95
114162,note_on,0,0,0,,1,,,65,127
114350,note_off,188,0,0,,1,,,65,127
114351,note_on,1,0,0,,1,,,67,127
114444,note_off,93,0,0,,1,,,67,127
114445,note_on,1,0,0,,1,,,68,127
114538,note_off,93,0,0,,1,,,68,127
114539,note_on,1,0,0,,1,,,72,127
114916,note_off,377,0,0,,1,,,72,127
114916,note_off,0,0,0,,0,,,50,95
114917,note_on,1,0,0,,0,,,50,95
114917,note_on,0,0,0,,0,,,62,95
114917,note_on,0,0,0,,0,,,65,95
114917,note_on,0,0,0,,1,,,74,127
115294,note_off,377,0,0,,1,,,74,127
115294,note_off,0,0,0,,0,,,65,95
115294,note_off,0,0,0,,0,,,62,95
115294,note_off,0,0,0,,0,,,50,95
115294,note_off,0,0,0,,0,,,68,95
115295,note_on,1,0,0,,0,,,51,95
115295,note_on,0,0,0,,0,,,67,95
115295,note_on,0,0,0,,0,,,60,95
115295,note_on,0,0,0,,1,,,67,127
115483,note_off,188,0,0,,1,,,67,127
115484,note_on,1,0,0,,1,,,69,127
115577,note_off,93,0,0,,1,,,69,127
115578,note_on,1,0,0,,1,,,71,127
115671,note_off,93,0,0,,1,,,71,127
115672,note_on,1,0,0,,1,,,74,127
116049,note_off,377,0,0,,1,,,74,127
116049,note_off,0,0,0,,0,,,60,95
116049,note_off,0,0,0,,0,,,67,95
116049,note_off,0,0,0,,0,,,51,95
116050,note_on,1,0,0,,0,,,51,95
116050,note_on,0,0,0,,0,,,67,95
116050,note_on,0,0,0,,0,,,60,95
116050,note_on,0,0,0,,1,,,75,127
116427,note_off,377,0,0,,1,,,75,127
116427,note_off,0,0,0,,0,,,60,95
116427,note_off,0,0,0,,0,,,67,95
116427,note_off,0,0,0,,0,,,51,95
116428,note_on,1,0,0,,0,,,53,95
116428,note_on,0,0,0,,0,,,60,95
116428,note_on,0,0,0,,0,,,68,95
116428,note_on,0,0,0,,1,,,80,127
116616,note_off,188,0,0,,1,,,80,127
116617,note_on,1,0,0,,1,,,82,127
116710,note_off,93,0,0,,1,,,82,127
116711,note_on,1,0,0,,1,,,84,127
116804,note_off,93,0,0,,1,,,84,127
116804,note_off,0,0,0,,0,,,53,95
116805,note_on,1,0,0,,0,,,41,95
116805,note_on,0,0,0,,1,,,77,127
116993,note_off,188,0,0,,1,,,77,127
116994,note_on,1,0,0,,1,,,79,127
117087,note_off,93,0,0,,1,,,79,127
117088,note_on,1,0,0,,1,,,80,127
117181,note_off,93,0,0,,1,,,80,127
117181,note_off,0,0,0,,0,,,41,95
117181,note_off,0,0,0,,0,,,68,95
117181,note_off,0,0,0,,0,,,60,95
117182,note_on,1,0,0,,0,,,53,95
117182,note_on,0,0,0,,0,,,68,95
117182,note_on,0,0,0,,0,,,65,95
117182,note_on,0,0,0,,1,,,74,127
117370,note_off,188,0,0,,1,,,74,127
117371,note_on,1,0,0,,1,,,75,127
117464,note_off,93,0,0,,1,,,75,127
117465,note_on,1,0,0,,1,,,77,127
117558,note_off,93,0,0,,1,,,77,127
117558,note_off,0,0,0,,0,,,65,95
117558,note_off,0,0,0,,0,,,68,95
117558,note_off,0,0,0,,0,,,53,95
117559,note_on,1,0,0,,0,,,55,95
117559,note_on,0,0,0,,0,,,67,95
117559,note_on,0,0,0,,0,,,62,95
117559,note_on,0,0,0,,1,,,71,127
117747,note_off,188,0,0,,1,,,71,127
117748,note_on,1,0,0,,1,,,72,127
117841,note_off,93,0,0,,1,,,72,127
117842,note_on,1,0,0,,1,,,74,127
117935,note_off,93,0,0,,1,,,74,127
117935,note_off,0,0,0,,0,,,55,95
117936,note_on,1,0,0,,0,,,43,95
117936,note_on,0,0,0,,1,,,67,127
118124,note_off,188,0,0,,1,,,67,127
118125,note_on,1,0,0,,1,,,66,127
118218,note_off,93,0,0,,1,,,66,127
118219,note_on,1,0,0,,1,,,67,127
118312,note_off,93,0,0,,1,,,67,127
118312,note_off,0,0,0,,0,,,43,95
118312,note_off,0,0,0,,0,,,62,95
118312,note_off,0,0,0,,0,,,67,95
118313,note_on,1,0,0,,0,,,59,95
118313,note_on,0,0,0,,0,,,62,95
118313,note_on,0,0,0,,0,,,67,95
118313,note_on,0,0,0,,1,,,77,127
118501,note_off,188,0,0,,1,,,77,127
118502,note_on,1,0,0,,1,,,75,127
118595,note_off,93,0,0,,1,,,75,127
118596,note_on,1,0,0,,1,,,74,127
118689,note_off,93,0,0,,1,,,74,127
118689,note_off,0,0,0,,0,,,62,95
118689,note_off,0,0,0,,0,,,59,95
118690,note_on,1,0,0,,0,,,60,95
118690,note_on,0,0,0,,0,,,63,95
118690,note_on,0,0,0,,1,,,75,127
118881,note_off,191,0,0,,1,,,75,127
118882,note_on,1,0,0,,1,,,74,127
118977,note_off,95,0,0,,1,,,74,127
118978,note_on,1,0,0,,1,,,72,127
119073,note_off,95,0,0,,1,,,72,127
119073,note_off,0,0,0,,0,,,63,95
119073,note_off,0,0,0,,0,,,60,95
119074,note_on,1,0,0,,0,,,53,95
119074,note_on,0,0,0,,0,,,62,95
119074,note_on,0,0,0,,1,,,62,127
119433,note_off,359,0,0,,1,,,62,127
119457,note_off,24,0,0,,0,,,53,95
119457,note_off,0,0,0,,0,,,67,95
119458,note_on,1,0,0,,0,,,55,95
119458,note_on,0,0,0,,0,,,67,95
119458,note_on,0,0,0,,1,,,71,127
119817,note_off,359,0,0,,1,,,71,127
119841,note_off,24,0,0,,0,,,67,95
119841,note_off,0,0,0,,0,,,55,95
119841,note_off,0,0,0,,0,,,62,95
119848,note_on,7,0,0,,1,,,72,127
119848,note_on,0,0,0,,0,,,48,95
119848,note_on,0,0,0,,0,,,64,95
119848,note_on,0,0,0,,0,,,72,95
119848,note_on,0,0,0,,0,,,67,95
120615,note_off,767,0,0,,0,,,67,95
120615,note_off,0,0,0,,0,,,72,95
120615,note_off,0,0,0,,0,,,64,95
120823,note_off,208,0,0,,1,,,72,127
120994,note_on,171,0,0,,0,,,60,95
120994,note_on,0,0,0,,0,,,64,95
120994,note_on,0,0,0,,0,,,67,95
120994,note_on,0,0,0,,0,,,72,95
120994,note_on,0,0,0,,1,,,72,127
120997,note_off,3,0,0,,0,,,48,95
121170,note_off,173,0,0,,1,,,72,127
121171,note_on,1,0,0,,1,,,76,127
121347,note_off,176,0,0,,1,,,76,127
121348,note_on,1,0,0,,1,,,79,127
121701,note_off,353,0,0,,0,,,64,95
121701,note_off,0,0,0,,0,,,60,95
121702,note_on,1,0,0,,0,,,64,95
122011,note_off,309,0,0,,1,,,79,127
122055,note_off,44,0,0,,0,,,64,95
122055,note_off,0,0,0,,0,,,72,95
122055,note_off,0,0,0,,0,,,67,95
122056,note_on,1,0,0,,0,,,65,95
122056,note_on,0,0,0,,0,,,72,95
122056,note_on,0,0,0,,0,,,69,95
122056,note_on,0,0,0,,1,,,69,127
122232,note_off,176,0,0,,1,,,69,127
122233,note_on,1,0,0,,1,,,71,127
122409,note_off,176,0,0,,1,,,71,127
122410,note_on,1,0,0,,1,,,72,127
122763,note_off,353,0,0,,0,,,65,95
122764,note_on,1,0,0,,0,,,64,95
123073,note_off,309,0,0,,1,,,72,127
123117,note_off,44,0,0,,0,,,64,95
123117,note_off,0,0,0,,0,,,69,95
123117,note_off,0,0,0,,0,,,72,95
123118,note_on,1,0,0,,0,,,62,95
123118,note_on,0,0,0,,0,,,67,95
123118,note_on,0,0,0,,0,,,65,95
123118,note_on,0,0,0,,1,,,71,127
123294,note_off,176,0,0,,1,,,71,127
123295,note_on,1,0,0,,1,,,74,127
123471,note_off,176,0,0,,1,,,74,127
123472,note_on,1,0,0,,1,,,77,127
123825,note_off,353,0,0,,0,,,62,95
123826,note_on,1,0,0,,0,,,59,95
124135,note_off,309,0,0,,1,,,77,127
124179,note_off,44,0,0,,0,,,59,95
124179,note_off,0,0,0,,0,,,65,95
124179,note_off,0,0,0,,0,,,67,95
124180,note_on,1,0,0,,0,,,64,95
124180,note_on,0,0,0,,0,,,71,95
124180,note_on,0,0,0,,0,,,67,95
124180,note_on,0,0,0,,1,,,67,127
124356,note_off,176,0,0,,1,,,67,127
124357,note_on,1,0,0,,1,,,69,127
124533,note_off,176,0,0,,1,,,69,127
124534,note_on,1,0,0,,1,,,71,127
124887,note_off,353,0,0,,0,,,64,95
124888,note_on,1,0,0,,0,,,62,95
125197,note_off,309,0,0,,1,,,71,127
125241,note_off,44,0,0,,0,,,62,95
125241,note_off,0,0,0,,0,,,67,95
125241,note_off,0,0,0,,0,,,71,95
125242,note_on,1,0,0,,0,,,60,95
125242,note_on,0,0,0,,0,,,69,95
125242,note_on,0,0,0,,0,,,64,95
125242,note_on,0,0,0,,1,,,69,127
125418,note_off,176,0,0,,1,,,69,127
125419,note_on,1,0,0,,1,,,72,127
125595,note_off,176,0,0,,1,,,72,127
125596,note_on,1,0,0,,1,,,76,127
125949,note_off,353,0,0,,0,,,60,95
125950,note_on,1,0,0,,0,,,57,95
126259,note_off,309,0,0,,1,,,76,127
126303,note_off,44,0,0,,0,,,57,95
126303,note_off,0,0,0,,0,,,64,95
126303,note_off,0,0,0,,0,,,69,95
126304,note_on,1,0,0,,0,,,62,95
126304,note_on,0,0,0,,0,,,69,95
126304,note_on,0,0,0,,0,,,65,95
126304,note_on,0,0,0,,1,,,65,127
126480,note_off,176,0,0,,1,,,65,127
126481,note_on,1,0,0,,1,,,67,127
126657,note_off,176,0,0,,1,,,67,127
126658,note_on,1,0,0,,1,,,69,127
127011,note_off,353,0,0,,0,,,62,95
127012,note_on,1,0,0,,0,,,60,95
127321,note_off,309,0,0,,1,,,69,127
127365,note_off,44,0,0,,0,,,60,95
127365,note_off,0,0,0,,0,,,65,95
127365,note_off,0,0,0,,0,,,69,95
127366,note_on,1,0,0,,0,,,59,95
127366,note_on,0,0,0,,0,,,65,95
127366,note_on,0,0,0,,0,,,67,95
127366,note_on,0,0,0,,1,,,67,127
127542,note_off,176,0,0,,1,,,67,127
127543,note_on,1,0,0,,1,,,71,127
127719,note_off,176,0,0,,1,,,71,127
127720,note_on,1,0,0,,1,,,74,127
128073,note_off,353,0,0,,0,,,59,95
128074,note_on,1,0,0,,0,,,55,95
128383,note_off,309,0,0,,1,,,74,127
128427,note_off,44,0,0,,0,,,55,95
128427,note_off,0,0,0,,0,,,67,95
128427,note_off,0,0,0,,0,,,65,95
128428,note_on,1,0,0,,0,,,60,95
128428,note_on,0,0,0,,0,,,67,95
128428,note_on,0,0,0,,0,,,64,95
128428,note_on,0,0,0,,1,,,64,127
128604,note_off,176,0,0,,1,,,64,127
128605,note_on,1,0,0,,1,,,67,127
128781,note_off,176,0,0,,1,,,67,127
128782,note_on,1,0,0,,1,,,72,127
129135,note_off,353,0,0,,0,,,60,95
129136,note_on,1,0,0,,0,,,48,95
129445,note_off,309,0,0,,1,,,72,127
129489,note_off,44,0,0,,0,,,48,95
129489,note_off,0,0,0,,0,,,64,95
129489,note_off,0,0,0,,0,,,67,95
129490,note_on,1,0,0,,0,,,53,95
129490,note_on,0,0,0,,0,,,65,95
129490,note_on,0,0,0,,0,,,69,95
129490,note_on,0,0,0,,1,,,69,127
129666,note_off,176,0,0,,1,,,69,127
129667,note_on,1,0,0,,1,,,72,127
129843,note_off,176,0,0,,1,,,72,127
129844,note_on,1,0,0,,1,,,77,127
130197,note_off,353,0,0,,0,,,69,95
130197,note_off,0,0,0,,0,,,65,95
130197,note_off,0,0,0,,0,,,53,95
130198,note_on,1,0,0,,0,,,48,95
130198,note_on,0,0,0,,0,,,67,95
130551,note_off,353,0,0,,0,,,48,95
130551,note_off,0,0,0,,1,,,77,127
130552,note_on,1,0,0,,0,,,43,95
130552,note_on,0,0,0,,1,,,74,127
130905,note_off,353,0,0,,1,,,74,127
130905,note_off,0,0,0,,0,,,43,95
130905,note_off,0,0,0,,0,,,67,95
130906,note_on,1,0,0,,0,,,55,95
130906,note_on,0,0,0,,0,,,62,95
130906,note_on,0,0,0,,0,,,67,95
130906,note_on,0,0,0,,1,,,72,127
131082,note_off,176,0,0,,1,,,72,127
131083,note_on,1,0,0,,1,,,71,127
131259,note_off,176,0,0,,1,,,71,127
131259,note_off,0,0,0,,0,,,62,95
131259,note_off,0,0,0,,0,,,55,95
131260,note_on,1,0,0,,0,,,52,95
131260,note_on,0,0,0,,0,,,72,95
131260,note_on,0,0,0,,1,,,79,127
131591,note_off,331,0,0,,1,,,79,127
131613,note_off,22,0,0,,0,,,52,95
131613,note_off,0,0,0,,0,,,67,95
131614,note_on,1,0,0,,0,,,53,95
131614,note_on,0,0,0,,1,,,77,127
131790,note_off,176,0,0,,1,,,77,127
131791,note_on,1,0,0,,1,,,76,127
131967,note_off,176,0,0,,1,,,76,127
131967,note_off,0,0,0,,0,,,53,95
131967,note_off,0,0,0,,0,,,72,95
131968,note_on,1,0,0,,0,,,55,95
131968,note_on,0,0,0,,0,,,62,95
131968,note_on,0,0,0,,0,,,71,95
131968,note_on,0,0,0,,1,,,74,127
132144,note_off,176,0,0,,1,,,74,127
132145,note_on,1,0,0,,1,,,72,127
132321,note_off,176,0,0,,1,,,72,127
132321,note_off,0,0,0,,0,,,55,95
132322,note_on,1,0,0,,0,,,43,95
132322,note_on,0,0,0,,1,,,74,127
132498,note_off,176,0,0,,1,,,74,127
132499,note_on,1,0,0,,1,,,71,127
132675,note_off,176,0,0,,1,,,71,127
132675,note_off,0,0,0,,0,,,43,95
132675,note_off,0,0,0,,0,,,71,95
132675,note_off,0,0,0,,0,,,62,95
132676,note_on,1,0,0,,0,,,48,95
132676,note_on,0,0,0,,0,,,64,95
132676,note_on,0,0,0,,0,,,67,95
132676,note_on,0,0,0,,1,,,72,127
133384,note_off,708,0,0,,0,,,67,95
133384,note_off,0,0,0,,0,,,64,95
133576,note_off,192,0,0,,1,,,72,127
133738,note_off,162,0,0,,0,,,48,95
133739,note_on,1,0,0,,0,,,48,95
133739,note_on,0,0,0,,0,,,64,95
133739,note_on,0,0,0,,0,,,67,95
133739,note_on,0,0,0,,1,,,72,127
133915,note_off,176,0,0,,1,,,72,127
133916,note_on,1,0,0,,1,,,76,127
134092,note_off,176,0,0,,1,,,76,127
134093,note_on,1,0,0,,1,,,79,127
134446,note_off,353,0,0,,0,,,48,95
134447,note_on,1,0,0,,0,,,60,95
134765,note_off,318,0,0,,1,,,79,127
134800,note_off,35,0,0,,0,,,60,95
134800,note_off,0,0,0,,0,,,67,95
134800,note_off,0,0,0,,0,,,64,95
134801,note_on,1,0,0,,0,,,62,95
134801,note_on,0,0,0,,0,,,66,95
134801,note_on,0,0,0,,0,,,69,95
134801,note_on,0,0,0,,1,,,78,127
134977,note_off,176,0,0,,1,,,78,127
134978,note_on,1,0,0,,1,,,81,127
135154,note_off,176,0,0,,1,,,81,127
135155,note_on,1,0,0,,1,,,72,127
135508,note_off,353,0,0,,0,,,62,95
135509,note_on,1,0,0,,0,,,50,95
135827,note_off,318,0,0,,1,,,72,127
135862,note_off,35,0,0,,0,,,50,95
135862,note_off,0,0,0,,0,,,69,95
135862,note_off,0,0,0,,0,,,66,95
135863,note_on,1,0,0,,0,,,51,95
135863,note_on,0,0,0,,0,,,67,95
135863,note_on,0,0,0,,0,,,60,95
135863,note_on,0,0,0,,1,,,72,127
136039,note_off,176,0,0,,1,,,72,127
136040,note_on,1,0,0,,1,,,75,127
136216,note_off,176,0,0,,1,,,75,127
136217,note_on,1,0,0,,1,,,79,127
136570,note_off,353,0,0,,0,,,51,95
136571,note_on,1,0,0,,0,,,48,95
136889,note_off,318,0,0,,1,,,79,127
136924,note_off,35,0,0,,0,,,48,95
136924,note_off,0,0,0,,0,,,60,95
136924,note_off,0,0,0,,0,,,67,95
136925,note_on,1,0,0,,0,,,50,95
136925,note_on,0,0,0,,0,,,69,95
136925,note_on,0,0,0,,0,,,66,95
136925,note_on,0,0,0,,1,,,78,127
137101,note_off,176,0,0,,1,,,78,127
137102,note_on,1,0,0,,1,,,81,127
137278,note_off,176,0,0,,1,,,81,127
137279,note_on,1,0,0,,1,,,72,127
137632,note_off,353,0,0,,0,,,50,95
137633,note_on,1,0,0,,0,,,52,95
137986,note_off,353,0,0,,0,,,52,95
137986,note_off,0,0,0,,1,,,72,127
137986,note_off,0,0,0,,0,,,66,95
137986,note_off,0,0,0,,0,,,69,95
137987,note_on,1,0,0,,0,,,54,95
137987,note_on,0,0,0,,0,,,62,95
137987,note_on,0,0,0,,1,,,72,127
138163,note_off,176,0,0,,1,,,72,127
138164,note_on,1,0,0,,1,,,76,127
138340,note_off,176,0,0,,1,,,76,127
138340,note_off,0,0,0,,0,,,54,95
138341,note_on,1,0,0,,0,,,50,95
138341,note_on,0,0,0,,0,,,69,95
138341,note_on,0,0,0,,1,,,74,127
138517,note_off,176,0,0,,1,,,74,127
138518,note_on,1,0,0,,1,,,72,127
138694,note_off,176,0,0,,1,,,72,127
138694,note_off,0,0,0,,0,,,50,95
138694,note_off,0,0,0,,0,,,62,95
138695,note_on,1,0,0,,0,,,54,95
138695,note_on,0,0,0,,0,,,62,95
138695,note_on,0,0,0,,1,,,71,127
138871,note_off,176,0,0,,1,,,71,127
138872,note_on,1,0,0,,1,,,69,127
139048,note_off,176,0,0,,1,,,69,127
139048,note_off,0,0,0,,0,,,62,95
139048,note_off,0,0,0,,0,,,54,95
139048,note_off,0,0,0,,0,,,69,95
139049,note_on,1,0,0,,0,,,55,95
139049,note_on,0,0,0,,0,,,62,95
139049,note_on,0,0,0,,0,,,67,95
139049,note_on,0,0,0,,1,,,71,127
139225,note_off,176,0,0,,1,,,71,127
139226,note_on,1,0,0,,1,,,72,127
139402,note_off,176,0,0,,1,,,72,127
139403,note_on,1,0,0,,1,,,74,127
139579,note_off,176,0,0,,1,,,74,127
139580,note_on,1,0,0,,1,,,71,127
139756,note_off,176,0,0,,1,,,71,127
139756,note_off,0,0,0,,0,,,67,95
139756,note_off,0,0,0,,0,,,55,95
139757,note_on,1,0,0,,0,,,47,95
139757,note_on,0,0,0,,1,,,69,127
139933,note_off,176,0,0,,1,,,69,127
139934,note_on,1,0,0,,1,,,67,127
140110,note_off,176,0,0,,1,,,67,127
140110,note_off,0,0,0,,0,,,47,95
140110,note_off,0,0,0,,0,,,62,95
140111,note_on,1,0,0,,0,,,48,95
140111,note_on,0,0,0,,0,,,64,95
140111,note_on,0,0,0,,0,,,67,95
140111,note_on,0,0,0,,1,,,76,127
140287,note_off,176,0,0,,1,,,76,127
140288,note_on,1,0,0,,1,,,67,127
140464,note_off,176,0,0,,1,,,67,127
140464,note_off,0,0,0,,0,,,64,95
140464,note_off,0,0,0,,0,,,48,95
140465,note_on,1,0,0,,0,,,50,95
140465,note_on,0,0,0,,0,,,62,95
140465,note_on,0,0,0,,1,,,71,127
140806,note_off,341,0,0,,1,,,71,127
140819,note_off,13,0,0,,0,,,50,95
140819,note_off,0,0,0,,0,,,67,95
140820,note_on,1,0,0,,0,,,38,95
140820,note_on,0,0,0,,0,,,66,95
140820,note_on,0,0,0,,1,,,69,127
141161,note_off,341,0,0,,1,,,69,127
141174,note_off,13,0,0,,0,,,66,95
141174,note_off,0,0,0,,0,,,38,95
141174,note_off,0,0,0,,0,,,62,95
141175,note_on,1,0,0,,0,,,43,95
141175,note_on,0,0,0,,0,,,62,95
141175,note_on,0,0,0,,0,,,67,95
141175,note_on,0,0,0,,1,,,67,127
141354,note_off,179,0,0,,1,,,67,127
141355,note_on,1,0,0,,1,,,71,127
141534,note_off,179,0,0,,1,,,71,127
141535,note_on,1,0,0,,1,,,74,127
141894,note_off,359,0,0,,0,,,62,95
141894,note_off,0,0,0,,0,,,43,95
141895,note_on,1,0,0,,0,,,62,95
141895,note_on,0,0,0,,0,,,71,95
142218,note_off,323,0,0,,1,,,74,127
142254,note_off,36,0,0,,0,,,71,95
142254,note_off,0,0,0,,0,,,62,95
142254,note_off,0,0,0,,0,,,67,95
142255,note_on,1,0,0,,0,,,63,95
142255,note_on,0,0,0,,0,,,67,95
142255,note_on,0,0,0,,0,,,72,95
142255,note_on,0,0,0,,1,,,67,127
142434,note_off,179,0,0,,1,,,67,127
142435,note_on,1,0,0,,1,,,72,127
142614,note_off,179,0,0,,1,,,72,127
142615,note_on,1,0,0,,1,,,75,127
142974,note_off,359,0,0,,0,,,63,95
142975,note_on,1,0,0,,0,,,63,95
143298,note_off,323,0,0,,1,,,75,127
143334,note_off,36,0,0,,0,,,63,95
143334,note_off,0,0,0,,0,,,72,95
143334,note_off,0,0,0,,0,,,67,95
143335,note_on,1,0,0,,0,,,59,95
143335,note_on,0,0,0,,0,,,65,95
143335,note_on,0,0,0,,0,,,67,95
143335,note_on,0,0,0,,1,,,65,127
143514,note_off,179,0,0,,1,,,65,127
143515,note_on,1,0,0,,1,,,71,127
143694,note_off,179,0,0,,1,,,71,127
143695,note_on,1,0,0,,1,,,74,127
144054,note_off,359,0,0,,0,,,59,95
144055,note_on,1,0,0,,0,,,59,95
144378,note_off,323,0,0,,1,,,74,127
144414,note_off,36,0,0,,0,,,59,95
144414,note_off,0,0,0,,0,,,67,95
144414,note_off,0,0,0,,0,,,65,95
144415,note_on,1,0,0,,0,,,60,95
144415,note_on,0,0,0,,0,,,63,95
144415,note_on,0,0,0,,0,,,67,95
144415,note_on,0,0,0,,1,,,63,127
144594,note_off,179,0,0,,1,,,63,127
144595,note_on,1,0,0,,1,,,67,127
144774,note_off,179,0,0,,1,,,67,127
144775,note_on,1,0,0,,1,,,72,127
145134,note_off,359,0,0,,0,,,60,95
145135,note_on,1,0,0,,0,,,60,95
145458,note_off,323,0,0,,1,,,72,127
145494,note_off,36,0,0,,0,,,60,95
145494,note_off,0,0,0,,0,,,67,95
145494,note_off,0,0,0,,0,,,63,95
145495,note_on,1,0,0,,0,,,55,95
145495,note_on,0,0,0,,0,,,62,95
145495,note_on,0,0,0,,0,,,71,95
145495,note_on,0,0,0,,1,,,71,127
145674,note_off,179,0,0,,1,,,71,127
145675,note_on,1,0,0,,1,,,74,127
145854,note_off,179,0,0,,1,,,74,127
145855,note_on,1,0,0,,1,,,79,127
146214,note_off,359,0,0,,0,,,55,95
146215,note_on,1,0,0,,0,,,55,95
146538,note_off,323,0,0,,1,,,79,127
146574,note_off,36,0,0,,0,,,55,95
146574,note_off,0,0,0,,0,,,71,95
146574,note_off,0,0,0,,0,,,62,95
146575,note_on,1,0,0,,0,,,43,95
146575,note_on,0,0,0,,0,,,59,95
146575,note_on,0,0,0,,0,,,62,95
146575,note_on,0,0,0,,1,,,65,127
146757,note_off,182,0,0,,1,,,65,127
146758,note_on,1,0,0,,1,,,71,127
146940,note_off,182,0,0,,1,,,71,127
146941,note_on,1,0,0,,1,,,74,127
147306,note_off,365,0,0,,0,,,43,95
147307,note_on,1,0,0,,0,,,43,95
147636,note_off,329,0,0,,1,,,74,127
147672,note_off,36,0,0,,0,,,43,95
147672,note_off,0,0,0,,0,,,62,95
147672,note_off,0,0,0,,0,,,59,95
147673,note_on,1,0,0,,0,,,48,95
147673,note_on,0,0,0,,0,,,60,95
147673,note_on,0,0,0,,0,,,64,95
147673,note_on,0,0,0,,0,,,67,95
147673,note_on,0,0,0,,1,,,64,127
147861,note_off,188,0,0,,1,,,64,127
147862,note_on,1,0,0,,1,,,67,127
148050,note_off,188,0,0,,1,,,67,127
148051,note_on,1,0,0,,1,,,72,127
148239,note_off,188,0,0,,1,,,72,127
148240,note_on,1,0,0,,1,,,67,127
148428,note_off,188,0,0,,1,,,67,127
148428,note_off,0,0,0,,0,,,60,95
148428,note_off,0,0,0,,0,,,48,95
148429,note_on,1,0,0,,0,,,52,95
148429,note_on,0,0,0,,0,,,72,95
148429,note_on,0,0,0,,1,,,79,127
148806,note_off,377,0,0,,1,,,79,127
148806,note_off,0,0,0,,0,,,52,95
148806,note_off,0,0,0,,0,,,67,95
148806,note_off,0,0,0,,0,,,64,95
148807,note_on,1,0,0,,0,,,53,95
148807,note_on,0,0,0,,0,,,69,95
148807,note_on,0,0,0,,1,,,77,127
149005,note_off,198,0,0,,1,,,77,127
149006,note_on,1,0,0,,1,,,76,127
149204,note_off,198,0,0,,1,,,76,127
149204,note_off,0,0,0,,0,,,69,95
149204,note_off,0,0,0,,0,,,53,95
149205,note_on,1,0,0,,0,,,55,95
149205,note_on,0,0,0,,0,,,67,95
149205,note_on,0,0,0,,1,,,74,127
149403,note_off,198,0,0,,1,,,74,127
149404,note_on,1,0,0,,1,,,72,127
149602,note_off,198,0,0,,1,,,72,127
149602,note_off,0,0,0,,0,,,55,95
149602,note_off,0,0,0,,0,,,72,95
149603,note_on,1,0,0,,0,,,43,95
149603,note_on,0,0,0,,0,,,71,95
149603,note_on,0,0,0,,1,,,74,127
149801,note_off,198,0,0,,1,,,74,127
149818,note_on,17,0,0,,1,,,71,127
150000,note_off,182,0,0,,0,,,71,95
150000,note_off,0,0,0,,0,,,43,95
150000,note_off,0,0,0,,0,,,67,95
150016,note_off,16,0,0,,1,,,71,127
150057,note_on,41,0,0,,1,,,72,127
150057,note_on,0,0,0,,0,,,64,95
150057,note_on,0,0,0,,0,,,67,95
150057,note_on,0,0,0,,0,,,48,95
151856,note_off,1799,0,0,,0,,,48,95
151856,note_off,0,0,0,,0,,,67,95
151856,note_off,0,0,0,,0,,,64,95
151856,note_off,0,0,0,,1,,,72,127
155136,end_of_track,3280,1,0,,,,,,
