tick,type,time,meta,track,program,channel,pitch,tempo,note,velocity
0,copyright,0,1,0,,,,,,
0,program_change,0,0,0,6,0,,,,
0,pitchwheel,0,0,0,,0,0,,,
0,program_change,0,0,0,6,1,,,,
0,pitchwheel,0,0,0,,1,-590,,,
0,program_change,0,0,0,6,2,,,,
0,pitchwheel,0,0,0,,2,-272,,,
0,program_change,0,0,0,6,3,,,,
0,pitchwheel,0,0,0,,3,-353,,,
0,program_change,0,0,0,6,4,,,,
0,pitchwheel,0,0,0,,4,-560,,,
0,program_change,0,0,0,6,5,,,,
0,pitchwheel,0,0,0,,5,-80,,,
0,program_change,0,0,0,6,6,,,,
0,pitchwheel,0,0,0,,6,-625,,,
0,program_change,0,0,0,6,7,,,,
0,pitchwheel,0,0,0,,7,-130,,,
0,program_change,0,0,0,6,8,,,,
0,pitchwheel,0,0,0,,8,-512,,,
0,program_change,0,0,0,6,10,,,,
0,pitchwheel,0,0,0,,10,-464,,,
0,program_change,0,0,0,6,11,,,,
0,pitchwheel,0,0,0,,11,-208,,,
0,program_change,0,0,0,6,12,,,,
0,pitchwheel,0,0,0,,12,-553,,,
0,set_tempo,0,1,0,,,,500000,,
144,note_on,144,0,0,,2,,,62,127
144,note_on,0,0,0,,12,,,59,127
144,note_on,0,0,0,,7,,,55,127
144,note_on,0,0,0,,7,,,79,127
430,note_off,286,0,0,,7,,,79,127
432,note_on,2,0,0,,12,,,83,127
502,note_off,70,0,0,,12,,,83,127
504,note_on,2,0,0,,10,,,81,127
574,note_off,70,0,0,,10,,,81,127
576,note_on,2,0,0,,12,,,83,127
646,note_off,70,0,0,,12,,,83,127
648,note_on,2,0,0,,10,,,81,127
718,note_off,70,0,0,,10,,,81,127
718,note_off,0,0,0,,7,,,55,127
718,note_off,0,0,0,,12,,,59,127
718,note_off,0,0,0,,2,,,62,127
720,note_on,2,0,0,,2,,,62,127
720,note_on,0,0,0,,10,,,57,127
720,note_on,0,0,0,,6,,,54,127
720,note_on,0,0,0,,12,,,83,127
790,note_off,70,0,0,,12,,,83,127
792,note_on,2,0,0,,10,,,81,127
862,note_off,70,0,0,,10,,,81,127
864,note_on,2,0,0,,7,,,79,127
934,note_off,70,0,0,,7,,,79,127
936,note_on,2,0,0,,10,,,81,127
1006,note_off,70,0,0,,10,,,81,127
1006,note_off,0,0,0,,6,,,54,127
1006,note_off,0,0,0,,10,,,57,127
1006,note_off,0,0,0,,2,,,62,127
1008,note_on,2,0,0,,2,,,62,127
1008,note_on,0,0,0,,7,,,55,127
1008,note_on,0,0,0,,12,,,59,127
1008,note_on,0,0,0,,12,,,71,127
1102,note_off,94,0,0,,12,,,71,127
1104,note_on,2,0,0,,0,,,72,127
1198,note_off,94,0,0,,0,,,72,127
1200,note_on,2,0,0,,2,,,74,127
1294,note_off,94,0,0,,2,,,74,127
1296,note_on,2,0,0,,7,,,79,127
1582,note_off,286,0,0,,12,,,59,127
1582,note_off,0,0,0,,7,,,55,127
1582,note_off,0,0,0,,2,,,62,127
1584,note_on,2,0,0,,12,,,59,127
1584,note_on,0,0,0,,2,,,62,127
1870,note_off,286,0,0,,2,,,62,127
1870,note_off,0,0,0,,12,,,59,127
1870,note_off,0,0,0,,7,,,79,127
1872,note_on,2,0,0,,4,,,64,127
1872,note_on,0,0,0,,0,,,60,127
1872,note_on,0,0,0,,10,,,69,127
1966,note_off,94,0,0,,10,,,69,127
1968,note_on,2,0,0,,12,,,71,127
2062,note_off,94,0,0,,12,,,71,127
2064,note_on,2,0,0,,0,,,72,127
2158,note_off,94,0,0,,0,,,72,127
2160,note_on,2,0,0,,4,,,76,127
2446,note_off,286,0,0,,0,,,60,127
2446,note_off,0,0,0,,4,,,64,127
2448,note_on,2,0,0,,0,,,60,127
2448,note_on,0,0,0,,10,,,57,127
2734,note_off,286,0,0,,10,,,57,127
2734,note_off,0,0,0,,0,,,60,127
2734,note_off,0,0,0,,4,,,76,127
2736,note_on,2,0,0,,2,,,62,127
2736,note_on,0,0,0,,10,,,57,127
2736,note_on,0,0,0,,2,,,50,127
2736,note_on,0,0,0,,6,,,66,127
2830,note_off,94,0,0,,6,,,66,127
2832,note_on,2,0,0,,7,,,67,127
2926,note_off,94,0,0,,7,,,67,127
2928,note_on,2,0,0,,10,,,69,127
3022,note_off,94,0,0,,10,,,69,127
3024,note_on,2,0,0,,0,,,72,127
3310,note_off,286,0,0,,2,,,50,127
3310,note_off,0,0,0,,10,,,57,127
3310,note_off,0,0,0,,2,,,62,127
3312,note_on,2,0,0,,2,,,62,127
3312,note_on,0,0,0,,10,,,57,127
3312,note_on,0,0,0,,6,,,54,127
3598,note_off,286,0,0,,6,,,54,127
3598,note_off,0,0,0,,10,,,57,127
3598,note_off,0,0,0,,2,,,62,127
3598,note_off,0,0,0,,0,,,72,127
3600,note_on,2,0,0,,7,,,55,127
3600,note_on,0,0,0,,12,,,59,127
3600,note_on,0,0,0,,2,,,62,127
3694,note_off,94,0,0,,2,,,62,127
3696,note_on,2,0,0,,4,,,64,127
3790,note_off,94,0,0,,4,,,64,127
3792,note_on,2,0,0,,6,,,66,127
3886,note_off,94,0,0,,6,,,66,127
3888,note_on,2,0,0,,12,,,71,127
4174,note_off,286,0,0,,12,,,59,127
4174,note_off,0,0,0,,7,,,55,127
4176,note_on,2,0,0,,2,,,62,127
4176,note_on,0,0,0,,12,,,59,127
4462,note_off,286,0,0,,12,,,59,127
4462,note_off,0,0,0,,2,,,62,127
4462,note_off,0,0,0,,12,,,71,127
4464,note_on,2,0,0,,0,,,48,127
4464,note_on,0,0,0,,4,,,64,127
4558,note_off,94,0,0,,4,,,64,127
4560,note_on,2,0,0,,6,,,66,127
4654,note_off,94,0,0,,6,,,66,127
4656,note_on,2,0,0,,7,,,67,127
4750,note_off,94,0,0,,7,,,67,127
4750,note_off,0,0,0,,0,,,48,127
4752,note_on,2,0,0,,0,,,60,127
4752,note_on,0,0,0,,4,,,76,127
5038,note_off,286,0,0,,4,,,76,127
5038,note_off,0,0,0,,0,,,60,127
5040,note_on,2,0,0,,12,,,59,127
5040,note_on,0,0,0,,2,,,62,127
5040,note_on,0,0,0,,2,,,74,127
5326,note_off,286,0,0,,2,,,74,127
5328,note_on,2,0,0,,10,,,69,127
5422,note_off,94,0,0,,10,,,69,127
5424,note_on,2,0,0,,12,,,71,127
5470,note_off,46,0,0,,2,,,62,127
5470,note_off,0,0,0,,12,,,59,127
5518,note_off,48,0,0,,12,,,71,127
5520,note_on,2,0,0,,1,,,73,127
5614,note_off,94,0,0,,1,,,73,127
5616,note_on,2,0,0,,1,,,61,127
5616,note_on,0,0,0,,4,,,64,127
5616,note_on,0,0,0,,7,,,79,127
5902,note_off,286,0,0,,7,,,79,127
5902,note_off,0,0,0,,4,,,64,127
5902,note_off,0,0,0,,1,,,61,127
5904,note_on,2,0,0,,6,,,66,127
5904,note_on,0,0,0,,2,,,62,127
5904,note_on,0,0,0,,6,,,78,127
6190,note_off,286,0,0,,6,,,78,127
6192,note_on,2,0,0,,12,,,71,127
6286,note_off,94,0,0,,12,,,71,127
6288,note_on,2,0,0,,1,,,73,127
6334,note_off,46,0,0,,2,,,62,127
6334,note_off,0,0,0,,6,,,66,127
6382,note_off,48,0,0,,1,,,73,127
6384,note_on,2,0,0,,2,,,74,127
6478,note_off,94,0,0,,2,,,74,127
6480,note_on,2,0,0,,2,,,62,127
6480,note_on,0,0,0,,12,,,59,127
6480,note_on,0,0,0,,7,,,55,127
6480,note_on,0,0,0,,12,,,83,127
6766,note_off,286,0,0,,12,,,83,127
6766,note_off,0,0,0,,7,,,55,127
6766,note_off,0,0,0,,12,,,59,127
6766,note_off,0,0,0,,2,,,62,127
6768,note_on,2,0,0,,2,,,62,127
6768,note_on,0,0,0,,10,,,57,127
6768,note_on,0,0,0,,6,,,54,127
6768,note_on,0,0,0,,10,,,81,127
7054,note_off,286,0,0,,10,,,81,127
7054,note_off,0,0,0,,6,,,54,127
7054,note_off,0,0,0,,10,,,57,127
7054,note_off,0,0,0,,2,,,62,127
7056,note_on,2,0,0,,4,,,52,127
7056,note_on,0,0,0,,2,,,62,127
7056,note_on,0,0,0,,8,,,68,127
7150,note_off,94,0,0,,8,,,68,127
7152,note_on,2,0,0,,10,,,69,127
7246,note_off,94,0,0,,10,,,69,127
7248,note_on,2,0,0,,12,,,71,127
7342,note_off,94,0,0,,12,,,71,127
7342,note_off,0,0,0,,2,,,62,127
7344,note_on,2,0,0,,2,,,62,127
7344,note_on,0,0,0,,5,,,77,127
7630,note_off,286,0,0,,5,,,77,127
7630,note_off,0,0,0,,2,,,62,127
7632,note_on,2,0,0,,0,,,60,127
7632,note_on,0,0,0,,4,,,76,127
7918,note_off,286,0,0,,4,,,76,127
7918,note_off,0,0,0,,0,,,60,127
7918,note_off,0,0,0,,4,,,52,127
7920,note_on,2,0,0,,12,,,59,127
7920,note_on,0,0,0,,4,,,52,127
7920,note_on,0,0,0,,8,,,68,127
8014,note_off,94,0,0,,8,,,68,127
8016,note_on,2,0,0,,10,,,69,127
8110,note_off,94,0,0,,10,,,69,127
8112,note_on,2,0,0,,12,,,71,127
8206,note_off,94,0,0,,12,,,71,127
8206,note_off,0,0,0,,12,,,59,127
8208,note_on,2,0,0,,5,,,65,127
8208,note_on,0,0,0,,2,,,74,127
8494,note_off,286,0,0,,2,,,74,127
8494,note_off,0,0,0,,5,,,65,127
8496,note_on,2,0,0,,4,,,64,127
8496,note_on,0,0,0,,0,,,72,127
8782,note_off,286,0,0,,0,,,72,127
8782,note_off,0,0,0,,4,,,64,127
8782,note_off,0,0,0,,4,,,52,127
8784,note_on,2,0,0,,4,,,52,127
8784,note_on,0,0,0,,8,,,68,127
8878,note_off,94,0,0,,8,,,68,127
8880,note_on,2,0,0,,10,,,69,127
8974,note_off,94,0,0,,10,,,69,127
8976,note_on,2,0,0,,12,,,71,127
9070,note_off,94,0,0,,12,,,71,127
9072,note_on,2,0,0,,2,,,62,127
9072,note_on,0,0,0,,5,,,77,127
9358,note_off,286,0,0,,5,,,77,127
9358,note_off,0,0,0,,2,,,62,127
9360,note_on,2,0,0,,0,,,60,127
9360,note_on,0,0,0,,4,,,76,127
9646,note_off,286,0,0,,4,,,76,127
9646,note_off,0,0,0,,0,,,60,127
9646,note_off,0,0,0,,4,,,52,127
9648,note_on,2,0,0,,10,,,45,127
9648,note_on,0,0,0,,1,,,73,127
9742,note_off,94,0,0,,1,,,73,127
9744,note_on,2,0,0,,2,,,74,127
9838,note_off,94,0,0,,2,,,74,127
9840,note_on,2,0,0,,4,,,76,127
9934,note_off,94,0,0,,4,,,76,127
9936,note_on,2,0,0,,7,,,55,127
9936,note_on,0,0,0,,11,,,82,127
10222,note_off,286,0,0,,11,,,82,127
10222,note_off,0,0,0,,7,,,55,127
10224,note_on,2,0,0,,5,,,53,127
10224,note_on,0,0,0,,10,,,81,127
10510,note_off,286,0,0,,10,,,81,127
10510,note_off,0,0,0,,5,,,53,127
10510,note_off,0,0,0,,10,,,45,127
10512,note_on,2,0,0,,10,,,45,127
10512,note_on,0,0,0,,4,,,52,127
10512,note_on,0,0,0,,1,,,73,127
10606,note_off,94,0,0,,1,,,73,127
10608,note_on,2,0,0,,2,,,74,127
10702,note_off,94,0,0,,2,,,74,127
10704,note_on,2,0,0,,4,,,76,127
10798,note_off,94,0,0,,4,,,76,127
10798,note_off,0,0,0,,4,,,52,127
10800,note_on,2,0,0,,11,,,58,127
10800,note_on,0,0,0,,7,,,79,127
11086,note_off,286,0,0,,7,,,79,127
11086,note_off,0,0,0,,11,,,58,127
11088,note_on,2,0,0,,10,,,57,127
11088,note_on,0,0,0,,5,,,77,127
11374,note_off,286,0,0,,5,,,77,127
11374,note_off,0,0,0,,10,,,57,127
11374,note_off,0,0,0,,10,,,45,127
11376,note_on,2,0,0,,10,,,45,127
11376,note_on,0,0,0,,1,,,73,127
11470,note_off,94,0,0,,1,,,73,127
11472,note_on,2,0,0,,2,,,74,127
11566,note_off,94,0,0,,2,,,74,127
11568,note_on,2,0,0,,4,,,76,127
11662,note_off,94,0,0,,4,,,76,127
11664,note_on,2,0,0,,7,,,55,127
11664,note_on,0,0,0,,11,,,82,127
11950,note_off,286,0,0,,11,,,82,127
11950,note_off,0,0,0,,7,,,55,127
11952,note_on,2,0,0,,5,,,53,127
11952,note_on,0,0,0,,10,,,81,127
12238,note_off,286,0,0,,10,,,81,127
12238,note_off,0,0,0,,5,,,53,127
12238,note_off,0,0,0,,10,,,45,127
12240,note_on,2,0,0,,4,,,52,127
12240,note_on,0,0,0,,1,,,49,127
12240,note_on,0,0,0,,10,,,45,127
12240,note_on,0,0,0,,7,,,79,127
12334,note_off,94,0,0,,7,,,79,127
12336,note_on,2,0,0,,6,,,78,127
12430,note_off,94,0,0,,6,,,78,127
12432,note_on,2,0,0,,4,,,76,127
12526,note_off,94,0,0,,4,,,76,127
12528,note_on,2,0,0,,4,,,76,127
12622,note_off,94,0,0,,4,,,76,127
12624,note_on,2,0,0,,2,,,74,127
12718,note_off,94,0,0,,2,,,74,127
12720,note_on,2,0,0,,1,,,73,127
12814,note_off,94,0,0,,1,,,73,127
12816,note_on,2,0,0,,1,,,73,127
12910,note_off,94,0,0,,1,,,73,127
12912,note_on,2,0,0,,12,,,71,127
13006,note_off,94,0,0,,12,,,71,127
13008,note_on,2,0,0,,10,,,69,127
13102,note_off,94,0,0,,10,,,69,127
13102,note_off,0,0,0,,10,,,45,127
13102,note_off,0,0,0,,1,,,49,127
13102,note_off,0,0,0,,4,,,52,127
13104,note_on,2,0,0,,7,,,67,127
13198,note_off,94,0,0,,7,,,67,127
13200,note_on,2,0,0,,6,,,66,127
13294,note_off,94,0,0,,6,,,66,127
13296,note_on,2,0,0,,4,,,64,127
13390,note_off,94,0,0,,4,,,64,127
13392,note_on,2,0,0,,4,,,64,127
13486,note_off,94,0,0,,4,,,64,127
13488,note_on,2,0,0,,2,,,62,127
13582,note_off,94,0,0,,2,,,62,127
13584,note_on,2,0,0,,1,,,61,127
13678,note_off,94,0,0,,1,,,61,127
13680,note_on,2,0,0,,1,,,61,127
13774,note_off,94,0,0,,1,,,61,127
13776,note_on,2,0,0,,12,,,59,127
13870,note_off,94,0,0,,12,,,59,127
13872,note_on,2,0,0,,10,,,57,127
13966,note_off,94,0,0,,10,,,57,127
13968,note_on,2,0,0,,7,,,55,127
14062,note_off,94,0,0,,7,,,55,127
14064,note_on,2,0,0,,6,,,54,127
14158,note_off,94,0,0,,6,,,54,127
14160,note_on,2,0,0,,4,,,52,127
14254,note_off,94,0,0,,4,,,52,127
14256,note_on,2,0,0,,4,,,52,127
14350,note_off,94,0,0,,4,,,52,127
14352,note_on,2,0,0,,2,,,50,127
14446,note_off,94,0,0,,2,,,50,127
14448,note_on,2,0,0,,1,,,49,127
14542,note_off,94,0,0,,1,,,49,127
14544,note_on,2,0,0,,1,,,49,127
14638,note_off,94,0,0,,1,,,49,127
14640,note_on,2,0,0,,12,,,47,127
14734,note_off,94,0,0,,12,,,47,127
14736,note_on,2,0,0,,10,,,45,127
14830,note_off,94,0,0,,10,,,45,127
14832,note_on,2,0,0,,10,,,57,127
14832,note_on,0,0,0,,4,,,52,127
14832,note_on,0,0,0,,10,,,45,127
14832,note_on,0,0,0,,1,,,49,127
14832,note_on,0,0,0,,10,,,81,127
14902,note_off,70,0,0,,10,,,81,127
14904,note_on,2,0,0,,7,,,79,127
14974,note_off,70,0,0,,7,,,79,127
14976,note_on,2,0,0,,10,,,81,127
15046,note_off,70,0,0,,10,,,81,127
15048,note_on,2,0,0,,7,,,79,127
15118,note_off,70,0,0,,7,,,79,127
15118,note_off,0,0,0,,1,,,49,127
15118,note_off,0,0,0,,10,,,45,127
15118,note_off,0,0,0,,4,,,52,127
15118,note_off,0,0,0,,10,,,57,127
15120,note_on,2,0,0,,10,,,57,127
15120,note_on,0,0,0,,4,,,52,127
15120,note_on,0,0,0,,1,,,49,127
15120,note_on,0,0,0,,10,,,81,127
15190,note_off,70,0,0,,10,,,81,127
15192,note_on,2,0,0,,7,,,79,127
15262,note_off,70,0,0,,7,,,79,127
15264,note_on,2,0,0,,6,,,78,127
15334,note_off,70,0,0,,6,,,78,127
15336,note_on,2,0,0,,4,,,76,127
15406,note_off,70,0,0,,4,,,76,127
15406,note_off,0,0,0,,1,,,49,127
15406,note_off,0,0,0,,4,,,52,127
15406,note_off,0,0,0,,10,,,57,127
15408,note_on,2,0,0,,10,,,57,127
15408,note_on,0,0,0,,6,,,54,127
15408,note_on,0,0,0,,2,,,50,127
15408,note_on,0,0,0,,6,,,78,127
15502,note_off,94,0,0,,6,,,78,127
15504,note_on,2,0,0,,4,,,76,127
15598,note_off,94,0,0,,4,,,76,127
15600,note_on,2,0,0,,2,,,74,127
15694,note_off,94,0,0,,2,,,74,127
15694,note_off,0,0,0,,2,,,50,127
15694,note_off,0,0,0,,6,,,54,127
15694,note_off,0,0,0,,10,,,57,127
15696,note_on,2,0,0,,7,,,43,127
15696,note_on,0,0,0,,2,,,50,127
15696,note_on,0,0,0,,7,,,55,127
15696,note_on,0,0,0,,12,,,83,127
15838,note_off,142,0,0,,12,,,83,127
15840,note_on,2,0,0,,2,,,74,127
15982,note_off,142,0,0,,2,,,74,127
15982,note_off,0,0,0,,7,,,55,127
15982,note_off,0,0,0,,2,,,50,127
15982,note_off,0,0,0,,7,,,43,127
15984,note_on,2,0,0,,4,,,52,127
15984,note_on,0,0,0,,10,,,57,127
15984,note_on,0,0,0,,10,,,45,127
15984,note_on,0,0,0,,2,,,74,127
15984,note_on,0,0,0,,10,,,69,127
15984,note_on,0,0,0,,6,,,78,127
16270,note_off,286,0,0,,6,,,78,127
16270,note_off,0,0,0,,10,,,69,127
16270,note_off,0,0,0,,2,,,74,127
16270,note_off,0,0,0,,10,,,45,127
16270,note_off,0,0,0,,10,,,57,127
16270,note_off,0,0,0,,4,,,52,127
16272,note_on,2,0,0,,10,,,57,127
16272,note_on,0,0,0,,10,,,45,127
16272,note_on,0,0,0,,4,,,52,127
16272,note_on,0,0,0,,1,,,73,127
16272,note_on,0,0,0,,10,,,69,127
16272,note_on,0,0,0,,6,,,78,127
16342,note_off,70,0,0,,6,,,78,127
16344,note_on,2,0,0,,4,,,76,127
16414,note_off,70,0,0,,4,,,76,127
16416,note_on,2,0,0,,2,,,74,127
16486,note_off,70,0,0,,2,,,74,127
16488,note_on,2,0,0,,4,,,76,127
16558,note_off,70,0,0,,4,,,76,127
16558,note_off,0,0,0,,10,,,69,127
16558,note_off,0,0,0,,1,,,73,127
16558,note_off,0,0,0,,4,,,52,127
16558,note_off,0,0,0,,10,,,45,127
16558,note_off,0,0,0,,10,,,57,127
16560,note_on,2,0,0,,2,,,38,127
16560,note_on,0,0,0,,2,,,50,127
16560,note_on,0,0,0,,2,,,74,127
16560,note_on,0,0,0,,6,,,66,127
16560,note_on,0,0,0,,10,,,69,127
16845,note_off,285,0,0,,10,,,69,127
17423,note_off,578,0,0,,6,,,66,127
17423,note_off,0,0,0,,2,,,74,127
17423,note_off,0,0,0,,2,,,50,127
17423,note_off,0,0,0,,2,,,38,127
17425,note_on,2,0,0,,10,,,69,127
17425,note_on,0,0,0,,2,,,62,127
17425,note_on,0,0,0,,6,,,66,127
17425,note_on,0,0,0,,2,,,74,127
17711,note_off,286,0,0,,2,,,74,127
17713,note_on,2,0,0,,6,,,78,127
17783,note_off,70,0,0,,6,,,78,127
17785,note_on,2,0,0,,4,,,76,127
17855,note_off,70,0,0,,4,,,76,127
17857,note_on,2,0,0,,6,,,78,127
17927,note_off,70,0,0,,6,,,78,127
17929,note_on,2,0,0,,4,,,76,127
17999,note_off,70,0,0,,4,,,76,127
17999,note_off,0,0,0,,6,,,66,127
17999,note_off,0,0,0,,2,,,62,127
17999,note_off,0,0,0,,10,,,69,127
18001,note_on,2,0,0,,10,,,57,127
18001,note_on,0,0,0,,1,,,49,127
18001,note_on,0,0,0,,4,,,52,127
18001,note_on,0,0,0,,6,,,78,127
18071,note_off,70,0,0,,6,,,78,127
18073,note_on,2,0,0,,4,,,76,127
18143,note_off,70,0,0,,4,,,76,127
18145,note_on,2,0,0,,2,,,74,127
18215,note_off,70,0,0,,2,,,74,127
18217,note_on,2,0,0,,4,,,76,127
18287,note_off,70,0,0,,4,,,76,127
18287,note_off,0,0,0,,4,,,52,127
18287,note_off,0,0,0,,1,,,49,127
18287,note_off,0,0,0,,10,,,57,127
18289,note_on,2,0,0,,10,,,57,127
18289,note_on,0,0,0,,6,,,54,127
18289,note_on,0,0,0,,2,,,50,127
18289,note_on,0,0,0,,6,,,78,127
18383,note_off,94,0,0,,6,,,78,127
18385,note_on,2,0,0,,7,,,79,127
18479,note_off,94,0,0,,7,,,79,127
18481,note_on,2,0,0,,10,,,81,127
18575,note_off,94,0,0,,10,,,81,127
18577,note_on,2,0,0,,0,,,72,127
18863,note_off,286,0,0,,2,,,50,127
18863,note_off,0,0,0,,6,,,54,127
18863,note_off,0,0,0,,10,,,57,127
18865,note_on,2,0,0,,2,,,62,127
18865,note_on,0,0,0,,6,,,54,127
18865,note_on,0,0,0,,10,,,57,127
19151,note_off,286,0,0,,10,,,57,127
19151,note_off,0,0,0,,6,,,54,127
19151,note_off,0,0,0,,2,,,62,127
19151,note_off,0,0,0,,0,,,72,127
19153,note_on,2,0,0,,7,,,55,127
19153,note_on,0,0,0,,12,,,59,127
19153,note_on,0,0,0,,2,,,62,127
19153,note_on,0,0,0,,12,,,71,127
19247,note_off,94,0,0,,12,,,71,127
19249,note_on,2,0,0,,0,,,72,127
19343,note_off,94,0,0,,0,,,72,127
19345,note_on,2,0,0,,2,,,74,127
19439,note_off,94,0,0,,2,,,74,127
19441,note_on,2,0,0,,5,,,65,127
19727,note_off,286,0,0,,2,,,62,127
19727,note_off,0,0,0,,12,,,59,127
19727,note_off,0,0,0,,7,,,55,127
19729,note_on,2,0,0,,12,,,59,127
19729,note_on,0,0,0,,2,,,62,127
20015,note_off,286,0,0,,2,,,62,127
20015,note_off,0,0,0,,12,,,59,127
20015,note_off,0,0,0,,5,,,65,127
20017,note_on,2,0,0,,0,,,48,127
20017,note_on,0,0,0,,4,,,64,127
20111,note_off,94,0,0,,4,,,64,127
20113,note_on,2,0,0,,6,,,66,127
20207,note_off,94,0,0,,6,,,66,127
20209,note_on,2,0,0,,7,,,67,127
20303,note_off,94,0,0,,7,,,67,127
20303,note_off,0,0,0,,0,,,48,127
20305,note_on,2,0,0,,0,,,60,127
20305,note_on,0,0,0,,4,,,76,127
20591,note_off,286,0,0,,4,,,76,127
20591,note_off,0,0,0,,0,,,60,127
20593,note_on,2,0,0,,2,,,62,127
20593,note_on,0,0,0,,12,,,59,127
20593,note_on,0,0,0,,2,,,74,127
20879,note_off,286,0,0,,2,,,74,127
20881,note_on,2,0,0,,6,,,66,127
20975,note_off,94,0,0,,6,,,66,127
20977,note_on,2,0,0,,7,,,67,127
21023,note_off,46,0,0,,12,,,59,127
21023,note_off,0,0,0,,2,,,62,127
21071,note_off,48,0,0,,7,,,67,127
21073,note_on,2,0,0,,10,,,69,127
21167,note_off,94,0,0,,10,,,69,127
21169,note_on,2,0,0,,10,,,57,127
21169,note_on,0,0,0,,0,,,60,127
21169,note_on,0,0,0,,0,,,72,127
21455,note_off,286,0,0,,0,,,72,127
21455,note_off,0,0,0,,0,,,60,127
21455,note_off,0,0,0,,10,,,57,127
21457,note_on,2,0,0,,7,,,55,127
21457,note_on,0,0,0,,12,,,59,127
21457,note_on,0,0,0,,12,,,71,127
21743,note_off,286,0,0,,12,,,71,127
21745,note_on,2,0,0,,7,,,79,127
21839,note_off,94,0,0,,7,,,79,127
21841,note_on,2,0,0,,10,,,81,127
21887,note_off,46,0,0,,12,,,59,127
21887,note_off,0,0,0,,7,,,55,127
21935,note_off,48,0,0,,10,,,81,127
21937,note_on,2,0,0,,12,,,83,127
22031,note_off,94,0,0,,12,,,83,127
22033,note_on,2,0,0,,7,,,55,127
22033,note_on,0,0,0,,1,,,61,127
22033,note_on,0,0,0,,4,,,52,127
22033,note_on,0,0,0,,1,,,73,127
22319,note_off,286,0,0,,1,,,73,127
22319,note_off,0,0,0,,4,,,52,127
22319,note_off,0,0,0,,1,,,61,127
22319,note_off,0,0,0,,7,,,55,127
22321,note_on,2,0,0,,2,,,62,127
22321,note_on,0,0,0,,10,,,57,127
22321,note_on,0,0,0,,6,,,54,127
22321,note_on,0,0,0,,2,,,74,127
22607,note_off,286,0,0,,2,,,74,127
22609,note_on,2,0,0,,7,,,67,127
22703,note_off,94,0,0,,7,,,67,127
22705,note_on,2,0,0,,10,,,69,127
22751,note_off,46,0,0,,6,,,54,127
22751,note_off,0,0,0,,10,,,57,127
22751,note_off,0,0,0,,2,,,62,127
22799,note_off,48,0,0,,10,,,69,127
22801,note_on,2,0,0,,12,,,71,127
22895,note_off,94,0,0,,12,,,71,127
22897,note_on,2,0,0,,10,,,57,127
22897,note_on,0,0,0,,7,,,55,127
22897,note_on,0,0,0,,1,,,61,127
23183,note_off,286,0,0,,1,,,61,127
23183,note_off,0,0,0,,7,,,55,127
23183,note_off,0,0,0,,10,,,57,127
23185,note_on,2,0,0,,10,,,57,127
23185,note_on,0,0,0,,6,,,54,127
23185,note_on,0,0,0,,2,,,62,127
23471,note_off,286,0,0,,2,,,62,127
23471,note_off,0,0,0,,6,,,54,127
23471,note_off,0,0,0,,10,,,57,127
23473,note_on,2,0,0,,7,,,55,127
23473,note_on,0,0,0,,4,,,52,127
23473,note_on,0,0,0,,0,,,60,127
23567,note_off,94,0,0,,0,,,60,127
23569,note_on,2,0,0,,2,,,62,127
23663,note_off,94,0,0,,2,,,62,127
23665,note_on,2,0,0,,4,,,64,127
23759,note_off,94,0,0,,4,,,64,127
23761,note_on,2,0,0,,6,,,66,127
23855,note_off,94,0,0,,6,,,66,127
23857,note_on,2,0,0,,7,,,67,127
23951,note_off,94,0,0,,7,,,67,127
23953,note_on,2,0,0,,10,,,69,127
24047,note_off,94,0,0,,10,,,69,127
24047,note_off,0,0,0,,4,,,52,127
24047,note_off,0,0,0,,7,,,55,127
24049,note_on,2,0,0,,0,,,60,127
24049,note_on,0,0,0,,7,,,55,127
24049,note_on,0,0,0,,4,,,52,127
24049,note_on,0,0,0,,10,,,69,127
24143,note_off,94,0,0,,10,,,69,127
24145,note_on,2,0,0,,12,,,71,127
24239,note_off,94,0,0,,12,,,71,127
24241,note_on,2,0,0,,0,,,72,127
24335,note_off,94,0,0,,0,,,72,127
24335,note_off,0,0,0,,4,,,52,127
24335,note_off,0,0,0,,7,,,55,127
24335,note_off,0,0,0,,0,,,60,127
24337,note_on,2,0,0,,7,,,55,127
24337,note_on,0,0,0,,10,,,57,127
24337,note_on,0,0,0,,0,,,60,127
24337,note_on,0,0,0,,2,,,50,127
24337,note_on,0,0,0,,0,,,72,127
24431,note_off,94,0,0,,0,,,72,127
24433,note_on,2,0,0,,2,,,74,127
24527,note_off,94,0,0,,2,,,74,127
24529,note_on,2,0,0,,4,,,76,127
24623,note_off,94,0,0,,4,,,76,127
24625,note_on,2,0,0,,6,,,78,127
24719,note_off,94,0,0,,6,,,78,127
24721,note_on,2,0,0,,7,,,79,127
24815,note_off,94,0,0,,7,,,79,127
24817,note_on,2,0,0,,10,,,81,127
24911,note_off,94,0,0,,10,,,81,127
24913,note_on,2,0,0,,10,,,81,127
25007,note_off,94,0,0,,10,,,81,127
25009,note_on,2,0,0,,12,,,83,127
25103,note_off,94,0,0,,12,,,83,127
25105,note_on,2,0,0,,0,,,84,127
25199,note_off,94,0,0,,0,,,84,127
25199,note_off,0,0,0,,2,,,50,127
25199,note_off,0,0,0,,0,,,60,127
25199,note_off,0,0,0,,10,,,57,127
25199,note_off,0,0,0,,7,,,55,127
25201,note_on,2,0,0,,0,,,60,127
25201,note_on,0,0,0,,7,,,55,127
25201,note_on,0,0,0,,10,,,57,127
25201,note_on,0,0,0,,2,,,50,127
25201,note_on,0,0,0,,2,,,86,127
25271,note_off,70,0,0,,2,,,86,127
25273,note_on,2,0,0,,0,,,84,127
25343,note_off,70,0,0,,0,,,84,127
25345,note_on,2,0,0,,2,,,86,127
25415,note_off,70,0,0,,2,,,86,127
25417,note_on,2,0,0,,0,,,84,127
25487,note_off,70,0,0,,0,,,84,127
25487,note_off,0,0,0,,2,,,50,127
25487,note_off,0,0,0,,10,,,57,127
25487,note_off,0,0,0,,7,,,55,127
25487,note_off,0,0,0,,0,,,60,127
25489,note_on,2,0,0,,6,,,54,127
25489,note_on,0,0,0,,10,,,57,127
25489,note_on,0,0,0,,2,,,62,127
25489,note_on,0,0,0,,2,,,50,127
25489,note_on,0,0,0,,2,,,86,127
25559,note_off,70,0,0,,2,,,86,127
25561,note_on,2,0,0,,0,,,84,127
25631,note_off,70,0,0,,0,,,84,127
25633,note_on,2,0,0,,11,,,82,127
25703,note_off,70,0,0,,11,,,82,127
25705,note_on,2,0,0,,10,,,81,127
25775,note_off,70,0,0,,10,,,81,127
25775,note_off,0,0,0,,2,,,50,127
25775,note_off,0,0,0,,2,,,62,127
25775,note_off,0,0,0,,10,,,57,127
25775,note_off,0,0,0,,6,,,54,127
25777,note_on,2,0,0,,2,,,62,127
25777,note_on,0,0,0,,7,,,55,127
25777,note_on,0,0,0,,11,,,58,127
25777,note_on,0,0,0,,2,,,50,127
25777,note_on,0,0,0,,11,,,82,127
25871,note_off,94,0,0,,11,,,82,127
25873,note_on,2,0,0,,10,,,81,127
25967,note_off,94,0,0,,10,,,81,127
25969,note_on,2,0,0,,7,,,79,127
26063,note_off,94,0,0,,7,,,79,127
26063,note_off,0,0,0,,2,,,50,127
26063,note_off,0,0,0,,11,,,58,127
26063,note_off,0,0,0,,7,,,55,127
26063,note_off,0,0,0,,2,,,62,127
26065,note_on,2,0,0,,0,,,60,127
26065,note_on,0,0,0,,7,,,55,127
26065,note_on,0,0,0,,10,,,57,127
26065,note_on,0,0,0,,2,,,50,127
26065,note_on,0,0,0,,6,,,78,127
26159,note_off,94,0,0,,6,,,78,127
26161,note_on,2,0,0,,7,,,79,127
26255,note_off,94,0,0,,7,,,79,127
26257,note_on,2,0,0,,10,,,81,127
26351,note_off,94,0,0,,10,,,81,127
26351,note_off,0,0,0,,2,,,50,127
26351,note_off,0,0,0,,10,,,57,127
26351,note_off,0,0,0,,7,,,55,127
26351,note_off,0,0,0,,0,,,60,127
26353,note_on,2,0,0,,2,,,62,127
26353,note_on,0,0,0,,6,,,54,127
26353,note_on,0,0,0,,10,,,57,127
26353,note_on,0,0,0,,2,,,50,127
26353,note_on,0,0,0,,3,,,75,127
26447,note_off,94,0,0,,3,,,75,127
26449,note_on,2,0,0,,2,,,74,127
26543,note_off,94,0,0,,2,,,74,127
26545,note_on,2,0,0,,0,,,72,127
26639,note_off,94,0,0,,0,,,72,127
26639,note_off,0,0,0,,2,,,50,127
26639,note_off,0,0,0,,10,,,57,127
26639,note_off,0,0,0,,6,,,54,127
26639,note_off,0,0,0,,2,,,62,127
26641,note_on,2,0,0,,2,,,62,127
26641,note_on,0,0,0,,11,,,58,127
26641,note_on,0,0,0,,7,,,55,127
26641,note_on,0,0,0,,2,,,50,127
26641,note_on,0,0,0,,11,,,70,127
26735,note_off,94,0,0,,11,,,70,127
26737,note_on,2,0,0,,10,,,69,127
26831,note_off,94,0,0,,10,,,69,127
26833,note_on,2,0,0,,7,,,67,127
26927,note_off,94,0,0,,7,,,67,127
26927,note_off,0,0,0,,2,,,50,127
26927,note_off,0,0,0,,7,,,55,127
26927,note_off,0,0,0,,11,,,58,127
26927,note_off,0,0,0,,2,,,62,127
26929,note_on,2,0,0,,10,,,57,127
26929,note_on,0,0,0,,0,,,60,127
26929,note_on,0,0,0,,2,,,50,127
26929,note_on,0,0,0,,7,,,55,127
26929,note_on,0,0,0,,6,,,66,127
27023,note_off,94,0,0,,6,,,66,127
27025,note_on,2,0,0,,7,,,67,127
27119,note_off,94,0,0,,7,,,67,127
27121,note_on,2,0,0,,10,,,69,127
27215,note_off,94,0,0,,10,,,69,127
27215,note_off,0,0,0,,7,,,55,127
27215,note_off,0,0,0,,0,,,60,127
27215,note_off,0,0,0,,10,,,57,127
27217,note_on,2,0,0,,0,,,60,127
27217,note_on,0,0,0,,10,,,57,127
27217,note_on,0,0,0,,3,,,75,127
27503,note_off,286,0,0,,3,,,75,127
27503,note_off,0,0,0,,10,,,57,127
27503,note_off,0,0,0,,0,,,60,127
27505,note_on,2,0,0,,11,,,58,127
27505,note_on,0,0,0,,7,,,55,127
27505,note_on,0,0,0,,2,,,74,127
27791,note_off,286,0,0,,2,,,74,127
27791,note_off,0,0,0,,7,,,55,127
27791,note_off,0,0,0,,11,,,58,127
27791,note_off,0,0,0,,2,,,50,127
27793,note_on,2,0,0,,10,,,57,127
27793,note_on,0,0,0,,2,,,50,127
27793,note_on,0,0,0,,6,,,66,127
27887,note_off,94,0,0,,6,,,66,127
27889,note_on,2,0,0,,7,,,67,127
27983,note_off,94,0,0,,7,,,67,127
27985,note_on,2,0,0,,10,,,69,127
28079,note_off,94,0,0,,10,,,69,127
28079,note_off,0,0,0,,10,,,57,127
28081,note_on,2,0,0,,3,,,63,127
28081,note_on,0,0,0,,0,,,72,127
28367,note_off,286,0,0,,0,,,72,127
28367,note_off,0,0,0,,3,,,63,127
28369,note_on,2,0,0,,2,,,62,127
28369,note_on,0,0,0,,11,,,70,127
28655,note_off,286,0,0,,11,,,70,127
28655,note_off,0,0,0,,2,,,62,127
28655,note_off,0,0,0,,2,,,50,127
28657,note_on,2,0,0,,2,,,50,127
28657,note_on,0,0,0,,6,,,66,127
28751,note_off,94,0,0,,6,,,66,127
28753,note_on,2,0,0,,7,,,67,127
28847,note_off,94,0,0,,7,,,67,127
28849,note_on,2,0,0,,10,,,69,127
28943,note_off,94,0,0,,10,,,69,127
28945,note_on,2,0,0,,0,,,60,127
28945,note_on,0,0,0,,3,,,75,127
29231,note_off,286,0,0,,3,,,75,127
29231,note_off,0,0,0,,0,,,60,127
29233,note_on,2,0,0,,11,,,58,127
29233,note_on,0,0,0,,2,,,74,127
29519,note_off,286,0,0,,2,,,74,127
29519,note_off,0,0,0,,11,,,58,127
29519,note_off,0,0,0,,2,,,50,127
29521,note_on,2,0,0,,7,,,43,127
29521,note_on,0,0,0,,12,,,71,127
29615,note_off,94,0,0,,12,,,71,127
29617,note_on,2,0,0,,0,,,72,127
29711,note_off,94,0,0,,0,,,72,127
29713,note_on,2,0,0,,2,,,74,127
29807,note_off,94,0,0,,2,,,74,127
29809,note_on,2,0,0,,5,,,53,127
29809,note_on,0,0,0,,8,,,80,127
30095,note_off,286,0,0,,8,,,80,127
30095,note_off,0,0,0,,5,,,53,127
30097,note_on,2,0,0,,3,,,51,127
30097,note_on,0,0,0,,7,,,79,127
30383,note_off,286,0,0,,7,,,79,127
30383,note_off,0,0,0,,3,,,51,127
30383,note_off,0,0,0,,7,,,43,127
30385,note_on,2,0,0,,7,,,43,127
30385,note_on,0,0,0,,12,,,71,127
30479,note_off,94,0,0,,12,,,71,127
30481,note_on,2,0,0,,0,,,72,127
30575,note_off,94,0,0,,0,,,72,127
30577,note_on,2,0,0,,2,,,74,127
30671,note_off,94,0,0,,2,,,74,127
30673,note_on,2,0,0,,2,,,50,127
30673,note_on,0,0,0,,5,,,77,127
30959,note_off,286,0,0,,5,,,77,127
30959,note_off,0,0,0,,2,,,50,127
30961,note_on,2,0,0,,0,,,48,127
30961,note_on,0,0,0,,3,,,75,127
31247,note_off,286,0,0,,3,,,75,127
31247,note_off,0,0,0,,0,,,48,127
31247,note_off,0,0,0,,7,,,43,127
31249,note_on,2,0,0,,10,,,45,127
31249,note_on,0,0,0,,1,,,73,127
31343,note_off,94,0,0,,1,,,73,127
31345,note_on,2,0,0,,2,,,74,127
31439,note_off,94,0,0,,2,,,74,127
31441,note_on,2,0,0,,4,,,76,127
31535,note_off,94,0,0,,4,,,76,127
31537,note_on,2,0,0,,7,,,55,127
31537,note_on,0,0,0,,11,,,82,127
31823,note_off,286,0,0,,11,,,82,127
31823,note_off,0,0,0,,7,,,55,127
31825,note_on,2,0,0,,5,,,53,127
31825,note_on,0,0,0,,10,,,81,127
32111,note_off,286,0,0,,10,,,81,127
32111,note_off,0,0,0,,5,,,53,127
32111,note_off,0,0,0,,10,,,45,127
32113,note_on,2,0,0,,10,,,45,127
32113,note_on,0,0,0,,1,,,73,127
32207,note_off,94,0,0,,1,,,73,127
32209,note_on,2,0,0,,2,,,74,127
32303,note_off,94,0,0,,2,,,74,127
32305,note_on,2,0,0,,4,,,76,127
32399,note_off,94,0,0,,4,,,76,127
32401,note_on,2,0,0,,4,,,52,127
32401,note_on,0,0,0,,7,,,79,127
32687,note_off,286,0,0,,7,,,79,127
32687,note_off,0,0,0,,4,,,52,127
32689,note_on,2,0,0,,6,,,54,127
32689,note_on,0,0,0,,2,,,50,127
32689,note_on,0,0,0,,6,,,78,127
32975,note_off,286,0,0,,6,,,78,127
32975,note_off,0,0,0,,2,,,50,127
32975,note_off,0,0,0,,6,,,54,127
32975,note_off,0,0,0,,10,,,45,127
32977,note_on,2,0,0,,2,,,50,127
32977,note_on,0,0,0,,0,,,84,127
33071,note_off,94,0,0,,0,,,84,127
33073,note_on,2,0,0,,12,,,83,127
33167,note_off,94,0,0,,12,,,83,127
33169,note_on,2,0,0,,10,,,81,127
33263,note_off,94,0,0,,10,,,81,127
33265,note_on,2,0,0,,10,,,81,127
33359,note_off,94,0,0,,10,,,81,127
33361,note_on,2,0,0,,7,,,79,127
33455,note_off,94,0,0,,7,,,79,127
33457,note_on,2,0,0,,6,,,78,127
33551,note_off,94,0,0,,6,,,78,127
33553,note_on,2,0,0,,6,,,78,127
33647,note_off,94,0,0,,6,,,78,127
33649,note_on,2,0,0,,4,,,76,127
33743,note_off,94,0,0,,4,,,76,127
33745,note_on,2,0,0,,2,,,74,127
33839,note_off,94,0,0,,2,,,74,127
33839,note_off,0,0,0,,2,,,50,127
33841,note_on,2,0,0,,0,,,72,127
33935,note_off,94,0,0,,0,,,72,127
33937,note_on,2,0,0,,12,,,71,127
34031,note_off,94,0,0,,12,,,71,127
34033,note_on,2,0,0,,10,,,69,127
34127,note_off,94,0,0,,10,,,69,127
34129,note_on,2,0,0,,10,,,69,127
34223,note_off,94,0,0,,10,,,69,127
34225,note_on,2,0,0,,7,,,67,127
34319,note_off,94,0,0,,7,,,67,127
34321,note_on,2,0,0,,6,,,66,127
34415,note_off,94,0,0,,6,,,66,127
34417,note_on,2,0,0,,6,,,66,127
34511,note_off,94,0,0,,6,,,66,127
34513,note_on,2,0,0,,4,,,64,127
34607,note_off,94,0,0,,4,,,64,127
34609,note_on,2,0,0,,2,,,62,127
34703,note_off,94,0,0,,2,,,62,127
34705,note_on,2,0,0,,0,,,60,127
34799,note_off,94,0,0,,0,,,60,127
34801,note_on,2,0,0,,12,,,59,127
34895,note_off,94,0,0,,12,,,59,127
34897,note_on,2,0,0,,10,,,57,127
34991,note_off,94,0,0,,10,,,57,127
34993,note_on,2,0,0,,10,,,57,127
35087,note_off,94,0,0,,10,,,57,127
35089,note_on,2,0,0,,7,,,55,127
35183,note_off,94,0,0,,7,,,55,127
35185,note_on,2,0,0,,6,,,54,127
35279,note_off,94,0,0,,6,,,54,127
35281,note_on,2,0,0,,6,,,54,127
35375,note_off,94,0,0,,6,,,54,127
35377,note_on,2,0,0,,4,,,52,127
35471,note_off,94,0,0,,4,,,52,127
35473,note_on,2,0,0,,2,,,50,127
35567,note_off,94,0,0,,2,,,50,127
35569,note_on,2,0,0,,2,,,62,127
35569,note_on,0,0,0,,10,,,57,127
35569,note_on,0,0,0,,2,,,50,127
35569,note_on,0,0,0,,2,,,86,127
35639,note_off,70,0,0,,2,,,86,127
35641,note_on,2,0,0,,0,,,84,127
35711,note_off,70,0,0,,0,,,84,127
35713,note_on,2,0,0,,2,,,86,127
35783,note_off,70,0,0,,2,,,86,127
35785,note_on,2,0,0,,0,,,84,127
35855,note_off,70,0,0,,0,,,84,127
35855,note_off,0,0,0,,2,,,50,127
35855,note_off,0,0,0,,10,,,57,127
35855,note_off,0,0,0,,2,,,62,127
35857,note_on,2,0,0,,2,,,62,127
35857,note_on,0,0,0,,6,,,54,127
35857,note_on,0,0,0,,10,,,57,127
35857,note_on,0,0,0,,2,,,86,127
35927,note_off,70,0,0,,2,,,86,127
35929,note_on,2,0,0,,0,,,84,127
35999,note_off,70,0,0,,0,,,84,127
36001,note_on,2,0,0,,12,,,83,127
36071,note_off,70,0,0,,12,,,83,127
36073,note_on,2,0,0,,10,,,81,127
36143,note_off,70,0,0,,10,,,81,127
36143,note_off,0,0,0,,10,,,57,127
36143,note_off,0,0,0,,6,,,54,127
36143,note_off,0,0,0,,2,,,62,127
36145,note_on,2,0,0,,2,,,62,127
36145,note_on,0,0,0,,7,,,55,127
36145,note_on,0,0,0,,12,,,59,127
36145,note_on,0,0,0,,12,,,83,127
36239,note_off,94,0,0,,12,,,83,127
36241,note_on,2,0,0,,10,,,81,127
36335,note_off,94,0,0,,10,,,81,127
36341,note_on,6,0,0,,7,,,79,127
36431,note_off,90,0,0,,12,,,59,127
36431,note_off,0,0,0,,7,,,55,127
36431,note_off,0,0,0,,2,,,62,127
36445,note_off,14,0,0,,7,,,79,127
36448,note_on,3,0,0,,7,,,55,127
36448,note_on,0,0,0,,0,,,60,127
36448,note_on,0,0,0,,0,,,48,127
36448,note_on,0,0,0,,0,,,84,127
36448,note_on,0,0,0,,4,,,76,127
36448,note_on,0,0,0,,7,,,79,127
36763,note_off,315,0,0,,7,,,79,127
36763,note_off,0,0,0,,4,,,76,127
36763,note_off,0,0,0,,0,,,84,127
36763,note_off,0,0,0,,0,,,48,127
36763,note_off,0,0,0,,0,,,60,127
36763,note_off,0,0,0,,7,,,55,127
36769,note_on,6,0,0,,2,,,62,127
36769,note_on,0,0,0,,7,,,55,127
36769,note_on,0,0,0,,2,,,50,127
36769,note_on,0,0,0,,7,,,79,127
36769,note_on,0,0,0,,12,,,83,127
36769,note_on,0,0,0,,2,,,74,127
37084,note_off,315,0,0,,2,,,74,127
37084,note_off,0,0,0,,12,,,83,127
37084,note_off,0,0,0,,7,,,79,127
37084,note_off,0,0,0,,2,,,50,127
37084,note_off,0,0,0,,7,,,55,127
37084,note_off,0,0,0,,2,,,62,127
37088,note_on,4,0,0,,2,,,62,127
37088,note_on,0,0,0,,10,,,57,127
37088,note_on,0,0,0,,2,,,50,127
37088,note_on,0,0,0,,6,,,78,127
37088,note_on,0,0,0,,2,,,74,127
37088,note_on,0,0,0,,12,,,83,127
37164,note_off,76,0,0,,12,,,83,127
37168,note_on,4,0,0,,10,,,81,127
37244,note_off,76,0,0,,10,,,81,127
37247,note_on,3,0,0,,7,,,79,127
37323,note_off,76,0,0,,7,,,79,127
37326,note_on,3,0,0,,10,,,81,127
37401,note_off,75,0,0,,2,,,74,127
37401,note_off,0,0,0,,6,,,78,127
37401,note_off,0,0,0,,2,,,50,127
37401,note_off,0,0,0,,10,,,57,127
37401,note_off,0,0,0,,2,,,62,127
37403,note_off,2,0,0,,10,,,81,127
37406,note_on,3,0,0,,7,,,55,127
37406,note_on,0,0,0,,2,,,50,127
37406,note_on,0,0,0,,7,,,43,127
37406,note_on,0,0,0,,7,,,79,127
37406,note_on,0,0,0,,12,,,71,127
37406,note_on,0,0,0,,2,,,74,127
37720,note_off,314,0,0,,2,,,74,127
38893,note_off,1173,0,0,,12,,,71,127
38893,note_off,0,0,0,,7,,,79,127
38893,note_off,0,0,0,,7,,,43,127
38893,note_off,0,0,0,,2,,,50,127
38893,note_off,0,0,0,,7,,,55,127
41472,end_of_track,2579,1,0,,,,,,
