tick,type,time,meta,track,program,channel,pitch,tempo,note,velocity
0,copyright,0,1,0,,,,,,
0,program_change,0,0,0,6,0,,,,
0,pitchwheel,0,0,0,,0,0,,,
0,program_change,0,0,0,6,1,,,,
0,pitchwheel,0,0,0,,1,-590,,,
0,program_change,0,0,0,6,2,,,,
0,pitchwheel,0,0,0,,2,-272,,,
0,program_change,0,0,0,6,3,,,,
0,pitchwheel,0,0,0,,3,-353,,,
0,program_change,0,0,0,6,4,,,,
0,pitchwheel,0,0,0,,4,-560,,,
0,program_change,0,0,0,6,5,,,,
0,pitchwheel,0,0,0,,5,-80,,,
0,program_change,0,0,0,6,6,,,,
0,pitchwheel,0,0,0,,6,-625,,,
0,program_change,0,0,0,6,7,,,,
0,pitchwheel,0,0,0,,7,-130,,,
0,program_change,0,0,0,6,8,,,,
0,pitchwheel,0,0,0,,8,-512,,,
0,program_change,0,0,0,6,10,,,,
0,pitchwheel,0,0,0,,10,-464,,,
0,program_change,0,0,0,6,11,,,,
0,pitchwheel,0,0,0,,11,-208,,,
0,program_change,0,0,0,6,12,,,,
0,pitchwheel,0,0,0,,12,-553,,,
0,set_tempo,0,1,0,,,,500000,,
128,note_on,128,0,0,,7,,,67,127
383,note_off,255,0,0,,7,,,67,127
384,note_on,1,0,0,,11,,,70,127
639,note_off,255,0,0,,11,,,70,127
640,note_on,1,0,0,,2,,,74,127
895,note_off,255,0,0,,2,,,74,127
896,note_on,1,0,0,,7,,,55,127
896,note_on,0,0,0,,7,,,79,127
1023,note_off,127,0,0,,7,,,79,127
1024,note_on,1,0,0,,6,,,78,127
1151,note_off,127,0,0,,6,,,78,127
1151,note_off,0,0,0,,7,,,55,127
1152,note_on,1,0,0,,11,,,58,127
1152,note_on,0,0,0,,7,,,79,127
1279,note_off,127,0,0,,7,,,79,127
1280,note_on,1,0,0,,11,,,70,127
1407,note_off,127,0,0,,11,,,70,127
1407,note_off,0,0,0,,11,,,58,127
1408,note_on,1,0,0,,2,,,62,127
1408,note_on,0,0,0,,10,,,69,127
1535,note_off,127,0,0,,10,,,69,127
1536,note_on,1,0,0,,0,,,72,127
1663,note_off,127,0,0,,0,,,72,127
1663,note_off,0,0,0,,2,,,62,127
1664,note_on,1,0,0,,7,,,67,127
1664,note_on,0,0,0,,11,,,70,127
1791,note_off,127,0,0,,7,,,67,127
1792,note_on,1,0,0,,6,,,66,127
1919,note_off,127,0,0,,6,,,66,127
1919,note_off,0,0,0,,11,,,70,127
1920,note_on,1,0,0,,7,,,67,127
2048,note_on,128,0,0,,11,,,58,127
2175,note_off,127,0,0,,11,,,58,127
2175,note_off,0,0,0,,7,,,67,127
2176,note_on,1,0,0,,10,,,57,127
2176,note_on,0,0,0,,0,,,72,127
2303,note_off,127,0,0,,10,,,57,127
2304,note_on,1,0,0,,0,,,60,127
2431,note_off,127,0,0,,0,,,60,127
2431,note_off,0,0,0,,0,,,72,127
2432,note_on,1,0,0,,11,,,46,127
2432,note_on,0,0,0,,7,,,55,127
2432,note_on,0,0,0,,2,,,74,127
2560,note_on,128,0,0,,11,,,70,127
2687,note_off,127,0,0,,11,,,70,127
2687,note_off,0,0,0,,2,,,74,127
2687,note_off,0,0,0,,11,,,46,127
2688,note_on,1,0,0,,0,,,48,127
2688,note_on,0,0,0,,10,,,69,127
2688,note_on,0,0,0,,3,,,75,127
2815,note_off,127,0,0,,10,,,69,127
2816,note_on,1,0,0,,7,,,67,127
2943,note_off,127,0,0,,7,,,67,127
2943,note_off,0,0,0,,3,,,75,127
2943,note_off,0,0,0,,0,,,48,127
2943,note_off,0,0,0,,7,,,55,127
2944,note_on,1,0,0,,6,,,54,127
2944,note_on,0,0,0,,2,,,50,127
2944,note_on,0,0,0,,2,,,74,127
2944,note_on,0,0,0,,6,,,66,127
3071,note_off,127,0,0,,6,,,66,127
3072,note_on,1,0,0,,10,,,69,127
3199,note_off,127,0,0,,10,,,69,127
3199,note_off,0,0,0,,2,,,74,127
3199,note_off,0,0,0,,2,,,50,127
3199,note_off,0,0,0,,6,,,54,127
3200,note_on,1,0,0,,3,,,51,127
3200,note_on,0,0,0,,7,,,67,127
3327,note_off,127,0,0,,3,,,51,127
3328,note_on,1,0,0,,2,,,50,127
3455,note_off,127,0,0,,2,,,50,127
3455,note_off,0,0,0,,7,,,67,127
3456,note_on,1,0,0,,3,,,51,127
3456,note_on,0,0,0,,0,,,60,127
3456,note_on,0,0,0,,0,,,72,127
3583,note_off,127,0,0,,3,,,51,127
3584,note_on,1,0,0,,7,,,55,127
3711,note_off,127,0,0,,7,,,55,127
3711,note_off,0,0,0,,0,,,72,127
3711,note_off,0,0,0,,0,,,60,127
3712,note_on,1,0,0,,6,,,54,127
3712,note_on,0,0,0,,10,,,69,127
3712,note_on,0,0,0,,2,,,62,127
3839,note_off,127,0,0,,6,,,54,127
3840,note_on,1,0,0,,10,,,57,127
3967,note_off,127,0,0,,10,,,57,127
3967,note_off,0,0,0,,2,,,62,127
3967,note_off,0,0,0,,10,,,69,127
3968,note_on,1,0,0,,7,,,55,127
3968,note_on,0,0,0,,11,,,70,127
3968,note_on,0,0,0,,2,,,62,127
4095,note_off,127,0,0,,7,,,55,127
4096,note_on,1,0,0,,6,,,54,127
4223,note_off,127,0,0,,6,,,54,127
4223,note_off,0,0,0,,2,,,62,127
4223,note_off,0,0,0,,11,,,70,127
4224,note_on,1,0,0,,7,,,55,127
4224,note_on,0,0,0,,2,,,74,127
4351,note_off,127,0,0,,2,,,74,127
4351,note_off,0,0,0,,7,,,55,127
4352,note_on,1,0,0,,11,,,46,127
4352,note_on,0,0,0,,7,,,67,127
4479,note_off,127,0,0,,7,,,67,127
4479,note_off,0,0,0,,11,,,46,127
4480,note_on,1,0,0,,10,,,45,127
4480,note_on,0,0,0,,0,,,72,127
4607,note_off,127,0,0,,0,,,72,127
4607,note_off,0,0,0,,10,,,45,127
4608,note_on,1,0,0,,6,,,54,127
4608,note_on,0,0,0,,10,,,69,127
4735,note_off,127,0,0,,6,,,54,127
4736,note_on,1,0,0,,7,,,55,127
4800,note_off,64,0,0,,10,,,69,127
4863,note_off,63,0,0,,7,,,55,127
4864,note_on,1,0,0,,6,,,54,127
4864,note_on,0,0,0,,2,,,74,127
4991,note_off,127,0,0,,6,,,54,127
4992,note_on,1,0,0,,7,,,55,127
5119,note_off,127,0,0,,7,,,55,127
5119,note_off,0,0,0,,2,,,74,127
5120,note_on,1,0,0,,11,,,46,127
5120,note_on,0,0,0,,7,,,67,127
5247,note_off,127,0,0,,7,,,67,127
5247,note_off,0,0,0,,11,,,46,127
5248,note_on,1,0,0,,10,,,45,127
5248,note_on,0,0,0,,0,,,72,127
5375,note_off,127,0,0,,0,,,72,127
5375,note_off,0,0,0,,10,,,45,127
5376,note_on,1,0,0,,6,,,54,127
5376,note_on,0,0,0,,10,,,69,127
5503,note_off,127,0,0,,10,,,69,127
5503,note_off,0,0,0,,6,,,54,127
5504,note_on,1,0,0,,7,,,55,127
5504,note_on,0,0,0,,11,,,70,127
5631,note_off,127,0,0,,11,,,70,127
5632,note_on,1,0,0,,2,,,74,127
5759,note_off,127,0,0,,2,,,74,127
5759,note_off,0,0,0,,7,,,55,127
5760,note_on,1,0,0,,4,,,52,127
5760,note_on,0,0,0,,1,,,61,127
5760,note_on,0,0,0,,7,,,79,127
5887,note_off,127,0,0,,7,,,79,127
5888,note_on,1,0,0,,4,,,76,127
6015,note_off,127,0,0,,4,,,76,127
6015,note_off,0,0,0,,1,,,61,127
6015,note_off,0,0,0,,4,,,52,127
6016,note_on,1,0,0,,5,,,53,127
6016,note_on,0,0,0,,2,,,62,127
6016,note_on,0,0,0,,10,,,81,127
6143,note_off,127,0,0,,10,,,81,127
6144,note_on,1,0,0,,2,,,74,127
6271,note_off,127,0,0,,2,,,74,127
6271,note_off,0,0,0,,2,,,62,127
6271,note_off,0,0,0,,5,,,53,127
6272,note_on,1,0,0,,7,,,55,127
6272,note_on,0,0,0,,2,,,62,127
6272,note_on,0,0,0,,11,,,82,127
6399,note_off,127,0,0,,11,,,82,127
6400,note_on,1,0,0,,8,,,80,127
6527,note_off,127,0,0,,8,,,80,127
6527,note_off,0,0,0,,2,,,62,127
6527,note_off,0,0,0,,7,,,55,127
6528,note_on,1,0,0,,10,,,57,127
6528,note_on,0,0,0,,1,,,49,127
6528,note_on,0,0,0,,10,,,81,127
6655,note_off,127,0,0,,10,,,81,127
6656,note_on,1,0,0,,5,,,77,127
6783,note_off,127,0,0,,5,,,77,127
6783,note_off,0,0,0,,1,,,49,127
6784,note_on,1,0,0,,10,,,45,127
6784,note_on,0,0,0,,7,,,79,127
6911,note_off,127,0,0,,7,,,79,127
6912,note_on,1,0,0,,4,,,76,127
7039,note_off,127,0,0,,4,,,76,127
7039,note_off,0,0,0,,10,,,45,127
7039,note_off,0,0,0,,10,,,57,127
7040,note_on,1,0,0,,10,,,57,127
7040,note_on,0,0,0,,2,,,50,127
7040,note_on,0,0,0,,5,,,77,127
7167,note_off,127,0,0,,5,,,77,127
7168,note_on,1,0,0,,2,,,74,127
7295,note_off,127,0,0,,2,,,74,127
7295,note_off,0,0,0,,2,,,50,127
7295,note_off,0,0,0,,10,,,57,127
7296,note_on,1,0,0,,7,,,43,127
7296,note_on,0,0,0,,3,,,75,127
7423,note_off,127,0,0,,3,,,75,127
7424,note_on,1,0,0,,7,,,79,127
7551,note_off,127,0,0,,7,,,79,127
7551,note_off,0,0,0,,7,,,43,127
7552,note_on,1,0,0,,7,,,55,127
7552,note_on,0,0,0,,11,,,82,127
7679,note_off,127,0,0,,11,,,82,127
7680,note_on,1,0,0,,2,,,74,127
7807,note_off,127,0,0,,2,,,74,127
7807,note_off,0,0,0,,7,,,55,127
7808,note_on,1,0,0,,10,,,45,127
7808,note_on,0,0,0,,1,,,73,127
7935,note_off,127,0,0,,1,,,73,127
7936,note_on,1,0,0,,4,,,76,127
8063,note_off,127,0,0,,4,,,76,127
8063,note_off,0,0,0,,10,,,45,127
8064,note_on,1,0,0,,7,,,55,127
8064,note_on,0,0,0,,7,,,67,127
8191,note_off,127,0,0,,7,,,67,127
8192,note_on,1,0,0,,11,,,70,127
8319,note_off,127,0,0,,11,,,70,127
8319,note_off,0,0,0,,7,,,55,127
8320,note_on,1,0,0,,1,,,49,127
8320,note_on,0,0,0,,10,,,69,127
8447,note_off,127,0,0,,10,,,69,127
8448,note_on,1,0,0,,4,,,64,127
8533,note_off,85,0,0,,4,,,64,127
8574,note_off,41,0,0,,1,,,49,127
8575,note_on,1,0,0,,2,,,62,127
8575,note_on,0,0,0,,5,,,77,127
8702,note_off,127,0,0,,5,,,77,127
8702,note_off,0,0,0,,2,,,62,127
8703,note_on,1,0,0,,1,,,61,127
8703,note_on,0,0,0,,10,,,81,127
8830,note_off,127,0,0,,1,,,61,127
8831,note_on,1,0,0,,2,,,62,127
8958,note_off,127,0,0,,2,,,62,127
8958,note_off,0,0,0,,10,,,81,127
8959,note_on,1,0,0,,5,,,53,127
8959,note_on,0,0,0,,2,,,74,127
9086,note_off,127,0,0,,2,,,74,127
9086,note_off,0,0,0,,5,,,53,127
9087,note_on,1,0,0,,4,,,52,127
9087,note_on,0,0,0,,7,,,79,127
9214,note_off,127,0,0,,7,,,79,127
9214,note_off,0,0,0,,4,,,52,127
9215,note_on,1,0,0,,1,,,61,127
9215,note_on,0,0,0,,4,,,76,127
9342,note_off,127,0,0,,4,,,76,127
9342,note_off,0,0,0,,1,,,61,127
9343,note_on,1,0,0,,2,,,62,127
9343,note_on,0,0,0,,5,,,77,127
9343,note_on,0,0,0,,2,,,74,127
9470,note_off,127,0,0,,2,,,74,127
9470,note_off,0,0,0,,5,,,77,127
9470,note_off,0,0,0,,2,,,62,127
9471,note_on,1,0,0,,1,,,61,127
9471,note_on,0,0,0,,10,,,81,127
9598,note_off,127,0,0,,1,,,61,127
9599,note_on,1,0,0,,2,,,62,127
9726,note_off,127,0,0,,2,,,62,127
9726,note_off,0,0,0,,10,,,81,127
9727,note_on,1,0,0,,5,,,53,127
9727,note_on,0,0,0,,2,,,74,127
9854,note_off,127,0,0,,2,,,74,127
9854,note_off,0,0,0,,5,,,53,127
9855,note_on,1,0,0,,4,,,52,127
9855,note_on,0,0,0,,7,,,79,127
9982,note_off,127,0,0,,7,,,79,127
9982,note_off,0,0,0,,4,,,52,127
9983,note_on,1,0,0,,1,,,61,127
9983,note_on,0,0,0,,4,,,76,127
10110,note_off,127,0,0,,4,,,76,127
10110,note_off,0,0,0,,1,,,61,127
10111,note_on,1,0,0,,2,,,50,127
10111,note_on,0,0,0,,5,,,77,127
10238,note_off,127,0,0,,5,,,77,127
10239,note_on,1,0,0,,2,,,74,127
10366,note_off,127,0,0,,2,,,74,127
10366,note_off,0,0,0,,2,,,50,127
10367,note_on,1,0,0,,7,,,55,127
10367,note_on,0,0,0,,3,,,75,127
10494,note_off,127,0,0,,3,,,75,127
10495,note_on,1,0,0,,1,,,73,127
10622,note_off,127,0,0,,1,,,73,127
10622,note_off,0,0,0,,7,,,55,127
10623,note_on,1,0,0,,5,,,53,127
10623,note_on,0,0,0,,2,,,74,127
10750,note_off,127,0,0,,2,,,74,127
10751,note_on,1,0,0,,2,,,62,127
10878,note_off,127,0,0,,2,,,62,127
10878,note_off,0,0,0,,5,,,53,127
10879,note_on,1,0,0,,7,,,55,127
10879,note_on,0,0,0,,7,,,43,127
10879,note_on,0,0,0,,11,,,70,127
11006,note_off,127,0,0,,11,,,70,127
11007,note_on,1,0,0,,8,,,68,127
11134,note_off,127,0,0,,8,,,68,127
11134,note_off,0,0,0,,7,,,43,127
11134,note_off,0,0,0,,7,,,55,127
11135,note_on,1,0,0,,1,,,49,127
11135,note_on,0,0,0,,10,,,57,127
11135,note_on,0,0,0,,10,,,69,127
11262,note_off,127,0,0,,10,,,69,127
11263,note_on,1,0,0,,5,,,65,127
11390,note_off,127,0,0,,5,,,65,127
11390,note_off,0,0,0,,1,,,49,127
11391,note_on,1,0,0,,10,,,45,127
11391,note_on,0,0,0,,7,,,67,127
11518,note_off,127,0,0,,7,,,67,127
11519,note_on,1,0,0,,4,,,64,127
11646,note_off,127,0,0,,4,,,64,127
11646,note_off,0,0,0,,10,,,45,127
11646,note_off,0,0,0,,10,,,57,127
11647,note_on,1,0,0,,2,,,62,127
11647,note_on,0,0,0,,2,,,50,127
11647,note_on,0,0,0,,5,,,65,127
11774,note_off,127,0,0,,5,,,65,127
11775,note_on,1,0,0,,2,,,74,127
11902,note_off,127,0,0,,2,,,74,127
11902,note_off,0,0,0,,2,,,50,127
11902,note_off,0,0,0,,2,,,62,127
11903,note_on,1,0,0,,7,,,55,127
11903,note_on,0,0,0,,7,,,43,127
11903,note_on,0,0,0,,11,,,70,127
12030,note_off,127,0,0,,11,,,70,127
12031,note_on,1,0,0,,7,,,67,127
12158,note_off,127,0,0,,7,,,67,127
12158,note_off,0,0,0,,7,,,43,127
12158,note_off,0,0,0,,7,,,55,127
12159,note_on,1,0,0,,10,,,45,127
12159,note_on,0,0,0,,10,,,57,127
12159,note_on,0,0,0,,4,,,64,127
12286,note_off,127,0,0,,4,,,64,127
12287,note_on,1,0,0,,1,,,73,127
12414,note_off,127,0,0,,1,,,73,127
12414,note_off,0,0,0,,10,,,57,127
12414,note_off,0,0,0,,10,,,45,127
12415,note_on,1,0,0,,2,,,50,127
12415,note_on,0,0,0,,2,,,62,127
12415,note_on,0,0,0,,5,,,65,127
12542,note_off,127,0,0,,5,,,65,127
12543,note_on,1,0,0,,2,,,74,127
12670,note_off,127,0,0,,2,,,74,127
12670,note_off,0,0,0,,2,,,62,127
12670,note_off,0,0,0,,2,,,50,127
12671,note_on,1,0,0,,7,,,55,127
12671,note_on,0,0,0,,7,,,43,127
12671,note_on,0,0,0,,11,,,70,127
12798,note_off,127,0,0,,11,,,70,127
12799,note_on,1,0,0,,7,,,67,127
12926,note_off,127,0,0,,7,,,67,127
12926,note_off,0,0,0,,7,,,43,127
12926,note_off,0,0,0,,7,,,55,127
12927,note_on,1,0,0,,10,,,45,127
12927,note_on,0,0,0,,10,,,57,127
12927,note_on,0,0,0,,4,,,64,127
13054,note_off,127,0,0,,4,,,64,127
13055,note_on,1,0,0,,1,,,73,127
13182,note_off,127,0,0,,1,,,73,127
13182,note_off,0,0,0,,10,,,57,127
13182,note_off,0,0,0,,10,,,45,127
13183,note_on,1,0,0,,11,,,58,127
13183,note_on,0,0,0,,2,,,74,127
13310,note_off,127,0,0,,11,,,58,127
13311,note_on,1,0,0,,7,,,55,127
13438,note_off,127,0,0,,7,,,55,127
13439,note_on,1,0,0,,4,,,52,127
13566,note_off,127,0,0,,4,,,52,127
13566,note_off,0,0,0,,2,,,74,127
13567,note_on,1,0,0,,1,,,49,127
13567,note_on,0,0,0,,4,,,76,127
13694,note_off,127,0,0,,4,,,76,127
13694,note_off,0,0,0,,1,,,49,127
13695,note_on,1,0,0,,10,,,45,127
13695,note_on,0,0,0,,10,,,69,127
13822,note_off,127,0,0,,10,,,69,127
13822,note_off,0,0,0,,10,,,45,127
13823,note_on,1,0,0,,10,,,57,127
13823,note_on,0,0,0,,1,,,73,127
13950,note_off,127,0,0,,1,,,73,127
13950,note_off,0,0,0,,10,,,57,127
13951,note_on,1,0,0,,11,,,58,127
13951,note_on,0,0,0,,7,,,79,127
14078,note_off,127,0,0,,11,,,58,127
14079,note_on,1,0,0,,7,,,55,127
14206,note_off,127,0,0,,7,,,55,127
14207,note_on,1,0,0,,4,,,52,127
14334,note_off,127,0,0,,4,,,52,127
14334,note_off,0,0,0,,7,,,79,127
14335,note_on,1,0,0,,1,,,49,127
14335,note_on,0,0,0,,4,,,76,127
14462,note_off,127,0,0,,4,,,76,127
14462,note_off,0,0,0,,1,,,49,127
14463,note_on,1,0,0,,10,,,45,127
14463,note_on,0,0,0,,7,,,79,127
14590,note_off,127,0,0,,7,,,79,127
14590,note_off,0,0,0,,10,,,45,127
14591,note_on,1,0,0,,7,,,55,127
14591,note_on,0,0,0,,10,,,69,127
14591,note_on,0,0,0,,1,,,73,127
14718,note_off,127,0,0,,1,,,73,127
14718,note_off,0,0,0,,10,,,69,127
14718,note_off,0,0,0,,7,,,55,127
14719,note_on,1,0,0,,2,,,62,127
14719,note_on,0,0,0,,5,,,53,127
14719,note_on,0,0,0,,2,,,74,127
14719,note_on,0,0,0,,5,,,77,127
14846,note_off,127,0,0,,5,,,77,127
14847,note_on,1,0,0,,10,,,81,127
14974,note_off,127,0,0,,10,,,81,127
14974,note_off,0,0,0,,2,,,74,127
14974,note_off,0,0,0,,5,,,53,127
14974,note_off,0,0,0,,2,,,62,127
14975,note_on,1,0,0,,7,,,55,127
14975,note_on,0,0,0,,4,,,76,127
14975,note_on,0,0,0,,7,,,79,127
15102,note_off,127,0,0,,7,,,79,127
15102,note_off,0,0,0,,4,,,76,127
15103,note_on,1,0,0,,5,,,77,127
15103,note_on,0,0,0,,2,,,74,127
15230,note_off,127,0,0,,2,,,74,127
15230,note_off,0,0,0,,5,,,77,127
15230,note_off,0,0,0,,7,,,55,127
15231,note_on,1,0,0,,1,,,61,127
15231,note_on,0,0,0,,10,,,57,127
15231,note_on,0,0,0,,1,,,73,127
15231,note_on,0,0,0,,4,,,76,127
15358,note_off,127,0,0,,4,,,76,127
15359,note_on,1,0,0,,7,,,79,127
15486,note_off,127,0,0,,7,,,79,127
15486,note_off,0,0,0,,1,,,73,127
15486,note_off,0,0,0,,10,,,57,127
15486,note_off,0,0,0,,1,,,61,127
15487,note_on,1,0,0,,2,,,62,127
15487,note_on,0,0,0,,5,,,53,127
15487,note_on,0,0,0,,2,,,74,127
15487,note_on,0,0,0,,5,,,77,127
15614,note_off,127,0,0,,5,,,77,127
15615,note_on,1,0,0,,10,,,81,127
15742,note_off,127,0,0,,10,,,81,127
15742,note_off,0,0,0,,2,,,74,127
15742,note_off,0,0,0,,5,,,53,127
15742,note_off,0,0,0,,2,,,62,127
15743,note_on,1,0,0,,7,,,55,127
15743,note_on,0,0,0,,4,,,76,127
15743,note_on,0,0,0,,7,,,79,127
15870,note_off,127,0,0,,7,,,79,127
15870,note_off,0,0,0,,4,,,76,127
15871,note_on,1,0,0,,5,,,77,127
15871,note_on,0,0,0,,2,,,74,127
15998,note_off,127,0,0,,2,,,74,127
15998,note_off,0,0,0,,5,,,77,127
15998,note_off,0,0,0,,7,,,55,127
15999,note_on,1,0,0,,1,,,61,127
15999,note_on,0,0,0,,10,,,57,127
15999,note_on,0,0,0,,4,,,76,127
15999,note_on,0,0,0,,1,,,73,127
16126,note_off,127,0,0,,4,,,76,127
16127,note_on,1,0,0,,7,,,79,127
16254,note_off,127,0,0,,7,,,79,127
16254,note_off,0,0,0,,1,,,73,127
16254,note_off,0,0,0,,10,,,57,127
16254,note_off,0,0,0,,1,,,61,127
16255,note_on,1,0,0,,2,,,62,127
16255,note_on,0,0,0,,5,,,77,127
16255,note_on,0,0,0,,2,,,74,127
16382,note_off,127,0,0,,2,,,62,127
16383,note_on,1,0,0,,1,,,61,127
16510,note_off,127,0,0,,1,,,61,127
16511,note_on,1,0,0,,2,,,62,127
16638,note_off,127,0,0,,2,,,62,127
16638,note_off,0,0,0,,2,,,74,127
16638,note_off,0,0,0,,5,,,77,127
16639,note_on,1,0,0,,5,,,53,127
16639,note_on,0,0,0,,2,,,74,127
16766,note_off,127,0,0,,2,,,74,127
16766,note_off,0,0,0,,5,,,53,127
16767,note_on,1,0,0,,4,,,52,127
16767,note_on,0,0,0,,7,,,79,127
16894,note_off,127,0,0,,7,,,79,127
16894,note_off,0,0,0,,4,,,52,127
16895,note_on,1,0,0,,1,,,61,127
16895,note_on,0,0,0,,4,,,76,127
17022,note_off,127,0,0,,4,,,76,127
17022,note_off,0,0,0,,1,,,61,127
17023,note_on,1,0,0,,5,,,53,127
17023,note_on,0,0,0,,2,,,62,127
17023,note_on,0,0,0,,10,,,81,127
17150,note_off,127,0,0,,10,,,81,127
17151,note_on,1,0,0,,2,,,74,127
17278,note_off,127,0,0,,2,,,62,127
17278,note_off,0,0,0,,5,,,53,127
17279,note_on,1,0,0,,7,,,55,127
17406,note_off,127,0,0,,2,,,74,127
17407,note_on,1,0,0,,4,,,76,127
17534,note_off,127,0,0,,4,,,76,127
17534,note_off,0,0,0,,7,,,55,127
17535,note_on,1,0,0,,10,,,57,127
17535,note_on,0,0,0,,1,,,61,127
17535,note_on,0,0,0,,10,,,69,127
17662,note_off,127,0,0,,10,,,69,127
17663,note_on,1,0,0,,1,,,73,127
17790,note_off,127,0,0,,1,,,73,127
17790,note_off,0,0,0,,1,,,61,127
17790,note_off,0,0,0,,10,,,57,127
17791,note_on,1,0,0,,5,,,53,127
17791,note_on,0,0,0,,2,,,62,127
17791,note_on,0,0,0,,2,,,74,127
17919,note_on,128,0,0,,10,,,69,127
18046,note_off,127,0,0,,10,,,69,127
18046,note_off,0,0,0,,2,,,62,127
18046,note_off,0,0,0,,5,,,53,127
18047,note_on,1,0,0,,7,,,55,127
18047,note_on,0,0,0,,7,,,67,127
18174,note_off,127,0,0,,7,,,67,127
18175,note_on,1,0,0,,5,,,65,127
18302,note_off,127,0,0,,5,,,65,127
18302,note_off,0,0,0,,7,,,55,127
18302,note_off,0,0,0,,2,,,74,127
18303,note_on,1,0,0,,1,,,61,127
18303,note_on,0,0,0,,10,,,57,127
18303,note_on,0,0,0,,4,,,64,127
18431,note_on,128,0,0,,1,,,73,127
18558,note_off,127,0,0,,1,,,73,127
18558,note_off,0,0,0,,4,,,64,127
18558,note_off,0,0,0,,10,,,57,127
18558,note_off,0,0,0,,1,,,61,127
18559,note_on,1,0,0,,2,,,50,127
18559,note_on,0,0,0,,5,,,65,127
18559,note_on,0,0,0,,2,,,62,127
18559,note_on,0,0,0,,2,,,74,127
18559,note_on,0,0,0,,10,,,69,127
18622,note_off,63,0,0,,2,,,50,127
18623,note_on,1,0,0,,10,,,57,127
18686,note_off,63,0,0,,10,,,57,127
18687,note_on,1,0,0,,7,,,55,127
18750,note_off,63,0,0,,7,,,55,127
18751,note_on,1,0,0,,5,,,53,127
18814,note_off,63,0,0,,5,,,53,127
18815,note_on,1,0,0,,4,,,52,127
18878,note_off,63,0,0,,4,,,52,127
18879,note_on,1,0,0,,2,,,50,127
18942,note_off,63,0,0,,2,,,50,127
18943,note_on,1,0,0,,1,,,49,127
19006,note_off,63,0,0,,1,,,49,127
19007,note_on,1,0,0,,11,,,46,127
19070,note_off,63,0,0,,11,,,46,127
19071,note_on,1,0,0,,10,,,45,127
19134,note_off,63,0,0,,10,,,45,127
19135,note_on,1,0,0,,7,,,43,127
19198,note_off,63,0,0,,7,,,43,127
19199,note_on,1,0,0,,5,,,41,127
19262,note_off,63,0,0,,5,,,41,127
19263,note_on,1,0,0,,4,,,40,127
19326,note_off,63,0,0,,4,,,40,127
19327,note_on,1,0,0,,2,,,38,127
19390,note_off,63,0,0,,10,,,69,127
19390,note_off,0,0,0,,2,,,74,127
19390,note_off,0,0,0,,2,,,62,127
19390,note_off,0,0,0,,5,,,65,127
19391,note_on,1,0,0,,5,,,77,127
19454,note_off,63,0,0,,5,,,77,127
19455,note_on,1,0,0,,4,,,76,127
19518,note_off,63,0,0,,4,,,76,127
19519,note_on,1,0,0,,2,,,74,127
19582,note_off,63,0,0,,2,,,74,127
19583,note_on,1,0,0,,0,,,72,127
19646,note_off,63,0,0,,0,,,72,127
19647,note_on,1,0,0,,11,,,70,127
19710,note_off,63,0,0,,11,,,70,127
19711,note_on,1,0,0,,10,,,69,127
19774,note_off,63,0,0,,10,,,69,127
19775,note_on,1,0,0,,7,,,67,127
19838,note_off,63,0,0,,7,,,67,127
19839,note_on,1,0,0,,5,,,77,127
19902,note_off,63,0,0,,5,,,77,127
19903,note_on,1,0,0,,4,,,76,127
19966,note_off,63,0,0,,4,,,76,127
19967,note_on,1,0,0,,2,,,74,127
20030,note_off,63,0,0,,2,,,74,127
20031,note_on,1,0,0,,0,,,72,127
20094,note_off,63,0,0,,0,,,72,127
20094,note_off,0,0,0,,2,,,38,127
20095,note_on,1,0,0,,11,,,70,127
20158,note_off,63,0,0,,11,,,70,127
20159,note_on,1,0,0,,10,,,69,127
20222,note_off,63,0,0,,10,,,69,127
20223,note_on,1,0,0,,7,,,67,127
20286,note_off,63,0,0,,7,,,67,127
20287,note_on,1,0,0,,5,,,65,127
20350,note_off,63,0,0,,5,,,65,127
20351,note_on,1,0,0,,4,,,52,127
20414,note_off,63,0,0,,4,,,52,127
20415,note_on,1,0,0,,2,,,50,127
20478,note_off,63,0,0,,2,,,50,127
20479,note_on,1,0,0,,1,,,49,127
20542,note_off,63,0,0,,1,,,49,127
20543,note_on,1,0,0,,11,,,46,127
20606,note_off,63,0,0,,11,,,46,127
20607,note_on,1,0,0,,10,,,45,127
20670,note_off,63,0,0,,10,,,45,127
20671,note_on,1,0,0,,7,,,43,127
20734,note_off,63,0,0,,7,,,43,127
20735,note_on,1,0,0,,5,,,41,127
20798,note_off,63,0,0,,5,,,41,127
20799,note_on,1,0,0,,4,,,40,127
20862,note_off,63,0,0,,4,,,40,127
20863,note_on,1,0,0,,2,,,38,127
21630,note_off,767,0,0,,2,,,38,127
21631,note_on,1,0,0,,2,,,62,127
21886,note_off,255,0,0,,2,,,62,127
21887,note_on,1,0,0,,6,,,66,127
22142,note_off,255,0,0,,6,,,66,127
22143,note_on,1,0,0,,10,,,69,127
22398,note_off,255,0,0,,10,,,69,127
22399,note_on,1,0,0,,2,,,50,127
22399,note_on,0,0,0,,2,,,74,127
22526,note_off,127,0,0,,2,,,74,127
22527,note_on,1,0,0,,1,,,73,127
22654,note_off,127,0,0,,1,,,73,127
22654,note_off,0,0,0,,2,,,50,127
22655,note_on,1,0,0,,6,,,54,127
22655,note_on,0,0,0,,2,,,74,127
22782,note_off,127,0,0,,2,,,74,127
22783,note_on,1,0,0,,6,,,66,127
22910,note_off,127,0,0,,6,,,66,127
22910,note_off,0,0,0,,6,,,54,127
22911,note_on,1,0,0,,10,,,57,127
22911,note_on,0,0,0,,4,,,64,127
23038,note_off,127,0,0,,4,,,64,127
23039,note_on,1,0,0,,7,,,67,127
23166,note_off,127,0,0,,7,,,67,127
23166,note_off,0,0,0,,10,,,57,127
23167,note_on,1,0,0,,2,,,62,127
23167,note_on,0,0,0,,6,,,66,127
23294,note_off,127,0,0,,2,,,62,127
23295,note_on,1,0,0,,1,,,61,127
23422,note_off,127,0,0,,1,,,61,127
23423,note_on,1,0,0,,2,,,62,127
23550,note_off,127,0,0,,2,,,62,127
23551,note_on,1,0,0,,6,,,54,127
23678,note_off,127,0,0,,6,,,54,127
23678,note_off,0,0,0,,6,,,66,127
23679,note_on,1,0,0,,4,,,52,127
23679,note_on,0,0,0,,7,,,67,127
23806,note_off,127,0,0,,4,,,52,127
23807,note_on,1,0,0,,7,,,55,127
23934,note_off,127,0,0,,7,,,55,127
23934,note_off,0,0,0,,7,,,67,127
23935,note_on,1,0,0,,2,,,50,127
23935,note_on,0,0,0,,10,,,69,127
24062,note_off,127,0,0,,10,,,69,127
24063,note_on,1,0,0,,0,,,72,127
24190,note_off,127,0,0,,0,,,72,127
24191,note_on,1,0,0,,0,,,60,127
24191,note_on,0,0,0,,3,,,75,127
24318,note_off,127,0,0,,3,,,75,127
24319,note_on,1,0,0,,6,,,78,127
24446,note_off,127,0,0,,6,,,78,127
24446,note_off,0,0,0,,2,,,50,127
24447,note_on,1,0,0,,6,,,54,127
24447,note_on,0,0,0,,10,,,81,127
24574,note_off,127,0,0,,10,,,81,127
24575,note_on,1,0,0,,0,,,72,127
24702,note_off,127,0,0,,0,,,72,127
24702,note_off,0,0,0,,6,,,54,127
24702,note_off,0,0,0,,0,,,60,127
24703,note_on,1,0,0,,7,,,43,127
24703,note_on,0,0,0,,11,,,70,127
24830,note_off,127,0,0,,7,,,43,127
24831,note_on,1,0,0,,11,,,46,127
24958,note_off,127,0,0,,11,,,46,127
24958,note_off,0,0,0,,11,,,70,127
24959,note_on,1,0,0,,2,,,50,127
24959,note_on,0,0,0,,7,,,67,127
25086,note_off,127,0,0,,2,,,50,127
25087,note_on,1,0,0,,7,,,55,127
25214,note_off,127,0,0,,7,,,55,127
25214,note_off,0,0,0,,7,,,67,127
25215,note_on,1,0,0,,11,,,58,127
25215,note_on,0,0,0,,7,,,79,127
25342,note_off,127,0,0,,11,,,58,127
25343,note_on,1,0,0,,2,,,62,127
25470,note_off,127,0,0,,2,,,62,127
25471,note_on,1,0,0,,3,,,51,127
25471,note_on,0,0,0,,0,,,60,127
25598,note_off,127,0,0,,7,,,79,127
25599,note_on,1,0,0,,11,,,70,127
25726,note_off,127,0,0,,11,,,70,127
25726,note_off,0,0,0,,3,,,51,127
25727,note_on,1,0,0,,5,,,53,127
25727,note_on,0,0,0,,10,,,69,127
25854,note_off,127,0,0,,10,,,69,127
25855,note_on,1,0,0,,5,,,77,127
25978,note_off,123,0,0,,0,,,60,127
25982,note_off,4,0,0,,5,,,77,127
25983,note_on,1,0,0,,5,,,41,127
25983,note_on,0,0,0,,3,,,75,127
26110,note_off,127,0,0,,3,,,75,127
26111,note_on,1,0,0,,0,,,72,127
26234,note_off,123,0,0,,5,,,53,127
26238,note_off,4,0,0,,0,,,72,127
26238,note_off,0,0,0,,5,,,41,127
26239,note_on,1,0,0,,11,,,58,127
26239,note_on,0,0,0,,2,,,74,127
26366,note_off,127,0,0,,2,,,74,127
26366,note_off,0,0,0,,11,,,58,127
26367,note_on,1,0,0,,10,,,57,127
26367,note_on,0,0,0,,5,,,77,127
26494,note_off,127,0,0,,10,,,57,127
26495,note_on,1,0,0,,11,,,58,127
26622,note_off,127,0,0,,11,,,58,127
26622,note_off,0,0,0,,5,,,77,127
26623,note_on,1,0,0,,2,,,50,127
26623,note_on,0,0,0,,11,,,70,127
26750,note_off,127,0,0,,11,,,70,127
26750,note_off,0,0,0,,2,,,50,127
26751,note_on,1,0,0,,0,,,48,127
26751,note_on,0,0,0,,3,,,75,127
26878,note_off,127,0,0,,3,,,75,127
26878,note_off,0,0,0,,0,,,48,127
26879,note_on,1,0,0,,10,,,57,127
26879,note_on,0,0,0,,0,,,72,127
27006,note_off,127,0,0,,0,,,72,127
27006,note_off,0,0,0,,10,,,57,127
27007,note_on,1,0,0,,11,,,58,127
27007,note_on,0,0,0,,2,,,74,127
27134,note_off,127,0,0,,2,,,74,127
27134,note_off,0,0,0,,11,,,58,127
27135,note_on,1,0,0,,10,,,57,127
27135,note_on,0,0,0,,5,,,77,127
27262,note_off,127,0,0,,10,,,57,127
27263,note_on,1,0,0,,11,,,58,127
27390,note_off,127,0,0,,11,,,58,127
27390,note_off,0,0,0,,5,,,77,127
27391,note_on,1,0,0,,2,,,50,127
27391,note_on,0,0,0,,11,,,70,127
27518,note_off,127,0,0,,11,,,70,127
27518,note_off,0,0,0,,2,,,50,127
27519,note_on,1,0,0,,0,,,48,127
27519,note_on,0,0,0,,3,,,75,127
27646,note_off,127,0,0,,3,,,75,127
27646,note_off,0,0,0,,0,,,48,127
27647,note_on,1,0,0,,10,,,57,127
27647,note_on,0,0,0,,0,,,72,127
27774,note_off,127,0,0,,0,,,72,127
27774,note_off,0,0,0,,10,,,57,127
27775,note_on,1,0,0,,11,,,58,127
27775,note_on,0,0,0,,2,,,74,127
27903,note_on,128,0,0,,5,,,77,127
28030,note_off,127,0,0,,5,,,77,127
28030,note_off,0,0,0,,2,,,74,127
28030,note_off,0,0,0,,11,,,58,127
28031,note_on,1,0,0,,3,,,51,127
28031,note_on,0,0,0,,3,,,75,127
28031,note_on,0,0,0,,0,,,72,127
28158,note_off,127,0,0,,0,,,72,127
28158,note_off,0,0,0,,3,,,75,127
28159,note_on,1,0,0,,11,,,70,127
28159,note_on,0,0,0,,2,,,74,127
28286,note_off,127,0,0,,2,,,74,127
28286,note_off,0,0,0,,11,,,70,127
28286,note_off,0,0,0,,3,,,51,127
28287,note_on,1,0,0,,5,,,53,127
28287,note_on,0,0,0,,0,,,72,127
28287,note_on,0,0,0,,10,,,69,127
28414,note_off,127,0,0,,0,,,72,127
28415,note_on,1,0,0,,3,,,75,127
28542,note_off,127,0,0,,3,,,75,127
28542,note_off,0,0,0,,10,,,69,127
28542,note_off,0,0,0,,5,,,53,127
28543,note_on,1,0,0,,11,,,46,127
28543,note_on,0,0,0,,11,,,58,127
28543,note_on,0,0,0,,2,,,74,127
28543,note_on,0,0,0,,11,,,70,127
28670,note_off,127,0,0,,2,,,74,127
28671,note_on,1,0,0,,5,,,77,127
28798,note_off,127,0,0,,5,,,77,127
28798,note_off,0,0,0,,11,,,70,127
28798,note_off,0,0,0,,11,,,58,127
28798,note_off,0,0,0,,11,,,46,127
28799,note_on,1,0,0,,3,,,51,127
28799,note_on,0,0,0,,3,,,75,127
28799,note_on,0,0,0,,0,,,72,127
28926,note_off,127,0,0,,0,,,72,127
28926,note_off,0,0,0,,3,,,75,127
28927,note_on,1,0,0,,11,,,70,127
28927,note_on,0,0,0,,2,,,74,127
29054,note_off,127,0,0,,2,,,74,127
29054,note_off,0,0,0,,11,,,70,127
29054,note_off,0,0,0,,3,,,51,127
29055,note_on,1,0,0,,5,,,53,127
29055,note_on,0,0,0,,10,,,57,127
29055,note_on,0,0,0,,0,,,72,127
29055,note_on,0,0,0,,10,,,69,127
29182,note_off,127,0,0,,0,,,72,127
29183,note_on,1,0,0,,3,,,75,127
29310,note_off,127,0,0,,3,,,75,127
29310,note_off,0,0,0,,10,,,69,127
29310,note_off,0,0,0,,10,,,57,127
29310,note_off,0,0,0,,5,,,53,127
29311,note_on,1,0,0,,7,,,55,127
29311,note_on,0,0,0,,2,,,74,127
29311,note_on,0,0,0,,12,,,71,127
29438,note_off,127,0,0,,2,,,74,127
29439,note_on,1,0,0,,0,,,72,127
29566,note_off,127,0,0,,0,,,72,127
29567,note_on,1,0,0,,2,,,74,127
29694,note_off,127,0,0,,7,,,55,127
29695,note_on,1,0,0,,5,,,53,127
29822,note_off,127,0,0,,5,,,53,127
29822,note_off,0,0,0,,2,,,74,127
29822,note_off,0,0,0,,12,,,71,127
29823,note_on,1,0,0,,3,,,51,127
29823,note_on,0,0,0,,7,,,67,127
29823,note_on,0,0,0,,12,,,71,127
29950,note_off,127,0,0,,3,,,51,127
29951,note_on,1,0,0,,2,,,50,127
30078,note_off,127,0,0,,2,,,50,127
30078,note_off,0,0,0,,12,,,71,127
30078,note_off,0,0,0,,7,,,67,127
30079,note_on,1,0,0,,0,,,60,127
30079,note_on,0,0,0,,3,,,75,127
30079,note_on,0,0,0,,0,,,72,127
30206,note_off,127,0,0,,0,,,72,127
30206,note_off,0,0,0,,3,,,75,127
30206,note_off,0,0,0,,0,,,60,127
30207,note_on,1,0,0,,12,,,59,127
30207,note_on,0,0,0,,7,,,79,127
30334,note_off,127,0,0,,12,,,59,127
30335,note_on,1,0,0,,0,,,60,127
30462,note_off,127,0,0,,0,,,60,127
30462,note_off,0,0,0,,7,,,79,127
30463,note_on,1,0,0,,3,,,51,127
30463,note_on,0,0,0,,0,,,72,127
30590,note_off,127,0,0,,0,,,72,127
30590,note_off,0,0,0,,3,,,51,127
30591,note_on,1,0,0,,2,,,50,127
30591,note_on,0,0,0,,5,,,77,127
30718,note_off,127,0,0,,5,,,77,127
30718,note_off,0,0,0,,2,,,50,127
30719,note_on,1,0,0,,12,,,59,127
30719,note_on,0,0,0,,2,,,74,127
30846,note_off,127,0,0,,2,,,74,127
30846,note_off,0,0,0,,12,,,59,127
30847,note_on,1,0,0,,0,,,60,127
30847,note_on,0,0,0,,3,,,75,127
30974,note_off,127,0,0,,3,,,75,127
30974,note_off,0,0,0,,0,,,60,127
30975,note_on,1,0,0,,12,,,59,127
30975,note_on,0,0,0,,7,,,79,127
31102,note_off,127,0,0,,12,,,59,127
31103,note_on,1,0,0,,0,,,60,127
31230,note_off,127,0,0,,0,,,60,127
31230,note_off,0,0,0,,7,,,79,127
31231,note_on,1,0,0,,3,,,51,127
31231,note_on,0,0,0,,0,,,72,127
31358,note_off,127,0,0,,0,,,72,127
31358,note_off,0,0,0,,3,,,51,127
31359,note_on,1,0,0,,2,,,50,127
31359,note_on,0,0,0,,5,,,77,127
31486,note_off,127,0,0,,5,,,77,127
31486,note_off,0,0,0,,2,,,50,127
31487,note_on,1,0,0,,12,,,59,127
31487,note_on,0,0,0,,2,,,74,127
31614,note_off,127,0,0,,2,,,74,127
31614,note_off,0,0,0,,12,,,59,127
31615,note_on,1,0,0,,0,,,60,127
31615,note_on,0,0,0,,3,,,75,127
31615,note_on,0,0,0,,0,,,72,127
31742,note_off,127,0,0,,3,,,75,127
31743,note_on,1,0,0,,7,,,79,127
31870,note_off,127,0,0,,7,,,79,127
31870,note_off,0,0,0,,0,,,72,127
31870,note_off,0,0,0,,0,,,60,127
31871,note_on,1,0,0,,5,,,53,127
31871,note_on,0,0,0,,5,,,77,127
31871,note_on,0,0,0,,2,,,74,127
31998,note_off,127,0,0,,2,,,74,127
31998,note_off,0,0,0,,5,,,77,127
31999,note_on,1,0,0,,3,,,75,127
31999,note_on,0,0,0,,0,,,72,127
32126,note_off,127,0,0,,0,,,72,127
32126,note_off,0,0,0,,3,,,75,127
32126,note_off,0,0,0,,5,,,53,127
32127,note_on,1,0,0,,7,,,55,127
32127,note_on,0,0,0,,12,,,71,127
32127,note_on,0,0,0,,2,,,74,127
32254,note_off,127,0,0,,2,,,74,127
32255,note_on,1,0,0,,5,,,77,127
32382,note_off,127,0,0,,5,,,77,127
32382,note_off,0,0,0,,12,,,71,127
32382,note_off,0,0,0,,7,,,55,127
32383,note_on,1,0,0,,0,,,48,127
32383,note_on,0,0,0,,0,,,60,127
32383,note_on,0,0,0,,0,,,72,127
32383,note_on,0,0,0,,3,,,75,127
32510,note_off,127,0,0,,3,,,75,127
32511,note_on,1,0,0,,7,,,79,127
32638,note_off,127,0,0,,7,,,79,127
32638,note_off,0,0,0,,0,,,72,127
32638,note_off,0,0,0,,0,,,60,127
32638,note_off,0,0,0,,0,,,48,127
32639,note_on,1,0,0,,5,,,41,127
32639,note_on,0,0,0,,5,,,53,127
32639,note_on,0,0,0,,5,,,77,127
32639,note_on,0,0,0,,2,,,74,127
32766,note_off,127,0,0,,2,,,74,127
32766,note_off,0,0,0,,5,,,77,127
32767,note_on,1,0,0,,3,,,75,127
32767,note_on,0,0,0,,0,,,72,127
32894,note_off,127,0,0,,0,,,72,127
32894,note_off,0,0,0,,3,,,75,127
32894,note_off,0,0,0,,5,,,53,127
32894,note_off,0,0,0,,5,,,41,127
32895,note_on,1,0,0,,7,,,43,127
32895,note_on,0,0,0,,7,,,55,127
32895,note_on,0,0,0,,12,,,71,127
32895,note_on,0,0,0,,2,,,74,127
33022,note_off,127,0,0,,2,,,74,127
33023,note_on,1,0,0,,5,,,77,127
33150,note_off,127,0,0,,5,,,77,127
33150,note_off,0,0,0,,12,,,71,127
33150,note_off,0,0,0,,7,,,55,127
33150,note_off,0,0,0,,7,,,43,127
33151,note_on,1,0,0,,10,,,57,127
33151,note_on,0,0,0,,0,,,72,127
33151,note_on,0,0,0,,4,,,76,127
33278,note_off,127,0,0,,4,,,76,127
33278,note_off,0,0,0,,0,,,72,127
33279,note_on,1,0,0,,2,,,74,127
33279,note_on,0,0,0,,12,,,71,127
33406,note_off,127,0,0,,12,,,71,127
33406,note_off,0,0,0,,2,,,74,127
33407,note_on,1,0,0,,4,,,76,127
33407,note_on,0,0,0,,0,,,72,127
33534,note_off,127,0,0,,10,,,57,127
33535,note_on,1,0,0,,7,,,55,127
33662,note_off,127,0,0,,7,,,55,127
33662,note_off,0,0,0,,0,,,72,127
33662,note_off,0,0,0,,4,,,76,127
33663,note_on,1,0,0,,5,,,53,127
33663,note_on,0,0,0,,10,,,69,127
33790,note_off,127,0,0,,5,,,53,127
33791,note_on,1,0,0,,4,,,52,127
33855,note_off,64,0,0,,10,,,69,127
33918,note_off,63,0,0,,4,,,52,127
33919,note_on,1,0,0,,2,,,62,127
33919,note_on,0,0,0,,5,,,77,127
34046,note_off,127,0,0,,5,,,77,127
34046,note_off,0,0,0,,2,,,62,127
34047,note_on,1,0,0,,1,,,61,127
34047,note_on,0,0,0,,10,,,81,127
34174,note_off,127,0,0,,1,,,61,127
34175,note_on,1,0,0,,2,,,62,127
34302,note_off,127,0,0,,2,,,62,127
34302,note_off,0,0,0,,10,,,81,127
34303,note_on,1,0,0,,5,,,53,127
34303,note_on,0,0,0,,2,,,74,127
34430,note_off,127,0,0,,2,,,74,127
34430,note_off,0,0,0,,5,,,53,127
34431,note_on,1,0,0,,4,,,52,127
34431,note_on,0,0,0,,7,,,79,127
34558,note_off,127,0,0,,7,,,79,127
34558,note_off,0,0,0,,4,,,52,127
34559,note_on,1,0,0,,1,,,61,127
34559,note_on,0,0,0,,4,,,76,127
34686,note_off,127,0,0,,4,,,76,127
34686,note_off,0,0,0,,1,,,61,127
34687,note_on,1,0,0,,2,,,62,127
34687,note_on,0,0,0,,5,,,77,127
34814,note_off,127,0,0,,5,,,77,127
34814,note_off,0,0,0,,2,,,62,127
34815,note_on,1,0,0,,1,,,61,127
34815,note_on,0,0,0,,10,,,81,127
34942,note_off,127,0,0,,1,,,61,127
34943,note_on,1,0,0,,2,,,62,127
35070,note_off,127,0,0,,2,,,62,127
35070,note_off,0,0,0,,10,,,81,127
35071,note_on,1,0,0,,5,,,53,127
35071,note_on,0,0,0,,2,,,74,127
35198,note_off,127,0,0,,2,,,74,127
35198,note_off,0,0,0,,5,,,53,127
35199,note_on,1,0,0,,4,,,52,127
35199,note_on,0,0,0,,7,,,79,127
35326,note_off,127,0,0,,7,,,79,127
35326,note_off,0,0,0,,4,,,52,127
35327,note_on,1,0,0,,1,,,61,127
35327,note_on,0,0,0,,4,,,76,127
35454,note_off,127,0,0,,4,,,76,127
35454,note_off,0,0,0,,1,,,61,127
35455,note_on,1,0,0,,2,,,50,127
35455,note_on,0,0,0,,6,,,78,127
35455,note_on,0,0,0,,2,,,74,127
35582,note_off,127,0,0,,6,,,78,127
35583,note_on,1,0,0,,7,,,79,127
35710,note_off,127,0,0,,7,,,79,127
35711,note_on,1,0,0,,2,,,62,127
35711,note_on,0,0,0,,10,,,81,127
35838,note_off,127,0,0,,2,,,74,127
35839,note_on,1,0,0,,0,,,72,127
35966,note_off,127,0,0,,0,,,72,127
35966,note_off,0,0,0,,2,,,50,127
35967,note_on,1,0,0,,6,,,54,127
35967,note_on,0,0,0,,11,,,70,127
36094,note_off,127,0,0,,11,,,70,127
36094,note_off,0,0,0,,6,,,54,127
36094,note_off,0,0,0,,2,,,62,127
36095,note_on,1,0,0,,0,,,60,127
36095,note_on,0,0,0,,10,,,69,127
36222,note_off,127,0,0,,10,,,69,127
36222,note_off,0,0,0,,0,,,60,127
36223,note_on,1,0,0,,11,,,58,127
36223,note_on,0,0,0,,7,,,55,127
36223,note_on,0,0,0,,11,,,70,127
36350,note_off,127,0,0,,10,,,81,127
36351,note_on,1,0,0,,2,,,74,127
36478,note_off,127,0,0,,2,,,74,127
36478,note_off,0,0,0,,11,,,58,127
36479,note_on,1,0,0,,7,,,79,127
36606,note_off,127,0,0,,11,,,70,127
36606,note_off,0,0,0,,7,,,55,127
36607,note_on,1,0,0,,10,,,57,127
36607,note_on,0,0,0,,0,,,72,127
36734,note_off,127,0,0,,0,,,72,127
36734,note_off,0,0,0,,10,,,57,127
36735,note_on,1,0,0,,11,,,58,127
36735,note_on,0,0,0,,2,,,74,127
36862,note_off,127,0,0,,7,,,79,127
36863,note_on,1,0,0,,5,,,77,127
36990,note_off,127,0,0,,5,,,77,127
36990,note_off,0,0,0,,2,,,74,127
36990,note_off,0,0,0,,11,,,58,127
36991,note_on,1,0,0,,0,,,48,127
36991,note_on,0,0,0,,0,,,60,127
36991,note_on,0,0,0,,3,,,75,127
37118,note_off,127,0,0,,3,,,75,127
37119,note_on,1,0,0,,1,,,73,127
37246,note_off,127,0,0,,1,,,73,127
37246,note_off,0,0,0,,0,,,60,127
37246,note_off,0,0,0,,0,,,48,127
37247,note_on,1,0,0,,2,,,62,127
37247,note_on,0,0,0,,6,,,54,127
37247,note_on,0,0,0,,2,,,74,127
37374,note_off,127,0,0,,2,,,74,127
37375,note_on,1,0,0,,11,,,70,127
37502,note_off,127,0,0,,11,,,70,127
37502,note_off,0,0,0,,6,,,54,127
37503,note_on,1,0,0,,2,,,50,127
37503,note_on,0,0,0,,0,,,72,127
37630,note_off,127,0,0,,0,,,72,127
37631,note_on,1,0,0,,10,,,69,127
37758,note_off,127,0,0,,10,,,69,127
37758,note_off,0,0,0,,2,,,50,127
37758,note_off,0,0,0,,2,,,62,127
37759,note_on,1,0,0,,2,,,62,127
37759,note_on,0,0,0,,7,,,55,127
37759,note_on,0,0,0,,11,,,70,127
37886,note_off,127,0,0,,11,,,70,127
37887,note_on,1,0,0,,7,,,67,127
38014,note_off,127,0,0,,7,,,67,127
38014,note_off,0,0,0,,7,,,55,127
38014,note_off,0,0,0,,2,,,62,127
38015,note_on,1,0,0,,0,,,48,127
38015,note_on,0,0,0,,8,,,68,127
38142,note_off,127,0,0,,8,,,68,127
38143,note_on,1,0,0,,0,,,72,127
38270,note_off,127,0,0,,0,,,72,127
38270,note_off,0,0,0,,0,,,48,127
38271,note_on,1,0,0,,0,,,60,127
38271,note_on,0,0,0,,3,,,75,127
38398,note_off,127,0,0,,3,,,75,127
38399,note_on,1,0,0,,7,,,67,127
38526,note_off,127,0,0,,7,,,67,127
38526,note_off,0,0,0,,0,,,60,127
38527,note_on,1,0,0,,6,,,66,127
38655,note_on,128,0,0,,2,,,50,127
38782,note_off,127,0,0,,2,,,50,127
38783,note_on,1,0,0,,6,,,54,127
38910,note_off,127,0,0,,6,,,54,127
38911,note_on,1,0,0,,10,,,57,127
39038,note_off,127,0,0,,10,,,57,127
39038,note_off,0,0,0,,6,,,66,127
39039,note_on,1,0,0,,0,,,60,127
39039,note_on,0,0,0,,10,,,69,127
39166,note_off,127,0,0,,0,,,60,127
39167,note_on,1,0,0,,3,,,63,127
39294,note_off,127,0,0,,3,,,63,127
39295,note_on,1,0,0,,6,,,54,127
39422,note_off,127,0,0,,10,,,69,127
39423,note_on,1,0,0,,0,,,72,127
39550,note_off,127,0,0,,0,,,72,127
39550,note_off,0,0,0,,6,,,54,127
39551,note_on,1,0,0,,2,,,50,127
39551,note_on,0,0,0,,3,,,75,127
39678,note_off,127,0,0,,3,,,75,127
39679,note_on,1,0,0,,6,,,78,127
39806,note_off,127,0,0,,6,,,78,127
39806,note_off,0,0,0,,2,,,50,127
39807,note_on,1,0,0,,6,,,54,127
39807,note_on,0,0,0,,10,,,81,127
39934,note_off,127,0,0,,10,,,81,127
39935,note_on,1,0,0,,0,,,72,127
40062,note_off,127,0,0,,0,,,72,127
40062,note_off,0,0,0,,6,,,54,127
40063,note_on,1,0,0,,7,,,55,127
40063,note_on,0,0,0,,11,,,70,127
40190,note_off,127,0,0,,11,,,70,127
40190,note_off,0,0,0,,7,,,55,127
40191,note_on,1,0,0,,6,,,54,127
40191,note_on,0,0,0,,2,,,74,127
40318,note_off,127,0,0,,6,,,54,127
40319,note_on,1,0,0,,7,,,55,127
40446,note_off,127,0,0,,7,,,55,127
40446,note_off,0,0,0,,2,,,74,127
40447,note_on,1,0,0,,11,,,46,127
40447,note_on,0,0,0,,7,,,67,127
40574,note_off,127,0,0,,7,,,67,127
40574,note_off,0,0,0,,11,,,46,127
40575,note_on,1,0,0,,10,,,45,127
40575,note_on,0,0,0,,0,,,72,127
40702,note_off,127,0,0,,0,,,72,127
40702,note_off,0,0,0,,10,,,45,127
40703,note_on,1,0,0,,6,,,54,127
40703,note_on,0,0,0,,10,,,69,127
40830,note_off,127,0,0,,10,,,69,127
40830,note_off,0,0,0,,6,,,54,127
40831,note_on,1,0,0,,7,,,55,127
40831,note_on,0,0,0,,7,,,67,127
40831,note_on,0,0,0,,11,,,70,127
40958,note_off,127,0,0,,11,,,70,127
40958,note_off,0,0,0,,7,,,67,127
40958,note_off,0,0,0,,7,,,55,127
40959,note_on,1,0,0,,6,,,54,127
40959,note_on,0,0,0,,2,,,74,127
41086,note_off,127,0,0,,6,,,54,127
41087,note_on,1,0,0,,7,,,55,127
41214,note_off,127,0,0,,7,,,55,127
41214,note_off,0,0,0,,2,,,74,127
41215,note_on,1,0,0,,11,,,46,127
41215,note_on,0,0,0,,7,,,67,127
41342,note_off,127,0,0,,7,,,67,127
41342,note_off,0,0,0,,11,,,46,127
41343,note_on,1,0,0,,10,,,45,127
41343,note_on,0,0,0,,0,,,72,127
41470,note_off,127,0,0,,0,,,72,127
41470,note_off,0,0,0,,10,,,45,127
41471,note_on,1,0,0,,6,,,54,127
41471,note_on,0,0,0,,10,,,69,127
41598,note_off,127,0,0,,10,,,69,127
41598,note_off,0,0,0,,6,,,54,127
41599,note_on,1,0,0,,7,,,55,127
41599,note_on,0,0,0,,11,,,70,127
41726,note_off,127,0,0,,11,,,70,127
41727,note_on,1,0,0,,7,,,79,127
41854,note_off,127,0,0,,7,,,79,127
41854,note_off,0,0,0,,7,,,55,127
41855,note_on,1,0,0,,0,,,48,127
41855,note_on,0,0,0,,0,,,60,127
41855,note_on,0,0,0,,3,,,75,127
41982,note_off,127,0,0,,3,,,75,127
41983,note_on,1,0,0,,0,,,72,127
42110,note_off,127,0,0,,0,,,72,127
42110,note_off,0,0,0,,0,,,60,127
42110,note_off,0,0,0,,0,,,48,127
42111,note_on,1,0,0,,2,,,50,127
42111,note_on,0,0,0,,2,,,62,127
42111,note_on,0,0,0,,10,,,69,127
42238,note_off,127,0,0,,10,,,69,127
42239,note_on,1,0,0,,6,,,78,127
42366,note_off,127,0,0,,6,,,78,127
42366,note_off,0,0,0,,2,,,62,127
42366,note_off,0,0,0,,2,,,50,127
42367,note_on,1,0,0,,7,,,55,127
42367,note_on,0,0,0,,11,,,70,127
42494,note_off,127,0,0,,11,,,70,127
42495,note_on,1,0,0,,7,,,79,127
42622,note_off,127,0,0,,7,,,79,127
42622,note_off,0,0,0,,7,,,55,127
42623,note_on,1,0,0,,0,,,48,127
42623,note_on,0,0,0,,0,,,60,127
42623,note_on,0,0,0,,3,,,75,127
42750,note_off,127,0,0,,3,,,75,127
42751,note_on,1,0,0,,0,,,72,127
42878,note_off,127,0,0,,0,,,72,127
42878,note_off,0,0,0,,0,,,60,127
42878,note_off,0,0,0,,0,,,48,127
42879,note_on,1,0,0,,2,,,62,127
42879,note_on,0,0,0,,2,,,50,127
42879,note_on,0,0,0,,10,,,69,127
43006,note_off,127,0,0,,10,,,69,127
43007,note_on,1,0,0,,6,,,78,127
43134,note_off,127,0,0,,6,,,78,127
43134,note_off,0,0,0,,2,,,50,127
43134,note_off,0,0,0,,2,,,62,127
43135,note_on,1,0,0,,3,,,63,127
43135,note_on,0,0,0,,7,,,79,127
43262,note_off,127,0,0,,3,,,63,127
43263,note_on,1,0,0,,0,,,60,127
43390,note_off,127,0,0,,0,,,60,127
43391,note_on,1,0,0,,10,,,57,127
43518,note_off,127,0,0,,10,,,57,127
43518,note_off,0,0,0,,7,,,79,127
43519,note_on,1,0,0,,6,,,54,127
43519,note_on,0,0,0,,10,,,81,127
43646,note_off,127,0,0,,10,,,81,127
43646,note_off,0,0,0,,6,,,54,127
43647,note_on,1,0,0,,2,,,50,127
43647,note_on,0,0,0,,2,,,74,127
43774,note_off,127,0,0,,2,,,74,127
43774,note_off,0,0,0,,2,,,50,127
43775,note_on,1,0,0,,0,,,60,127
43775,note_on,0,0,0,,6,,,78,127
43902,note_off,127,0,0,,6,,,78,127
43902,note_off,0,0,0,,0,,,60,127
43903,note_on,1,0,0,,11,,,58,127
43903,note_on,0,0,0,,7,,,79,127
44030,note_off,127,0,0,,7,,,79,127
44031,note_on,1,0,0,,2,,,74,127
44158,note_off,127,0,0,,2,,,74,127
44158,note_off,0,0,0,,11,,,58,127
44159,note_on,1,0,0,,0,,,60,127
44159,note_on,0,0,0,,0,,,72,127
44286,note_off,127,0,0,,0,,,72,127
44287,note_on,1,0,0,,11,,,70,127
44414,note_off,127,0,0,,11,,,70,127
44414,note_off,0,0,0,,0,,,60,127
44415,note_on,1,0,0,,2,,,62,127
44415,note_on,0,0,0,,10,,,69,127
44542,note_off,127,0,0,,10,,,69,127
44543,note_on,1,0,0,,0,,,72,127
44670,note_off,127,0,0,,0,,,72,127
44670,note_off,0,0,0,,2,,,62,127
44671,note_on,1,0,0,,7,,,55,127
44671,note_on,0,0,0,,11,,,58,127
44671,note_on,0,0,0,,11,,,70,127
44798,note_off,127,0,0,,11,,,70,127
44799,note_on,1,0,0,,2,,,74,127
44926,note_off,127,0,0,,2,,,74,127
44926,note_off,0,0,0,,7,,,55,127
44927,note_on,1,0,0,,0,,,48,127
44927,note_on,0,0,0,,0,,,72,127
45054,note_off,127,0,0,,0,,,72,127
45055,note_on,1,0,0,,11,,,70,127
45182,note_off,127,0,0,,11,,,70,127
45182,note_off,0,0,0,,0,,,48,127
45182,note_off,0,0,0,,11,,,58,127
45183,note_on,1,0,0,,10,,,57,127
45183,note_on,0,0,0,,2,,,50,127
45183,note_on,0,0,0,,10,,,69,127
45310,note_off,127,0,0,,10,,,69,127
45311,note_on,1,0,0,,0,,,72,127
45438,note_off,127,0,0,,0,,,72,127
45438,note_off,0,0,0,,2,,,50,127
45438,note_off,0,0,0,,10,,,57,127
45439,note_on,1,0,0,,11,,,58,127
45439,note_on,0,0,0,,7,,,55,127
45439,note_on,0,0,0,,11,,,70,127
45566,note_off,127,0,0,,11,,,70,127
45567,note_on,1,0,0,,2,,,74,127
45694,note_off,127,0,0,,2,,,74,127
45694,note_off,0,0,0,,7,,,55,127
45695,note_on,1,0,0,,0,,,48,127
45695,note_on,0,0,0,,0,,,72,127
45822,note_off,127,0,0,,0,,,72,127
45823,note_on,1,0,0,,11,,,70,127
45950,note_off,127,0,0,,11,,,70,127
45950,note_off,0,0,0,,0,,,48,127
45950,note_off,0,0,0,,11,,,58,127
45951,note_on,1,0,0,,10,,,57,127
45951,note_on,0,0,0,,2,,,50,127
45951,note_on,0,0,0,,10,,,69,127
46078,note_off,127,0,0,,10,,,69,127
46079,note_on,1,0,0,,0,,,72,127
46206,note_off,127,0,0,,0,,,72,127
46206,note_off,0,0,0,,2,,,50,127
46206,note_off,0,0,0,,10,,,57,127
46207,note_on,1,0,0,,7,,,55,127
46207,note_on,0,0,0,,11,,,70,127
46334,note_off,127,0,0,,7,,,55,127
46335,note_on,1,0,0,,6,,,54,127
46462,note_off,127,0,0,,6,,,54,127
46463,note_on,1,0,0,,7,,,55,127
46590,note_off,127,0,0,,7,,,55,127
46590,note_off,0,0,0,,11,,,70,127
46591,note_on,1,0,0,,11,,,46,127
46591,note_on,0,0,0,,7,,,67,127
46718,note_off,127,0,0,,7,,,67,127
46718,note_off,0,0,0,,11,,,46,127
46719,note_on,1,0,0,,10,,,45,127
46719,note_on,0,0,0,,0,,,72,127
46846,note_off,127,0,0,,0,,,72,127
46846,note_off,0,0,0,,10,,,45,127
46847,note_on,1,0,0,,6,,,54,127
46847,note_on,0,0,0,,10,,,69,127
46974,note_off,127,0,0,,10,,,69,127
46974,note_off,0,0,0,,6,,,54,127
46975,note_on,1,0,0,,11,,,46,127
46975,note_on,0,0,0,,7,,,55,127
46975,note_on,0,0,0,,2,,,74,127
47102,note_off,127,0,0,,2,,,74,127
47103,note_on,1,0,0,,7,,,67,127
47230,note_off,127,0,0,,11,,,46,127
47231,note_on,1,0,0,,0,,,48,127
47358,note_off,127,0,0,,7,,,67,127
47359,note_on,1,0,0,,10,,,69,127
47486,note_off,127,0,0,,10,,,69,127
47486,note_off,0,0,0,,0,,,48,127
47486,note_off,0,0,0,,7,,,55,127
47487,note_on,1,0,0,,6,,,54,127
47487,note_on,0,0,0,,2,,,50,127
47487,note_on,0,0,0,,2,,,62,127
47614,note_off,127,0,0,,2,,,62,127
47615,note_on,1,0,0,,6,,,66,127
47742,note_off,127,0,0,,6,,,66,127
47742,note_off,0,0,0,,2,,,50,127
47742,note_off,0,0,0,,6,,,54,127
47743,note_on,1,0,0,,7,,,55,127
47743,note_on,0,0,0,,7,,,67,127
47870,note_off,127,0,0,,7,,,67,127
47871,note_on,1,0,0,,7,,,79,127
47998,note_off,127,0,0,,7,,,79,127
47998,note_off,0,0,0,,7,,,55,127
47999,note_on,1,0,0,,0,,,60,127
47999,note_on,0,0,0,,0,,,48,127
47999,note_on,0,0,0,,3,,,75,127
48126,note_off,127,0,0,,3,,,75,127
48127,note_on,1,0,0,,0,,,72,127
48254,note_off,127,0,0,,0,,,72,127
48254,note_off,0,0,0,,0,,,48,127
48254,note_off,0,0,0,,0,,,60,127
48255,note_on,1,0,0,,2,,,50,127
48255,note_on,0,0,0,,2,,,62,127
48255,note_on,0,0,0,,10,,,69,127
48382,note_off,127,0,0,,10,,,69,127
48383,note_on,1,0,0,,6,,,78,127
48510,note_off,127,0,0,,6,,,78,127
48510,note_off,0,0,0,,2,,,62,127
48510,note_off,0,0,0,,2,,,50,127
48511,note_on,1,0,0,,7,,,55,127
48511,note_on,0,0,0,,7,,,79,127
48574,note_off,63,0,0,,7,,,55,127
48575,note_on,1,0,0,,2,,,62,127
48638,note_off,63,0,0,,2,,,62,127
48639,note_on,1,0,0,,0,,,60,127
48702,note_off,63,0,0,,0,,,60,127
48703,note_on,1,0,0,,11,,,58,127
48766,note_off,63,0,0,,11,,,58,127
48767,note_on,1,0,0,,10,,,57,127
48830,note_off,63,0,0,,10,,,57,127
48831,note_on,1,0,0,,7,,,55,127
48894,note_off,63,0,0,,7,,,55,127
48895,note_on,1,0,0,,6,,,54,127
48958,note_off,63,0,0,,6,,,54,127
48959,note_on,1,0,0,,4,,,52,127
49022,note_off,63,0,0,,4,,,52,127
49023,note_on,1,0,0,,2,,,50,127
49086,note_off,63,0,0,,2,,,50,127
49087,note_on,1,0,0,,0,,,48,127
49150,note_off,63,0,0,,0,,,48,127
49151,note_on,1,0,0,,11,,,46,127
49214,note_off,63,0,0,,11,,,46,127
49215,note_on,1,0,0,,10,,,45,127
49278,note_off,63,0,0,,10,,,45,127
49279,note_on,1,0,0,,7,,,43,127
49342,note_off,63,0,0,,7,,,79,127
49343,note_on,1,0,0,,7,,,79,127
49406,note_off,63,0,0,,7,,,79,127
49407,note_on,1,0,0,,5,,,77,127
49470,note_off,63,0,0,,5,,,77,127
49471,note_on,1,0,0,,3,,,75,127
49534,note_off,63,0,0,,3,,,75,127
49535,note_on,1,0,0,,2,,,74,127
49598,note_off,63,0,0,,2,,,74,127
49599,note_on,1,0,0,,0,,,72,127
49662,note_off,63,0,0,,0,,,72,127
49663,note_on,1,0,0,,11,,,70,127
49726,note_off,63,0,0,,11,,,70,127
49727,note_on,1,0,0,,10,,,69,127
49790,note_off,63,0,0,,10,,,69,127
49791,note_on,1,0,0,,7,,,67,127
49854,note_off,63,0,0,,7,,,67,127
49855,note_on,1,0,0,,5,,,65,127
49918,note_off,63,0,0,,5,,,65,127
49919,note_on,1,0,0,,3,,,63,127
49982,note_off,63,0,0,,3,,,63,127
49983,note_on,1,0,0,,2,,,62,127
50046,note_off,63,0,0,,2,,,62,127
50047,note_on,1,0,0,,0,,,60,127
50110,note_off,63,0,0,,0,,,60,127
50111,note_on,1,0,0,,11,,,58,127
50174,note_off,63,0,0,,11,,,58,127
50175,note_on,1,0,0,,10,,,57,127
50238,note_off,63,0,0,,10,,,57,127
50239,note_on,1,0,0,,7,,,55,127
50302,note_off,63,0,0,,7,,,55,127
50302,note_off,0,0,0,,7,,,43,127
50303,note_on,1,0,0,,6,,,54,127
50366,note_off,63,0,0,,6,,,54,127
50367,note_on,1,0,0,,4,,,52,127
50430,note_off,63,0,0,,4,,,52,127
50431,note_on,1,0,0,,2,,,50,127
50494,note_off,63,0,0,,2,,,50,127
50495,note_on,1,0,0,,0,,,48,127
50558,note_off,63,0,0,,0,,,48,127
50559,note_on,1,0,0,,11,,,46,127
50622,note_off,63,0,0,,11,,,46,127
50623,note_on,1,0,0,,10,,,45,127
50686,note_off,63,0,0,,10,,,45,127
50687,note_on,1,0,0,,7,,,43,127
50750,note_off,63,0,0,,7,,,43,127
50751,note_on,1,0,0,,6,,,42,127
50814,note_off,63,0,0,,6,,,42,127
50837,note_on,23,0,0,,7,,,43,127
52704,note_off,1867,0,0,,7,,,43,127
55296,end_of_track,2592,1,0,,,,,,
