tick,type,time,meta,track,program,channel,pitch,tempo,note,velocity
0,copyright,0,1,0,,,,,,
0,program_change,0,0,0,6,0,,,,
0,pitchwheel,0,0,0,,0,0,,,
0,program_change,0,0,0,6,1,,,,
0,pitchwheel,0,0,0,,1,0,,,
0,program_change,0,0,0,6,2,,,,
0,pitchwheel,0,0,0,,2,0,,,
0,program_change,0,0,0,6,3,,,,
0,pitchwheel,0,0,0,,3,0,,,
0,program_change,0,0,0,6,4,,,,
0,pitchwheel,0,0,0,,4,0,,,
0,program_change,0,0,0,6,5,,,,
0,pitchwheel,0,0,0,,5,0,,,
0,program_change,0,0,0,6,6,,,,
0,pitchwheel,0,0,0,,6,0,,,
0,program_change,0,0,0,6,7,,,,
0,pitchwheel,0,0,0,,7,0,,,
0,program_change,0,0,0,6,8,,,,
0,pitchwheel,0,0,0,,8,0,,,
0,set_tempo,0,1,0,,,,500000,,
96,note_on,96,0,0,,0,,,50,95
96,note_on,0,0,0,,0,,,65,95
96,note_on,0,0,0,,0,,,74,95
96,note_on,0,0,0,,1,,,81,127
773,note_off,677,0,0,,0,,,50,95
774,note_on,1,0,0,,0,,,53,95
774,note_on,0,0,0,,0,,,69,95
1112,note_off,338,0,0,,1,,,81,127
1282,note_on,170,0,0,,1,,,74,127
1450,note_off,168,0,0,,1,,,74,127
1450,note_off,0,0,0,,0,,,69,95
1450,note_off,0,0,0,,0,,,53,95
1450,note_off,0,0,0,,0,,,74,95
1450,note_off,0,0,0,,0,,,65,95
1451,note_on,1,0,0,,0,,,55,95
1451,note_on,0,0,0,,0,,,67,95
1451,note_on,0,0,0,,0,,,70,95
1451,note_on,0,0,0,,1,,,76,127
1958,note_off,507,0,0,,1,,,76,127
1959,note_on,1,0,0,,1,,,77,127
2127,note_off,168,0,0,,1,,,77,127
2127,note_off,0,0,0,,0,,,70,95
2127,note_off,0,0,0,,0,,,67,95
2127,note_off,0,0,0,,0,,,55,95
2128,note_on,1,0,0,,1,,,67,127
2806,note_on,678,0,0,,0,,,45,95
2806,note_on,0,0,0,,0,,,64,95
2806,note_on,0,0,0,,0,,,61,95
3313,note_off,507,0,0,,1,,,67,127
3314,note_on,1,0,0,,1,,,70,127
3482,note_off,168,0,0,,1,,,70,127
3482,note_off,0,0,0,,0,,,61,95
3482,note_off,0,0,0,,0,,,64,95
3482,note_off,0,0,0,,0,,,45,95
3483,note_on,1,0,0,,0,,,47,95
3483,note_on,0,0,0,,0,,,62,95
3483,note_on,0,0,0,,0,,,65,95
3483,note_on,0,0,0,,1,,,69,127
3990,note_off,507,0,0,,1,,,69,127
3991,note_on,1,0,0,,1,,,68,127
4159,note_off,168,0,0,,1,,,68,127
4159,note_off,0,0,0,,0,,,65,95
4159,note_off,0,0,0,,0,,,62,95
4159,note_off,0,0,0,,0,,,47,95
4160,note_on,1,0,0,,0,,,49,95
4160,note_on,0,0,0,,0,,,64,95
4160,note_on,0,0,0,,0,,,69,95
4160,note_on,0,0,0,,1,,,68,127
4498,note_off,338,0,0,,1,,,68,127
4499,note_on,1,0,0,,1,,,69,127
4837,note_off,338,0,0,,0,,,64,95
4837,note_off,0,0,0,,0,,,49,95
4838,note_on,1,0,0,,0,,,45,95
4838,note_on,0,0,0,,0,,,61,95
5006,note_off,168,0,0,,1,,,69,127
5007,note_on,1,0,0,,1,,,71,127
5175,note_off,168,0,0,,1,,,71,127
5176,note_on,1,0,0,,1,,,73,127
5344,note_off,168,0,0,,1,,,73,127
5345,note_on,1,0,0,,1,,,74,127
5513,note_off,168,0,0,,1,,,74,127
5513,note_off,0,0,0,,0,,,45,95
5513,note_off,0,0,0,,0,,,69,95
5514,note_on,1,0,0,,0,,,49,95
5514,note_on,0,0,0,,0,,,64,95
5514,note_on,0,0,0,,0,,,69,95
5514,note_on,0,0,0,,1,,,76,127
5682,note_off,168,0,0,,1,,,76,127
5683,note_on,1,0,0,,1,,,67,127
5851,note_off,168,0,0,,1,,,67,127
5852,note_on,1,0,0,,1,,,65,127
6020,note_off,168,0,0,,1,,,65,127
6021,note_on,1,0,0,,1,,,64,127
6189,note_off,168,0,0,,1,,,64,127
6189,note_off,0,0,0,,0,,,69,95
6189,note_off,0,0,0,,0,,,64,95
6189,note_off,0,0,0,,0,,,49,95
6189,note_off,0,0,0,,0,,,61,95
6190,note_on,1,0,0,,0,,,50,95
6190,note_on,0,0,0,,0,,,62,95
6190,note_on,0,0,0,,0,,,65,95
6190,note_on,0,0,0,,1,,,64,127
6528,note_off,338,0,0,,1,,,64,127
6529,note_on,1,0,0,,1,,,65,127
6697,note_off,168,0,0,,0,,,65,95
6698,note_on,1,0,0,,0,,,67,95
6866,note_off,168,0,0,,0,,,67,95
6866,note_off,0,0,0,,0,,,50,95
6867,note_on,1,0,0,,0,,,38,95
6867,note_on,0,0,0,,0,,,65,95
6867,note_on,0,0,0,,0,,,69,95
7035,note_off,168,0,0,,1,,,65,127
7036,note_on,1,0,0,,1,,,62,127
7204,note_off,168,0,0,,1,,,62,127
7205,note_on,1,0,0,,1,,,61,127
7373,note_off,168,0,0,,1,,,61,127
7374,note_on,1,0,0,,1,,,62,127
7542,note_off,168,0,0,,1,,,62,127
7542,note_off,0,0,0,,0,,,69,95
7542,note_off,0,0,0,,0,,,65,95
7542,note_off,0,0,0,,0,,,38,95
7542,note_off,0,0,0,,0,,,62,95
7543,note_on,1,0,0,,1,,,64,127
7711,note_off,168,0,0,,1,,,64,127
7712,note_on,1,0,0,,1,,,65,127
7880,note_off,168,0,0,,1,,,65,127
7881,note_on,1,0,0,,1,,,67,127
8049,note_off,168,0,0,,1,,,67,127
8050,note_on,1,0,0,,1,,,69,127
8218,note_off,168,0,0,,1,,,69,127
8219,note_on,1,0,0,,0,,,55,95
8219,note_on,0,0,0,,0,,,62,95
8219,note_on,0,0,0,,0,,,70,95
8219,note_on,0,0,0,,1,,,69,127
8557,note_off,338,0,0,,1,,,69,127
8558,note_on,1,0,0,,1,,,70,127
8726,note_off,168,0,0,,0,,,70,95
8727,note_on,1,0,0,,0,,,72,95
8727,note_on,0,0,0,,0,,,69,95
8895,note_off,168,0,0,,0,,,69,95
8895,note_off,0,0,0,,0,,,72,95
8895,note_off,0,0,0,,0,,,55,95
8896,note_on,1,0,0,,0,,,43,95
8896,note_on,0,0,0,,0,,,70,95
8896,note_on,0,0,0,,0,,,74,95
9064,note_off,168,0,0,,1,,,70,127
9065,note_on,1,0,0,,1,,,67,127
9233,note_off,168,0,0,,1,,,67,127
9234,note_on,1,0,0,,1,,,66,127
9402,note_off,168,0,0,,1,,,66,127
9403,note_on,1,0,0,,1,,,67,127
9571,note_off,168,0,0,,1,,,67,127
9571,note_off,0,0,0,,0,,,74,95
9571,note_off,0,0,0,,0,,,70,95
9571,note_off,0,0,0,,0,,,43,95
9571,note_off,0,0,0,,0,,,62,95
9572,note_on,1,0,0,,1,,,69,127
9740,note_off,168,0,0,,1,,,69,127
9741,note_on,1,0,0,,1,,,70,127
9909,note_off,168,0,0,,1,,,70,127
9910,note_on,1,0,0,,1,,,72,127
10078,note_off,168,0,0,,1,,,72,127
10079,note_on,1,0,0,,1,,,74,127
10247,note_off,168,0,0,,1,,,74,127
10248,note_on,1,0,0,,0,,,60,95
10248,note_on,0,0,0,,0,,,64,95
10248,note_on,0,0,0,,0,,,67,95
10248,note_on,0,0,0,,1,,,74,127
10586,note_off,338,0,0,,1,,,74,127
10587,note_on,1,0,0,,1,,,76,127
10755,note_off,168,0,0,,0,,,67,95
10755,note_off,0,0,0,,0,,,64,95
10756,note_on,1,0,0,,0,,,62,95
10756,note_on,0,0,0,,0,,,65,95
10924,note_off,168,0,0,,0,,,65,95
10924,note_off,0,0,0,,0,,,62,95
10924,note_off,0,0,0,,0,,,60,95
10925,note_on,1,0,0,,0,,,48,95
10925,note_on,0,0,0,,0,,,60,95
10925,note_on,0,0,0,,0,,,64,95
11093,note_off,168,0,0,,1,,,76,127
11094,note_on,1,0,0,,1,,,72,127
11262,note_off,168,0,0,,1,,,72,127
11263,note_on,1,0,0,,1,,,71,127
11431,note_off,168,0,0,,1,,,71,127
11432,note_on,1,0,0,,1,,,72,127
11600,note_off,168,0,0,,1,,,72,127
11600,note_off,0,0,0,,0,,,64,95
11600,note_off,0,0,0,,0,,,60,95
11600,note_off,0,0,0,,0,,,48,95
11601,note_on,1,0,0,,1,,,74,127
11769,note_off,168,0,0,,1,,,74,127
11770,note_on,1,0,0,,1,,,76,127
11938,note_off,168,0,0,,1,,,76,127
11939,note_on,1,0,0,,1,,,77,127
12107,note_off,168,0,0,,1,,,77,127
12108,note_on,1,0,0,,1,,,79,127
12276,note_off,168,0,0,,1,,,79,127
12277,note_on,1,0,0,,0,,,53,95
12277,note_on,0,0,0,,0,,,65,95
12277,note_on,0,0,0,,0,,,69,95
12277,note_on,0,0,0,,0,,,72,95
12277,note_on,0,0,0,,1,,,79,127
12615,note_off,338,0,0,,1,,,79,127
12616,note_on,1,0,0,,1,,,81,127
12784,note_off,168,0,0,,0,,,72,95
12784,note_off,0,0,0,,0,,,69,95
12785,note_on,1,0,0,,0,,,67,95
12785,note_on,0,0,0,,0,,,70,95
12953,note_off,168,0,0,,0,,,70,95
12953,note_off,0,0,0,,0,,,67,95
12953,note_off,0,0,0,,0,,,53,95
12954,note_on,1,0,0,,0,,,41,95
12954,note_on,0,0,0,,0,,,69,95
12954,note_on,0,0,0,,0,,,72,95
13122,note_off,168,0,0,,1,,,81,127
13123,note_on,1,0,0,,1,,,77,127
13291,note_off,168,0,0,,1,,,77,127
13292,note_on,1,0,0,,1,,,76,127
13460,note_off,168,0,0,,1,,,76,127
13461,note_on,1,0,0,,1,,,77,127
13629,note_off,168,0,0,,1,,,77,127
13629,note_off,0,0,0,,0,,,72,95
13629,note_off,0,0,0,,0,,,69,95
13629,note_off,0,0,0,,0,,,41,95
13629,note_off,0,0,0,,0,,,65,95
13630,note_on,1,0,0,,1,,,84,127
13798,note_off,168,0,0,,1,,,84,127
13799,note_on,1,0,0,,1,,,75,127
13967,note_off,168,0,0,,1,,,75,127
13968,note_on,1,0,0,,1,,,74,127
14136,note_off,168,0,0,,1,,,74,127
14137,note_on,1,0,0,,1,,,73,127
14305,note_off,168,0,0,,1,,,73,127
14306,note_on,1,0,0,,0,,,58,95
14306,note_on,0,0,0,,0,,,62,95
14306,note_on,0,0,0,,0,,,65,95
14306,note_on,0,0,0,,0,,,70,95
14306,note_on,0,0,0,,1,,,73,127
14644,note_off,338,0,0,,1,,,73,127
14645,note_on,1,0,0,,1,,,74,127
14983,note_off,338,0,0,,0,,,70,95
14983,note_off,0,0,0,,0,,,65,95
14983,note_off,0,0,0,,0,,,58,95
14984,note_on,1,0,0,,0,,,55,95
14984,note_on,0,0,0,,0,,,67,95
14984,note_on,0,0,0,,0,,,70,95
15152,note_off,168,0,0,,1,,,74,127
15153,note_on,1,0,0,,1,,,77,127
15321,note_off,168,0,0,,1,,,77,127
15322,note_on,1,0,0,,1,,,76,127
15490,note_off,168,0,0,,1,,,76,127
15491,note_on,1,0,0,,1,,,74,127
15659,note_off,168,0,0,,1,,,74,127
15659,note_off,0,0,0,,0,,,67,95
15659,note_off,0,0,0,,0,,,55,95
15659,note_off,0,0,0,,0,,,62,95
15660,note_on,1,0,0,,0,,,52,95
15660,note_on,0,0,0,,0,,,64,95
15660,note_on,0,0,0,,0,,,67,95
15660,note_on,0,0,0,,1,,,76,127
15828,note_off,168,0,0,,1,,,76,127
15829,note_on,1,0,0,,1,,,77,127
15997,note_off,168,0,0,,1,,,77,127
15998,note_on,1,0,0,,1,,,79,127
16166,note_off,168,0,0,,1,,,79,127
16167,note_on,1,0,0,,1,,,81,127
16335,note_off,168,0,0,,1,,,81,127
16335,note_off,0,0,0,,0,,,52,95
16335,note_off,0,0,0,,0,,,70,95
16336,note_on,1,0,0,,0,,,57,95
16336,note_on,0,0,0,,1,,,74,127
16674,note_off,338,0,0,,1,,,74,127
16675,note_on,1,0,0,,1,,,72,127
17013,note_off,338,0,0,,0,,,57,95
17013,note_off,0,0,0,,0,,,67,95
17013,note_off,0,0,0,,0,,,64,95
17014,note_on,1,0,0,,0,,,53,95
17014,note_on,0,0,0,,0,,,65,95
17014,note_on,0,0,0,,0,,,69,95
17014,note_on,0,0,0,,0,,,72,95
17182,note_off,168,0,0,,1,,,72,127
17183,note_on,1,0,0,,1,,,76,127
17351,note_off,168,0,0,,1,,,76,127
17352,note_on,1,0,0,,1,,,74,127
17520,note_off,168,0,0,,1,,,74,127
17521,note_on,1,0,0,,1,,,72,127
17689,note_off,168,0,0,,1,,,72,127
17689,note_off,0,0,0,,0,,,72,95
17689,note_off,0,0,0,,0,,,69,95
17689,note_off,0,0,0,,0,,,65,95
17689,note_off,0,0,0,,0,,,53,95
17690,note_on,1,0,0,,0,,,50,95
17690,note_on,0,0,0,,0,,,65,95
17690,note_on,0,0,0,,0,,,69,95
17690,note_on,0,0,0,,0,,,74,95
17690,note_on,0,0,0,,1,,,74,127
17858,note_off,168,0,0,,1,,,74,127
17859,note_on,1,0,0,,1,,,76,127
18027,note_off,168,0,0,,1,,,76,127
18028,note_on,1,0,0,,1,,,77,127
18196,note_off,168,0,0,,1,,,77,127
18197,note_on,1,0,0,,1,,,79,127
18365,note_off,168,0,0,,1,,,79,127
18365,note_off,0,0,0,,0,,,74,95
18365,note_off,0,0,0,,0,,,50,95
18366,note_on,1,0,0,,0,,,55,95
18366,note_on,0,0,0,,1,,,72,127
18704,note_off,338,0,0,,1,,,72,127
18705,note_on,1,0,0,,1,,,70,127
19043,note_off,338,0,0,,0,,,55,95
19043,note_off,0,0,0,,0,,,69,95
19043,note_off,0,0,0,,0,,,65,95
19044,note_on,1,0,0,,0,,,43,95
19044,note_on,0,0,0,,0,,,62,95
19044,note_on,0,0,0,,0,,,65,95
19044,note_on,0,0,0,,0,,,70,95
19212,note_off,168,0,0,,1,,,70,127
19213,note_on,1,0,0,,1,,,72,127
19381,note_off,168,0,0,,1,,,72,127
19382,note_on,1,0,0,,1,,,74,127
19550,note_off,168,0,0,,1,,,74,127
19551,note_on,1,0,0,,1,,,72,127
19719,note_off,168,0,0,,1,,,72,127
19719,note_off,0,0,0,,0,,,65,95
19719,note_off,0,0,0,,0,,,62,95
19719,note_off,0,0,0,,0,,,43,95
19720,note_on,1,0,0,,0,,,46,95
19720,note_on,0,0,0,,0,,,62,95
19720,note_on,0,0,0,,0,,,67,95
19720,note_on,0,0,0,,1,,,70,127
19888,note_off,168,0,0,,1,,,70,127
19889,note_on,1,0,0,,1,,,69,127
20057,note_off,168,0,0,,1,,,69,127
20058,note_on,1,0,0,,1,,,67,127
20226,note_off,168,0,0,,1,,,67,127
20227,note_on,1,0,0,,1,,,65,127
20395,note_off,168,0,0,,1,,,65,127
20395,note_off,0,0,0,,0,,,67,95
20395,note_off,0,0,0,,0,,,62,95
20395,note_off,0,0,0,,0,,,46,95
20395,note_off,0,0,0,,0,,,70,95
20396,note_on,1,0,0,,0,,,48,95
20396,note_on,0,0,0,,0,,,64,95
20396,note_on,0,0,0,,0,,,67,95
20396,note_on,0,0,0,,0,,,72,95
20396,note_on,0,0,0,,1,,,65,127
20734,note_off,338,0,0,,1,,,65,127
20735,note_on,1,0,0,,1,,,64,127
21073,note_off,338,0,0,,0,,,48,95
21074,note_on,1,0,0,,0,,,36,95
21242,note_off,168,0,0,,1,,,64,127
21243,note_on,1,0,0,,1,,,64,127
21411,note_off,168,0,0,,1,,,64,127
21412,note_on,1,0,0,,1,,,62,127
21580,note_off,168,0,0,,1,,,62,127
21581,note_on,1,0,0,,1,,,64,127
21749,note_off,168,0,0,,1,,,64,127
21749,note_off,0,0,0,,0,,,36,95
21749,note_off,0,0,0,,0,,,72,95
21749,note_off,0,0,0,,0,,,67,95
21749,note_off,0,0,0,,0,,,64,95
21750,note_on,1,0,0,,1,,,67,127
21918,note_off,168,0,0,,1,,,67,127
21919,note_on,1,0,0,,1,,,64,127
22087,note_off,168,0,0,,1,,,64,127
22088,note_on,1,0,0,,1,,,62,127
22256,note_off,168,0,0,,1,,,62,127
22257,note_on,1,0,0,,1,,,64,127
22425,note_off,168,0,0,,1,,,64,127
22426,note_on,1,0,0,,1,,,70,127
22594,note_off,168,0,0,,1,,,70,127
22595,note_on,1,0,0,,1,,,67,127
22763,note_off,168,0,0,,1,,,67,127
22764,note_on,1,0,0,,1,,,66,127
22932,note_off,168,0,0,,1,,,66,127
22933,note_on,1,0,0,,1,,,67,127
23101,note_off,168,0,0,,1,,,67,127
23102,note_on,1,0,0,,1,,,76,127
23270,note_off,168,0,0,,1,,,76,127
23271,note_on,1,0,0,,1,,,70,127
23439,note_off,168,0,0,,1,,,70,127
23440,note_on,1,0,0,,1,,,69,127
23608,note_off,168,0,0,,1,,,69,127
23609,note_on,1,0,0,,1,,,70,127
23777,note_off,168,0,0,,1,,,70,127
23778,note_on,1,0,0,,1,,,79,127
23946,note_off,168,0,0,,1,,,79,127
23947,note_on,1,0,0,,1,,,76,127
24115,note_off,168,0,0,,1,,,76,127
24116,note_on,1,0,0,,1,,,74,127
24284,note_off,168,0,0,,1,,,74,127
24285,note_on,1,0,0,,1,,,76,127
24453,note_off,168,0,0,,1,,,76,127
24454,note_on,1,0,0,,0,,,60,95
24454,note_on,0,0,0,,0,,,64,95
24454,note_on,0,0,0,,0,,,67,95
24454,note_on,0,0,0,,0,,,72,95
24454,note_on,0,0,0,,1,,,82,127
25131,note_off,677,0,0,,0,,,60,95
25132,note_on,1,0,0,,0,,,48,95
25300,note_off,168,0,0,,1,,,82,127
25301,note_on,1,0,0,,1,,,79,127
25469,note_off,168,0,0,,1,,,79,127
25470,note_on,1,0,0,,1,,,78,127
25638,note_off,168,0,0,,1,,,78,127
25639,note_on,1,0,0,,1,,,79,127
25807,note_off,168,0,0,,1,,,79,127
25807,note_off,0,0,0,,0,,,48,95
25807,note_off,0,0,0,,0,,,72,95
25807,note_off,0,0,0,,0,,,67,95
25807,note_off,0,0,0,,0,,,64,95
25808,note_on,1,0,0,,0,,,52,95
25808,note_on,0,0,0,,0,,,64,95
25808,note_on,0,0,0,,0,,,67,95
25808,note_on,0,0,0,,0,,,72,95
25808,note_on,0,0,0,,1,,,84,127
25976,note_off,168,0,0,,1,,,84,127
25977,note_on,1,0,0,,1,,,82,127
26145,note_off,168,0,0,,1,,,82,127
26146,note_on,1,0,0,,1,,,81,127
26314,note_off,168,0,0,,1,,,81,127
26315,note_on,1,0,0,,1,,,79,127
26483,note_off,168,0,0,,1,,,79,127
26483,note_off,0,0,0,,0,,,67,95
26483,note_off,0,0,0,,0,,,64,95
26483,note_off,0,0,0,,0,,,52,95
26484,note_on,1,0,0,,0,,,53,95
26484,note_on,0,0,0,,0,,,65,95
26484,note_on,0,0,0,,0,,,69,95
26484,note_on,0,0,0,,1,,,79,127
26822,note_off,338,0,0,,1,,,79,127
26823,note_on,1,0,0,,1,,,81,127
27161,note_off,338,0,0,,0,,,53,95
27161,note_off,0,0,0,,0,,,72,95
27162,note_on,1,0,0,,0,,,41,95
27330,note_off,168,0,0,,1,,,81,127
27331,note_on,1,0,0,,1,,,70,127
27499,note_off,168,0,0,,1,,,70,127
27500,note_on,1,0,0,,1,,,69,127
27668,note_off,168,0,0,,1,,,69,127
27669,note_on,1,0,0,,1,,,70,127
27837,note_off,168,0,0,,1,,,70,127
27837,note_off,0,0,0,,0,,,41,95
27837,note_off,0,0,0,,0,,,69,95
27837,note_off,0,0,0,,0,,,65,95
27838,note_on,1,0,0,,0,,,40,95
27838,note_on,0,0,0,,0,,,60,95
27838,note_on,0,0,0,,0,,,64,95
27838,note_on,0,0,0,,0,,,67,95
27838,note_on,0,0,0,,1,,,72,127
28006,note_off,168,0,0,,1,,,72,127
28007,note_on,1,0,0,,1,,,70,127
28175,note_off,168,0,0,,1,,,70,127
28176,note_on,1,0,0,,1,,,69,127
28344,note_off,168,0,0,,1,,,69,127
28345,note_on,1,0,0,,1,,,67,127
28513,note_off,168,0,0,,1,,,67,127
28513,note_off,0,0,0,,0,,,67,95
28513,note_off,0,0,0,,0,,,64,95
28513,note_off,0,0,0,,0,,,60,95
28513,note_off,0,0,0,,0,,,40,95
28514,note_on,1,0,0,,0,,,41,95
28514,note_on,0,0,0,,0,,,60,95
28514,note_on,0,0,0,,0,,,69,95
28514,note_on,0,0,0,,0,,,65,95
28514,note_on,0,0,0,,1,,,67,127
28852,note_off,338,0,0,,1,,,67,127
28853,note_on,1,0,0,,1,,,69,127
29191,note_off,338,0,0,,0,,,41,95
29192,note_on,1,0,0,,0,,,53,95
29360,note_off,168,0,0,,1,,,69,127
29361,note_on,1,0,0,,1,,,67,127
29529,note_off,168,0,0,,1,,,67,127
29530,note_on,1,0,0,,1,,,65,127
29698,note_off,168,0,0,,1,,,65,127
29699,note_on,1,0,0,,1,,,64,127
29867,note_off,168,0,0,,1,,,64,127
29867,note_off,0,0,0,,0,,,53,95
29867,note_off,0,0,0,,0,,,65,95
29867,note_off,0,0,0,,0,,,69,95
29867,note_off,0,0,0,,0,,,60,95
29868,note_on,1,0,0,,0,,,57,95
29868,note_on,0,0,0,,0,,,60,95
29868,note_on,0,0,0,,0,,,65,95
29868,note_on,0,0,0,,0,,,72,95
29868,note_on,0,0,0,,1,,,65,127
30036,note_off,168,0,0,,1,,,65,127
30037,note_on,1,0,0,,1,,,64,127
30205,note_off,168,0,0,,1,,,64,127
30206,note_on,1,0,0,,1,,,62,127
30374,note_off,168,0,0,,1,,,62,127
30375,note_on,1,0,0,,1,,,60,127
30543,note_off,168,0,0,,1,,,60,127
30543,note_off,0,0,0,,0,,,72,95
30543,note_off,0,0,0,,0,,,65,95
30543,note_off,0,0,0,,0,,,60,95
30543,note_off,0,0,0,,0,,,57,95
30544,note_on,1,0,0,,0,,,58,95
30544,note_on,0,0,0,,0,,,62,95
30544,note_on,0,0,0,,0,,,70,95
30544,note_on,0,0,0,,0,,,67,95
30544,note_on,0,0,0,,1,,,62,127
30712,note_off,168,0,0,,1,,,62,127
30713,note_on,1,0,0,,1,,,64,127
30881,note_off,168,0,0,,1,,,64,127
30882,note_on,1,0,0,,1,,,65,127
31050,note_off,168,0,0,,1,,,65,127
31051,note_on,1,0,0,,1,,,67,127
31219,note_off,168,0,0,,1,,,67,127
31219,note_off,0,0,0,,0,,,67,95
31219,note_off,0,0,0,,0,,,70,95
31219,note_off,0,0,0,,0,,,62,95
31219,note_off,0,0,0,,0,,,58,95
31220,note_on,1,0,0,,0,,,60,95
31220,note_on,0,0,0,,0,,,65,95
31220,note_on,0,0,0,,0,,,69,95
31220,note_on,0,0,0,,1,,,65,127
31388,note_off,168,0,0,,1,,,65,127
31389,note_on,1,0,0,,1,,,67,127
31557,note_off,168,0,0,,1,,,67,127
31558,note_on,1,0,0,,1,,,65,127
31726,note_off,168,0,0,,1,,,65,127
31727,note_on,1,0,0,,1,,,67,127
31895,note_off,168,0,0,,1,,,67,127
31895,note_off,0,0,0,,0,,,69,95
31895,note_off,0,0,0,,0,,,65,95
31895,note_off,0,0,0,,0,,,60,95
31896,note_on,1,0,0,,0,,,48,95
31896,note_on,0,0,0,,0,,,64,95
31896,note_on,0,0,0,,0,,,67,95
31896,note_on,0,0,0,,0,,,60,95
31896,note_on,0,0,0,,1,,,69,127
32008,note_off,112,0,0,,1,,,69,127
32009,note_on,1,0,0,,15,,,67,127
32121,note_off,112,0,0,,15,,,67,127
32122,note_on,1,0,0,,15,,,69,127
32234,note_off,112,0,0,,15,,,69,127
32235,note_on,1,0,0,,15,,,67,127
32347,note_off,112,0,0,,15,,,67,127
32348,note_on,1,0,0,,1,,,65,127
32460,note_off,112,0,0,,1,,,65,127
32461,note_on,1,0,0,,1,,,67,127
32571,note_off,110,0,0,,1,,,67,127
32573,note_off,2,0,0,,0,,,60,95
32573,note_off,0,0,0,,0,,,67,95
32573,note_off,0,0,0,,0,,,64,95
32573,note_off,0,0,0,,0,,,48,95
32574,note_on,1,0,0,,0,,,53,95
32574,note_on,0,0,0,,0,,,60,95
32574,note_on,0,0,0,,0,,,65,95
32574,note_on,0,0,0,,0,,,57,95
32574,note_on,0,0,0,,1,,,67,127
33251,note_off,677,0,0,,1,,,67,127
33252,note_on,1,0,0,,1,,,65,127
33929,note_off,677,0,0,,0,,,57,95
33929,note_off,0,0,0,,0,,,65,95
33929,note_off,0,0,0,,0,,,60,95
33929,note_off,0,0,0,,0,,,53,95
34268,note_off,339,0,0,,1,,,65,127
34608,note_on,340,0,0,,0,,,53,95
34608,note_on,0,0,0,,0,,,65,95
34608,note_on,0,0,0,,0,,,69,95
34608,note_on,0,0,0,,1,,,84,127
35285,note_off,677,0,0,,0,,,53,95
35286,note_on,1,0,0,,0,,,57,95
35624,note_off,338,0,0,,1,,,84,127
35794,note_on,170,0,0,,1,,,77,127
35962,note_off,168,0,0,,1,,,77,127
35962,note_off,0,0,0,,0,,,57,95
35962,note_off,0,0,0,,0,,,69,95
35962,note_off,0,0,0,,0,,,65,95
35963,note_on,1,0,0,,0,,,58,95
35963,note_on,0,0,0,,0,,,67,95
35963,note_on,0,0,0,,0,,,62,95
35963,note_on,0,0,0,,1,,,79,127
36470,note_off,507,0,0,,1,,,79,127
36471,note_on,1,0,0,,1,,,81,127
36639,note_off,168,0,0,,1,,,81,127
36639,note_off,0,0,0,,0,,,62,95
36639,note_off,0,0,0,,0,,,67,95
36639,note_off,0,0,0,,0,,,58,95
36640,note_on,1,0,0,,1,,,70,127
37318,note_on,678,0,0,,0,,,48,95
37318,note_on,0,0,0,,0,,,64,95
37318,note_on,0,0,0,,0,,,67,95
37825,note_off,507,0,0,,1,,,70,127
37826,note_on,1,0,0,,1,,,74,127
37994,note_off,168,0,0,,1,,,74,127
37994,note_off,0,0,0,,0,,,67,95
37994,note_off,0,0,0,,0,,,64,95
37994,note_off,0,0,0,,0,,,48,95
37995,note_on,1,0,0,,0,,,50,95
37995,note_on,0,0,0,,0,,,62,95
37995,note_on,0,0,0,,0,,,65,95
37995,note_on,0,0,0,,1,,,72,127
38502,note_off,507,0,0,,1,,,72,127
38503,note_on,1,0,0,,1,,,71,127
38671,note_off,168,0,0,,1,,,71,127
38671,note_off,0,0,0,,0,,,65,95
38671,note_off,0,0,0,,0,,,62,95
38671,note_off,0,0,0,,0,,,50,95
38672,note_on,1,0,0,,0,,,51,95
38672,note_on,0,0,0,,0,,,60,95
38672,note_on,0,0,0,,0,,,67,95
38672,note_on,0,0,0,,1,,,71,127
39010,note_off,338,0,0,,1,,,71,127
39011,note_on,1,0,0,,1,,,72,127
39349,note_off,338,0,0,,1,,,72,127
39349,note_off,0,0,0,,0,,,51,95
39350,note_on,1,0,0,,0,,,48,95
39350,note_on,0,0,0,,0,,,63,95
39858,note_on,508,0,0,,1,,,72,127
40026,note_off,168,0,0,,1,,,72,127
40026,note_off,0,0,0,,0,,,63,95
40026,note_off,0,0,0,,0,,,48,95
40026,note_off,0,0,0,,0,,,67,95
40026,note_off,0,0,0,,0,,,60,95
40027,note_on,1,0,0,,1,,,74,127
40534,note_off,507,0,0,,1,,,74,127
40535,note_on,1,0,0,,1,,,75,127
40703,note_off,168,0,0,,1,,,75,127
40704,note_on,1,0,0,,1,,,67,127
41042,note_off,338,0,0,,1,,,67,127
41043,note_on,1,0,0,,1,,,66,127
41382,note_on,339,0,0,,0,,,50,95
41382,note_on,0,0,0,,0,,,62,95
41382,note_on,0,0,0,,0,,,69,95
41720,note_off,338,0,0,,1,,,66,127
41890,note_on,170,0,0,,1,,,66,127
42058,note_off,168,0,0,,1,,,66,127
42058,note_off,0,0,0,,0,,,62,95
42058,note_off,0,0,0,,0,,,50,95
42059,note_on,1,0,0,,0,,,52,95
42059,note_on,0,0,0,,0,,,60,95
42059,note_on,0,0,0,,1,,,67,127
42566,note_off,507,0,0,,1,,,67,127
42567,note_on,1,0,0,,1,,,69,127
42735,note_off,168,0,0,,1,,,69,127
42735,note_off,0,0,0,,0,,,52,95
42735,note_off,0,0,0,,0,,,69,95
42736,note_on,1,0,0,,0,,,53,95
42736,note_on,0,0,0,,0,,,69,95
42736,note_on,0,0,0,,1,,,63,127
43074,note_off,338,0,0,,1,,,63,127
43075,note_on,1,0,0,,1,,,62,127
43413,note_off,338,0,0,,0,,,53,95
43413,note_off,0,0,0,,0,,,60,95
43414,note_on,1,0,0,,0,,,50,95
43414,note_on,0,0,0,,0,,,66,95
43582,note_off,168,0,0,,1,,,62,127
43583,note_on,1,0,0,,1,,,64,127
43751,note_off,168,0,0,,1,,,64,127
43752,note_on,1,0,0,,1,,,66,127
43920,note_off,168,0,0,,1,,,66,127
43921,note_on,1,0,0,,1,,,67,127
44089,note_off,168,0,0,,1,,,67,127
44089,note_off,0,0,0,,0,,,66,95
44089,note_off,0,0,0,,0,,,50,95
44089,note_off,0,0,0,,0,,,69,95
44090,note_on,1,0,0,,0,,,54,95
44090,note_on,0,0,0,,0,,,62,95
44090,note_on,0,0,0,,0,,,69,95
44090,note_on,0,0,0,,1,,,69,127
44258,note_off,168,0,0,,1,,,69,127
44259,note_on,1,0,0,,1,,,70,127
44427,note_off,168,0,0,,1,,,70,127
44428,note_on,1,0,0,,1,,,72,127
44596,note_off,168,0,0,,1,,,72,127
44597,note_on,1,0,0,,1,,,74,127
44765,note_off,168,0,0,,1,,,74,127
44765,note_off,0,0,0,,0,,,69,95
44765,note_off,0,0,0,,0,,,62,95
44765,note_off,0,0,0,,0,,,54,95
44766,note_on,1,0,0,,0,,,55,95
44766,note_on,0,0,0,,0,,,62,95
44766,note_on,0,0,0,,0,,,70,95
44766,note_on,0,0,0,,0,,,67,95
44766,note_on,0,0,0,,1,,,72,127
45104,note_off,338,0,0,,1,,,72,127
45105,note_on,1,0,0,,1,,,70,127
45443,note_off,338,0,0,,0,,,67,95
45443,note_off,0,0,0,,0,,,70,95
45443,note_off,0,0,0,,0,,,62,95
45443,note_off,0,0,0,,0,,,55,95
45444,note_on,1,0,0,,0,,,43,95
45951,note_off,507,0,0,,1,,,70,127
45952,note_on,1,0,0,,1,,,69,127
46120,note_off,168,0,0,,1,,,69,127
46120,note_off,0,0,0,,0,,,43,95
46121,note_on,1,0,0,,0,,,45,95
46121,note_on,0,0,0,,0,,,60,95
46121,note_on,0,0,0,,0,,,67,95
46121,note_on,0,0,0,,1,,,67,127
46628,note_off,507,0,0,,1,,,67,127
46629,note_on,1,0,0,,1,,,66,127
46797,note_off,168,0,0,,1,,,66,127
46797,note_off,0,0,0,,0,,,67,95
46797,note_off,0,0,0,,0,,,60,95
46797,note_off,0,0,0,,0,,,45,95
46798,note_on,1,0,0,,0,,,46,95
46798,note_on,0,0,0,,0,,,62,95
46798,note_on,0,0,0,,0,,,67,95
46798,note_on,0,0,0,,1,,,66,127
47136,note_off,338,0,0,,1,,,66,127
47137,note_on,1,0,0,,1,,,67,127
47475,note_off,338,0,0,,0,,,67,95
47475,note_off,0,0,0,,0,,,62,95
47475,note_off,0,0,0,,0,,,46,95
47476,note_on,1,0,0,,0,,,43,95
47644,note_off,168,0,0,,1,,,67,127
47645,note_on,1,0,0,,1,,,69,127
47813,note_off,168,0,0,,1,,,69,127
47814,note_on,1,0,0,,1,,,71,127
47982,note_off,168,0,0,,1,,,71,127
47983,note_on,1,0,0,,1,,,72,127
48151,note_off,168,0,0,,1,,,72,127
48151,note_off,0,0,0,,0,,,43,95
48152,note_on,1,0,0,,0,,,47,95
48152,note_on,0,0,0,,0,,,62,95
48152,note_on,0,0,0,,0,,,67,95
48152,note_on,0,0,0,,1,,,74,127
48320,note_off,168,0,0,,1,,,74,127
48321,note_on,1,0,0,,1,,,75,127
48489,note_off,168,0,0,,1,,,75,127
48490,note_on,1,0,0,,1,,,77,127
48658,note_off,168,0,0,,1,,,77,127
48659,note_on,1,0,0,,1,,,79,127
48827,note_off,168,0,0,,1,,,79,127
48827,note_off,0,0,0,,0,,,67,95
48827,note_off,0,0,0,,0,,,62,95
48827,note_off,0,0,0,,0,,,47,95
48828,note_on,1,0,0,,1,,,77,127
49166,note_off,338,0,0,,1,,,77,127
49167,note_on,1,0,0,,1,,,75,127
49506,note_on,339,0,0,,0,,,48,95
49506,note_on,0,0,0,,0,,,63,95
49506,note_on,0,0,0,,0,,,67,95
49506,note_on,0,0,0,,0,,,72,95
50013,note_off,507,0,0,,1,,,75,127
50014,note_on,1,0,0,,1,,,74,127
50182,note_off,168,0,0,,1,,,74,127
50182,note_off,0,0,0,,0,,,67,95
50182,note_off,0,0,0,,0,,,63,95
50182,note_off,0,0,0,,0,,,48,95
50183,note_on,1,0,0,,0,,,50,95
50183,note_on,0,0,0,,0,,,65,95
50183,note_on,0,0,0,,1,,,72,127
50690,note_off,507,0,0,,1,,,72,127
50691,note_on,1,0,0,,1,,,71,127
50859,note_off,168,0,0,,1,,,71,127
50859,note_off,0,0,0,,0,,,65,95
50859,note_off,0,0,0,,0,,,50,95
50859,note_off,0,0,0,,0,,,72,95
50860,note_on,1,0,0,,0,,,51,95
50860,note_on,0,0,0,,0,,,60,95
50860,note_on,0,0,0,,0,,,67,95
50860,note_on,0,0,0,,1,,,71,127
51198,note_off,338,0,0,,1,,,71,127
51199,note_on,1,0,0,,1,,,72,127
51537,note_off,338,0,0,,0,,,67,95
51537,note_off,0,0,0,,0,,,60,95
51537,note_off,0,0,0,,0,,,51,95
51538,note_on,1,0,0,,0,,,48,95
51706,note_off,168,0,0,,1,,,72,127
51707,note_on,1,0,0,,1,,,74,127
51875,note_off,168,0,0,,1,,,74,127
51876,note_on,1,0,0,,1,,,76,127
52044,note_off,168,0,0,,1,,,76,127
52045,note_on,1,0,0,,1,,,77,127
52213,note_off,168,0,0,,1,,,77,127
52213,note_off,0,0,0,,0,,,48,95
52214,note_on,1,0,0,,0,,,52,95
52214,note_on,0,0,0,,0,,,60,95
52214,note_on,0,0,0,,0,,,67,95
52214,note_on,0,0,0,,0,,,64,95
52214,note_on,0,0,0,,1,,,79,127
52382,note_off,168,0,0,,1,,,79,127
52383,note_on,1,0,0,,1,,,81,127
52551,note_off,168,0,0,,1,,,81,127
52552,note_on,1,0,0,,1,,,82,127
52720,note_off,168,0,0,,1,,,82,127
52721,note_on,1,0,0,,1,,,84,127
52889,note_off,168,0,0,,1,,,84,127
52889,note_off,0,0,0,,0,,,64,95
52889,note_off,0,0,0,,0,,,67,95
52889,note_off,0,0,0,,0,,,60,95
52889,note_off,0,0,0,,0,,,52,95
52890,note_on,1,0,0,,0,,,53,95
52890,note_on,0,0,0,,0,,,60,95
52890,note_on,0,0,0,,0,,,69,95
52890,note_on,0,0,0,,1,,,82,127
53228,note_off,338,0,0,,1,,,82,127
53229,note_on,1,0,0,,1,,,81,127
53567,note_off,338,0,0,,0,,,69,95
53567,note_off,0,0,0,,0,,,60,95
53567,note_off,0,0,0,,0,,,53,95
53568,note_on,1,0,0,,0,,,41,95
54075,note_off,507,0,0,,1,,,81,127
54076,note_on,1,0,0,,1,,,79,127
54244,note_off,168,0,0,,1,,,79,127
54244,note_off,0,0,0,,0,,,41,95
54245,note_on,1,0,0,,0,,,43,95
54245,note_on,0,0,0,,0,,,60,95
54245,note_on,0,0,0,,0,,,70,95
54245,note_on,0,0,0,,1,,,77,127
54752,note_off,507,0,0,,1,,,77,127
54753,note_on,1,0,0,,1,,,76,127
54921,note_off,168,0,0,,1,,,76,127
54921,note_off,0,0,0,,0,,,70,95
54921,note_off,0,0,0,,0,,,60,95
54921,note_off,0,0,0,,0,,,43,95
54922,note_on,1,0,0,,0,,,45,95
54922,note_on,0,0,0,,0,,,60,95
54922,note_on,0,0,0,,0,,,65,95
54922,note_on,0,0,0,,0,,,72,95
54922,note_on,0,0,0,,1,,,76,127
55260,note_off,338,0,0,,1,,,76,127
55261,note_on,1,0,0,,1,,,77,127
55599,note_off,338,0,0,,0,,,72,95
55599,note_off,0,0,0,,0,,,45,95
55600,note_on,1,0,0,,0,,,41,95
55600,note_on,0,0,0,,0,,,69,95
55768,note_off,168,0,0,,1,,,77,127
55769,note_on,1,0,0,,1,,,79,127
55937,note_off,168,0,0,,1,,,79,127
55938,note_on,1,0,0,,1,,,81,127
56106,note_off,168,0,0,,1,,,81,127
56107,note_on,1,0,0,,1,,,79,127
56275,note_off,168,0,0,,1,,,79,127
56275,note_off,0,0,0,,0,,,69,95
56275,note_off,0,0,0,,0,,,41,95
56275,note_off,0,0,0,,0,,,65,95
56275,note_off,0,0,0,,0,,,60,95
56276,note_on,1,0,0,,0,,,45,95
56276,note_on,0,0,0,,0,,,72,95
56276,note_on,0,0,0,,0,,,65,95
56276,note_on,0,0,0,,0,,,60,95
56276,note_on,0,0,0,,1,,,77,127
56444,note_off,168,0,0,,1,,,77,127
56445,note_on,1,0,0,,1,,,76,127
56613,note_off,168,0,0,,1,,,76,127
56614,note_on,1,0,0,,1,,,74,127
56782,note_off,168,0,0,,1,,,74,127
56783,note_on,1,0,0,,1,,,73,127
56951,note_off,168,0,0,,1,,,73,127
56951,note_off,0,0,0,,0,,,60,95
56951,note_off,0,0,0,,0,,,65,95
56951,note_off,0,0,0,,0,,,72,95
56951,note_off,0,0,0,,0,,,45,95
56952,note_on,1,0,0,,0,,,47,95
56952,note_on,0,0,0,,0,,,62,95
56952,note_on,0,0,0,,0,,,65,95
56952,note_on,0,0,0,,0,,,71,95
56952,note_on,0,0,0,,1,,,73,127
57290,note_off,338,0,0,,1,,,73,127
57291,note_on,1,0,0,,1,,,74,127
57629,note_off,338,0,0,,0,,,62,95
57629,note_off,0,0,0,,0,,,47,95
57630,note_on,1,0,0,,0,,,50,95
57630,note_on,0,0,0,,0,,,62,95
57798,note_off,168,0,0,,1,,,74,127
57799,note_on,1,0,0,,1,,,76,127
57967,note_off,168,0,0,,1,,,76,127
57968,note_on,1,0,0,,1,,,77,127
58136,note_off,168,0,0,,1,,,77,127
58137,note_on,1,0,0,,1,,,76,127
58305,note_off,168,0,0,,1,,,76,127
58305,note_off,0,0,0,,0,,,62,95
58305,note_off,0,0,0,,0,,,50,95
58305,note_off,0,0,0,,0,,,71,95
58305,note_off,0,0,0,,0,,,65,95
58306,note_on,1,0,0,,0,,,53,95
58306,note_on,0,0,0,,0,,,62,95
58306,note_on,0,0,0,,0,,,69,95
58306,note_on,0,0,0,,0,,,71,95
58306,note_on,0,0,0,,1,,,74,127
58474,note_off,168,0,0,,1,,,74,127
58475,note_on,1,0,0,,1,,,72,127
58643,note_off,168,0,0,,1,,,72,127
58644,note_on,1,0,0,,1,,,71,127
58812,note_off,168,0,0,,1,,,71,127
58813,note_on,1,0,0,,1,,,69,127
58981,note_off,168,0,0,,1,,,69,127
58981,note_off,0,0,0,,0,,,71,95
58981,note_off,0,0,0,,0,,,69,95
58981,note_off,0,0,0,,0,,,62,95
58981,note_off,0,0,0,,0,,,53,95
58982,note_on,1,0,0,,0,,,52,95
58982,note_on,0,0,0,,0,,,64,95
58982,note_on,0,0,0,,0,,,68,95
58982,note_on,0,0,0,,0,,,71,95
58982,note_on,0,0,0,,1,,,69,127
59320,note_off,338,0,0,,1,,,69,127
59321,note_on,1,0,0,,1,,,68,127
59659,note_off,338,0,0,,0,,,52,95
59660,note_on,1,0,0,,0,,,40,95
59828,note_off,168,0,0,,1,,,68,127
59829,note_on,1,0,0,,1,,,69,127
59997,note_off,168,0,0,,1,,,69,127
59998,note_on,1,0,0,,1,,,71,127
60166,note_off,168,0,0,,1,,,71,127
60167,note_on,1,0,0,,1,,,69,127
60335,note_off,168,0,0,,1,,,69,127
60335,note_off,0,0,0,,0,,,40,95
60335,note_off,0,0,0,,0,,,71,95
60335,note_off,0,0,0,,0,,,68,95
60335,note_off,0,0,0,,0,,,64,95
60336,note_on,1,0,0,,0,,,44,95
60336,note_on,0,0,0,,0,,,64,95
60336,note_on,0,0,0,,0,,,71,95
60336,note_on,0,0,0,,1,,,68,127
60504,note_off,168,0,0,,1,,,68,127
60505,note_on,1,0,0,,1,,,65,127
60673,note_off,168,0,0,,1,,,65,127
60674,note_on,1,0,0,,1,,,64,127
60842,note_off,168,0,0,,1,,,64,127
60843,note_on,1,0,0,,1,,,62,127
61011,note_off,168,0,0,,1,,,62,127
61011,note_off,0,0,0,,0,,,71,95
61011,note_off,0,0,0,,0,,,64,95
61011,note_off,0,0,0,,0,,,44,95
61012,note_on,1,0,0,,0,,,45,95
61012,note_on,0,0,0,,0,,,64,95
61012,note_on,0,0,0,,0,,,69,95
61012,note_on,0,0,0,,0,,,72,95
61012,note_on,0,0,0,,1,,,62,127
61519,note_off,507,0,0,,1,,,62,127
61520,note_on,1,0,0,,1,,,60,127
61688,note_off,168,0,0,,0,,,45,95
61689,note_on,1,0,0,,0,,,57,95
62027,note_off,338,0,0,,1,,,60,127
62028,note_on,1,0,0,,1,,,59,127
62196,note_off,168,0,0,,1,,,59,127
62197,note_on,1,0,0,,1,,,57,127
62365,note_off,168,0,0,,1,,,57,127
62365,note_off,0,0,0,,0,,,57,95
62365,note_off,0,0,0,,0,,,72,95
62365,note_off,0,0,0,,0,,,69,95
62365,note_off,0,0,0,,0,,,64,95
62366,note_on,1,0,0,,0,,,48,95
62366,note_on,0,0,0,,0,,,60,95
62366,note_on,0,0,0,,0,,,64,95
62366,note_on,0,0,0,,0,,,69,95
62366,note_on,0,0,0,,1,,,69,127
63043,note_off,677,0,0,,0,,,69,95
63043,note_off,0,0,0,,0,,,64,95
63043,note_off,0,0,0,,0,,,60,95
63043,note_off,0,0,0,,0,,,48,95
63044,note_on,1,0,0,,0,,,50,95
63044,note_on,0,0,0,,0,,,62,95
63044,note_on,0,0,0,,0,,,65,95
63044,note_on,0,0,0,,0,,,69,95
63212,note_off,168,0,0,,1,,,69,127
63213,note_on,1,0,0,,1,,,71,127
63381,note_off,168,0,0,,1,,,71,127
63382,note_on,1,0,0,,1,,,69,127
63550,note_off,168,0,0,,1,,,69,127
63551,note_on,1,0,0,,1,,,68,127
63719,note_off,168,0,0,,1,,,68,127
63719,note_off,0,0,0,,0,,,65,95
63719,note_off,0,0,0,,0,,,62,95
63719,note_off,0,0,0,,0,,,50,95
63720,note_on,1,0,0,,0,,,52,95
63720,note_on,0,0,0,,0,,,59,95
63720,note_on,0,0,0,,0,,,64,95
63720,note_on,0,0,0,,1,,,69,127
63888,note_off,168,0,0,,1,,,69,127
63889,note_on,1,0,0,,1,,,71,127
64057,note_off,168,0,0,,1,,,71,127
64058,note_on,1,0,0,,1,,,69,127
64226,note_off,168,0,0,,1,,,69,127
64227,note_on,1,0,0,,1,,,71,127
64395,note_off,168,0,0,,1,,,71,127
64395,note_off,0,0,0,,0,,,59,95
64395,note_off,0,0,0,,0,,,52,95
64395,note_off,0,0,0,,0,,,69,95
64396,note_on,1,0,0,,0,,,40,95
64396,note_on,0,0,0,,0,,,68,95
64396,note_on,0,0,0,,0,,,59,95
64396,note_on,0,0,0,,0,,,62,95
64396,note_on,0,0,0,,1,,,72,127
64508,note_off,112,0,0,,1,,,72,127
64509,note_on,1,0,0,,15,,,71,127
64621,note_off,112,0,0,,15,,,71,127
64621,note_on,0,0,0,,15,,,72,127
64733,note_off,112,0,0,,15,,,72,127
64735,note_on,2,0,0,,15,,,71,127
64847,note_off,112,0,0,,15,,,71,127
64848,note_on,1,0,0,,1,,,69,127
64960,note_off,112,0,0,,1,,,69,127
64961,note_on,1,0,0,,1,,,71,127
65071,note_off,110,0,0,,1,,,71,127
65073,note_off,2,0,0,,0,,,62,95
65073,note_off,0,0,0,,0,,,59,95
65073,note_off,0,0,0,,0,,,68,95
65073,note_off,0,0,0,,0,,,40,95
65073,note_off,0,0,0,,0,,,64,95
65074,note_on,1,0,0,,0,,,45,95
65074,note_on,0,0,0,,0,,,60,95
65074,note_on,0,0,0,,0,,,64,95
65074,note_on,0,0,0,,0,,,69,95
65074,note_on,0,0,0,,1,,,71,127
65412,note_off,338,0,0,,1,,,71,127
65412,note_off,0,0,0,,0,,,69,95
65412,note_off,0,0,0,,0,,,64,95
65412,note_off,0,0,0,,0,,,60,95
65413,note_on,1,0,0,,1,,,69,127
65751,note_off,338,0,0,,1,,,69,127
65751,note_off,0,0,0,,0,,,45,95
65752,note_on,1,0,0,,0,,,57,95
65752,note_on,0,0,0,,0,,,65,95
65752,note_on,0,0,0,,0,,,72,95
65921,note_on,169,0,0,,1,,,65,127
66089,note_off,168,0,0,,1,,,65,127
66089,note_off,0,0,0,,0,,,72,95
66089,note_off,0,0,0,,0,,,65,95
66090,note_on,1,0,0,,1,,,64,127
66258,note_off,168,0,0,,1,,,64,127
66259,note_on,1,0,0,,1,,,65,127
66427,note_off,168,0,0,,1,,,65,127
66427,note_off,0,0,0,,0,,,57,95
66428,note_on,1,0,0,,1,,,67,127
66596,note_off,168,0,0,,1,,,67,127
66597,note_on,1,0,0,,1,,,69,127
66765,note_off,168,0,0,,1,,,69,127
66766,note_on,1,0,0,,1,,,70,127
66934,note_off,168,0,0,,1,,,70,127
66935,note_on,1,0,0,,1,,,72,127
67103,note_off,168,0,0,,1,,,72,127
67104,note_on,1,0,0,,0,,,58,95
67104,note_on,0,0,0,,0,,,67,95
67104,note_on,0,0,0,,0,,,74,95
67104,note_on,0,0,0,,1,,,72,127
67442,note_off,338,0,0,,1,,,72,127
67443,note_on,1,0,0,,1,,,74,127
67781,note_off,338,0,0,,1,,,74,127
67781,note_off,0,0,0,,0,,,74,95
67781,note_off,0,0,0,,0,,,67,95
67781,note_off,0,0,0,,0,,,58,95
67782,note_on,1,0,0,,0,,,59,95
67782,note_on,0,0,0,,0,,,67,95
67782,note_on,0,0,0,,0,,,74,95
67951,note_on,169,0,0,,1,,,67,127
68119,note_off,168,0,0,,1,,,67,127
68120,note_on,1,0,0,,1,,,66,127
68288,note_off,168,0,0,,1,,,66,127
68289,note_on,1,0,0,,1,,,67,127
68457,note_off,168,0,0,,1,,,67,127
68457,note_off,0,0,0,,0,,,74,95
68457,note_off,0,0,0,,0,,,67,95
68457,note_off,0,0,0,,0,,,59,95
68458,note_on,1,0,0,,1,,,69,127
68626,note_off,168,0,0,,1,,,69,127
68627,note_on,1,0,0,,1,,,71,127
68795,note_off,168,0,0,,1,,,71,127
68796,note_on,1,0,0,,1,,,72,127
68964,note_off,168,0,0,,1,,,72,127
68965,note_on,1,0,0,,1,,,74,127
69133,note_off,168,0,0,,1,,,74,127
69134,note_on,1,0,0,,0,,,60,95
69134,note_on,0,0,0,,0,,,69,95
69134,note_on,0,0,0,,0,,,76,95
69134,note_on,0,0,0,,1,,,74,127
69472,note_off,338,0,0,,1,,,74,127
69473,note_on,1,0,0,,1,,,76,127
69811,note_off,338,0,0,,1,,,76,127
69811,note_off,0,0,0,,0,,,76,95
69811,note_off,0,0,0,,0,,,69,95
69811,note_off,0,0,0,,0,,,60,95
69812,note_on,1,0,0,,0,,,61,95
69812,note_on,0,0,0,,0,,,69,95
69812,note_on,0,0,0,,0,,,76,95
69981,note_on,169,0,0,,1,,,69,127
70149,note_off,168,0,0,,1,,,69,127
70150,note_on,1,0,0,,1,,,68,127
70318,note_off,168,0,0,,1,,,68,127
70319,note_on,1,0,0,,1,,,69,127
70487,note_off,168,0,0,,1,,,69,127
70487,note_off,0,0,0,,0,,,76,95
70487,note_off,0,0,0,,0,,,69,95
70487,note_off,0,0,0,,0,,,61,95
70488,note_on,1,0,0,,1,,,71,127
70656,note_off,168,0,0,,1,,,71,127
70657,note_on,1,0,0,,1,,,73,127
70825,note_off,168,0,0,,1,,,73,127
70826,note_on,1,0,0,,1,,,74,127
70994,note_off,168,0,0,,1,,,74,127
70995,note_on,1,0,0,,1,,,76,127
71163,note_off,168,0,0,,1,,,76,127
71164,note_on,1,0,0,,0,,,62,95
71164,note_on,0,0,0,,0,,,65,95
71164,note_on,0,0,0,,0,,,74,95
71164,note_on,0,0,0,,1,,,76,127
71502,note_off,338,0,0,,1,,,76,127
71503,note_on,1,0,0,,1,,,77,127
71841,note_off,338,0,0,,0,,,74,95
71841,note_off,0,0,0,,0,,,65,95
71841,note_off,0,0,0,,0,,,62,95
71842,note_on,1,0,0,,0,,,50,95
71842,note_on,0,0,0,,0,,,65,95
71842,note_on,0,0,0,,0,,,74,95
72010,note_off,168,0,0,,1,,,77,127
72011,note_on,1,0,0,,1,,,74,127
72179,note_off,168,0,0,,1,,,74,127
72180,note_on,1,0,0,,1,,,73,127
72348,note_off,168,0,0,,1,,,73,127
72349,note_on,1,0,0,,1,,,74,127
72517,note_off,168,0,0,,1,,,74,127
72517,note_off,0,0,0,,0,,,50,95
72518,note_on,1,0,0,,0,,,53,95
72518,note_on,0,0,0,,0,,,69,95
72518,note_on,0,0,0,,1,,,76,127
72686,note_off,168,0,0,,1,,,76,127
72687,note_on,1,0,0,,1,,,77,127
72855,note_off,168,0,0,,1,,,77,127
72856,note_on,1,0,0,,1,,,79,127
73024,note_off,168,0,0,,1,,,79,127
73025,note_on,1,0,0,,1,,,81,127
73193,note_off,168,0,0,,1,,,81,127
73193,note_off,0,0,0,,0,,,69,95
73193,note_off,0,0,0,,0,,,53,95
73193,note_off,0,0,0,,0,,,74,95
73193,note_off,0,0,0,,0,,,65,95
73194,note_on,1,0,0,,0,,,55,95
73194,note_on,0,0,0,,0,,,67,95
73194,note_on,0,0,0,,0,,,70,95
73194,note_on,0,0,0,,0,,,74,95
73194,note_on,0,0,0,,1,,,82,127
73362,note_off,168,0,0,,1,,,82,127
73363,note_on,1,0,0,,1,,,79,127
73531,note_off,168,0,0,,1,,,79,127
73532,note_on,1,0,0,,1,,,81,127
73700,note_off,168,0,0,,1,,,81,127
73701,note_on,1,0,0,,1,,,77,127
73869,note_off,168,0,0,,1,,,77,127
73869,note_off,0,0,0,,0,,,74,95
73869,note_off,0,0,0,,0,,,70,95
73869,note_off,0,0,0,,0,,,67,95
73869,note_off,0,0,0,,0,,,55,95
73870,note_on,1,0,0,,0,,,43,95
73870,note_on,0,0,0,,0,,,67,95
73870,note_on,0,0,0,,0,,,70,95
73870,note_on,0,0,0,,0,,,74,95
73870,note_on,0,0,0,,1,,,79,127
74038,note_off,168,0,0,,1,,,79,127
74039,note_on,1,0,0,,1,,,76,127
74207,note_off,168,0,0,,1,,,76,127
74208,note_on,1,0,0,,1,,,77,127
74376,note_off,168,0,0,,1,,,77,127
74377,note_on,1,0,0,,1,,,74,127
74545,note_off,168,0,0,,1,,,74,127
74545,note_off,0,0,0,,0,,,74,95
74545,note_off,0,0,0,,0,,,70,95
74545,note_off,0,0,0,,0,,,67,95
74545,note_off,0,0,0,,0,,,43,95
74546,note_on,1,0,0,,1,,,75,127
74714,note_off,168,0,0,,1,,,75,127
74715,note_on,1,0,0,,1,,,73,127
74883,note_off,168,0,0,,1,,,73,127
74884,note_on,1,0,0,,1,,,74,127
75052,note_off,168,0,0,,1,,,74,127
75053,note_on,1,0,0,,1,,,71,127
75221,note_off,168,0,0,,1,,,71,127
75222,note_on,1,0,0,,0,,,57,95
75222,note_on,0,0,0,,0,,,64,95
75222,note_on,0,0,0,,0,,,69,95
75222,note_on,0,0,0,,0,,,73,95
75222,note_on,0,0,0,,1,,,71,127
75560,note_off,338,0,0,,1,,,71,127
75561,note_on,1,0,0,,1,,,73,127
75899,note_off,338,0,0,,1,,,73,127
75899,note_off,0,0,0,,0,,,73,95
75899,note_off,0,0,0,,0,,,69,95
75899,note_off,0,0,0,,0,,,64,95
75899,note_off,0,0,0,,0,,,57,95
75900,note_on,1,0,0,,0,,,45,95
75900,note_on,0,0,0,,0,,,64,95
75900,note_on,0,0,0,,0,,,69,95
75900,note_on,0,0,0,,0,,,73,95
76069,note_on,169,0,0,,1,,,73,127
76237,note_off,168,0,0,,1,,,73,127
76238,note_on,1,0,0,,1,,,74,127
76406,note_off,168,0,0,,1,,,74,127
76407,note_on,1,0,0,,1,,,76,127
76575,note_off,168,0,0,,1,,,76,127
76575,note_off,0,0,0,,0,,,73,95
76575,note_off,0,0,0,,0,,,69,95
76575,note_off,0,0,0,,0,,,64,95
76575,note_off,0,0,0,,0,,,45,95
76576,note_on,1,0,0,,1,,,73,127
76744,note_off,168,0,0,,1,,,73,127
76745,note_on,1,0,0,,1,,,70,127
76913,note_off,168,0,0,,1,,,70,127
76914,note_on,1,0,0,,1,,,69,127
77082,note_off,168,0,0,,1,,,69,127
77083,note_on,1,0,0,,1,,,68,127
77251,note_off,168,0,0,,1,,,68,127
77252,note_on,1,0,0,,0,,,57,95
77252,note_on,0,0,0,,0,,,61,95
77252,note_on,0,0,0,,0,,,64,95
77252,note_on,0,0,0,,0,,,69,95
77252,note_on,0,0,0,,1,,,68,127
77590,note_off,338,0,0,,1,,,68,127
77591,note_on,1,0,0,,1,,,69,127
77929,note_off,338,0,0,,1,,,69,127
77929,note_off,0,0,0,,0,,,69,95
77929,note_off,0,0,0,,0,,,64,95
77929,note_off,0,0,0,,0,,,61,95
77929,note_off,0,0,0,,0,,,57,95
77930,note_on,1,0,0,,0,,,45,95
77930,note_on,0,0,0,,0,,,61,95
77930,note_on,0,0,0,,0,,,64,95
77930,note_on,0,0,0,,0,,,69,95
78099,note_on,169,0,0,,1,,,64,127
78267,note_off,168,0,0,,1,,,64,127
78268,note_on,1,0,0,,1,,,62,127
78436,note_off,168,0,0,,1,,,62,127
78437,note_on,1,0,0,,1,,,64,127
78605,note_off,168,0,0,,1,,,64,127
78605,note_off,0,0,0,,0,,,69,95
78605,note_off,0,0,0,,0,,,64,95
78605,note_off,0,0,0,,0,,,61,95
78605,note_off,0,0,0,,0,,,45,95
78606,note_on,1,0,0,,1,,,67,127
78774,note_off,168,0,0,,1,,,67,127
78775,note_on,1,0,0,,1,,,64,127
78943,note_off,168,0,0,,1,,,64,127
78944,note_on,1,0,0,,1,,,62,127
79112,note_off,168,0,0,,1,,,62,127
79113,note_on,1,0,0,,1,,,64,127
79281,note_off,168,0,0,,1,,,64,127
79282,note_on,1,0,0,,1,,,70,127
79450,note_off,168,0,0,,1,,,70,127
79451,note_on,1,0,0,,1,,,67,127
79619,note_off,168,0,0,,1,,,67,127
79620,note_on,1,0,0,,1,,,66,127
79788,note_off,168,0,0,,1,,,66,127
79789,note_on,1,0,0,,1,,,67,127
79957,note_off,168,0,0,,1,,,67,127
79958,note_on,1,0,0,,1,,,73,127
80126,note_off,168,0,0,,1,,,73,127
80127,note_on,1,0,0,,1,,,67,127
80295,note_off,168,0,0,,1,,,67,127
80296,note_on,1,0,0,,1,,,66,127
80464,note_off,168,0,0,,1,,,66,127
80465,note_on,1,0,0,,1,,,67,127
80633,note_off,168,0,0,,1,,,67,127
80634,note_on,1,0,0,,1,,,76,127
80802,note_off,168,0,0,,1,,,76,127
80803,note_on,1,0,0,,1,,,70,127
80971,note_off,168,0,0,,1,,,70,127
80972,note_on,1,0,0,,1,,,69,127
81140,note_off,168,0,0,,1,,,69,127
81141,note_on,1,0,0,,1,,,70,127
81309,note_off,168,0,0,,1,,,70,127
81310,note_on,1,0,0,,0,,,57,95
81310,note_on,0,0,0,,0,,,64,95
81310,note_on,0,0,0,,0,,,69,95
81310,note_on,0,0,0,,0,,,73,95
81310,note_on,0,0,0,,1,,,79,127
81987,note_off,677,0,0,,1,,,79,127
81987,note_off,0,0,0,,0,,,57,95
81988,note_on,1,0,0,,0,,,45,95
82157,note_on,169,0,0,,1,,,76,127
82325,note_off,168,0,0,,1,,,76,127
82326,note_on,1,0,0,,1,,,74,127
82494,note_off,168,0,0,,1,,,74,127
82495,note_on,1,0,0,,1,,,76,127
82663,note_off,168,0,0,,1,,,76,127
82663,note_off,0,0,0,,0,,,45,95
82663,note_off,0,0,0,,0,,,73,95
82663,note_off,0,0,0,,0,,,69,95
82663,note_off,0,0,0,,0,,,64,95
82664,note_on,1,0,0,,0,,,49,95
82664,note_on,0,0,0,,0,,,64,95
82664,note_on,0,0,0,,0,,,69,95
82664,note_on,0,0,0,,1,,,81,127
82832,note_off,168,0,0,,1,,,81,127
82833,note_on,1,0,0,,1,,,79,127
83001,note_off,168,0,0,,1,,,79,127
83002,note_on,1,0,0,,1,,,77,127
83170,note_off,168,0,0,,1,,,77,127
83171,note_on,1,0,0,,1,,,76,127
83339,note_off,168,0,0,,1,,,76,127
83339,note_off,0,0,0,,0,,,64,95
83339,note_off,0,0,0,,0,,,49,95
83340,note_on,1,0,0,,0,,,50,95
83340,note_on,0,0,0,,0,,,62,95
83340,note_on,0,0,0,,0,,,65,95
83340,note_on,0,0,0,,1,,,76,127
83678,note_off,338,0,0,,1,,,76,127
83679,note_on,1,0,0,,1,,,77,127
84017,note_off,338,0,0,,1,,,77,127
84017,note_off,0,0,0,,0,,,65,95
84017,note_off,0,0,0,,0,,,62,95
84017,note_off,0,0,0,,0,,,50,95
84017,note_off,0,0,0,,0,,,69,95
84018,note_on,1,0,0,,0,,,62,95
84018,note_on,0,0,0,,0,,,65,95
84018,note_on,0,0,0,,0,,,69,95
84018,note_on,0,0,0,,0,,,74,95
84187,note_on,169,0,0,,1,,,67,127
84355,note_off,168,0,0,,1,,,67,127
84356,note_on,1,0,0,,1,,,65,127
84524,note_off,168,0,0,,1,,,65,127
84525,note_on,1,0,0,,1,,,67,127
84693,note_off,168,0,0,,1,,,67,127
84693,note_off,0,0,0,,0,,,74,95
84693,note_off,0,0,0,,0,,,69,95
84693,note_off,0,0,0,,0,,,65,95
84693,note_off,0,0,0,,0,,,62,95
84694,note_on,1,0,0,,0,,,61,95
84694,note_on,0,0,0,,0,,,76,95
84694,note_on,0,0,0,,0,,,69,95
84694,note_on,0,0,0,,0,,,64,95
84694,note_on,0,0,0,,1,,,69,127
84862,note_off,168,0,0,,1,,,69,127
84863,note_on,1,0,0,,1,,,67,127
85031,note_off,168,0,0,,1,,,67,127
85032,note_on,1,0,0,,1,,,65,127
85200,note_off,168,0,0,,1,,,65,127
85201,note_on,1,0,0,,1,,,64,127
85369,note_off,168,0,0,,1,,,64,127
85369,note_off,0,0,0,,0,,,64,95
85369,note_off,0,0,0,,0,,,69,95
85369,note_off,0,0,0,,0,,,76,95
85369,note_off,0,0,0,,0,,,61,95
85370,note_on,1,0,0,,0,,,62,95
85370,note_on,0,0,0,,0,,,65,95
85370,note_on,0,0,0,,0,,,69,95
85370,note_on,0,0,0,,0,,,74,95
85370,note_on,0,0,0,,1,,,64,127
85708,note_off,338,0,0,,1,,,64,127
85709,note_on,1,0,0,,1,,,65,127
86047,note_off,338,0,0,,0,,,62,95
86048,note_on,1,0,0,,0,,,50,95
86216,note_off,168,0,0,,1,,,65,127
86217,note_on,1,0,0,,1,,,62,127
86385,note_off,168,0,0,,1,,,62,127
86386,note_on,1,0,0,,1,,,61,127
86554,note_off,168,0,0,,1,,,61,127
86555,note_on,1,0,0,,1,,,62,127
86723,note_off,168,0,0,,1,,,62,127
86723,note_off,0,0,0,,0,,,50,95
86723,note_off,0,0,0,,0,,,74,95
86723,note_off,0,0,0,,0,,,69,95
86723,note_off,0,0,0,,0,,,65,95
86724,note_on,1,0,0,,0,,,53,95
86724,note_on,0,0,0,,0,,,62,95
86724,note_on,0,0,0,,0,,,69,95
86724,note_on,0,0,0,,1,,,73,127
87062,note_off,338,0,0,,1,,,73,127
87063,note_on,1,0,0,,1,,,74,127
87401,note_off,338,0,0,,0,,,69,95
87401,note_off,0,0,0,,0,,,62,95
87401,note_off,0,0,0,,0,,,53,95
87402,note_on,1,0,0,,0,,,55,95
87402,note_on,0,0,0,,0,,,70,95
87402,note_on,0,0,0,,0,,,62,95
87570,note_off,168,0,0,,1,,,74,127
87571,note_on,1,0,0,,1,,,79,127
87739,note_off,168,0,0,,1,,,79,127
87740,note_on,1,0,0,,1,,,77,127
87908,note_off,168,0,0,,1,,,77,127
87909,note_on,1,0,0,,1,,,76,127
88077,note_off,168,0,0,,1,,,76,127
88077,note_off,0,0,0,,0,,,62,95
88077,note_off,0,0,0,,0,,,70,95
88077,note_off,0,0,0,,0,,,55,95
88078,note_on,1,0,0,,0,,,57,95
88078,note_on,0,0,0,,0,,,62,95
88078,note_on,0,0,0,,0,,,65,95
88078,note_on,0,0,0,,1,,,81,127
88416,note_off,338,0,0,,1,,,81,127
88417,note_on,1,0,0,,1,,,74,127
88755,note_off,338,0,0,,0,,,65,95
88755,note_off,0,0,0,,0,,,62,95
88755,note_off,0,0,0,,0,,,57,95
88756,note_on,1,0,0,,0,,,45,95
88756,note_on,0,0,0,,0,,,64,95
88756,note_on,0,0,0,,0,,,67,95
89094,note_off,338,0,0,,1,,,74,127
89095,note_on,1,0,0,,1,,,73,127
89433,note_off,338,0,0,,1,,,73,127
89433,note_off,0,0,0,,0,,,67,95
89433,note_off,0,0,0,,0,,,64,95
89433,note_off,0,0,0,,0,,,45,95
89434,note_on,1,0,0,,0,,,46,95
89434,note_on,0,0,0,,0,,,69,95
89434,note_on,0,0,0,,0,,,66,95
89434,note_on,0,0,0,,1,,,73,127
89793,note_off,359,0,0,,1,,,73,127
89793,note_off,0,0,0,,0,,,66,95
89793,note_off,0,0,0,,0,,,69,95
89794,note_on,1,0,0,,1,,,74,127
90153,note_off,359,0,0,,0,,,46,95
90154,note_on,1,0,0,,0,,,43,95
90154,note_on,0,0,0,,0,,,67,95
90154,note_on,0,0,0,,0,,,70,95
90154,note_on,0,0,0,,0,,,74,95
90525,note_off,371,0,0,,0,,,74,95
90525,note_off,0,0,0,,0,,,70,95
90525,note_off,0,0,0,,0,,,67,95
90525,note_off,0,0,0,,1,,,74,127
90526,note_on,1,0,0,,1,,,72,127
90711,note_off,185,0,0,,1,,,72,127
90712,note_on,1,0,0,,1,,,70,127
90897,note_off,185,0,0,,1,,,70,127
90897,note_off,0,0,0,,0,,,43,95
90898,note_on,1,0,0,,1,,,69,127
91083,note_off,185,0,0,,1,,,69,127
91084,note_on,1,0,0,,1,,,67,127
91269,note_off,185,0,0,,1,,,67,127
91270,note_on,1,0,0,,1,,,65,127
91455,note_off,185,0,0,,1,,,65,127
91456,note_on,1,0,0,,1,,,64,127
91641,note_off,185,0,0,,1,,,64,127
91642,note_on,1,0,0,,0,,,56,95
91642,note_on,0,0,0,,0,,,62,95
91642,note_on,0,0,0,,0,,,65,95
91642,note_on,0,0,0,,0,,,70,95
91642,note_on,0,0,0,,1,,,62,127
91830,note_off,188,0,0,,1,,,62,127
91831,note_on,1,0,0,,1,,,67,127
92019,note_off,188,0,0,,1,,,67,127
92020,note_on,1,0,0,,1,,,65,127
92208,note_off,188,0,0,,1,,,65,127
92209,note_on,1,0,0,,1,,,64,127
92397,note_off,188,0,0,,1,,,64,127
92397,note_off,0,0,0,,0,,,70,95
92397,note_off,0,0,0,,0,,,65,95
92397,note_off,0,0,0,,0,,,62,95
92397,note_off,0,0,0,,0,,,56,95
92398,note_on,1,0,0,,0,,,57,95
92398,note_on,0,0,0,,0,,,62,95
92398,note_on,0,0,0,,0,,,65,95
92398,note_on,0,0,0,,0,,,69,95
92398,note_on,0,0,0,,1,,,65,127
93152,note_off,754,0,0,,1,,,65,127
93152,note_off,0,0,0,,0,,,69,95
93152,note_off,0,0,0,,0,,,65,95
93152,note_off,0,0,0,,0,,,62,95
93152,note_off,0,0,0,,0,,,57,95
93153,note_on,1,0,0,,0,,,45,95
93153,note_on,0,0,0,,0,,,64,95
93153,note_on,0,0,0,,0,,,69,95
93153,note_on,0,0,0,,0,,,73,95
93153,note_on,0,0,0,,1,,,65,127
93435,note_off,282,0,0,,1,,,65,127
93436,note_on,1,0,0,,15,,,64,127
93718,note_off,282,0,0,,15,,,64,127
93720,note_on,2,0,0,,1,,,62,127
93813,note_off,93,0,0,,1,,,62,127
93814,note_on,1,0,0,,1,,,61,127
93907,note_off,93,0,0,,1,,,61,127
93907,note_off,0,0,0,,0,,,73,95
93907,note_off,0,0,0,,0,,,69,95
93907,note_off,0,0,0,,0,,,64,95
93907,note_off,0,0,0,,0,,,45,95
93908,note_on,1,0,0,,0,,,50,95
93908,note_on,0,0,0,,0,,,62,95
93908,note_on,0,0,0,,0,,,65,95
93908,note_on,0,0,0,,0,,,69,95
93908,note_on,0,0,0,,0,,,74,95
93908,note_on,0,0,0,,1,,,61,127
94662,note_off,754,0,0,,1,,,61,127
94663,note_on,1,0,0,,1,,,62,127
95795,note_off,1132,0,0,,1,,,62,127
95907,note_off,112,0,0,,0,,,74,95
95907,note_off,0,0,0,,0,,,69,95
95907,note_off,0,0,0,,0,,,65,95
95907,note_off,0,0,0,,0,,,62,95
95907,note_off,0,0,0,,0,,,50,95
96174,note_on,267,0,0,,0,,,50,95
96174,note_on,0,0,0,,0,,,65,95
96174,note_on,0,0,0,,0,,,69,95
96174,note_on,0,0,0,,0,,,74,95
96174,note_on,0,0,0,,1,,,74,127
96350,note_off,176,0,0,,1,,,74,127
96351,note_on,1,0,0,,1,,,69,127
96527,note_off,176,0,0,,1,,,69,127
96528,note_on,1,0,0,,1,,,62,127
96881,note_off,353,0,0,,1,,,62,127
96881,note_off,0,0,0,,0,,,74,95
96881,note_off,0,0,0,,0,,,69,95
96881,note_off,0,0,0,,0,,,65,95
96881,note_off,0,0,0,,0,,,50,95
96882,note_on,1,0,0,,0,,,55,95
96882,note_on,0,0,0,,0,,,67,95
96882,note_on,0,0,0,,0,,,62,95
96882,note_on,0,0,0,,0,,,70,95
96882,note_on,0,0,0,,1,,,70,127
97235,note_off,353,0,0,,0,,,70,95
97235,note_off,0,0,0,,0,,,62,95
97235,note_off,0,0,0,,0,,,67,95
97235,note_off,0,0,0,,0,,,55,95
97236,note_on,1,0,0,,0,,,49,95
97236,note_on,0,0,0,,0,,,64,95
97236,note_on,0,0,0,,0,,,67,95
97236,note_on,0,0,0,,0,,,70,95
97412,note_off,176,0,0,,1,,,70,127
97413,note_on,1,0,0,,1,,,68,127
97589,note_off,176,0,0,,1,,,68,127
97590,note_on,1,0,0,,1,,,69,127
97766,note_off,176,0,0,,0,,,70,95
97766,note_off,0,0,0,,0,,,67,95
97766,note_off,0,0,0,,0,,,64,95
97767,note_on,1,0,0,,0,,,65,95
97943,note_off,176,0,0,,0,,,65,95
97943,note_off,0,0,0,,1,,,69,127
97943,note_off,0,0,0,,0,,,49,95
97944,note_on,1,0,0,,0,,,45,95
97944,note_on,0,0,0,,0,,,64,95
97944,note_on,0,0,0,,0,,,69,95
97944,note_on,0,0,0,,1,,,79,127
98120,note_off,176,0,0,,0,,,64,95
98121,note_on,1,0,0,,0,,,61,95
98297,note_off,176,0,0,,0,,,61,95
98297,note_off,0,0,0,,0,,,69,95
98297,note_off,0,0,0,,0,,,45,95
98298,note_on,1,0,0,,0,,,50,95
98298,note_on,0,0,0,,0,,,62,95
98298,note_on,0,0,0,,0,,,65,95
98298,note_on,0,0,0,,0,,,69,95
98474,note_off,176,0,0,,1,,,79,127
98475,note_on,1,0,0,,1,,,76,127
98651,note_off,176,0,0,,1,,,76,127
98652,note_on,1,0,0,,1,,,81,127
98828,note_off,176,0,0,,1,,,81,127
98829,note_on,1,0,0,,1,,,74,127
99005,note_off,176,0,0,,1,,,74,127
99005,note_off,0,0,0,,0,,,65,95
99005,note_off,0,0,0,,0,,,62,95
99005,note_off,0,0,0,,0,,,50,95
99006,note_on,1,0,0,,0,,,57,95
99006,note_on,0,0,0,,0,,,64,95
99006,note_on,0,0,0,,1,,,76,127
99182,note_off,176,0,0,,1,,,76,127
99183,note_on,1,0,0,,1,,,73,127
99359,note_off,176,0,0,,1,,,73,127
99359,note_off,0,0,0,,0,,,64,95
99359,note_off,0,0,0,,0,,,57,95
99359,note_off,0,0,0,,0,,,69,95
99360,note_on,1,0,0,,0,,,57,95
99360,note_on,0,0,0,,0,,,64,95
99360,note_on,0,0,0,,1,,,82,127
99536,note_off,176,0,0,,0,,,64,95
99537,note_on,1,0,0,,0,,,65,95
99713,note_off,176,0,0,,0,,,65,95
99713,note_off,0,0,0,,0,,,57,95
99714,note_on,1,0,0,,0,,,55,95
99714,note_on,0,0,0,,0,,,67,95
99714,note_on,0,0,0,,0,,,70,95
99714,note_on,0,0,0,,0,,,74,95
99890,note_off,176,0,0,,1,,,82,127
99891,note_on,1,0,0,,1,,,74,127
100067,note_off,176,0,0,,1,,,74,127
100067,note_off,0,0,0,,0,,,55,95
100068,note_on,1,0,0,,0,,,55,95
100068,note_on,0,0,0,,1,,,75,127
100244,note_off,176,0,0,,1,,,75,127
100245,note_on,1,0,0,,1,,,80,127
100421,note_off,176,0,0,,1,,,80,127
100421,note_off,0,0,0,,0,,,55,95
100421,note_off,0,0,0,,0,,,74,95
100421,note_off,0,0,0,,0,,,70,95
100421,note_off,0,0,0,,0,,,67,95
100422,note_on,1,0,0,,0,,,55,95
100422,note_on,0,0,0,,0,,,62,95
100422,note_on,0,0,0,,1,,,80,127
100598,note_off,176,0,0,,1,,,80,127
100598,note_off,0,0,0,,0,,,62,95
100599,note_on,1,0,0,,0,,,64,95
100599,note_on,0,0,0,,1,,,81,127
100775,note_off,176,0,0,,0,,,64,95
100775,note_off,0,0,0,,0,,,55,95
100776,note_on,1,0,0,,0,,,53,95
100776,note_on,0,0,0,,0,,,65,95
100776,note_on,0,0,0,,0,,,69,95
100776,note_on,0,0,0,,0,,,74,95
100952,note_off,176,0,0,,1,,,81,127
100953,note_on,1,0,0,,1,,,73,127
101129,note_off,176,0,0,,1,,,73,127
101129,note_off,0,0,0,,0,,,53,95
101130,note_on,1,0,0,,0,,,53,95
101130,note_on,0,0,0,,1,,,74,127
101306,note_off,176,0,0,,1,,,74,127
101307,note_on,1,0,0,,1,,,78,127
101483,note_off,176,0,0,,1,,,78,127
101483,note_off,0,0,0,,0,,,53,95
101483,note_off,0,0,0,,0,,,74,95
101483,note_off,0,0,0,,0,,,69,95
101483,note_off,0,0,0,,0,,,65,95
101484,note_on,1,0,0,,0,,,53,95
101484,note_on,0,0,0,,0,,,64,95
101484,note_on,0,0,0,,1,,,78,127
101660,note_off,176,0,0,,1,,,78,127
101660,note_off,0,0,0,,0,,,64,95
101661,note_on,1,0,0,,0,,,65,95
101661,note_on,0,0,0,,1,,,79,127
101837,note_off,176,0,0,,0,,,65,95
101837,note_off,0,0,0,,0,,,53,95
101838,note_on,1,0,0,,0,,,52,95
101838,note_on,0,0,0,,0,,,73,95
101838,note_on,0,0,0,,0,,,64,95
101838,note_on,0,0,0,,0,,,67,95
102014,note_off,176,0,0,,1,,,79,127
102015,note_on,1,0,0,,1,,,71,127
102191,note_off,176,0,0,,1,,,71,127
102191,note_off,0,0,0,,0,,,52,95
102192,note_on,1,0,0,,0,,,52,95
102192,note_on,0,0,0,,1,,,73,127
102368,note_off,176,0,0,,1,,,73,127
102369,note_on,1,0,0,,1,,,76,127
102545,note_off,176,0,0,,1,,,76,127
102545,note_off,0,0,0,,0,,,52,95
102545,note_off,0,0,0,,0,,,67,95
102545,note_off,0,0,0,,0,,,64,95
102545,note_off,0,0,0,,0,,,73,95
102546,note_on,1,0,0,,0,,,52,95
102546,note_on,0,0,0,,0,,,65,95
102546,note_on,0,0,0,,1,,,76,127
102722,note_off,176,0,0,,1,,,76,127
102722,note_off,0,0,0,,0,,,65,95
102723,note_on,1,0,0,,0,,,64,95
102723,note_on,0,0,0,,1,,,77,127
102899,note_off,176,0,0,,0,,,64,95
102899,note_off,0,0,0,,0,,,52,95
102900,note_on,1,0,0,,0,,,50,95
102900,note_on,0,0,0,,0,,,74,95
102900,note_on,0,0,0,,0,,,65,95
102900,note_on,0,0,0,,0,,,69,95
103076,note_off,176,0,0,,1,,,77,127
103077,note_on,1,0,0,,1,,,69,127
103253,note_off,176,0,0,,1,,,69,127
103253,note_off,0,0,0,,0,,,50,95
103254,note_on,1,0,0,,0,,,50,95
103254,note_on,0,0,0,,1,,,74,127
103430,note_off,176,0,0,,1,,,74,127
103431,note_on,1,0,0,,1,,,72,127
103607,note_off,176,0,0,,1,,,72,127
103607,note_off,0,0,0,,0,,,50,95
103607,note_off,0,0,0,,0,,,69,95
103607,note_off,0,0,0,,0,,,65,95
103607,note_off,0,0,0,,0,,,74,95
103608,note_on,1,0,0,,0,,,55,95
103608,note_on,0,0,0,,0,,,62,95
103608,note_on,0,0,0,,0,,,67,95
103608,note_on,0,0,0,,1,,,70,127
103784,note_off,176,0,0,,1,,,70,127
103785,note_on,1,0,0,,1,,,69,127
103961,note_off,176,0,0,,1,,,69,127
103961,note_off,0,0,0,,0,,,67,95
103961,note_off,0,0,0,,0,,,62,95
103961,note_off,0,0,0,,0,,,55,95
103962,note_on,1,0,0,,1,,,67,127
104138,note_off,176,0,0,,1,,,67,127
104139,note_on,1,0,0,,1,,,65,127
104315,note_off,176,0,0,,1,,,65,127
104316,note_on,1,0,0,,1,,,63,127
104492,note_off,176,0,0,,1,,,63,127
104493,note_on,1,0,0,,1,,,62,127
104669,note_off,176,0,0,,1,,,62,127
104670,note_on,1,0,0,,0,,,43,95
104670,note_on,0,0,0,,0,,,63,95
104670,note_on,0,0,0,,0,,,67,95
104670,note_on,0,0,0,,0,,,58,95
104670,note_on,0,0,0,,1,,,62,127
104846,note_off,176,0,0,,1,,,62,127
104847,note_on,1,0,0,,1,,,63,127
105023,note_off,176,0,0,,0,,,58,95
105023,note_off,0,0,0,,0,,,67,95
105023,note_off,0,0,0,,0,,,63,95
105023,note_off,0,0,0,,0,,,43,95
105200,note_off,177,0,0,,1,,,63,127
105201,note_on,1,0,0,,1,,,75,127
105377,note_off,176,0,0,,1,,,75,127
105378,note_on,1,0,0,,1,,,79,127
105554,note_off,176,0,0,,1,,,79,127
105555,note_on,1,0,0,,1,,,77,127
105731,note_off,176,0,0,,1,,,77,127
105732,note_on,1,0,0,,0,,,55,95
105732,note_on,0,0,0,,0,,,63,95
105732,note_on,0,0,0,,0,,,67,95
105732,note_on,0,0,0,,0,,,58,95
105732,note_on,0,0,0,,1,,,75,127
105908,note_off,176,0,0,,1,,,75,127
105909,note_on,1,0,0,,1,,,74,127
106085,note_off,176,0,0,,1,,,74,127
106085,note_off,0,0,0,,0,,,58,95
106085,note_off,0,0,0,,0,,,67,95
106085,note_off,0,0,0,,0,,,63,95
106085,note_off,0,0,0,,0,,,55,95
106086,note_on,1,0,0,,1,,,72,127
106262,note_off,176,0,0,,1,,,72,127
106263,note_on,1,0,0,,1,,,70,127
106439,note_off,176,0,0,,1,,,70,127
106440,note_on,1,0,0,,1,,,69,127
106616,note_off,176,0,0,,1,,,69,127
106617,note_on,1,0,0,,1,,,67,127
106793,note_off,176,0,0,,1,,,67,127
106794,note_on,1,0,0,,0,,,43,95
106794,note_on,0,0,0,,0,,,63,95
106794,note_on,0,0,0,,0,,,67,95
106794,note_on,0,0,0,,0,,,58,95
106794,note_on,0,0,0,,1,,,67,127
106970,note_off,176,0,0,,1,,,67,127
106971,note_on,1,0,0,,1,,,66,127
107147,note_off,176,0,0,,1,,,66,127
107147,note_off,0,0,0,,0,,,58,95
107147,note_off,0,0,0,,0,,,67,95
107147,note_off,0,0,0,,0,,,63,95
107147,note_off,0,0,0,,0,,,43,95
107148,note_on,1,0,0,,1,,,67,127
107324,note_off,176,0,0,,1,,,67,127
107325,note_on,1,0,0,,1,,,79,127
107501,note_off,176,0,0,,1,,,79,127
107502,note_on,1,0,0,,1,,,82,127
107678,note_off,176,0,0,,1,,,82,127
107679,note_on,1,0,0,,1,,,81,127
107855,note_off,176,0,0,,1,,,81,127
107856,note_on,1,0,0,,0,,,55,95
107856,note_on,0,0,0,,0,,,63,95
107856,note_on,0,0,0,,0,,,67,95
107856,note_on,0,0,0,,0,,,70,95
107856,note_on,0,0,0,,1,,,79,127
108032,note_off,176,0,0,,1,,,79,127
108033,note_on,1,0,0,,1,,,77,127
108209,note_off,176,0,0,,1,,,77,127
108209,note_off,0,0,0,,0,,,70,95
108209,note_off,0,0,0,,0,,,67,95
108209,note_off,0,0,0,,0,,,63,95
108209,note_off,0,0,0,,0,,,55,95
108210,note_on,1,0,0,,1,,,75,127
108386,note_off,176,0,0,,1,,,75,127
108387,note_on,1,0,0,,1,,,74,127
108563,note_off,176,0,0,,1,,,74,127
108564,note_on,1,0,0,,1,,,73,127
108740,note_off,176,0,0,,1,,,73,127
108741,note_on,1,0,0,,1,,,74,127
108918,note_on,177,0,0,,0,,,45,95
108918,note_on,0,0,0,,0,,,64,95
108918,note_on,0,0,0,,0,,,69,95
108918,note_on,0,0,0,,0,,,61,95
109094,note_off,176,0,0,,1,,,74,127
109095,note_on,1,0,0,,1,,,73,127
109271,note_off,176,0,0,,1,,,73,127
109271,note_off,0,0,0,,0,,,61,95
109271,note_off,0,0,0,,0,,,69,95
109271,note_off,0,0,0,,0,,,64,95
109271,note_off,0,0,0,,0,,,45,95
109272,note_on,1,0,0,,1,,,74,127
109448,note_off,176,0,0,,1,,,74,127
109449,note_on,1,0,0,,1,,,76,127
109625,note_off,176,0,0,,1,,,76,127
109626,note_on,1,0,0,,1,,,69,127
109802,note_off,176,0,0,,1,,,69,127
109803,note_on,1,0,0,,1,,,76,127
109980,note_on,177,0,0,,0,,,57,95
109980,note_on,0,0,0,,0,,,62,95
109980,note_on,0,0,0,,0,,,65,95
109980,note_on,0,0,0,,0,,,69,95
110156,note_off,176,0,0,,1,,,76,127
110157,note_on,1,0,0,,1,,,74,127
110333,note_off,176,0,0,,1,,,74,127
110333,note_off,0,0,0,,0,,,69,95
110333,note_off,0,0,0,,0,,,65,95
110333,note_off,0,0,0,,0,,,62,95
110333,note_off,0,0,0,,0,,,57,95
110334,note_on,1,0,0,,1,,,76,127
110510,note_off,176,0,0,,1,,,76,127
110511,note_on,1,0,0,,1,,,77,127
110687,note_off,176,0,0,,1,,,77,127
110688,note_on,1,0,0,,1,,,69,127
110864,note_off,176,0,0,,1,,,69,127
110865,note_on,1,0,0,,1,,,77,127
111042,note_on,177,0,0,,0,,,45,95
111042,note_on,0,0,0,,0,,,64,95
111042,note_on,0,0,0,,0,,,69,95
111042,note_on,0,0,0,,0,,,73,95
111218,note_off,176,0,0,,1,,,77,127
111219,note_on,1,0,0,,1,,,76,127
111395,note_off,176,0,0,,1,,,76,127
111395,note_off,0,0,0,,0,,,73,95
111395,note_off,0,0,0,,0,,,69,95
111395,note_off,0,0,0,,0,,,64,95
111395,note_off,0,0,0,,0,,,45,95
111396,note_on,1,0,0,,1,,,77,127
111572,note_off,176,0,0,,1,,,77,127
111573,note_on,1,0,0,,1,,,79,127
111749,note_off,176,0,0,,1,,,79,127
111750,note_on,1,0,0,,1,,,69,127
111926,note_off,176,0,0,,1,,,69,127
111927,note_on,1,0,0,,1,,,79,127
112104,note_on,177,0,0,,0,,,57,95
112104,note_on,0,0,0,,0,,,65,95
112104,note_on,0,0,0,,0,,,69,95
112104,note_on,0,0,0,,0,,,74,95
112280,note_off,176,0,0,,1,,,79,127
112281,note_on,1,0,0,,1,,,77,127
112457,note_off,176,0,0,,1,,,77,127
112457,note_off,0,0,0,,0,,,74,95
112457,note_off,0,0,0,,0,,,69,95
112457,note_off,0,0,0,,0,,,65,95
112457,note_off,0,0,0,,0,,,57,95
112458,note_on,1,0,0,,1,,,79,127
112634,note_off,176,0,0,,1,,,79,127
112635,note_on,1,0,0,,1,,,81,127
112811,note_off,176,0,0,,1,,,81,127
112812,note_on,1,0,0,,1,,,69,127
112988,note_off,176,0,0,,1,,,69,127
112989,note_on,1,0,0,,1,,,81,127
113165,note_off,176,0,0,,1,,,81,127
113166,note_on,1,0,0,,0,,,45,95
113166,note_on,0,0,0,,0,,,69,95
113166,note_on,0,0,0,,0,,,73,95
113166,note_on,0,0,0,,0,,,76,95
113166,note_on,0,0,0,,0,,,64,95
113166,note_on,0,0,0,,1,,,79,127
113342,note_off,176,0,0,,1,,,79,127
113343,note_on,1,0,0,,1,,,77,127
113519,note_off,176,0,0,,1,,,77,127
113519,note_off,0,0,0,,0,,,64,95
113519,note_off,0,0,0,,0,,,76,95
113519,note_off,0,0,0,,0,,,73,95
113519,note_off,0,0,0,,0,,,69,95
113519,note_off,0,0,0,,0,,,45,95
113520,note_on,1,0,0,,1,,,76,127
113696,note_off,176,0,0,,1,,,76,127
113697,note_on,1,0,0,,1,,,74,127
113873,note_off,176,0,0,,1,,,74,127
113874,note_on,1,0,0,,1,,,73,127
114050,note_off,176,0,0,,1,,,73,127
114051,note_on,1,0,0,,1,,,74,127
114227,note_off,176,0,0,,1,,,74,127
114228,note_on,1,0,0,,1,,,76,127
114404,note_off,176,0,0,,1,,,76,127
114405,note_on,1,0,0,,1,,,70,127
114581,note_off,176,0,0,,1,,,70,127
114582,note_on,1,0,0,,1,,,69,127
114758,note_off,176,0,0,,1,,,69,127
114759,note_on,1,0,0,,1,,,67,127
114935,note_off,176,0,0,,1,,,67,127
114936,note_on,1,0,0,,0,,,61,95
114936,note_on,0,0,0,,0,,,64,95
114936,note_on,0,0,0,,0,,,69,95
114936,note_on,0,0,0,,1,,,65,127
115112,note_off,176,0,0,,1,,,65,127
115113,note_on,1,0,0,,1,,,64,127
115289,note_off,176,0,0,,1,,,64,127
115289,note_off,0,0,0,,0,,,69,95
115289,note_off,0,0,0,,0,,,64,95
115289,note_off,0,0,0,,0,,,61,95
115290,note_on,1,0,0,,0,,,62,95
115290,note_on,0,0,0,,0,,,65,95
115290,note_on,0,0,0,,0,,,69,95
115290,note_on,0,0,0,,1,,,65,127
115466,note_off,176,0,0,,1,,,65,127
115467,note_on,1,0,0,,1,,,74,127
115643,note_off,176,0,0,,1,,,74,127
115643,note_off,0,0,0,,0,,,69,95
115643,note_off,0,0,0,,0,,,65,95
115643,note_off,0,0,0,,0,,,62,95
115644,note_on,1,0,0,,0,,,55,95
115644,note_on,0,0,0,,0,,,64,95
115644,note_on,0,0,0,,0,,,74,95
115644,note_on,0,0,0,,0,,,67,95
115644,note_on,0,0,0,,1,,,64,127
115997,note_off,353,0,0,,1,,,64,127
115997,note_off,0,0,0,,0,,,67,95
115997,note_off,0,0,0,,0,,,74,95
115997,note_off,0,0,0,,0,,,55,95
115998,note_on,1,0,0,,0,,,57,95
115998,note_on,0,0,0,,0,,,69,95
115998,note_on,0,0,0,,0,,,73,95
115998,note_on,0,0,0,,0,,,67,95
115998,note_on,0,0,0,,1,,,73,127
116351,note_off,353,0,0,,1,,,73,127
116351,note_off,0,0,0,,0,,,67,95
116351,note_off,0,0,0,,0,,,73,95
116351,note_off,0,0,0,,0,,,69,95
116351,note_off,0,0,0,,0,,,57,95
116351,note_off,0,0,0,,0,,,64,95
116352,note_on,1,0,0,,0,,,50,95
116352,note_on,0,0,0,,0,,,62,95
116352,note_on,0,0,0,,0,,,65,95
116352,note_on,0,0,0,,0,,,69,95
116352,note_on,0,0,0,,0,,,74,95
116352,note_on,0,0,0,,1,,,74,127
117414,note_off,1062,0,0,,1,,,74,127
117414,note_off,0,0,0,,0,,,74,95
117414,note_off,0,0,0,,0,,,69,95
117414,note_off,0,0,0,,0,,,65,95
117414,note_off,0,0,0,,0,,,62,95
117414,note_off,0,0,0,,0,,,50,95
117415,note_on,1,0,0,,0,,,50,95
117415,note_on,0,0,0,,0,,,62,95
117415,note_on,0,0,0,,0,,,65,95
117415,note_on,0,0,0,,0,,,69,95
117415,note_on,0,0,0,,1,,,74,127
117591,note_off,176,0,0,,1,,,74,127
117592,note_on,1,0,0,,1,,,69,127
117768,note_off,176,0,0,,1,,,69,127
117769,note_on,1,0,0,,1,,,62,127
118122,note_off,353,0,0,,1,,,62,127
118122,note_off,0,0,0,,0,,,69,95
118122,note_off,0,0,0,,0,,,65,95
118122,note_off,0,0,0,,0,,,62,95
118122,note_off,0,0,0,,0,,,50,95
118123,note_on,1,0,0,,0,,,54,95
118123,note_on,0,0,0,,0,,,62,95
118123,note_on,0,0,0,,0,,,69,95
118123,note_on,0,0,0,,1,,,72,127
118476,note_off,353,0,0,,0,,,54,95
118477,note_on,1,0,0,,0,,,55,95
118653,note_off,176,0,0,,1,,,72,127
118654,note_on,1,0,0,,1,,,69,127
118830,note_off,176,0,0,,1,,,69,127
118830,note_off,0,0,0,,0,,,69,95
118830,note_off,0,0,0,,0,,,62,95
118831,note_on,1,0,0,,0,,,67,95
118831,note_on,0,0,0,,1,,,70,127
119007,note_off,176,0,0,,0,,,67,95
119008,note_on,1,0,0,,0,,,69,95
119184,note_off,176,0,0,,0,,,69,95
119184,note_off,0,0,0,,1,,,70,127
119184,note_off,0,0,0,,0,,,55,95
119185,note_on,1,0,0,,0,,,43,95
119185,note_on,0,0,0,,0,,,70,95
119185,note_on,0,0,0,,1,,,79,127
119361,note_off,176,0,0,,0,,,70,95
119362,note_on,1,0,0,,0,,,67,95
119538,note_off,176,0,0,,0,,,67,95
119538,note_off,0,0,0,,0,,,43,95
119539,note_on,1,0,0,,0,,,48,95
119539,note_on,0,0,0,,0,,,63,95
119539,note_on,0,0,0,,0,,,67,95
119539,note_on,0,0,0,,0,,,72,95
119715,note_off,176,0,0,,1,,,79,127
119716,note_on,1,0,0,,1,,,75,127
119892,note_off,176,0,0,,1,,,75,127
119893,note_on,1,0,0,,1,,,72,127
120069,note_off,176,0,0,,1,,,72,127
120069,note_off,0,0,0,,0,,,72,95
120070,note_on,1,0,0,,0,,,60,95
120070,note_on,0,0,0,,1,,,70,127
120246,note_off,176,0,0,,1,,,70,127
120246,note_off,0,0,0,,0,,,60,95
120246,note_off,0,0,0,,0,,,67,95
120246,note_off,0,0,0,,0,,,63,95
120247,note_on,1,0,0,,0,,,62,95
120247,note_on,0,0,0,,1,,,69,127
120423,note_off,176,0,0,,1,,,69,127
120423,note_off,0,0,0,,0,,,62,95
120424,note_on,1,0,0,,0,,,63,95
120424,note_on,0,0,0,,1,,,67,127
120600,note_off,176,0,0,,1,,,67,127
120600,note_off,0,0,0,,0,,,63,95
120600,note_off,0,0,0,,0,,,48,95
120601,note_on,1,0,0,,0,,,50,95
120601,note_on,0,0,0,,0,,,62,95
120601,note_on,0,0,0,,0,,,69,95
120601,note_on,0,0,0,,1,,,67,127
120777,note_off,176,0,0,,1,,,67,127
120778,note_on,1,0,0,,1,,,66,127
120954,note_off,176,0,0,,0,,,62,95
120954,note_off,0,0,0,,0,,,50,95
120955,note_on,1,0,0,,0,,,62,95
120955,note_on,0,0,0,,0,,,66,95
120955,note_on,0,0,0,,0,,,74,95
121131,note_off,176,0,0,,1,,,66,127
121132,note_on,1,0,0,,1,,,69,127
121308,note_off,176,0,0,,1,,,69,127
121308,note_off,0,0,0,,0,,,62,95
121309,note_on,1,0,0,,0,,,62,95
121309,note_on,0,0,0,,1,,,70,127
121485,note_off,176,0,0,,1,,,70,127
121486,note_on,1,0,0,,1,,,72,127
121662,note_off,176,0,0,,1,,,72,127
121662,note_off,0,0,0,,0,,,62,95
121662,note_off,0,0,0,,0,,,74,95
121662,note_off,0,0,0,,0,,,66,95
121662,note_off,0,0,0,,0,,,69,95
121663,note_on,1,0,0,,0,,,62,95
121663,note_on,0,0,0,,0,,,67,95
121663,note_on,0,0,0,,1,,,74,127
121839,note_off,176,0,0,,1,,,74,127
121839,note_off,0,0,0,,0,,,67,95
121840,note_on,1,0,0,,0,,,66,95
121840,note_on,0,0,0,,1,,,75,127
122016,note_off,176,0,0,,0,,,66,95
122016,note_off,0,0,0,,0,,,62,95
122017,note_on,1,0,0,,0,,,60,95
122017,note_on,0,0,0,,0,,,72,95
122017,note_on,0,0,0,,0,,,67,95
122017,note_on,0,0,0,,0,,,63,95
122193,note_off,176,0,0,,1,,,75,127
122194,note_on,1,0,0,,1,,,67,127
122370,note_off,176,0,0,,1,,,67,127
122370,note_off,0,0,0,,0,,,60,95
122371,note_on,1,0,0,,0,,,60,95
122371,note_on,0,0,0,,1,,,68,127
122547,note_off,176,0,0,,1,,,68,127
122548,note_on,1,0,0,,1,,,73,127
122724,note_off,176,0,0,,1,,,73,127
122724,note_off,0,0,0,,0,,,60,95
122724,note_off,0,0,0,,0,,,63,95
122724,note_off,0,0,0,,0,,,67,95
122724,note_off,0,0,0,,0,,,72,95
122725,note_on,1,0,0,,0,,,60,95
122725,note_on,0,0,0,,0,,,67,95
122725,note_on,0,0,0,,1,,,73,127
122901,note_off,176,0,0,,1,,,73,127
122901,note_off,0,0,0,,0,,,67,95
122902,note_on,1,0,0,,0,,,66,95
122902,note_on,0,0,0,,1,,,74,127
123078,note_off,176,0,0,,0,,,66,95
123078,note_off,0,0,0,,0,,,60,95
123079,note_on,1,0,0,,0,,,58,95
123079,note_on,0,0,0,,0,,,67,95
123079,note_on,0,0,0,,0,,,70,95
123079,note_on,0,0,0,,0,,,62,95
123255,note_off,176,0,0,,1,,,74,127
123256,note_on,1,0,0,,1,,,66,127
123432,note_off,176,0,0,,1,,,66,127
123432,note_off,0,0,0,,0,,,58,95
123433,note_on,1,0,0,,0,,,58,95
123433,note_on,0,0,0,,1,,,67,127
123609,note_off,176,0,0,,1,,,67,127
123610,note_on,1,0,0,,1,,,71,127
123786,note_off,176,0,0,,1,,,71,127
123786,note_off,0,0,0,,0,,,58,95
123786,note_off,0,0,0,,0,,,62,95
123786,note_off,0,0,0,,0,,,70,95
123786,note_off,0,0,0,,0,,,67,95
123787,note_on,1,0,0,,0,,,58,95
123787,note_on,0,0,0,,0,,,67,95
123787,note_on,0,0,0,,1,,,71,127
123963,note_off,176,0,0,,1,,,71,127
123963,note_off,0,0,0,,0,,,67,95
123964,note_on,1,0,0,,0,,,64,95
123964,note_on,0,0,0,,1,,,72,127
124140,note_off,176,0,0,,0,,,64,95
124140,note_off,0,0,0,,0,,,58,95
124141,note_on,1,0,0,,0,,,57,95
124141,note_on,0,0,0,,0,,,62,95
124141,note_on,0,0,0,,0,,,66,95
124141,note_on,0,0,0,,0,,,69,95
124317,note_off,176,0,0,,1,,,72,127
124318,note_on,1,0,0,,1,,,64,127
124494,note_off,176,0,0,,1,,,64,127
124494,note_off,0,0,0,,0,,,57,95
124495,note_on,1,0,0,,0,,,57,95
124495,note_on,0,0,0,,1,,,66,127
124671,note_off,176,0,0,,1,,,66,127
124672,note_on,1,0,0,,1,,,69,127
124848,note_off,176,0,0,,1,,,69,127
124848,note_off,0,0,0,,0,,,57,95
124848,note_off,0,0,0,,0,,,69,95
124848,note_off,0,0,0,,0,,,66,95
124848,note_off,0,0,0,,0,,,62,95
124849,note_on,1,0,0,,0,,,57,95
124849,note_on,0,0,0,,0,,,67,95
124849,note_on,0,0,0,,1,,,69,127
125025,note_off,176,0,0,,1,,,69,127
125025,note_off,0,0,0,,0,,,67,95
125026,note_on,1,0,0,,0,,,66,95
125026,note_on,0,0,0,,1,,,70,127
125202,note_off,176,0,0,,0,,,66,95
125202,note_off,0,0,0,,0,,,57,95
125203,note_on,1,0,0,,0,,,55,95
125203,note_on,0,0,0,,0,,,62,95
125203,note_on,0,0,0,,0,,,67,95
125379,note_off,176,0,0,,1,,,70,127
125380,note_on,1,0,0,,1,,,67,127
125556,note_off,176,0,0,,1,,,67,127
125556,note_off,0,0,0,,0,,,62,95
125556,note_off,0,0,0,,0,,,55,95
125557,note_on,1,0,0,,0,,,55,95
125557,note_on,0,0,0,,0,,,62,95
125557,note_on,0,0,0,,0,,,74,95
125557,note_on,0,0,0,,1,,,79,127
125733,note_off,176,0,0,,1,,,79,127
125734,note_on,1,0,0,,1,,,77,127
125910,note_off,176,0,0,,1,,,77,127
125910,note_off,0,0,0,,0,,,74,95
125910,note_off,0,0,0,,0,,,62,95
125910,note_off,0,0,0,,0,,,55,95
125910,note_off,0,0,0,,0,,,67,95
125911,note_on,1,0,0,,0,,,60,95
125911,note_on,0,0,0,,0,,,64,95
125911,note_on,0,0,0,,0,,,67,95
125911,note_on,0,0,0,,1,,,76,127
126087,note_off,176,0,0,,1,,,76,127
126088,note_on,1,0,0,,1,,,74,127
126264,note_off,176,0,0,,1,,,74,127
126264,note_off,0,0,0,,0,,,60,95
126265,note_on,1,0,0,,0,,,48,95
126265,note_on,0,0,0,,1,,,72,127
126441,note_off,176,0,0,,1,,,72,127
126442,note_on,1,0,0,,1,,,70,127
126618,note_off,176,0,0,,1,,,70,127
126618,note_off,0,0,0,,0,,,48,95
126618,note_off,0,0,0,,0,,,67,95
126618,note_off,0,0,0,,0,,,64,95
126619,note_on,1,0,0,,0,,,52,95
126619,note_on,0,0,0,,0,,,60,95
126619,note_on,0,0,0,,0,,,64,95
126619,note_on,0,0,0,,1,,,69,127
126795,note_off,176,0,0,,1,,,69,127
126796,note_on,1,0,0,,1,,,68,127
126972,note_off,176,0,0,,1,,,68,127
126972,note_off,0,0,0,,0,,,52,95
126973,note_on,1,0,0,,0,,,53,95
126973,note_on,0,0,0,,1,,,68,127
127149,note_off,176,0,0,,1,,,68,127
127150,note_on,1,0,0,,1,,,69,127
127326,note_off,176,0,0,,0,,,53,95
127326,note_off,0,0,0,,0,,,64,95
127326,note_off,0,0,0,,0,,,60,95
127327,note_on,1,0,0,,0,,,41,95
127327,note_on,0,0,0,,0,,,62,95
127327,note_on,0,0,0,,0,,,65,95
127503,note_off,176,0,0,,1,,,69,127
127504,note_on,1,0,0,,1,,,69,127
127680,note_off,176,0,0,,1,,,69,127
127680,note_off,0,0,0,,0,,,41,95
127681,note_on,1,0,0,,0,,,53,95
127681,note_on,0,0,0,,1,,,74,127
127857,note_off,176,0,0,,1,,,74,127
127858,note_on,1,0,0,,1,,,72,127
128034,note_off,176,0,0,,1,,,72,127
128034,note_off,0,0,0,,0,,,53,95
128034,note_off,0,0,0,,0,,,65,95
128034,note_off,0,0,0,,0,,,62,95
128035,note_on,1,0,0,,0,,,55,95
128035,note_on,0,0,0,,0,,,62,95
128035,note_on,0,0,0,,0,,,67,95
128035,note_on,0,0,0,,0,,,70,95
128035,note_on,0,0,0,,1,,,70,127
128211,note_off,176,0,0,,1,,,70,127
128212,note_on,1,0,0,,1,,,69,127
128388,note_off,176,0,0,,1,,,69,127
128388,note_off,0,0,0,,0,,,55,95
128389,note_on,1,0,0,,0,,,43,95
128389,note_on,0,0,0,,1,,,67,127
128565,note_off,176,0,0,,1,,,67,127
128566,note_on,1,0,0,,1,,,65,127
128742,note_off,176,0,0,,1,,,65,127
128742,note_off,0,0,0,,0,,,43,95
128743,note_on,1,0,0,,0,,,55,95
128743,note_on,0,0,0,,1,,,63,127
128919,note_off,176,0,0,,1,,,63,127
128920,note_on,1,0,0,,1,,,62,127
129096,note_off,176,0,0,,0,,,55,95
129096,note_off,0,0,0,,0,,,70,95
129096,note_off,0,0,0,,0,,,67,95
129096,note_off,0,0,0,,0,,,62,95
129097,note_on,1,0,0,,0,,,45,95
129097,note_on,0,0,0,,0,,,61,95
129097,note_on,0,0,0,,0,,,64,95
129097,note_on,0,0,0,,0,,,67,95
129273,note_off,176,0,0,,1,,,62,127
129274,note_on,1,0,0,,1,,,61,127
129450,note_off,176,0,0,,1,,,61,127
129450,note_off,0,0,0,,0,,,67,95
129450,note_off,0,0,0,,0,,,64,95
129450,note_off,0,0,0,,0,,,61,95
129450,note_off,0,0,0,,0,,,45,95
129451,note_on,1,0,0,,1,,,62,127
129627,note_off,176,0,0,,1,,,62,127
129628,note_on,1,0,0,,1,,,64,127
129804,note_off,176,0,0,,1,,,64,127
129805,note_on,1,0,0,,1,,,57,127
129981,note_off,176,0,0,,1,,,57,127
129982,note_on,1,0,0,,1,,,64,127
130159,note_on,177,0,0,,0,,,45,95
130159,note_on,0,0,0,,0,,,62,95
130159,note_on,0,0,0,,0,,,65,95
130159,note_on,0,0,0,,0,,,69,95
130335,note_off,176,0,0,,1,,,64,127
130336,note_on,1,0,0,,1,,,62,127
130512,note_off,176,0,0,,1,,,62,127
130512,note_off,0,0,0,,0,,,69,95
130512,note_off,0,0,0,,0,,,65,95
130512,note_off,0,0,0,,0,,,62,95
130512,note_off,0,0,0,,0,,,45,95
130513,note_on,1,0,0,,1,,,64,127
130689,note_off,176,0,0,,1,,,64,127
130690,note_on,1,0,0,,1,,,65,127
130866,note_off,176,0,0,,1,,,65,127
130867,note_on,1,0,0,,1,,,57,127
131043,note_off,176,0,0,,1,,,57,127
131044,note_on,1,0,0,,1,,,65,127
131221,note_on,177,0,0,,0,,,45,95
131221,note_on,0,0,0,,0,,,73,95
131221,note_on,0,0,0,,0,,,67,95
131221,note_on,0,0,0,,0,,,64,95
131397,note_off,176,0,0,,1,,,65,127
131398,note_on,1,0,0,,1,,,64,127
131574,note_off,176,0,0,,1,,,64,127
131574,note_off,0,0,0,,0,,,64,95
131574,note_off,0,0,0,,0,,,67,95
131574,note_off,0,0,0,,0,,,73,95
131574,note_off,0,0,0,,0,,,45,95
131575,note_on,1,0,0,,1,,,65,127
131751,note_off,176,0,0,,1,,,65,127
131752,note_on,1,0,0,,1,,,67,127
131928,note_off,176,0,0,,1,,,67,127
131929,note_on,1,0,0,,1,,,57,127
132105,note_off,176,0,0,,1,,,57,127
132106,note_on,1,0,0,,1,,,67,127
132283,note_on,177,0,0,,0,,,45,95
132283,note_on,0,0,0,,0,,,65,95
132283,note_on,0,0,0,,0,,,69,95
132283,note_on,0,0,0,,0,,,74,95
132459,note_off,176,0,0,,1,,,67,127
132460,note_on,1,0,0,,1,,,65,127
132636,note_off,176,0,0,,1,,,65,127
132636,note_off,0,0,0,,0,,,74,95
132636,note_off,0,0,0,,0,,,69,95
132636,note_off,0,0,0,,0,,,65,95
132636,note_off,0,0,0,,0,,,45,95
132637,note_on,1,0,0,,1,,,67,127
132813,note_off,176,0,0,,1,,,67,127
132814,note_on,1,0,0,,1,,,69,127
132990,note_off,176,0,0,,1,,,69,127
132991,note_on,1,0,0,,1,,,57,127
133167,note_off,176,0,0,,1,,,57,127
133168,note_on,1,0,0,,1,,,69,127
133344,note_off,176,0,0,,1,,,69,127
133345,note_on,1,0,0,,0,,,45,95
133345,note_on,0,0,0,,0,,,69,95
133345,note_on,0,0,0,,0,,,76,95
133345,note_on,0,0,0,,0,,,64,95
133345,note_on,0,0,0,,1,,,67,127
133521,note_off,176,0,0,,1,,,67,127
133522,note_on,1,0,0,,1,,,65,127
133698,note_off,176,0,0,,1,,,65,127
133698,note_off,0,0,0,,0,,,64,95
133698,note_off,0,0,0,,0,,,76,95
133698,note_off,0,0,0,,0,,,69,95
133698,note_off,0,0,0,,0,,,45,95
133699,note_on,1,0,0,,1,,,64,127
133875,note_off,176,0,0,,1,,,64,127
133876,note_on,1,0,0,,1,,,62,127
134052,note_off,176,0,0,,1,,,62,127
134053,note_on,1,0,0,,1,,,61,127
134229,note_off,176,0,0,,1,,,61,127
134230,note_on,1,0,0,,1,,,62,127
134406,note_off,176,0,0,,1,,,62,127
134407,note_on,1,0,0,,1,,,64,127
134583,note_off,176,0,0,,1,,,64,127
134584,note_on,1,0,0,,1,,,65,127
134760,note_off,176,0,0,,1,,,65,127
134761,note_on,1,0,0,,0,,,57,95
134761,note_on,0,0,0,,0,,,64,95
134761,note_on,0,0,0,,0,,,69,95
134761,note_on,0,0,0,,1,,,67,127
134937,note_off,176,0,0,,1,,,67,127
134938,note_on,1,0,0,,1,,,69,127
135114,note_off,176,0,0,,1,,,69,127
135114,note_off,0,0,0,,0,,,69,95
135114,note_off,0,0,0,,0,,,57,95
135115,note_on,1,0,0,,0,,,55,95
135115,note_on,0,0,0,,0,,,73,95
135115,note_on,0,0,0,,1,,,70,127
135291,note_off,176,0,0,,1,,,70,127
135292,note_on,1,0,0,,1,,,67,127
135468,note_off,176,0,0,,1,,,67,127
135468,note_off,0,0,0,,0,,,73,95
135468,note_off,0,0,0,,0,,,55,95
135468,note_off,0,0,0,,0,,,64,95
135469,note_on,1,0,0,,0,,,53,95
135469,note_on,0,0,0,,0,,,62,95
135469,note_on,0,0,0,,0,,,69,95
135469,note_on,0,0,0,,0,,,74,95
135469,note_on,0,0,0,,1,,,74,127
135648,note_off,179,0,0,,1,,,74,127
135649,note_on,1,0,0,,1,,,76,127
135828,note_off,179,0,0,,1,,,76,127
135828,note_off,0,0,0,,0,,,53,95
135829,note_on,1,0,0,,0,,,50,95
135829,note_on,0,0,0,,1,,,77,127
136008,note_off,179,0,0,,1,,,77,127
136009,note_on,1,0,0,,1,,,79,127
136188,note_off,179,0,0,,1,,,79,127
136188,note_off,0,0,0,,0,,,50,95
136188,note_off,0,0,0,,0,,,74,95
136188,note_off,0,0,0,,0,,,69,95
136188,note_off,0,0,0,,0,,,62,95
136189,note_on,1,0,0,,0,,,53,95
136189,note_on,0,0,0,,0,,,62,95
136189,note_on,0,0,0,,0,,,65,95
136189,note_on,0,0,0,,0,,,69,95
136189,note_on,0,0,0,,1,,,81,127
136368,note_off,179,0,0,,1,,,81,127
136369,note_on,1,0,0,,1,,,74,127
136548,note_off,179,0,0,,1,,,74,127
136548,note_off,0,0,0,,0,,,69,95
136548,note_off,0,0,0,,0,,,65,95
136548,note_off,0,0,0,,0,,,62,95
136548,note_off,0,0,0,,0,,,53,95
136549,note_on,1,0,0,,0,,,55,95
136549,note_on,0,0,0,,0,,,62,95
136549,note_on,0,0,0,,0,,,67,95
136549,note_on,0,0,0,,0,,,70,95
136549,note_on,0,0,0,,1,,,79,127
136740,note_off,191,0,0,,1,,,79,127
136741,note_on,1,0,0,,1,,,76,127
136932,note_off,191,0,0,,1,,,76,127
136932,note_off,0,0,0,,0,,,70,95
136932,note_off,0,0,0,,0,,,67,95
136932,note_off,0,0,0,,0,,,62,95
136932,note_off,0,0,0,,0,,,55,95
136933,note_on,1,0,0,,0,,,57,95
136933,note_on,0,0,0,,0,,,62,95
136933,note_on,0,0,0,,0,,,65,95
136933,note_on,0,0,0,,0,,,69,95
136933,note_on,0,0,0,,1,,,77,127
137359,note_off,426,0,0,,1,,,77,127
137359,note_off,0,0,0,,0,,,69,95
137359,note_off,0,0,0,,0,,,65,95
137359,note_off,0,0,0,,0,,,62,95
137359,note_off,0,0,0,,0,,,57,95
137376,note_on,17,0,0,,1,,,76,127
137376,note_on,0,0,0,,0,,,69,95
137376,note_on,0,0,0,,0,,,64,95
137376,note_on,0,0,0,,0,,,61,95
137376,note_on,0,0,0,,0,,,45,95
137802,note_off,426,0,0,,0,,,45,95
137802,note_off,0,0,0,,0,,,61,95
137802,note_off,0,0,0,,0,,,64,95
137802,note_off,0,0,0,,0,,,69,95
137802,note_off,0,0,0,,1,,,76,127
137835,note_on,33,0,0,,1,,,74,127
137835,note_on,0,0,0,,0,,,69,95
137835,note_on,0,0,0,,0,,,65,95
137835,note_on,0,0,0,,0,,,62,95
137835,note_on,0,0,0,,0,,,50,95
139634,note_off,1799,0,0,,0,,,50,95
139634,note_off,0,0,0,,0,,,62,95
139634,note_off,0,0,0,,0,,,65,95
139634,note_off,0,0,0,,0,,,69,95
139634,note_off,0,0,0,,1,,,74,127
142848,end_of_track,3214,1,0,,,,,,
