tick,type,time,meta,track,program,channel,pitch,tempo,note,velocity
0,copyright,0,1,0,,,,,,
0,program_change,0,0,0,6,0,,,,
0,pitchwheel,0,0,0,,0,0,,,
0,program_change,0,0,0,6,1,,,,
0,pitchwheel,0,0,0,,1,0,,,
0,program_change,0,0,0,6,2,,,,
0,pitchwheel,0,0,0,,2,0,,,
0,program_change,0,0,0,6,3,,,,
0,pitchwheel,0,0,0,,3,0,,,
0,program_change,0,0,0,6,4,,,,
0,pitchwheel,0,0,0,,4,0,,,
0,program_change,0,0,0,6,5,,,,
0,pitchwheel,0,0,0,,5,0,,,
0,program_change,0,0,0,6,6,,,,
0,pitchwheel,0,0,0,,6,0,,,
0,program_change,0,0,0,6,7,,,,
0,pitchwheel,0,0,0,,7,0,,,
0,program_change,0,0,0,6,8,,,,
0,pitchwheel,0,0,0,,8,0,,,
0,set_tempo,0,1,0,,,,500000,,
96,note_on,96,0,0,,0,,,53,95
96,note_on,0,0,0,,0,,,65,95
96,note_on,0,0,0,,0,,,69,95
96,note_on,0,0,0,,0,,,72,95
96,note_on,0,0,0,,1,,,77,127
619,note_off,523,0,0,,1,,,77,127
619,note_off,0,0,0,,0,,,72,95
619,note_off,0,0,0,,0,,,69,95
619,note_off,0,0,0,,0,,,65,95
619,note_off,0,0,0,,0,,,53,95
620,note_on,1,0,0,,0,,,41,95
620,note_on,0,0,0,,0,,,65,95
620,note_on,0,0,0,,0,,,69,95
620,note_on,0,0,0,,0,,,72,95
620,note_on,0,0,0,,1,,,81,127
1143,note_off,523,0,0,,1,,,81,127
1143,note_off,0,0,0,,0,,,72,95
1143,note_off,0,0,0,,0,,,69,95
1143,note_off,0,0,0,,0,,,65,95
1143,note_off,0,0,0,,0,,,41,95
1144,note_on,1,0,0,,0,,,48,95
1144,note_on,0,0,0,,0,,,67,95
1144,note_on,0,0,0,,0,,,72,95
1144,note_on,0,0,0,,0,,,64,95
1144,note_on,0,0,0,,1,,,79,127
1318,note_off,174,0,0,,1,,,79,127
1319,note_on,1,0,0,,1,,,77,127
1493,note_off,174,0,0,,1,,,77,127
1494,note_on,1,0,0,,1,,,76,127
1668,note_off,174,0,0,,1,,,76,127
1668,note_off,0,0,0,,0,,,64,95
1668,note_off,0,0,0,,0,,,72,95
1668,note_off,0,0,0,,0,,,67,95
1668,note_off,0,0,0,,0,,,48,95
1669,note_on,1,0,0,,1,,,76,127
1843,note_off,174,0,0,,1,,,76,127
1844,note_on,1,0,0,,1,,,74,127
2018,note_off,174,0,0,,1,,,74,127
2019,note_on,1,0,0,,1,,,72,127
2193,note_off,174,0,0,,1,,,72,127
2194,note_on,1,0,0,,0,,,52,95
2194,note_on,0,0,0,,0,,,55,95
2194,note_on,0,0,0,,0,,,67,95
2194,note_on,0,0,0,,1,,,72,127
2368,note_off,174,0,0,,1,,,72,127
2369,note_on,1,0,0,,1,,,70,127
2543,note_off,174,0,0,,1,,,70,127
2544,note_on,1,0,0,,1,,,69,127
2718,note_off,174,0,0,,1,,,69,127
2718,note_off,0,0,0,,0,,,67,95
2718,note_off,0,0,0,,0,,,55,95
2718,note_off,0,0,0,,0,,,52,95
2719,note_on,1,0,0,,0,,,48,95
2719,note_on,0,0,0,,0,,,60,95
2719,note_on,0,0,0,,0,,,67,95
2719,note_on,0,0,0,,0,,,64,95
2719,note_on,0,0,0,,1,,,70,127
2893,note_off,174,0,0,,1,,,70,127
2894,note_on,1,0,0,,1,,,79,127
3068,note_off,174,0,0,,1,,,79,127
3069,note_on,1,0,0,,1,,,70,127
3243,note_off,174,0,0,,1,,,70,127
3243,note_off,0,0,0,,0,,,64,95
3243,note_off,0,0,0,,0,,,67,95
3243,note_off,0,0,0,,0,,,60,95
3243,note_off,0,0,0,,0,,,48,95
3244,note_on,1,0,0,,0,,,53,95
3244,note_on,0,0,0,,0,,,60,95
3244,note_on,0,0,0,,0,,,64,95
3244,note_on,0,0,0,,0,,,67,95
3244,note_on,0,0,0,,1,,,70,127
3418,note_off,174,0,0,,0,,,53,95
3419,note_on,1,0,0,,0,,,52,95
3593,note_off,174,0,0,,0,,,52,95
3594,note_on,1,0,0,,0,,,53,95
3768,note_off,174,0,0,,0,,,53,95
3768,note_off,0,0,0,,1,,,70,127
3768,note_off,0,0,0,,0,,,67,95
3768,note_off,0,0,0,,0,,,64,95
3769,note_on,1,0,0,,0,,,41,95
3769,note_on,0,0,0,,0,,,65,95
3769,note_on,0,0,0,,1,,,69,127
3943,note_off,174,0,0,,0,,,65,95
3944,note_on,1,0,0,,0,,,64,95
4118,note_off,174,0,0,,0,,,64,95
4119,note_on,1,0,0,,0,,,65,95
4293,note_off,174,0,0,,0,,,65,95
4293,note_off,0,0,0,,1,,,69,127
4293,note_off,0,0,0,,0,,,41,95
4293,note_off,0,0,0,,0,,,60,95
4294,note_on,1,0,0,,1,,,65,127
4468,note_off,174,0,0,,1,,,65,127
4469,note_on,1,0,0,,1,,,69,127
4643,note_off,174,0,0,,1,,,69,127
4644,note_on,1,0,0,,1,,,65,127
4818,note_off,174,0,0,,1,,,65,127
4819,note_on,1,0,0,,0,,,53,95
4819,note_on,0,0,0,,0,,,57,95
4819,note_on,0,0,0,,0,,,60,95
4819,note_on,0,0,0,,0,,,65,95
4819,note_on,0,0,0,,1,,,69,127
4993,note_off,174,0,0,,1,,,69,127
4994,note_on,1,0,0,,1,,,72,127
5168,note_off,174,0,0,,1,,,72,127
5169,note_on,1,0,0,,1,,,69,127
5343,note_off,174,0,0,,1,,,69,127
5343,note_off,0,0,0,,0,,,65,95
5343,note_off,0,0,0,,0,,,60,95
5343,note_off,0,0,0,,0,,,57,95
5343,note_off,0,0,0,,0,,,53,95
5344,note_on,1,0,0,,0,,,52,95
5344,note_on,0,0,0,,0,,,55,95
5344,note_on,0,0,0,,0,,,60,95
5344,note_on,0,0,0,,0,,,67,95
5344,note_on,0,0,0,,1,,,72,127
5518,note_off,174,0,0,,1,,,72,127
5519,note_on,1,0,0,,1,,,76,127
5693,note_off,174,0,0,,1,,,76,127
5694,note_on,1,0,0,,1,,,72,127
5868,note_off,174,0,0,,1,,,72,127
5868,note_off,0,0,0,,0,,,67,95
5868,note_off,0,0,0,,0,,,60,95
5868,note_off,0,0,0,,0,,,55,95
5868,note_off,0,0,0,,0,,,52,95
5869,note_on,1,0,0,,0,,,48,95
5869,note_on,0,0,0,,0,,,60,95
5869,note_on,0,0,0,,0,,,67,95
5869,note_on,0,0,0,,0,,,64,95
5869,note_on,0,0,0,,1,,,76,127
6043,note_off,174,0,0,,1,,,76,127
6044,note_on,1,0,0,,1,,,79,127
6218,note_off,174,0,0,,1,,,79,127
6219,note_on,1,0,0,,1,,,76,127
6393,note_off,174,0,0,,1,,,76,127
6393,note_off,0,0,0,,0,,,64,95
6393,note_off,0,0,0,,0,,,67,95
6393,note_off,0,0,0,,0,,,60,95
6393,note_off,0,0,0,,0,,,48,95
6394,note_on,1,0,0,,0,,,50,95
6394,note_on,0,0,0,,0,,,62,95
6394,note_on,0,0,0,,0,,,69,95
6394,note_on,0,0,0,,0,,,65,95
6394,note_on,0,0,0,,1,,,77,127
6568,note_off,174,0,0,,1,,,77,127
6569,note_on,1,0,0,,1,,,74,127
6743,note_off,174,0,0,,1,,,74,127
6744,note_on,1,0,0,,1,,,69,127
6918,note_off,174,0,0,,1,,,69,127
6918,note_off,0,0,0,,0,,,65,95
6918,note_off,0,0,0,,0,,,69,95
6918,note_off,0,0,0,,0,,,62,95
6918,note_off,0,0,0,,0,,,50,95
6919,note_on,1,0,0,,0,,,43,95
6919,note_on,0,0,0,,0,,,55,95
6919,note_on,0,0,0,,0,,,65,95
6919,note_on,0,0,0,,0,,,71,95
6919,note_on,0,0,0,,1,,,71,127
7093,note_off,174,0,0,,1,,,71,127
7094,note_on,1,0,0,,1,,,74,127
7268,note_off,174,0,0,,1,,,74,127
7269,note_on,1,0,0,,1,,,77,127
7443,note_off,174,0,0,,1,,,77,127
7443,note_off,0,0,0,,0,,,71,95
7443,note_off,0,0,0,,0,,,65,95
7443,note_off,0,0,0,,0,,,55,95
7443,note_off,0,0,0,,0,,,43,95
7444,note_on,1,0,0,,0,,,60,95
7444,note_on,0,0,0,,0,,,67,95
7444,note_on,0,0,0,,0,,,71,95
7444,note_on,0,0,0,,1,,,77,127
7618,note_off,174,0,0,,0,,,60,95
7619,note_on,1,0,0,,0,,,59,95
7793,note_off,174,0,0,,0,,,59,95
7794,note_on,1,0,0,,0,,,60,95
7968,note_off,174,0,0,,0,,,60,95
7968,note_off,0,0,0,,1,,,77,127
7968,note_off,0,0,0,,0,,,71,95
7969,note_on,1,0,0,,0,,,48,95
7969,note_on,0,0,0,,0,,,72,95
7969,note_on,0,0,0,,1,,,76,127
8143,note_off,174,0,0,,0,,,72,95
8144,note_on,1,0,0,,0,,,74,95
8318,note_off,174,0,0,,0,,,74,95
8319,note_on,1,0,0,,0,,,76,95
8493,note_off,174,0,0,,0,,,76,95
8493,note_off,0,0,0,,1,,,76,127
8493,note_off,0,0,0,,0,,,48,95
8493,note_off,0,0,0,,0,,,67,95
8494,note_on,1,0,0,,0,,,52,95
8494,note_on,0,0,0,,0,,,67,95
8494,note_on,0,0,0,,0,,,64,95
8494,note_on,0,0,0,,0,,,72,95
8494,note_on,0,0,0,,1,,,72,127
8580,note_off,86,0,0,,1,,,72,127
8581,note_on,1,0,0,,1,,,74,127
8667,note_off,86,0,0,,1,,,74,127
8668,note_on,1,0,0,,1,,,76,127
8754,note_off,86,0,0,,1,,,76,127
8755,note_on,1,0,0,,1,,,77,127
8841,note_off,86,0,0,,1,,,77,127
8842,note_on,1,0,0,,1,,,79,127
9016,note_off,174,0,0,,1,,,79,127
9016,note_off,0,0,0,,0,,,72,95
9016,note_off,0,0,0,,0,,,64,95
9016,note_off,0,0,0,,0,,,67,95
9017,note_on,1,0,0,,1,,,76,127
9191,note_off,174,0,0,,1,,,76,127
9192,note_on,1,0,0,,1,,,72,127
9366,note_off,174,0,0,,1,,,72,127
9367,note_on,1,0,0,,1,,,67,127
9541,note_off,174,0,0,,1,,,67,127
9541,note_off,0,0,0,,0,,,52,95
9542,note_on,1,0,0,,0,,,53,95
9542,note_on,0,0,0,,0,,,69,95
9542,note_on,0,0,0,,0,,,62,95
9542,note_on,0,0,0,,1,,,74,127
9628,note_off,86,0,0,,1,,,74,127
9629,note_on,1,0,0,,1,,,76,127
9715,note_off,86,0,0,,1,,,76,127
9716,note_on,1,0,0,,1,,,77,127
9802,note_off,86,0,0,,1,,,77,127
9803,note_on,1,0,0,,1,,,79,127
9889,note_off,86,0,0,,1,,,79,127
9890,note_on,1,0,0,,1,,,81,127
10064,note_off,174,0,0,,1,,,81,127
10064,note_off,0,0,0,,0,,,62,95
10064,note_off,0,0,0,,0,,,69,95
10065,note_on,1,0,0,,1,,,77,127
10239,note_off,174,0,0,,1,,,77,127
10240,note_on,1,0,0,,1,,,74,127
10414,note_off,174,0,0,,1,,,74,127
10415,note_on,1,0,0,,1,,,69,127
10589,note_off,174,0,0,,1,,,69,127
10589,note_off,0,0,0,,0,,,53,95
10590,note_on,1,0,0,,0,,,55,95
10590,note_on,0,0,0,,0,,,62,95
10590,note_on,0,0,0,,1,,,77,127
10764,note_off,174,0,0,,1,,,77,127
10764,note_off,0,0,0,,0,,,62,95
10765,note_on,1,0,0,,0,,,67,95
10765,note_on,0,0,0,,1,,,74,127
10939,note_off,174,0,0,,1,,,74,127
10939,note_off,0,0,0,,0,,,67,95
10940,note_on,1,0,0,,0,,,62,95
10940,note_on,0,0,0,,1,,,67,127
11114,note_off,174,0,0,,1,,,67,127
11114,note_off,0,0,0,,0,,,62,95
11115,note_on,1,0,0,,0,,,64,95
11115,note_on,0,0,0,,1,,,76,127
11289,note_off,174,0,0,,1,,,76,127
11289,note_off,0,0,0,,0,,,64,95
11290,note_on,1,0,0,,0,,,67,95
11290,note_on,0,0,0,,1,,,72,127
11464,note_off,174,0,0,,1,,,72,127
11464,note_off,0,0,0,,0,,,67,95
11465,note_on,1,0,0,,0,,,62,95
11465,note_on,0,0,0,,1,,,67,127
11639,note_off,174,0,0,,1,,,67,127
11639,note_off,0,0,0,,0,,,62,95
11639,note_off,0,0,0,,0,,,55,95
11640,note_on,1,0,0,,0,,,55,95
11640,note_on,0,0,0,,0,,,65,95
11640,note_on,0,0,0,,1,,,74,127
11814,note_off,174,0,0,,1,,,74,127
11814,note_off,0,0,0,,0,,,65,95
11815,note_on,1,0,0,,0,,,67,95
11815,note_on,0,0,0,,1,,,71,127
11989,note_off,174,0,0,,1,,,71,127
11989,note_off,0,0,0,,0,,,67,95
11990,note_on,1,0,0,,0,,,65,95
11990,note_on,0,0,0,,1,,,67,127
12164,note_off,174,0,0,,1,,,67,127
12164,note_off,0,0,0,,0,,,65,95
12165,note_on,1,0,0,,0,,,64,95
12165,note_on,0,0,0,,1,,,76,127
12339,note_off,174,0,0,,1,,,76,127
12339,note_off,0,0,0,,0,,,64,95
12340,note_on,1,0,0,,0,,,67,95
12340,note_on,0,0,0,,1,,,72,127
12514,note_off,174,0,0,,1,,,72,127
12514,note_off,0,0,0,,0,,,67,95
12515,note_on,1,0,0,,0,,,64,95
12515,note_on,0,0,0,,1,,,67,127
12689,note_off,174,0,0,,1,,,67,127
12689,note_off,0,0,0,,0,,,64,95
12689,note_off,0,0,0,,0,,,55,95
12690,note_on,1,0,0,,0,,,43,95
12690,note_on,0,0,0,,0,,,62,95
12690,note_on,0,0,0,,1,,,77,127
12864,note_off,174,0,0,,1,,,77,127
12864,note_off,0,0,0,,0,,,62,95
12865,note_on,1,0,0,,0,,,67,95
12865,note_on,0,0,0,,1,,,74,127
13039,note_off,174,0,0,,1,,,74,127
13039,note_off,0,0,0,,0,,,67,95
13040,note_on,1,0,0,,0,,,62,95
13040,note_on,0,0,0,,1,,,67,127
13214,note_off,174,0,0,,1,,,67,127
13214,note_off,0,0,0,,0,,,62,95
13215,note_on,1,0,0,,0,,,64,95
13215,note_on,0,0,0,,1,,,76,127
13389,note_off,174,0,0,,1,,,76,127
13389,note_off,0,0,0,,0,,,64,95
13390,note_on,1,0,0,,0,,,67,95
13390,note_on,0,0,0,,1,,,72,127
13564,note_off,174,0,0,,1,,,72,127
13564,note_off,0,0,0,,0,,,67,95
13565,note_on,1,0,0,,0,,,64,95
13565,note_on,0,0,0,,1,,,67,127
13739,note_off,174,0,0,,1,,,67,127
13739,note_off,0,0,0,,0,,,64,95
13739,note_off,0,0,0,,0,,,43,95
13740,note_on,1,0,0,,0,,,43,95
13740,note_on,0,0,0,,0,,,67,95
13740,note_on,0,0,0,,1,,,74,127
13826,note_off,86,0,0,,0,,,67,95
13827,note_on,1,0,0,,0,,,65,95
13913,note_off,86,0,0,,0,,,65,95
13913,note_off,0,0,0,,1,,,74,127
13914,note_on,1,0,0,,0,,,67,95
13914,note_on,0,0,0,,1,,,71,127
14000,note_off,86,0,0,,0,,,67,95
14001,note_on,1,0,0,,0,,,69,95
14087,note_off,86,0,0,,0,,,69,95
14087,note_off,0,0,0,,1,,,71,127
14088,note_on,1,0,0,,0,,,71,95
14088,note_on,0,0,0,,1,,,67,127
14262,note_off,174,0,0,,1,,,67,127
14262,note_off,0,0,0,,0,,,71,95
14262,note_off,0,0,0,,0,,,43,95
14263,note_on,1,0,0,,0,,,52,95
14263,note_on,0,0,0,,0,,,60,95
14263,note_on,0,0,0,,0,,,67,95
14263,note_on,0,0,0,,0,,,72,95
14263,note_on,0,0,0,,1,,,79,127
14349,note_off,86,0,0,,1,,,79,127
14350,note_on,1,0,0,,1,,,77,127
14436,note_off,86,0,0,,1,,,77,127
14437,note_on,1,0,0,,1,,,76,127
14523,note_off,86,0,0,,1,,,76,127
14524,note_on,1,0,0,,1,,,74,127
14610,note_off,86,0,0,,1,,,74,127
14611,note_on,1,0,0,,1,,,72,127
14785,note_off,174,0,0,,1,,,72,127
14785,note_off,0,0,0,,0,,,72,95
14785,note_off,0,0,0,,0,,,67,95
14785,note_off,0,0,0,,0,,,60,95
14785,note_off,0,0,0,,0,,,52,95
14786,note_on,1,0,0,,0,,,53,95
14786,note_on,0,0,0,,0,,,60,95
14786,note_on,0,0,0,,0,,,72,95
14786,note_on,0,0,0,,0,,,69,95
14786,note_on,0,0,0,,1,,,81,127
14960,note_off,174,0,0,,1,,,81,127
14961,note_on,1,0,0,,1,,,83,127
15135,note_off,174,0,0,,1,,,83,127
15136,note_on,1,0,0,,1,,,84,127
15310,note_off,174,0,0,,1,,,84,127
15310,note_off,0,0,0,,0,,,69,95
15310,note_off,0,0,0,,0,,,72,95
15310,note_off,0,0,0,,0,,,60,95
15310,note_off,0,0,0,,0,,,53,95
15311,note_on,1,0,0,,0,,,55,95
15311,note_on,0,0,0,,0,,,71,95
15311,note_on,0,0,0,,0,,,67,95
15311,note_on,0,0,0,,0,,,62,95
15311,note_on,0,0,0,,1,,,74,127
15485,note_off,174,0,0,,1,,,74,127
15485,note_off,0,0,0,,0,,,55,95
15486,note_on,1,0,0,,0,,,53,95
15486,note_on,0,0,0,,1,,,84,127
15660,note_off,174,0,0,,1,,,84,127
15660,note_off,0,0,0,,0,,,53,95
15660,note_off,0,0,0,,0,,,67,95
15661,note_on,1,0,0,,0,,,55,95
15661,note_on,0,0,0,,0,,,65,95
15661,note_on,0,0,0,,1,,,83,127
15835,note_off,174,0,0,,1,,,83,127
15835,note_off,0,0,0,,0,,,65,95
15835,note_off,0,0,0,,0,,,55,95
15835,note_off,0,0,0,,0,,,62,95
15835,note_off,0,0,0,,0,,,71,95
15836,note_on,1,0,0,,0,,,48,95
15836,note_on,0,0,0,,0,,,64,95
15836,note_on,0,0,0,,0,,,67,95
15836,note_on,0,0,0,,0,,,72,95
15836,note_on,0,0,0,,1,,,84,127
16010,note_off,174,0,0,,1,,,84,127
16011,note_on,1,0,0,,1,,,79,127
16185,note_off,174,0,0,,1,,,79,127
16186,note_on,1,0,0,,1,,,76,127
16360,note_off,174,0,0,,1,,,76,127
16360,note_off,0,0,0,,0,,,72,95
16360,note_off,0,0,0,,0,,,67,95
16360,note_off,0,0,0,,0,,,64,95
16360,note_off,0,0,0,,0,,,48,95
16361,note_on,1,0,0,,1,,,72,127
16535,note_off,174,0,0,,1,,,72,127
16536,note_on,1,0,0,,1,,,67,127
16710,note_off,174,0,0,,1,,,67,127
16711,note_on,1,0,0,,1,,,64,127
16885,note_off,174,0,0,,1,,,64,127
16886,note_on,1,0,0,,0,,,60,95
16886,note_on,0,0,0,,0,,,72,95
16886,note_on,0,0,0,,1,,,60,127
17060,note_off,174,0,0,,1,,,60,127
17060,note_off,0,0,0,,0,,,72,95
17061,note_on,1,0,0,,0,,,55,95
17061,note_on,0,0,0,,0,,,67,95
17235,note_off,174,0,0,,0,,,67,95
17235,note_off,0,0,0,,0,,,55,95
17236,note_on,1,0,0,,0,,,52,95
17236,note_on,0,0,0,,0,,,64,95
17410,note_off,174,0,0,,0,,,64,95
17410,note_off,0,0,0,,0,,,52,95
17410,note_off,0,0,0,,0,,,60,95
17411,note_on,1,0,0,,0,,,48,95
17411,note_on,0,0,0,,0,,,60,95
17585,note_off,174,0,0,,0,,,60,95
17585,note_off,0,0,0,,0,,,48,95
17586,note_on,1,0,0,,0,,,43,95
17586,note_on,0,0,0,,0,,,55,95
17760,note_off,174,0,0,,0,,,55,95
17760,note_off,0,0,0,,0,,,43,95
17761,note_on,1,0,0,,0,,,40,95
17761,note_on,0,0,0,,0,,,52,95
17935,note_off,174,0,0,,0,,,52,95
17935,note_off,0,0,0,,0,,,40,95
17936,note_on,1,0,0,,0,,,36,95
17936,note_on,0,0,0,,0,,,48,95
18720,note_off,784,0,0,,0,,,48,95
18720,note_off,0,0,0,,0,,,36,95
18983,note_on,263,0,0,,0,,,48,95
18983,note_on,0,0,0,,0,,,60,95
18983,note_on,0,0,0,,0,,,64,95
18983,note_on,0,0,0,,0,,,67,95
18983,note_on,0,0,0,,1,,,79,127
19506,note_off,523,0,0,,1,,,79,127
19506,note_off,0,0,0,,0,,,67,95
19506,note_off,0,0,0,,0,,,64,95
19506,note_off,0,0,0,,0,,,60,95
19506,note_off,0,0,0,,0,,,48,95
19507,note_on,1,0,0,,0,,,53,95
19507,note_on,0,0,0,,0,,,60,95
19507,note_on,0,0,0,,0,,,69,95
19507,note_on,0,0,0,,0,,,65,95
19507,note_on,0,0,0,,1,,,81,127
20030,note_off,523,0,0,,1,,,81,127
20030,note_off,0,0,0,,0,,,65,95
20030,note_off,0,0,0,,0,,,69,95
20030,note_off,0,0,0,,0,,,60,95
20030,note_off,0,0,0,,0,,,53,95
20031,note_on,1,0,0,,0,,,52,95
20031,note_on,0,0,0,,0,,,55,95
20031,note_on,0,0,0,,0,,,64,95
20031,note_on,0,0,0,,0,,,67,95
20031,note_on,0,0,0,,1,,,79,127
20205,note_off,174,0,0,,1,,,79,127
20206,note_on,1,0,0,,1,,,77,127
20380,note_off,174,0,0,,1,,,77,127
20381,note_on,1,0,0,,1,,,76,127
20555,note_off,174,0,0,,1,,,76,127
20555,note_off,0,0,0,,0,,,64,95
20555,note_off,0,0,0,,0,,,55,95
20555,note_off,0,0,0,,0,,,52,95
20556,note_on,1,0,0,,0,,,48,95
20556,note_on,0,0,0,,0,,,60,95
20556,note_on,0,0,0,,0,,,64,95
20556,note_on,0,0,0,,1,,,76,127
20730,note_off,174,0,0,,1,,,76,127
20731,note_on,1,0,0,,1,,,74,127
20905,note_off,174,0,0,,1,,,74,127
20906,note_on,1,0,0,,1,,,72,127
21080,note_off,174,0,0,,1,,,72,127
21080,note_off,0,0,0,,0,,,64,95
21080,note_off,0,0,0,,0,,,60,95
21080,note_off,0,0,0,,0,,,48,95
21080,note_off,0,0,0,,0,,,67,95
21081,note_on,1,0,0,,0,,,52,95
21081,note_on,0,0,0,,0,,,55,95
21081,note_on,0,0,0,,0,,,60,95
21081,note_on,0,0,0,,0,,,67,95
21081,note_on,0,0,0,,1,,,72,127
21255,note_off,174,0,0,,1,,,72,127
21256,note_on,1,0,0,,1,,,70,127
21430,note_off,174,0,0,,1,,,70,127
21431,note_on,1,0,0,,1,,,69,127
21605,note_off,174,0,0,,1,,,69,127
21605,note_off,0,0,0,,0,,,60,95
21605,note_off,0,0,0,,0,,,55,95
21605,note_off,0,0,0,,0,,,52,95
21606,note_on,1,0,0,,0,,,48,95
21606,note_on,0,0,0,,0,,,60,95
21606,note_on,0,0,0,,0,,,64,95
21606,note_on,0,0,0,,1,,,70,127
21780,note_off,174,0,0,,1,,,70,127
21781,note_on,1,0,0,,1,,,79,127
21955,note_off,174,0,0,,1,,,79,127
21956,note_on,1,0,0,,1,,,70,127
22130,note_off,174,0,0,,1,,,70,127
22130,note_off,0,0,0,,0,,,64,95
22130,note_off,0,0,0,,0,,,60,95
22130,note_off,0,0,0,,0,,,48,95
22130,note_off,0,0,0,,0,,,67,95
22131,note_on,1,0,0,,0,,,53,95
22131,note_on,0,0,0,,0,,,60,95
22131,note_on,0,0,0,,0,,,64,95
22131,note_on,0,0,0,,0,,,67,95
22131,note_on,0,0,0,,1,,,70,127
22305,note_off,174,0,0,,0,,,53,95
22306,note_on,1,0,0,,0,,,52,95
22480,note_off,174,0,0,,0,,,52,95
22481,note_on,1,0,0,,0,,,53,95
22655,note_off,174,0,0,,0,,,53,95
22655,note_off,0,0,0,,1,,,70,127
22655,note_off,0,0,0,,0,,,67,95
22655,note_off,0,0,0,,0,,,64,95
22656,note_on,1,0,0,,0,,,41,95
22656,note_on,0,0,0,,0,,,65,95
22656,note_on,0,0,0,,1,,,69,127
22830,note_off,174,0,0,,0,,,65,95
22831,note_on,1,0,0,,0,,,67,95
23005,note_off,174,0,0,,0,,,67,95
23006,note_on,1,0,0,,0,,,69,95
23180,note_off,174,0,0,,0,,,69,95
23180,note_off,0,0,0,,1,,,69,127
23180,note_off,0,0,0,,0,,,41,95
23180,note_off,0,0,0,,0,,,60,95
23181,note_on,1,0,0,,1,,,65,127
23355,note_off,174,0,0,,1,,,65,127
23356,note_on,1,0,0,,1,,,69,127
23530,note_off,174,0,0,,1,,,69,127
23531,note_on,1,0,0,,1,,,65,127
23705,note_off,174,0,0,,1,,,65,127
23706,note_on,1,0,0,,0,,,53,95
23706,note_on,0,0,0,,0,,,57,95
23706,note_on,0,0,0,,0,,,60,95
23706,note_on,0,0,0,,0,,,65,95
23706,note_on,0,0,0,,1,,,69,127
23880,note_off,174,0,0,,1,,,69,127
23881,note_on,1,0,0,,1,,,72,127
24055,note_off,174,0,0,,1,,,72,127
24056,note_on,1,0,0,,1,,,69,127
24230,note_off,174,0,0,,1,,,69,127
24230,note_off,0,0,0,,0,,,65,95
24230,note_off,0,0,0,,0,,,60,95
24230,note_off,0,0,0,,0,,,57,95
24230,note_off,0,0,0,,0,,,53,95
24231,note_on,1,0,0,,0,,,46,95
24231,note_on,0,0,0,,0,,,58,95
24231,note_on,0,0,0,,0,,,62,95
24231,note_on,0,0,0,,0,,,65,95
24231,note_on,0,0,0,,0,,,70,95
24231,note_on,0,0,0,,1,,,74,127
24405,note_off,174,0,0,,1,,,74,127
24406,note_on,1,0,0,,1,,,76,127
24580,note_off,174,0,0,,1,,,76,127
24581,note_on,1,0,0,,1,,,77,127
24755,note_off,174,0,0,,1,,,77,127
24755,note_off,0,0,0,,0,,,70,95
24755,note_off,0,0,0,,0,,,65,95
24755,note_off,0,0,0,,0,,,62,95
24755,note_off,0,0,0,,0,,,58,95
24755,note_off,0,0,0,,0,,,46,95
24756,note_on,1,0,0,,0,,,45,95
24756,note_on,0,0,0,,0,,,57,95
24756,note_on,0,0,0,,0,,,65,95
24756,note_on,0,0,0,,0,,,70,95
24756,note_on,0,0,0,,0,,,74,95
24756,note_on,0,0,0,,1,,,77,127
24930,note_off,174,0,0,,1,,,77,127
24931,note_on,1,0,0,,1,,,79,127
25105,note_off,174,0,0,,1,,,79,127
25106,note_on,1,0,0,,1,,,81,127
25280,note_off,174,0,0,,1,,,81,127
25280,note_off,0,0,0,,0,,,74,95
25280,note_off,0,0,0,,0,,,70,95
25280,note_off,0,0,0,,0,,,65,95
25280,note_off,0,0,0,,0,,,57,95
25280,note_off,0,0,0,,0,,,45,95
25281,note_on,1,0,0,,0,,,43,95
25281,note_on,0,0,0,,0,,,55,95
25281,note_on,0,0,0,,0,,,67,95
25281,note_on,0,0,0,,0,,,70,95
25281,note_on,0,0,0,,0,,,74,95
25281,note_on,0,0,0,,1,,,82,127
25455,note_off,174,0,0,,1,,,82,127
25456,note_on,1,0,0,,1,,,81,127
25630,note_off,174,0,0,,1,,,81,127
25631,note_on,1,0,0,,1,,,79,127
25805,note_off,174,0,0,,1,,,79,127
25805,note_off,0,0,0,,0,,,74,95
25805,note_off,0,0,0,,0,,,70,95
25805,note_off,0,0,0,,0,,,67,95
25805,note_off,0,0,0,,0,,,55,95
25805,note_off,0,0,0,,0,,,43,95
25806,note_on,1,0,0,,0,,,44,95
25806,note_on,0,0,0,,0,,,56,95
25806,note_on,0,0,0,,0,,,71,95
25806,note_on,0,0,0,,0,,,62,95
25806,note_on,0,0,0,,0,,,64,95
25806,note_on,0,0,0,,1,,,79,127
25980,note_off,174,0,0,,1,,,79,127
25981,note_on,1,0,0,,1,,,77,127
26155,note_off,174,0,0,,1,,,77,127
26156,note_on,1,0,0,,1,,,76,127
26330,note_off,174,0,0,,1,,,76,127
26330,note_off,0,0,0,,0,,,62,95
26330,note_off,0,0,0,,0,,,71,95
26330,note_off,0,0,0,,0,,,56,95
26330,note_off,0,0,0,,0,,,44,95
26331,note_on,1,0,0,,0,,,45,95
26331,note_on,0,0,0,,0,,,57,95
26331,note_on,0,0,0,,0,,,69,95
26331,note_on,0,0,0,,0,,,73,95
26331,note_on,0,0,0,,1,,,73,127
26505,note_off,174,0,0,,1,,,73,127
26506,note_on,1,0,0,,1,,,71,127
26680,note_off,174,0,0,,1,,,71,127
26681,note_on,1,0,0,,1,,,69,127
26855,note_off,174,0,0,,1,,,69,127
26855,note_off,0,0,0,,0,,,73,95
26855,note_off,0,0,0,,0,,,69,95
26855,note_off,0,0,0,,0,,,57,95
26855,note_off,0,0,0,,0,,,45,95
26855,note_off,0,0,0,,0,,,64,95
26856,note_on,1,0,0,,0,,,45,95
26856,note_on,0,0,0,,0,,,57,95
26856,note_on,0,0,0,,0,,,69,95
26856,note_on,0,0,0,,1,,,81,127
27030,note_off,174,0,0,,1,,,81,127
27030,note_off,0,0,0,,0,,,69,95
27031,note_on,1,0,0,,0,,,77,95
27031,note_on,0,0,0,,1,,,77,127
27205,note_off,174,0,0,,1,,,77,127
27205,note_off,0,0,0,,0,,,77,95
27206,note_on,1,0,0,,0,,,81,95
27206,note_on,0,0,0,,1,,,69,127
27380,note_off,174,0,0,,1,,,69,127
27380,note_off,0,0,0,,0,,,81,95
27380,note_off,0,0,0,,0,,,57,95
27380,note_off,0,0,0,,0,,,45,95
27381,note_on,1,0,0,,0,,,45,95
27381,note_on,0,0,0,,0,,,57,95
27381,note_on,0,0,0,,0,,,69,95
27381,note_on,0,0,0,,1,,,79,127
27555,note_off,174,0,0,,1,,,79,127
27555,note_off,0,0,0,,0,,,69,95
27556,note_on,1,0,0,,0,,,76,95
27556,note_on,0,0,0,,1,,,76,127
27730,note_off,174,0,0,,1,,,76,127
27730,note_off,0,0,0,,0,,,76,95
27731,note_on,1,0,0,,0,,,79,95
27731,note_on,0,0,0,,1,,,69,127
27905,note_off,174,0,0,,1,,,69,127
27905,note_off,0,0,0,,0,,,79,95
27905,note_off,0,0,0,,0,,,57,95
27905,note_off,0,0,0,,0,,,45,95
27906,note_on,1,0,0,,0,,,45,95
27906,note_on,0,0,0,,0,,,57,95
27906,note_on,0,0,0,,0,,,69,95
27906,note_on,0,0,0,,1,,,77,127
28080,note_off,174,0,0,,1,,,77,127
28080,note_off,0,0,0,,0,,,69,95
28081,note_on,1,0,0,,0,,,74,95
28081,note_on,0,0,0,,1,,,74,127
28255,note_off,174,0,0,,1,,,74,127
28255,note_off,0,0,0,,0,,,74,95
28256,note_on,1,0,0,,0,,,77,95
28256,note_on,0,0,0,,1,,,69,127
28430,note_off,174,0,0,,1,,,69,127
28430,note_off,0,0,0,,0,,,77,95
28430,note_off,0,0,0,,0,,,57,95
28430,note_off,0,0,0,,0,,,45,95
28431,note_on,1,0,0,,0,,,45,95
28431,note_on,0,0,0,,0,,,57,95
28431,note_on,0,0,0,,0,,,69,95
28431,note_on,0,0,0,,1,,,76,127
28605,note_off,174,0,0,,1,,,76,127
28605,note_off,0,0,0,,0,,,69,95
28606,note_on,1,0,0,,0,,,73,95
28606,note_on,0,0,0,,1,,,73,127
28780,note_off,174,0,0,,1,,,73,127
28780,note_off,0,0,0,,0,,,73,95
28781,note_on,1,0,0,,0,,,76,95
28781,note_on,0,0,0,,1,,,69,127
28955,note_off,174,0,0,,1,,,69,127
28955,note_off,0,0,0,,0,,,76,95
28955,note_off,0,0,0,,0,,,57,95
28955,note_off,0,0,0,,0,,,45,95
28956,note_on,1,0,0,,0,,,45,95
28956,note_on,0,0,0,,0,,,57,95
28956,note_on,0,0,0,,0,,,69,95
28956,note_on,0,0,0,,1,,,77,127
29130,note_off,174,0,0,,1,,,77,127
29130,note_off,0,0,0,,0,,,69,95
29131,note_on,1,0,0,,0,,,74,95
29131,note_on,0,0,0,,1,,,74,127
29305,note_off,174,0,0,,1,,,74,127
29305,note_off,0,0,0,,0,,,74,95
29306,note_on,1,0,0,,0,,,77,95
29306,note_on,0,0,0,,1,,,69,127
29480,note_off,174,0,0,,1,,,69,127
29480,note_off,0,0,0,,0,,,77,95
29480,note_off,0,0,0,,0,,,57,95
29480,note_off,0,0,0,,0,,,45,95
29481,note_on,1,0,0,,0,,,45,95
29481,note_on,0,0,0,,0,,,57,95
29481,note_on,0,0,0,,0,,,69,95
29481,note_on,0,0,0,,1,,,76,127
29655,note_off,174,0,0,,1,,,76,127
29655,note_off,0,0,0,,0,,,69,95
29656,note_on,1,0,0,,0,,,73,95
29656,note_on,0,0,0,,1,,,73,127
29830,note_off,174,0,0,,1,,,73,127
29830,note_off,0,0,0,,0,,,73,95
29831,note_on,1,0,0,,0,,,76,95
29831,note_on,0,0,0,,1,,,69,127
30005,note_off,174,0,0,,1,,,69,127
30005,note_off,0,0,0,,0,,,76,95
30005,note_off,0,0,0,,0,,,57,95
30005,note_off,0,0,0,,0,,,45,95
30006,note_on,1,0,0,,0,,,45,95
30006,note_on,0,0,0,,0,,,57,95
30006,note_on,0,0,0,,0,,,65,95
30006,note_on,0,0,0,,1,,,74,127
30180,note_off,174,0,0,,1,,,74,127
30180,note_off,0,0,0,,0,,,65,95
30181,note_on,1,0,0,,0,,,69,95
30181,note_on,0,0,0,,1,,,69,127
30355,note_off,174,0,0,,1,,,69,127
30355,note_off,0,0,0,,0,,,69,95
30356,note_on,1,0,0,,0,,,74,95
30356,note_on,0,0,0,,1,,,65,127
30530,note_off,174,0,0,,1,,,65,127
30530,note_off,0,0,0,,0,,,74,95
30530,note_off,0,0,0,,0,,,57,95
30530,note_off,0,0,0,,0,,,45,95
30531,note_on,1,0,0,,0,,,45,95
30531,note_on,0,0,0,,0,,,57,95
30531,note_on,0,0,0,,0,,,64,95
30531,note_on,0,0,0,,0,,,69,95
30531,note_on,0,0,0,,0,,,73,95
30531,note_on,0,0,0,,1,,,73,127
30705,note_off,174,0,0,,1,,,73,127
30706,note_on,1,0,0,,1,,,71,127
30880,note_off,174,0,0,,1,,,71,127
30881,note_on,1,0,0,,1,,,69,127
31055,note_off,174,0,0,,1,,,69,127
31055,note_off,0,0,0,,0,,,73,95
31055,note_off,0,0,0,,0,,,69,95
31055,note_off,0,0,0,,0,,,64,95
31055,note_off,0,0,0,,0,,,57,95
31055,note_off,0,0,0,,0,,,45,95
31056,note_on,1,0,0,,0,,,42,95
31056,note_on,0,0,0,,0,,,54,95
31056,note_on,0,0,0,,0,,,69,95
31056,note_on,0,0,0,,0,,,62,95
31056,note_on,0,0,0,,1,,,74,127
31142,note_off,86,0,0,,1,,,74,127
31143,note_on,1,0,0,,1,,,76,127
31229,note_off,86,0,0,,1,,,76,127
31230,note_on,1,0,0,,1,,,78,127
31316,note_off,86,0,0,,1,,,78,127
31317,note_on,1,0,0,,1,,,79,127
31403,note_off,86,0,0,,1,,,79,127
31404,note_on,1,0,0,,1,,,81,127
31578,note_off,174,0,0,,1,,,81,127
31578,note_off,0,0,0,,0,,,62,95
31578,note_off,0,0,0,,0,,,69,95
31578,note_off,0,0,0,,0,,,54,95
31578,note_off,0,0,0,,0,,,42,95
31579,note_on,1,0,0,,0,,,43,95
31579,note_on,0,0,0,,0,,,55,95
31579,note_on,0,0,0,,0,,,70,95
31579,note_on,0,0,0,,0,,,62,95
31579,note_on,0,0,0,,1,,,70,127
31753,note_off,174,0,0,,1,,,70,127
31754,note_on,1,0,0,,1,,,74,127
31928,note_off,174,0,0,,1,,,74,127
31929,note_on,1,0,0,,1,,,79,127
32103,note_off,174,0,0,,1,,,79,127
32103,note_off,0,0,0,,0,,,62,95
32103,note_off,0,0,0,,0,,,70,95
32103,note_off,0,0,0,,0,,,55,95
32103,note_off,0,0,0,,0,,,43,95
32104,note_on,1,0,0,,0,,,38,95
32104,note_on,0,0,0,,0,,,50,95
32104,note_on,0,0,0,,0,,,62,95
32104,note_on,0,0,0,,0,,,72,95
32104,note_on,0,0,0,,1,,,69,127
32278,note_off,174,0,0,,1,,,69,127
32279,note_on,1,0,0,,1,,,72,127
32453,note_off,174,0,0,,0,,,72,95
32454,note_on,1,0,0,,1,,,78,127
32628,note_off,174,0,0,,1,,,78,127
32628,note_off,0,0,0,,1,,,72,127
32628,note_off,0,0,0,,0,,,62,95
32628,note_off,0,0,0,,0,,,50,95
32628,note_off,0,0,0,,0,,,38,95
32629,note_on,1,0,0,,0,,,43,95
32629,note_on,0,0,0,,0,,,55,95
32629,note_on,0,0,0,,0,,,62,95
32629,note_on,0,0,0,,0,,,70,95
32629,note_on,0,0,0,,1,,,67,127
32715,note_off,86,0,0,,1,,,67,127
32716,note_on,1,0,0,,1,,,69,127
32802,note_off,86,0,0,,1,,,69,127
32803,note_on,1,0,0,,1,,,70,127
32889,note_off,86,0,0,,0,,,70,95
32890,note_on,1,0,0,,1,,,72,127
32976,note_off,86,0,0,,1,,,72,127
32977,note_on,1,0,0,,1,,,74,127
33151,note_off,174,0,0,,1,,,74,127
33151,note_off,0,0,0,,1,,,70,127
33151,note_off,0,0,0,,0,,,62,95
33151,note_off,0,0,0,,0,,,55,95
33151,note_off,0,0,0,,0,,,43,95
33152,note_on,1,0,0,,0,,,52,95
33152,note_on,0,0,0,,0,,,60,95
33152,note_on,0,0,0,,0,,,67,95
33152,note_on,0,0,0,,0,,,72,95
33152,note_on,0,0,0,,1,,,72,127
33326,note_off,174,0,0,,1,,,72,127
33327,note_on,1,0,0,,1,,,76,127
33501,note_off,174,0,0,,1,,,76,127
33502,note_on,1,0,0,,1,,,79,127
33676,note_off,174,0,0,,1,,,79,127
33676,note_off,0,0,0,,0,,,72,95
33676,note_off,0,0,0,,0,,,67,95
33676,note_off,0,0,0,,0,,,60,95
33676,note_off,0,0,0,,0,,,52,95
33677,note_on,1,0,0,,0,,,53,95
33677,note_on,0,0,0,,0,,,60,95
33677,note_on,0,0,0,,0,,,69,95
33677,note_on,0,0,0,,0,,,72,95
33677,note_on,0,0,0,,1,,,69,127
33851,note_off,174,0,0,,1,,,69,127
33852,note_on,1,0,0,,1,,,72,127
34026,note_off,174,0,0,,0,,,72,95
34027,note_on,1,0,0,,1,,,77,127
34201,note_off,174,0,0,,1,,,77,127
34201,note_off,0,0,0,,1,,,72,127
34201,note_off,0,0,0,,0,,,69,95
34201,note_off,0,0,0,,0,,,60,95
34201,note_off,0,0,0,,0,,,53,95
34202,note_on,1,0,0,,0,,,48,95
34202,note_on,0,0,0,,0,,,60,95
34202,note_on,0,0,0,,0,,,67,95
34202,note_on,0,0,0,,0,,,64,95
34202,note_on,0,0,0,,0,,,72,95
34202,note_on,0,0,0,,1,,,67,127
34376,note_off,174,0,0,,1,,,67,127
34377,note_on,1,0,0,,1,,,72,127
34551,note_off,174,0,0,,0,,,72,95
34552,note_on,1,0,0,,1,,,76,127
34726,note_off,174,0,0,,1,,,76,127
34726,note_off,0,0,0,,1,,,72,127
34726,note_off,0,0,0,,0,,,64,95
34726,note_off,0,0,0,,0,,,67,95
34726,note_off,0,0,0,,0,,,60,95
34726,note_off,0,0,0,,0,,,48,95
34727,note_on,1,0,0,,0,,,53,95
34727,note_on,0,0,0,,0,,,72,95
34727,note_on,0,0,0,,0,,,69,95
34727,note_on,0,0,0,,1,,,65,127
34813,note_off,86,0,0,,1,,,65,127
34814,note_on,1,0,0,,1,,,67,127
34900,note_off,86,0,0,,1,,,67,127
34901,note_on,1,0,0,,1,,,69,127
34987,note_off,86,0,0,,0,,,69,95
34988,note_on,1,0,0,,1,,,70,127
35074,note_off,86,0,0,,1,,,70,127
35075,note_on,1,0,0,,1,,,72,127
35249,note_off,174,0,0,,1,,,72,127
35249,note_off,0,0,0,,1,,,69,127
35249,note_off,0,0,0,,0,,,72,95
35249,note_off,0,0,0,,0,,,53,95
35250,note_on,1,0,0,,0,,,50,95
35250,note_on,0,0,0,,0,,,62,95
35250,note_on,0,0,0,,0,,,65,95
35250,note_on,0,0,0,,1,,,77,127
35424,note_off,174,0,0,,1,,,77,127
35424,note_off,0,0,0,,0,,,65,95
35425,note_on,1,0,0,,0,,,70,95
35425,note_on,0,0,0,,1,,,70,127
35599,note_off,174,0,0,,1,,,70,127
35599,note_off,0,0,0,,0,,,70,95
35600,note_on,1,0,0,,0,,,77,95
35600,note_on,0,0,0,,1,,,65,127
35774,note_off,174,0,0,,1,,,65,127
35774,note_off,0,0,0,,0,,,77,95
35774,note_off,0,0,0,,0,,,62,95
35774,note_off,0,0,0,,0,,,50,95
35775,note_on,1,0,0,,0,,,48,95
35775,note_on,0,0,0,,0,,,60,95
35775,note_on,0,0,0,,0,,,65,95
35775,note_on,0,0,0,,1,,,76,127
35949,note_off,174,0,0,,1,,,76,127
35949,note_off,0,0,0,,0,,,65,95
35950,note_on,1,0,0,,0,,,69,95
35950,note_on,0,0,0,,1,,,69,127
36124,note_off,174,0,0,,1,,,69,127
36124,note_off,0,0,0,,0,,,69,95
36125,note_on,1,0,0,,0,,,76,95
36125,note_on,0,0,0,,1,,,65,127
36299,note_off,174,0,0,,1,,,65,127
36299,note_off,0,0,0,,0,,,76,95
36299,note_off,0,0,0,,0,,,60,95
36299,note_off,0,0,0,,0,,,48,95
36300,note_on,1,0,0,,0,,,46,95
36300,note_on,0,0,0,,0,,,58,95
36300,note_on,0,0,0,,0,,,65,95
36300,note_on,0,0,0,,1,,,74,127
36474,note_off,174,0,0,,1,,,74,127
36474,note_off,0,0,0,,0,,,65,95
36475,note_on,1,0,0,,0,,,70,95
36475,note_on,0,0,0,,1,,,70,127
36649,note_off,174,0,0,,1,,,70,127
36649,note_off,0,0,0,,0,,,70,95
36650,note_on,1,0,0,,0,,,74,95
36650,note_on,0,0,0,,1,,,65,127
36824,note_off,174,0,0,,1,,,65,127
36824,note_off,0,0,0,,0,,,74,95
36824,note_off,0,0,0,,0,,,58,95
36824,note_off,0,0,0,,0,,,46,95
36825,note_on,1,0,0,,0,,,45,95
36825,note_on,0,0,0,,0,,,57,95
36825,note_on,0,0,0,,0,,,60,95
36825,note_on,0,0,0,,0,,,65,95
36825,note_on,0,0,0,,1,,,72,127
36911,note_off,86,0,0,,1,,,72,127
36912,note_on,1,0,0,,1,,,74,127
36998,note_off,86,0,0,,1,,,74,127
36999,note_on,1,0,0,,1,,,76,127
37085,note_off,86,0,0,,1,,,76,127
37086,note_on,1,0,0,,1,,,77,127
37172,note_off,86,0,0,,1,,,77,127
37173,note_on,1,0,0,,1,,,79,127
37347,note_off,174,0,0,,1,,,79,127
37347,note_off,0,0,0,,0,,,65,95
37347,note_off,0,0,0,,0,,,60,95
37347,note_off,0,0,0,,0,,,57,95
37347,note_off,0,0,0,,0,,,45,95
37348,note_on,1,0,0,,0,,,53,95
37348,note_on,0,0,0,,0,,,57,95
37348,note_on,0,0,0,,0,,,72,95
37348,note_on,0,0,0,,1,,,81,127
37522,note_off,174,0,0,,1,,,81,127
37522,note_off,0,0,0,,0,,,72,95
37523,note_on,1,0,0,,0,,,77,95
37523,note_on,0,0,0,,1,,,77,127
37697,note_off,174,0,0,,1,,,77,127
37697,note_off,0,0,0,,0,,,77,95
37698,note_on,1,0,0,,0,,,81,95
37698,note_on,0,0,0,,1,,,72,127
37872,note_off,174,0,0,,1,,,72,127
37872,note_off,0,0,0,,0,,,81,95
37872,note_off,0,0,0,,0,,,57,95
37872,note_off,0,0,0,,0,,,53,95
37873,note_on,1,0,0,,0,,,52,95
37873,note_on,0,0,0,,0,,,60,95
37873,note_on,0,0,0,,0,,,70,95
37873,note_on,0,0,0,,1,,,79,127
38047,note_off,174,0,0,,1,,,79,127
38047,note_off,0,0,0,,0,,,70,95
38048,note_on,1,0,0,,0,,,76,95
38048,note_on,0,0,0,,1,,,76,127
38222,note_off,174,0,0,,1,,,76,127
38222,note_off,0,0,0,,0,,,76,95
38223,note_on,1,0,0,,0,,,79,95
38223,note_on,0,0,0,,1,,,70,127
38397,note_off,174,0,0,,1,,,70,127
38397,note_off,0,0,0,,0,,,79,95
38397,note_off,0,0,0,,0,,,60,95
38397,note_off,0,0,0,,0,,,52,95
38398,note_on,1,0,0,,0,,,53,95
38398,note_on,0,0,0,,0,,,60,95
38398,note_on,0,0,0,,0,,,69,95
38398,note_on,0,0,0,,1,,,77,127
38572,note_off,174,0,0,,1,,,77,127
38572,note_off,0,0,0,,0,,,69,95
38573,note_on,1,0,0,,0,,,72,95
38573,note_on,0,0,0,,1,,,72,127
38747,note_off,174,0,0,,1,,,72,127
38747,note_off,0,0,0,,0,,,72,95
38748,note_on,1,0,0,,0,,,77,95
38748,note_on,0,0,0,,1,,,69,127
38922,note_off,174,0,0,,1,,,69,127
38922,note_off,0,0,0,,0,,,77,95
38922,note_off,0,0,0,,0,,,60,95
38922,note_off,0,0,0,,0,,,53,95
38923,note_on,1,0,0,,0,,,52,95
38923,note_on,0,0,0,,0,,,60,95
38923,note_on,0,0,0,,0,,,67,95
38923,note_on,0,0,0,,0,,,70,95
38923,note_on,0,0,0,,0,,,72,95
38923,note_on,0,0,0,,1,,,76,127
39009,note_off,86,0,0,,1,,,76,127
39010,note_on,1,0,0,,1,,,77,127
39096,note_off,86,0,0,,1,,,77,127
39097,note_on,1,0,0,,1,,,79,127
39183,note_off,86,0,0,,1,,,79,127
39184,note_on,1,0,0,,1,,,81,127
39270,note_off,86,0,0,,1,,,81,127
39271,note_on,1,0,0,,1,,,82,127
39445,note_off,174,0,0,,1,,,82,127
39445,note_off,0,0,0,,0,,,72,95
39445,note_off,0,0,0,,0,,,70,95
39445,note_off,0,0,0,,0,,,67,95
39445,note_off,0,0,0,,0,,,60,95
39445,note_off,0,0,0,,0,,,52,95
39446,note_on,1,0,0,,0,,,53,95
39446,note_on,0,0,0,,0,,,60,95
39446,note_on,0,0,0,,1,,,84,127
39620,note_off,174,0,0,,1,,,84,127
39621,note_on,1,0,0,,0,,,65,95
39621,note_on,0,0,0,,1,,,81,127
39795,note_off,174,0,0,,1,,,81,127
39795,note_off,0,0,0,,0,,,65,95
39796,note_on,1,0,0,,0,,,72,95
39796,note_on,0,0,0,,1,,,72,127
39970,note_off,174,0,0,,1,,,72,127
39970,note_off,0,0,0,,0,,,72,95
39970,note_off,0,0,0,,0,,,60,95
39970,note_off,0,0,0,,0,,,53,95
39971,note_on,1,0,0,,0,,,48,95
39971,note_on,0,0,0,,0,,,67,95
39971,note_on,0,0,0,,1,,,82,127
40145,note_off,174,0,0,,1,,,82,127
40145,note_off,0,0,0,,0,,,67,95
40146,note_on,1,0,0,,0,,,70,95
40146,note_on,0,0,0,,1,,,79,127
40320,note_off,174,0,0,,1,,,79,127
40320,note_off,0,0,0,,0,,,70,95
40321,note_on,1,0,0,,0,,,72,95
40321,note_on,0,0,0,,1,,,72,127
40495,note_off,174,0,0,,1,,,72,127
40495,note_off,0,0,0,,0,,,72,95
40496,note_on,1,0,0,,0,,,65,95
40496,note_on,0,0,0,,1,,,81,127
40670,note_off,174,0,0,,1,,,81,127
40670,note_off,0,0,0,,0,,,65,95
40671,note_on,1,0,0,,0,,,69,95
40671,note_on,0,0,0,,1,,,77,127
40845,note_off,174,0,0,,1,,,77,127
40845,note_off,0,0,0,,0,,,69,95
40846,note_on,1,0,0,,0,,,72,95
40846,note_on,0,0,0,,1,,,72,127
41020,note_off,174,0,0,,1,,,72,127
41020,note_off,0,0,0,,0,,,72,95
41021,note_on,1,0,0,,0,,,64,95
41021,note_on,0,0,0,,1,,,79,127
41195,note_off,174,0,0,,1,,,79,127
41195,note_off,0,0,0,,0,,,64,95
41196,note_on,1,0,0,,0,,,67,95
41196,note_on,0,0,0,,1,,,77,127
41370,note_off,174,0,0,,1,,,77,127
41370,note_off,0,0,0,,0,,,67,95
41371,note_on,1,0,0,,0,,,72,95
41371,note_on,0,0,0,,1,,,76,127
41545,note_off,174,0,0,,1,,,76,127
41545,note_off,0,0,0,,0,,,72,95
41545,note_off,0,0,0,,0,,,48,95
41546,note_on,1,0,0,,0,,,45,95
41546,note_on,0,0,0,,0,,,57,95
41546,note_on,0,0,0,,0,,,65,95
41546,note_on,0,0,0,,0,,,69,95
41546,note_on,0,0,0,,0,,,72,95
41546,note_on,0,0,0,,1,,,77,127
41632,note_off,86,0,0,,1,,,77,127
41633,note_on,1,0,0,,1,,,76,127
41719,note_off,86,0,0,,1,,,76,127
41720,note_on,1,0,0,,1,,,74,127
41806,note_off,86,0,0,,1,,,74,127
41807,note_on,1,0,0,,1,,,72,127
41893,note_off,86,0,0,,0,,,72,95
41894,note_on,1,0,0,,1,,,70,127
41980,note_off,86,0,0,,1,,,70,127
41981,note_on,1,0,0,,1,,,69,127
42067,note_off,86,0,0,,1,,,69,127
42067,note_off,0,0,0,,1,,,72,127
42067,note_off,0,0,0,,0,,,69,95
42067,note_off,0,0,0,,0,,,65,95
42067,note_off,0,0,0,,0,,,57,95
42067,note_off,0,0,0,,0,,,45,95
42068,note_on,1,0,0,,0,,,46,95
42068,note_on,0,0,0,,0,,,58,95
42068,note_on,0,0,0,,0,,,62,95
42068,note_on,0,0,0,,0,,,65,95
42068,note_on,0,0,0,,0,,,67,95
42068,note_on,0,0,0,,1,,,74,127
42242,note_off,174,0,0,,1,,,74,127
42243,note_on,1,0,0,,1,,,76,127
42417,note_off,174,0,0,,1,,,76,127
42418,note_on,1,0,0,,1,,,77,127
42592,note_off,174,0,0,,1,,,77,127
42592,note_off,0,0,0,,0,,,67,95
42592,note_off,0,0,0,,0,,,65,95
42592,note_off,0,0,0,,0,,,62,95
42592,note_off,0,0,0,,0,,,58,95
42592,note_off,0,0,0,,0,,,46,95
42593,note_on,1,0,0,,0,,,48,95
42593,note_on,0,0,0,,0,,,60,95
42593,note_on,0,0,0,,0,,,64,95
42593,note_on,0,0,0,,0,,,67,95
42593,note_on,0,0,0,,0,,,70,95
42593,note_on,0,0,0,,1,,,67,127
42767,note_off,174,0,0,,1,,,67,127
42768,note_on,1,0,0,,1,,,77,127
42942,note_off,174,0,0,,1,,,77,127
42943,note_on,1,0,0,,1,,,76,127
43117,note_off,174,0,0,,1,,,76,127
43117,note_off,0,0,0,,0,,,70,95
43117,note_off,0,0,0,,0,,,67,95
43117,note_off,0,0,0,,0,,,64,95
43117,note_off,0,0,0,,0,,,60,95
43117,note_off,0,0,0,,0,,,48,95
43118,note_on,1,0,0,,0,,,41,95
43118,note_on,0,0,0,,0,,,53,95
43118,note_on,0,0,0,,0,,,65,95
43118,note_on,0,0,0,,0,,,69,95
43118,note_on,0,0,0,,0,,,72,95
43118,note_on,0,0,0,,1,,,77,127
43292,note_off,174,0,0,,1,,,77,127
43293,note_on,1,0,0,,1,,,84,127
43467,note_off,174,0,0,,1,,,84,127
43468,note_on,1,0,0,,1,,,81,127
43642,note_off,174,0,0,,1,,,81,127
43642,note_off,0,0,0,,0,,,72,95
43642,note_off,0,0,0,,0,,,69,95
43642,note_off,0,0,0,,0,,,65,95
43642,note_off,0,0,0,,0,,,53,95
43642,note_off,0,0,0,,0,,,41,95
43643,note_on,1,0,0,,1,,,77,127
43817,note_off,174,0,0,,1,,,77,127
43818,note_on,1,0,0,,1,,,72,127
43992,note_off,174,0,0,,1,,,72,127
43993,note_on,1,0,0,,1,,,69,127
44167,note_off,174,0,0,,1,,,69,127
44168,note_on,1,0,0,,1,,,65,127
44351,note_on,183,0,0,,0,,,60,95
44351,note_on,0,0,0,,0,,,72,95
44533,note_off,182,0,0,,0,,,72,95
44533,note_off,0,0,0,,0,,,60,95
44534,note_on,1,0,0,,0,,,57,95
44534,note_on,0,0,0,,0,,,69,95
44716,note_off,182,0,0,,0,,,69,95
44716,note_off,0,0,0,,0,,,57,95
44716,note_off,0,0,0,,1,,,65,127
44717,note_on,1,0,0,,0,,,53,95
44717,note_on,0,0,0,,0,,,65,95
44899,note_off,182,0,0,,0,,,65,95
44899,note_off,0,0,0,,0,,,53,95
44900,note_on,1,0,0,,0,,,48,95
44900,note_on,0,0,0,,0,,,60,95
45082,note_off,182,0,0,,0,,,60,95
45082,note_off,0,0,0,,0,,,48,95
45083,note_on,1,0,0,,0,,,45,95
45083,note_on,0,0,0,,0,,,57,95
45265,note_off,182,0,0,,0,,,57,95
45265,note_off,0,0,0,,0,,,45,95
45298,note_on,33,0,0,,0,,,41,95
45298,note_on,0,0,0,,0,,,53,95
47097,note_off,1799,0,0,,0,,,53,95
47097,note_off,0,0,0,,0,,,41,95
47553,note_on,456,0,0,,0,,,53,95
47553,note_on,0,0,0,,0,,,65,95
47553,note_on,0,0,0,,1,,,77,127
47738,note_off,185,0,0,,1,,,77,127
47739,note_on,1,0,0,,0,,,69,95
47739,note_on,0,0,0,,1,,,79,127
47924,note_off,185,0,0,,1,,,79,127
47925,note_on,1,0,0,,0,,,72,95
47925,note_on,0,0,0,,1,,,81,127
48296,note_off,371,0,0,,1,,,81,127
48296,note_off,0,0,0,,0,,,69,95
48296,note_off,0,0,0,,0,,,65,95
48296,note_off,0,0,0,,0,,,53,95
48297,note_on,1,0,0,,0,,,48,95
48297,note_on,0,0,0,,0,,,64,95
48297,note_on,0,0,0,,1,,,79,127
48668,note_off,371,0,0,,1,,,79,127
48668,note_off,0,0,0,,0,,,64,95
48668,note_off,0,0,0,,0,,,48,95
48668,note_off,0,0,0,,0,,,72,95
48669,note_on,1,0,0,,0,,,41,95
48669,note_on,0,0,0,,0,,,65,95
48669,note_on,0,0,0,,1,,,69,127
48855,note_on,186,0,0,,0,,,69,95
49040,note_off,185,0,0,,1,,,69,127
49041,note_on,1,0,0,,0,,,72,95
49041,note_on,0,0,0,,1,,,72,127
49412,note_off,371,0,0,,1,,,72,127
49412,note_off,0,0,0,,0,,,65,95
49413,note_on,1,0,0,,1,,,77,127
49598,note_off,185,0,0,,0,,,69,95
49784,note_off,186,0,0,,1,,,77,127
49784,note_off,0,0,0,,0,,,72,95
49784,note_off,0,0,0,,0,,,41,95
49785,note_on,1,0,0,,0,,,53,95
49785,note_on,0,0,0,,0,,,65,95
49785,note_on,0,0,0,,1,,,81,127
49970,note_off,185,0,0,,1,,,81,127
49971,note_on,1,0,0,,0,,,69,95
49971,note_on,0,0,0,,1,,,82,127
50156,note_off,185,0,0,,1,,,82,127
50157,note_on,1,0,0,,0,,,72,95
50157,note_on,0,0,0,,1,,,84,127
50528,note_off,371,0,0,,1,,,84,127
50528,note_off,0,0,0,,0,,,69,95
50528,note_off,0,0,0,,0,,,65,95
50528,note_off,0,0,0,,0,,,53,95
50529,note_on,1,0,0,,0,,,48,95
50529,note_on,0,0,0,,0,,,64,95
50529,note_on,0,0,0,,1,,,82,127
50900,note_off,371,0,0,,1,,,82,127
50900,note_off,0,0,0,,0,,,64,95
50900,note_off,0,0,0,,0,,,48,95
50900,note_off,0,0,0,,0,,,72,95
50901,note_on,1,0,0,,0,,,45,95
50901,note_on,0,0,0,,0,,,65,95
50901,note_on,0,0,0,,1,,,72,127
51087,note_on,186,0,0,,0,,,69,95
51272,note_off,185,0,0,,1,,,72,127
51273,note_on,1,0,0,,0,,,72,95
51273,note_on,0,0,0,,1,,,76,127
51644,note_off,371,0,0,,1,,,76,127
51644,note_off,0,0,0,,0,,,65,95
51644,note_off,0,0,0,,0,,,45,95
51645,note_on,1,0,0,,0,,,57,95
51645,note_on,0,0,0,,1,,,77,127
51830,note_off,185,0,0,,0,,,69,95
52016,note_off,186,0,0,,1,,,77,127
52016,note_off,0,0,0,,0,,,57,95
52016,note_off,0,0,0,,0,,,72,95
52017,note_on,1,0,0,,0,,,43,95
52017,note_on,0,0,0,,0,,,64,95
52017,note_on,0,0,0,,1,,,70,127
52203,note_on,186,0,0,,0,,,67,95
52388,note_off,185,0,0,,1,,,70,127
52389,note_on,1,0,0,,0,,,70,95
52389,note_on,0,0,0,,1,,,77,127
52760,note_off,371,0,0,,1,,,77,127
52760,note_off,0,0,0,,0,,,64,95
52760,note_off,0,0,0,,0,,,43,95
52761,note_on,1,0,0,,0,,,55,95
52761,note_on,0,0,0,,1,,,79,127
52946,note_off,185,0,0,,0,,,67,95
53132,note_off,186,0,0,,1,,,79,127
53132,note_off,0,0,0,,0,,,55,95
53132,note_off,0,0,0,,0,,,70,95
53133,note_on,1,0,0,,0,,,41,95
53133,note_on,0,0,0,,0,,,65,95
53133,note_on,0,0,0,,1,,,69,127
53319,note_on,186,0,0,,0,,,69,95
53504,note_off,185,0,0,,1,,,69,127
53505,note_on,1,0,0,,0,,,72,95
53505,note_on,0,0,0,,1,,,79,127
53876,note_off,371,0,0,,1,,,79,127
53876,note_off,0,0,0,,0,,,65,95
53876,note_off,0,0,0,,0,,,41,95
53877,note_on,1,0,0,,0,,,53,95
53877,note_on,0,0,0,,1,,,81,127
54062,note_off,185,0,0,,0,,,69,95
54248,note_off,186,0,0,,1,,,81,127
54248,note_off,0,0,0,,0,,,53,95
54249,note_on,1,0,0,,0,,,45,95
54249,note_on,0,0,0,,1,,,84,127
54620,note_off,371,0,0,,1,,,84,127
54621,note_on,1,0,0,,0,,,65,95
54621,note_on,0,0,0,,1,,,82,127
54806,note_off,185,0,0,,1,,,82,127
54807,note_on,1,0,0,,1,,,81,127
54990,note_off,183,0,0,,0,,,72,95
54992,note_off,2,0,0,,1,,,81,127
54992,note_off,0,0,0,,0,,,45,95
54993,note_on,1,0,0,,0,,,46,95
54993,note_on,0,0,0,,1,,,79,127
55178,note_off,185,0,0,,1,,,79,127
55179,note_on,1,0,0,,1,,,77,127
55364,note_off,185,0,0,,1,,,77,127
55364,note_off,0,0,0,,0,,,46,95
55364,note_off,0,0,0,,0,,,65,95
55365,note_on,1,0,0,,0,,,48,95
55365,note_on,0,0,0,,0,,,64,95
55365,note_on,0,0,0,,1,,,79,127
55551,note_on,186,0,0,,0,,,67,95
55737,note_on,186,0,0,,0,,,72,95
56108,note_off,371,0,0,,0,,,64,95
56294,note_off,186,0,0,,0,,,67,95
56480,note_off,186,0,0,,0,,,72,95
56480,note_off,0,0,0,,1,,,79,127
56480,note_off,0,0,0,,0,,,48,95
56481,note_on,1,0,0,,0,,,48,95
56481,note_on,0,0,0,,0,,,60,95
56481,note_on,0,0,0,,1,,,76,127
56666,note_off,185,0,0,,1,,,76,127
56667,note_on,1,0,0,,0,,,64,95
56667,note_on,0,0,0,,1,,,77,127
56852,note_off,185,0,0,,1,,,77,127
56853,note_on,1,0,0,,0,,,67,95
56853,note_on,0,0,0,,1,,,79,127
57224,note_off,371,0,0,,1,,,79,127
57224,note_off,0,0,0,,0,,,60,95
57224,note_off,0,0,0,,0,,,48,95
57225,note_on,1,0,0,,0,,,50,95
57225,note_on,0,0,0,,1,,,77,127
57410,note_off,185,0,0,,0,,,64,95
57596,note_off,186,0,0,,1,,,77,127
57596,note_off,0,0,0,,0,,,50,95
57596,note_off,0,0,0,,0,,,67,95
57597,note_on,1,0,0,,0,,,52,95
57597,note_on,0,0,0,,0,,,60,95
57597,note_on,0,0,0,,1,,,67,127
57783,note_on,186,0,0,,0,,,64,95
57968,note_off,185,0,0,,1,,,67,127
57969,note_on,1,0,0,,0,,,67,95
57969,note_on,0,0,0,,1,,,70,127
58340,note_off,371,0,0,,1,,,70,127
58340,note_off,0,0,0,,0,,,60,95
58341,note_on,1,0,0,,1,,,76,127
58526,note_off,185,0,0,,0,,,64,95
58712,note_off,186,0,0,,1,,,76,127
58712,note_off,0,0,0,,0,,,67,95
58712,note_off,0,0,0,,0,,,52,95
58713,note_on,1,0,0,,0,,,52,95
58713,note_on,0,0,0,,0,,,60,95
58713,note_on,0,0,0,,1,,,79,127
58898,note_off,185,0,0,,1,,,79,127
58899,note_on,1,0,0,,0,,,64,95
58899,note_on,0,0,0,,1,,,81,127
59084,note_off,185,0,0,,1,,,81,127
59085,note_on,1,0,0,,0,,,67,95
59085,note_on,0,0,0,,1,,,82,127
59456,note_off,371,0,0,,1,,,82,127
59456,note_off,0,0,0,,0,,,67,95
59456,note_off,0,0,0,,0,,,64,95
59456,note_off,0,0,0,,0,,,52,95
59457,note_on,1,0,0,,0,,,53,95
59457,note_on,0,0,0,,0,,,69,95
59457,note_on,0,0,0,,1,,,81,127
59828,note_off,371,0,0,,1,,,81,127
59828,note_off,0,0,0,,0,,,69,95
59828,note_off,0,0,0,,0,,,53,95
59828,note_off,0,0,0,,0,,,60,95
59829,note_on,1,0,0,,0,,,48,95
59829,note_on,0,0,0,,0,,,64,95
59829,note_on,0,0,0,,1,,,72,127
60200,note_off,371,0,0,,1,,,72,127
60201,note_on,1,0,0,,0,,,67,95
60201,note_on,0,0,0,,1,,,76,127
60572,note_off,371,0,0,,1,,,76,127
60572,note_off,0,0,0,,0,,,67,95
60572,note_off,0,0,0,,0,,,64,95
60573,note_on,1,0,0,,0,,,65,95
60573,note_on,0,0,0,,1,,,77,127
60944,note_off,371,0,0,,1,,,77,127
60944,note_off,0,0,0,,0,,,65,95
60944,note_off,0,0,0,,0,,,48,95
60945,note_on,1,0,0,,0,,,48,95
60945,note_on,0,0,0,,0,,,64,95
60945,note_on,0,0,0,,1,,,70,127
61131,note_on,186,0,0,,0,,,67,95
61316,note_off,185,0,0,,1,,,70,127
61317,note_on,1,0,0,,0,,,70,95
61317,note_on,0,0,0,,1,,,76,127
61688,note_off,371,0,0,,1,,,76,127
61688,note_off,0,0,0,,0,,,64,95
61689,note_on,1,0,0,,1,,,79,127
61874,note_off,185,0,0,,0,,,67,95
62060,note_off,186,0,0,,1,,,79,127
62060,note_off,0,0,0,,0,,,70,95
62060,note_off,0,0,0,,0,,,48,95
62061,note_on,1,0,0,,0,,,53,95
62061,note_on,0,0,0,,0,,,60,95
62061,note_on,0,0,0,,1,,,69,127
62247,note_on,186,0,0,,0,,,65,95
62432,note_off,185,0,0,,1,,,69,127
62433,note_on,1,0,0,,0,,,69,95
62433,note_on,0,0,0,,1,,,72,127
62804,note_off,371,0,0,,1,,,72,127
62804,note_off,0,0,0,,0,,,60,95
62804,note_off,0,0,0,,0,,,53,95
62805,note_on,1,0,0,,0,,,41,95
62805,note_on,0,0,0,,1,,,84,127
62990,note_off,185,0,0,,0,,,65,95
63176,note_off,186,0,0,,1,,,84,127
63176,note_off,0,0,0,,0,,,41,95
63177,note_on,1,0,0,,0,,,53,95
63177,note_on,0,0,0,,1,,,81,127
63573,note_off,396,0,0,,1,,,81,127
63573,note_off,0,0,0,,0,,,53,95
63574,note_on,1,0,0,,0,,,46,95
63574,note_on,0,0,0,,0,,,65,95
63574,note_on,0,0,0,,1,,,79,127
63786,note_off,212,0,0,,1,,,79,127
63787,note_on,1,0,0,,1,,,77,127
63997,note_off,210,0,0,,0,,,69,95
63999,note_off,2,0,0,,1,,,77,127
63999,note_off,0,0,0,,0,,,65,95
63999,note_off,0,0,0,,0,,,46,95
64000,note_on,1,0,0,,0,,,48,95
64000,note_on,0,0,0,,0,,,64,95
64000,note_on,0,0,0,,1,,,79,127
64249,note_off,249,0,0,,1,,,79,127
64250,note_on,1,0,0,,1,,,76,127
64499,note_off,249,0,0,,1,,,76,127
64499,note_off,0,0,0,,0,,,64,95
64499,note_off,0,0,0,,0,,,48,95
64532,note_on,33,0,0,,0,,,53,95
64532,note_on,0,0,0,,0,,,65,95
64532,note_on,0,0,0,,0,,,69,95
64532,note_on,0,0,0,,0,,,72,95
64532,note_on,0,0,0,,1,,,77,127
66534,note_off,2002,0,0,,1,,,77,127
66534,note_off,0,0,0,,0,,,72,95
66534,note_off,0,0,0,,0,,,69,95
66534,note_off,0,0,0,,0,,,65,95
66534,note_off,0,0,0,,0,,,53,95
69120,end_of_track,2586,1,0,,,,,,
