tick,type,time,meta,track,program,channel,pitch,tempo,note,velocity
0,copyright,0,1,0,,,,,,
0,program_change,0,0,0,6,0,,,,
0,pitchwheel,0,0,0,,0,0,,,
0,program_change,0,0,0,6,1,,,,
0,pitchwheel,0,0,0,,1,-590,,,
0,program_change,0,0,0,6,2,,,,
0,pitchwheel,0,0,0,,2,-272,,,
0,program_change,0,0,0,6,3,,,,
0,pitchwheel,0,0,0,,3,-353,,,
0,program_change,0,0,0,6,4,,,,
0,pitchwheel,0,0,0,,4,-560,,,
0,program_change,0,0,0,6,5,,,,
0,pitchwheel,0,0,0,,5,-80,,,
0,program_change,0,0,0,6,6,,,,
0,pitchwheel,0,0,0,,6,-625,,,
0,program_change,0,0,0,6,7,,,,
0,pitchwheel,0,0,0,,7,-130,,,
0,program_change,0,0,0,6,8,,,,
0,pitchwheel,0,0,0,,8,-512,,,
0,program_change,0,0,0,6,10,,,,
0,pitchwheel,0,0,0,,10,-464,,,
0,program_change,0,0,0,6,11,,,,
0,pitchwheel,0,0,0,,11,-208,,,
0,program_change,0,0,0,6,12,,,,
0,pitchwheel,0,0,0,,12,-553,,,
0,set_tempo,0,1,0,,,,500000,,
105,note_on,105,0,0,,7,,,79,127
313,note_off,208,0,0,,7,,,79,127
314,note_on,1,0,0,,7,,,79,127
522,note_off,208,0,0,,7,,,79,127
523,note_on,1,0,0,,10,,,81,127
731,note_off,208,0,0,,10,,,81,127
732,note_on,1,0,0,,7,,,79,127
940,note_off,208,0,0,,7,,,79,127
941,note_on,1,0,0,,7,,,79,127
1149,note_off,208,0,0,,7,,,79,127
1150,note_on,1,0,0,,10,,,81,127
1358,note_off,208,0,0,,10,,,81,127
1359,note_on,1,0,0,,7,,,79,127
1463,note_off,104,0,0,,7,,,79,127
1464,note_on,1,0,0,,6,,,78,127
1568,note_off,104,0,0,,6,,,78,127
1569,note_on,1,0,0,,7,,,79,127
1673,note_off,104,0,0,,7,,,79,127
1674,note_on,1,0,0,,2,,,74,127
1778,note_off,104,0,0,,2,,,74,127
1779,note_on,1,0,0,,4,,,76,127
1883,note_off,104,0,0,,4,,,76,127
1884,note_on,1,0,0,,0,,,72,127
1988,note_off,104,0,0,,0,,,72,127
1989,note_on,1,0,0,,2,,,74,127
2093,note_off,104,0,0,,2,,,74,127
2094,note_on,1,0,0,,0,,,72,127
2198,note_off,104,0,0,,0,,,72,127
2199,note_on,1,0,0,,2,,,74,127
2303,note_off,104,0,0,,2,,,74,127
2304,note_on,1,0,0,,12,,,71,127
2408,note_off,104,0,0,,12,,,71,127
2409,note_on,1,0,0,,0,,,72,127
2513,note_off,104,0,0,,0,,,72,127
2514,note_on,1,0,0,,10,,,69,127
2608,note_off,94,0,0,,10,,,69,127
2619,note_on,11,0,0,,7,,,55,127
2619,note_on,0,0,0,,12,,,71,127
2827,note_off,208,0,0,,12,,,71,127
2827,note_off,0,0,0,,7,,,55,127
2828,note_on,1,0,0,,7,,,55,127
2828,note_on,0,0,0,,2,,,74,127
3036,note_off,208,0,0,,2,,,74,127
3036,note_off,0,0,0,,7,,,55,127
3037,note_on,1,0,0,,10,,,57,127
3037,note_on,0,0,0,,0,,,72,127
3245,note_off,208,0,0,,0,,,72,127
3245,note_off,0,0,0,,10,,,57,127
3246,note_on,1,0,0,,7,,,55,127
3246,note_on,0,0,0,,12,,,71,127
3454,note_off,208,0,0,,12,,,71,127
3454,note_off,0,0,0,,7,,,55,127
3455,note_on,1,0,0,,7,,,55,127
3455,note_on,0,0,0,,2,,,74,127
3663,note_off,208,0,0,,2,,,74,127
3663,note_off,0,0,0,,7,,,55,127
3664,note_on,1,0,0,,10,,,57,127
3664,note_on,0,0,0,,0,,,72,127
3872,note_off,208,0,0,,0,,,72,127
3872,note_off,0,0,0,,10,,,57,127
3873,note_on,1,0,0,,7,,,55,127
3873,note_on,0,0,0,,12,,,71,127
3977,note_off,104,0,0,,7,,,55,127
3978,note_on,1,0,0,,6,,,54,127
4082,note_off,104,0,0,,6,,,54,127
4082,note_off,0,0,0,,12,,,71,127
4083,note_on,1,0,0,,7,,,55,127
4083,note_on,0,0,0,,2,,,74,127
4187,note_off,104,0,0,,7,,,55,127
4188,note_on,1,0,0,,2,,,50,127
4292,note_off,104,0,0,,2,,,50,127
4292,note_off,0,0,0,,2,,,74,127
4293,note_on,1,0,0,,4,,,52,127
4293,note_on,0,0,0,,7,,,67,127
4397,note_off,104,0,0,,4,,,52,127
4398,note_on,1,0,0,,0,,,48,127
4502,note_off,104,0,0,,0,,,48,127
4502,note_off,0,0,0,,7,,,67,127
4503,note_on,1,0,0,,2,,,50,127
4503,note_on,0,0,0,,6,,,66,127
4607,note_off,104,0,0,,2,,,50,127
4608,note_on,1,0,0,,0,,,48,127
4712,note_off,104,0,0,,0,,,48,127
4712,note_off,0,0,0,,6,,,66,127
4713,note_on,1,0,0,,2,,,50,127
4713,note_on,0,0,0,,2,,,74,127
4817,note_off,104,0,0,,2,,,50,127
4818,note_on,1,0,0,,12,,,47,127
4922,note_off,104,0,0,,12,,,47,127
4922,note_off,0,0,0,,2,,,74,127
4923,note_on,1,0,0,,0,,,48,127
4923,note_on,0,0,0,,4,,,64,127
5027,note_off,104,0,0,,0,,,48,127
5028,note_on,1,0,0,,10,,,45,127
5132,note_off,104,0,0,,10,,,45,127
5132,note_off,0,0,0,,4,,,64,127
5133,note_on,1,0,0,,12,,,47,127
5133,note_on,0,0,0,,2,,,62,127
5237,note_off,104,0,0,,12,,,47,127
5238,note_on,1,0,0,,10,,,45,127
5342,note_off,104,0,0,,10,,,45,127
5342,note_off,0,0,0,,2,,,62,127
5343,note_on,1,0,0,,12,,,47,127
5343,note_on,0,0,0,,2,,,74,127
5447,note_off,104,0,0,,12,,,47,127
5448,note_on,1,0,0,,7,,,43,127
5552,note_off,104,0,0,,7,,,43,127
5552,note_off,0,0,0,,2,,,74,127
5553,note_on,1,0,0,,10,,,45,127
5553,note_on,0,0,0,,0,,,72,127
5657,note_off,104,0,0,,10,,,45,127
5658,note_on,1,0,0,,6,,,42,127
5752,note_off,94,0,0,,0,,,72,127
5762,note_off,10,0,0,,6,,,42,127
5763,note_on,1,0,0,,7,,,55,127
5763,note_on,0,0,0,,12,,,71,127
5971,note_off,208,0,0,,12,,,71,127
5971,note_off,0,0,0,,7,,,55,127
5972,note_on,1,0,0,,7,,,55,127
5972,note_on,0,0,0,,2,,,62,127
6180,note_off,208,0,0,,2,,,62,127
6180,note_off,0,0,0,,7,,,55,127
6181,note_on,1,0,0,,10,,,57,127
6181,note_on,0,0,0,,0,,,72,127
6389,note_off,208,0,0,,0,,,72,127
6389,note_off,0,0,0,,10,,,57,127
6390,note_on,1,0,0,,7,,,55,127
6390,note_on,0,0,0,,12,,,71,127
6598,note_off,208,0,0,,12,,,71,127
6598,note_off,0,0,0,,7,,,55,127
6599,note_on,1,0,0,,7,,,55,127
6599,note_on,0,0,0,,2,,,62,127
6807,note_off,208,0,0,,2,,,62,127
6807,note_off,0,0,0,,7,,,55,127
6808,note_on,1,0,0,,10,,,57,127
6808,note_on,0,0,0,,0,,,72,127
7016,note_off,208,0,0,,0,,,72,127
7016,note_off,0,0,0,,10,,,57,127
7017,note_on,1,0,0,,7,,,55,127
7017,note_on,0,0,0,,12,,,71,127
7121,note_off,104,0,0,,7,,,55,127
7122,note_on,1,0,0,,6,,,54,127
7226,note_off,104,0,0,,6,,,54,127
7226,note_off,0,0,0,,12,,,71,127
7227,note_on,1,0,0,,7,,,55,127
7227,note_on,0,0,0,,2,,,74,127
7331,note_off,104,0,0,,7,,,55,127
7332,note_on,1,0,0,,2,,,50,127
7436,note_off,104,0,0,,2,,,50,127
7436,note_off,0,0,0,,2,,,74,127
7437,note_on,1,0,0,,4,,,52,127
7437,note_on,0,0,0,,7,,,67,127
7541,note_off,104,0,0,,4,,,52,127
7542,note_on,1,0,0,,0,,,48,127
7646,note_off,104,0,0,,0,,,48,127
7646,note_off,0,0,0,,7,,,67,127
7647,note_on,1,0,0,,2,,,50,127
7647,note_on,0,0,0,,6,,,66,127
7751,note_off,104,0,0,,2,,,50,127
7752,note_on,1,0,0,,0,,,48,127
7856,note_off,104,0,0,,0,,,48,127
7856,note_off,0,0,0,,6,,,66,127
7857,note_on,1,0,0,,2,,,50,127
7857,note_on,0,0,0,,2,,,74,127
7961,note_off,104,0,0,,2,,,50,127
7962,note_on,1,0,0,,12,,,47,127
8066,note_off,104,0,0,,12,,,47,127
8066,note_off,0,0,0,,2,,,74,127
8067,note_on,1,0,0,,0,,,48,127
8067,note_on,0,0,0,,4,,,64,127
8171,note_off,104,0,0,,0,,,48,127
8172,note_on,1,0,0,,10,,,45,127
8276,note_off,104,0,0,,10,,,45,127
8276,note_off,0,0,0,,4,,,64,127
8277,note_on,1,0,0,,12,,,47,127
8277,note_on,0,0,0,,2,,,62,127
8381,note_off,104,0,0,,12,,,47,127
8382,note_on,1,0,0,,10,,,45,127
8486,note_off,104,0,0,,10,,,45,127
8486,note_off,0,0,0,,2,,,62,127
8487,note_on,1,0,0,,12,,,47,127
8487,note_on,0,0,0,,2,,,74,127
8591,note_off,104,0,0,,12,,,47,127
8592,note_on,1,0,0,,7,,,43,127
8696,note_off,104,0,0,,7,,,43,127
8696,note_off,0,0,0,,2,,,74,127
8697,note_on,1,0,0,,10,,,45,127
8697,note_on,0,0,0,,0,,,72,127
8801,note_off,104,0,0,,10,,,45,127
8802,note_on,1,0,0,,6,,,42,127
8896,note_off,94,0,0,,0,,,72,127
8906,note_off,10,0,0,,6,,,42,127
8907,note_on,1,0,0,,7,,,43,127
8907,note_on,0,0,0,,12,,,71,127
9115,note_off,208,0,0,,12,,,71,127
9116,note_on,1,0,0,,2,,,62,127
9220,note_off,104,0,0,,7,,,43,127
9221,note_on,1,0,0,,10,,,45,127
9325,note_off,104,0,0,,10,,,45,127
9325,note_off,0,0,0,,2,,,62,127
9326,note_on,1,0,0,,12,,,47,127
9326,note_on,0,0,0,,12,,,71,127
9430,note_off,104,0,0,,12,,,47,127
9431,note_on,1,0,0,,0,,,48,127
9535,note_off,104,0,0,,0,,,48,127
9535,note_off,0,0,0,,12,,,71,127
9536,note_on,1,0,0,,2,,,50,127
9536,note_on,0,0,0,,10,,,69,127
9640,note_off,104,0,0,,10,,,69,127
9641,note_on,1,0,0,,7,,,67,127
9745,note_off,104,0,0,,7,,,67,127
9745,note_off,0,0,0,,2,,,50,127
9746,note_on,1,0,0,,4,,,52,127
9746,note_on,0,0,0,,6,,,66,127
9850,note_off,104,0,0,,6,,,66,127
9851,note_on,1,0,0,,4,,,64,127
9955,note_off,104,0,0,,4,,,64,127
9955,note_off,0,0,0,,4,,,52,127
9956,note_on,1,0,0,,6,,,54,127
9956,note_on,0,0,0,,2,,,62,127
10060,note_off,104,0,0,,2,,,62,127
10061,note_on,1,0,0,,0,,,60,127
10165,note_off,104,0,0,,0,,,60,127
10165,note_off,0,0,0,,6,,,54,127
10166,note_on,1,0,0,,7,,,55,127
10166,note_on,0,0,0,,12,,,59,127
10374,note_off,208,0,0,,12,,,59,127
10375,note_on,1,0,0,,7,,,43,127
10375,note_on,0,0,0,,2,,,62,127
10583,note_off,208,0,0,,2,,,62,127
10583,note_off,0,0,0,,7,,,43,127
10583,note_off,0,0,0,,7,,,55,127
10584,note_on,1,0,0,,12,,,59,127
10584,note_on,0,0,0,,7,,,67,127
10792,note_off,208,0,0,,7,,,67,127
10792,note_off,0,0,0,,12,,,59,127
10793,note_on,1,0,0,,10,,,57,127
10793,note_on,0,0,0,,0,,,60,127
10897,note_off,104,0,0,,10,,,57,127
10898,note_on,1,0,0,,7,,,55,127
11002,note_off,104,0,0,,7,,,55,127
11002,note_off,0,0,0,,0,,,60,127
11003,note_on,1,0,0,,6,,,54,127
11003,note_on,0,0,0,,10,,,69,127
11107,note_off,104,0,0,,6,,,54,127
11108,note_on,1,0,0,,4,,,52,127
11212,note_off,104,0,0,,4,,,52,127
11212,note_off,0,0,0,,10,,,69,127
11213,note_on,1,0,0,,2,,,50,127
11213,note_on,0,0,0,,6,,,66,127
11317,note_off,104,0,0,,2,,,50,127
11318,note_on,1,0,0,,0,,,48,127
11422,note_off,104,0,0,,0,,,48,127
11422,note_off,0,0,0,,6,,,66,127
11423,note_on,1,0,0,,12,,,47,127
11423,note_on,0,0,0,,7,,,67,127
11631,note_off,208,0,0,,7,,,67,127
11631,note_off,0,0,0,,12,,,47,127
11632,note_on,1,0,0,,7,,,43,127
11632,note_on,0,0,0,,2,,,62,127
11736,note_off,104,0,0,,7,,,43,127
11737,note_on,1,0,0,,10,,,45,127
11841,note_off,104,0,0,,10,,,45,127
11841,note_off,0,0,0,,2,,,62,127
11842,note_on,1,0,0,,12,,,47,127
11842,note_on,0,0,0,,12,,,71,127
11946,note_off,104,0,0,,12,,,47,127
11947,note_on,1,0,0,,0,,,48,127
12051,note_off,104,0,0,,0,,,48,127
12051,note_off,0,0,0,,12,,,71,127
12052,note_on,1,0,0,,2,,,50,127
12052,note_on,0,0,0,,10,,,69,127
12156,note_off,104,0,0,,10,,,69,127
12157,note_on,1,0,0,,7,,,67,127
12261,note_off,104,0,0,,7,,,67,127
12262,note_on,1,0,0,,2,,,38,127
12262,note_on,0,0,0,,6,,,66,127
12366,note_off,104,0,0,,6,,,66,127
12367,note_on,1,0,0,,4,,,64,127
12471,note_off,104,0,0,,4,,,64,127
12471,note_off,0,0,0,,2,,,38,127
12471,note_off,0,0,0,,2,,,50,127
12472,note_on,1,0,0,,2,,,38,127
12472,note_on,0,0,0,,2,,,62,127
12576,note_off,104,0,0,,2,,,62,127
12577,note_on,1,0,0,,0,,,60,127
12681,note_off,104,0,0,,0,,,60,127
12681,note_off,0,0,0,,2,,,38,127
12682,note_on,1,0,0,,7,,,43,127
12682,note_on,0,0,0,,12,,,59,127
12891,note_on,209,0,0,,7,,,55,127
12903,note_off,12,0,0,,12,,,59,127
13090,note_off,187,0,0,,7,,,55,127
13101,note_on,11,0,0,,7,,,67,127
13101,note_on,0,0,0,,11,,,58,127
13206,note_off,105,0,0,,7,,,43,127
13310,note_off,104,0,0,,11,,,58,127
13311,note_on,1,0,0,,10,,,57,127
13519,note_off,208,0,0,,10,,,57,127
13519,note_off,0,0,0,,7,,,67,127
13520,note_on,1,0,0,,2,,,62,127
13520,note_on,0,0,0,,5,,,65,127
13728,note_off,208,0,0,,5,,,65,127
13728,note_off,0,0,0,,2,,,62,127
13729,note_on,1,0,0,,1,,,61,127
13729,note_on,0,0,0,,4,,,64,127
13937,note_off,208,0,0,,4,,,64,127
13937,note_off,0,0,0,,1,,,61,127
13938,note_on,1,0,0,,2,,,62,127
13938,note_on,0,0,0,,5,,,65,127
14146,note_off,208,0,0,,5,,,65,127
14147,note_on,1,0,0,,10,,,69,127
14346,note_off,199,0,0,,10,,,69,127
14356,note_off,10,0,0,,2,,,62,127
14357,note_on,1,0,0,,5,,,65,127
14357,note_on,0,0,0,,2,,,74,127
14565,note_off,208,0,0,,5,,,65,127
14566,note_on,1,0,0,,4,,,64,127
14774,note_off,208,0,0,,4,,,64,127
14774,note_off,0,0,0,,2,,,74,127
14775,note_on,1,0,0,,10,,,69,127
14775,note_on,0,0,0,,0,,,72,127
14983,note_off,208,0,0,,0,,,72,127
14983,note_off,0,0,0,,10,,,69,127
14984,note_on,1,0,0,,8,,,68,127
14984,note_on,0,0,0,,12,,,71,127
15192,note_off,208,0,0,,12,,,71,127
15192,note_off,0,0,0,,8,,,68,127
15193,note_on,1,0,0,,10,,,69,127
15193,note_on,0,0,0,,0,,,72,127
15401,note_off,208,0,0,,0,,,72,127
15402,note_on,1,0,0,,4,,,76,127
15601,note_off,199,0,0,,4,,,76,127
15611,note_off,10,0,0,,10,,,69,127
15612,note_on,1,0,0,,0,,,72,127
15612,note_on,0,0,0,,10,,,81,127
15820,note_off,208,0,0,,0,,,72,127
15821,note_on,1,0,0,,12,,,71,127
16029,note_off,208,0,0,,12,,,71,127
16029,note_off,0,0,0,,10,,,81,127
16030,note_on,1,0,0,,4,,,76,127
16030,note_on,0,0,0,,7,,,79,127
16238,note_off,208,0,0,,7,,,79,127
16238,note_off,0,0,0,,4,,,76,127
16239,note_on,1,0,0,,3,,,75,127
16239,note_on,0,0,0,,6,,,78,127
16447,note_off,208,0,0,,6,,,78,127
16447,note_off,0,0,0,,3,,,75,127
16448,note_on,1,0,0,,4,,,76,127
16448,note_on,0,0,0,,7,,,79,127
16656,note_off,208,0,0,,7,,,79,127
16657,note_on,1,0,0,,10,,,81,127
16865,note_off,208,0,0,,10,,,81,127
16865,note_off,0,0,0,,4,,,76,127
16866,note_on,1,0,0,,2,,,74,127
16866,note_on,0,0,0,,12,,,83,127
17074,note_off,208,0,0,,2,,,74,127
17075,note_on,1,0,0,,1,,,73,127
17283,note_off,208,0,0,,12,,,83,127
17284,note_on,1,0,0,,10,,,81,127
17388,note_off,104,0,0,,10,,,81,127
17389,note_on,1,0,0,,7,,,79,127
17493,note_off,104,0,0,,7,,,79,127
17494,note_on,1,0,0,,6,,,78,127
17598,note_off,104,0,0,,6,,,78,127
17599,note_on,1,0,0,,4,,,76,127
17703,note_off,104,0,0,,4,,,76,127
17703,note_off,0,0,0,,1,,,73,127
17704,note_on,1,0,0,,2,,,74,127
17704,note_on,0,0,0,,6,,,78,127
17912,note_off,208,0,0,,6,,,78,127
17913,note_on,1,0,0,,7,,,79,127
18121,note_off,208,0,0,,7,,,79,127
18121,note_off,0,0,0,,2,,,74,127
18122,note_on,1,0,0,,1,,,73,127
18122,note_on,0,0,0,,10,,,81,127
18330,note_off,208,0,0,,1,,,73,127
18331,note_on,1,0,0,,12,,,71,127
18539,note_off,208,0,0,,10,,,81,127
18540,note_on,1,0,0,,7,,,79,127
18644,note_off,104,0,0,,7,,,79,127
18645,note_on,1,0,0,,6,,,78,127
18749,note_off,104,0,0,,6,,,78,127
18750,note_on,1,0,0,,4,,,76,127
18854,note_off,104,0,0,,4,,,76,127
18855,note_on,1,0,0,,2,,,74,127
18959,note_off,104,0,0,,2,,,74,127
18959,note_off,0,0,0,,12,,,71,127
18960,note_on,1,0,0,,10,,,57,127
18960,note_on,0,0,0,,1,,,73,127
18960,note_on,0,0,0,,4,,,76,127
19168,note_off,208,0,0,,4,,,76,127
19168,note_off,0,0,0,,10,,,57,127
19169,note_on,1,0,0,,10,,,57,127
19169,note_on,0,0,0,,10,,,69,127
19254,note_off,85,0,0,,1,,,73,127
19377,note_off,123,0,0,,10,,,69,127
19377,note_off,0,0,0,,10,,,57,127
19378,note_on,1,0,0,,12,,,59,127
19378,note_on,0,0,0,,2,,,74,127
19586,note_off,208,0,0,,2,,,74,127
19586,note_off,0,0,0,,12,,,59,127
19587,note_on,1,0,0,,10,,,57,127
19587,note_on,0,0,0,,1,,,73,127
19587,note_on,0,0,0,,4,,,76,127
19795,note_off,208,0,0,,4,,,76,127
19795,note_off,0,0,0,,10,,,57,127
19796,note_on,1,0,0,,10,,,57,127
19796,note_on,0,0,0,,10,,,69,127
19881,note_off,85,0,0,,1,,,73,127
20004,note_off,123,0,0,,10,,,69,127
20004,note_off,0,0,0,,10,,,57,127
20005,note_on,1,0,0,,12,,,59,127
20005,note_on,0,0,0,,2,,,74,127
20213,note_off,208,0,0,,2,,,74,127
20213,note_off,0,0,0,,12,,,59,127
20214,note_on,1,0,0,,10,,,57,127
20214,note_on,0,0,0,,1,,,73,127
20214,note_on,0,0,0,,4,,,76,127
20422,note_off,208,0,0,,4,,,76,127
20422,note_off,0,0,0,,10,,,57,127
20423,note_on,1,0,0,,10,,,57,127
20423,note_on,0,0,0,,10,,,69,127
20508,note_off,85,0,0,,1,,,73,127
20527,note_off,19,0,0,,10,,,57,127
20528,note_on,1,0,0,,12,,,59,127
20632,note_off,104,0,0,,12,,,59,127
20632,note_off,0,0,0,,10,,,69,127
20633,note_on,1,0,0,,1,,,61,127
20633,note_on,0,0,0,,7,,,79,127
20633,note_on,0,0,0,,4,,,76,127
20737,note_off,104,0,0,,1,,,61,127
20738,note_on,1,0,0,,10,,,57,127
20842,note_off,104,0,0,,10,,,57,127
20842,note_off,0,0,0,,4,,,76,127
20842,note_off,0,0,0,,7,,,79,127
20843,note_on,1,0,0,,2,,,62,127
20843,note_on,0,0,0,,6,,,78,127
20843,note_on,0,0,0,,2,,,74,127
21051,note_off,208,0,0,,6,,,78,127
21052,note_on,1,0,0,,10,,,69,127
21137,note_off,85,0,0,,2,,,74,127
21156,note_off,19,0,0,,2,,,62,127
21157,note_on,1,0,0,,2,,,62,127
21261,note_off,104,0,0,,2,,,62,127
21261,note_off,0,0,0,,10,,,69,127
21262,note_on,1,0,0,,1,,,61,127
21262,note_on,0,0,0,,7,,,79,127
21262,note_on,0,0,0,,4,,,76,127
21366,note_off,104,0,0,,1,,,61,127
21367,note_on,1,0,0,,10,,,57,127
21471,note_off,104,0,0,,10,,,57,127
21471,note_off,0,0,0,,4,,,76,127
21471,note_off,0,0,0,,7,,,79,127
21472,note_on,1,0,0,,2,,,50,127
21472,note_on,0,0,0,,6,,,78,127
21472,note_on,0,0,0,,2,,,74,127
21680,note_off,208,0,0,,6,,,78,127
21681,note_on,1,0,0,,10,,,69,127
21766,note_off,85,0,0,,2,,,74,127
21785,note_off,19,0,0,,2,,,50,127
21786,note_on,1,0,0,,2,,,62,127
21890,note_off,104,0,0,,2,,,62,127
21890,note_off,0,0,0,,10,,,69,127
21891,note_on,1,0,0,,1,,,61,127
21891,note_on,0,0,0,,7,,,79,127
21891,note_on,0,0,0,,4,,,76,127
21995,note_off,104,0,0,,1,,,61,127
21996,note_on,1,0,0,,10,,,57,127
22100,note_off,104,0,0,,10,,,57,127
22100,note_off,0,0,0,,4,,,76,127
22100,note_off,0,0,0,,7,,,79,127
22101,note_on,1,0,0,,2,,,50,127
22101,note_on,0,0,0,,2,,,74,127
22101,note_on,0,0,0,,6,,,78,127
22309,note_off,208,0,0,,6,,,78,127
22310,note_on,1,0,0,,10,,,69,127
22395,note_off,85,0,0,,2,,,74,127
22414,note_off,19,0,0,,2,,,50,127
22415,note_on,1,0,0,,2,,,62,127
22519,note_off,104,0,0,,2,,,62,127
22519,note_off,0,0,0,,10,,,69,127
22520,note_on,1,0,0,,1,,,61,127
22520,note_on,0,0,0,,4,,,76,127
22520,note_on,0,0,0,,7,,,79,127
22624,note_off,104,0,0,,1,,,61,127
22625,note_on,1,0,0,,10,,,57,127
22729,note_off,104,0,0,,10,,,57,127
22729,note_off,0,0,0,,7,,,79,127
22729,note_off,0,0,0,,4,,,76,127
22730,note_on,1,0,0,,2,,,50,127
22730,note_on,0,0,0,,6,,,78,127
22730,note_on,0,0,0,,2,,,74,127
22938,note_off,208,0,0,,6,,,78,127
22939,note_on,1,0,0,,10,,,69,127
23024,note_off,85,0,0,,2,,,74,127
23043,note_off,19,0,0,,2,,,50,127
23044,note_on,1,0,0,,10,,,57,127
23148,note_off,104,0,0,,10,,,57,127
23148,note_off,0,0,0,,10,,,69,127
23149,note_on,1,0,0,,8,,,56,127
23149,note_on,0,0,0,,5,,,77,127
23149,note_on,0,0,0,,2,,,74,127
23253,note_off,104,0,0,,8,,,56,127
23254,note_on,1,0,0,,4,,,52,127
23358,note_off,104,0,0,,4,,,52,127
23358,note_off,0,0,0,,2,,,74,127
23358,note_off,0,0,0,,5,,,77,127
23359,note_on,1,0,0,,10,,,45,127
23359,note_on,0,0,0,,4,,,76,127
23359,note_on,0,0,0,,1,,,73,127
23567,note_off,208,0,0,,4,,,76,127
23568,note_on,1,0,0,,10,,,69,127
23653,note_off,85,0,0,,1,,,73,127
23672,note_off,19,0,0,,10,,,45,127
23673,note_on,1,0,0,,10,,,57,127
23777,note_off,104,0,0,,10,,,57,127
23777,note_off,0,0,0,,10,,,69,127
23778,note_on,1,0,0,,8,,,56,127
23778,note_on,0,0,0,,5,,,77,127
23778,note_on,0,0,0,,2,,,74,127
23882,note_off,104,0,0,,8,,,56,127
23883,note_on,1,0,0,,4,,,52,127
23987,note_off,104,0,0,,4,,,52,127
23987,note_off,0,0,0,,2,,,74,127
23987,note_off,0,0,0,,5,,,77,127
23988,note_on,1,0,0,,10,,,45,127
23988,note_on,0,0,0,,1,,,73,127
23988,note_on,0,0,0,,4,,,76,127
24196,note_off,208,0,0,,4,,,76,127
24197,note_on,1,0,0,,10,,,69,127
24282,note_off,85,0,0,,1,,,73,127
24301,note_off,19,0,0,,10,,,45,127
24302,note_on,1,0,0,,10,,,57,127
24406,note_off,104,0,0,,10,,,57,127
24406,note_off,0,0,0,,10,,,69,127
24407,note_on,1,0,0,,8,,,56,127
24407,note_on,0,0,0,,5,,,77,127
24407,note_on,0,0,0,,2,,,74,127
24511,note_off,104,0,0,,8,,,56,127
24512,note_on,1,0,0,,4,,,52,127
24616,note_off,104,0,0,,4,,,52,127
24616,note_off,0,0,0,,2,,,74,127
24616,note_off,0,0,0,,5,,,77,127
24617,note_on,1,0,0,,10,,,45,127
24617,note_on,0,0,0,,1,,,73,127
24617,note_on,0,0,0,,4,,,76,127
24825,note_off,208,0,0,,4,,,76,127
24826,note_on,1,0,0,,10,,,69,127
24911,note_off,85,0,0,,1,,,73,127
24930,note_off,19,0,0,,10,,,45,127
24931,note_on,1,0,0,,10,,,57,127
25035,note_off,104,0,0,,10,,,57,127
25035,note_off,0,0,0,,10,,,69,127
25036,note_on,1,0,0,,8,,,56,127
25036,note_on,0,0,0,,5,,,77,127
25036,note_on,0,0,0,,2,,,74,127
25140,note_off,104,0,0,,8,,,56,127
25141,note_on,1,0,0,,4,,,52,127
25245,note_off,104,0,0,,4,,,52,127
25245,note_off,0,0,0,,2,,,74,127
25245,note_off,0,0,0,,5,,,77,127
25246,note_on,1,0,0,,10,,,45,127
25246,note_on,0,0,0,,4,,,76,127
25350,note_off,104,0,0,,4,,,76,127
25351,note_on,1,0,0,,2,,,74,127
25455,note_off,104,0,0,,2,,,74,127
25455,note_off,0,0,0,,10,,,45,127
25456,note_on,1,0,0,,12,,,47,127
25456,note_on,0,0,0,,1,,,73,127
25560,note_off,104,0,0,,1,,,73,127
25561,note_on,1,0,0,,12,,,71,127
25665,note_off,104,0,0,,12,,,71,127
25665,note_off,0,0,0,,12,,,47,127
25666,note_on,1,0,0,,1,,,49,127
25666,note_on,0,0,0,,10,,,69,127
25770,note_off,104,0,0,,10,,,69,127
25771,note_on,1,0,0,,7,,,67,127
25875,note_off,104,0,0,,7,,,67,127
25875,note_off,0,0,0,,1,,,49,127
25876,note_on,1,0,0,,2,,,50,127
25876,note_on,0,0,0,,6,,,66,127
25980,note_off,104,0,0,,6,,,66,127
25981,note_on,1,0,0,,10,,,69,127
26085,note_off,104,0,0,,10,,,69,127
26085,note_off,0,0,0,,2,,,50,127
26086,note_on,1,0,0,,7,,,55,127
26086,note_on,0,0,0,,2,,,74,127
26190,note_off,104,0,0,,2,,,74,127
26191,note_on,1,0,0,,6,,,66,127
26295,note_off,104,0,0,,6,,,66,127
26295,note_off,0,0,0,,7,,,55,127
26296,note_on,1,0,0,,10,,,57,127
26296,note_on,0,0,0,,4,,,64,127
26400,note_off,104,0,0,,4,,,64,127
26401,note_on,1,0,0,,1,,,73,127
26505,note_off,104,0,0,,1,,,73,127
26505,note_off,0,0,0,,10,,,57,127
26506,note_on,1,0,0,,2,,,38,127
26506,note_on,0,0,0,,2,,,74,127
26714,note_off,208,0,0,,2,,,74,127
26715,note_on,1,0,0,,10,,,69,127
26715,note_on,0,0,0,,6,,,66,127
26819,note_off,104,0,0,,2,,,38,127
26820,note_on,1,0,0,,2,,,50,127
26924,note_off,104,0,0,,2,,,50,127
26924,note_off,0,0,0,,6,,,66,127
26924,note_off,0,0,0,,10,,,69,127
26925,note_on,1,0,0,,1,,,49,127
26925,note_on,0,0,0,,7,,,67,127
26925,note_on,0,0,0,,12,,,71,127
27029,note_off,104,0,0,,1,,,49,127
27030,note_on,1,0,0,,10,,,45,127
27134,note_off,104,0,0,,10,,,45,127
27134,note_off,0,0,0,,12,,,71,127
27134,note_off,0,0,0,,7,,,67,127
27135,note_on,1,0,0,,2,,,38,127
27135,note_on,0,0,0,,6,,,66,127
27135,note_on,0,0,0,,10,,,69,127
27343,note_off,208,0,0,,10,,,69,127
27344,note_on,1,0,0,,2,,,62,127
27429,note_off,85,0,0,,6,,,66,127
27448,note_off,19,0,0,,2,,,38,127
27449,note_on,1,0,0,,2,,,50,127
27553,note_off,104,0,0,,2,,,50,127
27553,note_off,0,0,0,,2,,,62,127
27554,note_on,1,0,0,,1,,,49,127
27554,note_on,0,0,0,,7,,,67,127
27554,note_on,0,0,0,,12,,,71,127
27658,note_off,104,0,0,,1,,,49,127
27659,note_on,1,0,0,,10,,,45,127
27763,note_off,104,0,0,,10,,,45,127
27763,note_off,0,0,0,,12,,,71,127
27763,note_off,0,0,0,,7,,,67,127
27764,note_on,1,0,0,,2,,,38,127
27764,note_on,0,0,0,,10,,,69,127
27764,note_on,0,0,0,,6,,,66,127
27972,note_off,208,0,0,,10,,,69,127
27973,note_on,1,0,0,,2,,,62,127
28058,note_off,85,0,0,,6,,,66,127
28077,note_off,19,0,0,,2,,,38,127
28078,note_on,1,0,0,,2,,,50,127
28182,note_off,104,0,0,,2,,,50,127
28182,note_off,0,0,0,,2,,,62,127
28183,note_on,1,0,0,,1,,,49,127
28183,note_on,0,0,0,,12,,,71,127
28183,note_on,0,0,0,,7,,,67,127
28287,note_off,104,0,0,,1,,,49,127
28288,note_on,1,0,0,,10,,,45,127
28392,note_off,104,0,0,,10,,,45,127
28392,note_off,0,0,0,,7,,,67,127
28392,note_off,0,0,0,,12,,,71,127
28393,note_on,1,0,0,,2,,,38,127
28393,note_on,0,0,0,,10,,,69,127
28393,note_on,0,0,0,,6,,,66,127
28601,note_off,208,0,0,,10,,,69,127
28602,note_on,1,0,0,,2,,,62,127
28687,note_off,85,0,0,,6,,,66,127
28706,note_off,19,0,0,,2,,,38,127
28707,note_on,1,0,0,,2,,,50,127
28811,note_off,104,0,0,,2,,,50,127
28811,note_off,0,0,0,,2,,,62,127
28812,note_on,1,0,0,,1,,,49,127
28812,note_on,0,0,0,,7,,,67,127
28812,note_on,0,0,0,,12,,,71,127
28916,note_off,104,0,0,,1,,,49,127
28917,note_on,1,0,0,,10,,,45,127
29021,note_off,104,0,0,,10,,,45,127
29021,note_off,0,0,0,,12,,,71,127
29021,note_off,0,0,0,,7,,,67,127
29022,note_on,1,0,0,,2,,,50,127
29022,note_on,0,0,0,,10,,,69,127
29126,note_off,104,0,0,,10,,,69,127
29127,note_on,1,0,0,,7,,,67,127
29231,note_off,104,0,0,,7,,,67,127
29231,note_off,0,0,0,,2,,,50,127
29232,note_on,1,0,0,,4,,,52,127
29232,note_on,0,0,0,,6,,,66,127
29336,note_off,104,0,0,,6,,,66,127
29337,note_on,1,0,0,,4,,,64,127
29441,note_off,104,0,0,,4,,,64,127
29441,note_off,0,0,0,,4,,,52,127
29442,note_on,1,0,0,,6,,,54,127
29442,note_on,0,0,0,,2,,,62,127
29546,note_off,104,0,0,,2,,,62,127
29547,note_on,1,0,0,,6,,,66,127
29651,note_off,104,0,0,,6,,,66,127
29651,note_off,0,0,0,,6,,,54,127
29652,note_on,1,0,0,,7,,,55,127
29652,note_on,0,0,0,,4,,,64,127
29756,note_off,104,0,0,,4,,,64,127
29757,note_on,1,0,0,,7,,,67,127
29861,note_off,104,0,0,,7,,,67,127
29861,note_off,0,0,0,,7,,,55,127
29862,note_on,1,0,0,,10,,,57,127
29862,note_on,0,0,0,,6,,,66,127
29966,note_off,104,0,0,,6,,,66,127
29967,note_on,1,0,0,,2,,,62,127
30071,note_off,104,0,0,,2,,,62,127
30072,note_on,1,0,0,,10,,,45,127
30072,note_on,0,0,0,,4,,,64,127
30176,note_off,104,0,0,,4,,,64,127
30177,note_on,1,0,0,,1,,,61,127
30281,note_off,104,0,0,,1,,,61,127
30281,note_off,0,0,0,,10,,,45,127
30281,note_off,0,0,0,,10,,,57,127
30282,note_on,1,0,0,,2,,,38,127
30282,note_on,0,0,0,,2,,,62,127
30386,note_off,104,0,0,,2,,,62,127
30387,note_on,1,0,0,,10,,,57,127
30491,note_off,104,0,0,,10,,,57,127
30492,note_on,1,0,0,,6,,,66,127
30596,note_off,104,0,0,,6,,,66,127
30597,note_on,1,0,0,,2,,,62,127
30701,note_off,104,0,0,,2,,,62,127
30702,note_on,1,0,0,,10,,,69,127
30806,note_off,104,0,0,,10,,,69,127
30807,note_on,1,0,0,,6,,,66,127
30911,note_off,104,0,0,,6,,,66,127
30911,note_off,0,0,0,,2,,,38,127
30912,note_on,1,0,0,,2,,,38,127
30912,note_on,0,0,0,,2,,,74,127
31016,note_off,104,0,0,,2,,,74,127
31017,note_on,1,0,0,,10,,,69,127
31121,note_off,104,0,0,,10,,,69,127
31122,note_on,1,0,0,,6,,,78,127
31226,note_off,104,0,0,,6,,,78,127
31227,note_on,1,0,0,,2,,,74,127
31331,note_off,104,0,0,,2,,,74,127
31332,note_on,1,0,0,,10,,,81,127
31437,note_on,105,0,0,,10,,,69,127
31540,note_off,103,0,0,,10,,,81,127
31541,note_off,1,0,0,,10,,,69,127
31541,note_off,0,0,0,,2,,,38,127
31542,note_on,1,0,0,,2,,,38,127
31542,note_on,0,0,0,,2,,,74,127
32066,note_off,524,0,0,,2,,,74,127
32170,note_off,104,0,0,,2,,,38,127
32171,note_on,1,0,0,,2,,,62,127
32379,note_off,208,0,0,,2,,,62,127
32380,note_on,1,0,0,,2,,,62,127
32588,note_off,208,0,0,,2,,,62,127
32589,note_on,1,0,0,,4,,,64,127
32797,note_off,208,0,0,,4,,,64,127
32798,note_on,1,0,0,,2,,,62,127
33006,note_off,208,0,0,,2,,,62,127
33007,note_on,1,0,0,,2,,,62,127
33215,note_off,208,0,0,,2,,,62,127
33216,note_on,1,0,0,,4,,,64,127
33424,note_off,208,0,0,,4,,,64,127
33425,note_on,1,0,0,,2,,,62,127
33425,note_on,0,0,0,,10,,,69,127
33529,note_off,104,0,0,,2,,,62,127
33530,note_on,1,0,0,,4,,,64,127
33634,note_off,104,0,0,,4,,,64,127
33634,note_off,0,0,0,,10,,,69,127
33635,note_on,1,0,0,,6,,,66,127
33635,note_on,0,0,0,,10,,,69,127
33739,note_off,104,0,0,,6,,,66,127
33740,note_on,1,0,0,,2,,,62,127
33844,note_off,104,0,0,,2,,,62,127
33844,note_off,0,0,0,,10,,,69,127
33845,note_on,1,0,0,,7,,,67,127
33845,note_on,0,0,0,,12,,,71,127
33949,note_off,104,0,0,,7,,,67,127
33950,note_on,1,0,0,,4,,,64,127
34054,note_off,104,0,0,,4,,,64,127
34054,note_off,0,0,0,,12,,,71,127
34055,note_on,1,0,0,,6,,,66,127
34055,note_on,0,0,0,,10,,,69,127
34159,note_off,104,0,0,,6,,,66,127
34160,note_on,1,0,0,,4,,,64,127
34264,note_off,104,0,0,,4,,,64,127
34264,note_off,0,0,0,,10,,,69,127
34265,note_on,1,0,0,,6,,,66,127
34265,note_on,0,0,0,,10,,,69,127
34369,note_off,104,0,0,,6,,,66,127
34370,note_on,1,0,0,,2,,,62,127
34474,note_off,104,0,0,,2,,,62,127
34474,note_off,0,0,0,,10,,,69,127
34475,note_on,1,0,0,,7,,,67,127
34475,note_on,0,0,0,,12,,,71,127
34579,note_off,104,0,0,,7,,,67,127
34580,note_on,1,0,0,,4,,,64,127
34684,note_off,104,0,0,,4,,,64,127
34684,note_off,0,0,0,,12,,,71,127
34685,note_on,1,0,0,,6,,,66,127
34685,note_on,0,0,0,,2,,,74,127
34789,note_off,104,0,0,,6,,,66,127
34790,note_on,1,0,0,,4,,,64,127
34894,note_off,104,0,0,,4,,,64,127
34894,note_off,0,0,0,,2,,,74,127
34895,note_on,1,0,0,,6,,,66,127
34895,note_on,0,0,0,,2,,,74,127
34999,note_off,104,0,0,,6,,,66,127
35000,note_on,1,0,0,,2,,,62,127
35104,note_off,104,0,0,,2,,,62,127
35104,note_off,0,0,0,,2,,,74,127
35105,note_on,1,0,0,,7,,,67,127
35105,note_on,0,0,0,,4,,,76,127
35209,note_off,104,0,0,,7,,,67,127
35210,note_on,1,0,0,,4,,,64,127
35314,note_off,104,0,0,,4,,,64,127
35314,note_off,0,0,0,,4,,,76,127
35315,note_on,1,0,0,,6,,,66,127
35315,note_on,0,0,0,,2,,,74,127
35419,note_off,104,0,0,,6,,,66,127
35420,note_on,1,0,0,,4,,,64,127
35524,note_off,104,0,0,,4,,,64,127
35524,note_off,0,0,0,,2,,,74,127
35525,note_on,1,0,0,,6,,,66,127
35525,note_on,0,0,0,,2,,,74,127
35629,note_off,104,0,0,,6,,,66,127
35630,note_on,1,0,0,,2,,,62,127
35734,note_off,104,0,0,,2,,,62,127
35734,note_off,0,0,0,,2,,,74,127
35735,note_on,1,0,0,,7,,,67,127
35735,note_on,0,0,0,,4,,,76,127
35839,note_off,104,0,0,,7,,,67,127
35840,note_on,1,0,0,,4,,,64,127
35944,note_off,104,0,0,,4,,,64,127
35944,note_off,0,0,0,,4,,,76,127
35945,note_on,1,0,0,,6,,,66,127
35945,note_on,0,0,0,,2,,,74,127
36049,note_off,104,0,0,,2,,,74,127
36050,note_on,1,0,0,,4,,,76,127
36154,note_off,104,0,0,,4,,,76,127
36154,note_off,0,0,0,,6,,,66,127
36155,note_on,1,0,0,,6,,,66,127
36155,note_on,0,0,0,,6,,,78,127
36259,note_off,104,0,0,,6,,,78,127
36260,note_on,1,0,0,,2,,,74,127
36364,note_off,104,0,0,,2,,,74,127
36364,note_off,0,0,0,,6,,,66,127
36365,note_on,1,0,0,,4,,,64,127
36365,note_on,0,0,0,,7,,,79,127
36469,note_off,104,0,0,,7,,,79,127
36470,note_on,1,0,0,,4,,,76,127
36574,note_off,104,0,0,,4,,,76,127
36574,note_off,0,0,0,,4,,,64,127
36575,note_on,1,0,0,,2,,,62,127
36575,note_on,0,0,0,,6,,,78,127
36679,note_off,104,0,0,,6,,,78,127
36680,note_on,1,0,0,,4,,,76,127
36784,note_off,104,0,0,,4,,,76,127
36784,note_off,0,0,0,,2,,,62,127
36785,note_on,1,0,0,,2,,,62,127
36785,note_on,0,0,0,,6,,,78,127
36889,note_off,104,0,0,,6,,,78,127
36890,note_on,1,0,0,,2,,,74,127
36994,note_off,104,0,0,,2,,,74,127
36994,note_off,0,0,0,,2,,,62,127
36995,note_on,1,0,0,,4,,,64,127
36995,note_on,0,0,0,,7,,,79,127
37099,note_off,104,0,0,,7,,,79,127
37100,note_on,1,0,0,,4,,,76,127
37204,note_off,104,0,0,,4,,,76,127
37204,note_off,0,0,0,,4,,,64,127
37205,note_on,1,0,0,,2,,,62,127
37205,note_on,0,0,0,,6,,,78,127
37309,note_off,104,0,0,,6,,,78,127
37310,note_on,1,0,0,,4,,,76,127
37414,note_off,104,0,0,,4,,,76,127
37414,note_off,0,0,0,,2,,,62,127
37415,note_on,1,0,0,,4,,,64,127
37415,note_on,0,0,0,,2,,,74,127
37519,note_off,104,0,0,,2,,,74,127
37520,note_on,1,0,0,,0,,,72,127
37624,note_off,104,0,0,,0,,,72,127
37624,note_off,0,0,0,,4,,,64,127
37625,note_on,1,0,0,,6,,,66,127
37625,note_on,0,0,0,,12,,,71,127
37729,note_off,104,0,0,,12,,,71,127
37730,note_on,1,0,0,,10,,,69,127
37834,note_off,104,0,0,,10,,,69,127
37834,note_off,0,0,0,,6,,,66,127
37835,note_on,1,0,0,,7,,,55,127
37835,note_on,0,0,0,,12,,,71,127
38043,note_off,208,0,0,,12,,,71,127
38043,note_off,0,0,0,,7,,,55,127
38044,note_on,1,0,0,,7,,,55,127
38044,note_on,0,0,0,,7,,,67,127
38252,note_off,208,0,0,,7,,,67,127
38252,note_off,0,0,0,,7,,,55,127
38253,note_on,1,0,0,,10,,,57,127
38253,note_on,0,0,0,,0,,,72,127
38461,note_off,208,0,0,,0,,,72,127
38461,note_off,0,0,0,,10,,,57,127
38462,note_on,1,0,0,,7,,,55,127
38462,note_on,0,0,0,,12,,,71,127
38670,note_off,208,0,0,,12,,,71,127
38670,note_off,0,0,0,,7,,,55,127
38671,note_on,1,0,0,,7,,,55,127
38671,note_on,0,0,0,,7,,,67,127
38879,note_off,208,0,0,,7,,,55,127
38880,note_on,1,0,0,,10,,,57,127
38880,note_on,0,0,0,,0,,,72,127
38891,note_off,11,0,0,,7,,,67,127
39037,note_off,146,0,0,,0,,,72,127
39088,note_off,51,0,0,,10,,,57,127
39089,note_on,1,0,0,,7,,,55,127
39089,note_on,0,0,0,,2,,,62,127
39193,note_off,104,0,0,,7,,,55,127
39194,note_on,1,0,0,,10,,,57,127
39298,note_off,104,0,0,,10,,,57,127
39298,note_off,0,0,0,,2,,,62,127
39299,note_on,1,0,0,,12,,,59,127
39299,note_on,0,0,0,,2,,,62,127
39403,note_off,104,0,0,,12,,,59,127
39404,note_on,1,0,0,,7,,,55,127
39508,note_off,104,0,0,,7,,,55,127
39508,note_off,0,0,0,,2,,,62,127
39509,note_on,1,0,0,,0,,,60,127
39509,note_on,0,0,0,,4,,,64,127
39613,note_off,104,0,0,,0,,,60,127
39614,note_on,1,0,0,,10,,,57,127
39718,note_off,104,0,0,,10,,,57,127
39718,note_off,0,0,0,,4,,,64,127
39719,note_on,1,0,0,,12,,,59,127
39719,note_on,0,0,0,,2,,,62,127
39823,note_off,104,0,0,,12,,,59,127
39824,note_on,1,0,0,,10,,,57,127
39928,note_off,104,0,0,,10,,,57,127
39928,note_off,0,0,0,,2,,,62,127
39929,note_on,1,0,0,,12,,,59,127
39929,note_on,0,0,0,,2,,,62,127
40033,note_off,104,0,0,,12,,,59,127
40034,note_on,1,0,0,,7,,,55,127
40138,note_off,104,0,0,,7,,,55,127
40138,note_off,0,0,0,,2,,,62,127
40139,note_on,1,0,0,,0,,,60,127
40139,note_on,0,0,0,,4,,,64,127
40243,note_off,104,0,0,,0,,,60,127
40244,note_on,1,0,0,,10,,,57,127
40348,note_off,104,0,0,,10,,,57,127
40348,note_off,0,0,0,,4,,,64,127
40349,note_on,1,0,0,,12,,,59,127
40349,note_on,0,0,0,,7,,,67,127
40453,note_off,104,0,0,,12,,,59,127
40454,note_on,1,0,0,,10,,,57,127
40558,note_off,104,0,0,,10,,,57,127
40558,note_off,0,0,0,,7,,,67,127
40559,note_on,1,0,0,,12,,,59,127
40559,note_on,0,0,0,,7,,,67,127
40663,note_off,104,0,0,,12,,,59,127
40664,note_on,1,0,0,,7,,,55,127
40768,note_off,104,0,0,,7,,,55,127
40768,note_off,0,0,0,,7,,,67,127
40769,note_on,1,0,0,,0,,,60,127
40769,note_on,0,0,0,,10,,,69,127
40873,note_off,104,0,0,,0,,,60,127
40874,note_on,1,0,0,,10,,,57,127
40978,note_off,104,0,0,,10,,,57,127
40978,note_off,0,0,0,,10,,,69,127
40979,note_on,1,0,0,,12,,,59,127
40979,note_on,0,0,0,,7,,,67,127
41083,note_off,104,0,0,,12,,,59,127
41084,note_on,1,0,0,,10,,,57,127
41188,note_off,104,0,0,,10,,,57,127
41188,note_off,0,0,0,,7,,,67,127
41189,note_on,1,0,0,,12,,,59,127
41189,note_on,0,0,0,,7,,,67,127
41293,note_off,104,0,0,,12,,,59,127
41294,note_on,1,0,0,,7,,,55,127
41398,note_off,104,0,0,,7,,,55,127
41398,note_off,0,0,0,,7,,,67,127
41399,note_on,1,0,0,,0,,,60,127
41399,note_on,0,0,0,,10,,,69,127
41503,note_off,104,0,0,,0,,,60,127
41504,note_on,1,0,0,,10,,,57,127
41608,note_off,104,0,0,,10,,,57,127
41608,note_off,0,0,0,,10,,,69,127
41609,note_on,1,0,0,,12,,,59,127
41609,note_on,0,0,0,,7,,,67,127
41713,note_off,104,0,0,,7,,,67,127
41714,note_on,1,0,0,,10,,,69,127
41818,note_off,104,0,0,,10,,,69,127
41818,note_off,0,0,0,,12,,,59,127
41819,note_on,1,0,0,,10,,,57,127
41819,note_on,0,0,0,,12,,,71,127
41923,note_off,104,0,0,,12,,,71,127
41924,note_on,1,0,0,,0,,,72,127
42028,note_off,104,0,0,,0,,,72,127
42028,note_off,0,0,0,,10,,,57,127
42029,note_on,1,0,0,,7,,,55,127
42029,note_on,0,0,0,,2,,,74,127
42133,note_off,104,0,0,,2,,,74,127
42134,note_on,1,0,0,,12,,,71,127
42238,note_off,104,0,0,,12,,,71,127
42238,note_off,0,0,0,,7,,,55,127
42239,note_on,1,0,0,,0,,,60,127
42239,note_on,0,0,0,,4,,,76,127
42343,note_off,104,0,0,,4,,,76,127
42344,note_on,1,0,0,,2,,,74,127
42448,note_off,104,0,0,,2,,,74,127
42449,note_on,1,0,0,,0,,,48,127
42449,note_on,0,0,0,,0,,,72,127
42553,note_off,104,0,0,,0,,,72,127
42554,note_on,1,0,0,,12,,,71,127
42654,note_off,100,0,0,,0,,,60,127
42657,note_off,3,0,0,,12,,,71,127
42657,note_off,0,0,0,,0,,,48,127
42658,note_on,1,0,0,,0,,,60,127
42658,note_on,0,0,0,,10,,,69,127
42762,note_off,104,0,0,,10,,,69,127
42763,note_on,1,0,0,,7,,,67,127
42867,note_off,104,0,0,,7,,,67,127
42867,note_off,0,0,0,,0,,,60,127
42868,note_on,1,0,0,,2,,,62,127
42868,note_on,0,0,0,,6,,,66,127
43076,note_off,208,0,0,,2,,,62,127
43077,note_on,1,0,0,,2,,,62,127
43088,note_off,11,0,0,,6,,,66,127
43276,note_off,188,0,0,,2,,,62,127
43287,note_on,11,0,0,,11,,,70,127
43496,note_on,209,0,0,,5,,,65,127
43704,note_off,208,0,0,,5,,,65,127
43704,note_off,0,0,0,,11,,,70,127
43705,note_on,1,0,0,,10,,,69,127
43705,note_on,0,0,0,,4,,,64,127
43913,note_off,208,0,0,,4,,,64,127
43913,note_off,0,0,0,,10,,,69,127
43914,note_on,1,0,0,,2,,,62,127
43914,note_on,0,0,0,,8,,,68,127
44122,note_off,208,0,0,,8,,,68,127
44122,note_off,0,0,0,,2,,,62,127
44123,note_on,1,0,0,,10,,,69,127
44123,note_on,0,0,0,,0,,,60,127
44331,note_off,208,0,0,,10,,,69,127
44332,note_on,1,0,0,,12,,,71,127
44531,note_off,199,0,0,,12,,,71,127
44541,note_off,10,0,0,,0,,,60,127
44542,note_on,1,0,0,,0,,,72,127
44751,note_on,209,0,0,,7,,,67,127
44959,note_off,208,0,0,,7,,,67,127
44959,note_off,0,0,0,,0,,,72,127
44960,note_on,1,0,0,,6,,,66,127
44960,note_on,0,0,0,,12,,,71,127
45168,note_off,208,0,0,,12,,,71,127
45168,note_off,0,0,0,,6,,,66,127
45169,note_on,1,0,0,,11,,,70,127
45169,note_on,0,0,0,,4,,,64,127
45377,note_off,208,0,0,,4,,,64,127
45377,note_off,0,0,0,,11,,,70,127
45378,note_on,1,0,0,,12,,,71,127
45378,note_on,0,0,0,,2,,,62,127
45586,note_off,208,0,0,,12,,,71,127
45587,note_on,1,0,0,,1,,,73,127
45786,note_off,199,0,0,,1,,,73,127
45796,note_off,10,0,0,,2,,,62,127
45797,note_on,1,0,0,,2,,,74,127
46006,note_on,209,0,0,,11,,,70,127
46214,note_off,208,0,0,,11,,,70,127
46214,note_off,0,0,0,,2,,,74,127
46215,note_on,1,0,0,,10,,,69,127
46215,note_on,0,0,0,,1,,,73,127
46423,note_off,208,0,0,,10,,,69,127
46424,note_on,1,0,0,,7,,,67,127
46632,note_off,208,0,0,,7,,,67,127
46632,note_off,0,0,0,,1,,,73,127
46633,note_on,1,0,0,,5,,,65,127
46633,note_on,0,0,0,,2,,,74,127
46841,note_off,208,0,0,,2,,,74,127
46842,note_on,1,0,0,,4,,,76,127
47041,note_off,199,0,0,,4,,,76,127
47051,note_off,10,0,0,,5,,,65,127
47052,note_on,1,0,0,,5,,,77,127
47261,note_on,209,0,0,,0,,,72,127
47469,note_off,208,0,0,,0,,,72,127
47469,note_off,0,0,0,,5,,,77,127
47470,note_on,1,0,0,,4,,,76,127
47470,note_on,0,0,0,,12,,,71,127
47678,note_off,208,0,0,,12,,,71,127
47678,note_off,0,0,0,,4,,,76,127
47679,note_on,1,0,0,,3,,,75,127
47679,note_on,0,0,0,,10,,,69,127
47887,note_off,208,0,0,,10,,,69,127
47887,note_off,0,0,0,,3,,,75,127
47888,note_on,1,0,0,,4,,,76,127
47888,note_on,0,0,0,,7,,,67,127
48096,note_off,208,0,0,,4,,,76,127
48097,note_on,1,0,0,,6,,,78,127
48296,note_off,199,0,0,,6,,,78,127
48306,note_off,10,0,0,,7,,,67,127
48307,note_on,1,0,0,,7,,,79,127
48516,note_on,209,0,0,,4,,,76,127
48724,note_off,208,0,0,,4,,,76,127
48724,note_off,0,0,0,,7,,,79,127
48725,note_on,1,0,0,,6,,,78,127
48725,note_on,0,0,0,,2,,,74,127
48933,note_off,208,0,0,,2,,,74,127
48933,note_off,0,0,0,,6,,,78,127
48934,note_on,1,0,0,,4,,,76,127
48934,note_on,0,0,0,,0,,,72,127
49142,note_off,208,0,0,,0,,,72,127
49142,note_off,0,0,0,,4,,,76,127
49143,note_on,1,0,0,,2,,,74,127
49143,note_on,0,0,0,,12,,,71,127
49351,note_off,208,0,0,,12,,,71,127
49351,note_off,0,0,0,,2,,,74,127
49352,note_on,1,0,0,,10,,,69,127
49352,note_on,0,0,0,,0,,,72,127
49560,note_off,208,0,0,,0,,,72,127
49560,note_off,0,0,0,,10,,,69,127
49561,note_on,1,0,0,,12,,,71,127
49561,note_on,0,0,0,,7,,,67,127
49769,note_off,208,0,0,,7,,,67,127
49769,note_off,0,0,0,,12,,,71,127
49770,note_on,1,0,0,,0,,,72,127
49770,note_on,0,0,0,,10,,,69,127
49978,note_off,208,0,0,,10,,,69,127
49978,note_off,0,0,0,,0,,,72,127
49979,note_on,1,0,0,,6,,,66,127
49979,note_on,0,0,0,,2,,,74,127
50187,note_off,208,0,0,,2,,,74,127
50187,note_off,0,0,0,,6,,,66,127
50188,note_on,1,0,0,,7,,,67,127
50188,note_on,0,0,0,,12,,,71,127
50396,note_off,208,0,0,,12,,,71,127
50396,note_off,0,0,0,,7,,,67,127
50397,note_on,1,0,0,,2,,,62,127
50397,note_on,0,0,0,,10,,,69,127
50397,note_on,0,0,0,,6,,,66,127
50605,note_off,208,0,0,,6,,,66,127
50605,note_off,0,0,0,,10,,,69,127
50605,note_off,0,0,0,,2,,,62,127
50606,note_on,1,0,0,,2,,,62,127
50606,note_on,0,0,0,,2,,,74,127
50814,note_off,208,0,0,,2,,,74,127
50814,note_off,0,0,0,,2,,,62,127
50815,note_on,1,0,0,,4,,,64,127
50815,note_on,0,0,0,,7,,,67,127
51023,note_off,208,0,0,,7,,,67,127
51023,note_off,0,0,0,,4,,,64,127
51024,note_on,1,0,0,,2,,,62,127
51024,note_on,0,0,0,,10,,,69,127
51024,note_on,0,0,0,,6,,,66,127
51232,note_off,208,0,0,,6,,,66,127
51232,note_off,0,0,0,,10,,,69,127
51232,note_off,0,0,0,,2,,,62,127
51233,note_on,1,0,0,,2,,,62,127
51233,note_on,0,0,0,,2,,,74,127
51441,note_off,208,0,0,,2,,,74,127
51441,note_off,0,0,0,,2,,,62,127
51442,note_on,1,0,0,,4,,,64,127
51442,note_on,0,0,0,,7,,,67,127
51650,note_off,208,0,0,,7,,,67,127
51650,note_off,0,0,0,,4,,,64,127
51651,note_on,1,0,0,,2,,,62,127
51651,note_on,0,0,0,,6,,,66,127
51651,note_on,0,0,0,,10,,,69,127
51859,note_off,208,0,0,,10,,,69,127
51859,note_off,0,0,0,,6,,,66,127
51859,note_off,0,0,0,,2,,,62,127
51860,note_on,1,0,0,,2,,,62,127
51860,note_on,0,0,0,,2,,,74,127
51964,note_off,104,0,0,,2,,,62,127
51965,note_on,1,0,0,,4,,,64,127
52069,note_off,104,0,0,,4,,,64,127
52069,note_off,0,0,0,,2,,,74,127
52070,note_on,1,0,0,,6,,,66,127
52070,note_on,0,0,0,,0,,,72,127
52174,note_off,104,0,0,,6,,,66,127
52175,note_on,1,0,0,,2,,,62,127
52279,note_off,104,0,0,,2,,,62,127
52279,note_off,0,0,0,,0,,,72,127
52280,note_on,1,0,0,,7,,,67,127
52280,note_on,0,0,0,,12,,,83,127
52280,note_on,0,0,0,,7,,,79,127
52488,note_off,208,0,0,,12,,,83,127
52489,note_on,1,0,0,,2,,,74,127
52574,note_off,85,0,0,,7,,,79,127
52593,note_off,19,0,0,,7,,,67,127
52594,note_on,1,0,0,,7,,,67,127
52698,note_off,104,0,0,,7,,,67,127
52698,note_off,0,0,0,,2,,,74,127
52699,note_on,1,0,0,,6,,,66,127
52699,note_on,0,0,0,,0,,,84,127
52699,note_on,0,0,0,,10,,,81,127
52803,note_off,104,0,0,,6,,,66,127
52804,note_on,1,0,0,,2,,,62,127
52908,note_off,104,0,0,,2,,,62,127
52908,note_off,0,0,0,,10,,,81,127
52908,note_off,0,0,0,,0,,,84,127
52909,note_on,1,0,0,,7,,,55,127
52909,note_on,0,0,0,,12,,,83,127
52909,note_on,0,0,0,,7,,,79,127
53117,note_off,208,0,0,,12,,,83,127
53118,note_on,1,0,0,,2,,,74,127
53203,note_off,85,0,0,,7,,,79,127
53222,note_off,19,0,0,,7,,,55,127
53223,note_on,1,0,0,,7,,,67,127
53327,note_off,104,0,0,,7,,,67,127
53327,note_off,0,0,0,,2,,,74,127
53328,note_on,1,0,0,,6,,,66,127
53328,note_on,0,0,0,,0,,,84,127
53328,note_on,0,0,0,,10,,,81,127
53432,note_off,104,0,0,,6,,,66,127
53433,note_on,1,0,0,,2,,,62,127
53537,note_off,104,0,0,,2,,,62,127
53537,note_off,0,0,0,,10,,,81,127
53537,note_off,0,0,0,,0,,,84,127
53538,note_on,1,0,0,,7,,,55,127
53538,note_on,0,0,0,,12,,,83,127
53538,note_on,0,0,0,,7,,,79,127
53746,note_off,208,0,0,,12,,,83,127
53747,note_on,1,0,0,,2,,,74,127
53832,note_off,85,0,0,,7,,,79,127
53851,note_off,19,0,0,,7,,,55,127
53852,note_on,1,0,0,,7,,,67,127
53956,note_off,104,0,0,,7,,,67,127
53956,note_off,0,0,0,,2,,,74,127
53957,note_on,1,0,0,,6,,,66,127
53957,note_on,0,0,0,,0,,,84,127
53957,note_on,0,0,0,,10,,,81,127
54061,note_off,104,0,0,,6,,,66,127
54062,note_on,1,0,0,,2,,,62,127
54166,note_off,104,0,0,,2,,,62,127
54166,note_off,0,0,0,,10,,,81,127
54166,note_off,0,0,0,,0,,,84,127
54167,note_on,1,0,0,,7,,,55,127
54167,note_on,0,0,0,,12,,,83,127
54167,note_on,0,0,0,,7,,,79,127
54375,note_off,208,0,0,,12,,,83,127
54376,note_on,1,0,0,,2,,,74,127
54461,note_off,85,0,0,,7,,,79,127
54480,note_off,19,0,0,,7,,,55,127
54481,note_on,1,0,0,,2,,,62,127
54585,note_off,104,0,0,,2,,,62,127
54585,note_off,0,0,0,,2,,,74,127
54586,note_on,1,0,0,,1,,,61,127
54586,note_on,0,0,0,,11,,,82,127
54586,note_on,0,0,0,,7,,,79,127
54690,note_off,104,0,0,,1,,,61,127
54691,note_on,1,0,0,,10,,,57,127
54795,note_off,104,0,0,,10,,,57,127
54795,note_off,0,0,0,,7,,,79,127
54795,note_off,0,0,0,,11,,,82,127
54796,note_on,1,0,0,,2,,,50,127
54796,note_on,0,0,0,,6,,,78,127
54796,note_on,0,0,0,,10,,,81,127
55004,note_off,208,0,0,,10,,,81,127
55005,note_on,1,0,0,,2,,,74,127
55090,note_off,85,0,0,,6,,,78,127
55109,note_off,19,0,0,,2,,,50,127
55110,note_on,1,0,0,,2,,,62,127
55214,note_off,104,0,0,,2,,,62,127
55214,note_off,0,0,0,,2,,,74,127
55215,note_on,1,0,0,,1,,,61,127
55215,note_on,0,0,0,,11,,,82,127
55215,note_on,0,0,0,,7,,,79,127
55319,note_off,104,0,0,,1,,,61,127
55320,note_on,1,0,0,,10,,,57,127
55424,note_off,104,0,0,,10,,,57,127
55424,note_off,0,0,0,,7,,,79,127
55424,note_off,0,0,0,,11,,,82,127
55425,note_on,1,0,0,,2,,,50,127
55425,note_on,0,0,0,,6,,,78,127
55425,note_on,0,0,0,,10,,,81,127
55633,note_off,208,0,0,,10,,,81,127
55634,note_on,1,0,0,,2,,,74,127
55719,note_off,85,0,0,,6,,,78,127
55738,note_off,19,0,0,,2,,,50,127
55739,note_on,1,0,0,,0,,,60,127
55843,note_off,104,0,0,,0,,,60,127
55843,note_off,0,0,0,,2,,,74,127
55844,note_on,1,0,0,,12,,,59,127
55844,note_on,0,0,0,,8,,,80,127
55844,note_on,0,0,0,,5,,,77,127
55948,note_off,104,0,0,,12,,,59,127
55949,note_on,1,0,0,,7,,,55,127
56053,note_off,104,0,0,,7,,,55,127
56053,note_off,0,0,0,,5,,,77,127
56053,note_off,0,0,0,,8,,,80,127
56054,note_on,1,0,0,,0,,,48,127
56054,note_on,0,0,0,,3,,,75,127
56054,note_on,0,0,0,,7,,,79,127
56262,note_off,208,0,0,,7,,,79,127
56263,note_on,1,0,0,,0,,,72,127
56348,note_off,85,0,0,,3,,,75,127
56367,note_off,19,0,0,,0,,,48,127
56368,note_on,1,0,0,,0,,,60,127
56472,note_off,104,0,0,,0,,,60,127
56472,note_off,0,0,0,,0,,,72,127
56473,note_on,1,0,0,,12,,,59,127
56473,note_on,0,0,0,,8,,,80,127
56473,note_on,0,0,0,,5,,,77,127
56577,note_off,104,0,0,,12,,,59,127
56578,note_on,1,0,0,,7,,,55,127
56682,note_off,104,0,0,,7,,,55,127
56682,note_off,0,0,0,,5,,,77,127
56682,note_off,0,0,0,,8,,,80,127
56683,note_on,1,0,0,,0,,,48,127
56683,note_on,0,0,0,,3,,,75,127
56683,note_on,0,0,0,,7,,,79,127
56891,note_off,208,0,0,,7,,,79,127
56892,note_on,1,0,0,,0,,,72,127
56977,note_off,85,0,0,,3,,,75,127
56996,note_off,19,0,0,,0,,,48,127
56997,note_on,1,0,0,,7,,,55,127
57101,note_off,104,0,0,,7,,,55,127
57101,note_off,0,0,0,,0,,,72,127
57102,note_on,1,0,0,,6,,,54,127
57102,note_on,0,0,0,,3,,,75,127
57102,note_on,0,0,0,,0,,,72,127
57206,note_off,104,0,0,,6,,,54,127
57207,note_on,1,0,0,,2,,,50,127
57311,note_off,104,0,0,,2,,,50,127
57311,note_off,0,0,0,,0,,,72,127
57311,note_off,0,0,0,,3,,,75,127
57312,note_on,1,0,0,,7,,,43,127
57312,note_on,0,0,0,,11,,,70,127
57312,note_on,0,0,0,,2,,,74,127
57520,note_off,208,0,0,,2,,,74,127
57521,note_on,1,0,0,,7,,,67,127
57606,note_off,85,0,0,,11,,,70,127
57625,note_off,19,0,0,,7,,,43,127
57626,note_on,1,0,0,,7,,,55,127
57730,note_off,104,0,0,,7,,,55,127
57730,note_off,0,0,0,,7,,,67,127
57731,note_on,1,0,0,,6,,,54,127
57731,note_on,0,0,0,,0,,,72,127
57731,note_on,0,0,0,,3,,,75,127
57835,note_off,104,0,0,,6,,,54,127
57836,note_on,1,0,0,,2,,,50,127
57940,note_off,104,0,0,,2,,,50,127
57940,note_off,0,0,0,,3,,,75,127
57940,note_off,0,0,0,,0,,,72,127
57941,note_on,1,0,0,,7,,,43,127
57941,note_on,0,0,0,,2,,,74,127
57941,note_on,0,0,0,,11,,,70,127
58149,note_off,208,0,0,,2,,,74,127
58150,note_on,1,0,0,,7,,,67,127
58235,note_off,85,0,0,,11,,,70,127
58254,note_off,19,0,0,,7,,,43,127
58255,note_on,1,0,0,,2,,,50,127
58359,note_off,104,0,0,,2,,,50,127
58359,note_off,0,0,0,,7,,,67,127
58360,note_on,1,0,0,,1,,,49,127
58360,note_on,0,0,0,,7,,,67,127
58360,note_on,0,0,0,,11,,,70,127
58464,note_off,104,0,0,,1,,,49,127
58465,note_on,1,0,0,,10,,,45,127
58569,note_off,104,0,0,,10,,,45,127
58569,note_off,0,0,0,,11,,,70,127
58569,note_off,0,0,0,,7,,,67,127
58570,note_on,1,0,0,,2,,,38,127
58570,note_on,0,0,0,,10,,,69,127
58570,note_on,0,0,0,,6,,,66,127
58778,note_off,208,0,0,,10,,,69,127
58779,note_on,1,0,0,,2,,,62,127
58864,note_off,85,0,0,,6,,,66,127
58883,note_off,19,0,0,,2,,,38,127
58884,note_on,1,0,0,,2,,,50,127
58988,note_off,104,0,0,,2,,,50,127
58988,note_off,0,0,0,,2,,,62,127
58989,note_on,1,0,0,,1,,,49,127
58989,note_on,0,0,0,,11,,,70,127
58989,note_on,0,0,0,,7,,,67,127
59093,note_off,104,0,0,,1,,,49,127
59094,note_on,1,0,0,,10,,,45,127
59198,note_off,104,0,0,,10,,,45,127
59198,note_off,0,0,0,,7,,,67,127
59198,note_off,0,0,0,,11,,,70,127
59199,note_on,1,0,0,,2,,,38,127
59199,note_on,0,0,0,,10,,,69,127
59303,note_off,104,0,0,,10,,,69,127
59304,note_on,1,0,0,,7,,,67,127
59408,note_off,104,0,0,,7,,,67,127
59408,note_off,0,0,0,,2,,,38,127
59409,note_on,1,0,0,,4,,,40,127
59409,note_on,0,0,0,,6,,,66,127
59513,note_off,104,0,0,,6,,,66,127
59514,note_on,1,0,0,,4,,,64,127
59618,note_off,104,0,0,,4,,,64,127
59618,note_off,0,0,0,,4,,,40,127
59619,note_on,1,0,0,,6,,,42,127
59619,note_on,0,0,0,,2,,,62,127
59723,note_off,104,0,0,,2,,,62,127
59724,note_on,1,0,0,,0,,,60,127
59828,note_off,104,0,0,,0,,,60,127
59828,note_off,0,0,0,,6,,,42,127
59829,note_on,1,0,0,,7,,,43,127
59829,note_on,0,0,0,,2,,,74,127
59933,note_off,104,0,0,,2,,,74,127
59934,note_on,1,0,0,,0,,,72,127
60038,note_off,104,0,0,,0,,,72,127
60038,note_off,0,0,0,,7,,,43,127
60039,note_on,1,0,0,,10,,,45,127
60039,note_on,0,0,0,,12,,,71,127
60143,note_off,104,0,0,,12,,,71,127
60144,note_on,1,0,0,,10,,,69,127
60248,note_off,104,0,0,,10,,,69,127
60248,note_off,0,0,0,,10,,,45,127
60249,note_on,1,0,0,,12,,,47,127
60249,note_on,0,0,0,,7,,,67,127
60353,note_off,104,0,0,,7,,,67,127
60354,note_on,1,0,0,,12,,,71,127
60458,note_off,104,0,0,,12,,,71,127
60458,note_off,0,0,0,,12,,,47,127
60459,note_on,1,0,0,,0,,,48,127
60459,note_on,0,0,0,,10,,,69,127
60563,note_off,104,0,0,,10,,,69,127
60564,note_on,1,0,0,,0,,,72,127
60668,note_off,104,0,0,,0,,,72,127
60668,note_off,0,0,0,,0,,,48,127
60669,note_on,1,0,0,,2,,,50,127
60669,note_on,0,0,0,,12,,,71,127
60773,note_off,104,0,0,,12,,,71,127
60774,note_on,1,0,0,,7,,,67,127
60878,note_off,104,0,0,,7,,,67,127
60879,note_on,1,0,0,,2,,,38,127
60879,note_on,0,0,0,,10,,,69,127
60983,note_off,104,0,0,,10,,,69,127
60984,note_on,1,0,0,,6,,,66,127
61084,note_off,100,0,0,,2,,,50,127
61087,note_off,3,0,0,,6,,,66,127
61087,note_off,0,0,0,,2,,,38,127
61088,note_on,1,0,0,,7,,,43,127
61088,note_on,0,0,0,,7,,,67,127
61192,note_off,104,0,0,,7,,,67,127
61193,note_on,1,0,0,,2,,,62,127
61297,note_off,104,0,0,,2,,,62,127
61298,note_on,1,0,0,,12,,,71,127
61402,note_off,104,0,0,,12,,,71,127
61403,note_on,1,0,0,,7,,,67,127
61507,note_off,104,0,0,,7,,,67,127
61508,note_on,1,0,0,,2,,,74,127
61612,note_off,104,0,0,,2,,,74,127
61613,note_on,1,0,0,,12,,,71,127
61717,note_off,104,0,0,,12,,,71,127
61717,note_off,0,0,0,,7,,,43,127
61718,note_on,1,0,0,,7,,,43,127
61718,note_on,0,0,0,,7,,,79,127
61822,note_off,104,0,0,,7,,,79,127
61823,note_on,1,0,0,,2,,,74,127
61927,note_off,104,0,0,,2,,,74,127
61928,note_on,1,0,0,,12,,,71,127
62032,note_off,104,0,0,,12,,,71,127
62033,note_on,1,0,0,,2,,,74,127
62137,note_off,104,0,0,,2,,,74,127
62138,note_on,1,0,0,,7,,,67,127
62242,note_off,104,0,0,,7,,,67,127
62243,note_on,1,0,0,,12,,,71,127
62347,note_off,104,0,0,,12,,,71,127
62347,note_off,0,0,0,,7,,,43,127
62348,note_on,1,0,0,,7,,,43,127
62348,note_on,0,0,0,,2,,,62,127
62452,note_off,104,0,0,,2,,,62,127
62453,note_on,1,0,0,,7,,,67,127
62557,note_off,104,0,0,,7,,,67,127
62558,note_on,1,0,0,,12,,,59,127
62662,note_off,104,0,0,,12,,,59,127
62663,note_on,1,0,0,,2,,,62,127
62767,note_off,104,0,0,,2,,,62,127
62768,note_on,1,0,0,,7,,,55,127
62872,note_off,104,0,0,,7,,,55,127
62886,note_on,14,0,0,,12,,,59,127
62977,note_off,91,0,0,,7,,,43,127
62990,note_off,13,0,0,,12,,,59,127
63037,note_on,47,0,0,,7,,,43,127
65001,note_off,1964,0,0,,7,,,43,127
69120,end_of_track,4119,1,0,,,,,,
