tick,type,tempo,time,meta,track,numerator,denominator,clocks_per_click,notated_32nd_notes_per_beat,note,velocity,channel
0,set_tempo,500000,0,1,0,,,,,,,
0,track_name,,0,1,1,,,,,,,
0,track_name,,0,1,2,,,,,,,
0,time_signature,,0,1,0,4,4,24,8,,,
48,note_on,,48,0,1,,,,,79,127,0
48,note_on,,0,0,2,,,,,55,95,1
48,note_on,,0,0,2,,,,,62,95,1
48,note_on,,48,0,2,,,,,71,95,1
391,note_off,,343,0,1,,,,,79,127,0
393,note_on,,2,0,1,,,,,78,127,0
564,note_off,,171,0,1,,,,,78,127,0
566,note_on,,2,0,1,,,,,79,127,0
735,note_off,,687,0,2,,,,,55,95,1
735,note_off,,0,0,2,,,,,71,95,1
735,note_off,,0,0,2,,,,,62,95,1
737,note_off,,171,0,1,,,,,79,127,0
739,note_on,,2,0,1,,,,,74,127,0
739,note_on,,0,0,2,,,,,50,95,1
739,note_on,,0,0,2,,,,,69,95,1
739,note_on,,4,0,2,,,,,66,95,1
1081,note_off,,342,0,2,,,,,50,95,1
1081,note_off,,0,0,2,,,,,66,95,1
1081,note_off,,0,0,2,,,,,69,95,1
1082,note_off,,343,0,1,,,,,74,127,0
1084,note_on,,3,0,2,,,,,71,95,1
1084,note_on,,0,0,2,,,,,62,95,1
1084,note_on,,0,0,2,,,,,43,95,1
1084,note_on,,2,0,1,,,,,71,127,0
1427,note_off,,343,0,1,,,,,71,127,0
1430,note_on,,3,0,1,,,,,67,127,0
1771,note_off,,687,0,2,,,,,62,95,1
1771,note_off,,0,0,2,,,,,71,95,1
1773,note_off,,343,0,1,,,,,67,127,0
1776,note_on,,3,0,1,,,,,74,127,0
2117,note_off,,346,0,2,,,,,43,95,1
2119,note_off,,343,0,1,,,,,74,127,0
2121,note_on,,2,0,1,,,,,79,127,0
2464,note_off,,343,0,1,,,,,79,127,0
2467,note_on,,3,0,1,,,,,78,127,0
2638,note_off,,171,0,1,,,,,78,127,0
2640,note_on,,2,0,1,,,,,79,127,0
2811,note_off,,171,0,1,,,,,79,127,0
2812,note_on,,0,0,2,,,,,50,95,1
2812,note_on,,0,0,2,,,,,69,95,1
2812,note_on,,695,0,2,,,,,66,95,1
2812,note_on,,1,0,1,,,,,74,127,0
3154,note_off,,0,0,2,,,,,66,95,1
3154,note_off,,0,0,2,,,,,69,95,1
3154,note_off,,342,0,2,,,,,50,95,1
3155,note_off,,343,0,1,,,,,74,127,0
3158,note_on,,4,0,2,,,,,62,95,1
3158,note_on,,0,0,2,,,,,43,95,1
3158,note_on,,3,0,1,,,,,71,127,0
3158,note_on,,0,0,2,,,,,71,95,1
3501,note_off,,343,0,1,,,,,71,127,0
3502,note_on,,1,0,1,,,,,67,127,0
3802,note_off,,300,0,1,,,,,67,127,0
3845,note_off,,0,0,2,,,,,71,95,1
3845,note_off,,0,0,2,,,,,62,95,1
3845,note_off,,687,0,2,,,,,43,95,1
3849,note_on,,47,0,1,,,,,75,127,0
4192,note_off,,343,0,1,,,,,75,127,0
4195,note_on,,3,0,1,,,,,74,127,0
4538,note_off,,343,0,1,,,,,74,127,0
4540,note_on,,2,0,1,,,,,73,127,0
4883,note_off,,343,0,1,,,,,73,127,0
4886,note_on,,0,0,2,,,,,69,95,1
4886,note_on,,1041,0,2,,,,,61,95,1
4886,note_on,,0,0,2,,,,,57,95,1
4886,note_on,,3,0,1,,,,,67,127,0
5228,note_off,,342,0,2,,,,,57,95,1
5228,note_off,,0,0,2,,,,,69,95,1
5228,note_off,,0,0,2,,,,,61,95,1
5229,note_off,,343,0,1,,,,,67,127,0
5232,note_on,,4,0,2,,,,,69,95,1
5232,note_on,,3,0,1,,,,,66,127,0
5232,note_on,,0,0,2,,,,,66,95,1
5232,note_on,,0,0,2,,,,,62,95,1
5232,note_on,,0,0,2,,,,,50,95,1
5403,note_off,,171,0,1,,,,,66,127,0
5404,note_on,,1,0,1,,,,,64,127,0
5575,note_off,,171,0,1,,,,,64,127,0
5577,note_on,,2,0,1,,,,,62,127,0
5897,note_off,,320,0,1,,,,,62,127,0
5919,note_off,,0,0,2,,,,,66,95,1
5919,note_off,,687,0,2,,,,,62,95,1
5919,note_off,,0,0,2,,,,,69,95,1
5923,note_on,,26,0,1,,,,,74,127,0
6265,note_off,,346,0,2,,,,,50,95,1
6266,note_off,,343,0,1,,,,,74,127,0
6268,note_on,,2,0,1,,,,,72,127,0
6611,note_off,,343,0,1,,,,,72,127,0
6614,note_on,,3,0,1,,,,,71,127,0
6957,note_off,,343,0,1,,,,,71,127,0
6960,note_on,,0,0,2,,,,,55,95,1
6960,note_on,,0,0,2,,,,,59,95,1
6960,note_on,,695,0,2,,,,,62,95,1
6960,note_on,,3,0,1,,,,,65,127,0
7302,note_off,,342,0,2,,,,,55,95,1
7302,note_off,,0,0,2,,,,,62,95,1
7302,note_off,,0,0,2,,,,,59,95,1
7303,note_off,,343,0,1,,,,,65,127,0
7305,note_on,,0,0,2,,,,,48,95,1
7305,note_on,,2,0,1,,,,,63,127,0
7305,note_on,,0,0,2,,,,,55,95,1
7305,note_on,,0,0,2,,,,,60,95,1
7305,note_on,,3,0,2,,,,,63,95,1
7476,note_off,,171,0,1,,,,,63,127,0
7478,note_on,,2,0,1,,,,,62,127,0
7649,note_off,,171,0,1,,,,,62,127,0
7651,note_on,,2,0,1,,,,,60,127,0
7992,note_off,,687,0,2,,,,,55,95,1
7992,note_off,,0,0,2,,,,,60,95,1
7992,note_off,,0,0,2,,,,,63,95,1
7994,note_off,,343,0,1,,,,,60,127,0
7996,note_on,,2,0,1,,,,,72,127,0
8338,note_off,,346,0,2,,,,,48,95,1
8339,note_off,,343,0,1,,,,,72,127,0
8342,note_on,,0,0,2,,,,,64,95,1
8342,note_on,,3,0,1,,,,,70,127,0
8342,note_on,,0,0,2,,,,,49,95,1
8342,note_on,,4,0,2,,,,,70,95,1
8342,note_on,,0,0,2,,,,,67,95,1
8685,note_off,,343,0,1,,,,,70,127,0
8688,note_on,,3,0,1,,,,,69,127,0
9031,note_off,,343,0,1,,,,,69,127,0
9033,note_on,,2,0,1,,,,,67,127,0
9375,note_off,,0,0,2,,,,,67,95,1
9375,note_off,,0,0,2,,,,,64,95,1
9375,note_off,,1033,0,2,,,,,49,95,1
9375,note_off,,0,0,2,,,,,70,95,1
9376,note_off,,343,0,1,,,,,67,127,0
9379,note_on,,4,0,2,,,,,69,95,1
9379,note_on,,0,0,2,,,,,66,95,1
9379,note_on,,0,0,2,,,,,62,95,1
9379,note_on,,0,0,2,,,,,50,95,1
9379,note_on,,3,0,1,,,,,66,127,0
9550,note_off,,171,0,1,,,,,66,127,0
9552,note_on,,2,0,1,,,,,64,127,0
9723,note_off,,171,0,1,,,,,64,127,0
9724,note_on,,1,0,1,,,,,62,127,0
10040,note_off,,316,0,1,,,,,62,127,0
10066,note_off,,0,0,2,,,,,66,95,1
10066,note_off,,0,0,2,,,,,69,95,1
10066,note_off,,687,0,2,,,,,62,95,1
10070,note_on,,30,0,1,,,,,77,127,0
10412,note_off,,346,0,2,,,,,50,95,1
10413,note_off,,343,0,1,,,,,77,127,0
10416,note_on,,3,0,1,,,,,75,127,0
10416,note_on,,0,0,2,,,,,54,95,1
10416,note_on,,0,0,2,,,,,63,95,1
10416,note_on,,0,0,2,,,,,72,95,1
10416,note_on,,4,0,2,,,,,69,95,1
10759,note_off,,343,0,1,,,,,75,127,0
10761,note_on,,2,0,1,,,,,74,127,0
11104,note_off,,343,0,1,,,,,74,127,0
11107,note_on,,3,0,1,,,,,72,127,0
11449,note_off,,0,0,2,,,,,69,95,1
11449,note_off,,0,0,2,,,,,72,95,1
11449,note_off,,0,0,2,,,,,63,95,1
11449,note_off,,1033,0,2,,,,,54,95,1
11450,note_off,,343,0,1,,,,,72,127,0
11452,note_on,,0,0,2,,,,,55,95,1
11452,note_on,,0,0,2,,,,,67,95,1
11452,note_on,,0,0,2,,,,,62,95,1
11452,note_on,,3,0,2,,,,,71,95,1
11452,note_on,,2,0,1,,,,,71,127,0
11623,note_off,,171,0,1,,,,,71,127,0
11625,note_on,,2,0,1,,,,,69,127,0
11796,note_off,,171,0,1,,,,,69,127,0
11798,note_on,,2,0,1,,,,,67,127,0
12118,note_off,,320,0,1,,,,,67,127,0
12139,note_off,,687,0,2,,,,,62,95,1
12139,note_off,,0,0,2,,,,,67,95,1
12139,note_off,,0,0,2,,,,,71,95,1
12144,note_on,,26,0,1,,,,,82,127,0
12485,note_off,,346,0,2,,,,,55,95,1
12487,note_off,,343,0,1,,,,,82,127,0
12489,note_on,,2,0,1,,,,,80,127,0
12489,note_on,,4,0,2,,,,,74,95,1
12489,note_on,,0,0,2,,,,,68,95,1
12489,note_on,,0,0,2,,,,,65,95,1
12489,note_on,,0,0,2,,,,,59,95,1
12832,note_off,,343,0,1,,,,,80,127,0
12835,note_on,,3,0,1,,,,,79,127,0
13178,note_off,,343,0,1,,,,,79,127,0
13180,note_on,,2,0,1,,,,,77,127,0
13522,note_off,,1033,0,2,,,,,59,95,1
13522,note_off,,0,0,2,,,,,74,95,1
13522,note_off,,0,0,2,,,,,68,95,1
13522,note_off,,0,0,2,,,,,65,95,1
13523,note_off,,343,0,1,,,,,77,127,0
13526,note_on,,0,0,2,,,,,63,95,1
13526,note_on,,0,0,2,,,,,67,95,1
13526,note_on,,4,0,2,,,,,72,95,1
13526,note_on,,0,0,2,,,,,60,95,1
13526,note_on,,3,0,1,,,,,75,127,0
13869,note_off,,343,0,1,,,,,75,127,0
13872,note_on,,3,0,1,,,,,74,127,0
14215,note_off,,343,0,1,,,,,74,127,0
14217,note_on,,2,0,1,,,,,72,127,0
14559,note_off,,0,0,2,,,,,63,95,1
14559,note_off,,0,0,2,,,,,67,95,1
14559,note_off,,0,0,2,,,,,72,95,1
14559,note_off,,1033,0,2,,,,,60,95,1
14560,note_off,,343,0,1,,,,,72,127,0
14563,note_on,,0,0,2,,,,,61,95,1
14563,note_on,,0,0,2,,,,,64,95,1
14563,note_on,,0,0,2,,,,,67,95,1
14563,note_on,,4,0,2,,,,,70,95,1
14563,note_on,,3,0,1,,,,,70,127,0
14906,note_off,,343,0,1,,,,,70,127,0
14908,note_on,,2,0,1,,,,,69,127,0
15251,note_off,,343,0,1,,,,,69,127,0
15254,note_on,,3,0,1,,,,,67,127,0
15596,note_off,,1033,0,2,,,,,61,95,1
15596,note_off,,0,0,2,,,,,67,95,1
15596,note_off,,0,0,2,,,,,70,95,1
15596,note_off,,0,0,2,,,,,64,95,1
15597,note_off,,343,0,1,,,,,67,127,0
15600,note_on,,4,0,2,,,,,69,95,1
15600,note_on,,0,0,2,,,,,66,95,1
15600,note_on,,0,0,2,,,,,62,95,1
15600,note_on,,3,0,1,,,,,66,127,0
15945,note_on,,345,0,1,,,,,74,127,0
15965,note_off,,20,0,1,,,,,66,127,0
16287,note_off,,687,0,2,,,,,62,95,1
16287,note_off,,0,0,2,,,,,69,95,1
16287,note_off,,0,0,2,,,,,66,95,1
16288,note_off,,323,0,1,,,,,74,127,0
16291,note_on,,4,0,2,,,,,67,95,1
16291,note_on,,3,0,1,,,,,67,127,0
16291,note_on,,0,0,2,,,,,59,95,1
16633,note_off,,0,0,2,,,,,67,95,1
16633,note_off,,342,0,2,,,,,59,95,1
16634,note_off,,343,0,1,,,,,67,127,0
16636,note_on,,2,0,1,,,,,66,127,0
16636,note_on,,0,0,2,,,,,57,95,1
16636,note_on,,0,0,2,,,,,69,95,1
16636,note_on,,3,0,2,,,,,62,95,1
16978,note_off,,0,0,2,,,,,69,95,1
16978,note_off,,342,0,2,,,,,57,95,1
16979,note_off,,343,0,1,,,,,66,127,0
16982,note_on,,4,0,2,,,,,67,95,1
16982,note_on,,0,0,2,,,,,59,95,1
16982,note_on,,3,0,1,,,,,67,127,0
17324,note_off,,342,0,2,,,,,59,95,1
17328,note_on,,4,0,2,,,,,55,95,1
17498,note_off,,516,0,1,,,,,67,127,0
17500,note_on,,2,0,1,,,,,66,127,0
17584,note_off,,84,0,1,,,,,66,127,0
17587,note_on,,3,0,1,,,,,67,127,0
17669,note_off,,341,0,2,,,,,67,95,1
17669,note_off,,0,0,2,,,,,62,95,1
17670,note_off,,1,0,2,,,,,55,95,1
17671,note_off,,84,0,1,,,,,67,127,0
17673,note_on,,3,0,2,,,,,62,95,1
17673,note_on,,0,0,2,,,,,69,95,1
17673,note_on,,0,0,2,,,,,54,95,1
17673,note_on,,2,0,1,,,,,69,127,0
18015,note_off,,342,0,2,,,,,54,95,1
18015,note_off,,0,0,2,,,,,69,95,1
18016,note_off,,343,0,1,,,,,69,127,0
18019,note_on,,4,0,2,,,,,66,95,1
18019,note_on,,0,0,2,,,,,50,95,1
18019,note_on,,3,0,1,,,,,62,127,0
18360,note_off,,341,0,2,,,,,62,95,1
18361,note_off,,1,0,2,,,,,50,95,1
18362,note_off,,343,0,1,,,,,62,127,0
18364,note_on,,3,0,2,,,,,62,95,1
18364,note_on,,2,0,1,,,,,71,127,0
18364,note_on,,0,0,2,,,,,55,95,1
18706,note_off,,342,0,2,,,,,55,95,1
18706,note_off,,0,0,2,,,,,62,95,1
18706,note_off,,0,0,2,,,,,66,95,1
18707,note_off,,343,0,1,,,,,71,127,0
18710,note_on,,4,0,2,,,,,66,95,1
18710,note_on,,0,0,2,,,,,57,95,1
18710,note_on,,0,0,2,,,,,62,95,1
18710,note_on,,3,0,1,,,,,72,127,0
19052,note_off,,0,0,2,,,,,66,95,1
19052,note_off,,342,0,2,,,,,57,95,1
19053,note_off,,343,0,1,,,,,72,127,0
19056,note_on,,3,0,1,,,,,62,127,0
19056,note_on,,4,0,2,,,,,69,95,1
19056,note_on,,0,0,2,,,,,54,95,1
19398,note_off,,342,0,2,,,,,54,95,1
19398,note_off,,0,0,2,,,,,69,95,1
19399,note_off,,343,0,1,,,,,62,127,0
19401,note_on,,2,0,1,,,,,71,127,0
19401,note_on,,0,0,2,,,,,55,95,1
19401,note_on,,3,0,2,,,,,67,95,1
19743,note_off,,342,0,2,,,,,55,95,1
19743,note_off,,0,0,2,,,,,67,95,1
19743,note_off,,0,0,2,,,,,62,95,1
19744,note_off,,343,0,1,,,,,71,127,0
19747,note_on,,0,0,2,,,,,50,95,1
19747,note_on,,3,0,1,,,,,69,127,0
19747,note_on,,4,0,2,,,,,69,95,1
19747,note_on,,0,0,2,,,,,62,95,1
19747,note_on,,0,0,2,,,,,66,95,1
20746,note_off,,999,0,2,,,,,50,95,1
20746,note_off,,0,0,2,,,,,62,95,1
20746,note_off,,0,0,2,,,,,69,95,1
20746,note_off,,0,0,2,,,,,66,95,1
20747,note_off,,1000,0,1,,,,,69,127,0
20816,note_on,,69,0,1,,,,,74,127,0
21159,note_off,,343,0,1,,,,,74,127,0
21161,note_on,,2,0,1,,,,,73,127,0
21332,note_off,,171,0,1,,,,,73,127,0
21334,note_on,,2,0,1,,,,,74,127,0
21505,note_off,,171,0,1,,,,,74,127,0
21507,note_on,,761,0,2,,,,,69,95,1
21507,note_on,,0,0,2,,,,,45,95,1
21507,note_on,,0,0,2,,,,,64,95,1
21507,note_on,,2,0,1,,,,,69,127,0
21849,note_off,,342,0,2,,,,,45,95,1
21849,note_off,,0,0,2,,,,,64,95,1
21849,note_off,,0,0,2,,,,,69,95,1
21850,note_off,,343,0,1,,,,,69,127,0
21852,note_on,,2,0,1,,,,,66,127,0
21852,note_on,,3,0,2,,,,,66,95,1
21852,note_on,,0,0,2,,,,,50,95,1
21852,note_on,,0,0,2,,,,,69,95,1
22195,note_off,,343,0,1,,,,,66,127,0
22198,note_on,,3,0,1,,,,,62,127,0
22539,note_off,,0,0,2,,,,,66,95,1
22539,note_off,,687,0,2,,,,,69,95,1
22541,note_off,,343,0,1,,,,,62,127,0
22544,note_on,,3,0,1,,,,,69,127,0
22885,note_off,,346,0,2,,,,,50,95,1
22887,note_off,,343,0,1,,,,,69,127,0
22889,note_on,,2,0,1,,,,,74,127,0
23232,note_off,,343,0,1,,,,,74,127,0
23235,note_on,,3,0,1,,,,,73,127,0
23406,note_off,,171,0,1,,,,,73,127,0
23408,note_on,,2,0,1,,,,,74,127,0
23579,note_off,,171,0,1,,,,,74,127,0
23580,note_on,,1,0,1,,,,,69,127,0
23580,note_on,,695,0,2,,,,,69,95,1
23580,note_on,,0,0,2,,,,,45,95,1
23580,note_on,,0,0,2,,,,,64,95,1
23922,note_off,,0,0,2,,,,,64,95,1
23922,note_off,,342,0,2,,,,,45,95,1
23922,note_off,,0,0,2,,,,,69,95,1
23923,note_off,,343,0,1,,,,,69,127,0
23926,note_on,,0,0,2,,,,,69,95,1
23926,note_on,,0,0,2,,,,,50,95,1
23926,note_on,,3,0,1,,,,,66,127,0
23926,note_on,,4,0,2,,,,,66,95,1
24269,note_off,,343,0,1,,,,,66,127,0
24272,note_on,,3,0,1,,,,,62,127,0
24572,note_off,,300,0,1,,,,,62,127,0
24613,note_off,,687,0,2,,,,,50,95,1
24613,note_off,,0,0,2,,,,,69,95,1
24613,note_off,,0,0,2,,,,,66,95,1
24617,note_on,,45,0,1,,,,,82,127,0
24960,note_off,,343,0,1,,,,,82,127,0
24963,note_on,,3,0,1,,,,,81,127,0
25306,note_off,,343,0,1,,,,,81,127,0
25308,note_on,,2,0,1,,,,,80,127,0
25651,note_off,,343,0,1,,,,,80,127,0
25654,note_on,,0,0,2,,,,,52,95,1
25654,note_on,,0,0,2,,,,,64,95,1
25654,note_on,,1041,0,2,,,,,68,95,1
25654,note_on,,3,0,1,,,,,74,127,0
25996,note_off,,0,0,2,,,,,64,95,1
25996,note_off,,342,0,2,,,,,52,95,1
25996,note_off,,0,0,2,,,,,68,95,1
25997,note_off,,343,0,1,,,,,74,127,0
26000,note_on,,0,0,2,,,,,69,95,1
26000,note_on,,4,0,2,,,,,64,95,1
26000,note_on,,0,0,2,,,,,45,95,1
26000,note_on,,3,0,1,,,,,73,127,0
26171,note_off,,171,0,1,,,,,73,127,0
26172,note_on,,1,0,1,,,,,71,127,0
26343,note_off,,171,0,1,,,,,71,127,0
26345,note_on,,2,0,1,,,,,69,127,0
26687,note_off,,0,0,2,,,,,64,95,1
26687,note_off,,687,0,2,,,,,69,95,1
26688,note_off,,343,0,1,,,,,69,127,0
26691,note_on,,3,0,1,,,,,81,127,0
27033,note_off,,346,0,2,,,,,45,95,1
27034,note_off,,343,0,1,,,,,81,127,0
27036,note_on,,2,0,1,,,,,79,127,0
27379,note_off,,343,0,1,,,,,79,127,0
27382,note_on,,3,0,1,,,,,78,127,0
27725,note_off,,343,0,1,,,,,78,127,0
27728,note_on,,0,0,2,,,,,50,95,1
27728,note_on,,3,0,1,,,,,72,127,0
27728,note_on,,0,0,2,,,,,69,95,1
27728,note_on,,695,0,2,,,,,66,95,1
28070,note_off,,342,0,2,,,,,50,95,1
28070,note_off,,0,0,2,,,,,66,95,1
28070,note_off,,0,0,2,,,,,69,95,1
28071,note_off,,343,0,1,,,,,72,127,0
28073,note_on,,2,0,1,,,,,71,127,0
28073,note_on,,3,0,2,,,,,62,95,1
28073,note_on,,0,0,2,,,,,71,95,1
28073,note_on,,0,0,2,,,,,43,95,1
28244,note_off,,171,0,1,,,,,71,127,0
28246,note_on,,2,0,1,,,,,69,127,0
28417,note_off,,171,0,1,,,,,69,127,0
28419,note_on,,2,0,1,,,,,67,127,0
28729,note_off,,310,0,1,,,,,67,127,0
28760,note_off,,687,0,2,,,,,71,95,1
28760,note_off,,0,0,2,,,,,62,95,1
28764,note_on,,35,0,1,,,,,80,127,0
29106,note_off,,346,0,2,,,,,43,95,1
29107,note_off,,343,0,1,,,,,80,127,0
29110,note_on,,0,0,2,,,,,47,95,1
29110,note_on,,0,0,2,,,,,62,95,1
29110,note_on,,0,0,2,,,,,65,95,1
29110,note_on,,4,0,2,,,,,68,95,1
29110,note_on,,3,0,1,,,,,80,127,0
29453,note_off,,343,0,1,,,,,80,127,0
29456,note_on,,3,0,1,,,,,79,127,0
29799,note_off,,343,0,1,,,,,79,127,0
29801,note_on,,2,0,1,,,,,77,127,0
30143,note_off,,0,0,2,,,,,68,95,1
30143,note_off,,0,0,2,,,,,65,95,1
30143,note_off,,1033,0,2,,,,,47,95,1
30143,note_off,,0,0,2,,,,,62,95,1
30144,note_off,,343,0,1,,,,,77,127,0
30147,note_on,,0,0,2,,,,,63,95,1
30147,note_on,,3,0,1,,,,,75,127,0
30147,note_on,,4,0,2,,,,,72,95,1
30147,note_on,,0,0,2,,,,,67,95,1
30147,note_on,,0,0,2,,,,,48,95,1
30318,note_off,,171,0,1,,,,,75,127,0
30320,note_on,,2,0,1,,,,,74,127,0
30491,note_off,,171,0,1,,,,,74,127,0
30492,note_on,,1,0,1,,,,,72,127,0
30834,note_off,,687,0,2,,,,,63,95,1
30834,note_off,,0,0,2,,,,,67,95,1
30834,note_off,,0,0,2,,,,,72,95,1
30835,note_off,,343,0,1,,,,,72,127,0
30838,note_on,,3,0,1,,,,,84,127,0
31180,note_off,,346,0,2,,,,,48,95,1
31181,note_off,,343,0,1,,,,,84,127,0
31184,note_on,,4,0,2,,,,,70,95,1
31184,note_on,,3,0,1,,,,,82,127,0
31184,note_on,,0,0,2,,,,,67,95,1
31184,note_on,,0,0,2,,,,,49,95,1
31184,note_on,,0,0,2,,,,,64,95,1
31527,note_off,,343,0,1,,,,,82,127,0
31529,note_on,,2,0,1,,,,,81,127,0
31872,note_off,,343,0,1,,,,,81,127,0
31875,note_on,,3,0,1,,,,,79,127,0
32217,note_off,,0,0,2,,,,,64,95,1
32217,note_off,,0,0,2,,,,,67,95,1
32217,note_off,,0,0,2,,,,,70,95,1
32217,note_off,,1033,0,2,,,,,49,95,1
32218,note_off,,343,0,1,,,,,79,127,0
32220,note_on,,2,0,1,,,,,78,127,0
32220,note_on,,3,0,2,,,,,69,95,1
32220,note_on,,0,0,2,,,,,66,95,1
32220,note_on,,0,0,2,,,,,50,95,1
32563,note_off,,343,0,1,,,,,78,127,0
32566,note_on,,3,0,1,,,,,76,127,0
32909,note_off,,343,0,1,,,,,76,127,0
32912,note_on,,3,0,1,,,,,74,127,0
33253,note_off,,0,0,2,,,,,69,95,1
33253,note_off,,0,0,2,,,,,66,95,1
33253,note_off,,1033,0,2,,,,,50,95,1
33255,note_off,,343,0,1,,,,,74,127,0
33257,note_on,,0,0,2,,,,,54,95,1
33257,note_on,,0,0,2,,,,,62,95,1
33257,note_on,,4,0,2,,,,,69,95,1
33257,note_on,,2,0,1,,,,,72,127,0
33600,note_off,,343,0,1,,,,,72,127,0
33603,note_on,,3,0,1,,,,,71,127,0
33946,note_off,,343,0,1,,,,,71,127,0
33948,note_on,,2,0,1,,,,,69,127,0
34290,note_off,,0,0,2,,,,,62,95,1
34290,note_off,,0,0,2,,,,,69,95,1
34290,note_off,,1033,0,2,,,,,54,95,1
34291,note_off,,343,0,1,,,,,69,127,0
34294,note_on,,0,0,2,,,,,62,95,1
34294,note_on,,4,0,2,,,,,71,95,1
34294,note_on,,0,0,2,,,,,55,95,1
34294,note_on,,3,0,1,,,,,71,127,0
34465,note_off,,171,0,1,,,,,71,127,0
34467,note_on,,2,0,1,,,,,69,127,0
34638,note_off,,171,0,1,,,,,69,127,0
34640,note_on,,2,0,1,,,,,67,127,0
34960,note_off,,320,0,1,,,,,67,127,0
34981,note_off,,0,0,2,,,,,71,95,1
34981,note_off,,687,0,2,,,,,62,95,1
34994,note_on,,34,0,1,,,,,74,127,0
35327,note_off,,346,0,2,,,,,55,95,1
35345,note_off,,351,0,1,,,,,74,127,0
35347,note_on,,2,0,1,,,,,65,127,0
35347,note_on,,20,0,2,,,,,47,95,1
35347,note_on,,0,0,2,,,,,62,95,1
35347,note_on,,0,0,2,,,,,55,95,1
35690,note_off,,343,0,1,,,,,65,127,0
35692,note_on,,2,0,1,,,,,64,127,0
36035,note_off,,343,0,1,,,,,64,127,0
36038,note_on,,3,0,1,,,,,62,127,0
36380,note_off,,1033,0,2,,,,,55,95,1
36380,note_off,,0,0,2,,,,,62,95,1
36380,note_off,,0,0,2,,,,,47,95,1
36381,note_off,,343,0,1,,,,,62,127,0
36384,note_on,,0,0,2,,,,,55,95,1
36384,note_on,,0,0,2,,,,,64,95,1
36384,note_on,,3,0,1,,,,,64,127,0
36384,note_on,,4,0,2,,,,,48,95,1
36727,note_off,,343,0,1,,,,,64,127,0
36729,note_on,,2,0,1,,,,,67,127,0
37071,note_off,,687,0,2,,,,,64,95,1
37071,note_off,,0,0,2,,,,,55,95,1
37071,note_off,,0,0,2,,,,,48,95,1
37072,note_off,,343,0,1,,,,,67,127,0
37075,note_on,,0,0,2,,,,,72,95,1
37075,note_on,,0,0,2,,,,,64,95,1
37075,note_on,,0,0,2,,,,,67,95,1
37075,note_on,,4,0,2,,,,,60,95,1
37075,note_on,,3,0,1,,,,,72,127,0
37417,note_off,,0,0,2,,,,,60,95,1
37417,note_off,,0,0,2,,,,,64,95,1
37417,note_off,,0,0,2,,,,,67,95,1
37417,note_off,,342,0,2,,,,,72,95,1
37418,note_off,,343,0,1,,,,,72,127,0
37420,note_on,,2,0,1,,,,,71,127,0
37420,note_on,,0,0,2,,,,,67,95,1
37420,note_on,,3,0,2,,,,,62,95,1
37762,note_off,,0,0,2,,,,,62,95,1
37762,note_off,,342,0,2,,,,,67,95,1
37763,note_off,,343,0,1,,,,,71,127,0
37766,note_on,,4,0,2,,,,,50,95,1
37766,note_on,,0,0,2,,,,,66,95,1
37766,note_on,,3,0,1,,,,,69,127,0
38108,note_off,,342,0,2,,,,,50,95,1
38112,note_on,,0,0,2,,,,,62,95,1
38112,note_on,,4,0,2,,,,,60,95,1
38282,note_off,,516,0,1,,,,,69,127,0
38284,note_on,,2,0,1,,,,,67,127,0
38368,note_off,,84,0,1,,,,,67,127,0
38371,note_on,,3,0,1,,,,,69,127,0
38453,note_off,,341,0,2,,,,,66,95,1
38454,note_off,,0,0,2,,,,,60,95,1
38454,note_off,,1,0,2,,,,,62,95,1
38455,note_off,,84,0,1,,,,,69,127,0
38456,note_on,,0,0,2,,,,,67,95,1
38456,note_on,,0,0,2,,,,,71,95,1
38456,note_on,,0,0,2,,,,,62,95,1
38456,note_on,,2,0,2,,,,,59,95,1
38456,note_on,,1,0,1,,,,,62,127,0
38803,note_off,,347,0,2,,,,,59,95,1
38804,note_off,,348,0,1,,,,,62,127,0
38812,note_on,,9,0,2,,,,,47,95,1
38812,note_on,,8,0,1,,,,,79,127,0
39155,note_off,,343,0,2,,,,,67,95,1
39155,note_off,,0,0,2,,,,,71,95,1
39155,note_off,,0,0,2,,,,,62,95,1
39159,note_off,,4,0,2,,,,,47,95,1
39160,note_off,,348,0,1,,,,,79,127,0
39185,note_on,,26,0,2,,,,,48,95,1
39185,note_on,,0,0,2,,,,,67,95,1
39185,note_on,,25,0,1,,,,,72,127,0
39185,note_on,,0,0,2,,,,,64,95,1
39535,note_off,,350,0,2,,,,,67,95,1
39535,note_off,,0,0,2,,,,,64,95,1
39535,note_off,,0,0,2,,,,,48,95,1
39536,note_off,,351,0,1,,,,,72,127,0
39544,note_on,,0,0,2,,,,,67,95,1
39544,note_on,,8,0,1,,,,,71,127,0
39544,note_on,,9,0,2,,,,,62,95,1
39544,note_on,,0,0,2,,,,,50,95,1
39901,note_off,,357,0,1,,,,,71,127,0
39914,note_on,,13,0,1,,,,,69,127,0
40263,note_off,,719,0,2,,,,,50,95,1
40263,note_off,,0,0,2,,,,,67,95,1
40311,note_on,,0,0,2,,,,,38,95,1
40311,note_on,,48,0,2,,,,,66,95,1
40627,note_off,,316,0,2,,,,,62,95,1
40671,note_off,,757,0,1,,,,,69,127,0
40694,note_off,,0,0,2,,,,,66,95,1
40694,note_off,,67,0,2,,,,,38,95,1
40754,note_on,,0,0,2,,,,,67,95,1
40754,note_on,,60,0,2,,,,,43,95,1
40754,note_on,,83,0,1,,,,,67,127,0
40754,note_on,,0,0,2,,,,,71,95,1
40754,note_on,,0,0,2,,,,,62,95,1
42253,note_off,,1499,0,2,,,,,71,95,1
42254,note_off,,0,0,2,,,,,62,95,1
42254,note_off,,1500,0,1,,,,,67,127,0
42254,note_off,,0,0,2,,,,,43,95,1
42254,note_off,,1,0,2,,,,,67,95,1
44544,end_of_track,,44544,1,0,,,,,,,
44544,end_of_track,,2290,1,1,,,,,,,
44544,end_of_track,,2290,1,2,,,,,,,
