tick,type,time,meta,track,program,channel,pitch,tempo,note,velocity
0,copyright,0,1,0,,,,,,
0,program_change,0,0,0,6,0,,,,
0,pitchwheel,0,0,0,,0,0,,,
0,program_change,0,0,0,6,1,,,,
0,pitchwheel,0,0,0,,1,0,,,
0,program_change,0,0,0,6,2,,,,
0,pitchwheel,0,0,0,,2,0,,,
0,program_change,0,0,0,6,3,,,,
0,pitchwheel,0,0,0,,3,0,,,
0,program_change,0,0,0,6,4,,,,
0,pitchwheel,0,0,0,,4,0,,,
0,program_change,0,0,0,6,5,,,,
0,pitchwheel,0,0,0,,5,0,,,
0,program_change,0,0,0,6,6,,,,
0,pitchwheel,0,0,0,,6,0,,,
0,program_change,0,0,0,6,7,,,,
0,pitchwheel,0,0,0,,7,0,,,
0,program_change,0,0,0,6,8,,,,
0,pitchwheel,0,0,0,,8,0,,,
0,set_tempo,0,1,0,,,,500000,,
96,note_on,96,0,0,,0,,,52,95
96,note_on,0,0,0,,0,,,64,95
96,note_on,0,0,0,,0,,,67,95
96,note_on,0,0,0,,0,,,71,95
96,note_on,0,0,0,,1,,,76,127
619,note_off,523,0,0,,0,,,52,95
620,note_on,1,0,0,,0,,,54,95
1143,note_off,523,0,0,,0,,,54,95
1143,note_off,0,0,0,,1,,,76,127
1143,note_off,0,0,0,,0,,,71,95
1143,note_off,0,0,0,,0,,,67,95
1143,note_off,0,0,0,,0,,,64,95
1144,note_on,1,0,0,,0,,,55,95
1667,note_off,523,0,0,,0,,,55,95
1668,note_on,1,0,0,,0,,,52,95
1668,note_on,0,0,0,,0,,,67,95
1668,note_on,0,0,0,,0,,,71,95
1668,note_on,0,0,0,,1,,,79,127
2191,note_off,523,0,0,,1,,,79,127
2191,note_off,0,0,0,,0,,,71,95
2191,note_off,0,0,0,,0,,,67,95
2191,note_off,0,0,0,,0,,,52,95
2192,note_on,1,0,0,,0,,,45,95
2192,note_on,0,0,0,,0,,,64,95
2192,note_on,0,0,0,,0,,,72,95
2192,note_on,0,0,0,,1,,,79,127
2453,note_off,261,0,0,,1,,,79,127
2454,note_on,1,0,0,,1,,,76,127
2715,note_off,261,0,0,,1,,,76,127
2715,note_off,0,0,0,,0,,,64,95
2715,note_off,0,0,0,,0,,,45,95
2716,note_on,1,0,0,,0,,,57,95
2716,note_on,0,0,0,,0,,,66,95
2716,note_on,0,0,0,,1,,,76,127
2977,note_off,261,0,0,,1,,,76,127
2978,note_on,1,0,0,,1,,,78,127
3239,note_off,261,0,0,,1,,,78,127
3239,note_off,0,0,0,,0,,,66,95
3239,note_off,0,0,0,,0,,,57,95
3239,note_off,0,0,0,,0,,,72,95
3240,note_on,1,0,0,,0,,,57,95
3240,note_on,0,0,0,,0,,,69,95
3501,note_off,261,0,0,,0,,,69,95
3502,note_on,1,0,0,,0,,,66,95
3763,note_off,261,0,0,,0,,,66,95
3763,note_off,0,0,0,,0,,,57,95
3764,note_on,1,0,0,,0,,,45,95
3764,note_on,0,0,0,,0,,,67,95
3764,note_on,0,0,0,,1,,,78,127
4025,note_off,261,0,0,,0,,,67,95
4026,note_on,1,0,0,,0,,,69,95
4287,note_off,261,0,0,,0,,,69,95
4287,note_off,0,0,0,,1,,,78,127
4287,note_off,0,0,0,,0,,,45,95
4288,note_on,1,0,0,,0,,,43,95
4288,note_on,0,0,0,,0,,,66,95
4288,note_on,0,0,0,,0,,,71,95
4288,note_on,0,0,0,,1,,,78,127
4549,note_off,261,0,0,,1,,,78,127
4550,note_on,1,0,0,,1,,,75,127
4811,note_off,261,0,0,,1,,,75,127
4811,note_off,0,0,0,,0,,,66,95
4811,note_off,0,0,0,,0,,,43,95
4812,note_on,1,0,0,,0,,,55,95
4812,note_on,0,0,0,,0,,,64,95
4812,note_on,0,0,0,,1,,,75,127
5073,note_off,261,0,0,,1,,,75,127
5074,note_on,1,0,0,,1,,,76,127
5335,note_off,261,0,0,,1,,,76,127
5335,note_off,0,0,0,,0,,,64,95
5335,note_off,0,0,0,,0,,,55,95
5335,note_off,0,0,0,,0,,,71,95
5336,note_on,1,0,0,,0,,,55,95
5336,note_on,0,0,0,,0,,,67,95
5597,note_off,261,0,0,,0,,,67,95
5598,note_on,1,0,0,,0,,,66,95
5859,note_off,261,0,0,,0,,,66,95
5859,note_off,0,0,0,,0,,,55,95
5860,note_on,1,0,0,,0,,,43,95
5860,note_on,0,0,0,,0,,,67,95
5860,note_on,0,0,0,,1,,,76,127
6121,note_off,261,0,0,,0,,,67,95
6122,note_on,1,0,0,,0,,,71,95
6383,note_off,261,0,0,,0,,,71,95
6383,note_off,0,0,0,,1,,,76,127
6383,note_off,0,0,0,,0,,,43,95
6384,note_on,1,0,0,,0,,,54,95
6384,note_on,0,0,0,,0,,,64,95
6384,note_on,0,0,0,,0,,,72,95
6384,note_on,0,0,0,,1,,,69,127
6645,note_off,261,0,0,,1,,,69,127
6646,note_on,1,0,0,,1,,,81,127
6907,note_off,261,0,0,,0,,,72,95
6907,note_off,0,0,0,,0,,,54,95
6908,note_on,1,0,0,,0,,,52,95
6908,note_on,0,0,0,,0,,,69,95
7169,note_off,261,0,0,,1,,,81,127
7170,note_on,1,0,0,,1,,,72,127
7431,note_off,261,0,0,,1,,,72,127
7431,note_off,0,0,0,,0,,,69,95
7431,note_off,0,0,0,,0,,,52,95
7431,note_off,0,0,0,,0,,,64,95
7432,note_on,1,0,0,,0,,,51,95
7432,note_on,0,0,0,,0,,,66,95
7432,note_on,0,0,0,,0,,,71,95
7432,note_on,0,0,0,,1,,,71,127
7693,note_off,261,0,0,,1,,,71,127
7694,note_on,1,0,0,,1,,,81,127
7955,note_off,261,0,0,,1,,,81,127
7955,note_off,0,0,0,,0,,,71,95
7955,note_off,0,0,0,,0,,,51,95
7956,note_on,1,0,0,,0,,,47,95
7956,note_on,0,0,0,,0,,,75,95
7956,note_on,0,0,0,,0,,,71,95
7956,note_on,0,0,0,,1,,,79,127
8217,note_off,261,0,0,,1,,,79,127
8218,note_on,1,0,0,,1,,,78,127
8479,note_off,261,0,0,,1,,,78,127
8479,note_off,0,0,0,,0,,,75,95
8479,note_off,0,0,0,,0,,,47,95
8479,note_off,0,0,0,,0,,,66,95
8480,note_on,1,0,0,,0,,,52,95
8480,note_on,0,0,0,,0,,,64,95
8480,note_on,0,0,0,,0,,,76,95
8480,note_on,0,0,0,,1,,,79,127
8741,note_off,261,0,0,,1,,,79,127
8742,note_on,1,0,0,,1,,,78,127
9003,note_off,261,0,0,,1,,,78,127
9003,note_off,0,0,0,,0,,,76,95
9003,note_off,0,0,0,,0,,,64,95
9003,note_off,0,0,0,,0,,,52,95
9003,note_off,0,0,0,,0,,,71,95
9004,note_on,1,0,0,,0,,,54,95
9004,note_on,0,0,0,,0,,,67,95
9004,note_on,0,0,0,,1,,,76,127
9265,note_off,261,0,0,,0,,,67,95
9266,note_on,1,0,0,,0,,,66,95
9527,note_off,261,0,0,,0,,,66,95
9527,note_off,0,0,0,,1,,,76,127
9527,note_off,0,0,0,,0,,,54,95
9528,note_on,1,0,0,,0,,,55,95
9528,note_on,0,0,0,,0,,,64,95
9790,note_on,262,0,0,,1,,,71,127
10051,note_off,261,0,0,,1,,,71,127
10051,note_off,0,0,0,,0,,,64,95
10051,note_off,0,0,0,,0,,,55,95
10052,note_on,1,0,0,,0,,,52,95
10052,note_on,0,0,0,,1,,,76,127
10313,note_off,261,0,0,,1,,,76,127
10314,note_on,1,0,0,,1,,,79,127
10575,note_off,261,0,0,,1,,,79,127
10575,note_off,0,0,0,,0,,,52,95
10576,note_on,1,0,0,,0,,,50,95
10576,note_on,0,0,0,,0,,,71,95
10576,note_on,0,0,0,,1,,,79,127
10837,note_off,261,0,0,,1,,,79,127
10838,note_on,1,0,0,,1,,,76,127
11099,note_off,261,0,0,,1,,,76,127
11099,note_off,0,0,0,,0,,,71,95
11099,note_off,0,0,0,,0,,,50,95
11100,note_on,1,0,0,,0,,,49,95
11100,note_on,0,0,0,,0,,,70,95
11100,note_on,0,0,0,,1,,,76,127
11361,note_off,261,0,0,,1,,,76,127
11362,note_on,1,0,0,,1,,,78,127
11623,note_off,261,0,0,,1,,,78,127
11623,note_off,0,0,0,,0,,,70,95
11623,note_off,0,0,0,,0,,,49,95
11624,note_on,1,0,0,,0,,,50,95
11624,note_on,0,0,0,,0,,,71,95
11886,note_on,262,0,0,,1,,,71,127
12147,note_off,261,0,0,,0,,,71,95
12147,note_off,0,0,0,,0,,,50,95
12148,note_on,1,0,0,,0,,,47,95
12148,note_on,0,0,0,,0,,,66,95
12148,note_on,0,0,0,,1,,,74,127
12409,note_off,261,0,0,,1,,,74,127
12410,note_on,1,0,0,,1,,,78,127
12671,note_off,261,0,0,,1,,,78,127
12671,note_off,0,0,0,,0,,,47,95
12671,note_off,0,0,0,,1,,,71,127
12672,note_on,1,0,0,,0,,,48,95
12672,note_on,0,0,0,,0,,,69,95
12672,note_on,0,0,0,,1,,,78,127
12933,note_off,261,0,0,,1,,,78,127
12934,note_on,1,0,0,,1,,,75,127
13195,note_off,261,0,0,,1,,,75,127
13195,note_off,0,0,0,,0,,,69,95
13195,note_off,0,0,0,,0,,,48,95
13196,note_on,1,0,0,,0,,,47,95
13196,note_on,0,0,0,,0,,,71,95
13196,note_on,0,0,0,,1,,,75,127
13457,note_off,261,0,0,,1,,,75,127
13458,note_on,1,0,0,,1,,,76,127
13719,note_off,261,0,0,,1,,,76,127
13719,note_off,0,0,0,,0,,,71,95
13719,note_off,0,0,0,,0,,,47,95
13719,note_off,0,0,0,,0,,,66,95
13720,note_on,1,0,0,,0,,,48,95
13720,note_on,0,0,0,,0,,,64,95
13720,note_on,0,0,0,,0,,,69,95
13720,note_on,0,0,0,,0,,,72,95
13982,note_on,262,0,0,,1,,,69,127
14243,note_off,261,0,0,,0,,,69,95
14243,note_off,0,0,0,,0,,,48,95
14244,note_on,1,0,0,,0,,,45,95
14244,note_on,0,0,0,,1,,,72,127
14505,note_off,261,0,0,,0,,,72,95
14506,note_on,1,0,0,,1,,,76,127
14767,note_off,261,0,0,,1,,,76,127
14767,note_off,0,0,0,,1,,,72,127
14767,note_off,0,0,0,,0,,,45,95
14767,note_off,0,0,0,,1,,,69,127
14767,note_off,0,0,0,,0,,,64,95
14768,note_on,1,0,0,,0,,,57,95
14768,note_on,0,0,0,,0,,,71,95
14768,note_on,0,0,0,,0,,,66,95
14768,note_on,0,0,0,,1,,,75,127
15029,note_off,261,0,0,,1,,,75,127
15030,note_on,1,0,0,,1,,,83,127
15291,note_off,261,0,0,,1,,,83,127
15291,note_off,0,0,0,,0,,,66,95
15291,note_off,0,0,0,,0,,,71,95
15291,note_off,0,0,0,,0,,,57,95
15292,note_on,1,0,0,,0,,,55,95
15292,note_on,0,0,0,,0,,,64,95
15292,note_on,0,0,0,,0,,,71,95
15292,note_on,0,0,0,,1,,,76,127
15553,note_off,261,0,0,,1,,,76,127
15553,note_off,0,0,0,,0,,,71,95
15553,note_off,0,0,0,,0,,,55,95
15554,note_on,1,0,0,,0,,,57,95
15554,note_on,0,0,0,,0,,,69,95
15554,note_on,0,0,0,,1,,,78,127
15815,note_off,261,0,0,,1,,,78,127
15815,note_off,0,0,0,,0,,,69,95
15815,note_off,0,0,0,,0,,,57,95
15815,note_off,0,0,0,,0,,,64,95
15816,note_on,1,0,0,,0,,,59,95
15816,note_on,0,0,0,,0,,,64,95
15816,note_on,0,0,0,,0,,,71,95
15816,note_on,0,0,0,,1,,,79,127
15906,note_on,90,0,0,,1,,,78,127
15924,note_off,18,0,0,,1,,,79,127
15996,note_on,72,0,0,,1,,,79,127
16014,note_off,18,0,0,,1,,,78,127
16086,note_on,72,0,0,,1,,,78,127
16104,note_off,18,0,0,,1,,,79,127
16339,note_off,235,0,0,,0,,,64,95
16339,note_off,0,0,0,,0,,,59,95
16340,note_on,1,0,0,,0,,,47,95
16340,note_on,0,0,0,,0,,,63,95
16593,note_off,253,0,0,,1,,,78,127
16602,note_on,9,0,0,,1,,,76,127
16863,note_off,261,0,0,,1,,,76,127
16863,note_off,0,0,0,,0,,,63,95
16863,note_off,0,0,0,,0,,,47,95
16863,note_off,0,0,0,,0,,,71,95
16864,note_on,1,0,0,,0,,,52,95
16864,note_on,0,0,0,,0,,,64,95
16864,note_on,0,0,0,,0,,,67,95
16864,note_on,0,0,0,,0,,,71,95
16864,note_on,0,0,0,,1,,,76,127
17387,note_off,523,0,0,,0,,,52,95
17388,note_on,1,0,0,,0,,,54,95
17911,note_off,523,0,0,,0,,,54,95
17911,note_off,0,0,0,,1,,,76,127
17911,note_off,0,0,0,,0,,,71,95
17911,note_off,0,0,0,,0,,,67,95
17911,note_off,0,0,0,,0,,,64,95
17912,note_on,1,0,0,,0,,,55,95
18435,note_off,523,0,0,,0,,,55,95
18436,note_on,1,0,0,,0,,,52,95
18436,note_on,0,0,0,,0,,,67,95
18436,note_on,0,0,0,,0,,,71,95
18436,note_on,0,0,0,,1,,,83,127
18959,note_off,523,0,0,,1,,,83,127
18959,note_off,0,0,0,,0,,,71,95
18959,note_off,0,0,0,,0,,,67,95
18959,note_off,0,0,0,,0,,,52,95
18960,note_on,1,0,0,,0,,,54,95
18960,note_on,0,0,0,,0,,,72,95
18960,note_on,0,0,0,,0,,,64,95
18960,note_on,0,0,0,,1,,,83,127
19221,note_off,261,0,0,,1,,,83,127
19222,note_on,1,0,0,,1,,,80,127
19483,note_off,261,0,0,,1,,,80,127
19483,note_off,0,0,0,,0,,,54,95
19484,note_on,1,0,0,,0,,,52,95
19484,note_on,0,0,0,,1,,,80,127
19745,note_off,261,0,0,,1,,,80,127
19746,note_on,1,0,0,,1,,,81,127
20007,note_off,261,0,0,,1,,,81,127
20007,note_off,0,0,0,,0,,,52,95
20007,note_off,0,0,0,,0,,,64,95
20007,note_off,0,0,0,,0,,,72,95
20008,note_on,1,0,0,,0,,,51,95
20008,note_on,0,0,0,,0,,,66,95
20008,note_on,0,0,0,,0,,,71,95
20269,note_off,261,0,0,,0,,,66,95
20270,note_on,1,0,0,,0,,,64,95
20531,note_off,261,0,0,,0,,,64,95
20531,note_off,0,0,0,,0,,,51,95
20532,note_on,1,0,0,,0,,,47,95
20532,note_on,0,0,0,,0,,,63,95
20532,note_on,0,0,0,,1,,,81,127
20793,note_off,261,0,0,,0,,,63,95
20794,note_on,1,0,0,,0,,,66,95
21055,note_off,261,0,0,,0,,,66,95
21055,note_off,0,0,0,,1,,,81,127
21055,note_off,0,0,0,,0,,,47,95
21055,note_off,0,0,0,,0,,,71,95
21056,note_on,1,0,0,,0,,,52,95
21056,note_on,0,0,0,,0,,,64,95
21056,note_on,0,0,0,,0,,,67,95
21056,note_on,0,0,0,,0,,,71,95
21056,note_on,0,0,0,,1,,,81,127
21317,note_off,261,0,0,,1,,,81,127
21318,note_on,1,0,0,,1,,,78,127
21579,note_off,261,0,0,,1,,,78,127
21579,note_off,0,0,0,,0,,,52,95
21580,note_on,1,0,0,,0,,,54,95
21580,note_on,0,0,0,,1,,,78,127
21841,note_off,261,0,0,,1,,,78,127
21842,note_on,1,0,0,,1,,,79,127
22103,note_off,261,0,0,,1,,,79,127
22103,note_off,0,0,0,,0,,,54,95
22103,note_off,0,0,0,,0,,,71,95
22103,note_off,0,0,0,,0,,,67,95
22103,note_off,0,0,0,,0,,,64,95
22104,note_on,1,0,0,,0,,,55,95
22104,note_on,0,0,0,,0,,,64,95
22104,note_on,0,0,0,,0,,,67,95
22104,note_on,0,0,0,,0,,,71,95
22627,note_off,523,0,0,,0,,,55,95
22628,note_on,1,0,0,,0,,,52,95
22628,note_on,0,0,0,,1,,,79,127
22889,note_off,261,0,0,,1,,,79,127
22890,note_on,1,0,0,,1,,,71,127
23151,note_off,261,0,0,,1,,,71,127
23151,note_off,0,0,0,,0,,,52,95
23151,note_off,0,0,0,,0,,,71,95
23151,note_off,0,0,0,,0,,,67,95
23151,note_off,0,0,0,,0,,,64,95
23152,note_on,1,0,0,,0,,,57,95
23152,note_on,0,0,0,,0,,,64,95
23152,note_on,0,0,0,,0,,,72,95
23152,note_on,0,0,0,,1,,,72,127
23413,note_off,261,0,0,,1,,,72,127
23414,note_on,1,0,0,,1,,,79,127
23675,note_off,261,0,0,,0,,,72,95
23675,note_off,0,0,0,,0,,,57,95
23676,note_on,1,0,0,,0,,,55,95
23676,note_on,0,0,0,,0,,,71,95
23937,note_off,261,0,0,,1,,,79,127
23938,note_on,1,0,0,,1,,,71,127
24199,note_off,261,0,0,,1,,,71,127
24199,note_off,0,0,0,,0,,,71,95
24199,note_off,0,0,0,,0,,,55,95
24199,note_off,0,0,0,,0,,,64,95
24200,note_on,1,0,0,,0,,,54,95
24200,note_on,0,0,0,,0,,,62,95
24200,note_on,0,0,0,,0,,,69,95
24200,note_on,0,0,0,,1,,,72,127
24461,note_off,261,0,0,,1,,,72,127
24462,note_on,1,0,0,,1,,,81,127
24723,note_off,261,0,0,,0,,,62,95
24723,note_off,0,0,0,,0,,,54,95
24724,note_on,1,0,0,,0,,,50,95
24724,note_on,0,0,0,,0,,,66,95
24985,note_off,261,0,0,,1,,,81,127
24986,note_on,1,0,0,,1,,,72,127
25247,note_off,261,0,0,,1,,,72,127
25247,note_off,0,0,0,,0,,,66,95
25247,note_off,0,0,0,,0,,,50,95
25247,note_off,0,0,0,,0,,,69,95
25248,note_on,1,0,0,,0,,,55,95
25248,note_on,0,0,0,,0,,,62,95
25248,note_on,0,0,0,,0,,,67,95
25248,note_on,0,0,0,,0,,,71,95
25248,note_on,0,0,0,,1,,,72,127
25509,note_off,261,0,0,,1,,,72,127
25510,note_on,1,0,0,,1,,,69,127
25771,note_off,261,0,0,,1,,,69,127
25771,note_off,0,0,0,,0,,,55,95
25772,note_on,1,0,0,,0,,,43,95
25772,note_on,0,0,0,,1,,,69,127
26033,note_off,261,0,0,,1,,,69,127
26034,note_on,1,0,0,,1,,,71,127
26295,note_off,261,0,0,,0,,,43,95
26295,note_off,0,0,0,,0,,,71,95
26295,note_off,0,0,0,,0,,,67,95
26295,note_off,0,0,0,,0,,,62,95
26296,note_on,1,0,0,,0,,,43,95
26296,note_on,0,0,0,,0,,,67,95
26558,note_on,262,0,0,,1,,,67,127
26819,note_off,261,0,0,,0,,,67,95
26819,note_off,0,0,0,,0,,,43,95
26820,note_on,1,0,0,,0,,,55,95
26820,note_on,0,0,0,,0,,,62,95
26820,note_on,0,0,0,,1,,,71,127
27081,note_off,261,0,0,,1,,,71,127
27082,note_on,1,0,0,,1,,,74,127
27343,note_off,261,0,0,,1,,,74,127
27343,note_off,0,0,0,,1,,,71,127
27343,note_off,0,0,0,,0,,,62,95
27343,note_off,0,0,0,,0,,,55,95
27343,note_off,0,0,0,,1,,,67,127
27344,note_on,1,0,0,,0,,,52,95
27344,note_on,0,0,0,,0,,,67,95
27344,note_on,0,0,0,,1,,,74,127
27605,note_off,261,0,0,,1,,,74,127
27606,note_on,1,0,0,,1,,,71,127
27867,note_off,261,0,0,,1,,,71,127
27867,note_off,0,0,0,,0,,,67,95
27867,note_off,0,0,0,,0,,,52,95
27868,note_on,1,0,0,,0,,,52,95
27868,note_on,0,0,0,,0,,,66,95
27868,note_on,0,0,0,,1,,,71,127
28129,note_off,261,0,0,,1,,,71,127
28130,note_on,1,0,0,,1,,,73,127
28391,note_off,261,0,0,,1,,,73,127
28391,note_off,0,0,0,,0,,,66,95
28391,note_off,0,0,0,,0,,,52,95
28392,note_on,1,0,0,,0,,,52,95
28392,note_on,0,0,0,,0,,,64,95
28392,note_on,0,0,0,,0,,,67,95
28654,note_on,262,0,0,,1,,,73,127
28915,note_off,261,0,0,,1,,,73,127
28915,note_off,0,0,0,,0,,,52,95
28916,note_on,1,0,0,,0,,,52,95
28916,note_on,0,0,0,,1,,,76,127
29177,note_off,261,0,0,,1,,,76,127
29178,note_on,1,0,0,,1,,,79,127
29439,note_off,261,0,0,,1,,,79,127
29439,note_off,0,0,0,,0,,,52,95
29439,note_off,0,0,0,,0,,,67,95
29439,note_off,0,0,0,,0,,,64,95
29440,note_on,1,0,0,,0,,,50,95
29440,note_on,0,0,0,,0,,,69,95
29440,note_on,0,0,0,,1,,,79,127
29701,note_off,261,0,0,,1,,,79,127
29702,note_on,1,0,0,,1,,,76,127
29963,note_off,261,0,0,,1,,,76,127
29963,note_off,0,0,0,,0,,,50,95
29964,note_on,1,0,0,,0,,,50,95
29964,note_on,0,0,0,,0,,,71,95
29964,note_on,0,0,0,,1,,,76,127
30225,note_off,261,0,0,,1,,,76,127
30226,note_on,1,0,0,,1,,,78,127
30487,note_off,261,0,0,,1,,,78,127
30487,note_off,0,0,0,,0,,,71,95
30487,note_off,0,0,0,,0,,,50,95
30488,note_on,1,0,0,,0,,,50,95
30488,note_on,0,0,0,,0,,,72,95
30488,note_on,0,0,0,,0,,,66,95
30750,note_on,262,0,0,,1,,,66,127
31011,note_off,261,0,0,,0,,,66,95
31011,note_off,0,0,0,,0,,,50,95
31012,note_on,1,0,0,,0,,,50,95
31012,note_on,0,0,0,,1,,,69,127
31273,note_off,261,0,0,,0,,,69,95
31274,note_on,1,0,0,,1,,,72,127
31535,note_off,261,0,0,,1,,,72,127
31535,note_off,0,0,0,,1,,,69,127
31535,note_off,0,0,0,,0,,,50,95
31535,note_off,0,0,0,,1,,,66,127
31535,note_off,0,0,0,,0,,,72,95
31536,note_on,1,0,0,,0,,,55,95
31536,note_on,0,0,0,,0,,,62,95
31536,note_on,0,0,0,,0,,,67,95
31536,note_on,0,0,0,,0,,,71,95
31536,note_on,0,0,0,,1,,,71,127
31797,note_off,261,0,0,,1,,,71,127
31798,note_on,1,0,0,,1,,,79,127
32059,note_off,261,0,0,,1,,,79,127
32059,note_off,0,0,0,,0,,,55,95
32060,note_on,1,0,0,,0,,,47,95
32060,note_on,0,0,0,,1,,,67,127
32321,note_off,261,0,0,,1,,,67,127
32321,note_off,0,0,0,,0,,,47,95
32321,note_off,0,0,0,,0,,,71,95
32321,note_off,0,0,0,,0,,,67,95
32321,note_off,0,0,0,,0,,,62,95
32322,note_on,1,0,0,,0,,,48,95
32322,note_on,0,0,0,,0,,,64,95
32322,note_on,0,0,0,,0,,,69,95
32322,note_on,0,0,0,,1,,,69,127
32583,note_off,261,0,0,,1,,,69,127
32583,note_off,0,0,0,,0,,,69,95
32583,note_off,0,0,0,,0,,,64,95
32583,note_off,0,0,0,,0,,,48,95
32584,note_on,1,0,0,,0,,,50,95
32584,note_on,0,0,0,,0,,,62,95
32584,note_on,0,0,0,,0,,,66,95
32584,note_on,0,0,0,,0,,,69,95
32584,note_on,0,0,0,,1,,,71,127
32679,note_on,95,0,0,,1,,,69,127
32692,note_off,13,0,0,,1,,,71,127
32775,note_on,83,0,0,,1,,,71,127
32788,note_off,13,0,0,,0,,,69,95
32871,note_on,83,0,0,,1,,,69,127
32884,note_off,13,0,0,,1,,,71,127
33108,note_off,224,0,0,,0,,,50,95
33109,note_on,1,0,0,,0,,,50,95
33362,note_off,253,0,0,,1,,,69,127
33371,note_on,9,0,0,,1,,,67,127
33632,note_off,261,0,0,,1,,,67,127
33632,note_off,0,0,0,,0,,,50,95
33632,note_off,0,0,0,,1,,,69,127
33632,note_off,0,0,0,,0,,,66,95
33632,note_off,0,0,0,,0,,,62,95
33639,note_on,7,0,0,,0,,,62,95
33639,note_on,0,0,0,,0,,,67,95
33639,note_on,0,0,0,,0,,,55,95
33639,note_on,0,0,0,,0,,,71,95
33639,note_on,0,0,0,,1,,,67,127
33900,note_off,261,0,0,,1,,,67,127
33911,note_on,11,0,0,,1,,,71,127
34162,note_off,251,0,0,,0,,,71,95
34162,note_off,0,0,0,,0,,,55,95
34173,note_on,11,0,0,,1,,,71,127
34173,note_on,0,0,0,,0,,,43,95
34434,note_off,261,0,0,,1,,,71,127
34435,note_on,1,0,0,,1,,,74,127
34686,note_off,251,0,0,,0,,,67,95
34686,note_off,0,0,0,,0,,,62,95
34696,note_off,10,0,0,,1,,,74,127
34696,note_off,0,0,0,,0,,,43,95
34697,note_on,1,0,0,,0,,,74,95
34697,note_on,0,0,0,,0,,,67,95
34697,note_on,0,0,0,,0,,,43,95
34959,note_on,262,0,0,,1,,,79,127
35220,note_off,261,0,0,,1,,,79,127
35220,note_off,0,0,0,,0,,,43,95
35221,note_on,1,0,0,,1,,,76,127
35221,note_on,0,0,0,,0,,,55,95
35482,note_off,261,0,0,,1,,,76,127
35483,note_on,1,0,0,,1,,,74,127
35744,note_off,261,0,0,,1,,,74,127
35744,note_off,0,0,0,,0,,,55,95
35744,note_off,0,0,0,,0,,,67,95
35744,note_off,0,0,0,,0,,,74,95
35744,note_off,0,0,0,,1,,,71,127
35745,note_on,1,0,0,,1,,,69,127
35745,note_on,0,0,0,,0,,,69,95
35745,note_on,0,0,0,,0,,,64,95
35745,note_on,0,0,0,,0,,,57,95
36006,note_off,261,0,0,,1,,,69,127
36007,note_on,1,0,0,,1,,,73,127
36268,note_off,261,0,0,,1,,,73,127
36268,note_off,0,0,0,,0,,,57,95
36269,note_on,1,0,0,,1,,,73,127
36269,note_on,0,0,0,,0,,,45,95
36530,note_off,261,0,0,,1,,,73,127
36531,note_on,1,0,0,,1,,,76,127
36792,note_off,261,0,0,,1,,,76,127
36792,note_off,0,0,0,,0,,,45,95
36792,note_off,0,0,0,,0,,,64,95
36793,note_on,1,0,0,,0,,,73,95
36793,note_on,0,0,0,,0,,,64,95
36793,note_on,0,0,0,,0,,,45,95
37055,note_on,262,0,0,,1,,,81,127
37316,note_off,261,0,0,,1,,,81,127
37316,note_off,0,0,0,,0,,,45,95
37317,note_on,1,0,0,,1,,,78,127
37317,note_on,0,0,0,,0,,,57,95
37578,note_off,261,0,0,,1,,,78,127
37579,note_on,1,0,0,,1,,,76,127
37840,note_off,261,0,0,,1,,,76,127
37840,note_off,0,0,0,,0,,,57,95
37840,note_off,0,0,0,,0,,,64,95
37840,note_off,0,0,0,,0,,,73,95
37840,note_off,0,0,0,,0,,,69,95
37841,note_on,1,0,0,,1,,,71,127
37841,note_on,0,0,0,,0,,,69,95
37841,note_on,0,0,0,,0,,,66,95
37841,note_on,0,0,0,,0,,,59,95
38102,note_off,261,0,0,,1,,,71,127
38103,note_on,1,0,0,,1,,,75,127
38364,note_off,261,0,0,,1,,,75,127
38364,note_off,0,0,0,,0,,,59,95
38365,note_on,1,0,0,,1,,,75,127
38365,note_on,0,0,0,,0,,,47,95
38626,note_off,261,0,0,,1,,,75,127
38627,note_on,1,0,0,,1,,,78,127
38888,note_off,261,0,0,,1,,,78,127
38888,note_off,0,0,0,,0,,,47,95
38888,note_off,0,0,0,,0,,,69,95
38889,note_on,1,0,0,,0,,,69,95
38889,note_on,0,0,0,,0,,,59,95
38889,note_on,0,0,0,,0,,,47,95
39151,note_on,262,0,0,,1,,,78,127
39412,note_off,261,0,0,,1,,,78,127
39412,note_off,0,0,0,,0,,,47,95
39413,note_on,1,0,0,,1,,,71,127
39413,note_on,0,0,0,,0,,,51,95
39674,note_off,261,0,0,,1,,,71,127
39675,note_on,1,0,0,,1,,,69,127
39936,note_off,261,0,0,,1,,,69,127
39936,note_off,0,0,0,,0,,,51,95
39936,note_off,0,0,0,,0,,,69,95
39936,note_off,0,0,0,,0,,,66,95
39937,note_on,1,0,0,,1,,,69,127
39937,note_on,0,0,0,,0,,,67,95
39937,note_on,0,0,0,,0,,,64,95
39937,note_on,0,0,0,,0,,,52,95
40198,note_off,261,0,0,,1,,,69,127
40199,note_on,1,0,0,,1,,,66,127
40460,note_off,261,0,0,,1,,,66,127
40460,note_off,0,0,0,,0,,,52,95
40461,note_on,1,0,0,,1,,,66,127
40461,note_on,0,0,0,,0,,,54,95
40722,note_off,261,0,0,,1,,,66,127
40723,note_on,1,0,0,,1,,,67,127
40984,note_off,261,0,0,,0,,,54,95
40984,note_off,0,0,0,,0,,,64,95
40984,note_off,0,0,0,,0,,,67,95
40984,note_off,0,0,0,,0,,,59,95
40985,note_on,1,0,0,,0,,,71,95
40985,note_on,0,0,0,,0,,,64,95
40985,note_on,0,0,0,,0,,,55,95
41247,note_on,262,0,0,,1,,,83,127
41508,note_off,261,0,0,,1,,,83,127
41508,note_off,0,0,0,,0,,,55,95
41509,note_on,1,0,0,,1,,,83,127
41509,note_on,0,0,0,,0,,,52,95
41770,note_off,261,0,0,,1,,,83,127
41771,note_on,1,0,0,,1,,,74,127
42032,note_off,261,0,0,,1,,,74,127
42032,note_off,0,0,0,,0,,,52,95
42032,note_off,0,0,0,,0,,,64,95
42032,note_off,0,0,0,,0,,,71,95
42032,note_off,0,0,0,,1,,,67,127
42033,note_on,1,0,0,,1,,,74,127
42033,note_on,0,0,0,,0,,,72,95
42033,note_on,0,0,0,,0,,,64,95
42033,note_on,0,0,0,,0,,,57,95
42294,note_off,261,0,0,,1,,,74,127
42295,note_on,1,0,0,,1,,,71,127
42556,note_off,261,0,0,,1,,,71,127
42556,note_off,0,0,0,,0,,,57,95
42557,note_on,1,0,0,,1,,,71,127
42557,note_on,0,0,0,,0,,,55,95
42818,note_off,261,0,0,,1,,,71,127
42819,note_on,1,0,0,,1,,,72,127
43080,note_off,261,0,0,,0,,,55,95
43080,note_off,0,0,0,,0,,,64,95
43080,note_off,0,0,0,,0,,,72,95
43081,note_on,1,0,0,,0,,,69,95
43081,note_on,0,0,0,,0,,,62,95
43081,note_on,0,0,0,,0,,,54,95
43343,note_on,262,0,0,,1,,,81,127
43604,note_off,261,0,0,,1,,,81,127
43604,note_off,0,0,0,,0,,,54,95
43605,note_on,1,0,0,,1,,,81,127
43605,note_on,0,0,0,,0,,,50,95
43866,note_off,261,0,0,,1,,,81,127
43867,note_on,1,0,0,,1,,,72,127
44128,note_off,261,0,0,,1,,,72,127
44128,note_off,0,0,0,,0,,,50,95
44128,note_off,0,0,0,,0,,,69,95
44128,note_off,0,0,0,,1,,,72,127
44129,note_on,1,0,0,,1,,,72,127
44129,note_on,0,0,0,,0,,,71,95
44129,note_on,0,0,0,,0,,,67,95
44129,note_on,0,0,0,,0,,,55,95
44390,note_off,261,0,0,,1,,,72,127
44391,note_on,1,0,0,,1,,,69,127
44652,note_off,261,0,0,,1,,,69,127
44652,note_off,0,0,0,,0,,,55,95
44653,note_on,1,0,0,,1,,,69,127
44653,note_on,0,0,0,,0,,,54,95
44914,note_off,261,0,0,,1,,,69,127
44915,note_on,1,0,0,,1,,,71,127
45176,note_off,261,0,0,,0,,,54,95
45176,note_off,0,0,0,,0,,,67,95
45176,note_off,0,0,0,,0,,,71,95
45176,note_off,0,0,0,,0,,,62,95
45177,note_on,1,0,0,,0,,,67,95
45177,note_on,0,0,0,,0,,,64,95
45177,note_on,0,0,0,,0,,,52,95
45439,note_on,262,0,0,,1,,,79,127
45700,note_off,261,0,0,,1,,,79,127
45700,note_off,0,0,0,,0,,,52,95
45701,note_on,1,0,0,,1,,,79,127
45701,note_on,0,0,0,,0,,,48,95
45962,note_off,261,0,0,,1,,,79,127
45963,note_on,1,0,0,,1,,,71,127
46224,note_off,261,0,0,,1,,,71,127
46224,note_off,0,0,0,,0,,,48,95
46224,note_off,0,0,0,,0,,,67,95
46224,note_off,0,0,0,,1,,,71,127
46225,note_on,1,0,0,,1,,,71,127
46225,note_on,0,0,0,,0,,,69,95
46225,note_on,0,0,0,,0,,,60,95
46225,note_on,0,0,0,,0,,,54,95
46486,note_off,261,0,0,,1,,,71,127
46487,note_on,1,0,0,,1,,,68,127
46748,note_off,261,0,0,,1,,,68,127
46748,note_off,0,0,0,,0,,,54,95
46749,note_on,1,0,0,,1,,,68,127
46749,note_on,0,0,0,,0,,,52,95
47010,note_off,261,0,0,,1,,,68,127
47011,note_on,1,0,0,,1,,,69,127
47272,note_off,261,0,0,,0,,,52,95
47272,note_off,0,0,0,,0,,,60,95
47272,note_off,0,0,0,,0,,,69,95
47272,note_off,0,0,0,,0,,,64,95
47273,note_on,1,0,0,,0,,,71,95
47273,note_on,0,0,0,,0,,,66,95
47273,note_on,0,0,0,,0,,,51,95
47535,note_on,262,0,0,,1,,,78,127
47796,note_off,261,0,0,,1,,,78,127
47796,note_off,0,0,0,,0,,,51,95
47797,note_on,1,0,0,,1,,,78,127
47797,note_on,0,0,0,,0,,,47,95
48058,note_off,261,0,0,,1,,,78,127
48059,note_on,1,0,0,,1,,,69,127
48320,note_off,261,0,0,,1,,,69,127
48320,note_off,0,0,0,,0,,,47,95
48320,note_off,0,0,0,,0,,,66,95
48320,note_off,0,0,0,,0,,,71,95
48320,note_off,0,0,0,,1,,,69,127
48321,note_on,1,0,0,,1,,,67,127
48321,note_on,0,0,0,,0,,,71,95
48321,note_on,0,0,0,,0,,,67,95
48321,note_on,0,0,0,,0,,,52,95
48541,note_off,220,0,0,,1,,,67,127
48586,note_on,45,0,0,,1,,,76,127
48850,note_off,264,0,0,,0,,,52,95
48850,note_off,0,0,0,,0,,,67,95
48851,note_on,1,0,0,,0,,,64,95
48851,note_on,0,0,0,,0,,,55,95
49115,note_off,264,0,0,,1,,,76,127
49116,note_on,1,0,0,,1,,,76,127
49380,note_off,264,0,0,,1,,,76,127
49380,note_off,0,0,0,,0,,,55,95
49380,note_off,0,0,0,,0,,,71,95
49381,note_on,1,0,0,,0,,,72,95
49381,note_on,0,0,0,,0,,,69,95
49381,note_on,0,0,0,,0,,,57,95
49646,note_on,265,0,0,,1,,,81,127
49910,note_off,264,0,0,,1,,,81,127
49910,note_off,0,0,0,,0,,,57,95
49910,note_off,0,0,0,,0,,,72,95
49910,note_off,0,0,0,,0,,,64,95
49911,note_on,1,0,0,,1,,,79,127
49911,note_on,0,0,0,,0,,,63,95
49911,note_on,0,0,0,,0,,,59,95
50175,note_off,264,0,0,,1,,,79,127
50176,note_on,1,0,0,,1,,,78,127
50440,note_off,264,0,0,,1,,,78,127
50440,note_off,0,0,0,,0,,,59,95
50440,note_off,0,0,0,,0,,,63,95
50440,note_off,0,0,0,,0,,,69,95
50441,note_on,1,0,0,,1,,,76,127
50441,note_on,0,0,0,,0,,,69,95
50441,note_on,0,0,0,,0,,,64,95
50441,note_on,0,0,0,,0,,,60,95
50705,note_off,264,0,0,,1,,,76,127
50706,note_on,1,0,0,,1,,,64,127
50970,note_off,264,0,0,,0,,,60,95
50970,note_off,0,0,0,,0,,,69,95
50971,note_on,1,0,0,,0,,,71,95
50971,note_on,0,0,0,,0,,,43,95
51235,note_off,264,0,0,,0,,,64,95
51236,note_on,1,0,0,,1,,,64,127
51500,note_off,264,0,0,,1,,,64,127
51500,note_off,0,0,0,,0,,,43,95
51500,note_off,0,0,0,,0,,,71,95
51500,note_off,0,0,0,,1,,,64,127
51501,note_on,1,0,0,,0,,,64,95
51501,note_on,0,0,0,,0,,,72,95
51501,note_on,0,0,0,,0,,,45,95
51766,note_on,265,0,0,,1,,,69,127
52030,note_off,264,0,0,,1,,,69,127
52030,note_off,0,0,0,,0,,,45,95
52030,note_off,0,0,0,,0,,,72,95
52030,note_off,0,0,0,,0,,,64,95
52031,note_on,1,0,0,,1,,,67,127
52031,note_on,0,0,0,,0,,,71,95
52031,note_on,0,0,0,,0,,,63,95
52031,note_on,0,0,0,,0,,,47,95
52295,note_off,264,0,0,,1,,,67,127
52296,note_on,1,0,0,,1,,,66,127
52560,note_off,264,0,0,,1,,,66,127
52560,note_off,0,0,0,,0,,,47,95
52560,note_off,0,0,0,,0,,,63,95
52561,note_on,1,0,0,,1,,,64,127
52561,note_on,0,0,0,,0,,,64,95
52561,note_on,0,0,0,,0,,,48,95
52828,note_off,267,0,0,,1,,,64,127
52829,note_on,1,0,0,,1,,,69,127
53096,note_off,267,0,0,,1,,,69,127
53096,note_off,0,0,0,,0,,,48,95
53096,note_off,0,0,0,,0,,,71,95
53097,note_on,1,0,0,,1,,,72,127
53097,note_on,0,0,0,,0,,,69,95
53097,note_on,0,0,0,,0,,,60,95
53364,note_off,267,0,0,,1,,,72,127
53365,note_on,1,0,0,,1,,,76,127
53632,note_off,267,0,0,,1,,,76,127
53632,note_off,0,0,0,,0,,,60,95
53633,note_on,1,0,0,,1,,,81,127
53633,note_on,0,0,0,,0,,,60,95
53900,note_off,267,0,0,,1,,,81,127
53901,note_on,1,0,0,,1,,,79,127
54168,note_off,267,0,0,,1,,,79,127
54168,note_off,0,0,0,,0,,,60,95
54168,note_off,0,0,0,,0,,,69,95
54168,note_off,0,0,0,,0,,,64,95
54169,note_on,1,0,0,,1,,,78,127
54169,note_on,0,0,0,,0,,,64,95
54169,note_on,0,0,0,,0,,,69,95
54169,note_on,0,0,0,,0,,,48,95
54436,note_off,267,0,0,,1,,,78,127
54437,note_on,1,0,0,,1,,,76,127
54704,note_off,267,0,0,,1,,,76,127
54704,note_off,0,0,0,,0,,,48,95
54704,note_off,0,0,0,,0,,,69,95
54704,note_off,0,0,0,,0,,,64,95
54705,note_on,1,0,0,,1,,,75,127
54705,note_on,0,0,0,,0,,,71,95
54705,note_on,0,0,0,,0,,,66,95
54705,note_on,0,0,0,,0,,,63,95
54705,note_on,0,0,0,,0,,,47,95
54972,note_off,267,0,0,,1,,,75,127
54973,note_on,1,0,0,,1,,,71,127
55240,note_off,267,0,0,,0,,,47,95
55240,note_off,0,0,0,,0,,,71,95
55241,note_on,1,0,0,,1,,,69,127
55241,note_on,0,0,0,,0,,,59,95
55508,note_off,267,0,0,,1,,,69,127
55509,note_on,1,0,0,,1,,,75,127
55776,note_off,267,0,0,,1,,,75,127
55776,note_off,0,0,0,,0,,,59,95
55776,note_off,0,0,0,,1,,,71,127
55776,note_off,0,0,0,,0,,,63,95
55776,note_off,0,0,0,,0,,,66,95
55777,note_on,1,0,0,,0,,,66,95
55777,note_on,0,0,0,,0,,,63,95
55777,note_on,0,0,0,,0,,,59,95
56045,note_on,268,0,0,,1,,,78,127
56312,note_off,267,0,0,,1,,,78,127
56312,note_off,0,0,0,,0,,,59,95
56313,note_on,1,0,0,,1,,,78,127
56313,note_on,0,0,0,,0,,,71,95
56313,note_on,0,0,0,,0,,,51,95
56580,note_off,267,0,0,,1,,,78,127
56581,note_on,1,0,0,,1,,,69,127
56848,note_off,267,0,0,,1,,,69,127
56848,note_off,0,0,0,,0,,,51,95
56848,note_off,0,0,0,,0,,,71,95
56848,note_off,0,0,0,,0,,,63,95
56848,note_off,0,0,0,,0,,,66,95
56849,note_on,1,0,0,,1,,,67,127
56849,note_on,0,0,0,,0,,,71,95
56849,note_on,0,0,0,,0,,,67,95
56849,note_on,0,0,0,,0,,,64,95
56849,note_on,0,0,0,,0,,,52,95
57116,note_off,267,0,0,,1,,,67,127
57117,note_on,1,0,0,,1,,,83,127
57384,note_off,267,0,0,,1,,,83,127
57384,note_off,0,0,0,,0,,,52,95
57385,note_on,1,0,0,,1,,,76,127
57385,note_on,0,0,0,,0,,,55,95
57652,note_off,267,0,0,,0,,,55,95
57652,note_off,0,0,0,,1,,,76,127
57652,note_off,0,0,0,,0,,,71,95
57653,note_on,1,0,0,,1,,,78,127
57653,note_on,0,0,0,,0,,,69,95
57653,note_on,0,0,0,,0,,,57,95
57920,note_off,267,0,0,,0,,,57,95
57920,note_off,0,0,0,,1,,,78,127
57920,note_off,0,0,0,,0,,,64,95
57920,note_off,0,0,0,,0,,,67,95
57921,note_on,1,0,0,,1,,,79,127
57921,note_on,0,0,0,,0,,,64,95
57921,note_on,0,0,0,,0,,,59,95
58016,note_on,95,0,0,,1,,,78,127
58032,note_off,16,0,0,,1,,,79,127
58111,note_on,79,0,0,,1,,,79,127
58127,note_off,16,0,0,,1,,,78,127
58206,note_on,79,0,0,,1,,,78,127
58222,note_off,16,0,0,,1,,,79,127
58456,note_off,234,0,0,,0,,,59,95
58456,note_off,0,0,0,,0,,,64,95
58456,note_off,0,0,0,,0,,,69,95
58457,note_on,1,0,0,,0,,,66,95
58457,note_on,0,0,0,,0,,,63,95
58457,note_on,0,0,0,,0,,,47,95
58707,note_off,250,0,0,,1,,,78,127
58725,note_on,18,0,0,,1,,,76,127
58992,note_off,267,0,0,,1,,,76,127
58992,note_off,0,0,0,,0,,,47,95
58992,note_off,0,0,0,,0,,,63,95
58992,note_off,0,0,0,,0,,,66,95
58993,note_on,1,0,0,,1,,,76,127
58993,note_on,0,0,0,,0,,,71,95
58993,note_on,0,0,0,,0,,,64,95
58993,note_on,0,0,0,,0,,,48,95
59266,note_off,273,0,0,,1,,,76,127
59267,note_on,1,0,0,,1,,,72,127
59540,note_off,273,0,0,,1,,,72,127
59540,note_off,0,0,0,,0,,,48,95
59540,note_off,0,0,0,,0,,,71,95
59541,note_on,1,0,0,,1,,,64,127
59541,note_on,0,0,0,,0,,,69,95
59541,note_on,0,0,0,,0,,,45,95
59814,note_off,273,0,0,,0,,,64,95
59815,note_on,1,0,0,,1,,,66,127
60088,note_off,273,0,0,,1,,,66,127
60088,note_off,0,0,0,,0,,,45,95
60088,note_off,0,0,0,,0,,,69,95
60088,note_off,0,0,0,,1,,,64,127
60089,note_on,1,0,0,,1,,,67,127
60089,note_on,0,0,0,,0,,,67,95
60089,note_on,0,0,0,,0,,,47,95
60203,note_on,114,0,0,,1,,,66,127
60225,note_off,22,0,0,,1,,,67,127
60317,note_on,92,0,0,,1,,,67,127
60339,note_off,22,0,0,,1,,,66,127
60431,note_on,92,0,0,,1,,,66,127
60453,note_off,22,0,0,,1,,,67,127
60453,note_off,0,0,0,,0,,,67,95
60637,note_on,184,0,0,,0,,,63,95
60637,note_on,0,0,0,,0,,,66,95
60887,note_off,250,0,0,,1,,,66,127
60911,note_on,24,0,0,,1,,,64,127
61111,note_off,200,0,0,,0,,,66,95
61184,note_off,73,0,0,,1,,,64,127
61184,note_off,0,0,0,,0,,,63,95
61184,note_off,0,0,0,,0,,,47,95
61201,note_on,17,0,0,,0,,,40,95
61201,note_on,0,0,0,,0,,,59,95
61201,note_on,0,0,0,,0,,,55,95
61201,note_on,0,0,0,,1,,,64,127
62846,note_off,1645,0,0,,1,,,64,127
62846,note_off,0,0,0,,0,,,55,95
62846,note_off,0,0,0,,0,,,59,95
62846,note_off,0,0,0,,0,,,40,95
63396,note_on,550,0,0,,0,,,52,95
63396,note_on,0,0,0,,0,,,67,95
63396,note_on,0,0,0,,0,,,71,95
63396,note_on,0,0,0,,1,,,76,127
63645,note_off,249,0,0,,1,,,76,127
63646,note_on,1,0,0,,1,,,79,127
63770,note_off,124,0,0,,1,,,79,127
63771,note_on,1,0,0,,1,,,81,127
63895,note_off,124,0,0,,1,,,81,127
63895,note_off,0,0,0,,0,,,71,95
63895,note_off,0,0,0,,0,,,67,95
63895,note_off,0,0,0,,0,,,52,95
63896,note_on,1,0,0,,1,,,83,127
64145,note_off,249,0,0,,1,,,83,127
64146,note_on,1,0,0,,0,,,51,95
64146,note_on,0,0,0,,0,,,71,95
64146,note_on,0,0,0,,0,,,66,95
64146,note_on,0,0,0,,1,,,71,127
64395,note_off,249,0,0,,1,,,71,127
64395,note_off,0,0,0,,0,,,66,95
64395,note_off,0,0,0,,0,,,71,95
64395,note_off,0,0,0,,0,,,51,95
64396,note_on,1,0,0,,0,,,52,95
64396,note_on,0,0,0,,0,,,67,95
64396,note_on,0,0,0,,0,,,71,95
64396,note_on,0,0,0,,1,,,64,127
64645,note_off,249,0,0,,1,,,64,127
64646,note_on,1,0,0,,1,,,79,127
64770,note_off,124,0,0,,1,,,79,127
64771,note_on,1,0,0,,1,,,81,127
64895,note_off,124,0,0,,1,,,81,127
64895,note_off,0,0,0,,0,,,71,95
64895,note_off,0,0,0,,0,,,67,95
64895,note_off,0,0,0,,0,,,52,95
64896,note_on,1,0,0,,1,,,83,127
65145,note_off,249,0,0,,1,,,83,127
65146,note_on,1,0,0,,0,,,59,95
65146,note_on,0,0,0,,0,,,66,95
65146,note_on,0,0,0,,0,,,63,95
65146,note_on,0,0,0,,1,,,71,127
65395,note_off,249,0,0,,1,,,71,127
65395,note_off,0,0,0,,0,,,63,95
65395,note_off,0,0,0,,0,,,66,95
65395,note_off,0,0,0,,0,,,59,95
65396,note_on,1,0,0,,0,,,60,95
65396,note_on,0,0,0,,0,,,64,95
65396,note_on,0,0,0,,0,,,69,95
65645,note_off,249,0,0,,0,,,60,95
65646,note_on,1,0,0,,0,,,59,95
65646,note_on,0,0,0,,1,,,69,127
65770,note_off,124,0,0,,0,,,59,95
65771,note_on,1,0,0,,0,,,57,95
65895,note_off,124,0,0,,0,,,57,95
65895,note_off,0,0,0,,1,,,69,127
65895,note_off,0,0,0,,0,,,69,95
65896,note_on,1,0,0,,0,,,59,95
65896,note_on,0,0,0,,0,,,67,95
65896,note_on,0,0,0,,1,,,67,127
66145,note_off,249,0,0,,1,,,67,127
66145,note_off,0,0,0,,0,,,67,95
66145,note_off,0,0,0,,0,,,59,95
66145,note_off,0,0,0,,0,,,64,95
66146,note_on,1,0,0,,0,,,47,95
66146,note_on,0,0,0,,0,,,66,95
66146,note_on,0,0,0,,0,,,63,95
66146,note_on,0,0,0,,1,,,66,127
66395,note_off,249,0,0,,1,,,66,127
66395,note_off,0,0,0,,0,,,63,95
66395,note_off,0,0,0,,0,,,66,95
66395,note_off,0,0,0,,0,,,47,95
66396,note_on,1,0,0,,0,,,52,95
66396,note_on,0,0,0,,0,,,64,95
66396,note_on,0,0,0,,0,,,67,95
66396,note_on,0,0,0,,0,,,71,95
66396,note_on,0,0,0,,1,,,67,127
66645,note_off,249,0,0,,1,,,67,127
66646,note_on,1,0,0,,1,,,79,127
66770,note_off,124,0,0,,1,,,79,127
66771,note_on,1,0,0,,1,,,81,127
66895,note_off,124,0,0,,1,,,81,127
66895,note_off,0,0,0,,0,,,71,95
66895,note_off,0,0,0,,0,,,67,95
66895,note_off,0,0,0,,0,,,64,95
66895,note_off,0,0,0,,0,,,52,95
66896,note_on,1,0,0,,1,,,83,127
67145,note_off,249,0,0,,1,,,83,127
67146,note_on,1,0,0,,0,,,59,95
67146,note_on,0,0,0,,0,,,63,95
67146,note_on,0,0,0,,0,,,66,95
67146,note_on,0,0,0,,1,,,71,127
67395,note_off,249,0,0,,1,,,71,127
67395,note_off,0,0,0,,0,,,66,95
67395,note_off,0,0,0,,0,,,63,95
67395,note_off,0,0,0,,0,,,59,95
67396,note_on,1,0,0,,0,,,60,95
67396,note_on,0,0,0,,0,,,64,95
67396,note_on,0,0,0,,0,,,69,95
67645,note_off,249,0,0,,0,,,60,95
67646,note_on,1,0,0,,0,,,59,95
67646,note_on,0,0,0,,1,,,81,127
67770,note_off,124,0,0,,0,,,59,95
67771,note_on,1,0,0,,0,,,57,95
67895,note_off,124,0,0,,0,,,57,95
67895,note_off,0,0,0,,1,,,81,127
67895,note_off,0,0,0,,0,,,69,95
67896,note_on,1,0,0,,0,,,59,95
67896,note_on,0,0,0,,0,,,71,95
67896,note_on,0,0,0,,1,,,79,127
68145,note_off,249,0,0,,1,,,79,127
68145,note_off,0,0,0,,0,,,59,95
68145,note_off,0,0,0,,0,,,64,95
68146,note_on,1,0,0,,0,,,47,95
68146,note_on,0,0,0,,0,,,69,95
68146,note_on,0,0,0,,1,,,78,127
68395,note_off,249,0,0,,1,,,78,127
68395,note_off,0,0,0,,0,,,69,95
68395,note_off,0,0,0,,0,,,47,95
68395,note_off,0,0,0,,0,,,71,95
68396,note_on,1,0,0,,0,,,52,95
68396,note_on,0,0,0,,0,,,67,95
68396,note_on,0,0,0,,0,,,71,95
68396,note_on,0,0,0,,1,,,79,127
68520,note_off,124,0,0,,1,,,79,127
68521,note_on,1,0,0,,1,,,78,127
68645,note_off,124,0,0,,1,,,78,127
68645,note_off,0,0,0,,0,,,52,95
68646,note_on,1,0,0,,0,,,57,95
68646,note_on,0,0,0,,1,,,76,127
68895,note_off,249,0,0,,1,,,76,127
68895,note_off,0,0,0,,0,,,57,95
68895,note_off,0,0,0,,0,,,71,95
68895,note_off,0,0,0,,0,,,67,95
68896,note_on,1,0,0,,0,,,55,95
68896,note_on,0,0,0,,0,,,64,95
69145,note_off,249,0,0,,0,,,64,95
69145,note_off,0,0,0,,0,,,55,95
69146,note_on,1,0,0,,0,,,54,95
69146,note_on,0,0,0,,0,,,66,95
69395,note_off,249,0,0,,0,,,66,95
69395,note_off,0,0,0,,0,,,54,95
69396,note_on,1,0,0,,0,,,52,95
69396,note_on,0,0,0,,0,,,67,95
69396,note_on,0,0,0,,0,,,71,95
69396,note_on,0,0,0,,1,,,76,127
69645,note_off,249,0,0,,1,,,76,127
69646,note_on,1,0,0,,1,,,79,127
69770,note_off,124,0,0,,1,,,79,127
69771,note_on,1,0,0,,1,,,81,127
69895,note_off,124,0,0,,1,,,81,127
69895,note_off,0,0,0,,0,,,71,95
69895,note_off,0,0,0,,0,,,67,95
69895,note_off,0,0,0,,0,,,52,95
69896,note_on,1,0,0,,1,,,83,127
70145,note_off,249,0,0,,1,,,83,127
70146,note_on,1,0,0,,0,,,52,95
70146,note_on,0,0,0,,0,,,67,95
70146,note_on,0,0,0,,0,,,64,95
70146,note_on,0,0,0,,1,,,71,127
70395,note_off,249,0,0,,1,,,71,127
70395,note_off,0,0,0,,0,,,52,95
70396,note_on,1,0,0,,0,,,45,95
70396,note_on,0,0,0,,1,,,71,127
70645,note_off,249,0,0,,1,,,71,127
70645,note_off,0,0,0,,0,,,45,95
70645,note_off,0,0,0,,0,,,64,95
70645,note_off,0,0,0,,0,,,67,95
70646,note_on,1,0,0,,0,,,57,95
70646,note_on,0,0,0,,0,,,64,95
70646,note_on,0,0,0,,0,,,72,95
70646,note_on,0,0,0,,1,,,72,127
70770,note_off,124,0,0,,1,,,72,127
70771,note_on,1,0,0,,0,,,71,95
70895,note_off,124,0,0,,0,,,71,95
70895,note_off,0,0,0,,0,,,72,95
70895,note_off,0,0,0,,0,,,57,95
70896,note_on,1,0,0,,0,,,57,95
70896,note_on,0,0,0,,0,,,69,95
71145,note_off,249,0,0,,0,,,69,95
71145,note_off,0,0,0,,0,,,57,95
71145,note_off,0,0,0,,0,,,64,95
71146,note_on,1,0,0,,0,,,55,95
71146,note_on,0,0,0,,0,,,72,95
71395,note_off,249,0,0,,0,,,72,95
71395,note_off,0,0,0,,0,,,55,95
71396,note_on,1,0,0,,0,,,54,95
71396,note_on,0,0,0,,0,,,62,95
71396,note_on,0,0,0,,0,,,69,95
71396,note_on,0,0,0,,1,,,72,127
71645,note_off,249,0,0,,1,,,72,127
71646,note_on,1,0,0,,1,,,78,127
71770,note_off,124,0,0,,1,,,78,127
71771,note_on,1,0,0,,1,,,79,127
71895,note_off,124,0,0,,1,,,79,127
71895,note_off,0,0,0,,0,,,69,95
71895,note_off,0,0,0,,0,,,62,95
71895,note_off,0,0,0,,0,,,54,95
71896,note_on,1,0,0,,1,,,81,127
72145,note_off,249,0,0,,1,,,81,127
72146,note_on,1,0,0,,0,,,50,95
72146,note_on,0,0,0,,0,,,66,95
72146,note_on,0,0,0,,1,,,69,127
72395,note_off,249,0,0,,1,,,69,127
72395,note_off,0,0,0,,0,,,50,95
72396,note_on,1,0,0,,0,,,43,95
72396,note_on,0,0,0,,0,,,62,95
72396,note_on,0,0,0,,1,,,69,127
72645,note_off,249,0,0,,1,,,69,127
72645,note_off,0,0,0,,0,,,43,95
72645,note_off,0,0,0,,0,,,66,95
72646,note_on,1,0,0,,0,,,55,95
72646,note_on,0,0,0,,0,,,71,95
72646,note_on,0,0,0,,1,,,71,127
72770,note_off,124,0,0,,1,,,71,127
72771,note_on,1,0,0,,0,,,69,95
72895,note_off,124,0,0,,0,,,69,95
72895,note_off,0,0,0,,0,,,71,95
72895,note_off,0,0,0,,0,,,55,95
72895,note_off,0,0,0,,0,,,62,95
72896,note_on,1,0,0,,0,,,55,95
72896,note_on,0,0,0,,0,,,67,95
73145,note_off,249,0,0,,0,,,67,95
73145,note_off,0,0,0,,0,,,55,95
73146,note_on,1,0,0,,0,,,57,95
73146,note_on,0,0,0,,0,,,66,95
73395,note_off,249,0,0,,0,,,66,95
73395,note_off,0,0,0,,0,,,57,95
73396,note_on,1,0,0,,0,,,59,95
73396,note_on,0,0,0,,0,,,62,95
73396,note_on,0,0,0,,0,,,67,95
73396,note_on,0,0,0,,1,,,67,127
73645,note_off,249,0,0,,1,,,67,127
73646,note_on,1,0,0,,1,,,71,127
73770,note_off,124,0,0,,1,,,71,127
73771,note_on,1,0,0,,1,,,72,127
73895,note_off,124,0,0,,1,,,72,127
73895,note_off,0,0,0,,0,,,67,95
73895,note_off,0,0,0,,0,,,62,95
73895,note_off,0,0,0,,0,,,59,95
73896,note_on,1,0,0,,1,,,74,127
74145,note_off,249,0,0,,1,,,74,127
74146,note_on,1,0,0,,0,,,55,95
74146,note_on,0,0,0,,0,,,71,95
74146,note_on,0,0,0,,0,,,67,95
74146,note_on,0,0,0,,1,,,74,127
74395,note_off,249,0,0,,1,,,74,127
74395,note_off,0,0,0,,0,,,67,95
74395,note_off,0,0,0,,0,,,71,95
74395,note_off,0,0,0,,0,,,55,95
74396,note_on,1,0,0,,0,,,54,95
74396,note_on,0,0,0,,0,,,62,95
74396,note_on,0,0,0,,0,,,69,95
74646,note_on,250,0,0,,1,,,78,127
74770,note_off,124,0,0,,1,,,78,127
74771,note_on,1,0,0,,1,,,79,127
74895,note_off,124,0,0,,1,,,79,127
74895,note_off,0,0,0,,0,,,69,95
74895,note_off,0,0,0,,0,,,62,95
74895,note_off,0,0,0,,0,,,54,95
74896,note_on,1,0,0,,1,,,81,127
75145,note_off,249,0,0,,1,,,81,127
75146,note_on,1,0,0,,0,,,50,95
75146,note_on,0,0,0,,0,,,69,95
75146,note_on,0,0,0,,0,,,66,95
75146,note_on,0,0,0,,1,,,72,127
75395,note_off,249,0,0,,1,,,72,127
75395,note_off,0,0,0,,0,,,66,95
75395,note_off,0,0,0,,0,,,69,95
75395,note_off,0,0,0,,0,,,50,95
75396,note_on,1,0,0,,0,,,43,95
75396,note_on,0,0,0,,0,,,62,95
75396,note_on,0,0,0,,0,,,71,95
75396,note_on,0,0,0,,1,,,71,127
75645,note_off,249,0,0,,1,,,71,127
75646,note_on,1,0,0,,1,,,71,127
75770,note_off,124,0,0,,0,,,71,95
75771,note_on,1,0,0,,1,,,72,127
75895,note_off,124,0,0,,1,,,72,127
75895,note_off,0,0,0,,1,,,71,127
75895,note_off,0,0,0,,0,,,62,95
75895,note_off,0,0,0,,0,,,43,95
75896,note_on,1,0,0,,1,,,74,127
76145,note_off,249,0,0,,1,,,74,127
76146,note_on,1,0,0,,0,,,55,95
76146,note_on,0,0,0,,0,,,71,95
76146,note_on,0,0,0,,0,,,62,95
76146,note_on,0,0,0,,1,,,74,127
76395,note_off,249,0,0,,1,,,74,127
76395,note_off,0,0,0,,0,,,62,95
76395,note_off,0,0,0,,0,,,71,95
76395,note_off,0,0,0,,0,,,55,95
76396,note_on,1,0,0,,0,,,54,95
76396,note_on,0,0,0,,0,,,62,95
76396,note_on,0,0,0,,0,,,69,95
76646,note_on,250,0,0,,1,,,78,127
76770,note_off,124,0,0,,1,,,78,127
76771,note_on,1,0,0,,1,,,79,127
76895,note_off,124,0,0,,1,,,79,127
76895,note_off,0,0,0,,0,,,69,95
76895,note_off,0,0,0,,0,,,62,95
76895,note_off,0,0,0,,0,,,54,95
76896,note_on,1,0,0,,1,,,81,127
77145,note_off,249,0,0,,1,,,81,127
77146,note_on,1,0,0,,0,,,50,95
77146,note_on,0,0,0,,0,,,69,95
77146,note_on,0,0,0,,0,,,66,95
77146,note_on,0,0,0,,1,,,72,127
77395,note_off,249,0,0,,1,,,72,127
77395,note_off,0,0,0,,0,,,66,95
77395,note_off,0,0,0,,0,,,69,95
77395,note_off,0,0,0,,0,,,50,95
77396,note_on,1,0,0,,0,,,55,95
77396,note_on,0,0,0,,0,,,67,95
77396,note_on,0,0,0,,0,,,62,95
77396,note_on,0,0,0,,1,,,71,127
77645,note_off,249,0,0,,1,,,71,127
77646,note_on,1,0,0,,1,,,72,127
77770,note_off,124,0,0,,1,,,72,127
77771,note_on,1,0,0,,1,,,74,127
77895,note_off,124,0,0,,1,,,74,127
77895,note_off,0,0,0,,0,,,62,95
77895,note_off,0,0,0,,0,,,67,95
77895,note_off,0,0,0,,0,,,55,95
77896,note_on,1,0,0,,0,,,48,95
77896,note_on,0,0,0,,0,,,67,95
77896,note_on,0,0,0,,0,,,64,95
77896,note_on,0,0,0,,1,,,72,127
78145,note_off,249,0,0,,1,,,72,127
78146,note_on,1,0,0,,1,,,71,127
78395,note_off,249,0,0,,1,,,71,127
78395,note_off,0,0,0,,0,,,64,95
78395,note_off,0,0,0,,0,,,67,95
78395,note_off,0,0,0,,0,,,48,95
78396,note_on,1,0,0,,0,,,50,95
78396,note_on,0,0,0,,0,,,66,95
78396,note_on,0,0,0,,1,,,71,127
78645,note_off,249,0,0,,1,,,71,127
78645,note_off,0,0,0,,0,,,50,95
78646,note_on,1,0,0,,0,,,50,95
78646,note_on,0,0,0,,0,,,69,95
78646,note_on,0,0,0,,1,,,69,127
78895,note_off,249,0,0,,1,,,69,127
78895,note_off,0,0,0,,0,,,50,95
78895,note_off,0,0,0,,0,,,66,95
78896,note_on,1,0,0,,0,,,48,95
78896,note_on,0,0,0,,0,,,64,95
79145,note_off,249,0,0,,0,,,64,95
79145,note_off,0,0,0,,0,,,48,95
79145,note_off,0,0,0,,0,,,69,95
79146,note_on,1,0,0,,0,,,47,95
79146,note_on,0,0,0,,0,,,62,95
79395,note_off,249,0,0,,0,,,62,95
79395,note_off,0,0,0,,0,,,47,95
79396,note_on,1,0,0,,0,,,48,95
79396,note_on,0,0,0,,0,,,64,95
79396,note_on,0,0,0,,0,,,69,95
79396,note_on,0,0,0,,1,,,69,127
79645,note_off,249,0,0,,1,,,69,127
79646,note_on,1,0,0,,1,,,72,127
79770,note_off,124,0,0,,1,,,72,127
79771,note_on,1,0,0,,1,,,74,127
79895,note_off,124,0,0,,1,,,74,127
79895,note_off,0,0,0,,0,,,69,95
79895,note_off,0,0,0,,0,,,64,95
79895,note_off,0,0,0,,0,,,48,95
79896,note_on,1,0,0,,1,,,76,127
80145,note_off,249,0,0,,1,,,76,127
80146,note_on,1,0,0,,0,,,57,95
80146,note_on,0,0,0,,0,,,64,95
80146,note_on,0,0,0,,0,,,72,95
80146,note_on,0,0,0,,1,,,76,127
80395,note_off,249,0,0,,1,,,76,127
80395,note_off,0,0,0,,0,,,72,95
80395,note_off,0,0,0,,0,,,64,95
80395,note_off,0,0,0,,0,,,57,95
80396,note_on,1,0,0,,0,,,56,95
80396,note_on,0,0,0,,0,,,64,95
80396,note_on,0,0,0,,0,,,71,95
80646,note_on,250,0,0,,1,,,80,127
80770,note_off,124,0,0,,1,,,80,127
80771,note_on,1,0,0,,1,,,81,127
80895,note_off,124,0,0,,1,,,81,127
80895,note_off,0,0,0,,0,,,71,95
80895,note_off,0,0,0,,0,,,64,95
80895,note_off,0,0,0,,0,,,56,95
80896,note_on,1,0,0,,1,,,83,127
81145,note_off,249,0,0,,1,,,83,127
81146,note_on,1,0,0,,0,,,52,95
81146,note_on,0,0,0,,0,,,71,95
81146,note_on,0,0,0,,0,,,68,95
81146,note_on,0,0,0,,1,,,74,127
81395,note_off,249,0,0,,1,,,74,127
81395,note_off,0,0,0,,0,,,68,95
81395,note_off,0,0,0,,0,,,71,95
81395,note_off,0,0,0,,0,,,52,95
81396,note_on,1,0,0,,0,,,45,95
81396,note_on,0,0,0,,0,,,64,95
81396,note_on,0,0,0,,0,,,72,95
81396,note_on,0,0,0,,1,,,72,127
81645,note_off,249,0,0,,1,,,72,127
81646,note_on,1,0,0,,1,,,72,127
81770,note_off,124,0,0,,0,,,72,95
81771,note_on,1,0,0,,1,,,74,127
81895,note_off,124,0,0,,1,,,74,127
81895,note_off,0,0,0,,1,,,72,127
81895,note_off,0,0,0,,0,,,64,95
81895,note_off,0,0,0,,0,,,45,95
81896,note_on,1,0,0,,1,,,76,127
82145,note_off,249,0,0,,1,,,76,127
82146,note_on,1,0,0,,0,,,57,95
82146,note_on,0,0,0,,0,,,64,95
82146,note_on,0,0,0,,0,,,72,95
82146,note_on,0,0,0,,1,,,76,127
82395,note_off,249,0,0,,1,,,76,127
82395,note_off,0,0,0,,0,,,72,95
82395,note_off,0,0,0,,0,,,64,95
82395,note_off,0,0,0,,0,,,57,95
82396,note_on,1,0,0,,0,,,56,95
82396,note_on,0,0,0,,0,,,64,95
82396,note_on,0,0,0,,0,,,71,95
82646,note_on,250,0,0,,1,,,80,127
82770,note_off,124,0,0,,1,,,80,127
82771,note_on,1,0,0,,1,,,81,127
82895,note_off,124,0,0,,1,,,81,127
82895,note_off,0,0,0,,0,,,71,95
82895,note_off,0,0,0,,0,,,64,95
82895,note_off,0,0,0,,0,,,56,95
82896,note_on,1,0,0,,1,,,83,127
83145,note_off,249,0,0,,1,,,83,127
83146,note_on,1,0,0,,0,,,52,95
83146,note_on,0,0,0,,0,,,71,95
83146,note_on,0,0,0,,0,,,68,95
83146,note_on,0,0,0,,1,,,74,127
83395,note_off,249,0,0,,1,,,74,127
83395,note_off,0,0,0,,0,,,68,95
83395,note_off,0,0,0,,0,,,71,95
83395,note_off,0,0,0,,0,,,52,95
83396,note_on,1,0,0,,0,,,57,95
83396,note_on,0,0,0,,0,,,69,95
83396,note_on,0,0,0,,0,,,64,95
83396,note_on,0,0,0,,1,,,72,127
83645,note_off,249,0,0,,1,,,72,127
83646,note_on,1,0,0,,1,,,74,127
83770,note_off,124,0,0,,1,,,74,127
83771,note_on,1,0,0,,1,,,76,127
83895,note_off,124,0,0,,1,,,76,127
83895,note_off,0,0,0,,0,,,64,95
83895,note_off,0,0,0,,0,,,69,95
83895,note_off,0,0,0,,0,,,57,95
83896,note_on,1,0,0,,0,,,50,95
83896,note_on,0,0,0,,0,,,69,95
83896,note_on,0,0,0,,0,,,65,95
83896,note_on,0,0,0,,1,,,74,127
84145,note_off,249,0,0,,1,,,74,127
84146,note_on,1,0,0,,1,,,72,127
84395,note_off,249,0,0,,1,,,72,127
84395,note_off,0,0,0,,0,,,65,95
84395,note_off,0,0,0,,0,,,69,95
84395,note_off,0,0,0,,0,,,50,95
84396,note_on,1,0,0,,0,,,52,95
84396,note_on,0,0,0,,0,,,69,95
84396,note_on,0,0,0,,1,,,72,127
84645,note_off,249,0,0,,1,,,72,127
84645,note_off,0,0,0,,0,,,69,95
84645,note_off,0,0,0,,0,,,52,95
84646,note_on,1,0,0,,0,,,52,95
84646,note_on,0,0,0,,0,,,68,95
84646,note_on,0,0,0,,1,,,71,127
84895,note_off,249,0,0,,1,,,71,127
84895,note_off,0,0,0,,0,,,68,95
84895,note_off,0,0,0,,0,,,52,95
84896,note_on,1,0,0,,0,,,52,95
85145,note_off,249,0,0,,0,,,52,95
85146,note_on,1,0,0,,0,,,54,95
85395,note_off,249,0,0,,0,,,54,95
85396,note_on,1,0,0,,0,,,56,95
85396,note_on,0,0,0,,0,,,64,95
85396,note_on,0,0,0,,0,,,59,95
85396,note_on,0,0,0,,1,,,64,127
85645,note_off,249,0,0,,1,,,64,127
85646,note_on,1,0,0,,1,,,68,127
85770,note_off,124,0,0,,1,,,68,127
85771,note_on,1,0,0,,1,,,69,127
85895,note_off,124,0,0,,1,,,69,127
85895,note_off,0,0,0,,0,,,59,95
85895,note_off,0,0,0,,0,,,64,95
85895,note_off,0,0,0,,0,,,56,95
85896,note_on,1,0,0,,1,,,71,127
86145,note_off,249,0,0,,1,,,71,127
86146,note_on,1,0,0,,0,,,52,95
86146,note_on,0,0,0,,0,,,64,95
86146,note_on,0,0,0,,0,,,68,95
86146,note_on,0,0,0,,1,,,74,127
86395,note_off,249,0,0,,1,,,74,127
86395,note_off,0,0,0,,0,,,68,95
86395,note_off,0,0,0,,0,,,64,95
86395,note_off,0,0,0,,0,,,52,95
86396,note_on,1,0,0,,0,,,45,95
86396,note_on,0,0,0,,0,,,64,95
86396,note_on,0,0,0,,0,,,69,95
86396,note_on,0,0,0,,1,,,74,127
86645,note_off,249,0,0,,1,,,74,127
86645,note_off,0,0,0,,0,,,45,95
86646,note_on,1,0,0,,0,,,57,95
86646,note_on,0,0,0,,1,,,73,127
86895,note_off,249,0,0,,1,,,73,127
86895,note_off,0,0,0,,0,,,57,95
86895,note_off,0,0,0,,0,,,69,95
86895,note_off,0,0,0,,0,,,64,95
86896,note_on,1,0,0,,0,,,57,95
86896,note_on,0,0,0,,0,,,73,95
87145,note_off,249,0,0,,0,,,73,95
87145,note_off,0,0,0,,0,,,57,95
87146,note_on,1,0,0,,0,,,55,95
87146,note_on,0,0,0,,0,,,71,95
87395,note_off,249,0,0,,0,,,71,95
87395,note_off,0,0,0,,0,,,55,95
87396,note_on,1,0,0,,0,,,54,95
87396,note_on,0,0,0,,0,,,73,95
87396,note_on,0,0,0,,0,,,70,95
87396,note_on,0,0,0,,1,,,66,127
87645,note_off,249,0,0,,1,,,66,127
87646,note_on,1,0,0,,1,,,70,127
87770,note_off,124,0,0,,0,,,70,95
87771,note_on,1,0,0,,1,,,71,127
87895,note_off,124,0,0,,1,,,71,127
87895,note_off,0,0,0,,1,,,70,127
87895,note_off,0,0,0,,0,,,73,95
87895,note_off,0,0,0,,0,,,54,95
87896,note_on,1,0,0,,1,,,73,127
88145,note_off,249,0,0,,1,,,73,127
88146,note_on,1,0,0,,0,,,54,95
88146,note_on,0,0,0,,0,,,70,95
88146,note_on,0,0,0,,0,,,66,95
88146,note_on,0,0,0,,1,,,76,127
88395,note_off,249,0,0,,1,,,76,127
88395,note_off,0,0,0,,0,,,66,95
88395,note_off,0,0,0,,0,,,70,95
88395,note_off,0,0,0,,0,,,54,95
88396,note_on,1,0,0,,0,,,59,95
88396,note_on,0,0,0,,0,,,71,95
88396,note_on,0,0,0,,0,,,66,95
88396,note_on,0,0,0,,1,,,76,127
88645,note_off,249,0,0,,1,,,76,127
88645,note_off,0,0,0,,0,,,59,95
88646,note_on,1,0,0,,0,,,47,95
88646,note_on,0,0,0,,1,,,75,127
88895,note_off,249,0,0,,1,,,75,127
88895,note_off,0,0,0,,0,,,47,95
88895,note_off,0,0,0,,0,,,66,95
88895,note_off,0,0,0,,0,,,71,95
88896,note_on,1,0,0,,0,,,47,95
88896,note_on,0,0,0,,0,,,63,95
89145,note_off,249,0,0,,0,,,63,95
89145,note_off,0,0,0,,0,,,47,95
89146,note_on,1,0,0,,0,,,49,95
89146,note_on,0,0,0,,0,,,64,95
89395,note_off,249,0,0,,0,,,64,95
89395,note_off,0,0,0,,0,,,49,95
89396,note_on,1,0,0,,0,,,51,95
89396,note_on,0,0,0,,0,,,71,95
89396,note_on,0,0,0,,0,,,66,95
89396,note_on,0,0,0,,1,,,71,127
89645,note_off,249,0,0,,1,,,71,127
89646,note_on,1,0,0,,1,,,75,127
89770,note_off,124,0,0,,1,,,75,127
89771,note_on,1,0,0,,1,,,76,127
89895,note_off,124,0,0,,1,,,76,127
89895,note_off,0,0,0,,0,,,66,95
89895,note_off,0,0,0,,0,,,71,95
89895,note_off,0,0,0,,0,,,51,95
89896,note_on,1,0,0,,1,,,78,127
90145,note_off,249,0,0,,1,,,78,127
90146,note_on,1,0,0,,0,,,47,95
90146,note_on,0,0,0,,0,,,71,95
90146,note_on,0,0,0,,0,,,75,95
90146,note_on,0,0,0,,1,,,81,127
90395,note_off,249,0,0,,1,,,81,127
90395,note_off,0,0,0,,0,,,75,95
90395,note_off,0,0,0,,0,,,71,95
90395,note_off,0,0,0,,0,,,47,95
90396,note_on,1,0,0,,0,,,52,95
90396,note_on,0,0,0,,0,,,67,95
90396,note_on,0,0,0,,0,,,71,95
90396,note_on,0,0,0,,1,,,81,127
90645,note_off,249,0,0,,1,,,81,127
90646,note_on,1,0,0,,1,,,79,127
90895,note_off,249,0,0,,0,,,71,95
90895,note_off,0,0,0,,0,,,67,95
90895,note_off,0,0,0,,0,,,52,95
90896,note_on,1,0,0,,0,,,54,95
90896,note_on,0,0,0,,0,,,71,95
90896,note_on,0,0,0,,0,,,69,95
91145,note_off,249,0,0,,1,,,79,127
91146,note_on,1,0,0,,1,,,78,127
91395,note_off,249,0,0,,0,,,69,95
91395,note_off,0,0,0,,0,,,71,95
91395,note_off,0,0,0,,0,,,54,95
91396,note_on,1,0,0,,0,,,55,95
91396,note_on,0,0,0,,0,,,71,95
91396,note_on,0,0,0,,0,,,67,95
91645,note_off,249,0,0,,1,,,78,127
91646,note_on,1,0,0,,1,,,76,127
91770,note_off,124,0,0,,1,,,76,127
91771,note_on,1,0,0,,1,,,74,127
91895,note_off,124,0,0,,1,,,74,127
91895,note_off,0,0,0,,0,,,67,95
91895,note_off,0,0,0,,0,,,71,95
91895,note_off,0,0,0,,0,,,55,95
91896,note_on,1,0,0,,0,,,52,95
91896,note_on,0,0,0,,0,,,64,95
91896,note_on,0,0,0,,0,,,67,95
91896,note_on,0,0,0,,1,,,73,127
92145,note_off,249,0,0,,1,,,73,127
92146,note_on,1,0,0,,1,,,71,127
92395,note_off,249,0,0,,1,,,71,127
92395,note_off,0,0,0,,0,,,67,95
92395,note_off,0,0,0,,0,,,64,95
92395,note_off,0,0,0,,0,,,52,95
92396,note_on,1,0,0,,0,,,54,95
92396,note_on,0,0,0,,0,,,61,95
92396,note_on,0,0,0,,0,,,66,95
92396,note_on,0,0,0,,1,,,71,127
92645,note_off,249,0,0,,1,,,71,127
92645,note_off,0,0,0,,0,,,54,95
92646,note_on,1,0,0,,0,,,42,95
92646,note_on,0,0,0,,1,,,70,127
92895,note_off,249,0,0,,1,,,70,127
92895,note_off,0,0,0,,0,,,42,95
92895,note_off,0,0,0,,0,,,66,95
92895,note_off,0,0,0,,0,,,61,95
92896,note_on,1,0,0,,0,,,42,95
92896,note_on,0,0,0,,0,,,70,95
93145,note_off,249,0,0,,0,,,70,95
93145,note_off,0,0,0,,0,,,42,95
93146,note_on,1,0,0,,0,,,42,95
93146,note_on,0,0,0,,0,,,71,95
93395,note_off,249,0,0,,0,,,71,95
93395,note_off,0,0,0,,0,,,42,95
93396,note_on,1,0,0,,0,,,42,95
93396,note_on,0,0,0,,0,,,73,95
93396,note_on,0,0,0,,0,,,70,95
93396,note_on,0,0,0,,1,,,66,127
93645,note_off,249,0,0,,1,,,66,127
93646,note_on,1,0,0,,1,,,70,127
93770,note_off,124,0,0,,0,,,70,95
93771,note_on,1,0,0,,1,,,71,127
93895,note_off,124,0,0,,1,,,71,127
93895,note_off,0,0,0,,1,,,70,127
93895,note_off,0,0,0,,0,,,73,95
93895,note_off,0,0,0,,0,,,42,95
93896,note_on,1,0,0,,1,,,73,127
94145,note_off,249,0,0,,1,,,73,127
94146,note_on,1,0,0,,0,,,42,95
94146,note_on,0,0,0,,0,,,70,95
94146,note_on,0,0,0,,1,,,73,127
94395,note_off,249,0,0,,1,,,73,127
94395,note_off,0,0,0,,0,,,70,95
94395,note_off,0,0,0,,0,,,42,95
94396,note_on,1,0,0,,0,,,54,95
94396,note_on,0,0,0,,0,,,70,95
94396,note_on,0,0,0,,0,,,73,95
94646,note_on,250,0,0,,1,,,73,127
94770,note_off,124,0,0,,0,,,73,95
94771,note_on,1,0,0,,1,,,74,127
94895,note_off,124,0,0,,1,,,74,127
94895,note_off,0,0,0,,1,,,73,127
94895,note_off,0,0,0,,0,,,70,95
94895,note_off,0,0,0,,0,,,54,95
94896,note_on,1,0,0,,1,,,76,127
95145,note_off,249,0,0,,1,,,76,127
95146,note_on,1,0,0,,0,,,54,95
95146,note_on,0,0,0,,0,,,73,95
95146,note_on,0,0,0,,1,,,76,127
95395,note_off,249,0,0,,1,,,76,127
95395,note_off,0,0,0,,0,,,73,95
95395,note_off,0,0,0,,0,,,54,95
95396,note_on,1,0,0,,0,,,55,95
95396,note_on,0,0,0,,0,,,64,95
95396,note_on,0,0,0,,0,,,71,95
95646,note_on,250,0,0,,1,,,76,127
95770,note_off,124,0,0,,1,,,76,127
95771,note_on,1,0,0,,1,,,78,127
95895,note_off,124,0,0,,1,,,78,127
95895,note_off,0,0,0,,0,,,71,95
95895,note_off,0,0,0,,0,,,64,95
95895,note_off,0,0,0,,0,,,55,95
95896,note_on,1,0,0,,1,,,79,127
96145,note_off,249,0,0,,1,,,79,127
96146,note_on,1,0,0,,0,,,52,95
96146,note_on,0,0,0,,0,,,67,95
96146,note_on,0,0,0,,1,,,79,127
96395,note_off,249,0,0,,1,,,79,127
96395,note_off,0,0,0,,0,,,67,95
96395,note_off,0,0,0,,0,,,52,95
96396,note_on,1,0,0,,0,,,55,95
96396,note_on,0,0,0,,0,,,71,95
96396,note_on,0,0,0,,0,,,76,95
96646,note_on,250,0,0,,1,,,79,127
96770,note_off,124,0,0,,1,,,79,127
96771,note_on,1,0,0,,1,,,81,127
96895,note_off,124,0,0,,1,,,81,127
96895,note_off,0,0,0,,0,,,76,95
96895,note_off,0,0,0,,0,,,71,95
96895,note_off,0,0,0,,0,,,55,95
96896,note_on,1,0,0,,1,,,83,127
97145,note_off,249,0,0,,1,,,83,127
97146,note_on,1,0,0,,0,,,54,95
97146,note_on,0,0,0,,0,,,69,95
97146,note_on,0,0,0,,1,,,81,127
97395,note_off,249,0,0,,1,,,81,127
97395,note_off,0,0,0,,0,,,69,95
97395,note_off,0,0,0,,0,,,54,95
97396,note_on,1,0,0,,0,,,52,95
97396,note_on,0,0,0,,0,,,67,95
97396,note_on,0,0,0,,1,,,73,127
97645,note_off,249,0,0,,1,,,73,127
97646,note_on,1,0,0,,1,,,76,127
97770,note_off,124,0,0,,1,,,76,127
97771,note_on,1,0,0,,1,,,78,127
97895,note_off,124,0,0,,1,,,78,127
97895,note_off,0,0,0,,0,,,67,95
97895,note_off,0,0,0,,0,,,52,95
97896,note_on,1,0,0,,1,,,79,127
98145,note_off,249,0,0,,1,,,79,127
98146,note_on,1,0,0,,0,,,50,95
98146,note_on,0,0,0,,0,,,71,95
98146,note_on,0,0,0,,1,,,78,127
98395,note_off,249,0,0,,1,,,78,127
98395,note_off,0,0,0,,0,,,71,95
98395,note_off,0,0,0,,0,,,50,95
98396,note_on,1,0,0,,0,,,49,95
98396,note_on,0,0,0,,0,,,66,95
98396,note_on,0,0,0,,0,,,64,95
98396,note_on,0,0,0,,1,,,70,127
98645,note_off,249,0,0,,1,,,70,127
98646,note_on,1,0,0,,1,,,73,127
98770,note_off,124,0,0,,1,,,73,127
98771,note_on,1,0,0,,1,,,74,127
98895,note_off,124,0,0,,1,,,74,127
98895,note_off,0,0,0,,0,,,64,95
98895,note_off,0,0,0,,0,,,66,95
98895,note_off,0,0,0,,0,,,49,95
98896,note_on,1,0,0,,1,,,76,127
99145,note_off,249,0,0,,1,,,76,127
99146,note_on,1,0,0,,0,,,47,95
99146,note_on,0,0,0,,0,,,66,95
99146,note_on,0,0,0,,1,,,74,127
99395,note_off,249,0,0,,1,,,74,127
99395,note_off,0,0,0,,0,,,66,95
99395,note_off,0,0,0,,0,,,47,95
99396,note_on,1,0,0,,0,,,46,95
99396,note_on,0,0,0,,0,,,64,95
99396,note_on,0,0,0,,0,,,73,95
99396,note_on,0,0,0,,1,,,66,127
99645,note_off,249,0,0,,1,,,66,127
99646,note_on,1,0,0,,1,,,70,127
99770,note_off,124,0,0,,1,,,70,127
99771,note_on,1,0,0,,1,,,71,127
99895,note_off,124,0,0,,1,,,71,127
99895,note_off,0,0,0,,0,,,73,95
99895,note_off,0,0,0,,0,,,64,95
99895,note_off,0,0,0,,0,,,46,95
99896,note_on,1,0,0,,1,,,73,127
100145,note_off,249,0,0,,1,,,73,127
100146,note_on,1,0,0,,0,,,42,95
100146,note_on,0,0,0,,0,,,62,95
100146,note_on,0,0,0,,1,,,71,127
100395,note_off,249,0,0,,1,,,71,127
100395,note_off,0,0,0,,0,,,62,95
100395,note_off,0,0,0,,0,,,42,95
100396,note_on,1,0,0,,0,,,42,95
100396,note_on,0,0,0,,0,,,73,95
100396,note_on,0,0,0,,0,,,70,95
100396,note_on,0,0,0,,1,,,64,127
100645,note_off,249,0,0,,0,,,42,95
100646,note_on,1,0,0,,0,,,54,95
100895,note_off,249,0,0,,0,,,54,95
100895,note_off,0,0,0,,1,,,64,127
100895,note_off,0,0,0,,0,,,70,95
100895,note_off,0,0,0,,0,,,73,95
100896,note_on,1,0,0,,0,,,54,95
100896,note_on,0,0,0,,0,,,71,95
100896,note_on,0,0,0,,1,,,76,127
101145,note_off,249,0,0,,0,,,71,95
101145,note_off,0,0,0,,0,,,54,95
101146,note_on,1,0,0,,0,,,54,95
101146,note_on,0,0,0,,0,,,70,95
101395,note_off,249,0,0,,0,,,70,95
101395,note_off,0,0,0,,0,,,54,95
101395,note_off,0,0,0,,1,,,76,127
101396,note_on,1,0,0,,0,,,47,95
101396,note_on,0,0,0,,0,,,62,95
101396,note_on,0,0,0,,0,,,71,95
101396,note_on,0,0,0,,1,,,74,127
101645,note_off,249,0,0,,1,,,74,127
101645,note_off,0,0,0,,0,,,47,95
101646,note_on,1,0,0,,0,,,50,95
101646,note_on,0,0,0,,0,,,66,95
101646,note_on,0,0,0,,1,,,73,127
101770,note_off,124,0,0,,1,,,73,127
101771,note_on,1,0,0,,1,,,71,127
101895,note_off,124,0,0,,1,,,71,127
101895,note_off,0,0,0,,0,,,66,95
101895,note_off,0,0,0,,0,,,50,95
101895,note_off,0,0,0,,0,,,71,95
101895,note_off,0,0,0,,0,,,62,95
101896,note_on,1,0,0,,0,,,52,95
101896,note_on,0,0,0,,0,,,67,95
101896,note_on,0,0,0,,1,,,73,127
102145,note_off,249,0,0,,1,,,73,127
102145,note_off,0,0,0,,0,,,52,95
102146,note_on,1,0,0,,0,,,54,95
102146,note_on,0,0,0,,0,,,64,95
102146,note_on,0,0,0,,1,,,71,127
102270,note_off,124,0,0,,1,,,71,127
102271,note_on,1,0,0,,1,,,70,127
102395,note_off,124,0,0,,1,,,70,127
102395,note_off,0,0,0,,0,,,54,95
102396,note_on,1,0,0,,0,,,55,95
102396,note_on,0,0,0,,1,,,71,127
102645,note_off,249,0,0,,0,,,55,95
102645,note_off,0,0,0,,0,,,64,95
102645,note_off,0,0,0,,0,,,67,95
102646,note_on,1,0,0,,0,,,50,95
102646,note_on,0,0,0,,0,,,66,95
102895,note_off,249,0,0,,0,,,66,95
102895,note_off,0,0,0,,0,,,50,95
102895,note_off,0,0,0,,1,,,71,127
102896,note_on,1,0,0,,0,,,52,95
102896,note_on,0,0,0,,0,,,67,95
102896,note_on,0,0,0,,1,,,73,127
103145,note_off,249,0,0,,1,,,73,127
103145,note_off,0,0,0,,0,,,52,95
103146,note_on,1,0,0,,0,,,54,95
103146,note_on,0,0,0,,0,,,64,95
103146,note_on,0,0,0,,1,,,71,127
103270,note_off,124,0,0,,1,,,71,127
103271,note_on,1,0,0,,1,,,70,127
103395,note_off,124,0,0,,1,,,70,127
103395,note_off,0,0,0,,0,,,64,95
103395,note_off,0,0,0,,0,,,54,95
103395,note_off,0,0,0,,0,,,67,95
103396,note_on,1,0,0,,0,,,55,95
103396,note_on,0,0,0,,0,,,64,95
103396,note_on,0,0,0,,1,,,71,127
103645,note_off,249,0,0,,0,,,64,95
103645,note_off,0,0,0,,0,,,55,95
103646,note_on,1,0,0,,0,,,50,95
103646,note_on,0,0,0,,0,,,66,95
103895,note_off,249,0,0,,0,,,66,95
103895,note_off,0,0,0,,0,,,50,95
103895,note_off,0,0,0,,1,,,71,127
103896,note_on,1,0,0,,0,,,52,95
103896,note_on,0,0,0,,0,,,67,95
103896,note_on,0,0,0,,1,,,73,127
104145,note_off,249,0,0,,1,,,73,127
104145,note_off,0,0,0,,0,,,67,95
104145,note_off,0,0,0,,0,,,52,95
104146,note_on,1,0,0,,0,,,54,95
104146,note_on,0,0,0,,0,,,66,95
104146,note_on,0,0,0,,0,,,61,95
104146,note_on,0,0,0,,1,,,71,127
104262,note_off,116,0,0,,1,,,71,127
104264,note_on,2,0,0,,1,,,70,127
104366,note_off,102,0,0,,1,,,70,127
104395,note_off,29,0,0,,0,,,61,95
104395,note_off,0,0,0,,0,,,66,95
104395,note_off,0,0,0,,0,,,54,95
104406,note_on,11,0,0,,0,,,71,95
104406,note_on,0,0,0,,0,,,64,95
104406,note_on,0,0,0,,0,,,55,95
104406,note_on,0,0,0,,1,,,83,127
104655,note_off,249,0,0,,1,,,83,127
104655,note_off,0,0,0,,0,,,55,95
104662,note_on,7,0,0,,1,,,81,127
104662,note_on,0,0,0,,0,,,49,95
104786,note_off,124,0,0,,1,,,81,127
104787,note_on,1,0,0,,1,,,79,127
104905,note_off,118,0,0,,0,,,64,95
104905,note_off,0,0,0,,0,,,71,95
104911,note_off,6,0,0,,1,,,79,127
104911,note_off,0,0,0,,0,,,49,95
104912,note_on,1,0,0,,1,,,78,127
104912,note_on,0,0,0,,0,,,66,95
104912,note_on,0,0,0,,0,,,50,95
105161,note_off,249,0,0,,0,,,50,95
105161,note_off,0,0,0,,0,,,66,95
105161,note_off,0,0,0,,1,,,78,127
105162,note_on,1,0,0,,1,,,76,127
105162,note_on,0,0,0,,0,,,67,95
105162,note_on,0,0,0,,0,,,52,95
105411,note_off,249,0,0,,0,,,52,95
105411,note_off,0,0,0,,0,,,67,95
105411,note_off,0,0,0,,1,,,76,127
105412,note_on,1,0,0,,1,,,74,127
105412,note_on,0,0,0,,0,,,66,95
105412,note_on,0,0,0,,0,,,71,95
105412,note_on,0,0,0,,0,,,54,95
105912,note_off,500,0,0,,0,,,54,95
105912,note_off,0,0,0,,0,,,71,95
105912,note_off,0,0,0,,0,,,66,95
105912,note_off,0,0,0,,1,,,74,127
105913,note_on,1,0,0,,1,,,73,127
105913,note_on,0,0,0,,0,,,70,95
105913,note_on,0,0,0,,0,,,66,95
105913,note_on,0,0,0,,0,,,42,95
106413,note_off,500,0,0,,0,,,42,95
106413,note_off,0,0,0,,0,,,66,95
106413,note_off,0,0,0,,0,,,70,95
106413,note_off,0,0,0,,1,,,73,127
106414,note_on,1,0,0,,1,,,71,127
106414,note_on,0,0,0,,0,,,66,95
106414,note_on,0,0,0,,0,,,62,95
106414,note_on,0,0,0,,0,,,47,95
106663,note_off,249,0,0,,1,,,71,127
106664,note_on,1,0,0,,1,,,74,127
106788,note_off,124,0,0,,1,,,74,127
106789,note_on,1,0,0,,1,,,76,127
106913,note_off,124,0,0,,1,,,76,127
106913,note_off,0,0,0,,0,,,47,95
106913,note_off,0,0,0,,0,,,62,95
106913,note_off,0,0,0,,0,,,66,95
106914,note_on,1,0,0,,1,,,78,127
107163,note_off,249,0,0,,1,,,78,127
107164,note_on,1,0,0,,1,,,80,127
107164,note_on,0,0,0,,0,,,66,95
107164,note_on,0,0,0,,0,,,54,95
107288,note_off,124,0,0,,1,,,80,127
107289,note_on,1,0,0,,1,,,82,127
107413,note_off,124,0,0,,1,,,82,127
107413,note_off,0,0,0,,0,,,54,95
107413,note_off,0,0,0,,0,,,66,95
107414,note_on,1,0,0,,1,,,83,127
107414,note_on,0,0,0,,0,,,71,95
107414,note_on,0,0,0,,0,,,59,95
107663,note_off,249,0,0,,0,,,59,95
107663,note_off,0,0,0,,0,,,71,95
107663,note_off,0,0,0,,1,,,83,127
107664,note_on,1,0,0,,1,,,74,127
107664,note_on,0,0,0,,0,,,62,95
107664,note_on,0,0,0,,0,,,50,95
107913,note_off,249,0,0,,0,,,50,95
107913,note_off,0,0,0,,0,,,62,95
107913,note_off,0,0,0,,1,,,74,127
107914,note_on,1,0,0,,1,,,76,127
107914,note_on,0,0,0,,0,,,64,95
107914,note_on,0,0,0,,0,,,52,95
108163,note_off,249,0,0,,0,,,52,95
108163,note_off,0,0,0,,0,,,64,95
108163,note_off,0,0,0,,1,,,76,127
108164,note_on,1,0,0,,1,,,78,127
108164,note_on,0,0,0,,0,,,66,95
108164,note_on,0,0,0,,0,,,54,95
108413,note_off,249,0,0,,0,,,54,95
108413,note_off,0,0,0,,0,,,66,95
108413,note_off,0,0,0,,1,,,78,127
108414,note_on,1,0,0,,1,,,71,127
108414,note_on,0,0,0,,0,,,59,95
108414,note_on,0,0,0,,0,,,47,95
109164,note_off,750,0,0,,0,,,47,95
109164,note_off,0,0,0,,0,,,59,95
109164,note_off,0,0,0,,1,,,71,127
109415,note_on,251,0,0,,1,,,71,127
109415,note_on,0,0,0,,0,,,66,95
109415,note_on,0,0,0,,0,,,62,95
109415,note_on,0,0,0,,0,,,59,95
109664,note_off,249,0,0,,1,,,71,127
109665,note_on,1,0,0,,1,,,74,127
109789,note_off,124,0,0,,1,,,74,127
109790,note_on,1,0,0,,1,,,76,127
109914,note_off,124,0,0,,1,,,76,127
109914,note_off,0,0,0,,0,,,59,95
109914,note_off,0,0,0,,0,,,62,95
109914,note_off,0,0,0,,0,,,66,95
109915,note_on,1,0,0,,1,,,78,127
110164,note_off,249,0,0,,1,,,78,127
110165,note_on,1,0,0,,1,,,66,127
110165,note_on,0,0,0,,0,,,73,95
110165,note_on,0,0,0,,0,,,64,95
110165,note_on,0,0,0,,0,,,58,95
110414,note_off,249,0,0,,0,,,58,95
110414,note_off,0,0,0,,0,,,64,95
110414,note_off,0,0,0,,0,,,73,95
110414,note_off,0,0,0,,1,,,66,127
110415,note_on,1,0,0,,0,,,62,95
110415,note_on,0,0,0,,0,,,66,95
110415,note_on,0,0,0,,0,,,71,95
110415,note_on,0,0,0,,0,,,59,95
110665,note_on,250,0,0,,1,,,74,127
110789,note_off,124,0,0,,1,,,74,127
110790,note_on,1,0,0,,1,,,76,127
110914,note_off,124,0,0,,1,,,76,127
110914,note_off,0,0,0,,0,,,59,95
110914,note_off,0,0,0,,0,,,71,95
110914,note_off,0,0,0,,0,,,66,95
110914,note_off,0,0,0,,0,,,62,95
110915,note_on,1,0,0,,1,,,78,127
111164,note_off,249,0,0,,1,,,78,127
111165,note_on,1,0,0,,1,,,66,127
111165,note_on,0,0,0,,0,,,73,95
111165,note_on,0,0,0,,0,,,70,95
111165,note_on,0,0,0,,0,,,54,95
111414,note_off,249,0,0,,0,,,54,95
111414,note_off,0,0,0,,0,,,70,95
111414,note_off,0,0,0,,0,,,73,95
111414,note_off,0,0,0,,1,,,66,127
111415,note_on,1,0,0,,0,,,71,95
111415,note_on,0,0,0,,0,,,64,95
111415,note_on,0,0,0,,0,,,55,95
111664,note_off,249,0,0,,0,,,55,95
111664,note_off,0,0,0,,0,,,64,95
111665,note_on,1,0,0,,1,,,76,127
111665,note_on,0,0,0,,0,,,67,95
111665,note_on,0,0,0,,0,,,54,95
111789,note_off,124,0,0,,0,,,54,95
111790,note_on,1,0,0,,0,,,52,95
111914,note_off,124,0,0,,0,,,52,95
111914,note_off,0,0,0,,0,,,67,95
111914,note_off,0,0,0,,1,,,76,127
111915,note_on,1,0,0,,1,,,74,127
111915,note_on,0,0,0,,0,,,66,95
111915,note_on,0,0,0,,0,,,54,95
112164,note_off,249,0,0,,0,,,54,95
112164,note_off,0,0,0,,1,,,74,127
112164,note_off,0,0,0,,0,,,71,95
112165,note_on,1,0,0,,1,,,73,127
112165,note_on,0,0,0,,0,,,70,95
112165,note_on,0,0,0,,0,,,42,95
112414,note_off,249,0,0,,0,,,42,95
112414,note_off,0,0,0,,0,,,70,95
112414,note_off,0,0,0,,1,,,73,127
112414,note_off,0,0,0,,0,,,66,95
112415,note_on,1,0,0,,1,,,74,127
112415,note_on,0,0,0,,0,,,71,95
112415,note_on,0,0,0,,0,,,66,95
112415,note_on,0,0,0,,0,,,47,95
112664,note_off,249,0,0,,1,,,74,127
112665,note_on,1,0,0,,1,,,74,127
112789,note_off,124,0,0,,1,,,74,127
112790,note_on,1,0,0,,1,,,76,127
112914,note_off,124,0,0,,1,,,76,127
112914,note_off,0,0,0,,0,,,47,95
112914,note_off,0,0,0,,0,,,66,95
112914,note_off,0,0,0,,0,,,71,95
112915,note_on,1,0,0,,1,,,78,127
113164,note_off,249,0,0,,1,,,78,127
113165,note_on,1,0,0,,1,,,66,127
113165,note_on,0,0,0,,0,,,61,95
113165,note_on,0,0,0,,0,,,54,95
113414,note_off,249,0,0,,0,,,54,95
113414,note_off,0,0,0,,0,,,61,95
113414,note_off,0,0,0,,1,,,66,127
113415,note_on,1,0,0,,0,,,71,95
113415,note_on,0,0,0,,0,,,64,95
113415,note_on,0,0,0,,0,,,55,95
113664,note_off,249,0,0,,0,,,55,95
113665,note_on,1,0,0,,1,,,76,127
113665,note_on,0,0,0,,0,,,67,95
113665,note_on,0,0,0,,0,,,54,95
113789,note_off,124,0,0,,0,,,54,95
113790,note_on,1,0,0,,0,,,52,95
113914,note_off,124,0,0,,0,,,52,95
113914,note_off,0,0,0,,0,,,67,95
113914,note_off,0,0,0,,1,,,76,127
113914,note_off,0,0,0,,0,,,64,95
113914,note_off,0,0,0,,0,,,71,95
113915,note_on,1,0,0,,1,,,74,127
113915,note_on,0,0,0,,0,,,66,95
113915,note_on,0,0,0,,0,,,54,95
114164,note_off,249,0,0,,0,,,54,95
114164,note_off,0,0,0,,1,,,74,127
114165,note_on,1,0,0,,1,,,73,127
114165,note_on,0,0,0,,0,,,70,95
114165,note_on,0,0,0,,0,,,42,95
114414,note_off,249,0,0,,0,,,42,95
114414,note_off,0,0,0,,0,,,70,95
114414,note_off,0,0,0,,1,,,73,127
114414,note_off,0,0,0,,0,,,66,95
114415,note_on,1,0,0,,1,,,74,127
114415,note_on,0,0,0,,0,,,66,95
114415,note_on,0,0,0,,0,,,62,95
114415,note_on,0,0,0,,0,,,47,95
114539,note_off,124,0,0,,1,,,74,127
114540,note_on,1,0,0,,1,,,73,127
114664,note_off,124,0,0,,1,,,73,127
114664,note_off,0,0,0,,0,,,47,95
114665,note_on,1,0,0,,1,,,71,127
114665,note_on,0,0,0,,0,,,59,95
114914,note_off,249,0,0,,0,,,59,95
114914,note_off,0,0,0,,1,,,71,127
114914,note_off,0,0,0,,0,,,62,95
114914,note_off,0,0,0,,0,,,66,95
114915,note_on,1,0,0,,0,,,64,95
114915,note_on,0,0,0,,0,,,59,95
115164,note_off,249,0,0,,0,,,59,95
115164,note_off,0,0,0,,0,,,64,95
115165,note_on,1,0,0,,0,,,66,95
115165,note_on,0,0,0,,0,,,57,95
115414,note_off,249,0,0,,0,,,57,95
115414,note_off,0,0,0,,0,,,66,95
115415,note_on,1,0,0,,1,,,67,127
115415,note_on,0,0,0,,0,,,59,95
115415,note_on,0,0,0,,0,,,62,95
115415,note_on,0,0,0,,0,,,55,95
115664,note_off,249,0,0,,1,,,67,127
115665,note_on,1,0,0,,1,,,71,127
115789,note_off,124,0,0,,1,,,71,127
115790,note_on,1,0,0,,1,,,73,127
115914,note_off,124,0,0,,1,,,73,127
115914,note_off,0,0,0,,0,,,55,95
115914,note_off,0,0,0,,0,,,62,95
115914,note_off,0,0,0,,0,,,59,95
115915,note_on,1,0,0,,1,,,74,127
116164,note_off,249,0,0,,1,,,74,127
116165,note_on,1,0,0,,1,,,74,127
116165,note_on,0,0,0,,0,,,62,95
116165,note_on,0,0,0,,0,,,71,95
116165,note_on,0,0,0,,0,,,55,95
116414,note_off,249,0,0,,0,,,55,95
116414,note_off,0,0,0,,0,,,71,95
116414,note_off,0,0,0,,0,,,62,95
116414,note_off,0,0,0,,1,,,74,127
116415,note_on,1,0,0,,0,,,74,95
116415,note_on,0,0,0,,0,,,69,95
116415,note_on,0,0,0,,0,,,62,95
116415,note_on,0,0,0,,0,,,54,95
116665,note_on,250,0,0,,1,,,74,127
116789,note_off,124,0,0,,0,,,74,95
116790,note_on,1,0,0,,1,,,76,127
116914,note_off,124,0,0,,1,,,76,127
116914,note_off,0,0,0,,1,,,74,127
116914,note_off,0,0,0,,0,,,54,95
116914,note_off,0,0,0,,0,,,62,95
116914,note_off,0,0,0,,0,,,69,95
116915,note_on,1,0,0,,1,,,78,127
117164,note_off,249,0,0,,1,,,78,127
117165,note_on,1,0,0,,1,,,79,127
117165,note_on,0,0,0,,0,,,71,95
117165,note_on,0,0,0,,0,,,62,95
117165,note_on,0,0,0,,0,,,50,95
117289,note_off,124,0,0,,1,,,79,127
117290,note_on,1,0,0,,1,,,79,127
117414,note_off,124,0,0,,1,,,79,127
117414,note_off,0,0,0,,0,,,50,95
117414,note_off,0,0,0,,0,,,62,95
117414,note_off,0,0,0,,0,,,71,95
117415,note_on,1,0,0,,1,,,81,127
117415,note_on,0,0,0,,0,,,69,95
117415,note_on,0,0,0,,0,,,62,95
117415,note_on,0,0,0,,0,,,54,95
117664,note_off,249,0,0,,1,,,81,127
117665,note_on,1,0,0,,1,,,79,127
117789,note_off,124,0,0,,1,,,79,127
117790,note_on,1,0,0,,1,,,78,127
117914,note_off,124,0,0,,1,,,78,127
117914,note_off,0,0,0,,0,,,54,95
117914,note_off,0,0,0,,0,,,62,95
117914,note_off,0,0,0,,0,,,69,95
117915,note_on,1,0,0,,1,,,76,127
117915,note_on,0,0,0,,0,,,71,95
117915,note_on,0,0,0,,0,,,62,95
117915,note_on,0,0,0,,0,,,55,95
118164,note_off,249,0,0,,1,,,76,127
118165,note_on,1,0,0,,1,,,74,127
118414,note_off,249,0,0,,1,,,74,127
118414,note_off,0,0,0,,0,,,55,95
118414,note_off,0,0,0,,0,,,62,95
118414,note_off,0,0,0,,0,,,71,95
118415,note_on,1,0,0,,1,,,74,127
118415,note_on,0,0,0,,0,,,64,95
118415,note_on,0,0,0,,0,,,69,95
118415,note_on,0,0,0,,0,,,45,95
118664,note_off,249,0,0,,0,,,45,95
118664,note_off,0,0,0,,1,,,74,127
118665,note_on,1,0,0,,1,,,73,127
118665,note_on,0,0,0,,0,,,57,95
118914,note_off,249,0,0,,0,,,57,95
118914,note_off,0,0,0,,1,,,73,127
118914,note_off,0,0,0,,0,,,69,95
118914,note_off,0,0,0,,0,,,64,95
118915,note_on,1,0,0,,0,,,71,95
118915,note_on,0,0,0,,0,,,55,95
119164,note_off,249,0,0,,0,,,55,95
119164,note_off,0,0,0,,0,,,71,95
119165,note_on,1,0,0,,0,,,69,95
119165,note_on,0,0,0,,0,,,54,95
119414,note_off,249,0,0,,0,,,54,95
119414,note_off,0,0,0,,0,,,69,95
119415,note_on,1,0,0,,0,,,71,95
119415,note_on,0,0,0,,0,,,64,95
119415,note_on,0,0,0,,0,,,55,95
119665,note_on,250,0,0,,1,,,79,127
119789,note_off,124,0,0,,1,,,79,127
119790,note_on,1,0,0,,1,,,81,127
119914,note_off,124,0,0,,1,,,81,127
119914,note_off,0,0,0,,0,,,55,95
119914,note_off,0,0,0,,0,,,64,95
119914,note_off,0,0,0,,0,,,71,95
119915,note_on,1,0,0,,1,,,83,127
120164,note_off,249,0,0,,1,,,83,127
120165,note_on,1,0,0,,1,,,81,127
120165,note_on,0,0,0,,0,,,74,95
120165,note_on,0,0,0,,0,,,54,95
120414,note_off,249,0,0,,0,,,54,95
120414,note_off,0,0,0,,0,,,74,95
120414,note_off,0,0,0,,1,,,81,127
120415,note_on,1,0,0,,1,,,73,127
120415,note_on,0,0,0,,0,,,69,95
120415,note_on,0,0,0,,0,,,67,95
120415,note_on,0,0,0,,0,,,52,95
120664,note_off,249,0,0,,1,,,73,127
120665,note_on,1,0,0,,1,,,76,127
120789,note_off,124,0,0,,1,,,76,127
120790,note_on,1,0,0,,1,,,78,127
120914,note_off,124,0,0,,1,,,78,127
120914,note_off,0,0,0,,0,,,52,95
120914,note_off,0,0,0,,0,,,67,95
120914,note_off,0,0,0,,0,,,69,95
120915,note_on,1,0,0,,1,,,79,127
121164,note_off,249,0,0,,1,,,79,127
121165,note_on,1,0,0,,1,,,78,127
121165,note_on,0,0,0,,0,,,66,95
121165,note_on,0,0,0,,0,,,71,95
121165,note_on,0,0,0,,0,,,50,95
121414,note_off,249,0,0,,0,,,50,95
121414,note_off,0,0,0,,0,,,71,95
121414,note_off,0,0,0,,0,,,66,95
121414,note_off,0,0,0,,1,,,78,127
121415,note_on,1,0,0,,1,,,69,127
121415,note_on,0,0,0,,0,,,67,95
121415,note_on,0,0,0,,0,,,64,95
121415,note_on,0,0,0,,0,,,49,95
121664,note_off,249,0,0,,1,,,69,127
121665,note_on,1,0,0,,1,,,73,127
121789,note_off,124,0,0,,1,,,73,127
121790,note_on,1,0,0,,1,,,74,127
121914,note_off,124,0,0,,1,,,74,127
121914,note_off,0,0,0,,0,,,49,95
121914,note_off,0,0,0,,0,,,64,95
121914,note_off,0,0,0,,0,,,67,95
121915,note_on,1,0,0,,1,,,76,127
122164,note_off,249,0,0,,1,,,76,127
122165,note_on,1,0,0,,1,,,74,127
122165,note_on,0,0,0,,0,,,67,95
122165,note_on,0,0,0,,0,,,47,95
122414,note_off,249,0,0,,0,,,47,95
122414,note_off,0,0,0,,0,,,67,95
122414,note_off,0,0,0,,1,,,74,127
122415,note_on,1,0,0,,1,,,67,127
122415,note_on,0,0,0,,0,,,73,95
122415,note_on,0,0,0,,0,,,64,95
122415,note_on,0,0,0,,0,,,45,95
122664,note_off,249,0,0,,0,,,45,95
122665,note_on,1,0,0,,0,,,45,95
122914,note_off,249,0,0,,0,,,45,95
122914,note_off,0,0,0,,0,,,64,95
122914,note_off,0,0,0,,0,,,73,95
122914,note_off,0,0,0,,1,,,67,127
122915,note_on,1,0,0,,1,,,79,127
122915,note_on,0,0,0,,0,,,69,95
122915,note_on,0,0,0,,0,,,64,95
122915,note_on,0,0,0,,0,,,47,95
123164,note_off,249,0,0,,0,,,47,95
123165,note_on,1,0,0,,0,,,49,95
123414,note_off,249,0,0,,0,,,49,95
123414,note_off,0,0,0,,0,,,64,95
123414,note_off,0,0,0,,0,,,69,95
123414,note_off,0,0,0,,1,,,79,127
123415,note_on,1,0,0,,1,,,78,127
123415,note_on,0,0,0,,0,,,69,95
123415,note_on,0,0,0,,0,,,62,95
123415,note_on,0,0,0,,0,,,50,95
123664,note_off,249,0,0,,0,,,50,95
123664,note_off,0,0,0,,1,,,78,127
123665,note_on,1,0,0,,1,,,76,127
123665,note_on,0,0,0,,0,,,54,95
123789,note_off,124,0,0,,1,,,76,127
123790,note_on,1,0,0,,1,,,74,127
123914,note_off,124,0,0,,1,,,74,127
123914,note_off,0,0,0,,0,,,54,95
123914,note_off,0,0,0,,0,,,62,95
123914,note_off,0,0,0,,0,,,69,95
123915,note_on,1,0,0,,1,,,76,127
123915,note_on,0,0,0,,0,,,71,95
123915,note_on,0,0,0,,0,,,64,95
123915,note_on,0,0,0,,0,,,55,95
124164,note_off,249,0,0,,0,,,55,95
124164,note_off,0,0,0,,1,,,76,127
124165,note_on,1,0,0,,1,,,74,127
124165,note_on,0,0,0,,0,,,67,95
124165,note_on,0,0,0,,0,,,57,95
124289,note_off,124,0,0,,1,,,74,127
124290,note_on,1,0,0,,1,,,73,127
124414,note_off,124,0,0,,1,,,73,127
124414,note_off,0,0,0,,0,,,57,95
124414,note_off,0,0,0,,0,,,67,95
124414,note_off,0,0,0,,0,,,64,95
124414,note_off,0,0,0,,0,,,71,95
124415,note_on,1,0,0,,1,,,74,127
124415,note_on,0,0,0,,0,,,66,95
124415,note_on,0,0,0,,0,,,59,95
124664,note_off,249,0,0,,0,,,59,95
124664,note_off,0,0,0,,0,,,66,95
124665,note_on,1,0,0,,0,,,69,95
124665,note_on,0,0,0,,0,,,62,95
124665,note_on,0,0,0,,0,,,54,95
124914,note_off,249,0,0,,0,,,54,95
124914,note_off,0,0,0,,1,,,74,127
124915,note_on,1,0,0,,1,,,76,127
124915,note_on,0,0,0,,0,,,55,95
125164,note_off,249,0,0,,0,,,55,95
125164,note_off,0,0,0,,1,,,76,127
125164,note_off,0,0,0,,0,,,62,95
125164,note_off,0,0,0,,0,,,69,95
125165,note_on,1,0,0,,1,,,74,127
125165,note_on,0,0,0,,0,,,67,95
125165,note_on,0,0,0,,0,,,64,95
125165,note_on,0,0,0,,0,,,57,95
125289,note_off,124,0,0,,1,,,74,127
125290,note_on,1,0,0,,1,,,73,127
125414,note_off,124,0,0,,1,,,73,127
125414,note_off,0,0,0,,0,,,57,95
125414,note_off,0,0,0,,0,,,64,95
125414,note_off,0,0,0,,0,,,67,95
125415,note_on,1,0,0,,1,,,74,127
125415,note_on,0,0,0,,0,,,66,95
125415,note_on,0,0,0,,0,,,59,95
125664,note_off,249,0,0,,0,,,59,95
125664,note_off,0,0,0,,0,,,66,95
125665,note_on,1,0,0,,0,,,69,95
125665,note_on,0,0,0,,0,,,62,95
125665,note_on,0,0,0,,0,,,54,95
125914,note_off,249,0,0,,0,,,54,95
125914,note_off,0,0,0,,0,,,69,95
125914,note_off,0,0,0,,1,,,74,127
125915,note_on,1,0,0,,1,,,76,127
125915,note_on,0,0,0,,0,,,71,95
125915,note_on,0,0,0,,0,,,55,95
126164,note_off,249,0,0,,0,,,55,95
126164,note_off,0,0,0,,0,,,71,95
126164,note_off,0,0,0,,1,,,76,127
126164,note_off,0,0,0,,0,,,62,95
126165,note_on,1,0,0,,1,,,74,127
126165,note_on,0,0,0,,0,,,67,95
126165,note_on,0,0,0,,0,,,52,95
126289,note_off,124,0,0,,1,,,74,127
126290,note_on,1,0,0,,1,,,73,127
126414,note_off,124,0,0,,1,,,73,127
126414,note_off,0,0,0,,0,,,52,95
126414,note_off,0,0,0,,0,,,67,95
126415,note_on,1,0,0,,1,,,74,127
126415,note_on,0,0,0,,0,,,69,95
126415,note_on,0,0,0,,0,,,62,95
126415,note_on,0,0,0,,0,,,54,95
126664,note_off,249,0,0,,1,,,74,127
126665,note_on,1,0,0,,1,,,73,127
126789,note_off,124,0,0,,1,,,73,127
126790,note_on,1,0,0,,1,,,71,127
126914,note_off,124,0,0,,1,,,71,127
126914,note_off,0,0,0,,0,,,54,95
126914,note_off,0,0,0,,0,,,62,95
126914,note_off,0,0,0,,0,,,69,95
126915,note_on,1,0,0,,1,,,69,127
127164,note_off,249,0,0,,1,,,69,127
127165,note_on,1,0,0,,1,,,79,127
127165,note_on,0,0,0,,0,,,62,95
127165,note_on,0,0,0,,0,,,71,95
127165,note_on,0,0,0,,0,,,55,95
127414,note_off,249,0,0,,0,,,55,95
127414,note_off,0,0,0,,0,,,71,95
127414,note_off,0,0,0,,0,,,62,95
127414,note_off,0,0,0,,1,,,79,127
127415,note_on,1,0,0,,1,,,78,127
127415,note_on,0,0,0,,0,,,69,95
127415,note_on,0,0,0,,0,,,62,95
127415,note_on,0,0,0,,0,,,57,95
127915,note_off,500,0,0,,0,,,57,95
127915,note_off,0,0,0,,0,,,62,95
127915,note_off,0,0,0,,1,,,78,127
127916,note_on,1,0,0,,1,,,76,127
127916,note_on,0,0,0,,0,,,72,95
127916,note_on,0,0,0,,0,,,45,95
128416,note_off,500,0,0,,0,,,45,95
128416,note_off,0,0,0,,0,,,72,95
128416,note_off,0,0,0,,1,,,76,127
128416,note_off,0,0,0,,0,,,69,95
128417,note_on,1,0,0,,1,,,75,127
128417,note_on,0,0,0,,0,,,71,95
128417,note_on,0,0,0,,0,,,66,95
128417,note_on,0,0,0,,0,,,57,95
128666,note_off,249,0,0,,0,,,57,95
128666,note_off,0,0,0,,0,,,66,95
128666,note_off,0,0,0,,1,,,75,127
128667,note_on,1,0,0,,1,,,71,127
128667,note_on,0,0,0,,0,,,64,95
128667,note_on,0,0,0,,0,,,55,95
128791,note_off,124,0,0,,0,,,55,95
128792,note_on,1,0,0,,0,,,54,95
128916,note_off,124,0,0,,0,,,54,95
128916,note_off,0,0,0,,1,,,71,127
128916,note_off,0,0,0,,0,,,71,95
128917,note_on,1,0,0,,1,,,83,127
128917,note_on,0,0,0,,0,,,76,95
128917,note_on,0,0,0,,0,,,55,95
129166,note_off,249,0,0,,0,,,55,95
129166,note_off,0,0,0,,0,,,64,95
129167,note_on,1,0,0,,0,,,67,95
129167,note_on,0,0,0,,0,,,52,95
129416,note_off,249,0,0,,0,,,52,95
129416,note_off,0,0,0,,0,,,67,95
129417,note_on,1,0,0,,0,,,66,95
129417,note_on,0,0,0,,0,,,69,95
129417,note_on,0,0,0,,0,,,60,95
129666,note_off,249,0,0,,1,,,83,127
129667,note_on,1,0,0,,1,,,81,127
129791,note_off,124,0,0,,1,,,81,127
129792,note_on,1,0,0,,1,,,79,127
129916,note_off,124,0,0,,1,,,79,127
129916,note_off,0,0,0,,0,,,60,95
129916,note_off,0,0,0,,0,,,69,95
129916,note_off,0,0,0,,0,,,66,95
129916,note_off,0,0,0,,0,,,76,95
129917,note_on,1,0,0,,1,,,78,127
129917,note_on,0,0,0,,0,,,66,95
129917,note_on,0,0,0,,0,,,72,95
129917,note_on,0,0,0,,0,,,57,95
130166,note_off,249,0,0,,1,,,78,127
130167,note_on,1,0,0,,1,,,76,127
130416,note_off,249,0,0,,1,,,76,127
130416,note_off,0,0,0,,0,,,57,95
130416,note_off,0,0,0,,0,,,72,95
130416,note_off,0,0,0,,0,,,66,95
130417,note_on,1,0,0,,1,,,75,127
130417,note_on,0,0,0,,0,,,63,95
130417,note_on,0,0,0,,0,,,66,95
130417,note_on,0,0,0,,0,,,71,95
130417,note_on,0,0,0,,0,,,59,95
130541,note_off,124,0,0,,1,,,75,127
130542,note_on,1,0,0,,1,,,73,127
130666,note_off,124,0,0,,1,,,73,127
130666,note_off,0,0,0,,0,,,59,95
130667,note_on,1,0,0,,1,,,71,127
130667,note_on,0,0,0,,0,,,47,95
130916,note_off,249,0,0,,0,,,47,95
130916,note_off,0,0,0,,1,,,71,127
130916,note_off,0,0,0,,0,,,71,95
130916,note_off,0,0,0,,0,,,66,95
130916,note_off,0,0,0,,0,,,63,95
130917,note_on,1,0,0,,0,,,63,95
130917,note_on,0,0,0,,0,,,59,95
131166,note_off,249,0,0,,0,,,59,95
131166,note_off,0,0,0,,0,,,63,95
131167,note_on,1,0,0,,0,,,66,95
131167,note_on,0,0,0,,0,,,57,95
131416,note_off,249,0,0,,0,,,57,95
131416,note_off,0,0,0,,0,,,66,95
131425,note_on,9,0,0,,0,,,71,95
131425,note_on,0,0,0,,0,,,67,95
131425,note_on,0,0,0,,0,,,64,95
131425,note_on,0,0,0,,0,,,55,95
131675,note_on,250,0,0,,1,,,67,127
131799,note_off,124,0,0,,0,,,67,95
131800,note_on,1,0,0,,1,,,69,127
131924,note_off,124,0,0,,1,,,69,127
131924,note_off,0,0,0,,1,,,67,127
131924,note_off,0,0,0,,0,,,55,95
131924,note_off,0,0,0,,0,,,64,95
131924,note_off,0,0,0,,0,,,71,95
131925,note_on,1,0,0,,1,,,71,127
132174,note_off,249,0,0,,1,,,71,127
132175,note_on,1,0,0,,1,,,71,127
132175,note_on,0,0,0,,0,,,67,95
132175,note_on,0,0,0,,0,,,52,95
132424,note_off,249,0,0,,0,,,52,95
132424,note_off,0,0,0,,0,,,67,95
132424,note_off,0,0,0,,1,,,71,127
132425,note_on,1,0,0,,0,,,71,95
132425,note_on,0,0,0,,0,,,69,95
132425,note_on,0,0,0,,0,,,66,95
132425,note_on,0,0,0,,0,,,51,95
132675,note_on,250,0,0,,1,,,75,127
132799,note_off,124,0,0,,1,,,75,127
132800,note_on,1,0,0,,1,,,76,127
132924,note_off,124,0,0,,1,,,76,127
132924,note_off,0,0,0,,0,,,51,95
132924,note_off,0,0,0,,0,,,66,95
132924,note_off,0,0,0,,0,,,69,95
132924,note_off,0,0,0,,0,,,71,95
132925,note_on,1,0,0,,1,,,78,127
133174,note_off,249,0,0,,1,,,78,127
133175,note_on,1,0,0,,1,,,69,127
133175,note_on,0,0,0,,0,,,66,95
133175,note_on,0,0,0,,0,,,47,95
133424,note_off,249,0,0,,0,,,47,95
133424,note_off,0,0,0,,0,,,66,95
133424,note_off,0,0,0,,1,,,69,127
133425,note_on,1,0,0,,1,,,67,127
133425,note_on,0,0,0,,0,,,59,95
133425,note_on,0,0,0,,0,,,64,95
133425,note_on,0,0,0,,0,,,52,95
133674,note_off,249,0,0,,1,,,67,127
133675,note_on,1,0,0,,1,,,67,127
133799,note_off,124,0,0,,1,,,67,127
133800,note_on,1,0,0,,1,,,69,127
133924,note_off,124,0,0,,1,,,69,127
133924,note_off,0,0,0,,0,,,52,95
133924,note_off,0,0,0,,0,,,64,95
133924,note_off,0,0,0,,0,,,59,95
133925,note_on,1,0,0,,1,,,71,127
134174,note_off,249,0,0,,1,,,71,127
134175,note_on,1,0,0,,1,,,71,127
134175,note_on,0,0,0,,0,,,67,95
134175,note_on,0,0,0,,0,,,52,95
134424,note_off,249,0,0,,0,,,52,95
134424,note_off,0,0,0,,0,,,67,95
134424,note_off,0,0,0,,1,,,71,127
134425,note_on,1,0,0,,0,,,71,95
134425,note_on,0,0,0,,0,,,69,95
134425,note_on,0,0,0,,0,,,66,95
134425,note_on,0,0,0,,0,,,51,95
134675,note_on,250,0,0,,1,,,75,127
134799,note_off,124,0,0,,1,,,75,127
134800,note_on,1,0,0,,1,,,76,127
134924,note_off,124,0,0,,1,,,76,127
134924,note_off,0,0,0,,0,,,51,95
134924,note_off,0,0,0,,0,,,66,95
134924,note_off,0,0,0,,0,,,69,95
134924,note_off,0,0,0,,0,,,71,95
134925,note_on,1,0,0,,1,,,78,127
135174,note_off,249,0,0,,1,,,78,127
135175,note_on,1,0,0,,1,,,69,127
135175,note_on,0,0,0,,0,,,66,95
135175,note_on,0,0,0,,0,,,47,95
135424,note_off,249,0,0,,0,,,47,95
135424,note_off,0,0,0,,0,,,66,95
135424,note_off,0,0,0,,1,,,69,127
135425,note_on,1,0,0,,1,,,67,127
135425,note_on,0,0,0,,0,,,64,95
135425,note_on,0,0,0,,0,,,59,95
135425,note_on,0,0,0,,0,,,52,95
135674,note_off,249,0,0,,1,,,67,127
135675,note_on,1,0,0,,1,,,79,127
135799,note_off,124,0,0,,1,,,79,127
135800,note_on,1,0,0,,1,,,81,127
135924,note_off,124,0,0,,1,,,81,127
135924,note_off,0,0,0,,0,,,52,95
135924,note_off,0,0,0,,0,,,59,95
135924,note_off,0,0,0,,0,,,64,95
135925,note_on,1,0,0,,1,,,83,127
136174,note_off,249,0,0,,1,,,83,127
136175,note_on,1,0,0,,1,,,83,127
136175,note_on,0,0,0,,0,,,71,95
136175,note_on,0,0,0,,0,,,64,95
136175,note_on,0,0,0,,0,,,55,95
136424,note_off,249,0,0,,0,,,55,95
136424,note_off,0,0,0,,0,,,64,95
136424,note_off,0,0,0,,0,,,71,95
136424,note_off,0,0,0,,1,,,83,127
136425,note_on,1,0,0,,0,,,71,95
136425,note_on,0,0,0,,0,,,75,95
136425,note_on,0,0,0,,0,,,66,95
136425,note_on,0,0,0,,0,,,57,95
136675,note_on,250,0,0,,1,,,81,127
136799,note_off,124,0,0,,1,,,81,127
136800,note_on,1,0,0,,1,,,83,127
136924,note_off,124,0,0,,1,,,83,127
136924,note_off,0,0,0,,0,,,57,95
136924,note_off,0,0,0,,0,,,66,95
136924,note_off,0,0,0,,0,,,75,95
136924,note_off,0,0,0,,0,,,71,95
136925,note_on,1,0,0,,1,,,84,127
137174,note_off,249,0,0,,1,,,84,127
137175,note_on,1,0,0,,1,,,83,127
137175,note_on,0,0,0,,0,,,71,95
137175,note_on,0,0,0,,0,,,64,95
137175,note_on,0,0,0,,0,,,55,95
137424,note_off,249,0,0,,0,,,55,95
137424,note_off,0,0,0,,0,,,64,95
137424,note_off,0,0,0,,0,,,71,95
137424,note_off,0,0,0,,1,,,83,127
137425,note_on,1,0,0,,1,,,75,127
137425,note_on,0,0,0,,0,,,69,95
137425,note_on,0,0,0,,0,,,66,95
137425,note_on,0,0,0,,0,,,63,95
137425,note_on,0,0,0,,0,,,54,95
137674,note_off,249,0,0,,1,,,75,127
137675,note_on,1,0,0,,1,,,78,127
137799,note_off,124,0,0,,1,,,78,127
137800,note_on,1,0,0,,1,,,79,127
137924,note_off,124,0,0,,1,,,79,127
137924,note_off,0,0,0,,0,,,54,95
137924,note_off,0,0,0,,0,,,63,95
137924,note_off,0,0,0,,0,,,66,95
137924,note_off,0,0,0,,0,,,69,95
137925,note_on,1,0,0,,1,,,81,127
138174,note_off,249,0,0,,1,,,81,127
138175,note_on,1,0,0,,1,,,79,127
138175,note_on,0,0,0,,0,,,71,95
138175,note_on,0,0,0,,0,,,64,95
138175,note_on,0,0,0,,0,,,52,95
138424,note_off,249,0,0,,0,,,52,95
138424,note_off,0,0,0,,0,,,64,95
138424,note_off,0,0,0,,0,,,71,95
138424,note_off,0,0,0,,1,,,79,127
138425,note_on,1,0,0,,1,,,71,127
138425,note_on,0,0,0,,0,,,69,95
138425,note_on,0,0,0,,0,,,66,95
138425,note_on,0,0,0,,0,,,51,95
138674,note_off,249,0,0,,1,,,71,127
138675,note_on,1,0,0,,1,,,75,127
138799,note_off,124,0,0,,1,,,75,127
138800,note_on,1,0,0,,1,,,76,127
138924,note_off,124,0,0,,1,,,76,127
138924,note_off,0,0,0,,0,,,51,95
138924,note_off,0,0,0,,0,,,66,95
138924,note_off,0,0,0,,0,,,69,95
138925,note_on,1,0,0,,1,,,78,127
139174,note_off,249,0,0,,1,,,78,127
139175,note_on,1,0,0,,1,,,76,127
139175,note_on,0,0,0,,0,,,71,95
139175,note_on,0,0,0,,0,,,64,95
139175,note_on,0,0,0,,0,,,49,95
139424,note_off,249,0,0,,0,,,49,95
139424,note_off,0,0,0,,0,,,64,95
139424,note_off,0,0,0,,1,,,76,127
139425,note_on,1,0,0,,1,,,69,127
139425,note_on,0,0,0,,0,,,66,95
139425,note_on,0,0,0,,0,,,47,95
139674,note_off,249,0,0,,0,,,47,95
139674,note_off,0,0,0,,0,,,71,95
139675,note_on,1,0,0,,0,,,75,95
139675,note_on,0,0,0,,0,,,47,95
139924,note_off,249,0,0,,0,,,47,95
139924,note_off,0,0,0,,0,,,75,95
139924,note_off,0,0,0,,0,,,66,95
139924,note_off,0,0,0,,1,,,69,127
139925,note_on,1,0,0,,1,,,81,127
139925,note_on,0,0,0,,0,,,76,95
139925,note_on,0,0,0,,0,,,49,95
140174,note_off,249,0,0,,0,,,49,95
140174,note_off,0,0,0,,0,,,76,95
140175,note_on,1,0,0,,0,,,78,95
140175,note_on,0,0,0,,0,,,51,95
140424,note_off,249,0,0,,0,,,51,95
140424,note_off,0,0,0,,0,,,78,95
140424,note_off,0,0,0,,1,,,81,127
140425,note_on,1,0,0,,1,,,79,127
140425,note_on,0,0,0,,0,,,71,95
140425,note_on,0,0,0,,0,,,76,95
140425,note_on,0,0,0,,0,,,67,95
140425,note_on,0,0,0,,0,,,52,95
140674,note_off,249,0,0,,0,,,52,95
140674,note_off,0,0,0,,0,,,67,95
140674,note_off,0,0,0,,1,,,79,127
140675,note_on,1,0,0,,1,,,78,127
140675,note_on,0,0,0,,0,,,64,95
140675,note_on,0,0,0,,0,,,55,95
140799,note_off,124,0,0,,1,,,78,127
140800,note_on,1,0,0,,1,,,76,127
140924,note_off,124,0,0,,1,,,76,127
140924,note_off,0,0,0,,0,,,55,95
140924,note_off,0,0,0,,0,,,64,95
140924,note_off,0,0,0,,0,,,76,95
140924,note_off,0,0,0,,0,,,71,95
140925,note_on,1,0,0,,1,,,78,127
140925,note_on,0,0,0,,0,,,66,95
140925,note_on,0,0,0,,0,,,57,95
141174,note_off,249,0,0,,0,,,57,95
141174,note_off,0,0,0,,0,,,66,95
141174,note_off,0,0,0,,1,,,78,127
141175,note_on,1,0,0,,1,,,76,127
141175,note_on,0,0,0,,0,,,69,95
141175,note_on,0,0,0,,0,,,59,95
141299,note_off,124,0,0,,1,,,76,127
141300,note_on,1,0,0,,1,,,75,127
141424,note_off,124,0,0,,1,,,75,127
141424,note_off,0,0,0,,0,,,59,95
141424,note_off,0,0,0,,0,,,69,95
141425,note_on,1,0,0,,1,,,76,127
141425,note_on,0,0,0,,0,,,67,95
141425,note_on,0,0,0,,0,,,60,95
141674,note_off,249,0,0,,0,,,60,95
141674,note_off,0,0,0,,0,,,67,95
141675,note_on,1,0,0,,0,,,71,95
141675,note_on,0,0,0,,0,,,64,95
141675,note_on,0,0,0,,0,,,55,95
141924,note_off,249,0,0,,0,,,55,95
141924,note_off,0,0,0,,0,,,71,95
141924,note_off,0,0,0,,1,,,76,127
141925,note_on,1,0,0,,1,,,78,127
141925,note_on,0,0,0,,0,,,72,95
141925,note_on,0,0,0,,0,,,57,95
142174,note_off,249,0,0,,0,,,57,95
142174,note_off,0,0,0,,0,,,72,95
142174,note_off,0,0,0,,1,,,78,127
142175,note_on,1,0,0,,1,,,76,127
142175,note_on,0,0,0,,0,,,69,95
142175,note_on,0,0,0,,0,,,59,95
142299,note_off,124,0,0,,1,,,76,127
142300,note_on,1,0,0,,1,,,75,127
142424,note_off,124,0,0,,1,,,75,127
142424,note_off,0,0,0,,0,,,59,95
142424,note_off,0,0,0,,0,,,69,95
142424,note_off,0,0,0,,0,,,64,95
142425,note_on,1,0,0,,1,,,76,127
142425,note_on,0,0,0,,0,,,67,95
142425,note_on,0,0,0,,0,,,60,95
142674,note_off,249,0,0,,0,,,60,95
142674,note_off,0,0,0,,0,,,67,95
142675,note_on,1,0,0,,0,,,71,95
142675,note_on,0,0,0,,0,,,64,95
142675,note_on,0,0,0,,0,,,55,95
142924,note_off,249,0,0,,0,,,55,95
142924,note_off,0,0,0,,0,,,71,95
142924,note_off,0,0,0,,1,,,76,127
142925,note_on,1,0,0,,1,,,78,127
142925,note_on,0,0,0,,0,,,72,95
142925,note_on,0,0,0,,0,,,57,95
143174,note_off,249,0,0,,0,,,57,95
143174,note_off,0,0,0,,0,,,72,95
143174,note_off,0,0,0,,1,,,78,127
143175,note_on,1,0,0,,1,,,76,127
143175,note_on,0,0,0,,0,,,69,95
143175,note_on,0,0,0,,0,,,54,95
143299,note_off,124,0,0,,1,,,76,127
143300,note_on,1,0,0,,1,,,75,127
143424,note_off,124,0,0,,1,,,75,127
143424,note_off,0,0,0,,0,,,54,95
143424,note_off,0,0,0,,0,,,69,95
143424,note_off,0,0,0,,0,,,64,95
143425,note_on,1,0,0,,1,,,76,127
143425,note_on,0,0,0,,0,,,71,95
143425,note_on,0,0,0,,0,,,64,95
143425,note_on,0,0,0,,0,,,55,95
143674,note_off,249,0,0,,1,,,76,127
143675,note_on,1,0,0,,1,,,74,127
143799,note_off,124,0,0,,1,,,74,127
143800,note_on,1,0,0,,1,,,72,127
143924,note_off,124,0,0,,1,,,72,127
143924,note_off,0,0,0,,0,,,55,95
143924,note_off,0,0,0,,0,,,64,95
143924,note_off,0,0,0,,0,,,71,95
143925,note_on,1,0,0,,1,,,71,127
144174,note_off,249,0,0,,1,,,71,127
144175,note_on,1,0,0,,1,,,69,127
144175,note_on,0,0,0,,0,,,59,95
144175,note_on,0,0,0,,0,,,66,95
144175,note_on,0,0,0,,0,,,51,95
144424,note_off,249,0,0,,0,,,51,95
144424,note_off,0,0,0,,0,,,66,95
144424,note_off,0,0,0,,0,,,59,95
144424,note_off,0,0,0,,1,,,69,127
144425,note_on,1,0,0,,1,,,67,127
144425,note_on,0,0,0,,0,,,59,95
144425,note_on,0,0,0,,0,,,67,95
144425,note_on,0,0,0,,0,,,52,95
144674,note_off,249,0,0,,0,,,52,95
144675,note_on,1,0,0,,0,,,50,95
144924,note_off,249,0,0,,0,,,50,95
144924,note_off,0,0,0,,0,,,67,95
144924,note_off,0,0,0,,0,,,59,95
144924,note_off,0,0,0,,1,,,67,127
144925,note_on,1,0,0,,1,,,69,127
144925,note_on,0,0,0,,0,,,60,95
144925,note_on,0,0,0,,0,,,64,95
144925,note_on,0,0,0,,0,,,48,95
145425,note_off,500,0,0,,0,,,48,95
145425,note_off,0,0,0,,0,,,64,95
145425,note_off,0,0,0,,0,,,60,95
145425,note_off,0,0,0,,1,,,69,127
145426,note_on,1,0,0,,1,,,71,127
145426,note_on,0,0,0,,0,,,66,95
145426,note_on,0,0,0,,0,,,63,95
145426,note_on,0,0,0,,0,,,59,95
145426,note_on,0,0,0,,0,,,47,95
145675,note_off,249,0,0,,0,,,47,95
145676,note_on,1,0,0,,0,,,59,95
145925,note_off,249,0,0,,0,,,59,95
145925,note_off,0,0,0,,1,,,71,127
145926,note_on,1,0,0,,0,,,57,95
146175,note_off,249,0,0,,0,,,57,95
146175,note_off,0,0,0,,0,,,59,95
146175,note_off,0,0,0,,0,,,63,95
146175,note_off,0,0,0,,0,,,66,95
146176,note_on,1,0,0,,0,,,64,95
146176,note_on,0,0,0,,0,,,55,95
146425,note_off,249,0,0,,0,,,55,95
146425,note_off,0,0,0,,0,,,64,95
146426,note_on,1,0,0,,0,,,69,95
146426,note_on,0,0,0,,0,,,63,95
146426,note_on,0,0,0,,0,,,54,95
146676,note_on,250,0,0,,1,,,69,127
146800,note_off,124,0,0,,0,,,69,95
146801,note_on,1,0,0,,1,,,71,127
146925,note_off,124,0,0,,1,,,71,127
146925,note_off,0,0,0,,1,,,69,127
146925,note_off,0,0,0,,0,,,54,95
146925,note_off,0,0,0,,0,,,63,95
146926,note_on,1,0,0,,1,,,72,127
147176,note_on,250,0,0,,0,,,67,95
147176,note_on,0,0,0,,0,,,52,95
147425,note_off,249,0,0,,0,,,52,95
147425,note_off,0,0,0,,0,,,67,95
147425,note_off,0,0,0,,1,,,72,127
147426,note_on,1,0,0,,0,,,66,95
147426,note_on,0,0,0,,0,,,69,95
147426,note_on,0,0,0,,0,,,51,95
147676,note_on,250,0,0,,1,,,78,127
147800,note_off,124,0,0,,1,,,78,127
147801,note_on,1,0,0,,1,,,79,127
147925,note_off,124,0,0,,1,,,79,127
147925,note_off,0,0,0,,0,,,51,95
147925,note_off,0,0,0,,0,,,69,95
147925,note_off,0,0,0,,0,,,66,95
147926,note_on,1,0,0,,1,,,81,127
148176,note_on,250,0,0,,0,,,64,95
148176,note_on,0,0,0,,0,,,69,95
148176,note_on,0,0,0,,0,,,49,95
148425,note_off,249,0,0,,0,,,49,95
148425,note_off,0,0,0,,0,,,69,95
148425,note_off,0,0,0,,0,,,64,95
148425,note_off,0,0,0,,1,,,81,127
148426,note_on,1,0,0,,0,,,71,95
148426,note_on,0,0,0,,0,,,66,95
148426,note_on,0,0,0,,0,,,69,95
148426,note_on,0,0,0,,0,,,47,95
148676,note_on,250,0,0,,1,,,75,127
148800,note_off,124,0,0,,1,,,75,127
148801,note_on,1,0,0,,1,,,76,127
148925,note_off,124,0,0,,1,,,76,127
148925,note_off,0,0,0,,0,,,47,95
148925,note_off,0,0,0,,0,,,69,95
148925,note_off,0,0,0,,0,,,66,95
148925,note_off,0,0,0,,0,,,71,95
148926,note_on,1,0,0,,1,,,78,127
149176,note_on,250,0,0,,0,,,71,95
149176,note_on,0,0,0,,0,,,59,95
149425,note_off,249,0,0,,0,,,59,95
149425,note_off,0,0,0,,0,,,71,95
149425,note_off,0,0,0,,1,,,78,127
149426,note_on,1,0,0,,0,,,75,95
149426,note_on,0,0,0,,0,,,66,95
149426,note_on,0,0,0,,0,,,57,95
149676,note_on,250,0,0,,1,,,81,127
149800,note_off,124,0,0,,1,,,81,127
149801,note_on,1,0,0,,1,,,83,127
149925,note_off,124,0,0,,1,,,83,127
149925,note_off,0,0,0,,0,,,57,95
149925,note_off,0,0,0,,0,,,66,95
149925,note_off,0,0,0,,0,,,75,95
149926,note_on,1,0,0,,1,,,84,127
150175,note_off,249,0,0,,1,,,84,127
150176,note_on,1,0,0,,1,,,83,127
150176,note_on,0,0,0,,0,,,64,95
150176,note_on,0,0,0,,0,,,55,95
150425,note_off,249,0,0,,0,,,55,95
150425,note_off,0,0,0,,0,,,64,95
150425,note_off,0,0,0,,1,,,83,127
150426,note_on,1,0,0,,1,,,75,127
150426,note_on,0,0,0,,0,,,69,95
150426,note_on,0,0,0,,0,,,71,95
150426,note_on,0,0,0,,0,,,54,95
150675,note_off,249,0,0,,1,,,75,127
150676,note_on,1,0,0,,1,,,78,127
150800,note_off,124,0,0,,1,,,78,127
150801,note_on,1,0,0,,1,,,79,127
150925,note_off,124,0,0,,1,,,79,127
150925,note_off,0,0,0,,0,,,54,95
150925,note_off,0,0,0,,0,,,71,95
150925,note_off,0,0,0,,0,,,69,95
150926,note_on,1,0,0,,1,,,81,127
151175,note_off,249,0,0,,1,,,81,127
151176,note_on,1,0,0,,1,,,79,127
151176,note_on,0,0,0,,0,,,71,95
151176,note_on,0,0,0,,0,,,52,95
151425,note_off,249,0,0,,0,,,52,95
151425,note_off,0,0,0,,0,,,71,95
151425,note_off,0,0,0,,1,,,79,127
151426,note_on,1,0,0,,1,,,71,127
151426,note_on,0,0,0,,0,,,69,95
151426,note_on,0,0,0,,0,,,66,95
151426,note_on,0,0,0,,0,,,51,95
151675,note_off,249,0,0,,1,,,71,127
151676,note_on,1,0,0,,1,,,75,127
151800,note_off,124,0,0,,1,,,75,127
151801,note_on,1,0,0,,1,,,76,127
151925,note_off,124,0,0,,1,,,76,127
151925,note_off,0,0,0,,0,,,51,95
151925,note_off,0,0,0,,0,,,66,95
151925,note_off,0,0,0,,0,,,69,95
151926,note_on,1,0,0,,1,,,78,127
152175,note_off,249,0,0,,1,,,78,127
152176,note_on,1,0,0,,1,,,76,127
152176,note_on,0,0,0,,0,,,71,95
152176,note_on,0,0,0,,0,,,49,95
152425,note_off,249,0,0,,0,,,49,95
152425,note_off,0,0,0,,0,,,71,95
152425,note_off,0,0,0,,1,,,76,127
152426,note_on,1,0,0,,1,,,69,127
152426,note_on,0,0,0,,0,,,66,95
152426,note_on,0,0,0,,0,,,47,95
152675,note_off,249,0,0,,0,,,47,95
152676,note_on,1,0,0,,0,,,63,95
152676,note_on,0,0,0,,0,,,47,95
152925,note_off,249,0,0,,0,,,47,95
152925,note_off,0,0,0,,0,,,63,95
152925,note_off,0,0,0,,0,,,66,95
152925,note_off,0,0,0,,1,,,69,127
152926,note_on,1,0,0,,1,,,81,127
152926,note_on,0,0,0,,0,,,64,95
152926,note_on,0,0,0,,0,,,49,95
153175,note_off,249,0,0,,0,,,49,95
153175,note_off,0,0,0,,0,,,64,95
153176,note_on,1,0,0,,0,,,66,95
153176,note_on,0,0,0,,0,,,51,95
153425,note_off,249,0,0,,0,,,51,95
153425,note_off,0,0,0,,0,,,66,95
153425,note_off,0,0,0,,1,,,81,127
153426,note_on,1,0,0,,1,,,79,127
153426,note_on,0,0,0,,0,,,71,95
153426,note_on,0,0,0,,0,,,67,95
153426,note_on,0,0,0,,0,,,64,95
153426,note_on,0,0,0,,0,,,52,95
153675,note_off,249,0,0,,0,,,52,95
153675,note_off,0,0,0,,1,,,79,127
153676,note_on,1,0,0,,1,,,78,127
153676,note_on,0,0,0,,0,,,55,95
153800,note_off,124,0,0,,1,,,78,127
153801,note_on,1,0,0,,1,,,76,127
153925,note_off,124,0,0,,1,,,76,127
153925,note_off,0,0,0,,0,,,55,95
153925,note_off,0,0,0,,0,,,64,95
153925,note_off,0,0,0,,0,,,67,95
153925,note_off,0,0,0,,0,,,71,95
153926,note_on,1,0,0,,1,,,78,127
153926,note_on,0,0,0,,0,,,66,95
153926,note_on,0,0,0,,0,,,64,95
153926,note_on,0,0,0,,0,,,57,95
154175,note_off,249,0,0,,0,,,57,95
154175,note_off,0,0,0,,1,,,78,127
154176,note_on,1,0,0,,1,,,76,127
154176,note_on,0,0,0,,0,,,59,95
154300,note_off,124,0,0,,1,,,76,127
154301,note_on,1,0,0,,1,,,75,127
154425,note_off,124,0,0,,1,,,75,127
154425,note_off,0,0,0,,0,,,59,95
154425,note_off,0,0,0,,0,,,64,95
154425,note_off,0,0,0,,0,,,66,95
154426,note_on,1,0,0,,1,,,76,127
154426,note_on,0,0,0,,0,,,67,95
154426,note_on,0,0,0,,0,,,60,95
154675,note_off,249,0,0,,0,,,60,95
154675,note_off,0,0,0,,0,,,67,95
154676,note_on,1,0,0,,0,,,71,95
154676,note_on,0,0,0,,0,,,64,95
154676,note_on,0,0,0,,0,,,55,95
154925,note_off,249,0,0,,0,,,55,95
154925,note_off,0,0,0,,0,,,71,95
154925,note_off,0,0,0,,1,,,76,127
154926,note_on,1,0,0,,1,,,78,127
154926,note_on,0,0,0,,0,,,72,95
154926,note_on,0,0,0,,0,,,57,95
155175,note_off,249,0,0,,0,,,57,95
155175,note_off,0,0,0,,0,,,72,95
155175,note_off,0,0,0,,1,,,78,127
155175,note_off,0,0,0,,0,,,64,95
155176,note_on,1,0,0,,1,,,76,127
155176,note_on,0,0,0,,0,,,69,95
155176,note_on,0,0,0,,0,,,59,95
155300,note_off,124,0,0,,1,,,76,127
155301,note_on,1,0,0,,1,,,75,127
155425,note_off,124,0,0,,1,,,75,127
155425,note_off,0,0,0,,0,,,59,95
155425,note_off,0,0,0,,0,,,69,95
155426,note_on,1,0,0,,1,,,76,127
155426,note_on,0,0,0,,0,,,67,95
155426,note_on,0,0,0,,0,,,60,95
155675,note_off,249,0,0,,0,,,60,95
155675,note_off,0,0,0,,0,,,67,95
155676,note_on,1,0,0,,0,,,71,95
155676,note_on,0,0,0,,0,,,64,95
155676,note_on,0,0,0,,0,,,55,95
155925,note_off,249,0,0,,0,,,55,95
155925,note_off,0,0,0,,0,,,71,95
155925,note_off,0,0,0,,1,,,76,127
155926,note_on,1,0,0,,1,,,78,127
155926,note_on,0,0,0,,0,,,72,95
155926,note_on,0,0,0,,0,,,57,95
156175,note_off,249,0,0,,0,,,57,95
156175,note_off,0,0,0,,0,,,72,95
156175,note_off,0,0,0,,1,,,78,127
156175,note_off,0,0,0,,0,,,64,95
156176,note_on,1,0,0,,1,,,76,127
156176,note_on,0,0,0,,0,,,66,95
156176,note_on,0,0,0,,0,,,59,95
156300,note_off,124,0,0,,1,,,76,127
156301,note_on,1,0,0,,1,,,75,127
156425,note_off,124,0,0,,1,,,75,127
156425,note_off,0,0,0,,0,,,59,95
156425,note_off,0,0,0,,0,,,66,95
156426,note_on,1,0,0,,1,,,76,127
156426,note_on,0,0,0,,0,,,71,95
156426,note_on,0,0,0,,0,,,67,95
156426,note_on,0,0,0,,0,,,64,95
156426,note_on,0,0,0,,0,,,55,95
156675,note_off,249,0,0,,1,,,76,127
156676,note_on,1,0,0,,1,,,74,127
156800,note_off,124,0,0,,1,,,74,127
156801,note_on,1,0,0,,1,,,72,127
156925,note_off,124,0,0,,1,,,72,127
156925,note_off,0,0,0,,0,,,55,95
156925,note_off,0,0,0,,0,,,64,95
156925,note_off,0,0,0,,0,,,67,95
156925,note_off,0,0,0,,0,,,71,95
156926,note_on,1,0,0,,1,,,71,127
157175,note_off,249,0,0,,1,,,71,127
157176,note_on,1,0,0,,1,,,69,127
157176,note_on,0,0,0,,0,,,60,95
157176,note_on,0,0,0,,0,,,57,95
157425,note_off,249,0,0,,0,,,57,95
157425,note_off,0,0,0,,0,,,60,95
157425,note_off,0,0,0,,1,,,69,127
157426,note_on,1,0,0,,1,,,67,127
157426,note_on,0,0,0,,0,,,71,95
157426,note_on,0,0,0,,0,,,67,95
157426,note_on,0,0,0,,0,,,64,95
157426,note_on,0,0,0,,0,,,59,95
157926,note_off,500,0,0,,0,,,59,95
157926,note_off,0,0,0,,0,,,64,95
157926,note_off,0,0,0,,0,,,67,95
157926,note_off,0,0,0,,0,,,71,95
157926,note_off,0,0,0,,1,,,67,127
157927,note_on,1,0,0,,1,,,66,127
157927,note_on,0,0,0,,0,,,71,95
157927,note_on,0,0,0,,0,,,66,95
157927,note_on,0,0,0,,0,,,63,95
157927,note_on,0,0,0,,0,,,47,95
158427,note_off,500,0,0,,0,,,47,95
158427,note_off,0,0,0,,0,,,63,95
158427,note_off,0,0,0,,0,,,66,95
158427,note_off,0,0,0,,0,,,71,95
158427,note_off,0,0,0,,1,,,66,127
158428,note_on,1,0,0,,1,,,64,127
158428,note_on,0,0,0,,0,,,64,95
158428,note_on,0,0,0,,0,,,55,95
158428,note_on,0,0,0,,0,,,59,95
158428,note_on,0,0,0,,0,,,52,95
158677,note_off,249,0,0,,1,,,64,127
158678,note_on,1,0,0,,1,,,67,127
158802,note_off,124,0,0,,1,,,67,127
158803,note_on,1,0,0,,1,,,69,127
158927,note_off,124,0,0,,1,,,69,127
158927,note_off,0,0,0,,0,,,52,95
158927,note_off,0,0,0,,0,,,59,95
158927,note_off,0,0,0,,0,,,55,95
158927,note_off,0,0,0,,0,,,64,95
158928,note_on,1,0,0,,1,,,71,127
159177,note_off,249,0,0,,1,,,71,127
159178,note_on,1,0,0,,1,,,73,127
159178,note_on,0,0,0,,0,,,59,95
159178,note_on,0,0,0,,0,,,47,95
159302,note_off,124,0,0,,1,,,73,127
159303,note_on,1,0,0,,1,,,75,127
159427,note_off,124,0,0,,1,,,75,127
159427,note_off,0,0,0,,0,,,47,95
159427,note_off,0,0,0,,0,,,59,95
159428,note_on,1,0,0,,1,,,76,127
159428,note_on,0,0,0,,0,,,64,95
159428,note_on,0,0,0,,0,,,52,95
159689,note_off,261,0,0,,0,,,52,95
159689,note_off,0,0,0,,0,,,64,95
159689,note_off,0,0,0,,1,,,76,127
159690,note_on,1,0,0,,1,,,67,127
159690,note_on,0,0,0,,0,,,55,95
159690,note_on,0,0,0,,0,,,43,95
159951,note_off,261,0,0,,0,,,43,95
159951,note_off,0,0,0,,0,,,55,95
159951,note_off,0,0,0,,1,,,67,127
159952,note_on,1,0,0,,1,,,69,127
159952,note_on,0,0,0,,0,,,57,95
159952,note_on,0,0,0,,0,,,45,95
160239,note_off,287,0,0,,0,,,45,95
160239,note_off,0,0,0,,0,,,57,95
160239,note_off,0,0,0,,1,,,69,127
160240,note_on,1,0,0,,1,,,71,127
160240,note_on,0,0,0,,0,,,59,95
160240,note_on,0,0,0,,0,,,47,95
160527,note_off,287,0,0,,0,,,47,95
160527,note_off,0,0,0,,0,,,59,95
160527,note_off,0,0,0,,1,,,71,127
160544,note_on,17,0,0,,0,,,40,95
160544,note_on,0,0,0,,0,,,52,95
160544,note_on,0,0,0,,1,,,64,127
162143,note_off,1599,0,0,,1,,,64,127
162143,note_off,0,0,0,,0,,,52,95
162143,note_off,0,0,0,,0,,,40,95
164384,note_on,2241,0,0,,0,,,52,95
164384,note_on,0,0,0,,0,,,59,95
164597,note_on,213,0,0,,0,,,64,95
164809,note_off,212,0,0,,0,,,59,95
164810,note_on,1,0,0,,0,,,67,95
164810,note_on,0,0,0,,1,,,71,127
165022,note_off,212,0,0,,0,,,64,95
165235,note_off,213,0,0,,1,,,71,127
165235,note_off,0,0,0,,0,,,67,95
165235,note_off,0,0,0,,0,,,52,95
165236,note_on,1,0,0,,0,,,52,95
165236,note_on,0,0,0,,0,,,64,95
165236,note_on,0,0,0,,1,,,71,127
165449,note_on,213,0,0,,0,,,67,95
165661,note_off,212,0,0,,1,,,71,127
165661,note_off,0,0,0,,0,,,64,95
165662,note_on,1,0,0,,0,,,71,95
165662,note_on,0,0,0,,1,,,76,127
165874,note_off,212,0,0,,0,,,67,95
166087,note_off,213,0,0,,1,,,76,127
166087,note_off,0,0,0,,0,,,71,95
166087,note_off,0,0,0,,0,,,52,95
166088,note_on,1,0,0,,0,,,52,95
166088,note_on,0,0,0,,0,,,59,95
166088,note_on,0,0,0,,1,,,72,127
166301,note_on,213,0,0,,0,,,64,95
166513,note_off,212,0,0,,1,,,72,127
166513,note_off,0,0,0,,0,,,59,95
166514,note_on,1,0,0,,0,,,67,95
166514,note_on,0,0,0,,1,,,71,127
166726,note_off,212,0,0,,0,,,64,95
166939,note_off,213,0,0,,1,,,71,127
166939,note_off,0,0,0,,0,,,67,95
166939,note_off,0,0,0,,0,,,52,95
166940,note_on,1,0,0,,0,,,54,95
166940,note_on,0,0,0,,0,,,59,95
167153,note_on,213,0,0,,0,,,63,95
167365,note_off,212,0,0,,0,,,59,95
167366,note_on,1,0,0,,0,,,66,95
167366,note_on,0,0,0,,1,,,69,127
167578,note_off,212,0,0,,0,,,63,95
167791,note_off,213,0,0,,1,,,69,127
167791,note_off,0,0,0,,0,,,66,95
167791,note_off,0,0,0,,0,,,54,95
167792,note_on,1,0,0,,0,,,51,95
167792,note_on,0,0,0,,0,,,59,95
167792,note_on,0,0,0,,1,,,69,127
168005,note_on,213,0,0,,0,,,66,95
168217,note_off,212,0,0,,1,,,69,127
168217,note_off,0,0,0,,0,,,59,95
168218,note_on,1,0,0,,0,,,69,95
168218,note_on,0,0,0,,1,,,78,127
168430,note_off,212,0,0,,0,,,66,95
168643,note_off,213,0,0,,1,,,78,127
168643,note_off,0,0,0,,0,,,69,95
168643,note_off,0,0,0,,0,,,51,95
168644,note_on,1,0,0,,0,,,47,95
168644,note_on,0,0,0,,0,,,59,95
168644,note_on,0,0,0,,1,,,71,127
168857,note_on,213,0,0,,0,,,63,95
169069,note_off,212,0,0,,1,,,71,127
169069,note_off,0,0,0,,0,,,59,95
169070,note_on,1,0,0,,0,,,66,95
169070,note_on,0,0,0,,1,,,69,127
169282,note_off,212,0,0,,0,,,63,95
169495,note_off,213,0,0,,1,,,69,127
169495,note_off,0,0,0,,0,,,66,95
169495,note_off,0,0,0,,0,,,47,95
169496,note_on,1,0,0,,0,,,52,95
169496,note_on,0,0,0,,0,,,59,95
169709,note_on,213,0,0,,0,,,64,95
169921,note_off,212,0,0,,0,,,59,95
169922,note_on,1,0,0,,0,,,67,95
169922,note_on,0,0,0,,1,,,67,127
170134,note_off,212,0,0,,0,,,64,95
170347,note_off,213,0,0,,1,,,67,127
170347,note_off,0,0,0,,0,,,67,95
170347,note_off,0,0,0,,0,,,52,95
170348,note_on,1,0,0,,0,,,55,95
170348,note_on,0,0,0,,0,,,64,95
170348,note_on,0,0,0,,1,,,67,127
170561,note_on,213,0,0,,0,,,67,95
170773,note_off,212,0,0,,1,,,67,127
170773,note_off,0,0,0,,0,,,64,95
170774,note_on,1,0,0,,0,,,71,95
170774,note_on,0,0,0,,1,,,76,127
170986,note_off,212,0,0,,0,,,67,95
171199,note_off,213,0,0,,1,,,76,127
171199,note_off,0,0,0,,0,,,71,95
171199,note_off,0,0,0,,0,,,55,95
171200,note_on,1,0,0,,0,,,57,95
171200,note_on,0,0,0,,0,,,60,95
171200,note_on,0,0,0,,1,,,69,127
171413,note_on,213,0,0,,0,,,64,95
171625,note_off,212,0,0,,1,,,69,127
171625,note_off,0,0,0,,0,,,60,95
171626,note_on,1,0,0,,0,,,67,95
171626,note_on,0,0,0,,1,,,67,127
171838,note_off,212,0,0,,0,,,64,95
172051,note_off,213,0,0,,1,,,67,127
172051,note_off,0,0,0,,0,,,67,95
172051,note_off,0,0,0,,0,,,57,95
172052,note_on,1,0,0,,0,,,59,95
172052,note_on,0,0,0,,1,,,67,127
172265,note_on,213,0,0,,0,,,63,95
172477,note_off,212,0,0,,1,,,67,127
172478,note_on,1,0,0,,0,,,66,95
172478,note_on,0,0,0,,1,,,66,127
172690,note_off,212,0,0,,0,,,63,95
172903,note_off,213,0,0,,1,,,66,127
172903,note_off,0,0,0,,0,,,66,95
172903,note_off,0,0,0,,0,,,59,95
172904,note_on,1,0,0,,0,,,47,95
172904,note_on,0,0,0,,0,,,59,95
173117,note_on,213,0,0,,0,,,62,95
173329,note_off,212,0,0,,0,,,59,95
173330,note_on,1,0,0,,0,,,66,95
173330,note_on,0,0,0,,1,,,74,127
173542,note_off,212,0,0,,0,,,62,95
173755,note_off,213,0,0,,1,,,74,127
173755,note_off,0,0,0,,0,,,66,95
173755,note_off,0,0,0,,0,,,47,95
173756,note_on,1,0,0,,0,,,50,95
173756,note_on,0,0,0,,0,,,62,95
173756,note_on,0,0,0,,1,,,71,127
173969,note_on,213,0,0,,0,,,66,95
174181,note_off,212,0,0,,1,,,71,127
174181,note_off,0,0,0,,0,,,62,95
174182,note_on,1,0,0,,0,,,71,95
174182,note_on,0,0,0,,1,,,69,127
174394,note_off,212,0,0,,0,,,66,95
174607,note_off,213,0,0,,1,,,69,127
174607,note_off,0,0,0,,0,,,71,95
174607,note_off,0,0,0,,0,,,50,95
174608,note_on,1,0,0,,0,,,52,95
174608,note_on,0,0,0,,0,,,59,95
174608,note_on,0,0,0,,1,,,69,127
174821,note_on,213,0,0,,0,,,64,95
175033,note_off,212,0,0,,1,,,69,127
175033,note_off,0,0,0,,0,,,59,95
175034,note_on,1,0,0,,0,,,68,95
175034,note_on,0,0,0,,1,,,68,127
175246,note_off,212,0,0,,0,,,64,95
175459,note_off,213,0,0,,1,,,68,127
175459,note_off,0,0,0,,0,,,68,95
175459,note_off,0,0,0,,0,,,52,95
175460,note_on,1,0,0,,0,,,52,95
175460,note_on,0,0,0,,0,,,64,95
175673,note_on,213,0,0,,0,,,68,95
175885,note_off,212,0,0,,0,,,64,95
175886,note_on,1,0,0,,0,,,71,95
175886,note_on,0,0,0,,1,,,76,127
176098,note_off,212,0,0,,0,,,68,95
176311,note_off,213,0,0,,1,,,76,127
176311,note_off,0,0,0,,0,,,71,95
176311,note_off,0,0,0,,0,,,52,95
176312,note_on,1,0,0,,0,,,50,95
176312,note_on,0,0,0,,0,,,59,95
176312,note_on,0,0,0,,1,,,72,127
176525,note_on,213,0,0,,0,,,64,95
176737,note_off,212,0,0,,1,,,72,127
176737,note_off,0,0,0,,0,,,59,95
176738,note_on,1,0,0,,0,,,68,95
176738,note_on,0,0,0,,1,,,71,127
176950,note_off,212,0,0,,0,,,64,95
177163,note_off,213,0,0,,1,,,71,127
177163,note_off,0,0,0,,0,,,68,95
177163,note_off,0,0,0,,0,,,50,95
177164,note_on,1,0,0,,0,,,48,95
177164,note_on,0,0,0,,0,,,60,95
177164,note_on,0,0,0,,1,,,71,127
177377,note_on,213,0,0,,0,,,64,95
177589,note_off,212,0,0,,1,,,71,127
177589,note_off,0,0,0,,0,,,60,95
177590,note_on,1,0,0,,0,,,69,95
177590,note_on,0,0,0,,1,,,69,127
177802,note_off,212,0,0,,0,,,64,95
178015,note_off,213,0,0,,1,,,69,127
178015,note_off,0,0,0,,0,,,69,95
178015,note_off,0,0,0,,0,,,48,95
178016,note_on,1,0,0,,0,,,45,95
178016,note_on,0,0,0,,0,,,60,95
178229,note_on,213,0,0,,0,,,64,95
178441,note_off,212,0,0,,0,,,60,95
178442,note_on,1,0,0,,0,,,69,95
178442,note_on,0,0,0,,1,,,72,127
178654,note_off,212,0,0,,0,,,64,95
178867,note_off,213,0,0,,1,,,72,127
178867,note_off,0,0,0,,0,,,69,95
178867,note_off,0,0,0,,0,,,45,95
178868,note_on,1,0,0,,0,,,48,95
178868,note_on,0,0,0,,0,,,60,95
178868,note_on,0,0,0,,1,,,69,127
179081,note_on,213,0,0,,0,,,64,95
179293,note_off,212,0,0,,1,,,69,127
179293,note_off,0,0,0,,0,,,60,95
179294,note_on,1,0,0,,0,,,69,95
179294,note_on,0,0,0,,1,,,67,127
179506,note_off,212,0,0,,0,,,64,95
179719,note_off,213,0,0,,1,,,67,127
179719,note_off,0,0,0,,0,,,69,95
179719,note_off,0,0,0,,0,,,48,95
179720,note_on,1,0,0,,0,,,50,95
179720,note_on,0,0,0,,0,,,60,95
179720,note_on,0,0,0,,1,,,67,127
179933,note_on,213,0,0,,0,,,62,95
180145,note_off,212,0,0,,1,,,67,127
180145,note_off,0,0,0,,0,,,60,95
180146,note_on,1,0,0,,0,,,66,95
180146,note_on,0,0,0,,1,,,66,127
180358,note_off,212,0,0,,0,,,62,95
180571,note_off,213,0,0,,1,,,66,127
180571,note_off,0,0,0,,0,,,66,95
180571,note_off,0,0,0,,0,,,50,95
180572,note_on,1,0,0,,0,,,62,95
180785,note_on,213,0,0,,0,,,66,95
180998,note_on,213,0,0,,0,,,69,95
180998,note_on,0,0,0,,1,,,76,127
181210,note_off,212,0,0,,0,,,66,95
181423,note_off,213,0,0,,1,,,76,127
181423,note_off,0,0,0,,0,,,69,95
181423,note_off,0,0,0,,0,,,62,95
181424,note_on,1,0,0,,0,,,60,95
181424,note_on,0,0,0,,1,,,74,127
181637,note_on,213,0,0,,0,,,66,95
181849,note_off,212,0,0,,1,,,74,127
181850,note_on,1,0,0,,0,,,69,95
181850,note_on,0,0,0,,1,,,66,127
182062,note_off,212,0,0,,0,,,66,95
182275,note_off,213,0,0,,1,,,66,127
182275,note_off,0,0,0,,0,,,69,95
182275,note_off,0,0,0,,0,,,60,95
182276,note_on,1,0,0,,0,,,59,95
182276,note_on,0,0,0,,1,,,66,127
182489,note_on,213,0,0,,0,,,62,95
182701,note_off,212,0,0,,1,,,66,127
182702,note_on,1,0,0,,0,,,67,95
182702,note_on,0,0,0,,1,,,67,127
182914,note_off,212,0,0,,0,,,62,95
183127,note_off,213,0,0,,1,,,67,127
183127,note_off,0,0,0,,0,,,67,95
183127,note_off,0,0,0,,0,,,59,95
183128,note_on,1,0,0,,0,,,55,95
183128,note_on,0,0,0,,0,,,59,95
183341,note_on,213,0,0,,0,,,62,95
183553,note_off,212,0,0,,0,,,59,95
183554,note_on,1,0,0,,0,,,67,95
183554,note_on,0,0,0,,1,,,74,127
183766,note_off,212,0,0,,0,,,62,95
183979,note_off,213,0,0,,1,,,74,127
183979,note_off,0,0,0,,0,,,67,95
183979,note_off,0,0,0,,0,,,55,95
183980,note_on,1,0,0,,0,,,43,95
183980,note_on,0,0,0,,0,,,62,95
183980,note_on,0,0,0,,1,,,79,127
184193,note_on,213,0,0,,0,,,67,95
184405,note_off,212,0,0,,1,,,79,127
184405,note_off,0,0,0,,0,,,62,95
184406,note_on,1,0,0,,0,,,71,95
184406,note_on,0,0,0,,1,,,78,127
184618,note_off,212,0,0,,0,,,67,95
184831,note_off,213,0,0,,1,,,78,127
184831,note_off,0,0,0,,0,,,71,95
184831,note_off,0,0,0,,0,,,43,95
184832,note_on,1,0,0,,0,,,55,95
184832,note_on,0,0,0,,0,,,64,95
184832,note_on,0,0,0,,1,,,76,127
184938,note_off,106,0,0,,1,,,76,127
184939,note_on,1,0,0,,1,,,74,127
185045,note_off,106,0,0,,1,,,74,127
185046,note_on,1,0,0,,0,,,67,95
185046,note_on,0,0,0,,1,,,76,127
185258,note_off,212,0,0,,0,,,64,95
185259,note_on,1,0,0,,0,,,71,95
185471,note_off,212,0,0,,0,,,67,95
185684,note_off,213,0,0,,0,,,71,95
185684,note_off,0,0,0,,1,,,76,127
185685,note_on,1,0,0,,0,,,64,95
185685,note_on,0,0,0,,1,,,74,127
185791,note_off,106,0,0,,1,,,74,127
185792,note_on,1,0,0,,1,,,73,127
185898,note_off,106,0,0,,1,,,73,127
185899,note_on,1,0,0,,0,,,67,95
185899,note_on,0,0,0,,1,,,74,127
186111,note_off,212,0,0,,0,,,64,95
186112,note_on,1,0,0,,0,,,71,95
186324,note_off,212,0,0,,0,,,67,95
186537,note_off,213,0,0,,0,,,71,95
186537,note_off,0,0,0,,1,,,74,127
186538,note_on,1,0,0,,0,,,64,95
186538,note_on,0,0,0,,1,,,73,127
186751,note_on,213,0,0,,0,,,67,95
186963,note_off,212,0,0,,0,,,64,95
186964,note_on,1,0,0,,0,,,69,95
187176,note_off,212,0,0,,0,,,67,95
187389,note_off,213,0,0,,0,,,69,95
187389,note_off,0,0,0,,1,,,73,127
187389,note_off,0,0,0,,0,,,55,95
187390,note_on,1,0,0,,0,,,54,95
187390,note_on,0,0,0,,0,,,62,95
187390,note_on,0,0,0,,1,,,73,127
187603,note_on,213,0,0,,0,,,66,95
187815,note_off,212,0,0,,1,,,73,127
187815,note_off,0,0,0,,0,,,62,95
187816,note_on,1,0,0,,0,,,69,95
187816,note_on,0,0,0,,1,,,74,127
188028,note_off,212,0,0,,0,,,66,95
188241,note_off,213,0,0,,1,,,74,127
188241,note_off,0,0,0,,0,,,69,95
188241,note_off,0,0,0,,0,,,54,95
188242,note_on,1,0,0,,0,,,54,95
188242,note_on,0,0,0,,0,,,62,95
188455,note_on,213,0,0,,0,,,69,95
188667,note_off,212,0,0,,0,,,62,95
188668,note_on,1,0,0,,0,,,74,95
188668,note_on,0,0,0,,1,,,74,127
188880,note_off,212,0,0,,0,,,69,95
189093,note_off,213,0,0,,1,,,74,127
189093,note_off,0,0,0,,0,,,74,95
189093,note_off,0,0,0,,0,,,54,95
189094,note_on,1,0,0,,0,,,55,95
189094,note_on,0,0,0,,0,,,62,95
189094,note_on,0,0,0,,1,,,81,127
189307,note_on,213,0,0,,0,,,67,95
189519,note_off,212,0,0,,1,,,81,127
189519,note_off,0,0,0,,0,,,62,95
189520,note_on,1,0,0,,0,,,71,95
189520,note_on,0,0,0,,1,,,79,127
189732,note_off,212,0,0,,0,,,67,95
189945,note_off,213,0,0,,1,,,79,127
189945,note_off,0,0,0,,0,,,71,95
189945,note_off,0,0,0,,0,,,55,95
189946,note_on,1,0,0,,0,,,57,95
189946,note_on,0,0,0,,0,,,66,95
189946,note_on,0,0,0,,1,,,78,127
190052,note_off,106,0,0,,1,,,78,127
190053,note_on,1,0,0,,1,,,76,127
190159,note_off,106,0,0,,1,,,76,127
190160,note_on,1,0,0,,0,,,69,95
190160,note_on,0,0,0,,1,,,78,127
190372,note_off,212,0,0,,0,,,66,95
190373,note_on,1,0,0,,0,,,72,95
190585,note_off,212,0,0,,0,,,69,95
190798,note_off,213,0,0,,0,,,72,95
190798,note_off,0,0,0,,1,,,78,127
190799,note_on,1,0,0,,0,,,66,95
190799,note_on,0,0,0,,1,,,76,127
190905,note_off,106,0,0,,1,,,76,127
190906,note_on,1,0,0,,1,,,75,127
191012,note_off,106,0,0,,1,,,75,127
191013,note_on,1,0,0,,0,,,69,95
191013,note_on,0,0,0,,1,,,76,127
191225,note_off,212,0,0,,0,,,66,95
191226,note_on,1,0,0,,0,,,72,95
191438,note_off,212,0,0,,0,,,69,95
191651,note_off,213,0,0,,0,,,72,95
191651,note_off,0,0,0,,1,,,76,127
191652,note_on,1,0,0,,0,,,66,95
191652,note_on,0,0,0,,1,,,75,127
191865,note_on,213,0,0,,0,,,69,95
192077,note_off,212,0,0,,0,,,66,95
192078,note_on,1,0,0,,0,,,71,95
192290,note_off,212,0,0,,0,,,69,95
192503,note_off,213,0,0,,0,,,71,95
192503,note_off,0,0,0,,1,,,75,127
192503,note_off,0,0,0,,0,,,57,95
192504,note_on,1,0,0,,0,,,55,95
192504,note_on,0,0,0,,0,,,64,95
192504,note_on,0,0,0,,1,,,75,127
192717,note_on,213,0,0,,0,,,71,95
192929,note_off,212,0,0,,1,,,75,127
192929,note_off,0,0,0,,0,,,64,95
192930,note_on,1,0,0,,0,,,76,95
192930,note_on,0,0,0,,1,,,76,127
193142,note_off,212,0,0,,0,,,71,95
193355,note_off,213,0,0,,1,,,76,127
193355,note_off,0,0,0,,0,,,76,95
193355,note_off,0,0,0,,0,,,55,95
193356,note_on,1,0,0,,0,,,55,95
193356,note_on,0,0,0,,0,,,64,95
193569,note_on,213,0,0,,0,,,67,95
193781,note_off,212,0,0,,0,,,64,95
193782,note_on,1,0,0,,0,,,71,95
193782,note_on,0,0,0,,1,,,76,127
193994,note_off,212,0,0,,0,,,67,95
194207,note_off,213,0,0,,1,,,76,127
194207,note_off,0,0,0,,0,,,71,95
194207,note_off,0,0,0,,0,,,55,95
194208,note_on,1,0,0,,0,,,54,95
194208,note_on,0,0,0,,0,,,62,95
194208,note_on,0,0,0,,1,,,73,127
194208,note_on,0,0,0,,1,,,76,127
194421,note_on,213,0,0,,0,,,69,95
194633,note_off,212,0,0,,1,,,76,127
194633,note_off,0,0,0,,1,,,73,127
194633,note_off,0,0,0,,0,,,62,95
194634,note_on,1,0,0,,0,,,74,95
194634,note_on,0,0,0,,1,,,74,127
194846,note_off,212,0,0,,0,,,69,95
195059,note_off,213,0,0,,1,,,74,127
195059,note_off,0,0,0,,0,,,74,95
195059,note_off,0,0,0,,0,,,54,95
195060,note_on,1,0,0,,0,,,52,95
195060,note_on,0,0,0,,0,,,64,95
195060,note_on,0,0,0,,1,,,71,127
195060,note_on,0,0,0,,1,,,74,127
195273,note_on,213,0,0,,0,,,67,95
195485,note_off,212,0,0,,1,,,74,127
195485,note_off,0,0,0,,1,,,71,127
195485,note_off,0,0,0,,0,,,64,95
195486,note_on,1,0,0,,0,,,72,95
195486,note_on,0,0,0,,1,,,72,127
195698,note_off,212,0,0,,0,,,67,95
195911,note_off,213,0,0,,1,,,72,127
195911,note_off,0,0,0,,0,,,72,95
195911,note_off,0,0,0,,0,,,52,95
195912,note_on,1,0,0,,0,,,50,95
195912,note_on,0,0,0,,0,,,62,95
195912,note_on,0,0,0,,1,,,69,127
195912,note_on,0,0,0,,1,,,72,127
196125,note_on,213,0,0,,0,,,66,95
196337,note_off,212,0,0,,1,,,72,127
196337,note_off,0,0,0,,1,,,69,127
196337,note_off,0,0,0,,0,,,62,95
196338,note_on,1,0,0,,0,,,71,95
196338,note_on,0,0,0,,1,,,71,127
196550,note_off,212,0,0,,0,,,66,95
196763,note_off,213,0,0,,1,,,71,127
196763,note_off,0,0,0,,0,,,71,95
196763,note_off,0,0,0,,0,,,50,95
196764,note_on,1,0,0,,0,,,48,95
196764,note_on,0,0,0,,0,,,60,95
196764,note_on,0,0,0,,1,,,68,127
196764,note_on,0,0,0,,1,,,71,127
196977,note_on,213,0,0,,0,,,64,95
197189,note_off,212,0,0,,1,,,71,127
197189,note_off,0,0,0,,1,,,68,127
197189,note_off,0,0,0,,0,,,60,95
197190,note_on,1,0,0,,0,,,69,95
197190,note_on,0,0,0,,1,,,69,127
197402,note_off,212,0,0,,0,,,64,95
197615,note_off,213,0,0,,1,,,69,127
197615,note_off,0,0,0,,0,,,69,95
197615,note_off,0,0,0,,0,,,48,95
197616,note_on,1,0,0,,0,,,47,95
197616,note_on,0,0,0,,0,,,59,95
197616,note_on,0,0,0,,1,,,69,127
197829,note_on,213,0,0,,0,,,63,95
198041,note_off,212,0,0,,0,,,59,95
198042,note_on,1,0,0,,0,,,66,95
198254,note_off,212,0,0,,0,,,63,95
198467,note_off,213,0,0,,0,,,66,95
198467,note_off,0,0,0,,1,,,69,127
198467,note_off,0,0,0,,0,,,47,95
198468,note_on,1,0,0,,0,,,47,95
198468,note_on,0,0,0,,0,,,63,95
198681,note_on,213,0,0,,0,,,66,95
198893,note_off,212,0,0,,0,,,63,95
198894,note_on,1,0,0,,0,,,69,95
198894,note_on,0,0,0,,1,,,78,127
199106,note_off,212,0,0,,0,,,66,95
199319,note_off,213,0,0,,1,,,78,127
199319,note_off,0,0,0,,0,,,69,95
199319,note_off,0,0,0,,0,,,47,95
199320,note_on,1,0,0,,0,,,51,95
199320,note_on,0,0,0,,0,,,59,95
199320,note_on,0,0,0,,1,,,71,127
199533,note_on,213,0,0,,0,,,66,95
199745,note_off,212,0,0,,1,,,71,127
199745,note_off,0,0,0,,0,,,59,95
199746,note_on,1,0,0,,0,,,69,95
199746,note_on,0,0,0,,1,,,69,127
199958,note_off,212,0,0,,0,,,66,95
200171,note_off,213,0,0,,1,,,69,127
200171,note_off,0,0,0,,0,,,69,95
200171,note_off,0,0,0,,0,,,51,95
200172,note_on,1,0,0,,0,,,52,95
200172,note_on,0,0,0,,0,,,59,95
200172,note_on,0,0,0,,1,,,67,127
200385,note_on,213,0,0,,0,,,64,95
200597,note_off,212,0,0,,1,,,67,127
200597,note_off,0,0,0,,0,,,59,95
200598,note_on,1,0,0,,0,,,67,95
200598,note_on,0,0,0,,1,,,71,127
200810,note_off,212,0,0,,0,,,64,95
201023,note_off,213,0,0,,1,,,71,127
201023,note_off,0,0,0,,0,,,67,95
201023,note_off,0,0,0,,0,,,52,95
201024,note_on,1,0,0,,0,,,55,95
201024,note_on,0,0,0,,0,,,64,95
201024,note_on,0,0,0,,1,,,76,127
201237,note_on,213,0,0,,0,,,67,95
201449,note_off,212,0,0,,1,,,76,127
201449,note_off,0,0,0,,0,,,64,95
201450,note_on,1,0,0,,0,,,71,95
201450,note_on,0,0,0,,1,,,83,127
201662,note_off,212,0,0,,0,,,67,95
201875,note_off,213,0,0,,1,,,83,127
201875,note_off,0,0,0,,0,,,71,95
201875,note_off,0,0,0,,0,,,55,95
201876,note_on,1,0,0,,0,,,43,95
201876,note_on,0,0,0,,0,,,64,95
201876,note_on,0,0,0,,1,,,76,127
202089,note_on,213,0,0,,0,,,67,95
202301,note_off,212,0,0,,1,,,76,127
202301,note_off,0,0,0,,0,,,64,95
202302,note_on,1,0,0,,0,,,71,95
202302,note_on,0,0,0,,1,,,74,127
202514,note_off,212,0,0,,0,,,67,95
202727,note_off,213,0,0,,1,,,74,127
202727,note_off,0,0,0,,0,,,71,95
202727,note_off,0,0,0,,0,,,43,95
202728,note_on,1,0,0,,0,,,45,95
202728,note_on,0,0,0,,0,,,60,95
202728,note_on,0,0,0,,1,,,72,127
202844,note_on,116,0,0,,1,,,71,127
202861,note_off,17,0,0,,1,,,72,127
202942,note_on,81,0,0,,0,,,64,95
202960,note_on,18,0,0,,1,,,69,127
202977,note_off,17,0,0,,1,,,71,127
203155,note_off,178,0,0,,0,,,60,95
203156,note_on,1,0,0,,0,,,69,95
203368,note_off,212,0,0,,0,,,64,95
203559,note_off,191,0,0,,1,,,69,127
203581,note_off,22,0,0,,0,,,69,95
203581,note_off,0,0,0,,0,,,45,95
203582,note_on,1,0,0,,0,,,47,95
203582,note_on,0,0,0,,0,,,64,95
203582,note_on,0,0,0,,1,,,79,127
203695,note_on,113,0,0,,1,,,78,127
203714,note_off,19,0,0,,1,,,79,127
203795,note_on,81,0,0,,0,,,67,95
203808,note_on,13,0,0,,1,,,76,127
203827,note_off,19,0,0,,1,,,78,127
204007,note_off,180,0,0,,0,,,64,95
204008,note_on,1,0,0,,0,,,71,95
204220,note_off,212,0,0,,0,,,67,95
204407,note_off,187,0,0,,1,,,76,127
204434,note_off,27,0,0,,0,,,71,95
204434,note_off,0,0,0,,0,,,47,95
204435,note_on,1,0,0,,0,,,47,95
204435,note_on,0,0,0,,0,,,59,95
204435,note_on,0,0,0,,1,,,78,127
204546,note_on,111,0,0,,1,,,76,127
204567,note_off,21,0,0,,1,,,78,127
204648,note_on,81,0,0,,0,,,66,95
204657,note_on,9,0,0,,1,,,75,127
204678,note_off,21,0,0,,1,,,76,127
204860,note_off,182,0,0,,0,,,59,95
204861,note_on,1,0,0,,0,,,69,95
205073,note_off,212,0,0,,0,,,66,95
205281,note_off,208,0,0,,1,,,75,127
205286,note_off,5,0,0,,0,,,69,95
205286,note_off,0,0,0,,0,,,47,95
205287,note_on,1,0,0,,0,,,48,95
205287,note_on,0,0,0,,0,,,57,95
205287,note_on,0,0,0,,1,,,75,127
205500,note_on,213,0,0,,0,,,64,95
205712,note_off,212,0,0,,1,,,75,127
205712,note_off,0,0,0,,0,,,57,95
205713,note_on,1,0,0,,0,,,69,95
205713,note_on,0,0,0,,1,,,76,127
205925,note_off,212,0,0,,0,,,64,95
206138,note_off,213,0,0,,0,,,69,95
206138,note_off,0,0,0,,0,,,48,95
206139,note_on,1,0,0,,0,,,45,95
206139,note_on,0,0,0,,0,,,60,95
206352,note_on,213,0,0,,0,,,64,95
206564,note_off,212,0,0,,0,,,60,95
206564,note_off,0,0,0,,1,,,76,127
206565,note_on,1,0,0,,0,,,69,95
206565,note_on,0,0,0,,1,,,84,127
206777,note_off,212,0,0,,0,,,64,95
206990,note_off,213,0,0,,1,,,84,127
206990,note_off,0,0,0,,0,,,69,95
206990,note_off,0,0,0,,0,,,45,95
206991,note_on,1,0,0,,0,,,50,95
206991,note_on,0,0,0,,0,,,59,95
206991,note_on,0,0,0,,1,,,84,127
206991,note_on,0,0,0,,1,,,81,127
207204,note_on,213,0,0,,0,,,64,95
207416,note_off,212,0,0,,1,,,81,127
207416,note_off,0,0,0,,1,,,84,127
207416,note_off,0,0,0,,0,,,59,95
207417,note_on,1,0,0,,0,,,68,95
207417,note_on,0,0,0,,1,,,83,127
207629,note_off,212,0,0,,0,,,64,95
207842,note_off,213,0,0,,1,,,83,127
207842,note_off,0,0,0,,0,,,68,95
207842,note_off,0,0,0,,0,,,50,95
207843,note_on,1,0,0,,0,,,48,95
207843,note_on,0,0,0,,0,,,57,95
207843,note_on,0,0,0,,1,,,83,127
207843,note_on,0,0,0,,1,,,80,127
208056,note_on,213,0,0,,0,,,64,95
208268,note_off,212,0,0,,1,,,80,127
208268,note_off,0,0,0,,1,,,83,127
208268,note_off,0,0,0,,0,,,57,95
208269,note_on,1,0,0,,0,,,69,95
208269,note_on,0,0,0,,1,,,81,127
208481,note_off,212,0,0,,0,,,64,95
208694,note_off,213,0,0,,1,,,81,127
208694,note_off,0,0,0,,0,,,69,95
208694,note_off,0,0,0,,0,,,48,95
208695,note_on,1,0,0,,0,,,47,95
208695,note_on,0,0,0,,0,,,59,95
208695,note_on,0,0,0,,1,,,81,127
208695,note_on,0,0,0,,1,,,78,127
208908,note_on,213,0,0,,0,,,64,95
209120,note_off,212,0,0,,1,,,78,127
209120,note_off,0,0,0,,1,,,81,127
209120,note_off,0,0,0,,0,,,59,95
209121,note_on,1,0,0,,0,,,67,95
209121,note_on,0,0,0,,1,,,79,127
209333,note_off,212,0,0,,0,,,64,95
209546,note_off,213,0,0,,1,,,79,127
209546,note_off,0,0,0,,0,,,67,95
209546,note_off,0,0,0,,0,,,47,95
209547,note_on,1,0,0,,0,,,45,95
209547,note_on,0,0,0,,0,,,60,95
209547,note_on,0,0,0,,1,,,76,127
209547,note_on,0,0,0,,1,,,79,127
209760,note_on,213,0,0,,0,,,64,95
209972,note_off,212,0,0,,1,,,79,127
209972,note_off,0,0,0,,1,,,76,127
209972,note_off,0,0,0,,0,,,60,95
209973,note_on,1,0,0,,0,,,66,95
209973,note_on,0,0,0,,1,,,78,127
210185,note_off,212,0,0,,0,,,64,95
210398,note_off,213,0,0,,1,,,78,127
210398,note_off,0,0,0,,0,,,66,95
210398,note_off,0,0,0,,0,,,45,95
210399,note_on,1,0,0,,0,,,57,95
210399,note_on,0,0,0,,0,,,59,95
210399,note_on,0,0,0,,1,,,71,127
210612,note_on,213,0,0,,0,,,66,95
210824,note_off,212,0,0,,0,,,59,95
210825,note_on,1,0,0,,0,,,69,95
211037,note_off,212,0,0,,0,,,66,95
211250,note_off,213,0,0,,0,,,69,95
211250,note_off,0,0,0,,1,,,71,127
211250,note_off,0,0,0,,0,,,57,95
211251,note_on,1,0,0,,0,,,55,95
211251,note_on,0,0,0,,0,,,59,95
211464,note_on,213,0,0,,0,,,64,95
211676,note_off,212,0,0,,0,,,59,95
211677,note_on,1,0,0,,0,,,67,95
211677,note_on,0,0,0,,1,,,72,127
211889,note_off,212,0,0,,0,,,64,95
212102,note_off,213,0,0,,1,,,72,127
212102,note_off,0,0,0,,0,,,67,95
212102,note_off,0,0,0,,0,,,55,95
212103,note_on,1,0,0,,0,,,51,95
212103,note_on,0,0,0,,0,,,59,95
212103,note_on,0,0,0,,1,,,71,127
212316,note_on,213,0,0,,0,,,66,95
212528,note_off,212,0,0,,1,,,71,127
212528,note_off,0,0,0,,0,,,59,95
212529,note_on,1,0,0,,0,,,69,95
212529,note_on,0,0,0,,1,,,81,127
212741,note_off,212,0,0,,0,,,66,95
212954,note_off,213,0,0,,1,,,81,127
212954,note_off,0,0,0,,0,,,69,95
212954,note_off,0,0,0,,0,,,51,95
212955,note_on,1,0,0,,0,,,52,95
212955,note_on,0,0,0,,0,,,59,95
212955,note_on,0,0,0,,1,,,79,127
213061,note_off,106,0,0,,1,,,79,127
213064,note_on,3,0,0,,1,,,78,127
213168,note_on,104,0,0,,0,,,64,95
213169,note_off,1,0,0,,1,,,78,127
213172,note_on,3,0,0,,1,,,76,127
213380,note_off,208,0,0,,0,,,59,95
213381,note_on,1,0,0,,0,,,67,95
213593,note_off,212,0,0,,0,,,64,95
213806,note_off,213,0,0,,0,,,67,95
213806,note_off,0,0,0,,0,,,52,95
213807,note_on,1,0,0,,0,,,45,95
213807,note_on,0,0,0,,0,,,60,95
213807,note_on,0,0,0,,1,,,78,127
213810,note_off,3,0,0,,1,,,76,127
214020,note_on,210,0,0,,0,,,64,95
214232,note_off,212,0,0,,0,,,60,95
214233,note_on,1,0,0,,0,,,66,95
214445,note_off,212,0,0,,0,,,64,95
214658,note_off,213,0,0,,0,,,66,95
214658,note_off,0,0,0,,1,,,78,127
214658,note_off,0,0,0,,0,,,45,95
214659,note_on,1,0,0,,0,,,47,95
214659,note_on,0,0,0,,0,,,59,95
214659,note_on,0,0,0,,1,,,75,127
214872,note_on,213,0,0,,0,,,66,95
215084,note_off,212,0,0,,0,,,59,95
215085,note_on,1,0,0,,0,,,69,95
215297,note_off,212,0,0,,0,,,66,95
215510,note_off,213,0,0,,0,,,69,95
215510,note_off,0,0,0,,1,,,75,127
215510,note_off,0,0,0,,0,,,47,95
215527,note_on,17,0,0,,0,,,57,95
215527,note_on,0,0,0,,0,,,48,95
215744,note_on,217,0,0,,0,,,64,95
215960,note_off,216,0,0,,0,,,57,95
215961,note_on,1,0,0,,1,,,76,127
215961,note_on,0,0,0,,0,,,69,95
216177,note_off,216,0,0,,1,,,76,127
216177,note_off,0,0,0,,0,,,64,95
216178,note_on,1,0,0,,1,,,74,127
216394,note_off,216,0,0,,1,,,74,127
216394,note_off,0,0,0,,0,,,69,95
216394,note_off,0,0,0,,0,,,48,95
216395,note_on,1,0,0,,1,,,72,127
216395,note_on,0,0,0,,0,,,45,95
216612,note_on,217,0,0,,0,,,60,95
216828,note_off,216,0,0,,1,,,72,127
216829,note_on,1,0,0,,1,,,71,127
216829,note_on,0,0,0,,0,,,64,95
217045,note_off,216,0,0,,0,,,60,95
217262,note_off,217,0,0,,0,,,64,95
217262,note_off,0,0,0,,1,,,71,127
217262,note_off,0,0,0,,0,,,45,95
217263,note_on,1,0,0,,1,,,69,127
217263,note_on,0,0,0,,0,,,57,95
217480,note_on,217,0,0,,0,,,60,95
217696,note_off,216,0,0,,1,,,69,127
217697,note_on,1,0,0,,1,,,67,127
217697,note_on,0,0,0,,0,,,64,95
217913,note_off,216,0,0,,0,,,60,95
218130,note_off,217,0,0,,0,,,64,95
218130,note_off,0,0,0,,1,,,67,127
218130,note_off,0,0,0,,0,,,57,95
218131,note_on,1,0,0,,1,,,66,127
218131,note_on,0,0,0,,0,,,59,95
218353,note_on,222,0,0,,0,,,63,95
218574,note_off,221,0,0,,1,,,66,127
218575,note_on,1,0,0,,1,,,70,127
218575,note_on,0,0,0,,0,,,66,95
218796,note_off,221,0,0,,0,,,63,95
219018,note_off,222,0,0,,0,,,66,95
219018,note_off,0,0,0,,1,,,70,127
219018,note_off,0,0,0,,0,,,59,95
219019,note_on,1,0,0,,1,,,71,127
219019,note_on,0,0,0,,0,,,47,95
219241,note_on,222,0,0,,0,,,63,95
219462,note_off,221,0,0,,1,,,71,127
219463,note_on,1,0,0,,1,,,75,127
219463,note_on,0,0,0,,0,,,66,95
219684,note_off,221,0,0,,0,,,63,95
219906,note_off,222,0,0,,0,,,66,95
219906,note_off,0,0,0,,1,,,75,127
219906,note_off,0,0,0,,0,,,47,95
219907,note_on,1,0,0,,1,,,78,127
219907,note_on,0,0,0,,0,,,47,95
220129,note_on,222,0,0,,0,,,63,95
220350,note_off,221,0,0,,1,,,78,127
220351,note_on,1,0,0,,1,,,83,127
220351,note_on,0,0,0,,0,,,66,95
220586,note_off,235,0,0,,0,,,63,95
220814,note_off,228,0,0,,0,,,66,95
220814,note_off,0,0,0,,1,,,83,127
220814,note_off,0,0,0,,0,,,47,95
220827,note_on,13,0,0,,1,,,71,127
220827,note_on,0,0,0,,0,,,63,95
220827,note_on,0,0,0,,0,,,66,95
220827,note_on,0,0,0,,0,,,47,95
222598,note_off,1771,0,0,,0,,,47,95
222598,note_off,0,0,0,,0,,,66,95
222598,note_off,0,0,0,,0,,,63,95
222598,note_off,0,0,0,,1,,,71,127
223469,note_on,871,0,0,,0,,,52,95
223469,note_on,0,0,0,,0,,,76,95
223469,note_on,0,0,0,,0,,,71,95
223469,note_on,0,0,0,,0,,,67,95
223469,note_on,0,0,0,,0,,,64,95
223469,note_on,0,0,0,,1,,,76,127
223708,note_off,239,0,0,,1,,,76,127
223709,note_on,1,0,0,,1,,,71,127
223948,note_off,239,0,0,,1,,,71,127
223948,note_off,0,0,0,,0,,,64,95
223948,note_off,0,0,0,,0,,,67,95
223948,note_off,0,0,0,,0,,,71,95
223948,note_off,0,0,0,,0,,,76,95
223949,note_on,1,0,0,,1,,,69,127
224188,note_off,239,0,0,,1,,,69,127
224188,note_off,0,0,0,,0,,,52,95
224189,note_on,1,0,0,,0,,,52,95
224189,note_on,0,0,0,,1,,,67,127
224428,note_off,239,0,0,,1,,,67,127
224428,note_off,0,0,0,,0,,,52,95
224429,note_on,1,0,0,,0,,,59,95
224429,note_on,0,0,0,,0,,,66,95
224429,note_on,0,0,0,,1,,,66,127
224548,note_off,119,0,0,,1,,,66,127
224549,note_on,1,0,0,,0,,,71,95
224668,note_off,119,0,0,,0,,,71,95
224668,note_off,0,0,0,,0,,,66,95
224668,note_off,0,0,0,,0,,,59,95
224669,note_on,1,0,0,,0,,,57,95
224669,note_on,0,0,0,,0,,,73,95
224788,note_off,119,0,0,,0,,,73,95
224789,note_on,1,0,0,,0,,,75,95
224908,note_off,119,0,0,,0,,,75,95
224908,note_off,0,0,0,,0,,,57,95
224909,note_on,1,0,0,,0,,,55,95
224909,note_on,0,0,0,,0,,,71,95
224909,note_on,0,0,0,,1,,,76,127
225148,note_off,239,0,0,,1,,,76,127
225148,note_off,0,0,0,,0,,,71,95
225148,note_off,0,0,0,,0,,,55,95
225149,note_on,1,0,0,,0,,,57,95
225149,note_on,0,0,0,,0,,,69,95
225149,note_on,0,0,0,,1,,,78,127
225388,note_off,239,0,0,,1,,,78,127
225388,note_off,0,0,0,,0,,,69,95
225388,note_off,0,0,0,,0,,,57,95
225389,note_on,1,0,0,,0,,,59,95
225389,note_on,0,0,0,,0,,,66,95
225389,note_on,0,0,0,,1,,,75,127
225628,note_off,239,0,0,,1,,,75,127
225628,note_off,0,0,0,,0,,,66,95
225628,note_off,0,0,0,,0,,,59,95
225629,note_on,1,0,0,,0,,,55,95
225629,note_on,0,0,0,,0,,,67,95
225629,note_on,0,0,0,,1,,,76,127
225748,note_off,119,0,0,,1,,,76,127
225749,note_on,1,0,0,,1,,,71,127
225868,note_off,119,0,0,,1,,,71,127
225868,note_off,0,0,0,,0,,,67,95
225868,note_off,0,0,0,,0,,,55,95
225869,note_on,1,0,0,,0,,,54,95
225869,note_on,0,0,0,,0,,,69,95
225869,note_on,0,0,0,,1,,,78,127
225988,note_off,119,0,0,,1,,,78,127
225989,note_on,1,0,0,,1,,,71,127
226108,note_off,119,0,0,,1,,,71,127
226108,note_off,0,0,0,,0,,,69,95
226108,note_off,0,0,0,,0,,,54,95
226109,note_on,1,0,0,,0,,,52,95
226109,note_on,0,0,0,,0,,,71,95
226109,note_on,0,0,0,,1,,,79,127
226348,note_off,239,0,0,,1,,,79,127
226348,note_off,0,0,0,,0,,,71,95
226348,note_off,0,0,0,,0,,,52,95
226349,note_on,1,0,0,,0,,,54,95
226349,note_on,0,0,0,,0,,,75,95
226349,note_on,0,0,0,,1,,,78,127
226468,note_off,119,0,0,,0,,,75,95
226469,note_on,1,0,0,,0,,,71,95
226588,note_off,119,0,0,,0,,,71,95
226588,note_off,0,0,0,,1,,,78,127
226588,note_off,0,0,0,,0,,,54,95
226589,note_on,1,0,0,,0,,,55,95
226589,note_on,0,0,0,,0,,,76,95
226589,note_on,0,0,0,,1,,,76,127
226708,note_off,119,0,0,,1,,,76,127
226709,note_on,1,0,0,,0,,,71,95
226828,note_off,119,0,0,,0,,,71,95
226828,note_off,0,0,0,,0,,,76,95
226828,note_off,0,0,0,,0,,,55,95
226829,note_on,1,0,0,,0,,,57,95
226829,note_on,0,0,0,,0,,,78,95
226829,note_on,0,0,0,,1,,,75,127
227068,note_off,239,0,0,,1,,,75,127
227068,note_off,0,0,0,,0,,,78,95
227068,note_off,0,0,0,,0,,,57,95
227069,note_on,1,0,0,,0,,,55,95
227069,note_on,0,0,0,,0,,,76,95
227069,note_on,0,0,0,,1,,,76,127
227188,note_off,119,0,0,,1,,,76,127
227189,note_on,1,0,0,,1,,,71,127
227308,note_off,119,0,0,,1,,,71,127
227308,note_off,0,0,0,,0,,,76,95
227308,note_off,0,0,0,,0,,,55,95
227309,note_on,1,0,0,,0,,,54,95
227309,note_on,0,0,0,,0,,,75,95
227309,note_on,0,0,0,,1,,,78,127
227428,note_off,119,0,0,,1,,,78,127
227429,note_on,1,0,0,,1,,,71,127
227548,note_off,119,0,0,,1,,,71,127
227548,note_off,0,0,0,,0,,,75,95
227548,note_off,0,0,0,,0,,,54,95
227549,note_on,1,0,0,,0,,,52,95
227549,note_on,0,0,0,,0,,,76,95
227549,note_on,0,0,0,,1,,,79,127
227788,note_off,239,0,0,,1,,,79,127
227788,note_off,0,0,0,,0,,,76,95
227788,note_off,0,0,0,,0,,,52,95
227789,note_on,1,0,0,,0,,,54,95
227789,note_on,0,0,0,,0,,,75,95
227789,note_on,0,0,0,,1,,,81,127
227908,note_off,119,0,0,,0,,,75,95
227909,note_on,1,0,0,,0,,,71,95
228028,note_off,119,0,0,,0,,,71,95
228028,note_off,0,0,0,,1,,,81,127
228028,note_off,0,0,0,,0,,,54,95
228029,note_on,1,0,0,,0,,,55,95
228029,note_on,0,0,0,,0,,,76,95
228029,note_on,0,0,0,,1,,,79,127
228148,note_off,119,0,0,,0,,,76,95
228149,note_on,1,0,0,,0,,,71,95
228268,note_off,119,0,0,,0,,,71,95
228268,note_off,0,0,0,,1,,,79,127
228268,note_off,0,0,0,,0,,,55,95
228269,note_on,1,0,0,,0,,,57,95
228269,note_on,0,0,0,,0,,,75,95
228269,note_on,0,0,0,,1,,,78,127
228508,note_off,239,0,0,,1,,,78,127
228508,note_off,0,0,0,,0,,,75,95
228508,note_off,0,0,0,,0,,,57,95
228509,note_on,1,0,0,,0,,,55,95
228509,note_on,0,0,0,,0,,,76,95
228509,note_on,0,0,0,,1,,,76,127
228628,note_off,119,0,0,,1,,,76,127
228629,note_on,1,0,0,,1,,,71,127
228748,note_off,119,0,0,,1,,,71,127
228748,note_off,0,0,0,,0,,,76,95
228748,note_off,0,0,0,,0,,,55,95
228749,note_on,1,0,0,,0,,,54,95
228749,note_on,0,0,0,,0,,,75,95
228749,note_on,0,0,0,,1,,,78,127
228868,note_off,119,0,0,,1,,,78,127
228869,note_on,1,0,0,,1,,,71,127
228988,note_off,119,0,0,,1,,,71,127
228988,note_off,0,0,0,,0,,,75,95
228988,note_off,0,0,0,,0,,,54,95
228989,note_on,1,0,0,,0,,,52,95
228989,note_on,0,0,0,,0,,,76,95
228989,note_on,0,0,0,,1,,,79,127
229228,note_off,239,0,0,,1,,,79,127
229228,note_off,0,0,0,,0,,,76,95
229228,note_off,0,0,0,,0,,,52,95
229229,note_on,1,0,0,,1,,,83,127
229468,note_off,239,0,0,,1,,,83,127
229469,note_on,1,0,0,,0,,,55,95
229469,note_on,0,0,0,,0,,,71,95
229469,note_on,0,0,0,,1,,,76,127
229708,note_off,239,0,0,,1,,,76,127
229708,note_off,0,0,0,,0,,,71,95
229708,note_off,0,0,0,,0,,,55,95
229709,note_on,1,0,0,,0,,,54,95
229709,note_on,0,0,0,,0,,,69,95
229709,note_on,0,0,0,,1,,,74,127
229948,note_off,239,0,0,,1,,,74,127
229948,note_off,0,0,0,,0,,,69,95
229948,note_off,0,0,0,,0,,,54,95
229949,note_on,1,0,0,,1,,,79,127
230188,note_off,239,0,0,,1,,,79,127
230189,note_on,1,0,0,,0,,,52,95
230189,note_on,0,0,0,,0,,,69,95
230189,note_on,0,0,0,,1,,,72,127
230428,note_off,239,0,0,,1,,,72,127
230428,note_off,0,0,0,,0,,,69,95
230428,note_off,0,0,0,,0,,,52,95
230429,note_on,1,0,0,,0,,,50,95
230429,note_on,0,0,0,,0,,,67,95
230429,note_on,0,0,0,,1,,,71,127
230668,note_off,239,0,0,,1,,,71,127
230668,note_off,0,0,0,,0,,,67,95
230668,note_off,0,0,0,,0,,,50,95
230669,note_on,1,0,0,,1,,,76,127
230908,note_off,239,0,0,,1,,,76,127
230909,note_on,1,0,0,,0,,,48,95
230909,note_on,0,0,0,,0,,,67,95
230909,note_on,0,0,0,,1,,,69,127
231148,note_off,239,0,0,,1,,,69,127
231148,note_off,0,0,0,,0,,,67,95
231148,note_off,0,0,0,,0,,,48,95
231149,note_on,1,0,0,,0,,,45,95
231149,note_on,0,0,0,,0,,,64,95
231149,note_on,0,0,0,,1,,,67,127
231388,note_off,239,0,0,,1,,,67,127
231388,note_off,0,0,0,,0,,,64,95
231388,note_off,0,0,0,,0,,,45,95
231389,note_on,1,0,0,,0,,,50,95
231389,note_on,0,0,0,,0,,,62,95
231389,note_on,0,0,0,,1,,,66,127
231628,note_off,239,0,0,,1,,,66,127
231629,note_on,1,0,0,,0,,,66,95
231629,note_on,0,0,0,,1,,,76,127
231868,note_off,239,0,0,,1,,,76,127
231868,note_off,0,0,0,,0,,,66,95
231868,note_off,0,0,0,,0,,,50,95
231869,note_on,1,0,0,,0,,,50,95
231869,note_on,0,0,0,,0,,,69,95
231869,note_on,0,0,0,,1,,,74,127
232108,note_off,239,0,0,,1,,,74,127
232108,note_off,0,0,0,,0,,,69,95
232108,note_off,0,0,0,,0,,,50,95
232108,note_off,0,0,0,,0,,,62,95
232109,note_on,1,0,0,,0,,,52,95
232109,note_on,0,0,0,,0,,,62,95
232109,note_on,0,0,0,,1,,,72,127
232348,note_off,239,0,0,,1,,,72,127
232348,note_off,0,0,0,,0,,,62,95
232349,note_on,1,0,0,,0,,,69,95
232349,note_on,0,0,0,,1,,,71,127
232588,note_off,239,0,0,,1,,,71,127
232588,note_off,0,0,0,,0,,,69,95
232588,note_off,0,0,0,,0,,,52,95
232589,note_on,1,0,0,,0,,,54,95
232589,note_on,0,0,0,,0,,,72,95
232589,note_on,0,0,0,,1,,,69,127
232828,note_off,239,0,0,,1,,,69,127
232828,note_off,0,0,0,,0,,,72,95
232828,note_off,0,0,0,,0,,,54,95
232829,note_on,1,0,0,,0,,,55,95
232829,note_on,0,0,0,,0,,,62,95
232829,note_on,0,0,0,,0,,,71,95
232829,note_on,0,0,0,,1,,,79,127
233068,note_off,239,0,0,,1,,,79,127
233068,note_off,0,0,0,,0,,,71,95
233068,note_off,0,0,0,,0,,,55,95
233069,note_on,1,0,0,,0,,,55,95
233069,note_on,0,0,0,,0,,,71,95
233069,note_on,0,0,0,,1,,,79,127
233188,note_off,119,0,0,,1,,,79,127
233189,note_on,1,0,0,,1,,,81,127
233308,note_off,119,0,0,,1,,,81,127
233308,note_off,0,0,0,,0,,,71,95
233308,note_off,0,0,0,,0,,,55,95
233308,note_off,0,0,0,,0,,,62,95
233309,note_on,1,0,0,,0,,,54,95
233309,note_on,0,0,0,,0,,,69,95
233309,note_on,0,0,0,,1,,,83,127
233428,note_off,119,0,0,,1,,,83,127
233429,note_on,1,0,0,,1,,,81,127
233548,note_off,119,0,0,,1,,,81,127
233548,note_off,0,0,0,,0,,,69,95
233548,note_off,0,0,0,,0,,,54,95
233549,note_on,1,0,0,,0,,,52,95
233549,note_on,0,0,0,,0,,,67,95
233549,note_on,0,0,0,,1,,,79,127
233788,note_off,239,0,0,,1,,,79,127
233788,note_off,0,0,0,,0,,,67,95
233788,note_off,0,0,0,,0,,,52,95
233789,note_on,1,0,0,,0,,,50,95
233789,note_on,0,0,0,,0,,,66,95
233789,note_on,0,0,0,,1,,,79,127
233908,note_off,119,0,0,,1,,,79,127
233909,note_on,1,0,0,,1,,,81,127
234028,note_off,119,0,0,,1,,,81,127
234028,note_off,0,0,0,,0,,,66,95
234028,note_off,0,0,0,,0,,,50,95
234029,note_on,1,0,0,,0,,,48,95
234029,note_on,0,0,0,,0,,,64,95
234029,note_on,0,0,0,,1,,,83,127
234148,note_off,119,0,0,,1,,,83,127
234149,note_on,1,0,0,,1,,,81,127
234268,note_off,119,0,0,,1,,,81,127
234268,note_off,0,0,0,,0,,,64,95
234268,note_off,0,0,0,,0,,,48,95
234269,note_on,1,0,0,,0,,,47,95
234269,note_on,0,0,0,,0,,,62,95
234269,note_on,0,0,0,,1,,,79,127
234508,note_off,239,0,0,,1,,,79,127
234508,note_off,0,0,0,,0,,,62,95
234508,note_off,0,0,0,,0,,,47,95
234509,note_on,1,0,0,,0,,,47,95
234509,note_on,0,0,0,,0,,,62,95
234509,note_on,0,0,0,,1,,,78,127
234628,note_off,119,0,0,,1,,,78,127
234629,note_on,1,0,0,,1,,,76,127
234748,note_off,119,0,0,,1,,,76,127
234748,note_off,0,0,0,,0,,,62,95
234748,note_off,0,0,0,,0,,,47,95
234749,note_on,1,0,0,,0,,,47,95
234749,note_on,0,0,0,,0,,,67,95
234749,note_on,0,0,0,,1,,,74,127
234988,note_off,239,0,0,,1,,,74,127
234988,note_off,0,0,0,,0,,,67,95
234988,note_off,0,0,0,,0,,,47,95
234989,note_on,1,0,0,,1,,,79,127
235228,note_off,239,0,0,,1,,,79,127
235229,note_on,1,0,0,,0,,,52,95
235229,note_on,0,0,0,,0,,,67,95
235229,note_on,0,0,0,,1,,,72,127
235468,note_off,239,0,0,,1,,,72,127
235468,note_off,0,0,0,,0,,,67,95
235468,note_off,0,0,0,,0,,,52,95
235469,note_on,1,0,0,,0,,,50,95
235469,note_on,0,0,0,,0,,,66,95
235469,note_on,0,0,0,,1,,,71,127
235708,note_off,239,0,0,,1,,,71,127
235708,note_off,0,0,0,,0,,,66,95
235708,note_off,0,0,0,,0,,,50,95
235709,note_on,1,0,0,,1,,,76,127
235948,note_off,239,0,0,,1,,,76,127
235949,note_on,1,0,0,,0,,,48,95
235949,note_on,0,0,0,,0,,,64,95
235949,note_on,0,0,0,,1,,,69,127
236188,note_off,239,0,0,,1,,,69,127
236188,note_off,0,0,0,,0,,,64,95
236188,note_off,0,0,0,,0,,,48,95
236189,note_on,1,0,0,,0,,,47,95
236189,note_on,0,0,0,,0,,,62,95
236189,note_on,0,0,0,,1,,,67,127
236428,note_off,239,0,0,,1,,,67,127
236428,note_off,0,0,0,,0,,,62,95
236428,note_off,0,0,0,,0,,,47,95
236429,note_on,1,0,0,,0,,,48,95
236429,note_on,0,0,0,,0,,,64,95
236429,note_on,0,0,0,,1,,,72,127
236548,note_off,119,0,0,,1,,,72,127
236549,note_on,1,0,0,,1,,,69,127
236668,note_off,119,0,0,,1,,,69,127
236668,note_off,0,0,0,,0,,,64,95
236668,note_off,0,0,0,,0,,,48,95
236669,note_on,1,0,0,,0,,,50,95
236669,note_on,0,0,0,,0,,,62,95
236669,note_on,0,0,0,,1,,,71,127
236908,note_off,239,0,0,,1,,,71,127
236908,note_off,0,0,0,,0,,,62,95
236908,note_off,0,0,0,,0,,,50,95
236909,note_on,1,0,0,,0,,,38,95
236909,note_on,0,0,0,,0,,,66,95
236909,note_on,0,0,0,,1,,,69,127
237148,note_off,239,0,0,,1,,,69,127
237148,note_off,0,0,0,,0,,,66,95
237148,note_off,0,0,0,,0,,,38,95
237149,note_on,1,0,0,,0,,,43,95
237149,note_on,0,0,0,,0,,,67,95
237149,note_on,0,0,0,,1,,,67,127
237388,note_off,239,0,0,,1,,,67,127
237388,note_off,0,0,0,,0,,,67,95
237388,note_off,0,0,0,,0,,,43,95
237389,note_on,1,0,0,,0,,,55,95
237389,note_on,0,0,0,,0,,,62,95
237389,note_on,0,0,0,,1,,,67,127
237508,note_off,119,0,0,,1,,,67,127
237509,note_on,1,0,0,,1,,,69,127
237628,note_off,119,0,0,,1,,,69,127
237628,note_off,0,0,0,,0,,,62,95
237628,note_off,0,0,0,,0,,,55,95
237629,note_on,1,0,0,,0,,,54,95
237629,note_on,0,0,0,,0,,,69,95
237629,note_on,0,0,0,,1,,,71,127
237748,note_off,119,0,0,,1,,,71,127
237749,note_on,1,0,0,,1,,,69,127
237868,note_off,119,0,0,,1,,,69,127
237868,note_off,0,0,0,,0,,,69,95
237868,note_off,0,0,0,,0,,,54,95
237869,note_on,1,0,0,,0,,,52,95
237869,note_on,0,0,0,,0,,,67,95
237869,note_on,0,0,0,,1,,,67,127
238108,note_off,239,0,0,,1,,,67,127
238108,note_off,0,0,0,,0,,,67,95
238108,note_off,0,0,0,,0,,,52,95
238109,note_on,1,0,0,,0,,,50,95
238109,note_on,0,0,0,,0,,,66,95
238109,note_on,0,0,0,,1,,,67,127
238228,note_off,119,0,0,,1,,,67,127
238229,note_on,1,0,0,,1,,,69,127
238348,note_off,119,0,0,,1,,,69,127
238348,note_off,0,0,0,,0,,,66,95
238348,note_off,0,0,0,,0,,,50,95
238349,note_on,1,0,0,,0,,,48,95
238349,note_on,0,0,0,,0,,,64,95
238349,note_on,0,0,0,,1,,,71,127
238468,note_off,119,0,0,,1,,,71,127
238469,note_on,1,0,0,,1,,,72,127
238588,note_off,119,0,0,,1,,,72,127
238588,note_off,0,0,0,,0,,,64,95
238588,note_off,0,0,0,,0,,,48,95
238589,note_on,1,0,0,,0,,,47,95
238589,note_on,0,0,0,,0,,,62,95
238589,note_on,0,0,0,,1,,,74,127
238828,note_off,239,0,0,,1,,,74,127
238829,note_on,1,0,0,,1,,,79,127
239068,note_off,239,0,0,,1,,,79,127
239068,note_off,0,0,0,,0,,,62,95
239068,note_off,0,0,0,,0,,,47,95
239069,note_on,1,0,0,,0,,,47,95
239069,note_on,0,0,0,,0,,,62,95
239069,note_on,0,0,0,,1,,,67,127
239308,note_off,239,0,0,,1,,,67,127
239308,note_off,0,0,0,,0,,,62,95
239308,note_off,0,0,0,,0,,,47,95
239309,note_on,1,0,0,,0,,,48,95
239309,note_on,0,0,0,,0,,,64,95
239309,note_on,0,0,0,,1,,,72,127
239428,note_off,119,0,0,,1,,,72,127
239429,note_on,1,0,0,,1,,,69,127
239548,note_off,119,0,0,,1,,,69,127
239548,note_off,0,0,0,,0,,,64,95
239548,note_off,0,0,0,,0,,,48,95
239549,note_on,1,0,0,,0,,,50,95
239549,note_on,0,0,0,,0,,,62,95
239549,note_on,0,0,0,,1,,,71,127
239788,note_off,239,0,0,,1,,,71,127
239788,note_off,0,0,0,,0,,,62,95
239788,note_off,0,0,0,,0,,,50,95
239789,note_on,1,0,0,,0,,,38,95
239789,note_on,0,0,0,,0,,,66,95
239789,note_on,0,0,0,,1,,,69,127
240028,note_off,239,0,0,,1,,,69,127
240028,note_off,0,0,0,,0,,,66,95
240028,note_off,0,0,0,,0,,,38,95
240029,note_on,1,0,0,,0,,,43,95
240029,note_on,0,0,0,,0,,,59,95
240029,note_on,0,0,0,,0,,,62,95
240029,note_on,0,0,0,,1,,,67,127
240508,note_off,479,0,0,,0,,,62,95
240508,note_off,0,0,0,,0,,,59,95
240748,note_off,240,0,0,,1,,,67,127
240748,note_off,0,0,0,,0,,,43,95
240749,note_on,1,0,0,,0,,,43,95
240749,note_on,0,0,0,,0,,,74,95
240749,note_on,0,0,0,,0,,,71,95
240749,note_on,0,0,0,,0,,,67,95
240749,note_on,0,0,0,,0,,,62,95
240749,note_on,0,0,0,,1,,,79,127
240988,note_off,239,0,0,,1,,,79,127
240989,note_on,1,0,0,,1,,,74,127
241228,note_off,239,0,0,,1,,,74,127
241228,note_off,0,0,0,,0,,,62,95
241228,note_off,0,0,0,,0,,,67,95
241228,note_off,0,0,0,,0,,,71,95
241228,note_off,0,0,0,,0,,,74,95
241229,note_on,1,0,0,,1,,,72,127
241468,note_off,239,0,0,,1,,,72,127
241468,note_off,0,0,0,,0,,,43,95
241469,note_on,1,0,0,,0,,,43,95
241469,note_on,0,0,0,,1,,,71,127
241708,note_off,239,0,0,,1,,,71,127
241708,note_off,0,0,0,,0,,,43,95
241709,note_on,1,0,0,,0,,,50,95
241709,note_on,0,0,0,,1,,,69,127
241829,note_on,120,0,0,,0,,,62,95
241948,note_off,119,0,0,,0,,,62,95
241948,note_off,0,0,0,,1,,,69,127
241948,note_off,0,0,0,,0,,,50,95
241949,note_on,1,0,0,,0,,,48,95
241949,note_on,0,0,0,,0,,,64,95
242068,note_off,119,0,0,,0,,,64,95
242069,note_on,1,0,0,,0,,,66,95
242188,note_off,119,0,0,,0,,,66,95
242188,note_off,0,0,0,,0,,,48,95
242189,note_on,1,0,0,,0,,,47,95
242189,note_on,0,0,0,,0,,,62,95
242189,note_on,0,0,0,,1,,,67,127
242428,note_off,239,0,0,,1,,,67,127
242428,note_off,0,0,0,,0,,,62,95
242428,note_off,0,0,0,,0,,,47,95
242429,note_on,1,0,0,,0,,,48,95
242429,note_on,0,0,0,,0,,,60,95
242429,note_on,0,0,0,,1,,,69,127
242668,note_off,239,0,0,,1,,,69,127
242668,note_off,0,0,0,,0,,,60,95
242668,note_off,0,0,0,,0,,,48,95
242669,note_on,1,0,0,,0,,,50,95
242669,note_on,0,0,0,,0,,,57,95
242669,note_on,0,0,0,,1,,,66,127
242908,note_off,239,0,0,,1,,,66,127
242908,note_off,0,0,0,,0,,,57,95
242908,note_off,0,0,0,,0,,,50,95
242909,note_on,1,0,0,,0,,,47,95
242909,note_on,0,0,0,,0,,,62,95
242909,note_on,0,0,0,,1,,,67,127
243148,note_off,239,0,0,,1,,,67,127
243148,note_off,0,0,0,,0,,,47,95
243149,note_on,1,0,0,,0,,,43,95
243149,note_on,0,0,0,,0,,,59,95
243149,note_on,0,0,0,,1,,,67,127
243268,note_off,119,0,0,,1,,,67,127
243269,note_on,1,0,0,,1,,,69,127
243388,note_off,119,0,0,,1,,,69,127
243388,note_off,0,0,0,,0,,,59,95
243388,note_off,0,0,0,,0,,,43,95
243388,note_off,0,0,0,,0,,,62,95
243389,note_on,1,0,0,,0,,,55,95
243389,note_on,0,0,0,,0,,,71,95
243389,note_on,0,0,0,,1,,,71,127
243508,note_off,119,0,0,,1,,,71,127
243509,note_on,1,0,0,,1,,,73,127
243628,note_off,119,0,0,,1,,,73,127
243628,note_off,0,0,0,,0,,,71,95
243628,note_off,0,0,0,,0,,,55,95
243629,note_on,1,0,0,,0,,,54,95
243629,note_on,0,0,0,,0,,,69,95
243629,note_on,0,0,0,,1,,,74,127
243868,note_off,239,0,0,,1,,,74,127
243868,note_off,0,0,0,,0,,,69,95
243868,note_off,0,0,0,,0,,,54,95
243869,note_on,1,0,0,,0,,,55,95
243869,note_on,0,0,0,,0,,,64,95
243869,note_on,0,0,0,,1,,,76,127
244108,note_off,239,0,0,,1,,,76,127
244108,note_off,0,0,0,,0,,,64,95
244108,note_off,0,0,0,,0,,,55,95
244109,note_on,1,0,0,,0,,,57,95
244109,note_on,0,0,0,,0,,,67,95
244109,note_on,0,0,0,,1,,,73,127
244348,note_off,239,0,0,,1,,,73,127
244348,note_off,0,0,0,,0,,,67,95
244348,note_off,0,0,0,,0,,,57,95
244349,note_on,1,0,0,,0,,,54,95
244349,note_on,0,0,0,,0,,,66,95
244349,note_on,0,0,0,,1,,,74,127
244588,note_off,239,0,0,,1,,,74,127
244588,note_off,0,0,0,,0,,,66,95
244588,note_off,0,0,0,,0,,,54,95
244589,note_on,1,0,0,,0,,,52,95
244589,note_on,0,0,0,,0,,,67,95
244589,note_on,0,0,0,,1,,,74,127
244708,note_off,119,0,0,,1,,,74,127
244709,note_on,1,0,0,,1,,,76,127
244828,note_off,119,0,0,,1,,,76,127
244828,note_off,0,0,0,,0,,,67,95
244828,note_off,0,0,0,,0,,,52,95
244829,note_on,1,0,0,,0,,,50,95
244829,note_on,0,0,0,,0,,,69,95
244829,note_on,0,0,0,,1,,,78,127
244948,note_off,119,0,0,,1,,,78,127
244949,note_on,1,0,0,,1,,,79,127
245068,note_off,119,0,0,,1,,,79,127
245068,note_off,0,0,0,,0,,,69,95
245068,note_off,0,0,0,,0,,,50,95
245069,note_on,1,0,0,,1,,,81,127
245308,note_off,239,0,0,,1,,,81,127
245309,note_on,1,0,0,,0,,,54,95
245309,note_on,0,0,0,,0,,,69,95
245309,note_on,0,0,0,,1,,,74,127
245548,note_off,239,0,0,,1,,,74,127
245548,note_off,0,0,0,,0,,,69,95
245548,note_off,0,0,0,,0,,,54,95
245549,note_on,1,0,0,,0,,,52,95
245549,note_on,0,0,0,,0,,,67,95
245549,note_on,0,0,0,,1,,,72,127
245788,note_off,239,0,0,,1,,,72,127
245788,note_off,0,0,0,,0,,,67,95
245788,note_off,0,0,0,,0,,,52,95
245789,note_on,1,0,0,,1,,,81,127
246028,note_off,239,0,0,,1,,,81,127
246029,note_on,1,0,0,,0,,,52,95
246029,note_on,0,0,0,,0,,,67,95
246029,note_on,0,0,0,,1,,,72,127
246268,note_off,239,0,0,,1,,,72,127
246268,note_off,0,0,0,,0,,,67,95
246268,note_off,0,0,0,,0,,,52,95
246269,note_on,1,0,0,,0,,,51,95
246269,note_on,0,0,0,,0,,,66,95
246269,note_on,0,0,0,,1,,,71,127
246508,note_off,239,0,0,,1,,,71,127
246508,note_off,0,0,0,,0,,,66,95
246508,note_off,0,0,0,,0,,,51,95
246509,note_on,1,0,0,,0,,,52,95
246509,note_on,0,0,0,,0,,,67,95
246509,note_on,0,0,0,,1,,,79,127
246748,note_off,239,0,0,,1,,,79,127
246748,note_off,0,0,0,,0,,,67,95
246748,note_off,0,0,0,,0,,,52,95
246749,note_on,1,0,0,,0,,,45,95
246749,note_on,0,0,0,,0,,,69,95
246749,note_on,0,0,0,,1,,,81,127
246868,note_off,119,0,0,,1,,,81,127
246869,note_on,1,0,0,,1,,,79,127
246988,note_off,119,0,0,,1,,,79,127
246988,note_off,0,0,0,,0,,,69,95
246988,note_off,0,0,0,,0,,,45,95
246989,note_on,1,0,0,,0,,,57,95
246989,note_on,0,0,0,,0,,,72,95
246989,note_on,0,0,0,,1,,,78,127
247108,note_off,119,0,0,,1,,,78,127
247109,note_on,1,0,0,,1,,,76,127
247228,note_off,119,0,0,,1,,,76,127
247228,note_off,0,0,0,,0,,,72,95
247228,note_off,0,0,0,,0,,,57,95
247229,note_on,1,0,0,,0,,,59,95
247229,note_on,0,0,0,,0,,,71,95
247229,note_on,0,0,0,,1,,,75,127
247348,note_off,119,0,0,,1,,,75,127
247349,note_on,1,0,0,,1,,,71,127
247468,note_off,119,0,0,,1,,,71,127
247468,note_off,0,0,0,,0,,,71,95
247468,note_off,0,0,0,,0,,,59,95
247469,note_on,1,0,0,,0,,,59,95
247469,note_on,0,0,0,,0,,,71,95
247469,note_on,0,0,0,,1,,,76,127
247588,note_off,119,0,0,,1,,,76,127
247589,note_on,1,0,0,,1,,,71,127
247708,note_off,119,0,0,,1,,,71,127
247708,note_off,0,0,0,,0,,,71,95
247708,note_off,0,0,0,,0,,,59,95
247709,note_on,1,0,0,,0,,,57,95
247709,note_on,0,0,0,,0,,,71,95
247709,note_on,0,0,0,,1,,,78,127
247948,note_off,239,0,0,,1,,,78,127
247948,note_off,0,0,0,,0,,,71,95
247948,note_off,0,0,0,,0,,,57,95
247949,note_on,1,0,0,,0,,,55,95
247949,note_on,0,0,0,,0,,,76,95
247949,note_on,0,0,0,,1,,,76,127
248068,note_off,119,0,0,,1,,,76,127
248069,note_on,1,0,0,,0,,,71,95
248188,note_off,119,0,0,,0,,,71,95
248188,note_off,0,0,0,,0,,,76,95
248188,note_off,0,0,0,,0,,,55,95
248189,note_on,1,0,0,,0,,,54,95
248189,note_on,0,0,0,,0,,,75,95
248189,note_on,0,0,0,,1,,,78,127
248308,note_off,119,0,0,,0,,,75,95
248309,note_on,1,0,0,,0,,,71,95
248428,note_off,119,0,0,,0,,,71,95
248428,note_off,0,0,0,,1,,,78,127
248428,note_off,0,0,0,,0,,,54,95
248429,note_on,1,0,0,,0,,,52,95
248429,note_on,0,0,0,,0,,,76,95
248429,note_on,0,0,0,,1,,,79,127
248668,note_off,239,0,0,,1,,,79,127
248668,note_off,0,0,0,,0,,,76,95
248668,note_off,0,0,0,,0,,,52,95
248669,note_on,1,0,0,,0,,,51,95
248669,note_on,0,0,0,,0,,,63,95
248669,note_on,0,0,0,,1,,,78,127
248788,note_off,119,0,0,,1,,,78,127
248789,note_on,1,0,0,,1,,,71,127
248908,note_off,119,0,0,,1,,,71,127
248908,note_off,0,0,0,,0,,,63,95
248908,note_off,0,0,0,,0,,,51,95
248909,note_on,1,0,0,,0,,,49,95
248909,note_on,0,0,0,,0,,,64,95
248909,note_on,0,0,0,,1,,,79,127
249028,note_off,119,0,0,,1,,,79,127
249029,note_on,1,0,0,,1,,,71,127
249148,note_off,119,0,0,,1,,,71,127
249148,note_off,0,0,0,,0,,,64,95
249148,note_off,0,0,0,,0,,,49,95
249149,note_on,1,0,0,,0,,,47,95
249149,note_on,0,0,0,,0,,,66,95
249149,note_on,0,0,0,,1,,,81,127
249388,note_off,239,0,0,,1,,,81,127
249388,note_off,0,0,0,,0,,,66,95
249388,note_off,0,0,0,,0,,,47,95
249389,note_on,1,0,0,,0,,,52,95
249389,note_on,0,0,0,,0,,,71,95
249389,note_on,0,0,0,,1,,,79,127
249508,note_off,119,0,0,,0,,,71,95
249509,note_on,1,0,0,,0,,,64,95
249628,note_off,119,0,0,,0,,,64,95
249628,note_off,0,0,0,,1,,,79,127
249628,note_off,0,0,0,,0,,,52,95
249629,note_on,1,0,0,,0,,,50,95
249629,note_on,0,0,0,,0,,,69,95
249629,note_on,0,0,0,,1,,,78,127
249748,note_off,119,0,0,,0,,,69,95
249749,note_on,1,0,0,,0,,,64,95
249868,note_off,119,0,0,,0,,,64,95
249868,note_off,0,0,0,,1,,,78,127
249868,note_off,0,0,0,,0,,,50,95
249869,note_on,1,0,0,,0,,,48,95
249869,note_on,0,0,0,,0,,,67,95
249869,note_on,0,0,0,,1,,,76,127
250108,note_off,239,0,0,,1,,,76,127
250108,note_off,0,0,0,,0,,,67,95
250108,note_off,0,0,0,,0,,,48,95
250109,note_on,1,0,0,,0,,,47,95
250109,note_on,0,0,0,,0,,,66,95
250109,note_on,0,0,0,,1,,,75,127
250228,note_off,119,0,0,,1,,,75,127
250229,note_on,1,0,0,,1,,,71,127
250348,note_off,119,0,0,,1,,,71,127
250348,note_off,0,0,0,,0,,,66,95
250348,note_off,0,0,0,,0,,,47,95
250349,note_on,1,0,0,,0,,,59,95
250349,note_on,0,0,0,,0,,,66,95
250349,note_on,0,0,0,,1,,,76,127
250468,note_off,119,0,0,,1,,,76,127
250469,note_on,1,0,0,,1,,,71,127
250588,note_off,119,0,0,,1,,,71,127
250588,note_off,0,0,0,,0,,,66,95
250588,note_off,0,0,0,,0,,,59,95
250589,note_on,1,0,0,,0,,,57,95
250589,note_on,0,0,0,,0,,,66,95
250589,note_on,0,0,0,,1,,,78,127
250828,note_off,239,0,0,,1,,,78,127
250828,note_off,0,0,0,,0,,,66,95
250828,note_off,0,0,0,,0,,,57,95
250829,note_on,1,0,0,,1,,,83,127
251068,note_off,239,0,0,,1,,,83,127
251069,note_on,1,0,0,,0,,,55,95
251069,note_on,0,0,0,,0,,,71,95
251069,note_on,0,0,0,,1,,,76,127
251308,note_off,239,0,0,,1,,,76,127
251308,note_off,0,0,0,,0,,,71,95
251308,note_off,0,0,0,,0,,,55,95
251309,note_on,1,0,0,,0,,,54,95
251309,note_on,0,0,0,,0,,,69,95
251309,note_on,0,0,0,,1,,,74,127
251548,note_off,239,0,0,,1,,,74,127
251548,note_off,0,0,0,,0,,,69,95
251548,note_off,0,0,0,,0,,,54,95
251549,note_on,1,0,0,,1,,,79,127
251788,note_off,239,0,0,,1,,,79,127
251789,note_on,1,0,0,,0,,,52,95
251789,note_on,0,0,0,,0,,,67,95
251789,note_on,0,0,0,,1,,,72,127
252028,note_off,239,0,0,,1,,,72,127
252028,note_off,0,0,0,,0,,,67,95
252028,note_off,0,0,0,,0,,,52,95
252029,note_on,1,0,0,,0,,,50,95
252029,note_on,0,0,0,,0,,,66,95
252029,note_on,0,0,0,,1,,,71,127
252268,note_off,239,0,0,,1,,,71,127
252268,note_off,0,0,0,,0,,,66,95
252268,note_off,0,0,0,,0,,,50,95
252269,note_on,1,0,0,,1,,,76,127
252508,note_off,239,0,0,,1,,,76,127
252509,note_on,1,0,0,,0,,,48,95
252509,note_on,0,0,0,,0,,,64,95
252509,note_on,0,0,0,,1,,,69,127
252748,note_off,239,0,0,,1,,,69,127
252748,note_off,0,0,0,,0,,,64,95
252748,note_off,0,0,0,,0,,,48,95
252749,note_on,1,0,0,,0,,,47,95
252749,note_on,0,0,0,,0,,,62,95
252749,note_on,0,0,0,,1,,,67,127
252988,note_off,239,0,0,,1,,,67,127
252988,note_off,0,0,0,,0,,,62,95
252988,note_off,0,0,0,,0,,,47,95
252989,note_on,1,0,0,,1,,,72,127
253228,note_off,239,0,0,,1,,,72,127
253229,note_on,1,0,0,,0,,,45,95
253229,note_on,0,0,0,,0,,,63,95
253229,note_on,0,0,0,,1,,,66,127
253468,note_off,239,0,0,,1,,,66,127
253468,note_off,0,0,0,,0,,,63,95
253468,note_off,0,0,0,,0,,,45,95
253469,note_on,1,0,0,,0,,,43,95
253469,note_on,0,0,0,,0,,,64,95
253469,note_on,0,0,0,,1,,,64,127
253708,note_off,239,0,0,,1,,,64,127
253708,note_off,0,0,0,,0,,,64,95
253708,note_off,0,0,0,,0,,,43,95
253709,note_on,1,0,0,,0,,,57,95
253709,note_on,0,0,0,,0,,,66,95
253709,note_on,0,0,0,,1,,,81,127
253828,note_off,119,0,0,,1,,,81,127
253829,note_on,1,0,0,,1,,,78,127
253948,note_off,119,0,0,,1,,,78,127
253948,note_off,0,0,0,,0,,,66,95
253948,note_off,0,0,0,,0,,,57,95
253949,note_on,1,0,0,,0,,,59,95
253949,note_on,0,0,0,,0,,,64,95
253949,note_on,0,0,0,,1,,,79,127
254188,note_off,239,0,0,,1,,,79,127
254188,note_off,0,0,0,,0,,,64,95
254188,note_off,0,0,0,,0,,,59,95
254189,note_on,1,0,0,,0,,,47,95
254189,note_on,0,0,0,,0,,,63,95
254189,note_on,0,0,0,,1,,,78,127
254428,note_off,239,0,0,,1,,,78,127
254428,note_off,0,0,0,,0,,,63,95
254428,note_off,0,0,0,,0,,,47,95
254429,note_on,1,0,0,,0,,,52,95
254429,note_on,0,0,0,,0,,,71,95
254429,note_on,0,0,0,,1,,,76,127
254668,note_off,239,0,0,,1,,,76,127
254668,note_off,0,0,0,,0,,,52,95
254669,note_on,1,0,0,,0,,,52,95
254669,note_on,0,0,0,,0,,,67,95
254669,note_on,0,0,0,,1,,,76,127
254788,note_off,119,0,0,,1,,,76,127
254789,note_on,1,0,0,,1,,,78,127
254908,note_off,119,0,0,,1,,,78,127
254908,note_off,0,0,0,,0,,,67,95
254908,note_off,0,0,0,,0,,,52,95
254908,note_off,0,0,0,,0,,,71,95
254909,note_on,1,0,0,,0,,,50,95
254909,note_on,0,0,0,,0,,,66,95
254909,note_on,0,0,0,,1,,,79,127
255028,note_off,119,0,0,,1,,,79,127
255029,note_on,1,0,0,,1,,,78,127
255148,note_off,119,0,0,,1,,,78,127
255148,note_off,0,0,0,,0,,,66,95
255148,note_off,0,0,0,,0,,,50,95
255149,note_on,1,0,0,,0,,,48,95
255149,note_on,0,0,0,,0,,,64,95
255149,note_on,0,0,0,,1,,,76,127
255388,note_off,239,0,0,,1,,,76,127
255388,note_off,0,0,0,,0,,,64,95
255388,note_off,0,0,0,,0,,,48,95
255389,note_on,1,0,0,,0,,,47,95
255389,note_on,0,0,0,,0,,,62,95
255389,note_on,0,0,0,,1,,,76,127
255508,note_off,119,0,0,,1,,,76,127
255509,note_on,1,0,0,,1,,,78,127
255628,note_off,119,0,0,,1,,,78,127
255628,note_off,0,0,0,,0,,,62,95
255628,note_off,0,0,0,,0,,,47,95
255629,note_on,1,0,0,,0,,,45,95
255629,note_on,0,0,0,,0,,,60,95
255629,note_on,0,0,0,,1,,,79,127
255748,note_off,119,0,0,,1,,,79,127
255749,note_on,1,0,0,,1,,,78,127
255868,note_off,119,0,0,,1,,,78,127
255868,note_off,0,0,0,,0,,,60,95
255868,note_off,0,0,0,,0,,,45,95
255869,note_on,1,0,0,,0,,,43,95
255869,note_on,0,0,0,,0,,,59,95
255869,note_on,0,0,0,,1,,,76,127
256108,note_off,239,0,0,,1,,,76,127
256108,note_off,0,0,0,,0,,,43,95
256109,note_on,1,0,0,,0,,,43,95
256109,note_on,0,0,0,,0,,,64,95
256109,note_on,0,0,0,,1,,,74,127
256228,note_off,119,0,0,,1,,,74,127
256229,note_on,1,0,0,,1,,,72,127
256348,note_off,119,0,0,,1,,,72,127
256348,note_off,0,0,0,,0,,,64,95
256348,note_off,0,0,0,,0,,,43,95
256349,note_on,1,0,0,,0,,,43,95
256349,note_on,0,0,0,,0,,,67,95
256349,note_on,0,0,0,,1,,,71,127
256588,note_off,239,0,0,,1,,,71,127
256588,note_off,0,0,0,,0,,,67,95
256588,note_off,0,0,0,,0,,,43,95
256588,note_off,0,0,0,,0,,,59,95
256589,note_on,1,0,0,,1,,,76,127
256828,note_off,239,0,0,,1,,,76,127
256829,note_on,1,0,0,,0,,,60,95
256829,note_on,0,0,0,,0,,,76,95
256829,note_on,0,0,0,,1,,,69,127
257068,note_off,239,0,0,,1,,,69,127
257068,note_off,0,0,0,,0,,,76,95
257068,note_off,0,0,0,,0,,,60,95
257069,note_on,1,0,0,,0,,,59,95
257069,note_on,0,0,0,,0,,,74,95
257069,note_on,0,0,0,,1,,,67,127
257308,note_off,239,0,0,,1,,,67,127
257308,note_off,0,0,0,,0,,,74,95
257308,note_off,0,0,0,,0,,,59,95
257309,note_on,1,0,0,,1,,,72,127
257548,note_off,239,0,0,,1,,,72,127
257549,note_on,1,0,0,,0,,,57,95
257549,note_on,0,0,0,,0,,,72,95
257549,note_on,0,0,0,,1,,,66,127
257788,note_off,239,0,0,,1,,,66,127
257788,note_off,0,0,0,,0,,,72,95
257788,note_off,0,0,0,,0,,,57,95
257789,note_on,1,0,0,,0,,,55,95
257789,note_on,0,0,0,,0,,,71,95
257789,note_on,0,0,0,,1,,,64,127
258028,note_off,239,0,0,,1,,,64,127
258028,note_off,0,0,0,,0,,,71,95
258028,note_off,0,0,0,,0,,,55,95
258029,note_on,1,0,0,,0,,,57,95
258029,note_on,0,0,0,,0,,,66,95
258029,note_on,0,0,0,,1,,,69,127
258148,note_off,119,0,0,,1,,,69,127
258149,note_on,1,0,0,,1,,,66,127
258268,note_off,119,0,0,,1,,,66,127
258268,note_off,0,0,0,,0,,,66,95
258268,note_off,0,0,0,,0,,,57,95
258269,note_on,1,0,0,,0,,,59,95
258269,note_on,0,0,0,,0,,,64,95
258269,note_on,0,0,0,,1,,,67,127
258508,note_off,239,0,0,,1,,,67,127
258508,note_off,0,0,0,,0,,,64,95
258508,note_off,0,0,0,,0,,,59,95
258509,note_on,1,0,0,,0,,,47,95
258509,note_on,0,0,0,,0,,,63,95
258509,note_on,0,0,0,,1,,,66,127
258748,note_off,239,0,0,,1,,,66,127
258748,note_off,0,0,0,,0,,,63,95
258748,note_off,0,0,0,,0,,,47,95
258749,note_on,1,0,0,,0,,,52,95
258749,note_on,0,0,0,,0,,,64,95
258749,note_on,0,0,0,,1,,,64,127
258988,note_off,239,0,0,,1,,,64,127
258988,note_off,0,0,0,,0,,,52,95
258989,note_on,1,0,0,,0,,,52,95
258989,note_on,0,0,0,,1,,,64,127
259108,note_off,119,0,0,,0,,,64,95
259109,note_on,1,0,0,,1,,,66,127
259228,note_off,119,0,0,,1,,,66,127
259228,note_off,0,0,0,,1,,,64,127
259228,note_off,0,0,0,,0,,,52,95
259229,note_on,1,0,0,,0,,,50,95
259229,note_on,0,0,0,,0,,,66,95
259229,note_on,0,0,0,,1,,,67,127
259348,note_off,119,0,0,,1,,,67,127
259349,note_on,1,0,0,,1,,,66,127
259468,note_off,119,0,0,,1,,,66,127
259468,note_off,0,0,0,,0,,,66,95
259468,note_off,0,0,0,,0,,,50,95
259469,note_on,1,0,0,,0,,,48,95
259469,note_on,0,0,0,,0,,,64,95
259469,note_on,0,0,0,,1,,,64,127
259708,note_off,239,0,0,,1,,,64,127
259708,note_off,0,0,0,,0,,,64,95
259708,note_off,0,0,0,,0,,,48,95
259709,note_on,1,0,0,,0,,,47,95
259709,note_on,0,0,0,,0,,,62,95
259709,note_on,0,0,0,,1,,,64,127
259828,note_off,119,0,0,,1,,,64,127
259829,note_on,1,0,0,,1,,,66,127
259948,note_off,119,0,0,,1,,,66,127
259948,note_off,0,0,0,,0,,,62,95
259948,note_off,0,0,0,,0,,,47,95
259949,note_on,1,0,0,,0,,,45,95
259949,note_on,0,0,0,,0,,,60,95
259949,note_on,0,0,0,,1,,,67,127
260068,note_off,119,0,0,,1,,,67,127
260069,note_on,1,0,0,,1,,,69,127
260188,note_off,119,0,0,,1,,,69,127
260188,note_off,0,0,0,,0,,,60,95
260188,note_off,0,0,0,,0,,,45,95
260189,note_on,1,0,0,,0,,,43,95
260189,note_on,0,0,0,,0,,,59,95
260189,note_on,0,0,0,,1,,,71,127
260438,note_off,249,0,0,,1,,,71,127
260438,note_off,0,0,0,,0,,,59,95
260438,note_off,0,0,0,,0,,,43,95
260439,note_on,1,0,0,,0,,,55,95
260439,note_on,0,0,0,,0,,,59,95
260439,note_on,0,0,0,,1,,,76,127
260563,note_off,124,0,0,,1,,,76,127
260564,note_on,1,0,0,,1,,,78,127
260688,note_off,124,0,0,,1,,,78,127
260688,note_off,0,0,0,,0,,,59,95
260688,note_off,0,0,0,,0,,,55,95
260689,note_on,1,0,0,,0,,,52,95
260689,note_on,0,0,0,,0,,,67,95
260689,note_on,0,0,0,,1,,,79,127
260813,note_off,124,0,0,,1,,,79,127
260814,note_on,1,0,0,,1,,,76,127
260938,note_off,124,0,0,,1,,,76,127
260938,note_off,0,0,0,,0,,,67,95
260938,note_off,0,0,0,,0,,,52,95
260939,note_on,1,0,0,,0,,,57,95
260939,note_on,0,0,0,,0,,,69,95
260939,note_on,0,0,0,,1,,,78,127
261219,note_off,280,0,0,,1,,,78,127
261219,note_off,0,0,0,,0,,,69,95
261219,note_off,0,0,0,,0,,,57,95
261220,note_on,1,0,0,,0,,,59,95
261220,note_on,0,0,0,,0,,,71,95
261220,note_on,0,0,0,,1,,,71,127
261500,note_off,280,0,0,,1,,,71,127
261500,note_off,0,0,0,,0,,,71,95
261500,note_off,0,0,0,,0,,,59,95
261501,note_on,1,0,0,,0,,,47,95
261501,note_on,0,0,0,,0,,,59,95
261501,note_on,0,0,0,,1,,,75,127
261781,note_off,280,0,0,,1,,,75,127
261781,note_off,0,0,0,,0,,,59,95
261781,note_off,0,0,0,,0,,,47,95
261814,note_on,33,0,0,,0,,,52,95
261814,note_on,0,0,0,,0,,,64,95
261814,note_on,0,0,0,,1,,,76,127
263499,note_off,1685,0,0,,1,,,76,127
263499,note_off,0,0,0,,0,,,64,95
263499,note_off,0,0,0,,0,,,52,95
265728,end_of_track,2229,1,0,,,,,,
