tick,type,time,meta,track,program,channel,pitch,tempo,note,velocity
0,copyright,0,1,0,,,,,,
0,program_change,0,0,0,6,0,,,,
0,pitchwheel,0,0,0,,0,0,,,
0,program_change,0,0,0,6,1,,,,
0,pitchwheel,0,0,0,,1,-590,,,
0,program_change,0,0,0,6,2,,,,
0,pitchwheel,0,0,0,,2,-272,,,
0,program_change,0,0,0,6,3,,,,
0,pitchwheel,0,0,0,,3,-353,,,
0,program_change,0,0,0,6,4,,,,
0,pitchwheel,0,0,0,,4,-560,,,
0,program_change,0,0,0,6,5,,,,
0,pitchwheel,0,0,0,,5,-80,,,
0,program_change,0,0,0,6,6,,,,
0,pitchwheel,0,0,0,,6,-625,,,
0,program_change,0,0,0,6,7,,,,
0,pitchwheel,0,0,0,,7,-130,,,
0,program_change,0,0,0,6,8,,,,
0,pitchwheel,0,0,0,,8,-512,,,
0,program_change,0,0,0,6,10,,,,
0,pitchwheel,0,0,0,,10,-464,,,
0,program_change,0,0,0,6,11,,,,
0,pitchwheel,0,0,0,,11,-208,,,
0,program_change,0,0,0,6,12,,,,
0,pitchwheel,0,0,0,,12,-553,,,
0,set_tempo,0,1,0,,,,500000,,
105,note_on,105,0,0,,5,,,65,127
312,note_off,207,0,0,,5,,,65,127
314,note_on,2,0,0,,5,,,65,127
521,note_off,207,0,0,,5,,,65,127
523,note_on,2,0,0,,5,,,65,127
730,note_off,207,0,0,,5,,,65,127
732,note_on,2,0,0,,10,,,69,127
939,note_off,207,0,0,,10,,,69,127
941,note_on,2,0,0,,10,,,69,127
1148,note_off,207,0,0,,10,,,69,127
1150,note_on,2,0,0,,10,,,69,127
1357,note_off,207,0,0,,10,,,69,127
1359,note_on,2,0,0,,0,,,72,127
1566,note_off,207,0,0,,0,,,72,127
1568,note_on,2,0,0,,0,,,72,127
1775,note_off,207,0,0,,0,,,72,127
1777,note_on,2,0,0,,0,,,72,127
1984,note_off,207,0,0,,0,,,72,127
1986,note_on,2,0,0,,5,,,65,127
2091,note_on,105,0,0,,5,,,77,127
2196,note_on,105,0,0,,4,,,76,127
2222,note_off,26,0,0,,5,,,77,127
2301,note_on,79,0,0,,5,,,77,127
2327,note_off,26,0,0,,4,,,76,127
2404,note_off,77,0,0,,5,,,65,127
2405,note_on,1,0,0,,0,,,72,127
2477,note_off,72,0,0,,5,,,77,127
2510,note_on,33,0,0,,5,,,77,127
2582,note_off,72,0,0,,0,,,72,127
2615,note_on,33,0,0,,2,,,74,127
2687,note_off,72,0,0,,5,,,77,127
2720,note_on,33,0,0,,5,,,77,127
2792,note_off,72,0,0,,2,,,74,127
2825,note_on,33,0,0,,0,,,72,127
2897,note_off,72,0,0,,5,,,77,127
2930,note_on,33,0,0,,5,,,77,127
3002,note_off,72,0,0,,0,,,72,127
3035,note_on,33,0,0,,11,,,70,127
3107,note_off,72,0,0,,5,,,77,127
3140,note_on,33,0,0,,5,,,77,127
3212,note_off,72,0,0,,11,,,70,127
3245,note_on,33,0,0,,0,,,72,127
3317,note_off,72,0,0,,5,,,77,127
3350,note_on,33,0,0,,5,,,77,127
3422,note_off,72,0,0,,0,,,72,127
3455,note_on,33,0,0,,11,,,70,127
3527,note_off,72,0,0,,5,,,77,127
3560,note_on,33,0,0,,5,,,77,127
3632,note_off,72,0,0,,11,,,70,127
3665,note_on,33,0,0,,10,,,69,127
3737,note_off,72,0,0,,5,,,77,127
3770,note_on,33,0,0,,5,,,77,127
3842,note_off,72,0,0,,10,,,69,127
3875,note_on,33,0,0,,11,,,70,127
3947,note_off,72,0,0,,5,,,77,127
3980,note_on,33,0,0,,5,,,77,127
4052,note_off,72,0,0,,11,,,70,127
4085,note_on,33,0,0,,10,,,69,127
4157,note_off,72,0,0,,5,,,77,127
4190,note_on,33,0,0,,5,,,77,127
4262,note_off,72,0,0,,10,,,69,127
4295,note_on,33,0,0,,7,,,67,127
4367,note_off,72,0,0,,5,,,77,127
4400,note_on,33,0,0,,5,,,77,127
4472,note_off,72,0,0,,7,,,67,127
4505,note_on,33,0,0,,10,,,69,127
4577,note_off,72,0,0,,5,,,77,127
4610,note_on,33,0,0,,5,,,77,127
4682,note_off,72,0,0,,10,,,69,127
4715,note_on,33,0,0,,7,,,67,127
4787,note_off,72,0,0,,5,,,77,127
4820,note_on,33,0,0,,5,,,77,127
4892,note_off,72,0,0,,7,,,67,127
4925,note_on,33,0,0,,5,,,65,127
4997,note_off,72,0,0,,5,,,77,127
5030,note_on,33,0,0,,5,,,77,127
5102,note_off,72,0,0,,5,,,65,127
5134,note_off,32,0,0,,5,,,77,127
5135,note_on,1,0,0,,11,,,70,127
5342,note_off,207,0,0,,11,,,70,127
5344,note_on,2,0,0,,7,,,67,127
5551,note_off,207,0,0,,7,,,67,127
5553,note_on,2,0,0,,0,,,72,127
5760,note_off,207,0,0,,0,,,72,127
5762,note_on,2,0,0,,5,,,65,127
5866,note_off,104,0,0,,5,,,65,127
5867,note_on,1,0,0,,7,,,67,127
5971,note_off,104,0,0,,7,,,67,127
5972,note_on,1,0,0,,10,,,69,127
6179,note_off,207,0,0,,10,,,69,127
6181,note_on,2,0,0,,12,,,71,127
6388,note_off,207,0,0,,12,,,71,127
6390,note_on,2,0,0,,0,,,60,127
6390,note_on,0,0,0,,0,,,72,127
6597,note_off,207,0,0,,0,,,60,127
6599,note_on,2,0,0,,0,,,60,127
6806,note_off,207,0,0,,0,,,60,127
6808,note_on,2,0,0,,0,,,60,127
7015,note_off,207,0,0,,0,,,60,127
7017,note_on,2,0,0,,4,,,64,127
7224,note_off,207,0,0,,4,,,64,127
7225,note_off,1,0,0,,0,,,72,127
7226,note_on,1,0,0,,4,,,64,127
7226,note_on,0,0,0,,0,,,72,127
7433,note_off,207,0,0,,0,,,72,127
7433,note_off,0,0,0,,4,,,64,127
7435,note_on,2,0,0,,4,,,64,127
7435,note_on,0,0,0,,4,,,76,127
7642,note_off,207,0,0,,4,,,76,127
7642,note_off,0,0,0,,4,,,64,127
7644,note_on,2,0,0,,7,,,67,127
7644,note_on,0,0,0,,2,,,74,127
7851,note_off,207,0,0,,2,,,74,127
7851,note_off,0,0,0,,7,,,67,127
7853,note_on,2,0,0,,7,,,67,127
7853,note_on,0,0,0,,7,,,79,127
8060,note_off,207,0,0,,7,,,79,127
8060,note_off,0,0,0,,7,,,67,127
8062,note_on,2,0,0,,7,,,67,127
8062,note_on,0,0,0,,2,,,74,127
8269,note_off,207,0,0,,2,,,74,127
8269,note_off,0,0,0,,7,,,67,127
8271,note_on,2,0,0,,0,,,60,127
8271,note_on,0,0,0,,4,,,76,127
8376,note_on,105,0,0,,0,,,72,127
8481,note_on,105,0,0,,12,,,71,127
8507,note_off,26,0,0,,0,,,72,127
8586,note_on,79,0,0,,0,,,72,127
8612,note_off,26,0,0,,12,,,71,127
8689,note_off,77,0,0,,4,,,76,127
8689,note_off,0,0,0,,0,,,60,127
8690,note_on,1,0,0,,7,,,67,127
8690,note_on,0,0,0,,7,,,79,127
8762,note_off,72,0,0,,0,,,72,127
8795,note_on,33,0,0,,0,,,72,127
8867,note_off,72,0,0,,7,,,67,127
8898,note_off,31,0,0,,7,,,79,127
8900,note_on,2,0,0,,10,,,69,127
8900,note_on,0,0,0,,0,,,84,127
8972,note_off,72,0,0,,0,,,72,127
9005,note_on,33,0,0,,0,,,72,127
9077,note_off,72,0,0,,10,,,69,127
9108,note_off,31,0,0,,0,,,84,127
9110,note_on,2,0,0,,7,,,67,127
9110,note_on,0,0,0,,12,,,83,127
9182,note_off,72,0,0,,0,,,72,127
9215,note_on,33,0,0,,0,,,72,127
9287,note_off,72,0,0,,7,,,67,127
9318,note_off,31,0,0,,12,,,83,127
9320,note_on,2,0,0,,5,,,65,127
9320,note_on,0,0,0,,10,,,81,127
9392,note_off,72,0,0,,0,,,72,127
9425,note_on,33,0,0,,0,,,72,127
9497,note_off,72,0,0,,5,,,65,127
9528,note_off,31,0,0,,10,,,81,127
9530,note_on,2,0,0,,7,,,67,127
9530,note_on,0,0,0,,12,,,83,127
9602,note_off,72,0,0,,0,,,72,127
9635,note_on,33,0,0,,0,,,72,127
9707,note_off,72,0,0,,7,,,67,127
9738,note_off,31,0,0,,12,,,83,127
9740,note_on,2,0,0,,5,,,65,127
9740,note_on,0,0,0,,10,,,81,127
9812,note_off,72,0,0,,0,,,72,127
9845,note_on,33,0,0,,0,,,72,127
9917,note_off,72,0,0,,5,,,65,127
9948,note_off,31,0,0,,10,,,81,127
9950,note_on,2,0,0,,4,,,64,127
9950,note_on,0,0,0,,7,,,79,127
10022,note_off,72,0,0,,0,,,72,127
10055,note_on,33,0,0,,0,,,72,127
10127,note_off,72,0,0,,4,,,64,127
10158,note_off,31,0,0,,7,,,79,127
10160,note_on,2,0,0,,5,,,65,127
10160,note_on,0,0,0,,10,,,81,127
10232,note_off,72,0,0,,0,,,72,127
10265,note_on,33,0,0,,0,,,72,127
10337,note_off,72,0,0,,5,,,65,127
10368,note_off,31,0,0,,10,,,81,127
10370,note_on,2,0,0,,4,,,64,127
10370,note_on,0,0,0,,7,,,79,127
10442,note_off,72,0,0,,0,,,72,127
10475,note_on,33,0,0,,0,,,72,127
10547,note_off,72,0,0,,4,,,64,127
10578,note_off,31,0,0,,7,,,79,127
10580,note_on,2,0,0,,2,,,62,127
10580,note_on,0,0,0,,5,,,77,127
10652,note_off,72,0,0,,0,,,72,127
10685,note_on,33,0,0,,0,,,72,127
10757,note_off,72,0,0,,2,,,62,127
10788,note_off,31,0,0,,5,,,77,127
10790,note_on,2,0,0,,4,,,64,127
10790,note_on,0,0,0,,7,,,79,127
10862,note_off,72,0,0,,0,,,72,127
10895,note_on,33,0,0,,0,,,72,127
10967,note_off,72,0,0,,4,,,64,127
10998,note_off,31,0,0,,7,,,79,127
11000,note_on,2,0,0,,2,,,62,127
11000,note_on,0,0,0,,5,,,77,127
11072,note_off,72,0,0,,0,,,72,127
11105,note_on,33,0,0,,0,,,72,127
11177,note_off,72,0,0,,2,,,62,127
11208,note_off,31,0,0,,5,,,77,127
11210,note_on,2,0,0,,0,,,60,127
11210,note_on,0,0,0,,4,,,76,127
11282,note_off,72,0,0,,0,,,72,127
11315,note_on,33,0,0,,0,,,72,127
11387,note_off,72,0,0,,0,,,60,127
11418,note_off,31,0,0,,4,,,76,127
11419,note_off,1,0,0,,0,,,72,127
11420,note_on,1,0,0,,5,,,65,127
11420,note_on,0,0,0,,2,,,74,127
11627,note_off,207,0,0,,2,,,74,127
11627,note_off,0,0,0,,5,,,65,127
11629,note_on,2,0,0,,2,,,62,127
11629,note_on,0,0,0,,0,,,72,127
11836,note_off,207,0,0,,0,,,72,127
11836,note_off,0,0,0,,2,,,62,127
11838,note_on,2,0,0,,7,,,67,127
11838,note_on,0,0,0,,12,,,71,127
12045,note_off,207,0,0,,12,,,71,127
12045,note_off,0,0,0,,7,,,67,127
12047,note_on,2,0,0,,0,,,60,127
12047,note_on,0,0,0,,0,,,72,127
12152,note_on,105,0,0,,11,,,70,127
12224,note_off,72,0,0,,0,,,72,127
12255,note_off,31,0,0,,0,,,60,127
12256,note_off,1,0,0,,11,,,70,127
12257,note_on,1,0,0,,2,,,62,127
12257,note_on,0,0,0,,0,,,72,127
12309,note_on,52,0,0,,11,,,70,127
12326,note_off,17,0,0,,0,,,72,127
12361,note_on,35,0,0,,0,,,72,127
12378,note_off,17,0,0,,11,,,70,127
12413,note_on,35,0,0,,11,,,70,127
12430,note_off,17,0,0,,0,,,72,127
12463,note_off,33,0,0,,2,,,62,127
12465,note_on,2,0,0,,4,,,64,127
12465,note_on,0,0,0,,0,,,72,127
12482,note_off,17,0,0,,11,,,70,127
12517,note_on,35,0,0,,11,,,70,127
12534,note_off,17,0,0,,0,,,72,127
12569,note_on,35,0,0,,10,,,69,127
12586,note_off,17,0,0,,11,,,70,127
12621,note_on,35,0,0,,11,,,70,127
12638,note_off,17,0,0,,10,,,69,127
12671,note_off,33,0,0,,4,,,64,127
12672,note_off,1,0,0,,11,,,70,127
12673,note_on,1,0,0,,5,,,65,127
12673,note_on,0,0,0,,5,,,53,127
12673,note_on,0,0,0,,10,,,69,127
12880,note_off,207,0,0,,10,,,69,127
12880,note_off,0,0,0,,5,,,53,127
12880,note_off,0,0,0,,5,,,65,127
12882,note_on,2,0,0,,5,,,41,127
12882,note_on,0,0,0,,5,,,53,127
12882,note_on,0,0,0,,5,,,65,127
12987,note_on,105,0,0,,7,,,67,127
13013,note_off,26,0,0,,5,,,65,127
13089,note_off,76,0,0,,5,,,53,127
13089,note_off,0,0,0,,5,,,41,127
13091,note_on,2,0,0,,5,,,41,127
13091,note_on,0,0,0,,5,,,53,127
13091,note_on,0,0,0,,10,,,69,127
13117,note_off,26,0,0,,7,,,67,127
13196,note_on,79,0,0,,11,,,70,127
13222,note_off,26,0,0,,10,,,69,127
13298,note_off,76,0,0,,5,,,53,127
13298,note_off,0,0,0,,5,,,41,127
13299,note_off,1,0,0,,11,,,70,127
13300,note_on,1,0,0,,10,,,57,127
13300,note_on,0,0,0,,0,,,72,127
13507,note_off,207,0,0,,0,,,72,127
13507,note_off,0,0,0,,10,,,57,127
13509,note_on,2,0,0,,10,,,57,127
13509,note_on,0,0,0,,5,,,65,127
13716,note_off,207,0,0,,5,,,65,127
13716,note_off,0,0,0,,10,,,57,127
13718,note_on,2,0,0,,10,,,57,127
13718,note_on,0,0,0,,5,,,77,127
13925,note_off,207,0,0,,5,,,77,127
13925,note_off,0,0,0,,10,,,57,127
13927,note_on,2,0,0,,0,,,60,127
13927,note_on,0,0,0,,4,,,76,127
14134,note_off,207,0,0,,4,,,76,127
14134,note_off,0,0,0,,0,,,60,127
14136,note_on,2,0,0,,0,,,60,127
14136,note_on,0,0,0,,0,,,72,127
14343,note_off,207,0,0,,0,,,72,127
14343,note_off,0,0,0,,0,,,60,127
14345,note_on,2,0,0,,0,,,60,127
14345,note_on,0,0,0,,7,,,79,127
14345,note_on,0,0,0,,4,,,76,127
14552,note_off,207,0,0,,4,,,76,127
14552,note_off,0,0,0,,7,,,79,127
14552,note_off,0,0,0,,0,,,60,127
14554,note_on,2,0,0,,5,,,53,127
14554,note_on,0,0,0,,5,,,77,127
14554,note_on,0,0,0,,10,,,81,127
14659,note_on,105,0,0,,5,,,65,127
14764,note_on,105,0,0,,4,,,64,127
14836,note_off,72,0,0,,5,,,65,127
14869,note_on,33,0,0,,5,,,65,127
14941,note_off,72,0,0,,4,,,64,127
14973,note_off,32,0,0,,10,,,81,127
14973,note_off,0,0,0,,5,,,77,127
14973,note_off,0,0,0,,5,,,53,127
14974,note_on,1,0,0,,0,,,60,127
14974,note_on,0,0,0,,5,,,77,127
15046,note_off,72,0,0,,5,,,65,127
15079,note_on,33,0,0,,5,,,65,127
15151,note_off,72,0,0,,0,,,60,127
15182,note_off,31,0,0,,5,,,77,127
15184,note_on,2,0,0,,2,,,62,127
15184,note_on,0,0,0,,7,,,79,127
15236,note_on,52,0,0,,5,,,77,127
15253,note_off,17,0,0,,7,,,79,127
15255,note_off,2,0,0,,5,,,65,127
15288,note_on,33,0,0,,5,,,65,127
15288,note_on,0,0,0,,7,,,79,127
15305,note_off,17,0,0,,5,,,77,127
15340,note_on,35,0,0,,5,,,77,127
15357,note_off,17,0,0,,7,,,79,127
15359,note_off,2,0,0,,2,,,62,127
15392,note_on,33,0,0,,0,,,60,127
15392,note_on,0,0,0,,7,,,79,127
15409,note_off,17,0,0,,5,,,77,127
15444,note_on,35,0,0,,5,,,77,127
15461,note_off,17,0,0,,7,,,79,127
15463,note_off,2,0,0,,5,,,65,127
15496,note_on,33,0,0,,5,,,65,127
15496,note_on,0,0,0,,7,,,79,127
15513,note_off,17,0,0,,5,,,77,127
15548,note_on,35,0,0,,5,,,77,127
15565,note_off,17,0,0,,7,,,79,127
15567,note_off,2,0,0,,0,,,60,127
15600,note_on,33,0,0,,11,,,58,127
15600,note_on,0,0,0,,7,,,79,127
15617,note_off,17,0,0,,5,,,77,127
15652,note_on,35,0,0,,5,,,77,127
15669,note_off,17,0,0,,7,,,79,127
15671,note_off,2,0,0,,5,,,65,127
15704,note_on,33,0,0,,5,,,65,127
15704,note_on,0,0,0,,7,,,79,127
15721,note_off,17,0,0,,5,,,77,127
15756,note_on,35,0,0,,5,,,77,127
15773,note_off,17,0,0,,7,,,79,127
15775,note_off,2,0,0,,11,,,58,127
15808,note_on,33,0,0,,0,,,60,127
15808,note_on,0,0,0,,7,,,79,127
15825,note_off,17,0,0,,5,,,77,127
15860,note_on,35,0,0,,5,,,77,127
15877,note_off,17,0,0,,7,,,79,127
15879,note_off,2,0,0,,5,,,65,127
15912,note_on,33,0,0,,5,,,65,127
15912,note_on,0,0,0,,7,,,79,127
15929,note_off,17,0,0,,5,,,77,127
15964,note_on,35,0,0,,5,,,77,127
15981,note_off,17,0,0,,7,,,79,127
15983,note_off,2,0,0,,0,,,60,127
16016,note_on,33,0,0,,11,,,58,127
16016,note_on,0,0,0,,7,,,79,127
16033,note_off,17,0,0,,5,,,77,127
16068,note_on,35,0,0,,5,,,77,127
16085,note_off,17,0,0,,7,,,79,127
16087,note_off,2,0,0,,5,,,65,127
16120,note_on,33,0,0,,5,,,65,127
16120,note_on,0,0,0,,7,,,79,127
16137,note_off,17,0,0,,5,,,77,127
16172,note_on,35,0,0,,5,,,77,127
16189,note_off,17,0,0,,7,,,79,127
16191,note_off,2,0,0,,11,,,58,127
16224,note_on,33,0,0,,10,,,57,127
16224,note_on,0,0,0,,7,,,79,127
16241,note_off,17,0,0,,5,,,77,127
16276,note_on,35,0,0,,5,,,77,127
16293,note_off,17,0,0,,7,,,79,127
16295,note_off,2,0,0,,5,,,65,127
16328,note_on,33,0,0,,5,,,65,127
16328,note_on,0,0,0,,7,,,79,127
16345,note_off,17,0,0,,5,,,77,127
16380,note_on,35,0,0,,5,,,77,127
16397,note_off,17,0,0,,7,,,79,127
16399,note_off,2,0,0,,10,,,57,127
16432,note_on,33,0,0,,11,,,58,127
16432,note_on,0,0,0,,7,,,79,127
16449,note_off,17,0,0,,5,,,77,127
16484,note_on,35,0,0,,5,,,77,127
16501,note_off,17,0,0,,7,,,79,127
16503,note_off,2,0,0,,5,,,65,127
16536,note_on,33,0,0,,5,,,65,127
16536,note_on,0,0,0,,7,,,79,127
16553,note_off,17,0,0,,5,,,77,127
16588,note_on,35,0,0,,5,,,77,127
16605,note_off,17,0,0,,7,,,79,127
16607,note_off,2,0,0,,11,,,58,127
16640,note_on,33,0,0,,10,,,57,127
16640,note_on,0,0,0,,7,,,79,127
16657,note_off,17,0,0,,5,,,77,127
16692,note_on,35,0,0,,5,,,77,127
16709,note_off,17,0,0,,7,,,79,127
16711,note_off,2,0,0,,5,,,65,127
16744,note_on,33,0,0,,5,,,65,127
16744,note_on,0,0,0,,7,,,79,127
16761,note_off,17,0,0,,5,,,77,127
16796,note_on,35,0,0,,5,,,77,127
16813,note_off,17,0,0,,7,,,79,127
16815,note_off,2,0,0,,10,,,57,127
16848,note_on,33,0,0,,7,,,55,127
16848,note_on,0,0,0,,7,,,79,127
16865,note_off,17,0,0,,5,,,77,127
16900,note_on,35,0,0,,5,,,77,127
16917,note_off,17,0,0,,7,,,79,127
16919,note_off,2,0,0,,5,,,65,127
16952,note_on,33,0,0,,5,,,65,127
16952,note_on,0,0,0,,7,,,79,127
16969,note_off,17,0,0,,5,,,77,127
17004,note_on,35,0,0,,5,,,77,127
17021,note_off,17,0,0,,7,,,79,127
17023,note_off,2,0,0,,7,,,55,127
17056,note_on,33,0,0,,10,,,57,127
17056,note_on,0,0,0,,7,,,79,127
17073,note_off,17,0,0,,5,,,77,127
17108,note_on,35,0,0,,5,,,77,127
17125,note_off,17,0,0,,7,,,79,127
17127,note_off,2,0,0,,5,,,65,127
17160,note_on,33,0,0,,5,,,65,127
17160,note_on,0,0,0,,7,,,79,127
17177,note_off,17,0,0,,5,,,77,127
17212,note_on,35,0,0,,5,,,77,127
17229,note_off,17,0,0,,7,,,79,127
17231,note_off,2,0,0,,10,,,57,127
17264,note_on,33,0,0,,7,,,55,127
17264,note_on,0,0,0,,7,,,79,127
17281,note_off,17,0,0,,5,,,77,127
17316,note_on,35,0,0,,5,,,77,127
17333,note_off,17,0,0,,7,,,79,127
17335,note_off,2,0,0,,5,,,65,127
17368,note_on,33,0,0,,5,,,65,127
17368,note_on,0,0,0,,7,,,79,127
17385,note_off,17,0,0,,5,,,77,127
17420,note_on,35,0,0,,5,,,77,127
17437,note_off,17,0,0,,7,,,79,127
17439,note_off,2,0,0,,7,,,55,127
17472,note_on,33,0,0,,5,,,53,127
17472,note_on,0,0,0,,7,,,79,127
17489,note_off,17,0,0,,5,,,77,127
17524,note_on,35,0,0,,5,,,77,127
17541,note_off,17,0,0,,7,,,79,127
17543,note_off,2,0,0,,5,,,65,127
17576,note_on,33,0,0,,5,,,65,127
17576,note_on,0,0,0,,4,,,76,127
17593,note_off,17,0,0,,5,,,77,127
17628,note_on,35,0,0,,5,,,77,127
17645,note_off,17,0,0,,4,,,76,127
17647,note_off,2,0,0,,5,,,53,127
17680,note_off,33,0,0,,5,,,77,127
17680,note_on,0,0,0,,11,,,58,127
17680,note_on,0,0,0,,7,,,79,127
17680,note_on,0,0,0,,11,,,70,127
17752,note_off,72,0,0,,5,,,65,127
17887,note_off,135,0,0,,11,,,70,127
17887,note_off,0,0,0,,7,,,79,127
17887,note_off,0,0,0,,11,,,58,127
17889,note_on,2,0,0,,7,,,55,127
17889,note_on,0,0,0,,5,,,77,127
17889,note_on,0,0,0,,10,,,69,127
18096,note_off,207,0,0,,10,,,69,127
18096,note_off,0,0,0,,5,,,77,127
18096,note_off,0,0,0,,7,,,55,127
18098,note_on,2,0,0,,0,,,60,127
18098,note_on,0,0,0,,4,,,76,127
18098,note_on,0,0,0,,7,,,67,127
18305,note_off,207,0,0,,7,,,67,127
18305,note_off,0,0,0,,4,,,76,127
18305,note_off,0,0,0,,0,,,60,127
18307,note_on,2,0,0,,5,,,53,127
18307,note_on,0,0,0,,5,,,77,127
18307,note_on,0,0,0,,10,,,69,127
18412,note_on,105,0,0,,7,,,55,127
18438,note_off,26,0,0,,5,,,53,127
18514,note_off,76,0,0,,5,,,77,127
18516,note_on,2,0,0,,10,,,57,127
18516,note_on,0,0,0,,0,,,72,127
18542,note_off,26,0,0,,7,,,55,127
18723,note_off,181,0,0,,0,,,72,127
18723,note_off,0,0,0,,10,,,57,127
18724,note_off,1,0,0,,10,,,69,127
18725,note_on,1,0,0,,12,,,59,127
18725,note_on,0,0,0,,10,,,69,127
18725,note_on,0,0,0,,5,,,77,127
18932,note_off,207,0,0,,5,,,77,127
18932,note_off,0,0,0,,10,,,69,127
18932,note_off,0,0,0,,12,,,59,127
18934,note_on,2,0,0,,0,,,48,127
18934,note_on,0,0,0,,7,,,67,127
18934,note_on,0,0,0,,4,,,76,127
19141,note_off,207,0,0,,4,,,76,127
19141,note_off,0,0,0,,7,,,67,127
19141,note_off,0,0,0,,0,,,48,127
19143,note_on,2,0,0,,0,,,48,127
19143,note_on,0,0,0,,4,,,76,127
19143,note_on,0,0,0,,0,,,72,127
19350,note_off,207,0,0,,0,,,72,127
19350,note_off,0,0,0,,4,,,76,127
19350,note_off,0,0,0,,0,,,48,127
19352,note_on,2,0,0,,0,,,48,127
19352,note_on,0,0,0,,4,,,76,127
19352,note_on,0,0,0,,7,,,79,127
19559,note_off,207,0,0,,0,,,48,127
19561,note_on,2,0,0,,4,,,52,127
19768,note_off,207,0,0,,4,,,52,127
19769,note_off,1,0,0,,7,,,79,127
19769,note_off,0,0,0,,4,,,76,127
19770,note_on,1,0,0,,4,,,52,127
19770,note_on,0,0,0,,7,,,79,127
19770,note_on,0,0,0,,7,,,67,127
19977,note_off,207,0,0,,7,,,67,127
19977,note_off,0,0,0,,7,,,79,127
19977,note_off,0,0,0,,4,,,52,127
19979,note_on,2,0,0,,4,,,52,127
19979,note_on,0,0,0,,4,,,76,127
19979,note_on,0,0,0,,0,,,72,127
20186,note_off,207,0,0,,0,,,72,127
20186,note_off,0,0,0,,4,,,76,127
20186,note_off,0,0,0,,4,,,52,127
20188,note_on,2,0,0,,7,,,55,127
20188,note_on,0,0,0,,12,,,71,127
20188,note_on,0,0,0,,2,,,74,127
20395,note_off,207,0,0,,2,,,74,127
20395,note_off,0,0,0,,12,,,71,127
20395,note_off,0,0,0,,7,,,55,127
20397,note_on,2,0,0,,7,,,55,127
20397,note_on,0,0,0,,7,,,67,127
20397,note_on,0,0,0,,7,,,79,127
20604,note_off,207,0,0,,7,,,79,127
20604,note_off,0,0,0,,7,,,67,127
20604,note_off,0,0,0,,7,,,55,127
20606,note_on,2,0,0,,7,,,55,127
20606,note_on,0,0,0,,2,,,74,127
20606,note_on,0,0,0,,12,,,71,127
20813,note_off,207,0,0,,12,,,71,127
20813,note_off,0,0,0,,2,,,74,127
20813,note_off,0,0,0,,7,,,55,127
20815,note_on,2,0,0,,0,,,48,127
20815,note_on,0,0,0,,4,,,76,127
20815,note_on,0,0,0,,0,,,72,127
20920,note_on,105,0,0,,0,,,60,127
21025,note_on,105,0,0,,12,,,59,127
21051,note_off,26,0,0,,0,,,60,127
21130,note_on,79,0,0,,0,,,60,127
21156,note_off,26,0,0,,12,,,59,127
21233,note_off,77,0,0,,0,,,72,127
21233,note_off,0,0,0,,4,,,76,127
21233,note_off,0,0,0,,0,,,48,127
21234,note_on,1,0,0,,7,,,55,127
21234,note_on,0,0,0,,7,,,79,127
21306,note_off,72,0,0,,0,,,60,127
21339,note_on,33,0,0,,0,,,60,127
21411,note_off,72,0,0,,7,,,55,127
21442,note_off,31,0,0,,7,,,79,127
21444,note_on,2,0,0,,10,,,57,127
21444,note_on,0,0,0,,2,,,74,127
21496,note_on,52,0,0,,0,,,72,127
21513,note_off,17,0,0,,2,,,74,127
21515,note_off,2,0,0,,0,,,60,127
21548,note_on,33,0,0,,0,,,60,127
21548,note_on,0,0,0,,2,,,74,127
21565,note_off,17,0,0,,0,,,72,127
21600,note_on,35,0,0,,0,,,72,127
21617,note_off,17,0,0,,2,,,74,127
21619,note_off,2,0,0,,10,,,57,127
21652,note_on,33,0,0,,7,,,55,127
21652,note_on,0,0,0,,2,,,74,127
21669,note_off,17,0,0,,0,,,72,127
21704,note_on,35,0,0,,0,,,72,127
21721,note_off,17,0,0,,2,,,74,127
21723,note_off,2,0,0,,0,,,60,127
21756,note_on,33,0,0,,0,,,60,127
21756,note_on,0,0,0,,2,,,74,127
21773,note_off,17,0,0,,0,,,72,127
21808,note_on,35,0,0,,0,,,72,127
21825,note_off,17,0,0,,2,,,74,127
21827,note_off,2,0,0,,7,,,55,127
21860,note_on,33,0,0,,5,,,53,127
21860,note_on,0,0,0,,2,,,74,127
21877,note_off,17,0,0,,0,,,72,127
21912,note_on,35,0,0,,0,,,72,127
21929,note_off,17,0,0,,2,,,74,127
21931,note_off,2,0,0,,0,,,60,127
21964,note_on,33,0,0,,0,,,60,127
21964,note_on,0,0,0,,2,,,74,127
21981,note_off,17,0,0,,0,,,72,127
22016,note_on,35,0,0,,0,,,72,127
22033,note_off,17,0,0,,2,,,74,127
22035,note_off,2,0,0,,5,,,53,127
22068,note_on,33,0,0,,7,,,55,127
22068,note_on,0,0,0,,2,,,74,127
22085,note_off,17,0,0,,0,,,72,127
22120,note_on,35,0,0,,0,,,72,127
22137,note_off,17,0,0,,2,,,74,127
22139,note_off,2,0,0,,0,,,60,127
22172,note_on,33,0,0,,0,,,60,127
22172,note_on,0,0,0,,2,,,74,127
22189,note_off,17,0,0,,0,,,72,127
22224,note_on,35,0,0,,0,,,72,127
22241,note_off,17,0,0,,2,,,74,127
22243,note_off,2,0,0,,7,,,55,127
22276,note_on,33,0,0,,5,,,53,127
22276,note_on,0,0,0,,2,,,74,127
22293,note_off,17,0,0,,0,,,72,127
22328,note_on,35,0,0,,0,,,72,127
22345,note_off,17,0,0,,2,,,74,127
22347,note_off,2,0,0,,0,,,60,127
22380,note_on,33,0,0,,0,,,60,127
22380,note_on,0,0,0,,2,,,74,127
22397,note_off,17,0,0,,0,,,72,127
22432,note_on,35,0,0,,0,,,72,127
22449,note_off,17,0,0,,2,,,74,127
22451,note_off,2,0,0,,5,,,53,127
22484,note_on,33,0,0,,4,,,52,127
22484,note_on,0,0,0,,2,,,74,127
22501,note_off,17,0,0,,0,,,72,127
22536,note_on,35,0,0,,0,,,72,127
22553,note_off,17,0,0,,2,,,74,127
22555,note_off,2,0,0,,0,,,60,127
22588,note_on,33,0,0,,0,,,60,127
22588,note_on,0,0,0,,2,,,74,127
22605,note_off,17,0,0,,0,,,72,127
22640,note_on,35,0,0,,0,,,72,127
22657,note_off,17,0,0,,2,,,74,127
22659,note_off,2,0,0,,4,,,52,127
22692,note_on,33,0,0,,5,,,53,127
22692,note_on,0,0,0,,2,,,74,127
22709,note_off,17,0,0,,0,,,72,127
22744,note_on,35,0,0,,0,,,72,127
22761,note_off,17,0,0,,2,,,74,127
22763,note_off,2,0,0,,0,,,60,127
22796,note_on,33,0,0,,0,,,60,127
22796,note_on,0,0,0,,2,,,74,127
22813,note_off,17,0,0,,0,,,72,127
22848,note_on,35,0,0,,0,,,72,127
22865,note_off,17,0,0,,2,,,74,127
22867,note_off,2,0,0,,5,,,53,127
22900,note_on,33,0,0,,4,,,52,127
22900,note_on,0,0,0,,2,,,74,127
22917,note_off,17,0,0,,0,,,72,127
22952,note_on,35,0,0,,0,,,72,127
22969,note_off,17,0,0,,2,,,74,127
22971,note_off,2,0,0,,0,,,60,127
23004,note_on,33,0,0,,0,,,60,127
23004,note_on,0,0,0,,2,,,74,127
23021,note_off,17,0,0,,0,,,72,127
23056,note_on,35,0,0,,0,,,72,127
23073,note_off,17,0,0,,2,,,74,127
23075,note_off,2,0,0,,4,,,52,127
23108,note_on,33,0,0,,2,,,50,127
23108,note_on,0,0,0,,2,,,74,127
23125,note_off,17,0,0,,0,,,72,127
23160,note_on,35,0,0,,0,,,72,127
23177,note_off,17,0,0,,2,,,74,127
23179,note_off,2,0,0,,0,,,60,127
23212,note_on,33,0,0,,0,,,60,127
23212,note_on,0,0,0,,12,,,71,127
23229,note_off,17,0,0,,0,,,72,127
23264,note_on,35,0,0,,0,,,72,127
23281,note_off,17,0,0,,12,,,71,127
23283,note_off,2,0,0,,2,,,50,127
23314,note_off,31,0,0,,0,,,72,127
23316,note_on,2,0,0,,4,,,52,127
23316,note_on,0,0,0,,0,,,72,127
23388,note_off,72,0,0,,0,,,60,127
23421,note_on,33,0,0,,0,,,60,127
23493,note_off,72,0,0,,4,,,52,127
23524,note_off,31,0,0,,0,,,72,127
23526,note_on,2,0,0,,2,,,50,127
23526,note_on,0,0,0,,2,,,74,127
23526,note_on,0,0,0,,12,,,71,127
23598,note_off,72,0,0,,0,,,60,127
23631,note_on,33,0,0,,0,,,60,127
23703,note_off,72,0,0,,2,,,50,127
23734,note_off,31,0,0,,12,,,71,127
23734,note_off,0,0,0,,2,,,74,127
23736,note_on,2,0,0,,0,,,48,127
23736,note_on,0,0,0,,4,,,76,127
23736,note_on,0,0,0,,0,,,72,127
23808,note_off,72,0,0,,0,,,60,127
23841,note_on,33,0,0,,0,,,60,127
23913,note_off,72,0,0,,0,,,48,127
23944,note_off,31,0,0,,0,,,72,127
23944,note_off,0,0,0,,4,,,76,127
23946,note_on,2,0,0,,5,,,53,127
23946,note_on,0,0,0,,5,,,65,127
23946,note_on,0,0,0,,2,,,74,127
24018,note_off,72,0,0,,0,,,60,127
24153,note_off,135,0,0,,2,,,74,127
24153,note_off,0,0,0,,5,,,65,127
24153,note_off,0,0,0,,5,,,53,127
24155,note_on,2,0,0,,2,,,50,127
24155,note_on,0,0,0,,4,,,64,127
24155,note_on,0,0,0,,0,,,72,127
24362,note_off,207,0,0,,0,,,72,127
24362,note_off,0,0,0,,4,,,64,127
24362,note_off,0,0,0,,2,,,50,127
24364,note_on,2,0,0,,7,,,55,127
24364,note_on,0,0,0,,12,,,71,127
24364,note_on,0,0,0,,2,,,62,127
24571,note_off,207,0,0,,2,,,62,127
24571,note_off,0,0,0,,12,,,71,127
24571,note_off,0,0,0,,7,,,55,127
24573,note_on,2,0,0,,0,,,48,127
24573,note_on,0,0,0,,0,,,72,127
24573,note_on,0,0,0,,4,,,64,127
24678,note_on,105,0,0,,0,,,60,127
24750,note_off,72,0,0,,0,,,48,127
24781,note_off,31,0,0,,4,,,64,127
24783,note_on,2,0,0,,2,,,50,127
24783,note_on,0,0,0,,5,,,65,127
24855,note_off,72,0,0,,0,,,60,127
24888,note_on,33,0,0,,0,,,60,127
24960,note_off,72,0,0,,2,,,50,127
24991,note_off,31,0,0,,5,,,65,127
24992,note_off,1,0,0,,0,,,72,127
24993,note_on,1,0,0,,4,,,52,127
24993,note_on,0,0,0,,11,,,70,127
24993,note_on,0,0,0,,7,,,67,127
25065,note_off,72,0,0,,0,,,60,127
25098,note_on,33,0,0,,0,,,60,127
25170,note_off,72,0,0,,4,,,52,127
25201,note_off,31,0,0,,7,,,67,127
25201,note_off,0,0,0,,11,,,70,127
25203,note_on,2,0,0,,5,,,41,127
25203,note_on,0,0,0,,5,,,53,127
25203,note_on,0,0,0,,10,,,69,127
25275,note_off,72,0,0,,0,,,60,127
25308,note_on,33,0,0,,5,,,77,127
25380,note_off,72,0,0,,10,,,69,127
25411,note_off,31,0,0,,5,,,53,127
25411,note_off,0,0,0,,5,,,41,127
25413,note_on,2,0,0,,7,,,43,127
25413,note_on,0,0,0,,7,,,55,127
25413,note_on,0,0,0,,4,,,76,127
25439,note_off,26,0,0,,5,,,77,127
25518,note_on,79,0,0,,5,,,77,127
25544,note_off,26,0,0,,4,,,76,127
25620,note_off,76,0,0,,7,,,55,127
25620,note_off,0,0,0,,7,,,43,127
25622,note_on,2,0,0,,10,,,57,127
25622,note_on,0,0,0,,10,,,45,127
25622,note_on,0,0,0,,0,,,72,127
25694,note_off,72,0,0,,5,,,77,127
25727,note_on,33,0,0,,5,,,77,127
25799,note_off,72,0,0,,0,,,72,127
25830,note_off,31,0,0,,10,,,45,127
25830,note_off,0,0,0,,10,,,57,127
25832,note_on,2,0,0,,11,,,58,127
25832,note_on,0,0,0,,2,,,74,127
25904,note_off,72,0,0,,5,,,77,127
25937,note_on,33,0,0,,5,,,77,127
26009,note_off,72,0,0,,2,,,74,127
26040,note_off,31,0,0,,11,,,58,127
26042,note_on,2,0,0,,10,,,57,127
26042,note_on,0,0,0,,0,,,72,127
26114,note_off,72,0,0,,5,,,77,127
26147,note_on,33,0,0,,5,,,77,127
26219,note_off,72,0,0,,0,,,72,127
26250,note_off,31,0,0,,10,,,57,127
26252,note_on,2,0,0,,7,,,55,127
26252,note_on,0,0,0,,11,,,70,127
26324,note_off,72,0,0,,5,,,77,127
26357,note_on,33,0,0,,5,,,77,127
26429,note_off,72,0,0,,11,,,70,127
26460,note_off,31,0,0,,7,,,55,127
26462,note_on,2,0,0,,10,,,57,127
26462,note_on,0,0,0,,0,,,72,127
26534,note_off,72,0,0,,5,,,77,127
26567,note_on,33,0,0,,5,,,65,127
26639,note_off,72,0,0,,10,,,57,127
26672,note_on,33,0,0,,4,,,64,127
26698,note_off,26,0,0,,5,,,65,127
26777,note_on,79,0,0,,5,,,65,127
26803,note_off,26,0,0,,4,,,64,127
26880,note_off,77,0,0,,0,,,72,127
26881,note_on,1,0,0,,0,,,60,127
26881,note_on,0,0,0,,0,,,72,127
26953,note_off,72,0,0,,5,,,65,127
26986,note_on,33,0,0,,5,,,65,127
27058,note_off,72,0,0,,0,,,60,127
27089,note_off,31,0,0,,0,,,72,127
27091,note_on,2,0,0,,2,,,62,127
27091,note_on,0,0,0,,7,,,79,127
27143,note_on,52,0,0,,5,,,77,127
27160,note_off,17,0,0,,7,,,79,127
27162,note_off,2,0,0,,5,,,65,127
27195,note_on,33,0,0,,5,,,65,127
27195,note_on,0,0,0,,7,,,79,127
27212,note_off,17,0,0,,5,,,77,127
27247,note_on,35,0,0,,5,,,77,127
27264,note_off,17,0,0,,7,,,79,127
27266,note_off,2,0,0,,2,,,62,127
27299,note_on,33,0,0,,0,,,60,127
27299,note_on,0,0,0,,7,,,79,127
27316,note_off,17,0,0,,5,,,77,127
27351,note_on,35,0,0,,5,,,77,127
27368,note_off,17,0,0,,7,,,79,127
27370,note_off,2,0,0,,5,,,65,127
27403,note_on,33,0,0,,5,,,65,127
27403,note_on,0,0,0,,7,,,79,127
27420,note_off,17,0,0,,5,,,77,127
27455,note_on,35,0,0,,5,,,77,127
27472,note_off,17,0,0,,7,,,79,127
27474,note_off,2,0,0,,0,,,60,127
27507,note_on,33,0,0,,11,,,58,127
27507,note_on,0,0,0,,7,,,79,127
27524,note_off,17,0,0,,5,,,77,127
27559,note_on,35,0,0,,5,,,77,127
27576,note_off,17,0,0,,7,,,79,127
27578,note_off,2,0,0,,5,,,65,127
27611,note_on,33,0,0,,5,,,65,127
27611,note_on,0,0,0,,7,,,79,127
27628,note_off,17,0,0,,5,,,77,127
27663,note_on,35,0,0,,5,,,77,127
27680,note_off,17,0,0,,7,,,79,127
27682,note_off,2,0,0,,11,,,58,127
27715,note_on,33,0,0,,0,,,60,127
27715,note_on,0,0,0,,7,,,79,127
27732,note_off,17,0,0,,5,,,77,127
27767,note_on,35,0,0,,5,,,77,127
27784,note_off,17,0,0,,7,,,79,127
27786,note_off,2,0,0,,5,,,65,127
27819,note_on,33,0,0,,5,,,65,127
27819,note_on,0,0,0,,7,,,79,127
27836,note_off,17,0,0,,5,,,77,127
27871,note_on,35,0,0,,5,,,77,127
27888,note_off,17,0,0,,7,,,79,127
27890,note_off,2,0,0,,0,,,60,127
27923,note_on,33,0,0,,11,,,58,127
27923,note_on,0,0,0,,7,,,79,127
27940,note_off,17,0,0,,5,,,77,127
27975,note_on,35,0,0,,5,,,77,127
27992,note_off,17,0,0,,7,,,79,127
27994,note_off,2,0,0,,5,,,65,127
28027,note_on,33,0,0,,5,,,65,127
28027,note_on,0,0,0,,7,,,79,127
28044,note_off,17,0,0,,5,,,77,127
28079,note_on,35,0,0,,5,,,77,127
28096,note_off,17,0,0,,7,,,79,127
28098,note_off,2,0,0,,11,,,58,127
28131,note_on,33,0,0,,10,,,57,127
28131,note_on,0,0,0,,7,,,79,127
28148,note_off,17,0,0,,5,,,77,127
28183,note_on,35,0,0,,5,,,77,127
28200,note_off,17,0,0,,7,,,79,127
28202,note_off,2,0,0,,5,,,65,127
28235,note_on,33,0,0,,5,,,65,127
28235,note_on,0,0,0,,4,,,76,127
28252,note_off,17,0,0,,5,,,77,127
28287,note_on,35,0,0,,5,,,77,127
28304,note_off,17,0,0,,4,,,76,127
28306,note_off,2,0,0,,10,,,57,127
28339,note_on,33,0,0,,7,,,55,127
28339,note_on,0,0,0,,11,,,82,127
28339,note_on,0,0,0,,7,,,79,127
28356,note_off,17,0,0,,5,,,77,127
28411,note_off,55,0,0,,5,,,65,127
28444,note_on,33,0,0,,5,,,65,127
28516,note_off,72,0,0,,7,,,55,127
28547,note_off,31,0,0,,7,,,79,127
28547,note_off,0,0,0,,11,,,82,127
28549,note_on,2,0,0,,11,,,58,127
28549,note_on,0,0,0,,10,,,81,127
28549,note_on,0,0,0,,5,,,77,127
28621,note_off,72,0,0,,5,,,65,127
28654,note_on,33,0,0,,5,,,65,127
28726,note_off,72,0,0,,11,,,58,127
28757,note_off,31,0,0,,5,,,77,127
28757,note_off,0,0,0,,10,,,81,127
28759,note_on,2,0,0,,0,,,60,127
28759,note_on,0,0,0,,4,,,76,127
28759,note_on,0,0,0,,7,,,79,127
28831,note_off,72,0,0,,5,,,65,127
28864,note_on,33,0,0,,5,,,65,127
28936,note_off,72,0,0,,0,,,60,127
28967,note_off,31,0,0,,7,,,79,127
28967,note_off,0,0,0,,4,,,76,127
28969,note_on,2,0,0,,5,,,53,127
28969,note_on,0,0,0,,5,,,77,127
28969,note_on,0,0,0,,10,,,81,127
29041,note_off,72,0,0,,5,,,65,127
29074,note_on,33,0,0,,5,,,65,127
29146,note_off,72,0,0,,5,,,53,127
29177,note_off,31,0,0,,10,,,81,127
29177,note_off,0,0,0,,5,,,77,127
29179,note_on,2,0,0,,10,,,57,127
29179,note_on,0,0,0,,4,,,76,127
29179,note_on,0,0,0,,7,,,79,127
29251,note_off,72,0,0,,5,,,65,127
29284,note_on,33,0,0,,5,,,65,127
29356,note_off,72,0,0,,10,,,57,127
29387,note_off,31,0,0,,7,,,79,127
29387,note_off,0,0,0,,4,,,76,127
29389,note_on,2,0,0,,11,,,58,127
29389,note_on,0,0,0,,2,,,74,127
29389,note_on,0,0,0,,5,,,77,127
29461,note_off,72,0,0,,5,,,65,127
29494,note_on,33,0,0,,5,,,65,127
29566,note_off,72,0,0,,11,,,58,127
29597,note_off,31,0,0,,5,,,77,127
29597,note_off,0,0,0,,2,,,74,127
29598,note_off,1,0,0,,5,,,65,127
29599,note_on,1,0,0,,4,,,52,127
29599,note_on,0,0,0,,4,,,76,127
29599,note_on,0,0,0,,7,,,79,127
29704,note_on,105,0,0,,4,,,64,127
29776,note_off,72,0,0,,4,,,52,127
29807,note_off,31,0,0,,7,,,79,127
29807,note_off,0,0,0,,4,,,76,127
29809,note_on,2,0,0,,7,,,55,127
29809,note_on,0,0,0,,5,,,77,127
29809,note_on,0,0,0,,2,,,74,127
29881,note_off,72,0,0,,4,,,64,127
29914,note_on,33,0,0,,4,,,64,127
29986,note_off,72,0,0,,7,,,55,127
30017,note_off,31,0,0,,2,,,74,127
30017,note_off,0,0,0,,5,,,77,127
30019,note_on,2,0,0,,10,,,57,127
30019,note_on,0,0,0,,1,,,73,127
30019,note_on,0,0,0,,4,,,76,127
30091,note_off,72,0,0,,4,,,64,127
30124,note_on,33,0,0,,4,,,64,127
30196,note_off,72,0,0,,10,,,57,127
30227,note_off,31,0,0,,4,,,76,127
30227,note_off,0,0,0,,1,,,73,127
30228,note_off,1,0,0,,4,,,64,127
30229,note_on,1,0,0,,2,,,50,127
30229,note_on,0,0,0,,5,,,77,127
30229,note_on,0,0,0,,2,,,74,127
30436,note_off,207,0,0,,2,,,50,127
30438,note_on,2,0,0,,2,,,50,127
30645,note_off,207,0,0,,2,,,50,127
30647,note_on,2,0,0,,2,,,50,127
30854,note_off,207,0,0,,2,,,50,127
30856,note_on,2,0,0,,5,,,53,127
31063,note_off,207,0,0,,5,,,53,127
31064,note_off,1,0,0,,2,,,74,127
31064,note_off,0,0,0,,5,,,77,127
31065,note_on,1,0,0,,5,,,53,127
31065,note_on,0,0,0,,10,,,81,127
31065,note_on,0,0,0,,10,,,69,127
31272,note_off,207,0,0,,10,,,69,127
31272,note_off,0,0,0,,10,,,81,127
31272,note_off,0,0,0,,5,,,53,127
31274,note_on,2,0,0,,5,,,53,127
31274,note_on,0,0,0,,5,,,77,127
31274,note_on,0,0,0,,2,,,74,127
31481,note_off,207,0,0,,2,,,74,127
31481,note_off,0,0,0,,5,,,77,127
31481,note_off,0,0,0,,5,,,53,127
31483,note_on,2,0,0,,10,,,57,127
31483,note_on,0,0,0,,4,,,76,127
31483,note_on,0,0,0,,1,,,73,127
31690,note_off,207,0,0,,1,,,73,127
31690,note_off,0,0,0,,4,,,76,127
31690,note_off,0,0,0,,10,,,57,127
31692,note_on,2,0,0,,10,,,57,127
31692,note_on,0,0,0,,10,,,69,127
31692,note_on,0,0,0,,10,,,81,127
31899,note_off,207,0,0,,10,,,81,127
31899,note_off,0,0,0,,10,,,69,127
31899,note_off,0,0,0,,10,,,57,127
31901,note_on,2,0,0,,10,,,57,127
31901,note_on,0,0,0,,4,,,76,127
31901,note_on,0,0,0,,1,,,73,127
32108,note_off,207,0,0,,1,,,73,127
32108,note_off,0,0,0,,4,,,76,127
32108,note_off,0,0,0,,10,,,57,127
32110,note_on,2,0,0,,2,,,50,127
32110,note_on,0,0,0,,5,,,77,127
32110,note_on,0,0,0,,2,,,74,127
32215,note_on,105,0,0,,2,,,62,127
32320,note_on,105,0,0,,1,,,61,127
32346,note_off,26,0,0,,2,,,62,127
32425,note_on,79,0,0,,2,,,62,127
32451,note_off,26,0,0,,1,,,61,127
32528,note_off,77,0,0,,5,,,77,127
32528,note_off,0,0,0,,2,,,50,127
32529,note_on,1,0,0,,10,,,57,127
32529,note_on,0,0,0,,10,,,81,127
32601,note_off,72,0,0,,2,,,62,127
32634,note_on,33,0,0,,2,,,62,127
32706,note_off,72,0,0,,10,,,57,127
32737,note_off,31,0,0,,10,,,81,127
32738,note_off,1,0,0,,2,,,74,127
32739,note_on,1,0,0,,11,,,58,127
32739,note_on,0,0,0,,2,,,74,127
32811,note_off,72,0,0,,2,,,62,127
32844,note_on,33,0,0,,2,,,62,127
32916,note_off,72,0,0,,11,,,58,127
32949,note_on,33,0,0,,10,,,57,127
33021,note_off,72,0,0,,2,,,62,127
33054,note_on,33,0,0,,2,,,62,127
33126,note_off,72,0,0,,10,,,57,127
33159,note_on,33,0,0,,7,,,55,127
33159,note_on,0,0,0,,11,,,82,127
33231,note_off,72,0,0,,2,,,62,127
33264,note_on,33,0,0,,2,,,62,127
33336,note_off,72,0,0,,7,,,55,127
33367,note_off,31,0,0,,11,,,82,127
33368,note_off,1,0,0,,2,,,74,127
33369,note_on,1,0,0,,10,,,57,127
33369,note_on,0,0,0,,1,,,73,127
33441,note_off,72,0,0,,2,,,62,127
33474,note_on,33,0,0,,2,,,62,127
33546,note_off,72,0,0,,10,,,57,127
33579,note_on,33,0,0,,7,,,55,127
33651,note_off,72,0,0,,2,,,62,127
33684,note_on,33,0,0,,2,,,62,127
33756,note_off,72,0,0,,7,,,55,127
33788,note_off,32,0,0,,1,,,73,127
33789,note_on,1,0,0,,5,,,53,127
33789,note_on,0,0,0,,10,,,81,127
33861,note_off,72,0,0,,2,,,62,127
33894,note_on,33,0,0,,2,,,62,127
33966,note_off,72,0,0,,5,,,53,127
33997,note_off,31,0,0,,10,,,81,127
33999,note_on,2,0,0,,7,,,55,127
33999,note_on,0,0,0,,11,,,82,127
34071,note_off,72,0,0,,2,,,62,127
34104,note_on,33,0,0,,2,,,62,127
34176,note_off,72,0,0,,7,,,55,127
34207,note_off,31,0,0,,11,,,82,127
34209,note_on,2,0,0,,5,,,53,127
34209,note_on,0,0,0,,10,,,81,127
34281,note_off,72,0,0,,2,,,62,127
34314,note_on,33,0,0,,2,,,62,127
34386,note_off,72,0,0,,5,,,53,127
34417,note_off,31,0,0,,10,,,81,127
34419,note_on,2,0,0,,4,,,52,127
34419,note_on,0,0,0,,7,,,79,127
34491,note_off,72,0,0,,2,,,62,127
34524,note_on,33,0,0,,2,,,62,127
34596,note_off,72,0,0,,4,,,52,127
34627,note_off,31,0,0,,7,,,79,127
34629,note_on,2,0,0,,5,,,53,127
34629,note_on,0,0,0,,10,,,81,127
34701,note_off,72,0,0,,2,,,62,127
34734,note_on,33,0,0,,2,,,62,127
34806,note_off,72,0,0,,5,,,53,127
34837,note_off,31,0,0,,10,,,81,127
34839,note_on,2,0,0,,4,,,52,127
34839,note_on,0,0,0,,7,,,79,127
34911,note_off,72,0,0,,2,,,62,127
34944,note_on,33,0,0,,2,,,62,127
35016,note_off,72,0,0,,4,,,52,127
35047,note_off,31,0,0,,7,,,79,127
35049,note_on,2,0,0,,2,,,50,127
35049,note_on,0,0,0,,5,,,77,127
35121,note_off,72,0,0,,2,,,62,127
35154,note_on,33,0,0,,2,,,62,127
35226,note_off,72,0,0,,2,,,50,127
35257,note_off,31,0,0,,5,,,77,127
35259,note_on,2,0,0,,7,,,55,127
35259,note_on,0,0,0,,7,,,79,127
35259,note_on,0,0,0,,4,,,76,127
35331,note_off,72,0,0,,2,,,62,127
35466,note_off,135,0,0,,4,,,76,127
35466,note_off,0,0,0,,7,,,79,127
35466,note_off,0,0,0,,7,,,55,127
35468,note_on,2,0,0,,4,,,52,127
35468,note_on,0,0,0,,5,,,77,127
35468,note_on,0,0,0,,2,,,74,127
35675,note_off,207,0,0,,2,,,74,127
35675,note_off,0,0,0,,5,,,77,127
35675,note_off,0,0,0,,4,,,52,127
35677,note_on,2,0,0,,10,,,57,127
35677,note_on,0,0,0,,1,,,73,127
35677,note_on,0,0,0,,4,,,76,127
35884,note_off,207,0,0,,4,,,76,127
35884,note_off,0,0,0,,1,,,73,127
35884,note_off,0,0,0,,10,,,57,127
35886,note_on,2,0,0,,2,,,50,127
35886,note_on,0,0,0,,2,,,74,127
35886,note_on,0,0,0,,5,,,77,127
35991,note_on,105,0,0,,2,,,62,127
36063,note_off,72,0,0,,2,,,50,127
36096,note_on,33,0,0,,10,,,57,127
36168,note_off,72,0,0,,2,,,62,127
36201,note_on,33,0,0,,2,,,62,127
36273,note_off,72,0,0,,10,,,57,127
36306,note_on,33,0,0,,2,,,50,127
36378,note_off,72,0,0,,2,,,62,127
36411,note_on,33,0,0,,2,,,62,127
36483,note_off,72,0,0,,2,,,50,127
36515,note_off,32,0,0,,5,,,77,127
36515,note_off,0,0,0,,2,,,74,127
36516,note_on,1,0,0,,7,,,55,127
36516,note_on,0,0,0,,2,,,74,127
36516,note_on,0,0,0,,7,,,79,127
36568,note_on,52,0,0,,5,,,77,127
36585,note_off,17,0,0,,7,,,79,127
36587,note_off,2,0,0,,2,,,62,127
36620,note_on,33,0,0,,2,,,62,127
36620,note_on,0,0,0,,7,,,79,127
36637,note_off,17,0,0,,5,,,77,127
36672,note_on,35,0,0,,5,,,77,127
36689,note_off,17,0,0,,7,,,79,127
36691,note_off,2,0,0,,7,,,55,127
36724,note_on,33,0,0,,12,,,59,127
36724,note_on,0,0,0,,7,,,79,127
36741,note_off,17,0,0,,5,,,77,127
36776,note_on,35,0,0,,5,,,77,127
36793,note_off,17,0,0,,7,,,79,127
36795,note_off,2,0,0,,2,,,62,127
36828,note_on,33,0,0,,2,,,62,127
36828,note_on,0,0,0,,7,,,79,127
36845,note_off,17,0,0,,5,,,77,127
36880,note_on,35,0,0,,5,,,77,127
36897,note_off,17,0,0,,7,,,79,127
36899,note_off,2,0,0,,12,,,59,127
36932,note_on,33,0,0,,7,,,55,127
36932,note_on,0,0,0,,7,,,79,127
36949,note_off,17,0,0,,5,,,77,127
36984,note_on,35,0,0,,5,,,77,127
37001,note_off,17,0,0,,7,,,79,127
37003,note_off,2,0,0,,2,,,62,127
37036,note_on,33,0,0,,2,,,62,127
37036,note_on,0,0,0,,4,,,76,127
37053,note_off,17,0,0,,5,,,77,127
37088,note_on,35,0,0,,5,,,77,127
37105,note_off,17,0,0,,4,,,76,127
37107,note_off,2,0,0,,7,,,55,127
37139,note_off,32,0,0,,2,,,62,127
37139,note_off,0,0,0,,2,,,74,127
37140,note_on,1,0,0,,0,,,48,127
37140,note_on,0,0,0,,0,,,72,127
37140,note_on,0,0,0,,4,,,76,127
37157,note_off,17,0,0,,5,,,77,127
37244,note_on,87,0,0,,0,,,60,127
37316,note_off,72,0,0,,0,,,48,127
37349,note_on,33,0,0,,4,,,52,127
37421,note_off,72,0,0,,0,,,60,127
37454,note_on,33,0,0,,0,,,60,127
37526,note_off,72,0,0,,4,,,52,127
37559,note_on,33,0,0,,0,,,48,127
37631,note_off,72,0,0,,0,,,60,127
37664,note_on,33,0,0,,0,,,60,127
37736,note_off,72,0,0,,0,,,48,127
37768,note_off,32,0,0,,4,,,76,127
37768,note_off,0,0,0,,0,,,72,127
37769,note_on,1,0,0,,5,,,53,127
37769,note_on,0,0,0,,0,,,72,127
37769,note_on,0,0,0,,5,,,77,127
37821,note_on,52,0,0,,4,,,76,127
37838,note_off,17,0,0,,5,,,77,127
37840,note_off,2,0,0,,0,,,60,127
37873,note_on,33,0,0,,0,,,60,127
37873,note_on,0,0,0,,5,,,77,127
37890,note_off,17,0,0,,4,,,76,127
37925,note_on,35,0,0,,4,,,76,127
37942,note_off,17,0,0,,5,,,77,127
37944,note_off,2,0,0,,5,,,53,127
37977,note_on,33,0,0,,10,,,57,127
37977,note_on,0,0,0,,5,,,77,127
37994,note_off,17,0,0,,4,,,76,127
38029,note_on,35,0,0,,4,,,76,127
38046,note_off,17,0,0,,5,,,77,127
38048,note_off,2,0,0,,0,,,60,127
38081,note_on,33,0,0,,0,,,60,127
38081,note_on,0,0,0,,5,,,77,127
38098,note_off,17,0,0,,4,,,76,127
38133,note_on,35,0,0,,4,,,76,127
38150,note_off,17,0,0,,5,,,77,127
38152,note_off,2,0,0,,10,,,57,127
38185,note_on,33,0,0,,5,,,53,127
38185,note_on,0,0,0,,5,,,77,127
38202,note_off,17,0,0,,4,,,76,127
38237,note_on,35,0,0,,4,,,76,127
38254,note_off,17,0,0,,5,,,77,127
38256,note_off,2,0,0,,0,,,60,127
38289,note_on,33,0,0,,0,,,60,127
38289,note_on,0,0,0,,2,,,74,127
38306,note_off,17,0,0,,4,,,76,127
38341,note_on,35,0,0,,4,,,76,127
38358,note_off,17,0,0,,2,,,74,127
38360,note_off,2,0,0,,5,,,53,127
38392,note_off,32,0,0,,0,,,60,127
38392,note_off,0,0,0,,0,,,72,127
38393,note_on,1,0,0,,12,,,47,127
38393,note_on,0,0,0,,2,,,74,127
38393,note_on,0,0,0,,12,,,71,127
38410,note_off,17,0,0,,4,,,76,127
38497,note_on,87,0,0,,12,,,59,127
38569,note_off,72,0,0,,12,,,47,127
38602,note_on,33,0,0,,2,,,50,127
38674,note_off,72,0,0,,12,,,59,127
38707,note_on,33,0,0,,12,,,59,127
38779,note_off,72,0,0,,2,,,50,127
38812,note_on,33,0,0,,12,,,47,127
38884,note_off,72,0,0,,12,,,59,127
38917,note_on,33,0,0,,12,,,59,127
38989,note_off,72,0,0,,12,,,47,127
39021,note_off,32,0,0,,12,,,71,127
39021,note_off,0,0,0,,2,,,74,127
39022,note_on,1,0,0,,4,,,52,127
39022,note_on,0,0,0,,12,,,71,127
39022,note_on,0,0,0,,4,,,76,127
39074,note_on,52,0,0,,2,,,74,127
39091,note_off,17,0,0,,4,,,76,127
39093,note_off,2,0,0,,12,,,59,127
39126,note_on,33,0,0,,12,,,59,127
39126,note_on,0,0,0,,4,,,76,127
39143,note_off,17,0,0,,2,,,74,127
39178,note_on,35,0,0,,2,,,74,127
39195,note_off,17,0,0,,4,,,76,127
39197,note_off,2,0,0,,4,,,52,127
39230,note_on,33,0,0,,8,,,56,127
39230,note_on,0,0,0,,4,,,76,127
39247,note_off,17,0,0,,2,,,74,127
39282,note_on,35,0,0,,2,,,74,127
39299,note_off,17,0,0,,4,,,76,127
39301,note_off,2,0,0,,12,,,59,127
39334,note_on,33,0,0,,12,,,59,127
39334,note_on,0,0,0,,4,,,76,127
39351,note_off,17,0,0,,2,,,74,127
39386,note_on,35,0,0,,2,,,74,127
39403,note_off,17,0,0,,4,,,76,127
39405,note_off,2,0,0,,8,,,56,127
39438,note_on,33,0,0,,4,,,52,127
39438,note_on,0,0,0,,4,,,76,127
39455,note_off,17,0,0,,2,,,74,127
39490,note_on,35,0,0,,2,,,74,127
39507,note_off,17,0,0,,4,,,76,127
39509,note_off,2,0,0,,12,,,59,127
39542,note_on,33,0,0,,12,,,59,127
39542,note_on,0,0,0,,0,,,72,127
39559,note_off,17,0,0,,2,,,74,127
39594,note_on,35,0,0,,2,,,74,127
39611,note_off,17,0,0,,0,,,72,127
39613,note_off,2,0,0,,4,,,52,127
39645,note_off,32,0,0,,12,,,59,127
39645,note_off,0,0,0,,12,,,71,127
39646,note_off,1,0,0,,2,,,74,127
39646,note_on,0,0,0,,10,,,45,127
39646,note_on,0,0,0,,0,,,72,127
39646,note_on,0,0,0,,10,,,69,127
39853,note_off,207,0,0,,10,,,45,127
39855,note_on,2,0,0,,10,,,45,127
40062,note_off,207,0,0,,10,,,45,127
40064,note_on,2,0,0,,10,,,45,127
40271,note_off,207,0,0,,10,,,45,127
40273,note_on,2,0,0,,0,,,48,127
40480,note_off,207,0,0,,0,,,48,127
40481,note_off,1,0,0,,10,,,69,127
40481,note_off,0,0,0,,0,,,72,127
40482,note_on,1,0,0,,0,,,48,127
40482,note_on,0,0,0,,4,,,76,127
40482,note_on,0,0,0,,4,,,64,127
40689,note_off,207,0,0,,4,,,64,127
40689,note_off,0,0,0,,4,,,76,127
40689,note_off,0,0,0,,0,,,48,127
40691,note_on,2,0,0,,0,,,48,127
40691,note_on,0,0,0,,0,,,72,127
40691,note_on,0,0,0,,10,,,69,127
40898,note_off,207,0,0,,10,,,69,127
40898,note_off,0,0,0,,0,,,72,127
40898,note_off,0,0,0,,0,,,48,127
40900,note_on,2,0,0,,4,,,52,127
40900,note_on,0,0,0,,8,,,68,127
40900,note_on,0,0,0,,12,,,71,127
41107,note_off,207,0,0,,12,,,71,127
41107,note_off,0,0,0,,8,,,68,127
41107,note_off,0,0,0,,4,,,52,127
41109,note_on,2,0,0,,4,,,52,127
41109,note_on,0,0,0,,4,,,64,127
41109,note_on,0,0,0,,4,,,76,127
41316,note_off,207,0,0,,4,,,76,127
41316,note_off,0,0,0,,4,,,64,127
41316,note_off,0,0,0,,4,,,52,127
41318,note_on,2,0,0,,4,,,52,127
41318,note_on,0,0,0,,8,,,68,127
41318,note_on,0,0,0,,12,,,71,127
41525,note_off,207,0,0,,12,,,71,127
41525,note_off,0,0,0,,8,,,68,127
41525,note_off,0,0,0,,4,,,52,127
41527,note_on,2,0,0,,10,,,45,127
41527,note_on,0,0,0,,10,,,69,127
41527,note_on,0,0,0,,0,,,72,127
41632,note_on,105,0,0,,10,,,57,127
41737,note_on,105,0,0,,8,,,56,127
41763,note_off,26,0,0,,10,,,57,127
41842,note_on,79,0,0,,10,,,57,127
41868,note_off,26,0,0,,8,,,56,127
41945,note_off,77,0,0,,0,,,72,127
41945,note_off,0,0,0,,10,,,45,127
41946,note_on,1,0,0,,4,,,52,127
41946,note_on,0,0,0,,4,,,76,127
42018,note_off,72,0,0,,10,,,57,127
42051,note_on,33,0,0,,10,,,57,127
42123,note_off,72,0,0,,4,,,52,127
42154,note_off,31,0,0,,4,,,76,127
42155,note_off,1,0,0,,10,,,69,127
42156,note_on,1,0,0,,5,,,53,127
42156,note_on,0,0,0,,10,,,69,127
42228,note_off,72,0,0,,10,,,57,127
42261,note_on,33,0,0,,10,,,57,127
42333,note_off,72,0,0,,5,,,53,127
42366,note_on,33,0,0,,4,,,52,127
42438,note_off,72,0,0,,10,,,57,127
42471,note_on,33,0,0,,10,,,57,127
42543,note_off,72,0,0,,4,,,52,127
42576,note_on,33,0,0,,2,,,50,127
42576,note_on,0,0,0,,5,,,77,127
42648,note_off,72,0,0,,10,,,57,127
42681,note_on,33,0,0,,10,,,57,127
42753,note_off,72,0,0,,2,,,50,127
42784,note_off,31,0,0,,5,,,77,127
42785,note_off,1,0,0,,10,,,69,127
42786,note_on,1,0,0,,4,,,52,127
42786,note_on,0,0,0,,8,,,68,127
42858,note_off,72,0,0,,10,,,57,127
42891,note_on,33,0,0,,10,,,57,127
42963,note_off,72,0,0,,4,,,52,127
42996,note_on,33,0,0,,2,,,50,127
43068,note_off,72,0,0,,10,,,57,127
43101,note_on,33,0,0,,10,,,57,127
43173,note_off,72,0,0,,2,,,50,127
43205,note_off,32,0,0,,8,,,68,127
43206,note_on,1,0,0,,0,,,48,127
43206,note_on,0,0,0,,4,,,76,127
43278,note_off,72,0,0,,10,,,57,127
43311,note_on,33,0,0,,10,,,57,127
43383,note_off,72,0,0,,0,,,48,127
43414,note_off,31,0,0,,4,,,76,127
43416,note_on,2,0,0,,2,,,50,127
43416,note_on,0,0,0,,5,,,77,127
43488,note_off,72,0,0,,10,,,57,127
43521,note_on,33,0,0,,10,,,57,127
43593,note_off,72,0,0,,2,,,50,127
43624,note_off,31,0,0,,5,,,77,127
43626,note_on,2,0,0,,0,,,48,127
43626,note_on,0,0,0,,4,,,76,127
43698,note_off,72,0,0,,10,,,57,127
43731,note_on,33,0,0,,10,,,57,127
43803,note_off,72,0,0,,0,,,48,127
43834,note_off,31,0,0,,4,,,76,127
43836,note_on,2,0,0,,12,,,47,127
43836,note_on,0,0,0,,2,,,74,127
43908,note_off,72,0,0,,10,,,57,127
43941,note_on,33,0,0,,10,,,57,127
44013,note_off,72,0,0,,12,,,47,127
44044,note_off,31,0,0,,2,,,74,127
44046,note_on,2,0,0,,0,,,48,127
44046,note_on,0,0,0,,4,,,76,127
44118,note_off,72,0,0,,10,,,57,127
44151,note_on,33,0,0,,10,,,57,127
44223,note_off,72,0,0,,0,,,48,127
44254,note_off,31,0,0,,4,,,76,127
44256,note_on,2,0,0,,12,,,47,127
44256,note_on,0,0,0,,2,,,74,127
44328,note_off,72,0,0,,10,,,57,127
44361,note_on,33,0,0,,10,,,57,127
44433,note_off,72,0,0,,12,,,47,127
44464,note_off,31,0,0,,2,,,74,127
44466,note_on,2,0,0,,10,,,45,127
44466,note_on,0,0,0,,0,,,72,127
44538,note_off,72,0,0,,10,,,57,127
44571,note_on,33,0,0,,10,,,57,127
44643,note_off,72,0,0,,10,,,45,127
44674,note_off,31,0,0,,0,,,72,127
44675,note_off,1,0,0,,10,,,57,127
44676,note_on,1,0,0,,2,,,50,127
44676,note_on,0,0,0,,12,,,71,127
44676,note_on,0,0,0,,2,,,74,127
44883,note_off,207,0,0,,2,,,74,127
44883,note_off,0,0,0,,12,,,71,127
44883,note_off,0,0,0,,2,,,50,127
44885,note_on,2,0,0,,12,,,47,127
44885,note_on,0,0,0,,10,,,69,127
44885,note_on,0,0,0,,0,,,72,127
45092,note_off,207,0,0,,0,,,72,127
45092,note_off,0,0,0,,10,,,69,127
45092,note_off,0,0,0,,12,,,47,127
45094,note_on,2,0,0,,4,,,52,127
45094,note_on,0,0,0,,12,,,71,127
45094,note_on,0,0,0,,8,,,68,127
45301,note_off,207,0,0,,8,,,68,127
45301,note_off,0,0,0,,12,,,71,127
45301,note_off,0,0,0,,4,,,52,127
45303,note_on,2,0,0,,10,,,45,127
45303,note_on,0,0,0,,10,,,57,127
45303,note_on,0,0,0,,0,,,72,127
45303,note_on,0,0,0,,10,,,69,127
45408,note_on,105,0,0,,4,,,64,127
45480,note_off,72,0,0,,10,,,69,127
45480,note_off,0,0,0,,0,,,72,127
45511,note_off,31,0,0,,10,,,57,127
45511,note_off,0,0,0,,10,,,45,127
45513,note_on,2,0,0,,12,,,59,127
45513,note_on,0,0,0,,12,,,47,127
45513,note_on,0,0,0,,12,,,71,127
45513,note_on,0,0,0,,2,,,74,127
45585,note_off,72,0,0,,4,,,64,127
45618,note_on,33,0,0,,4,,,64,127
45690,note_off,72,0,0,,2,,,74,127
45690,note_off,0,0,0,,12,,,71,127
45721,note_off,31,0,0,,12,,,47,127
45721,note_off,0,0,0,,12,,,59,127
45723,note_on,2,0,0,,0,,,48,127
45723,note_on,0,0,0,,0,,,60,127
45723,note_on,0,0,0,,4,,,76,127
45723,note_on,0,0,0,,0,,,72,127
45795,note_off,72,0,0,,4,,,64,127
45828,note_on,33,0,0,,4,,,64,127
45900,note_off,72,0,0,,0,,,72,127
45900,note_off,0,0,0,,4,,,76,127
45931,note_off,31,0,0,,0,,,60,127
45931,note_off,0,0,0,,0,,,48,127
45932,note_off,1,0,0,,4,,,64,127
45933,note_on,1,0,0,,2,,,50,127
45933,note_on,0,0,0,,2,,,74,127
45933,note_on,0,0,0,,5,,,77,127
46038,note_on,105,0,0,,2,,,62,127
46110,note_off,72,0,0,,2,,,50,127
46143,note_on,33,0,0,,4,,,52,127
46215,note_off,72,0,0,,2,,,62,127
46248,note_on,33,0,0,,2,,,62,127
46320,note_off,72,0,0,,4,,,52,127
46353,note_on,33,0,0,,5,,,53,127
46425,note_off,72,0,0,,2,,,62,127
46458,note_on,33,0,0,,2,,,62,127
46530,note_off,72,0,0,,5,,,53,127
46562,note_off,32,0,0,,5,,,77,127
46562,note_off,0,0,0,,2,,,74,127
46563,note_on,1,0,0,,7,,,43,127
46563,note_on,0,0,0,,7,,,55,127
46563,note_on,0,0,0,,7,,,67,127
46563,note_on,0,0,0,,12,,,71,127
46635,note_off,72,0,0,,2,,,62,127
46668,note_on,33,0,0,,2,,,62,127
46740,note_off,72,0,0,,12,,,71,127
46740,note_off,0,0,0,,7,,,67,127
46771,note_off,31,0,0,,7,,,55,127
46771,note_off,0,0,0,,7,,,43,127
46773,note_on,2,0,0,,10,,,45,127
46773,note_on,0,0,0,,10,,,57,127
46773,note_on,0,0,0,,0,,,72,127
46773,note_on,0,0,0,,10,,,69,127
46845,note_off,72,0,0,,2,,,62,127
46878,note_on,33,0,0,,2,,,62,127
46950,note_off,72,0,0,,10,,,69,127
46950,note_off,0,0,0,,0,,,72,127
46981,note_off,31,0,0,,10,,,57,127
46981,note_off,0,0,0,,10,,,45,127
46983,note_on,2,0,0,,12,,,47,127
46983,note_on,0,0,0,,12,,,59,127
46983,note_on,0,0,0,,2,,,74,127
46983,note_on,0,0,0,,12,,,71,127
47055,note_off,72,0,0,,2,,,62,127
47088,note_on,33,0,0,,2,,,62,127
47160,note_off,72,0,0,,12,,,71,127
47160,note_off,0,0,0,,2,,,74,127
47191,note_off,31,0,0,,12,,,59,127
47191,note_off,0,0,0,,12,,,47,127
47192,note_off,1,0,0,,2,,,62,127
47193,note_on,1,0,0,,0,,,48,127
47193,note_on,0,0,0,,0,,,72,127
47193,note_on,0,0,0,,4,,,76,127
47298,note_on,105,0,0,,0,,,60,127
47370,note_off,72,0,0,,0,,,48,127
47403,note_on,33,0,0,,2,,,50,127
47475,note_off,72,0,0,,0,,,60,127
47508,note_on,33,0,0,,0,,,60,127
47580,note_off,72,0,0,,2,,,50,127
47613,note_on,33,0,0,,4,,,52,127
47685,note_off,72,0,0,,0,,,60,127
47718,note_on,33,0,0,,0,,,60,127
47790,note_off,72,0,0,,4,,,52,127
47818,note_off,28,0,0,,0,,,60,127
47822,note_off,4,0,0,,4,,,76,127
47822,note_off,0,0,0,,0,,,72,127
47823,note_on,1,0,0,,5,,,53,127
47823,note_on,0,0,0,,5,,,41,127
47823,note_on,0,0,0,,10,,,81,127
47823,note_on,0,0,0,,5,,,77,127
47928,note_on,105,0,0,,10,,,69,127
48000,note_off,72,0,0,,5,,,77,127
48000,note_off,0,0,0,,10,,,81,127
48033,note_on,33,0,0,,7,,,79,127
48033,note_on,0,0,0,,4,,,76,127
48105,note_off,72,0,0,,10,,,69,127
48138,note_on,33,0,0,,10,,,69,127
48210,note_off,72,0,0,,4,,,76,127
48210,note_off,0,0,0,,7,,,79,127
48243,note_on,33,0,0,,2,,,74,127
48243,note_on,0,0,0,,5,,,77,127
48315,note_off,72,0,0,,10,,,69,127
48348,note_on,33,0,0,,10,,,69,127
48420,note_off,72,0,0,,5,,,77,127
48420,note_off,0,0,0,,2,,,74,127
48452,note_off,32,0,0,,10,,,69,127
48452,note_off,0,0,0,,5,,,41,127
48452,note_off,0,0,0,,5,,,53,127
48453,note_on,1,0,0,,4,,,40,127
48453,note_on,0,0,0,,4,,,52,127
48453,note_on,0,0,0,,7,,,79,127
48453,note_on,0,0,0,,4,,,76,127
48558,note_on,105,0,0,,7,,,67,127
48630,note_off,72,0,0,,4,,,76,127
48630,note_off,0,0,0,,7,,,79,127
48663,note_on,33,0,0,,5,,,77,127
48663,note_on,0,0,0,,2,,,74,127
48735,note_off,72,0,0,,7,,,67,127
48768,note_on,33,0,0,,7,,,67,127
48840,note_off,72,0,0,,2,,,74,127
48840,note_off,0,0,0,,5,,,77,127
48872,note_off,32,0,0,,4,,,52,127
48872,note_off,0,0,0,,4,,,40,127
48873,note_on,1,0,0,,10,,,57,127
48873,note_on,0,0,0,,10,,,45,127
48873,note_on,0,0,0,,0,,,72,127
48873,note_on,0,0,0,,4,,,76,127
48945,note_off,72,0,0,,7,,,67,127
48978,note_on,33,0,0,,7,,,67,127
49050,note_off,72,0,0,,4,,,76,127
49050,note_off,0,0,0,,0,,,72,127
49081,note_off,31,0,0,,10,,,45,127
49081,note_off,0,0,0,,10,,,57,127
49083,note_on,2,0,0,,2,,,38,127
49083,note_on,0,0,0,,2,,,50,127
49083,note_on,0,0,0,,5,,,77,127
49083,note_on,0,0,0,,2,,,74,127
49155,note_off,72,0,0,,7,,,67,127
49188,note_on,33,0,0,,7,,,67,127
49260,note_off,72,0,0,,2,,,74,127
49260,note_off,0,0,0,,5,,,77,127
49293,note_on,33,0,0,,4,,,76,127
49293,note_on,0,0,0,,0,,,72,127
49365,note_off,72,0,0,,7,,,67,127
49398,note_on,33,0,0,,7,,,67,127
49470,note_off,72,0,0,,0,,,72,127
49470,note_off,0,0,0,,4,,,76,127
49502,note_off,32,0,0,,2,,,50,127
49502,note_off,0,0,0,,2,,,38,127
49503,note_on,1,0,0,,7,,,43,127
49503,note_on,0,0,0,,7,,,55,127
49503,note_on,0,0,0,,2,,,74,127
49503,note_on,0,0,0,,12,,,71,127
49575,note_off,72,0,0,,7,,,67,127
49608,note_on,33,0,0,,7,,,67,127
49680,note_off,72,0,0,,12,,,71,127
49680,note_off,0,0,0,,2,,,74,127
49711,note_off,31,0,0,,7,,,55,127
49711,note_off,0,0,0,,7,,,43,127
49713,note_on,2,0,0,,0,,,48,127
49713,note_on,0,0,0,,0,,,72,127
49713,note_on,0,0,0,,4,,,76,127
49785,note_off,72,0,0,,7,,,67,127
49920,note_off,135,0,0,,0,,,48,127
49922,note_on,2,0,0,,0,,,48,127
50129,note_off,207,0,0,,0,,,48,127
50131,note_on,2,0,0,,0,,,48,127
50338,note_off,207,0,0,,0,,,48,127
50340,note_on,2,0,0,,4,,,52,127
50547,note_off,207,0,0,,4,,,52,127
50548,note_off,1,0,0,,4,,,76,127
50548,note_off,0,0,0,,0,,,72,127
50549,note_on,1,0,0,,4,,,52,127
50549,note_on,0,0,0,,7,,,67,127
50549,note_on,0,0,0,,7,,,79,127
50756,note_off,207,0,0,,7,,,79,127
50756,note_off,0,0,0,,7,,,67,127
50756,note_off,0,0,0,,4,,,52,127
50758,note_on,2,0,0,,4,,,52,127
50758,note_on,0,0,0,,0,,,72,127
50758,note_on,0,0,0,,4,,,76,127
50965,note_off,207,0,0,,4,,,76,127
50965,note_off,0,0,0,,0,,,72,127
50965,note_off,0,0,0,,4,,,52,127
50967,note_on,2,0,0,,7,,,55,127
50967,note_on,0,0,0,,2,,,74,127
50967,note_on,0,0,0,,12,,,71,127
51174,note_off,207,0,0,,12,,,71,127
51174,note_off,0,0,0,,2,,,74,127
51174,note_off,0,0,0,,7,,,55,127
51176,note_on,2,0,0,,7,,,55,127
51176,note_on,0,0,0,,7,,,79,127
51176,note_on,0,0,0,,7,,,67,127
51383,note_off,207,0,0,,7,,,67,127
51383,note_off,0,0,0,,7,,,79,127
51383,note_off,0,0,0,,7,,,55,127
51385,note_on,2,0,0,,7,,,55,127
51385,note_on,0,0,0,,2,,,74,127
51385,note_on,0,0,0,,12,,,71,127
51592,note_off,207,0,0,,12,,,71,127
51592,note_off,0,0,0,,2,,,74,127
51592,note_off,0,0,0,,7,,,55,127
51594,note_on,2,0,0,,0,,,48,127
51594,note_on,0,0,0,,4,,,76,127
51594,note_on,0,0,0,,0,,,72,127
51699,note_on,105,0,0,,0,,,60,127
51804,note_on,105,0,0,,12,,,59,127
51830,note_off,26,0,0,,0,,,60,127
51909,note_on,79,0,0,,0,,,60,127
51935,note_off,26,0,0,,12,,,59,127
52012,note_off,77,0,0,,4,,,76,127
52012,note_off,0,0,0,,0,,,48,127
52013,note_on,1,0,0,,7,,,55,127
52013,note_on,0,0,0,,7,,,79,127
52085,note_off,72,0,0,,0,,,60,127
52118,note_on,33,0,0,,0,,,60,127
52190,note_off,72,0,0,,7,,,55,127
52221,note_off,31,0,0,,7,,,79,127
52222,note_off,1,0,0,,0,,,72,127
52223,note_on,1,0,0,,10,,,57,127
52223,note_on,0,0,0,,2,,,74,127
52275,note_on,52,0,0,,0,,,72,127
52292,note_off,17,0,0,,2,,,74,127
52294,note_off,2,0,0,,0,,,60,127
52327,note_on,33,0,0,,0,,,60,127
52327,note_on,0,0,0,,2,,,74,127
52344,note_off,17,0,0,,0,,,72,127
52379,note_on,35,0,0,,0,,,72,127
52396,note_off,17,0,0,,2,,,74,127
52398,note_off,2,0,0,,10,,,57,127
52431,note_on,33,0,0,,7,,,55,127
52431,note_on,0,0,0,,2,,,74,127
52448,note_off,17,0,0,,0,,,72,127
52483,note_on,35,0,0,,0,,,72,127
52500,note_off,17,0,0,,2,,,74,127
52502,note_off,2,0,0,,0,,,60,127
52535,note_on,33,0,0,,0,,,60,127
52535,note_on,0,0,0,,2,,,74,127
52552,note_off,17,0,0,,0,,,72,127
52587,note_on,35,0,0,,0,,,72,127
52604,note_off,17,0,0,,2,,,74,127
52606,note_off,2,0,0,,7,,,55,127
52639,note_on,33,0,0,,5,,,53,127
52639,note_on,0,0,0,,2,,,74,127
52656,note_off,17,0,0,,0,,,72,127
52691,note_on,35,0,0,,0,,,72,127
52708,note_off,17,0,0,,2,,,74,127
52710,note_off,2,0,0,,0,,,60,127
52743,note_on,33,0,0,,0,,,60,127
52743,note_on,0,0,0,,2,,,74,127
52760,note_off,17,0,0,,0,,,72,127
52795,note_on,35,0,0,,0,,,72,127
52812,note_off,17,0,0,,2,,,74,127
52814,note_off,2,0,0,,5,,,53,127
52847,note_on,33,0,0,,7,,,55,127
52847,note_on,0,0,0,,2,,,74,127
52864,note_off,17,0,0,,0,,,72,127
52899,note_on,35,0,0,,0,,,72,127
52916,note_off,17,0,0,,2,,,74,127
52918,note_off,2,0,0,,0,,,60,127
52951,note_on,33,0,0,,0,,,60,127
52951,note_on,0,0,0,,2,,,74,127
52968,note_off,17,0,0,,0,,,72,127
53003,note_on,35,0,0,,0,,,72,127
53020,note_off,17,0,0,,2,,,74,127
53022,note_off,2,0,0,,7,,,55,127
53055,note_on,33,0,0,,5,,,53,127
53055,note_on,0,0,0,,2,,,74,127
53072,note_off,17,0,0,,0,,,72,127
53107,note_on,35,0,0,,0,,,72,127
53124,note_off,17,0,0,,2,,,74,127
53126,note_off,2,0,0,,0,,,60,127
53159,note_on,33,0,0,,0,,,60,127
53159,note_on,0,0,0,,2,,,74,127
53176,note_off,17,0,0,,0,,,72,127
53211,note_on,35,0,0,,0,,,72,127
53228,note_off,17,0,0,,2,,,74,127
53230,note_off,2,0,0,,5,,,53,127
53263,note_on,33,0,0,,4,,,52,127
53263,note_on,0,0,0,,2,,,74,127
53280,note_off,17,0,0,,0,,,72,127
53315,note_on,35,0,0,,0,,,72,127
53332,note_off,17,0,0,,2,,,74,127
53334,note_off,2,0,0,,0,,,60,127
53367,note_on,33,0,0,,0,,,60,127
53367,note_on,0,0,0,,2,,,74,127
53384,note_off,17,0,0,,0,,,72,127
53419,note_on,35,0,0,,0,,,72,127
53436,note_off,17,0,0,,2,,,74,127
53438,note_off,2,0,0,,4,,,52,127
53471,note_on,33,0,0,,5,,,53,127
53471,note_on,0,0,0,,2,,,74,127
53488,note_off,17,0,0,,0,,,72,127
53523,note_on,35,0,0,,0,,,72,127
53540,note_off,17,0,0,,2,,,74,127
53542,note_off,2,0,0,,0,,,60,127
53575,note_on,33,0,0,,0,,,60,127
53575,note_on,0,0,0,,2,,,74,127
53592,note_off,17,0,0,,0,,,72,127
53627,note_on,35,0,0,,0,,,72,127
53644,note_off,17,0,0,,2,,,74,127
53646,note_off,2,0,0,,5,,,53,127
53679,note_on,33,0,0,,4,,,52,127
53679,note_on,0,0,0,,2,,,74,127
53696,note_off,17,0,0,,0,,,72,127
53731,note_on,35,0,0,,0,,,72,127
53748,note_off,17,0,0,,2,,,74,127
53750,note_off,2,0,0,,0,,,60,127
53783,note_on,33,0,0,,0,,,60,127
53783,note_on,0,0,0,,2,,,74,127
53800,note_off,17,0,0,,0,,,72,127
53835,note_on,35,0,0,,0,,,72,127
53852,note_off,17,0,0,,2,,,74,127
53854,note_off,2,0,0,,4,,,52,127
53887,note_on,33,0,0,,2,,,50,127
53887,note_on,0,0,0,,2,,,74,127
53904,note_off,17,0,0,,0,,,72,127
53939,note_on,35,0,0,,0,,,72,127
53956,note_off,17,0,0,,2,,,74,127
53958,note_off,2,0,0,,0,,,60,127
53991,note_on,33,0,0,,0,,,60,127
53991,note_on,0,0,0,,12,,,71,127
54008,note_off,17,0,0,,0,,,72,127
54043,note_on,35,0,0,,0,,,72,127
54060,note_off,17,0,0,,12,,,71,127
54062,note_off,2,0,0,,2,,,50,127
54093,note_off,31,0,0,,0,,,72,127
54095,note_on,2,0,0,,4,,,52,127
54095,note_on,0,0,0,,0,,,72,127
54167,note_off,72,0,0,,0,,,60,127
54200,note_on,33,0,0,,0,,,60,127
54272,note_off,72,0,0,,4,,,52,127
54303,note_off,31,0,0,,0,,,72,127
54305,note_on,2,0,0,,2,,,50,127
54305,note_on,0,0,0,,2,,,74,127
54305,note_on,0,0,0,,12,,,71,127
54377,note_off,72,0,0,,0,,,60,127
54410,note_on,33,0,0,,0,,,60,127
54482,note_off,72,0,0,,2,,,50,127
54513,note_off,31,0,0,,12,,,71,127
54513,note_off,0,0,0,,2,,,74,127
54515,note_on,2,0,0,,0,,,48,127
54515,note_on,0,0,0,,4,,,76,127
54515,note_on,0,0,0,,0,,,72,127
54587,note_off,72,0,0,,0,,,60,127
54620,note_on,33,0,0,,0,,,60,127
54692,note_off,72,0,0,,0,,,48,127
54723,note_off,31,0,0,,0,,,72,127
54723,note_off,0,0,0,,4,,,76,127
54724,note_off,1,0,0,,0,,,60,127
54725,note_on,1,0,0,,5,,,53,127
54725,note_on,0,0,0,,2,,,74,127
54725,note_on,0,0,0,,5,,,77,127
54830,note_on,105,0,0,,10,,,69,127
54902,note_off,72,0,0,,5,,,77,127
54902,note_off,0,0,0,,2,,,74,127
54933,note_off,31,0,0,,5,,,53,127
54935,note_on,2,0,0,,2,,,50,127
54935,note_on,0,0,0,,4,,,76,127
54935,note_on,0,0,0,,0,,,72,127
55007,note_off,72,0,0,,10,,,69,127
55040,note_on,33,0,0,,10,,,69,127
55112,note_off,72,0,0,,0,,,72,127
55112,note_off,0,0,0,,4,,,76,127
55143,note_off,31,0,0,,2,,,50,127
55144,note_off,1,0,0,,10,,,69,127
55145,note_on,1,0,0,,7,,,55,127
55145,note_on,0,0,0,,2,,,74,127
55145,note_on,0,0,0,,12,,,71,127
55250,note_on,105,0,0,,7,,,67,127
55322,note_off,72,0,0,,12,,,71,127
55322,note_off,0,0,0,,2,,,74,127
55353,note_off,31,0,0,,7,,,55,127
55355,note_on,2,0,0,,4,,,52,127
55355,note_on,0,0,0,,4,,,76,127
55355,note_on,0,0,0,,0,,,72,127
55427,note_off,72,0,0,,7,,,67,127
55460,note_on,33,0,0,,7,,,67,127
55532,note_off,72,0,0,,0,,,72,127
55532,note_off,0,0,0,,4,,,76,127
55563,note_off,31,0,0,,4,,,52,127
55565,note_on,2,0,0,,0,,,48,127
55565,note_on,0,0,0,,2,,,74,127
55565,note_on,0,0,0,,12,,,71,127
55637,note_off,72,0,0,,7,,,67,127
55670,note_on,33,0,0,,7,,,67,127
55742,note_off,72,0,0,,12,,,71,127
55742,note_off,0,0,0,,2,,,74,127
55773,note_off,31,0,0,,0,,,48,127
55774,note_off,1,0,0,,7,,,67,127
55775,note_on,1,0,0,,5,,,53,127
55775,note_on,0,0,0,,0,,,72,127
55775,note_on,0,0,0,,10,,,69,127
55880,note_on,105,0,0,,5,,,65,127
55952,note_off,72,0,0,,10,,,69,127
55952,note_off,0,0,0,,0,,,72,127
55983,note_off,31,0,0,,5,,,53,127
55985,note_on,2,0,0,,2,,,50,127
55985,note_on,0,0,0,,2,,,74,127
55985,note_on,0,0,0,,12,,,71,127
56057,note_off,72,0,0,,5,,,65,127
56090,note_on,33,0,0,,5,,,65,127
56162,note_off,72,0,0,,12,,,71,127
56162,note_off,0,0,0,,2,,,74,127
56193,note_off,31,0,0,,2,,,50,127
56195,note_on,2,0,0,,12,,,47,127
56195,note_on,0,0,0,,0,,,72,127
56195,note_on,0,0,0,,10,,,69,127
56267,note_off,72,0,0,,5,,,65,127
56300,note_on,33,0,0,,5,,,65,127
56372,note_off,72,0,0,,10,,,69,127
56372,note_off,0,0,0,,0,,,72,127
56403,note_off,31,0,0,,12,,,47,127
56404,note_off,1,0,0,,5,,,65,127
56405,note_on,1,0,0,,4,,,52,127
56405,note_on,0,0,0,,8,,,68,127
56405,note_on,0,0,0,,12,,,71,127
56510,note_on,105,0,0,,4,,,64,127
56582,note_off,72,0,0,,12,,,71,127
56582,note_off,0,0,0,,8,,,68,127
56613,note_off,31,0,0,,4,,,52,127
56614,note_off,1,0,0,,4,,,64,127
56615,note_on,1,0,0,,10,,,45,127
56615,note_on,0,0,0,,0,,,72,127
56615,note_on,0,0,0,,10,,,69,127
56720,note_on,105,0,0,,10,,,57,127
56792,note_off,72,0,0,,10,,,45,127
56825,note_on,33,0,0,,12,,,47,127
56897,note_off,72,0,0,,10,,,57,127
56930,note_on,33,0,0,,10,,,57,127
57002,note_off,72,0,0,,12,,,47,127
57035,note_on,33,0,0,,0,,,48,127
57107,note_off,72,0,0,,10,,,57,127
57140,note_on,33,0,0,,10,,,57,127
57212,note_off,72,0,0,,0,,,48,127
57244,note_off,32,0,0,,10,,,57,127
57244,note_off,0,0,0,,10,,,69,127
57244,note_off,0,0,0,,0,,,72,127
57245,note_on,1,0,0,,2,,,50,127
57245,note_on,0,0,0,,0,,,84,127
57245,note_on,0,0,0,,10,,,81,127
57350,note_on,105,0,0,,2,,,74,127
57422,note_off,72,0,0,,10,,,81,127
57422,note_off,0,0,0,,0,,,84,127
57455,note_on,33,0,0,,11,,,82,127
57455,note_on,0,0,0,,7,,,79,127
57527,note_off,72,0,0,,2,,,74,127
57560,note_on,33,0,0,,2,,,74,127
57632,note_off,72,0,0,,7,,,79,127
57632,note_off,0,0,0,,11,,,82,127
57665,note_on,33,0,0,,6,,,78,127
57665,note_on,0,0,0,,10,,,81,127
57737,note_off,72,0,0,,2,,,74,127
57770,note_on,33,0,0,,2,,,74,127
57842,note_off,72,0,0,,10,,,81,127
57842,note_off,0,0,0,,6,,,78,127
57874,note_off,32,0,0,,2,,,50,127
57875,note_on,1,0,0,,7,,,43,127
57875,note_on,0,0,0,,11,,,82,127
57875,note_on,0,0,0,,7,,,79,127
57947,note_off,72,0,0,,2,,,74,127
57980,note_on,33,0,0,,7,,,55,127
58052,note_off,72,0,0,,7,,,43,127
58085,note_on,33,0,0,,10,,,45,127
58157,note_off,72,0,0,,7,,,55,127
58190,note_on,33,0,0,,7,,,55,127
58262,note_off,72,0,0,,10,,,45,127
58295,note_on,33,0,0,,11,,,46,127
58367,note_off,72,0,0,,7,,,55,127
58400,note_on,33,0,0,,7,,,55,127
58472,note_off,72,0,0,,11,,,46,127
58504,note_off,32,0,0,,7,,,79,127
58504,note_off,0,0,0,,11,,,82,127
58505,note_on,1,0,0,,0,,,48,127
58505,note_on,0,0,0,,7,,,79,127
58505,note_on,0,0,0,,11,,,82,127
58577,note_off,72,0,0,,7,,,55,127
58610,note_on,33,0,0,,0,,,72,127
58682,note_off,72,0,0,,11,,,82,127
58682,note_off,0,0,0,,7,,,79,127
58715,note_on,33,0,0,,5,,,77,127
58715,note_on,0,0,0,,10,,,81,127
58787,note_off,72,0,0,,0,,,72,127
58820,note_on,33,0,0,,0,,,72,127
58892,note_off,72,0,0,,10,,,81,127
58892,note_off,0,0,0,,5,,,77,127
58925,note_on,33,0,0,,4,,,76,127
58925,note_on,0,0,0,,7,,,79,127
58997,note_off,72,0,0,,0,,,72,127
59030,note_on,33,0,0,,0,,,72,127
59102,note_off,72,0,0,,7,,,79,127
59102,note_off,0,0,0,,4,,,76,127
59134,note_off,32,0,0,,0,,,72,127
59134,note_off,0,0,0,,0,,,48,127
59135,note_on,1,0,0,,5,,,41,127
59135,note_on,0,0,0,,10,,,81,127
59135,note_on,0,0,0,,5,,,77,127
59240,note_on,105,0,0,,5,,,53,127
59312,note_off,72,0,0,,5,,,41,127
59345,note_on,33,0,0,,7,,,43,127
59417,note_off,72,0,0,,5,,,53,127
59450,note_on,33,0,0,,5,,,53,127
59522,note_off,72,0,0,,7,,,43,127
59555,note_on,33,0,0,,10,,,45,127
59627,note_off,72,0,0,,5,,,53,127
59660,note_on,33,0,0,,5,,,53,127
59732,note_off,72,0,0,,10,,,45,127
59764,note_off,32,0,0,,5,,,53,127
59764,note_off,0,0,0,,5,,,77,127
59764,note_off,0,0,0,,10,,,81,127
59765,note_on,1,0,0,,11,,,46,127
59765,note_on,0,0,0,,5,,,77,127
59765,note_on,0,0,0,,10,,,81,127
59870,note_on,105,0,0,,11,,,70,127
59942,note_off,72,0,0,,10,,,81,127
59942,note_off,0,0,0,,5,,,77,127
59975,note_on,33,0,0,,4,,,76,127
59975,note_on,0,0,0,,7,,,79,127
60047,note_off,72,0,0,,11,,,70,127
60080,note_on,33,0,0,,11,,,70,127
60152,note_off,72,0,0,,7,,,79,127
60152,note_off,0,0,0,,4,,,76,127
60185,note_on,33,0,0,,2,,,74,127
60185,note_on,0,0,0,,5,,,77,127
60257,note_off,72,0,0,,11,,,70,127
60290,note_on,33,0,0,,11,,,70,127
60362,note_off,72,0,0,,5,,,77,127
60362,note_off,0,0,0,,2,,,74,127
60394,note_off,32,0,0,,11,,,70,127
60394,note_off,0,0,0,,11,,,46,127
60395,note_on,1,0,0,,4,,,40,127
60395,note_on,0,0,0,,7,,,79,127
60395,note_on,0,0,0,,4,,,76,127
60500,note_on,105,0,0,,4,,,52,127
60572,note_off,72,0,0,,4,,,40,127
60605,note_on,33,0,0,,5,,,41,127
60677,note_off,72,0,0,,4,,,52,127
60710,note_on,33,0,0,,4,,,52,127
60782,note_off,72,0,0,,5,,,41,127
60815,note_on,33,0,0,,7,,,43,127
60887,note_off,72,0,0,,4,,,52,127
60920,note_on,33,0,0,,4,,,52,127
60992,note_off,72,0,0,,7,,,43,127
61024,note_off,32,0,0,,4,,,52,127
61024,note_off,0,0,0,,4,,,76,127
61024,note_off,0,0,0,,7,,,79,127
61025,note_on,1,0,0,,10,,,45,127
61025,note_on,0,0,0,,4,,,76,127
61025,note_on,0,0,0,,7,,,79,127
61130,note_on,105,0,0,,10,,,69,127
61202,note_off,72,0,0,,7,,,79,127
61202,note_off,0,0,0,,4,,,76,127
61235,note_on,33,0,0,,5,,,77,127
61235,note_on,0,0,0,,2,,,74,127
61307,note_off,72,0,0,,10,,,69,127
61340,note_on,33,0,0,,10,,,69,127
61412,note_off,72,0,0,,2,,,74,127
61412,note_off,0,0,0,,5,,,77,127
61445,note_on,33,0,0,,4,,,76,127
61445,note_on,0,0,0,,1,,,73,127
61517,note_off,72,0,0,,10,,,69,127
61550,note_on,33,0,0,,10,,,69,127
61622,note_off,72,0,0,,1,,,73,127
61622,note_off,0,0,0,,4,,,76,127
61654,note_off,32,0,0,,10,,,45,127
61655,note_on,1,0,0,,2,,,38,127
61655,note_on,0,0,0,,5,,,77,127
61655,note_on,0,0,0,,2,,,74,127
61727,note_off,72,0,0,,10,,,69,127
61862,note_off,135,0,0,,2,,,38,127
61864,note_on,2,0,0,,2,,,38,127
62071,note_off,207,0,0,,2,,,38,127
62073,note_on,2,0,0,,2,,,38,127
62280,note_off,207,0,0,,2,,,38,127
62282,note_on,2,0,0,,5,,,41,127
62489,note_off,207,0,0,,5,,,41,127
62490,note_off,1,0,0,,2,,,74,127
62490,note_off,0,0,0,,5,,,77,127
62491,note_on,1,0,0,,5,,,41,127
62491,note_on,0,0,0,,10,,,69,127
62491,note_on,0,0,0,,10,,,81,127
62698,note_off,207,0,0,,10,,,81,127
62698,note_off,0,0,0,,10,,,69,127
62698,note_off,0,0,0,,5,,,41,127
62700,note_on,2,0,0,,5,,,41,127
62700,note_on,0,0,0,,5,,,77,127
62700,note_on,0,0,0,,2,,,74,127
62907,note_off,207,0,0,,2,,,74,127
62907,note_off,0,0,0,,5,,,77,127
62907,note_off,0,0,0,,5,,,41,127
62909,note_on,2,0,0,,10,,,45,127
62909,note_on,0,0,0,,4,,,76,127
62909,note_on,0,0,0,,1,,,73,127
63116,note_off,207,0,0,,1,,,73,127
63116,note_off,0,0,0,,4,,,76,127
63116,note_off,0,0,0,,10,,,45,127
63118,note_on,2,0,0,,10,,,45,127
63118,note_on,0,0,0,,10,,,81,127
63118,note_on,0,0,0,,10,,,69,127
63325,note_off,207,0,0,,10,,,69,127
63325,note_off,0,0,0,,10,,,81,127
63325,note_off,0,0,0,,10,,,45,127
63327,note_on,2,0,0,,10,,,45,127
63327,note_on,0,0,0,,1,,,73,127
63327,note_on,0,0,0,,4,,,76,127
63534,note_off,207,0,0,,4,,,76,127
63534,note_off,0,0,0,,1,,,73,127
63534,note_off,0,0,0,,10,,,45,127
63536,note_on,2,0,0,,2,,,50,127
63536,note_on,0,0,0,,6,,,78,127
63536,note_on,0,0,0,,2,,,74,127
63640,note_off,104,0,0,,2,,,50,127
63641,note_on,1,0,0,,1,,,49,127
63744,note_off,103,0,0,,2,,,74,127
63744,note_off,0,0,0,,6,,,78,127
63745,note_off,1,0,0,,1,,,49,127
63746,note_on,1,0,0,,2,,,50,127
63746,note_on,0,0,0,,2,,,74,127
63850,note_off,104,0,0,,2,,,50,127
63851,note_on,1,0,0,,4,,,52,127
63954,note_off,103,0,0,,2,,,74,127
63955,note_off,1,0,0,,4,,,52,127
63956,note_on,1,0,0,,6,,,54,127
63956,note_on,0,0,0,,10,,,81,127
64061,note_on,105,0,0,,2,,,50,127
64133,note_off,72,0,0,,6,,,54,127
64164,note_off,31,0,0,,10,,,81,127
64165,note_off,1,0,0,,2,,,50,127
64166,note_on,1,0,0,,3,,,51,127
64166,note_on,0,0,0,,7,,,67,127
64271,note_on,105,0,0,,7,,,55,127
64343,note_off,72,0,0,,3,,,51,127
64374,note_off,31,0,0,,7,,,67,127
64376,note_on,2,0,0,,2,,,50,127
64376,note_on,0,0,0,,7,,,67,127
64448,note_off,72,0,0,,7,,,55,127
64481,note_on,33,0,0,,7,,,55,127
64553,note_off,72,0,0,,2,,,50,127
64584,note_off,31,0,0,,7,,,67,127
64586,note_on,2,0,0,,0,,,48,127
64586,note_on,0,0,0,,7,,,67,127
64658,note_off,72,0,0,,7,,,55,127
64691,note_on,33,0,0,,7,,,55,127
64763,note_off,72,0,0,,0,,,48,127
64794,note_off,31,0,0,,7,,,67,127
64796,note_on,2,0,0,,11,,,46,127
64796,note_on,0,0,0,,11,,,70,127
64868,note_off,72,0,0,,7,,,55,127
64901,note_on,33,0,0,,7,,,55,127
64973,note_off,72,0,0,,11,,,46,127
65004,note_off,31,0,0,,11,,,70,127
65006,note_on,2,0,0,,10,,,45,127
65006,note_on,0,0,0,,11,,,70,127
65078,note_off,72,0,0,,7,,,55,127
65111,note_on,33,0,0,,7,,,55,127
65183,note_off,72,0,0,,10,,,45,127
65214,note_off,31,0,0,,11,,,70,127
65216,note_on,2,0,0,,7,,,43,127
65216,note_on,0,0,0,,11,,,70,127
65288,note_off,72,0,0,,7,,,55,127
65321,note_on,33,0,0,,7,,,55,127
65393,note_off,72,0,0,,7,,,43,127
65424,note_off,31,0,0,,11,,,70,127
65426,note_on,2,0,0,,2,,,50,127
65426,note_on,0,0,0,,2,,,74,127
65498,note_off,72,0,0,,7,,,55,127
65633,note_off,135,0,0,,2,,,74,127
65633,note_off,0,0,0,,2,,,50,127
65635,note_on,2,0,0,,6,,,54,127
65635,note_on,0,0,0,,2,,,74,127
65842,note_off,207,0,0,,2,,,74,127
65842,note_off,0,0,0,,6,,,54,127
65844,note_on,2,0,0,,2,,,50,127
65844,note_on,0,0,0,,2,,,74,127
66051,note_off,207,0,0,,2,,,74,127
66051,note_off,0,0,0,,2,,,50,127
66053,note_on,2,0,0,,7,,,43,127
66053,note_on,0,0,0,,7,,,55,127
66053,note_on,0,0,0,,7,,,67,127
66158,note_on,105,0,0,,7,,,79,127
66261,note_off,103,0,0,,7,,,55,127
66261,note_off,0,0,0,,7,,,43,127
66263,note_on,2,0,0,,10,,,57,127
66263,note_on,0,0,0,,10,,,45,127
66263,note_on,0,0,0,,6,,,78,127
66289,note_off,26,0,0,,7,,,79,127
66368,note_on,79,0,0,,7,,,79,127
66394,note_off,26,0,0,,6,,,78,127
66470,note_off,76,0,0,,10,,,45,127
66470,note_off,0,0,0,,10,,,57,127
66471,note_off,1,0,0,,7,,,67,127
66472,note_on,1,0,0,,11,,,46,127
66472,note_on,0,0,0,,11,,,58,127
66472,note_on,0,0,0,,2,,,74,127
66544,note_off,72,0,0,,7,,,79,127
66577,note_on,33,0,0,,7,,,79,127
66649,note_off,72,0,0,,2,,,74,127
66680,note_off,31,0,0,,11,,,58,127
66680,note_off,0,0,0,,11,,,46,127
66682,note_on,2,0,0,,0,,,48,127
66682,note_on,0,0,0,,0,,,60,127
66682,note_on,0,0,0,,3,,,75,127
66754,note_off,72,0,0,,7,,,79,127
66787,note_on,33,0,0,,7,,,79,127
66859,note_off,72,0,0,,3,,,75,127
66890,note_off,31,0,0,,0,,,60,127
66890,note_off,0,0,0,,0,,,48,127
66892,note_on,2,0,0,,11,,,58,127
66892,note_on,0,0,0,,11,,,46,127
66892,note_on,0,0,0,,2,,,74,127
66964,note_off,72,0,0,,7,,,79,127
66997,note_on,33,0,0,,7,,,79,127
67069,note_off,72,0,0,,2,,,74,127
67100,note_off,31,0,0,,11,,,46,127
67100,note_off,0,0,0,,11,,,58,127
67102,note_on,2,0,0,,10,,,57,127
67102,note_on,0,0,0,,10,,,45,127
67102,note_on,0,0,0,,0,,,72,127
67174,note_off,72,0,0,,7,,,79,127
67207,note_on,33,0,0,,7,,,79,127
67279,note_off,72,0,0,,0,,,72,127
67310,note_off,31,0,0,,10,,,45,127
67310,note_off,0,0,0,,10,,,57,127
67312,note_on,2,0,0,,7,,,43,127
67312,note_on,0,0,0,,7,,,55,127
67312,note_on,0,0,0,,11,,,70,127
67384,note_off,72,0,0,,7,,,79,127
67417,note_on,33,0,0,,10,,,69,127
67432,note_off,15,0,0,,11,,,70,127
67519,note_off,87,0,0,,7,,,55,127
67519,note_off,0,0,0,,7,,,43,127
67521,note_on,2,0,0,,7,,,55,127
67521,note_on,0,0,0,,7,,,43,127
67521,note_on,0,0,0,,7,,,67,127
67536,note_off,15,0,0,,10,,,69,127
67625,note_on,89,0,0,,10,,,69,127
67640,note_off,15,0,0,,7,,,67,127
67727,note_off,87,0,0,,7,,,43,127
67727,note_off,0,0,0,,7,,,55,127
67729,note_on,2,0,0,,7,,,43,127
67729,note_on,0,0,0,,7,,,55,127
67729,note_on,0,0,0,,11,,,70,127
67744,note_off,15,0,0,,10,,,69,127
67833,note_on,89,0,0,,0,,,72,127
67848,note_off,15,0,0,,11,,,70,127
67935,note_off,87,0,0,,7,,,55,127
67935,note_off,0,0,0,,7,,,43,127
67936,note_off,1,0,0,,0,,,72,127
67937,note_on,1,0,0,,11,,,58,127
67937,note_on,0,0,0,,11,,,46,127
67937,note_on,0,0,0,,2,,,74,127
68144,note_off,207,0,0,,2,,,74,127
68144,note_off,0,0,0,,11,,,46,127
68144,note_off,0,0,0,,11,,,58,127
68146,note_on,2,0,0,,11,,,58,127
68146,note_on,0,0,0,,11,,,46,127
68146,note_on,0,0,0,,7,,,67,127
68353,note_off,207,0,0,,7,,,67,127
68353,note_off,0,0,0,,11,,,46,127
68353,note_off,0,0,0,,11,,,58,127
68355,note_on,2,0,0,,11,,,46,127
68355,note_on,0,0,0,,11,,,58,127
68355,note_on,0,0,0,,7,,,79,127
68562,note_off,207,0,0,,7,,,79,127
68562,note_off,0,0,0,,11,,,58,127
68562,note_off,0,0,0,,11,,,46,127
68564,note_on,2,0,0,,2,,,62,127
68564,note_on,0,0,0,,2,,,50,127
68564,note_on,0,0,0,,6,,,78,127
68669,note_on,105,0,0,,4,,,76,127
68695,note_off,26,0,0,,6,,,78,127
68771,note_off,76,0,0,,2,,,50,127
68771,note_off,0,0,0,,2,,,62,127
68773,note_on,2,0,0,,2,,,50,127
68773,note_on,0,0,0,,2,,,62,127
68773,note_on,0,0,0,,2,,,74,127
68799,note_off,26,0,0,,4,,,76,127
68878,note_on,79,0,0,,0,,,72,127
68904,note_off,26,0,0,,2,,,74,127
68980,note_off,76,0,0,,2,,,62,127
68980,note_off,0,0,0,,2,,,50,127
68982,note_on,2,0,0,,2,,,50,127
68982,note_on,0,0,0,,2,,,62,127
68982,note_on,0,0,0,,11,,,70,127
69008,note_off,26,0,0,,0,,,72,127
69087,note_on,79,0,0,,10,,,69,127
69113,note_off,26,0,0,,11,,,70,127
69189,note_off,76,0,0,,2,,,62,127
69189,note_off,0,0,0,,2,,,50,127
69190,note_off,1,0,0,,10,,,69,127
69191,note_on,1,0,0,,7,,,55,127
69191,note_on,0,0,0,,11,,,70,127
69296,note_on,105,0,0,,7,,,67,127
69401,note_on,105,0,0,,6,,,66,127
69427,note_off,26,0,0,,7,,,67,127
69506,note_on,79,0,0,,7,,,67,127
69532,note_off,26,0,0,,6,,,66,127
69609,note_off,77,0,0,,11,,,70,127
69609,note_off,0,0,0,,7,,,55,127
69610,note_on,1,0,0,,2,,,62,127
69610,note_on,0,0,0,,2,,,74,127
69682,note_off,72,0,0,,7,,,67,127
69715,note_on,33,0,0,,7,,,67,127
69787,note_off,72,0,0,,2,,,62,127
69818,note_off,31,0,0,,2,,,74,127
69820,note_on,2,0,0,,3,,,63,127
69820,note_on,0,0,0,,7,,,79,127
69892,note_off,72,0,0,,7,,,67,127
69925,note_on,33,0,0,,7,,,67,127
69997,note_off,72,0,0,,3,,,63,127
70028,note_off,31,0,0,,7,,,79,127
70030,note_on,2,0,0,,2,,,62,127
70030,note_on,0,0,0,,5,,,77,127
70102,note_off,72,0,0,,7,,,67,127
70135,note_on,33,0,0,,7,,,67,127
70207,note_off,72,0,0,,2,,,62,127
70238,note_off,31,0,0,,5,,,77,127
70240,note_on,2,0,0,,0,,,60,127
70240,note_on,0,0,0,,3,,,75,127
70312,note_off,72,0,0,,7,,,67,127
70345,note_on,33,0,0,,7,,,67,127
70417,note_off,72,0,0,,0,,,60,127
70448,note_off,31,0,0,,3,,,75,127
70450,note_on,2,0,0,,2,,,62,127
70450,note_on,0,0,0,,2,,,74,127
70522,note_off,72,0,0,,7,,,67,127
70555,note_on,33,0,0,,7,,,67,127
70627,note_off,72,0,0,,2,,,62,127
70658,note_off,31,0,0,,2,,,74,127
70660,note_on,2,0,0,,0,,,60,127
70660,note_on,0,0,0,,6,,,78,127
70732,note_off,72,0,0,,7,,,67,127
70765,note_on,33,0,0,,7,,,67,127
70837,note_off,72,0,0,,0,,,60,127
70868,note_off,31,0,0,,6,,,78,127
70870,note_on,2,0,0,,11,,,58,127
70870,note_on,0,0,0,,7,,,79,127
70942,note_off,72,0,0,,7,,,67,127
70975,note_on,33,0,0,,7,,,67,127
71047,note_off,72,0,0,,11,,,58,127
71078,note_off,31,0,0,,7,,,79,127
71080,note_on,2,0,0,,0,,,60,127
71080,note_on,0,0,0,,3,,,75,127
71152,note_off,72,0,0,,7,,,67,127
71185,note_on,33,0,0,,7,,,67,127
71257,note_off,72,0,0,,0,,,60,127
71288,note_off,31,0,0,,3,,,75,127
71290,note_on,2,0,0,,11,,,58,127
71290,note_on,0,0,0,,2,,,74,127
71362,note_off,72,0,0,,7,,,67,127
71395,note_on,33,0,0,,7,,,67,127
71467,note_off,72,0,0,,11,,,58,127
71498,note_off,31,0,0,,2,,,74,127
71500,note_on,2,0,0,,10,,,57,127
71500,note_on,0,0,0,,0,,,72,127
71572,note_off,72,0,0,,7,,,67,127
71605,note_on,33,0,0,,7,,,67,127
71677,note_off,72,0,0,,10,,,57,127
71708,note_off,31,0,0,,0,,,72,127
71710,note_on,2,0,0,,11,,,58,127
71710,note_on,0,0,0,,2,,,74,127
71782,note_off,72,0,0,,7,,,67,127
71815,note_on,33,0,0,,7,,,67,127
71887,note_off,72,0,0,,11,,,58,127
71918,note_off,31,0,0,,2,,,74,127
71920,note_on,2,0,0,,10,,,57,127
71920,note_on,0,0,0,,0,,,72,127
71992,note_off,72,0,0,,7,,,67,127
72025,note_on,33,0,0,,7,,,67,127
72097,note_off,72,0,0,,10,,,57,127
72128,note_off,31,0,0,,0,,,72,127
72130,note_on,2,0,0,,7,,,55,127
72130,note_on,0,0,0,,11,,,70,127
72202,note_off,72,0,0,,7,,,67,127
72235,note_on,33,0,0,,7,,,67,127
72307,note_off,72,0,0,,7,,,55,127
72338,note_off,31,0,0,,11,,,70,127
72340,note_on,2,0,0,,0,,,60,127
72340,note_on,0,0,0,,10,,,69,127
72412,note_off,72,0,0,,7,,,67,127
72445,note_on,33,0,0,,7,,,67,127
72517,note_off,72,0,0,,10,,,69,127
72548,note_off,31,0,0,,0,,,60,127
72550,note_on,2,0,0,,10,,,57,127
72550,note_on,0,0,0,,10,,,69,127
72622,note_off,72,0,0,,7,,,67,127
72655,note_on,33,0,0,,11,,,70,127
72727,note_off,72,0,0,,10,,,69,127
72758,note_off,31,0,0,,10,,,57,127
72760,note_on,2,0,0,,2,,,62,127
72760,note_on,0,0,0,,0,,,72,127
72832,note_off,72,0,0,,11,,,70,127
72865,note_on,33,0,0,,10,,,69,127
72937,note_off,72,0,0,,0,,,72,127
72968,note_off,31,0,0,,2,,,62,127
72969,note_off,1,0,0,,10,,,69,127
72970,note_on,1,0,0,,7,,,43,127
72970,note_on,0,0,0,,11,,,70,127
72970,note_on,0,0,0,,7,,,67,127
73075,note_on,105,0,0,,2,,,62,127
73147,note_off,72,0,0,,7,,,67,127
73147,note_off,0,0,0,,11,,,70,127
73178,note_off,31,0,0,,7,,,43,127
73180,note_on,2,0,0,,11,,,46,127
73180,note_on,0,0,0,,11,,,70,127
73180,note_on,0,0,0,,7,,,67,127
73252,note_off,72,0,0,,2,,,62,127
73285,note_on,33,0,0,,2,,,62,127
73357,note_off,72,0,0,,7,,,67,127
73357,note_off,0,0,0,,11,,,70,127
73388,note_off,31,0,0,,11,,,46,127
73390,note_on,2,0,0,,7,,,43,127
73390,note_on,0,0,0,,11,,,70,127
73390,note_on,0,0,0,,7,,,67,127
73462,note_off,72,0,0,,2,,,62,127
73495,note_on,33,0,0,,2,,,62,127
73567,note_off,72,0,0,,7,,,67,127
73567,note_off,0,0,0,,11,,,70,127
73598,note_off,31,0,0,,7,,,43,127
73600,note_on,2,0,0,,2,,,50,127
73600,note_on,0,0,0,,10,,,69,127
73600,note_on,0,0,0,,6,,,66,127
73672,note_off,72,0,0,,2,,,62,127
73705,note_on,33,0,0,,2,,,62,127
73777,note_off,72,0,0,,6,,,66,127
73777,note_off,0,0,0,,10,,,69,127
73808,note_off,31,0,0,,2,,,50,127
73810,note_on,2,0,0,,6,,,54,127
73810,note_on,0,0,0,,6,,,66,127
73810,note_on,0,0,0,,10,,,69,127
73882,note_off,72,0,0,,2,,,62,127
73915,note_on,33,0,0,,2,,,62,127
73987,note_off,72,0,0,,10,,,69,127
73987,note_off,0,0,0,,6,,,66,127
74018,note_off,31,0,0,,6,,,54,127
74020,note_on,2,0,0,,2,,,50,127
74020,note_on,0,0,0,,10,,,69,127
74020,note_on,0,0,0,,6,,,66,127
74092,note_off,72,0,0,,2,,,62,127
74125,note_on,33,0,0,,2,,,62,127
74197,note_off,72,0,0,,6,,,66,127
74197,note_off,0,0,0,,10,,,69,127
74228,note_off,31,0,0,,2,,,50,127
74230,note_on,2,0,0,,7,,,55,127
74230,note_on,0,0,0,,11,,,70,127
74230,note_on,0,0,0,,7,,,67,127
74302,note_off,72,0,0,,2,,,62,127
74335,note_on,33,0,0,,2,,,62,127
74407,note_off,72,0,0,,7,,,67,127
74407,note_off,0,0,0,,11,,,70,127
74438,note_off,31,0,0,,7,,,55,127
74440,note_on,2,0,0,,11,,,58,127
74440,note_on,0,0,0,,11,,,70,127
74440,note_on,0,0,0,,7,,,67,127
74512,note_off,72,0,0,,2,,,62,127
74545,note_on,33,0,0,,2,,,62,127
74617,note_off,72,0,0,,7,,,67,127
74617,note_off,0,0,0,,11,,,70,127
74648,note_off,31,0,0,,11,,,58,127
74650,note_on,2,0,0,,7,,,55,127
74650,note_on,0,0,0,,11,,,70,127
74650,note_on,0,0,0,,7,,,67,127
74722,note_off,72,0,0,,2,,,62,127
74755,note_on,33,0,0,,2,,,62,127
74827,note_off,72,0,0,,7,,,67,127
74827,note_off,0,0,0,,11,,,70,127
74858,note_off,31,0,0,,7,,,55,127
74860,note_on,2,0,0,,2,,,50,127
74860,note_on,0,0,0,,10,,,69,127
74860,note_on,0,0,0,,6,,,66,127
74932,note_off,72,0,0,,2,,,62,127
74965,note_on,33,0,0,,2,,,62,127
75037,note_off,72,0,0,,6,,,66,127
75037,note_off,0,0,0,,10,,,69,127
75068,note_off,31,0,0,,2,,,50,127
75070,note_on,2,0,0,,6,,,54,127
75070,note_on,0,0,0,,6,,,66,127
75070,note_on,0,0,0,,10,,,69,127
75142,note_off,72,0,0,,2,,,62,127
75175,note_on,33,0,0,,2,,,62,127
75247,note_off,72,0,0,,10,,,69,127
75247,note_off,0,0,0,,6,,,66,127
75278,note_off,31,0,0,,6,,,54,127
75280,note_on,2,0,0,,2,,,50,127
75280,note_on,0,0,0,,6,,,66,127
75280,note_on,0,0,0,,10,,,69,127
75352,note_off,72,0,0,,2,,,62,127
75385,note_on,33,0,0,,2,,,62,127
75457,note_off,72,0,0,,10,,,69,127
75457,note_off,0,0,0,,6,,,66,127
75488,note_off,31,0,0,,2,,,50,127
75490,note_on,2,0,0,,7,,,43,127
75490,note_on,0,0,0,,7,,,67,127
75490,note_on,0,0,0,,12,,,71,127
75562,note_off,72,0,0,,2,,,62,127
75595,note_on,33,0,0,,2,,,62,127
75667,note_off,72,0,0,,12,,,71,127
75667,note_off,0,0,0,,7,,,67,127
75698,note_off,31,0,0,,7,,,43,127
75700,note_on,2,0,0,,10,,,45,127
75700,note_on,0,0,0,,10,,,69,127
75700,note_on,0,0,0,,0,,,72,127
75772,note_off,72,0,0,,2,,,62,127
75805,note_on,33,0,0,,2,,,62,127
75877,note_off,72,0,0,,0,,,72,127
75877,note_off,0,0,0,,10,,,69,127
75908,note_off,31,0,0,,10,,,45,127
75910,note_on,2,0,0,,12,,,47,127
75910,note_on,0,0,0,,12,,,71,127
75910,note_on,0,0,0,,2,,,74,127
75982,note_off,72,0,0,,2,,,62,127
76015,note_on,33,0,0,,2,,,62,127
76087,note_off,72,0,0,,2,,,74,127
76087,note_off,0,0,0,,12,,,71,127
76118,note_off,31,0,0,,12,,,47,127
76119,note_off,1,0,0,,2,,,62,127
76120,note_on,1,0,0,,0,,,48,127
76120,note_on,0,0,0,,3,,,75,127
76120,note_on,0,0,0,,0,,,72,127
76225,note_on,105,0,0,,7,,,67,127
76297,note_off,72,0,0,,0,,,72,127
76297,note_off,0,0,0,,3,,,75,127
76328,note_off,31,0,0,,0,,,48,127
76330,note_on,2,0,0,,3,,,51,127
76330,note_on,0,0,0,,0,,,72,127
76330,note_on,0,0,0,,3,,,75,127
76402,note_off,72,0,0,,7,,,67,127
76435,note_on,33,0,0,,7,,,67,127
76507,note_off,72,0,0,,3,,,75,127
76507,note_off,0,0,0,,0,,,72,127
76538,note_off,31,0,0,,3,,,51,127
76540,note_on,2,0,0,,0,,,48,127
76540,note_on,0,0,0,,0,,,72,127
76540,note_on,0,0,0,,3,,,75,127
76612,note_off,72,0,0,,7,,,67,127
76645,note_on,33,0,0,,7,,,67,127
76717,note_off,72,0,0,,3,,,75,127
76717,note_off,0,0,0,,0,,,72,127
76748,note_off,31,0,0,,0,,,48,127
76750,note_on,2,0,0,,7,,,55,127
76750,note_on,0,0,0,,12,,,71,127
76750,note_on,0,0,0,,2,,,74,127
76822,note_off,72,0,0,,7,,,67,127
76855,note_on,33,0,0,,7,,,67,127
76927,note_off,72,0,0,,2,,,74,127
76927,note_off,0,0,0,,12,,,71,127
76958,note_off,31,0,0,,7,,,55,127
76960,note_on,2,0,0,,12,,,59,127
76960,note_on,0,0,0,,12,,,71,127
76960,note_on,0,0,0,,2,,,74,127
77032,note_off,72,0,0,,7,,,67,127
77065,note_on,33,0,0,,7,,,67,127
77137,note_off,72,0,0,,2,,,74,127
77137,note_off,0,0,0,,12,,,71,127
77168,note_off,31,0,0,,12,,,59,127
77170,note_on,2,0,0,,7,,,55,127
77170,note_on,0,0,0,,2,,,74,127
77170,note_on,0,0,0,,12,,,71,127
77242,note_off,72,0,0,,7,,,67,127
77275,note_on,33,0,0,,7,,,67,127
77347,note_off,72,0,0,,12,,,71,127
77347,note_off,0,0,0,,2,,,74,127
77378,note_off,31,0,0,,7,,,55,127
77380,note_on,2,0,0,,0,,,48,127
77380,note_on,0,0,0,,3,,,75,127
77380,note_on,0,0,0,,0,,,72,127
77452,note_off,72,0,0,,7,,,67,127
77485,note_on,33,0,0,,7,,,67,127
77557,note_off,72,0,0,,0,,,72,127
77557,note_off,0,0,0,,3,,,75,127
77588,note_off,31,0,0,,0,,,48,127
77590,note_on,2,0,0,,3,,,51,127
77590,note_on,0,0,0,,0,,,72,127
77590,note_on,0,0,0,,3,,,75,127
77662,note_off,72,0,0,,7,,,67,127
77695,note_on,33,0,0,,7,,,67,127
77767,note_off,72,0,0,,3,,,75,127
77767,note_off,0,0,0,,0,,,72,127
77798,note_off,31,0,0,,3,,,51,127
77800,note_on,2,0,0,,0,,,48,127
77800,note_on,0,0,0,,3,,,75,127
77800,note_on,0,0,0,,0,,,72,127
77872,note_off,72,0,0,,7,,,67,127
77905,note_on,33,0,0,,7,,,67,127
77977,note_off,72,0,0,,0,,,72,127
77977,note_off,0,0,0,,3,,,75,127
78008,note_off,31,0,0,,0,,,48,127
78010,note_on,2,0,0,,7,,,55,127
78010,note_on,0,0,0,,2,,,74,127
78010,note_on,0,0,0,,12,,,71,127
78082,note_off,72,0,0,,7,,,67,127
78115,note_on,33,0,0,,7,,,67,127
78187,note_off,72,0,0,,12,,,71,127
78187,note_off,0,0,0,,2,,,74,127
78218,note_off,31,0,0,,7,,,55,127
78220,note_on,2,0,0,,12,,,59,127
78220,note_on,0,0,0,,2,,,74,127
78220,note_on,0,0,0,,12,,,71,127
78292,note_off,72,0,0,,7,,,67,127
78325,note_on,33,0,0,,7,,,67,127
78397,note_off,72,0,0,,12,,,71,127
78397,note_off,0,0,0,,2,,,74,127
78428,note_off,31,0,0,,12,,,59,127
78430,note_on,2,0,0,,7,,,55,127
78430,note_on,0,0,0,,2,,,74,127
78430,note_on,0,0,0,,12,,,71,127
78502,note_off,72,0,0,,7,,,67,127
78535,note_on,33,0,0,,7,,,67,127
78607,note_off,72,0,0,,12,,,71,127
78607,note_off,0,0,0,,2,,,74,127
78638,note_off,31,0,0,,7,,,55,127
78640,note_on,2,0,0,,0,,,48,127
78640,note_on,0,0,0,,4,,,76,127
78640,note_on,0,0,0,,0,,,72,127
78712,note_off,72,0,0,,7,,,67,127
78745,note_on,33,0,0,,7,,,67,127
78817,note_off,72,0,0,,0,,,72,127
78817,note_off,0,0,0,,4,,,76,127
78848,note_off,31,0,0,,0,,,48,127
78850,note_on,2,0,0,,2,,,50,127
78850,note_on,0,0,0,,5,,,77,127
78850,note_on,0,0,0,,2,,,74,127
78922,note_off,72,0,0,,7,,,67,127
78955,note_on,33,0,0,,7,,,67,127
79027,note_off,72,0,0,,2,,,74,127
79027,note_off,0,0,0,,5,,,77,127
79058,note_off,31,0,0,,2,,,50,127
79060,note_on,2,0,0,,4,,,52,127
79060,note_on,0,0,0,,7,,,79,127
79060,note_on,0,0,0,,4,,,76,127
79132,note_off,72,0,0,,7,,,67,127
79165,note_on,33,0,0,,7,,,67,127
79237,note_off,72,0,0,,4,,,76,127
79237,note_off,0,0,0,,7,,,79,127
79268,note_off,31,0,0,,4,,,52,127
79269,note_off,1,0,0,,7,,,67,127
79270,note_on,1,0,0,,5,,,53,127
79270,note_on,0,0,0,,10,,,81,127
79270,note_on,0,0,0,,5,,,77,127
79375,note_on,105,0,0,,0,,,72,127
79447,note_off,72,0,0,,5,,,77,127
79447,note_off,0,0,0,,10,,,81,127
79478,note_off,31,0,0,,5,,,53,127
79480,note_on,2,0,0,,10,,,57,127
79480,note_on,0,0,0,,10,,,81,127
79480,note_on,0,0,0,,5,,,77,127
79552,note_off,72,0,0,,0,,,72,127
79585,note_on,33,0,0,,0,,,72,127
79657,note_off,72,0,0,,5,,,77,127
79657,note_off,0,0,0,,10,,,81,127
79688,note_off,31,0,0,,10,,,57,127
79690,note_on,2,0,0,,5,,,53,127
79690,note_on,0,0,0,,5,,,77,127
79690,note_on,0,0,0,,10,,,81,127
79762,note_off,72,0,0,,0,,,72,127
79795,note_on,33,0,0,,0,,,72,127
79867,note_off,72,0,0,,10,,,81,127
79867,note_off,0,0,0,,5,,,77,127
79898,note_off,31,0,0,,5,,,53,127
79900,note_on,2,0,0,,0,,,48,127
79900,note_on,0,0,0,,7,,,79,127
79900,note_on,0,0,0,,4,,,76,127
79972,note_off,72,0,0,,0,,,72,127
80005,note_on,33,0,0,,0,,,72,127
80077,note_off,72,0,0,,4,,,76,127
80077,note_off,0,0,0,,7,,,79,127
80108,note_off,31,0,0,,0,,,48,127
80110,note_on,2,0,0,,4,,,52,127
80110,note_on,0,0,0,,4,,,76,127
80110,note_on,0,0,0,,7,,,79,127
80182,note_off,72,0,0,,0,,,72,127
80215,note_on,33,0,0,,0,,,72,127
80287,note_off,72,0,0,,7,,,79,127
80287,note_off,0,0,0,,4,,,76,127
80318,note_off,31,0,0,,4,,,52,127
80320,note_on,2,0,0,,0,,,48,127
80320,note_on,0,0,0,,7,,,79,127
80320,note_on,0,0,0,,4,,,76,127
80392,note_off,72,0,0,,0,,,72,127
80425,note_on,33,0,0,,0,,,72,127
80497,note_off,72,0,0,,4,,,76,127
80497,note_off,0,0,0,,7,,,79,127
80528,note_off,31,0,0,,0,,,48,127
80530,note_on,2,0,0,,5,,,53,127
80530,note_on,0,0,0,,5,,,77,127
80530,note_on,0,0,0,,10,,,81,127
80602,note_off,72,0,0,,0,,,72,127
80635,note_on,33,0,0,,0,,,72,127
80707,note_off,72,0,0,,10,,,81,127
80707,note_off,0,0,0,,5,,,77,127
80738,note_off,31,0,0,,5,,,53,127
80740,note_on,2,0,0,,10,,,57,127
80740,note_on,0,0,0,,10,,,81,127
80740,note_on,0,0,0,,5,,,77,127
80812,note_off,72,0,0,,0,,,72,127
80845,note_on,33,0,0,,0,,,72,127
80917,note_off,72,0,0,,5,,,77,127
80917,note_off,0,0,0,,10,,,81,127
80948,note_off,31,0,0,,10,,,57,127
80950,note_on,2,0,0,,5,,,53,127
80950,note_on,0,0,0,,10,,,81,127
80950,note_on,0,0,0,,5,,,77,127
81022,note_off,72,0,0,,0,,,72,127
81055,note_on,33,0,0,,0,,,72,127
81127,note_off,72,0,0,,5,,,77,127
81127,note_off,0,0,0,,10,,,81,127
81158,note_off,31,0,0,,5,,,53,127
81160,note_on,2,0,0,,0,,,48,127
81160,note_on,0,0,0,,4,,,76,127
81160,note_on,0,0,0,,7,,,79,127
81232,note_off,72,0,0,,0,,,72,127
81265,note_on,33,0,0,,0,,,72,127
81337,note_off,72,0,0,,7,,,79,127
81337,note_off,0,0,0,,4,,,76,127
81368,note_off,31,0,0,,0,,,48,127
81370,note_on,2,0,0,,4,,,52,127
81370,note_on,0,0,0,,7,,,79,127
81370,note_on,0,0,0,,4,,,76,127
81442,note_off,72,0,0,,0,,,72,127
81475,note_on,33,0,0,,0,,,72,127
81547,note_off,72,0,0,,4,,,76,127
81547,note_off,0,0,0,,7,,,79,127
81578,note_off,31,0,0,,4,,,52,127
81580,note_on,2,0,0,,0,,,48,127
81580,note_on,0,0,0,,7,,,79,127
81580,note_on,0,0,0,,4,,,76,127
81652,note_off,72,0,0,,0,,,72,127
81685,note_on,33,0,0,,0,,,72,127
81757,note_off,72,0,0,,4,,,76,127
81757,note_off,0,0,0,,7,,,79,127
81788,note_off,31,0,0,,0,,,48,127
81790,note_on,2,0,0,,5,,,41,127
81790,note_on,0,0,0,,10,,,81,127
81790,note_on,0,0,0,,5,,,77,127
81862,note_off,72,0,0,,0,,,72,127
81895,note_on,33,0,0,,5,,,53,127
81967,note_off,72,0,0,,5,,,41,127
81998,note_off,31,0,0,,5,,,77,127
81998,note_off,0,0,0,,10,,,81,127
82000,note_on,2,0,0,,10,,,45,127
82000,note_on,0,0,0,,0,,,72,127
82072,note_off,72,0,0,,5,,,53,127
82105,note_on,33,0,0,,5,,,53,127
82177,note_off,72,0,0,,10,,,45,127
82208,note_off,31,0,0,,0,,,72,127
82210,note_on,2,0,0,,5,,,41,127
82210,note_on,0,0,0,,5,,,77,127
82282,note_off,72,0,0,,5,,,53,127
82315,note_on,33,0,0,,5,,,53,127
82387,note_off,72,0,0,,5,,,41,127
82418,note_off,31,0,0,,5,,,77,127
82420,note_on,2,0,0,,11,,,46,127
82420,note_on,0,0,0,,2,,,74,127
82492,note_off,72,0,0,,5,,,53,127
82525,note_on,33,0,0,,5,,,53,127
82597,note_off,72,0,0,,11,,,46,127
82628,note_off,31,0,0,,2,,,74,127
82630,note_on,2,0,0,,2,,,50,127
82630,note_on,0,0,0,,5,,,77,127
82702,note_off,72,0,0,,5,,,53,127
82735,note_on,33,0,0,,5,,,53,127
82807,note_off,72,0,0,,2,,,50,127
82838,note_off,31,0,0,,5,,,77,127
82840,note_on,2,0,0,,11,,,46,127
82840,note_on,0,0,0,,11,,,82,127
82912,note_off,72,0,0,,5,,,53,127
82945,note_on,33,0,0,,5,,,53,127
83017,note_off,72,0,0,,11,,,46,127
83048,note_off,31,0,0,,11,,,82,127
83050,note_on,2,0,0,,5,,,41,127
83050,note_on,0,0,0,,10,,,81,127
83122,note_off,72,0,0,,5,,,53,127
83155,note_on,33,0,0,,5,,,53,127
83227,note_off,72,0,0,,5,,,41,127
83258,note_off,31,0,0,,10,,,81,127
83260,note_on,2,0,0,,10,,,45,127
83260,note_on,0,0,0,,0,,,72,127
83332,note_off,72,0,0,,5,,,53,127
83365,note_on,33,0,0,,5,,,53,127
83437,note_off,72,0,0,,10,,,45,127
83468,note_off,31,0,0,,0,,,72,127
83470,note_on,2,0,0,,5,,,41,127
83470,note_on,0,0,0,,5,,,77,127
83542,note_off,72,0,0,,5,,,53,127
83575,note_on,33,0,0,,5,,,53,127
83647,note_off,72,0,0,,5,,,41,127
83678,note_off,31,0,0,,5,,,77,127
83680,note_on,2,0,0,,11,,,46,127
83680,note_on,0,0,0,,2,,,74,127
83752,note_off,72,0,0,,5,,,53,127
83785,note_on,33,0,0,,11,,,58,127
83857,note_off,72,0,0,,11,,,46,127
83888,note_off,31,0,0,,2,,,74,127
83890,note_on,2,0,0,,10,,,45,127
83890,note_on,0,0,0,,6,,,78,127
83905,note_off,15,0,0,,11,,,58,127
83994,note_on,89,0,0,,10,,,57,127
84066,note_off,72,0,0,,10,,,45,127
84097,note_off,31,0,0,,6,,,78,127
84099,note_on,2,0,0,,7,,,43,127
84099,note_on,0,0,0,,7,,,79,127
84114,note_off,15,0,0,,10,,,57,127
84203,note_on,89,0,0,,7,,,55,127
84275,note_off,72,0,0,,7,,,43,127
84306,note_off,31,0,0,,7,,,79,127
84308,note_on,2,0,0,,10,,,45,127
84308,note_on,0,0,0,,0,,,72,127
84323,note_off,15,0,0,,7,,,55,127
84412,note_on,89,0,0,,10,,,57,127
84484,note_off,72,0,0,,10,,,45,127
84515,note_off,31,0,0,,0,,,72,127
84517,note_on,2,0,0,,7,,,43,127
84517,note_on,0,0,0,,7,,,79,127
84532,note_off,15,0,0,,10,,,57,127
84621,note_on,89,0,0,,7,,,55,127
84693,note_off,72,0,0,,7,,,43,127
84724,note_off,31,0,0,,7,,,79,127
84726,note_on,2,0,0,,6,,,42,127
84726,note_on,0,0,0,,10,,,81,127
84741,note_off,15,0,0,,7,,,55,127
84830,note_on,89,0,0,,6,,,54,127
84902,note_off,72,0,0,,6,,,42,127
84933,note_off,31,0,0,,10,,,81,127
84935,note_on,2,0,0,,7,,,43,127
84935,note_on,0,0,0,,11,,,70,127
84950,note_off,15,0,0,,6,,,54,127
85039,note_on,89,0,0,,7,,,55,127
85111,note_off,72,0,0,,7,,,43,127
85142,note_off,31,0,0,,11,,,70,127
85144,note_on,2,0,0,,10,,,45,127
85144,note_on,0,0,0,,1,,,73,127
85144,note_on,0,0,0,,10,,,69,127
85159,note_off,15,0,0,,7,,,55,127
85248,note_on,89,0,0,,10,,,57,127
85320,note_off,72,0,0,,10,,,45,127
85351,note_off,31,0,0,,10,,,69,127
85351,note_off,0,0,0,,1,,,73,127
85353,note_on,2,0,0,,11,,,46,127
85353,note_on,0,0,0,,7,,,67,127
85353,note_on,0,0,0,,2,,,74,127
85368,note_off,15,0,0,,10,,,57,127
85457,note_on,89,0,0,,11,,,58,127
85529,note_off,72,0,0,,11,,,46,127
85560,note_off,31,0,0,,2,,,74,127
85560,note_off,0,0,0,,7,,,67,127
85561,note_off,1,0,0,,11,,,58,127
85562,note_on,1,0,0,,10,,,57,127
85562,note_on,0,0,0,,10,,,69,127
85562,note_on,0,0,0,,1,,,73,127
85667,note_on,105,0,0,,4,,,64,127
85739,note_off,72,0,0,,1,,,73,127
85739,note_off,0,0,0,,10,,,69,127
85770,note_off,31,0,0,,10,,,57,127
85772,note_on,2,0,0,,12,,,59,127
85772,note_on,0,0,0,,2,,,74,127
85772,note_on,0,0,0,,12,,,71,127
85844,note_off,72,0,0,,4,,,64,127
85877,note_on,33,0,0,,4,,,64,127
85949,note_off,72,0,0,,12,,,71,127
85949,note_off,0,0,0,,2,,,74,127
85980,note_off,31,0,0,,12,,,59,127
85982,note_on,2,0,0,,1,,,61,127
85982,note_on,0,0,0,,4,,,76,127
85982,note_on,0,0,0,,1,,,73,127
86054,note_off,72,0,0,,4,,,64,127
86087,note_on,33,0,0,,4,,,64,127
86159,note_off,72,0,0,,1,,,73,127
86159,note_off,0,0,0,,4,,,76,127
86190,note_off,31,0,0,,1,,,61,127
86191,note_off,1,0,0,,4,,,64,127
86192,note_on,1,0,0,,2,,,50,127
86192,note_on,0,0,0,,5,,,77,127
86192,note_on,0,0,0,,2,,,74,127
86297,note_on,105,0,0,,10,,,69,127
86369,note_off,72,0,0,,2,,,74,127
86369,note_off,0,0,0,,5,,,77,127
86400,note_off,31,0,0,,2,,,50,127
86402,note_on,2,0,0,,5,,,53,127
86402,note_on,0,0,0,,2,,,74,127
86402,note_on,0,0,0,,5,,,77,127
86474,note_off,72,0,0,,10,,,69,127
86507,note_on,33,0,0,,10,,,69,127
86579,note_off,72,0,0,,5,,,77,127
86579,note_off,0,0,0,,2,,,74,127
86610,note_off,31,0,0,,5,,,53,127
86612,note_on,2,0,0,,2,,,50,127
86612,note_on,0,0,0,,2,,,74,127
86612,note_on,0,0,0,,5,,,77,127
86684,note_off,72,0,0,,10,,,69,127
86717,note_on,33,0,0,,10,,,69,127
86789,note_off,72,0,0,,5,,,77,127
86789,note_off,0,0,0,,2,,,74,127
86820,note_off,31,0,0,,2,,,50,127
86822,note_on,2,0,0,,10,,,57,127
86822,note_on,0,0,0,,1,,,73,127
86822,note_on,0,0,0,,4,,,76,127
86894,note_off,72,0,0,,10,,,69,127
86927,note_on,33,0,0,,10,,,69,127
86999,note_off,72,0,0,,4,,,76,127
86999,note_off,0,0,0,,1,,,73,127
87030,note_off,31,0,0,,10,,,57,127
87032,note_on,2,0,0,,1,,,61,127
87032,note_on,0,0,0,,1,,,73,127
87032,note_on,0,0,0,,4,,,76,127
87104,note_off,72,0,0,,10,,,69,127
87137,note_on,33,0,0,,10,,,69,127
87209,note_off,72,0,0,,4,,,76,127
87209,note_off,0,0,0,,1,,,73,127
87240,note_off,31,0,0,,1,,,61,127
87242,note_on,2,0,0,,10,,,57,127
87242,note_on,0,0,0,,1,,,73,127
87242,note_on,0,0,0,,4,,,76,127
87314,note_off,72,0,0,,10,,,69,127
87347,note_on,33,0,0,,10,,,69,127
87419,note_off,72,0,0,,4,,,76,127
87419,note_off,0,0,0,,1,,,73,127
87450,note_off,31,0,0,,10,,,57,127
87452,note_on,2,0,0,,2,,,50,127
87452,note_on,0,0,0,,2,,,74,127
87452,note_on,0,0,0,,5,,,77,127
87524,note_off,72,0,0,,10,,,69,127
87557,note_on,33,0,0,,10,,,69,127
87629,note_off,72,0,0,,5,,,77,127
87629,note_off,0,0,0,,2,,,74,127
87660,note_off,31,0,0,,2,,,50,127
87662,note_on,2,0,0,,5,,,53,127
87662,note_on,0,0,0,,2,,,74,127
87662,note_on,0,0,0,,5,,,77,127
87734,note_off,72,0,0,,10,,,69,127
87767,note_on,33,0,0,,10,,,69,127
87839,note_off,72,0,0,,5,,,77,127
87839,note_off,0,0,0,,2,,,74,127
87870,note_off,31,0,0,,5,,,53,127
87872,note_on,2,0,0,,2,,,50,127
87872,note_on,0,0,0,,5,,,77,127
87872,note_on,0,0,0,,2,,,74,127
87944,note_off,72,0,0,,10,,,69,127
87977,note_on,33,0,0,,10,,,69,127
88049,note_off,72,0,0,,2,,,74,127
88049,note_off,0,0,0,,5,,,77,127
88080,note_off,31,0,0,,2,,,50,127
88082,note_on,2,0,0,,10,,,57,127
88082,note_on,0,0,0,,4,,,76,127
88082,note_on,0,0,0,,1,,,73,127
88154,note_off,72,0,0,,10,,,69,127
88187,note_on,33,0,0,,10,,,69,127
88259,note_off,72,0,0,,1,,,73,127
88259,note_off,0,0,0,,4,,,76,127
88290,note_off,31,0,0,,10,,,57,127
88292,note_on,2,0,0,,1,,,61,127
88292,note_on,0,0,0,,4,,,76,127
88292,note_on,0,0,0,,1,,,73,127
88364,note_off,72,0,0,,10,,,69,127
88397,note_on,33,0,0,,10,,,69,127
88469,note_off,72,0,0,,1,,,73,127
88469,note_off,0,0,0,,4,,,76,127
88500,note_off,31,0,0,,1,,,61,127
88502,note_on,2,0,0,,10,,,57,127
88502,note_on,0,0,0,,1,,,73,127
88502,note_on,0,0,0,,4,,,76,127
88574,note_off,72,0,0,,10,,,69,127
88607,note_on,33,0,0,,10,,,69,127
88679,note_off,72,0,0,,4,,,76,127
88679,note_off,0,0,0,,1,,,73,127
88710,note_off,31,0,0,,10,,,57,127
88712,note_on,2,0,0,,2,,,50,127
88712,note_on,0,0,0,,2,,,74,127
88712,note_on,0,0,0,,6,,,78,127
88784,note_off,72,0,0,,10,,,69,127
88817,note_on,33,0,0,,10,,,69,127
88889,note_off,72,0,0,,6,,,78,127
88889,note_off,0,0,0,,2,,,74,127
88920,note_off,31,0,0,,2,,,50,127
88922,note_on,2,0,0,,4,,,52,127
88922,note_on,0,0,0,,7,,,79,127
88922,note_on,0,0,0,,4,,,76,127
88994,note_off,72,0,0,,10,,,69,127
89027,note_on,33,0,0,,10,,,69,127
89099,note_off,72,0,0,,4,,,76,127
89099,note_off,0,0,0,,7,,,79,127
89130,note_off,31,0,0,,4,,,52,127
89132,note_on,2,0,0,,6,,,54,127
89132,note_on,0,0,0,,6,,,78,127
89132,note_on,0,0,0,,10,,,81,127
89204,note_off,72,0,0,,10,,,69,127
89237,note_on,33,0,0,,10,,,69,127
89309,note_off,72,0,0,,10,,,81,127
89309,note_off,0,0,0,,6,,,78,127
89340,note_off,31,0,0,,6,,,54,127
89341,note_off,1,0,0,,10,,,69,127
89342,note_on,1,0,0,,7,,,55,127
89342,note_on,0,0,0,,11,,,82,127
89342,note_on,0,0,0,,7,,,79,127
89447,note_on,105,0,0,,2,,,74,127
89519,note_off,72,0,0,,7,,,79,127
89519,note_off,0,0,0,,11,,,82,127
89550,note_off,31,0,0,,7,,,55,127
89552,note_on,2,0,0,,11,,,58,127
89552,note_on,0,0,0,,11,,,82,127
89552,note_on,0,0,0,,7,,,79,127
89624,note_off,72,0,0,,2,,,74,127
89657,note_on,33,0,0,,2,,,74,127
89729,note_off,72,0,0,,7,,,79,127
89729,note_off,0,0,0,,11,,,82,127
89760,note_off,31,0,0,,11,,,58,127
89762,note_on,2,0,0,,7,,,55,127
89762,note_on,0,0,0,,11,,,82,127
89762,note_on,0,0,0,,7,,,79,127
89834,note_off,72,0,0,,2,,,74,127
89867,note_on,33,0,0,,2,,,74,127
89939,note_off,72,0,0,,7,,,79,127
89939,note_off,0,0,0,,11,,,82,127
89970,note_off,31,0,0,,7,,,55,127
89972,note_on,2,0,0,,2,,,50,127
89972,note_on,0,0,0,,10,,,81,127
89972,note_on,0,0,0,,6,,,78,127
90044,note_off,72,0,0,,2,,,74,127
90077,note_on,33,0,0,,2,,,74,127
90149,note_off,72,0,0,,6,,,78,127
90149,note_off,0,0,0,,10,,,81,127
90180,note_off,31,0,0,,2,,,50,127
90182,note_on,2,0,0,,6,,,54,127
90182,note_on,0,0,0,,6,,,78,127
90182,note_on,0,0,0,,10,,,81,127
90254,note_off,72,0,0,,2,,,74,127
90287,note_on,33,0,0,,2,,,74,127
90359,note_off,72,0,0,,10,,,81,127
90359,note_off,0,0,0,,6,,,78,127
90390,note_off,31,0,0,,6,,,54,127
90392,note_on,2,0,0,,2,,,50,127
90392,note_on,0,0,0,,10,,,81,127
90392,note_on,0,0,0,,6,,,78,127
90464,note_off,72,0,0,,2,,,74,127
90497,note_on,33,0,0,,2,,,74,127
90569,note_off,72,0,0,,6,,,78,127
90569,note_off,0,0,0,,10,,,81,127
90600,note_off,31,0,0,,2,,,50,127
90602,note_on,2,0,0,,7,,,55,127
90602,note_on,0,0,0,,11,,,82,127
90602,note_on,0,0,0,,7,,,79,127
90674,note_off,72,0,0,,2,,,74,127
90707,note_on,33,0,0,,2,,,74,127
90779,note_off,72,0,0,,7,,,79,127
90779,note_off,0,0,0,,11,,,82,127
90810,note_off,31,0,0,,7,,,55,127
90812,note_on,2,0,0,,11,,,58,127
90812,note_on,0,0,0,,11,,,82,127
90812,note_on,0,0,0,,7,,,79,127
90884,note_off,72,0,0,,2,,,74,127
90917,note_on,33,0,0,,2,,,74,127
90989,note_off,72,0,0,,7,,,79,127
90989,note_off,0,0,0,,11,,,82,127
91020,note_off,31,0,0,,11,,,58,127
91022,note_on,2,0,0,,7,,,55,127
91022,note_on,0,0,0,,7,,,79,127
91022,note_on,0,0,0,,11,,,82,127
91094,note_off,72,0,0,,2,,,74,127
91127,note_on,33,0,0,,2,,,74,127
91199,note_off,72,0,0,,11,,,82,127
91199,note_off,0,0,0,,7,,,79,127
91230,note_off,31,0,0,,7,,,55,127
91232,note_on,2,0,0,,2,,,50,127
91232,note_on,0,0,0,,10,,,81,127
91232,note_on,0,0,0,,6,,,78,127
91304,note_off,72,0,0,,2,,,74,127
91337,note_on,33,0,0,,2,,,74,127
91409,note_off,72,0,0,,6,,,78,127
91409,note_off,0,0,0,,10,,,81,127
91440,note_off,31,0,0,,2,,,50,127
91442,note_on,2,0,0,,6,,,54,127
91442,note_on,0,0,0,,10,,,81,127
91442,note_on,0,0,0,,6,,,78,127
91514,note_off,72,0,0,,2,,,74,127
91547,note_on,33,0,0,,2,,,74,127
91619,note_off,72,0,0,,6,,,78,127
91619,note_off,0,0,0,,10,,,81,127
91650,note_off,31,0,0,,6,,,54,127
91652,note_on,2,0,0,,2,,,50,127
91652,note_on,0,0,0,,6,,,78,127
91652,note_on,0,0,0,,10,,,81,127
91724,note_off,72,0,0,,2,,,74,127
91757,note_on,33,0,0,,2,,,74,127
91829,note_off,72,0,0,,10,,,81,127
91829,note_off,0,0,0,,6,,,78,127
91860,note_off,31,0,0,,2,,,50,127
91862,note_on,2,0,0,,7,,,55,127
91862,note_on,0,0,0,,11,,,82,127
91862,note_on,0,0,0,,7,,,79,127
91934,note_off,72,0,0,,2,,,74,127
91967,note_on,33,0,0,,2,,,74,127
92039,note_off,72,0,0,,7,,,79,127
92039,note_off,0,0,0,,11,,,82,127
92070,note_off,31,0,0,,7,,,55,127
92072,note_on,2,0,0,,11,,,58,127
92072,note_on,0,0,0,,11,,,82,127
92144,note_off,72,0,0,,2,,,74,127
92177,note_on,33,0,0,,2,,,74,127
92249,note_off,72,0,0,,11,,,82,127
92280,note_off,31,0,0,,11,,,58,127
92282,note_on,2,0,0,,7,,,55,127
92282,note_on,0,0,0,,11,,,82,127
92354,note_off,72,0,0,,2,,,74,127
92387,note_on,33,0,0,,2,,,74,127
92459,note_off,72,0,0,,11,,,82,127
92490,note_off,31,0,0,,7,,,55,127
92491,note_off,1,0,0,,2,,,74,127
92492,note_on,1,0,0,,0,,,48,127
92492,note_on,0,0,0,,11,,,82,127
92597,note_on,105,0,0,,0,,,72,127
92669,note_off,72,0,0,,11,,,82,127
92700,note_off,31,0,0,,0,,,48,127
92702,note_on,2,0,0,,4,,,52,127
92702,note_on,0,0,0,,11,,,82,127
92774,note_off,72,0,0,,0,,,72,127
92807,note_on,33,0,0,,0,,,72,127
92879,note_off,72,0,0,,11,,,82,127
92910,note_off,31,0,0,,4,,,52,127
92912,note_on,2,0,0,,0,,,48,127
92912,note_on,0,0,0,,11,,,82,127
92984,note_off,72,0,0,,0,,,72,127
93017,note_on,33,0,0,,0,,,72,127
93089,note_off,72,0,0,,11,,,82,127
93120,note_off,31,0,0,,0,,,48,127
93122,note_on,2,0,0,,5,,,53,127
93122,note_on,0,0,0,,10,,,81,127
93194,note_off,72,0,0,,0,,,72,127
93227,note_on,33,0,0,,0,,,72,127
93299,note_off,72,0,0,,10,,,81,127
93330,note_off,31,0,0,,5,,,53,127
93332,note_on,2,0,0,,10,,,57,127
93332,note_on,0,0,0,,10,,,81,127
93404,note_off,72,0,0,,0,,,72,127
93437,note_on,33,0,0,,0,,,72,127
93509,note_off,72,0,0,,10,,,81,127
93540,note_off,31,0,0,,10,,,57,127
93542,note_on,2,0,0,,5,,,53,127
93542,note_on,0,0,0,,10,,,81,127
93614,note_off,72,0,0,,0,,,72,127
93647,note_on,33,0,0,,0,,,72,127
93719,note_off,72,0,0,,10,,,81,127
93750,note_off,31,0,0,,5,,,53,127
93751,note_off,1,0,0,,0,,,72,127
93752,note_on,1,0,0,,11,,,46,127
93752,note_on,0,0,0,,10,,,81,127
93857,note_on,105,0,0,,11,,,70,127
93929,note_off,72,0,0,,10,,,81,127
93960,note_off,31,0,0,,11,,,46,127
93962,note_on,2,0,0,,2,,,50,127
93962,note_on,0,0,0,,10,,,81,127
94034,note_off,72,0,0,,11,,,70,127
94067,note_on,33,0,0,,11,,,70,127
94139,note_off,72,0,0,,10,,,81,127
94170,note_off,31,0,0,,2,,,50,127
94172,note_on,2,0,0,,11,,,46,127
94172,note_on,0,0,0,,10,,,81,127
94244,note_off,72,0,0,,11,,,70,127
94277,note_on,33,0,0,,11,,,70,127
94349,note_off,72,0,0,,10,,,81,127
94380,note_off,31,0,0,,11,,,46,127
94382,note_on,2,0,0,,4,,,52,127
94382,note_on,0,0,0,,7,,,79,127
94454,note_off,72,0,0,,11,,,70,127
94487,note_on,33,0,0,,11,,,70,127
94559,note_off,72,0,0,,7,,,79,127
94590,note_off,31,0,0,,4,,,52,127
94592,note_on,2,0,0,,7,,,55,127
94592,note_on,0,0,0,,7,,,79,127
94664,note_off,72,0,0,,11,,,70,127
94697,note_on,33,0,0,,11,,,70,127
94769,note_off,72,0,0,,7,,,79,127
94800,note_off,31,0,0,,7,,,55,127
94802,note_on,2,0,0,,4,,,52,127
94802,note_on,0,0,0,,7,,,79,127
94874,note_off,72,0,0,,11,,,70,127
94907,note_on,33,0,0,,11,,,70,127
94979,note_off,72,0,0,,7,,,79,127
95010,note_off,31,0,0,,4,,,52,127
95011,note_off,1,0,0,,11,,,70,127
95012,note_on,1,0,0,,10,,,45,127
95012,note_on,0,0,0,,7,,,79,127
95117,note_on,105,0,0,,10,,,69,127
95189,note_off,72,0,0,,7,,,79,127
95220,note_off,31,0,0,,10,,,45,127
95222,note_on,2,0,0,,1,,,49,127
95222,note_on,0,0,0,,7,,,79,127
95294,note_off,72,0,0,,10,,,69,127
95327,note_on,33,0,0,,10,,,69,127
95399,note_off,72,0,0,,7,,,79,127
95430,note_off,31,0,0,,1,,,49,127
95432,note_on,2,0,0,,10,,,45,127
95432,note_on,0,0,0,,7,,,79,127
95504,note_off,72,0,0,,10,,,69,127
95537,note_on,33,0,0,,10,,,69,127
95609,note_off,72,0,0,,7,,,79,127
95640,note_off,31,0,0,,10,,,45,127
95642,note_on,2,0,0,,2,,,50,127
95642,note_on,0,0,0,,5,,,77,127
95714,note_off,72,0,0,,10,,,69,127
95747,note_on,33,0,0,,10,,,69,127
95819,note_off,72,0,0,,5,,,77,127
95850,note_off,31,0,0,,2,,,50,127
95852,note_on,2,0,0,,5,,,53,127
95852,note_on,0,0,0,,5,,,77,127
95924,note_off,72,0,0,,10,,,69,127
95957,note_on,33,0,0,,10,,,69,127
96029,note_off,72,0,0,,5,,,77,127
96060,note_off,31,0,0,,5,,,53,127
96062,note_on,2,0,0,,2,,,50,127
96062,note_on,0,0,0,,5,,,77,127
96134,note_off,72,0,0,,10,,,69,127
96167,note_on,33,0,0,,10,,,69,127
96239,note_off,72,0,0,,5,,,77,127
96270,note_off,31,0,0,,2,,,50,127
96271,note_off,1,0,0,,10,,,69,127
96272,note_on,1,0,0,,7,,,43,127
96272,note_on,0,0,0,,5,,,77,127
96377,note_on,105,0,0,,7,,,67,127
96449,note_off,72,0,0,,5,,,77,127
96480,note_off,31,0,0,,7,,,43,127
96482,note_on,2,0,0,,12,,,47,127
96482,note_on,0,0,0,,5,,,77,127
96554,note_off,72,0,0,,7,,,67,127
96587,note_on,33,0,0,,7,,,67,127
96659,note_off,72,0,0,,5,,,77,127
96690,note_off,31,0,0,,12,,,47,127
96692,note_on,2,0,0,,7,,,43,127
96692,note_on,0,0,0,,5,,,77,127
96764,note_off,72,0,0,,7,,,67,127
96797,note_on,33,0,0,,7,,,67,127
96869,note_off,72,0,0,,5,,,77,127
96900,note_off,31,0,0,,7,,,43,127
96902,note_on,2,0,0,,0,,,48,127
96902,note_on,0,0,0,,3,,,75,127
96974,note_off,72,0,0,,7,,,67,127
97007,note_on,33,0,0,,7,,,67,127
97079,note_off,72,0,0,,3,,,75,127
97110,note_off,31,0,0,,0,,,48,127
97112,note_on,2,0,0,,3,,,51,127
97112,note_on,0,0,0,,3,,,75,127
97184,note_off,72,0,0,,7,,,67,127
97217,note_on,33,0,0,,7,,,67,127
97289,note_off,72,0,0,,3,,,75,127
97320,note_off,31,0,0,,3,,,51,127
97322,note_on,2,0,0,,0,,,48,127
97322,note_on,0,0,0,,3,,,75,127
97394,note_off,72,0,0,,7,,,67,127
97427,note_on,33,0,0,,7,,,67,127
97499,note_off,72,0,0,,3,,,75,127
97530,note_off,31,0,0,,0,,,48,127
97531,note_off,1,0,0,,7,,,67,127
97532,note_on,1,0,0,,5,,,41,127
97532,note_on,0,0,0,,3,,,75,127
97637,note_on,105,0,0,,5,,,65,127
97709,note_off,72,0,0,,3,,,75,127
97740,note_off,31,0,0,,5,,,41,127
97742,note_on,2,0,0,,10,,,45,127
97742,note_on,0,0,0,,3,,,75,127
97814,note_off,72,0,0,,5,,,65,127
97847,note_on,33,0,0,,5,,,65,127
97919,note_off,72,0,0,,3,,,75,127
97950,note_off,31,0,0,,10,,,45,127
97952,note_on,2,0,0,,5,,,41,127
97952,note_on,0,0,0,,3,,,75,127
98024,note_off,72,0,0,,5,,,65,127
98057,note_on,33,0,0,,5,,,65,127
98129,note_off,72,0,0,,3,,,75,127
98160,note_off,31,0,0,,5,,,41,127
98162,note_on,2,0,0,,11,,,46,127
98162,note_on,0,0,0,,2,,,74,127
98234,note_off,72,0,0,,5,,,65,127
98267,note_on,33,0,0,,5,,,65,127
98339,note_off,72,0,0,,2,,,74,127
98370,note_off,31,0,0,,11,,,46,127
98372,note_on,2,0,0,,2,,,50,127
98372,note_on,0,0,0,,2,,,74,127
98444,note_off,72,0,0,,5,,,65,127
98477,note_on,33,0,0,,5,,,65,127
98549,note_off,72,0,0,,2,,,74,127
98580,note_off,31,0,0,,2,,,50,127
98582,note_on,2,0,0,,11,,,46,127
98582,note_on,0,0,0,,2,,,74,127
98654,note_off,72,0,0,,5,,,65,127
98687,note_on,33,0,0,,5,,,65,127
98759,note_off,72,0,0,,2,,,74,127
98790,note_off,31,0,0,,11,,,46,127
98791,note_off,1,0,0,,5,,,65,127
98792,note_on,1,0,0,,0,,,48,127
98792,note_on,0,0,0,,4,,,76,127
98897,note_on,105,0,0,,7,,,67,127
98969,note_off,72,0,0,,4,,,76,127
99000,note_off,31,0,0,,0,,,48,127
99002,note_on,2,0,0,,4,,,52,127
99002,note_on,0,0,0,,4,,,76,127
99074,note_off,72,0,0,,7,,,67,127
99107,note_on,33,0,0,,7,,,67,127
99179,note_off,72,0,0,,4,,,76,127
99210,note_off,31,0,0,,4,,,52,127
99212,note_on,2,0,0,,0,,,48,127
99212,note_on,0,0,0,,4,,,76,127
99284,note_off,72,0,0,,7,,,67,127
99317,note_on,33,0,0,,7,,,67,127
99389,note_off,72,0,0,,4,,,76,127
99420,note_off,31,0,0,,0,,,48,127
99421,note_off,1,0,0,,7,,,67,127
99422,note_on,1,0,0,,2,,,50,127
99422,note_on,0,0,0,,5,,,77,127
99527,note_on,105,0,0,,12,,,71,127
99599,note_off,72,0,0,,5,,,77,127
99630,note_off,31,0,0,,2,,,50,127
99632,note_on,2,0,0,,5,,,53,127
99632,note_on,0,0,0,,5,,,77,127
99704,note_off,72,0,0,,12,,,71,127
99737,note_on,33,0,0,,12,,,71,127
99809,note_off,72,0,0,,5,,,77,127
99840,note_off,31,0,0,,5,,,53,127
99842,note_on,2,0,0,,2,,,50,127
99842,note_on,0,0,0,,5,,,77,127
99914,note_off,72,0,0,,12,,,71,127
99947,note_on,33,0,0,,12,,,71,127
100019,note_off,72,0,0,,5,,,77,127
100050,note_off,31,0,0,,2,,,50,127
100051,note_off,1,0,0,,12,,,71,127
100052,note_on,1,0,0,,4,,,52,127
100052,note_on,0,0,0,,7,,,79,127
100157,note_on,105,0,0,,0,,,72,127
100229,note_off,72,0,0,,7,,,79,127
100260,note_off,31,0,0,,4,,,52,127
100262,note_on,2,0,0,,0,,,48,127
100262,note_on,0,0,0,,7,,,79,127
100334,note_off,72,0,0,,0,,,72,127
100367,note_on,33,0,0,,0,,,72,127
100439,note_off,72,0,0,,7,,,79,127
100470,note_off,31,0,0,,0,,,48,127
100472,note_on,2,0,0,,4,,,52,127
100472,note_on,0,0,0,,7,,,79,127
100544,note_off,72,0,0,,0,,,72,127
100577,note_on,33,0,0,,0,,,72,127
100649,note_off,72,0,0,,7,,,79,127
100680,note_off,31,0,0,,4,,,52,127
100681,note_off,1,0,0,,0,,,72,127
100682,note_on,1,0,0,,5,,,53,127
100682,note_on,0,0,0,,10,,,81,127
100889,note_off,207,0,0,,10,,,81,127
100889,note_off,0,0,0,,5,,,53,127
100891,note_on,2,0,0,,5,,,53,127
100891,note_on,0,0,0,,0,,,72,127
101098,note_off,207,0,0,,0,,,72,127
101098,note_off,0,0,0,,5,,,53,127
101100,note_on,2,0,0,,5,,,53,127
101100,note_on,0,0,0,,5,,,77,127
101307,note_off,207,0,0,,5,,,53,127
101309,note_on,2,0,0,,10,,,57,127
101516,note_off,207,0,0,,10,,,57,127
101517,note_off,1,0,0,,5,,,77,127
101518,note_on,1,0,0,,10,,,57,127
101518,note_on,0,0,0,,0,,,72,127
101518,note_on,0,0,0,,0,,,84,127
101725,note_off,207,0,0,,0,,,84,127
101725,note_off,0,0,0,,0,,,72,127
101725,note_off,0,0,0,,10,,,57,127
101727,note_on,2,0,0,,10,,,57,127
101727,note_on,0,0,0,,10,,,81,127
101727,note_on,0,0,0,,5,,,77,127
101934,note_off,207,0,0,,5,,,77,127
101934,note_off,0,0,0,,10,,,81,127
101934,note_off,0,0,0,,10,,,57,127
101936,note_on,2,0,0,,0,,,60,127
101936,note_on,0,0,0,,4,,,76,127
101936,note_on,0,0,0,,7,,,79,127
102143,note_off,207,0,0,,7,,,79,127
102143,note_off,0,0,0,,4,,,76,127
102143,note_off,0,0,0,,0,,,60,127
102145,note_on,2,0,0,,0,,,60,127
102145,note_on,0,0,0,,0,,,84,127
102145,note_on,0,0,0,,0,,,72,127
102352,note_off,207,0,0,,0,,,72,127
102352,note_off,0,0,0,,0,,,84,127
102352,note_off,0,0,0,,0,,,60,127
102354,note_on,2,0,0,,0,,,60,127
102354,note_on,0,0,0,,7,,,79,127
102354,note_on,0,0,0,,4,,,76,127
102561,note_off,207,0,0,,4,,,76,127
102561,note_off,0,0,0,,7,,,79,127
102561,note_off,0,0,0,,0,,,60,127
102563,note_on,2,0,0,,5,,,53,127
102563,note_on,0,0,0,,10,,,81,127
102563,note_on,0,0,0,,5,,,77,127
102668,note_on,105,0,0,,5,,,65,127
102773,note_on,105,0,0,,4,,,64,127
102799,note_off,26,0,0,,5,,,65,127
102878,note_on,79,0,0,,5,,,65,127
102904,note_off,26,0,0,,4,,,64,127
102981,note_off,77,0,0,,5,,,77,127
102981,note_off,0,0,0,,10,,,81,127
102981,note_off,0,0,0,,5,,,53,127
102982,note_on,1,0,0,,0,,,60,127
102982,note_on,0,0,0,,5,,,77,127
103054,note_off,72,0,0,,5,,,65,127
103087,note_on,33,0,0,,5,,,65,127
103159,note_off,72,0,0,,0,,,60,127
103190,note_off,31,0,0,,5,,,77,127
103192,note_on,2,0,0,,2,,,62,127
103192,note_on,0,0,0,,7,,,79,127
103244,note_on,52,0,0,,5,,,77,127
103261,note_off,17,0,0,,7,,,79,127
103263,note_off,2,0,0,,5,,,65,127
103296,note_on,33,0,0,,5,,,65,127
103296,note_on,0,0,0,,7,,,79,127
103313,note_off,17,0,0,,5,,,77,127
103348,note_on,35,0,0,,5,,,77,127
103365,note_off,17,0,0,,7,,,79,127
103367,note_off,2,0,0,,2,,,62,127
103400,note_on,33,0,0,,0,,,60,127
103400,note_on,0,0,0,,7,,,79,127
103417,note_off,17,0,0,,5,,,77,127
103452,note_on,35,0,0,,5,,,77,127
103469,note_off,17,0,0,,7,,,79,127
103471,note_off,2,0,0,,5,,,65,127
103504,note_on,33,0,0,,5,,,65,127
103504,note_on,0,0,0,,7,,,79,127
103521,note_off,17,0,0,,5,,,77,127
103556,note_on,35,0,0,,5,,,77,127
103573,note_off,17,0,0,,7,,,79,127
103575,note_off,2,0,0,,0,,,60,127
103608,note_on,33,0,0,,11,,,58,127
103608,note_on,0,0,0,,7,,,79,127
103625,note_off,17,0,0,,5,,,77,127
103660,note_on,35,0,0,,5,,,77,127
103677,note_off,17,0,0,,7,,,79,127
103679,note_off,2,0,0,,5,,,65,127
103712,note_on,33,0,0,,5,,,65,127
103712,note_on,0,0,0,,7,,,79,127
103729,note_off,17,0,0,,5,,,77,127
103764,note_on,35,0,0,,5,,,77,127
103781,note_off,17,0,0,,7,,,79,127
103783,note_off,2,0,0,,11,,,58,127
103816,note_on,33,0,0,,0,,,60,127
103816,note_on,0,0,0,,7,,,79,127
103833,note_off,17,0,0,,5,,,77,127
103868,note_on,35,0,0,,5,,,77,127
103885,note_off,17,0,0,,7,,,79,127
103887,note_off,2,0,0,,5,,,65,127
103920,note_on,33,0,0,,5,,,65,127
103920,note_on,0,0,0,,7,,,79,127
103937,note_off,17,0,0,,5,,,77,127
103972,note_on,35,0,0,,5,,,77,127
103989,note_off,17,0,0,,7,,,79,127
103991,note_off,2,0,0,,0,,,60,127
104024,note_on,33,0,0,,11,,,58,127
104024,note_on,0,0,0,,7,,,79,127
104041,note_off,17,0,0,,5,,,77,127
104076,note_on,35,0,0,,5,,,77,127
104093,note_off,17,0,0,,7,,,79,127
104095,note_off,2,0,0,,5,,,65,127
104128,note_on,33,0,0,,5,,,65,127
104128,note_on,0,0,0,,7,,,79,127
104145,note_off,17,0,0,,5,,,77,127
104180,note_on,35,0,0,,5,,,77,127
104197,note_off,17,0,0,,7,,,79,127
104199,note_off,2,0,0,,11,,,58,127
104232,note_on,33,0,0,,10,,,57,127
104232,note_on,0,0,0,,7,,,79,127
104249,note_off,17,0,0,,5,,,77,127
104284,note_on,35,0,0,,5,,,77,127
104301,note_off,17,0,0,,7,,,79,127
104303,note_off,2,0,0,,5,,,65,127
104336,note_on,33,0,0,,5,,,65,127
104336,note_on,0,0,0,,7,,,79,127
104353,note_off,17,0,0,,5,,,77,127
104388,note_on,35,0,0,,5,,,77,127
104405,note_off,17,0,0,,7,,,79,127
104407,note_off,2,0,0,,10,,,57,127
104440,note_on,33,0,0,,11,,,58,127
104440,note_on,0,0,0,,7,,,79,127
104457,note_off,17,0,0,,5,,,77,127
104492,note_on,35,0,0,,5,,,77,127
104509,note_off,17,0,0,,7,,,79,127
104511,note_off,2,0,0,,5,,,65,127
104544,note_on,33,0,0,,5,,,65,127
104544,note_on,0,0,0,,7,,,79,127
104561,note_off,17,0,0,,5,,,77,127
104596,note_on,35,0,0,,5,,,77,127
104613,note_off,17,0,0,,7,,,79,127
104615,note_off,2,0,0,,11,,,58,127
104648,note_on,33,0,0,,10,,,57,127
104648,note_on,0,0,0,,7,,,79,127
104665,note_off,17,0,0,,5,,,77,127
104700,note_on,35,0,0,,5,,,77,127
104717,note_off,17,0,0,,7,,,79,127
104719,note_off,2,0,0,,5,,,65,127
104752,note_on,33,0,0,,5,,,65,127
104752,note_on,0,0,0,,7,,,79,127
104769,note_off,17,0,0,,5,,,77,127
104804,note_on,35,0,0,,5,,,77,127
104821,note_off,17,0,0,,7,,,79,127
104823,note_off,2,0,0,,10,,,57,127
104856,note_on,33,0,0,,7,,,55,127
104856,note_on,0,0,0,,7,,,79,127
104873,note_off,17,0,0,,5,,,77,127
104908,note_on,35,0,0,,5,,,77,127
104925,note_off,17,0,0,,7,,,79,127
104927,note_off,2,0,0,,5,,,65,127
104960,note_on,33,0,0,,5,,,65,127
104960,note_on,0,0,0,,7,,,79,127
104977,note_off,17,0,0,,5,,,77,127
105012,note_on,35,0,0,,5,,,77,127
105029,note_off,17,0,0,,7,,,79,127
105031,note_off,2,0,0,,7,,,55,127
105063,note_off,32,0,0,,5,,,65,127
105064,note_on,1,0,0,,7,,,67,127
105064,note_on,0,0,0,,5,,,53,127
105081,note_off,17,0,0,,5,,,77,127
105116,note_on,35,0,0,,5,,,65,127
105133,note_off,17,0,0,,7,,,67,127
105166,note_off,33,0,0,,5,,,53,127
105168,note_on,2,0,0,,5,,,53,127
105168,note_on,0,0,0,,7,,,67,127
105185,note_off,17,0,0,,5,,,65,127
105220,note_on,35,0,0,,5,,,65,127
105237,note_off,17,0,0,,7,,,67,127
105272,note_on,35,0,0,,4,,,52,127
105272,note_on,0,0,0,,7,,,67,127
105289,note_off,17,0,0,,5,,,65,127
105324,note_on,35,0,0,,5,,,65,127
105341,note_off,17,0,0,,7,,,67,127
105343,note_off,2,0,0,,5,,,53,127
105376,note_on,33,0,0,,5,,,53,127
105376,note_on,0,0,0,,7,,,67,127
105393,note_off,17,0,0,,5,,,65,127
105428,note_on,35,0,0,,5,,,65,127
105445,note_off,17,0,0,,7,,,67,127
105447,note_off,2,0,0,,4,,,52,127
105480,note_on,33,0,0,,0,,,48,127
105480,note_on,0,0,0,,7,,,67,127
105497,note_off,17,0,0,,5,,,65,127
105532,note_on,35,0,0,,5,,,65,127
105549,note_off,17,0,0,,7,,,67,127
105551,note_off,2,0,0,,5,,,53,127
105584,note_on,33,0,0,,5,,,53,127
105584,note_on,0,0,0,,7,,,67,127
105601,note_off,17,0,0,,5,,,65,127
105636,note_on,35,0,0,,5,,,65,127
105653,note_off,17,0,0,,7,,,67,127
105655,note_off,2,0,0,,0,,,48,127
105688,note_on,33,0,0,,2,,,50,127
105688,note_on,0,0,0,,7,,,67,127
105705,note_off,17,0,0,,5,,,65,127
105740,note_on,35,0,0,,5,,,65,127
105757,note_off,17,0,0,,7,,,67,127
105759,note_off,2,0,0,,5,,,53,127
105792,note_on,33,0,0,,5,,,53,127
105792,note_on,0,0,0,,7,,,67,127
105809,note_off,17,0,0,,5,,,65,127
105844,note_on,35,0,0,,5,,,65,127
105861,note_off,17,0,0,,7,,,67,127
105863,note_off,2,0,0,,2,,,50,127
105896,note_on,33,0,0,,0,,,48,127
105896,note_on,0,0,0,,7,,,67,127
105913,note_off,17,0,0,,5,,,65,127
105948,note_on,35,0,0,,5,,,65,127
105965,note_off,17,0,0,,7,,,67,127
105967,note_off,2,0,0,,5,,,53,127
106000,note_on,33,0,0,,5,,,53,127
106000,note_on,0,0,0,,7,,,67,127
106017,note_off,17,0,0,,5,,,65,127
106052,note_on,35,0,0,,5,,,65,127
106069,note_off,17,0,0,,7,,,67,127
106071,note_off,2,0,0,,0,,,48,127
106104,note_on,33,0,0,,11,,,46,127
106104,note_on,0,0,0,,7,,,67,127
106121,note_off,17,0,0,,5,,,65,127
106156,note_on,35,0,0,,5,,,65,127
106173,note_off,17,0,0,,7,,,67,127
106175,note_off,2,0,0,,5,,,53,127
106208,note_on,33,0,0,,5,,,53,127
106208,note_on,0,0,0,,7,,,67,127
106225,note_off,17,0,0,,5,,,65,127
106260,note_on,35,0,0,,5,,,65,127
106277,note_off,17,0,0,,7,,,67,127
106279,note_off,2,0,0,,11,,,46,127
106312,note_on,33,0,0,,0,,,48,127
106312,note_on,0,0,0,,7,,,67,127
106329,note_off,17,0,0,,5,,,65,127
106364,note_on,35,0,0,,5,,,65,127
106381,note_off,17,0,0,,7,,,67,127
106383,note_off,2,0,0,,5,,,53,127
106416,note_on,33,0,0,,5,,,53,127
106416,note_on,0,0,0,,7,,,67,127
106433,note_off,17,0,0,,5,,,65,127
106468,note_on,35,0,0,,5,,,65,127
106485,note_off,17,0,0,,7,,,67,127
106487,note_off,2,0,0,,0,,,48,127
106520,note_on,33,0,0,,11,,,46,127
106520,note_on,0,0,0,,7,,,67,127
106537,note_off,17,0,0,,5,,,65,127
106572,note_on,35,0,0,,5,,,65,127
106589,note_off,17,0,0,,7,,,67,127
106591,note_off,2,0,0,,5,,,53,127
106624,note_on,33,0,0,,5,,,53,127
106624,note_on,0,0,0,,7,,,67,127
106641,note_off,17,0,0,,5,,,65,127
106676,note_on,35,0,0,,5,,,65,127
106693,note_off,17,0,0,,7,,,67,127
106695,note_off,2,0,0,,11,,,46,127
106728,note_on,33,0,0,,10,,,45,127
106728,note_on,0,0,0,,7,,,67,127
106745,note_off,17,0,0,,5,,,65,127
106780,note_on,35,0,0,,5,,,65,127
106797,note_off,17,0,0,,7,,,67,127
106799,note_off,2,0,0,,5,,,53,127
106832,note_on,33,0,0,,5,,,53,127
106832,note_on,0,0,0,,7,,,67,127
106849,note_off,17,0,0,,5,,,65,127
106884,note_on,35,0,0,,5,,,65,127
106901,note_off,17,0,0,,7,,,67,127
106903,note_off,2,0,0,,10,,,45,127
106936,note_on,33,0,0,,11,,,46,127
106936,note_on,0,0,0,,7,,,67,127
106953,note_off,17,0,0,,5,,,65,127
106988,note_on,35,0,0,,5,,,65,127
107005,note_off,17,0,0,,7,,,67,127
107007,note_off,2,0,0,,5,,,53,127
107040,note_on,33,0,0,,5,,,53,127
107040,note_on,0,0,0,,7,,,67,127
107057,note_off,17,0,0,,5,,,65,127
107092,note_on,35,0,0,,5,,,65,127
107109,note_off,17,0,0,,7,,,67,127
107111,note_off,2,0,0,,11,,,46,127
107144,note_on,33,0,0,,10,,,45,127
107144,note_on,0,0,0,,7,,,67,127
107161,note_off,17,0,0,,5,,,65,127
107196,note_on,35,0,0,,5,,,65,127
107213,note_off,17,0,0,,7,,,67,127
107215,note_off,2,0,0,,5,,,53,127
107248,note_on,33,0,0,,5,,,53,127
107248,note_on,0,0,0,,7,,,67,127
107265,note_off,17,0,0,,5,,,65,127
107300,note_on,35,0,0,,5,,,65,127
107317,note_off,17,0,0,,7,,,67,127
107319,note_off,2,0,0,,10,,,45,127
107352,note_on,33,0,0,,7,,,43,127
107352,note_on,0,0,0,,7,,,67,127
107369,note_off,17,0,0,,5,,,65,127
107404,note_on,35,0,0,,5,,,65,127
107421,note_off,17,0,0,,7,,,67,127
107423,note_off,2,0,0,,5,,,53,127
107456,note_on,33,0,0,,5,,,53,127
107456,note_on,0,0,0,,4,,,64,127
107473,note_off,17,0,0,,5,,,65,127
107508,note_on,35,0,0,,5,,,65,127
107525,note_off,17,0,0,,4,,,64,127
107527,note_off,2,0,0,,7,,,43,127
107558,note_off,31,0,0,,5,,,65,127
107560,note_on,2,0,0,,10,,,45,127
107560,note_on,0,0,0,,5,,,65,127
107632,note_off,72,0,0,,5,,,53,127
107665,note_on,33,0,0,,5,,,53,127
107737,note_off,72,0,0,,10,,,45,127
107768,note_off,31,0,0,,5,,,65,127
107770,note_on,2,0,0,,7,,,43,127
107770,note_on,0,0,0,,7,,,67,127
107842,note_off,72,0,0,,5,,,53,127
107875,note_on,33,0,0,,5,,,53,127
107947,note_off,72,0,0,,7,,,43,127
107978,note_off,31,0,0,,7,,,67,127
107980,note_on,2,0,0,,5,,,41,127
107980,note_on,0,0,0,,10,,,69,127
108052,note_off,72,0,0,,5,,,53,127
108085,note_on,33,0,0,,5,,,53,127
108157,note_off,72,0,0,,5,,,41,127
108188,note_off,31,0,0,,10,,,69,127
108190,note_on,2,0,0,,7,,,43,127
108190,note_on,0,0,0,,11,,,70,127
108262,note_off,72,0,0,,5,,,53,127
108295,note_on,33,0,0,,0,,,60,127
108367,note_off,72,0,0,,11,,,70,127
108398,note_off,31,0,0,,7,,,43,127
108400,note_on,2,0,0,,11,,,46,127
108400,note_on,0,0,0,,10,,,69,127
108472,note_off,72,0,0,,0,,,60,127
108505,note_on,33,0,0,,0,,,60,127
108577,note_off,72,0,0,,10,,,69,127
108608,note_off,31,0,0,,11,,,46,127
108610,note_on,2,0,0,,0,,,48,127
108610,note_on,0,0,0,,7,,,67,127
108682,note_off,72,0,0,,0,,,60,127
108715,note_on,33,0,0,,0,,,60,127
108787,note_off,72,0,0,,7,,,67,127
108818,note_off,31,0,0,,0,,,48,127
108819,note_off,1,0,0,,0,,,60,127
108820,note_on,1,0,0,,5,,,41,127
108820,note_on,0,0,0,,10,,,69,127
108925,note_on,105,0,0,,5,,,65,127
108997,note_off,72,0,0,,10,,,69,127
109028,note_off,31,0,0,,5,,,41,127
109030,note_on,2,0,0,,7,,,43,127
109030,note_on,0,0,0,,11,,,70,127
109102,note_off,72,0,0,,5,,,65,127
109135,note_on,33,0,0,,5,,,65,127
109207,note_off,72,0,0,,11,,,70,127
109238,note_off,31,0,0,,7,,,43,127
109240,note_on,2,0,0,,10,,,45,127
109240,note_on,0,0,0,,0,,,72,127
109312,note_off,72,0,0,,5,,,65,127
109345,note_on,33,0,0,,5,,,65,127
109417,note_off,72,0,0,,0,,,72,127
109448,note_off,31,0,0,,10,,,45,127
109450,note_on,2,0,0,,11,,,46,127
109450,note_on,0,0,0,,2,,,74,127
109522,note_off,72,0,0,,5,,,65,127
109555,note_on,33,0,0,,5,,,65,127
109627,note_off,72,0,0,,2,,,74,127
109658,note_off,31,0,0,,11,,,46,127
109660,note_on,2,0,0,,0,,,48,127
109660,note_on,0,0,0,,4,,,76,127
109732,note_off,72,0,0,,5,,,65,127
109765,note_on,33,0,0,,5,,,65,127
109837,note_off,72,0,0,,4,,,76,127
109868,note_off,31,0,0,,0,,,48,127
109870,note_on,2,0,0,,2,,,50,127
109870,note_on,0,0,0,,5,,,77,127
109942,note_off,72,0,0,,5,,,65,127
109975,note_on,33,0,0,,5,,,65,127
110047,note_off,72,0,0,,5,,,77,127
110078,note_off,31,0,0,,2,,,50,127
110079,note_off,1,0,0,,5,,,65,127
110080,note_on,1,0,0,,0,,,48,127
110080,note_on,0,0,0,,4,,,76,127
110185,note_on,105,0,0,,0,,,72,127
110257,note_off,72,0,0,,4,,,76,127
110288,note_off,31,0,0,,0,,,48,127
110290,note_on,2,0,0,,2,,,50,127
110290,note_on,0,0,0,,5,,,77,127
110362,note_off,72,0,0,,0,,,72,127
110395,note_on,33,0,0,,0,,,72,127
110467,note_off,72,0,0,,5,,,77,127
110498,note_off,31,0,0,,2,,,50,127
110500,note_on,2,0,0,,4,,,52,127
110500,note_on,0,0,0,,7,,,79,127
110572,note_off,72,0,0,,0,,,72,127
110605,note_on,33,0,0,,0,,,72,127
110677,note_off,72,0,0,,7,,,79,127
110708,note_off,31,0,0,,4,,,52,127
110710,note_on,2,0,0,,5,,,53,127
110710,note_on,0,0,0,,10,,,81,127
110710,note_on,0,0,0,,5,,,77,127
110782,note_off,72,0,0,,0,,,72,127
110815,note_on,33,0,0,,0,,,72,127
110887,note_off,72,0,0,,5,,,77,127
110887,note_off,0,0,0,,10,,,81,127
110918,note_off,31,0,0,,5,,,53,127
110920,note_on,2,0,0,,10,,,57,127
110920,note_on,0,0,0,,10,,,81,127
110920,note_on,0,0,0,,5,,,77,127
110992,note_off,72,0,0,,0,,,72,127
111025,note_on,33,0,0,,0,,,72,127
111097,note_off,72,0,0,,5,,,77,127
111097,note_off,0,0,0,,10,,,81,127
111128,note_off,31,0,0,,10,,,57,127
111130,note_on,2,0,0,,5,,,53,127
111130,note_on,0,0,0,,10,,,81,127
111130,note_on,0,0,0,,5,,,77,127
111202,note_off,72,0,0,,0,,,72,127
111235,note_on,33,0,0,,0,,,72,127
111307,note_off,72,0,0,,5,,,77,127
111307,note_off,0,0,0,,10,,,81,127
111338,note_off,31,0,0,,5,,,53,127
111340,note_on,2,0,0,,0,,,48,127
111340,note_on,0,0,0,,4,,,76,127
111340,note_on,0,0,0,,7,,,79,127
111412,note_off,72,0,0,,0,,,72,127
111445,note_on,33,0,0,,0,,,72,127
111517,note_off,72,0,0,,7,,,79,127
111517,note_off,0,0,0,,4,,,76,127
111548,note_off,31,0,0,,0,,,48,127
111550,note_on,2,0,0,,4,,,52,127
111550,note_on,0,0,0,,4,,,76,127
111550,note_on,0,0,0,,7,,,79,127
111622,note_off,72,0,0,,0,,,72,127
111655,note_on,33,0,0,,0,,,72,127
111727,note_off,72,0,0,,7,,,79,127
111727,note_off,0,0,0,,4,,,76,127
111758,note_off,31,0,0,,4,,,52,127
111760,note_on,2,0,0,,0,,,48,127
111760,note_on,0,0,0,,7,,,79,127
111760,note_on,0,0,0,,4,,,76,127
111832,note_off,72,0,0,,0,,,72,127
111865,note_on,33,0,0,,0,,,72,127
111937,note_off,72,0,0,,4,,,76,127
111937,note_off,0,0,0,,7,,,79,127
111968,note_off,31,0,0,,0,,,48,127
111970,note_on,2,0,0,,5,,,53,127
111970,note_on,0,0,0,,10,,,81,127
111970,note_on,0,0,0,,5,,,77,127
112042,note_off,72,0,0,,0,,,72,127
112075,note_on,33,0,0,,0,,,72,127
112147,note_off,72,0,0,,5,,,77,127
112147,note_off,0,0,0,,10,,,81,127
112178,note_off,31,0,0,,5,,,53,127
112180,note_on,2,0,0,,10,,,57,127
112180,note_on,0,0,0,,5,,,77,127
112180,note_on,0,0,0,,10,,,81,127
112252,note_off,72,0,0,,0,,,72,127
112285,note_on,33,0,0,,0,,,72,127
112357,note_off,72,0,0,,10,,,81,127
112357,note_off,0,0,0,,5,,,77,127
112388,note_off,31,0,0,,10,,,57,127
112390,note_on,2,0,0,,5,,,53,127
112390,note_on,0,0,0,,5,,,77,127
112390,note_on,0,0,0,,10,,,81,127
112462,note_off,72,0,0,,0,,,72,127
112495,note_on,33,0,0,,0,,,72,127
112567,note_off,72,0,0,,10,,,81,127
112567,note_off,0,0,0,,5,,,77,127
112598,note_off,31,0,0,,5,,,53,127
112600,note_on,2,0,0,,0,,,48,127
112600,note_on,0,0,0,,4,,,76,127
112600,note_on,0,0,0,,7,,,79,127
112672,note_off,72,0,0,,0,,,72,127
112705,note_on,33,0,0,,0,,,72,127
112777,note_off,72,0,0,,7,,,79,127
112777,note_off,0,0,0,,4,,,76,127
112808,note_off,31,0,0,,0,,,48,127
112810,note_on,2,0,0,,4,,,52,127
112810,note_on,0,0,0,,7,,,79,127
112810,note_on,0,0,0,,4,,,76,127
112882,note_off,72,0,0,,0,,,72,127
112915,note_on,33,0,0,,0,,,72,127
112987,note_off,72,0,0,,4,,,76,127
112987,note_off,0,0,0,,7,,,79,127
113018,note_off,31,0,0,,4,,,52,127
113020,note_on,2,0,0,,0,,,48,127
113020,note_on,0,0,0,,7,,,79,127
113020,note_on,0,0,0,,4,,,76,127
113092,note_off,72,0,0,,0,,,72,127
113125,note_on,33,0,0,,0,,,72,127
113197,note_off,72,0,0,,4,,,76,127
113197,note_off,0,0,0,,7,,,79,127
113228,note_off,31,0,0,,0,,,48,127
113230,note_on,2,0,0,,5,,,41,127
113230,note_on,0,0,0,,10,,,81,127
113302,note_off,72,0,0,,0,,,72,127
113335,note_on,33,0,0,,5,,,53,127
113407,note_off,72,0,0,,5,,,41,127
113438,note_off,31,0,0,,10,,,81,127
113440,note_on,2,0,0,,7,,,43,127
113440,note_on,0,0,0,,11,,,82,127
113512,note_off,72,0,0,,5,,,53,127
113545,note_on,33,0,0,,5,,,53,127
113617,note_off,72,0,0,,7,,,43,127
113648,note_off,31,0,0,,11,,,82,127
113650,note_on,2,0,0,,10,,,45,127
113650,note_on,0,0,0,,0,,,84,127
113722,note_off,72,0,0,,5,,,53,127
113755,note_on,33,0,0,,5,,,53,127
113827,note_off,72,0,0,,10,,,45,127
113858,note_off,31,0,0,,0,,,84,127
113860,note_on,2,0,0,,11,,,46,127
113860,note_on,0,0,0,,2,,,74,127
113932,note_off,72,0,0,,5,,,53,127
113965,note_on,33,0,0,,5,,,53,127
114037,note_off,72,0,0,,11,,,46,127
114068,note_off,31,0,0,,2,,,74,127
114070,note_on,2,0,0,,0,,,48,127
114070,note_on,0,0,0,,4,,,76,127
114142,note_off,72,0,0,,5,,,53,127
114175,note_on,33,0,0,,5,,,53,127
114247,note_off,72,0,0,,0,,,48,127
114278,note_off,31,0,0,,4,,,76,127
114280,note_on,2,0,0,,2,,,50,127
114280,note_on,0,0,0,,5,,,77,127
114352,note_off,72,0,0,,5,,,53,127
114385,note_on,33,0,0,,5,,,53,127
114457,note_off,72,0,0,,2,,,50,127
114488,note_off,31,0,0,,5,,,77,127
114489,note_off,1,0,0,,5,,,53,127
114490,note_on,1,0,0,,0,,,48,127
114490,note_on,0,0,0,,0,,,72,127
114490,note_on,0,0,0,,4,,,76,127
114595,note_on,105,0,0,,7,,,67,127
114667,note_off,72,0,0,,4,,,76,127
114667,note_off,0,0,0,,0,,,72,127
114700,note_on,33,0,0,,5,,,77,127
114700,note_on,0,0,0,,2,,,74,127
114772,note_off,72,0,0,,7,,,67,127
114805,note_on,33,0,0,,7,,,67,127
114877,note_off,72,0,0,,2,,,74,127
114877,note_off,0,0,0,,5,,,77,127
114910,note_on,33,0,0,,4,,,76,127
114910,note_on,0,0,0,,7,,,79,127
114982,note_off,72,0,0,,7,,,67,127
115015,note_on,33,0,0,,7,,,67,127
115087,note_off,72,0,0,,7,,,79,127
115087,note_off,0,0,0,,4,,,76,127
115119,note_off,32,0,0,,7,,,67,127
115119,note_off,0,0,0,,0,,,48,127
115120,note_on,1,0,0,,0,,,48,127
115120,note_on,0,0,0,,5,,,77,127
115120,note_on,0,0,0,,10,,,81,127
115225,note_on,105,0,0,,0,,,72,127
115297,note_off,72,0,0,,10,,,81,127
115297,note_off,0,0,0,,5,,,77,127
115330,note_on,33,0,0,,11,,,82,127
115330,note_on,0,0,0,,7,,,79,127
115402,note_off,72,0,0,,0,,,72,127
115435,note_on,33,0,0,,0,,,72,127
115507,note_off,72,0,0,,7,,,79,127
115507,note_off,0,0,0,,11,,,82,127
115540,note_on,33,0,0,,10,,,81,127
115540,note_on,0,0,0,,5,,,77,127
115612,note_off,72,0,0,,0,,,72,127
115645,note_on,33,0,0,,0,,,72,127
115717,note_off,72,0,0,,5,,,77,127
115717,note_off,0,0,0,,10,,,81,127
115749,note_off,32,0,0,,0,,,48,127
115750,note_on,1,0,0,,0,,,48,127
115750,note_on,0,0,0,,4,,,76,127
115750,note_on,0,0,0,,7,,,79,127
115822,note_off,72,0,0,,0,,,72,127
115855,note_on,33,0,0,,0,,,72,127
115927,note_off,72,0,0,,7,,,79,127
115927,note_off,0,0,0,,4,,,76,127
115960,note_on,33,0,0,,5,,,77,127
115960,note_on,0,0,0,,2,,,74,127
116032,note_off,72,0,0,,0,,,72,127
116065,note_on,33,0,0,,0,,,72,127
116137,note_off,72,0,0,,2,,,74,127
116137,note_off,0,0,0,,5,,,77,127
116170,note_on,33,0,0,,7,,,79,127
116170,note_on,0,0,0,,4,,,76,127
116242,note_off,72,0,0,,0,,,72,127
116275,note_on,33,0,0,,0,,,72,127
116347,note_off,72,0,0,,4,,,76,127
116347,note_off,0,0,0,,7,,,79,127
116379,note_off,32,0,0,,0,,,48,127
116380,note_on,1,0,0,,0,,,48,127
116380,note_on,0,0,0,,10,,,81,127
116380,note_on,0,0,0,,5,,,77,127
116452,note_off,72,0,0,,0,,,72,127
116485,note_on,33,0,0,,0,,,72,127
116557,note_off,72,0,0,,5,,,77,127
116557,note_off,0,0,0,,10,,,81,127
116590,note_on,33,0,0,,11,,,82,127
116590,note_on,0,0,0,,7,,,79,127
116662,note_off,72,0,0,,0,,,72,127
116695,note_on,33,0,0,,0,,,72,127
116767,note_off,72,0,0,,7,,,79,127
116767,note_off,0,0,0,,11,,,82,127
116800,note_on,33,0,0,,5,,,77,127
116800,note_on,0,0,0,,10,,,81,127
116872,note_off,72,0,0,,0,,,72,127
116905,note_on,33,0,0,,0,,,72,127
116977,note_off,72,0,0,,10,,,81,127
116977,note_off,0,0,0,,5,,,77,127
117009,note_off,32,0,0,,0,,,48,127
117010,note_on,1,0,0,,0,,,48,127
117010,note_on,0,0,0,,4,,,76,127
117010,note_on,0,0,0,,7,,,79,127
117082,note_off,72,0,0,,0,,,72,127
117115,note_on,33,0,0,,0,,,72,127
117187,note_off,72,0,0,,7,,,79,127
117187,note_off,0,0,0,,4,,,76,127
117220,note_on,33,0,0,,0,,,84,127
117220,note_on,0,0,0,,4,,,76,127
117292,note_off,72,0,0,,0,,,72,127
117325,note_on,33,0,0,,0,,,72,127
117397,note_off,72,0,0,,4,,,76,127
117397,note_off,0,0,0,,0,,,84,127
117430,note_on,33,0,0,,10,,,81,127
117430,note_on,0,0,0,,5,,,77,127
117502,note_off,72,0,0,,0,,,72,127
117535,note_on,33,0,0,,0,,,72,127
117607,note_off,72,0,0,,5,,,77,127
117607,note_off,0,0,0,,10,,,81,127
117639,note_off,32,0,0,,0,,,48,127
117640,note_on,1,0,0,,0,,,48,127
117640,note_on,0,0,0,,7,,,79,127
117640,note_on,0,0,0,,4,,,76,127
117712,note_off,72,0,0,,0,,,72,127
117745,note_on,33,0,0,,0,,,72,127
117817,note_off,72,0,0,,4,,,76,127
117817,note_off,0,0,0,,7,,,79,127
117850,note_on,33,0,0,,0,,,84,127
117850,note_on,0,0,0,,4,,,76,127
117922,note_off,72,0,0,,0,,,72,127
117955,note_on,33,0,0,,0,,,72,127
118027,note_off,72,0,0,,4,,,76,127
118027,note_off,0,0,0,,0,,,84,127
118060,note_on,33,0,0,,10,,,81,127
118060,note_on,0,0,0,,5,,,77,127
118132,note_off,72,0,0,,0,,,72,127
118165,note_on,33,0,0,,0,,,72,127
118237,note_off,72,0,0,,5,,,77,127
118237,note_off,0,0,0,,10,,,81,127
118269,note_off,32,0,0,,0,,,48,127
118270,note_on,1,0,0,,0,,,48,127
118270,note_on,0,0,0,,4,,,76,127
118270,note_on,0,0,0,,7,,,79,127
118342,note_off,72,0,0,,0,,,72,127
118375,note_on,33,0,0,,0,,,72,127
118447,note_off,72,0,0,,7,,,79,127
118447,note_off,0,0,0,,4,,,76,127
118480,note_on,33,0,0,,4,,,76,127
118552,note_off,72,0,0,,0,,,72,127
118585,note_on,33,0,0,,0,,,72,127
118657,note_off,72,0,0,,4,,,76,127
118690,note_on,33,0,0,,7,,,79,127
118690,note_on,0,0,0,,4,,,76,127
118762,note_off,72,0,0,,0,,,72,127
118795,note_on,33,0,0,,0,,,72,127
118867,note_off,72,0,0,,4,,,76,127
118867,note_off,0,0,0,,7,,,79,127
118899,note_off,32,0,0,,0,,,48,127
118900,note_on,1,0,0,,5,,,53,127
118900,note_on,0,0,0,,10,,,81,127
118900,note_on,0,0,0,,5,,,77,127
118972,note_off,72,0,0,,0,,,72,127
119005,note_on,33,0,0,,0,,,72,127
119077,note_off,72,0,0,,5,,,77,127
119077,note_off,0,0,0,,10,,,81,127
119108,note_off,31,0,0,,5,,,53,127
119110,note_on,2,0,0,,11,,,46,127
119110,note_on,0,0,0,,11,,,82,127
119110,note_on,0,0,0,,7,,,79,127
119182,note_off,72,0,0,,0,,,72,127
119215,note_on,33,0,0,,0,,,72,127
119287,note_off,72,0,0,,7,,,79,127
119287,note_off,0,0,0,,11,,,82,127
119318,note_off,31,0,0,,11,,,46,127
119320,note_on,2,0,0,,0,,,48,127
119320,note_on,0,0,0,,7,,,79,127
119320,note_on,0,0,0,,4,,,76,127
119392,note_off,72,0,0,,0,,,72,127
119425,note_on,33,0,0,,0,,,72,127
119497,note_off,72,0,0,,4,,,76,127
119497,note_off,0,0,0,,7,,,79,127
119528,note_off,31,0,0,,0,,,48,127
119530,note_on,2,0,0,,5,,,53,127
119530,note_on,0,0,0,,5,,,77,127
119530,note_on,0,0,0,,10,,,81,127
119602,note_off,72,0,0,,0,,,72,127
119635,note_on,33,0,0,,0,,,72,127
119707,note_off,72,0,0,,10,,,81,127
119707,note_off,0,0,0,,5,,,77,127
119738,note_off,31,0,0,,5,,,53,127
119740,note_on,2,0,0,,11,,,46,127
119740,note_on,0,0,0,,11,,,82,127
119740,note_on,0,0,0,,7,,,79,127
119812,note_off,72,0,0,,0,,,72,127
119845,note_on,33,0,0,,0,,,72,127
119917,note_off,72,0,0,,7,,,79,127
119917,note_off,0,0,0,,11,,,82,127
119948,note_off,31,0,0,,11,,,46,127
119950,note_on,2,0,0,,0,,,48,127
119950,note_on,0,0,0,,7,,,79,127
119950,note_on,0,0,0,,4,,,76,127
120022,note_off,72,0,0,,0,,,72,127
120055,note_on,33,0,0,,0,,,72,127
120127,note_off,72,0,0,,4,,,76,127
120127,note_off,0,0,0,,7,,,79,127
120158,note_off,31,0,0,,0,,,48,127
120160,note_on,2,0,0,,5,,,53,127
120160,note_on,0,0,0,,5,,,77,127
120160,note_on,0,0,0,,10,,,81,127
120232,note_off,72,0,0,,0,,,72,127
120265,note_on,33,0,0,,0,,,72,127
120337,note_off,72,0,0,,10,,,81,127
120337,note_off,0,0,0,,5,,,77,127
120368,note_off,31,0,0,,5,,,53,127
120370,note_on,2,0,0,,11,,,46,127
120370,note_on,0,0,0,,11,,,82,127
120370,note_on,0,0,0,,7,,,79,127
120442,note_off,72,0,0,,0,,,72,127
120475,note_on,33,0,0,,0,,,72,127
120547,note_off,72,0,0,,7,,,79,127
120547,note_off,0,0,0,,11,,,82,127
120578,note_off,31,0,0,,11,,,46,127
120580,note_on,2,0,0,,0,,,48,127
120580,note_on,0,0,0,,7,,,79,127
120580,note_on,0,0,0,,4,,,76,127
120652,note_off,72,0,0,,0,,,72,127
120685,note_on,33,0,0,,0,,,72,127
120757,note_off,72,0,0,,4,,,76,127
120757,note_off,0,0,0,,7,,,79,127
120788,note_off,31,0,0,,0,,,48,127
120790,note_on,2,0,0,,5,,,41,127
120790,note_on,0,0,0,,5,,,77,127
120790,note_on,0,0,0,,10,,,81,127
120862,note_off,72,0,0,,0,,,72,127
120895,note_on,33,0,0,,0,,,72,127
120967,note_off,72,0,0,,10,,,81,127
120967,note_off,0,0,0,,5,,,77,127
121000,note_on,33,0,0,,5,,,77,127
121072,note_off,72,0,0,,0,,,72,127
121105,note_on,33,0,0,,0,,,72,127
121177,note_off,72,0,0,,5,,,77,127
121210,note_on,33,0,0,,10,,,69,127
121282,note_off,72,0,0,,0,,,72,127
121315,note_on,33,0,0,,0,,,72,127
121387,note_off,72,0,0,,10,,,69,127
121419,note_off,32,0,0,,0,,,72,127
121420,note_on,1,0,0,,5,,,65,127
121524,note_off,104,0,0,,5,,,41,127
121525,note_on,1,0,0,,5,,,53,127
121630,note_on,105,0,0,,10,,,57,127
121656,note_off,26,0,0,,5,,,53,127
121735,note_on,79,0,0,,0,,,60,127
121761,note_off,26,0,0,,10,,,57,127
121838,note_off,77,0,0,,5,,,65,127
121839,note_on,1,0,0,,5,,,65,127
121865,note_off,26,0,0,,0,,,60,127
121944,note_on,79,0,0,,0,,,60,127
122016,note_off,72,0,0,,5,,,65,127
122053,note_on,37,0,0,,5,,,65,127
122053,note_on,0,0,0,,10,,,57,127
122079,note_off,26,0,0,,0,,,60,127
122163,note_on,84,0,0,,0,,,60,127
122188,note_off,25,0,0,,10,,,57,127
122268,note_off,80,0,0,,5,,,65,127
122273,note_on,5,0,0,,10,,,69,127
122273,note_on,0,0,0,,0,,,48,127
122346,note_off,73,0,0,,0,,,60,127
122383,note_on,37,0,0,,5,,,53,127
122408,note_off,25,0,0,,0,,,48,127
122488,note_off,80,0,0,,10,,,69,127
122493,note_on,5,0,0,,0,,,72,127
122493,note_on,0,0,0,,10,,,45,127
122518,note_off,25,0,0,,5,,,53,127
122602,note_on,84,0,0,,0,,,48,127
122628,note_off,26,0,0,,10,,,45,127
122708,note_off,80,0,0,,0,,,72,127
122709,note_off,1,0,0,,0,,,48,127
122735,note_on,26,0,0,,5,,,77,127
122735,note_on,0,0,0,,5,,,41,127
124262,note_off,1527,0,0,,5,,,41,127
124262,note_off,0,0,0,,5,,,77,127
129024,end_of_track,4762,1,0,,,,,,
