tick,type,time,meta,track,program,channel,pitch,tempo,note,velocity
0,copyright,0,1,0,,,,,,
0,program_change,0,0,0,6,0,,,,
0,pitchwheel,0,0,0,,0,0,,,
0,program_change,0,0,0,6,1,,,,
0,pitchwheel,0,0,0,,1,-590,,,
0,program_change,0,0,0,6,2,,,,
0,pitchwheel,0,0,0,,2,-272,,,
0,program_change,0,0,0,6,3,,,,
0,pitchwheel,0,0,0,,3,-353,,,
0,program_change,0,0,0,6,4,,,,
0,pitchwheel,0,0,0,,4,-560,,,
0,program_change,0,0,0,6,5,,,,
0,pitchwheel,0,0,0,,5,-80,,,
0,program_change,0,0,0,6,6,,,,
0,pitchwheel,0,0,0,,6,-625,,,
0,program_change,0,0,0,6,7,,,,
0,pitchwheel,0,0,0,,7,-130,,,
0,program_change,0,0,0,6,8,,,,
0,pitchwheel,0,0,0,,8,-512,,,
0,program_change,0,0,0,6,10,,,,
0,pitchwheel,0,0,0,,10,-464,,,
0,program_change,0,0,0,6,11,,,,
0,pitchwheel,0,0,0,,11,-208,,,
0,program_change,0,0,0,6,12,,,,
0,pitchwheel,0,0,0,,12,-553,,,
0,set_tempo,0,1,0,,,,500000,,
186,note_on,186,0,0,,10,,,57,127
540,note_off,354,0,0,,10,,,57,127
557,note_on,17,0,0,,12,,,59,127
739,note_off,182,0,0,,12,,,59,127
743,note_on,4,0,0,,4,,,52,127
925,note_off,182,0,0,,4,,,52,127
929,note_on,4,0,0,,10,,,57,127
1111,note_off,182,0,0,,10,,,57,127
1115,note_on,4,0,0,,1,,,61,127
1297,note_off,182,0,0,,1,,,61,127
1301,note_on,4,0,0,,12,,,59,127
1483,note_off,182,0,0,,12,,,59,127
1487,note_on,4,0,0,,4,,,52,127
1669,note_off,182,0,0,,4,,,52,127
1673,note_on,4,0,0,,6,,,54,127
1673,note_on,0,0,0,,10,,,69,127
1855,note_off,182,0,0,,6,,,54,127
1859,note_on,4,0,0,,1,,,49,127
2022,note_off,163,0,0,,10,,,69,127
2041,note_off,19,0,0,,1,,,49,127
2045,note_on,4,0,0,,2,,,50,127
2045,note_on,0,0,0,,12,,,71,127
2227,note_off,182,0,0,,12,,,71,127
2227,note_off,0,0,0,,2,,,50,127
2231,note_on,4,0,0,,4,,,52,127
2231,note_on,0,0,0,,4,,,64,127
2413,note_off,182,0,0,,4,,,64,127
2413,note_off,0,0,0,,4,,,52,127
2417,note_on,4,0,0,,1,,,49,127
2417,note_on,0,0,0,,10,,,69,127
2599,note_off,182,0,0,,10,,,69,127
2599,note_off,0,0,0,,1,,,49,127
2603,note_on,4,0,0,,10,,,45,127
2603,note_on,0,0,0,,1,,,73,127
2785,note_off,182,0,0,,1,,,73,127
2785,note_off,0,0,0,,10,,,45,127
2789,note_on,4,0,0,,8,,,44,127
2789,note_on,0,0,0,,12,,,71,127
2971,note_off,182,0,0,,12,,,71,127
2971,note_off,0,0,0,,8,,,44,127
2975,note_on,4,0,0,,4,,,40,127
2975,note_on,0,0,0,,4,,,64,127
3157,note_off,182,0,0,,4,,,64,127
3157,note_off,0,0,0,,4,,,40,127
3161,note_on,4,0,0,,6,,,42,127
3161,note_on,0,0,0,,10,,,69,127
3343,note_off,182,0,0,,6,,,42,127
3347,note_on,4,0,0,,1,,,37,127
3529,note_off,182,0,0,,1,,,37,127
3533,note_on,4,0,0,,2,,,38,127
3533,note_on,0,0,0,,1,,,73,127
3552,note_off,19,0,0,,10,,,69,127
3591,note_off,39,0,0,,1,,,73,127
3595,note_on,4,0,0,,12,,,71,127
3653,note_off,58,0,0,,12,,,71,127
3657,note_on,4,0,0,,1,,,73,127
3715,note_off,58,0,0,,1,,,73,127
3715,note_off,0,0,0,,2,,,38,127
3719,note_on,4,0,0,,4,,,40,127
3719,note_on,0,0,0,,12,,,71,127
3777,note_off,58,0,0,,12,,,71,127
3781,note_on,4,0,0,,10,,,69,127
3839,note_off,58,0,0,,10,,,69,127
3843,note_on,4,0,0,,12,,,71,127
3901,note_off,58,0,0,,12,,,71,127
3901,note_off,0,0,0,,4,,,40,127
3905,note_on,4,0,0,,10,,,45,127
3905,note_on,0,0,0,,1,,,73,127
4087,note_off,182,0,0,,10,,,45,127
4091,note_on,4,0,0,,12,,,47,127
4273,note_off,182,0,0,,12,,,47,127
4277,note_on,4,0,0,,1,,,49,127
4409,note_off,132,0,0,,1,,,73,127
4459,note_off,50,0,0,,1,,,49,127
4463,note_on,4,0,0,,2,,,50,127
4463,note_on,0,0,0,,2,,,74,127
4552,note_off,89,0,0,,2,,,74,127
4556,note_on,4,0,0,,4,,,76,127
4645,note_off,89,0,0,,4,,,76,127
4645,note_off,0,0,0,,2,,,50,127
4649,note_on,4,0,0,,4,,,52,127
4649,note_on,0,0,0,,8,,,68,127
4831,note_off,182,0,0,,8,,,68,127
4831,note_off,0,0,0,,4,,,52,127
4835,note_on,4,0,0,,6,,,54,127
4835,note_on,0,0,0,,10,,,69,127
5017,note_off,182,0,0,,10,,,69,127
5017,note_off,0,0,0,,6,,,54,127
5021,note_on,4,0,0,,8,,,56,127
5021,note_on,0,0,0,,12,,,71,127
5203,note_off,182,0,0,,12,,,71,127
5203,note_off,0,0,0,,8,,,56,127
5207,note_on,4,0,0,,10,,,57,127
5207,note_on,0,0,0,,1,,,73,127
5389,note_off,182,0,0,,1,,,73,127
5389,note_off,0,0,0,,10,,,57,127
5393,note_on,4,0,0,,12,,,47,127
5393,note_on,0,0,0,,2,,,74,127
5575,note_off,182,0,0,,12,,,47,127
5579,note_on,4,0,0,,1,,,49,127
5761,note_off,182,0,0,,1,,,49,127
5765,note_on,4,0,0,,2,,,50,127
5897,note_off,132,0,0,,2,,,74,127
5947,note_off,50,0,0,,2,,,50,127
5951,note_on,4,0,0,,4,,,52,127
5951,note_on,0,0,0,,4,,,76,127
6040,note_off,89,0,0,,4,,,76,127
6044,note_on,4,0,0,,6,,,78,127
6133,note_off,89,0,0,,6,,,78,127
6133,note_off,0,0,0,,4,,,52,127
6137,note_on,4,0,0,,6,,,54,127
6137,note_on,0,0,0,,10,,,69,127
6319,note_off,182,0,0,,10,,,69,127
6319,note_off,0,0,0,,6,,,54,127
6323,note_on,4,0,0,,8,,,56,127
6323,note_on,0,0,0,,12,,,71,127
6505,note_off,182,0,0,,12,,,71,127
6505,note_off,0,0,0,,8,,,56,127
6509,note_on,4,0,0,,10,,,57,127
6509,note_on,0,0,0,,1,,,73,127
6685,note_off,176,0,0,,1,,,73,127
6691,note_off,6,0,0,,10,,,57,127
6695,note_on,4,0,0,,12,,,59,127
6695,note_on,0,0,0,,2,,,74,127
6877,note_off,182,0,0,,2,,,74,127
6877,note_off,0,0,0,,12,,,59,127
6881,note_on,4,0,0,,1,,,61,127
6881,note_on,0,0,0,,4,,,76,127
7063,note_off,182,0,0,,4,,,76,127
7063,note_off,0,0,0,,1,,,61,127
7067,note_on,4,0,0,,10,,,57,127
7067,note_on,0,0,0,,2,,,74,127
7156,note_off,89,0,0,,2,,,74,127
7160,note_on,4,0,0,,4,,,76,127
7249,note_off,89,0,0,,4,,,76,127
7249,note_off,0,0,0,,10,,,57,127
7253,note_on,4,0,0,,2,,,62,127
7253,note_on,0,0,0,,6,,,78,127
7427,note_off,174,0,0,,6,,,78,127
7435,note_off,8,0,0,,2,,,62,127
7439,note_on,4,0,0,,6,,,66,127
7439,note_on,0,0,0,,10,,,69,127
7621,note_off,182,0,0,,10,,,69,127
7621,note_off,0,0,0,,6,,,66,127
7625,note_on,4,0,0,,4,,,64,127
7625,note_on,0,0,0,,8,,,68,127
7807,note_off,182,0,0,,4,,,64,127
7811,note_on,4,0,0,,1,,,61,127
7811,note_on,0,0,0,,4,,,76,127
7904,note_off,93,0,0,,8,,,68,127
7993,note_off,89,0,0,,4,,,76,127
7993,note_off,0,0,0,,1,,,61,127
7997,note_on,4,0,0,,2,,,62,127
7997,note_on,0,0,0,,6,,,78,127
8183,note_on,186,0,0,,6,,,66,127
8183,note_on,0,0,0,,10,,,69,127
8276,note_off,93,0,0,,6,,,78,127
8276,note_off,0,0,0,,2,,,62,127
8365,note_off,89,0,0,,10,,,69,127
8365,note_off,0,0,0,,6,,,66,127
8369,note_on,4,0,0,,4,,,64,127
8369,note_on,0,0,0,,8,,,68,127
8551,note_off,182,0,0,,4,,,64,127
8555,note_on,4,0,0,,1,,,61,127
8555,note_on,0,0,0,,4,,,76,127
8648,note_off,93,0,0,,8,,,68,127
8737,note_off,89,0,0,,4,,,76,127
8737,note_off,0,0,0,,1,,,61,127
8741,note_on,4,0,0,,2,,,62,127
8741,note_on,0,0,0,,6,,,78,127
8896,note_off,155,0,0,,6,,,78,127
8927,note_on,31,0,0,,6,,,66,127
8927,note_on,0,0,0,,10,,,69,127
9020,note_off,93,0,0,,2,,,62,127
9109,note_off,89,0,0,,10,,,69,127
9109,note_off,0,0,0,,6,,,66,127
9113,note_on,4,0,0,,4,,,64,127
9113,note_on,0,0,0,,8,,,68,127
9295,note_off,182,0,0,,4,,,64,127
9299,note_on,4,0,0,,6,,,66,127
9299,note_on,0,0,0,,3,,,75,127
9345,note_off,46,0,0,,8,,,68,127
9480,note_off,135,0,0,,3,,,75,127
9480,note_off,0,0,0,,6,,,66,127
9484,note_on,4,0,0,,8,,,68,127
9484,note_on,0,0,0,,4,,,76,127
9668,note_off,184,0,0,,8,,,68,127
9670,note_on,2,0,0,,4,,,64,127
9670,note_on,0,0,0,,12,,,71,127
9763,note_off,93,0,0,,4,,,76,127
9852,note_off,89,0,0,,12,,,71,127
9852,note_off,0,0,0,,4,,,64,127
9856,note_on,4,0,0,,10,,,69,127
9856,note_on,0,0,0,,1,,,73,127
10038,note_off,182,0,0,,1,,,73,127
10038,note_off,0,0,0,,10,,,69,127
10042,note_on,4,0,0,,8,,,68,127
10042,note_on,0,0,0,,12,,,71,127
10224,note_off,182,0,0,,8,,,68,127
10228,note_on,4,0,0,,6,,,66,127
10286,note_off,58,0,0,,12,,,71,127
10290,note_on,4,0,0,,10,,,69,127
10348,note_off,58,0,0,,10,,,69,127
10352,note_on,4,0,0,,12,,,71,127
10410,note_off,58,0,0,,12,,,71,127
10410,note_off,0,0,0,,6,,,66,127
10414,note_on,4,0,0,,12,,,59,127
10414,note_on,0,0,0,,10,,,69,127
10472,note_off,58,0,0,,10,,,69,127
10476,note_on,4,0,0,,12,,,71,127
10534,note_off,58,0,0,,12,,,71,127
10538,note_on,4,0,0,,10,,,69,127
10596,note_off,58,0,0,,10,,,69,127
10596,note_off,0,0,0,,12,,,59,127
10600,note_on,4,0,0,,4,,,64,127
10600,note_on,0,0,0,,8,,,68,127
10755,note_off,155,0,0,,8,,,68,127
10782,note_off,27,0,0,,4,,,64,127
10786,note_on,4,0,0,,6,,,66,127
10786,note_on,0,0,0,,3,,,75,127
10968,note_off,182,0,0,,6,,,66,127
10972,note_on,4,0,0,,8,,,68,127
11154,note_off,182,0,0,,8,,,68,127
11154,note_off,0,0,0,,3,,,75,127
11158,note_on,4,0,0,,4,,,64,127
11158,note_on,0,0,0,,4,,,76,127
11340,note_off,182,0,0,,4,,,76,127
11340,note_off,0,0,0,,4,,,64,127
11344,note_on,4,0,0,,10,,,69,127
11344,note_on,0,0,0,,1,,,73,127
11526,note_off,182,0,0,,1,,,73,127
11526,note_off,0,0,0,,10,,,69,127
11530,note_on,4,0,0,,8,,,68,127
11530,note_on,0,0,0,,12,,,71,127
11712,note_off,182,0,0,,8,,,68,127
11716,note_on,4,0,0,,6,,,66,127
11774,note_off,58,0,0,,12,,,71,127
11778,note_on,4,0,0,,10,,,69,127
11836,note_off,58,0,0,,10,,,69,127
11840,note_on,4,0,0,,12,,,71,127
11898,note_off,58,0,0,,12,,,71,127
11898,note_off,0,0,0,,6,,,66,127
11902,note_on,4,0,0,,12,,,59,127
11902,note_on,0,0,0,,10,,,69,127
11960,note_off,58,0,0,,10,,,69,127
11964,note_on,4,0,0,,12,,,71,127
12022,note_off,58,0,0,,12,,,71,127
12026,note_on,4,0,0,,10,,,69,127
12084,note_off,58,0,0,,10,,,69,127
12084,note_off,0,0,0,,12,,,59,127
12088,note_on,4,0,0,,4,,,64,127
12088,note_on,0,0,0,,8,,,68,127
12258,note_off,170,0,0,,8,,,68,127
12270,note_off,12,0,0,,4,,,64,127
12274,note_on,4,0,0,,6,,,66,127
12274,note_on,0,0,0,,3,,,75,127
12456,note_off,182,0,0,,6,,,66,127
12460,note_on,4,0,0,,8,,,68,127
12642,note_off,182,0,0,,8,,,68,127
12642,note_off,0,0,0,,3,,,75,127
12646,note_on,4,0,0,,4,,,64,127
12646,note_on,0,0,0,,4,,,76,127
12828,note_off,182,0,0,,4,,,76,127
12828,note_off,0,0,0,,4,,,64,127
12832,note_on,4,0,0,,10,,,69,127
12832,note_on,0,0,0,,1,,,73,127
13014,note_off,182,0,0,,1,,,73,127
13014,note_off,0,0,0,,10,,,69,127
13018,note_on,4,0,0,,8,,,68,127
13018,note_on,0,0,0,,12,,,71,127
13200,note_off,182,0,0,,8,,,68,127
13204,note_on,4,0,0,,6,,,66,127
13262,note_off,58,0,0,,12,,,71,127
13266,note_on,4,0,0,,10,,,69,127
13324,note_off,58,0,0,,10,,,69,127
13328,note_on,4,0,0,,12,,,71,127
13386,note_off,58,0,0,,12,,,71,127
13386,note_off,0,0,0,,6,,,66,127
13390,note_on,4,0,0,,12,,,59,127
13390,note_on,0,0,0,,10,,,69,127
13448,note_off,58,0,0,,10,,,69,127
13452,note_on,4,0,0,,12,,,71,127
13510,note_off,58,0,0,,12,,,71,127
13514,note_on,4,0,0,,10,,,69,127
13572,note_off,58,0,0,,10,,,69,127
13572,note_off,0,0,0,,12,,,59,127
13576,note_on,4,0,0,,4,,,64,127
13576,note_on,0,0,0,,8,,,68,127
13758,note_off,182,0,0,,8,,,68,127
13758,note_off,0,0,0,,4,,,64,127
13762,note_on,4,0,0,,6,,,66,127
13762,note_on,0,0,0,,3,,,75,127
13944,note_off,182,0,0,,3,,,75,127
13944,note_off,0,0,0,,6,,,66,127
13948,note_on,4,0,0,,7,,,67,127
13948,note_on,0,0,0,,4,,,76,127
14134,note_on,186,0,0,,10,,,57,127
14134,note_on,0,0,0,,0,,,72,127
14316,note_off,182,0,0,,0,,,72,127
14316,note_off,0,0,0,,10,,,57,127
14316,note_off,0,0,0,,7,,,67,127
14320,note_on,4,0,0,,12,,,59,127
14320,note_on,0,0,0,,12,,,71,127
14452,note_off,132,0,0,,4,,,76,127
14502,note_off,50,0,0,,12,,,71,127
14502,note_off,0,0,0,,12,,,59,127
14506,note_on,4,0,0,,6,,,66,127
14506,note_on,0,0,0,,3,,,75,127
14688,note_off,182,0,0,,3,,,75,127
14688,note_off,0,0,0,,6,,,66,127
14692,note_on,4,0,0,,7,,,67,127
14692,note_on,0,0,0,,4,,,76,127
14878,note_on,186,0,0,,10,,,57,127
14878,note_on,0,0,0,,0,,,72,127
14971,note_off,93,0,0,,4,,,76,127
15060,note_off,89,0,0,,0,,,72,127
15060,note_off,0,0,0,,10,,,57,127
15060,note_off,0,0,0,,7,,,67,127
15064,note_on,4,0,0,,12,,,59,127
15064,note_on,0,0,0,,12,,,71,127
15246,note_off,182,0,0,,12,,,71,127
15246,note_off,0,0,0,,12,,,59,127
15250,note_on,4,0,0,,6,,,66,127
15250,note_on,0,0,0,,3,,,75,127
15432,note_off,182,0,0,,3,,,75,127
15432,note_off,0,0,0,,6,,,66,127
15436,note_on,4,0,0,,7,,,67,127
15436,note_on,0,0,0,,4,,,76,127
15591,note_off,155,0,0,,4,,,76,127
15622,note_on,31,0,0,,10,,,57,127
15622,note_on,0,0,0,,0,,,72,127
15715,note_off,93,0,0,,7,,,67,127
15804,note_off,89,0,0,,0,,,72,127
15804,note_off,0,0,0,,10,,,57,127
15808,note_on,4,0,0,,12,,,59,127
15808,note_on,0,0,0,,12,,,71,127
15990,note_off,182,0,0,,12,,,59,127
15994,note_on,4,0,0,,3,,,63,127
15994,note_on,0,0,0,,12,,,83,127
16087,note_off,93,0,0,,12,,,71,127
16176,note_off,89,0,0,,12,,,83,127
16176,note_off,0,0,0,,3,,,63,127
16180,note_on,4,0,0,,4,,,64,127
16180,note_on,0,0,0,,0,,,84,127
16366,note_on,186,0,0,,10,,,57,127
16366,note_on,0,0,0,,4,,,76,127
16459,note_off,93,0,0,,4,,,64,127
16548,note_off,89,0,0,,4,,,76,127
16548,note_off,0,0,0,,10,,,57,127
16552,note_on,4,0,0,,12,,,59,127
16552,note_on,0,0,0,,3,,,75,127
16684,note_off,132,0,0,,0,,,84,127
16734,note_off,50,0,0,,12,,,59,127
16738,note_on,4,0,0,,3,,,63,127
16738,note_on,0,0,0,,12,,,83,127
16831,note_off,93,0,0,,3,,,75,127
16920,note_off,89,0,0,,12,,,83,127
16920,note_off,0,0,0,,3,,,63,127
16924,note_on,4,0,0,,4,,,64,127
16924,note_on,0,0,0,,0,,,84,127
17110,note_on,186,0,0,,10,,,57,127
17110,note_on,0,0,0,,4,,,76,127
17203,note_off,93,0,0,,0,,,84,127
17203,note_off,0,0,0,,4,,,64,127
17292,note_off,89,0,0,,4,,,76,127
17292,note_off,0,0,0,,10,,,57,127
17296,note_on,4,0,0,,12,,,59,127
17296,note_on,0,0,0,,3,,,75,127
17478,note_off,182,0,0,,12,,,59,127
17482,note_on,4,0,0,,3,,,63,127
17482,note_on,0,0,0,,12,,,83,127
17575,note_off,93,0,0,,3,,,75,127
17664,note_off,89,0,0,,12,,,83,127
17664,note_off,0,0,0,,3,,,63,127
17668,note_on,4,0,0,,4,,,64,127
17668,note_on,0,0,0,,0,,,84,127
17823,note_off,155,0,0,,0,,,84,127
17854,note_on,31,0,0,,10,,,57,127
17854,note_on,0,0,0,,4,,,76,127
17947,note_off,93,0,0,,4,,,64,127
18036,note_off,89,0,0,,4,,,76,127
18036,note_off,0,0,0,,10,,,57,127
18040,note_on,4,0,0,,12,,,59,127
18040,note_on,0,0,0,,3,,,75,127
18222,note_off,182,0,0,,12,,,59,127
18226,note_on,4,0,0,,10,,,57,127
18226,note_on,0,0,0,,11,,,82,127
18319,note_off,93,0,0,,3,,,75,127
18408,note_off,89,0,0,,11,,,82,127
18408,note_off,0,0,0,,10,,,57,127
18412,note_on,4,0,0,,8,,,56,127
18412,note_on,0,0,0,,12,,,83,127
18594,note_off,182,0,0,,8,,,56,127
18598,note_on,4,0,0,,4,,,52,127
18598,note_on,0,0,0,,2,,,74,127
18691,note_off,93,0,0,,12,,,83,127
18780,note_off,89,0,0,,2,,,74,127
18780,note_off,0,0,0,,4,,,52,127
18784,note_on,4,0,0,,10,,,57,127
18784,note_on,0,0,0,,1,,,73,127
18966,note_off,182,0,0,,10,,,57,127
18970,note_on,4,0,0,,7,,,55,127
18970,note_on,0,0,0,,8,,,80,127
19063,note_off,93,0,0,,1,,,73,127
19152,note_off,89,0,0,,8,,,80,127
19152,note_off,0,0,0,,7,,,55,127
19156,note_on,4,0,0,,6,,,54,127
19156,note_on,0,0,0,,10,,,81,127
19338,note_off,182,0,0,,6,,,54,127
19342,note_on,4,0,0,,4,,,52,127
19342,note_on,0,0,0,,0,,,72,127
19435,note_off,93,0,0,,10,,,81,127
19524,note_off,89,0,0,,0,,,72,127
19524,note_off,0,0,0,,4,,,52,127
19528,note_on,4,0,0,,3,,,51,127
19528,note_on,0,0,0,,12,,,71,127
19710,note_off,182,0,0,,3,,,51,127
19714,note_on,4,0,0,,12,,,47,127
19714,note_on,0,0,0,,6,,,78,127
19807,note_off,93,0,0,,12,,,71,127
19896,note_off,89,0,0,,6,,,78,127
19896,note_off,0,0,0,,12,,,47,127
19900,note_on,4,0,0,,4,,,52,127
19900,note_on,0,0,0,,7,,,79,127
20082,note_off,182,0,0,,4,,,52,127
20086,note_on,4,0,0,,7,,,55,127
20086,note_on,0,0,0,,12,,,71,127
20179,note_off,93,0,0,,7,,,79,127
20268,note_off,89,0,0,,12,,,71,127
20268,note_off,0,0,0,,7,,,55,127
20272,note_on,4,0,0,,6,,,54,127
20272,note_on,0,0,0,,11,,,70,127
20454,note_off,182,0,0,,6,,,54,127
20458,note_on,4,0,0,,4,,,52,127
20458,note_on,0,0,0,,4,,,76,127
20551,note_off,93,0,0,,11,,,70,127
20640,note_off,89,0,0,,4,,,76,127
20640,note_off,0,0,0,,4,,,52,127
20644,note_on,4,0,0,,3,,,51,127
20644,note_on,0,0,0,,6,,,78,127
20826,note_off,182,0,0,,6,,,78,127
20826,note_off,0,0,0,,3,,,51,127
20830,note_on,4,0,0,,12,,,47,127
20830,note_on,0,0,0,,10,,,69,127
21012,note_off,182,0,0,,10,,,69,127
21012,note_off,0,0,0,,12,,,47,127
21016,note_on,4,0,0,,4,,,52,127
21016,note_on,0,0,0,,8,,,68,127
21198,note_off,182,0,0,,4,,,52,127
21202,note_on,4,0,0,,12,,,47,127
21202,note_on,0,0,0,,12,,,71,127
21295,note_off,93,0,0,,8,,,68,127
21384,note_off,89,0,0,,12,,,71,127
21384,note_off,0,0,0,,12,,,47,127
21388,note_on,4,0,0,,8,,,44,127
21388,note_on,0,0,0,,4,,,76,127
21570,note_off,182,0,0,,8,,,44,127
21574,note_on,4,0,0,,4,,,40,127
21574,note_on,0,0,0,,4,,,64,127
21756,note_off,182,0,0,,4,,,64,127
21756,note_off,0,0,0,,4,,,40,127
21756,note_off,0,0,0,,4,,,76,127
21760,note_on,4,0,0,,12,,,47,127
21760,note_on,0,0,0,,4,,,64,127
21760,note_on,0,0,0,,8,,,68,127
22128,note_off,368,0,0,,8,,,68,127
22128,note_off,0,0,0,,4,,,64,127
22128,note_off,0,0,0,,12,,,47,127
22132,note_on,4,0,0,,12,,,47,127
22132,note_on,0,0,0,,4,,,64,127
22132,note_on,0,0,0,,8,,,68,127
22190,note_off,58,0,0,,8,,,68,127
22190,note_off,0,0,0,,4,,,64,127
22194,note_on,4,0,0,,3,,,63,127
22194,note_on,0,0,0,,6,,,66,127
22252,note_off,58,0,0,,6,,,66,127
22252,note_off,0,0,0,,3,,,63,127
22256,note_on,4,0,0,,4,,,64,127
22256,note_on,0,0,0,,8,,,68,127
22314,note_off,58,0,0,,8,,,68,127
22314,note_off,0,0,0,,4,,,64,127
22318,note_on,4,0,0,,3,,,63,127
22318,note_on,0,0,0,,6,,,66,127
22376,note_off,58,0,0,,6,,,66,127
22376,note_off,0,0,0,,3,,,63,127
22380,note_on,4,0,0,,4,,,64,127
22380,note_on,0,0,0,,8,,,68,127
22438,note_off,58,0,0,,8,,,68,127
22438,note_off,0,0,0,,4,,,64,127
22442,note_on,4,0,0,,3,,,63,127
22442,note_on,0,0,0,,6,,,66,127
22500,note_off,58,0,0,,6,,,66,127
22500,note_off,0,0,0,,3,,,63,127
22504,note_on,4,0,0,,4,,,64,127
22504,note_on,0,0,0,,8,,,68,127
22686,note_off,182,0,0,,8,,,68,127
22686,note_off,0,0,0,,12,,,47,127
22690,note_on,4,0,0,,12,,,59,127
22690,note_on,0,0,0,,10,,,69,127
22872,note_off,182,0,0,,10,,,69,127
22872,note_off,0,0,0,,12,,,59,127
22872,note_off,0,0,0,,4,,,64,127
22876,note_on,4,0,0,,4,,,64,127
22876,note_on,0,0,0,,8,,,68,127
22876,note_on,0,0,0,,12,,,47,127
22934,note_off,58,0,0,,8,,,68,127
22934,note_off,0,0,0,,4,,,64,127
22938,note_on,4,0,0,,3,,,63,127
22938,note_on,0,0,0,,6,,,66,127
22996,note_off,58,0,0,,6,,,66,127
22996,note_off,0,0,0,,3,,,63,127
23000,note_on,4,0,0,,4,,,64,127
23000,note_on,0,0,0,,8,,,68,127
23058,note_off,58,0,0,,8,,,68,127
23058,note_off,0,0,0,,4,,,64,127
23062,note_on,4,0,0,,3,,,63,127
23062,note_on,0,0,0,,6,,,66,127
23120,note_off,58,0,0,,6,,,66,127
23120,note_off,0,0,0,,3,,,63,127
23124,note_on,4,0,0,,4,,,64,127
23124,note_on,0,0,0,,8,,,68,127
23182,note_off,58,0,0,,8,,,68,127
23182,note_off,0,0,0,,4,,,64,127
23186,note_on,4,0,0,,3,,,63,127
23186,note_on,0,0,0,,6,,,66,127
23244,note_off,58,0,0,,6,,,66,127
23244,note_off,0,0,0,,3,,,63,127
23248,note_on,4,0,0,,4,,,64,127
23248,note_on,0,0,0,,8,,,68,127
23430,note_off,182,0,0,,8,,,68,127
23434,note_off,4,0,0,,12,,,47,127
23434,note_on,0,0,0,,12,,,59,127
23434,note_on,0,0,0,,10,,,69,127
23616,note_off,182,0,0,,10,,,69,127
23616,note_off,0,0,0,,12,,,59,127
23616,note_off,0,0,0,,4,,,64,127
23620,note_on,4,0,0,,4,,,64,127
23620,note_on,0,0,0,,8,,,68,127
23620,note_on,0,0,0,,12,,,47,127
23678,note_off,58,0,0,,8,,,68,127
23678,note_off,0,0,0,,4,,,64,127
23682,note_on,4,0,0,,3,,,63,127
23682,note_on,0,0,0,,6,,,66,127
23740,note_off,58,0,0,,6,,,66,127
23740,note_off,0,0,0,,3,,,63,127
23744,note_on,4,0,0,,4,,,64,127
23744,note_on,0,0,0,,8,,,68,127
23802,note_off,58,0,0,,8,,,68,127
23802,note_off,0,0,0,,4,,,64,127
23806,note_on,4,0,0,,3,,,63,127
23806,note_on,0,0,0,,6,,,66,127
23864,note_off,58,0,0,,6,,,66,127
23864,note_off,0,0,0,,3,,,63,127
23868,note_on,4,0,0,,4,,,64,127
23868,note_on,0,0,0,,8,,,68,127
23926,note_off,58,0,0,,8,,,68,127
23926,note_off,0,0,0,,4,,,64,127
23930,note_on,4,0,0,,3,,,63,127
23930,note_on,0,0,0,,6,,,66,127
23988,note_off,58,0,0,,6,,,66,127
23988,note_off,0,0,0,,3,,,63,127
23992,note_on,4,0,0,,4,,,64,127
23992,note_on,0,0,0,,8,,,68,127
24174,note_off,182,0,0,,8,,,68,127
24178,note_off,4,0,0,,12,,,47,127
24178,note_on,0,0,0,,12,,,59,127
24178,note_on,0,0,0,,10,,,69,127
24360,note_off,182,0,0,,10,,,69,127
24360,note_off,0,0,0,,12,,,59,127
24360,note_off,0,0,0,,4,,,64,127
24364,note_on,4,0,0,,4,,,64,127
24364,note_on,0,0,0,,8,,,68,127
24364,note_on,0,0,0,,12,,,47,127
24422,note_off,58,0,0,,8,,,68,127
24422,note_off,0,0,0,,4,,,64,127
24426,note_on,4,0,0,,3,,,63,127
24426,note_on,0,0,0,,6,,,66,127
24484,note_off,58,0,0,,6,,,66,127
24484,note_off,0,0,0,,3,,,63,127
24488,note_on,4,0,0,,4,,,64,127
24488,note_on,0,0,0,,8,,,68,127
24546,note_off,58,0,0,,8,,,68,127
24546,note_off,0,0,0,,4,,,64,127
24548,note_off,2,0,0,,12,,,47,127
24550,note_on,2,0,0,,12,,,59,127
24550,note_on,0,0,0,,3,,,63,127
24550,note_on,0,0,0,,6,,,66,127
24608,note_off,58,0,0,,6,,,66,127
24608,note_off,0,0,0,,3,,,63,127
24612,note_on,4,0,0,,4,,,64,127
24612,note_on,0,0,0,,8,,,68,127
24670,note_off,58,0,0,,8,,,68,127
24670,note_off,0,0,0,,4,,,64,127
24674,note_on,4,0,0,,3,,,63,127
24674,note_on,0,0,0,,6,,,66,127
24732,note_off,58,0,0,,6,,,66,127
24732,note_off,0,0,0,,3,,,63,127
24732,note_off,0,0,0,,12,,,59,127
24736,note_on,4,0,0,,4,,,52,127
24736,note_on,0,0,0,,4,,,64,127
24736,note_on,0,0,0,,8,,,68,127
24918,note_off,182,0,0,,8,,,68,127
24918,note_off,0,0,0,,4,,,52,127
24922,note_on,4,0,0,,10,,,57,127
24922,note_on,0,0,0,,10,,,69,127
25104,note_off,182,0,0,,10,,,69,127
25104,note_off,0,0,0,,10,,,57,127
25104,note_off,0,0,0,,4,,,64,127
25108,note_on,4,0,0,,4,,,64,127
25108,note_on,0,0,0,,8,,,68,127
25108,note_on,0,0,0,,12,,,59,127
25166,note_off,58,0,0,,8,,,68,127
25166,note_off,0,0,0,,4,,,64,127
25170,note_on,4,0,0,,3,,,63,127
25170,note_on,0,0,0,,6,,,66,127
25228,note_off,58,0,0,,6,,,66,127
25228,note_off,0,0,0,,3,,,63,127
25232,note_on,4,0,0,,4,,,64,127
25232,note_on,0,0,0,,8,,,68,127
25290,note_off,58,0,0,,8,,,68,127
25290,note_off,0,0,0,,4,,,64,127
25294,note_on,4,0,0,,12,,,47,127
25294,note_on,0,0,0,,3,,,63,127
25294,note_on,0,0,0,,6,,,66,127
25352,note_off,58,0,0,,6,,,66,127
25352,note_off,0,0,0,,3,,,63,127
25356,note_on,4,0,0,,4,,,64,127
25356,note_on,0,0,0,,8,,,68,127
25414,note_off,58,0,0,,8,,,68,127
25414,note_off,0,0,0,,4,,,64,127
25418,note_on,4,0,0,,3,,,63,127
25418,note_on,0,0,0,,6,,,66,127
25476,note_off,58,0,0,,6,,,66,127
25476,note_off,0,0,0,,3,,,63,127
25476,note_off,0,0,0,,12,,,47,127
25476,note_off,0,0,0,,12,,,59,127
25480,note_on,4,0,0,,4,,,52,127
25480,note_on,0,0,0,,4,,,64,127
25573,note_on,93,0,0,,4,,,76,127
25662,note_off,89,0,0,,4,,,76,127
25664,note_off,2,0,0,,4,,,64,127
25666,note_on,2,0,0,,3,,,75,127
25755,note_off,89,0,0,,3,,,75,127
25759,note_on,4,0,0,,1,,,73,127
25848,note_off,89,0,0,,1,,,73,127
25852,note_on,4,0,0,,12,,,71,127
25941,note_off,89,0,0,,12,,,71,127
25945,note_on,4,0,0,,10,,,69,127
26034,note_off,89,0,0,,10,,,69,127
26038,note_on,4,0,0,,8,,,68,127
26127,note_off,89,0,0,,8,,,68,127
26131,note_on,4,0,0,,6,,,66,127
26220,note_off,89,0,0,,6,,,66,127
26224,note_on,4,0,0,,12,,,71,127
26224,note_on,0,0,0,,4,,,64,127
26224,note_on,0,0,0,,8,,,68,127
26313,note_off,89,0,0,,4,,,64,127
26313,note_off,0,0,0,,4,,,52,127
26317,note_on,4,0,0,,4,,,64,127
26406,note_off,89,0,0,,4,,,64,127
26410,note_on,4,0,0,,3,,,63,127
26499,note_off,89,0,0,,3,,,63,127
26503,note_on,4,0,0,,1,,,61,127
26592,note_off,89,0,0,,1,,,61,127
26596,note_on,4,0,0,,12,,,59,127
26685,note_off,89,0,0,,12,,,59,127
26689,note_on,4,0,0,,10,,,57,127
26778,note_off,89,0,0,,10,,,57,127
26782,note_on,4,0,0,,8,,,56,127
26871,note_off,89,0,0,,8,,,56,127
26875,note_on,4,0,0,,6,,,54,127
26964,note_off,89,0,0,,6,,,54,127
26964,note_off,0,0,0,,8,,,68,127
26964,note_off,0,0,0,,12,,,71,127
26968,note_on,4,0,0,,12,,,71,127
26968,note_on,0,0,0,,4,,,64,127
26968,note_on,0,0,0,,8,,,68,127
27061,note_on,93,0,0,,4,,,52,127
27150,note_off,89,0,0,,4,,,52,127
27154,note_on,4,0,0,,3,,,51,127
27243,note_off,89,0,0,,3,,,51,127
27247,note_on,4,0,0,,1,,,49,127
27336,note_off,89,0,0,,1,,,49,127
27340,note_on,4,0,0,,12,,,47,127
27429,note_off,89,0,0,,12,,,47,127
27433,note_on,4,0,0,,10,,,45,127
27522,note_off,89,0,0,,10,,,45,127
27526,note_on,4,0,0,,8,,,44,127
27615,note_off,89,0,0,,8,,,44,127
27619,note_on,4,0,0,,6,,,42,127
27708,note_off,89,0,0,,6,,,42,127
27708,note_off,0,0,0,,8,,,68,127
27708,note_off,0,0,0,,4,,,64,127
27708,note_off,0,0,0,,12,,,71,127
27712,note_on,4,0,0,,4,,,40,127
27712,note_on,0,0,0,,8,,,68,127
27712,note_on,0,0,0,,12,,,71,127
27894,note_off,182,0,0,,12,,,71,127
27894,note_off,0,0,0,,8,,,68,127
27894,note_off,0,0,0,,4,,,40,127
27898,note_on,4,0,0,,10,,,45,127
27898,note_on,0,0,0,,10,,,69,127
27898,note_on,0,0,0,,6,,,66,127
28080,note_off,182,0,0,,6,,,66,127
28080,note_off,0,0,0,,10,,,69,127
28080,note_off,0,0,0,,10,,,45,127
28084,note_on,4,0,0,,12,,,47,127
28084,note_on,0,0,0,,6,,,66,127
28084,note_on,0,0,0,,10,,,69,127
28127,note_off,43,0,0,,10,,,69,127
28127,note_off,0,0,0,,6,,,66,127
28131,note_on,4,0,0,,4,,,64,127
28131,note_on,0,0,0,,8,,,68,127
28174,note_off,43,0,0,,8,,,68,127
28174,note_off,0,0,0,,4,,,64,127
28178,note_on,4,0,0,,6,,,66,127
28178,note_on,0,0,0,,10,,,69,127
28221,note_off,43,0,0,,10,,,69,127
28221,note_off,0,0,0,,6,,,66,127
28225,note_on,4,0,0,,4,,,64,127
28225,note_on,0,0,0,,8,,,68,127
28268,note_off,43,0,0,,8,,,68,127
28268,note_off,0,0,0,,4,,,64,127
28272,note_on,4,0,0,,6,,,66,127
28272,note_on,0,0,0,,3,,,63,127
28454,note_off,182,0,0,,3,,,63,127
28454,note_off,0,0,0,,6,,,66,127
28454,note_off,0,0,0,,12,,,47,127
28458,note_on,4,0,0,,4,,,40,127
28458,note_on,0,0,0,,4,,,64,127
29015,note_off,557,0,0,,4,,,64,127
29197,note_off,182,0,0,,4,,,40,127
29201,note_on,4,0,0,,4,,,76,127
29555,note_off,354,0,0,,4,,,76,127
29572,note_on,17,0,0,,6,,,78,127
29754,note_off,182,0,0,,6,,,78,127
29758,note_on,4,0,0,,12,,,71,127
29940,note_off,182,0,0,,12,,,71,127
29944,note_on,4,0,0,,4,,,76,127
30126,note_off,182,0,0,,4,,,76,127
30130,note_on,4,0,0,,8,,,80,127
30312,note_off,182,0,0,,8,,,80,127
30316,note_on,4,0,0,,6,,,78,127
30498,note_off,182,0,0,,6,,,78,127
30502,note_on,4,0,0,,12,,,71,127
30684,note_off,182,0,0,,12,,,71,127
30688,note_on,4,0,0,,4,,,64,127
30688,note_on,0,0,0,,8,,,80,127
30870,note_off,182,0,0,,8,,,80,127
30874,note_on,4,0,0,,4,,,76,127
31037,note_off,163,0,0,,4,,,64,127
31056,note_off,19,0,0,,4,,,76,127
31060,note_on,4,0,0,,6,,,66,127
31060,note_on,0,0,0,,10,,,81,127
31242,note_off,182,0,0,,10,,,81,127
31242,note_off,0,0,0,,6,,,66,127
31246,note_on,4,0,0,,12,,,59,127
31246,note_on,0,0,0,,3,,,75,127
31428,note_off,182,0,0,,3,,,75,127
31428,note_off,0,0,0,,12,,,59,127
31432,note_on,4,0,0,,4,,,64,127
31432,note_on,0,0,0,,12,,,83,127
31614,note_off,182,0,0,,12,,,83,127
31614,note_off,0,0,0,,4,,,64,127
31618,note_on,4,0,0,,8,,,68,127
31618,note_on,0,0,0,,4,,,76,127
31800,note_off,182,0,0,,8,,,68,127
31804,note_on,4,0,0,,6,,,66,127
31986,note_off,182,0,0,,6,,,66,127
31986,note_off,0,0,0,,4,,,76,127
31990,note_on,4,0,0,,12,,,59,127
31990,note_on,0,0,0,,3,,,75,127
32172,note_off,182,0,0,,3,,,75,127
32172,note_off,0,0,0,,12,,,59,127
32176,note_on,4,0,0,,4,,,64,127
32176,note_on,0,0,0,,4,,,76,127
32358,note_off,182,0,0,,4,,,64,127
32362,note_on,4,0,0,,6,,,66,127
32544,note_off,182,0,0,,6,,,66,127
32548,note_on,4,0,0,,8,,,68,127
32660,note_off,112,0,0,,4,,,76,127
32730,note_off,70,0,0,,8,,,68,127
32734,note_on,4,0,0,,4,,,64,127
32734,note_on,0,0,0,,12,,,71,127
32916,note_off,182,0,0,,12,,,71,127
32916,note_off,0,0,0,,4,,,64,127
32920,note_on,4,0,0,,10,,,69,127
32920,note_on,0,0,0,,1,,,73,127
33102,note_off,182,0,0,,1,,,73,127
33102,note_off,0,0,0,,10,,,69,127
33106,note_on,4,0,0,,8,,,68,127
33106,note_on,0,0,0,,12,,,71,127
33288,note_off,182,0,0,,8,,,68,127
33292,note_on,4,0,0,,6,,,66,127
33350,note_off,58,0,0,,12,,,71,127
33354,note_on,4,0,0,,10,,,69,127
33412,note_off,58,0,0,,10,,,69,127
33416,note_on,4,0,0,,12,,,71,127
33474,note_off,58,0,0,,12,,,71,127
33474,note_off,0,0,0,,6,,,66,127
33478,note_on,4,0,0,,12,,,59,127
33478,note_on,0,0,0,,10,,,69,127
33536,note_off,58,0,0,,10,,,69,127
33540,note_on,4,0,0,,12,,,71,127
33598,note_off,58,0,0,,12,,,71,127
33602,note_on,4,0,0,,10,,,69,127
33660,note_off,58,0,0,,10,,,69,127
33660,note_off,0,0,0,,12,,,59,127
33664,note_on,4,0,0,,4,,,64,127
33664,note_on,0,0,0,,8,,,68,127
33819,note_off,155,0,0,,8,,,68,127
33846,note_off,27,0,0,,4,,,64,127
33850,note_on,4,0,0,,6,,,66,127
33850,note_on,0,0,0,,3,,,75,127
34032,note_off,182,0,0,,6,,,66,127
34036,note_on,4,0,0,,8,,,68,127
34218,note_off,182,0,0,,8,,,68,127
34218,note_off,0,0,0,,3,,,75,127
34222,note_on,4,0,0,,4,,,64,127
34222,note_on,0,0,0,,4,,,76,127
34404,note_off,182,0,0,,4,,,76,127
34404,note_off,0,0,0,,4,,,64,127
34408,note_on,4,0,0,,10,,,69,127
34408,note_on,0,0,0,,1,,,73,127
34590,note_off,182,0,0,,1,,,73,127
34590,note_off,0,0,0,,10,,,69,127
34594,note_on,4,0,0,,8,,,68,127
34594,note_on,0,0,0,,12,,,71,127
34776,note_off,182,0,0,,8,,,68,127
34780,note_on,4,0,0,,6,,,66,127
34838,note_off,58,0,0,,12,,,71,127
34842,note_on,4,0,0,,10,,,69,127
34900,note_off,58,0,0,,10,,,69,127
34904,note_on,4,0,0,,12,,,71,127
34962,note_off,58,0,0,,12,,,71,127
34962,note_off,0,0,0,,6,,,66,127
34966,note_on,4,0,0,,12,,,59,127
34966,note_on,0,0,0,,10,,,69,127
35024,note_off,58,0,0,,10,,,69,127
35028,note_on,4,0,0,,12,,,71,127
35086,note_off,58,0,0,,12,,,71,127
35090,note_on,4,0,0,,10,,,69,127
35148,note_off,58,0,0,,10,,,69,127
35148,note_off,0,0,0,,12,,,59,127
35152,note_on,4,0,0,,4,,,64,127
35152,note_on,0,0,0,,8,,,68,127
35334,note_off,182,0,0,,8,,,68,127
35334,note_off,0,0,0,,4,,,64,127
35338,note_on,4,0,0,,2,,,62,127
35338,note_on,0,0,0,,10,,,69,127
35427,note_off,89,0,0,,10,,,69,127
35431,note_on,4,0,0,,12,,,71,127
35520,note_off,89,0,0,,12,,,71,127
35520,note_off,0,0,0,,2,,,62,127
35524,note_on,4,0,0,,1,,,61,127
35524,note_on,0,0,0,,4,,,64,127
35706,note_off,182,0,0,,4,,,64,127
35706,note_off,0,0,0,,1,,,61,127
35710,note_on,4,0,0,,10,,,57,127
35710,note_on,0,0,0,,4,,,76,127
35892,note_off,182,0,0,,4,,,76,127
35892,note_off,0,0,0,,10,,,57,127
35896,note_on,4,0,0,,2,,,62,127
35896,note_on,0,0,0,,6,,,78,127
36078,note_off,182,0,0,,6,,,78,127
36078,note_off,0,0,0,,2,,,62,127
36082,note_on,4,0,0,,1,,,61,127
36082,note_on,0,0,0,,4,,,76,127
36264,note_off,182,0,0,,1,,,61,127
36268,note_on,4,0,0,,12,,,59,127
36326,note_off,58,0,0,,4,,,76,127
36330,note_on,4,0,0,,2,,,74,127
36388,note_off,58,0,0,,2,,,74,127
36392,note_on,4,0,0,,4,,,76,127
36450,note_off,58,0,0,,4,,,76,127
36450,note_off,0,0,0,,12,,,59,127
36454,note_on,4,0,0,,4,,,52,127
36454,note_on,0,0,0,,2,,,74,127
36512,note_off,58,0,0,,2,,,74,127
36516,note_on,4,0,0,,4,,,76,127
36574,note_off,58,0,0,,4,,,76,127
36578,note_on,4,0,0,,2,,,74,127
36636,note_off,58,0,0,,2,,,74,127
36636,note_off,0,0,0,,4,,,52,127
36640,note_on,4,0,0,,10,,,57,127
36640,note_on,0,0,0,,1,,,73,127
36822,note_off,182,0,0,,10,,,57,127
36826,note_on,4,0,0,,6,,,54,127
36826,note_on,0,0,0,,10,,,81,127
36919,note_off,93,0,0,,1,,,73,127
37008,note_off,89,0,0,,10,,,81,127
37008,note_off,0,0,0,,6,,,54,127
37012,note_on,4,0,0,,7,,,55,127
37012,note_on,0,0,0,,12,,,83,127
37194,note_off,182,0,0,,7,,,55,127
37198,note_on,4,0,0,,12,,,59,127
37198,note_on,0,0,0,,2,,,74,127
37322,note_off,124,0,0,,12,,,83,127
37380,note_off,58,0,0,,2,,,74,127
37380,note_off,0,0,0,,12,,,59,127
37384,note_on,4,0,0,,10,,,57,127
37384,note_on,0,0,0,,1,,,73,127
37566,note_off,182,0,0,,10,,,57,127
37570,note_on,4,0,0,,6,,,54,127
37570,note_on,0,0,0,,10,,,81,127
37663,note_off,93,0,0,,1,,,73,127
37752,note_off,89,0,0,,10,,,81,127
37752,note_off,0,0,0,,6,,,54,127
37756,note_on,4,0,0,,7,,,55,127
37756,note_on,0,0,0,,12,,,83,127
37938,note_off,182,0,0,,7,,,55,127
37942,note_on,4,0,0,,12,,,59,127
37942,note_on,0,0,0,,2,,,74,127
38027,note_off,85,0,0,,12,,,83,127
38124,note_off,97,0,0,,2,,,74,127
38124,note_off,0,0,0,,12,,,59,127
38128,note_on,4,0,0,,10,,,57,127
38128,note_on,0,0,0,,1,,,73,127
38310,note_off,182,0,0,,10,,,57,127
38314,note_on,4,0,0,,6,,,54,127
38314,note_on,0,0,0,,10,,,81,127
38407,note_off,93,0,0,,1,,,73,127
38496,note_off,89,0,0,,10,,,81,127
38496,note_off,0,0,0,,6,,,54,127
38500,note_on,4,0,0,,7,,,55,127
38500,note_on,0,0,0,,12,,,83,127
38655,note_off,155,0,0,,12,,,83,127
38682,note_off,27,0,0,,7,,,55,127
38686,note_on,4,0,0,,12,,,59,127
38686,note_on,0,0,0,,2,,,74,127
38868,note_off,182,0,0,,2,,,74,127
38868,note_off,0,0,0,,12,,,59,127
38872,note_on,4,0,0,,10,,,57,127
38872,note_on,0,0,0,,1,,,73,127
39054,note_off,182,0,0,,1,,,73,127
39054,note_off,0,0,0,,10,,,57,127
39058,note_on,4,0,0,,1,,,61,127
39058,note_on,0,0,0,,4,,,76,127
39240,note_off,182,0,0,,4,,,76,127
39240,note_off,0,0,0,,1,,,61,127
39244,note_on,4,0,0,,2,,,62,127
39244,note_on,0,0,0,,5,,,77,127
39426,note_off,182,0,0,,2,,,62,127
39428,note_off,2,0,0,,5,,,77,127
39430,note_on,2,0,0,,5,,,65,127
39430,note_on,0,0,0,,10,,,69,127
39612,note_off,182,0,0,,10,,,69,127
39612,note_off,0,0,0,,5,,,65,127
39616,note_on,4,0,0,,4,,,64,127
39616,note_on,0,0,0,,8,,,68,127
39798,note_off,182,0,0,,4,,,64,127
39802,note_on,4,0,0,,1,,,61,127
39802,note_on,0,0,0,,4,,,76,127
39895,note_off,93,0,0,,8,,,68,127
39984,note_off,89,0,0,,4,,,76,127
39984,note_off,0,0,0,,1,,,61,127
39988,note_on,4,0,0,,2,,,62,127
39988,note_on,0,0,0,,5,,,77,127
40170,note_off,182,0,0,,2,,,62,127
40174,note_on,4,0,0,,5,,,65,127
40174,note_on,0,0,0,,10,,,69,127
40201,note_off,27,0,0,,5,,,77,127
40356,note_off,155,0,0,,10,,,69,127
40356,note_off,0,0,0,,5,,,65,127
40360,note_on,4,0,0,,4,,,64,127
40360,note_on,0,0,0,,8,,,68,127
40542,note_off,182,0,0,,4,,,64,127
40546,note_on,4,0,0,,1,,,61,127
40546,note_on,0,0,0,,4,,,76,127
40639,note_off,93,0,0,,8,,,68,127
40728,note_off,89,0,0,,4,,,76,127
40728,note_off,0,0,0,,1,,,61,127
40732,note_on,4,0,0,,2,,,62,127
40732,note_on,0,0,0,,5,,,77,127
40867,note_off,135,0,0,,5,,,77,127
40913,note_off,46,0,0,,2,,,62,127
40917,note_on,4,0,0,,5,,,65,127
40917,note_on,0,0,0,,10,,,69,127
41099,note_off,182,0,0,,10,,,69,127
41099,note_off,0,0,0,,5,,,65,127
41103,note_on,4,0,0,,4,,,64,127
41103,note_on,0,0,0,,8,,,68,127
41285,note_off,182,0,0,,4,,,64,127
41289,note_on,4,0,0,,2,,,62,127
41289,note_on,0,0,0,,3,,,75,127
41382,note_off,93,0,0,,8,,,68,127
41471,note_off,89,0,0,,3,,,75,127
41471,note_off,0,0,0,,2,,,62,127
41475,note_on,4,0,0,,1,,,61,127
41475,note_on,0,0,0,,4,,,76,127
41657,note_off,182,0,0,,1,,,61,127
41661,note_on,4,0,0,,10,,,57,127
41661,note_on,0,0,0,,7,,,67,127
41754,note_off,93,0,0,,4,,,76,127
41843,note_off,89,0,0,,7,,,67,127
41843,note_off,0,0,0,,10,,,57,127
41847,note_on,4,0,0,,2,,,62,127
41847,note_on,0,0,0,,6,,,66,127
42029,note_off,182,0,0,,2,,,62,127
42033,note_on,4,0,0,,0,,,60,127
42033,note_on,0,0,0,,1,,,73,127
42126,note_off,93,0,0,,6,,,66,127
42215,note_off,89,0,0,,1,,,73,127
42215,note_off,0,0,0,,0,,,60,127
42219,note_on,4,0,0,,12,,,59,127
42219,note_on,0,0,0,,2,,,74,127
42401,note_off,182,0,0,,12,,,59,127
42405,note_on,4,0,0,,10,,,57,127
42405,note_on,0,0,0,,5,,,65,127
42498,note_off,93,0,0,,2,,,74,127
42587,note_off,89,0,0,,5,,,65,127
42587,note_off,0,0,0,,10,,,57,127
42591,note_on,4,0,0,,8,,,56,127
42591,note_on,0,0,0,,4,,,64,127
42773,note_off,182,0,0,,8,,,56,127
42777,note_on,4,0,0,,4,,,52,127
42777,note_on,0,0,0,,12,,,71,127
42870,note_off,93,0,0,,4,,,64,127
42959,note_off,89,0,0,,12,,,71,127
42959,note_off,0,0,0,,4,,,52,127
42963,note_on,4,0,0,,10,,,57,127
42963,note_on,0,0,0,,0,,,72,127
43145,note_off,182,0,0,,10,,,57,127
43149,note_on,4,0,0,,0,,,60,127
43149,note_on,0,0,0,,4,,,64,127
43242,note_off,93,0,0,,0,,,72,127
43331,note_off,89,0,0,,4,,,64,127
43331,note_off,0,0,0,,0,,,60,127
43335,note_on,4,0,0,,12,,,59,127
43335,note_on,0,0,0,,3,,,63,127
43517,note_off,182,0,0,,12,,,59,127
43521,note_on,4,0,0,,10,,,57,127
43521,note_on,0,0,0,,10,,,69,127
43614,note_off,93,0,0,,3,,,63,127
43703,note_off,89,0,0,,10,,,69,127
43703,note_off,0,0,0,,10,,,57,127
43707,note_on,4,0,0,,8,,,56,127
43707,note_on,0,0,0,,12,,,71,127
43889,note_off,182,0,0,,8,,,56,127
43893,note_on,4,0,0,,4,,,52,127
43893,note_on,0,0,0,,2,,,62,127
43986,note_off,93,0,0,,12,,,71,127
44067,note_off,81,0,0,,2,,,62,127
44075,note_off,8,0,0,,4,,,52,127
44079,note_on,4,0,0,,10,,,57,127
44079,note_on,0,0,0,,1,,,61,127
44261,note_off,182,0,0,,1,,,61,127
44261,note_off,0,0,0,,10,,,57,127
44265,note_on,4,0,0,,4,,,52,127
44265,note_on,0,0,0,,4,,,64,127
44447,note_off,182,0,0,,4,,,64,127
44447,note_off,0,0,0,,4,,,52,127
44451,note_on,4,0,0,,1,,,49,127
44451,note_on,0,0,0,,10,,,69,127
44633,note_off,182,0,0,,10,,,69,127
44633,note_off,0,0,0,,1,,,49,127
44637,note_on,4,0,0,,10,,,45,127
44637,note_on,0,0,0,,1,,,73,127
44819,note_off,182,0,0,,1,,,73,127
44819,note_off,0,0,0,,10,,,45,127
44823,note_on,4,0,0,,4,,,52,127
44823,note_on,0,0,0,,4,,,64,127
45005,note_off,182,0,0,,4,,,64,127
45005,note_off,0,0,0,,4,,,52,127
45009,note_on,4,0,0,,12,,,47,127
45009,note_on,0,0,0,,8,,,68,127
45191,note_off,182,0,0,,8,,,68,127
45191,note_off,0,0,0,,12,,,47,127
45195,note_on,4,0,0,,8,,,44,127
45195,note_on,0,0,0,,12,,,71,127
45377,note_off,182,0,0,,12,,,71,127
45377,note_off,0,0,0,,8,,,44,127
45381,note_on,4,0,0,,4,,,40,127
45381,note_on,0,0,0,,2,,,74,127
45563,note_off,182,0,0,,2,,,74,127
45563,note_off,0,0,0,,4,,,40,127
45567,note_on,4,0,0,,10,,,45,127
45567,note_on,0,0,0,,1,,,73,127
45749,note_off,182,0,0,,1,,,73,127
45753,note_on,4,0,0,,2,,,74,127
45842,note_off,89,0,0,,2,,,74,127
45846,note_on,4,0,0,,4,,,76,127
45935,note_off,89,0,0,,4,,,76,127
45935,note_off,0,0,0,,10,,,45,127
45939,note_on,4,0,0,,2,,,50,127
45939,note_on,0,0,0,,2,,,74,127
46121,note_off,182,0,0,,2,,,74,127
46125,note_on,4,0,0,,1,,,73,127
46307,note_off,182,0,0,,1,,,73,127
46307,note_off,0,0,0,,2,,,50,127
46311,note_on,4,0,0,,4,,,52,127
46311,note_on,0,0,0,,10,,,69,127
46311,note_on,0,0,0,,1,,,73,127
46679,note_off,368,0,0,,1,,,73,127
46679,note_off,0,0,0,,10,,,69,127
46679,note_off,0,0,0,,4,,,52,127
46683,note_on,4,0,0,,4,,,40,127
46683,note_on,0,0,0,,1,,,73,127
46683,note_on,0,0,0,,10,,,69,127
46741,note_off,58,0,0,,10,,,69,127
46741,note_off,0,0,0,,1,,,73,127
46745,note_on,4,0,0,,8,,,68,127
46745,note_on,0,0,0,,12,,,71,127
46803,note_off,58,0,0,,12,,,71,127
46803,note_off,0,0,0,,8,,,68,127
46807,note_on,4,0,0,,10,,,69,127
46807,note_on,0,0,0,,1,,,73,127
46865,note_off,58,0,0,,1,,,73,127
46865,note_off,0,0,0,,10,,,69,127
46869,note_on,4,0,0,,8,,,68,127
46869,note_on,0,0,0,,12,,,71,127
46927,note_off,58,0,0,,12,,,71,127
46927,note_off,0,0,0,,8,,,68,127
46931,note_on,4,0,0,,1,,,73,127
46931,note_on,0,0,0,,10,,,69,127
46989,note_off,58,0,0,,10,,,69,127
46989,note_off,0,0,0,,1,,,73,127
46993,note_on,4,0,0,,12,,,71,127
46993,note_on,0,0,0,,8,,,68,127
47051,note_off,58,0,0,,8,,,68,127
47051,note_off,0,0,0,,12,,,71,127
47055,note_on,4,0,0,,1,,,73,127
47055,note_on,0,0,0,,10,,,69,127
47237,note_off,182,0,0,,1,,,73,127
47237,note_off,0,0,0,,4,,,40,127
47241,note_on,4,0,0,,4,,,52,127
47241,note_on,0,0,0,,2,,,74,127
47423,note_off,182,0,0,,2,,,74,127
47423,note_off,0,0,0,,4,,,52,127
47423,note_off,0,0,0,,10,,,69,127
47427,note_on,4,0,0,,4,,,40,127
47427,note_on,0,0,0,,10,,,69,127
47427,note_on,0,0,0,,1,,,73,127
47485,note_off,58,0,0,,1,,,73,127
47485,note_off,0,0,0,,10,,,69,127
47489,note_on,4,0,0,,8,,,68,127
47489,note_on,0,0,0,,12,,,71,127
47547,note_off,58,0,0,,12,,,71,127
47547,note_off,0,0,0,,8,,,68,127
47551,note_on,4,0,0,,10,,,69,127
47551,note_on,0,0,0,,1,,,73,127
47609,note_off,58,0,0,,1,,,73,127
47609,note_off,0,0,0,,10,,,69,127
47613,note_on,4,0,0,,8,,,68,127
47613,note_on,0,0,0,,12,,,71,127
47671,note_off,58,0,0,,12,,,71,127
47671,note_off,0,0,0,,8,,,68,127
47675,note_on,4,0,0,,10,,,69,127
47675,note_on,0,0,0,,1,,,73,127
47733,note_off,58,0,0,,1,,,73,127
47733,note_off,0,0,0,,10,,,69,127
47737,note_on,4,0,0,,8,,,68,127
47737,note_on,0,0,0,,12,,,71,127
47795,note_off,58,0,0,,12,,,71,127
47795,note_off,0,0,0,,8,,,68,127
47799,note_on,4,0,0,,10,,,69,127
47799,note_on,0,0,0,,1,,,73,127
47981,note_off,182,0,0,,1,,,73,127
47981,note_off,0,0,0,,4,,,40,127
47985,note_on,4,0,0,,4,,,52,127
47985,note_on,0,0,0,,2,,,74,127
48167,note_off,182,0,0,,2,,,74,127
48167,note_off,0,0,0,,4,,,52,127
48167,note_off,0,0,0,,10,,,69,127
48171,note_on,4,0,0,,4,,,40,127
48171,note_on,0,0,0,,10,,,69,127
48171,note_on,0,0,0,,1,,,73,127
48229,note_off,58,0,0,,1,,,73,127
48229,note_off,0,0,0,,10,,,69,127
48233,note_on,4,0,0,,8,,,68,127
48233,note_on,0,0,0,,12,,,71,127
48291,note_off,58,0,0,,12,,,71,127
48291,note_off,0,0,0,,8,,,68,127
48295,note_on,4,0,0,,10,,,69,127
48295,note_on,0,0,0,,1,,,73,127
48353,note_off,58,0,0,,1,,,73,127
48353,note_off,0,0,0,,10,,,69,127
48353,note_off,0,0,0,,4,,,40,127
48357,note_on,4,0,0,,4,,,52,127
48357,note_on,0,0,0,,8,,,68,127
48357,note_on,0,0,0,,12,,,71,127
48496,note_off,139,0,0,,12,,,71,127
48496,note_off,0,0,0,,8,,,68,127
48539,note_off,43,0,0,,4,,,52,127
48558,note_on,19,0,0,,10,,,45,127
48558,note_on,0,0,0,,6,,,78,127
48558,note_on,0,0,0,,10,,,69,127
48740,note_off,182,0,0,,10,,,69,127
48740,note_off,0,0,0,,6,,,78,127
48744,note_on,4,0,0,,4,,,76,127
48744,note_on,0,0,0,,8,,,68,127
48926,note_off,182,0,0,,10,,,45,127
48930,note_on,4,0,0,,12,,,47,127
49112,note_off,182,0,0,,8,,,68,127
49112,note_off,0,0,0,,4,,,76,127
49116,note_on,4,0,0,,3,,,75,127
49116,note_on,0,0,0,,6,,,66,127
49298,note_off,182,0,0,,6,,,66,127
49298,note_off,0,0,0,,3,,,75,127
49298,note_off,0,0,0,,12,,,47,127
49302,note_on,4,0,0,,4,,,52,127
49302,note_on,0,0,0,,4,,,76,127
49488,note_on,186,0,0,,12,,,59,127
49488,note_on,0,0,0,,8,,,68,127
49581,note_off,93,0,0,,4,,,52,127
49670,note_off,89,0,0,,8,,,68,127
49670,note_off,0,0,0,,12,,,59,127
49670,note_off,0,0,0,,4,,,76,127
49674,note_on,4,0,0,,0,,,60,127
49674,note_on,0,0,0,,10,,,69,127
49856,note_off,182,0,0,,0,,,60,127
49860,note_on,4,0,0,,2,,,50,127
49860,note_on,0,0,0,,5,,,65,127
50042,note_off,182,0,0,,5,,,65,127
50042,note_off,0,0,0,,2,,,50,127
50046,note_on,4,0,0,,4,,,52,127
50046,note_on,0,0,0,,4,,,64,127
50178,note_off,132,0,0,,10,,,69,127
50232,note_on,54,0,0,,12,,,59,127
50232,note_on,0,0,0,,8,,,68,127
50325,note_off,93,0,0,,4,,,64,127
50325,note_off,0,0,0,,4,,,52,127
50414,note_off,89,0,0,,8,,,68,127
50414,note_off,0,0,0,,12,,,59,127
50418,note_on,4,0,0,,0,,,60,127
50418,note_on,0,0,0,,10,,,69,127
50600,note_off,182,0,0,,0,,,60,127
50604,note_on,4,0,0,,2,,,50,127
50604,note_on,0,0,0,,5,,,65,127
50697,note_off,93,0,0,,10,,,69,127
50786,note_off,89,0,0,,5,,,65,127
50786,note_off,0,0,0,,2,,,50,127
50790,note_on,4,0,0,,4,,,52,127
50790,note_on,0,0,0,,4,,,64,127
50976,note_on,186,0,0,,12,,,59,127
50976,note_on,0,0,0,,8,,,68,127
51069,note_off,93,0,0,,4,,,64,127
51069,note_off,0,0,0,,4,,,52,127
51158,note_off,89,0,0,,8,,,68,127
51158,note_off,0,0,0,,12,,,59,127
51162,note_on,4,0,0,,0,,,60,127
51162,note_on,0,0,0,,10,,,69,127
51317,note_off,155,0,0,,10,,,69,127
51344,note_off,27,0,0,,0,,,60,127
51348,note_on,4,0,0,,2,,,50,127
51348,note_on,0,0,0,,5,,,65,127
51530,note_off,182,0,0,,5,,,65,127
51530,note_off,0,0,0,,2,,,50,127
51534,note_on,4,0,0,,4,,,52,127
51534,note_on,0,0,0,,4,,,64,127
51720,note_on,186,0,0,,8,,,56,127
51720,note_on,0,0,0,,4,,,76,127
51813,note_off,93,0,0,,4,,,64,127
51813,note_off,0,0,0,,4,,,52,127
51902,note_off,89,0,0,,4,,,76,127
51902,note_off,0,0,0,,8,,,56,127
51906,note_on,4,0,0,,10,,,57,127
51906,note_on,0,0,0,,5,,,77,127
52088,note_off,182,0,0,,10,,,57,127
52092,note_on,4,0,0,,2,,,50,127
52092,note_on,0,0,0,,10,,,69,127
52274,note_off,182,0,0,,10,,,69,127
52274,note_off,0,0,0,,2,,,50,127
52278,note_on,4,0,0,,4,,,52,127
52278,note_on,0,0,0,,8,,,68,127
52410,note_off,132,0,0,,5,,,77,127
52464,note_on,54,0,0,,8,,,56,127
52464,note_on,0,0,0,,4,,,76,127
52557,note_off,93,0,0,,8,,,68,127
52557,note_off,0,0,0,,4,,,52,127
52646,note_off,89,0,0,,4,,,76,127
52646,note_off,0,0,0,,8,,,56,127
52650,note_on,4,0,0,,10,,,57,127
52650,note_on,0,0,0,,5,,,77,127
52832,note_off,182,0,0,,10,,,57,127
52836,note_on,4,0,0,,2,,,50,127
52836,note_on,0,0,0,,10,,,69,127
52929,note_off,93,0,0,,5,,,77,127
53018,note_off,89,0,0,,10,,,69,127
53018,note_off,0,0,0,,2,,,50,127
53022,note_on,4,0,0,,4,,,52,127
53022,note_on,0,0,0,,8,,,68,127
53208,note_on,186,0,0,,8,,,56,127
53208,note_on,0,0,0,,4,,,76,127
53301,note_off,93,0,0,,8,,,68,127
53301,note_off,0,0,0,,4,,,52,127
53390,note_off,89,0,0,,4,,,76,127
53390,note_off,0,0,0,,8,,,56,127
53394,note_on,4,0,0,,10,,,57,127
53394,note_on,0,0,0,,5,,,77,127
53549,note_off,155,0,0,,5,,,77,127
53576,note_off,27,0,0,,10,,,57,127
53580,note_on,4,0,0,,2,,,50,127
53580,note_on,0,0,0,,10,,,69,127
53762,note_off,182,0,0,,10,,,69,127
53762,note_off,0,0,0,,2,,,50,127
53766,note_on,4,0,0,,4,,,52,127
53766,note_on,0,0,0,,8,,,68,127
53952,note_on,186,0,0,,8,,,80,127
54045,note_off,93,0,0,,8,,,68,127
54134,note_off,89,0,0,,8,,,80,127
54138,note_on,4,0,0,,10,,,81,127
54320,note_off,182,0,0,,10,,,81,127
54324,note_on,4,0,0,,5,,,77,127
54506,note_off,182,0,0,,5,,,77,127
54510,note_on,4,0,0,,4,,,40,127
54510,note_on,0,0,0,,4,,,76,127
54696,note_on,186,0,0,,8,,,80,127
54789,note_off,93,0,0,,4,,,76,127
54878,note_off,89,0,0,,8,,,80,127
54882,note_on,4,0,0,,10,,,81,127
55066,note_off,184,0,0,,10,,,81,127
55068,note_on,2,0,0,,2,,,74,127
55250,note_off,182,0,0,,2,,,74,127
55250,note_off,0,0,0,,4,,,40,127
55254,note_on,4,0,0,,4,,,40,127
55254,note_on,0,0,0,,1,,,73,127
55440,note_on,186,0,0,,8,,,80,127
55564,note_off,124,0,0,,1,,,73,127
55622,note_off,58,0,0,,8,,,80,127
55626,note_on,4,0,0,,10,,,81,127
55812,note_on,186,0,0,,0,,,72,127
55905,note_off,93,0,0,,10,,,81,127
55994,note_off,89,0,0,,0,,,72,127
55994,note_off,0,0,0,,4,,,40,127
55998,note_on,4,0,0,,4,,,40,127
55998,note_on,0,0,0,,12,,,71,127
56184,note_on,186,0,0,,3,,,75,127
56327,note_off,143,0,0,,12,,,71,127
56366,note_off,39,0,0,,3,,,75,127
56370,note_on,4,0,0,,4,,,76,127
56556,note_on,186,0,0,,10,,,69,127
56649,note_off,93,0,0,,4,,,76,127
56734,note_off,85,0,0,,4,,,52,127
56738,note_off,4,0,0,,10,,,69,127
56738,note_off,0,0,0,,4,,,40,127
56742,note_on,4,0,0,,4,,,40,127
56742,note_on,0,0,0,,8,,,68,127
56928,note_on,186,0,0,,3,,,75,127
57091,note_off,163,0,0,,8,,,68,127
57110,note_off,19,0,0,,3,,,75,127
57114,note_on,4,0,0,,4,,,76,127
57300,note_on,186,0,0,,7,,,67,127
57393,note_off,93,0,0,,4,,,76,127
57482,note_off,89,0,0,,7,,,67,127
57482,note_off,0,0,0,,4,,,40,127
57486,note_on,4,0,0,,4,,,40,127
57486,note_on,0,0,0,,6,,,66,127
57672,note_on,186,0,0,,1,,,73,127
57765,note_off,93,0,0,,6,,,66,127
57854,note_off,89,0,0,,1,,,73,127
57858,note_on,4,0,0,,2,,,74,127
58044,note_on,186,0,0,,5,,,65,127
58137,note_off,93,0,0,,2,,,74,127
58226,note_off,89,0,0,,5,,,65,127
58226,note_off,0,0,0,,4,,,40,127
58230,note_on,4,0,0,,4,,,40,127
58230,note_on,0,0,0,,4,,,64,127
58412,note_off,182,0,0,,4,,,64,127
58416,note_on,4,0,0,,8,,,68,127
58598,note_off,182,0,0,,8,,,68,127
58602,note_on,4,0,0,,12,,,71,127
58784,note_off,182,0,0,,12,,,71,127
58788,note_on,4,0,0,,2,,,74,127
58970,note_off,182,0,0,,2,,,74,127
58970,note_off,0,0,0,,4,,,40,127
58974,note_on,4,0,0,,4,,,40,127
58974,note_on,0,0,0,,8,,,80,127
59156,note_off,182,0,0,,8,,,80,127
59160,note_on,4,0,0,,12,,,83,127
59342,note_off,182,0,0,,12,,,83,127
59342,note_off,0,0,0,,4,,,40,127
59346,note_on,4,0,0,,4,,,76,127
59528,note_off,182,0,0,,4,,,76,127
59532,note_on,4,0,0,,8,,,56,127
59532,note_on,0,0,0,,2,,,74,127
59714,note_off,182,0,0,,2,,,74,127
59714,note_off,0,0,0,,8,,,56,127
59718,note_on,4,0,0,,10,,,57,127
59718,note_on,0,0,0,,1,,,73,127
59718,note_on,0,0,0,,10,,,69,127
59900,note_off,182,0,0,,1,,,73,127
59900,note_off,0,0,0,,10,,,57,127
59904,note_on,4,0,0,,2,,,50,127
59904,note_on,0,0,0,,2,,,74,127
60086,note_off,182,0,0,,2,,,74,127
60086,note_off,0,0,0,,2,,,50,127
60086,note_off,0,0,0,,10,,,69,127
60090,note_on,4,0,0,,4,,,52,127
60090,note_on,0,0,0,,10,,,69,127
60090,note_on,0,0,0,,1,,,73,127
60148,note_off,58,0,0,,1,,,73,127
60148,note_off,0,0,0,,10,,,69,127
60152,note_on,4,0,0,,8,,,68,127
60152,note_on,0,0,0,,12,,,71,127
60210,note_off,58,0,0,,12,,,71,127
60210,note_off,0,0,0,,8,,,68,127
60214,note_on,4,0,0,,10,,,69,127
60214,note_on,0,0,0,,1,,,73,127
60272,note_off,58,0,0,,1,,,73,127
60272,note_off,0,0,0,,10,,,69,127
60272,note_off,0,0,0,,4,,,52,127
60276,note_on,4,0,0,,4,,,40,127
60276,note_on,0,0,0,,8,,,68,127
60276,note_on,0,0,0,,12,,,71,127
60334,note_off,58,0,0,,12,,,71,127
60334,note_off,0,0,0,,8,,,68,127
60338,note_on,4,0,0,,10,,,69,127
60338,note_on,0,0,0,,1,,,73,127
60396,note_off,58,0,0,,1,,,73,127
60396,note_off,0,0,0,,10,,,69,127
60400,note_on,4,0,0,,8,,,68,127
60400,note_on,0,0,0,,12,,,71,127
60458,note_off,58,0,0,,12,,,71,127
60458,note_off,0,0,0,,8,,,68,127
60462,note_on,4,0,0,,1,,,73,127
60462,note_on,0,0,0,,10,,,69,127
60644,note_off,182,0,0,,1,,,73,127
60644,note_off,0,0,0,,4,,,40,127
60648,note_on,4,0,0,,4,,,52,127
60648,note_on,0,0,0,,2,,,74,127
60830,note_off,182,0,0,,2,,,74,127
60830,note_off,0,0,0,,4,,,52,127
60830,note_off,0,0,0,,10,,,69,127
60834,note_on,4,0,0,,4,,,40,127
60834,note_on,0,0,0,,10,,,69,127
60834,note_on,0,0,0,,1,,,73,127
60892,note_off,58,0,0,,1,,,73,127
60892,note_off,0,0,0,,10,,,69,127
60896,note_on,4,0,0,,8,,,68,127
60896,note_on,0,0,0,,12,,,71,127
60954,note_off,58,0,0,,12,,,71,127
60954,note_off,0,0,0,,8,,,68,127
60958,note_on,4,0,0,,10,,,69,127
60958,note_on,0,0,0,,1,,,73,127
61016,note_off,58,0,0,,1,,,73,127
61016,note_off,0,0,0,,10,,,69,127
61016,note_off,0,0,0,,4,,,40,127
61020,note_on,4,0,0,,4,,,52,127
61020,note_on,0,0,0,,8,,,68,127
61020,note_on,0,0,0,,12,,,71,127
61078,note_off,58,0,0,,12,,,71,127
61078,note_off,0,0,0,,8,,,68,127
61082,note_on,4,0,0,,10,,,69,127
61082,note_on,0,0,0,,1,,,73,127
61140,note_off,58,0,0,,1,,,73,127
61140,note_off,0,0,0,,10,,,69,127
61144,note_on,4,0,0,,8,,,68,127
61144,note_on,0,0,0,,12,,,71,127
61202,note_off,58,0,0,,12,,,71,127
61202,note_off,0,0,0,,8,,,68,127
61202,note_off,0,0,0,,4,,,52,127
61206,note_on,4,0,0,,10,,,57,127
61206,note_on,0,0,0,,10,,,69,127
61206,note_on,0,0,0,,1,,,73,127
61388,note_off,182,0,0,,1,,,73,127
61388,note_off,0,0,0,,10,,,57,127
61392,note_on,4,0,0,,2,,,50,127
61392,note_on,0,0,0,,2,,,74,127
61574,note_off,182,0,0,,2,,,74,127
61574,note_off,0,0,0,,2,,,50,127
61574,note_off,0,0,0,,10,,,69,127
61578,note_on,4,0,0,,4,,,52,127
61578,note_on,0,0,0,,10,,,69,127
61578,note_on,0,0,0,,1,,,73,127
61636,note_off,58,0,0,,1,,,73,127
61636,note_off,0,0,0,,10,,,69,127
61640,note_on,4,0,0,,8,,,68,127
61640,note_on,0,0,0,,12,,,71,127
61698,note_off,58,0,0,,12,,,71,127
61698,note_off,0,0,0,,8,,,68,127
61702,note_on,4,0,0,,10,,,69,127
61702,note_on,0,0,0,,1,,,73,127
61760,note_off,58,0,0,,1,,,73,127
61760,note_off,0,0,0,,10,,,69,127
61764,note_on,4,0,0,,4,,,40,127
61764,note_on,0,0,0,,8,,,68,127
61764,note_on,0,0,0,,12,,,71,127
61822,note_off,58,0,0,,12,,,71,127
61822,note_off,0,0,0,,8,,,68,127
61826,note_on,4,0,0,,10,,,69,127
61826,note_on,0,0,0,,1,,,73,127
61884,note_off,58,0,0,,1,,,73,127
61884,note_off,0,0,0,,10,,,69,127
61888,note_on,4,0,0,,8,,,68,127
61888,note_on,0,0,0,,12,,,71,127
61946,note_off,58,0,0,,12,,,71,127
61946,note_off,0,0,0,,8,,,68,127
61946,note_off,0,0,0,,4,,,40,127
61946,note_off,0,0,0,,4,,,52,127
61950,note_on,4,0,0,,10,,,45,127
61950,note_on,0,0,0,,10,,,69,127
62043,note_on,93,0,0,,10,,,81,127
62132,note_off,89,0,0,,10,,,81,127
62134,note_off,2,0,0,,10,,,69,127
62136,note_on,2,0,0,,8,,,80,127
62225,note_off,89,0,0,,8,,,80,127
62229,note_on,4,0,0,,6,,,78,127
62318,note_off,89,0,0,,6,,,78,127
62322,note_on,4,0,0,,4,,,76,127
62411,note_off,89,0,0,,4,,,76,127
62415,note_on,4,0,0,,2,,,74,127
62504,note_off,89,0,0,,2,,,74,127
62508,note_on,4,0,0,,1,,,73,127
62597,note_off,89,0,0,,1,,,73,127
62601,note_on,4,0,0,,12,,,71,127
62690,note_off,89,0,0,,12,,,71,127
62694,note_on,4,0,0,,4,,,76,127
62694,note_on,0,0,0,,10,,,69,127
62694,note_on,0,0,0,,1,,,73,127
62783,note_off,89,0,0,,10,,,69,127
62783,note_off,0,0,0,,10,,,45,127
62787,note_on,4,0,0,,10,,,69,127
62876,note_off,89,0,0,,10,,,69,127
62880,note_on,4,0,0,,8,,,68,127
62969,note_off,89,0,0,,8,,,68,127
62973,note_on,4,0,0,,6,,,66,127
63062,note_off,89,0,0,,6,,,66,127
63066,note_on,4,0,0,,4,,,64,127
63155,note_off,89,0,0,,4,,,64,127
63159,note_on,4,0,0,,2,,,62,127
63248,note_off,89,0,0,,2,,,62,127
63252,note_on,4,0,0,,1,,,61,127
63341,note_off,89,0,0,,1,,,61,127
63345,note_on,4,0,0,,12,,,59,127
63434,note_off,89,0,0,,12,,,59,127
63434,note_off,0,0,0,,1,,,73,127
63434,note_off,0,0,0,,4,,,76,127
63438,note_on,4,0,0,,10,,,69,127
63438,note_on,0,0,0,,1,,,73,127
63438,note_on,0,0,0,,4,,,76,127
63531,note_on,93,0,0,,10,,,57,127
63620,note_off,89,0,0,,10,,,57,127
63624,note_on,4,0,0,,8,,,56,127
63713,note_off,89,0,0,,8,,,56,127
63717,note_on,4,0,0,,6,,,54,127
63806,note_off,89,0,0,,6,,,54,127
63810,note_on,4,0,0,,4,,,52,127
63899,note_off,89,0,0,,4,,,52,127
63903,note_on,4,0,0,,2,,,50,127
63992,note_off,89,0,0,,2,,,50,127
63996,note_on,4,0,0,,1,,,49,127
64085,note_off,89,0,0,,1,,,49,127
64089,note_on,4,0,0,,12,,,47,127
64178,note_off,89,0,0,,12,,,47,127
64178,note_off,0,0,0,,4,,,76,127
64178,note_off,0,0,0,,1,,,73,127
64178,note_off,0,0,0,,10,,,69,127
64182,note_on,4,0,0,,10,,,45,127
64182,note_on,0,0,0,,1,,,73,127
64182,note_on,0,0,0,,4,,,76,127
64364,note_off,182,0,0,,4,,,76,127
64364,note_off,0,0,0,,1,,,73,127
64364,note_off,0,0,0,,10,,,45,127
64368,note_on,4,0,0,,2,,,50,127
64368,note_on,0,0,0,,12,,,71,127
64368,note_on,0,0,0,,2,,,74,127
64550,note_off,182,0,0,,2,,,74,127
64550,note_off,0,0,0,,12,,,71,127
64550,note_off,0,0,0,,2,,,50,127
64554,note_on,4,0,0,,4,,,52,127
64554,note_on,0,0,0,,12,,,71,127
64554,note_on,0,0,0,,2,,,74,127
64597,note_off,43,0,0,,2,,,74,127
64597,note_off,0,0,0,,12,,,71,127
64601,note_on,4,0,0,,10,,,69,127
64601,note_on,0,0,0,,1,,,73,127
64644,note_off,43,0,0,,1,,,73,127
64644,note_off,0,0,0,,10,,,69,127
64648,note_on,4,0,0,,12,,,71,127
64648,note_on,0,0,0,,2,,,74,127
64691,note_off,43,0,0,,12,,,71,127
64695,note_on,4,0,0,,10,,,69,127
64695,note_on,0,0,0,,1,,,73,127
64701,note_off,6,0,0,,2,,,74,127
64747,note_off,46,0,0,,1,,,73,127
64747,note_off,0,0,0,,10,,,69,127
64757,note_on,10,0,0,,8,,,68,127
64757,note_on,0,0,0,,12,,,71,127
64757,note_on,0,0,0,,4,,,40,127
64923,note_off,166,0,0,,4,,,52,127
64948,note_off,25,0,0,,4,,,40,127
64948,note_off,0,0,0,,12,,,71,127
64948,note_off,0,0,0,,8,,,68,127
64977,note_on,29,0,0,,10,,,45,127
64977,note_on,0,0,0,,10,,,69,127
66719,note_off,1742,0,0,,10,,,69,127
66719,note_off,0,0,0,,10,,,45,127
72192,end_of_track,5473,1,0,,,,,,
