tick,type,time,meta,track,program,channel,pitch,tempo,note,velocity
0,copyright,0,1,0,,,,,,
0,program_change,0,0,0,6,0,,,,
0,pitchwheel,0,0,0,,0,0,,,
0,program_change,0,0,0,6,1,,,,
0,pitchwheel,0,0,0,,1,-590,,,
0,program_change,0,0,0,6,2,,,,
0,pitchwheel,0,0,0,,2,-272,,,
0,program_change,0,0,0,6,3,,,,
0,pitchwheel,0,0,0,,3,-353,,,
0,program_change,0,0,0,6,4,,,,
0,pitchwheel,0,0,0,,4,-560,,,
0,program_change,0,0,0,6,5,,,,
0,pitchwheel,0,0,0,,5,-80,,,
0,program_change,0,0,0,6,6,,,,
0,pitchwheel,0,0,0,,6,-625,,,
0,program_change,0,0,0,6,7,,,,
0,pitchwheel,0,0,0,,7,-130,,,
0,program_change,0,0,0,6,8,,,,
0,pitchwheel,0,0,0,,8,-512,,,
0,program_change,0,0,0,6,10,,,,
0,pitchwheel,0,0,0,,10,-464,,,
0,program_change,0,0,0,6,11,,,,
0,pitchwheel,0,0,0,,11,-208,,,
0,program_change,0,0,0,6,12,,,,
0,pitchwheel,0,0,0,,12,-553,,,
0,set_tempo,0,1,0,,,,500000,,
105,note_on,105,0,0,,0,,,48,127
314,note_on,209,0,0,,0,,,60,127
523,note_off,209,0,0,,0,,,60,127
523,note_on,0,0,0,,3,,,63,127
732,note_off,209,0,0,,3,,,63,127
732,note_on,0,0,0,,7,,,67,127
941,note_off,209,0,0,,7,,,67,127
941,note_on,0,0,0,,0,,,72,127
1150,note_off,209,0,0,,0,,,72,127
1150,note_on,0,0,0,,3,,,75,127
1359,note_off,209,0,0,,3,,,75,127
1359,note_on,0,0,0,,7,,,79,127
1568,note_off,209,0,0,,7,,,79,127
1568,note_on,0,0,0,,0,,,84,127
1777,note_off,209,0,0,,0,,,84,127
1777,note_on,0,0,0,,7,,,79,127
1986,note_off,209,0,0,,7,,,79,127
1986,note_on,0,0,0,,3,,,75,127
2195,note_off,209,0,0,,3,,,75,127
2195,note_on,0,0,0,,0,,,72,127
2404,note_off,209,0,0,,0,,,72,127
2404,note_on,0,0,0,,7,,,67,127
2613,note_off,209,0,0,,7,,,67,127
2613,note_on,0,0,0,,0,,,60,127
2822,note_off,209,0,0,,0,,,48,127
2822,note_on,0,0,0,,0,,,48,127
3031,note_off,209,0,0,,0,,,48,127
3031,note_on,0,0,0,,3,,,51,127
3240,note_off,209,0,0,,3,,,51,127
3240,note_on,0,0,0,,7,,,55,127
3449,note_off,209,0,0,,7,,,55,127
3449,note_off,0,0,0,,0,,,60,127
3449,note_on,0,0,0,,0,,,60,127
3658,note_off,209,0,0,,0,,,60,127
3658,note_on,0,0,0,,3,,,63,127
3867,note_off,209,0,0,,3,,,63,127
3867,note_on,0,0,0,,7,,,67,127
4076,note_off,209,0,0,,7,,,67,127
4076,note_on,0,0,0,,0,,,72,127
4285,note_off,209,0,0,,0,,,72,127
4285,note_on,0,0,0,,7,,,67,127
4494,note_off,209,0,0,,7,,,67,127
4494,note_on,0,0,0,,3,,,63,127
4703,note_off,209,0,0,,3,,,63,127
4703,note_on,0,0,0,,0,,,60,127
4912,note_off,209,0,0,,0,,,60,127
4912,note_on,0,0,0,,7,,,55,127
5121,note_off,209,0,0,,7,,,55,127
5121,note_on,0,0,0,,0,,,48,127
5226,note_on,105,0,0,,7,,,79,127
5331,note_off,105,0,0,,7,,,79,127
5331,note_on,0,0,0,,10,,,81,127
5436,note_off,105,0,0,,10,,,81,127
5436,note_on,0,0,0,,12,,,83,127
5541,note_off,105,0,0,,12,,,83,127
5541,note_off,0,0,0,,0,,,48,127
5541,note_on,0,0,0,,3,,,75,127
5541,note_on,0,0,0,,7,,,67,127
5541,note_on,0,0,0,,0,,,84,127
5750,note_off,209,0,0,,0,,,84,127
5750,note_off,0,0,0,,7,,,67,127
5750,note_off,0,0,0,,3,,,75,127
5750,note_on,0,0,0,,2,,,74,127
5750,note_on,0,0,0,,12,,,83,127
5959,note_off,209,0,0,,12,,,83,127
5959,note_off,0,0,0,,2,,,74,127
5959,note_on,0,0,0,,3,,,75,127
5959,note_on,0,0,0,,7,,,67,127
5959,note_on,0,0,0,,0,,,84,127
6168,note_off,209,0,0,,0,,,84,127
6168,note_off,0,0,0,,7,,,67,127
6168,note_off,0,0,0,,3,,,75,127
6168,note_on,0,0,0,,2,,,74,127
6168,note_on,0,0,0,,12,,,83,127
6377,note_off,209,0,0,,12,,,83,127
6377,note_off,0,0,0,,2,,,74,127
6377,note_on,0,0,0,,3,,,75,127
6377,note_on,0,0,0,,0,,,84,127
6482,note_on,105,0,0,,7,,,67,127
6587,note_off,105,0,0,,7,,,67,127
6587,note_on,0,0,0,,10,,,69,127
6692,note_off,105,0,0,,10,,,69,127
6692,note_on,0,0,0,,12,,,71,127
6797,note_off,105,0,0,,12,,,71,127
6797,note_off,0,0,0,,0,,,84,127
6797,note_off,0,0,0,,3,,,75,127
6797,note_on,0,0,0,,0,,,72,127
6797,note_on,0,0,0,,3,,,63,127
6797,note_on,0,0,0,,7,,,79,127
7006,note_off,209,0,0,,7,,,79,127
7006,note_off,0,0,0,,3,,,63,127
7006,note_off,0,0,0,,0,,,72,127
7006,note_on,0,0,0,,12,,,71,127
7006,note_on,0,0,0,,2,,,62,127
7215,note_off,209,0,0,,2,,,62,127
7215,note_off,0,0,0,,12,,,71,127
7215,note_on,0,0,0,,0,,,72,127
7215,note_on,0,0,0,,3,,,63,127
7215,note_on,0,0,0,,7,,,79,127
7424,note_off,209,0,0,,7,,,79,127
7424,note_off,0,0,0,,3,,,63,127
7424,note_off,0,0,0,,0,,,72,127
7424,note_on,0,0,0,,12,,,71,127
7424,note_on,0,0,0,,2,,,62,127
7633,note_off,209,0,0,,2,,,62,127
7633,note_off,0,0,0,,12,,,71,127
7633,note_on,0,0,0,,0,,,72,127
7633,note_on,0,0,0,,3,,,63,127
7738,note_on,105,0,0,,7,,,79,127
7843,note_off,105,0,0,,7,,,79,127
7843,note_on,0,0,0,,10,,,81,127
7948,note_off,105,0,0,,10,,,81,127
7948,note_on,0,0,0,,12,,,83,127
8053,note_off,105,0,0,,12,,,83,127
8053,note_off,0,0,0,,3,,,63,127
8053,note_off,0,0,0,,0,,,72,127
8053,note_on,0,0,0,,3,,,75,127
8053,note_on,0,0,0,,7,,,67,127
8053,note_on,0,0,0,,0,,,84,127
8262,note_off,209,0,0,,0,,,84,127
8262,note_off,0,0,0,,7,,,67,127
8262,note_off,0,0,0,,3,,,75,127
8262,note_on,0,0,0,,2,,,74,127
8262,note_on,0,0,0,,12,,,83,127
8471,note_off,209,0,0,,12,,,83,127
8471,note_off,0,0,0,,2,,,74,127
8471,note_on,0,0,0,,3,,,75,127
8471,note_on,0,0,0,,7,,,67,127
8471,note_on,0,0,0,,0,,,84,127
8680,note_off,209,0,0,,0,,,84,127
8680,note_off,0,0,0,,7,,,67,127
8680,note_off,0,0,0,,3,,,75,127
8680,note_on,0,0,0,,2,,,74,127
8680,note_on,0,0,0,,12,,,83,127
8889,note_off,209,0,0,,12,,,83,127
8889,note_off,0,0,0,,2,,,74,127
8889,note_on,0,0,0,,3,,,75,127
8889,note_on,0,0,0,,0,,,84,127
8994,note_off,105,0,0,,3,,,75,127
8994,note_on,0,0,0,,7,,,67,127
9099,note_off,105,0,0,,7,,,67,127
9099,note_on,0,0,0,,10,,,69,127
9204,note_off,105,0,0,,10,,,69,127
9204,note_on,0,0,0,,12,,,71,127
9309,note_off,105,0,0,,12,,,71,127
9309,note_off,0,0,0,,0,,,84,127
9309,note_on,0,0,0,,0,,,72,127
9309,note_on,0,0,0,,3,,,63,127
9309,note_on,0,0,0,,7,,,79,127
9518,note_off,209,0,0,,7,,,79,127
9518,note_off,0,0,0,,3,,,63,127
9518,note_off,0,0,0,,0,,,72,127
9518,note_on,0,0,0,,12,,,71,127
9518,note_on,0,0,0,,2,,,62,127
9727,note_off,209,0,0,,2,,,62,127
9727,note_off,0,0,0,,12,,,71,127
9727,note_on,0,0,0,,0,,,72,127
9727,note_on,0,0,0,,3,,,63,127
9727,note_on,0,0,0,,7,,,79,127
9936,note_off,209,0,0,,7,,,79,127
9936,note_off,0,0,0,,3,,,63,127
9936,note_off,0,0,0,,0,,,72,127
9936,note_on,0,0,0,,12,,,71,127
9936,note_on,0,0,0,,2,,,62,127
10145,note_off,209,0,0,,2,,,62,127
10145,note_off,0,0,0,,12,,,71,127
10145,note_on,0,0,0,,0,,,72,127
10145,note_on,0,0,0,,3,,,63,127
10352,note_off,207,0,0,,0,,,72,127
10354,note_on,2,0,0,,7,,,79,127
10385,note_off,31,0,0,,3,,,63,127
10564,note_off,179,0,0,,7,,,79,127
10564,note_on,0,0,0,,0,,,84,127
10773,note_on,209,0,0,,3,,,75,127
10878,note_off,105,0,0,,0,,,84,127
10878,note_on,0,0,0,,7,,,79,127
10983,note_off,105,0,0,,3,,,75,127
10983,note_on,0,0,0,,5,,,77,127
11088,note_off,105,0,0,,7,,,79,127
11088,note_on,0,0,0,,8,,,80,127
11193,note_off,105,0,0,,5,,,77,127
11193,note_on,0,0,0,,2,,,74,127
11298,note_off,105,0,0,,8,,,80,127
11298,note_on,0,0,0,,5,,,77,127
11403,note_off,105,0,0,,2,,,74,127
11403,note_on,0,0,0,,3,,,75,127
11508,note_off,105,0,0,,5,,,77,127
11508,note_on,0,0,0,,7,,,79,127
11613,note_off,105,0,0,,3,,,75,127
11613,note_on,0,0,0,,12,,,71,127
11718,note_off,105,0,0,,7,,,79,127
11718,note_on,0,0,0,,2,,,74,127
11823,note_off,105,0,0,,12,,,71,127
11823,note_on,0,0,0,,0,,,72,127
11928,note_off,105,0,0,,2,,,74,127
11928,note_on,0,0,0,,3,,,75,127
12033,note_off,105,0,0,,0,,,72,127
12033,note_on,0,0,0,,7,,,67,127
12138,note_off,105,0,0,,3,,,75,127
12138,note_on,0,0,0,,12,,,71,127
12243,note_off,105,0,0,,7,,,67,127
12243,note_on,0,0,0,,8,,,68,127
12348,note_off,105,0,0,,12,,,71,127
12348,note_on,0,0,0,,0,,,72,127
12453,note_off,105,0,0,,8,,,68,127
12453,note_on,0,0,0,,3,,,63,127
12558,note_off,105,0,0,,0,,,72,127
12558,note_on,0,0,0,,7,,,67,127
12663,note_off,105,0,0,,3,,,63,127
12663,note_on,0,0,0,,5,,,65,127
12768,note_off,105,0,0,,7,,,67,127
12768,note_on,0,0,0,,8,,,68,127
12873,note_off,105,0,0,,5,,,65,127
12873,note_on,0,0,0,,2,,,62,127
12978,note_off,105,0,0,,8,,,68,127
12978,note_on,0,0,0,,5,,,65,127
13083,note_off,105,0,0,,2,,,62,127
13083,note_on,0,0,0,,3,,,63,127
13188,note_off,105,0,0,,5,,,65,127
13188,note_on,0,0,0,,7,,,67,127
13293,note_off,105,0,0,,3,,,63,127
13293,note_on,0,0,0,,12,,,59,127
13398,note_off,105,0,0,,7,,,67,127
13398,note_on,0,0,0,,2,,,62,127
13503,note_off,105,0,0,,12,,,59,127
13503,note_on,0,0,0,,0,,,60,127
13608,note_off,105,0,0,,2,,,62,127
13608,note_on,0,0,0,,3,,,63,127
13713,note_off,105,0,0,,0,,,60,127
13713,note_on,0,0,0,,7,,,55,127
13818,note_off,105,0,0,,3,,,63,127
13818,note_on,0,0,0,,5,,,65,127
13923,note_off,105,0,0,,5,,,65,127
13923,note_off,0,0,0,,7,,,55,127
13923,note_on,0,0,0,,7,,,43,127
14028,note_on,105,0,0,,2,,,62,127
14133,note_off,105,0,0,,2,,,62,127
14133,note_on,0,0,0,,4,,,64,127
14238,note_off,105,0,0,,4,,,64,127
14238,note_on,0,0,0,,6,,,66,127
14343,note_off,105,0,0,,6,,,66,127
14343,note_off,0,0,0,,7,,,43,127
14343,note_on,0,0,0,,12,,,59,127
14343,note_on,0,0,0,,2,,,50,127
14343,note_on,0,0,0,,7,,,67,127
14552,note_off,209,0,0,,7,,,67,127
14552,note_off,0,0,0,,2,,,50,127
14552,note_off,0,0,0,,12,,,59,127
14552,note_on,0,0,0,,10,,,57,127
14552,note_on,0,0,0,,6,,,66,127
14761,note_off,209,0,0,,6,,,66,127
14761,note_off,0,0,0,,10,,,57,127
14761,note_on,0,0,0,,12,,,59,127
14761,note_on,0,0,0,,2,,,50,127
14761,note_on,0,0,0,,7,,,67,127
14970,note_off,209,0,0,,7,,,67,127
14970,note_off,0,0,0,,2,,,50,127
14970,note_off,0,0,0,,12,,,59,127
14970,note_on,0,0,0,,10,,,57,127
14970,note_on,0,0,0,,6,,,66,127
15179,note_off,209,0,0,,6,,,66,127
15179,note_on,0,0,0,,7,,,67,127
15284,note_off,105,0,0,,10,,,57,127
15284,note_on,0,0,0,,2,,,50,127
15389,note_off,105,0,0,,2,,,50,127
15389,note_on,0,0,0,,4,,,52,127
15494,note_off,105,0,0,,4,,,52,127
15494,note_on,0,0,0,,6,,,54,127
15599,note_off,105,0,0,,6,,,54,127
15599,note_off,0,0,0,,7,,,67,127
15599,note_on,0,0,0,,7,,,55,127
15599,note_on,0,0,0,,12,,,47,127
15599,note_on,0,0,0,,2,,,62,127
15808,note_off,209,0,0,,2,,,62,127
15808,note_off,0,0,0,,12,,,47,127
15808,note_off,0,0,0,,7,,,55,127
15808,note_on,0,0,0,,6,,,54,127
15808,note_on,0,0,0,,10,,,45,127
16017,note_off,209,0,0,,10,,,45,127
16017,note_off,0,0,0,,6,,,54,127
16017,note_on,0,0,0,,7,,,55,127
16017,note_on,0,0,0,,12,,,47,127
16017,note_on,0,0,0,,2,,,62,127
16226,note_off,209,0,0,,2,,,62,127
16226,note_off,0,0,0,,12,,,47,127
16226,note_off,0,0,0,,7,,,55,127
16226,note_on,0,0,0,,6,,,54,127
16226,note_on,0,0,0,,10,,,45,127
16435,note_off,209,0,0,,10,,,45,127
16435,note_off,0,0,0,,6,,,54,127
16435,note_on,0,0,0,,7,,,55,127
16435,note_on,0,0,0,,12,,,47,127
16643,note_off,208,0,0,,12,,,47,127
16644,note_off,1,0,0,,7,,,55,127
16644,note_on,0,0,0,,11,,,70,127
16644,note_on,0,0,0,,7,,,79,127
16853,note_off,209,0,0,,7,,,79,127
16853,note_off,0,0,0,,11,,,70,127
16853,note_on,0,0,0,,8,,,68,127
16853,note_on,0,0,0,,0,,,60,127
16853,note_on,0,0,0,,5,,,77,127
17062,note_off,209,0,0,,5,,,77,127
17062,note_off,0,0,0,,0,,,60,127
17062,note_off,0,0,0,,8,,,68,127
17062,note_on,0,0,0,,7,,,67,127
17062,note_on,0,0,0,,4,,,76,127
17271,note_off,209,0,0,,4,,,76,127
17271,note_off,0,0,0,,7,,,67,127
17271,note_on,0,0,0,,8,,,68,127
17271,note_on,0,0,0,,0,,,60,127
17271,note_on,0,0,0,,5,,,77,127
17480,note_off,209,0,0,,5,,,77,127
17480,note_off,0,0,0,,0,,,60,127
17480,note_off,0,0,0,,8,,,68,127
17480,note_on,0,0,0,,7,,,67,127
17480,note_on,0,0,0,,4,,,76,127
17689,note_off,209,0,0,,4,,,76,127
17689,note_off,0,0,0,,7,,,67,127
17689,note_on,0,0,0,,8,,,68,127
17689,note_on,0,0,0,,5,,,77,127
17794,note_off,105,0,0,,8,,,68,127
17794,note_on,0,0,0,,0,,,60,127
17899,note_off,105,0,0,,0,,,60,127
17899,note_on,0,0,0,,2,,,62,127
18004,note_off,105,0,0,,2,,,62,127
18004,note_on,0,0,0,,4,,,64,127
18109,note_off,105,0,0,,4,,,64,127
18109,note_off,0,0,0,,5,,,77,127
18109,note_on,0,0,0,,5,,,65,127
18109,note_on,0,0,0,,8,,,56,127
18109,note_on,0,0,0,,0,,,72,127
18318,note_off,209,0,0,,0,,,72,127
18318,note_off,0,0,0,,8,,,56,127
18318,note_off,0,0,0,,5,,,65,127
18318,note_on,0,0,0,,4,,,64,127
18318,note_on,0,0,0,,7,,,55,127
18527,note_off,209,0,0,,7,,,55,127
18527,note_off,0,0,0,,4,,,64,127
18527,note_on,0,0,0,,5,,,65,127
18527,note_on,0,0,0,,8,,,56,127
18527,note_on,0,0,0,,0,,,72,127
18736,note_off,209,0,0,,0,,,72,127
18736,note_off,0,0,0,,8,,,56,127
18736,note_off,0,0,0,,5,,,65,127
18736,note_on,0,0,0,,4,,,64,127
18736,note_on,0,0,0,,7,,,55,127
18945,note_off,209,0,0,,7,,,55,127
18945,note_off,0,0,0,,4,,,64,127
18945,note_on,0,0,0,,5,,,65,127
18945,note_on,0,0,0,,8,,,56,127
19154,note_off,209,0,0,,5,,,65,127
19154,note_on,0,0,0,,8,,,68,127
19154,note_on,0,0,0,,5,,,77,127
19363,note_off,209,0,0,,5,,,77,127
19363,note_off,0,0,0,,8,,,68,127
19363,note_off,0,0,0,,8,,,56,127
19363,note_on,0,0,0,,7,,,67,127
19363,note_on,0,0,0,,11,,,58,127
19363,note_on,0,0,0,,3,,,75,127
19572,note_off,209,0,0,,3,,,75,127
19572,note_off,0,0,0,,11,,,58,127
19572,note_off,0,0,0,,7,,,67,127
19572,note_on,0,0,0,,5,,,65,127
19572,note_on,0,0,0,,2,,,74,127
19781,note_off,209,0,0,,2,,,74,127
19781,note_off,0,0,0,,5,,,65,127
19781,note_on,0,0,0,,7,,,67,127
19781,note_on,0,0,0,,11,,,58,127
19781,note_on,0,0,0,,3,,,75,127
19990,note_off,209,0,0,,3,,,75,127
19990,note_off,0,0,0,,11,,,58,127
19990,note_off,0,0,0,,7,,,67,127
19990,note_on,0,0,0,,5,,,65,127
19990,note_on,0,0,0,,2,,,74,127
20199,note_off,209,0,0,,2,,,74,127
20199,note_off,0,0,0,,5,,,65,127
20199,note_on,0,0,0,,7,,,67,127
20199,note_on,0,0,0,,3,,,75,127
20304,note_off,105,0,0,,7,,,67,127
20304,note_on,0,0,0,,11,,,58,127
20409,note_off,105,0,0,,11,,,58,127
20409,note_on,0,0,0,,0,,,60,127
20514,note_off,105,0,0,,0,,,60,127
20514,note_on,0,0,0,,2,,,62,127
20619,note_off,105,0,0,,2,,,62,127
20619,note_off,0,0,0,,3,,,75,127
20619,note_on,0,0,0,,3,,,63,127
20619,note_on,0,0,0,,7,,,55,127
20619,note_on,0,0,0,,11,,,70,127
20828,note_off,209,0,0,,11,,,70,127
20828,note_off,0,0,0,,7,,,55,127
20828,note_off,0,0,0,,3,,,63,127
20828,note_on,0,0,0,,2,,,62,127
20828,note_on,0,0,0,,5,,,53,127
21037,note_off,209,0,0,,5,,,53,127
21037,note_off,0,0,0,,2,,,62,127
21037,note_on,0,0,0,,3,,,63,127
21037,note_on,0,0,0,,7,,,55,127
21037,note_on,0,0,0,,11,,,70,127
21246,note_off,209,0,0,,11,,,70,127
21246,note_off,0,0,0,,7,,,55,127
21246,note_off,0,0,0,,3,,,63,127
21246,note_on,0,0,0,,2,,,62,127
21246,note_on,0,0,0,,5,,,53,127
21455,note_off,209,0,0,,5,,,53,127
21455,note_off,0,0,0,,2,,,62,127
21455,note_on,0,0,0,,3,,,63,127
21455,note_on,0,0,0,,7,,,55,127
21664,note_off,209,0,0,,3,,,63,127
21664,note_on,0,0,0,,7,,,67,127
21664,note_on,0,0,0,,3,,,75,127
21873,note_off,209,0,0,,3,,,75,127
21873,note_off,0,0,0,,7,,,67,127
21873,note_off,0,0,0,,7,,,55,127
21873,note_on,0,0,0,,7,,,67,127
21873,note_on,0,0,0,,5,,,41,127
21873,note_on,0,0,0,,5,,,53,127
21873,note_on,0,0,0,,3,,,75,127
22082,note_off,209,0,0,,3,,,75,127
22082,note_off,0,0,0,,7,,,67,127
22082,note_on,0,0,0,,5,,,65,127
22082,note_on,0,0,0,,2,,,74,127
22291,note_off,209,0,0,,2,,,74,127
22291,note_off,0,0,0,,5,,,65,127
22291,note_off,0,0,0,,5,,,53,127
22291,note_off,0,0,0,,5,,,41,127
22291,note_on,0,0,0,,5,,,65,127
22291,note_on,0,0,0,,6,,,54,127
22291,note_on,0,0,0,,6,,,42,127
22291,note_on,0,0,0,,2,,,74,127
22500,note_off,209,0,0,,2,,,74,127
22500,note_off,0,0,0,,5,,,65,127
22500,note_on,0,0,0,,3,,,63,127
22500,note_on,0,0,0,,0,,,72,127
22709,note_off,209,0,0,,0,,,72,127
22709,note_off,0,0,0,,3,,,63,127
22709,note_off,0,0,0,,6,,,42,127
22709,note_off,0,0,0,,6,,,54,127
22709,note_on,0,0,0,,3,,,63,127
22709,note_on,0,0,0,,7,,,43,127
22709,note_on,0,0,0,,7,,,55,127
22709,note_on,0,0,0,,0,,,72,127
22918,note_off,209,0,0,,0,,,72,127
22918,note_off,0,0,0,,3,,,63,127
22918,note_on,0,0,0,,2,,,62,127
22918,note_on,0,0,0,,12,,,71,127
23127,note_off,209,0,0,,12,,,71,127
23127,note_off,0,0,0,,2,,,62,127
23127,note_on,0,0,0,,2,,,62,127
23127,note_on,0,0,0,,12,,,71,127
23336,note_off,209,0,0,,12,,,71,127
23336,note_off,0,0,0,,2,,,62,127
23336,note_on,0,0,0,,3,,,63,127
23336,note_on,0,0,0,,0,,,72,127
23545,note_off,209,0,0,,0,,,72,127
23545,note_off,0,0,0,,3,,,63,127
23545,note_on,0,0,0,,3,,,63,127
23545,note_on,0,0,0,,0,,,72,127
23754,note_off,209,0,0,,0,,,72,127
23754,note_off,0,0,0,,3,,,63,127
23754,note_on,0,0,0,,5,,,65,127
23754,note_on,0,0,0,,2,,,74,127
23963,note_off,209,0,0,,2,,,74,127
23963,note_off,0,0,0,,5,,,65,127
23963,note_off,0,0,0,,7,,,55,127
23963,note_off,0,0,0,,7,,,43,127
23963,note_on,0,0,0,,5,,,65,127
23963,note_on,0,0,0,,7,,,43,127
23963,note_on,0,0,0,,7,,,55,127
23963,note_on,0,0,0,,2,,,74,127
24172,note_off,209,0,0,,2,,,74,127
24172,note_off,0,0,0,,5,,,65,127
24172,note_on,0,0,0,,7,,,67,127
24172,note_on,0,0,0,,3,,,75,127
24381,note_off,209,0,0,,3,,,75,127
24381,note_off,0,0,0,,7,,,67,127
24381,note_on,0,0,0,,7,,,67,127
24381,note_on,0,0,0,,3,,,75,127
24590,note_off,209,0,0,,3,,,75,127
24590,note_off,0,0,0,,7,,,67,127
24590,note_on,0,0,0,,10,,,69,127
24590,note_on,0,0,0,,5,,,77,127
24799,note_off,209,0,0,,5,,,77,127
24799,note_off,0,0,0,,10,,,69,127
24799,note_on,0,0,0,,10,,,69,127
24799,note_on,0,0,0,,5,,,77,127
25008,note_off,209,0,0,,5,,,77,127
25008,note_off,0,0,0,,10,,,69,127
25008,note_on,0,0,0,,12,,,71,127
25008,note_on,0,0,0,,2,,,74,127
25217,note_off,209,0,0,,2,,,74,127
25217,note_off,0,0,0,,12,,,71,127
25217,note_off,0,0,0,,7,,,55,127
25217,note_off,0,0,0,,7,,,43,127
25217,note_on,0,0,0,,12,,,71,127
25217,note_on,0,0,0,,7,,,43,127
25217,note_on,0,0,0,,7,,,55,127
25217,note_on,0,0,0,,2,,,74,127
25426,note_off,209,0,0,,2,,,74,127
25426,note_off,0,0,0,,12,,,71,127
25426,note_on,0,0,0,,0,,,72,127
25426,note_on,0,0,0,,3,,,75,127
25635,note_off,209,0,0,,3,,,75,127
25635,note_off,0,0,0,,0,,,72,127
25635,note_on,0,0,0,,0,,,72,127
25635,note_on,0,0,0,,3,,,75,127
25844,note_off,209,0,0,,3,,,75,127
25844,note_off,0,0,0,,0,,,72,127
25844,note_on,0,0,0,,2,,,74,127
25844,note_on,0,0,0,,5,,,77,127
26053,note_off,209,0,0,,5,,,77,127
26053,note_off,0,0,0,,2,,,74,127
26053,note_on,0,0,0,,2,,,74,127
26053,note_on,0,0,0,,5,,,77,127
26262,note_off,209,0,0,,5,,,77,127
26262,note_off,0,0,0,,2,,,74,127
26262,note_on,0,0,0,,3,,,75,127
26262,note_on,0,0,0,,7,,,79,127
26471,note_off,209,0,0,,7,,,79,127
26471,note_off,0,0,0,,3,,,75,127
26471,note_off,0,0,0,,7,,,55,127
26471,note_off,0,0,0,,7,,,43,127
26471,note_on,0,0,0,,3,,,75,127
26471,note_on,0,0,0,,7,,,43,127
26471,note_on,0,0,0,,7,,,55,127
26471,note_on,0,0,0,,7,,,79,127
26680,note_off,209,0,0,,7,,,79,127
26680,note_off,0,0,0,,3,,,75,127
26680,note_on,0,0,0,,2,,,74,127
26680,note_on,0,0,0,,5,,,77,127
26889,note_off,209,0,0,,5,,,77,127
26889,note_off,0,0,0,,2,,,74,127
26889,note_on,0,0,0,,2,,,74,127
26889,note_on,0,0,0,,5,,,77,127
27098,note_off,209,0,0,,5,,,77,127
27098,note_off,0,0,0,,2,,,74,127
27098,note_on,0,0,0,,0,,,72,127
27098,note_on,0,0,0,,3,,,75,127
27307,note_off,209,0,0,,3,,,75,127
27307,note_off,0,0,0,,0,,,72,127
27307,note_on,0,0,0,,0,,,72,127
27307,note_on,0,0,0,,3,,,75,127
27516,note_off,209,0,0,,3,,,75,127
27516,note_off,0,0,0,,0,,,72,127
27516,note_on,0,0,0,,12,,,71,127
27516,note_on,0,0,0,,2,,,74,127
27621,note_off,105,0,0,,2,,,74,127
27621,note_off,0,0,0,,12,,,71,127
27621,note_on,0,0,0,,10,,,69,127
27621,note_on,0,0,0,,0,,,72,127
27726,note_off,105,0,0,,0,,,72,127
27726,note_off,0,0,0,,10,,,69,127
27726,note_off,0,0,0,,7,,,55,127
27726,note_off,0,0,0,,7,,,43,127
27726,note_on,0,0,0,,12,,,71,127
27726,note_on,0,0,0,,7,,,43,127
27726,note_on,0,0,0,,7,,,55,127
27726,note_on,0,0,0,,2,,,74,127
27935,note_off,209,0,0,,2,,,74,127
27935,note_on,0,0,0,,7,,,79,127
28144,note_off,209,0,0,,7,,,79,127
28144,note_off,0,0,0,,12,,,71,127
28144,note_on,0,0,0,,8,,,80,127
28144,note_on,0,0,0,,0,,,84,127
28353,note_off,209,0,0,,8,,,80,127
28353,note_on,0,0,0,,6,,,78,127
28562,note_off,209,0,0,,6,,,78,127
28562,note_off,0,0,0,,0,,,84,127
28562,note_on,0,0,0,,7,,,79,127
28562,note_on,0,0,0,,12,,,83,127
28771,note_off,209,0,0,,7,,,79,127
28771,note_on,0,0,0,,2,,,74,127
28980,note_off,209,0,0,,2,,,74,127
28980,note_off,0,0,0,,12,,,83,127
28980,note_off,0,0,0,,7,,,55,127
28980,note_off,0,0,0,,7,,,43,127
28980,note_on,0,0,0,,3,,,75,127
28980,note_on,0,0,0,,7,,,43,127
28980,note_on,0,0,0,,7,,,55,127
28980,note_on,0,0,0,,0,,,84,127
29189,note_off,209,0,0,,3,,,75,127
29189,note_on,0,0,0,,0,,,72,127
29398,note_off,209,0,0,,0,,,72,127
29398,note_off,0,0,0,,0,,,84,127
29398,note_on,0,0,0,,5,,,77,127
29398,note_on,0,0,0,,8,,,80,127
29607,note_off,209,0,0,,5,,,77,127
29607,note_on,0,0,0,,2,,,74,127
29816,note_off,209,0,0,,2,,,74,127
29816,note_off,0,0,0,,8,,,80,127
29816,note_on,0,0,0,,3,,,75,127
29816,note_on,0,0,0,,7,,,79,127
30025,note_off,209,0,0,,3,,,75,127
30025,note_on,0,0,0,,0,,,72,127
30234,note_off,209,0,0,,0,,,72,127
30234,note_off,0,0,0,,7,,,79,127
30234,note_off,0,0,0,,7,,,55,127
30234,note_off,0,0,0,,7,,,43,127
30234,note_on,0,0,0,,1,,,73,127
30234,note_on,0,0,0,,7,,,43,127
30234,note_on,0,0,0,,7,,,55,127
30234,note_on,0,0,0,,5,,,77,127
30443,note_off,209,0,0,,1,,,73,127
30443,note_on,0,0,0,,12,,,71,127
30652,note_off,209,0,0,,12,,,71,127
30652,note_off,0,0,0,,5,,,77,127
30652,note_on,0,0,0,,0,,,72,127
30652,note_on,0,0,0,,3,,,75,127
30861,note_off,209,0,0,,0,,,72,127
30861,note_on,0,0,0,,7,,,67,127
31070,note_off,209,0,0,,7,,,67,127
31070,note_off,0,0,0,,3,,,75,127
31070,note_on,0,0,0,,8,,,68,127
31070,note_on,0,0,0,,0,,,72,127
31279,note_off,209,0,0,,8,,,68,127
31279,note_on,0,0,0,,6,,,66,127
31488,note_off,209,0,0,,6,,,66,127
31488,note_off,0,0,0,,0,,,72,127
31488,note_off,0,0,0,,7,,,55,127
31488,note_off,0,0,0,,7,,,43,127
31488,note_on,0,0,0,,7,,,67,127
31488,note_on,0,0,0,,7,,,55,127
31488,note_on,0,0,0,,7,,,43,127
31488,note_on,0,0,0,,12,,,71,127
31697,note_off,209,0,0,,7,,,67,127
31697,note_on,0,0,0,,2,,,62,127
31906,note_off,209,0,0,,2,,,62,127
31906,note_off,0,0,0,,12,,,71,127
31906,note_on,0,0,0,,3,,,63,127
31906,note_on,0,0,0,,0,,,72,127
32115,note_off,209,0,0,,3,,,63,127
32115,note_on,0,0,0,,0,,,60,127
32324,note_off,209,0,0,,0,,,60,127
32324,note_off,0,0,0,,0,,,72,127
32324,note_on,0,0,0,,5,,,65,127
32324,note_on,0,0,0,,8,,,68,127
32533,note_off,209,0,0,,5,,,65,127
32533,note_on,0,0,0,,2,,,62,127
32742,note_off,209,0,0,,2,,,62,127
32742,note_off,0,0,0,,8,,,68,127
32742,note_off,0,0,0,,7,,,43,127
32742,note_off,0,0,0,,7,,,55,127
32742,note_on,0,0,0,,3,,,63,127
32742,note_on,0,0,0,,7,,,43,127
32742,note_on,0,0,0,,7,,,55,127
32742,note_on,0,0,0,,7,,,67,127
32951,note_off,209,0,0,,3,,,63,127
32951,note_on,0,0,0,,0,,,60,127
33160,note_off,209,0,0,,0,,,60,127
33160,note_off,0,0,0,,7,,,67,127
33160,note_on,0,0,0,,1,,,61,127
33160,note_on,0,0,0,,5,,,65,127
33369,note_off,209,0,0,,1,,,61,127
33369,note_on,0,0,0,,12,,,59,127
33578,note_off,209,0,0,,12,,,59,127
33578,note_off,0,0,0,,5,,,65,127
33578,note_on,0,0,0,,0,,,60,127
33578,note_on,0,0,0,,3,,,63,127
33787,note_off,209,0,0,,3,,,63,127
33787,note_off,0,0,0,,0,,,60,127
33787,note_on,0,0,0,,12,,,59,127
33787,note_on,0,0,0,,2,,,62,127
33892,note_off,105,0,0,,2,,,62,127
33892,note_off,0,0,0,,12,,,59,127
33892,note_on,0,0,0,,10,,,57,127
33892,note_on,0,0,0,,0,,,60,127
33997,note_off,105,0,0,,0,,,60,127
33997,note_off,0,0,0,,10,,,57,127
33997,note_off,0,0,0,,7,,,55,127
33997,note_off,0,0,0,,7,,,43,127
33997,note_on,0,0,0,,12,,,59,127
33997,note_on,0,0,0,,2,,,62,127
34102,note_on,105,0,0,,7,,,43,127
34207,note_off,105,0,0,,7,,,43,127
34207,note_on,0,0,0,,10,,,45,127
34312,note_off,105,0,0,,10,,,45,127
34312,note_on,0,0,0,,12,,,47,127
34417,note_off,105,0,0,,12,,,47,127
34417,note_off,0,0,0,,2,,,62,127
34417,note_off,0,0,0,,12,,,59,127
34417,note_on,0,0,0,,0,,,48,127
34522,note_off,105,0,0,,0,,,48,127
34522,note_on,0,0,0,,2,,,50,127
34627,note_off,105,0,0,,2,,,50,127
34627,note_on,0,0,0,,3,,,51,127
34732,note_off,105,0,0,,3,,,51,127
34732,note_on,0,0,0,,5,,,53,127
34837,note_off,105,0,0,,5,,,53,127
34837,note_on,0,0,0,,7,,,55,127
34942,note_on,105,0,0,,10,,,57,127
35047,note_off,105,0,0,,10,,,57,127
35047,note_on,0,0,0,,12,,,59,127
35152,note_off,105,0,0,,12,,,59,127
35152,note_on,0,0,0,,0,,,60,127
35257,note_off,105,0,0,,0,,,60,127
35257,note_off,0,0,0,,7,,,55,127
35257,note_on,0,0,0,,2,,,62,127
35466,note_on,209,0,0,,4,,,64,127
35571,note_off,105,0,0,,4,,,64,127
35571,note_on,0,0,0,,6,,,66,127
35676,note_off,105,0,0,,6,,,66,127
35676,note_off,0,0,0,,2,,,62,127
35676,note_on,0,0,0,,7,,,67,127
35781,note_on,105,0,0,,10,,,69,127
35886,note_off,105,0,0,,10,,,69,127
35886,note_on,0,0,0,,12,,,71,127
35991,note_off,105,0,0,,12,,,71,127
35991,note_on,0,0,0,,0,,,72,127
36096,note_off,105,0,0,,0,,,72,127
36096,note_off,0,0,0,,7,,,67,127
36096,note_on,0,0,0,,2,,,74,127
36305,note_on,209,0,0,,4,,,76,127
36410,note_off,105,0,0,,4,,,76,127
36410,note_on,0,0,0,,6,,,78,127
36515,note_off,105,0,0,,6,,,78,127
36515,note_off,0,0,0,,2,,,74,127
36515,note_on,0,0,0,,7,,,79,127
36620,note_off,105,0,0,,7,,,79,127
36620,note_on,0,0,0,,7,,,79,127
36725,note_on,105,0,0,,2,,,74,127
36830,note_off,105,0,0,,2,,,74,127
36830,note_off,0,0,0,,7,,,79,127
36830,note_on,0,0,0,,2,,,74,127
36935,note_on,105,0,0,,12,,,71,127
37040,note_off,105,0,0,,12,,,71,127
37040,note_off,0,0,0,,2,,,74,127
37040,note_on,0,0,0,,12,,,71,127
37145,note_on,105,0,0,,7,,,67,127
37250,note_off,105,0,0,,7,,,67,127
37250,note_off,0,0,0,,12,,,71,127
37250,note_on,0,0,0,,7,,,67,127
37355,note_on,105,0,0,,2,,,62,127
37460,note_off,105,0,0,,2,,,62,127
37460,note_off,0,0,0,,7,,,67,127
37460,note_on,0,0,0,,2,,,62,127
37565,note_on,105,0,0,,12,,,59,127
37670,note_off,105,0,0,,12,,,59,127
37670,note_off,0,0,0,,2,,,62,127
37670,note_on,0,0,0,,12,,,59,127
37775,note_off,105,0,0,,12,,,59,127
37775,note_on,0,0,0,,7,,,55,127
38194,note_off,419,0,0,,7,,,55,127
38194,note_on,0,0,0,,7,,,55,127
38403,note_off,209,0,0,,7,,,55,127
38403,note_on,0,0,0,,2,,,50,127
38612,note_off,209,0,0,,2,,,50,127
38612,note_on,0,0,0,,12,,,47,127
38821,note_off,209,0,0,,12,,,47,127
38821,note_on,0,0,0,,2,,,50,127
39030,note_off,209,0,0,,2,,,50,127
39030,note_on,0,0,0,,7,,,43,127
39239,note_on,209,0,0,,12,,,59,127
39448,note_off,209,0,0,,12,,,59,127
39448,note_on,0,0,0,,2,,,62,127
39657,note_off,209,0,0,,2,,,62,127
39657,note_on,0,0,0,,2,,,62,127
39866,note_off,209,0,0,,2,,,62,127
39866,note_on,0,0,0,,7,,,67,127
40075,note_off,209,0,0,,7,,,67,127
40075,note_on,0,0,0,,12,,,71,127
40284,note_off,209,0,0,,12,,,71,127
40284,note_on,0,0,0,,2,,,74,127
40493,note_off,209,0,0,,7,,,43,127
40493,note_on,0,0,0,,7,,,43,127
40702,note_off,209,0,0,,7,,,43,127
40702,note_on,0,0,0,,12,,,47,127
40911,note_off,209,0,0,,12,,,47,127
40911,note_on,0,0,0,,2,,,50,127
41120,note_off,209,0,0,,2,,,50,127
41120,note_on,0,0,0,,7,,,55,127
41329,note_off,209,0,0,,7,,,55,127
41329,note_on,0,0,0,,12,,,59,127
41538,note_off,209,0,0,,12,,,59,127
41538,note_on,0,0,0,,2,,,62,127
41747,note_off,209,0,0,,2,,,74,127
41747,note_on,0,0,0,,6,,,66,127
41747,note_on,0,0,0,,2,,,74,127
41956,note_off,209,0,0,,2,,,74,127
41956,note_off,0,0,0,,6,,,66,127
41956,note_off,0,0,0,,2,,,62,127
41956,note_on,0,0,0,,6,,,66,127
41956,note_on,0,0,0,,2,,,74,127
42165,note_off,209,0,0,,2,,,74,127
42165,note_off,0,0,0,,6,,,66,127
42165,note_on,0,0,0,,4,,,64,127
42165,note_on,0,0,0,,0,,,72,127
42374,note_off,209,0,0,,0,,,72,127
42374,note_off,0,0,0,,4,,,64,127
42374,note_on,0,0,0,,4,,,64,127
42374,note_on,0,0,0,,0,,,72,127
42583,note_off,209,0,0,,0,,,72,127
42583,note_off,0,0,0,,4,,,64,127
42583,note_on,0,0,0,,2,,,62,127
42583,note_on,0,0,0,,11,,,70,127
42792,note_off,209,0,0,,11,,,70,127
42792,note_off,0,0,0,,2,,,62,127
42792,note_on,0,0,0,,2,,,62,127
42792,note_on,0,0,0,,11,,,70,127
43001,note_off,209,0,0,,11,,,70,127
43001,note_off,0,0,0,,2,,,62,127
43001,note_on,0,0,0,,0,,,60,127
43001,note_on,0,0,0,,10,,,69,127
43210,note_off,209,0,0,,10,,,69,127
43210,note_off,0,0,0,,0,,,60,127
43210,note_on,0,0,0,,0,,,60,127
43210,note_on,0,0,0,,10,,,69,127
43419,note_off,209,0,0,,10,,,69,127
43419,note_off,0,0,0,,0,,,60,127
43419,note_on,0,0,0,,11,,,58,127
43419,note_on,0,0,0,,7,,,67,127
43628,note_off,209,0,0,,7,,,67,127
43628,note_off,0,0,0,,11,,,58,127
43628,note_on,0,0,0,,11,,,58,127
43628,note_on,0,0,0,,7,,,67,127
43837,note_off,209,0,0,,7,,,67,127
43837,note_off,0,0,0,,11,,,58,127
43837,note_on,0,0,0,,10,,,57,127
43837,note_on,0,0,0,,6,,,66,127
44046,note_off,209,0,0,,6,,,66,127
44046,note_off,0,0,0,,10,,,57,127
44046,note_on,0,0,0,,10,,,57,127
44046,note_on,0,0,0,,6,,,66,127
44255,note_off,209,0,0,,6,,,66,127
44255,note_off,0,0,0,,10,,,57,127
44255,note_on,0,0,0,,7,,,67,127
44255,note_on,0,0,0,,11,,,58,127
44464,note_off,209,0,0,,11,,,58,127
44464,note_off,0,0,0,,7,,,67,127
44464,note_on,0,0,0,,7,,,67,127
44464,note_on,0,0,0,,11,,,58,127
44673,note_off,209,0,0,,11,,,58,127
44673,note_off,0,0,0,,7,,,67,127
44673,note_on,0,0,0,,5,,,65,127
44673,note_on,0,0,0,,10,,,57,127
44882,note_off,209,0,0,,10,,,57,127
44882,note_off,0,0,0,,5,,,65,127
44882,note_on,0,0,0,,5,,,65,127
44882,note_on,0,0,0,,10,,,57,127
45091,note_off,209,0,0,,10,,,57,127
45091,note_off,0,0,0,,5,,,65,127
45091,note_on,0,0,0,,3,,,63,127
45091,note_on,0,0,0,,7,,,55,127
45300,note_off,209,0,0,,7,,,55,127
45300,note_off,0,0,0,,3,,,63,127
45300,note_on,0,0,0,,3,,,63,127
45300,note_on,0,0,0,,7,,,55,127
45509,note_off,209,0,0,,7,,,55,127
45509,note_off,0,0,0,,3,,,63,127
45509,note_on,0,0,0,,2,,,62,127
45509,note_on,0,0,0,,6,,,54,127
45718,note_off,209,0,0,,6,,,54,127
45718,note_off,0,0,0,,2,,,62,127
45718,note_on,0,0,0,,2,,,62,127
45718,note_on,0,0,0,,6,,,54,127
45927,note_off,209,0,0,,6,,,54,127
45927,note_off,0,0,0,,2,,,62,127
45927,note_on,0,0,0,,1,,,61,127
45927,note_on,0,0,0,,4,,,52,127
46136,note_off,209,0,0,,4,,,52,127
46136,note_off,0,0,0,,1,,,61,127
46136,note_on,0,0,0,,1,,,61,127
46136,note_on,0,0,0,,4,,,52,127
46345,note_off,209,0,0,,4,,,52,127
46345,note_off,0,0,0,,1,,,61,127
46345,note_on,0,0,0,,2,,,62,127
46345,note_on,0,0,0,,2,,,50,127
46554,note_off,209,0,0,,2,,,50,127
46554,note_off,0,0,0,,2,,,62,127
46554,note_on,0,0,0,,2,,,62,127
46554,note_on,0,0,0,,2,,,50,127
46763,note_on,209,0,0,,2,,,74,127
46815,note_off,52,0,0,,2,,,62,127
46968,note_off,153,0,0,,2,,,50,127
46972,note_off,4,0,0,,2,,,74,127
46972,note_on,0,0,0,,3,,,75,127
47181,note_on,209,0,0,,10,,,69,127
47286,note_off,105,0,0,,3,,,75,127
47286,note_on,0,0,0,,0,,,72,127
47391,note_off,105,0,0,,10,,,69,127
47391,note_on,0,0,0,,11,,,70,127
47496,note_off,105,0,0,,0,,,72,127
47496,note_on,0,0,0,,2,,,74,127
47601,note_off,105,0,0,,11,,,70,127
47601,note_on,0,0,0,,6,,,66,127
47706,note_off,105,0,0,,2,,,74,127
47706,note_on,0,0,0,,10,,,69,127
47811,note_off,105,0,0,,6,,,66,127
47811,note_on,0,0,0,,7,,,67,127
47916,note_off,105,0,0,,10,,,69,127
47916,note_on,0,0,0,,11,,,70,127
48021,note_off,105,0,0,,7,,,67,127
48021,note_on,0,0,0,,2,,,62,127
48126,note_off,105,0,0,,11,,,70,127
48126,note_on,0,0,0,,6,,,66,127
48231,note_off,105,0,0,,2,,,62,127
48231,note_on,0,0,0,,3,,,63,127
48336,note_off,105,0,0,,6,,,66,127
48336,note_on,0,0,0,,7,,,67,127
48441,note_off,105,0,0,,3,,,63,127
48441,note_on,0,0,0,,11,,,58,127
48546,note_off,105,0,0,,7,,,67,127
48546,note_on,0,0,0,,2,,,62,127
48651,note_off,105,0,0,,11,,,58,127
48651,note_on,0,0,0,,0,,,60,127
48756,note_off,105,0,0,,2,,,62,127
48756,note_on,0,0,0,,3,,,63,127
48861,note_off,105,0,0,,0,,,60,127
48861,note_on,0,0,0,,10,,,57,127
48966,note_off,105,0,0,,3,,,63,127
48966,note_on,0,0,0,,0,,,60,127
49071,note_off,105,0,0,,0,,,60,127
49071,note_off,0,0,0,,10,,,57,127
49071,note_on,0,0,0,,11,,,58,127
49280,note_on,209,0,0,,7,,,79,127
49485,note_off,205,0,0,,11,,,58,127
49489,note_off,4,0,0,,7,,,79,127
49489,note_on,0,0,0,,8,,,80,127
49698,note_on,209,0,0,,2,,,74,127
49803,note_off,105,0,0,,8,,,80,127
49803,note_on,0,0,0,,5,,,77,127
49908,note_off,105,0,0,,2,,,74,127
49908,note_on,0,0,0,,3,,,75,127
50013,note_off,105,0,0,,5,,,77,127
50013,note_on,0,0,0,,7,,,79,127
50118,note_off,105,0,0,,3,,,75,127
50118,note_on,0,0,0,,12,,,71,127
50223,note_off,105,0,0,,7,,,79,127
50223,note_on,0,0,0,,2,,,74,127
50328,note_off,105,0,0,,12,,,71,127
50328,note_on,0,0,0,,0,,,72,127
50433,note_off,105,0,0,,2,,,74,127
50433,note_on,0,0,0,,3,,,75,127
50538,note_off,105,0,0,,0,,,72,127
50538,note_on,0,0,0,,7,,,67,127
50643,note_off,105,0,0,,3,,,75,127
50643,note_on,0,0,0,,12,,,71,127
50748,note_off,105,0,0,,7,,,67,127
50748,note_on,0,0,0,,8,,,68,127
50853,note_off,105,0,0,,12,,,71,127
50853,note_on,0,0,0,,0,,,72,127
50958,note_off,105,0,0,,8,,,68,127
50958,note_on,0,0,0,,3,,,63,127
51063,note_off,105,0,0,,0,,,72,127
51063,note_on,0,0,0,,7,,,67,127
51168,note_off,105,0,0,,3,,,63,127
51168,note_on,0,0,0,,5,,,65,127
51273,note_off,105,0,0,,7,,,67,127
51273,note_on,0,0,0,,8,,,68,127
51378,note_off,105,0,0,,5,,,65,127
51378,note_on,0,0,0,,2,,,62,127
51483,note_off,105,0,0,,8,,,68,127
51483,note_on,0,0,0,,5,,,65,127
51588,note_off,105,0,0,,5,,,65,127
51588,note_off,0,0,0,,2,,,62,127
51588,note_on,0,0,0,,3,,,63,127
51797,note_on,209,0,0,,7,,,67,127
51797,note_on,0,0,0,,7,,,79,127
52006,note_off,209,0,0,,7,,,79,127
52006,note_off,0,0,0,,7,,,67,127
52006,note_off,0,0,0,,3,,,63,127
52006,note_on,0,0,0,,10,,,69,127
52006,note_on,0,0,0,,2,,,62,127
52006,note_on,0,0,0,,7,,,79,127
52215,note_off,209,0,0,,7,,,79,127
52215,note_on,0,0,0,,5,,,77,127
52424,note_off,209,0,0,,5,,,77,127
52424,note_off,0,0,0,,2,,,62,127
52424,note_off,0,0,0,,10,,,69,127
52424,note_on,0,0,0,,12,,,71,127
52424,note_on,0,0,0,,7,,,55,127
52424,note_on,0,0,0,,5,,,77,127
52633,note_off,209,0,0,,5,,,77,127
52633,note_on,0,0,0,,3,,,75,127
52738,note_off,105,0,0,,3,,,75,127
52738,note_on,0,0,0,,2,,,74,127
52843,note_off,105,0,0,,2,,,74,127
52843,note_off,0,0,0,,7,,,55,127
52843,note_off,0,0,0,,12,,,71,127
52843,note_on,0,0,0,,0,,,72,127
52843,note_on,0,0,0,,0,,,48,127
52843,note_on,0,0,0,,3,,,75,127
53052,note_off,209,0,0,,3,,,75,127
53052,note_on,0,0,0,,0,,,84,127
53261,note_off,209,0,0,,0,,,84,127
53261,note_off,0,0,0,,0,,,48,127
53261,note_off,0,0,0,,0,,,72,127
53261,note_on,0,0,0,,2,,,74,127
53261,note_on,0,0,0,,0,,,48,127
53261,note_on,0,0,0,,0,,,84,127
53470,note_off,209,0,0,,0,,,84,127
53470,note_on,0,0,0,,11,,,82,127
53679,note_off,209,0,0,,11,,,82,127
53679,note_off,0,0,0,,0,,,48,127
53679,note_off,0,0,0,,2,,,74,127
53679,note_on,0,0,0,,4,,,76,127
53679,note_on,0,0,0,,0,,,48,127
53679,note_on,0,0,0,,11,,,82,127
53888,note_off,209,0,0,,11,,,82,127
53888,note_on,0,0,0,,8,,,80,127
53993,note_off,105,0,0,,8,,,80,127
53993,note_on,0,0,0,,7,,,79,127
54098,note_off,105,0,0,,7,,,79,127
54098,note_off,0,0,0,,0,,,48,127
54098,note_off,0,0,0,,4,,,76,127
54098,note_on,0,0,0,,5,,,77,127
54098,note_on,0,0,0,,5,,,53,127
54098,note_on,0,0,0,,8,,,80,127
54307,note_on,209,0,0,,5,,,65,127
54516,note_off,209,0,0,,5,,,65,127
54516,note_off,0,0,0,,8,,,80,127
54516,note_off,0,0,0,,5,,,77,127
54516,note_on,0,0,0,,5,,,77,127
54516,note_on,0,0,0,,5,,,65,127
54516,note_on,0,0,0,,8,,,80,127
54725,note_off,209,0,0,,5,,,65,127
54725,note_on,0,0,0,,3,,,63,127
54934,note_off,209,0,0,,3,,,63,127
54934,note_off,0,0,0,,8,,,80,127
54934,note_off,0,0,0,,5,,,77,127
54934,note_off,0,0,0,,5,,,53,127
54934,note_on,0,0,0,,3,,,75,127
54934,note_on,0,0,0,,3,,,63,127
54934,note_on,0,0,0,,7,,,55,127
54934,note_on,0,0,0,,7,,,79,127
55143,note_off,209,0,0,,7,,,55,127
55143,note_on,0,0,0,,8,,,56,127
55352,note_off,209,0,0,,8,,,56,127
55352,note_off,0,0,0,,7,,,79,127
55352,note_off,0,0,0,,3,,,63,127
55352,note_off,0,0,0,,3,,,75,127
55352,note_on,0,0,0,,2,,,74,127
55352,note_on,0,0,0,,2,,,62,127
55352,note_on,0,0,0,,11,,,58,127
55352,note_on,0,0,0,,5,,,77,127
55561,note_off,209,0,0,,5,,,77,127
55561,note_off,0,0,0,,2,,,74,127
55561,note_on,0,0,0,,11,,,70,127
55561,note_on,0,0,0,,11,,,82,127
55770,note_off,209,0,0,,11,,,82,127
55770,note_off,0,0,0,,11,,,70,127
55770,note_off,0,0,0,,2,,,62,127
55770,note_on,0,0,0,,0,,,72,127
55770,note_on,0,0,0,,11,,,46,127
55770,note_on,0,0,0,,11,,,82,127
55979,note_off,209,0,0,,11,,,82,127
55979,note_on,0,0,0,,8,,,80,127
56187,note_off,208,0,0,,11,,,58,127
56188,note_off,1,0,0,,8,,,80,127
56188,note_off,0,0,0,,11,,,46,127
56188,note_off,0,0,0,,0,,,72,127
56188,note_on,0,0,0,,2,,,74,127
56188,note_on,0,0,0,,11,,,46,127
56188,note_on,0,0,0,,8,,,80,127
56397,note_off,209,0,0,,8,,,80,127
56397,note_on,0,0,0,,7,,,79,127
56502,note_off,105,0,0,,7,,,79,127
56502,note_on,0,0,0,,5,,,77,127
56607,note_off,105,0,0,,5,,,77,127
56607,note_off,0,0,0,,11,,,46,127
56607,note_off,0,0,0,,2,,,74,127
56607,note_on,0,0,0,,3,,,75,127
56607,note_on,0,0,0,,3,,,51,127
56607,note_on,0,0,0,,7,,,79,127
56816,note_on,209,0,0,,3,,,63,127
57025,note_off,209,0,0,,3,,,63,127
57025,note_off,0,0,0,,7,,,79,127
57025,note_off,0,0,0,,3,,,51,127
57025,note_off,0,0,0,,3,,,75,127
57025,note_on,0,0,0,,3,,,75,127
57025,note_on,0,0,0,,3,,,63,127
57025,note_on,0,0,0,,3,,,51,127
57025,note_on,0,0,0,,7,,,79,127
57234,note_off,209,0,0,,3,,,63,127
57234,note_on,0,0,0,,2,,,62,127
57443,note_off,209,0,0,,2,,,62,127
57443,note_off,0,0,0,,7,,,79,127
57443,note_off,0,0,0,,3,,,51,127
57443,note_off,0,0,0,,3,,,75,127
57443,note_on,0,0,0,,2,,,74,127
57443,note_on,0,0,0,,2,,,62,127
57443,note_on,0,0,0,,5,,,53,127
57443,note_on,0,0,0,,5,,,77,127
57652,note_off,209,0,0,,5,,,53,127
57652,note_on,0,0,0,,7,,,55,127
57861,note_off,209,0,0,,7,,,55,127
57861,note_off,0,0,0,,5,,,77,127
57861,note_off,0,0,0,,2,,,62,127
57861,note_off,0,0,0,,2,,,74,127
57861,note_on,0,0,0,,0,,,72,127
57861,note_on,0,0,0,,0,,,60,127
57861,note_on,0,0,0,,8,,,56,127
57861,note_on,0,0,0,,3,,,75,127
58070,note_off,209,0,0,,3,,,75,127
58070,note_off,0,0,0,,0,,,72,127
58070,note_on,0,0,0,,8,,,68,127
58070,note_on,0,0,0,,8,,,80,127
58279,note_off,209,0,0,,8,,,80,127
58279,note_off,0,0,0,,8,,,68,127
58279,note_off,0,0,0,,0,,,60,127
58279,note_on,0,0,0,,11,,,70,127
58279,note_on,0,0,0,,8,,,44,127
58279,note_on,0,0,0,,8,,,80,127
58488,note_off,209,0,0,,8,,,80,127
58488,note_on,0,0,0,,7,,,79,127
58696,note_off,208,0,0,,8,,,56,127
58697,note_off,1,0,0,,7,,,79,127
58697,note_off,0,0,0,,8,,,44,127
58697,note_off,0,0,0,,11,,,70,127
58697,note_on,0,0,0,,0,,,72,127
58697,note_on,0,0,0,,8,,,44,127
58697,note_on,0,0,0,,7,,,79,127
58906,note_off,209,0,0,,7,,,79,127
58906,note_on,0,0,0,,5,,,77,127
59011,note_off,105,0,0,,5,,,77,127
59011,note_on,0,0,0,,3,,,75,127
59116,note_off,105,0,0,,3,,,75,127
59116,note_off,0,0,0,,8,,,44,127
59116,note_off,0,0,0,,0,,,72,127
59116,note_on,0,0,0,,2,,,74,127
59116,note_on,0,0,0,,2,,,50,127
59116,note_on,0,0,0,,5,,,77,127
59325,note_on,209,0,0,,2,,,62,127
59534,note_off,209,0,0,,2,,,62,127
59534,note_off,0,0,0,,5,,,77,127
59534,note_off,0,0,0,,2,,,50,127
59534,note_off,0,0,0,,2,,,74,127
59534,note_on,0,0,0,,2,,,74,127
59534,note_on,0,0,0,,2,,,62,127
59534,note_on,0,0,0,,2,,,50,127
59534,note_on,0,0,0,,5,,,77,127
59743,note_off,209,0,0,,2,,,62,127
59743,note_on,0,0,0,,0,,,60,127
59952,note_off,209,0,0,,0,,,60,127
59952,note_off,0,0,0,,5,,,77,127
59952,note_off,0,0,0,,2,,,50,127
59952,note_off,0,0,0,,2,,,74,127
59952,note_on,0,0,0,,0,,,72,127
59952,note_on,0,0,0,,0,,,60,127
59952,note_on,0,0,0,,3,,,51,127
59952,note_on,0,0,0,,3,,,75,127
60161,note_off,209,0,0,,3,,,51,127
60161,note_off,0,0,0,,0,,,60,127
60161,note_on,0,0,0,,5,,,53,127
60370,note_off,209,0,0,,5,,,53,127
60370,note_off,0,0,0,,3,,,75,127
60370,note_off,0,0,0,,0,,,72,127
60370,note_on,0,0,0,,12,,,71,127
60370,note_on,0,0,0,,7,,,55,127
60370,note_on,0,0,0,,12,,,59,127
60370,note_on,0,0,0,,2,,,74,127
60579,note_off,209,0,0,,2,,,74,127
60579,note_off,0,0,0,,12,,,71,127
60579,note_on,0,0,0,,7,,,67,127
60579,note_on,0,0,0,,7,,,79,127
60788,note_off,209,0,0,,7,,,79,127
60788,note_off,0,0,0,,7,,,67,127
60788,note_off,0,0,0,,12,,,59,127
60788,note_off,0,0,0,,7,,,55,127
60788,note_on,0,0,0,,10,,,69,127
60788,note_on,0,0,0,,7,,,43,127
60788,note_on,0,0,0,,7,,,79,127
60997,note_off,209,0,0,,7,,,79,127
60997,note_on,0,0,0,,5,,,77,127
61206,note_off,209,0,0,,5,,,77,127
61206,note_off,0,0,0,,7,,,43,127
61206,note_off,0,0,0,,10,,,69,127
61206,note_on,0,0,0,,12,,,71,127
61206,note_on,0,0,0,,7,,,43,127
61206,note_on,0,0,0,,5,,,77,127
61415,note_off,209,0,0,,5,,,77,127
61415,note_on,0,0,0,,3,,,75,127
61520,note_off,105,0,0,,3,,,75,127
61520,note_on,0,0,0,,2,,,74,127
61625,note_off,105,0,0,,2,,,74,127
61625,note_off,0,0,0,,7,,,43,127
61625,note_off,0,0,0,,12,,,71,127
61625,note_on,0,0,0,,0,,,72,127
61625,note_on,0,0,0,,0,,,48,127
61625,note_on,0,0,0,,3,,,75,127
61834,note_off,209,0,0,,0,,,72,127
61834,note_on,0,0,0,,7,,,67,127
62043,note_off,209,0,0,,7,,,67,127
62043,note_off,0,0,0,,3,,,75,127
62043,note_off,0,0,0,,0,,,48,127
62043,note_on,0,0,0,,8,,,68,127
62043,note_on,0,0,0,,5,,,53,127
62043,note_on,0,0,0,,1,,,73,127
62252,note_off,209,0,0,,8,,,68,127
62252,note_on,0,0,0,,5,,,65,127
62461,note_off,209,0,0,,5,,,65,127
62461,note_off,0,0,0,,1,,,73,127
62461,note_off,0,0,0,,5,,,53,127
62461,note_on,0,0,0,,3,,,63,127
62461,note_on,0,0,0,,8,,,56,127
62461,note_on,0,0,0,,0,,,72,127
62670,note_off,209,0,0,,3,,,63,127
62670,note_on,0,0,0,,0,,,60,127
62879,note_off,209,0,0,,0,,,60,127
62879,note_off,0,0,0,,0,,,72,127
62879,note_off,0,0,0,,8,,,56,127
62879,note_on,0,0,0,,2,,,62,127
62879,note_on,0,0,0,,7,,,55,127
62879,note_on,0,0,0,,12,,,71,127
63036,note_off,157,0,0,,12,,,71,127
63088,note_off,52,0,0,,2,,,62,127
63088,note_on,0,0,0,,8,,,80,127
63088,note_on,0,0,0,,0,,,84,127
63297,note_off,209,0,0,,0,,,84,127
63297,note_off,0,0,0,,8,,,80,127
63297,note_on,0,0,0,,8,,,80,127
63297,note_on,0,0,0,,0,,,84,127
63506,note_off,209,0,0,,0,,,84,127
63506,note_off,0,0,0,,8,,,80,127
63506,note_on,0,0,0,,7,,,79,127
63506,note_on,0,0,0,,12,,,83,127
63715,note_off,209,0,0,,12,,,83,127
63715,note_off,0,0,0,,7,,,79,127
63715,note_on,0,0,0,,7,,,79,127
63715,note_on,0,0,0,,12,,,83,127
63924,note_off,209,0,0,,12,,,83,127
63924,note_off,0,0,0,,7,,,79,127
63924,note_on,0,0,0,,8,,,80,127
63924,note_on,0,0,0,,0,,,84,127
64133,note_off,209,0,0,,0,,,84,127
64133,note_off,0,0,0,,8,,,80,127
64133,note_off,0,0,0,,7,,,55,127
64133,note_on,0,0,0,,8,,,80,127
64133,note_on,0,0,0,,7,,,43,127
64133,note_on,0,0,0,,0,,,84,127
64342,note_off,209,0,0,,0,,,84,127
64342,note_off,0,0,0,,8,,,80,127
64342,note_on,0,0,0,,7,,,79,127
64342,note_on,0,0,0,,11,,,82,127
64551,note_off,209,0,0,,11,,,82,127
64551,note_off,0,0,0,,7,,,79,127
64551,note_on,0,0,0,,7,,,79,127
64551,note_on,0,0,0,,7,,,55,127
64551,note_on,0,0,0,,11,,,82,127
64760,note_off,209,0,0,,11,,,82,127
64760,note_off,0,0,0,,7,,,79,127
64760,note_on,0,0,0,,6,,,78,127
64760,note_on,0,0,0,,10,,,81,127
64969,note_off,209,0,0,,10,,,81,127
64969,note_off,0,0,0,,6,,,78,127
64969,note_off,0,0,0,,7,,,55,127
64969,note_on,0,0,0,,6,,,78,127
64969,note_on,0,0,0,,6,,,54,127
64969,note_on,0,0,0,,10,,,81,127
65178,note_off,209,0,0,,10,,,81,127
65178,note_off,0,0,0,,6,,,78,127
65178,note_on,0,0,0,,7,,,79,127
65178,note_on,0,0,0,,11,,,82,127
65387,note_off,209,0,0,,11,,,82,127
65387,note_off,0,0,0,,7,,,79,127
65387,note_off,0,0,0,,6,,,54,127
65387,note_off,0,0,0,,7,,,43,127
65387,note_on,0,0,0,,7,,,79,127
65387,note_on,0,0,0,,7,,,43,127
65387,note_on,0,0,0,,7,,,55,127
65387,note_on,0,0,0,,11,,,82,127
65596,note_off,209,0,0,,11,,,82,127
65596,note_off,0,0,0,,7,,,79,127
65596,note_on,0,0,0,,5,,,77,127
65596,note_on,0,0,0,,8,,,80,127
65805,note_off,209,0,0,,8,,,80,127
65805,note_off,0,0,0,,5,,,77,127
65805,note_off,0,0,0,,7,,,55,127
65805,note_on,0,0,0,,5,,,77,127
65805,note_on,0,0,0,,5,,,53,127
65805,note_on,0,0,0,,8,,,80,127
66014,note_off,209,0,0,,8,,,80,127
66014,note_off,0,0,0,,5,,,77,127
66014,note_on,0,0,0,,4,,,76,127
66014,note_on,0,0,0,,7,,,79,127
66223,note_off,209,0,0,,7,,,79,127
66223,note_off,0,0,0,,4,,,76,127
66223,note_off,0,0,0,,5,,,53,127
66223,note_on,0,0,0,,4,,,76,127
66223,note_on,0,0,0,,4,,,52,127
66223,note_on,0,0,0,,7,,,79,127
66432,note_off,209,0,0,,7,,,79,127
66432,note_off,0,0,0,,4,,,76,127
66432,note_on,0,0,0,,5,,,77,127
66432,note_on,0,0,0,,8,,,80,127
66641,note_off,209,0,0,,8,,,80,127
66641,note_off,0,0,0,,5,,,77,127
66641,note_off,0,0,0,,4,,,52,127
66641,note_off,0,0,0,,7,,,43,127
66641,note_on,0,0,0,,5,,,77,127
66641,note_on,0,0,0,,7,,,43,127
66641,note_on,0,0,0,,5,,,53,127
66641,note_on,0,0,0,,8,,,80,127
66850,note_off,209,0,0,,8,,,80,127
66850,note_off,0,0,0,,5,,,77,127
66850,note_on,0,0,0,,3,,,75,127
66850,note_on,0,0,0,,7,,,79,127
67059,note_off,209,0,0,,7,,,79,127
67059,note_off,0,0,0,,3,,,75,127
67059,note_off,0,0,0,,5,,,53,127
67059,note_on,0,0,0,,3,,,75,127
67059,note_on,0,0,0,,3,,,51,127
67059,note_on,0,0,0,,7,,,79,127
67268,note_off,209,0,0,,7,,,79,127
67268,note_off,0,0,0,,3,,,75,127
67268,note_on,0,0,0,,2,,,74,127
67268,note_on,0,0,0,,6,,,78,127
67477,note_off,209,0,0,,6,,,78,127
67477,note_off,0,0,0,,2,,,74,127
67477,note_off,0,0,0,,3,,,51,127
67477,note_on,0,0,0,,2,,,74,127
67477,note_on,0,0,0,,2,,,50,127
67477,note_on,0,0,0,,6,,,78,127
67686,note_off,209,0,0,,6,,,78,127
67686,note_off,0,0,0,,2,,,74,127
67686,note_on,0,0,0,,3,,,75,127
67686,note_on,0,0,0,,7,,,79,127
67895,note_off,209,0,0,,7,,,79,127
67895,note_off,0,0,0,,3,,,75,127
67895,note_off,0,0,0,,2,,,50,127
67895,note_off,0,0,0,,7,,,43,127
67895,note_on,0,0,0,,3,,,75,127
67895,note_on,0,0,0,,3,,,51,127
67895,note_on,0,0,0,,7,,,43,127
67895,note_on,0,0,0,,7,,,79,127
68104,note_off,209,0,0,,7,,,79,127
68104,note_off,0,0,0,,3,,,75,127
68104,note_on,0,0,0,,1,,,73,127
68104,note_on,0,0,0,,5,,,77,127
68313,note_off,209,0,0,,5,,,77,127
68313,note_off,0,0,0,,1,,,73,127
68313,note_off,0,0,0,,3,,,51,127
68313,note_on,0,0,0,,1,,,73,127
68313,note_on,0,0,0,,1,,,49,127
68313,note_on,0,0,0,,5,,,77,127
68522,note_off,209,0,0,,5,,,77,127
68522,note_off,0,0,0,,1,,,73,127
68522,note_on,0,0,0,,0,,,72,127
68522,note_on,0,0,0,,4,,,76,127
68731,note_off,209,0,0,,4,,,76,127
68731,note_off,0,0,0,,0,,,72,127
68731,note_off,0,0,0,,1,,,49,127
68731,note_on,0,0,0,,0,,,72,127
68731,note_on,0,0,0,,0,,,48,127
68731,note_on,0,0,0,,4,,,76,127
68940,note_off,209,0,0,,4,,,76,127
68940,note_off,0,0,0,,0,,,72,127
68940,note_on,0,0,0,,1,,,73,127
68940,note_on,0,0,0,,5,,,77,127
69149,note_off,209,0,0,,5,,,77,127
69149,note_off,0,0,0,,1,,,73,127
69149,note_off,0,0,0,,0,,,48,127
69149,note_off,0,0,0,,7,,,43,127
69149,note_on,0,0,0,,1,,,73,127
69149,note_on,0,0,0,,1,,,49,127
69149,note_on,0,0,0,,7,,,43,127
69149,note_on,0,0,0,,5,,,77,127
69358,note_off,209,0,0,,5,,,77,127
69358,note_off,0,0,0,,1,,,73,127
69358,note_on,0,0,0,,0,,,72,127
69358,note_on,0,0,0,,3,,,75,127
69567,note_off,209,0,0,,3,,,75,127
69567,note_off,0,0,0,,0,,,72,127
69567,note_off,0,0,0,,1,,,49,127
69567,note_on,0,0,0,,0,,,72,127
69567,note_on,0,0,0,,0,,,48,127
69567,note_on,0,0,0,,3,,,75,127
69776,note_off,209,0,0,,3,,,75,127
69776,note_off,0,0,0,,0,,,72,127
69776,note_on,0,0,0,,12,,,71,127
69776,note_on,0,0,0,,2,,,74,127
69985,note_off,209,0,0,,2,,,74,127
69985,note_off,0,0,0,,12,,,71,127
69985,note_off,0,0,0,,0,,,48,127
69985,note_on,0,0,0,,12,,,71,127
69985,note_on,0,0,0,,12,,,47,127
69985,note_on,0,0,0,,2,,,74,127
70194,note_off,209,0,0,,2,,,74,127
70194,note_off,0,0,0,,12,,,71,127
70194,note_on,0,0,0,,0,,,72,127
70194,note_on,0,0,0,,3,,,75,127
70403,note_off,209,0,0,,3,,,75,127
70403,note_off,0,0,0,,0,,,72,127
70403,note_off,0,0,0,,12,,,47,127
70403,note_off,0,0,0,,7,,,43,127
70403,note_on,0,0,0,,0,,,72,127
70403,note_on,0,0,0,,7,,,43,127
70403,note_on,0,0,0,,7,,,55,127
70403,note_on,0,0,0,,3,,,75,127
70612,note_off,209,0,0,,0,,,72,127
70612,note_on,0,0,0,,7,,,67,127
70821,note_off,209,0,0,,7,,,67,127
70821,note_off,0,0,0,,3,,,75,127
70821,note_on,0,0,0,,8,,,68,127
70821,note_on,0,0,0,,0,,,72,127
71030,note_off,209,0,0,,8,,,68,127
71030,note_on,0,0,0,,6,,,66,127
71239,note_off,209,0,0,,6,,,66,127
71239,note_off,0,0,0,,0,,,72,127
71239,note_on,0,0,0,,7,,,67,127
71239,note_on,0,0,0,,12,,,71,127
71448,note_off,209,0,0,,7,,,67,127
71448,note_on,0,0,0,,2,,,62,127
71657,note_off,209,0,0,,2,,,62,127
71657,note_off,0,0,0,,12,,,71,127
71657,note_off,0,0,0,,7,,,55,127
71657,note_off,0,0,0,,7,,,43,127
71657,note_on,0,0,0,,3,,,63,127
71657,note_on,0,0,0,,7,,,43,127
71657,note_on,0,0,0,,7,,,55,127
71657,note_on,0,0,0,,0,,,72,127
71866,note_off,209,0,0,,3,,,63,127
71866,note_on,0,0,0,,0,,,60,127
72075,note_off,209,0,0,,0,,,60,127
72075,note_off,0,0,0,,0,,,72,127
72075,note_on,0,0,0,,5,,,65,127
72075,note_on,0,0,0,,8,,,68,127
72284,note_off,209,0,0,,5,,,65,127
72284,note_on,0,0,0,,2,,,62,127
72493,note_off,209,0,0,,2,,,62,127
72493,note_off,0,0,0,,8,,,68,127
72493,note_on,0,0,0,,3,,,63,127
72493,note_on,0,0,0,,7,,,67,127
72702,note_off,209,0,0,,3,,,63,127
72702,note_on,0,0,0,,0,,,60,127
72911,note_off,209,0,0,,0,,,60,127
72911,note_off,0,0,0,,7,,,67,127
72911,note_off,0,0,0,,7,,,55,127
72911,note_off,0,0,0,,7,,,43,127
72911,note_on,0,0,0,,1,,,61,127
72911,note_on,0,0,0,,7,,,43,127
72911,note_on,0,0,0,,7,,,55,127
72911,note_on,0,0,0,,5,,,65,127
73120,note_off,209,0,0,,1,,,61,127
73120,note_on,0,0,0,,12,,,59,127
73329,note_off,209,0,0,,12,,,59,127
73329,note_off,0,0,0,,5,,,65,127
73329,note_on,0,0,0,,0,,,60,127
73329,note_on,0,0,0,,3,,,63,127
73434,note_off,105,0,0,,0,,,60,127
73434,note_off,0,0,0,,7,,,55,127
73434,note_on,0,0,0,,7,,,55,127
73539,note_off,105,0,0,,7,,,55,127
73539,note_on,0,0,0,,10,,,57,127
73644,note_off,105,0,0,,10,,,57,127
73644,note_on,0,0,0,,12,,,59,127
73749,note_off,105,0,0,,12,,,59,127
73749,note_off,0,0,0,,3,,,63,127
73749,note_on,0,0,0,,0,,,60,127
73854,note_off,105,0,0,,0,,,60,127
73854,note_on,0,0,0,,2,,,62,127
73959,note_off,105,0,0,,2,,,62,127
73959,note_on,0,0,0,,3,,,63,127
74064,note_off,105,0,0,,3,,,63,127
74064,note_on,0,0,0,,5,,,65,127
74169,note_off,105,0,0,,5,,,65,127
74169,note_on,0,0,0,,7,,,67,127
74378,note_off,209,0,0,,7,,,43,127
74378,note_on,0,0,0,,3,,,63,127
74378,note_on,0,0,0,,7,,,55,127
74587,note_off,209,0,0,,7,,,55,127
74587,note_off,0,0,0,,3,,,63,127
74587,note_off,0,0,0,,7,,,67,127
74587,note_on,0,0,0,,3,,,63,127
74587,note_on,0,0,0,,7,,,55,127
74587,note_on,0,0,0,,7,,,67,127
74796,note_off,209,0,0,,7,,,55,127
74796,note_off,0,0,0,,3,,,63,127
74796,note_on,0,0,0,,2,,,62,127
74796,note_on,0,0,0,,5,,,53,127
75005,note_off,209,0,0,,5,,,53,127
75005,note_off,0,0,0,,2,,,62,127
75005,note_off,0,0,0,,7,,,67,127
75005,note_on,0,0,0,,2,,,62,127
75005,note_on,0,0,0,,5,,,53,127
75005,note_on,0,0,0,,7,,,67,127
75214,note_off,209,0,0,,5,,,53,127
75214,note_off,0,0,0,,2,,,62,127
75214,note_on,0,0,0,,0,,,60,127
75214,note_on,0,0,0,,3,,,51,127
75423,note_off,209,0,0,,3,,,51,127
75423,note_off,0,0,0,,0,,,60,127
75423,note_off,0,0,0,,7,,,67,127
75423,note_on,0,0,0,,0,,,60,127
75423,note_on,0,0,0,,3,,,51,127
75423,note_on,0,0,0,,7,,,67,127
75632,note_off,209,0,0,,3,,,51,127
75632,note_off,0,0,0,,0,,,60,127
75632,note_on,0,0,0,,11,,,58,127
75632,note_on,0,0,0,,2,,,50,127
75841,note_off,209,0,0,,2,,,50,127
75841,note_off,0,0,0,,11,,,58,127
75841,note_off,0,0,0,,7,,,67,127
75841,note_on,0,0,0,,11,,,58,127
75841,note_on,0,0,0,,2,,,50,127
75841,note_on,0,0,0,,7,,,67,127
76050,note_off,209,0,0,,2,,,50,127
76050,note_off,0,0,0,,11,,,58,127
76050,note_on,0,0,0,,8,,,56,127
76050,note_on,0,0,0,,0,,,48,127
76259,note_off,209,0,0,,0,,,48,127
76259,note_off,0,0,0,,8,,,56,127
76259,note_off,0,0,0,,7,,,67,127
76259,note_on,0,0,0,,8,,,56,127
76259,note_on,0,0,0,,0,,,48,127
76259,note_on,0,0,0,,7,,,67,127
76468,note_off,209,0,0,,0,,,48,127
76468,note_off,0,0,0,,8,,,56,127
76468,note_on,0,0,0,,7,,,55,127
76468,note_on,0,0,0,,12,,,47,127
76677,note_off,209,0,0,,12,,,47,127
76677,note_off,0,0,0,,7,,,55,127
76677,note_off,0,0,0,,7,,,67,127
76677,note_on,0,0,0,,7,,,55,127
76677,note_on,0,0,0,,12,,,47,127
76782,note_on,105,0,0,,2,,,62,127
76887,note_off,105,0,0,,2,,,62,127
76887,note_on,0,0,0,,3,,,63,127
76992,note_off,105,0,0,,3,,,63,127
76992,note_on,0,0,0,,5,,,65,127
77097,note_off,105,0,0,,5,,,65,127
77097,note_on,0,0,0,,7,,,67,127
77202,note_off,105,0,0,,7,,,67,127
77202,note_on,0,0,0,,10,,,69,127
77254,note_off,52,0,0,,10,,,69,127
77254,note_on,0,0,0,,12,,,71,127
77306,note_off,52,0,0,,12,,,71,127
77306,note_off,0,0,0,,12,,,47,127
77306,note_on,0,0,0,,12,,,47,127
77306,note_on,0,0,0,,0,,,72,127
77411,note_off,105,0,0,,0,,,72,127
77411,note_on,0,0,0,,2,,,74,127
77516,note_off,105,0,0,,2,,,74,127
77516,note_off,0,0,0,,12,,,47,127
77516,note_off,0,0,0,,7,,,55,127
77516,note_on,0,0,0,,7,,,55,127
77516,note_on,0,0,0,,0,,,48,127
77516,note_on,0,0,0,,3,,,75,127
77725,note_off,209,0,0,,3,,,75,127
77725,note_on,0,0,0,,0,,,72,127
77934,note_off,209,0,0,,0,,,72,127
77934,note_off,0,0,0,,0,,,48,127
77934,note_off,0,0,0,,7,,,55,127
77934,note_on,0,0,0,,7,,,55,127
77934,note_on,0,0,0,,12,,,47,127
78039,note_on,105,0,0,,2,,,62,127
78144,note_off,105,0,0,,2,,,62,127
78144,note_on,0,0,0,,3,,,63,127
78249,note_off,105,0,0,,3,,,63,127
78249,note_on,0,0,0,,5,,,65,127
78354,note_off,105,0,0,,5,,,65,127
78354,note_on,0,0,0,,7,,,67,127
78459,note_off,105,0,0,,7,,,67,127
78459,note_on,0,0,0,,10,,,69,127
78511,note_off,52,0,0,,10,,,69,127
78511,note_on,0,0,0,,12,,,71,127
78563,note_off,52,0,0,,12,,,71,127
78563,note_off,0,0,0,,12,,,47,127
78563,note_on,0,0,0,,12,,,47,127
78563,note_on,0,0,0,,0,,,72,127
78668,note_off,105,0,0,,0,,,72,127
78668,note_on,0,0,0,,2,,,74,127
78773,note_off,105,0,0,,2,,,74,127
78773,note_off,0,0,0,,12,,,47,127
78773,note_off,0,0,0,,7,,,55,127
78773,note_on,0,0,0,,7,,,55,127
78773,note_on,0,0,0,,0,,,48,127
78773,note_on,0,0,0,,3,,,75,127
78982,note_off,209,0,0,,3,,,75,127
78982,note_off,0,0,0,,0,,,48,127
78982,note_on,0,0,0,,3,,,51,127
78982,note_on,0,0,0,,0,,,72,127
79191,note_off,209,0,0,,3,,,51,127
79191,note_off,0,0,0,,7,,,55,127
79191,note_on,0,0,0,,8,,,68,127
79191,note_on,0,0,0,,5,,,53,127
79400,note_off,209,0,0,,0,,,72,127
79400,note_on,0,0,0,,5,,,77,127
79609,note_off,209,0,0,,5,,,77,127
79609,note_off,0,0,0,,5,,,53,127
79609,note_off,0,0,0,,8,,,68,127
79609,note_on,0,0,0,,7,,,67,127
79609,note_on,0,0,0,,7,,,55,127
79609,note_on,0,0,0,,3,,,75,127
79818,note_off,209,0,0,,3,,,75,127
79818,note_on,0,0,0,,0,,,72,127
80027,note_off,209,0,0,,0,,,72,127
80027,note_off,0,0,0,,7,,,67,127
80027,note_on,0,0,0,,5,,,65,127
80027,note_on,0,0,0,,7,,,43,127
80027,note_on,0,0,0,,2,,,74,127
80236,note_off,209,0,0,,2,,,74,127
80236,note_on,0,0,0,,12,,,71,127
80341,note_off,105,0,0,,12,,,71,127
80341,note_off,0,0,0,,5,,,65,127
80445,note_off,104,0,0,,7,,,55,127
80446,note_off,1,0,0,,7,,,43,127
80446,note_on,0,0,0,,7,,,55,127
80446,note_on,0,0,0,,12,,,47,127
80551,note_on,105,0,0,,2,,,62,127
80656,note_off,105,0,0,,2,,,62,127
80656,note_on,0,0,0,,3,,,63,127
80761,note_off,105,0,0,,3,,,63,127
80761,note_on,0,0,0,,5,,,65,127
80866,note_off,105,0,0,,5,,,65,127
80866,note_on,0,0,0,,7,,,67,127
80971,note_off,105,0,0,,7,,,67,127
80971,note_on,0,0,0,,10,,,69,127
81023,note_off,52,0,0,,10,,,69,127
81023,note_on,0,0,0,,12,,,71,127
81075,note_off,52,0,0,,12,,,71,127
81075,note_off,0,0,0,,12,,,47,127
81075,note_on,0,0,0,,12,,,47,127
81075,note_on,0,0,0,,0,,,72,127
81180,note_off,105,0,0,,0,,,72,127
81180,note_on,0,0,0,,2,,,74,127
81285,note_off,105,0,0,,2,,,74,127
81285,note_off,0,0,0,,12,,,47,127
81285,note_off,0,0,0,,7,,,55,127
81285,note_on,0,0,0,,7,,,55,127
81285,note_on,0,0,0,,0,,,48,127
81285,note_on,0,0,0,,3,,,75,127
81494,note_off,209,0,0,,3,,,75,127
81494,note_on,0,0,0,,0,,,72,127
81703,note_off,209,0,0,,0,,,72,127
81703,note_off,0,0,0,,0,,,48,127
81703,note_off,0,0,0,,7,,,55,127
81703,note_on,0,0,0,,7,,,55,127
81703,note_on,0,0,0,,12,,,47,127
81808,note_on,105,0,0,,2,,,62,127
81913,note_off,105,0,0,,2,,,62,127
81913,note_on,0,0,0,,3,,,63,127
82018,note_off,105,0,0,,3,,,63,127
82018,note_on,0,0,0,,5,,,65,127
82123,note_off,105,0,0,,5,,,65,127
82123,note_on,0,0,0,,7,,,67,127
82228,note_off,105,0,0,,7,,,67,127
82228,note_on,0,0,0,,10,,,69,127
82280,note_off,52,0,0,,10,,,69,127
82280,note_on,0,0,0,,12,,,71,127
82332,note_off,52,0,0,,12,,,71,127
82332,note_off,0,0,0,,12,,,47,127
82332,note_off,0,0,0,,7,,,55,127
82332,note_on,0,0,0,,7,,,55,127
82332,note_on,0,0,0,,12,,,47,127
82332,note_on,0,0,0,,0,,,72,127
82437,note_off,105,0,0,,0,,,72,127
82437,note_on,0,0,0,,2,,,74,127
82542,note_off,105,0,0,,2,,,74,127
82542,note_off,0,0,0,,12,,,47,127
82542,note_off,0,0,0,,7,,,55,127
82542,note_on,0,0,0,,7,,,55,127
82542,note_on,0,0,0,,0,,,48,127
82542,note_on,0,0,0,,3,,,75,127
82751,note_off,209,0,0,,3,,,75,127
82751,note_off,0,0,0,,0,,,48,127
82751,note_on,0,0,0,,3,,,51,127
82751,note_on,0,0,0,,0,,,72,127
82960,note_off,209,0,0,,3,,,51,127
82960,note_off,0,0,0,,7,,,55,127
82960,note_on,0,0,0,,5,,,53,127
82960,note_on,0,0,0,,8,,,68,127
83168,note_off,208,0,0,,0,,,72,127
83169,note_on,1,0,0,,5,,,41,127
83169,note_on,0,0,0,,2,,,74,127
83374,note_off,205,0,0,,5,,,53,127
83378,note_off,4,0,0,,5,,,41,127
83378,note_off,0,0,0,,8,,,68,127
83378,note_on,0,0,0,,7,,,55,127
83378,note_on,0,0,0,,3,,,63,127
83587,note_off,209,0,0,,2,,,74,127
83587,note_on,0,0,0,,0,,,72,127
83796,note_off,209,0,0,,3,,,63,127
83796,note_on,0,0,0,,7,,,43,127
83796,note_on,0,0,0,,2,,,62,127
84005,note_off,209,0,0,,0,,,72,127
84005,note_on,0,0,0,,12,,,71,127
84210,note_off,205,0,0,,7,,,43,127
84213,note_off,3,0,0,,7,,,55,127
84214,note_off,1,0,0,,12,,,71,127
84214,note_off,0,0,0,,2,,,62,127
84214,note_on,0,0,0,,0,,,72,127
84319,note_on,105,0,0,,0,,,48,127
84424,note_off,105,0,0,,0,,,48,127
84424,note_on,0,0,0,,2,,,50,127
84529,note_off,105,0,0,,2,,,50,127
84529,note_on,0,0,0,,3,,,51,127
84634,note_off,105,0,0,,3,,,51,127
84634,note_on,0,0,0,,5,,,53,127
84739,note_off,105,0,0,,5,,,53,127
84739,note_on,0,0,0,,7,,,55,127
84844,note_off,105,0,0,,7,,,55,127
84844,note_on,0,0,0,,10,,,57,127
84949,note_off,105,0,0,,10,,,57,127
84949,note_on,0,0,0,,12,,,59,127
85054,note_off,105,0,0,,12,,,59,127
85054,note_on,0,0,0,,0,,,60,127
85159,note_off,105,0,0,,0,,,72,127
85159,note_on,0,0,0,,2,,,62,127
85264,note_off,105,0,0,,2,,,62,127
85264,note_on,0,0,0,,3,,,63,127
85369,note_off,105,0,0,,3,,,63,127
85369,note_on,0,0,0,,5,,,65,127
85474,note_off,105,0,0,,5,,,65,127
85474,note_off,0,0,0,,0,,,60,127
85474,note_on,0,0,0,,7,,,67,127
85683,note_on,209,0,0,,10,,,69,127
85788,note_off,105,0,0,,10,,,69,127
85788,note_on,0,0,0,,12,,,71,127
85893,note_off,105,0,0,,12,,,71,127
85893,note_off,0,0,0,,7,,,67,127
85893,note_on,0,0,0,,0,,,72,127
85998,note_on,105,0,0,,2,,,74,127
86103,note_off,105,0,0,,2,,,74,127
86103,note_on,0,0,0,,3,,,75,127
86208,note_off,105,0,0,,3,,,75,127
86208,note_on,0,0,0,,5,,,77,127
86313,note_off,105,0,0,,5,,,77,127
86313,note_off,0,0,0,,0,,,72,127
86313,note_on,0,0,0,,7,,,79,127
86522,note_on,209,0,0,,10,,,81,127
86627,note_off,105,0,0,,10,,,81,127
86627,note_on,0,0,0,,12,,,83,127
86732,note_off,105,0,0,,12,,,83,127
86732,note_off,0,0,0,,7,,,79,127
86732,note_on,0,0,0,,0,,,84,127
86837,note_off,105,0,0,,0,,,84,127
86837,note_on,0,0,0,,0,,,84,127
86942,note_on,105,0,0,,7,,,79,127
87047,note_off,105,0,0,,7,,,79,127
87047,note_off,0,0,0,,0,,,84,127
87047,note_on,0,0,0,,7,,,79,127
87152,note_on,105,0,0,,3,,,75,127
87257,note_off,105,0,0,,3,,,75,127
87257,note_off,0,0,0,,7,,,79,127
87257,note_on,0,0,0,,3,,,75,127
87362,note_on,105,0,0,,0,,,72,127
87467,note_off,105,0,0,,0,,,72,127
87467,note_off,0,0,0,,3,,,75,127
87467,note_on,0,0,0,,0,,,72,127
87572,note_on,105,0,0,,7,,,67,127
87677,note_off,105,0,0,,7,,,67,127
87677,note_off,0,0,0,,0,,,72,127
87677,note_on,0,0,0,,7,,,67,127
87782,note_on,105,0,0,,3,,,63,127
87887,note_off,105,0,0,,3,,,63,127
87887,note_off,0,0,0,,7,,,67,127
87887,note_on,0,0,0,,3,,,63,127
87992,note_off,105,0,0,,3,,,63,127
87992,note_on,0,0,0,,0,,,60,127
88097,note_on,105,0,0,,7,,,55,127
88202,note_off,105,0,0,,7,,,55,127
88202,note_on,0,0,0,,0,,,48,127
88307,note_off,105,0,0,,0,,,48,127
88307,note_on,0,0,0,,7,,,43,127
88407,note_off,100,0,0,,0,,,60,127
88411,note_off,4,0,0,,7,,,43,127
88411,note_on,0,0,0,,0,,,36,127
89668,note_off,1257,0,0,,0,,,36,127
95232,end_of_track,5564,1,0,,,,,,
