tick,type,time,meta,track,program,channel,pitch,tempo,note,velocity
0,copyright,0,1,0,,,,,,
0,program_change,0,0,0,6,0,,,,
0,pitchwheel,0,0,0,,0,0,,,
0,program_change,0,0,0,6,1,,,,
0,pitchwheel,0,0,0,,1,-590,,,
0,program_change,0,0,0,6,2,,,,
0,pitchwheel,0,0,0,,2,-272,,,
0,program_change,0,0,0,6,3,,,,
0,pitchwheel,0,0,0,,3,-353,,,
0,program_change,0,0,0,6,4,,,,
0,pitchwheel,0,0,0,,4,-560,,,
0,program_change,0,0,0,6,5,,,,
0,pitchwheel,0,0,0,,5,-80,,,
0,program_change,0,0,0,6,6,,,,
0,pitchwheel,0,0,0,,6,-625,,,
0,program_change,0,0,0,6,7,,,,
0,pitchwheel,0,0,0,,7,-130,,,
0,program_change,0,0,0,6,8,,,,
0,pitchwheel,0,0,0,,8,-512,,,
0,program_change,0,0,0,6,10,,,,
0,pitchwheel,0,0,0,,10,-464,,,
0,program_change,0,0,0,6,11,,,,
0,pitchwheel,0,0,0,,11,-208,,,
0,program_change,0,0,0,6,12,,,,
0,pitchwheel,0,0,0,,12,-553,,,
0,set_tempo,0,1,0,,,,500000,,
105,note_on,105,0,0,,0,,,72,127
209,note_off,104,0,0,,0,,,72,127
210,note_on,1,0,0,,2,,,74,127
314,note_off,104,0,0,,2,,,74,127
315,note_on,1,0,0,,4,,,76,127
419,note_off,104,0,0,,4,,,76,127
420,note_on,1,0,0,,5,,,77,127
420,note_on,0,0,0,,5,,,53,127
628,note_off,208,0,0,,5,,,77,127
629,note_on,1,0,0,,0,,,72,127
837,note_off,208,0,0,,0,,,72,127
838,note_on,1,0,0,,10,,,69,127
1046,note_off,208,0,0,,10,,,69,127
1046,note_off,0,0,0,,5,,,53,127
1047,note_on,1,0,0,,5,,,65,127
1255,note_off,208,0,0,,5,,,65,127
1256,note_on,1,0,0,,5,,,77,127
1256,note_on,0,0,0,,5,,,53,127
1464,note_off,208,0,0,,5,,,77,127
1465,note_on,1,0,0,,0,,,72,127
1673,note_off,208,0,0,,0,,,72,127
1674,note_on,1,0,0,,10,,,69,127
1882,note_off,208,0,0,,10,,,69,127
1882,note_off,0,0,0,,5,,,53,127
1883,note_on,1,0,0,,5,,,65,127
2091,note_off,208,0,0,,5,,,65,127
2092,note_on,1,0,0,,5,,,77,127
2092,note_on,0,0,0,,5,,,53,127
2300,note_off,208,0,0,,5,,,77,127
2301,note_on,1,0,0,,4,,,76,127
2405,note_off,104,0,0,,4,,,76,127
2406,note_on,1,0,0,,5,,,77,127
2510,note_off,104,0,0,,5,,,77,127
2510,note_off,0,0,0,,5,,,53,127
2511,note_on,1,0,0,,7,,,79,127
2511,note_on,0,0,0,,0,,,48,127
2615,note_off,104,0,0,,7,,,79,127
2616,note_on,1,0,0,,10,,,81,127
2720,note_off,104,0,0,,10,,,81,127
2721,note_on,1,0,0,,11,,,82,127
2825,note_off,104,0,0,,11,,,82,127
2826,note_on,1,0,0,,7,,,79,127
2930,note_off,104,0,0,,7,,,79,127
2930,note_off,0,0,0,,0,,,48,127
2931,note_on,1,0,0,,10,,,81,127
2931,note_on,0,0,0,,5,,,41,127
3035,note_off,104,0,0,,10,,,81,127
3036,note_on,1,0,0,,0,,,72,127
3140,note_off,104,0,0,,0,,,72,127
3141,note_on,1,0,0,,2,,,74,127
3245,note_off,104,0,0,,2,,,74,127
3246,note_on,1,0,0,,4,,,76,127
3350,note_off,104,0,0,,4,,,76,127
3351,note_on,1,0,0,,5,,,77,127
3455,note_off,104,0,0,,5,,,77,127
3456,note_on,1,0,0,,0,,,72,127
3560,note_off,104,0,0,,0,,,72,127
3560,note_off,0,0,0,,5,,,41,127
3561,note_on,1,0,0,,5,,,77,127
3561,note_on,0,0,0,,5,,,53,127
3665,note_off,104,0,0,,5,,,77,127
3666,note_on,1,0,0,,0,,,72,127
3770,note_off,104,0,0,,0,,,72,127
3770,note_off,0,0,0,,5,,,53,127
3771,note_on,1,0,0,,7,,,79,127
3771,note_on,0,0,0,,4,,,52,127
3875,note_off,104,0,0,,7,,,79,127
3876,note_on,1,0,0,,0,,,72,127
3980,note_off,104,0,0,,0,,,72,127
3980,note_off,0,0,0,,4,,,52,127
3981,note_on,1,0,0,,7,,,79,127
3981,note_on,0,0,0,,0,,,48,127
4085,note_off,104,0,0,,7,,,79,127
4086,note_on,1,0,0,,0,,,72,127
4190,note_off,104,0,0,,0,,,72,127
4190,note_off,0,0,0,,0,,,48,127
4191,note_on,1,0,0,,10,,,81,127
4191,note_on,0,0,0,,5,,,53,127
4295,note_off,104,0,0,,10,,,81,127
4296,note_on,1,0,0,,0,,,72,127
4400,note_off,104,0,0,,0,,,72,127
4400,note_off,0,0,0,,5,,,53,127
4401,note_on,1,0,0,,10,,,81,127
4401,note_on,0,0,0,,5,,,41,127
4505,note_off,104,0,0,,10,,,81,127
4506,note_on,1,0,0,,0,,,72,127
4610,note_off,104,0,0,,0,,,72,127
4610,note_off,0,0,0,,5,,,41,127
4611,note_on,1,0,0,,7,,,79,127
4611,note_on,0,0,0,,0,,,48,127
4715,note_off,104,0,0,,7,,,79,127
4716,note_on,1,0,0,,5,,,77,127
4820,note_off,104,0,0,,5,,,77,127
4821,note_on,1,0,0,,4,,,76,127
4925,note_off,104,0,0,,4,,,76,127
4926,note_on,1,0,0,,2,,,74,127
5030,note_off,104,0,0,,2,,,74,127
5031,note_on,1,0,0,,0,,,72,127
5135,note_off,104,0,0,,0,,,48,127
5136,note_on,1,0,0,,0,,,48,127
5240,note_off,104,0,0,,0,,,48,127
5241,note_on,1,0,0,,2,,,50,127
5345,note_off,104,0,0,,2,,,50,127
5346,note_on,1,0,0,,4,,,52,127
5450,note_off,104,0,0,,4,,,52,127
5450,note_off,0,0,0,,0,,,72,127
5451,note_on,1,0,0,,5,,,53,127
5555,note_off,104,0,0,,5,,,53,127
5556,note_on,1,0,0,,0,,,48,127
5660,note_off,104,0,0,,0,,,48,127
5661,note_on,1,0,0,,0,,,72,127
5661,note_on,0,0,0,,5,,,53,127
5765,note_off,104,0,0,,5,,,53,127
5766,note_on,1,0,0,,0,,,48,127
5870,note_off,104,0,0,,0,,,48,127
5870,note_off,0,0,0,,0,,,72,127
5871,note_on,1,0,0,,5,,,77,127
5871,note_on,0,0,0,,5,,,53,127
5975,note_off,104,0,0,,5,,,53,127
5976,note_on,1,0,0,,0,,,48,127
6080,note_off,104,0,0,,0,,,48,127
6081,note_on,1,0,0,,5,,,65,127
6081,note_on,0,0,0,,5,,,53,127
6185,note_off,104,0,0,,5,,,53,127
6186,note_on,1,0,0,,0,,,48,127
6286,note_off,100,0,0,,5,,,77,127
6289,note_off,3,0,0,,0,,,48,127
6290,note_on,1,0,0,,7,,,55,127
6394,note_off,104,0,0,,7,,,55,127
6395,note_off,1,0,0,,5,,,65,127
6395,note_on,0,0,0,,0,,,48,127
6499,note_off,104,0,0,,0,,,48,127
6500,note_on,1,0,0,,4,,,76,127
6500,note_on,0,0,0,,7,,,55,127
6604,note_off,104,0,0,,7,,,55,127
6605,note_on,1,0,0,,0,,,48,127
6709,note_off,104,0,0,,0,,,48,127
6709,note_off,0,0,0,,4,,,76,127
6710,note_on,1,0,0,,7,,,79,127
6710,note_on,0,0,0,,7,,,55,127
6814,note_off,104,0,0,,7,,,55,127
6815,note_on,1,0,0,,0,,,48,127
6919,note_off,104,0,0,,0,,,48,127
6920,note_on,1,0,0,,7,,,67,127
6920,note_on,0,0,0,,7,,,55,127
7024,note_off,104,0,0,,7,,,55,127
7025,note_on,1,0,0,,0,,,48,127
7125,note_off,100,0,0,,7,,,79,127
7128,note_off,3,0,0,,0,,,48,127
7129,note_on,1,0,0,,10,,,57,127
7233,note_off,104,0,0,,10,,,57,127
7234,note_off,1,0,0,,7,,,67,127
7234,note_on,0,0,0,,0,,,48,127
7338,note_off,104,0,0,,0,,,48,127
7339,note_on,1,0,0,,5,,,77,127
7339,note_on,0,0,0,,10,,,57,127
7443,note_off,104,0,0,,10,,,57,127
7444,note_on,1,0,0,,0,,,48,127
7548,note_off,104,0,0,,0,,,48,127
7548,note_off,0,0,0,,5,,,77,127
7549,note_on,1,0,0,,10,,,81,127
7549,note_on,0,0,0,,10,,,57,127
7653,note_off,104,0,0,,10,,,57,127
7654,note_on,1,0,0,,0,,,48,127
7758,note_off,104,0,0,,0,,,48,127
7759,note_on,1,0,0,,10,,,69,127
7759,note_on,0,0,0,,10,,,57,127
7863,note_off,104,0,0,,10,,,57,127
7864,note_on,1,0,0,,0,,,48,127
7964,note_off,100,0,0,,10,,,81,127
7967,note_off,3,0,0,,0,,,48,127
7968,note_on,1,0,0,,11,,,58,127
8072,note_off,104,0,0,,11,,,58,127
8073,note_off,1,0,0,,10,,,69,127
8073,note_on,0,0,0,,0,,,60,127
8177,note_off,104,0,0,,0,,,60,127
8178,note_on,1,0,0,,7,,,79,127
8178,note_on,0,0,0,,11,,,58,127
8282,note_off,104,0,0,,11,,,58,127
8283,note_on,1,0,0,,10,,,57,127
8387,note_off,104,0,0,,10,,,57,127
8387,note_off,0,0,0,,7,,,79,127
8388,note_on,1,0,0,,11,,,82,127
8388,note_on,0,0,0,,7,,,55,127
8492,note_off,104,0,0,,7,,,55,127
8493,note_on,1,0,0,,5,,,53,127
8597,note_off,104,0,0,,5,,,53,127
8598,note_on,1,0,0,,11,,,70,127
8598,note_on,0,0,0,,4,,,52,127
8702,note_off,104,0,0,,4,,,52,127
8703,note_on,1,0,0,,2,,,50,127
8803,note_off,100,0,0,,11,,,82,127
8806,note_off,3,0,0,,2,,,50,127
8806,note_off,0,0,0,,11,,,70,127
8807,note_on,1,0,0,,11,,,82,127
8807,note_on,0,0,0,,0,,,48,127
9015,note_off,208,0,0,,11,,,82,127
9016,note_on,1,0,0,,10,,,81,127
9120,note_off,104,0,0,,10,,,81,127
9121,note_on,1,0,0,,7,,,79,127
9225,note_off,104,0,0,,7,,,79,127
9225,note_off,0,0,0,,0,,,48,127
9226,note_on,1,0,0,,10,,,81,127
9226,note_on,0,0,0,,5,,,53,127
9330,note_off,104,0,0,,10,,,81,127
9331,note_on,1,0,0,,5,,,77,127
9435,note_off,104,0,0,,5,,,77,127
9436,note_on,1,0,0,,4,,,76,127
9540,note_off,104,0,0,,4,,,76,127
9541,note_on,1,0,0,,5,,,77,127
9645,note_off,104,0,0,,5,,,77,127
9645,note_off,0,0,0,,5,,,53,127
9646,note_on,1,0,0,,7,,,79,127
9646,note_on,0,0,0,,11,,,46,127
9750,note_off,104,0,0,,7,,,79,127
9751,note_on,1,0,0,,10,,,81,127
9855,note_off,104,0,0,,10,,,81,127
9856,note_on,1,0,0,,11,,,82,127
9960,note_off,104,0,0,,11,,,82,127
9961,note_on,1,0,0,,7,,,79,127
10065,note_off,104,0,0,,7,,,79,127
10065,note_off,0,0,0,,11,,,46,127
10066,note_on,1,0,0,,10,,,81,127
10066,note_on,0,0,0,,0,,,48,127
10170,note_off,104,0,0,,10,,,81,127
10171,note_on,1,0,0,,5,,,77,127
10275,note_off,104,0,0,,5,,,77,127
10276,note_on,1,0,0,,7,,,79,127
10380,note_off,104,0,0,,7,,,79,127
10381,note_on,1,0,0,,4,,,76,127
10485,note_off,104,0,0,,4,,,76,127
10485,note_off,0,0,0,,0,,,48,127
10486,note_on,1,0,0,,5,,,77,127
10486,note_on,0,0,0,,5,,,41,127
10590,note_off,104,0,0,,5,,,77,127
10591,note_on,1,0,0,,0,,,72,127
10695,note_off,104,0,0,,0,,,72,127
10696,note_on,1,0,0,,2,,,74,127
10800,note_off,104,0,0,,2,,,74,127
10801,note_on,1,0,0,,4,,,76,127
10905,note_off,104,0,0,,4,,,76,127
10906,note_on,1,0,0,,5,,,77,127
11010,note_off,104,0,0,,5,,,77,127
11011,note_on,1,0,0,,0,,,72,127
11115,note_off,104,0,0,,0,,,72,127
11115,note_off,0,0,0,,5,,,41,127
11116,note_on,1,0,0,,5,,,77,127
11116,note_on,0,0,0,,5,,,53,127
11220,note_off,104,0,0,,5,,,77,127
11221,note_on,1,0,0,,0,,,72,127
11325,note_off,104,0,0,,0,,,72,127
11325,note_off,0,0,0,,5,,,53,127
11326,note_on,1,0,0,,7,,,79,127
11326,note_on,0,0,0,,4,,,52,127
11430,note_off,104,0,0,,7,,,79,127
11431,note_on,1,0,0,,0,,,72,127
11535,note_off,104,0,0,,0,,,72,127
11535,note_off,0,0,0,,4,,,52,127
11536,note_on,1,0,0,,7,,,79,127
11536,note_on,0,0,0,,0,,,48,127
11640,note_off,104,0,0,,7,,,79,127
11641,note_on,1,0,0,,0,,,72,127
11745,note_off,104,0,0,,0,,,72,127
11745,note_off,0,0,0,,0,,,48,127
11746,note_on,1,0,0,,10,,,81,127
11746,note_on,0,0,0,,5,,,53,127
11850,note_off,104,0,0,,10,,,81,127
11851,note_on,1,0,0,,0,,,72,127
11955,note_off,104,0,0,,0,,,72,127
11955,note_off,0,0,0,,5,,,53,127
11956,note_on,1,0,0,,10,,,81,127
11956,note_on,0,0,0,,5,,,41,127
12060,note_off,104,0,0,,10,,,81,127
12061,note_on,1,0,0,,0,,,72,127
12165,note_off,104,0,0,,0,,,72,127
12165,note_off,0,0,0,,5,,,41,127
12166,note_on,1,0,0,,7,,,79,127
12166,note_on,0,0,0,,0,,,48,127
12270,note_off,104,0,0,,7,,,79,127
12271,note_on,1,0,0,,5,,,77,127
12375,note_off,104,0,0,,5,,,77,127
12376,note_on,1,0,0,,4,,,76,127
12480,note_off,104,0,0,,4,,,76,127
12481,note_on,1,0,0,,2,,,74,127
12585,note_off,104,0,0,,2,,,74,127
12586,note_on,1,0,0,,0,,,72,127
12690,note_off,104,0,0,,0,,,48,127
12691,note_on,1,0,0,,0,,,48,127
12795,note_off,104,0,0,,0,,,48,127
12796,note_on,1,0,0,,2,,,50,127
12900,note_off,104,0,0,,2,,,50,127
12901,note_on,1,0,0,,4,,,52,127
13005,note_off,104,0,0,,4,,,52,127
13005,note_off,0,0,0,,0,,,72,127
13006,note_on,1,0,0,,5,,,53,127
13111,note_on,105,0,0,,10,,,69,127
13215,note_off,104,0,0,,10,,,69,127
13216,note_on,1,0,0,,12,,,71,127
13320,note_off,104,0,0,,12,,,71,127
13321,note_on,1,0,0,,0,,,72,127
13425,note_off,104,0,0,,0,,,72,127
13426,note_on,1,0,0,,2,,,74,127
13530,note_off,104,0,0,,5,,,53,127
13531,note_on,1,0,0,,2,,,50,127
13635,note_off,104,0,0,,2,,,50,127
13636,note_on,1,0,0,,4,,,52,127
13740,note_off,104,0,0,,4,,,52,127
13741,note_on,1,0,0,,5,,,53,127
13845,note_off,104,0,0,,5,,,53,127
13846,note_on,1,0,0,,7,,,55,127
13950,note_off,104,0,0,,2,,,74,127
13951,note_on,1,0,0,,2,,,74,127
14055,note_off,104,0,0,,2,,,74,127
14056,note_on,1,0,0,,4,,,76,127
14160,note_off,104,0,0,,4,,,76,127
14161,note_on,1,0,0,,5,,,77,127
14265,note_off,104,0,0,,5,,,77,127
14265,note_off,0,0,0,,7,,,55,127
14266,note_on,1,0,0,,7,,,79,127
14371,note_on,105,0,0,,7,,,43,127
14475,note_off,104,0,0,,7,,,43,127
14476,note_on,1,0,0,,10,,,45,127
14580,note_off,104,0,0,,10,,,45,127
14581,note_off,1,0,0,,7,,,79,127
14581,note_on,0,0,0,,12,,,47,127
14685,note_off,104,0,0,,12,,,47,127
14686,note_on,1,0,0,,0,,,48,127
14791,note_on,105,0,0,,7,,,67,127
14895,note_off,104,0,0,,7,,,67,127
14896,note_on,1,0,0,,10,,,69,127
15000,note_off,104,0,0,,10,,,69,127
15001,note_on,1,0,0,,12,,,71,127
15105,note_off,104,0,0,,12,,,71,127
15106,note_on,1,0,0,,0,,,72,127
15210,note_off,104,0,0,,0,,,72,127
15211,note_on,1,0,0,,7,,,67,127
15315,note_off,104,0,0,,7,,,67,127
15315,note_off,0,0,0,,0,,,48,127
15316,note_on,1,0,0,,0,,,72,127
15316,note_on,0,0,0,,0,,,60,127
15420,note_off,104,0,0,,0,,,72,127
15421,note_on,1,0,0,,7,,,67,127
15525,note_off,104,0,0,,7,,,67,127
15525,note_off,0,0,0,,0,,,60,127
15526,note_on,1,0,0,,2,,,74,127
15526,note_on,0,0,0,,12,,,59,127
15630,note_off,104,0,0,,2,,,74,127
15631,note_on,1,0,0,,7,,,67,127
15735,note_off,104,0,0,,7,,,67,127
15735,note_off,0,0,0,,12,,,59,127
15736,note_on,1,0,0,,2,,,74,127
15736,note_on,0,0,0,,7,,,55,127
15840,note_off,104,0,0,,2,,,74,127
15841,note_on,1,0,0,,7,,,67,127
15945,note_off,104,0,0,,7,,,67,127
15945,note_off,0,0,0,,7,,,55,127
15946,note_on,1,0,0,,4,,,76,127
15946,note_on,0,0,0,,0,,,60,127
16050,note_off,104,0,0,,4,,,76,127
16051,note_on,1,0,0,,7,,,67,127
16155,note_off,104,0,0,,7,,,67,127
16155,note_off,0,0,0,,0,,,60,127
16156,note_on,1,0,0,,4,,,76,127
16156,note_on,0,0,0,,0,,,48,127
16260,note_off,104,0,0,,4,,,76,127
16261,note_on,1,0,0,,7,,,67,127
16365,note_off,104,0,0,,7,,,67,127
16365,note_off,0,0,0,,0,,,48,127
16366,note_on,1,0,0,,2,,,74,127
16366,note_on,0,0,0,,7,,,55,127
16470,note_off,104,0,0,,2,,,74,127
16471,note_on,1,0,0,,0,,,72,127
16575,note_off,104,0,0,,0,,,72,127
16576,note_on,1,0,0,,12,,,71,127
16680,note_off,104,0,0,,12,,,71,127
16681,note_on,1,0,0,,10,,,69,127
16785,note_off,104,0,0,,10,,,69,127
16786,note_on,1,0,0,,7,,,67,127
16890,note_off,104,0,0,,7,,,55,127
16891,note_on,1,0,0,,7,,,43,127
16995,note_off,104,0,0,,7,,,43,127
16996,note_on,1,0,0,,10,,,45,127
17100,note_off,104,0,0,,10,,,45,127
17101,note_on,1,0,0,,12,,,47,127
17205,note_off,104,0,0,,12,,,47,127
17205,note_off,0,0,0,,7,,,67,127
17206,note_on,1,0,0,,0,,,48,127
17310,note_off,104,0,0,,0,,,48,127
17311,note_on,1,0,0,,7,,,43,127
17415,note_off,104,0,0,,7,,,43,127
17416,note_on,1,0,0,,7,,,67,127
17416,note_on,0,0,0,,0,,,48,127
17520,note_off,104,0,0,,0,,,48,127
17521,note_on,1,0,0,,7,,,43,127
17625,note_off,104,0,0,,7,,,43,127
17625,note_off,0,0,0,,7,,,67,127
17626,note_on,1,0,0,,0,,,72,127
17626,note_on,0,0,0,,0,,,48,127
17730,note_off,104,0,0,,0,,,48,127
17731,note_on,1,0,0,,7,,,43,127
17835,note_off,104,0,0,,7,,,43,127
17836,note_on,1,0,0,,0,,,60,127
17836,note_on,0,0,0,,0,,,48,127
17940,note_off,104,0,0,,0,,,48,127
17941,note_on,1,0,0,,7,,,43,127
18041,note_off,100,0,0,,0,,,72,127
18044,note_off,3,0,0,,7,,,43,127
18045,note_on,1,0,0,,2,,,50,127
18149,note_off,104,0,0,,2,,,50,127
18150,note_off,1,0,0,,0,,,60,127
18150,note_on,0,0,0,,7,,,43,127
18254,note_off,104,0,0,,7,,,43,127
18255,note_on,1,0,0,,12,,,71,127
18255,note_on,0,0,0,,2,,,50,127
18359,note_off,104,0,0,,2,,,50,127
18360,note_on,1,0,0,,7,,,43,127
18464,note_off,104,0,0,,7,,,43,127
18464,note_off,0,0,0,,12,,,71,127
18465,note_on,1,0,0,,2,,,74,127
18465,note_on,0,0,0,,2,,,50,127
18569,note_off,104,0,0,,2,,,50,127
18570,note_on,1,0,0,,7,,,43,127
18674,note_off,104,0,0,,7,,,43,127
18675,note_on,1,0,0,,2,,,62,127
18675,note_on,0,0,0,,2,,,50,127
18779,note_off,104,0,0,,2,,,50,127
18780,note_on,1,0,0,,7,,,43,127
18880,note_off,100,0,0,,2,,,74,127
18883,note_off,3,0,0,,7,,,43,127
18884,note_on,1,0,0,,4,,,52,127
18988,note_off,104,0,0,,4,,,52,127
18989,note_off,1,0,0,,2,,,62,127
18989,note_on,0,0,0,,7,,,43,127
19093,note_off,104,0,0,,7,,,43,127
19094,note_on,1,0,0,,0,,,72,127
19094,note_on,0,0,0,,4,,,52,127
19198,note_off,104,0,0,,4,,,52,127
19199,note_on,1,0,0,,7,,,43,127
19303,note_off,104,0,0,,7,,,43,127
19303,note_off,0,0,0,,0,,,72,127
19304,note_on,1,0,0,,4,,,76,127
19304,note_on,0,0,0,,4,,,52,127
19408,note_off,104,0,0,,4,,,52,127
19409,note_on,1,0,0,,7,,,43,127
19513,note_off,104,0,0,,7,,,43,127
19514,note_on,1,0,0,,4,,,64,127
19514,note_on,0,0,0,,4,,,52,127
19618,note_off,104,0,0,,4,,,52,127
19619,note_on,1,0,0,,7,,,43,127
19719,note_off,100,0,0,,4,,,76,127
19722,note_off,3,0,0,,7,,,43,127
19723,note_on,1,0,0,,5,,,53,127
19827,note_off,104,0,0,,5,,,53,127
19828,note_off,1,0,0,,4,,,64,127
19828,note_on,0,0,0,,7,,,43,127
19932,note_off,104,0,0,,7,,,43,127
19933,note_on,1,0,0,,2,,,74,127
19933,note_on,0,0,0,,5,,,53,127
20037,note_off,104,0,0,,5,,,53,127
20038,note_on,1,0,0,,7,,,43,127
20142,note_off,104,0,0,,7,,,43,127
20142,note_off,0,0,0,,2,,,74,127
20143,note_on,1,0,0,,5,,,77,127
20143,note_on,0,0,0,,5,,,53,127
20247,note_off,104,0,0,,5,,,53,127
20248,note_on,1,0,0,,7,,,43,127
20352,note_off,104,0,0,,7,,,43,127
20353,note_on,1,0,0,,5,,,65,127
20353,note_on,0,0,0,,5,,,53,127
20457,note_off,104,0,0,,5,,,53,127
20458,note_on,1,0,0,,7,,,43,127
20558,note_off,100,0,0,,5,,,77,127
20561,note_off,3,0,0,,7,,,43,127
20561,note_off,0,0,0,,5,,,65,127
20562,note_on,1,0,0,,5,,,77,127
20562,note_on,0,0,0,,7,,,55,127
20770,note_off,208,0,0,,5,,,77,127
20771,note_on,1,0,0,,4,,,76,127
20875,note_off,104,0,0,,4,,,76,127
20876,note_on,1,0,0,,2,,,74,127
20980,note_off,104,0,0,,2,,,74,127
20980,note_off,0,0,0,,7,,,55,127
20981,note_on,1,0,0,,4,,,76,127
20981,note_on,0,0,0,,0,,,48,127
21085,note_off,104,0,0,,4,,,76,127
21086,note_on,1,0,0,,0,,,72,127
21190,note_off,104,0,0,,0,,,72,127
21191,note_on,1,0,0,,12,,,71,127
21295,note_off,104,0,0,,12,,,71,127
21296,note_on,1,0,0,,0,,,72,127
21400,note_off,104,0,0,,0,,,72,127
21400,note_off,0,0,0,,0,,,48,127
21401,note_on,1,0,0,,2,,,74,127
21401,note_on,0,0,0,,5,,,41,127
21505,note_off,104,0,0,,2,,,74,127
21506,note_on,1,0,0,,4,,,76,127
21610,note_off,104,0,0,,4,,,76,127
21611,note_on,1,0,0,,5,,,77,127
21715,note_off,104,0,0,,5,,,77,127
21716,note_on,1,0,0,,2,,,74,127
21820,note_off,104,0,0,,2,,,74,127
21820,note_off,0,0,0,,5,,,41,127
21821,note_on,1,0,0,,4,,,76,127
21821,note_on,0,0,0,,7,,,43,127
21925,note_off,104,0,0,,4,,,76,127
21926,note_on,1,0,0,,0,,,72,127
22030,note_off,104,0,0,,0,,,72,127
22031,note_on,1,0,0,,2,,,74,127
22135,note_off,104,0,0,,2,,,74,127
22136,note_on,1,0,0,,12,,,71,127
22240,note_off,104,0,0,,12,,,71,127
22240,note_off,0,0,0,,7,,,43,127
22241,note_on,1,0,0,,0,,,72,127
22241,note_on,0,0,0,,0,,,36,127
22345,note_off,104,0,0,,0,,,72,127
22346,note_on,1,0,0,,7,,,67,127
22450,note_off,104,0,0,,7,,,67,127
22451,note_on,1,0,0,,10,,,69,127
22555,note_off,104,0,0,,10,,,69,127
22556,note_on,1,0,0,,12,,,71,127
22660,note_off,104,0,0,,12,,,71,127
22661,note_on,1,0,0,,0,,,72,127
22765,note_off,104,0,0,,0,,,36,127
22766,note_on,1,0,0,,0,,,48,127
22870,note_off,104,0,0,,0,,,48,127
22871,note_on,1,0,0,,2,,,50,127
22975,note_off,104,0,0,,2,,,50,127
22976,note_on,1,0,0,,4,,,52,127
23080,note_off,104,0,0,,4,,,52,127
23080,note_off,0,0,0,,0,,,72,127
23081,note_on,1,0,0,,5,,,53,127
23186,note_on,105,0,0,,10,,,69,127
23290,note_off,104,0,0,,10,,,69,127
23291,note_on,1,0,0,,12,,,71,127
23395,note_off,104,0,0,,12,,,71,127
23396,note_on,1,0,0,,1,,,73,127
23500,note_off,104,0,0,,1,,,73,127
23501,note_on,1,0,0,,2,,,74,127
23605,note_off,104,0,0,,5,,,53,127
23606,note_on,1,0,0,,2,,,50,127
23710,note_off,104,0,0,,2,,,50,127
23711,note_on,1,0,0,,4,,,52,127
23815,note_off,104,0,0,,4,,,52,127
23816,note_on,1,0,0,,5,,,53,127
23920,note_off,104,0,0,,5,,,53,127
23920,note_off,0,0,0,,2,,,74,127
23921,note_on,1,0,0,,7,,,55,127
24026,note_on,105,0,0,,2,,,74,127
24130,note_off,104,0,0,,2,,,74,127
24131,note_on,1,0,0,,4,,,76,127
24235,note_off,104,0,0,,4,,,76,127
24236,note_on,1,0,0,,5,,,77,127
24340,note_off,104,0,0,,5,,,77,127
24340,note_off,0,0,0,,7,,,55,127
24341,note_on,1,0,0,,7,,,79,127
24341,note_on,0,0,0,,7,,,43,127
24445,note_off,104,0,0,,7,,,79,127
24446,note_on,1,0,0,,5,,,77,127
24550,note_off,104,0,0,,5,,,77,127
24551,note_on,1,0,0,,4,,,76,127
24655,note_off,104,0,0,,4,,,76,127
24656,note_on,1,0,0,,2,,,74,127
24760,note_off,104,0,0,,2,,,74,127
24760,note_off,0,0,0,,7,,,43,127
24761,note_on,1,0,0,,1,,,73,127
24761,note_on,0,0,0,,10,,,45,127
24865,note_off,104,0,0,,1,,,73,127
24866,note_on,1,0,0,,12,,,71,127
24970,note_off,104,0,0,,12,,,71,127
24971,note_on,1,0,0,,1,,,73,127
25075,note_off,104,0,0,,1,,,73,127
25076,note_on,1,0,0,,2,,,74,127
25180,note_off,104,0,0,,2,,,74,127
25180,note_off,0,0,0,,10,,,45,127
25181,note_on,1,0,0,,4,,,76,127
25181,note_on,0,0,0,,10,,,57,127
25251,note_off,70,0,0,,4,,,76,127
25286,note_on,35,0,0,,10,,,69,127
25390,note_off,104,0,0,,10,,,69,127
25391,note_on,1,0,0,,12,,,71,127
25495,note_off,104,0,0,,12,,,71,127
25496,note_on,1,0,0,,1,,,73,127
25600,note_off,104,0,0,,1,,,73,127
25600,note_off,0,0,0,,10,,,57,127
25601,note_on,1,0,0,,2,,,74,127
25601,note_on,0,0,0,,5,,,53,127
25705,note_off,104,0,0,,2,,,74,127
25706,note_on,1,0,0,,10,,,69,127
25810,note_off,104,0,0,,10,,,69,127
25811,note_on,1,0,0,,2,,,74,127
25915,note_off,104,0,0,,2,,,74,127
25916,note_on,1,0,0,,10,,,69,127
26020,note_off,104,0,0,,10,,,69,127
26020,note_off,0,0,0,,5,,,53,127
26021,note_on,1,0,0,,4,,,76,127
26021,note_on,0,0,0,,1,,,49,127
26125,note_off,104,0,0,,4,,,76,127
26126,note_on,1,0,0,,10,,,69,127
26230,note_off,104,0,0,,10,,,69,127
26231,note_on,1,0,0,,4,,,76,127
26335,note_off,104,0,0,,4,,,76,127
26336,note_on,1,0,0,,10,,,69,127
26440,note_off,104,0,0,,10,,,69,127
26440,note_off,0,0,0,,1,,,49,127
26441,note_on,1,0,0,,5,,,77,127
26441,note_on,0,0,0,,2,,,50,127
26545,note_off,104,0,0,,5,,,77,127
26546,note_on,1,0,0,,10,,,69,127
26650,note_off,104,0,0,,10,,,69,127
26651,note_on,1,0,0,,5,,,77,127
26755,note_off,104,0,0,,5,,,77,127
26756,note_on,1,0,0,,10,,,69,127
26860,note_off,104,0,0,,10,,,69,127
26860,note_off,0,0,0,,2,,,50,127
26861,note_on,1,0,0,,7,,,79,127
26861,note_on,0,0,0,,4,,,52,127
26965,note_off,104,0,0,,7,,,79,127
26966,note_on,1,0,0,,10,,,69,127
27070,note_off,104,0,0,,10,,,69,127
27071,note_on,1,0,0,,7,,,79,127
27175,note_off,104,0,0,,7,,,79,127
27176,note_on,1,0,0,,10,,,69,127
27280,note_off,104,0,0,,10,,,69,127
27280,note_off,0,0,0,,4,,,52,127
27281,note_on,1,0,0,,10,,,81,127
27281,note_on,0,0,0,,5,,,53,127
27385,note_off,104,0,0,,10,,,81,127
27386,note_on,1,0,0,,2,,,74,127
27490,note_off,104,0,0,,2,,,74,127
27490,note_off,0,0,0,,5,,,53,127
27491,note_on,1,0,0,,7,,,79,127
27491,note_on,0,0,0,,7,,,55,127
27595,note_off,104,0,0,,7,,,79,127
27596,note_on,1,0,0,,4,,,76,127
27700,note_off,104,0,0,,4,,,76,127
27700,note_off,0,0,0,,7,,,55,127
27701,note_on,1,0,0,,5,,,77,127
27701,note_on,0,0,0,,10,,,57,127
27805,note_off,104,0,0,,5,,,77,127
27806,note_on,1,0,0,,2,,,74,127
27910,note_off,104,0,0,,2,,,74,127
27910,note_off,0,0,0,,10,,,57,127
27911,note_on,1,0,0,,4,,,76,127
27911,note_on,0,0,0,,10,,,45,127
28015,note_off,104,0,0,,4,,,76,127
28016,note_on,1,0,0,,1,,,73,127
28120,note_off,104,0,0,,1,,,73,127
28120,note_off,0,0,0,,10,,,45,127
28121,note_on,1,0,0,,2,,,74,127
28121,note_on,0,0,0,,2,,,50,127
28191,note_off,70,0,0,,2,,,74,127
28226,note_on,35,0,0,,10,,,69,127
28330,note_off,104,0,0,,10,,,69,127
28331,note_on,1,0,0,,12,,,71,127
28435,note_off,104,0,0,,12,,,71,127
28436,note_on,1,0,0,,1,,,73,127
28540,note_off,104,0,0,,1,,,73,127
28541,note_on,1,0,0,,2,,,74,127
28645,note_off,104,0,0,,2,,,50,127
28646,note_on,1,0,0,,2,,,50,127
28750,note_off,104,0,0,,2,,,50,127
28751,note_on,1,0,0,,4,,,52,127
28855,note_off,104,0,0,,4,,,52,127
28856,note_on,1,0,0,,6,,,54,127
28960,note_off,104,0,0,,6,,,54,127
28960,note_off,0,0,0,,2,,,74,127
28961,note_on,1,0,0,,7,,,55,127
29066,note_on,105,0,0,,2,,,62,127
29170,note_off,104,0,0,,2,,,62,127
29171,note_on,1,0,0,,4,,,64,127
29275,note_off,104,0,0,,4,,,64,127
29276,note_on,1,0,0,,6,,,66,127
29380,note_off,104,0,0,,6,,,66,127
29381,note_on,1,0,0,,7,,,67,127
29485,note_off,104,0,0,,7,,,55,127
29486,note_on,1,0,0,,7,,,43,127
29590,note_off,104,0,0,,7,,,43,127
29591,note_on,1,0,0,,10,,,45,127
29695,note_off,104,0,0,,10,,,45,127
29696,note_on,1,0,0,,12,,,47,127
29800,note_off,104,0,0,,12,,,47,127
29800,note_off,0,0,0,,7,,,67,127
29801,note_on,1,0,0,,0,,,48,127
29906,note_on,105,0,0,,7,,,67,127
30010,note_off,104,0,0,,7,,,67,127
30011,note_on,1,0,0,,10,,,69,127
30115,note_off,104,0,0,,10,,,69,127
30116,note_on,1,0,0,,12,,,71,127
30220,note_off,104,0,0,,12,,,71,127
30221,note_on,1,0,0,,0,,,72,127
30325,note_off,104,0,0,,0,,,48,127
30326,note_on,1,0,0,,0,,,48,127
30430,note_off,104,0,0,,0,,,48,127
30431,note_on,1,0,0,,2,,,50,127
30535,note_off,104,0,0,,2,,,50,127
30536,note_on,1,0,0,,4,,,52,127
30640,note_off,104,0,0,,4,,,52,127
30640,note_off,0,0,0,,0,,,72,127
30641,note_on,1,0,0,,5,,,53,127
30746,note_on,105,0,0,,0,,,72,127
30850,note_off,104,0,0,,0,,,72,127
30851,note_on,1,0,0,,2,,,74,127
30955,note_off,104,0,0,,2,,,74,127
30956,note_on,1,0,0,,4,,,76,127
31060,note_off,104,0,0,,4,,,76,127
31061,note_on,1,0,0,,5,,,77,127
31165,note_off,104,0,0,,5,,,53,127
31166,note_on,1,0,0,,5,,,53,127
31270,note_off,104,0,0,,5,,,53,127
31271,note_on,1,0,0,,7,,,55,127
31375,note_off,104,0,0,,7,,,55,127
31376,note_on,1,0,0,,10,,,57,127
31480,note_off,104,0,0,,10,,,57,127
31480,note_off,0,0,0,,5,,,77,127
31481,note_on,1,0,0,,11,,,58,127
31586,note_on,105,0,0,,5,,,77,127
31690,note_off,104,0,0,,5,,,77,127
31691,note_on,1,0,0,,7,,,79,127
31795,note_off,104,0,0,,7,,,79,127
31796,note_on,1,0,0,,10,,,81,127
31900,note_off,104,0,0,,10,,,81,127
31901,note_on,1,0,0,,11,,,82,127
32005,note_off,104,0,0,,11,,,82,127
32006,note_on,1,0,0,,10,,,81,127
32110,note_off,104,0,0,,10,,,81,127
32110,note_off,0,0,0,,11,,,58,127
32111,note_on,1,0,0,,7,,,79,127
32111,note_on,0,0,0,,11,,,46,127
32215,note_off,104,0,0,,7,,,79,127
32216,note_on,1,0,0,,5,,,77,127
32320,note_off,104,0,0,,5,,,77,127
32320,note_off,0,0,0,,11,,,46,127
32321,note_on,1,0,0,,3,,,75,127
32321,note_on,0,0,0,,0,,,48,127
32425,note_off,104,0,0,,3,,,75,127
32426,note_on,1,0,0,,0,,,72,127
32530,note_off,104,0,0,,0,,,72,127
32531,note_on,1,0,0,,3,,,75,127
32635,note_off,104,0,0,,3,,,75,127
32636,note_on,1,0,0,,7,,,79,127
32740,note_off,104,0,0,,7,,,79,127
32741,note_on,1,0,0,,0,,,84,127
32845,note_off,104,0,0,,0,,,84,127
32846,note_on,1,0,0,,11,,,82,127
32950,note_off,104,0,0,,11,,,82,127
32950,note_off,0,0,0,,0,,,48,127
32951,note_on,1,0,0,,10,,,81,127
32951,note_on,0,0,0,,0,,,48,127
33055,note_off,104,0,0,,10,,,81,127
33056,note_on,1,0,0,,7,,,79,127
33160,note_off,104,0,0,,7,,,79,127
33160,note_off,0,0,0,,0,,,48,127
33161,note_on,1,0,0,,6,,,78,127
33161,note_on,0,0,0,,2,,,50,127
33265,note_off,104,0,0,,6,,,78,127
33266,note_on,1,0,0,,4,,,76,127
33370,note_off,104,0,0,,4,,,76,127
33371,note_on,1,0,0,,6,,,78,127
33475,note_off,104,0,0,,6,,,78,127
33476,note_on,1,0,0,,7,,,79,127
33580,note_off,104,0,0,,7,,,79,127
33581,note_on,1,0,0,,10,,,81,127
33685,note_off,104,0,0,,2,,,50,127
33686,note_on,1,0,0,,2,,,50,127
33790,note_off,104,0,0,,2,,,50,127
33790,note_off,0,0,0,,10,,,81,127
33791,note_on,1,0,0,,2,,,74,127
33791,note_on,0,0,0,,4,,,52,127
33895,note_off,104,0,0,,4,,,52,127
33896,note_on,1,0,0,,6,,,54,127
34000,note_off,104,0,0,,6,,,54,127
34001,note_on,1,0,0,,7,,,55,127
34105,note_off,104,0,0,,7,,,55,127
34106,note_off,1,0,0,,2,,,74,127
34106,note_on,0,0,0,,2,,,50,127
34210,note_off,104,0,0,,2,,,50,127
34211,note_on,1,0,0,,2,,,74,127
34211,note_on,0,0,0,,7,,,55,127
34315,note_off,104,0,0,,7,,,55,127
34316,note_on,1,0,0,,2,,,50,127
34420,note_off,104,0,0,,2,,,50,127
34420,note_off,0,0,0,,2,,,74,127
34421,note_on,1,0,0,,7,,,79,127
34421,note_on,0,0,0,,7,,,55,127
34525,note_off,104,0,0,,7,,,55,127
34526,note_on,1,0,0,,2,,,50,127
34630,note_off,104,0,0,,2,,,50,127
34631,note_on,1,0,0,,7,,,67,127
34631,note_on,0,0,0,,7,,,55,127
34735,note_off,104,0,0,,7,,,55,127
34736,note_on,1,0,0,,2,,,50,127
34836,note_off,100,0,0,,7,,,79,127
34839,note_off,3,0,0,,2,,,50,127
34840,note_on,1,0,0,,10,,,57,127
34944,note_off,104,0,0,,10,,,57,127
34945,note_off,1,0,0,,7,,,67,127
34945,note_on,0,0,0,,2,,,50,127
35049,note_off,104,0,0,,2,,,50,127
35050,note_on,1,0,0,,6,,,78,127
35050,note_on,0,0,0,,10,,,57,127
35154,note_off,104,0,0,,10,,,57,127
35155,note_on,1,0,0,,2,,,50,127
35259,note_off,104,0,0,,2,,,50,127
35259,note_off,0,0,0,,6,,,78,127
35260,note_on,1,0,0,,10,,,81,127
35260,note_on,0,0,0,,10,,,57,127
35364,note_off,104,0,0,,10,,,57,127
35365,note_on,1,0,0,,2,,,50,127
35469,note_off,104,0,0,,2,,,50,127
35470,note_on,1,0,0,,10,,,69,127
35470,note_on,0,0,0,,10,,,57,127
35574,note_off,104,0,0,,10,,,57,127
35575,note_on,1,0,0,,2,,,50,127
35675,note_off,100,0,0,,10,,,81,127
35678,note_off,3,0,0,,2,,,50,127
35679,note_on,1,0,0,,11,,,58,127
35783,note_off,104,0,0,,11,,,58,127
35784,note_off,1,0,0,,10,,,69,127
35784,note_on,0,0,0,,2,,,50,127
35888,note_off,104,0,0,,2,,,50,127
35889,note_on,1,0,0,,7,,,79,127
35889,note_on,0,0,0,,11,,,58,127
35993,note_off,104,0,0,,11,,,58,127
35994,note_on,1,0,0,,2,,,50,127
36098,note_off,104,0,0,,2,,,50,127
36098,note_off,0,0,0,,7,,,79,127
36099,note_on,1,0,0,,11,,,82,127
36099,note_on,0,0,0,,11,,,58,127
36203,note_off,104,0,0,,11,,,58,127
36204,note_on,1,0,0,,2,,,50,127
36308,note_off,104,0,0,,2,,,50,127
36309,note_on,1,0,0,,11,,,70,127
36309,note_on,0,0,0,,11,,,58,127
36413,note_off,104,0,0,,11,,,58,127
36414,note_on,1,0,0,,2,,,50,127
36514,note_off,100,0,0,,11,,,82,127
36517,note_off,3,0,0,,2,,,50,127
36518,note_on,1,0,0,,0,,,60,127
36622,note_off,104,0,0,,0,,,60,127
36623,note_off,1,0,0,,11,,,70,127
36623,note_on,0,0,0,,2,,,50,127
36727,note_off,104,0,0,,2,,,50,127
36728,note_on,1,0,0,,10,,,81,127
36728,note_on,0,0,0,,0,,,60,127
36832,note_off,104,0,0,,0,,,60,127
36833,note_on,1,0,0,,2,,,50,127
36937,note_off,104,0,0,,2,,,50,127
36937,note_off,0,0,0,,10,,,81,127
36938,note_on,1,0,0,,0,,,84,127
36938,note_on,0,0,0,,0,,,60,127
37042,note_off,104,0,0,,0,,,60,127
37043,note_on,1,0,0,,2,,,50,127
37147,note_off,104,0,0,,2,,,50,127
37148,note_on,1,0,0,,0,,,72,127
37148,note_on,0,0,0,,0,,,60,127
37252,note_off,104,0,0,,0,,,60,127
37253,note_on,1,0,0,,2,,,50,127
37353,note_off,100,0,0,,0,,,84,127
37356,note_off,3,0,0,,2,,,50,127
37356,note_off,0,0,0,,0,,,72,127
37357,note_on,1,0,0,,0,,,84,127
37357,note_on,0,0,0,,2,,,62,127
37565,note_off,208,0,0,,0,,,84,127
37566,note_on,1,0,0,,11,,,82,127
37670,note_off,104,0,0,,11,,,82,127
37671,note_on,1,0,0,,10,,,81,127
37775,note_off,104,0,0,,10,,,81,127
37775,note_off,0,0,0,,2,,,62,127
37776,note_on,1,0,0,,11,,,82,127
37776,note_on,0,0,0,,7,,,55,127
37880,note_off,104,0,0,,11,,,82,127
37881,note_on,1,0,0,,7,,,79,127
37985,note_off,104,0,0,,7,,,79,127
37986,note_on,1,0,0,,6,,,78,127
38090,note_off,104,0,0,,6,,,78,127
38091,note_on,1,0,0,,7,,,79,127
38195,note_off,104,0,0,,7,,,79,127
38195,note_off,0,0,0,,7,,,55,127
38196,note_on,1,0,0,,10,,,81,127
38196,note_on,0,0,0,,0,,,48,127
38300,note_off,104,0,0,,10,,,81,127
38301,note_on,1,0,0,,11,,,82,127
38405,note_off,104,0,0,,11,,,82,127
38406,note_on,1,0,0,,0,,,84,127
38510,note_off,104,0,0,,0,,,84,127
38511,note_on,1,0,0,,10,,,81,127
38615,note_off,104,0,0,,10,,,81,127
38615,note_off,0,0,0,,0,,,48,127
38616,note_on,1,0,0,,11,,,82,127
38616,note_on,0,0,0,,2,,,50,127
38720,note_off,104,0,0,,11,,,82,127
38721,note_on,1,0,0,,7,,,79,127
38825,note_off,104,0,0,,7,,,79,127
38826,note_on,1,0,0,,10,,,81,127
38930,note_off,104,0,0,,10,,,81,127
38931,note_on,1,0,0,,6,,,78,127
39035,note_off,104,0,0,,6,,,78,127
39035,note_off,0,0,0,,2,,,50,127
39036,note_on,1,0,0,,7,,,79,127
39036,note_on,0,0,0,,7,,,43,127
39140,note_off,104,0,0,,7,,,79,127
39141,note_on,1,0,0,,2,,,74,127
39245,note_off,104,0,0,,2,,,74,127
39246,note_on,1,0,0,,4,,,76,127
39350,note_off,104,0,0,,4,,,76,127
39351,note_on,1,0,0,,6,,,78,127
39455,note_off,104,0,0,,6,,,78,127
39456,note_on,1,0,0,,7,,,79,127
39560,note_off,104,0,0,,7,,,43,127
39561,note_on,1,0,0,,7,,,55,127
39665,note_off,104,0,0,,7,,,55,127
39666,note_on,1,0,0,,10,,,57,127
39770,note_off,104,0,0,,10,,,57,127
39771,note_on,1,0,0,,12,,,59,127
39875,note_off,104,0,0,,12,,,59,127
39876,note_on,1,0,0,,0,,,60,127
39948,note_off,72,0,0,,7,,,79,127
39981,note_on,33,0,0,,5,,,77,127
40085,note_off,104,0,0,,5,,,77,127
40086,note_on,1,0,0,,4,,,76,127
40190,note_off,104,0,0,,4,,,76,127
40191,note_on,1,0,0,,2,,,74,127
40295,note_off,104,0,0,,2,,,74,127
40295,note_off,0,0,0,,0,,,60,127
40296,note_on,1,0,0,,0,,,72,127
40296,note_on,0,0,0,,0,,,48,127
40400,note_off,104,0,0,,0,,,72,127
40401,note_on,1,0,0,,12,,,71,127
40505,note_off,104,0,0,,12,,,71,127
40506,note_on,1,0,0,,10,,,69,127
40610,note_off,104,0,0,,10,,,69,127
40611,note_on,1,0,0,,7,,,67,127
40715,note_off,104,0,0,,7,,,67,127
40715,note_off,0,0,0,,0,,,48,127
40716,note_on,1,0,0,,10,,,69,127
40716,note_on,0,0,0,,5,,,53,127
40820,note_off,104,0,0,,10,,,69,127
40821,note_on,1,0,0,,5,,,65,127
40925,note_off,104,0,0,,5,,,65,127
40926,note_on,1,0,0,,10,,,69,127
41030,note_off,104,0,0,,10,,,69,127
41031,note_on,1,0,0,,0,,,72,127
41135,note_off,104,0,0,,0,,,72,127
41136,note_on,1,0,0,,5,,,77,127
41240,note_off,104,0,0,,5,,,53,127
41241,note_on,1,0,0,,5,,,53,127
41345,note_off,104,0,0,,5,,,53,127
41346,note_on,1,0,0,,7,,,55,127
41450,note_off,104,0,0,,7,,,55,127
41451,note_on,1,0,0,,10,,,57,127
41555,note_off,104,0,0,,10,,,57,127
41556,note_on,1,0,0,,12,,,59,127
41660,note_off,104,0,0,,5,,,77,127
41661,note_on,1,0,0,,4,,,76,127
41765,note_off,104,0,0,,4,,,76,127
41766,note_on,1,0,0,,2,,,74,127
41870,note_off,104,0,0,,2,,,74,127
41871,note_on,1,0,0,,0,,,72,127
41975,note_off,104,0,0,,0,,,72,127
41975,note_off,0,0,0,,12,,,59,127
41976,note_on,1,0,0,,12,,,71,127
41976,note_on,0,0,0,,12,,,47,127
42080,note_off,104,0,0,,12,,,71,127
42081,note_on,1,0,0,,10,,,69,127
42185,note_off,104,0,0,,10,,,69,127
42186,note_on,1,0,0,,8,,,68,127
42290,note_off,104,0,0,,8,,,68,127
42291,note_on,1,0,0,,6,,,66,127
42395,note_off,104,0,0,,6,,,66,127
42395,note_off,0,0,0,,12,,,47,127
42396,note_on,1,0,0,,8,,,68,127
42396,note_on,0,0,0,,4,,,52,127
42500,note_off,104,0,0,,8,,,68,127
42501,note_on,1,0,0,,4,,,64,127
42605,note_off,104,0,0,,4,,,64,127
42606,note_on,1,0,0,,8,,,68,127
42710,note_off,104,0,0,,8,,,68,127
42711,note_on,1,0,0,,12,,,71,127
42815,note_off,104,0,0,,12,,,71,127
42816,note_on,1,0,0,,4,,,76,127
42920,note_off,104,0,0,,4,,,52,127
42921,note_on,1,0,0,,4,,,52,127
43025,note_off,104,0,0,,4,,,52,127
43026,note_on,1,0,0,,6,,,54,127
43130,note_off,104,0,0,,6,,,54,127
43131,note_on,1,0,0,,8,,,56,127
43235,note_off,104,0,0,,8,,,56,127
43236,note_on,1,0,0,,10,,,57,127
43340,note_off,104,0,0,,4,,,76,127
43341,note_on,1,0,0,,2,,,74,127
43445,note_off,104,0,0,,2,,,74,127
43446,note_on,1,0,0,,0,,,72,127
43550,note_off,104,0,0,,0,,,72,127
43551,note_on,1,0,0,,12,,,71,127
43655,note_off,104,0,0,,12,,,71,127
43655,note_off,0,0,0,,10,,,57,127
43656,note_on,1,0,0,,10,,,69,127
43656,note_on,0,0,0,,10,,,45,127
43760,note_off,104,0,0,,10,,,69,127
43761,note_on,1,0,0,,7,,,67,127
43865,note_off,104,0,0,,7,,,67,127
43866,note_on,1,0,0,,5,,,65,127
43970,note_off,104,0,0,,5,,,65,127
43971,note_on,1,0,0,,4,,,64,127
44075,note_off,104,0,0,,4,,,64,127
44075,note_off,0,0,0,,10,,,45,127
44076,note_on,1,0,0,,5,,,65,127
44076,note_on,0,0,0,,2,,,50,127
44180,note_off,104,0,0,,5,,,65,127
44181,note_on,1,0,0,,2,,,62,127
44285,note_off,104,0,0,,2,,,62,127
44286,note_on,1,0,0,,5,,,65,127
44390,note_off,104,0,0,,5,,,65,127
44391,note_on,1,0,0,,10,,,69,127
44495,note_off,104,0,0,,10,,,69,127
44496,note_on,1,0,0,,2,,,74,127
44600,note_off,104,0,0,,2,,,50,127
44601,note_on,1,0,0,,2,,,62,127
44705,note_off,104,0,0,,2,,,62,127
44706,note_on,1,0,0,,0,,,60,127
44810,note_off,104,0,0,,0,,,60,127
44811,note_on,1,0,0,,2,,,62,127
44915,note_off,104,0,0,,2,,,62,127
44916,note_on,1,0,0,,12,,,59,127
44999,note_off,83,0,0,,2,,,74,127
45020,note_off,21,0,0,,12,,,59,127
45021,note_on,1,0,0,,4,,,76,127
45021,note_on,0,0,0,,0,,,60,127
45125,note_off,104,0,0,,0,,,60,127
45125,note_off,0,0,0,,4,,,76,127
45126,note_on,1,0,0,,0,,,72,127
45126,note_on,0,0,0,,10,,,57,127
45230,note_off,104,0,0,,10,,,57,127
45230,note_off,0,0,0,,0,,,72,127
45231,note_on,1,0,0,,2,,,74,127
45231,note_on,0,0,0,,12,,,59,127
45335,note_off,104,0,0,,12,,,59,127
45335,note_off,0,0,0,,2,,,74,127
45336,note_on,1,0,0,,12,,,71,127
45336,note_on,0,0,0,,7,,,55,127
45440,note_off,104,0,0,,7,,,55,127
45440,note_off,0,0,0,,12,,,71,127
45441,note_on,1,0,0,,0,,,72,127
45441,note_on,0,0,0,,10,,,57,127
45545,note_off,104,0,0,,10,,,57,127
45545,note_off,0,0,0,,0,,,72,127
45546,note_on,1,0,0,,10,,,69,127
45546,note_on,0,0,0,,5,,,53,127
45650,note_off,104,0,0,,5,,,53,127
45650,note_off,0,0,0,,10,,,69,127
45651,note_on,1,0,0,,12,,,71,127
45651,note_on,0,0,0,,7,,,55,127
45755,note_off,104,0,0,,7,,,55,127
45755,note_off,0,0,0,,12,,,71,127
45756,note_on,1,0,0,,7,,,67,127
45756,note_on,0,0,0,,4,,,52,127
45860,note_off,104,0,0,,7,,,67,127
45861,note_on,1,0,0,,0,,,60,127
45965,note_off,104,0,0,,0,,,60,127
45966,note_on,1,0,0,,4,,,64,127
46070,note_off,104,0,0,,4,,,64,127
46071,note_on,1,0,0,,7,,,67,127
46175,note_off,104,0,0,,7,,,67,127
46176,note_on,1,0,0,,0,,,72,127
46280,note_off,104,0,0,,4,,,52,127
46281,note_on,1,0,0,,0,,,60,127
46385,note_off,104,0,0,,0,,,60,127
46386,note_on,1,0,0,,11,,,58,127
46490,note_off,104,0,0,,11,,,58,127
46491,note_on,1,0,0,,0,,,60,127
46595,note_off,104,0,0,,0,,,60,127
46596,note_on,1,0,0,,10,,,57,127
46700,note_off,104,0,0,,10,,,57,127
46700,note_off,0,0,0,,0,,,72,127
46701,note_on,1,0,0,,2,,,74,127
46701,note_on,0,0,0,,11,,,58,127
46805,note_off,104,0,0,,11,,,58,127
46805,note_off,0,0,0,,2,,,74,127
46806,note_on,1,0,0,,11,,,70,127
46806,note_on,0,0,0,,7,,,55,127
46910,note_off,104,0,0,,7,,,55,127
46910,note_off,0,0,0,,11,,,70,127
46911,note_on,1,0,0,,0,,,72,127
46911,note_on,0,0,0,,10,,,57,127
47015,note_off,104,0,0,,10,,,57,127
47015,note_off,0,0,0,,0,,,72,127
47016,note_on,1,0,0,,10,,,69,127
47016,note_on,0,0,0,,5,,,53,127
47120,note_off,104,0,0,,5,,,53,127
47120,note_off,0,0,0,,10,,,69,127
47121,note_on,1,0,0,,11,,,70,127
47121,note_on,0,0,0,,7,,,55,127
47225,note_off,104,0,0,,7,,,55,127
47225,note_off,0,0,0,,11,,,70,127
47226,note_on,1,0,0,,7,,,67,127
47226,note_on,0,0,0,,4,,,52,127
47330,note_off,104,0,0,,4,,,52,127
47330,note_off,0,0,0,,7,,,67,127
47331,note_on,1,0,0,,10,,,69,127
47331,note_on,0,0,0,,5,,,53,127
47401,note_off,70,0,0,,10,,,69,127
47435,note_off,34,0,0,,5,,,53,127
47436,note_on,1,0,0,,5,,,65,127
47436,note_on,0,0,0,,2,,,50,127
47540,note_off,104,0,0,,5,,,65,127
47541,note_on,1,0,0,,7,,,67,127
47645,note_off,104,0,0,,7,,,67,127
47646,note_on,1,0,0,,10,,,69,127
47750,note_off,104,0,0,,10,,,69,127
47751,note_on,1,0,0,,11,,,70,127
47855,note_off,104,0,0,,11,,,70,127
47855,note_off,0,0,0,,2,,,50,127
47856,note_on,1,0,0,,0,,,72,127
47856,note_on,0,0,0,,0,,,48,127
47960,note_off,104,0,0,,0,,,72,127
47961,note_on,1,0,0,,2,,,74,127
48065,note_off,104,0,0,,2,,,74,127
48066,note_on,1,0,0,,4,,,76,127
48170,note_off,104,0,0,,4,,,76,127
48171,note_on,1,0,0,,0,,,72,127
48275,note_off,104,0,0,,0,,,72,127
48275,note_off,0,0,0,,0,,,48,127
48276,note_on,1,0,0,,5,,,77,127
48276,note_on,0,0,0,,2,,,50,127
48380,note_off,104,0,0,,2,,,50,127
48381,note_on,1,0,0,,4,,,52,127
48485,note_off,104,0,0,,4,,,52,127
48486,note_on,1,0,0,,5,,,53,127
48590,note_off,104,0,0,,5,,,53,127
48591,note_on,1,0,0,,7,,,55,127
48695,note_off,104,0,0,,7,,,55,127
48695,note_off,0,0,0,,5,,,77,127
48696,note_on,1,0,0,,4,,,76,127
48696,note_on,0,0,0,,10,,,57,127
48800,note_off,104,0,0,,10,,,57,127
48801,note_on,1,0,0,,11,,,58,127
48905,note_off,104,0,0,,11,,,58,127
48906,note_on,1,0,0,,0,,,60,127
49010,note_off,104,0,0,,0,,,60,127
49011,note_on,1,0,0,,10,,,57,127
49115,note_off,104,0,0,,10,,,57,127
49115,note_off,0,0,0,,4,,,76,127
49116,note_on,1,0,0,,2,,,74,127
49116,note_on,0,0,0,,11,,,58,127
49220,note_off,104,0,0,,2,,,74,127
49221,note_on,1,0,0,,4,,,76,127
49325,note_off,104,0,0,,4,,,76,127
49326,note_on,1,0,0,,5,,,77,127
49430,note_off,104,0,0,,5,,,77,127
49431,note_on,1,0,0,,7,,,79,127
49535,note_off,104,0,0,,7,,,79,127
49535,note_off,0,0,0,,11,,,58,127
49536,note_on,1,0,0,,10,,,81,127
49536,note_on,0,0,0,,10,,,57,127
49640,note_off,104,0,0,,10,,,81,127
49641,note_on,1,0,0,,11,,,82,127
49745,note_off,104,0,0,,11,,,82,127
49746,note_on,1,0,0,,0,,,84,127
49850,note_off,104,0,0,,0,,,84,127
49851,note_on,1,0,0,,10,,,81,127
49955,note_off,104,0,0,,10,,,81,127
49955,note_off,0,0,0,,10,,,57,127
49956,note_on,1,0,0,,11,,,82,127
49956,note_on,0,0,0,,7,,,55,127
50060,note_off,104,0,0,,11,,,82,127
50061,note_on,1,0,0,,10,,,81,127
50165,note_off,104,0,0,,10,,,81,127
50166,note_on,1,0,0,,7,,,79,127
50270,note_off,104,0,0,,7,,,79,127
50271,note_on,1,0,0,,5,,,77,127
50375,note_off,104,0,0,,5,,,77,127
50375,note_off,0,0,0,,7,,,55,127
50376,note_on,1,0,0,,4,,,76,127
50376,note_on,0,0,0,,0,,,48,127
50480,note_off,104,0,0,,4,,,76,127
50481,note_on,1,0,0,,2,,,74,127
50585,note_off,104,0,0,,2,,,74,127
50586,note_on,1,0,0,,0,,,72,127
50690,note_off,104,0,0,,0,,,72,127
50691,note_on,1,0,0,,11,,,70,127
50795,note_off,104,0,0,,11,,,70,127
50795,note_off,0,0,0,,0,,,48,127
50796,note_on,1,0,0,,10,,,69,127
50796,note_on,0,0,0,,5,,,53,127
50900,note_off,104,0,0,,10,,,69,127
50901,note_on,1,0,0,,7,,,67,127
51005,note_off,104,0,0,,7,,,67,127
51006,note_on,1,0,0,,10,,,69,127
51110,note_off,104,0,0,,10,,,69,127
51111,note_on,1,0,0,,11,,,70,127
51215,note_off,104,0,0,,11,,,70,127
51216,note_on,1,0,0,,0,,,72,127
51320,note_off,104,0,0,,5,,,53,127
51321,note_on,1,0,0,,0,,,48,127
51425,note_off,104,0,0,,0,,,48,127
51426,note_on,1,0,0,,2,,,50,127
51530,note_off,104,0,0,,2,,,50,127
51531,note_on,1,0,0,,4,,,52,127
51635,note_off,104,0,0,,4,,,52,127
51635,note_off,0,0,0,,0,,,72,127
51636,note_on,1,0,0,,5,,,53,127
51740,note_off,104,0,0,,5,,,53,127
51741,note_on,1,0,0,,0,,,48,127
51845,note_off,104,0,0,,0,,,48,127
51846,note_on,1,0,0,,0,,,72,127
51846,note_on,0,0,0,,5,,,53,127
51950,note_off,104,0,0,,5,,,53,127
51951,note_on,1,0,0,,0,,,48,127
52055,note_off,104,0,0,,0,,,48,127
52055,note_off,0,0,0,,0,,,72,127
52056,note_on,1,0,0,,5,,,77,127
52056,note_on,0,0,0,,5,,,53,127
52160,note_off,104,0,0,,5,,,53,127
52161,note_on,1,0,0,,0,,,48,127
52265,note_off,104,0,0,,0,,,48,127
52266,note_on,1,0,0,,5,,,65,127
52266,note_on,0,0,0,,5,,,53,127
52370,note_off,104,0,0,,5,,,53,127
52371,note_on,1,0,0,,0,,,48,127
52471,note_off,100,0,0,,5,,,77,127
52474,note_off,3,0,0,,0,,,48,127
52475,note_on,1,0,0,,7,,,55,127
52579,note_off,104,0,0,,7,,,55,127
52580,note_off,1,0,0,,5,,,65,127
52580,note_on,0,0,0,,0,,,48,127
52684,note_off,104,0,0,,0,,,48,127
52685,note_on,1,0,0,,4,,,76,127
52685,note_on,0,0,0,,7,,,55,127
52789,note_off,104,0,0,,7,,,55,127
52790,note_on,1,0,0,,0,,,48,127
52894,note_off,104,0,0,,0,,,48,127
52894,note_off,0,0,0,,4,,,76,127
52895,note_on,1,0,0,,7,,,79,127
52895,note_on,0,0,0,,7,,,55,127
52999,note_off,104,0,0,,7,,,55,127
53000,note_on,1,0,0,,0,,,48,127
53104,note_off,104,0,0,,0,,,48,127
53105,note_on,1,0,0,,7,,,67,127
53105,note_on,0,0,0,,7,,,55,127
53209,note_off,104,0,0,,7,,,55,127
53210,note_on,1,0,0,,0,,,48,127
53310,note_off,100,0,0,,7,,,79,127
53313,note_off,3,0,0,,0,,,48,127
53313,note_off,0,0,0,,7,,,67,127
53314,note_on,1,0,0,,10,,,57,127
53419,note_on,105,0,0,,0,,,72,127
53523,note_off,104,0,0,,0,,,72,127
53524,note_on,1,0,0,,2,,,74,127
53628,note_off,104,0,0,,2,,,74,127
53629,note_on,1,0,0,,4,,,76,127
53733,note_off,104,0,0,,4,,,76,127
53734,note_on,1,0,0,,5,,,77,127
53838,note_off,104,0,0,,5,,,77,127
53839,note_on,1,0,0,,0,,,72,127
53943,note_off,104,0,0,,0,,,72,127
53943,note_off,0,0,0,,10,,,57,127
53944,note_on,1,0,0,,5,,,77,127
53944,note_on,0,0,0,,5,,,53,127
54048,note_off,104,0,0,,5,,,77,127
54049,note_on,1,0,0,,0,,,72,127
54153,note_off,104,0,0,,0,,,72,127
54153,note_off,0,0,0,,5,,,53,127
54154,note_on,1,0,0,,7,,,79,127
54154,note_on,0,0,0,,4,,,52,127
54258,note_off,104,0,0,,7,,,79,127
54259,note_on,1,0,0,,0,,,72,127
54363,note_off,104,0,0,,0,,,72,127
54363,note_off,0,0,0,,4,,,52,127
54364,note_on,1,0,0,,7,,,79,127
54364,note_on,0,0,0,,0,,,48,127
54468,note_off,104,0,0,,7,,,79,127
54469,note_on,1,0,0,,0,,,72,127
54573,note_off,104,0,0,,0,,,72,127
54573,note_off,0,0,0,,0,,,48,127
54574,note_on,1,0,0,,10,,,81,127
54574,note_on,0,0,0,,5,,,53,127
54678,note_off,104,0,0,,10,,,81,127
54679,note_on,1,0,0,,0,,,72,127
54783,note_off,104,0,0,,0,,,72,127
54783,note_off,0,0,0,,5,,,53,127
54784,note_on,1,0,0,,10,,,81,127
54784,note_on,0,0,0,,5,,,41,127
54888,note_off,104,0,0,,10,,,81,127
54889,note_on,1,0,0,,0,,,72,127
54993,note_off,104,0,0,,0,,,72,127
54993,note_off,0,0,0,,5,,,41,127
54994,note_on,1,0,0,,7,,,79,127
54994,note_on,0,0,0,,0,,,48,127
55098,note_off,104,0,0,,7,,,79,127
55099,note_on,1,0,0,,5,,,77,127
55203,note_off,104,0,0,,5,,,77,127
55204,note_on,1,0,0,,4,,,76,127
55308,note_off,104,0,0,,4,,,76,127
55309,note_on,1,0,0,,2,,,74,127
55413,note_off,104,0,0,,2,,,74,127
55414,note_on,1,0,0,,0,,,72,127
55518,note_off,104,0,0,,0,,,48,127
55519,note_on,1,0,0,,2,,,50,127
55623,note_off,104,0,0,,2,,,50,127
55624,note_on,1,0,0,,4,,,52,127
55728,note_off,104,0,0,,4,,,52,127
55729,note_off,1,0,0,,0,,,72,127
55729,note_on,0,0,0,,6,,,54,127
55833,note_off,104,0,0,,6,,,54,127
55834,note_on,1,0,0,,7,,,55,127
55939,note_on,105,0,0,,2,,,74,127
56043,note_off,104,0,0,,2,,,74,127
56044,note_on,1,0,0,,4,,,76,127
56148,note_off,104,0,0,,4,,,76,127
56149,note_on,1,0,0,,6,,,78,127
56253,note_off,104,0,0,,6,,,78,127
56254,note_on,1,0,0,,7,,,79,127
56358,note_off,104,0,0,,7,,,79,127
56359,note_on,1,0,0,,2,,,74,127
56463,note_off,104,0,0,,2,,,74,127
56463,note_off,0,0,0,,7,,,55,127
56464,note_on,1,0,0,,7,,,79,127
56464,note_on,0,0,0,,7,,,55,127
56568,note_off,104,0,0,,7,,,79,127
56569,note_on,1,0,0,,2,,,74,127
56673,note_off,104,0,0,,2,,,74,127
56673,note_off,0,0,0,,7,,,55,127
56674,note_on,1,0,0,,10,,,81,127
56674,note_on,0,0,0,,6,,,54,127
56778,note_off,104,0,0,,10,,,81,127
56779,note_on,1,0,0,,2,,,74,127
56883,note_off,104,0,0,,2,,,74,127
56883,note_off,0,0,0,,6,,,54,127
56884,note_on,1,0,0,,10,,,81,127
56884,note_on,0,0,0,,2,,,50,127
56988,note_off,104,0,0,,10,,,81,127
56989,note_on,1,0,0,,2,,,74,127
57093,note_off,104,0,0,,2,,,74,127
57093,note_off,0,0,0,,2,,,50,127
57094,note_on,1,0,0,,11,,,82,127
57094,note_on,0,0,0,,7,,,55,127
57198,note_off,104,0,0,,11,,,82,127
57199,note_on,1,0,0,,2,,,74,127
57303,note_off,104,0,0,,2,,,74,127
57303,note_off,0,0,0,,7,,,55,127
57304,note_on,1,0,0,,11,,,82,127
57304,note_on,0,0,0,,7,,,43,127
57408,note_off,104,0,0,,11,,,82,127
57409,note_on,1,0,0,,2,,,74,127
57513,note_off,104,0,0,,2,,,74,127
57513,note_off,0,0,0,,7,,,43,127
57514,note_on,1,0,0,,10,,,81,127
57514,note_on,0,0,0,,2,,,50,127
57618,note_off,104,0,0,,10,,,81,127
57619,note_on,1,0,0,,7,,,79,127
57723,note_off,104,0,0,,7,,,79,127
57724,note_on,1,0,0,,6,,,78,127
57828,note_off,104,0,0,,6,,,78,127
57829,note_on,1,0,0,,4,,,76,127
57933,note_off,104,0,0,,4,,,76,127
57934,note_on,1,0,0,,2,,,74,127
58038,note_off,104,0,0,,2,,,50,127
58039,note_on,1,0,0,,4,,,52,127
58143,note_off,104,0,0,,4,,,52,127
58143,note_off,0,0,0,,2,,,74,127
58144,note_on,1,0,0,,6,,,54,127
58248,note_off,104,0,0,,6,,,54,127
58249,note_on,1,0,0,,8,,,56,127
58353,note_off,104,0,0,,8,,,56,127
58354,note_on,1,0,0,,10,,,57,127
58459,note_on,105,0,0,,4,,,76,127
58563,note_off,104,0,0,,4,,,76,127
58564,note_on,1,0,0,,6,,,78,127
58668,note_off,104,0,0,,6,,,78,127
58669,note_on,1,0,0,,8,,,80,127
58773,note_off,104,0,0,,8,,,80,127
58774,note_on,1,0,0,,10,,,81,127
58878,note_off,104,0,0,,10,,,81,127
58879,note_on,1,0,0,,4,,,76,127
58983,note_off,104,0,0,,4,,,76,127
58983,note_off,0,0,0,,10,,,57,127
58984,note_on,1,0,0,,10,,,81,127
58984,note_on,0,0,0,,10,,,57,127
59088,note_off,104,0,0,,10,,,81,127
59089,note_on,1,0,0,,4,,,76,127
59193,note_off,104,0,0,,4,,,76,127
59193,note_off,0,0,0,,10,,,57,127
59194,note_on,1,0,0,,12,,,83,127
59194,note_on,0,0,0,,8,,,56,127
59298,note_off,104,0,0,,12,,,83,127
59299,note_on,1,0,0,,4,,,76,127
59403,note_off,104,0,0,,4,,,76,127
59403,note_off,0,0,0,,8,,,56,127
59404,note_on,1,0,0,,12,,,83,127
59404,note_on,0,0,0,,4,,,52,127
59508,note_off,104,0,0,,12,,,83,127
59509,note_on,1,0,0,,4,,,76,127
59613,note_off,104,0,0,,4,,,76,127
59613,note_off,0,0,0,,4,,,52,127
59614,note_on,1,0,0,,0,,,84,127
59614,note_on,0,0,0,,10,,,57,127
59718,note_off,104,0,0,,0,,,84,127
59719,note_on,1,0,0,,4,,,76,127
59823,note_off,104,0,0,,4,,,76,127
59823,note_off,0,0,0,,10,,,57,127
59824,note_on,1,0,0,,0,,,84,127
59824,note_on,0,0,0,,10,,,45,127
59928,note_off,104,0,0,,0,,,84,127
59929,note_on,1,0,0,,4,,,76,127
60033,note_off,104,0,0,,4,,,76,127
60033,note_off,0,0,0,,10,,,45,127
60034,note_on,1,0,0,,12,,,83,127
60034,note_on,0,0,0,,4,,,52,127
60138,note_off,104,0,0,,12,,,83,127
60139,note_on,1,0,0,,10,,,81,127
60243,note_off,104,0,0,,10,,,81,127
60244,note_on,1,0,0,,8,,,80,127
60348,note_off,104,0,0,,8,,,80,127
60349,note_on,1,0,0,,6,,,78,127
60453,note_off,104,0,0,,6,,,78,127
60454,note_on,1,0,0,,4,,,76,127
60558,note_off,104,0,0,,4,,,52,127
60559,note_on,1,0,0,,2,,,50,127
60663,note_off,104,0,0,,2,,,50,127
60664,note_on,1,0,0,,0,,,48,127
60768,note_off,104,0,0,,0,,,48,127
60769,note_on,1,0,0,,12,,,47,127
60873,note_off,104,0,0,,12,,,47,127
60874,note_on,1,0,0,,10,,,45,127
60978,note_off,104,0,0,,4,,,76,127
60979,note_on,1,0,0,,2,,,74,127
61083,note_off,104,0,0,,2,,,74,127
61084,note_on,1,0,0,,0,,,72,127
61188,note_off,104,0,0,,0,,,72,127
61189,note_on,1,0,0,,12,,,71,127
61293,note_off,104,0,0,,12,,,71,127
61293,note_off,0,0,0,,10,,,45,127
61294,note_on,1,0,0,,10,,,69,127
61294,note_on,0,0,0,,0,,,48,127
61398,note_off,104,0,0,,10,,,69,127
61399,note_on,1,0,0,,7,,,67,127
61503,note_off,104,0,0,,7,,,67,127
61504,note_on,1,0,0,,5,,,65,127
61608,note_off,104,0,0,,5,,,65,127
61609,note_on,1,0,0,,4,,,64,127
61713,note_off,104,0,0,,4,,,64,127
61713,note_off,0,0,0,,0,,,48,127
61714,note_on,1,0,0,,5,,,65,127
61714,note_on,0,0,0,,2,,,50,127
61818,note_off,104,0,0,,5,,,65,127
61819,note_on,1,0,0,,2,,,62,127
61923,note_off,104,0,0,,2,,,62,127
61924,note_on,1,0,0,,5,,,65,127
62028,note_off,104,0,0,,5,,,65,127
62029,note_on,1,0,0,,10,,,69,127
62133,note_off,104,0,0,,10,,,69,127
62133,note_off,0,0,0,,2,,,50,127
62134,note_on,1,0,0,,2,,,74,127
62134,note_on,0,0,0,,2,,,62,127
62238,note_off,104,0,0,,2,,,62,127
62239,note_on,1,0,0,,0,,,60,127
62343,note_off,104,0,0,,0,,,60,127
62344,note_on,1,0,0,,12,,,59,127
62448,note_off,104,0,0,,12,,,59,127
62449,note_on,1,0,0,,10,,,57,127
62553,note_off,104,0,0,,10,,,57,127
62554,note_on,1,0,0,,7,,,55,127
62658,note_off,104,0,0,,2,,,74,127
62659,note_on,1,0,0,,0,,,72,127
62763,note_off,104,0,0,,0,,,72,127
62764,note_on,1,0,0,,12,,,71,127
62868,note_off,104,0,0,,12,,,71,127
62869,note_on,1,0,0,,10,,,69,127
62973,note_off,104,0,0,,10,,,69,127
62973,note_off,0,0,0,,7,,,55,127
62974,note_on,1,0,0,,7,,,67,127
62974,note_on,0,0,0,,7,,,43,127
63078,note_off,104,0,0,,7,,,67,127
63079,note_on,1,0,0,,5,,,65,127
63183,note_off,104,0,0,,5,,,65,127
63184,note_on,1,0,0,,4,,,64,127
63288,note_off,104,0,0,,4,,,64,127
63289,note_on,1,0,0,,2,,,62,127
63393,note_off,104,0,0,,2,,,62,127
63393,note_off,0,0,0,,7,,,43,127
63394,note_on,1,0,0,,4,,,64,127
63394,note_on,0,0,0,,0,,,48,127
63498,note_off,104,0,0,,4,,,64,127
63499,note_on,1,0,0,,0,,,60,127
63603,note_off,104,0,0,,0,,,60,127
63604,note_on,1,0,0,,4,,,64,127
63708,note_off,104,0,0,,4,,,64,127
63709,note_on,1,0,0,,7,,,67,127
63813,note_off,104,0,0,,7,,,67,127
63814,note_on,1,0,0,,0,,,72,127
63918,note_off,104,0,0,,0,,,48,127
63919,note_on,1,0,0,,0,,,48,127
64023,note_off,104,0,0,,0,,,48,127
64024,note_on,1,0,0,,2,,,50,127
64128,note_off,104,0,0,,2,,,50,127
64129,note_on,1,0,0,,4,,,52,127
64233,note_off,104,0,0,,4,,,52,127
64234,note_on,1,0,0,,5,,,53,127
64338,note_off,104,0,0,,5,,,53,127
64339,note_on,1,0,0,,7,,,55,127
64443,note_off,104,0,0,,7,,,55,127
64444,note_on,1,0,0,,10,,,57,127
64548,note_off,104,0,0,,10,,,57,127
64549,note_on,1,0,0,,12,,,59,127
64653,note_off,104,0,0,,12,,,59,127
64654,note_on,1,0,0,,0,,,60,127
64758,note_off,104,0,0,,0,,,72,127
64759,note_on,1,0,0,,12,,,71,127
64863,note_off,104,0,0,,12,,,71,127
64864,note_on,1,0,0,,10,,,69,127
64968,note_off,104,0,0,,10,,,69,127
64969,note_on,1,0,0,,7,,,67,127
65073,note_off,104,0,0,,7,,,67,127
65073,note_off,0,0,0,,0,,,60,127
65074,note_on,1,0,0,,5,,,65,127
65074,note_on,0,0,0,,2,,,62,127
65177,note_off,103,0,0,,2,,,62,127
65178,note_off,1,0,0,,5,,,65,127
65179,note_on,1,0,0,,2,,,62,127
65284,note_on,105,0,0,,5,,,65,127
65388,note_off,104,0,0,,5,,,65,127
65389,note_on,1,0,0,,10,,,69,127
65493,note_off,104,0,0,,10,,,69,127
65494,note_off,1,0,0,,2,,,62,127
65494,note_on,0,0,0,,2,,,74,127
65599,note_on,105,0,0,,2,,,50,127
65703,note_off,104,0,0,,2,,,50,127
65704,note_on,1,0,0,,4,,,52,127
65808,note_off,104,0,0,,4,,,52,127
65809,note_on,1,0,0,,6,,,54,127
65913,note_off,104,0,0,,6,,,54,127
65914,note_on,1,0,0,,7,,,55,127
66018,note_off,104,0,0,,7,,,55,127
66019,note_on,1,0,0,,10,,,57,127
66123,note_off,104,0,0,,10,,,57,127
66124,note_on,1,0,0,,12,,,59,127
66228,note_off,104,0,0,,12,,,59,127
66229,note_on,1,0,0,,0,,,60,127
66333,note_off,104,0,0,,0,,,60,127
66334,note_on,1,0,0,,2,,,62,127
66438,note_off,104,0,0,,2,,,74,127
66439,note_on,1,0,0,,0,,,72,127
66543,note_off,104,0,0,,0,,,72,127
66544,note_on,1,0,0,,12,,,71,127
66648,note_off,104,0,0,,12,,,71,127
66649,note_on,1,0,0,,10,,,69,127
66753,note_off,104,0,0,,10,,,69,127
66753,note_off,0,0,0,,2,,,62,127
66754,note_on,1,0,0,,8,,,68,127
66754,note_on,0,0,0,,4,,,64,127
66858,note_off,104,0,0,,4,,,64,127
66858,note_off,0,0,0,,8,,,68,127
66859,note_on,1,0,0,,4,,,64,127
66964,note_on,105,0,0,,8,,,68,127
67068,note_off,104,0,0,,8,,,68,127
67069,note_on,1,0,0,,12,,,71,127
67173,note_off,104,0,0,,12,,,71,127
67174,note_off,1,0,0,,4,,,64,127
67174,note_on,0,0,0,,4,,,76,127
67279,note_on,105,0,0,,4,,,52,127
67383,note_off,104,0,0,,4,,,52,127
67384,note_on,1,0,0,,6,,,54,127
67488,note_off,104,0,0,,6,,,54,127
67489,note_on,1,0,0,,8,,,56,127
67593,note_off,104,0,0,,8,,,56,127
67593,note_off,0,0,0,,4,,,76,127
67594,note_on,1,0,0,,10,,,57,127
67698,note_off,104,0,0,,10,,,57,127
67699,note_on,1,0,0,,4,,,52,127
67803,note_off,104,0,0,,4,,,52,127
67804,note_on,1,0,0,,4,,,76,127
67804,note_on,0,0,0,,10,,,57,127
67908,note_off,104,0,0,,10,,,57,127
67909,note_on,1,0,0,,4,,,52,127
68013,note_off,104,0,0,,4,,,52,127
68013,note_off,0,0,0,,4,,,76,127
68014,note_on,1,0,0,,10,,,81,127
68014,note_on,0,0,0,,10,,,57,127
68118,note_off,104,0,0,,10,,,57,127
68119,note_on,1,0,0,,4,,,52,127
68223,note_off,104,0,0,,4,,,52,127
68224,note_on,1,0,0,,10,,,69,127
68224,note_on,0,0,0,,10,,,57,127
68328,note_off,104,0,0,,10,,,57,127
68329,note_on,1,0,0,,4,,,52,127
68429,note_off,100,0,0,,10,,,81,127
68432,note_off,3,0,0,,4,,,52,127
68433,note_on,1,0,0,,12,,,59,127
68537,note_off,104,0,0,,12,,,59,127
68538,note_off,1,0,0,,10,,,69,127
68538,note_on,0,0,0,,4,,,52,127
68642,note_off,104,0,0,,4,,,52,127
68643,note_on,1,0,0,,8,,,80,127
68643,note_on,0,0,0,,12,,,59,127
68747,note_off,104,0,0,,12,,,59,127
68748,note_on,1,0,0,,4,,,52,127
68852,note_off,104,0,0,,4,,,52,127
68852,note_off,0,0,0,,8,,,80,127
68853,note_on,1,0,0,,12,,,83,127
68853,note_on,0,0,0,,12,,,59,127
68957,note_off,104,0,0,,12,,,59,127
68958,note_on,1,0,0,,4,,,52,127
69062,note_off,104,0,0,,4,,,52,127
69063,note_on,1,0,0,,12,,,71,127
69063,note_on,0,0,0,,12,,,59,127
69167,note_off,104,0,0,,12,,,59,127
69168,note_on,1,0,0,,4,,,52,127
69268,note_off,100,0,0,,12,,,83,127
69271,note_off,3,0,0,,4,,,52,127
69271,note_off,0,0,0,,12,,,71,127
69272,note_on,1,0,0,,0,,,60,127
69377,note_on,105,0,0,,4,,,76,127
69481,note_off,104,0,0,,4,,,76,127
69482,note_on,1,0,0,,5,,,77,127
69586,note_off,104,0,0,,5,,,77,127
69587,note_on,1,0,0,,7,,,79,127
69691,note_off,104,0,0,,7,,,79,127
69692,note_on,1,0,0,,10,,,81,127
69796,note_off,104,0,0,,10,,,81,127
69797,note_on,1,0,0,,7,,,79,127
69901,note_off,104,0,0,,7,,,79,127
69901,note_off,0,0,0,,0,,,60,127
69902,note_on,1,0,0,,5,,,77,127
69902,note_on,0,0,0,,0,,,48,127
70006,note_off,104,0,0,,5,,,77,127
70007,note_on,1,0,0,,4,,,76,127
70111,note_off,104,0,0,,4,,,76,127
70111,note_off,0,0,0,,0,,,48,127
70112,note_on,1,0,0,,5,,,77,127
70112,note_on,0,0,0,,2,,,50,127
70216,note_off,104,0,0,,5,,,77,127
70217,note_on,1,0,0,,4,,,76,127
70321,note_off,104,0,0,,4,,,76,127
70321,note_off,0,0,0,,2,,,50,127
70322,note_on,1,0,0,,2,,,74,127
70322,note_on,0,0,0,,4,,,52,127
70426,note_off,104,0,0,,2,,,74,127
70427,note_on,1,0,0,,0,,,72,127
70531,note_off,104,0,0,,0,,,72,127
70531,note_off,0,0,0,,4,,,52,127
70532,note_on,1,0,0,,2,,,74,127
70532,note_on,0,0,0,,5,,,53,127
70636,note_off,104,0,0,,2,,,74,127
70637,note_on,1,0,0,,0,,,72,127
70741,note_off,104,0,0,,0,,,72,127
70741,note_off,0,0,0,,5,,,53,127
70742,note_on,1,0,0,,11,,,70,127
70742,note_on,0,0,0,,2,,,50,127
70846,note_off,104,0,0,,11,,,70,127
70847,note_on,1,0,0,,10,,,69,127
70951,note_off,104,0,0,,10,,,69,127
70951,note_off,0,0,0,,2,,,50,127
70952,note_on,1,0,0,,11,,,70,127
70952,note_on,0,0,0,,7,,,55,127
71056,note_off,104,0,0,,11,,,70,127
71057,note_on,1,0,0,,7,,,67,127
71161,note_off,104,0,0,,7,,,67,127
71161,note_off,0,0,0,,7,,,55,127
71162,note_on,1,0,0,,11,,,70,127
71162,note_on,0,0,0,,7,,,43,127
71266,note_off,104,0,0,,11,,,70,127
71267,note_on,1,0,0,,2,,,74,127
71371,note_off,104,0,0,,2,,,74,127
71372,note_on,1,0,0,,7,,,79,127
71476,note_off,104,0,0,,7,,,79,127
71477,note_on,1,0,0,,5,,,77,127
71581,note_off,104,0,0,,5,,,77,127
71581,note_off,0,0,0,,7,,,43,127
71582,note_on,1,0,0,,4,,,76,127
71582,note_on,0,0,0,,7,,,43,127
71686,note_off,104,0,0,,4,,,76,127
71687,note_on,1,0,0,,2,,,74,127
71791,note_off,104,0,0,,2,,,74,127
71791,note_off,0,0,0,,7,,,43,127
71792,note_on,1,0,0,,4,,,76,127
71792,note_on,0,0,0,,0,,,48,127
71896,note_off,104,0,0,,4,,,76,127
71897,note_on,1,0,0,,2,,,74,127
72001,note_off,104,0,0,,2,,,74,127
72001,note_off,0,0,0,,0,,,48,127
72002,note_on,1,0,0,,0,,,72,127
72002,note_on,0,0,0,,2,,,50,127
72106,note_off,104,0,0,,0,,,72,127
72107,note_on,1,0,0,,11,,,70,127
72211,note_off,104,0,0,,11,,,70,127
72211,note_off,0,0,0,,2,,,50,127
72212,note_on,1,0,0,,0,,,72,127
72212,note_on,0,0,0,,4,,,52,127
72316,note_off,104,0,0,,0,,,72,127
72317,note_on,1,0,0,,11,,,70,127
72421,note_off,104,0,0,,11,,,70,127
72421,note_off,0,0,0,,4,,,52,127
72422,note_on,1,0,0,,10,,,69,127
72422,note_on,0,0,0,,0,,,48,127
72526,note_off,104,0,0,,10,,,69,127
72527,note_on,1,0,0,,7,,,67,127
72631,note_off,104,0,0,,7,,,67,127
72631,note_off,0,0,0,,0,,,48,127
72632,note_on,1,0,0,,10,,,69,127
72632,note_on,0,0,0,,5,,,53,127
72736,note_off,104,0,0,,10,,,69,127
72737,note_on,1,0,0,,5,,,65,127
72841,note_off,104,0,0,,5,,,65,127
72841,note_off,0,0,0,,5,,,53,127
72842,note_on,1,0,0,,10,,,69,127
72842,note_on,0,0,0,,5,,,41,127
72946,note_off,104,0,0,,10,,,69,127
72947,note_on,1,0,0,,0,,,72,127
73051,note_off,104,0,0,,0,,,72,127
73052,note_on,1,0,0,,5,,,77,127
73156,note_off,104,0,0,,5,,,77,127
73157,note_on,1,0,0,,4,,,76,127
73261,note_off,104,0,0,,4,,,76,127
73261,note_off,0,0,0,,5,,,41,127
73262,note_on,1,0,0,,2,,,74,127
73262,note_on,0,0,0,,10,,,57,127
73366,note_off,104,0,0,,2,,,74,127
73367,note_on,1,0,0,,0,,,72,127
73471,note_off,104,0,0,,0,,,72,127
73471,note_off,0,0,0,,10,,,57,127
73472,note_on,1,0,0,,2,,,74,127
73472,note_on,0,0,0,,11,,,58,127
73576,note_off,104,0,0,,2,,,74,127
73577,note_on,1,0,0,,0,,,72,127
73681,note_off,104,0,0,,0,,,72,127
73682,note_on,1,0,0,,11,,,70,127
73786,note_off,104,0,0,,11,,,70,127
73787,note_on,1,0,0,,10,,,69,127
73891,note_off,104,0,0,,10,,,69,127
73891,note_off,0,0,0,,11,,,58,127
73892,note_on,1,0,0,,11,,,70,127
73892,note_on,0,0,0,,11,,,46,127
73996,note_off,104,0,0,,11,,,70,127
73997,note_on,1,0,0,,10,,,69,127
74101,note_off,104,0,0,,10,,,69,127
74102,note_on,1,0,0,,7,,,67,127
74206,note_off,104,0,0,,7,,,67,127
74207,note_on,1,0,0,,5,,,65,127
74311,note_off,104,0,0,,5,,,65,127
74311,note_off,0,0,0,,11,,,46,127
74312,note_on,1,0,0,,4,,,64,127
74312,note_on,0,0,0,,0,,,48,127
74395,note_off,83,0,0,,4,,,64,127
74396,note_on,1,0,0,,5,,,65,127
74479,note_off,83,0,0,,5,,,65,127
74480,note_on,1,0,0,,7,,,67,127
74562,note_off,82,0,0,,7,,,67,127
74563,note_on,1,0,0,,10,,,69,127
74646,note_off,83,0,0,,10,,,69,127
74647,note_on,1,0,0,,11,,,70,127
74730,note_off,83,0,0,,11,,,70,127
74731,note_on,1,0,0,,0,,,72,127
74835,note_off,104,0,0,,0,,,48,127
74836,note_on,1,0,0,,0,,,48,127
74940,note_off,104,0,0,,0,,,48,127
74941,note_on,1,0,0,,2,,,50,127
75045,note_off,104,0,0,,2,,,50,127
75046,note_on,1,0,0,,4,,,52,127
75150,note_off,104,0,0,,4,,,52,127
75150,note_off,0,0,0,,0,,,72,127
75151,note_on,1,0,0,,5,,,53,127
75255,note_off,104,0,0,,5,,,53,127
75256,note_on,1,0,0,,0,,,48,127
75360,note_off,104,0,0,,0,,,48,127
75361,note_on,1,0,0,,0,,,72,127
75361,note_on,0,0,0,,5,,,53,127
75465,note_off,104,0,0,,5,,,53,127
75466,note_on,1,0,0,,0,,,48,127
75570,note_off,104,0,0,,0,,,48,127
75570,note_off,0,0,0,,0,,,72,127
75571,note_on,1,0,0,,5,,,77,127
75571,note_on,0,0,0,,5,,,53,127
75675,note_off,104,0,0,,5,,,53,127
75676,note_on,1,0,0,,0,,,48,127
75780,note_off,104,0,0,,0,,,48,127
75781,note_on,1,0,0,,5,,,65,127
75781,note_on,0,0,0,,5,,,53,127
75885,note_off,104,0,0,,5,,,53,127
75886,note_on,1,0,0,,0,,,48,127
75986,note_off,100,0,0,,5,,,77,127
75989,note_off,3,0,0,,0,,,48,127
75990,note_on,1,0,0,,7,,,55,127
76094,note_off,104,0,0,,7,,,55,127
76095,note_off,1,0,0,,5,,,65,127
76095,note_on,0,0,0,,0,,,48,127
76199,note_off,104,0,0,,0,,,48,127
76200,note_on,1,0,0,,4,,,76,127
76200,note_on,0,0,0,,7,,,55,127
76304,note_off,104,0,0,,7,,,55,127
76305,note_on,1,0,0,,0,,,48,127
76409,note_off,104,0,0,,0,,,48,127
76409,note_off,0,0,0,,4,,,76,127
76410,note_on,1,0,0,,7,,,79,127
76410,note_on,0,0,0,,7,,,55,127
76514,note_off,104,0,0,,7,,,55,127
76515,note_on,1,0,0,,0,,,48,127
76619,note_off,104,0,0,,0,,,48,127
76620,note_on,1,0,0,,7,,,67,127
76620,note_on,0,0,0,,7,,,55,127
76724,note_off,104,0,0,,7,,,55,127
76725,note_on,1,0,0,,0,,,48,127
76825,note_off,100,0,0,,7,,,79,127
76828,note_off,3,0,0,,0,,,48,127
76829,note_on,1,0,0,,10,,,57,127
76933,note_off,104,0,0,,10,,,57,127
76934,note_off,1,0,0,,7,,,67,127
76934,note_on,0,0,0,,0,,,48,127
77038,note_off,104,0,0,,0,,,48,127
77039,note_on,1,0,0,,5,,,77,127
77039,note_on,0,0,0,,10,,,57,127
77143,note_off,104,0,0,,10,,,57,127
77144,note_on,1,0,0,,0,,,48,127
77248,note_off,104,0,0,,0,,,48,127
77248,note_off,0,0,0,,5,,,77,127
77249,note_on,1,0,0,,10,,,81,127
77249,note_on,0,0,0,,10,,,57,127
77353,note_off,104,0,0,,10,,,57,127
77354,note_on,1,0,0,,0,,,48,127
77458,note_off,104,0,0,,0,,,48,127
77459,note_on,1,0,0,,10,,,69,127
77459,note_on,0,0,0,,10,,,57,127
77563,note_off,104,0,0,,10,,,57,127
77564,note_on,1,0,0,,0,,,48,127
77664,note_off,100,0,0,,10,,,81,127
77667,note_off,3,0,0,,0,,,48,127
77668,note_on,1,0,0,,11,,,58,127
77772,note_off,104,0,0,,11,,,58,127
77773,note_off,1,0,0,,10,,,69,127
77773,note_on,0,0,0,,0,,,48,127
77877,note_off,104,0,0,,0,,,48,127
77878,note_on,1,0,0,,7,,,79,127
77878,note_on,0,0,0,,11,,,58,127
77982,note_off,104,0,0,,11,,,58,127
77983,note_on,1,0,0,,0,,,48,127
78087,note_off,104,0,0,,0,,,48,127
78087,note_off,0,0,0,,7,,,79,127
78088,note_on,1,0,0,,11,,,82,127
78088,note_on,0,0,0,,11,,,58,127
78192,note_off,104,0,0,,11,,,58,127
78193,note_on,1,0,0,,0,,,48,127
78297,note_off,104,0,0,,0,,,48,127
78298,note_on,1,0,0,,11,,,70,127
78298,note_on,0,0,0,,11,,,58,127
78402,note_off,104,0,0,,11,,,58,127
78403,note_on,1,0,0,,0,,,48,127
78503,note_off,100,0,0,,11,,,82,127
78506,note_off,3,0,0,,0,,,48,127
78507,note_on,1,0,0,,0,,,60,127
78611,note_off,104,0,0,,0,,,60,127
78612,note_off,1,0,0,,11,,,70,127
78612,note_on,0,0,0,,11,,,58,127
78716,note_off,104,0,0,,11,,,58,127
78717,note_on,1,0,0,,0,,,72,127
78717,note_on,0,0,0,,10,,,57,127
78821,note_off,104,0,0,,10,,,57,127
78822,note_on,1,0,0,,7,,,55,127
78926,note_off,104,0,0,,7,,,55,127
78926,note_off,0,0,0,,0,,,72,127
78927,note_on,1,0,0,,5,,,77,127
78927,note_on,0,0,0,,5,,,53,127
79031,note_off,104,0,0,,5,,,53,127
79032,note_on,1,0,0,,4,,,52,127
79136,note_off,104,0,0,,4,,,52,127
79137,note_on,1,0,0,,5,,,65,127
79137,note_on,0,0,0,,2,,,50,127
79241,note_off,104,0,0,,2,,,50,127
79242,note_on,1,0,0,,0,,,48,127
79342,note_off,100,0,0,,5,,,77,127
79345,note_off,3,0,0,,0,,,48,127
79346,note_on,1,0,0,,11,,,46,127
79450,note_off,104,0,0,,5,,,65,127
79451,note_on,1,0,0,,5,,,77,127
79555,note_off,104,0,0,,5,,,77,127
79556,note_on,1,0,0,,7,,,79,127
79660,note_off,104,0,0,,7,,,79,127
79661,note_on,1,0,0,,5,,,77,127
79765,note_off,104,0,0,,5,,,77,127
79765,note_off,0,0,0,,11,,,46,127
79766,note_on,1,0,0,,4,,,76,127
79766,note_on,0,0,0,,0,,,48,127
79870,note_off,104,0,0,,4,,,76,127
79871,note_on,1,0,0,,2,,,74,127
79975,note_off,104,0,0,,2,,,74,127
79976,note_on,1,0,0,,0,,,72,127
80080,note_off,104,0,0,,0,,,72,127
80081,note_on,1,0,0,,11,,,70,127
80185,note_off,104,0,0,,11,,,70,127
80185,note_off,0,0,0,,0,,,48,127
80186,note_on,1,0,0,,10,,,69,127
80186,note_on,0,0,0,,5,,,41,127
80290,note_off,104,0,0,,10,,,69,127
80291,note_on,1,0,0,,5,,,65,127
80395,note_off,104,0,0,,5,,,65,127
80396,note_on,1,0,0,,10,,,69,127
80500,note_off,104,0,0,,10,,,69,127
80501,note_on,1,0,0,,0,,,72,127
80605,note_off,104,0,0,,0,,,72,127
80606,note_on,1,0,0,,5,,,77,127
80710,note_off,104,0,0,,5,,,77,127
80711,note_on,1,0,0,,0,,,72,127
80815,note_off,104,0,0,,0,,,72,127
80816,note_on,1,0,0,,10,,,69,127
80920,note_off,104,0,0,,10,,,69,127
80921,note_on,1,0,0,,0,,,72,127
81025,note_off,104,0,0,,0,,,72,127
81025,note_off,0,0,0,,5,,,41,127
81026,note_on,1,0,0,,5,,,65,127
81131,note_on,105,0,0,,0,,,60,127
81235,note_off,104,0,0,,0,,,60,127
81236,note_on,1,0,0,,10,,,57,127
81340,note_off,104,0,0,,10,,,57,127
81341,note_on,1,0,0,,0,,,60,127
81445,note_off,104,0,0,,0,,,60,127
81446,note_on,1,0,0,,5,,,53,127
81550,note_off,104,0,0,,5,,,53,127
81551,note_on,1,0,0,,10,,,57,127
81655,note_off,104,0,0,,10,,,57,127
81656,note_on,1,0,0,,0,,,48,127
81760,note_off,104,0,0,,0,,,48,127
81761,note_on,1,0,0,,5,,,53,127
81876,note_off,115,0,0,,5,,,53,127
81899,note_on,23,0,0,,5,,,41,127
82283,note_off,384,0,0,,5,,,65,127
83754,note_off,1471,0,0,,5,,,41,127
89088,end_of_track,5334,1,0,,,,,,
