tick,type,time,meta,track,program,channel,pitch,tempo,note,velocity
0,copyright,0,1,0,,,,,,
0,program_change,0,0,0,6,0,,,,
0,pitchwheel,0,0,0,,0,0,,,
0,program_change,0,0,0,6,1,,,,
0,pitchwheel,0,0,0,,1,-590,,,
0,program_change,0,0,0,6,2,,,,
0,pitchwheel,0,0,0,,2,-272,,,
0,program_change,0,0,0,6,3,,,,
0,pitchwheel,0,0,0,,3,-353,,,
0,program_change,0,0,0,6,4,,,,
0,pitchwheel,0,0,0,,4,-560,,,
0,program_change,0,0,0,6,5,,,,
0,pitchwheel,0,0,0,,5,-80,,,
0,program_change,0,0,0,6,6,,,,
0,pitchwheel,0,0,0,,6,-625,,,
0,program_change,0,0,0,6,7,,,,
0,pitchwheel,0,0,0,,7,-130,,,
0,program_change,0,0,0,6,8,,,,
0,pitchwheel,0,0,0,,8,-512,,,
0,program_change,0,0,0,6,10,,,,
0,pitchwheel,0,0,0,,10,-464,,,
0,program_change,0,0,0,6,11,,,,
0,pitchwheel,0,0,0,,11,-208,,,
0,program_change,0,0,0,6,12,,,,
0,pitchwheel,0,0,0,,12,-553,,,
0,set_tempo,0,1,0,,,,500000,,
32,note_on,32,0,0,,0,,,60,127
223,note_off,191,0,0,,0,,,60,127
224,note_on,1,0,0,,4,,,64,127
415,note_off,191,0,0,,4,,,64,127
416,note_on,1,0,0,,7,,,67,127
607,note_off,191,0,0,,7,,,67,127
608,note_on,1,0,0,,0,,,72,127
799,note_off,191,0,0,,0,,,72,127
800,note_on,1,0,0,,4,,,76,127
1183,note_off,383,0,0,,4,,,76,127
1184,note_on,1,0,0,,4,,,76,127
1248,note_on,64,0,0,,2,,,74,127
1279,note_off,31,0,0,,4,,,76,127
1312,note_on,33,0,0,,4,,,76,127
1343,note_off,31,0,0,,2,,,74,127
1376,note_on,33,0,0,,2,,,74,127
1407,note_off,31,0,0,,4,,,76,127
1566,note_off,159,0,0,,2,,,74,127
1568,note_on,2,0,0,,4,,,64,127
1759,note_off,191,0,0,,4,,,64,127
1760,note_on,1,0,0,,7,,,67,127
1951,note_off,191,0,0,,7,,,67,127
1952,note_on,1,0,0,,0,,,72,127
2143,note_off,191,0,0,,0,,,72,127
2144,note_on,1,0,0,,4,,,76,127
2335,note_off,191,0,0,,4,,,76,127
2336,note_on,1,0,0,,7,,,79,127
2719,note_off,383,0,0,,7,,,79,127
2720,note_on,1,0,0,,7,,,79,127
2784,note_on,64,0,0,,5,,,77,127
2815,note_off,31,0,0,,7,,,79,127
2848,note_on,33,0,0,,7,,,79,127
2879,note_off,31,0,0,,5,,,77,127
2912,note_on,33,0,0,,5,,,77,127
2943,note_off,31,0,0,,7,,,79,127
3102,note_off,159,0,0,,5,,,77,127
3104,note_on,2,0,0,,0,,,48,127
3104,note_on,0,0,0,,4,,,76,127
3295,note_off,191,0,0,,0,,,48,127
3296,note_on,1,0,0,,4,,,52,127
3487,note_off,191,0,0,,4,,,52,127
3488,note_on,1,0,0,,7,,,55,127
3679,note_off,191,0,0,,7,,,55,127
3679,note_off,0,0,0,,4,,,76,127
3680,note_on,1,0,0,,0,,,60,127
3680,note_on,0,0,0,,2,,,74,127
3871,note_off,191,0,0,,2,,,74,127
3871,note_off,0,0,0,,0,,,60,127
3872,note_on,1,0,0,,4,,,64,127
3872,note_on,0,0,0,,7,,,67,127
4062,note_off,190,0,0,,4,,,64,127
4064,note_on,2,0,0,,0,,,72,127
4252,note_off,188,0,0,,7,,,67,127
4254,note_off,2,0,0,,0,,,72,127
4256,note_on,2,0,0,,2,,,62,127
4256,note_on,0,0,0,,5,,,65,127
4446,note_off,190,0,0,,2,,,62,127
4448,note_on,2,0,0,,12,,,71,127
4636,note_off,188,0,0,,5,,,65,127
4639,note_off,3,0,0,,12,,,71,127
4640,note_on,1,0,0,,4,,,52,127
4640,note_on,0,0,0,,0,,,72,127
4831,note_off,191,0,0,,4,,,52,127
4832,note_on,1,0,0,,7,,,55,127
5023,note_off,191,0,0,,7,,,55,127
5024,note_on,1,0,0,,0,,,60,127
5215,note_off,191,0,0,,0,,,60,127
5215,note_off,0,0,0,,0,,,72,127
5216,note_on,1,0,0,,4,,,64,127
5216,note_on,0,0,0,,2,,,74,127
5407,note_off,191,0,0,,2,,,74,127
5407,note_off,0,0,0,,4,,,64,127
5408,note_on,1,0,0,,7,,,67,127
5408,note_on,0,0,0,,4,,,76,127
5598,note_off,190,0,0,,7,,,67,127
5600,note_on,2,0,0,,0,,,72,127
5790,note_off,190,0,0,,0,,,72,127
5791,note_off,1,0,0,,4,,,76,127
5792,note_on,1,0,0,,5,,,65,127
5792,note_on,0,0,0,,2,,,74,127
5982,note_off,190,0,0,,5,,,65,127
5984,note_on,2,0,0,,12,,,71,127
6175,note_off,191,0,0,,12,,,71,127
6175,note_off,0,0,0,,2,,,74,127
6176,note_on,1,0,0,,4,,,64,127
6176,note_on,0,0,0,,0,,,72,127
6367,note_off,191,0,0,,4,,,64,127
6368,note_on,1,0,0,,7,,,67,127
6559,note_off,191,0,0,,7,,,67,127
6560,note_on,1,0,0,,4,,,64,127
6751,note_off,191,0,0,,4,,,64,127
6752,note_on,1,0,0,,0,,,60,127
6752,note_on,0,0,0,,7,,,79,127
6943,note_off,191,0,0,,0,,,60,127
6943,note_off,0,0,0,,0,,,72,127
6944,note_on,1,0,0,,2,,,62,127
7134,note_off,190,0,0,,2,,,62,127
7135,note_off,1,0,0,,7,,,79,127
7136,note_on,1,0,0,,12,,,71,127
7136,note_on,0,0,0,,5,,,77,127
7327,note_off,191,0,0,,12,,,71,127
7328,note_on,1,0,0,,0,,,60,127
7328,note_on,0,0,0,,0,,,72,127
7519,note_off,191,0,0,,5,,,77,127
7520,note_on,1,0,0,,4,,,76,127
7711,note_off,191,0,0,,4,,,76,127
7711,note_off,0,0,0,,0,,,72,127
7711,note_off,0,0,0,,0,,,60,127
7712,note_on,1,0,0,,7,,,55,127
7712,note_on,0,0,0,,2,,,74,127
7903,note_off,191,0,0,,7,,,55,127
7904,note_on,1,0,0,,12,,,59,127
8095,note_off,191,0,0,,12,,,59,127
8096,note_on,1,0,0,,2,,,62,127
8287,note_off,191,0,0,,2,,,62,127
8288,note_on,1,0,0,,7,,,67,127
8479,note_off,191,0,0,,7,,,67,127
8479,note_off,0,0,0,,2,,,74,127
8480,note_on,1,0,0,,12,,,71,127
8480,note_on,0,0,0,,2,,,74,127
8670,note_off,190,0,0,,12,,,71,127
8672,note_on,2,0,0,,7,,,79,127
8862,note_off,190,0,0,,7,,,79,127
8863,note_off,1,0,0,,2,,,74,127
8864,note_on,1,0,0,,10,,,69,127
8864,note_on,0,0,0,,0,,,72,127
9054,note_off,190,0,0,,10,,,69,127
9056,note_on,2,0,0,,6,,,78,127
9247,note_off,191,0,0,,6,,,78,127
9247,note_off,0,0,0,,0,,,72,127
9248,note_on,1,0,0,,12,,,59,127
9248,note_on,0,0,0,,7,,,79,127
9439,note_off,191,0,0,,12,,,59,127
9440,note_on,1,0,0,,2,,,62,127
9631,note_off,191,0,0,,2,,,62,127
9632,note_on,1,0,0,,7,,,67,127
9823,note_off,191,0,0,,7,,,67,127
9823,note_off,0,0,0,,7,,,79,127
9824,note_on,1,0,0,,12,,,71,127
9824,note_on,0,0,0,,10,,,81,127
10015,note_off,191,0,0,,12,,,71,127
10016,note_on,1,0,0,,2,,,74,127
10016,note_on,0,0,0,,12,,,71,127
10206,note_off,190,0,0,,12,,,71,127
10207,note_off,1,0,0,,10,,,81,127
10208,note_on,1,0,0,,12,,,83,127
10398,note_off,190,0,0,,12,,,83,127
10399,note_off,1,0,0,,2,,,74,127
10400,note_on,1,0,0,,6,,,66,127
10400,note_on,0,0,0,,0,,,72,127
10590,note_off,190,0,0,,6,,,66,127
10592,note_on,2,0,0,,10,,,81,127
10782,note_off,190,0,0,,10,,,81,127
10783,note_off,1,0,0,,0,,,72,127
10784,note_on,1,0,0,,12,,,71,127
10784,note_on,0,0,0,,7,,,67,127
10974,note_off,190,0,0,,7,,,67,127
10976,note_on,2,0,0,,7,,,79,127
11166,note_off,190,0,0,,7,,,79,127
11167,note_off,1,0,0,,12,,,71,127
11168,note_on,1,0,0,,2,,,62,127
11168,note_on,0,0,0,,10,,,69,127
11358,note_off,190,0,0,,2,,,62,127
11360,note_on,2,0,0,,6,,,78,127
11550,note_off,190,0,0,,6,,,78,127
11551,note_off,1,0,0,,10,,,69,127
11552,note_on,1,0,0,,4,,,64,127
11552,note_on,0,0,0,,7,,,67,127
11742,note_off,190,0,0,,4,,,64,127
11744,note_on,2,0,0,,4,,,76,127
11935,note_off,191,0,0,,4,,,76,127
11936,note_on,1,0,0,,2,,,74,127
12127,note_off,191,0,0,,2,,,74,127
12127,note_off,0,0,0,,7,,,67,127
12128,note_on,1,0,0,,7,,,67,127
12128,note_on,0,0,0,,1,,,73,127
12319,note_off,191,0,0,,1,,,73,127
12319,note_off,0,0,0,,7,,,67,127
12320,note_on,1,0,0,,6,,,66,127
12320,note_on,0,0,0,,2,,,74,127
12511,note_off,191,0,0,,6,,,66,127
12512,note_on,1,0,0,,10,,,69,127
12703,note_off,191,0,0,,10,,,69,127
12703,note_off,0,0,0,,2,,,74,127
12704,note_on,1,0,0,,6,,,66,127
12704,note_on,0,0,0,,10,,,81,127
12895,note_off,191,0,0,,6,,,66,127
12896,note_on,1,0,0,,2,,,62,127
13087,note_off,191,0,0,,2,,,62,127
13088,note_on,1,0,0,,4,,,64,127
13279,note_off,191,0,0,,10,,,81,127
13280,note_on,1,0,0,,0,,,72,127
13471,note_off,191,0,0,,0,,,72,127
13471,note_off,0,0,0,,4,,,64,127
13472,note_on,1,0,0,,6,,,66,127
13472,note_on,0,0,0,,12,,,71,127
13663,note_off,191,0,0,,12,,,71,127
13664,note_on,1,0,0,,10,,,69,127
13855,note_off,191,0,0,,10,,,69,127
13855,note_off,0,0,0,,6,,,66,127
13856,note_on,1,0,0,,7,,,67,127
13856,note_on,0,0,0,,12,,,71,127
14047,note_off,191,0,0,,7,,,67,127
14048,note_on,1,0,0,,2,,,62,127
14239,note_off,191,0,0,,2,,,62,127
14240,note_on,1,0,0,,12,,,59,127
14431,note_off,191,0,0,,12,,,59,127
14431,note_off,0,0,0,,12,,,71,127
14432,note_on,1,0,0,,7,,,55,127
14432,note_on,0,0,0,,2,,,74,127
14622,note_off,190,0,0,,2,,,74,127
14623,note_off,1,0,0,,7,,,55,127
14624,note_on,1,0,0,,0,,,60,127
14624,note_on,0,0,0,,4,,,64,127
14814,note_off,190,0,0,,0,,,60,127
14816,note_on,2,0,0,,0,,,72,127
15006,note_off,190,0,0,,0,,,72,127
15007,note_off,1,0,0,,4,,,64,127
15008,note_on,1,0,0,,2,,,62,127
15008,note_on,0,0,0,,8,,,56,127
15198,note_off,190,0,0,,8,,,56,127
15200,note_on,2,0,0,,12,,,71,127
15390,note_off,190,0,0,,12,,,71,127
15391,note_off,1,0,0,,2,,,62,127
15392,note_on,1,0,0,,10,,,57,127
15392,note_on,0,0,0,,0,,,60,127
15582,note_off,190,0,0,,10,,,57,127
15584,note_on,2,0,0,,10,,,69,127
15774,note_off,190,0,0,,10,,,69,127
15775,note_off,1,0,0,,0,,,60,127
15776,note_on,1,0,0,,12,,,59,127
15776,note_on,0,0,0,,3,,,51,127
15966,note_off,190,0,0,,3,,,51,127
15968,note_on,2,0,0,,6,,,66,127
16159,note_off,191,0,0,,6,,,66,127
16159,note_off,0,0,0,,12,,,59,127
16160,note_on,1,0,0,,4,,,52,127
16160,note_on,0,0,0,,7,,,67,127
16352,note_on,192,0,0,,12,,,59,127
16543,note_off,191,0,0,,12,,,59,127
16544,note_on,1,0,0,,0,,,60,127
16734,note_off,190,0,0,,0,,,60,127
16735,note_off,1,0,0,,7,,,67,127
16736,note_on,1,0,0,,4,,,64,127
16927,note_off,191,0,0,,4,,,64,127
16927,note_off,0,0,0,,4,,,52,127
16928,note_on,1,0,0,,2,,,50,127
16928,note_on,0,0,0,,6,,,66,127
17120,note_on,192,0,0,,10,,,57,127
17311,note_off,191,0,0,,10,,,57,127
17311,note_off,0,0,0,,6,,,66,127
17312,note_on,1,0,0,,12,,,59,127
17312,note_on,0,0,0,,7,,,67,127
17503,note_off,191,0,0,,12,,,59,127
17504,note_on,1,0,0,,7,,,55,127
17695,note_off,191,0,0,,7,,,55,127
17696,note_on,1,0,0,,10,,,57,127
17887,note_off,191,0,0,,7,,,67,127
17888,note_on,1,0,0,,4,,,64,127
18078,note_off,190,0,0,,2,,,50,127
18079,note_off,1,0,0,,4,,,64,127
18080,note_on,1,0,0,,6,,,66,127
18271,note_off,191,0,0,,6,,,66,127
18271,note_off,0,0,0,,10,,,57,127
18272,note_on,1,0,0,,0,,,60,127
18272,note_on,0,0,0,,0,,,72,127
18463,note_off,191,0,0,,0,,,72,127
18463,note_off,0,0,0,,0,,,60,127
18464,note_on,1,0,0,,7,,,55,127
18464,note_on,0,0,0,,12,,,71,127
18656,note_on,192,0,0,,2,,,62,127
18847,note_off,191,0,0,,2,,,62,127
18847,note_off,0,0,0,,12,,,71,127
18848,note_on,1,0,0,,4,,,64,127
18848,note_on,0,0,0,,0,,,72,127
19039,note_off,191,0,0,,4,,,64,127
19040,note_on,1,0,0,,0,,,60,127
19231,note_off,191,0,0,,0,,,60,127
19231,note_off,0,0,0,,7,,,55,127
19232,note_on,1,0,0,,2,,,62,127
19423,note_off,191,0,0,,0,,,72,127
19424,note_on,1,0,0,,10,,,69,127
19615,note_off,191,0,0,,10,,,69,127
19615,note_off,0,0,0,,2,,,62,127
19616,note_on,1,0,0,,5,,,65,127
19616,note_on,0,0,0,,12,,,71,127
19807,note_off,191,0,0,,12,,,71,127
19808,note_on,1,0,0,,5,,,77,127
19999,note_off,191,0,0,,5,,,77,127
19999,note_off,0,0,0,,5,,,65,127
20000,note_on,1,0,0,,0,,,60,127
20000,note_on,0,0,0,,4,,,76,127
20192,note_on,192,0,0,,7,,,67,127
20383,note_off,191,0,0,,7,,,67,127
20383,note_off,0,0,0,,4,,,76,127
20384,note_on,1,0,0,,10,,,69,127
20384,note_on,0,0,0,,5,,,77,127
20575,note_off,191,0,0,,10,,,69,127
20576,note_on,1,0,0,,5,,,65,127
20767,note_off,191,0,0,,5,,,65,127
20768,note_on,1,0,0,,7,,,67,127
20959,note_off,191,0,0,,5,,,77,127
20960,note_on,1,0,0,,2,,,74,127
21150,note_off,190,0,0,,0,,,60,127
21151,note_off,1,0,0,,2,,,74,127
21151,note_off,0,0,0,,7,,,67,127
21152,note_on,1,0,0,,11,,,70,127
21152,note_on,0,0,0,,4,,,76,127
21343,note_off,191,0,0,,4,,,76,127
21344,note_on,1,0,0,,11,,,82,127
21535,note_off,191,0,0,,11,,,82,127
21535,note_off,0,0,0,,11,,,70,127
21536,note_on,1,0,0,,5,,,65,127
21536,note_on,0,0,0,,10,,,81,127
21728,note_on,192,0,0,,1,,,73,127
21919,note_off,191,0,0,,1,,,73,127
21920,note_on,1,0,0,,2,,,74,127
22111,note_off,191,0,0,,5,,,65,127
22112,note_on,1,0,0,,2,,,62,127
22303,note_off,191,0,0,,2,,,62,127
22303,note_off,0,0,0,,10,,,81,127
22304,note_on,1,0,0,,4,,,64,127
22304,note_on,0,0,0,,7,,,79,127
22495,note_off,191,0,0,,2,,,74,127
22496,note_on,1,0,0,,12,,,71,127
22687,note_off,191,0,0,,12,,,71,127
22688,note_on,1,0,0,,0,,,72,127
22879,note_off,191,0,0,,4,,,64,127
22880,note_on,1,0,0,,7,,,67,127
23071,note_off,191,0,0,,7,,,67,127
23071,note_off,0,0,0,,0,,,72,127
23071,note_off,0,0,0,,7,,,79,127
23072,note_on,1,0,0,,2,,,62,127
23072,note_on,0,0,0,,6,,,78,127
23264,note_on,192,0,0,,10,,,69,127
23455,note_off,191,0,0,,10,,,69,127
23455,note_off,0,0,0,,6,,,78,127
23456,note_on,1,0,0,,12,,,71,127
23456,note_on,0,0,0,,7,,,79,127
23647,note_off,191,0,0,,12,,,71,127
23648,note_on,1,0,0,,7,,,67,127
23839,note_off,191,0,0,,7,,,67,127
23840,note_on,1,0,0,,10,,,69,127
24031,note_off,191,0,0,,7,,,79,127
24032,note_on,1,0,0,,4,,,76,127
24222,note_off,190,0,0,,2,,,62,127
24223,note_off,1,0,0,,4,,,76,127
24223,note_off,0,0,0,,10,,,69,127
24224,note_on,1,0,0,,0,,,72,127
24224,note_on,0,0,0,,6,,,78,127
24415,note_off,191,0,0,,6,,,78,127
24416,note_on,1,0,0,,0,,,84,127
24607,note_off,191,0,0,,0,,,84,127
24607,note_off,0,0,0,,0,,,72,127
24608,note_on,1,0,0,,7,,,67,127
24608,note_on,0,0,0,,12,,,83,127
24800,note_on,192,0,0,,3,,,75,127
24991,note_off,191,0,0,,3,,,75,127
24992,note_on,1,0,0,,4,,,76,127
25183,note_off,191,0,0,,7,,,67,127
25184,note_on,1,0,0,,4,,,64,127
25375,note_off,191,0,0,,4,,,64,127
25375,note_off,0,0,0,,12,,,83,127
25376,note_on,1,0,0,,6,,,66,127
25376,note_on,0,0,0,,10,,,81,127
25567,note_off,191,0,0,,4,,,76,127
25568,note_on,1,0,0,,1,,,73,127
25759,note_off,191,0,0,,1,,,73,127
25760,note_on,1,0,0,,3,,,75,127
25951,note_off,191,0,0,,6,,,66,127
25952,note_on,1,0,0,,10,,,69,127
26143,note_off,191,0,0,,10,,,69,127
26143,note_off,0,0,0,,3,,,75,127
26143,note_off,0,0,0,,10,,,81,127
26144,note_on,1,0,0,,4,,,64,127
26144,note_on,0,0,0,,8,,,80,127
26336,note_on,192,0,0,,12,,,71,127
26527,note_off,191,0,0,,12,,,71,127
26527,note_off,0,0,0,,8,,,80,127
26528,note_on,1,0,0,,0,,,72,127
26528,note_on,0,0,0,,10,,,81,127
26719,note_off,191,0,0,,0,,,72,127
26720,note_on,1,0,0,,10,,,69,127
26911,note_off,191,0,0,,10,,,69,127
26912,note_on,1,0,0,,12,,,71,127
27103,note_off,191,0,0,,10,,,81,127
27104,note_on,1,0,0,,6,,,78,127
27295,note_off,191,0,0,,6,,,78,127
27296,note_on,1,0,0,,7,,,79,127
27484,note_off,188,0,0,,4,,,64,127
27487,note_off,3,0,0,,12,,,71,127
27488,note_on,1,0,0,,2,,,74,127
27679,note_off,191,0,0,,2,,,74,127
27680,note_on,1,0,0,,10,,,69,127
27680,note_on,0,0,0,,1,,,73,127
27871,note_off,191,0,0,,7,,,79,127
27872,note_on,1,0,0,,4,,,76,127
28063,note_off,191,0,0,,4,,,76,127
28063,note_off,0,0,0,,1,,,73,127
28063,note_off,0,0,0,,10,,,69,127
28064,note_on,1,0,0,,2,,,74,127
28064,note_on,0,0,0,,6,,,78,127
28255,note_off,191,0,0,,2,,,74,127
28256,note_on,1,0,0,,6,,,66,127
28447,note_off,191,0,0,,6,,,66,127
28447,note_off,0,0,0,,6,,,78,127
28448,note_on,1,0,0,,7,,,67,127
28448,note_on,0,0,0,,12,,,83,127
28638,note_off,190,0,0,,12,,,83,127
28640,note_on,2,0,0,,4,,,76,127
28830,note_off,190,0,0,,4,,,76,127
28832,note_on,2,0,0,,7,,,79,127
29023,note_off,191,0,0,,7,,,67,127
29024,note_on,1,0,0,,2,,,74,127
29215,note_off,191,0,0,,2,,,74,127
29215,note_off,0,0,0,,7,,,79,127
29216,note_on,1,0,0,,1,,,73,127
29216,note_on,0,0,0,,10,,,81,127
29408,note_on,192,0,0,,4,,,64,127
29599,note_off,191,0,0,,4,,,64,127
29599,note_off,0,0,0,,1,,,73,127
29600,note_on,1,0,0,,6,,,66,127
29600,note_on,0,0,0,,2,,,74,127
29791,note_off,191,0,0,,6,,,66,127
29791,note_off,0,0,0,,10,,,81,127
29792,note_on,1,0,0,,2,,,62,127
29792,note_on,0,0,0,,6,,,78,127
29980,note_off,188,0,0,,2,,,74,127
29983,note_off,3,0,0,,6,,,78,127
29983,note_off,0,0,0,,2,,,62,127
29984,note_on,1,0,0,,4,,,64,127
29984,note_on,0,0,0,,7,,,79,127
30176,note_on,192,0,0,,12,,,71,127
30367,note_off,191,0,0,,12,,,71,127
30368,note_on,1,0,0,,0,,,72,127
30559,note_off,191,0,0,,4,,,64,127
30560,note_on,1,0,0,,7,,,67,127
30751,note_off,191,0,0,,7,,,67,127
30751,note_off,0,0,0,,0,,,72,127
30751,note_off,0,0,0,,7,,,79,127
30752,note_on,1,0,0,,6,,,66,127
30752,note_on,0,0,0,,2,,,74,127
30943,note_off,191,0,0,,6,,,66,127
30944,note_on,1,0,0,,2,,,62,127
31135,note_off,191,0,0,,2,,,62,127
31136,note_on,1,0,0,,7,,,67,127
31136,note_on,0,0,0,,12,,,71,127
31327,note_off,191,0,0,,7,,,67,127
31328,note_on,1,0,0,,12,,,59,127
31519,note_off,191,0,0,,12,,,59,127
31519,note_off,0,0,0,,2,,,74,127
31520,note_on,1,0,0,,0,,,60,127
31520,note_on,0,0,0,,4,,,76,127
31710,note_off,190,0,0,,4,,,76,127
31711,note_off,1,0,0,,12,,,71,127
31712,note_on,1,0,0,,10,,,69,127
31902,note_off,190,0,0,,10,,,69,127
31904,note_on,2,0,0,,0,,,72,127
32096,note_on,192,0,0,,7,,,67,127
32287,note_off,191,0,0,,7,,,67,127
32287,note_off,0,0,0,,0,,,72,127
32288,note_on,1,0,0,,2,,,74,127
32288,note_on,0,0,0,,6,,,66,127
32479,note_off,191,0,0,,0,,,60,127
32480,note_on,1,0,0,,10,,,57,127
32671,note_off,191,0,0,,10,,,57,127
32671,note_off,0,0,0,,6,,,66,127
32672,note_on,1,0,0,,12,,,59,127
32672,note_on,0,0,0,,7,,,67,127
32863,note_off,191,0,0,,12,,,59,127
32863,note_off,0,0,0,,2,,,74,127
32864,note_on,1,0,0,,7,,,55,127
32864,note_on,0,0,0,,12,,,71,127
33055,note_off,191,0,0,,12,,,71,127
33055,note_off,0,0,0,,7,,,55,127
33056,note_on,1,0,0,,0,,,60,127
33056,note_on,0,0,0,,10,,,57,127
33056,note_on,0,0,0,,0,,,72,127
33247,note_off,191,0,0,,7,,,67,127
33248,note_on,1,0,0,,6,,,66,127
33439,note_off,191,0,0,,6,,,66,127
33439,note_off,0,0,0,,10,,,57,127
33439,note_off,0,0,0,,0,,,60,127
33440,note_on,1,0,0,,7,,,55,127
33440,note_on,0,0,0,,2,,,62,127
33440,note_on,0,0,0,,7,,,67,127
33631,note_off,191,0,0,,7,,,67,127
33631,note_off,0,0,0,,0,,,72,127
33632,note_on,1,0,0,,12,,,71,127
33823,note_off,191,0,0,,12,,,71,127
33823,note_off,0,0,0,,2,,,62,127
33823,note_off,0,0,0,,7,,,55,127
33824,note_on,1,0,0,,2,,,50,127
33824,note_on,0,0,0,,12,,,71,127
33888,note_on,64,0,0,,10,,,69,127
33919,note_off,31,0,0,,12,,,71,127
33952,note_on,33,0,0,,12,,,71,127
33983,note_off,31,0,0,,10,,,69,127
34015,note_off,32,0,0,,2,,,50,127
34016,note_on,1,0,0,,6,,,54,127
34016,note_on,0,0,0,,10,,,69,127
34047,note_off,31,0,0,,12,,,71,127
34206,note_off,159,0,0,,10,,,69,127
34207,note_off,1,0,0,,6,,,54,127
34208,note_on,1,0,0,,10,,,57,127
34399,note_off,191,0,0,,10,,,57,127
34400,note_on,1,0,0,,2,,,62,127
34400,note_on,0,0,0,,2,,,74,127
34590,note_off,190,0,0,,2,,,74,127
34591,note_off,1,0,0,,2,,,62,127
34592,note_on,1,0,0,,4,,,64,127
34592,note_on,0,0,0,,7,,,79,127
34782,note_off,190,0,0,,4,,,64,127
34784,note_on,2,0,0,,0,,,72,127
34974,note_off,190,0,0,,0,,,72,127
34975,note_off,1,0,0,,7,,,79,127
34976,note_on,1,0,0,,2,,,62,127
34976,note_on,0,0,0,,6,,,78,127
35166,note_off,190,0,0,,2,,,62,127
35168,note_on,2,0,0,,12,,,71,127
35358,note_off,190,0,0,,12,,,71,127
35359,note_off,1,0,0,,6,,,78,127
35360,note_on,1,0,0,,0,,,60,127
35360,note_on,0,0,0,,4,,,76,127
35550,note_off,190,0,0,,0,,,60,127
35552,note_on,2,0,0,,10,,,69,127
35743,note_off,191,0,0,,10,,,69,127
35744,note_on,1,0,0,,7,,,67,127
35935,note_off,191,0,0,,4,,,76,127
35936,note_on,1,0,0,,12,,,59,127
35936,note_on,0,0,0,,2,,,74,127
36124,note_off,188,0,0,,7,,,67,127
36127,note_off,3,0,0,,2,,,74,127
36127,note_off,0,0,0,,12,,,59,127
36128,note_on,1,0,0,,10,,,57,127
36128,note_on,0,0,0,,0,,,72,127
36320,note_on,192,0,0,,6,,,66,127
36511,note_off,191,0,0,,6,,,66,127
36511,note_off,0,0,0,,10,,,57,127
36512,note_on,1,0,0,,2,,,62,127
36512,note_on,0,0,0,,7,,,55,127
36512,note_on,0,0,0,,7,,,67,127
36702,note_off,190,0,0,,7,,,67,127
36703,note_off,1,0,0,,0,,,72,127
36704,note_on,1,0,0,,12,,,71,127
36895,note_off,191,0,0,,12,,,71,127
36895,note_off,0,0,0,,7,,,55,127
36895,note_off,0,0,0,,2,,,62,127
36896,note_on,1,0,0,,2,,,50,127
36896,note_on,0,0,0,,10,,,69,127
37087,note_off,191,0,0,,2,,,50,127
37088,note_on,1,0,0,,6,,,54,127
37279,note_off,191,0,0,,6,,,54,127
37280,note_on,1,0,0,,10,,,57,127
37471,note_off,191,0,0,,10,,,57,127
37471,note_off,0,0,0,,10,,,69,127
37472,note_on,1,0,0,,2,,,62,127
37472,note_on,0,0,0,,12,,,71,127
37663,note_off,191,0,0,,12,,,71,127
37663,note_off,0,0,0,,2,,,62,127
37664,note_on,1,0,0,,10,,,69,127
37664,note_on,0,0,0,,0,,,72,127
37855,note_off,191,0,0,,0,,,72,127
37856,note_on,1,0,0,,2,,,62,127
38047,note_off,191,0,0,,2,,,62,127
38047,note_off,0,0,0,,10,,,69,127
38048,note_on,1,0,0,,7,,,67,127
38048,note_on,0,0,0,,12,,,71,127
38239,note_off,191,0,0,,12,,,71,127
38240,note_on,1,0,0,,2,,,62,127
38431,note_off,191,0,0,,2,,,62,127
38431,note_off,0,0,0,,7,,,67,127
38432,note_on,1,0,0,,2,,,50,127
38432,note_on,0,0,0,,10,,,69,127
38623,note_off,191,0,0,,2,,,50,127
38624,note_on,1,0,0,,6,,,54,127
38815,note_off,191,0,0,,6,,,54,127
38816,note_on,1,0,0,,10,,,57,127
39007,note_off,191,0,0,,10,,,57,127
39007,note_off,0,0,0,,10,,,69,127
39008,note_on,1,0,0,,2,,,62,127
39008,note_on,0,0,0,,12,,,71,127
39199,note_off,191,0,0,,12,,,71,127
39199,note_off,0,0,0,,2,,,62,127
39200,note_on,1,0,0,,10,,,69,127
39200,note_on,0,0,0,,0,,,72,127
39391,note_off,191,0,0,,0,,,72,127
39392,note_on,1,0,0,,2,,,62,127
39583,note_off,191,0,0,,2,,,62,127
39583,note_off,0,0,0,,10,,,69,127
39584,note_on,1,0,0,,7,,,67,127
39584,note_on,0,0,0,,12,,,71,127
39775,note_off,191,0,0,,12,,,71,127
39776,note_on,1,0,0,,2,,,62,127
39967,note_off,191,0,0,,2,,,62,127
39967,note_off,0,0,0,,7,,,67,127
39968,note_on,1,0,0,,2,,,50,127
39968,note_on,0,0,0,,10,,,69,127
40159,note_off,191,0,0,,2,,,50,127
40160,note_on,1,0,0,,6,,,54,127
40351,note_off,191,0,0,,6,,,54,127
40352,note_on,1,0,0,,10,,,57,127
40543,note_off,191,0,0,,10,,,57,127
40543,note_off,0,0,0,,10,,,69,127
40544,note_on,1,0,0,,12,,,71,127
40544,note_on,0,0,0,,2,,,74,127
40735,note_off,191,0,0,,2,,,74,127
40735,note_off,0,0,0,,12,,,71,127
40736,note_on,1,0,0,,0,,,72,127
40736,note_on,0,0,0,,4,,,76,127
40927,note_off,191,0,0,,4,,,76,127
40928,note_on,1,0,0,,6,,,66,127
41119,note_off,191,0,0,,6,,,66,127
41119,note_off,0,0,0,,0,,,72,127
41120,note_on,1,0,0,,12,,,71,127
41120,note_on,0,0,0,,2,,,74,127
41311,note_off,191,0,0,,2,,,74,127
41312,note_on,1,0,0,,7,,,67,127
41503,note_off,191,0,0,,7,,,67,127
41503,note_off,0,0,0,,12,,,71,127
41504,note_on,1,0,0,,10,,,57,127
41504,note_on,0,0,0,,0,,,72,127
41695,note_off,191,0,0,,10,,,57,127
41696,note_on,1,0,0,,0,,,60,127
41887,note_off,191,0,0,,0,,,60,127
41888,note_on,1,0,0,,6,,,66,127
42079,note_off,191,0,0,,6,,,66,127
42079,note_off,0,0,0,,0,,,72,127
42080,note_on,1,0,0,,12,,,71,127
42080,note_on,0,0,0,,2,,,74,127
42271,note_off,191,0,0,,2,,,74,127
42271,note_off,0,0,0,,12,,,71,127
42272,note_on,1,0,0,,0,,,72,127
42272,note_on,0,0,0,,4,,,76,127
42463,note_off,191,0,0,,4,,,76,127
42464,note_on,1,0,0,,6,,,66,127
42655,note_off,191,0,0,,6,,,66,127
42655,note_off,0,0,0,,0,,,72,127
42656,note_on,1,0,0,,12,,,71,127
42656,note_on,0,0,0,,2,,,74,127
42847,note_off,191,0,0,,2,,,74,127
42848,note_on,1,0,0,,7,,,67,127
43039,note_off,191,0,0,,7,,,67,127
43039,note_off,0,0,0,,12,,,71,127
43040,note_on,1,0,0,,10,,,45,127
43040,note_on,0,0,0,,0,,,72,127
43231,note_off,191,0,0,,10,,,45,127
43232,note_on,1,0,0,,0,,,48,127
43423,note_off,191,0,0,,0,,,48,127
43424,note_on,1,0,0,,6,,,54,127
43615,note_off,191,0,0,,6,,,54,127
43615,note_off,0,0,0,,0,,,72,127
43616,note_on,1,0,0,,12,,,59,127
43616,note_on,0,0,0,,2,,,74,127
43807,note_off,191,0,0,,2,,,74,127
43807,note_off,0,0,0,,12,,,59,127
43808,note_on,1,0,0,,0,,,60,127
43808,note_on,0,0,0,,4,,,76,127
44000,note_on,192,0,0,,7,,,67,127
44191,note_off,191,0,0,,7,,,67,127
44191,note_off,0,0,0,,4,,,76,127
44191,note_off,0,0,0,,0,,,60,127
44192,note_on,1,0,0,,10,,,57,127
44192,note_on,0,0,0,,10,,,69,127
44384,note_on,192,0,0,,6,,,78,127
44575,note_off,191,0,0,,6,,,78,127
44575,note_off,0,0,0,,10,,,69,127
44575,note_off,0,0,0,,10,,,57,127
44576,note_on,1,0,0,,12,,,59,127
44576,note_on,0,0,0,,7,,,79,127
44768,note_on,192,0,0,,12,,,71,127
44959,note_off,191,0,0,,12,,,71,127
44959,note_off,0,0,0,,12,,,59,127
44960,note_on,1,0,0,,6,,,54,127
44960,note_on,0,0,0,,0,,,72,127
45151,note_off,191,0,0,,7,,,79,127
45152,note_on,1,0,0,,10,,,81,127
45343,note_off,191,0,0,,10,,,81,127
45343,note_off,0,0,0,,0,,,72,127
45343,note_off,0,0,0,,6,,,54,127
45344,note_on,1,0,0,,7,,,55,127
45344,note_on,0,0,0,,12,,,83,127
45535,note_off,191,0,0,,12,,,83,127
45536,note_on,1,0,0,,2,,,74,127
45536,note_on,0,0,0,,7,,,79,127
45726,note_off,190,0,0,,2,,,74,127
45727,note_off,1,0,0,,7,,,79,127
45727,note_off,0,0,0,,7,,,55,127
45728,note_on,1,0,0,,2,,,50,127
45728,note_on,0,0,0,,10,,,81,127
45919,note_off,191,0,0,,10,,,81,127
45920,note_on,1,0,0,,6,,,78,127
45920,note_on,0,0,0,,2,,,74,127
46111,note_off,191,0,0,,6,,,78,127
46111,note_off,0,0,0,,2,,,50,127
46112,note_on,1,0,0,,4,,,52,127
46112,note_on,0,0,0,,7,,,79,127
46300,note_off,188,0,0,,2,,,74,127
46303,note_off,3,0,0,,7,,,79,127
46304,note_on,1,0,0,,4,,,76,127
46304,note_on,0,0,0,,0,,,72,127
46495,note_off,191,0,0,,4,,,76,127
46495,note_off,0,0,0,,4,,,52,127
46496,note_on,1,0,0,,12,,,47,127
46496,note_on,0,0,0,,6,,,78,127
46687,note_off,191,0,0,,6,,,78,127
46687,note_off,0,0,0,,0,,,72,127
46688,note_on,1,0,0,,2,,,74,127
46688,note_on,0,0,0,,12,,,71,127
46879,note_off,191,0,0,,2,,,74,127
46879,note_off,0,0,0,,12,,,47,127
46880,note_on,1,0,0,,0,,,48,127
46880,note_on,0,0,0,,4,,,76,127
47071,note_off,191,0,0,,4,,,76,127
47071,note_off,0,0,0,,12,,,71,127
47072,note_on,1,0,0,,0,,,72,127
47072,note_on,0,0,0,,10,,,69,127
47263,note_off,191,0,0,,0,,,72,127
47263,note_off,0,0,0,,0,,,48,127
47264,note_on,1,0,0,,7,,,43,127
47264,note_on,0,0,0,,2,,,74,127
47455,note_off,191,0,0,,2,,,74,127
47455,note_off,0,0,0,,10,,,69,127
47456,note_on,1,0,0,,12,,,71,127
47456,note_on,0,0,0,,7,,,67,127
47646,note_off,190,0,0,,7,,,67,127
47647,note_off,1,0,0,,12,,,71,127
47647,note_off,0,0,0,,7,,,43,127
47648,note_on,1,0,0,,2,,,38,127
47648,note_on,0,0,0,,0,,,72,127
47839,note_off,191,0,0,,0,,,72,127
47839,note_off,0,0,0,,2,,,38,127
47840,note_on,1,0,0,,2,,,50,127
47840,note_on,0,0,0,,10,,,69,127
47840,note_on,0,0,0,,6,,,66,127
48031,note_off,191,0,0,,6,,,66,127
48031,note_off,0,0,0,,10,,,69,127
48031,note_off,0,0,0,,2,,,50,127
48032,note_on,1,0,0,,7,,,55,127
48032,note_on,0,0,0,,12,,,71,127
48032,note_on,0,0,0,,7,,,67,127
48223,note_off,191,0,0,,12,,,71,127
48223,note_off,0,0,0,,7,,,55,127
48224,note_on,1,0,0,,0,,,48,127
48224,note_on,0,0,0,,0,,,72,127
48415,note_off,191,0,0,,0,,,72,127
48415,note_off,0,0,0,,0,,,48,127
48415,note_off,0,0,0,,7,,,67,127
48416,note_on,1,0,0,,2,,,50,127
48416,note_on,0,0,0,,12,,,71,127
48416,note_on,0,0,0,,7,,,67,127
48799,note_off,383,0,0,,7,,,67,127
48799,note_off,0,0,0,,12,,,71,127
48799,note_off,0,0,0,,2,,,50,127
48800,note_on,1,0,0,,2,,,38,127
48800,note_on,0,0,0,,6,,,66,127
48800,note_on,0,0,0,,10,,,69,127
49183,note_off,383,0,0,,10,,,69,127
49183,note_off,0,0,0,,6,,,66,127
49183,note_off,0,0,0,,2,,,38,127
49184,note_on,1,0,0,,7,,,43,127
49184,note_on,0,0,0,,7,,,67,127
49184,note_on,0,0,0,,12,,,71,127
49375,note_off,191,0,0,,7,,,43,127
49376,note_on,1,0,0,,12,,,47,127
49567,note_off,191,0,0,,12,,,47,127
49568,note_on,1,0,0,,2,,,50,127
49759,note_off,191,0,0,,2,,,50,127
49759,note_off,0,0,0,,12,,,71,127
49760,note_on,1,0,0,,7,,,55,127
49760,note_on,0,0,0,,0,,,72,127
49951,note_off,191,0,0,,0,,,72,127
49951,note_off,0,0,0,,7,,,55,127
49951,note_off,0,0,0,,7,,,67,127
49952,note_on,1,0,0,,12,,,59,127
49952,note_on,0,0,0,,2,,,74,127
50142,note_off,190,0,0,,12,,,59,127
50144,note_on,2,0,0,,7,,,67,127
50334,note_off,190,0,0,,7,,,67,127
50335,note_off,1,0,0,,2,,,74,127
50336,note_on,1,0,0,,10,,,57,127
50336,note_on,0,0,0,,0,,,72,127
50526,note_off,190,0,0,,10,,,57,127
50528,note_on,2,0,0,,6,,,66,127
50719,note_off,191,0,0,,6,,,66,127
50719,note_off,0,0,0,,0,,,72,127
50720,note_on,1,0,0,,7,,,43,127
50720,note_on,0,0,0,,7,,,67,127
50720,note_on,0,0,0,,12,,,71,127
50911,note_off,191,0,0,,7,,,43,127
50912,note_on,1,0,0,,12,,,47,127
51103,note_off,191,0,0,,12,,,47,127
51104,note_on,1,0,0,,2,,,50,127
51295,note_off,191,0,0,,2,,,50,127
51295,note_off,0,0,0,,12,,,71,127
51295,note_off,0,0,0,,7,,,67,127
51296,note_on,1,0,0,,7,,,55,127
51296,note_on,0,0,0,,2,,,74,127
51487,note_off,191,0,0,,2,,,74,127
51487,note_off,0,0,0,,7,,,55,127
51488,note_on,1,0,0,,6,,,54,127
51488,note_on,0,0,0,,10,,,69,127
51679,note_off,191,0,0,,10,,,69,127
51680,note_on,1,0,0,,2,,,74,127
51680,note_on,0,0,0,,6,,,66,127
51870,note_off,190,0,0,,2,,,74,127
51871,note_off,1,0,0,,6,,,66,127
51871,note_off,0,0,0,,6,,,54,127
51872,note_on,1,0,0,,4,,,52,127
51872,note_on,0,0,0,,7,,,67,127
52063,note_off,191,0,0,,7,,,67,127
52064,note_on,1,0,0,,1,,,73,127
52064,note_on,0,0,0,,4,,,64,127
52255,note_off,191,0,0,,4,,,64,127
52255,note_off,0,0,0,,1,,,73,127
52255,note_off,0,0,0,,4,,,52,127
52256,note_on,1,0,0,,2,,,38,127
52256,note_on,0,0,0,,2,,,74,127
52256,note_on,0,0,0,,6,,,66,127
52447,note_off,191,0,0,,2,,,38,127
52448,note_on,1,0,0,,6,,,42,127
52639,note_off,191,0,0,,6,,,42,127
52640,note_on,1,0,0,,10,,,45,127
52831,note_off,191,0,0,,10,,,45,127
52831,note_off,0,0,0,,6,,,66,127
52832,note_on,1,0,0,,2,,,50,127
52832,note_on,0,0,0,,7,,,67,127
53023,note_off,191,0,0,,7,,,67,127
53023,note_off,0,0,0,,2,,,50,127
53023,note_off,0,0,0,,2,,,74,127
53024,note_on,1,0,0,,6,,,54,127
53024,note_on,0,0,0,,10,,,69,127
53214,note_off,190,0,0,,6,,,54,127
53216,note_on,2,0,0,,2,,,62,127
53406,note_off,190,0,0,,2,,,62,127
53407,note_off,1,0,0,,10,,,69,127
53408,note_on,1,0,0,,4,,,52,127
53408,note_on,0,0,0,,7,,,67,127
53598,note_off,190,0,0,,4,,,52,127
53600,note_on,2,0,0,,1,,,61,127
53791,note_off,191,0,0,,1,,,61,127
53791,note_off,0,0,0,,7,,,67,127
53792,note_on,1,0,0,,2,,,38,127
53792,note_on,0,0,0,,2,,,62,127
53792,note_on,0,0,0,,6,,,66,127
53792,note_on,0,0,0,,10,,,69,127
53983,note_off,191,0,0,,2,,,38,127
53984,note_on,1,0,0,,6,,,42,127
54175,note_off,191,0,0,,6,,,42,127
54176,note_on,1,0,0,,10,,,45,127
54367,note_off,191,0,0,,10,,,45,127
54367,note_off,0,0,0,,10,,,69,127
54368,note_on,1,0,0,,2,,,50,127
54368,note_on,0,0,0,,12,,,71,127
54559,note_off,191,0,0,,12,,,71,127
54559,note_off,0,0,0,,2,,,50,127
54559,note_off,0,0,0,,6,,,66,127
54559,note_off,0,0,0,,2,,,62,127
54560,note_on,1,0,0,,10,,,57,127
54560,note_on,0,0,0,,0,,,72,127
54752,note_on,192,0,0,,2,,,62,127
54943,note_off,191,0,0,,2,,,62,127
54943,note_off,0,0,0,,10,,,57,127
54944,note_on,1,0,0,,7,,,55,127
54944,note_on,0,0,0,,4,,,64,127
55135,note_off,191,0,0,,4,,,64,127
55136,note_on,1,0,0,,0,,,60,127
55327,note_off,191,0,0,,0,,,60,127
55327,note_off,0,0,0,,7,,,55,127
55328,note_on,1,0,0,,6,,,54,127
55328,note_on,0,0,0,,10,,,69,127
55519,note_off,191,0,0,,10,,,69,127
55519,note_off,0,0,0,,6,,,54,127
55520,note_on,1,0,0,,2,,,50,127
55520,note_on,0,0,0,,6,,,66,127
55711,note_off,191,0,0,,6,,,66,127
55711,note_off,0,0,0,,2,,,50,127
55711,note_off,0,0,0,,0,,,72,127
55712,note_on,1,0,0,,7,,,55,127
55712,note_on,0,0,0,,12,,,71,127
55712,note_on,0,0,0,,7,,,67,127
55903,note_off,191,0,0,,12,,,71,127
55903,note_off,0,0,0,,7,,,55,127
55904,note_on,1,0,0,,0,,,48,127
55904,note_on,0,0,0,,0,,,72,127
56095,note_off,191,0,0,,0,,,72,127
56095,note_off,0,0,0,,0,,,48,127
56096,note_on,1,0,0,,2,,,50,127
56096,note_on,0,0,0,,12,,,71,127
56479,note_off,383,0,0,,12,,,71,127
56479,note_off,0,0,0,,2,,,50,127
56479,note_off,0,0,0,,7,,,67,127
56480,note_on,1,0,0,,2,,,38,127
56480,note_on,0,0,0,,6,,,66,127
56480,note_on,0,0,0,,10,,,69,127
56863,note_off,383,0,0,,10,,,69,127
56863,note_off,0,0,0,,6,,,66,127
56863,note_off,0,0,0,,2,,,38,127
56864,note_on,1,0,0,,7,,,55,127
56864,note_on,0,0,0,,12,,,71,127
57055,note_off,191,0,0,,12,,,71,127
57056,note_on,1,0,0,,7,,,79,127
57056,note_on,0,0,0,,12,,,83,127
57247,note_off,191,0,0,,12,,,83,127
57247,note_off,0,0,0,,7,,,79,127
57247,note_off,0,0,0,,7,,,55,127
57248,note_on,1,0,0,,2,,,50,127
57248,note_on,0,0,0,,10,,,69,127
57439,note_off,191,0,0,,10,,,69,127
57440,note_on,1,0,0,,6,,,78,127
57440,note_on,0,0,0,,10,,,81,127
57631,note_off,191,0,0,,10,,,81,127
57631,note_off,0,0,0,,6,,,78,127
57631,note_off,0,0,0,,2,,,50,127
57632,note_on,1,0,0,,4,,,52,127
57632,note_on,0,0,0,,7,,,67,127
57823,note_off,191,0,0,,7,,,67,127
57824,note_on,1,0,0,,4,,,76,127
57824,note_on,0,0,0,,7,,,79,127
58015,note_off,191,0,0,,7,,,79,127
58015,note_off,0,0,0,,4,,,76,127
58015,note_off,0,0,0,,4,,,52,127
58016,note_on,1,0,0,,12,,,47,127
58016,note_on,0,0,0,,6,,,66,127
58207,note_off,191,0,0,,6,,,66,127
58208,note_on,1,0,0,,6,,,78,127
58208,note_on,0,0,0,,2,,,74,127
58399,note_off,191,0,0,,2,,,74,127
58399,note_off,0,0,0,,6,,,78,127
58399,note_off,0,0,0,,12,,,47,127
58400,note_on,1,0,0,,0,,,48,127
58400,note_on,0,0,0,,4,,,64,127
58591,note_off,191,0,0,,4,,,64,127
58592,note_on,1,0,0,,4,,,76,127
58592,note_on,0,0,0,,0,,,72,127
58783,note_off,191,0,0,,0,,,72,127
58783,note_off,0,0,0,,4,,,76,127
58783,note_off,0,0,0,,0,,,48,127
58784,note_on,1,0,0,,7,,,43,127
58784,note_on,0,0,0,,2,,,62,127
58975,note_off,191,0,0,,2,,,62,127
58976,note_on,1,0,0,,12,,,71,127
58976,note_on,0,0,0,,2,,,74,127
59167,note_off,191,0,0,,2,,,74,127
59167,note_off,0,0,0,,12,,,71,127
59167,note_off,0,0,0,,7,,,43,127
59168,note_on,1,0,0,,2,,,38,127
59168,note_on,0,0,0,,0,,,72,127
59359,note_off,191,0,0,,0,,,72,127
59359,note_off,0,0,0,,2,,,38,127
59360,note_on,1,0,0,,6,,,54,127
59360,note_on,0,0,0,,10,,,69,127
59360,note_on,0,0,0,,2,,,62,127
59551,note_off,191,0,0,,2,,,62,127
59551,note_off,0,0,0,,10,,,69,127
59551,note_off,0,0,0,,6,,,54,127
59552,note_on,1,0,0,,7,,,55,127
59552,note_on,0,0,0,,7,,,67,127
59552,note_on,0,0,0,,12,,,71,127
59743,note_off,191,0,0,,12,,,71,127
59743,note_off,0,0,0,,7,,,55,127
59744,note_on,1,0,0,,0,,,48,127
59744,note_on,0,0,0,,0,,,72,127
59935,note_off,191,0,0,,0,,,72,127
59935,note_off,0,0,0,,0,,,48,127
59936,note_on,1,0,0,,2,,,50,127
59936,note_on,0,0,0,,12,,,71,127
60319,note_off,383,0,0,,12,,,71,127
60319,note_off,0,0,0,,2,,,50,127
60319,note_off,0,0,0,,7,,,67,127
60320,note_on,1,0,0,,2,,,38,127
60320,note_on,0,0,0,,10,,,69,127
60320,note_on,0,0,0,,6,,,66,127
60703,note_off,383,0,0,,6,,,66,127
60703,note_off,0,0,0,,10,,,69,127
60703,note_off,0,0,0,,2,,,38,127
60704,note_on,1,0,0,,7,,,55,127
60704,note_on,0,0,0,,12,,,71,127
60896,note_on,192,0,0,,12,,,83,127
60896,note_on,0,0,0,,7,,,79,127
60992,note_off,96,0,0,,7,,,55,127
61084,note_off,92,0,0,,12,,,71,127
61087,note_off,3,0,0,,7,,,79,127
61087,note_off,0,0,0,,12,,,83,127
61088,note_on,1,0,0,,2,,,50,127
61088,note_on,0,0,0,,10,,,69,127
61280,note_on,192,0,0,,10,,,81,127
61280,note_on,0,0,0,,6,,,78,127
61376,note_off,96,0,0,,2,,,50,127
61468,note_off,92,0,0,,10,,,69,127
61471,note_off,3,0,0,,6,,,78,127
61471,note_off,0,0,0,,10,,,81,127
61472,note_on,1,0,0,,4,,,52,127
61472,note_on,0,0,0,,7,,,67,127
61664,note_on,192,0,0,,4,,,76,127
61664,note_on,0,0,0,,7,,,79,127
61760,note_off,96,0,0,,4,,,52,127
61852,note_off,92,0,0,,7,,,67,127
61855,note_off,3,0,0,,7,,,79,127
61855,note_off,0,0,0,,4,,,76,127
61856,note_on,1,0,0,,12,,,47,127
61856,note_on,0,0,0,,6,,,66,127
62048,note_on,192,0,0,,2,,,74,127
62048,note_on,0,0,0,,6,,,78,127
62144,note_off,96,0,0,,12,,,47,127
62236,note_off,92,0,0,,6,,,66,127
62239,note_off,3,0,0,,6,,,78,127
62239,note_off,0,0,0,,2,,,74,127
62240,note_on,1,0,0,,0,,,48,127
62240,note_on,0,0,0,,4,,,64,127
62432,note_on,192,0,0,,4,,,76,127
62432,note_on,0,0,0,,0,,,72,127
62528,note_off,96,0,0,,0,,,48,127
62620,note_off,92,0,0,,4,,,64,127
62623,note_off,3,0,0,,0,,,72,127
62623,note_off,0,0,0,,4,,,76,127
62624,note_on,1,0,0,,7,,,43,127
62624,note_on,0,0,0,,2,,,62,127
62816,note_on,192,0,0,,12,,,71,127
62816,note_on,0,0,0,,2,,,74,127
62984,note_off,168,0,0,,7,,,43,127
63007,note_off,23,0,0,,2,,,74,127
63007,note_off,0,0,0,,12,,,71,127
63008,note_on,1,0,0,,2,,,38,127
63008,note_on,0,0,0,,0,,,72,127
63194,note_off,186,0,0,,2,,,62,127
63199,note_off,5,0,0,,0,,,72,127
63199,note_off,0,0,0,,2,,,38,127
63200,note_on,1,0,0,,6,,,54,127
63200,note_on,0,0,0,,10,,,69,127
63200,note_on,0,0,0,,2,,,62,127
63391,note_off,191,0,0,,2,,,62,127
63391,note_off,0,0,0,,10,,,69,127
63391,note_off,0,0,0,,6,,,54,127
63392,note_on,1,0,0,,7,,,55,127
63392,note_on,0,0,0,,7,,,67,127
63392,note_on,0,0,0,,12,,,71,127
63583,note_off,191,0,0,,12,,,71,127
63583,note_off,0,0,0,,7,,,55,127
63584,note_on,1,0,0,,0,,,48,127
63584,note_on,0,0,0,,0,,,72,127
63775,note_off,191,0,0,,0,,,72,127
63775,note_off,0,0,0,,0,,,48,127
63776,note_on,1,0,0,,2,,,50,127
63776,note_on,0,0,0,,12,,,71,127
64159,note_off,383,0,0,,12,,,71,127
64159,note_off,0,0,0,,2,,,50,127
64159,note_off,0,0,0,,7,,,67,127
64160,note_on,1,0,0,,2,,,38,127
64160,note_on,0,0,0,,6,,,66,127
64160,note_on,0,0,0,,10,,,69,127
64543,note_off,383,0,0,,10,,,69,127
64543,note_off,0,0,0,,6,,,66,127
64543,note_off,0,0,0,,2,,,38,127
64544,note_on,1,0,0,,7,,,43,127
64544,note_on,0,0,0,,7,,,67,127
64735,note_off,191,0,0,,7,,,67,127
64736,note_on,1,0,0,,2,,,62,127
64927,note_off,191,0,0,,2,,,62,127
64927,note_off,0,0,0,,7,,,43,127
64928,note_on,1,0,0,,7,,,43,127
64928,note_on,0,0,0,,12,,,59,127
65119,note_off,191,0,0,,12,,,59,127
65120,note_on,1,0,0,,7,,,55,127
65311,note_off,191,0,0,,7,,,55,127
65311,note_off,0,0,0,,7,,,43,127
65312,note_on,1,0,0,,7,,,43,127
66079,note_off,767,0,0,,7,,,43,127
66080,note_on,1,0,0,,7,,,55,127
66271,note_off,191,0,0,,7,,,55,127
66272,note_on,1,0,0,,12,,,59,127
66463,note_off,191,0,0,,12,,,59,127
66464,note_on,1,0,0,,2,,,62,127
66655,note_off,191,0,0,,2,,,62,127
66656,note_on,1,0,0,,7,,,67,127
66847,note_off,191,0,0,,7,,,67,127
66848,note_on,1,0,0,,12,,,71,127
67231,note_off,383,0,0,,12,,,71,127
67232,note_on,1,0,0,,12,,,71,127
67296,note_on,64,0,0,,10,,,69,127
67327,note_off,31,0,0,,12,,,71,127
67360,note_on,33,0,0,,12,,,71,127
67391,note_off,31,0,0,,10,,,69,127
67424,note_on,33,0,0,,10,,,69,127
67455,note_off,31,0,0,,12,,,71,127
67614,note_off,159,0,0,,10,,,69,127
67616,note_on,2,0,0,,12,,,59,127
67807,note_off,191,0,0,,12,,,59,127
67808,note_on,1,0,0,,2,,,62,127
67999,note_off,191,0,0,,2,,,62,127
68000,note_on,1,0,0,,7,,,67,127
68191,note_off,191,0,0,,7,,,67,127
68192,note_on,1,0,0,,12,,,71,127
68383,note_off,191,0,0,,12,,,71,127
68384,note_on,1,0,0,,2,,,74,127
68767,note_off,383,0,0,,2,,,74,127
68768,note_on,1,0,0,,2,,,74,127
68832,note_on,64,0,0,,0,,,72,127
68863,note_off,31,0,0,,2,,,74,127
68896,note_on,33,0,0,,2,,,74,127
68927,note_off,31,0,0,,0,,,72,127
68960,note_on,33,0,0,,0,,,72,127
68991,note_off,31,0,0,,2,,,74,127
69150,note_off,159,0,0,,0,,,72,127
69152,note_on,2,0,0,,7,,,43,127
69152,note_on,0,0,0,,12,,,71,127
69343,note_off,191,0,0,,7,,,43,127
69344,note_on,1,0,0,,12,,,47,127
69535,note_off,191,0,0,,12,,,47,127
69536,note_on,1,0,0,,2,,,50,127
69727,note_off,191,0,0,,2,,,50,127
69727,note_off,0,0,0,,12,,,71,127
69728,note_on,1,0,0,,7,,,55,127
69728,note_on,0,0,0,,10,,,69,127
69919,note_off,191,0,0,,10,,,69,127
69919,note_off,0,0,0,,7,,,55,127
69920,note_on,1,0,0,,12,,,59,127
69920,note_on,0,0,0,,2,,,62,127
70110,note_off,190,0,0,,12,,,59,127
70112,note_on,2,0,0,,7,,,67,127
70302,note_off,190,0,0,,7,,,67,127
70303,note_off,1,0,0,,2,,,62,127
70304,note_on,1,0,0,,10,,,57,127
70304,note_on,0,0,0,,0,,,60,127
70494,note_off,190,0,0,,10,,,57,127
70496,note_on,2,0,0,,6,,,66,127
70687,note_off,191,0,0,,6,,,66,127
70687,note_off,0,0,0,,0,,,60,127
70688,note_on,1,0,0,,12,,,47,127
70688,note_on,0,0,0,,7,,,67,127
70879,note_off,191,0,0,,12,,,47,127
70880,note_on,1,0,0,,2,,,50,127
71071,note_off,191,0,0,,2,,,50,127
71072,note_on,1,0,0,,7,,,55,127
71263,note_off,191,0,0,,7,,,55,127
71263,note_off,0,0,0,,7,,,67,127
71264,note_on,1,0,0,,12,,,59,127
71264,note_on,0,0,0,,10,,,69,127
71455,note_off,191,0,0,,10,,,69,127
71455,note_off,0,0,0,,12,,,59,127
71456,note_on,1,0,0,,2,,,62,127
71456,note_on,0,0,0,,12,,,71,127
71646,note_off,190,0,0,,2,,,62,127
71648,note_on,2,0,0,,7,,,67,127
71838,note_off,190,0,0,,7,,,67,127
71840,note_on,2,0,0,,0,,,60,127
72030,note_off,190,0,0,,0,,,60,127
72031,note_off,1,0,0,,12,,,71,127
72032,note_on,1,0,0,,6,,,66,127
72032,note_on,0,0,0,,10,,,69,127
72223,note_off,191,0,0,,10,,,69,127
72223,note_off,0,0,0,,6,,,66,127
72224,note_on,1,0,0,,12,,,59,127
72224,note_on,0,0,0,,7,,,67,127
72416,note_on,192,0,0,,2,,,62,127
72607,note_off,191,0,0,,2,,,62,127
72608,note_on,1,0,0,,5,,,65,127
72799,note_off,191,0,0,,7,,,67,127
72799,note_off,0,0,0,,12,,,59,127
72800,note_on,1,0,0,,10,,,57,127
72800,note_on,0,0,0,,10,,,69,127
72991,note_off,191,0,0,,10,,,69,127
72991,note_off,0,0,0,,10,,,57,127
72992,note_on,1,0,0,,8,,,56,127
72992,note_on,0,0,0,,12,,,71,127
73183,note_off,191,0,0,,5,,,65,127
73184,note_on,1,0,0,,2,,,62,127
73375,note_off,191,0,0,,2,,,62,127
73376,note_on,1,0,0,,4,,,64,127
73567,note_off,191,0,0,,4,,,64,127
73568,note_on,1,0,0,,12,,,59,127
73759,note_off,191,0,0,,12,,,59,127
73759,note_off,0,0,0,,12,,,71,127
73759,note_off,0,0,0,,8,,,56,127
73760,note_on,1,0,0,,10,,,45,127
73760,note_on,0,0,0,,0,,,60,127
73951,note_off,191,0,0,,10,,,45,127
73952,note_on,1,0,0,,0,,,48,127
74143,note_off,191,0,0,,0,,,48,127
74144,note_on,1,0,0,,4,,,52,127
74335,note_off,191,0,0,,4,,,52,127
74335,note_off,0,0,0,,0,,,60,127
74336,note_on,1,0,0,,10,,,57,127
74336,note_on,0,0,0,,4,,,64,127
74527,note_off,191,0,0,,4,,,64,127
74527,note_off,0,0,0,,10,,,57,127
74528,note_on,1,0,0,,0,,,60,127
74528,note_on,0,0,0,,10,,,69,127
74718,note_off,190,0,0,,10,,,69,127
74720,note_on,2,0,0,,4,,,76,127
74911,note_off,191,0,0,,4,,,76,127
74911,note_off,0,0,0,,0,,,60,127
74912,note_on,1,0,0,,12,,,59,127
74912,note_on,0,0,0,,2,,,74,127
75102,note_off,190,0,0,,12,,,59,127
75104,note_on,2,0,0,,8,,,68,127
75295,note_off,191,0,0,,8,,,68,127
75295,note_off,0,0,0,,2,,,74,127
75296,note_on,1,0,0,,10,,,57,127
75296,note_on,0,0,0,,0,,,72,127
75486,note_off,190,0,0,,10,,,57,127
75488,note_on,2,0,0,,3,,,63,127
75679,note_off,191,0,0,,3,,,63,127
75680,note_on,1,0,0,,4,,,64,127
75870,note_off,190,0,0,,4,,,64,127
75871,note_off,1,0,0,,0,,,72,127
75872,note_on,1,0,0,,7,,,55,127
75872,note_on,0,0,0,,12,,,71,127
76063,note_off,191,0,0,,12,,,71,127
76063,note_off,0,0,0,,7,,,55,127
76064,note_on,1,0,0,,3,,,51,127
76064,note_on,0,0,0,,12,,,59,127
76064,note_on,0,0,0,,10,,,69,127
76256,note_on,192,0,0,,6,,,66,127
76447,note_off,191,0,0,,10,,,69,127
76447,note_off,0,0,0,,12,,,59,127
76447,note_off,0,0,0,,3,,,51,127
76448,note_on,1,0,0,,4,,,52,127
76448,note_on,0,0,0,,7,,,67,127
76639,note_off,191,0,0,,6,,,66,127
76640,note_on,1,0,0,,4,,,64,127
76831,note_off,191,0,0,,4,,,64,127
76831,note_off,0,0,0,,7,,,67,127
76831,note_off,0,0,0,,4,,,52,127
76832,note_on,1,0,0,,12,,,47,127
76832,note_on,0,0,0,,6,,,66,127
77023,note_off,191,0,0,,12,,,47,127
77024,note_on,1,0,0,,3,,,51,127
77215,note_off,191,0,0,,3,,,51,127
77216,note_on,1,0,0,,6,,,54,127
77407,note_off,191,0,0,,6,,,54,127
77408,note_on,1,0,0,,12,,,59,127
77599,note_off,191,0,0,,12,,,59,127
77599,note_off,0,0,0,,6,,,66,127
77600,note_on,1,0,0,,3,,,63,127
77792,note_on,192,0,0,,12,,,71,127
77982,note_off,190,0,0,,12,,,71,127
77983,note_off,1,0,0,,3,,,63,127
77984,note_on,1,0,0,,1,,,61,127
77984,note_on,0,0,0,,4,,,64,127
78174,note_off,190,0,0,,1,,,61,127
78176,note_on,2,0,0,,11,,,70,127
78364,note_off,188,0,0,,4,,,64,127
78367,note_off,3,0,0,,11,,,70,127
78368,note_on,1,0,0,,12,,,59,127
78368,note_on,0,0,0,,12,,,71,127
78560,note_on,192,0,0,,3,,,63,127
78751,note_off,191,0,0,,3,,,63,127
78751,note_off,0,0,0,,12,,,59,127
78752,note_on,1,0,0,,10,,,57,127
78752,note_on,0,0,0,,4,,,64,127
78943,note_off,191,0,0,,12,,,71,127
78944,note_on,1,0,0,,0,,,72,127
79135,note_off,191,0,0,,0,,,72,127
79135,note_off,0,0,0,,4,,,64,127
79135,note_off,0,0,0,,10,,,57,127
79136,note_on,1,0,0,,7,,,55,127
79136,note_on,0,0,0,,12,,,71,127
79328,note_on,192,0,0,,4,,,76,127
79519,note_off,191,0,0,,12,,,71,127
79519,note_off,0,0,0,,7,,,55,127
79520,note_on,1,0,0,,6,,,54,127
79520,note_on,0,0,0,,10,,,69,127
79711,note_off,191,0,0,,4,,,76,127
79712,note_on,1,0,0,,3,,,75,127
79903,note_off,191,0,0,,3,,,75,127
79903,note_off,0,0,0,,10,,,69,127
79903,note_off,0,0,0,,6,,,54,127
79904,note_on,1,0,0,,4,,,52,127
79904,note_on,0,0,0,,4,,,76,127
80095,note_off,191,0,0,,4,,,52,127
80096,note_on,1,0,0,,7,,,55,127
80287,note_off,191,0,0,,7,,,55,127
80288,note_on,1,0,0,,12,,,59,127
80479,note_off,191,0,0,,12,,,59,127
80480,note_on,1,0,0,,4,,,64,127
80671,note_off,191,0,0,,4,,,64,127
80672,note_on,1,0,0,,7,,,67,127
80864,note_on,192,0,0,,12,,,71,127
80870,note_off,6,0,0,,4,,,76,127
81055,note_off,185,0,0,,12,,,71,127
81055,note_off,0,0,0,,7,,,67,127
81056,note_on,1,0,0,,6,,,66,127
81056,note_on,0,0,0,,10,,,69,127
81248,note_on,192,0,0,,6,,,78,127
81439,note_off,191,0,0,,6,,,78,127
81439,note_off,0,0,0,,10,,,69,127
81439,note_off,0,0,0,,6,,,66,127
81440,note_on,1,0,0,,7,,,55,127
81440,note_on,0,0,0,,12,,,83,127
81631,note_off,191,0,0,,7,,,55,127
81632,note_on,1,0,0,,12,,,59,127
81823,note_off,191,0,0,,12,,,59,127
81824,note_on,1,0,0,,4,,,64,127
82015,note_off,191,0,0,,4,,,64,127
82016,note_on,1,0,0,,7,,,67,127
82207,note_off,191,0,0,,7,,,67,127
82208,note_on,1,0,0,,12,,,71,127
82392,note_off,184,0,0,,12,,,83,127
82400,note_on,8,0,0,,4,,,76,127
82591,note_off,191,0,0,,4,,,76,127
82591,note_off,0,0,0,,12,,,71,127
82592,note_on,1,0,0,,10,,,69,127
82592,note_on,0,0,0,,6,,,78,127
82783,note_off,191,0,0,,6,,,78,127
82784,note_on,1,0,0,,3,,,75,127
82975,note_off,191,0,0,,3,,,75,127
82975,note_off,0,0,0,,10,,,69,127
82976,note_on,1,0,0,,8,,,68,127
82976,note_on,0,0,0,,4,,,76,127
83167,note_off,191,0,0,,4,,,76,127
83168,note_on,1,0,0,,0,,,72,127
83359,note_off,191,0,0,,0,,,72,127
83360,note_on,1,0,0,,12,,,83,127
83360,note_on,0,0,0,,2,,,74,127
83551,note_off,191,0,0,,2,,,74,127
83552,note_on,1,0,0,,12,,,71,127
83743,note_off,191,0,0,,12,,,71,127
83743,note_off,0,0,0,,8,,,68,127
83744,note_on,1,0,0,,10,,,69,127
83744,note_on,0,0,0,,0,,,72,127
83935,note_off,191,0,0,,12,,,83,127
83936,note_on,1,0,0,,10,,,81,127
84127,note_off,191,0,0,,0,,,72,127
84127,note_off,0,0,0,,10,,,69,127
84128,note_on,1,0,0,,4,,,64,127
84128,note_on,0,0,0,,12,,,71,127
84319,note_off,191,0,0,,10,,,81,127
84320,note_on,1,0,0,,8,,,80,127
84511,note_off,191,0,0,,8,,,80,127
84511,note_off,0,0,0,,12,,,71,127
84511,note_off,0,0,0,,4,,,64,127
84512,note_on,1,0,0,,5,,,65,127
84512,note_on,0,0,0,,10,,,81,127
84702,note_off,190,0,0,,5,,,65,127
84704,note_on,2,0,0,,10,,,69,127
84895,note_off,191,0,0,,10,,,69,127
84896,note_on,1,0,0,,2,,,74,127
85088,note_on,192,0,0,,2,,,62,127
85279,note_off,191,0,0,,2,,,62,127
85279,note_off,0,0,0,,10,,,81,127
85280,note_on,1,0,0,,4,,,64,127
85280,note_on,0,0,0,,7,,,79,127
85471,note_off,191,0,0,,7,,,79,127
85471,note_off,0,0,0,,2,,,74,127
85472,note_on,1,0,0,,1,,,73,127
85472,note_on,0,0,0,,4,,,76,127
85663,note_off,191,0,0,,4,,,76,127
85663,note_off,0,0,0,,4,,,64,127
85664,note_on,1,0,0,,2,,,62,127
85664,note_on,0,0,0,,5,,,77,127
85855,note_off,191,0,0,,5,,,77,127
85855,note_off,0,0,0,,1,,,73,127
85856,note_on,1,0,0,,11,,,70,127
85856,note_on,0,0,0,,2,,,74,127
86047,note_off,191,0,0,,2,,,74,127
86047,note_off,0,0,0,,2,,,62,127
86048,note_on,1,0,0,,10,,,57,127
86048,note_on,0,0,0,,4,,,76,127
86239,note_off,191,0,0,,4,,,76,127
86239,note_off,0,0,0,,11,,,70,127
86240,note_on,1,0,0,,10,,,69,127
86240,note_on,0,0,0,,1,,,73,127
86431,note_off,191,0,0,,1,,,73,127
86431,note_off,0,0,0,,10,,,57,127
86432,note_on,1,0,0,,11,,,58,127
86432,note_on,0,0,0,,2,,,74,127
86623,note_off,191,0,0,,2,,,74,127
86623,note_off,0,0,0,,10,,,69,127
86624,note_on,1,0,0,,7,,,67,127
86624,note_on,0,0,0,,11,,,70,127
86815,note_off,191,0,0,,11,,,70,127
86815,note_off,0,0,0,,11,,,58,127
86816,note_on,1,0,0,,5,,,53,127
86816,note_on,0,0,0,,0,,,72,127
87007,note_off,191,0,0,,0,,,72,127
87007,note_off,0,0,0,,7,,,67,127
87008,note_on,1,0,0,,5,,,65,127
87008,note_on,0,0,0,,10,,,69,127
87199,note_off,191,0,0,,10,,,69,127
87199,note_off,0,0,0,,5,,,53,127
87200,note_on,1,0,0,,7,,,55,127
87200,note_on,0,0,0,,11,,,70,127
87391,note_off,191,0,0,,11,,,70,127
87391,note_off,0,0,0,,5,,,65,127
87392,note_on,1,0,0,,4,,,64,127
87392,note_on,0,0,0,,7,,,67,127
87583,note_off,191,0,0,,7,,,67,127
87583,note_off,0,0,0,,7,,,55,127
87584,note_on,1,0,0,,2,,,50,127
87584,note_on,0,0,0,,10,,,69,127
87775,note_off,191,0,0,,10,,,69,127
87775,note_off,0,0,0,,4,,,64,127
87776,note_on,1,0,0,,5,,,65,127
87776,note_on,0,0,0,,2,,,62,127
87967,note_off,191,0,0,,5,,,65,127
87967,note_off,0,0,0,,2,,,50,127
87968,note_on,1,0,0,,10,,,45,127
87968,note_on,0,0,0,,7,,,67,127
88159,note_off,191,0,0,,7,,,67,127
88159,note_off,0,0,0,,2,,,62,127
88160,note_on,1,0,0,,4,,,64,127
88160,note_on,0,0,0,,1,,,61,127
88351,note_off,191,0,0,,1,,,61,127
88351,note_off,0,0,0,,4,,,64,127
88351,note_off,0,0,0,,10,,,45,127
88352,note_on,1,0,0,,2,,,38,127
88352,note_on,0,0,0,,5,,,65,127
88543,note_off,191,0,0,,2,,,38,127
88544,note_on,1,0,0,,5,,,41,127
88735,note_off,191,0,0,,5,,,41,127
88736,note_on,1,0,0,,10,,,45,127
88927,note_off,191,0,0,,10,,,45,127
88927,note_off,0,0,0,,5,,,65,127
88928,note_on,1,0,0,,2,,,50,127
88928,note_on,0,0,0,,7,,,67,127
89119,note_off,191,0,0,,7,,,67,127
89119,note_off,0,0,0,,2,,,50,127
89120,note_on,1,0,0,,5,,,53,127
89120,note_on,0,0,0,,10,,,69,127
89310,note_off,190,0,0,,10,,,69,127
89312,note_on,2,0,0,,2,,,74,127
89502,note_off,190,0,0,,2,,,74,127
89503,note_off,1,0,0,,5,,,53,127
89504,note_on,1,0,0,,4,,,52,127
89504,note_on,0,0,0,,7,,,67,127
89694,note_off,190,0,0,,7,,,67,127
89696,note_on,2,0,0,,0,,,72,127
89886,note_off,190,0,0,,0,,,72,127
89887,note_off,1,0,0,,4,,,52,127
89888,note_on,1,0,0,,2,,,50,127
89888,note_on,0,0,0,,5,,,77,127
90080,note_on,192,0,0,,12,,,71,127
90271,note_off,191,0,0,,12,,,71,127
90271,note_off,0,0,0,,2,,,50,127
90272,note_on,1,0,0,,4,,,52,127
90272,note_on,0,0,0,,0,,,72,127
90462,note_off,190,0,0,,0,,,72,127
90463,note_off,1,0,0,,5,,,77,127
90464,note_on,1,0,0,,4,,,76,127
90655,note_off,191,0,0,,4,,,76,127
90655,note_off,0,0,0,,4,,,52,127
90656,note_on,1,0,0,,5,,,53,127
90656,note_on,0,0,0,,10,,,69,127
90847,note_off,191,0,0,,10,,,69,127
90848,note_on,1,0,0,,2,,,74,127
91039,note_off,191,0,0,,5,,,53,127
91040,note_on,1,0,0,,6,,,54,127
91040,note_on,0,0,0,,10,,,81,127
91231,note_off,191,0,0,,2,,,74,127
91232,note_on,1,0,0,,0,,,72,127
91423,note_off,191,0,0,,0,,,72,127
91423,note_off,0,0,0,,6,,,54,127
91424,note_on,1,0,0,,7,,,55,127
91424,note_on,0,0,0,,12,,,71,127
91615,note_off,191,0,0,,10,,,81,127
91616,note_on,1,0,0,,7,,,79,127
91807,note_off,191,0,0,,12,,,71,127
91807,note_off,0,0,0,,7,,,55,127
91808,note_on,1,0,0,,10,,,57,127
91808,note_on,0,0,0,,0,,,72,127
91999,note_off,191,0,0,,7,,,79,127
92000,note_on,1,0,0,,6,,,78,127
92191,note_off,191,0,0,,6,,,78,127
92191,note_off,0,0,0,,0,,,72,127
92191,note_off,0,0,0,,10,,,57,127
92192,note_on,1,0,0,,12,,,59,127
92192,note_on,0,0,0,,2,,,62,127
92192,note_on,0,0,0,,7,,,79,127
92383,note_off,191,0,0,,7,,,79,127
92384,note_on,1,0,0,,4,,,76,127
92575,note_off,191,0,0,,4,,,76,127
92575,note_off,0,0,0,,2,,,62,127
92575,note_off,0,0,0,,12,,,59,127
92576,note_on,1,0,0,,7,,,55,127
92576,note_on,0,0,0,,7,,,67,127
92576,note_on,0,0,0,,5,,,77,127
92767,note_off,191,0,0,,5,,,77,127
92768,note_on,1,0,0,,2,,,74,127
92959,note_off,191,0,0,,2,,,74,127
92959,note_off,0,0,0,,7,,,55,127
92960,note_on,1,0,0,,0,,,60,127
92960,note_on,0,0,0,,4,,,76,127
93151,note_off,191,0,0,,4,,,76,127
93152,note_on,1,0,0,,0,,,72,127
93343,note_off,191,0,0,,0,,,72,127
93343,note_off,0,0,0,,0,,,60,127
93343,note_off,0,0,0,,7,,,67,127
93344,note_on,1,0,0,,5,,,53,127
93344,note_on,0,0,0,,5,,,65,127
93344,note_on,0,0,0,,2,,,74,127
93535,note_off,191,0,0,,2,,,74,127
93536,note_on,1,0,0,,10,,,69,127
93727,note_off,191,0,0,,10,,,69,127
93727,note_off,0,0,0,,5,,,53,127
93728,note_on,1,0,0,,7,,,55,127
93728,note_on,0,0,0,,12,,,71,127
93919,note_off,191,0,0,,7,,,55,127
93919,note_off,0,0,0,,5,,,65,127
93920,note_on,1,0,0,,2,,,62,127
94111,note_off,191,0,0,,2,,,62,127
94111,note_off,0,0,0,,12,,,71,127
94112,note_on,1,0,0,,4,,,64,127
94112,note_on,0,0,0,,0,,,72,127
94303,note_off,191,0,0,,4,,,64,127
94304,note_on,1,0,0,,0,,,60,127
94495,note_off,191,0,0,,0,,,60,127
94495,note_off,0,0,0,,0,,,72,127
94496,note_on,1,0,0,,2,,,62,127
94496,note_on,0,0,0,,5,,,77,127
94879,note_off,383,0,0,,2,,,62,127
94880,note_on,1,0,0,,0,,,60,127
95071,note_off,191,0,0,,5,,,77,127
95072,note_on,1,0,0,,4,,,76,127
95263,note_off,191,0,0,,4,,,76,127
95263,note_off,0,0,0,,0,,,60,127
95264,note_on,1,0,0,,7,,,55,127
95264,note_on,0,0,0,,2,,,74,127
95455,note_off,191,0,0,,7,,,55,127
95456,note_on,1,0,0,,12,,,59,127
95647,note_off,191,0,0,,12,,,59,127
95648,note_on,1,0,0,,2,,,62,127
95839,note_off,191,0,0,,2,,,62,127
95839,note_off,0,0,0,,2,,,74,127
95840,note_on,1,0,0,,7,,,67,127
95840,note_on,0,0,0,,4,,,76,127
96031,note_off,191,0,0,,4,,,76,127
96031,note_off,0,0,0,,7,,,67,127
96032,note_on,1,0,0,,2,,,74,127
96032,note_on,0,0,0,,5,,,77,127
96223,note_off,191,0,0,,5,,,77,127
96224,note_on,1,0,0,,7,,,67,127
96415,note_off,191,0,0,,7,,,67,127
96415,note_off,0,0,0,,2,,,74,127
96416,note_on,1,0,0,,0,,,72,127
96416,note_on,0,0,0,,4,,,76,127
96607,note_off,191,0,0,,4,,,76,127
96608,note_on,1,0,0,,7,,,67,127
96799,note_off,191,0,0,,7,,,67,127
96799,note_off,0,0,0,,0,,,72,127
96800,note_on,1,0,0,,7,,,43,127
96800,note_on,0,0,0,,2,,,62,127
96991,note_off,191,0,0,,7,,,43,127
96992,note_on,1,0,0,,12,,,47,127
97183,note_off,191,0,0,,12,,,47,127
97184,note_on,1,0,0,,2,,,50,127
97375,note_off,191,0,0,,2,,,50,127
97375,note_off,0,0,0,,2,,,62,127
97376,note_on,1,0,0,,7,,,55,127
97376,note_on,0,0,0,,4,,,64,127
97567,note_off,191,0,0,,4,,,64,127
97567,note_off,0,0,0,,7,,,55,127
97568,note_on,1,0,0,,2,,,62,127
97568,note_on,0,0,0,,5,,,65,127
97759,note_off,191,0,0,,5,,,65,127
97760,note_on,1,0,0,,7,,,55,127
97951,note_off,191,0,0,,7,,,55,127
97951,note_off,0,0,0,,2,,,62,127
97952,note_on,1,0,0,,0,,,60,127
97952,note_on,0,0,0,,4,,,64,127
98143,note_off,191,0,0,,4,,,64,127
98144,note_on,1,0,0,,7,,,55,127
98335,note_off,191,0,0,,7,,,55,127
98335,note_off,0,0,0,,0,,,60,127
98336,note_on,1,0,0,,7,,,55,127
98336,note_on,0,0,0,,2,,,74,127
98527,note_off,191,0,0,,7,,,55,127
98528,note_on,1,0,0,,12,,,59,127
98719,note_off,191,0,0,,12,,,59,127
98720,note_on,1,0,0,,2,,,62,127
98911,note_off,191,0,0,,2,,,62,127
98911,note_off,0,0,0,,2,,,74,127
98912,note_on,1,0,0,,4,,,76,127
98912,note_on,0,0,0,,7,,,79,127
99103,note_off,191,0,0,,7,,,79,127
99103,note_off,0,0,0,,4,,,76,127
99104,note_on,1,0,0,,5,,,77,127
99104,note_on,0,0,0,,10,,,81,127
99295,note_off,191,0,0,,10,,,81,127
99296,note_on,1,0,0,,12,,,71,127
99487,note_off,191,0,0,,12,,,71,127
99487,note_off,0,0,0,,5,,,77,127
99488,note_on,1,0,0,,4,,,76,127
99488,note_on,0,0,0,,7,,,79,127
99679,note_off,191,0,0,,7,,,79,127
99680,note_on,1,0,0,,0,,,72,127
99871,note_off,191,0,0,,0,,,72,127
99871,note_off,0,0,0,,4,,,76,127
99872,note_on,1,0,0,,2,,,62,127
99872,note_on,0,0,0,,5,,,77,127
100063,note_off,191,0,0,,2,,,62,127
100064,note_on,1,0,0,,5,,,65,127
100255,note_off,191,0,0,,5,,,65,127
100256,note_on,1,0,0,,12,,,71,127
100447,note_off,191,0,0,,12,,,71,127
100447,note_off,0,0,0,,5,,,77,127
100448,note_on,1,0,0,,4,,,76,127
100448,note_on,0,0,0,,7,,,79,127
100639,note_off,191,0,0,,7,,,79,127
100639,note_off,0,0,0,,4,,,76,127
100640,note_on,1,0,0,,5,,,77,127
100640,note_on,0,0,0,,10,,,81,127
100831,note_off,191,0,0,,10,,,81,127
100832,note_on,1,0,0,,12,,,71,127
101023,note_off,191,0,0,,12,,,71,127
101023,note_off,0,0,0,,5,,,77,127
101024,note_on,1,0,0,,4,,,76,127
101024,note_on,0,0,0,,7,,,79,127
101215,note_off,191,0,0,,7,,,79,127
101216,note_on,1,0,0,,0,,,72,127
101407,note_off,191,0,0,,0,,,72,127
101407,note_off,0,0,0,,4,,,76,127
101408,note_on,1,0,0,,2,,,50,127
101408,note_on,0,0,0,,5,,,77,127
101599,note_off,191,0,0,,2,,,50,127
101600,note_on,1,0,0,,5,,,53,127
101791,note_off,191,0,0,,5,,,53,127
101792,note_on,1,0,0,,12,,,59,127
101983,note_off,191,0,0,,12,,,59,127
101983,note_off,0,0,0,,5,,,77,127
101984,note_on,1,0,0,,4,,,64,127
101984,note_on,0,0,0,,7,,,79,127
102175,note_off,191,0,0,,7,,,79,127
102175,note_off,0,0,0,,4,,,64,127
102176,note_on,1,0,0,,5,,,65,127
102176,note_on,0,0,0,,10,,,81,127
102366,note_off,190,0,0,,10,,,81,127
102368,note_on,2,0,0,,0,,,72,127
102559,note_off,191,0,0,,0,,,72,127
102559,note_off,0,0,0,,5,,,65,127
102560,note_on,1,0,0,,2,,,62,127
102560,note_on,0,0,0,,12,,,71,127
102750,note_off,190,0,0,,12,,,71,127
102752,note_on,2,0,0,,5,,,77,127
102943,note_off,191,0,0,,5,,,77,127
102943,note_off,0,0,0,,2,,,62,127
102944,note_on,1,0,0,,4,,,64,127
102944,note_on,0,0,0,,7,,,79,127
103136,note_on,192,0,0,,0,,,72,127
103327,note_off,191,0,0,,0,,,72,127
103327,note_off,0,0,0,,4,,,64,127
103328,note_on,1,0,0,,12,,,59,127
103328,note_on,0,0,0,,2,,,74,127
103519,note_off,191,0,0,,7,,,79,127
103520,note_on,1,0,0,,5,,,77,127
103708,note_off,188,0,0,,2,,,74,127
103711,note_off,3,0,0,,5,,,77,127
103711,note_off,0,0,0,,12,,,59,127
103712,note_on,1,0,0,,0,,,60,127
103712,note_on,0,0,0,,4,,,76,127
103903,note_off,191,0,0,,4,,,76,127
103904,note_on,1,0,0,,0,,,72,127
104095,note_off,191,0,0,,0,,,60,127
104096,note_on,1,0,0,,7,,,55,127
104096,note_on,0,0,0,,2,,,74,127
104287,note_off,191,0,0,,2,,,74,127
104287,note_off,0,0,0,,0,,,72,127
104288,note_on,1,0,0,,12,,,71,127
104288,note_on,0,0,0,,7,,,67,127
104479,note_off,191,0,0,,12,,,71,127
104479,note_off,0,0,0,,7,,,55,127
104480,note_on,1,0,0,,10,,,57,127
104480,note_on,0,0,0,,0,,,72,127
104671,note_off,191,0,0,,0,,,72,127
104671,note_off,0,0,0,,7,,,67,127
104672,note_on,1,0,0,,10,,,69,127
104672,note_on,0,0,0,,5,,,65,127
104863,note_off,191,0,0,,10,,,69,127
104863,note_off,0,0,0,,10,,,57,127
104864,note_on,1,0,0,,4,,,52,127
104864,note_on,0,0,0,,12,,,71,127
105055,note_off,191,0,0,,12,,,71,127
105055,note_off,0,0,0,,5,,,65,127
105056,note_on,1,0,0,,7,,,67,127
105056,note_on,0,0,0,,4,,,64,127
105247,note_off,191,0,0,,7,,,67,127
105247,note_off,0,0,0,,4,,,52,127
105248,note_on,1,0,0,,5,,,53,127
105248,note_on,0,0,0,,10,,,69,127
105439,note_off,191,0,0,,10,,,69,127
105439,note_off,0,0,0,,4,,,64,127
105440,note_on,1,0,0,,5,,,65,127
105440,note_on,0,0,0,,2,,,62,127
105631,note_off,191,0,0,,5,,,65,127
105631,note_off,0,0,0,,5,,,53,127
105632,note_on,1,0,0,,0,,,48,127
105632,note_on,0,0,0,,7,,,67,127
105823,note_off,191,0,0,,7,,,67,127
105823,note_off,0,0,0,,2,,,62,127
105824,note_on,1,0,0,,4,,,64,127
105824,note_on,0,0,0,,0,,,60,127
106014,note_off,190,0,0,,0,,,60,127
106015,note_off,1,0,0,,4,,,64,127
106015,note_off,0,0,0,,0,,,48,127
106016,note_on,1,0,0,,7,,,43,127
106016,note_on,0,0,0,,5,,,65,127
106207,note_off,191,0,0,,5,,,65,127
106208,note_on,1,0,0,,2,,,62,127
106208,note_on,0,0,0,,12,,,59,127
106399,note_off,191,0,0,,12,,,59,127
106399,note_off,0,0,0,,2,,,62,127
106399,note_off,0,0,0,,7,,,43,127
106400,note_on,1,0,0,,0,,,48,127
106400,note_on,0,0,0,,4,,,64,127
106400,note_on,0,0,0,,0,,,60,127
106591,note_off,191,0,0,,4,,,64,127
106591,note_off,0,0,0,,0,,,48,127
106592,note_on,1,0,0,,5,,,53,127
106592,note_on,0,0,0,,5,,,65,127
106783,note_off,191,0,0,,5,,,65,127
106783,note_off,0,0,0,,5,,,53,127
106784,note_on,1,0,0,,7,,,55,127
106784,note_on,0,0,0,,4,,,64,127
107167,note_off,383,0,0,,4,,,64,127
107167,note_off,0,0,0,,7,,,55,127
107167,note_off,0,0,0,,0,,,60,127
107168,note_on,1,0,0,,7,,,43,127
107168,note_on,0,0,0,,12,,,59,127
107168,note_on,0,0,0,,2,,,62,127
107551,note_off,383,0,0,,2,,,62,127
107551,note_off,0,0,0,,12,,,59,127
107551,note_off,0,0,0,,7,,,43,127
107552,note_on,1,0,0,,0,,,48,127
107552,note_on,0,0,0,,4,,,64,127
107552,note_on,0,0,0,,0,,,60,127
107743,note_off,191,0,0,,0,,,48,127
107744,note_on,1,0,0,,4,,,52,127
107935,note_off,191,0,0,,4,,,52,127
107935,note_off,0,0,0,,0,,,60,127
107936,note_on,1,0,0,,7,,,55,127
108127,note_off,191,0,0,,7,,,55,127
108127,note_off,0,0,0,,4,,,64,127
108128,note_on,1,0,0,,0,,,60,127
108128,note_on,0,0,0,,5,,,65,127
108319,note_off,191,0,0,,5,,,65,127
108319,note_off,0,0,0,,0,,,60,127
108320,note_on,1,0,0,,4,,,64,127
108320,note_on,0,0,0,,7,,,67,127
108510,note_off,190,0,0,,4,,,64,127
108512,note_on,2,0,0,,0,,,72,127
108702,note_off,190,0,0,,0,,,72,127
108703,note_off,1,0,0,,7,,,67,127
108704,note_on,1,0,0,,2,,,62,127
108704,note_on,0,0,0,,5,,,65,127
108894,note_off,190,0,0,,2,,,62,127
108896,note_on,2,0,0,,12,,,71,127
109087,note_off,191,0,0,,12,,,71,127
109087,note_off,0,0,0,,5,,,65,127
109088,note_on,1,0,0,,0,,,48,127
109088,note_on,0,0,0,,0,,,72,127
109279,note_off,191,0,0,,0,,,48,127
109280,note_on,1,0,0,,4,,,52,127
109471,note_off,191,0,0,,4,,,52,127
109472,note_on,1,0,0,,7,,,55,127
109663,note_off,191,0,0,,7,,,55,127
109663,note_off,0,0,0,,0,,,72,127
109664,note_on,1,0,0,,0,,,60,127
109664,note_on,0,0,0,,4,,,76,127
109855,note_off,191,0,0,,4,,,76,127
109855,note_off,0,0,0,,0,,,60,127
109856,note_on,1,0,0,,12,,,59,127
109856,note_on,0,0,0,,2,,,74,127
110046,note_off,190,0,0,,12,,,59,127
110048,note_on,2,0,0,,7,,,79,127
110238,note_off,190,0,0,,7,,,79,127
110239,note_off,1,0,0,,2,,,74,127
110240,note_on,1,0,0,,10,,,57,127
110240,note_on,0,0,0,,0,,,72,127
110430,note_off,190,0,0,,10,,,57,127
110432,note_on,2,0,0,,6,,,78,127
110623,note_off,191,0,0,,6,,,78,127
110623,note_off,0,0,0,,0,,,72,127
110624,note_on,1,0,0,,7,,,43,127
110624,note_on,0,0,0,,12,,,71,127
110624,note_on,0,0,0,,7,,,79,127
110815,note_off,191,0,0,,7,,,43,127
110816,note_on,1,0,0,,12,,,47,127
111007,note_off,191,0,0,,12,,,47,127
111007,note_off,0,0,0,,7,,,79,127
111007,note_off,0,0,0,,12,,,71,127
111008,note_on,1,0,0,,2,,,50,127
111199,note_off,191,0,0,,2,,,50,127
111200,note_on,1,0,0,,7,,,55,127
111391,note_off,191,0,0,,7,,,55,127
111392,note_on,1,0,0,,12,,,59,127
111392,note_on,0,0,0,,2,,,74,127
111582,note_off,190,0,0,,12,,,59,127
111584,note_on,2,0,0,,7,,,67,127
111774,note_off,190,0,0,,7,,,67,127
111775,note_off,1,0,0,,2,,,74,127
111776,note_on,1,0,0,,10,,,57,127
111776,note_on,0,0,0,,0,,,72,127
111966,note_off,190,0,0,,10,,,57,127
111968,note_on,2,0,0,,6,,,66,127
112159,note_off,191,0,0,,6,,,66,127
112159,note_off,0,0,0,,0,,,72,127
112160,note_on,1,0,0,,7,,,43,127
112160,note_on,0,0,0,,7,,,67,127
112160,note_on,0,0,0,,12,,,71,127
112351,note_off,191,0,0,,7,,,43,127
112352,note_on,1,0,0,,12,,,47,127
112543,note_off,191,0,0,,12,,,47,127
112543,note_off,0,0,0,,7,,,67,127
112544,note_on,1,0,0,,2,,,50,127
112735,note_off,191,0,0,,2,,,50,127
112735,note_off,0,0,0,,12,,,71,127
112736,note_on,1,0,0,,7,,,55,127
112736,note_on,0,0,0,,0,,,72,127
112927,note_off,191,0,0,,0,,,72,127
112927,note_off,0,0,0,,7,,,55,127
112928,note_on,1,0,0,,5,,,53,127
112928,note_on,0,0,0,,2,,,74,127
113118,note_off,190,0,0,,2,,,74,127
113120,note_on,2,0,0,,7,,,67,127
113120,note_on,0,0,0,,12,,,71,127
113310,note_off,190,0,0,,12,,,71,127
113310,note_off,0,0,0,,7,,,67,127
113311,note_off,1,0,0,,5,,,53,127
113312,note_on,1,0,0,,4,,,52,127
113312,note_on,0,0,0,,4,,,76,127
113502,note_off,190,0,0,,4,,,76,127
113504,note_on,2,0,0,,0,,,72,127
113504,note_on,0,0,0,,10,,,69,127
113694,note_off,190,0,0,,10,,,69,127
113694,note_off,0,0,0,,0,,,72,127
113695,note_off,1,0,0,,4,,,52,127
113696,note_on,1,0,0,,2,,,50,127
113696,note_on,0,0,0,,5,,,77,127
113886,note_off,190,0,0,,5,,,77,127
113888,note_on,2,0,0,,12,,,71,127
113888,note_on,0,0,0,,2,,,74,127
114079,note_off,191,0,0,,2,,,74,127
114079,note_off,0,0,0,,12,,,71,127
114079,note_off,0,0,0,,2,,,50,127
114080,note_on,1,0,0,,0,,,48,127
114080,note_on,0,0,0,,0,,,72,127
114080,note_on,0,0,0,,4,,,76,127
114271,note_off,191,0,0,,4,,,76,127
114271,note_off,0,0,0,,0,,,48,127
114272,note_on,1,0,0,,5,,,53,127
114272,note_on,0,0,0,,5,,,77,127
114463,note_off,191,0,0,,5,,,77,127
114463,note_off,0,0,0,,5,,,53,127
114464,note_on,1,0,0,,7,,,55,127
114464,note_on,0,0,0,,4,,,76,127
114847,note_off,383,0,0,,4,,,76,127
114847,note_off,0,0,0,,7,,,55,127
114847,note_off,0,0,0,,0,,,72,127
114848,note_on,1,0,0,,7,,,43,127
114848,note_on,0,0,0,,12,,,71,127
114848,note_on,0,0,0,,2,,,74,127
115231,note_off,383,0,0,,2,,,74,127
115231,note_off,0,0,0,,12,,,71,127
115231,note_off,0,0,0,,7,,,43,127
115232,note_on,1,0,0,,0,,,60,127
115232,note_on,0,0,0,,0,,,72,127
115232,note_on,0,0,0,,4,,,76,127
115423,note_off,191,0,0,,4,,,76,127
115423,note_off,0,0,0,,0,,,72,127
115424,note_on,1,0,0,,0,,,84,127
115615,note_off,191,0,0,,0,,,84,127
115615,note_off,0,0,0,,0,,,60,127
115616,note_on,1,0,0,,7,,,55,127
115616,note_on,0,0,0,,2,,,74,127
115616,note_on,0,0,0,,12,,,71,127
115807,note_off,191,0,0,,12,,,71,127
115807,note_off,0,0,0,,2,,,74,127
115808,note_on,1,0,0,,12,,,83,127
115999,note_off,191,0,0,,12,,,83,127
115999,note_off,0,0,0,,7,,,55,127
116000,note_on,1,0,0,,10,,,57,127
116000,note_on,0,0,0,,10,,,69,127
116000,note_on,0,0,0,,0,,,72,127
116191,note_off,191,0,0,,0,,,72,127
116191,note_off,0,0,0,,10,,,69,127
116192,note_on,1,0,0,,10,,,81,127
116383,note_off,191,0,0,,10,,,81,127
116383,note_off,0,0,0,,10,,,57,127
116384,note_on,1,0,0,,4,,,52,127
116384,note_on,0,0,0,,7,,,67,127
116384,note_on,0,0,0,,12,,,71,127
116575,note_off,191,0,0,,12,,,71,127
116575,note_off,0,0,0,,7,,,67,127
116576,note_on,1,0,0,,7,,,79,127
116767,note_off,191,0,0,,7,,,79,127
116767,note_off,0,0,0,,4,,,52,127
116768,note_on,1,0,0,,5,,,53,127
116768,note_on,0,0,0,,5,,,65,127
116768,note_on,0,0,0,,10,,,69,127
116959,note_off,191,0,0,,10,,,69,127
116959,note_off,0,0,0,,5,,,65,127
116960,note_on,1,0,0,,5,,,77,127
117151,note_off,191,0,0,,5,,,77,127
117151,note_off,0,0,0,,5,,,53,127
117152,note_on,1,0,0,,0,,,48,127
117152,note_on,0,0,0,,4,,,64,127
117152,note_on,0,0,0,,7,,,67,127
117343,note_off,191,0,0,,7,,,67,127
117343,note_off,0,0,0,,4,,,64,127
117344,note_on,1,0,0,,4,,,76,127
117535,note_off,191,0,0,,4,,,76,127
117535,note_off,0,0,0,,0,,,48,127
117536,note_on,1,0,0,,7,,,43,127
117536,note_on,0,0,0,,5,,,65,127
117536,note_on,0,0,0,,2,,,74,127
117727,note_off,191,0,0,,2,,,74,127
117728,note_on,1,0,0,,12,,,71,127
117919,note_off,191,0,0,,12,,,71,127
117919,note_off,0,0,0,,5,,,65,127
117919,note_off,0,0,0,,7,,,43,127
117920,note_on,1,0,0,,0,,,48,127
117920,note_on,0,0,0,,4,,,64,127
117920,note_on,0,0,0,,0,,,72,127
118111,note_off,191,0,0,,4,,,64,127
118111,note_off,0,0,0,,0,,,48,127
118112,note_on,1,0,0,,5,,,53,127
118112,note_on,0,0,0,,10,,,69,127
118303,note_off,191,0,0,,10,,,69,127
118303,note_off,0,0,0,,5,,,53,127
118304,note_on,1,0,0,,7,,,55,127
118304,note_on,0,0,0,,7,,,67,127
118495,note_off,191,0,0,,7,,,67,127
118496,note_on,1,0,0,,4,,,64,127
118687,note_off,191,0,0,,4,,,64,127
118687,note_off,0,0,0,,7,,,55,127
118687,note_off,0,0,0,,0,,,72,127
118688,note_on,1,0,0,,7,,,43,127
118688,note_on,0,0,0,,12,,,71,127
118688,note_on,0,0,0,,5,,,65,127
118879,note_off,191,0,0,,5,,,65,127
118880,note_on,1,0,0,,2,,,62,127
119071,note_off,191,0,0,,2,,,62,127
119071,note_off,0,0,0,,12,,,71,127
119071,note_off,0,0,0,,7,,,43,127
119072,note_on,1,0,0,,0,,,60,127
119072,note_on,0,0,0,,0,,,72,127
119072,note_on,0,0,0,,4,,,76,127
119264,note_on,192,0,0,,0,,,84,127
119360,note_off,96,0,0,,0,,,60,127
119452,note_off,92,0,0,,4,,,76,127
119452,note_off,0,0,0,,0,,,72,127
119455,note_off,3,0,0,,0,,,84,127
119456,note_on,1,0,0,,7,,,55,127
119456,note_on,0,0,0,,12,,,71,127
119456,note_on,0,0,0,,2,,,74,127
119648,note_on,192,0,0,,12,,,83,127
119744,note_off,96,0,0,,7,,,55,127
119836,note_off,92,0,0,,2,,,74,127
119836,note_off,0,0,0,,12,,,71,127
119839,note_off,3,0,0,,12,,,83,127
119840,note_on,1,0,0,,10,,,57,127
119840,note_on,0,0,0,,10,,,69,127
119840,note_on,0,0,0,,0,,,72,127
120032,note_on,192,0,0,,10,,,81,127
120128,note_off,96,0,0,,10,,,57,127
120220,note_off,92,0,0,,0,,,72,127
120220,note_off,0,0,0,,10,,,69,127
120223,note_off,3,0,0,,10,,,81,127
120224,note_on,1,0,0,,4,,,52,127
120224,note_on,0,0,0,,12,,,71,127
120224,note_on,0,0,0,,7,,,67,127
120416,note_on,192,0,0,,7,,,79,127
120512,note_off,96,0,0,,4,,,52,127
120604,note_off,92,0,0,,7,,,67,127
120604,note_off,0,0,0,,12,,,71,127
120607,note_off,3,0,0,,7,,,79,127
120608,note_on,1,0,0,,5,,,53,127
120608,note_on,0,0,0,,10,,,69,127
120608,note_on,0,0,0,,5,,,65,127
120800,note_on,192,0,0,,5,,,77,127
120896,note_off,96,0,0,,5,,,53,127
120988,note_off,92,0,0,,5,,,65,127
120988,note_off,0,0,0,,10,,,69,127
120991,note_off,3,0,0,,5,,,77,127
120992,note_on,1,0,0,,0,,,48,127
120992,note_on,0,0,0,,4,,,64,127
120992,note_on,0,0,0,,7,,,67,127
121184,note_on,192,0,0,,4,,,76,127
121332,note_off,148,0,0,,0,,,48,127
121372,note_off,40,0,0,,7,,,67,127
121372,note_off,0,0,0,,4,,,64,127
121375,note_off,3,0,0,,4,,,76,127
121376,note_on,1,0,0,,7,,,43,127
121376,note_on,0,0,0,,2,,,74,127
121376,note_on,0,0,0,,5,,,65,127
121567,note_off,191,0,0,,2,,,74,127
121568,note_on,1,0,0,,12,,,71,127
121759,note_off,191,0,0,,12,,,71,127
121759,note_off,0,0,0,,5,,,65,127
121759,note_off,0,0,0,,7,,,43,127
121760,note_on,1,0,0,,0,,,48,127
121760,note_on,0,0,0,,4,,,64,127
121760,note_on,0,0,0,,0,,,72,127
121951,note_off,191,0,0,,4,,,64,127
121951,note_off,0,0,0,,0,,,48,127
121952,note_on,1,0,0,,5,,,53,127
121952,note_on,0,0,0,,10,,,69,127
122143,note_off,191,0,0,,10,,,69,127
122143,note_off,0,0,0,,5,,,53,127
122144,note_on,1,0,0,,7,,,55,127
122336,note_on,192,0,0,,0,,,84,127
122527,note_off,191,0,0,,7,,,55,127
122527,note_off,0,0,0,,0,,,72,127
122528,note_on,1,0,0,,7,,,43,127
122623,note_off,95,0,0,,0,,,84,127
122624,note_on,1,0,0,,12,,,83,127
122719,note_off,95,0,0,,12,,,83,127
122720,note_on,1,0,0,,10,,,81,127
122815,note_off,95,0,0,,10,,,81,127
122816,note_on,1,0,0,,12,,,83,127
122911,note_off,95,0,0,,12,,,83,127
122911,note_off,0,0,0,,7,,,43,127
122913,note_on,2,0,0,,0,,,36,127
122913,note_on,0,0,0,,0,,,84,127
123119,note_off,206,0,0,,0,,,84,127
123124,note_on,5,0,0,,7,,,79,127
123327,note_off,203,0,0,,0,,,36,127
123330,note_off,3,0,0,,7,,,79,127
123333,note_on,3,0,0,,0,,,36,127
123333,note_on,0,0,0,,4,,,76,127
123539,note_off,206,0,0,,4,,,76,127
123543,note_on,4,0,0,,0,,,72,127
123747,note_off,204,0,0,,0,,,36,127
123749,note_off,2,0,0,,0,,,72,127
123798,note_on,49,0,0,,0,,,36,127
125798,note_off,2000,0,0,,0,,,36,127
129024,end_of_track,3226,1,0,,,,,,
