tick,type,time,meta,track,program,channel,pitch,tempo,note,velocity
0,copyright,0,1,0,,,,,,
0,program_change,0,0,0,6,0,,,,
0,pitchwheel,0,0,0,,0,0,,,
0,program_change,0,0,0,6,1,,,,
0,pitchwheel,0,0,0,,1,-590,,,
0,program_change,0,0,0,6,2,,,,
0,pitchwheel,0,0,0,,2,-272,,,
0,program_change,0,0,0,6,3,,,,
0,pitchwheel,0,0,0,,3,-353,,,
0,program_change,0,0,0,6,4,,,,
0,pitchwheel,0,0,0,,4,-560,,,
0,program_change,0,0,0,6,5,,,,
0,pitchwheel,0,0,0,,5,-80,,,
0,program_change,0,0,0,6,6,,,,
0,pitchwheel,0,0,0,,6,-625,,,
0,program_change,0,0,0,6,7,,,,
0,pitchwheel,0,0,0,,7,-130,,,
0,program_change,0,0,0,6,8,,,,
0,pitchwheel,0,0,0,,8,-512,,,
0,program_change,0,0,0,6,10,,,,
0,pitchwheel,0,0,0,,10,-464,,,
0,program_change,0,0,0,6,11,,,,
0,pitchwheel,0,0,0,,11,-208,,,
0,program_change,0,0,0,6,12,,,,
0,pitchwheel,0,0,0,,12,-553,,,
0,set_tempo,0,1,0,,,,500000,,
45,note_on,45,0,0,,12,,,59,127
45,note_on,0,0,0,,6,,,66,127
316,note_on,271,0,0,,2,,,62,127
586,note_off,270,0,0,,6,,,66,127
587,note_on,1,0,0,,7,,,67,127
857,note_off,270,0,0,,7,,,67,127
858,note_on,1,0,0,,10,,,57,127
858,note_on,0,0,0,,6,,,66,127
1128,note_off,270,0,0,,6,,,66,127
1128,note_off,0,0,0,,10,,,57,127
1129,note_on,1,0,0,,7,,,55,127
1129,note_on,0,0,0,,12,,,71,127
1399,note_off,270,0,0,,2,,,62,127
1400,note_on,1,0,0,,1,,,61,127
1400,note_on,0,0,0,,4,,,64,127
1670,note_off,270,0,0,,4,,,64,127
1670,note_off,0,0,0,,1,,,61,127
1670,note_off,0,0,0,,7,,,55,127
1670,note_off,0,0,0,,12,,,59,127
1671,note_on,1,0,0,,6,,,54,127
1671,note_on,0,0,0,,2,,,62,127
1671,note_on,0,0,0,,6,,,66,127
1941,note_off,270,0,0,,2,,,62,127
1942,note_on,1,0,0,,12,,,59,127
2212,note_off,270,0,0,,12,,,59,127
2212,note_off,0,0,0,,12,,,71,127
2213,note_on,1,0,0,,1,,,61,127
2213,note_on,0,0,0,,11,,,70,127
2483,note_off,270,0,0,,11,,,70,127
2483,note_off,0,0,0,,1,,,61,127
2484,note_on,1,0,0,,2,,,62,127
2484,note_on,0,0,0,,12,,,71,127
2754,note_off,270,0,0,,12,,,71,127
2754,note_off,0,0,0,,2,,,62,127
2755,note_on,1,0,0,,4,,,64,127
2755,note_on,0,0,0,,1,,,73,127
3025,note_off,270,0,0,,1,,,73,127
3026,note_on,1,0,0,,11,,,70,127
3296,note_off,270,0,0,,11,,,70,127
3296,note_off,0,0,0,,6,,,66,127
3296,note_off,0,0,0,,6,,,54,127
3297,note_on,1,0,0,,12,,,59,127
3297,note_on,0,0,0,,12,,,71,127
3568,note_on,271,0,0,,7,,,67,127
3838,note_off,270,0,0,,7,,,67,127
3838,note_off,0,0,0,,4,,,64,127
3839,note_on,1,0,0,,2,,,62,127
3839,note_on,0,0,0,,6,,,66,127
4109,note_off,270,0,0,,6,,,66,127
4109,note_off,0,0,0,,2,,,62,127
4110,note_on,1,0,0,,1,,,61,127
4110,note_on,0,0,0,,4,,,64,127
4380,note_off,270,0,0,,4,,,64,127
4380,note_off,0,0,0,,1,,,61,127
4381,note_on,1,0,0,,2,,,62,127
4381,note_on,0,0,0,,6,,,66,127
4651,note_off,270,0,0,,6,,,66,127
4652,note_on,1,0,0,,7,,,67,127
4922,note_off,270,0,0,,7,,,67,127
4922,note_off,0,0,0,,2,,,62,127
4922,note_off,0,0,0,,12,,,71,127
4922,note_off,0,0,0,,12,,,59,127
4923,note_on,1,0,0,,1,,,61,127
4923,note_on,0,0,0,,4,,,64,127
5193,note_off,270,0,0,,4,,,64,127
5193,note_off,0,0,0,,1,,,61,127
5194,note_on,1,0,0,,2,,,62,127
5194,note_on,0,0,0,,6,,,66,127
5464,note_off,270,0,0,,6,,,66,127
5464,note_off,0,0,0,,2,,,62,127
5465,note_on,1,0,0,,4,,,64,127
5465,note_on,0,0,0,,7,,,67,127
5736,note_on,271,0,0,,12,,,71,127
6006,note_off,270,0,0,,12,,,71,127
6007,note_on,1,0,0,,11,,,58,127
6007,note_on,0,0,0,,1,,,73,127
6277,note_off,270,0,0,,7,,,67,127
6278,note_on,1,0,0,,6,,,66,127
6548,note_off,270,0,0,,1,,,73,127
6548,note_off,0,0,0,,11,,,58,127
6548,note_off,0,0,0,,4,,,64,127
6549,note_on,1,0,0,,12,,,59,127
6549,note_on,0,0,0,,2,,,62,127
6549,note_on,0,0,0,,2,,,74,127
6819,note_off,270,0,0,,2,,,62,127
6819,note_off,0,0,0,,6,,,66,127
6820,note_on,1,0,0,,2,,,62,127
7090,note_off,270,0,0,,2,,,62,127
7091,note_on,1,0,0,,6,,,66,127
7361,note_off,270,0,0,,2,,,74,127
7361,note_off,0,0,0,,12,,,59,127
7362,note_on,1,0,0,,10,,,57,127
7362,note_on,0,0,0,,1,,,73,127
7632,note_off,270,0,0,,1,,,73,127
7632,note_off,0,0,0,,10,,,57,127
7633,note_on,1,0,0,,8,,,56,127
7633,note_on,0,0,0,,12,,,71,127
7903,note_off,270,0,0,,6,,,66,127
7904,note_on,1,0,0,,1,,,61,127
7904,note_on,0,0,0,,5,,,65,127
8174,note_off,270,0,0,,5,,,65,127
8174,note_off,0,0,0,,1,,,61,127
8174,note_off,0,0,0,,8,,,56,127
8175,note_on,1,0,0,,6,,,54,127
8175,note_on,0,0,0,,2,,,62,127
8175,note_on,0,0,0,,6,,,66,127
8445,note_off,270,0,0,,2,,,62,127
8446,note_on,1,0,0,,12,,,59,127
8716,note_off,270,0,0,,12,,,59,127
8716,note_off,0,0,0,,12,,,71,127
8717,note_on,1,0,0,,1,,,61,127
8717,note_on,0,0,0,,10,,,69,127
8987,note_off,270,0,0,,10,,,69,127
8987,note_off,0,0,0,,6,,,54,127
8988,note_on,1,0,0,,4,,,52,127
8988,note_on,0,0,0,,8,,,68,127
9258,note_off,270,0,0,,8,,,68,127
9258,note_off,0,0,0,,4,,,52,127
9259,note_on,1,0,0,,2,,,50,127
9259,note_on,0,0,0,,10,,,69,127
9529,note_off,270,0,0,,1,,,61,127
9529,note_off,0,0,0,,6,,,66,127
9530,note_on,1,0,0,,8,,,56,127
9530,note_on,0,0,0,,12,,,59,127
9800,note_off,270,0,0,,12,,,59,127
9800,note_off,0,0,0,,8,,,56,127
9800,note_off,0,0,0,,2,,,50,127
9801,note_on,1,0,0,,1,,,49,127
9801,note_on,0,0,0,,10,,,57,127
9801,note_on,0,0,0,,1,,,61,127
10071,note_off,270,0,0,,10,,,57,127
10072,note_on,1,0,0,,6,,,54,127
10342,note_off,270,0,0,,6,,,54,127
10342,note_off,0,0,0,,10,,,69,127
10343,note_on,1,0,0,,8,,,56,127
10343,note_on,0,0,0,,5,,,65,127
10613,note_off,270,0,0,,5,,,65,127
10613,note_off,0,0,0,,8,,,56,127
10614,note_on,1,0,0,,10,,,57,127
10614,note_on,0,0,0,,6,,,66,127
10884,note_off,270,0,0,,6,,,66,127
10884,note_off,0,0,0,,10,,,57,127
10885,note_on,1,0,0,,12,,,59,127
10885,note_on,0,0,0,,8,,,68,127
11155,note_off,270,0,0,,8,,,68,127
11156,note_on,1,0,0,,5,,,65,127
11426,note_off,270,0,0,,5,,,65,127
11426,note_off,0,0,0,,1,,,61,127
11426,note_off,0,0,0,,1,,,49,127
11427,note_on,1,0,0,,6,,,54,127
11427,note_on,0,0,0,,6,,,66,127
11427,note_on,0,0,0,,2,,,62,127
11697,note_off,270,0,0,,2,,,62,127
11698,note_on,1,0,0,,2,,,62,127
11968,note_off,270,0,0,,2,,,62,127
11968,note_off,0,0,0,,12,,,59,127
11969,note_on,1,0,0,,11,,,58,127
11969,note_on,0,0,0,,1,,,61,127
12239,note_off,270,0,0,,1,,,61,127
12239,note_off,0,0,0,,11,,,58,127
12240,note_on,1,0,0,,12,,,59,127
12240,note_on,0,0,0,,2,,,62,127
12510,note_off,270,0,0,,2,,,62,127
12510,note_off,0,0,0,,12,,,59,127
12510,note_off,0,0,0,,6,,,66,127
12510,note_off,0,0,0,,6,,,54,127
12511,note_on,1,0,0,,1,,,61,127
12511,note_on,0,0,0,,1,,,73,127
12511,note_on,0,0,0,,4,,,64,127
12781,note_off,270,0,0,,4,,,64,127
12781,note_off,0,0,0,,1,,,61,127
12782,note_on,1,0,0,,11,,,58,127
12782,note_on,0,0,0,,1,,,61,127
13052,note_off,270,0,0,,1,,,61,127
13052,note_off,0,0,0,,11,,,58,127
13053,note_on,1,0,0,,12,,,59,127
13053,note_on,0,0,0,,2,,,62,127
13323,note_off,270,0,0,,1,,,73,127
13324,note_on,1,0,0,,6,,,66,127
13594,note_off,270,0,0,,6,,,66,127
13595,note_on,1,0,0,,12,,,71,127
13866,note_on,271,0,0,,10,,,57,127
14136,note_off,270,0,0,,10,,,57,127
14137,note_on,1,0,0,,7,,,55,127
14407,note_off,270,0,0,,2,,,62,127
14407,note_off,0,0,0,,12,,,59,127
14408,note_on,1,0,0,,1,,,61,127
14408,note_on,0,0,0,,4,,,64,127
14678,note_off,270,0,0,,4,,,64,127
14678,note_off,0,0,0,,1,,,61,127
14678,note_off,0,0,0,,7,,,55,127
14679,note_on,1,0,0,,6,,,54,127
14679,note_on,0,0,0,,2,,,62,127
14679,note_on,0,0,0,,6,,,66,127
14949,note_off,270,0,0,,2,,,62,127
14950,note_on,1,0,0,,12,,,59,127
15220,note_off,270,0,0,,12,,,59,127
15220,note_off,0,0,0,,6,,,66,127
15220,note_off,0,0,0,,12,,,71,127
15221,note_on,1,0,0,,1,,,61,127
15221,note_on,0,0,0,,6,,,78,127
15221,note_on,0,0,0,,10,,,69,127
15491,note_off,270,0,0,,10,,,69,127
15492,note_on,1,0,0,,7,,,67,127
15762,note_off,270,0,0,,7,,,67,127
15762,note_off,0,0,0,,1,,,61,127
15762,note_off,0,0,0,,6,,,54,127
15763,note_on,1,0,0,,12,,,59,127
15763,note_on,0,0,0,,3,,,63,127
15763,note_on,0,0,0,,6,,,66,127
16033,note_off,270,0,0,,6,,,66,127
16034,note_on,1,0,0,,10,,,69,127
16304,note_off,270,0,0,,10,,,69,127
16304,note_off,0,0,0,,3,,,63,127
16304,note_off,0,0,0,,12,,,59,127
16305,note_on,1,0,0,,4,,,64,127
16305,note_on,0,0,0,,7,,,67,127
16575,note_off,270,0,0,,6,,,78,127
16576,note_on,1,0,0,,12,,,71,127
16846,note_off,270,0,0,,12,,,71,127
16847,note_on,1,0,0,,4,,,76,127
17118,note_on,271,0,0,,2,,,62,127
17388,note_off,270,0,0,,2,,,62,127
17389,note_on,1,0,0,,0,,,60,127
17659,note_off,270,0,0,,7,,,67,127
17659,note_off,0,0,0,,4,,,64,127
17660,note_on,1,0,0,,6,,,66,127
17660,note_on,0,0,0,,10,,,69,127
17930,note_off,270,0,0,,10,,,69,127
17930,note_off,0,0,0,,6,,,66,127
17930,note_off,0,0,0,,0,,,60,127
17931,note_on,1,0,0,,12,,,59,127
17931,note_on,0,0,0,,7,,,67,127
17931,note_on,0,0,0,,12,,,71,127
18201,note_off,270,0,0,,7,,,67,127
18202,note_on,1,0,0,,4,,,64,127
18472,note_off,270,0,0,,4,,,64,127
18472,note_off,0,0,0,,4,,,76,127
18473,note_on,1,0,0,,6,,,66,127
18473,note_on,0,0,0,,3,,,75,127
18743,note_off,270,0,0,,3,,,75,127
18743,note_off,0,0,0,,6,,,66,127
18744,note_on,1,0,0,,7,,,67,127
18744,note_on,0,0,0,,4,,,76,127
19014,note_off,270,0,0,,4,,,76,127
19014,note_off,0,0,0,,7,,,67,127
19015,note_on,1,0,0,,10,,,69,127
19015,note_on,0,0,0,,6,,,78,127
19285,note_off,270,0,0,,6,,,78,127
19286,note_on,1,0,0,,3,,,75,127
19556,note_off,270,0,0,,3,,,75,127
19556,note_off,0,0,0,,12,,,59,127
19557,note_on,1,0,0,,4,,,64,127
19557,note_on,0,0,0,,4,,,76,127
19827,note_off,270,0,0,,12,,,71,127
19828,note_on,1,0,0,,0,,,72,127
20098,note_off,270,0,0,,0,,,72,127
20098,note_off,0,0,0,,10,,,69,127
20099,note_on,1,0,0,,7,,,67,127
20099,note_on,0,0,0,,12,,,71,127
20369,note_off,270,0,0,,12,,,71,127
20369,note_off,0,0,0,,7,,,67,127
20370,note_on,1,0,0,,6,,,66,127
20370,note_on,0,0,0,,10,,,69,127
20640,note_off,270,0,0,,10,,,69,127
20640,note_off,0,0,0,,6,,,66,127
20641,note_on,1,0,0,,7,,,67,127
20641,note_on,0,0,0,,12,,,71,127
20911,note_off,270,0,0,,12,,,71,127
20912,note_on,1,0,0,,1,,,73,127
21182,note_off,270,0,0,,1,,,73,127
21182,note_off,0,0,0,,7,,,67,127
21182,note_off,0,0,0,,4,,,76,127
21182,note_off,0,0,0,,4,,,64,127
21183,note_on,1,0,0,,6,,,66,127
21183,note_on,0,0,0,,10,,,69,127
21183,note_on,0,0,0,,6,,,78,127
21183,note_on,0,0,0,,2,,,74,127
21453,note_off,270,0,0,,10,,,69,127
21453,note_off,0,0,0,,6,,,66,127
21454,note_on,1,0,0,,7,,,67,127
21454,note_on,0,0,0,,12,,,71,127
21724,note_off,270,0,0,,12,,,71,127
21724,note_off,0,0,0,,7,,,67,127
21724,note_off,0,0,0,,2,,,74,127
21724,note_off,0,0,0,,6,,,78,127
21725,note_on,1,0,0,,10,,,69,127
21725,note_on,0,0,0,,4,,,76,127
21725,note_on,0,0,0,,1,,,73,127
21995,note_off,270,0,0,,1,,,73,127
21995,note_off,0,0,0,,4,,,76,127
21996,note_on,1,0,0,,6,,,78,127
21996,note_on,0,0,0,,2,,,74,127
22266,note_off,270,0,0,,2,,,74,127
22266,note_off,0,0,0,,6,,,78,127
22266,note_off,0,0,0,,10,,,69,127
22267,note_on,1,0,0,,7,,,67,127
22267,note_on,0,0,0,,7,,,79,127
22267,note_on,0,0,0,,4,,,76,127
22537,note_off,270,0,0,,7,,,67,127
22538,note_on,1,0,0,,10,,,69,127
22808,note_off,270,0,0,,10,,,69,127
22808,note_off,0,0,0,,4,,,76,127
22808,note_off,0,0,0,,7,,,79,127
22809,note_on,1,0,0,,12,,,71,127
22809,note_on,0,0,0,,6,,,78,127
22809,note_on,0,0,0,,2,,,74,127
23079,note_off,270,0,0,,2,,,74,127
23080,note_on,1,0,0,,4,,,76,127
23350,note_off,270,0,0,,4,,,76,127
23351,note_on,1,0,0,,2,,,74,127
23621,note_off,270,0,0,,2,,,74,127
23621,note_off,0,0,0,,12,,,71,127
23622,note_on,1,0,0,,10,,,69,127
23622,note_on,0,0,0,,1,,,73,127
23892,note_off,270,0,0,,1,,,73,127
23892,note_off,0,0,0,,10,,,69,127
23893,note_on,1,0,0,,7,,,67,127
23893,note_on,0,0,0,,12,,,71,127
24163,note_off,270,0,0,,6,,,78,127
24164,note_on,1,0,0,,4,,,76,127
24434,note_off,270,0,0,,4,,,76,127
24434,note_off,0,0,0,,12,,,71,127
24434,note_off,0,0,0,,7,,,67,127
24435,note_on,1,0,0,,6,,,66,127
24435,note_on,0,0,0,,2,,,74,127
24435,note_on,0,0,0,,10,,,69,127
24705,note_off,270,0,0,,10,,,69,127
24705,note_off,0,0,0,,6,,,66,127
24706,note_on,1,0,0,,4,,,64,127
24706,note_on,0,0,0,,7,,,67,127
24976,note_off,270,0,0,,7,,,67,127
24976,note_off,0,0,0,,4,,,64,127
24977,note_on,1,0,0,,2,,,62,127
24977,note_on,0,0,0,,6,,,66,127
25247,note_off,270,0,0,,6,,,66,127
25247,note_off,0,0,0,,2,,,62,127
25248,note_on,1,0,0,,1,,,61,127
25248,note_on,0,0,0,,4,,,64,127
25518,note_off,270,0,0,,4,,,64,127
25518,note_off,0,0,0,,1,,,61,127
25519,note_on,1,0,0,,12,,,59,127
25519,note_on,0,0,0,,2,,,62,127
25789,note_off,270,0,0,,2,,,74,127
25790,note_on,1,0,0,,10,,,57,127
25790,note_on,0,0,0,,1,,,73,127
26060,note_off,270,0,0,,1,,,73,127
26060,note_off,0,0,0,,10,,,57,127
26061,note_on,1,0,0,,7,,,55,127
26061,note_on,0,0,0,,12,,,71,127
26331,note_off,270,0,0,,2,,,62,127
26331,note_off,0,0,0,,12,,,59,127
26332,note_on,1,0,0,,1,,,61,127
26332,note_on,0,0,0,,4,,,64,127
26602,note_off,270,0,0,,4,,,64,127
26602,note_off,0,0,0,,1,,,61,127
26602,note_off,0,0,0,,7,,,55,127
26603,note_on,1,0,0,,6,,,54,127
26603,note_on,0,0,0,,2,,,62,127
26603,note_on,0,0,0,,6,,,66,127
26873,note_off,270,0,0,,2,,,62,127
26874,note_on,1,0,0,,12,,,59,127
27144,note_off,270,0,0,,12,,,59,127
27144,note_off,0,0,0,,6,,,66,127
27144,note_off,0,0,0,,12,,,71,127
27145,note_on,1,0,0,,1,,,61,127
27145,note_on,0,0,0,,10,,,69,127
27415,note_off,270,0,0,,10,,,69,127
27415,note_off,0,0,0,,6,,,54,127
27416,note_on,1,0,0,,4,,,52,127
27416,note_on,0,0,0,,7,,,67,127
27686,note_off,270,0,0,,7,,,67,127
27686,note_off,0,0,0,,4,,,52,127
27687,note_on,1,0,0,,2,,,50,127
27687,note_on,0,0,0,,6,,,66,127
27957,note_off,270,0,0,,6,,,66,127
27958,note_on,1,0,0,,4,,,64,127
28228,note_off,270,0,0,,4,,,64,127
28229,note_on,1,0,0,,2,,,62,127
28499,note_off,270,0,0,,1,,,61,127
28500,note_on,1,0,0,,12,,,59,127
28754,note_off,254,0,0,,12,,,59,127
28770,note_off,16,0,0,,2,,,62,127
28770,note_off,0,0,0,,2,,,50,127
28771,note_on,1,0,0,,1,,,49,127
28771,note_on,0,0,0,,1,,,73,127
28771,note_on,0,0,0,,4,,,64,127
29042,note_on,271,0,0,,11,,,58,127
29312,note_off,270,0,0,,11,,,58,127
29312,note_off,0,0,0,,4,,,64,127
29312,note_off,0,0,0,,1,,,73,127
29312,note_off,0,0,0,,1,,,49,127
29313,note_on,1,0,0,,12,,,47,127
29313,note_on,0,0,0,,12,,,59,127
29313,note_on,0,0,0,,2,,,74,127
29313,note_on,0,0,0,,6,,,66,127
29583,note_off,270,0,0,,2,,,74,127
29583,note_off,0,0,0,,12,,,47,127
29584,note_on,1,0,0,,1,,,49,127
29584,note_on,0,0,0,,1,,,73,127
29854,note_off,270,0,0,,1,,,73,127
29854,note_off,0,0,0,,1,,,49,127
29854,note_off,0,0,0,,6,,,66,127
29855,note_on,1,0,0,,2,,,50,127
29855,note_on,0,0,0,,12,,,71,127
30125,note_off,270,0,0,,12,,,59,127
30126,note_on,1,0,0,,10,,,57,127
30126,note_on,0,0,0,,6,,,78,127
30396,note_off,270,0,0,,6,,,78,127
30396,note_off,0,0,0,,10,,,57,127
30396,note_off,0,0,0,,2,,,50,127
30397,note_on,1,0,0,,4,,,52,127
30397,note_on,0,0,0,,7,,,55,127
30397,note_on,0,0,0,,7,,,79,127
30667,note_off,270,0,0,,7,,,79,127
30667,note_off,0,0,0,,7,,,55,127
30667,note_off,0,0,0,,4,,,52,127
30667,note_off,0,0,0,,12,,,71,127
30668,note_on,1,0,0,,6,,,54,127
30668,note_on,0,0,0,,10,,,57,127
30668,note_on,0,0,0,,6,,,78,127
30668,note_on,0,0,0,,10,,,69,127
30938,note_off,270,0,0,,10,,,69,127
30938,note_off,0,0,0,,6,,,78,127
30938,note_off,0,0,0,,10,,,57,127
30938,note_off,0,0,0,,6,,,54,127
30939,note_on,1,0,0,,7,,,55,127
30939,note_on,0,0,0,,12,,,59,127
30939,note_on,0,0,0,,4,,,76,127
30939,note_on,0,0,0,,7,,,67,127
31209,note_off,270,0,0,,7,,,67,127
31209,note_off,0,0,0,,4,,,76,127
31210,note_on,1,0,0,,2,,,74,127
31210,note_on,0,0,0,,6,,,66,127
31480,note_off,270,0,0,,6,,,66,127
31480,note_off,0,0,0,,2,,,74,127
31480,note_off,0,0,0,,12,,,59,127
31480,note_off,0,0,0,,7,,,55,127
31481,note_on,1,0,0,,10,,,57,127
31481,note_on,0,0,0,,1,,,73,127
31481,note_on,0,0,0,,4,,,64,127
31751,note_off,270,0,0,,4,,,64,127
31751,note_off,0,0,0,,1,,,73,127
31752,note_on,1,0,0,,12,,,71,127
31752,note_on,0,0,0,,2,,,62,127
32022,note_off,270,0,0,,2,,,62,127
32022,note_off,0,0,0,,12,,,71,127
32023,note_on,1,0,0,,10,,,69,127
32023,note_on,0,0,0,,1,,,61,127
32293,note_off,270,0,0,,1,,,61,127
32293,note_off,0,0,0,,10,,,57,127
32294,note_on,1,0,0,,7,,,55,127
32294,note_on,0,0,0,,12,,,59,127
32564,note_off,270,0,0,,12,,,59,127
32564,note_off,0,0,0,,7,,,55,127
32565,note_on,1,0,0,,6,,,54,127
32565,note_on,0,0,0,,10,,,57,127
32835,note_off,270,0,0,,10,,,57,127
32836,note_on,1,0,0,,2,,,62,127
33106,note_off,270,0,0,,2,,,62,127
33106,note_off,0,0,0,,6,,,54,127
33106,note_off,0,0,0,,10,,,69,127
33107,note_on,1,0,0,,7,,,55,127
33107,note_on,0,0,0,,12,,,59,127
33107,note_on,0,0,0,,7,,,67,127
33377,note_off,270,0,0,,12,,,59,127
33378,note_on,1,0,0,,1,,,61,127
33648,note_off,270,0,0,,1,,,61,127
33648,note_off,0,0,0,,7,,,55,127
33649,note_on,1,0,0,,2,,,50,127
33649,note_on,0,0,0,,10,,,57,127
33919,note_off,270,0,0,,7,,,67,127
33920,note_on,1,0,0,,6,,,66,127
34190,note_off,270,0,0,,6,,,66,127
34190,note_off,0,0,0,,10,,,57,127
34190,note_off,0,0,0,,2,,,50,127
34191,note_on,1,0,0,,1,,,49,127
34191,note_on,0,0,0,,10,,,57,127
34191,note_on,0,0,0,,6,,,66,127
34461,note_off,270,0,0,,6,,,66,127
34462,note_on,1,0,0,,4,,,64,127
34732,note_off,270,0,0,,4,,,64,127
34732,note_off,0,0,0,,10,,,57,127
34732,note_off,0,0,0,,1,,,49,127
34733,note_on,1,0,0,,12,,,47,127
34733,note_on,0,0,0,,12,,,59,127
34733,note_on,0,0,0,,2,,,62,127
35003,note_off,270,0,0,,12,,,59,127
35004,note_on,1,0,0,,10,,,57,127
35004,note_on,0,0,0,,6,,,66,127
35274,note_off,270,0,0,,6,,,66,127
35274,note_off,0,0,0,,10,,,57,127
35274,note_off,0,0,0,,12,,,47,127
35275,note_on,1,0,0,,7,,,55,127
35275,note_on,0,0,0,,12,,,59,127
35275,note_on,0,0,0,,12,,,71,127
35545,note_off,270,0,0,,12,,,59,127
35545,note_off,0,0,0,,2,,,62,127
35546,note_on,1,0,0,,1,,,61,127
35546,note_on,0,0,0,,4,,,64,127
35816,note_off,270,0,0,,4,,,64,127
35816,note_off,0,0,0,,1,,,61,127
35816,note_off,0,0,0,,7,,,55,127
35817,note_on,1,0,0,,6,,,54,127
35817,note_on,0,0,0,,2,,,62,127
35817,note_on,0,0,0,,6,,,66,127
36087,note_off,270,0,0,,2,,,62,127
36088,note_on,1,0,0,,12,,,59,127
36358,note_off,270,0,0,,12,,,59,127
36358,note_off,0,0,0,,12,,,71,127
36359,note_on,1,0,0,,1,,,61,127
36359,note_on,0,0,0,,11,,,70,127
36629,note_off,270,0,0,,11,,,70,127
36629,note_off,0,0,0,,1,,,61,127
36630,note_on,1,0,0,,2,,,62,127
36630,note_on,0,0,0,,12,,,71,127
36900,note_off,270,0,0,,12,,,71,127
36900,note_off,0,0,0,,2,,,62,127
36901,note_on,1,0,0,,4,,,64,127
36901,note_on,0,0,0,,1,,,73,127
37171,note_off,270,0,0,,1,,,73,127
37171,note_off,0,0,0,,4,,,64,127
37171,note_off,0,0,0,,6,,,66,127
37172,note_on,1,0,0,,6,,,66,127
37172,note_on,0,0,0,,2,,,74,127
37442,note_off,270,0,0,,2,,,74,127
37442,note_off,0,0,0,,6,,,66,127
37442,note_off,0,0,0,,6,,,54,127
37443,note_on,1,0,0,,12,,,59,127
37443,note_on,0,0,0,,7,,,67,127
37443,note_on,0,0,0,,4,,,76,127
37443,note_on,0,0,0,,12,,,71,127
37713,note_off,270,0,0,,7,,,67,127
37714,note_on,1,0,0,,4,,,64,127
37984,note_off,270,0,0,,4,,,64,127
37984,note_off,0,0,0,,4,,,76,127
37985,note_on,1,0,0,,6,,,66,127
37985,note_on,0,0,0,,3,,,75,127
38255,note_off,270,0,0,,3,,,75,127
38255,note_off,0,0,0,,6,,,66,127
38256,note_on,1,0,0,,7,,,67,127
38256,note_on,0,0,0,,4,,,76,127
38526,note_off,270,0,0,,4,,,76,127
38526,note_off,0,0,0,,7,,,67,127
38527,note_on,1,0,0,,10,,,69,127
38527,note_on,0,0,0,,6,,,78,127
38797,note_off,270,0,0,,6,,,78,127
38797,note_off,0,0,0,,10,,,69,127
38797,note_off,0,0,0,,12,,,71,127
38798,note_on,1,0,0,,12,,,71,127
38798,note_on,0,0,0,,7,,,79,127
39068,note_off,270,0,0,,7,,,79,127
39068,note_off,0,0,0,,12,,,71,127
39068,note_off,0,0,0,,12,,,59,127
39069,note_on,1,0,0,,4,,,64,127
39069,note_on,0,0,0,,0,,,72,127
39069,note_on,0,0,0,,10,,,81,127
39069,note_on,0,0,0,,4,,,76,127
39339,note_off,270,0,0,,0,,,72,127
39340,note_on,1,0,0,,10,,,69,127
39610,note_off,270,0,0,,10,,,69,127
39610,note_off,0,0,0,,10,,,81,127
39611,note_on,1,0,0,,12,,,71,127
39611,note_on,0,0,0,,7,,,79,127
39881,note_off,270,0,0,,7,,,79,127
39881,note_off,0,0,0,,4,,,76,127
39881,note_off,0,0,0,,4,,,64,127
39882,note_on,1,0,0,,2,,,62,127
39882,note_on,0,0,0,,12,,,83,127
39882,note_on,0,0,0,,6,,,78,127
40152,note_off,270,0,0,,6,,,78,127
40152,note_off,0,0,0,,2,,,62,127
40152,note_off,0,0,0,,12,,,71,127
40153,note_on,1,0,0,,0,,,60,127
40153,note_on,0,0,0,,4,,,76,127
40423,note_off,270,0,0,,12,,,83,127
40424,note_on,1,0,0,,11,,,82,127
40694,note_off,270,0,0,,11,,,82,127
40694,note_off,0,0,0,,0,,,60,127
40695,note_on,1,0,0,,12,,,59,127
40695,note_on,0,0,0,,12,,,83,127
40965,note_off,270,0,0,,12,,,83,127
40966,note_on,1,0,0,,12,,,71,127
40966,note_on,0,0,0,,7,,,79,127
41236,note_off,270,0,0,,7,,,79,127
41236,note_off,0,0,0,,4,,,76,127
41237,note_on,1,0,0,,6,,,78,127
41237,note_on,0,0,0,,2,,,74,127
41507,note_off,270,0,0,,2,,,74,127
41507,note_off,0,0,0,,12,,,71,127
41508,note_on,1,0,0,,10,,,69,127
41508,note_on,0,0,0,,1,,,73,127
41778,note_off,270,0,0,,1,,,73,127
41778,note_off,0,0,0,,10,,,69,127
41779,note_on,1,0,0,,7,,,67,127
41779,note_on,0,0,0,,12,,,71,127
42049,note_off,270,0,0,,6,,,78,127
42050,note_on,1,0,0,,4,,,76,127
42315,note_off,265,0,0,,7,,,67,127
42319,note_off,4,0,0,,4,,,76,127
42319,note_off,0,0,0,,12,,,71,127
42319,note_off,0,0,0,,12,,,59,127
42320,note_on,1,0,0,,6,,,54,127
42320,note_on,0,0,0,,2,,,74,127
42320,note_on,0,0,0,,12,,,71,127
42590,note_off,270,0,0,,6,,,54,127
42591,note_on,1,0,0,,6,,,66,127
42861,note_off,270,0,0,,12,,,71,127
42861,note_off,0,0,0,,2,,,74,127
42862,note_on,1,0,0,,1,,,73,127
42862,note_on,0,0,0,,11,,,70,127
43133,note_on,271,0,0,,7,,,55,127
43403,note_off,270,0,0,,7,,,55,127
43403,note_off,0,0,0,,6,,,66,127
43404,note_on,1,0,0,,4,,,64,127
43674,note_off,270,0,0,,11,,,70,127
43674,note_off,0,0,0,,1,,,73,127
43675,note_on,1,0,0,,4,,,76,127
43675,note_on,0,0,0,,1,,,73,127
43940,note_off,265,0,0,,4,,,64,127
43944,note_off,4,0,0,,1,,,73,127
43944,note_off,0,0,0,,4,,,76,127
43945,note_on,1,0,0,,6,,,54,127
43945,note_on,0,0,0,,2,,,74,127
43945,note_on,0,0,0,,12,,,71,127
44215,note_off,270,0,0,,6,,,54,127
44216,note_on,1,0,0,,6,,,66,127
44486,note_off,270,0,0,,12,,,71,127
44486,note_off,0,0,0,,2,,,74,127
44487,note_on,1,0,0,,1,,,73,127
44487,note_on,0,0,0,,11,,,70,127
44758,note_on,271,0,0,,7,,,55,127
45028,note_off,270,0,0,,7,,,55,127
45028,note_off,0,0,0,,6,,,66,127
45029,note_on,1,0,0,,4,,,64,127
45299,note_off,270,0,0,,11,,,70,127
45299,note_off,0,0,0,,1,,,73,127
45300,note_on,1,0,0,,7,,,79,127
45300,note_on,0,0,0,,4,,,76,127
45565,note_off,265,0,0,,4,,,64,127
45569,note_off,4,0,0,,4,,,76,127
45569,note_off,0,0,0,,7,,,79,127
45570,note_on,1,0,0,,6,,,54,127
45570,note_on,0,0,0,,2,,,74,127
45570,note_on,0,0,0,,12,,,71,127
45840,note_off,270,0,0,,6,,,54,127
45841,note_on,1,0,0,,6,,,66,127
46111,note_off,270,0,0,,12,,,71,127
46111,note_off,0,0,0,,2,,,74,127
46112,note_on,1,0,0,,1,,,73,127
46112,note_on,0,0,0,,11,,,70,127
46383,note_on,271,0,0,,7,,,55,127
46653,note_off,270,0,0,,7,,,55,127
46653,note_off,0,0,0,,6,,,66,127
46654,note_on,1,0,0,,4,,,64,127
46924,note_off,270,0,0,,11,,,70,127
46924,note_off,0,0,0,,1,,,73,127
46925,note_on,1,0,0,,12,,,83,127
46925,note_on,0,0,0,,12,,,71,127
47195,note_off,270,0,0,,12,,,71,127
47195,note_off,0,0,0,,12,,,83,127
47196,note_on,1,0,0,,6,,,54,127
47196,note_on,0,0,0,,2,,,74,127
47196,note_on,0,0,0,,12,,,71,127
47332,note_off,136,0,0,,4,,,64,127
47468,note_on,136,0,0,,6,,,66,127
47738,note_off,270,0,0,,12,,,71,127
47738,note_off,0,0,0,,2,,,74,127
47739,note_on,1,0,0,,1,,,73,127
47739,note_on,0,0,0,,11,,,70,127
48009,note_off,270,0,0,,1,,,73,127
48009,note_off,0,0,0,,6,,,66,127
48010,note_on,1,0,0,,4,,,64,127
48010,note_on,0,0,0,,7,,,79,127
48280,note_off,270,0,0,,7,,,79,127
48280,note_off,0,0,0,,4,,,64,127
48280,note_off,0,0,0,,11,,,70,127
48281,note_on,1,0,0,,2,,,62,127
48281,note_on,0,0,0,,6,,,78,127
48281,note_on,0,0,0,,12,,,71,127
48551,note_off,270,0,0,,6,,,78,127
48551,note_off,0,0,0,,2,,,62,127
48552,note_on,1,0,0,,1,,,61,127
48552,note_on,0,0,0,,5,,,77,127
48822,note_off,270,0,0,,5,,,77,127
48822,note_off,0,0,0,,1,,,61,127
48823,note_on,1,0,0,,2,,,62,127
48823,note_on,0,0,0,,6,,,78,127
49093,note_off,270,0,0,,12,,,71,127
49094,note_on,1,0,0,,6,,,66,127
49364,note_off,270,0,0,,6,,,66,127
49364,note_off,0,0,0,,6,,,78,127
49364,note_off,0,0,0,,2,,,62,127
49365,note_on,1,0,0,,1,,,61,127
49365,note_on,0,0,0,,4,,,76,127
49365,note_on,0,0,0,,8,,,68,127
49635,note_off,270,0,0,,8,,,68,127
49636,note_on,1,0,0,,11,,,70,127
49906,note_off,270,0,0,,11,,,70,127
49906,note_off,0,0,0,,1,,,61,127
49907,note_on,1,0,0,,12,,,59,127
49907,note_on,0,0,0,,12,,,71,127
50177,note_off,270,0,0,,4,,,76,127
50178,note_on,1,0,0,,2,,,74,127
50448,note_off,270,0,0,,2,,,74,127
50448,note_off,0,0,0,,12,,,59,127
50449,note_on,1,0,0,,6,,,42,127
50449,note_on,0,0,0,,1,,,73,127
50719,note_off,270,0,0,,1,,,73,127
50719,note_off,0,0,0,,12,,,71,127
50720,note_on,1,0,0,,6,,,78,127
50720,note_on,0,0,0,,11,,,70,127
50990,note_off,270,0,0,,11,,,70,127
50990,note_off,0,0,0,,6,,,78,127
50991,note_off,1,0,0,,6,,,54,127
50991,note_on,0,0,0,,7,,,79,127
50991,note_on,0,0,0,,12,,,71,127
51261,note_off,270,0,0,,12,,,71,127
51261,note_off,0,0,0,,7,,,79,127
51262,note_on,1,0,0,,6,,,78,127
51262,note_on,0,0,0,,10,,,69,127
51532,note_off,270,0,0,,10,,,69,127
51532,note_off,0,0,0,,6,,,78,127
51533,note_on,1,0,0,,4,,,76,127
51533,note_on,0,0,0,,7,,,67,127
51803,note_off,270,0,0,,7,,,67,127
51803,note_off,0,0,0,,4,,,76,127
51804,note_on,1,0,0,,2,,,74,127
51804,note_on,0,0,0,,6,,,66,127
52074,note_off,270,0,0,,6,,,66,127
52074,note_off,0,0,0,,2,,,74,127
52075,note_on,1,0,0,,1,,,73,127
52075,note_on,0,0,0,,4,,,64,127
52345,note_off,270,0,0,,4,,,64,127
52345,note_off,0,0,0,,1,,,73,127
52346,note_on,1,0,0,,12,,,71,127
52346,note_on,0,0,0,,2,,,62,127
52616,note_off,270,0,0,,2,,,62,127
52616,note_off,0,0,0,,12,,,71,127
52617,note_on,1,0,0,,11,,,70,127
52617,note_on,0,0,0,,1,,,61,127
52887,note_off,270,0,0,,1,,,61,127
52887,note_off,0,0,0,,11,,,70,127
52888,note_on,1,0,0,,8,,,68,127
52888,note_on,0,0,0,,12,,,59,127
53158,note_off,270,0,0,,12,,,59,127
53158,note_off,0,0,0,,8,,,68,127
53159,note_on,1,0,0,,6,,,66,127
53159,note_on,0,0,0,,11,,,58,127
53429,note_off,270,0,0,,11,,,58,127
53429,note_off,0,0,0,,6,,,66,127
53430,note_on,1,0,0,,5,,,65,127
53430,note_on,0,0,0,,8,,,56,127
53700,note_off,270,0,0,,8,,,56,127
53700,note_off,0,0,0,,5,,,65,127
53701,note_on,1,0,0,,6,,,54,127
53701,note_on,0,0,0,,6,,,66,127
53972,note_on,271,0,0,,1,,,61,127
54242,note_off,270,0,0,,1,,,61,127
54243,note_on,1,0,0,,11,,,58,127
54513,note_off,270,0,0,,11,,,58,127
54513,note_off,0,0,0,,6,,,54,127
54526,note_on,13,0,0,,6,,,54,127
54784,note_off,258,0,0,,6,,,42,127
54831,note_on,47,0,0,,6,,,42,127
55372,note_off,541,0,0,,6,,,42,127
55467,note_off,95,0,0,,6,,,66,127
55480,note_off,13,0,0,,6,,,54,127
55498,note_on,18,0,0,,1,,,73,127
55769,note_on,271,0,0,,6,,,66,127
56039,note_off,270,0,0,,1,,,73,127
56040,note_on,1,0,0,,2,,,74,127
56310,note_off,270,0,0,,2,,,74,127
56310,note_off,0,0,0,,6,,,66,127
56311,note_on,1,0,0,,1,,,73,127
56311,note_on,0,0,0,,4,,,64,127
56581,note_off,270,0,0,,4,,,64,127
56581,note_off,0,0,0,,1,,,73,127
56582,note_on,1,0,0,,6,,,78,127
56582,note_on,0,0,0,,2,,,62,127
56853,note_on,271,0,0,,6,,,66,127
57123,note_off,270,0,0,,6,,,66,127
57123,note_off,0,0,0,,2,,,62,127
57123,note_off,0,0,0,,6,,,78,127
57124,note_on,1,0,0,,8,,,68,127
57124,note_on,0,0,0,,4,,,76,127
57124,note_on,0,0,0,,1,,,61,127
57665,note_off,541,0,0,,1,,,61,127
57665,note_off,0,0,0,,8,,,68,127
57666,note_on,1,0,0,,11,,,70,127
57666,note_on,0,0,0,,6,,,66,127
57936,note_off,270,0,0,,11,,,70,127
57936,note_off,0,0,0,,4,,,76,127
57937,note_on,1,0,0,,12,,,71,127
57937,note_on,0,0,0,,2,,,74,127
58207,note_off,270,0,0,,6,,,66,127
58208,note_on,1,0,0,,6,,,54,127
58478,note_off,270,0,0,,2,,,74,127
58478,note_off,0,0,0,,12,,,71,127
58479,note_on,1,0,0,,11,,,70,127
58479,note_on,0,0,0,,1,,,73,127
58747,note_off,268,0,0,,11,,,70,127
58748,note_off,1,0,0,,1,,,73,127
58748,note_off,0,0,0,,6,,,54,127
58749,note_on,1,0,0,,6,,,78,127
58749,note_on,0,0,0,,12,,,47,127
59020,note_on,271,0,0,,6,,,66,127
59020,note_on,0,0,0,,12,,,59,127
59290,note_off,270,0,0,,6,,,66,127
59291,note_on,1,0,0,,7,,,67,127
59561,note_off,270,0,0,,7,,,67,127
59561,note_off,0,0,0,,12,,,47,127
59562,note_on,1,0,0,,6,,,66,127
59562,note_on,0,0,0,,10,,,57,127
59832,note_off,270,0,0,,10,,,57,127
59832,note_off,0,0,0,,6,,,78,127
59833,note_on,1,0,0,,4,,,76,127
59833,note_on,0,0,0,,7,,,55,127
60103,note_off,270,0,0,,6,,,66,127
60103,note_off,0,0,0,,12,,,59,127
60104,note_on,1,0,0,,4,,,64,127
60104,note_on,0,0,0,,1,,,61,127
60374,note_off,270,0,0,,1,,,61,127
60374,note_off,0,0,0,,4,,,64,127
60374,note_off,0,0,0,,7,,,55,127
60374,note_off,0,0,0,,4,,,76,127
60375,note_on,1,0,0,,6,,,66,127
60375,note_on,0,0,0,,2,,,74,127
60375,note_on,0,0,0,,2,,,62,127
60375,note_on,0,0,0,,6,,,54,127
60645,note_off,270,0,0,,2,,,62,127
60645,note_off,0,0,0,,2,,,74,127
60646,note_on,1,0,0,,1,,,73,127
60646,note_on,0,0,0,,12,,,59,127
60916,note_off,270,0,0,,12,,,59,127
60916,note_off,0,0,0,,6,,,66,127
60917,note_on,1,0,0,,4,,,64,127
60917,note_on,0,0,0,,1,,,61,127
61187,note_off,270,0,0,,1,,,73,127
61188,note_on,1,0,0,,12,,,71,127
61458,note_off,270,0,0,,1,,,61,127
61458,note_off,0,0,0,,4,,,64,127
61458,note_off,0,0,0,,6,,,54,127
61459,note_on,1,0,0,,3,,,63,127
61459,note_on,0,0,0,,12,,,59,127
61729,note_off,270,0,0,,12,,,71,127
61730,note_on,1,0,0,,10,,,69,127
62000,note_off,270,0,0,,10,,,69,127
62000,note_off,0,0,0,,12,,,59,127
62000,note_off,0,0,0,,3,,,63,127
62001,note_on,1,0,0,,7,,,67,127
62001,note_on,0,0,0,,4,,,64,127
62272,note_on,271,0,0,,11,,,70,127
62542,note_off,270,0,0,,11,,,70,127
62543,note_on,1,0,0,,12,,,71,127
62813,note_off,270,0,0,,4,,,64,127
62813,note_off,0,0,0,,7,,,67,127
62814,note_on,1,0,0,,6,,,66,127
62814,note_on,0,0,0,,2,,,62,127
63084,note_off,270,0,0,,2,,,62,127
63084,note_off,0,0,0,,6,,,66,127
63085,note_on,1,0,0,,4,,,64,127
63085,note_on,0,0,0,,1,,,61,127
63355,note_off,270,0,0,,12,,,71,127
63356,note_on,1,0,0,,1,,,73,127
63626,note_off,270,0,0,,1,,,73,127
63626,note_off,0,0,0,,1,,,61,127
63626,note_off,0,0,0,,4,,,64,127
63627,note_on,1,0,0,,2,,,74,127
63627,note_on,0,0,0,,2,,,62,127
63627,note_on,0,0,0,,12,,,59,127
63898,note_on,271,0,0,,5,,,65,127
64168,note_off,270,0,0,,5,,,65,127
64169,note_on,1,0,0,,6,,,66,127
64439,note_off,270,0,0,,12,,,59,127
64439,note_off,0,0,0,,2,,,74,127
64440,note_on,1,0,0,,1,,,73,127
64440,note_on,0,0,0,,10,,,57,127
64710,note_off,270,0,0,,10,,,57,127
64710,note_off,0,0,0,,1,,,73,127
64711,note_on,1,0,0,,12,,,71,127
64711,note_on,0,0,0,,8,,,56,127
64981,note_off,270,0,0,,6,,,66,127
64981,note_off,0,0,0,,2,,,62,127
64982,note_on,1,0,0,,8,,,68,127
64982,note_on,0,0,0,,5,,,65,127
65252,note_off,270,0,0,,5,,,65,127
65252,note_off,0,0,0,,8,,,68,127
65252,note_off,0,0,0,,8,,,56,127
65252,note_off,0,0,0,,12,,,71,127
65253,note_on,1,0,0,,10,,,69,127
65253,note_on,0,0,0,,6,,,66,127
65253,note_on,0,0,0,,1,,,61,127
65253,note_on,0,0,0,,6,,,54,127
65524,note_on,271,0,0,,0,,,72,127
65794,note_off,270,0,0,,0,,,72,127
65795,note_on,1,0,0,,1,,,73,127
66065,note_off,270,0,0,,6,,,54,127
66065,note_off,0,0,0,,1,,,61,127
66065,note_off,0,0,0,,6,,,66,127
66065,note_off,0,0,0,,10,,,69,127
66066,note_on,1,0,0,,8,,,68,127
66066,note_on,0,0,0,,4,,,64,127
66336,note_off,270,0,0,,4,,,64,127
66336,note_off,0,0,0,,8,,,68,127
66337,note_on,1,0,0,,6,,,66,127
66337,note_on,0,0,0,,3,,,63,127
66607,note_off,270,0,0,,1,,,73,127
66608,note_on,1,0,0,,3,,,75,127
66878,note_off,270,0,0,,3,,,75,127
66878,note_off,0,0,0,,3,,,63,127
66878,note_off,0,0,0,,6,,,66,127
66879,note_on,1,0,0,,4,,,64,127
66879,note_on,0,0,0,,4,,,76,127
66879,note_on,0,0,0,,1,,,61,127
67149,note_off,270,0,0,,4,,,76,127
67149,note_off,0,0,0,,4,,,64,127
67150,note_on,1,0,0,,8,,,68,127
67150,note_on,0,0,0,,2,,,74,127
67420,note_off,270,0,0,,2,,,74,127
67420,note_off,0,0,0,,8,,,68,127
67421,note_on,1,0,0,,10,,,69,127
67421,note_on,0,0,0,,1,,,73,127
67691,note_off,270,0,0,,1,,,61,127
67692,note_on,1,0,0,,2,,,62,127
67962,note_off,270,0,0,,2,,,62,127
67963,note_on,1,0,0,,4,,,64,127
68233,note_off,270,0,0,,1,,,73,127
68233,note_off,0,0,0,,10,,,69,127
68234,note_on,1,0,0,,8,,,68,127
68234,note_on,0,0,0,,12,,,71,127
68488,note_off,254,0,0,,12,,,71,127
68488,note_off,0,0,0,,8,,,68,127
68504,note_off,16,0,0,,4,,,64,127
68505,note_on,1,0,0,,6,,,66,127
68505,note_on,0,0,0,,6,,,78,127
68505,note_on,0,0,0,,2,,,62,127
68775,note_off,270,0,0,,6,,,78,127
68775,note_off,0,0,0,,6,,,66,127
68776,note_on,1,0,0,,11,,,70,127
68776,note_on,0,0,0,,4,,,76,127
69046,note_off,270,0,0,,4,,,76,127
69046,note_off,0,0,0,,11,,,70,127
69047,note_on,1,0,0,,12,,,71,127
69047,note_on,0,0,0,,2,,,74,127
69317,note_off,270,0,0,,2,,,62,127
69318,note_on,1,0,0,,4,,,64,127
69588,note_off,270,0,0,,4,,,64,127
69589,note_on,1,0,0,,6,,,66,127
69859,note_off,270,0,0,,2,,,74,127
69859,note_off,0,0,0,,12,,,71,127
69860,note_on,1,0,0,,11,,,70,127
69860,note_on,0,0,0,,1,,,73,127
70100,note_off,240,0,0,,1,,,73,127
70100,note_off,0,0,0,,11,,,70,127
70130,note_off,30,0,0,,6,,,66,127
70131,note_on,1,0,0,,12,,,71,127
70131,note_on,0,0,0,,12,,,83,127
70131,note_on,0,0,0,,7,,,67,127
70401,note_off,270,0,0,,12,,,83,127
70401,note_off,0,0,0,,12,,,71,127
70402,note_on,1,0,0,,3,,,75,127
70402,note_on,0,0,0,,10,,,81,127
70672,note_off,270,0,0,,10,,,81,127
70672,note_off,0,0,0,,3,,,75,127
70672,note_off,0,0,0,,7,,,67,127
70673,note_on,1,0,0,,4,,,76,127
70673,note_on,0,0,0,,7,,,79,127
70673,note_on,0,0,0,,12,,,71,127
71215,note_on,542,0,0,,12,,,59,127
71485,note_off,270,0,0,,7,,,79,127
71485,note_off,0,0,0,,4,,,76,127
71486,note_on,1,0,0,,3,,,75,127
71486,note_on,0,0,0,,6,,,78,127
71750,note_off,264,0,0,,12,,,71,127
71756,note_off,6,0,0,,6,,,78,127
71756,note_off,0,0,0,,3,,,75,127
71756,note_off,0,0,0,,12,,,59,127
71757,note_on,1,0,0,,4,,,76,127
71757,note_on,0,0,0,,7,,,79,127
71757,note_on,0,0,0,,12,,,71,127
71757,note_on,0,0,0,,4,,,64,127
72027,note_off,270,0,0,,7,,,79,127
72027,note_off,0,0,0,,4,,,76,127
72028,note_on,1,0,0,,2,,,74,127
72028,note_on,0,0,0,,6,,,78,127
72298,note_off,270,0,0,,6,,,78,127
72298,note_off,0,0,0,,2,,,74,127
72298,note_off,0,0,0,,4,,,64,127
72298,note_off,0,0,0,,12,,,71,127
72299,note_on,1,0,0,,1,,,73,127
72299,note_on,0,0,0,,4,,,76,127
72299,note_on,0,0,0,,10,,,69,127
72299,note_on,0,0,0,,10,,,57,127
72569,note_off,270,0,0,,10,,,69,127
72570,note_on,1,0,0,,7,,,67,127
72840,note_off,270,0,0,,7,,,67,127
72840,note_off,0,0,0,,10,,,57,127
72840,note_off,0,0,0,,4,,,76,127
72840,note_off,0,0,0,,1,,,73,127
72841,note_on,1,0,0,,2,,,74,127
72841,note_on,0,0,0,,6,,,78,127
72841,note_on,0,0,0,,6,,,66,127
72841,note_on,0,0,0,,2,,,62,127
73111,note_off,270,0,0,,6,,,78,127
73111,note_off,0,0,0,,2,,,74,127
73112,note_on,1,0,0,,1,,,73,127
73112,note_on,0,0,0,,4,,,76,127
73382,note_off,270,0,0,,4,,,76,127
73382,note_off,0,0,0,,1,,,73,127
73382,note_off,0,0,0,,2,,,62,127
73382,note_off,0,0,0,,6,,,66,127
73383,note_on,1,0,0,,12,,,71,127
73383,note_on,0,0,0,,2,,,74,127
73383,note_on,0,0,0,,7,,,67,127
73383,note_on,0,0,0,,7,,,55,127
73653,note_off,270,0,0,,7,,,67,127
73654,note_on,1,0,0,,6,,,66,127
73924,note_off,270,0,0,,6,,,66,127
73924,note_off,0,0,0,,2,,,74,127
73924,note_off,0,0,0,,12,,,71,127
73925,note_on,1,0,0,,1,,,73,127
73925,note_on,0,0,0,,4,,,76,127
73925,note_on,0,0,0,,4,,,64,127
73933,note_off,8,0,0,,7,,,55,127
74194,note_off,261,0,0,,4,,,76,127
74194,note_off,0,0,0,,1,,,73,127
74195,note_on,1,0,0,,12,,,71,127
74195,note_on,0,0,0,,2,,,74,127
74465,note_off,270,0,0,,2,,,74,127
74465,note_off,0,0,0,,12,,,71,127
74465,note_off,0,0,0,,4,,,64,127
74466,note_on,1,0,0,,11,,,70,127
74466,note_on,0,0,0,,1,,,73,127
74466,note_on,0,0,0,,6,,,66,127
74466,note_on,0,0,0,,6,,,54,127
74736,note_off,270,0,0,,6,,,66,127
74737,note_on,1,0,0,,4,,,64,127
75007,note_off,270,0,0,,4,,,64,127
75007,note_off,0,0,0,,6,,,54,127
75007,note_off,0,0,0,,1,,,73,127
75007,note_off,0,0,0,,11,,,70,127
75008,note_on,1,0,0,,12,,,71,127
75008,note_on,0,0,0,,6,,,66,127
75008,note_on,0,0,0,,2,,,62,127
75278,note_off,270,0,0,,2,,,62,127
75278,note_off,0,0,0,,6,,,66,127
75278,note_off,0,0,0,,12,,,71,127
75279,note_on,1,0,0,,1,,,73,127
75279,note_on,0,0,0,,4,,,64,127
75279,note_on,0,0,0,,1,,,61,127
75549,note_off,270,0,0,,1,,,61,127
75549,note_off,0,0,0,,4,,,64,127
75549,note_off,0,0,0,,1,,,73,127
75550,note_on,1,0,0,,2,,,74,127
75550,note_on,0,0,0,,2,,,62,127
75550,note_on,0,0,0,,12,,,59,127
75820,note_off,270,0,0,,12,,,59,127
75820,note_off,0,0,0,,2,,,62,127
75821,note_on,1,0,0,,1,,,61,127
75821,note_on,0,0,0,,10,,,57,127
76091,note_off,270,0,0,,10,,,57,127
76091,note_off,0,0,0,,1,,,61,127
76092,note_on,1,0,0,,12,,,59,127
76092,note_on,0,0,0,,7,,,55,127
76362,note_off,270,0,0,,2,,,74,127
76363,note_on,1,0,0,,4,,,76,127
76633,note_off,270,0,0,,4,,,76,127
76633,note_off,0,0,0,,7,,,55,127
76633,note_off,0,0,0,,12,,,59,127
76634,note_on,1,0,0,,10,,,69,127
76634,note_on,0,0,0,,6,,,78,127
76634,note_on,0,0,0,,10,,,57,127
76634,note_on,0,0,0,,6,,,54,127
76904,note_off,270,0,0,,6,,,78,127
76904,note_off,0,0,0,,10,,,69,127
76905,note_on,1,0,0,,0,,,72,127
76905,note_on,0,0,0,,4,,,76,127
77175,note_off,270,0,0,,4,,,76,127
77175,note_off,0,0,0,,0,,,72,127
77175,note_off,0,0,0,,6,,,54,127
77175,note_off,0,0,0,,10,,,57,127
77176,note_on,1,0,0,,12,,,71,127
77176,note_on,0,0,0,,3,,,75,127
77176,note_on,0,0,0,,12,,,59,127
77446,note_off,270,0,0,,3,,,75,127
77446,note_off,0,0,0,,12,,,71,127
77447,note_on,1,0,0,,10,,,69,127
77447,note_on,0,0,0,,6,,,78,127
77717,note_off,270,0,0,,6,,,78,127
77717,note_off,0,0,0,,10,,,69,127
77717,note_off,0,0,0,,12,,,59,127
77718,note_on,1,0,0,,7,,,67,127
77718,note_on,0,0,0,,4,,,76,127
77718,note_on,0,0,0,,4,,,52,127
77988,note_off,270,0,0,,4,,,76,127
77988,note_off,0,0,0,,7,,,67,127
77989,note_on,1,0,0,,12,,,71,127
77989,note_on,0,0,0,,2,,,74,127
78259,note_off,270,0,0,,2,,,74,127
78259,note_off,0,0,0,,12,,,71,127
78259,note_off,0,0,0,,4,,,52,127
78260,note_on,1,0,0,,10,,,69,127
78260,note_on,0,0,0,,1,,,73,127
78260,note_on,0,0,0,,10,,,57,127
78530,note_off,270,0,0,,1,,,73,127
78530,note_off,0,0,0,,10,,,69,127
78531,note_on,1,0,0,,7,,,67,127
78531,note_on,0,0,0,,4,,,76,127
78801,note_off,270,0,0,,4,,,76,127
78801,note_off,0,0,0,,7,,,67,127
78801,note_off,0,0,0,,10,,,57,127
78802,note_on,1,0,0,,6,,,66,127
78802,note_on,0,0,0,,2,,,74,127
78802,note_on,0,0,0,,2,,,50,127
79072,note_off,270,0,0,,2,,,74,127
79072,note_off,0,0,0,,6,,,66,127
79073,note_on,1,0,0,,10,,,69,127
79073,note_on,0,0,0,,1,,,73,127
79343,note_off,270,0,0,,1,,,73,127
79343,note_off,0,0,0,,10,,,69,127
79343,note_off,0,0,0,,2,,,50,127
79344,note_on,1,0,0,,7,,,67,127
79344,note_on,0,0,0,,12,,,71,127
79344,note_on,0,0,0,,7,,,55,127
79614,note_off,270,0,0,,12,,,71,127
79614,note_off,0,0,0,,7,,,67,127
79615,note_on,1,0,0,,6,,,66,127
79615,note_on,0,0,0,,2,,,74,127
79885,note_off,270,0,0,,2,,,74,127
79885,note_off,0,0,0,,6,,,66,127
79885,note_off,0,0,0,,7,,,55,127
79886,note_on,1,0,0,,4,,,64,127
79886,note_on,0,0,0,,1,,,73,127
79886,note_on,0,0,0,,1,,,49,127
80156,note_off,270,0,0,,1,,,73,127
80156,note_off,0,0,0,,4,,,64,127
80157,note_on,1,0,0,,7,,,67,127
80157,note_on,0,0,0,,12,,,71,127
80427,note_off,270,0,0,,12,,,71,127
80427,note_off,0,0,0,,7,,,67,127
80427,note_off,0,0,0,,1,,,49,127
80428,note_on,1,0,0,,1,,,61,127
80428,note_on,0,0,0,,11,,,70,127
80428,note_on,0,0,0,,6,,,54,127
80698,note_off,270,0,0,,11,,,70,127
80699,note_on,1,0,0,,1,,,73,127
80699,note_on,0,0,0,,4,,,52,127
80969,note_off,270,0,0,,4,,,52,127
80969,note_off,0,0,0,,1,,,73,127
80969,note_off,0,0,0,,1,,,61,127
80970,note_on,1,0,0,,2,,,62,127
80970,note_on,0,0,0,,12,,,71,127
80970,note_on,0,0,0,,2,,,50,127
81240,note_off,270,0,0,,2,,,50,127
81240,note_off,0,0,0,,12,,,71,127
81240,note_off,0,0,0,,2,,,62,127
81241,note_on,1,0,0,,4,,,64,127
81241,note_on,0,0,0,,1,,,73,127
81241,note_on,0,0,0,,1,,,49,127
81511,note_off,270,0,0,,1,,,49,127
81511,note_off,0,0,0,,1,,,73,127
81511,note_off,0,0,0,,4,,,64,127
81512,note_on,1,0,0,,6,,,66,127
81512,note_on,0,0,0,,2,,,74,127
81512,note_on,0,0,0,,12,,,47,127
81782,note_off,270,0,0,,2,,,74,127
81783,note_on,1,0,0,,1,,,73,127
82053,note_off,270,0,0,,1,,,73,127
82053,note_off,0,0,0,,12,,,47,127
82053,note_off,0,0,0,,6,,,66,127
82053,note_off,0,0,0,,6,,,54,127
82054,note_on,1,0,0,,7,,,67,127
82054,note_on,0,0,0,,12,,,71,127
82054,note_on,0,0,0,,12,,,59,127
82324,note_off,270,0,0,,7,,,67,127
82325,note_on,1,0,0,,6,,,66,127
82595,note_off,270,0,0,,6,,,66,127
82595,note_off,0,0,0,,12,,,59,127
82596,note_on,1,0,0,,4,,,64,127
82596,note_on,0,0,0,,1,,,61,127
82866,note_off,270,0,0,,12,,,71,127
82867,note_on,1,0,0,,11,,,70,127
83137,note_off,270,0,0,,11,,,70,127
83137,note_off,0,0,0,,1,,,61,127
83137,note_off,0,0,0,,4,,,64,127
83138,note_on,1,0,0,,6,,,66,127
83138,note_on,0,0,0,,12,,,71,127
83138,note_on,0,0,0,,2,,,62,127
83408,note_off,270,0,0,,2,,,62,127
83408,note_off,0,0,0,,12,,,71,127
83409,note_on,1,0,0,,1,,,73,127
83409,note_on,0,0,0,,1,,,61,127
83679,note_off,270,0,0,,1,,,61,127
83679,note_off,0,0,0,,1,,,73,127
83680,note_on,1,0,0,,2,,,74,127
83680,note_on,0,0,0,,12,,,59,127
83950,note_off,270,0,0,,12,,,59,127
83950,note_off,0,0,0,,2,,,74,127
83950,note_off,0,0,0,,6,,,66,127
83951,note_on,1,0,0,,6,,,66,127
83951,note_on,0,0,0,,3,,,75,127
83951,note_on,0,0,0,,10,,,57,127
84221,note_off,270,0,0,,10,,,57,127
84221,note_off,0,0,0,,3,,,75,127
84221,note_off,0,0,0,,6,,,66,127
84222,note_on,1,0,0,,7,,,67,127
84222,note_on,0,0,0,,4,,,76,127
84222,note_on,0,0,0,,7,,,55,127
84492,note_off,270,0,0,,7,,,55,127
84492,note_off,0,0,0,,4,,,76,127
84492,note_off,0,0,0,,7,,,67,127
84493,note_on,1,0,0,,10,,,69,127
84493,note_on,0,0,0,,6,,,78,127
84493,note_on,0,0,0,,6,,,54,127
84763,note_off,270,0,0,,6,,,54,127
84763,note_off,0,0,0,,6,,,78,127
84763,note_off,0,0,0,,10,,,69,127
84764,note_on,1,0,0,,12,,,71,127
84764,note_on,0,0,0,,7,,,79,127
84764,note_on,0,0,0,,4,,,52,127
85034,note_off,270,0,0,,7,,,79,127
85035,note_on,1,0,0,,6,,,78,127
85305,note_off,270,0,0,,6,,,78,127
85305,note_off,0,0,0,,4,,,52,127
85305,note_off,0,0,0,,12,,,71,127
85306,note_on,1,0,0,,0,,,72,127
85306,note_on,0,0,0,,4,,,76,127
85306,note_on,0,0,0,,4,,,64,127
85576,note_off,270,0,0,,0,,,72,127
85577,note_on,1,0,0,,12,,,71,127
85847,note_off,270,0,0,,12,,,71,127
85847,note_off,0,0,0,,4,,,64,127
85848,note_on,1,0,0,,10,,,69,127
85848,note_on,0,0,0,,6,,,66,127
86118,note_off,270,0,0,,4,,,76,127
86119,note_on,1,0,0,,3,,,75,127
86389,note_off,270,0,0,,3,,,75,127
86389,note_off,0,0,0,,6,,,66,127
86389,note_off,0,0,0,,10,,,69,127
86390,note_on,1,0,0,,12,,,71,127
86390,note_on,0,0,0,,4,,,76,127
86390,note_on,0,0,0,,7,,,67,127
86660,note_off,270,0,0,,7,,,67,127
86660,note_off,0,0,0,,4,,,76,127
86661,note_on,1,0,0,,6,,,78,127
86661,note_on,0,0,0,,6,,,66,127
86931,note_off,270,0,0,,6,,,66,127
86931,note_off,0,0,0,,6,,,78,127
86932,note_on,1,0,0,,7,,,79,127
86932,note_on,0,0,0,,4,,,64,127
87202,note_off,270,0,0,,4,,,64,127
87202,note_off,0,0,0,,7,,,79,127
87203,note_on,1,0,0,,8,,,80,127
87203,note_on,0,0,0,,2,,,62,127
87473,note_off,270,0,0,,2,,,62,127
87473,note_off,0,0,0,,8,,,80,127
87473,note_off,0,0,0,,12,,,71,127
87474,note_on,1,0,0,,11,,,82,127
87474,note_on,0,0,0,,4,,,64,127
87474,note_on,0,0,0,,1,,,61,127
87744,note_off,270,0,0,,1,,,61,127
87744,note_off,0,0,0,,11,,,82,127
87745,note_on,1,0,0,,12,,,83,127
87745,note_on,0,0,0,,12,,,59,127
88015,note_off,270,0,0,,12,,,83,127
88029,note_off,14,0,0,,12,,,59,127
88039,note_on,10,0,0,,1,,,73,127
88039,note_on,0,0,0,,11,,,58,127
88286,note_off,247,0,0,,4,,,64,127
88309,note_off,23,0,0,,1,,,73,127
88310,note_on,1,0,0,,2,,,74,127
88310,note_on,0,0,0,,6,,,66,127
88580,note_off,270,0,0,,6,,,66,127
88580,note_off,0,0,0,,2,,,74,127
88581,note_on,1,0,0,,1,,,73,127
88581,note_on,0,0,0,,4,,,76,127
88581,note_on,0,0,0,,7,,,67,127
88851,note_off,270,0,0,,7,,,67,127
88852,note_on,1,0,0,,4,,,64,127
89122,note_off,270,0,0,,4,,,64,127
89122,note_off,0,0,0,,11,,,58,127
89123,note_on,1,0,0,,6,,,66,127
89123,note_on,0,0,0,,12,,,59,127
89393,note_off,270,0,0,,4,,,76,127
89393,note_off,0,0,0,,1,,,73,127
89394,note_on,1,0,0,,12,,,71,127
89394,note_on,0,0,0,,2,,,74,127
89664,note_off,270,0,0,,2,,,74,127
89664,note_off,0,0,0,,12,,,71,127
89664,note_off,0,0,0,,12,,,59,127
89664,note_off,0,0,0,,6,,,66,127
89665,note_on,1,0,0,,11,,,70,127
89665,note_on,0,0,0,,1,,,73,127
89665,note_on,0,0,0,,4,,,64,127
89665,note_on,0,0,0,,1,,,61,127
89935,note_off,270,0,0,,1,,,61,127
89935,note_off,0,0,0,,1,,,73,127
89935,note_off,0,0,0,,11,,,70,127
89936,note_on,1,0,0,,12,,,71,127
89936,note_on,0,0,0,,2,,,74,127
89936,note_on,0,0,0,,12,,,59,127
90206,note_off,270,0,0,,12,,,59,127
90206,note_off,0,0,0,,2,,,74,127
90206,note_off,0,0,0,,12,,,71,127
90207,note_on,1,0,0,,1,,,73,127
90207,note_on,0,0,0,,4,,,76,127
90207,note_on,0,0,0,,11,,,58,127
90477,note_off,270,0,0,,11,,,58,127
90478,note_on,1,0,0,,6,,,54,127
90748,note_off,270,0,0,,6,,,54,127
90748,note_off,0,0,0,,4,,,64,127
90749,note_on,1,0,0,,6,,,66,127
90749,note_on,0,0,0,,12,,,59,127
91019,note_off,270,0,0,,4,,,76,127
91019,note_off,0,0,0,,1,,,73,127
91020,note_on,1,0,0,,12,,,71,127
91020,note_on,0,0,0,,2,,,74,127
91290,note_off,270,0,0,,2,,,74,127
91290,note_off,0,0,0,,12,,,71,127
91290,note_off,0,0,0,,12,,,59,127
91290,note_off,0,0,0,,6,,,66,127
91291,note_on,1,0,0,,4,,,76,127
91291,note_on,0,0,0,,7,,,79,127
91291,note_on,0,0,0,,4,,,64,127
91561,note_off,270,0,0,,7,,,79,127
91561,note_off,0,0,0,,4,,,76,127
91562,note_on,1,0,0,,2,,,74,127
91562,note_on,0,0,0,,12,,,83,127
91832,note_off,270,0,0,,12,,,83,127
91832,note_off,0,0,0,,2,,,74,127
91832,note_off,0,0,0,,4,,,64,127
91833,note_on,1,0,0,,1,,,73,127
91833,note_on,0,0,0,,10,,,81,127
91833,note_on,0,0,0,,10,,,57,127
92103,note_off,270,0,0,,10,,,81,127
92103,note_off,0,0,0,,1,,,73,127
92104,note_on,1,0,0,,4,,,76,127
92104,note_on,0,0,0,,7,,,79,127
92374,note_off,270,0,0,,7,,,79,127
92374,note_off,0,0,0,,4,,,76,127
92374,note_off,0,0,0,,10,,,57,127
92375,note_on,1,0,0,,2,,,74,127
92375,note_on,0,0,0,,6,,,78,127
92375,note_on,0,0,0,,2,,,50,127
92645,note_off,270,0,0,,6,,,78,127
92645,note_off,0,0,0,,2,,,74,127
92646,note_on,1,0,0,,1,,,73,127
92646,note_on,0,0,0,,10,,,81,127
92916,note_off,270,0,0,,10,,,81,127
92916,note_off,0,0,0,,1,,,73,127
92916,note_off,0,0,0,,2,,,50,127
92917,note_on,1,0,0,,12,,,71,127
92917,note_on,0,0,0,,7,,,79,127
92917,note_on,0,0,0,,7,,,55,127
93187,note_off,270,0,0,,7,,,79,127
93188,note_on,1,0,0,,6,,,78,127
93458,note_off,270,0,0,,6,,,78,127
93458,note_off,0,0,0,,7,,,55,127
93458,note_off,0,0,0,,12,,,71,127
93459,note_on,1,0,0,,1,,,73,127
93459,note_on,0,0,0,,4,,,76,127
93459,note_on,0,0,0,,1,,,61,127
93729,note_off,270,0,0,,4,,,76,127
93729,note_off,0,0,0,,1,,,73,127
93730,note_on,1,0,0,,12,,,71,127
93730,note_on,0,0,0,,7,,,79,127
94000,note_off,270,0,0,,7,,,79,127
94000,note_off,0,0,0,,12,,,71,127
94000,note_off,0,0,0,,1,,,61,127
94001,note_on,1,0,0,,11,,,70,127
94001,note_on,0,0,0,,6,,,78,127
94001,note_on,0,0,0,,6,,,54,127
94271,note_off,270,0,0,,6,,,78,127
94271,note_off,0,0,0,,11,,,70,127
94272,note_on,1,0,0,,1,,,73,127
94272,note_on,0,0,0,,4,,,76,127
94542,note_off,270,0,0,,4,,,76,127
94542,note_off,0,0,0,,1,,,73,127
94542,note_off,0,0,0,,6,,,54,127
94543,note_on,1,0,0,,12,,,71,127
94543,note_on,0,0,0,,2,,,74,127
94543,note_on,0,0,0,,12,,,59,127
94813,note_off,270,0,0,,12,,,71,127
94814,note_on,1,0,0,,6,,,66,127
95084,note_off,270,0,0,,6,,,66,127
95085,note_on,1,0,0,,7,,,67,127
95355,note_off,270,0,0,,7,,,67,127
95355,note_off,0,0,0,,12,,,59,127
95355,note_off,0,0,0,,2,,,74,127
95356,note_on,1,0,0,,6,,,66,127
95356,note_on,0,0,0,,1,,,73,127
95356,note_on,0,0,0,,10,,,57,127
95626,note_off,270,0,0,,10,,,57,127
95626,note_off,0,0,0,,1,,,73,127
95627,note_on,1,0,0,,12,,,71,127
95627,note_on,0,0,0,,7,,,55,127
95897,note_off,270,0,0,,6,,,66,127
95898,note_on,1,0,0,,4,,,64,127
96168,note_off,270,0,0,,4,,,64,127
96168,note_off,0,0,0,,7,,,55,127
96169,note_on,1,0,0,,6,,,66,127
96169,note_on,0,0,0,,2,,,62,127
96169,note_on,0,0,0,,6,,,54,127
96439,note_off,270,0,0,,2,,,62,127
96440,note_on,1,0,0,,12,,,59,127
96710,note_off,270,0,0,,12,,,59,127
96710,note_off,0,0,0,,12,,,71,127
96711,note_on,1,0,0,,11,,,70,127
96711,note_on,0,0,0,,1,,,61,127
96981,note_off,270,0,0,,1,,,61,127
96981,note_off,0,0,0,,11,,,70,127
96982,note_on,1,0,0,,12,,,71,127
96982,note_on,0,0,0,,2,,,62,127
97252,note_off,270,0,0,,2,,,62,127
97252,note_off,0,0,0,,12,,,71,127
97253,note_on,1,0,0,,1,,,73,127
97253,note_on,0,0,0,,4,,,64,127
97523,note_off,270,0,0,,4,,,64,127
97523,note_off,0,0,0,,1,,,73,127
97523,note_off,0,0,0,,6,,,66,127
97524,note_on,1,0,0,,2,,,74,127
97524,note_on,0,0,0,,6,,,66,127
97794,note_off,270,0,0,,6,,,66,127
97794,note_off,0,0,0,,2,,,74,127
97795,note_on,1,0,0,,1,,,73,127
97795,note_on,0,0,0,,4,,,76,127
97795,note_on,0,0,0,,7,,,67,127
98065,note_off,270,0,0,,7,,,67,127
98066,note_on,1,0,0,,4,,,64,127
98336,note_off,270,0,0,,4,,,64,127
98336,note_off,0,0,0,,4,,,76,127
98336,note_off,0,0,0,,1,,,73,127
98337,note_on,1,0,0,,12,,,71,127
98337,note_on,0,0,0,,2,,,74,127
98337,note_on,0,0,0,,6,,,66,127
98607,note_off,270,0,0,,6,,,66,127
98608,note_on,1,0,0,,2,,,62,127
98878,note_off,270,0,0,,2,,,62,127
98878,note_off,0,0,0,,2,,,74,127
98878,note_off,0,0,0,,12,,,71,127
98879,note_on,1,0,0,,11,,,70,127
98879,note_on,0,0,0,,1,,,73,127
98879,note_on,0,0,0,,4,,,64,127
99149,note_off,270,0,0,,4,,,64,127
99150,note_on,1,0,0,,1,,,61,127
99415,note_off,265,0,0,,11,,,70,127
99415,note_off,0,0,0,,6,,,54,127
99419,note_off,4,0,0,,1,,,61,127
99419,note_off,0,0,0,,1,,,73,127
99420,note_on,1,0,0,,6,,,54,127
99420,note_on,0,0,0,,6,,,78,127
99420,note_on,0,0,0,,2,,,62,127
99691,note_on,271,0,0,,6,,,66,127
99961,note_off,270,0,0,,6,,,66,127
99961,note_off,0,0,0,,2,,,62,127
99961,note_off,0,0,0,,6,,,78,127
99962,note_on,1,0,0,,8,,,68,127
99962,note_on,0,0,0,,4,,,76,127
99962,note_on,0,0,0,,1,,,61,127
100232,note_off,270,0,0,,8,,,68,127
100233,note_on,1,0,0,,11,,,70,127
100503,note_off,270,0,0,,11,,,70,127
100503,note_off,0,0,0,,1,,,61,127
100504,note_on,1,0,0,,12,,,71,127
100504,note_on,0,0,0,,12,,,59,127
100774,note_off,270,0,0,,4,,,76,127
100775,note_on,1,0,0,,2,,,74,127
101040,note_off,265,0,0,,12,,,59,127
101044,note_off,4,0,0,,2,,,74,127
101044,note_off,0,0,0,,12,,,71,127
101045,note_on,1,0,0,,11,,,70,127
101045,note_on,0,0,0,,1,,,73,127
101316,note_on,271,0,0,,6,,,66,127
101586,note_off,270,0,0,,6,,,66,127
101587,note_on,1,0,0,,7,,,67,127
101857,note_off,270,0,0,,1,,,73,127
101857,note_off,0,0,0,,11,,,70,127
101858,note_on,1,0,0,,12,,,71,127
101858,note_on,0,0,0,,2,,,74,127
102128,note_off,270,0,0,,2,,,74,127
102128,note_off,0,0,0,,12,,,71,127
102129,note_on,1,0,0,,11,,,70,127
102129,note_on,0,0,0,,1,,,73,127
102399,note_off,270,0,0,,7,,,67,127
102400,note_on,1,0,0,,6,,,66,127
102665,note_off,265,0,0,,6,,,54,127
102669,note_off,4,0,0,,6,,,66,127
102670,note_on,1,0,0,,4,,,64,127
102940,note_off,270,0,0,,1,,,73,127
102940,note_off,0,0,0,,11,,,70,127
102941,note_on,1,0,0,,12,,,71,127
102941,note_on,0,0,0,,2,,,74,127
103211,note_off,270,0,0,,2,,,74,127
103211,note_off,0,0,0,,12,,,71,127
103212,note_on,1,0,0,,11,,,70,127
103212,note_on,0,0,0,,1,,,73,127
103482,note_off,270,0,0,,4,,,64,127
103483,note_on,1,0,0,,2,,,62,127
103753,note_off,270,0,0,,2,,,62,127
103754,note_on,1,0,0,,1,,,61,127
104024,note_off,270,0,0,,1,,,73,127
104024,note_off,0,0,0,,11,,,70,127
104025,note_on,1,0,0,,12,,,71,127
104025,note_on,0,0,0,,2,,,74,127
104295,note_off,270,0,0,,2,,,74,127
104295,note_off,0,0,0,,12,,,71,127
104296,note_on,1,0,0,,1,,,73,127
104296,note_on,0,0,0,,4,,,76,127
104566,note_off,270,0,0,,1,,,61,127
104567,note_on,1,0,0,,12,,,59,127
104837,note_off,270,0,0,,12,,,59,127
104838,note_on,1,0,0,,11,,,58,127
105108,note_off,270,0,0,,11,,,58,127
105108,note_off,0,0,0,,4,,,76,127
105108,note_off,0,0,0,,1,,,73,127
105109,note_on,1,0,0,,12,,,71,127
105109,note_on,0,0,0,,4,,,76,127
105109,note_on,0,0,0,,8,,,56,127
105379,note_off,270,0,0,,8,,,56,127
105379,note_off,0,0,0,,4,,,76,127
105379,note_off,0,0,0,,12,,,71,127
105380,note_on,1,0,0,,11,,,70,127
105380,note_on,0,0,0,,6,,,78,127
105380,note_on,0,0,0,,6,,,54,127
105650,note_off,270,0,0,,6,,,54,127
105650,note_off,0,0,0,,11,,,70,127
105651,note_on,1,0,0,,7,,,67,127
105651,note_on,0,0,0,,4,,,52,127
105921,note_off,270,0,0,,4,,,52,127
105921,note_off,0,0,0,,7,,,67,127
105922,note_on,1,0,0,,6,,,66,127
105922,note_on,0,0,0,,2,,,50,127
106192,note_off,270,0,0,,2,,,50,127
106192,note_off,0,0,0,,6,,,78,127
106193,note_on,1,0,0,,4,,,76,127
106193,note_on,0,0,0,,1,,,49,127
106463,note_off,270,0,0,,1,,,49,127
106463,note_off,0,0,0,,4,,,76,127
106464,note_on,1,0,0,,2,,,74,127
106464,note_on,0,0,0,,12,,,47,127
106464,note_on,0,0,0,,12,,,59,127
106734,note_off,270,0,0,,12,,,59,127
106734,note_off,0,0,0,,2,,,74,127
106735,note_on,1,0,0,,1,,,73,127
106735,note_on,0,0,0,,10,,,57,127
107005,note_off,270,0,0,,10,,,57,127
107005,note_off,0,0,0,,1,,,73,127
107006,note_on,1,0,0,,12,,,71,127
107006,note_on,0,0,0,,7,,,55,127
107276,note_off,270,0,0,,7,,,55,127
107276,note_off,0,0,0,,12,,,71,127
107276,note_off,0,0,0,,12,,,47,127
107277,note_on,1,0,0,,2,,,74,127
107277,note_on,0,0,0,,6,,,54,127
107547,note_off,270,0,0,,6,,,54,127
107547,note_off,0,0,0,,2,,,74,127
107547,note_off,0,0,0,,6,,,66,127
107548,note_on,1,0,0,,7,,,67,127
107548,note_on,0,0,0,,1,,,73,127
107548,note_on,0,0,0,,4,,,52,127
107818,note_off,270,0,0,,1,,,73,127
107819,note_on,1,0,0,,12,,,71,127
107819,note_on,0,0,0,,4,,,64,127
108089,note_off,270,0,0,,4,,,64,127
108089,note_off,0,0,0,,4,,,52,127
108089,note_off,0,0,0,,7,,,67,127
108090,note_on,1,0,0,,6,,,66,127
108090,note_on,0,0,0,,2,,,62,127
108090,note_on,0,0,0,,6,,,54,127
108360,note_off,270,0,0,,12,,,71,127
108361,note_on,1,0,0,,1,,,73,127
108631,note_off,270,0,0,,2,,,62,127
108631,note_off,0,0,0,,6,,,66,127
108632,note_on,1,0,0,,4,,,64,127
108632,note_on,0,0,0,,1,,,61,127
108902,note_off,270,0,0,,1,,,73,127
108903,note_on,1,0,0,,11,,,70,127
109173,note_off,270,0,0,,11,,,70,127
109173,note_off,0,0,0,,6,,,54,127
109179,note_on,6,0,0,,12,,,47,127
109179,note_on,0,0,0,,12,,,71,127
109444,note_off,265,0,0,,1,,,61,127
109444,note_off,0,0,0,,4,,,64,127
109455,note_on,11,0,0,,4,,,64,127
109455,note_on,0,0,0,,7,,,67,127
109726,note_off,271,0,0,,7,,,67,127
109726,note_off,0,0,0,,4,,,64,127
109732,note_on,6,0,0,,2,,,62,127
109732,note_on,0,0,0,,6,,,66,127
110003,note_off,271,0,0,,6,,,66,127
110003,note_off,0,0,0,,2,,,62,127
110007,note_on,4,0,0,,1,,,61,127
110007,note_on,0,0,0,,4,,,64,127
110278,note_off,271,0,0,,4,,,64,127
110278,note_off,0,0,0,,1,,,61,127
110284,note_on,6,0,0,,12,,,59,127
110284,note_on,0,0,0,,2,,,62,127
110555,note_off,271,0,0,,2,,,62,127
110555,note_off,0,0,0,,12,,,59,127
110561,note_on,6,0,0,,11,,,58,127
110561,note_on,0,0,0,,1,,,61,127
110819,note_off,258,0,0,,12,,,71,127
110832,note_off,13,0,0,,1,,,61,127
110832,note_off,0,0,0,,11,,,58,127
110842,note_on,10,0,0,,12,,,59,127
110842,note_on,0,0,0,,2,,,62,127
111117,note_off,275,0,0,,2,,,62,127
111124,note_on,7,0,0,,4,,,64,127
111124,note_on,0,0,0,,7,,,55,127
111399,note_off,275,0,0,,7,,,55,127
111399,note_off,0,0,0,,4,,,64,127
111406,note_on,7,0,0,,2,,,62,127
111406,note_on,0,0,0,,6,,,54,127
111681,note_off,275,0,0,,6,,,54,127
111681,note_off,0,0,0,,2,,,62,127
111687,note_on,6,0,0,,1,,,61,127
111687,note_on,0,0,0,,4,,,52,127
111955,note_off,268,0,0,,12,,,59,127
111962,note_off,7,0,0,,4,,,52,127
111962,note_off,0,0,0,,1,,,61,127
111969,note_on,7,0,0,,12,,,59,127
111969,note_on,0,0,0,,2,,,50,127
112244,note_off,275,0,0,,2,,,50,127
112244,note_off,0,0,0,,12,,,59,127
112251,note_on,7,0,0,,11,,,58,127
112251,note_on,0,0,0,,1,,,49,127
112526,note_off,275,0,0,,1,,,49,127
112526,note_off,0,0,0,,11,,,58,127
112532,note_on,6,0,0,,6,,,54,127
112532,note_on,0,0,0,,12,,,59,127
112532,note_on,0,0,0,,2,,,50,127
115038,note_off,2506,0,0,,12,,,47,127
115150,note_off,112,0,0,,2,,,50,127
115150,note_off,0,0,0,,12,,,59,127
115150,note_off,0,0,0,,6,,,54,127
119808,end_of_track,4658,1,0,,,,,,
