tick,type,time,meta,track,program,channel,pitch,tempo,note,velocity
0,copyright,0,1,0,,,,,,
0,program_change,0,0,0,6,0,,,,
0,pitchwheel,0,0,0,,0,0,,,
0,program_change,0,0,0,6,1,,,,
0,pitchwheel,0,0,0,,1,0,,,
0,program_change,0,0,0,6,2,,,,
0,pitchwheel,0,0,0,,2,0,,,
0,program_change,0,0,0,6,3,,,,
0,pitchwheel,0,0,0,,3,0,,,
0,program_change,0,0,0,6,4,,,,
0,pitchwheel,0,0,0,,4,0,,,
0,program_change,0,0,0,6,5,,,,
0,pitchwheel,0,0,0,,5,0,,,
0,program_change,0,0,0,6,6,,,,
0,pitchwheel,0,0,0,,6,0,,,
0,program_change,0,0,0,6,7,,,,
0,pitchwheel,0,0,0,,7,0,,,
0,program_change,0,0,0,6,8,,,,
0,pitchwheel,0,0,0,,8,0,,,
0,set_tempo,0,1,0,,,,500000,,
96,note_on,96,0,0,,0,,,43,95
96,note_on,0,0,0,,0,,,67,95
96,note_on,0,0,0,,0,,,70,95
96,note_on,0,0,0,,0,,,74,95
96,note_on,0,0,0,,1,,,79,127
514,note_off,418,0,0,,1,,,79,127
515,note_on,1,0,0,,1,,,67,127
723,note_off,208,0,0,,1,,,67,127
724,note_on,1,0,0,,1,,,69,127
932,note_off,208,0,0,,1,,,69,127
932,note_off,0,0,0,,0,,,74,95
932,note_off,0,0,0,,0,,,70,95
932,note_off,0,0,0,,0,,,67,95
932,note_off,0,0,0,,0,,,43,95
933,note_on,1,0,0,,1,,,70,127
1351,note_off,418,0,0,,1,,,70,127
1352,note_on,1,0,0,,1,,,72,127
1770,note_off,418,0,0,,1,,,72,127
1771,note_on,1,0,0,,0,,,55,95
1771,note_on,0,0,0,,0,,,62,95
1771,note_on,0,0,0,,0,,,70,95
1771,note_on,0,0,0,,1,,,67,127
1876,note_on,105,0,0,,1,,,70,127
1981,note_on,105,0,0,,1,,,74,127
2050,note_off,69,0,0,,1,,,67,127
2155,note_off,105,0,0,,1,,,70,127
2190,note_off,35,0,0,,0,,,70,95
2190,note_off,0,0,0,,0,,,55,95
2191,note_on,1,0,0,,0,,,53,95
2191,note_on,0,0,0,,0,,,69,95
2399,note_off,208,0,0,,0,,,69,95
2399,note_off,0,0,0,,0,,,53,95
2400,note_on,1,0,0,,0,,,51,95
2400,note_on,0,0,0,,0,,,67,95
2608,note_off,208,0,0,,0,,,67,95
2608,note_off,0,0,0,,0,,,51,95
2608,note_off,0,0,0,,0,,,62,95
2609,note_on,1,0,0,,0,,,53,95
2609,note_on,0,0,0,,0,,,62,95
2609,note_on,0,0,0,,0,,,69,95
3027,note_off,418,0,0,,0,,,53,95
3028,note_on,1,0,0,,0,,,50,95
3044,note_off,16,0,0,,1,,,74,127
3445,note_off,401,0,0,,0,,,50,95
3445,note_off,0,0,0,,0,,,69,95
3445,note_off,0,0,0,,0,,,62,95
3446,note_on,1,0,0,,0,,,51,95
3446,note_on,0,0,0,,0,,,60,95
3446,note_on,0,0,0,,0,,,67,95
3446,note_on,0,0,0,,1,,,79,127
3864,note_off,418,0,0,,1,,,79,127
3865,note_on,1,0,0,,1,,,67,127
4073,note_off,208,0,0,,1,,,67,127
4074,note_on,1,0,0,,1,,,69,127
4282,note_off,208,0,0,,1,,,69,127
4282,note_off,0,0,0,,0,,,67,95
4282,note_off,0,0,0,,0,,,60,95
4282,note_off,0,0,0,,0,,,51,95
4283,note_on,1,0,0,,1,,,70,127
4701,note_off,418,0,0,,1,,,70,127
4702,note_on,1,0,0,,1,,,72,127
5120,note_off,418,0,0,,1,,,72,127
5121,note_on,1,0,0,,0,,,50,95
5121,note_on,0,0,0,,0,,,66,95
5121,note_on,0,0,0,,1,,,66,127
5226,note_on,105,0,0,,1,,,69,127
5331,note_on,105,0,0,,1,,,74,127
5400,note_off,69,0,0,,1,,,66,127
5505,note_off,105,0,0,,1,,,69,127
5540,note_off,35,0,0,,0,,,50,95
5541,note_on,1,0,0,,0,,,48,95
5541,note_on,0,0,0,,0,,,62,95
5749,note_off,208,0,0,,0,,,62,95
5749,note_off,0,0,0,,0,,,48,95
5750,note_on,1,0,0,,0,,,46,95
5750,note_on,0,0,0,,0,,,64,95
5958,note_off,208,0,0,,0,,,64,95
5958,note_off,0,0,0,,0,,,46,95
5958,note_off,0,0,0,,0,,,66,95
5959,note_on,1,0,0,,0,,,48,95
5959,note_on,0,0,0,,0,,,66,95
6377,note_off,418,0,0,,0,,,48,95
6378,note_on,1,0,0,,0,,,45,95
6394,note_off,16,0,0,,1,,,74,127
6795,note_off,401,0,0,,0,,,45,95
6795,note_off,0,0,0,,0,,,66,95
6796,note_on,1,0,0,,0,,,46,95
6796,note_on,0,0,0,,0,,,67,95
6796,note_on,0,0,0,,0,,,74,95
6796,note_on,0,0,0,,1,,,79,127
7214,note_off,418,0,0,,1,,,79,127
7215,note_on,1,0,0,,1,,,67,127
7423,note_off,208,0,0,,1,,,67,127
7424,note_on,1,0,0,,1,,,69,127
7632,note_off,208,0,0,,1,,,69,127
7632,note_off,0,0,0,,0,,,74,95
7632,note_off,0,0,0,,0,,,67,95
7632,note_off,0,0,0,,0,,,46,95
7633,note_on,1,0,0,,1,,,70,127
8051,note_off,418,0,0,,1,,,70,127
8052,note_on,1,0,0,,1,,,72,127
8470,note_off,418,0,0,,1,,,72,127
8471,note_on,1,0,0,,0,,,58,95
8471,note_on,0,0,0,,0,,,67,95
8471,note_on,0,0,0,,1,,,74,127
8889,note_off,418,0,0,,0,,,67,95
8889,note_off,0,0,0,,0,,,58,95
8890,note_on,1,0,0,,0,,,57,95
8890,note_on,0,0,0,,0,,,69,95
9098,note_off,208,0,0,,0,,,69,95
9098,note_off,0,0,0,,0,,,57,95
9099,note_on,1,0,0,,0,,,55,95
9099,note_on,0,0,0,,0,,,70,95
9307,note_off,208,0,0,,0,,,70,95
9307,note_off,0,0,0,,0,,,55,95
9307,note_off,0,0,0,,1,,,74,127
9308,note_on,1,0,0,,0,,,57,95
9308,note_on,0,0,0,,0,,,69,95
9308,note_on,0,0,0,,0,,,62,95
9308,note_on,0,0,0,,0,,,66,95
9308,note_on,0,0,0,,1,,,72,127
9726,note_off,418,0,0,,0,,,57,95
9727,note_on,1,0,0,,0,,,54,95
10145,note_off,418,0,0,,0,,,54,95
10145,note_off,0,0,0,,1,,,72,127
10145,note_off,0,0,0,,0,,,66,95
10145,note_off,0,0,0,,0,,,62,95
10145,note_off,0,0,0,,0,,,69,95
10146,note_on,1,0,0,,0,,,55,95
10146,note_on,0,0,0,,0,,,62,95
10146,note_on,0,0,0,,0,,,67,95
10146,note_on,0,0,0,,1,,,70,127
10564,note_off,418,0,0,,1,,,70,127
10564,note_off,0,0,0,,0,,,55,95
10565,note_on,1,0,0,,0,,,46,95
10565,note_on,0,0,0,,1,,,69,127
10773,note_off,208,0,0,,1,,,69,127
10774,note_on,1,0,0,,1,,,67,127
10982,note_off,208,0,0,,1,,,67,127
10982,note_off,0,0,0,,0,,,46,95
10982,note_off,0,0,0,,0,,,62,95
10983,note_on,1,0,0,,0,,,48,95
10983,note_on,0,0,0,,0,,,63,95
10983,note_on,0,0,0,,1,,,69,127
11401,note_off,418,0,0,,1,,,69,127
11401,note_off,0,0,0,,0,,,63,95
11401,note_off,0,0,0,,0,,,48,95
11401,note_off,0,0,0,,0,,,67,95
11402,note_on,1,0,0,,0,,,50,95
11402,note_on,0,0,0,,0,,,72,95
11402,note_on,0,0,0,,1,,,69,127
11402,note_on,0,0,0,,1,,,78,127
11820,note_off,418,0,0,,1,,,78,127
11820,note_off,0,0,0,,1,,,69,127
11820,note_off,0,0,0,,0,,,72,95
11820,note_off,0,0,0,,0,,,50,95
11821,note_on,1,0,0,,0,,,43,95
11821,note_on,0,0,0,,0,,,70,95
11821,note_on,0,0,0,,0,,,62,95
11821,note_on,0,0,0,,0,,,67,95
11821,note_on,0,0,0,,1,,,70,127
11926,note_on,105,0,0,,1,,,74,127
12031,note_on,105,0,0,,1,,,79,127
12100,note_off,69,0,0,,1,,,70,127
12205,note_off,105,0,0,,1,,,74,127
12240,note_off,35,0,0,,0,,,43,95
12241,note_on,1,0,0,,0,,,55,95
12449,note_off,208,0,0,,0,,,55,95
12450,note_on,1,0,0,,0,,,57,95
12658,note_off,208,0,0,,0,,,57,95
12658,note_off,0,0,0,,0,,,67,95
12658,note_off,0,0,0,,0,,,62,95
12658,note_off,0,0,0,,0,,,70,95
12659,note_on,1,0,0,,0,,,58,95
12867,note_off,208,0,0,,1,,,79,127
13076,note_off,209,0,0,,0,,,58,95
13077,note_on,1,0,0,,0,,,57,95
13495,note_off,418,0,0,,0,,,57,95
13496,note_on,1,0,0,,0,,,55,95
13496,note_on,0,0,0,,0,,,67,95
13496,note_on,0,0,0,,0,,,74,95
13496,note_on,0,0,0,,0,,,70,95
13496,note_on,0,0,0,,1,,,82,127
13914,note_off,418,0,0,,1,,,82,127
13915,note_on,1,0,0,,1,,,79,127
14123,note_off,208,0,0,,1,,,79,127
14124,note_on,1,0,0,,1,,,77,127
14332,note_off,208,0,0,,1,,,77,127
14332,note_off,0,0,0,,0,,,70,95
14332,note_off,0,0,0,,0,,,74,95
14332,note_off,0,0,0,,0,,,67,95
14332,note_off,0,0,0,,0,,,55,95
14333,note_on,1,0,0,,1,,,75,127
14751,note_off,418,0,0,,1,,,75,127
14752,note_on,1,0,0,,1,,,74,127
15170,note_off,418,0,0,,1,,,74,127
15171,note_on,1,0,0,,0,,,55,95
15171,note_on,0,0,0,,0,,,64,95
15171,note_on,0,0,0,,1,,,73,127
15589,note_off,418,0,0,,1,,,73,127
15589,note_off,0,0,0,,0,,,64,95
15589,note_off,0,0,0,,0,,,55,95
15590,note_on,1,0,0,,0,,,53,95
15590,note_on,0,0,0,,0,,,62,95
15590,note_on,0,0,0,,0,,,69,95
15590,note_on,0,0,0,,1,,,81,127
15798,note_off,208,0,0,,0,,,53,95
15799,note_on,1,0,0,,0,,,52,95
16007,note_off,208,0,0,,0,,,52,95
16007,note_off,0,0,0,,0,,,69,95
16008,note_on,1,0,0,,0,,,53,95
16008,note_on,0,0,0,,0,,,74,95
16216,note_off,208,0,0,,1,,,81,127
16425,note_off,209,0,0,,0,,,53,95
16425,note_off,0,0,0,,0,,,62,95
16426,note_on,1,0,0,,0,,,50,95
16844,note_off,418,0,0,,0,,,50,95
16844,note_off,0,0,0,,0,,,74,95
16845,note_on,1,0,0,,0,,,53,95
16845,note_on,0,0,0,,0,,,65,95
16845,note_on,0,0,0,,0,,,69,95
16845,note_on,0,0,0,,0,,,74,95
16845,note_on,0,0,0,,1,,,81,127
17263,note_off,418,0,0,,1,,,81,127
17264,note_on,1,0,0,,1,,,77,127
17472,note_off,208,0,0,,1,,,77,127
17473,note_on,1,0,0,,1,,,76,127
17681,note_off,208,0,0,,1,,,76,127
17681,note_off,0,0,0,,0,,,74,95
17681,note_off,0,0,0,,0,,,69,95
17681,note_off,0,0,0,,0,,,65,95
17681,note_off,0,0,0,,0,,,53,95
17682,note_on,1,0,0,,1,,,74,127
18100,note_off,418,0,0,,1,,,74,127
18101,note_on,1,0,0,,1,,,72,127
18519,note_off,418,0,0,,1,,,72,127
18520,note_on,1,0,0,,0,,,53,95
18520,note_on,0,0,0,,0,,,67,95
18520,note_on,0,0,0,,0,,,74,95
18520,note_on,0,0,0,,1,,,71,127
18938,note_off,418,0,0,,1,,,71,127
18938,note_off,0,0,0,,0,,,74,95
18938,note_off,0,0,0,,0,,,53,95
18939,note_on,1,0,0,,0,,,51,95
18939,note_on,0,0,0,,0,,,71,95
18939,note_on,0,0,0,,1,,,79,127
19147,note_off,208,0,0,,0,,,51,95
19148,note_on,1,0,0,,0,,,50,95
19356,note_off,208,0,0,,0,,,50,95
19356,note_off,0,0,0,,0,,,71,95
19357,note_on,1,0,0,,0,,,51,95
19357,note_on,0,0,0,,0,,,72,95
19565,note_off,208,0,0,,1,,,79,127
19774,note_off,209,0,0,,0,,,51,95
19775,note_on,1,0,0,,0,,,48,95
20193,note_off,418,0,0,,0,,,48,95
20193,note_off,0,0,0,,0,,,72,95
20193,note_off,0,0,0,,0,,,67,95
20194,note_on,1,0,0,,0,,,51,95
20194,note_on,0,0,0,,0,,,72,95
20194,note_on,0,0,0,,0,,,67,95
20194,note_on,0,0,0,,1,,,79,127
20612,note_off,418,0,0,,1,,,79,127
20613,note_on,1,0,0,,1,,,75,127
20821,note_off,208,0,0,,1,,,75,127
20822,note_on,1,0,0,,1,,,74,127
21030,note_off,208,0,0,,1,,,74,127
21030,note_off,0,0,0,,0,,,67,95
21030,note_off,0,0,0,,0,,,72,95
21030,note_off,0,0,0,,0,,,51,95
21031,note_on,1,0,0,,1,,,72,127
21449,note_off,418,0,0,,1,,,72,127
21450,note_on,1,0,0,,1,,,70,127
21868,note_off,418,0,0,,1,,,70,127
21869,note_on,1,0,0,,0,,,51,95
21869,note_on,0,0,0,,0,,,72,95
21869,note_on,0,0,0,,0,,,65,95
21869,note_on,0,0,0,,1,,,69,127
22287,note_off,418,0,0,,1,,,69,127
22287,note_off,0,0,0,,0,,,72,95
22287,note_off,0,0,0,,0,,,51,95
22288,note_on,1,0,0,,0,,,50,95
22288,note_on,0,0,0,,0,,,69,95
22288,note_on,0,0,0,,1,,,77,127
22496,note_off,208,0,0,,0,,,50,95
22497,note_on,1,0,0,,0,,,48,95
22705,note_off,208,0,0,,0,,,48,95
22705,note_off,0,0,0,,0,,,69,95
22706,note_on,1,0,0,,0,,,50,95
22706,note_on,0,0,0,,0,,,70,95
22914,note_off,208,0,0,,1,,,77,127
23123,note_off,209,0,0,,0,,,50,95
23124,note_on,1,0,0,,0,,,46,95
23124,note_on,0,0,0,,1,,,77,127
23542,note_off,418,0,0,,1,,,77,127
23542,note_off,0,0,0,,0,,,46,95
23542,note_off,0,0,0,,0,,,65,95
23543,note_on,1,0,0,,0,,,43,95
23543,note_on,0,0,0,,0,,,72,95
23543,note_on,0,0,0,,1,,,79,127
23647,note_off,104,0,0,,1,,,79,127
23648,note_on,1,0,0,,1,,,77,127
23752,note_off,104,0,0,,1,,,77,127
23753,note_on,1,0,0,,1,,,79,127
23857,note_off,104,0,0,,1,,,79,127
23858,note_on,1,0,0,,1,,,77,127
23962,note_off,104,0,0,,1,,,77,127
23963,note_on,1,0,0,,1,,,76,127
24171,note_off,208,0,0,,1,,,76,127
24172,note_on,1,0,0,,1,,,77,127
24380,note_off,208,0,0,,1,,,77,127
24380,note_off,0,0,0,,0,,,72,95
24380,note_off,0,0,0,,0,,,43,95
24380,note_off,0,0,0,,0,,,70,95
24381,note_on,1,0,0,,1,,,79,127
24799,note_off,418,0,0,,1,,,79,127
24800,note_on,1,0,0,,0,,,48,95
24800,note_on,0,0,0,,0,,,64,95
24800,note_on,0,0,0,,1,,,70,127
25218,note_off,418,0,0,,1,,,70,127
25218,note_off,0,0,0,,0,,,64,95
25218,note_off,0,0,0,,0,,,48,95
25219,note_on,1,0,0,,0,,,41,95
25219,note_on,0,0,0,,0,,,65,95
25219,note_on,0,0,0,,0,,,60,95
25219,note_on,0,0,0,,1,,,72,127
25427,note_off,208,0,0,,1,,,72,127
25428,note_on,1,0,0,,1,,,70,127
25636,note_off,208,0,0,,1,,,70,127
25637,note_on,1,0,0,,1,,,69,127
25845,note_off,208,0,0,,1,,,69,127
25846,note_on,1,0,0,,1,,,70,127
26054,note_off,208,0,0,,1,,,70,127
26054,note_off,0,0,0,,0,,,60,95
26054,note_off,0,0,0,,0,,,65,95
26054,note_off,0,0,0,,0,,,41,95
26055,note_on,1,0,0,,1,,,72,127
26263,note_off,208,0,0,,1,,,72,127
26264,note_on,1,0,0,,1,,,74,127
26472,note_off,208,0,0,,1,,,74,127
26473,note_on,1,0,0,,0,,,53,95
26473,note_on,0,0,0,,0,,,60,95
26473,note_on,0,0,0,,0,,,69,95
26473,note_on,0,0,0,,1,,,75,127
26681,note_off,208,0,0,,1,,,75,127
26682,note_on,1,0,0,,1,,,72,127
26890,note_off,208,0,0,,1,,,72,127
26890,note_off,0,0,0,,0,,,69,95
26890,note_off,0,0,0,,0,,,60,95
26890,note_off,0,0,0,,0,,,53,95
26891,note_on,1,0,0,,0,,,58,95
26891,note_on,0,0,0,,0,,,65,95
26891,note_on,0,0,0,,1,,,74,127
27099,note_off,208,0,0,,1,,,74,127
27100,note_on,1,0,0,,1,,,82,127
27308,note_off,208,0,0,,1,,,82,127
27308,note_off,0,0,0,,0,,,58,95
27309,note_on,1,0,0,,0,,,50,95
27309,note_on,0,0,0,,0,,,70,95
27309,note_on,0,0,0,,1,,,70,127
27517,note_off,208,0,0,,1,,,70,127
27517,note_off,0,0,0,,0,,,50,95
27517,note_off,0,0,0,,0,,,65,95
27518,note_on,1,0,0,,0,,,51,95
27518,note_on,0,0,0,,0,,,67,95
27518,note_on,0,0,0,,1,,,72,127
27726,note_off,208,0,0,,1,,,72,127
27726,note_off,0,0,0,,0,,,67,95
27726,note_off,0,0,0,,0,,,51,95
27726,note_off,0,0,0,,0,,,70,95
27727,note_on,1,0,0,,0,,,53,95
27727,note_on,0,0,0,,0,,,69,95
27727,note_on,0,0,0,,0,,,65,95
27727,note_on,0,0,0,,1,,,74,127
27813,note_off,86,0,0,,1,,,74,127
27814,note_on,1,0,0,,1,,,72,127
27900,note_off,86,0,0,,1,,,72,127
27901,note_on,1,0,0,,1,,,74,127
27987,note_off,86,0,0,,1,,,74,127
27988,note_on,1,0,0,,1,,,72,127
28144,note_off,156,0,0,,0,,,65,95
28144,note_off,0,0,0,,0,,,69,95
28144,note_off,0,0,0,,0,,,53,95
28156,note_on,12,0,0,,0,,,41,95
28313,note_off,157,0,0,,1,,,72,127
28606,note_off,293,0,0,,0,,,41,95
28612,note_on,6,0,0,,1,,,82,127
28612,note_on,0,0,0,,0,,,74,95
28612,note_on,0,0,0,,0,,,70,95
28612,note_on,0,0,0,,0,,,65,95
28612,note_on,0,0,0,,0,,,46,95
29030,note_off,418,0,0,,1,,,82,127
29031,note_on,1,0,0,,1,,,70,127
29239,note_off,208,0,0,,1,,,70,127
29240,note_on,1,0,0,,1,,,72,127
29448,note_off,208,0,0,,1,,,72,127
29448,note_off,0,0,0,,0,,,46,95
29448,note_off,0,0,0,,0,,,65,95
29448,note_off,0,0,0,,0,,,70,95
29448,note_off,0,0,0,,0,,,74,95
29449,note_on,1,0,0,,1,,,74,127
29867,note_off,418,0,0,,1,,,74,127
29868,note_on,1,0,0,,1,,,75,127
30286,note_off,418,0,0,,1,,,75,127
30287,note_on,1,0,0,,1,,,77,127
30287,note_on,0,0,0,,0,,,74,95
30287,note_on,0,0,0,,0,,,65,95
30287,note_on,0,0,0,,0,,,58,95
30705,note_off,418,0,0,,0,,,58,95
30706,note_on,1,0,0,,0,,,70,95
30706,note_on,0,0,0,,0,,,57,95
30914,note_off,208,0,0,,0,,,57,95
30915,note_on,1,0,0,,0,,,55,95
31123,note_off,208,0,0,,0,,,55,95
31123,note_off,0,0,0,,0,,,70,95
31123,note_off,0,0,0,,0,,,65,95
31123,note_off,0,0,0,,0,,,74,95
31123,note_off,0,0,0,,1,,,77,127
31124,note_on,1,0,0,,0,,,72,95
31124,note_on,0,0,0,,0,,,57,95
31542,note_off,418,0,0,,0,,,57,95
31543,note_on,1,0,0,,0,,,69,95
31543,note_on,0,0,0,,0,,,53,95
31961,note_off,418,0,0,,0,,,53,95
31961,note_off,0,0,0,,0,,,69,95
31961,note_off,0,0,0,,0,,,72,95
31962,note_on,1,0,0,,1,,,82,127
31962,note_on,0,0,0,,0,,,63,95
31962,note_on,0,0,0,,0,,,70,95
31962,note_on,0,0,0,,0,,,55,95
32380,note_off,418,0,0,,1,,,82,127
32381,note_on,1,0,0,,1,,,79,127
32589,note_off,208,0,0,,1,,,79,127
32590,note_on,1,0,0,,1,,,77,127
32798,note_off,208,0,0,,1,,,77,127
32798,note_off,0,0,0,,0,,,55,95
32798,note_off,0,0,0,,0,,,70,95
32798,note_off,0,0,0,,0,,,63,95
32799,note_on,1,0,0,,1,,,75,127
33217,note_off,418,0,0,,1,,,75,127
33218,note_on,1,0,0,,1,,,74,127
33636,note_off,418,0,0,,1,,,74,127
33637,note_on,1,0,0,,1,,,73,127
33637,note_on,0,0,0,,0,,,69,95
33637,note_on,0,0,0,,0,,,64,95
33637,note_on,0,0,0,,0,,,55,95
34055,note_off,418,0,0,,0,,,55,95
34055,note_off,0,0,0,,0,,,69,95
34055,note_off,0,0,0,,1,,,73,127
34056,note_on,1,0,0,,1,,,81,127
34056,note_on,0,0,0,,0,,,73,95
34056,note_on,0,0,0,,0,,,53,95
34264,note_off,208,0,0,,0,,,53,95
34265,note_on,1,0,0,,0,,,52,95
34473,note_off,208,0,0,,0,,,52,95
34473,note_off,0,0,0,,0,,,73,95
34473,note_off,0,0,0,,0,,,64,95
34474,note_on,1,0,0,,0,,,74,95
34474,note_on,0,0,0,,0,,,53,95
34892,note_off,418,0,0,,0,,,53,95
34892,note_off,0,0,0,,1,,,81,127
34893,note_on,1,0,0,,0,,,50,95
35311,note_off,418,0,0,,0,,,50,95
35311,note_off,0,0,0,,0,,,74,95
35312,note_on,1,0,0,,1,,,86,127
35312,note_on,0,0,0,,0,,,67,95
35312,note_on,0,0,0,,0,,,74,95
35312,note_on,0,0,0,,0,,,58,95
35730,note_off,418,0,0,,1,,,86,127
35731,note_on,1,0,0,,1,,,74,127
35939,note_off,208,0,0,,1,,,74,127
35940,note_on,1,0,0,,1,,,76,127
36148,note_off,208,0,0,,1,,,76,127
36148,note_off,0,0,0,,0,,,58,95
36148,note_off,0,0,0,,0,,,74,95
36148,note_off,0,0,0,,0,,,67,95
36149,note_on,1,0,0,,1,,,77,127
36567,note_off,418,0,0,,1,,,77,127
36568,note_on,1,0,0,,1,,,79,127
36986,note_off,418,0,0,,1,,,79,127
36987,note_on,1,0,0,,1,,,69,127
36987,note_on,0,0,0,,0,,,73,95
36987,note_on,0,0,0,,0,,,64,95
36987,note_on,0,0,0,,0,,,57,95
37092,note_on,105,0,0,,1,,,76,127
37197,note_on,105,0,0,,1,,,81,127
37266,note_off,69,0,0,,1,,,69,127
37371,note_off,105,0,0,,1,,,76,127
37406,note_off,35,0,0,,0,,,57,95
37407,note_on,1,0,0,,0,,,69,95
37407,note_on,0,0,0,,0,,,55,95
37615,note_off,208,0,0,,0,,,55,95
37616,note_on,1,0,0,,0,,,53,95
37824,note_off,208,0,0,,0,,,53,95
37824,note_off,0,0,0,,0,,,69,95
37824,note_off,0,0,0,,0,,,64,95
37824,note_off,0,0,0,,0,,,73,95
37825,note_on,1,0,0,,0,,,71,95
37825,note_on,0,0,0,,0,,,55,95
38243,note_off,418,0,0,,0,,,55,95
38243,note_off,0,0,0,,0,,,71,95
38244,note_on,1,0,0,,0,,,73,95
38244,note_on,0,0,0,,0,,,52,95
38260,note_off,16,0,0,,1,,,81,127
38661,note_off,401,0,0,,0,,,52,95
38661,note_off,0,0,0,,0,,,73,95
38662,note_on,1,0,0,,1,,,86,127
38662,note_on,0,0,0,,0,,,74,95
38662,note_on,0,0,0,,0,,,69,95
38662,note_on,0,0,0,,0,,,62,95
38662,note_on,0,0,0,,0,,,53,95
39080,note_off,418,0,0,,1,,,86,127
39081,note_on,1,0,0,,1,,,74,127
39289,note_off,208,0,0,,1,,,74,127
39290,note_on,1,0,0,,1,,,76,127
39498,note_off,208,0,0,,1,,,76,127
39498,note_off,0,0,0,,0,,,53,95
39498,note_off,0,0,0,,0,,,62,95
39498,note_off,0,0,0,,0,,,69,95
39498,note_off,0,0,0,,0,,,74,95
39499,note_on,1,0,0,,1,,,77,127
39917,note_off,418,0,0,,1,,,77,127
39918,note_on,1,0,0,,1,,,79,127
40336,note_off,418,0,0,,1,,,79,127
40337,note_on,1,0,0,,1,,,81,127
40337,note_on,0,0,0,,0,,,69,95
40337,note_on,0,0,0,,0,,,74,95
40337,note_on,0,0,0,,0,,,53,95
40755,note_off,418,0,0,,0,,,53,95
40756,note_on,1,0,0,,0,,,52,95
40964,note_off,208,0,0,,0,,,52,95
40965,note_on,1,0,0,,0,,,50,95
41173,note_off,208,0,0,,0,,,50,95
41173,note_off,0,0,0,,0,,,74,95
41173,note_off,0,0,0,,1,,,81,127
41174,note_on,1,0,0,,1,,,79,127
41174,note_on,0,0,0,,0,,,73,95
41174,note_on,0,0,0,,0,,,52,95
41592,note_off,418,0,0,,0,,,52,95
41592,note_off,0,0,0,,0,,,73,95
41593,note_on,1,0,0,,0,,,76,95
41593,note_on,0,0,0,,0,,,49,95
42011,note_off,418,0,0,,0,,,49,95
42011,note_off,0,0,0,,0,,,76,95
42011,note_off,0,0,0,,1,,,79,127
42011,note_off,0,0,0,,0,,,69,95
42012,note_on,1,0,0,,1,,,77,127
42012,note_on,0,0,0,,0,,,65,95
42012,note_on,0,0,0,,0,,,69,95
42012,note_on,0,0,0,,0,,,50,95
42430,note_off,418,0,0,,0,,,50,95
42430,note_off,0,0,0,,0,,,65,95
42430,note_off,0,0,0,,1,,,77,127
42431,note_on,1,0,0,,1,,,76,127
42431,note_on,0,0,0,,0,,,62,95
42431,note_on,0,0,0,,0,,,53,95
42639,note_off,208,0,0,,1,,,76,127
42640,note_on,1,0,0,,1,,,74,127
42848,note_off,208,0,0,,1,,,74,127
42848,note_off,0,0,0,,0,,,53,95
42848,note_off,0,0,0,,0,,,62,95
42848,note_off,0,0,0,,0,,,69,95
42849,note_on,1,0,0,,1,,,76,127
42849,note_on,0,0,0,,0,,,70,95
42849,note_on,0,0,0,,0,,,55,95
43267,note_off,418,0,0,,0,,,55,95
43267,note_off,0,0,0,,0,,,70,95
43267,note_off,0,0,0,,1,,,76,127
43268,note_on,1,0,0,,1,,,73,127
43268,note_on,0,0,0,,0,,,64,95
43268,note_on,0,0,0,,0,,,57,95
43686,note_off,418,0,0,,0,,,57,95
43686,note_off,0,0,0,,0,,,64,95
43686,note_off,0,0,0,,1,,,73,127
43687,note_on,1,0,0,,1,,,74,127
43687,note_on,0,0,0,,0,,,69,95
43687,note_on,0,0,0,,0,,,66,95
43687,note_on,0,0,0,,0,,,50,95
44105,note_off,418,0,0,,0,,,50,95
44105,note_off,0,0,0,,1,,,74,127
44106,note_on,1,0,0,,1,,,74,127
44106,note_on,0,0,0,,0,,,50,95
44314,note_off,208,0,0,,1,,,74,127
44315,note_on,1,0,0,,1,,,76,127
44523,note_off,208,0,0,,1,,,76,127
44523,note_off,0,0,0,,0,,,50,95
44523,note_off,0,0,0,,0,,,66,95
44523,note_off,0,0,0,,0,,,69,95
44524,note_on,1,0,0,,1,,,78,127
44524,note_on,0,0,0,,1,,,69,127
44524,note_on,0,0,0,,0,,,50,95
44942,note_off,418,0,0,,0,,,50,95
44942,note_off,0,0,0,,1,,,69,127
44942,note_off,0,0,0,,1,,,78,127
44943,note_on,1,0,0,,1,,,79,127
44943,note_on,0,0,0,,1,,,70,127
44943,note_on,0,0,0,,0,,,50,95
45361,note_off,418,0,0,,0,,,50,95
45361,note_off,0,0,0,,1,,,70,127
45361,note_off,0,0,0,,1,,,79,127
45362,note_on,1,0,0,,1,,,78,127
45362,note_on,0,0,0,,1,,,69,127
45362,note_on,0,0,0,,0,,,50,95
45780,note_off,418,0,0,,0,,,50,95
45780,note_off,0,0,0,,1,,,69,127
45780,note_off,0,0,0,,1,,,78,127
45781,note_on,1,0,0,,1,,,78,127
45781,note_on,0,0,0,,0,,,69,95
45781,note_on,0,0,0,,0,,,50,95
45989,note_off,208,0,0,,0,,,50,95
45989,note_off,0,0,0,,1,,,78,127
45990,note_on,1,0,0,,1,,,79,127
45990,note_on,0,0,0,,0,,,52,95
46198,note_off,208,0,0,,0,,,52,95
46198,note_off,0,0,0,,1,,,79,127
46198,note_off,0,0,0,,0,,,69,95
46199,note_on,1,0,0,,1,,,74,127
46199,note_on,0,0,0,,1,,,81,127
46199,note_on,0,0,0,,0,,,54,95
46617,note_off,418,0,0,,0,,,54,95
46617,note_off,0,0,0,,1,,,81,127
46617,note_off,0,0,0,,1,,,74,127
46618,note_on,1,0,0,,1,,,74,127
46618,note_on,0,0,0,,1,,,82,127
46618,note_on,0,0,0,,0,,,55,95
47036,note_off,418,0,0,,0,,,55,95
47036,note_off,0,0,0,,1,,,82,127
47036,note_off,0,0,0,,1,,,74,127
47037,note_on,1,0,0,,1,,,74,127
47037,note_on,0,0,0,,1,,,81,127
47037,note_on,0,0,0,,0,,,66,95
47037,note_on,0,0,0,,0,,,50,95
47455,note_off,418,0,0,,0,,,50,95
47455,note_off,0,0,0,,1,,,81,127
47455,note_off,0,0,0,,1,,,74,127
47456,note_on,1,0,0,,1,,,74,127
47456,note_on,0,0,0,,0,,,50,95
47664,note_off,208,0,0,,0,,,50,95
47664,note_off,0,0,0,,0,,,66,95
47665,note_on,1,0,0,,0,,,67,95
47665,note_on,0,0,0,,0,,,52,95
47873,note_off,208,0,0,,0,,,52,95
47873,note_off,0,0,0,,0,,,67,95
47873,note_off,0,0,0,,1,,,74,127
47874,note_on,1,0,0,,0,,,69,95
47874,note_on,0,0,0,,0,,,54,95
48292,note_off,418,0,0,,0,,,54,95
48292,note_off,0,0,0,,0,,,69,95
48293,note_on,1,0,0,,1,,,82,127
48293,note_on,0,0,0,,0,,,62,95
48293,note_on,0,0,0,,0,,,67,95
48293,note_on,0,0,0,,0,,,55,95
48501,note_off,208,0,0,,1,,,82,127
48502,note_on,1,0,0,,1,,,74,127
48710,note_off,208,0,0,,1,,,74,127
48710,note_off,0,0,0,,0,,,55,95
48710,note_off,0,0,0,,0,,,67,95
48710,note_off,0,0,0,,0,,,62,95
48711,note_on,1,0,0,,1,,,72,127
48711,note_on,0,0,0,,0,,,66,95
48711,note_on,0,0,0,,0,,,57,95
49129,note_off,418,0,0,,0,,,57,95
49129,note_off,0,0,0,,1,,,72,127
49130,note_on,1,0,0,,1,,,84,127
49130,note_on,0,0,0,,0,,,72,95
49130,note_on,0,0,0,,0,,,45,95
49338,note_off,208,0,0,,0,,,45,95
49339,note_on,1,0,0,,0,,,46,95
49547,note_off,208,0,0,,0,,,46,95
49547,note_off,0,0,0,,0,,,72,95
49547,note_off,0,0,0,,0,,,66,95
49548,note_on,1,0,0,,0,,,69,95
49548,note_on,0,0,0,,0,,,48,95
49966,note_off,418,0,0,,0,,,48,95
49966,note_off,0,0,0,,1,,,84,127
49967,note_on,1,0,0,,1,,,82,127
49967,note_on,0,0,0,,0,,,66,95
49967,note_on,0,0,0,,0,,,50,95
50175,note_off,208,0,0,,1,,,82,127
50176,note_on,1,0,0,,1,,,81,127
50384,note_off,208,0,0,,1,,,81,127
50384,note_off,0,0,0,,0,,,50,95
50384,note_off,0,0,0,,0,,,66,95
50384,note_off,0,0,0,,0,,,69,95
50385,note_on,1,0,0,,1,,,79,127
50385,note_on,0,0,0,,0,,,70,95
50385,note_on,0,0,0,,0,,,51,95
50803,note_off,418,0,0,,0,,,51,95
50803,note_off,0,0,0,,1,,,79,127
50804,note_on,1,0,0,,1,,,82,127
50804,note_on,0,0,0,,0,,,67,95
50804,note_on,0,0,0,,0,,,43,95
51012,note_off,208,0,0,,0,,,43,95
51013,note_on,1,0,0,,0,,,45,95
51221,note_off,208,0,0,,0,,,45,95
51221,note_off,0,0,0,,0,,,70,95
51222,note_on,1,0,0,,0,,,62,95
51222,note_on,0,0,0,,0,,,46,95
51640,note_off,418,0,0,,0,,,46,95
51640,note_off,0,0,0,,0,,,62,95
51640,note_off,0,0,0,,0,,,67,95
51640,note_off,0,0,0,,1,,,82,127
51641,note_on,1,0,0,,1,,,81,127
51641,note_on,0,0,0,,0,,,67,95
51641,note_on,0,0,0,,0,,,63,95
51641,note_on,0,0,0,,0,,,48,95
51849,note_off,208,0,0,,1,,,81,127
51850,note_on,1,0,0,,1,,,79,127
52058,note_off,208,0,0,,1,,,79,127
52058,note_off,0,0,0,,0,,,48,95
52058,note_off,0,0,0,,0,,,63,95
52058,note_off,0,0,0,,0,,,67,95
52059,note_on,1,0,0,,1,,,72,127
52059,note_on,0,0,0,,0,,,69,95
52059,note_on,0,0,0,,0,,,66,95
52059,note_on,0,0,0,,0,,,50,95
52477,note_off,418,0,0,,0,,,50,95
52477,note_off,0,0,0,,0,,,66,95
52477,note_off,0,0,0,,0,,,69,95
52478,note_on,1,0,0,,0,,,67,95
52478,note_on,0,0,0,,0,,,52,95
52896,note_off,418,0,0,,0,,,52,95
52896,note_off,0,0,0,,0,,,67,95
52896,note_off,0,0,0,,1,,,72,127
52897,note_on,1,0,0,,1,,,84,127
52897,note_on,0,0,0,,0,,,69,95
52897,note_on,0,0,0,,0,,,62,95
52897,note_on,0,0,0,,0,,,54,95
53315,note_off,418,0,0,,0,,,54,95
53315,note_off,0,0,0,,0,,,69,95
53316,note_on,1,0,0,,0,,,66,95
53316,note_on,0,0,0,,0,,,50,95
53734,note_off,418,0,0,,0,,,50,95
53734,note_off,0,0,0,,0,,,66,95
53734,note_off,0,0,0,,0,,,62,95
53734,note_off,0,0,0,,1,,,84,127
53735,note_on,1,0,0,,1,,,82,127
53735,note_on,0,0,0,,0,,,67,95
53735,note_on,0,0,0,,0,,,62,95
53735,note_on,0,0,0,,0,,,55,95
54153,note_off,418,0,0,,0,,,55,95
54153,note_off,0,0,0,,0,,,67,95
54153,note_off,0,0,0,,1,,,82,127
54154,note_on,1,0,0,,1,,,81,127
54154,note_on,0,0,0,,0,,,70,95
54154,note_on,0,0,0,,0,,,46,95
54362,note_off,208,0,0,,1,,,81,127
54363,note_on,1,0,0,,1,,,79,127
54571,note_off,208,0,0,,1,,,79,127
54571,note_off,0,0,0,,0,,,46,95
54571,note_off,0,0,0,,0,,,70,95
54571,note_off,0,0,0,,0,,,62,95
54572,note_on,1,0,0,,1,,,81,127
54572,note_on,0,0,0,,0,,,69,95
54572,note_on,0,0,0,,0,,,48,95
54990,note_off,418,0,0,,0,,,48,95
54990,note_off,0,0,0,,1,,,81,127
54991,note_on,1,0,0,,1,,,69,127
54991,note_on,0,0,0,,1,,,78,127
54991,note_on,0,0,0,,0,,,72,95
54991,note_on,0,0,0,,0,,,50,95
55409,note_off,418,0,0,,0,,,50,95
55409,note_off,0,0,0,,0,,,72,95
55409,note_off,0,0,0,,1,,,78,127
55409,note_off,0,0,0,,1,,,69,127
55409,note_off,0,0,0,,0,,,69,95
55410,note_on,1,0,0,,1,,,67,127
55410,note_on,0,0,0,,1,,,74,127
55410,note_on,0,0,0,,1,,,70,127
55410,note_on,0,0,0,,1,,,79,127
55410,note_on,0,0,0,,0,,,70,95
55410,note_on,0,0,0,,0,,,43,95
55660,note_off,250,0,0,,1,,,70,127
55660,note_off,0,0,0,,1,,,67,127
55828,note_off,168,0,0,,0,,,43,95
55828,note_off,0,0,0,,0,,,70,95
55829,note_on,1,0,0,,0,,,67,95
55829,note_on,0,0,0,,0,,,55,95
56037,note_off,208,0,0,,0,,,55,95
56038,note_on,1,0,0,,0,,,57,95
56246,note_off,208,0,0,,0,,,57,95
56246,note_off,0,0,0,,1,,,74,127
56247,note_on,1,0,0,,0,,,58,95
56473,note_off,226,0,0,,1,,,79,127
56665,note_off,192,0,0,,0,,,58,95
56665,note_off,0,0,0,,0,,,67,95
56669,note_on,4,0,0,,0,,,57,95
56669,note_on,0,0,0,,0,,,69,95
57087,note_off,418,0,0,,0,,,69,95
57087,note_off,0,0,0,,0,,,57,95
57101,note_on,14,0,0,,0,,,55,95
57101,note_on,0,0,0,,0,,,63,95
57101,note_on,0,0,0,,0,,,70,95
57101,note_on,0,0,0,,1,,,82,127
57519,note_off,418,0,0,,1,,,82,127
57520,note_on,1,0,0,,1,,,79,127
57728,note_off,208,0,0,,1,,,79,127
57729,note_on,1,0,0,,1,,,77,127
57937,note_off,208,0,0,,1,,,77,127
57937,note_off,0,0,0,,0,,,70,95
57937,note_off,0,0,0,,0,,,63,95
57937,note_off,0,0,0,,0,,,55,95
57938,note_on,1,0,0,,1,,,75,127
58356,note_off,418,0,0,,1,,,75,127
58357,note_on,1,0,0,,1,,,74,127
58775,note_off,418,0,0,,1,,,74,127
58776,note_on,1,0,0,,0,,,55,95
58776,note_on,0,0,0,,0,,,69,95
58776,note_on,0,0,0,,0,,,64,95
58776,note_on,0,0,0,,1,,,73,127
59194,note_off,418,0,0,,1,,,73,127
59194,note_off,0,0,0,,0,,,64,95
59194,note_off,0,0,0,,0,,,55,95
59195,note_on,1,0,0,,0,,,53,95
59195,note_on,0,0,0,,0,,,62,95
59195,note_on,0,0,0,,1,,,81,127
59403,note_off,208,0,0,,0,,,53,95
59404,note_on,1,0,0,,0,,,52,95
59612,note_off,208,0,0,,0,,,52,95
59612,note_off,0,0,0,,0,,,69,95
59613,note_on,1,0,0,,0,,,53,95
59613,note_on,0,0,0,,0,,,69,95
60031,note_off,418,0,0,,0,,,53,95
60031,note_off,0,0,0,,1,,,81,127
60031,note_off,0,0,0,,0,,,62,95
60032,note_on,1,0,0,,0,,,50,95
60450,note_off,418,0,0,,0,,,50,95
60450,note_off,0,0,0,,0,,,69,95
60451,note_on,1,0,0,,0,,,53,95
60451,note_on,0,0,0,,0,,,62,95
60451,note_on,0,0,0,,0,,,74,95
60451,note_on,0,0,0,,1,,,81,127
60869,note_off,418,0,0,,1,,,81,127
60870,note_on,1,0,0,,1,,,77,127
61078,note_off,208,0,0,,1,,,77,127
61079,note_on,1,0,0,,1,,,76,127
61287,note_off,208,0,0,,1,,,76,127
61287,note_off,0,0,0,,0,,,74,95
61287,note_off,0,0,0,,0,,,62,95
61287,note_off,0,0,0,,0,,,53,95
61288,note_on,1,0,0,,1,,,74,127
61706,note_off,418,0,0,,1,,,74,127
61707,note_on,1,0,0,,1,,,72,127
62125,note_off,418,0,0,,1,,,72,127
62126,note_on,1,0,0,,0,,,53,95
62126,note_on,0,0,0,,0,,,67,95
62126,note_on,0,0,0,,0,,,62,95
62126,note_on,0,0,0,,1,,,71,127
62544,note_off,418,0,0,,1,,,71,127
62544,note_off,0,0,0,,0,,,62,95
62544,note_off,0,0,0,,0,,,53,95
62545,note_on,1,0,0,,0,,,51,95
62545,note_on,0,0,0,,0,,,71,95
62545,note_on,0,0,0,,1,,,79,127
62753,note_off,208,0,0,,0,,,51,95
62754,note_on,1,0,0,,0,,,50,95
62962,note_off,208,0,0,,0,,,50,95
62962,note_off,0,0,0,,0,,,71,95
62962,note_off,0,0,0,,0,,,67,95
62963,note_on,1,0,0,,0,,,51,95
62963,note_on,0,0,0,,0,,,72,95
62963,note_on,0,0,0,,0,,,67,95
63171,note_off,208,0,0,,1,,,79,127
63380,note_off,209,0,0,,0,,,51,95
63381,note_on,1,0,0,,0,,,48,95
63799,note_off,418,0,0,,0,,,48,95
63799,note_off,0,0,0,,0,,,67,95
63799,note_off,0,0,0,,0,,,72,95
63800,note_on,1,0,0,,0,,,51,95
63800,note_on,0,0,0,,0,,,67,95
63800,note_on,0,0,0,,0,,,72,95
63800,note_on,0,0,0,,1,,,79,127
64218,note_off,418,0,0,,1,,,79,127
64219,note_on,1,0,0,,1,,,75,127
64427,note_off,208,0,0,,1,,,75,127
64428,note_on,1,0,0,,1,,,74,127
64636,note_off,208,0,0,,1,,,74,127
64636,note_off,0,0,0,,0,,,72,95
64636,note_off,0,0,0,,0,,,67,95
64636,note_off,0,0,0,,0,,,51,95
64637,note_on,1,0,0,,1,,,72,127
65055,note_off,418,0,0,,1,,,72,127
65056,note_on,1,0,0,,0,,,50,95
65056,note_on,0,0,0,,0,,,67,95
65056,note_on,0,0,0,,1,,,70,127
65474,note_off,418,0,0,,1,,,70,127
65474,note_off,0,0,0,,0,,,67,95
65474,note_off,0,0,0,,0,,,50,95
65475,note_on,1,0,0,,0,,,48,95
65475,note_on,0,0,0,,0,,,67,95
65475,note_on,0,0,0,,1,,,69,127
65893,note_off,418,0,0,,1,,,69,127
65894,note_on,1,0,0,,1,,,72,127
66102,note_off,208,0,0,,1,,,72,127
66103,note_on,1,0,0,,1,,,70,127
66311,note_off,208,0,0,,1,,,70,127
66311,note_off,0,0,0,,0,,,67,95
66311,note_off,0,0,0,,0,,,48,95
66312,note_on,1,0,0,,1,,,69,127
66730,note_off,418,0,0,,1,,,69,127
66731,note_on,1,0,0,,0,,,49,95
66731,note_on,0,0,0,,0,,,70,95
66731,note_on,0,0,0,,0,,,64,95
66731,note_on,0,0,0,,1,,,67,127
67149,note_off,418,0,0,,1,,,67,127
67149,note_off,0,0,0,,0,,,64,95
67149,note_off,0,0,0,,0,,,70,95
67149,note_off,0,0,0,,0,,,49,95
67150,note_on,1,0,0,,0,,,50,95
67150,note_on,0,0,0,,0,,,62,95
67150,note_on,0,0,0,,0,,,69,95
67150,note_on,0,0,0,,1,,,67,127
67568,note_off,418,0,0,,1,,,67,127
67568,note_off,0,0,0,,0,,,50,95
67569,note_on,1,0,0,,0,,,50,95
67569,note_on,0,0,0,,1,,,66,127
67777,note_off,208,0,0,,0,,,50,95
67778,note_on,1,0,0,,0,,,52,95
67986,note_off,208,0,0,,0,,,52,95
67986,note_off,0,0,0,,0,,,69,95
67986,note_off,0,0,0,,0,,,62,95
67987,note_on,1,0,0,,0,,,54,95
67987,note_on,0,0,0,,0,,,62,95
68195,note_off,208,0,0,,1,,,66,127
68404,note_off,209,0,0,,0,,,62,95
68404,note_off,0,0,0,,0,,,54,95
68405,note_on,1,0,0,,0,,,52,95
68405,note_on,0,0,0,,0,,,64,95
68823,note_off,418,0,0,,0,,,64,95
68823,note_off,0,0,0,,0,,,52,95
68824,note_on,1,0,0,,0,,,50,95
68824,note_on,0,0,0,,0,,,66,95
68824,note_on,0,0,0,,1,,,81,127
69242,note_off,418,0,0,,1,,,81,127
69243,note_on,1,0,0,,1,,,78,127
69451,note_off,208,0,0,,1,,,78,127
69452,note_on,1,0,0,,1,,,76,127
69660,note_off,208,0,0,,1,,,76,127
69660,note_off,0,0,0,,0,,,66,95
69660,note_off,0,0,0,,0,,,50,95
69661,note_on,1,0,0,,0,,,54,95
69661,note_on,0,0,0,,0,,,62,95
69661,note_on,0,0,0,,0,,,69,95
69661,note_on,0,0,0,,1,,,74,127
70079,note_off,418,0,0,,1,,,74,127
70080,note_on,1,0,0,,1,,,72,127
70498,note_off,418,0,0,,1,,,72,127
70498,note_off,0,0,0,,0,,,69,95
70498,note_off,0,0,0,,0,,,62,95
70498,note_off,0,0,0,,0,,,54,95
70499,note_on,1,0,0,,0,,,55,95
70499,note_on,0,0,0,,0,,,67,95
70499,note_on,0,0,0,,1,,,70,127
70917,note_off,418,0,0,,1,,,70,127
70917,note_off,0,0,0,,0,,,67,95
70917,note_off,0,0,0,,0,,,55,95
70918,note_on,1,0,0,,0,,,54,95
70918,note_on,0,0,0,,0,,,69,95
70918,note_on,0,0,0,,1,,,72,127
70918,note_on,0,0,0,,1,,,75,127
71336,note_off,418,0,0,,1,,,75,127
71336,note_off,0,0,0,,1,,,72,127
71336,note_off,0,0,0,,0,,,69,95
71336,note_off,0,0,0,,0,,,54,95
71337,note_on,1,0,0,,0,,,55,95
71337,note_on,0,0,0,,0,,,67,95
71337,note_on,0,0,0,,1,,,70,127
71337,note_on,0,0,0,,1,,,74,127
71755,note_off,418,0,0,,1,,,74,127
71755,note_off,0,0,0,,1,,,70,127
71755,note_off,0,0,0,,0,,,67,95
71755,note_off,0,0,0,,0,,,55,95
71756,note_on,1,0,0,,0,,,54,95
71756,note_on,0,0,0,,0,,,69,95
71756,note_on,0,0,0,,1,,,84,127
71756,note_on,0,0,0,,1,,,74,127
72174,note_off,418,0,0,,1,,,74,127
72174,note_off,0,0,0,,1,,,84,127
72174,note_off,0,0,0,,0,,,69,95
72174,note_off,0,0,0,,0,,,54,95
72175,note_on,1,0,0,,0,,,55,95
72175,note_on,0,0,0,,0,,,70,95
72175,note_on,0,0,0,,1,,,74,127
72175,note_on,0,0,0,,1,,,82,127
72593,note_off,418,0,0,,1,,,82,127
72593,note_off,0,0,0,,0,,,55,95
72594,note_on,1,0,0,,0,,,46,95
72594,note_on,0,0,0,,0,,,67,95
72594,note_on,0,0,0,,1,,,81,127
72802,note_off,208,0,0,,1,,,81,127
72803,note_on,1,0,0,,1,,,79,127
73011,note_off,208,0,0,,1,,,79,127
73011,note_off,0,0,0,,0,,,46,95
73011,note_off,0,0,0,,1,,,74,127
73011,note_off,0,0,0,,0,,,70,95
73012,note_on,1,0,0,,0,,,48,95
73012,note_on,0,0,0,,0,,,63,95
73012,note_on,0,0,0,,1,,,81,127
73430,note_off,418,0,0,,1,,,81,127
73430,note_off,0,0,0,,0,,,63,95
73430,note_off,0,0,0,,0,,,48,95
73430,note_off,0,0,0,,0,,,67,95
73431,note_on,1,0,0,,0,,,50,95
73431,note_on,0,0,0,,0,,,72,95
73431,note_on,0,0,0,,1,,,78,127
73431,note_on,0,0,0,,1,,,69,127
73849,note_off,418,0,0,,1,,,69,127
73849,note_off,0,0,0,,1,,,78,127
73849,note_off,0,0,0,,0,,,72,95
73849,note_off,0,0,0,,0,,,50,95
73850,note_on,1,0,0,,0,,,43,95
73850,note_on,0,0,0,,0,,,74,95
73850,note_on,0,0,0,,1,,,70,127
73850,note_on,0,0,0,,1,,,79,127
74272,note_off,422,0,0,,1,,,79,127
74272,note_off,0,0,0,,1,,,70,127
74272,note_off,0,0,0,,0,,,74,95
74272,note_off,0,0,0,,0,,,43,95
74273,note_on,1,0,0,,0,,,42,95
74273,note_on,0,0,0,,0,,,69,95
74273,note_on,0,0,0,,1,,,75,127
74273,note_on,0,0,0,,1,,,72,127
74695,note_off,422,0,0,,1,,,72,127
74695,note_off,0,0,0,,1,,,75,127
74695,note_off,0,0,0,,0,,,69,95
74695,note_off,0,0,0,,0,,,42,95
74696,note_on,1,0,0,,0,,,43,95
74696,note_on,0,0,0,,0,,,70,95
74696,note_on,0,0,0,,1,,,74,127
74696,note_on,0,0,0,,1,,,70,127
75118,note_off,422,0,0,,1,,,70,127
75118,note_off,0,0,0,,1,,,74,127
75118,note_off,0,0,0,,0,,,70,95
75118,note_off,0,0,0,,0,,,43,95
75119,note_on,1,0,0,,0,,,42,95
75119,note_on,0,0,0,,0,,,69,95
75119,note_on,0,0,0,,1,,,84,127
75119,note_on,0,0,0,,1,,,74,127
75541,note_off,422,0,0,,1,,,74,127
75541,note_off,0,0,0,,1,,,84,127
75541,note_off,0,0,0,,0,,,69,95
75541,note_off,0,0,0,,0,,,42,95
75542,note_on,1,0,0,,0,,,43,95
75542,note_on,0,0,0,,0,,,67,95
75542,note_on,0,0,0,,1,,,82,127
75542,note_on,0,0,0,,1,,,74,127
75964,note_off,422,0,0,,1,,,82,127
75964,note_off,0,0,0,,0,,,43,95
75965,note_on,1,0,0,,0,,,46,95
75965,note_on,0,0,0,,0,,,74,95
75965,note_on,0,0,0,,1,,,81,127
76175,note_off,210,0,0,,1,,,81,127
76176,note_on,1,0,0,,1,,,79,127
76386,note_off,210,0,0,,1,,,79,127
76386,note_off,0,0,0,,0,,,74,95
76386,note_off,0,0,0,,0,,,46,95
76386,note_off,0,0,0,,1,,,74,127
76387,note_on,1,0,0,,0,,,48,95
76387,note_on,0,0,0,,0,,,75,95
76387,note_on,0,0,0,,1,,,81,127
76809,note_off,422,0,0,,1,,,81,127
76809,note_off,0,0,0,,0,,,75,95
76809,note_off,0,0,0,,0,,,48,95
76809,note_off,0,0,0,,0,,,67,95
76810,note_on,1,0,0,,0,,,50,95
76810,note_on,0,0,0,,0,,,69,95
76810,note_on,0,0,0,,0,,,72,95
76810,note_on,0,0,0,,1,,,78,127
77236,note_off,426,0,0,,1,,,78,127
77236,note_off,0,0,0,,0,,,72,95
77236,note_off,0,0,0,,0,,,69,95
77236,note_off,0,0,0,,0,,,50,95
77253,note_on,17,0,0,,1,,,70,127
77253,note_on,0,0,0,,1,,,79,127
77253,note_on,0,0,0,,0,,,74,95
77253,note_on,0,0,0,,0,,,70,95
77253,note_on,0,0,0,,0,,,67,95
77253,note_on,0,0,0,,0,,,43,95
77679,note_off,426,0,0,,1,,,79,127
77679,note_off,0,0,0,,1,,,70,127
77680,note_on,1,0,0,,1,,,67,127
77892,note_off,212,0,0,,1,,,67,127
77893,note_on,1,0,0,,1,,,69,127
78105,note_off,212,0,0,,1,,,69,127
78105,note_off,0,0,0,,0,,,43,95
78105,note_off,0,0,0,,0,,,67,95
78105,note_off,0,0,0,,0,,,70,95
78105,note_off,0,0,0,,0,,,74,95
78106,note_on,1,0,0,,1,,,70,127
78532,note_off,426,0,0,,1,,,70,127
78533,note_on,1,0,0,,1,,,72,127
78959,note_off,426,0,0,,1,,,72,127
78960,note_on,1,0,0,,1,,,67,127
78960,note_on,0,0,0,,0,,,70,95
78960,note_on,0,0,0,,0,,,55,95
79050,note_on,90,0,0,,1,,,70,127
79140,note_on,90,0,0,,1,,,74,127
79247,note_off,107,0,0,,1,,,67,127
79337,note_off,90,0,0,,1,,,70,127
79391,note_off,54,0,0,,0,,,55,95
79391,note_off,0,0,0,,0,,,70,95
79392,note_on,1,0,0,,0,,,69,95
79392,note_on,0,0,0,,0,,,53,95
79606,note_off,214,0,0,,0,,,53,95
79606,note_off,0,0,0,,0,,,69,95
79607,note_on,1,0,0,,0,,,67,95
79607,note_on,0,0,0,,0,,,51,95
79821,note_off,214,0,0,,0,,,51,95
79821,note_off,0,0,0,,0,,,67,95
79822,note_on,1,0,0,,0,,,69,95
79822,note_on,0,0,0,,0,,,53,95
80000,note_off,178,0,0,,1,,,74,127
80251,note_off,251,0,0,,0,,,53,95
80252,note_on,1,0,0,,0,,,50,95
80682,note_off,430,0,0,,0,,,50,95
80682,note_off,0,0,0,,0,,,69,95
80683,note_on,1,0,0,,1,,,79,127
80683,note_on,0,0,0,,0,,,67,95
80683,note_on,0,0,0,,0,,,60,95
80683,note_on,0,0,0,,0,,,51,95
81117,note_off,434,0,0,,1,,,79,127
81118,note_on,1,0,0,,1,,,67,127
81334,note_off,216,0,0,,1,,,67,127
81335,note_on,1,0,0,,1,,,69,127
81551,note_off,216,0,0,,1,,,69,127
81551,note_off,0,0,0,,0,,,51,95
81551,note_off,0,0,0,,0,,,60,95
81551,note_off,0,0,0,,0,,,67,95
81552,note_on,1,0,0,,1,,,70,127
81986,note_off,434,0,0,,1,,,70,127
81987,note_on,1,0,0,,1,,,72,127
82421,note_off,434,0,0,,1,,,72,127
82422,note_on,1,0,0,,1,,,66,127
82422,note_on,0,0,0,,1,,,69,127
82422,note_on,0,0,0,,1,,,74,127
82422,note_on,0,0,0,,0,,,66,95
82422,note_on,0,0,0,,0,,,69,95
82422,note_on,0,0,0,,0,,,62,95
82422,note_on,0,0,0,,0,,,50,95
82569,note_off,147,0,0,,1,,,69,127
82569,note_off,0,0,0,,1,,,66,127
83307,note_off,738,0,0,,0,,,50,95
83307,note_off,0,0,0,,0,,,62,95
83307,note_off,0,0,0,,0,,,69,95
83307,note_off,0,0,0,,0,,,66,95
83307,note_off,0,0,0,,1,,,74,127
83308,note_on,1,0,0,,1,,,79,127
83308,note_on,0,0,0,,1,,,74,127
83308,note_on,0,0,0,,1,,,67,127
83308,note_on,0,0,0,,1,,,70,127
83308,note_on,0,0,0,,0,,,67,95
83308,note_on,0,0,0,,0,,,62,95
83308,note_on,0,0,0,,0,,,70,95
83308,note_on,0,0,0,,0,,,43,95
83467,note_off,159,0,0,,1,,,70,127
83467,note_off,0,0,0,,1,,,67,127
84267,note_off,800,0,0,,0,,,43,95
84267,note_off,0,0,0,,0,,,70,95
84267,note_off,0,0,0,,0,,,62,95
84267,note_off,0,0,0,,0,,,67,95
84267,note_off,0,0,0,,1,,,74,127
84267,note_off,0,0,0,,1,,,79,127
84268,note_on,1,0,0,,1,,,81,127
84268,note_on,0,0,0,,1,,,74,127
84268,note_on,0,0,0,,1,,,66,127
84268,note_on,0,0,0,,1,,,69,127
84268,note_on,0,0,0,,0,,,69,95
84268,note_on,0,0,0,,0,,,66,95
84268,note_on,0,0,0,,0,,,62,95
84268,note_on,0,0,0,,0,,,38,95
84415,note_off,147,0,0,,1,,,69,127
84415,note_off,0,0,0,,1,,,66,127
86483,note_off,2068,0,0,,1,,,74,127
86926,note_off,443,0,0,,0,,,38,95
86926,note_off,0,0,0,,0,,,62,95
86926,note_off,0,0,0,,0,,,66,95
86926,note_off,0,0,0,,0,,,69,95
86926,note_off,0,0,0,,1,,,81,127
87797,note_on,871,0,0,,1,,,74,127
88332,note_off,535,0,0,,1,,,74,127
88414,note_on,82,0,0,,1,,,79,127
88981,note_off,567,0,0,,1,,,79,127
89031,note_on,50,0,0,,1,,,75,127
89236,note_off,205,0,0,,1,,,75,127
89237,note_on,1,0,0,,1,,,72,127
89442,note_off,205,0,0,,1,,,72,127
89443,note_on,1,0,0,,1,,,69,127
89648,note_off,205,0,0,,1,,,69,127
89649,note_on,1,0,0,,1,,,66,127
89854,note_off,205,0,0,,1,,,66,127
89855,note_on,1,0,0,,1,,,67,127
90060,note_off,205,0,0,,1,,,67,127
90061,note_on,1,0,0,,1,,,69,127
90266,note_off,205,0,0,,1,,,69,127
90267,note_on,1,0,0,,0,,,55,95
90267,note_on,0,0,0,,1,,,70,127
90472,note_off,205,0,0,,1,,,70,127
90473,note_on,1,0,0,,1,,,67,127
90678,note_off,205,0,0,,1,,,67,127
90679,note_on,1,0,0,,1,,,70,127
90884,note_off,205,0,0,,1,,,70,127
90884,note_off,0,0,0,,0,,,55,95
90885,note_on,1,0,0,,0,,,62,95
90885,note_on,0,0,0,,1,,,69,127
91090,note_off,205,0,0,,1,,,69,127
91091,note_on,1,0,0,,1,,,74,127
91296,note_off,205,0,0,,1,,,74,127
91297,note_on,1,0,0,,1,,,66,127
91502,note_off,205,0,0,,1,,,66,127
91502,note_off,0,0,0,,0,,,62,95
91503,note_on,1,0,0,,0,,,58,95
91503,note_on,0,0,0,,0,,,70,95
91503,note_on,0,0,0,,1,,,67,127
91708,note_off,205,0,0,,1,,,67,127
91708,note_off,0,0,0,,0,,,58,95
91709,note_on,1,0,0,,0,,,55,95
91709,note_on,0,0,0,,1,,,67,127
91914,note_off,205,0,0,,1,,,67,127
91914,note_off,0,0,0,,0,,,55,95
91915,note_on,1,0,0,,0,,,52,95
91915,note_on,0,0,0,,1,,,79,127
92120,note_off,205,0,0,,0,,,52,95
92120,note_off,0,0,0,,0,,,70,95
92121,note_on,1,0,0,,0,,,49,95
92121,note_on,0,0,0,,0,,,76,95
92326,note_off,205,0,0,,0,,,49,95
92326,note_off,0,0,0,,1,,,79,127
92327,note_on,1,0,0,,0,,,50,95
92327,note_on,0,0,0,,1,,,77,127
92532,note_off,205,0,0,,1,,,77,127
92532,note_off,0,0,0,,0,,,50,95
92533,note_on,1,0,0,,0,,,52,95
92533,note_on,0,0,0,,1,,,79,127
92738,note_off,205,0,0,,1,,,79,127
92738,note_off,0,0,0,,0,,,52,95
92738,note_off,0,0,0,,0,,,76,95
92739,note_on,1,0,0,,0,,,53,95
92739,note_on,0,0,0,,0,,,74,95
92739,note_on,0,0,0,,1,,,81,127
92944,note_off,205,0,0,,0,,,74,95
92944,note_off,0,0,0,,0,,,53,95
92945,note_on,1,0,0,,0,,,50,95
92945,note_on,0,0,0,,0,,,69,95
93150,note_off,205,0,0,,0,,,69,95
93150,note_off,0,0,0,,0,,,50,95
93151,note_on,1,0,0,,0,,,53,95
93151,note_on,0,0,0,,0,,,65,95
93356,note_off,205,0,0,,0,,,65,95
93356,note_off,0,0,0,,0,,,53,95
93356,note_off,0,0,0,,1,,,81,127
93357,note_on,1,0,0,,0,,,52,95
93357,note_on,0,0,0,,1,,,69,127
93357,note_on,0,0,0,,1,,,79,127
93357,note_on,0,0,0,,1,,,76,127
93425,note_off,68,0,0,,1,,,69,127
93562,note_off,137,0,0,,0,,,52,95
93563,note_on,1,0,0,,0,,,57,95
93563,note_on,0,0,0,,0,,,64,95
93768,note_off,205,0,0,,0,,,64,95
93768,note_off,0,0,0,,0,,,57,95
93769,note_on,1,0,0,,0,,,49,95
93769,note_on,0,0,0,,0,,,69,95
93974,note_off,205,0,0,,0,,,69,95
93974,note_off,0,0,0,,0,,,49,95
93974,note_off,0,0,0,,1,,,76,127
93974,note_off,0,0,0,,1,,,79,127
93975,note_on,1,0,0,,0,,,50,95
93975,note_on,0,0,0,,0,,,62,95
93975,note_on,0,0,0,,1,,,78,127
94180,note_off,205,0,0,,1,,,78,127
94180,note_off,0,0,0,,0,,,50,95
94181,note_on,1,0,0,,0,,,50,95
94181,note_on,0,0,0,,1,,,81,127
94386,note_off,205,0,0,,1,,,81,127
94386,note_off,0,0,0,,0,,,50,95
94386,note_off,0,0,0,,0,,,62,95
94387,note_on,1,0,0,,0,,,62,95
94387,note_on,0,0,0,,1,,,78,127
94592,note_off,205,0,0,,1,,,78,127
94593,note_on,1,0,0,,1,,,74,127
94798,note_off,205,0,0,,0,,,62,95
94799,note_on,1,0,0,,0,,,58,95
94799,note_on,0,0,0,,0,,,67,95
95004,note_off,205,0,0,,0,,,67,95
95004,note_off,0,0,0,,0,,,58,95
95005,note_on,1,0,0,,0,,,60,95
95005,note_on,0,0,0,,0,,,69,95
95210,note_off,205,0,0,,0,,,69,95
95210,note_off,0,0,0,,0,,,60,95
95211,note_on,1,0,0,,0,,,62,95
95211,note_on,0,0,0,,0,,,70,95
95416,note_off,205,0,0,,0,,,70,95
95416,note_off,0,0,0,,1,,,74,127
95417,note_on,1,0,0,,0,,,69,95
95417,note_on,0,0,0,,1,,,72,127
95622,note_off,205,0,0,,1,,,72,127
95622,note_off,0,0,0,,0,,,69,95
95623,note_on,1,0,0,,0,,,67,95
95623,note_on,0,0,0,,1,,,70,127
95828,note_off,205,0,0,,1,,,70,127
95828,note_off,0,0,0,,0,,,67,95
95828,note_off,0,0,0,,0,,,62,95
95829,note_on,1,0,0,,0,,,60,95
95829,note_on,0,0,0,,0,,,66,95
95829,note_on,0,0,0,,1,,,69,127
96034,note_off,205,0,0,,1,,,69,127
96034,note_off,0,0,0,,0,,,66,95
96035,note_on,1,0,0,,0,,,67,95
96035,note_on,0,0,0,,1,,,74,127
96240,note_off,205,0,0,,1,,,74,127
96240,note_off,0,0,0,,0,,,67,95
96241,note_on,1,0,0,,0,,,69,95
96241,note_on,0,0,0,,1,,,66,127
96446,note_off,205,0,0,,1,,,66,127
96446,note_off,0,0,0,,0,,,69,95
96446,note_off,0,0,0,,0,,,60,95
96447,note_on,1,0,0,,0,,,58,95
96447,note_on,0,0,0,,0,,,74,95
96447,note_on,0,0,0,,1,,,79,127
96652,note_off,205,0,0,,0,,,74,95
96652,note_off,0,0,0,,0,,,58,95
96653,note_on,1,0,0,,0,,,57,95
96653,note_on,0,0,0,,0,,,72,95
96858,note_off,205,0,0,,0,,,72,95
96858,note_off,0,0,0,,0,,,57,95
96859,note_on,1,0,0,,0,,,55,95
96859,note_on,0,0,0,,0,,,70,95
97064,note_off,205,0,0,,0,,,70,95
97064,note_off,0,0,0,,0,,,55,95
97064,note_off,0,0,0,,1,,,79,127
97065,note_on,1,0,0,,0,,,54,95
97065,note_on,0,0,0,,0,,,69,95
97065,note_on,0,0,0,,1,,,86,127
97270,note_off,205,0,0,,0,,,69,95
97270,note_off,0,0,0,,0,,,54,95
97271,note_on,1,0,0,,0,,,50,95
97271,note_on,0,0,0,,0,,,66,95
97476,note_off,205,0,0,,0,,,66,95
97476,note_off,0,0,0,,0,,,50,95
97477,note_on,1,0,0,,0,,,54,95
97477,note_on,0,0,0,,0,,,69,95
97682,note_off,205,0,0,,0,,,69,95
97682,note_off,0,0,0,,0,,,54,95
97682,note_off,0,0,0,,1,,,86,127
97683,note_on,1,0,0,,0,,,55,95
97683,note_on,0,0,0,,0,,,67,95
97683,note_on,0,0,0,,1,,,82,127
97888,note_off,205,0,0,,1,,,82,127
97888,note_off,0,0,0,,0,,,55,95
97889,note_on,1,0,0,,0,,,55,95
97889,note_on,0,0,0,,1,,,79,127
98094,note_off,205,0,0,,1,,,79,127
98094,note_off,0,0,0,,0,,,55,95
98094,note_off,0,0,0,,0,,,67,95
98095,note_on,1,0,0,,0,,,67,95
98095,note_on,0,0,0,,1,,,76,127
98300,note_off,205,0,0,,1,,,76,127
98301,note_on,1,0,0,,1,,,73,127
98506,note_off,205,0,0,,1,,,73,127
98506,note_off,0,0,0,,0,,,67,95
98507,note_on,1,0,0,,0,,,65,95
98507,note_on,0,0,0,,0,,,69,95
98507,note_on,0,0,0,,1,,,74,127
98712,note_off,205,0,0,,1,,,74,127
98712,note_off,0,0,0,,0,,,69,95
98712,note_off,0,0,0,,0,,,65,95
98713,note_on,1,0,0,,0,,,64,95
98713,note_on,0,0,0,,0,,,73,95
98713,note_on,0,0,0,,1,,,76,127
98918,note_off,205,0,0,,1,,,76,127
98918,note_off,0,0,0,,0,,,73,95
98918,note_off,0,0,0,,0,,,64,95
98919,note_on,1,0,0,,0,,,62,95
98919,note_on,0,0,0,,0,,,69,95
98919,note_on,0,0,0,,1,,,77,127
99124,note_off,205,0,0,,1,,,77,127
99124,note_off,0,0,0,,0,,,69,95
99125,note_on,1,0,0,,0,,,65,95
99125,note_on,0,0,0,,1,,,74,127
99330,note_off,205,0,0,,1,,,74,127
99330,note_off,0,0,0,,0,,,65,95
99331,note_on,1,0,0,,0,,,69,95
99331,note_on,0,0,0,,1,,,77,127
99536,note_off,205,0,0,,1,,,77,127
99536,note_off,0,0,0,,0,,,69,95
99536,note_off,0,0,0,,0,,,62,95
99537,note_on,1,0,0,,0,,,57,95
99537,note_on,0,0,0,,0,,,73,95
99537,note_on,0,0,0,,1,,,76,127
99742,note_off,205,0,0,,1,,,76,127
99742,note_off,0,0,0,,0,,,73,95
99743,note_on,1,0,0,,0,,,76,95
99743,note_on,0,0,0,,1,,,81,127
99948,note_off,205,0,0,,1,,,81,127
99948,note_off,0,0,0,,0,,,76,95
99949,note_on,1,0,0,,0,,,64,95
99949,note_on,0,0,0,,1,,,73,127
100154,note_off,205,0,0,,1,,,73,127
100154,note_off,0,0,0,,0,,,64,95
100154,note_off,0,0,0,,0,,,57,95
100155,note_on,1,0,0,,0,,,50,95
100155,note_on,0,0,0,,0,,,66,95
100155,note_on,0,0,0,,1,,,74,127
100360,note_off,205,0,0,,1,,,74,127
100360,note_off,0,0,0,,0,,,66,95
100361,note_on,1,0,0,,0,,,67,95
100361,note_on,0,0,0,,1,,,69,127
100566,note_off,205,0,0,,1,,,69,127
100566,note_off,0,0,0,,0,,,67,95
100567,note_on,1,0,0,,0,,,69,95
100567,note_on,0,0,0,,1,,,72,127
100772,note_off,205,0,0,,1,,,72,127
100772,note_off,0,0,0,,0,,,69,95
100772,note_off,0,0,0,,0,,,50,95
100773,note_on,1,0,0,,0,,,55,95
100773,note_on,0,0,0,,0,,,74,95
100773,note_on,0,0,0,,1,,,70,127
100978,note_off,205,0,0,,1,,,70,127
100978,note_off,0,0,0,,0,,,74,95
100979,note_on,1,0,0,,0,,,72,95
100979,note_on,0,0,0,,1,,,74,127
101184,note_off,205,0,0,,1,,,74,127
101184,note_off,0,0,0,,0,,,72,95
101185,note_on,1,0,0,,0,,,70,95
101185,note_on,0,0,0,,1,,,79,127
101390,note_off,205,0,0,,1,,,79,127
101390,note_off,0,0,0,,0,,,70,95
101390,note_off,0,0,0,,0,,,55,95
101391,note_on,1,0,0,,0,,,51,95
101391,note_on,0,0,0,,0,,,72,95
101391,note_on,0,0,0,,1,,,67,127
101596,note_off,205,0,0,,1,,,67,127
101596,note_off,0,0,0,,0,,,51,95
101597,note_on,1,0,0,,0,,,48,95
101597,note_on,0,0,0,,1,,,67,127
101802,note_off,205,0,0,,1,,,67,127
101802,note_off,0,0,0,,0,,,48,95
101803,note_on,1,0,0,,0,,,45,95
101803,note_on,0,0,0,,1,,,72,127
102008,note_off,205,0,0,,0,,,45,95
102008,note_off,0,0,0,,0,,,72,95
102009,note_on,1,0,0,,0,,,42,95
102009,note_on,0,0,0,,0,,,69,95
102214,note_off,205,0,0,,0,,,42,95
102214,note_off,0,0,0,,1,,,72,127
102215,note_on,1,0,0,,0,,,43,95
102215,note_on,0,0,0,,1,,,70,127
102420,note_off,205,0,0,,1,,,70,127
102420,note_off,0,0,0,,0,,,43,95
102421,note_on,1,0,0,,0,,,45,95
102421,note_on,0,0,0,,1,,,72,127
102626,note_off,205,0,0,,1,,,72,127
102626,note_off,0,0,0,,0,,,45,95
102626,note_off,0,0,0,,0,,,69,95
102627,note_on,1,0,0,,0,,,46,95
102627,note_on,0,0,0,,0,,,67,95
102627,note_on,0,0,0,,1,,,74,127
102832,note_off,205,0,0,,0,,,67,95
102832,note_off,0,0,0,,0,,,46,95
102833,note_on,1,0,0,,0,,,43,95
102833,note_on,0,0,0,,0,,,70,95
103038,note_off,205,0,0,,0,,,70,95
103038,note_off,0,0,0,,0,,,43,95
103039,note_on,1,0,0,,0,,,46,95
103039,note_on,0,0,0,,0,,,67,95
103244,note_off,205,0,0,,0,,,67,95
103244,note_off,0,0,0,,0,,,46,95
103244,note_off,0,0,0,,1,,,74,127
103245,note_on,1,0,0,,0,,,45,95
103245,note_on,0,0,0,,1,,,72,127
103245,note_on,0,0,0,,1,,,66,127
103450,note_off,205,0,0,,0,,,45,95
103451,note_on,1,0,0,,0,,,50,95
103451,note_on,0,0,0,,0,,,69,95
103656,note_off,205,0,0,,0,,,69,95
103656,note_off,0,0,0,,0,,,50,95
103657,note_on,1,0,0,,0,,,42,95
103657,note_on,0,0,0,,0,,,72,95
103862,note_off,205,0,0,,0,,,72,95
103862,note_off,0,0,0,,0,,,42,95
103862,note_off,0,0,0,,1,,,66,127
103862,note_off,0,0,0,,1,,,72,127
103863,note_on,1,0,0,,0,,,43,95
103863,note_on,0,0,0,,0,,,62,95
103863,note_on,0,0,0,,1,,,70,127
104068,note_off,205,0,0,,1,,,70,127
104068,note_off,0,0,0,,0,,,62,95
104069,note_on,1,0,0,,0,,,58,95
104069,note_on,0,0,0,,1,,,74,127
104274,note_off,205,0,0,,1,,,74,127
104274,note_off,0,0,0,,0,,,58,95
104275,note_on,1,0,0,,0,,,62,95
104275,note_on,0,0,0,,1,,,79,127
104480,note_off,205,0,0,,0,,,62,95
104480,note_off,0,0,0,,0,,,43,95
104481,note_on,1,0,0,,0,,,51,95
104481,note_on,0,0,0,,0,,,60,95
104686,note_off,205,0,0,,0,,,60,95
104686,note_off,0,0,0,,1,,,79,127
104687,note_on,1,0,0,,0,,,62,95
104687,note_on,0,0,0,,1,,,75,127
104892,note_off,205,0,0,,1,,,75,127
104892,note_off,0,0,0,,0,,,62,95
104893,note_on,1,0,0,,0,,,63,95
104893,note_on,0,0,0,,1,,,72,127
105098,note_off,205,0,0,,1,,,72,127
105098,note_off,0,0,0,,0,,,63,95
105098,note_off,0,0,0,,0,,,51,95
105099,note_on,1,0,0,,0,,,41,95
105099,note_on,0,0,0,,0,,,65,95
105099,note_on,0,0,0,,1,,,69,127
105304,note_off,205,0,0,,1,,,69,127
105304,note_off,0,0,0,,0,,,65,95
105305,note_on,1,0,0,,0,,,67,95
105305,note_on,0,0,0,,1,,,72,127
105510,note_off,205,0,0,,1,,,72,127
105510,note_off,0,0,0,,0,,,67,95
105511,note_on,1,0,0,,0,,,69,95
105511,note_on,0,0,0,,1,,,77,127
105716,note_off,205,0,0,,0,,,69,95
105716,note_off,0,0,0,,0,,,41,95
105717,note_on,1,0,0,,0,,,50,95
105717,note_on,0,0,0,,0,,,70,95
105922,note_off,205,0,0,,1,,,77,127
105923,note_on,1,0,0,,1,,,74,127
106128,note_off,205,0,0,,1,,,74,127
106128,note_off,0,0,0,,0,,,70,95
106129,note_on,1,0,0,,0,,,65,95
106129,note_on,0,0,0,,1,,,70,127
106334,note_off,205,0,0,,1,,,70,127
106334,note_off,0,0,0,,0,,,65,95
106334,note_off,0,0,0,,0,,,50,95
106335,note_on,1,0,0,,0,,,39,95
106335,note_on,0,0,0,,0,,,63,95
106335,note_on,0,0,0,,1,,,67,127
106540,note_off,205,0,0,,1,,,67,127
106540,note_off,0,0,0,,0,,,63,95
106541,note_on,1,0,0,,0,,,65,95
106541,note_on,0,0,0,,1,,,70,127
106746,note_off,205,0,0,,1,,,70,127
106746,note_off,0,0,0,,0,,,65,95
106747,note_on,1,0,0,,0,,,67,95
106747,note_on,0,0,0,,1,,,75,127
106952,note_off,205,0,0,,0,,,67,95
106952,note_off,0,0,0,,0,,,39,95
106953,note_on,1,0,0,,0,,,48,95
106953,note_on,0,0,0,,0,,,69,95
107158,note_off,205,0,0,,1,,,75,127
107159,note_on,1,0,0,,1,,,72,127
107364,note_off,205,0,0,,1,,,72,127
107364,note_off,0,0,0,,0,,,69,95
107365,note_on,1,0,0,,0,,,63,95
107365,note_on,0,0,0,,1,,,69,127
107570,note_off,205,0,0,,1,,,69,127
107570,note_off,0,0,0,,0,,,63,95
107570,note_off,0,0,0,,0,,,48,95
107571,note_on,1,0,0,,0,,,62,95
107571,note_on,0,0,0,,1,,,65,127
107776,note_off,205,0,0,,0,,,62,95
107777,note_on,1,0,0,,0,,,50,95
107777,note_on,0,0,0,,0,,,63,95
107982,note_off,205,0,0,,0,,,63,95
107982,note_off,0,0,0,,0,,,50,95
107983,note_on,1,0,0,,0,,,62,95
107983,note_on,0,0,0,,0,,,65,95
108188,note_off,205,0,0,,0,,,65,95
108188,note_off,0,0,0,,1,,,65,127
108189,note_on,1,0,0,,0,,,67,95
108189,note_on,0,0,0,,1,,,70,127
108394,note_off,205,0,0,,0,,,67,95
108394,note_off,0,0,0,,0,,,62,95
108395,note_on,1,0,0,,0,,,58,95
108395,note_on,0,0,0,,0,,,69,95
108600,note_off,205,0,0,,0,,,69,95
108600,note_off,0,0,0,,0,,,58,95
108601,note_on,1,0,0,,0,,,55,95
108601,note_on,0,0,0,,0,,,70,95
108806,note_off,205,0,0,,0,,,70,95
108806,note_off,0,0,0,,0,,,55,95
108806,note_off,0,0,0,,1,,,70,127
108807,note_on,1,0,0,,0,,,51,95
108807,note_on,0,0,0,,1,,,79,127
108807,note_on,0,0,0,,1,,,70,127
109012,note_off,205,0,0,,0,,,51,95
109013,note_on,1,0,0,,0,,,55,95
109013,note_on,0,0,0,,0,,,70,95
109218,note_off,205,0,0,,0,,,70,95
109218,note_off,0,0,0,,0,,,55,95
109219,note_on,1,0,0,,0,,,60,95
109219,note_on,0,0,0,,0,,,72,95
109424,note_off,205,0,0,,0,,,72,95
109424,note_off,0,0,0,,1,,,70,127
109424,note_off,0,0,0,,1,,,79,127
109425,note_on,1,0,0,,0,,,65,95
109425,note_on,0,0,0,,1,,,69,127
109630,note_off,205,0,0,,0,,,65,95
109630,note_off,0,0,0,,0,,,60,95
109631,note_on,1,0,0,,0,,,57,95
109631,note_on,0,0,0,,0,,,67,95
109836,note_off,205,0,0,,0,,,67,95
109836,note_off,0,0,0,,0,,,57,95
109837,note_on,1,0,0,,0,,,53,95
109837,note_on,0,0,0,,0,,,69,95
110042,note_off,205,0,0,,0,,,69,95
110042,note_off,0,0,0,,0,,,53,95
110042,note_off,0,0,0,,1,,,69,127
110043,note_on,1,0,0,,0,,,50,95
110043,note_on,0,0,0,,0,,,70,95
110043,note_on,0,0,0,,1,,,77,127
110248,note_off,205,0,0,,0,,,70,95
110248,note_off,0,0,0,,0,,,50,95
110249,note_on,1,0,0,,0,,,53,95
110249,note_on,0,0,0,,0,,,69,95
110454,note_off,205,0,0,,0,,,69,95
110454,note_off,0,0,0,,0,,,53,95
110455,note_on,1,0,0,,0,,,58,95
110455,note_on,0,0,0,,0,,,70,95
110660,note_off,205,0,0,,0,,,70,95
110660,note_off,0,0,0,,1,,,77,127
110661,note_on,1,0,0,,0,,,74,95
110661,note_on,0,0,0,,1,,,82,127
110866,note_off,205,0,0,,0,,,74,95
110866,note_off,0,0,0,,0,,,58,95
110867,note_on,1,0,0,,0,,,55,95
110867,note_on,0,0,0,,0,,,70,95
111072,note_off,205,0,0,,0,,,70,95
111072,note_off,0,0,0,,0,,,55,95
111073,note_on,1,0,0,,0,,,50,95
111073,note_on,0,0,0,,0,,,77,95
111278,note_off,205,0,0,,0,,,77,95
111278,note_off,0,0,0,,0,,,50,95
111278,note_off,0,0,0,,1,,,82,127
111279,note_on,1,0,0,,0,,,51,95
111279,note_on,0,0,0,,0,,,72,95
111279,note_on,0,0,0,,1,,,79,127
111484,note_off,205,0,0,,1,,,79,127
111484,note_off,0,0,0,,0,,,51,95
111485,note_on,1,0,0,,0,,,51,95
111485,note_on,0,0,0,,1,,,75,127
111690,note_off,205,0,0,,1,,,75,127
111690,note_off,0,0,0,,0,,,51,95
111691,note_on,1,0,0,,0,,,63,95
111691,note_on,0,0,0,,1,,,72,127
111896,note_off,205,0,0,,1,,,72,127
111896,note_off,0,0,0,,0,,,72,95
111897,note_on,1,0,0,,0,,,65,95
111897,note_on,0,0,0,,1,,,69,127
112102,note_off,205,0,0,,1,,,69,127
112102,note_off,0,0,0,,0,,,63,95
112103,note_on,1,0,0,,0,,,62,95
112103,note_on,0,0,0,,1,,,70,127
112308,note_off,205,0,0,,1,,,70,127
112308,note_off,0,0,0,,0,,,62,95
112309,note_on,1,0,0,,0,,,60,95
112309,note_on,0,0,0,,1,,,72,127
112514,note_off,205,0,0,,1,,,72,127
112514,note_off,0,0,0,,0,,,60,95
112515,note_on,1,0,0,,0,,,58,95
112515,note_on,0,0,0,,1,,,74,127
112720,note_off,205,0,0,,1,,,74,127
112720,note_off,0,0,0,,0,,,65,95
112721,note_on,1,0,0,,0,,,65,95
112721,note_on,0,0,0,,1,,,70,127
112926,note_off,205,0,0,,1,,,70,127
112926,note_off,0,0,0,,0,,,65,95
112927,note_on,1,0,0,,0,,,70,95
112927,note_on,0,0,0,,1,,,74,127
113132,note_off,205,0,0,,1,,,74,127
113132,note_off,0,0,0,,0,,,70,95
113132,note_off,0,0,0,,0,,,58,95
113133,note_on,1,0,0,,0,,,65,95
113133,note_on,0,0,0,,0,,,69,95
113133,note_on,0,0,0,,1,,,72,127
113338,note_off,205,0,0,,1,,,72,127
113338,note_off,0,0,0,,0,,,69,95
113339,note_on,1,0,0,,0,,,70,95
113339,note_on,0,0,0,,1,,,77,127
113544,note_off,205,0,0,,1,,,77,127
113544,note_off,0,0,0,,0,,,70,95
113545,note_on,1,0,0,,0,,,72,95
113545,note_on,0,0,0,,1,,,69,127
113750,note_off,205,0,0,,1,,,69,127
113750,note_off,0,0,0,,0,,,72,95
113750,note_off,0,0,0,,0,,,65,95
113751,note_on,1,0,0,,0,,,62,95
113751,note_on,0,0,0,,0,,,65,95
113751,note_on,0,0,0,,1,,,70,127
113956,note_off,205,0,0,,1,,,70,127
113956,note_off,0,0,0,,0,,,62,95
113957,note_on,1,0,0,,0,,,58,95
113957,note_on,0,0,0,,1,,,70,127
114162,note_off,205,0,0,,1,,,70,127
114162,note_off,0,0,0,,0,,,58,95
114163,note_on,1,0,0,,0,,,55,95
114163,note_on,0,0,0,,1,,,82,127
114368,note_off,205,0,0,,0,,,55,95
114368,note_off,0,0,0,,0,,,65,95
114369,note_on,1,0,0,,0,,,52,95
114369,note_on,0,0,0,,0,,,67,95
114574,note_off,205,0,0,,0,,,52,95
114574,note_off,0,0,0,,1,,,82,127
114575,note_on,1,0,0,,0,,,53,95
114575,note_on,0,0,0,,1,,,81,127
114780,note_off,205,0,0,,1,,,81,127
114780,note_off,0,0,0,,0,,,53,95
114781,note_on,1,0,0,,0,,,55,95
114781,note_on,0,0,0,,1,,,82,127
114986,note_off,205,0,0,,1,,,82,127
114986,note_off,0,0,0,,0,,,55,95
114986,note_off,0,0,0,,0,,,67,95
114987,note_on,1,0,0,,0,,,57,95
114987,note_on,0,0,0,,0,,,65,95
114987,note_on,0,0,0,,1,,,84,127
115192,note_off,205,0,0,,0,,,65,95
115192,note_off,0,0,0,,0,,,57,95
115193,note_on,1,0,0,,0,,,53,95
115193,note_on,0,0,0,,0,,,69,95
115398,note_off,205,0,0,,0,,,69,95
115398,note_off,0,0,0,,0,,,53,95
115399,note_on,1,0,0,,0,,,57,95
115399,note_on,0,0,0,,0,,,72,95
115604,note_off,205,0,0,,0,,,57,95
115604,note_off,0,0,0,,1,,,84,127
115605,note_on,1,0,0,,0,,,55,95
115605,note_on,0,0,0,,1,,,82,127
115810,note_off,205,0,0,,0,,,55,95
115810,note_off,0,0,0,,0,,,72,95
115811,note_on,1,0,0,,0,,,60,95
115811,note_on,0,0,0,,0,,,70,95
116016,note_off,205,0,0,,0,,,70,95
116016,note_off,0,0,0,,0,,,60,95
116017,note_on,1,0,0,,0,,,52,95
116017,note_on,0,0,0,,0,,,67,95
116222,note_off,205,0,0,,0,,,67,95
116222,note_off,0,0,0,,0,,,52,95
116222,note_off,0,0,0,,1,,,82,127
116223,note_on,1,0,0,,0,,,53,95
116223,note_on,0,0,0,,0,,,72,95
116223,note_on,0,0,0,,1,,,81,127
116428,note_off,205,0,0,,1,,,81,127
116428,note_off,0,0,0,,0,,,53,95
116429,note_on,1,0,0,,0,,,53,95
116429,note_on,0,0,0,,1,,,84,127
116634,note_off,205,0,0,,1,,,84,127
116634,note_off,0,0,0,,0,,,53,95
116634,note_off,0,0,0,,0,,,72,95
116635,note_on,1,0,0,,0,,,65,95
116635,note_on,0,0,0,,1,,,81,127
116840,note_off,205,0,0,,1,,,81,127
116841,note_on,1,0,0,,1,,,77,127
117046,note_off,205,0,0,,0,,,65,95
117047,note_on,1,0,0,,0,,,62,95
117047,note_on,0,0,0,,0,,,69,95
117252,note_off,205,0,0,,0,,,69,95
117252,note_off,0,0,0,,0,,,62,95
117253,note_on,1,0,0,,0,,,63,95
117253,note_on,0,0,0,,0,,,70,95
117458,note_off,205,0,0,,0,,,70,95
117458,note_off,0,0,0,,0,,,63,95
117459,note_on,1,0,0,,0,,,65,95
117459,note_on,0,0,0,,0,,,69,95
117664,note_off,205,0,0,,0,,,69,95
117664,note_off,0,0,0,,1,,,77,127
117665,note_on,1,0,0,,0,,,72,95
117665,note_on,0,0,0,,1,,,75,127
117870,note_off,205,0,0,,1,,,75,127
117870,note_off,0,0,0,,0,,,72,95
117871,note_on,1,0,0,,0,,,70,95
117871,note_on,0,0,0,,1,,,74,127
118076,note_off,205,0,0,,1,,,74,127
118076,note_off,0,0,0,,0,,,70,95
118076,note_off,0,0,0,,0,,,65,95
118077,note_on,1,0,0,,0,,,63,95
118077,note_on,0,0,0,,0,,,69,95
118077,note_on,0,0,0,,1,,,72,127
118282,note_off,205,0,0,,1,,,72,127
118282,note_off,0,0,0,,0,,,69,95
118283,note_on,1,0,0,,0,,,69,95
118283,note_on,0,0,0,,1,,,77,127
118488,note_off,205,0,0,,1,,,77,127
118488,note_off,0,0,0,,0,,,69,95
118489,note_on,1,0,0,,0,,,65,95
118489,note_on,0,0,0,,1,,,69,127
118694,note_off,205,0,0,,1,,,69,127
118694,note_off,0,0,0,,0,,,65,95
118694,note_off,0,0,0,,0,,,63,95
118695,note_on,1,0,0,,0,,,62,95
118695,note_on,0,0,0,,0,,,70,95
118695,note_on,0,0,0,,1,,,70,127
118900,note_off,205,0,0,,0,,,70,95
118900,note_off,0,0,0,,0,,,62,95
118901,note_on,1,0,0,,0,,,58,95
118901,note_on,0,0,0,,0,,,74,95
119106,note_off,205,0,0,,0,,,74,95
119106,note_off,0,0,0,,0,,,58,95
119107,note_on,1,0,0,,0,,,62,95
119107,note_on,0,0,0,,0,,,70,95
119312,note_off,205,0,0,,0,,,70,95
119312,note_off,0,0,0,,0,,,62,95
119312,note_off,0,0,0,,1,,,70,127
119313,note_on,1,0,0,,0,,,60,95
119313,note_on,0,0,0,,0,,,69,95
119313,note_on,0,0,0,,1,,,69,127
119313,note_on,0,0,0,,1,,,75,127
119518,note_off,205,0,0,,0,,,69,95
119518,note_off,0,0,0,,0,,,60,95
119519,note_on,1,0,0,,0,,,65,95
119519,note_on,0,0,0,,0,,,72,95
119724,note_off,205,0,0,,0,,,72,95
119724,note_off,0,0,0,,0,,,65,95
119725,note_on,1,0,0,,0,,,57,95
119725,note_on,0,0,0,,0,,,75,95
119930,note_off,205,0,0,,0,,,75,95
119930,note_off,0,0,0,,0,,,57,95
119930,note_off,0,0,0,,1,,,75,127
119930,note_off,0,0,0,,1,,,69,127
119931,note_on,1,0,0,,0,,,58,95
119931,note_on,0,0,0,,0,,,74,95
119931,note_on,0,0,0,,1,,,74,127
120136,note_off,205,0,0,,0,,,74,95
120136,note_off,0,0,0,,0,,,58,95
120137,note_on,1,0,0,,0,,,55,95
120137,note_on,0,0,0,,0,,,70,95
120342,note_off,205,0,0,,0,,,70,95
120342,note_off,0,0,0,,0,,,55,95
120343,note_on,1,0,0,,0,,,58,95
120343,note_on,0,0,0,,0,,,67,95
120548,note_off,205,0,0,,0,,,67,95
120548,note_off,0,0,0,,0,,,58,95
120548,note_off,0,0,0,,1,,,74,127
120549,note_on,1,0,0,,0,,,57,95
120549,note_on,0,0,0,,0,,,66,95
120549,note_on,0,0,0,,1,,,72,127
120754,note_off,205,0,0,,0,,,66,95
120754,note_off,0,0,0,,0,,,57,95
120755,note_on,1,0,0,,0,,,62,95
120755,note_on,0,0,0,,0,,,67,95
120960,note_off,205,0,0,,0,,,67,95
120960,note_off,0,0,0,,0,,,62,95
120961,note_on,1,0,0,,0,,,54,95
120961,note_on,0,0,0,,0,,,69,95
121166,note_off,205,0,0,,0,,,69,95
121166,note_off,0,0,0,,0,,,54,95
121166,note_off,0,0,0,,1,,,72,127
121167,note_on,1,0,0,,0,,,55,95
121167,note_on,0,0,0,,0,,,70,95
121167,note_on,0,0,0,,1,,,70,127
121372,note_off,205,0,0,,1,,,70,127
121372,note_off,0,0,0,,0,,,70,95
121373,note_on,1,0,0,,0,,,72,95
121373,note_on,0,0,0,,1,,,74,127
121578,note_off,205,0,0,,1,,,74,127
121578,note_off,0,0,0,,0,,,72,95
121579,note_on,1,0,0,,0,,,74,95
121579,note_on,0,0,0,,1,,,82,127
121784,note_off,205,0,0,,0,,,74,95
121784,note_off,0,0,0,,0,,,55,95
121785,note_on,1,0,0,,0,,,67,95
121785,note_on,0,0,0,,0,,,76,95
121990,note_off,205,0,0,,0,,,76,95
121990,note_off,0,0,0,,1,,,82,127
121991,note_on,1,0,0,,0,,,74,95
121991,note_on,0,0,0,,1,,,79,127
122196,note_off,205,0,0,,1,,,79,127
122196,note_off,0,0,0,,0,,,74,95
122197,note_on,1,0,0,,0,,,73,95
122197,note_on,0,0,0,,1,,,76,127
122402,note_off,205,0,0,,1,,,76,127
122402,note_off,0,0,0,,0,,,67,95
122403,note_on,1,0,0,,0,,,57,95
122403,note_on,0,0,0,,1,,,73,127
122608,note_off,205,0,0,,1,,,73,127
122608,note_off,0,0,0,,0,,,73,95
122609,note_on,1,0,0,,0,,,74,95
122609,note_on,0,0,0,,1,,,76,127
122814,note_off,205,0,0,,1,,,76,127
122814,note_off,0,0,0,,0,,,74,95
122815,note_on,1,0,0,,0,,,73,95
122815,note_on,0,0,0,,1,,,81,127
123020,note_off,205,0,0,,0,,,73,95
123020,note_off,0,0,0,,0,,,57,95
123021,note_on,1,0,0,,0,,,65,95
123021,note_on,0,0,0,,0,,,74,95
123226,note_off,205,0,0,,1,,,81,127
123227,note_on,1,0,0,,1,,,77,127
123432,note_off,205,0,0,,1,,,77,127
123432,note_off,0,0,0,,0,,,74,95
123433,note_on,1,0,0,,0,,,69,95
123433,note_on,0,0,0,,1,,,74,127
123638,note_off,205,0,0,,1,,,74,127
123638,note_off,0,0,0,,0,,,69,95
123638,note_off,0,0,0,,0,,,65,95
123639,note_on,1,0,0,,0,,,55,95
123639,note_on,0,0,0,,0,,,74,95
123639,note_on,0,0,0,,1,,,71,127
123844,note_off,205,0,0,,1,,,71,127
123844,note_off,0,0,0,,0,,,74,95
123845,note_on,1,0,0,,0,,,72,95
123845,note_on,0,0,0,,1,,,74,127
124050,note_off,205,0,0,,1,,,74,127
124050,note_off,0,0,0,,0,,,72,95
124051,note_on,1,0,0,,0,,,71,95
124051,note_on,0,0,0,,1,,,79,127
124256,note_off,205,0,0,,0,,,71,95
124256,note_off,0,0,0,,0,,,55,95
124257,note_on,1,0,0,,0,,,63,95
124257,note_on,0,0,0,,0,,,72,95
124462,note_off,205,0,0,,0,,,72,95
124462,note_off,0,0,0,,1,,,79,127
124463,note_on,1,0,0,,0,,,74,95
124463,note_on,0,0,0,,1,,,75,127
124668,note_off,205,0,0,,1,,,75,127
124668,note_off,0,0,0,,0,,,74,95
124669,note_on,1,0,0,,0,,,75,95
124669,note_on,0,0,0,,1,,,72,127
124874,note_off,205,0,0,,1,,,72,127
124874,note_off,0,0,0,,0,,,75,95
124874,note_off,0,0,0,,0,,,63,95
124875,note_on,1,0,0,,0,,,50,95
124875,note_on,0,0,0,,0,,,74,95
124875,note_on,0,0,0,,1,,,66,127
125080,note_off,205,0,0,,1,,,66,127
125080,note_off,0,0,0,,0,,,74,95
125081,note_on,1,0,0,,0,,,66,95
125081,note_on,0,0,0,,1,,,69,127
125286,note_off,205,0,0,,1,,,69,127
125286,note_off,0,0,0,,0,,,66,95
125287,note_on,1,0,0,,0,,,69,95
125287,note_on,0,0,0,,1,,,72,127
125492,note_off,205,0,0,,1,,,72,127
125492,note_off,0,0,0,,0,,,69,95
125492,note_off,0,0,0,,0,,,50,95
125493,note_on,1,0,0,,0,,,55,95
125493,note_on,0,0,0,,0,,,70,95
125493,note_on,0,0,0,,1,,,70,127
125698,note_off,205,0,0,,1,,,70,127
125698,note_off,0,0,0,,0,,,70,95
125699,note_on,1,0,0,,0,,,72,95
125699,note_on,0,0,0,,1,,,74,127
125904,note_off,205,0,0,,1,,,74,127
125904,note_off,0,0,0,,0,,,72,95
125905,note_on,1,0,0,,0,,,74,95
125905,note_on,0,0,0,,1,,,79,127
126110,note_off,205,0,0,,1,,,79,127
126110,note_off,0,0,0,,0,,,74,95
126110,note_off,0,0,0,,0,,,55,95
126111,note_on,1,0,0,,0,,,51,95
126111,note_on,0,0,0,,0,,,72,95
126111,note_on,0,0,0,,1,,,67,127
126316,note_off,205,0,0,,1,,,67,127
126316,note_off,0,0,0,,0,,,51,95
126317,note_on,1,0,0,,0,,,48,95
126317,note_on,0,0,0,,1,,,67,127
126522,note_off,205,0,0,,1,,,67,127
126522,note_off,0,0,0,,0,,,48,95
126523,note_on,1,0,0,,0,,,45,95
126523,note_on,0,0,0,,1,,,72,127
126728,note_off,205,0,0,,0,,,45,95
126728,note_off,0,0,0,,0,,,72,95
126729,note_on,1,0,0,,0,,,42,95
126729,note_on,0,0,0,,0,,,69,95
126934,note_off,205,0,0,,0,,,42,95
126934,note_off,0,0,0,,1,,,72,127
126935,note_on,1,0,0,,0,,,43,95
126935,note_on,0,0,0,,1,,,70,127
127140,note_off,205,0,0,,1,,,70,127
127140,note_off,0,0,0,,0,,,43,95
127141,note_on,1,0,0,,0,,,45,95
127141,note_on,0,0,0,,1,,,72,127
127346,note_off,205,0,0,,1,,,72,127
127346,note_off,0,0,0,,0,,,45,95
127346,note_off,0,0,0,,0,,,69,95
127347,note_on,1,0,0,,0,,,46,95
127347,note_on,0,0,0,,0,,,67,95
127347,note_on,0,0,0,,1,,,74,127
127552,note_off,205,0,0,,0,,,67,95
127552,note_off,0,0,0,,0,,,46,95
127553,note_on,1,0,0,,0,,,50,95
127553,note_on,0,0,0,,0,,,66,95
127758,note_off,205,0,0,,0,,,66,95
127758,note_off,0,0,0,,0,,,50,95
127759,note_on,1,0,0,,0,,,46,95
127759,note_on,0,0,0,,0,,,67,95
127964,note_off,205,0,0,,0,,,67,95
127964,note_off,0,0,0,,0,,,46,95
127964,note_off,0,0,0,,1,,,74,127
127965,note_on,1,0,0,,0,,,43,95
127965,note_on,0,0,0,,0,,,70,95
127965,note_on,0,0,0,,1,,,79,127
128170,note_off,205,0,0,,0,,,70,95
128170,note_off,0,0,0,,0,,,43,95
128171,note_on,1,0,0,,0,,,46,95
128171,note_on,0,0,0,,0,,,69,95
128376,note_off,205,0,0,,0,,,69,95
128376,note_off,0,0,0,,0,,,46,95
128377,note_on,1,0,0,,0,,,43,95
128377,note_on,0,0,0,,0,,,70,95
128582,note_off,205,0,0,,0,,,70,95
128582,note_off,0,0,0,,0,,,43,95
128582,note_off,0,0,0,,1,,,79,127
128583,note_on,1,0,0,,0,,,48,95
128583,note_on,0,0,0,,0,,,69,95
128583,note_on,0,0,0,,1,,,75,127
128788,note_off,205,0,0,,1,,,75,127
128788,note_off,0,0,0,,0,,,48,95
128789,note_on,1,0,0,,0,,,48,95
128789,note_on,0,0,0,,1,,,72,127
128994,note_off,205,0,0,,1,,,72,127
128994,note_off,0,0,0,,0,,,48,95
128995,note_on,1,0,0,,0,,,60,95
128995,note_on,0,0,0,,1,,,69,127
129200,note_off,205,0,0,,1,,,69,127
129201,note_on,1,0,0,,1,,,66,127
129406,note_off,205,0,0,,1,,,66,127
129406,note_off,0,0,0,,0,,,60,95
129406,note_off,0,0,0,,0,,,69,95
129407,note_on,1,0,0,,0,,,58,95
129407,note_on,0,0,0,,0,,,67,95
129407,note_on,0,0,0,,1,,,67,127
129612,note_off,205,0,0,,1,,,67,127
129612,note_off,0,0,0,,0,,,67,95
129612,note_off,0,0,0,,0,,,58,95
129613,note_on,1,0,0,,0,,,57,95
129613,note_on,0,0,0,,0,,,66,95
129613,note_on,0,0,0,,1,,,69,127
129818,note_off,205,0,0,,1,,,69,127
129818,note_off,0,0,0,,0,,,66,95
129818,note_off,0,0,0,,0,,,57,95
129819,note_on,1,0,0,,0,,,55,95
129819,note_on,0,0,0,,0,,,67,95
129819,note_on,0,0,0,,1,,,70,127
130024,note_off,205,0,0,,1,,,70,127
130024,note_off,0,0,0,,0,,,67,95
130025,note_on,1,0,0,,0,,,70,95
130025,note_on,0,0,0,,1,,,67,127
130230,note_off,205,0,0,,1,,,67,127
130230,note_off,0,0,0,,0,,,70,95
130231,note_on,1,0,0,,0,,,67,95
130231,note_on,0,0,0,,1,,,70,127
130436,note_off,205,0,0,,1,,,70,127
130436,note_off,0,0,0,,0,,,67,95
130436,note_off,0,0,0,,0,,,55,95
130437,note_on,1,0,0,,0,,,62,95
130437,note_on,0,0,0,,0,,,69,95
130437,note_on,0,0,0,,1,,,69,127
130642,note_off,205,0,0,,1,,,69,127
130642,note_off,0,0,0,,0,,,69,95
130643,note_on,1,0,0,,0,,,67,95
130643,note_on,0,0,0,,1,,,74,127
130848,note_off,205,0,0,,1,,,74,127
130848,note_off,0,0,0,,0,,,67,95
130849,note_on,1,0,0,,0,,,69,95
130849,note_on,0,0,0,,1,,,66,127
131054,note_off,205,0,0,,1,,,66,127
131054,note_off,0,0,0,,0,,,69,95
131054,note_off,0,0,0,,0,,,62,95
131055,note_on,1,0,0,,0,,,58,95
131055,note_on,0,0,0,,0,,,74,95
131055,note_on,0,0,0,,1,,,67,127
131260,note_off,205,0,0,,1,,,67,127
131260,note_off,0,0,0,,0,,,74,95
131260,note_off,0,0,0,,0,,,58,95
131261,note_on,1,0,0,,0,,,55,95
131261,note_on,0,0,0,,0,,,70,95
131261,note_on,0,0,0,,1,,,67,127
131466,note_off,205,0,0,,1,,,67,127
131466,note_off,0,0,0,,0,,,55,95
131467,note_on,1,0,0,,0,,,52,95
131467,note_on,0,0,0,,1,,,79,127
131672,note_off,205,0,0,,0,,,52,95
131672,note_off,0,0,0,,0,,,70,95
131673,note_on,1,0,0,,0,,,49,95
131673,note_on,0,0,0,,0,,,76,95
131878,note_off,205,0,0,,0,,,49,95
131878,note_off,0,0,0,,1,,,79,127
131879,note_on,1,0,0,,0,,,50,95
131879,note_on,0,0,0,,1,,,77,127
132084,note_off,205,0,0,,1,,,77,127
132084,note_off,0,0,0,,0,,,50,95
132085,note_on,1,0,0,,0,,,52,95
132085,note_on,0,0,0,,1,,,79,127
132290,note_off,205,0,0,,1,,,79,127
132290,note_off,0,0,0,,0,,,52,95
132290,note_off,0,0,0,,0,,,76,95
132291,note_on,1,0,0,,0,,,53,95
132291,note_on,0,0,0,,0,,,74,95
132291,note_on,0,0,0,,1,,,81,127
132496,note_off,205,0,0,,0,,,74,95
132496,note_off,0,0,0,,0,,,53,95
132497,note_on,1,0,0,,0,,,50,95
132497,note_on,0,0,0,,0,,,69,95
132702,note_off,205,0,0,,0,,,69,95
132702,note_off,0,0,0,,0,,,50,95
132703,note_on,1,0,0,,0,,,53,95
132703,note_on,0,0,0,,0,,,74,95
132908,note_off,205,0,0,,0,,,74,95
132908,note_off,0,0,0,,0,,,53,95
132908,note_off,0,0,0,,1,,,81,127
132909,note_on,1,0,0,,0,,,52,95
132909,note_on,0,0,0,,1,,,79,127
132909,note_on,0,0,0,,1,,,76,127
132909,note_on,0,0,0,,1,,,69,127
132977,note_off,68,0,0,,1,,,69,127
133114,note_off,137,0,0,,0,,,52,95
133115,note_on,1,0,0,,0,,,57,95
133115,note_on,0,0,0,,0,,,73,95
133320,note_off,205,0,0,,0,,,73,95
133320,note_off,0,0,0,,0,,,57,95
133321,note_on,1,0,0,,0,,,49,95
133321,note_on,0,0,0,,0,,,69,95
133526,note_off,205,0,0,,0,,,49,95
133526,note_off,0,0,0,,1,,,76,127
133526,note_off,0,0,0,,1,,,79,127
133527,note_on,1,0,0,,0,,,50,95
133527,note_on,0,0,0,,1,,,77,127
133732,note_off,205,0,0,,1,,,77,127
133732,note_off,0,0,0,,0,,,69,95
133733,note_on,1,0,0,,0,,,74,95
133733,note_on,0,0,0,,1,,,81,127
133938,note_off,205,0,0,,1,,,81,127
133938,note_off,0,0,0,,0,,,74,95
133939,note_on,1,0,0,,0,,,69,95
133939,note_on,0,0,0,,1,,,86,127
134144,note_off,205,0,0,,0,,,69,95
134144,note_off,0,0,0,,0,,,50,95
134145,note_on,1,0,0,,0,,,58,95
134145,note_on,0,0,0,,0,,,67,95
134350,note_off,205,0,0,,0,,,67,95
134350,note_off,0,0,0,,1,,,86,127
134351,note_on,1,0,0,,0,,,69,95
134351,note_on,0,0,0,,1,,,82,127
134556,note_off,205,0,0,,1,,,82,127
134556,note_off,0,0,0,,0,,,69,95
134557,note_on,1,0,0,,0,,,70,95
134557,note_on,0,0,0,,1,,,79,127
134762,note_off,205,0,0,,1,,,79,127
134762,note_off,0,0,0,,0,,,58,95
134763,note_on,1,0,0,,0,,,48,95
134763,note_on,0,0,0,,1,,,76,127
134968,note_off,205,0,0,,1,,,76,127
134968,note_off,0,0,0,,0,,,70,95
134969,note_on,1,0,0,,0,,,69,95
134969,note_on,0,0,0,,1,,,79,127
135174,note_off,205,0,0,,1,,,79,127
135174,note_off,0,0,0,,0,,,69,95
135175,note_on,1,0,0,,0,,,67,95
135175,note_on,0,0,0,,1,,,84,127
135380,note_off,205,0,0,,0,,,67,95
135380,note_off,0,0,0,,0,,,48,95
135381,note_on,1,0,0,,0,,,57,95
135381,note_on,0,0,0,,0,,,65,95
135586,note_off,205,0,0,,0,,,65,95
135586,note_off,0,0,0,,1,,,84,127
135587,note_on,1,0,0,,0,,,67,95
135587,note_on,0,0,0,,1,,,81,127
135792,note_off,205,0,0,,1,,,81,127
135792,note_off,0,0,0,,0,,,67,95
135793,note_on,1,0,0,,0,,,69,95
135793,note_on,0,0,0,,1,,,77,127
135998,note_off,205,0,0,,1,,,77,127
135998,note_off,0,0,0,,0,,,57,95
135999,note_on,1,0,0,,0,,,46,95
135999,note_on,0,0,0,,1,,,74,127
136204,note_off,205,0,0,,1,,,74,127
136204,note_off,0,0,0,,0,,,69,95
136205,note_on,1,0,0,,0,,,67,95
136205,note_on,0,0,0,,1,,,77,127
136410,note_off,205,0,0,,1,,,77,127
136410,note_off,0,0,0,,0,,,67,95
136411,note_on,1,0,0,,0,,,65,95
136411,note_on,0,0,0,,1,,,82,127
136616,note_off,205,0,0,,0,,,65,95
136616,note_off,0,0,0,,0,,,46,95
136617,note_on,1,0,0,,0,,,55,95
136617,note_on,0,0,0,,0,,,63,95
136822,note_off,205,0,0,,0,,,63,95
136822,note_off,0,0,0,,1,,,82,127
136823,note_on,1,0,0,,0,,,65,95
136823,note_on,0,0,0,,1,,,79,127
137028,note_off,205,0,0,,1,,,79,127
137028,note_off,0,0,0,,0,,,65,95
137029,note_on,1,0,0,,0,,,67,95
137029,note_on,0,0,0,,1,,,75,127
137234,note_off,205,0,0,,1,,,75,127
137234,note_off,0,0,0,,0,,,55,95
137235,note_on,1,0,0,,0,,,45,95
137235,note_on,0,0,0,,1,,,72,127
137440,note_off,205,0,0,,1,,,72,127
137440,note_off,0,0,0,,0,,,67,95
137441,note_on,1,0,0,,0,,,66,95
137441,note_on,0,0,0,,1,,,75,127
137646,note_off,205,0,0,,1,,,75,127
137646,note_off,0,0,0,,0,,,66,95
137647,note_on,1,0,0,,0,,,64,95
137647,note_on,0,0,0,,1,,,81,127
137852,note_off,205,0,0,,0,,,64,95
137852,note_off,0,0,0,,0,,,45,95
137853,note_on,1,0,0,,0,,,54,95
137853,note_on,0,0,0,,0,,,62,95
138058,note_off,205,0,0,,0,,,62,95
138058,note_off,0,0,0,,1,,,81,127
138059,note_on,1,0,0,,0,,,69,95
138059,note_on,0,0,0,,1,,,78,127
138264,note_off,205,0,0,,1,,,78,127
138264,note_off,0,0,0,,0,,,69,95
138265,note_on,1,0,0,,0,,,66,95
138265,note_on,0,0,0,,1,,,74,127
138470,note_off,205,0,0,,1,,,74,127
138470,note_off,0,0,0,,0,,,66,95
138470,note_off,0,0,0,,0,,,54,95
138471,note_on,1,0,0,,0,,,55,95
138471,note_on,0,0,0,,0,,,67,95
138471,note_on,0,0,0,,1,,,70,127
138676,note_off,205,0,0,,0,,,55,95
138677,note_on,1,0,0,,0,,,55,95
138882,note_off,205,0,0,,0,,,55,95
138882,note_off,0,0,0,,0,,,67,95
138883,note_on,1,0,0,,0,,,67,95
139088,note_off,205,0,0,,1,,,70,127
139089,note_on,1,0,0,,1,,,82,127
139294,note_off,205,0,0,,0,,,67,95
139295,note_on,1,0,0,,0,,,63,95
139295,note_on,0,0,0,,0,,,72,95
139500,note_off,205,0,0,,0,,,72,95
139500,note_off,0,0,0,,0,,,63,95
139501,note_on,1,0,0,,0,,,60,95
139501,note_on,0,0,0,,0,,,75,95
139706,note_off,205,0,0,,0,,,75,95
139706,note_off,0,0,0,,0,,,60,95
139706,note_off,0,0,0,,1,,,82,127
139707,note_on,1,0,0,,0,,,57,95
139707,note_on,0,0,0,,0,,,77,95
139707,note_on,0,0,0,,1,,,72,127
139912,note_off,205,0,0,,0,,,77,95
139912,note_off,0,0,0,,0,,,57,95
139913,note_on,1,0,0,,0,,,60,95
139913,note_on,0,0,0,,0,,,67,95
140118,note_off,205,0,0,,0,,,67,95
140118,note_off,0,0,0,,0,,,60,95
140119,note_on,1,0,0,,0,,,65,95
140119,note_on,0,0,0,,0,,,69,95
140324,note_off,205,0,0,,0,,,69,95
140324,note_off,0,0,0,,1,,,72,127
140325,note_on,1,0,0,,0,,,72,95
140325,note_on,0,0,0,,1,,,81,127
140530,note_off,205,0,0,,0,,,72,95
140530,note_off,0,0,0,,0,,,65,95
140531,note_on,1,0,0,,0,,,62,95
140736,note_off,205,0,0,,0,,,62,95
140737,note_on,1,0,0,,0,,,58,95
140737,note_on,0,0,0,,0,,,74,95
140942,note_off,205,0,0,,0,,,74,95
140942,note_off,0,0,0,,0,,,58,95
140942,note_off,0,0,0,,1,,,81,127
140943,note_on,1,0,0,,0,,,55,95
140943,note_on,0,0,0,,0,,,75,95
140943,note_on,0,0,0,,1,,,70,127
141148,note_off,205,0,0,,0,,,75,95
141148,note_off,0,0,0,,0,,,55,95
141149,note_on,1,0,0,,0,,,58,95
141149,note_on,0,0,0,,0,,,65,95
141354,note_off,205,0,0,,0,,,65,95
141354,note_off,0,0,0,,0,,,58,95
141355,note_on,1,0,0,,0,,,63,95
141355,note_on,0,0,0,,0,,,67,95
141560,note_off,205,0,0,,0,,,67,95
141560,note_off,0,0,0,,1,,,70,127
141561,note_on,1,0,0,,0,,,70,95
141561,note_on,0,0,0,,1,,,79,127
141766,note_off,205,0,0,,0,,,70,95
141766,note_off,0,0,0,,0,,,63,95
141767,note_on,1,0,0,,0,,,60,95
141972,note_off,205,0,0,,0,,,60,95
141973,note_on,1,0,0,,0,,,57,95
141973,note_on,0,0,0,,0,,,72,95
142178,note_off,205,0,0,,0,,,72,95
142178,note_off,0,0,0,,0,,,57,95
142178,note_off,0,0,0,,1,,,79,127
142179,note_on,1,0,0,,0,,,53,95
142179,note_on,0,0,0,,0,,,74,95
142179,note_on,0,0,0,,1,,,69,127
142384,note_off,205,0,0,,0,,,74,95
142384,note_off,0,0,0,,0,,,53,95
142385,note_on,1,0,0,,0,,,57,95
142385,note_on,0,0,0,,0,,,62,95
142590,note_off,205,0,0,,0,,,62,95
142590,note_off,0,0,0,,0,,,57,95
142591,note_on,1,0,0,,0,,,62,95
142591,note_on,0,0,0,,0,,,69,95
142796,note_off,205,0,0,,0,,,69,95
142796,note_off,0,0,0,,1,,,69,127
142797,note_on,1,0,0,,1,,,71,127
142797,note_on,0,0,0,,1,,,74,127
143002,note_off,205,0,0,,0,,,62,95
143003,note_on,1,0,0,,0,,,59,95
143003,note_on,0,0,0,,0,,,67,95
143208,note_off,205,0,0,,0,,,67,95
143208,note_off,0,0,0,,0,,,59,95
143209,note_on,1,0,0,,0,,,55,95
143209,note_on,0,0,0,,0,,,71,95
143414,note_off,205,0,0,,0,,,71,95
143414,note_off,0,0,0,,0,,,55,95
143414,note_off,0,0,0,,1,,,74,127
143414,note_off,0,0,0,,1,,,71,127
143415,note_on,1,0,0,,0,,,51,95
143415,note_on,0,0,0,,0,,,72,95
143415,note_on,0,0,0,,1,,,79,127
143620,note_off,205,0,0,,0,,,72,95
143620,note_off,0,0,0,,0,,,51,95
143621,note_on,1,0,0,,0,,,55,95
143621,note_on,0,0,0,,0,,,75,95
143826,note_off,205,0,0,,0,,,75,95
143826,note_off,0,0,0,,0,,,55,95
143827,note_on,1,0,0,,0,,,60,95
143827,note_on,0,0,0,,0,,,74,95
144032,note_off,205,0,0,,0,,,74,95
144032,note_off,0,0,0,,1,,,79,127
144033,note_on,1,0,0,,0,,,75,95
144033,note_on,0,0,0,,1,,,84,127
144238,note_off,205,0,0,,0,,,75,95
144238,note_off,0,0,0,,0,,,60,95
144239,note_on,1,0,0,,0,,,63,95
144239,note_on,0,0,0,,0,,,72,95
144444,note_off,205,0,0,,0,,,72,95
144444,note_off,0,0,0,,0,,,63,95
144445,note_on,1,0,0,,0,,,60,95
144445,note_on,0,0,0,,0,,,67,95
144650,note_off,205,0,0,,0,,,67,95
144650,note_off,0,0,0,,0,,,60,95
144650,note_off,0,0,0,,1,,,84,127
144651,note_on,1,0,0,,0,,,53,95
144651,note_on,0,0,0,,0,,,72,95
144651,note_on,0,0,0,,1,,,80,127
144856,note_off,205,0,0,,1,,,80,127
144856,note_off,0,0,0,,0,,,53,95
144857,note_on,1,0,0,,0,,,53,95
144857,note_on,0,0,0,,1,,,77,127
145062,note_off,205,0,0,,1,,,77,127
145062,note_off,0,0,0,,0,,,53,95
145063,note_on,1,0,0,,0,,,65,95
145063,note_on,0,0,0,,1,,,74,127
145268,note_off,205,0,0,,1,,,74,127
145268,note_off,0,0,0,,0,,,72,95
145269,note_on,1,0,0,,0,,,67,95
145269,note_on,0,0,0,,1,,,71,127
145474,note_off,205,0,0,,1,,,71,127
145474,note_off,0,0,0,,0,,,65,95
145475,note_on,1,0,0,,0,,,63,95
145475,note_on,0,0,0,,1,,,72,127
145680,note_off,205,0,0,,1,,,72,127
145680,note_off,0,0,0,,0,,,63,95
145681,note_on,1,0,0,,0,,,62,95
145681,note_on,0,0,0,,1,,,74,127
145886,note_off,205,0,0,,1,,,74,127
145886,note_off,0,0,0,,0,,,62,95
145886,note_off,0,0,0,,0,,,67,95
145887,note_on,1,0,0,,0,,,60,95
145887,note_on,0,0,0,,0,,,67,95
145887,note_on,0,0,0,,1,,,75,127
146092,note_off,205,0,0,,1,,,75,127
146092,note_off,0,0,0,,0,,,60,95
146093,note_on,1,0,0,,0,,,48,95
146093,note_on,0,0,0,,1,,,84,127
146298,note_off,205,0,0,,1,,,84,127
146298,note_off,0,0,0,,0,,,48,95
146298,note_off,0,0,0,,0,,,67,95
146299,note_on,1,0,0,,0,,,60,95
146299,note_on,0,0,0,,0,,,63,95
146299,note_on,0,0,0,,1,,,81,127
146504,note_off,205,0,0,,1,,,81,127
146505,note_on,1,0,0,,1,,,78,127
146710,note_off,205,0,0,,1,,,78,127
146710,note_off,0,0,0,,0,,,63,95
146710,note_off,0,0,0,,0,,,60,95
146711,note_on,1,0,0,,0,,,58,95
146711,note_on,0,0,0,,0,,,62,95
146711,note_on,0,0,0,,1,,,79,127
146916,note_off,205,0,0,,1,,,79,127
146916,note_off,0,0,0,,0,,,58,95
146917,note_on,1,0,0,,0,,,57,95
146917,note_on,0,0,0,,1,,,81,127
147122,note_off,205,0,0,,1,,,81,127
147122,note_off,0,0,0,,0,,,57,95
147122,note_off,0,0,0,,0,,,62,95
147123,note_on,1,0,0,,0,,,55,95
147123,note_on,0,0,0,,0,,,67,95
147123,note_on,0,0,0,,1,,,82,127
147328,note_off,205,0,0,,1,,,82,127
147328,note_off,0,0,0,,0,,,55,95
147329,note_on,1,0,0,,0,,,55,95
147329,note_on,0,0,0,,1,,,79,127
147534,note_off,205,0,0,,1,,,79,127
147534,note_off,0,0,0,,0,,,55,95
147534,note_off,0,0,0,,0,,,67,95
147535,note_on,1,0,0,,0,,,67,95
147535,note_on,0,0,0,,0,,,70,95
147535,note_on,0,0,0,,1,,,76,127
147740,note_off,205,0,0,,1,,,76,127
147741,note_on,1,0,0,,1,,,73,127
147946,note_off,205,0,0,,1,,,73,127
147946,note_off,0,0,0,,0,,,70,95
147946,note_off,0,0,0,,0,,,67,95
147947,note_on,1,0,0,,0,,,66,95
147947,note_on,0,0,0,,0,,,69,95
147947,note_on,0,0,0,,1,,,74,127
148152,note_off,205,0,0,,1,,,74,127
148152,note_off,0,0,0,,0,,,66,95
148153,note_on,1,0,0,,0,,,64,95
148153,note_on,0,0,0,,1,,,76,127
148358,note_off,205,0,0,,1,,,76,127
148358,note_off,0,0,0,,0,,,64,95
148358,note_off,0,0,0,,0,,,69,95
148359,note_on,1,0,0,,0,,,50,95
148359,note_on,0,0,0,,0,,,72,95
148359,note_on,0,0,0,,1,,,66,127
148564,note_off,205,0,0,,1,,,66,127
148564,note_off,0,0,0,,0,,,72,95
148565,note_on,1,0,0,,0,,,69,95
148565,note_on,0,0,0,,1,,,69,127
148770,note_off,205,0,0,,1,,,69,127
148770,note_off,0,0,0,,0,,,69,95
148771,note_on,1,0,0,,0,,,66,95
148771,note_on,0,0,0,,1,,,72,127
148976,note_off,205,0,0,,1,,,72,127
148976,note_off,0,0,0,,0,,,66,95
148976,note_off,0,0,0,,0,,,50,95
148977,note_on,1,0,0,,0,,,55,95
148977,note_on,0,0,0,,0,,,62,95
148977,note_on,0,0,0,,1,,,70,127
149182,note_off,205,0,0,,1,,,70,127
149182,note_off,0,0,0,,0,,,62,95
149183,note_on,1,0,0,,0,,,70,95
149183,note_on,0,0,0,,1,,,74,127
149388,note_off,205,0,0,,1,,,74,127
149388,note_off,0,0,0,,0,,,70,95
149389,note_on,1,0,0,,0,,,74,95
149389,note_on,0,0,0,,1,,,79,127
149594,note_off,205,0,0,,1,,,79,127
149594,note_off,0,0,0,,0,,,74,95
149594,note_off,0,0,0,,0,,,55,95
149595,note_on,1,0,0,,0,,,51,95
149595,note_on,0,0,0,,0,,,72,95
149595,note_on,0,0,0,,1,,,67,127
149800,note_off,205,0,0,,1,,,67,127
149800,note_off,0,0,0,,0,,,51,95
149801,note_on,1,0,0,,0,,,48,95
149801,note_on,0,0,0,,1,,,67,127
150006,note_off,205,0,0,,1,,,67,127
150006,note_off,0,0,0,,0,,,48,95
150007,note_on,1,0,0,,0,,,45,95
150007,note_on,0,0,0,,1,,,72,127
150212,note_off,205,0,0,,0,,,45,95
150212,note_off,0,0,0,,0,,,72,95
150213,note_on,1,0,0,,0,,,42,95
150213,note_on,0,0,0,,0,,,69,95
150418,note_off,205,0,0,,0,,,42,95
150418,note_off,0,0,0,,1,,,72,127
150419,note_on,1,0,0,,0,,,43,95
150419,note_on,0,0,0,,1,,,70,127
150624,note_off,205,0,0,,1,,,70,127
150624,note_off,0,0,0,,0,,,43,95
150625,note_on,1,0,0,,0,,,45,95
150625,note_on,0,0,0,,1,,,72,127
150830,note_off,205,0,0,,1,,,72,127
150830,note_off,0,0,0,,0,,,45,95
150830,note_off,0,0,0,,0,,,69,95
150831,note_on,1,0,0,,0,,,46,95
150831,note_on,0,0,0,,0,,,67,95
150831,note_on,0,0,0,,1,,,74,127
151036,note_off,205,0,0,,0,,,67,95
151036,note_off,0,0,0,,0,,,46,95
151037,note_on,1,0,0,,0,,,43,95
151037,note_on,0,0,0,,0,,,70,95
151242,note_off,205,0,0,,0,,,70,95
151242,note_off,0,0,0,,0,,,43,95
151243,note_on,1,0,0,,0,,,46,95
151243,note_on,0,0,0,,0,,,67,95
151448,note_off,205,0,0,,0,,,67,95
151448,note_off,0,0,0,,0,,,46,95
151448,note_off,0,0,0,,1,,,74,127
151449,note_on,1,0,0,,0,,,45,95
151449,note_on,0,0,0,,1,,,72,127
151449,note_on,0,0,0,,1,,,66,127
151654,note_off,205,0,0,,0,,,45,95
151655,note_on,1,0,0,,0,,,50,95
151655,note_on,0,0,0,,0,,,69,95
151860,note_off,205,0,0,,0,,,69,95
151860,note_off,0,0,0,,0,,,50,95
151861,note_on,1,0,0,,0,,,42,95
151861,note_on,0,0,0,,0,,,69,95
152066,note_off,205,0,0,,0,,,69,95
152066,note_off,0,0,0,,0,,,42,95
152066,note_off,0,0,0,,1,,,66,127
152066,note_off,0,0,0,,1,,,72,127
152067,note_on,1,0,0,,0,,,43,95
152067,note_on,0,0,0,,0,,,70,95
152067,note_on,0,0,0,,1,,,70,127
152272,note_off,205,0,0,,1,,,70,127
152273,note_on,1,0,0,,1,,,74,127
152478,note_off,205,0,0,,1,,,74,127
152478,note_off,0,0,0,,0,,,70,95
152479,note_on,1,0,0,,0,,,62,95
152479,note_on,0,0,0,,1,,,79,127
152684,note_off,205,0,0,,1,,,79,127
152684,note_off,0,0,0,,0,,,43,95
152685,note_on,1,0,0,,0,,,55,95
152685,note_on,0,0,0,,1,,,82,127
152890,note_off,205,0,0,,0,,,55,95
152890,note_off,0,0,0,,0,,,62,95
152891,note_on,1,0,0,,0,,,58,95
152891,note_on,0,0,0,,0,,,67,95
153096,note_off,205,0,0,,0,,,67,95
153096,note_off,0,0,0,,0,,,58,95
153097,note_on,1,0,0,,0,,,55,95
153097,note_on,0,0,0,,0,,,70,95
153302,note_off,205,0,0,,0,,,70,95
153302,note_off,0,0,0,,0,,,55,95
153302,note_off,0,0,0,,1,,,82,127
153303,note_on,1,0,0,,0,,,51,95
153303,note_on,0,0,0,,0,,,67,95
153303,note_on,0,0,0,,1,,,70,127
153508,note_off,205,0,0,,1,,,70,127
153509,note_on,1,0,0,,1,,,75,127
153714,note_off,205,0,0,,1,,,75,127
153714,note_off,0,0,0,,0,,,67,95
153715,note_on,1,0,0,,0,,,70,95
153715,note_on,0,0,0,,1,,,79,127
153920,note_off,205,0,0,,1,,,79,127
153921,note_on,1,0,0,,1,,,82,127
154126,note_off,205,0,0,,0,,,70,95
154126,note_off,0,0,0,,0,,,51,95
154127,note_on,1,0,0,,0,,,55,95
154127,note_on,0,0,0,,0,,,63,95
154332,note_off,205,0,0,,0,,,63,95
154332,note_off,0,0,0,,0,,,55,95
154333,note_on,1,0,0,,0,,,51,95
154333,note_on,0,0,0,,0,,,67,95
154538,note_off,205,0,0,,0,,,67,95
154538,note_off,0,0,0,,0,,,51,95
154538,note_off,0,0,0,,1,,,82,127
154539,note_on,1,0,0,,0,,,49,95
154539,note_on,0,0,0,,0,,,65,95
154539,note_on,0,0,0,,1,,,70,127
154744,note_off,205,0,0,,1,,,70,127
154745,note_on,1,0,0,,1,,,73,127
154950,note_off,205,0,0,,1,,,73,127
154950,note_off,0,0,0,,0,,,65,95
154951,note_on,1,0,0,,0,,,70,95
154951,note_on,0,0,0,,1,,,77,127
155156,note_off,205,0,0,,1,,,77,127
155157,note_on,1,0,0,,1,,,82,127
155362,note_off,205,0,0,,0,,,70,95
155362,note_off,0,0,0,,0,,,49,95
155363,note_on,1,0,0,,0,,,46,95
155363,note_on,0,0,0,,0,,,73,95
155568,note_off,205,0,0,,0,,,73,95
155568,note_off,0,0,0,,0,,,46,95
155569,note_on,1,0,0,,0,,,49,95
155569,note_on,0,0,0,,0,,,65,95
155774,note_off,205,0,0,,0,,,65,95
155774,note_off,0,0,0,,0,,,49,95
155775,note_on,1,0,0,,0,,,48,95
155775,note_on,0,0,0,,0,,,64,95
155980,note_off,205,0,0,,0,,,64,95
155980,note_off,0,0,0,,1,,,82,127
155981,note_on,1,0,0,,0,,,65,95
155981,note_on,0,0,0,,1,,,79,127
156186,note_off,205,0,0,,1,,,79,127
156186,note_off,0,0,0,,0,,,65,95
156187,note_on,1,0,0,,0,,,67,95
156187,note_on,0,0,0,,1,,,76,127
156392,note_off,205,0,0,,1,,,76,127
156392,note_off,0,0,0,,0,,,67,95
156392,note_off,0,0,0,,0,,,48,95
156393,note_on,1,0,0,,0,,,52,95
156393,note_on,0,0,0,,0,,,60,95
156393,note_on,0,0,0,,1,,,70,127
156598,note_off,205,0,0,,1,,,70,127
156598,note_off,0,0,0,,0,,,60,95
156599,note_on,1,0,0,,0,,,62,95
156599,note_on,0,0,0,,1,,,68,127
156804,note_off,205,0,0,,1,,,68,127
156804,note_off,0,0,0,,0,,,62,95
156805,note_on,1,0,0,,0,,,64,95
156805,note_on,0,0,0,,1,,,67,127
157010,note_off,205,0,0,,1,,,67,127
157010,note_off,0,0,0,,0,,,64,95
157010,note_off,0,0,0,,0,,,52,95
157011,note_on,1,0,0,,0,,,53,95
157011,note_on,0,0,0,,0,,,65,95
157011,note_on,0,0,0,,1,,,65,127
157216,note_off,205,0,0,,1,,,65,127
157217,note_on,1,0,0,,1,,,68,127
157422,note_off,205,0,0,,1,,,68,127
157422,note_off,0,0,0,,0,,,65,95
157423,note_on,1,0,0,,0,,,68,95
157423,note_on,0,0,0,,1,,,72,127
157628,note_off,205,0,0,,1,,,72,127
157629,note_on,1,0,0,,1,,,77,127
157834,note_off,205,0,0,,0,,,68,95
157834,note_off,0,0,0,,0,,,53,95
157835,note_on,1,0,0,,0,,,56,95
157835,note_on,0,0,0,,0,,,72,95
158040,note_off,205,0,0,,0,,,72,95
158040,note_off,0,0,0,,0,,,56,95
158041,note_on,1,0,0,,0,,,53,95
158041,note_on,0,0,0,,0,,,68,95
158246,note_off,205,0,0,,0,,,68,95
158246,note_off,0,0,0,,0,,,53,95
158246,note_off,0,0,0,,1,,,77,127
158247,note_on,1,0,0,,0,,,50,95
158247,note_on,0,0,0,,0,,,65,95
158247,note_on,0,0,0,,1,,,65,127
158452,note_off,205,0,0,,1,,,65,127
158453,note_on,1,0,0,,1,,,68,127
158658,note_off,205,0,0,,1,,,68,127
158658,note_off,0,0,0,,0,,,65,95
158659,note_on,1,0,0,,0,,,68,95
158659,note_on,0,0,0,,1,,,72,127
158864,note_off,205,0,0,,1,,,72,127
158865,note_on,1,0,0,,1,,,77,127
159070,note_off,205,0,0,,0,,,68,95
159070,note_off,0,0,0,,0,,,50,95
159071,note_on,1,0,0,,0,,,53,95
159071,note_on,0,0,0,,0,,,72,95
159276,note_off,205,0,0,,0,,,72,95
159276,note_off,0,0,0,,0,,,53,95
159277,note_on,1,0,0,,0,,,50,95
159277,note_on,0,0,0,,0,,,68,95
159482,note_off,205,0,0,,0,,,50,95
159482,note_off,0,0,0,,1,,,77,127
159483,note_on,1,0,0,,0,,,47,95
159483,note_on,0,0,0,,1,,,65,127
159688,note_off,205,0,0,,1,,,65,127
159688,note_off,0,0,0,,0,,,68,95
159689,note_on,1,0,0,,0,,,65,95
159689,note_on,0,0,0,,1,,,71,127
159894,note_off,205,0,0,,1,,,71,127
159894,note_off,0,0,0,,0,,,65,95
159895,note_on,1,0,0,,0,,,71,95
159895,note_on,0,0,0,,1,,,74,127
160100,note_off,205,0,0,,1,,,74,127
160101,note_on,1,0,0,,1,,,77,127
160306,note_off,205,0,0,,0,,,71,95
160306,note_off,0,0,0,,0,,,47,95
160307,note_on,1,0,0,,0,,,50,95
160307,note_on,0,0,0,,0,,,67,95
160512,note_off,205,0,0,,0,,,67,95
160512,note_off,0,0,0,,0,,,50,95
160513,note_on,1,0,0,,0,,,47,95
160513,note_on,0,0,0,,0,,,69,95
160718,note_off,205,0,0,,0,,,69,95
160718,note_off,0,0,0,,0,,,47,95
160719,note_on,1,0,0,,0,,,43,95
160719,note_on,0,0,0,,0,,,71,95
160924,note_off,205,0,0,,1,,,77,127
160925,note_on,1,0,0,,1,,,74,127
161130,note_off,205,0,0,,1,,,74,127
161130,note_off,0,0,0,,0,,,71,95
161131,note_on,1,0,0,,0,,,69,95
161131,note_on,0,0,0,,1,,,71,127
161336,note_off,205,0,0,,1,,,71,127
161336,note_off,0,0,0,,0,,,69,95
161336,note_off,0,0,0,,0,,,43,95
161337,note_on,1,0,0,,0,,,43,95
161337,note_on,0,0,0,,0,,,67,95
161337,note_on,0,0,0,,1,,,77,127
161542,note_off,205,0,0,,1,,,77,127
161542,note_off,0,0,0,,0,,,43,95
161543,note_on,1,0,0,,0,,,45,95
161543,note_on,0,0,0,,1,,,75,127
161748,note_off,205,0,0,,1,,,75,127
161748,note_off,0,0,0,,0,,,45,95
161748,note_off,0,0,0,,0,,,67,95
161749,note_on,1,0,0,,0,,,47,95
161749,note_on,0,0,0,,1,,,74,127
161954,note_off,205,0,0,,1,,,74,127
161954,note_off,0,0,0,,0,,,47,95
161955,note_on,1,0,0,,0,,,48,95
161955,note_on,0,0,0,,0,,,67,95
161955,note_on,0,0,0,,1,,,75,127
162160,note_off,205,0,0,,1,,,75,127
162160,note_off,0,0,0,,0,,,67,95
162161,note_on,1,0,0,,0,,,63,95
162161,note_on,0,0,0,,1,,,72,127
162366,note_off,205,0,0,,1,,,72,127
162366,note_off,0,0,0,,0,,,63,95
162367,note_on,1,0,0,,0,,,67,95
162367,note_on,0,0,0,,1,,,75,127
162572,note_off,205,0,0,,1,,,75,127
162572,note_off,0,0,0,,0,,,67,95
162572,note_off,0,0,0,,0,,,48,95
162573,note_on,1,0,0,,0,,,55,95
162573,note_on,0,0,0,,0,,,71,95
162573,note_on,0,0,0,,1,,,74,127
162778,note_off,205,0,0,,1,,,74,127
162778,note_off,0,0,0,,0,,,71,95
162779,note_on,1,0,0,,0,,,72,95
162779,note_on,0,0,0,,1,,,79,127
162984,note_off,205,0,0,,1,,,79,127
162984,note_off,0,0,0,,0,,,72,95
162985,note_on,1,0,0,,0,,,74,95
162985,note_on,0,0,0,,1,,,71,127
163190,note_off,205,0,0,,1,,,71,127
163190,note_off,0,0,0,,0,,,74,95
163190,note_off,0,0,0,,0,,,55,95
163191,note_on,1,0,0,,0,,,51,95
163191,note_on,0,0,0,,0,,,72,95
163191,note_on,0,0,0,,1,,,72,127
163396,note_off,205,0,0,,1,,,72,127
163396,note_off,0,0,0,,0,,,72,95
163397,note_on,1,0,0,,0,,,71,95
163397,note_on,0,0,0,,1,,,75,127
163602,note_off,205,0,0,,1,,,75,127
163602,note_off,0,0,0,,0,,,71,95
163603,note_on,1,0,0,,0,,,72,95
163603,note_on,0,0,0,,1,,,79,127
163808,note_off,205,0,0,,1,,,79,127
163809,note_on,1,0,0,,1,,,84,127
164014,note_off,205,0,0,,0,,,72,95
164014,note_off,0,0,0,,0,,,51,95
164015,note_on,1,0,0,,0,,,48,95
164015,note_on,0,0,0,,0,,,75,95
164220,note_off,205,0,0,,0,,,75,95
164220,note_off,0,0,0,,0,,,48,95
164221,note_on,1,0,0,,0,,,45,95
164221,note_on,0,0,0,,0,,,74,95
164426,note_off,205,0,0,,0,,,74,95
164426,note_off,0,0,0,,0,,,45,95
164426,note_off,0,0,0,,1,,,84,127
164427,note_on,1,0,0,,0,,,42,95
164427,note_on,0,0,0,,0,,,72,95
164427,note_on,0,0,0,,1,,,72,127
164632,note_off,205,0,0,,1,,,72,127
164632,note_off,0,0,0,,0,,,72,95
164633,note_on,1,0,0,,0,,,71,95
164633,note_on,0,0,0,,1,,,78,127
164838,note_off,205,0,0,,1,,,78,127
164838,note_off,0,0,0,,0,,,71,95
164839,note_on,1,0,0,,0,,,72,95
164839,note_on,0,0,0,,1,,,81,127
165044,note_off,205,0,0,,1,,,81,127
165044,note_off,0,0,0,,0,,,42,95
165045,note_on,1,0,0,,0,,,57,95
165045,note_on,0,0,0,,1,,,84,127
165250,note_off,205,0,0,,0,,,57,95
165250,note_off,0,0,0,,0,,,72,95
165251,note_on,1,0,0,,0,,,60,95
165251,note_on,0,0,0,,0,,,69,95
165456,note_off,205,0,0,,0,,,69,95
165456,note_off,0,0,0,,0,,,60,95
165457,note_on,1,0,0,,0,,,57,95
165457,note_on,0,0,0,,0,,,66,95
165662,note_off,205,0,0,,0,,,66,95
165662,note_off,0,0,0,,0,,,57,95
165663,note_on,1,0,0,,0,,,54,95
165663,note_on,0,0,0,,0,,,62,95
165868,note_off,205,0,0,,0,,,62,95
165868,note_off,0,0,0,,1,,,84,127
165869,note_on,1,0,0,,0,,,66,95
165869,note_on,0,0,0,,1,,,81,127
166074,note_off,205,0,0,,1,,,81,127
166074,note_off,0,0,0,,0,,,66,95
166075,note_on,1,0,0,,0,,,69,95
166075,note_on,0,0,0,,1,,,78,127
166280,note_off,205,0,0,,1,,,78,127
166280,note_off,0,0,0,,0,,,69,95
166280,note_off,0,0,0,,0,,,54,95
166281,note_on,1,0,0,,0,,,50,95
166281,note_on,0,0,0,,0,,,66,95
166281,note_on,0,0,0,,1,,,84,127
166486,note_off,205,0,0,,1,,,84,127
166486,note_off,0,0,0,,0,,,66,95
166487,note_on,1,0,0,,0,,,67,95
166487,note_on,0,0,0,,1,,,82,127
166692,note_off,205,0,0,,1,,,82,127
166692,note_off,0,0,0,,0,,,67,95
166693,note_on,1,0,0,,0,,,69,95
166693,note_on,0,0,0,,1,,,81,127
166898,note_off,205,0,0,,1,,,81,127
166898,note_off,0,0,0,,0,,,69,95
166898,note_off,0,0,0,,0,,,50,95
166899,note_on,1,0,0,,0,,,55,95
166899,note_on,0,0,0,,0,,,62,95
166899,note_on,0,0,0,,1,,,82,127
167104,note_off,205,0,0,,1,,,82,127
167104,note_off,0,0,0,,0,,,62,95
167105,note_on,1,0,0,,0,,,70,95
167105,note_on,0,0,0,,1,,,79,127
167310,note_off,205,0,0,,1,,,79,127
167310,note_off,0,0,0,,0,,,70,95
167311,note_on,1,0,0,,0,,,67,95
167311,note_on,0,0,0,,1,,,82,127
167516,note_off,205,0,0,,1,,,82,127
167516,note_off,0,0,0,,0,,,67,95
167516,note_off,0,0,0,,0,,,55,95
167517,note_on,1,0,0,,0,,,62,95
167517,note_on,0,0,0,,0,,,66,95
167517,note_on,0,0,0,,1,,,81,127
167722,note_off,205,0,0,,1,,,81,127
167722,note_off,0,0,0,,0,,,66,95
167723,note_on,1,0,0,,0,,,69,95
167723,note_on,0,0,0,,1,,,86,127
167928,note_off,205,0,0,,1,,,86,127
167928,note_off,0,0,0,,0,,,69,95
167929,note_on,1,0,0,,0,,,74,95
167929,note_on,0,0,0,,1,,,78,127
168134,note_off,205,0,0,,1,,,78,127
168134,note_off,0,0,0,,0,,,62,95
168135,note_on,1,0,0,,0,,,58,95
168135,note_on,0,0,0,,1,,,79,127
168340,note_off,205,0,0,,0,,,58,95
168340,note_off,0,0,0,,0,,,74,95
168341,note_on,1,0,0,,0,,,55,95
168341,note_on,0,0,0,,0,,,70,95
168546,note_off,205,0,0,,0,,,70,95
168546,note_off,0,0,0,,0,,,55,95
168547,note_on,1,0,0,,0,,,52,95
168547,note_on,0,0,0,,0,,,67,95
168752,note_off,205,0,0,,0,,,67,95
168752,note_off,0,0,0,,0,,,52,95
168753,note_on,1,0,0,,0,,,49,95
168753,note_on,0,0,0,,0,,,69,95
168958,note_off,205,0,0,,0,,,49,95
168958,note_off,0,0,0,,1,,,79,127
168959,note_on,1,0,0,,0,,,50,95
168959,note_on,0,0,0,,1,,,77,127
169164,note_off,205,0,0,,1,,,77,127
169164,note_off,0,0,0,,0,,,50,95
169165,note_on,1,0,0,,0,,,52,95
169165,note_on,0,0,0,,1,,,79,127
169370,note_off,205,0,0,,1,,,79,127
169370,note_off,0,0,0,,0,,,52,95
169370,note_off,0,0,0,,0,,,69,95
169371,note_on,1,0,0,,0,,,53,95
169371,note_on,0,0,0,,0,,,74,95
169371,note_on,0,0,0,,1,,,81,127
169576,note_off,205,0,0,,0,,,74,95
169576,note_off,0,0,0,,0,,,53,95
169577,note_on,1,0,0,,0,,,50,95
169577,note_on,0,0,0,,0,,,77,95
169782,note_off,205,0,0,,0,,,77,95
169782,note_off,0,0,0,,0,,,50,95
169783,note_on,1,0,0,,0,,,53,95
169783,note_on,0,0,0,,0,,,74,95
169988,note_off,205,0,0,,0,,,74,95
169988,note_off,0,0,0,,0,,,53,95
169988,note_off,0,0,0,,1,,,81,127
169989,note_on,1,0,0,,0,,,52,95
169989,note_on,0,0,0,,1,,,79,127
169989,note_on,0,0,0,,1,,,76,127
169989,note_on,0,0,0,,1,,,69,127
170194,note_off,205,0,0,,0,,,52,95
170195,note_on,1,0,0,,0,,,57,95
170195,note_on,0,0,0,,0,,,76,95
170400,note_off,205,0,0,,0,,,76,95
170400,note_off,0,0,0,,0,,,57,95
170401,note_on,1,0,0,,0,,,49,95
170401,note_on,0,0,0,,0,,,69,95
170606,note_off,205,0,0,,0,,,49,95
170606,note_off,0,0,0,,1,,,69,127
170606,note_off,0,0,0,,1,,,76,127
170606,note_off,0,0,0,,1,,,79,127
170607,note_on,1,0,0,,0,,,50,95
170607,note_on,0,0,0,,1,,,78,127
170812,note_off,205,0,0,,1,,,78,127
170812,note_off,0,0,0,,0,,,69,95
170813,note_on,1,0,0,,0,,,67,95
170813,note_on,0,0,0,,1,,,81,127
171018,note_off,205,0,0,,1,,,81,127
171018,note_off,0,0,0,,0,,,67,95
171019,note_on,1,0,0,,0,,,66,95
171019,note_on,0,0,0,,1,,,86,127
171224,note_off,205,0,0,,0,,,66,95
171224,note_off,0,0,0,,0,,,50,95
171225,note_on,1,0,0,,0,,,58,95
171225,note_on,0,0,0,,0,,,67,95
171430,note_off,205,0,0,,0,,,67,95
171430,note_off,0,0,0,,1,,,86,127
171431,note_on,1,0,0,,0,,,66,95
171431,note_on,0,0,0,,1,,,75,127
171636,note_off,205,0,0,,1,,,75,127
171636,note_off,0,0,0,,0,,,66,95
171637,note_on,1,0,0,,0,,,67,95
171637,note_on,0,0,0,,1,,,74,127
171842,note_off,205,0,0,,1,,,74,127
171842,note_off,0,0,0,,0,,,58,95
171843,note_on,1,0,0,,0,,,48,95
171843,note_on,0,0,0,,1,,,75,127
172048,note_off,205,0,0,,1,,,75,127
172048,note_off,0,0,0,,0,,,67,95
172049,note_on,1,0,0,,0,,,66,95
172049,note_on,0,0,0,,1,,,83,127
172254,note_off,205,0,0,,1,,,83,127
172254,note_off,0,0,0,,0,,,66,95
172255,note_on,1,0,0,,0,,,67,95
172255,note_on,0,0,0,,1,,,84,127
172460,note_off,205,0,0,,0,,,67,95
172460,note_off,0,0,0,,0,,,48,95
172461,note_on,1,0,0,,0,,,60,95
172461,note_on,0,0,0,,0,,,69,95
172666,note_off,205,0,0,,0,,,69,95
172666,note_off,0,0,0,,1,,,84,127
172667,note_on,1,0,0,,0,,,67,95
172667,note_on,0,0,0,,1,,,74,127
172872,note_off,205,0,0,,1,,,74,127
172872,note_off,0,0,0,,0,,,67,95
172873,note_on,1,0,0,,0,,,69,95
172873,note_on,0,0,0,,1,,,73,127
173078,note_off,205,0,0,,1,,,73,127
173078,note_off,0,0,0,,0,,,69,95
173079,note_on,1,0,0,,0,,,66,95
173079,note_on,0,0,0,,1,,,74,127
173284,note_off,205,0,0,,1,,,74,127
173284,note_off,0,0,0,,0,,,66,95
173285,note_on,1,0,0,,0,,,67,95
173285,note_on,0,0,0,,1,,,78,127
173490,note_off,205,0,0,,1,,,78,127
173490,note_off,0,0,0,,0,,,67,95
173491,note_on,1,0,0,,0,,,69,95
173491,note_on,0,0,0,,1,,,81,127
173696,note_off,205,0,0,,1,,,81,127
173696,note_off,0,0,0,,0,,,69,95
173696,note_off,0,0,0,,0,,,60,95
173697,note_on,1,0,0,,0,,,58,95
173697,note_on,0,0,0,,0,,,67,95
173697,note_on,0,0,0,,1,,,74,127
173902,note_off,205,0,0,,1,,,74,127
173902,note_off,0,0,0,,0,,,67,95
173903,note_on,1,0,0,,0,,,70,95
173903,note_on,0,0,0,,1,,,79,127
174108,note_off,205,0,0,,1,,,79,127
174108,note_off,0,0,0,,0,,,70,95
174109,note_on,1,0,0,,0,,,67,95
174109,note_on,0,0,0,,1,,,82,127
174314,note_off,205,0,0,,1,,,82,127
174314,note_off,0,0,0,,0,,,67,95
174314,note_off,0,0,0,,0,,,58,95
174315,note_on,1,0,0,,0,,,57,95
174315,note_on,0,0,0,,0,,,66,95
174315,note_on,0,0,0,,1,,,72,127
174520,note_off,205,0,0,,0,,,66,95
174520,note_off,0,0,0,,0,,,57,95
174521,note_on,1,0,0,,0,,,60,95
174521,note_on,0,0,0,,0,,,69,95
174726,note_off,205,0,0,,0,,,69,95
174726,note_off,0,0,0,,0,,,60,95
174727,note_on,1,0,0,,0,,,57,95
174727,note_on,0,0,0,,0,,,66,95
174932,note_off,205,0,0,,0,,,66,95
174932,note_off,0,0,0,,0,,,57,95
174932,note_off,0,0,0,,1,,,72,127
174933,note_on,1,0,0,,0,,,54,95
174933,note_on,0,0,0,,1,,,81,127
174933,note_on,0,0,0,,1,,,72,127
175138,note_off,205,0,0,,0,,,54,95
175139,note_on,1,0,0,,0,,,50,95
175139,note_on,0,0,0,,0,,,66,95
175344,note_off,205,0,0,,0,,,66,95
175344,note_off,0,0,0,,0,,,50,95
175345,note_on,1,0,0,,0,,,54,95
175345,note_on,0,0,0,,0,,,62,95
175550,note_off,205,0,0,,0,,,62,95
175550,note_off,0,0,0,,0,,,54,95
175550,note_off,0,0,0,,1,,,72,127
175550,note_off,0,0,0,,1,,,81,127
175551,note_on,1,0,0,,0,,,55,95
175551,note_on,0,0,0,,0,,,62,95
175551,note_on,0,0,0,,1,,,70,127
175756,note_off,205,0,0,,1,,,70,127
175757,note_on,1,0,0,,1,,,74,127
175962,note_off,205,0,0,,1,,,74,127
175962,note_off,0,0,0,,0,,,62,95
175963,note_on,1,0,0,,0,,,70,95
175963,note_on,0,0,0,,1,,,79,127
176168,note_off,205,0,0,,0,,,55,95
176169,note_on,1,0,0,,0,,,63,95
176374,note_off,205,0,0,,1,,,79,127
176374,note_off,0,0,0,,0,,,70,95
176375,note_on,1,0,0,,0,,,67,95
176375,note_on,0,0,0,,1,,,75,127
176580,note_off,205,0,0,,1,,,75,127
176581,note_on,1,0,0,,1,,,72,127
176786,note_off,205,0,0,,1,,,72,127
176786,note_off,0,0,0,,0,,,67,95
176786,note_off,0,0,0,,0,,,63,95
176787,note_on,1,0,0,,0,,,53,95
176787,note_on,0,0,0,,0,,,60,95
176787,note_on,0,0,0,,1,,,69,127
176992,note_off,205,0,0,,1,,,69,127
176993,note_on,1,0,0,,1,,,72,127
177198,note_off,205,0,0,,1,,,72,127
177198,note_off,0,0,0,,0,,,60,95
177199,note_on,1,0,0,,0,,,69,95
177199,note_on,0,0,0,,1,,,77,127
177404,note_off,205,0,0,,0,,,53,95
177405,note_on,1,0,0,,0,,,62,95
177610,note_off,205,0,0,,1,,,77,127
177610,note_off,0,0,0,,0,,,69,95
177611,note_on,1,0,0,,0,,,65,95
177611,note_on,0,0,0,,1,,,74,127
177816,note_off,205,0,0,,1,,,74,127
177817,note_on,1,0,0,,1,,,70,127
178022,note_off,205,0,0,,1,,,70,127
178022,note_off,0,0,0,,0,,,65,95
178022,note_off,0,0,0,,0,,,62,95
178023,note_on,1,0,0,,0,,,51,95
178023,note_on,0,0,0,,0,,,58,95
178023,note_on,0,0,0,,1,,,67,127
178228,note_off,205,0,0,,1,,,67,127
178229,note_on,1,0,0,,1,,,70,127
178434,note_off,205,0,0,,1,,,70,127
178434,note_off,0,0,0,,0,,,58,95
178435,note_on,1,0,0,,0,,,67,95
178435,note_on,0,0,0,,1,,,75,127
178640,note_off,205,0,0,,0,,,51,95
178641,note_on,1,0,0,,0,,,60,95
178846,note_off,205,0,0,,1,,,75,127
178846,note_off,0,0,0,,0,,,67,95
178847,note_on,1,0,0,,0,,,64,95
178847,note_on,0,0,0,,1,,,72,127
179052,note_off,205,0,0,,1,,,72,127
179053,note_on,1,0,0,,1,,,69,127
179258,note_off,205,0,0,,1,,,69,127
179258,note_off,0,0,0,,0,,,64,95
179258,note_off,0,0,0,,0,,,60,95
179259,note_on,1,0,0,,0,,,50,95
179259,note_on,0,0,0,,1,,,74,127
179259,note_on,0,0,0,,1,,,66,127
179464,note_off,205,0,0,,0,,,50,95
179465,note_on,1,0,0,,0,,,50,95
179465,note_on,0,0,0,,0,,,69,95
179670,note_off,205,0,0,,0,,,69,95
179670,note_off,0,0,0,,0,,,50,95
179671,note_on,1,0,0,,0,,,62,95
179671,note_on,0,0,0,,0,,,66,95
179876,note_off,205,0,0,,0,,,66,95
179876,note_off,0,0,0,,0,,,62,95
179876,note_off,0,0,0,,1,,,66,127
179876,note_off,0,0,0,,1,,,74,127
179877,note_on,1,0,0,,0,,,58,95
179877,note_on,0,0,0,,1,,,67,127
179877,note_on,0,0,0,,1,,,74,127
180082,note_off,205,0,0,,0,,,58,95
180083,note_on,1,0,0,,0,,,62,95
180083,note_on,0,0,0,,0,,,70,95
180288,note_off,205,0,0,,0,,,70,95
180288,note_off,0,0,0,,0,,,62,95
180289,note_on,1,0,0,,0,,,58,95
180289,note_on,0,0,0,,0,,,67,95
180494,note_off,205,0,0,,0,,,67,95
180494,note_off,0,0,0,,0,,,58,95
180494,note_off,0,0,0,,1,,,74,127
180494,note_off,0,0,0,,1,,,67,127
180495,note_on,1,0,0,,0,,,54,95
180495,note_on,0,0,0,,1,,,74,127
180495,note_on,0,0,0,,1,,,69,127
180700,note_off,205,0,0,,0,,,54,95
180701,note_on,1,0,0,,0,,,50,95
180701,note_on,0,0,0,,0,,,66,95
180906,note_off,205,0,0,,0,,,66,95
180906,note_off,0,0,0,,0,,,50,95
180907,note_on,1,0,0,,0,,,54,95
180907,note_on,0,0,0,,0,,,69,95
181112,note_off,205,0,0,,0,,,69,95
181112,note_off,0,0,0,,0,,,54,95
181112,note_off,0,0,0,,1,,,69,127
181112,note_off,0,0,0,,1,,,74,127
181113,note_on,1,0,0,,0,,,55,95
181113,note_on,0,0,0,,1,,,70,127
181113,note_on,0,0,0,,1,,,79,127
181318,note_off,205,0,0,,0,,,55,95
181319,note_on,1,0,0,,0,,,55,95
181319,note_on,0,0,0,,0,,,74,95
181524,note_off,205,0,0,,0,,,74,95
181524,note_off,0,0,0,,0,,,55,95
181525,note_on,1,0,0,,0,,,67,95
181525,note_on,0,0,0,,0,,,70,95
181730,note_off,205,0,0,,0,,,70,95
181730,note_off,0,0,0,,0,,,67,95
181730,note_off,0,0,0,,1,,,79,127
181730,note_off,0,0,0,,1,,,70,127
181731,note_on,1,0,0,,0,,,63,95
181731,note_on,0,0,0,,1,,,72,127
181731,note_on,0,0,0,,1,,,79,127
181936,note_off,205,0,0,,0,,,63,95
181937,note_on,1,0,0,,0,,,67,95
181937,note_on,0,0,0,,0,,,75,95
182142,note_off,205,0,0,,0,,,75,95
182142,note_off,0,0,0,,0,,,67,95
182143,note_on,1,0,0,,0,,,63,95
182143,note_on,0,0,0,,0,,,72,95
182348,note_off,205,0,0,,0,,,72,95
182348,note_off,0,0,0,,0,,,63,95
182348,note_off,0,0,0,,1,,,79,127
182348,note_off,0,0,0,,1,,,72,127
182349,note_on,1,0,0,,0,,,59,95
182349,note_on,0,0,0,,1,,,74,127
182349,note_on,0,0,0,,1,,,79,127
182554,note_off,205,0,0,,0,,,59,95
182555,note_on,1,0,0,,0,,,55,95
182555,note_on,0,0,0,,0,,,71,95
182760,note_off,205,0,0,,0,,,71,95
182760,note_off,0,0,0,,0,,,55,95
182761,note_on,1,0,0,,0,,,59,95
182761,note_on,0,0,0,,0,,,74,95
182966,note_off,205,0,0,,0,,,74,95
182966,note_off,0,0,0,,0,,,59,95
182966,note_off,0,0,0,,1,,,79,127
182966,note_off,0,0,0,,1,,,74,127
182967,note_on,1,0,0,,0,,,60,95
182967,note_on,0,0,0,,0,,,67,95
182967,note_on,0,0,0,,1,,,75,127
183172,note_off,205,0,0,,1,,,75,127
183172,note_off,0,0,0,,0,,,67,95
183173,note_on,1,0,0,,0,,,63,95
183173,note_on,0,0,0,,1,,,79,127
183378,note_off,205,0,0,,1,,,79,127
183378,note_off,0,0,0,,0,,,63,95
183379,note_on,1,0,0,,0,,,67,95
183379,note_on,0,0,0,,1,,,75,127
183584,note_off,205,0,0,,1,,,75,127
183584,note_off,0,0,0,,0,,,60,95
183585,note_on,1,0,0,,0,,,58,95
183585,note_on,0,0,0,,1,,,74,127
183790,note_off,205,0,0,,1,,,74,127
183790,note_off,0,0,0,,0,,,67,95
183791,note_on,1,0,0,,0,,,62,95
183791,note_on,0,0,0,,1,,,82,127
183996,note_off,205,0,0,,1,,,82,127
183996,note_off,0,0,0,,0,,,62,95
183997,note_on,1,0,0,,0,,,67,95
183997,note_on,0,0,0,,1,,,74,127
184202,note_off,205,0,0,,1,,,74,127
184202,note_off,0,0,0,,0,,,67,95
184202,note_off,0,0,0,,0,,,58,95
184203,note_on,1,0,0,,0,,,57,95
184203,note_on,0,0,0,,0,,,64,95
184203,note_on,0,0,0,,1,,,73,127
184408,note_off,205,0,0,,0,,,64,95
184408,note_off,0,0,0,,0,,,57,95
184409,note_on,1,0,0,,0,,,61,95
184409,note_on,0,0,0,,0,,,69,95
184614,note_off,205,0,0,,0,,,69,95
184614,note_off,0,0,0,,0,,,61,95
184615,note_on,1,0,0,,0,,,64,95
184615,note_on,0,0,0,,0,,,73,95
184820,note_off,205,0,0,,0,,,73,95
184820,note_off,0,0,0,,0,,,64,95
184820,note_off,0,0,0,,1,,,73,127
184821,note_on,1,0,0,,0,,,55,95
184821,note_on,0,0,0,,1,,,81,127
184821,note_on,0,0,0,,1,,,73,127
185026,note_off,205,0,0,,0,,,55,95
185027,note_on,1,0,0,,0,,,64,95
185027,note_on,0,0,0,,0,,,67,95
185232,note_off,205,0,0,,0,,,67,95
185232,note_off,0,0,0,,0,,,64,95
185233,note_on,1,0,0,,0,,,55,95
185233,note_on,0,0,0,,0,,,73,95
185438,note_off,205,0,0,,0,,,73,95
185438,note_off,0,0,0,,0,,,55,95
185438,note_off,0,0,0,,1,,,73,127
185438,note_off,0,0,0,,1,,,81,127
185439,note_on,1,0,0,,0,,,54,95
185439,note_on,0,0,0,,0,,,69,95
185439,note_on,0,0,0,,1,,,74,127
185644,note_off,205,0,0,,1,,,74,127
185644,note_off,0,0,0,,0,,,69,95
185645,note_on,1,0,0,,0,,,74,95
185645,note_on,0,0,0,,1,,,78,127
185850,note_off,205,0,0,,1,,,78,127
185850,note_off,0,0,0,,0,,,74,95
185851,note_on,1,0,0,,0,,,69,95
185851,note_on,0,0,0,,1,,,81,127
186056,note_off,205,0,0,,1,,,81,127
186056,note_off,0,0,0,,0,,,69,95
186056,note_off,0,0,0,,0,,,54,95
186057,note_on,1,0,0,,0,,,55,95
186057,note_on,0,0,0,,0,,,62,95
186057,note_on,0,0,0,,1,,,70,127
186262,note_off,205,0,0,,1,,,70,127
186262,note_off,0,0,0,,0,,,62,95
186263,note_on,1,0,0,,0,,,70,95
186263,note_on,0,0,0,,1,,,74,127
186468,note_off,205,0,0,,1,,,74,127
186468,note_off,0,0,0,,0,,,70,95
186469,note_on,1,0,0,,0,,,62,95
186469,note_on,0,0,0,,1,,,79,127
186674,note_off,205,0,0,,1,,,79,127
186674,note_off,0,0,0,,0,,,62,95
186674,note_off,0,0,0,,0,,,55,95
186675,note_on,1,0,0,,0,,,54,95
186675,note_on,0,0,0,,0,,,72,95
186675,note_on,0,0,0,,1,,,69,127
186880,note_off,205,0,0,,1,,,69,127
186880,note_off,0,0,0,,0,,,72,95
186881,note_on,1,0,0,,0,,,69,95
186881,note_on,0,0,0,,1,,,78,127
187086,note_off,205,0,0,,1,,,78,127
187086,note_off,0,0,0,,0,,,69,95
187087,note_on,1,0,0,,0,,,72,95
187087,note_on,0,0,0,,1,,,81,127
187292,note_off,205,0,0,,1,,,81,127
187292,note_off,0,0,0,,0,,,72,95
187292,note_off,0,0,0,,0,,,54,95
187293,note_on,1,0,0,,0,,,55,95
187293,note_on,0,0,0,,0,,,67,95
187293,note_on,0,0,0,,1,,,70,127
187498,note_off,205,0,0,,1,,,70,127
187498,note_off,0,0,0,,0,,,67,95
187499,note_on,1,0,0,,0,,,70,95
187499,note_on,0,0,0,,1,,,74,127
187704,note_off,205,0,0,,1,,,74,127
187704,note_off,0,0,0,,0,,,70,95
187705,note_on,1,0,0,,0,,,74,95
187705,note_on,0,0,0,,1,,,79,127
187910,note_off,205,0,0,,1,,,79,127
187910,note_off,0,0,0,,0,,,74,95
187910,note_off,0,0,0,,0,,,55,95
187911,note_on,1,0,0,,0,,,60,95
187911,note_on,0,0,0,,0,,,67,95
187911,note_on,0,0,0,,1,,,75,127
188116,note_off,205,0,0,,1,,,75,127
188117,note_on,1,0,0,,1,,,74,127
188322,note_off,205,0,0,,1,,,74,127
188322,note_off,0,0,0,,0,,,67,95
188323,note_on,1,0,0,,0,,,67,95
188323,note_on,0,0,0,,1,,,72,127
188528,note_off,205,0,0,,1,,,72,127
188528,note_off,0,0,0,,0,,,60,95
188529,note_on,1,0,0,,0,,,63,95
188529,note_on,0,0,0,,1,,,70,127
188734,note_off,205,0,0,,1,,,70,127
188734,note_off,0,0,0,,0,,,67,95
188735,note_on,1,0,0,,0,,,66,95
188735,note_on,0,0,0,,1,,,69,127
188940,note_off,205,0,0,,1,,,69,127
188940,note_off,0,0,0,,0,,,66,95
188941,note_on,1,0,0,,0,,,67,95
188941,note_on,0,0,0,,1,,,67,127
189146,note_off,205,0,0,,1,,,67,127
189146,note_off,0,0,0,,0,,,67,95
189146,note_off,0,0,0,,0,,,63,95
189147,note_on,1,0,0,,1,,,66,127
189147,note_on,0,0,0,,1,,,74,127
189147,note_on,0,0,0,,1,,,69,127
189353,note_on,206,0,0,,0,,,50,95
189353,note_on,0,0,0,,0,,,66,95
189558,note_off,205,0,0,,0,,,66,95
189558,note_off,0,0,0,,0,,,50,95
189559,note_on,1,0,0,,0,,,48,95
189559,note_on,0,0,0,,0,,,69,95
189764,note_off,205,0,0,,0,,,69,95
189764,note_off,0,0,0,,0,,,48,95
189764,note_off,0,0,0,,1,,,69,127
189764,note_off,0,0,0,,1,,,74,127
189764,note_off,0,0,0,,1,,,66,127
189765,note_on,1,0,0,,0,,,46,95
189765,note_on,0,0,0,,0,,,67,95
189765,note_on,0,0,0,,1,,,79,127
189970,note_off,205,0,0,,0,,,67,95
189970,note_off,0,0,0,,0,,,46,95
189971,note_on,1,0,0,,0,,,43,95
189971,note_on,0,0,0,,0,,,70,95
190176,note_off,205,0,0,,0,,,70,95
190176,note_off,0,0,0,,0,,,43,95
190177,note_on,1,0,0,,0,,,46,95
190177,note_on,0,0,0,,0,,,74,95
190382,note_off,205,0,0,,0,,,74,95
190382,note_off,0,0,0,,0,,,46,95
190382,note_off,0,0,0,,1,,,79,127
190383,note_on,1,0,0,,0,,,48,95
190383,note_on,0,0,0,,0,,,69,95
190383,note_on,0,0,0,,1,,,75,127
190588,note_off,205,0,0,,1,,,75,127
190588,note_off,0,0,0,,0,,,48,95
190589,note_on,1,0,0,,0,,,48,95
190589,note_on,0,0,0,,1,,,72,127
190794,note_off,205,0,0,,1,,,72,127
190794,note_off,0,0,0,,0,,,48,95
190795,note_on,1,0,0,,0,,,60,95
190795,note_on,0,0,0,,1,,,69,127
191000,note_off,205,0,0,,1,,,69,127
191000,note_off,0,0,0,,0,,,69,95
191001,note_on,1,0,0,,0,,,69,95
191001,note_on,0,0,0,,1,,,66,127
191206,note_off,205,0,0,,1,,,66,127
191206,note_off,0,0,0,,0,,,60,95
191207,note_on,1,0,0,,0,,,58,95
191207,note_on,0,0,0,,1,,,67,127
191412,note_off,205,0,0,,1,,,67,127
191412,note_off,0,0,0,,0,,,58,95
191413,note_on,1,0,0,,0,,,57,95
191413,note_on,0,0,0,,1,,,69,127
191618,note_off,205,0,0,,1,,,69,127
191618,note_off,0,0,0,,0,,,57,95
191618,note_off,0,0,0,,0,,,69,95
191619,note_on,1,0,0,,0,,,55,95
191619,note_on,0,0,0,,0,,,62,95
191619,note_on,0,0,0,,1,,,70,127
191824,note_off,205,0,0,,0,,,62,95
191824,note_off,0,0,0,,0,,,55,95
191825,note_on,1,0,0,,0,,,43,95
191825,note_on,0,0,0,,0,,,70,95
192030,note_off,205,0,0,,0,,,70,95
192030,note_off,0,0,0,,0,,,43,95
192031,note_on,1,0,0,,0,,,53,95
192031,note_on,0,0,0,,0,,,69,95
192236,note_off,205,0,0,,0,,,69,95
192236,note_off,0,0,0,,1,,,70,127
192237,note_on,1,0,0,,1,,,79,127
192237,note_on,0,0,0,,1,,,74,127
192237,note_on,0,0,0,,1,,,71,127
192442,note_off,205,0,0,,0,,,53,95
192443,note_on,1,0,0,,0,,,51,95
192443,note_on,0,0,0,,0,,,67,95
192648,note_off,205,0,0,,0,,,67,95
192648,note_off,0,0,0,,0,,,51,95
192649,note_on,1,0,0,,0,,,50,95
192649,note_on,0,0,0,,0,,,71,95
192854,note_off,205,0,0,,0,,,71,95
192854,note_off,0,0,0,,0,,,50,95
192854,note_off,0,0,0,,1,,,71,127
192854,note_off,0,0,0,,1,,,74,127
192854,note_off,0,0,0,,1,,,79,127
192855,note_on,1,0,0,,0,,,51,95
192855,note_on,0,0,0,,1,,,79,127
192855,note_on,0,0,0,,1,,,72,127
193060,note_off,205,0,0,,0,,,51,95
193061,note_on,1,0,0,,0,,,48,95
193061,note_on,0,0,0,,0,,,63,95
193266,note_off,205,0,0,,0,,,63,95
193266,note_off,0,0,0,,0,,,48,95
193267,note_on,1,0,0,,0,,,55,95
193267,note_on,0,0,0,,0,,,72,95
193472,note_off,205,0,0,,0,,,72,95
193472,note_off,0,0,0,,1,,,72,127
193472,note_off,0,0,0,,1,,,79,127
193473,note_on,1,0,0,,1,,,73,127
193473,note_on,0,0,0,,1,,,79,127
193678,note_off,205,0,0,,0,,,55,95
193679,note_on,1,0,0,,0,,,54,95
193679,note_on,0,0,0,,0,,,69,95
193884,note_off,205,0,0,,0,,,69,95
193884,note_off,0,0,0,,0,,,54,95
193885,note_on,1,0,0,,0,,,52,95
193885,note_on,0,0,0,,0,,,67,95
194090,note_off,205,0,0,,0,,,67,95
194090,note_off,0,0,0,,0,,,52,95
194090,note_off,0,0,0,,1,,,79,127
194090,note_off,0,0,0,,1,,,73,127
194091,note_on,1,0,0,,0,,,50,95
194091,note_on,0,0,0,,0,,,69,95
194091,note_on,0,0,0,,1,,,78,127
194296,note_off,205,0,0,,1,,,78,127
194296,note_off,0,0,0,,0,,,69,95
194297,note_on,1,0,0,,0,,,66,95
194297,note_on,0,0,0,,1,,,69,127
194502,note_off,205,0,0,,1,,,69,127
194502,note_off,0,0,0,,0,,,66,95
194503,note_on,1,0,0,,0,,,69,95
194503,note_on,0,0,0,,1,,,72,127
194708,note_off,205,0,0,,1,,,72,127
194708,note_off,0,0,0,,0,,,69,95
194708,note_off,0,0,0,,0,,,50,95
194709,note_on,1,0,0,,0,,,55,95
194709,note_on,0,0,0,,1,,,70,127
194709,note_on,0,0,0,,1,,,79,127
194914,note_off,205,0,0,,0,,,55,95
194915,note_on,1,0,0,,0,,,58,95
194915,note_on,0,0,0,,0,,,74,95
195120,note_off,205,0,0,,0,,,74,95
195120,note_off,0,0,0,,0,,,58,95
195121,note_on,1,0,0,,0,,,55,95
195121,note_on,0,0,0,,0,,,70,95
195326,note_off,205,0,0,,0,,,70,95
195326,note_off,0,0,0,,0,,,55,95
195326,note_off,0,0,0,,1,,,79,127
195326,note_off,0,0,0,,1,,,70,127
195327,note_on,1,0,0,,0,,,50,95
195327,note_on,0,0,0,,0,,,69,95
195327,note_on,0,0,0,,1,,,78,127
195532,note_off,205,0,0,,1,,,78,127
195532,note_off,0,0,0,,0,,,69,95
195533,note_on,1,0,0,,0,,,66,95
195533,note_on,0,0,0,,1,,,69,127
195738,note_off,205,0,0,,1,,,69,127
195738,note_off,0,0,0,,0,,,66,95
195739,note_on,1,0,0,,0,,,69,95
195739,note_on,0,0,0,,1,,,72,127
195944,note_off,205,0,0,,1,,,72,127
195944,note_off,0,0,0,,0,,,69,95
195944,note_off,0,0,0,,0,,,50,95
195945,note_on,1,0,0,,0,,,43,95
195945,note_on,0,0,0,,1,,,70,127
195945,note_on,0,0,0,,1,,,79,127
196150,note_off,205,0,0,,0,,,43,95
196151,note_on,1,0,0,,0,,,46,95
196151,note_on,0,0,0,,0,,,74,95
196356,note_off,205,0,0,,0,,,74,95
196356,note_off,0,0,0,,0,,,46,95
196357,note_on,1,0,0,,0,,,43,95
196357,note_on,0,0,0,,0,,,70,95
196562,note_off,205,0,0,,0,,,70,95
196562,note_off,0,0,0,,0,,,43,95
196562,note_off,0,0,0,,1,,,79,127
196562,note_off,0,0,0,,1,,,70,127
196563,note_on,1,0,0,,0,,,50,95
196563,note_on,0,0,0,,0,,,69,95
196563,note_on,0,0,0,,1,,,78,127
196768,note_off,205,0,0,,1,,,78,127
196768,note_off,0,0,0,,0,,,69,95
196769,note_on,1,0,0,,0,,,66,95
196769,note_on,0,0,0,,1,,,81,127
196974,note_off,205,0,0,,1,,,81,127
196974,note_off,0,0,0,,0,,,66,95
196975,note_on,1,0,0,,0,,,69,95
196975,note_on,0,0,0,,1,,,84,127
197180,note_off,205,0,0,,1,,,84,127
197180,note_off,0,0,0,,0,,,69,95
197180,note_off,0,0,0,,0,,,50,95
197181,note_on,1,0,0,,0,,,55,95
197181,note_on,0,0,0,,0,,,62,95
197181,note_on,0,0,0,,1,,,70,127
197386,note_off,205,0,0,,1,,,70,127
197386,note_off,0,0,0,,0,,,62,95
197387,note_on,1,0,0,,0,,,67,95
197387,note_on,0,0,0,,1,,,74,127
197592,note_off,205,0,0,,1,,,74,127
197592,note_off,0,0,0,,0,,,67,95
197593,note_on,1,0,0,,0,,,70,95
197593,note_on,0,0,0,,1,,,79,127
197798,note_off,205,0,0,,1,,,79,127
197798,note_off,0,0,0,,0,,,70,95
197798,note_off,0,0,0,,0,,,55,95
197799,note_on,1,0,0,,0,,,48,95
197799,note_on,0,0,0,,0,,,67,95
197799,note_on,0,0,0,,1,,,75,127
198004,note_off,205,0,0,,1,,,75,127
198004,note_off,0,0,0,,0,,,48,95
198005,note_on,1,0,0,,0,,,50,95
198005,note_on,0,0,0,,1,,,74,127
198210,note_off,205,0,0,,1,,,74,127
198210,note_off,0,0,0,,0,,,50,95
198211,note_on,1,0,0,,0,,,51,95
198211,note_on,0,0,0,,1,,,72,127
198416,note_off,205,0,0,,1,,,72,127
198416,note_off,0,0,0,,0,,,51,95
198417,note_on,1,0,0,,0,,,50,95
198417,note_on,0,0,0,,1,,,70,127
198622,note_off,205,0,0,,1,,,70,127
198622,note_off,0,0,0,,0,,,50,95
198622,note_off,0,0,0,,0,,,67,95
198623,note_on,1,0,0,,0,,,48,95
198623,note_on,0,0,0,,0,,,66,95
198623,note_on,0,0,0,,1,,,72,127
198828,note_off,205,0,0,,1,,,72,127
198828,note_off,0,0,0,,0,,,48,95
198829,note_on,1,0,0,,0,,,50,95
198829,note_on,0,0,0,,1,,,69,127
199034,note_off,205,0,0,,1,,,69,127
199034,note_off,0,0,0,,0,,,50,95
199034,note_off,0,0,0,,0,,,66,95
199035,note_on,1,0,0,,0,,,55,95
199035,note_on,0,0,0,,0,,,70,95
199035,note_on,0,0,0,,1,,,67,127
199240,note_off,205,0,0,,1,,,67,127
199240,note_off,0,0,0,,0,,,70,95
199241,note_on,1,0,0,,0,,,67,95
199241,note_on,0,0,0,,1,,,75,127
199446,note_off,205,0,0,,1,,,75,127
199446,note_off,0,0,0,,0,,,67,95
199447,note_on,1,0,0,,0,,,75,95
199447,note_on,0,0,0,,1,,,79,127
199652,note_off,205,0,0,,1,,,79,127
199652,note_off,0,0,0,,0,,,75,95
199652,note_off,0,0,0,,0,,,55,95
199653,note_on,1,0,0,,0,,,54,95
199653,note_on,0,0,0,,0,,,72,95
199653,note_on,0,0,0,,1,,,69,127
199858,note_off,205,0,0,,1,,,69,127
199858,note_off,0,0,0,,0,,,72,95
199859,note_on,1,0,0,,0,,,69,95
199859,note_on,0,0,0,,1,,,78,127
200064,note_off,205,0,0,,1,,,78,127
200064,note_off,0,0,0,,0,,,69,95
200065,note_on,1,0,0,,0,,,74,95
200065,note_on,0,0,0,,1,,,81,127
200270,note_off,205,0,0,,1,,,81,127
200270,note_off,0,0,0,,0,,,74,95
200270,note_off,0,0,0,,0,,,54,95
200271,note_on,1,0,0,,0,,,55,95
200271,note_on,0,0,0,,0,,,70,95
200271,note_on,0,0,0,,1,,,70,127
200476,note_off,205,0,0,,1,,,70,127
200476,note_off,0,0,0,,0,,,70,95
200477,note_on,1,0,0,,0,,,67,95
200477,note_on,0,0,0,,1,,,75,127
200682,note_off,205,0,0,,1,,,75,127
200682,note_off,0,0,0,,0,,,67,95
200683,note_on,1,0,0,,0,,,75,95
200683,note_on,0,0,0,,1,,,79,127
200888,note_off,205,0,0,,1,,,79,127
200888,note_off,0,0,0,,0,,,75,95
200888,note_off,0,0,0,,0,,,55,95
200889,note_on,1,0,0,,0,,,54,95
200889,note_on,0,0,0,,0,,,72,95
200889,note_on,0,0,0,,1,,,69,127
201094,note_off,205,0,0,,1,,,69,127
201094,note_off,0,0,0,,0,,,72,95
201095,note_on,1,0,0,,0,,,69,95
201095,note_on,0,0,0,,1,,,78,127
201300,note_off,205,0,0,,1,,,78,127
201300,note_off,0,0,0,,0,,,69,95
201301,note_on,1,0,0,,0,,,72,95
201301,note_on,0,0,0,,1,,,81,127
201506,note_off,205,0,0,,1,,,81,127
201506,note_off,0,0,0,,0,,,72,95
201506,note_off,0,0,0,,0,,,54,95
201507,note_on,1,0,0,,0,,,55,95
201507,note_on,0,0,0,,0,,,74,95
201507,note_on,0,0,0,,1,,,82,127
201712,note_off,205,0,0,,1,,,82,127
201712,note_off,0,0,0,,0,,,74,95
201713,note_on,1,0,0,,0,,,70,95
201713,note_on,0,0,0,,1,,,79,127
201918,note_off,205,0,0,,1,,,79,127
201918,note_off,0,0,0,,0,,,70,95
201919,note_on,1,0,0,,0,,,74,95
201919,note_on,0,0,0,,1,,,82,127
202124,note_off,205,0,0,,1,,,82,127
202124,note_off,0,0,0,,0,,,74,95
202124,note_off,0,0,0,,0,,,55,95
202125,note_on,1,0,0,,0,,,50,95
202125,note_on,0,0,0,,0,,,72,95
202125,note_on,0,0,0,,1,,,81,127
202330,note_off,205,0,0,,1,,,81,127
202330,note_off,0,0,0,,0,,,72,95
202331,note_on,1,0,0,,0,,,70,95
202331,note_on,0,0,0,,1,,,86,127
202536,note_off,205,0,0,,1,,,86,127
202536,note_off,0,0,0,,0,,,70,95
202537,note_on,1,0,0,,0,,,69,95
202537,note_on,0,0,0,,1,,,78,127
202742,note_off,205,0,0,,1,,,78,127
202742,note_off,0,0,0,,0,,,69,95
202742,note_off,0,0,0,,0,,,50,95
202743,note_on,1,0,0,,0,,,51,95
202743,note_on,0,0,0,,0,,,70,95
202743,note_on,0,0,0,,1,,,79,127
202948,note_off,205,0,0,,0,,,51,95
202949,note_on,1,0,0,,0,,,50,95
203154,note_off,205,0,0,,0,,,50,95
203154,note_off,0,0,0,,0,,,70,95
203155,note_on,1,0,0,,0,,,48,95
203155,note_on,0,0,0,,0,,,69,95
203360,note_off,205,0,0,,0,,,69,95
203360,note_off,0,0,0,,0,,,48,95
203361,note_on,1,0,0,,0,,,46,95
203361,note_on,0,0,0,,0,,,74,95
203566,note_off,205,0,0,,1,,,79,127
203567,note_on,1,0,0,,1,,,77,127
203772,note_off,205,0,0,,1,,,77,127
203772,note_off,0,0,0,,0,,,74,95
203772,note_off,0,0,0,,0,,,46,95
203773,note_on,1,0,0,,0,,,48,95
203773,note_on,0,0,0,,0,,,67,95
203773,note_on,0,0,0,,1,,,75,127
203978,note_off,205,0,0,,1,,,75,127
203978,note_off,0,0,0,,0,,,67,95
203978,note_off,0,0,0,,0,,,48,95
203979,note_on,1,0,0,,0,,,42,95
203979,note_on,0,0,0,,0,,,69,95
203979,note_on,0,0,0,,1,,,74,127
204184,note_off,205,0,0,,1,,,74,127
204185,note_on,1,0,0,,1,,,72,127
204390,note_off,205,0,0,,1,,,72,127
204390,note_off,0,0,0,,0,,,69,95
204390,note_off,0,0,0,,0,,,42,95
204391,note_on,1,0,0,,0,,,43,95
204391,note_on,0,0,0,,0,,,62,95
204391,note_on,0,0,0,,1,,,70,127
204596,note_off,205,0,0,,1,,,70,127
204596,note_off,0,0,0,,0,,,62,95
204596,note_off,0,0,0,,0,,,43,95
204597,note_on,1,0,0,,0,,,48,95
204597,note_on,0,0,0,,0,,,63,95
204597,note_on,0,0,0,,1,,,69,127
204802,note_off,205,0,0,,1,,,69,127
204803,note_on,1,0,0,,1,,,67,127
205008,note_off,205,0,0,,1,,,67,127
205008,note_off,0,0,0,,0,,,63,95
205008,note_off,0,0,0,,0,,,48,95
205009,note_on,1,0,0,,0,,,50,95
205009,note_on,0,0,0,,0,,,62,95
205009,note_on,0,0,0,,1,,,66,127
205214,note_off,205,0,0,,1,,,66,127
205214,note_off,0,0,0,,0,,,62,95
205214,note_off,0,0,0,,0,,,50,95
205215,note_on,1,0,0,,0,,,51,95
205215,note_on,0,0,0,,0,,,60,95
205215,note_on,0,0,0,,1,,,67,127
205420,note_off,205,0,0,,1,,,67,127
205421,note_on,1,0,0,,1,,,75,127
205626,note_off,205,0,0,,1,,,75,127
205626,note_off,0,0,0,,0,,,60,95
205626,note_off,0,0,0,,0,,,51,95
205627,note_on,1,0,0,,0,,,48,95
205627,note_on,0,0,0,,0,,,63,95
205627,note_on,0,0,0,,1,,,79,127
205832,note_off,205,0,0,,1,,,79,127
205832,note_off,0,0,0,,0,,,63,95
205832,note_off,0,0,0,,0,,,48,95
205833,note_on,1,0,0,,0,,,54,95
205833,note_on,0,0,0,,0,,,62,95
205833,note_on,0,0,0,,1,,,69,127
206038,note_off,205,0,0,,1,,,69,127
206039,note_on,1,0,0,,1,,,78,127
206244,note_off,205,0,0,,1,,,78,127
206244,note_off,0,0,0,,0,,,62,95
206244,note_off,0,0,0,,0,,,54,95
206245,note_on,1,0,0,,0,,,50,95
206245,note_on,0,0,0,,0,,,66,95
206245,note_on,0,0,0,,1,,,81,127
206450,note_off,205,0,0,,1,,,81,127
206450,note_off,0,0,0,,0,,,66,95
206450,note_off,0,0,0,,0,,,50,95
206451,note_on,1,0,0,,0,,,55,95
206451,note_on,0,0,0,,0,,,62,95
206451,note_on,0,0,0,,1,,,70,127
206656,note_off,205,0,0,,1,,,70,127
206656,note_off,0,0,0,,0,,,62,95
206657,note_on,1,0,0,,0,,,67,95
206657,note_on,0,0,0,,1,,,75,127
206862,note_off,205,0,0,,1,,,75,127
206862,note_off,0,0,0,,0,,,67,95
206863,note_on,1,0,0,,0,,,63,95
206863,note_on,0,0,0,,1,,,79,127
207068,note_off,205,0,0,,1,,,79,127
207068,note_off,0,0,0,,0,,,63,95
207068,note_off,0,0,0,,0,,,55,95
207069,note_on,1,0,0,,0,,,54,95
207069,note_on,0,0,0,,0,,,62,95
207069,note_on,0,0,0,,1,,,69,127
207274,note_off,205,0,0,,1,,,69,127
207274,note_off,0,0,0,,0,,,62,95
207275,note_on,1,0,0,,0,,,69,95
207275,note_on,0,0,0,,1,,,78,127
207480,note_off,205,0,0,,1,,,78,127
207480,note_off,0,0,0,,0,,,69,95
207481,note_on,1,0,0,,0,,,66,95
207481,note_on,0,0,0,,1,,,81,127
207686,note_off,205,0,0,,1,,,81,127
207686,note_off,0,0,0,,0,,,66,95
207686,note_off,0,0,0,,0,,,54,95
207687,note_on,1,0,0,,0,,,55,95
207687,note_on,0,0,0,,0,,,62,95
207687,note_on,0,0,0,,1,,,82,127
207892,note_off,205,0,0,,1,,,82,127
207892,note_off,0,0,0,,0,,,62,95
207893,note_on,1,0,0,,0,,,70,95
207893,note_on,0,0,0,,1,,,79,127
208098,note_off,205,0,0,,1,,,79,127
208098,note_off,0,0,0,,0,,,70,95
208099,note_on,1,0,0,,0,,,67,95
208099,note_on,0,0,0,,1,,,82,127
208304,note_off,205,0,0,,1,,,82,127
208304,note_off,0,0,0,,0,,,67,95
208304,note_off,0,0,0,,0,,,55,95
208305,note_on,1,0,0,,0,,,50,95
208305,note_on,0,0,0,,0,,,66,95
208305,note_on,0,0,0,,1,,,81,127
208510,note_off,205,0,0,,1,,,81,127
208510,note_off,0,0,0,,0,,,66,95
208511,note_on,1,0,0,,0,,,67,95
208511,note_on,0,0,0,,1,,,86,127
208716,note_off,205,0,0,,1,,,86,127
208716,note_off,0,0,0,,0,,,67,95
208717,note_on,1,0,0,,0,,,69,95
208717,note_on,0,0,0,,1,,,78,127
208922,note_off,205,0,0,,1,,,78,127
208922,note_off,0,0,0,,0,,,50,95
208923,note_on,1,0,0,,0,,,51,95
208923,note_on,0,0,0,,1,,,79,127
209128,note_off,205,0,0,,0,,,51,95
209128,note_off,0,0,0,,0,,,69,95
209129,note_on,1,0,0,,0,,,50,95
209129,note_on,0,0,0,,0,,,67,95
209334,note_off,205,0,0,,0,,,67,95
209334,note_off,0,0,0,,0,,,50,95
209335,note_on,1,0,0,,0,,,48,95
209335,note_on,0,0,0,,0,,,63,95
209540,note_off,205,0,0,,0,,,63,95
209540,note_off,0,0,0,,0,,,48,95
209541,note_on,1,0,0,,0,,,46,95
209541,note_on,0,0,0,,0,,,62,95
209746,note_off,205,0,0,,1,,,79,127
209747,note_on,1,0,0,,1,,,77,127
209952,note_off,205,0,0,,1,,,77,127
209952,note_off,0,0,0,,0,,,62,95
209952,note_off,0,0,0,,0,,,46,95
209953,note_on,1,0,0,,0,,,48,95
209953,note_on,0,0,0,,0,,,67,95
209953,note_on,0,0,0,,1,,,75,127
210158,note_off,205,0,0,,1,,,75,127
210158,note_off,0,0,0,,0,,,67,95
210158,note_off,0,0,0,,0,,,48,95
210159,note_on,1,0,0,,0,,,42,95
210159,note_on,0,0,0,,0,,,69,95
210159,note_on,0,0,0,,1,,,74,127
210364,note_off,205,0,0,,1,,,74,127
210365,note_on,1,0,0,,1,,,72,127
210570,note_off,205,0,0,,1,,,72,127
210570,note_off,0,0,0,,0,,,69,95
210570,note_off,0,0,0,,0,,,42,95
210571,note_on,1,0,0,,0,,,43,95
210571,note_on,0,0,0,,0,,,62,95
210571,note_on,0,0,0,,1,,,70,127
210776,note_off,205,0,0,,1,,,70,127
210776,note_off,0,0,0,,0,,,62,95
210776,note_off,0,0,0,,0,,,43,95
210777,note_on,1,0,0,,0,,,48,95
210777,note_on,0,0,0,,0,,,63,95
210777,note_on,0,0,0,,1,,,69,127
210982,note_off,205,0,0,,1,,,69,127
210983,note_on,1,0,0,,1,,,67,127
211188,note_off,205,0,0,,1,,,67,127
211188,note_off,0,0,0,,0,,,63,95
211188,note_off,0,0,0,,0,,,48,95
211189,note_on,1,0,0,,0,,,50,95
211189,note_on,0,0,0,,0,,,69,95
211189,note_on,0,0,0,,1,,,66,127
211394,note_off,205,0,0,,1,,,66,127
211394,note_off,0,0,0,,0,,,69,95
211394,note_off,0,0,0,,0,,,50,95
211395,note_on,1,0,0,,0,,,55,95
211395,note_on,0,0,0,,0,,,70,95
211395,note_on,0,0,0,,1,,,67,127
211600,note_off,205,0,0,,1,,,67,127
211600,note_off,0,0,0,,0,,,70,95
211601,note_on,1,0,0,,0,,,67,95
211601,note_on,0,0,0,,1,,,70,127
211806,note_off,205,0,0,,1,,,70,127
211806,note_off,0,0,0,,0,,,67,95
211807,note_on,1,0,0,,0,,,62,95
211807,note_on,0,0,0,,1,,,74,127
212012,note_off,205,0,0,,1,,,74,127
212012,note_off,0,0,0,,0,,,62,95
212012,note_off,0,0,0,,0,,,55,95
212013,note_on,1,0,0,,0,,,52,95
212013,note_on,0,0,0,,0,,,67,95
212013,note_on,0,0,0,,1,,,73,127
212218,note_off,205,0,0,,1,,,73,127
212218,note_off,0,0,0,,0,,,67,95
212219,note_on,1,0,0,,0,,,69,95
212219,note_on,0,0,0,,1,,,76,127
212424,note_off,205,0,0,,1,,,76,127
212424,note_off,0,0,0,,0,,,69,95
212425,note_on,1,0,0,,0,,,70,95
212425,note_on,0,0,0,,1,,,79,127
212630,note_off,205,0,0,,1,,,79,127
212630,note_off,0,0,0,,0,,,70,95
212630,note_off,0,0,0,,0,,,52,95
212631,note_on,1,0,0,,0,,,50,95
212631,note_on,0,0,0,,0,,,69,95
212631,note_on,0,0,0,,1,,,78,127
212836,note_off,205,0,0,,1,,,78,127
212836,note_off,0,0,0,,0,,,69,95
212837,note_on,1,0,0,,0,,,67,95
212837,note_on,0,0,0,,1,,,81,127
213042,note_off,205,0,0,,1,,,81,127
213042,note_off,0,0,0,,0,,,67,95
213043,note_on,1,0,0,,0,,,69,95
213043,note_on,0,0,0,,1,,,84,127
213248,note_off,205,0,0,,1,,,84,127
213248,note_off,0,0,0,,0,,,69,95
213248,note_off,0,0,0,,0,,,50,95
213249,note_on,1,0,0,,0,,,55,95
213249,note_on,0,0,0,,0,,,70,95
213249,note_on,0,0,0,,1,,,82,127
213454,note_off,205,0,0,,1,,,82,127
213454,note_off,0,0,0,,0,,,70,95
213455,note_on,1,0,0,,0,,,67,95
213455,note_on,0,0,0,,1,,,74,127
213660,note_off,205,0,0,,1,,,74,127
213660,note_off,0,0,0,,0,,,67,95
213661,note_on,1,0,0,,0,,,70,95
213661,note_on,0,0,0,,1,,,79,127
213866,note_off,205,0,0,,1,,,79,127
213866,note_off,0,0,0,,0,,,70,95
213866,note_off,0,0,0,,0,,,55,95
213867,note_on,1,0,0,,0,,,48,95
213867,note_on,0,0,0,,0,,,67,95
213867,note_on,0,0,0,,1,,,75,127
214072,note_off,205,0,0,,1,,,75,127
214073,note_on,1,0,0,,1,,,74,127
214278,note_off,205,0,0,,1,,,74,127
214278,note_off,0,0,0,,0,,,67,95
214279,note_on,1,0,0,,0,,,69,95
214279,note_on,0,0,0,,1,,,72,127
214484,note_off,205,0,0,,1,,,72,127
214484,note_off,0,0,0,,0,,,69,95
214484,note_off,0,0,0,,0,,,48,95
214485,note_on,1,0,0,,0,,,50,95
214485,note_on,0,0,0,,0,,,67,95
214485,note_on,0,0,0,,1,,,70,127
214690,note_off,205,0,0,,1,,,70,127
214690,note_off,0,0,0,,0,,,67,95
214691,note_on,1,0,0,,0,,,69,95
214691,note_on,0,0,0,,1,,,72,127
214896,note_off,205,0,0,,1,,,72,127
214896,note_off,0,0,0,,0,,,69,95
214897,note_on,1,0,0,,0,,,66,95
214897,note_on,0,0,0,,1,,,69,127
215102,note_off,205,0,0,,1,,,69,127
215102,note_off,0,0,0,,0,,,66,95
215102,note_off,0,0,0,,0,,,50,95
215103,note_on,1,0,0,,0,,,55,95
215103,note_on,0,0,0,,0,,,62,95
215103,note_on,0,0,0,,1,,,67,127
215311,note_off,208,0,0,,1,,,67,127
215311,note_off,0,0,0,,0,,,62,95
215312,note_on,1,0,0,,1,,,70,127
215520,note_off,208,0,0,,1,,,70,127
215521,note_on,1,0,0,,0,,,70,95
215521,note_on,0,0,0,,1,,,74,127
215729,note_off,208,0,0,,1,,,74,127
215729,note_off,0,0,0,,0,,,70,95
215729,note_off,0,0,0,,0,,,55,95
215730,note_on,1,0,0,,0,,,52,95
215730,note_on,0,0,0,,0,,,67,95
215730,note_on,0,0,0,,1,,,73,127
215938,note_off,208,0,0,,1,,,73,127
215938,note_off,0,0,0,,0,,,67,95
215939,note_on,1,0,0,,1,,,76,127
216147,note_off,208,0,0,,1,,,76,127
216148,note_on,1,0,0,,0,,,64,95
216148,note_on,0,0,0,,1,,,79,127
216356,note_off,208,0,0,,1,,,79,127
216356,note_off,0,0,0,,0,,,64,95
216356,note_off,0,0,0,,0,,,52,95
216357,note_on,1,0,0,,0,,,50,95
216357,note_on,0,0,0,,0,,,69,95
216357,note_on,0,0,0,,1,,,78,127
216565,note_off,208,0,0,,1,,,78,127
216565,note_off,0,0,0,,0,,,69,95
216566,note_on,1,0,0,,1,,,81,127
216774,note_off,208,0,0,,1,,,81,127
216775,note_on,1,0,0,,0,,,66,95
216775,note_on,0,0,0,,1,,,84,127
216983,note_off,208,0,0,,1,,,84,127
216983,note_off,0,0,0,,0,,,66,95
216983,note_off,0,0,0,,0,,,50,95
216984,note_on,1,0,0,,0,,,55,95
216984,note_on,0,0,0,,0,,,74,95
216984,note_on,0,0,0,,1,,,82,127
217192,note_off,208,0,0,,1,,,82,127
217192,note_off,0,0,0,,0,,,74,95
217193,note_on,1,0,0,,1,,,74,127
217401,note_off,208,0,0,,1,,,74,127
217402,note_on,1,0,0,,0,,,70,95
217402,note_on,0,0,0,,1,,,79,127
217610,note_off,208,0,0,,1,,,79,127
217610,note_off,0,0,0,,0,,,70,95
217610,note_off,0,0,0,,0,,,55,95
217611,note_on,1,0,0,,0,,,48,95
217611,note_on,0,0,0,,0,,,67,95
217611,note_on,0,0,0,,1,,,75,127
217819,note_off,208,0,0,,1,,,75,127
217819,note_off,0,0,0,,0,,,67,95
217820,note_on,1,0,0,,1,,,74,127
218028,note_off,208,0,0,,1,,,74,127
218029,note_on,1,0,0,,0,,,63,95
218029,note_on,0,0,0,,1,,,72,127
218237,note_off,208,0,0,,1,,,72,127
218237,note_off,0,0,0,,0,,,63,95
218237,note_off,0,0,0,,0,,,48,95
218238,note_on,1,0,0,,0,,,50,95
218238,note_on,0,0,0,,0,,,67,95
218238,note_on,0,0,0,,1,,,70,127
218446,note_off,208,0,0,,1,,,70,127
218446,note_off,0,0,0,,0,,,67,95
218447,note_on,1,0,0,,1,,,72,127
218655,note_off,208,0,0,,1,,,72,127
218656,note_on,1,0,0,,0,,,66,95
218656,note_on,0,0,0,,1,,,69,127
218864,note_off,208,0,0,,1,,,69,127
218864,note_off,0,0,0,,0,,,66,95
218864,note_off,0,0,0,,0,,,50,95
218865,note_on,1,0,0,,0,,,55,95
218865,note_on,0,0,0,,0,,,62,95
218865,note_on,0,0,0,,0,,,67,95
218865,note_on,0,0,0,,0,,,70,95
218865,note_on,0,0,0,,1,,,67,127
219081,note_off,216,0,0,,0,,,70,95
219081,note_off,0,0,0,,0,,,67,95
219081,note_off,0,0,0,,0,,,62,95
219081,note_off,0,0,0,,0,,,55,95
219082,note_on,1,0,0,,0,,,58,95
219298,note_off,216,0,0,,0,,,58,95
219299,note_on,1,0,0,,0,,,55,95
219515,note_off,216,0,0,,0,,,55,95
219515,note_off,0,0,0,,1,,,67,127
219516,note_on,1,0,0,,0,,,54,95
219516,note_on,0,0,0,,1,,,66,127
219516,note_on,0,0,0,,1,,,74,127
219516,note_on,0,0,0,,1,,,69,127
219732,note_off,216,0,0,,0,,,54,95
219733,note_on,1,0,0,,0,,,50,95
219733,note_on,0,0,0,,0,,,66,95
219949,note_off,216,0,0,,0,,,66,95
219949,note_off,0,0,0,,0,,,50,95
219950,note_on,1,0,0,,0,,,62,95
219950,note_on,0,0,0,,0,,,69,95
220166,note_off,216,0,0,,0,,,69,95
220166,note_off,0,0,0,,0,,,62,95
220166,note_off,0,0,0,,1,,,69,127
220166,note_off,0,0,0,,1,,,74,127
220166,note_off,0,0,0,,1,,,66,127
220167,note_on,1,0,0,,0,,,58,95
220167,note_on,0,0,0,,1,,,70,127
220167,note_on,0,0,0,,1,,,79,127
220167,note_on,0,0,0,,1,,,74,127
220167,note_on,0,0,0,,1,,,67,127
220383,note_off,216,0,0,,0,,,58,95
220384,note_on,1,0,0,,0,,,55,95
220384,note_on,0,0,0,,0,,,70,95
220600,note_off,216,0,0,,0,,,70,95
220600,note_off,0,0,0,,0,,,55,95
220601,note_on,1,0,0,,0,,,58,95
220601,note_on,0,0,0,,0,,,67,95
220817,note_off,216,0,0,,0,,,67,95
220817,note_off,0,0,0,,0,,,58,95
220817,note_off,0,0,0,,1,,,67,127
220817,note_off,0,0,0,,1,,,74,127
220817,note_off,0,0,0,,1,,,79,127
220817,note_off,0,0,0,,1,,,70,127
220818,note_on,1,0,0,,0,,,54,95
220818,note_on,0,0,0,,1,,,81,127
220818,note_on,0,0,0,,1,,,69,127
220818,note_on,0,0,0,,1,,,74,127
221034,note_off,216,0,0,,0,,,54,95
221035,note_on,1,0,0,,0,,,50,95
221035,note_on,0,0,0,,0,,,66,95
221251,note_off,216,0,0,,0,,,66,95
221251,note_off,0,0,0,,0,,,50,95
221252,note_on,1,0,0,,0,,,54,95
221252,note_on,0,0,0,,0,,,69,95
221468,note_off,216,0,0,,0,,,69,95
221468,note_off,0,0,0,,0,,,54,95
221468,note_off,0,0,0,,1,,,74,127
221468,note_off,0,0,0,,1,,,69,127
221468,note_off,0,0,0,,1,,,81,127
221469,note_on,1,0,0,,0,,,55,95
221469,note_on,0,0,0,,1,,,70,127
221469,note_on,0,0,0,,1,,,67,127
221469,note_on,0,0,0,,1,,,74,127
221469,note_on,0,0,0,,1,,,79,127
221685,note_off,216,0,0,,0,,,55,95
221686,note_on,1,0,0,,0,,,58,95
221686,note_on,0,0,0,,0,,,67,95
221902,note_off,216,0,0,,0,,,67,95
221902,note_off,0,0,0,,0,,,58,95
221903,note_on,1,0,0,,0,,,55,95
221903,note_on,0,0,0,,0,,,70,95
222119,note_off,216,0,0,,0,,,70,95
222119,note_off,0,0,0,,0,,,55,95
222119,note_off,0,0,0,,1,,,79,127
222119,note_off,0,0,0,,1,,,74,127
222119,note_off,0,0,0,,1,,,67,127
222119,note_off,0,0,0,,1,,,70,127
222120,note_on,1,0,0,,0,,,54,95
222120,note_on,0,0,0,,1,,,69,127
222120,note_on,0,0,0,,1,,,81,127
222120,note_on,0,0,0,,1,,,74,127
222336,note_off,216,0,0,,0,,,54,95
222337,note_on,1,0,0,,0,,,50,95
222337,note_on,0,0,0,,0,,,66,95
222553,note_off,216,0,0,,0,,,66,95
222553,note_off,0,0,0,,0,,,50,95
222554,note_on,1,0,0,,0,,,54,95
222554,note_on,0,0,0,,0,,,74,95
222770,note_off,216,0,0,,0,,,74,95
222770,note_off,0,0,0,,0,,,54,95
222770,note_off,0,0,0,,1,,,74,127
222770,note_off,0,0,0,,1,,,81,127
222770,note_off,0,0,0,,1,,,69,127
222771,note_on,1,0,0,,0,,,55,95
222771,note_on,0,0,0,,1,,,70,127
222771,note_on,0,0,0,,1,,,82,127
222771,note_on,0,0,0,,1,,,74,127
223000,note_off,229,0,0,,0,,,55,95
223001,note_on,1,0,0,,0,,,46,95
223001,note_on,0,0,0,,0,,,67,95
223230,note_off,229,0,0,,0,,,67,95
223230,note_off,0,0,0,,0,,,46,95
223231,note_on,1,0,0,,0,,,43,95
223231,note_on,0,0,0,,0,,,70,95
223460,note_off,229,0,0,,0,,,70,95
223460,note_off,0,0,0,,0,,,43,95
223460,note_off,0,0,0,,1,,,74,127
223460,note_off,0,0,0,,1,,,82,127
223460,note_off,0,0,0,,1,,,70,127
223461,note_on,1,0,0,,0,,,50,95
223461,note_on,0,0,0,,1,,,74,127
223461,note_on,0,0,0,,1,,,69,127
223461,note_on,0,0,0,,1,,,81,127
223711,note_on,250,0,0,,0,,,69,95
223960,note_off,249,0,0,,0,,,69,95
223961,note_on,1,0,0,,0,,,66,95
224210,note_off,249,0,0,,0,,,66,95
224210,note_off,0,0,0,,1,,,81,127
224210,note_off,0,0,0,,1,,,69,127
224210,note_off,0,0,0,,1,,,74,127
224210,note_off,0,0,0,,0,,,50,95
224211,note_on,1,0,0,,0,,,43,95
224211,note_on,0,0,0,,0,,,62,95
224211,note_on,0,0,0,,0,,,67,95
224211,note_on,0,0,0,,0,,,70,95
224211,note_on,0,0,0,,1,,,70,127
224211,note_on,0,0,0,,1,,,67,127
224211,note_on,0,0,0,,1,,,74,127
224211,note_on,0,0,0,,1,,,79,127
226510,note_off,2299,0,0,,1,,,79,127
226510,note_off,0,0,0,,1,,,74,127
226510,note_off,0,0,0,,1,,,67,127
226510,note_off,0,0,0,,1,,,70,127
226510,note_off,0,0,0,,0,,,70,95
226510,note_off,0,0,0,,0,,,67,95
226510,note_off,0,0,0,,0,,,62,95
226510,note_off,0,0,0,,0,,,43,95
227562,note_on,1052,0,0,,1,,,81,127
228062,note_off,500,0,0,,1,,,81,127
228063,note_on,1,0,0,,1,,,82,127
228563,note_off,500,0,0,,1,,,82,127
228564,note_on,1,0,0,,1,,,82,127
228564,note_on,0,0,0,,0,,,69,95
228564,note_on,0,0,0,,0,,,66,95
228564,note_on,0,0,0,,0,,,50,95
228813,note_off,249,0,0,,1,,,82,127
228814,note_on,1,0,0,,1,,,81,127
229063,note_off,249,0,0,,0,,,50,95
229063,note_off,0,0,0,,0,,,66,95
229063,note_off,0,0,0,,0,,,69,95
229064,note_on,1,0,0,,0,,,60,95
229064,note_on,0,0,0,,0,,,67,95
229064,note_on,0,0,0,,0,,,51,95
229313,note_off,249,0,0,,1,,,81,127
229314,note_on,1,0,0,,1,,,79,127
229563,note_off,249,0,0,,1,,,79,127
229563,note_off,0,0,0,,0,,,51,95
229563,note_off,0,0,0,,0,,,67,95
229563,note_off,0,0,0,,0,,,60,95
229564,note_on,1,0,0,,1,,,78,127
229564,note_on,0,0,0,,0,,,69,95
229564,note_on,0,0,0,,0,,,72,95
229564,note_on,0,0,0,,0,,,50,95
229813,note_off,249,0,0,,1,,,78,127
229814,note_on,1,0,0,,1,,,79,127
229938,note_off,124,0,0,,1,,,79,127
229939,note_on,1,0,0,,1,,,81,127
230063,note_off,124,0,0,,1,,,81,127
230064,note_on,1,0,0,,1,,,72,127
230313,note_off,249,0,0,,0,,,50,95
230313,note_off,0,0,0,,0,,,72,95
230313,note_off,0,0,0,,0,,,69,95
230314,note_on,1,0,0,,0,,,69,95
230314,note_on,0,0,0,,0,,,62,95
230314,note_on,0,0,0,,0,,,54,95
230563,note_off,249,0,0,,0,,,54,95
230563,note_off,0,0,0,,0,,,62,95
230563,note_off,0,0,0,,0,,,69,95
230563,note_off,0,0,0,,1,,,72,127
230564,note_on,1,0,0,,1,,,70,127
230564,note_on,0,0,0,,0,,,62,95
230564,note_on,0,0,0,,0,,,70,95
230564,note_on,0,0,0,,0,,,55,95
230813,note_off,249,0,0,,1,,,70,127
230814,note_on,1,0,0,,1,,,74,127
231063,note_off,249,0,0,,1,,,74,127
231064,note_on,1,0,0,,1,,,79,127
231313,note_off,249,0,0,,0,,,55,95
231313,note_off,0,0,0,,0,,,70,95
231313,note_off,0,0,0,,0,,,62,95
231314,note_on,1,0,0,,0,,,67,95
231314,note_on,0,0,0,,0,,,60,95
231314,note_on,0,0,0,,0,,,51,95
231563,note_off,249,0,0,,0,,,51,95
231563,note_off,0,0,0,,0,,,60,95
231563,note_off,0,0,0,,0,,,67,95
231563,note_off,0,0,0,,1,,,79,127
231564,note_on,1,0,0,,1,,,78,127
231564,note_on,0,0,0,,0,,,66,95
231564,note_on,0,0,0,,0,,,69,95
231564,note_on,0,0,0,,0,,,50,95
231813,note_off,249,0,0,,1,,,78,127
231814,note_on,1,0,0,,1,,,79,127
231938,note_off,124,0,0,,1,,,79,127
231939,note_on,1,0,0,,1,,,81,127
232063,note_off,124,0,0,,1,,,81,127
232064,note_on,1,0,0,,1,,,72,127
232313,note_off,249,0,0,,0,,,50,95
232313,note_off,0,0,0,,0,,,69,95
232313,note_off,0,0,0,,0,,,66,95
232314,note_on,1,0,0,,0,,,62,95
232314,note_on,0,0,0,,0,,,69,95
232314,note_on,0,0,0,,0,,,54,95
232563,note_off,249,0,0,,0,,,54,95
232563,note_off,0,0,0,,0,,,69,95
232563,note_off,0,0,0,,0,,,62,95
232563,note_off,0,0,0,,1,,,72,127
232564,note_on,1,0,0,,1,,,70,127
232564,note_on,0,0,0,,0,,,70,95
232564,note_on,0,0,0,,0,,,62,95
232564,note_on,0,0,0,,0,,,55,95
232813,note_off,249,0,0,,1,,,70,127
232814,note_on,1,0,0,,1,,,74,127
233063,note_off,249,0,0,,1,,,74,127
233064,note_on,1,0,0,,1,,,79,127
233313,note_off,249,0,0,,0,,,55,95
233313,note_off,0,0,0,,0,,,62,95
233313,note_off,0,0,0,,0,,,70,95
233314,note_on,1,0,0,,0,,,62,95
233314,note_on,0,0,0,,0,,,70,95
233314,note_on,0,0,0,,0,,,43,95
233563,note_off,249,0,0,,0,,,43,95
233563,note_off,0,0,0,,0,,,70,95
233563,note_off,0,0,0,,0,,,62,95
233564,note_on,1,0,0,,0,,,69,95
233564,note_on,0,0,0,,0,,,65,95
233564,note_on,0,0,0,,0,,,45,95
233813,note_off,249,0,0,,1,,,79,127
233814,note_on,1,0,0,,1,,,77,127
233938,note_off,124,0,0,,1,,,77,127
233939,note_on,1,0,0,,1,,,75,127
234063,note_off,124,0,0,,1,,,75,127
234064,note_on,1,0,0,,1,,,74,127
234313,note_off,249,0,0,,1,,,74,127
234313,note_off,0,0,0,,0,,,45,95
234313,note_off,0,0,0,,0,,,65,95
234313,note_off,0,0,0,,0,,,69,95
234314,note_on,1,0,0,,1,,,73,127
234314,note_on,0,0,0,,0,,,69,95
234314,note_on,0,0,0,,0,,,64,95
234314,note_on,0,0,0,,0,,,57,95
234563,note_off,249,0,0,,0,,,57,95
234563,note_off,0,0,0,,0,,,64,95
234563,note_off,0,0,0,,0,,,69,95
234563,note_off,0,0,0,,1,,,73,127
234564,note_on,1,0,0,,1,,,74,127
234564,note_on,0,0,0,,0,,,65,95
234564,note_on,0,0,0,,0,,,62,95
234564,note_on,0,0,0,,0,,,58,95
234813,note_off,249,0,0,,1,,,74,127
234814,note_on,1,0,0,,1,,,74,127
235063,note_off,249,0,0,,1,,,74,127
235064,note_on,1,0,0,,1,,,82,127
235313,note_off,249,0,0,,0,,,58,95
235313,note_off,0,0,0,,0,,,62,95
235313,note_off,0,0,0,,0,,,65,95
235314,note_on,1,0,0,,0,,,67,95
235314,note_on,0,0,0,,0,,,62,95
235314,note_on,0,0,0,,0,,,55,95
235563,note_off,249,0,0,,0,,,55,95
235563,note_off,0,0,0,,0,,,62,95
235563,note_off,0,0,0,,0,,,67,95
235564,note_on,1,0,0,,0,,,67,95
235564,note_on,0,0,0,,0,,,64,95
235564,note_on,0,0,0,,0,,,61,95
235813,note_off,249,0,0,,1,,,82,127
235814,note_on,1,0,0,,1,,,81,127
235938,note_off,124,0,0,,1,,,81,127
235939,note_on,1,0,0,,1,,,79,127
236063,note_off,124,0,0,,1,,,79,127
236064,note_on,1,0,0,,1,,,77,127
236313,note_off,249,0,0,,1,,,77,127
236313,note_off,0,0,0,,0,,,61,95
236313,note_off,0,0,0,,0,,,64,95
236313,note_off,0,0,0,,0,,,67,95
236314,note_on,1,0,0,,1,,,76,127
236314,note_on,0,0,0,,0,,,73,95
236314,note_on,0,0,0,,0,,,64,95
236314,note_on,0,0,0,,0,,,57,95
236563,note_off,249,0,0,,0,,,57,95
236563,note_off,0,0,0,,0,,,64,95
236563,note_off,0,0,0,,0,,,73,95
236563,note_off,0,0,0,,1,,,76,127
236564,note_on,1,0,0,,1,,,77,127
236564,note_on,0,0,0,,0,,,69,95
236564,note_on,0,0,0,,0,,,65,95
236564,note_on,0,0,0,,0,,,62,95
237064,note_off,500,0,0,,0,,,62,95
237064,note_off,0,0,0,,0,,,65,95
237064,note_off,0,0,0,,0,,,69,95
237064,note_off,0,0,0,,1,,,77,127
237065,note_on,1,0,0,,1,,,76,127
237065,note_on,0,0,0,,0,,,73,95
237065,note_on,0,0,0,,0,,,69,95
237065,note_on,0,0,0,,0,,,57,95
237565,note_off,500,0,0,,0,,,57,95
237565,note_off,0,0,0,,0,,,69,95
237565,note_off,0,0,0,,0,,,73,95
237566,note_on,1,0,0,,0,,,67,95
237566,note_on,0,0,0,,0,,,62,95
237566,note_on,0,0,0,,0,,,58,95
237815,note_off,249,0,0,,1,,,76,127
237816,note_on,1,0,0,,1,,,74,127
237940,note_off,124,0,0,,1,,,74,127
237941,note_on,1,0,0,,1,,,73,127
238065,note_off,124,0,0,,1,,,73,127
238066,note_on,1,0,0,,1,,,74,127
238315,note_off,249,0,0,,1,,,74,127
238315,note_off,0,0,0,,0,,,58,95
238315,note_off,0,0,0,,0,,,62,95
238315,note_off,0,0,0,,0,,,67,95
238316,note_on,1,0,0,,1,,,76,127
238316,note_on,0,0,0,,0,,,73,95
238316,note_on,0,0,0,,0,,,64,95
238316,note_on,0,0,0,,0,,,57,95
238565,note_off,249,0,0,,0,,,57,95
238565,note_off,0,0,0,,0,,,64,95
238565,note_off,0,0,0,,0,,,73,95
238565,note_off,0,0,0,,1,,,76,127
238566,note_on,1,0,0,,1,,,77,127
238566,note_on,0,0,0,,0,,,69,95
238566,note_on,0,0,0,,0,,,65,95
238566,note_on,0,0,0,,0,,,62,95
239066,note_off,500,0,0,,0,,,62,95
239066,note_off,0,0,0,,0,,,65,95
239066,note_off,0,0,0,,0,,,69,95
239066,note_off,0,0,0,,1,,,77,127
239067,note_on,1,0,0,,1,,,76,127
239067,note_on,0,0,0,,0,,,73,95
239067,note_on,0,0,0,,0,,,64,95
239067,note_on,0,0,0,,0,,,57,95
239567,note_off,500,0,0,,0,,,57,95
239567,note_off,0,0,0,,0,,,64,95
239567,note_off,0,0,0,,0,,,73,95
239568,note_on,1,0,0,,0,,,67,95
239568,note_on,0,0,0,,0,,,62,95
239568,note_on,0,0,0,,0,,,58,95
239817,note_off,249,0,0,,1,,,76,127
239818,note_on,1,0,0,,1,,,74,127
239942,note_off,124,0,0,,1,,,74,127
239943,note_on,1,0,0,,1,,,73,127
240067,note_off,124,0,0,,1,,,73,127
240068,note_on,1,0,0,,1,,,74,127
240317,note_off,249,0,0,,1,,,74,127
240317,note_off,0,0,0,,0,,,58,95
240317,note_off,0,0,0,,0,,,62,95
240317,note_off,0,0,0,,0,,,67,95
240318,note_on,1,0,0,,1,,,76,127
240318,note_on,0,0,0,,0,,,73,95
240318,note_on,0,0,0,,0,,,64,95
240318,note_on,0,0,0,,0,,,57,95
240567,note_off,249,0,0,,0,,,57,95
240567,note_off,0,0,0,,0,,,64,95
240567,note_off,0,0,0,,0,,,73,95
240567,note_off,0,0,0,,1,,,76,127
240568,note_on,1,0,0,,1,,,77,127
240568,note_on,0,0,0,,0,,,69,95
240568,note_on,0,0,0,,0,,,65,95
240568,note_on,0,0,0,,0,,,62,95
240817,note_off,249,0,0,,1,,,77,127
240818,note_on,1,0,0,,1,,,76,127
240942,note_off,124,0,0,,1,,,76,127
240943,note_on,1,0,0,,1,,,77,127
241067,note_off,124,0,0,,1,,,77,127
241067,note_off,0,0,0,,0,,,62,95
241067,note_off,0,0,0,,0,,,65,95
241067,note_off,0,0,0,,0,,,69,95
241068,note_on,1,0,0,,1,,,79,127
241068,note_on,0,0,0,,0,,,62,95
241068,note_on,0,0,0,,0,,,70,95
241068,note_on,0,0,0,,0,,,55,95
241317,note_off,249,0,0,,1,,,79,127
241318,note_on,1,0,0,,1,,,81,127
241567,note_off,249,0,0,,1,,,81,127
241567,note_off,0,0,0,,0,,,55,95
241567,note_off,0,0,0,,0,,,70,95
241567,note_off,0,0,0,,0,,,62,95
241568,note_on,1,0,0,,1,,,77,127
241568,note_on,0,0,0,,0,,,69,95
241568,note_on,0,0,0,,0,,,62,95
241568,note_on,0,0,0,,0,,,57,95
242068,note_off,500,0,0,,0,,,57,95
242068,note_off,0,0,0,,0,,,62,95
242068,note_off,0,0,0,,0,,,69,95
242068,note_off,0,0,0,,1,,,77,127
242069,note_on,1,0,0,,1,,,76,127
242069,note_on,0,0,0,,0,,,61,95
242069,note_on,0,0,0,,0,,,69,95
242069,note_on,0,0,0,,0,,,45,95
242569,note_off,500,0,0,,0,,,45,95
242569,note_off,0,0,0,,0,,,69,95
242569,note_off,0,0,0,,0,,,61,95
242569,note_off,0,0,0,,1,,,76,127
242570,note_on,1,0,0,,1,,,74,127
242570,note_on,0,0,0,,0,,,67,95
242570,note_on,0,0,0,,0,,,62,95
242570,note_on,0,0,0,,0,,,46,95
242819,note_off,249,0,0,,1,,,74,127
242820,note_on,1,0,0,,1,,,76,127
242944,note_off,124,0,0,,1,,,76,127
242945,note_on,1,0,0,,1,,,77,127
243069,note_off,124,0,0,,1,,,77,127
243070,note_on,1,0,0,,1,,,79,127
243319,note_off,249,0,0,,1,,,79,127
243319,note_off,0,0,0,,0,,,46,95
243319,note_off,0,0,0,,0,,,62,95
243319,note_off,0,0,0,,0,,,67,95
243320,note_on,1,0,0,,1,,,81,127
243320,note_on,0,0,0,,0,,,64,95
243320,note_on,0,0,0,,0,,,45,95
243444,note_off,124,0,0,,0,,,45,95
243445,note_on,1,0,0,,0,,,43,95
243569,note_off,124,0,0,,0,,,43,95
243569,note_off,0,0,0,,0,,,64,95
243569,note_off,0,0,0,,1,,,81,127
243570,note_on,1,0,0,,1,,,77,127
243570,note_on,0,0,0,,0,,,65,95
243570,note_on,0,0,0,,0,,,62,95
243570,note_on,0,0,0,,0,,,45,95
244070,note_off,500,0,0,,0,,,45,95
244070,note_off,0,0,0,,0,,,62,95
244070,note_off,0,0,0,,0,,,65,95
244070,note_off,0,0,0,,1,,,77,127
244071,note_on,1,0,0,,1,,,76,127
244071,note_on,0,0,0,,0,,,69,95
244071,note_on,0,0,0,,0,,,61,95
244071,note_on,0,0,0,,0,,,45,95
244571,note_off,500,0,0,,0,,,45,95
244571,note_off,0,0,0,,0,,,61,95
244571,note_off,0,0,0,,0,,,69,95
244571,note_off,0,0,0,,1,,,76,127
244572,note_on,1,0,0,,1,,,74,127
244572,note_on,0,0,0,,0,,,69,95
244572,note_on,0,0,0,,0,,,66,95
244572,note_on,0,0,0,,0,,,50,95
245573,note_off,1001,0,0,,0,,,50,95
245573,note_off,0,0,0,,0,,,66,95
245573,note_off,0,0,0,,0,,,69,95
245573,note_off,0,0,0,,1,,,74,127
245574,note_on,1,0,0,,1,,,81,127
246074,note_off,500,0,0,,1,,,81,127
246075,note_on,1,0,0,,1,,,82,127
246575,note_off,500,0,0,,1,,,82,127
246576,note_on,1,0,0,,1,,,82,127
246576,note_on,0,0,0,,0,,,69,95
246576,note_on,0,0,0,,0,,,66,95
246576,note_on,0,0,0,,0,,,50,95
246825,note_off,249,0,0,,1,,,82,127
246826,note_on,1,0,0,,1,,,81,127
247075,note_off,249,0,0,,0,,,50,95
247075,note_off,0,0,0,,0,,,66,95
247075,note_off,0,0,0,,0,,,69,95
247076,note_on,1,0,0,,0,,,72,95
247076,note_on,0,0,0,,0,,,67,95
247076,note_on,0,0,0,,0,,,51,95
247325,note_off,249,0,0,,1,,,81,127
247326,note_on,1,0,0,,1,,,79,127
247575,note_off,249,0,0,,1,,,79,127
247575,note_off,0,0,0,,0,,,51,95
247575,note_off,0,0,0,,0,,,67,95
247575,note_off,0,0,0,,0,,,72,95
247576,note_on,1,0,0,,1,,,78,127
247576,note_on,0,0,0,,0,,,69,95
247576,note_on,0,0,0,,0,,,66,95
247576,note_on,0,0,0,,0,,,50,95
247825,note_off,249,0,0,,1,,,78,127
247826,note_on,1,0,0,,1,,,79,127
247950,note_off,124,0,0,,1,,,79,127
247951,note_on,1,0,0,,1,,,81,127
248075,note_off,124,0,0,,1,,,81,127
248076,note_on,1,0,0,,1,,,72,127
248325,note_off,249,0,0,,0,,,50,95
248325,note_off,0,0,0,,0,,,66,95
248325,note_off,0,0,0,,0,,,69,95
248326,note_on,1,0,0,,0,,,69,95
248326,note_on,0,0,0,,0,,,62,95
248326,note_on,0,0,0,,0,,,54,95
248575,note_off,249,0,0,,0,,,54,95
248575,note_off,0,0,0,,0,,,62,95
248575,note_off,0,0,0,,0,,,69,95
248575,note_off,0,0,0,,1,,,72,127
248576,note_on,1,0,0,,1,,,70,127
248576,note_on,0,0,0,,0,,,70,95
248576,note_on,0,0,0,,0,,,62,95
248576,note_on,0,0,0,,0,,,55,95
248825,note_off,249,0,0,,1,,,70,127
248826,note_on,1,0,0,,1,,,74,127
249075,note_off,249,0,0,,1,,,74,127
249076,note_on,1,0,0,,1,,,79,127
249325,note_off,249,0,0,,0,,,55,95
249325,note_off,0,0,0,,0,,,62,95
249325,note_off,0,0,0,,0,,,70,95
249326,note_on,1,0,0,,0,,,70,95
249326,note_on,0,0,0,,0,,,62,95
249326,note_on,0,0,0,,0,,,43,95
249575,note_off,249,0,0,,0,,,43,95
249575,note_off,0,0,0,,0,,,62,95
249576,note_on,1,0,0,,0,,,67,95
249576,note_on,0,0,0,,0,,,45,95
249825,note_off,249,0,0,,1,,,79,127
249826,note_on,1,0,0,,1,,,77,127
249950,note_off,124,0,0,,1,,,77,127
249951,note_on,1,0,0,,1,,,75,127
250075,note_off,124,0,0,,1,,,75,127
250075,note_off,0,0,0,,0,,,45,95
250075,note_off,0,0,0,,0,,,67,95
250075,note_off,0,0,0,,0,,,70,95
250076,note_on,1,0,0,,1,,,74,127
250076,note_on,0,0,0,,0,,,69,95
250076,note_on,0,0,0,,0,,,64,95
250076,note_on,0,0,0,,0,,,57,95
250325,note_off,249,0,0,,1,,,74,127
250326,note_on,1,0,0,,1,,,73,127
250575,note_off,249,0,0,,1,,,73,127
250575,note_off,0,0,0,,0,,,57,95
250575,note_off,0,0,0,,0,,,64,95
250575,note_off,0,0,0,,0,,,69,95
250576,note_on,1,0,0,,1,,,74,127
250576,note_on,0,0,0,,0,,,65,95
250576,note_on,0,0,0,,0,,,62,95
250576,note_on,0,0,0,,0,,,58,95
250825,note_off,249,0,0,,1,,,74,127
250826,note_on,1,0,0,,1,,,77,127
251075,note_off,249,0,0,,1,,,77,127
251076,note_on,1,0,0,,1,,,82,127
251325,note_off,249,0,0,,0,,,58,95
251325,note_off,0,0,0,,0,,,62,95
251325,note_off,0,0,0,,0,,,65,95
251326,note_on,1,0,0,,0,,,65,95
251326,note_on,0,0,0,,0,,,62,95
251326,note_on,0,0,0,,0,,,46,95
251575,note_off,249,0,0,,0,,,46,95
251575,note_off,0,0,0,,0,,,62,95
251575,note_off,0,0,0,,0,,,65,95
251576,note_on,1,0,0,,0,,,67,95
251576,note_on,0,0,0,,0,,,64,95
251576,note_on,0,0,0,,0,,,48,95
251825,note_off,249,0,0,,1,,,82,127
251826,note_on,1,0,0,,1,,,81,127
251950,note_off,124,0,0,,1,,,81,127
251951,note_on,1,0,0,,1,,,79,127
252075,note_off,124,0,0,,1,,,79,127
252076,note_on,1,0,0,,1,,,77,127
252325,note_off,249,0,0,,1,,,77,127
252325,note_off,0,0,0,,0,,,48,95
252325,note_off,0,0,0,,0,,,64,95
252325,note_off,0,0,0,,0,,,67,95
252326,note_on,1,0,0,,1,,,76,127
252326,note_on,0,0,0,,0,,,67,95
252326,note_on,0,0,0,,0,,,64,95
252326,note_on,0,0,0,,0,,,46,95
252575,note_off,249,0,0,,0,,,46,95
252575,note_off,0,0,0,,0,,,64,95
252575,note_off,0,0,0,,0,,,67,95
252575,note_off,0,0,0,,1,,,76,127
252576,note_on,1,0,0,,1,,,77,127
252576,note_on,0,0,0,,0,,,65,95
252576,note_on,0,0,0,,0,,,60,95
252576,note_on,0,0,0,,0,,,45,95
252825,note_off,249,0,0,,1,,,77,127
252826,note_on,1,0,0,,1,,,72,127
253075,note_off,249,0,0,,1,,,72,127
253075,note_off,0,0,0,,0,,,45,95
253075,note_off,0,0,0,,0,,,60,95
253075,note_off,0,0,0,,0,,,65,95
253076,note_on,1,0,0,,1,,,74,127
253076,note_on,0,0,0,,0,,,65,95
253076,note_on,0,0,0,,0,,,62,95
253076,note_on,0,0,0,,0,,,46,95
253325,note_off,249,0,0,,1,,,74,127
253326,note_on,1,0,0,,1,,,70,127
253575,note_off,249,0,0,,1,,,70,127
253575,note_off,0,0,0,,0,,,46,95
253575,note_off,0,0,0,,0,,,62,95
253575,note_off,0,0,0,,0,,,65,95
253576,note_on,1,0,0,,1,,,72,127
253576,note_on,0,0,0,,0,,,67,95
253576,note_on,0,0,0,,0,,,60,95
253576,note_on,0,0,0,,0,,,51,95
254076,note_off,500,0,0,,0,,,51,95
254076,note_off,0,0,0,,0,,,60,95
254076,note_off,0,0,0,,0,,,67,95
254076,note_off,0,0,0,,1,,,72,127
254077,note_on,1,0,0,,1,,,69,127
254077,note_on,0,0,0,,0,,,65,95
254077,note_on,0,0,0,,0,,,60,95
254077,note_on,0,0,0,,0,,,53,95
254577,note_off,500,0,0,,0,,,53,95
254577,note_off,0,0,0,,0,,,60,95
254577,note_off,0,0,0,,0,,,65,95
254577,note_off,0,0,0,,1,,,69,127
254578,note_on,1,0,0,,1,,,70,127
254578,note_on,0,0,0,,0,,,65,95
254578,note_on,0,0,0,,0,,,62,95
254578,note_on,0,0,0,,0,,,46,95
255078,note_off,500,0,0,,0,,,46,95
255078,note_off,0,0,0,,0,,,62,95
255078,note_off,0,0,0,,0,,,65,95
255078,note_off,0,0,0,,1,,,70,127
255079,note_on,1,0,0,,1,,,74,127
255580,note_on,501,0,0,,0,,,70,95
255580,note_on,0,0,0,,0,,,62,95
255580,note_on,0,0,0,,0,,,55,95
255829,note_off,249,0,0,,1,,,74,127
255830,note_on,1,0,0,,1,,,75,127
255954,note_off,124,0,0,,1,,,75,127
255955,note_on,1,0,0,,1,,,77,127
256079,note_off,124,0,0,,1,,,77,127
256080,note_on,1,0,0,,1,,,75,127
256329,note_off,249,0,0,,1,,,75,127
256330,note_on,1,0,0,,1,,,74,127
256579,note_off,249,0,0,,1,,,74,127
256579,note_off,0,0,0,,0,,,55,95
256579,note_off,0,0,0,,0,,,62,95
256579,note_off,0,0,0,,0,,,70,95
256580,note_on,1,0,0,,1,,,72,127
256580,note_on,0,0,0,,0,,,67,95
256580,note_on,0,0,0,,0,,,70,95
256580,note_on,0,0,0,,0,,,57,95
257080,note_off,500,0,0,,0,,,70,95
257080,note_off,0,0,0,,1,,,72,127
257081,note_on,1,0,0,,1,,,81,127
257081,note_on,0,0,0,,0,,,69,95
257581,note_off,500,0,0,,0,,,57,95
257581,note_off,0,0,0,,0,,,67,95
257582,note_on,1,0,0,,0,,,62,95
257582,note_on,0,0,0,,0,,,54,95
257831,note_off,249,0,0,,1,,,81,127
257832,note_on,1,0,0,,1,,,70,127
257956,note_off,124,0,0,,1,,,70,127
257957,note_on,1,0,0,,1,,,72,127
258081,note_off,124,0,0,,1,,,72,127
258081,note_off,0,0,0,,0,,,69,95
258082,note_on,1,0,0,,1,,,74,127
258331,note_off,249,0,0,,1,,,74,127
258332,note_on,1,0,0,,1,,,72,127
258581,note_off,249,0,0,,1,,,72,127
258581,note_off,0,0,0,,0,,,54,95
258581,note_off,0,0,0,,0,,,62,95
258582,note_on,1,0,0,,1,,,70,127
258582,note_on,0,0,0,,0,,,69,95
258582,note_on,0,0,0,,0,,,62,95
258582,note_on,0,0,0,,0,,,55,95
259082,note_off,500,0,0,,0,,,69,95
259082,note_off,0,0,0,,1,,,70,127
259083,note_on,1,0,0,,1,,,79,127
259083,note_on,0,0,0,,0,,,67,95
259583,note_off,500,0,0,,0,,,67,95
259583,note_off,0,0,0,,0,,,55,95
259583,note_off,0,0,0,,0,,,62,95
259584,note_on,1,0,0,,0,,,69,95
259584,note_on,0,0,0,,0,,,63,95
259584,note_on,0,0,0,,0,,,48,95
259833,note_off,249,0,0,,1,,,79,127
259834,note_on,1,0,0,,1,,,69,127
259958,note_off,124,0,0,,1,,,69,127
259959,note_on,1,0,0,,1,,,70,127
260083,note_off,124,0,0,,1,,,70,127
260084,note_on,1,0,0,,1,,,72,127
260333,note_off,249,0,0,,1,,,72,127
260334,note_on,1,0,0,,1,,,70,127
260583,note_off,249,0,0,,1,,,70,127
260583,note_off,0,0,0,,0,,,48,95
260583,note_off,0,0,0,,0,,,63,95
260583,note_off,0,0,0,,0,,,69,95
260584,note_on,1,0,0,,1,,,69,127
260584,note_on,0,0,0,,0,,,69,95
260584,note_on,0,0,0,,0,,,66,95
260584,note_on,0,0,0,,0,,,50,95
261084,note_off,500,0,0,,1,,,69,127
261085,note_on,1,0,0,,1,,,81,127
261585,note_off,500,0,0,,0,,,50,95
261585,note_off,0,0,0,,0,,,66,95
261585,note_off,0,0,0,,0,,,69,95
261586,note_on,1,0,0,,0,,,72,95
261586,note_on,0,0,0,,0,,,67,95
261586,note_on,0,0,0,,0,,,51,95
261835,note_off,249,0,0,,1,,,81,127
261836,note_on,1,0,0,,1,,,79,127
261960,note_off,124,0,0,,1,,,79,127
261961,note_on,1,0,0,,1,,,78,127
262085,note_off,124,0,0,,1,,,78,127
262086,note_on,1,0,0,,1,,,79,127
262335,note_off,249,0,0,,1,,,79,127
262335,note_off,0,0,0,,0,,,51,95
262335,note_off,0,0,0,,0,,,67,95
262335,note_off,0,0,0,,0,,,72,95
262336,note_on,1,0,0,,1,,,81,127
262336,note_on,0,0,0,,0,,,69,95
262336,note_on,0,0,0,,0,,,66,95
262336,note_on,0,0,0,,0,,,50,95
262585,note_off,249,0,0,,0,,,50,95
262585,note_off,0,0,0,,0,,,66,95
262585,note_off,0,0,0,,0,,,69,95
262585,note_off,0,0,0,,1,,,81,127
262586,note_on,1,0,0,,1,,,82,127
262586,note_on,0,0,0,,0,,,62,95
262586,note_on,0,0,0,,0,,,67,95
262586,note_on,0,0,0,,0,,,55,95
263086,note_off,500,0,0,,0,,,55,95
263086,note_off,0,0,0,,0,,,67,95
263086,note_off,0,0,0,,0,,,62,95
263086,note_off,0,0,0,,1,,,82,127
263087,note_on,1,0,0,,1,,,81,127
263087,note_on,0,0,0,,0,,,74,95
263087,note_on,0,0,0,,0,,,66,95
263087,note_on,0,0,0,,0,,,50,95
263587,note_off,500,0,0,,0,,,50,95
263587,note_off,0,0,0,,0,,,66,95
263587,note_off,0,0,0,,0,,,74,95
263588,note_on,1,0,0,,0,,,67,95
263588,note_on,0,0,0,,0,,,72,95
263588,note_on,0,0,0,,0,,,51,95
263837,note_off,249,0,0,,1,,,81,127
263838,note_on,1,0,0,,1,,,79,127
263962,note_off,124,0,0,,1,,,79,127
263963,note_on,1,0,0,,1,,,78,127
264087,note_off,124,0,0,,1,,,78,127
264088,note_on,1,0,0,,1,,,79,127
264337,note_off,249,0,0,,1,,,79,127
264337,note_off,0,0,0,,0,,,51,95
264337,note_off,0,0,0,,0,,,72,95
264337,note_off,0,0,0,,0,,,67,95
264338,note_on,1,0,0,,1,,,81,127
264338,note_on,0,0,0,,0,,,69,95
264338,note_on,0,0,0,,0,,,66,95
264338,note_on,0,0,0,,0,,,50,95
264587,note_off,249,0,0,,0,,,50,95
264587,note_off,0,0,0,,0,,,66,95
264587,note_off,0,0,0,,0,,,69,95
264587,note_off,0,0,0,,1,,,81,127
264588,note_on,1,0,0,,1,,,82,127
264588,note_on,0,0,0,,0,,,67,95
264588,note_on,0,0,0,,0,,,62,95
264588,note_on,0,0,0,,0,,,55,95
265088,note_off,500,0,0,,0,,,55,95
265088,note_off,0,0,0,,0,,,62,95
265088,note_off,0,0,0,,0,,,67,95
265088,note_off,0,0,0,,1,,,82,127
265089,note_on,1,0,0,,1,,,81,127
265089,note_on,0,0,0,,0,,,62,95
265089,note_on,0,0,0,,0,,,66,95
265089,note_on,0,0,0,,0,,,50,95
265589,note_off,500,0,0,,0,,,50,95
265589,note_off,0,0,0,,0,,,66,95
265589,note_off,0,0,0,,0,,,62,95
265590,note_on,1,0,0,,0,,,69,95
265590,note_on,0,0,0,,0,,,66,95
265590,note_on,0,0,0,,0,,,60,95
265839,note_off,249,0,0,,1,,,81,127
265840,note_on,1,0,0,,1,,,79,127
265964,note_off,124,0,0,,1,,,79,127
265965,note_on,1,0,0,,1,,,78,127
266089,note_off,124,0,0,,1,,,78,127
266090,note_on,1,0,0,,1,,,79,127
266339,note_off,249,0,0,,1,,,79,127
266339,note_off,0,0,0,,0,,,60,95
266339,note_off,0,0,0,,0,,,66,95
266339,note_off,0,0,0,,0,,,69,95
266340,note_on,1,0,0,,1,,,81,127
266340,note_on,0,0,0,,0,,,60,95
266340,note_on,0,0,0,,0,,,66,95
266340,note_on,0,0,0,,0,,,57,95
266589,note_off,249,0,0,,0,,,57,95
266589,note_off,0,0,0,,0,,,66,95
266589,note_off,0,0,0,,0,,,60,95
266589,note_off,0,0,0,,1,,,81,127
266590,note_on,1,0,0,,1,,,74,127
266590,note_on,0,0,0,,0,,,67,95
266590,note_on,0,0,0,,0,,,62,95
266590,note_on,0,0,0,,0,,,58,95
266839,note_off,249,0,0,,1,,,74,127
266840,note_on,1,0,0,,1,,,76,127
266964,note_off,124,0,0,,1,,,76,127
266965,note_on,1,0,0,,1,,,78,127
267089,note_off,124,0,0,,1,,,78,127
267090,note_on,1,0,0,,1,,,79,127
267339,note_off,249,0,0,,1,,,79,127
267339,note_off,0,0,0,,0,,,58,95
267339,note_off,0,0,0,,0,,,62,95
267339,note_off,0,0,0,,0,,,67,95
267340,note_on,1,0,0,,1,,,81,127
267340,note_on,0,0,0,,0,,,67,95
267340,note_on,0,0,0,,0,,,63,95
267340,note_on,0,0,0,,0,,,60,95
267589,note_off,249,0,0,,0,,,60,95
267589,note_off,0,0,0,,0,,,63,95
267589,note_off,0,0,0,,0,,,67,95
267589,note_off,0,0,0,,1,,,81,127
267590,note_on,1,0,0,,1,,,82,127
267590,note_on,0,0,0,,1,,,74,127
267590,note_on,0,0,0,,0,,,70,95
267590,note_on,0,0,0,,0,,,67,95
267590,note_on,0,0,0,,0,,,62,95
268090,note_off,500,0,0,,0,,,62,95
268090,note_off,0,0,0,,0,,,67,95
268090,note_off,0,0,0,,0,,,70,95
268090,note_off,0,0,0,,1,,,74,127
268090,note_off,0,0,0,,1,,,82,127
268091,note_on,1,0,0,,1,,,74,127
268091,note_on,0,0,0,,1,,,81,127
268091,note_on,0,0,0,,0,,,69,95
268091,note_on,0,0,0,,0,,,66,95
268091,note_on,0,0,0,,0,,,50,95
268591,note_off,500,0,0,,0,,,50,95
268591,note_off,0,0,0,,0,,,66,95
268591,note_off,0,0,0,,0,,,69,95
268591,note_off,0,0,0,,1,,,81,127
268591,note_off,0,0,0,,1,,,74,127
268592,note_on,1,0,0,,1,,,67,127
268592,note_on,0,0,0,,1,,,79,127
268592,note_on,0,0,0,,0,,,67,95
268592,note_on,0,0,0,,0,,,60,95
268592,note_on,0,0,0,,0,,,51,95
268841,note_off,249,0,0,,1,,,67,127
268842,note_on,1,0,0,,1,,,69,127
268966,note_off,124,0,0,,1,,,69,127
268967,note_on,1,0,0,,1,,,70,127
269091,note_off,124,0,0,,1,,,70,127
269091,note_off,0,0,0,,0,,,51,95
269091,note_off,0,0,0,,0,,,60,95
269091,note_off,0,0,0,,0,,,67,95
269091,note_off,0,0,0,,1,,,79,127
269092,note_on,1,0,0,,1,,,72,127
269092,note_on,0,0,0,,0,,,67,95
269092,note_on,0,0,0,,0,,,63,95
269092,note_on,0,0,0,,0,,,48,95
269341,note_off,249,0,0,,1,,,72,127
269342,note_on,1,0,0,,1,,,74,127
269591,note_off,249,0,0,,1,,,74,127
269591,note_off,0,0,0,,0,,,48,95
269591,note_off,0,0,0,,0,,,63,95
269591,note_off,0,0,0,,0,,,67,95
269592,note_on,1,0,0,,1,,,70,127
269592,note_on,0,0,0,,0,,,67,95
269592,note_on,0,0,0,,0,,,62,95
269592,note_on,0,0,0,,0,,,50,95
270092,note_off,500,0,0,,0,,,50,95
270092,note_off,0,0,0,,0,,,62,95
270092,note_off,0,0,0,,0,,,67,95
270092,note_off,0,0,0,,1,,,70,127
270093,note_on,1,0,0,,1,,,69,127
270093,note_on,0,0,0,,0,,,62,95
270093,note_on,0,0,0,,0,,,66,95
270093,note_on,0,0,0,,0,,,50,95
270593,note_off,500,0,0,,0,,,50,95
270593,note_off,0,0,0,,0,,,66,95
270593,note_off,0,0,0,,0,,,62,95
270593,note_off,0,0,0,,1,,,69,127
270594,note_on,1,0,0,,1,,,67,127
270594,note_on,0,0,0,,0,,,67,95
270594,note_on,0,0,0,,0,,,60,95
270594,note_on,0,0,0,,0,,,51,95
270843,note_off,249,0,0,,1,,,67,127
270844,note_on,1,0,0,,1,,,69,127
270968,note_off,124,0,0,,1,,,69,127
270969,note_on,1,0,0,,1,,,70,127
271093,note_off,124,0,0,,1,,,70,127
271094,note_on,1,0,0,,1,,,72,127
271355,note_off,261,0,0,,1,,,72,127
271355,note_off,0,0,0,,0,,,51,95
271355,note_off,0,0,0,,0,,,60,95
271355,note_off,0,0,0,,0,,,67,95
271356,note_on,1,0,0,,1,,,79,127
271356,note_on,0,0,0,,0,,,67,95
271356,note_on,0,0,0,,0,,,63,95
271356,note_on,0,0,0,,0,,,48,95
271617,note_off,261,0,0,,0,,,48,95
271617,note_off,0,0,0,,0,,,63,95
271617,note_off,0,0,0,,0,,,67,95
271617,note_off,0,0,0,,1,,,79,127
271618,note_on,1,0,0,,1,,,79,127
271618,note_on,0,0,0,,1,,,70,127
271618,note_on,0,0,0,,1,,,74,127
271618,note_on,0,0,0,,0,,,70,95
271618,note_on,0,0,0,,0,,,67,95
271618,note_on,0,0,0,,0,,,62,95
271618,note_on,0,0,0,,0,,,50,95
272166,note_off,548,0,0,,0,,,50,95
272166,note_off,0,0,0,,0,,,62,95
272166,note_off,0,0,0,,0,,,67,95
272166,note_off,0,0,0,,0,,,70,95
272166,note_off,0,0,0,,1,,,74,127
272166,note_off,0,0,0,,1,,,70,127
272166,note_off,0,0,0,,1,,,79,127
272167,note_on,1,0,0,,1,,,69,127
272167,note_on,0,0,0,,1,,,78,127
272167,note_on,0,0,0,,0,,,69,95
272167,note_on,0,0,0,,0,,,66,95
272167,note_on,0,0,0,,0,,,62,95
272167,note_on,0,0,0,,0,,,38,95
272772,note_off,605,0,0,,0,,,38,95
272772,note_off,0,0,0,,0,,,62,95
272772,note_off,0,0,0,,0,,,66,95
272772,note_off,0,0,0,,0,,,69,95
272772,note_off,0,0,0,,1,,,78,127
272772,note_off,0,0,0,,1,,,69,127
272773,note_on,1,0,0,,1,,,79,127
272773,note_on,0,0,0,,1,,,67,127
272773,note_on,0,0,0,,1,,,70,127
272773,note_on,0,0,0,,1,,,74,127
272773,note_on,0,0,0,,0,,,58,95
272773,note_on,0,0,0,,0,,,67,95
272773,note_on,0,0,0,,0,,,62,95
272773,note_on,0,0,0,,0,,,43,95
274573,note_off,1800,0,0,,0,,,43,95
274573,note_off,0,0,0,,0,,,62,95
274573,note_off,0,0,0,,0,,,67,95
274573,note_off,0,0,0,,0,,,58,95
274573,note_off,0,0,0,,1,,,74,127
274573,note_off,0,0,0,,1,,,70,127
274573,note_off,0,0,0,,1,,,67,127
274573,note_off,0,0,0,,1,,,79,127
275941,note_on,1368,0,0,,1,,,79,127
275941,note_on,0,0,0,,0,,,70,95
275941,note_on,0,0,0,,0,,,62,95
275941,note_on,0,0,0,,0,,,55,95
276115,note_off,174,0,0,,1,,,79,127
276116,note_on,1,0,0,,1,,,81,127
276290,note_off,174,0,0,,1,,,81,127
276291,note_on,1,0,0,,1,,,82,127
276639,note_off,348,0,0,,1,,,82,127
276639,note_off,0,0,0,,0,,,55,95
276639,note_off,0,0,0,,0,,,62,95
276639,note_off,0,0,0,,0,,,70,95
276640,note_on,1,0,0,,1,,,81,127
276640,note_on,0,0,0,,0,,,69,95
276640,note_on,0,0,0,,0,,,66,95
276640,note_on,0,0,0,,0,,,50,95
276988,note_off,348,0,0,,0,,,50,95
276988,note_off,0,0,0,,0,,,66,95
276988,note_off,0,0,0,,0,,,69,95
276988,note_off,0,0,0,,1,,,81,127
276989,note_on,1,0,0,,1,,,79,127
276989,note_on,0,0,0,,0,,,67,95
276989,note_on,0,0,0,,0,,,72,95
276989,note_on,0,0,0,,0,,,51,95
277337,note_off,348,0,0,,1,,,79,127
277338,note_on,1,0,0,,1,,,72,127
277686,note_off,348,0,0,,1,,,72,127
277686,note_off,0,0,0,,0,,,51,95
277686,note_off,0,0,0,,0,,,72,95
277686,note_off,0,0,0,,0,,,67,95
277687,note_on,1,0,0,,1,,,70,127
277687,note_on,0,0,0,,0,,,62,95
277687,note_on,0,0,0,,0,,,70,95
277687,note_on,0,0,0,,0,,,50,95
278035,note_off,348,0,0,,0,,,50,95
278035,note_off,0,0,0,,0,,,70,95
278035,note_off,0,0,0,,0,,,62,95
278035,note_off,0,0,0,,1,,,70,127
278036,note_on,1,0,0,,1,,,69,127
278036,note_on,0,0,0,,0,,,63,95
278036,note_on,0,0,0,,0,,,69,95
278036,note_on,0,0,0,,0,,,48,95
278384,note_off,348,0,0,,1,,,69,127
278385,note_on,1,0,0,,1,,,79,127
278733,note_off,348,0,0,,1,,,79,127
278733,note_off,0,0,0,,0,,,48,95
278733,note_off,0,0,0,,0,,,69,95
278733,note_off,0,0,0,,0,,,63,95
278734,note_on,1,0,0,,1,,,78,127
278734,note_on,0,0,0,,0,,,69,95
278734,note_on,0,0,0,,0,,,66,95
278734,note_on,0,0,0,,0,,,50,95
279082,note_off,348,0,0,,0,,,50,95
279082,note_off,0,0,0,,0,,,66,95
279082,note_off,0,0,0,,0,,,69,95
279082,note_off,0,0,0,,1,,,78,127
279083,note_on,1,0,0,,1,,,79,127
279083,note_on,0,0,0,,0,,,67,95
279083,note_on,0,0,0,,0,,,60,95
279083,note_on,0,0,0,,0,,,51,95
279431,note_off,348,0,0,,1,,,79,127
279432,note_on,1,0,0,,1,,,72,127
279780,note_off,348,0,0,,1,,,72,127
279780,note_off,0,0,0,,0,,,51,95
279780,note_off,0,0,0,,0,,,60,95
279780,note_off,0,0,0,,0,,,67,95
279781,note_on,1,0,0,,1,,,70,127
279781,note_on,0,0,0,,0,,,67,95
279781,note_on,0,0,0,,0,,,62,95
279781,note_on,0,0,0,,0,,,50,95
280129,note_off,348,0,0,,0,,,50,95
280129,note_off,0,0,0,,0,,,62,95
280129,note_off,0,0,0,,0,,,67,95
280129,note_off,0,0,0,,1,,,70,127
280130,note_on,1,0,0,,1,,,69,127
280130,note_on,0,0,0,,0,,,63,95
280130,note_on,0,0,0,,0,,,48,95
280478,note_off,348,0,0,,0,,,48,95
280478,note_off,0,0,0,,0,,,63,95
280478,note_off,0,0,0,,1,,,69,127
280479,note_on,1,0,0,,1,,,67,127
280479,note_on,0,0,0,,0,,,62,95
280479,note_on,0,0,0,,0,,,46,95
280827,note_off,348,0,0,,0,,,46,95
280827,note_off,0,0,0,,0,,,62,95
280827,note_off,0,0,0,,1,,,67,127
280828,note_on,1,0,0,,1,,,66,127
280828,note_on,0,0,0,,0,,,60,95
280828,note_on,0,0,0,,0,,,45,95
281176,note_off,348,0,0,,0,,,45,95
281176,note_off,0,0,0,,0,,,60,95
281176,note_off,0,0,0,,1,,,66,127
281177,note_on,1,0,0,,1,,,67,127
281177,note_on,0,0,0,,0,,,58,95
281177,note_on,0,0,0,,0,,,62,95
281177,note_on,0,0,0,,0,,,43,95
281525,note_off,348,0,0,,1,,,67,127
281526,note_on,1,0,0,,1,,,70,127
281874,note_off,348,0,0,,1,,,70,127
281875,note_on,1,0,0,,1,,,74,127
282223,note_off,348,0,0,,1,,,74,127
282223,note_off,0,0,0,,0,,,43,95
282223,note_off,0,0,0,,0,,,62,95
282223,note_off,0,0,0,,0,,,58,95
282224,note_on,1,0,0,,1,,,82,127
282224,note_on,0,0,0,,0,,,70,95
282224,note_on,0,0,0,,0,,,62,95
282224,note_on,0,0,0,,0,,,55,95
282572,note_off,348,0,0,,1,,,82,127
282573,note_on,1,0,0,,1,,,81,127
282921,note_off,348,0,0,,1,,,81,127
282922,note_on,1,0,0,,1,,,79,127
283270,note_off,348,0,0,,1,,,79,127
283270,note_off,0,0,0,,0,,,55,95
283270,note_off,0,0,0,,0,,,62,95
283270,note_off,0,0,0,,0,,,70,95
283271,note_on,1,0,0,,1,,,73,127
283271,note_on,0,0,0,,0,,,69,95
283271,note_on,0,0,0,,0,,,64,95
283271,note_on,0,0,0,,0,,,57,95
283619,note_off,348,0,0,,1,,,73,127
283620,note_on,1,0,0,,1,,,76,127
283968,note_off,348,0,0,,1,,,76,127
283969,note_on,1,0,0,,1,,,79,127
284317,note_off,348,0,0,,1,,,79,127
284317,note_off,0,0,0,,0,,,57,95
284317,note_off,0,0,0,,0,,,64,95
284317,note_off,0,0,0,,0,,,69,95
284318,note_on,1,0,0,,1,,,82,127
284318,note_on,0,0,0,,0,,,73,95
284318,note_on,0,0,0,,0,,,69,95
284318,note_on,0,0,0,,0,,,64,95
284318,note_on,0,0,0,,0,,,49,95
284666,note_off,348,0,0,,1,,,82,127
284667,note_on,1,0,0,,1,,,81,127
285015,note_off,348,0,0,,1,,,81,127
285016,note_on,1,0,0,,1,,,79,127
285364,note_off,348,0,0,,1,,,79,127
285364,note_off,0,0,0,,0,,,49,95
285364,note_off,0,0,0,,0,,,64,95
285364,note_off,0,0,0,,0,,,69,95
285364,note_off,0,0,0,,0,,,73,95
285365,note_on,1,0,0,,1,,,77,127
285365,note_on,0,0,0,,0,,,65,95
285365,note_on,0,0,0,,0,,,69,95
285365,note_on,0,0,0,,0,,,50,95
285713,note_off,348,0,0,,0,,,50,95
285713,note_off,0,0,0,,1,,,77,127
285714,note_on,1,0,0,,1,,,76,127
285714,note_on,0,0,0,,0,,,52,95
286062,note_off,348,0,0,,0,,,52,95
286062,note_off,0,0,0,,1,,,76,127
286063,note_on,1,0,0,,1,,,74,127
286063,note_on,0,0,0,,0,,,53,95
286411,note_off,348,0,0,,0,,,53,95
286411,note_off,0,0,0,,1,,,74,127
286411,note_off,0,0,0,,0,,,69,95
286411,note_off,0,0,0,,0,,,65,95
286412,note_on,1,0,0,,1,,,76,127
286412,note_on,0,0,0,,0,,,67,95
286412,note_on,0,0,0,,0,,,55,95
286760,note_off,348,0,0,,0,,,55,95
286760,note_off,0,0,0,,0,,,67,95
286760,note_off,0,0,0,,1,,,76,127
286761,note_on,1,0,0,,1,,,74,127
286761,note_on,0,0,0,,0,,,65,95
286761,note_on,0,0,0,,0,,,57,95
287109,note_off,348,0,0,,0,,,57,95
287109,note_off,0,0,0,,0,,,65,95
287109,note_off,0,0,0,,1,,,74,127
287110,note_on,1,0,0,,1,,,73,127
287110,note_on,0,0,0,,0,,,64,95
287110,note_on,0,0,0,,0,,,45,95
287458,note_off,348,0,0,,0,,,45,95
287458,note_off,0,0,0,,0,,,64,95
287458,note_off,0,0,0,,1,,,73,127
287459,note_on,1,0,0,,1,,,74,127
287459,note_on,0,0,0,,0,,,69,95
287459,note_on,0,0,0,,0,,,66,95
287459,note_on,0,0,0,,0,,,50,95
288156,note_off,697,0,0,,0,,,66,95
288156,note_off,0,0,0,,0,,,69,95
288505,note_off,349,0,0,,0,,,50,95
288505,note_off,0,0,0,,1,,,74,127
288506,note_on,1,0,0,,1,,,74,127
288506,note_on,0,0,0,,0,,,70,95
288506,note_on,0,0,0,,0,,,65,95
288506,note_on,0,0,0,,0,,,46,95
288854,note_off,348,0,0,,1,,,74,127
288855,note_on,1,0,0,,1,,,75,127
289203,note_off,348,0,0,,1,,,75,127
289204,note_on,1,0,0,,1,,,77,127
289552,note_off,348,0,0,,1,,,77,127
289552,note_off,0,0,0,,0,,,46,95
289552,note_off,0,0,0,,0,,,65,95
289552,note_off,0,0,0,,0,,,70,95
289553,note_on,1,0,0,,1,,,75,127
289553,note_on,0,0,0,,0,,,69,95
289553,note_on,0,0,0,,0,,,63,95
289553,note_on,0,0,0,,0,,,48,95
289901,note_off,348,0,0,,1,,,75,127
289902,note_on,1,0,0,,1,,,77,127
290250,note_off,348,0,0,,1,,,77,127
290251,note_on,1,0,0,,1,,,79,127
290599,note_off,348,0,0,,1,,,79,127
290599,note_off,0,0,0,,0,,,48,95
290599,note_off,0,0,0,,0,,,63,95
290599,note_off,0,0,0,,0,,,69,95
290600,note_on,1,0,0,,1,,,77,127
290600,note_on,0,0,0,,0,,,70,95
290600,note_on,0,0,0,,0,,,50,95
290948,note_off,348,0,0,,0,,,50,95
290948,note_off,0,0,0,,0,,,70,95
290948,note_off,0,0,0,,1,,,77,127
290949,note_on,1,0,0,,1,,,75,127
290949,note_on,0,0,0,,0,,,69,95
290949,note_on,0,0,0,,0,,,48,95
291297,note_off,348,0,0,,0,,,48,95
291297,note_off,0,0,0,,0,,,69,95
291297,note_off,0,0,0,,1,,,75,127
291298,note_on,1,0,0,,1,,,74,127
291298,note_on,0,0,0,,0,,,70,95
291298,note_on,0,0,0,,0,,,46,95
291646,note_off,348,0,0,,0,,,46,95
291646,note_off,0,0,0,,0,,,70,95
291646,note_off,0,0,0,,1,,,74,127
291647,note_on,1,0,0,,1,,,74,127
291647,note_on,0,0,0,,0,,,69,95
291647,note_on,0,0,0,,0,,,53,95
291995,note_off,348,0,0,,1,,,74,127
291996,note_on,1,0,0,,1,,,72,127
292344,note_off,348,0,0,,0,,,53,95
292345,note_on,1,0,0,,0,,,72,95
292345,note_on,0,0,0,,0,,,51,95
292693,note_off,348,0,0,,0,,,51,95
292693,note_off,0,0,0,,0,,,72,95
292693,note_off,0,0,0,,1,,,72,127
292693,note_off,0,0,0,,0,,,69,95
292694,note_on,1,0,0,,1,,,82,127
292694,note_on,0,0,0,,0,,,65,95
292694,note_on,0,0,0,,0,,,50,95
293042,note_off,348,0,0,,1,,,82,127
293043,note_on,1,0,0,,1,,,77,127
293391,note_off,348,0,0,,1,,,77,127
293391,note_off,0,0,0,,0,,,50,95
293392,note_on,1,0,0,,1,,,75,127
293392,note_on,0,0,0,,0,,,69,95
293392,note_on,0,0,0,,0,,,48,95
293740,note_off,348,0,0,,0,,,48,95
293740,note_off,0,0,0,,0,,,69,95
293740,note_off,0,0,0,,1,,,75,127
293740,note_off,0,0,0,,0,,,65,95
293741,note_on,1,0,0,,1,,,74,127
293741,note_on,0,0,0,,0,,,70,95
293741,note_on,0,0,0,,0,,,65,95
293741,note_on,0,0,0,,0,,,46,95
294089,note_off,348,0,0,,0,,,46,95
294089,note_off,0,0,0,,0,,,70,95
294089,note_off,0,0,0,,1,,,74,127
294090,note_on,1,0,0,,1,,,72,127
294090,note_on,0,0,0,,0,,,69,95
294090,note_on,0,0,0,,0,,,48,95
294438,note_off,348,0,0,,0,,,48,95
294438,note_off,0,0,0,,0,,,69,95
294438,note_off,0,0,0,,1,,,72,127
294439,note_on,1,0,0,,1,,,70,127
294439,note_on,0,0,0,,0,,,70,95
294439,note_on,0,0,0,,0,,,50,95
294787,note_off,348,0,0,,0,,,50,95
294787,note_off,0,0,0,,0,,,70,95
294787,note_off,0,0,0,,1,,,70,127
294787,note_off,0,0,0,,0,,,65,95
294788,note_on,1,0,0,,1,,,72,127
294788,note_on,0,0,0,,0,,,67,95
294788,note_on,0,0,0,,0,,,51,95
295136,note_off,348,0,0,,0,,,51,95
295136,note_off,0,0,0,,0,,,67,95
295136,note_off,0,0,0,,1,,,72,127
295137,note_on,1,0,0,,1,,,70,127
295137,note_on,0,0,0,,0,,,65,95
295137,note_on,0,0,0,,0,,,53,95
295485,note_off,348,0,0,,0,,,53,95
295485,note_off,0,0,0,,0,,,65,95
295485,note_off,0,0,0,,1,,,70,127
295486,note_on,1,0,0,,1,,,69,127
295486,note_on,0,0,0,,0,,,63,95
295486,note_on,0,0,0,,0,,,41,95
295834,note_off,348,0,0,,0,,,41,95
295834,note_off,0,0,0,,0,,,63,95
295834,note_off,0,0,0,,1,,,69,127
295835,note_on,1,0,0,,1,,,70,127
295835,note_on,0,0,0,,0,,,62,95
295835,note_on,0,0,0,,0,,,65,95
295835,note_on,0,0,0,,0,,,46,95
296183,note_off,348,0,0,,0,,,46,95
296184,note_on,1,0,0,,0,,,58,95
296532,note_off,348,0,0,,0,,,58,95
296532,note_off,0,0,0,,0,,,65,95
296532,note_off,0,0,0,,0,,,62,95
296533,note_on,1,0,0,,0,,,57,95
296881,note_off,348,0,0,,0,,,57,95
296881,note_off,0,0,0,,1,,,70,127
296882,note_on,1,0,0,,1,,,70,127
296882,note_on,0,0,0,,0,,,58,95
296882,note_on,0,0,0,,0,,,62,95
296882,note_on,0,0,0,,0,,,55,95
297056,note_off,174,0,0,,1,,,70,127
297057,note_on,1,0,0,,1,,,72,127
297231,note_off,174,0,0,,1,,,72,127
297232,note_on,1,0,0,,1,,,74,127
297929,note_off,697,0,0,,1,,,74,127
297929,note_off,0,0,0,,0,,,55,95
297929,note_off,0,0,0,,0,,,62,95
297929,note_off,0,0,0,,0,,,58,95
297930,note_on,1,0,0,,1,,,69,127
297930,note_on,0,0,0,,0,,,67,95
297930,note_on,0,0,0,,0,,,63,95
297930,note_on,0,0,0,,0,,,48,95
298104,note_off,174,0,0,,1,,,69,127
298105,note_on,1,0,0,,1,,,70,127
298279,note_off,174,0,0,,1,,,70,127
298280,note_on,1,0,0,,1,,,72,127
298977,note_off,697,0,0,,1,,,72,127
298977,note_off,0,0,0,,0,,,48,95
298977,note_off,0,0,0,,0,,,63,95
298977,note_off,0,0,0,,0,,,67,95
298978,note_on,1,0,0,,1,,,69,127
298978,note_on,0,0,0,,0,,,62,95
298978,note_on,0,0,0,,0,,,69,95
298978,note_on,0,0,0,,0,,,66,95
298978,note_on,0,0,0,,0,,,50,95
299152,note_off,174,0,0,,1,,,69,127
299153,note_on,1,0,0,,1,,,70,127
299327,note_off,174,0,0,,1,,,70,127
299328,note_on,1,0,0,,1,,,72,127
300025,note_off,697,0,0,,1,,,72,127
300025,note_off,0,0,0,,0,,,50,95
300025,note_off,0,0,0,,0,,,66,95
300025,note_off,0,0,0,,0,,,69,95
300025,note_off,0,0,0,,0,,,62,95
300026,note_on,1,0,0,,1,,,72,127
300026,note_on,0,0,0,,0,,,62,95
300026,note_on,0,0,0,,0,,,69,95
300026,note_on,0,0,0,,0,,,43,95
300374,note_off,348,0,0,,1,,,72,127
300375,note_on,1,0,0,,1,,,70,127
300723,note_off,348,0,0,,0,,,69,95
300724,note_on,1,0,0,,0,,,67,95
301072,note_off,348,0,0,,0,,,67,95
301072,note_off,0,0,0,,1,,,70,127
301072,note_off,0,0,0,,0,,,43,95
301072,note_off,0,0,0,,0,,,62,95
301073,note_on,1,0,0,,1,,,79,127
301073,note_on,0,0,0,,0,,,70,95
301073,note_on,0,0,0,,0,,,62,95
301073,note_on,0,0,0,,0,,,43,95
301247,note_off,174,0,0,,1,,,79,127
301248,note_on,1,0,0,,1,,,81,127
301422,note_off,174,0,0,,1,,,81,127
301423,note_on,1,0,0,,1,,,82,127
301771,note_off,348,0,0,,1,,,82,127
301771,note_off,0,0,0,,0,,,43,95
301771,note_off,0,0,0,,0,,,70,95
301772,note_on,1,0,0,,1,,,81,127
301772,note_on,0,0,0,,0,,,66,95
301772,note_on,0,0,0,,0,,,50,95
302120,note_off,348,0,0,,0,,,50,95
302120,note_off,0,0,0,,0,,,66,95
302120,note_off,0,0,0,,1,,,81,127
302120,note_off,0,0,0,,0,,,62,95
302121,note_on,1,0,0,,1,,,72,127
302121,note_on,0,0,0,,0,,,67,95
302121,note_on,0,0,0,,0,,,60,95
302121,note_on,0,0,0,,0,,,51,95
302295,note_off,174,0,0,,1,,,72,127
302296,note_on,1,0,0,,1,,,74,127
302470,note_off,174,0,0,,1,,,74,127
302471,note_on,1,0,0,,1,,,75,127
302819,note_off,348,0,0,,1,,,75,127
302819,note_off,0,0,0,,0,,,51,95
302819,note_off,0,0,0,,0,,,60,95
302819,note_off,0,0,0,,0,,,67,95
302820,note_on,1,0,0,,1,,,74,127
302820,note_on,0,0,0,,0,,,62,95
302820,note_on,0,0,0,,0,,,67,95
302820,note_on,0,0,0,,0,,,46,95
303168,note_off,348,0,0,,0,,,46,95
303168,note_off,0,0,0,,0,,,67,95
303168,note_off,0,0,0,,0,,,62,95
303168,note_off,0,0,0,,1,,,74,127
303169,note_on,1,0,0,,1,,,66,127
303169,note_on,0,0,0,,0,,,62,95
303169,note_on,0,0,0,,0,,,60,95
303169,note_on,0,0,0,,0,,,45,95
303343,note_off,174,0,0,,1,,,66,127
303344,note_on,1,0,0,,1,,,67,127
303518,note_off,174,0,0,,1,,,67,127
303519,note_on,1,0,0,,1,,,69,127
303867,note_off,348,0,0,,1,,,69,127
303867,note_off,0,0,0,,0,,,45,95
303867,note_off,0,0,0,,0,,,60,95
303867,note_off,0,0,0,,0,,,62,95
303868,note_on,1,0,0,,1,,,70,127
303868,note_on,0,0,0,,0,,,58,95
303868,note_on,0,0,0,,0,,,62,95
303868,note_on,0,0,0,,0,,,43,95
304216,note_off,348,0,0,,0,,,43,95
304216,note_off,0,0,0,,0,,,62,95
304216,note_off,0,0,0,,0,,,58,95
304216,note_off,0,0,0,,1,,,70,127
304217,note_on,1,0,0,,1,,,70,127
304217,note_on,0,0,0,,0,,,66,95
304217,note_on,0,0,0,,0,,,62,95
304217,note_on,0,0,0,,0,,,50,95
304565,note_off,348,0,0,,1,,,70,127
304566,note_on,1,0,0,,1,,,69,127
304914,note_off,348,0,0,,0,,,50,95
304914,note_off,0,0,0,,0,,,62,95
304914,note_off,0,0,0,,0,,,66,95
304915,note_on,1,0,0,,0,,,69,95
304922,note_on,7,0,0,,0,,,38,95
304922,note_on,0,0,0,,0,,,66,95
305263,note_off,341,0,0,,0,,,69,95
305263,note_off,0,0,0,,1,,,69,127
305270,note_off,7,0,0,,0,,,66,95
305283,note_off,13,0,0,,0,,,38,95
305296,note_on,13,0,0,,1,,,79,127
305296,note_on,0,0,0,,0,,,62,95
305296,note_on,0,0,0,,0,,,70,95
305296,note_on,0,0,0,,0,,,43,95
305472,note_off,176,0,0,,1,,,79,127
305473,note_on,1,0,0,,1,,,81,127
305649,note_off,176,0,0,,1,,,81,127
305650,note_on,1,0,0,,1,,,82,127
306003,note_off,353,0,0,,1,,,82,127
306003,note_off,0,0,0,,0,,,43,95
306003,note_off,0,0,0,,0,,,70,95
306004,note_on,1,0,0,,1,,,81,127
306004,note_on,0,0,0,,0,,,66,95
306004,note_on,0,0,0,,0,,,50,95
306357,note_off,353,0,0,,0,,,50,95
306357,note_off,0,0,0,,0,,,66,95
306357,note_off,0,0,0,,1,,,81,127
306357,note_off,0,0,0,,0,,,62,95
306358,note_on,1,0,0,,1,,,72,127
306358,note_on,0,0,0,,0,,,67,95
306358,note_on,0,0,0,,0,,,60,95
306358,note_on,0,0,0,,0,,,51,95
306537,note_off,179,0,0,,1,,,72,127
306538,note_on,1,0,0,,1,,,74,127
306717,note_off,179,0,0,,1,,,74,127
306718,note_on,1,0,0,,1,,,75,127
307077,note_off,359,0,0,,1,,,75,127
307077,note_off,0,0,0,,0,,,51,95
307077,note_off,0,0,0,,0,,,60,95
307077,note_off,0,0,0,,0,,,67,95
307078,note_on,1,0,0,,1,,,74,127
307078,note_on,0,0,0,,0,,,67,95
307078,note_on,0,0,0,,0,,,62,95
307078,note_on,0,0,0,,0,,,46,95
307437,note_off,359,0,0,,0,,,46,95
307437,note_off,0,0,0,,0,,,62,95
307437,note_off,0,0,0,,0,,,67,95
307437,note_off,0,0,0,,1,,,74,127
307454,note_on,17,0,0,,0,,,58,95
307454,note_on,0,0,0,,0,,,62,95
307454,note_on,0,0,0,,0,,,67,95
307454,note_on,0,0,0,,1,,,79,127
307857,note_off,403,0,0,,1,,,79,127
307857,note_off,0,0,0,,0,,,62,95
307857,note_off,0,0,0,,0,,,58,95
307858,note_on,1,0,0,,0,,,60,95
307858,note_on,0,0,0,,0,,,63,95
307858,note_on,0,0,0,,1,,,81,127
308261,note_off,403,0,0,,1,,,81,127
308261,note_off,0,0,0,,0,,,63,95
308261,note_off,0,0,0,,0,,,60,95
308261,note_off,0,0,0,,0,,,67,95
308262,note_on,1,0,0,,0,,,62,95
308262,note_on,0,0,0,,0,,,69,95
308262,note_on,0,0,0,,0,,,66,95
308262,note_on,0,0,0,,1,,,78,127
308810,note_off,548,0,0,,1,,,78,127
308810,note_off,0,0,0,,0,,,66,95
308810,note_off,0,0,0,,0,,,69,95
308810,note_off,0,0,0,,0,,,62,95
308811,note_on,1,0,0,,0,,,55,95
308811,note_on,0,0,0,,0,,,62,95
308811,note_on,0,0,0,,0,,,67,95
308811,note_on,0,0,0,,0,,,70,95
308811,note_on,0,0,0,,1,,,74,127
308811,note_on,0,0,0,,1,,,70,127
308811,note_on,0,0,0,,1,,,79,127
308811,note_on,0,0,0,,1,,,67,127
310453,note_off,1642,0,0,,1,,,67,127
310453,note_off,0,0,0,,1,,,79,127
310453,note_off,0,0,0,,1,,,70,127
310453,note_off,0,0,0,,1,,,74,127
311004,note_off,551,0,0,,0,,,70,95
311004,note_off,0,0,0,,0,,,67,95
311004,note_off,0,0,0,,0,,,62,95
311004,note_off,0,0,0,,0,,,55,95
313344,end_of_track,2340,1,0,,,,,,
