tick,type,time,meta,track,program,channel,pitch,tempo,note,velocity
0,copyright,0,1,0,,,,,,
0,program_change,0,0,0,6,0,,,,
0,pitchwheel,0,0,0,,0,0,,,
0,program_change,0,0,0,6,1,,,,
0,pitchwheel,0,0,0,,1,0,,,
0,program_change,0,0,0,6,2,,,,
0,pitchwheel,0,0,0,,2,0,,,
0,program_change,0,0,0,6,3,,,,
0,pitchwheel,0,0,0,,3,0,,,
0,program_change,0,0,0,6,4,,,,
0,pitchwheel,0,0,0,,4,0,,,
0,program_change,0,0,0,6,5,,,,
0,pitchwheel,0,0,0,,5,0,,,
0,program_change,0,0,0,6,6,,,,
0,pitchwheel,0,0,0,,6,0,,,
0,program_change,0,0,0,6,7,,,,
0,pitchwheel,0,0,0,,7,0,,,
0,program_change,0,0,0,6,8,,,,
0,pitchwheel,0,0,0,,8,0,,,
0,set_tempo,0,1,0,,,,500000,,
256,note_on,256,0,0,,1,,,69,127
510,note_off,254,0,0,,1,,,69,127
512,note_on,2,0,0,,1,,,74,127
766,note_off,254,0,0,,1,,,74,127
768,note_on,2,0,0,,1,,,76,127
1022,note_off,254,0,0,,1,,,76,127
1024,note_on,2,0,0,,1,,,77,127
1278,note_off,254,0,0,,1,,,77,127
1280,note_on,2,0,0,,0,,,45,95
1280,note_on,0,0,0,,0,,,64,95
1280,note_on,0,0,0,,0,,,73,95
1280,note_on,0,0,0,,1,,,79,127
1534,note_off,254,0,0,,1,,,79,127
1534,note_off,0,0,0,,0,,,73,95
1534,note_off,0,0,0,,0,,,64,95
1534,note_off,0,0,0,,0,,,45,95
1536,note_on,2,0,0,,0,,,50,95
1536,note_on,0,0,0,,0,,,69,95
1536,note_on,0,0,0,,0,,,65,95
1536,note_on,0,0,0,,0,,,74,95
1536,note_on,0,0,0,,1,,,77,127
1662,note_off,126,0,0,,1,,,77,127
1664,note_on,2,0,0,,1,,,76,127
1790,note_off,126,0,0,,1,,,76,127
1790,note_off,0,0,0,,0,,,65,95
1790,note_off,0,0,0,,0,,,69,95
1790,note_off,0,0,0,,0,,,50,95
1792,note_on,2,0,0,,0,,,52,95
1792,note_on,0,0,0,,0,,,67,95
1792,note_on,0,0,0,,1,,,74,127
2046,note_off,254,0,0,,0,,,67,95
2046,note_off,0,0,0,,0,,,52,95
2048,note_on,2,0,0,,0,,,53,95
2048,note_on,0,0,0,,0,,,69,95
2302,note_off,254,0,0,,0,,,69,95
2302,note_off,0,0,0,,0,,,53,95
2302,note_off,0,0,0,,1,,,74,127
2302,note_off,0,0,0,,0,,,74,95
2304,note_on,2,0,0,,0,,,55,95
2304,note_on,0,0,0,,0,,,70,95
2304,note_on,0,0,0,,1,,,73,127
2558,note_off,254,0,0,,1,,,73,127
2558,note_off,0,0,0,,0,,,70,95
2558,note_off,0,0,0,,0,,,55,95
2560,note_on,2,0,0,,0,,,53,95
2560,note_on,0,0,0,,0,,,62,95
2560,note_on,0,0,0,,0,,,65,95
2560,note_on,0,0,0,,0,,,69,95
2560,note_on,0,0,0,,1,,,74,127
2814,note_off,254,0,0,,1,,,74,127
2814,note_off,0,0,0,,0,,,53,95
2816,note_on,2,0,0,,0,,,50,95
2816,note_on,0,0,0,,1,,,81,127
3070,note_off,254,0,0,,1,,,81,127
3070,note_off,0,0,0,,0,,,50,95
3070,note_off,0,0,0,,0,,,69,95
3070,note_off,0,0,0,,0,,,65,95
3070,note_off,0,0,0,,0,,,62,95
3072,note_on,2,0,0,,1,,,81,127
3326,note_off,254,0,0,,1,,,81,127
3328,note_on,2,0,0,,0,,,45,95
3328,note_on,0,0,0,,0,,,64,95
3328,note_on,0,0,0,,0,,,73,95
3328,note_on,0,0,0,,1,,,79,127
3582,note_off,254,0,0,,1,,,79,127
3582,note_off,0,0,0,,0,,,73,95
3582,note_off,0,0,0,,0,,,64,95
3582,note_off,0,0,0,,0,,,45,95
3584,note_on,2,0,0,,0,,,50,95
3584,note_on,0,0,0,,0,,,65,95
3584,note_on,0,0,0,,0,,,74,95
3584,note_on,0,0,0,,1,,,77,127
3710,note_off,126,0,0,,1,,,77,127
3712,note_on,2,0,0,,1,,,76,127
3838,note_off,126,0,0,,1,,,76,127
3838,note_off,0,0,0,,0,,,65,95
3838,note_off,0,0,0,,0,,,50,95
3840,note_on,2,0,0,,0,,,52,95
3840,note_on,0,0,0,,0,,,67,95
3840,note_on,0,0,0,,1,,,74,127
4094,note_off,254,0,0,,0,,,67,95
4094,note_off,0,0,0,,0,,,52,95
4096,note_on,2,0,0,,0,,,53,95
4096,note_on,0,0,0,,0,,,69,95
4350,note_off,254,0,0,,0,,,69,95
4350,note_off,0,0,0,,0,,,53,95
4350,note_off,0,0,0,,1,,,74,127
4350,note_off,0,0,0,,0,,,74,95
4352,note_on,2,0,0,,0,,,50,95
4352,note_on,0,0,0,,0,,,65,95
4352,note_on,0,0,0,,1,,,72,127
4606,note_off,254,0,0,,1,,,72,127
4606,note_off,0,0,0,,0,,,65,95
4606,note_off,0,0,0,,0,,,50,95
4608,note_on,2,0,0,,0,,,55,95
4608,note_on,0,0,0,,0,,,62,95
4608,note_on,0,0,0,,0,,,67,95
4608,note_on,0,0,0,,1,,,70,127
4862,note_off,254,0,0,,1,,,70,127
4864,note_on,2,0,0,,1,,,69,127
5118,note_off,254,0,0,,1,,,69,127
5118,note_off,0,0,0,,0,,,67,95
5118,note_off,0,0,0,,0,,,62,95
5118,note_off,0,0,0,,0,,,55,95
5120,note_on,2,0,0,,0,,,64,95
5120,note_on,0,0,0,,1,,,69,127
5374,note_off,254,0,0,,1,,,69,127
5376,note_on,2,0,0,,0,,,45,95
5376,note_on,0,0,0,,0,,,61,95
5376,note_on,0,0,0,,1,,,67,127
5630,note_off,254,0,0,,1,,,67,127
5630,note_off,0,0,0,,0,,,61,95
5630,note_off,0,0,0,,0,,,45,95
5630,note_off,0,0,0,,0,,,64,95
5632,note_on,2,0,0,,0,,,50,95
5632,note_on,0,0,0,,0,,,65,95
5632,note_on,0,0,0,,0,,,69,95
5632,note_on,0,0,0,,1,,,65,127
5758,note_off,126,0,0,,1,,,65,127
5760,note_on,2,0,0,,1,,,64,127
5886,note_off,126,0,0,,1,,,64,127
5886,note_off,0,0,0,,0,,,50,95
5888,note_on,2,0,0,,0,,,52,95
5888,note_on,0,0,0,,1,,,62,127
6142,note_off,254,0,0,,1,,,62,127
6142,note_off,0,0,0,,0,,,52,95
6142,note_off,0,0,0,,0,,,69,95
6142,note_off,0,0,0,,0,,,65,95
6144,note_on,2,0,0,,0,,,53,95
6398,note_off,254,0,0,,0,,,53,95
6400,note_on,2,0,0,,0,,,50,95
6400,note_on,0,0,0,,0,,,65,95
6400,note_on,0,0,0,,1,,,69,127
6654,note_off,254,0,0,,1,,,69,127
6654,note_off,0,0,0,,0,,,65,95
6654,note_off,0,0,0,,0,,,50,95
6656,note_on,2,0,0,,1,,,70,127
6910,note_off,254,0,0,,1,,,70,127
6912,note_on,2,0,0,,1,,,74,127
7166,note_off,254,0,0,,1,,,74,127
7168,note_on,2,0,0,,1,,,77,127
7422,note_off,254,0,0,,1,,,77,127
7424,note_on,2,0,0,,1,,,80,127
7678,note_off,254,0,0,,1,,,80,127
7680,note_on,2,0,0,,1,,,81,127
7806,note_off,126,0,0,,1,,,81,127
7808,note_on,2,0,0,,1,,,80,127
7934,note_off,126,0,0,,1,,,80,127
7936,note_on,2,0,0,,0,,,50,95
7936,note_on,0,0,0,,0,,,65,95
7936,note_on,0,0,0,,0,,,69,95
7936,note_on,0,0,0,,1,,,81,127
8190,note_off,254,0,0,,1,,,81,127
8190,note_off,0,0,0,,0,,,69,95
8190,note_off,0,0,0,,0,,,65,95
8190,note_off,0,0,0,,0,,,50,95
8192,note_on,2,0,0,,0,,,48,95
8192,note_on,0,0,0,,0,,,64,95
8192,note_on,0,0,0,,0,,,69,95
8448,note_on,256,0,0,,1,,,69,127
8702,note_off,254,0,0,,1,,,69,127
8702,note_off,0,0,0,,0,,,69,95
8702,note_off,0,0,0,,0,,,64,95
8702,note_off,0,0,0,,0,,,48,95
8704,note_on,2,0,0,,1,,,69,127
8958,note_off,254,0,0,,1,,,69,127
8960,note_on,2,0,0,,1,,,72,127
9214,note_off,254,0,0,,1,,,72,127
9216,note_on,2,0,0,,1,,,75,127
9470,note_off,254,0,0,,1,,,75,127
9472,note_on,2,0,0,,1,,,78,127
9726,note_off,254,0,0,,1,,,78,127
9728,note_on,2,0,0,,1,,,79,127
9854,note_off,126,0,0,,1,,,79,127
9856,note_on,2,0,0,,1,,,78,127
9982,note_off,126,0,0,,1,,,78,127
9984,note_on,2,0,0,,0,,,48,95
9984,note_on,0,0,0,,0,,,63,95
9984,note_on,0,0,0,,0,,,67,95
9984,note_on,0,0,0,,1,,,79,127
10238,note_off,254,0,0,,1,,,79,127
10238,note_off,0,0,0,,0,,,63,95
10238,note_off,0,0,0,,0,,,48,95
10240,note_on,2,0,0,,0,,,46,95
10240,note_on,0,0,0,,0,,,62,95
10496,note_on,256,0,0,,1,,,79,127
10750,note_off,254,0,0,,1,,,79,127
10750,note_off,0,0,0,,0,,,62,95
10750,note_off,0,0,0,,0,,,46,95
10750,note_off,0,0,0,,0,,,67,95
10752,note_on,2,0,0,,0,,,58,95
10752,note_on,0,0,0,,0,,,62,95
10752,note_on,0,0,0,,0,,,67,95
10752,note_on,0,0,0,,1,,,79,127
11006,note_off,254,0,0,,1,,,79,127
11008,note_on,2,0,0,,1,,,77,127
11262,note_off,254,0,0,,1,,,77,127
11264,note_on,2,0,0,,1,,,76,127
11518,note_off,254,0,0,,1,,,76,127
11520,note_on,2,0,0,,1,,,74,127
11774,note_off,254,0,0,,1,,,74,127
11774,note_off,0,0,0,,0,,,67,95
11774,note_off,0,0,0,,0,,,62,95
11776,note_on,2,0,0,,0,,,46,95
11776,note_on,0,0,0,,0,,,62,95
11776,note_on,0,0,0,,0,,,67,95
11776,note_on,0,0,0,,0,,,70,95
11776,note_on,0,0,0,,1,,,79,127
12030,note_off,254,0,0,,1,,,79,127
12032,note_on,2,0,0,,1,,,77,127
12286,note_off,254,0,0,,1,,,77,127
12288,note_on,2,0,0,,1,,,76,127
12542,note_off,254,0,0,,1,,,76,127
12544,note_on,2,0,0,,1,,,74,127
12798,note_off,254,0,0,,1,,,74,127
12798,note_off,0,0,0,,0,,,70,95
12798,note_off,0,0,0,,0,,,67,95
12798,note_off,0,0,0,,0,,,62,95
12798,note_off,0,0,0,,0,,,46,95
12798,note_off,0,0,0,,0,,,58,95
12800,note_on,2,0,0,,0,,,58,95
12800,note_on,0,0,0,,0,,,62,95
12800,note_on,0,0,0,,0,,,67,95
12800,note_on,0,0,0,,1,,,79,127
13054,note_off,254,0,0,,1,,,79,127
13056,note_on,2,0,0,,1,,,77,127
13310,note_off,254,0,0,,1,,,77,127
13312,note_on,2,0,0,,1,,,76,127
13566,note_off,254,0,0,,1,,,76,127
13566,note_off,0,0,0,,0,,,67,95
13566,note_off,0,0,0,,0,,,62,95
13566,note_off,0,0,0,,0,,,58,95
13568,note_on,2,0,0,,1,,,74,127
13822,note_off,254,0,0,,1,,,74,127
13824,note_on,2,0,0,,1,,,73,127
13950,note_off,126,0,0,,1,,,73,127
13952,note_on,2,0,0,,1,,,71,127
14078,note_off,126,0,0,,1,,,71,127
14080,note_on,2,0,0,,0,,,57,95
14080,note_on,0,0,0,,0,,,64,95
14080,note_on,0,0,0,,0,,,61,95
14080,note_on,0,0,0,,1,,,69,127
14334,note_off,254,0,0,,1,,,69,127
14334,note_off,0,0,0,,0,,,61,95
14334,note_off,0,0,0,,0,,,64,95
14334,note_off,0,0,0,,0,,,57,95
14336,note_on,2,0,0,,0,,,45,95
14336,note_on,0,0,0,,0,,,64,95
14336,note_on,0,0,0,,0,,,69,95
14336,note_on,0,0,0,,0,,,73,95
14590,note_off,254,0,0,,0,,,73,95
14590,note_off,0,0,0,,0,,,69,95
14590,note_off,0,0,0,,0,,,64,95
14592,note_on,2,0,0,,1,,,76,127
14846,note_off,254,0,0,,1,,,76,127
14846,note_off,0,0,0,,0,,,45,95
14848,note_on,2,0,0,,1,,,77,127
15102,note_off,254,0,0,,1,,,77,127
15104,note_on,2,0,0,,1,,,74,127
15358,note_off,254,0,0,,1,,,74,127
15360,note_on,2,0,0,,1,,,69,127
15614,note_off,254,0,0,,1,,,69,127
15616,note_on,2,0,0,,1,,,77,127
15870,note_off,254,0,0,,1,,,77,127
15872,note_on,2,0,0,,1,,,77,127
16126,note_off,254,0,0,,1,,,77,127
16128,note_on,2,0,0,,0,,,57,95
16128,note_on,0,0,0,,0,,,61,95
16128,note_on,0,0,0,,0,,,64,95
16128,note_on,0,0,0,,1,,,76,127
16382,note_off,254,0,0,,1,,,76,127
16382,note_off,0,0,0,,0,,,64,95
16382,note_off,0,0,0,,0,,,61,95
16382,note_off,0,0,0,,0,,,57,95
16384,note_on,2,0,0,,0,,,45,95
16384,note_on,0,0,0,,0,,,64,95
16384,note_on,0,0,0,,0,,,73,95
16640,note_on,256,0,0,,1,,,78,127
16894,note_off,254,0,0,,1,,,78,127
16894,note_off,0,0,0,,0,,,73,95
16894,note_off,0,0,0,,0,,,64,95
16894,note_off,0,0,0,,0,,,45,95
16896,note_on,2,0,0,,1,,,79,127
17150,note_off,254,0,0,,1,,,79,127
17152,note_on,2,0,0,,1,,,76,127
17406,note_off,254,0,0,,1,,,76,127
17408,note_on,2,0,0,,1,,,69,127
17662,note_off,254,0,0,,1,,,69,127
17664,note_on,2,0,0,,1,,,79,127
17918,note_off,254,0,0,,1,,,79,127
17920,note_on,2,0,0,,1,,,79,127
18174,note_off,254,0,0,,1,,,79,127
18176,note_on,2,0,0,,0,,,50,95
18176,note_on,0,0,0,,0,,,65,95
18176,note_on,0,0,0,,0,,,69,95
18176,note_on,0,0,0,,1,,,77,127
18430,note_off,254,0,0,,1,,,77,127
18430,note_off,0,0,0,,0,,,69,95
18430,note_off,0,0,0,,0,,,50,95
18432,note_on,2,0,0,,0,,,38,95
18432,note_on,0,0,0,,0,,,74,95
18686,note_off,254,0,0,,0,,,38,95
18686,note_off,0,0,0,,0,,,65,95
18688,note_on,2,0,0,,0,,,53,95
18688,note_on,0,0,0,,0,,,69,95
18688,note_on,0,0,0,,1,,,81,127
18942,note_off,254,0,0,,1,,,81,127
18942,note_off,0,0,0,,0,,,69,95
18942,note_off,0,0,0,,0,,,53,95
18942,note_off,0,0,0,,0,,,74,95
18944,note_on,2,0,0,,0,,,55,95
18944,note_on,0,0,0,,0,,,64,95
18944,note_on,0,0,0,,0,,,70,95
18944,note_on,0,0,0,,1,,,82,127
19198,note_off,254,0,0,,1,,,82,127
19200,note_on,2,0,0,,1,,,79,127
19454,note_off,254,0,0,,1,,,79,127
19454,note_off,0,0,0,,0,,,70,95
19454,note_off,0,0,0,,0,,,55,95
19456,note_on,2,0,0,,0,,,43,95
19456,note_on,0,0,0,,0,,,67,95
19456,note_on,0,0,0,,1,,,76,127
19710,note_off,254,0,0,,1,,,76,127
19710,note_off,0,0,0,,0,,,67,95
19710,note_off,0,0,0,,0,,,43,95
19712,note_on,2,0,0,,0,,,55,95
19712,note_on,0,0,0,,0,,,70,95
19712,note_on,0,0,0,,1,,,74,127
19966,note_off,254,0,0,,1,,,74,127
19966,note_off,0,0,0,,0,,,70,95
19966,note_off,0,0,0,,0,,,55,95
19966,note_off,0,0,0,,0,,,64,95
19968,note_on,2,0,0,,0,,,57,95
19968,note_on,0,0,0,,0,,,64,95
19968,note_on,0,0,0,,0,,,69,95
19968,note_on,0,0,0,,1,,,73,127
20222,note_off,254,0,0,,1,,,73,127
20224,note_on,2,0,0,,1,,,70,127
20478,note_off,254,0,0,,1,,,70,127
20478,note_off,0,0,0,,0,,,69,95
20478,note_off,0,0,0,,0,,,64,95
20478,note_off,0,0,0,,0,,,57,95
20480,note_on,2,0,0,,1,,,69,127
20734,note_off,254,0,0,,1,,,69,127
20736,note_on,2,0,0,,0,,,57,95
20736,note_on,0,0,0,,0,,,73,95
20736,note_on,0,0,0,,0,,,64,95
20736,note_on,0,0,0,,1,,,79,127
20990,note_off,254,0,0,,1,,,79,127
20990,note_off,0,0,0,,0,,,64,95
20990,note_off,0,0,0,,0,,,73,95
20990,note_off,0,0,0,,0,,,57,95
20992,note_on,2,0,0,,0,,,62,95
20992,note_on,0,0,0,,0,,,65,95
20992,note_on,0,0,0,,0,,,69,95
20992,note_on,0,0,0,,1,,,77,127
21246,note_off,254,0,0,,0,,,69,95
21246,note_off,0,0,0,,0,,,62,95
21248,note_on,2,0,0,,0,,,53,95
21248,note_on,0,0,0,,0,,,74,95
21502,note_off,254,0,0,,0,,,53,95
21502,note_off,0,0,0,,1,,,77,127
21502,note_off,0,0,0,,0,,,65,95
21504,note_on,2,0,0,,0,,,55,95
21504,note_on,0,0,0,,0,,,64,95
21504,note_on,0,0,0,,1,,,76,127
21758,note_off,254,0,0,,0,,,55,95
21758,note_off,0,0,0,,0,,,74,95
21760,note_on,2,0,0,,0,,,57,95
21760,note_on,0,0,0,,0,,,73,95
22014,note_off,254,0,0,,0,,,73,95
22014,note_off,0,0,0,,0,,,57,95
22014,note_off,0,0,0,,1,,,76,127
22014,note_off,0,0,0,,0,,,64,95
22016,note_on,2,0,0,,0,,,50,95
22016,note_on,0,0,0,,0,,,65,95
22016,note_on,0,0,0,,0,,,69,95
22016,note_on,0,0,0,,1,,,74,127
22270,note_off,254,0,0,,0,,,50,95
22272,note_on,2,0,0,,0,,,38,95
22526,note_off,254,0,0,,0,,,38,95
22526,note_off,0,0,0,,1,,,74,127
22526,note_off,0,0,0,,0,,,69,95
22526,note_off,0,0,0,,0,,,65,95
22528,note_on,2,0,0,,0,,,38,95
22800,note_on,272,0,0,,1,,,69,127
23038,note_off,238,0,0,,0,,,38,95
23054,note_off,16,0,0,,1,,,69,127
23056,note_on,2,0,0,,1,,,74,127
23310,note_off,254,0,0,,1,,,74,127
23312,note_on,2,0,0,,1,,,76,127
23566,note_off,254,0,0,,1,,,76,127
23568,note_on,2,0,0,,1,,,78,127
23822,note_off,254,0,0,,1,,,78,127
23824,note_on,2,0,0,,1,,,79,127
23824,note_on,0,0,0,,0,,,73,95
23824,note_on,0,0,0,,0,,,64,95
23824,note_on,0,0,0,,0,,,45,95
24078,note_off,254,0,0,,0,,,45,95
24078,note_off,0,0,0,,0,,,64,95
24078,note_off,0,0,0,,0,,,73,95
24078,note_off,0,0,0,,1,,,79,127
24080,note_on,2,0,0,,1,,,78,127
24080,note_on,0,0,0,,0,,,69,95
24080,note_on,0,0,0,,0,,,66,95
24080,note_on,0,0,0,,0,,,50,95
24206,note_off,126,0,0,,1,,,78,127
24208,note_on,2,0,0,,1,,,79,127
24334,note_off,126,0,0,,1,,,79,127
24334,note_off,0,0,0,,0,,,50,95
24336,note_on,2,0,0,,1,,,81,127
24336,note_on,0,0,0,,0,,,50,95
24590,note_off,254,0,0,,0,,,50,95
24592,note_on,2,0,0,,0,,,50,95
24846,note_off,254,0,0,,0,,,50,95
24846,note_off,0,0,0,,1,,,81,127
24846,note_off,0,0,0,,0,,,66,95
24846,note_off,0,0,0,,0,,,69,95
24848,note_on,2,0,0,,1,,,79,127
24848,note_on,0,0,0,,0,,,70,95
24848,note_on,0,0,0,,0,,,67,95
24848,note_on,0,0,0,,0,,,50,95
25102,note_off,254,0,0,,0,,,50,95
25102,note_off,0,0,0,,0,,,67,95
25102,note_off,0,0,0,,0,,,70,95
25102,note_off,0,0,0,,1,,,79,127
25104,note_on,2,0,0,,1,,,78,127
25104,note_on,0,0,0,,0,,,72,95
25104,note_on,0,0,0,,0,,,66,95
25104,note_on,0,0,0,,0,,,50,95
25358,note_off,254,0,0,,1,,,78,127
25360,note_on,2,0,0,,1,,,75,127
25614,note_off,254,0,0,,1,,,75,127
25614,note_off,0,0,0,,0,,,50,95
25614,note_off,0,0,0,,0,,,66,95
25614,note_off,0,0,0,,0,,,72,95
25616,note_on,2,0,0,,1,,,74,127
25616,note_on,0,0,0,,0,,,69,95
25616,note_on,0,0,0,,0,,,62,95
25616,note_on,0,0,0,,0,,,54,95
25870,note_off,254,0,0,,1,,,74,127
25872,note_on,2,0,0,,1,,,72,127
26126,note_off,254,0,0,,1,,,72,127
26126,note_off,0,0,0,,0,,,54,95
26126,note_off,0,0,0,,0,,,62,95
26126,note_off,0,0,0,,0,,,69,95
26128,note_on,2,0,0,,1,,,70,127
26128,note_on,0,0,0,,0,,,62,95
26128,note_on,0,0,0,,0,,,58,95
26128,note_on,0,0,0,,0,,,55,95
26254,note_off,126,0,0,,1,,,70,127
26256,note_on,2,0,0,,1,,,69,127
26366,note_off,110,0,0,,0,,,55,95
26366,note_off,0,0,0,,0,,,58,95
26366,note_off,0,0,0,,0,,,62,95
26382,note_off,16,0,0,,1,,,69,127
26384,note_on,2,0,0,,1,,,67,127
26384,note_on,0,0,0,,0,,,62,95
26384,note_on,0,0,0,,0,,,67,95
26384,note_on,0,0,0,,0,,,43,95
26609,note_off,225,0,0,,0,,,43,95
26609,note_off,0,0,0,,0,,,67,95
26609,note_off,0,0,0,,0,,,62,95
26638,note_off,29,0,0,,1,,,67,127
26640,note_on,2,0,0,,0,,,64,95
26640,note_on,0,0,0,,0,,,67,95
26640,note_on,0,0,0,,0,,,48,95
26896,note_on,256,0,0,,1,,,67,127
27150,note_off,254,0,0,,1,,,67,127
27150,note_off,0,0,0,,0,,,48,95
27150,note_off,0,0,0,,0,,,67,95
27150,note_off,0,0,0,,0,,,64,95
27152,note_on,2,0,0,,1,,,72,127
27406,note_off,254,0,0,,1,,,72,127
27408,note_on,2,0,0,,1,,,74,127
27662,note_off,254,0,0,,1,,,74,127
27664,note_on,2,0,0,,1,,,76,127
27918,note_off,254,0,0,,1,,,76,127
27920,note_on,2,0,0,,1,,,77,127
27920,note_on,0,0,0,,0,,,71,95
27920,note_on,0,0,0,,0,,,62,95
27920,note_on,0,0,0,,0,,,43,95
28174,note_off,254,0,0,,0,,,43,95
28174,note_off,0,0,0,,0,,,62,95
28174,note_off,0,0,0,,0,,,71,95
28174,note_off,0,0,0,,1,,,77,127
28176,note_on,2,0,0,,1,,,76,127
28176,note_on,0,0,0,,0,,,67,95
28176,note_on,0,0,0,,0,,,64,95
28176,note_on,0,0,0,,0,,,48,95
28302,note_off,126,0,0,,1,,,76,127
28304,note_on,2,0,0,,1,,,77,127
28430,note_off,126,0,0,,1,,,77,127
28430,note_off,0,0,0,,0,,,48,95
28432,note_on,2,0,0,,1,,,79,127
28432,note_on,0,0,0,,0,,,48,95
28686,note_off,254,0,0,,0,,,48,95
28688,note_on,2,0,0,,0,,,48,95
28942,note_off,254,0,0,,0,,,48,95
28942,note_off,0,0,0,,1,,,79,127
28942,note_off,0,0,0,,0,,,64,95
28942,note_off,0,0,0,,0,,,67,95
28944,note_on,2,0,0,,1,,,77,127
28944,note_on,0,0,0,,0,,,69,95
28944,note_on,0,0,0,,0,,,65,95
28944,note_on,0,0,0,,0,,,48,95
29198,note_off,254,0,0,,0,,,48,95
29198,note_off,0,0,0,,0,,,65,95
29198,note_off,0,0,0,,0,,,69,95
29198,note_off,0,0,0,,1,,,77,127
29200,note_on,2,0,0,,1,,,76,127
29200,note_on,0,0,0,,0,,,70,95
29200,note_on,0,0,0,,0,,,67,95
29200,note_on,0,0,0,,0,,,48,95
29454,note_off,254,0,0,,1,,,76,127
29456,note_on,2,0,0,,1,,,74,127
29710,note_off,254,0,0,,1,,,74,127
29710,note_off,0,0,0,,0,,,48,95
29710,note_off,0,0,0,,0,,,67,95
29710,note_off,0,0,0,,0,,,70,95
29712,note_on,2,0,0,,1,,,72,127
29712,note_on,0,0,0,,0,,,67,95
29712,note_on,0,0,0,,0,,,60,95
29712,note_on,0,0,0,,0,,,52,95
29966,note_off,254,0,0,,1,,,72,127
29968,note_on,2,0,0,,1,,,70,127
30222,note_off,254,0,0,,1,,,70,127
30222,note_off,0,0,0,,0,,,52,95
30222,note_off,0,0,0,,0,,,60,95
30222,note_off,0,0,0,,0,,,67,95
30224,note_on,2,0,0,,1,,,69,127
30224,note_on,0,0,0,,0,,,65,95
30224,note_on,0,0,0,,0,,,60,95
30224,note_on,0,0,0,,0,,,53,95
30350,note_off,126,0,0,,1,,,69,127
30352,note_on,2,0,0,,1,,,67,127
30478,note_off,126,0,0,,1,,,67,127
30478,note_off,0,0,0,,0,,,53,95
30480,note_on,2,0,0,,1,,,65,127
30480,note_on,0,0,0,,0,,,41,95
30734,note_off,254,0,0,,0,,,41,95
30734,note_off,0,0,0,,1,,,65,127
30734,note_off,0,0,0,,0,,,60,95
30734,note_off,0,0,0,,0,,,65,95
30736,note_on,2,0,0,,0,,,41,95
30990,note_off,254,0,0,,0,,,41,95
30992,note_on,2,0,0,,1,,,81,127
30992,note_on,0,0,0,,0,,,62,95
30992,note_on,0,0,0,,0,,,69,95
30992,note_on,0,0,0,,0,,,53,95
31246,note_off,254,0,0,,0,,,53,95
31246,note_off,0,0,0,,0,,,69,95
31246,note_off,0,0,0,,0,,,62,95
31246,note_off,0,0,0,,1,,,81,127
31248,note_on,2,0,0,,1,,,81,127
31248,note_on,0,0,0,,0,,,69,95
31248,note_on,0,0,0,,0,,,73,95
31248,note_on,0,0,0,,0,,,64,95
31248,note_on,0,0,0,,0,,,52,95
31502,note_off,254,0,0,,1,,,81,127
31504,note_on,2,0,0,,1,,,79,127
31758,note_off,254,0,0,,1,,,79,127
31760,note_on,2,0,0,,1,,,78,127
32014,note_off,254,0,0,,1,,,78,127
32016,note_on,2,0,0,,1,,,79,127
32270,note_off,254,0,0,,1,,,79,127
32270,note_off,0,0,0,,0,,,52,95
32270,note_off,0,0,0,,0,,,64,95
32270,note_off,0,0,0,,0,,,73,95
32270,note_off,0,0,0,,0,,,69,95
32272,note_on,2,0,0,,0,,,74,95
32272,note_on,0,0,0,,0,,,65,95
32272,note_on,0,0,0,,0,,,69,95
32272,note_on,0,0,0,,0,,,50,95
32528,note_on,256,0,0,,1,,,77,127
32782,note_off,254,0,0,,1,,,77,127
32784,note_on,2,0,0,,1,,,76,127
33038,note_off,254,0,0,,1,,,76,127
33040,note_on,2,0,0,,1,,,77,127
33294,note_off,254,0,0,,1,,,77,127
33294,note_off,0,0,0,,0,,,50,95
33294,note_off,0,0,0,,0,,,69,95
33294,note_off,0,0,0,,0,,,65,95
33294,note_off,0,0,0,,0,,,74,95
33296,note_on,2,0,0,,0,,,76,95
33296,note_on,0,0,0,,0,,,69,95
33296,note_on,0,0,0,,0,,,64,95
33296,note_on,0,0,0,,0,,,48,95
33552,note_on,256,0,0,,1,,,76,127
33806,note_off,254,0,0,,1,,,76,127
33808,note_on,2,0,0,,1,,,75,127
34062,note_off,254,0,0,,1,,,75,127
34064,note_on,2,0,0,,1,,,76,127
34318,note_off,254,0,0,,1,,,76,127
34318,note_off,0,0,0,,0,,,48,95
34318,note_off,0,0,0,,0,,,64,95
34318,note_off,0,0,0,,0,,,69,95
34318,note_off,0,0,0,,0,,,76,95
34320,note_on,2,0,0,,0,,,68,95
34320,note_on,0,0,0,,0,,,71,95
34320,note_on,0,0,0,,0,,,64,95
34320,note_on,0,0,0,,0,,,47,95
34576,note_on,256,0,0,,1,,,74,127
34830,note_off,254,0,0,,1,,,74,127
34832,note_on,2,0,0,,1,,,73,127
35086,note_off,254,0,0,,1,,,73,127
35088,note_on,2,0,0,,1,,,74,127
35342,note_off,254,0,0,,1,,,74,127
35342,note_off,0,0,0,,0,,,47,95
35342,note_off,0,0,0,,0,,,64,95
35342,note_off,0,0,0,,0,,,71,95
35342,note_off,0,0,0,,0,,,68,95
35344,note_on,2,0,0,,0,,,69,95
35344,note_on,0,0,0,,0,,,64,95
35344,note_on,0,0,0,,0,,,60,95
35344,note_on,0,0,0,,0,,,45,95
35600,note_on,256,0,0,,1,,,72,127
35854,note_off,254,0,0,,1,,,72,127
35856,note_on,2,0,0,,1,,,71,127
36110,note_off,254,0,0,,1,,,71,127
36112,note_on,2,0,0,,1,,,72,127
36366,note_off,254,0,0,,1,,,72,127
36366,note_off,0,0,0,,0,,,45,95
36366,note_off,0,0,0,,0,,,60,95
36366,note_off,0,0,0,,0,,,64,95
36366,note_off,0,0,0,,0,,,69,95
36368,note_on,2,0,0,,1,,,72,127
36622,note_off,254,0,0,,1,,,72,127
36624,note_on,2,0,0,,1,,,71,127
36624,note_on,0,0,0,,0,,,68,95
36624,note_on,0,0,0,,0,,,64,95
36624,note_on,0,0,0,,0,,,52,95
36878,note_off,254,0,0,,0,,,52,95
36878,note_off,0,0,0,,0,,,68,95
36878,note_off,0,0,0,,1,,,71,127
36880,note_on,2,0,0,,0,,,69,95
36880,note_on,0,0,0,,0,,,48,95
37134,note_off,254,0,0,,0,,,48,95
37134,note_off,0,0,0,,0,,,69,95
37136,note_on,2,0,0,,1,,,76,127
37136,note_on,0,0,0,,0,,,72,95
37136,note_on,0,0,0,,0,,,45,95
37390,note_off,254,0,0,,0,,,45,95
37390,note_off,0,0,0,,0,,,72,95
37390,note_off,0,0,0,,1,,,76,127
37390,note_off,0,0,0,,0,,,64,95
37392,note_on,2,0,0,,1,,,77,127
37392,note_on,0,0,0,,0,,,69,95
37392,note_on,0,0,0,,0,,,65,95
37392,note_on,0,0,0,,0,,,50,95
37646,note_off,254,0,0,,1,,,77,127
37648,note_on,2,0,0,,1,,,74,127
37902,note_off,254,0,0,,1,,,74,127
37902,note_off,0,0,0,,0,,,50,95
37902,note_off,0,0,0,,0,,,65,95
37902,note_off,0,0,0,,0,,,69,95
37904,note_on,2,0,0,,1,,,71,127
37904,note_on,0,0,0,,0,,,38,95
38158,note_off,254,0,0,,0,,,38,95
38158,note_off,0,0,0,,1,,,71,127
38160,note_on,2,0,0,,1,,,69,127
38160,note_on,0,0,0,,0,,,69,95
38160,note_on,0,0,0,,0,,,65,95
38160,note_on,0,0,0,,0,,,50,95
38414,note_off,254,0,0,,0,,,50,95
38414,note_off,0,0,0,,0,,,65,95
38414,note_off,0,0,0,,0,,,69,95
38414,note_off,0,0,0,,1,,,69,127
38416,note_on,2,0,0,,1,,,68,127
38416,note_on,0,0,0,,0,,,59,95
38416,note_on,0,0,0,,0,,,64,95
38416,note_on,0,0,0,,0,,,52,95
38670,note_off,254,0,0,,1,,,68,127
38672,note_on,2,0,0,,1,,,65,127
38926,note_off,254,0,0,,1,,,65,127
38926,note_off,0,0,0,,0,,,52,95
38926,note_off,0,0,0,,0,,,64,95
38926,note_off,0,0,0,,0,,,59,95
38928,note_on,2,0,0,,1,,,64,127
39182,note_off,254,0,0,,1,,,64,127
39184,note_on,2,0,0,,1,,,74,127
39184,note_on,0,0,0,,0,,,68,95
39184,note_on,0,0,0,,0,,,59,95
39184,note_on,0,0,0,,0,,,52,95
39438,note_off,254,0,0,,0,,,52,95
39438,note_off,0,0,0,,0,,,59,95
39438,note_off,0,0,0,,0,,,68,95
39438,note_off,0,0,0,,1,,,74,127
39440,note_on,2,0,0,,1,,,72,127
39440,note_on,0,0,0,,1,,,64,95
39440,note_on,0,0,0,,0,,,69,95
39440,note_on,0,0,0,,0,,,57,95
39694,note_off,254,0,0,,0,,,57,95
39696,note_on,2,0,0,,0,,,48,95
39950,note_off,254,0,0,,0,,,48,95
39950,note_off,0,0,0,,0,,,69,95
39950,note_off,0,0,0,,1,,,64,95
39950,note_off,0,0,0,,1,,,72,127
39952,note_on,2,0,0,,1,,,71,127
39952,note_on,0,0,0,,0,,,50,95
40206,note_off,254,0,0,,0,,,50,95
40208,note_on,2,0,0,,0,,,64,95
40208,note_on,0,0,0,,0,,,68,95
40208,note_on,0,0,0,,0,,,52,95
40462,note_off,254,0,0,,0,,,52,95
40462,note_off,0,0,0,,0,,,68,95
40462,note_off,0,0,0,,0,,,64,95
40462,note_off,0,0,0,,1,,,71,127
40464,note_on,2,0,0,,1,,,69,127
40464,note_on,0,0,0,,0,,,64,95
40464,note_on,0,0,0,,0,,,60,95
40464,note_on,0,0,0,,0,,,45,95
40718,note_off,254,0,0,,0,,,45,95
40720,note_on,2,0,0,,0,,,45,95
40974,note_off,254,0,0,,0,,,45,95
40974,note_off,0,0,0,,0,,,60,95
40974,note_off,0,0,0,,0,,,64,95
40974,note_off,0,0,0,,1,,,69,127
40976,note_on,2,0,0,,0,,,57,95
41232,note_on,256,0,0,,1,,,81,127
41486,note_off,254,0,0,,1,,,81,127
41486,note_off,0,0,0,,0,,,57,95
41488,note_on,2,0,0,,1,,,75,127
41742,note_off,254,0,0,,1,,,75,127
41744,note_on,2,0,0,,1,,,81,127
41744,note_on,0,0,0,,0,,,69,95
41744,note_on,0,0,0,,0,,,63,95
41744,note_on,0,0,0,,0,,,48,95
41998,note_off,254,0,0,,0,,,48,95
41998,note_off,0,0,0,,0,,,69,95
41998,note_off,0,0,0,,1,,,81,127
42000,note_on,2,0,0,,1,,,79,127
42000,note_on,0,0,0,,0,,,71,95
42000,note_on,0,0,0,,0,,,47,95
42254,note_off,254,0,0,,1,,,79,127
42256,note_on,2,0,0,,1,,,78,127
42510,note_off,254,0,0,,1,,,78,127
42510,note_off,0,0,0,,0,,,47,95
42510,note_off,0,0,0,,0,,,71,95
42510,note_off,0,0,0,,0,,,63,95
42512,note_on,2,0,0,,1,,,79,127
42638,note_off,126,0,0,,1,,,79,127
42640,note_on,2,0,0,,1,,,78,127
42766,note_off,126,0,0,,1,,,78,127
42768,note_on,2,0,0,,1,,,76,127
42768,note_on,0,0,0,,0,,,67,95
42768,note_on,0,0,0,,0,,,59,95
42768,note_on,0,0,0,,0,,,52,95
43022,note_off,254,0,0,,0,,,52,95
43022,note_off,0,0,0,,0,,,59,95
43022,note_off,0,0,0,,1,,,76,127
43024,note_on,2,0,0,,0,,,71,95
43024,note_on,0,0,0,,0,,,64,95
43024,note_on,0,0,0,,0,,,55,95
43280,note_on,256,0,0,,1,,,79,127
43534,note_off,254,0,0,,1,,,79,127
43534,note_off,0,0,0,,0,,,55,95
43534,note_off,0,0,0,,0,,,64,95
43534,note_off,0,0,0,,0,,,71,95
43534,note_off,0,0,0,,0,,,67,95
43536,note_on,2,0,0,,1,,,73,127
43790,note_off,254,0,0,,1,,,73,127
43792,note_on,2,0,0,,1,,,79,127
43792,note_on,0,0,0,,0,,,73,95
43792,note_on,0,0,0,,0,,,64,95
43792,note_on,0,0,0,,0,,,47,95
44046,note_off,254,0,0,,0,,,47,95
44046,note_off,0,0,0,,1,,,79,127
44048,note_on,2,0,0,,1,,,77,127
44048,note_on,0,0,0,,0,,,69,95
44048,note_on,0,0,0,,0,,,45,95
44302,note_off,254,0,0,,1,,,77,127
44304,note_on,2,0,0,,1,,,76,127
44558,note_off,254,0,0,,1,,,76,127
44558,note_off,0,0,0,,0,,,45,95
44558,note_off,0,0,0,,0,,,69,95
44558,note_off,0,0,0,,0,,,64,95
44558,note_off,0,0,0,,0,,,73,95
44560,note_on,2,0,0,,1,,,77,127
44686,note_off,126,0,0,,1,,,77,127
44688,note_on,2,0,0,,1,,,76,127
44814,note_off,126,0,0,,1,,,76,127
44816,note_on,2,0,0,,1,,,74,127
44816,note_on,0,0,0,,0,,,69,95
44816,note_on,0,0,0,,0,,,65,95
44816,note_on,0,0,0,,0,,,50,95
45070,note_off,254,0,0,,0,,,50,95
45070,note_off,0,0,0,,0,,,65,95
45070,note_off,0,0,0,,0,,,69,95
45070,note_off,0,0,0,,1,,,74,127
45072,note_on,2,0,0,,0,,,62,95
45072,note_on,0,0,0,,0,,,69,95
45072,note_on,0,0,0,,0,,,53,95
45328,note_on,256,0,0,,1,,,74,127
45582,note_off,254,0,0,,1,,,74,127
45582,note_off,0,0,0,,0,,,53,95
45582,note_off,0,0,0,,0,,,69,95
45582,note_off,0,0,0,,0,,,62,95
45584,note_on,2,0,0,,1,,,80,127
45838,note_off,254,0,0,,1,,,80,127
45840,note_on,2,0,0,,1,,,80,127
45840,note_on,0,0,0,,0,,,74,95
45840,note_on,0,0,0,,0,,,53,95
46094,note_off,254,0,0,,0,,,53,95
46094,note_off,0,0,0,,0,,,74,95
46094,note_off,0,0,0,,1,,,80,127
46096,note_on,2,0,0,,1,,,80,127
46096,note_on,0,0,0,,0,,,72,95
46096,note_on,0,0,0,,0,,,52,95
46350,note_off,254,0,0,,0,,,52,95
46350,note_off,0,0,0,,0,,,72,95
46350,note_off,0,0,0,,1,,,80,127
46352,note_on,2,0,0,,1,,,80,127
46352,note_on,0,0,0,,0,,,71,95
46352,note_on,0,0,0,,0,,,50,95
46606,note_off,254,0,0,,0,,,50,95
46606,note_off,0,0,0,,0,,,71,95
46606,note_off,0,0,0,,1,,,80,127
46608,note_on,2,0,0,,1,,,80,127
46608,note_on,0,0,0,,0,,,64,95
46608,note_on,0,0,0,,0,,,69,95
46608,note_on,0,0,0,,0,,,48,95
46862,note_off,254,0,0,,1,,,80,127
46864,note_on,2,0,0,,1,,,81,127
47118,note_off,254,0,0,,1,,,81,127
47118,note_off,0,0,0,,0,,,48,95
47118,note_off,0,0,0,,0,,,69,95
47118,note_off,0,0,0,,0,,,64,95
47120,note_on,2,0,0,,0,,,69,95
47120,note_on,0,0,0,,0,,,64,95
47120,note_on,0,0,0,,0,,,60,95
47376,note_on,256,0,0,,1,,,69,127
47630,note_off,254,0,0,,1,,,69,127
47630,note_off,0,0,0,,0,,,60,95
47630,note_off,0,0,0,,0,,,64,95
47630,note_off,0,0,0,,0,,,69,95
47632,note_on,2,0,0,,1,,,75,127
47886,note_off,254,0,0,,1,,,75,127
47888,note_on,2,0,0,,1,,,75,127
47888,note_on,0,0,0,,0,,,69,95
47888,note_on,0,0,0,,0,,,60,95
48142,note_off,254,0,0,,0,,,60,95
48142,note_off,0,0,0,,0,,,69,95
48142,note_off,0,0,0,,1,,,75,127
48144,note_on,2,0,0,,1,,,75,127
48144,note_on,0,0,0,,0,,,67,95
48144,note_on,0,0,0,,0,,,59,95
48398,note_off,254,0,0,,0,,,59,95
48398,note_off,0,0,0,,0,,,67,95
48398,note_off,0,0,0,,1,,,75,127
48400,note_on,2,0,0,,1,,,75,127
48400,note_on,0,0,0,,0,,,66,95
48400,note_on,0,0,0,,0,,,57,95
48654,note_off,254,0,0,,0,,,57,95
48654,note_off,0,0,0,,0,,,66,95
48654,note_off,0,0,0,,1,,,75,127
48656,note_on,2,0,0,,1,,,75,127
48656,note_on,0,0,0,,0,,,71,95
48656,note_on,0,0,0,,0,,,64,95
48656,note_on,0,0,0,,0,,,56,95
48910,note_off,254,0,0,,1,,,75,127
48912,note_on,2,0,0,,1,,,76,127
49166,note_off,254,0,0,,1,,,76,127
49166,note_off,0,0,0,,0,,,56,95
49166,note_off,0,0,0,,0,,,64,95
49166,note_off,0,0,0,,0,,,71,95
49168,note_on,2,0,0,,0,,,71,95
49168,note_on,0,0,0,,0,,,64,95
49168,note_on,0,0,0,,0,,,44,95
49424,note_on,256,0,0,,1,,,83,127
49678,note_off,254,0,0,,1,,,83,127
49678,note_off,0,0,0,,0,,,44,95
49678,note_off,0,0,0,,0,,,64,95
49678,note_off,0,0,0,,0,,,71,95
49680,note_on,2,0,0,,1,,,80,127
49934,note_off,254,0,0,,1,,,80,127
49936,note_on,2,0,0,,1,,,77,127
49936,note_on,0,0,0,,0,,,64,95
49936,note_on,0,0,0,,0,,,56,95
50190,note_off,254,0,0,,0,,,56,95
50190,note_off,0,0,0,,0,,,64,95
50190,note_off,0,0,0,,1,,,77,127
50192,note_on,2,0,0,,1,,,76,127
50192,note_on,0,0,0,,0,,,66,95
50192,note_on,0,0,0,,0,,,56,95
50446,note_off,254,0,0,,0,,,56,95
50446,note_off,0,0,0,,0,,,66,95
50446,note_off,0,0,0,,1,,,76,127
50448,note_on,2,0,0,,1,,,74,127
50448,note_on,0,0,0,,0,,,68,95
50448,note_on,0,0,0,,0,,,56,95
50702,note_off,254,0,0,,0,,,56,95
50702,note_off,0,0,0,,0,,,68,95
50702,note_off,0,0,0,,1,,,74,127
50704,note_on,2,0,0,,1,,,74,127
50704,note_on,0,0,0,,0,,,64,95
50704,note_on,0,0,0,,0,,,69,95
50704,note_on,0,0,0,,0,,,57,95
50958,note_off,254,0,0,,0,,,57,95
50958,note_off,0,0,0,,1,,,74,127
50960,note_on,2,0,0,,1,,,72,127
50960,note_on,0,0,0,,0,,,45,95
51214,note_off,254,0,0,,0,,,45,95
51214,note_off,0,0,0,,1,,,72,127
51214,note_off,0,0,0,,0,,,69,95
51214,note_off,0,0,0,,0,,,64,95
51216,note_on,2,0,0,,0,,,48,95
51470,note_off,254,0,0,,0,,,48,95
51472,note_on,2,0,0,,1,,,76,127
51472,note_on,0,0,0,,0,,,64,95
51472,note_on,0,0,0,,0,,,72,95
51472,note_on,0,0,0,,0,,,45,95
51726,note_off,254,0,0,,0,,,45,95
51726,note_off,0,0,0,,0,,,72,95
51726,note_off,0,0,0,,0,,,64,95
51726,note_off,0,0,0,,1,,,76,127
51728,note_on,2,0,0,,1,,,77,127
51728,note_on,0,0,0,,0,,,65,95
51728,note_on,0,0,0,,0,,,69,95
51728,note_on,0,0,0,,0,,,50,95
51982,note_off,254,0,0,,1,,,77,127
51984,note_on,2,0,0,,1,,,74,127
52238,note_off,254,0,0,,1,,,74,127
52238,note_off,0,0,0,,0,,,50,95
52240,note_on,2,0,0,,1,,,71,127
52240,note_on,0,0,0,,0,,,38,95
52494,note_off,254,0,0,,0,,,38,95
52494,note_off,0,0,0,,1,,,71,127
52494,note_off,0,0,0,,0,,,69,95
52494,note_off,0,0,0,,0,,,65,95
52496,note_on,2,0,0,,1,,,69,127
52496,note_on,0,0,0,,0,,,65,95
52496,note_on,0,0,0,,0,,,69,95
52496,note_on,0,0,0,,0,,,50,95
52750,note_off,254,0,0,,0,,,50,95
52750,note_off,0,0,0,,0,,,69,95
52750,note_off,0,0,0,,0,,,65,95
52750,note_off,0,0,0,,1,,,69,127
52752,note_on,2,0,0,,1,,,68,127
52752,note_on,0,0,0,,0,,,68,95
52752,note_on,0,0,0,,0,,,71,95
52752,note_on,0,0,0,,0,,,64,95
52752,note_on,0,0,0,,0,,,52,95
53006,note_off,254,0,0,,1,,,68,127
53008,note_on,2,0,0,,1,,,65,127
53262,note_off,254,0,0,,1,,,65,127
53262,note_off,0,0,0,,0,,,52,95
53262,note_off,0,0,0,,0,,,64,95
53262,note_off,0,0,0,,0,,,71,95
53262,note_off,0,0,0,,0,,,68,95
53264,note_on,2,0,0,,1,,,64,127
53518,note_off,254,0,0,,1,,,64,127
53520,note_on,2,0,0,,1,,,74,127
53520,note_on,0,0,0,,0,,,68,95
53520,note_on,0,0,0,,0,,,71,95
53520,note_on,0,0,0,,0,,,52,95
53774,note_off,254,0,0,,0,,,52,95
53774,note_off,0,0,0,,0,,,71,95
53774,note_off,0,0,0,,0,,,68,95
53774,note_off,0,0,0,,1,,,74,127
53776,note_on,2,0,0,,1,,,72,127
53776,note_on,0,0,0,,0,,,69,95
53776,note_on,0,0,0,,0,,,64,95
53776,note_on,0,0,0,,0,,,57,95
54030,note_off,254,0,0,,0,,,57,95
54032,note_on,2,0,0,,0,,,48,95
54286,note_off,254,0,0,,0,,,48,95
54286,note_off,0,0,0,,1,,,72,127
54288,note_on,2,0,0,,1,,,71,127
54288,note_on,0,0,0,,0,,,50,95
54542,note_off,254,0,0,,0,,,50,95
54542,note_off,0,0,0,,0,,,69,95
54544,note_on,2,0,0,,0,,,68,95
54544,note_on,0,0,0,,0,,,52,95
54798,note_off,254,0,0,,0,,,52,95
54798,note_off,0,0,0,,0,,,68,95
54798,note_off,0,0,0,,1,,,71,127
54798,note_off,0,0,0,,0,,,64,95
54800,note_on,2,0,0,,1,,,69,127
54800,note_on,0,0,0,,0,,,60,95
54800,note_on,0,0,0,,0,,,69,95
54800,note_on,0,0,0,,0,,,45,95
55398,note_off,598,0,0,,0,,,45,95
55398,note_off,0,0,0,,0,,,69,95
55398,note_off,0,0,0,,0,,,60,95
55398,note_off,0,0,0,,1,,,69,127
55568,note_on,170,0,0,,1,,,64,127
55822,note_off,254,0,0,,1,,,64,127
55824,note_on,2,0,0,,1,,,69,127
56078,note_off,254,0,0,,1,,,69,127
56080,note_on,2,0,0,,1,,,71,127
56334,note_off,254,0,0,,1,,,71,127
56336,note_on,2,0,0,,1,,,73,127
56590,note_off,254,0,0,,1,,,73,127
56592,note_on,2,0,0,,1,,,74,127
56592,note_on,0,0,0,,0,,,64,95
56592,note_on,0,0,0,,0,,,68,95
56592,note_on,0,0,0,,0,,,52,95
56846,note_off,254,0,0,,0,,,52,95
56846,note_off,0,0,0,,0,,,68,95
56846,note_off,0,0,0,,0,,,64,95
56846,note_off,0,0,0,,1,,,74,127
56848,note_on,2,0,0,,1,,,73,127
56848,note_on,0,0,0,,0,,,64,95
56848,note_on,0,0,0,,0,,,73,95
56848,note_on,0,0,0,,0,,,57,95
56974,note_off,126,0,0,,1,,,73,127
56976,note_on,2,0,0,,1,,,74,127
57102,note_off,126,0,0,,1,,,74,127
57102,note_off,0,0,0,,0,,,57,95
57104,note_on,2,0,0,,1,,,76,127
57104,note_on,0,0,0,,0,,,45,95
57358,note_off,254,0,0,,0,,,45,95
57358,note_off,0,0,0,,0,,,73,95
57358,note_off,0,0,0,,0,,,64,95
57360,note_on,2,0,0,,0,,,45,95
57614,note_off,254,0,0,,0,,,45,95
57614,note_off,0,0,0,,1,,,76,127
57616,note_on,2,0,0,,1,,,77,127
57616,note_on,0,0,0,,0,,,62,95
57616,note_on,0,0,0,,0,,,65,95
57616,note_on,0,0,0,,0,,,45,95
57870,note_off,254,0,0,,0,,,45,95
57870,note_off,0,0,0,,0,,,65,95
57870,note_off,0,0,0,,0,,,62,95
57870,note_off,0,0,0,,1,,,77,127
57872,note_on,2,0,0,,1,,,79,127
57872,note_on,0,0,0,,0,,,67,95
57872,note_on,0,0,0,,0,,,62,95
57872,note_on,0,0,0,,0,,,46,95
58126,note_off,254,0,0,,1,,,79,127
58128,note_on,2,0,0,,1,,,77,127
58382,note_off,254,0,0,,1,,,77,127
58382,note_off,0,0,0,,0,,,46,95
58382,note_off,0,0,0,,0,,,62,95
58382,note_off,0,0,0,,0,,,67,95
58384,note_on,2,0,0,,1,,,76,127
58384,note_on,0,0,0,,0,,,70,95
58384,note_on,0,0,0,,0,,,64,95
58384,note_on,0,0,0,,0,,,43,95
58638,note_off,254,0,0,,1,,,76,127
58640,note_on,2,0,0,,1,,,74,127
58894,note_off,254,0,0,,1,,,74,127
58894,note_off,0,0,0,,0,,,43,95
58894,note_off,0,0,0,,0,,,64,95
58894,note_off,0,0,0,,0,,,70,95
58896,note_on,2,0,0,,1,,,73,127
58896,note_on,0,0,0,,0,,,61,95
58896,note_on,0,0,0,,0,,,45,95
59022,note_off,126,0,0,,1,,,73,127
59024,note_on,2,0,0,,1,,,71,127
59134,note_off,110,0,0,,0,,,45,95
59134,note_off,0,0,0,,0,,,61,95
59150,note_off,16,0,0,,1,,,71,127
59152,note_on,2,0,0,,1,,,69,127
59152,note_on,0,0,0,,0,,,61,95
59152,note_on,0,0,0,,0,,,64,95
59152,note_on,0,0,0,,0,,,45,95
59377,note_off,225,0,0,,0,,,45,95
59377,note_off,0,0,0,,0,,,64,95
59377,note_off,0,0,0,,0,,,61,95
59406,note_off,29,0,0,,1,,,69,127
59408,note_on,2,0,0,,0,,,69,95
59408,note_on,0,0,0,,0,,,65,95
59408,note_on,0,0,0,,0,,,62,95
59408,note_on,0,0,0,,0,,,50,95
59664,note_on,256,0,0,,1,,,69,127
59918,note_off,254,0,0,,1,,,69,127
59918,note_off,0,0,0,,0,,,50,95
59918,note_off,0,0,0,,0,,,62,95
59918,note_off,0,0,0,,0,,,65,95
59918,note_off,0,0,0,,0,,,69,95
59920,note_on,2,0,0,,1,,,74,127
60174,note_off,254,0,0,,1,,,74,127
60176,note_on,2,0,0,,1,,,76,127
60176,note_on,0,0,0,,0,,,73,95
60176,note_on,0,0,0,,0,,,45,95
60430,note_off,254,0,0,,0,,,45,95
60430,note_off,0,0,0,,0,,,73,95
60430,note_off,0,0,0,,1,,,76,127
60432,note_on,2,0,0,,1,,,77,127
60432,note_on,0,0,0,,0,,,69,95
60432,note_on,0,0,0,,0,,,50,95
60686,note_off,254,0,0,,0,,,50,95
60686,note_off,0,0,0,,0,,,69,95
60686,note_off,0,0,0,,1,,,77,127
60688,note_on,2,0,0,,1,,,79,127
60688,note_on,0,0,0,,0,,,73,95
60688,note_on,0,0,0,,0,,,45,95
60942,note_off,254,0,0,,0,,,45,95
60942,note_off,0,0,0,,0,,,73,95
60942,note_off,0,0,0,,1,,,79,127
60944,note_on,2,0,0,,1,,,77,127
60944,note_on,0,0,0,,0,,,69,95
60944,note_on,0,0,0,,0,,,50,95
61070,note_off,126,0,0,,1,,,77,127
61072,note_on,2,0,0,,1,,,76,127
61198,note_off,126,0,0,,1,,,76,127
61198,note_off,0,0,0,,0,,,50,95
61198,note_off,0,0,0,,0,,,69,95
61200,note_on,2,0,0,,1,,,74,127
61200,note_on,0,0,0,,0,,,67,95
61200,note_on,0,0,0,,0,,,52,95
61454,note_off,254,0,0,,0,,,52,95
61454,note_off,0,0,0,,0,,,67,95
61456,note_on,2,0,0,,0,,,69,95
61456,note_on,0,0,0,,0,,,53,95
61710,note_off,254,0,0,,0,,,53,95
61710,note_off,0,0,0,,0,,,69,95
61710,note_off,0,0,0,,1,,,74,127
61712,note_on,2,0,0,,1,,,73,127
61712,note_on,0,0,0,,0,,,64,95
61712,note_on,0,0,0,,0,,,70,95
61712,note_on,0,0,0,,0,,,55,95
61966,note_off,254,0,0,,0,,,55,95
61966,note_off,0,0,0,,0,,,70,95
61966,note_off,0,0,0,,0,,,64,95
61966,note_off,0,0,0,,1,,,73,127
61968,note_on,2,0,0,,1,,,74,127
61968,note_on,0,0,0,,0,,,69,95
61968,note_on,0,0,0,,0,,,65,95
61968,note_on,0,0,0,,0,,,62,95
61968,note_on,0,0,0,,0,,,53,95
62222,note_off,254,0,0,,0,,,53,95
62222,note_off,0,0,0,,1,,,74,127
62224,note_on,2,0,0,,1,,,81,127
62224,note_on,0,0,0,,0,,,50,95
62478,note_off,254,0,0,,0,,,50,95
62478,note_off,0,0,0,,1,,,81,127
62478,note_off,0,0,0,,0,,,62,95
62478,note_off,0,0,0,,0,,,65,95
62478,note_off,0,0,0,,0,,,69,95
62480,note_on,2,0,0,,1,,,81,127
62734,note_off,254,0,0,,1,,,81,127
62736,note_on,2,0,0,,1,,,79,127
62736,note_on,0,0,0,,0,,,73,95
62736,note_on,0,0,0,,0,,,64,95
62736,note_on,0,0,0,,0,,,45,95
62990,note_off,254,0,0,,0,,,45,95
62990,note_off,0,0,0,,0,,,64,95
62990,note_off,0,0,0,,0,,,73,95
62990,note_off,0,0,0,,1,,,79,127
62992,note_on,2,0,0,,1,,,77,127
62992,note_on,0,0,0,,0,,,69,95
62992,note_on,0,0,0,,0,,,65,95
62992,note_on,0,0,0,,0,,,50,95
63118,note_off,126,0,0,,1,,,77,127
63120,note_on,2,0,0,,1,,,76,127
63246,note_off,126,0,0,,1,,,76,127
63246,note_off,0,0,0,,0,,,50,95
63246,note_off,0,0,0,,0,,,65,95
63248,note_on,2,0,0,,1,,,74,127
63248,note_on,0,0,0,,0,,,67,95
63248,note_on,0,0,0,,0,,,52,95
63502,note_off,254,0,0,,0,,,52,95
63502,note_off,0,0,0,,0,,,67,95
63502,note_off,0,0,0,,1,,,74,127
63502,note_off,0,0,0,,0,,,69,95
63504,note_on,2,0,0,,0,,,69,95
63504,note_on,0,0,0,,0,,,62,95
63504,note_on,0,0,0,,0,,,53,95
63758,note_off,254,0,0,,0,,,53,95
63758,note_off,0,0,0,,0,,,62,95
63758,note_off,0,0,0,,0,,,69,95
63760,note_on,2,0,0,,1,,,81,127
64014,note_off,254,0,0,,1,,,81,127
64016,note_on,2,0,0,,1,,,77,127
64270,note_off,254,0,0,,1,,,77,127
64272,note_on,2,0,0,,1,,,74,127
64526,note_off,254,0,0,,1,,,74,127
64528,note_on,2,0,0,,1,,,69,127
64782,note_off,254,0,0,,1,,,69,127
64784,note_on,2,0,0,,1,,,81,127
65038,note_off,254,0,0,,1,,,81,127
65040,note_on,2,0,0,,1,,,78,127
65294,note_off,254,0,0,,1,,,78,127
65296,note_on,2,0,0,,1,,,79,127
65296,note_on,0,0,0,,0,,,61,95
65296,note_on,0,0,0,,0,,,69,95
65296,note_on,0,0,0,,0,,,67,95
65296,note_on,0,0,0,,0,,,52,95
65550,note_off,254,0,0,,0,,,52,95
65550,note_off,0,0,0,,0,,,69,95
65550,note_off,0,0,0,,0,,,61,95
65552,note_on,2,0,0,,0,,,61,95
65552,note_on,0,0,0,,0,,,69,95
65552,note_on,0,0,0,,0,,,40,95
65806,note_off,254,0,0,,1,,,79,127
65808,note_on,2,0,0,,1,,,79,127
66062,note_off,254,0,0,,1,,,79,127
66062,note_off,0,0,0,,0,,,40,95
66062,note_off,0,0,0,,0,,,69,95
66062,note_off,0,0,0,,0,,,61,95
66062,note_off,0,0,0,,0,,,67,95
66064,note_on,2,0,0,,1,,,76,127
66318,note_off,254,0,0,,1,,,76,127
66320,note_on,2,0,0,,1,,,73,127
66574,note_off,254,0,0,,1,,,73,127
66576,note_on,2,0,0,,1,,,69,127
66830,note_off,254,0,0,,1,,,69,127
66832,note_on,2,0,0,,1,,,79,127
67086,note_off,254,0,0,,1,,,79,127
67088,note_on,2,0,0,,1,,,76,127
67342,note_off,254,0,0,,1,,,76,127
67344,note_on,2,0,0,,1,,,77,127
67344,note_on,0,0,0,,0,,,65,95
67344,note_on,0,0,0,,0,,,69,95
67344,note_on,0,0,0,,0,,,62,95
67344,note_on,0,0,0,,0,,,50,95
67598,note_off,254,0,0,,0,,,50,95
67598,note_off,0,0,0,,0,,,69,95
67598,note_off,0,0,0,,0,,,65,95
67600,note_on,2,0,0,,0,,,65,95
67600,note_on,0,0,0,,0,,,69,95
67600,note_on,0,0,0,,0,,,38,95
67854,note_off,254,0,0,,1,,,77,127
67856,note_on,2,0,0,,1,,,81,127
68110,note_off,254,0,0,,1,,,81,127
68110,note_off,0,0,0,,0,,,38,95
68110,note_off,0,0,0,,0,,,69,95
68110,note_off,0,0,0,,0,,,65,95
68110,note_off,0,0,0,,0,,,62,95
68112,note_on,2,0,0,,1,,,77,127
68366,note_off,254,0,0,,1,,,77,127
68368,note_on,2,0,0,,1,,,76,127
68368,note_on,0,0,0,,0,,,67,95
68368,note_on,0,0,0,,0,,,57,95
68622,note_off,254,0,0,,0,,,57,95
68622,note_off,0,0,0,,0,,,67,95
68622,note_off,0,0,0,,1,,,76,127
68624,note_on,2,0,0,,1,,,74,127
68624,note_on,0,0,0,,0,,,69,95
68624,note_on,0,0,0,,0,,,53,95
68878,note_off,254,0,0,,0,,,53,95
68878,note_off,0,0,0,,0,,,69,95
68878,note_off,0,0,0,,1,,,74,127
68880,note_on,2,0,0,,1,,,72,127
68880,note_on,0,0,0,,0,,,65,95
68880,note_on,0,0,0,,0,,,50,95
69134,note_off,254,0,0,,0,,,50,95
69134,note_off,0,0,0,,0,,,65,95
69134,note_off,0,0,0,,1,,,72,127
69136,note_on,2,0,0,,1,,,71,127
69136,note_on,0,0,0,,0,,,62,95
69136,note_on,0,0,0,,0,,,71,95
69136,note_on,0,0,0,,0,,,55,95
69262,note_off,126,0,0,,1,,,71,127
69264,note_on,2,0,0,,1,,,69,127
69390,note_off,126,0,0,,1,,,69,127
69390,note_off,0,0,0,,0,,,55,95
69392,note_on,2,0,0,,1,,,67,127
69392,note_on,0,0,0,,0,,,43,95
69646,note_off,254,0,0,,0,,,43,95
69646,note_off,0,0,0,,1,,,67,127
69646,note_off,0,0,0,,0,,,71,95
69646,note_off,0,0,0,,0,,,62,95
69648,note_on,2,0,0,,0,,,59,95
69648,note_on,0,0,0,,0,,,62,95
69648,note_on,0,0,0,,0,,,43,95
69904,note_on,256,0,0,,1,,,67,127
70158,note_off,254,0,0,,1,,,67,127
70158,note_off,0,0,0,,0,,,43,95
70158,note_off,0,0,0,,0,,,62,95
70158,note_off,0,0,0,,0,,,59,95
70160,note_on,2,0,0,,1,,,67,127
70414,note_off,254,0,0,,1,,,67,127
70416,note_on,2,0,0,,1,,,71,127
70670,note_off,254,0,0,,1,,,71,127
70672,note_on,2,0,0,,1,,,74,127
70926,note_off,254,0,0,,1,,,74,127
70928,note_on,2,0,0,,1,,,78,127
71182,note_off,254,0,0,,1,,,78,127
71184,note_on,2,0,0,,1,,,79,127
71310,note_off,126,0,0,,1,,,79,127
71312,note_on,2,0,0,,1,,,78,127
71438,note_off,126,0,0,,1,,,78,127
71440,note_on,2,0,0,,1,,,79,127
71440,note_on,0,0,0,,0,,,59,95
71440,note_on,0,0,0,,0,,,62,95
71440,note_on,0,0,0,,0,,,55,95
71694,note_off,254,0,0,,0,,,55,95
71694,note_off,0,0,0,,0,,,62,95
71694,note_off,0,0,0,,0,,,59,95
71694,note_off,0,0,0,,1,,,79,127
71696,note_on,2,0,0,,0,,,71,95
71696,note_on,0,0,0,,0,,,62,95
71696,note_on,0,0,0,,0,,,43,95
71952,note_on,256,0,0,,1,,,67,127
72206,note_off,254,0,0,,1,,,67,127
72206,note_off,0,0,0,,0,,,43,95
72206,note_off,0,0,0,,0,,,62,95
72206,note_off,0,0,0,,0,,,71,95
72208,note_on,2,0,0,,1,,,67,127
72462,note_off,254,0,0,,1,,,67,127
72464,note_on,2,0,0,,1,,,71,127
72718,note_off,254,0,0,,1,,,71,127
72720,note_on,2,0,0,,1,,,74,127
72974,note_off,254,0,0,,1,,,74,127
72976,note_on,2,0,0,,1,,,76,127
73230,note_off,254,0,0,,1,,,76,127
73232,note_on,2,0,0,,1,,,77,127
73358,note_off,126,0,0,,1,,,77,127
73360,note_on,2,0,0,,1,,,76,127
73486,note_off,126,0,0,,1,,,76,127
73488,note_on,2,0,0,,1,,,77,127
73488,note_on,0,0,0,,0,,,74,95
73488,note_on,0,0,0,,0,,,55,95
73742,note_off,254,0,0,,0,,,55,95
73742,note_off,0,0,0,,0,,,74,95
73742,note_off,0,0,0,,1,,,77,127
73744,note_on,2,0,0,,0,,,72,95
73744,note_on,0,0,0,,0,,,57,95
73998,note_off,254,0,0,,0,,,57,95
73998,note_off,0,0,0,,0,,,72,95
74000,note_on,2,0,0,,1,,,77,127
74000,note_on,0,0,0,,0,,,67,95
74000,note_on,0,0,0,,0,,,74,95
74000,note_on,0,0,0,,0,,,59,95
74254,note_off,254,0,0,,0,,,59,95
74254,note_off,0,0,0,,0,,,74,95
74254,note_off,0,0,0,,0,,,67,95
74254,note_off,0,0,0,,1,,,77,127
74256,note_on,2,0,0,,1,,,76,127
74256,note_on,0,0,0,,0,,,67,95
74256,note_on,0,0,0,,0,,,64,95
74256,note_on,0,0,0,,0,,,60,95
74510,note_off,254,0,0,,0,,,60,95
74510,note_off,0,0,0,,0,,,67,95
74512,note_on,2,0,0,,0,,,72,95
74512,note_on,0,0,0,,0,,,52,95
74766,note_off,254,0,0,,0,,,52,95
74766,note_off,0,0,0,,0,,,64,95
74766,note_off,0,0,0,,1,,,76,127
74768,note_on,2,0,0,,1,,,74,127
74768,note_on,0,0,0,,0,,,53,95
75022,note_off,254,0,0,,0,,,53,95
75022,note_off,0,0,0,,0,,,72,95
75024,note_on,2,0,0,,0,,,71,95
75024,note_on,0,0,0,,0,,,65,95
75024,note_on,0,0,0,,0,,,55,95
75278,note_off,254,0,0,,0,,,55,95
75278,note_off,0,0,0,,0,,,65,95
75278,note_off,0,0,0,,0,,,71,95
75278,note_off,0,0,0,,1,,,74,127
75280,note_on,2,0,0,,1,,,72,127
75280,note_on,0,0,0,,0,,,67,95
75280,note_on,0,0,0,,0,,,64,95
75280,note_on,0,0,0,,0,,,48,95
75534,note_off,254,0,0,,1,,,72,127
75536,note_on,2,0,0,,1,,,79,127
75790,note_off,254,0,0,,1,,,79,127
75790,note_off,0,0,0,,0,,,64,95
75790,note_off,0,0,0,,0,,,67,95
75792,note_on,2,0,0,,1,,,70,127
76046,note_off,254,0,0,,0,,,48,95
76048,note_on,2,0,0,,0,,,70,95
76048,note_on,0,0,0,,0,,,65,95
76048,note_on,0,0,0,,0,,,50,95
76302,note_off,254,0,0,,0,,,50,95
76302,note_off,0,0,0,,0,,,65,95
76302,note_off,0,0,0,,0,,,70,95
76304,note_on,2,0,0,,0,,,67,95
76304,note_on,0,0,0,,0,,,60,95
76304,note_on,0,0,0,,0,,,52,95
76558,note_off,254,0,0,,1,,,70,127
76560,note_on,2,0,0,,1,,,76,127
76814,note_off,254,0,0,,1,,,76,127
76814,note_off,0,0,0,,0,,,52,95
76814,note_off,0,0,0,,0,,,60,95
76814,note_off,0,0,0,,0,,,67,95
76816,note_on,2,0,0,,1,,,79,127
76816,note_on,0,0,0,,0,,,64,95
76816,note_on,0,0,0,,0,,,67,95
76816,note_on,0,0,0,,0,,,48,95
77070,note_off,254,0,0,,1,,,79,127
77072,note_on,2,0,0,,1,,,82,127
77326,note_off,254,0,0,,1,,,82,127
77326,note_off,0,0,0,,0,,,48,95
77326,note_off,0,0,0,,0,,,67,95
77326,note_off,0,0,0,,0,,,64,95
77328,note_on,2,0,0,,1,,,81,127
77328,note_on,0,0,0,,0,,,69,95
77328,note_on,0,0,0,,0,,,60,95
77328,note_on,0,0,0,,0,,,53,95
77582,note_off,254,0,0,,1,,,81,127
77584,note_on,2,0,0,,1,,,77,127
77838,note_off,254,0,0,,1,,,77,127
77838,note_off,0,0,0,,0,,,60,95
77838,note_off,0,0,0,,0,,,69,95
77840,note_on,2,0,0,,1,,,65,127
78094,note_off,254,0,0,,0,,,53,95
78096,note_on,2,0,0,,0,,,60,95
78096,note_on,0,0,0,,0,,,58,95
78096,note_on,0,0,0,,0,,,55,95
78350,note_off,254,0,0,,0,,,55,95
78350,note_off,0,0,0,,0,,,58,95
78350,note_off,0,0,0,,0,,,60,95
78352,note_on,2,0,0,,0,,,65,95
78352,note_on,0,0,0,,0,,,60,95
78352,note_on,0,0,0,,0,,,57,95
78606,note_off,254,0,0,,1,,,65,127
78608,note_on,2,0,0,,1,,,69,127
78862,note_off,254,0,0,,1,,,69,127
78862,note_off,0,0,0,,0,,,57,95
78862,note_off,0,0,0,,0,,,60,95
78862,note_off,0,0,0,,0,,,65,95
78864,note_on,2,0,0,,1,,,72,127
78864,note_on,0,0,0,,0,,,69,95
78864,note_on,0,0,0,,0,,,60,95
78864,note_on,0,0,0,,0,,,53,95
79118,note_off,254,0,0,,1,,,72,127
79120,note_on,2,0,0,,1,,,75,127
79374,note_off,254,0,0,,1,,,75,127
79374,note_off,0,0,0,,0,,,53,95
79374,note_off,0,0,0,,0,,,60,95
79374,note_off,0,0,0,,0,,,69,95
79376,note_on,2,0,0,,1,,,74,127
79376,note_on,0,0,0,,0,,,65,95
79376,note_on,0,0,0,,0,,,62,95
79376,note_on,0,0,0,,0,,,58,95
79502,note_off,126,0,0,,1,,,74,127
79504,note_on,2,0,0,,1,,,72,127
79630,note_off,126,0,0,,1,,,72,127
79632,note_on,2,0,0,,1,,,70,127
79886,note_off,254,0,0,,1,,,70,127
79886,note_off,0,0,0,,0,,,58,95
79886,note_off,0,0,0,,0,,,62,95
79886,note_off,0,0,0,,0,,,65,95
79888,note_on,2,0,0,,0,,,70,95
79888,note_on,0,0,0,,0,,,65,95
79888,note_on,0,0,0,,0,,,62,95
79888,note_on,0,0,0,,0,,,46,95
80144,note_on,256,0,0,,1,,,70,127
80398,note_off,254,0,0,,1,,,70,127
80398,note_off,0,0,0,,0,,,46,95
80398,note_off,0,0,0,,0,,,62,95
80398,note_off,0,0,0,,0,,,65,95
80398,note_off,0,0,0,,0,,,70,95
80400,note_on,2,0,0,,1,,,76,127
80654,note_off,254,0,0,,1,,,76,127
80656,note_on,2,0,0,,1,,,76,127
80656,note_on,0,0,0,,0,,,70,95
80656,note_on,0,0,0,,0,,,50,95
80910,note_off,254,0,0,,0,,,50,95
80910,note_off,0,0,0,,0,,,70,95
80910,note_off,0,0,0,,1,,,76,127
80912,note_on,2,0,0,,1,,,76,127
80912,note_on,0,0,0,,0,,,69,95
80912,note_on,0,0,0,,0,,,48,95
81166,note_off,254,0,0,,0,,,48,95
81166,note_off,0,0,0,,0,,,69,95
81166,note_off,0,0,0,,1,,,76,127
81168,note_on,2,0,0,,1,,,76,127
81168,note_on,0,0,0,,0,,,67,95
81168,note_on,0,0,0,,0,,,46,95
81422,note_off,254,0,0,,0,,,46,95
81422,note_off,0,0,0,,0,,,67,95
81422,note_off,0,0,0,,1,,,76,127
81424,note_on,2,0,0,,1,,,76,127
81424,note_on,0,0,0,,0,,,60,95
81424,note_on,0,0,0,,0,,,65,95
81424,note_on,0,0,0,,0,,,45,95
81678,note_off,254,0,0,,1,,,76,127
81680,note_on,2,0,0,,1,,,77,127
81934,note_off,254,0,0,,0,,,45,95
81934,note_off,0,0,0,,0,,,65,95
81934,note_off,0,0,0,,0,,,60,95
81936,note_on,2,0,0,,0,,,72,95
81936,note_on,0,0,0,,0,,,65,95
81936,note_on,0,0,0,,0,,,57,95
82190,note_off,254,0,0,,1,,,77,127
82192,note_on,2,0,0,,1,,,72,127
82446,note_off,254,0,0,,1,,,72,127
82446,note_off,0,0,0,,0,,,57,95
82446,note_off,0,0,0,,0,,,65,95
82446,note_off,0,0,0,,0,,,72,95
82448,note_on,2,0,0,,1,,,78,127
82702,note_off,254,0,0,,1,,,78,127
82704,note_on,2,0,0,,1,,,78,127
82704,note_on,0,0,0,,0,,,72,95
82704,note_on,0,0,0,,0,,,51,95
82958,note_off,254,0,0,,0,,,51,95
82958,note_off,0,0,0,,0,,,72,95
82958,note_off,0,0,0,,1,,,78,127
82960,note_on,2,0,0,,1,,,78,127
82960,note_on,0,0,0,,0,,,70,95
82960,note_on,0,0,0,,0,,,50,95
83214,note_off,254,0,0,,0,,,50,95
83214,note_off,0,0,0,,0,,,70,95
83214,note_off,0,0,0,,1,,,78,127
83216,note_on,2,0,0,,1,,,78,127
83216,note_on,0,0,0,,0,,,69,95
83216,note_on,0,0,0,,0,,,48,95
83470,note_off,254,0,0,,0,,,48,95
83470,note_off,0,0,0,,0,,,69,95
83470,note_off,0,0,0,,1,,,78,127
83472,note_on,2,0,0,,1,,,78,127
83472,note_on,0,0,0,,0,,,62,95
83472,note_on,0,0,0,,0,,,67,95
83472,note_on,0,0,0,,0,,,46,95
83726,note_off,254,0,0,,1,,,78,127
83728,note_on,2,0,0,,1,,,79,127
83982,note_off,254,0,0,,1,,,79,127
83982,note_off,0,0,0,,0,,,46,95
83982,note_off,0,0,0,,0,,,67,95
83982,note_off,0,0,0,,0,,,62,95
83984,note_on,2,0,0,,0,,,74,95
83984,note_on,0,0,0,,0,,,67,95
83984,note_on,0,0,0,,0,,,58,95
84240,note_on,256,0,0,,1,,,67,127
84494,note_off,254,0,0,,1,,,67,127
84494,note_off,0,0,0,,0,,,58,95
84494,note_off,0,0,0,,0,,,67,95
84494,note_off,0,0,0,,0,,,74,95
84496,note_on,2,0,0,,1,,,73,127
84750,note_off,254,0,0,,1,,,73,127
84752,note_on,2,0,0,,1,,,73,127
84752,note_on,0,0,0,,0,,,67,95
84752,note_on,0,0,0,,0,,,58,95
85006,note_off,254,0,0,,0,,,58,95
85006,note_off,0,0,0,,0,,,67,95
85006,note_off,0,0,0,,1,,,73,127
85008,note_on,2,0,0,,1,,,73,127
85008,note_on,0,0,0,,0,,,65,95
85008,note_on,0,0,0,,0,,,57,95
85262,note_off,254,0,0,,0,,,57,95
85262,note_off,0,0,0,,0,,,65,95
85262,note_off,0,0,0,,1,,,73,127
85264,note_on,2,0,0,,1,,,73,127
85264,note_on,0,0,0,,0,,,64,95
85264,note_on,0,0,0,,0,,,55,95
85518,note_off,254,0,0,,0,,,55,95
85518,note_off,0,0,0,,0,,,64,95
85518,note_off,0,0,0,,1,,,73,127
85520,note_on,2,0,0,,1,,,73,127
85520,note_on,0,0,0,,0,,,69,95
85520,note_on,0,0,0,,0,,,62,95
85520,note_on,0,0,0,,0,,,53,95
85774,note_off,254,0,0,,1,,,73,127
85776,note_on,2,0,0,,1,,,74,127
86030,note_off,254,0,0,,1,,,74,127
86030,note_off,0,0,0,,0,,,53,95
86030,note_off,0,0,0,,0,,,62,95
86030,note_off,0,0,0,,0,,,69,95
86032,note_on,2,0,0,,0,,,69,95
86032,note_on,0,0,0,,0,,,62,95
86032,note_on,0,0,0,,0,,,41,95
86288,note_on,256,0,0,,1,,,74,127
86542,note_off,254,0,0,,1,,,74,127
86542,note_off,0,0,0,,0,,,41,95
86542,note_off,0,0,0,,0,,,62,95
86542,note_off,0,0,0,,0,,,69,95
86544,note_on,2,0,0,,1,,,80,127
86798,note_off,254,0,0,,1,,,80,127
86800,note_on,2,0,0,,1,,,80,127
86800,note_on,0,0,0,,0,,,74,95
86800,note_on,0,0,0,,0,,,53,95
87054,note_off,254,0,0,,0,,,53,95
87054,note_off,0,0,0,,0,,,74,95
87054,note_off,0,0,0,,1,,,80,127
87056,note_on,2,0,0,,1,,,80,127
87056,note_on,0,0,0,,0,,,72,95
87056,note_on,0,0,0,,0,,,52,95
87310,note_off,254,0,0,,0,,,52,95
87310,note_off,0,0,0,,0,,,72,95
87310,note_off,0,0,0,,1,,,80,127
87312,note_on,2,0,0,,1,,,80,127
87312,note_on,0,0,0,,0,,,71,95
87312,note_on,0,0,0,,0,,,50,95
87566,note_off,254,0,0,,0,,,50,95
87566,note_off,0,0,0,,0,,,71,95
87566,note_off,0,0,0,,1,,,80,127
87568,note_on,2,0,0,,1,,,80,127
87568,note_on,0,0,0,,0,,,64,95
87568,note_on,0,0,0,,0,,,69,95
87568,note_on,0,0,0,,0,,,49,95
87822,note_off,254,0,0,,1,,,80,127
87824,note_on,2,0,0,,1,,,81,127
88078,note_off,254,0,0,,0,,,49,95
88078,note_off,0,0,0,,0,,,69,95
88078,note_off,0,0,0,,0,,,64,95
88080,note_on,2,0,0,,0,,,64,95
88080,note_on,0,0,0,,0,,,73,95
88080,note_on,0,0,0,,0,,,45,95
88334,note_off,254,0,0,,1,,,81,127
88336,note_on,2,0,0,,1,,,79,127
88590,note_off,254,0,0,,1,,,79,127
88590,note_off,0,0,0,,0,,,45,95
88590,note_off,0,0,0,,0,,,73,95
88590,note_off,0,0,0,,0,,,64,95
88592,note_on,2,0,0,,1,,,77,127
88592,note_on,0,0,0,,0,,,74,95
88592,note_on,0,0,0,,0,,,65,95
88592,note_on,0,0,0,,0,,,69,95
88592,note_on,0,0,0,,0,,,50,95
88846,note_off,254,0,0,,1,,,77,127
88848,note_on,2,0,0,,1,,,76,127
89102,note_off,254,0,0,,1,,,76,127
89102,note_off,0,0,0,,0,,,50,95
89102,note_off,0,0,0,,0,,,65,95
89102,note_off,0,0,0,,0,,,74,95
89104,note_on,2,0,0,,1,,,76,127
89104,note_on,0,0,0,,0,,,70,95
89104,note_on,0,0,0,,0,,,62,95
89104,note_on,0,0,0,,0,,,55,95
89358,note_off,254,0,0,,1,,,76,127
89360,note_on,2,0,0,,1,,,74,127
89614,note_off,254,0,0,,1,,,74,127
89614,note_off,0,0,0,,0,,,55,95
89614,note_off,0,0,0,,0,,,62,95
89614,note_off,0,0,0,,0,,,70,95
89614,note_off,0,0,0,,0,,,69,95
89616,note_on,2,0,0,,1,,,73,127
89742,note_off,126,0,0,,1,,,73,127
89744,note_on,2,0,0,,1,,,71,127
89870,note_off,126,0,0,,1,,,71,127
89872,note_on,2,0,0,,1,,,69,127
89872,note_on,0,0,0,,0,,,61,95
89872,note_on,0,0,0,,0,,,64,95
89872,note_on,0,0,0,,0,,,57,95
90126,note_off,254,0,0,,0,,,57,95
90126,note_off,0,0,0,,0,,,64,95
90126,note_off,0,0,0,,0,,,61,95
90126,note_off,0,0,0,,1,,,69,127
90128,note_on,2,0,0,,0,,,73,95
90128,note_on,0,0,0,,0,,,64,95
90128,note_on,0,0,0,,0,,,45,95
90382,note_off,254,0,0,,0,,,45,95
90382,note_off,0,0,0,,0,,,64,95
90382,note_off,0,0,0,,0,,,73,95
90400,note_on,18,0,0,,1,,,69,127
90654,note_off,254,0,0,,1,,,69,127
90656,note_on,2,0,0,,1,,,69,127
90910,note_off,254,0,0,,1,,,69,127
90912,note_on,2,0,0,,1,,,73,127
91166,note_off,254,0,0,,1,,,73,127
91168,note_on,2,0,0,,1,,,76,127
91422,note_off,254,0,0,,1,,,76,127
91424,note_on,2,0,0,,1,,,79,127
91678,note_off,254,0,0,,1,,,79,127
91680,note_on,2,0,0,,1,,,77,127
91934,note_off,254,0,0,,1,,,77,127
91936,note_on,2,0,0,,0,,,57,95
91936,note_on,0,0,0,,0,,,61,95
91936,note_on,0,0,0,,0,,,64,95
91936,note_on,0,0,0,,1,,,76,127
92190,note_off,254,0,0,,1,,,76,127
92190,note_off,0,0,0,,0,,,64,95
92190,note_off,0,0,0,,0,,,61,95
92190,note_off,0,0,0,,0,,,57,95
92192,note_on,2,0,0,,0,,,45,95
92192,note_on,0,0,0,,0,,,64,95
92192,note_on,0,0,0,,0,,,73,95
92448,note_on,256,0,0,,1,,,67,127
92574,note_off,126,0,0,,0,,,73,95
92574,note_off,0,0,0,,0,,,64,95
92574,note_off,0,0,0,,0,,,45,95
92702,note_off,128,0,0,,1,,,67,127
92704,note_on,2,0,0,,1,,,67,127
92958,note_off,254,0,0,,1,,,67,127
92960,note_on,2,0,0,,1,,,70,127
93214,note_off,254,0,0,,1,,,70,127
93216,note_on,2,0,0,,1,,,73,127
93470,note_off,254,0,0,,1,,,73,127
93472,note_on,2,0,0,,1,,,76,127
93726,note_off,254,0,0,,1,,,76,127
93728,note_on,2,0,0,,1,,,74,127
93982,note_off,254,0,0,,1,,,74,127
93984,note_on,2,0,0,,0,,,57,95
93984,note_on,0,0,0,,0,,,61,95
93984,note_on,0,0,0,,0,,,64,95
93984,note_on,0,0,0,,1,,,73,127
94238,note_off,254,0,0,,1,,,73,127
94238,note_off,0,0,0,,0,,,64,95
94238,note_off,0,0,0,,0,,,61,95
94238,note_off,0,0,0,,0,,,57,95
94240,note_on,2,0,0,,0,,,45,95
94240,note_on,0,0,0,,0,,,64,95
94240,note_on,0,0,0,,0,,,61,95
94496,note_on,256,0,0,,1,,,76,127
94750,note_off,254,0,0,,1,,,76,127
94750,note_off,0,0,0,,0,,,61,95
94750,note_off,0,0,0,,0,,,64,95
94750,note_off,0,0,0,,0,,,45,95
94752,note_on,2,0,0,,1,,,74,127
95006,note_off,254,0,0,,1,,,74,127
95008,note_on,2,0,0,,0,,,57,95
95008,note_on,0,0,0,,0,,,64,95
95008,note_on,0,0,0,,0,,,67,95
95008,note_on,0,0,0,,1,,,73,127
95262,note_off,254,0,0,,1,,,73,127
95262,note_off,0,0,0,,0,,,57,95
95264,note_on,2,0,0,,0,,,45,95
95264,note_on,0,0,0,,0,,,73,95
95520,note_on,256,0,0,,1,,,79,127
95774,note_off,254,0,0,,1,,,79,127
95774,note_off,0,0,0,,0,,,73,95
95774,note_off,0,0,0,,0,,,45,95
95774,note_off,0,0,0,,0,,,67,95
95774,note_off,0,0,0,,0,,,64,95
95776,note_on,2,0,0,,1,,,77,127
96030,note_off,254,0,0,,1,,,77,127
96032,note_on,2,0,0,,0,,,57,95
96032,note_on,0,0,0,,0,,,64,95
96032,note_on,0,0,0,,1,,,76,127
96286,note_off,254,0,0,,1,,,76,127
96286,note_off,0,0,0,,0,,,57,95
96288,note_on,2,0,0,,0,,,45,95
96288,note_on,0,0,0,,0,,,73,95
96542,note_off,254,0,0,,0,,,73,95
96542,note_off,0,0,0,,0,,,45,95
96542,note_off,0,0,0,,0,,,64,95
96544,note_on,2,0,0,,0,,,53,95
96544,note_on,0,0,0,,0,,,69,95
96544,note_on,0,0,0,,0,,,62,95
96544,note_on,0,0,0,,1,,,81,127
96798,note_off,254,0,0,,1,,,81,127
96798,note_off,0,0,0,,0,,,62,95
96798,note_off,0,0,0,,0,,,69,95
96798,note_off,0,0,0,,0,,,53,95
96800,note_on,2,0,0,,0,,,55,95
96800,note_on,0,0,0,,0,,,62,95
96800,note_on,0,0,0,,0,,,70,95
96800,note_on,0,0,0,,0,,,67,95
96800,note_on,0,0,0,,1,,,82,127
97054,note_off,254,0,0,,1,,,82,127
97056,note_on,2,0,0,,1,,,79,127
97310,note_off,254,0,0,,1,,,79,127
97310,note_off,0,0,0,,0,,,62,95
97310,note_off,0,0,0,,0,,,55,95
97312,note_on,2,0,0,,0,,,43,95
97312,note_on,0,0,0,,1,,,76,127
97566,note_off,254,0,0,,1,,,76,127
97566,note_off,0,0,0,,0,,,43,95
97566,note_off,0,0,0,,0,,,67,95
97566,note_off,0,0,0,,0,,,70,95
97568,note_on,2,0,0,,0,,,55,95
97568,note_on,0,0,0,,0,,,70,95
97568,note_on,0,0,0,,1,,,74,127
97822,note_off,254,0,0,,1,,,74,127
97822,note_off,0,0,0,,0,,,70,95
97822,note_off,0,0,0,,0,,,55,95
97824,note_on,2,0,0,,0,,,57,95
97824,note_on,0,0,0,,0,,,64,95
97824,note_on,0,0,0,,0,,,61,95
97824,note_on,0,0,0,,1,,,73,127
98078,note_off,254,0,0,,1,,,73,127
98080,note_on,2,0,0,,1,,,70,127
98334,note_off,254,0,0,,1,,,70,127
98334,note_off,0,0,0,,0,,,61,95
98334,note_off,0,0,0,,0,,,64,95
98334,note_off,0,0,0,,0,,,57,95
98336,note_on,2,0,0,,1,,,69,127
98590,note_off,254,0,0,,1,,,69,127
98592,note_on,2,0,0,,0,,,61,95
98592,note_on,0,0,0,,0,,,64,95
98592,note_on,0,0,0,,0,,,69,95
98592,note_on,0,0,0,,1,,,79,127
98846,note_off,254,0,0,,1,,,79,127
98846,note_off,0,0,0,,0,,,69,95
98846,note_off,0,0,0,,0,,,64,95
98846,note_off,0,0,0,,0,,,61,95
98848,note_on,2,0,0,,0,,,62,95
98848,note_on,0,0,0,,0,,,65,95
98848,note_on,0,0,0,,0,,,69,95
98848,note_on,0,0,0,,1,,,77,127
99102,note_off,254,0,0,,0,,,69,95
99102,note_off,0,0,0,,0,,,62,95
99104,note_on,2,0,0,,0,,,53,95
99104,note_on,0,0,0,,0,,,74,95
99358,note_off,254,0,0,,0,,,53,95
99358,note_off,0,0,0,,1,,,77,127
99358,note_off,0,0,0,,0,,,65,95
99360,note_on,2,0,0,,0,,,55,95
99360,note_on,0,0,0,,0,,,64,95
99360,note_on,0,0,0,,1,,,76,127
99614,note_off,254,0,0,,0,,,55,95
99614,note_off,0,0,0,,0,,,74,95
99616,note_on,2,0,0,,0,,,57,95
99616,note_on,0,0,0,,0,,,73,95
99870,note_off,254,0,0,,0,,,73,95
99870,note_off,0,0,0,,0,,,57,95
99870,note_off,0,0,0,,1,,,76,127
99870,note_off,0,0,0,,0,,,64,95
99872,note_on,2,0,0,,0,,,50,95
99872,note_on,0,0,0,,0,,,65,95
99872,note_on,0,0,0,,0,,,69,95
99872,note_on,0,0,0,,0,,,74,95
99872,note_on,0,0,0,,1,,,74,127
100126,note_off,254,0,0,,0,,,50,95
100128,note_on,2,0,0,,0,,,38,95
100382,note_off,254,0,0,,0,,,38,95
100382,note_off,0,0,0,,1,,,74,127
100382,note_off,0,0,0,,0,,,74,95
100382,note_off,0,0,0,,0,,,69,95
100382,note_off,0,0,0,,0,,,65,95
100384,note_on,2,0,0,,0,,,50,95
100384,note_on,0,0,0,,0,,,65,95
100384,note_on,0,0,0,,0,,,62,95
100640,note_on,256,0,0,,1,,,74,127
100894,note_off,254,0,0,,1,,,74,127
100894,note_off,0,0,0,,0,,,62,95
100894,note_off,0,0,0,,0,,,65,95
100894,note_off,0,0,0,,0,,,50,95
100896,note_on,2,0,0,,1,,,68,127
101150,note_off,254,0,0,,1,,,68,127
101152,note_on,2,0,0,,0,,,53,95
101152,note_on,0,0,0,,0,,,62,95
101152,note_on,0,0,0,,1,,,68,127
101406,note_off,254,0,0,,1,,,68,127
101406,note_off,0,0,0,,0,,,62,95
101406,note_off,0,0,0,,0,,,53,95
101408,note_on,2,0,0,,0,,,52,95
101408,note_on,0,0,0,,0,,,64,95
101408,note_on,0,0,0,,1,,,68,127
101662,note_off,254,0,0,,1,,,68,127
101662,note_off,0,0,0,,0,,,64,95
101662,note_off,0,0,0,,0,,,52,95
101664,note_on,2,0,0,,0,,,50,95
101664,note_on,0,0,0,,0,,,65,95
101664,note_on,0,0,0,,1,,,68,127
101918,note_off,254,0,0,,1,,,68,127
101918,note_off,0,0,0,,0,,,65,95
101918,note_off,0,0,0,,0,,,50,95
101920,note_on,2,0,0,,0,,,49,95
101920,note_on,0,0,0,,0,,,64,95
101920,note_on,0,0,0,,0,,,69,95
101920,note_on,0,0,0,,1,,,69,127
102174,note_off,254,0,0,,1,,,69,127
102176,note_on,2,0,0,,1,,,81,127
102430,note_off,254,0,0,,0,,,64,95
102430,note_off,0,0,0,,0,,,49,95
102432,note_on,2,0,0,,0,,,45,95
102432,note_on,0,0,0,,0,,,64,95
102432,note_on,0,0,0,,0,,,73,95
102686,note_off,254,0,0,,1,,,81,127
102688,note_on,2,0,0,,1,,,79,127
102942,note_off,254,0,0,,1,,,79,127
102942,note_off,0,0,0,,0,,,73,95
102942,note_off,0,0,0,,0,,,64,95
102942,note_off,0,0,0,,0,,,45,95
102942,note_off,0,0,0,,0,,,69,95
102944,note_on,2,0,0,,0,,,50,95
102944,note_on,0,0,0,,0,,,65,95
102944,note_on,0,0,0,,0,,,69,95
102944,note_on,0,0,0,,1,,,77,127
103198,note_off,254,0,0,,1,,,77,127
103200,note_on,2,0,0,,1,,,76,127
103454,note_off,254,0,0,,1,,,76,127
103454,note_off,0,0,0,,0,,,69,95
103454,note_off,0,0,0,,0,,,65,95
103454,note_off,0,0,0,,0,,,50,95
103456,note_on,2,0,0,,0,,,55,95
103456,note_on,0,0,0,,0,,,64,95
103456,note_on,0,0,0,,0,,,70,95
103456,note_on,0,0,0,,1,,,76,127
103710,note_off,254,0,0,,1,,,76,127
103712,note_on,2,0,0,,1,,,74,127
103966,note_off,254,0,0,,1,,,74,127
103966,note_off,0,0,0,,0,,,70,95
103966,note_off,0,0,0,,0,,,64,95
103966,note_off,0,0,0,,0,,,55,95
103968,note_on,2,0,0,,1,,,73,127
104094,note_off,126,0,0,,1,,,73,127
104096,note_on,2,0,0,,1,,,71,127
104222,note_off,126,0,0,,1,,,71,127
104224,note_on,2,0,0,,0,,,57,95
104224,note_on,0,0,0,,0,,,64,95
104224,note_on,0,0,0,,0,,,61,95
104224,note_on,0,0,0,,1,,,69,127
104478,note_off,254,0,0,,0,,,61,95
104478,note_off,0,0,0,,0,,,64,95
104478,note_off,0,0,0,,0,,,57,95
104480,note_on,2,0,0,,0,,,45,95
104480,note_on,0,0,0,,0,,,64,95
104480,note_on,0,0,0,,0,,,73,95
104734,note_off,254,0,0,,1,,,69,127
104736,note_on,2,0,0,,1,,,69,127
104990,note_off,254,0,0,,1,,,69,127
104990,note_off,0,0,0,,0,,,73,95
104990,note_off,0,0,0,,0,,,64,95
104990,note_off,0,0,0,,0,,,45,95
104992,note_on,2,0,0,,1,,,69,127
105246,note_off,254,0,0,,1,,,69,127
105248,note_on,2,0,0,,1,,,73,127
105502,note_off,254,0,0,,1,,,73,127
105504,note_on,2,0,0,,1,,,76,127
105758,note_off,254,0,0,,1,,,76,127
105760,note_on,2,0,0,,1,,,79,127
106014,note_off,254,0,0,,1,,,79,127
106016,note_on,2,0,0,,1,,,77,127
106270,note_off,254,0,0,,1,,,77,127
106272,note_on,2,0,0,,0,,,57,95
106272,note_on,0,0,0,,0,,,61,95
106272,note_on,0,0,0,,0,,,64,95
106272,note_on,0,0,0,,1,,,76,127
106526,note_off,254,0,0,,1,,,76,127
106526,note_off,0,0,0,,0,,,64,95
106526,note_off,0,0,0,,0,,,57,95
106528,note_on,2,0,0,,0,,,45,95
106528,note_on,0,0,0,,0,,,64,95
106528,note_on,0,0,0,,0,,,73,95
106784,note_on,256,0,0,,1,,,67,127
107038,note_off,254,0,0,,1,,,67,127
107038,note_off,0,0,0,,0,,,73,95
107038,note_off,0,0,0,,0,,,64,95
107038,note_off,0,0,0,,0,,,45,95
107038,note_off,0,0,0,,0,,,61,95
107040,note_on,2,0,0,,1,,,67,127
107294,note_off,254,0,0,,1,,,67,127
107296,note_on,2,0,0,,1,,,70,127
107550,note_off,254,0,0,,1,,,70,127
107552,note_on,2,0,0,,1,,,73,127
107806,note_off,254,0,0,,1,,,73,127
107808,note_on,2,0,0,,1,,,76,127
108062,note_off,254,0,0,,1,,,76,127
108064,note_on,2,0,0,,1,,,74,127
108318,note_off,254,0,0,,1,,,74,127
108320,note_on,2,0,0,,0,,,57,95
108320,note_on,0,0,0,,0,,,61,95
108320,note_on,0,0,0,,0,,,64,95
108320,note_on,0,0,0,,1,,,73,127
108574,note_off,254,0,0,,1,,,73,127
108574,note_off,0,0,0,,0,,,64,95
108574,note_off,0,0,0,,0,,,61,95
108574,note_off,0,0,0,,0,,,57,95
108576,note_on,2,0,0,,0,,,45,95
108576,note_on,0,0,0,,0,,,64,95
108576,note_on,0,0,0,,0,,,61,95
108832,note_on,256,0,0,,1,,,76,127
109086,note_off,254,0,0,,1,,,76,127
109086,note_off,0,0,0,,0,,,61,95
109086,note_off,0,0,0,,0,,,64,95
109086,note_off,0,0,0,,0,,,45,95
109088,note_on,2,0,0,,1,,,74,127
109342,note_off,254,0,0,,1,,,74,127
109344,note_on,2,0,0,,0,,,57,95
109344,note_on,0,0,0,,0,,,64,95
109344,note_on,0,0,0,,0,,,67,95
109344,note_on,0,0,0,,1,,,73,127
109598,note_off,254,0,0,,1,,,73,127
109598,note_off,0,0,0,,0,,,64,95
109598,note_off,0,0,0,,0,,,57,95
109600,note_on,2,0,0,,0,,,45,95
109600,note_on,0,0,0,,0,,,64,95
109600,note_on,0,0,0,,0,,,73,95
109856,note_on,256,0,0,,1,,,79,127
110110,note_off,254,0,0,,1,,,79,127
110110,note_off,0,0,0,,0,,,73,95
110110,note_off,0,0,0,,0,,,64,95
110110,note_off,0,0,0,,0,,,45,95
110110,note_off,0,0,0,,0,,,67,95
110112,note_on,2,0,0,,1,,,77,127
110366,note_off,254,0,0,,1,,,77,127
110368,note_on,2,0,0,,0,,,57,95
110368,note_on,0,0,0,,0,,,64,95
110368,note_on,0,0,0,,1,,,76,127
110622,note_off,254,0,0,,1,,,76,127
110622,note_off,0,0,0,,0,,,57,95
110624,note_on,2,0,0,,0,,,45,95
110624,note_on,0,0,0,,0,,,73,95
110878,note_off,254,0,0,,0,,,73,95
110878,note_off,0,0,0,,0,,,45,95
110878,note_off,0,0,0,,0,,,64,95
110880,note_on,2,0,0,,0,,,53,95
110880,note_on,0,0,0,,0,,,62,95
110880,note_on,0,0,0,,0,,,69,95
110880,note_on,0,0,0,,1,,,81,127
111134,note_off,254,0,0,,1,,,81,127
111134,note_off,0,0,0,,0,,,69,95
111134,note_off,0,0,0,,0,,,62,95
111134,note_off,0,0,0,,0,,,53,95
111136,note_on,2,0,0,,0,,,55,95
111136,note_on,0,0,0,,0,,,62,95
111136,note_on,0,0,0,,0,,,70,95
111136,note_on,0,0,0,,1,,,82,127
111390,note_off,254,0,0,,1,,,82,127
111392,note_on,2,0,0,,1,,,79,127
111646,note_off,254,0,0,,1,,,79,127
111646,note_off,0,0,0,,0,,,62,95
111646,note_off,0,0,0,,0,,,55,95
111648,note_on,2,0,0,,0,,,43,95
111648,note_on,0,0,0,,1,,,76,127
111902,note_off,254,0,0,,1,,,76,127
111902,note_off,0,0,0,,0,,,43,95
111902,note_off,0,0,0,,0,,,70,95
111904,note_on,2,0,0,,0,,,55,95
111904,note_on,0,0,0,,0,,,70,95
111904,note_on,0,0,0,,1,,,74,127
112158,note_off,254,0,0,,1,,,74,127
112158,note_off,0,0,0,,0,,,70,95
112158,note_off,0,0,0,,0,,,55,95
112160,note_on,2,0,0,,0,,,57,95
112160,note_on,0,0,0,,0,,,64,95
112160,note_on,0,0,0,,0,,,69,95
112160,note_on,0,0,0,,1,,,73,127
112414,note_off,254,0,0,,1,,,73,127
112416,note_on,2,0,0,,1,,,70,127
112670,note_off,254,0,0,,1,,,70,127
112670,note_off,0,0,0,,0,,,69,95
112670,note_off,0,0,0,,0,,,64,95
112670,note_off,0,0,0,,0,,,57,95
112672,note_on,2,0,0,,1,,,69,127
112926,note_off,254,0,0,,1,,,69,127
112928,note_on,2,0,0,,0,,,61,95
112928,note_on,0,0,0,,0,,,69,95
112928,note_on,0,0,0,,0,,,64,95
112928,note_on,0,0,0,,1,,,79,127
113182,note_off,254,0,0,,1,,,79,127
113182,note_off,0,0,0,,0,,,64,95
113182,note_off,0,0,0,,0,,,69,95
113182,note_off,0,0,0,,0,,,61,95
113184,note_on,2,0,0,,0,,,62,95
113184,note_on,0,0,0,,0,,,65,95
113184,note_on,0,0,0,,0,,,69,95
113184,note_on,0,0,0,,1,,,77,127
113447,note_off,263,0,0,,0,,,69,95
113447,note_off,0,0,0,,0,,,62,95
113449,note_on,2,0,0,,0,,,53,95
113449,note_on,0,0,0,,0,,,74,95
113712,note_off,263,0,0,,0,,,53,95
113712,note_off,0,0,0,,1,,,77,127
113712,note_off,0,0,0,,0,,,65,95
113714,note_on,2,0,0,,0,,,55,95
113714,note_on,0,0,0,,0,,,64,95
113714,note_on,0,0,0,,1,,,76,127
113977,note_off,263,0,0,,0,,,55,95
113977,note_off,0,0,0,,0,,,74,95
113979,note_on,2,0,0,,0,,,57,95
113979,note_on,0,0,0,,0,,,73,95
114242,note_off,263,0,0,,0,,,73,95
114242,note_off,0,0,0,,0,,,57,95
114242,note_off,0,0,0,,1,,,76,127
114242,note_off,0,0,0,,0,,,64,95
114260,note_on,18,0,0,,1,,,74,127
114260,note_on,0,0,0,,0,,,65,95
114260,note_on,0,0,0,,0,,,69,95
114260,note_on,0,0,0,,0,,,50,95
114536,note_off,276,0,0,,0,,,50,95
114536,note_off,0,0,0,,0,,,69,95
114536,note_off,0,0,0,,0,,,65,95
114536,note_off,0,0,0,,1,,,74,127
114538,note_on,2,0,0,,1,,,72,127
114538,note_on,0,0,0,,0,,,67,95
114538,note_on,0,0,0,,0,,,52,95
114675,note_off,137,0,0,,1,,,72,127
114677,note_on,2,0,0,,1,,,70,127
114814,note_off,137,0,0,,1,,,70,127
114814,note_off,0,0,0,,0,,,52,95
114814,note_off,0,0,0,,0,,,67,95
114816,note_on,2,0,0,,1,,,69,127
114816,note_on,0,0,0,,0,,,69,95
114816,note_on,0,0,0,,0,,,53,95
115092,note_off,276,0,0,,0,,,53,95
115092,note_off,0,0,0,,0,,,69,95
115092,note_off,0,0,0,,1,,,69,127
115094,note_on,2,0,0,,1,,,67,127
115094,note_on,0,0,0,,0,,,70,95
115094,note_on,0,0,0,,0,,,55,95
115370,note_off,276,0,0,,0,,,55,95
115370,note_off,0,0,0,,0,,,70,95
115370,note_off,0,0,0,,1,,,67,127
115372,note_on,2,0,0,,1,,,65,127
115372,note_on,0,0,0,,0,,,69,95
115372,note_on,0,0,0,,0,,,65,95
115372,note_on,0,0,0,,0,,,62,95
115372,note_on,0,0,0,,0,,,57,95
116010,note_off,638,0,0,,0,,,57,95
116010,note_off,0,0,0,,0,,,62,95
116010,note_off,0,0,0,,0,,,65,95
116010,note_off,0,0,0,,0,,,69,95
116010,note_off,0,0,0,,1,,,65,127
116012,note_on,2,0,0,,1,,,64,127
116012,note_on,0,0,0,,0,,,69,95
116012,note_on,0,0,0,,0,,,64,95
116012,note_on,0,0,0,,0,,,61,95
116012,note_on,0,0,0,,0,,,45,95
116650,note_off,638,0,0,,0,,,45,95
116650,note_off,0,0,0,,0,,,61,95
116650,note_off,0,0,0,,0,,,64,95
116650,note_off,0,0,0,,0,,,69,95
116650,note_off,0,0,0,,1,,,64,127
116668,note_on,18,0,0,,0,,,50,95
116668,note_on,0,0,0,,0,,,62,95
116668,note_on,0,0,0,,0,,,65,95
116668,note_on,0,0,0,,0,,,69,95
116668,note_on,0,0,0,,1,,,62,127
118266,note_off,1598,0,0,,1,,,62,127
118266,note_off,0,0,0,,0,,,69,95
118266,note_off,0,0,0,,0,,,65,95
118266,note_off,0,0,0,,0,,,62,95
118266,note_off,0,0,0,,0,,,50,95
119868,note_on,1602,0,0,,0,,,50,95
119868,note_on,0,0,0,,0,,,65,95
119868,note_on,0,0,0,,0,,,69,95
119868,note_on,0,0,0,,0,,,62,95
120217,note_on,349,0,0,,1,,,65,127
120564,note_off,347,0,0,,1,,,65,127
120564,note_off,0,0,0,,0,,,50,95
120566,note_on,2,0,0,,0,,,50,95
120566,note_on,0,0,0,,1,,,69,127
120913,note_off,347,0,0,,1,,,69,127
120915,note_on,2,0,0,,1,,,74,127
121262,note_off,347,0,0,,1,,,74,127
121262,note_off,0,0,0,,0,,,50,95
121264,note_on,2,0,0,,0,,,50,95
121264,note_on,0,0,0,,1,,,77,127
121611,note_off,347,0,0,,1,,,77,127
121613,note_on,2,0,0,,1,,,81,127
121960,note_off,347,0,0,,1,,,81,127
121960,note_off,0,0,0,,0,,,50,95
121960,note_off,0,0,0,,0,,,62,95
121960,note_off,0,0,0,,0,,,69,95
121960,note_off,0,0,0,,0,,,65,95
121962,note_on,2,0,0,,0,,,52,95
121962,note_on,0,0,0,,0,,,67,95
121962,note_on,0,0,0,,0,,,73,95
122311,note_on,349,0,0,,1,,,67,127
122658,note_off,347,0,0,,1,,,67,127
122658,note_off,0,0,0,,0,,,52,95
122660,note_on,2,0,0,,0,,,52,95
122660,note_on,0,0,0,,1,,,70,127
123007,note_off,347,0,0,,1,,,70,127
123009,note_on,2,0,0,,1,,,73,127
123356,note_off,347,0,0,,1,,,73,127
123356,note_off,0,0,0,,0,,,52,95
123358,note_on,2,0,0,,0,,,52,95
123358,note_on,0,0,0,,1,,,76,127
123705,note_off,347,0,0,,1,,,76,127
123707,note_on,2,0,0,,1,,,79,127
124054,note_off,347,0,0,,1,,,79,127
124054,note_off,0,0,0,,0,,,52,95
124054,note_off,0,0,0,,0,,,73,95
124054,note_off,0,0,0,,0,,,67,95
124056,note_on,2,0,0,,0,,,53,95
124056,note_on,0,0,0,,0,,,69,95
124056,note_on,0,0,0,,0,,,74,95
124056,note_on,0,0,0,,0,,,62,95
124405,note_on,349,0,0,,1,,,62,127
124752,note_off,347,0,0,,1,,,62,127
124752,note_off,0,0,0,,0,,,53,95
124754,note_on,2,0,0,,0,,,53,95
124754,note_on,0,0,0,,1,,,65,127
125101,note_off,347,0,0,,1,,,65,127
125103,note_on,2,0,0,,1,,,69,127
125450,note_off,347,0,0,,1,,,69,127
125450,note_off,0,0,0,,0,,,53,95
125452,note_on,2,0,0,,0,,,53,95
125452,note_on,0,0,0,,1,,,74,127
125799,note_off,347,0,0,,1,,,74,127
125801,note_on,2,0,0,,1,,,77,127
126148,note_off,347,0,0,,1,,,77,127
126148,note_off,0,0,0,,0,,,53,95
126148,note_off,0,0,0,,0,,,62,95
126148,note_off,0,0,0,,0,,,74,95
126148,note_off,0,0,0,,0,,,69,95
126150,note_on,2,0,0,,0,,,55,95
126150,note_on,0,0,0,,0,,,70,95
126150,note_on,0,0,0,,0,,,74,95
126150,note_on,0,0,0,,0,,,62,95
126499,note_on,349,0,0,,1,,,82,127
126846,note_off,347,0,0,,1,,,82,127
126846,note_off,0,0,0,,0,,,55,95
126848,note_on,2,0,0,,0,,,55,95
126848,note_on,0,0,0,,1,,,81,127
127195,note_off,347,0,0,,1,,,81,127
127197,note_on,2,0,0,,1,,,79,127
127544,note_off,347,0,0,,1,,,79,127
127544,note_off,0,0,0,,0,,,55,95
127546,note_on,2,0,0,,0,,,55,95
127546,note_on,0,0,0,,1,,,77,127
127893,note_off,347,0,0,,1,,,77,127
127895,note_on,2,0,0,,1,,,76,127
128242,note_off,347,0,0,,1,,,76,127
128242,note_off,0,0,0,,0,,,55,95
128242,note_off,0,0,0,,0,,,62,95
128242,note_off,0,0,0,,0,,,74,95
128242,note_off,0,0,0,,0,,,70,95
128244,note_on,2,0,0,,0,,,57,95
128244,note_on,0,0,0,,0,,,65,95
128244,note_on,0,0,0,,0,,,69,95
128244,note_on,0,0,0,,1,,,74,127
128940,note_off,696,0,0,,1,,,74,127
128940,note_off,0,0,0,,0,,,69,95
128940,note_off,0,0,0,,0,,,65,95
128940,note_off,0,0,0,,0,,,57,95
128942,note_on,2,0,0,,0,,,45,95
128942,note_on,0,0,0,,0,,,64,95
128942,note_on,0,0,0,,0,,,69,95
128942,note_on,0,0,0,,1,,,73,127
129638,note_off,696,0,0,,0,,,69,95
129638,note_off,0,0,0,,0,,,64,95
129638,note_off,0,0,0,,0,,,45,95
129640,note_on,2,0,0,,0,,,45,95
129987,note_off,347,0,0,,1,,,73,127
130336,note_off,349,0,0,,0,,,45,95
130338,note_on,2,0,0,,0,,,57,95
130338,note_on,0,0,0,,0,,,64,95
130338,note_on,0,0,0,,0,,,67,95
130338,note_on,0,0,0,,0,,,73,95
130687,note_on,349,0,0,,1,,,77,127
131034,note_off,347,0,0,,1,,,77,127
131036,note_on,2,0,0,,1,,,76,127
131383,note_off,347,0,0,,1,,,76,127
131385,note_on,2,0,0,,1,,,74,127
131732,note_off,347,0,0,,1,,,74,127
131734,note_on,2,0,0,,1,,,73,127
132081,note_off,347,0,0,,1,,,73,127
132083,note_on,2,0,0,,1,,,74,127
132430,note_off,347,0,0,,1,,,74,127
132430,note_off,0,0,0,,0,,,73,95
132430,note_off,0,0,0,,0,,,67,95
132430,note_off,0,0,0,,0,,,64,95
132430,note_off,0,0,0,,0,,,57,95
132432,note_on,2,0,0,,0,,,55,95
132432,note_on,0,0,0,,0,,,64,95
132432,note_on,0,0,0,,0,,,67,95
132432,note_on,0,0,0,,0,,,73,95
132781,note_on,349,0,0,,1,,,77,127
133128,note_off,347,0,0,,1,,,77,127
133130,note_on,2,0,0,,1,,,76,127
133477,note_off,347,0,0,,1,,,76,127
133479,note_on,2,0,0,,1,,,74,127
133826,note_off,347,0,0,,1,,,74,127
133828,note_on,2,0,0,,1,,,73,127
134175,note_off,347,0,0,,1,,,73,127
134177,note_on,2,0,0,,1,,,74,127
134524,note_off,347,0,0,,1,,,74,127
134524,note_off,0,0,0,,0,,,73,95
134524,note_off,0,0,0,,0,,,67,95
134524,note_off,0,0,0,,0,,,64,95
134524,note_off,0,0,0,,0,,,55,95
134526,note_on,2,0,0,,0,,,53,95
134526,note_on,0,0,0,,0,,,62,95
134526,note_on,0,0,0,,0,,,74,95
134526,note_on,0,0,0,,0,,,69,95
134875,note_on,349,0,0,,1,,,77,127
135222,note_off,347,0,0,,1,,,77,127
135224,note_on,2,0,0,,1,,,76,127
135571,note_off,347,0,0,,1,,,76,127
135573,note_on,2,0,0,,1,,,74,127
135920,note_off,347,0,0,,1,,,74,127
135922,note_on,2,0,0,,1,,,73,127
136269,note_off,347,0,0,,1,,,73,127
136271,note_on,2,0,0,,1,,,74,127
136618,note_off,347,0,0,,1,,,74,127
136618,note_off,0,0,0,,0,,,69,95
136618,note_off,0,0,0,,0,,,74,95
136618,note_off,0,0,0,,0,,,62,95
136618,note_off,0,0,0,,0,,,53,95
136620,note_on,2,0,0,,0,,,52,95
136620,note_on,0,0,0,,0,,,67,95
136620,note_on,0,0,0,,0,,,73,95
136969,note_on,349,0,0,,1,,,82,127
137316,note_off,347,0,0,,1,,,82,127
137318,note_on,2,0,0,,1,,,81,127
137665,note_off,347,0,0,,1,,,81,127
137667,note_on,2,0,0,,1,,,79,127
138014,note_off,347,0,0,,1,,,79,127
138014,note_off,0,0,0,,0,,,73,95
138014,note_off,0,0,0,,0,,,67,95
138014,note_off,0,0,0,,0,,,52,95
138016,note_on,2,0,0,,0,,,50,95
138016,note_on,0,0,0,,0,,,70,95
138016,note_on,0,0,0,,0,,,67,95
138016,note_on,0,0,0,,1,,,78,127
138363,note_off,347,0,0,,1,,,78,127
138365,note_on,2,0,0,,1,,,79,127
138712,note_off,347,0,0,,1,,,79,127
138712,note_off,0,0,0,,0,,,67,95
138712,note_off,0,0,0,,0,,,70,95
138712,note_off,0,0,0,,0,,,50,95
138714,note_on,2,0,0,,0,,,49,95
138714,note_on,0,0,0,,0,,,64,95
138714,note_on,0,0,0,,0,,,67,95
138714,note_on,0,0,0,,0,,,69,95
139063,note_on,349,0,0,,1,,,67,127
139410,note_off,347,0,0,,1,,,67,127
139412,note_on,2,0,0,,1,,,70,127
139759,note_off,347,0,0,,1,,,70,127
139761,note_on,2,0,0,,1,,,73,127
140108,note_off,347,0,0,,1,,,73,127
140108,note_off,0,0,0,,0,,,49,95
140110,note_on,2,0,0,,0,,,45,95
140110,note_on,0,0,0,,1,,,76,127
140457,note_off,347,0,0,,1,,,76,127
140459,note_on,2,0,0,,1,,,79,127
140806,note_off,347,0,0,,1,,,79,127
140806,note_off,0,0,0,,0,,,45,95
140806,note_off,0,0,0,,0,,,69,95
140806,note_off,0,0,0,,0,,,67,95
140806,note_off,0,0,0,,0,,,64,95
140808,note_on,2,0,0,,0,,,50,95
140808,note_on,0,0,0,,0,,,69,95
140808,note_on,0,0,0,,0,,,65,95
140808,note_on,0,0,0,,0,,,62,95
141157,note_on,349,0,0,,1,,,65,127
141504,note_off,347,0,0,,1,,,65,127
141506,note_on,2,0,0,,1,,,69,127
141853,note_off,347,0,0,,1,,,69,127
141855,note_on,2,0,0,,1,,,74,127
142202,note_off,347,0,0,,1,,,74,127
142202,note_off,0,0,0,,0,,,50,95
142204,note_on,2,0,0,,0,,,50,95
142204,note_on,0,0,0,,1,,,77,127
142551,note_off,347,0,0,,1,,,77,127
142553,note_on,2,0,0,,1,,,81,127
142900,note_off,347,0,0,,1,,,81,127
142900,note_off,0,0,0,,0,,,50,95
142900,note_off,0,0,0,,0,,,62,95
142900,note_off,0,0,0,,0,,,65,95
142900,note_off,0,0,0,,0,,,69,95
142902,note_on,2,0,0,,0,,,43,95
142902,note_on,0,0,0,,0,,,64,95
142902,note_on,0,0,0,,0,,,70,95
142902,note_on,0,0,0,,1,,,79,127
142987,note_off,85,0,0,,1,,,79,127
142989,note_on,2,0,0,,1,,,77,127
143074,note_off,85,0,0,,1,,,77,127
143076,note_on,2,0,0,,1,,,76,127
143598,note_off,522,0,0,,1,,,76,127
143598,note_off,0,0,0,,0,,,70,95
143598,note_off,0,0,0,,0,,,64,95
143598,note_off,0,0,0,,0,,,43,95
143600,note_on,2,0,0,,0,,,45,95
143600,note_on,0,0,0,,0,,,62,95
143600,note_on,0,0,0,,0,,,65,95
143600,note_on,0,0,0,,0,,,69,95
143600,note_on,0,0,0,,1,,,77,127
143685,note_off,85,0,0,,1,,,77,127
143687,note_on,2,0,0,,1,,,76,127
143772,note_off,85,0,0,,1,,,76,127
143774,note_on,2,0,0,,1,,,74,127
144296,note_off,522,0,0,,1,,,74,127
144296,note_off,0,0,0,,0,,,65,95
144296,note_off,0,0,0,,0,,,62,95
144296,note_off,0,0,0,,0,,,45,95
144298,note_on,2,0,0,,0,,,57,95
144298,note_on,0,0,0,,0,,,61,95
144298,note_on,0,0,0,,0,,,64,95
144298,note_on,0,0,0,,1,,,76,127
144383,note_off,85,0,0,,1,,,76,127
144385,note_on,2,0,0,,1,,,74,127
144470,note_off,85,0,0,,1,,,74,127
144472,note_on,2,0,0,,1,,,73,127
144994,note_off,522,0,0,,1,,,73,127
144994,note_off,0,0,0,,0,,,64,95
144994,note_off,0,0,0,,0,,,61,95
144994,note_off,0,0,0,,0,,,57,95
144994,note_off,0,0,0,,0,,,69,95
144996,note_on,2,0,0,,0,,,58,95
144996,note_on,0,0,0,,0,,,69,95
144996,note_on,0,0,0,,0,,,62,95
144996,note_on,0,0,0,,1,,,74,127
145348,note_off,352,0,0,,1,,,74,127
145350,note_on,2,0,0,,1,,,70,127
145702,note_off,352,0,0,,1,,,70,127
145702,note_off,0,0,0,,0,,,58,95
145704,note_on,2,0,0,,0,,,58,95
145704,note_on,0,0,0,,1,,,66,127
146056,note_off,352,0,0,,1,,,66,127
146058,note_on,2,0,0,,1,,,67,127
146410,note_off,352,0,0,,0,,,58,95
146410,note_off,0,0,0,,0,,,62,95
146410,note_off,0,0,0,,0,,,69,95
146412,note_on,2,0,0,,0,,,58,95
146412,note_on,0,0,0,,0,,,62,95
146412,note_on,0,0,0,,0,,,67,95
146764,note_off,352,0,0,,1,,,67,127
146766,note_on,2,0,0,,1,,,74,127
147118,note_off,352,0,0,,1,,,74,127
147118,note_off,0,0,0,,0,,,67,95
147118,note_off,0,0,0,,0,,,62,95
147118,note_off,0,0,0,,0,,,58,95
147120,note_on,2,0,0,,0,,,57,95
147120,note_on,0,0,0,,0,,,64,95
147120,note_on,0,0,0,,0,,,67,95
147120,note_on,0,0,0,,1,,,73,127
147472,note_off,352,0,0,,1,,,73,127
147474,note_on,2,0,0,,1,,,74,127
147826,note_off,352,0,0,,1,,,74,127
147826,note_off,0,0,0,,0,,,57,95
147828,note_on,2,0,0,,0,,,45,95
147828,note_on,0,0,0,,1,,,76,127
148180,note_off,352,0,0,,1,,,76,127
148182,note_on,2,0,0,,1,,,77,127
148534,note_off,352,0,0,,1,,,77,127
148534,note_off,0,0,0,,0,,,45,95
148534,note_off,0,0,0,,0,,,67,95
148536,note_on,2,0,0,,0,,,45,95
148536,note_on,0,0,0,,0,,,73,95
148536,note_on,0,0,0,,1,,,79,127
148888,note_off,352,0,0,,1,,,79,127
148890,note_on,2,0,0,,1,,,81,127
149242,note_off,352,0,0,,1,,,81,127
149242,note_off,0,0,0,,0,,,73,95
149242,note_off,0,0,0,,0,,,45,95
149242,note_off,0,0,0,,0,,,64,95
149244,note_on,2,0,0,,0,,,50,95
149244,note_on,0,0,0,,0,,,65,95
149244,note_on,0,0,0,,0,,,69,95
149244,note_on,0,0,0,,1,,,77,127
149333,note_off,89,0,0,,1,,,77,127
149335,note_on,2,0,0,,1,,,76,127
149424,note_off,89,0,0,,1,,,76,127
149426,note_on,2,0,0,,1,,,74,127
149973,note_off,547,0,0,,1,,,74,127
149973,note_off,0,0,0,,0,,,69,95
149973,note_off,0,0,0,,0,,,65,95
149973,note_off,0,0,0,,0,,,50,95
149975,note_on,2,0,0,,0,,,55,95
149975,note_on,0,0,0,,0,,,67,95
149975,note_on,0,0,0,,0,,,70,95
149975,note_on,0,0,0,,1,,,76,127
150704,note_off,729,0,0,,0,,,70,95
150704,note_off,0,0,0,,0,,,55,95
150706,note_on,2,0,0,,0,,,57,95
150706,note_on,0,0,0,,0,,,73,95
151070,note_off,364,0,0,,1,,,76,127
151072,note_on,2,0,0,,1,,,74,127
151436,note_off,364,0,0,,1,,,74,127
151436,note_off,0,0,0,,0,,,73,95
151436,note_off,0,0,0,,0,,,57,95
151436,note_off,0,0,0,,0,,,67,95
151438,note_on,2,0,0,,0,,,58,95
151438,note_on,0,0,0,,0,,,62,95
151438,note_on,0,0,0,,0,,,67,95
151438,note_on,0,0,0,,0,,,74,95
151438,note_on,0,0,0,,1,,,74,127
151814,note_off,376,0,0,,1,,,74,127
151816,note_on,2,0,0,,1,,,78,127
152192,note_off,376,0,0,,1,,,78,127
152192,note_off,0,0,0,,0,,,58,95
152194,note_on,2,0,0,,0,,,46,95
152194,note_on,0,0,0,,1,,,79,127
152570,note_off,376,0,0,,1,,,79,127
152572,note_on,2,0,0,,1,,,73,127
152948,note_off,376,0,0,,1,,,73,127
152948,note_off,0,0,0,,0,,,46,95
152948,note_off,0,0,0,,0,,,74,95
152948,note_off,0,0,0,,0,,,67,95
152948,note_off,0,0,0,,0,,,62,95
152950,note_on,2,0,0,,0,,,46,95
152950,note_on,0,0,0,,0,,,62,95
152950,note_on,0,0,0,,0,,,67,95
152950,note_on,0,0,0,,1,,,74,127
153326,note_off,376,0,0,,1,,,74,127
153328,note_on,2,0,0,,1,,,67,127
153704,note_off,376,0,0,,1,,,67,127
153704,note_off,0,0,0,,0,,,67,95
153704,note_off,0,0,0,,0,,,62,95
153704,note_off,0,0,0,,0,,,46,95
153706,note_on,2,0,0,,0,,,45,95
153706,note_on,0,0,0,,0,,,69,95
153706,note_on,0,0,0,,0,,,65,95
153706,note_on,0,0,0,,0,,,62,95
153706,note_on,0,0,0,,1,,,65,127
153798,note_off,92,0,0,,1,,,65,127
153800,note_on,2,0,0,,1,,,64,127
153892,note_off,92,0,0,,1,,,64,127
153894,note_on,2,0,0,,1,,,62,127
154459,note_off,565,0,0,,1,,,62,127
154459,note_off,0,0,0,,0,,,62,95
154459,note_off,0,0,0,,0,,,65,95
154459,note_off,0,0,0,,0,,,69,95
154461,note_on,2,0,0,,0,,,64,95
154461,note_on,0,0,0,,0,,,69,95
154461,note_on,0,0,0,,1,,,64,127
155216,note_on,755,0,0,,0,,,73,95
155592,note_off,376,0,0,,1,,,64,127
155594,note_on,2,0,0,,1,,,62,127
155970,note_off,376,0,0,,1,,,62,127
155970,note_off,0,0,0,,0,,,73,95
155970,note_off,0,0,0,,0,,,69,95
155970,note_off,0,0,0,,0,,,64,95
155970,note_off,0,0,0,,0,,,45,95
156004,note_on,34,0,0,,0,,,50,95
156004,note_on,0,0,0,,0,,,65,95
156004,note_on,0,0,0,,0,,,69,95
156004,note_on,0,0,0,,0,,,74,95
156004,note_on,0,0,0,,1,,,62,127
158102,note_off,2098,0,0,,1,,,62,127
158102,note_off,0,0,0,,0,,,74,95
158102,note_off,0,0,0,,0,,,69,95
158102,note_off,0,0,0,,0,,,65,95
158102,note_off,0,0,0,,0,,,50,95
159960,note_on,1858,0,0,,0,,,50,95
159960,note_on,0,0,0,,0,,,65,95
159960,note_on,0,0,0,,0,,,69,95
159960,note_on,0,0,0,,1,,,62,127
160167,note_off,207,0,0,,1,,,62,127
160169,note_on,2,0,0,,1,,,65,127
160376,note_off,207,0,0,,1,,,65,127
160378,note_on,2,0,0,,1,,,69,127
160585,note_off,207,0,0,,1,,,69,127
160585,note_off,0,0,0,,0,,,69,95
160585,note_off,0,0,0,,0,,,65,95
160585,note_off,0,0,0,,0,,,50,95
160587,note_on,2,0,0,,1,,,74,127
160796,note_on,209,0,0,,0,,,62,95
160796,note_on,0,0,0,,0,,,65,95
161003,note_off,207,0,0,,0,,,65,95
161003,note_off,0,0,0,,0,,,62,95
161003,note_off,0,0,0,,1,,,74,127
161005,note_on,2,0,0,,0,,,53,95
161005,note_on,0,0,0,,0,,,69,95
161005,note_on,0,0,0,,1,,,81,127
161212,note_off,207,0,0,,1,,,81,127
161212,note_off,0,0,0,,0,,,69,95
161212,note_off,0,0,0,,0,,,53,95
161214,note_on,2,0,0,,0,,,55,95
161214,note_on,0,0,0,,0,,,76,95
161214,note_on,0,0,0,,1,,,79,127
161421,note_off,207,0,0,,1,,,79,127
161421,note_off,0,0,0,,0,,,76,95
161421,note_off,0,0,0,,0,,,55,95
161423,note_on,2,0,0,,0,,,57,95
161423,note_on,0,0,0,,0,,,74,95
161423,note_on,0,0,0,,1,,,77,127
161630,note_off,207,0,0,,1,,,77,127
161630,note_off,0,0,0,,0,,,74,95
161630,note_off,0,0,0,,0,,,57,95
161632,note_on,2,0,0,,0,,,45,95
161632,note_on,0,0,0,,0,,,73,95
161632,note_on,0,0,0,,1,,,76,127
161839,note_off,207,0,0,,1,,,76,127
161839,note_off,0,0,0,,0,,,73,95
161839,note_off,0,0,0,,0,,,45,95
161841,note_on,2,0,0,,0,,,50,95
161841,note_on,0,0,0,,0,,,69,95
161841,note_on,0,0,0,,1,,,77,127
162048,note_off,207,0,0,,1,,,77,127
162048,note_off,0,0,0,,0,,,69,95
162048,note_off,0,0,0,,0,,,50,95
162050,note_on,2,0,0,,0,,,52,95
162050,note_on,0,0,0,,0,,,73,95
162050,note_on,0,0,0,,1,,,76,127
162257,note_off,207,0,0,,1,,,76,127
162257,note_off,0,0,0,,0,,,73,95
162257,note_off,0,0,0,,0,,,52,95
162259,note_on,2,0,0,,0,,,53,95
162259,note_on,0,0,0,,0,,,74,95
162259,note_on,0,0,0,,1,,,74,127
162466,note_off,207,0,0,,1,,,74,127
162466,note_off,0,0,0,,0,,,74,95
162466,note_off,0,0,0,,0,,,53,95
162468,note_on,2,0,0,,0,,,55,95
162468,note_on,0,0,0,,0,,,76,95
162468,note_on,0,0,0,,1,,,67,127
162675,note_off,207,0,0,,1,,,67,127
162675,note_off,0,0,0,,0,,,76,95
162675,note_off,0,0,0,,0,,,55,95
162677,note_on,2,0,0,,0,,,57,95
162677,note_on,0,0,0,,0,,,74,95
162677,note_on,0,0,0,,1,,,65,127
162884,note_off,207,0,0,,1,,,65,127
162884,note_off,0,0,0,,0,,,74,95
162884,note_off,0,0,0,,0,,,57,95
162886,note_on,2,0,0,,0,,,45,95
162886,note_on,0,0,0,,0,,,73,95
162886,note_on,0,0,0,,1,,,64,127
163093,note_off,207,0,0,,1,,,64,127
163093,note_off,0,0,0,,0,,,73,95
163093,note_off,0,0,0,,0,,,45,95
163095,note_on,2,0,0,,0,,,50,95
163095,note_on,0,0,0,,0,,,74,95
163095,note_on,0,0,0,,1,,,65,127
163302,note_off,207,0,0,,1,,,65,127
163302,note_off,0,0,0,,0,,,74,95
163302,note_off,0,0,0,,0,,,50,95
163304,note_on,2,0,0,,0,,,45,95
163304,note_on,0,0,0,,0,,,73,95
163304,note_on,0,0,0,,1,,,64,127
163511,note_off,207,0,0,,1,,,64,127
163511,note_off,0,0,0,,0,,,73,95
163511,note_off,0,0,0,,0,,,45,95
163513,note_on,2,0,0,,0,,,38,95
163513,note_on,0,0,0,,0,,,74,95
163513,note_on,0,0,0,,1,,,62,127
163720,note_off,207,0,0,,1,,,62,127
163720,note_off,0,0,0,,0,,,74,95
163720,note_off,0,0,0,,0,,,38,95
163722,note_on,2,0,0,,1,,,77,127
163929,note_off,207,0,0,,1,,,77,127
163931,note_on,2,0,0,,1,,,81,127
164138,note_off,207,0,0,,1,,,81,127
164140,note_on,2,0,0,,0,,,62,95
164140,note_on,0,0,0,,0,,,69,95
164140,note_on,0,0,0,,1,,,77,127
164347,note_off,207,0,0,,1,,,77,127
164347,note_off,0,0,0,,0,,,69,95
164347,note_off,0,0,0,,0,,,62,95
164349,note_on,2,0,0,,0,,,60,95
164349,note_on,0,0,0,,0,,,69,95
164349,note_on,0,0,0,,1,,,76,127
164556,note_off,207,0,0,,1,,,76,127
164556,note_off,0,0,0,,0,,,60,95
164558,note_on,2,0,0,,0,,,59,95
164558,note_on,0,0,0,,1,,,75,127
164765,note_off,207,0,0,,1,,,75,127
164765,note_off,0,0,0,,0,,,59,95
164765,note_off,0,0,0,,0,,,69,95
164767,note_on,2,0,0,,0,,,60,95
164767,note_on,0,0,0,,0,,,69,95
164767,note_on,0,0,0,,1,,,76,127
164974,note_off,207,0,0,,1,,,76,127
164974,note_off,0,0,0,,0,,,69,95
164974,note_off,0,0,0,,0,,,60,95
164976,note_on,2,0,0,,1,,,76,127
165183,note_off,207,0,0,,1,,,76,127
165185,note_on,2,0,0,,1,,,81,127
165392,note_off,207,0,0,,1,,,81,127
165394,note_on,2,0,0,,0,,,60,95
165394,note_on,0,0,0,,0,,,69,95
165394,note_on,0,0,0,,1,,,76,127
165601,note_off,207,0,0,,1,,,76,127
165601,note_off,0,0,0,,0,,,69,95
165601,note_off,0,0,0,,0,,,60,95
165603,note_on,2,0,0,,0,,,58,95
165603,note_on,0,0,0,,0,,,67,95
165603,note_on,0,0,0,,1,,,74,127
165810,note_off,207,0,0,,1,,,74,127
165810,note_off,0,0,0,,0,,,58,95
165812,note_on,2,0,0,,0,,,57,95
165812,note_on,0,0,0,,1,,,73,127
166019,note_off,207,0,0,,1,,,73,127
166019,note_off,0,0,0,,0,,,57,95
166019,note_off,0,0,0,,0,,,67,95
166021,note_on,2,0,0,,0,,,55,95
166021,note_on,0,0,0,,0,,,70,95
166021,note_on,0,0,0,,1,,,74,127
166228,note_off,207,0,0,,1,,,74,127
166228,note_off,0,0,0,,0,,,70,95
166228,note_off,0,0,0,,0,,,55,95
166230,note_on,2,0,0,,1,,,74,127
166437,note_off,207,0,0,,1,,,74,127
166439,note_on,2,0,0,,1,,,82,127
166646,note_off,207,0,0,,1,,,82,127
166648,note_on,2,0,0,,0,,,58,95
166648,note_on,0,0,0,,0,,,67,95
166648,note_on,0,0,0,,1,,,74,127
166855,note_off,207,0,0,,1,,,74,127
166855,note_off,0,0,0,,0,,,67,95
166855,note_off,0,0,0,,0,,,58,95
166857,note_on,2,0,0,,0,,,57,95
166857,note_on,0,0,0,,0,,,64,95
166857,note_on,0,0,0,,1,,,73,127
167064,note_off,207,0,0,,1,,,73,127
167064,note_off,0,0,0,,0,,,64,95
167064,note_off,0,0,0,,0,,,57,95
167066,note_on,2,0,0,,0,,,45,95
167066,note_on,0,0,0,,0,,,69,95
167066,note_on,0,0,0,,1,,,69,127
167273,note_off,207,0,0,,1,,,69,127
167273,note_off,0,0,0,,0,,,69,95
167273,note_off,0,0,0,,0,,,45,95
167275,note_on,2,0,0,,0,,,45,95
167275,note_on,0,0,0,,0,,,73,95
167275,note_on,0,0,0,,1,,,76,127
167482,note_off,207,0,0,,1,,,76,127
167482,note_off,0,0,0,,0,,,73,95
167482,note_off,0,0,0,,0,,,45,95
167484,note_on,2,0,0,,0,,,45,95
167484,note_on,0,0,0,,0,,,65,95
167484,note_on,0,0,0,,1,,,74,127
167691,note_off,207,0,0,,1,,,74,127
167691,note_off,0,0,0,,0,,,65,95
167691,note_off,0,0,0,,0,,,45,95
167693,note_on,2,0,0,,0,,,45,95
167693,note_on,0,0,0,,0,,,69,95
167693,note_on,0,0,0,,1,,,69,127
167900,note_off,207,0,0,,1,,,69,127
167900,note_off,0,0,0,,0,,,69,95
167900,note_off,0,0,0,,0,,,45,95
167902,note_on,2,0,0,,0,,,45,95
167902,note_on,0,0,0,,0,,,74,95
167902,note_on,0,0,0,,1,,,77,127
168109,note_off,207,0,0,,1,,,77,127
168109,note_off,0,0,0,,0,,,74,95
168109,note_off,0,0,0,,0,,,45,95
168111,note_on,2,0,0,,0,,,45,95
168111,note_on,0,0,0,,0,,,64,95
168111,note_on,0,0,0,,1,,,76,127
168318,note_off,207,0,0,,1,,,76,127
168318,note_off,0,0,0,,0,,,64,95
168318,note_off,0,0,0,,0,,,45,95
168320,note_on,2,0,0,,0,,,45,95
168320,note_on,0,0,0,,0,,,69,95
168320,note_on,0,0,0,,1,,,69,127
168527,note_off,207,0,0,,1,,,69,127
168527,note_off,0,0,0,,0,,,69,95
168527,note_off,0,0,0,,0,,,45,95
168529,note_on,2,0,0,,0,,,45,95
168529,note_on,0,0,0,,0,,,73,95
168529,note_on,0,0,0,,1,,,79,127
168736,note_off,207,0,0,,1,,,79,127
168736,note_off,0,0,0,,0,,,73,95
168736,note_off,0,0,0,,0,,,45,95
168738,note_on,2,0,0,,0,,,45,95
168738,note_on,0,0,0,,0,,,62,95
168738,note_on,0,0,0,,1,,,77,127
168945,note_off,207,0,0,,1,,,77,127
168945,note_off,0,0,0,,0,,,62,95
168945,note_off,0,0,0,,0,,,45,95
168947,note_on,2,0,0,,0,,,45,95
168947,note_on,0,0,0,,0,,,65,95
168947,note_on,0,0,0,,1,,,76,127
169154,note_off,207,0,0,,1,,,76,127
169154,note_off,0,0,0,,0,,,65,95
169154,note_off,0,0,0,,0,,,45,95
169156,note_on,2,0,0,,0,,,45,95
169156,note_on,0,0,0,,0,,,69,95
169156,note_on,0,0,0,,1,,,74,127
169363,note_off,207,0,0,,1,,,74,127
169363,note_off,0,0,0,,0,,,69,95
169363,note_off,0,0,0,,0,,,45,95
169365,note_on,2,0,0,,0,,,45,95
169365,note_on,0,0,0,,0,,,73,95
169365,note_on,0,0,0,,1,,,81,127
169572,note_off,207,0,0,,1,,,81,127
169572,note_off,0,0,0,,0,,,73,95
169572,note_off,0,0,0,,0,,,45,95
169574,note_on,2,0,0,,0,,,45,95
169574,note_on,0,0,0,,0,,,64,95
169574,note_on,0,0,0,,1,,,76,127
169781,note_off,207,0,0,,1,,,76,127
169781,note_off,0,0,0,,0,,,64,95
169781,note_off,0,0,0,,0,,,45,95
169783,note_on,2,0,0,,0,,,45,95
169783,note_on,0,0,0,,0,,,73,95
169783,note_on,0,0,0,,1,,,79,127
169990,note_off,207,0,0,,1,,,79,127
169990,note_off,0,0,0,,0,,,73,95
169990,note_off,0,0,0,,0,,,45,95
169992,note_on,2,0,0,,0,,,45,95
169992,note_on,0,0,0,,0,,,74,95
169992,note_on,0,0,0,,1,,,77,127
170199,note_off,207,0,0,,1,,,77,127
170199,note_off,0,0,0,,0,,,74,95
170199,note_off,0,0,0,,0,,,45,95
170201,note_on,2,0,0,,0,,,45,95
170201,note_on,0,0,0,,0,,,69,95
170201,note_on,0,0,0,,1,,,76,127
170408,note_off,207,0,0,,1,,,76,127
170408,note_off,0,0,0,,0,,,69,95
170408,note_off,0,0,0,,0,,,45,95
170410,note_on,2,0,0,,0,,,45,95
170410,note_on,0,0,0,,0,,,65,95
170410,note_on,0,0,0,,1,,,74,127
170617,note_off,207,0,0,,1,,,74,127
170617,note_off,0,0,0,,0,,,65,95
170617,note_off,0,0,0,,0,,,45,95
170619,note_on,2,0,0,,0,,,45,95
170619,note_on,0,0,0,,0,,,64,95
170619,note_on,0,0,0,,1,,,73,127
170826,note_off,207,0,0,,1,,,73,127
170826,note_off,0,0,0,,0,,,64,95
170826,note_off,0,0,0,,0,,,45,95
170828,note_on,2,0,0,,0,,,45,95
170828,note_on,0,0,0,,0,,,73,95
170828,note_on,0,0,0,,1,,,69,127
171035,note_off,207,0,0,,1,,,69,127
171035,note_off,0,0,0,,0,,,73,95
171035,note_off,0,0,0,,0,,,45,95
171037,note_on,2,0,0,,0,,,45,95
171037,note_on,0,0,0,,0,,,69,95
171244,note_off,207,0,0,,0,,,69,95
171244,note_off,0,0,0,,0,,,45,95
171246,note_on,2,0,0,,0,,,45,95
171246,note_on,0,0,0,,0,,,73,95
171246,note_on,0,0,0,,1,,,81,127
171453,note_off,207,0,0,,1,,,81,127
171453,note_off,0,0,0,,0,,,73,95
171453,note_off,0,0,0,,0,,,45,95
171455,note_on,2,0,0,,0,,,45,95
171455,note_on,0,0,0,,0,,,74,95
171455,note_on,0,0,0,,1,,,82,127
171662,note_off,207,0,0,,1,,,82,127
171662,note_off,0,0,0,,0,,,74,95
171662,note_off,0,0,0,,0,,,45,95
171664,note_on,2,0,0,,0,,,45,95
171664,note_on,0,0,0,,0,,,73,95
171664,note_on,0,0,0,,1,,,78,127
171871,note_off,207,0,0,,1,,,78,127
171871,note_off,0,0,0,,0,,,73,95
171871,note_off,0,0,0,,0,,,45,95
171873,note_on,2,0,0,,0,,,45,95
171873,note_on,0,0,0,,0,,,71,95
171873,note_on,0,0,0,,1,,,79,127
172080,note_off,207,0,0,,1,,,79,127
172080,note_off,0,0,0,,0,,,71,95
172080,note_off,0,0,0,,0,,,45,95
172082,note_on,2,0,0,,0,,,45,95
172082,note_on,0,0,0,,0,,,73,95
172082,note_on,0,0,0,,1,,,81,127
172289,note_off,207,0,0,,1,,,81,127
172289,note_off,0,0,0,,0,,,73,95
172289,note_off,0,0,0,,0,,,45,95
172291,note_on,2,0,0,,0,,,45,95
172291,note_on,0,0,0,,0,,,64,95
172291,note_on,0,0,0,,1,,,73,127
172498,note_off,207,0,0,,1,,,73,127
172498,note_off,0,0,0,,0,,,64,95
172498,note_off,0,0,0,,0,,,45,95
172500,note_on,2,0,0,,0,,,45,95
172500,note_on,0,0,0,,0,,,65,95
172500,note_on,0,0,0,,1,,,74,127
172707,note_off,207,0,0,,1,,,74,127
172707,note_off,0,0,0,,0,,,65,95
172707,note_off,0,0,0,,0,,,45,95
172709,note_on,2,0,0,,0,,,45,95
172709,note_on,0,0,0,,0,,,64,95
172709,note_on,0,0,0,,1,,,76,127
172916,note_off,207,0,0,,1,,,76,127
172916,note_off,0,0,0,,0,,,64,95
172916,note_off,0,0,0,,0,,,45,95
172918,note_on,2,0,0,,0,,,45,95
172918,note_on,0,0,0,,0,,,62,95
172918,note_on,0,0,0,,1,,,68,127
173125,note_off,207,0,0,,1,,,68,127
173125,note_off,0,0,0,,0,,,62,95
173125,note_off,0,0,0,,0,,,45,95
173127,note_on,2,0,0,,0,,,45,95
173127,note_on,0,0,0,,0,,,61,95
173127,note_on,0,0,0,,1,,,68,127
173334,note_off,207,0,0,,1,,,68,127
173334,note_off,0,0,0,,0,,,61,95
173334,note_off,0,0,0,,0,,,45,95
173336,note_on,2,0,0,,0,,,45,95
173336,note_on,0,0,0,,0,,,64,95
173336,note_on,0,0,0,,1,,,69,127
173543,note_off,207,0,0,,1,,,69,127
173543,note_off,0,0,0,,0,,,64,95
173543,note_off,0,0,0,,0,,,45,95
173545,note_on,2,0,0,,0,,,45,95
173545,note_on,0,0,0,,0,,,69,95
173545,note_on,0,0,0,,1,,,79,127
173752,note_off,207,0,0,,1,,,79,127
173752,note_off,0,0,0,,0,,,45,95
173754,note_on,2,0,0,,0,,,50,95
173754,note_on,0,0,0,,1,,,77,127
173961,note_off,207,0,0,,1,,,77,127
173961,note_off,0,0,0,,0,,,50,95
173961,note_off,0,0,0,,0,,,69,95
173963,note_on,2,0,0,,0,,,52,95
173963,note_on,0,0,0,,0,,,73,95
173963,note_on,0,0,0,,1,,,76,127
174170,note_off,207,0,0,,1,,,76,127
174170,note_off,0,0,0,,0,,,73,95
174170,note_off,0,0,0,,0,,,52,95
174172,note_on,2,0,0,,0,,,53,95
174172,note_on,0,0,0,,0,,,74,95
174172,note_on,0,0,0,,1,,,74,127
174379,note_off,207,0,0,,1,,,74,127
174379,note_off,0,0,0,,0,,,74,95
174379,note_off,0,0,0,,0,,,53,95
174381,note_on,2,0,0,,0,,,55,95
174381,note_on,0,0,0,,0,,,74,95
174381,note_on,0,0,0,,1,,,82,127
174588,note_off,207,0,0,,1,,,82,127
174588,note_off,0,0,0,,0,,,55,95
174590,note_on,2,0,0,,0,,,53,95
174590,note_on,0,0,0,,1,,,81,127
174797,note_off,207,0,0,,1,,,81,127
174797,note_off,0,0,0,,0,,,53,95
174797,note_off,0,0,0,,0,,,74,95
174799,note_on,2,0,0,,0,,,52,95
174799,note_on,0,0,0,,0,,,73,95
174799,note_on,0,0,0,,1,,,79,127
175006,note_off,207,0,0,,1,,,79,127
175006,note_off,0,0,0,,0,,,73,95
175006,note_off,0,0,0,,0,,,52,95
175008,note_on,2,0,0,,0,,,50,95
175008,note_on,0,0,0,,0,,,69,95
175008,note_on,0,0,0,,1,,,77,127
175215,note_off,207,0,0,,1,,,77,127
175215,note_off,0,0,0,,0,,,50,95
175217,note_on,2,0,0,,0,,,48,95
175217,note_on,0,0,0,,1,,,76,127
175424,note_off,207,0,0,,1,,,76,127
175424,note_off,0,0,0,,0,,,48,95
175424,note_off,0,0,0,,0,,,69,95
175426,note_on,2,0,0,,0,,,46,95
175426,note_on,0,0,0,,0,,,67,95
175426,note_on,0,0,0,,1,,,74,127
175633,note_off,207,0,0,,1,,,74,127
175633,note_off,0,0,0,,0,,,67,95
175633,note_off,0,0,0,,0,,,46,95
175635,note_on,2,0,0,,0,,,45,95
175635,note_on,0,0,0,,0,,,73,95
175635,note_on,0,0,0,,1,,,73,127
175635,note_on,0,0,0,,1,,,76,127
175842,note_off,207,0,0,,0,,,73,95
175842,note_off,0,0,0,,0,,,45,95
175844,note_on,2,0,0,,0,,,45,95
175844,note_on,0,0,0,,0,,,69,95
176051,note_off,207,0,0,,0,,,69,95
176051,note_off,0,0,0,,0,,,45,95
176053,note_on,2,0,0,,0,,,45,95
176053,note_on,0,0,0,,0,,,76,95
176260,note_off,207,0,0,,0,,,76,95
176260,note_off,0,0,0,,0,,,45,95
176260,note_off,0,0,0,,1,,,76,127
176260,note_off,0,0,0,,1,,,73,127
176262,note_on,2,0,0,,0,,,45,95
176262,note_on,0,0,0,,0,,,74,95
176262,note_on,0,0,0,,1,,,74,127
176262,note_on,0,0,0,,1,,,77,127
176469,note_off,207,0,0,,0,,,74,95
176469,note_off,0,0,0,,0,,,45,95
176471,note_on,2,0,0,,0,,,45,95
176471,note_on,0,0,0,,0,,,69,95
176678,note_off,207,0,0,,0,,,69,95
176678,note_off,0,0,0,,0,,,45,95
176680,note_on,2,0,0,,0,,,45,95
176680,note_on,0,0,0,,0,,,77,95
176887,note_off,207,0,0,,0,,,77,95
176887,note_off,0,0,0,,0,,,45,95
176887,note_off,0,0,0,,1,,,77,127
176887,note_off,0,0,0,,1,,,74,127
176889,note_on,2,0,0,,0,,,45,95
176889,note_on,0,0,0,,0,,,76,95
176889,note_on,0,0,0,,1,,,79,127
176889,note_on,0,0,0,,1,,,69,127
177096,note_off,207,0,0,,1,,,69,127
177096,note_off,0,0,0,,0,,,76,95
177096,note_off,0,0,0,,0,,,45,95
177098,note_on,2,0,0,,0,,,45,95
177098,note_on,0,0,0,,0,,,69,95
177098,note_on,0,0,0,,1,,,69,127
177305,note_off,207,0,0,,1,,,69,127
177305,note_off,0,0,0,,0,,,69,95
177305,note_off,0,0,0,,0,,,45,95
177307,note_on,2,0,0,,0,,,45,95
177307,note_on,0,0,0,,0,,,79,95
177307,note_on,0,0,0,,1,,,69,127
177514,note_off,207,0,0,,1,,,69,127
177514,note_off,0,0,0,,0,,,79,95
177514,note_off,0,0,0,,0,,,45,95
177514,note_off,0,0,0,,1,,,79,127
177516,note_on,2,0,0,,0,,,45,95
177516,note_on,0,0,0,,0,,,77,95
177516,note_on,0,0,0,,1,,,77,127
177516,note_on,0,0,0,,1,,,74,127
177723,note_off,207,0,0,,0,,,77,95
177723,note_off,0,0,0,,0,,,45,95
177725,note_on,2,0,0,,0,,,45,95
177725,note_on,0,0,0,,0,,,76,95
177932,note_off,207,0,0,,0,,,76,95
177932,note_off,0,0,0,,0,,,45,95
177934,note_on,2,0,0,,0,,,45,95
177934,note_on,0,0,0,,0,,,74,95
178141,note_off,207,0,0,,0,,,74,95
178141,note_off,0,0,0,,0,,,45,95
178141,note_off,0,0,0,,1,,,74,127
178141,note_off,0,0,0,,1,,,77,127
178143,note_on,2,0,0,,0,,,45,95
178143,note_on,0,0,0,,0,,,81,95
178143,note_on,0,0,0,,1,,,73,127
178143,note_on,0,0,0,,1,,,76,127
178350,note_off,207,0,0,,0,,,81,95
178350,note_off,0,0,0,,0,,,45,95
178352,note_on,2,0,0,,0,,,45,95
178352,note_on,0,0,0,,0,,,76,95
178559,note_off,207,0,0,,0,,,76,95
178559,note_off,0,0,0,,0,,,45,95
178561,note_on,2,0,0,,0,,,45,95
178561,note_on,0,0,0,,0,,,79,95
178768,note_off,207,0,0,,0,,,79,95
178768,note_off,0,0,0,,0,,,45,95
178768,note_off,0,0,0,,1,,,76,127
178768,note_off,0,0,0,,1,,,73,127
178770,note_on,2,0,0,,0,,,45,95
178770,note_on,0,0,0,,0,,,77,95
178770,note_on,0,0,0,,1,,,74,127
178770,note_on,0,0,0,,1,,,77,127
178977,note_off,207,0,0,,0,,,77,95
178977,note_off,0,0,0,,0,,,45,95
178979,note_on,2,0,0,,0,,,45,95
178979,note_on,0,0,0,,0,,,76,95
179186,note_off,207,0,0,,0,,,76,95
179186,note_off,0,0,0,,0,,,45,95
179188,note_on,2,0,0,,0,,,45,95
179188,note_on,0,0,0,,0,,,74,95
179395,note_off,207,0,0,,0,,,74,95
179395,note_off,0,0,0,,0,,,45,95
179395,note_off,0,0,0,,1,,,77,127
179395,note_off,0,0,0,,1,,,74,127
179397,note_on,2,0,0,,0,,,45,95
179397,note_on,0,0,0,,0,,,73,95
179397,note_on,0,0,0,,1,,,79,127
179397,note_on,0,0,0,,1,,,69,127
179604,note_off,207,0,0,,1,,,69,127
179604,note_off,0,0,0,,0,,,73,95
179604,note_off,0,0,0,,0,,,45,95
179606,note_on,2,0,0,,0,,,45,95
179606,note_on,0,0,0,,0,,,69,95
179606,note_on,0,0,0,,1,,,69,127
179813,note_off,207,0,0,,1,,,69,127
179813,note_off,0,0,0,,0,,,69,95
179813,note_off,0,0,0,,0,,,45,95
179815,note_on,2,0,0,,0,,,45,95
179815,note_on,0,0,0,,1,,,69,127
180022,note_off,207,0,0,,1,,,69,127
180022,note_off,0,0,0,,0,,,45,95
180022,note_off,0,0,0,,1,,,79,127
180024,note_on,2,0,0,,0,,,45,95
180024,note_on,0,0,0,,0,,,74,95
180024,note_on,0,0,0,,1,,,77,127
180024,note_on,0,0,0,,1,,,74,127
180231,note_off,207,0,0,,0,,,74,95
180231,note_off,0,0,0,,0,,,45,95
180233,note_on,2,0,0,,0,,,45,95
180233,note_on,0,0,0,,0,,,69,95
180440,note_off,207,0,0,,0,,,69,95
180440,note_off,0,0,0,,0,,,45,95
180442,note_on,2,0,0,,0,,,45,95
180649,note_off,207,0,0,,0,,,45,95
180649,note_off,0,0,0,,1,,,74,127
180649,note_off,0,0,0,,1,,,77,127
180651,note_on,2,0,0,,0,,,45,95
180651,note_on,0,0,0,,1,,,76,127
180651,note_on,0,0,0,,1,,,73,127
180858,note_off,207,0,0,,1,,,76,127
180858,note_off,0,0,0,,0,,,45,95
180860,note_on,2,0,0,,0,,,57,95
180860,note_on,0,0,0,,0,,,69,95
180860,note_on,0,0,0,,1,,,81,127
181067,note_off,207,0,0,,1,,,81,127
181067,note_off,0,0,0,,0,,,69,95
181067,note_off,0,0,0,,0,,,57,95
181069,note_on,2,0,0,,0,,,52,95
181069,note_on,0,0,0,,0,,,64,95
181069,note_on,0,0,0,,1,,,76,127
181276,note_off,207,0,0,,1,,,76,127
181276,note_off,0,0,0,,0,,,64,95
181276,note_off,0,0,0,,0,,,52,95
181276,note_off,0,0,0,,1,,,73,127
181278,note_on,2,0,0,,0,,,45,95
181278,note_on,0,0,0,,0,,,57,95
181278,note_on,0,0,0,,1,,,69,127
181485,note_off,207,0,0,,1,,,69,127
181485,note_off,0,0,0,,0,,,57,95
181485,note_off,0,0,0,,0,,,45,95
181487,note_on,2,0,0,,0,,,45,95
181487,note_on,0,0,0,,0,,,57,95
181487,note_on,0,0,0,,1,,,69,127
181694,note_off,207,0,0,,1,,,69,127
181694,note_off,0,0,0,,0,,,57,95
181694,note_off,0,0,0,,0,,,45,95
181696,note_on,2,0,0,,0,,,45,95
181696,note_on,0,0,0,,0,,,57,95
181696,note_on,0,0,0,,1,,,69,127
181903,note_off,207,0,0,,1,,,69,127
181903,note_off,0,0,0,,0,,,57,95
181903,note_off,0,0,0,,0,,,45,95
181905,note_on,2,0,0,,0,,,45,95
181905,note_on,0,0,0,,0,,,57,95
181905,note_on,0,0,0,,1,,,69,127
182112,note_off,207,0,0,,1,,,69,127
182112,note_off,0,0,0,,0,,,57,95
182112,note_off,0,0,0,,0,,,45,95
182114,note_on,2,0,0,,0,,,57,95
182114,note_on,0,0,0,,0,,,69,95
182114,note_on,0,0,0,,1,,,81,127
182321,note_off,207,0,0,,1,,,81,127
182321,note_off,0,0,0,,0,,,69,95
182321,note_off,0,0,0,,0,,,57,95
182323,note_on,2,0,0,,0,,,52,95
182323,note_on,0,0,0,,0,,,64,95
182323,note_on,0,0,0,,1,,,76,127
182530,note_off,207,0,0,,1,,,76,127
182530,note_off,0,0,0,,0,,,64,95
182530,note_off,0,0,0,,0,,,52,95
182532,note_on,2,0,0,,0,,,45,95
182532,note_on,0,0,0,,0,,,57,95
182532,note_on,0,0,0,,1,,,69,127
182739,note_off,207,0,0,,1,,,69,127
182739,note_off,0,0,0,,0,,,57,95
182739,note_off,0,0,0,,0,,,45,95
182741,note_on,2,0,0,,0,,,45,95
182741,note_on,0,0,0,,0,,,57,95
182741,note_on,0,0,0,,1,,,69,127
182948,note_off,207,0,0,,1,,,69,127
182948,note_off,0,0,0,,0,,,57,95
182948,note_off,0,0,0,,0,,,45,95
182950,note_on,2,0,0,,0,,,45,95
182950,note_on,0,0,0,,0,,,57,95
182950,note_on,0,0,0,,1,,,69,127
183157,note_off,207,0,0,,1,,,69,127
183157,note_off,0,0,0,,0,,,57,95
183157,note_off,0,0,0,,0,,,45,95
183159,note_on,2,0,0,,0,,,45,95
183159,note_on,0,0,0,,0,,,57,95
183159,note_on,0,0,0,,1,,,69,127
183366,note_off,207,0,0,,1,,,69,127
183366,note_off,0,0,0,,0,,,57,95
183366,note_off,0,0,0,,0,,,45,95
183368,note_on,2,0,0,,0,,,57,95
183368,note_on,0,0,0,,0,,,69,95
183368,note_on,0,0,0,,1,,,81,127
183575,note_off,207,0,0,,1,,,81,127
183575,note_off,0,0,0,,0,,,69,95
183575,note_off,0,0,0,,0,,,57,95
183577,note_on,2,0,0,,0,,,52,95
183577,note_on,0,0,0,,0,,,64,95
183577,note_on,0,0,0,,1,,,76,127
183784,note_off,207,0,0,,1,,,76,127
183784,note_off,0,0,0,,0,,,64,95
183784,note_off,0,0,0,,0,,,52,95
183786,note_on,2,0,0,,0,,,45,95
183786,note_on,0,0,0,,0,,,57,95
183786,note_on,0,0,0,,1,,,69,127
183993,note_off,207,0,0,,1,,,69,127
183993,note_off,0,0,0,,0,,,57,95
183993,note_off,0,0,0,,0,,,45,95
183995,note_on,2,0,0,,0,,,45,95
183995,note_on,0,0,0,,0,,,57,95
183995,note_on,0,0,0,,1,,,69,127
184202,note_off,207,0,0,,1,,,69,127
184202,note_off,0,0,0,,0,,,57,95
184202,note_off,0,0,0,,0,,,45,95
184204,note_on,2,0,0,,0,,,45,95
184204,note_on,0,0,0,,0,,,57,95
184204,note_on,0,0,0,,1,,,69,127
184411,note_off,207,0,0,,1,,,69,127
184411,note_off,0,0,0,,0,,,57,95
184411,note_off,0,0,0,,0,,,45,95
184413,note_on,2,0,0,,0,,,45,95
184413,note_on,0,0,0,,0,,,61,95
184413,note_on,0,0,0,,0,,,64,95
184413,note_on,0,0,0,,0,,,69,95
184413,note_on,0,0,0,,1,,,69,127
184620,note_off,207,0,0,,1,,,69,127
184620,note_off,0,0,0,,0,,,69,95
184620,note_off,0,0,0,,0,,,64,95
184620,note_off,0,0,0,,0,,,61,95
184620,note_off,0,0,0,,0,,,45,95
184622,note_on,2,0,0,,0,,,45,95
184622,note_on,0,0,0,,1,,,81,127
184725,note_off,103,0,0,,0,,,45,95
184727,note_on,2,0,0,,0,,,45,95
184830,note_off,103,0,0,,0,,,45,95
184830,note_off,0,0,0,,1,,,81,127
184832,note_on,2,0,0,,0,,,45,95
184832,note_on,0,0,0,,1,,,76,127
184935,note_off,103,0,0,,0,,,45,95
184937,note_on,2,0,0,,0,,,45,95
185040,note_off,103,0,0,,0,,,45,95
185040,note_off,0,0,0,,1,,,76,127
185042,note_on,2,0,0,,0,,,45,95
185042,note_on,0,0,0,,0,,,64,95
185042,note_on,0,0,0,,0,,,69,95
185042,note_on,0,0,0,,0,,,73,95
185042,note_on,0,0,0,,1,,,73,127
185249,note_off,207,0,0,,1,,,73,127
185249,note_off,0,0,0,,0,,,73,95
185249,note_off,0,0,0,,0,,,69,95
185249,note_off,0,0,0,,0,,,64,95
185249,note_off,0,0,0,,0,,,45,95
185251,note_on,2,0,0,,0,,,45,95
185251,note_on,0,0,0,,1,,,76,127
185354,note_off,103,0,0,,0,,,45,95
185356,note_on,2,0,0,,0,,,45,95
185459,note_off,103,0,0,,0,,,45,95
185459,note_off,0,0,0,,1,,,76,127
185461,note_on,2,0,0,,0,,,45,95
185461,note_on,0,0,0,,1,,,73,127
185564,note_off,103,0,0,,0,,,45,95
185566,note_on,2,0,0,,0,,,45,95
185669,note_off,103,0,0,,0,,,45,95
185669,note_off,0,0,0,,1,,,73,127
185671,note_on,2,0,0,,0,,,45,95
185671,note_on,0,0,0,,0,,,69,95
185671,note_on,0,0,0,,0,,,73,95
185671,note_on,0,0,0,,0,,,76,95
185671,note_on,0,0,0,,1,,,69,127
185878,note_off,207,0,0,,0,,,76,95
185878,note_off,0,0,0,,0,,,73,95
185878,note_off,0,0,0,,0,,,69,95
185880,note_on,2,0,0,,0,,,57,95
185983,note_off,103,0,0,,0,,,57,95
185985,note_on,2,0,0,,0,,,57,95
186088,note_off,103,0,0,,0,,,57,95
186090,note_on,2,0,0,,0,,,57,95
186193,note_off,103,0,0,,0,,,57,95
186195,note_on,2,0,0,,0,,,57,95
186298,note_off,103,0,0,,0,,,57,95
186298,note_off,0,0,0,,1,,,69,127
186298,note_off,0,0,0,,0,,,45,95
186300,note_on,2,0,0,,0,,,45,95
186300,note_on,0,0,0,,0,,,57,95
186300,note_on,0,0,0,,1,,,70,127
186368,note_off,68,0,0,,1,,,70,127
186370,note_on,2,0,0,,1,,,69,127
186438,note_off,68,0,0,,1,,,69,127
186440,note_on,2,0,0,,1,,,70,127
186508,note_off,68,0,0,,1,,,70,127
186508,note_off,0,0,0,,0,,,57,95
186510,note_on,2,0,0,,0,,,57,95
186510,note_on,0,0,0,,1,,,69,127
186578,note_off,68,0,0,,1,,,69,127
186580,note_on,2,0,0,,1,,,70,127
186613,note_off,33,0,0,,0,,,57,95
186615,note_on,2,0,0,,0,,,57,95
186648,note_off,33,0,0,,1,,,70,127
186650,note_on,2,0,0,,1,,,69,127
186718,note_off,68,0,0,,1,,,69,127
186718,note_off,0,0,0,,0,,,57,95
186720,note_on,2,0,0,,0,,,57,95
186720,note_on,0,0,0,,1,,,70,127
186788,note_off,68,0,0,,1,,,70,127
186790,note_on,2,0,0,,1,,,69,127
186823,note_off,33,0,0,,0,,,57,95
186825,note_on,2,0,0,,0,,,57,95
186858,note_off,33,0,0,,1,,,69,127
186860,note_on,2,0,0,,1,,,68,127
186928,note_off,68,0,0,,1,,,68,127
186928,note_off,0,0,0,,0,,,57,95
186928,note_off,0,0,0,,0,,,45,95
186930,note_on,2,0,0,,0,,,45,95
186930,note_on,0,0,0,,0,,,57,95
186930,note_on,0,0,0,,0,,,69,95
186930,note_on,0,0,0,,1,,,69,127
187928,note_off,998,0,0,,1,,,69,127
187928,note_off,0,0,0,,0,,,69,95
187928,note_off,0,0,0,,0,,,57,95
187928,note_off,0,0,0,,0,,,45,95
188070,note_on,142,0,0,,1,,,69,127
188070,note_on,0,0,0,,0,,,61,95
188070,note_on,0,0,0,,0,,,64,95
188070,note_on,0,0,0,,0,,,45,95
188277,note_off,207,0,0,,1,,,69,127
188279,note_on,2,0,0,,1,,,73,127
188486,note_off,207,0,0,,1,,,73,127
188488,note_on,2,0,0,,1,,,76,127
188695,note_off,207,0,0,,1,,,76,127
188695,note_off,0,0,0,,0,,,45,95
188695,note_off,0,0,0,,0,,,64,95
188695,note_off,0,0,0,,0,,,61,95
188697,note_on,2,0,0,,1,,,81,127
188906,note_on,209,0,0,,0,,,69,95
188906,note_on,0,0,0,,0,,,57,95
189113,note_off,207,0,0,,0,,,57,95
189113,note_off,0,0,0,,0,,,69,95
189113,note_off,0,0,0,,1,,,81,127
189115,note_on,2,0,0,,1,,,81,127
189115,note_on,0,0,0,,0,,,74,95
189115,note_on,0,0,0,,0,,,53,95
189322,note_off,207,0,0,,0,,,53,95
189322,note_off,0,0,0,,0,,,74,95
189322,note_off,0,0,0,,1,,,81,127
189324,note_on,2,0,0,,1,,,79,127
189324,note_on,0,0,0,,0,,,76,95
189324,note_on,0,0,0,,0,,,55,95
189531,note_off,207,0,0,,0,,,55,95
189531,note_off,0,0,0,,0,,,76,95
189531,note_off,0,0,0,,1,,,79,127
189533,note_on,2,0,0,,1,,,77,127
189533,note_on,0,0,0,,0,,,74,95
189533,note_on,0,0,0,,0,,,57,95
189740,note_off,207,0,0,,0,,,57,95
189740,note_off,0,0,0,,0,,,74,95
189740,note_off,0,0,0,,1,,,77,127
189742,note_on,2,0,0,,1,,,76,127
189742,note_on,0,0,0,,0,,,73,95
189742,note_on,0,0,0,,0,,,45,95
189949,note_off,207,0,0,,0,,,45,95
189949,note_off,0,0,0,,0,,,73,95
189949,note_off,0,0,0,,1,,,76,127
189951,note_on,2,0,0,,1,,,77,127
189951,note_on,0,0,0,,0,,,69,95
189951,note_on,0,0,0,,0,,,50,95
190158,note_off,207,0,0,,0,,,50,95
190158,note_off,0,0,0,,0,,,69,95
190158,note_off,0,0,0,,1,,,77,127
190160,note_on,2,0,0,,1,,,76,127
190160,note_on,0,0,0,,0,,,73,95
190160,note_on,0,0,0,,0,,,45,95
190367,note_off,207,0,0,,0,,,45,95
190367,note_off,0,0,0,,0,,,73,95
190367,note_off,0,0,0,,1,,,76,127
190369,note_on,2,0,0,,1,,,74,127
190369,note_on,0,0,0,,0,,,74,95
190369,note_on,0,0,0,,0,,,38,95
190576,note_off,207,0,0,,0,,,38,95
190576,note_off,0,0,0,,0,,,74,95
190576,note_off,0,0,0,,1,,,74,127
190578,note_on,2,0,0,,1,,,81,127
190578,note_on,0,0,0,,0,,,78,95
190578,note_on,0,0,0,,0,,,50,95
190785,note_off,207,0,0,,0,,,50,95
190785,note_off,0,0,0,,1,,,81,127
190787,note_on,2,0,0,,1,,,82,127
190787,note_on,0,0,0,,0,,,50,95
190994,note_off,207,0,0,,0,,,50,95
190994,note_off,0,0,0,,1,,,82,127
190994,note_off,0,0,0,,0,,,78,95
190996,note_on,2,0,0,,1,,,79,127
190996,note_on,0,0,0,,0,,,72,95
190996,note_on,0,0,0,,0,,,50,95
191203,note_off,207,0,0,,0,,,50,95
191203,note_off,0,0,0,,0,,,72,95
191203,note_off,0,0,0,,1,,,79,127
191205,note_on,2,0,0,,1,,,78,127
191205,note_on,0,0,0,,0,,,69,95
191205,note_on,0,0,0,,0,,,50,95
191412,note_off,207,0,0,,0,,,50,95
191412,note_off,0,0,0,,1,,,78,127
191414,note_on,2,0,0,,1,,,79,127
191414,note_on,0,0,0,,0,,,50,95
191621,note_off,207,0,0,,0,,,50,95
191621,note_off,0,0,0,,1,,,79,127
191621,note_off,0,0,0,,0,,,69,95
191623,note_on,2,0,0,,1,,,75,127
191623,note_on,0,0,0,,0,,,66,95
191623,note_on,0,0,0,,0,,,50,95
191830,note_off,207,0,0,,0,,,50,95
191830,note_off,0,0,0,,0,,,66,95
191830,note_off,0,0,0,,1,,,75,127
191832,note_on,2,0,0,,1,,,74,127
191832,note_on,0,0,0,,0,,,69,95
191832,note_on,0,0,0,,0,,,50,95
192039,note_off,207,0,0,,0,,,50,95
192039,note_off,0,0,0,,0,,,69,95
192039,note_off,0,0,0,,1,,,74,127
192041,note_on,2,0,0,,1,,,81,127
192041,note_on,0,0,0,,0,,,66,95
192041,note_on,0,0,0,,0,,,50,95
192248,note_off,207,0,0,,0,,,50,95
192248,note_off,0,0,0,,0,,,66,95
192248,note_off,0,0,0,,1,,,81,127
192250,note_on,2,0,0,,1,,,72,127
192250,note_on,0,0,0,,0,,,69,95
192250,note_on,0,0,0,,0,,,50,95
192457,note_off,207,0,0,,0,,,50,95
192457,note_off,0,0,0,,0,,,69,95
192457,note_off,0,0,0,,1,,,72,127
192459,note_on,2,0,0,,1,,,70,127
192459,note_on,0,0,0,,0,,,67,95
192459,note_on,0,0,0,,0,,,55,95
192666,note_off,207,0,0,,0,,,55,95
192666,note_off,0,0,0,,0,,,67,95
192666,note_off,0,0,0,,1,,,70,127
192668,note_on,2,0,0,,1,,,69,127
192668,note_on,0,0,0,,0,,,66,95
192668,note_on,0,0,0,,0,,,50,95
192875,note_off,207,0,0,,0,,,50,95
192875,note_off,0,0,0,,0,,,66,95
192875,note_off,0,0,0,,1,,,69,127
192877,note_on,2,0,0,,1,,,67,127
192877,note_on,0,0,0,,0,,,67,95
192877,note_on,0,0,0,,0,,,43,95
193084,note_off,207,0,0,,0,,,43,95
193084,note_off,0,0,0,,0,,,67,95
193084,note_off,0,0,0,,1,,,67,127
193086,note_on,2,0,0,,1,,,79,127
193086,note_on,0,0,0,,0,,,64,95
193086,note_on,0,0,0,,0,,,48,95
193293,note_off,207,0,0,,0,,,48,95
193293,note_off,0,0,0,,1,,,79,127
193295,note_on,2,0,0,,1,,,81,127
193295,note_on,0,0,0,,0,,,48,95
193502,note_off,207,0,0,,0,,,48,95
193502,note_off,0,0,0,,1,,,81,127
193502,note_off,0,0,0,,0,,,64,95
193504,note_on,2,0,0,,1,,,77,127
193504,note_on,0,0,0,,0,,,69,95
193504,note_on,0,0,0,,0,,,48,95
193711,note_off,207,0,0,,0,,,48,95
193711,note_off,0,0,0,,0,,,69,95
193711,note_off,0,0,0,,1,,,77,127
193713,note_on,2,0,0,,1,,,76,127
193713,note_on,0,0,0,,0,,,70,95
193713,note_on,0,0,0,,0,,,48,95
193920,note_off,207,0,0,,0,,,48,95
193920,note_off,0,0,0,,1,,,76,127
193922,note_on,2,0,0,,1,,,77,127
193922,note_on,0,0,0,,0,,,48,95
194129,note_off,207,0,0,,0,,,48,95
194129,note_off,0,0,0,,1,,,77,127
194129,note_off,0,0,0,,0,,,70,95
194131,note_on,2,0,0,,1,,,74,127
194131,note_on,0,0,0,,0,,,65,95
194131,note_on,0,0,0,,0,,,48,95
194338,note_off,207,0,0,,0,,,48,95
194338,note_off,0,0,0,,0,,,65,95
194338,note_off,0,0,0,,1,,,74,127
194340,note_on,2,0,0,,1,,,72,127
194340,note_on,0,0,0,,0,,,64,95
194340,note_on,0,0,0,,0,,,48,95
194547,note_off,207,0,0,,0,,,48,95
194547,note_off,0,0,0,,0,,,64,95
194547,note_off,0,0,0,,1,,,72,127
194549,note_on,2,0,0,,1,,,74,127
194549,note_on,0,0,0,,0,,,65,95
194549,note_on,0,0,0,,0,,,48,95
194756,note_off,207,0,0,,0,,,48,95
194756,note_off,0,0,0,,0,,,65,95
194756,note_off,0,0,0,,1,,,74,127
194758,note_on,2,0,0,,1,,,71,127
194758,note_on,0,0,0,,0,,,62,95
194758,note_on,0,0,0,,0,,,48,95
194965,note_off,207,0,0,,0,,,48,95
194965,note_off,0,0,0,,0,,,62,95
194965,note_off,0,0,0,,1,,,71,127
194967,note_on,2,0,0,,1,,,71,127
194967,note_on,0,0,0,,0,,,60,95
194967,note_on,0,0,0,,0,,,64,95
194967,note_on,0,0,0,,0,,,48,95
195174,note_off,207,0,0,,0,,,48,95
195174,note_off,0,0,0,,1,,,71,127
195176,note_on,2,0,0,,1,,,72,127
195176,note_on,0,0,0,,0,,,48,95
195383,note_off,207,0,0,,0,,,48,95
195383,note_off,0,0,0,,1,,,72,127
195385,note_on,2,0,0,,1,,,82,127
195385,note_on,0,0,0,,0,,,48,95
195592,note_off,207,0,0,,0,,,48,95
195592,note_off,0,0,0,,1,,,82,127
195592,note_off,0,0,0,,0,,,64,95
195592,note_off,0,0,0,,0,,,60,95
195594,note_on,2,0,0,,1,,,81,127
195594,note_on,0,0,0,,0,,,65,95
195594,note_on,0,0,0,,0,,,48,95
195801,note_off,207,0,0,,0,,,48,95
195801,note_off,0,0,0,,0,,,65,95
195801,note_off,0,0,0,,1,,,81,127
195803,note_on,2,0,0,,1,,,79,127
195803,note_on,0,0,0,,0,,,64,95
195803,note_on,0,0,0,,0,,,48,95
196010,note_off,207,0,0,,0,,,48,95
196010,note_off,0,0,0,,0,,,64,95
196010,note_off,0,0,0,,1,,,79,127
196012,note_on,2,0,0,,1,,,77,127
196012,note_on,0,0,0,,0,,,65,95
196012,note_on,0,0,0,,0,,,48,95
196219,note_off,207,0,0,,0,,,48,95
196219,note_off,0,0,0,,0,,,65,95
196219,note_off,0,0,0,,1,,,77,127
196221,note_on,2,0,0,,1,,,71,127
196221,note_on,0,0,0,,0,,,67,95
196221,note_on,0,0,0,,0,,,64,95
196221,note_on,0,0,0,,0,,,48,95
196428,note_off,207,0,0,,0,,,48,95
196428,note_off,0,0,0,,1,,,71,127
196430,note_on,2,0,0,,1,,,72,127
196430,note_on,0,0,0,,0,,,48,95
196637,note_off,207,0,0,,0,,,48,95
196637,note_off,0,0,0,,1,,,72,127
196639,note_on,2,0,0,,1,,,82,127
196639,note_on,0,0,0,,0,,,48,95
196846,note_off,207,0,0,,0,,,48,95
196846,note_off,0,0,0,,1,,,82,127
196846,note_off,0,0,0,,0,,,64,95
196846,note_off,0,0,0,,0,,,67,95
196848,note_on,2,0,0,,1,,,81,127
196848,note_on,0,0,0,,0,,,65,95
196848,note_on,0,0,0,,0,,,48,95
197055,note_off,207,0,0,,0,,,48,95
197055,note_off,0,0,0,,0,,,65,95
197055,note_off,0,0,0,,1,,,81,127
197057,note_on,2,0,0,,1,,,79,127
197057,note_on,0,0,0,,0,,,64,95
197057,note_on,0,0,0,,0,,,48,95
197264,note_off,207,0,0,,0,,,48,95
197264,note_off,0,0,0,,0,,,64,95
197264,note_off,0,0,0,,1,,,79,127
197266,note_on,2,0,0,,1,,,77,127
197266,note_on,0,0,0,,0,,,65,95
197266,note_on,0,0,0,,0,,,48,95
197473,note_off,207,0,0,,0,,,48,95
197473,note_off,0,0,0,,0,,,65,95
197473,note_off,0,0,0,,1,,,77,127
197475,note_on,2,0,0,,1,,,71,127
197475,note_on,0,0,0,,0,,,64,95
197475,note_on,0,0,0,,0,,,72,95
197475,note_on,0,0,0,,0,,,67,95
197475,note_on,0,0,0,,0,,,48,95
197682,note_off,207,0,0,,0,,,48,95
197682,note_off,0,0,0,,1,,,71,127
197684,note_on,2,0,0,,1,,,72,127
197684,note_on,0,0,0,,0,,,48,95
197891,note_off,207,0,0,,0,,,48,95
197891,note_off,0,0,0,,1,,,72,127
197893,note_on,2,0,0,,1,,,79,127
197893,note_on,0,0,0,,0,,,48,95
198100,note_off,207,0,0,,0,,,48,95
198100,note_off,0,0,0,,1,,,79,127
198100,note_off,0,0,0,,0,,,67,95
198100,note_off,0,0,0,,0,,,72,95
198100,note_off,0,0,0,,0,,,64,95
198102,note_on,2,0,0,,1,,,70,127
198102,note_on,0,0,0,,0,,,67,95
198102,note_on,0,0,0,,0,,,48,95
198309,note_off,207,0,0,,0,,,48,95
198309,note_off,0,0,0,,0,,,67,95
198309,note_off,0,0,0,,1,,,70,127
198311,note_on,2,0,0,,1,,,69,127
198311,note_on,0,0,0,,0,,,65,95
198311,note_on,0,0,0,,0,,,48,95
198518,note_off,207,0,0,,0,,,48,95
198518,note_off,0,0,0,,0,,,65,95
198518,note_off,0,0,0,,1,,,69,127
198520,note_on,2,0,0,,1,,,67,127
198520,note_on,0,0,0,,0,,,64,95
198520,note_on,0,0,0,,0,,,60,95
198727,note_off,207,0,0,,0,,,60,95
198727,note_off,0,0,0,,0,,,64,95
198727,note_off,0,0,0,,1,,,67,127
198729,note_on,2,0,0,,1,,,77,127
198729,note_on,0,0,0,,0,,,69,95
198729,note_on,0,0,0,,0,,,57,95
198936,note_off,207,0,0,,0,,,57,95
198936,note_off,0,0,0,,0,,,69,95
198936,note_off,0,0,0,,1,,,77,127
198938,note_on,2,0,0,,1,,,79,127
198938,note_on,0,0,0,,0,,,70,95
198938,note_on,0,0,0,,0,,,55,95
199145,note_off,207,0,0,,0,,,55,95
199145,note_off,0,0,0,,0,,,70,95
199145,note_off,0,0,0,,1,,,79,127
199147,note_on,2,0,0,,1,,,81,127
199147,note_on,0,0,0,,0,,,72,95
199147,note_on,0,0,0,,0,,,53,95
199354,note_off,207,0,0,,0,,,53,95
199354,note_off,0,0,0,,0,,,72,95
199354,note_off,0,0,0,,1,,,81,127
199356,note_on,2,0,0,,1,,,79,127
199356,note_on,0,0,0,,0,,,70,95
199356,note_on,0,0,0,,0,,,58,95
199563,note_off,207,0,0,,0,,,58,95
199563,note_off,0,0,0,,0,,,70,95
199563,note_off,0,0,0,,1,,,79,127
199565,note_on,2,0,0,,1,,,77,127
199565,note_on,0,0,0,,0,,,69,95
199565,note_on,0,0,0,,0,,,60,95
199772,note_off,207,0,0,,0,,,60,95
199772,note_off,0,0,0,,0,,,69,95
199772,note_off,0,0,0,,1,,,77,127
199774,note_on,2,0,0,,1,,,76,127
199774,note_on,0,0,0,,0,,,67,95
199774,note_on,0,0,0,,0,,,48,95
199981,note_off,207,0,0,,0,,,48,95
199981,note_off,0,0,0,,0,,,67,95
199981,note_off,0,0,0,,1,,,76,127
199983,note_on,2,0,0,,1,,,77,127
199983,note_on,0,0,0,,0,,,69,95
199983,note_on,0,0,0,,0,,,53,95
200190,note_off,207,0,0,,0,,,53,95
200190,note_off,0,0,0,,0,,,69,95
200192,note_on,2,0,0,,0,,,72,95
200192,note_on,0,0,0,,0,,,53,95
200399,note_off,207,0,0,,0,,,53,95
200399,note_off,0,0,0,,0,,,72,95
200401,note_on,2,0,0,,0,,,69,95
200401,note_on,0,0,0,,0,,,53,95
200608,note_off,207,0,0,,0,,,53,95
200608,note_off,0,0,0,,0,,,69,95
200608,note_off,0,0,0,,1,,,77,127
200610,note_on,2,0,0,,1,,,77,127
200610,note_on,0,0,0,,0,,,65,95
200610,note_on,0,0,0,,0,,,53,95
200687,note_off,77,0,0,,1,,,77,127
200689,note_on,2,0,0,,1,,,75,127
200766,note_off,77,0,0,,1,,,75,127
200768,note_on,2,0,0,,1,,,77,127
200818,note_off,50,0,0,,0,,,53,95
200818,note_off,0,0,0,,0,,,65,95
200820,note_on,2,0,0,,0,,,65,95
200820,note_on,0,0,0,,0,,,55,95
200844,note_off,24,0,0,,1,,,77,127
200846,note_on,2,0,0,,1,,,75,127
200923,note_off,77,0,0,,1,,,75,127
200925,note_on,2,0,0,,1,,,77,127
201002,note_off,77,0,0,,1,,,77,127
201004,note_on,2,0,0,,1,,,75,127
201028,note_off,24,0,0,,0,,,55,95
201028,note_off,0,0,0,,0,,,65,95
201030,note_on,2,0,0,,0,,,65,95
201030,note_on,0,0,0,,0,,,57,95
201080,note_off,50,0,0,,1,,,75,127
201082,note_on,2,0,0,,1,,,77,127
201159,note_off,77,0,0,,1,,,77,127
201161,note_on,2,0,0,,1,,,75,127
201236,note_off,75,0,0,,1,,,75,127
201237,note_off,1,0,0,,0,,,57,95
201237,note_off,0,0,0,,0,,,65,95
201239,note_on,2,0,0,,1,,,75,127
201239,note_on,0,0,0,,0,,,65,95
201239,note_on,0,0,0,,0,,,58,95
201316,note_off,77,0,0,,1,,,75,127
201318,note_on,2,0,0,,1,,,74,127
201395,note_off,77,0,0,,1,,,74,127
201397,note_on,2,0,0,,1,,,75,127
201447,note_off,50,0,0,,0,,,58,95
201447,note_off,0,0,0,,0,,,65,95
201449,note_on,2,0,0,,0,,,65,95
201449,note_on,0,0,0,,0,,,60,95
201473,note_off,24,0,0,,1,,,75,127
201475,note_on,2,0,0,,1,,,74,127
201552,note_off,77,0,0,,1,,,74,127
201554,note_on,2,0,0,,1,,,75,127
201631,note_off,77,0,0,,1,,,75,127
201633,note_on,2,0,0,,1,,,74,127
201657,note_off,24,0,0,,0,,,60,95
201657,note_off,0,0,0,,0,,,65,95
201659,note_on,2,0,0,,0,,,65,95
201659,note_on,0,0,0,,0,,,62,95
201709,note_off,50,0,0,,1,,,74,127
201711,note_on,2,0,0,,1,,,75,127
201788,note_off,77,0,0,,1,,,75,127
201790,note_on,2,0,0,,1,,,74,127
201865,note_off,75,0,0,,1,,,74,127
201866,note_off,1,0,0,,0,,,62,95
201866,note_off,0,0,0,,0,,,65,95
201868,note_on,2,0,0,,1,,,74,127
201868,note_on,0,0,0,,0,,,66,95
201868,note_on,0,0,0,,0,,,50,95
201945,note_off,77,0,0,,1,,,74,127
201947,note_on,2,0,0,,1,,,72,127
202024,note_off,77,0,0,,1,,,72,127
202026,note_on,2,0,0,,1,,,74,127
202076,note_off,50,0,0,,0,,,50,95
202076,note_off,0,0,0,,0,,,66,95
202078,note_on,2,0,0,,0,,,66,95
202078,note_on,0,0,0,,0,,,50,95
202102,note_off,24,0,0,,1,,,74,127
202104,note_on,2,0,0,,1,,,72,127
202181,note_off,77,0,0,,1,,,72,127
202183,note_on,2,0,0,,1,,,74,127
202260,note_off,77,0,0,,1,,,74,127
202262,note_on,2,0,0,,1,,,72,127
202286,note_off,24,0,0,,0,,,50,95
202286,note_off,0,0,0,,0,,,66,95
202288,note_on,2,0,0,,0,,,66,95
202288,note_on,0,0,0,,0,,,50,95
202338,note_off,50,0,0,,1,,,72,127
202340,note_on,2,0,0,,1,,,74,127
202417,note_off,77,0,0,,1,,,74,127
202419,note_on,2,0,0,,1,,,72,127
202496,note_off,77,0,0,,1,,,72,127
202496,note_off,0,0,0,,0,,,50,95
202496,note_off,0,0,0,,0,,,66,95
202498,note_on,2,0,0,,1,,,70,127
202498,note_on,0,0,0,,0,,,62,95
202498,note_on,0,0,0,,0,,,43,95
202705,note_off,207,0,0,,0,,,43,95
202705,note_off,0,0,0,,0,,,62,95
202705,note_off,0,0,0,,1,,,70,127
202707,note_on,2,0,0,,1,,,69,127
202707,note_on,0,0,0,,0,,,66,95
202707,note_on,0,0,0,,0,,,43,95
202914,note_off,207,0,0,,0,,,43,95
202914,note_off,0,0,0,,0,,,66,95
202914,note_off,0,0,0,,1,,,69,127
202916,note_on,2,0,0,,1,,,67,127
202916,note_on,0,0,0,,0,,,67,95
202916,note_on,0,0,0,,0,,,43,95
203123,note_off,207,0,0,,0,,,43,95
203123,note_off,0,0,0,,0,,,67,95
203123,note_off,0,0,0,,1,,,67,127
203125,note_on,2,0,0,,1,,,65,127
203125,note_on,0,0,0,,0,,,62,95
203125,note_on,0,0,0,,0,,,44,95
203332,note_off,207,0,0,,0,,,44,95
203332,note_off,0,0,0,,0,,,62,95
203332,note_off,0,0,0,,1,,,65,127
203334,note_on,2,0,0,,1,,,64,127
203334,note_on,0,0,0,,0,,,61,95
203334,note_on,0,0,0,,0,,,44,95
203541,note_off,207,0,0,,0,,,44,95
203541,note_off,0,0,0,,0,,,61,95
203541,note_off,0,0,0,,1,,,64,127
203543,note_on,2,0,0,,1,,,62,127
203543,note_on,0,0,0,,0,,,62,95
203543,note_on,0,0,0,,0,,,44,95
203750,note_off,207,0,0,,0,,,44,95
203750,note_off,0,0,0,,0,,,62,95
203750,note_off,0,0,0,,1,,,62,127
203752,note_on,2,0,0,,1,,,69,127
203752,note_on,0,0,0,,0,,,61,95
203752,note_on,0,0,0,,0,,,45,95
203959,note_off,207,0,0,,0,,,45,95
203959,note_off,0,0,0,,0,,,61,95
203961,note_on,2,0,0,,0,,,69,95
203961,note_on,0,0,0,,0,,,45,95
204168,note_off,207,0,0,,0,,,45,95
204168,note_off,0,0,0,,0,,,69,95
204170,note_on,2,0,0,,0,,,76,95
204170,note_on,0,0,0,,0,,,45,95
204377,note_off,207,0,0,,0,,,45,95
204377,note_off,0,0,0,,1,,,69,127
204379,note_on,2,0,0,,1,,,81,127
204379,note_on,0,0,0,,0,,,45,95
204586,note_off,207,0,0,,0,,,45,95
204586,note_off,0,0,0,,1,,,81,127
204586,note_off,0,0,0,,0,,,76,95
204588,note_on,2,0,0,,1,,,82,127
204588,note_on,0,0,0,,0,,,74,95
204588,note_on,0,0,0,,0,,,45,95
204795,note_off,207,0,0,,0,,,45,95
204795,note_off,0,0,0,,0,,,74,95
204795,note_off,0,0,0,,1,,,82,127
204797,note_on,2,0,0,,1,,,78,127
204797,note_on,0,0,0,,0,,,73,95
204797,note_on,0,0,0,,0,,,45,95
205004,note_off,207,0,0,,0,,,45,95
205004,note_off,0,0,0,,0,,,73,95
205004,note_off,0,0,0,,1,,,78,127
205006,note_on,2,0,0,,1,,,79,127
205006,note_on,0,0,0,,0,,,74,95
205006,note_on,0,0,0,,0,,,45,95
205213,note_off,207,0,0,,0,,,45,95
205213,note_off,0,0,0,,0,,,74,95
205213,note_off,0,0,0,,1,,,79,127
205215,note_on,2,0,0,,1,,,81,127
205215,note_on,0,0,0,,0,,,73,95
205215,note_on,0,0,0,,0,,,45,95
205422,note_off,207,0,0,,0,,,45,95
205422,note_off,0,0,0,,0,,,73,95
205422,note_off,0,0,0,,1,,,81,127
205424,note_on,2,0,0,,1,,,73,127
205424,note_on,0,0,0,,0,,,69,95
205424,note_on,0,0,0,,0,,,45,95
205631,note_off,207,0,0,,0,,,45,95
205631,note_off,0,0,0,,0,,,69,95
205631,note_off,0,0,0,,1,,,73,127
205633,note_on,2,0,0,,1,,,74,127
205633,note_on,0,0,0,,0,,,65,95
205633,note_on,0,0,0,,0,,,45,95
205840,note_off,207,0,0,,0,,,45,95
205840,note_off,0,0,0,,0,,,65,95
205840,note_off,0,0,0,,1,,,74,127
205842,note_on,2,0,0,,1,,,76,127
205842,note_on,0,0,0,,0,,,64,95
205842,note_on,0,0,0,,0,,,45,95
206049,note_off,207,0,0,,0,,,45,95
206049,note_off,0,0,0,,0,,,64,95
206049,note_off,0,0,0,,1,,,76,127
206051,note_on,2,0,0,,1,,,68,127
206051,note_on,0,0,0,,0,,,62,95
206051,note_on,0,0,0,,0,,,45,95
206258,note_off,207,0,0,,0,,,45,95
206258,note_off,0,0,0,,0,,,62,95
206258,note_off,0,0,0,,1,,,68,127
206260,note_on,2,0,0,,1,,,68,127
206260,note_on,0,0,0,,0,,,61,95
206260,note_on,0,0,0,,0,,,64,95
206260,note_on,0,0,0,,0,,,69,95
206260,note_on,0,0,0,,0,,,45,95
206467,note_off,207,0,0,,0,,,45,95
206467,note_off,0,0,0,,1,,,68,127
206469,note_on,2,0,0,,1,,,69,127
206469,note_on,0,0,0,,0,,,45,95
206676,note_off,207,0,0,,0,,,45,95
206676,note_off,0,0,0,,1,,,69,127
206678,note_on,2,0,0,,1,,,79,127
206678,note_on,0,0,0,,0,,,45,95
206885,note_off,207,0,0,,0,,,45,95
206885,note_off,0,0,0,,1,,,79,127
206885,note_off,0,0,0,,0,,,69,95
206885,note_off,0,0,0,,0,,,64,95
206885,note_off,0,0,0,,0,,,61,95
206887,note_on,2,0,0,,1,,,77,127
206887,note_on,0,0,0,,0,,,62,95
206887,note_on,0,0,0,,0,,,45,95
207094,note_off,207,0,0,,0,,,45,95
207094,note_off,0,0,0,,0,,,62,95
207094,note_off,0,0,0,,1,,,77,127
207096,note_on,2,0,0,,1,,,76,127
207096,note_on,0,0,0,,0,,,64,95
207096,note_on,0,0,0,,0,,,45,95
207303,note_off,207,0,0,,0,,,45,95
207303,note_off,0,0,0,,0,,,64,95
207303,note_off,0,0,0,,1,,,76,127
207305,note_on,2,0,0,,1,,,74,127
207305,note_on,0,0,0,,0,,,65,95
207305,note_on,0,0,0,,0,,,45,95
207512,note_off,207,0,0,,0,,,45,95
207512,note_off,0,0,0,,0,,,65,95
207512,note_off,0,0,0,,1,,,74,127
207514,note_on,2,0,0,,1,,,68,127
207514,note_on,0,0,0,,0,,,73,95
207514,note_on,0,0,0,,0,,,69,95
207514,note_on,0,0,0,,0,,,64,95
207514,note_on,0,0,0,,0,,,45,95
207721,note_off,207,0,0,,0,,,45,95
207721,note_off,0,0,0,,1,,,68,127
207723,note_on,2,0,0,,1,,,69,127
207723,note_on,0,0,0,,0,,,45,95
207930,note_off,207,0,0,,0,,,45,95
207930,note_off,0,0,0,,1,,,69,127
207932,note_on,2,0,0,,1,,,79,127
207932,note_on,0,0,0,,0,,,45,95
208139,note_off,207,0,0,,0,,,45,95
208139,note_off,0,0,0,,1,,,79,127
208139,note_off,0,0,0,,0,,,64,95
208139,note_off,0,0,0,,0,,,69,95
208139,note_off,0,0,0,,0,,,73,95
208141,note_on,2,0,0,,1,,,77,127
208141,note_on,0,0,0,,0,,,74,95
208141,note_on,0,0,0,,0,,,45,95
208348,note_off,207,0,0,,0,,,45,95
208348,note_off,0,0,0,,0,,,74,95
208348,note_off,0,0,0,,1,,,77,127
208350,note_on,2,0,0,,1,,,76,127
208350,note_on,0,0,0,,0,,,64,95
208350,note_on,0,0,0,,0,,,45,95
208557,note_off,207,0,0,,0,,,45,95
208557,note_off,0,0,0,,0,,,64,95
208557,note_off,0,0,0,,1,,,76,127
208559,note_on,2,0,0,,1,,,74,127
208559,note_on,0,0,0,,0,,,65,95
208559,note_on,0,0,0,,0,,,45,95
208766,note_off,207,0,0,,0,,,45,95
208766,note_off,0,0,0,,0,,,65,95
208766,note_off,0,0,0,,1,,,74,127
208768,note_on,2,0,0,,1,,,73,127
208768,note_on,0,0,0,,0,,,64,95
208768,note_on,0,0,0,,0,,,57,95
208975,note_off,207,0,0,,0,,,57,95
208975,note_off,0,0,0,,0,,,64,95
208975,note_off,0,0,0,,1,,,73,127
208977,note_on,2,0,0,,1,,,74,127
208977,note_on,0,0,0,,0,,,65,95
208977,note_on,0,0,0,,0,,,57,95
209184,note_off,207,0,0,,0,,,57,95
209184,note_off,0,0,0,,0,,,65,95
209184,note_off,0,0,0,,1,,,74,127
209186,note_on,2,0,0,,1,,,76,127
209186,note_on,0,0,0,,0,,,69,95
209186,note_on,0,0,0,,0,,,57,95
209393,note_off,207,0,0,,0,,,57,95
209393,note_off,0,0,0,,0,,,69,95
209393,note_off,0,0,0,,1,,,76,127
209395,note_on,2,0,0,,1,,,82,127
209395,note_on,0,0,0,,0,,,74,95
209395,note_on,0,0,0,,0,,,55,95
209602,note_off,207,0,0,,0,,,55,95
209602,note_off,0,0,0,,0,,,74,95
209604,note_on,2,0,0,,0,,,70,95
209604,note_on,0,0,0,,0,,,55,95
209811,note_off,207,0,0,,0,,,55,95
209811,note_off,0,0,0,,0,,,70,95
209813,note_on,2,0,0,,0,,,67,95
209813,note_on,0,0,0,,0,,,55,95
210020,note_off,207,0,0,,0,,,55,95
210020,note_off,0,0,0,,0,,,67,95
210020,note_off,0,0,0,,1,,,82,127
210022,note_on,2,0,0,,1,,,81,127
210022,note_on,0,0,0,,0,,,74,95
210022,note_on,0,0,0,,0,,,53,95
210229,note_off,207,0,0,,0,,,53,95
210229,note_off,0,0,0,,0,,,74,95
210231,note_on,2,0,0,,0,,,69,95
210231,note_on,0,0,0,,0,,,53,95
210438,note_off,207,0,0,,0,,,53,95
210438,note_off,0,0,0,,0,,,69,95
210440,note_on,2,0,0,,0,,,65,95
210440,note_on,0,0,0,,0,,,53,95
210647,note_off,207,0,0,,0,,,53,95
210647,note_off,0,0,0,,0,,,65,95
210647,note_off,0,0,0,,1,,,81,127
210649,note_on,2,0,0,,1,,,69,127
210649,note_on,0,0,0,,1,,,79,127
210649,note_on,0,0,0,,0,,,73,95
210649,note_on,0,0,0,,0,,,49,95
210856,note_off,207,0,0,,0,,,49,95
210856,note_off,0,0,0,,0,,,73,95
210856,note_off,0,0,0,,1,,,69,127
210858,note_on,2,0,0,,1,,,69,127
210858,note_on,0,0,0,,0,,,69,95
210858,note_on,0,0,0,,0,,,49,95
211065,note_off,207,0,0,,0,,,49,95
211065,note_off,0,0,0,,0,,,69,95
211065,note_off,0,0,0,,1,,,69,127
211067,note_on,2,0,0,,1,,,69,127
211067,note_on,0,0,0,,0,,,64,95
211067,note_on,0,0,0,,0,,,49,95
211274,note_off,207,0,0,,0,,,49,95
211274,note_off,0,0,0,,0,,,64,95
211274,note_off,0,0,0,,1,,,69,127
211274,note_off,0,0,0,,1,,,79,127
211276,note_on,2,0,0,,1,,,77,127
211276,note_on,0,0,0,,0,,,74,95
211276,note_on,0,0,0,,0,,,50,95
211483,note_off,207,0,0,,0,,,50,95
211483,note_off,0,0,0,,0,,,74,95
211483,note_off,0,0,0,,1,,,77,127
211485,note_on,2,0,0,,1,,,76,127
211485,note_on,0,0,0,,0,,,73,95
211485,note_on,0,0,0,,0,,,52,95
211692,note_off,207,0,0,,0,,,52,95
211692,note_off,0,0,0,,0,,,73,95
211692,note_off,0,0,0,,1,,,76,127
211694,note_on,2,0,0,,1,,,74,127
211694,note_on,0,0,0,,0,,,74,95
211694,note_on,0,0,0,,0,,,53,95
211901,note_off,207,0,0,,0,,,53,95
211901,note_off,0,0,0,,0,,,74,95
211901,note_off,0,0,0,,1,,,74,127
211903,note_on,2,0,0,,1,,,82,127
211903,note_on,0,0,0,,0,,,74,95
211903,note_on,0,0,0,,0,,,55,95
212110,note_off,207,0,0,,0,,,55,95
212110,note_off,0,0,0,,1,,,82,127
212112,note_on,2,0,0,,1,,,81,127
212112,note_on,0,0,0,,0,,,53,95
212319,note_off,207,0,0,,0,,,53,95
212319,note_off,0,0,0,,1,,,81,127
212319,note_off,0,0,0,,0,,,74,95
212321,note_on,2,0,0,,1,,,79,127
212321,note_on,0,0,0,,0,,,73,95
212321,note_on,0,0,0,,0,,,52,95
212528,note_off,207,0,0,,0,,,52,95
212528,note_off,0,0,0,,0,,,73,95
212528,note_off,0,0,0,,1,,,79,127
212530,note_on,2,0,0,,1,,,81,127
212530,note_on,0,0,0,,0,,,69,95
212530,note_on,0,0,0,,0,,,53,95
212737,note_off,207,0,0,,0,,,53,95
212737,note_off,0,0,0,,1,,,81,127
212739,note_on,2,0,0,,1,,,73,127
212739,note_on,0,0,0,,0,,,52,95
212946,note_off,207,0,0,,0,,,52,95
212946,note_off,0,0,0,,1,,,73,127
212946,note_off,0,0,0,,0,,,69,95
212948,note_on,2,0,0,,1,,,74,127
212948,note_on,0,0,0,,0,,,69,95
212948,note_on,0,0,0,,0,,,53,95
213155,note_off,207,0,0,,0,,,53,95
213155,note_off,0,0,0,,0,,,69,95
213155,note_off,0,0,0,,1,,,74,127
213157,note_on,2,0,0,,1,,,67,127
213157,note_on,0,0,0,,0,,,64,95
213157,note_on,0,0,0,,0,,,55,95
213364,note_off,207,0,0,,0,,,55,95
213364,note_off,0,0,0,,0,,,64,95
213364,note_off,0,0,0,,1,,,67,127
213366,note_on,2,0,0,,1,,,65,127
213366,note_on,0,0,0,,0,,,65,95
213366,note_on,0,0,0,,0,,,57,95
213573,note_off,207,0,0,,0,,,57,95
213573,note_off,0,0,0,,0,,,65,95
213573,note_off,0,0,0,,1,,,65,127
213575,note_on,2,0,0,,1,,,64,127
213575,note_on,0,0,0,,0,,,64,95
213575,note_on,0,0,0,,0,,,45,95
213782,note_off,207,0,0,,0,,,45,95
213782,note_off,0,0,0,,0,,,64,95
213782,note_off,0,0,0,,1,,,64,127
213784,note_on,2,0,0,,1,,,62,127
213784,note_on,0,0,0,,0,,,62,95
213784,note_on,0,0,0,,0,,,50,95
213991,note_off,207,0,0,,0,,,50,95
213991,note_off,0,0,0,,0,,,62,95
213991,note_off,0,0,0,,1,,,62,127
213993,note_on,2,0,0,,1,,,74,127
213993,note_on,0,0,0,,0,,,74,95
213993,note_on,0,0,0,,0,,,62,95
214200,note_off,207,0,0,,0,,,62,95
214200,note_off,0,0,0,,0,,,74,95
214200,note_off,0,0,0,,1,,,74,127
214202,note_on,2,0,0,,1,,,69,127
214202,note_on,0,0,0,,0,,,69,95
214202,note_on,0,0,0,,0,,,57,95
214409,note_off,207,0,0,,0,,,57,95
214409,note_off,0,0,0,,0,,,69,95
214409,note_off,0,0,0,,1,,,69,127
214411,note_on,2,0,0,,1,,,62,127
214411,note_on,0,0,0,,0,,,62,95
214411,note_on,0,0,0,,0,,,50,95
214618,note_off,207,0,0,,0,,,50,95
214618,note_off,0,0,0,,0,,,62,95
214618,note_off,0,0,0,,1,,,62,127
214620,note_on,2,0,0,,1,,,62,127
214620,note_on,0,0,0,,0,,,62,95
214620,note_on,0,0,0,,0,,,50,95
214827,note_off,207,0,0,,0,,,50,95
214827,note_off,0,0,0,,0,,,62,95
214827,note_off,0,0,0,,1,,,62,127
214829,note_on,2,0,0,,1,,,62,127
214829,note_on,0,0,0,,0,,,62,95
214829,note_on,0,0,0,,0,,,50,95
215036,note_off,207,0,0,,0,,,50,95
215036,note_off,0,0,0,,0,,,62,95
215036,note_off,0,0,0,,1,,,62,127
215038,note_on,2,0,0,,1,,,62,127
215038,note_on,0,0,0,,0,,,62,95
215038,note_on,0,0,0,,0,,,50,95
215245,note_off,207,0,0,,0,,,50,95
215245,note_off,0,0,0,,0,,,62,95
215245,note_off,0,0,0,,1,,,62,127
215247,note_on,2,0,0,,1,,,74,127
215247,note_on,0,0,0,,0,,,74,95
215247,note_on,0,0,0,,0,,,62,95
215454,note_off,207,0,0,,0,,,62,95
215454,note_off,0,0,0,,0,,,74,95
215454,note_off,0,0,0,,1,,,74,127
215456,note_on,2,0,0,,1,,,69,127
215456,note_on,0,0,0,,0,,,69,95
215456,note_on,0,0,0,,0,,,57,95
215663,note_off,207,0,0,,0,,,57,95
215663,note_off,0,0,0,,0,,,69,95
215663,note_off,0,0,0,,1,,,69,127
215665,note_on,2,0,0,,1,,,62,127
215665,note_on,0,0,0,,0,,,62,95
215665,note_on,0,0,0,,0,,,50,95
215872,note_off,207,0,0,,0,,,50,95
215872,note_off,0,0,0,,0,,,62,95
215872,note_off,0,0,0,,1,,,62,127
215874,note_on,2,0,0,,1,,,62,127
215874,note_on,0,0,0,,0,,,62,95
215874,note_on,0,0,0,,0,,,50,95
216081,note_off,207,0,0,,0,,,50,95
216081,note_off,0,0,0,,0,,,62,95
216081,note_off,0,0,0,,1,,,62,127
216083,note_on,2,0,0,,1,,,62,127
216083,note_on,0,0,0,,0,,,62,95
216083,note_on,0,0,0,,0,,,50,95
216290,note_off,207,0,0,,0,,,50,95
216290,note_off,0,0,0,,0,,,62,95
216290,note_off,0,0,0,,1,,,62,127
216292,note_on,2,0,0,,1,,,62,127
216292,note_on,0,0,0,,0,,,62,95
216292,note_on,0,0,0,,0,,,50,95
216499,note_off,207,0,0,,0,,,50,95
216501,note_on,2,0,0,,0,,,50,95
216604,note_off,103,0,0,,0,,,50,95
216606,note_on,2,0,0,,0,,,50,95
216709,note_off,103,0,0,,0,,,50,95
216711,note_on,2,0,0,,0,,,50,95
216814,note_off,103,0,0,,0,,,50,95
216816,note_on,2,0,0,,0,,,50,95
216919,note_off,103,0,0,,0,,,50,95
216919,note_off,0,0,0,,0,,,62,95
216919,note_off,0,0,0,,1,,,62,127
216921,note_on,2,0,0,,1,,,69,127
216921,note_on,0,0,0,,0,,,65,95
216921,note_on,0,0,0,,0,,,50,95
217128,note_off,207,0,0,,0,,,50,95
217130,note_on,2,0,0,,0,,,50,95
217233,note_off,103,0,0,,0,,,50,95
217235,note_on,2,0,0,,0,,,50,95
217338,note_off,103,0,0,,0,,,50,95
217340,note_on,2,0,0,,0,,,50,95
217443,note_off,103,0,0,,0,,,50,95
217445,note_on,2,0,0,,0,,,50,95
217548,note_off,103,0,0,,0,,,50,95
217548,note_off,0,0,0,,0,,,65,95
217548,note_off,0,0,0,,1,,,69,127
217550,note_on,2,0,0,,1,,,74,127
217550,note_on,0,0,0,,0,,,62,95
217550,note_on,0,0,0,,0,,,50,95
217763,note_off,213,0,0,,0,,,50,95
217763,note_off,0,0,0,,0,,,62,95
217763,note_off,0,0,0,,1,,,74,127
217765,note_on,2,0,0,,1,,,81,127
217765,note_on,0,0,0,,0,,,69,95
217765,note_on,0,0,0,,0,,,57,95
217978,note_off,213,0,0,,0,,,57,95
217978,note_off,0,0,0,,0,,,69,95
217978,note_off,0,0,0,,1,,,81,127
217980,note_on,2,0,0,,1,,,69,127
217980,note_on,0,0,0,,0,,,57,95
217980,note_on,0,0,0,,0,,,45,95
218193,note_off,213,0,0,,0,,,45,95
218193,note_off,0,0,0,,0,,,57,95
218193,note_off,0,0,0,,1,,,69,127
218195,note_on,2,0,0,,1,,,74,127
218195,note_on,0,0,0,,0,,,62,95
218195,note_on,0,0,0,,0,,,50,95
218438,note_off,243,0,0,,0,,,50,95
218438,note_off,0,0,0,,0,,,62,95
218438,note_off,0,0,0,,1,,,74,127
218440,note_on,2,0,0,,1,,,81,127
218440,note_on,0,0,0,,0,,,69,95
218440,note_on,0,0,0,,0,,,53,95
218683,note_off,243,0,0,,0,,,53,95
218683,note_off,0,0,0,,0,,,69,95
218683,note_off,0,0,0,,1,,,81,127
218685,note_on,2,0,0,,1,,,69,127
218685,note_on,0,0,0,,0,,,69,95
218685,note_on,0,0,0,,0,,,57,95
218973,note_off,288,0,0,,0,,,57,95
218973,note_off,0,0,0,,0,,,69,95
218973,note_off,0,0,0,,1,,,69,127
218994,note_on,21,0,0,,1,,,74,127
218994,note_on,0,0,0,,0,,,62,95
218994,note_on,0,0,0,,0,,,50,95
220392,note_off,1398,0,0,,0,,,50,95
220392,note_off,0,0,0,,0,,,62,95
220392,note_off,0,0,0,,1,,,74,127
222720,end_of_track,2328,1,0,,,,,,
