tick,type,time,meta,track,program,channel,pitch,tempo,note,velocity
0,copyright,0,1,0,,,,,,
0,program_change,0,0,0,6,0,,,,
0,pitchwheel,0,0,0,,0,0,,,
0,program_change,0,0,0,6,1,,,,
0,pitchwheel,0,0,0,,1,0,,,
0,program_change,0,0,0,6,2,,,,
0,pitchwheel,0,0,0,,2,0,,,
0,program_change,0,0,0,6,3,,,,
0,pitchwheel,0,0,0,,3,0,,,
0,program_change,0,0,0,6,4,,,,
0,pitchwheel,0,0,0,,4,0,,,
0,program_change,0,0,0,6,5,,,,
0,pitchwheel,0,0,0,,5,0,,,
0,program_change,0,0,0,6,6,,,,
0,pitchwheel,0,0,0,,6,0,,,
0,program_change,0,0,0,6,7,,,,
0,pitchwheel,0,0,0,,7,0,,,
0,program_change,0,0,0,6,8,,,,
0,pitchwheel,0,0,0,,8,0,,,
0,set_tempo,0,1,0,,,,500000,,
96,note_on,96,0,0,,0,,,62,95
96,note_on,0,0,0,,0,,,65,95
96,note_on,0,0,0,,0,,,69,95
96,note_on,0,0,0,,1,,,74,127
642,note_off,546,0,0,,1,,,74,127
642,note_off,0,0,0,,0,,,62,95
645,note_on,3,0,0,,0,,,50,95
645,note_on,0,0,0,,0,,,62,95
645,note_on,0,0,0,,1,,,62,127
916,note_off,271,0,0,,0,,,50,95
916,note_off,0,0,0,,0,,,69,95
916,note_off,0,0,0,,0,,,65,95
919,note_on,3,0,0,,0,,,52,95
919,note_on,0,0,0,,0,,,67,95
1190,note_off,271,0,0,,0,,,67,95
1190,note_off,0,0,0,,0,,,52,95
1190,note_off,0,0,0,,1,,,62,127
1190,note_on,0,0,0,,0,,,53,95
1190,note_on,0,0,0,,0,,,69,95
1736,note_off,546,0,0,,0,,,53,95
1739,note_off,3,0,0,,0,,,62,95
1742,note_on,3,0,0,,0,,,50,95
1742,note_on,0,0,0,,0,,,65,95
1742,note_on,0,0,0,,1,,,77,127
2285,note_off,543,0,0,,0,,,69,95
2288,note_off,3,0,0,,1,,,77,127
2288,note_off,0,0,0,,0,,,65,95
2288,note_off,0,0,0,,0,,,50,95
2291,note_on,3,0,0,,0,,,57,95
2291,note_on,0,0,0,,0,,,64,95
2291,note_on,0,0,0,,0,,,73,95
2291,note_on,0,0,0,,1,,,76,127
2425,note_off,134,0,0,,1,,,76,127
2428,note_on,3,0,0,,1,,,74,127
2562,note_off,134,0,0,,1,,,74,127
2565,note_on,3,0,0,,1,,,73,127
2836,note_off,271,0,0,,1,,,73,127
2836,note_off,0,0,0,,0,,,73,95
2836,note_off,0,0,0,,0,,,64,95
2836,note_off,0,0,0,,0,,,57,95
2839,note_on,3,0,0,,0,,,58,95
2839,note_on,0,0,0,,0,,,62,95
2839,note_on,0,0,0,,0,,,67,95
2839,note_on,0,0,0,,1,,,74,127
3385,note_off,546,0,0,,1,,,74,127
3385,note_off,0,0,0,,0,,,67,95
3385,note_off,0,0,0,,0,,,58,95
3388,note_on,3,0,0,,0,,,54,95
3388,note_on,0,0,0,,0,,,69,95
3388,note_on,0,0,0,,1,,,72,127
3522,note_off,134,0,0,,1,,,72,127
3525,note_on,3,0,0,,1,,,70,127
3659,note_off,134,0,0,,1,,,70,127
3662,note_on,3,0,0,,1,,,69,127
3933,note_off,271,0,0,,1,,,69,127
3933,note_off,0,0,0,,0,,,69,95
3933,note_off,0,0,0,,0,,,54,95
3933,note_off,0,0,0,,0,,,62,95
3936,note_on,3,0,0,,0,,,55,95
3936,note_on,0,0,0,,0,,,62,95
3936,note_on,0,0,0,,0,,,67,95
3936,note_on,0,0,0,,1,,,70,127
4482,note_off,546,0,0,,1,,,70,127
4482,note_off,0,0,0,,0,,,62,95
4482,note_off,0,0,0,,0,,,55,95
4485,note_on,3,0,0,,0,,,49,95
4485,note_on,0,0,0,,0,,,64,95
4485,note_on,0,0,0,,1,,,69,127
4619,note_off,134,0,0,,1,,,69,127
4622,note_on,3,0,0,,1,,,73,127
4756,note_off,134,0,0,,1,,,73,127
4759,note_on,3,0,0,,1,,,76,127
5030,note_off,271,0,0,,0,,,49,95
5030,note_off,0,0,0,,0,,,67,95
5033,note_on,3,0,0,,0,,,58,95
5033,note_on,0,0,0,,0,,,67,95
5579,note_off,546,0,0,,0,,,67,95
5579,note_off,0,0,0,,0,,,58,95
5582,note_on,3,0,0,,0,,,57,95
5582,note_on,0,0,0,,0,,,61,95
6128,note_off,546,0,0,,0,,,57,95
6128,note_off,0,0,0,,1,,,76,127
6128,note_off,0,0,0,,0,,,64,95
6131,note_on,3,0,0,,0,,,55,95
6131,note_on,0,0,0,,0,,,64,95
6131,note_on,0,0,0,,1,,,70,127
6677,note_off,546,0,0,,1,,,70,127
6677,note_off,0,0,0,,0,,,64,95
6677,note_off,0,0,0,,0,,,55,95
6677,note_off,0,0,0,,0,,,61,95
6680,note_on,3,0,0,,0,,,53,95
6680,note_on,0,0,0,,0,,,62,95
6680,note_on,0,0,0,,1,,,69,127
6814,note_off,134,0,0,,1,,,69,127
6817,note_on,3,0,0,,1,,,67,127
6951,note_off,134,0,0,,1,,,67,127
6954,note_on,3,0,0,,1,,,65,127
7225,note_off,271,0,0,,1,,,65,127
7225,note_off,0,0,0,,0,,,53,95
7228,note_on,3,0,0,,0,,,46,95
7228,note_on,0,0,0,,0,,,67,95
7228,note_on,0,0,0,,1,,,67,127
7774,note_off,546,0,0,,1,,,67,127
7774,note_off,0,0,0,,0,,,67,95
7774,note_off,0,0,0,,0,,,46,95
7777,note_on,3,0,0,,0,,,45,95
7777,note_on,0,0,0,,0,,,69,95
7777,note_on,0,0,0,,1,,,65,127
7911,note_off,134,0,0,,1,,,65,127
7914,note_on,3,0,0,,1,,,64,127
8048,note_off,134,0,0,,1,,,64,127
8051,note_on,3,0,0,,1,,,62,127
8322,note_off,271,0,0,,1,,,62,127
8322,note_off,0,0,0,,0,,,45,95
8322,note_off,0,0,0,,0,,,62,95
8325,note_on,3,0,0,,0,,,43,95
8325,note_on,0,0,0,,0,,,61,95
8325,note_on,0,0,0,,1,,,64,127
8871,note_off,546,0,0,,1,,,64,127
8871,note_off,0,0,0,,0,,,61,95
8871,note_off,0,0,0,,0,,,43,95
8874,note_on,3,0,0,,0,,,41,95
8874,note_on,0,0,0,,0,,,57,95
8874,note_on,0,0,0,,1,,,62,127
9420,note_off,546,0,0,,0,,,41,95
9420,note_off,0,0,0,,0,,,69,95
9423,note_on,3,0,0,,0,,,38,95
9423,note_on,0,0,0,,0,,,65,95
9969,note_off,546,0,0,,0,,,38,95
9969,note_off,0,0,0,,1,,,62,127
9969,note_off,0,0,0,,0,,,57,95
9972,note_on,3,0,0,,0,,,50,95
10518,note_off,546,0,0,,0,,,50,95
10518,note_off,0,0,0,,0,,,65,95
10521,note_on,3,0,0,,0,,,53,95
10521,note_on,0,0,0,,0,,,62,95
10521,note_on,0,0,0,,1,,,69,127
11067,note_off,546,0,0,,1,,,69,127
11067,note_off,0,0,0,,0,,,62,95
11067,note_off,0,0,0,,0,,,53,95
11070,note_on,3,0,0,,0,,,55,95
11070,note_on,0,0,0,,0,,,62,95
11070,note_on,0,0,0,,0,,,67,95
11070,note_on,0,0,0,,1,,,70,127
11341,note_off,271,0,0,,1,,,70,127
11344,note_on,3,0,0,,1,,,72,127
11478,note_off,134,0,0,,1,,,72,127
11481,note_on,3,0,0,,1,,,74,127
11615,note_off,134,0,0,,1,,,74,127
11615,note_off,0,0,0,,0,,,67,95
11615,note_off,0,0,0,,0,,,55,95
11618,note_on,3,0,0,,0,,,53,95
11618,note_on,0,0,0,,0,,,69,95
11618,note_on,0,0,0,,1,,,74,127
12164,note_off,546,0,0,,0,,,69,95
12164,note_off,0,0,0,,0,,,53,95
12164,note_off,0,0,0,,0,,,62,95
12167,note_on,3,0,0,,0,,,52,95
12167,note_on,0,0,0,,0,,,67,95
12713,note_off,546,0,0,,0,,,67,95
12713,note_off,0,0,0,,0,,,52,95
12713,note_off,0,0,0,,1,,,74,127
12716,note_on,3,0,0,,0,,,50,95
12716,note_on,0,0,0,,0,,,65,95
12716,note_on,0,0,0,,1,,,72,127
12987,note_off,271,0,0,,1,,,72,127
12990,note_on,3,0,0,,1,,,71,127
13261,note_off,271,0,0,,1,,,71,127
13261,note_off,0,0,0,,0,,,65,95
13261,note_off,0,0,0,,0,,,50,95
13264,note_on,3,0,0,,0,,,52,95
13264,note_on,0,0,0,,0,,,67,95
13264,note_on,0,0,0,,1,,,72,127
13398,note_off,134,0,0,,1,,,72,127
13401,note_on,3,0,0,,1,,,76,127
13535,note_off,134,0,0,,1,,,76,127
13538,note_on,3,0,0,,1,,,79,127
13809,note_off,271,0,0,,0,,,52,95
13812,note_on,3,0,0,,0,,,50,95
13812,note_on,0,0,0,,0,,,65,95
14358,note_off,546,0,0,,0,,,65,95
14358,note_off,0,0,0,,0,,,50,95
14361,note_on,3,0,0,,0,,,48,95
14361,note_on,0,0,0,,0,,,64,95
14907,note_off,546,0,0,,0,,,64,95
14907,note_off,0,0,0,,0,,,48,95
14907,note_off,0,0,0,,0,,,67,95
14910,note_on,3,0,0,,0,,,52,95
14910,note_on,0,0,0,,0,,,60,95
14910,note_on,0,0,0,,0,,,67,95
15181,note_off,271,0,0,,1,,,79,127
15184,note_on,3,0,0,,1,,,70,127
15455,note_off,271,0,0,,1,,,70,127
15455,note_off,0,0,0,,0,,,67,95
15455,note_off,0,0,0,,0,,,60,95
15455,note_off,0,0,0,,0,,,52,95
15458,note_on,3,0,0,,0,,,53,95
15458,note_on,0,0,0,,0,,,60,95
15458,note_on,0,0,0,,1,,,69,127
15592,note_off,134,0,0,,1,,,69,127
15595,note_on,3,0,0,,1,,,70,127
15729,note_off,134,0,0,,1,,,70,127
15732,note_on,3,0,0,,1,,,72,127
16003,note_off,271,0,0,,0,,,53,95
16006,note_on,3,0,0,,0,,,45,95
16006,note_on,0,0,0,,0,,,65,95
16140,note_off,134,0,0,,1,,,72,127
16143,note_on,3,0,0,,1,,,70,127
16277,note_off,134,0,0,,1,,,70,127
16280,note_on,3,0,0,,1,,,69,127
16551,note_off,271,0,0,,1,,,69,127
16551,note_off,0,0,0,,0,,,45,95
16551,note_off,0,0,0,,0,,,60,95
16554,note_on,3,0,0,,0,,,46,95
16554,note_on,0,0,0,,1,,,67,127
16688,note_off,134,0,0,,1,,,67,127
16691,note_on,3,0,0,,1,,,69,127
16825,note_off,134,0,0,,1,,,69,127
16828,note_on,3,0,0,,1,,,70,127
17099,note_off,271,0,0,,0,,,46,95
17099,note_off,0,0,0,,0,,,65,95
17102,note_on,3,0,0,,0,,,48,95
17102,note_on,0,0,0,,0,,,64,95
17236,note_off,134,0,0,,1,,,70,127
17239,note_on,3,0,0,,1,,,69,127
17373,note_off,134,0,0,,1,,,69,127
17376,note_on,3,0,0,,1,,,67,127
17647,note_off,271,0,0,,1,,,67,127
17647,note_off,0,0,0,,0,,,64,95
17647,note_off,0,0,0,,0,,,48,95
17650,note_on,3,0,0,,0,,,41,95
17650,note_on,0,0,0,,0,,,60,95
17650,note_on,0,0,0,,1,,,69,127
17784,note_off,134,0,0,,1,,,69,127
17787,note_on,3,0,0,,1,,,70,127
17921,note_off,134,0,0,,1,,,70,127
17924,note_on,3,0,0,,1,,,72,127
18195,note_off,271,0,0,,0,,,41,95
18198,note_on,3,0,0,,0,,,45,95
18198,note_on,0,0,0,,0,,,65,95
18332,note_off,134,0,0,,1,,,72,127
18335,note_on,3,0,0,,1,,,70,127
18469,note_off,134,0,0,,1,,,70,127
18472,note_on,3,0,0,,1,,,69,127
18743,note_off,271,0,0,,1,,,69,127
18743,note_off,0,0,0,,0,,,45,95
18743,note_off,0,0,0,,0,,,60,95
18746,note_on,3,0,0,,0,,,46,95
18746,note_on,0,0,0,,0,,,62,95
18746,note_on,0,0,0,,1,,,74,127
18880,note_off,134,0,0,,1,,,74,127
18883,note_on,3,0,0,,1,,,76,127
19017,note_off,134,0,0,,1,,,76,127
19020,note_on,3,0,0,,1,,,77,127
19291,note_off,271,0,0,,0,,,46,95
19291,note_off,0,0,0,,0,,,65,95
19294,note_on,3,0,0,,0,,,50,95
19294,note_on,0,0,0,,0,,,70,95
19428,note_off,134,0,0,,1,,,77,127
19431,note_on,3,0,0,,1,,,76,127
19565,note_off,134,0,0,,1,,,76,127
19568,note_on,3,0,0,,1,,,74,127
19839,note_off,271,0,0,,1,,,74,127
19839,note_off,0,0,0,,0,,,70,95
19839,note_off,0,0,0,,0,,,50,95
19839,note_off,0,0,0,,0,,,62,95
19842,note_on,3,0,0,,0,,,52,95
19842,note_on,0,0,0,,0,,,67,95
19842,note_on,0,0,0,,1,,,72,127
19976,note_off,134,0,0,,1,,,72,127
19979,note_on,3,0,0,,1,,,76,127
20113,note_off,134,0,0,,1,,,76,127
20116,note_on,3,0,0,,1,,,79,127
20387,note_off,271,0,0,,0,,,52,95
20390,note_on,3,0,0,,0,,,50,95
20390,note_on,0,0,0,,0,,,65,95
20936,note_off,546,0,0,,0,,,65,95
20936,note_off,0,0,0,,0,,,50,95
20939,note_on,3,0,0,,0,,,48,95
20939,note_on,0,0,0,,0,,,64,95
21485,note_off,546,0,0,,0,,,48,95
21485,note_off,0,0,0,,0,,,67,95
21488,note_on,3,0,0,,0,,,52,95
21488,note_on,0,0,0,,0,,,67,95
21759,note_off,271,0,0,,1,,,79,127
21762,note_on,3,0,0,,1,,,70,127
22033,note_off,271,0,0,,1,,,70,127
22033,note_off,0,0,0,,0,,,67,95
22033,note_off,0,0,0,,0,,,52,95
22033,note_off,0,0,0,,0,,,64,95
22036,note_on,3,0,0,,0,,,53,95
22036,note_on,0,0,0,,0,,,60,95
22036,note_on,0,0,0,,1,,,69,127
22170,note_off,134,0,0,,1,,,69,127
22173,note_on,3,0,0,,1,,,67,127
22307,note_off,134,0,0,,1,,,67,127
22310,note_on,3,0,0,,1,,,69,127
22581,note_off,271,0,0,,1,,,69,127
22581,note_off,0,0,0,,0,,,60,95
22581,note_off,0,0,0,,0,,,53,95
22584,note_on,3,0,0,,0,,,46,95
22584,note_on,0,0,0,,0,,,62,95
22584,note_on,0,0,0,,0,,,67,95
22584,note_on,0,0,0,,1,,,70,127
22718,note_off,134,0,0,,1,,,70,127
22721,note_on,3,0,0,,1,,,69,127
22855,note_off,134,0,0,,1,,,69,127
22858,note_on,3,0,0,,1,,,67,127
23129,note_off,271,0,0,,1,,,67,127
23129,note_off,0,0,0,,0,,,67,95
23129,note_off,0,0,0,,0,,,62,95
23129,note_off,0,0,0,,0,,,46,95
23132,note_on,3,0,0,,0,,,48,95
23132,note_on,0,0,0,,0,,,60,95
23132,note_on,0,0,0,,0,,,65,95
23132,note_on,0,0,0,,1,,,69,127
23698,note_off,566,0,0,,1,,,69,127
23698,note_off,0,0,0,,0,,,65,95
23698,note_off,0,0,0,,0,,,48,95
23701,note_on,3,0,0,,1,,,67,127
23701,note_on,0,0,0,,0,,,48,95
23701,note_on,0,0,0,,0,,,64,95
24271,note_off,570,0,0,,0,,,64,95
24271,note_off,0,0,0,,0,,,48,95
24271,note_off,0,0,0,,1,,,67,127
24281,note_off,10,0,0,,0,,,60,95
24286,note_on,5,0,0,,0,,,53,95
24286,note_on,0,0,0,,0,,,69,95
24286,note_on,0,0,0,,0,,,72,95
24286,note_on,0,0,0,,1,,,77,127
24832,note_off,546,0,0,,1,,,77,127
24832,note_off,0,0,0,,0,,,53,95
24835,note_on,3,0,0,,0,,,41,95
24835,note_on,0,0,0,,0,,,65,95
24835,note_on,0,0,0,,1,,,65,127
25106,note_off,271,0,0,,0,,,41,95
25109,note_on,3,0,0,,0,,,43,95
25380,note_off,271,0,0,,0,,,43,95
25380,note_off,0,0,0,,1,,,65,127
25380,note_off,0,0,0,,0,,,65,95
25380,note_off,0,0,0,,0,,,72,95
25380,note_off,0,0,0,,0,,,69,95
25383,note_on,3,0,0,,0,,,45,95
25929,note_off,546,0,0,,0,,,45,95
25932,note_on,3,0,0,,0,,,41,95
25932,note_on,0,0,0,,0,,,69,95
25932,note_on,0,0,0,,1,,,77,127
26478,note_off,546,0,0,,1,,,77,127
26478,note_off,0,0,0,,0,,,69,95
26478,note_off,0,0,0,,0,,,41,95
26481,note_on,3,0,0,,0,,,60,95
26481,note_on,0,0,0,,0,,,67,95
26481,note_on,0,0,0,,1,,,76,127
26615,note_off,134,0,0,,1,,,76,127
26618,note_on,3,0,0,,1,,,74,127
26752,note_off,134,0,0,,1,,,74,127
26755,note_on,3,0,0,,1,,,72,127
27026,note_off,271,0,0,,1,,,72,127
27026,note_off,0,0,0,,0,,,60,95
27029,note_on,3,0,0,,0,,,58,95
27029,note_on,0,0,0,,1,,,74,127
27575,note_off,546,0,0,,1,,,74,127
27575,note_off,0,0,0,,0,,,58,95
27575,note_off,0,0,0,,0,,,67,95
27578,note_on,3,0,0,,0,,,57,95
27578,note_on,0,0,0,,0,,,65,95
27578,note_on,0,0,0,,1,,,72,127
27712,note_off,134,0,0,,1,,,72,127
27715,note_on,3,0,0,,1,,,70,127
27849,note_off,134,0,0,,1,,,70,127
27852,note_on,3,0,0,,1,,,69,127
28123,note_off,271,0,0,,1,,,69,127
28123,note_off,0,0,0,,0,,,65,95
28123,note_off,0,0,0,,0,,,57,95
28126,note_on,3,0,0,,0,,,55,95
28126,note_on,0,0,0,,0,,,64,95
28126,note_on,0,0,0,,1,,,70,127
28397,note_off,271,0,0,,0,,,64,95
28397,note_off,0,0,0,,0,,,55,95
28400,note_on,3,0,0,,0,,,53,95
28400,note_on,0,0,0,,0,,,65,95
28671,note_off,271,0,0,,0,,,65,95
28671,note_off,0,0,0,,0,,,53,95
28671,note_off,0,0,0,,1,,,70,127
28674,note_on,3,0,0,,0,,,52,95
28674,note_on,0,0,0,,0,,,67,95
28674,note_on,0,0,0,,1,,,70,127
29220,note_off,546,0,0,,1,,,70,127
29220,note_off,0,0,0,,0,,,67,95
29220,note_off,0,0,0,,0,,,52,95
29223,note_on,3,0,0,,0,,,53,95
29223,note_on,0,0,0,,0,,,60,95
29223,note_on,0,0,0,,1,,,69,127
29494,note_off,271,0,0,,0,,,53,95
29497,note_on,3,0,0,,0,,,52,95
29768,note_off,271,0,0,,0,,,52,95
29768,note_off,0,0,0,,1,,,69,127
29771,note_on,3,0,0,,0,,,53,95
29771,note_on,0,0,0,,0,,,65,95
30317,note_off,546,0,0,,0,,,53,95
30317,note_off,0,0,0,,0,,,60,95
30320,note_on,3,0,0,,0,,,41,95
30320,note_on,0,0,0,,0,,,62,95
30320,note_on,0,0,0,,1,,,69,127
30866,note_off,546,0,0,,1,,,69,127
30866,note_off,0,0,0,,0,,,41,95
30866,note_off,0,0,0,,0,,,65,95
30869,note_on,3,0,0,,0,,,43,95
30869,note_on,0,0,0,,1,,,71,127
31003,note_off,134,0,0,,1,,,71,127
31006,note_on,3,0,0,,1,,,72,127
31140,note_off,134,0,0,,1,,,72,127
31143,note_on,3,0,0,,1,,,74,127
31414,note_off,271,0,0,,0,,,43,95
31414,note_off,0,0,0,,0,,,62,95
31417,note_on,3,0,0,,0,,,55,95
31417,note_on,0,0,0,,0,,,71,95
31551,note_off,134,0,0,,1,,,74,127
31554,note_on,3,0,0,,1,,,76,127
31688,note_off,134,0,0,,1,,,76,127
31691,note_on,3,0,0,,1,,,77,127
31962,note_off,271,0,0,,0,,,55,95
31965,note_on,3,0,0,,0,,,55,95
31965,note_on,0,0,0,,0,,,74,95
32099,note_off,134,0,0,,1,,,77,127
32102,note_on,3,0,0,,1,,,76,127
32236,note_off,134,0,0,,1,,,76,127
32239,note_on,3,0,0,,1,,,74,127
32510,note_off,271,0,0,,0,,,74,95
32510,note_off,0,0,0,,0,,,55,95
32513,note_on,3,0,0,,0,,,53,95
32513,note_on,0,0,0,,0,,,62,95
32647,note_off,134,0,0,,1,,,74,127
32650,note_on,3,0,0,,1,,,72,127
32784,note_off,134,0,0,,1,,,72,127
32787,note_on,3,0,0,,1,,,71,127
33058,note_off,271,0,0,,1,,,71,127
33058,note_off,0,0,0,,0,,,62,95
33058,note_off,0,0,0,,0,,,53,95
33058,note_off,0,0,0,,0,,,71,95
33061,note_on,3,0,0,,0,,,52,95
33061,note_on,0,0,0,,0,,,67,95
33061,note_on,0,0,0,,1,,,72,127
33607,note_off,546,0,0,,1,,,72,127
33607,note_off,0,0,0,,0,,,52,95
33610,note_on,3,0,0,,0,,,48,95
33610,note_on,0,0,0,,0,,,64,95
33610,note_on,0,0,0,,1,,,60,127
34156,note_off,546,0,0,,1,,,60,127
34156,note_off,0,0,0,,0,,,48,95
34159,note_on,3,0,0,,0,,,60,95
34705,note_off,546,0,0,,0,,,60,95
34705,note_off,0,0,0,,0,,,64,95
34705,note_off,0,0,0,,0,,,67,95
34708,note_on,3,0,0,,0,,,58,95
34708,note_on,0,0,0,,0,,,67,95
34708,note_on,0,0,0,,1,,,74,127
35254,note_off,546,0,0,,1,,,74,127
35254,note_off,0,0,0,,0,,,67,95
35254,note_off,0,0,0,,0,,,58,95
35257,note_on,3,0,0,,0,,,57,95
35257,note_on,0,0,0,,0,,,64,95
35257,note_on,0,0,0,,1,,,73,127
35391,note_off,134,0,0,,1,,,73,127
35394,note_on,3,0,0,,1,,,74,127
35528,note_off,134,0,0,,1,,,74,127
35531,note_on,3,0,0,,1,,,76,127
35802,note_off,271,0,0,,0,,,57,95
35805,note_on,3,0,0,,0,,,45,95
35805,note_on,0,0,0,,0,,,73,95
35939,note_off,134,0,0,,1,,,76,127
35942,note_on,3,0,0,,1,,,77,127
36076,note_off,134,0,0,,1,,,77,127
36079,note_on,3,0,0,,1,,,79,127
36350,note_off,271,0,0,,0,,,45,95
36353,note_on,3,0,0,,0,,,57,95
36487,note_off,134,0,0,,1,,,79,127
36490,note_on,3,0,0,,1,,,77,127
36624,note_off,134,0,0,,1,,,77,127
36627,note_on,3,0,0,,1,,,76,127
36898,note_off,271,0,0,,0,,,57,95
36898,note_off,0,0,0,,0,,,73,95
36898,note_off,0,0,0,,0,,,64,95
36901,note_on,3,0,0,,0,,,49,95
36901,note_on,0,0,0,,0,,,69,95
37035,note_off,134,0,0,,1,,,76,127
37038,note_on,3,0,0,,1,,,74,127
37172,note_off,134,0,0,,1,,,74,127
37175,note_on,3,0,0,,1,,,76,127
37446,note_off,271,0,0,,1,,,76,127
37446,note_off,0,0,0,,0,,,49,95
37449,note_on,3,0,0,,0,,,50,95
37449,note_on,0,0,0,,1,,,77,127
37583,note_off,134,0,0,,1,,,77,127
37586,note_on,3,0,0,,1,,,76,127
37720,note_off,134,0,0,,1,,,76,127
37723,note_on,3,0,0,,1,,,74,127
37994,note_off,271,0,0,,0,,,50,95
37994,note_off,0,0,0,,0,,,69,95
37997,note_on,3,0,0,,0,,,52,95
37997,note_on,0,0,0,,0,,,67,95
38543,note_off,546,0,0,,0,,,67,95
38543,note_off,0,0,0,,0,,,52,95
38546,note_on,3,0,0,,0,,,53,95
38546,note_on,0,0,0,,0,,,69,95
39092,note_off,546,0,0,,0,,,53,95
39092,note_off,0,0,0,,1,,,74,127
39095,note_on,3,0,0,,0,,,50,95
39095,note_on,0,0,0,,0,,,65,95
39095,note_on,0,0,0,,1,,,77,127
39641,note_off,546,0,0,,1,,,77,127
39641,note_off,0,0,0,,0,,,65,95
39641,note_off,0,0,0,,0,,,50,95
39641,note_off,0,0,0,,0,,,69,95
39644,note_on,3,0,0,,0,,,48,95
39644,note_on,0,0,0,,0,,,69,95
39644,note_on,0,0,0,,0,,,64,95
39644,note_on,0,0,0,,1,,,76,127
39778,note_off,134,0,0,,1,,,76,127
39781,note_on,3,0,0,,1,,,74,127
39915,note_off,134,0,0,,1,,,74,127
39918,note_on,3,0,0,,1,,,72,127
40189,note_off,271,0,0,,1,,,72,127
40189,note_off,0,0,0,,0,,,64,95
40189,note_off,0,0,0,,0,,,69,95
40189,note_off,0,0,0,,0,,,48,95
40192,note_on,3,0,0,,0,,,47,95
40192,note_on,0,0,0,,0,,,62,95
40192,note_on,0,0,0,,1,,,68,127
40463,note_off,271,0,0,,1,,,68,127
40466,note_on,3,0,0,,1,,,69,127
40737,note_off,271,0,0,,0,,,62,95
40737,note_off,0,0,0,,0,,,47,95
40740,note_on,3,0,0,,0,,,48,95
40740,note_on,0,0,0,,0,,,64,95
41286,note_off,546,0,0,,0,,,48,95
41286,note_off,0,0,0,,1,,,69,127
41289,note_on,3,0,0,,0,,,45,95
41289,note_on,0,0,0,,1,,,72,127
41423,note_off,134,0,0,,1,,,72,127
41426,note_on,3,0,0,,1,,,74,127
41560,note_off,134,0,0,,1,,,74,127
41563,note_on,3,0,0,,1,,,76,127
41834,note_off,271,0,0,,1,,,76,127
41834,note_off,0,0,0,,0,,,45,95
41834,note_off,0,0,0,,0,,,64,95
41837,note_on,3,0,0,,0,,,50,95
41837,note_on,0,0,0,,0,,,59,95
41837,note_on,0,0,0,,1,,,74,127
41971,note_off,134,0,0,,1,,,74,127
41974,note_on,3,0,0,,1,,,72,127
42108,note_off,134,0,0,,1,,,72,127
42111,note_on,3,0,0,,1,,,71,127
42382,note_off,271,0,0,,1,,,71,127
42382,note_off,0,0,0,,0,,,50,95
42385,note_on,3,0,0,,0,,,48,95
42385,note_on,0,0,0,,1,,,66,127
42587,note_off,202,0,0,,0,,,59,95
42656,note_off,69,0,0,,1,,,66,127
42659,note_on,3,0,0,,1,,,68,127
42930,note_off,271,0,0,,0,,,48,95
42933,note_on,3,0,0,,0,,,50,95
42933,note_on,0,0,0,,0,,,71,95
43479,note_off,546,0,0,,0,,,50,95
43479,note_off,0,0,0,,1,,,68,127
43482,note_on,3,0,0,,0,,,40,95
43482,note_on,0,0,0,,0,,,68,95
43482,note_on,0,0,0,,1,,,71,127
43616,note_off,134,0,0,,0,,,71,95
43619,note_on,3,0,0,,1,,,72,127
43753,note_off,134,0,0,,1,,,72,127
43756,note_on,3,0,0,,1,,,74,127
44027,note_off,271,0,0,,1,,,74,127
44027,note_off,0,0,0,,1,,,71,127
44027,note_off,0,0,0,,0,,,68,95
44027,note_off,0,0,0,,0,,,40,95
44030,note_on,3,0,0,,0,,,45,95
44030,note_on,0,0,0,,0,,,64,95
44030,note_on,0,0,0,,1,,,72,127
44164,note_off,134,0,0,,1,,,72,127
44167,note_on,3,0,0,,1,,,74,127
44301,note_off,134,0,0,,1,,,74,127
44304,note_on,3,0,0,,1,,,76,127
44575,note_off,271,0,0,,0,,,45,95
44578,note_on,3,0,0,,0,,,48,95
44578,note_on,0,0,0,,0,,,69,95
44712,note_off,134,0,0,,1,,,76,127
44715,note_on,3,0,0,,1,,,74,127
44849,note_off,134,0,0,,1,,,74,127
44852,note_on,3,0,0,,1,,,72,127
45123,note_off,271,0,0,,1,,,72,127
45123,note_off,0,0,0,,0,,,48,95
45123,note_off,0,0,0,,0,,,64,95
45126,note_on,3,0,0,,0,,,50,95
45126,note_on,0,0,0,,0,,,65,95
45126,note_on,0,0,0,,1,,,71,127
45260,note_off,134,0,0,,1,,,71,127
45263,note_on,3,0,0,,1,,,72,127
45397,note_off,134,0,0,,1,,,72,127
45400,note_on,3,0,0,,1,,,74,127
45671,note_off,271,0,0,,0,,,65,95
45671,note_off,0,0,0,,0,,,50,95
45671,note_off,0,0,0,,0,,,69,95
45674,note_on,3,0,0,,0,,,52,95
45674,note_on,0,0,0,,0,,,68,95
45808,note_off,134,0,0,,1,,,74,127
45811,note_on,3,0,0,,1,,,72,127
45945,note_off,134,0,0,,1,,,72,127
45948,note_on,3,0,0,,1,,,71,127
46219,note_off,271,0,0,,1,,,71,127
46219,note_off,0,0,0,,0,,,68,95
46219,note_off,0,0,0,,0,,,52,95
46222,note_on,3,0,0,,0,,,45,95
46222,note_on,0,0,0,,0,,,64,95
46222,note_on,0,0,0,,1,,,72,127
46356,note_off,134,0,0,,1,,,72,127
46359,note_on,3,0,0,,1,,,74,127
46493,note_off,134,0,0,,1,,,74,127
46496,note_on,3,0,0,,1,,,76,127
46767,note_off,271,0,0,,0,,,45,95
46770,note_on,3,0,0,,0,,,48,95
46770,note_on,0,0,0,,0,,,69,95
46904,note_off,134,0,0,,1,,,76,127
46907,note_on,3,0,0,,1,,,74,127
47041,note_off,134,0,0,,1,,,74,127
47044,note_on,3,0,0,,1,,,72,127
47315,note_off,271,0,0,,1,,,72,127
47315,note_off,0,0,0,,0,,,48,95
47315,note_off,0,0,0,,0,,,64,95
47318,note_on,3,0,0,,0,,,50,95
47318,note_on,0,0,0,,0,,,65,95
47318,note_on,0,0,0,,1,,,71,127
47873,note_off,555,0,0,,1,,,71,127
47873,note_off,0,0,0,,0,,,50,95
47873,note_off,0,0,0,,0,,,69,95
47876,note_on,3,0,0,,0,,,53,95
47876,note_on,0,0,0,,0,,,62,95
47876,note_on,0,0,0,,1,,,69,127
48431,note_off,555,0,0,,1,,,69,127
48431,note_off,0,0,0,,0,,,62,95
48431,note_off,0,0,0,,0,,,53,95
48431,note_off,0,0,0,,0,,,65,95
48434,note_on,3,0,0,,0,,,52,95
48434,note_on,0,0,0,,0,,,59,95
48434,note_on,0,0,0,,1,,,68,127
48568,note_off,134,0,0,,1,,,68,127
48571,note_on,3,0,0,,1,,,69,127
48705,note_off,134,0,0,,1,,,69,127
48708,note_on,3,0,0,,1,,,71,127
48979,note_off,271,0,0,,0,,,52,95
48982,note_on,3,0,0,,0,,,40,95
48982,note_on,0,0,0,,0,,,68,95
49116,note_off,134,0,0,,1,,,71,127
49119,note_on,3,0,0,,1,,,72,127
49253,note_off,134,0,0,,1,,,72,127
49256,note_on,3,0,0,,1,,,74,127
49527,note_off,271,0,0,,0,,,68,95
49527,note_off,0,0,0,,0,,,40,95
49527,note_off,0,0,0,,0,,,59,95
49530,note_on,3,0,0,,0,,,52,95
49530,note_on,0,0,0,,0,,,71,95
49664,note_off,134,0,0,,1,,,74,127
49667,note_on,3,0,0,,1,,,76,127
49801,note_off,134,0,0,,1,,,76,127
49804,note_on,3,0,0,,1,,,77,127
50075,note_off,271,0,0,,0,,,52,95
50078,note_on,3,0,0,,0,,,44,95
50078,note_on,0,0,0,,0,,,64,95
50212,note_off,134,0,0,,1,,,77,127
50215,note_on,3,0,0,,1,,,76,127
50349,note_off,134,0,0,,1,,,76,127
50352,note_on,3,0,0,,1,,,74,127
50623,note_off,271,0,0,,1,,,74,127
50623,note_off,0,0,0,,0,,,44,95
50623,note_off,0,0,0,,0,,,71,95
50626,note_on,3,0,0,,0,,,45,95
50626,note_on,0,0,0,,0,,,69,95
50626,note_on,0,0,0,,1,,,72,127
50760,note_off,134,0,0,,1,,,72,127
50763,note_on,3,0,0,,1,,,71,127
50897,note_off,134,0,0,,1,,,71,127
50900,note_on,3,0,0,,1,,,72,127
51171,note_off,271,0,0,,1,,,72,127
51171,note_off,0,0,0,,0,,,69,95
51171,note_off,0,0,0,,0,,,45,95
51171,note_off,0,0,0,,0,,,64,95
51174,note_on,3,0,0,,0,,,50,95
51174,note_on,0,0,0,,0,,,65,95
51174,note_on,0,0,0,,0,,,69,95
51174,note_on,0,0,0,,1,,,74,127
51308,note_off,134,0,0,,1,,,74,127
51311,note_on,3,0,0,,1,,,72,127
51445,note_off,134,0,0,,1,,,72,127
51448,note_on,3,0,0,,1,,,71,127
51719,note_off,271,0,0,,1,,,71,127
51719,note_off,0,0,0,,0,,,65,95
51719,note_off,0,0,0,,0,,,50,95
51722,note_on,3,0,0,,0,,,52,95
51722,note_on,0,0,0,,1,,,72,127
51722,note_on,0,0,0,,1,,,64,127
52290,note_on,568,0,0,,1,,,71,127
52290,note_on,0,0,0,,0,,,68,95
52290,note_on,0,0,0,,0,,,40,95
52295,note_off,5,0,0,,1,,,72,127
52295,note_off,0,0,0,,0,,,52,95
52295,note_off,0,0,0,,0,,,69,95
52860,note_off,565,0,0,,1,,,64,127
52863,note_off,3,0,0,,0,,,40,95
52863,note_off,0,0,0,,0,,,68,95
52863,note_off,0,0,0,,1,,,71,127
52874,note_on,11,0,0,,0,,,45,95
52874,note_on,0,0,0,,0,,,61,95
52874,note_on,0,0,0,,1,,,69,127
53008,note_off,134,0,0,,1,,,69,127
53011,note_on,3,0,0,,1,,,73,127
53145,note_off,134,0,0,,1,,,73,127
53148,note_on,3,0,0,,1,,,76,127
53419,note_off,271,0,0,,0,,,61,95
53419,note_off,0,0,0,,0,,,45,95
53422,note_on,3,0,0,,0,,,47,95
53422,note_on,0,0,0,,0,,,62,95
53968,note_off,546,0,0,,0,,,62,95
53968,note_off,0,0,0,,0,,,47,95
53971,note_on,3,0,0,,0,,,49,95
53971,note_on,0,0,0,,0,,,64,95
54517,note_off,546,0,0,,0,,,49,95
54520,note_on,3,0,0,,0,,,45,95
54520,note_on,0,0,0,,0,,,61,95
55066,note_off,546,0,0,,0,,,61,95
55066,note_off,0,0,0,,0,,,45,95
55066,note_off,0,0,0,,0,,,64,95
55066,note_off,0,0,0,,1,,,76,127
55069,note_on,3,0,0,,0,,,50,95
55069,note_on,0,0,0,,0,,,69,95
55069,note_on,0,0,0,,1,,,66,127
55203,note_off,134,0,0,,1,,,66,127
55206,note_on,3,0,0,,1,,,69,127
55340,note_off,134,0,0,,0,,,69,95
55343,note_on,3,0,0,,1,,,72,127
55614,note_off,271,0,0,,1,,,69,127
55614,note_off,0,0,0,,0,,,50,95
55617,note_on,3,0,0,,0,,,52,95
55617,note_on,0,0,0,,0,,,67,95
56163,note_off,546,0,0,,0,,,67,95
56163,note_off,0,0,0,,0,,,52,95
56166,note_on,3,0,0,,0,,,54,95
56166,note_on,0,0,0,,0,,,69,95
56712,note_off,546,0,0,,0,,,54,95
56715,note_on,3,0,0,,0,,,50,95
56715,note_on,0,0,0,,0,,,66,95
57261,note_off,546,0,0,,0,,,66,95
57261,note_off,0,0,0,,0,,,50,95
57261,note_off,0,0,0,,0,,,69,95
57261,note_off,0,0,0,,1,,,72,127
57264,note_on,3,0,0,,0,,,43,95
57264,note_on,0,0,0,,0,,,71,95
57264,note_on,0,0,0,,1,,,71,127
57398,note_off,134,0,0,,1,,,71,127
57401,note_on,3,0,0,,1,,,74,127
57535,note_off,134,0,0,,1,,,74,127
57538,note_on,3,0,0,,1,,,77,127
57809,note_off,271,0,0,,0,,,71,95
57809,note_off,0,0,0,,0,,,43,95
57812,note_on,3,0,0,,0,,,45,95
57812,note_on,0,0,0,,0,,,72,95
58358,note_off,546,0,0,,0,,,72,95
58358,note_off,0,0,0,,0,,,45,95
58361,note_on,3,0,0,,0,,,47,95
58361,note_on,0,0,0,,0,,,74,95
58907,note_off,546,0,0,,0,,,47,95
58910,note_on,3,0,0,,0,,,43,95
58910,note_on,0,0,0,,0,,,71,95
59456,note_off,546,0,0,,0,,,71,95
59456,note_off,0,0,0,,0,,,43,95
59456,note_off,0,0,0,,0,,,74,95
59456,note_off,0,0,0,,1,,,77,127
59459,note_on,3,0,0,,0,,,48,95
59459,note_on,0,0,0,,0,,,67,95
59459,note_on,0,0,0,,1,,,64,127
59593,note_off,134,0,0,,1,,,64,127
59596,note_on,3,0,0,,1,,,67,127
59730,note_off,134,0,0,,0,,,67,95
59733,note_on,3,0,0,,1,,,70,127
60004,note_off,271,0,0,,1,,,67,127
60004,note_off,0,0,0,,0,,,48,95
60007,note_on,3,0,0,,0,,,50,95
60007,note_on,0,0,0,,0,,,65,95
60553,note_off,546,0,0,,0,,,65,95
60553,note_off,0,0,0,,0,,,50,95
60556,note_on,3,0,0,,0,,,52,95
60556,note_on,0,0,0,,0,,,60,95
60556,note_on,0,0,0,,0,,,67,95
61102,note_off,546,0,0,,0,,,60,95
61102,note_off,0,0,0,,0,,,52,95
61105,note_on,3,0,0,,0,,,48,95
61105,note_on,0,0,0,,0,,,64,95
61651,note_off,546,0,0,,0,,,64,95
61651,note_off,0,0,0,,0,,,48,95
61651,note_off,0,0,0,,0,,,67,95
61651,note_off,0,0,0,,1,,,70,127
61654,note_on,3,0,0,,0,,,53,95
61654,note_on,0,0,0,,0,,,60,95
61654,note_on,0,0,0,,1,,,69,127
61788,note_off,134,0,0,,1,,,69,127
61791,note_on,3,0,0,,1,,,70,127
61925,note_off,134,0,0,,1,,,70,127
61928,note_on,3,0,0,,1,,,72,127
62199,note_off,271,0,0,,0,,,53,95
62202,note_on,3,0,0,,0,,,45,95
62202,note_on,0,0,0,,0,,,65,95
62336,note_off,134,0,0,,1,,,72,127
62339,note_on,3,0,0,,1,,,70,127
62473,note_off,134,0,0,,1,,,70,127
62476,note_on,3,0,0,,1,,,69,127
62747,note_off,271,0,0,,1,,,69,127
62747,note_off,0,0,0,,0,,,45,95
62747,note_off,0,0,0,,0,,,60,95
62750,note_on,3,0,0,,0,,,46,95
62750,note_on,0,0,0,,1,,,67,127
62884,note_off,134,0,0,,1,,,67,127
62887,note_on,3,0,0,,1,,,69,127
63021,note_off,134,0,0,,1,,,69,127
63024,note_on,3,0,0,,1,,,70,127
63295,note_off,271,0,0,,0,,,46,95
63295,note_off,0,0,0,,0,,,65,95
63298,note_on,3,0,0,,0,,,48,95
63298,note_on,0,0,0,,0,,,64,95
63432,note_off,134,0,0,,1,,,70,127
63435,note_on,3,0,0,,1,,,69,127
63569,note_off,134,0,0,,1,,,69,127
63572,note_on,3,0,0,,1,,,67,127
63843,note_off,271,0,0,,1,,,67,127
63843,note_off,0,0,0,,0,,,64,95
63843,note_off,0,0,0,,0,,,48,95
63846,note_on,3,0,0,,0,,,53,95
63846,note_on,0,0,0,,0,,,60,95
63846,note_on,0,0,0,,1,,,69,127
63980,note_off,134,0,0,,1,,,69,127
63983,note_on,3,0,0,,1,,,70,127
64117,note_off,134,0,0,,1,,,70,127
64120,note_on,3,0,0,,1,,,72,127
64391,note_off,271,0,0,,0,,,53,95
64394,note_on,3,0,0,,0,,,51,95
64394,note_on,0,0,0,,0,,,67,95
64940,note_off,546,0,0,,0,,,67,95
64940,note_off,0,0,0,,0,,,51,95
64940,note_off,0,0,0,,0,,,60,95
64943,note_on,3,0,0,,0,,,50,95
64943,note_on,0,0,0,,0,,,66,95
65489,note_off,546,0,0,,0,,,50,95
65492,note_on,3,0,0,,0,,,54,95
65492,note_on,0,0,0,,0,,,62,95
66038,note_off,546,0,0,,0,,,54,95
66038,note_off,0,0,0,,0,,,66,95
66038,note_off,0,0,0,,1,,,72,127
66041,note_on,3,0,0,,0,,,55,95
66041,note_on,0,0,0,,1,,,70,127
66175,note_off,134,0,0,,1,,,70,127
66178,note_on,3,0,0,,1,,,72,127
66312,note_off,134,0,0,,1,,,72,127
66315,note_on,3,0,0,,1,,,74,127
66586,note_off,271,0,0,,0,,,55,95
66586,note_off,0,0,0,,0,,,62,95
66589,note_on,3,0,0,,0,,,46,95
66589,note_on,0,0,0,,0,,,67,95
66723,note_off,134,0,0,,1,,,74,127
66726,note_on,3,0,0,,1,,,72,127
66860,note_off,134,0,0,,1,,,72,127
66863,note_on,3,0,0,,1,,,70,127
67134,note_off,271,0,0,,1,,,70,127
67134,note_off,0,0,0,,0,,,46,95
67137,note_on,3,0,0,,0,,,48,95
67137,note_on,0,0,0,,1,,,69,127
67271,note_off,134,0,0,,1,,,69,127
67274,note_on,3,0,0,,1,,,70,127
67408,note_off,134,0,0,,1,,,70,127
67411,note_on,3,0,0,,1,,,72,127
67682,note_off,271,0,0,,0,,,48,95
67682,note_off,0,0,0,,0,,,67,95
67685,note_on,3,0,0,,0,,,50,95
67685,note_on,0,0,0,,0,,,66,95
67819,note_off,134,0,0,,1,,,72,127
67822,note_on,3,0,0,,1,,,70,127
67956,note_off,134,0,0,,1,,,70,127
67959,note_on,3,0,0,,1,,,69,127
68230,note_off,271,0,0,,1,,,69,127
68230,note_off,0,0,0,,0,,,66,95
68230,note_off,0,0,0,,0,,,50,95
68233,note_on,3,0,0,,0,,,55,95
68233,note_on,0,0,0,,0,,,62,95
68233,note_on,0,0,0,,1,,,70,127
68367,note_off,134,0,0,,1,,,70,127
68370,note_on,3,0,0,,1,,,72,127
68504,note_off,134,0,0,,1,,,72,127
68507,note_on,3,0,0,,1,,,74,127
68778,note_off,271,0,0,,0,,,55,95
68781,note_on,3,0,0,,0,,,53,95
68781,note_on,0,0,0,,0,,,69,95
69327,note_off,546,0,0,,0,,,69,95
69327,note_off,0,0,0,,0,,,53,95
69327,note_off,0,0,0,,0,,,62,95
69330,note_on,3,0,0,,0,,,52,95
69330,note_on,0,0,0,,0,,,68,95
69876,note_off,546,0,0,,0,,,52,95
69879,note_on,3,0,0,,0,,,56,95
69879,note_on,0,0,0,,0,,,64,95
70425,note_off,546,0,0,,0,,,56,95
70425,note_off,0,0,0,,0,,,68,95
70425,note_off,0,0,0,,1,,,74,127
70428,note_on,3,0,0,,0,,,57,95
70428,note_on,0,0,0,,1,,,73,127
70562,note_off,134,0,0,,1,,,73,127
70565,note_on,3,0,0,,1,,,74,127
70699,note_off,134,0,0,,1,,,74,127
70702,note_on,3,0,0,,1,,,76,127
70973,note_off,271,0,0,,0,,,57,95
70973,note_off,0,0,0,,0,,,64,95
70976,note_on,3,0,0,,0,,,49,95
70976,note_on,0,0,0,,0,,,69,95
71110,note_off,134,0,0,,1,,,76,127
71113,note_on,3,0,0,,1,,,74,127
71247,note_off,134,0,0,,1,,,74,127
71250,note_on,3,0,0,,1,,,73,127
71521,note_off,271,0,0,,1,,,73,127
71521,note_off,0,0,0,,0,,,49,95
71524,note_on,3,0,0,,0,,,50,95
71524,note_on,0,0,0,,1,,,71,127
71658,note_off,134,0,0,,1,,,71,127
71661,note_on,3,0,0,,1,,,73,127
71795,note_off,134,0,0,,1,,,73,127
71798,note_on,3,0,0,,1,,,74,127
72069,note_off,271,0,0,,0,,,50,95
72069,note_off,0,0,0,,0,,,69,95
72072,note_on,3,0,0,,0,,,52,95
72072,note_on,0,0,0,,0,,,68,95
72206,note_off,134,0,0,,1,,,74,127
72209,note_on,3,0,0,,1,,,73,127
72343,note_off,134,0,0,,1,,,73,127
72346,note_on,3,0,0,,1,,,71,127
72617,note_off,271,0,0,,1,,,71,127
72617,note_off,0,0,0,,0,,,68,95
72617,note_off,0,0,0,,0,,,52,95
72620,note_on,3,0,0,,0,,,57,95
72620,note_on,0,0,0,,0,,,64,95
72620,note_on,0,0,0,,1,,,73,127
72754,note_off,134,0,0,,1,,,73,127
72757,note_on,3,0,0,,1,,,74,127
72891,note_off,134,0,0,,1,,,74,127
72894,note_on,3,0,0,,1,,,76,127
73165,note_off,271,0,0,,0,,,57,95
73168,note_on,3,0,0,,0,,,45,95
73168,note_on,0,0,0,,0,,,73,95
73714,note_off,546,0,0,,0,,,73,95
73714,note_off,0,0,0,,0,,,45,95
73717,note_on,3,0,0,,0,,,57,95
73717,note_on,0,0,0,,0,,,69,95
74263,note_off,546,0,0,,0,,,57,95
74263,note_off,0,0,0,,0,,,64,95
74266,note_on,3,0,0,,0,,,50,95
74266,note_on,0,0,0,,0,,,65,95
74537,note_off,271,0,0,,1,,,76,127
74540,note_on,3,0,0,,1,,,77,127
74811,note_off,271,0,0,,1,,,77,127
74811,note_off,0,0,0,,0,,,65,95
74811,note_off,0,0,0,,0,,,50,95
74811,note_off,0,0,0,,0,,,69,95
74814,note_on,3,0,0,,0,,,57,95
74814,note_on,0,0,0,,0,,,64,95
74814,note_on,0,0,0,,0,,,73,95
74814,note_on,0,0,0,,1,,,76,127
74948,note_off,134,0,0,,1,,,76,127
74951,note_on,3,0,0,,1,,,74,127
75085,note_off,134,0,0,,1,,,74,127
75088,note_on,3,0,0,,1,,,73,127
75359,note_off,271,0,0,,1,,,73,127
75359,note_off,0,0,0,,0,,,73,95
75359,note_off,0,0,0,,0,,,64,95
75359,note_off,0,0,0,,0,,,57,95
75362,note_on,3,0,0,,0,,,58,95
75362,note_on,0,0,0,,0,,,62,95
75362,note_on,0,0,0,,0,,,67,95
75362,note_on,0,0,0,,1,,,74,127
75908,note_off,546,0,0,,1,,,74,127
75908,note_off,0,0,0,,0,,,67,95
75908,note_off,0,0,0,,0,,,58,95
75911,note_on,3,0,0,,0,,,54,95
75911,note_on,0,0,0,,0,,,69,95
75911,note_on,0,0,0,,1,,,72,127
76045,note_off,134,0,0,,1,,,72,127
76048,note_on,3,0,0,,1,,,70,127
76182,note_off,134,0,0,,1,,,70,127
76185,note_on,3,0,0,,1,,,69,127
76456,note_off,271,0,0,,1,,,69,127
76456,note_off,0,0,0,,0,,,69,95
76456,note_off,0,0,0,,0,,,54,95
76459,note_on,3,0,0,,0,,,55,95
76459,note_on,0,0,0,,0,,,67,95
76459,note_on,0,0,0,,1,,,70,127
77005,note_off,546,0,0,,1,,,70,127
77005,note_off,0,0,0,,0,,,55,95
77005,note_off,0,0,0,,0,,,62,95
77008,note_on,3,0,0,,0,,,49,95
77008,note_on,0,0,0,,0,,,64,95
77008,note_on,0,0,0,,1,,,69,127
77142,note_off,134,0,0,,1,,,69,127
77145,note_on,3,0,0,,1,,,73,127
77279,note_off,134,0,0,,1,,,73,127
77282,note_on,3,0,0,,1,,,76,127
77553,note_off,271,0,0,,0,,,49,95
77553,note_off,0,0,0,,0,,,67,95
77556,note_on,3,0,0,,0,,,58,95
77556,note_on,0,0,0,,0,,,67,95
78102,note_off,546,0,0,,0,,,67,95
78102,note_off,0,0,0,,0,,,58,95
78102,note_off,0,0,0,,0,,,64,95
78105,note_on,3,0,0,,0,,,57,95
78105,note_on,0,0,0,,0,,,65,95
78376,note_off,271,0,0,,1,,,76,127
78379,note_on,3,0,0,,1,,,70,127
78650,note_off,271,0,0,,0,,,65,95
78650,note_off,0,0,0,,0,,,57,95
78653,note_on,3,0,0,,0,,,55,95
78653,note_on,0,0,0,,0,,,64,95
79199,note_off,546,0,0,,0,,,64,95
79199,note_off,0,0,0,,0,,,55,95
79199,note_off,0,0,0,,1,,,70,127
79202,note_on,3,0,0,,0,,,53,95
79202,note_on,0,0,0,,0,,,62,95
79202,note_on,0,0,0,,0,,,69,95
79202,note_on,0,0,0,,1,,,69,127
79473,note_off,271,0,0,,1,,,69,127
79476,note_on,3,0,0,,1,,,71,127
79610,note_off,134,0,0,,1,,,71,127
79613,note_on,3,0,0,,1,,,73,127
79747,note_off,134,0,0,,1,,,73,127
79747,note_off,0,0,0,,0,,,69,95
79747,note_off,0,0,0,,0,,,53,95
79750,note_on,3,0,0,,0,,,58,95
79750,note_on,0,0,0,,0,,,67,95
79750,note_on,0,0,0,,1,,,74,127
80021,note_off,271,0,0,,1,,,74,127
80024,note_on,3,0,0,,1,,,76,127
80295,note_off,271,0,0,,1,,,76,127
80295,note_off,0,0,0,,0,,,58,95
80295,note_off,0,0,0,,0,,,62,95
80298,note_on,3,0,0,,0,,,57,95
80298,note_on,0,0,0,,0,,,61,95
80298,note_on,0,0,0,,1,,,77,127
80409,note_off,111,0,0,,1,,,77,127
80412,note_on,3,0,0,,1,,,76,127
80523,note_off,111,0,0,,1,,,76,127
80526,note_on,3,0,0,,1,,,77,127
80637,note_off,111,0,0,,1,,,77,127
80640,note_on,3,0,0,,1,,,76,127
80843,note_off,203,0,0,,0,,,57,95
80843,note_off,0,0,0,,0,,,67,95
80846,note_on,3,0,0,,0,,,45,95
80846,note_on,0,0,0,,0,,,73,95
81106,note_off,260,0,0,,1,,,76,127
81120,note_on,14,0,0,,1,,,74,127
81391,note_off,271,0,0,,1,,,74,127
81391,note_off,0,0,0,,0,,,73,95
81391,note_off,0,0,0,,0,,,45,95
81391,note_off,0,0,0,,0,,,61,95
81394,note_on,3,0,0,,0,,,50,95
81394,note_on,0,0,0,,0,,,65,95
81394,note_on,0,0,0,,0,,,69,95
81394,note_on,0,0,0,,1,,,74,127
81940,note_off,546,0,0,,0,,,69,95
81940,note_off,0,0,0,,0,,,65,95
81940,note_off,0,0,0,,0,,,50,95
81943,note_on,3,0,0,,0,,,52,95
81943,note_on,0,0,0,,0,,,67,95
82489,note_off,546,0,0,,0,,,67,95
82489,note_off,0,0,0,,0,,,52,95
82492,note_on,3,0,0,,0,,,53,95
82492,note_on,0,0,0,,0,,,69,95
83038,note_off,546,0,0,,0,,,53,95
83041,note_on,3,0,0,,0,,,50,95
83041,note_on,0,0,0,,0,,,65,95
83587,note_off,546,0,0,,0,,,65,95
83587,note_off,0,0,0,,0,,,50,95
83587,note_off,0,0,0,,0,,,69,95
83587,note_off,0,0,0,,1,,,74,127
83590,note_on,3,0,0,,0,,,55,95
83590,note_on,0,0,0,,0,,,62,95
83590,note_on,0,0,0,,0,,,70,95
83590,note_on,0,0,0,,1,,,70,127
83724,note_off,134,0,0,,1,,,70,127
83727,note_on,3,0,0,,1,,,72,127
83861,note_off,134,0,0,,1,,,72,127
83864,note_on,3,0,0,,1,,,74,127
84135,note_off,271,0,0,,0,,,55,95
84138,note_on,3,0,0,,0,,,43,95
84684,note_off,546,0,0,,0,,,43,95
84684,note_off,0,0,0,,0,,,70,95
84684,note_off,0,0,0,,0,,,62,95
84687,note_on,3,0,0,,0,,,43,95
84687,note_on,0,0,0,,0,,,70,95
84961,note_on,274,0,0,,0,,,72,95
85232,note_off,271,0,0,,0,,,72,95
85232,note_off,0,0,0,,0,,,43,95
85235,note_on,3,0,0,,0,,,55,95
85235,note_on,0,0,0,,0,,,74,95
85781,note_off,546,0,0,,0,,,74,95
85781,note_off,0,0,0,,0,,,55,95
85781,note_off,0,0,0,,0,,,70,95
85781,note_off,0,0,0,,1,,,74,127
85784,note_on,3,0,0,,0,,,53,95
85784,note_on,0,0,0,,0,,,62,95
85784,note_on,0,0,0,,0,,,69,95
85784,note_on,0,0,0,,1,,,69,127
85918,note_off,134,0,0,,1,,,69,127
85921,note_on,3,0,0,,1,,,71,127
86055,note_off,134,0,0,,1,,,71,127
86058,note_on,3,0,0,,1,,,73,127
86329,note_off,271,0,0,,1,,,73,127
86329,note_off,0,0,0,,0,,,53,95
86332,note_on,3,0,0,,0,,,41,95
86332,note_on,0,0,0,,1,,,74,127
86878,note_off,546,0,0,,0,,,41,95
86881,note_on,3,0,0,,0,,,41,95
87152,note_off,271,0,0,,0,,,69,95
87155,note_on,3,0,0,,0,,,72,95
87426,note_off,271,0,0,,0,,,72,95
87426,note_off,0,0,0,,0,,,41,95
87426,note_off,0,0,0,,0,,,62,95
87429,note_on,3,0,0,,0,,,53,95
87429,note_on,0,0,0,,0,,,70,95
87700,note_off,271,0,0,,0,,,70,95
87703,note_on,3,0,0,,0,,,69,95
87974,note_off,271,0,0,,0,,,69,95
87974,note_off,0,0,0,,0,,,53,95
87974,note_off,0,0,0,,1,,,74,127
87977,note_on,3,0,0,,0,,,52,95
87977,note_on,0,0,0,,0,,,67,95
87977,note_on,0,0,0,,1,,,72,127
88111,note_off,134,0,0,,1,,,72,127
88114,note_on,3,0,0,,1,,,70,127
88248,note_off,134,0,0,,1,,,70,127
88251,note_on,3,0,0,,1,,,69,127
88522,note_off,271,0,0,,1,,,69,127
88522,note_off,0,0,0,,0,,,67,95
88522,note_off,0,0,0,,0,,,52,95
88525,note_on,3,0,0,,0,,,50,95
88525,note_on,0,0,0,,0,,,65,95
88525,note_on,0,0,0,,1,,,70,127
89071,note_off,546,0,0,,1,,,70,127
89071,note_off,0,0,0,,0,,,65,95
89071,note_off,0,0,0,,0,,,50,95
89074,note_on,3,0,0,,0,,,49,95
89074,note_on,0,0,0,,0,,,64,95
89074,note_on,0,0,0,,1,,,69,127
89620,note_off,546,0,0,,1,,,69,127
89620,note_off,0,0,0,,0,,,64,95
89620,note_off,0,0,0,,0,,,49,95
89623,note_on,3,0,0,,0,,,47,95
89623,note_on,0,0,0,,0,,,62,95
89623,note_on,0,0,0,,1,,,68,127
90169,note_off,546,0,0,,1,,,68,127
90169,note_off,0,0,0,,0,,,62,95
90169,note_off,0,0,0,,0,,,47,95
90172,note_on,3,0,0,,0,,,45,95
90172,note_on,0,0,0,,0,,,64,95
90172,note_on,0,0,0,,0,,,73,95
90172,note_on,0,0,0,,1,,,69,127
90306,note_off,134,0,0,,1,,,69,127
90309,note_on,3,0,0,,1,,,73,127
90443,note_off,134,0,0,,0,,,73,95
90446,note_on,3,0,0,,1,,,76,127
90717,note_off,271,0,0,,1,,,73,127
90717,note_off,0,0,0,,0,,,64,95
90717,note_off,0,0,0,,0,,,45,95
90720,note_on,3,0,0,,0,,,47,95
90720,note_on,0,0,0,,0,,,62,95
91266,note_off,546,0,0,,0,,,62,95
91266,note_off,0,0,0,,0,,,47,95
91269,note_on,3,0,0,,0,,,49,95
91269,note_on,0,0,0,,0,,,64,95
91543,note_on,274,0,0,,0,,,73,95
91814,note_off,271,0,0,,0,,,73,95
91814,note_off,0,0,0,,0,,,49,95
91817,note_on,3,0,0,,0,,,45,95
91817,note_on,0,0,0,,0,,,69,95
92088,note_off,271,0,0,,0,,,69,95
92091,note_on,3,0,0,,0,,,67,95
92362,note_off,271,0,0,,0,,,67,95
92362,note_off,0,0,0,,0,,,45,95
92362,note_off,0,0,0,,0,,,64,95
92362,note_off,0,0,0,,1,,,76,127
92365,note_on,3,0,0,,0,,,50,95
92365,note_on,0,0,0,,0,,,65,95
92365,note_on,0,0,0,,0,,,69,95
92365,note_on,0,0,0,,1,,,65,127
92499,note_off,134,0,0,,1,,,65,127
92502,note_on,3,0,0,,1,,,69,127
92636,note_off,134,0,0,,0,,,69,95
92639,note_on,3,0,0,,1,,,74,127
92910,note_off,271,0,0,,0,,,65,95
92910,note_off,0,0,0,,0,,,50,95
92913,note_on,3,0,0,,0,,,53,95
92913,note_on,0,0,0,,0,,,62,95
93459,note_off,546,0,0,,0,,,62,95
93459,note_off,0,0,0,,0,,,53,95
93459,note_off,0,0,0,,1,,,74,127
93459,note_off,0,0,0,,1,,,69,127
93462,note_on,3,0,0,,0,,,55,95
93462,note_on,0,0,0,,0,,,64,95
93462,note_on,0,0,0,,1,,,67,127
93596,note_off,134,0,0,,1,,,67,127
93599,note_on,3,0,0,,1,,,73,127
93733,note_off,134,0,0,,1,,,73,127
93736,note_on,3,0,0,,1,,,76,127
94007,note_off,271,0,0,,0,,,55,95
94010,note_on,3,0,0,,0,,,57,95
94010,note_on,0,0,0,,0,,,69,95
94556,note_off,546,0,0,,0,,,57,95
94556,note_off,0,0,0,,1,,,76,127
94556,note_off,0,0,0,,0,,,64,95
94559,note_on,3,0,0,,0,,,50,95
94559,note_on,0,0,0,,1,,,65,127
94693,note_off,134,0,0,,1,,,65,127
94696,note_on,3,0,0,,1,,,69,127
94830,note_off,134,0,0,,0,,,69,95
94833,note_on,3,0,0,,1,,,74,127
95104,note_off,271,0,0,,0,,,50,95
95107,note_on,3,0,0,,0,,,53,95
95107,note_on,0,0,0,,0,,,62,95
95653,note_off,546,0,0,,0,,,62,95
95653,note_off,0,0,0,,0,,,53,95
95653,note_off,0,0,0,,1,,,69,127
95656,note_on,3,0,0,,0,,,55,95
95656,note_on,0,0,0,,0,,,64,95
96202,note_off,546,0,0,,0,,,55,95
96202,note_off,0,0,0,,1,,,74,127
96205,note_on,3,0,0,,0,,,55,95
96205,note_on,0,0,0,,0,,,61,95
96205,note_on,0,0,0,,1,,,70,127
96751,note_off,546,0,0,,1,,,70,127
96751,note_off,0,0,0,,0,,,61,95
96751,note_off,0,0,0,,0,,,55,95
96751,note_off,0,0,0,,0,,,64,95
96754,note_on,3,0,0,,0,,,53,95
96754,note_on,0,0,0,,0,,,62,95
96754,note_on,0,0,0,,1,,,69,127
96888,note_off,134,0,0,,1,,,69,127
96891,note_on,3,0,0,,1,,,67,127
97025,note_off,134,0,0,,1,,,67,127
97028,note_on,3,0,0,,1,,,69,127
97299,note_off,271,0,0,,1,,,69,127
97299,note_off,0,0,0,,0,,,53,95
97302,note_on,3,0,0,,0,,,55,95
97302,note_on,0,0,0,,1,,,70,127
97436,note_off,134,0,0,,1,,,70,127
97439,note_on,3,0,0,,1,,,69,127
97573,note_off,134,0,0,,1,,,69,127
97576,note_on,3,0,0,,1,,,67,127
97847,note_off,271,0,0,,1,,,67,127
97847,note_off,0,0,0,,0,,,55,95
97847,note_off,0,0,0,,0,,,62,95
97850,note_on,3,0,0,,0,,,45,95
97850,note_on,0,0,0,,0,,,62,95
97850,note_on,0,0,0,,1,,,65,127
98416,note_off,566,0,0,,0,,,62,95
98416,note_off,0,0,0,,0,,,45,95
98419,note_on,3,0,0,,0,,,45,95
98419,note_on,0,0,0,,0,,,61,95
98700,note_off,281,0,0,,1,,,65,127
98703,note_on,3,0,0,,1,,,64,127
98842,note_off,139,0,0,,1,,,64,127
98845,note_on,3,0,0,,1,,,62,127
98973,note_off,128,0,0,,0,,,45,95
98974,note_off,1,0,0,,1,,,62,127
98974,note_off,0,0,0,,0,,,61,95
98995,note_on,21,0,0,,0,,,50,95
98995,note_on,0,0,0,,0,,,62,95
98995,note_on,0,0,0,,0,,,69,95
98995,note_on,0,0,0,,1,,,72,127
99541,note_off,546,0,0,,0,,,69,95
99541,note_off,0,0,0,,0,,,50,95
99544,note_on,3,0,0,,0,,,52,95
99544,note_on,0,0,0,,0,,,67,95
100090,note_off,546,0,0,,0,,,67,95
100090,note_off,0,0,0,,0,,,52,95
100093,note_on,3,0,0,,0,,,54,95
100093,note_on,0,0,0,,0,,,69,95
100639,note_off,546,0,0,,0,,,54,95
100639,note_off,0,0,0,,0,,,62,95
100642,note_on,3,0,0,,0,,,50,95
100642,note_on,0,0,0,,0,,,66,95
101188,note_off,546,0,0,,0,,,66,95
101188,note_off,0,0,0,,0,,,50,95
101188,note_off,0,0,0,,0,,,69,95
101188,note_off,0,0,0,,1,,,72,127
101191,note_on,3,0,0,,0,,,55,95
101191,note_on,0,0,0,,0,,,62,95
101191,note_on,0,0,0,,0,,,70,95
101191,note_on,0,0,0,,1,,,70,127
101325,note_off,134,0,0,,1,,,70,127
101328,note_on,3,0,0,,1,,,72,127
101462,note_off,134,0,0,,1,,,72,127
101465,note_on,3,0,0,,1,,,74,127
101736,note_off,271,0,0,,0,,,55,95
101739,note_on,3,0,0,,0,,,43,95
102285,note_off,546,0,0,,0,,,43,95
102285,note_off,0,0,0,,0,,,70,95
102285,note_off,0,0,0,,0,,,62,95
102288,note_on,3,0,0,,0,,,55,95
102288,note_on,0,0,0,,0,,,70,95
102562,note_on,274,0,0,,0,,,72,95
102833,note_off,271,0,0,,0,,,72,95
102833,note_off,0,0,0,,0,,,55,95
102836,note_on,3,0,0,,0,,,53,95
102836,note_on,0,0,0,,0,,,74,95
103382,note_off,546,0,0,,0,,,74,95
103382,note_off,0,0,0,,0,,,53,95
103382,note_off,0,0,0,,0,,,70,95
103382,note_off,0,0,0,,1,,,74,127
103385,note_on,3,0,0,,0,,,52,95
103385,note_on,0,0,0,,0,,,68,95
103385,note_on,0,0,0,,1,,,68,127
103519,note_off,134,0,0,,1,,,68,127
103522,note_on,3,0,0,,1,,,71,127
103656,note_off,134,0,0,,1,,,71,127
103659,note_on,3,0,0,,1,,,74,127
103930,note_off,271,0,0,,0,,,68,95
103930,note_off,0,0,0,,0,,,52,95
103933,note_on,3,0,0,,0,,,54,95
103933,note_on,0,0,0,,0,,,69,95
104479,note_off,546,0,0,,0,,,69,95
104479,note_off,0,0,0,,0,,,54,95
104482,note_on,3,0,0,,0,,,56,95
104482,note_on,0,0,0,,0,,,64,95
104756,note_on,274,0,0,,0,,,68,95
105027,note_off,271,0,0,,0,,,56,95
105030,note_on,3,0,0,,0,,,52,95
105030,note_on,0,0,0,,0,,,71,95
105576,note_off,546,0,0,,0,,,71,95
105576,note_off,0,0,0,,0,,,52,95
105576,note_off,0,0,0,,0,,,68,95
105576,note_off,0,0,0,,0,,,64,95
105576,note_off,0,0,0,,1,,,74,127
105579,note_on,3,0,0,,0,,,57,95
105579,note_on,0,0,0,,0,,,73,95
105579,note_on,0,0,0,,1,,,73,127
105713,note_off,134,0,0,,1,,,73,127
105716,note_on,3,0,0,,1,,,76,127
105850,note_off,134,0,0,,1,,,76,127
105853,note_on,3,0,0,,1,,,79,127
106124,note_off,271,0,0,,0,,,73,95
106124,note_off,0,0,0,,0,,,57,95
106127,note_on,3,0,0,,0,,,59,95
106127,note_on,0,0,0,,0,,,74,95
106673,note_off,546,0,0,,0,,,74,95
106673,note_off,0,0,0,,0,,,59,95
106676,note_on,3,0,0,,0,,,61,95
106676,note_on,0,0,0,,0,,,64,95
106950,note_on,274,0,0,,0,,,69,95
107221,note_off,271,0,0,,0,,,69,95
107221,note_off,0,0,0,,0,,,61,95
107224,note_on,3,0,0,,0,,,57,95
107224,note_on,0,0,0,,0,,,73,95
107498,note_on,274,0,0,,0,,,76,95
107769,note_off,271,0,0,,0,,,76,95
107769,note_off,0,0,0,,0,,,73,95
107769,note_off,0,0,0,,0,,,57,95
107769,note_off,0,0,0,,0,,,64,95
107769,note_off,0,0,0,,1,,,79,127
107772,note_on,3,0,0,,0,,,62,95
107772,note_on,0,0,0,,0,,,69,95
107772,note_on,0,0,0,,0,,,74,95
107772,note_on,0,0,0,,1,,,77,127
107906,note_off,134,0,0,,1,,,77,127
107909,note_on,3,0,0,,1,,,76,127
108043,note_off,134,0,0,,1,,,76,127
108046,note_on,3,0,0,,1,,,77,127
108317,note_off,271,0,0,,1,,,77,127
108317,note_off,0,0,0,,0,,,74,95
108317,note_off,0,0,0,,0,,,69,95
108317,note_off,0,0,0,,0,,,62,95
108320,note_on,3,0,0,,0,,,55,95
108320,note_on,0,0,0,,0,,,64,95
108320,note_on,0,0,0,,0,,,70,95
108320,note_on,0,0,0,,1,,,79,127
108454,note_off,134,0,0,,1,,,79,127
108457,note_on,3,0,0,,1,,,77,127
108591,note_off,134,0,0,,1,,,77,127
108594,note_on,3,0,0,,1,,,76,127
108865,note_off,271,0,0,,1,,,76,127
108865,note_off,0,0,0,,0,,,70,95
108865,note_off,0,0,0,,0,,,64,95
108865,note_off,0,0,0,,0,,,55,95
108868,note_on,3,0,0,,0,,,57,95
108868,note_on,0,0,0,,0,,,62,95
108868,note_on,0,0,0,,0,,,69,95
108868,note_on,0,0,0,,1,,,77,127
109414,note_off,546,0,0,,1,,,77,127
109414,note_off,0,0,0,,0,,,62,95
109414,note_off,0,0,0,,0,,,57,95
109417,note_on,3,0,0,,0,,,45,95
109417,note_on,0,0,0,,0,,,61,95
109417,note_on,0,0,0,,1,,,76,127
109963,note_off,546,0,0,,1,,,76,127
109963,note_off,0,0,0,,0,,,61,95
109963,note_off,0,0,0,,0,,,45,95
109963,note_off,0,0,0,,0,,,69,95
109966,note_on,3,0,0,,0,,,50,95
109966,note_on,0,0,0,,0,,,65,95
109966,note_on,0,0,0,,0,,,69,95
109966,note_on,0,0,0,,1,,,74,127
110512,note_off,546,0,0,,0,,,69,95
110512,note_off,0,0,0,,0,,,65,95
110512,note_off,0,0,0,,0,,,50,95
110515,note_on,3,0,0,,0,,,52,95
110515,note_on,0,0,0,,0,,,67,95
111061,note_off,546,0,0,,0,,,67,95
111061,note_off,0,0,0,,0,,,52,95
111064,note_on,3,0,0,,0,,,53,95
111064,note_on,0,0,0,,0,,,69,95
111614,note_off,550,0,0,,0,,,69,95
111614,note_off,0,0,0,,0,,,53,95
111614,note_off,0,0,0,,1,,,74,127
111617,note_on,3,0,0,,0,,,50,95
111617,note_on,0,0,0,,0,,,65,95
111617,note_on,0,0,0,,1,,,77,127
112167,note_off,550,0,0,,1,,,77,127
112167,note_off,0,0,0,,0,,,65,95
112167,note_off,0,0,0,,0,,,50,95
112170,note_on,3,0,0,,0,,,55,95
112170,note_on,0,0,0,,0,,,70,95
112170,note_on,0,0,0,,1,,,76,127
112720,note_off,550,0,0,,0,,,70,95
112720,note_off,0,0,0,,0,,,55,95
112723,note_on,3,0,0,,0,,,57,95
112723,note_on,0,0,0,,0,,,69,95
113273,note_off,550,0,0,,0,,,69,95
113273,note_off,0,0,0,,0,,,57,95
113273,note_off,0,0,0,,1,,,76,127
113276,note_on,3,0,0,,0,,,58,95
113276,note_on,0,0,0,,0,,,67,95
113276,note_on,0,0,0,,1,,,74,127
113826,note_off,550,0,0,,0,,,58,95
113829,note_on,3,0,0,,0,,,55,95
113829,note_on,0,0,0,,0,,,70,95
114379,note_off,550,0,0,,0,,,70,95
114379,note_off,0,0,0,,0,,,55,95
114379,note_off,0,0,0,,1,,,74,127
114379,note_off,0,0,0,,0,,,67,95
114382,note_on,3,0,0,,0,,,57,95
114382,note_on,0,0,0,,0,,,64,95
114382,note_on,0,0,0,,0,,,69,95
114382,note_on,0,0,0,,1,,,73,127
114517,note_off,135,0,0,,1,,,73,127
114520,note_on,3,0,0,,1,,,74,127
114655,note_off,135,0,0,,1,,,74,127
114658,note_on,3,0,0,,1,,,76,127
114931,note_off,273,0,0,,0,,,64,95
114931,note_off,0,0,0,,0,,,57,95
114934,note_on,3,0,0,,0,,,45,95
114934,note_on,0,0,0,,0,,,61,95
115484,note_off,550,0,0,,0,,,61,95
115484,note_off,0,0,0,,0,,,45,95
115487,note_on,3,0,0,,0,,,47,95
115487,note_on,0,0,0,,0,,,62,95
116037,note_off,550,0,0,,0,,,62,95
116037,note_off,0,0,0,,0,,,47,95
116037,note_off,0,0,0,,1,,,76,127
116037,note_off,0,0,0,,0,,,69,95
116040,note_on,3,0,0,,0,,,49,95
116040,note_on,0,0,0,,0,,,69,95
116040,note_on,0,0,0,,1,,,64,127
116590,note_off,550,0,0,,1,,,64,127
116590,note_off,0,0,0,,0,,,49,95
116593,note_on,3,0,0,,0,,,50,95
116593,note_on,0,0,0,,1,,,65,127
117160,note_off,567,0,0,,0,,,50,95
117160,note_off,0,0,0,,0,,,69,95
117163,note_on,3,0,0,,0,,,48,95
117163,note_on,0,0,0,,0,,,69,95
117445,note_off,282,0,0,,1,,,65,127
117448,note_on,3,0,0,,1,,,67,127
117730,note_off,282,0,0,,1,,,67,127
117730,note_off,0,0,0,,0,,,69,95
117730,note_off,0,0,0,,0,,,48,95
117733,note_on,3,0,0,,0,,,46,95
117733,note_on,0,0,0,,0,,,62,95
117733,note_on,0,0,0,,0,,,69,95
117733,note_on,0,0,0,,1,,,69,127
117873,note_off,140,0,0,,1,,,69,127
117876,note_on,3,0,0,,1,,,67,127
118016,note_off,140,0,0,,1,,,67,127
118019,note_on,3,0,0,,1,,,69,127
118159,note_off,140,0,0,,0,,,69,95
118162,note_on,3,0,0,,1,,,67,127
118302,note_off,140,0,0,,1,,,67,127
118302,note_off,0,0,0,,1,,,69,127
118305,note_on,3,0,0,,1,,,69,127
118445,note_off,140,0,0,,1,,,69,127
118448,note_on,3,0,0,,1,,,67,127
118588,note_off,140,0,0,,1,,,67,127
118591,note_on,3,0,0,,1,,,65,127
118731,note_off,140,0,0,,1,,,65,127
118734,note_on,3,0,0,,1,,,67,127
118874,note_off,140,0,0,,1,,,67,127
118874,note_off,0,0,0,,0,,,62,95
118874,note_off,0,0,0,,0,,,46,95
118877,note_on,3,0,0,,0,,,45,95
118877,note_on,0,0,0,,0,,,69,95
118877,note_on,0,0,0,,0,,,64,95
118877,note_on,0,0,0,,0,,,61,95
118877,note_on,0,0,0,,1,,,69,127
119480,note_off,603,0,0,,1,,,69,127
119480,note_off,0,0,0,,0,,,45,95
119483,note_on,3,0,0,,0,,,45,95
119483,note_on,0,0,0,,1,,,57,127
120086,note_off,603,0,0,,1,,,57,127
120086,note_off,0,0,0,,0,,,45,95
120089,note_on,3,0,0,,0,,,45,95
120089,note_on,0,0,0,,1,,,57,127
120692,note_off,603,0,0,,1,,,57,127
120692,note_off,0,0,0,,0,,,45,95
120695,note_on,3,0,0,,0,,,45,95
120695,note_on,0,0,0,,1,,,57,127
121298,note_off,603,0,0,,1,,,57,127
121298,note_off,0,0,0,,0,,,45,95
121298,note_off,0,0,0,,0,,,61,95
121298,note_off,0,0,0,,0,,,64,95
121298,note_off,0,0,0,,0,,,69,95
121317,note_on,19,0,0,,1,,,57,127
121317,note_on,0,0,0,,0,,,57,95
121317,note_on,0,0,0,,0,,,45,95
122817,note_off,1500,0,0,,0,,,45,95
122817,note_off,0,0,0,,0,,,57,95
122817,note_off,0,0,0,,1,,,57,127
123027,note_on,210,0,0,,1,,,69,127
123161,note_off,134,0,0,,1,,,69,127
123162,note_on,1,0,0,,1,,,71,127
123296,note_off,134,0,0,,1,,,71,127
123297,note_on,1,0,0,,1,,,73,127
123431,note_off,134,0,0,,1,,,73,127
123432,note_on,1,0,0,,0,,,50,95
123432,note_on,0,0,0,,0,,,65,95
123432,note_on,0,0,0,,0,,,69,95
123432,note_on,0,0,0,,1,,,74,127
123702,note_off,270,0,0,,1,,,74,127
123703,note_on,1,0,0,,1,,,69,127
123973,note_off,270,0,0,,1,,,69,127
123973,note_off,0,0,0,,0,,,69,95
123973,note_off,0,0,0,,0,,,65,95
123973,note_off,0,0,0,,0,,,50,95
123974,note_on,1,0,0,,1,,,62,127
124244,note_off,270,0,0,,1,,,62,127
124245,note_on,1,0,0,,0,,,45,95
124245,note_on,0,0,0,,0,,,64,95
124245,note_on,0,0,0,,0,,,73,95
124245,note_on,0,0,0,,1,,,76,127
124515,note_off,270,0,0,,1,,,76,127
124515,note_off,0,0,0,,0,,,73,95
124515,note_off,0,0,0,,0,,,64,95
124515,note_off,0,0,0,,0,,,45,95
124516,note_on,1,0,0,,0,,,38,95
124516,note_on,0,0,0,,0,,,65,95
124516,note_on,0,0,0,,0,,,69,95
124516,note_on,0,0,0,,1,,,77,127
124786,note_off,270,0,0,,1,,,77,127
124787,note_on,1,0,0,,1,,,69,127
125057,note_off,270,0,0,,1,,,69,127
125057,note_off,0,0,0,,0,,,69,95
125057,note_off,0,0,0,,0,,,65,95
125057,note_off,0,0,0,,0,,,38,95
125058,note_on,1,0,0,,1,,,62,127
125328,note_off,270,0,0,,1,,,62,127
125329,note_on,1,0,0,,0,,,52,95
125329,note_on,0,0,0,,0,,,64,95
125329,note_on,0,0,0,,0,,,67,95
125329,note_on,0,0,0,,1,,,73,127
125599,note_off,270,0,0,,1,,,73,127
125599,note_off,0,0,0,,0,,,67,95
125599,note_off,0,0,0,,0,,,64,95
125599,note_off,0,0,0,,0,,,52,95
125600,note_on,1,0,0,,0,,,53,95
125600,note_on,0,0,0,,0,,,62,95
125600,note_on,0,0,0,,0,,,69,95
125600,note_on,0,0,0,,1,,,74,127
125870,note_off,270,0,0,,1,,,74,127
125871,note_on,1,0,0,,1,,,69,127
126141,note_off,270,0,0,,1,,,69,127
126141,note_off,0,0,0,,0,,,69,95
126141,note_off,0,0,0,,0,,,62,95
126141,note_off,0,0,0,,0,,,53,95
126142,note_on,1,0,0,,1,,,62,127
126412,note_off,270,0,0,,1,,,62,127
126413,note_on,1,0,0,,0,,,49,95
126413,note_on,0,0,0,,0,,,64,95
126413,note_on,0,0,0,,0,,,69,95
126413,note_on,0,0,0,,1,,,76,127
126683,note_off,270,0,0,,1,,,76,127
126683,note_off,0,0,0,,0,,,69,95
126683,note_off,0,0,0,,0,,,64,95
126683,note_off,0,0,0,,0,,,49,95
126684,note_on,1,0,0,,0,,,50,95
126684,note_on,0,0,0,,0,,,65,95
126684,note_on,0,0,0,,0,,,69,95
126684,note_on,0,0,0,,1,,,77,127
126954,note_off,270,0,0,,1,,,77,127
126955,note_on,1,0,0,,1,,,69,127
127225,note_off,270,0,0,,1,,,69,127
127225,note_off,0,0,0,,0,,,69,95
127225,note_off,0,0,0,,0,,,65,95
127225,note_off,0,0,0,,0,,,50,95
127226,note_on,1,0,0,,1,,,62,127
127496,note_off,270,0,0,,1,,,62,127
127497,note_on,1,0,0,,0,,,52,95
127497,note_on,0,0,0,,0,,,73,95
127497,note_on,0,0,0,,0,,,69,95
127497,note_on,0,0,0,,1,,,79,127
127767,note_off,270,0,0,,1,,,79,127
127767,note_off,0,0,0,,0,,,69,95
127767,note_off,0,0,0,,0,,,73,95
127767,note_off,0,0,0,,0,,,52,95
127768,note_on,1,0,0,,0,,,53,95
127768,note_on,0,0,0,,0,,,62,95
127768,note_on,0,0,0,,0,,,69,95
127768,note_on,0,0,0,,1,,,81,127
128038,note_off,270,0,0,,1,,,81,127
128039,note_on,1,0,0,,1,,,79,127
128173,note_off,134,0,0,,1,,,79,127
128174,note_on,1,0,0,,1,,,77,127
128308,note_off,134,0,0,,1,,,77,127
128308,note_off,0,0,0,,0,,,69,95
128308,note_off,0,0,0,,0,,,62,95
128308,note_off,0,0,0,,0,,,53,95
128309,note_on,1,0,0,,0,,,55,95
128309,note_on,0,0,0,,0,,,64,95
128309,note_on,0,0,0,,0,,,70,95
128309,note_on,0,0,0,,1,,,76,127
128579,note_off,270,0,0,,1,,,76,127
128580,note_on,1,0,0,,1,,,74,127
128850,note_off,270,0,0,,1,,,74,127
128850,note_off,0,0,0,,0,,,70,95
128850,note_off,0,0,0,,0,,,64,95
128850,note_off,0,0,0,,0,,,55,95
128851,note_on,1,0,0,,1,,,73,127
128985,note_off,134,0,0,,1,,,73,127
128986,note_on,1,0,0,,1,,,71,127
129120,note_off,134,0,0,,1,,,71,127
129121,note_on,1,0,0,,0,,,57,95
129121,note_on,0,0,0,,0,,,64,95
129121,note_on,0,0,0,,0,,,61,95
129121,note_on,0,0,0,,1,,,69,127
129391,note_off,270,0,0,,1,,,69,127
129391,note_off,0,0,0,,0,,,61,95
129391,note_off,0,0,0,,0,,,64,95
129391,note_off,0,0,0,,0,,,57,95
129392,note_on,1,0,0,,0,,,53,95
129392,note_on,0,0,0,,0,,,62,95
129392,note_on,0,0,0,,0,,,69,95
129662,note_off,270,0,0,,0,,,62,95
129662,note_off,0,0,0,,0,,,53,95
129663,note_on,1,0,0,,0,,,50,95
129663,note_on,0,0,0,,0,,,65,95
129663,note_on,0,0,0,,1,,,69,127
129933,note_off,270,0,0,,1,,,69,127
129933,note_off,0,0,0,,0,,,65,95
129933,note_off,0,0,0,,0,,,50,95
129933,note_off,0,0,0,,0,,,69,95
129934,note_on,1,0,0,,0,,,55,95
129934,note_on,0,0,0,,0,,,64,95
129934,note_on,0,0,0,,1,,,71,127
130000,note_off,66,0,0,,1,,,71,127
130001,note_on,1,0,0,,1,,,73,127
130067,note_off,66,0,0,,1,,,73,127
130068,note_on,1,0,0,,1,,,74,127
130202,note_off,134,0,0,,0,,,55,95
130203,note_on,1,0,0,,0,,,52,95
130203,note_on,0,0,0,,0,,,67,95
130473,note_off,270,0,0,,0,,,52,95
130473,note_off,0,0,0,,1,,,74,127
130474,note_on,1,0,0,,0,,,49,95
130474,note_on,0,0,0,,1,,,76,127
130540,note_off,66,0,0,,1,,,76,127
130541,note_on,1,0,0,,1,,,77,127
130607,note_off,66,0,0,,1,,,77,127
130608,note_on,1,0,0,,1,,,79,127
130742,note_off,134,0,0,,0,,,49,95
130742,note_off,0,0,0,,0,,,64,95
130743,note_on,1,0,0,,0,,,45,95
130743,note_on,0,0,0,,0,,,73,95
131013,note_off,270,0,0,,0,,,73,95
131013,note_off,0,0,0,,0,,,45,95
131013,note_off,0,0,0,,1,,,79,127
131013,note_off,0,0,0,,0,,,67,95
131014,note_on,1,0,0,,0,,,50,95
131014,note_on,0,0,0,,0,,,74,95
131014,note_on,0,0,0,,1,,,77,127
131080,note_off,66,0,0,,1,,,77,127
131081,note_on,1,0,0,,1,,,76,127
131147,note_off,66,0,0,,1,,,76,127
131148,note_on,1,0,0,,1,,,74,127
131282,note_off,134,0,0,,1,,,74,127
131282,note_off,0,0,0,,0,,,74,95
131282,note_off,0,0,0,,0,,,50,95
131283,note_on,1,0,0,,0,,,57,95
131283,note_on,0,0,0,,0,,,64,95
131283,note_on,0,0,0,,1,,,76,127
131553,note_off,270,0,0,,1,,,76,127
131553,note_off,0,0,0,,0,,,57,95
131554,note_on,1,0,0,,0,,,55,95
131824,note_off,270,0,0,,0,,,55,95
131824,note_off,0,0,0,,0,,,64,95
131825,note_on,1,0,0,,0,,,53,95
131825,note_on,0,0,0,,0,,,62,95
131825,note_on,0,0,0,,1,,,69,127
132095,note_off,270,0,0,,1,,,69,127
132095,note_off,0,0,0,,0,,,62,95
132095,note_off,0,0,0,,0,,,53,95
132096,note_on,1,0,0,,0,,,55,95
132096,note_on,0,0,0,,0,,,64,95
132096,note_on,0,0,0,,1,,,71,127
132162,note_off,66,0,0,,1,,,71,127
132163,note_on,1,0,0,,1,,,73,127
132229,note_off,66,0,0,,1,,,73,127
132230,note_on,1,0,0,,1,,,74,127
132364,note_off,134,0,0,,0,,,55,95
132365,note_on,1,0,0,,0,,,52,95
132635,note_off,270,0,0,,0,,,52,95
132635,note_off,0,0,0,,1,,,74,127
132636,note_on,1,0,0,,0,,,49,95
132636,note_on,0,0,0,,0,,,69,95
132636,note_on,0,0,0,,1,,,76,127
132702,note_off,66,0,0,,1,,,76,127
132703,note_on,1,0,0,,1,,,77,127
132769,note_off,66,0,0,,1,,,77,127
132770,note_on,1,0,0,,1,,,79,127
132904,note_off,134,0,0,,0,,,49,95
132904,note_off,0,0,0,,0,,,64,95
132905,note_on,1,0,0,,0,,,45,95
132905,note_on,0,0,0,,0,,,73,95
133175,note_off,270,0,0,,0,,,73,95
133175,note_off,0,0,0,,0,,,45,95
133175,note_off,0,0,0,,1,,,79,127
133175,note_off,0,0,0,,0,,,69,95
133176,note_on,1,0,0,,0,,,50,95
133176,note_on,0,0,0,,0,,,74,95
133176,note_on,0,0,0,,1,,,77,127
133242,note_off,66,0,0,,1,,,77,127
133243,note_on,1,0,0,,1,,,76,127
133309,note_off,66,0,0,,1,,,76,127
133310,note_on,1,0,0,,1,,,74,127
133444,note_off,134,0,0,,1,,,74,127
133444,note_off,0,0,0,,0,,,74,95
133444,note_off,0,0,0,,0,,,50,95
133445,note_on,1,0,0,,0,,,45,95
133445,note_on,0,0,0,,0,,,64,95
133445,note_on,0,0,0,,0,,,73,95
133445,note_on,0,0,0,,1,,,76,127
133715,note_off,270,0,0,,1,,,76,127
133715,note_off,0,0,0,,0,,,73,95
133715,note_off,0,0,0,,0,,,45,95
133716,note_on,1,0,0,,0,,,47,95
133716,note_on,0,0,0,,0,,,74,95
133986,note_off,270,0,0,,0,,,74,95
133986,note_off,0,0,0,,0,,,47,95
133986,note_off,0,0,0,,0,,,64,95
133987,note_on,1,0,0,,0,,,49,95
133987,note_on,0,0,0,,0,,,69,95
133987,note_on,0,0,0,,0,,,76,95
133987,note_on,0,0,0,,1,,,79,127
134257,note_off,270,0,0,,1,,,79,127
134257,note_off,0,0,0,,0,,,76,95
134257,note_off,0,0,0,,0,,,49,95
134258,note_on,1,0,0,,0,,,50,95
134258,note_on,0,0,0,,0,,,65,95
134258,note_on,0,0,0,,1,,,77,127
134324,note_off,66,0,0,,1,,,77,127
134325,note_on,1,0,0,,1,,,76,127
134391,note_off,66,0,0,,1,,,76,127
134392,note_on,1,0,0,,1,,,74,127
134526,note_off,134,0,0,,0,,,50,95
134526,note_off,0,0,0,,0,,,69,95
134527,note_on,1,0,0,,0,,,41,95
134527,note_on,0,0,0,,0,,,62,95
134797,note_off,270,0,0,,0,,,62,95
134797,note_off,0,0,0,,0,,,41,95
134797,note_off,0,0,0,,1,,,74,127
134797,note_off,0,0,0,,0,,,65,95
134798,note_on,1,0,0,,0,,,43,95
134798,note_on,0,0,0,,0,,,64,95
134798,note_on,0,0,0,,1,,,76,127
134864,note_off,66,0,0,,1,,,76,127
134865,note_on,1,0,0,,1,,,74,127
134931,note_off,66,0,0,,1,,,74,127
134932,note_on,1,0,0,,1,,,73,127
135066,note_off,134,0,0,,0,,,43,95
135067,note_on,1,0,0,,0,,,45,95
135067,note_on,0,0,0,,0,,,67,95
135337,note_off,270,0,0,,0,,,45,95
135337,note_off,0,0,0,,1,,,73,127
135337,note_off,0,0,0,,0,,,64,95
135338,note_on,1,0,0,,0,,,46,95
135338,note_on,0,0,0,,0,,,62,95
135338,note_on,0,0,0,,1,,,74,127
135472,note_off,134,0,0,,1,,,74,127
135473,note_on,1,0,0,,1,,,72,127
135607,note_off,134,0,0,,1,,,72,127
135607,note_off,0,0,0,,0,,,46,95
135607,note_off,0,0,0,,0,,,67,95
135608,note_on,1,0,0,,0,,,43,95
135608,note_on,0,0,0,,0,,,67,95
135608,note_on,0,0,0,,1,,,70,127
135878,note_off,270,0,0,,0,,,67,95
135878,note_off,0,0,0,,0,,,43,95
135878,note_off,0,0,0,,0,,,62,95
135879,note_on,1,0,0,,0,,,49,95
135879,note_on,0,0,0,,0,,,64,95
135879,note_on,0,0,0,,0,,,57,95
136149,note_off,270,0,0,,1,,,70,127
136150,note_on,1,0,0,,1,,,69,127
136284,note_off,134,0,0,,1,,,69,127
136285,note_on,1,0,0,,1,,,67,127
136419,note_off,134,0,0,,1,,,67,127
136419,note_off,0,0,0,,0,,,57,95
136419,note_off,0,0,0,,0,,,64,95
136419,note_off,0,0,0,,0,,,49,95
136420,note_on,1,0,0,,0,,,50,95
136420,note_on,0,0,0,,0,,,69,95
136420,note_on,0,0,0,,1,,,65,127
136690,note_off,270,0,0,,1,,,65,127
136690,note_off,0,0,0,,0,,,50,95
136691,note_on,1,0,0,,0,,,41,95
136691,note_on,0,0,0,,0,,,62,95
136691,note_on,0,0,0,,1,,,74,127
136961,note_off,270,0,0,,1,,,74,127
136961,note_off,0,0,0,,0,,,62,95
136961,note_off,0,0,0,,0,,,41,95
136961,note_off,0,0,0,,0,,,69,95
136962,note_on,1,0,0,,0,,,43,95
136962,note_on,0,0,0,,0,,,64,95
136962,note_on,0,0,0,,1,,,64,127
137232,note_off,270,0,0,,1,,,64,127
137232,note_off,0,0,0,,0,,,43,95
137233,note_on,1,0,0,,0,,,45,95
137233,note_on,0,0,0,,0,,,67,95
137233,note_on,0,0,0,,1,,,73,127
137503,note_off,270,0,0,,1,,,73,127
137503,note_off,0,0,0,,0,,,67,95
137503,note_off,0,0,0,,0,,,45,95
137503,note_off,0,0,0,,0,,,64,95
137504,note_on,1,0,0,,0,,,38,95
137504,note_on,0,0,0,,0,,,65,95
137504,note_on,0,0,0,,0,,,69,95
137504,note_on,0,0,0,,1,,,74,127
137774,note_off,270,0,0,,1,,,74,127
137775,note_on,1,0,0,,1,,,69,127
138045,note_off,270,0,0,,1,,,69,127
138045,note_off,0,0,0,,0,,,69,95
138045,note_off,0,0,0,,0,,,65,95
138045,note_off,0,0,0,,0,,,38,95
138046,note_on,1,0,0,,1,,,62,127
138587,note_off,541,0,0,,1,,,62,127
138588,note_on,1,0,0,,1,,,74,127
138654,note_off,66,0,0,,1,,,74,127
138655,note_on,1,0,0,,1,,,76,127
138721,note_off,66,0,0,,1,,,76,127
138722,note_on,1,0,0,,1,,,77,127
138788,note_off,66,0,0,,1,,,77,127
138789,note_on,1,0,0,,1,,,79,127
138855,note_off,66,0,0,,1,,,79,127
138856,note_on,1,0,0,,0,,,62,95
138856,note_on,0,0,0,,1,,,81,127
139126,note_off,270,0,0,,0,,,62,95
139127,note_on,1,0,0,,0,,,57,95
139127,note_on,0,0,0,,0,,,65,95
139397,note_off,270,0,0,,0,,,65,95
139397,note_off,0,0,0,,0,,,57,95
139397,note_off,0,0,0,,1,,,81,127
139398,note_on,1,0,0,,0,,,59,95
139398,note_on,0,0,0,,0,,,67,95
139398,note_on,0,0,0,,1,,,77,127
139668,note_off,270,0,0,,1,,,77,127
139668,note_off,0,0,0,,0,,,67,95
139668,note_off,0,0,0,,0,,,59,95
139669,note_on,1,0,0,,0,,,60,95
139669,note_on,0,0,0,,0,,,64,95
139669,note_on,0,0,0,,0,,,67,95
139669,note_on,0,0,0,,0,,,72,95
139669,note_on,0,0,0,,1,,,77,127
139735,note_off,66,0,0,,1,,,77,127
139736,note_on,1,0,0,,1,,,76,127
139802,note_off,66,0,0,,1,,,76,127
139803,note_on,1,0,0,,1,,,75,127
139937,note_off,134,0,0,,0,,,60,95
139938,note_on,1,0,0,,0,,,48,95
140208,note_off,270,0,0,,0,,,48,95
140209,note_on,1,0,0,,0,,,48,95
140479,note_off,270,0,0,,1,,,75,127
140479,note_off,0,0,0,,0,,,72,95
140479,note_off,0,0,0,,0,,,67,95
140479,note_off,0,0,0,,0,,,64,95
140480,note_on,1,0,0,,1,,,76,127
140750,note_off,270,0,0,,1,,,76,127
140750,note_off,0,0,0,,0,,,48,95
140751,note_on,1,0,0,,1,,,72,127
140817,note_off,66,0,0,,1,,,72,127
140818,note_on,1,0,0,,1,,,74,127
140884,note_off,66,0,0,,1,,,74,127
140885,note_on,1,0,0,,1,,,76,127
140951,note_off,66,0,0,,1,,,76,127
140952,note_on,1,0,0,,1,,,77,127
141018,note_off,66,0,0,,1,,,77,127
141019,note_on,1,0,0,,0,,,60,95
141019,note_on,0,0,0,,1,,,79,127
141289,note_off,270,0,0,,0,,,60,95
141290,note_on,1,0,0,,0,,,55,95
141290,note_on,0,0,0,,0,,,64,95
141560,note_off,270,0,0,,0,,,55,95
141560,note_off,0,0,0,,1,,,79,127
141561,note_on,1,0,0,,0,,,57,95
141561,note_on,0,0,0,,0,,,60,95
141561,note_on,0,0,0,,1,,,76,127
141831,note_off,270,0,0,,1,,,76,127
141831,note_off,0,0,0,,0,,,60,95
141831,note_off,0,0,0,,0,,,57,95
141831,note_off,0,0,0,,0,,,64,95
141832,note_on,1,0,0,,0,,,58,95
141832,note_on,0,0,0,,0,,,62,95
141832,note_on,0,0,0,,0,,,67,95
141832,note_on,0,0,0,,1,,,76,127
141898,note_off,66,0,0,,1,,,76,127
141899,note_on,1,0,0,,1,,,74,127
141965,note_off,66,0,0,,1,,,74,127
141966,note_on,1,0,0,,1,,,73,127
142100,note_off,134,0,0,,0,,,58,95
142101,note_on,1,0,0,,0,,,46,95
142371,note_off,270,0,0,,0,,,46,95
142372,note_on,1,0,0,,0,,,46,95
142642,note_off,270,0,0,,1,,,73,127
142642,note_off,0,0,0,,0,,,67,95
142642,note_off,0,0,0,,0,,,62,95
142643,note_on,1,0,0,,1,,,74,127
142913,note_off,270,0,0,,1,,,74,127
142913,note_off,0,0,0,,0,,,46,95
142914,note_on,1,0,0,,1,,,70,127
142980,note_off,66,0,0,,1,,,70,127
142981,note_on,1,0,0,,1,,,72,127
143047,note_off,66,0,0,,1,,,72,127
143048,note_on,1,0,0,,1,,,74,127
143114,note_off,66,0,0,,1,,,74,127
143115,note_on,1,0,0,,1,,,76,127
143181,note_off,66,0,0,,1,,,76,127
143182,note_on,1,0,0,,0,,,58,95
143182,note_on,0,0,0,,1,,,77,127
143452,note_off,270,0,0,,0,,,58,95
143453,note_on,1,0,0,,0,,,53,95
143453,note_on,0,0,0,,0,,,69,95
143723,note_off,270,0,0,,0,,,69,95
143723,note_off,0,0,0,,0,,,53,95
143723,note_off,0,0,0,,1,,,77,127
143724,note_on,1,0,0,,0,,,55,95
143724,note_on,0,0,0,,0,,,70,95
143724,note_on,0,0,0,,1,,,76,127
143858,note_off,134,0,0,,1,,,76,127
143859,note_on,1,0,0,,1,,,74,127
143993,note_off,134,0,0,,1,,,74,127
143993,note_off,0,0,0,,0,,,70,95
143993,note_off,0,0,0,,0,,,55,95
143994,note_on,1,0,0,,0,,,57,95
143994,note_on,0,0,0,,0,,,60,95
143994,note_on,0,0,0,,0,,,65,95
143994,note_on,0,0,0,,1,,,72,127
144060,note_off,66,0,0,,1,,,72,127
144061,note_on,1,0,0,,1,,,74,127
144127,note_off,66,0,0,,1,,,74,127
144128,note_on,1,0,0,,1,,,76,127
144262,note_off,134,0,0,,1,,,76,127
144262,note_off,0,0,0,,0,,,65,95
144262,note_off,0,0,0,,0,,,57,95
144263,note_on,1,0,0,,0,,,55,95
144263,note_on,0,0,0,,0,,,64,95
144263,note_on,0,0,0,,1,,,77,127
144533,note_off,270,0,0,,0,,,64,95
144533,note_off,0,0,0,,0,,,55,95
144534,note_on,1,0,0,,0,,,57,95
144534,note_on,0,0,0,,0,,,65,95
144804,note_off,270,0,0,,0,,,57,95
144804,note_off,0,0,0,,0,,,60,95
144805,note_on,1,0,0,,0,,,53,95
144805,note_on,0,0,0,,0,,,69,95
145075,note_off,270,0,0,,0,,,69,95
145075,note_off,0,0,0,,0,,,53,95
145075,note_off,0,0,0,,0,,,65,95
145075,note_off,0,0,0,,1,,,77,127
145076,note_on,1,0,0,,0,,,55,95
145076,note_on,0,0,0,,0,,,60,95
145076,note_on,0,0,0,,0,,,70,95
145076,note_on,0,0,0,,1,,,70,127
145142,note_off,66,0,0,,1,,,70,127
145143,note_on,1,0,0,,1,,,72,127
145209,note_off,66,0,0,,1,,,72,127
145210,note_on,1,0,0,,1,,,74,127
145276,note_off,66,0,0,,1,,,74,127
145277,note_on,1,0,0,,1,,,76,127
145343,note_off,66,0,0,,1,,,76,127
145343,note_off,0,0,0,,0,,,70,95
145343,note_off,0,0,0,,0,,,55,95
145344,note_on,1,0,0,,0,,,53,95
145344,note_on,0,0,0,,0,,,69,95
145344,note_on,0,0,0,,1,,,77,127
145614,note_off,270,0,0,,0,,,69,95
145614,note_off,0,0,0,,0,,,53,95
145615,note_on,1,0,0,,0,,,55,95
145615,note_on,0,0,0,,0,,,70,95
145885,note_off,270,0,0,,0,,,55,95
145885,note_off,0,0,0,,0,,,60,95
145886,note_on,1,0,0,,0,,,52,95
145886,note_on,0,0,0,,0,,,67,95
146156,note_off,270,0,0,,0,,,67,95
146156,note_off,0,0,0,,0,,,52,95
146156,note_off,0,0,0,,0,,,70,95
146156,note_off,0,0,0,,1,,,77,127
146157,note_on,1,0,0,,0,,,53,95
146157,note_on,0,0,0,,0,,,65,95
146157,note_on,0,0,0,,0,,,69,95
146157,note_on,0,0,0,,1,,,69,127
146427,note_off,270,0,0,,1,,,69,127
146427,note_off,0,0,0,,0,,,69,95
146427,note_off,0,0,0,,0,,,65,95
146427,note_off,0,0,0,,0,,,53,95
146428,note_on,1,0,0,,0,,,52,95
146428,note_on,0,0,0,,0,,,67,95
146428,note_on,0,0,0,,1,,,70,127
146494,note_off,66,0,0,,1,,,70,127
146495,note_on,1,0,0,,1,,,72,127
146561,note_off,66,0,0,,1,,,72,127
146562,note_on,1,0,0,,1,,,74,127
146628,note_off,66,0,0,,1,,,74,127
146629,note_on,1,0,0,,1,,,76,127
146695,note_off,66,0,0,,1,,,76,127
146695,note_off,0,0,0,,0,,,52,95
146696,note_on,1,0,0,,0,,,50,95
146696,note_on,0,0,0,,0,,,70,95
146696,note_on,0,0,0,,1,,,77,127
146966,note_off,270,0,0,,0,,,70,95
146966,note_off,0,0,0,,0,,,50,95
146966,note_off,0,0,0,,0,,,67,95
146967,note_on,1,0,0,,0,,,48,95
146967,note_on,0,0,0,,0,,,69,95
147237,note_off,270,0,0,,0,,,69,95
147237,note_off,0,0,0,,0,,,48,95
147238,note_on,1,0,0,,0,,,46,95
147238,note_on,0,0,0,,0,,,67,95
147372,note_off,134,0,0,,1,,,77,127
147373,note_on,1,0,0,,1,,,76,127
147507,note_off,134,0,0,,1,,,76,127
147507,note_off,0,0,0,,0,,,67,95
147507,note_off,0,0,0,,0,,,46,95
147508,note_on,1,0,0,,0,,,45,95
147508,note_on,0,0,0,,0,,,65,95
147508,note_on,0,0,0,,1,,,74,127
147642,note_off,134,0,0,,1,,,74,127
147643,note_on,1,0,0,,1,,,72,127
147777,note_off,134,0,0,,1,,,72,127
147777,note_off,0,0,0,,0,,,65,95
147777,note_off,0,0,0,,0,,,45,95
147778,note_on,1,0,0,,0,,,43,95
147778,note_on,0,0,0,,0,,,64,95
147778,note_on,0,0,0,,1,,,70,127
148048,note_off,270,0,0,,1,,,70,127
148048,note_off,0,0,0,,0,,,64,95
148048,note_off,0,0,0,,0,,,43,95
148049,note_on,1,0,0,,0,,,41,95
148049,note_on,0,0,0,,0,,,65,95
148049,note_on,0,0,0,,1,,,69,127
148319,note_off,270,0,0,,1,,,69,127
148319,note_off,0,0,0,,0,,,65,95
148319,note_off,0,0,0,,0,,,41,95
148320,note_on,1,0,0,,0,,,48,95
148320,note_on,0,0,0,,0,,,60,95
148320,note_on,0,0,0,,0,,,64,95
148320,note_on,0,0,0,,1,,,69,127
148590,note_off,270,0,0,,1,,,69,127
148590,note_off,0,0,0,,0,,,48,95
148591,note_on,1,0,0,,0,,,48,95
148591,note_on,0,0,0,,1,,,67,127
148725,note_off,134,0,0,,0,,,64,95
148725,note_off,0,0,0,,0,,,60,95
148861,note_off,136,0,0,,1,,,67,127
148861,note_off,0,0,0,,0,,,48,95
148862,note_on,1,0,0,,0,,,48,95
148862,note_on,0,0,0,,0,,,64,95
148862,note_on,0,0,0,,0,,,67,95
149132,note_off,270,0,0,,0,,,48,95
149133,note_on,1,0,0,,0,,,48,95
149133,note_on,0,0,0,,1,,,72,127
149267,note_off,134,0,0,,0,,,67,95
149267,note_off,0,0,0,,0,,,64,95
149403,note_off,136,0,0,,1,,,72,127
149403,note_off,0,0,0,,0,,,48,95
149404,note_on,1,0,0,,0,,,50,95
149404,note_on,0,0,0,,0,,,65,95
149404,note_on,0,0,0,,0,,,67,95
149404,note_on,0,0,0,,0,,,71,95
149404,note_on,0,0,0,,1,,,71,127
149470,note_off,66,0,0,,1,,,71,127
149471,note_on,1,0,0,,1,,,72,127
149537,note_off,66,0,0,,1,,,72,127
149538,note_on,1,0,0,,1,,,74,127
149604,note_off,66,0,0,,1,,,74,127
149605,note_on,1,0,0,,1,,,76,127
149671,note_off,66,0,0,,1,,,76,127
149671,note_off,0,0,0,,0,,,50,95
149672,note_on,1,0,0,,0,,,50,95
149672,note_on,0,0,0,,1,,,77,127
149942,note_off,270,0,0,,0,,,50,95
149943,note_on,1,0,0,,0,,,50,95
150213,note_off,270,0,0,,0,,,50,95
150214,note_on,1,0,0,,0,,,50,95
150484,note_off,270,0,0,,0,,,50,95
150484,note_off,0,0,0,,1,,,77,127
150484,note_off,0,0,0,,0,,,71,95
150484,note_off,0,0,0,,0,,,67,95
150484,note_off,0,0,0,,0,,,65,95
150485,note_on,1,0,0,,0,,,48,95
150485,note_on,0,0,0,,0,,,64,95
150485,note_on,0,0,0,,0,,,67,95
150485,note_on,0,0,0,,0,,,72,95
150485,note_on,0,0,0,,1,,,76,127
150619,note_off,134,0,0,,1,,,76,127
150620,note_on,1,0,0,,1,,,74,127
150754,note_off,134,0,0,,1,,,74,127
150754,note_off,0,0,0,,0,,,48,95
150755,note_on,1,0,0,,0,,,48,95
150755,note_on,0,0,0,,1,,,72,127
151025,note_off,270,0,0,,0,,,48,95
151026,note_on,1,0,0,,0,,,48,95
151296,note_off,270,0,0,,0,,,48,95
151297,note_on,1,0,0,,0,,,48,95
151567,note_off,270,0,0,,0,,,48,95
151567,note_off,0,0,0,,1,,,72,127
151567,note_off,0,0,0,,0,,,72,95
151567,note_off,0,0,0,,0,,,67,95
151567,note_off,0,0,0,,0,,,64,95
151568,note_on,1,0,0,,0,,,43,95
151568,note_on,0,0,0,,0,,,62,95
151568,note_on,0,0,0,,0,,,65,95
151568,note_on,0,0,0,,0,,,71,95
151568,note_on,0,0,0,,1,,,71,127
151634,note_off,66,0,0,,1,,,71,127
151635,note_on,1,0,0,,1,,,72,127
151701,note_off,66,0,0,,1,,,72,127
151702,note_on,1,0,0,,1,,,74,127
151768,note_off,66,0,0,,1,,,74,127
151769,note_on,1,0,0,,1,,,76,127
151835,note_off,66,0,0,,1,,,76,127
151835,note_off,0,0,0,,0,,,43,95
151836,note_on,1,0,0,,0,,,43,95
151836,note_on,0,0,0,,1,,,77,127
152106,note_off,270,0,0,,0,,,43,95
152107,note_on,1,0,0,,0,,,43,95
152377,note_off,270,0,0,,0,,,43,95
152378,note_on,1,0,0,,0,,,43,95
152648,note_off,270,0,0,,0,,,43,95
152648,note_off,0,0,0,,1,,,77,127
152648,note_off,0,0,0,,0,,,71,95
152648,note_off,0,0,0,,0,,,65,95
152648,note_off,0,0,0,,0,,,62,95
152649,note_on,1,0,0,,0,,,48,95
152649,note_on,0,0,0,,0,,,64,95
152649,note_on,0,0,0,,0,,,72,95
152649,note_on,0,0,0,,1,,,76,127
152783,note_off,134,0,0,,1,,,76,127
152784,note_on,1,0,0,,1,,,74,127
152918,note_off,134,0,0,,1,,,74,127
152918,note_off,0,0,0,,0,,,72,95
152918,note_off,0,0,0,,0,,,48,95
152919,note_on,1,0,0,,0,,,60,95
152919,note_on,0,0,0,,0,,,67,95
152919,note_on,0,0,0,,1,,,72,127
153189,note_off,270,0,0,,0,,,67,95
153189,note_off,0,0,0,,0,,,60,95
153189,note_off,0,0,0,,0,,,64,95
153190,note_on,1,0,0,,0,,,57,95
153190,note_on,0,0,0,,0,,,65,95
153460,note_off,270,0,0,,0,,,57,95
153460,note_off,0,0,0,,1,,,72,127
153461,note_on,1,0,0,,0,,,53,95
153461,note_on,0,0,0,,0,,,69,95
153461,note_on,0,0,0,,1,,,72,127
153731,note_off,270,0,0,,1,,,72,127
153731,note_off,0,0,0,,0,,,69,95
153731,note_off,0,0,0,,0,,,53,95
153731,note_off,0,0,0,,0,,,65,95
153732,note_on,1,0,0,,0,,,58,95
153732,note_on,0,0,0,,1,,,74,127
153798,note_off,66,0,0,,1,,,74,127
153799,note_on,1,0,0,,1,,,76,127
153865,note_off,66,0,0,,1,,,76,127
153866,note_on,1,0,0,,1,,,77,127
154000,note_off,134,0,0,,0,,,58,95
154001,note_on,1,0,0,,0,,,55,95
154001,note_on,0,0,0,,0,,,64,95
154271,note_off,270,0,0,,0,,,55,95
154271,note_off,0,0,0,,1,,,77,127
154272,note_on,1,0,0,,0,,,52,95
154272,note_on,0,0,0,,0,,,67,95
154272,note_on,0,0,0,,1,,,79,127
154338,note_off,66,0,0,,1,,,79,127
154339,note_on,1,0,0,,1,,,81,127
154405,note_off,66,0,0,,1,,,81,127
154406,note_on,1,0,0,,1,,,82,127
154540,note_off,134,0,0,,0,,,67,95
154540,note_off,0,0,0,,0,,,52,95
154541,note_on,1,0,0,,0,,,48,95
154541,note_on,0,0,0,,0,,,70,95
154811,note_off,270,0,0,,0,,,70,95
154811,note_off,0,0,0,,0,,,48,95
154811,note_off,0,0,0,,1,,,82,127
154811,note_off,0,0,0,,0,,,64,95
154812,note_on,1,0,0,,0,,,53,95
154812,note_on,0,0,0,,0,,,60,95
154812,note_on,0,0,0,,1,,,81,127
154878,note_off,66,0,0,,1,,,81,127
154879,note_on,1,0,0,,1,,,79,127
154945,note_off,66,0,0,,1,,,79,127
154946,note_on,1,0,0,,1,,,77,127
155080,note_off,134,0,0,,1,,,77,127
155080,note_off,0,0,0,,0,,,53,95
155081,note_on,1,0,0,,0,,,60,95
155081,note_on,0,0,0,,0,,,64,95
155081,note_on,0,0,0,,1,,,79,127
155351,note_off,270,0,0,,1,,,79,127
155351,note_off,0,0,0,,0,,,64,95
155351,note_off,0,0,0,,0,,,60,95
155352,note_on,1,0,0,,0,,,58,95
155352,note_on,0,0,0,,0,,,67,95
155622,note_off,270,0,0,,0,,,67,95
155622,note_off,0,0,0,,0,,,58,95
155622,note_off,0,0,0,,0,,,60,95
155623,note_on,1,0,0,,0,,,57,95
155623,note_on,0,0,0,,0,,,65,95
155623,note_on,0,0,0,,1,,,72,127
155893,note_off,270,0,0,,1,,,72,127
155893,note_off,0,0,0,,0,,,65,95
155893,note_off,0,0,0,,0,,,57,95
155894,note_on,1,0,0,,0,,,58,95
155894,note_on,0,0,0,,1,,,74,127
155960,note_off,66,0,0,,1,,,74,127
155961,note_on,1,0,0,,1,,,76,127
156027,note_off,66,0,0,,1,,,76,127
156028,note_on,1,0,0,,1,,,77,127
156162,note_off,134,0,0,,0,,,58,95
156163,note_on,1,0,0,,0,,,55,95
156163,note_on,0,0,0,,0,,,64,95
156433,note_off,270,0,0,,0,,,55,95
156433,note_off,0,0,0,,1,,,77,127
156434,note_on,1,0,0,,0,,,52,95
156434,note_on,0,0,0,,0,,,70,95
156434,note_on,0,0,0,,1,,,79,127
156500,note_off,66,0,0,,1,,,79,127
156501,note_on,1,0,0,,1,,,81,127
156567,note_off,66,0,0,,1,,,81,127
156568,note_on,1,0,0,,1,,,82,127
156702,note_off,134,0,0,,0,,,70,95
156702,note_off,0,0,0,,0,,,52,95
156703,note_on,1,0,0,,0,,,48,95
156703,note_on,0,0,0,,0,,,67,95
156973,note_off,270,0,0,,0,,,67,95
156973,note_off,0,0,0,,0,,,48,95
156973,note_off,0,0,0,,1,,,82,127
156973,note_off,0,0,0,,0,,,64,95
156974,note_on,1,0,0,,0,,,53,95
156974,note_on,0,0,0,,0,,,65,95
156974,note_on,0,0,0,,1,,,81,127
157040,note_off,66,0,0,,1,,,81,127
157041,note_on,1,0,0,,1,,,79,127
157107,note_off,66,0,0,,1,,,79,127
157108,note_on,1,0,0,,1,,,77,127
157242,note_off,134,0,0,,1,,,77,127
157242,note_off,0,0,0,,0,,,65,95
157242,note_off,0,0,0,,0,,,53,95
157243,note_on,1,0,0,,0,,,48,95
157243,note_on,0,0,0,,0,,,64,95
157243,note_on,0,0,0,,1,,,79,127
157513,note_off,270,0,0,,1,,,79,127
157513,note_off,0,0,0,,0,,,64,95
157513,note_off,0,0,0,,0,,,48,95
157514,note_on,1,0,0,,0,,,50,95
157514,note_on,0,0,0,,0,,,65,95
157784,note_off,270,0,0,,0,,,65,95
157784,note_off,0,0,0,,0,,,50,95
157785,note_on,1,0,0,,0,,,52,95
157785,note_on,0,0,0,,0,,,67,95
157785,note_on,0,0,0,,1,,,82,127
158055,note_off,270,0,0,,1,,,82,127
158055,note_off,0,0,0,,0,,,67,95
158055,note_off,0,0,0,,0,,,52,95
158056,note_on,1,0,0,,0,,,53,95
158056,note_on,0,0,0,,0,,,60,95
158056,note_on,0,0,0,,1,,,81,127
158122,note_off,66,0,0,,1,,,81,127
158123,note_on,1,0,0,,1,,,79,127
158189,note_off,66,0,0,,1,,,79,127
158190,note_on,1,0,0,,1,,,77,127
158324,note_off,134,0,0,,0,,,53,95
158325,note_on,1,0,0,,0,,,45,95
158325,note_on,0,0,0,,0,,,65,95
158595,note_off,270,0,0,,0,,,45,95
158595,note_off,0,0,0,,1,,,77,127
158595,note_off,0,0,0,,0,,,60,95
158596,note_on,1,0,0,,0,,,46,95
158596,note_on,0,0,0,,0,,,62,95
158596,note_on,0,0,0,,1,,,79,127
158662,note_off,66,0,0,,1,,,79,127
158663,note_on,1,0,0,,1,,,77,127
158729,note_off,66,0,0,,1,,,77,127
158730,note_on,1,0,0,,1,,,76,127
158864,note_off,134,0,0,,0,,,62,95
158864,note_off,0,0,0,,0,,,46,95
158865,note_on,1,0,0,,0,,,48,95
158865,note_on,0,0,0,,0,,,64,95
159135,note_off,270,0,0,,0,,,64,95
159135,note_off,0,0,0,,0,,,48,95
159135,note_off,0,0,0,,1,,,76,127
159135,note_off,0,0,0,,0,,,65,95
159136,note_on,1,0,0,,0,,,50,95
159136,note_on,0,0,0,,0,,,65,95
159136,note_on,0,0,0,,0,,,70,95
159136,note_on,0,0,0,,1,,,77,127
159270,note_off,134,0,0,,1,,,77,127
159271,note_on,1,0,0,,1,,,76,127
159405,note_off,134,0,0,,1,,,76,127
159406,note_on,1,0,0,,1,,,74,127
159676,note_off,270,0,0,,0,,,70,95
159676,note_off,0,0,0,,0,,,65,95
159676,note_off,0,0,0,,0,,,50,95
159677,note_on,1,0,0,,0,,,52,95
159677,note_on,0,0,0,,0,,,67,95
159677,note_on,0,0,0,,0,,,70,95
159947,note_off,270,0,0,,1,,,74,127
159948,note_on,1,0,0,,1,,,72,127
160082,note_off,134,0,0,,1,,,72,127
160083,note_on,1,0,0,,1,,,70,127
160217,note_off,134,0,0,,1,,,70,127
160217,note_off,0,0,0,,0,,,70,95
160217,note_off,0,0,0,,0,,,67,95
160217,note_off,0,0,0,,0,,,52,95
160218,note_on,1,0,0,,0,,,53,95
160218,note_on,0,0,0,,0,,,60,95
160218,note_on,0,0,0,,1,,,69,127
160488,note_off,270,0,0,,1,,,69,127
160488,note_off,0,0,0,,0,,,53,95
160489,note_on,1,0,0,,0,,,45,95
160489,note_on,0,0,0,,0,,,72,95
160489,note_on,0,0,0,,1,,,77,127
160759,note_off,270,0,0,,1,,,77,127
160759,note_off,0,0,0,,0,,,72,95
160759,note_off,0,0,0,,0,,,45,95
160759,note_off,0,0,0,,0,,,60,95
160760,note_on,1,0,0,,0,,,46,95
160760,note_on,0,0,0,,0,,,62,95
160760,note_on,0,0,0,,1,,,67,127
161030,note_off,270,0,0,,1,,,67,127
161030,note_off,0,0,0,,0,,,62,95
161030,note_off,0,0,0,,0,,,46,95
161031,note_on,1,0,0,,0,,,48,95
161031,note_on,0,0,0,,0,,,64,95
161031,note_on,0,0,0,,1,,,76,127
161301,note_off,270,0,0,,1,,,76,127
161301,note_off,0,0,0,,0,,,64,95
161301,note_off,0,0,0,,0,,,48,95
161302,note_on,1,0,0,,0,,,41,95
161302,note_on,0,0,0,,0,,,60,95
161302,note_on,0,0,0,,0,,,65,95
161302,note_on,0,0,0,,0,,,69,95
161302,note_on,0,0,0,,1,,,77,127
161572,note_off,270,0,0,,1,,,77,127
161573,note_on,1,0,0,,1,,,60,127
161843,note_off,270,0,0,,1,,,60,127
161843,note_off,0,0,0,,0,,,69,95
161843,note_off,0,0,0,,0,,,65,95
161843,note_off,0,0,0,,0,,,60,95
161843,note_off,0,0,0,,0,,,41,95
161860,note_on,17,0,0,,1,,,65,127
162220,note_off,360,0,0,,1,,,65,127
162402,note_on,182,0,0,,1,,,65,127
162468,note_off,66,0,0,,1,,,65,127
162469,note_on,1,0,0,,1,,,67,127
162535,note_off,66,0,0,,1,,,67,127
162536,note_on,1,0,0,,1,,,69,127
162602,note_off,66,0,0,,1,,,69,127
162603,note_on,1,0,0,,1,,,70,127
162669,note_off,66,0,0,,1,,,70,127
162670,note_on,1,0,0,,1,,,72,127
162670,note_on,0,0,0,,0,,,69,95
162670,note_on,0,0,0,,0,,,53,95
162940,note_off,270,0,0,,0,,,53,95
162940,note_off,0,0,0,,0,,,69,95
162941,note_on,1,0,0,,0,,,65,95
162941,note_on,0,0,0,,0,,,57,95
163211,note_off,270,0,0,,0,,,57,95
163211,note_off,0,0,0,,0,,,65,95
163211,note_off,0,0,0,,1,,,72,127
163212,note_on,1,0,0,,1,,,77,127
163212,note_on,0,0,0,,0,,,67,95
163212,note_on,0,0,0,,0,,,59,95
163482,note_off,270,0,0,,0,,,59,95
163482,note_off,0,0,0,,0,,,67,95
163482,note_off,0,0,0,,1,,,77,127
163483,note_on,1,0,0,,1,,,76,127
163483,note_on,0,0,0,,0,,,72,95
163483,note_on,0,0,0,,0,,,67,95
163483,note_on,0,0,0,,0,,,64,95
163483,note_on,0,0,0,,0,,,60,95
163617,note_off,134,0,0,,1,,,76,127
163618,note_on,1,0,0,,1,,,77,127
163752,note_off,134,0,0,,1,,,77,127
163752,note_off,0,0,0,,0,,,60,95
163753,note_on,1,0,0,,1,,,79,127
163753,note_on,0,0,0,,0,,,48,95
164023,note_off,270,0,0,,0,,,48,95
164024,note_on,1,0,0,,0,,,60,95
164294,note_off,270,0,0,,0,,,60,95
164294,note_off,0,0,0,,0,,,64,95
164294,note_off,0,0,0,,0,,,67,95
164294,note_off,0,0,0,,0,,,72,95
164295,note_on,1,0,0,,0,,,59,95
164565,note_off,270,0,0,,0,,,59,95
164565,note_off,0,0,0,,1,,,79,127
164566,note_on,1,0,0,,1,,,69,127
164566,note_on,0,0,0,,0,,,69,95
164566,note_on,0,0,0,,0,,,64,95
164566,note_on,0,0,0,,0,,,61,95
164566,note_on,0,0,0,,0,,,57,95
164632,note_off,66,0,0,,1,,,69,127
164633,note_on,1,0,0,,1,,,71,127
164699,note_off,66,0,0,,1,,,71,127
164700,note_on,1,0,0,,1,,,73,127
164766,note_off,66,0,0,,1,,,73,127
164767,note_on,1,0,0,,1,,,74,127
164833,note_off,66,0,0,,1,,,74,127
164833,note_off,0,0,0,,0,,,57,95
164834,note_on,1,0,0,,1,,,76,127
164834,note_on,0,0,0,,0,,,45,95
165104,note_off,270,0,0,,0,,,45,95
165104,note_off,0,0,0,,0,,,61,95
165104,note_off,0,0,0,,0,,,64,95
165104,note_off,0,0,0,,0,,,69,95
165105,note_on,1,0,0,,0,,,69,95
165105,note_on,0,0,0,,0,,,47,95
165375,note_off,270,0,0,,0,,,47,95
165375,note_off,0,0,0,,1,,,76,127
165376,note_on,1,0,0,,1,,,79,127
165376,note_on,0,0,0,,0,,,64,95
165376,note_on,0,0,0,,0,,,49,95
165646,note_off,270,0,0,,0,,,49,95
165646,note_off,0,0,0,,0,,,64,95
165646,note_off,0,0,0,,1,,,79,127
165646,note_off,0,0,0,,0,,,69,95
165647,note_on,1,0,0,,1,,,77,127
165647,note_on,0,0,0,,0,,,65,95
165647,note_on,0,0,0,,0,,,69,95
165647,note_on,0,0,0,,0,,,62,95
165647,note_on,0,0,0,,0,,,50,95
165917,note_off,270,0,0,,1,,,77,127
165918,note_on,1,0,0,,1,,,69,127
166188,note_off,270,0,0,,1,,,69,127
166188,note_off,0,0,0,,0,,,50,95
166188,note_off,0,0,0,,0,,,62,95
166188,note_off,0,0,0,,0,,,69,95
166188,note_off,0,0,0,,0,,,65,95
166189,note_on,1,0,0,,1,,,62,127
166706,note_off,517,0,0,,1,,,62,127
166731,note_on,25,0,0,,1,,,74,127
166797,note_off,66,0,0,,1,,,74,127
166798,note_on,1,0,0,,1,,,76,127
166864,note_off,66,0,0,,1,,,76,127
166865,note_on,1,0,0,,1,,,77,127
166931,note_off,66,0,0,,1,,,77,127
166932,note_on,1,0,0,,1,,,79,127
166998,note_off,66,0,0,,1,,,79,127
166999,note_on,1,0,0,,1,,,81,127
166999,note_on,0,0,0,,0,,,65,95
166999,note_on,0,0,0,,0,,,62,95
167269,note_off,270,0,0,,0,,,62,95
167270,note_on,1,0,0,,0,,,74,95
167270,note_on,0,0,0,,0,,,57,95
167540,note_off,270,0,0,,0,,,57,95
167540,note_off,0,0,0,,0,,,65,95
167540,note_off,0,0,0,,1,,,81,127
167541,note_on,1,0,0,,1,,,77,127
167541,note_on,0,0,0,,0,,,67,95
167541,note_on,0,0,0,,0,,,59,95
167811,note_off,270,0,0,,0,,,59,95
167811,note_off,0,0,0,,0,,,67,95
167811,note_off,0,0,0,,1,,,77,127
167811,note_off,0,0,0,,0,,,74,95
167812,note_on,1,0,0,,1,,,77,127
167812,note_on,0,0,0,,0,,,72,95
167812,note_on,0,0,0,,0,,,67,95
167812,note_on,0,0,0,,0,,,64,95
167812,note_on,0,0,0,,0,,,60,95
167878,note_off,66,0,0,,1,,,77,127
167879,note_on,1,0,0,,1,,,76,127
167945,note_off,66,0,0,,1,,,76,127
167946,note_on,1,0,0,,1,,,75,127
168080,note_off,134,0,0,,0,,,60,95
168081,note_on,1,0,0,,0,,,48,95
168351,note_off,270,0,0,,0,,,48,95
168352,note_on,1,0,0,,0,,,48,95
168622,note_off,270,0,0,,1,,,75,127
168622,note_off,0,0,0,,0,,,64,95
168622,note_off,0,0,0,,0,,,67,95
168622,note_off,0,0,0,,0,,,72,95
168623,note_on,1,0,0,,1,,,76,127
168893,note_off,270,0,0,,1,,,76,127
168893,note_off,0,0,0,,0,,,48,95
168894,note_on,1,0,0,,1,,,72,127
168960,note_off,66,0,0,,1,,,72,127
168961,note_on,1,0,0,,1,,,74,127
169027,note_off,66,0,0,,1,,,74,127
169028,note_on,1,0,0,,1,,,76,127
169094,note_off,66,0,0,,1,,,76,127
169095,note_on,1,0,0,,1,,,77,127
169161,note_off,66,0,0,,1,,,77,127
169162,note_on,1,0,0,,1,,,79,127
169162,note_on,0,0,0,,0,,,64,95
169162,note_on,0,0,0,,0,,,60,95
169432,note_off,270,0,0,,0,,,60,95
169433,note_on,1,0,0,,0,,,72,95
169433,note_on,0,0,0,,0,,,55,95
169703,note_off,270,0,0,,0,,,55,95
169703,note_off,0,0,0,,1,,,79,127
169704,note_on,1,0,0,,1,,,76,127
169704,note_on,0,0,0,,0,,,57,95
169974,note_off,270,0,0,,0,,,57,95
169974,note_off,0,0,0,,1,,,76,127
169974,note_off,0,0,0,,0,,,72,95
169974,note_off,0,0,0,,0,,,64,95
169975,note_on,1,0,0,,1,,,76,127
169975,note_on,0,0,0,,0,,,71,95
169975,note_on,0,0,0,,0,,,65,95
169975,note_on,0,0,0,,0,,,62,95
169975,note_on,0,0,0,,0,,,59,95
170041,note_off,66,0,0,,1,,,76,127
170042,note_on,1,0,0,,1,,,74,127
170108,note_off,66,0,0,,1,,,74,127
170109,note_on,1,0,0,,1,,,73,127
170243,note_off,134,0,0,,0,,,59,95
170244,note_on,1,0,0,,0,,,47,95
170514,note_off,270,0,0,,0,,,47,95
170515,note_on,1,0,0,,0,,,47,95
170785,note_off,270,0,0,,1,,,73,127
170785,note_off,0,0,0,,0,,,62,95
170785,note_off,0,0,0,,0,,,65,95
170785,note_off,0,0,0,,0,,,71,95
170786,note_on,1,0,0,,1,,,74,127
171056,note_off,270,0,0,,1,,,74,127
171056,note_off,0,0,0,,0,,,47,95
171057,note_on,1,0,0,,1,,,71,127
171123,note_off,66,0,0,,1,,,71,127
171124,note_on,1,0,0,,1,,,72,127
171190,note_off,66,0,0,,1,,,72,127
171191,note_on,1,0,0,,1,,,74,127
171257,note_off,66,0,0,,1,,,74,127
171258,note_on,1,0,0,,1,,,76,127
171324,note_off,66,0,0,,1,,,76,127
171325,note_on,1,0,0,,1,,,77,127
171325,note_on,0,0,0,,0,,,74,95
171325,note_on,0,0,0,,0,,,59,95
171595,note_off,270,0,0,,0,,,59,95
171596,note_on,1,0,0,,0,,,65,95
171596,note_on,0,0,0,,0,,,57,95
171866,note_off,270,0,0,,0,,,57,95
171866,note_off,0,0,0,,0,,,65,95
171866,note_off,0,0,0,,1,,,77,127
171867,note_on,1,0,0,,1,,,74,127
171867,note_on,0,0,0,,0,,,71,95
171867,note_on,0,0,0,,0,,,64,95
171867,note_on,0,0,0,,0,,,56,95
172137,note_off,270,0,0,,0,,,56,95
172137,note_off,0,0,0,,0,,,64,95
172137,note_off,0,0,0,,0,,,71,95
172137,note_off,0,0,0,,1,,,74,127
172137,note_off,0,0,0,,0,,,74,95
172138,note_on,1,0,0,,1,,,74,127
172138,note_on,0,0,0,,0,,,69,95
172138,note_on,0,0,0,,0,,,64,95
172138,note_on,0,0,0,,0,,,60,95
172138,note_on,0,0,0,,0,,,57,95
172204,note_off,66,0,0,,1,,,74,127
172205,note_on,1,0,0,,1,,,72,127
172271,note_off,66,0,0,,1,,,72,127
172272,note_on,1,0,0,,1,,,71,127
172406,note_off,134,0,0,,0,,,57,95
172407,note_on,1,0,0,,0,,,45,95
172677,note_off,270,0,0,,0,,,45,95
172678,note_on,1,0,0,,0,,,45,95
172948,note_off,270,0,0,,1,,,71,127
172948,note_off,0,0,0,,0,,,60,95
172948,note_off,0,0,0,,0,,,64,95
172948,note_off,0,0,0,,0,,,69,95
172949,note_on,1,0,0,,1,,,72,127
173219,note_off,270,0,0,,1,,,72,127
173219,note_off,0,0,0,,0,,,45,95
173220,note_on,1,0,0,,1,,,69,127
173286,note_off,66,0,0,,1,,,69,127
173287,note_on,1,0,0,,1,,,71,127
173353,note_off,66,0,0,,1,,,71,127
173354,note_on,1,0,0,,1,,,72,127
173420,note_off,66,0,0,,1,,,72,127
173421,note_on,1,0,0,,1,,,74,127
173487,note_off,66,0,0,,1,,,74,127
173488,note_on,1,0,0,,1,,,76,127
173488,note_on,0,0,0,,0,,,72,95
173488,note_on,0,0,0,,0,,,45,95
173758,note_off,270,0,0,,0,,,45,95
173758,note_off,0,0,0,,0,,,72,95
173759,note_on,1,0,0,,0,,,69,95
173759,note_on,0,0,0,,0,,,48,95
174029,note_off,270,0,0,,0,,,48,95
174029,note_off,0,0,0,,1,,,76,127
174030,note_on,1,0,0,,1,,,74,127
174030,note_on,0,0,0,,0,,,64,95
174030,note_on,0,0,0,,0,,,45,95
174164,note_off,134,0,0,,1,,,74,127
174165,note_on,1,0,0,,1,,,72,127
174299,note_off,134,0,0,,1,,,72,127
174299,note_off,0,0,0,,0,,,45,95
174299,note_off,0,0,0,,0,,,64,95
174299,note_off,0,0,0,,0,,,69,95
174300,note_on,1,0,0,,1,,,71,127
174300,note_on,0,0,0,,0,,,69,95
174300,note_on,0,0,0,,0,,,65,95
174300,note_on,0,0,0,,0,,,50,95
174434,note_off,134,0,0,,1,,,71,127
174435,note_on,1,0,0,,1,,,72,127
174569,note_off,134,0,0,,1,,,72,127
174570,note_on,1,0,0,,1,,,74,127
174840,note_off,270,0,0,,0,,,50,95
174840,note_off,0,0,0,,0,,,65,95
174840,note_off,0,0,0,,0,,,69,95
174841,note_on,1,0,0,,0,,,68,95
174841,note_on,0,0,0,,0,,,64,95
174841,note_on,0,0,0,,0,,,59,95
174841,note_on,0,0,0,,0,,,52,95
175111,note_off,270,0,0,,1,,,74,127
175112,note_on,1,0,0,,1,,,72,127
175246,note_off,134,0,0,,1,,,72,127
175247,note_on,1,0,0,,1,,,71,127
175381,note_off,134,0,0,,1,,,71,127
175381,note_off,0,0,0,,0,,,52,95
175381,note_off,0,0,0,,0,,,59,95
175381,note_off,0,0,0,,0,,,64,95
175381,note_off,0,0,0,,0,,,68,95
175382,note_on,1,0,0,,1,,,69,127
175516,note_off,134,0,0,,1,,,69,127
175517,note_on,1,0,0,,1,,,71,127
175651,note_off,134,0,0,,1,,,71,127
175652,note_on,1,0,0,,1,,,72,127
175652,note_on,0,0,0,,0,,,69,95
175652,note_on,0,0,0,,0,,,53,95
175922,note_off,270,0,0,,0,,,53,95
175923,note_on,1,0,0,,0,,,64,95
175923,note_on,0,0,0,,0,,,48,95
176193,note_off,270,0,0,,0,,,48,95
176193,note_off,0,0,0,,0,,,64,95
176193,note_off,0,0,0,,0,,,69,95
176193,note_off,0,0,0,,1,,,72,127
176194,note_on,1,0,0,,1,,,71,127
176194,note_on,0,0,0,,0,,,65,95
176194,note_on,0,0,0,,0,,,50,95
176328,note_off,134,0,0,,1,,,71,127
176329,note_on,1,0,0,,1,,,69,127
176463,note_off,134,0,0,,1,,,69,127
176463,note_off,0,0,0,,0,,,50,95
176463,note_off,0,0,0,,0,,,65,95
176464,note_on,1,0,0,,1,,,69,127
176464,note_on,0,0,0,,0,,,59,95
176464,note_on,0,0,0,,0,,,64,95
176464,note_on,0,0,0,,0,,,52,95
176734,note_off,270,0,0,,0,,,52,95
176734,note_off,0,0,0,,1,,,69,127
176735,note_on,1,0,0,,1,,,68,127
176735,note_on,0,0,0,,0,,,40,95
177005,note_off,270,0,0,,0,,,40,95
177005,note_off,0,0,0,,1,,,68,127
177005,note_off,0,0,0,,0,,,64,95
177005,note_off,0,0,0,,0,,,59,95
177006,note_on,1,0,0,,0,,,64,95
177006,note_on,0,0,0,,0,,,40,95
177276,note_off,270,0,0,,0,,,40,95
177276,note_off,0,0,0,,0,,,64,95
177277,note_on,1,0,0,,1,,,76,127
177277,note_on,0,0,0,,0,,,64,95
177547,note_off,270,0,0,,0,,,64,95
177547,note_off,0,0,0,,1,,,76,127
177548,note_on,1,0,0,,1,,,62,127
177548,note_on,0,0,0,,0,,,50,95
177818,note_off,270,0,0,,0,,,50,95
177818,note_off,0,0,0,,1,,,62,127
177819,note_on,1,0,0,,1,,,74,127
177819,note_on,0,0,0,,0,,,62,95
178089,note_off,270,0,0,,0,,,62,95
178089,note_off,0,0,0,,1,,,74,127
178090,note_on,1,0,0,,1,,,60,127
178090,note_on,0,0,0,,0,,,48,95
178360,note_off,270,0,0,,0,,,48,95
178360,note_off,0,0,0,,1,,,60,127
178361,note_on,1,0,0,,1,,,72,127
178361,note_on,0,0,0,,0,,,60,95
178631,note_off,270,0,0,,0,,,60,95
178631,note_off,0,0,0,,1,,,72,127
178632,note_on,1,0,0,,1,,,59,127
178632,note_on,0,0,0,,0,,,47,95
178902,note_off,270,0,0,,0,,,47,95
178902,note_off,0,0,0,,1,,,59,127
178903,note_on,1,0,0,,1,,,71,127
178903,note_on,0,0,0,,0,,,59,95
179173,note_off,270,0,0,,0,,,59,95
179173,note_off,0,0,0,,1,,,71,127
179174,note_on,1,0,0,,1,,,57,127
179174,note_on,0,0,0,,0,,,45,95
179444,note_off,270,0,0,,0,,,45,95
179444,note_off,0,0,0,,1,,,57,127
179445,note_on,1,0,0,,1,,,69,127
179445,note_on,0,0,0,,0,,,57,95
179715,note_off,270,0,0,,0,,,57,95
179715,note_off,0,0,0,,1,,,69,127
179716,note_on,1,0,0,,1,,,55,127
179716,note_on,0,0,0,,0,,,43,95
179986,note_off,270,0,0,,0,,,43,95
179986,note_off,0,0,0,,1,,,55,127
179987,note_on,1,0,0,,1,,,67,127
179987,note_on,0,0,0,,0,,,55,95
180257,note_off,270,0,0,,0,,,55,95
180257,note_off,0,0,0,,1,,,67,127
180258,note_on,1,0,0,,1,,,65,127
180258,note_on,0,0,0,,0,,,41,95
180528,note_off,270,0,0,,0,,,41,95
180528,note_off,0,0,0,,1,,,65,127
180529,note_on,1,0,0,,1,,,77,127
180529,note_on,0,0,0,,0,,,65,95
180529,note_on,0,0,0,,0,,,53,95
180799,note_off,270,0,0,,0,,,53,95
180799,note_off,0,0,0,,0,,,65,95
180799,note_off,0,0,0,,1,,,77,127
180800,note_on,1,0,0,,1,,,64,127
180800,note_on,0,0,0,,0,,,40,95
181070,note_off,270,0,0,,0,,,40,95
181071,note_on,1,0,0,,0,,,68,95
181071,note_on,0,0,0,,0,,,52,95
181341,note_off,270,0,0,,0,,,52,95
181341,note_off,0,0,0,,1,,,64,127
181342,note_on,1,0,0,,1,,,71,127
181342,note_on,0,0,0,,0,,,71,95
181342,note_on,0,0,0,,0,,,54,95
181408,note_off,66,0,0,,1,,,71,127
181409,note_on,1,0,0,,1,,,72,127
181475,note_off,66,0,0,,1,,,72,127
181476,note_on,1,0,0,,1,,,74,127
181610,note_off,134,0,0,,0,,,54,95
181610,note_off,0,0,0,,0,,,68,95
181611,note_on,1,0,0,,0,,,64,95
181611,note_on,0,0,0,,0,,,56,95
181881,note_off,270,0,0,,0,,,56,95
181881,note_off,0,0,0,,1,,,74,127
181881,note_off,0,0,0,,0,,,71,95
181882,note_on,1,0,0,,1,,,72,127
181882,note_on,0,0,0,,0,,,60,95
181882,note_on,0,0,0,,0,,,57,95
181948,note_off,66,0,0,,1,,,72,127
181949,note_on,1,0,0,,1,,,71,127
182015,note_off,66,0,0,,1,,,71,127
182016,note_on,1,0,0,,1,,,69,127
182150,note_off,134,0,0,,0,,,57,95
182150,note_off,0,0,0,,0,,,60,95
182150,note_off,0,0,0,,0,,,64,95
182151,note_on,1,0,0,,0,,,64,95
182151,note_on,0,0,0,,0,,,48,95
182421,note_off,270,0,0,,0,,,48,95
182421,note_off,0,0,0,,1,,,69,127
182422,note_on,1,0,0,,1,,,71,127
182422,note_on,0,0,0,,0,,,50,95
182488,note_off,66,0,0,,1,,,71,127
182489,note_on,1,0,0,,1,,,69,127
182555,note_off,66,0,0,,1,,,69,127
182556,note_on,1,0,0,,1,,,68,127
182690,note_off,134,0,0,,0,,,50,95
182690,note_off,0,0,0,,0,,,64,95
182691,note_on,1,0,0,,0,,,59,95
182691,note_on,0,0,0,,0,,,52,95
182961,note_off,270,0,0,,0,,,52,95
182961,note_off,0,0,0,,0,,,59,95
182961,note_off,0,0,0,,1,,,68,127
182962,note_on,1,0,0,,1,,,69,127
182962,note_on,0,0,0,,0,,,60,95
182962,note_on,0,0,0,,0,,,53,95
183232,note_off,270,0,0,,0,,,53,95
183233,note_on,1,0,0,,0,,,69,95
183233,note_on,0,0,0,,0,,,52,95
183367,note_off,134,0,0,,1,,,69,127
183368,note_on,1,0,0,,1,,,71,127
183400,note_off,32,0,0,,1,,,71,127
183401,note_on,1,0,0,,1,,,72,127
183435,note_on,34,0,0,,1,,,74,127
183448,note_off,13,0,0,,1,,,72,127
183468,note_off,20,0,0,,1,,,74,127
183469,note_on,1,0,0,,1,,,76,127
183501,note_off,32,0,0,,1,,,76,127
183501,note_off,0,0,0,,0,,,52,95
183501,note_off,0,0,0,,0,,,60,95
183502,note_on,1,0,0,,1,,,77,127
183502,note_on,0,0,0,,0,,,65,95
183502,note_on,0,0,0,,0,,,50,95
183772,note_off,270,0,0,,0,,,50,95
183772,note_off,0,0,0,,0,,,69,95
183773,note_on,1,0,0,,0,,,68,95
183773,note_on,0,0,0,,0,,,47,95
184043,note_off,270,0,0,,0,,,47,95
184043,note_off,0,0,0,,0,,,68,95
184043,note_off,0,0,0,,0,,,65,95
184043,note_off,0,0,0,,1,,,77,127
184044,note_on,1,0,0,,1,,,76,127
184044,note_on,0,0,0,,0,,,69,95
184044,note_on,0,0,0,,0,,,64,95
184044,note_on,0,0,0,,0,,,48,95
184314,note_off,270,0,0,,0,,,48,95
184314,note_off,0,0,0,,0,,,64,95
184314,note_off,0,0,0,,1,,,76,127
184315,note_on,1,0,0,,1,,,69,127
184315,note_on,0,0,0,,0,,,60,95
184315,note_on,0,0,0,,0,,,53,95
184585,note_off,270,0,0,,0,,,53,95
184585,note_off,0,0,0,,0,,,60,95
184585,note_off,0,0,0,,1,,,69,127
184585,note_off,0,0,0,,0,,,69,95
184586,note_on,1,0,0,,1,,,71,127
184586,note_on,0,0,0,,0,,,65,95
184586,note_on,0,0,0,,0,,,50,95
184856,note_off,270,0,0,,0,,,50,95
184856,note_off,0,0,0,,0,,,65,95
184856,note_off,0,0,0,,1,,,71,127
184857,note_on,1,0,0,,1,,,69,127
184857,note_on,0,0,0,,0,,,59,95
184857,note_on,0,0,0,,0,,,52,95
184991,note_off,134,0,0,,1,,,69,127
184992,note_on,1,0,0,,1,,,68,127
185126,note_off,134,0,0,,1,,,68,127
185126,note_off,0,0,0,,0,,,52,95
185126,note_off,0,0,0,,0,,,59,95
185127,note_on,1,0,0,,1,,,69,127
185127,note_on,0,0,0,,0,,,60,95
185127,note_on,0,0,0,,0,,,53,95
185397,note_off,270,0,0,,0,,,53,95
185397,note_off,0,0,0,,0,,,60,95
185398,note_on,1,0,0,,0,,,65,95
185398,note_on,0,0,0,,0,,,50,95
185668,note_off,270,0,0,,0,,,50,95
185668,note_off,0,0,0,,1,,,69,127
185669,note_on,1,0,0,,1,,,71,127
185669,note_on,0,0,0,,0,,,62,95
185669,note_on,0,0,0,,0,,,47,95
185735,note_off,66,0,0,,1,,,71,127
185736,note_on,1,0,0,,1,,,72,127
185802,note_off,66,0,0,,1,,,72,127
185803,note_on,1,0,0,,1,,,74,127
185937,note_off,134,0,0,,0,,,47,95
185937,note_off,0,0,0,,0,,,62,95
185937,note_off,0,0,0,,0,,,65,95
185938,note_on,1,0,0,,0,,,71,95
185938,note_on,0,0,0,,0,,,44,95
186208,note_off,270,0,0,,0,,,44,95
186208,note_off,0,0,0,,0,,,71,95
186208,note_off,0,0,0,,1,,,74,127
186209,note_on,1,0,0,,1,,,72,127
186209,note_on,0,0,0,,0,,,60,95
186209,note_on,0,0,0,,0,,,45,95
186275,note_off,66,0,0,,1,,,72,127
186276,note_on,1,0,0,,1,,,71,127
186342,note_off,66,0,0,,1,,,71,127
186343,note_on,1,0,0,,1,,,69,127
186477,note_off,134,0,0,,0,,,45,95
186477,note_off,0,0,0,,0,,,60,95
186478,note_on,1,0,0,,0,,,64,95
186478,note_on,0,0,0,,0,,,48,95
186748,note_off,270,0,0,,0,,,48,95
186748,note_off,0,0,0,,0,,,64,95
186748,note_off,0,0,0,,1,,,69,127
186749,note_on,1,0,0,,1,,,71,127
186749,note_on,0,0,0,,0,,,65,95
186749,note_on,0,0,0,,0,,,50,95
186815,note_off,66,0,0,,1,,,71,127
186816,note_on,1,0,0,,1,,,69,127
186882,note_off,66,0,0,,1,,,69,127
186883,note_on,1,0,0,,1,,,68,127
187017,note_off,134,0,0,,0,,,50,95
187017,note_off,0,0,0,,0,,,65,95
187018,note_on,1,0,0,,0,,,64,95
187018,note_on,0,0,0,,0,,,52,95
187274,note_off,256,0,0,,1,,,68,127
187278,note_off,4,0,0,,0,,,52,95
187278,note_off,0,0,0,,0,,,64,95
187305,note_on,27,0,0,,0,,,57,95
187305,note_on,0,0,0,,0,,,69,95
187305,note_on,0,0,0,,1,,,69,127
187439,note_off,134,0,0,,1,,,69,127
187439,note_off,0,0,0,,0,,,69,95
187439,note_off,0,0,0,,0,,,57,95
187440,note_on,1,0,0,,0,,,55,95
187440,note_on,0,0,0,,0,,,67,95
187440,note_on,0,0,0,,1,,,67,127
187574,note_off,134,0,0,,1,,,67,127
187574,note_off,0,0,0,,0,,,67,95
187574,note_off,0,0,0,,0,,,55,95
187575,note_on,1,0,0,,0,,,53,95
187575,note_on,0,0,0,,0,,,65,95
187575,note_on,0,0,0,,1,,,65,127
187709,note_off,134,0,0,,1,,,65,127
187709,note_off,0,0,0,,0,,,65,95
187709,note_off,0,0,0,,0,,,53,95
187710,note_on,1,0,0,,0,,,52,95
187710,note_on,0,0,0,,0,,,64,95
187710,note_on,0,0,0,,1,,,64,127
187844,note_off,134,0,0,,1,,,64,127
187844,note_off,0,0,0,,0,,,64,95
187844,note_off,0,0,0,,0,,,52,95
187845,note_on,1,0,0,,0,,,50,95
187845,note_on,0,0,0,,0,,,62,95
187845,note_on,0,0,0,,1,,,62,127
188115,note_off,270,0,0,,1,,,62,127
188115,note_off,0,0,0,,0,,,62,95
188115,note_off,0,0,0,,0,,,50,95
188132,note_on,17,0,0,,1,,,64,127
188132,note_on,0,0,0,,0,,,64,95
188132,note_on,0,0,0,,0,,,52,95
188402,note_off,270,0,0,,0,,,52,95
188402,note_off,0,0,0,,0,,,64,95
188402,note_off,0,0,0,,1,,,64,127
188435,note_on,33,0,0,,1,,,57,127
188435,note_on,0,0,0,,0,,,57,95
188435,note_on,0,0,0,,0,,,45,95
188976,note_off,541,0,0,,0,,,45,95
188976,note_off,0,0,0,,0,,,57,95
188976,note_off,0,0,0,,1,,,57,127
189113,note_on,137,0,0,,1,,,64,127
189247,note_off,134,0,0,,1,,,64,127
189248,note_on,1,0,0,,1,,,66,127
189382,note_off,134,0,0,,1,,,66,127
189383,note_on,1,0,0,,1,,,68,127
189517,note_off,134,0,0,,1,,,68,127
189518,note_on,1,0,0,,1,,,69,127
189518,note_on,0,0,0,,0,,,64,95
189518,note_on,0,0,0,,0,,,60,95
189518,note_on,0,0,0,,0,,,57,95
189788,note_off,270,0,0,,1,,,69,127
189789,note_on,1,0,0,,1,,,64,127
190059,note_off,270,0,0,,1,,,64,127
190059,note_off,0,0,0,,0,,,57,95
190059,note_off,0,0,0,,0,,,60,95
190059,note_off,0,0,0,,0,,,64,95
190060,note_on,1,0,0,,1,,,57,127
190330,note_off,270,0,0,,1,,,57,127
190331,note_on,1,0,0,,1,,,71,127
190331,note_on,0,0,0,,0,,,68,95
190331,note_on,0,0,0,,0,,,52,95
190601,note_off,270,0,0,,0,,,52,95
190601,note_off,0,0,0,,0,,,68,95
190601,note_off,0,0,0,,1,,,71,127
190602,note_on,1,0,0,,1,,,72,127
190602,note_on,0,0,0,,0,,,60,95
190602,note_on,0,0,0,,0,,,69,95
190602,note_on,0,0,0,,0,,,45,95
190872,note_off,270,0,0,,1,,,72,127
190873,note_on,1,0,0,,1,,,64,127
191143,note_off,270,0,0,,1,,,64,127
191143,note_off,0,0,0,,0,,,45,95
191143,note_off,0,0,0,,0,,,69,95
191143,note_off,0,0,0,,0,,,60,95
191144,note_on,1,0,0,,1,,,57,127
191414,note_off,270,0,0,,1,,,57,127
191415,note_on,1,0,0,,1,,,68,127
191415,note_on,0,0,0,,0,,,62,95
191415,note_on,0,0,0,,0,,,47,95
191685,note_off,270,0,0,,0,,,47,95
191685,note_off,0,0,0,,0,,,62,95
191685,note_off,0,0,0,,1,,,68,127
191686,note_on,1,0,0,,1,,,69,127
191686,note_on,0,0,0,,0,,,57,95
191686,note_on,0,0,0,,0,,,64,95
191686,note_on,0,0,0,,0,,,48,95
191956,note_off,270,0,0,,1,,,69,127
191957,note_on,1,0,0,,1,,,64,127
192227,note_off,270,0,0,,1,,,64,127
192227,note_off,0,0,0,,0,,,48,95
192227,note_off,0,0,0,,0,,,64,95
192227,note_off,0,0,0,,0,,,57,95
192228,note_on,1,0,0,,1,,,57,127
192498,note_off,270,0,0,,1,,,57,127
192499,note_on,1,0,0,,1,,,71,127
192499,note_on,0,0,0,,0,,,64,95
192499,note_on,0,0,0,,0,,,44,95
192769,note_off,270,0,0,,0,,,44,95
192769,note_off,0,0,0,,0,,,64,95
192769,note_off,0,0,0,,1,,,71,127
192770,note_on,1,0,0,,1,,,72,127
192770,note_on,0,0,0,,0,,,60,95
192770,note_on,0,0,0,,0,,,69,95
192770,note_on,0,0,0,,0,,,45,95
193040,note_off,270,0,0,,1,,,72,127
193041,note_on,1,0,0,,1,,,64,127
193311,note_off,270,0,0,,1,,,64,127
193311,note_off,0,0,0,,0,,,45,95
193311,note_off,0,0,0,,0,,,69,95
193311,note_off,0,0,0,,0,,,60,95
193312,note_on,1,0,0,,1,,,57,127
193582,note_off,270,0,0,,1,,,57,127
193583,note_on,1,0,0,,1,,,74,127
193583,note_on,0,0,0,,0,,,68,95
193583,note_on,0,0,0,,0,,,47,95
193853,note_off,270,0,0,,0,,,47,95
193853,note_off,0,0,0,,0,,,68,95
193853,note_off,0,0,0,,1,,,74,127
193854,note_on,1,0,0,,1,,,76,127
193854,note_on,0,0,0,,0,,,69,95
193854,note_on,0,0,0,,0,,,64,95
193854,note_on,0,0,0,,0,,,48,95
194124,note_off,270,0,0,,1,,,76,127
194125,note_on,1,0,0,,1,,,74,127
194259,note_off,134,0,0,,1,,,74,127
194260,note_on,1,0,0,,1,,,72,127
194394,note_off,134,0,0,,1,,,72,127
194394,note_off,0,0,0,,0,,,48,95
194394,note_off,0,0,0,,0,,,64,95
194394,note_off,0,0,0,,0,,,69,95
194395,note_on,1,0,0,,1,,,71,127
194395,note_on,0,0,0,,0,,,69,95
194395,note_on,0,0,0,,0,,,65,95
194395,note_on,0,0,0,,0,,,50,95
194665,note_off,270,0,0,,1,,,71,127
194666,note_on,1,0,0,,1,,,69,127
194936,note_off,270,0,0,,1,,,69,127
194936,note_off,0,0,0,,0,,,50,95
194936,note_off,0,0,0,,0,,,65,95
194936,note_off,0,0,0,,0,,,69,95
194937,note_on,1,0,0,,1,,,68,127
195071,note_off,134,0,0,,1,,,68,127
195072,note_on,1,0,0,,1,,,66,127
195206,note_off,134,0,0,,1,,,66,127
195207,note_on,1,0,0,,1,,,64,127
195207,note_on,0,0,0,,0,,,56,95
195207,note_on,0,0,0,,0,,,52,95
195477,note_off,270,0,0,,0,,,52,95
195477,note_off,0,0,0,,0,,,56,95
195477,note_off,0,0,0,,1,,,64,127
195478,note_on,1,0,0,,0,,,57,95
195478,note_on,0,0,0,,0,,,48,95
195748,note_off,270,0,0,,0,,,48,95
195749,note_on,1,0,0,,1,,,64,127
195749,note_on,0,0,0,,0,,,60,95
195749,note_on,0,0,0,,0,,,45,95
196019,note_off,270,0,0,,0,,,45,95
196019,note_off,0,0,0,,0,,,60,95
196019,note_off,0,0,0,,1,,,64,127
196019,note_off,0,0,0,,0,,,57,95
196020,note_on,1,0,0,,1,,,66,127
196020,note_on,0,0,0,,0,,,50,95
196086,note_off,66,0,0,,1,,,66,127
196087,note_on,1,0,0,,1,,,68,127
196153,note_off,66,0,0,,1,,,68,127
196154,note_on,1,0,0,,1,,,69,127
196288,note_off,134,0,0,,0,,,50,95
196289,note_on,1,0,0,,0,,,62,95
196289,note_on,0,0,0,,0,,,47,95
196559,note_off,270,0,0,,0,,,47,95
196559,note_off,0,0,0,,1,,,69,127
196560,note_on,1,0,0,,1,,,71,127
196560,note_on,0,0,0,,0,,,64,95
196560,note_on,0,0,0,,0,,,44,95
196626,note_off,66,0,0,,1,,,71,127
196627,note_on,1,0,0,,1,,,72,127
196693,note_off,66,0,0,,1,,,72,127
196694,note_on,1,0,0,,1,,,74,127
196828,note_off,134,0,0,,0,,,44,95
196828,note_off,0,0,0,,0,,,62,95
196829,note_on,1,0,0,,0,,,68,95
196829,note_on,0,0,0,,0,,,40,95
197099,note_off,270,0,0,,0,,,40,95
197099,note_off,0,0,0,,0,,,68,95
197099,note_off,0,0,0,,1,,,74,127
197099,note_off,0,0,0,,0,,,64,95
197100,note_on,1,0,0,,1,,,72,127
197100,note_on,0,0,0,,0,,,60,95
197100,note_on,0,0,0,,0,,,64,95
197100,note_on,0,0,0,,0,,,45,95
197166,note_off,66,0,0,,1,,,72,127
197167,note_on,1,0,0,,1,,,71,127
197233,note_off,66,0,0,,1,,,71,127
197234,note_on,1,0,0,,1,,,69,127
197368,note_off,134,0,0,,1,,,69,127
197368,note_off,0,0,0,,0,,,45,95
197368,note_off,0,0,0,,0,,,64,95
197368,note_off,0,0,0,,0,,,60,95
197369,note_on,1,0,0,,1,,,71,127
197369,note_on,0,0,0,,0,,,59,95
197369,note_on,0,0,0,,0,,,52,95
197639,note_off,270,0,0,,0,,,52,95
197639,note_off,0,0,0,,1,,,71,127
197640,note_on,1,0,0,,0,,,68,95
197640,note_on,0,0,0,,0,,,50,95
197910,note_off,270,0,0,,0,,,50,95
197910,note_off,0,0,0,,0,,,68,95
197910,note_off,0,0,0,,0,,,59,95
197911,note_on,1,0,0,,1,,,64,127
197911,note_on,0,0,0,,0,,,69,95
197911,note_on,0,0,0,,0,,,48,95
198181,note_off,270,0,0,,0,,,48,95
198181,note_off,0,0,0,,0,,,69,95
198181,note_off,0,0,0,,1,,,64,127
198182,note_on,1,0,0,,1,,,66,127
198182,note_on,0,0,0,,0,,,50,95
198248,note_off,66,0,0,,1,,,66,127
198249,note_on,1,0,0,,1,,,68,127
198315,note_off,66,0,0,,1,,,68,127
198316,note_on,1,0,0,,1,,,69,127
198450,note_off,134,0,0,,0,,,50,95
198451,note_on,1,0,0,,0,,,64,95
198451,note_on,0,0,0,,0,,,47,95
198721,note_off,270,0,0,,0,,,47,95
198721,note_off,0,0,0,,1,,,69,127
198722,note_on,1,0,0,,1,,,71,127
198722,note_on,0,0,0,,0,,,71,95
198722,note_on,0,0,0,,0,,,44,95
198788,note_off,66,0,0,,1,,,71,127
198789,note_on,1,0,0,,1,,,72,127
198855,note_off,66,0,0,,1,,,72,127
198856,note_on,1,0,0,,1,,,74,127
198990,note_off,134,0,0,,0,,,44,95
198990,note_off,0,0,0,,0,,,64,95
198991,note_on,1,0,0,,0,,,68,95
198991,note_on,0,0,0,,0,,,40,95
199261,note_off,270,0,0,,0,,,40,95
199261,note_off,0,0,0,,0,,,68,95
199261,note_off,0,0,0,,1,,,74,127
199261,note_off,0,0,0,,0,,,71,95
199262,note_on,1,0,0,,1,,,72,127
199262,note_on,0,0,0,,0,,,64,95
199262,note_on,0,0,0,,0,,,60,95
199262,note_on,0,0,0,,0,,,45,95
199396,note_off,134,0,0,,1,,,72,127
199397,note_on,1,0,0,,1,,,71,127
199531,note_off,134,0,0,,1,,,71,127
199531,note_off,0,0,0,,0,,,45,95
199532,note_on,1,0,0,,1,,,69,127
199532,note_on,0,0,0,,0,,,57,95
199802,note_off,270,0,0,,0,,,57,95
199802,note_off,0,0,0,,1,,,69,127
199802,note_off,0,0,0,,0,,,60,95
199803,note_on,1,0,0,,0,,,69,95
199803,note_on,0,0,0,,0,,,60,95
199939,note_on,136,0,0,,1,,,72,127
200073,note_off,134,0,0,,1,,,72,127
200073,note_off,0,0,0,,0,,,60,95
200073,note_off,0,0,0,,0,,,69,95
200073,note_off,0,0,0,,0,,,64,95
200074,note_on,1,0,0,,1,,,74,127
200074,note_on,0,0,0,,0,,,71,95
200074,note_on,0,0,0,,0,,,59,95
200208,note_off,134,0,0,,1,,,74,127
200209,note_on,1,0,0,,1,,,72,127
200343,note_off,134,0,0,,1,,,72,127
200343,note_off,0,0,0,,0,,,59,95
200343,note_off,0,0,0,,0,,,71,95
200344,note_on,1,0,0,,1,,,72,127
200344,note_on,0,0,0,,0,,,72,95
200344,note_on,0,0,0,,0,,,57,95
200478,note_off,134,0,0,,1,,,72,127
200479,note_on,1,0,0,,1,,,72,127
200613,note_off,134,0,0,,1,,,72,127
200613,note_off,0,0,0,,0,,,57,95
200613,note_off,0,0,0,,0,,,72,95
200614,note_on,1,0,0,,1,,,74,127
200614,note_on,0,0,0,,0,,,71,95
200614,note_on,0,0,0,,0,,,55,95
200748,note_off,134,0,0,,1,,,74,127
200749,note_on,1,0,0,,1,,,72,127
200883,note_off,134,0,0,,1,,,72,127
200883,note_off,0,0,0,,0,,,55,95
200883,note_off,0,0,0,,0,,,71,95
200884,note_on,1,0,0,,1,,,72,127
200884,note_on,0,0,0,,0,,,69,95
200884,note_on,0,0,0,,0,,,53,95
201018,note_off,134,0,0,,1,,,72,127
201019,note_on,1,0,0,,1,,,72,127
201153,note_off,134,0,0,,1,,,72,127
201153,note_off,0,0,0,,0,,,53,95
201153,note_off,0,0,0,,0,,,69,95
201154,note_on,1,0,0,,1,,,74,127
201154,note_on,0,0,0,,0,,,67,95
201154,note_on,0,0,0,,0,,,52,95
201288,note_off,134,0,0,,1,,,74,127
201289,note_on,1,0,0,,1,,,72,127
201423,note_off,134,0,0,,1,,,72,127
201423,note_off,0,0,0,,0,,,52,95
201423,note_off,0,0,0,,0,,,67,95
201424,note_on,1,0,0,,1,,,77,127
201424,note_on,0,0,0,,0,,,65,95
201424,note_on,0,0,0,,0,,,50,95
201558,note_off,134,0,0,,1,,,77,127
201559,note_on,1,0,0,,1,,,69,127
201693,note_off,134,0,0,,1,,,69,127
201693,note_off,0,0,0,,0,,,50,95
201693,note_off,0,0,0,,0,,,65,95
201694,note_on,1,0,0,,1,,,77,127
201694,note_on,0,0,0,,0,,,64,95
201694,note_on,0,0,0,,0,,,48,95
201828,note_off,134,0,0,,1,,,77,127
201829,note_on,1,0,0,,1,,,69,127
201963,note_off,134,0,0,,1,,,69,127
201963,note_off,0,0,0,,0,,,48,95
201963,note_off,0,0,0,,0,,,64,95
201964,note_on,1,0,0,,1,,,77,127
201964,note_on,0,0,0,,0,,,62,95
201964,note_on,0,0,0,,0,,,47,95
202098,note_off,134,0,0,,1,,,77,127
202099,note_on,1,0,0,,1,,,69,127
202233,note_off,134,0,0,,1,,,69,127
202233,note_off,0,0,0,,0,,,47,95
202233,note_off,0,0,0,,0,,,62,95
202234,note_on,1,0,0,,1,,,77,127
202234,note_on,0,0,0,,0,,,60,95
202234,note_on,0,0,0,,0,,,45,95
202368,note_off,134,0,0,,1,,,77,127
202369,note_on,1,0,0,,1,,,69,127
202503,note_off,134,0,0,,1,,,69,127
202503,note_off,0,0,0,,0,,,45,95
202503,note_off,0,0,0,,0,,,60,95
202504,note_on,1,0,0,,1,,,77,127
202504,note_on,0,0,0,,0,,,59,95
202504,note_on,0,0,0,,0,,,43,95
202638,note_off,134,0,0,,1,,,77,127
202639,note_on,1,0,0,,1,,,67,127
202773,note_off,134,0,0,,1,,,67,127
202773,note_off,0,0,0,,0,,,43,95
202773,note_off,0,0,0,,0,,,59,95
202774,note_on,1,0,0,,1,,,77,127
202774,note_on,0,0,0,,0,,,67,95
202774,note_on,0,0,0,,0,,,41,95
202908,note_off,134,0,0,,1,,,77,127
202909,note_on,1,0,0,,1,,,67,127
203043,note_off,134,0,0,,0,,,41,95
203043,note_off,0,0,0,,0,,,67,95
203044,note_on,1,0,0,,1,,,77,127
203044,note_on,0,0,0,,0,,,74,95
203044,note_on,0,0,0,,0,,,40,95
203178,note_off,134,0,0,,1,,,77,127
203179,note_on,1,0,0,,1,,,67,127
203313,note_off,134,0,0,,1,,,67,127
203313,note_off,0,0,0,,0,,,40,95
203313,note_off,0,0,0,,0,,,74,95
203313,note_off,0,0,0,,1,,,67,127
203314,note_on,1,0,0,,1,,,77,127
203314,note_on,0,0,0,,0,,,71,95
203314,note_on,0,0,0,,0,,,38,95
203448,note_off,134,0,0,,1,,,77,127
203449,note_on,1,0,0,,1,,,67,127
203583,note_off,134,0,0,,1,,,67,127
203583,note_off,0,0,0,,0,,,38,95
203583,note_off,0,0,0,,0,,,71,95
203584,note_on,1,0,0,,1,,,76,127
203584,note_on,0,0,0,,0,,,67,95
203584,note_on,0,0,0,,0,,,64,95
203584,note_on,0,0,0,,0,,,36,95
203718,note_off,134,0,0,,1,,,76,127
203719,note_on,1,0,0,,1,,,74,127
203853,note_off,134,0,0,,1,,,74,127
203853,note_off,0,0,0,,0,,,36,95
203854,note_on,1,0,0,,1,,,72,127
203854,note_on,0,0,0,,0,,,48,95
204124,note_off,270,0,0,,0,,,48,95
204124,note_off,0,0,0,,1,,,72,127
204124,note_off,0,0,0,,0,,,64,95
204124,note_off,0,0,0,,0,,,67,95
204125,note_on,1,0,0,,0,,,69,95
204125,note_on,0,0,0,,0,,,53,95
204261,note_on,136,0,0,,1,,,72,127
204395,note_off,134,0,0,,1,,,72,127
204395,note_off,0,0,0,,0,,,53,95
204395,note_off,0,0,0,,0,,,69,95
204396,note_on,1,0,0,,1,,,74,127
204396,note_on,0,0,0,,0,,,67,95
204396,note_on,0,0,0,,0,,,52,95
204530,note_off,134,0,0,,1,,,74,127
204531,note_on,1,0,0,,1,,,72,127
204665,note_off,134,0,0,,1,,,72,127
204665,note_off,0,0,0,,0,,,52,95
204665,note_off,0,0,0,,0,,,67,95
204666,note_on,1,0,0,,1,,,77,127
204666,note_on,0,0,0,,0,,,65,95
204666,note_on,0,0,0,,0,,,50,95
204800,note_off,134,0,0,,1,,,77,127
204801,note_on,1,0,0,,1,,,76,127
204935,note_off,134,0,0,,1,,,76,127
204935,note_off,0,0,0,,0,,,50,95
204935,note_off,0,0,0,,0,,,65,95
204936,note_on,1,0,0,,1,,,76,127
204936,note_on,0,0,0,,0,,,69,95
204936,note_on,0,0,0,,0,,,48,95
205070,note_off,134,0,0,,1,,,76,127
205071,note_on,1,0,0,,1,,,74,127
205205,note_off,134,0,0,,1,,,74,127
205205,note_off,0,0,0,,0,,,48,95
205205,note_off,0,0,0,,0,,,69,95
205206,note_on,1,0,0,,1,,,74,127
205206,note_on,0,0,0,,0,,,62,95
205206,note_on,0,0,0,,0,,,47,95
205340,note_off,134,0,0,,1,,,74,127
205341,note_on,1,0,0,,1,,,72,127
205475,note_off,134,0,0,,1,,,72,127
205475,note_off,0,0,0,,0,,,47,95
205475,note_off,0,0,0,,0,,,62,95
205476,note_on,1,0,0,,1,,,72,127
205476,note_on,0,0,0,,0,,,65,95
205476,note_on,0,0,0,,0,,,45,95
205610,note_off,134,0,0,,1,,,72,127
205611,note_on,1,0,0,,1,,,71,127
205745,note_off,134,0,0,,1,,,71,127
205745,note_off,0,0,0,,0,,,45,95
205745,note_off,0,0,0,,0,,,65,95
205746,note_on,1,0,0,,1,,,71,127
205746,note_on,0,0,0,,0,,,67,95
205746,note_on,0,0,0,,0,,,43,95
206016,note_off,270,0,0,,0,,,43,95
206016,note_off,0,0,0,,0,,,67,95
206016,note_off,0,0,0,,1,,,71,127
206017,note_on,1,0,0,,1,,,79,127
206017,note_on,0,0,0,,0,,,67,95
206017,note_on,0,0,0,,0,,,52,95
206287,note_off,270,0,0,,0,,,52,95
206287,note_off,0,0,0,,0,,,67,95
206287,note_off,0,0,0,,1,,,79,127
206288,note_on,1,0,0,,1,,,69,127
206288,note_on,0,0,0,,0,,,69,95
206288,note_on,0,0,0,,0,,,53,95
206558,note_off,270,0,0,,0,,,53,95
206558,note_off,0,0,0,,0,,,69,95
206558,note_off,0,0,0,,1,,,69,127
206559,note_on,1,0,0,,1,,,77,127
206559,note_on,0,0,0,,0,,,71,95
206559,note_on,0,0,0,,0,,,50,95
206829,note_off,270,0,0,,0,,,50,95
206829,note_off,0,0,0,,0,,,71,95
206829,note_off,0,0,0,,1,,,77,127
206830,note_on,1,0,0,,1,,,67,127
206830,note_on,0,0,0,,0,,,72,95
206830,note_on,0,0,0,,0,,,52,95
207100,note_off,270,0,0,,0,,,52,95
207100,note_off,0,0,0,,0,,,72,95
207100,note_off,0,0,0,,1,,,67,127
207101,note_on,1,0,0,,1,,,76,127
207101,note_on,0,0,0,,0,,,64,95
207101,note_on,0,0,0,,0,,,48,95
207371,note_off,270,0,0,,0,,,48,95
207371,note_off,0,0,0,,0,,,64,95
207371,note_off,0,0,0,,1,,,76,127
207372,note_on,1,0,0,,1,,,65,127
207372,note_on,0,0,0,,0,,,69,95
207372,note_on,0,0,0,,0,,,50,95
207642,note_off,270,0,0,,0,,,50,95
207642,note_off,0,0,0,,0,,,69,95
207642,note_off,0,0,0,,1,,,65,127
207643,note_on,1,0,0,,1,,,74,127
207643,note_on,0,0,0,,0,,,65,95
207643,note_on,0,0,0,,0,,,47,95
207913,note_off,270,0,0,,0,,,47,95
207913,note_off,0,0,0,,0,,,65,95
207913,note_off,0,0,0,,1,,,74,127
207914,note_on,1,0,0,,1,,,64,127
207914,note_on,0,0,0,,0,,,64,95
207914,note_on,0,0,0,,0,,,67,95
207914,note_on,0,0,0,,0,,,48,95
208184,note_off,270,0,0,,1,,,64,127
208185,note_on,1,0,0,,1,,,72,127
208455,note_off,270,0,0,,0,,,48,95
208455,note_off,0,0,0,,0,,,67,95
208455,note_off,0,0,0,,0,,,64,95
208456,note_on,1,0,0,,0,,,62,95
208456,note_on,0,0,0,,0,,,65,95
208456,note_on,0,0,0,,0,,,50,95
208726,note_off,270,0,0,,1,,,72,127
208727,note_on,1,0,0,,1,,,71,127
208861,note_off,134,0,0,,1,,,71,127
208862,note_on,1,0,0,,1,,,69,127
208996,note_off,134,0,0,,1,,,69,127
208996,note_off,0,0,0,,0,,,50,95
208996,note_off,0,0,0,,0,,,65,95
208996,note_off,0,0,0,,0,,,62,95
208997,note_on,1,0,0,,1,,,67,127
208997,note_on,0,0,0,,0,,,60,95
208997,note_on,0,0,0,,0,,,52,95
209267,note_off,270,0,0,,0,,,52,95
209267,note_off,0,0,0,,0,,,60,95
209267,note_off,0,0,0,,1,,,67,127
209268,note_on,1,0,0,,1,,,72,127
209268,note_on,0,0,0,,0,,,64,95
209268,note_on,0,0,0,,0,,,57,95
209538,note_off,270,0,0,,0,,,57,95
209538,note_off,0,0,0,,0,,,64,95
209538,note_off,0,0,0,,1,,,72,127
209539,note_on,1,0,0,,1,,,74,127
209539,note_on,0,0,0,,0,,,69,95
209539,note_on,0,0,0,,0,,,53,95
209809,note_off,270,0,0,,0,,,53,95
209809,note_off,0,0,0,,0,,,69,95
209809,note_off,0,0,0,,1,,,74,127
209810,note_on,1,0,0,,1,,,72,127
209810,note_on,0,0,0,,0,,,65,95
209810,note_on,0,0,0,,0,,,55,95
209944,note_off,134,0,0,,1,,,72,127
209945,note_on,1,0,0,,1,,,71,127
210079,note_off,134,0,0,,1,,,71,127
210079,note_off,0,0,0,,0,,,55,95
210079,note_off,0,0,0,,0,,,65,95
210080,note_on,1,0,0,,1,,,72,127
210080,note_on,0,0,0,,0,,,69,95
210080,note_on,0,0,0,,0,,,64,95
210080,note_on,0,0,0,,0,,,60,95
210080,note_on,0,0,0,,0,,,57,95
210350,note_off,270,0,0,,0,,,57,95
210350,note_off,0,0,0,,1,,,72,127
210351,note_on,1,0,0,,1,,,72,127
210351,note_on,0,0,0,,0,,,60,95
210621,note_off,270,0,0,,0,,,60,95
210622,note_on,1,0,0,,0,,,57,95
210892,note_off,270,0,0,,0,,,57,95
210892,note_off,0,0,0,,0,,,60,95
210892,note_off,0,0,0,,0,,,64,95
210892,note_off,0,0,0,,0,,,69,95
210893,note_on,1,0,0,,0,,,54,95
211163,note_off,270,0,0,,0,,,54,95
211163,note_off,0,0,0,,1,,,72,127
211164,note_on,1,0,0,,1,,,66,127
211164,note_on,0,0,0,,0,,,66,95
211164,note_on,0,0,0,,0,,,69,95
211164,note_on,0,0,0,,0,,,72,95
211164,note_on,0,0,0,,0,,,50,95
211230,note_off,66,0,0,,1,,,66,127
211231,note_on,1,0,0,,1,,,67,127
211297,note_off,66,0,0,,1,,,67,127
211298,note_on,1,0,0,,1,,,69,127
211364,note_off,66,0,0,,0,,,69,95
211365,note_on,1,0,0,,1,,,71,127
211431,note_off,66,0,0,,1,,,71,127
211431,note_off,0,0,0,,0,,,50,95
211432,note_on,1,0,0,,1,,,72,127
211432,note_on,0,0,0,,0,,,50,95
211702,note_off,270,0,0,,0,,,50,95
211703,note_on,1,0,0,,0,,,50,95
211973,note_off,270,0,0,,0,,,50,95
211974,note_on,1,0,0,,0,,,50,95
212244,note_off,270,0,0,,0,,,50,95
212244,note_off,0,0,0,,1,,,72,127
212244,note_off,0,0,0,,1,,,69,127
212244,note_off,0,0,0,,0,,,72,95
212244,note_off,0,0,0,,0,,,66,95
212245,note_on,1,0,0,,1,,,71,127
212245,note_on,0,0,0,,0,,,62,95
212245,note_on,0,0,0,,0,,,67,95
212245,note_on,0,0,0,,0,,,71,95
212245,note_on,0,0,0,,0,,,55,95
212379,note_off,134,0,0,,1,,,71,127
212380,note_on,1,0,0,,1,,,69,127
212514,note_off,134,0,0,,1,,,69,127
212514,note_off,0,0,0,,0,,,55,95
212515,note_on,1,0,0,,1,,,67,127
212515,note_on,0,0,0,,0,,,55,95
212785,note_off,270,0,0,,0,,,55,95
212786,note_on,1,0,0,,0,,,55,95
213056,note_off,270,0,0,,0,,,55,95
213057,note_on,1,0,0,,0,,,55,95
213327,note_off,270,0,0,,0,,,55,95
213327,note_off,0,0,0,,1,,,67,127
213327,note_off,0,0,0,,0,,,71,95
213327,note_off,0,0,0,,0,,,67,95
213327,note_off,0,0,0,,0,,,62,95
213328,note_on,1,0,0,,1,,,66,127
213328,note_on,0,0,0,,0,,,72,95
213328,note_on,0,0,0,,0,,,69,95
213328,note_on,0,0,0,,0,,,66,95
213328,note_on,0,0,0,,0,,,50,95
213394,note_off,66,0,0,,1,,,66,127
213395,note_on,1,0,0,,1,,,67,127
213461,note_off,66,0,0,,1,,,67,127
213462,note_on,1,0,0,,1,,,69,127
213528,note_off,66,0,0,,0,,,69,95
213529,note_on,1,0,0,,1,,,71,127
213595,note_off,66,0,0,,1,,,71,127
213595,note_off,0,0,0,,0,,,50,95
213596,note_on,1,0,0,,1,,,72,127
213596,note_on,0,0,0,,0,,,50,95
213866,note_off,270,0,0,,0,,,50,95
213867,note_on,1,0,0,,0,,,50,95
214137,note_off,270,0,0,,0,,,50,95
214138,note_on,1,0,0,,0,,,50,95
214408,note_off,270,0,0,,0,,,50,95
214408,note_off,0,0,0,,1,,,72,127
214408,note_off,0,0,0,,1,,,69,127
214408,note_off,0,0,0,,0,,,66,95
214408,note_off,0,0,0,,0,,,72,95
214409,note_on,1,0,0,,1,,,71,127
214409,note_on,0,0,0,,0,,,71,95
214409,note_on,0,0,0,,0,,,67,95
214409,note_on,0,0,0,,0,,,62,95
214409,note_on,0,0,0,,0,,,43,95
214475,note_off,66,0,0,,1,,,71,127
214476,note_on,1,0,0,,1,,,72,127
214542,note_off,66,0,0,,1,,,72,127
214543,note_on,1,0,0,,1,,,74,127
214609,note_off,66,0,0,,1,,,74,127
214610,note_on,1,0,0,,1,,,76,127
214676,note_off,66,0,0,,1,,,76,127
214676,note_off,0,0,0,,0,,,43,95
214677,note_on,1,0,0,,1,,,77,127
214677,note_on,0,0,0,,0,,,43,95
214947,note_off,270,0,0,,0,,,43,95
214948,note_on,1,0,0,,0,,,43,95
215218,note_off,270,0,0,,0,,,43,95
215219,note_on,1,0,0,,0,,,43,95
215489,note_off,270,0,0,,0,,,43,95
215489,note_off,0,0,0,,1,,,77,127
215489,note_off,0,0,0,,0,,,62,95
215489,note_off,0,0,0,,0,,,67,95
215489,note_off,0,0,0,,0,,,71,95
215490,note_on,1,0,0,,1,,,76,127
215490,note_on,0,0,0,,0,,,67,95
215490,note_on,0,0,0,,0,,,72,95
215490,note_on,0,0,0,,0,,,64,95
215490,note_on,0,0,0,,0,,,48,95
215624,note_off,134,0,0,,1,,,76,127
215625,note_on,1,0,0,,1,,,74,127
215759,note_off,134,0,0,,1,,,74,127
215759,note_off,0,0,0,,0,,,48,95
215760,note_on,1,0,0,,1,,,72,127
215760,note_on,0,0,0,,0,,,48,95
216030,note_off,270,0,0,,0,,,48,95
216031,note_on,1,0,0,,0,,,48,95
216301,note_off,270,0,0,,0,,,48,95
216302,note_on,1,0,0,,0,,,48,95
216572,note_off,270,0,0,,0,,,48,95
216572,note_off,0,0,0,,1,,,72,127
216572,note_off,0,0,0,,0,,,64,95
216572,note_off,0,0,0,,0,,,72,95
216572,note_off,0,0,0,,0,,,67,95
216573,note_on,1,0,0,,1,,,71,127
216573,note_on,0,0,0,,0,,,67,95
216573,note_on,0,0,0,,0,,,65,95
216573,note_on,0,0,0,,0,,,62,95
216573,note_on,0,0,0,,0,,,55,95
216639,note_off,66,0,0,,1,,,71,127
216640,note_on,1,0,0,,1,,,72,127
216706,note_off,66,0,0,,1,,,72,127
216707,note_on,1,0,0,,1,,,74,127
216773,note_off,66,0,0,,1,,,74,127
216774,note_on,1,0,0,,1,,,76,127
216840,note_off,66,0,0,,1,,,76,127
216840,note_off,0,0,0,,0,,,55,95
216841,note_on,1,0,0,,1,,,77,127
216841,note_on,0,0,0,,0,,,55,95
217111,note_off,270,0,0,,0,,,55,95
217112,note_on,1,0,0,,0,,,55,95
217382,note_off,270,0,0,,0,,,55,95
217383,note_on,1,0,0,,0,,,55,95
217653,note_off,270,0,0,,0,,,55,95
217653,note_off,0,0,0,,1,,,77,127
217653,note_off,0,0,0,,0,,,62,95
217653,note_off,0,0,0,,0,,,65,95
217653,note_off,0,0,0,,0,,,67,95
217654,note_on,1,0,0,,1,,,76,127
217654,note_on,0,0,0,,0,,,72,95
217654,note_on,0,0,0,,0,,,67,95
217654,note_on,0,0,0,,0,,,64,95
217654,note_on,0,0,0,,0,,,48,95
217788,note_off,134,0,0,,1,,,76,127
217789,note_on,1,0,0,,1,,,74,127
217923,note_off,134,0,0,,1,,,74,127
217923,note_off,0,0,0,,0,,,48,95
217924,note_on,1,0,0,,1,,,72,127
217924,note_on,0,0,0,,0,,,60,95
218194,note_off,270,0,0,,0,,,60,95
218194,note_off,0,0,0,,1,,,72,127
218194,note_off,0,0,0,,0,,,64,95
218194,note_off,0,0,0,,0,,,67,95
218194,note_off,0,0,0,,0,,,72,95
218195,note_on,1,0,0,,0,,,67,95
218195,note_on,0,0,0,,0,,,64,95
218195,note_on,0,0,0,,0,,,60,95
218331,note_on,136,0,0,,1,,,72,127
218465,note_off,134,0,0,,1,,,72,127
218465,note_off,0,0,0,,0,,,60,95
218466,note_on,1,0,0,,1,,,74,127
218466,note_on,0,0,0,,0,,,60,95
218600,note_off,134,0,0,,1,,,74,127
218601,note_on,1,0,0,,1,,,72,127
218735,note_off,134,0,0,,1,,,72,127
218735,note_off,0,0,0,,0,,,60,95
218735,note_off,0,0,0,,0,,,64,95
218735,note_off,0,0,0,,0,,,67,95
218736,note_on,1,0,0,,1,,,72,127
218736,note_on,0,0,0,,0,,,72,95
218736,note_on,0,0,0,,0,,,64,95
218736,note_on,0,0,0,,0,,,58,95
218870,note_off,134,0,0,,1,,,72,127
218871,note_on,1,0,0,,1,,,72,127
219005,note_off,134,0,0,,1,,,72,127
219005,note_off,0,0,0,,0,,,58,95
219005,note_off,0,0,0,,0,,,72,95
219006,note_on,1,0,0,,1,,,74,127
219006,note_on,0,0,0,,0,,,67,95
219006,note_on,0,0,0,,0,,,46,95
219140,note_off,134,0,0,,1,,,74,127
219141,note_on,1,0,0,,1,,,72,127
219275,note_off,134,0,0,,1,,,72,127
219275,note_off,0,0,0,,0,,,46,95
219275,note_off,0,0,0,,0,,,64,95
219276,note_on,1,0,0,,1,,,72,127
219276,note_on,0,0,0,,0,,,64,95
219276,note_on,0,0,0,,0,,,46,95
219410,note_off,134,0,0,,1,,,72,127
219411,note_on,1,0,0,,1,,,72,127
219545,note_off,134,0,0,,1,,,72,127
219545,note_off,0,0,0,,0,,,46,95
219545,note_off,0,0,0,,0,,,67,95
219546,note_on,1,0,0,,1,,,74,127
219546,note_on,0,0,0,,0,,,67,95
219546,note_on,0,0,0,,0,,,46,95
219680,note_off,134,0,0,,1,,,74,127
219681,note_on,1,0,0,,1,,,72,127
219815,note_off,134,0,0,,1,,,72,127
219815,note_off,0,0,0,,0,,,46,95
219815,note_off,0,0,0,,0,,,67,95
219815,note_off,0,0,0,,0,,,64,95
219816,note_on,1,0,0,,1,,,77,127
219816,note_on,0,0,0,,0,,,69,95
219816,note_on,0,0,0,,0,,,60,95
219816,note_on,0,0,0,,0,,,45,95
219950,note_off,134,0,0,,1,,,77,127
219951,note_on,1,0,0,,1,,,72,127
220085,note_off,134,0,0,,1,,,72,127
220085,note_off,0,0,0,,0,,,45,95
220085,note_off,0,0,0,,0,,,60,95
220085,note_off,0,0,0,,0,,,69,95
220086,note_on,1,0,0,,1,,,74,127
220086,note_on,0,0,0,,0,,,65,95
220086,note_on,0,0,0,,0,,,57,95
220220,note_off,134,0,0,,1,,,74,127
220221,note_on,1,0,0,,1,,,72,127
220355,note_off,134,0,0,,1,,,72,127
220355,note_off,0,0,0,,0,,,57,95
220355,note_off,0,0,0,,0,,,65,95
220356,note_on,1,0,0,,1,,,72,127
220356,note_on,0,0,0,,0,,,67,95
220356,note_on,0,0,0,,0,,,55,95
220490,note_off,134,0,0,,1,,,72,127
220491,note_on,1,0,0,,1,,,72,127
220625,note_off,134,0,0,,1,,,72,127
220625,note_off,0,0,0,,0,,,55,95
220625,note_off,0,0,0,,0,,,67,95
220626,note_on,1,0,0,,1,,,74,127
220626,note_on,0,0,0,,0,,,69,95
220626,note_on,0,0,0,,0,,,53,95
220760,note_off,134,0,0,,1,,,74,127
220761,note_on,1,0,0,,1,,,72,127
220895,note_off,134,0,0,,1,,,72,127
220895,note_off,0,0,0,,0,,,53,95
220895,note_off,0,0,0,,0,,,69,95
220896,note_on,1,0,0,,1,,,72,127
220896,note_on,0,0,0,,0,,,67,95
220896,note_on,0,0,0,,0,,,52,95
221030,note_off,134,0,0,,1,,,72,127
221031,note_on,1,0,0,,1,,,74,127
221165,note_off,134,0,0,,1,,,74,127
221165,note_off,0,0,0,,0,,,52,95
221165,note_off,0,0,0,,0,,,67,95
221166,note_on,1,0,0,,1,,,76,127
221166,note_on,0,0,0,,0,,,65,95
221166,note_on,0,0,0,,0,,,50,95
221300,note_off,134,0,0,,1,,,76,127
221301,note_on,1,0,0,,1,,,77,127
221435,note_off,134,0,0,,1,,,77,127
221435,note_off,0,0,0,,0,,,50,95
221435,note_off,0,0,0,,0,,,65,95
221436,note_on,1,0,0,,1,,,79,127
221436,note_on,0,0,0,,0,,,64,95
221436,note_on,0,0,0,,0,,,48,95
221706,note_off,270,0,0,,0,,,48,95
221706,note_off,0,0,0,,1,,,79,127
221707,note_on,1,0,0,,1,,,70,127
221707,note_on,0,0,0,,0,,,60,95
221707,note_on,0,0,0,,0,,,52,95
221977,note_off,270,0,0,,0,,,52,95
221977,note_off,0,0,0,,0,,,60,95
221977,note_off,0,0,0,,1,,,70,127
221977,note_off,0,0,0,,0,,,64,95
221978,note_on,1,0,0,,1,,,70,127
221978,note_on,0,0,0,,0,,,60,95
221978,note_on,0,0,0,,0,,,65,95
221978,note_on,0,0,0,,0,,,53,95
222248,note_off,270,0,0,,0,,,53,95
222248,note_off,0,0,0,,1,,,70,127
222249,note_on,1,0,0,,1,,,69,127
222249,note_on,0,0,0,,0,,,41,95
222519,note_off,270,0,0,,0,,,41,95
222519,note_off,0,0,0,,1,,,69,127
222520,note_on,1,0,0,,0,,,69,95
222520,note_on,0,0,0,,0,,,41,95
222656,note_on,136,0,0,,1,,,69,127
222790,note_off,134,0,0,,0,,,69,95
222790,note_off,0,0,0,,0,,,65,95
222790,note_off,0,0,0,,0,,,60,95
222791,note_on,1,0,0,,1,,,70,127
222925,note_off,134,0,0,,1,,,70,127
222926,note_on,1,0,0,,1,,,69,127
223060,note_off,134,0,0,,1,,,69,127
223060,note_off,0,0,0,,1,,,69,127
223060,note_off,0,0,0,,0,,,41,95
223061,note_on,1,0,0,,1,,,69,127
223195,note_off,134,0,0,,1,,,69,127
223196,note_on,1,0,0,,1,,,69,127
223330,note_off,134,0,0,,1,,,69,127
223331,note_on,1,0,0,,1,,,70,127
223331,note_on,0,0,0,,0,,,61,95
223331,note_on,0,0,0,,0,,,69,95
223331,note_on,0,0,0,,0,,,55,95
223465,note_off,134,0,0,,1,,,70,127
223466,note_on,1,0,0,,1,,,69,127
223600,note_off,134,0,0,,1,,,69,127
223600,note_off,0,0,0,,0,,,55,95
223600,note_off,0,0,0,,0,,,69,95
223600,note_off,0,0,0,,0,,,61,95
223601,note_on,1,0,0,,1,,,69,127
223601,note_on,0,0,0,,0,,,64,95
223601,note_on,0,0,0,,0,,,55,95
223735,note_off,134,0,0,,1,,,69,127
223736,note_on,1,0,0,,1,,,69,127
223870,note_off,134,0,0,,1,,,69,127
223870,note_off,0,0,0,,0,,,55,95
223870,note_off,0,0,0,,0,,,64,95
223871,note_on,1,0,0,,1,,,70,127
223871,note_on,0,0,0,,0,,,61,95
223871,note_on,0,0,0,,0,,,55,95
224005,note_off,134,0,0,,1,,,70,127
224006,note_on,1,0,0,,1,,,69,127
224140,note_off,134,0,0,,1,,,69,127
224140,note_off,0,0,0,,0,,,55,95
224140,note_off,0,0,0,,0,,,61,95
224141,note_on,1,0,0,,1,,,74,127
224141,note_on,0,0,0,,0,,,69,95
224141,note_on,0,0,0,,0,,,62,95
224141,note_on,0,0,0,,0,,,53,95
224275,note_off,134,0,0,,1,,,74,127
224276,note_on,1,0,0,,1,,,69,127
224410,note_off,134,0,0,,0,,,53,95
224410,note_off,0,0,0,,0,,,69,95
224411,note_on,1,0,0,,1,,,70,127
224411,note_on,0,0,0,,0,,,53,95
224545,note_off,134,0,0,,1,,,70,127
224546,note_on,1,0,0,,1,,,69,127
224680,note_off,134,0,0,,1,,,69,127
224680,note_off,0,0,0,,0,,,53,95
224680,note_off,0,0,0,,1,,,69,127
224680,note_off,0,0,0,,0,,,62,95
224681,note_on,1,0,0,,1,,,69,127
224681,note_on,0,0,0,,0,,,67,95
224681,note_on,0,0,0,,0,,,52,95
224815,note_off,134,0,0,,1,,,69,127
224816,note_on,1,0,0,,1,,,69,127
224950,note_off,134,0,0,,1,,,69,127
224950,note_off,0,0,0,,0,,,52,95
224950,note_off,0,0,0,,0,,,67,95
224951,note_on,1,0,0,,1,,,70,127
224951,note_on,0,0,0,,0,,,65,95
224951,note_on,0,0,0,,0,,,50,95
225085,note_off,134,0,0,,1,,,70,127
225086,note_on,1,0,0,,1,,,69,127
225220,note_off,134,0,0,,1,,,69,127
225220,note_off,0,0,0,,0,,,50,95
225220,note_off,0,0,0,,0,,,65,95
225221,note_on,1,0,0,,1,,,69,127
225221,note_on,0,0,0,,0,,,64,95
225221,note_on,0,0,0,,0,,,49,95
225355,note_off,134,0,0,,1,,,69,127
225356,note_on,1,0,0,,1,,,71,127
225490,note_off,134,0,0,,1,,,71,127
225490,note_off,0,0,0,,0,,,49,95
225490,note_off,0,0,0,,0,,,64,95
225491,note_on,1,0,0,,1,,,73,127
225491,note_on,0,0,0,,0,,,62,95
225491,note_on,0,0,0,,0,,,47,95
225625,note_off,134,0,0,,1,,,73,127
225626,note_on,1,0,0,,1,,,74,127
225760,note_off,134,0,0,,1,,,74,127
225760,note_off,0,0,0,,0,,,47,95
225760,note_off,0,0,0,,0,,,62,95
225761,note_on,1,0,0,,1,,,76,127
225761,note_on,0,0,0,,0,,,61,95
225761,note_on,0,0,0,,0,,,45,95
225895,note_off,134,0,0,,1,,,76,127
225896,note_on,1,0,0,,1,,,77,127
226030,note_off,134,0,0,,1,,,77,127
226030,note_off,0,0,0,,0,,,45,95
226030,note_off,0,0,0,,0,,,61,95
226031,note_on,1,0,0,,1,,,79,127
226031,note_on,0,0,0,,0,,,69,95
226031,note_on,0,0,0,,0,,,45,95
226165,note_off,134,0,0,,1,,,79,127
226166,note_on,1,0,0,,1,,,76,127
226282,note_off,116,0,0,,1,,,76,127
226288,note_off,6,0,0,,0,,,45,95
226290,note_off,2,0,0,,0,,,69,95
226301,note_on,11,0,0,,1,,,65,127
226301,note_on,0,0,0,,0,,,50,95
226571,note_off,270,0,0,,0,,,50,95
226571,note_off,0,0,0,,1,,,65,127
226572,note_on,1,0,0,,1,,,77,127
226572,note_on,0,0,0,,0,,,62,95
226842,note_off,270,0,0,,0,,,62,95
226842,note_off,0,0,0,,1,,,77,127
226843,note_on,1,0,0,,1,,,64,127
226843,note_on,0,0,0,,0,,,48,95
227113,note_off,270,0,0,,0,,,48,95
227113,note_off,0,0,0,,1,,,64,127
227114,note_on,1,0,0,,1,,,76,127
227114,note_on,0,0,0,,0,,,60,95
227384,note_off,270,0,0,,0,,,60,95
227384,note_off,0,0,0,,1,,,76,127
227385,note_on,1,0,0,,1,,,62,127
227385,note_on,0,0,0,,0,,,46,95
227655,note_off,270,0,0,,0,,,46,95
227655,note_off,0,0,0,,1,,,62,127
227656,note_on,1,0,0,,1,,,74,127
227656,note_on,0,0,0,,0,,,58,95
227926,note_off,270,0,0,,0,,,58,95
227926,note_off,0,0,0,,1,,,74,127
227927,note_on,1,0,0,,1,,,60,127
227927,note_on,0,0,0,,0,,,45,95
228197,note_off,270,0,0,,0,,,45,95
228197,note_off,0,0,0,,1,,,60,127
228198,note_on,1,0,0,,1,,,72,127
228198,note_on,0,0,0,,0,,,57,95
228468,note_off,270,0,0,,0,,,57,95
228468,note_off,0,0,0,,1,,,72,127
228469,note_on,1,0,0,,1,,,58,127
228469,note_on,0,0,0,,0,,,43,95
228739,note_off,270,0,0,,0,,,43,95
228739,note_off,0,0,0,,1,,,58,127
228740,note_on,1,0,0,,1,,,70,127
228740,note_on,0,0,0,,0,,,55,95
229010,note_off,270,0,0,,0,,,55,95
229010,note_off,0,0,0,,1,,,70,127
229011,note_on,1,0,0,,1,,,57,127
229011,note_on,0,0,0,,0,,,41,95
229281,note_off,270,0,0,,0,,,41,95
229281,note_off,0,0,0,,1,,,57,127
229282,note_on,1,0,0,,1,,,69,127
229282,note_on,0,0,0,,0,,,53,95
229552,note_off,270,0,0,,0,,,53,95
229552,note_off,0,0,0,,1,,,69,127
229553,note_on,1,0,0,,1,,,55,127
229553,note_on,0,0,0,,0,,,40,95
229823,note_off,270,0,0,,1,,,55,127
229824,note_on,1,0,0,,1,,,79,127
230094,note_off,270,0,0,,0,,,40,95
230095,note_on,1,0,0,,0,,,70,95
230095,note_on,0,0,0,,0,,,43,95
230229,note_off,134,0,0,,1,,,79,127
230230,note_on,1,0,0,,1,,,77,127
230364,note_off,134,0,0,,1,,,77,127
230365,note_on,1,0,0,,1,,,76,127
230499,note_off,134,0,0,,1,,,76,127
230500,note_on,1,0,0,,1,,,74,127
230634,note_off,134,0,0,,1,,,74,127
230634,note_off,0,0,0,,0,,,43,95
230634,note_off,0,0,0,,0,,,70,95
230635,note_on,1,0,0,,1,,,73,127
230635,note_on,0,0,0,,0,,,69,95
230635,note_on,0,0,0,,0,,,64,95
230635,note_on,0,0,0,,0,,,45,95
230769,note_off,134,0,0,,1,,,73,127
230770,note_on,1,0,0,,1,,,71,127
230904,note_off,134,0,0,,1,,,71,127
230904,note_off,0,0,0,,0,,,45,95
230905,note_on,1,0,0,,1,,,69,127
230905,note_on,0,0,0,,0,,,57,95
231175,note_off,270,0,0,,0,,,57,95
231175,note_off,0,0,0,,0,,,69,95
231176,note_on,1,0,0,,0,,,73,95
231176,note_on,0,0,0,,0,,,57,95
231312,note_on,136,0,0,,1,,,76,127
231446,note_off,134,0,0,,1,,,76,127
231446,note_off,0,0,0,,0,,,57,95
231446,note_off,0,0,0,,1,,,69,127
231446,note_off,0,0,0,,0,,,64,95
231447,note_on,1,0,0,,1,,,77,127
231447,note_on,0,0,0,,0,,,57,95
231581,note_off,134,0,0,,1,,,77,127
231582,note_on,1,0,0,,1,,,76,127
231716,note_off,134,0,0,,1,,,76,127
231716,note_off,0,0,0,,0,,,57,95
231716,note_off,0,0,0,,0,,,73,95
231717,note_on,1,0,0,,1,,,77,127
231717,note_on,0,0,0,,0,,,71,95
231717,note_on,0,0,0,,0,,,56,95
231851,note_off,134,0,0,,1,,,77,127
231852,note_on,1,0,0,,1,,,68,127
231986,note_off,134,0,0,,1,,,68,127
231986,note_off,0,0,0,,0,,,56,95
231986,note_off,0,0,0,,0,,,71,95
231987,note_on,1,0,0,,1,,,77,127
231987,note_on,0,0,0,,0,,,71,95
231987,note_on,0,0,0,,0,,,56,95
232121,note_off,134,0,0,,1,,,77,127
232122,note_on,1,0,0,,1,,,68,127
232256,note_off,134,0,0,,1,,,68,127
232256,note_off,0,0,0,,0,,,56,95
232256,note_off,0,0,0,,0,,,71,95
232257,note_on,1,0,0,,1,,,77,127
232257,note_on,0,0,0,,0,,,71,95
232257,note_on,0,0,0,,0,,,56,95
232391,note_off,134,0,0,,1,,,77,127
232392,note_on,1,0,0,,1,,,68,127
232526,note_off,134,0,0,,1,,,68,127
232526,note_off,0,0,0,,0,,,56,95
232526,note_off,0,0,0,,0,,,71,95
232527,note_on,1,0,0,,1,,,77,127
232527,note_on,0,0,0,,0,,,71,95
232527,note_on,0,0,0,,0,,,56,95
232661,note_off,134,0,0,,1,,,77,127
232662,note_on,1,0,0,,1,,,68,127
232796,note_off,134,0,0,,1,,,68,127
232796,note_off,0,0,0,,0,,,56,95
232796,note_off,0,0,0,,0,,,71,95
232797,note_on,1,0,0,,1,,,76,127
232797,note_on,0,0,0,,0,,,73,95
232797,note_on,0,0,0,,0,,,57,95
232931,note_off,134,0,0,,1,,,76,127
232932,note_on,1,0,0,,1,,,69,127
233066,note_off,134,0,0,,1,,,69,127
233066,note_off,0,0,0,,0,,,57,95
233066,note_off,0,0,0,,0,,,73,95
233067,note_on,1,0,0,,1,,,76,127
233067,note_on,0,0,0,,0,,,73,95
233067,note_on,0,0,0,,0,,,57,95
233201,note_off,134,0,0,,1,,,76,127
233202,note_on,1,0,0,,1,,,69,127
233336,note_off,134,0,0,,1,,,69,127
233336,note_off,0,0,0,,0,,,57,95
233336,note_off,0,0,0,,0,,,73,95
233337,note_on,1,0,0,,1,,,76,127
233337,note_on,0,0,0,,0,,,73,95
233337,note_on,0,0,0,,0,,,57,95
233471,note_off,134,0,0,,1,,,76,127
233472,note_on,1,0,0,,1,,,69,127
233606,note_off,134,0,0,,1,,,69,127
233606,note_off,0,0,0,,0,,,57,95
233606,note_off,0,0,0,,0,,,73,95
233607,note_on,1,0,0,,1,,,76,127
233607,note_on,0,0,0,,0,,,73,95
233607,note_on,0,0,0,,0,,,57,95
233741,note_off,134,0,0,,1,,,76,127
233742,note_on,1,0,0,,1,,,69,127
233876,note_off,134,0,0,,1,,,69,127
233876,note_off,0,0,0,,0,,,57,95
233876,note_off,0,0,0,,0,,,73,95
233877,note_on,1,0,0,,1,,,77,127
233877,note_on,0,0,0,,0,,,71,95
233877,note_on,0,0,0,,0,,,56,95
234011,note_off,134,0,0,,1,,,77,127
234012,note_on,1,0,0,,1,,,68,127
234146,note_off,134,0,0,,1,,,68,127
234146,note_off,0,0,0,,0,,,56,95
234146,note_off,0,0,0,,0,,,71,95
234147,note_on,1,0,0,,1,,,77,127
234147,note_on,0,0,0,,0,,,71,95
234147,note_on,0,0,0,,0,,,56,95
234281,note_off,134,0,0,,1,,,77,127
234282,note_on,1,0,0,,1,,,68,127
234416,note_off,134,0,0,,1,,,68,127
234416,note_off,0,0,0,,0,,,56,95
234416,note_off,0,0,0,,0,,,71,95
234417,note_on,1,0,0,,1,,,77,127
234417,note_on,0,0,0,,0,,,71,95
234417,note_on,0,0,0,,0,,,56,95
234551,note_off,134,0,0,,1,,,77,127
234552,note_on,1,0,0,,1,,,68,127
234686,note_off,134,0,0,,1,,,68,127
234686,note_off,0,0,0,,0,,,56,95
234686,note_off,0,0,0,,0,,,71,95
234687,note_on,1,0,0,,1,,,77,127
234687,note_on,0,0,0,,0,,,71,95
234687,note_on,0,0,0,,0,,,56,95
234821,note_off,134,0,0,,1,,,77,127
234822,note_on,1,0,0,,1,,,68,127
234956,note_off,134,0,0,,1,,,68,127
234956,note_off,0,0,0,,0,,,56,95
234956,note_off,0,0,0,,0,,,71,95
234957,note_on,1,0,0,,1,,,76,127
234957,note_on,0,0,0,,0,,,73,95
234957,note_on,0,0,0,,0,,,64,95
234957,note_on,0,0,0,,0,,,57,95
235091,note_off,134,0,0,,1,,,76,127
235092,note_on,1,0,0,,1,,,74,127
235226,note_off,134,0,0,,1,,,74,127
235226,note_off,0,0,0,,0,,,57,95
235226,note_off,0,0,0,,0,,,73,95
235227,note_on,1,0,0,,1,,,73,127
235227,note_on,0,0,0,,0,,,45,95
235361,note_off,134,0,0,,1,,,73,127
235362,note_on,1,0,0,,1,,,71,127
235496,note_off,134,0,0,,1,,,71,127
235496,note_off,0,0,0,,0,,,45,95
235496,note_off,0,0,0,,0,,,64,95
235497,note_on,1,0,0,,1,,,69,127
235497,note_on,0,0,0,,0,,,45,95
235767,note_off,270,0,0,,0,,,45,95
235767,note_off,0,0,0,,1,,,69,127
235768,note_on,1,0,0,,1,,,81,127
235768,note_on,0,0,0,,0,,,57,95
236038,note_off,270,0,0,,0,,,57,95
236038,note_off,0,0,0,,1,,,81,127
236039,note_on,1,0,0,,1,,,67,127
236039,note_on,0,0,0,,0,,,43,95
236309,note_off,270,0,0,,0,,,43,95
236309,note_off,0,0,0,,1,,,67,127
236310,note_on,1,0,0,,1,,,79,127
236310,note_on,0,0,0,,0,,,55,95
236580,note_off,270,0,0,,0,,,55,95
236580,note_off,0,0,0,,1,,,79,127
236581,note_on,1,0,0,,1,,,65,127
236581,note_on,0,0,0,,0,,,41,95
236851,note_off,270,0,0,,0,,,41,95
236851,note_off,0,0,0,,1,,,65,127
236852,note_on,1,0,0,,1,,,77,127
236852,note_on,0,0,0,,0,,,53,95
237122,note_off,270,0,0,,0,,,53,95
237122,note_off,0,0,0,,1,,,77,127
237123,note_on,1,0,0,,1,,,64,127
237123,note_on,0,0,0,,0,,,40,95
237393,note_off,270,0,0,,0,,,40,95
237393,note_off,0,0,0,,1,,,64,127
237394,note_on,1,0,0,,1,,,76,127
237394,note_on,0,0,0,,0,,,52,95
237664,note_off,270,0,0,,0,,,52,95
237664,note_off,0,0,0,,1,,,76,127
237665,note_on,1,0,0,,1,,,62,127
237665,note_on,0,0,0,,0,,,38,95
237935,note_off,270,0,0,,0,,,38,95
237935,note_off,0,0,0,,1,,,62,127
237936,note_on,1,0,0,,1,,,74,127
237936,note_on,0,0,0,,0,,,62,95
238206,note_off,270,0,0,,0,,,62,95
238206,note_off,0,0,0,,1,,,74,127
238207,note_on,1,0,0,,1,,,60,127
238207,note_on,0,0,0,,0,,,48,95
238477,note_off,270,0,0,,0,,,48,95
238477,note_off,0,0,0,,1,,,60,127
238478,note_on,1,0,0,,1,,,72,127
238478,note_on,0,0,0,,0,,,60,95
238748,note_off,270,0,0,,0,,,60,95
238748,note_off,0,0,0,,1,,,72,127
238749,note_on,1,0,0,,1,,,58,127
238749,note_on,0,0,0,,0,,,46,95
239019,note_off,270,0,0,,0,,,46,95
239019,note_off,0,0,0,,1,,,58,127
239020,note_on,1,0,0,,1,,,70,127
239020,note_on,0,0,0,,0,,,58,95
239290,note_off,270,0,0,,0,,,58,95
239290,note_off,0,0,0,,1,,,70,127
239291,note_on,1,0,0,,1,,,57,127
239291,note_on,0,0,0,,0,,,45,95
239561,note_off,270,0,0,,0,,,45,95
239562,note_on,1,0,0,,0,,,57,95
239832,note_off,270,0,0,,0,,,57,95
239832,note_off,0,0,0,,1,,,57,127
239833,note_on,1,0,0,,1,,,76,127
239833,note_on,0,0,0,,0,,,69,95
239833,note_on,0,0,0,,0,,,59,95
239899,note_off,66,0,0,,1,,,76,127
239900,note_on,1,0,0,,1,,,77,127
239966,note_off,66,0,0,,1,,,77,127
239967,note_on,1,0,0,,1,,,79,127
240101,note_off,134,0,0,,0,,,59,95
240102,note_on,1,0,0,,0,,,64,95
240102,note_on,0,0,0,,0,,,61,95
240372,note_off,270,0,0,,0,,,61,95
240372,note_off,0,0,0,,0,,,64,95
240372,note_off,0,0,0,,1,,,79,127
240372,note_off,0,0,0,,0,,,69,95
240373,note_on,1,0,0,,1,,,77,127
240373,note_on,0,0,0,,0,,,69,95
240373,note_on,0,0,0,,0,,,65,95
240373,note_on,0,0,0,,0,,,62,95
240439,note_off,66,0,0,,1,,,77,127
240440,note_on,1,0,0,,1,,,76,127
240506,note_off,66,0,0,,1,,,76,127
240507,note_on,1,0,0,,1,,,74,127
240641,note_off,134,0,0,,0,,,62,95
240641,note_off,0,0,0,,0,,,69,95
240642,note_on,1,0,0,,0,,,74,95
240642,note_on,0,0,0,,0,,,53,95
240912,note_off,270,0,0,,0,,,53,95
240912,note_off,0,0,0,,1,,,74,127
240912,note_off,0,0,0,,0,,,65,95
240913,note_on,1,0,0,,1,,,76,127
240913,note_on,0,0,0,,0,,,64,95
240913,note_on,0,0,0,,0,,,55,95
240979,note_off,66,0,0,,1,,,76,127
240980,note_on,1,0,0,,1,,,74,127
241046,note_off,66,0,0,,0,,,74,95
241047,note_on,1,0,0,,1,,,73,127
241181,note_off,134,0,0,,1,,,74,127
241181,note_off,0,0,0,,0,,,55,95
241182,note_on,1,0,0,,0,,,73,95
241182,note_on,0,0,0,,0,,,57,95
241452,note_off,270,0,0,,0,,,57,95
241452,note_off,0,0,0,,0,,,73,95
241452,note_off,0,0,0,,1,,,73,127
241452,note_off,0,0,0,,0,,,64,95
241453,note_on,1,0,0,,1,,,74,127
241724,note_on,271,0,0,,0,,,65,95
241724,note_on,0,0,0,,0,,,62,95
241724,note_on,0,0,0,,0,,,58,95
241994,note_off,270,0,0,,0,,,58,95
241994,note_off,0,0,0,,0,,,65,95
241994,note_off,0,0,0,,1,,,74,127
241995,note_on,1,0,0,,0,,,69,95
241995,note_on,0,0,0,,0,,,54,95
242131,note_on,136,0,0,,1,,,74,127
242265,note_off,134,0,0,,1,,,74,127
242265,note_off,0,0,0,,0,,,54,95
242265,note_off,0,0,0,,0,,,69,95
242266,note_on,1,0,0,,1,,,75,127
242266,note_on,0,0,0,,0,,,67,95
242266,note_on,0,0,0,,0,,,55,95
242400,note_off,134,0,0,,1,,,75,127
242401,note_on,1,0,0,,1,,,74,127
242535,note_off,134,0,0,,1,,,74,127
242535,note_off,0,0,0,,0,,,55,95
242535,note_off,0,0,0,,0,,,67,95
242535,note_off,0,0,0,,0,,,62,95
242536,note_on,1,0,0,,1,,,72,127
242536,note_on,0,0,0,,0,,,72,95
242536,note_on,0,0,0,,0,,,69,95
242536,note_on,0,0,0,,0,,,66,95
242536,note_on,0,0,0,,0,,,62,95
242536,note_on,0,0,0,,0,,,57,95
242670,note_off,134,0,0,,1,,,72,127
242671,note_on,1,0,0,,1,,,72,127
242805,note_off,134,0,0,,0,,,57,95
242805,note_off,0,0,0,,0,,,72,95
242806,note_on,1,0,0,,1,,,74,127
242806,note_on,0,0,0,,0,,,54,95
242940,note_off,134,0,0,,1,,,74,127
242941,note_on,1,0,0,,1,,,72,127
243075,note_off,134,0,0,,0,,,54,95
243075,note_off,0,0,0,,1,,,72,127
243076,note_on,1,0,0,,1,,,62,127
243076,note_on,0,0,0,,0,,,50,95
243210,note_off,134,0,0,,0,,,62,95
243211,note_on,1,0,0,,1,,,72,127
243345,note_off,134,0,0,,0,,,50,95
243345,note_off,0,0,0,,1,,,72,127
243346,note_on,1,0,0,,1,,,74,127
243346,note_on,0,0,0,,0,,,54,95
243480,note_off,134,0,0,,1,,,74,127
243481,note_on,1,0,0,,1,,,72,127
243615,note_off,134,0,0,,1,,,72,127
243615,note_off,0,0,0,,0,,,54,95
243615,note_off,0,0,0,,1,,,72,127
243615,note_off,0,0,0,,1,,,62,127
243615,note_off,0,0,0,,0,,,66,95
243615,note_off,0,0,0,,0,,,69,95
243616,note_on,1,0,0,,1,,,70,127
243616,note_on,0,0,0,,0,,,70,95
243616,note_on,0,0,0,,0,,,67,95
243616,note_on,0,0,0,,0,,,62,95
243616,note_on,0,0,0,,0,,,55,95
243750,note_off,134,0,0,,1,,,70,127
243751,note_on,1,0,0,,1,,,70,127
243885,note_off,134,0,0,,0,,,55,95
243885,note_off,0,0,0,,0,,,70,95
243886,note_on,1,0,0,,1,,,72,127
243886,note_on,0,0,0,,0,,,43,95
244020,note_off,134,0,0,,1,,,72,127
244021,note_on,1,0,0,,1,,,70,127
244155,note_off,134,0,0,,0,,,43,95
244155,note_off,0,0,0,,1,,,70,127
244156,note_on,1,0,0,,1,,,62,127
244156,note_on,0,0,0,,0,,,43,95
244290,note_off,134,0,0,,0,,,62,95
244291,note_on,1,0,0,,1,,,70,127
244425,note_off,134,0,0,,0,,,43,95
244425,note_off,0,0,0,,1,,,70,127
244426,note_on,1,0,0,,1,,,72,127
244426,note_on,0,0,0,,0,,,43,95
244560,note_off,134,0,0,,1,,,72,127
244561,note_on,1,0,0,,1,,,70,127
244695,note_off,134,0,0,,1,,,70,127
244695,note_off,0,0,0,,0,,,43,95
244695,note_off,0,0,0,,1,,,70,127
244695,note_off,0,0,0,,1,,,62,127
244695,note_off,0,0,0,,0,,,67,95
244696,note_on,1,0,0,,1,,,62,127
244696,note_on,0,0,0,,0,,,69,95
244696,note_on,0,0,0,,0,,,62,95
244696,note_on,0,0,0,,0,,,42,95
244830,note_off,134,0,0,,1,,,62,127
244831,note_on,1,0,0,,1,,,69,127
244965,note_off,134,0,0,,0,,,42,95
244965,note_off,0,0,0,,0,,,69,95
244966,note_on,1,0,0,,1,,,62,127
244966,note_on,0,0,0,,0,,,42,95
245100,note_off,134,0,0,,0,,,62,95
245101,note_on,1,0,0,,1,,,69,127
245235,note_off,134,0,0,,1,,,69,127
245235,note_off,0,0,0,,0,,,42,95
245235,note_off,0,0,0,,1,,,62,127
245235,note_off,0,0,0,,1,,,69,127
245236,note_on,1,0,0,,1,,,62,127
245236,note_on,0,0,0,,0,,,67,95
245236,note_on,0,0,0,,0,,,62,95
245236,note_on,0,0,0,,0,,,43,95
245370,note_off,134,0,0,,1,,,62,127
245371,note_on,1,0,0,,1,,,67,127
245505,note_off,134,0,0,,0,,,43,95
245505,note_off,0,0,0,,0,,,67,95
245506,note_on,1,0,0,,1,,,62,127
245506,note_on,0,0,0,,0,,,43,95
245640,note_off,134,0,0,,0,,,62,95
245641,note_on,1,0,0,,1,,,67,127
245775,note_off,134,0,0,,1,,,67,127
245775,note_off,0,0,0,,0,,,43,95
245775,note_off,0,0,0,,1,,,62,127
245775,note_off,0,0,0,,1,,,67,127
245776,note_on,1,0,0,,1,,,66,127
245776,note_on,0,0,0,,0,,,72,95
245776,note_on,0,0,0,,0,,,69,95
245776,note_on,0,0,0,,0,,,66,95
245776,note_on,0,0,0,,0,,,62,95
245776,note_on,0,0,0,,0,,,50,95
245842,note_off,66,0,0,,1,,,66,127
245843,note_on,1,0,0,,1,,,67,127
245909,note_off,66,0,0,,1,,,67,127
245910,note_on,1,0,0,,1,,,69,127
245976,note_off,66,0,0,,0,,,69,95
245977,note_on,1,0,0,,1,,,70,127
246043,note_off,66,0,0,,1,,,70,127
246043,note_off,0,0,0,,0,,,50,95
246044,note_on,1,0,0,,1,,,72,127
246044,note_on,0,0,0,,0,,,50,95
246314,note_off,270,0,0,,0,,,50,95
246315,note_on,1,0,0,,0,,,50,95
246585,note_off,270,0,0,,0,,,50,95
246586,note_on,1,0,0,,0,,,50,95
246856,note_off,270,0,0,,0,,,50,95
246856,note_off,0,0,0,,1,,,72,127
246856,note_off,0,0,0,,1,,,69,127
246856,note_off,0,0,0,,0,,,62,95
246856,note_off,0,0,0,,0,,,66,95
246856,note_off,0,0,0,,0,,,72,95
246857,note_on,1,0,0,,1,,,70,127
246857,note_on,0,0,0,,0,,,70,95
246857,note_on,0,0,0,,0,,,67,95
246857,note_on,0,0,0,,0,,,62,95
246857,note_on,0,0,0,,0,,,55,95
246991,note_off,134,0,0,,1,,,70,127
246992,note_on,1,0,0,,1,,,69,127
247126,note_off,134,0,0,,1,,,69,127
247126,note_off,0,0,0,,0,,,55,95
247127,note_on,1,0,0,,1,,,67,127
247127,note_on,0,0,0,,0,,,43,95
247397,note_off,270,0,0,,0,,,43,95
247398,note_on,1,0,0,,0,,,43,95
247668,note_off,270,0,0,,0,,,43,95
247669,note_on,1,0,0,,0,,,43,95
247939,note_off,270,0,0,,0,,,43,95
247939,note_off,0,0,0,,1,,,67,127
247939,note_off,0,0,0,,0,,,62,95
247939,note_off,0,0,0,,0,,,67,95
247939,note_off,0,0,0,,0,,,70,95
247940,note_on,1,0,0,,1,,,66,127
247940,note_on,0,0,0,,0,,,72,95
247940,note_on,0,0,0,,0,,,69,95
247940,note_on,0,0,0,,0,,,66,95
247940,note_on,0,0,0,,0,,,62,95
247940,note_on,0,0,0,,0,,,50,95
248006,note_off,66,0,0,,1,,,66,127
248007,note_on,1,0,0,,1,,,67,127
248073,note_off,66,0,0,,1,,,67,127
248074,note_on,1,0,0,,1,,,69,127
248140,note_off,66,0,0,,0,,,69,95
248141,note_on,1,0,0,,1,,,70,127
248207,note_off,66,0,0,,1,,,70,127
248207,note_off,0,0,0,,0,,,50,95
248208,note_on,1,0,0,,1,,,72,127
248208,note_on,0,0,0,,0,,,50,95
248478,note_off,270,0,0,,0,,,50,95
248479,note_on,1,0,0,,0,,,50,95
248749,note_off,270,0,0,,0,,,50,95
248750,note_on,1,0,0,,0,,,50,95
249020,note_off,270,0,0,,0,,,50,95
249020,note_off,0,0,0,,1,,,72,127
249020,note_off,0,0,0,,1,,,69,127
249020,note_off,0,0,0,,0,,,62,95
249020,note_off,0,0,0,,0,,,66,95
249020,note_off,0,0,0,,0,,,72,95
249021,note_on,1,0,0,,1,,,70,127
249021,note_on,0,0,0,,0,,,70,95
249021,note_on,0,0,0,,0,,,67,95
249021,note_on,0,0,0,,0,,,62,95
249021,note_on,0,0,0,,0,,,55,95
249155,note_off,134,0,0,,1,,,70,127
249156,note_on,1,0,0,,1,,,72,127
249290,note_off,134,0,0,,1,,,72,127
249290,note_off,0,0,0,,0,,,55,95
249291,note_on,1,0,0,,1,,,74,127
249291,note_on,0,0,0,,0,,,43,95
249561,note_off,270,0,0,,0,,,43,95
249562,note_on,1,0,0,,0,,,43,95
249832,note_off,270,0,0,,0,,,43,95
249833,note_on,1,0,0,,0,,,43,95
250103,note_off,270,0,0,,0,,,43,95
250103,note_off,0,0,0,,1,,,74,127
250103,note_off,0,0,0,,0,,,62,95
250103,note_off,0,0,0,,0,,,67,95
250103,note_off,0,0,0,,0,,,70,95
250104,note_on,1,0,0,,1,,,73,127
250104,note_on,0,0,0,,0,,,64,95
250104,note_on,0,0,0,,0,,,69,95
250104,note_on,0,0,0,,0,,,73,95
250104,note_on,0,0,0,,0,,,45,95
250170,note_off,66,0,0,,1,,,73,127
250171,note_on,1,0,0,,1,,,74,127
250237,note_off,66,0,0,,1,,,74,127
250238,note_on,1,0,0,,1,,,76,127
250304,note_off,66,0,0,,1,,,76,127
250305,note_on,1,0,0,,1,,,77,127
250371,note_off,66,0,0,,1,,,77,127
250371,note_off,0,0,0,,0,,,45,95
250372,note_on,1,0,0,,1,,,79,127
250372,note_on,0,0,0,,0,,,45,95
250642,note_off,270,0,0,,0,,,45,95
250643,note_on,1,0,0,,0,,,45,95
250913,note_off,270,0,0,,0,,,45,95
250914,note_on,1,0,0,,0,,,45,95
251184,note_off,270,0,0,,0,,,45,95
251184,note_off,0,0,0,,1,,,79,127
251184,note_off,0,0,0,,0,,,73,95
251184,note_off,0,0,0,,0,,,69,95
251184,note_off,0,0,0,,0,,,64,95
251185,note_on,1,0,0,,1,,,77,127
251185,note_on,0,0,0,,0,,,65,95
251185,note_on,0,0,0,,0,,,69,95
251185,note_on,0,0,0,,0,,,74,95
251185,note_on,0,0,0,,0,,,50,95
251319,note_off,134,0,0,,1,,,77,127
251320,note_on,1,0,0,,1,,,76,127
251454,note_off,134,0,0,,1,,,76,127
251454,note_off,0,0,0,,0,,,50,95
251455,note_on,1,0,0,,1,,,74,127
251455,note_on,0,0,0,,0,,,50,95
251725,note_off,270,0,0,,0,,,50,95
251726,note_on,1,0,0,,0,,,50,95
251996,note_off,270,0,0,,0,,,50,95
251997,note_on,1,0,0,,0,,,50,95
252267,note_off,270,0,0,,0,,,50,95
252267,note_off,0,0,0,,1,,,74,127
252267,note_off,0,0,0,,0,,,74,95
252267,note_off,0,0,0,,0,,,69,95
252267,note_off,0,0,0,,0,,,65,95
252268,note_on,1,0,0,,1,,,73,127
252268,note_on,0,0,0,,0,,,73,95
252268,note_on,0,0,0,,0,,,69,95
252268,note_on,0,0,0,,0,,,64,95
252268,note_on,0,0,0,,0,,,57,95
252334,note_off,66,0,0,,1,,,73,127
252335,note_on,1,0,0,,1,,,74,127
252401,note_off,66,0,0,,1,,,74,127
252402,note_on,1,0,0,,1,,,76,127
252468,note_off,66,0,0,,1,,,76,127
252469,note_on,1,0,0,,1,,,77,127
252535,note_off,66,0,0,,1,,,77,127
252535,note_off,0,0,0,,0,,,57,95
252536,note_on,1,0,0,,1,,,79,127
252536,note_on,0,0,0,,0,,,45,95
252806,note_off,270,0,0,,0,,,45,95
252807,note_on,1,0,0,,0,,,45,95
253077,note_off,270,0,0,,0,,,45,95
253078,note_on,1,0,0,,0,,,45,95
253348,note_off,270,0,0,,0,,,45,95
253348,note_off,0,0,0,,1,,,79,127
253348,note_off,0,0,0,,0,,,64,95
253348,note_off,0,0,0,,0,,,69,95
253348,note_off,0,0,0,,0,,,73,95
253349,note_on,1,0,0,,1,,,77,127
253349,note_on,0,0,0,,0,,,74,95
253349,note_on,0,0,0,,0,,,69,95
253349,note_on,0,0,0,,0,,,65,95
253349,note_on,0,0,0,,0,,,50,95
253483,note_off,134,0,0,,1,,,77,127
253484,note_on,1,0,0,,1,,,69,127
253618,note_off,134,0,0,,0,,,50,95
253618,note_off,0,0,0,,0,,,69,95
253619,note_on,1,0,0,,1,,,77,127
253619,note_on,0,0,0,,0,,,53,95
253753,note_off,134,0,0,,1,,,77,127
253754,note_on,1,0,0,,1,,,69,127
253888,note_off,134,0,0,,0,,,53,95
253888,note_off,0,0,0,,1,,,69,127
253889,note_on,1,0,0,,1,,,77,127
253889,note_on,0,0,0,,0,,,50,95
254023,note_off,134,0,0,,1,,,77,127
254024,note_on,1,0,0,,1,,,69,127
254158,note_off,134,0,0,,1,,,69,127
254158,note_off,0,0,0,,0,,,50,95
254158,note_off,0,0,0,,1,,,69,127
254158,note_off,0,0,0,,0,,,65,95
254158,note_off,0,0,0,,0,,,74,95
254159,note_on,1,0,0,,1,,,77,127
254159,note_on,0,0,0,,0,,,69,95
254159,note_on,0,0,0,,0,,,47,95
254293,note_off,134,0,0,,1,,,77,127
254294,note_on,1,0,0,,1,,,69,127
254428,note_off,134,0,0,,1,,,69,127
254428,note_off,0,0,0,,0,,,47,95
254428,note_off,0,0,0,,0,,,69,95
254429,note_on,1,0,0,,1,,,77,127
254429,note_on,0,0,0,,0,,,71,95
254429,note_on,0,0,0,,0,,,44,95
254563,note_off,134,0,0,,1,,,77,127
254564,note_on,1,0,0,,1,,,68,127
254698,note_off,134,0,0,,1,,,68,127
254698,note_off,0,0,0,,0,,,44,95
254698,note_off,0,0,0,,0,,,71,95
254699,note_on,1,0,0,,1,,,77,127
254699,note_on,0,0,0,,0,,,71,95
254699,note_on,0,0,0,,0,,,44,95
254833,note_off,134,0,0,,1,,,77,127
254834,note_on,1,0,0,,1,,,68,127
254968,note_off,134,0,0,,1,,,68,127
254968,note_off,0,0,0,,0,,,44,95
254968,note_off,0,0,0,,0,,,71,95
254969,note_on,1,0,0,,1,,,77,127
254969,note_on,0,0,0,,0,,,71,95
254969,note_on,0,0,0,,0,,,44,95
255103,note_off,134,0,0,,1,,,77,127
255104,note_on,1,0,0,,1,,,68,127
255238,note_off,134,0,0,,1,,,68,127
255238,note_off,0,0,0,,0,,,44,95
255238,note_off,0,0,0,,0,,,71,95
255239,note_on,1,0,0,,1,,,77,127
255239,note_on,0,0,0,,0,,,71,95
255239,note_on,0,0,0,,0,,,44,95
255373,note_off,134,0,0,,1,,,77,127
255374,note_on,1,0,0,,1,,,68,127
255508,note_off,134,0,0,,1,,,68,127
255508,note_off,0,0,0,,0,,,44,95
255508,note_off,0,0,0,,0,,,71,95
255509,note_on,1,0,0,,1,,,76,127
255509,note_on,0,0,0,,0,,,73,95
255509,note_on,0,0,0,,0,,,45,95
255643,note_off,134,0,0,,1,,,76,127
255644,note_on,1,0,0,,1,,,69,127
255778,note_off,134,0,0,,1,,,69,127
255778,note_off,0,0,0,,0,,,45,95
255778,note_off,0,0,0,,0,,,73,95
255779,note_on,1,0,0,,1,,,76,127
255779,note_on,0,0,0,,0,,,73,95
255779,note_on,0,0,0,,0,,,45,95
255913,note_off,134,0,0,,1,,,76,127
255914,note_on,1,0,0,,1,,,69,127
256048,note_off,134,0,0,,1,,,69,127
256048,note_off,0,0,0,,0,,,45,95
256048,note_off,0,0,0,,0,,,73,95
256049,note_on,1,0,0,,1,,,76,127
256049,note_on,0,0,0,,0,,,73,95
256049,note_on,0,0,0,,0,,,45,95
256183,note_off,134,0,0,,1,,,76,127
256184,note_on,1,0,0,,1,,,69,127
256318,note_off,134,0,0,,1,,,69,127
256318,note_off,0,0,0,,0,,,45,95
256318,note_off,0,0,0,,0,,,73,95
256319,note_on,1,0,0,,1,,,76,127
256319,note_on,0,0,0,,0,,,73,95
256319,note_on,0,0,0,,0,,,45,95
256453,note_off,134,0,0,,1,,,76,127
256454,note_on,1,0,0,,1,,,69,127
256588,note_off,134,0,0,,1,,,69,127
256588,note_off,0,0,0,,0,,,45,95
256588,note_off,0,0,0,,0,,,73,95
256589,note_on,1,0,0,,1,,,77,127
256589,note_on,0,0,0,,0,,,71,95
256589,note_on,0,0,0,,0,,,44,95
256723,note_off,134,0,0,,1,,,77,127
256724,note_on,1,0,0,,1,,,68,127
256858,note_off,134,0,0,,1,,,68,127
256858,note_off,0,0,0,,0,,,44,95
256858,note_off,0,0,0,,0,,,71,95
256859,note_on,1,0,0,,1,,,77,127
256859,note_on,0,0,0,,0,,,71,95
256859,note_on,0,0,0,,0,,,44,95
256993,note_off,134,0,0,,1,,,77,127
256994,note_on,1,0,0,,1,,,68,127
257128,note_off,134,0,0,,1,,,68,127
257128,note_off,0,0,0,,0,,,44,95
257128,note_off,0,0,0,,0,,,71,95
257129,note_on,1,0,0,,1,,,77,127
257129,note_on,0,0,0,,0,,,71,95
257129,note_on,0,0,0,,0,,,44,95
257263,note_off,134,0,0,,1,,,77,127
257264,note_on,1,0,0,,1,,,68,127
257398,note_off,134,0,0,,1,,,68,127
257398,note_off,0,0,0,,0,,,44,95
257398,note_off,0,0,0,,0,,,71,95
257399,note_on,1,0,0,,1,,,77,127
257399,note_on,0,0,0,,0,,,71,95
257399,note_on,0,0,0,,0,,,44,95
257533,note_off,134,0,0,,1,,,77,127
257534,note_on,1,0,0,,1,,,68,127
257668,note_off,134,0,0,,1,,,68,127
257668,note_off,0,0,0,,0,,,44,95
257668,note_off,0,0,0,,0,,,71,95
257669,note_on,1,0,0,,1,,,76,127
257669,note_on,0,0,0,,0,,,73,95
257669,note_on,0,0,0,,0,,,45,95
257803,note_off,134,0,0,,1,,,76,127
257804,note_on,1,0,0,,1,,,74,127
257938,note_off,134,0,0,,1,,,74,127
257938,note_off,0,0,0,,0,,,45,95
257938,note_off,0,0,0,,0,,,73,95
257939,note_on,1,0,0,,1,,,73,127
257939,note_on,0,0,0,,0,,,64,95
257939,note_on,0,0,0,,0,,,45,95
258073,note_off,134,0,0,,1,,,73,127
258074,note_on,1,0,0,,1,,,71,127
258208,note_off,134,0,0,,1,,,71,127
258208,note_off,0,0,0,,0,,,45,95
258208,note_off,0,0,0,,0,,,64,95
258209,note_on,1,0,0,,1,,,69,127
258209,note_on,0,0,0,,0,,,69,95
258209,note_on,0,0,0,,0,,,45,95
258479,note_off,270,0,0,,0,,,45,95
258479,note_off,0,0,0,,0,,,69,95
258479,note_off,0,0,0,,1,,,69,127
258480,note_on,1,0,0,,1,,,81,127
258480,note_on,0,0,0,,0,,,57,95
258750,note_off,270,0,0,,0,,,57,95
258750,note_off,0,0,0,,1,,,81,127
258751,note_on,1,0,0,,1,,,67,127
258751,note_on,0,0,0,,0,,,43,95
259021,note_off,270,0,0,,0,,,43,95
259021,note_off,0,0,0,,1,,,67,127
259022,note_on,1,0,0,,1,,,79,127
259022,note_on,0,0,0,,0,,,55,95
259292,note_off,270,0,0,,0,,,55,95
259292,note_off,0,0,0,,1,,,79,127
259293,note_on,1,0,0,,1,,,65,127
259293,note_on,0,0,0,,0,,,41,95
259563,note_off,270,0,0,,0,,,41,95
259563,note_off,0,0,0,,1,,,65,127
259564,note_on,1,0,0,,1,,,77,127
259564,note_on,0,0,0,,0,,,53,95
259834,note_off,270,0,0,,0,,,53,95
259834,note_off,0,0,0,,1,,,77,127
259835,note_on,1,0,0,,1,,,64,127
259835,note_on,0,0,0,,0,,,40,95
260105,note_off,270,0,0,,0,,,40,95
260105,note_off,0,0,0,,1,,,64,127
260106,note_on,1,0,0,,1,,,76,127
260106,note_on,0,0,0,,0,,,52,95
260376,note_off,270,0,0,,0,,,52,95
260376,note_off,0,0,0,,1,,,76,127
260377,note_on,1,0,0,,1,,,62,127
260377,note_on,0,0,0,,0,,,38,95
260647,note_off,270,0,0,,0,,,38,95
260647,note_off,0,0,0,,1,,,62,127
260648,note_on,1,0,0,,1,,,74,127
260648,note_on,0,0,0,,0,,,62,95
260918,note_off,270,0,0,,0,,,62,95
260918,note_off,0,0,0,,1,,,74,127
260919,note_on,1,0,0,,1,,,60,127
260919,note_on,0,0,0,,0,,,48,95
261189,note_off,270,0,0,,0,,,48,95
261189,note_off,0,0,0,,1,,,60,127
261190,note_on,1,0,0,,1,,,72,127
261190,note_on,0,0,0,,0,,,60,95
261460,note_off,270,0,0,,0,,,60,95
261460,note_off,0,0,0,,1,,,72,127
261461,note_on,1,0,0,,1,,,58,127
261461,note_on,0,0,0,,0,,,46,95
261731,note_off,270,0,0,,0,,,46,95
261731,note_off,0,0,0,,1,,,58,127
261732,note_on,1,0,0,,1,,,70,127
261732,note_on,0,0,0,,0,,,58,95
262002,note_off,270,0,0,,0,,,58,95
262002,note_off,0,0,0,,1,,,70,127
262003,note_on,1,0,0,,1,,,57,127
262003,note_on,0,0,0,,0,,,45,95
262273,note_off,270,0,0,,0,,,45,95
262274,note_on,1,0,0,,0,,,61,95
262274,note_on,0,0,0,,0,,,57,95
262544,note_off,270,0,0,,0,,,57,95
262544,note_off,0,0,0,,0,,,61,95
262544,note_off,0,0,0,,1,,,57,127
262545,note_on,1,0,0,,1,,,76,127
262545,note_on,0,0,0,,0,,,62,95
262545,note_on,0,0,0,,0,,,59,95
262611,note_off,66,0,0,,1,,,76,127
262612,note_on,1,0,0,,1,,,77,127
262678,note_off,66,0,0,,1,,,77,127
262679,note_on,1,0,0,,1,,,79,127
262813,note_off,134,0,0,,0,,,59,95
262813,note_off,0,0,0,,0,,,62,95
262814,note_on,1,0,0,,0,,,64,95
262814,note_on,0,0,0,,0,,,61,95
263084,note_off,270,0,0,,0,,,61,95
263084,note_off,0,0,0,,0,,,64,95
263084,note_off,0,0,0,,1,,,79,127
263085,note_on,1,0,0,,1,,,77,127
263085,note_on,0,0,0,,0,,,69,95
263085,note_on,0,0,0,,0,,,65,95
263085,note_on,0,0,0,,0,,,62,95
263151,note_off,66,0,0,,1,,,77,127
263152,note_on,1,0,0,,1,,,76,127
263218,note_off,66,0,0,,1,,,76,127
263219,note_on,1,0,0,,1,,,74,127
263353,note_off,134,0,0,,0,,,62,95
263353,note_off,0,0,0,,0,,,69,95
263354,note_on,1,0,0,,0,,,74,95
263354,note_on,0,0,0,,0,,,53,95
263624,note_off,270,0,0,,0,,,53,95
263624,note_off,0,0,0,,1,,,74,127
263624,note_off,0,0,0,,0,,,65,95
263625,note_on,1,0,0,,1,,,76,127
263625,note_on,0,0,0,,0,,,64,95
263625,note_on,0,0,0,,0,,,55,95
263691,note_off,66,0,0,,1,,,76,127
263692,note_on,1,0,0,,1,,,74,127
263758,note_off,66,0,0,,0,,,74,95
263759,note_on,1,0,0,,1,,,73,127
263893,note_off,134,0,0,,1,,,74,127
263893,note_off,0,0,0,,0,,,55,95
263894,note_on,1,0,0,,0,,,73,95
263894,note_on,0,0,0,,0,,,57,95
264164,note_off,270,0,0,,0,,,57,95
264164,note_off,0,0,0,,0,,,73,95
264164,note_off,0,0,0,,1,,,73,127
264164,note_off,0,0,0,,0,,,64,95
264165,note_on,1,0,0,,1,,,74,127
264165,note_on,0,0,0,,0,,,67,95
264165,note_on,0,0,0,,0,,,62,95
264165,note_on,0,0,0,,0,,,58,95
264299,note_off,134,0,0,,1,,,74,127
264300,note_on,1,0,0,,1,,,72,127
264434,note_off,134,0,0,,1,,,72,127
264434,note_off,0,0,0,,0,,,58,95
264435,note_on,1,0,0,,1,,,70,127
264435,note_on,0,0,0,,0,,,55,95
264705,note_off,270,0,0,,0,,,55,95
264705,note_off,0,0,0,,0,,,62,95
264705,note_off,0,0,0,,0,,,67,95
264706,note_on,1,0,0,,0,,,70,95
264706,note_on,0,0,0,,0,,,67,95
264706,note_on,0,0,0,,0,,,64,95
264706,note_on,0,0,0,,0,,,49,95
264976,note_off,270,0,0,,1,,,70,127
264977,note_on,1,0,0,,1,,,69,127
265111,note_off,134,0,0,,1,,,69,127
265112,note_on,1,0,0,,1,,,67,127
265246,note_off,134,0,0,,1,,,67,127
265246,note_off,0,0,0,,0,,,49,95
265246,note_off,0,0,0,,0,,,64,95
265246,note_off,0,0,0,,0,,,67,95
265246,note_off,0,0,0,,0,,,70,95
265247,note_on,1,0,0,,1,,,65,127
265247,note_on,0,0,0,,0,,,50,95
265517,note_off,270,0,0,,0,,,50,95
265517,note_off,0,0,0,,1,,,65,127
265518,note_on,1,0,0,,1,,,74,127
265518,note_on,0,0,0,,0,,,62,95
265518,note_on,0,0,0,,0,,,53,95
265788,note_off,270,0,0,,0,,,53,95
265788,note_off,0,0,0,,0,,,62,95
265788,note_off,0,0,0,,1,,,74,127
265789,note_on,1,0,0,,1,,,64,127
265789,note_on,0,0,0,,0,,,64,95
265789,note_on,0,0,0,,0,,,55,95
266059,note_off,270,0,0,,0,,,55,95
266059,note_off,0,0,0,,1,,,64,127
266060,note_on,1,0,0,,1,,,73,127
266060,note_on,0,0,0,,0,,,67,95
266060,note_on,0,0,0,,0,,,57,95
266330,note_off,270,0,0,,0,,,57,95
266330,note_off,0,0,0,,0,,,67,95
266330,note_off,0,0,0,,1,,,73,127
266330,note_off,0,0,0,,0,,,64,95
266331,note_on,1,0,0,,1,,,74,127
266331,note_on,0,0,0,,0,,,70,95
266331,note_on,0,0,0,,0,,,62,95
266331,note_on,0,0,0,,0,,,58,95
266607,note_off,276,0,0,,0,,,58,95
266607,note_off,0,0,0,,0,,,70,95
266608,note_on,1,0,0,,0,,,67,95
266608,note_on,0,0,0,,0,,,55,95
266884,note_off,276,0,0,,0,,,55,95
266884,note_off,0,0,0,,0,,,62,95
266884,note_off,0,0,0,,1,,,74,127
266885,note_on,1,0,0,,1,,,76,127
266885,note_on,0,0,0,,0,,,52,95
266953,note_off,68,0,0,,1,,,76,127
266954,note_on,1,0,0,,1,,,77,127
267022,note_off,68,0,0,,1,,,77,127
267023,note_on,1,0,0,,1,,,79,127
267160,note_off,137,0,0,,0,,,52,95
267160,note_off,0,0,0,,0,,,67,95
267161,note_on,1,0,0,,0,,,69,95
267161,note_on,0,0,0,,0,,,49,95
267437,note_off,276,0,0,,0,,,49,95
267437,note_off,0,0,0,,0,,,69,95
267437,note_off,0,0,0,,1,,,79,127
267438,note_on,1,0,0,,1,,,77,127
267438,note_on,0,0,0,,0,,,65,95
267438,note_on,0,0,0,,0,,,50,95
267508,note_off,70,0,0,,1,,,77,127
267509,note_on,1,0,0,,1,,,76,127
267579,note_off,70,0,0,,1,,,76,127
267580,note_on,1,0,0,,1,,,74,127
267721,note_off,141,0,0,,0,,,50,95
267722,note_on,1,0,0,,0,,,69,95
267722,note_on,0,0,0,,0,,,53,95
268005,note_off,283,0,0,,0,,,53,95
268005,note_off,0,0,0,,0,,,69,95
268005,note_off,0,0,0,,1,,,74,127
268005,note_off,0,0,0,,0,,,65,95
268006,note_on,1,0,0,,1,,,76,127
268006,note_on,0,0,0,,0,,,70,95
268006,note_on,0,0,0,,0,,,55,95
268076,note_off,70,0,0,,1,,,76,127
268077,note_on,1,0,0,,1,,,74,127
268147,note_off,70,0,0,,1,,,74,127
268148,note_on,1,0,0,,1,,,73,127
268289,note_off,141,0,0,,0,,,55,95
268289,note_off,0,0,0,,0,,,70,95
268290,note_on,1,0,0,,0,,,69,95
268290,note_on,0,0,0,,0,,,57,95
268573,note_off,283,0,0,,0,,,57,95
268573,note_off,0,0,0,,0,,,69,95
268573,note_off,0,0,0,,1,,,73,127
268574,note_on,1,0,0,,1,,,74,127
268574,note_on,0,0,0,,0,,,62,95
268718,note_off,144,0,0,,0,,,62,95
268718,note_off,0,0,0,,1,,,74,127
268720,note_on,2,0,0,,1,,,72,127
268720,note_on,0,0,0,,0,,,60,95
268864,note_off,144,0,0,,0,,,60,95
268864,note_off,0,0,0,,1,,,72,127
268866,note_on,2,0,0,,1,,,70,127
268866,note_on,0,0,0,,0,,,58,95
269010,note_off,144,0,0,,0,,,58,95
269010,note_off,0,0,0,,1,,,70,127
269012,note_on,2,0,0,,1,,,69,127
269012,note_on,0,0,0,,0,,,57,95
269156,note_off,144,0,0,,0,,,57,95
269156,note_off,0,0,0,,1,,,69,127
269158,note_on,2,0,0,,1,,,67,127
269158,note_on,0,0,0,,0,,,55,95
269428,note_off,270,0,0,,0,,,55,95
269428,note_off,0,0,0,,1,,,67,127
269450,note_on,22,0,0,,1,,,69,127
269450,note_on,0,0,0,,0,,,57,95
269720,note_off,270,0,0,,0,,,57,95
269720,note_off,0,0,0,,1,,,69,127
269742,note_on,22,0,0,,1,,,62,127
269742,note_on,0,0,0,,1,,,62,127
269742,note_on,0,0,0,,0,,,50,95
269900,note_off,158,0,0,,0,,,50,95
269900,note_off,0,0,0,,1,,,62,127
269900,note_off,0,0,0,,1,,,62,127
269902,note_on,2,0,0,,1,,,60,127
269902,note_on,0,0,0,,1,,,60,127
269902,note_on,0,0,0,,0,,,48,95
270060,note_off,158,0,0,,0,,,48,95
270060,note_off,0,0,0,,1,,,60,127
270060,note_off,0,0,0,,1,,,60,127
270062,note_on,2,0,0,,1,,,58,127
270062,note_on,0,0,0,,1,,,58,127
270062,note_on,0,0,0,,0,,,46,95
270220,note_off,158,0,0,,0,,,46,95
270220,note_off,0,0,0,,1,,,58,127
270220,note_off,0,0,0,,1,,,58,127
270222,note_on,2,0,0,,1,,,57,127
270222,note_on,0,0,0,,1,,,57,127
270222,note_on,0,0,0,,0,,,45,95
270380,note_off,158,0,0,,0,,,45,95
270380,note_off,0,0,0,,1,,,57,127
270380,note_off,0,0,0,,1,,,57,127
270382,note_on,2,0,0,,1,,,55,127
270382,note_on,0,0,0,,1,,,55,127
270382,note_on,0,0,0,,0,,,43,95
270700,note_off,318,0,0,,0,,,43,95
270700,note_off,0,0,0,,1,,,55,127
270700,note_off,0,0,0,,1,,,55,127
270718,note_on,18,0,0,,0,,,45,95
270718,note_on,0,0,0,,1,,,57,127
270718,note_on,0,0,0,,1,,,57,127
271058,note_off,340,0,0,,1,,,57,127
271058,note_off,0,0,0,,1,,,57,127
271058,note_off,0,0,0,,0,,,45,95
271086,note_on,28,0,0,,1,,,62,127
271086,note_on,0,0,0,,1,,,50,127
271086,note_on,0,0,0,,0,,,38,95
272686,note_off,1600,0,0,,0,,,38,95
272686,note_off,0,0,0,,1,,,50,127
272686,note_off,0,0,0,,1,,,62,127
274094,note_on,1408,0,0,,1,,,74,127
274094,note_on,0,0,0,,0,,,69,95
274094,note_on,0,0,0,,0,,,65,95
274094,note_on,0,0,0,,0,,,50,95
274646,note_off,552,0,0,,0,,,50,95
274646,note_off,0,0,0,,0,,,65,95
274646,note_off,0,0,0,,0,,,69,95
274646,note_off,0,0,0,,1,,,74,127
274647,note_on,1,0,0,,1,,,69,127
274647,note_on,0,0,0,,0,,,69,95
274647,note_on,0,0,0,,0,,,64,95
274647,note_on,0,0,0,,0,,,49,95
275199,note_off,552,0,0,,0,,,49,95
275199,note_off,0,0,0,,0,,,64,95
275199,note_off,0,0,0,,0,,,69,95
275199,note_off,0,0,0,,1,,,69,127
275200,note_on,1,0,0,,1,,,62,127
275200,note_on,0,0,0,,0,,,69,95
275200,note_on,0,0,0,,0,,,65,95
275200,note_on,0,0,0,,0,,,50,95
275383,note_off,183,0,0,,1,,,62,127
275384,note_on,1,0,0,,1,,,77,127
275567,note_off,183,0,0,,1,,,77,127
275568,note_on,1,0,0,,1,,,76,127
275751,note_off,183,0,0,,1,,,76,127
275751,note_off,0,0,0,,0,,,50,95
275751,note_off,0,0,0,,0,,,65,95
275752,note_on,1,0,0,,1,,,74,127
275752,note_on,0,0,0,,0,,,64,95
275752,note_on,0,0,0,,0,,,48,95
275935,note_off,183,0,0,,1,,,74,127
275936,note_on,1,0,0,,1,,,73,127
276119,note_off,183,0,0,,1,,,73,127
276120,note_on,1,0,0,,1,,,74,127
276303,note_off,183,0,0,,1,,,74,127
276303,note_off,0,0,0,,0,,,48,95
276303,note_off,0,0,0,,0,,,64,95
276303,note_off,0,0,0,,0,,,69,95
276304,note_on,1,0,0,,1,,,62,127
276304,note_on,0,0,0,,0,,,67,95
276304,note_on,0,0,0,,0,,,62,95
276304,note_on,0,0,0,,0,,,46,95
276487,note_off,183,0,0,,1,,,62,127
276488,note_on,1,0,0,,1,,,77,127
276671,note_off,183,0,0,,1,,,77,127
276672,note_on,1,0,0,,1,,,76,127
276855,note_off,183,0,0,,1,,,76,127
276855,note_off,0,0,0,,0,,,46,95
276855,note_off,0,0,0,,0,,,67,95
276856,note_on,1,0,0,,1,,,74,127
276856,note_on,0,0,0,,0,,,65,95
276856,note_on,0,0,0,,0,,,45,95
277039,note_off,183,0,0,,1,,,74,127
277040,note_on,1,0,0,,1,,,73,127
277223,note_off,183,0,0,,1,,,73,127
277224,note_on,1,0,0,,1,,,74,127
277407,note_off,183,0,0,,1,,,74,127
277407,note_off,0,0,0,,0,,,45,95
277407,note_off,0,0,0,,0,,,65,95
277407,note_off,0,0,0,,0,,,62,95
277408,note_on,1,0,0,,1,,,62,127
277408,note_on,0,0,0,,0,,,64,95
277408,note_on,0,0,0,,0,,,58,95
277408,note_on,0,0,0,,0,,,43,95
277960,note_off,552,0,0,,0,,,43,95
277960,note_off,0,0,0,,0,,,58,95
277960,note_off,0,0,0,,0,,,64,95
277960,note_off,0,0,0,,1,,,62,127
277961,note_on,1,0,0,,1,,,74,127
277961,note_on,0,0,0,,0,,,69,95
277961,note_on,0,0,0,,0,,,62,95
277961,note_on,0,0,0,,0,,,41,95
278144,note_off,183,0,0,,1,,,74,127
278145,note_on,1,0,0,,1,,,76,127
278328,note_off,183,0,0,,1,,,76,127
278329,note_on,1,0,0,,1,,,77,127
278512,note_off,183,0,0,,1,,,77,127
278512,note_off,0,0,0,,0,,,41,95
278512,note_off,0,0,0,,0,,,62,95
278512,note_off,0,0,0,,0,,,69,95
278513,note_on,1,0,0,,1,,,76,127
278513,note_on,0,0,0,,0,,,58,95
278513,note_on,0,0,0,,0,,,62,95
278513,note_on,0,0,0,,0,,,43,95
278696,note_off,183,0,0,,1,,,76,127
278697,note_on,1,0,0,,1,,,74,127
278880,note_off,183,0,0,,1,,,74,127
278881,note_on,1,0,0,,1,,,76,127
279064,note_off,183,0,0,,1,,,76,127
279064,note_off,0,0,0,,0,,,43,95
279064,note_off,0,0,0,,0,,,62,95
279064,note_off,0,0,0,,0,,,58,95
279065,note_on,1,0,0,,1,,,69,127
279065,note_on,0,0,0,,0,,,61,95
279065,note_on,0,0,0,,0,,,64,95
279065,note_on,0,0,0,,0,,,45,95
279248,note_off,183,0,0,,1,,,69,127
279249,note_on,1,0,0,,1,,,71,127
279432,note_off,183,0,0,,1,,,71,127
279433,note_on,1,0,0,,1,,,73,127
279616,note_off,183,0,0,,1,,,73,127
279616,note_off,0,0,0,,0,,,45,95
279616,note_off,0,0,0,,0,,,64,95
279616,note_off,0,0,0,,0,,,61,95
279617,note_on,1,0,0,,1,,,74,127
279617,note_on,0,0,0,,0,,,69,95
279617,note_on,0,0,0,,0,,,62,95
279617,note_on,0,0,0,,0,,,41,95
279985,note_off,368,0,0,,1,,,74,127
279986,note_on,1,0,0,,1,,,69,127
280169,note_off,183,0,0,,0,,,41,95
280169,note_off,0,0,0,,0,,,62,95
280169,note_off,0,0,0,,0,,,69,95
280170,note_on,1,0,0,,1,,,74,127
280170,note_on,0,0,0,,0,,,65,95
280170,note_on,0,0,0,,0,,,50,95
280353,note_off,183,0,0,,1,,,74,127
280354,note_on,1,0,0,,1,,,76,127
280537,note_off,183,0,0,,1,,,76,127
280538,note_on,1,0,0,,1,,,77,127
280721,note_off,183,0,0,,1,,,77,127
280721,note_off,0,0,0,,0,,,50,95
280721,note_off,0,0,0,,0,,,65,95
280721,note_off,0,0,0,,1,,,69,127
280722,note_on,1,0,0,,1,,,76,127
280722,note_on,0,0,0,,0,,,70,95
280722,note_on,0,0,0,,0,,,64,95
280722,note_on,0,0,0,,0,,,55,95
280905,note_off,183,0,0,,1,,,76,127
280906,note_on,1,0,0,,1,,,74,127
281089,note_off,183,0,0,,1,,,74,127
281090,note_on,1,0,0,,1,,,76,127
281273,note_off,183,0,0,,1,,,76,127
281273,note_off,0,0,0,,0,,,55,95
281273,note_off,0,0,0,,0,,,70,95
281274,note_on,1,0,0,,1,,,69,127
281274,note_on,0,0,0,,0,,,61,95
281274,note_on,0,0,0,,0,,,57,95
281457,note_off,183,0,0,,1,,,69,127
281458,note_on,1,0,0,,1,,,71,127
281641,note_off,183,0,0,,1,,,71,127
281642,note_on,1,0,0,,1,,,73,127
281825,note_off,183,0,0,,1,,,73,127
281825,note_off,0,0,0,,0,,,57,95
281825,note_off,0,0,0,,0,,,61,95
281825,note_off,0,0,0,,0,,,64,95
281826,note_on,1,0,0,,1,,,74,127
281826,note_on,0,0,0,,0,,,69,95
281826,note_on,0,0,0,,0,,,62,95
281826,note_on,0,0,0,,0,,,53,95
282009,note_off,183,0,0,,1,,,74,127
282010,note_on,1,0,0,,1,,,69,127
282193,note_off,183,0,0,,0,,,69,95
282194,note_on,1,0,0,,1,,,74,127
282377,note_off,183,0,0,,1,,,74,127
282377,note_off,0,0,0,,0,,,53,95
282377,note_off,0,0,0,,0,,,62,95
282378,note_on,1,0,0,,1,,,77,127
282378,note_on,0,0,0,,0,,,65,95
282378,note_on,0,0,0,,0,,,50,95
282561,note_off,183,0,0,,1,,,77,127
282562,note_on,1,0,0,,1,,,76,127
282745,note_off,183,0,0,,1,,,76,127
282746,note_on,1,0,0,,1,,,74,127
282929,note_off,183,0,0,,1,,,74,127
282929,note_off,0,0,0,,0,,,50,95
282929,note_off,0,0,0,,0,,,65,95
282929,note_off,0,0,0,,1,,,69,127
282930,note_on,1,0,0,,1,,,72,127
282930,note_on,0,0,0,,0,,,69,95
282930,note_on,0,0,0,,0,,,60,95
282930,note_on,0,0,0,,0,,,52,95
283113,note_off,183,0,0,,1,,,72,127
283114,note_on,1,0,0,,1,,,71,127
283297,note_off,183,0,0,,1,,,71,127
283298,note_on,1,0,0,,1,,,69,127
283481,note_off,183,0,0,,1,,,69,127
283481,note_off,0,0,0,,0,,,52,95
283481,note_off,0,0,0,,0,,,60,95
283481,note_off,0,0,0,,0,,,69,95
283482,note_on,1,0,0,,1,,,71,127
283482,note_on,0,0,0,,0,,,68,95
283482,note_on,0,0,0,,0,,,59,95
283482,note_on,0,0,0,,0,,,52,95
283665,note_off,183,0,0,,1,,,71,127
283666,note_on,1,0,0,,1,,,69,127
283849,note_off,183,0,0,,1,,,69,127
283850,note_on,1,0,0,,1,,,68,127
284033,note_off,183,0,0,,1,,,68,127
284033,note_off,0,0,0,,0,,,52,95
284033,note_off,0,0,0,,0,,,59,95
284033,note_off,0,0,0,,0,,,68,95
284034,note_on,1,0,0,,1,,,69,127
284034,note_on,0,0,0,,0,,,65,95
284034,note_on,0,0,0,,0,,,60,95
284034,note_on,0,0,0,,0,,,53,95
284217,note_off,183,0,0,,1,,,69,127
284218,note_on,1,0,0,,1,,,71,127
284401,note_off,183,0,0,,1,,,71,127
284402,note_on,1,0,0,,1,,,72,127
284585,note_off,183,0,0,,1,,,72,127
284585,note_off,0,0,0,,0,,,53,95
284585,note_off,0,0,0,,0,,,60,95
284586,note_on,1,0,0,,1,,,74,127
284586,note_on,0,0,0,,0,,,69,95
284586,note_on,0,0,0,,0,,,50,95
284769,note_off,183,0,0,,1,,,74,127
284770,note_on,1,0,0,,1,,,76,127
284953,note_off,183,0,0,,1,,,76,127
284954,note_on,1,0,0,,1,,,77,127
285137,note_off,183,0,0,,1,,,77,127
285137,note_off,0,0,0,,0,,,50,95
285137,note_off,0,0,0,,0,,,69,95
285137,note_off,0,0,0,,0,,,65,95
285138,note_on,1,0,0,,1,,,76,127
285138,note_on,0,0,0,,0,,,69,95
285138,note_on,0,0,0,,0,,,60,95
285138,note_on,0,0,0,,0,,,52,95
285321,note_off,183,0,0,,1,,,76,127
285322,note_on,1,0,0,,1,,,74,127
285505,note_off,183,0,0,,1,,,74,127
285506,note_on,1,0,0,,1,,,72,127
285689,note_off,183,0,0,,1,,,72,127
285689,note_off,0,0,0,,0,,,52,95
285689,note_off,0,0,0,,0,,,60,95
285689,note_off,0,0,0,,0,,,69,95
285690,note_on,1,0,0,,1,,,74,127
285690,note_on,0,0,0,,0,,,68,95
285690,note_on,0,0,0,,0,,,59,95
285690,note_on,0,0,0,,0,,,52,95
285873,note_off,183,0,0,,1,,,74,127
285874,note_on,1,0,0,,1,,,72,127
286057,note_off,183,0,0,,1,,,72,127
286058,note_on,1,0,0,,1,,,71,127
286241,note_off,183,0,0,,1,,,71,127
286241,note_off,0,0,0,,0,,,52,95
286241,note_off,0,0,0,,0,,,59,95
286241,note_off,0,0,0,,0,,,68,95
286242,note_on,1,0,0,,1,,,69,127
286242,note_on,0,0,0,,0,,,69,95
286242,note_on,0,0,0,,0,,,60,95
286242,note_on,0,0,0,,0,,,53,95
286425,note_off,183,0,0,,1,,,69,127
286426,note_on,1,0,0,,1,,,71,127
286609,note_off,183,0,0,,1,,,71,127
286610,note_on,1,0,0,,1,,,72,127
286793,note_off,183,0,0,,1,,,72,127
286793,note_off,0,0,0,,0,,,53,95
286793,note_off,0,0,0,,0,,,60,95
286794,note_on,1,0,0,,1,,,74,127
286794,note_on,0,0,0,,0,,,65,95
286794,note_on,0,0,0,,0,,,50,95
286977,note_off,183,0,0,,1,,,74,127
286978,note_on,1,0,0,,1,,,76,127
287161,note_off,183,0,0,,1,,,76,127
287162,note_on,1,0,0,,1,,,77,127
287345,note_off,183,0,0,,1,,,77,127
287345,note_off,0,0,0,,0,,,50,95
287345,note_off,0,0,0,,0,,,65,95
287345,note_off,0,0,0,,0,,,69,95
287346,note_on,1,0,0,,1,,,76,127
287346,note_on,0,0,0,,0,,,64,95
287346,note_on,0,0,0,,0,,,60,95
287346,note_on,0,0,0,,0,,,52,95
287529,note_off,183,0,0,,1,,,76,127
287530,note_on,1,0,0,,1,,,74,127
287713,note_off,183,0,0,,1,,,74,127
287714,note_on,1,0,0,,1,,,72,127
287897,note_off,183,0,0,,1,,,72,127
287897,note_off,0,0,0,,0,,,52,95
287897,note_off,0,0,0,,0,,,60,95
287897,note_off,0,0,0,,0,,,64,95
287898,note_on,1,0,0,,1,,,71,127
287898,note_on,0,0,0,,0,,,68,95
287898,note_on,0,0,0,,0,,,59,95
287898,note_on,0,0,0,,0,,,40,95
288081,note_off,183,0,0,,1,,,71,127
288082,note_on,1,0,0,,1,,,69,127
288265,note_off,183,0,0,,1,,,69,127
288266,note_on,1,0,0,,1,,,68,127
288449,note_off,183,0,0,,1,,,68,127
288449,note_off,0,0,0,,0,,,40,95
288449,note_off,0,0,0,,0,,,59,95
288449,note_off,0,0,0,,0,,,68,95
288450,note_on,1,0,0,,1,,,69,127
288450,note_on,0,0,0,,0,,,64,95
288450,note_on,0,0,0,,0,,,60,95
288450,note_on,0,0,0,,0,,,45,95
289450,note_off,1000,0,0,,0,,,45,95
289450,note_off,0,0,0,,0,,,60,95
289450,note_off,0,0,0,,0,,,64,95
289450,note_off,0,0,0,,1,,,69,127
289556,note_on,106,0,0,,1,,,77,127
289556,note_on,0,0,0,,0,,,69,95
289556,note_on,0,0,0,,0,,,60,95
289556,note_on,0,0,0,,0,,,53,95
290108,note_off,552,0,0,,0,,,53,95
290108,note_off,0,0,0,,0,,,60,95
290108,note_off,0,0,0,,0,,,69,95
290108,note_off,0,0,0,,1,,,77,127
290109,note_on,1,0,0,,1,,,72,127
290109,note_on,0,0,0,,0,,,60,95
290109,note_on,0,0,0,,0,,,67,95
290109,note_on,0,0,0,,0,,,52,95
290661,note_off,552,0,0,,0,,,52,95
290661,note_off,0,0,0,,0,,,67,95
290661,note_off,0,0,0,,0,,,60,95
290661,note_off,0,0,0,,1,,,72,127
290662,note_on,1,0,0,,1,,,65,127
290662,note_on,0,0,0,,0,,,69,95
290662,note_on,0,0,0,,0,,,60,95
290662,note_on,0,0,0,,0,,,53,95
290845,note_off,183,0,0,,1,,,65,127
290846,note_on,1,0,0,,1,,,72,127
291029,note_off,183,0,0,,1,,,72,127
291030,note_on,1,0,0,,1,,,70,127
291213,note_off,183,0,0,,1,,,70,127
291213,note_off,0,0,0,,0,,,53,95
291213,note_off,0,0,0,,0,,,69,95
291214,note_on,1,0,0,,1,,,69,127
291214,note_on,0,0,0,,0,,,65,95
291214,note_on,0,0,0,,0,,,41,95
291397,note_off,183,0,0,,1,,,69,127
291398,note_on,1,0,0,,1,,,70,127
291581,note_off,183,0,0,,1,,,70,127
291582,note_on,1,0,0,,1,,,72,127
291765,note_off,183,0,0,,1,,,72,127
291765,note_off,0,0,0,,0,,,41,95
291765,note_off,0,0,0,,0,,,65,95
291765,note_off,0,0,0,,0,,,60,95
291766,note_on,1,0,0,,1,,,74,127
291766,note_on,0,0,0,,0,,,62,95
291766,note_on,0,0,0,,0,,,65,95
291766,note_on,0,0,0,,0,,,58,95
291949,note_off,183,0,0,,1,,,74,127
291950,note_on,1,0,0,,1,,,76,127
292133,note_off,183,0,0,,1,,,76,127
292134,note_on,1,0,0,,1,,,77,127
292317,note_off,183,0,0,,1,,,77,127
292317,note_off,0,0,0,,0,,,65,95
292317,note_off,0,0,0,,0,,,62,95
292318,note_on,1,0,0,,1,,,79,127
292318,note_on,0,0,0,,0,,,64,95
292501,note_off,183,0,0,,1,,,79,127
292502,note_on,1,0,0,,1,,,77,127
292685,note_off,183,0,0,,1,,,77,127
292685,note_off,0,0,0,,0,,,58,95
292686,note_on,1,0,0,,1,,,76,127
292686,note_on,0,0,0,,0,,,60,95
292869,note_off,183,0,0,,0,,,60,95
292869,note_off,0,0,0,,1,,,76,127
292869,note_off,0,0,0,,0,,,64,95
292870,note_on,1,0,0,,1,,,77,127
292870,note_on,0,0,0,,0,,,69,95
292870,note_on,0,0,0,,0,,,60,95
292870,note_on,0,0,0,,0,,,53,95
293422,note_off,552,0,0,,0,,,53,95
293422,note_off,0,0,0,,0,,,60,95
293422,note_off,0,0,0,,1,,,77,127
293423,note_on,1,0,0,,1,,,69,127
293423,note_on,0,0,0,,0,,,65,95
293423,note_on,0,0,0,,0,,,50,95
293606,note_off,183,0,0,,0,,,69,95
293607,note_on,1,0,0,,1,,,71,127
293790,note_off,183,0,0,,1,,,71,127
293791,note_on,1,0,0,,1,,,72,127
293974,note_off,183,0,0,,1,,,72,127
293974,note_off,0,0,0,,0,,,50,95
293974,note_off,0,0,0,,0,,,65,95
293974,note_off,0,0,0,,1,,,69,127
293975,note_on,1,0,0,,1,,,71,127
293975,note_on,0,0,0,,0,,,71,95
293975,note_on,0,0,0,,0,,,62,95
293975,note_on,0,0,0,,0,,,55,95
294158,note_off,183,0,0,,1,,,71,127
294159,note_on,1,0,0,,1,,,69,127
294342,note_off,183,0,0,,1,,,69,127
294343,note_on,1,0,0,,1,,,67,127
294526,note_off,183,0,0,,1,,,67,127
294526,note_off,0,0,0,,0,,,55,95
294527,note_on,1,0,0,,1,,,71,127
294527,note_on,0,0,0,,0,,,43,95
294710,note_off,183,0,0,,0,,,71,95
294711,note_on,1,0,0,,1,,,73,127
294894,note_off,183,0,0,,1,,,73,127
294895,note_on,1,0,0,,1,,,74,127
295078,note_off,183,0,0,,1,,,74,127
295078,note_off,0,0,0,,0,,,43,95
295078,note_off,0,0,0,,1,,,71,127
295078,note_off,0,0,0,,0,,,62,95
295079,note_on,1,0,0,,1,,,73,127
295079,note_on,0,0,0,,0,,,64,95
295079,note_on,0,0,0,,0,,,45,95
295262,note_off,183,0,0,,1,,,73,127
295263,note_on,1,0,0,,1,,,71,127
295446,note_off,183,0,0,,1,,,71,127
295447,note_on,1,0,0,,1,,,69,127
295630,note_off,183,0,0,,1,,,69,127
295630,note_off,0,0,0,,0,,,45,95
295631,note_on,1,0,0,,1,,,73,127
295631,note_on,0,0,0,,0,,,69,95
295631,note_on,0,0,0,,0,,,55,95
295814,note_off,183,0,0,,1,,,73,127
295815,note_on,1,0,0,,1,,,74,127
295998,note_off,183,0,0,,1,,,74,127
295999,note_on,1,0,0,,1,,,76,127
296182,note_off,183,0,0,,1,,,76,127
296182,note_off,0,0,0,,0,,,55,95
296182,note_off,0,0,0,,0,,,64,95
296183,note_on,1,0,0,,1,,,69,127
296183,note_on,0,0,0,,0,,,62,95
296183,note_on,0,0,0,,0,,,53,95
296551,note_off,368,0,0,,0,,,69,95
296552,note_on,1,0,0,,1,,,77,127
296735,note_off,183,0,0,,1,,,77,127
296735,note_off,0,0,0,,0,,,53,95
296735,note_off,0,0,0,,0,,,62,95
296735,note_off,0,0,0,,1,,,69,127
296736,note_on,1,0,0,,1,,,67,127
296736,note_on,0,0,0,,0,,,60,95
296736,note_on,0,0,0,,0,,,52,95
297104,note_off,368,0,0,,1,,,67,127
297105,note_on,1,0,0,,1,,,76,127
297288,note_off,183,0,0,,1,,,76,127
297288,note_off,0,0,0,,0,,,52,95
297288,note_off,0,0,0,,0,,,60,95
297289,note_on,1,0,0,,1,,,65,127
297289,note_on,0,0,0,,0,,,62,95
297289,note_on,0,0,0,,0,,,50,95
297657,note_off,368,0,0,,1,,,65,127
297658,note_on,1,0,0,,1,,,74,127
297841,note_off,183,0,0,,1,,,74,127
297841,note_off,0,0,0,,0,,,50,95
297841,note_off,0,0,0,,0,,,62,95
297842,note_on,1,0,0,,1,,,64,127
297842,note_on,0,0,0,,0,,,64,95
297842,note_on,0,0,0,,0,,,48,95
298210,note_off,368,0,0,,1,,,64,127
298211,note_on,1,0,0,,1,,,72,127
298394,note_off,183,0,0,,1,,,72,127
298394,note_off,0,0,0,,0,,,48,95
298394,note_off,0,0,0,,0,,,64,95
298395,note_on,1,0,0,,1,,,62,127
298395,note_on,0,0,0,,0,,,62,95
298395,note_on,0,0,0,,0,,,58,95
298395,note_on,0,0,0,,0,,,46,95
298578,note_off,183,0,0,,1,,,62,127
298579,note_on,1,0,0,,1,,,77,127
298762,note_off,183,0,0,,1,,,77,127
298763,note_on,1,0,0,,1,,,76,127
298946,note_off,183,0,0,,1,,,76,127
298946,note_off,0,0,0,,0,,,46,95
298946,note_off,0,0,0,,0,,,62,95
298947,note_on,1,0,0,,1,,,74,127
298947,note_on,0,0,0,,0,,,65,95
298947,note_on,0,0,0,,0,,,45,95
299130,note_off,183,0,0,,1,,,74,127
299131,note_on,1,0,0,,1,,,73,127
299314,note_off,183,0,0,,1,,,73,127
299315,note_on,1,0,0,,1,,,74,127
299498,note_off,183,0,0,,1,,,74,127
299498,note_off,0,0,0,,0,,,45,95
299498,note_off,0,0,0,,0,,,58,95
299499,note_on,1,0,0,,1,,,62,127
299499,note_on,0,0,0,,0,,,58,95
299499,note_on,0,0,0,,0,,,43,95
299682,note_off,183,0,0,,1,,,62,127
299683,note_on,1,0,0,,1,,,77,127
299866,note_off,183,0,0,,1,,,77,127
299867,note_on,1,0,0,,1,,,76,127
300050,note_off,183,0,0,,1,,,76,127
300050,note_off,0,0,0,,0,,,43,95
300050,note_off,0,0,0,,0,,,58,95
300050,note_off,0,0,0,,0,,,65,95
300051,note_on,1,0,0,,1,,,74,127
300051,note_on,0,0,0,,0,,,62,95
300051,note_on,0,0,0,,0,,,69,95
300051,note_on,0,0,0,,0,,,41,95
300234,note_off,183,0,0,,1,,,74,127
300235,note_on,1,0,0,,1,,,73,127
300418,note_off,183,0,0,,1,,,73,127
300419,note_on,1,0,0,,1,,,74,127
300602,note_off,183,0,0,,1,,,74,127
300602,note_off,0,0,0,,0,,,41,95
300602,note_off,0,0,0,,0,,,69,95
300602,note_off,0,0,0,,0,,,62,95
300603,note_on,1,0,0,,1,,,76,127
300603,note_on,0,0,0,,0,,,69,95
300603,note_on,0,0,0,,0,,,61,95
300603,note_on,0,0,0,,0,,,40,95
300786,note_off,183,0,0,,1,,,76,127
300787,note_on,1,0,0,,1,,,77,127
300970,note_off,183,0,0,,1,,,77,127
300971,note_on,1,0,0,,1,,,79,127
301154,note_off,183,0,0,,1,,,79,127
301154,note_off,0,0,0,,0,,,40,95
301154,note_off,0,0,0,,0,,,61,95
301155,note_on,1,0,0,,1,,,77,127
301155,note_on,0,0,0,,0,,,65,95
301155,note_on,0,0,0,,0,,,38,95
301338,note_off,183,0,0,,1,,,77,127
301339,note_on,1,0,0,,1,,,76,127
301522,note_off,183,0,0,,1,,,76,127
301523,note_on,1,0,0,,1,,,74,127
301706,note_off,183,0,0,,1,,,74,127
301706,note_off,0,0,0,,0,,,38,95
301706,note_off,0,0,0,,0,,,65,95
301706,note_off,0,0,0,,0,,,69,95
301707,note_on,1,0,0,,1,,,76,127
301707,note_on,0,0,0,,0,,,61,95
301707,note_on,0,0,0,,0,,,64,95
301707,note_on,0,0,0,,0,,,45,95
302069,note_off,362,0,0,,1,,,76,127
302076,note_on,7,0,0,,1,,,69,127
302237,note_off,161,0,0,,0,,,45,95
302237,note_off,0,0,0,,0,,,64,95
302237,note_off,0,0,0,,0,,,61,95
302259,note_off,22,0,0,,1,,,69,127
302260,note_on,1,0,0,,1,,,74,127
302260,note_on,0,0,0,,0,,,62,95
302260,note_on,0,0,0,,0,,,69,95
302260,note_on,0,0,0,,0,,,53,95
302448,note_off,188,0,0,,1,,,74,127
302449,note_on,1,0,0,,1,,,76,127
302637,note_off,188,0,0,,1,,,76,127
302638,note_on,1,0,0,,1,,,77,127
302826,note_off,188,0,0,,1,,,77,127
302826,note_off,0,0,0,,0,,,53,95
302826,note_off,0,0,0,,0,,,69,95
302826,note_off,0,0,0,,0,,,62,95
302827,note_on,1,0,0,,1,,,76,127
302827,note_on,0,0,0,,0,,,62,95
302827,note_on,0,0,0,,0,,,70,95
302827,note_on,0,0,0,,0,,,55,95
303015,note_off,188,0,0,,1,,,76,127
303016,note_on,1,0,0,,1,,,74,127
303204,note_off,188,0,0,,1,,,74,127
303205,note_on,1,0,0,,1,,,76,127
303393,note_off,188,0,0,,1,,,76,127
303393,note_off,0,0,0,,0,,,55,95
303393,note_off,0,0,0,,0,,,70,95
303393,note_off,0,0,0,,0,,,62,95
303394,note_on,1,0,0,,1,,,69,127
303394,note_on,0,0,0,,0,,,61,95
303394,note_on,0,0,0,,0,,,64,95
303394,note_on,0,0,0,,0,,,57,95
303582,note_off,188,0,0,,1,,,69,127
303583,note_on,1,0,0,,1,,,71,127
303771,note_off,188,0,0,,1,,,71,127
303772,note_on,1,0,0,,1,,,73,127
303960,note_off,188,0,0,,1,,,73,127
303960,note_off,0,0,0,,0,,,57,95
303960,note_off,0,0,0,,0,,,64,95
303960,note_off,0,0,0,,0,,,61,95
303961,note_on,1,0,0,,1,,,74,127
303961,note_on,0,0,0,,0,,,69,95
303961,note_on,0,0,0,,0,,,62,95
303961,note_on,0,0,0,,0,,,53,95
304357,note_off,396,0,0,,1,,,74,127
304358,note_on,1,0,0,,1,,,69,127
304556,note_off,198,0,0,,0,,,53,95
304556,note_off,0,0,0,,0,,,62,95
304556,note_off,0,0,0,,0,,,69,95
304557,note_on,1,0,0,,1,,,74,127
304557,note_on,0,0,0,,0,,,65,95
304557,note_on,0,0,0,,0,,,50,95
304755,note_off,198,0,0,,1,,,74,127
304756,note_on,1,0,0,,1,,,76,127
304954,note_off,198,0,0,,1,,,76,127
304955,note_on,1,0,0,,1,,,77,127
305153,note_off,198,0,0,,1,,,77,127
305153,note_off,0,0,0,,0,,,50,95
305153,note_off,0,0,0,,0,,,65,95
305153,note_off,0,0,0,,1,,,69,127
305154,note_on,1,0,0,,1,,,76,127
305154,note_on,0,0,0,,0,,,70,95
305154,note_on,0,0,0,,0,,,64,95
305154,note_on,0,0,0,,0,,,55,95
305352,note_off,198,0,0,,1,,,76,127
305353,note_on,1,0,0,,1,,,74,127
305551,note_off,198,0,0,,1,,,74,127
305552,note_on,1,0,0,,1,,,76,127
305750,note_off,198,0,0,,1,,,76,127
305750,note_off,0,0,0,,0,,,55,95
305750,note_off,0,0,0,,0,,,70,95
305751,note_on,1,0,0,,1,,,69,127
305751,note_on,0,0,0,,0,,,61,95
305751,note_on,0,0,0,,0,,,57,95
305985,note_off,234,0,0,,1,,,69,127
305986,note_on,1,0,0,,1,,,71,127
306220,note_off,234,0,0,,1,,,71,127
306221,note_on,1,0,0,,1,,,73,127
306455,note_off,234,0,0,,1,,,73,127
306455,note_off,0,0,0,,0,,,57,95
306455,note_off,0,0,0,,0,,,61,95
306455,note_off,0,0,0,,0,,,64,95
306472,note_on,17,0,0,,0,,,50,95
306472,note_on,0,0,0,,0,,,62,95
306472,note_on,0,0,0,,1,,,74,127
306472,note_on,0,0,0,,1,,,62,127
307872,note_off,1400,0,0,,1,,,62,127
307872,note_off,0,0,0,,1,,,74,127
307872,note_off,0,0,0,,0,,,62,95
307872,note_off,0,0,0,,0,,,50,95
308702,note_on,830,0,0,,1,,,74,127
308702,note_on,0,0,0,,0,,,69,95
308702,note_on,0,0,0,,0,,,65,95
308702,note_on,0,0,0,,0,,,50,95
308954,note_off,252,0,0,,1,,,74,127
308984,note_on,30,0,0,,1,,,69,127
309109,note_off,125,0,0,,1,,,69,127
309110,note_on,1,0,0,,1,,,67,127
309206,note_off,96,0,0,,0,,,50,95
309206,note_off,0,0,0,,0,,,65,95
309206,note_off,0,0,0,,0,,,69,95
309235,note_off,29,0,0,,1,,,67,127
309236,note_on,1,0,0,,0,,,45,95
309236,note_on,0,0,0,,0,,,61,95
309236,note_on,0,0,0,,1,,,65,127
309361,note_off,125,0,0,,1,,,65,127
309362,note_on,1,0,0,,1,,,64,127
309487,note_off,125,0,0,,1,,,64,127
309487,note_off,0,0,0,,0,,,61,95
309487,note_off,0,0,0,,0,,,45,95
309488,note_on,1,0,0,,0,,,38,95
309488,note_on,0,0,0,,0,,,65,95
309488,note_on,0,0,0,,0,,,69,95
309488,note_on,0,0,0,,1,,,62,127
309740,note_off,252,0,0,,1,,,62,127
309741,note_on,1,0,0,,1,,,74,127
309866,note_off,125,0,0,,1,,,74,127
309867,note_on,1,0,0,,1,,,72,127
309992,note_off,125,0,0,,1,,,72,127
309992,note_off,0,0,0,,0,,,69,95
309992,note_off,0,0,0,,0,,,38,95
309993,note_on,1,0,0,,0,,,50,95
309993,note_on,0,0,0,,0,,,57,95
309993,note_on,0,0,0,,1,,,70,127
310118,note_off,125,0,0,,1,,,70,127
310119,note_on,1,0,0,,1,,,69,127
310244,note_off,125,0,0,,1,,,69,127
310244,note_off,0,0,0,,0,,,57,95
310244,note_off,0,0,0,,0,,,50,95
310244,note_off,0,0,0,,0,,,65,95
310245,note_on,1,0,0,,0,,,46,95
310245,note_on,0,0,0,,0,,,62,95
310245,note_on,0,0,0,,0,,,67,95
310245,note_on,0,0,0,,1,,,67,127
310497,note_off,252,0,0,,1,,,67,127
310497,note_off,0,0,0,,0,,,67,95
310497,note_off,0,0,0,,0,,,46,95
310498,note_on,1,0,0,,0,,,43,95
310498,note_on,0,0,0,,0,,,70,95
310498,note_on,0,0,0,,1,,,79,127
310623,note_off,125,0,0,,1,,,79,127
310624,note_on,1,0,0,,1,,,77,127
310749,note_off,125,0,0,,1,,,77,127
310749,note_off,0,0,0,,0,,,43,95
310749,note_off,0,0,0,,0,,,62,95
310750,note_on,1,0,0,,0,,,55,95
310750,note_on,0,0,0,,0,,,64,95
310750,note_on,0,0,0,,1,,,76,127
310875,note_off,125,0,0,,1,,,76,127
310876,note_on,1,0,0,,1,,,74,127
311001,note_off,125,0,0,,1,,,74,127
311001,note_off,0,0,0,,0,,,64,95
311001,note_off,0,0,0,,0,,,55,95
311001,note_off,0,0,0,,0,,,70,95
311002,note_on,1,0,0,,0,,,57,95
311002,note_on,0,0,0,,0,,,69,95
311002,note_on,0,0,0,,0,,,64,95
311002,note_on,0,0,0,,1,,,73,127
311127,note_off,125,0,0,,0,,,57,95
311128,note_on,1,0,0,,0,,,55,95
311253,note_off,125,0,0,,0,,,55,95
311254,note_on,1,0,0,,0,,,53,95
311379,note_off,125,0,0,,0,,,53,95
311380,note_on,1,0,0,,0,,,52,95
311505,note_off,125,0,0,,0,,,52,95
311505,note_off,0,0,0,,1,,,73,127
311505,note_off,0,0,0,,0,,,64,95
311505,note_off,0,0,0,,0,,,69,95
311506,note_on,1,0,0,,0,,,50,95
311506,note_on,0,0,0,,0,,,65,95
311506,note_on,0,0,0,,0,,,69,95
311506,note_on,0,0,0,,1,,,74,127
311758,note_off,252,0,0,,1,,,74,127
311758,note_off,0,0,0,,0,,,69,95
311758,note_off,0,0,0,,0,,,65,95
311758,note_off,0,0,0,,0,,,50,95
311759,note_on,1,0,0,,0,,,43,95
311759,note_on,0,0,0,,0,,,58,95
311759,note_on,0,0,0,,0,,,62,95
311759,note_on,0,0,0,,1,,,62,127
312011,note_off,252,0,0,,1,,,62,127
312012,note_on,1,0,0,,1,,,70,127
312264,note_off,252,0,0,,1,,,70,127
312264,note_off,0,0,0,,0,,,58,95
312265,note_on,1,0,0,,1,,,69,127
312517,note_off,252,0,0,,1,,,69,127
312517,note_off,0,0,0,,0,,,62,95
312517,note_off,0,0,0,,0,,,43,95
312518,note_on,1,0,0,,0,,,41,95
312518,note_on,0,0,0,,0,,,57,95
312518,note_on,0,0,0,,0,,,62,95
312518,note_on,0,0,0,,1,,,62,127
312770,note_off,252,0,0,,1,,,62,127
312771,note_on,1,0,0,,1,,,74,127
313023,note_off,252,0,0,,1,,,74,127
313023,note_off,0,0,0,,0,,,57,95
313024,note_on,1,0,0,,1,,,73,127
313276,note_off,252,0,0,,1,,,73,127
313276,note_off,0,0,0,,0,,,62,95
313276,note_off,0,0,0,,0,,,41,95
313277,note_on,1,0,0,,0,,,43,95
313277,note_on,0,0,0,,0,,,58,95
313277,note_on,0,0,0,,0,,,62,95
313277,note_on,0,0,0,,1,,,62,127
313529,note_off,252,0,0,,1,,,62,127
313530,note_on,1,0,0,,1,,,77,127
313782,note_off,252,0,0,,1,,,77,127
313782,note_off,0,0,0,,0,,,58,95
313783,note_on,1,0,0,,1,,,76,127
314035,note_off,252,0,0,,1,,,76,127
314035,note_off,0,0,0,,0,,,62,95
314035,note_off,0,0,0,,0,,,43,95
314036,note_on,1,0,0,,0,,,41,95
314036,note_on,0,0,0,,0,,,57,95
314036,note_on,0,0,0,,0,,,62,95
314036,note_on,0,0,0,,1,,,62,127
314288,note_off,252,0,0,,1,,,62,127
314288,note_off,0,0,0,,0,,,41,95
314289,note_on,1,0,0,,0,,,53,95
314289,note_on,0,0,0,,1,,,81,127
314541,note_off,252,0,0,,1,,,81,127
314541,note_off,0,0,0,,0,,,53,95
314541,note_off,0,0,0,,0,,,62,95
314541,note_off,0,0,0,,0,,,57,95
314542,note_on,1,0,0,,0,,,52,95
314542,note_on,0,0,0,,0,,,67,95
314542,note_on,0,0,0,,1,,,79,127
314794,note_off,252,0,0,,1,,,79,127
314794,note_off,0,0,0,,0,,,67,95
314794,note_off,0,0,0,,0,,,52,95
314795,note_on,1,0,0,,0,,,50,95
314795,note_on,0,0,0,,0,,,65,95
314795,note_on,0,0,0,,0,,,69,95
314795,note_on,0,0,0,,1,,,77,127
315047,note_off,252,0,0,,1,,,77,127
315047,note_off,0,0,0,,0,,,65,95
315047,note_off,0,0,0,,0,,,50,95
315048,note_on,1,0,0,,0,,,49,95
315048,note_on,0,0,0,,0,,,64,95
315048,note_on,0,0,0,,1,,,76,127
315173,note_off,125,0,0,,1,,,76,127
315174,note_on,1,0,0,,1,,,74,127
315299,note_off,125,0,0,,1,,,74,127
315299,note_off,0,0,0,,0,,,64,95
315299,note_off,0,0,0,,0,,,49,95
315300,note_on,1,0,0,,0,,,50,95
315300,note_on,0,0,0,,0,,,65,95
315300,note_on,0,0,0,,1,,,73,127
315425,note_off,125,0,0,,1,,,73,127
315426,note_on,1,0,0,,1,,,74,127
315551,note_off,125,0,0,,1,,,74,127
315551,note_off,0,0,0,,0,,,65,95
315551,note_off,0,0,0,,0,,,50,95
315551,note_off,0,0,0,,0,,,69,95
315552,note_on,1,0,0,,0,,,45,95
315552,note_on,0,0,0,,0,,,73,95
315552,note_on,0,0,0,,1,,,76,127
315804,note_off,252,0,0,,1,,,76,127
315804,note_off,0,0,0,,0,,,73,95
315804,note_off,0,0,0,,0,,,45,95
315805,note_on,1,0,0,,0,,,57,95
315805,note_on,0,0,0,,0,,,69,95
315805,note_on,0,0,0,,1,,,69,127
316057,note_off,252,0,0,,1,,,69,127
316057,note_off,0,0,0,,0,,,69,95
316057,note_off,0,0,0,,0,,,57,95
316058,note_on,1,0,0,,0,,,55,95
316058,note_on,0,0,0,,0,,,67,95
316058,note_on,0,0,0,,1,,,67,127
316310,note_off,252,0,0,,1,,,67,127
316310,note_off,0,0,0,,0,,,67,95
316310,note_off,0,0,0,,0,,,55,95
316311,note_on,1,0,0,,0,,,53,95
316311,note_on,0,0,0,,0,,,65,95
316311,note_on,0,0,0,,1,,,65,127
316563,note_off,252,0,0,,1,,,65,127
316563,note_off,0,0,0,,0,,,65,95
316563,note_off,0,0,0,,0,,,53,95
316564,note_on,1,0,0,,0,,,52,95
316564,note_on,0,0,0,,0,,,64,95
316564,note_on,0,0,0,,1,,,64,127
316816,note_off,252,0,0,,1,,,64,127
316816,note_off,0,0,0,,0,,,64,95
316816,note_off,0,0,0,,0,,,52,95
316817,note_on,1,0,0,,0,,,50,95
316817,note_on,0,0,0,,0,,,62,95
316817,note_on,0,0,0,,1,,,62,127
317069,note_off,252,0,0,,1,,,62,127
317069,note_off,0,0,0,,0,,,62,95
317069,note_off,0,0,0,,0,,,50,95
317070,note_on,1,0,0,,0,,,45,95
317070,note_on,0,0,0,,0,,,57,95
317070,note_on,0,0,0,,1,,,57,127
317770,note_off,700,0,0,,1,,,57,127
317770,note_off,0,0,0,,0,,,57,95
317770,note_off,0,0,0,,0,,,45,95
317829,note_on,59,0,0,,0,,,45,95
317829,note_on,0,0,0,,0,,,61,95
317829,note_on,0,0,0,,0,,,64,95
317829,note_on,0,0,0,,1,,,76,127
318081,note_off,252,0,0,,1,,,76,127
318082,note_on,1,0,0,,1,,,69,127
318207,note_off,125,0,0,,1,,,69,127
318208,note_on,1,0,0,,1,,,67,127
318333,note_off,125,0,0,,1,,,67,127
318333,note_off,0,0,0,,0,,,61,95
318334,note_on,1,0,0,,1,,,65,127
318459,note_off,125,0,0,,1,,,65,127
318460,note_on,1,0,0,,1,,,64,127
318585,note_off,125,0,0,,1,,,64,127
318585,note_off,0,0,0,,0,,,64,95
318585,note_off,0,0,0,,0,,,45,95
318586,note_on,1,0,0,,0,,,50,95
318586,note_on,0,0,0,,0,,,57,95
318586,note_on,0,0,0,,0,,,65,95
318586,note_on,0,0,0,,1,,,77,127
318838,note_off,252,0,0,,1,,,77,127
318839,note_on,1,0,0,,1,,,70,127
318964,note_off,125,0,0,,1,,,70,127
318965,note_on,1,0,0,,1,,,69,127
319090,note_off,125,0,0,,1,,,69,127
319090,note_off,0,0,0,,0,,,57,95
319091,note_on,1,0,0,,1,,,67,127
319216,note_off,125,0,0,,1,,,67,127
319217,note_on,1,0,0,,1,,,65,127
319342,note_off,125,0,0,,1,,,65,127
319342,note_off,0,0,0,,0,,,65,95
319342,note_off,0,0,0,,0,,,50,95
319343,note_on,1,0,0,,0,,,52,95
319343,note_on,0,0,0,,0,,,60,95
319343,note_on,0,0,0,,0,,,67,95
319343,note_on,0,0,0,,1,,,79,127
319595,note_off,252,0,0,,1,,,79,127
319596,note_on,1,0,0,,1,,,72,127
319721,note_off,125,0,0,,1,,,72,127
319722,note_on,1,0,0,,1,,,70,127
319847,note_off,125,0,0,,1,,,70,127
319847,note_off,0,0,0,,0,,,60,95
319848,note_on,1,0,0,,1,,,69,127
319973,note_off,125,0,0,,1,,,69,127
319974,note_on,1,0,0,,1,,,67,127
320099,note_off,125,0,0,,1,,,67,127
320099,note_off,0,0,0,,0,,,67,95
320099,note_off,0,0,0,,0,,,52,95
320100,note_on,1,0,0,,0,,,53,95
320100,note_on,0,0,0,,0,,,60,95
320100,note_on,0,0,0,,0,,,69,95
320100,note_on,0,0,0,,1,,,69,127
320352,note_off,252,0,0,,1,,,69,127
320353,note_on,1,0,0,,1,,,72,127
320605,note_off,252,0,0,,1,,,72,127
320605,note_off,0,0,0,,0,,,60,95
320606,note_on,1,0,0,,1,,,77,127
320858,note_off,252,0,0,,1,,,77,127
320858,note_off,0,0,0,,0,,,69,95
320858,note_off,0,0,0,,0,,,53,95
320859,note_on,1,0,0,,0,,,46,95
320859,note_on,0,0,0,,0,,,62,95
320859,note_on,0,0,0,,1,,,65,127
321111,note_off,252,0,0,,1,,,65,127
321112,note_on,1,0,0,,1,,,74,127
321364,note_off,252,0,0,,1,,,74,127
321364,note_off,0,0,0,,0,,,62,95
321364,note_off,0,0,0,,0,,,46,95
321365,note_on,1,0,0,,0,,,45,95
321365,note_on,0,0,0,,0,,,60,95
321365,note_on,0,0,0,,1,,,72,127
321617,note_off,252,0,0,,1,,,72,127
321617,note_off,0,0,0,,0,,,60,95
321617,note_off,0,0,0,,0,,,45,95
321618,note_on,1,0,0,,0,,,43,95
321618,note_on,0,0,0,,0,,,58,95
321618,note_on,0,0,0,,1,,,64,127
321870,note_off,252,0,0,,1,,,64,127
321871,note_on,1,0,0,,1,,,70,127
322123,note_off,252,0,0,,1,,,70,127
322123,note_off,0,0,0,,0,,,58,95
322123,note_off,0,0,0,,0,,,43,95
322124,note_on,1,0,0,,0,,,41,95
322124,note_on,0,0,0,,0,,,65,95
322124,note_on,0,0,0,,1,,,69,127
322376,note_off,252,0,0,,1,,,69,127
322376,note_off,0,0,0,,0,,,65,95
322376,note_off,0,0,0,,0,,,41,95
322377,note_on,1,0,0,,0,,,58,95
322377,note_on,0,0,0,,0,,,62,95
322377,note_on,0,0,0,,0,,,65,95
322377,note_on,0,0,0,,1,,,74,127
322629,note_off,252,0,0,,1,,,74,127
322629,note_off,0,0,0,,0,,,65,95
322629,note_off,0,0,0,,0,,,62,95
322629,note_off,0,0,0,,0,,,58,95
322630,note_on,1,0,0,,0,,,60,95
322630,note_on,0,0,0,,0,,,64,95
322630,note_on,0,0,0,,1,,,72,127
322755,note_off,125,0,0,,1,,,72,127
322756,note_on,1,0,0,,1,,,70,127
322881,note_off,125,0,0,,1,,,70,127
322881,note_off,0,0,0,,0,,,60,95
322882,note_on,1,0,0,,0,,,48,95
322882,note_on,0,0,0,,1,,,69,127
323007,note_off,125,0,0,,1,,,69,127
323008,note_on,1,0,0,,1,,,67,127
323133,note_off,125,0,0,,1,,,67,127
323133,note_off,0,0,0,,0,,,48,95
323133,note_off,0,0,0,,0,,,64,95
323134,note_on,1,0,0,,0,,,53,95
323134,note_on,0,0,0,,0,,,60,95
323134,note_on,0,0,0,,0,,,69,95
323134,note_on,0,0,0,,1,,,65,127
323386,note_off,252,0,0,,1,,,65,127
323387,note_on,1,0,0,,1,,,69,127
323639,note_off,252,0,0,,0,,,69,95
323639,note_off,0,0,0,,0,,,60,95
323640,note_on,1,0,0,,1,,,72,127
323892,note_off,252,0,0,,1,,,72,127
323892,note_off,0,0,0,,1,,,69,127
323892,note_off,0,0,0,,0,,,53,95
323893,note_on,1,0,0,,0,,,50,95
323893,note_on,0,0,0,,0,,,65,95
323893,note_on,0,0,0,,0,,,69,95
323893,note_on,0,0,0,,1,,,77,127
324145,note_off,252,0,0,,1,,,77,127
324146,note_on,1,0,0,,1,,,74,127
324271,note_off,125,0,0,,1,,,74,127
324272,note_on,1,0,0,,1,,,72,127
324397,note_off,125,0,0,,1,,,72,127
324397,note_off,0,0,0,,0,,,65,95
324398,note_on,1,0,0,,1,,,70,127
324523,note_off,125,0,0,,1,,,70,127
324524,note_on,1,0,0,,1,,,69,127
324649,note_off,125,0,0,,1,,,69,127
324649,note_off,0,0,0,,0,,,69,95
324649,note_off,0,0,0,,0,,,50,95
324650,note_on,1,0,0,,0,,,55,95
324650,note_on,0,0,0,,0,,,58,95
324650,note_on,0,0,0,,0,,,62,95
324650,note_on,0,0,0,,1,,,67,127
324902,note_off,252,0,0,,1,,,67,127
324903,note_on,1,0,0,,1,,,74,127
325028,note_off,125,0,0,,1,,,74,127
325029,note_on,1,0,0,,1,,,72,127
325154,note_off,125,0,0,,1,,,72,127
325154,note_off,0,0,0,,0,,,58,95
325155,note_on,1,0,0,,1,,,70,127
325280,note_off,125,0,0,,1,,,70,127
325281,note_on,1,0,0,,1,,,69,127
325406,note_off,125,0,0,,1,,,69,127
325406,note_off,0,0,0,,0,,,62,95
325406,note_off,0,0,0,,0,,,55,95
325407,note_on,1,0,0,,0,,,43,95
325407,note_on,0,0,0,,0,,,62,95
325407,note_on,0,0,0,,0,,,70,95
325407,note_on,0,0,0,,1,,,67,127
325659,note_off,252,0,0,,1,,,67,127
325660,note_on,1,0,0,,1,,,79,127
325785,note_off,125,0,0,,1,,,79,127
325786,note_on,1,0,0,,1,,,77,127
325911,note_off,125,0,0,,1,,,77,127
325911,note_off,0,0,0,,0,,,70,95
325912,note_on,1,0,0,,1,,,76,127
326037,note_off,125,0,0,,1,,,76,127
326038,note_on,1,0,0,,1,,,74,127
326163,note_off,125,0,0,,1,,,74,127
326163,note_off,0,0,0,,0,,,62,95
326163,note_off,0,0,0,,0,,,43,95
326164,note_on,1,0,0,,0,,,45,95
326164,note_on,0,0,0,,0,,,64,95
326164,note_on,0,0,0,,1,,,73,127
326394,note_off,230,0,0,,1,,,73,127
326394,note_off,0,0,0,,0,,,64,95
326394,note_off,0,0,0,,0,,,45,95
326417,note_on,23,0,0,,0,,,57,95
326417,note_on,0,0,0,,0,,,69,95
326417,note_on,0,0,0,,1,,,69,127
326542,note_off,125,0,0,,1,,,69,127
326542,note_off,0,0,0,,0,,,69,95
326542,note_off,0,0,0,,0,,,57,95
326543,note_on,1,0,0,,0,,,55,95
326543,note_on,0,0,0,,0,,,67,95
326543,note_on,0,0,0,,1,,,67,127
326668,note_off,125,0,0,,1,,,67,127
326668,note_off,0,0,0,,0,,,67,95
326668,note_off,0,0,0,,0,,,55,95
326669,note_on,1,0,0,,0,,,53,95
326669,note_on,0,0,0,,0,,,65,95
326669,note_on,0,0,0,,1,,,65,127
326794,note_off,125,0,0,,1,,,65,127
326794,note_off,0,0,0,,0,,,65,95
326794,note_off,0,0,0,,0,,,53,95
326795,note_on,1,0,0,,0,,,52,95
326795,note_on,0,0,0,,0,,,64,95
326795,note_on,0,0,0,,1,,,64,127
326920,note_off,125,0,0,,1,,,64,127
326920,note_off,0,0,0,,0,,,64,95
326920,note_off,0,0,0,,0,,,52,95
326921,note_on,1,0,0,,0,,,50,95
326921,note_on,0,0,0,,0,,,62,95
326921,note_on,0,0,0,,1,,,62,127
327173,note_off,252,0,0,,1,,,62,127
327174,note_on,1,0,0,,1,,,70,127
327426,note_off,252,0,0,,1,,,70,127
327427,note_on,1,0,0,,1,,,69,127
327679,note_off,252,0,0,,1,,,69,127
327679,note_off,0,0,0,,0,,,62,95
327679,note_off,0,0,0,,0,,,50,95
327680,note_on,1,0,0,,0,,,41,95
327680,note_on,0,0,0,,0,,,57,95
327680,note_on,0,0,0,,0,,,62,95
327680,note_on,0,0,0,,1,,,62,127
327932,note_off,252,0,0,,1,,,62,127
327933,note_on,1,0,0,,1,,,74,127
328185,note_off,252,0,0,,1,,,74,127
328185,note_off,0,0,0,,0,,,57,95
328186,note_on,1,0,0,,1,,,73,127
328438,note_off,252,0,0,,1,,,73,127
328438,note_off,0,0,0,,0,,,62,95
328438,note_off,0,0,0,,0,,,41,95
328439,note_on,1,0,0,,0,,,43,95
328439,note_on,0,0,0,,0,,,58,95
328439,note_on,0,0,0,,0,,,62,95
328439,note_on,0,0,0,,1,,,62,127
328691,note_off,252,0,0,,1,,,62,127
328692,note_on,1,0,0,,1,,,77,127
328944,note_off,252,0,0,,1,,,77,127
328944,note_off,0,0,0,,0,,,58,95
328945,note_on,1,0,0,,1,,,76,127
329197,note_off,252,0,0,,1,,,76,127
329197,note_off,0,0,0,,0,,,62,95
329197,note_off,0,0,0,,0,,,43,95
329198,note_on,1,0,0,,0,,,41,95
329198,note_on,0,0,0,,0,,,57,95
329198,note_on,0,0,0,,0,,,62,95
329198,note_on,0,0,0,,1,,,62,127
329450,note_off,252,0,0,,1,,,62,127
329450,note_off,0,0,0,,0,,,41,95
329451,note_on,1,0,0,,0,,,53,95
329451,note_on,0,0,0,,1,,,81,127
329703,note_off,252,0,0,,1,,,81,127
329703,note_off,0,0,0,,0,,,53,95
329703,note_off,0,0,0,,0,,,62,95
329703,note_off,0,0,0,,0,,,57,95
329704,note_on,1,0,0,,0,,,52,95
329704,note_on,0,0,0,,0,,,61,95
329704,note_on,0,0,0,,1,,,79,127
329956,note_off,252,0,0,,1,,,79,127
329956,note_off,0,0,0,,0,,,61,95
329956,note_off,0,0,0,,0,,,52,95
329957,note_on,1,0,0,,0,,,50,95
329957,note_on,0,0,0,,0,,,57,95
329957,note_on,0,0,0,,0,,,65,95
329957,note_on,0,0,0,,1,,,77,127
330209,note_off,252,0,0,,1,,,77,127
330209,note_off,0,0,0,,0,,,65,95
330209,note_off,0,0,0,,0,,,50,95
330210,note_on,1,0,0,,0,,,48,95
330210,note_on,0,0,0,,0,,,64,95
330210,note_on,0,0,0,,1,,,76,127
330335,note_off,125,0,0,,1,,,76,127
330336,note_on,1,0,0,,1,,,74,127
330461,note_off,125,0,0,,1,,,74,127
330461,note_off,0,0,0,,0,,,64,95
330461,note_off,0,0,0,,0,,,48,95
330461,note_off,0,0,0,,0,,,57,95
330462,note_on,1,0,0,,0,,,46,95
330462,note_on,0,0,0,,0,,,62,95
330462,note_on,0,0,0,,1,,,73,127
330587,note_off,125,0,0,,1,,,73,127
330588,note_on,1,0,0,,1,,,74,127
330713,note_off,125,0,0,,1,,,74,127
330713,note_off,0,0,0,,0,,,62,95
330713,note_off,0,0,0,,0,,,46,95
330714,note_on,1,0,0,,0,,,45,95
330714,note_on,0,0,0,,0,,,61,95
330714,note_on,0,0,0,,1,,,76,127
330977,note_off,263,0,0,,1,,,76,127
330977,note_off,0,0,0,,0,,,61,95
330977,note_off,0,0,0,,0,,,45,95
330978,note_on,1,0,0,,0,,,57,95
330978,note_on,0,0,0,,0,,,69,95
330978,note_on,0,0,0,,1,,,69,127
331109,note_off,131,0,0,,1,,,69,127
331109,note_off,0,0,0,,0,,,69,95
331109,note_off,0,0,0,,0,,,57,95
331110,note_on,1,0,0,,0,,,55,95
331110,note_on,0,0,0,,0,,,67,95
331110,note_on,0,0,0,,1,,,67,127
331241,note_off,131,0,0,,1,,,67,127
331241,note_off,0,0,0,,0,,,67,95
331241,note_off,0,0,0,,0,,,55,95
331242,note_on,1,0,0,,0,,,53,95
331242,note_on,0,0,0,,0,,,65,95
331242,note_on,0,0,0,,1,,,65,127
331373,note_off,131,0,0,,1,,,65,127
331373,note_off,0,0,0,,0,,,65,95
331373,note_off,0,0,0,,0,,,53,95
331374,note_on,1,0,0,,0,,,52,95
331374,note_on,0,0,0,,0,,,64,95
331374,note_on,0,0,0,,1,,,64,127
331505,note_off,131,0,0,,1,,,64,127
331505,note_off,0,0,0,,0,,,64,95
331505,note_off,0,0,0,,0,,,52,95
331506,note_on,1,0,0,,0,,,53,95
331506,note_on,0,0,0,,0,,,62,95
331506,note_on,0,0,0,,0,,,69,95
331506,note_on,0,0,0,,1,,,74,127
331816,note_off,310,0,0,,1,,,74,127
331816,note_off,0,0,0,,0,,,62,95
331816,note_off,0,0,0,,0,,,53,95
331818,note_on,2,0,0,,0,,,55,95
331818,note_on,0,0,0,,0,,,64,95
331818,note_on,0,0,0,,1,,,76,127
332128,note_off,310,0,0,,1,,,76,127
332128,note_off,0,0,0,,0,,,55,95
332128,note_off,0,0,0,,0,,,69,95
332162,note_on,34,0,0,,1,,,73,127
332162,note_on,0,0,0,,0,,,69,95
332162,note_on,0,0,0,,0,,,57,95
332492,note_off,330,0,0,,0,,,57,95
332492,note_off,0,0,0,,0,,,69,95
332492,note_off,0,0,0,,1,,,73,127
332500,note_off,8,0,0,,0,,,64,95
332538,note_on,38,0,0,,1,,,74,127
332538,note_on,0,0,0,,1,,,62,127
332538,note_on,0,0,0,,0,,,62,95
332538,note_on,0,0,0,,0,,,50,95
334038,note_off,1500,0,0,,0,,,50,95
334038,note_off,0,0,0,,0,,,62,95
334038,note_off,0,0,0,,1,,,62,127
334038,note_off,0,0,0,,1,,,74,127
337920,end_of_track,3882,1,0,,,,,,
