tick,type,time,meta,track,program,channel,pitch,tempo,note,velocity
0,copyright,0,1,0,,,,,,
0,program_change,0,0,0,6,0,,,,
0,pitchwheel,0,0,0,,0,0,,,
0,program_change,0,0,0,6,1,,,,
0,pitchwheel,0,0,0,,1,0,,,
0,program_change,0,0,0,6,2,,,,
0,pitchwheel,0,0,0,,2,0,,,
0,program_change,0,0,0,6,3,,,,
0,pitchwheel,0,0,0,,3,0,,,
0,program_change,0,0,0,6,4,,,,
0,pitchwheel,0,0,0,,4,0,,,
0,program_change,0,0,0,6,5,,,,
0,pitchwheel,0,0,0,,5,0,,,
0,program_change,0,0,0,6,6,,,,
0,pitchwheel,0,0,0,,6,0,,,
0,program_change,0,0,0,6,7,,,,
0,pitchwheel,0,0,0,,7,0,,,
0,program_change,0,0,0,6,8,,,,
0,pitchwheel,0,0,0,,8,0,,,
0,set_tempo,0,1,0,,,,500000,,
96,note_on,96,0,0,,1,,,74,127
96,note_on,0,0,0,,0,,,71,95
96,note_on,0,0,0,,0,,,62,95
96,note_on,0,0,0,,0,,,55,95
655,note_off,559,0,0,,1,,,74,127
658,note_on,3,0,0,,1,,,67,127
936,note_off,278,0,0,,1,,,67,127
939,note_on,3,0,0,,1,,,69,127
1211,note_off,272,0,0,,0,,,55,95
1211,note_off,0,0,0,,0,,,62,95
1211,note_off,0,0,0,,0,,,71,95
1217,note_off,6,0,0,,1,,,69,127
1220,note_on,3,0,0,,1,,,71,127
1779,note_off,559,0,0,,1,,,71,127
1782,note_on,3,0,0,,1,,,71,127
1782,note_on,0,0,0,,0,,,62,95
1782,note_on,0,0,0,,0,,,43,95
2335,note_off,553,0,0,,0,,,43,95
2335,note_off,0,0,0,,0,,,62,95
2341,note_off,6,0,0,,1,,,71,127
2344,note_on,3,0,0,,1,,,71,127
2344,note_on,0,0,0,,0,,,64,95
2344,note_on,0,0,0,,0,,,48,95
2528,note_off,184,0,0,,1,,,71,127
2531,note_on,3,0,0,,1,,,69,127
2715,note_off,184,0,0,,1,,,69,127
2718,note_on,3,0,0,,1,,,67,127
2897,note_off,179,0,0,,0,,,48,95
2897,note_off,0,0,0,,0,,,64,95
2903,note_off,6,0,0,,1,,,67,127
2906,note_on,3,0,0,,1,,,67,127
2906,note_on,0,0,0,,0,,,64,95
2906,note_on,0,0,0,,0,,,48,95
3184,note_off,278,0,0,,1,,,67,127
3187,note_on,3,0,0,,1,,,69,127
3459,note_off,272,0,0,,0,,,48,95
3459,note_off,0,0,0,,0,,,64,95
3468,note_on,9,0,0,,0,,,64,95
3468,note_on,0,0,0,,0,,,48,95
3587,note_off,119,0,0,,1,,,69,127
4021,note_off,434,0,0,,0,,,48,95
4030,note_on,9,0,0,,0,,,67,95
4030,note_on,0,0,0,,0,,,48,95
4583,note_off,553,0,0,,0,,,48,95
4583,note_off,0,0,0,,0,,,67,95
4583,note_off,0,0,0,,0,,,64,95
4592,note_on,9,0,0,,1,,,76,127
4592,note_on,0,0,0,,0,,,66,95
4592,note_on,0,0,0,,0,,,69,95
4592,note_on,0,0,0,,0,,,48,95
5151,note_off,559,0,0,,1,,,76,127
5154,note_on,3,0,0,,1,,,66,127
5432,note_off,278,0,0,,1,,,66,127
5435,note_on,3,0,0,,1,,,67,127
5707,note_off,272,0,0,,0,,,48,95
5707,note_off,0,0,0,,0,,,69,95
5707,note_off,0,0,0,,0,,,66,95
5713,note_off,6,0,0,,1,,,67,127
5716,note_on,3,0,0,,1,,,69,127
6275,note_off,559,0,0,,1,,,69,127
6278,note_on,3,0,0,,1,,,69,127
6278,note_on,0,0,0,,0,,,62,95
6278,note_on,0,0,0,,0,,,48,95
6831,note_off,553,0,0,,0,,,48,95
6831,note_off,0,0,0,,0,,,62,95
6837,note_off,6,0,0,,1,,,69,127
6840,note_on,3,0,0,,1,,,69,127
6840,note_on,0,0,0,,0,,,62,95
6840,note_on,0,0,0,,0,,,47,95
7024,note_off,184,0,0,,1,,,69,127
7027,note_on,3,0,0,,1,,,67,127
7211,note_off,184,0,0,,1,,,67,127
7214,note_on,3,0,0,,1,,,66,127
7393,note_off,179,0,0,,0,,,47,95
7393,note_off,0,0,0,,0,,,62,95
7399,note_off,6,0,0,,1,,,66,127
7402,note_on,3,0,0,,1,,,66,127
7402,note_on,0,0,0,,0,,,62,95
7402,note_on,0,0,0,,0,,,47,95
7680,note_off,278,0,0,,1,,,66,127
7683,note_on,3,0,0,,1,,,67,127
7955,note_off,272,0,0,,0,,,47,95
7955,note_off,0,0,0,,0,,,62,95
7964,note_on,9,0,0,,0,,,62,95
7964,note_on,0,0,0,,0,,,47,95
8033,note_off,69,0,0,,1,,,67,127
8517,note_off,484,0,0,,0,,,47,95
8526,note_on,9,0,0,,1,,,74,127
8526,note_on,0,0,0,,0,,,67,95
8526,note_on,0,0,0,,0,,,47,95
9079,note_off,553,0,0,,0,,,47,95
9079,note_off,0,0,0,,0,,,67,95
9079,note_off,0,0,0,,0,,,62,95
9085,note_off,6,0,0,,1,,,74,127
9088,note_on,3,0,0,,1,,,76,127
9088,note_on,0,0,0,,0,,,67,95
9088,note_on,0,0,0,,0,,,48,95
9366,note_off,278,0,0,,1,,,76,127
9369,note_on,3,0,0,,1,,,72,127
9641,note_off,272,0,0,,0,,,48,95
9641,note_off,0,0,0,,0,,,67,95
9647,note_off,6,0,0,,1,,,72,127
9650,note_on,3,0,0,,1,,,74,127
9650,note_on,0,0,0,,0,,,67,95
9650,note_on,0,0,0,,0,,,47,95
9928,note_off,278,0,0,,1,,,74,127
9931,note_on,3,0,0,,1,,,71,127
10203,note_off,272,0,0,,0,,,47,95
10203,note_off,0,0,0,,0,,,67,95
10209,note_off,6,0,0,,1,,,71,127
10212,note_on,3,0,0,,1,,,72,127
10212,note_on,0,0,0,,0,,,66,95
10212,note_on,0,0,0,,0,,,45,95
10490,note_off,278,0,0,,1,,,72,127
10493,note_on,3,0,0,,1,,,78,127
10765,note_off,272,0,0,,0,,,45,95
10765,note_off,0,0,0,,0,,,66,95
10771,note_off,6,0,0,,1,,,78,127
10774,note_on,3,0,0,,1,,,79,127
10774,note_on,0,0,0,,0,,,71,95
10774,note_on,0,0,0,,0,,,43,95
11052,note_off,278,0,0,,1,,,79,127
11055,note_on,3,0,0,,1,,,71,127
11327,note_off,272,0,0,,0,,,43,95
11327,note_off,0,0,0,,0,,,71,95
11333,note_off,6,0,0,,1,,,71,127
11336,note_on,3,0,0,,1,,,71,127
11336,note_on,0,0,0,,0,,,67,95
11336,note_on,0,0,0,,0,,,50,95
11520,note_off,184,0,0,,1,,,71,127
11523,note_on,3,0,0,,1,,,69,127
11707,note_off,184,0,0,,1,,,69,127
11710,note_on,3,0,0,,1,,,67,127
11889,note_off,179,0,0,,0,,,50,95
11889,note_off,0,0,0,,0,,,67,95
11895,note_off,6,0,0,,1,,,67,127
11898,note_on,3,0,0,,1,,,67,127
11898,note_on,0,0,0,,0,,,64,95
11898,note_on,0,0,0,,0,,,50,95
12176,note_off,278,0,0,,1,,,67,127
12179,note_on,3,0,0,,1,,,69,127
12451,note_off,272,0,0,,0,,,50,95
12451,note_off,0,0,0,,0,,,64,95
12457,note_off,6,0,0,,1,,,69,127
12460,note_on,3,0,0,,0,,,66,95
12460,note_on,0,0,0,,0,,,50,95
13013,note_off,553,0,0,,0,,,50,95
13022,note_on,9,0,0,,1,,,74,127
13022,note_on,0,0,0,,0,,,69,95
13022,note_on,0,0,0,,0,,,50,95
13575,note_off,553,0,0,,0,,,50,95
13575,note_off,0,0,0,,0,,,69,95
13575,note_off,0,0,0,,0,,,66,95
13581,note_off,6,0,0,,1,,,74,127
13584,note_on,3,0,0,,1,,,79,127
13584,note_on,0,0,0,,0,,,67,95
13584,note_on,0,0,0,,0,,,52,95
13768,note_off,184,0,0,,1,,,79,127
13771,note_on,3,0,0,,1,,,78,127
13955,note_off,184,0,0,,1,,,78,127
13958,note_on,3,0,0,,1,,,76,127
14137,note_off,179,0,0,,0,,,52,95
14143,note_off,6,0,0,,1,,,76,127
14146,note_on,3,0,0,,1,,,67,127
14146,note_on,0,0,0,,0,,,61,95
14146,note_on,0,0,0,,0,,,52,95
14699,note_off,553,0,0,,0,,,52,95
14699,note_off,0,0,0,,0,,,61,95
14699,note_off,0,0,0,,0,,,67,95
14705,note_off,6,0,0,,1,,,67,127
14708,note_on,3,0,0,,1,,,73,127
14708,note_on,0,0,0,,0,,,67,95
14708,note_on,0,0,0,,0,,,52,95
15261,note_off,553,0,0,,0,,,52,95
15261,note_off,0,0,0,,0,,,67,95
15267,note_off,6,0,0,,1,,,73,127
15270,note_on,3,0,0,,1,,,76,127
15270,note_on,0,0,0,,0,,,64,95
15270,note_on,0,0,0,,0,,,52,95
15823,note_off,553,0,0,,0,,,52,95
15823,note_off,0,0,0,,0,,,64,95
15829,note_off,6,0,0,,1,,,76,127
15832,note_on,3,0,0,,1,,,81,127
15832,note_on,0,0,0,,0,,,64,95
15832,note_on,0,0,0,,0,,,54,95
16016,note_off,184,0,0,,1,,,81,127
16019,note_on,3,0,0,,1,,,79,127
16203,note_off,184,0,0,,1,,,79,127
16206,note_on,3,0,0,,1,,,78,127
16385,note_off,179,0,0,,0,,,54,95
16385,note_off,0,0,0,,0,,,64,95
16391,note_off,6,0,0,,1,,,78,127
16394,note_on,3,0,0,,1,,,69,127
16394,note_on,0,0,0,,0,,,62,95
16394,note_on,0,0,0,,0,,,54,95
16947,note_off,553,0,0,,0,,,54,95
16953,note_off,6,0,0,,1,,,69,127
16956,note_on,3,0,0,,1,,,74,127
16956,note_on,0,0,0,,0,,,69,95
16956,note_on,0,0,0,,0,,,54,95
17509,note_off,553,0,0,,0,,,54,95
17509,note_off,0,0,0,,0,,,69,95
17509,note_off,0,0,0,,0,,,62,95
17515,note_off,6,0,0,,1,,,74,127
17518,note_on,3,0,0,,1,,,78,127
17518,note_on,0,0,0,,0,,,62,95
17518,note_on,0,0,0,,0,,,54,95
18071,note_off,553,0,0,,0,,,54,95
18071,note_off,0,0,0,,0,,,62,95
18077,note_off,6,0,0,,1,,,78,127
18080,note_on,3,0,0,,1,,,83,127
18080,note_on,0,0,0,,0,,,64,95
18080,note_on,0,0,0,,0,,,55,95
18218,note_off,138,0,0,,1,,,83,127
18221,note_on,3,0,0,,1,,,81,127
18359,note_off,138,0,0,,1,,,81,127
18362,note_on,3,0,0,,1,,,79,127
18634,note_off,272,0,0,,0,,,55,95
18634,note_off,0,0,0,,0,,,64,95
18643,note_on,9,0,0,,0,,,64,95
18643,note_on,0,0,0,,0,,,55,95
18921,note_off,278,0,0,,1,,,79,127
18924,note_on,3,0,0,,1,,,78,127
19196,note_off,272,0,0,,0,,,55,95
19196,note_off,0,0,0,,0,,,64,95
19202,note_off,6,0,0,,1,,,78,127
19205,note_on,3,0,0,,1,,,76,127
19205,note_on,0,0,0,,0,,,64,95
19205,note_on,0,0,0,,0,,,56,95
19343,note_off,138,0,0,,1,,,76,127
19346,note_on,3,0,0,,1,,,74,127
19484,note_off,138,0,0,,1,,,74,127
19487,note_on,3,0,0,,1,,,73,127
19759,note_off,272,0,0,,0,,,56,95
19759,note_off,0,0,0,,0,,,64,95
19768,note_on,9,0,0,,0,,,64,95
19768,note_on,0,0,0,,0,,,56,95
20046,note_off,278,0,0,,1,,,73,127
20049,note_on,3,0,0,,1,,,74,127
20321,note_off,272,0,0,,0,,,56,95
20321,note_off,0,0,0,,0,,,64,95
20327,note_off,6,0,0,,1,,,74,127
20330,note_on,3,0,0,,1,,,67,127
20330,note_on,0,0,0,,0,,,64,95
20330,note_on,0,0,0,,0,,,57,95
20608,note_off,278,0,0,,1,,,67,127
20611,note_on,3,0,0,,1,,,73,127
20883,note_off,272,0,0,,0,,,57,95
20889,note_off,6,0,0,,1,,,73,127
20892,note_on,3,0,0,,1,,,76,127
20892,note_on,0,0,0,,0,,,73,95
20892,note_on,0,0,0,,0,,,45,95
21170,note_off,278,0,0,,1,,,76,127
21173,note_on,3,0,0,,1,,,79,127
21445,note_off,272,0,0,,0,,,45,95
21445,note_off,0,0,0,,0,,,73,95
21445,note_off,0,0,0,,0,,,64,95
21451,note_off,6,0,0,,1,,,79,127
21454,note_on,3,0,0,,1,,,83,127
21732,note_off,278,0,0,,1,,,83,127
21735,note_on,3,0,0,,1,,,81,127
22016,note_on,281,0,0,,0,,,69,95
22016,note_on,0,0,0,,0,,,49,95
22294,note_off,278,0,0,,1,,,81,127
22297,note_on,3,0,0,,1,,,79,127
22569,note_off,272,0,0,,0,,,49,95
22569,note_off,0,0,0,,0,,,69,95
22575,note_off,6,0,0,,1,,,79,127
22578,note_on,3,0,0,,1,,,78,127
22578,note_on,0,0,0,,0,,,69,95
22578,note_on,0,0,0,,0,,,50,95
22716,note_off,138,0,0,,1,,,78,127
22719,note_on,3,0,0,,1,,,76,127
22857,note_off,138,0,0,,1,,,76,127
22860,note_on,3,0,0,,1,,,74,127
23132,note_off,272,0,0,,0,,,50,95
23132,note_off,0,0,0,,0,,,69,95
23141,note_on,9,0,0,,0,,,71,95
23141,note_on,0,0,0,,0,,,55,95
23419,note_off,278,0,0,,1,,,74,127
23422,note_on,3,0,0,,1,,,71,127
23694,note_off,272,0,0,,0,,,55,95
23694,note_off,0,0,0,,0,,,71,95
23700,note_off,6,0,0,,1,,,71,127
23703,note_on,3,0,0,,1,,,76,127
23703,note_on,0,0,0,,0,,,73,95
23703,note_on,0,0,0,,0,,,57,95
24256,note_off,553,0,0,,0,,,57,95
24265,note_on,9,0,0,,0,,,67,95
24265,note_on,0,0,0,,0,,,45,95
24543,note_off,278,0,0,,1,,,76,127
24546,note_on,3,0,0,,1,,,74,127
24818,note_off,272,0,0,,0,,,45,95
24818,note_off,0,0,0,,0,,,67,95
24818,note_off,0,0,0,,0,,,73,95
24824,note_off,6,0,0,,1,,,74,127
24827,note_on,3,0,0,,1,,,74,127
24827,note_on,0,0,0,,0,,,66,95
24827,note_on,0,0,0,,0,,,50,95
25380,note_off,553,0,0,,0,,,50,95
25380,note_off,0,0,0,,0,,,66,95
25389,note_on,9,0,0,,0,,,54,95
25389,note_on,0,0,0,,0,,,42,95
25647,note_off,258,0,0,,0,,,42,95
25647,note_off,0,0,0,,0,,,54,95
25670,note_on,23,0,0,,0,,,55,95
25670,note_on,0,0,0,,0,,,43,95
25928,note_off,258,0,0,,0,,,43,95
25928,note_off,0,0,0,,0,,,55,95
25948,note_off,20,0,0,,1,,,74,127
25951,note_on,3,0,0,,0,,,57,95
25951,note_on,0,0,0,,0,,,45,95
26478,note_off,527,0,0,,0,,,45,95
26478,note_off,0,0,0,,0,,,57,95
26513,note_on,35,0,0,,0,,,57,95
26513,note_on,0,0,0,,0,,,45,95
27040,note_off,527,0,0,,0,,,45,95
27040,note_off,0,0,0,,0,,,57,95
27075,note_on,35,0,0,,1,,,74,127
27075,note_on,0,0,0,,0,,,62,95
27075,note_on,0,0,0,,0,,,38,95
27634,note_off,559,0,0,,1,,,74,127
27637,note_on,3,0,0,,1,,,66,127
27915,note_off,278,0,0,,1,,,66,127
27918,note_on,3,0,0,,1,,,67,127
28190,note_off,272,0,0,,0,,,38,95
28190,note_off,0,0,0,,0,,,62,95
28196,note_off,6,0,0,,1,,,67,127
28199,note_on,3,0,0,,1,,,69,127
28758,note_off,559,0,0,,1,,,69,127
28761,note_on,3,0,0,,1,,,69,127
28761,note_on,0,0,0,,0,,,66,95
28761,note_on,0,0,0,,0,,,50,95
29314,note_off,553,0,0,,0,,,50,95
29314,note_off,0,0,0,,0,,,66,95
29320,note_off,6,0,0,,1,,,69,127
29323,note_on,3,0,0,,1,,,69,127
29323,note_on,0,0,0,,0,,,64,95
29323,note_on,0,0,0,,0,,,48,95
29507,note_off,184,0,0,,1,,,69,127
29510,note_on,3,0,0,,1,,,71,127
29694,note_off,184,0,0,,1,,,71,127
29697,note_on,3,0,0,,1,,,72,127
29876,note_off,179,0,0,,0,,,48,95
29876,note_off,0,0,0,,0,,,64,95
29882,note_off,6,0,0,,1,,,72,127
29885,note_on,3,0,0,,1,,,75,127
29885,note_on,0,0,0,,0,,,64,95
29885,note_on,0,0,0,,0,,,48,95
30163,note_off,278,0,0,,1,,,75,127
30166,note_on,3,0,0,,1,,,76,127
30438,note_off,272,0,0,,0,,,48,95
30438,note_off,0,0,0,,0,,,64,95
30447,note_on,9,0,0,,0,,,64,95
30447,note_on,0,0,0,,0,,,48,95
30516,note_off,69,0,0,,1,,,76,127
31000,note_off,484,0,0,,0,,,48,95
31009,note_on,9,0,0,,0,,,67,95
31009,note_on,0,0,0,,0,,,48,95
31562,note_off,553,0,0,,0,,,48,95
31562,note_off,0,0,0,,0,,,67,95
31562,note_off,0,0,0,,0,,,64,95
31571,note_on,9,0,0,,1,,,76,127
31571,note_on,0,0,0,,0,,,66,95
31571,note_on,0,0,0,,0,,,69,95
31571,note_on,0,0,0,,0,,,48,95
32130,note_off,559,0,0,,1,,,76,127
32133,note_on,3,0,0,,1,,,66,127
32411,note_off,278,0,0,,1,,,66,127
32414,note_on,3,0,0,,1,,,67,127
32686,note_off,272,0,0,,0,,,48,95
32686,note_off,0,0,0,,0,,,69,95
32686,note_off,0,0,0,,0,,,66,95
32692,note_off,6,0,0,,1,,,67,127
32695,note_on,3,0,0,,1,,,69,127
33254,note_off,559,0,0,,1,,,69,127
33257,note_on,3,0,0,,1,,,69,127
33257,note_on,0,0,0,,0,,,66,95
33257,note_on,0,0,0,,0,,,48,95
33810,note_off,553,0,0,,0,,,48,95
33810,note_off,0,0,0,,0,,,66,95
33816,note_off,6,0,0,,1,,,69,127
33819,note_on,3,0,0,,1,,,69,127
33819,note_on,0,0,0,,0,,,62,95
33819,note_on,0,0,0,,0,,,47,95
34003,note_off,184,0,0,,1,,,69,127
34006,note_on,3,0,0,,1,,,71,127
34190,note_off,184,0,0,,1,,,71,127
34193,note_on,3,0,0,,1,,,72,127
34372,note_off,179,0,0,,0,,,47,95
34372,note_off,0,0,0,,0,,,62,95
34378,note_off,6,0,0,,1,,,72,127
34381,note_on,3,0,0,,1,,,73,127
34381,note_on,0,0,0,,0,,,62,95
34381,note_on,0,0,0,,0,,,47,95
34659,note_off,278,0,0,,1,,,73,127
34662,note_on,3,0,0,,1,,,74,127
34934,note_off,272,0,0,,0,,,47,95
34934,note_off,0,0,0,,0,,,62,95
34943,note_on,9,0,0,,0,,,62,95
34943,note_on,0,0,0,,0,,,47,95
35162,note_off,219,0,0,,1,,,74,127
35496,note_off,334,0,0,,0,,,47,95
35505,note_on,9,0,0,,0,,,67,95
35505,note_on,0,0,0,,0,,,47,95
36058,note_off,553,0,0,,0,,,47,95
36058,note_off,0,0,0,,0,,,67,95
36058,note_off,0,0,0,,0,,,62,95
36067,note_on,9,0,0,,0,,,71,95
36067,note_on,0,0,0,,0,,,67,95
36067,note_on,0,0,0,,0,,,62,95
36067,note_on,0,0,0,,0,,,47,95
36348,note_on,281,0,0,,1,,,79,127
36626,note_off,278,0,0,,1,,,79,127
36629,note_on,3,0,0,,1,,,74,127
36907,note_off,278,0,0,,1,,,74,127
36910,note_on,3,0,0,,1,,,71,127
37182,note_off,272,0,0,,0,,,47,95
37182,note_off,0,0,0,,0,,,62,95
37182,note_off,0,0,0,,0,,,67,95
37182,note_off,0,0,0,,0,,,71,95
37188,note_off,6,0,0,,1,,,71,127
37191,note_on,3,0,0,,1,,,67,127
37469,note_off,278,0,0,,1,,,67,127
37472,note_on,3,0,0,,1,,,66,127
37750,note_off,278,0,0,,1,,,66,127
37753,note_on,3,0,0,,1,,,66,127
37753,note_on,0,0,0,,0,,,62,95
37753,note_on,0,0,0,,0,,,59,95
38031,note_off,278,0,0,,1,,,66,127
38034,note_on,3,0,0,,1,,,67,127
38306,note_off,272,0,0,,0,,,59,95
38306,note_off,0,0,0,,0,,,62,95
38312,note_off,6,0,0,,1,,,67,127
38315,note_on,3,0,0,,0,,,64,95
38315,note_on,0,0,0,,0,,,60,95
38596,note_on,281,0,0,,1,,,79,127
38868,note_off,272,0,0,,0,,,60,95
38874,note_off,6,0,0,,1,,,79,127
38877,note_on,3,0,0,,1,,,76,127
38877,note_on,0,0,0,,0,,,67,95
38877,note_on,0,0,0,,0,,,48,95
39155,note_off,278,0,0,,1,,,76,127
39158,note_on,3,0,0,,1,,,72,127
39430,note_off,272,0,0,,0,,,48,95
39430,note_off,0,0,0,,0,,,67,95
39430,note_off,0,0,0,,0,,,64,95
39436,note_off,6,0,0,,1,,,72,127
39439,note_on,3,0,0,,1,,,67,127
39717,note_off,278,0,0,,1,,,67,127
39720,note_on,3,0,0,,1,,,66,127
39998,note_off,278,0,0,,1,,,66,127
40001,note_on,3,0,0,,1,,,66,127
40001,note_on,0,0,0,,0,,,64,95
40001,note_on,0,0,0,,0,,,60,95
40279,note_off,278,0,0,,1,,,66,127
40282,note_on,3,0,0,,1,,,67,127
40554,note_off,272,0,0,,0,,,60,95
40554,note_off,0,0,0,,0,,,64,95
40560,note_off,6,0,0,,1,,,67,127
40563,note_on,3,0,0,,0,,,62,95
40563,note_on,0,0,0,,0,,,59,95
40844,note_on,281,0,0,,1,,,67,127
41116,note_off,272,0,0,,0,,,59,95
41122,note_off,6,0,0,,1,,,67,127
41125,note_on,3,0,0,,1,,,71,127
41125,note_on,0,0,0,,0,,,67,95
41125,note_on,0,0,0,,0,,,47,95
41403,note_off,278,0,0,,1,,,71,127
41406,note_on,3,0,0,,1,,,74,127
41678,note_off,272,0,0,,0,,,47,95
41678,note_off,0,0,0,,0,,,67,95
41678,note_off,0,0,0,,0,,,62,95
41684,note_off,6,0,0,,1,,,74,127
41687,note_on,3,0,0,,1,,,79,127
41965,note_off,278,0,0,,1,,,79,127
41968,note_on,3,0,0,,1,,,83,127
42246,note_off,278,0,0,,1,,,83,127
42249,note_on,3,0,0,,1,,,74,127
42249,note_on,0,0,0,,0,,,67,95
42249,note_on,0,0,0,,0,,,59,95
42527,note_off,278,0,0,,1,,,74,127
42530,note_on,3,0,0,,1,,,71,127
42802,note_off,272,0,0,,0,,,59,95
42802,note_off,0,0,0,,0,,,67,95
42808,note_off,6,0,0,,1,,,71,127
42811,note_on,3,0,0,,1,,,72,127
42811,note_on,0,0,0,,0,,,64,95
42811,note_on,0,0,0,,0,,,57,95
42949,note_off,138,0,0,,1,,,72,127
42952,note_on,3,0,0,,1,,,71,127
43090,note_off,138,0,0,,1,,,71,127
43093,note_on,3,0,0,,1,,,72,127
43365,note_off,272,0,0,,0,,,57,95
43365,note_off,0,0,0,,0,,,64,95
43374,note_on,9,0,0,,0,,,64,95
43374,note_on,0,0,0,,0,,,55,95
43652,note_off,278,0,0,,1,,,72,127
43655,note_on,3,0,0,,1,,,76,127
43927,note_off,272,0,0,,0,,,55,95
43927,note_off,0,0,0,,0,,,64,95
43933,note_off,6,0,0,,1,,,76,127
43936,note_on,3,0,0,,1,,,72,127
43936,note_on,0,0,0,,0,,,62,95
43936,note_on,0,0,0,,0,,,54,95
44074,note_off,138,0,0,,1,,,72,127
44077,note_on,3,0,0,,1,,,71,127
44215,note_off,138,0,0,,1,,,71,127
44218,note_on,3,0,0,,1,,,72,127
44490,note_off,272,0,0,,0,,,54,95
44490,note_off,0,0,0,,0,,,62,95
44499,note_on,9,0,0,,0,,,67,95
44499,note_on,0,0,0,,0,,,52,95
44777,note_off,278,0,0,,1,,,72,127
44780,note_on,3,0,0,,1,,,79,127
45052,note_off,272,0,0,,0,,,52,95
45052,note_off,0,0,0,,0,,,67,95
45058,note_off,6,0,0,,1,,,79,127
45061,note_on,3,0,0,,1,,,78,127
45061,note_on,0,0,0,,0,,,66,95
45061,note_on,0,0,0,,0,,,50,95
45199,note_off,138,0,0,,1,,,78,127
45202,note_on,3,0,0,,1,,,76,127
45340,note_off,138,0,0,,1,,,76,127
45343,note_on,3,0,0,,1,,,74,127
45615,note_off,272,0,0,,0,,,50,95
45615,note_off,0,0,0,,0,,,66,95
45624,note_on,9,0,0,,0,,,67,95
45624,note_on,0,0,0,,0,,,52,95
45902,note_off,278,0,0,,1,,,74,127
45905,note_on,3,0,0,,1,,,73,127
46177,note_off,272,0,0,,0,,,52,95
46177,note_off,0,0,0,,0,,,67,95
46183,note_off,6,0,0,,1,,,73,127
46186,note_on,3,0,0,,1,,,81,127
46186,note_on,0,0,0,,0,,,69,95
46186,note_on,0,0,0,,0,,,54,95
46464,note_off,278,0,0,,1,,,81,127
46467,note_on,3,0,0,,1,,,72,127
46739,note_off,272,0,0,,0,,,54,95
46748,note_on,9,0,0,,0,,,66,95
46748,note_on,0,0,0,,0,,,50,95
47026,note_off,278,0,0,,1,,,72,127
47029,note_on,3,0,0,,1,,,71,127
47167,note_off,138,0,0,,1,,,71,127
47170,note_on,3,0,0,,1,,,69,127
47302,note_off,132,0,0,,0,,,50,95
47302,note_off,0,0,0,,0,,,66,95
47302,note_off,0,0,0,,0,,,69,95
47308,note_off,6,0,0,,1,,,69,127
47311,note_on,3,0,0,,1,,,71,127
47311,note_on,0,0,0,,0,,,62,95
47311,note_on,0,0,0,,0,,,55,95
47589,note_off,278,0,0,,1,,,71,127
47592,note_on,3,0,0,,1,,,79,127
47864,note_off,272,0,0,,0,,,55,95
47864,note_off,0,0,0,,0,,,62,95
47873,note_on,9,0,0,,0,,,64,95
47873,note_on,0,0,0,,0,,,48,95
48011,note_off,138,0,0,,1,,,79,127
48014,note_on,3,0,0,,1,,,67,127
48152,note_off,138,0,0,,1,,,67,127
48155,note_on,3,0,0,,1,,,72,127
48293,note_off,138,0,0,,1,,,72,127
48296,note_on,3,0,0,,1,,,69,127
48428,note_off,132,0,0,,0,,,48,95
48428,note_off,0,0,0,,0,,,64,95
48434,note_off,6,0,0,,1,,,69,127
48437,note_on,3,0,0,,1,,,69,127
48437,note_on,0,0,0,,0,,,66,95
48437,note_on,0,0,0,,0,,,50,95
48990,note_off,553,0,0,,0,,,50,95
48999,note_on,9,0,0,,0,,,38,95
49277,note_off,278,0,0,,1,,,69,127
49280,note_on,3,0,0,,1,,,67,127
49552,note_off,272,0,0,,0,,,38,95
49552,note_off,0,0,0,,0,,,66,95
49558,note_off,6,0,0,,1,,,67,127
49561,note_on,3,0,0,,1,,,67,127
49561,note_on,0,0,0,,0,,,67,95
49561,note_on,0,0,0,,0,,,52,95
49839,note_off,278,0,0,,1,,,67,127
49842,note_on,3,0,0,,1,,,73,127
50114,note_off,272,0,0,,0,,,52,95
50114,note_off,0,0,0,,0,,,67,95
50120,note_off,6,0,0,,1,,,73,127
50123,note_on,3,0,0,,1,,,76,127
50123,note_on,0,0,0,,0,,,67,95
50123,note_on,0,0,0,,0,,,52,95
50401,note_off,278,0,0,,1,,,76,127
50404,note_on,3,0,0,,1,,,79,127
50676,note_off,272,0,0,,0,,,52,95
50685,note_on,9,0,0,,0,,,73,95
50685,note_on,0,0,0,,0,,,52,95
50963,note_off,278,0,0,,1,,,79,127
50966,note_on,3,0,0,,1,,,76,127
51238,note_off,272,0,0,,0,,,52,95
51238,note_off,0,0,0,,0,,,73,95
51238,note_off,0,0,0,,0,,,67,95
51244,note_off,6,0,0,,1,,,76,127
51247,note_on,3,0,0,,1,,,74,127
51247,note_on,0,0,0,,0,,,67,95
51247,note_on,0,0,0,,0,,,52,95
51525,note_off,278,0,0,,1,,,74,127
51528,note_on,3,0,0,,1,,,73,127
51800,note_off,272,0,0,,0,,,52,95
51800,note_off,0,0,0,,0,,,67,95
51806,note_off,6,0,0,,1,,,73,127
51809,note_on,3,0,0,,1,,,69,127
51809,note_on,0,0,0,,0,,,69,95
51809,note_on,0,0,0,,0,,,54,95
52087,note_off,278,0,0,,1,,,69,127
52090,note_on,3,0,0,,1,,,72,127
52362,note_off,272,0,0,,0,,,54,95
52362,note_off,0,0,0,,0,,,69,95
52368,note_off,6,0,0,,1,,,72,127
52371,note_on,3,0,0,,1,,,78,127
52371,note_on,0,0,0,,0,,,62,95
52371,note_on,0,0,0,,0,,,54,95
52649,note_off,278,0,0,,1,,,78,127
52652,note_on,3,0,0,,1,,,81,127
52924,note_off,272,0,0,,0,,,54,95
52924,note_off,0,0,0,,0,,,62,95
52933,note_on,9,0,0,,0,,,62,95
52933,note_on,0,0,0,,0,,,54,95
53211,note_off,278,0,0,,1,,,81,127
53214,note_on,3,0,0,,1,,,72,127
53486,note_off,272,0,0,,0,,,54,95
53492,note_off,6,0,0,,1,,,72,127
53495,note_on,3,0,0,,1,,,71,127
53495,note_on,0,0,0,,0,,,69,95
53495,note_on,0,0,0,,0,,,54,95
53773,note_off,278,0,0,,1,,,71,127
53776,note_on,3,0,0,,1,,,69,127
54048,note_off,272,0,0,,0,,,54,95
54048,note_off,0,0,0,,0,,,69,95
54048,note_off,0,0,0,,0,,,62,95
54054,note_off,6,0,0,,1,,,69,127
54057,note_on,3,0,0,,1,,,71,127
54057,note_on,0,0,0,,0,,,62,95
54057,note_on,0,0,0,,0,,,55,95
54335,note_off,278,0,0,,1,,,71,127
54338,note_on,3,0,0,,1,,,69,127
54610,note_off,272,0,0,,0,,,55,95
54610,note_off,0,0,0,,0,,,62,95
54616,note_off,6,0,0,,1,,,69,127
54619,note_on,3,0,0,,1,,,67,127
54619,note_on,0,0,0,,0,,,64,95
54619,note_on,0,0,0,,0,,,48,95
54897,note_off,278,0,0,,1,,,67,127
54900,note_on,3,0,0,,1,,,76,127
55172,note_off,272,0,0,,0,,,48,95
55172,note_off,0,0,0,,0,,,64,95
55178,note_off,6,0,0,,1,,,76,127
55181,note_on,3,0,0,,1,,,81,127
55181,note_on,0,0,0,,0,,,66,95
55181,note_on,0,0,0,,0,,,50,95
55734,note_off,553,0,0,,0,,,50,95
55743,note_on,9,0,0,,0,,,60,95
55743,note_on,0,0,0,,0,,,45,95
56021,note_off,278,0,0,,1,,,81,127
56024,note_on,3,0,0,,1,,,79,127
56296,note_off,272,0,0,,0,,,45,95
56296,note_off,0,0,0,,0,,,60,95
56296,note_off,0,0,0,,0,,,66,95
56302,note_off,6,0,0,,1,,,79,127
56305,note_on,3,0,0,,1,,,79,127
56305,note_on,0,0,0,,0,,,62,95
56305,note_on,0,0,0,,0,,,67,95
56305,note_on,0,0,0,,0,,,47,95
56489,note_off,184,0,0,,1,,,79,127
56508,note_on,19,0,0,,1,,,74,127
56692,note_off,184,0,0,,1,,,74,127
56695,note_on,3,0,0,,1,,,76,127
56858,note_off,163,0,0,,0,,,47,95
56858,note_off,0,0,0,,0,,,67,95
56858,note_off,0,0,0,,0,,,62,95
56880,note_off,22,0,0,,1,,,76,127
56883,note_on,3,0,0,,0,,,48,95
56883,note_on,0,0,0,,0,,,67,95
56883,note_on,0,0,0,,0,,,64,95
56883,note_on,0,0,0,,1,,,67,127
57067,note_off,184,0,0,,1,,,67,127
57070,note_on,3,0,0,,1,,,72,127
57254,note_off,184,0,0,,1,,,72,127
57257,note_on,3,0,0,,1,,,69,127
57436,note_off,179,0,0,,0,,,64,95
57436,note_off,0,0,0,,0,,,67,95
57436,note_off,0,0,0,,0,,,48,95
57442,note_off,6,0,0,,1,,,69,127
57445,note_on,3,0,0,,0,,,50,95
57445,note_on,0,0,0,,0,,,66,95
57445,note_on,0,0,0,,1,,,69,127
57998,note_off,553,0,0,,0,,,50,95
58007,note_on,9,0,0,,0,,,38,95
58007,note_on,0,0,0,,0,,,60,95
58285,note_off,278,0,0,,1,,,69,127
58288,note_on,3,0,0,,1,,,67,127
58560,note_off,272,0,0,,0,,,66,95
58578,note_off,18,0,0,,0,,,38,95
58584,note_off,6,0,0,,0,,,60,95
58600,note_off,16,0,0,,1,,,67,127
58601,note_on,1,0,0,,0,,,55,95
58601,note_on,0,0,0,,0,,,64,95
58601,note_on,0,0,0,,1,,,67,127
58886,note_off,285,0,0,,1,,,67,127
58889,note_on,3,0,0,,1,,,72,127
59168,note_off,279,0,0,,0,,,64,95
59168,note_off,0,0,0,,0,,,55,95
59174,note_off,6,0,0,,1,,,72,127
59177,note_on,3,0,0,,0,,,54,95
59177,note_on,0,0,0,,0,,,69,95
59177,note_on,0,0,0,,1,,,74,127
59462,note_off,285,0,0,,1,,,74,127
59465,note_on,3,0,0,,1,,,66,127
59744,note_off,279,0,0,,0,,,69,95
59744,note_off,0,0,0,,0,,,54,95
59750,note_off,6,0,0,,1,,,66,127
59753,note_on,3,0,0,,0,,,52,95
59753,note_on,0,0,0,,0,,,67,95
59753,note_on,0,0,0,,1,,,67,127
60038,note_off,285,0,0,,1,,,67,127
60041,note_on,3,0,0,,1,,,74,127
60320,note_off,279,0,0,,0,,,52,95
60326,note_off,6,0,0,,1,,,74,127
60329,note_on,3,0,0,,0,,,45,95
60329,note_on,0,0,0,,0,,,61,95
60329,note_on,0,0,0,,1,,,76,127
60614,note_off,285,0,0,,1,,,76,127
60617,note_on,3,0,0,,1,,,67,127
60896,note_off,279,0,0,,0,,,67,95
60911,note_off,15,0,0,,0,,,45,95
60914,note_off,3,0,0,,0,,,61,95
60917,note_off,3,0,0,,1,,,67,127
60921,note_on,4,0,0,,1,,,66,127
60921,note_on,0,0,0,,0,,,57,95
60921,note_on,0,0,0,,0,,,50,95
61229,note_off,308,0,0,,1,,,66,127
61232,note_on,3,0,0,,1,,,69,127
61534,note_off,302,0,0,,0,,,50,95
61540,note_off,6,0,0,,1,,,69,127
61543,note_on,3,0,0,,1,,,74,127
61543,note_on,0,0,0,,0,,,66,95
61543,note_on,0,0,0,,0,,,50,95
61851,note_off,308,0,0,,1,,,74,127
61854,note_on,3,0,0,,1,,,78,127
62156,note_off,302,0,0,,0,,,50,95
62156,note_off,0,0,0,,0,,,66,95
62162,note_off,6,0,0,,1,,,78,127
62165,note_on,3,0,0,,1,,,81,127
62165,note_on,0,0,0,,0,,,66,95
62165,note_on,0,0,0,,0,,,50,95
62491,note_off,326,0,0,,1,,,81,127
62494,note_on,3,0,0,,1,,,78,127
62813,note_off,319,0,0,,0,,,50,95
62820,note_off,7,0,0,,1,,,78,127
62823,note_on,3,0,0,,1,,,74,127
62823,note_on,0,0,0,,0,,,38,95
63149,note_off,326,0,0,,1,,,74,127
63152,note_on,3,0,0,,1,,,69,127
63471,note_off,319,0,0,,0,,,38,95
63471,note_off,0,0,0,,0,,,66,95
63471,note_off,0,0,0,,0,,,57,95
63478,note_off,7,0,0,,1,,,69,127
63497,note_on,19,0,0,,0,,,38,95
63497,note_on,0,0,0,,0,,,62,95
63497,note_on,0,0,0,,1,,,62,127
65097,note_off,1600,0,0,,1,,,62,127
65097,note_off,0,0,0,,0,,,62,95
65097,note_off,0,0,0,,0,,,38,95
66027,note_on,930,0,0,,1,,,67,127
66482,note_off,455,0,0,,1,,,67,127
66483,note_on,1,0,0,,1,,,74,127
66938,note_off,455,0,0,,1,,,74,127
66939,note_on,1,0,0,,1,,,71,127
66939,note_on,0,0,0,,0,,,67,95
66939,note_on,0,0,0,,0,,,55,95
67392,note_off,453,0,0,,0,,,55,95
67392,note_off,0,0,0,,0,,,67,95
67394,note_off,2,0,0,,1,,,71,127
67395,note_on,1,0,0,,0,,,66,95
67395,note_on,0,0,0,,0,,,62,95
67623,note_on,228,0,0,,1,,,69,127
67848,note_off,225,0,0,,0,,,62,95
67848,note_off,0,0,0,,0,,,66,95
67850,note_off,2,0,0,,1,,,69,127
67851,note_on,1,0,0,,1,,,67,127
67851,note_on,0,0,0,,0,,,67,95
67851,note_on,0,0,0,,0,,,59,95
68078,note_off,227,0,0,,1,,,67,127
68079,note_on,1,0,0,,1,,,74,127
68304,note_off,225,0,0,,0,,,59,95
68304,note_off,0,0,0,,0,,,67,95
68306,note_off,2,0,0,,1,,,74,127
68307,note_on,1,0,0,,1,,,74,127
68307,note_on,0,0,0,,0,,,69,95
68307,note_on,0,0,0,,0,,,54,95
68534,note_off,227,0,0,,1,,,74,127
68535,note_on,1,0,0,,1,,,72,127
68760,note_off,225,0,0,,0,,,54,95
68760,note_off,0,0,0,,0,,,69,95
68762,note_off,2,0,0,,1,,,72,127
68763,note_on,1,0,0,,1,,,71,127
68763,note_on,0,0,0,,0,,,67,95
68763,note_on,0,0,0,,0,,,55,95
69216,note_off,453,0,0,,0,,,55,95
69216,note_off,0,0,0,,0,,,67,95
69218,note_off,2,0,0,,1,,,71,127
69219,note_on,1,0,0,,0,,,66,95
69219,note_on,0,0,0,,0,,,50,95
69447,note_on,228,0,0,,1,,,69,127
69672,note_off,225,0,0,,0,,,50,95
69672,note_off,0,0,0,,0,,,66,95
69674,note_off,2,0,0,,1,,,69,127
69675,note_on,1,0,0,,1,,,62,127
69675,note_on,0,0,0,,0,,,67,95
69675,note_on,0,0,0,,0,,,47,95
69902,note_off,227,0,0,,1,,,62,127
69903,note_on,1,0,0,,1,,,74,127
70128,note_off,225,0,0,,0,,,47,95
70128,note_off,0,0,0,,0,,,67,95
70130,note_off,2,0,0,,1,,,74,127
70131,note_on,1,0,0,,1,,,74,127
70131,note_on,0,0,0,,0,,,69,95
70131,note_on,0,0,0,,0,,,42,95
70358,note_off,227,0,0,,1,,,74,127
70359,note_on,1,0,0,,1,,,72,127
70584,note_off,225,0,0,,0,,,42,95
70584,note_off,0,0,0,,0,,,69,95
70586,note_off,2,0,0,,1,,,72,127
70587,note_on,1,0,0,,1,,,71,127
70587,note_on,0,0,0,,0,,,62,95
70587,note_on,0,0,0,,0,,,43,95
70700,note_off,113,0,0,,1,,,71,127
70701,note_on,1,0,0,,1,,,69,127
70811,note_off,110,0,0,,0,,,43,95
70813,note_off,2,0,0,,1,,,69,127
70814,note_on,1,0,0,,1,,,67,127
70814,note_on,0,0,0,,0,,,43,95
71039,note_off,225,0,0,,0,,,43,95
71041,note_off,2,0,0,,1,,,67,127
71042,note_on,1,0,0,,0,,,71,95
71042,note_on,0,0,0,,0,,,43,95
71267,note_off,225,0,0,,0,,,43,95
71271,note_on,4,0,0,,1,,,79,127
71271,note_on,0,0,0,,0,,,43,95
71496,note_off,225,0,0,,0,,,43,95
71496,note_off,0,0,0,,0,,,71,95
71496,note_off,0,0,0,,0,,,62,95
71498,note_off,2,0,0,,1,,,79,127
71499,note_on,1,0,0,,1,,,76,127
71499,note_on,0,0,0,,0,,,71,95
71499,note_on,0,0,0,,0,,,55,95
71724,note_off,225,0,0,,0,,,55,95
71726,note_off,2,0,0,,1,,,76,127
71727,note_on,1,0,0,,1,,,74,127
71727,note_on,0,0,0,,0,,,55,95
71952,note_off,225,0,0,,0,,,55,95
71952,note_off,0,0,0,,0,,,71,95
71954,note_off,2,0,0,,1,,,74,127
71955,note_on,1,0,0,,1,,,74,127
71955,note_on,0,0,0,,0,,,69,95
71955,note_on,0,0,0,,0,,,55,95
72180,note_off,225,0,0,,0,,,55,95
72182,note_off,2,0,0,,1,,,74,127
72183,note_on,1,0,0,,1,,,73,127
72183,note_on,0,0,0,,0,,,55,95
72408,note_off,225,0,0,,0,,,55,95
72408,note_off,0,0,0,,0,,,69,95
72410,note_off,2,0,0,,1,,,73,127
72411,note_on,1,0,0,,1,,,73,127
72411,note_on,0,0,0,,0,,,69,95
72411,note_on,0,0,0,,0,,,54,95
72636,note_off,225,0,0,,0,,,54,95
72638,note_off,2,0,0,,1,,,73,127
72639,note_on,1,0,0,,1,,,74,127
72639,note_on,0,0,0,,0,,,54,95
72864,note_off,225,0,0,,0,,,54,95
72864,note_off,0,0,0,,0,,,69,95
72866,note_off,2,0,0,,1,,,74,127
72867,note_on,1,0,0,,0,,,54,95
73092,note_off,225,0,0,,0,,,54,95
73096,note_on,4,0,0,,1,,,72,127
73096,note_on,0,0,0,,0,,,66,95
73096,note_on,0,0,0,,0,,,50,95
73321,note_off,225,0,0,,0,,,50,95
73321,note_off,0,0,0,,0,,,66,95
73323,note_off,2,0,0,,1,,,72,127
73324,note_on,1,0,0,,1,,,71,127
73324,note_on,0,0,0,,0,,,62,95
73324,note_on,0,0,0,,0,,,43,95
73549,note_off,225,0,0,,0,,,43,95
73551,note_off,2,0,0,,1,,,71,127
73552,note_on,1,0,0,,1,,,72,127
73552,note_on,0,0,0,,0,,,45,95
73777,note_off,225,0,0,,0,,,45,95
73777,note_off,0,0,0,,0,,,62,95
73779,note_off,2,0,0,,1,,,72,127
73780,note_on,1,0,0,,1,,,74,127
73780,note_on,0,0,0,,0,,,67,95
73780,note_on,0,0,0,,0,,,47,95
74005,note_off,225,0,0,,0,,,47,95
74007,note_off,2,0,0,,1,,,74,127
74008,note_on,1,0,0,,1,,,76,127
74008,note_on,0,0,0,,0,,,48,95
74233,note_off,225,0,0,,0,,,48,95
74233,note_off,0,0,0,,0,,,67,95
74235,note_off,2,0,0,,1,,,76,127
74236,note_on,1,0,0,,1,,,69,127
74236,note_on,0,0,0,,0,,,66,95
74236,note_on,0,0,0,,0,,,50,95
74461,note_off,225,0,0,,0,,,50,95
74461,note_off,0,0,0,,0,,,66,95
74465,note_on,4,0,0,,0,,,67,95
74465,note_on,0,0,0,,0,,,52,95
74690,note_off,225,0,0,,0,,,52,95
74690,note_off,0,0,0,,0,,,67,95
74692,note_off,2,0,0,,1,,,69,127
74693,note_on,1,0,0,,0,,,69,95
74693,note_on,0,0,0,,0,,,54,95
74918,note_off,225,0,0,,0,,,54,95
74918,note_off,0,0,0,,0,,,69,95
74922,note_on,4,0,0,,1,,,74,127
74922,note_on,0,0,0,,0,,,67,95
74922,note_on,0,0,0,,0,,,52,95
75147,note_off,225,0,0,,0,,,52,95
75147,note_off,0,0,0,,0,,,67,95
75149,note_off,2,0,0,,1,,,74,127
75150,note_on,1,0,0,,1,,,69,127
75150,note_on,0,0,0,,0,,,66,95
75150,note_on,0,0,0,,0,,,50,95
75375,note_off,225,0,0,,0,,,50,95
75377,note_off,2,0,0,,1,,,69,127
75378,note_on,1,0,0,,1,,,67,127
75378,note_on,0,0,0,,0,,,50,95
75603,note_off,225,0,0,,0,,,50,95
75603,note_off,0,0,0,,0,,,66,95
75605,note_off,2,0,0,,1,,,67,127
75606,note_on,1,0,0,,1,,,67,127
75606,note_on,0,0,0,,0,,,50,95
75831,note_off,225,0,0,,0,,,50,95
75833,note_off,2,0,0,,1,,,67,127
75834,note_on,1,0,0,,1,,,66,127
75834,note_on,0,0,0,,0,,,62,95
75834,note_on,0,0,0,,0,,,50,95
76059,note_off,225,0,0,,0,,,50,95
76059,note_off,0,0,0,,0,,,62,95
76061,note_off,2,0,0,,1,,,66,127
76062,note_on,1,0,0,,1,,,66,127
76062,note_on,0,0,0,,0,,,60,95
76062,note_on,0,0,0,,0,,,52,95
76287,note_off,225,0,0,,0,,,52,95
76289,note_off,2,0,0,,1,,,66,127
76290,note_on,1,0,0,,1,,,67,127
76290,note_on,0,0,0,,0,,,52,95
76515,note_off,225,0,0,,0,,,52,95
76515,note_off,0,0,0,,0,,,60,95
76517,note_off,2,0,0,,1,,,67,127
76518,note_on,1,0,0,,0,,,52,95
76743,note_off,225,0,0,,0,,,52,95
76747,note_on,4,0,0,,1,,,69,127
76747,note_on,0,0,0,,0,,,62,95
76747,note_on,0,0,0,,0,,,54,95
76972,note_off,225,0,0,,0,,,54,95
76972,note_off,0,0,0,,0,,,62,95
76974,note_off,2,0,0,,1,,,69,127
76975,note_on,1,0,0,,1,,,71,127
76975,note_on,0,0,0,,0,,,62,95
76975,note_on,0,0,0,,0,,,55,95
77200,note_off,225,0,0,,0,,,55,95
77202,note_off,2,0,0,,1,,,71,127
77203,note_on,1,0,0,,1,,,72,127
77203,note_on,0,0,0,,0,,,57,95
77428,note_off,225,0,0,,0,,,57,95
77428,note_off,0,0,0,,0,,,62,95
77430,note_off,2,0,0,,1,,,72,127
77431,note_on,1,0,0,,1,,,74,127
77431,note_on,0,0,0,,0,,,67,95
77431,note_on,0,0,0,,0,,,59,95
77656,note_off,225,0,0,,0,,,59,95
77658,note_off,2,0,0,,1,,,74,127
77659,note_on,1,0,0,,1,,,72,127
77659,note_on,0,0,0,,0,,,60,95
77772,note_off,113,0,0,,1,,,72,127
77773,note_on,1,0,0,,1,,,71,127
77883,note_off,110,0,0,,0,,,60,95
77883,note_off,0,0,0,,0,,,67,95
77885,note_off,2,0,0,,1,,,71,127
77886,note_on,1,0,0,,1,,,69,127
77886,note_on,0,0,0,,0,,,66,95
77886,note_on,0,0,0,,0,,,62,95
78111,note_off,225,0,0,,0,,,62,95
78111,note_off,0,0,0,,0,,,66,95
78115,note_on,4,0,0,,0,,,67,95
78115,note_on,0,0,0,,0,,,50,95
78340,note_off,225,0,0,,0,,,50,95
78340,note_off,0,0,0,,0,,,67,95
78342,note_off,2,0,0,,1,,,69,127
78343,note_on,1,0,0,,0,,,69,95
78343,note_on,0,0,0,,0,,,50,95
78568,note_off,225,0,0,,0,,,50,95
78572,note_on,4,0,0,,1,,,74,127
78572,note_on,0,0,0,,0,,,66,95
78572,note_on,0,0,0,,0,,,50,95
78797,note_off,225,0,0,,0,,,50,95
78797,note_off,0,0,0,,0,,,66,95
78797,note_off,0,0,0,,0,,,69,95
78799,note_off,2,0,0,,1,,,74,127
78800,note_on,1,0,0,,1,,,74,127
78800,note_on,0,0,0,,0,,,67,95
78800,note_on,0,0,0,,0,,,52,95
79025,note_off,225,0,0,,0,,,52,95
79027,note_off,2,0,0,,1,,,74,127
79028,note_on,1,0,0,,1,,,73,127
79028,note_on,0,0,0,,0,,,52,95
79253,note_off,225,0,0,,0,,,52,95
79253,note_off,0,0,0,,0,,,67,95
79255,note_off,2,0,0,,1,,,73,127
79256,note_on,1,0,0,,1,,,67,127
79256,note_on,0,0,0,,0,,,67,95
79256,note_on,0,0,0,,0,,,52,95
79481,note_off,225,0,0,,0,,,52,95
79483,note_off,2,0,0,,1,,,67,127
79484,note_on,1,0,0,,1,,,76,127
79484,note_on,0,0,0,,0,,,52,95
79709,note_off,225,0,0,,0,,,52,95
79709,note_off,0,0,0,,0,,,67,95
79711,note_off,2,0,0,,1,,,76,127
79712,note_on,1,0,0,,1,,,76,127
79712,note_on,0,0,0,,0,,,69,95
79712,note_on,0,0,0,,0,,,54,95
79937,note_off,225,0,0,,0,,,54,95
79939,note_off,2,0,0,,1,,,76,127
79940,note_on,1,0,0,,1,,,74,127
79940,note_on,0,0,0,,0,,,54,95
80165,note_off,225,0,0,,0,,,54,95
80165,note_off,0,0,0,,0,,,69,95
80167,note_off,2,0,0,,1,,,74,127
80168,note_on,1,0,0,,1,,,69,127
80168,note_on,0,0,0,,0,,,69,95
80168,note_on,0,0,0,,0,,,54,95
80393,note_off,225,0,0,,0,,,54,95
80395,note_off,2,0,0,,1,,,69,127
80396,note_on,1,0,0,,1,,,78,127
80396,note_on,0,0,0,,0,,,54,95
80621,note_off,225,0,0,,0,,,54,95
80621,note_off,0,0,0,,0,,,69,95
80623,note_off,2,0,0,,1,,,78,127
80624,note_on,1,0,0,,1,,,78,127
80624,note_on,0,0,0,,0,,,71,95
80624,note_on,0,0,0,,0,,,55,95
80849,note_off,225,0,0,,0,,,55,95
80851,note_off,2,0,0,,1,,,78,127
80852,note_on,1,0,0,,1,,,76,127
80852,note_on,0,0,0,,0,,,55,95
81077,note_off,225,0,0,,0,,,55,95
81079,note_off,2,0,0,,1,,,76,127
81080,note_on,1,0,0,,1,,,75,127
81080,note_on,0,0,0,,0,,,55,95
81305,note_off,225,0,0,,0,,,55,95
81307,note_off,2,0,0,,1,,,75,127
81308,note_on,1,0,0,,1,,,76,127
81308,note_on,0,0,0,,0,,,55,95
81533,note_off,225,0,0,,0,,,55,95
81533,note_off,0,0,0,,0,,,71,95
81535,note_off,2,0,0,,1,,,76,127
81536,note_on,1,0,0,,1,,,81,127
81536,note_on,0,0,0,,0,,,69,95
81536,note_on,0,0,0,,0,,,54,95
81761,note_off,225,0,0,,0,,,54,95
81763,note_off,2,0,0,,1,,,81,127
81764,note_on,1,0,0,,1,,,74,127
81764,note_on,0,0,0,,0,,,54,95
81989,note_off,225,0,0,,0,,,54,95
81991,note_off,2,0,0,,1,,,74,127
81992,note_on,1,0,0,,1,,,73,127
81992,note_on,0,0,0,,0,,,54,95
82217,note_off,225,0,0,,0,,,54,95
82219,note_off,2,0,0,,1,,,73,127
82220,note_on,1,0,0,,1,,,74,127
82220,note_on,0,0,0,,0,,,54,95
82445,note_off,225,0,0,,0,,,54,95
82445,note_off,0,0,0,,0,,,69,95
82447,note_off,2,0,0,,1,,,74,127
82448,note_on,1,0,0,,1,,,79,127
82448,note_on,0,0,0,,0,,,67,95
82448,note_on,0,0,0,,0,,,52,95
82673,note_off,225,0,0,,0,,,52,95
82675,note_off,2,0,0,,1,,,79,127
82676,note_on,1,0,0,,1,,,73,127
82676,note_on,0,0,0,,0,,,52,95
82901,note_off,225,0,0,,0,,,52,95
82903,note_off,2,0,0,,1,,,73,127
82904,note_on,1,0,0,,1,,,71,127
82904,note_on,0,0,0,,0,,,52,95
83129,note_off,225,0,0,,0,,,52,95
83131,note_off,2,0,0,,1,,,71,127
83132,note_on,1,0,0,,1,,,73,127
83132,note_on,0,0,0,,0,,,52,95
83357,note_off,225,0,0,,0,,,52,95
83357,note_off,0,0,0,,0,,,67,95
83359,note_off,2,0,0,,1,,,73,127
83360,note_on,1,0,0,,1,,,78,127
83360,note_on,0,0,0,,0,,,66,95
83360,note_on,0,0,0,,0,,,50,95
83585,note_off,225,0,0,,0,,,50,95
83587,note_off,2,0,0,,1,,,78,127
83588,note_on,1,0,0,,1,,,71,127
83588,note_on,0,0,0,,0,,,50,95
83813,note_off,225,0,0,,0,,,50,95
83815,note_off,2,0,0,,1,,,71,127
83816,note_on,1,0,0,,1,,,70,127
83816,note_on,0,0,0,,0,,,50,95
84041,note_off,225,0,0,,0,,,50,95
84043,note_off,2,0,0,,1,,,70,127
84044,note_on,1,0,0,,1,,,71,127
84044,note_on,0,0,0,,0,,,50,95
84269,note_off,225,0,0,,0,,,50,95
84269,note_off,0,0,0,,0,,,66,95
84271,note_off,2,0,0,,1,,,71,127
84272,note_on,1,0,0,,1,,,76,127
84272,note_on,0,0,0,,0,,,64,95
84272,note_on,0,0,0,,0,,,49,95
84497,note_off,225,0,0,,0,,,49,95
84499,note_off,2,0,0,,1,,,76,127
84500,note_on,1,0,0,,1,,,69,127
84500,note_on,0,0,0,,0,,,49,95
84725,note_off,225,0,0,,0,,,49,95
84727,note_off,2,0,0,,1,,,69,127
84728,note_on,1,0,0,,1,,,68,127
84728,note_on,0,0,0,,0,,,49,95
84953,note_off,225,0,0,,0,,,49,95
84955,note_off,2,0,0,,1,,,68,127
84956,note_on,1,0,0,,1,,,69,127
84956,note_on,0,0,0,,0,,,49,95
85181,note_off,225,0,0,,0,,,49,95
85181,note_off,0,0,0,,0,,,64,95
85183,note_off,2,0,0,,1,,,69,127
85184,note_on,1,0,0,,1,,,74,127
85184,note_on,0,0,0,,0,,,62,95
85184,note_on,0,0,0,,0,,,47,95
85409,note_off,225,0,0,,0,,,47,95
85411,note_off,2,0,0,,1,,,74,127
85412,note_on,1,0,0,,1,,,67,127
85412,note_on,0,0,0,,0,,,47,95
85637,note_off,225,0,0,,0,,,47,95
85639,note_off,2,0,0,,1,,,67,127
85640,note_on,1,0,0,,1,,,66,127
85640,note_on,0,0,0,,0,,,47,95
85865,note_off,225,0,0,,0,,,47,95
85867,note_off,2,0,0,,1,,,66,127
85868,note_on,1,0,0,,1,,,67,127
85868,note_on,0,0,0,,0,,,47,95
86093,note_off,225,0,0,,0,,,47,95
86093,note_off,0,0,0,,0,,,62,95
86095,note_off,2,0,0,,1,,,67,127
86096,note_on,1,0,0,,0,,,64,95
86096,note_on,0,0,0,,0,,,45,95
86321,note_off,225,0,0,,0,,,45,95
86321,note_off,0,0,0,,0,,,64,95
86325,note_on,4,0,0,,1,,,79,127
86325,note_on,0,0,0,,0,,,76,95
86325,note_on,0,0,0,,0,,,45,95
86550,note_off,225,0,0,,0,,,45,95
86552,note_off,2,0,0,,1,,,79,127
86553,note_on,1,0,0,,1,,,79,127
86553,note_on,0,0,0,,0,,,45,95
86778,note_off,225,0,0,,0,,,45,95
86778,note_off,0,0,0,,0,,,76,95
86780,note_off,2,0,0,,1,,,79,127
86781,note_on,1,0,0,,1,,,78,127
86781,note_on,0,0,0,,0,,,74,95
86781,note_on,0,0,0,,0,,,45,95
87006,note_off,225,0,0,,0,,,45,95
87008,note_off,2,0,0,,1,,,78,127
87009,note_on,1,0,0,,1,,,78,127
87009,note_on,0,0,0,,0,,,45,95
87234,note_off,225,0,0,,0,,,45,95
87234,note_off,0,0,0,,0,,,74,95
87236,note_off,2,0,0,,1,,,78,127
87237,note_on,1,0,0,,1,,,76,127
87237,note_on,0,0,0,,0,,,73,95
87237,note_on,0,0,0,,0,,,45,95
87462,note_off,225,0,0,,0,,,45,95
87464,note_off,2,0,0,,1,,,76,127
87465,note_on,1,0,0,,1,,,76,127
87465,note_on,0,0,0,,0,,,45,95
87690,note_off,225,0,0,,0,,,45,95
87690,note_off,0,0,0,,0,,,73,95
87692,note_off,2,0,0,,1,,,76,127
87693,note_on,1,0,0,,1,,,74,127
87693,note_on,0,0,0,,0,,,71,95
87693,note_on,0,0,0,,0,,,45,95
87918,note_off,225,0,0,,0,,,45,95
87918,note_off,0,0,0,,0,,,71,95
87920,note_off,2,0,0,,1,,,74,127
87921,note_on,1,0,0,,1,,,73,127
87921,note_on,0,0,0,,0,,,69,95
87921,note_on,0,0,0,,0,,,45,95
88146,note_off,225,0,0,,0,,,45,95
88146,note_off,0,0,0,,0,,,69,95
88148,note_off,2,0,0,,1,,,73,127
88149,note_on,1,0,0,,1,,,67,127
88149,note_on,0,0,0,,0,,,64,95
88149,note_on,0,0,0,,0,,,45,95
88374,note_off,225,0,0,,0,,,45,95
88376,note_off,2,0,0,,1,,,67,127
88377,note_on,1,0,0,,1,,,67,127
88377,note_on,0,0,0,,0,,,45,95
88602,note_off,225,0,0,,0,,,45,95
88602,note_off,0,0,0,,0,,,64,95
88604,note_off,2,0,0,,1,,,67,127
88605,note_on,1,0,0,,1,,,66,127
88605,note_on,0,0,0,,0,,,62,95
88605,note_on,0,0,0,,0,,,45,95
88830,note_off,225,0,0,,0,,,45,95
88832,note_off,2,0,0,,1,,,66,127
88833,note_on,1,0,0,,1,,,66,127
88833,note_on,0,0,0,,0,,,45,95
89058,note_off,225,0,0,,0,,,45,95
89058,note_off,0,0,0,,0,,,62,95
89060,note_off,2,0,0,,1,,,66,127
89061,note_on,1,0,0,,1,,,64,127
89061,note_on,0,0,0,,0,,,61,95
89061,note_on,0,0,0,,0,,,45,95
89286,note_off,225,0,0,,0,,,45,95
89288,note_off,2,0,0,,1,,,64,127
89289,note_on,1,0,0,,1,,,64,127
89289,note_on,0,0,0,,0,,,45,95
89514,note_off,225,0,0,,0,,,45,95
89514,note_off,0,0,0,,0,,,61,95
89516,note_off,2,0,0,,1,,,64,127
89517,note_on,1,0,0,,1,,,62,127
89517,note_on,0,0,0,,0,,,59,95
89517,note_on,0,0,0,,0,,,45,95
89742,note_off,225,0,0,,0,,,45,95
89742,note_off,0,0,0,,0,,,59,95
89744,note_off,2,0,0,,1,,,62,127
89745,note_on,1,0,0,,1,,,69,127
89745,note_on,0,0,0,,0,,,57,95
89745,note_on,0,0,0,,0,,,45,95
90198,note_off,453,0,0,,0,,,45,95
90198,note_off,0,0,0,,0,,,57,95
90200,note_off,2,0,0,,1,,,69,127
90201,note_on,1,0,0,,1,,,73,127
90201,note_on,0,0,0,,0,,,57,95
90201,note_on,0,0,0,,0,,,45,95
90654,note_off,453,0,0,,0,,,45,95
90654,note_off,0,0,0,,0,,,57,95
90656,note_off,2,0,0,,1,,,73,127
90657,note_on,1,0,0,,1,,,76,127
90657,note_on,0,0,0,,0,,,57,95
90657,note_on,0,0,0,,0,,,45,95
91110,note_off,453,0,0,,0,,,45,95
91110,note_off,0,0,0,,0,,,57,95
91112,note_off,2,0,0,,1,,,76,127
91113,note_on,1,0,0,,1,,,81,127
91113,note_on,0,0,0,,0,,,57,95
91113,note_on,0,0,0,,0,,,45,95
91566,note_off,453,0,0,,0,,,45,95
91566,note_off,0,0,0,,0,,,57,95
91568,note_off,2,0,0,,1,,,81,127
91569,note_on,1,0,0,,1,,,69,127
91569,note_on,0,0,0,,0,,,45,95
91794,note_off,225,0,0,,0,,,45,95
91796,note_off,2,0,0,,1,,,69,127
91797,note_on,1,0,0,,1,,,81,127
91797,note_on,0,0,0,,0,,,78,95
91797,note_on,0,0,0,,0,,,57,95
92022,note_off,225,0,0,,0,,,57,95
92024,note_off,2,0,0,,1,,,81,127
92025,note_on,1,0,0,,1,,,81,127
92025,note_on,0,0,0,,0,,,57,95
92250,note_off,225,0,0,,0,,,57,95
92250,note_off,0,0,0,,0,,,78,95
92252,note_off,2,0,0,,1,,,81,127
92253,note_on,1,0,0,,1,,,79,127
92253,note_on,0,0,0,,0,,,76,95
92253,note_on,0,0,0,,0,,,57,95
92478,note_off,225,0,0,,0,,,57,95
92480,note_off,2,0,0,,1,,,79,127
92481,note_on,1,0,0,,1,,,79,127
92481,note_on,0,0,0,,0,,,57,95
92706,note_off,225,0,0,,0,,,57,95
92706,note_off,0,0,0,,0,,,76,95
92708,note_off,2,0,0,,1,,,79,127
92709,note_on,1,0,0,,1,,,78,127
92709,note_on,0,0,0,,0,,,74,95
92709,note_on,0,0,0,,0,,,57,95
92934,note_off,225,0,0,,0,,,57,95
92936,note_off,2,0,0,,1,,,78,127
92937,note_on,1,0,0,,1,,,78,127
92937,note_on,0,0,0,,0,,,57,95
93162,note_off,225,0,0,,0,,,57,95
93162,note_off,0,0,0,,0,,,74,95
93164,note_off,2,0,0,,1,,,78,127
93165,note_on,1,0,0,,1,,,76,127
93165,note_on,0,0,0,,0,,,73,95
93165,note_on,0,0,0,,0,,,57,95
93390,note_off,225,0,0,,0,,,57,95
93390,note_off,0,0,0,,0,,,73,95
93392,note_off,2,0,0,,1,,,76,127
93393,note_on,1,0,0,,0,,,55,95
93618,note_off,225,0,0,,0,,,55,95
93622,note_on,4,0,0,,1,,,79,127
93622,note_on,0,0,0,,0,,,76,95
93622,note_on,0,0,0,,0,,,55,95
93847,note_off,225,0,0,,0,,,55,95
93849,note_off,2,0,0,,1,,,79,127
93850,note_on,1,0,0,,1,,,79,127
93850,note_on,0,0,0,,0,,,55,95
94075,note_off,225,0,0,,0,,,55,95
94075,note_off,0,0,0,,0,,,76,95
94077,note_off,2,0,0,,1,,,79,127
94078,note_on,1,0,0,,1,,,78,127
94078,note_on,0,0,0,,0,,,74,95
94078,note_on,0,0,0,,0,,,55,95
94303,note_off,225,0,0,,0,,,55,95
94305,note_off,2,0,0,,1,,,78,127
94306,note_on,1,0,0,,1,,,78,127
94306,note_on,0,0,0,,0,,,55,95
94531,note_off,225,0,0,,0,,,55,95
94531,note_off,0,0,0,,0,,,74,95
94533,note_off,2,0,0,,1,,,78,127
94534,note_on,1,0,0,,1,,,76,127
94534,note_on,0,0,0,,0,,,73,95
94534,note_on,0,0,0,,0,,,55,95
94759,note_off,225,0,0,,0,,,55,95
94761,note_off,2,0,0,,1,,,76,127
94762,note_on,1,0,0,,1,,,76,127
94762,note_on,0,0,0,,0,,,55,95
94987,note_off,225,0,0,,0,,,55,95
94987,note_off,0,0,0,,0,,,73,95
94989,note_off,2,0,0,,1,,,76,127
94990,note_on,1,0,0,,1,,,74,127
94990,note_on,0,0,0,,0,,,71,95
94990,note_on,0,0,0,,0,,,55,95
95215,note_off,225,0,0,,0,,,55,95
95215,note_off,0,0,0,,0,,,71,95
95217,note_off,2,0,0,,1,,,74,127
95218,note_on,1,0,0,,0,,,69,95
95218,note_on,0,0,0,,0,,,54,95
95443,note_off,225,0,0,,0,,,54,95
95447,note_on,4,0,0,,1,,,66,127
95447,note_on,0,0,0,,0,,,50,95
95672,note_off,225,0,0,,0,,,50,95
95672,note_off,0,0,0,,0,,,69,95
95674,note_off,2,0,0,,1,,,66,127
95675,note_on,1,0,0,,1,,,67,127
95675,note_on,0,0,0,,0,,,62,95
95675,note_on,0,0,0,,0,,,52,95
95900,note_off,225,0,0,,0,,,52,95
95902,note_off,2,0,0,,1,,,67,127
95903,note_on,1,0,0,,1,,,69,127
95903,note_on,0,0,0,,0,,,54,95
96128,note_off,225,0,0,,0,,,54,95
96128,note_off,0,0,0,,0,,,62,95
96130,note_off,2,0,0,,1,,,69,127
96131,note_on,1,0,0,,1,,,71,127
96131,note_on,0,0,0,,0,,,55,95
96356,note_off,225,0,0,,0,,,55,95
96358,note_off,2,0,0,,1,,,71,127
96359,note_on,1,0,0,,1,,,74,127
96359,note_on,0,0,0,,0,,,71,95
96359,note_on,0,0,0,,0,,,55,95
96584,note_off,225,0,0,,0,,,55,95
96584,note_off,0,0,0,,0,,,71,95
96586,note_off,2,0,0,,1,,,74,127
96587,note_on,1,0,0,,1,,,73,127
96587,note_on,0,0,0,,0,,,69,95
96587,note_on,0,0,0,,0,,,55,95
96812,note_off,225,0,0,,0,,,55,95
96812,note_off,0,0,0,,0,,,69,95
96814,note_off,2,0,0,,1,,,73,127
96815,note_on,1,0,0,,1,,,71,127
96815,note_on,0,0,0,,0,,,67,95
96815,note_on,0,0,0,,0,,,55,95
97040,note_off,225,0,0,,0,,,55,95
97040,note_off,0,0,0,,0,,,67,95
97042,note_off,2,0,0,,1,,,71,127
97043,note_on,1,0,0,,0,,,69,95
97043,note_on,0,0,0,,0,,,57,95
97268,note_off,225,0,0,,0,,,57,95
97272,note_on,4,0,0,,1,,,73,127
97272,note_on,0,0,0,,0,,,45,95
97497,note_off,225,0,0,,0,,,45,95
97499,note_off,2,0,0,,1,,,73,127
97500,note_on,1,0,0,,1,,,74,127
97500,note_on,0,0,0,,0,,,47,95
97725,note_off,225,0,0,,0,,,47,95
97727,note_off,2,0,0,,1,,,74,127
97728,note_on,1,0,0,,1,,,76,127
97728,note_on,0,0,0,,0,,,49,95
97953,note_off,225,0,0,,0,,,49,95
97953,note_off,0,0,0,,0,,,69,95
97955,note_off,2,0,0,,1,,,76,127
97956,note_on,1,0,0,,1,,,78,127
97956,note_on,0,0,0,,0,,,50,95
98181,note_off,225,0,0,,0,,,50,95
98183,note_off,2,0,0,,1,,,78,127
98184,note_on,1,0,0,,1,,,81,127
98184,note_on,0,0,0,,0,,,78,95
98184,note_on,0,0,0,,0,,,50,95
98409,note_off,225,0,0,,0,,,50,95
98409,note_off,0,0,0,,0,,,78,95
98411,note_off,2,0,0,,1,,,81,127
98412,note_on,1,0,0,,1,,,79,127
98412,note_on,0,0,0,,0,,,76,95
98412,note_on,0,0,0,,0,,,50,95
98637,note_off,225,0,0,,0,,,50,95
98637,note_off,0,0,0,,0,,,76,95
98639,note_off,2,0,0,,1,,,79,127
98640,note_on,1,0,0,,1,,,78,127
98640,note_on,0,0,0,,0,,,74,95
98640,note_on,0,0,0,,0,,,50,95
98865,note_off,225,0,0,,0,,,50,95
98865,note_off,0,0,0,,0,,,74,95
98867,note_off,2,0,0,,1,,,78,127
98868,note_on,1,0,0,,1,,,83,127
98868,note_on,0,0,0,,0,,,71,95
98868,note_on,0,0,0,,0,,,55,95
99093,note_off,225,0,0,,0,,,55,95
99095,note_off,2,0,0,,1,,,83,127
99096,note_on,1,0,0,,1,,,73,127
99096,note_on,0,0,0,,0,,,55,95
99321,note_off,225,0,0,,0,,,55,95
99323,note_off,2,0,0,,1,,,73,127
99324,note_on,1,0,0,,1,,,73,127
99324,note_on,0,0,0,,0,,,55,95
99549,note_off,225,0,0,,0,,,55,95
99551,note_off,2,0,0,,1,,,73,127
99552,note_on,1,0,0,,1,,,74,127
99552,note_on,0,0,0,,0,,,55,95
99777,note_off,225,0,0,,0,,,55,95
99777,note_off,0,0,0,,0,,,71,95
99779,note_off,2,0,0,,1,,,74,127
99780,note_on,1,0,0,,0,,,55,95
100005,note_off,225,0,0,,0,,,55,95
100009,note_on,4,0,0,,1,,,67,127
100009,note_on,0,0,0,,0,,,67,95
100009,note_on,0,0,0,,0,,,55,95
100234,note_off,225,0,0,,0,,,55,95
100234,note_off,0,0,0,,0,,,67,95
100236,note_off,2,0,0,,1,,,67,127
100237,note_on,1,0,0,,1,,,66,127
100237,note_on,0,0,0,,0,,,66,95
100237,note_on,0,0,0,,0,,,55,95
100462,note_off,225,0,0,,0,,,55,95
100462,note_off,0,0,0,,0,,,66,95
100464,note_off,2,0,0,,1,,,66,127
100465,note_on,1,0,0,,1,,,64,127
100465,note_on,0,0,0,,0,,,64,95
100465,note_on,0,0,0,,0,,,55,95
100690,note_off,225,0,0,,0,,,55,95
100690,note_off,0,0,0,,0,,,64,95
100692,note_off,2,0,0,,1,,,64,127
100693,note_on,1,0,0,,1,,,81,127
100693,note_on,0,0,0,,0,,,62,95
100693,note_on,0,0,0,,0,,,54,95
100918,note_off,225,0,0,,0,,,54,95
100920,note_off,2,0,0,,1,,,81,127
100921,note_on,1,0,0,,1,,,73,127
100921,note_on,0,0,0,,0,,,54,95
101146,note_off,225,0,0,,0,,,54,95
101148,note_off,2,0,0,,1,,,73,127
101149,note_on,1,0,0,,1,,,73,127
101149,note_on,0,0,0,,0,,,54,95
101374,note_off,225,0,0,,0,,,54,95
101376,note_off,2,0,0,,1,,,73,127
101377,note_on,1,0,0,,1,,,74,127
101377,note_on,0,0,0,,0,,,54,95
101602,note_off,225,0,0,,0,,,54,95
101602,note_off,0,0,0,,0,,,62,95
101604,note_off,2,0,0,,1,,,74,127
101833,note_on,229,0,0,,1,,,66,127
101833,note_on,0,0,0,,0,,,66,95
101833,note_on,0,0,0,,0,,,54,95
102058,note_off,225,0,0,,0,,,54,95
102058,note_off,0,0,0,,0,,,66,95
102060,note_off,2,0,0,,1,,,66,127
102061,note_on,1,0,0,,1,,,64,127
102061,note_on,0,0,0,,0,,,64,95
102061,note_on,0,0,0,,0,,,54,95
102286,note_off,225,0,0,,0,,,54,95
102286,note_off,0,0,0,,0,,,64,95
102288,note_off,2,0,0,,1,,,64,127
102289,note_on,1,0,0,,1,,,62,127
102289,note_on,0,0,0,,0,,,62,95
102289,note_on,0,0,0,,0,,,54,95
102514,note_off,225,0,0,,0,,,54,95
102514,note_off,0,0,0,,0,,,62,95
102516,note_off,2,0,0,,1,,,62,127
102517,note_on,1,0,0,,1,,,74,127
102517,note_on,0,0,0,,0,,,54,95
102742,note_off,225,0,0,,0,,,54,95
102744,note_off,2,0,0,,1,,,74,127
102745,note_on,1,0,0,,1,,,78,127
102745,note_on,0,0,0,,0,,,69,95
102745,note_on,0,0,0,,0,,,54,95
102970,note_off,225,0,0,,0,,,54,95
102970,note_off,0,0,0,,0,,,69,95
102972,note_off,2,0,0,,1,,,78,127
102973,note_on,1,0,0,,1,,,76,127
102973,note_on,0,0,0,,0,,,67,95
102973,note_on,0,0,0,,0,,,52,95
103198,note_off,225,0,0,,0,,,52,95
103198,note_off,0,0,0,,0,,,67,95
103200,note_off,2,0,0,,1,,,76,127
103201,note_on,1,0,0,,1,,,74,127
103201,note_on,0,0,0,,0,,,66,95
103201,note_on,0,0,0,,0,,,50,95
103426,note_off,225,0,0,,0,,,50,95
103426,note_off,0,0,0,,0,,,66,95
103428,note_off,2,0,0,,1,,,74,127
103429,note_on,1,0,0,,1,,,76,127
103429,note_on,0,0,0,,0,,,71,95
103429,note_on,0,0,0,,0,,,55,95
103882,note_off,453,0,0,,0,,,55,95
103882,note_off,0,0,0,,0,,,71,95
103884,note_off,2,0,0,,1,,,76,127
103885,note_on,1,0,0,,1,,,73,127
103885,note_on,0,0,0,,0,,,69,95
103885,note_on,0,0,0,,0,,,57,95
104338,note_off,453,0,0,,0,,,57,95
104338,note_off,0,0,0,,0,,,69,95
104340,note_off,2,0,0,,1,,,73,127
104341,note_on,1,0,0,,1,,,81,127
104568,note_off,227,0,0,,1,,,81,127
104569,note_on,1,0,0,,1,,,66,127
104569,note_on,0,0,0,,0,,,54,95
104794,note_off,225,0,0,,0,,,54,95
104796,note_off,2,0,0,,1,,,66,127
104797,note_on,1,0,0,,1,,,64,127
104797,note_on,0,0,0,,0,,,52,95
105022,note_off,225,0,0,,0,,,52,95
105024,note_off,2,0,0,,1,,,64,127
105025,note_on,1,0,0,,1,,,62,127
105025,note_on,0,0,0,,0,,,50,95
105250,note_off,225,0,0,,0,,,50,95
105252,note_off,2,0,0,,1,,,62,127
105253,note_on,1,0,0,,1,,,76,127
105253,note_on,0,0,0,,0,,,71,95
105253,note_on,0,0,0,,0,,,55,95
105706,note_off,453,0,0,,0,,,55,95
105706,note_off,0,0,0,,0,,,71,95
105708,note_off,2,0,0,,1,,,76,127
105709,note_on,1,0,0,,1,,,73,127
105709,note_on,0,0,0,,0,,,69,95
105709,note_on,0,0,0,,0,,,57,95
106162,note_off,453,0,0,,0,,,57,95
106162,note_off,0,0,0,,0,,,69,95
106164,note_off,2,0,0,,1,,,73,127
106165,note_on,1,0,0,,1,,,81,127
106392,note_off,227,0,0,,1,,,81,127
106393,note_on,1,0,0,,1,,,66,127
106393,note_on,0,0,0,,0,,,54,95
106618,note_off,225,0,0,,0,,,54,95
106620,note_off,2,0,0,,1,,,66,127
106621,note_on,1,0,0,,1,,,64,127
106621,note_on,0,0,0,,0,,,52,95
106846,note_off,225,0,0,,0,,,52,95
106848,note_off,2,0,0,,1,,,64,127
106849,note_on,1,0,0,,1,,,62,127
106849,note_on,0,0,0,,0,,,50,95
107074,note_off,225,0,0,,0,,,50,95
107076,note_off,2,0,0,,1,,,62,127
107077,note_on,1,0,0,,1,,,76,127
107077,note_on,0,0,0,,0,,,67,95
107077,note_on,0,0,0,,0,,,55,95
107530,note_off,453,0,0,,0,,,55,95
107530,note_off,0,0,0,,0,,,67,95
107532,note_off,2,0,0,,1,,,76,127
107533,note_on,1,0,0,,1,,,73,127
107533,note_on,0,0,0,,0,,,69,95
107533,note_on,0,0,0,,0,,,57,95
107986,note_off,453,0,0,,0,,,57,95
107986,note_off,0,0,0,,0,,,69,95
107988,note_off,2,0,0,,1,,,73,127
107989,note_on,1,0,0,,1,,,74,127
107989,note_on,0,0,0,,0,,,62,95
107989,note_on,0,0,0,,0,,,50,95
108214,note_off,225,0,0,,0,,,50,95
108216,note_off,2,0,0,,1,,,74,127
108217,note_on,1,0,0,,1,,,66,127
108217,note_on,0,0,0,,0,,,50,95
108442,note_off,225,0,0,,0,,,50,95
108444,note_off,2,0,0,,1,,,66,127
108445,note_on,1,0,0,,1,,,67,127
108445,note_on,0,0,0,,0,,,50,95
108670,note_off,225,0,0,,0,,,50,95
108672,note_off,2,0,0,,1,,,67,127
108673,note_on,1,0,0,,1,,,69,127
108673,note_on,0,0,0,,0,,,50,95
108898,note_off,225,0,0,,0,,,50,95
108898,note_off,0,0,0,,0,,,62,95
108900,note_off,2,0,0,,1,,,69,127
108901,note_on,1,0,0,,1,,,71,127
108901,note_on,0,0,0,,0,,,55,95
109126,note_off,225,0,0,,0,,,55,95
109128,note_off,2,0,0,,1,,,71,127
109129,note_on,1,0,0,,1,,,74,127
109129,note_on,0,0,0,,0,,,71,95
109129,note_on,0,0,0,,0,,,55,95
109354,note_off,225,0,0,,0,,,55,95
109354,note_off,0,0,0,,0,,,71,95
109356,note_off,2,0,0,,1,,,74,127
109357,note_on,1,0,0,,1,,,73,127
109357,note_on,0,0,0,,0,,,69,95
109357,note_on,0,0,0,,0,,,55,95
109582,note_off,225,0,0,,0,,,55,95
109582,note_off,0,0,0,,0,,,69,95
109584,note_off,2,0,0,,1,,,73,127
109585,note_on,1,0,0,,1,,,71,127
109585,note_on,0,0,0,,0,,,67,95
109585,note_on,0,0,0,,0,,,55,95
109810,note_off,225,0,0,,0,,,55,95
109810,note_off,0,0,0,,0,,,67,95
109812,note_off,2,0,0,,1,,,71,127
109813,note_on,1,0,0,,1,,,69,127
109813,note_on,0,0,0,,0,,,54,95
110038,note_off,225,0,0,,0,,,54,95
110040,note_off,2,0,0,,1,,,69,127
110041,note_on,1,0,0,,1,,,66,127
110041,note_on,0,0,0,,0,,,66,95
110041,note_on,0,0,0,,0,,,54,95
110266,note_off,225,0,0,,0,,,54,95
110266,note_off,0,0,0,,0,,,66,95
110268,note_off,2,0,0,,1,,,66,127
110269,note_on,1,0,0,,1,,,64,127
110269,note_on,0,0,0,,0,,,64,95
110269,note_on,0,0,0,,0,,,52,95
110494,note_off,225,0,0,,0,,,52,95
110494,note_off,0,0,0,,0,,,64,95
110496,note_off,2,0,0,,1,,,64,127
110497,note_on,1,0,0,,1,,,62,127
110497,note_on,0,0,0,,0,,,62,95
110497,note_on,0,0,0,,0,,,50,95
110722,note_off,225,0,0,,0,,,50,95
110722,note_off,0,0,0,,0,,,62,95
110724,note_off,2,0,0,,1,,,62,127
110725,note_on,1,0,0,,1,,,67,127
110725,note_on,0,0,0,,0,,,67,95
110725,note_on,0,0,0,,0,,,55,95
111178,note_off,453,0,0,,0,,,55,95
111178,note_off,0,0,0,,0,,,67,95
111180,note_off,2,0,0,,1,,,67,127
111181,note_on,1,0,0,,1,,,69,127
111181,note_on,0,0,0,,0,,,69,95
111181,note_on,0,0,0,,0,,,57,95
111634,note_off,453,0,0,,0,,,57,95
111634,note_off,0,0,0,,0,,,69,95
111636,note_off,2,0,0,,1,,,69,127
111637,note_on,1,0,0,,1,,,62,127
111637,note_on,0,0,0,,0,,,62,95
111637,note_on,0,0,0,,0,,,50,95
112287,note_off,650,0,0,,0,,,50,95
112287,note_off,0,0,0,,0,,,62,95
112287,note_off,0,0,0,,1,,,62,127
112549,note_on,262,0,0,,1,,,74,127
113004,note_off,455,0,0,,1,,,74,127
113005,note_on,1,0,0,,1,,,81,127
113460,note_off,455,0,0,,1,,,81,127
113461,note_on,1,0,0,,1,,,78,127
113461,note_on,0,0,0,,0,,,66,95
113461,note_on,0,0,0,,0,,,50,95
113914,note_off,453,0,0,,0,,,50,95
113914,note_off,0,0,0,,0,,,66,95
113916,note_off,2,0,0,,1,,,78,127
113917,note_on,1,0,0,,0,,,67,95
113917,note_on,0,0,0,,0,,,57,95
114145,note_on,228,0,0,,1,,,76,127
114370,note_off,225,0,0,,0,,,57,95
114370,note_off,0,0,0,,0,,,67,95
114372,note_off,2,0,0,,1,,,76,127
114373,note_on,1,0,0,,1,,,74,127
114373,note_on,0,0,0,,0,,,69,95
114373,note_on,0,0,0,,0,,,54,95
114600,note_off,227,0,0,,1,,,74,127
114601,note_on,1,0,0,,1,,,81,127
114826,note_off,225,0,0,,0,,,54,95
114826,note_off,0,0,0,,0,,,69,95
114828,note_off,2,0,0,,1,,,81,127
114829,note_on,1,0,0,,1,,,81,127
114829,note_on,0,0,0,,0,,,64,95
114829,note_on,0,0,0,,0,,,49,95
115056,note_off,227,0,0,,1,,,81,127
115057,note_on,1,0,0,,1,,,79,127
115282,note_off,225,0,0,,0,,,49,95
115282,note_off,0,0,0,,0,,,64,95
115284,note_off,2,0,0,,1,,,79,127
115285,note_on,1,0,0,,1,,,78,127
115285,note_on,0,0,0,,0,,,66,95
115285,note_on,0,0,0,,0,,,50,95
115738,note_off,453,0,0,,0,,,50,95
115738,note_off,0,0,0,,0,,,66,95
115740,note_off,2,0,0,,1,,,78,127
115741,note_on,1,0,0,,0,,,61,95
115741,note_on,0,0,0,,0,,,57,95
115969,note_on,228,0,0,,1,,,76,127
116194,note_off,225,0,0,,0,,,57,95
116194,note_off,0,0,0,,0,,,61,95
116196,note_off,2,0,0,,1,,,76,127
116197,note_on,1,0,0,,1,,,69,127
116197,note_on,0,0,0,,0,,,62,95
116197,note_on,0,0,0,,0,,,54,95
116424,note_off,227,0,0,,1,,,69,127
116425,note_on,1,0,0,,1,,,81,127
116650,note_off,225,0,0,,0,,,54,95
116650,note_off,0,0,0,,0,,,62,95
116652,note_off,2,0,0,,1,,,81,127
116653,note_on,1,0,0,,1,,,81,127
116653,note_on,0,0,0,,0,,,64,95
116653,note_on,0,0,0,,0,,,49,95
116880,note_off,227,0,0,,1,,,81,127
116881,note_on,1,0,0,,1,,,79,127
117106,note_off,225,0,0,,0,,,49,95
117106,note_off,0,0,0,,0,,,64,95
117108,note_off,2,0,0,,1,,,79,127
117109,note_on,1,0,0,,1,,,78,127
117109,note_on,0,0,0,,0,,,66,95
117109,note_on,0,0,0,,0,,,50,95
117222,note_off,113,0,0,,1,,,78,127
117223,note_on,1,0,0,,1,,,76,127
117333,note_off,110,0,0,,0,,,50,95
117335,note_off,2,0,0,,1,,,76,127
117336,note_on,1,0,0,,1,,,74,127
117336,note_on,0,0,0,,0,,,50,95
117561,note_off,225,0,0,,0,,,50,95
117561,note_off,0,0,0,,0,,,66,95
117563,note_off,2,0,0,,1,,,74,127
117564,note_on,1,0,0,,1,,,72,127
117564,note_on,0,0,0,,0,,,69,95
117564,note_on,0,0,0,,0,,,50,95
117789,note_off,225,0,0,,0,,,50,95
117793,note_on,4,0,0,,0,,,50,95
118018,note_off,225,0,0,,0,,,50,95
118022,note_on,4,0,0,,0,,,52,95
118247,note_off,225,0,0,,0,,,52,95
118249,note_off,2,0,0,,1,,,72,127
118250,note_on,1,0,0,,1,,,71,127
118250,note_on,0,0,0,,0,,,52,95
118475,note_off,225,0,0,,0,,,52,95
118475,note_off,0,0,0,,0,,,69,95
118477,note_off,2,0,0,,1,,,71,127
118478,note_on,1,0,0,,1,,,71,127
118478,note_on,0,0,0,,0,,,62,95
118478,note_on,0,0,0,,0,,,54,95
118703,note_off,225,0,0,,0,,,54,95
118705,note_off,2,0,0,,1,,,71,127
118706,note_on,1,0,0,,1,,,70,127
118706,note_on,0,0,0,,0,,,54,95
118931,note_off,225,0,0,,0,,,54,95
118931,note_off,0,0,0,,0,,,62,95
118933,note_off,2,0,0,,1,,,70,127
118934,note_on,1,0,0,,0,,,64,95
118934,note_on,0,0,0,,0,,,55,95
119159,note_off,225,0,0,,0,,,55,95
119163,note_on,4,0,0,,1,,,71,127
119163,note_on,0,0,0,,0,,,55,95
119388,note_off,225,0,0,,0,,,55,95
119390,note_off,2,0,0,,1,,,71,127
119391,note_on,1,0,0,,1,,,73,127
119391,note_on,0,0,0,,0,,,55,95
119616,note_off,225,0,0,,0,,,55,95
119618,note_off,2,0,0,,1,,,73,127
119619,note_on,1,0,0,,1,,,75,127
119619,note_on,0,0,0,,0,,,55,95
119844,note_off,225,0,0,,0,,,55,95
119844,note_off,0,0,0,,0,,,64,95
119846,note_off,2,0,0,,1,,,75,127
119847,note_on,1,0,0,,1,,,76,127
119847,note_on,0,0,0,,0,,,67,95
119847,note_on,0,0,0,,0,,,55,95
120072,note_off,225,0,0,,0,,,55,95
120072,note_off,0,0,0,,0,,,67,95
120074,note_off,2,0,0,,1,,,76,127
120075,note_on,1,0,0,,1,,,79,127
120075,note_on,0,0,0,,0,,,64,95
120075,note_on,0,0,0,,0,,,55,95
120300,note_off,225,0,0,,0,,,55,95
120300,note_off,0,0,0,,0,,,64,95
120302,note_off,2,0,0,,1,,,79,127
120303,note_on,1,0,0,,1,,,78,127
120303,note_on,0,0,0,,0,,,66,95
120303,note_on,0,0,0,,0,,,55,95
120528,note_off,225,0,0,,0,,,55,95
120528,note_off,0,0,0,,0,,,66,95
120530,note_off,2,0,0,,1,,,78,127
120531,note_on,1,0,0,,1,,,76,127
120531,note_on,0,0,0,,0,,,67,95
120531,note_on,0,0,0,,0,,,55,95
120756,note_off,225,0,0,,0,,,55,95
120756,note_off,0,0,0,,0,,,67,95
120758,note_off,2,0,0,,1,,,76,127
120759,note_on,1,0,0,,0,,,66,95
120759,note_on,0,0,0,,0,,,54,95
120984,note_off,225,0,0,,0,,,54,95
120988,note_on,4,0,0,,1,,,70,127
120988,note_on,0,0,0,,0,,,42,95
121213,note_off,225,0,0,,0,,,42,95
121215,note_off,2,0,0,,1,,,70,127
121216,note_on,1,0,0,,1,,,71,127
121216,note_on,0,0,0,,0,,,44,95
121441,note_off,225,0,0,,0,,,44,95
121443,note_off,2,0,0,,1,,,71,127
121444,note_on,1,0,0,,1,,,73,127
121444,note_on,0,0,0,,0,,,46,95
121669,note_off,225,0,0,,0,,,46,95
121669,note_off,0,0,0,,0,,,66,95
121671,note_off,2,0,0,,1,,,73,127
121672,note_on,1,0,0,,1,,,74,127
121672,note_on,0,0,0,,0,,,71,95
121672,note_on,0,0,0,,0,,,47,95
121897,note_off,225,0,0,,0,,,47,95
121897,note_off,0,0,0,,0,,,71,95
121899,note_off,2,0,0,,1,,,74,127
121900,note_on,1,0,0,,1,,,78,127
121900,note_on,0,0,0,,0,,,74,95
121900,note_on,0,0,0,,0,,,47,95
122125,note_off,225,0,0,,0,,,47,95
122125,note_off,0,0,0,,0,,,74,95
122127,note_off,2,0,0,,1,,,78,127
122128,note_on,1,0,0,,1,,,76,127
122128,note_on,0,0,0,,0,,,73,95
122128,note_on,0,0,0,,0,,,49,95
122353,note_off,225,0,0,,0,,,49,95
122353,note_off,0,0,0,,0,,,73,95
122355,note_off,2,0,0,,1,,,76,127
122356,note_on,1,0,0,,1,,,74,127
122356,note_on,0,0,0,,0,,,71,95
122356,note_on,0,0,0,,0,,,50,95
122581,note_off,225,0,0,,0,,,50,95
122581,note_off,0,0,0,,0,,,71,95
122583,note_off,2,0,0,,1,,,74,127
122584,note_on,1,0,0,,1,,,79,127
122584,note_on,0,0,0,,0,,,67,95
122584,note_on,0,0,0,,0,,,52,95
122809,note_off,225,0,0,,0,,,52,95
122811,note_off,2,0,0,,1,,,79,127
122812,note_on,1,0,0,,1,,,70,127
122812,note_on,0,0,0,,0,,,52,95
123037,note_off,225,0,0,,0,,,52,95
123039,note_off,2,0,0,,1,,,70,127
123040,note_on,1,0,0,,1,,,70,127
123040,note_on,0,0,0,,0,,,52,95
123265,note_off,225,0,0,,0,,,52,95
123267,note_off,2,0,0,,1,,,70,127
123268,note_on,1,0,0,,1,,,71,127
123268,note_on,0,0,0,,0,,,52,95
123493,note_off,225,0,0,,0,,,52,95
123493,note_off,0,0,0,,0,,,67,95
123495,note_off,2,0,0,,1,,,71,127
123496,note_on,1,0,0,,0,,,67,95
123496,note_on,0,0,0,,0,,,52,95
123724,note_on,228,0,0,,1,,,67,127
123949,note_off,225,0,0,,0,,,52,95
123949,note_off,0,0,0,,0,,,67,95
123951,note_off,2,0,0,,1,,,67,127
123952,note_on,1,0,0,,1,,,66,127
123952,note_on,0,0,0,,0,,,66,95
123952,note_on,0,0,0,,0,,,50,95
124177,note_off,225,0,0,,0,,,66,95
124179,note_off,2,0,0,,1,,,66,127
124180,note_on,1,0,0,,1,,,64,127
124180,note_on,0,0,0,,0,,,64,95
124405,note_off,225,0,0,,0,,,64,95
124405,note_off,0,0,0,,0,,,50,95
124407,note_off,2,0,0,,1,,,64,127
124408,note_on,1,0,0,,1,,,76,127
124408,note_on,0,0,0,,0,,,70,95
124408,note_on,0,0,0,,0,,,49,95
124861,note_off,453,0,0,,0,,,49,95
124861,note_off,0,0,0,,0,,,70,95
124863,note_off,2,0,0,,1,,,76,127
124864,note_on,1,0,0,,1,,,74,127
124864,note_on,0,0,0,,0,,,71,95
124864,note_on,0,0,0,,0,,,50,95
125317,note_off,453,0,0,,0,,,50,95
125317,note_off,0,0,0,,0,,,71,95
125319,note_off,2,0,0,,1,,,74,127
125320,note_on,1,0,0,,1,,,73,127
125320,note_on,0,0,0,,0,,,67,95
125320,note_on,0,0,0,,0,,,52,95
125773,note_off,453,0,0,,0,,,52,95
125773,note_off,0,0,0,,0,,,67,95
125775,note_off,2,0,0,,1,,,73,127
125776,note_on,1,0,0,,1,,,71,127
125776,note_on,0,0,0,,0,,,64,95
125776,note_on,0,0,0,,0,,,55,95
126229,note_off,453,0,0,,0,,,55,95
126229,note_off,0,0,0,,0,,,64,95
126231,note_off,2,0,0,,1,,,71,127
126232,note_on,1,0,0,,1,,,70,127
126232,note_on,0,0,0,,0,,,70,95
126232,note_on,0,0,0,,0,,,54,95
126457,note_off,225,0,0,,0,,,54,95
126457,note_off,0,0,0,,0,,,70,95
126459,note_off,2,0,0,,1,,,70,127
126460,note_on,1,0,0,,1,,,79,127
126460,note_on,0,0,0,,0,,,76,95
126460,note_on,0,0,0,,0,,,54,95
126685,note_off,225,0,0,,0,,,54,95
126687,note_off,2,0,0,,1,,,79,127
126688,note_on,1,0,0,,1,,,79,127
126688,note_on,0,0,0,,0,,,54,95
126913,note_off,225,0,0,,0,,,54,95
126913,note_off,0,0,0,,0,,,76,95
126915,note_off,2,0,0,,1,,,79,127
126916,note_on,1,0,0,,1,,,78,127
126916,note_on,0,0,0,,0,,,74,95
126916,note_on,0,0,0,,0,,,54,95
127141,note_off,225,0,0,,0,,,54,95
127143,note_off,2,0,0,,1,,,78,127
127144,note_on,1,0,0,,1,,,78,127
127144,note_on,0,0,0,,0,,,54,95
127369,note_off,225,0,0,,0,,,54,95
127369,note_off,0,0,0,,0,,,74,95
127371,note_off,2,0,0,,1,,,78,127
127372,note_on,1,0,0,,1,,,76,127
127372,note_on,0,0,0,,0,,,73,95
127372,note_on,0,0,0,,0,,,54,95
127597,note_off,225,0,0,,0,,,54,95
127599,note_off,2,0,0,,1,,,76,127
127600,note_on,1,0,0,,1,,,76,127
127600,note_on,0,0,0,,0,,,54,95
127825,note_off,225,0,0,,0,,,54,95
127825,note_off,0,0,0,,0,,,73,95
127827,note_off,2,0,0,,1,,,76,127
127828,note_on,1,0,0,,1,,,75,127
127828,note_on,0,0,0,,0,,,71,95
127828,note_on,0,0,0,,0,,,54,95
128053,note_off,225,0,0,,0,,,54,95
128053,note_off,0,0,0,,0,,,71,95
128055,note_off,2,0,0,,1,,,75,127
128056,note_on,1,0,0,,1,,,75,127
128056,note_on,0,0,0,,0,,,69,95
128056,note_on,0,0,0,,0,,,54,95
128509,note_off,453,0,0,,0,,,54,95
128509,note_off,0,0,0,,0,,,69,95
128511,note_off,2,0,0,,1,,,75,127
128512,note_on,1,0,0,,1,,,76,127
128512,note_on,0,0,0,,0,,,71,95
128512,note_on,0,0,0,,0,,,55,95
128965,note_off,453,0,0,,0,,,55,95
128965,note_off,0,0,0,,0,,,71,95
128967,note_off,2,0,0,,1,,,76,127
128968,note_on,1,0,0,,1,,,81,127
128968,note_on,0,0,0,,0,,,69,95
128968,note_on,0,0,0,,0,,,51,95
129421,note_off,453,0,0,,0,,,51,95
129421,note_off,0,0,0,,0,,,69,95
129423,note_off,2,0,0,,1,,,81,127
129424,note_on,1,0,0,,1,,,79,127
129424,note_on,0,0,0,,0,,,71,95
129424,note_on,0,0,0,,0,,,52,95
129877,note_off,453,0,0,,0,,,52,95
129877,note_off,0,0,0,,0,,,71,95
129879,note_off,2,0,0,,1,,,79,127
129880,note_on,1,0,0,,1,,,78,127
129880,note_on,0,0,0,,0,,,63,95
129880,note_on,0,0,0,,0,,,47,95
130105,note_off,225,0,0,,0,,,47,95
130107,note_off,2,0,0,,1,,,78,127
130108,note_on,1,0,0,,1,,,83,127
130108,note_on,0,0,0,,0,,,47,95
130333,note_off,225,0,0,,0,,,47,95
130335,note_off,2,0,0,,1,,,83,127
130336,note_on,1,0,0,,1,,,71,127
130336,note_on,0,0,0,,0,,,47,95
130561,note_off,225,0,0,,0,,,47,95
130565,note_on,4,0,0,,0,,,47,95
130790,note_off,225,0,0,,0,,,47,95
130792,note_off,2,0,0,,1,,,71,127
130793,note_on,1,0,0,,0,,,66,95
130793,note_on,0,0,0,,0,,,59,95
131018,note_off,225,0,0,,0,,,59,95
131022,note_on,4,0,0,,1,,,72,127
131022,note_on,0,0,0,,0,,,59,95
131247,note_off,225,0,0,,0,,,59,95
131249,note_off,2,0,0,,1,,,72,127
131250,note_on,1,0,0,,1,,,71,127
131250,note_on,0,0,0,,0,,,59,95
131475,note_off,225,0,0,,0,,,59,95
131477,note_off,2,0,0,,1,,,71,127
131478,note_on,1,0,0,,1,,,70,127
131478,note_on,0,0,0,,0,,,59,95
131698,note_off,220,0,0,,0,,,63,95
131703,note_off,5,0,0,,0,,,59,95
131705,note_off,2,0,0,,1,,,70,127
131706,note_on,1,0,0,,1,,,71,127
131706,note_on,0,0,0,,0,,,63,95
131706,note_on,0,0,0,,0,,,57,95
131931,note_off,225,0,0,,0,,,57,95
131933,note_off,2,0,0,,1,,,71,127
131934,note_on,1,0,0,,1,,,81,127
131934,note_on,0,0,0,,0,,,57,95
132159,note_off,225,0,0,,0,,,57,95
132161,note_off,2,0,0,,1,,,81,127
132162,note_on,1,0,0,,1,,,71,127
132162,note_on,0,0,0,,0,,,57,95
132387,note_off,225,0,0,,0,,,57,95
132391,note_on,4,0,0,,0,,,57,95
132611,note_off,220,0,0,,0,,,66,95
132616,note_off,5,0,0,,0,,,57,95
132618,note_off,2,0,0,,1,,,71,127
132619,note_on,1,0,0,,0,,,66,95
132619,note_on,0,0,0,,0,,,57,95
132844,note_off,225,0,0,,0,,,57,95
132848,note_on,4,0,0,,1,,,72,127
132848,note_on,0,0,0,,0,,,57,95
133073,note_off,225,0,0,,0,,,57,95
133075,note_off,2,0,0,,1,,,72,127
133076,note_on,1,0,0,,1,,,71,127
133076,note_on,0,0,0,,0,,,57,95
133301,note_off,225,0,0,,0,,,57,95
133303,note_off,2,0,0,,1,,,71,127
133304,note_on,1,0,0,,1,,,70,127
133304,note_on,0,0,0,,0,,,57,95
133524,note_off,220,0,0,,0,,,63,95
133529,note_off,5,0,0,,0,,,57,95
133529,note_off,0,0,0,,0,,,66,95
133531,note_off,2,0,0,,1,,,70,127
133532,note_on,1,0,0,,1,,,71,127
133532,note_on,0,0,0,,0,,,64,95
133532,note_on,0,0,0,,0,,,55,95
133757,note_off,225,0,0,,0,,,55,95
133759,note_off,2,0,0,,1,,,71,127
133760,note_on,1,0,0,,1,,,79,127
133760,note_on,0,0,0,,0,,,55,95
133985,note_off,225,0,0,,0,,,55,95
133987,note_off,2,0,0,,1,,,79,127
133988,note_on,1,0,0,,1,,,71,127
133988,note_on,0,0,0,,0,,,55,95
134213,note_off,225,0,0,,0,,,55,95
134217,note_on,4,0,0,,0,,,55,95
134442,note_off,225,0,0,,0,,,55,95
134442,note_off,0,0,0,,0,,,64,95
134444,note_off,2,0,0,,1,,,71,127
134445,note_on,1,0,0,,0,,,64,95
134445,note_on,0,0,0,,0,,,55,95
134670,note_off,225,0,0,,0,,,55,95
134674,note_on,4,0,0,,1,,,79,127
134674,note_on,0,0,0,,0,,,55,95
134899,note_off,225,0,0,,0,,,55,95
134901,note_off,2,0,0,,1,,,79,127
134902,note_on,1,0,0,,1,,,78,127
134902,note_on,0,0,0,,0,,,55,95
135127,note_off,225,0,0,,0,,,55,95
135127,note_off,0,0,0,,0,,,64,95
135129,note_off,2,0,0,,1,,,78,127
135130,note_on,1,0,0,,1,,,76,127
135130,note_on,0,0,0,,0,,,72,95
135130,note_on,0,0,0,,0,,,57,95
135355,note_off,225,0,0,,0,,,57,95
135355,note_off,0,0,0,,0,,,72,95
135357,note_off,2,0,0,,1,,,76,127
135358,note_on,1,0,0,,1,,,75,127
135358,note_on,0,0,0,,0,,,66,95
135358,note_on,0,0,0,,0,,,59,95
135583,note_off,225,0,0,,0,,,59,95
135585,note_off,2,0,0,,1,,,75,127
135586,note_on,1,0,0,,1,,,71,127
135586,note_on,0,0,0,,0,,,59,95
135811,note_off,225,0,0,,0,,,59,95
135813,note_off,2,0,0,,1,,,71,127
135814,note_on,1,0,0,,1,,,73,127
135814,note_on,0,0,0,,0,,,57,95
136039,note_off,225,0,0,,0,,,57,95
136041,note_off,2,0,0,,1,,,73,127
136042,note_on,1,0,0,,1,,,75,127
136042,note_on,0,0,0,,0,,,57,95
136267,note_off,225,0,0,,0,,,57,95
136267,note_off,0,0,0,,0,,,66,95
136269,note_off,2,0,0,,1,,,75,127
136270,note_on,1,0,0,,1,,,76,127
136270,note_on,0,0,0,,0,,,64,95
136270,note_on,0,0,0,,0,,,55,95
136495,note_off,225,0,0,,0,,,55,95
136497,note_off,2,0,0,,1,,,76,127
136498,note_on,1,0,0,,1,,,79,127
136498,note_on,0,0,0,,0,,,55,95
136723,note_off,225,0,0,,0,,,55,95
136723,note_off,0,0,0,,0,,,64,95
136725,note_off,2,0,0,,1,,,79,127
136726,note_on,1,0,0,,1,,,78,127
136726,note_on,0,0,0,,0,,,66,95
136726,note_on,0,0,0,,0,,,57,95
136951,note_off,225,0,0,,0,,,57,95
136953,note_off,2,0,0,,1,,,78,127
136954,note_on,1,0,0,,1,,,76,127
136954,note_on,0,0,0,,0,,,57,95
137179,note_off,225,0,0,,0,,,57,95
137179,note_off,0,0,0,,0,,,66,95
137181,note_off,2,0,0,,1,,,76,127
137182,note_on,1,0,0,,1,,,69,127
137182,note_on,0,0,0,,0,,,59,95
137407,note_off,225,0,0,,0,,,59,95
137409,note_off,2,0,0,,1,,,69,127
137410,note_on,1,0,0,,1,,,72,127
137410,note_on,0,0,0,,0,,,69,95
137410,note_on,0,0,0,,0,,,47,95
137635,note_off,225,0,0,,0,,,47,95
137635,note_off,0,0,0,,0,,,69,95
137637,note_off,2,0,0,,1,,,72,127
137638,note_on,1,0,0,,1,,,71,127
137638,note_on,0,0,0,,0,,,67,95
137638,note_on,0,0,0,,0,,,47,95
137863,note_off,225,0,0,,0,,,47,95
137863,note_off,0,0,0,,0,,,67,95
137865,note_off,2,0,0,,1,,,71,127
137866,note_on,1,0,0,,1,,,69,127
137866,note_on,0,0,0,,0,,,66,95
137866,note_on,0,0,0,,0,,,47,95
138091,note_off,225,0,0,,0,,,47,95
138091,note_off,0,0,0,,0,,,66,95
138093,note_off,2,0,0,,1,,,69,127
138094,note_on,1,0,0,,1,,,78,127
138094,note_on,0,0,0,,0,,,47,95
138319,note_off,225,0,0,,0,,,47,95
138321,note_off,2,0,0,,1,,,78,127
138322,note_on,1,0,0,,1,,,81,127
138322,note_on,0,0,0,,0,,,66,95
138322,note_on,0,0,0,,0,,,47,95
138547,note_off,225,0,0,,0,,,47,95
138547,note_off,0,0,0,,0,,,66,95
138549,note_off,2,0,0,,1,,,81,127
138550,note_on,1,0,0,,1,,,79,127
138550,note_on,0,0,0,,0,,,64,95
138550,note_on,0,0,0,,0,,,49,95
138775,note_off,225,0,0,,0,,,49,95
138775,note_off,0,0,0,,0,,,64,95
138777,note_off,2,0,0,,1,,,79,127
138778,note_on,1,0,0,,1,,,78,127
138778,note_on,0,0,0,,0,,,63,95
138778,note_on,0,0,0,,0,,,51,95
139003,note_off,225,0,0,,0,,,51,95
139003,note_off,0,0,0,,0,,,63,95
139005,note_off,2,0,0,,1,,,78,127
139006,note_on,1,0,0,,1,,,79,127
139006,note_on,0,0,0,,0,,,52,95
139231,note_off,225,0,0,,0,,,52,95
139233,note_off,2,0,0,,1,,,79,127
139234,note_on,1,0,0,,1,,,67,127
139234,note_on,0,0,0,,0,,,52,95
139459,note_off,225,0,0,,0,,,52,95
139461,note_off,2,0,0,,1,,,67,127
139462,note_on,1,0,0,,1,,,66,127
139462,note_on,0,0,0,,0,,,54,95
139687,note_off,225,0,0,,0,,,54,95
139689,note_off,2,0,0,,1,,,66,127
139690,note_on,1,0,0,,1,,,64,127
139690,note_on,0,0,0,,0,,,55,95
139915,note_off,225,0,0,,0,,,55,95
139917,note_off,2,0,0,,1,,,64,127
139918,note_on,1,0,0,,1,,,78,127
139918,note_on,0,0,0,,0,,,69,95
139918,note_on,0,0,0,,0,,,57,95
140371,note_off,453,0,0,,0,,,57,95
140371,note_off,0,0,0,,0,,,69,95
140373,note_off,2,0,0,,1,,,78,127
140374,note_on,1,0,0,,1,,,75,127
140374,note_on,0,0,0,,0,,,66,95
140374,note_on,0,0,0,,0,,,59,95
140827,note_off,453,0,0,,0,,,59,95
140827,note_off,0,0,0,,0,,,66,95
140829,note_off,2,0,0,,1,,,75,127
140830,note_on,1,0,0,,1,,,76,127
140830,note_on,0,0,0,,0,,,71,95
140830,note_on,0,0,0,,0,,,67,95
140830,note_on,0,0,0,,0,,,52,95
141055,note_off,225,0,0,,0,,,52,95
141059,note_on,4,0,0,,0,,,60,95
141284,note_off,225,0,0,,0,,,60,95
141286,note_off,2,0,0,,1,,,76,127
141287,note_on,1,0,0,,0,,,59,95
141512,note_off,225,0,0,,0,,,59,95
141512,note_off,0,0,0,,0,,,67,95
141512,note_off,0,0,0,,0,,,71,95
141516,note_on,4,0,0,,0,,,57,95
141741,note_off,225,0,0,,0,,,57,95
141745,note_on,4,0,0,,1,,,76,127
141745,note_on,0,0,0,,0,,,71,95
141745,note_on,0,0,0,,0,,,55,95
142198,note_off,453,0,0,,0,,,55,95
142198,note_off,0,0,0,,0,,,71,95
142200,note_off,2,0,0,,1,,,76,127
142201,note_on,1,0,0,,1,,,83,127
142201,note_on,0,0,0,,0,,,66,95
142201,note_on,0,0,0,,0,,,51,95
142654,note_off,453,0,0,,0,,,51,95
142654,note_off,0,0,0,,0,,,66,95
142656,note_off,2,0,0,,1,,,83,127
142657,note_on,1,0,0,,1,,,79,127
142657,note_on,0,0,0,,0,,,67,95
142657,note_on,0,0,0,,0,,,52,95
143110,note_off,453,0,0,,0,,,52,95
143110,note_off,0,0,0,,0,,,67,95
143112,note_off,2,0,0,,1,,,79,127
143113,note_on,1,0,0,,0,,,75,95
143113,note_on,0,0,0,,0,,,59,95
143341,note_on,228,0,0,,1,,,78,127
143566,note_off,225,0,0,,0,,,59,95
143566,note_off,0,0,0,,0,,,75,95
143568,note_off,2,0,0,,1,,,78,127
143569,note_on,1,0,0,,1,,,76,127
143569,note_on,0,0,0,,0,,,71,95
143569,note_on,0,0,0,,0,,,55,95
143796,note_off,227,0,0,,1,,,76,127
143797,note_on,1,0,0,,1,,,83,127
144022,note_off,225,0,0,,0,,,55,95
144022,note_off,0,0,0,,0,,,71,95
144024,note_off,2,0,0,,1,,,83,127
144025,note_on,1,0,0,,1,,,83,127
144025,note_on,0,0,0,,0,,,78,95
144025,note_on,0,0,0,,0,,,51,95
144252,note_off,227,0,0,,1,,,83,127
144253,note_on,1,0,0,,1,,,81,127
144478,note_off,225,0,0,,0,,,51,95
144478,note_off,0,0,0,,0,,,78,95
144480,note_off,2,0,0,,1,,,81,127
144481,note_on,1,0,0,,1,,,79,127
144481,note_on,0,0,0,,0,,,71,95
144481,note_on,0,0,0,,0,,,52,95
144934,note_off,453,0,0,,0,,,52,95
144934,note_off,0,0,0,,0,,,71,95
144936,note_off,2,0,0,,1,,,79,127
144937,note_on,1,0,0,,0,,,69,95
144937,note_on,0,0,0,,0,,,54,95
145165,note_on,228,0,0,,1,,,78,127
145390,note_off,225,0,0,,0,,,54,95
145390,note_off,0,0,0,,0,,,69,95
145392,note_off,2,0,0,,1,,,78,127
145393,note_on,1,0,0,,1,,,76,127
145393,note_on,0,0,0,,0,,,71,95
145393,note_on,0,0,0,,0,,,55,95
145620,note_off,227,0,0,,1,,,76,127
145621,note_on,1,0,0,,1,,,83,127
145846,note_off,225,0,0,,0,,,55,95
145846,note_off,0,0,0,,0,,,71,95
145848,note_off,2,0,0,,1,,,83,127
145849,note_on,1,0,0,,1,,,83,127
145849,note_on,0,0,0,,0,,,71,95
145849,note_on,0,0,0,,0,,,56,95
146076,note_off,227,0,0,,1,,,83,127
146077,note_on,1,0,0,,1,,,74,127
146302,note_off,225,0,0,,0,,,56,95
146302,note_off,0,0,0,,0,,,71,95
146304,note_off,2,0,0,,1,,,74,127
146305,note_on,1,0,0,,1,,,74,127
146305,note_on,0,0,0,,0,,,64,95
146305,note_on,0,0,0,,0,,,57,95
146530,note_off,225,0,0,,0,,,57,95
146532,note_off,2,0,0,,1,,,74,127
146533,note_on,1,0,0,,1,,,73,127
146533,note_on,0,0,0,,0,,,45,95
146758,note_off,225,0,0,,0,,,45,95
146758,note_off,0,0,0,,0,,,64,95
146760,note_off,2,0,0,,1,,,73,127
146761,note_on,1,0,0,,0,,,71,95
146761,note_on,0,0,0,,0,,,57,95
146986,note_off,225,0,0,,0,,,57,95
146986,note_off,0,0,0,,0,,,71,95
146990,note_on,4,0,0,,0,,,73,95
146990,note_on,0,0,0,,0,,,55,95
147215,note_off,225,0,0,,0,,,55,95
147215,note_off,0,0,0,,0,,,73,95
147219,note_on,4,0,0,,1,,,74,127
147219,note_on,0,0,0,,0,,,69,95
147219,note_on,0,0,0,,0,,,54,95
147672,note_off,453,0,0,,0,,,54,95
147672,note_off,0,0,0,,0,,,69,95
147674,note_off,2,0,0,,1,,,74,127
147675,note_on,1,0,0,,1,,,81,127
147675,note_on,0,0,0,,0,,,64,95
147675,note_on,0,0,0,,0,,,49,95
148128,note_off,453,0,0,,0,,,49,95
148128,note_off,0,0,0,,0,,,64,95
148130,note_off,2,0,0,,1,,,81,127
148131,note_on,1,0,0,,1,,,78,127
148131,note_on,0,0,0,,0,,,69,95
148131,note_on,0,0,0,,0,,,50,95
148584,note_off,453,0,0,,0,,,50,95
148584,note_off,0,0,0,,0,,,69,95
148586,note_off,2,0,0,,1,,,78,127
148587,note_on,1,0,0,,0,,,67,95
148587,note_on,0,0,0,,0,,,57,95
148815,note_on,228,0,0,,1,,,76,127
149040,note_off,225,0,0,,0,,,57,95
149040,note_off,0,0,0,,0,,,67,95
149042,note_off,2,0,0,,1,,,76,127
149043,note_on,1,0,0,,1,,,74,127
149043,note_on,0,0,0,,0,,,69,95
149043,note_on,0,0,0,,0,,,54,95
149270,note_off,227,0,0,,1,,,74,127
149271,note_on,1,0,0,,1,,,81,127
149496,note_off,225,0,0,,0,,,54,95
149496,note_off,0,0,0,,0,,,69,95
149498,note_off,2,0,0,,1,,,81,127
149499,note_on,1,0,0,,1,,,81,127
149499,note_on,0,0,0,,0,,,66,95
149499,note_on,0,0,0,,0,,,50,95
149726,note_off,227,0,0,,1,,,81,127
149727,note_on,1,0,0,,1,,,72,127
149952,note_off,225,0,0,,0,,,50,95
149952,note_off,0,0,0,,0,,,66,95
149954,note_off,2,0,0,,1,,,72,127
149955,note_on,1,0,0,,1,,,72,127
149955,note_on,0,0,0,,0,,,62,95
149955,note_on,0,0,0,,0,,,55,95
150180,note_off,225,0,0,,0,,,55,95
150182,note_off,2,0,0,,1,,,72,127
150183,note_on,1,0,0,,1,,,71,127
150183,note_on,0,0,0,,0,,,55,95
150408,note_off,225,0,0,,0,,,55,95
150410,note_off,2,0,0,,1,,,71,127
150411,note_on,1,0,0,,0,,,55,95
150636,note_off,225,0,0,,0,,,55,95
150640,note_on,4,0,0,,1,,,83,127
150640,note_on,0,0,0,,0,,,55,95
150865,note_off,225,0,0,,0,,,55,95
150865,note_off,0,0,0,,0,,,62,95
150867,note_off,2,0,0,,1,,,83,127
150868,note_on,1,0,0,,1,,,76,127
150868,note_on,0,0,0,,0,,,64,95
150868,note_on,0,0,0,,0,,,55,95
151093,note_off,225,0,0,,0,,,55,95
151095,note_off,2,0,0,,1,,,76,127
151096,note_on,1,0,0,,1,,,74,127
151096,note_on,0,0,0,,0,,,55,95
151321,note_off,225,0,0,,0,,,55,95
151323,note_off,2,0,0,,1,,,74,127
151324,note_on,1,0,0,,1,,,74,127
151324,note_on,0,0,0,,0,,,55,95
151549,note_off,225,0,0,,0,,,55,95
151551,note_off,2,0,0,,1,,,74,127
151552,note_on,1,0,0,,1,,,73,127
151552,note_on,0,0,0,,0,,,55,95
151777,note_off,225,0,0,,0,,,55,95
151777,note_off,0,0,0,,0,,,64,95
151779,note_off,2,0,0,,1,,,73,127
151780,note_on,1,0,0,,1,,,73,127
151780,note_on,0,0,0,,0,,,62,95
151780,note_on,0,0,0,,0,,,54,95
152005,note_off,225,0,0,,0,,,54,95
152007,note_off,2,0,0,,1,,,73,127
152008,note_on,1,0,0,,1,,,74,127
152008,note_on,0,0,0,,0,,,54,95
152233,note_off,225,0,0,,0,,,54,95
152235,note_off,2,0,0,,1,,,74,127
152236,note_on,1,0,0,,0,,,54,95
152461,note_off,225,0,0,,0,,,54,95
152465,note_on,4,0,0,,1,,,81,127
152465,note_on,0,0,0,,0,,,54,95
152690,note_off,225,0,0,,0,,,54,95
152690,note_off,0,0,0,,0,,,62,95
152692,note_off,2,0,0,,1,,,81,127
152693,note_on,1,0,0,,1,,,74,127
152693,note_on,0,0,0,,0,,,69,95
152693,note_on,0,0,0,,0,,,54,95
152918,note_off,225,0,0,,0,,,54,95
152920,note_off,2,0,0,,1,,,74,127
152921,note_on,1,0,0,,1,,,72,127
152921,note_on,0,0,0,,0,,,54,95
153146,note_off,225,0,0,,0,,,54,95
153148,note_off,2,0,0,,1,,,72,127
153149,note_on,1,0,0,,1,,,72,127
153149,note_on,0,0,0,,0,,,54,95
153374,note_off,225,0,0,,0,,,54,95
153376,note_off,2,0,0,,1,,,72,127
153377,note_on,1,0,0,,1,,,71,127
153377,note_on,0,0,0,,0,,,54,95
153602,note_off,225,0,0,,0,,,54,95
153602,note_off,0,0,0,,0,,,69,95
153604,note_off,2,0,0,,1,,,71,127
153605,note_on,1,0,0,,1,,,71,127
153605,note_on,0,0,0,,0,,,67,95
153605,note_on,0,0,0,,0,,,52,95
153830,note_off,225,0,0,,0,,,52,95
153832,note_off,2,0,0,,1,,,71,127
153833,note_on,1,0,0,,1,,,72,127
153833,note_on,0,0,0,,0,,,52,95
154058,note_off,225,0,0,,0,,,52,95
154060,note_off,2,0,0,,1,,,72,127
154061,note_on,1,0,0,,0,,,52,95
154286,note_off,225,0,0,,0,,,52,95
154290,note_on,4,0,0,,1,,,72,127
154290,note_on,0,0,0,,0,,,52,95
154515,note_off,225,0,0,,0,,,52,95
154515,note_off,0,0,0,,0,,,67,95
154517,note_off,2,0,0,,1,,,72,127
154518,note_on,1,0,0,,1,,,79,127
154518,note_on,0,0,0,,0,,,72,95
154518,note_on,0,0,0,,0,,,52,95
154743,note_off,225,0,0,,0,,,52,95
154743,note_off,0,0,0,,0,,,72,95
154745,note_off,2,0,0,,1,,,79,127
154746,note_on,1,0,0,,1,,,72,127
154746,note_on,0,0,0,,0,,,60,95
154746,note_on,0,0,0,,0,,,52,95
154971,note_off,225,0,0,,0,,,52,95
154973,note_off,2,0,0,,1,,,72,127
154974,note_on,1,0,0,,1,,,71,127
154974,note_on,0,0,0,,0,,,52,95
155199,note_off,225,0,0,,0,,,52,95
155201,note_off,2,0,0,,1,,,71,127
155202,note_on,1,0,0,,1,,,72,127
155202,note_on,0,0,0,,0,,,52,95
155427,note_off,225,0,0,,0,,,52,95
155427,note_off,0,0,0,,0,,,60,95
155429,note_off,2,0,0,,1,,,72,127
155430,note_on,1,0,0,,1,,,79,127
155430,note_on,0,0,0,,0,,,71,95
155430,note_on,0,0,0,,0,,,50,95
155655,note_off,225,0,0,,0,,,50,95
155655,note_off,0,0,0,,0,,,71,95
155657,note_off,2,0,0,,1,,,79,127
155658,note_on,1,0,0,,1,,,71,127
155658,note_on,0,0,0,,0,,,59,95
155658,note_on,0,0,0,,0,,,50,95
155883,note_off,225,0,0,,0,,,50,95
155885,note_off,2,0,0,,1,,,71,127
155886,note_on,1,0,0,,1,,,69,127
155886,note_on,0,0,0,,0,,,50,95
156111,note_off,225,0,0,,0,,,50,95
156113,note_off,2,0,0,,1,,,69,127
156114,note_on,1,0,0,,1,,,71,127
156114,note_on,0,0,0,,0,,,50,95
156339,note_off,225,0,0,,0,,,50,95
156339,note_off,0,0,0,,0,,,59,95
156341,note_off,2,0,0,,1,,,71,127
156342,note_on,1,0,0,,1,,,79,127
156342,note_on,0,0,0,,0,,,69,95
156342,note_on,0,0,0,,0,,,48,95
156567,note_off,225,0,0,,0,,,48,95
156567,note_off,0,0,0,,0,,,69,95
156569,note_off,2,0,0,,1,,,79,127
156570,note_on,1,0,0,,1,,,69,127
156570,note_on,0,0,0,,0,,,57,95
156570,note_on,0,0,0,,0,,,48,95
156795,note_off,225,0,0,,0,,,48,95
156797,note_off,2,0,0,,1,,,69,127
156798,note_on,1,0,0,,1,,,67,127
156798,note_on,0,0,0,,0,,,48,95
157023,note_off,225,0,0,,0,,,48,95
157025,note_off,2,0,0,,1,,,67,127
157026,note_on,1,0,0,,1,,,69,127
157026,note_on,0,0,0,,0,,,48,95
157251,note_off,225,0,0,,0,,,48,95
157251,note_off,0,0,0,,0,,,57,95
157253,note_off,2,0,0,,1,,,69,127
157254,note_on,1,0,0,,1,,,79,127
157254,note_on,0,0,0,,0,,,62,95
157254,note_on,0,0,0,,0,,,47,95
157479,note_off,225,0,0,,0,,,47,95
157481,note_off,2,0,0,,1,,,79,127
157482,note_on,1,0,0,,1,,,67,127
157482,note_on,0,0,0,,0,,,47,95
157707,note_off,225,0,0,,0,,,47,95
157709,note_off,2,0,0,,1,,,67,127
157710,note_on,1,0,0,,1,,,66,127
157710,note_on,0,0,0,,0,,,47,95
157935,note_off,225,0,0,,0,,,47,95
157937,note_off,2,0,0,,1,,,66,127
157938,note_on,1,0,0,,1,,,67,127
157938,note_on,0,0,0,,0,,,47,95
158163,note_off,225,0,0,,0,,,47,95
158163,note_off,0,0,0,,0,,,62,95
158165,note_off,2,0,0,,1,,,67,127
158166,note_on,1,0,0,,0,,,47,95
158391,note_off,225,0,0,,0,,,47,95
158395,note_on,4,0,0,,1,,,74,127
158395,note_on,0,0,0,,0,,,67,95
158395,note_on,0,0,0,,0,,,47,95
158620,note_off,225,0,0,,0,,,47,95
158620,note_off,0,0,0,,0,,,67,95
158622,note_off,2,0,0,,1,,,74,127
158623,note_on,1,0,0,,1,,,76,127
158623,note_on,0,0,0,,0,,,67,95
158623,note_on,0,0,0,,0,,,47,95
158848,note_off,225,0,0,,0,,,47,95
158850,note_off,2,0,0,,1,,,76,127
158851,note_on,1,0,0,,1,,,77,127
158851,note_on,0,0,0,,0,,,47,95
159076,note_off,225,0,0,,0,,,47,95
159076,note_off,0,0,0,,0,,,67,95
159078,note_off,2,0,0,,1,,,77,127
159079,note_on,1,0,0,,1,,,77,127
159079,note_on,0,0,0,,0,,,72,95
159079,note_on,0,0,0,,0,,,48,95
159304,note_off,225,0,0,,0,,,48,95
159306,note_off,2,0,0,,1,,,77,127
159307,note_on,1,0,0,,1,,,75,127
159307,note_on,0,0,0,,0,,,48,95
159532,note_off,225,0,0,,0,,,48,95
159532,note_off,0,0,0,,0,,,72,95
159534,note_off,2,0,0,,1,,,75,127
159535,note_on,1,0,0,,1,,,75,127
159535,note_on,0,0,0,,0,,,67,95
159535,note_on,0,0,0,,0,,,48,95
159760,note_off,225,0,0,,0,,,48,95
159762,note_off,2,0,0,,1,,,75,127
159763,note_on,1,0,0,,1,,,76,127
159763,note_on,0,0,0,,0,,,48,95
159988,note_off,225,0,0,,0,,,48,95
159988,note_off,0,0,0,,0,,,67,95
159990,note_off,2,0,0,,1,,,76,127
159991,note_on,1,0,0,,0,,,48,95
160216,note_off,225,0,0,,0,,,48,95
160220,note_on,4,0,0,,1,,,74,127
160220,note_on,0,0,0,,0,,,67,95
160220,note_on,0,0,0,,0,,,47,95
160445,note_off,225,0,0,,0,,,47,95
160445,note_off,0,0,0,,0,,,67,95
160447,note_off,2,0,0,,1,,,74,127
160448,note_on,1,0,0,,1,,,72,127
160448,note_on,0,0,0,,0,,,66,95
160448,note_on,0,0,0,,0,,,45,95
160673,note_off,225,0,0,,0,,,45,95
160673,note_off,0,0,0,,0,,,66,95
160675,note_off,2,0,0,,1,,,72,127
160676,note_on,1,0,0,,1,,,71,127
160676,note_on,0,0,0,,0,,,67,95
160676,note_on,0,0,0,,0,,,43,95
160901,note_off,225,0,0,,0,,,43,95
160901,note_off,0,0,0,,0,,,67,95
160903,note_off,2,0,0,,1,,,71,127
160904,note_on,1,0,0,,1,,,69,127
160904,note_on,0,0,0,,0,,,66,95
160904,note_on,0,0,0,,0,,,50,95
161129,note_off,225,0,0,,0,,,50,95
161131,note_off,2,0,0,,1,,,69,127
161132,note_on,1,0,0,,1,,,66,127
161132,note_on,0,0,0,,0,,,50,95
161357,note_off,225,0,0,,0,,,50,95
161357,note_off,0,0,0,,0,,,66,95
161359,note_off,2,0,0,,1,,,66,127
161360,note_on,1,0,0,,1,,,67,127
161360,note_on,0,0,0,,0,,,52,95
161585,note_off,225,0,0,,0,,,52,95
161587,note_off,2,0,0,,1,,,67,127
161588,note_on,1,0,0,,1,,,69,127
161588,note_on,0,0,0,,0,,,62,95
161588,note_on,0,0,0,,0,,,54,95
161813,note_off,225,0,0,,0,,,54,95
161813,note_off,0,0,0,,0,,,62,95
161815,note_off,2,0,0,,1,,,69,127
161816,note_on,1,0,0,,1,,,71,127
161816,note_on,0,0,0,,0,,,62,95
161816,note_on,0,0,0,,0,,,55,95
162041,note_off,225,0,0,,0,,,55,95
162043,note_off,2,0,0,,1,,,71,127
162044,note_on,1,0,0,,1,,,72,127
162044,note_on,0,0,0,,0,,,57,95
162269,note_off,225,0,0,,0,,,57,95
162269,note_off,0,0,0,,0,,,62,95
162271,note_off,2,0,0,,1,,,72,127
162272,note_on,1,0,0,,1,,,74,127
162272,note_on,0,0,0,,0,,,67,95
162272,note_on,0,0,0,,0,,,59,95
162497,note_off,225,0,0,,0,,,59,95
162499,note_off,2,0,0,,1,,,74,127
162500,note_on,1,0,0,,1,,,76,127
162500,note_on,0,0,0,,0,,,60,95
162725,note_off,225,0,0,,0,,,60,95
162725,note_off,0,0,0,,0,,,67,95
162727,note_off,2,0,0,,1,,,76,127
162728,note_on,1,0,0,,1,,,69,127
162728,note_on,0,0,0,,0,,,66,95
162728,note_on,0,0,0,,0,,,62,95
162953,note_off,225,0,0,,0,,,62,95
162955,note_off,2,0,0,,1,,,69,127
162956,note_on,1,0,0,,1,,,76,127
162956,note_on,0,0,0,,0,,,60,95
163181,note_off,225,0,0,,0,,,60,95
163183,note_off,2,0,0,,1,,,76,127
163184,note_on,1,0,0,,1,,,74,127
163184,note_on,0,0,0,,0,,,59,95
163409,note_off,225,0,0,,0,,,59,95
163409,note_off,0,0,0,,0,,,66,95
163411,note_off,2,0,0,,1,,,74,127
163412,note_on,1,0,0,,1,,,72,127
163412,note_on,0,0,0,,0,,,66,95
163412,note_on,0,0,0,,0,,,57,95
163637,note_off,225,0,0,,0,,,57,95
163637,note_off,0,0,0,,0,,,66,95
163639,note_off,2,0,0,,1,,,72,127
163640,note_on,1,0,0,,1,,,71,127
163640,note_on,0,0,0,,0,,,67,95
163640,note_on,0,0,0,,0,,,55,95
163865,note_off,225,0,0,,0,,,55,95
163867,note_off,2,0,0,,1,,,71,127
163868,note_on,1,0,0,,1,,,72,127
163868,note_on,0,0,0,,0,,,57,95
164093,note_off,225,0,0,,0,,,57,95
164095,note_off,2,0,0,,1,,,72,127
164096,note_on,1,0,0,,1,,,74,127
164096,note_on,0,0,0,,0,,,59,95
164321,note_off,225,0,0,,0,,,59,95
164321,note_off,0,0,0,,0,,,67,95
164323,note_off,2,0,0,,1,,,74,127
164324,note_on,1,0,0,,1,,,72,127
164324,note_on,0,0,0,,0,,,67,95
164324,note_on,0,0,0,,0,,,60,95
164437,note_off,113,0,0,,1,,,72,127
164438,note_on,1,0,0,,1,,,71,127
164548,note_off,110,0,0,,0,,,60,95
164548,note_off,0,0,0,,0,,,67,95
164550,note_off,2,0,0,,1,,,71,127
164551,note_on,1,0,0,,1,,,69,127
164551,note_on,0,0,0,,0,,,66,95
164551,note_on,0,0,0,,0,,,62,95
165004,note_off,453,0,0,,0,,,62,95
165004,note_off,0,0,0,,0,,,66,95
165006,note_off,2,0,0,,1,,,69,127
165007,note_on,1,0,0,,1,,,74,127
165007,note_on,0,0,0,,0,,,62,95
165007,note_on,0,0,0,,0,,,50,95
165460,note_off,453,0,0,,0,,,50,95
165460,note_off,0,0,0,,0,,,62,95
165462,note_off,2,0,0,,1,,,74,127
165463,note_on,1,0,0,,1,,,78,127
165463,note_on,0,0,0,,0,,,62,95
165463,note_on,0,0,0,,0,,,50,95
165916,note_off,453,0,0,,0,,,50,95
165916,note_off,0,0,0,,0,,,62,95
165918,note_off,2,0,0,,1,,,78,127
165919,note_on,1,0,0,,1,,,81,127
165919,note_on,0,0,0,,0,,,62,95
165919,note_on,0,0,0,,0,,,50,95
166372,note_off,453,0,0,,0,,,50,95
166372,note_off,0,0,0,,0,,,62,95
166374,note_off,2,0,0,,1,,,81,127
166375,note_on,1,0,0,,1,,,72,127
166375,note_on,0,0,0,,0,,,50,95
166600,note_off,225,0,0,,0,,,50,95
166602,note_off,2,0,0,,1,,,72,127
166603,note_on,1,0,0,,1,,,81,127
166603,note_on,0,0,0,,0,,,78,95
166603,note_on,0,0,0,,0,,,50,95
166828,note_off,225,0,0,,0,,,50,95
166830,note_off,2,0,0,,1,,,81,127
166831,note_on,1,0,0,,1,,,81,127
166831,note_on,0,0,0,,0,,,50,95
167056,note_off,225,0,0,,0,,,50,95
167056,note_off,0,0,0,,0,,,78,95
167058,note_off,2,0,0,,1,,,81,127
167059,note_on,1,0,0,,1,,,79,127
167059,note_on,0,0,0,,0,,,76,95
167059,note_on,0,0,0,,0,,,50,95
167284,note_off,225,0,0,,0,,,50,95
167284,note_off,0,0,0,,0,,,76,95
167286,note_off,2,0,0,,1,,,79,127
167287,note_on,1,0,0,,1,,,78,127
167287,note_on,0,0,0,,0,,,74,95
167287,note_on,0,0,0,,0,,,50,95
167512,note_off,225,0,0,,0,,,50,95
167514,note_off,2,0,0,,1,,,78,127
167515,note_on,1,0,0,,1,,,76,127
167515,note_on,0,0,0,,0,,,48,95
167740,note_off,225,0,0,,0,,,48,95
167740,note_off,0,0,0,,0,,,74,95
167742,note_off,2,0,0,,1,,,76,127
167743,note_on,1,0,0,,1,,,74,127
167743,note_on,0,0,0,,0,,,67,95
167743,note_on,0,0,0,,0,,,47,95
167968,note_off,225,0,0,,0,,,47,95
167970,note_off,2,0,0,,1,,,74,127
167971,note_on,1,0,0,,1,,,72,127
167971,note_on,0,0,0,,0,,,45,95
168196,note_off,225,0,0,,0,,,45,95
168196,note_off,0,0,0,,0,,,67,95
168198,note_off,2,0,0,,1,,,72,127
168199,note_on,1,0,0,,1,,,71,127
168199,note_on,0,0,0,,0,,,71,95
168199,note_on,0,0,0,,0,,,43,95
168424,note_off,225,0,0,,0,,,43,95
168426,note_off,2,0,0,,1,,,71,127
168427,note_on,1,0,0,,1,,,66,127
168427,note_on,0,0,0,,0,,,43,95
168652,note_off,225,0,0,,0,,,43,95
168652,note_off,0,0,0,,0,,,71,95
168654,note_off,2,0,0,,1,,,66,127
168655,note_on,1,0,0,,1,,,66,127
168655,note_on,0,0,0,,0,,,62,95
168655,note_on,0,0,0,,0,,,43,95
168880,note_off,225,0,0,,0,,,43,95
168882,note_off,2,0,0,,1,,,66,127
168883,note_on,1,0,0,,1,,,67,127
168883,note_on,0,0,0,,0,,,43,95
169108,note_off,225,0,0,,0,,,43,95
169108,note_off,0,0,0,,0,,,62,95
169110,note_off,2,0,0,,1,,,67,127
169111,note_on,1,0,0,,0,,,43,95
169336,note_off,225,0,0,,0,,,43,95
169340,note_on,4,0,0,,1,,,74,127
169340,note_on,0,0,0,,0,,,71,95
169340,note_on,0,0,0,,0,,,43,95
169565,note_off,225,0,0,,0,,,43,95
169565,note_off,0,0,0,,0,,,71,95
169567,note_off,2,0,0,,1,,,74,127
169568,note_on,1,0,0,,1,,,72,127
169568,note_on,0,0,0,,0,,,69,95
169568,note_on,0,0,0,,0,,,43,95
169793,note_off,225,0,0,,0,,,43,95
169793,note_off,0,0,0,,0,,,69,95
169795,note_off,2,0,0,,1,,,72,127
169796,note_on,1,0,0,,1,,,71,127
169796,note_on,0,0,0,,0,,,67,95
169796,note_on,0,0,0,,0,,,43,95
170021,note_off,225,0,0,,0,,,43,95
170021,note_off,0,0,0,,0,,,67,95
170023,note_off,2,0,0,,1,,,71,127
170024,note_on,1,0,0,,1,,,76,127
170024,note_on,0,0,0,,0,,,64,95
170024,note_on,0,0,0,,0,,,48,95
170249,note_off,225,0,0,,0,,,48,95
170251,note_off,2,0,0,,1,,,76,127
170252,note_on,1,0,0,,1,,,66,127
170252,note_on,0,0,0,,0,,,48,95
170477,note_off,225,0,0,,0,,,48,95
170479,note_off,2,0,0,,1,,,66,127
170480,note_on,1,0,0,,1,,,66,127
170480,note_on,0,0,0,,0,,,48,95
170705,note_off,225,0,0,,0,,,48,95
170707,note_off,2,0,0,,1,,,66,127
170708,note_on,1,0,0,,1,,,67,127
170708,note_on,0,0,0,,0,,,48,95
170933,note_off,225,0,0,,0,,,48,95
170933,note_off,0,0,0,,0,,,64,95
170935,note_off,2,0,0,,1,,,67,127
170936,note_on,1,0,0,,0,,,48,95
171161,note_off,225,0,0,,0,,,48,95
171165,note_on,4,0,0,,1,,,79,127
171165,note_on,0,0,0,,0,,,76,95
171165,note_on,0,0,0,,0,,,48,95
171390,note_off,225,0,0,,0,,,48,95
171390,note_off,0,0,0,,0,,,76,95
171392,note_off,2,0,0,,1,,,79,127
171393,note_on,1,0,0,,1,,,78,127
171393,note_on,0,0,0,,0,,,74,95
171393,note_on,0,0,0,,0,,,48,95
171618,note_off,225,0,0,,0,,,48,95
171618,note_off,0,0,0,,0,,,74,95
171620,note_off,2,0,0,,1,,,78,127
171621,note_on,1,0,0,,1,,,76,127
171621,note_on,0,0,0,,0,,,72,95
171621,note_on,0,0,0,,0,,,48,95
171846,note_off,225,0,0,,0,,,48,95
171846,note_off,0,0,0,,0,,,72,95
171848,note_off,2,0,0,,1,,,76,127
171849,note_on,1,0,0,,1,,,74,127
171849,note_on,0,0,0,,0,,,62,95
171849,note_on,0,0,0,,0,,,47,95
172074,note_off,225,0,0,,0,,,47,95
172076,note_off,2,0,0,,1,,,74,127
172077,note_on,1,0,0,,1,,,66,127
172077,note_on,0,0,0,,0,,,47,95
172302,note_off,225,0,0,,0,,,47,95
172304,note_off,2,0,0,,1,,,66,127
172305,note_on,1,0,0,,1,,,66,127
172305,note_on,0,0,0,,0,,,47,95
172530,note_off,225,0,0,,0,,,47,95
172532,note_off,2,0,0,,1,,,66,127
172533,note_on,1,0,0,,1,,,67,127
172533,note_on,0,0,0,,0,,,47,95
172758,note_off,225,0,0,,0,,,47,95
172758,note_off,0,0,0,,0,,,62,95
172760,note_off,2,0,0,,1,,,67,127
172761,note_on,1,0,0,,0,,,67,95
172761,note_on,0,0,0,,0,,,47,95
172986,note_off,225,0,0,,0,,,47,95
172990,note_on,4,0,0,,1,,,71,127
172990,note_on,0,0,0,,0,,,43,95
173215,note_off,225,0,0,,0,,,43,95
173215,note_off,0,0,0,,0,,,67,95
173217,note_off,2,0,0,,1,,,71,127
173218,note_on,1,0,0,,1,,,69,127
173218,note_on,0,0,0,,0,,,62,95
173218,note_on,0,0,0,,0,,,45,95
173443,note_off,225,0,0,,0,,,45,95
173445,note_off,2,0,0,,1,,,69,127
173446,note_on,1,0,0,,1,,,67,127
173446,note_on,0,0,0,,0,,,47,95
173671,note_off,225,0,0,,0,,,47,95
173671,note_off,0,0,0,,0,,,62,95
173673,note_off,2,0,0,,1,,,67,127
173674,note_on,1,0,0,,1,,,76,127
173674,note_on,0,0,0,,0,,,64,95
173674,note_on,0,0,0,,0,,,48,95
173899,note_off,225,0,0,,0,,,48,95
173901,note_off,2,0,0,,1,,,76,127
173902,note_on,1,0,0,,1,,,79,127
173902,note_on,0,0,0,,0,,,48,95
174127,note_off,225,0,0,,0,,,48,95
174129,note_off,2,0,0,,1,,,79,127
174130,note_on,1,0,0,,1,,,78,127
174130,note_on,0,0,0,,0,,,48,95
174355,note_off,225,0,0,,0,,,48,95
174357,note_off,2,0,0,,1,,,78,127
174358,note_on,1,0,0,,1,,,76,127
174358,note_on,0,0,0,,0,,,48,95
174583,note_off,225,0,0,,0,,,48,95
174583,note_off,0,0,0,,0,,,64,95
174585,note_off,2,0,0,,1,,,76,127
174586,note_on,1,0,0,,1,,,81,127
174586,note_on,0,0,0,,0,,,72,95
174586,note_on,0,0,0,,0,,,48,95
175039,note_off,453,0,0,,0,,,48,95
175039,note_off,0,0,0,,0,,,72,95
175041,note_off,2,0,0,,1,,,81,127
175042,note_on,1,0,0,,1,,,78,127
175042,note_on,0,0,0,,0,,,69,95
175042,note_on,0,0,0,,0,,,50,95
175495,note_off,453,0,0,,0,,,50,95
175495,note_off,0,0,0,,0,,,69,95
175497,note_off,2,0,0,,1,,,78,127
175498,note_on,1,0,0,,1,,,79,127
175725,note_off,227,0,0,,1,,,79,127
175726,note_on,1,0,0,,1,,,71,127
175726,note_on,0,0,0,,0,,,47,95
175951,note_off,225,0,0,,0,,,47,95
175953,note_off,2,0,0,,1,,,71,127
175954,note_on,1,0,0,,1,,,69,127
175954,note_on,0,0,0,,0,,,45,95
176179,note_off,225,0,0,,0,,,45,95
176181,note_off,2,0,0,,1,,,69,127
176182,note_on,1,0,0,,1,,,67,127
176182,note_on,0,0,0,,0,,,43,95
176407,note_off,225,0,0,,0,,,43,95
176409,note_off,2,0,0,,1,,,67,127
176410,note_on,1,0,0,,1,,,81,127
176410,note_on,0,0,0,,0,,,72,95
176410,note_on,0,0,0,,0,,,48,95
176863,note_off,453,0,0,,0,,,48,95
176863,note_off,0,0,0,,0,,,72,95
176865,note_off,2,0,0,,1,,,81,127
176866,note_on,1,0,0,,1,,,78,127
176866,note_on,0,0,0,,0,,,69,95
176866,note_on,0,0,0,,0,,,50,95
177319,note_off,453,0,0,,0,,,50,95
177319,note_off,0,0,0,,0,,,69,95
177321,note_off,2,0,0,,1,,,78,127
177322,note_on,1,0,0,,1,,,79,127
177549,note_off,227,0,0,,1,,,79,127
177550,note_on,1,0,0,,1,,,71,127
177550,note_on,0,0,0,,0,,,59,95
177550,note_on,0,0,0,,0,,,47,95
177775,note_off,225,0,0,,0,,,47,95
177775,note_off,0,0,0,,0,,,59,95
177777,note_off,2,0,0,,1,,,71,127
177778,note_on,1,0,0,,1,,,69,127
177778,note_on,0,0,0,,0,,,57,95
177778,note_on,0,0,0,,0,,,45,95
178003,note_off,225,0,0,,0,,,45,95
178003,note_off,0,0,0,,0,,,57,95
178005,note_off,2,0,0,,1,,,69,127
178006,note_on,1,0,0,,1,,,67,127
178006,note_on,0,0,0,,0,,,55,95
178006,note_on,0,0,0,,0,,,43,95
178231,note_off,225,0,0,,0,,,43,95
178231,note_off,0,0,0,,0,,,55,95
178233,note_off,2,0,0,,1,,,67,127
178234,note_on,1,0,0,,1,,,79,127
178234,note_on,0,0,0,,0,,,67,95
178234,note_on,0,0,0,,0,,,43,95
178459,note_off,225,0,0,,0,,,43,95
178461,note_off,2,0,0,,1,,,79,127
178462,note_on,1,0,0,,1,,,71,127
178462,note_on,0,0,0,,0,,,43,95
178687,note_off,225,0,0,,0,,,43,95
178689,note_off,2,0,0,,1,,,71,127
178690,note_on,1,0,0,,1,,,72,127
178690,note_on,0,0,0,,0,,,45,95
178915,note_off,225,0,0,,0,,,45,95
178917,note_off,2,0,0,,1,,,72,127
178918,note_on,1,0,0,,1,,,74,127
178918,note_on,0,0,0,,0,,,47,95
179143,note_off,225,0,0,,0,,,47,95
179143,note_off,0,0,0,,0,,,67,95
179145,note_off,2,0,0,,1,,,74,127
179146,note_on,1,0,0,,1,,,76,127
179146,note_on,0,0,0,,0,,,67,95
179146,note_on,0,0,0,,0,,,48,95
179371,note_off,225,0,0,,0,,,48,95
179373,note_off,2,0,0,,1,,,76,127
179374,note_on,1,0,0,,1,,,79,127
179374,note_on,0,0,0,,0,,,52,95
179599,note_off,225,0,0,,0,,,52,95
179601,note_off,2,0,0,,1,,,79,127
179602,note_on,1,0,0,,1,,,78,127
179602,note_on,0,0,0,,0,,,50,95
179827,note_off,225,0,0,,0,,,50,95
179829,note_off,2,0,0,,1,,,78,127
179830,note_on,1,0,0,,1,,,76,127
179830,note_on,0,0,0,,0,,,48,95
180055,note_off,225,0,0,,0,,,48,95
180055,note_off,0,0,0,,0,,,67,95
180057,note_off,2,0,0,,1,,,76,127
180058,note_on,1,0,0,,1,,,74,127
180058,note_on,0,0,0,,0,,,67,95
180058,note_on,0,0,0,,0,,,47,95
180283,note_off,225,0,0,,0,,,47,95
180285,note_off,2,0,0,,1,,,74,127
180286,note_on,1,0,0,,1,,,71,127
180286,note_on,0,0,0,,0,,,47,95
180511,note_off,225,0,0,,0,,,47,95
180513,note_off,2,0,0,,1,,,71,127
180514,note_on,1,0,0,,1,,,69,127
180514,note_on,0,0,0,,0,,,45,95
180739,note_off,225,0,0,,0,,,45,95
180741,note_off,2,0,0,,1,,,69,127
180742,note_on,1,0,0,,1,,,67,127
180742,note_on,0,0,0,,0,,,43,95
180967,note_off,225,0,0,,0,,,43,95
180967,note_off,0,0,0,,0,,,67,95
180969,note_off,2,0,0,,1,,,67,127
180970,note_on,1,0,0,,1,,,76,127
180970,note_on,0,0,0,,0,,,64,95
180970,note_on,0,0,0,,0,,,48,95
181490,note_off,520,0,0,,0,,,48,95
181490,note_off,0,0,0,,0,,,64,95
181490,note_off,0,0,0,,1,,,76,127
181496,note_on,6,0,0,,0,,,50,95
181496,note_on,0,0,0,,0,,,69,95
181496,note_on,0,0,0,,1,,,78,127
182016,note_off,520,0,0,,1,,,78,127
182016,note_off,0,0,0,,0,,,69,95
182016,note_off,0,0,0,,0,,,50,95
182070,note_on,54,0,0,,0,,,43,95
182070,note_on,0,0,0,,0,,,67,95
182070,note_on,0,0,0,,1,,,79,127
182070,note_on,0,0,0,,1,,,55,127
182070,note_on,0,0,0,,1,,,71,127
182070,note_on,0,0,0,,1,,,62,127
183470,note_off,1400,0,0,,1,,,62,127
183470,note_off,0,0,0,,1,,,71,127
183470,note_off,0,0,0,,1,,,55,127
183470,note_off,0,0,0,,1,,,79,127
183470,note_off,0,0,0,,0,,,67,95
183470,note_off,0,0,0,,0,,,43,95
186227,note_on,2757,0,0,,0,,,55,95
186227,note_on,0,0,0,,0,,,62,95
186227,note_on,0,0,0,,0,,,71,95
186227,note_on,0,0,0,,1,,,74,127
186871,note_off,644,0,0,,0,,,71,95
186871,note_off,0,0,0,,0,,,62,95
186871,note_off,0,0,0,,0,,,55,95
186874,note_off,3,0,0,,1,,,74,127
186876,note_on,2,0,0,,1,,,67,127
186876,note_on,0,0,0,,0,,,71,95
186876,note_on,0,0,0,,0,,,43,95
187358,note_off,482,0,0,,0,,,43,95
187358,note_off,0,0,0,,0,,,71,95
187363,note_on,5,0,0,,0,,,72,95
187363,note_on,0,0,0,,0,,,45,95
187520,note_off,157,0,0,,0,,,45,95
187520,note_off,0,0,0,,0,,,72,95
187523,note_off,3,0,0,,1,,,67,127
187525,note_on,2,0,0,,0,,,74,95
187525,note_on,0,0,0,,0,,,47,95
188007,note_off,482,0,0,,0,,,47,95
188007,note_off,0,0,0,,0,,,74,95
188012,note_on,5,0,0,,1,,,74,127
188012,note_on,0,0,0,,0,,,71,95
188012,note_on,0,0,0,,0,,,43,95
188169,note_off,157,0,0,,0,,,43,95
188169,note_off,0,0,0,,0,,,71,95
188172,note_off,3,0,0,,1,,,74,127
188174,note_on,2,0,0,,1,,,76,127
188174,note_on,0,0,0,,0,,,67,95
188174,note_on,0,0,0,,0,,,64,95
188174,note_on,0,0,0,,0,,,48,95
188659,note_off,485,0,0,,1,,,76,127
188661,note_on,2,0,0,,1,,,78,127
188818,note_off,157,0,0,,0,,,48,95
188818,note_off,0,0,0,,0,,,67,95
188821,note_off,3,0,0,,1,,,78,127
188823,note_on,2,0,0,,1,,,78,127
188823,note_on,0,0,0,,0,,,67,95
188823,note_on,0,0,0,,0,,,48,95
189146,note_off,323,0,0,,1,,,78,127
189148,note_on,2,0,0,,1,,,79,127
189467,note_off,319,0,0,,0,,,48,95
189467,note_off,0,0,0,,0,,,64,95
189470,note_off,3,0,0,,1,,,79,127
189472,note_on,2,0,0,,0,,,64,95
189472,note_on,0,0,0,,0,,,48,95
189959,note_on,487,0,0,,1,,,72,127
190116,note_off,157,0,0,,0,,,48,95
190116,note_off,0,0,0,,0,,,64,95
190116,note_off,0,0,0,,0,,,67,95
190119,note_off,3,0,0,,1,,,72,127
190121,note_on,2,0,0,,1,,,74,127
190121,note_on,0,0,0,,0,,,67,95
190121,note_on,0,0,0,,0,,,62,95
190121,note_on,0,0,0,,0,,,47,95
190606,note_off,485,0,0,,1,,,74,127
190608,note_on,2,0,0,,1,,,78,127
190765,note_off,157,0,0,,0,,,47,95
190765,note_off,0,0,0,,0,,,62,95
190768,note_off,3,0,0,,1,,,78,127
190770,note_on,2,0,0,,1,,,78,127
190770,note_on,0,0,0,,0,,,62,95
190770,note_on,0,0,0,,0,,,47,95
191093,note_off,323,0,0,,1,,,78,127
191095,note_on,2,0,0,,1,,,79,127
191414,note_off,319,0,0,,0,,,47,95
191414,note_off,0,0,0,,0,,,67,95
191417,note_off,3,0,0,,1,,,79,127
191419,note_on,2,0,0,,0,,,67,95
191419,note_on,0,0,0,,0,,,47,95
191906,note_on,487,0,0,,1,,,71,127
192063,note_off,157,0,0,,0,,,47,95
192063,note_off,0,0,0,,0,,,67,95
192063,note_off,0,0,0,,0,,,62,95
192066,note_off,3,0,0,,1,,,71,127
192068,note_on,2,0,0,,1,,,72,127
192068,note_on,0,0,0,,0,,,69,95
192068,note_on,0,0,0,,0,,,64,95
192068,note_on,0,0,0,,0,,,45,95
192553,note_off,485,0,0,,1,,,72,127
192555,note_on,2,0,0,,1,,,76,127
192712,note_off,157,0,0,,0,,,45,95
192712,note_off,0,0,0,,0,,,64,95
192715,note_off,3,0,0,,1,,,76,127
192717,note_on,2,0,0,,1,,,74,127
192717,note_on,0,0,0,,0,,,62,95
192717,note_on,0,0,0,,0,,,54,95
193202,note_off,485,0,0,,1,,,74,127
193204,note_on,2,0,0,,1,,,71,127
193361,note_off,157,0,0,,0,,,54,95
193361,note_off,0,0,0,,0,,,62,95
193364,note_off,3,0,0,,1,,,71,127
193366,note_on,2,0,0,,1,,,72,127
193366,note_on,0,0,0,,0,,,66,95
193366,note_on,0,0,0,,0,,,50,95
193851,note_off,485,0,0,,1,,,72,127
193853,note_on,2,0,0,,1,,,69,127
194010,note_off,157,0,0,,0,,,50,95
194010,note_off,0,0,0,,0,,,66,95
194010,note_off,0,0,0,,0,,,69,95
194013,note_off,3,0,0,,1,,,69,127
194015,note_on,2,0,0,,1,,,69,127
194015,note_on,0,0,0,,0,,,71,95
194015,note_on,0,0,0,,0,,,62,95
194015,note_on,0,0,0,,0,,,55,95
194338,note_off,323,0,0,,1,,,69,127
194340,note_on,2,0,0,,1,,,71,127
194659,note_off,319,0,0,,0,,,55,95
194659,note_off,0,0,0,,0,,,62,95
194662,note_off,3,0,0,,1,,,71,127
194664,note_on,2,0,0,,0,,,62,95
194664,note_on,0,0,0,,0,,,55,95
195151,note_on,487,0,0,,1,,,79,127
195308,note_off,157,0,0,,0,,,55,95
195308,note_off,0,0,0,,0,,,71,95
195311,note_off,3,0,0,,1,,,79,127
195313,note_on,2,0,0,,1,,,76,127
195313,note_on,0,0,0,,0,,,71,95
195313,note_on,0,0,0,,0,,,55,95
195798,note_off,485,0,0,,1,,,76,127
195800,note_on,2,0,0,,1,,,74,127
195957,note_off,157,0,0,,0,,,55,95
195957,note_off,0,0,0,,0,,,71,95
195957,note_off,0,0,0,,0,,,62,95
195960,note_off,3,0,0,,1,,,74,127
195962,note_on,2,0,0,,1,,,73,127
195962,note_on,0,0,0,,0,,,69,95
195962,note_on,0,0,0,,0,,,64,95
195962,note_on,0,0,0,,0,,,55,95
196447,note_off,485,0,0,,1,,,73,127
196449,note_on,2,0,0,,1,,,76,127
196606,note_off,157,0,0,,0,,,55,95
196606,note_off,0,0,0,,0,,,64,95
196609,note_off,3,0,0,,1,,,76,127
196611,note_on,2,0,0,,1,,,74,127
196611,note_on,0,0,0,,0,,,62,95
196611,note_on,0,0,0,,0,,,54,95
197096,note_off,485,0,0,,1,,,74,127
197098,note_on,2,0,0,,1,,,78,127
197255,note_off,157,0,0,,0,,,54,95
197255,note_off,0,0,0,,0,,,62,95
197255,note_off,0,0,0,,0,,,69,95
197258,note_off,3,0,0,,1,,,78,127
197260,note_on,2,0,0,,1,,,76,127
197260,note_on,0,0,0,,0,,,69,95
197260,note_on,0,0,0,,0,,,64,95
197260,note_on,0,0,0,,0,,,49,95
197745,note_off,485,0,0,,1,,,76,127
197747,note_on,2,0,0,,1,,,79,127
197904,note_off,157,0,0,,0,,,49,95
197904,note_off,0,0,0,,0,,,64,95
197904,note_off,0,0,0,,0,,,69,95
197907,note_off,3,0,0,,1,,,79,127
197909,note_on,2,0,0,,1,,,78,127
197909,note_on,0,0,0,,0,,,69,95
197909,note_on,0,0,0,,0,,,66,95
197909,note_on,0,0,0,,0,,,50,95
198070,note_off,161,0,0,,1,,,78,127
198072,note_on,2,0,0,,1,,,79,127
198233,note_off,161,0,0,,1,,,79,127
198235,note_on,2,0,0,,1,,,81,127
198554,note_off,319,0,0,,0,,,50,95
198554,note_off,0,0,0,,0,,,66,95
198557,note_off,3,0,0,,1,,,81,127
198559,note_on,2,0,0,,0,,,66,95
198559,note_on,0,0,0,,0,,,50,95
199046,note_on,487,0,0,,1,,,81,127
199203,note_off,157,0,0,,0,,,50,95
199203,note_off,0,0,0,,0,,,69,95
199206,note_off,3,0,0,,1,,,81,127
199208,note_on,2,0,0,,1,,,78,127
199208,note_on,0,0,0,,0,,,69,95
199208,note_on,0,0,0,,0,,,48,95
199693,note_off,485,0,0,,1,,,78,127
199695,note_on,2,0,0,,1,,,76,127
199852,note_off,157,0,0,,0,,,48,95
199852,note_off,0,0,0,,0,,,69,95
199852,note_off,0,0,0,,0,,,66,95
199855,note_off,3,0,0,,1,,,76,127
199857,note_on,2,0,0,,1,,,75,127
199857,note_on,0,0,0,,0,,,71,95
199857,note_on,0,0,0,,0,,,66,95
199857,note_on,0,0,0,,0,,,47,95
200342,note_off,485,0,0,,1,,,75,127
200344,note_on,2,0,0,,1,,,78,127
200501,note_off,157,0,0,,0,,,47,95
200501,note_off,0,0,0,,0,,,66,95
200504,note_off,3,0,0,,1,,,78,127
200506,note_on,2,0,0,,1,,,76,127
200506,note_on,0,0,0,,0,,,64,95
200506,note_on,0,0,0,,0,,,55,95
200991,note_off,485,0,0,,1,,,76,127
200993,note_on,2,0,0,,1,,,79,127
201150,note_off,157,0,0,,0,,,55,95
201150,note_off,0,0,0,,0,,,64,95
201150,note_off,0,0,0,,0,,,71,95
201153,note_off,3,0,0,,1,,,79,127
201155,note_on,2,0,0,,1,,,78,127
201155,note_on,0,0,0,,0,,,71,95
201155,note_on,0,0,0,,0,,,66,95
201155,note_on,0,0,0,,0,,,51,95
201640,note_off,485,0,0,,1,,,78,127
201642,note_on,2,0,0,,1,,,81,127
201799,note_off,157,0,0,,0,,,51,95
201799,note_off,0,0,0,,0,,,66,95
201799,note_off,0,0,0,,0,,,71,95
201802,note_off,3,0,0,,1,,,81,127
201804,note_on,2,0,0,,1,,,79,127
201804,note_on,0,0,0,,0,,,71,95
201804,note_on,0,0,0,,0,,,67,95
201804,note_on,0,0,0,,0,,,52,95
201965,note_off,161,0,0,,1,,,79,127
201967,note_on,2,0,0,,1,,,78,127
202128,note_off,161,0,0,,1,,,78,127
202130,note_on,2,0,0,,1,,,76,127
202449,note_off,319,0,0,,0,,,52,95
202449,note_off,0,0,0,,0,,,67,95
202452,note_off,3,0,0,,1,,,76,127
202454,note_on,2,0,0,,0,,,67,95
202454,note_on,0,0,0,,0,,,52,95
202941,note_on,487,0,0,,1,,,83,127
203098,note_off,157,0,0,,0,,,52,95
203098,note_off,0,0,0,,0,,,67,95
203098,note_off,0,0,0,,0,,,71,95
203101,note_off,3,0,0,,1,,,83,127
203103,note_on,2,0,0,,1,,,83,127
203103,note_on,0,0,0,,0,,,71,95
203103,note_on,0,0,0,,0,,,64,95
203103,note_on,0,0,0,,0,,,55,95
203588,note_off,485,0,0,,1,,,83,127
203590,note_on,2,0,0,,1,,,74,127
203747,note_off,157,0,0,,0,,,55,95
203747,note_off,0,0,0,,0,,,64,95
203747,note_off,0,0,0,,0,,,71,95
203750,note_off,3,0,0,,1,,,74,127
203752,note_on,2,0,0,,1,,,72,127
203752,note_on,0,0,0,,0,,,72,95
203752,note_on,0,0,0,,0,,,64,95
203752,note_on,0,0,0,,0,,,57,95
204237,note_off,485,0,0,,1,,,72,127
204239,note_on,2,0,0,,1,,,81,127
204396,note_off,157,0,0,,0,,,57,95
204396,note_off,0,0,0,,0,,,64,95
204396,note_off,0,0,0,,0,,,72,95
204399,note_off,3,0,0,,1,,,81,127
204401,note_on,2,0,0,,1,,,81,127
204401,note_on,0,0,0,,0,,,69,95
204401,note_on,0,0,0,,0,,,62,95
204401,note_on,0,0,0,,0,,,54,95
205045,note_off,644,0,0,,0,,,54,95
205045,note_off,0,0,0,,0,,,62,95
205050,note_on,5,0,0,,0,,,66,95
205050,note_on,0,0,0,,0,,,50,95
205129,note_off,79,0,0,,1,,,81,127
205131,note_on,2,0,0,,1,,,79,127
205210,note_off,79,0,0,,1,,,79,127
205212,note_on,2,0,0,,1,,,78,127
205291,note_off,79,0,0,,1,,,78,127
205293,note_on,2,0,0,,1,,,76,127
205372,note_off,79,0,0,,1,,,76,127
205374,note_on,2,0,0,,1,,,74,127
205535,note_off,161,0,0,,1,,,74,127
205537,note_on,2,0,0,,1,,,72,127
205694,note_off,157,0,0,,0,,,50,95
205694,note_off,0,0,0,,0,,,66,95
205694,note_off,0,0,0,,0,,,69,95
205697,note_off,3,0,0,,1,,,72,127
205699,note_on,2,0,0,,1,,,71,127
205699,note_on,0,0,0,,0,,,71,95
205699,note_on,0,0,0,,0,,,62,95
205699,note_on,0,0,0,,0,,,55,95
206184,note_off,485,0,0,,1,,,71,127
206186,note_on,2,0,0,,1,,,79,127
206343,note_off,157,0,0,,0,,,55,95
206343,note_off,0,0,0,,0,,,62,95
206343,note_off,0,0,0,,0,,,71,95
206346,note_off,3,0,0,,1,,,79,127
206348,note_on,2,0,0,,1,,,79,127
206348,note_on,0,0,0,,0,,,67,95
206348,note_on,0,0,0,,0,,,62,95
206348,note_on,0,0,0,,0,,,47,95
206992,note_off,644,0,0,,0,,,47,95
206992,note_off,0,0,0,,0,,,62,95
206997,note_on,5,0,0,,0,,,64,95
206997,note_on,0,0,0,,0,,,48,95
207076,note_off,79,0,0,,1,,,79,127
207078,note_on,2,0,0,,1,,,78,127
207157,note_off,79,0,0,,1,,,78,127
207159,note_on,2,0,0,,1,,,76,127
207238,note_off,79,0,0,,1,,,76,127
207240,note_on,2,0,0,,1,,,74,127
207319,note_off,79,0,0,,1,,,74,127
207321,note_on,2,0,0,,1,,,72,127
207482,note_off,161,0,0,,1,,,72,127
207484,note_on,2,0,0,,1,,,71,127
207641,note_off,157,0,0,,0,,,48,95
207641,note_off,0,0,0,,0,,,64,95
207641,note_off,0,0,0,,0,,,67,95
207644,note_off,3,0,0,,1,,,71,127
207646,note_on,2,0,0,,1,,,69,127
207646,note_on,0,0,0,,0,,,69,95
207646,note_on,0,0,0,,0,,,66,95
207646,note_on,0,0,0,,0,,,50,95
208290,note_off,644,0,0,,0,,,50,95
208290,note_off,0,0,0,,0,,,69,95
208293,note_off,3,0,0,,1,,,69,127
208295,note_on,2,0,0,,0,,,69,95
208295,note_on,0,0,0,,0,,,50,95
208782,note_on,487,0,0,,1,,,74,127
208939,note_off,157,0,0,,0,,,50,95
208939,note_off,0,0,0,,0,,,66,95
208942,note_off,3,0,0,,1,,,74,127
208944,note_on,2,0,0,,1,,,74,127
208944,note_on,0,0,0,,0,,,66,95
208944,note_on,0,0,0,,0,,,50,95
209429,note_off,485,0,0,,1,,,74,127
209431,note_on,2,0,0,,1,,,66,127
209588,note_off,157,0,0,,0,,,50,95
209588,note_off,0,0,0,,0,,,66,95
209588,note_off,0,0,0,,0,,,69,95
209591,note_off,3,0,0,,1,,,66,127
209593,note_on,2,0,0,,1,,,67,127
209593,note_on,0,0,0,,0,,,60,95
209593,note_on,0,0,0,,0,,,67,95
209593,note_on,0,0,0,,0,,,52,95
210078,note_off,485,0,0,,1,,,67,127
210080,note_on,2,0,0,,1,,,71,127
210237,note_off,157,0,0,,0,,,52,95
210237,note_off,0,0,0,,0,,,67,95
210237,note_off,0,0,0,,0,,,60,95
210240,note_off,3,0,0,,1,,,71,127
210242,note_on,2,0,0,,1,,,69,127
210242,note_on,0,0,0,,0,,,62,95
210242,note_on,0,0,0,,0,,,69,95
210242,note_on,0,0,0,,0,,,54,95
210727,note_off,485,0,0,,1,,,69,127
210729,note_on,2,0,0,,1,,,72,127
210886,note_off,157,0,0,,0,,,54,95
210886,note_off,0,0,0,,0,,,69,95
210886,note_off,0,0,0,,0,,,62,95
210889,note_off,3,0,0,,1,,,72,127
210891,note_on,2,0,0,,1,,,71,127
210891,note_on,0,0,0,,0,,,62,95
210891,note_on,0,0,0,,0,,,71,95
210891,note_on,0,0,0,,0,,,55,95
211376,note_off,485,0,0,,1,,,71,127
211378,note_on,2,0,0,,1,,,74,127
211535,note_off,157,0,0,,0,,,55,95
211535,note_off,0,0,0,,0,,,71,95
211535,note_off,0,0,0,,0,,,62,95
211538,note_off,3,0,0,,1,,,74,127
211540,note_on,2,0,0,,1,,,72,127
211540,note_on,0,0,0,,0,,,64,95
211540,note_on,0,0,0,,0,,,60,95
211540,note_on,0,0,0,,0,,,57,95
211701,note_off,161,0,0,,1,,,72,127
211703,note_on,2,0,0,,1,,,71,127
211864,note_off,161,0,0,,1,,,71,127
211866,note_on,2,0,0,,1,,,72,127
212185,note_off,319,0,0,,0,,,57,95
212185,note_off,0,0,0,,0,,,60,95
212185,note_off,0,0,0,,0,,,64,95
212188,note_off,3,0,0,,1,,,72,127
212190,note_on,2,0,0,,0,,,69,95
212190,note_on,0,0,0,,0,,,62,95
212190,note_on,0,0,0,,0,,,54,95
212677,note_on,487,0,0,,1,,,81,127
212834,note_off,157,0,0,,0,,,54,95
212834,note_off,0,0,0,,0,,,62,95
212837,note_off,3,0,0,,1,,,81,127
212839,note_on,2,0,0,,1,,,81,127
212839,note_on,0,0,0,,0,,,66,95
212839,note_on,0,0,0,,0,,,50,95
213324,note_off,485,0,0,,1,,,81,127
213326,note_on,2,0,0,,1,,,72,127
213483,note_off,157,0,0,,0,,,50,95
213483,note_off,0,0,0,,0,,,66,95
213483,note_off,0,0,0,,0,,,69,95
213486,note_off,3,0,0,,1,,,72,127
213488,note_on,2,0,0,,1,,,71,127
213488,note_on,0,0,0,,0,,,71,95
213488,note_on,0,0,0,,0,,,62,95
213488,note_on,0,0,0,,0,,,43,95
213973,note_off,485,0,0,,1,,,71,127
213975,note_on,2,0,0,,1,,,74,127
214132,note_off,157,0,0,,0,,,43,95
214132,note_off,0,0,0,,0,,,62,95
214132,note_off,0,0,0,,0,,,71,95
214135,note_off,3,0,0,,1,,,74,127
214137,note_on,2,0,0,,1,,,72,127
214137,note_on,0,0,0,,0,,,69,95
214137,note_on,0,0,0,,0,,,66,95
214137,note_on,0,0,0,,0,,,45,95
214622,note_off,485,0,0,,1,,,72,127
214624,note_on,2,0,0,,1,,,76,127
214781,note_off,157,0,0,,0,,,45,95
214781,note_off,0,0,0,,0,,,66,95
214781,note_off,0,0,0,,0,,,69,95
214784,note_off,3,0,0,,1,,,76,127
214786,note_on,2,0,0,,1,,,74,127
214786,note_on,0,0,0,,0,,,67,95
214786,note_on,0,0,0,,0,,,62,95
214786,note_on,0,0,0,,0,,,47,95
215271,note_off,485,0,0,,1,,,74,127
215273,note_on,2,0,0,,1,,,78,127
215430,note_off,157,0,0,,0,,,47,95
215430,note_off,0,0,0,,0,,,62,95
215430,note_off,0,0,0,,0,,,67,95
215433,note_off,3,0,0,,1,,,78,127
215435,note_on,2,0,0,,1,,,76,127
215435,note_on,0,0,0,,0,,,69,95
215435,note_on,0,0,0,,0,,,64,95
215435,note_on,0,0,0,,0,,,48,95
215596,note_off,161,0,0,,1,,,76,127
215598,note_on,2,0,0,,1,,,74,127
215759,note_off,161,0,0,,1,,,74,127
215761,note_on,2,0,0,,1,,,72,127
216080,note_off,319,0,0,,0,,,64,95
216080,note_off,0,0,0,,0,,,69,95
216083,note_off,3,0,0,,1,,,72,127
216085,note_on,2,0,0,,1,,,78,127
216246,note_off,161,0,0,,1,,,78,127
216248,note_on,2,0,0,,1,,,76,127
216405,note_off,157,0,0,,0,,,48,95
216408,note_off,3,0,0,,1,,,76,127
216410,note_on,2,0,0,,1,,,74,127
216410,note_on,0,0,0,,0,,,66,95
216410,note_on,0,0,0,,0,,,48,95
216729,note_off,319,0,0,,0,,,48,95
216729,note_off,0,0,0,,0,,,66,95
216732,note_off,3,0,0,,1,,,74,127
216734,note_on,2,0,0,,1,,,79,127
216734,note_on,0,0,0,,0,,,67,95
216734,note_on,0,0,0,,0,,,47,95
217216,note_off,482,0,0,,0,,,47,95
217216,note_off,0,0,0,,0,,,67,95
217221,note_on,5,0,0,,0,,,71,95
217221,note_on,0,0,0,,0,,,43,95
217378,note_off,157,0,0,,0,,,43,95
217378,note_off,0,0,0,,0,,,71,95
217383,note_on,5,0,0,,0,,,69,95
217383,note_on,0,0,0,,0,,,64,95
217383,note_on,0,0,0,,0,,,48,95
217868,note_off,485,0,0,,1,,,79,127
217870,note_on,2,0,0,,1,,,69,127
218027,note_off,157,0,0,,0,,,48,95
218027,note_off,0,0,0,,0,,,64,95
218030,note_off,3,0,0,,1,,,69,127
218032,note_on,2,0,0,,1,,,69,127
218032,note_on,0,0,0,,0,,,66,95
218032,note_on,0,0,0,,0,,,50,95
218676,note_off,644,0,0,,0,,,50,95
218676,note_off,0,0,0,,0,,,66,95
218681,note_on,5,0,0,,0,,,66,95
218681,note_on,0,0,0,,0,,,60,95
218681,note_on,0,0,0,,0,,,38,95
219004,note_off,323,0,0,,1,,,69,127
219006,note_on,2,0,0,,1,,,67,127
219325,note_off,319,0,0,,0,,,38,95
219325,note_off,0,0,0,,0,,,60,95
219325,note_off,0,0,0,,0,,,66,95
219325,note_off,0,0,0,,0,,,69,95
219328,note_off,3,0,0,,1,,,67,127
219330,note_on,2,0,0,,1,,,67,127
219330,note_on,0,0,0,,0,,,59,95
219330,note_on,0,0,0,,0,,,67,95
219330,note_on,0,0,0,,0,,,43,95
219802,note_off,472,0,0,,1,,,67,127
219833,note_on,31,0,0,,1,,,74,127
219949,note_off,116,0,0,,0,,,67,95
219974,note_off,25,0,0,,0,,,43,95
219974,note_off,0,0,0,,0,,,59,95
219993,note_off,19,0,0,,1,,,74,127
219995,note_on,2,0,0,,1,,,74,127
220482,note_on,487,0,0,,0,,,55,95
220482,note_on,0,0,0,,0,,,67,95
220482,note_on,0,0,0,,0,,,62,95
220639,note_off,157,0,0,,0,,,62,95
220639,note_off,0,0,0,,0,,,67,95
220639,note_off,0,0,0,,0,,,55,95
220644,note_on,5,0,0,,0,,,54,95
220644,note_on,0,0,0,,0,,,69,95
220644,note_on,0,0,0,,0,,,62,95
220967,note_off,323,0,0,,1,,,74,127
220969,note_on,2,0,0,,1,,,69,127
221288,note_off,319,0,0,,0,,,62,95
221288,note_off,0,0,0,,0,,,69,95
221288,note_off,0,0,0,,0,,,54,95
221291,note_off,3,0,0,,1,,,69,127
221293,note_on,2,0,0,,0,,,55,95
221293,note_on,0,0,0,,0,,,67,95
221293,note_on,0,0,0,,0,,,62,95
221293,note_on,0,0,0,,1,,,71,127
221778,note_off,485,0,0,,1,,,71,127
221780,note_on,2,0,0,,1,,,74,127
221937,note_off,157,0,0,,0,,,62,95
221937,note_off,0,0,0,,0,,,67,95
221937,note_off,0,0,0,,0,,,55,95
221940,note_off,3,0,0,,1,,,74,127
221942,note_on,2,0,0,,1,,,74,127
222429,note_on,487,0,0,,0,,,55,95
222429,note_on,0,0,0,,0,,,62,95
222429,note_on,0,0,0,,0,,,71,95
222586,note_off,157,0,0,,0,,,71,95
222586,note_off,0,0,0,,0,,,62,95
222586,note_off,0,0,0,,0,,,55,95
222591,note_on,5,0,0,,0,,,50,95
222591,note_on,0,0,0,,0,,,69,95
222591,note_on,0,0,0,,0,,,66,95
222914,note_off,323,0,0,,1,,,74,127
222916,note_on,2,0,0,,1,,,66,127
223235,note_off,319,0,0,,0,,,66,95
223235,note_off,0,0,0,,0,,,69,95
223235,note_off,0,0,0,,0,,,50,95
223238,note_off,3,0,0,,1,,,66,127
223240,note_on,2,0,0,,0,,,52,95
223240,note_on,0,0,0,,1,,,67,127
223722,note_off,482,0,0,,0,,,52,95
223727,note_on,5,0,0,,0,,,50,95
223727,note_on,0,0,0,,0,,,67,95
223884,note_off,157,0,0,,0,,,67,95
223884,note_off,0,0,0,,0,,,50,95
223889,note_on,5,0,0,,0,,,48,95
223889,note_on,0,0,0,,0,,,69,95
224212,note_off,323,0,0,,1,,,67,127
224214,note_on,2,0,0,,1,,,74,127
224371,note_off,157,0,0,,0,,,69,95
224371,note_off,0,0,0,,0,,,48,95
224376,note_on,5,0,0,,0,,,47,95
224376,note_on,0,0,0,,0,,,67,95
224533,note_off,157,0,0,,0,,,67,95
224533,note_off,0,0,0,,0,,,47,95
224536,note_off,3,0,0,,1,,,74,127
224538,note_on,2,0,0,,0,,,45,95
224538,note_on,0,0,0,,0,,,66,95
224538,note_on,0,0,0,,1,,,72,127
225020,note_off,482,0,0,,0,,,66,95
225020,note_off,0,0,0,,0,,,45,95
225023,note_off,3,0,0,,1,,,72,127
225025,note_on,2,0,0,,0,,,43,95
225025,note_on,0,0,0,,0,,,67,95
225025,note_on,0,0,0,,1,,,71,127
225182,note_off,157,0,0,,0,,,67,95
225182,note_off,0,0,0,,0,,,43,95
225185,note_off,3,0,0,,1,,,71,127
225187,note_on,2,0,0,,0,,,50,95
225187,note_on,0,0,0,,0,,,66,95
225187,note_on,0,0,0,,0,,,69,95
225187,note_on,0,0,0,,1,,,69,127
225686,note_off,499,0,0,,1,,,69,127
225704,note_on,18,0,0,,1,,,69,127
225850,note_off,146,0,0,,0,,,69,95
225850,note_off,0,0,0,,0,,,50,95
225869,note_off,19,0,0,,1,,,69,127
225871,note_on,2,0,0,,1,,,74,127
225871,note_on,0,0,0,,0,,,69,95
225871,note_on,0,0,0,,0,,,50,95
226385,note_off,514,0,0,,1,,,74,127
226403,note_on,18,0,0,,1,,,69,127
226538,note_off,135,0,0,,0,,,66,95
226554,note_off,16,0,0,,0,,,50,95
226574,note_off,20,0,0,,1,,,69,127
226576,note_on,2,0,0,,0,,,50,95
226576,note_on,0,0,0,,0,,,66,95
226576,note_on,0,0,0,,1,,,66,127
227114,note_off,538,0,0,,1,,,66,127
227132,note_on,18,0,0,,1,,,69,127
227274,note_off,142,0,0,,0,,,69,95
227290,note_off,16,0,0,,0,,,66,95
227290,note_off,0,0,0,,0,,,50,95
227310,note_off,20,0,0,,1,,,69,127
227312,note_on,2,0,0,,1,,,62,127
227312,note_on,0,0,0,,0,,,62,95
227312,note_on,0,0,0,,0,,,50,95
228912,note_off,1600,0,0,,0,,,50,95
228912,note_off,0,0,0,,0,,,62,95
228912,note_off,0,0,0,,1,,,62,127
229472,note_on,560,0,0,,1,,,67,127
229472,note_on,0,0,0,,0,,,71,95
229472,note_on,0,0,0,,0,,,62,95
229472,note_on,0,0,0,,0,,,55,95
229690,note_off,218,0,0,,1,,,67,127
229691,note_on,1,0,0,,1,,,74,127
229907,note_off,216,0,0,,0,,,55,95
229907,note_off,0,0,0,,0,,,62,95
229907,note_off,0,0,0,,0,,,71,95
229909,note_off,2,0,0,,1,,,74,127
229910,note_on,1,0,0,,1,,,72,127
229910,note_on,0,0,0,,0,,,69,95
229910,note_on,0,0,0,,0,,,66,95
229910,note_on,0,0,0,,0,,,50,95
230126,note_off,216,0,0,,0,,,50,95
230126,note_off,0,0,0,,0,,,66,95
230126,note_off,0,0,0,,0,,,69,95
230128,note_off,2,0,0,,1,,,72,127
230129,note_on,1,0,0,,1,,,71,127
230129,note_on,0,0,0,,0,,,71,95
230129,note_on,0,0,0,,0,,,62,95
230129,note_on,0,0,0,,0,,,43,95
230345,note_off,216,0,0,,0,,,43,95
230347,note_off,2,0,0,,1,,,71,127
230348,note_on,1,0,0,,1,,,69,127
230348,note_on,0,0,0,,0,,,45,95
230564,note_off,216,0,0,,0,,,45,95
230566,note_off,2,0,0,,1,,,69,127
230567,note_on,1,0,0,,1,,,67,127
230567,note_on,0,0,0,,0,,,47,95
230783,note_off,216,0,0,,0,,,47,95
230783,note_off,0,0,0,,0,,,62,95
230783,note_off,0,0,0,,0,,,71,95
230785,note_off,2,0,0,,1,,,67,127
230786,note_on,1,0,0,,1,,,69,127
230786,note_on,0,0,0,,0,,,64,95
230786,note_on,0,0,0,,0,,,48,95
231002,note_off,216,0,0,,0,,,48,95
231002,note_off,0,0,0,,0,,,64,95
231004,note_off,2,0,0,,1,,,69,127
231005,note_on,1,0,0,,1,,,67,127
231005,note_on,0,0,0,,0,,,62,95
231005,note_on,0,0,0,,0,,,47,95
231221,note_off,216,0,0,,0,,,47,95
231221,note_off,0,0,0,,0,,,62,95
231223,note_off,2,0,0,,1,,,67,127
231224,note_on,1,0,0,,1,,,66,127
231224,note_on,0,0,0,,0,,,60,95
231224,note_on,0,0,0,,0,,,45,95
231440,note_off,216,0,0,,0,,,45,95
231440,note_off,0,0,0,,0,,,60,95
231442,note_off,2,0,0,,1,,,66,127
231443,note_on,1,0,0,,1,,,67,127
231443,note_on,0,0,0,,0,,,62,95
231443,note_on,0,0,0,,0,,,47,95
231659,note_off,216,0,0,,0,,,47,95
231661,note_off,2,0,0,,1,,,67,127
231662,note_on,1,0,0,,1,,,66,127
231662,note_on,0,0,0,,0,,,45,95
231878,note_off,216,0,0,,0,,,45,95
231880,note_off,2,0,0,,1,,,66,127
231881,note_on,1,0,0,,1,,,67,127
231881,note_on,0,0,0,,0,,,43,95
232097,note_off,216,0,0,,0,,,43,95
232097,note_off,0,0,0,,0,,,62,95
232099,note_off,2,0,0,,1,,,67,127
232100,note_on,1,0,0,,1,,,76,127
232100,note_on,0,0,0,,0,,,67,95
232100,note_on,0,0,0,,0,,,48,95
232316,note_off,216,0,0,,0,,,48,95
232316,note_off,0,0,0,,0,,,67,95
232318,note_off,2,0,0,,1,,,76,127
232319,note_on,1,0,0,,1,,,67,127
232319,note_on,0,0,0,,0,,,62,95
232319,note_on,0,0,0,,0,,,47,95
232535,note_off,216,0,0,,0,,,47,95
232535,note_off,0,0,0,,0,,,62,95
232537,note_off,2,0,0,,1,,,67,127
232538,note_on,1,0,0,,1,,,66,127
232538,note_on,0,0,0,,0,,,60,95
232538,note_on,0,0,0,,0,,,45,95
232754,note_off,216,0,0,,0,,,45,95
232754,note_off,0,0,0,,0,,,60,95
232756,note_off,2,0,0,,1,,,66,127
232757,note_on,1,0,0,,1,,,67,127
232757,note_on,0,0,0,,0,,,62,95
232757,note_on,0,0,0,,0,,,47,95
232973,note_off,216,0,0,,0,,,47,95
232975,note_off,2,0,0,,1,,,67,127
232976,note_on,1,0,0,,1,,,66,127
232976,note_on,0,0,0,,0,,,45,95
233192,note_off,216,0,0,,0,,,45,95
233194,note_off,2,0,0,,1,,,66,127
233195,note_on,1,0,0,,1,,,67,127
233195,note_on,0,0,0,,0,,,43,95
233411,note_off,216,0,0,,0,,,43,95
233411,note_off,0,0,0,,0,,,62,95
233413,note_off,2,0,0,,1,,,67,127
233414,note_on,1,0,0,,1,,,79,127
233414,note_on,0,0,0,,0,,,72,95
233414,note_on,0,0,0,,0,,,52,95
233630,note_off,216,0,0,,0,,,52,95
233630,note_off,0,0,0,,0,,,72,95
233632,note_off,2,0,0,,1,,,79,127
233633,note_on,1,0,0,,1,,,67,127
233633,note_on,0,0,0,,0,,,71,95
233633,note_on,0,0,0,,0,,,50,95
233849,note_off,216,0,0,,0,,,50,95
233849,note_off,0,0,0,,0,,,71,95
233851,note_off,2,0,0,,1,,,67,127
233852,note_on,1,0,0,,1,,,66,127
233852,note_on,0,0,0,,0,,,69,95
233852,note_on,0,0,0,,0,,,48,95
234068,note_off,216,0,0,,0,,,48,95
234068,note_off,0,0,0,,0,,,69,95
234070,note_off,2,0,0,,1,,,66,127
234071,note_on,1,0,0,,1,,,67,127
234071,note_on,0,0,0,,0,,,67,95
234071,note_on,0,0,0,,0,,,47,95
234287,note_off,216,0,0,,0,,,47,95
234287,note_off,0,0,0,,0,,,67,95
234289,note_off,2,0,0,,1,,,67,127
234290,note_on,1,0,0,,1,,,69,127
234290,note_on,0,0,0,,0,,,66,95
234290,note_on,0,0,0,,0,,,45,95
234506,note_off,216,0,0,,0,,,45,95
234506,note_off,0,0,0,,0,,,66,95
234508,note_off,2,0,0,,1,,,69,127
234509,note_on,1,0,0,,1,,,71,127
234509,note_on,0,0,0,,0,,,67,95
234509,note_on,0,0,0,,0,,,43,95
234725,note_off,216,0,0,,0,,,43,95
234725,note_off,0,0,0,,0,,,67,95
234727,note_off,2,0,0,,1,,,71,127
234728,note_on,1,0,0,,1,,,72,127
234728,note_on,0,0,0,,0,,,62,95
234728,note_on,0,0,0,,0,,,69,95
234728,note_on,0,0,0,,0,,,42,95
234946,note_off,218,0,0,,1,,,72,127
234947,note_on,1,0,0,,1,,,62,127
235163,note_off,216,0,0,,0,,,42,95
235163,note_off,0,0,0,,0,,,69,95
235163,note_off,0,0,0,,0,,,62,95
235165,note_off,2,0,0,,1,,,62,127
235166,note_on,1,0,0,,1,,,71,127
235166,note_on,0,0,0,,0,,,67,95
235166,note_on,0,0,0,,0,,,43,95
235382,note_off,216,0,0,,0,,,43,95
235382,note_off,0,0,0,,0,,,67,95
235384,note_off,2,0,0,,1,,,71,127
235385,note_on,1,0,0,,1,,,69,127
235385,note_on,0,0,0,,0,,,38,95
235601,note_off,216,0,0,,0,,,38,95
235604,note_on,3,0,0,,0,,,69,95
235604,note_on,0,0,0,,0,,,50,95
235820,note_off,216,0,0,,0,,,50,95
235820,note_off,0,0,0,,0,,,69,95
235823,note_on,3,0,0,,0,,,73,95
235823,note_on,0,0,0,,0,,,67,95
235823,note_on,0,0,0,,0,,,52,95
236039,note_off,216,0,0,,0,,,52,95
236039,note_off,0,0,0,,0,,,67,95
236039,note_off,0,0,0,,0,,,73,95
236041,note_off,2,0,0,,1,,,69,127
236042,note_on,1,0,0,,0,,,69,95
236042,note_on,0,0,0,,0,,,74,95
236042,note_on,0,0,0,,0,,,53,95
236261,note_on,219,0,0,,1,,,81,127
236479,note_off,218,0,0,,1,,,81,127
236480,note_on,1,0,0,,1,,,77,127
236696,note_off,216,0,0,,0,,,53,95
236696,note_off,0,0,0,,0,,,74,95
236696,note_off,0,0,0,,0,,,69,95
236698,note_off,2,0,0,,1,,,77,127
236699,note_on,1,0,0,,1,,,76,127
236699,note_on,0,0,0,,0,,,70,95
236699,note_on,0,0,0,,0,,,55,95
236917,note_off,218,0,0,,1,,,76,127
236918,note_on,1,0,0,,1,,,79,127
237134,note_off,216,0,0,,0,,,55,95
237134,note_off,0,0,0,,0,,,70,95
237136,note_off,2,0,0,,1,,,79,127
237137,note_on,1,0,0,,1,,,76,127
237137,note_on,0,0,0,,0,,,69,95
237137,note_on,0,0,0,,0,,,57,95
237353,note_off,216,0,0,,0,,,57,95
237353,note_off,0,0,0,,0,,,69,95
237355,note_off,2,0,0,,1,,,76,127
237356,note_on,1,0,0,,1,,,74,127
237356,note_on,0,0,0,,0,,,67,95
237356,note_on,0,0,0,,0,,,58,95
237574,note_off,218,0,0,,1,,,74,127
237575,note_on,1,0,0,,1,,,77,127
237793,note_off,218,0,0,,1,,,77,127
237794,note_on,1,0,0,,1,,,74,127
238010,note_off,216,0,0,,0,,,58,95
238010,note_off,0,0,0,,0,,,67,95
238012,note_off,2,0,0,,1,,,74,127
238013,note_on,1,0,0,,1,,,74,127
238013,note_on,0,0,0,,0,,,64,95
238013,note_on,0,0,0,,0,,,57,95
238229,note_off,216,0,0,,0,,,57,95
238231,note_off,2,0,0,,1,,,74,127
238232,note_on,1,0,0,,1,,,73,127
238232,note_on,0,0,0,,0,,,45,95
238448,note_off,216,0,0,,0,,,45,95
238448,note_off,0,0,0,,0,,,64,95
238450,note_off,2,0,0,,1,,,73,127
238451,note_on,1,0,0,,0,,,73,95
238451,note_on,0,0,0,,0,,,45,95
238667,note_off,216,0,0,,0,,,45,95
238667,note_off,0,0,0,,0,,,73,95
238670,note_on,3,0,0,,0,,,76,95
238670,note_on,0,0,0,,0,,,45,95
238886,note_off,216,0,0,,0,,,76,95
238889,note_on,3,0,0,,1,,,76,127
238889,note_on,0,0,0,,0,,,73,95
239105,note_off,216,0,0,,0,,,73,95
239107,note_off,2,0,0,,1,,,76,127
239108,note_on,1,0,0,,1,,,79,127
239108,note_on,0,0,0,,0,,,76,95
239324,note_off,216,0,0,,0,,,76,95
239324,note_off,0,0,0,,0,,,45,95
239326,note_off,2,0,0,,1,,,79,127
239327,note_on,1,0,0,,1,,,77,127
239327,note_on,0,0,0,,0,,,74,95
239327,note_on,0,0,0,,0,,,45,95
239543,note_off,216,0,0,,0,,,74,95
239545,note_off,2,0,0,,1,,,77,127
239546,note_on,1,0,0,,1,,,76,127
239546,note_on,0,0,0,,0,,,73,95
239762,note_off,216,0,0,,0,,,73,95
239764,note_off,2,0,0,,1,,,76,127
239765,note_on,1,0,0,,1,,,79,127
239765,note_on,0,0,0,,0,,,76,95
239981,note_off,216,0,0,,0,,,76,95
239981,note_off,0,0,0,,0,,,45,95
239983,note_off,2,0,0,,1,,,79,127
239984,note_on,1,0,0,,1,,,77,127
239984,note_on,0,0,0,,0,,,74,95
239984,note_on,0,0,0,,0,,,45,95
240200,note_off,216,0,0,,0,,,74,95
240202,note_off,2,0,0,,1,,,77,127
240203,note_on,1,0,0,,1,,,76,127
240203,note_on,0,0,0,,0,,,72,95
240419,note_off,216,0,0,,0,,,72,95
240421,note_off,2,0,0,,1,,,76,127
240422,note_on,1,0,0,,1,,,74,127
240422,note_on,0,0,0,,0,,,70,95
240638,note_off,216,0,0,,0,,,70,95
240638,note_off,0,0,0,,0,,,45,95
240640,note_off,2,0,0,,1,,,74,127
240641,note_on,1,0,0,,1,,,80,127
240641,note_on,0,0,0,,0,,,69,95
240641,note_on,0,0,0,,0,,,45,95
240859,note_off,218,0,0,,1,,,80,127
240860,note_on,1,0,0,,1,,,81,127
241076,note_off,216,0,0,,0,,,69,95
241078,note_off,2,0,0,,1,,,81,127
241079,note_on,1,0,0,,1,,,79,127
241079,note_on,0,0,0,,0,,,73,95
241295,note_off,216,0,0,,0,,,73,95
241295,note_off,0,0,0,,0,,,45,95
241297,note_off,2,0,0,,1,,,79,127
241298,note_on,1,0,0,,1,,,77,127
241298,note_on,0,0,0,,0,,,74,95
241298,note_on,0,0,0,,0,,,45,95
241514,note_off,216,0,0,,0,,,74,95
241516,note_off,2,0,0,,1,,,77,127
241517,note_on,1,0,0,,1,,,76,127
241517,note_on,0,0,0,,0,,,72,95
241733,note_off,216,0,0,,0,,,72,95
241735,note_off,2,0,0,,1,,,76,127
241736,note_on,1,0,0,,1,,,74,127
241736,note_on,0,0,0,,0,,,70,95
241952,note_off,216,0,0,,0,,,70,95
241952,note_off,0,0,0,,0,,,45,95
241954,note_off,2,0,0,,1,,,74,127
241955,note_on,1,0,0,,1,,,68,127
241955,note_on,0,0,0,,0,,,45,95
242171,note_off,216,0,0,,0,,,45,95
242173,note_off,2,0,0,,1,,,68,127
242174,note_on,1,0,0,,1,,,69,127
242174,note_on,0,0,0,,0,,,57,95
242390,note_off,216,0,0,,0,,,57,95
242392,note_off,2,0,0,,1,,,69,127
242393,note_on,1,0,0,,0,,,64,95
242393,note_on,0,0,0,,0,,,55,95
242609,note_off,216,0,0,,0,,,55,95
242609,note_off,0,0,0,,0,,,64,95
242612,note_on,3,0,0,,0,,,62,95
242612,note_on,0,0,0,,0,,,53,95
242828,note_off,216,0,0,,0,,,53,95
242828,note_off,0,0,0,,0,,,62,95
242831,note_on,3,0,0,,1,,,69,127
242831,note_on,0,0,0,,0,,,64,95
242831,note_on,0,0,0,,0,,,49,95
243047,note_off,216,0,0,,0,,,49,95
243047,note_off,0,0,0,,0,,,64,95
243049,note_off,2,0,0,,1,,,69,127
243050,note_on,1,0,0,,1,,,69,127
243050,note_on,0,0,0,,0,,,65,95
243050,note_on,0,0,0,,0,,,50,95
243266,note_off,216,0,0,,0,,,50,95
243266,note_off,0,0,0,,0,,,65,95
243268,note_off,2,0,0,,1,,,69,127
243269,note_on,1,0,0,,1,,,82,127
243269,note_on,0,0,0,,0,,,70,95
243269,note_on,0,0,0,,0,,,43,95
243485,note_off,216,0,0,,0,,,43,95
243487,note_off,2,0,0,,1,,,82,127
243488,note_on,1,0,0,,1,,,81,127
243488,note_on,0,0,0,,0,,,62,95
243488,note_on,0,0,0,,0,,,43,95
243695,note_off,207,0,0,,0,,,70,95
243704,note_off,9,0,0,,0,,,43,95
243704,note_off,0,0,0,,0,,,62,95
243706,note_off,2,0,0,,1,,,81,127
243707,note_on,1,0,0,,1,,,79,127
243707,note_on,0,0,0,,0,,,64,95
243707,note_on,0,0,0,,0,,,43,95
243923,note_off,216,0,0,,0,,,43,95
243923,note_off,0,0,0,,0,,,64,95
243925,note_off,2,0,0,,1,,,79,127
243926,note_on,1,0,0,,1,,,77,127
243926,note_on,0,0,0,,0,,,65,95
243926,note_on,0,0,0,,0,,,45,95
244035,note_off,109,0,0,,1,,,77,127
244036,note_on,1,0,0,,1,,,74,127
244142,note_off,106,0,0,,0,,,45,95
244142,note_off,0,0,0,,0,,,65,95
244144,note_off,2,0,0,,1,,,74,127
244145,note_on,1,0,0,,1,,,76,127
244145,note_on,0,0,0,,0,,,67,95
244145,note_on,0,0,0,,0,,,45,95
244361,note_off,216,0,0,,0,,,45,95
244361,note_off,0,0,0,,0,,,67,95
244363,note_off,2,0,0,,1,,,76,127
244364,note_on,1,0,0,,1,,,73,127
244364,note_on,0,0,0,,0,,,69,95
244364,note_on,0,0,0,,0,,,45,95
244580,note_off,216,0,0,,0,,,45,95
244580,note_off,0,0,0,,0,,,69,95
244582,note_off,2,0,0,,1,,,73,127
244583,note_on,1,0,0,,1,,,74,127
244583,note_on,0,0,0,,0,,,62,95
244583,note_on,0,0,0,,0,,,38,95
244799,note_off,216,0,0,,0,,,38,95
244801,note_off,2,0,0,,1,,,74,127
244802,note_on,1,0,0,,1,,,62,127
244802,note_on,0,0,0,,0,,,50,95
245018,note_off,216,0,0,,0,,,50,95
245020,note_off,2,0,0,,1,,,62,127
245021,note_on,1,0,0,,1,,,62,127
245021,note_on,0,0,0,,0,,,50,95
245237,note_off,216,0,0,,0,,,50,95
245237,note_off,0,0,0,,0,,,62,95
245239,note_off,2,0,0,,1,,,62,127
245240,note_on,1,0,0,,1,,,62,127
245240,note_on,0,0,0,,0,,,70,95
245240,note_on,0,0,0,,0,,,55,95
245456,note_off,216,0,0,,0,,,55,95
245456,note_off,0,0,0,,0,,,70,95
245458,note_off,2,0,0,,1,,,62,127
245459,note_on,1,0,0,,1,,,62,127
245459,note_on,0,0,0,,0,,,69,95
245459,note_on,0,0,0,,0,,,53,95
245675,note_off,216,0,0,,0,,,53,95
245675,note_off,0,0,0,,0,,,69,95
245677,note_off,2,0,0,,1,,,62,127
245678,note_on,1,0,0,,1,,,73,127
245678,note_on,0,0,0,,0,,,67,95
245678,note_on,0,0,0,,0,,,52,95
245894,note_off,216,0,0,,0,,,52,95
245894,note_off,0,0,0,,0,,,67,95
245896,note_off,2,0,0,,1,,,73,127
245897,note_on,1,0,0,,1,,,74,127
245897,note_on,0,0,0,,0,,,65,95
245897,note_on,0,0,0,,0,,,53,95
246113,note_off,216,0,0,,0,,,53,95
246115,note_off,2,0,0,,1,,,74,127
246116,note_on,1,0,0,,1,,,62,127
246116,note_on,0,0,0,,0,,,52,95
246332,note_off,216,0,0,,0,,,52,95
246334,note_off,2,0,0,,1,,,62,127
246335,note_on,1,0,0,,1,,,62,127
246335,note_on,0,0,0,,0,,,53,95
246551,note_off,216,0,0,,0,,,53,95
246551,note_off,0,0,0,,0,,,65,95
246553,note_off,2,0,0,,1,,,62,127
246554,note_on,1,0,0,,1,,,62,127
246554,note_on,0,0,0,,0,,,70,95
246554,note_on,0,0,0,,0,,,55,95
246770,note_off,216,0,0,,0,,,55,95
246770,note_off,0,0,0,,0,,,70,95
246772,note_off,2,0,0,,1,,,62,127
246773,note_on,1,0,0,,1,,,62,127
246773,note_on,0,0,0,,0,,,69,95
246773,note_on,0,0,0,,0,,,53,95
246989,note_off,216,0,0,,0,,,53,95
246989,note_off,0,0,0,,0,,,69,95
246991,note_off,2,0,0,,1,,,62,127
246992,note_on,1,0,0,,1,,,73,127
246992,note_on,0,0,0,,0,,,67,95
246992,note_on,0,0,0,,0,,,52,95
247208,note_off,216,0,0,,0,,,52,95
247208,note_off,0,0,0,,0,,,67,95
247210,note_off,2,0,0,,1,,,73,127
247211,note_on,1,0,0,,1,,,74,127
247211,note_on,0,0,0,,0,,,62,95
247211,note_on,0,0,0,,0,,,69,95
247211,note_on,0,0,0,,0,,,53,95
247427,note_off,216,0,0,,0,,,53,95
247429,note_off,2,0,0,,1,,,74,127
247430,note_on,1,0,0,,1,,,74,127
247430,note_on,0,0,0,,0,,,53,95
247646,note_off,216,0,0,,0,,,53,95
247648,note_off,2,0,0,,1,,,74,127
247649,note_on,1,0,0,,1,,,72,127
247649,note_on,0,0,0,,0,,,52,95
247865,note_off,216,0,0,,0,,,52,95
247865,note_off,0,0,0,,0,,,69,95
247865,note_off,0,0,0,,0,,,62,95
247867,note_off,2,0,0,,1,,,72,127
247868,note_on,1,0,0,,1,,,70,127
247868,note_on,0,0,0,,0,,,62,95
247868,note_on,0,0,0,,0,,,50,95
248084,note_off,216,0,0,,0,,,50,95
248084,note_off,0,0,0,,0,,,62,95
248086,note_off,2,0,0,,1,,,70,127
248087,note_on,1,0,0,,1,,,69,127
248087,note_on,0,0,0,,0,,,64,95
248087,note_on,0,0,0,,0,,,49,95
248303,note_off,216,0,0,,0,,,49,95
248303,note_off,0,0,0,,0,,,64,95
248305,note_off,2,0,0,,1,,,69,127
248306,note_on,1,0,0,,1,,,68,127
248306,note_on,0,0,0,,0,,,65,95
248306,note_on,0,0,0,,0,,,47,95
248522,note_off,216,0,0,,0,,,47,95
248522,note_off,0,0,0,,0,,,65,95
248524,note_off,2,0,0,,1,,,68,127
248525,note_on,1,0,0,,1,,,68,127
248525,note_on,0,0,0,,0,,,64,95
248525,note_on,0,0,0,,0,,,45,95
248741,note_off,216,0,0,,0,,,45,95
248743,note_off,2,0,0,,1,,,68,127
248744,note_on,1,0,0,,1,,,69,127
248744,note_on,0,0,0,,0,,,57,95
248960,note_off,216,0,0,,0,,,57,95
248960,note_off,0,0,0,,0,,,64,95
248962,note_off,2,0,0,,1,,,69,127
248963,note_on,1,0,0,,0,,,64,95
248963,note_on,0,0,0,,0,,,55,95
249179,note_off,216,0,0,,0,,,55,95
249179,note_off,0,0,0,,0,,,64,95
249182,note_on,3,0,0,,0,,,69,95
249182,note_on,0,0,0,,0,,,53,95
249398,note_off,216,0,0,,0,,,53,95
249398,note_off,0,0,0,,0,,,69,95
249401,note_on,3,0,0,,1,,,69,127
249401,note_on,0,0,0,,0,,,67,95
249401,note_on,0,0,0,,0,,,49,95
249617,note_off,216,0,0,,0,,,49,95
249617,note_off,0,0,0,,0,,,67,95
249619,note_off,2,0,0,,1,,,69,127
249620,note_on,1,0,0,,1,,,69,127
249620,note_on,0,0,0,,0,,,65,95
249620,note_on,0,0,0,,0,,,50,95
249836,note_off,216,0,0,,0,,,50,95
249836,note_off,0,0,0,,0,,,65,95
249838,note_off,2,0,0,,1,,,69,127
249839,note_on,1,0,0,,1,,,82,127
249839,note_on,0,0,0,,0,,,74,95
249839,note_on,0,0,0,,0,,,55,95
250055,note_off,216,0,0,,0,,,55,95
250057,note_off,2,0,0,,1,,,82,127
250058,note_on,1,0,0,,1,,,81,127
250058,note_on,0,0,0,,0,,,62,95
250058,note_on,0,0,0,,0,,,53,95
250274,note_off,216,0,0,,0,,,53,95
250274,note_off,0,0,0,,0,,,62,95
250274,note_off,0,0,0,,0,,,74,95
250276,note_off,2,0,0,,1,,,81,127
250277,note_on,1,0,0,,1,,,79,127
250277,note_on,0,0,0,,0,,,73,95
250277,note_on,0,0,0,,0,,,52,95
250493,note_off,216,0,0,,0,,,52,95
250493,note_off,0,0,0,,0,,,73,95
250495,note_off,2,0,0,,1,,,79,127
250496,note_on,1,0,0,,1,,,77,127
250496,note_on,0,0,0,,0,,,69,95
250496,note_on,0,0,0,,0,,,50,95
250605,note_off,109,0,0,,1,,,77,127
250606,note_on,1,0,0,,1,,,74,127
250712,note_off,106,0,0,,0,,,50,95
250712,note_off,0,0,0,,0,,,69,95
250714,note_off,2,0,0,,1,,,74,127
250715,note_on,1,0,0,,1,,,76,127
250715,note_on,0,0,0,,0,,,70,95
250715,note_on,0,0,0,,0,,,55,95
250931,note_off,216,0,0,,0,,,55,95
250931,note_off,0,0,0,,0,,,70,95
250933,note_off,2,0,0,,1,,,76,127
250934,note_on,1,0,0,,1,,,73,127
250934,note_on,0,0,0,,0,,,64,95
250934,note_on,0,0,0,,0,,,57,95
251150,note_off,216,0,0,,0,,,57,95
251150,note_off,0,0,0,,0,,,64,95
251152,note_off,2,0,0,,1,,,73,127
251153,note_on,1,0,0,,1,,,74,127
251153,note_on,0,0,0,,0,,,62,95
251153,note_on,0,0,0,,0,,,58,95
251259,note_off,106,0,0,,0,,,58,95
251261,note_off,2,0,0,,1,,,74,127
251262,note_on,1,0,0,,1,,,72,127
251262,note_on,0,0,0,,0,,,57,95
251368,note_off,106,0,0,,0,,,57,95
251370,note_off,2,0,0,,1,,,72,127
251371,note_on,1,0,0,,1,,,70,127
251371,note_on,0,0,0,,0,,,55,95
251477,note_off,106,0,0,,0,,,55,95
251479,note_off,2,0,0,,1,,,70,127
251480,note_on,1,0,0,,1,,,69,127
251480,note_on,0,0,0,,0,,,53,95
251586,note_off,106,0,0,,0,,,53,95
251586,note_off,0,0,0,,0,,,62,95
251588,note_off,2,0,0,,1,,,69,127
251589,note_on,1,0,0,,1,,,67,127
251589,note_on,0,0,0,,0,,,64,95
251589,note_on,0,0,0,,0,,,52,95
251695,note_off,106,0,0,,0,,,52,95
251695,note_off,0,0,0,,0,,,64,95
251697,note_off,2,0,0,,1,,,67,127
251698,note_on,1,0,0,,1,,,65,127
251698,note_on,0,0,0,,0,,,65,95
251698,note_on,0,0,0,,0,,,50,95
251804,note_off,106,0,0,,0,,,50,95
251804,note_off,0,0,0,,0,,,65,95
251806,note_off,2,0,0,,1,,,65,127
251807,note_on,1,0,0,,1,,,67,127
251807,note_on,0,0,0,,0,,,67,95
251807,note_on,0,0,0,,0,,,55,95
252023,note_off,216,0,0,,0,,,55,95
252023,note_off,0,0,0,,0,,,67,95
252025,note_off,2,0,0,,1,,,67,127
252026,note_on,1,0,0,,1,,,69,127
252026,note_on,0,0,0,,0,,,69,95
252026,note_on,0,0,0,,0,,,57,95
252242,note_off,216,0,0,,0,,,57,95
252242,note_off,0,0,0,,0,,,69,95
252244,note_off,2,0,0,,1,,,69,127
252245,note_on,1,0,0,,1,,,69,127
252245,note_on,0,0,0,,0,,,57,95
252245,note_on,0,0,0,,0,,,45,95
252461,note_off,216,0,0,,0,,,45,95
252461,note_off,0,0,0,,0,,,57,95
252463,note_off,2,0,0,,1,,,69,127
252464,note_on,1,0,0,,1,,,62,127
252464,note_on,0,0,0,,0,,,62,95
252464,note_on,0,0,0,,0,,,50,95
253119,note_off,655,0,0,,0,,,50,95
253119,note_off,0,0,0,,0,,,62,95
253121,note_off,2,0,0,,1,,,62,127
253138,note_on,17,0,0,,0,,,50,95
253138,note_on,0,0,0,,0,,,69,95
253138,note_on,0,0,0,,0,,,66,95
253138,note_on,0,0,0,,1,,,74,127
253356,note_off,218,0,0,,1,,,74,127
253357,note_on,1,0,0,,1,,,81,127
253573,note_off,216,0,0,,0,,,66,95
253573,note_off,0,0,0,,0,,,69,95
253573,note_off,0,0,0,,0,,,50,95
253575,note_off,2,0,0,,1,,,81,127
253576,note_on,1,0,0,,0,,,45,95
253576,note_on,0,0,0,,0,,,73,95
253576,note_on,0,0,0,,1,,,79,127
253792,note_off,216,0,0,,0,,,73,95
253792,note_off,0,0,0,,0,,,45,95
253794,note_off,2,0,0,,1,,,79,127
253795,note_on,1,0,0,,0,,,50,95
253795,note_on,0,0,0,,0,,,69,95
253795,note_on,0,0,0,,1,,,78,127
254013,note_off,218,0,0,,1,,,78,127
254014,note_on,1,0,0,,1,,,76,127
254230,note_off,216,0,0,,0,,,69,95
254230,note_off,0,0,0,,0,,,50,95
254232,note_off,2,0,0,,1,,,76,127
254233,note_on,1,0,0,,0,,,50,95
254233,note_on,0,0,0,,0,,,66,95
254233,note_on,0,0,0,,1,,,74,127
254449,note_off,216,0,0,,0,,,66,95
254449,note_off,0,0,0,,0,,,50,95
254451,note_off,2,0,0,,1,,,74,127
254452,note_on,1,0,0,,0,,,52,95
254452,note_on,0,0,0,,0,,,69,95
254452,note_on,0,0,0,,1,,,72,127
254670,note_off,218,0,0,,1,,,72,127
254671,note_on,1,0,0,,1,,,71,127
254887,note_off,216,0,0,,0,,,69,95
254887,note_off,0,0,0,,0,,,52,95
254889,note_off,2,0,0,,1,,,71,127
254890,note_on,1,0,0,,0,,,54,95
254890,note_on,0,0,0,,0,,,62,95
254890,note_on,0,0,0,,1,,,69,127
255106,note_off,216,0,0,,0,,,62,95
255106,note_off,0,0,0,,0,,,54,95
255108,note_off,2,0,0,,1,,,69,127
255109,note_on,1,0,0,,0,,,55,95
255109,note_on,0,0,0,,0,,,62,95
255109,note_on,0,0,0,,1,,,71,127
255325,note_off,216,0,0,,0,,,62,95
255325,note_off,0,0,0,,0,,,55,95
255327,note_off,2,0,0,,1,,,71,127
255328,note_on,1,0,0,,0,,,57,95
255328,note_on,0,0,0,,0,,,66,95
255328,note_on,0,0,0,,1,,,72,127
255544,note_off,216,0,0,,0,,,66,95
255544,note_off,0,0,0,,0,,,57,95
255546,note_off,2,0,0,,1,,,72,127
255547,note_on,1,0,0,,0,,,59,95
255547,note_on,0,0,0,,0,,,67,95
255547,note_on,0,0,0,,1,,,74,127
255763,note_off,216,0,0,,0,,,67,95
255763,note_off,0,0,0,,0,,,59,95
255765,note_off,2,0,0,,1,,,74,127
255766,note_on,1,0,0,,0,,,60,95
255766,note_on,0,0,0,,0,,,67,95
255766,note_on,0,0,0,,1,,,76,127
255982,note_off,216,0,0,,0,,,60,95
255984,note_off,2,0,0,,1,,,76,127
255985,note_on,1,0,0,,0,,,59,95
255985,note_on,0,0,0,,1,,,74,127
256201,note_off,216,0,0,,0,,,59,95
256201,note_off,0,0,0,,0,,,67,95
256203,note_off,2,0,0,,1,,,74,127
256204,note_on,1,0,0,,0,,,57,95
256204,note_on,0,0,0,,0,,,60,95
256204,note_on,0,0,0,,1,,,66,127
256420,note_off,216,0,0,,0,,,60,95
256420,note_off,0,0,0,,0,,,57,95
256422,note_off,2,0,0,,1,,,66,127
256423,note_on,1,0,0,,0,,,59,95
256423,note_on,0,0,0,,0,,,62,95
256423,note_on,0,0,0,,1,,,67,127
256639,note_off,216,0,0,,0,,,59,95
256641,note_off,2,0,0,,1,,,67,127
256642,note_on,1,0,0,,0,,,57,95
256642,note_on,0,0,0,,1,,,66,127
256858,note_off,216,0,0,,0,,,57,95
256860,note_off,2,0,0,,1,,,66,127
256861,note_on,1,0,0,,0,,,59,95
256861,note_on,0,0,0,,1,,,67,127
257077,note_off,216,0,0,,0,,,59,95
257077,note_off,0,0,0,,0,,,62,95
257079,note_off,2,0,0,,1,,,67,127
257080,note_on,1,0,0,,0,,,60,95
257080,note_on,0,0,0,,0,,,64,95
257080,note_on,0,0,0,,1,,,79,127
257296,note_off,216,0,0,,0,,,64,95
257296,note_off,0,0,0,,0,,,60,95
257298,note_off,2,0,0,,1,,,79,127
257299,note_on,1,0,0,,0,,,59,95
257299,note_on,0,0,0,,0,,,62,95
257299,note_on,0,0,0,,1,,,67,127
257515,note_off,216,0,0,,0,,,62,95
257515,note_off,0,0,0,,0,,,59,95
257517,note_off,2,0,0,,1,,,67,127
257518,note_on,1,0,0,,0,,,57,95
257518,note_on,0,0,0,,0,,,60,95
257518,note_on,0,0,0,,1,,,66,127
257734,note_off,216,0,0,,0,,,60,95
257734,note_off,0,0,0,,0,,,57,95
257736,note_off,2,0,0,,1,,,66,127
257737,note_on,1,0,0,,0,,,59,95
257737,note_on,0,0,0,,0,,,62,95
257737,note_on,0,0,0,,1,,,67,127
257953,note_off,216,0,0,,0,,,59,95
257955,note_off,2,0,0,,1,,,67,127
257956,note_on,1,0,0,,0,,,57,95
257956,note_on,0,0,0,,1,,,66,127
258172,note_off,216,0,0,,0,,,57,95
258172,note_off,0,0,0,,0,,,62,95
258174,note_off,2,0,0,,1,,,66,127
258175,note_on,1,0,0,,0,,,55,95
258175,note_on,0,0,0,,0,,,59,95
258175,note_on,0,0,0,,1,,,67,127
258391,note_off,216,0,0,,0,,,59,95
258391,note_off,0,0,0,,0,,,55,95
258393,note_off,2,0,0,,1,,,67,127
258394,note_on,1,0,0,,0,,,59,95
258394,note_on,0,0,0,,0,,,62,95
258394,note_on,0,0,0,,1,,,62,127
258612,note_off,218,0,0,,1,,,62,127
258613,note_on,1,0,0,,1,,,71,127
258831,note_off,218,0,0,,1,,,71,127
258832,note_on,1,0,0,,1,,,74,127
259048,note_off,216,0,0,,0,,,62,95
259048,note_off,0,0,0,,0,,,59,95
259050,note_off,2,0,0,,1,,,74,127
259051,note_on,1,0,0,,0,,,54,95
259051,note_on,0,0,0,,0,,,62,95
259051,note_on,0,0,0,,0,,,69,95
259051,note_on,0,0,0,,1,,,72,127
259269,note_off,218,0,0,,1,,,72,127
259270,note_on,1,0,0,,1,,,76,127
259488,note_off,218,0,0,,1,,,76,127
259489,note_on,1,0,0,,1,,,72,127
259705,note_off,216,0,0,,0,,,69,95
259705,note_off,0,0,0,,0,,,62,95
259705,note_off,0,0,0,,0,,,54,95
259707,note_off,2,0,0,,1,,,72,127
259708,note_on,1,0,0,,0,,,55,95
259708,note_on,0,0,0,,0,,,62,95
259708,note_on,0,0,0,,0,,,71,95
259708,note_on,0,0,0,,1,,,71,127
259926,note_off,218,0,0,,1,,,71,127
259927,note_on,1,0,0,,1,,,74,127
260145,note_off,218,0,0,,1,,,74,127
260146,note_on,1,0,0,,1,,,71,127
260362,note_off,216,0,0,,0,,,71,95
260362,note_off,0,0,0,,0,,,62,95
260362,note_off,0,0,0,,0,,,55,95
260364,note_off,2,0,0,,1,,,71,127
260365,note_on,1,0,0,,0,,,50,95
260365,note_on,0,0,0,,0,,,66,95
260365,note_on,0,0,0,,1,,,71,127
260581,note_off,216,0,0,,0,,,50,95
260583,note_off,2,0,0,,1,,,71,127
260584,note_on,1,0,0,,0,,,38,95
260584,note_on,0,0,0,,1,,,69,127
260800,note_off,216,0,0,,0,,,38,95
260802,note_off,2,0,0,,1,,,69,127
260803,note_on,1,0,0,,0,,,38,95
261019,note_off,216,0,0,,0,,,38,95
261019,note_off,0,0,0,,0,,,66,95
261022,note_on,3,0,0,,0,,,38,95
261241,note_on,219,0,0,,1,,,81,127
261459,note_off,218,0,0,,1,,,81,127
261460,note_on,1,0,0,,1,,,81,127
261676,note_off,216,0,0,,0,,,38,95
261678,note_off,2,0,0,,1,,,81,127
261679,note_on,1,0,0,,0,,,38,95
261679,note_on,0,0,0,,0,,,67,95
261679,note_on,0,0,0,,0,,,70,95
261679,note_on,0,0,0,,1,,,82,127
261897,note_off,218,0,0,,1,,,82,127
261898,note_on,1,0,0,,1,,,81,127
262116,note_off,218,0,0,,1,,,81,127
262117,note_on,1,0,0,,1,,,79,127
262333,note_off,216,0,0,,0,,,70,95
262333,note_off,0,0,0,,0,,,67,95
262333,note_off,0,0,0,,0,,,38,95
262335,note_off,2,0,0,,1,,,79,127
262336,note_on,1,0,0,,0,,,38,95
262336,note_on,0,0,0,,0,,,67,95
262336,note_on,0,0,0,,0,,,64,95
262336,note_on,0,0,0,,1,,,75,127
262554,note_off,218,0,0,,1,,,75,127
262555,note_on,1,0,0,,1,,,74,127
262773,note_off,218,0,0,,1,,,74,127
262774,note_on,1,0,0,,1,,,73,127
262990,note_off,216,0,0,,0,,,64,95
262990,note_off,0,0,0,,0,,,67,95
262990,note_off,0,0,0,,0,,,38,95
262992,note_off,2,0,0,,1,,,73,127
262993,note_on,1,0,0,,0,,,38,95
262993,note_on,0,0,0,,0,,,66,95
262993,note_on,0,0,0,,0,,,69,95
262993,note_on,0,0,0,,1,,,73,127
263211,note_off,218,0,0,,1,,,73,127
263212,note_on,1,0,0,,1,,,74,127
263430,note_off,218,0,0,,1,,,74,127
263431,note_on,1,0,0,,1,,,72,127
263647,note_off,216,0,0,,0,,,69,95
263647,note_off,0,0,0,,0,,,66,95
263647,note_off,0,0,0,,0,,,38,95
263649,note_off,2,0,0,,1,,,72,127
263650,note_on,1,0,0,,0,,,38,95
263650,note_on,0,0,0,,0,,,67,95
263650,note_on,0,0,0,,0,,,62,95
263650,note_on,0,0,0,,1,,,71,127
263868,note_off,218,0,0,,1,,,71,127
263869,note_on,1,0,0,,1,,,69,127
264087,note_off,218,0,0,,1,,,69,127
264088,note_on,1,0,0,,1,,,67,127
264304,note_off,216,0,0,,0,,,62,95
264304,note_off,0,0,0,,0,,,67,95
264304,note_off,0,0,0,,0,,,38,95
264306,note_off,2,0,0,,1,,,67,127
264307,note_on,1,0,0,,0,,,38,95
264307,note_on,0,0,0,,0,,,66,95
264307,note_on,0,0,0,,0,,,69,95
264307,note_on,0,0,0,,1,,,73,127
264523,note_off,216,0,0,,0,,,38,95
264525,note_off,2,0,0,,1,,,73,127
264526,note_on,1,0,0,,0,,,50,95
264526,note_on,0,0,0,,1,,,74,127
264742,note_off,216,0,0,,0,,,50,95
264742,note_off,0,0,0,,0,,,69,95
264742,note_off,0,0,0,,0,,,66,95
264744,note_off,2,0,0,,1,,,74,127
264745,note_on,1,0,0,,0,,,54,95
264745,note_on,0,0,0,,0,,,62,95
264745,note_on,0,0,0,,1,,,72,127
264961,note_off,216,0,0,,0,,,62,95
264961,note_off,0,0,0,,0,,,54,95
264963,note_off,2,0,0,,1,,,72,127
264964,note_on,1,0,0,,0,,,55,95
264964,note_on,0,0,0,,1,,,71,127
265180,note_off,216,0,0,,0,,,55,95
265182,note_off,2,0,0,,1,,,71,127
265183,note_on,1,0,0,,0,,,54,95
265183,note_on,0,0,0,,1,,,69,127
265399,note_off,216,0,0,,0,,,54,95
265401,note_off,2,0,0,,1,,,69,127
265402,note_on,1,0,0,,0,,,52,95
265402,note_on,0,0,0,,0,,,60,95
265402,note_on,0,0,0,,1,,,67,127
265618,note_off,216,0,0,,0,,,60,95
265618,note_off,0,0,0,,0,,,52,95
265620,note_off,2,0,0,,1,,,67,127
265621,note_on,1,0,0,,0,,,50,95
265621,note_on,0,0,0,,0,,,62,95
265621,note_on,0,0,0,,1,,,66,127
265730,note_off,109,0,0,,1,,,66,127
265731,note_on,1,0,0,,1,,,64,127
265837,note_off,106,0,0,,0,,,50,95
265839,note_off,2,0,0,,1,,,64,127
265840,note_on,1,0,0,,0,,,50,95
265840,note_on,0,0,0,,1,,,62,127
266056,note_off,216,0,0,,0,,,50,95
266056,note_off,0,0,0,,0,,,62,95
266058,note_off,2,0,0,,1,,,62,127
266059,note_on,1,0,0,,0,,,49,95
266059,note_on,0,0,0,,0,,,64,95
266275,note_off,216,0,0,,0,,,64,95
266275,note_off,0,0,0,,0,,,49,95
266278,note_on,3,0,0,,0,,,50,95
266278,note_on,0,0,0,,0,,,66,95
266494,note_off,216,0,0,,0,,,66,95
266494,note_off,0,0,0,,0,,,50,95
266497,note_on,3,0,0,,0,,,42,95
266497,note_on,0,0,0,,0,,,69,95
266497,note_on,0,0,0,,1,,,62,127
266713,note_off,216,0,0,,0,,,69,95
266713,note_off,0,0,0,,0,,,42,95
266715,note_off,2,0,0,,1,,,62,127
266716,note_on,1,0,0,,0,,,43,95
266716,note_on,0,0,0,,0,,,71,95
266716,note_on,0,0,0,,1,,,62,127
266932,note_off,216,0,0,,0,,,71,95
266932,note_off,0,0,0,,0,,,43,95
266934,note_off,2,0,0,,1,,,62,127
266935,note_on,1,0,0,,0,,,48,95
266935,note_on,0,0,0,,0,,,69,95
266935,note_on,0,0,0,,1,,,76,127
267151,note_off,216,0,0,,0,,,48,95
267153,note_off,2,0,0,,1,,,76,127
267154,note_on,1,0,0,,0,,,47,95
267154,note_on,0,0,0,,1,,,74,127
267370,note_off,216,0,0,,0,,,47,95
267370,note_off,0,0,0,,0,,,69,95
267372,note_off,2,0,0,,1,,,74,127
267373,note_on,1,0,0,,0,,,45,95
267373,note_on,0,0,0,,0,,,66,95
267373,note_on,0,0,0,,1,,,72,127
267589,note_off,216,0,0,,0,,,66,95
267589,note_off,0,0,0,,0,,,45,95
267591,note_off,2,0,0,,1,,,72,127
267592,note_on,1,0,0,,0,,,43,95
267592,note_on,0,0,0,,0,,,62,95
267592,note_on,0,0,0,,1,,,71,127
267701,note_off,109,0,0,,1,,,71,127
267702,note_on,1,0,0,,1,,,67,127
267808,note_off,106,0,0,,0,,,62,95
267808,note_off,0,0,0,,0,,,43,95
267810,note_off,2,0,0,,1,,,67,127
267811,note_on,1,0,0,,0,,,48,95
267811,note_on,0,0,0,,0,,,64,95
267811,note_on,0,0,0,,1,,,69,127
268027,note_off,216,0,0,,0,,,64,95
268027,note_off,0,0,0,,0,,,48,95
268029,note_off,2,0,0,,1,,,69,127
268030,note_on,1,0,0,,0,,,50,95
268030,note_on,0,0,0,,0,,,62,95
268030,note_on,0,0,0,,1,,,66,127
268246,note_off,216,0,0,,0,,,62,95
268246,note_off,0,0,0,,0,,,50,95
268248,note_off,2,0,0,,1,,,66,127
268249,note_on,1,0,0,,0,,,55,95
268249,note_on,0,0,0,,0,,,59,95
268249,note_on,0,0,0,,1,,,67,127
268465,note_off,216,0,0,,0,,,55,95
268467,note_off,2,0,0,,1,,,67,127
268468,note_on,1,0,0,,0,,,57,95
268468,note_on,0,0,0,,1,,,67,127
268684,note_off,216,0,0,,0,,,57,95
268684,note_off,0,0,0,,0,,,59,95
268686,note_off,2,0,0,,1,,,67,127
268687,note_on,1,0,0,,0,,,59,95
268687,note_on,0,0,0,,0,,,62,95
268687,note_on,0,0,0,,1,,,67,127
268903,note_off,216,0,0,,0,,,62,95
268903,note_off,0,0,0,,0,,,59,95
268905,note_off,2,0,0,,1,,,67,127
268906,note_on,1,0,0,,0,,,60,95
268906,note_on,0,0,0,,0,,,64,95
268906,note_on,0,0,0,,1,,,67,127
269122,note_off,216,0,0,,0,,,64,95
269122,note_off,0,0,0,,0,,,60,95
269124,note_off,2,0,0,,1,,,67,127
269125,note_on,1,0,0,,0,,,59,95
269125,note_on,0,0,0,,0,,,62,95
269125,note_on,0,0,0,,1,,,67,127
269341,note_off,216,0,0,,0,,,62,95
269341,note_off,0,0,0,,0,,,59,95
269343,note_off,2,0,0,,1,,,67,127
269344,note_on,1,0,0,,0,,,57,95
269344,note_on,0,0,0,,0,,,60,95
269344,note_on,0,0,0,,1,,,78,127
269560,note_off,216,0,0,,0,,,60,95
269560,note_off,0,0,0,,0,,,57,95
269562,note_off,2,0,0,,1,,,78,127
269563,note_on,1,0,0,,0,,,59,95
269563,note_on,0,0,0,,0,,,62,95
269563,note_on,0,0,0,,1,,,79,127
269779,note_off,216,0,0,,0,,,59,95
269781,note_off,2,0,0,,1,,,79,127
269782,note_on,1,0,0,,0,,,57,95
269782,note_on,0,0,0,,1,,,67,127
269998,note_off,216,0,0,,0,,,57,95
270000,note_off,2,0,0,,1,,,67,127
270001,note_on,1,0,0,,0,,,59,95
270001,note_on,0,0,0,,1,,,67,127
270217,note_off,216,0,0,,0,,,59,95
270217,note_off,0,0,0,,0,,,62,95
270219,note_off,2,0,0,,1,,,67,127
270220,note_on,1,0,0,,0,,,60,95
270220,note_on,0,0,0,,0,,,64,95
270220,note_on,0,0,0,,1,,,67,127
270436,note_off,216,0,0,,0,,,64,95
270436,note_off,0,0,0,,0,,,60,95
270438,note_off,2,0,0,,1,,,67,127
270439,note_on,1,0,0,,0,,,59,95
270439,note_on,0,0,0,,0,,,62,95
270439,note_on,0,0,0,,1,,,67,127
270655,note_off,216,0,0,,0,,,62,95
270655,note_off,0,0,0,,0,,,59,95
270657,note_off,2,0,0,,1,,,67,127
270658,note_on,1,0,0,,0,,,57,95
270658,note_on,0,0,0,,0,,,60,95
270658,note_on,0,0,0,,1,,,78,127
270874,note_off,216,0,0,,0,,,60,95
270874,note_off,0,0,0,,0,,,57,95
270876,note_off,2,0,0,,1,,,78,127
270877,note_on,1,0,0,,0,,,55,95
270877,note_on,0,0,0,,0,,,62,95
270877,note_on,0,0,0,,1,,,79,127
271093,note_off,216,0,0,,0,,,55,95
271095,note_off,2,0,0,,1,,,79,127
271096,note_on,1,0,0,,0,,,55,95
271096,note_on,0,0,0,,1,,,79,127
271312,note_off,216,0,0,,0,,,55,95
271314,note_off,2,0,0,,1,,,79,127
271315,note_on,1,0,0,,0,,,55,95
271315,note_on,0,0,0,,1,,,77,127
271531,note_off,216,0,0,,0,,,55,95
271531,note_off,0,0,0,,0,,,62,95
271533,note_off,2,0,0,,1,,,77,127
271534,note_on,1,0,0,,0,,,55,95
271534,note_on,0,0,0,,0,,,70,95
271534,note_on,0,0,0,,1,,,75,127
271750,note_off,216,0,0,,0,,,55,95
271752,note_off,2,0,0,,1,,,75,127
271753,note_on,1,0,0,,0,,,55,95
271753,note_on,0,0,0,,1,,,74,127
271969,note_off,216,0,0,,0,,,55,95
271971,note_off,2,0,0,,1,,,74,127
271972,note_on,1,0,0,,0,,,55,95
271972,note_on,0,0,0,,1,,,73,127
272188,note_off,216,0,0,,0,,,55,95
272188,note_off,0,0,0,,0,,,70,95
272190,note_off,2,0,0,,1,,,73,127
272191,note_on,1,0,0,,0,,,53,95
272191,note_on,0,0,0,,0,,,69,95
272191,note_on,0,0,0,,1,,,74,127
272407,note_off,216,0,0,,0,,,53,95
272409,note_off,2,0,0,,1,,,74,127
272410,note_on,1,0,0,,0,,,53,95
272410,note_on,0,0,0,,1,,,77,127
272626,note_off,216,0,0,,0,,,53,95
272628,note_off,2,0,0,,1,,,77,127
272629,note_on,1,0,0,,0,,,53,95
272629,note_on,0,0,0,,1,,,75,127
272845,note_off,216,0,0,,0,,,53,95
272845,note_off,0,0,0,,0,,,69,95
272847,note_off,2,0,0,,1,,,75,127
272848,note_on,1,0,0,,0,,,53,95
272848,note_on,0,0,0,,0,,,62,95
272848,note_on,0,0,0,,1,,,74,127
273064,note_off,216,0,0,,0,,,53,95
273066,note_off,2,0,0,,1,,,74,127
273067,note_on,1,0,0,,0,,,53,95
273067,note_on,0,0,0,,1,,,72,127
273283,note_off,216,0,0,,0,,,53,95
273283,note_off,0,0,0,,0,,,62,95
273285,note_off,2,0,0,,1,,,72,127
273286,note_on,1,0,0,,0,,,53,95
273286,note_on,0,0,0,,0,,,62,95
273286,note_on,0,0,0,,1,,,71,127
273502,note_off,216,0,0,,0,,,62,95
273502,note_off,0,0,0,,0,,,53,95
273504,note_off,2,0,0,,1,,,71,127
273505,note_on,1,0,0,,0,,,52,95
273505,note_on,0,0,0,,0,,,60,95
273505,note_on,0,0,0,,1,,,72,127
273721,note_off,216,0,0,,0,,,52,95
273723,note_off,2,0,0,,1,,,72,127
273724,note_on,1,0,0,,0,,,52,95
273724,note_on,0,0,0,,1,,,79,127
273940,note_off,216,0,0,,0,,,52,95
273942,note_off,2,0,0,,1,,,79,127
273943,note_on,1,0,0,,0,,,52,95
273943,note_on,0,0,0,,1,,,72,127
274159,note_off,216,0,0,,0,,,52,95
274159,note_off,0,0,0,,0,,,60,95
274161,note_off,2,0,0,,1,,,72,127
274162,note_on,1,0,0,,0,,,50,95
274162,note_on,0,0,0,,0,,,59,95
274162,note_on,0,0,0,,1,,,71,127
274378,note_off,216,0,0,,0,,,50,95
274380,note_off,2,0,0,,1,,,71,127
274381,note_on,1,0,0,,0,,,50,95
274381,note_on,0,0,0,,1,,,79,127
274597,note_off,216,0,0,,0,,,50,95
274599,note_off,2,0,0,,1,,,79,127
274600,note_on,1,0,0,,0,,,50,95
274600,note_on,0,0,0,,1,,,71,127
274816,note_off,216,0,0,,0,,,50,95
274816,note_off,0,0,0,,0,,,59,95
274818,note_off,2,0,0,,1,,,71,127
274819,note_on,1,0,0,,0,,,48,95
274819,note_on,0,0,0,,0,,,57,95
274819,note_on,0,0,0,,1,,,69,127
275035,note_off,216,0,0,,0,,,48,95
275037,note_off,2,0,0,,1,,,69,127
275038,note_on,1,0,0,,0,,,48,95
275038,note_on,0,0,0,,1,,,79,127
275254,note_off,216,0,0,,0,,,48,95
275256,note_off,2,0,0,,1,,,79,127
275257,note_on,1,0,0,,0,,,48,95
275257,note_on,0,0,0,,1,,,69,127
275473,note_off,216,0,0,,0,,,48,95
275473,note_off,0,0,0,,0,,,57,95
275475,note_off,2,0,0,,1,,,69,127
275476,note_on,1,0,0,,0,,,47,95
275476,note_on,0,0,0,,0,,,55,95
275476,note_on,0,0,0,,1,,,67,127
275692,note_off,216,0,0,,0,,,55,95
275692,note_off,0,0,0,,0,,,47,95
275694,note_off,2,0,0,,1,,,67,127
275695,note_on,1,0,0,,0,,,47,95
275695,note_on,0,0,0,,0,,,67,95
275695,note_on,0,0,0,,1,,,79,127
275911,note_off,216,0,0,,0,,,67,95
275911,note_off,0,0,0,,0,,,47,95
275913,note_off,2,0,0,,1,,,79,127
275914,note_on,1,0,0,,0,,,48,95
275914,note_on,0,0,0,,0,,,64,95
275914,note_on,0,0,0,,1,,,67,127
276130,note_off,216,0,0,,0,,,64,95
276130,note_off,0,0,0,,0,,,48,95
276132,note_off,2,0,0,,1,,,67,127
276133,note_on,1,0,0,,0,,,50,95
276133,note_on,0,0,0,,0,,,61,95
276133,note_on,0,0,0,,1,,,67,127
276349,note_off,216,0,0,,0,,,61,95
276349,note_off,0,0,0,,0,,,50,95
276351,note_off,2,0,0,,1,,,67,127
276352,note_on,1,0,0,,0,,,50,95
276352,note_on,0,0,0,,0,,,62,95
276352,note_on,0,0,0,,1,,,66,127
276568,note_off,216,0,0,,0,,,62,95
276568,note_off,0,0,0,,0,,,50,95
276570,note_off,2,0,0,,1,,,66,127
276571,note_on,1,0,0,,0,,,50,95
276787,note_off,216,0,0,,0,,,50,95
276790,note_on,3,0,0,,0,,,50,95
276790,note_on,0,0,0,,0,,,66,95
276790,note_on,0,0,0,,0,,,69,95
277009,note_on,219,0,0,,1,,,81,127
277227,note_off,218,0,0,,1,,,81,127
277228,note_on,1,0,0,,1,,,81,127
277444,note_off,216,0,0,,0,,,69,95
277444,note_off,0,0,0,,0,,,66,95
277444,note_off,0,0,0,,0,,,50,95
277446,note_off,2,0,0,,1,,,81,127
277447,note_on,1,0,0,,0,,,50,95
277447,note_on,0,0,0,,0,,,62,95
277447,note_on,0,0,0,,0,,,70,95
277447,note_on,0,0,0,,1,,,82,127
277665,note_off,218,0,0,,1,,,82,127
277666,note_on,1,0,0,,1,,,81,127
277884,note_off,218,0,0,,1,,,81,127
277885,note_on,1,0,0,,1,,,79,127
278101,note_off,216,0,0,,0,,,70,95
278101,note_off,0,0,0,,0,,,62,95
278101,note_off,0,0,0,,0,,,50,95
278103,note_off,2,0,0,,1,,,79,127
278104,note_on,1,0,0,,0,,,50,95
278104,note_on,0,0,0,,0,,,70,95
278104,note_on,0,0,0,,0,,,67,95
278104,note_on,0,0,0,,1,,,75,127
278322,note_off,218,0,0,,1,,,75,127
278323,note_on,1,0,0,,1,,,74,127
278541,note_off,218,0,0,,1,,,74,127
278542,note_on,1,0,0,,1,,,73,127
278758,note_off,216,0,0,,0,,,67,95
278758,note_off,0,0,0,,0,,,70,95
278758,note_off,0,0,0,,0,,,50,95
278760,note_off,2,0,0,,1,,,73,127
278761,note_on,1,0,0,,0,,,50,95
278761,note_on,0,0,0,,0,,,66,95
278761,note_on,0,0,0,,0,,,69,95
278761,note_on,0,0,0,,1,,,73,127
278979,note_off,218,0,0,,1,,,73,127
278980,note_on,1,0,0,,1,,,74,127
279198,note_off,218,0,0,,1,,,74,127
279199,note_on,1,0,0,,1,,,81,127
279415,note_off,216,0,0,,0,,,69,95
279415,note_off,0,0,0,,0,,,66,95
279415,note_off,0,0,0,,0,,,50,95
279417,note_off,2,0,0,,1,,,81,127
279418,note_on,1,0,0,,0,,,50,95
279418,note_on,0,0,0,,0,,,67,95
279418,note_on,0,0,0,,0,,,70,95
279418,note_on,0,0,0,,1,,,82,127
279636,note_off,218,0,0,,1,,,82,127
279637,note_on,1,0,0,,1,,,81,127
279855,note_off,218,0,0,,1,,,81,127
279856,note_on,1,0,0,,1,,,79,127
280072,note_off,216,0,0,,0,,,70,95
280072,note_off,0,0,0,,0,,,67,95
280072,note_off,0,0,0,,0,,,50,95
280074,note_off,2,0,0,,1,,,79,127
280075,note_on,1,0,0,,0,,,50,95
280075,note_on,0,0,0,,0,,,66,95
280075,note_on,0,0,0,,0,,,69,95
280075,note_on,0,0,0,,1,,,73,127
280293,note_off,218,0,0,,1,,,73,127
280294,note_on,1,0,0,,1,,,74,127
280512,note_off,218,0,0,,1,,,74,127
280513,note_on,1,0,0,,1,,,81,127
280729,note_off,216,0,0,,0,,,69,95
280729,note_off,0,0,0,,0,,,66,95
280729,note_off,0,0,0,,0,,,50,95
280731,note_off,2,0,0,,1,,,81,127
280732,note_on,1,0,0,,0,,,50,95
280732,note_on,0,0,0,,0,,,62,95
280732,note_on,0,0,0,,0,,,67,95
280732,note_on,0,0,0,,1,,,82,127
280950,note_off,218,0,0,,1,,,82,127
280951,note_on,1,0,0,,1,,,81,127
281169,note_off,218,0,0,,1,,,81,127
281170,note_on,1,0,0,,1,,,79,127
281386,note_off,216,0,0,,0,,,67,95
281386,note_off,0,0,0,,0,,,62,95
281386,note_off,0,0,0,,0,,,50,95
281388,note_off,2,0,0,,1,,,79,127
281389,note_on,1,0,0,,0,,,50,95
281389,note_on,0,0,0,,1,,,73,127
281605,note_off,216,0,0,,0,,,50,95
281607,note_off,2,0,0,,1,,,73,127
281608,note_on,1,0,0,,0,,,62,95
281608,note_on,0,0,0,,1,,,74,127
281824,note_off,216,0,0,,0,,,62,95
281826,note_off,2,0,0,,1,,,74,127
281827,note_on,1,0,0,,0,,,60,95
281827,note_on,0,0,0,,0,,,66,95
282043,note_off,216,0,0,,0,,,66,95
282043,note_off,0,0,0,,0,,,60,95
282046,note_on,3,0,0,,0,,,59,95
282046,note_on,0,0,0,,0,,,67,95
282265,note_on,219,0,0,,1,,,74,127
282481,note_off,216,0,0,,0,,,67,95
282481,note_off,0,0,0,,0,,,59,95
282483,note_off,2,0,0,,1,,,74,127
282484,note_on,1,0,0,,0,,,54,95
282484,note_on,0,0,0,,0,,,69,95
282484,note_on,0,0,0,,1,,,72,127
282700,note_off,216,0,0,,0,,,69,95
282700,note_off,0,0,0,,0,,,54,95
282702,note_off,2,0,0,,1,,,72,127
282703,note_on,1,0,0,,0,,,55,95
282703,note_on,0,0,0,,0,,,62,95
282703,note_on,0,0,0,,1,,,71,127
282919,note_off,216,0,0,,0,,,55,95
282921,note_off,2,0,0,,1,,,71,127
282922,note_on,1,0,0,,0,,,57,95
282922,note_on,0,0,0,,1,,,69,127
283138,note_off,216,0,0,,0,,,57,95
283140,note_off,2,0,0,,1,,,69,127
283141,note_on,1,0,0,,0,,,59,95
283141,note_on,0,0,0,,1,,,67,127
283357,note_off,216,0,0,,0,,,59,95
283357,note_off,0,0,0,,0,,,62,95
283359,note_off,2,0,0,,1,,,67,127
283360,note_on,1,0,0,,0,,,60,95
283360,note_on,0,0,0,,0,,,64,95
283360,note_on,0,0,0,,1,,,67,127
283576,note_off,216,0,0,,0,,,64,95
283576,note_off,0,0,0,,0,,,60,95
283578,note_off,2,0,0,,1,,,67,127
283579,note_on,1,0,0,,0,,,59,95
283579,note_on,0,0,0,,0,,,62,95
283579,note_on,0,0,0,,1,,,67,127
283795,note_off,216,0,0,,0,,,62,95
283795,note_off,0,0,0,,0,,,59,95
283797,note_off,2,0,0,,1,,,67,127
283798,note_on,1,0,0,,0,,,57,95
283798,note_on,0,0,0,,0,,,60,95
283798,note_on,0,0,0,,1,,,78,127
284014,note_off,216,0,0,,0,,,60,95
284014,note_off,0,0,0,,0,,,57,95
284016,note_off,2,0,0,,1,,,78,127
284017,note_on,1,0,0,,0,,,59,95
284017,note_on,0,0,0,,0,,,62,95
284017,note_on,0,0,0,,1,,,79,127
284233,note_off,216,0,0,,0,,,59,95
284235,note_off,2,0,0,,1,,,79,127
284236,note_on,1,0,0,,0,,,57,95
284236,note_on,0,0,0,,1,,,67,127
284452,note_off,216,0,0,,0,,,57,95
284454,note_off,2,0,0,,1,,,67,127
284455,note_on,1,0,0,,0,,,59,95
284455,note_on,0,0,0,,1,,,67,127
284671,note_off,216,0,0,,0,,,59,95
284671,note_off,0,0,0,,0,,,62,95
284673,note_off,2,0,0,,1,,,67,127
284674,note_on,1,0,0,,0,,,60,95
284674,note_on,0,0,0,,0,,,64,95
284674,note_on,0,0,0,,1,,,67,127
284890,note_off,216,0,0,,0,,,64,95
284890,note_off,0,0,0,,0,,,60,95
284892,note_off,2,0,0,,1,,,67,127
284893,note_on,1,0,0,,0,,,59,95
284893,note_on,0,0,0,,0,,,62,95
284893,note_on,0,0,0,,1,,,67,127
285109,note_off,216,0,0,,0,,,62,95
285109,note_off,0,0,0,,0,,,59,95
285111,note_off,2,0,0,,1,,,67,127
285112,note_on,1,0,0,,0,,,57,95
285112,note_on,0,0,0,,0,,,60,95
285112,note_on,0,0,0,,1,,,78,127
285328,note_off,216,0,0,,0,,,60,95
285328,note_off,0,0,0,,0,,,57,95
285330,note_off,2,0,0,,1,,,78,127
285331,note_on,1,0,0,,0,,,59,95
285331,note_on,0,0,0,,0,,,62,95
285331,note_on,0,0,0,,1,,,79,127
285547,note_off,216,0,0,,0,,,59,95
285549,note_off,2,0,0,,1,,,79,127
285550,note_on,1,0,0,,0,,,57,95
285550,note_on,0,0,0,,1,,,81,127
285766,note_off,216,0,0,,0,,,57,95
285768,note_off,2,0,0,,1,,,81,127
285769,note_on,1,0,0,,0,,,55,95
285769,note_on,0,0,0,,1,,,83,127
285985,note_off,216,0,0,,0,,,55,95
285985,note_off,0,0,0,,0,,,62,95
285987,note_off,2,0,0,,1,,,83,127
285988,note_on,1,0,0,,0,,,60,95
285988,note_on,0,0,0,,0,,,72,95
285988,note_on,0,0,0,,1,,,81,127
286204,note_off,216,0,0,,0,,,72,95
286204,note_off,0,0,0,,0,,,60,95
286206,note_off,2,0,0,,1,,,81,127
286207,note_on,1,0,0,,0,,,62,95
286207,note_on,0,0,0,,0,,,71,95
286207,note_on,0,0,0,,1,,,74,127
286423,note_off,216,0,0,,0,,,71,95
286423,note_off,0,0,0,,0,,,62,95
286425,note_off,2,0,0,,1,,,74,127
286426,note_on,1,0,0,,0,,,50,95
286426,note_on,0,0,0,,0,,,69,95
286426,note_on,0,0,0,,1,,,78,127
286642,note_off,216,0,0,,0,,,69,95
286642,note_off,0,0,0,,0,,,50,95
286644,note_off,2,0,0,,1,,,78,127
286661,note_on,17,0,0,,1,,,79,127
286661,note_on,0,0,0,,0,,,67,95
286661,note_on,0,0,0,,0,,,55,95
286775,note_off,114,0,0,,0,,,55,95
286775,note_off,0,0,0,,0,,,67,95
286777,note_off,2,0,0,,1,,,79,127
286778,note_on,1,0,0,,1,,,78,127
286778,note_on,0,0,0,,0,,,66,95
286778,note_on,0,0,0,,0,,,54,95
286892,note_off,114,0,0,,0,,,54,95
286892,note_off,0,0,0,,0,,,66,95
286894,note_off,2,0,0,,1,,,78,127
286895,note_on,1,0,0,,1,,,76,127
286895,note_on,0,0,0,,0,,,64,95
286895,note_on,0,0,0,,0,,,52,95
287009,note_off,114,0,0,,0,,,52,95
287009,note_off,0,0,0,,0,,,64,95
287011,note_off,2,0,0,,1,,,76,127
287012,note_on,1,0,0,,1,,,74,127
287012,note_on,0,0,0,,0,,,62,95
287012,note_on,0,0,0,,0,,,50,95
287126,note_off,114,0,0,,0,,,50,95
287126,note_off,0,0,0,,0,,,62,95
287128,note_off,2,0,0,,1,,,74,127
287129,note_on,1,0,0,,1,,,72,127
287129,note_on,0,0,0,,0,,,60,95
287129,note_on,0,0,0,,0,,,48,95
287243,note_off,114,0,0,,0,,,48,95
287243,note_off,0,0,0,,0,,,60,95
287245,note_off,2,0,0,,1,,,72,127
287246,note_on,1,0,0,,1,,,71,127
287246,note_on,0,0,0,,0,,,59,95
287246,note_on,0,0,0,,0,,,47,95
287360,note_off,114,0,0,,0,,,47,95
287360,note_off,0,0,0,,0,,,59,95
287362,note_off,2,0,0,,1,,,71,127
287363,note_on,1,0,0,,1,,,72,127
287363,note_on,0,0,0,,0,,,60,95
287363,note_on,0,0,0,,0,,,48,95
287640,note_off,277,0,0,,0,,,48,95
287640,note_off,0,0,0,,0,,,60,95
287643,note_off,3,0,0,,1,,,72,127
287644,note_on,1,0,0,,1,,,74,127
287644,note_on,0,0,0,,0,,,62,95
287644,note_on,0,0,0,,0,,,50,95
287921,note_off,277,0,0,,0,,,50,95
287921,note_off,0,0,0,,0,,,62,95
287924,note_off,3,0,0,,1,,,74,127
287941,note_on,17,0,0,,0,,,38,95
287941,note_on,0,0,0,,0,,,62,95
287941,note_on,0,0,0,,1,,,62,127
288218,note_off,277,0,0,,0,,,62,95
288218,note_off,0,0,0,,0,,,38,95
288221,note_off,3,0,0,,1,,,62,127
288270,note_on,49,0,0,,1,,,67,127
288270,note_on,0,0,0,,0,,,55,95
288270,note_on,0,0,0,,0,,,43,95
290070,note_off,1800,0,0,,0,,,43,95
290070,note_off,0,0,0,,0,,,55,95
290070,note_off,0,0,0,,1,,,67,127
294912,end_of_track,4842,1,0,,,,,,
