tick,type,time,meta,track,program,channel,pitch,tempo,note,velocity
0,copyright,0,1,0,,,,,,
0,program_change,0,0,0,6,0,,,,
0,pitchwheel,0,0,0,,0,0,,,
0,program_change,0,0,0,6,1,,,,
0,pitchwheel,0,0,0,,1,-590,,,
0,program_change,0,0,0,6,2,,,,
0,pitchwheel,0,0,0,,2,-272,,,
0,program_change,0,0,0,6,3,,,,
0,pitchwheel,0,0,0,,3,-353,,,
0,program_change,0,0,0,6,4,,,,
0,pitchwheel,0,0,0,,4,-560,,,
0,program_change,0,0,0,6,5,,,,
0,pitchwheel,0,0,0,,5,-80,,,
0,program_change,0,0,0,6,6,,,,
0,pitchwheel,0,0,0,,6,-625,,,
0,program_change,0,0,0,6,7,,,,
0,pitchwheel,0,0,0,,7,-130,,,
0,program_change,0,0,0,6,8,,,,
0,pitchwheel,0,0,0,,8,-512,,,
0,program_change,0,0,0,6,10,,,,
0,pitchwheel,0,0,0,,10,-464,,,
0,program_change,0,0,0,6,11,,,,
0,pitchwheel,0,0,0,,11,-208,,,
0,program_change,0,0,0,6,12,,,,
0,pitchwheel,0,0,0,,12,-553,,,
0,set_tempo,0,1,0,,,,500000,,
0,note_on,0,0,0,,2,,,74,127
0,note_on,0,0,0,,5,,,53,127
0,note_on,0,0,0,,2,,,50,127
531,note_off,531,0,0,,2,,,74,127
532,note_on,1,0,0,,10,,,69,127
886,note_off,354,0,0,,2,,,50,127
886,note_off,0,0,0,,5,,,53,127
887,note_on,1,0,0,,5,,,77,127
887,note_on,0,0,0,,5,,,53,127
887,note_on,0,0,0,,2,,,50,127
1062,note_off,175,0,0,,5,,,53,127
1063,note_off,1,0,0,,2,,,50,127
1063,note_off,0,0,0,,5,,,77,127
1063,note_off,0,0,0,,10,,,69,127
1064,note_on,1,0,0,,4,,,76,127
1064,note_on,0,0,0,,11,,,70,127
1064,note_on,0,0,0,,7,,,43,127
1418,note_off,354,0,0,,4,,,76,127
1419,note_on,1,0,0,,2,,,74,127
1419,note_on,0,0,0,,7,,,55,127
1595,note_off,176,0,0,,2,,,74,127
1595,note_off,0,0,0,,7,,,43,127
1596,note_on,1,0,0,,1,,,73,127
1596,note_on,0,0,0,,10,,,45,127
1950,note_off,354,0,0,,7,,,55,127
1950,note_off,0,0,0,,11,,,70,127
1951,note_on,1,0,0,,11,,,70,127
1951,note_on,0,0,0,,7,,,55,127
2127,note_off,176,0,0,,7,,,55,127
2127,note_off,0,0,0,,11,,,70,127
2128,note_on,1,0,0,,10,,,69,127
2128,note_on,0,0,0,,5,,,53,127
2482,note_off,354,0,0,,5,,,53,127
2482,note_off,0,0,0,,10,,,69,127
2482,note_off,0,0,0,,1,,,73,127
2483,note_on,1,0,0,,1,,,73,127
2483,note_on,0,0,0,,7,,,67,127
2483,note_on,0,0,0,,5,,,53,127
2658,note_off,175,0,0,,7,,,67,127
2659,note_off,1,0,0,,1,,,73,127
2659,note_off,0,0,0,,10,,,45,127
2660,note_on,1,0,0,,2,,,74,127
2660,note_on,0,0,0,,10,,,45,127
3014,note_on,354,0,0,,10,,,69,127
3190,note_off,176,0,0,,10,,,69,127
3190,note_off,0,0,0,,10,,,45,127
3190,note_off,0,0,0,,5,,,53,127
3191,note_on,1,0,0,,7,,,67,127
3191,note_on,0,0,0,,4,,,52,127
3191,note_on,0,0,0,,10,,,45,127
3545,note_off,354,0,0,,2,,,74,127
3546,note_on,1,0,0,,4,,,76,127
3722,note_off,176,0,0,,4,,,76,127
3723,note_on,1,0,0,,1,,,73,127
4077,note_off,354,0,0,,1,,,73,127
4077,note_off,0,0,0,,4,,,52,127
4077,note_off,0,0,0,,7,,,67,127
4078,note_on,1,0,0,,2,,,74,127
4078,note_on,0,0,0,,11,,,70,127
4078,note_on,0,0,0,,2,,,50,127
4254,note_off,176,0,0,,2,,,50,127
4254,note_off,0,0,0,,11,,,70,127
4254,note_off,0,0,0,,2,,,74,127
4255,note_on,1,0,0,,4,,,76,127
4255,note_on,0,0,0,,10,,,69,127
4255,note_on,0,0,0,,1,,,49,127
4604,note_off,349,0,0,,10,,,45,127
4609,note_off,5,0,0,,1,,,49,127
4609,note_off,0,0,0,,10,,,69,127
4610,note_on,1,0,0,,7,,,67,127
4610,note_on,0,0,0,,10,,,45,127
4786,note_off,176,0,0,,10,,,45,127
4786,note_off,0,0,0,,7,,,67,127
4787,note_on,1,0,0,,5,,,65,127
4787,note_on,0,0,0,,2,,,62,127
4787,note_on,0,0,0,,2,,,50,127
5141,note_off,354,0,0,,4,,,76,127
5142,note_on,1,0,0,,10,,,69,127
5318,note_off,176,0,0,,10,,,69,127
5319,note_on,1,0,0,,5,,,77,127
5673,note_off,354,0,0,,2,,,62,127
5673,note_off,0,0,0,,5,,,65,127
5674,note_on,1,0,0,,5,,,65,127
5674,note_on,0,0,0,,0,,,60,127
5849,note_off,175,0,0,,2,,,50,127
5850,note_off,1,0,0,,0,,,60,127
5850,note_off,0,0,0,,5,,,65,127
5851,note_on,1,0,0,,7,,,67,127
5851,note_on,0,0,0,,11,,,58,127
6205,note_off,354,0,0,,11,,,58,127
6205,note_off,0,0,0,,7,,,67,127
6206,note_on,1,0,0,,10,,,69,127
6206,note_on,0,0,0,,10,,,57,127
6382,note_off,176,0,0,,10,,,57,127
6382,note_off,0,0,0,,10,,,69,127
6382,note_off,0,0,0,,5,,,77,127
6383,note_on,1,0,0,,2,,,74,127
6383,note_on,0,0,0,,11,,,70,127
6383,note_on,0,0,0,,7,,,55,127
6737,note_off,354,0,0,,2,,,74,127
6738,note_on,1,0,0,,1,,,73,127
6738,note_on,0,0,0,,4,,,64,127
6914,note_off,176,0,0,,1,,,73,127
6915,note_on,1,0,0,,2,,,74,127
7269,note_off,354,0,0,,4,,,64,127
7269,note_off,0,0,0,,11,,,70,127
7270,note_on,1,0,0,,11,,,70,127
7270,note_on,0,0,0,,2,,,62,127
7445,note_off,175,0,0,,7,,,55,127
7446,note_off,1,0,0,,11,,,70,127
7446,note_off,0,0,0,,2,,,74,127
7447,note_on,1,0,0,,4,,,76,127
7447,note_on,0,0,0,,10,,,69,127
7801,note_off,354,0,0,,10,,,69,127
7801,note_off,0,0,0,,2,,,62,127
7802,note_on,1,0,0,,7,,,67,127
7802,note_on,0,0,0,,1,,,61,127
7977,note_off,175,0,0,,7,,,67,127
7978,note_off,1,0,0,,1,,,61,127
7978,note_off,0,0,0,,4,,,76,127
7979,note_on,1,0,0,,5,,,77,127
7979,note_on,0,0,0,,2,,,62,127
7979,note_on,0,0,0,,2,,,50,127
8333,note_off,354,0,0,,2,,,62,127
8334,note_on,1,0,0,,10,,,69,127
8334,note_on,0,0,0,,0,,,60,127
8510,note_off,176,0,0,,0,,,60,127
8510,note_off,0,0,0,,10,,,69,127
8511,note_on,1,0,0,,2,,,74,127
8511,note_on,0,0,0,,11,,,58,127
8865,note_off,354,0,0,,11,,,58,127
8865,note_off,0,0,0,,2,,,74,127
8865,note_off,0,0,0,,2,,,50,127
8866,note_on,1,0,0,,0,,,72,127
8866,note_on,0,0,0,,10,,,57,127
8866,note_on,0,0,0,,2,,,50,127
9042,note_off,176,0,0,,2,,,50,127
9042,note_off,0,0,0,,10,,,57,127
9042,note_off,0,0,0,,0,,,72,127
9042,note_off,0,0,0,,5,,,77,127
9043,note_on,1,0,0,,7,,,79,127
9043,note_on,0,0,0,,11,,,70,127
9043,note_on,0,0,0,,11,,,58,127
9043,note_on,0,0,0,,7,,,55,127
9397,note_off,354,0,0,,7,,,79,127
9398,note_on,1,0,0,,5,,,77,127
9574,note_off,176,0,0,,5,,,77,127
9574,note_off,0,0,0,,7,,,55,127
9574,note_off,0,0,0,,11,,,58,127
9574,note_off,0,0,0,,11,,,70,127
9575,note_on,1,0,0,,4,,,76,127
9575,note_on,0,0,0,,0,,,72,127
9575,note_on,0,0,0,,4,,,64,127
9575,note_on,0,0,0,,0,,,60,127
9929,note_off,354,0,0,,0,,,72,127
9930,note_on,1,0,0,,11,,,70,127
10106,note_off,176,0,0,,11,,,70,127
10106,note_off,0,0,0,,0,,,60,127
10106,note_off,0,0,0,,4,,,64,127
10106,note_off,0,0,0,,4,,,76,127
10107,note_on,1,0,0,,5,,,77,127
10107,note_on,0,0,0,,10,,,69,127
10107,note_on,0,0,0,,5,,,65,127
10107,note_on,0,0,0,,2,,,62,127
10461,note_off,354,0,0,,2,,,62,127
10461,note_off,0,0,0,,5,,,65,127
10462,note_on,1,0,0,,4,,,64,127
10462,note_on,0,0,0,,0,,,60,127
10638,note_off,176,0,0,,0,,,60,127
10638,note_off,0,0,0,,4,,,64,127
10639,note_on,1,0,0,,2,,,62,127
10639,note_on,0,0,0,,11,,,58,127
10993,note_off,354,0,0,,10,,,69,127
10993,note_off,0,0,0,,5,,,77,127
10994,note_on,1,0,0,,7,,,79,127
10994,note_on,0,0,0,,11,,,70,127
11170,note_off,176,0,0,,11,,,70,127
11170,note_off,0,0,0,,7,,,79,127
11170,note_off,0,0,0,,11,,,58,127
11170,note_off,0,0,0,,2,,,62,127
11171,note_on,1,0,0,,10,,,81,127
11171,note_on,0,0,0,,0,,,72,127
11171,note_on,0,0,0,,0,,,60,127
11171,note_on,0,0,0,,10,,,57,127
11525,note_off,354,0,0,,10,,,57,127
11525,note_off,0,0,0,,0,,,60,127
11526,note_on,1,0,0,,2,,,62,127
11526,note_on,0,0,0,,11,,,58,127
11702,note_off,176,0,0,,11,,,58,127
11702,note_off,0,0,0,,2,,,62,127
11702,note_off,0,0,0,,0,,,72,127
11702,note_off,0,0,0,,10,,,81,127
11703,note_on,1,0,0,,7,,,79,127
11703,note_on,0,0,0,,4,,,76,127
11703,note_on,0,0,0,,4,,,52,127
11703,note_on,0,0,0,,0,,,48,127
12057,note_off,354,0,0,,0,,,48,127
12057,note_off,0,0,0,,4,,,52,127
12057,note_off,0,0,0,,4,,,76,127
12058,note_on,1,0,0,,2,,,74,127
12058,note_on,0,0,0,,5,,,53,127
12058,note_on,0,0,0,,2,,,50,127
12234,note_off,176,0,0,,2,,,50,127
12234,note_off,0,0,0,,5,,,53,127
12234,note_off,0,0,0,,2,,,74,127
12235,note_on,1,0,0,,0,,,72,127
12235,note_on,0,0,0,,7,,,55,127
12235,note_on,0,0,0,,4,,,52,127
12589,note_off,354,0,0,,0,,,72,127
12590,note_on,1,0,0,,11,,,70,127
12765,note_off,175,0,0,,7,,,79,127
12766,note_off,1,0,0,,11,,,70,127
12766,note_off,0,0,0,,4,,,52,127
12766,note_off,0,0,0,,7,,,55,127
12767,note_on,1,0,0,,10,,,69,127
12767,note_on,0,0,0,,5,,,53,127
12767,note_on,0,0,0,,5,,,41,127
13121,note_on,354,0,0,,0,,,72,127
13297,note_off,176,0,0,,0,,,72,127
13298,note_on,1,0,0,,5,,,77,127
13652,note_off,354,0,0,,5,,,53,127
13652,note_off,0,0,0,,10,,,69,127
13653,note_on,1,0,0,,7,,,67,127
13653,note_on,0,0,0,,4,,,52,127
13828,note_off,175,0,0,,5,,,41,127
13829,note_off,1,0,0,,4,,,52,127
13829,note_off,0,0,0,,7,,,67,127
13830,note_on,1,0,0,,5,,,65,127
13830,note_on,0,0,0,,2,,,50,127
14184,note_off,354,0,0,,5,,,65,127
14184,note_off,0,0,0,,5,,,77,127
14185,note_on,1,0,0,,4,,,76,127
14185,note_on,0,0,0,,0,,,72,127
14361,note_off,176,0,0,,0,,,72,127
14361,note_off,0,0,0,,4,,,76,127
14361,note_off,0,0,0,,2,,,50,127
14362,note_on,1,0,0,,2,,,74,127
14362,note_on,0,0,0,,12,,,71,127
14362,note_on,0,0,0,,7,,,55,127
14362,note_on,0,0,0,,7,,,43,127
14716,note_off,354,0,0,,7,,,55,127
14716,note_off,0,0,0,,12,,,71,127
14717,note_on,1,0,0,,10,,,69,127
14717,note_on,0,0,0,,5,,,53,127
14893,note_off,176,0,0,,5,,,53,127
14893,note_off,0,0,0,,10,,,69,127
14893,note_off,0,0,0,,2,,,74,127
14894,note_on,1,0,0,,7,,,79,127
14894,note_on,0,0,0,,7,,,67,127
14894,note_on,0,0,0,,4,,,52,127
15248,note_off,354,0,0,,4,,,52,127
15248,note_off,0,0,0,,7,,,67,127
15249,note_on,1,0,0,,10,,,69,127
15249,note_on,0,0,0,,5,,,53,127
15425,note_off,176,0,0,,7,,,79,127
15425,note_off,0,0,0,,7,,,43,127
15426,note_on,1,0,0,,5,,,77,127
15426,note_on,0,0,0,,2,,,50,127
15780,note_off,354,0,0,,5,,,53,127
15780,note_off,0,0,0,,10,,,69,127
15781,note_on,1,0,0,,12,,,71,127
15781,note_on,0,0,0,,7,,,55,127
15957,note_off,176,0,0,,7,,,55,127
15957,note_off,0,0,0,,12,,,71,127
15957,note_off,0,0,0,,2,,,50,127
15957,note_off,0,0,0,,5,,,77,127
15958,note_on,1,0,0,,0,,,72,127
15958,note_on,0,0,0,,4,,,52,127
15958,note_on,0,0,0,,0,,,48,127
16312,note_on,354,0,0,,3,,,75,127
16488,note_off,176,0,0,,3,,,75,127
16489,note_on,1,0,0,,4,,,76,127
16843,note_off,354,0,0,,0,,,48,127
16843,note_off,0,0,0,,4,,,52,127
16843,note_off,0,0,0,,0,,,72,127
16844,note_on,1,0,0,,10,,,69,127
16844,note_on,0,0,0,,5,,,53,127
16844,note_on,0,0,0,,2,,,50,127
17020,note_off,176,0,0,,2,,,50,127
17020,note_off,0,0,0,,5,,,53,127
17020,note_off,0,0,0,,4,,,76,127
17021,note_on,1,0,0,,2,,,74,127
17021,note_on,0,0,0,,5,,,53,127
17021,note_on,0,0,0,,12,,,47,127
17375,note_off,354,0,0,,5,,,53,127
17375,note_off,0,0,0,,10,,,69,127
17376,note_on,1,0,0,,8,,,68,127
17376,note_on,0,0,0,,4,,,52,127
17552,note_off,176,0,0,,4,,,52,127
17552,note_off,0,0,0,,8,,,68,127
17552,note_off,0,0,0,,12,,,47,127
17553,note_on,1,0,0,,10,,,69,127
17553,note_on,0,0,0,,10,,,57,127
17553,note_on,0,0,0,,0,,,48,127
17907,note_off,354,0,0,,2,,,74,127
17908,note_on,1,0,0,,4,,,76,127
18084,note_off,176,0,0,,4,,,76,127
18084,note_off,0,0,0,,10,,,57,127
18085,note_on,1,0,0,,0,,,72,127
18085,note_on,0,0,0,,7,,,55,127
18439,note_off,354,0,0,,0,,,72,127
18439,note_off,0,0,0,,0,,,48,127
18440,note_on,1,0,0,,12,,,71,127
18440,note_on,0,0,0,,2,,,50,127
18615,note_off,175,0,0,,10,,,69,127
18616,note_off,1,0,0,,2,,,50,127
18616,note_off,0,0,0,,12,,,71,127
18617,note_on,1,0,0,,10,,,69,127
18617,note_on,0,0,0,,0,,,48,127
18971,note_off,354,0,0,,7,,,55,127
18972,note_on,1,0,0,,10,,,81,127
18972,note_on,0,0,0,,5,,,53,127
19148,note_off,176,0,0,,5,,,53,127
19148,note_off,0,0,0,,10,,,81,127
19148,note_off,0,0,0,,0,,,48,127
19148,note_off,0,0,0,,10,,,69,127
19149,note_on,1,0,0,,8,,,80,127
19149,note_on,0,0,0,,12,,,71,127
19149,note_on,0,0,0,,4,,,64,127
19149,note_on,0,0,0,,4,,,52,127
19503,note_off,354,0,0,,4,,,64,127
19503,note_off,0,0,0,,12,,,71,127
19504,note_on,1,0,0,,5,,,77,127
19504,note_on,0,0,0,,2,,,62,127
19680,note_off,176,0,0,,2,,,62,127
19680,note_off,0,0,0,,5,,,77,127
19681,note_on,1,0,0,,4,,,76,127
19681,note_on,0,0,0,,0,,,60,127
20035,note_off,354,0,0,,0,,,60,127
20035,note_off,0,0,0,,4,,,76,127
20035,note_off,0,0,0,,4,,,52,127
20035,note_off,0,0,0,,8,,,80,127
20036,note_on,1,0,0,,8,,,80,127
20036,note_on,0,0,0,,2,,,74,127
20036,note_on,0,0,0,,12,,,59,127
20036,note_on,0,0,0,,4,,,52,127
20212,note_off,176,0,0,,4,,,52,127
20212,note_off,0,0,0,,12,,,59,127
20212,note_off,0,0,0,,2,,,74,127
20212,note_off,0,0,0,,8,,,80,127
20213,note_on,1,0,0,,10,,,81,127
20213,note_on,0,0,0,,0,,,72,127
20213,note_on,0,0,0,,0,,,60,127
20213,note_on,0,0,0,,10,,,57,127
20567,note_off,354,0,0,,0,,,72,127
20567,note_off,0,0,0,,10,,,81,127
20568,note_on,1,0,0,,7,,,79,127
20568,note_on,0,0,0,,12,,,71,127
20744,note_off,176,0,0,,12,,,71,127
20744,note_off,0,0,0,,7,,,79,127
20744,note_off,0,0,0,,10,,,57,127
20744,note_off,0,0,0,,0,,,60,127
20745,note_on,1,0,0,,5,,,77,127
20745,note_on,0,0,0,,10,,,69,127
20745,note_on,0,0,0,,2,,,62,127
20745,note_on,0,0,0,,2,,,50,127
21099,note_off,354,0,0,,2,,,50,127
21099,note_off,0,0,0,,5,,,77,127
21100,note_on,1,0,0,,4,,,76,127
21100,note_on,0,0,0,,4,,,52,127
21276,note_off,176,0,0,,4,,,52,127
21276,note_off,0,0,0,,4,,,76,127
21277,note_on,1,0,0,,2,,,74,127
21277,note_on,0,0,0,,5,,,53,127
21631,note_off,354,0,0,,2,,,74,127
21631,note_off,0,0,0,,2,,,62,127
21631,note_off,0,0,0,,10,,,69,127
21632,note_on,1,0,0,,0,,,72,127
21632,note_on,0,0,0,,4,,,64,127
21808,note_off,176,0,0,,4,,,64,127
21808,note_off,0,0,0,,0,,,72,127
21809,note_on,1,0,0,,2,,,74,127
21809,note_on,0,0,0,,12,,,71,127
21809,note_on,0,0,0,,5,,,65,127
22163,note_off,354,0,0,,12,,,71,127
22163,note_off,0,0,0,,5,,,53,127
22164,note_on,1,0,0,,10,,,69,127
22164,note_on,0,0,0,,2,,,62,127
22340,note_off,176,0,0,,2,,,62,127
22340,note_off,0,0,0,,10,,,69,127
22340,note_off,0,0,0,,5,,,65,127
22341,note_on,1,0,0,,12,,,71,127
22341,note_on,0,0,0,,4,,,64,127
22341,note_on,0,0,0,,8,,,56,127
22695,note_off,354,0,0,,4,,,64,127
22695,note_off,0,0,0,,2,,,74,127
22696,note_on,1,0,0,,5,,,77,127
22696,note_on,0,0,0,,2,,,62,127
22872,note_off,176,0,0,,2,,,62,127
22872,note_off,0,0,0,,5,,,77,127
22872,note_off,0,0,0,,8,,,56,127
22873,note_on,1,0,0,,4,,,76,127
22873,note_on,0,0,0,,0,,,60,127
22873,note_on,0,0,0,,4,,,52,127
23227,note_off,354,0,0,,0,,,60,127
23227,note_off,0,0,0,,4,,,76,127
23227,note_off,0,0,0,,12,,,71,127
23228,note_on,1,0,0,,8,,,80,127
23228,note_on,0,0,0,,2,,,74,127
23228,note_on,0,0,0,,12,,,59,127
23404,note_off,176,0,0,,12,,,59,127
23404,note_off,0,0,0,,2,,,74,127
23404,note_off,0,0,0,,8,,,80,127
23404,note_off,0,0,0,,4,,,52,127
23405,note_on,1,0,0,,10,,,81,127
23405,note_on,0,0,0,,0,,,72,127
23405,note_on,0,0,0,,0,,,60,127
23405,note_on,0,0,0,,10,,,57,127
23759,note_off,354,0,0,,10,,,81,127
23760,note_on,1,0,0,,4,,,76,127
23936,note_off,176,0,0,,4,,,76,127
23936,note_off,0,0,0,,10,,,57,127
23936,note_off,0,0,0,,0,,,60,127
23936,note_off,0,0,0,,0,,,72,127
23937,note_on,1,0,0,,5,,,77,127
23937,note_on,0,0,0,,4,,,76,127
23937,note_on,0,0,0,,2,,,62,127
23937,note_on,0,0,0,,10,,,57,127
23937,note_on,0,0,0,,2,,,50,127
24291,note_off,354,0,0,,4,,,76,127
24292,note_on,1,0,0,,1,,,73,127
24468,note_off,176,0,0,,1,,,73,127
24469,note_on,1,0,0,,2,,,74,127
24823,note_off,354,0,0,,2,,,74,127
24824,note_on,1,0,0,,10,,,69,127
24999,note_off,175,0,0,,2,,,50,127
24999,note_off,0,0,0,,10,,,57,127
24999,note_off,0,0,0,,2,,,62,127
25000,note_off,1,0,0,,10,,,69,127
25000,note_off,0,0,0,,5,,,77,127
25001,note_on,1,0,0,,5,,,77,127
25001,note_on,0,0,0,,11,,,70,127
25355,note_off,354,0,0,,11,,,70,127
25356,note_on,1,0,0,,2,,,74,127
25532,note_off,176,0,0,,2,,,74,127
25533,note_on,1,0,0,,8,,,68,127
25533,note_on,0,0,0,,4,,,64,127
25533,note_on,0,0,0,,12,,,59,127
25533,note_on,0,0,0,,4,,,52,127
25887,note_off,354,0,0,,5,,,77,127
25888,note_on,1,0,0,,2,,,74,127
26064,note_off,176,0,0,,2,,,74,127
26065,note_on,1,0,0,,4,,,76,127
26419,note_off,354,0,0,,4,,,76,127
26420,note_on,1,0,0,,0,,,72,127
26595,note_off,175,0,0,,4,,,52,127
26595,note_off,0,0,0,,12,,,59,127
26595,note_off,0,0,0,,4,,,64,127
26596,note_off,1,0,0,,0,,,72,127
26596,note_off,0,0,0,,8,,,68,127
26597,note_on,1,0,0,,12,,,83,127
26597,note_on,0,0,0,,2,,,74,127
26951,note_off,354,0,0,,2,,,74,127
26952,note_on,1,0,0,,12,,,71,127
27128,note_off,176,0,0,,12,,,71,127
27129,note_on,1,0,0,,0,,,72,127
27129,note_on,0,0,0,,2,,,62,127
27129,note_on,0,0,0,,5,,,53,127
27483,note_off,354,0,0,,12,,,83,127
27484,note_on,1,0,0,,8,,,80,127
27660,note_off,176,0,0,,8,,,80,127
27661,note_on,1,0,0,,10,,,81,127
28015,note_off,354,0,0,,2,,,62,127
28015,note_off,0,0,0,,0,,,72,127
28016,note_on,1,0,0,,4,,,76,127
28016,note_on,0,0,0,,0,,,60,127
28191,note_off,175,0,0,,0,,,60,127
28192,note_off,1,0,0,,10,,,81,127
28192,note_off,0,0,0,,5,,,53,127
28193,note_on,1,0,0,,5,,,77,127
28193,note_on,0,0,0,,2,,,50,127
28547,note_off,354,0,0,,4,,,76,127
28548,note_on,1,0,0,,2,,,74,127
28548,note_on,0,0,0,,10,,,57,127
28724,note_off,176,0,0,,10,,,57,127
28724,note_off,0,0,0,,2,,,50,127
28724,note_off,0,0,0,,5,,,77,127
28725,note_on,1,0,0,,4,,,76,127
28725,note_on,0,0,0,,8,,,56,127
29079,note_off,354,0,0,,2,,,74,127
29080,note_on,1,0,0,,12,,,71,127
29256,note_off,176,0,0,,12,,,71,127
29256,note_off,0,0,0,,4,,,76,127
29257,note_on,1,0,0,,0,,,72,127
29611,note_off,354,0,0,,8,,,56,127
29612,note_on,1,0,0,,8,,,68,127
29612,note_on,0,0,0,,4,,,52,127
29788,note_off,176,0,0,,4,,,52,127
29788,note_off,0,0,0,,8,,,68,127
29788,note_off,0,0,0,,0,,,72,127
29789,note_on,1,0,0,,10,,,69,127
29789,note_on,0,0,0,,5,,,53,127
30143,note_on,354,0,0,,0,,,48,127
30319,note_off,176,0,0,,0,,,48,127
30319,note_off,0,0,0,,5,,,53,127
30320,note_on,1,0,0,,5,,,53,127
30320,note_on,0,0,0,,2,,,50,127
30674,note_off,354,0,0,,10,,,69,127
30675,note_on,1,0,0,,12,,,71,127
30851,note_off,176,0,0,,12,,,71,127
30851,note_off,0,0,0,,2,,,50,127
30851,note_off,0,0,0,,5,,,53,127
30852,note_on,1,0,0,,0,,,72,127
30852,note_on,0,0,0,,2,,,50,127
30852,note_on,0,0,0,,12,,,47,127
30970,note_on,118,0,0,,12,,,71,127
30976,note_off,6,0,0,,0,,,72,127
31066,note_on,90,0,0,,0,,,72,127
31089,note_off,23,0,0,,12,,,71,127
31151,note_on,62,0,0,,12,,,71,127
31153,note_off,2,0,0,,0,,,72,127
31236,note_on,83,0,0,,0,,,72,127
31239,note_off,3,0,0,,12,,,71,127
31321,note_on,82,0,0,,12,,,71,127
31324,note_off,3,0,0,,0,,,72,127
31383,note_off,59,0,0,,12,,,47,127
31383,note_off,0,0,0,,2,,,50,127
31384,note_on,1,0,0,,8,,,56,127
31384,note_on,0,0,0,,5,,,53,127
31384,note_on,0,0,0,,12,,,47,127
31384,note_on,0,0,0,,2,,,50,127
31406,note_on,22,0,0,,0,,,72,127
31409,note_off,3,0,0,,12,,,71,127
31491,note_on,82,0,0,,12,,,71,127
31494,note_off,3,0,0,,0,,,72,127
31576,note_on,82,0,0,,0,,,72,127
31579,note_off,3,0,0,,12,,,71,127
31661,note_on,82,0,0,,12,,,71,127
31664,note_off,3,0,0,,0,,,72,127
31746,note_on,82,0,0,,10,,,69,127
31749,note_off,3,0,0,,12,,,71,127
31831,note_on,82,0,0,,12,,,71,127
31834,note_off,3,0,0,,10,,,69,127
31915,note_off,81,0,0,,2,,,50,127
31915,note_off,0,0,0,,12,,,47,127
31915,note_off,0,0,0,,5,,,53,127
31915,note_off,0,0,0,,8,,,56,127
31916,note_on,1,0,0,,0,,,72,127
31916,note_on,0,0,0,,10,,,57,127
31916,note_on,0,0,0,,4,,,52,127
31916,note_on,0,0,0,,10,,,45,127
31919,note_off,3,0,0,,12,,,71,127
32270,note_off,351,0,0,,0,,,72,127
32271,note_on,1,0,0,,2,,,74,127
32447,note_off,176,0,0,,2,,,74,127
32447,note_off,0,0,0,,10,,,45,127
32447,note_off,0,0,0,,4,,,52,127
32447,note_off,0,0,0,,10,,,57,127
32448,note_on,1,0,0,,4,,,76,127
32802,note_on,354,0,0,,8,,,68,127
32802,note_on,0,0,0,,4,,,52,127
32978,note_off,176,0,0,,4,,,52,127
32978,note_off,0,0,0,,8,,,68,127
32979,note_on,1,0,0,,10,,,69,127
32979,note_on,0,0,0,,10,,,57,127
32979,note_on,0,0,0,,5,,,53,127
33333,note_off,354,0,0,,5,,,53,127
33334,note_on,1,0,0,,0,,,48,127
33510,note_off,176,0,0,,0,,,48,127
33510,note_off,0,0,0,,4,,,76,127
33511,note_on,1,0,0,,2,,,50,127
33865,note_off,354,0,0,,10,,,57,127
33866,note_on,1,0,0,,10,,,81,127
33866,note_on,0,0,0,,12,,,59,127
34042,note_off,176,0,0,,12,,,59,127
34042,note_off,0,0,0,,10,,,81,127
34042,note_off,0,0,0,,2,,,50,127
34042,note_off,0,0,0,,10,,,69,127
34043,note_on,1,0,0,,0,,,72,127
34043,note_on,0,0,0,,8,,,68,127
34043,note_on,0,0,0,,0,,,60,127
34043,note_on,0,0,0,,10,,,57,127
34043,note_on,0,0,0,,4,,,52,127
34111,note_on,68,0,0,,12,,,71,127
34126,note_off,15,0,0,,0,,,72,127
34180,note_on,54,0,0,,0,,,72,127
34195,note_off,15,0,0,,12,,,71,127
34249,note_on,54,0,0,,12,,,71,127
34264,note_off,15,0,0,,0,,,72,127
34575,note_off,311,0,0,,4,,,52,127
34575,note_off,0,0,0,,10,,,57,127
34575,note_off,0,0,0,,0,,,60,127
34575,note_off,0,0,0,,8,,,68,127
34576,note_on,1,0,0,,2,,,62,127
34576,note_on,0,0,0,,12,,,59,127
34576,note_on,0,0,0,,4,,,52,127
34780,note_off,204,0,0,,12,,,71,127
34930,note_on,150,0,0,,10,,,69,127
35106,note_off,176,0,0,,10,,,69,127
35106,note_off,0,0,0,,4,,,52,127
35106,note_off,0,0,0,,12,,,59,127
35106,note_off,0,0,0,,2,,,62,127
35107,note_on,1,0,0,,10,,,69,127
35107,note_on,0,0,0,,10,,,57,127
35107,note_on,0,0,0,,4,,,52,127
35107,note_on,0,0,0,,10,,,45,127
35461,note_off,354,0,0,,10,,,69,127
35462,note_on,1,0,0,,10,,,81,127
35462,note_on,0,0,0,,10,,,69,127
35638,note_off,176,0,0,,10,,,69,127
35638,note_off,0,0,0,,10,,,81,127
35639,note_on,1,0,0,,7,,,79,127
35639,note_on,0,0,0,,11,,,70,127
35993,note_off,354,0,0,,11,,,70,127
35993,note_off,0,0,0,,7,,,79,127
35994,note_on,1,0,0,,5,,,77,127
35994,note_on,0,0,0,,10,,,69,127
36170,note_off,176,0,0,,10,,,69,127
36170,note_off,0,0,0,,5,,,77,127
36171,note_on,1,0,0,,4,,,76,127
36171,note_on,0,0,0,,7,,,67,127
36525,note_off,354,0,0,,7,,,67,127
36525,note_off,0,0,0,,4,,,76,127
36526,note_on,1,0,0,,2,,,74,127
36526,note_on,0,0,0,,11,,,70,127
36702,note_off,176,0,0,,11,,,70,127
36702,note_off,0,0,0,,2,,,74,127
36703,note_on,1,0,0,,1,,,73,127
36703,note_on,0,0,0,,10,,,69,127
37057,note_off,354,0,0,,10,,,69,127
37057,note_off,0,0,0,,1,,,73,127
37058,note_on,1,0,0,,4,,,76,127
37058,note_on,0,0,0,,7,,,67,127
37232,note_off,174,0,0,,10,,,45,127
37232,note_off,0,0,0,,4,,,52,127
37232,note_off,0,0,0,,10,,,57,127
37235,note_off,3,0,0,,7,,,67,127
37235,note_off,0,0,0,,4,,,76,127
37236,note_on,1,0,0,,10,,,69,127
37236,note_on,0,0,0,,5,,,65,127
37590,note_off,354,0,0,,5,,,65,127
37590,note_off,0,0,0,,10,,,69,127
37591,note_on,1,0,0,,7,,,67,127
37591,note_on,0,0,0,,4,,,64,127
37767,note_off,176,0,0,,4,,,64,127
37767,note_off,0,0,0,,7,,,67,127
37768,note_on,1,0,0,,5,,,65,127
37768,note_on,0,0,0,,2,,,62,127
38122,note_off,354,0,0,,2,,,62,127
38122,note_off,0,0,0,,5,,,65,127
38123,note_on,1,0,0,,4,,,64,127
38123,note_on,0,0,0,,1,,,61,127
38298,note_off,175,0,0,,1,,,61,127
38299,note_off,1,0,0,,4,,,64,127
38300,note_on,1,0,0,,2,,,74,127
38300,note_on,0,0,0,,5,,,53,127
38300,note_on,0,0,0,,2,,,50,127
38832,note_on,532,0,0,,10,,,69,127
39186,note_off,354,0,0,,10,,,69,127
39186,note_off,0,0,0,,2,,,50,127
39186,note_off,0,0,0,,5,,,53,127
39186,note_off,0,0,0,,2,,,74,127
39187,note_on,1,0,0,,2,,,74,127
39187,note_on,0,0,0,,11,,,70,127
39187,note_on,0,0,0,,5,,,53,127
39187,note_on,0,0,0,,2,,,50,127
39363,note_off,176,0,0,,2,,,50,127
39363,note_off,0,0,0,,5,,,53,127
39363,note_off,0,0,0,,11,,,70,127
39363,note_off,0,0,0,,2,,,74,127
39364,note_on,1,0,0,,4,,,76,127
39364,note_on,0,0,0,,0,,,72,127
39364,note_on,0,0,0,,7,,,55,127
39364,note_on,0,0,0,,0,,,48,127
39718,note_off,354,0,0,,0,,,48,127
39719,note_on,1,0,0,,11,,,46,127
39895,note_off,176,0,0,,11,,,46,127
39895,note_off,0,0,0,,7,,,55,127
39895,note_off,0,0,0,,4,,,76,127
39896,note_on,1,0,0,,5,,,77,127
39896,note_on,0,0,0,,10,,,57,127
39896,note_on,0,0,0,,10,,,45,127
40250,note_off,354,0,0,,5,,,77,127
40251,note_on,1,0,0,,0,,,84,127
40427,note_off,176,0,0,,0,,,84,127
40427,note_off,0,0,0,,10,,,45,127
40427,note_off,0,0,0,,10,,,57,127
40427,note_off,0,0,0,,0,,,72,127
40428,note_on,1,0,0,,11,,,82,127
40428,note_on,0,0,0,,2,,,74,127
40428,note_on,0,0,0,,7,,,55,127
40428,note_on,0,0,0,,11,,,46,127
40782,note_off,354,0,0,,7,,,55,127
40782,note_off,0,0,0,,11,,,82,127
40783,note_on,1,0,0,,10,,,81,127
40783,note_on,0,0,0,,5,,,53,127
40959,note_off,176,0,0,,5,,,53,127
40959,note_off,0,0,0,,10,,,81,127
40959,note_off,0,0,0,,11,,,46,127
40960,note_on,1,0,0,,7,,,79,127
40960,note_on,0,0,0,,4,,,52,127
41314,note_off,354,0,0,,4,,,52,127
41314,note_off,0,0,0,,7,,,79,127
41315,note_on,1,0,0,,5,,,77,127
41315,note_on,0,0,0,,2,,,50,127
41491,note_off,176,0,0,,2,,,50,127
41491,note_off,0,0,0,,5,,,77,127
41491,note_off,0,0,0,,2,,,74,127
41492,note_on,1,0,0,,7,,,79,127
41492,note_on,0,0,0,,4,,,76,127
41492,note_on,0,0,0,,4,,,52,127
41492,note_on,0,0,0,,0,,,48,127
41846,note_off,354,0,0,,0,,,48,127
41846,note_off,0,0,0,,4,,,52,127
41846,note_off,0,0,0,,4,,,76,127
41847,note_on,1,0,0,,2,,,74,127
41847,note_on,0,0,0,,5,,,53,127
41847,note_on,0,0,0,,2,,,50,127
42023,note_off,176,0,0,,2,,,50,127
42023,note_off,0,0,0,,5,,,53,127
42023,note_off,0,0,0,,2,,,74,127
42024,note_on,1,0,0,,0,,,72,127
42024,note_on,0,0,0,,7,,,55,127
42024,note_on,0,0,0,,4,,,52,127
42378,note_off,354,0,0,,4,,,52,127
42378,note_off,0,0,0,,0,,,72,127
42379,note_on,1,0,0,,11,,,70,127
42379,note_on,0,0,0,,0,,,48,127
42555,note_off,176,0,0,,0,,,48,127
42555,note_off,0,0,0,,11,,,70,127
42555,note_off,0,0,0,,7,,,55,127
42555,note_off,0,0,0,,7,,,79,127
42556,note_on,1,0,0,,5,,,77,127
42556,note_on,0,0,0,,10,,,69,127
42556,note_on,0,0,0,,5,,,53,127
42556,note_on,0,0,0,,5,,,41,127
42910,note_off,354,0,0,,5,,,53,127
42910,note_off,0,0,0,,10,,,69,127
42911,note_on,1,0,0,,7,,,67,127
42911,note_on,0,0,0,,4,,,52,127
43087,note_off,176,0,0,,4,,,52,127
43087,note_off,0,0,0,,7,,,67,127
43087,note_off,0,0,0,,5,,,41,127
43088,note_on,1,0,0,,5,,,65,127
43088,note_on,0,0,0,,2,,,50,127
43442,note_off,354,0,0,,2,,,50,127
43442,note_off,0,0,0,,5,,,77,127
43443,note_on,1,0,0,,4,,,76,127
43443,note_on,0,0,0,,0,,,48,127
43619,note_off,176,0,0,,0,,,48,127
43619,note_off,0,0,0,,4,,,76,127
43619,note_off,0,0,0,,5,,,65,127
43620,note_on,1,0,0,,2,,,74,127
43620,note_on,0,0,0,,5,,,65,127
43620,note_on,0,0,0,,11,,,46,127
43974,note_off,354,0,0,,11,,,46,127
43974,note_off,0,0,0,,2,,,74,127
43975,note_on,1,0,0,,0,,,72,127
43975,note_on,0,0,0,,10,,,45,127
44151,note_off,176,0,0,,10,,,45,127
44151,note_off,0,0,0,,0,,,72,127
44152,note_on,1,0,0,,11,,,70,127
44152,note_on,0,0,0,,7,,,43,127
44506,note_off,354,0,0,,5,,,65,127
44507,note_on,1,0,0,,4,,,64,127
44507,note_on,0,0,0,,0,,,48,127
44682,note_off,175,0,0,,0,,,48,127
44682,note_off,0,0,0,,4,,,64,127
44683,note_off,1,0,0,,7,,,43,127
44684,note_on,1,0,0,,5,,,41,127
45038,note_on,354,0,0,,7,,,67,127
45214,note_off,176,0,0,,7,,,67,127
45214,note_off,0,0,0,,11,,,70,127
45215,note_on,1,0,0,,0,,,72,127
45215,note_on,0,0,0,,8,,,68,127
45215,note_on,0,0,0,,5,,,53,127
45569,note_off,354,0,0,,5,,,53,127
45569,note_off,0,0,0,,8,,,68,127
45570,note_on,1,0,0,,7,,,67,127
45570,note_on,0,0,0,,3,,,51,127
45746,note_off,176,0,0,,3,,,51,127
45746,note_off,0,0,0,,7,,,67,127
45746,note_off,0,0,0,,0,,,72,127
45747,note_on,1,0,0,,5,,,77,127
45747,note_on,0,0,0,,5,,,65,127
45747,note_on,0,0,0,,2,,,50,127
46101,note_off,354,0,0,,2,,,50,127
46101,note_off,0,0,0,,5,,,65,127
46102,note_on,1,0,0,,8,,,68,127
46102,note_on,0,0,0,,0,,,48,127
46278,note_off,176,0,0,,0,,,48,127
46278,note_off,0,0,0,,8,,,68,127
46278,note_off,0,0,0,,5,,,41,127
46279,note_on,1,0,0,,7,,,67,127
46279,note_on,0,0,0,,2,,,50,127
46279,note_on,0,0,0,,12,,,47,127
46633,note_off,354,0,0,,5,,,77,127
46634,note_on,1,0,0,,2,,,74,127
46810,note_off,176,0,0,,2,,,74,127
46810,note_off,0,0,0,,12,,,47,127
46810,note_off,0,0,0,,2,,,50,127
46811,note_on,1,0,0,,3,,,75,127
46811,note_on,0,0,0,,3,,,51,127
46811,note_on,0,0,0,,0,,,48,127
47165,note_off,354,0,0,,0,,,48,127
47165,note_off,0,0,0,,3,,,51,127
47165,note_off,0,0,0,,7,,,67,127
47166,note_on,1,0,0,,12,,,71,127
47166,note_on,0,0,0,,5,,,53,127
47166,note_on,0,0,0,,2,,,50,127
47342,note_off,176,0,0,,2,,,50,127
47342,note_off,0,0,0,,5,,,53,127
47342,note_off,0,0,0,,12,,,71,127
47343,note_on,1,0,0,,0,,,72,127
47343,note_on,0,0,0,,7,,,55,127
47343,note_on,0,0,0,,3,,,51,127
47697,note_off,354,0,0,,3,,,75,127
47698,note_on,1,0,0,,7,,,79,127
47874,note_off,176,0,0,,7,,,79,127
47874,note_off,0,0,0,,3,,,51,127
47874,note_off,0,0,0,,7,,,55,127
47875,note_on,1,0,0,,8,,,80,127
47875,note_on,0,0,0,,5,,,41,127
48229,note_off,354,0,0,,0,,,72,127
48230,note_on,1,0,0,,3,,,75,127
48406,note_off,176,0,0,,3,,,75,127
48407,note_on,1,0,0,,2,,,74,127
48407,note_on,0,0,0,,5,,,53,127
48761,note_off,354,0,0,,5,,,53,127
48761,note_off,0,0,0,,2,,,74,127
48762,note_on,1,0,0,,0,,,72,127
48762,note_on,0,0,0,,3,,,51,127
48938,note_off,176,0,0,,3,,,51,127
48938,note_off,0,0,0,,0,,,72,127
48938,note_off,0,0,0,,5,,,41,127
48938,note_off,0,0,0,,8,,,80,127
48939,note_on,1,0,0,,8,,,80,127
48939,note_on,0,0,0,,12,,,71,127
48939,note_on,0,0,0,,2,,,50,127
48939,note_on,0,0,0,,5,,,41,127
49293,note_off,354,0,0,,2,,,50,127
49293,note_off,0,0,0,,12,,,71,127
49294,note_on,1,0,0,,0,,,72,127
49294,note_on,0,0,0,,0,,,48,127
49470,note_off,176,0,0,,0,,,48,127
49470,note_off,0,0,0,,0,,,72,127
49470,note_off,0,0,0,,5,,,41,127
49471,note_on,1,0,0,,2,,,74,127
49471,note_on,0,0,0,,2,,,50,127
49471,note_on,0,0,0,,12,,,47,127
49825,note_off,354,0,0,,8,,,80,127
49826,note_on,1,0,0,,6,,,78,127
50002,note_off,176,0,0,,6,,,78,127
50002,note_off,0,0,0,,2,,,74,127
50003,note_on,1,0,0,,7,,,79,127
50003,note_on,0,0,0,,2,,,74,127
50357,note_off,354,0,0,,7,,,79,127
50357,note_off,0,0,0,,12,,,47,127
50357,note_off,0,0,0,,2,,,50,127
50358,note_on,1,0,0,,10,,,81,127
50358,note_on,0,0,0,,0,,,48,127
50358,note_on,0,0,0,,10,,,45,127
50534,note_off,176,0,0,,10,,,45,127
50534,note_off,0,0,0,,0,,,48,127
50534,note_off,0,0,0,,10,,,81,127
50535,note_on,1,0,0,,12,,,83,127
50535,note_on,0,0,0,,12,,,47,127
50535,note_on,0,0,0,,2,,,50,127
50535,note_on,0,0,0,,7,,,43,127
50886,note_off,351,0,0,,12,,,47,127
50889,note_off,3,0,0,,7,,,43,127
50889,note_off,0,0,0,,2,,,74,127
50890,note_on,1,0,0,,5,,,53,127
50890,note_on,0,0,0,,2,,,74,127
51066,note_off,176,0,0,,2,,,74,127
51066,note_off,0,0,0,,5,,,53,127
51066,note_off,0,0,0,,2,,,50,127
51066,note_off,0,0,0,,12,,,83,127
51067,note_on,1,0,0,,0,,,84,127
51067,note_on,0,0,0,,3,,,75,127
51067,note_on,0,0,0,,0,,,60,127
51067,note_on,0,0,0,,3,,,51,127
51067,note_on,0,0,0,,7,,,55,127
51421,note_off,354,0,0,,7,,,55,127
51421,note_off,0,0,0,,3,,,51,127
51422,note_on,1,0,0,,2,,,50,127
51422,note_on,0,0,0,,5,,,53,127
51598,note_off,176,0,0,,5,,,53,127
51598,note_off,0,0,0,,2,,,50,127
51598,note_off,0,0,0,,0,,,60,127
51599,note_on,1,0,0,,0,,,60,127
51599,note_on,0,0,0,,7,,,55,127
51599,note_on,0,0,0,,3,,,51,127
51953,note_off,354,0,0,,3,,,75,127
51953,note_off,0,0,0,,0,,,84,127
51954,note_on,1,0,0,,11,,,82,127
51954,note_on,0,0,0,,2,,,74,127
52130,note_off,176,0,0,,2,,,74,127
52130,note_off,0,0,0,,11,,,82,127
52130,note_off,0,0,0,,3,,,51,127
52130,note_off,0,0,0,,7,,,55,127
52130,note_off,0,0,0,,0,,,60,127
52131,note_on,1,0,0,,10,,,81,127
52131,note_on,0,0,0,,0,,,72,127
52131,note_on,0,0,0,,0,,,60,127
52131,note_on,0,0,0,,0,,,48,127
52485,note_off,354,0,0,,0,,,72,127
52485,note_off,0,0,0,,10,,,81,127
52486,note_on,1,0,0,,7,,,79,127
52486,note_on,0,0,0,,11,,,70,127
52662,note_off,176,0,0,,11,,,70,127
52662,note_off,0,0,0,,7,,,79,127
52662,note_off,0,0,0,,0,,,48,127
52662,note_off,0,0,0,,0,,,60,127
52663,note_on,1,0,0,,6,,,78,127
52663,note_on,0,0,0,,10,,,69,127
52663,note_on,0,0,0,,2,,,62,127
52663,note_on,0,0,0,,2,,,50,127
53017,note_off,354,0,0,,10,,,69,127
53017,note_off,0,0,0,,6,,,78,127
53018,note_on,1,0,0,,3,,,75,127
53018,note_on,0,0,0,,7,,,67,127
53194,note_off,176,0,0,,7,,,67,127
53194,note_off,0,0,0,,3,,,75,127
53195,note_on,1,0,0,,2,,,74,127
53195,note_on,0,0,0,,6,,,66,127
53549,note_off,354,0,0,,6,,,66,127
53549,note_off,0,0,0,,2,,,62,127
53550,note_on,1,0,0,,3,,,63,127
53550,note_on,0,0,0,,0,,,60,127
53725,note_off,175,0,0,,2,,,50,127
53726,note_off,1,0,0,,0,,,60,127
53726,note_off,0,0,0,,3,,,63,127
53727,note_on,1,0,0,,2,,,62,127
53727,note_on,0,0,0,,11,,,58,127
54081,note_off,354,0,0,,11,,,58,127
54081,note_off,0,0,0,,2,,,74,127
54082,note_on,1,0,0,,0,,,72,127
54082,note_on,0,0,0,,10,,,57,127
54258,note_off,176,0,0,,10,,,57,127
54258,note_off,0,0,0,,0,,,72,127
54258,note_off,0,0,0,,2,,,62,127
54259,note_on,1,0,0,,11,,,70,127
54259,note_on,0,0,0,,7,,,67,127
54259,note_on,0,0,0,,2,,,62,127
54259,note_on,0,0,0,,7,,,55,127
54613,note_off,354,0,0,,7,,,67,127
54613,note_off,0,0,0,,11,,,70,127
54614,note_on,1,0,0,,10,,,69,127
54614,note_on,0,0,0,,5,,,65,127
54790,note_off,176,0,0,,5,,,65,127
54790,note_off,0,0,0,,10,,,69,127
54790,note_off,0,0,0,,7,,,55,127
54790,note_off,0,0,0,,2,,,62,127
54791,note_on,1,0,0,,7,,,67,127
54791,note_on,0,0,0,,3,,,63,127
54791,note_on,0,0,0,,0,,,60,127
55145,note_off,354,0,0,,0,,,60,127
55145,note_off,0,0,0,,3,,,63,127
55146,note_on,1,0,0,,2,,,62,127
55146,note_on,0,0,0,,11,,,58,127
55322,note_off,176,0,0,,11,,,58,127
55322,note_off,0,0,0,,2,,,62,127
55322,note_off,0,0,0,,7,,,67,127
55323,note_on,1,0,0,,0,,,72,127
55323,note_on,0,0,0,,10,,,69,127
55323,note_on,0,0,0,,0,,,60,127
55323,note_on,0,0,0,,10,,,57,127
55677,note_off,354,0,0,,10,,,69,127
55677,note_off,0,0,0,,0,,,72,127
55678,note_on,1,0,0,,11,,,70,127
55678,note_on,0,0,0,,7,,,67,127
55854,note_off,176,0,0,,7,,,67,127
55854,note_off,0,0,0,,11,,,70,127
55854,note_off,0,0,0,,10,,,57,127
55854,note_off,0,0,0,,0,,,60,127
55855,note_on,1,0,0,,10,,,69,127
55855,note_on,0,0,0,,6,,,66,127
55855,note_on,0,0,0,,2,,,62,127
55855,note_on,0,0,0,,2,,,50,127
56209,note_off,354,0,0,,2,,,62,127
56209,note_off,0,0,0,,6,,,66,127
56210,note_on,1,0,0,,3,,,63,127
56210,note_on,0,0,0,,0,,,60,127
56386,note_off,176,0,0,,0,,,60,127
56386,note_off,0,0,0,,3,,,63,127
56386,note_off,0,0,0,,10,,,69,127
56387,note_on,1,0,0,,2,,,74,127
56387,note_on,0,0,0,,2,,,62,127
56387,note_on,0,0,0,,11,,,58,127
56741,note_off,354,0,0,,11,,,58,127
56741,note_off,0,0,0,,2,,,62,127
56742,note_on,1,0,0,,6,,,66,127
56742,note_on,0,0,0,,10,,,57,127
56918,note_off,176,0,0,,10,,,57,127
56918,note_off,0,0,0,,6,,,66,127
56918,note_off,0,0,0,,2,,,50,127
56919,note_on,1,0,0,,7,,,67,127
56919,note_on,0,0,0,,2,,,62,127
56919,note_on,0,0,0,,11,,,58,127
57273,note_off,354,0,0,,11,,,58,127
57273,note_off,0,0,0,,2,,,74,127
57274,note_on,1,0,0,,2,,,74,127
57274,note_on,0,0,0,,7,,,55,127
57450,note_off,176,0,0,,7,,,55,127
57450,note_off,0,0,0,,2,,,74,127
57450,note_off,0,0,0,,2,,,62,127
57450,note_off,0,0,0,,7,,,67,127
57451,note_on,1,0,0,,3,,,75,127
57451,note_on,0,0,0,,2,,,74,127
57451,note_on,0,0,0,,7,,,55,127
57451,note_on,0,0,0,,0,,,60,127
57451,note_on,0,0,0,,0,,,48,127
57805,note_off,354,0,0,,2,,,74,127
57806,note_on,1,0,0,,11,,,70,127
57982,note_off,176,0,0,,11,,,70,127
57983,note_on,1,0,0,,0,,,72,127
58337,note_off,354,0,0,,0,,,72,127
58338,note_on,1,0,0,,10,,,69,127
58513,note_off,175,0,0,,0,,,48,127
58513,note_off,0,0,0,,0,,,60,127
58513,note_off,0,0,0,,7,,,55,127
58514,note_off,1,0,0,,10,,,69,127
58514,note_off,0,0,0,,3,,,75,127
58515,note_on,1,0,0,,3,,,75,127
58515,note_on,0,0,0,,8,,,68,127
58869,note_off,354,0,0,,8,,,68,127
58870,note_on,1,0,0,,0,,,72,127
59046,note_off,176,0,0,,0,,,72,127
59047,note_on,1,0,0,,6,,,66,127
59047,note_on,0,0,0,,2,,,62,127
59047,note_on,0,0,0,,10,,,57,127
59047,note_on,0,0,0,,2,,,50,127
59401,note_off,354,0,0,,3,,,75,127
59402,note_on,1,0,0,,1,,,73,127
59578,note_off,176,0,0,,1,,,73,127
59579,note_on,1,0,0,,2,,,74,127
59933,note_off,354,0,0,,2,,,74,127
59934,note_on,1,0,0,,11,,,70,127
60109,note_off,175,0,0,,2,,,50,127
60109,note_off,0,0,0,,10,,,57,127
60109,note_off,0,0,0,,2,,,62,127
60110,note_off,1,0,0,,11,,,70,127
60110,note_off,0,0,0,,6,,,66,127
60111,note_on,1,0,0,,10,,,81,127
60111,note_on,0,0,0,,0,,,72,127
60465,note_off,354,0,0,,0,,,72,127
60466,note_on,1,0,0,,10,,,69,127
60642,note_off,176,0,0,,10,,,69,127
60643,note_on,1,0,0,,11,,,70,127
60643,note_on,0,0,0,,3,,,63,127
60643,note_on,0,0,0,,3,,,51,127
60997,note_off,354,0,0,,10,,,81,127
60998,note_on,1,0,0,,6,,,78,127
61174,note_off,176,0,0,,6,,,78,127
61175,note_on,1,0,0,,7,,,79,127
61529,note_off,354,0,0,,3,,,51,127
61529,note_off,0,0,0,,3,,,63,127
61529,note_off,0,0,0,,11,,,70,127
61530,note_on,1,0,0,,7,,,67,127
61530,note_on,0,0,0,,2,,,62,127
61530,note_on,0,0,0,,2,,,50,127
61706,note_off,176,0,0,,2,,,50,127
61706,note_off,0,0,0,,2,,,62,127
61706,note_off,0,0,0,,7,,,67,127
61707,note_on,1,0,0,,10,,,69,127
61707,note_on,0,0,0,,1,,,61,127
61707,note_on,0,0,0,,1,,,49,127
62061,note_off,354,0,0,,7,,,79,127
62062,note_on,1,0,0,,4,,,76,127
62238,note_off,176,0,0,,4,,,76,127
62238,note_off,0,0,0,,1,,,49,127
62238,note_off,0,0,0,,1,,,61,127
62239,note_on,1,0,0,,5,,,77,127
62239,note_on,0,0,0,,2,,,62,127
62239,note_on,0,0,0,,2,,,50,127
62593,note_off,354,0,0,,10,,,69,127
62594,note_on,1,0,0,,5,,,65,127
62770,note_off,176,0,0,,5,,,65,127
62770,note_off,0,0,0,,2,,,50,127
62770,note_off,0,0,0,,2,,,62,127
62771,note_on,1,0,0,,7,,,67,127
62771,note_on,0,0,0,,12,,,59,127
62771,note_on,0,0,0,,12,,,47,127
63125,note_off,354,0,0,,5,,,77,127
63126,note_on,1,0,0,,2,,,74,127
63302,note_off,176,0,0,,2,,,74,127
63302,note_off,0,0,0,,12,,,47,127
63302,note_off,0,0,0,,12,,,59,127
63303,note_on,1,0,0,,4,,,76,127
63303,note_on,0,0,0,,1,,,61,127
63303,note_on,0,0,0,,1,,,49,127
63657,note_off,354,0,0,,7,,,67,127
63658,note_on,1,0,0,,4,,,64,127
63834,note_off,176,0,0,,4,,,64,127
63834,note_off,0,0,0,,1,,,49,127
63834,note_off,0,0,0,,1,,,61,127
63835,note_on,1,0,0,,5,,,65,127
63835,note_on,0,0,0,,2,,,62,127
63835,note_on,0,0,0,,2,,,50,127
64189,note_off,354,0,0,,4,,,76,127
64190,note_on,1,0,0,,10,,,69,127
64366,note_off,176,0,0,,10,,,69,127
64366,note_off,0,0,0,,2,,,50,127
64367,note_on,1,0,0,,2,,,74,127
64721,note_off,354,0,0,,2,,,62,127
64721,note_off,0,0,0,,5,,,65,127
64722,note_on,1,0,0,,5,,,65,127
64722,note_on,0,0,0,,0,,,60,127
64898,note_off,176,0,0,,0,,,60,127
64898,note_off,0,0,0,,5,,,65,127
64899,note_on,1,0,0,,7,,,67,127
64899,note_on,0,0,0,,11,,,58,127
65253,note_off,354,0,0,,11,,,58,127
65253,note_off,0,0,0,,7,,,67,127
65254,note_on,1,0,0,,10,,,69,127
65254,note_on,0,0,0,,10,,,57,127
65430,note_off,176,0,0,,10,,,57,127
65430,note_off,0,0,0,,10,,,69,127
65431,note_on,1,0,0,,11,,,70,127
65431,note_on,0,0,0,,7,,,55,127
65785,note_off,354,0,0,,2,,,74,127
65786,note_on,1,0,0,,1,,,73,127
65786,note_on,0,0,0,,4,,,64,127
65962,note_off,176,0,0,,4,,,64,127
65962,note_off,0,0,0,,1,,,73,127
65962,note_off,0,0,0,,7,,,55,127
65963,note_on,1,0,0,,2,,,74,127
65963,note_on,0,0,0,,4,,,64,127
65963,note_on,0,0,0,,5,,,53,127
66317,note_off,354,0,0,,4,,,64,127
66317,note_off,0,0,0,,11,,,70,127
66318,note_on,1,0,0,,10,,,69,127
66318,note_on,0,0,0,,2,,,62,127
66494,note_off,176,0,0,,2,,,62,127
66494,note_off,0,0,0,,10,,,69,127
66494,note_off,0,0,0,,5,,,53,127
66494,note_off,0,0,0,,2,,,74,127
66495,note_on,1,0,0,,10,,,69,127
66495,note_on,0,0,0,,2,,,62,127
66495,note_on,0,0,0,,4,,,52,127
66849,note_off,354,0,0,,2,,,62,127
66849,note_off,0,0,0,,10,,,69,127
66850,note_on,1,0,0,,7,,,67,127
66850,note_on,0,0,0,,1,,,61,127
67026,note_off,176,0,0,,1,,,61,127
67026,note_off,0,0,0,,7,,,67,127
67026,note_off,0,0,0,,4,,,52,127
67027,note_on,1,0,0,,5,,,77,127
67027,note_on,0,0,0,,10,,,69,127
67027,note_on,0,0,0,,2,,,62,127
67027,note_on,0,0,0,,2,,,50,127
67381,note_off,354,0,0,,2,,,62,127
67382,note_on,1,0,0,,0,,,60,127
67558,note_off,176,0,0,,0,,,60,127
67558,note_off,0,0,0,,2,,,50,127
67558,note_off,0,0,0,,10,,,69,127
67558,note_off,0,0,0,,5,,,77,127
67559,note_on,1,0,0,,7,,,79,127
67559,note_on,0,0,0,,11,,,70,127
67559,note_on,0,0,0,,11,,,58,127
67559,note_on,0,0,0,,7,,,55,127
67913,note_off,354,0,0,,11,,,70,127
67913,note_off,0,0,0,,7,,,79,127
67914,note_on,1,0,0,,5,,,77,127
67914,note_on,0,0,0,,10,,,69,127
68090,note_off,176,0,0,,10,,,69,127
68090,note_off,0,0,0,,5,,,77,127
68090,note_off,0,0,0,,7,,,55,127
68090,note_off,0,0,0,,11,,,58,127
68091,note_on,1,0,0,,4,,,76,127
68091,note_on,0,0,0,,7,,,67,127
68091,note_on,0,0,0,,2,,,50,127
68091,note_on,0,0,0,,7,,,55,127
68091,note_on,0,0,0,,7,,,43,127
68445,note_off,354,0,0,,7,,,67,127
68445,note_off,0,0,0,,4,,,76,127
68446,note_on,1,0,0,,2,,,74,127
68446,note_on,0,0,0,,5,,,65,127
68622,note_off,176,0,0,,5,,,65,127
68622,note_off,0,0,0,,2,,,74,127
68622,note_off,0,0,0,,7,,,43,127
68622,note_off,0,0,0,,7,,,55,127
68622,note_off,0,0,0,,2,,,50,127
68623,note_on,1,0,0,,1,,,73,127
68623,note_on,0,0,0,,4,,,64,127
68623,note_on,0,0,0,,10,,,57,127
68623,note_on,0,0,0,,10,,,45,127
68977,note_off,354,0,0,,4,,,64,127
68977,note_off,0,0,0,,1,,,73,127
68978,note_on,1,0,0,,12,,,71,127
68978,note_on,0,0,0,,2,,,62,127
69154,note_off,176,0,0,,2,,,62,127
69154,note_off,0,0,0,,12,,,71,127
69155,note_on,1,0,0,,10,,,69,127
69155,note_on,0,0,0,,1,,,61,127
69509,note_off,354,0,0,,1,,,61,127
69509,note_off,0,0,0,,10,,,57,127
69510,note_on,1,0,0,,4,,,64,127
69510,note_on,0,0,0,,7,,,55,127
69686,note_off,176,0,0,,7,,,55,127
69686,note_off,0,0,0,,4,,,64,127
69686,note_off,0,0,0,,10,,,45,127
69687,note_on,1,0,0,,2,,,62,127
69687,note_on,0,0,0,,10,,,57,127
69687,note_on,0,0,0,,5,,,53,127
70041,note_off,354,0,0,,5,,,53,127
70041,note_off,0,0,0,,10,,,69,127
70042,note_on,1,0,0,,10,,,69,127
70042,note_on,0,0,0,,2,,,50,127
70218,note_off,176,0,0,,2,,,50,127
70218,note_off,0,0,0,,10,,,69,127
70218,note_off,0,0,0,,10,,,57,127
70218,note_off,0,0,0,,2,,,62,127
70219,note_on,1,0,0,,11,,,70,127
70219,note_on,0,0,0,,10,,,69,127
70219,note_on,0,0,0,,7,,,55,127
70219,note_on,0,0,0,,2,,,50,127
70219,note_on,0,0,0,,7,,,43,127
70573,note_off,354,0,0,,10,,,69,127
70574,note_on,1,0,0,,6,,,66,127
70750,note_off,176,0,0,,6,,,66,127
70751,note_on,1,0,0,,7,,,67,127
71105,note_off,354,0,0,,7,,,67,127
71106,note_on,1,0,0,,2,,,62,127
71281,note_off,175,0,0,,7,,,43,127
71281,note_off,0,0,0,,2,,,50,127
71281,note_off,0,0,0,,7,,,55,127
71282,note_off,1,0,0,,2,,,62,127
71282,note_off,0,0,0,,11,,,70,127
71283,note_on,1,0,0,,11,,,70,127
71283,note_on,0,0,0,,3,,,63,127
71637,note_off,354,0,0,,3,,,63,127
71638,note_on,1,0,0,,7,,,67,127
71814,note_off,176,0,0,,7,,,67,127
71815,note_on,1,0,0,,1,,,61,127
71815,note_on,0,0,0,,10,,,57,127
71815,note_on,0,0,0,,4,,,52,127
71815,note_on,0,0,0,,10,,,45,127
72169,note_off,354,0,0,,11,,,70,127
72170,note_on,1,0,0,,8,,,68,127
72346,note_off,176,0,0,,8,,,68,127
72347,note_on,1,0,0,,10,,,69,127
72701,note_off,354,0,0,,10,,,69,127
72702,note_on,1,0,0,,5,,,65,127
72877,note_off,175,0,0,,10,,,45,127
72877,note_off,0,0,0,,4,,,52,127
72877,note_off,0,0,0,,10,,,57,127
72878,note_off,1,0,0,,5,,,65,127
72878,note_off,0,0,0,,1,,,61,127
72879,note_on,1,0,0,,4,,,76,127
72879,note_on,0,0,0,,7,,,67,127
73233,note_off,354,0,0,,7,,,67,127
73234,note_on,1,0,0,,4,,,64,127
73410,note_off,176,0,0,,4,,,64,127
73411,note_on,1,0,0,,5,,,65,127
73411,note_on,0,0,0,,11,,,58,127
73411,note_on,0,0,0,,11,,,46,127
73765,note_off,354,0,0,,4,,,76,127
73766,note_on,1,0,0,,1,,,73,127
73942,note_off,176,0,0,,1,,,73,127
73943,note_on,1,0,0,,2,,,74,127
74297,note_off,354,0,0,,11,,,46,127
74297,note_off,0,0,0,,5,,,65,127
74298,note_on,1,0,0,,10,,,69,127
74298,note_on,0,0,0,,5,,,53,127
74474,note_off,176,0,0,,5,,,53,127
74474,note_off,0,0,0,,10,,,69,127
74474,note_off,0,0,0,,2,,,74,127
74474,note_off,0,0,0,,11,,,58,127
74475,note_on,1,0,0,,7,,,79,127
74475,note_on,0,0,0,,11,,,70,127
74475,note_on,0,0,0,,7,,,55,127
74829,note_off,354,0,0,,11,,,70,127
74830,note_on,1,0,0,,7,,,67,127
74830,note_on,0,0,0,,2,,,62,127
75006,note_off,176,0,0,,2,,,62,127
75006,note_off,0,0,0,,7,,,67,127
75006,note_off,0,0,0,,7,,,55,127
75007,note_on,1,0,0,,10,,,69,127
75007,note_on,0,0,0,,4,,,64,127
75007,note_on,0,0,0,,1,,,61,127
75361,note_off,354,0,0,,7,,,79,127
75362,note_on,1,0,0,,4,,,76,127
75538,note_off,176,0,0,,4,,,76,127
75538,note_off,0,0,0,,1,,,61,127
75538,note_off,0,0,0,,4,,,64,127
75539,note_on,1,0,0,,5,,,77,127
75539,note_on,0,0,0,,5,,,53,127
75539,note_on,0,0,0,,2,,,50,127
75893,note_off,354,0,0,,2,,,50,127
75893,note_off,0,0,0,,5,,,53,127
75893,note_off,0,0,0,,5,,,77,127
75894,note_on,1,0,0,,1,,,73,127
75894,note_on,0,0,0,,7,,,55,127
75894,note_on,0,0,0,,4,,,52,127
76070,note_off,176,0,0,,4,,,52,127
76070,note_off,0,0,0,,7,,,55,127
76070,note_off,0,0,0,,1,,,73,127
76070,note_off,0,0,0,,10,,,69,127
76071,note_on,1,0,0,,10,,,81,127
76071,note_on,0,0,0,,2,,,74,127
76071,note_on,0,0,0,,10,,,57,127
76071,note_on,0,0,0,,5,,,53,127
76425,note_off,354,0,0,,2,,,74,127
76426,note_on,1,0,0,,10,,,69,127
76602,note_off,176,0,0,,10,,,69,127
76602,note_off,0,0,0,,5,,,53,127
76602,note_off,0,0,0,,10,,,57,127
76603,note_on,1,0,0,,11,,,70,127
76603,note_on,0,0,0,,2,,,50,127
76603,note_on,0,0,0,,7,,,55,127
76603,note_on,0,0,0,,7,,,43,127
76957,note_off,354,0,0,,10,,,81,127
76958,note_on,1,0,0,,6,,,78,127
77134,note_off,176,0,0,,6,,,78,127
77134,note_off,0,0,0,,7,,,43,127
77134,note_off,0,0,0,,2,,,50,127
77135,note_on,1,0,0,,7,,,79,127
77135,note_on,0,0,0,,4,,,52,127
77489,note_off,354,0,0,,11,,,70,127
77490,note_on,1,0,0,,7,,,67,127
77666,note_off,176,0,0,,7,,,67,127
77666,note_off,0,0,0,,4,,,52,127
77666,note_off,0,0,0,,7,,,55,127
77667,note_on,1,0,0,,10,,,69,127
77667,note_on,0,0,0,,4,,,52,127
77667,note_on,0,0,0,,1,,,49,127
78021,note_off,354,0,0,,7,,,79,127
78022,note_on,1,0,0,,4,,,76,127
78198,note_off,176,0,0,,4,,,76,127
78198,note_off,0,0,0,,1,,,49,127
78198,note_off,0,0,0,,4,,,52,127
78199,note_on,1,0,0,,5,,,77,127
78199,note_on,0,0,0,,7,,,55,127
78199,note_on,0,0,0,,2,,,50,127
78199,note_on,0,0,0,,7,,,43,127
78553,note_off,354,0,0,,10,,,69,127
78554,note_on,1,0,0,,11,,,70,127
78730,note_off,176,0,0,,11,,,70,127
78730,note_off,0,0,0,,7,,,43,127
78730,note_off,0,0,0,,2,,,50,127
78730,note_off,0,0,0,,7,,,55,127
78730,note_off,0,0,0,,5,,,77,127
78731,note_on,1,0,0,,3,,,75,127
78731,note_on,0,0,0,,7,,,67,127
78731,note_on,0,0,0,,7,,,55,127
78731,note_on,0,0,0,,7,,,43,127
79085,note_off,354,0,0,,7,,,67,127
79086,note_on,1,0,0,,10,,,69,127
79262,note_off,176,0,0,,10,,,69,127
79262,note_off,0,0,0,,7,,,43,127
79262,note_off,0,0,0,,7,,,55,127
79262,note_off,0,0,0,,3,,,75,127
79263,note_on,1,0,0,,2,,,74,127
79263,note_on,0,0,0,,5,,,65,127
79263,note_on,0,0,0,,8,,,56,127
79263,note_on,0,0,0,,8,,,44,127
79617,note_off,354,0,0,,5,,,65,127
79618,note_on,1,0,0,,7,,,67,127
79794,note_off,176,0,0,,7,,,67,127
79794,note_off,0,0,0,,8,,,44,127
79794,note_off,0,0,0,,8,,,56,127
79794,note_off,0,0,0,,2,,,74,127
79795,note_on,1,0,0,,1,,,73,127
79795,note_on,0,0,0,,4,,,64,127
79795,note_on,0,0,0,,10,,,57,127
79795,note_on,0,0,0,,10,,,45,127
80149,note_off,354,0,0,,10,,,57,127
80149,note_off,0,0,0,,4,,,64,127
80150,note_on,1,0,0,,11,,,70,127
80150,note_on,0,0,0,,7,,,55,127
80326,note_off,176,0,0,,7,,,55,127
80326,note_off,0,0,0,,11,,,70,127
80327,note_on,1,0,0,,10,,,69,127
80327,note_on,0,0,0,,5,,,53,127
80681,note_off,354,0,0,,5,,,53,127
80681,note_off,0,0,0,,10,,,69,127
80681,note_off,0,0,0,,1,,,73,127
80682,note_on,1,0,0,,1,,,73,127
80682,note_on,0,0,0,,7,,,67,127
80682,note_on,0,0,0,,4,,,52,127
80858,note_off,176,0,0,,4,,,52,127
80858,note_off,0,0,0,,7,,,67,127
80858,note_off,0,0,0,,1,,,73,127
80858,note_off,0,0,0,,10,,,45,127
80859,note_on,1,0,0,,2,,,74,127
80859,note_on,0,0,0,,10,,,69,127
80859,note_on,0,0,0,,5,,,65,127
80859,note_on,0,0,0,,2,,,62,127
80859,note_on,0,0,0,,10,,,57,127
80859,note_on,0,0,0,,5,,,53,127
81213,note_off,354,0,0,,5,,,53,127
81214,note_on,1,0,0,,2,,,50,127
81390,note_off,176,0,0,,2,,,50,127
81390,note_off,0,0,0,,10,,,57,127
81390,note_off,0,0,0,,2,,,62,127
81390,note_off,0,0,0,,5,,,65,127
81390,note_off,0,0,0,,10,,,69,127
81391,note_on,1,0,0,,7,,,67,127
81391,note_on,0,0,0,,11,,,70,127
81391,note_on,0,0,0,,2,,,62,127
81391,note_on,0,0,0,,11,,,58,127
81391,note_on,0,0,0,,7,,,55,127
81745,note_off,354,0,0,,2,,,74,127
81746,note_on,1,0,0,,4,,,76,127
81922,note_off,176,0,0,,4,,,76,127
81922,note_off,0,0,0,,7,,,55,127
81922,note_off,0,0,0,,11,,,58,127
81922,note_off,0,0,0,,2,,,62,127
81923,note_on,1,0,0,,4,,,76,127
81923,note_on,0,0,0,,2,,,62,127
81923,note_on,0,0,0,,4,,,64,127
81923,note_on,0,0,0,,10,,,57,127
81923,note_on,0,0,0,,7,,,55,127
81923,note_on,0,0,0,,4,,,52,127
82454,note_off,531,0,0,,4,,,52,127
82454,note_off,0,0,0,,7,,,55,127
82454,note_off,0,0,0,,10,,,57,127
82454,note_off,0,0,0,,4,,,64,127
82454,note_off,0,0,0,,2,,,62,127
82455,note_on,1,0,0,,4,,,64,127
82455,note_on,0,0,0,,1,,,61,127
82455,note_on,0,0,0,,10,,,57,127
82986,note_off,531,0,0,,10,,,57,127
82986,note_off,0,0,0,,1,,,61,127
82986,note_off,0,0,0,,4,,,64,127
82986,note_off,0,0,0,,4,,,76,127
82986,note_off,0,0,0,,11,,,70,127
82986,note_off,0,0,0,,7,,,67,127
82987,note_on,1,0,0,,2,,,50,127
82987,note_on,0,0,0,,10,,,57,127
82987,note_on,0,0,0,,2,,,62,127
82987,note_on,0,0,0,,2,,,74,127
82987,note_on,0,0,0,,5,,,77,127
83383,note_off,396,0,0,,5,,,77,127
83383,note_off,0,0,0,,2,,,74,127
83384,note_on,1,0,0,,4,,,76,127
83384,note_on,0,0,0,,7,,,79,127
83581,note_off,197,0,0,,7,,,79,127
83581,note_off,0,0,0,,4,,,76,127
83584,note_on,3,0,0,,5,,,77,127
83584,note_on,0,0,0,,10,,,81,127
83980,note_off,396,0,0,,10,,,81,127
83980,note_off,0,0,0,,5,,,77,127
83982,note_off,2,0,0,,2,,,62,127
83982,note_off,0,0,0,,10,,,57,127
83982,note_off,0,0,0,,2,,,50,127
83983,note_on,1,0,0,,10,,,57,127
83983,note_on,0,0,0,,4,,,64,127
83983,note_on,0,0,0,,10,,,69,127
83983,note_on,0,0,0,,1,,,73,127
84180,note_off,197,0,0,,1,,,73,127
84180,note_off,0,0,0,,10,,,69,127
84180,note_off,0,0,0,,4,,,64,127
84180,note_off,0,0,0,,10,,,57,127
84183,note_on,3,0,0,,11,,,58,127
84183,note_on,0,0,0,,2,,,62,127
84183,note_on,0,0,0,,7,,,67,127
84183,note_on,0,0,0,,2,,,74,127
84579,note_off,396,0,0,,7,,,67,127
84579,note_off,0,0,0,,11,,,58,127
84582,note_on,3,0,0,,10,,,57,127
84582,note_on,0,0,0,,10,,,69,127
84779,note_off,197,0,0,,10,,,69,127
84779,note_off,0,0,0,,10,,,57,127
84779,note_off,0,0,0,,2,,,62,127
84782,note_on,3,0,0,,11,,,70,127
84782,note_on,0,0,0,,11,,,58,127
84782,note_on,0,0,0,,2,,,62,127
84782,note_on,0,0,0,,7,,,55,127
85178,note_off,396,0,0,,2,,,74,127
85194,note_off,16,0,0,,11,,,70,127
85198,note_on,4,0,0,,4,,,76,127
85198,note_on,0,0,0,,7,,,67,127
85401,note_off,203,0,0,,7,,,55,127
85401,note_off,0,0,0,,2,,,62,127
85401,note_off,0,0,0,,11,,,58,127
85402,note_off,1,0,0,,7,,,67,127
85402,note_off,0,0,0,,4,,,76,127
85405,note_on,3,0,0,,10,,,69,127
85405,note_on,0,0,0,,5,,,65,127
85405,note_on,0,0,0,,10,,,57,127
85405,note_on,0,0,0,,5,,,53,127
85405,note_on,0,0,0,,2,,,50,127
85405,note_on,0,0,0,,10,,,45,127
85817,note_off,412,0,0,,10,,,69,127
85820,note_on,3,0,0,,2,,,74,127
86024,note_off,204,0,0,,10,,,45,127
86024,note_off,0,0,0,,2,,,50,127
86024,note_off,0,0,0,,5,,,53,127
86024,note_off,0,0,0,,10,,,57,127
86024,note_off,0,0,0,,5,,,65,127
86028,note_on,4,0,0,,7,,,67,127
86028,note_on,0,0,0,,4,,,64,127
86028,note_on,0,0,0,,4,,,52,127
86028,note_on,0,0,0,,7,,,55,127
86028,note_on,0,0,0,,10,,,45,127
86439,note_off,411,0,0,,2,,,74,127
86443,note_on,4,0,0,,1,,,73,127
86647,note_off,204,0,0,,1,,,73,127
86647,note_off,0,0,0,,10,,,45,127
86647,note_off,0,0,0,,7,,,55,127
86647,note_off,0,0,0,,4,,,52,127
86647,note_off,0,0,0,,4,,,64,127
86647,note_off,0,0,0,,7,,,67,127
86665,note_on,18,0,0,,2,,,62,127
86665,note_on,0,0,0,,2,,,74,127
86665,note_on,0,0,0,,2,,,38,127
86665,note_on,0,0,0,,2,,,50,127
89902,note_off,3237,0,0,,2,,,50,127
89902,note_off,0,0,0,,2,,,38,127
89902,note_off,0,0,0,,2,,,74,127
89902,note_off,0,0,0,,2,,,62,127
96768,end_of_track,6866,1,0,,,,,,
