tick,type,time,meta,track,program,channel,pitch,tempo,note,velocity
0,copyright,0,1,0,,,,,,
0,program_change,0,0,0,6,0,,,,
0,pitchwheel,0,0,0,,0,0,,,
0,program_change,0,0,0,6,1,,,,
0,pitchwheel,0,0,0,,1,-590,,,
0,program_change,0,0,0,6,2,,,,
0,pitchwheel,0,0,0,,2,-272,,,
0,program_change,0,0,0,6,3,,,,
0,pitchwheel,0,0,0,,3,-353,,,
0,program_change,0,0,0,6,4,,,,
0,pitchwheel,0,0,0,,4,-560,,,
0,program_change,0,0,0,6,5,,,,
0,pitchwheel,0,0,0,,5,-80,,,
0,program_change,0,0,0,6,6,,,,
0,pitchwheel,0,0,0,,6,-625,,,
0,program_change,0,0,0,6,7,,,,
0,pitchwheel,0,0,0,,7,-130,,,
0,program_change,0,0,0,6,8,,,,
0,pitchwheel,0,0,0,,8,-512,,,
0,program_change,0,0,0,6,10,,,,
0,pitchwheel,0,0,0,,10,-464,,,
0,program_change,0,0,0,6,11,,,,
0,pitchwheel,0,0,0,,11,-208,,,
0,program_change,0,0,0,6,12,,,,
0,pitchwheel,0,0,0,,12,-553,,,
0,set_tempo,0,1,0,,,,500000,,
46,note_on,46,0,0,,7,,,55,127
772,note_off,726,0,0,,7,,,55,127
784,note_on,12,0,0,,2,,,62,127
1510,note_off,726,0,0,,2,,,62,127
1522,note_on,12,0,0,,11,,,58,127
1890,note_off,368,0,0,,11,,,58,127
1891,note_on,1,0,0,,7,,,55,127
2259,note_off,368,0,0,,7,,,55,127
2260,note_on,1,0,0,,5,,,53,127
2382,note_on,122,0,0,,3,,,51,127
2385,note_off,3,0,0,,5,,,53,127
2468,note_on,83,0,0,,5,,,53,127
2474,note_off,6,0,0,,3,,,51,127
2557,note_on,83,0,0,,3,,,51,127
2560,note_off,3,0,0,,5,,,53,127
2645,note_on,85,0,0,,5,,,53,127
2648,note_off,3,0,0,,3,,,51,127
2733,note_on,85,0,0,,3,,,51,127
2736,note_off,3,0,0,,5,,,53,127
2821,note_on,85,0,0,,5,,,53,127
2824,note_off,3,0,0,,3,,,51,127
2909,note_on,85,0,0,,3,,,51,127
2912,note_off,3,0,0,,5,,,53,127
2997,note_on,85,0,0,,2,,,50,127
3000,note_off,3,0,0,,3,,,51,127
3180,note_off,180,0,0,,2,,,50,127
3181,note_on,1,0,0,,4,,,52,127
3364,note_off,183,0,0,,4,,,52,127
3365,note_on,1,0,0,,6,,,54,127
3548,note_off,183,0,0,,6,,,54,127
3549,note_on,1,0,0,,7,,,55,127
3732,note_off,183,0,0,,7,,,55,127
3733,note_on,1,0,0,,10,,,57,127
3916,note_off,183,0,0,,10,,,57,127
3917,note_on,1,0,0,,11,,,58,127
4100,note_off,183,0,0,,11,,,58,127
4101,note_on,1,0,0,,0,,,60,127
4284,note_off,183,0,0,,0,,,60,127
4285,note_on,1,0,0,,10,,,57,127
4468,note_off,183,0,0,,10,,,57,127
4469,note_on,1,0,0,,11,,,58,127
4469,note_on,0,0,0,,2,,,62,127
4652,note_off,183,0,0,,11,,,58,127
4653,note_on,1,0,0,,0,,,60,127
4836,note_off,183,0,0,,0,,,60,127
4837,note_on,1,0,0,,11,,,58,127
5020,note_off,183,0,0,,11,,,58,127
5021,note_on,1,0,0,,10,,,57,127
5204,note_off,183,0,0,,10,,,57,127
5204,note_off,0,0,0,,2,,,62,127
5205,note_on,1,0,0,,7,,,55,127
5205,note_on,0,0,0,,7,,,67,127
5388,note_off,183,0,0,,7,,,55,127
5389,note_on,1,0,0,,10,,,57,127
5572,note_off,183,0,0,,10,,,57,127
5573,note_on,1,0,0,,12,,,59,127
5756,note_off,183,0,0,,12,,,59,127
5757,note_on,1,0,0,,1,,,61,127
5940,note_off,183,0,0,,1,,,61,127
5940,note_off,0,0,0,,7,,,67,127
5941,note_on,1,0,0,,2,,,62,127
5941,note_on,0,0,0,,5,,,65,127
6124,note_off,183,0,0,,2,,,62,127
6125,note_on,1,0,0,,0,,,60,127
6308,note_off,183,0,0,,0,,,60,127
6308,note_off,0,0,0,,5,,,65,127
6309,note_on,1,0,0,,11,,,58,127
6309,note_on,0,0,0,,2,,,62,127
6492,note_off,183,0,0,,11,,,58,127
6493,note_on,1,0,0,,10,,,57,127
6676,note_off,183,0,0,,10,,,57,127
6676,note_off,0,0,0,,2,,,62,127
6677,note_on,1,0,0,,7,,,55,127
6677,note_on,0,0,0,,0,,,60,127
6800,note_on,123,0,0,,11,,,58,127
6860,note_off,60,0,0,,0,,,60,127
6861,note_off,1,0,0,,7,,,55,127
6862,note_on,1,0,0,,5,,,53,127
6870,note_on,8,0,0,,0,,,60,127
6892,note_off,22,0,0,,11,,,58,127
6939,note_on,47,0,0,,11,,,58,127
6961,note_off,22,0,0,,0,,,60,127
7008,note_on,47,0,0,,0,,,60,127
7030,note_off,22,0,0,,11,,,58,127
7045,note_off,15,0,0,,5,,,53,127
7046,note_on,1,0,0,,4,,,52,127
7077,note_on,31,0,0,,11,,,58,127
7099,note_off,22,0,0,,0,,,60,127
7146,note_on,47,0,0,,0,,,60,127
7168,note_off,22,0,0,,11,,,58,127
7213,note_on,45,0,0,,11,,,58,127
7229,note_off,16,0,0,,4,,,52,127
7230,note_on,1,0,0,,2,,,50,127
7237,note_off,7,0,0,,0,,,60,127
7280,note_on,43,0,0,,0,,,60,127
7304,note_off,24,0,0,,11,,,58,127
7347,note_on,43,0,0,,11,,,58,127
7371,note_off,24,0,0,,0,,,60,127
7413,note_off,42,0,0,,2,,,50,127
7414,note_on,1,0,0,,1,,,49,127
7414,note_on,0,0,0,,10,,,57,127
7438,note_off,24,0,0,,11,,,58,127
7597,note_off,159,0,0,,10,,,57,127
7598,note_on,1,0,0,,12,,,59,127
7781,note_off,183,0,0,,12,,,59,127
7781,note_off,0,0,0,,1,,,49,127
7782,note_on,1,0,0,,10,,,45,127
7782,note_on,0,0,0,,1,,,61,127
7965,note_off,183,0,0,,1,,,61,127
7966,note_on,1,0,0,,2,,,62,127
8149,note_off,183,0,0,,2,,,62,127
8149,note_off,0,0,0,,10,,,45,127
8150,note_on,1,0,0,,10,,,45,127
8150,note_on,0,0,0,,4,,,64,127
8333,note_off,183,0,0,,4,,,64,127
8334,note_on,1,0,0,,5,,,65,127
8517,note_off,183,0,0,,5,,,65,127
8517,note_off,0,0,0,,10,,,45,127
8518,note_on,1,0,0,,10,,,45,127
8518,note_on,0,0,0,,7,,,67,127
8701,note_off,183,0,0,,7,,,67,127
8702,note_on,1,0,0,,4,,,64,127
8885,note_off,183,0,0,,4,,,64,127
8885,note_off,0,0,0,,10,,,45,127
8886,note_on,1,0,0,,2,,,50,127
8886,note_on,0,0,0,,5,,,65,127
9069,note_off,183,0,0,,2,,,50,127
9070,note_on,1,0,0,,4,,,52,127
9253,note_off,183,0,0,,4,,,52,127
9254,note_on,1,0,0,,5,,,53,127
9437,note_off,183,0,0,,5,,,53,127
9438,note_on,1,0,0,,7,,,55,127
9621,note_off,183,0,0,,7,,,55,127
9621,note_off,0,0,0,,5,,,65,127
9622,note_on,1,0,0,,10,,,57,127
9622,note_on,0,0,0,,4,,,64,127
9805,note_off,183,0,0,,10,,,57,127
9806,note_on,1,0,0,,11,,,58,127
9989,note_off,183,0,0,,11,,,58,127
9989,note_off,0,0,0,,4,,,64,127
9990,note_on,1,0,0,,0,,,60,127
9990,note_on,0,0,0,,6,,,66,127
10173,note_off,183,0,0,,0,,,60,127
10174,note_on,1,0,0,,10,,,57,127
10357,note_off,183,0,0,,10,,,57,127
10357,note_off,0,0,0,,6,,,66,127
10358,note_on,1,0,0,,11,,,58,127
10358,note_on,0,0,0,,7,,,67,127
10541,note_off,183,0,0,,11,,,58,127
10542,note_on,1,0,0,,7,,,55,127
10725,note_off,183,0,0,,7,,,55,127
10726,note_on,1,0,0,,11,,,58,127
10909,note_off,183,0,0,,11,,,58,127
10910,note_on,1,0,0,,0,,,60,127
11093,note_off,183,0,0,,0,,,60,127
11093,note_off,0,0,0,,7,,,67,127
11094,note_on,1,0,0,,2,,,62,127
11094,note_on,0,0,0,,2,,,74,127
11277,note_off,183,0,0,,2,,,62,127
11278,note_on,1,0,0,,2,,,50,127
11461,note_off,183,0,0,,2,,,50,127
11462,note_on,1,0,0,,4,,,52,127
11645,note_off,183,0,0,,4,,,52,127
11646,note_on,1,0,0,,6,,,54,127
11829,note_off,183,0,0,,6,,,54,127
11829,note_off,0,0,0,,2,,,74,127
11830,note_on,1,0,0,,7,,,55,127
11830,note_on,0,0,0,,11,,,70,127
12013,note_off,183,0,0,,7,,,55,127
12014,note_on,1,0,0,,5,,,53,127
12197,note_off,183,0,0,,5,,,53,127
12197,note_off,0,0,0,,11,,,70,127
12198,note_on,1,0,0,,3,,,51,127
12198,note_on,0,0,0,,7,,,67,127
12381,note_off,183,0,0,,3,,,51,127
12382,note_on,1,0,0,,2,,,50,127
12565,note_off,183,0,0,,2,,,50,127
12565,note_off,0,0,0,,7,,,67,127
12566,note_on,1,0,0,,0,,,48,127
12566,note_on,0,0,0,,5,,,65,127
12748,note_off,182,0,0,,5,,,65,127
12749,note_off,1,0,0,,0,,,48,127
12750,note_on,1,0,0,,11,,,46,127
12750,note_on,0,0,0,,3,,,63,127
12811,note_on,61,0,0,,5,,,65,127
12841,note_off,30,0,0,,3,,,63,127
12873,note_on,32,0,0,,3,,,63,127
12903,note_off,30,0,0,,5,,,65,127
12934,note_off,31,0,0,,11,,,46,127
12935,note_on,1,0,0,,10,,,45,127
12935,note_on,0,0,0,,5,,,65,127
12965,note_off,30,0,0,,3,,,63,127
12997,note_on,32,0,0,,3,,,63,127
13027,note_off,30,0,0,,5,,,65,127
13059,note_on,32,0,0,,5,,,65,127
13089,note_off,30,0,0,,3,,,63,127
13120,note_off,31,0,0,,10,,,45,127
13121,note_on,1,0,0,,7,,,43,127
13121,note_on,0,0,0,,3,,,63,127
13151,note_off,30,0,0,,5,,,65,127
13183,note_on,32,0,0,,5,,,65,127
13213,note_off,30,0,0,,3,,,63,127
13245,note_on,32,0,0,,3,,,63,127
13275,note_off,30,0,0,,5,,,65,127
13306,note_off,31,0,0,,7,,,43,127
13307,note_on,1,0,0,,6,,,42,127
13307,note_on,0,0,0,,2,,,62,127
13337,note_off,30,0,0,,3,,,63,127
13491,note_off,154,0,0,,2,,,62,127
13492,note_on,1,0,0,,4,,,64,127
13675,note_off,183,0,0,,4,,,64,127
13675,note_off,0,0,0,,6,,,42,127
13676,note_on,1,0,0,,2,,,38,127
13676,note_on,0,0,0,,6,,,66,127
13859,note_off,183,0,0,,6,,,66,127
13860,note_on,1,0,0,,7,,,67,127
14043,note_off,183,0,0,,7,,,67,127
14043,note_off,0,0,0,,2,,,38,127
14044,note_on,1,0,0,,2,,,38,127
14044,note_on,0,0,0,,10,,,69,127
14227,note_off,183,0,0,,10,,,69,127
14228,note_on,1,0,0,,11,,,70,127
14411,note_off,183,0,0,,11,,,70,127
14411,note_off,0,0,0,,2,,,38,127
14412,note_on,1,0,0,,2,,,38,127
14412,note_on,0,0,0,,0,,,72,127
14595,note_off,183,0,0,,0,,,72,127
14596,note_on,1,0,0,,10,,,69,127
14779,note_off,183,0,0,,10,,,69,127
14779,note_off,0,0,0,,2,,,38,127
14780,note_on,1,0,0,,7,,,43,127
14780,note_on,0,0,0,,11,,,70,127
14963,note_off,183,0,0,,7,,,43,127
14964,note_on,1,0,0,,10,,,45,127
15147,note_off,183,0,0,,10,,,45,127
15148,note_on,1,0,0,,11,,,46,127
15331,note_off,183,0,0,,11,,,46,127
15332,note_on,1,0,0,,0,,,48,127
15515,note_off,183,0,0,,0,,,48,127
15515,note_off,0,0,0,,11,,,70,127
15516,note_on,1,0,0,,2,,,50,127
15516,note_on,0,0,0,,11,,,70,127
15692,note_on,176,0,0,,10,,,69,127
15699,note_off,7,0,0,,11,,,70,127
15700,note_off,1,0,0,,2,,,50,127
15701,note_on,1,0,0,,4,,,52,127
15755,note_on,54,0,0,,11,,,70,127
15784,note_off,29,0,0,,10,,,69,127
15818,note_on,34,0,0,,10,,,69,127
15847,note_off,29,0,0,,11,,,70,127
15881,note_on,34,0,0,,11,,,70,127
15886,note_off,5,0,0,,4,,,52,127
15887,note_on,1,0,0,,5,,,53,127
15910,note_off,23,0,0,,10,,,69,127
15944,note_on,34,0,0,,10,,,69,127
15973,note_off,29,0,0,,11,,,70,127
16007,note_on,34,0,0,,11,,,70,127
16036,note_off,29,0,0,,10,,,69,127
16070,note_on,34,0,0,,10,,,69,127
16072,note_off,2,0,0,,5,,,53,127
16073,note_on,1,0,0,,2,,,50,127
16099,note_off,26,0,0,,11,,,70,127
16133,note_on,34,0,0,,11,,,70,127
16162,note_off,29,0,0,,10,,,69,127
16196,note_on,34,0,0,,10,,,69,127
16225,note_off,29,0,0,,11,,,70,127
16258,note_off,33,0,0,,2,,,50,127
16259,note_on,1,0,0,,3,,,51,127
16259,note_on,0,0,0,,7,,,67,127
16288,note_off,29,0,0,,10,,,69,127
16443,note_off,155,0,0,,7,,,67,127
16444,note_on,1,0,0,,10,,,69,127
16627,note_off,183,0,0,,10,,,69,127
16628,note_on,1,0,0,,11,,,70,127
16811,note_off,183,0,0,,11,,,70,127
16812,note_on,1,0,0,,0,,,72,127
16995,note_off,183,0,0,,0,,,72,127
16995,note_off,0,0,0,,3,,,51,127
16996,note_on,1,0,0,,3,,,51,127
16996,note_on,0,0,0,,2,,,74,127
17122,note_on,126,0,0,,2,,,50,127
17138,note_off,16,0,0,,3,,,51,127
17179,note_off,41,0,0,,2,,,74,127
17180,note_on,1,0,0,,3,,,75,127
17213,note_off,33,0,0,,2,,,50,127
17214,note_on,1,0,0,,3,,,51,127
17298,note_on,84,0,0,,2,,,50,127
17305,note_off,7,0,0,,3,,,51,127
17364,note_off,59,0,0,,3,,,75,127
17365,note_on,1,0,0,,5,,,77,127
17383,note_on,18,0,0,,3,,,51,127
17390,note_off,7,0,0,,2,,,50,127
17468,note_on,78,0,0,,2,,,50,127
17475,note_off,7,0,0,,3,,,51,127
17549,note_off,74,0,0,,5,,,77,127
17550,note_on,1,0,0,,2,,,74,127
17553,note_on,3,0,0,,3,,,51,127
17560,note_off,7,0,0,,2,,,50,127
17638,note_on,78,0,0,,2,,,50,127
17645,note_off,7,0,0,,3,,,51,127
17729,note_off,84,0,0,,2,,,50,127
17734,note_off,5,0,0,,2,,,74,127
17735,note_on,1,0,0,,0,,,48,127
17735,note_on,0,0,0,,3,,,75,127
17735,note_on,0,0,0,,0,,,72,127
17918,note_off,183,0,0,,0,,,48,127
17919,note_on,1,0,0,,2,,,50,127
18102,note_off,183,0,0,,2,,,50,127
18103,note_on,1,0,0,,3,,,51,127
18286,note_off,183,0,0,,3,,,51,127
18287,note_on,1,0,0,,5,,,53,127
18470,note_off,183,0,0,,5,,,53,127
18470,note_off,0,0,0,,0,,,72,127
18470,note_off,0,0,0,,3,,,75,127
18471,note_on,1,0,0,,7,,,55,127
18471,note_on,0,0,0,,7,,,79,127
18471,note_on,0,0,0,,11,,,70,127
18654,note_off,183,0,0,,7,,,55,127
18655,note_on,1,0,0,,10,,,57,127
18838,note_off,183,0,0,,10,,,57,127
18839,note_on,1,0,0,,11,,,58,127
19022,note_off,183,0,0,,11,,,58,127
19023,note_on,1,0,0,,0,,,60,127
19206,note_off,183,0,0,,0,,,60,127
19206,note_off,0,0,0,,11,,,70,127
19206,note_off,0,0,0,,7,,,79,127
19207,note_on,1,0,0,,2,,,62,127
19207,note_on,0,0,0,,5,,,77,127
19207,note_on,0,0,0,,10,,,69,127
19390,note_off,183,0,0,,2,,,62,127
19391,note_on,1,0,0,,0,,,60,127
19574,note_off,183,0,0,,0,,,60,127
19574,note_off,0,0,0,,10,,,69,127
19574,note_off,0,0,0,,5,,,77,127
19575,note_on,1,0,0,,11,,,58,127
19575,note_on,0,0,0,,2,,,74,127
19758,note_off,183,0,0,,11,,,58,127
19759,note_on,1,0,0,,10,,,57,127
19942,note_off,183,0,0,,10,,,57,127
19942,note_off,0,0,0,,2,,,74,127
19943,note_on,1,0,0,,7,,,55,127
19943,note_on,0,0,0,,0,,,72,127
20119,note_on,176,0,0,,11,,,70,127
20126,note_off,7,0,0,,0,,,72,127
20127,note_off,1,0,0,,7,,,55,127
20128,note_on,1,0,0,,5,,,53,127
20182,note_on,54,0,0,,0,,,72,127
20211,note_off,29,0,0,,11,,,70,127
20245,note_on,34,0,0,,11,,,70,127
20274,note_off,29,0,0,,0,,,72,127
20308,note_on,34,0,0,,0,,,72,127
20313,note_off,5,0,0,,5,,,53,127
20314,note_on,1,0,0,,4,,,52,127
20337,note_off,23,0,0,,11,,,70,127
20371,note_on,34,0,0,,11,,,70,127
20400,note_off,29,0,0,,0,,,72,127
20434,note_on,34,0,0,,0,,,72,127
20463,note_off,29,0,0,,11,,,70,127
20497,note_on,34,0,0,,11,,,70,127
20499,note_off,2,0,0,,4,,,52,127
20500,note_on,1,0,0,,2,,,50,127
20526,note_off,26,0,0,,0,,,72,127
20560,note_on,34,0,0,,0,,,72,127
20589,note_off,29,0,0,,11,,,70,127
20623,note_on,34,0,0,,11,,,70,127
20652,note_off,29,0,0,,0,,,72,127
20685,note_off,33,0,0,,2,,,50,127
20686,note_on,1,0,0,,1,,,49,127
20686,note_on,0,0,0,,10,,,69,127
20715,note_off,29,0,0,,11,,,70,127
20870,note_off,155,0,0,,10,,,69,127
20871,note_on,1,0,0,,12,,,71,127
21054,note_off,183,0,0,,12,,,71,127
21055,note_on,1,0,0,,1,,,73,127
21238,note_off,183,0,0,,1,,,73,127
21238,note_off,0,0,0,,1,,,49,127
21239,note_on,1,0,0,,12,,,47,127
21239,note_on,0,0,0,,2,,,74,127
21422,note_off,183,0,0,,2,,,74,127
21422,note_off,0,0,0,,12,,,47,127
21423,note_on,1,0,0,,10,,,45,127
21423,note_on,0,0,0,,4,,,76,127
21607,note_on,184,0,0,,7,,,67,127
21787,note_off,180,0,0,,4,,,76,127
21790,note_off,3,0,0,,7,,,67,127
21791,note_on,1,0,0,,5,,,65,127
21974,note_off,183,0,0,,5,,,65,127
21974,note_off,0,0,0,,10,,,45,127
21975,note_on,1,0,0,,4,,,64,127
22158,note_off,183,0,0,,4,,,64,127
22159,note_on,1,0,0,,2,,,50,127
22159,note_on,0,0,0,,2,,,74,127
22159,note_on,0,0,0,,5,,,65,127
22342,note_off,183,0,0,,2,,,74,127
22343,note_on,1,0,0,,10,,,69,127
22523,note_off,180,0,0,,5,,,65,127
22526,note_off,3,0,0,,10,,,69,127
22527,note_on,1,0,0,,2,,,74,127
22710,note_off,183,0,0,,2,,,74,127
22711,note_on,1,0,0,,0,,,72,127
22894,note_off,183,0,0,,0,,,72,127
22894,note_off,0,0,0,,2,,,50,127
22895,note_on,1,0,0,,7,,,55,127
22895,note_on,0,0,0,,11,,,70,127
23078,note_off,183,0,0,,11,,,70,127
23079,note_on,1,0,0,,10,,,69,127
23262,note_off,183,0,0,,10,,,69,127
23263,note_on,1,0,0,,11,,,70,127
23446,note_off,183,0,0,,11,,,70,127
23447,note_on,1,0,0,,7,,,67,127
23630,note_off,183,0,0,,7,,,67,127
23630,note_off,0,0,0,,7,,,55,127
23631,note_on,1,0,0,,5,,,53,127
23631,note_on,0,0,0,,10,,,69,127
23814,note_off,183,0,0,,10,,,69,127
23815,note_on,1,0,0,,7,,,67,127
23998,note_off,183,0,0,,7,,,67,127
23998,note_off,0,0,0,,5,,,53,127
23999,note_on,1,0,0,,2,,,50,127
23999,note_on,0,0,0,,5,,,65,127
24182,note_off,183,0,0,,5,,,65,127
24183,note_on,1,0,0,,4,,,64,127
24366,note_off,183,0,0,,4,,,64,127
24366,note_off,0,0,0,,2,,,50,127
24367,note_on,1,0,0,,0,,,48,127
24367,note_on,0,0,0,,2,,,62,127
24479,note_on,112,0,0,,11,,,46,127
24482,note_off,3,0,0,,0,,,48,127
24550,note_off,68,0,0,,2,,,62,127
24551,note_on,1,0,0,,4,,,64,127
24568,note_on,17,0,0,,0,,,48,127
24570,note_off,2,0,0,,11,,,46,127
24657,note_on,87,0,0,,11,,,46,127
24659,note_off,2,0,0,,0,,,48,127
24734,note_off,75,0,0,,4,,,64,127
24735,note_on,1,0,0,,5,,,65,127
24747,note_on,12,0,0,,0,,,48,127
24749,note_off,2,0,0,,11,,,46,127
24836,note_on,87,0,0,,11,,,46,127
24838,note_off,2,0,0,,0,,,48,127
24919,note_off,81,0,0,,5,,,65,127
24920,note_on,1,0,0,,7,,,67,127
24926,note_on,6,0,0,,0,,,48,127
24928,note_off,2,0,0,,11,,,46,127
25015,note_on,87,0,0,,11,,,46,127
25017,note_off,2,0,0,,0,,,48,127
25103,note_off,86,0,0,,7,,,67,127
25104,note_on,1,0,0,,10,,,45,127
25104,note_on,0,0,0,,10,,,69,127
25106,note_off,2,0,0,,11,,,46,127
25287,note_off,181,0,0,,10,,,45,127
25288,note_on,1,0,0,,12,,,47,127
25471,note_off,183,0,0,,12,,,47,127
25472,note_on,1,0,0,,1,,,49,127
25655,note_off,183,0,0,,1,,,49,127
25655,note_off,0,0,0,,10,,,69,127
25656,note_on,1,0,0,,2,,,50,127
25656,note_on,0,0,0,,12,,,71,127
25839,note_off,183,0,0,,12,,,71,127
25839,note_off,0,0,0,,2,,,50,127
25840,note_on,1,0,0,,4,,,52,127
25840,note_on,0,0,0,,1,,,73,127
26023,note_off,183,0,0,,1,,,73,127
26023,note_off,0,0,0,,4,,,52,127
26024,note_on,1,0,0,,5,,,53,127
26024,note_on,0,0,0,,2,,,74,127
26207,note_off,183,0,0,,2,,,74,127
26207,note_off,0,0,0,,5,,,53,127
26208,note_on,1,0,0,,7,,,55,127
26208,note_on,0,0,0,,4,,,76,127
26391,note_off,183,0,0,,4,,,76,127
26391,note_off,0,0,0,,7,,,55,127
26392,note_on,1,0,0,,4,,,52,127
26392,note_on,0,0,0,,1,,,73,127
26575,note_off,183,0,0,,1,,,73,127
26575,note_off,0,0,0,,4,,,52,127
26576,note_on,1,0,0,,5,,,53,127
26576,note_on,0,0,0,,2,,,74,127
26759,note_off,183,0,0,,5,,,53,127
26760,note_on,1,0,0,,2,,,50,127
26943,note_off,183,0,0,,2,,,50,127
26943,note_off,0,0,0,,2,,,74,127
26944,note_on,1,0,0,,4,,,52,127
26944,note_on,0,0,0,,0,,,72,127
27127,note_off,183,0,0,,4,,,52,127
27128,note_on,1,0,0,,5,,,53,127
27311,note_off,183,0,0,,5,,,53,127
27311,note_off,0,0,0,,0,,,72,127
27312,note_on,1,0,0,,7,,,55,127
27312,note_on,0,0,0,,11,,,70,127
27495,note_off,183,0,0,,11,,,70,127
27496,note_on,1,0,0,,0,,,72,127
27679,note_off,183,0,0,,0,,,72,127
27680,note_on,1,0,0,,2,,,74,127
27863,note_off,183,0,0,,2,,,74,127
27864,note_on,1,0,0,,4,,,76,127
27954,note_off,90,0,0,,7,,,55,127
28047,note_off,93,0,0,,4,,,76,127
28048,note_on,1,0,0,,10,,,57,127
28048,note_on,0,0,0,,5,,,77,127
28231,note_off,183,0,0,,10,,,57,127
28232,note_on,1,0,0,,5,,,53,127
28415,note_off,183,0,0,,5,,,53,127
28415,note_off,0,0,0,,5,,,77,127
28416,note_on,1,0,0,,7,,,55,127
28416,note_on,0,0,0,,3,,,75,127
28599,note_off,183,0,0,,7,,,55,127
28600,note_on,1,0,0,,10,,,57,127
28783,note_off,183,0,0,,10,,,57,127
28783,note_off,0,0,0,,3,,,75,127
28784,note_on,1,0,0,,11,,,58,127
28784,note_on,0,0,0,,2,,,74,127
28967,note_off,183,0,0,,2,,,74,127
28968,note_on,1,0,0,,3,,,75,127
29151,note_off,183,0,0,,3,,,75,127
29152,note_on,1,0,0,,5,,,77,127
29335,note_off,183,0,0,,5,,,77,127
29336,note_on,1,0,0,,2,,,74,127
29519,note_off,183,0,0,,2,,,74,127
29519,note_off,0,0,0,,11,,,58,127
29520,note_on,1,0,0,,5,,,65,127
29520,note_on,0,0,0,,0,,,72,127
29703,note_off,183,0,0,,0,,,72,127
29704,note_on,1,0,0,,11,,,70,127
29887,note_off,183,0,0,,11,,,70,127
29888,note_on,1,0,0,,10,,,69,127
30071,note_off,183,0,0,,10,,,69,127
30072,note_on,1,0,0,,7,,,67,127
30255,note_off,183,0,0,,7,,,67,127
30255,note_off,0,0,0,,5,,,65,127
30256,note_on,1,0,0,,2,,,62,127
30256,note_on,0,0,0,,5,,,65,127
30439,note_off,183,0,0,,5,,,65,127
30440,note_on,1,0,0,,3,,,63,127
30623,note_off,183,0,0,,3,,,63,127
30623,note_off,0,0,0,,2,,,62,127
30624,note_on,1,0,0,,11,,,58,127
30624,note_on,0,0,0,,2,,,62,127
30807,note_off,183,0,0,,2,,,62,127
30808,note_on,1,0,0,,0,,,60,127
30991,note_off,183,0,0,,0,,,60,127
30991,note_off,0,0,0,,11,,,58,127
30992,note_on,1,0,0,,10,,,57,127
30992,note_on,0,0,0,,11,,,58,127
31118,note_on,126,0,0,,7,,,55,127
31126,note_off,8,0,0,,10,,,57,127
31176,note_off,50,0,0,,11,,,58,127
31177,note_on,1,0,0,,0,,,60,127
31206,note_on,29,0,0,,10,,,57,127
31210,note_off,4,0,0,,7,,,55,127
31294,note_on,84,0,0,,7,,,55,127
31298,note_off,4,0,0,,10,,,57,127
31361,note_off,63,0,0,,0,,,60,127
31362,note_on,1,0,0,,2,,,62,127
31381,note_on,19,0,0,,10,,,57,127
31385,note_off,4,0,0,,7,,,55,127
31469,note_on,84,0,0,,7,,,55,127
31473,note_off,4,0,0,,10,,,57,127
31546,note_off,73,0,0,,2,,,62,127
31547,note_on,1,0,0,,3,,,63,127
31557,note_on,10,0,0,,10,,,57,127
31561,note_off,4,0,0,,7,,,55,127
31645,note_on,84,0,0,,7,,,55,127
31649,note_off,4,0,0,,10,,,57,127
31732,note_off,83,0,0,,3,,,63,127
31733,note_on,1,0,0,,5,,,53,127
31733,note_on,0,0,0,,5,,,65,127
31737,note_off,4,0,0,,7,,,55,127
31917,note_off,180,0,0,,5,,,53,127
31918,note_on,1,0,0,,7,,,55,127
32101,note_off,183,0,0,,7,,,55,127
32102,note_on,1,0,0,,10,,,57,127
32285,note_off,183,0,0,,10,,,57,127
32286,note_on,1,0,0,,11,,,58,127
32469,note_off,183,0,0,,11,,,58,127
32469,note_off,0,0,0,,5,,,65,127
32470,note_on,1,0,0,,0,,,60,127
32470,note_on,0,0,0,,3,,,63,127
32653,note_off,183,0,0,,3,,,63,127
32654,note_on,1,0,0,,5,,,65,127
32837,note_off,183,0,0,,5,,,65,127
32838,note_on,1,0,0,,7,,,67,127
33021,note_off,183,0,0,,7,,,67,127
33022,note_on,1,0,0,,10,,,69,127
33141,note_off,119,0,0,,0,,,60,127
33205,note_off,64,0,0,,10,,,69,127
33206,note_on,1,0,0,,2,,,62,127
33206,note_on,0,0,0,,11,,,70,127
33389,note_off,183,0,0,,2,,,62,127
33390,note_on,1,0,0,,11,,,58,127
33573,note_off,183,0,0,,11,,,58,127
33574,note_on,1,0,0,,2,,,62,127
33757,note_off,183,0,0,,2,,,62,127
33758,note_on,1,0,0,,3,,,63,127
33941,note_off,183,0,0,,3,,,63,127
33941,note_off,0,0,0,,11,,,70,127
33942,note_on,1,0,0,,5,,,65,127
33942,note_on,0,0,0,,5,,,77,127
34125,note_off,183,0,0,,5,,,65,127
34126,note_on,1,0,0,,5,,,53,127
34309,note_off,183,0,0,,5,,,53,127
34310,note_on,1,0,0,,7,,,55,127
34493,note_off,183,0,0,,7,,,55,127
34494,note_on,1,0,0,,10,,,57,127
34677,note_off,183,0,0,,10,,,57,127
34677,note_off,0,0,0,,5,,,77,127
34678,note_on,1,0,0,,11,,,58,127
34678,note_on,0,0,0,,2,,,74,127
34861,note_off,183,0,0,,11,,,58,127
34862,note_on,1,0,0,,10,,,57,127
35045,note_off,183,0,0,,10,,,57,127
35045,note_off,0,0,0,,2,,,74,127
35046,note_on,1,0,0,,7,,,55,127
35046,note_on,0,0,0,,11,,,70,127
35229,note_off,183,0,0,,7,,,55,127
35230,note_on,1,0,0,,5,,,53,127
35413,note_off,183,0,0,,5,,,53,127
35413,note_off,0,0,0,,11,,,70,127
35414,note_on,1,0,0,,3,,,51,127
35414,note_on,0,0,0,,10,,,69,127
35568,note_on,154,0,0,,7,,,67,127
35572,note_off,4,0,0,,10,,,69,127
35598,note_off,26,0,0,,3,,,51,127
35599,note_on,1,0,0,,2,,,50,127
35634,note_on,35,0,0,,10,,,69,127
35660,note_off,26,0,0,,7,,,67,127
35699,note_on,39,0,0,,7,,,67,127
35725,note_off,26,0,0,,10,,,69,127
35764,note_on,39,0,0,,10,,,69,127
35782,note_off,18,0,0,,2,,,50,127
35783,note_on,1,0,0,,0,,,48,127
35790,note_off,7,0,0,,7,,,67,127
35829,note_on,39,0,0,,7,,,67,127
35855,note_off,26,0,0,,10,,,69,127
35894,note_on,39,0,0,,10,,,69,127
35920,note_off,26,0,0,,7,,,67,127
35958,note_on,38,0,0,,7,,,67,127
35966,note_off,8,0,0,,0,,,48,127
35967,note_on,1,0,0,,11,,,46,127
35985,note_off,18,0,0,,10,,,69,127
36022,note_on,37,0,0,,10,,,69,127
36049,note_off,27,0,0,,7,,,67,127
36086,note_on,37,0,0,,7,,,67,127
36113,note_off,27,0,0,,10,,,69,127
36149,note_off,36,0,0,,11,,,46,127
36150,note_on,1,0,0,,10,,,45,127
36150,note_on,0,0,0,,5,,,65,127
36177,note_off,27,0,0,,7,,,67,127
36333,note_off,156,0,0,,5,,,65,127
36334,note_on,1,0,0,,7,,,67,127
36517,note_off,183,0,0,,7,,,67,127
36518,note_on,1,0,0,,10,,,69,127
36701,note_off,183,0,0,,10,,,69,127
36701,note_off,0,0,0,,10,,,45,127
36702,note_on,1,0,0,,7,,,43,127
36702,note_on,0,0,0,,11,,,70,127
36885,note_off,183,0,0,,11,,,70,127
36885,note_off,0,0,0,,7,,,43,127
36886,note_on,1,0,0,,5,,,41,127
36886,note_on,0,0,0,,0,,,72,127
37069,note_off,183,0,0,,0,,,72,127
37069,note_off,0,0,0,,5,,,41,127
37070,note_on,1,0,0,,5,,,53,127
37070,note_on,0,0,0,,2,,,74,127
37253,note_off,183,0,0,,2,,,74,127
37253,note_off,0,0,0,,5,,,53,127
37254,note_on,1,0,0,,7,,,55,127
37254,note_on,0,0,0,,3,,,75,127
37437,note_off,183,0,0,,3,,,75,127
37437,note_off,0,0,0,,7,,,55,127
37438,note_on,1,0,0,,10,,,57,127
37438,note_on,0,0,0,,0,,,72,127
37621,note_off,183,0,0,,0,,,72,127
37621,note_off,0,0,0,,10,,,57,127
37622,note_on,1,0,0,,11,,,58,127
37622,note_on,0,0,0,,2,,,74,127
37622,note_on,0,0,0,,11,,,70,127
37805,note_off,183,0,0,,11,,,58,127
37806,note_on,1,0,0,,0,,,60,127
37989,note_off,183,0,0,,0,,,60,127
37990,note_on,1,0,0,,2,,,62,127
38173,note_off,183,0,0,,2,,,62,127
38174,note_on,1,0,0,,3,,,63,127
38357,note_off,183,0,0,,3,,,63,127
38357,note_off,0,0,0,,11,,,70,127
38357,note_off,0,0,0,,2,,,74,127
38358,note_on,1,0,0,,5,,,65,127
38358,note_on,0,0,0,,0,,,72,127
38358,note_on,0,0,0,,10,,,69,127
38541,note_off,183,0,0,,5,,,65,127
38542,note_on,1,0,0,,5,,,53,127
38725,note_off,183,0,0,,5,,,53,127
38726,note_on,1,0,0,,10,,,57,127
38909,note_off,183,0,0,,10,,,57,127
38910,note_on,1,0,0,,12,,,59,127
39093,note_off,183,0,0,,12,,,59,127
39093,note_off,0,0,0,,10,,,69,127
39093,note_off,0,0,0,,0,,,72,127
39094,note_on,1,0,0,,0,,,60,127
39094,note_on,0,0,0,,0,,,72,127
39094,note_on,0,0,0,,3,,,75,127
39277,note_off,183,0,0,,0,,,60,127
39278,note_on,1,0,0,,2,,,62,127
39461,note_off,183,0,0,,2,,,62,127
39462,note_on,1,0,0,,3,,,63,127
39645,note_off,183,0,0,,3,,,63,127
39646,note_on,1,0,0,,5,,,65,127
39829,note_off,183,0,0,,5,,,65,127
39829,note_off,0,0,0,,3,,,75,127
39829,note_off,0,0,0,,0,,,72,127
39830,note_on,1,0,0,,7,,,67,127
39830,note_on,0,0,0,,2,,,74,127
40013,note_off,183,0,0,,2,,,74,127
40014,note_on,1,0,0,,0,,,72,127
40197,note_off,183,0,0,,0,,,72,127
40198,note_on,1,0,0,,11,,,70,127
40381,note_off,183,0,0,,11,,,70,127
40381,note_off,0,0,0,,7,,,67,127
40382,note_on,1,0,0,,5,,,65,127
40382,note_on,0,0,0,,10,,,69,127
40565,note_off,183,0,0,,10,,,69,127
40565,note_off,0,0,0,,5,,,65,127
40566,note_on,1,0,0,,3,,,63,127
40566,note_on,0,0,0,,7,,,67,127
40749,note_off,183,0,0,,7,,,67,127
40749,note_off,0,0,0,,3,,,63,127
40750,note_on,1,0,0,,2,,,62,127
40750,note_on,0,0,0,,5,,,65,127
40933,note_off,183,0,0,,5,,,65,127
40933,note_off,0,0,0,,2,,,62,127
40934,note_on,1,0,0,,0,,,60,127
40934,note_on,0,0,0,,7,,,67,127
40934,note_on,0,0,0,,3,,,63,127
41117,note_off,183,0,0,,0,,,60,127
41118,note_on,1,0,0,,11,,,58,127
41301,note_off,183,0,0,,11,,,58,127
41301,note_off,0,0,0,,3,,,63,127
41301,note_off,0,0,0,,7,,,67,127
41302,note_on,1,0,0,,10,,,57,127
41302,note_on,0,0,0,,10,,,69,127
41302,note_on,0,0,0,,0,,,60,127
41485,note_off,183,0,0,,0,,,60,127
41485,note_off,0,0,0,,10,,,69,127
41486,note_on,1,0,0,,11,,,70,127
41486,note_on,0,0,0,,2,,,62,127
41669,note_off,183,0,0,,2,,,62,127
41669,note_off,0,0,0,,11,,,70,127
41670,note_on,1,0,0,,0,,,72,127
41670,note_on,0,0,0,,4,,,64,127
41853,note_off,183,0,0,,4,,,64,127
41853,note_off,0,0,0,,0,,,72,127
41854,note_on,1,0,0,,10,,,69,127
41854,note_on,0,0,0,,6,,,66,127
42037,note_off,183,0,0,,6,,,66,127
42037,note_off,0,0,0,,10,,,69,127
42037,note_off,0,0,0,,10,,,57,127
42038,note_on,1,0,0,,7,,,55,127
42038,note_on,0,0,0,,11,,,70,127
42038,note_on,0,0,0,,7,,,67,127
42221,note_off,183,0,0,,7,,,67,127
42221,note_off,0,0,0,,11,,,70,127
42222,note_on,1,0,0,,0,,,72,127
42405,note_off,183,0,0,,0,,,72,127
42406,note_on,1,0,0,,2,,,74,127
42589,note_off,183,0,0,,2,,,74,127
42590,note_on,1,0,0,,11,,,70,127
42773,note_off,183,0,0,,11,,,70,127
42773,note_off,0,0,0,,7,,,55,127
42774,note_on,1,0,0,,2,,,62,127
42774,note_on,0,0,0,,10,,,69,127
42957,note_off,183,0,0,,10,,,69,127
42958,note_on,1,0,0,,7,,,67,127
43141,note_off,183,0,0,,7,,,67,127
43142,note_on,1,0,0,,6,,,66,127
43325,note_off,183,0,0,,6,,,66,127
43326,note_on,1,0,0,,4,,,64,127
43509,note_off,183,0,0,,4,,,64,127
43509,note_off,0,0,0,,2,,,62,127
43510,note_on,1,0,0,,11,,,58,127
43510,note_on,0,0,0,,2,,,74,127
43510,note_on,0,0,0,,2,,,62,127
43693,note_off,183,0,0,,2,,,74,127
43694,note_on,1,0,0,,0,,,72,127
43874,note_off,180,0,0,,2,,,62,127
43877,note_off,3,0,0,,0,,,72,127
43877,note_off,0,0,0,,11,,,58,127
43878,note_on,1,0,0,,7,,,55,127
43878,note_on,0,0,0,,11,,,70,127
44061,note_off,183,0,0,,11,,,70,127
44062,note_on,1,0,0,,10,,,69,127
44245,note_off,183,0,0,,10,,,69,127
44245,note_off,0,0,0,,7,,,55,127
44246,note_on,1,0,0,,5,,,53,127
44246,note_on,0,0,0,,7,,,67,127
44361,note_on,115,0,0,,3,,,51,127
44366,note_off,5,0,0,,5,,,53,127
44429,note_off,63,0,0,,7,,,67,127
44430,note_on,1,0,0,,11,,,70,127
44449,note_on,19,0,0,,5,,,53,127
44452,note_off,3,0,0,,3,,,51,127
44537,note_on,85,0,0,,3,,,51,127
44540,note_off,3,0,0,,5,,,53,127
44613,note_off,73,0,0,,11,,,70,127
44614,note_on,1,0,0,,10,,,69,127
44626,note_on,12,0,0,,5,,,53,127
44629,note_off,3,0,0,,3,,,51,127
44715,note_on,86,0,0,,3,,,51,127
44717,note_off,2,0,0,,5,,,53,127
44798,note_off,81,0,0,,10,,,69,127
44799,note_on,1,0,0,,7,,,67,127
44805,note_on,6,0,0,,5,,,53,127
44807,note_off,2,0,0,,3,,,51,127
44894,note_on,87,0,0,,3,,,51,127
44896,note_off,2,0,0,,5,,,53,127
44982,note_off,86,0,0,,7,,,67,127
44983,note_on,1,0,0,,2,,,50,127
44983,note_on,0,0,0,,6,,,66,127
44985,note_off,2,0,0,,3,,,51,127
45166,note_off,181,0,0,,6,,,66,127
45166,note_off,0,0,0,,2,,,50,127
45167,note_on,1,0,0,,4,,,52,127
45167,note_on,0,0,0,,7,,,67,127
45350,note_off,183,0,0,,7,,,67,127
45350,note_off,0,0,0,,4,,,52,127
45351,note_on,1,0,0,,6,,,54,127
45351,note_on,0,0,0,,10,,,69,127
45534,note_off,183,0,0,,10,,,69,127
45534,note_off,0,0,0,,6,,,54,127
45535,note_on,1,0,0,,7,,,55,127
45535,note_on,0,0,0,,11,,,70,127
45718,note_off,183,0,0,,11,,,70,127
45718,note_off,0,0,0,,7,,,55,127
45719,note_on,1,0,0,,10,,,57,127
45719,note_on,0,0,0,,0,,,60,127
45719,note_on,0,0,0,,0,,,72,127
45902,note_off,183,0,0,,0,,,60,127
45902,note_off,0,0,0,,10,,,57,127
45903,note_on,1,0,0,,11,,,58,127
45903,note_on,0,0,0,,2,,,62,127
46086,note_off,183,0,0,,2,,,62,127
46086,note_off,0,0,0,,11,,,58,127
46087,note_on,1,0,0,,0,,,60,127
46087,note_on,0,0,0,,4,,,64,127
46270,note_off,183,0,0,,4,,,64,127
46270,note_off,0,0,0,,0,,,60,127
46271,note_on,1,0,0,,2,,,62,127
46271,note_on,0,0,0,,6,,,66,127
46454,note_off,183,0,0,,6,,,66,127
46454,note_off,0,0,0,,2,,,62,127
46454,note_off,0,0,0,,0,,,72,127
46455,note_on,1,0,0,,7,,,55,127
46455,note_on,0,0,0,,11,,,70,127
46455,note_on,0,0,0,,7,,,67,127
46638,note_off,183,0,0,,11,,,70,127
46639,note_on,1,0,0,,0,,,72,127
46819,note_off,180,0,0,,7,,,67,127
46822,note_off,3,0,0,,0,,,72,127
46823,note_on,1,0,0,,2,,,74,127
47006,note_off,183,0,0,,2,,,74,127
47007,note_on,1,0,0,,4,,,76,127
47190,note_off,183,0,0,,4,,,76,127
47190,note_off,0,0,0,,7,,,55,127
47191,note_on,1,0,0,,2,,,50,127
47191,note_on,0,0,0,,5,,,77,127
47191,note_on,0,0,0,,10,,,69,127
47374,note_off,183,0,0,,2,,,50,127
47375,note_on,1,0,0,,4,,,52,127
47558,note_off,183,0,0,,4,,,52,127
47559,note_on,1,0,0,,5,,,53,127
47742,note_off,183,0,0,,5,,,53,127
47743,note_on,1,0,0,,7,,,55,127
47926,note_off,183,0,0,,7,,,55,127
47926,note_off,0,0,0,,10,,,69,127
47926,note_off,0,0,0,,5,,,77,127
47927,note_on,1,0,0,,10,,,57,127
47927,note_on,0,0,0,,4,,,76,127
48110,note_off,183,0,0,,4,,,76,127
48111,note_on,1,0,0,,2,,,74,127
48294,note_off,183,0,0,,2,,,74,127
48295,note_on,1,0,0,,1,,,73,127
48478,note_off,183,0,0,,1,,,73,127
48478,note_off,0,0,0,,10,,,57,127
48479,note_on,1,0,0,,12,,,59,127
48479,note_on,0,0,0,,12,,,71,127
48662,note_off,183,0,0,,12,,,71,127
48662,note_off,0,0,0,,12,,,59,127
48663,note_on,1,0,0,,1,,,61,127
48663,note_on,0,0,0,,10,,,69,127
48846,note_off,183,0,0,,10,,,69,127
48847,note_on,1,0,0,,7,,,67,127
49030,note_off,183,0,0,,7,,,67,127
49030,note_off,0,0,0,,1,,,61,127
49031,note_on,1,0,0,,10,,,57,127
49031,note_on,0,0,0,,5,,,65,127
49214,note_off,183,0,0,,5,,,65,127
49215,note_on,1,0,0,,4,,,64,127
49398,note_off,183,0,0,,4,,,64,127
49398,note_off,0,0,0,,10,,,57,127
49399,note_on,1,0,0,,11,,,58,127
49399,note_on,0,0,0,,2,,,74,127
49582,note_off,183,0,0,,11,,,58,127
49583,note_on,1,0,0,,10,,,57,127
49766,note_off,183,0,0,,10,,,57,127
49767,note_on,1,0,0,,7,,,55,127
49950,note_off,183,0,0,,7,,,55,127
49951,note_on,1,0,0,,5,,,53,127
50134,note_off,183,0,0,,5,,,53,127
50134,note_off,0,0,0,,2,,,74,127
50135,note_on,1,0,0,,4,,,52,127
50135,note_on,0,0,0,,7,,,79,127
50318,note_off,183,0,0,,4,,,52,127
50319,note_on,1,0,0,,5,,,53,127
50502,note_off,183,0,0,,5,,,53,127
50503,note_on,1,0,0,,7,,,55,127
50686,note_off,183,0,0,,7,,,55,127
50687,note_on,1,0,0,,10,,,57,127
50870,note_off,183,0,0,,10,,,57,127
50870,note_off,0,0,0,,7,,,79,127
50871,note_on,1,0,0,,2,,,50,127
50871,note_on,0,0,0,,5,,,77,127
51054,note_off,183,0,0,,2,,,50,127
51055,note_on,1,0,0,,4,,,52,127
51238,note_off,183,0,0,,4,,,52,127
51238,note_off,0,0,0,,5,,,77,127
51239,note_on,1,0,0,,5,,,53,127
51239,note_on,0,0,0,,2,,,74,127
51422,note_off,183,0,0,,5,,,53,127
51423,note_on,1,0,0,,2,,,50,127
51606,note_off,183,0,0,,2,,,50,127
51606,note_off,0,0,0,,2,,,74,127
51607,note_on,1,0,0,,0,,,72,127
51607,note_on,0,0,0,,7,,,55,127
51726,note_on,119,0,0,,11,,,70,127
51789,note_off,63,0,0,,0,,,72,127
51790,note_off,1,0,0,,7,,,55,127
51791,note_on,1,0,0,,5,,,53,127
51803,note_on,12,0,0,,0,,,72,127
51817,note_off,14,0,0,,11,,,70,127
51872,note_on,55,0,0,,11,,,70,127
51894,note_off,22,0,0,,0,,,72,127
51941,note_on,47,0,0,,0,,,72,127
51963,note_off,22,0,0,,11,,,70,127
51975,note_off,12,0,0,,5,,,53,127
51976,note_on,1,0,0,,4,,,52,127
52011,note_on,35,0,0,,11,,,70,127
52033,note_off,22,0,0,,0,,,72,127
52080,note_on,47,0,0,,0,,,72,127
52102,note_off,22,0,0,,11,,,70,127
52147,note_on,45,0,0,,11,,,70,127
52159,note_off,12,0,0,,4,,,52,127
52160,note_on,1,0,0,,2,,,50,127
52171,note_off,11,0,0,,0,,,72,127
52214,note_on,43,0,0,,0,,,72,127
52238,note_off,24,0,0,,11,,,70,127
52281,note_on,43,0,0,,11,,,70,127
52305,note_off,24,0,0,,0,,,72,127
52343,note_off,38,0,0,,2,,,50,127
52344,note_on,1,0,0,,1,,,49,127
52344,note_on,0,0,0,,10,,,69,127
52372,note_off,28,0,0,,11,,,70,127
52528,note_off,156,0,0,,10,,,69,127
52529,note_on,1,0,0,,12,,,71,127
52712,note_off,183,0,0,,12,,,71,127
52713,note_on,1,0,0,,1,,,73,127
52896,note_off,183,0,0,,1,,,73,127
52896,note_off,0,0,0,,1,,,49,127
52897,note_on,1,0,0,,12,,,47,127
52897,note_on,0,0,0,,2,,,74,127
53080,note_off,183,0,0,,2,,,74,127
53080,note_off,0,0,0,,12,,,47,127
53081,note_on,1,0,0,,10,,,45,127
53081,note_on,0,0,0,,4,,,76,127
53265,note_on,184,0,0,,7,,,67,127
53445,note_off,180,0,0,,4,,,76,127
53448,note_off,3,0,0,,7,,,67,127
53449,note_on,1,0,0,,5,,,65,127
53632,note_off,183,0,0,,5,,,65,127
53633,note_on,1,0,0,,4,,,64,127
53816,note_off,183,0,0,,4,,,64,127
53816,note_off,0,0,0,,10,,,45,127
53817,note_on,1,0,0,,2,,,50,127
53817,note_on,0,0,0,,5,,,65,127
54000,note_off,183,0,0,,5,,,65,127
54001,note_on,1,0,0,,10,,,69,127
54184,note_off,183,0,0,,10,,,69,127
54185,note_on,1,0,0,,2,,,74,127
54368,note_off,183,0,0,,2,,,74,127
54369,note_on,1,0,0,,0,,,72,127
54552,note_off,183,0,0,,0,,,72,127
54552,note_off,0,0,0,,2,,,50,127
54553,note_on,1,0,0,,7,,,55,127
54553,note_on,0,0,0,,11,,,70,127
54737,note_on,184,0,0,,1,,,61,127
54920,note_off,183,0,0,,1,,,61,127
54921,note_on,1,0,0,,2,,,62,127
55104,note_off,183,0,0,,2,,,62,127
55104,note_off,0,0,0,,11,,,70,127
55105,note_on,1,0,0,,4,,,64,127
55288,note_off,183,0,0,,4,,,64,127
55288,note_off,0,0,0,,7,,,55,127
55289,note_on,1,0,0,,5,,,53,127
55289,note_on,0,0,0,,10,,,69,127
55472,note_off,183,0,0,,10,,,69,127
55473,note_on,1,0,0,,7,,,67,127
55656,note_off,183,0,0,,7,,,67,127
55656,note_off,0,0,0,,5,,,53,127
55657,note_on,1,0,0,,2,,,50,127
55657,note_on,0,0,0,,5,,,65,127
55840,note_off,183,0,0,,5,,,65,127
55841,note_on,1,0,0,,4,,,64,127
56024,note_off,183,0,0,,4,,,64,127
56024,note_off,0,0,0,,2,,,50,127
56025,note_on,1,0,0,,2,,,62,127
56025,note_on,0,0,0,,0,,,48,127
56146,note_on,121,0,0,,11,,,46,127
56152,note_off,6,0,0,,0,,,48,127
56209,note_off,57,0,0,,2,,,62,127
56210,note_on,1,0,0,,4,,,64,127
56238,note_off,28,0,0,,11,,,46,127
56241,note_on,3,0,0,,0,,,48,127
56327,note_on,86,0,0,,11,,,46,127
56332,note_off,5,0,0,,0,,,48,127
56393,note_off,61,0,0,,4,,,64,127
56394,note_on,1,0,0,,5,,,65,127
56413,note_on,19,0,0,,0,,,48,127
56418,note_off,5,0,0,,11,,,46,127
56500,note_on,82,0,0,,11,,,46,127
56505,note_off,5,0,0,,0,,,48,127
56578,note_off,73,0,0,,5,,,65,127
56579,note_on,1,0,0,,7,,,67,127
56587,note_on,8,0,0,,0,,,48,127
56592,note_off,5,0,0,,11,,,46,127
56674,note_on,82,0,0,,11,,,46,127
56679,note_off,5,0,0,,0,,,48,127
56763,note_off,84,0,0,,7,,,67,127
56764,note_on,1,0,0,,10,,,45,127
56764,note_on,0,0,0,,10,,,69,127
56765,note_off,1,0,0,,11,,,46,127
56947,note_off,182,0,0,,10,,,45,127
56948,note_on,1,0,0,,12,,,47,127
57131,note_off,183,0,0,,12,,,47,127
57132,note_on,1,0,0,,1,,,49,127
57315,note_off,183,0,0,,1,,,49,127
57316,note_on,1,0,0,,2,,,50,127
57499,note_off,183,0,0,,2,,,50,127
57499,note_off,0,0,0,,10,,,69,127
57500,note_on,1,0,0,,4,,,52,127
57500,note_on,0,0,0,,7,,,67,127
57683,note_off,183,0,0,,7,,,67,127
57684,note_on,1,0,0,,10,,,69,127
57867,note_off,183,0,0,,10,,,69,127
57868,note_on,1,0,0,,12,,,71,127
58051,note_off,183,0,0,,12,,,71,127
58052,note_on,1,0,0,,1,,,73,127
58142,note_off,90,0,0,,4,,,52,127
58235,note_off,93,0,0,,1,,,73,127
58236,note_on,1,0,0,,6,,,54,127
58236,note_on,0,0,0,,2,,,74,127
58419,note_off,183,0,0,,6,,,54,127
58420,note_on,1,0,0,,2,,,50,127
58603,note_off,183,0,0,,2,,,50,127
58603,note_off,0,0,0,,2,,,74,127
58604,note_on,1,0,0,,4,,,52,127
58604,note_on,0,0,0,,0,,,72,127
58787,note_off,183,0,0,,4,,,52,127
58788,note_on,1,0,0,,6,,,54,127
58971,note_off,183,0,0,,6,,,54,127
58971,note_off,0,0,0,,0,,,72,127
58972,note_on,1,0,0,,7,,,55,127
58972,note_on,0,0,0,,7,,,79,127
59156,note_on,184,0,0,,7,,,43,127
59156,note_on,0,0,0,,12,,,71,127
59336,note_off,180,0,0,,7,,,79,127
59336,note_off,0,0,0,,7,,,55,127
59339,note_off,3,0,0,,12,,,71,127
59339,note_off,0,0,0,,7,,,43,127
59340,note_on,1,0,0,,10,,,45,127
59340,note_on,0,0,0,,5,,,77,127
59340,note_on,0,0,0,,0,,,72,127
59523,note_off,183,0,0,,0,,,72,127
59523,note_off,0,0,0,,10,,,45,127
59524,note_on,1,0,0,,12,,,47,127
59524,note_on,0,0,0,,2,,,74,127
59704,note_off,180,0,0,,5,,,77,127
59707,note_off,3,0,0,,2,,,74,127
59707,note_off,0,0,0,,12,,,47,127
59708,note_on,1,0,0,,0,,,48,127
59708,note_on,0,0,0,,3,,,75,127
59708,note_on,0,0,0,,0,,,72,127
59891,note_off,183,0,0,,0,,,48,127
59892,note_on,1,0,0,,0,,,60,127
60075,note_off,183,0,0,,0,,,60,127
60075,note_off,0,0,0,,0,,,72,127
60075,note_off,0,0,0,,3,,,75,127
60076,note_on,1,0,0,,2,,,62,127
60076,note_on,0,0,0,,2,,,74,127
60076,note_on,0,0,0,,11,,,70,127
60259,note_off,183,0,0,,2,,,62,127
60260,note_on,1,0,0,,3,,,63,127
60421,note_off,161,0,0,,11,,,70,127
60421,note_off,0,0,0,,2,,,74,127
60443,note_off,22,0,0,,3,,,63,127
60444,note_on,1,0,0,,5,,,65,127
60444,note_on,0,0,0,,5,,,77,127
60627,note_off,183,0,0,,5,,,65,127
60628,note_on,1,0,0,,5,,,53,127
60628,note_on,0,0,0,,10,,,69,127
60808,note_off,180,0,0,,5,,,77,127
60811,note_off,3,0,0,,10,,,69,127
60811,note_off,0,0,0,,5,,,53,127
60812,note_on,1,0,0,,7,,,55,127
60812,note_on,0,0,0,,3,,,75,127
60812,note_on,0,0,0,,11,,,70,127
60995,note_off,183,0,0,,11,,,70,127
60995,note_off,0,0,0,,7,,,55,127
60996,note_on,1,0,0,,10,,,57,127
60996,note_on,0,0,0,,0,,,72,127
61176,note_off,180,0,0,,3,,,75,127
61179,note_off,3,0,0,,0,,,72,127
61179,note_off,0,0,0,,10,,,57,127
61180,note_on,1,0,0,,11,,,58,127
61180,note_on,0,0,0,,2,,,74,127
61363,note_off,183,0,0,,2,,,74,127
61364,note_on,1,0,0,,3,,,75,127
61547,note_off,183,0,0,,3,,,75,127
61548,note_on,1,0,0,,5,,,77,127
61731,note_off,183,0,0,,5,,,77,127
61732,note_on,1,0,0,,7,,,79,127
61915,note_off,183,0,0,,7,,,79,127
61915,note_off,0,0,0,,11,,,58,127
61916,note_on,1,0,0,,8,,,56,127
61916,note_on,0,0,0,,0,,,72,127
62099,note_off,183,0,0,,0,,,72,127
62100,note_on,1,0,0,,2,,,74,127
62283,note_off,183,0,0,,2,,,74,127
62284,note_on,1,0,0,,3,,,75,127
62467,note_off,183,0,0,,3,,,75,127
62468,note_on,1,0,0,,5,,,77,127
62651,note_off,183,0,0,,5,,,77,127
62651,note_off,0,0,0,,8,,,56,127
62652,note_on,1,0,0,,7,,,55,127
62652,note_on,0,0,0,,7,,,79,127
62835,note_off,183,0,0,,7,,,55,127
62836,note_on,1,0,0,,7,,,43,127
62836,note_on,0,0,0,,12,,,71,127
63016,note_off,180,0,0,,7,,,79,127
63019,note_off,3,0,0,,12,,,71,127
63019,note_off,0,0,0,,7,,,43,127
63020,note_on,1,0,0,,10,,,45,127
63020,note_on,0,0,0,,5,,,77,127
63020,note_on,0,0,0,,0,,,72,127
63203,note_off,183,0,0,,0,,,72,127
63203,note_off,0,0,0,,10,,,45,127
63204,note_on,1,0,0,,12,,,47,127
63204,note_on,0,0,0,,2,,,74,127
63384,note_off,180,0,0,,5,,,77,127
63387,note_off,3,0,0,,2,,,74,127
63387,note_off,0,0,0,,12,,,47,127
63388,note_on,1,0,0,,0,,,48,127
63388,note_on,0,0,0,,3,,,75,127
63388,note_on,0,0,0,,7,,,67,127
63571,note_off,183,0,0,,3,,,75,127
63572,note_on,1,0,0,,2,,,74,127
63752,note_off,180,0,0,,7,,,67,127
63755,note_off,3,0,0,,2,,,74,127
63756,note_on,1,0,0,,0,,,72,127
63939,note_off,183,0,0,,0,,,72,127
63940,note_on,1,0,0,,3,,,75,127
64123,note_off,183,0,0,,3,,,75,127
64123,note_off,0,0,0,,0,,,48,127
64124,note_on,1,0,0,,7,,,55,127
64124,note_on,0,0,0,,2,,,74,127
64307,note_off,183,0,0,,2,,,74,127
64308,note_on,1,0,0,,0,,,72,127
64491,note_off,183,0,0,,0,,,72,127
64492,note_on,1,0,0,,12,,,71,127
64675,note_off,183,0,0,,12,,,71,127
64676,note_on,1,0,0,,10,,,69,127
64859,note_off,183,0,0,,10,,,69,127
64859,note_off,0,0,0,,7,,,55,127
64860,note_on,1,0,0,,3,,,51,127
64860,note_on,0,0,0,,7,,,67,127
64860,note_on,0,0,0,,7,,,79,127
65043,note_off,183,0,0,,7,,,79,127
65043,note_off,0,0,0,,7,,,67,127
65044,note_on,1,0,0,,5,,,77,127
65227,note_off,183,0,0,,5,,,77,127
65227,note_off,0,0,0,,3,,,51,127
65228,note_on,1,0,0,,0,,,48,127
65228,note_on,0,0,0,,3,,,75,127
65411,note_off,183,0,0,,3,,,75,127
65412,note_on,1,0,0,,2,,,74,127
65595,note_off,183,0,0,,2,,,74,127
65595,note_off,0,0,0,,0,,,48,127
65596,note_on,1,0,0,,0,,,72,127
65596,note_on,0,0,0,,11,,,46,127
65719,note_on,123,0,0,,8,,,44,127
65723,note_off,4,0,0,,11,,,46,127
65780,note_off,57,0,0,,0,,,72,127
65781,note_on,1,0,0,,3,,,75,127
65811,note_off,30,0,0,,8,,,44,127
65814,note_on,3,0,0,,11,,,46,127
65900,note_on,86,0,0,,8,,,44,127
65905,note_off,5,0,0,,11,,,46,127
65965,note_off,60,0,0,,3,,,75,127
65966,note_on,1,0,0,,2,,,74,127
65987,note_on,21,0,0,,11,,,46,127
65992,note_off,5,0,0,,8,,,44,127
66074,note_on,82,0,0,,8,,,44,127
66079,note_off,5,0,0,,11,,,46,127
66150,note_off,71,0,0,,2,,,74,127
66151,note_on,1,0,0,,0,,,72,127
66161,note_on,10,0,0,,11,,,46,127
66166,note_off,5,0,0,,8,,,44,127
66248,note_on,82,0,0,,8,,,44,127
66253,note_off,5,0,0,,11,,,46,127
66336,note_off,83,0,0,,0,,,72,127
66337,note_on,1,0,0,,7,,,43,127
66337,note_on,0,0,0,,12,,,71,127
66340,note_off,3,0,0,,8,,,44,127
66520,note_off,180,0,0,,12,,,71,127
66520,note_off,0,0,0,,7,,,43,127
66521,note_on,1,0,0,,10,,,45,127
66521,note_on,0,0,0,,0,,,72,127
66704,note_off,183,0,0,,0,,,72,127
66704,note_off,0,0,0,,10,,,45,127
66705,note_on,1,0,0,,12,,,47,127
66705,note_on,0,0,0,,2,,,74,127
66888,note_off,183,0,0,,12,,,47,127
66889,note_on,1,0,0,,0,,,48,127
67072,note_off,183,0,0,,0,,,48,127
67073,note_on,1,0,0,,2,,,50,127
67256,note_off,183,0,0,,2,,,50,127
67256,note_off,0,0,0,,2,,,74,127
67257,note_on,1,0,0,,3,,,51,127
67257,note_on,0,0,0,,0,,,72,127
67440,note_off,183,0,0,,0,,,72,127
67440,note_off,0,0,0,,3,,,51,127
67441,note_on,1,0,0,,5,,,53,127
67441,note_on,0,0,0,,12,,,71,127
67624,note_off,183,0,0,,12,,,71,127
67624,note_off,0,0,0,,5,,,53,127
67625,note_on,1,0,0,,2,,,50,127
67625,note_on,0,0,0,,2,,,74,127
67808,note_off,183,0,0,,2,,,74,127
67808,note_off,0,0,0,,2,,,50,127
67809,note_on,1,0,0,,3,,,51,127
67809,note_on,0,0,0,,0,,,72,127
67992,note_off,183,0,0,,3,,,51,127
67993,note_on,1,0,0,,0,,,48,127
68176,note_off,183,0,0,,0,,,48,127
68177,note_on,1,0,0,,3,,,51,127
68360,note_off,183,0,0,,3,,,51,127
68361,note_on,1,0,0,,5,,,53,127
68544,note_off,183,0,0,,5,,,53,127
68544,note_off,0,0,0,,0,,,72,127
68545,note_on,1,0,0,,7,,,55,127
68545,note_on,0,0,0,,7,,,79,127
68728,note_off,183,0,0,,7,,,55,127
68729,note_on,1,0,0,,7,,,43,127
68912,note_off,183,0,0,,7,,,43,127
68913,note_on,1,0,0,,10,,,45,127
69096,note_off,183,0,0,,10,,,45,127
69097,note_on,1,0,0,,12,,,47,127
69280,note_off,183,0,0,,12,,,47,127
69280,note_off,0,0,0,,7,,,79,127
69281,note_on,1,0,0,,0,,,48,127
69281,note_on,0,0,0,,3,,,75,127
69464,note_off,183,0,0,,0,,,48,127
69465,note_on,1,0,0,,2,,,50,127
69648,note_off,183,0,0,,2,,,50,127
69648,note_off,0,0,0,,3,,,75,127
69649,note_on,1,0,0,,3,,,51,127
69649,note_on,0,0,0,,0,,,72,127
69832,note_off,183,0,0,,3,,,51,127
69833,note_on,1,0,0,,0,,,48,127
70016,note_off,183,0,0,,0,,,48,127
70016,note_off,0,0,0,,0,,,72,127
70017,note_on,1,0,0,,5,,,53,127
70017,note_on,0,0,0,,11,,,70,127
70125,note_on,108,0,0,,10,,,69,127
70148,note_off,23,0,0,,11,,,70,127
70198,note_on,50,0,0,,11,,,70,127
70201,note_off,3,0,0,,5,,,53,127
70202,note_on,1,0,0,,7,,,55,127
70236,note_off,34,0,0,,10,,,69,127
70270,note_on,34,0,0,,10,,,69,127
70290,note_off,20,0,0,,11,,,70,127
70341,note_on,51,0,0,,11,,,70,127
70361,note_off,20,0,0,,10,,,69,127
70386,note_off,25,0,0,,7,,,55,127
70387,note_on,1,0,0,,5,,,53,127
70412,note_on,25,0,0,,10,,,69,127
70432,note_off,20,0,0,,11,,,70,127
70483,note_on,51,0,0,,11,,,70,127
70503,note_off,20,0,0,,10,,,69,127
70552,note_on,49,0,0,,10,,,69,127
70570,note_off,18,0,0,,5,,,53,127
70571,note_on,1,0,0,,3,,,51,127
70574,note_off,3,0,0,,11,,,70,127
70621,note_on,47,0,0,,11,,,70,127
70643,note_off,22,0,0,,10,,,69,127
70690,note_on,47,0,0,,10,,,69,127
70712,note_off,22,0,0,,11,,,70,127
70754,note_off,42,0,0,,3,,,51,127
70755,note_on,1,0,0,,2,,,50,127
70755,note_on,0,0,0,,11,,,70,127
70781,note_off,26,0,0,,10,,,69,127
70938,note_off,157,0,0,,2,,,50,127
70939,note_on,1,0,0,,11,,,46,127
71122,note_off,183,0,0,,11,,,46,127
71123,note_on,1,0,0,,2,,,50,127
71306,note_off,183,0,0,,2,,,50,127
71307,note_on,1,0,0,,3,,,51,127
71490,note_off,183,0,0,,3,,,51,127
71490,note_off,0,0,0,,11,,,70,127
71491,note_on,1,0,0,,5,,,53,127
71491,note_on,0,0,0,,5,,,77,127
71674,note_off,183,0,0,,5,,,53,127
71675,note_on,1,0,0,,5,,,41,127
71858,note_off,183,0,0,,5,,,41,127
71859,note_on,1,0,0,,7,,,43,127
72042,note_off,183,0,0,,7,,,43,127
72043,note_on,1,0,0,,10,,,45,127
72226,note_off,183,0,0,,10,,,45,127
72226,note_off,0,0,0,,5,,,77,127
72227,note_on,1,0,0,,11,,,46,127
72227,note_on,0,0,0,,2,,,74,127
72410,note_off,183,0,0,,11,,,46,127
72411,note_on,1,0,0,,0,,,48,127
72594,note_off,183,0,0,,0,,,48,127
72594,note_off,0,0,0,,2,,,74,127
72595,note_on,1,0,0,,2,,,50,127
72595,note_on,0,0,0,,11,,,70,127
72778,note_off,183,0,0,,2,,,50,127
72779,note_on,1,0,0,,11,,,46,127
72962,note_off,183,0,0,,11,,,46,127
72962,note_off,0,0,0,,11,,,70,127
72963,note_on,1,0,0,,3,,,51,127
72963,note_on,0,0,0,,10,,,69,127
73099,note_on,136,0,0,,7,,,67,127
73145,note_off,46,0,0,,10,,,69,127
73146,note_off,1,0,0,,3,,,51,127
73147,note_on,1,0,0,,5,,,53,127
73166,note_on,19,0,0,,10,,,69,127
73190,note_off,24,0,0,,7,,,67,127
73234,note_on,44,0,0,,7,,,67,127
73257,note_off,23,0,0,,10,,,69,127
73302,note_on,45,0,0,,10,,,69,127
73325,note_off,23,0,0,,7,,,67,127
73330,note_off,5,0,0,,5,,,53,127
73331,note_on,1,0,0,,3,,,51,127
73370,note_on,39,0,0,,7,,,67,127
73393,note_off,23,0,0,,10,,,69,127
73438,note_on,45,0,0,,10,,,69,127
73461,note_off,23,0,0,,7,,,67,127
73504,note_on,43,0,0,,7,,,67,127
73514,note_off,10,0,0,,3,,,51,127
73515,note_on,1,0,0,,2,,,50,127
73529,note_off,14,0,0,,10,,,69,127
73570,note_on,41,0,0,,10,,,69,127
73595,note_off,25,0,0,,7,,,67,127
73636,note_on,41,0,0,,7,,,67,127
73661,note_off,25,0,0,,10,,,69,127
73697,note_off,36,0,0,,2,,,50,127
73698,note_on,1,0,0,,10,,,69,127
73698,note_on,0,0,0,,0,,,48,127
73727,note_off,29,0,0,,7,,,67,127
73882,note_off,155,0,0,,0,,,48,127
73882,note_off,0,0,0,,10,,,69,127
73883,note_on,1,0,0,,2,,,50,127
73883,note_on,0,0,0,,11,,,70,127
74066,note_off,183,0,0,,11,,,70,127
74066,note_off,0,0,0,,2,,,50,127
74067,note_on,1,0,0,,4,,,52,127
74067,note_on,0,0,0,,0,,,72,127
74250,note_off,183,0,0,,0,,,72,127
74250,note_off,0,0,0,,4,,,52,127
74251,note_on,1,0,0,,6,,,54,127
74251,note_on,0,0,0,,10,,,69,127
74434,note_off,183,0,0,,10,,,69,127
74434,note_off,0,0,0,,6,,,54,127
74435,note_on,1,0,0,,7,,,55,127
74435,note_on,0,0,0,,11,,,70,127
74618,note_off,183,0,0,,11,,,70,127
74618,note_off,0,0,0,,7,,,55,127
74619,note_on,1,0,0,,10,,,57,127
74619,note_on,0,0,0,,0,,,72,127
74802,note_off,183,0,0,,0,,,72,127
74802,note_off,0,0,0,,10,,,57,127
74803,note_on,1,0,0,,11,,,58,127
74803,note_on,0,0,0,,2,,,74,127
74986,note_off,183,0,0,,2,,,74,127
74986,note_off,0,0,0,,11,,,58,127
74987,note_on,1,0,0,,0,,,60,127
74987,note_on,0,0,0,,7,,,67,127
75170,note_off,183,0,0,,7,,,67,127
75170,note_off,0,0,0,,0,,,60,127
75171,note_on,1,0,0,,2,,,62,127
75171,note_on,0,0,0,,6,,,66,127
75354,note_off,183,0,0,,6,,,66,127
75355,note_on,1,0,0,,10,,,69,127
75538,note_off,183,0,0,,10,,,69,127
75539,note_on,1,0,0,,2,,,74,127
75722,note_off,183,0,0,,2,,,74,127
75723,note_on,1,0,0,,0,,,72,127
75906,note_off,183,0,0,,0,,,72,127
75906,note_off,0,0,0,,2,,,62,127
75907,note_on,1,0,0,,7,,,67,127
75907,note_on,0,0,0,,11,,,70,127
76090,note_off,183,0,0,,11,,,70,127
76091,note_on,1,0,0,,2,,,74,127
76274,note_off,183,0,0,,2,,,74,127
76275,note_on,1,0,0,,11,,,70,127
76454,note_off,179,0,0,,7,,,67,127
76459,note_off,5,0,0,,11,,,70,127
76460,note_on,1,0,0,,7,,,67,127
76643,note_off,183,0,0,,7,,,67,127
76644,note_on,1,0,0,,5,,,65,127
76644,note_on,0,0,0,,10,,,69,127
76644,note_on,0,0,0,,10,,,81,127
76827,note_off,183,0,0,,10,,,81,127
76827,note_off,0,0,0,,10,,,69,127
76828,note_on,1,0,0,,7,,,79,127
77011,note_off,183,0,0,,7,,,79,127
77011,note_off,0,0,0,,5,,,65,127
77012,note_on,1,0,0,,2,,,62,127
77012,note_on,0,0,0,,5,,,77,127
77195,note_off,183,0,0,,5,,,77,127
77196,note_on,1,0,0,,4,,,76,127
77379,note_off,183,0,0,,4,,,76,127
77379,note_off,0,0,0,,2,,,62,127
77380,note_on,1,0,0,,0,,,60,127
77380,note_on,0,0,0,,2,,,74,127
77505,note_off,125,0,0,,0,,,60,127
77518,note_on,13,0,0,,11,,,58,127
77563,note_off,45,0,0,,2,,,74,127
77564,note_on,1,0,0,,5,,,77,127
77601,note_on,37,0,0,,0,,,60,127
77609,note_off,8,0,0,,11,,,58,127
77687,note_on,78,0,0,,11,,,58,127
77693,note_off,6,0,0,,0,,,60,127
77748,note_off,55,0,0,,5,,,77,127
77749,note_on,1,0,0,,4,,,76,127
77773,note_on,24,0,0,,0,,,60,127
77779,note_off,6,0,0,,11,,,58,127
77859,note_on,80,0,0,,11,,,58,127
77865,note_off,6,0,0,,0,,,60,127
77933,note_off,68,0,0,,4,,,76,127
77934,note_on,1,0,0,,2,,,74,127
77945,note_on,11,0,0,,0,,,60,127
77951,note_off,6,0,0,,11,,,58,127
78031,note_on,80,0,0,,11,,,58,127
78037,note_off,6,0,0,,0,,,60,127
78119,note_off,82,0,0,,2,,,74,127
78120,note_on,1,0,0,,10,,,57,127
78120,note_on,0,0,0,,1,,,73,127
78123,note_off,3,0,0,,11,,,58,127
78303,note_off,180,0,0,,1,,,73,127
78303,note_off,0,0,0,,10,,,57,127
78304,note_on,1,0,0,,12,,,59,127
78304,note_on,0,0,0,,2,,,74,127
78487,note_off,183,0,0,,2,,,74,127
78487,note_off,0,0,0,,12,,,59,127
78488,note_on,1,0,0,,1,,,61,127
78488,note_on,0,0,0,,4,,,76,127
78671,note_off,183,0,0,,1,,,61,127
78672,note_on,1,0,0,,2,,,62,127
78855,note_off,183,0,0,,2,,,62,127
78856,note_on,1,0,0,,4,,,64,127
79039,note_off,183,0,0,,4,,,64,127
79039,note_off,0,0,0,,4,,,76,127
79040,note_on,1,0,0,,5,,,65,127
79040,note_on,0,0,0,,2,,,74,127
79223,note_off,183,0,0,,2,,,74,127
79223,note_off,0,0,0,,5,,,65,127
79224,note_on,1,0,0,,7,,,67,127
79224,note_on,0,0,0,,1,,,73,127
79407,note_off,183,0,0,,1,,,73,127
79407,note_off,0,0,0,,7,,,67,127
79408,note_on,1,0,0,,4,,,64,127
79408,note_on,0,0,0,,4,,,76,127
79591,note_off,183,0,0,,4,,,76,127
79591,note_off,0,0,0,,4,,,64,127
79592,note_on,1,0,0,,5,,,65,127
79592,note_on,0,0,0,,2,,,74,127
79775,note_off,183,0,0,,2,,,74,127
79775,note_off,0,0,0,,5,,,65,127
79776,note_on,1,0,0,,4,,,64,127
79776,note_on,0,0,0,,4,,,76,127
79959,note_off,183,0,0,,4,,,76,127
79959,note_off,0,0,0,,4,,,64,127
79960,note_on,1,0,0,,2,,,62,127
79960,note_on,0,0,0,,5,,,77,127
80143,note_off,183,0,0,,2,,,62,127
80144,note_on,1,0,0,,0,,,60,127
80144,note_on,0,0,0,,4,,,76,127
80327,note_off,183,0,0,,4,,,76,127
80327,note_off,0,0,0,,0,,,60,127
80328,note_on,1,0,0,,11,,,58,127
80328,note_on,0,0,0,,2,,,74,127
80511,note_off,183,0,0,,2,,,74,127
80511,note_off,0,0,0,,11,,,58,127
80511,note_off,0,0,0,,5,,,77,127
80512,note_on,1,0,0,,10,,,57,127
80512,note_on,0,0,0,,0,,,72,127
80695,note_off,183,0,0,,0,,,72,127
80695,note_off,0,0,0,,10,,,57,127
80696,note_on,1,0,0,,7,,,55,127
80696,note_on,0,0,0,,11,,,70,127
80696,note_on,0,0,0,,7,,,79,127
80879,note_off,183,0,0,,7,,,55,127
80880,note_on,1,0,0,,0,,,60,127
81063,note_off,183,0,0,,0,,,60,127
81063,note_off,0,0,0,,7,,,79,127
81063,note_off,0,0,0,,11,,,70,127
81064,note_on,1,0,0,,5,,,53,127
81064,note_on,0,0,0,,10,,,81,127
81064,note_on,0,0,0,,0,,,72,127
81247,note_off,183,0,0,,5,,,53,127
81248,note_on,1,0,0,,7,,,55,127
81431,note_off,183,0,0,,7,,,55,127
81431,note_off,0,0,0,,0,,,72,127
81431,note_off,0,0,0,,10,,,81,127
81432,note_on,1,0,0,,10,,,57,127
81432,note_on,0,0,0,,10,,,81,127
81432,note_on,0,0,0,,5,,,77,127
81615,note_off,183,0,0,,10,,,57,127
81616,note_on,1,0,0,,11,,,58,127
81799,note_off,183,0,0,,11,,,58,127
81799,note_off,0,0,0,,5,,,77,127
81799,note_off,0,0,0,,10,,,81,127
81800,note_on,1,0,0,,0,,,60,127
81800,note_on,0,0,0,,4,,,76,127
81800,note_on,0,0,0,,7,,,79,127
81983,note_off,183,0,0,,0,,,60,127
81984,note_on,1,0,0,,2,,,62,127
82167,note_off,183,0,0,,2,,,62,127
82168,note_on,1,0,0,,4,,,64,127
82351,note_off,183,0,0,,4,,,64,127
82352,note_on,1,0,0,,6,,,66,127
82535,note_off,183,0,0,,6,,,66,127
82535,note_off,0,0,0,,7,,,79,127
82535,note_off,0,0,0,,4,,,76,127
82536,note_on,1,0,0,,7,,,67,127
82536,note_on,0,0,0,,11,,,82,127
82536,note_on,0,0,0,,7,,,79,127
82719,note_off,183,0,0,,7,,,67,127
82720,note_on,1,0,0,,7,,,55,127
82903,note_off,183,0,0,,7,,,55,127
82904,note_on,1,0,0,,11,,,58,127
83087,note_off,183,0,0,,11,,,58,127
83088,note_on,1,0,0,,0,,,60,127
83271,note_off,183,0,0,,0,,,60,127
83271,note_off,0,0,0,,7,,,79,127
83271,note_off,0,0,0,,11,,,82,127
83272,note_on,1,0,0,,2,,,62,127
83272,note_on,0,0,0,,10,,,81,127
83272,note_on,0,0,0,,5,,,77,127
83455,note_off,183,0,0,,5,,,77,127
83455,note_off,0,0,0,,10,,,81,127
83456,note_on,1,0,0,,7,,,79,127
83639,note_off,183,0,0,,7,,,79,127
83640,note_on,1,0,0,,5,,,77,127
83823,note_off,183,0,0,,5,,,77,127
83823,note_off,0,0,0,,2,,,62,127
83824,note_on,1,0,0,,0,,,60,127
83824,note_on,0,0,0,,4,,,76,127
84007,note_off,183,0,0,,4,,,76,127
84007,note_off,0,0,0,,0,,,60,127
84008,note_on,1,0,0,,11,,,58,127
84008,note_on,0,0,0,,2,,,74,127
84191,note_off,183,0,0,,11,,,58,127
84192,note_on,1,0,0,,10,,,57,127
84192,note_on,0,0,0,,0,,,72,127
84375,note_off,183,0,0,,0,,,72,127
84375,note_off,0,0,0,,10,,,57,127
84376,note_on,1,0,0,,7,,,55,127
84376,note_on,0,0,0,,11,,,70,127
84559,note_off,183,0,0,,11,,,70,127
84559,note_off,0,0,0,,7,,,55,127
84560,note_on,1,0,0,,5,,,53,127
84560,note_on,0,0,0,,10,,,69,127
84743,note_off,183,0,0,,10,,,69,127
84743,note_off,0,0,0,,5,,,53,127
84744,note_on,1,0,0,,4,,,52,127
84744,note_on,0,0,0,,7,,,67,127
84927,note_off,183,0,0,,7,,,67,127
84928,note_off,1,0,0,,2,,,74,127
84928,note_on,0,0,0,,5,,,65,127
85111,note_off,183,0,0,,5,,,65,127
85111,note_off,0,0,0,,4,,,52,127
85112,note_on,1,0,0,,10,,,57,127
85112,note_on,0,0,0,,1,,,73,127
85112,note_on,0,0,0,,4,,,64,127
85295,note_off,183,0,0,,4,,,64,127
85296,note_on,1,0,0,,7,,,67,127
85476,note_off,180,0,0,,1,,,73,127
85479,note_off,3,0,0,,7,,,67,127
85480,note_on,1,0,0,,6,,,66,127
85480,note_on,0,0,0,,2,,,74,127
85534,note_off,54,0,0,,10,,,57,127
85664,note_off,130,0,0,,2,,,74,127
85664,note_off,0,0,0,,6,,,66,127
85665,note_on,1,0,0,,7,,,67,127
85848,note_off,183,0,0,,7,,,67,127
85849,note_on,1,0,0,,2,,,62,127
85849,note_on,0,0,0,,10,,,69,127
86032,note_off,183,0,0,,2,,,62,127
86033,note_on,1,0,0,,0,,,60,127
86216,note_off,183,0,0,,0,,,60,127
86216,note_off,0,0,0,,10,,,69,127
86217,note_on,1,0,0,,11,,,58,127
86217,note_on,0,0,0,,2,,,74,127
86400,note_off,183,0,0,,2,,,74,127
86400,note_off,0,0,0,,11,,,58,127
86401,note_on,1,0,0,,10,,,57,127
86401,note_on,0,0,0,,0,,,72,127
86584,note_off,183,0,0,,0,,,72,127
86584,note_off,0,0,0,,10,,,57,127
86585,note_on,1,0,0,,7,,,55,127
86585,note_on,0,0,0,,11,,,70,127
86768,note_off,183,0,0,,11,,,70,127
86768,note_off,0,0,0,,7,,,55,127
86769,note_on,1,0,0,,5,,,53,127
86769,note_on,0,0,0,,10,,,69,127
86952,note_off,183,0,0,,10,,,69,127
86952,note_off,0,0,0,,5,,,53,127
86953,note_on,1,0,0,,3,,,51,127
86953,note_on,0,0,0,,7,,,79,127
86953,note_on,0,0,0,,7,,,67,127
87136,note_off,183,0,0,,7,,,67,127
87136,note_off,0,0,0,,7,,,79,127
87136,note_off,0,0,0,,3,,,51,127
87137,note_on,1,0,0,,2,,,50,127
87137,note_on,0,0,0,,5,,,77,127
87320,note_off,183,0,0,,5,,,77,127
87320,note_off,0,0,0,,2,,,50,127
87321,note_on,1,0,0,,0,,,48,127
87321,note_on,0,0,0,,3,,,75,127
87504,note_off,183,0,0,,3,,,75,127
87504,note_off,0,0,0,,0,,,48,127
87505,note_on,1,0,0,,11,,,46,127
87505,note_on,0,0,0,,2,,,74,127
87688,note_off,183,0,0,,2,,,74,127
87688,note_off,0,0,0,,11,,,46,127
87689,note_on,1,0,0,,10,,,45,127
87689,note_on,0,0,0,,0,,,72,127
87872,note_off,183,0,0,,0,,,72,127
87873,note_on,1,0,0,,11,,,70,127
88056,note_off,183,0,0,,11,,,70,127
88056,note_off,0,0,0,,10,,,45,127
88057,note_on,1,0,0,,10,,,57,127
88057,note_on,0,0,0,,10,,,69,127
88057,note_on,0,0,0,,0,,,72,127
88240,note_off,183,0,0,,10,,,69,127
88241,note_on,1,0,0,,7,,,67,127
88424,note_off,183,0,0,,7,,,67,127
88424,note_off,0,0,0,,10,,,57,127
88425,note_on,1,0,0,,2,,,62,127
88425,note_on,0,0,0,,6,,,66,127
88608,note_off,183,0,0,,6,,,66,127
88608,note_off,0,0,0,,2,,,62,127
88609,note_on,1,0,0,,0,,,60,127
88609,note_on,0,0,0,,4,,,64,127
88792,note_off,183,0,0,,4,,,64,127
88792,note_off,0,0,0,,0,,,60,127
88792,note_off,0,0,0,,0,,,72,127
88793,note_on,1,0,0,,11,,,58,127
88793,note_on,0,0,0,,2,,,74,127
88793,note_on,0,0,0,,2,,,62,127
88976,note_off,183,0,0,,2,,,74,127
88976,note_off,0,0,0,,11,,,58,127
88977,note_on,1,0,0,,10,,,57,127
88977,note_on,0,0,0,,0,,,72,127
89157,note_off,180,0,0,,2,,,62,127
89160,note_off,3,0,0,,0,,,72,127
89160,note_off,0,0,0,,10,,,57,127
89161,note_on,1,0,0,,7,,,55,127
89161,note_on,0,0,0,,11,,,70,127
89344,note_off,183,0,0,,11,,,70,127
89344,note_off,0,0,0,,7,,,55,127
89345,note_on,1,0,0,,5,,,53,127
89345,note_on,0,0,0,,10,,,69,127
89528,note_off,183,0,0,,10,,,69,127
89528,note_off,0,0,0,,5,,,53,127
89529,note_on,1,0,0,,3,,,51,127
89529,note_on,0,0,0,,7,,,67,127
89712,note_off,183,0,0,,3,,,51,127
89713,note_on,1,0,0,,2,,,50,127
89713,note_on,0,0,0,,5,,,65,127
89896,note_off,183,0,0,,5,,,65,127
89896,note_off,0,0,0,,2,,,50,127
89897,note_on,1,0,0,,0,,,48,127
89897,note_on,0,0,0,,3,,,63,127
90080,note_off,183,0,0,,3,,,63,127
90080,note_off,0,0,0,,0,,,48,127
90081,note_on,1,0,0,,11,,,46,127
90081,note_on,0,0,0,,2,,,62,127
90264,note_off,183,0,0,,2,,,62,127
90264,note_off,0,0,0,,11,,,46,127
90264,note_off,0,0,0,,7,,,67,127
90265,note_on,1,0,0,,10,,,45,127
90265,note_on,0,0,0,,10,,,69,127
90265,note_on,0,0,0,,0,,,60,127
90448,note_off,183,0,0,,10,,,45,127
90449,note_on,1,0,0,,2,,,50,127
90632,note_off,183,0,0,,2,,,50,127
90632,note_off,0,0,0,,0,,,60,127
90632,note_off,0,0,0,,10,,,69,127
90633,note_on,1,0,0,,7,,,43,127
90633,note_on,0,0,0,,11,,,70,127
90633,note_on,0,0,0,,2,,,62,127
90816,note_off,183,0,0,,11,,,70,127
90817,note_on,1,0,0,,0,,,72,127
90997,note_off,180,0,0,,2,,,62,127
91000,note_off,3,0,0,,0,,,72,127
91001,note_on,1,0,0,,2,,,74,127
91184,note_off,183,0,0,,2,,,74,127
91185,note_on,1,0,0,,11,,,70,127
91368,note_off,183,0,0,,11,,,70,127
91368,note_off,0,0,0,,7,,,43,127
91369,note_on,1,0,0,,2,,,50,127
91369,note_on,0,0,0,,10,,,69,127
91552,note_off,183,0,0,,10,,,69,127
91553,note_on,1,0,0,,7,,,67,127
91736,note_off,183,0,0,,7,,,67,127
91737,note_on,1,0,0,,6,,,66,127
91920,note_off,183,0,0,,6,,,66,127
91921,note_on,1,0,0,,4,,,64,127
92104,note_off,183,0,0,,4,,,64,127
92104,note_off,0,0,0,,2,,,50,127
92105,note_on,1,0,0,,11,,,46,127
92105,note_on,0,0,0,,2,,,62,127
92288,note_off,183,0,0,,2,,,62,127
92289,note_on,1,0,0,,0,,,60,127
92472,note_off,183,0,0,,0,,,60,127
92472,note_off,0,0,0,,11,,,46,127
92473,note_on,1,0,0,,7,,,43,127
92473,note_on,0,0,0,,11,,,58,127
92656,note_off,183,0,0,,11,,,58,127
92657,note_on,1,0,0,,10,,,57,127
92840,note_off,183,0,0,,10,,,57,127
92840,note_off,0,0,0,,7,,,43,127
92841,note_on,1,0,0,,5,,,41,127
92841,note_on,0,0,0,,7,,,55,127
92932,note_off,91,0,0,,5,,,41,127
92933,note_on,1,0,0,,3,,,39,127
93024,note_off,91,0,0,,3,,,39,127
93024,note_off,0,0,0,,7,,,55,127
93025,note_on,1,0,0,,5,,,41,127
93025,note_on,0,0,0,,10,,,57,127
93116,note_off,91,0,0,,5,,,41,127
93117,note_on,1,0,0,,3,,,39,127
93208,note_off,91,0,0,,3,,,39,127
93208,note_off,0,0,0,,10,,,57,127
93209,note_on,1,0,0,,5,,,41,127
93209,note_on,0,0,0,,11,,,58,127
93300,note_off,91,0,0,,5,,,41,127
93301,note_on,1,0,0,,3,,,39,127
93392,note_off,91,0,0,,3,,,39,127
93392,note_off,0,0,0,,11,,,58,127
93393,note_on,1,0,0,,5,,,41,127
93393,note_on,0,0,0,,0,,,60,127
93484,note_off,91,0,0,,5,,,41,127
93485,note_on,1,0,0,,3,,,39,127
93576,note_off,91,0,0,,3,,,39,127
93576,note_off,0,0,0,,0,,,60,127
93577,note_on,1,0,0,,2,,,38,127
93577,note_on,0,0,0,,2,,,62,127
93760,note_off,183,0,0,,2,,,38,127
93761,note_on,1,0,0,,4,,,40,127
93944,note_off,183,0,0,,4,,,40,127
93944,note_off,0,0,0,,2,,,62,127
93945,note_on,1,0,0,,6,,,42,127
93945,note_on,0,0,0,,4,,,64,127
94128,note_off,183,0,0,,6,,,42,127
94129,note_on,1,0,0,,7,,,43,127
94312,note_off,183,0,0,,7,,,43,127
94312,note_off,0,0,0,,4,,,64,127
94313,note_on,1,0,0,,10,,,45,127
94313,note_on,0,0,0,,6,,,66,127
94496,note_off,183,0,0,,6,,,66,127
94496,note_off,0,0,0,,10,,,45,127
94497,note_on,1,0,0,,11,,,46,127
94497,note_on,0,0,0,,7,,,67,127
94680,note_off,183,0,0,,7,,,67,127
94680,note_off,0,0,0,,11,,,46,127
94681,note_on,1,0,0,,0,,,48,127
94681,note_on,0,0,0,,10,,,69,127
94864,note_off,183,0,0,,10,,,69,127
94864,note_off,0,0,0,,0,,,48,127
94865,note_on,1,0,0,,10,,,45,127
94865,note_on,0,0,0,,6,,,66,127
95048,note_off,183,0,0,,6,,,66,127
95048,note_off,0,0,0,,10,,,45,127
95049,note_on,1,0,0,,11,,,46,127
95049,note_on,0,0,0,,7,,,67,127
95232,note_off,183,0,0,,7,,,67,127
95232,note_off,0,0,0,,11,,,46,127
95233,note_on,1,0,0,,0,,,48,127
95233,note_on,0,0,0,,10,,,69,127
95416,note_off,183,0,0,,10,,,69,127
95416,note_off,0,0,0,,0,,,48,127
95417,note_on,1,0,0,,2,,,50,127
95417,note_on,0,0,0,,11,,,70,127
95600,note_off,183,0,0,,11,,,70,127
95600,note_off,0,0,0,,2,,,50,127
95601,note_on,1,0,0,,4,,,52,127
95601,note_on,0,0,0,,0,,,72,127
95784,note_off,183,0,0,,0,,,72,127
95784,note_off,0,0,0,,4,,,52,127
95785,note_on,1,0,0,,6,,,54,127
95785,note_on,0,0,0,,2,,,74,127
95968,note_off,183,0,0,,6,,,54,127
95969,note_on,1,0,0,,7,,,55,127
96152,note_off,183,0,0,,7,,,55,127
96152,note_off,0,0,0,,2,,,74,127
96153,note_on,1,0,0,,10,,,57,127
96153,note_on,0,0,0,,0,,,72,127
96336,note_off,183,0,0,,10,,,57,127
96337,note_on,1,0,0,,6,,,54,127
96520,note_off,183,0,0,,6,,,54,127
96520,note_off,0,0,0,,0,,,72,127
96521,note_on,1,0,0,,7,,,55,127
96521,note_on,0,0,0,,12,,,71,127
96704,note_off,183,0,0,,12,,,71,127
96704,note_off,0,0,0,,7,,,55,127
96705,note_on,1,0,0,,10,,,57,127
96705,note_on,0,0,0,,0,,,72,127
96888,note_off,183,0,0,,0,,,72,127
96888,note_off,0,0,0,,10,,,57,127
96889,note_on,1,0,0,,12,,,59,127
96889,note_on,0,0,0,,2,,,74,127
97072,note_off,183,0,0,,2,,,74,127
97072,note_off,0,0,0,,12,,,59,127
97073,note_on,1,0,0,,0,,,60,127
97073,note_on,0,0,0,,3,,,75,127
97256,note_off,183,0,0,,3,,,75,127
97256,note_off,0,0,0,,0,,,60,127
97257,note_on,1,0,0,,2,,,62,127
97257,note_on,0,0,0,,5,,,65,127
97440,note_off,183,0,0,,5,,,65,127
97440,note_off,0,0,0,,2,,,62,127
97441,note_on,1,0,0,,3,,,63,127
97441,note_on,0,0,0,,7,,,67,127
97624,note_off,183,0,0,,7,,,67,127
97624,note_off,0,0,0,,3,,,63,127
97625,note_on,1,0,0,,5,,,65,127
97625,note_on,0,0,0,,10,,,69,127
97808,note_off,183,0,0,,10,,,69,127
97808,note_off,0,0,0,,5,,,65,127
97809,note_on,1,0,0,,7,,,67,127
97809,note_on,0,0,0,,12,,,71,127
97992,note_off,183,0,0,,12,,,71,127
97992,note_off,0,0,0,,7,,,67,127
97993,note_on,1,0,0,,8,,,68,127
97993,note_on,0,0,0,,0,,,72,127
98176,note_off,183,0,0,,0,,,72,127
98177,note_on,1,0,0,,2,,,74,127
98360,note_off,183,0,0,,2,,,74,127
98361,note_on,1,0,0,,3,,,75,127
98544,note_off,183,0,0,,3,,,75,127
98545,note_on,1,0,0,,5,,,77,127
98728,note_off,183,0,0,,5,,,77,127
98728,note_off,0,0,0,,8,,,68,127
98729,note_on,1,0,0,,7,,,67,127
98729,note_on,0,0,0,,7,,,79,127
98912,note_off,183,0,0,,7,,,67,127
98913,note_on,1,0,0,,5,,,65,127
99096,note_off,183,0,0,,5,,,65,127
99097,note_on,1,0,0,,4,,,64,127
99280,note_off,183,0,0,,4,,,64,127
99280,note_off,0,0,0,,7,,,79,127
99281,note_on,1,0,0,,2,,,62,127
99281,note_on,0,0,0,,5,,,77,127
99464,note_off,183,0,0,,5,,,77,127
99464,note_off,0,0,0,,2,,,62,127
99465,note_on,1,0,0,,0,,,60,127
99465,note_on,0,0,0,,4,,,76,127
99648,note_off,183,0,0,,4,,,76,127
99648,note_off,0,0,0,,0,,,60,127
99649,note_on,1,0,0,,11,,,58,127
99649,note_on,0,0,0,,1,,,73,127
99832,note_off,183,0,0,,1,,,73,127
99832,note_off,0,0,0,,11,,,58,127
99833,note_on,1,0,0,,8,,,56,127
99833,note_on,0,0,0,,0,,,72,127
100016,note_off,183,0,0,,0,,,72,127
100016,note_off,0,0,0,,8,,,56,127
100017,note_on,1,0,0,,7,,,55,127
100017,note_on,0,0,0,,11,,,70,127
100200,note_off,183,0,0,,11,,,70,127
100200,note_off,0,0,0,,7,,,55,127
100201,note_on,1,0,0,,5,,,65,127
100201,note_on,0,0,0,,8,,,68,127
100201,note_on,0,0,0,,5,,,77,127
100384,note_off,183,0,0,,8,,,68,127
100384,note_off,0,0,0,,5,,,65,127
100385,note_on,1,0,0,,3,,,63,127
100385,note_on,0,0,0,,7,,,67,127
100568,note_off,183,0,0,,7,,,67,127
100568,note_off,0,0,0,,3,,,63,127
100569,note_on,1,0,0,,1,,,61,127
100569,note_on,0,0,0,,5,,,65,127
100752,note_off,183,0,0,,5,,,65,127
100752,note_off,0,0,0,,1,,,61,127
100752,note_off,0,0,0,,5,,,77,127
100753,note_on,1,0,0,,0,,,60,127
100753,note_on,0,0,0,,3,,,75,127
100936,note_off,183,0,0,,3,,,75,127
100936,note_off,0,0,0,,0,,,60,127
100937,note_on,1,0,0,,11,,,58,127
100937,note_on,0,0,0,,1,,,73,127
101120,note_off,183,0,0,,1,,,73,127
101120,note_off,0,0,0,,11,,,58,127
101121,note_on,1,0,0,,8,,,56,127
101121,note_on,0,0,0,,0,,,72,127
101304,note_off,183,0,0,,0,,,72,127
101304,note_off,0,0,0,,8,,,56,127
101305,note_on,1,0,0,,7,,,55,127
101305,note_on,0,0,0,,11,,,70,127
101488,note_off,183,0,0,,11,,,70,127
101488,note_off,0,0,0,,7,,,55,127
101489,note_on,1,0,0,,5,,,53,127
101489,note_on,0,0,0,,8,,,68,127
101672,note_off,183,0,0,,8,,,68,127
101672,note_off,0,0,0,,5,,,53,127
101673,note_on,1,0,0,,4,,,52,127
101673,note_on,0,0,0,,7,,,67,127
101673,note_on,0,0,0,,0,,,72,127
101856,note_off,183,0,0,,7,,,67,127
101856,note_off,0,0,0,,4,,,52,127
101857,note_on,1,0,0,,2,,,50,127
101857,note_on,0,0,0,,5,,,65,127
102040,note_off,183,0,0,,5,,,65,127
102040,note_off,0,0,0,,2,,,50,127
102041,note_on,1,0,0,,0,,,48,127
102041,note_on,0,0,0,,4,,,64,127
102224,note_off,183,0,0,,4,,,64,127
102224,note_off,0,0,0,,0,,,48,127
102224,note_off,0,0,0,,0,,,72,127
102225,note_on,1,0,0,,4,,,52,127
102225,note_on,0,0,0,,11,,,70,127
102408,note_off,183,0,0,,11,,,70,127
102408,note_off,0,0,0,,4,,,52,127
102409,note_on,1,0,0,,5,,,53,127
102409,note_on,0,0,0,,8,,,68,127
102409,note_on,0,0,0,,5,,,77,127
102592,note_off,183,0,0,,8,,,68,127
102592,note_off,0,0,0,,5,,,53,127
102593,note_on,1,0,0,,7,,,55,127
102593,note_on,0,0,0,,7,,,67,127
102776,note_off,183,0,0,,7,,,67,127
102776,note_off,0,0,0,,7,,,55,127
102777,note_on,1,0,0,,8,,,56,127
102777,note_on,0,0,0,,5,,,65,127
102960,note_off,183,0,0,,8,,,56,127
102960,note_off,0,0,0,,5,,,77,127
102961,note_on,1,0,0,,5,,,53,127
102961,note_on,0,0,0,,3,,,75,127
103141,note_off,180,0,0,,5,,,65,127
103144,note_off,3,0,0,,3,,,75,127
103144,note_off,0,0,0,,5,,,53,127
103145,note_on,1,0,0,,11,,,58,127
103145,note_on,0,0,0,,2,,,74,127
103328,note_off,183,0,0,,2,,,74,127
103328,note_off,0,0,0,,11,,,58,127
103329,note_on,1,0,0,,0,,,60,127
103329,note_on,0,0,0,,0,,,72,127
103512,note_off,183,0,0,,0,,,72,127
103512,note_off,0,0,0,,0,,,60,127
103513,note_on,1,0,0,,2,,,62,127
103513,note_on,0,0,0,,11,,,70,127
103696,note_off,183,0,0,,11,,,70,127
103696,note_off,0,0,0,,2,,,62,127
103697,note_on,1,0,0,,11,,,58,127
103697,note_on,0,0,0,,8,,,68,127
103851,note_off,154,0,0,,8,,,68,127
103878,note_off,27,0,0,,11,,,58,127
103882,note_on,4,0,0,,3,,,63,127
103882,note_on,0,0,0,,3,,,75,127
103882,note_on,0,0,0,,7,,,79,127
104065,note_off,183,0,0,,3,,,63,127
104066,note_on,1,0,0,,3,,,51,127
104249,note_off,183,0,0,,3,,,51,127
104250,note_on,1,0,0,,7,,,55,127
104433,note_off,183,0,0,,7,,,55,127
104434,note_on,1,0,0,,8,,,56,127
104617,note_off,183,0,0,,8,,,56,127
104617,note_off,0,0,0,,7,,,79,127
104617,note_off,0,0,0,,3,,,75,127
104618,note_on,1,0,0,,11,,,58,127
104618,note_on,0,0,0,,5,,,77,127
104618,note_on,0,0,0,,2,,,74,127
104801,note_off,183,0,0,,11,,,58,127
104802,note_on,1,0,0,,11,,,46,127
104985,note_off,183,0,0,,11,,,46,127
104986,note_on,1,0,0,,2,,,50,127
105169,note_off,183,0,0,,2,,,50,127
105170,note_on,1,0,0,,3,,,51,127
105353,note_off,183,0,0,,3,,,51,127
105353,note_off,0,0,0,,2,,,74,127
105353,note_off,0,0,0,,5,,,77,127
105354,note_on,1,0,0,,5,,,53,127
105354,note_on,0,0,0,,5,,,77,127
105354,note_on,0,0,0,,8,,,80,127
105537,note_off,183,0,0,,5,,,53,127
105538,note_on,1,0,0,,7,,,55,127
105721,note_off,183,0,0,,7,,,55,127
105722,note_on,1,0,0,,8,,,56,127
105905,note_off,183,0,0,,8,,,56,127
105906,note_on,1,0,0,,11,,,58,127
106089,note_off,183,0,0,,11,,,58,127
106089,note_off,0,0,0,,8,,,80,127
106089,note_off,0,0,0,,5,,,77,127
106090,note_on,1,0,0,,0,,,60,127
106090,note_on,0,0,0,,3,,,75,127
106090,note_on,0,0,0,,7,,,79,127
106273,note_off,183,0,0,,0,,,60,127
106274,note_on,1,0,0,,2,,,62,127
106457,note_off,183,0,0,,2,,,62,127
106458,note_on,1,0,0,,3,,,63,127
106641,note_off,183,0,0,,3,,,63,127
106642,note_on,1,0,0,,5,,,65,127
106825,note_off,183,0,0,,5,,,65,127
106825,note_off,0,0,0,,7,,,79,127
106825,note_off,0,0,0,,3,,,75,127
106826,note_on,1,0,0,,7,,,67,127
106826,note_on,0,0,0,,11,,,82,127
106826,note_on,0,0,0,,7,,,79,127
107009,note_off,183,0,0,,7,,,67,127
107010,note_on,1,0,0,,10,,,69,127
107193,note_off,183,0,0,,10,,,69,127
107194,note_on,1,0,0,,11,,,70,127
107377,note_off,183,0,0,,11,,,70,127
107378,note_on,1,0,0,,0,,,72,127
107561,note_off,183,0,0,,0,,,72,127
107561,note_off,0,0,0,,7,,,79,127
107561,note_off,0,0,0,,11,,,82,127
107562,note_on,1,0,0,,2,,,74,127
107562,note_on,0,0,0,,10,,,81,127
107745,note_off,183,0,0,,10,,,81,127
107746,note_on,1,0,0,,7,,,79,127
107929,note_off,183,0,0,,7,,,79,127
107930,note_on,1,0,0,,6,,,78,127
108113,note_off,183,0,0,,6,,,78,127
108113,note_off,0,0,0,,2,,,74,127
108114,note_on,1,0,0,,0,,,72,127
108114,note_on,0,0,0,,3,,,75,127
108297,note_off,183,0,0,,3,,,75,127
108297,note_off,0,0,0,,0,,,72,127
108298,note_on,1,0,0,,11,,,70,127
108298,note_on,0,0,0,,2,,,74,127
108481,note_off,183,0,0,,2,,,74,127
108481,note_off,0,0,0,,11,,,70,127
108482,note_on,1,0,0,,10,,,69,127
108482,note_on,0,0,0,,0,,,72,127
108665,note_off,183,0,0,,0,,,72,127
108665,note_off,0,0,0,,10,,,69,127
108666,note_on,1,0,0,,7,,,67,127
108666,note_on,0,0,0,,11,,,70,127
108849,note_off,183,0,0,,11,,,70,127
108849,note_off,0,0,0,,7,,,67,127
108850,note_on,1,0,0,,5,,,65,127
108850,note_on,0,0,0,,10,,,69,127
109033,note_off,183,0,0,,10,,,69,127
109033,note_off,0,0,0,,5,,,65,127
109034,note_on,1,0,0,,4,,,64,127
109034,note_on,0,0,0,,7,,,67,127
109217,note_off,183,0,0,,7,,,67,127
109217,note_off,0,0,0,,4,,,64,127
109218,note_on,1,0,0,,2,,,62,127
109218,note_on,0,0,0,,6,,,66,127
109401,note_off,183,0,0,,6,,,66,127
109401,note_off,0,0,0,,2,,,62,127
109402,note_on,1,0,0,,0,,,60,127
109402,note_on,0,0,0,,7,,,67,127
109585,note_off,183,0,0,,0,,,60,127
109586,note_on,1,0,0,,11,,,58,127
109769,note_off,183,0,0,,11,,,58,127
109770,note_on,1,0,0,,10,,,57,127
109953,note_off,183,0,0,,7,,,67,127
109954,note_on,1,0,0,,0,,,72,127
109954,note_on,0,0,0,,10,,,69,127
110137,note_off,183,0,0,,10,,,69,127
110137,note_off,0,0,0,,0,,,72,127
110137,note_off,0,0,0,,10,,,57,127
110138,note_on,1,0,0,,2,,,62,127
110138,note_on,0,0,0,,7,,,67,127
110138,note_on,0,0,0,,11,,,70,127
110321,note_off,183,0,0,,11,,,70,127
110321,note_off,0,0,0,,7,,,67,127
110322,note_on,1,0,0,,10,,,69,127
110322,note_on,0,0,0,,5,,,65,127
110505,note_off,183,0,0,,2,,,62,127
110506,note_on,1,0,0,,7,,,55,127
110533,note_off,27,0,0,,5,,,65,127
110541,note_off,8,0,0,,10,,,69,127
110691,note_on,150,0,0,,11,,,70,127
110691,note_on,0,0,0,,7,,,67,127
110874,note_off,183,0,0,,7,,,67,127
110874,note_off,0,0,0,,11,,,70,127
110874,note_off,0,0,0,,7,,,55,127
110875,note_on,1,0,0,,0,,,60,127
110875,note_on,0,0,0,,10,,,69,127
110875,note_on,0,0,0,,5,,,65,127
111058,note_off,183,0,0,,5,,,65,127
111058,note_off,0,0,0,,10,,,69,127
111059,note_on,1,0,0,,7,,,67,127
111059,note_on,0,0,0,,4,,,64,127
111242,note_off,183,0,0,,0,,,60,127
111243,note_on,1,0,0,,5,,,53,127
111270,note_off,27,0,0,,4,,,64,127
111278,note_off,8,0,0,,7,,,67,127
111428,note_on,150,0,0,,5,,,65,127
111428,note_on,0,0,0,,10,,,69,127
111611,note_off,183,0,0,,10,,,69,127
111611,note_off,0,0,0,,5,,,65,127
111611,note_off,0,0,0,,5,,,53,127
111612,note_on,1,0,0,,11,,,58,127
111612,note_on,0,0,0,,4,,,64,127
111612,note_on,0,0,0,,7,,,67,127
111795,note_off,183,0,0,,7,,,67,127
111795,note_off,0,0,0,,4,,,64,127
111796,note_on,1,0,0,,2,,,62,127
111796,note_on,0,0,0,,5,,,65,127
111979,note_off,183,0,0,,11,,,58,127
111980,note_on,1,0,0,,4,,,52,127
112007,note_off,27,0,0,,2,,,62,127
112017,note_off,10,0,0,,5,,,65,127
112165,note_on,148,0,0,,4,,,64,127
112165,note_on,0,0,0,,7,,,67,127
112348,note_off,183,0,0,,7,,,67,127
112348,note_off,0,0,0,,4,,,64,127
112348,note_off,0,0,0,,4,,,52,127
112349,note_on,1,0,0,,10,,,57,127
112349,note_on,0,0,0,,5,,,65,127
112349,note_on,0,0,0,,2,,,62,127
112532,note_off,183,0,0,,2,,,62,127
112532,note_off,0,0,0,,5,,,65,127
112533,note_on,1,0,0,,4,,,64,127
112533,note_on,0,0,0,,1,,,61,127
112716,note_off,183,0,0,,1,,,61,127
112716,note_off,0,0,0,,4,,,64,127
112716,note_off,0,0,0,,10,,,57,127
112717,note_on,1,0,0,,2,,,50,127
112717,note_on,0,0,0,,5,,,65,127
112717,note_on,0,0,0,,2,,,62,127
112900,note_off,183,0,0,,5,,,65,127
112901,note_on,1,0,0,,10,,,69,127
113084,note_off,183,0,0,,10,,,69,127
113085,note_on,1,0,0,,2,,,74,127
113268,note_off,183,0,0,,2,,,62,127
113269,note_on,1,0,0,,10,,,69,127
113452,note_off,183,0,0,,10,,,69,127
113452,note_off,0,0,0,,2,,,50,127
113453,note_on,1,0,0,,7,,,55,127
113453,note_on,0,0,0,,11,,,70,127
113636,note_off,183,0,0,,2,,,74,127
113637,note_on,1,0,0,,1,,,73,127
113820,note_off,183,0,0,,1,,,73,127
113821,note_on,1,0,0,,2,,,74,127
114004,note_off,183,0,0,,2,,,74,127
114005,note_on,1,0,0,,4,,,76,127
114188,note_off,183,0,0,,4,,,76,127
114188,note_off,0,0,0,,11,,,70,127
114188,note_off,0,0,0,,7,,,55,127
114189,note_on,1,0,0,,5,,,53,127
114189,note_on,0,0,0,,10,,,69,127
114372,note_off,183,0,0,,5,,,53,127
114373,note_on,1,0,0,,4,,,52,127
114556,note_off,183,0,0,,4,,,52,127
114557,note_on,1,0,0,,2,,,50,127
114557,note_on,0,0,0,,10,,,81,127
114592,note_off,35,0,0,,10,,,69,127
114741,note_off,149,0,0,,2,,,50,127
114742,note_on,1,0,0,,0,,,48,127
114925,note_off,183,0,0,,0,,,48,127
114925,note_off,0,0,0,,10,,,81,127
114926,note_on,1,0,0,,0,,,48,127
114926,note_on,0,0,0,,11,,,70,127
114926,note_on,0,0,0,,7,,,79,127
115017,note_off,91,0,0,,0,,,48,127
115018,note_on,1,0,0,,11,,,46,127
115109,note_off,91,0,0,,11,,,46,127
115109,note_off,0,0,0,,7,,,79,127
115109,note_off,0,0,0,,11,,,70,127
115110,note_on,1,0,0,,0,,,48,127
115110,note_on,0,0,0,,5,,,77,127
115110,note_on,0,0,0,,10,,,69,127
115201,note_off,91,0,0,,0,,,48,127
115202,note_on,1,0,0,,11,,,46,127
115293,note_off,91,0,0,,11,,,46,127
115293,note_off,0,0,0,,10,,,69,127
115293,note_off,0,0,0,,5,,,77,127
115294,note_on,1,0,0,,0,,,48,127
115294,note_on,0,0,0,,4,,,76,127
115294,note_on,0,0,0,,7,,,67,127
115385,note_off,91,0,0,,0,,,48,127
115386,note_on,1,0,0,,11,,,46,127
115477,note_off,91,0,0,,11,,,46,127
115477,note_off,0,0,0,,7,,,67,127
115477,note_off,0,0,0,,4,,,76,127
115478,note_on,1,0,0,,0,,,48,127
115478,note_on,0,0,0,,2,,,74,127
115478,note_on,0,0,0,,5,,,65,127
115569,note_off,91,0,0,,0,,,48,127
115570,note_on,1,0,0,,11,,,46,127
115661,note_off,91,0,0,,11,,,46,127
115661,note_off,0,0,0,,5,,,65,127
115661,note_off,0,0,0,,2,,,74,127
115662,note_on,1,0,0,,10,,,45,127
115662,note_on,0,0,0,,4,,,64,127
115662,note_on,0,0,0,,1,,,73,127
115845,note_off,183,0,0,,1,,,73,127
115845,note_off,0,0,0,,4,,,64,127
115845,note_off,0,0,0,,10,,,45,127
115846,note_on,1,0,0,,12,,,47,127
115846,note_on,0,0,0,,2,,,74,127
116029,note_off,183,0,0,,2,,,74,127
116029,note_off,0,0,0,,12,,,47,127
116030,note_on,1,0,0,,1,,,49,127
116030,note_on,0,0,0,,4,,,76,127
116213,note_off,183,0,0,,4,,,76,127
116213,note_off,0,0,0,,1,,,49,127
116214,note_on,1,0,0,,2,,,50,127
116214,note_on,0,0,0,,5,,,77,127
116397,note_off,183,0,0,,5,,,77,127
116397,note_off,0,0,0,,2,,,50,127
116398,note_on,1,0,0,,4,,,52,127
116398,note_on,0,0,0,,7,,,67,127
116398,note_on,0,0,0,,7,,,79,127
116581,note_off,183,0,0,,7,,,67,127
116581,note_off,0,0,0,,4,,,52,127
116582,note_on,1,0,0,,5,,,53,127
116582,note_on,0,0,0,,10,,,69,127
116765,note_off,183,0,0,,10,,,69,127
116765,note_off,0,0,0,,5,,,53,127
116766,note_on,1,0,0,,7,,,55,127
116766,note_on,0,0,0,,12,,,71,127
116949,note_off,183,0,0,,12,,,71,127
116949,note_off,0,0,0,,7,,,55,127
116950,note_on,1,0,0,,4,,,52,127
116950,note_on,0,0,0,,1,,,73,127
117133,note_off,183,0,0,,1,,,73,127
117133,note_off,0,0,0,,4,,,52,127
117133,note_off,0,0,0,,7,,,79,127
117134,note_on,1,0,0,,5,,,53,127
117134,note_on,0,0,0,,5,,,77,127
117134,note_on,0,0,0,,2,,,74,127
117317,note_off,183,0,0,,2,,,74,127
117317,note_off,0,0,0,,5,,,77,127
117318,note_on,1,0,0,,4,,,76,127
117501,note_off,183,0,0,,4,,,76,127
117502,note_on,1,0,0,,2,,,74,127
117684,note_on,182,0,0,,0,,,72,127
117685,note_off,1,0,0,,2,,,74,127
117685,note_off,0,0,0,,5,,,53,127
117686,note_on,1,0,0,,7,,,55,127
117775,note_off,89,0,0,,0,,,72,127
117777,note_on,2,0,0,,11,,,70,127
117868,note_off,91,0,0,,11,,,70,127
117869,note_off,1,0,0,,7,,,55,127
117870,note_on,1,0,0,,10,,,57,127
117870,note_on,0,0,0,,10,,,69,127
118053,note_off,183,0,0,,10,,,57,127
118054,note_on,1,0,0,,12,,,59,127
118237,note_off,183,0,0,,12,,,59,127
118237,note_off,0,0,0,,10,,,69,127
118238,note_on,1,0,0,,1,,,61,127
118238,note_on,0,0,0,,7,,,67,127
118421,note_off,183,0,0,,1,,,61,127
118422,note_on,1,0,0,,10,,,57,127
118605,note_off,183,0,0,,10,,,57,127
118605,note_off,0,0,0,,7,,,67,127
118606,note_on,1,0,0,,2,,,62,127
118606,note_on,0,0,0,,2,,,74,127
118606,note_on,0,0,0,,6,,,66,127
118789,note_off,183,0,0,,6,,,66,127
118789,note_off,0,0,0,,2,,,62,127
118790,note_on,1,0,0,,4,,,64,127
118790,note_on,0,0,0,,7,,,67,127
118973,note_off,183,0,0,,7,,,67,127
118973,note_off,0,0,0,,4,,,64,127
118974,note_on,1,0,0,,6,,,66,127
118974,note_on,0,0,0,,10,,,69,127
119157,note_off,183,0,0,,10,,,69,127
119157,note_off,0,0,0,,6,,,66,127
119158,note_on,1,0,0,,7,,,67,127
119158,note_on,0,0,0,,11,,,70,127
119341,note_off,183,0,0,,11,,,70,127
119341,note_off,0,0,0,,7,,,67,127
119341,note_off,0,0,0,,2,,,74,127
119342,note_on,1,0,0,,0,,,60,127
119342,note_on,0,0,0,,10,,,69,127
119342,note_on,0,0,0,,3,,,75,127
119342,note_on,0,0,0,,0,,,72,127
119525,note_off,183,0,0,,0,,,72,127
119525,note_off,0,0,0,,10,,,69,127
119526,note_on,1,0,0,,7,,,67,127
119526,note_on,0,0,0,,11,,,70,127
119709,note_off,183,0,0,,11,,,70,127
119709,note_off,0,0,0,,7,,,67,127
119710,note_on,1,0,0,,10,,,69,127
119710,note_on,0,0,0,,0,,,72,127
119893,note_off,183,0,0,,0,,,72,127
119893,note_off,0,0,0,,10,,,69,127
119894,note_on,1,0,0,,6,,,66,127
119894,note_on,0,0,0,,10,,,69,127
120077,note_off,183,0,0,,10,,,69,127
120077,note_off,0,0,0,,6,,,66,127
120077,note_off,0,0,0,,3,,,75,127
120077,note_off,0,0,0,,0,,,60,127
120078,note_on,1,0,0,,11,,,58,127
120078,note_on,0,0,0,,7,,,67,127
120078,note_on,0,0,0,,2,,,74,127
120078,note_on,0,0,0,,11,,,70,127
120261,note_off,183,0,0,,11,,,70,127
120262,note_on,1,0,0,,10,,,69,127
120442,note_off,180,0,0,,2,,,74,127
120445,note_off,3,0,0,,10,,,69,127
120445,note_off,0,0,0,,7,,,67,127
120445,note_off,0,0,0,,11,,,58,127
120446,note_on,1,0,0,,3,,,63,127
120446,note_on,0,0,0,,11,,,70,127
120446,note_on,0,0,0,,7,,,79,127
120629,note_off,183,0,0,,11,,,70,127
120630,note_on,1,0,0,,7,,,67,127
120813,note_off,183,0,0,,7,,,67,127
120813,note_off,0,0,0,,3,,,63,127
120814,note_on,1,0,0,,10,,,57,127
120814,note_on,0,0,0,,0,,,72,127
120997,note_off,183,0,0,,0,,,72,127
120998,note_on,1,0,0,,3,,,75,127
121181,note_off,183,0,0,,3,,,75,127
121181,note_off,0,0,0,,10,,,57,127
121181,note_off,0,0,0,,7,,,79,127
121182,note_on,1,0,0,,2,,,62,127
121182,note_on,0,0,0,,6,,,78,127
121182,note_on,0,0,0,,2,,,74,127
121365,note_off,183,0,0,,2,,,74,127
121366,note_on,1,0,0,,0,,,72,127
121546,note_off,180,0,0,,6,,,78,127
121549,note_off,3,0,0,,0,,,72,127
121549,note_off,0,0,0,,2,,,62,127
121550,note_on,1,0,0,,7,,,55,127
121550,note_on,0,0,0,,11,,,70,127
121550,note_on,0,0,0,,7,,,79,127
121733,note_off,183,0,0,,7,,,79,127
121733,note_off,0,0,0,,11,,,70,127
121734,note_on,1,0,0,,5,,,77,127
121734,note_on,0,0,0,,10,,,69,127
121917,note_off,183,0,0,,10,,,69,127
121917,note_off,0,0,0,,5,,,77,127
121918,note_on,1,0,0,,3,,,75,127
121918,note_on,0,0,0,,7,,,67,127
122101,note_off,183,0,0,,7,,,67,127
122101,note_off,0,0,0,,3,,,75,127
122102,note_on,1,0,0,,5,,,65,127
122102,note_on,0,0,0,,2,,,74,127
122285,note_off,183,0,0,,2,,,74,127
122285,note_off,0,0,0,,5,,,65,127
122285,note_off,0,0,0,,7,,,55,127
122286,note_on,1,0,0,,0,,,72,127
122286,note_on,0,0,0,,3,,,63,127
122469,note_off,183,0,0,,3,,,63,127
122469,note_off,0,0,0,,0,,,72,127
122470,note_on,1,0,0,,11,,,70,127
122470,note_on,0,0,0,,2,,,62,127
122653,note_off,183,0,0,,2,,,62,127
122653,note_off,0,0,0,,11,,,70,127
122654,note_on,1,0,0,,0,,,60,127
122654,note_on,0,0,0,,10,,,69,127
122837,note_off,183,0,0,,10,,,69,127
122837,note_off,0,0,0,,0,,,60,127
122838,note_on,1,0,0,,11,,,58,127
122838,note_on,0,0,0,,7,,,67,127
123021,note_off,183,0,0,,7,,,67,127
123021,note_off,0,0,0,,11,,,58,127
123022,note_on,1,0,0,,2,,,50,127
123022,note_on,0,0,0,,6,,,66,127
123022,note_on,0,0,0,,10,,,57,127
123205,note_off,183,0,0,,2,,,50,127
123206,note_on,1,0,0,,0,,,48,127
123389,note_off,183,0,0,,0,,,48,127
123389,note_off,0,0,0,,10,,,57,127
123389,note_off,0,0,0,,6,,,66,127
123390,note_on,1,0,0,,11,,,46,127
123390,note_on,0,0,0,,11,,,58,127
123390,note_on,0,0,0,,7,,,67,127
123573,note_off,183,0,0,,7,,,67,127
123573,note_off,0,0,0,,11,,,58,127
123573,note_off,0,0,0,,11,,,46,127
123574,note_on,1,0,0,,10,,,45,127
123574,note_on,0,0,0,,10,,,69,127
123574,note_on,0,0,0,,0,,,60,127
123737,note_off,163,0,0,,10,,,45,127
123757,note_off,20,0,0,,0,,,60,127
123757,note_off,0,0,0,,10,,,69,127
123758,note_on,1,0,0,,7,,,55,127
123758,note_on,0,0,0,,11,,,70,127
123758,note_on,0,0,0,,2,,,62,127
123941,note_off,183,0,0,,7,,,55,127
123942,note_on,1,0,0,,5,,,53,127
124125,note_off,183,0,0,,5,,,53,127
124125,note_off,0,0,0,,2,,,62,127
124125,note_off,0,0,0,,11,,,70,127
124126,note_on,1,0,0,,3,,,51,127
124126,note_on,0,0,0,,3,,,63,127
124126,note_on,0,0,0,,0,,,72,127
124309,note_off,183,0,0,,0,,,72,127
124309,note_off,0,0,0,,3,,,63,127
124309,note_off,0,0,0,,3,,,51,127
124310,note_on,1,0,0,,2,,,50,127
124310,note_on,0,0,0,,5,,,65,127
124310,note_on,0,0,0,,2,,,74,127
124474,note_off,164,0,0,,2,,,50,127
124493,note_off,19,0,0,,2,,,74,127
124493,note_off,0,0,0,,5,,,65,127
124494,note_on,1,0,0,,0,,,60,127
124494,note_on,0,0,0,,7,,,67,127
124494,note_on,0,0,0,,3,,,75,127
124677,note_off,183,0,0,,0,,,60,127
124678,note_on,1,0,0,,11,,,58,127
124861,note_off,183,0,0,,11,,,58,127
124861,note_off,0,0,0,,3,,,75,127
124861,note_off,0,0,0,,7,,,67,127
124862,note_on,1,0,0,,10,,,57,127
124862,note_on,0,0,0,,5,,,77,127
124862,note_on,0,0,0,,10,,,69,127
125045,note_off,183,0,0,,10,,,69,127
125045,note_off,0,0,0,,5,,,77,127
125045,note_off,0,0,0,,10,,,57,127
125046,note_on,1,0,0,,7,,,55,127
125046,note_on,0,0,0,,7,,,79,127
125046,note_on,0,0,0,,11,,,70,127
125229,note_off,183,0,0,,11,,,70,127
125229,note_off,0,0,0,,7,,,79,127
125229,note_off,0,0,0,,7,,,55,127
125230,note_on,1,0,0,,5,,,53,127
125230,note_on,0,0,0,,0,,,72,127
125230,note_on,0,0,0,,10,,,81,127
125413,note_off,183,0,0,,5,,,53,127
125414,note_on,1,0,0,,3,,,51,127
125597,note_off,183,0,0,,3,,,51,127
125597,note_off,0,0,0,,10,,,81,127
125597,note_off,0,0,0,,0,,,72,127
125598,note_on,1,0,0,,2,,,50,127
125598,note_on,0,0,0,,11,,,82,127
125598,note_on,0,0,0,,2,,,74,127
125781,note_off,183,0,0,,2,,,74,127
125781,note_off,0,0,0,,11,,,82,127
125781,note_off,0,0,0,,2,,,50,127
125782,note_on,1,0,0,,0,,,48,127
125782,note_on,0,0,0,,0,,,72,127
125782,note_on,0,0,0,,10,,,81,127
125965,note_off,183,0,0,,10,,,81,127
125965,note_off,0,0,0,,0,,,72,127
125965,note_off,0,0,0,,0,,,48,127
125966,note_on,1,0,0,,11,,,46,127
125966,note_on,0,0,0,,2,,,74,127
125966,note_on,0,0,0,,11,,,82,127
126149,note_off,183,0,0,,11,,,82,127
126149,note_off,0,0,0,,2,,,74,127
126150,note_on,1,0,0,,10,,,81,127
126150,note_on,0,0,0,,0,,,72,127
126333,note_off,183,0,0,,0,,,72,127
126333,note_off,0,0,0,,10,,,81,127
126334,note_on,1,0,0,,11,,,70,127
126334,note_on,0,0,0,,7,,,79,127
126517,note_off,183,0,0,,7,,,79,127
126517,note_off,0,0,0,,11,,,70,127
126518,note_on,1,0,0,,5,,,77,127
126518,note_on,0,0,0,,10,,,69,127
126675,note_off,157,0,0,,11,,,46,127
126701,note_off,26,0,0,,10,,,69,127
126701,note_off,0,0,0,,5,,,77,127
126702,note_on,1,0,0,,3,,,51,127
126702,note_on,0,0,0,,3,,,75,127
126702,note_on,0,0,0,,7,,,67,127
126885,note_off,183,0,0,,7,,,67,127
126885,note_off,0,0,0,,3,,,75,127
126886,note_on,1,0,0,,2,,,74,127
126886,note_on,0,0,0,,5,,,65,127
127069,note_off,183,0,0,,5,,,65,127
127069,note_off,0,0,0,,2,,,74,127
127070,note_on,1,0,0,,0,,,72,127
127070,note_on,0,0,0,,3,,,63,127
127253,note_off,183,0,0,,3,,,63,127
127253,note_off,0,0,0,,0,,,72,127
127254,note_on,1,0,0,,11,,,70,127
127254,note_on,0,0,0,,2,,,62,127
127402,note_off,148,0,0,,3,,,51,127
127438,note_off,36,0,0,,2,,,62,127
127438,note_off,0,0,0,,11,,,70,127
127439,note_on,1,0,0,,5,,,53,127
127439,note_on,0,0,0,,0,,,60,127
127439,note_on,0,0,0,,10,,,69,127
127622,note_off,183,0,0,,5,,,53,127
127623,note_on,1,0,0,,7,,,55,127
127806,note_off,183,0,0,,7,,,55,127
127806,note_off,0,0,0,,10,,,69,127
127806,note_off,0,0,0,,0,,,60,127
127807,note_on,1,0,0,,5,,,53,127
127807,note_on,0,0,0,,2,,,62,127
127807,note_on,0,0,0,,12,,,71,127
127990,note_off,183,0,0,,12,,,71,127
127990,note_off,0,0,0,,2,,,62,127
127990,note_off,0,0,0,,5,,,53,127
127991,note_on,1,0,0,,3,,,51,127
127991,note_on,0,0,0,,0,,,72,127
127991,note_on,0,0,0,,3,,,63,127
128174,note_off,183,0,0,,3,,,63,127
128174,note_off,0,0,0,,0,,,72,127
128174,note_off,0,0,0,,3,,,51,127
128175,note_on,1,0,0,,2,,,50,127
128175,note_on,0,0,0,,2,,,74,127
128175,note_on,0,0,0,,5,,,65,127
128358,note_off,183,0,0,,5,,,65,127
128358,note_off,0,0,0,,2,,,74,127
128359,note_on,1,0,0,,3,,,63,127
128359,note_on,0,0,0,,0,,,72,127
128542,note_off,183,0,0,,2,,,50,127
128543,note_on,1,0,0,,7,,,55,127
128726,note_off,183,0,0,,0,,,72,127
128726,note_off,0,0,0,,3,,,63,127
128727,note_on,1,0,0,,2,,,62,127
128727,note_on,0,0,0,,12,,,71,127
128910,note_off,183,0,0,,12,,,71,127
128910,note_off,0,0,0,,2,,,62,127
128910,note_off,0,0,0,,7,,,55,127
128911,note_on,1,0,0,,8,,,56,127
128911,note_on,0,0,0,,0,,,72,127
128911,note_on,0,0,0,,0,,,60,127
129094,note_off,183,0,0,,8,,,56,127
129095,note_on,1,0,0,,7,,,55,127
129278,note_off,183,0,0,,7,,,55,127
129278,note_off,0,0,0,,0,,,60,127
129278,note_off,0,0,0,,0,,,72,127
129279,note_on,1,0,0,,5,,,53,127
129279,note_on,0,0,0,,2,,,74,127
129462,note_off,183,0,0,,2,,,74,127
129462,note_off,0,0,0,,5,,,53,127
129463,note_on,1,0,0,,3,,,51,127
129463,note_on,0,0,0,,3,,,75,127
129646,note_off,183,0,0,,3,,,75,127
129646,note_off,0,0,0,,3,,,51,127
129647,note_on,1,0,0,,2,,,50,127
129647,note_on,0,0,0,,5,,,77,127
129647,note_on,0,0,0,,2,,,74,127
129830,note_off,183,0,0,,2,,,74,127
129830,note_off,0,0,0,,5,,,77,127
129831,note_on,1,0,0,,0,,,72,127
129831,note_on,0,0,0,,3,,,75,127
130014,note_off,183,0,0,,2,,,50,127
130015,note_on,1,0,0,,7,,,55,127
130198,note_off,183,0,0,,3,,,75,127
130198,note_off,0,0,0,,0,,,72,127
130199,note_on,1,0,0,,2,,,74,127
130199,note_on,0,0,0,,12,,,71,127
130382,note_off,183,0,0,,12,,,71,127
130382,note_off,0,0,0,,2,,,74,127
130382,note_off,0,0,0,,7,,,55,127
130383,note_on,1,0,0,,0,,,48,127
130383,note_on,0,0,0,,0,,,60,127
130383,note_on,0,0,0,,3,,,75,127
130383,note_on,0,0,0,,0,,,72,127
130566,note_off,183,0,0,,0,,,72,127
130566,note_off,0,0,0,,3,,,75,127
130566,note_off,0,0,0,,0,,,60,127
130566,note_off,0,0,0,,0,,,48,127
130567,note_on,1,0,0,,11,,,58,127
130567,note_on,0,0,0,,2,,,74,127
130750,note_off,183,0,0,,2,,,74,127
130750,note_off,0,0,0,,11,,,58,127
130751,note_on,1,0,0,,10,,,57,127
130751,note_on,0,0,0,,0,,,72,127
130934,note_off,183,0,0,,0,,,72,127
130934,note_off,0,0,0,,10,,,57,127
130935,note_on,1,0,0,,7,,,55,127
130935,note_on,0,0,0,,11,,,70,127
131118,note_off,183,0,0,,11,,,70,127
131118,note_off,0,0,0,,7,,,55,127
131119,note_on,1,0,0,,5,,,53,127
131119,note_on,0,0,0,,5,,,65,127
131119,note_on,0,0,0,,10,,,69,127
131119,note_on,0,0,0,,5,,,77,127
131302,note_off,183,0,0,,10,,,69,127
131302,note_off,0,0,0,,5,,,65,127
131302,note_off,0,0,0,,5,,,53,127
131303,note_on,1,0,0,,3,,,63,127
131303,note_on,0,0,0,,7,,,67,127
131486,note_off,183,0,0,,7,,,67,127
131486,note_off,0,0,0,,3,,,63,127
131487,note_on,1,0,0,,2,,,62,127
131487,note_on,0,0,0,,5,,,65,127
131670,note_off,183,0,0,,2,,,62,127
131670,note_off,0,0,0,,5,,,77,127
131671,note_on,1,0,0,,0,,,60,127
131671,note_on,0,0,0,,3,,,75,127
131854,note_off,183,0,0,,3,,,75,127
131854,note_off,0,0,0,,0,,,60,127
131855,note_on,1,0,0,,11,,,58,127
131855,note_on,0,0,0,,2,,,74,127
132038,note_off,183,0,0,,11,,,58,127
132039,note_on,1,0,0,,10,,,57,127
132222,note_off,183,0,0,,10,,,57,127
132222,note_off,0,0,0,,2,,,74,127
132222,note_off,0,0,0,,5,,,65,127
132223,note_on,1,0,0,,7,,,55,127
132223,note_on,0,0,0,,1,,,73,127
132223,note_on,0,0,0,,4,,,64,127
132406,note_off,183,0,0,,4,,,64,127
132406,note_off,0,0,0,,1,,,73,127
132406,note_off,0,0,0,,7,,,55,127
132407,note_on,1,0,0,,5,,,53,127
132407,note_on,0,0,0,,2,,,74,127
132407,note_on,0,0,0,,5,,,65,127
132590,note_off,183,0,0,,5,,,65,127
132590,note_off,0,0,0,,2,,,74,127
132590,note_off,0,0,0,,5,,,53,127
132591,note_on,1,0,0,,4,,,52,127
132591,note_on,0,0,0,,4,,,76,127
132591,note_on,0,0,0,,7,,,67,127
132774,note_off,183,0,0,,7,,,67,127
132774,note_off,0,0,0,,4,,,76,127
132775,note_on,1,0,0,,2,,,74,127
132775,note_on,0,0,0,,5,,,65,127
132958,note_off,183,0,0,,4,,,52,127
132959,note_on,1,0,0,,10,,,57,127
133142,note_off,183,0,0,,5,,,65,127
133142,note_off,0,0,0,,2,,,74,127
133143,note_on,1,0,0,,1,,,73,127
133143,note_on,0,0,0,,4,,,64,127
133326,note_off,183,0,0,,4,,,64,127
133326,note_off,0,0,0,,1,,,73,127
133326,note_off,0,0,0,,10,,,57,127
133327,note_on,1,0,0,,11,,,58,127
133327,note_on,0,0,0,,2,,,62,127
133327,note_on,0,0,0,,2,,,74,127
133510,note_off,183,0,0,,11,,,58,127
133511,note_on,1,0,0,,10,,,57,127
133694,note_off,183,0,0,,10,,,57,127
133694,note_off,0,0,0,,2,,,74,127
133694,note_off,0,0,0,,2,,,62,127
133695,note_on,1,0,0,,7,,,55,127
133695,note_on,0,0,0,,4,,,76,127
133878,note_off,183,0,0,,4,,,76,127
133878,note_off,0,0,0,,7,,,55,127
133879,note_on,1,0,0,,5,,,53,127
133879,note_on,0,0,0,,5,,,77,127
134062,note_off,183,0,0,,5,,,77,127
134062,note_off,0,0,0,,5,,,53,127
134063,note_on,1,0,0,,4,,,52,127
134063,note_on,0,0,0,,7,,,79,127
134063,note_on,0,0,0,,4,,,76,127
134246,note_off,183,0,0,,4,,,76,127
134246,note_off,0,0,0,,7,,,79,127
134247,note_on,1,0,0,,5,,,77,127
134247,note_on,0,0,0,,2,,,74,127
134430,note_off,183,0,0,,4,,,52,127
134431,note_on,1,0,0,,10,,,57,127
134614,note_off,183,0,0,,2,,,74,127
134614,note_off,0,0,0,,5,,,77,127
134615,note_on,1,0,0,,1,,,73,127
134615,note_on,0,0,0,,4,,,76,127
134798,note_off,183,0,0,,4,,,76,127
134798,note_off,0,0,0,,1,,,73,127
134798,note_off,0,0,0,,10,,,57,127
134799,note_on,1,0,0,,2,,,62,127
134799,note_on,0,0,0,,6,,,78,127
134799,note_on,0,0,0,,2,,,74,127
134982,note_off,183,0,0,,2,,,62,127
134983,note_on,1,0,0,,0,,,60,127
135166,note_off,183,0,0,,0,,,60,127
135166,note_off,0,0,0,,2,,,74,127
135166,note_off,0,0,0,,6,,,78,127
135167,note_on,1,0,0,,11,,,58,127
135167,note_on,0,0,0,,7,,,79,127
135167,note_on,0,0,0,,4,,,76,127
135350,note_off,183,0,0,,4,,,76,127
135350,note_off,0,0,0,,7,,,79,127
135350,note_off,0,0,0,,11,,,58,127
135351,note_on,1,0,0,,10,,,57,127
135351,note_on,0,0,0,,5,,,77,127
135351,note_on,0,0,0,,10,,,81,127
135514,note_off,163,0,0,,10,,,57,127
135534,note_off,20,0,0,,10,,,81,127
135534,note_off,0,0,0,,5,,,77,127
135535,note_on,1,0,0,,7,,,67,127
135535,note_on,0,0,0,,11,,,82,127
135718,note_off,183,0,0,,11,,,82,127
135718,note_off,0,0,0,,7,,,67,127
135719,note_on,1,0,0,,5,,,65,127
135719,note_on,0,0,0,,10,,,81,127
135902,note_off,183,0,0,,10,,,81,127
135902,note_off,0,0,0,,5,,,65,127
135903,note_on,1,0,0,,3,,,63,127
135903,note_on,0,0,0,,7,,,79,127
136086,note_off,183,0,0,,7,,,79,127
136086,note_off,0,0,0,,3,,,63,127
136087,note_on,1,0,0,,2,,,62,127
136087,note_on,0,0,0,,5,,,77,127
136270,note_off,183,0,0,,5,,,77,127
136270,note_off,0,0,0,,2,,,62,127
136271,note_on,1,0,0,,0,,,72,127
136271,note_on,0,0,0,,0,,,60,127
136271,note_on,0,0,0,,0,,,84,127
136271,note_on,0,0,0,,3,,,75,127
136454,note_off,183,0,0,,3,,,75,127
136454,note_off,0,0,0,,0,,,60,127
136454,note_off,0,0,0,,0,,,72,127
136455,note_on,1,0,0,,11,,,70,127
136455,note_on,0,0,0,,2,,,74,127
136638,note_off,183,0,0,,2,,,74,127
136638,note_off,0,0,0,,11,,,70,127
136639,note_on,1,0,0,,10,,,69,127
136639,note_on,0,0,0,,0,,,72,127
136822,note_off,183,0,0,,10,,,69,127
136822,note_off,0,0,0,,0,,,84,127
136823,note_on,1,0,0,,7,,,67,127
136823,note_on,0,0,0,,11,,,82,127
137003,note_off,180,0,0,,0,,,72,127
137006,note_off,3,0,0,,11,,,82,127
137006,note_off,0,0,0,,7,,,67,127
137007,note_on,1,0,0,,5,,,65,127
137007,note_on,0,0,0,,10,,,81,127
137190,note_off,183,0,0,,10,,,81,127
137190,note_off,0,0,0,,5,,,65,127
137191,note_on,1,0,0,,3,,,63,127
137191,note_on,0,0,0,,7,,,79,127
137374,note_off,183,0,0,,7,,,79,127
137374,note_off,0,0,0,,3,,,63,127
137375,note_on,1,0,0,,2,,,62,127
137375,note_on,0,0,0,,5,,,77,127
137558,note_off,183,0,0,,5,,,77,127
137558,note_off,0,0,0,,2,,,62,127
137559,note_on,1,0,0,,0,,,60,127
137559,note_on,0,0,0,,3,,,75,127
137742,note_off,183,0,0,,3,,,75,127
137742,note_off,0,0,0,,0,,,60,127
137743,note_on,1,0,0,,11,,,58,127
137743,note_on,0,0,0,,11,,,70,127
137743,note_on,0,0,0,,11,,,82,127
137743,note_on,0,0,0,,2,,,74,127
137926,note_off,183,0,0,,2,,,74,127
137926,note_off,0,0,0,,11,,,70,127
137926,note_off,0,0,0,,11,,,58,127
137927,note_on,1,0,0,,10,,,69,127
137927,note_on,0,0,0,,0,,,72,127
138110,note_off,183,0,0,,0,,,72,127
138110,note_off,0,0,0,,10,,,69,127
138111,note_on,1,0,0,,7,,,67,127
138111,note_on,0,0,0,,11,,,70,127
138294,note_off,183,0,0,,7,,,67,127
138294,note_off,0,0,0,,11,,,82,127
138295,note_on,1,0,0,,5,,,65,127
138295,note_on,0,0,0,,10,,,81,127
138475,note_off,180,0,0,,11,,,70,127
138478,note_off,3,0,0,,10,,,81,127
138478,note_off,0,0,0,,5,,,65,127
138479,note_on,1,0,0,,3,,,63,127
138479,note_on,0,0,0,,7,,,79,127
138662,note_off,183,0,0,,7,,,79,127
138662,note_off,0,0,0,,3,,,63,127
138663,note_on,1,0,0,,2,,,62,127
138663,note_on,0,0,0,,5,,,77,127
138846,note_off,183,0,0,,5,,,77,127
138846,note_off,0,0,0,,2,,,62,127
138847,note_on,1,0,0,,0,,,60,127
138847,note_on,0,0,0,,3,,,75,127
139030,note_off,183,0,0,,3,,,75,127
139030,note_off,0,0,0,,0,,,60,127
139031,note_on,1,0,0,,11,,,58,127
139031,note_on,0,0,0,,2,,,74,127
139214,note_off,183,0,0,,2,,,74,127
139214,note_off,0,0,0,,11,,,58,127
139215,note_on,1,0,0,,10,,,57,127
139215,note_on,0,0,0,,10,,,69,127
139215,note_on,0,0,0,,10,,,81,127
139215,note_on,0,0,0,,0,,,72,127
139398,note_off,183,0,0,,0,,,72,127
139398,note_off,0,0,0,,10,,,69,127
139398,note_off,0,0,0,,10,,,57,127
139399,note_on,1,0,0,,7,,,67,127
139399,note_on,0,0,0,,11,,,70,127
139582,note_off,183,0,0,,11,,,70,127
139582,note_off,0,0,0,,7,,,67,127
139583,note_on,1,0,0,,6,,,66,127
139583,note_on,0,0,0,,10,,,69,127
139766,note_off,183,0,0,,10,,,69,127
139766,note_off,0,0,0,,6,,,66,127
139766,note_off,0,0,0,,10,,,81,127
139767,note_on,1,0,0,,4,,,64,127
139767,note_on,0,0,0,,7,,,79,127
139950,note_off,183,0,0,,7,,,79,127
139950,note_off,0,0,0,,4,,,64,127
139951,note_on,1,0,0,,2,,,62,127
139951,note_on,0,0,0,,6,,,78,127
140134,note_off,183,0,0,,6,,,78,127
140134,note_off,0,0,0,,2,,,62,127
140135,note_on,1,0,0,,0,,,60,127
140135,note_on,0,0,0,,3,,,75,127
140318,note_off,183,0,0,,3,,,75,127
140318,note_off,0,0,0,,0,,,60,127
140319,note_on,1,0,0,,11,,,58,127
140319,note_on,0,0,0,,2,,,74,127
140502,note_off,183,0,0,,2,,,74,127
140502,note_off,0,0,0,,11,,,58,127
140503,note_on,1,0,0,,10,,,57,127
140503,note_on,0,0,0,,0,,,72,127
140686,note_off,183,0,0,,0,,,72,127
140686,note_off,0,0,0,,10,,,57,127
140687,note_on,1,0,0,,7,,,55,127
140687,note_on,0,0,0,,7,,,79,127
140687,note_on,0,0,0,,11,,,70,127
140870,note_off,183,0,0,,11,,,70,127
140870,note_off,0,0,0,,7,,,55,127
140871,note_on,1,0,0,,5,,,53,127
140871,note_on,0,0,0,,10,,,69,127
141054,note_off,183,0,0,,10,,,69,127
141054,note_off,0,0,0,,5,,,53,127
141055,note_on,1,0,0,,3,,,51,127
141055,note_on,0,0,0,,7,,,67,127
141238,note_off,183,0,0,,3,,,51,127
141238,note_off,0,0,0,,7,,,79,127
141239,note_on,1,0,0,,2,,,50,127
141239,note_on,0,0,0,,5,,,77,127
141419,note_off,180,0,0,,7,,,67,127
141422,note_off,3,0,0,,5,,,77,127
141422,note_off,0,0,0,,2,,,50,127
141423,note_on,1,0,0,,0,,,48,127
141423,note_on,0,0,0,,0,,,72,127
141423,note_on,0,0,0,,3,,,75,127
141606,note_off,183,0,0,,3,,,75,127
141606,note_off,0,0,0,,0,,,72,127
141607,note_on,1,0,0,,11,,,70,127
141607,note_on,0,0,0,,2,,,74,127
141790,note_off,183,0,0,,2,,,74,127
141790,note_off,0,0,0,,11,,,70,127
141791,note_on,1,0,0,,10,,,69,127
141791,note_on,0,0,0,,0,,,72,127
141974,note_off,183,0,0,,0,,,72,127
141974,note_off,0,0,0,,10,,,69,127
141975,note_on,1,0,0,,7,,,67,127
141975,note_on,0,0,0,,11,,,70,127
142158,note_off,183,0,0,,11,,,70,127
142158,note_off,0,0,0,,7,,,67,127
142158,note_off,0,0,0,,0,,,48,127
142159,note_on,1,0,0,,2,,,50,127
142159,note_on,0,0,0,,6,,,66,127
142159,note_on,0,0,0,,10,,,69,127
142342,note_off,183,0,0,,6,,,66,127
142342,note_off,0,0,0,,2,,,50,127
142343,note_on,1,0,0,,0,,,48,127
142343,note_on,0,0,0,,4,,,64,127
142523,note_off,180,0,0,,10,,,69,127
142526,note_off,3,0,0,,4,,,64,127
142526,note_off,0,0,0,,0,,,48,127
142527,note_on,1,0,0,,11,,,46,127
142527,note_on,0,0,0,,2,,,74,127
142527,note_on,0,0,0,,2,,,62,127
142710,note_off,183,0,0,,2,,,74,127
142710,note_off,0,0,0,,11,,,46,127
142711,note_on,1,0,0,,10,,,45,127
142711,note_on,0,0,0,,0,,,72,127
142891,note_off,180,0,0,,2,,,62,127
142894,note_off,3,0,0,,0,,,72,127
142894,note_off,0,0,0,,10,,,45,127
142895,note_on,1,0,0,,7,,,43,127
142895,note_on,0,0,0,,11,,,70,127
143078,note_off,183,0,0,,11,,,70,127
143079,note_on,1,0,0,,10,,,69,127
143262,note_off,183,0,0,,10,,,69,127
143263,note_on,1,0,0,,7,,,67,127
143446,note_off,183,0,0,,7,,,67,127
143447,note_on,1,0,0,,11,,,70,127
143630,note_off,183,0,0,,11,,,70,127
143630,note_off,0,0,0,,7,,,43,127
143631,note_on,1,0,0,,2,,,50,127
143631,note_on,0,0,0,,10,,,69,127
143815,note_on,184,0,0,,0,,,72,127
143995,note_off,180,0,0,,10,,,69,127
143998,note_off,3,0,0,,0,,,72,127
143999,note_on,1,0,0,,7,,,67,127
143999,note_on,0,0,0,,11,,,70,127
144182,note_off,183,0,0,,11,,,70,127
144182,note_off,0,0,0,,7,,,67,127
144183,note_on,1,0,0,,6,,,66,127
144183,note_on,0,0,0,,10,,,69,127
144366,note_off,183,0,0,,10,,,69,127
144366,note_off,0,0,0,,6,,,66,127
144366,note_off,0,0,0,,2,,,50,127
144367,note_on,1,0,0,,7,,,55,127
144367,note_on,0,0,0,,7,,,79,127
144367,note_on,0,0,0,,11,,,70,127
144550,note_off,183,0,0,,11,,,70,127
144551,note_on,1,0,0,,10,,,69,127
144734,note_off,183,0,0,,10,,,69,127
144735,note_on,1,0,0,,7,,,67,127
144918,note_off,183,0,0,,7,,,67,127
144919,note_on,1,0,0,,11,,,70,127
145102,note_off,183,0,0,,11,,,70,127
145102,note_off,0,0,0,,7,,,79,127
145102,note_off,0,0,0,,7,,,55,127
145103,note_on,1,0,0,,2,,,62,127
145103,note_on,0,0,0,,6,,,78,127
145103,note_on,0,0,0,,10,,,69,127
145286,note_off,183,0,0,,10,,,69,127
145286,note_off,0,0,0,,6,,,78,127
145287,note_on,1,0,0,,10,,,81,127
145287,note_on,0,0,0,,0,,,72,127
145470,note_off,183,0,0,,0,,,72,127
145470,note_off,0,0,0,,10,,,81,127
145471,note_on,1,0,0,,11,,,70,127
145471,note_on,0,0,0,,7,,,79,127
145654,note_off,183,0,0,,7,,,79,127
145654,note_off,0,0,0,,11,,,70,127
145655,note_on,1,0,0,,10,,,69,127
145655,note_on,0,0,0,,6,,,78,127
145838,note_off,183,0,0,,6,,,78,127
145838,note_off,0,0,0,,10,,,69,127
145838,note_off,0,0,0,,2,,,62,127
145839,note_on,1,0,0,,7,,,67,127
146023,note_on,184,0,0,,3,,,63,127
146206,note_off,183,0,0,,3,,,63,127
146207,note_on,1,0,0,,2,,,62,127
146390,note_off,183,0,0,,2,,,62,127
146391,note_on,1,0,0,,0,,,60,127
146574,note_off,183,0,0,,0,,,60,127
146574,note_off,0,0,0,,7,,,67,127
146575,note_on,1,0,0,,2,,,62,127
146575,note_on,0,0,0,,2,,,74,127
146758,note_off,183,0,0,,2,,,62,127
146759,note_on,1,0,0,,0,,,60,127
146942,note_off,183,0,0,,0,,,60,127
146943,note_on,1,0,0,,11,,,58,127
147126,note_off,183,0,0,,11,,,58,127
147127,note_on,1,0,0,,10,,,57,127
147310,note_off,183,0,0,,10,,,57,127
147310,note_off,0,0,0,,2,,,74,127
147311,note_on,1,0,0,,7,,,55,127
147311,note_on,0,0,0,,11,,,70,127
147494,note_off,183,0,0,,7,,,55,127
147495,note_on,1,0,0,,5,,,53,127
147678,note_off,183,0,0,,5,,,53,127
147678,note_off,0,0,0,,11,,,70,127
147679,note_on,1,0,0,,3,,,51,127
147679,note_on,0,0,0,,7,,,67,127
147862,note_off,183,0,0,,3,,,51,127
147863,note_on,1,0,0,,2,,,50,127
148046,note_off,183,0,0,,2,,,50,127
148046,note_off,0,0,0,,7,,,67,127
148047,note_on,1,0,0,,5,,,65,127
148047,note_on,0,0,0,,0,,,48,127
148176,note_on,129,0,0,,3,,,63,127
148230,note_off,54,0,0,,5,,,65,127
148231,note_off,1,0,0,,0,,,48,127
148232,note_on,1,0,0,,11,,,46,127
148245,note_on,13,0,0,,5,,,65,127
148267,note_off,22,0,0,,3,,,63,127
148314,note_on,47,0,0,,3,,,63,127
148336,note_off,22,0,0,,5,,,65,127
148383,note_on,47,0,0,,5,,,65,127
148405,note_off,22,0,0,,3,,,63,127
148415,note_off,10,0,0,,11,,,46,127
148416,note_on,1,0,0,,10,,,45,127
148452,note_on,36,0,0,,3,,,63,127
148474,note_off,22,0,0,,5,,,65,127
148521,note_on,47,0,0,,5,,,65,127
148543,note_off,22,0,0,,3,,,63,127
148588,note_on,45,0,0,,3,,,63,127
148599,note_off,11,0,0,,10,,,45,127
148600,note_on,1,0,0,,7,,,43,127
148612,note_off,12,0,0,,5,,,65,127
148655,note_on,43,0,0,,5,,,65,127
148679,note_off,24,0,0,,3,,,63,127
148722,note_on,43,0,0,,3,,,63,127
148746,note_off,24,0,0,,5,,,65,127
148782,note_off,36,0,0,,7,,,43,127
148783,note_on,1,0,0,,6,,,42,127
148783,note_on,0,0,0,,2,,,62,127
148813,note_off,30,0,0,,3,,,63,127
148967,note_off,154,0,0,,2,,,62,127
148968,note_on,1,0,0,,4,,,64,127
149151,note_off,183,0,0,,4,,,64,127
149151,note_off,0,0,0,,6,,,42,127
149152,note_on,1,0,0,,2,,,38,127
149152,note_on,0,0,0,,2,,,62,127
149152,note_on,0,0,0,,6,,,66,127
149333,note_off,181,0,0,,6,,,66,127
149333,note_off,0,0,0,,2,,,62,127
149336,note_on,3,0,0,,7,,,67,127
149336,note_on,0,0,0,,4,,,64,127
149517,note_off,181,0,0,,4,,,64,127
149517,note_off,0,0,0,,7,,,67,127
149519,note_off,2,0,0,,2,,,38,127
149520,note_on,1,0,0,,2,,,38,127
149520,note_on,0,0,0,,6,,,66,127
149520,note_on,0,0,0,,10,,,69,127
149701,note_off,181,0,0,,10,,,69,127
149701,note_off,0,0,0,,6,,,66,127
149704,note_on,3,0,0,,11,,,70,127
149704,note_on,0,0,0,,7,,,67,127
149885,note_off,181,0,0,,7,,,67,127
149885,note_off,0,0,0,,11,,,70,127
149887,note_off,2,0,0,,2,,,38,127
149888,note_on,1,0,0,,2,,,38,127
149888,note_on,0,0,0,,10,,,69,127
149888,note_on,0,0,0,,0,,,72,127
150067,note_off,179,0,0,,0,,,72,127
150067,note_off,0,0,0,,10,,,69,127
150073,note_on,6,0,0,,10,,,69,127
150073,note_on,0,0,0,,6,,,66,127
150252,note_off,179,0,0,,6,,,66,127
150252,note_off,0,0,0,,10,,,69,127
150257,note_off,5,0,0,,2,,,38,127
150258,note_on,1,0,0,,2,,,38,127
150258,note_on,0,0,0,,7,,,67,127
150258,note_on,0,0,0,,11,,,70,127
150437,note_off,179,0,0,,11,,,70,127
150437,note_off,0,0,0,,7,,,67,127
150443,note_on,6,0,0,,0,,,72,127
150443,note_on,0,0,0,,10,,,69,127
150622,note_off,179,0,0,,10,,,69,127
150622,note_off,0,0,0,,0,,,72,127
150627,note_off,5,0,0,,2,,,38,127
150628,note_on,1,0,0,,2,,,38,127
150628,note_on,0,0,0,,2,,,74,127
150628,note_on,0,0,0,,11,,,70,127
150807,note_off,179,0,0,,11,,,70,127
150807,note_off,0,0,0,,2,,,74,127
150813,note_on,6,0,0,,4,,,76,127
150813,note_on,0,0,0,,7,,,67,127
150992,note_off,179,0,0,,7,,,67,127
150992,note_off,0,0,0,,4,,,76,127
150997,note_off,5,0,0,,2,,,38,127
150998,note_on,1,0,0,,2,,,38,127
150998,note_on,0,0,0,,10,,,69,127
150998,note_on,0,0,0,,6,,,78,127
151177,note_off,179,0,0,,6,,,78,127
151177,note_off,0,0,0,,10,,,69,127
151183,note_on,6,0,0,,11,,,70,127
151183,note_on,0,0,0,,7,,,79,127
151362,note_off,179,0,0,,7,,,79,127
151362,note_off,0,0,0,,11,,,70,127
151367,note_off,5,0,0,,2,,,38,127
151368,note_on,1,0,0,,2,,,38,127
151368,note_on,0,0,0,,0,,,72,127
151368,note_on,0,0,0,,10,,,81,127
151547,note_off,179,0,0,,10,,,81,127
151547,note_off,0,0,0,,0,,,72,127
151553,note_on,6,0,0,,10,,,69,127
151553,note_on,0,0,0,,6,,,78,127
151732,note_off,179,0,0,,6,,,78,127
151732,note_off,0,0,0,,10,,,69,127
151737,note_off,5,0,0,,2,,,38,127
151738,note_on,1,0,0,,2,,,38,127
151738,note_on,0,0,0,,7,,,79,127
151738,note_on,0,0,0,,11,,,70,127
151917,note_off,179,0,0,,11,,,70,127
151917,note_off,0,0,0,,7,,,79,127
151923,note_on,6,0,0,,10,,,81,127
151923,note_on,0,0,0,,0,,,72,127
152102,note_off,179,0,0,,0,,,72,127
152102,note_off,0,0,0,,10,,,81,127
152107,note_off,5,0,0,,2,,,38,127
152108,note_on,1,0,0,,2,,,38,127
152108,note_on,0,0,0,,2,,,74,127
152108,note_on,0,0,0,,11,,,82,127
152287,note_off,179,0,0,,11,,,82,127
152287,note_off,0,0,0,,2,,,74,127
152293,note_on,6,0,0,,4,,,76,127
152293,note_on,0,0,0,,7,,,79,127
152472,note_off,179,0,0,,7,,,79,127
152472,note_off,0,0,0,,4,,,76,127
152477,note_off,5,0,0,,2,,,38,127
152478,note_on,1,0,0,,2,,,38,127
152478,note_on,0,0,0,,10,,,81,127
152478,note_on,0,0,0,,6,,,78,127
152657,note_off,179,0,0,,6,,,78,127
152657,note_off,0,0,0,,10,,,81,127
152663,note_on,6,0,0,,7,,,79,127
152663,note_on,0,0,0,,11,,,82,127
152842,note_off,179,0,0,,11,,,82,127
152842,note_off,0,0,0,,7,,,79,127
152847,note_off,5,0,0,,2,,,38,127
152848,note_on,1,0,0,,2,,,38,127
152848,note_on,0,0,0,,0,,,84,127
152848,note_on,0,0,0,,10,,,81,127
153027,note_off,179,0,0,,10,,,81,127
153027,note_off,0,0,0,,0,,,84,127
153033,note_on,6,0,0,,10,,,81,127
153033,note_on,0,0,0,,6,,,78,127
153212,note_off,179,0,0,,6,,,78,127
153212,note_off,0,0,0,,10,,,81,127
153217,note_off,5,0,0,,2,,,38,127
153218,note_on,1,0,0,,2,,,38,127
153218,note_on,0,0,0,,11,,,82,127
153218,note_on,0,0,0,,7,,,79,127
153395,note_off,177,0,0,,7,,,79,127
153395,note_off,0,0,0,,11,,,82,127
153403,note_on,8,0,0,,10,,,81,127
153403,note_on,0,0,0,,5,,,77,127
153580,note_off,177,0,0,,5,,,77,127
153580,note_off,0,0,0,,10,,,81,127
153587,note_off,7,0,0,,2,,,38,127
153588,note_on,1,0,0,,2,,,38,127
153588,note_on,0,0,0,,3,,,75,127
153588,note_on,0,0,0,,7,,,79,127
153765,note_off,177,0,0,,7,,,79,127
153765,note_off,0,0,0,,3,,,75,127
153773,note_on,8,0,0,,11,,,82,127
153773,note_on,0,0,0,,2,,,74,127
153950,note_off,177,0,0,,2,,,74,127
153950,note_off,0,0,0,,11,,,82,127
153957,note_off,7,0,0,,2,,,38,127
153958,note_on,1,0,0,,2,,,38,127
153958,note_on,0,0,0,,10,,,81,127
153958,note_on,0,0,0,,0,,,72,127
154135,note_off,177,0,0,,0,,,72,127
154135,note_off,0,0,0,,10,,,81,127
154143,note_on,8,0,0,,7,,,79,127
154143,note_on,0,0,0,,3,,,75,127
154320,note_off,177,0,0,,3,,,75,127
154320,note_off,0,0,0,,7,,,79,127
154327,note_off,7,0,0,,2,,,38,127
154328,note_on,1,0,0,,2,,,38,127
154328,note_on,0,0,0,,2,,,74,127
154328,note_on,0,0,0,,6,,,78,127
154505,note_off,177,0,0,,6,,,78,127
154505,note_off,0,0,0,,2,,,74,127
154513,note_on,8,0,0,,10,,,81,127
154513,note_on,0,0,0,,0,,,72,127
154690,note_off,177,0,0,,0,,,72,127
154690,note_off,0,0,0,,10,,,81,127
154697,note_off,7,0,0,,2,,,38,127
154698,note_on,1,0,0,,2,,,38,127
154698,note_on,0,0,0,,11,,,70,127
154698,note_on,0,0,0,,7,,,79,127
154871,note_off,173,0,0,,7,,,79,127
154871,note_off,0,0,0,,11,,,70,127
154883,note_on,12,0,0,,5,,,77,127
154883,note_on,0,0,0,,10,,,69,127
155056,note_off,173,0,0,,10,,,69,127
155056,note_off,0,0,0,,5,,,77,127
155067,note_off,11,0,0,,2,,,38,127
155068,note_on,1,0,0,,2,,,38,127
155068,note_on,0,0,0,,3,,,75,127
155068,note_on,0,0,0,,7,,,67,127
155241,note_off,173,0,0,,7,,,67,127
155241,note_off,0,0,0,,3,,,75,127
155253,note_on,12,0,0,,11,,,70,127
155253,note_on,0,0,0,,2,,,74,127
155426,note_off,173,0,0,,2,,,74,127
155426,note_off,0,0,0,,11,,,70,127
155437,note_off,11,0,0,,2,,,38,127
155438,note_on,1,0,0,,2,,,38,127
155438,note_on,0,0,0,,10,,,69,127
155438,note_on,0,0,0,,1,,,73,127
155611,note_off,173,0,0,,1,,,73,127
155611,note_off,0,0,0,,10,,,69,127
155623,note_on,12,0,0,,7,,,67,127
155623,note_on,0,0,0,,4,,,76,127
155796,note_off,173,0,0,,4,,,76,127
155796,note_off,0,0,0,,7,,,67,127
155807,note_off,11,0,0,,2,,,38,127
155808,note_on,1,0,0,,2,,,38,127
155808,note_on,0,0,0,,6,,,66,127
155808,note_on,0,0,0,,2,,,74,127
155981,note_off,173,0,0,,2,,,74,127
155981,note_off,0,0,0,,6,,,66,127
155993,note_on,12,0,0,,10,,,69,127
155993,note_on,0,0,0,,0,,,72,127
156166,note_off,173,0,0,,0,,,72,127
156166,note_off,0,0,0,,10,,,69,127
156177,note_off,11,0,0,,2,,,38,127
156178,note_on,1,0,0,,2,,,38,127
156178,note_on,0,0,0,,11,,,70,127
156178,note_on,0,0,0,,7,,,67,127
156349,note_off,171,0,0,,7,,,67,127
156349,note_off,0,0,0,,11,,,70,127
156362,note_on,13,0,0,,10,,,69,127
156362,note_on,0,0,0,,5,,,65,127
156533,note_off,171,0,0,,5,,,65,127
156533,note_off,0,0,0,,10,,,69,127
156545,note_off,12,0,0,,2,,,38,127
156546,note_on,1,0,0,,2,,,38,127
156546,note_on,0,0,0,,7,,,67,127
156546,note_on,0,0,0,,3,,,63,127
156717,note_off,171,0,0,,3,,,63,127
156717,note_off,0,0,0,,7,,,67,127
156730,note_on,13,0,0,,11,,,70,127
156730,note_on,0,0,0,,2,,,62,127
156901,note_off,171,0,0,,2,,,62,127
156901,note_off,0,0,0,,11,,,70,127
156913,note_off,12,0,0,,2,,,38,127
156914,note_on,1,0,0,,2,,,38,127
156914,note_on,0,0,0,,10,,,69,127
156914,note_on,0,0,0,,0,,,60,127
157085,note_off,171,0,0,,0,,,60,127
157085,note_off,0,0,0,,10,,,69,127
157098,note_on,13,0,0,,7,,,67,127
157098,note_on,0,0,0,,3,,,63,127
157269,note_off,171,0,0,,3,,,63,127
157269,note_off,0,0,0,,7,,,67,127
157281,note_off,12,0,0,,2,,,38,127
157282,note_on,1,0,0,,2,,,38,127
157282,note_on,0,0,0,,6,,,66,127
157282,note_on,0,0,0,,2,,,62,127
157453,note_off,171,0,0,,2,,,62,127
157453,note_off,0,0,0,,6,,,66,127
157466,note_on,13,0,0,,0,,,60,127
157466,note_on,0,0,0,,10,,,69,127
157637,note_off,171,0,0,,10,,,69,127
157637,note_off,0,0,0,,0,,,60,127
157649,note_off,12,0,0,,2,,,38,127
157650,note_on,1,0,0,,2,,,38,127
157650,note_on,0,0,0,,11,,,58,127
157650,note_on,0,0,0,,7,,,67,127
157819,note_off,169,0,0,,7,,,67,127
157819,note_off,0,0,0,,11,,,58,127
157834,note_on,15,0,0,,5,,,65,127
157834,note_on,0,0,0,,10,,,57,127
158003,note_off,169,0,0,,10,,,57,127
158003,note_off,0,0,0,,5,,,65,127
158017,note_off,14,0,0,,2,,,38,127
158018,note_on,1,0,0,,2,,,38,127
158018,note_on,0,0,0,,3,,,63,127
158018,note_on,0,0,0,,7,,,55,127
158187,note_off,169,0,0,,7,,,55,127
158187,note_off,0,0,0,,3,,,63,127
158202,note_on,15,0,0,,11,,,58,127
158202,note_on,0,0,0,,2,,,62,127
158371,note_off,169,0,0,,2,,,62,127
158371,note_off,0,0,0,,11,,,58,127
158385,note_off,14,0,0,,2,,,38,127
158386,note_on,1,0,0,,2,,,38,127
158386,note_on,0,0,0,,10,,,57,127
158386,note_on,0,0,0,,1,,,61,127
158555,note_off,169,0,0,,1,,,61,127
158555,note_off,0,0,0,,10,,,57,127
158570,note_on,15,0,0,,7,,,55,127
158570,note_on,0,0,0,,4,,,64,127
158739,note_off,169,0,0,,4,,,64,127
158739,note_off,0,0,0,,7,,,55,127
158753,note_off,14,0,0,,2,,,38,127
158754,note_on,1,0,0,,2,,,38,127
158754,note_on,0,0,0,,2,,,62,127
158754,note_on,0,0,0,,6,,,54,127
158923,note_off,169,0,0,,6,,,54,127
158923,note_off,0,0,0,,2,,,62,127
158938,note_on,15,0,0,,0,,,60,127
158938,note_on,0,0,0,,10,,,57,127
159107,note_off,169,0,0,,10,,,57,127
159107,note_off,0,0,0,,0,,,60,127
159121,note_off,14,0,0,,2,,,38,127
159122,note_on,1,0,0,,2,,,38,127
159122,note_on,0,0,0,,11,,,58,127
159122,note_on,0,0,0,,7,,,55,127
159283,note_off,161,0,0,,7,,,55,127
159283,note_off,0,0,0,,11,,,58,127
159306,note_on,23,0,0,,0,,,60,127
159306,note_on,0,0,0,,10,,,57,127
159467,note_off,161,0,0,,10,,,57,127
159467,note_off,0,0,0,,0,,,60,127
159489,note_off,22,0,0,,2,,,38,127
159490,note_on,1,0,0,,2,,,38,127
159490,note_on,0,0,0,,11,,,58,127
159490,note_on,0,0,0,,2,,,62,127
159651,note_off,161,0,0,,2,,,62,127
159651,note_off,0,0,0,,11,,,58,127
159674,note_on,23,0,0,,4,,,64,127
159674,note_on,0,0,0,,0,,,60,127
159835,note_off,161,0,0,,0,,,60,127
159835,note_off,0,0,0,,4,,,64,127
159857,note_off,22,0,0,,2,,,38,127
159858,note_on,1,0,0,,2,,,38,127
159858,note_on,0,0,0,,6,,,66,127
159858,note_on,0,0,0,,2,,,62,127
160019,note_off,161,0,0,,2,,,62,127
160019,note_off,0,0,0,,6,,,66,127
160042,note_on,23,0,0,,3,,,63,127
160042,note_on,0,0,0,,7,,,67,127
160203,note_off,161,0,0,,7,,,67,127
160203,note_off,0,0,0,,3,,,63,127
160225,note_off,22,0,0,,2,,,38,127
160226,note_on,1,0,0,,2,,,38,127
160226,note_on,0,0,0,,10,,,69,127
160226,note_on,0,0,0,,2,,,62,127
160387,note_off,161,0,0,,2,,,62,127
160387,note_off,0,0,0,,10,,,69,127
160410,note_on,23,0,0,,6,,,66,127
160410,note_on,0,0,0,,0,,,60,127
160571,note_off,161,0,0,,0,,,60,127
160571,note_off,0,0,0,,6,,,66,127
160593,note_off,22,0,0,,2,,,38,127
160594,note_on,1,0,0,,2,,,38,127
160594,note_on,0,0,0,,7,,,67,127
160594,note_on,0,0,0,,11,,,58,127
160738,note_off,144,0,0,,11,,,58,127
160738,note_off,0,0,0,,7,,,67,127
160778,note_on,40,0,0,,0,,,60,127
160778,note_on,0,0,0,,10,,,69,127
160922,note_off,144,0,0,,10,,,69,127
160922,note_off,0,0,0,,0,,,60,127
160961,note_off,39,0,0,,2,,,38,127
160962,note_on,1,0,0,,2,,,38,127
160962,note_on,0,0,0,,2,,,62,127
160962,note_on,0,0,0,,11,,,70,127
161106,note_off,144,0,0,,11,,,70,127
161106,note_off,0,0,0,,2,,,62,127
161146,note_on,40,0,0,,7,,,67,127
161146,note_on,0,0,0,,4,,,64,127
161290,note_off,144,0,0,,4,,,64,127
161290,note_off,0,0,0,,7,,,67,127
161329,note_off,39,0,0,,2,,,38,127
161330,note_on,1,0,0,,2,,,38,127
161330,note_on,0,0,0,,10,,,69,127
161330,note_on,0,0,0,,6,,,66,127
161474,note_off,144,0,0,,6,,,66,127
161474,note_off,0,0,0,,10,,,69,127
161514,note_on,40,0,0,,11,,,70,127
161514,note_on,0,0,0,,7,,,67,127
161658,note_off,144,0,0,,7,,,67,127
161658,note_off,0,0,0,,11,,,70,127
161697,note_off,39,0,0,,2,,,38,127
161698,note_on,1,0,0,,2,,,38,127
161698,note_on,0,0,0,,0,,,72,127
161698,note_on,0,0,0,,10,,,69,127
161842,note_off,144,0,0,,10,,,69,127
161842,note_off,0,0,0,,0,,,72,127
161882,note_on,40,0,0,,6,,,66,127
161882,note_on,0,0,0,,10,,,69,127
162026,note_off,144,0,0,,10,,,69,127
162026,note_off,0,0,0,,6,,,66,127
162065,note_off,39,0,0,,2,,,38,127
162066,note_on,1,0,0,,11,,,70,127
162066,note_on,0,0,0,,7,,,67,127
162066,note_on,0,0,0,,7,,,43,127
162252,note_off,186,0,0,,7,,,67,127
162252,note_off,0,0,0,,11,,,70,127
162255,note_on,3,0,0,,10,,,69,127
162255,note_on,0,0,0,,0,,,72,127
162441,note_off,186,0,0,,0,,,72,127
162441,note_off,0,0,0,,10,,,69,127
162445,note_on,4,0,0,,11,,,70,127
162445,note_on,0,0,0,,2,,,74,127
162631,note_off,186,0,0,,2,,,74,127
162631,note_off,0,0,0,,11,,,70,127
162635,note_on,4,0,0,,7,,,67,127
162635,note_on,0,0,0,,4,,,76,127
162816,note_off,181,0,0,,7,,,43,127
162821,note_off,5,0,0,,4,,,76,127
162821,note_off,0,0,0,,7,,,67,127
162825,note_on,4,0,0,,6,,,78,127
162825,note_on,0,0,0,,10,,,69,127
162825,note_on,0,0,0,,2,,,50,127
163011,note_off,186,0,0,,10,,,69,127
163011,note_off,0,0,0,,6,,,78,127
163014,note_on,3,0,0,,7,,,79,127
163014,note_on,0,0,0,,11,,,70,127
163200,note_off,186,0,0,,11,,,70,127
163200,note_off,0,0,0,,7,,,79,127
163204,note_on,4,0,0,,0,,,72,127
163204,note_on,0,0,0,,10,,,81,127
163390,note_off,186,0,0,,10,,,81,127
163390,note_off,0,0,0,,0,,,72,127
163394,note_on,4,0,0,,6,,,78,127
163394,note_on,0,0,0,,10,,,69,127
163575,note_off,181,0,0,,2,,,50,127
163580,note_off,5,0,0,,10,,,69,127
163580,note_off,0,0,0,,6,,,78,127
163584,note_on,4,0,0,,7,,,79,127
163584,note_on,0,0,0,,11,,,70,127
163584,note_on,0,0,0,,7,,,55,127
163770,note_off,186,0,0,,7,,,79,127
163773,note_on,3,0,0,,2,,,74,127
163955,note_off,182,0,0,,11,,,70,127
163958,note_off,3,0,0,,7,,,55,127
163959,note_off,1,0,0,,2,,,74,127
163963,note_on,4,0,0,,3,,,75,127
163963,note_on,0,0,0,,0,,,72,127
163963,note_on,0,0,0,,0,,,60,127
163963,note_on,0,0,0,,0,,,48,127
164149,note_off,186,0,0,,0,,,72,127
164153,note_on,4,0,0,,10,,,69,127
164334,note_off,181,0,0,,3,,,75,127
164337,note_off,3,0,0,,0,,,48,127
164337,note_off,0,0,0,,0,,,60,127
164339,note_off,2,0,0,,10,,,69,127
164343,note_on,4,0,0,,2,,,74,127
164343,note_on,0,0,0,,11,,,70,127
164343,note_on,0,0,0,,11,,,58,127
164343,note_on,0,0,0,,2,,,50,127
164529,note_off,186,0,0,,11,,,70,127
164532,note_on,3,0,0,,7,,,67,127
164714,note_off,182,0,0,,2,,,74,127
164717,note_off,3,0,0,,2,,,50,127
164717,note_off,0,0,0,,11,,,58,127
164718,note_off,1,0,0,,7,,,67,127
164722,note_on,4,0,0,,10,,,69,127
164722,note_on,0,0,0,,0,,,72,127
164722,note_on,0,0,0,,2,,,50,127
164722,note_on,0,0,0,,10,,,57,127
164908,note_off,186,0,0,,10,,,69,127
164912,note_on,4,0,0,,6,,,66,127
165093,note_off,181,0,0,,0,,,72,127
165096,note_off,3,0,0,,10,,,57,127
165096,note_off,0,0,0,,2,,,50,127
165098,note_off,2,0,0,,6,,,66,127
165102,note_on,4,0,0,,11,,,70,127
165102,note_on,0,0,0,,7,,,67,127
165102,note_on,0,0,0,,7,,,55,127
165288,note_off,186,0,0,,7,,,67,127
165291,note_on,3,0,0,,2,,,62,127
165476,note_off,185,0,0,,7,,,55,127
165477,note_off,1,0,0,,2,,,62,127
165481,note_on,4,0,0,,3,,,63,127
165481,note_on,0,0,0,,0,,,48,127
165664,note_off,183,0,0,,11,,,70,127
165671,note_on,7,0,0,,0,,,72,127
165852,note_off,181,0,0,,3,,,63,127
165855,note_off,3,0,0,,0,,,48,127
165857,note_off,2,0,0,,0,,,72,127
165861,note_on,4,0,0,,2,,,62,127
165861,note_on,0,0,0,,11,,,70,127
165861,note_on,0,0,0,,2,,,50,127
166047,note_off,186,0,0,,11,,,70,127
166050,note_on,3,0,0,,7,,,67,127
166232,note_off,182,0,0,,2,,,62,127
166235,note_off,3,0,0,,2,,,50,127
166236,note_off,1,0,0,,7,,,67,127
166240,note_on,4,0,0,,0,,,60,127
166240,note_on,0,0,0,,10,,,69,127
166240,note_on,0,0,0,,2,,,38,127
166426,note_off,186,0,0,,10,,,69,127
166430,note_on,4,0,0,,6,,,66,127
166611,note_off,181,0,0,,0,,,60,127
166614,note_off,3,0,0,,2,,,38,127
166616,note_off,2,0,0,,6,,,66,127
166620,note_on,4,0,0,,12,,,59,127
166620,note_on,0,0,0,,7,,,67,127
166620,note_on,0,0,0,,7,,,43,127
166817,note_off,197,0,0,,12,,,59,127
166823,note_on,6,0,0,,0,,,60,127
167020,note_off,197,0,0,,0,,,60,127
167027,note_on,7,0,0,,2,,,62,127
167027,note_on,0,0,0,,7,,,55,127
167224,note_off,197,0,0,,7,,,55,127
167230,note_on,6,0,0,,5,,,53,127
167416,note_off,186,0,0,,7,,,43,127
167427,note_off,11,0,0,,5,,,53,127
167434,note_on,7,0,0,,3,,,51,127
167434,note_on,0,0,0,,7,,,43,127
167624,note_off,190,0,0,,2,,,62,127
167638,note_on,14,0,0,,0,,,60,127
167830,note_off,192,0,0,,3,,,51,127
167841,note_on,11,0,0,,2,,,50,127
168038,note_off,197,0,0,,2,,,50,127
168045,note_on,7,0,0,,0,,,48,127
168158,note_off,113,0,0,,7,,,67,127
168229,note_off,71,0,0,,7,,,43,127
168235,note_off,6,0,0,,0,,,60,127
168242,note_off,7,0,0,,0,,,48,127
168248,note_on,6,0,0,,7,,,67,127
168248,note_on,0,0,0,,7,,,43,127
168248,note_on,0,0,0,,2,,,50,127
168452,note_on,204,0,0,,3,,,63,127
168649,note_off,197,0,0,,3,,,63,127
168656,note_on,7,0,0,,2,,,62,127
168853,note_off,197,0,0,,2,,,62,127
168860,note_on,7,0,0,,0,,,60,127
169044,note_off,184,0,0,,2,,,50,127
169044,note_off,0,0,0,,7,,,43,127
169056,note_off,12,0,0,,0,,,60,127
169063,note_on,7,0,0,,12,,,59,127
169063,note_on,0,0,0,,2,,,50,127
169063,note_on,0,0,0,,7,,,43,127
169260,note_off,197,0,0,,12,,,59,127
169281,note_off,21,0,0,,7,,,67,127
169285,note_on,4,0,0,,10,,,69,127
169285,note_on,0,0,0,,0,,,60,127
169499,note_off,214,0,0,,0,,,60,127
169499,note_off,0,0,0,,10,,,69,127
169509,note_on,10,0,0,,7,,,67,127
169509,note_on,0,0,0,,12,,,59,127
169723,note_off,214,0,0,,12,,,59,127
169723,note_off,0,0,0,,7,,,67,127
169736,note_on,13,0,0,,10,,,57,127
169736,note_on,0,0,0,,6,,,66,127
169858,note_off,122,0,0,,7,,,43,127
169858,note_off,0,0,0,,2,,,50,127
169950,note_off,92,0,0,,10,,,57,127
169962,note_off,12,0,0,,6,,,66,127
169973,note_on,11,0,0,,2,,,50,127
169973,note_on,0,0,0,,7,,,43,127
169974,note_on,1,0,0,,12,,,59,127
169974,note_on,0,0,0,,7,,,55,127
169975,note_on,1,0,0,,7,,,67,127
169975,note_on,0,0,0,,2,,,62,127
172277,note_off,2302,0,0,,7,,,43,127
172277,note_off,0,0,0,,2,,,50,127
172278,note_off,1,0,0,,7,,,55,127
172278,note_off,0,0,0,,12,,,59,127
172279,note_off,1,0,0,,2,,,62,127
172279,note_off,0,0,0,,7,,,67,127
179712,end_of_track,7433,1,0,,,,,,
