tick,type,time,meta,track,program,channel,pitch,tempo,note,velocity
0,copyright,0,1,0,,,,,,
0,program_change,0,0,0,6,0,,,,
0,pitchwheel,0,0,0,,0,0,,,
0,program_change,0,0,0,6,1,,,,
0,pitchwheel,0,0,0,,1,-590,,,
0,program_change,0,0,0,6,2,,,,
0,pitchwheel,0,0,0,,2,-272,,,
0,program_change,0,0,0,6,3,,,,
0,pitchwheel,0,0,0,,3,-353,,,
0,program_change,0,0,0,6,4,,,,
0,pitchwheel,0,0,0,,4,-560,,,
0,program_change,0,0,0,6,5,,,,
0,pitchwheel,0,0,0,,5,-80,,,
0,program_change,0,0,0,6,6,,,,
0,pitchwheel,0,0,0,,6,-625,,,
0,program_change,0,0,0,6,7,,,,
0,pitchwheel,0,0,0,,7,-130,,,
0,program_change,0,0,0,6,8,,,,
0,pitchwheel,0,0,0,,8,-512,,,
0,program_change,0,0,0,6,10,,,,
0,pitchwheel,0,0,0,,10,-464,,,
0,program_change,0,0,0,6,11,,,,
0,pitchwheel,0,0,0,,11,-208,,,
0,program_change,0,0,0,6,12,,,,
0,pitchwheel,0,0,0,,12,-553,,,
0,set_tempo,0,1,0,,,,500000,,
85,note_on,85,0,0,,7,,,67,127
385,note_off,300,0,0,,7,,,67,127
427,note_on,42,0,0,,0,,,60,127
427,note_on,0,0,0,,0,,,72,127
541,note_on,114,0,0,,4,,,64,127
654,note_off,113,0,0,,0,,,60,127
655,note_on,1,0,0,,7,,,67,127
765,note_off,110,0,0,,0,,,72,127
768,note_off,3,0,0,,4,,,64,127
769,note_on,1,0,0,,0,,,60,127
769,note_on,0,0,0,,7,,,55,127
882,note_off,113,0,0,,7,,,67,127
883,note_on,1,0,0,,4,,,64,127
996,note_off,113,0,0,,0,,,60,127
997,note_on,1,0,0,,7,,,67,127
1107,note_off,110,0,0,,7,,,55,127
1110,note_off,3,0,0,,4,,,64,127
1111,note_on,1,0,0,,0,,,60,127
1111,note_on,0,0,0,,0,,,48,127
1224,note_off,113,0,0,,7,,,67,127
1225,note_on,1,0,0,,4,,,64,127
1338,note_off,113,0,0,,0,,,60,127
1339,note_on,1,0,0,,7,,,67,127
1449,note_off,110,0,0,,0,,,48,127
1452,note_off,3,0,0,,4,,,64,127
1453,note_on,1,0,0,,0,,,60,127
1453,note_on,0,0,0,,2,,,74,127
1510,note_on,57,0,0,,0,,,72,127
1511,note_off,1,0,0,,2,,,74,127
1566,note_off,55,0,0,,7,,,67,127
1567,note_on,1,0,0,,4,,,64,127
1567,note_on,0,0,0,,2,,,74,127
1568,note_off,1,0,0,,0,,,72,127
1624,note_on,56,0,0,,0,,,72,127
1625,note_off,1,0,0,,2,,,74,127
1680,note_off,55,0,0,,0,,,60,127
1681,note_on,1,0,0,,7,,,67,127
1681,note_on,0,0,0,,12,,,71,127
1682,note_off,1,0,0,,0,,,72,127
1738,note_on,56,0,0,,0,,,72,127
1739,note_off,1,0,0,,12,,,71,127
1794,note_off,55,0,0,,4,,,64,127
1795,note_on,1,0,0,,12,,,59,127
1795,note_on,0,0,0,,2,,,74,127
1796,note_off,1,0,0,,0,,,72,127
1908,note_off,112,0,0,,7,,,67,127
1909,note_on,1,0,0,,2,,,62,127
2022,note_off,113,0,0,,12,,,59,127
2023,note_on,1,0,0,,7,,,67,127
2133,note_off,110,0,0,,2,,,74,127
2136,note_off,3,0,0,,2,,,62,127
2137,note_on,1,0,0,,12,,,59,127
2137,note_on,0,0,0,,7,,,55,127
2250,note_off,113,0,0,,7,,,67,127
2251,note_on,1,0,0,,2,,,62,127
2364,note_off,113,0,0,,12,,,59,127
2365,note_on,1,0,0,,7,,,67,127
2478,note_off,113,0,0,,2,,,62,127
2479,note_on,1,0,0,,12,,,59,127
2479,note_on,0,0,0,,7,,,43,127
2592,note_off,113,0,0,,7,,,67,127
2593,note_on,1,0,0,,2,,,62,127
2706,note_off,113,0,0,,12,,,59,127
2707,note_on,1,0,0,,7,,,67,127
2817,note_off,110,0,0,,7,,,43,127
2817,note_off,0,0,0,,7,,,55,127
2820,note_off,3,0,0,,2,,,62,127
2821,note_on,1,0,0,,12,,,59,127
2821,note_on,0,0,0,,4,,,76,127
2878,note_on,57,0,0,,2,,,74,127
2879,note_off,1,0,0,,4,,,76,127
2934,note_off,55,0,0,,7,,,67,127
2935,note_on,1,0,0,,2,,,62,127
2935,note_on,0,0,0,,4,,,76,127
2936,note_off,1,0,0,,2,,,74,127
2992,note_on,56,0,0,,2,,,74,127
2993,note_off,1,0,0,,4,,,76,127
3048,note_off,55,0,0,,12,,,59,127
3049,note_on,1,0,0,,7,,,67,127
3049,note_on,0,0,0,,0,,,72,127
3050,note_off,1,0,0,,2,,,74,127
3106,note_on,56,0,0,,2,,,74,127
3107,note_off,1,0,0,,0,,,72,127
3162,note_off,55,0,0,,2,,,62,127
3163,note_on,1,0,0,,0,,,60,127
3163,note_on,0,0,0,,4,,,76,127
3164,note_off,1,0,0,,2,,,74,127
3276,note_off,112,0,0,,7,,,67,127
3277,note_on,1,0,0,,4,,,64,127
3390,note_off,113,0,0,,0,,,60,127
3391,note_on,1,0,0,,7,,,67,127
3501,note_off,110,0,0,,4,,,76,127
3504,note_off,3,0,0,,4,,,64,127
3505,note_on,1,0,0,,0,,,60,127
3505,note_on,0,0,0,,0,,,48,127
3618,note_off,113,0,0,,7,,,67,127
3619,note_on,1,0,0,,4,,,64,127
3732,note_off,113,0,0,,0,,,60,127
3733,note_on,1,0,0,,7,,,67,127
3846,note_off,113,0,0,,4,,,64,127
3847,note_on,1,0,0,,0,,,60,127
3847,note_on,0,0,0,,0,,,36,127
3960,note_off,113,0,0,,7,,,67,127
3961,note_on,1,0,0,,4,,,64,127
4074,note_off,113,0,0,,0,,,60,127
4075,note_on,1,0,0,,7,,,67,127
4185,note_off,110,0,0,,0,,,36,127
4185,note_off,0,0,0,,0,,,48,127
4188,note_off,3,0,0,,4,,,64,127
4189,note_on,1,0,0,,0,,,60,127
4189,note_on,0,0,0,,4,,,76,127
4302,note_off,113,0,0,,7,,,67,127
4303,note_on,1,0,0,,4,,,64,127
4416,note_off,113,0,0,,0,,,60,127
4417,note_on,1,0,0,,7,,,67,127
4527,note_off,110,0,0,,4,,,76,127
4530,note_off,3,0,0,,4,,,64,127
4531,note_on,1,0,0,,7,,,55,127
4531,note_on,0,0,0,,4,,,76,127
4644,note_off,113,0,0,,7,,,67,127
4645,note_on,1,0,0,,0,,,60,127
4758,note_off,113,0,0,,7,,,55,127
4759,note_on,1,0,0,,4,,,64,127
4869,note_off,110,0,0,,4,,,76,127
4872,note_off,3,0,0,,0,,,60,127
4873,note_on,1,0,0,,7,,,55,127
4873,note_on,0,0,0,,2,,,74,127
4986,note_off,113,0,0,,4,,,64,127
4987,note_on,1,0,0,,12,,,59,127
5100,note_off,113,0,0,,7,,,55,127
5101,note_on,1,0,0,,2,,,62,127
5120,note_off,19,0,0,,2,,,74,127
5214,note_off,94,0,0,,12,,,59,127
5215,note_on,1,0,0,,7,,,55,127
5215,note_on,0,0,0,,7,,,43,127
5328,note_off,113,0,0,,2,,,62,127
5329,note_on,1,0,0,,12,,,59,127
5442,note_off,113,0,0,,7,,,55,127
5443,note_on,1,0,0,,2,,,62,127
5553,note_off,110,0,0,,7,,,43,127
5556,note_off,3,0,0,,12,,,59,127
5557,note_on,1,0,0,,7,,,55,127
5557,note_on,0,0,0,,7,,,67,127
5670,note_off,113,0,0,,2,,,62,127
5671,note_on,1,0,0,,12,,,59,127
5784,note_off,113,0,0,,7,,,55,127
5785,note_on,1,0,0,,2,,,62,127
5804,note_off,19,0,0,,7,,,67,127
5896,note_off,92,0,0,,2,,,62,127
5898,note_off,2,0,0,,12,,,59,127
5906,note_on,8,0,0,,0,,,72,127
5906,note_on,0,0,0,,0,,,60,127
6020,note_on,114,0,0,,4,,,64,127
6133,note_off,113,0,0,,0,,,60,127
6134,note_on,1,0,0,,7,,,67,127
6244,note_off,110,0,0,,0,,,72,127
6247,note_off,3,0,0,,4,,,64,127
6248,note_on,1,0,0,,7,,,55,127
6248,note_on,0,0,0,,0,,,60,127
6361,note_off,113,0,0,,7,,,67,127
6362,note_on,1,0,0,,4,,,64,127
6475,note_off,113,0,0,,0,,,60,127
6476,note_on,1,0,0,,7,,,67,127
6586,note_off,110,0,0,,7,,,55,127
6589,note_off,3,0,0,,4,,,64,127
6590,note_on,1,0,0,,0,,,48,127
6590,note_on,0,0,0,,0,,,60,127
6703,note_off,113,0,0,,7,,,67,127
6704,note_on,1,0,0,,4,,,64,127
6817,note_off,113,0,0,,0,,,60,127
6818,note_on,1,0,0,,7,,,67,127
6928,note_off,110,0,0,,0,,,48,127
6931,note_off,3,0,0,,4,,,64,127
6932,note_on,1,0,0,,2,,,74,127
6932,note_on,0,0,0,,0,,,60,127
7014,note_off,82,0,0,,2,,,74,127
7018,note_on,4,0,0,,0,,,72,127
7046,note_off,28,0,0,,7,,,67,127
7047,note_on,1,0,0,,4,,,64,127
7100,note_off,53,0,0,,0,,,72,127
7104,note_on,4,0,0,,12,,,71,127
7160,note_off,56,0,0,,0,,,60,127
7161,note_on,1,0,0,,7,,,67,127
7186,note_off,25,0,0,,12,,,71,127
7190,note_on,4,0,0,,0,,,72,127
7272,note_off,82,0,0,,0,,,72,127
7275,note_off,3,0,0,,4,,,64,127
7276,note_on,1,0,0,,2,,,74,127
7276,note_on,0,0,0,,12,,,59,127
7389,note_off,113,0,0,,7,,,67,127
7390,note_on,1,0,0,,2,,,62,127
7503,note_off,113,0,0,,12,,,59,127
7504,note_on,1,0,0,,7,,,67,127
7614,note_off,110,0,0,,2,,,74,127
7617,note_off,3,0,0,,2,,,62,127
7618,note_on,1,0,0,,7,,,55,127
7618,note_on,0,0,0,,12,,,59,127
7731,note_off,113,0,0,,7,,,67,127
7732,note_on,1,0,0,,2,,,62,127
7845,note_off,113,0,0,,12,,,59,127
7846,note_on,1,0,0,,7,,,67,127
7959,note_off,113,0,0,,2,,,62,127
7960,note_on,1,0,0,,7,,,43,127
7960,note_on,0,0,0,,12,,,59,127
8073,note_off,113,0,0,,7,,,67,127
8074,note_on,1,0,0,,2,,,62,127
8187,note_off,113,0,0,,12,,,59,127
8188,note_on,1,0,0,,7,,,67,127
8298,note_off,110,0,0,,7,,,43,127
8298,note_off,0,0,0,,7,,,55,127
8301,note_off,3,0,0,,2,,,62,127
8302,note_on,1,0,0,,4,,,76,127
8302,note_on,0,0,0,,12,,,59,127
8384,note_off,82,0,0,,4,,,76,127
8388,note_on,4,0,0,,2,,,74,127
8416,note_off,28,0,0,,7,,,67,127
8417,note_on,1,0,0,,2,,,62,127
8470,note_off,53,0,0,,2,,,74,127
8474,note_on,4,0,0,,0,,,72,127
8530,note_off,56,0,0,,12,,,59,127
8531,note_on,1,0,0,,7,,,67,127
8556,note_off,25,0,0,,0,,,72,127
8560,note_on,4,0,0,,2,,,74,127
8642,note_off,82,0,0,,2,,,74,127
8645,note_off,3,0,0,,2,,,62,127
8646,note_on,1,0,0,,4,,,76,127
8646,note_on,0,0,0,,0,,,60,127
8759,note_off,113,0,0,,7,,,67,127
8760,note_on,1,0,0,,4,,,64,127
8873,note_off,113,0,0,,0,,,60,127
8874,note_on,1,0,0,,7,,,67,127
8984,note_off,110,0,0,,4,,,76,127
8987,note_off,3,0,0,,4,,,64,127
8988,note_on,1,0,0,,0,,,48,127
8988,note_on,0,0,0,,0,,,60,127
9101,note_off,113,0,0,,7,,,67,127
9102,note_on,1,0,0,,4,,,64,127
9215,note_off,113,0,0,,0,,,60,127
9216,note_on,1,0,0,,7,,,67,127
9329,note_off,113,0,0,,4,,,64,127
9330,note_on,1,0,0,,0,,,36,127
9330,note_on,0,0,0,,0,,,60,127
9443,note_off,113,0,0,,7,,,67,127
9444,note_on,1,0,0,,4,,,64,127
9557,note_off,113,0,0,,0,,,60,127
9558,note_on,1,0,0,,7,,,67,127
9591,note_off,33,0,0,,0,,,48,127
9668,note_off,77,0,0,,0,,,36,127
9671,note_off,3,0,0,,4,,,64,127
9672,note_on,1,0,0,,4,,,76,127
9672,note_on,0,0,0,,0,,,60,127
9785,note_off,113,0,0,,7,,,67,127
9786,note_on,1,0,0,,4,,,64,127
9899,note_off,113,0,0,,0,,,60,127
9900,note_on,1,0,0,,7,,,67,127
10010,note_off,110,0,0,,4,,,76,127
10013,note_off,3,0,0,,4,,,64,127
10014,note_on,1,0,0,,4,,,76,127
10014,note_on,0,0,0,,7,,,55,127
10127,note_off,113,0,0,,7,,,67,127
10128,note_on,1,0,0,,0,,,60,127
10241,note_off,113,0,0,,7,,,55,127
10242,note_on,1,0,0,,4,,,64,127
10352,note_off,110,0,0,,4,,,76,127
10355,note_off,3,0,0,,0,,,60,127
10356,note_on,1,0,0,,2,,,74,127
10356,note_on,0,0,0,,7,,,55,127
10469,note_off,113,0,0,,4,,,64,127
10470,note_on,1,0,0,,12,,,59,127
10583,note_off,113,0,0,,7,,,55,127
10584,note_on,1,0,0,,2,,,62,127
10603,note_off,19,0,0,,2,,,74,127
10697,note_off,94,0,0,,12,,,59,127
10698,note_on,1,0,0,,7,,,43,127
10698,note_on,0,0,0,,7,,,55,127
10811,note_off,113,0,0,,2,,,62,127
10812,note_on,1,0,0,,12,,,59,127
10925,note_off,113,0,0,,7,,,55,127
10926,note_on,1,0,0,,2,,,62,127
11036,note_off,110,0,0,,7,,,43,127
11037,note_off,1,0,0,,2,,,62,127
11039,note_off,2,0,0,,12,,,59,127
11040,note_on,1,0,0,,7,,,67,127
11040,note_on,0,0,0,,4,,,52,127
11154,note_on,114,0,0,,7,,,55,127
11206,note_off,52,0,0,,7,,,67,127
11266,note_off,60,0,0,,4,,,52,127
11267,note_on,1,0,0,,0,,,60,127
11380,note_off,113,0,0,,7,,,55,127
11386,note_on,6,0,0,,10,,,69,127
11388,note_on,2,0,0,,4,,,52,127
11494,note_off,106,0,0,,0,,,60,127
11497,note_off,3,0,0,,10,,,69,127
11502,note_on,5,0,0,,11,,,70,127
11502,note_on,0,0,0,,7,,,55,127
11612,note_off,110,0,0,,11,,,70,127
11615,note_off,3,0,0,,4,,,52,127
11616,note_on,1,0,0,,0,,,72,127
11616,note_on,0,0,0,,0,,,60,127
11726,note_off,110,0,0,,0,,,72,127
11729,note_off,3,0,0,,7,,,55,127
11730,note_on,1,0,0,,11,,,70,127
11730,note_on,0,0,0,,4,,,52,127
11843,note_off,113,0,0,,0,,,60,127
11844,note_on,1,0,0,,7,,,55,127
11957,note_off,113,0,0,,4,,,52,127
11958,note_on,1,0,0,,0,,,60,127
12068,note_off,110,0,0,,11,,,70,127
12071,note_off,3,0,0,,7,,,55,127
12072,note_on,1,0,0,,0,,,48,127
12072,note_on,0,0,0,,4,,,52,127
12185,note_off,113,0,0,,0,,,60,127
12186,note_on,1,0,0,,7,,,55,127
12299,note_off,113,0,0,,4,,,52,127
12300,note_on,1,0,0,,0,,,60,127
12410,note_off,110,0,0,,0,,,48,127
12413,note_off,3,0,0,,7,,,55,127
12414,note_on,1,0,0,,0,,,72,127
12414,note_on,0,0,0,,4,,,52,127
12471,note_on,57,0,0,,11,,,70,127
12472,note_off,1,0,0,,0,,,72,127
12527,note_off,55,0,0,,0,,,60,127
12528,note_on,1,0,0,,0,,,72,127
12528,note_on,0,0,0,,7,,,55,127
12529,note_off,1,0,0,,11,,,70,127
12585,note_on,56,0,0,,11,,,70,127
12586,note_off,1,0,0,,0,,,72,127
12641,note_off,55,0,0,,4,,,52,127
12642,note_on,1,0,0,,10,,,69,127
12642,note_on,0,0,0,,0,,,60,127
12643,note_off,1,0,0,,11,,,70,127
12699,note_on,56,0,0,,11,,,70,127
12700,note_off,1,0,0,,10,,,69,127
12755,note_off,55,0,0,,7,,,55,127
12756,note_on,1,0,0,,10,,,69,127
12756,note_on,0,0,0,,5,,,53,127
12757,note_off,1,0,0,,11,,,70,127
12869,note_off,112,0,0,,0,,,60,127
12870,note_on,1,0,0,,10,,,57,127
12983,note_off,113,0,0,,5,,,53,127
12984,note_on,1,0,0,,0,,,60,127
13094,note_off,110,0,0,,10,,,69,127
13097,note_off,3,0,0,,10,,,57,127
13098,note_on,1,0,0,,0,,,48,127
13098,note_on,0,0,0,,5,,,53,127
13211,note_off,113,0,0,,0,,,60,127
13212,note_on,1,0,0,,10,,,57,127
13325,note_off,113,0,0,,5,,,53,127
13326,note_on,1,0,0,,0,,,60,127
13436,note_off,110,0,0,,0,,,48,127
13439,note_off,3,0,0,,10,,,57,127
13440,note_on,1,0,0,,5,,,41,127
13440,note_on,0,0,0,,5,,,53,127
13553,note_off,113,0,0,,0,,,60,127
13554,note_on,1,0,0,,10,,,57,127
13667,note_off,113,0,0,,5,,,53,127
13668,note_on,1,0,0,,0,,,60,127
13778,note_off,110,0,0,,5,,,41,127
13781,note_off,3,0,0,,10,,,57,127
13782,note_on,1,0,0,,10,,,69,127
13782,note_on,0,0,0,,5,,,53,127
13895,note_off,113,0,0,,0,,,60,127
13896,note_on,1,0,0,,10,,,57,127
14009,note_off,113,0,0,,5,,,53,127
14010,note_on,1,0,0,,0,,,60,127
14082,note_off,72,0,0,,10,,,69,127
14123,note_off,41,0,0,,10,,,57,127
14131,note_on,8,0,0,,2,,,74,127
14131,note_on,0,0,0,,6,,,54,127
14237,note_off,106,0,0,,0,,,60,127
14245,note_on,8,0,0,,10,,,57,127
14358,note_off,113,0,0,,6,,,54,127
14359,note_on,1,0,0,,2,,,62,127
14469,note_off,110,0,0,,2,,,74,127
14472,note_off,3,0,0,,10,,,57,127
14473,note_on,1,0,0,,0,,,72,127
14473,note_on,0,0,0,,6,,,54,127
14586,note_off,113,0,0,,2,,,62,127
14587,note_on,1,0,0,,10,,,57,127
14700,note_off,113,0,0,,6,,,54,127
14701,note_on,1,0,0,,2,,,62,127
14811,note_off,110,0,0,,0,,,72,127
14814,note_off,3,0,0,,10,,,57,127
14815,note_on,1,0,0,,2,,,50,127
14815,note_on,0,0,0,,6,,,54,127
14928,note_off,113,0,0,,2,,,62,127
14929,note_on,1,0,0,,10,,,57,127
15042,note_off,113,0,0,,6,,,54,127
15043,note_on,1,0,0,,2,,,62,127
15153,note_off,110,0,0,,2,,,50,127
15156,note_off,3,0,0,,10,,,57,127
15157,note_on,1,0,0,,2,,,74,127
15157,note_on,0,0,0,,6,,,54,127
15214,note_on,57,0,0,,0,,,72,127
15215,note_off,1,0,0,,2,,,74,127
15270,note_off,55,0,0,,2,,,62,127
15271,note_on,1,0,0,,2,,,74,127
15271,note_on,0,0,0,,10,,,57,127
15272,note_off,1,0,0,,0,,,72,127
15328,note_on,56,0,0,,0,,,72,127
15329,note_off,1,0,0,,2,,,74,127
15384,note_off,55,0,0,,6,,,54,127
15385,note_on,1,0,0,,12,,,71,127
15385,note_on,0,0,0,,2,,,62,127
15386,note_off,1,0,0,,0,,,72,127
15442,note_on,56,0,0,,0,,,72,127
15443,note_off,1,0,0,,12,,,71,127
15498,note_off,55,0,0,,10,,,57,127
15499,note_on,1,0,0,,12,,,71,127
15499,note_on,0,0,0,,7,,,55,127
15500,note_off,1,0,0,,0,,,72,127
15612,note_off,112,0,0,,2,,,62,127
15613,note_on,1,0,0,,12,,,59,127
15726,note_off,113,0,0,,7,,,55,127
15727,note_on,1,0,0,,2,,,62,127
15837,note_off,110,0,0,,12,,,71,127
15840,note_off,3,0,0,,12,,,59,127
15841,note_on,1,0,0,,2,,,50,127
15841,note_on,0,0,0,,7,,,55,127
15954,note_off,113,0,0,,2,,,62,127
15955,note_on,1,0,0,,12,,,59,127
16068,note_off,113,0,0,,7,,,55,127
16069,note_on,1,0,0,,2,,,62,127
16179,note_off,110,0,0,,2,,,50,127
16182,note_off,3,0,0,,12,,,59,127
16183,note_on,1,0,0,,7,,,43,127
16183,note_on,0,0,0,,7,,,55,127
16296,note_off,113,0,0,,2,,,62,127
16297,note_on,1,0,0,,12,,,59,127
16410,note_off,113,0,0,,7,,,55,127
16411,note_on,1,0,0,,2,,,62,127
16521,note_off,110,0,0,,7,,,43,127
16524,note_off,3,0,0,,12,,,59,127
16525,note_on,1,0,0,,2,,,74,127
16525,note_on,0,0,0,,7,,,55,127
16638,note_off,113,0,0,,2,,,62,127
16639,note_on,1,0,0,,12,,,59,127
16736,note_off,97,0,0,,2,,,74,127
16752,note_off,16,0,0,,7,,,55,127
16774,note_on,22,0,0,,2,,,62,127
16866,note_off,92,0,0,,12,,,59,127
16874,note_on,8,0,0,,4,,,76,127
16874,note_on,0,0,0,,7,,,79,127
16874,note_on,0,0,0,,7,,,55,127
16988,note_on,114,0,0,,0,,,60,127
17001,note_off,13,0,0,,2,,,62,127
17101,note_off,100,0,0,,7,,,55,127
17102,note_on,1,0,0,,4,,,64,127
17212,note_off,110,0,0,,7,,,79,127
17212,note_off,0,0,0,,4,,,76,127
17215,note_off,3,0,0,,0,,,60,127
17216,note_on,1,0,0,,7,,,43,127
17216,note_on,0,0,0,,7,,,55,127
17329,note_off,113,0,0,,4,,,64,127
17330,note_on,1,0,0,,0,,,60,127
17443,note_off,113,0,0,,7,,,55,127
17444,note_on,1,0,0,,4,,,64,127
17554,note_off,110,0,0,,7,,,43,127
17555,note_off,1,0,0,,4,,,64,127
17557,note_off,2,0,0,,0,,,60,127
17558,note_on,1,0,0,,2,,,74,127
17558,note_on,0,0,0,,5,,,77,127
17558,note_on,0,0,0,,7,,,55,127
17672,note_on,114,0,0,,12,,,59,127
17785,note_off,113,0,0,,7,,,55,127
17786,note_on,1,0,0,,2,,,62,127
17896,note_off,110,0,0,,5,,,77,127
17896,note_off,0,0,0,,2,,,74,127
17899,note_off,3,0,0,,12,,,59,127
17900,note_on,1,0,0,,7,,,43,127
17900,note_on,0,0,0,,7,,,55,127
18013,note_off,113,0,0,,2,,,62,127
18014,note_on,1,0,0,,12,,,59,127
18127,note_off,113,0,0,,7,,,55,127
18128,note_on,1,0,0,,2,,,62,127
18238,note_off,110,0,0,,7,,,43,127
18239,note_off,1,0,0,,2,,,62,127
18241,note_off,2,0,0,,12,,,59,127
18242,note_on,1,0,0,,0,,,72,127
18242,note_on,0,0,0,,4,,,76,127
18242,note_on,0,0,0,,7,,,55,127
18356,note_on,114,0,0,,0,,,60,127
18469,note_off,113,0,0,,7,,,55,127
18470,note_on,1,0,0,,4,,,64,127
18580,note_off,110,0,0,,4,,,76,127
18580,note_off,0,0,0,,0,,,72,127
18583,note_off,3,0,0,,0,,,60,127
18584,note_on,1,0,0,,7,,,43,127
18584,note_on,0,0,0,,7,,,55,127
18697,note_off,113,0,0,,4,,,64,127
18698,note_on,1,0,0,,0,,,60,127
18811,note_off,113,0,0,,7,,,55,127
18812,note_on,1,0,0,,4,,,64,127
18922,note_off,110,0,0,,7,,,43,127
18923,note_off,1,0,0,,4,,,64,127
18925,note_off,2,0,0,,0,,,60,127
18926,note_on,1,0,0,,2,,,74,127
18926,note_on,0,0,0,,12,,,71,127
18926,note_on,0,0,0,,7,,,55,127
19040,note_on,114,0,0,,12,,,59,127
19153,note_off,113,0,0,,7,,,55,127
19154,note_on,1,0,0,,2,,,62,127
19264,note_off,110,0,0,,12,,,71,127
19264,note_off,0,0,0,,2,,,74,127
19267,note_off,3,0,0,,12,,,59,127
19268,note_on,1,0,0,,7,,,43,127
19268,note_on,0,0,0,,7,,,55,127
19381,note_off,113,0,0,,2,,,62,127
19382,note_on,1,0,0,,12,,,59,127
19495,note_off,113,0,0,,7,,,55,127
19496,note_on,1,0,0,,2,,,62,127
19606,note_off,110,0,0,,7,,,43,127
19607,note_off,1,0,0,,2,,,62,127
19609,note_off,2,0,0,,12,,,59,127
19610,note_on,1,0,0,,0,,,72,127
19610,note_on,0,0,0,,4,,,76,127
19610,note_on,0,0,0,,7,,,55,127
19724,note_on,114,0,0,,0,,,60,127
19837,note_off,113,0,0,,7,,,55,127
19838,note_on,1,0,0,,4,,,64,127
19948,note_off,110,0,0,,4,,,76,127
19948,note_off,0,0,0,,0,,,72,127
19951,note_off,3,0,0,,0,,,60,127
19952,note_on,1,0,0,,7,,,43,127
19952,note_on,0,0,0,,7,,,55,127
20065,note_off,113,0,0,,4,,,64,127
20066,note_on,1,0,0,,0,,,60,127
20179,note_off,113,0,0,,7,,,55,127
20180,note_on,1,0,0,,4,,,64,127
20290,note_off,110,0,0,,7,,,43,127
20291,note_off,1,0,0,,4,,,64,127
20293,note_off,2,0,0,,0,,,60,127
20294,note_on,1,0,0,,2,,,74,127
20294,note_on,0,0,0,,5,,,77,127
20294,note_on,0,0,0,,7,,,55,127
20408,note_on,114,0,0,,12,,,59,127
20521,note_off,113,0,0,,7,,,55,127
20522,note_on,1,0,0,,2,,,62,127
20632,note_off,110,0,0,,5,,,77,127
20632,note_off,0,0,0,,2,,,74,127
20635,note_off,3,0,0,,12,,,59,127
20636,note_on,1,0,0,,7,,,43,127
20636,note_on,0,0,0,,7,,,55,127
20749,note_off,113,0,0,,2,,,62,127
20750,note_on,1,0,0,,12,,,59,127
20863,note_off,113,0,0,,7,,,55,127
20864,note_on,1,0,0,,2,,,62,127
20974,note_off,110,0,0,,7,,,43,127
20975,note_off,1,0,0,,2,,,62,127
20977,note_off,2,0,0,,12,,,59,127
20978,note_on,1,0,0,,0,,,72,127
20978,note_on,0,0,0,,4,,,76,127
20978,note_on,0,0,0,,7,,,55,127
21092,note_on,114,0,0,,0,,,60,127
21205,note_off,113,0,0,,7,,,55,127
21206,note_on,1,0,0,,4,,,64,127
21316,note_off,110,0,0,,4,,,76,127
21316,note_off,0,0,0,,0,,,72,127
21319,note_off,3,0,0,,0,,,60,127
21320,note_on,1,0,0,,7,,,43,127
21320,note_on,0,0,0,,7,,,55,127
21433,note_off,113,0,0,,4,,,64,127
21437,note_on,4,0,0,,0,,,60,127
21546,note_off,109,0,0,,7,,,55,127
21556,note_on,10,0,0,,4,,,64,127
21657,note_off,101,0,0,,7,,,43,127
21663,note_off,6,0,0,,0,,,60,127
21667,note_off,4,0,0,,4,,,64,127
21685,note_on,18,0,0,,7,,,43,127
21685,note_on,0,0,0,,7,,,55,127
21685,note_on,0,0,0,,12,,,59,127
21685,note_on,0,0,0,,2,,,62,127
22660,note_off,975,0,0,,2,,,62,127
22660,note_off,0,0,0,,12,,,59,127
22660,note_off,0,0,0,,7,,,55,127
22660,note_off,0,0,0,,7,,,43,127
23033,note_on,373,0,0,,7,,,67,127
23033,note_on,0,0,0,,4,,,52,127
23147,note_on,114,0,0,,7,,,55,127
23260,note_off,113,0,0,,4,,,52,127
23261,note_on,1,0,0,,0,,,60,127
23280,note_off,19,0,0,,7,,,67,127
23374,note_off,94,0,0,,7,,,55,127
23375,note_on,1,0,0,,10,,,69,127
23375,note_on,0,0,0,,4,,,52,127
23485,note_off,110,0,0,,10,,,69,127
23488,note_off,3,0,0,,0,,,60,127
23489,note_on,1,0,0,,11,,,70,127
23489,note_on,0,0,0,,7,,,55,127
23599,note_off,110,0,0,,11,,,70,127
23602,note_off,3,0,0,,4,,,52,127
23603,note_on,1,0,0,,0,,,72,127
23603,note_on,0,0,0,,0,,,60,127
23713,note_off,110,0,0,,0,,,72,127
23716,note_off,3,0,0,,7,,,55,127
23717,note_on,1,0,0,,11,,,70,127
23717,note_on,0,0,0,,4,,,52,127
23830,note_off,113,0,0,,0,,,60,127
23831,note_on,1,0,0,,7,,,55,127
23944,note_off,113,0,0,,4,,,52,127
23945,note_on,1,0,0,,0,,,60,127
24055,note_off,110,0,0,,11,,,70,127
24058,note_off,3,0,0,,7,,,55,127
24059,note_on,1,0,0,,0,,,48,127
24059,note_on,0,0,0,,4,,,52,127
24172,note_off,113,0,0,,0,,,60,127
24173,note_on,1,0,0,,7,,,55,127
24286,note_off,113,0,0,,4,,,52,127
24287,note_on,1,0,0,,0,,,60,127
24397,note_off,110,0,0,,0,,,48,127
24400,note_off,3,0,0,,7,,,55,127
24401,note_on,1,0,0,,0,,,72,127
24401,note_on,0,0,0,,4,,,52,127
24458,note_on,57,0,0,,11,,,70,127
24459,note_off,1,0,0,,0,,,72,127
24514,note_off,55,0,0,,0,,,60,127
24515,note_on,1,0,0,,0,,,72,127
24515,note_on,0,0,0,,7,,,55,127
24516,note_off,1,0,0,,11,,,70,127
24572,note_on,56,0,0,,11,,,70,127
24573,note_off,1,0,0,,0,,,72,127
24628,note_off,55,0,0,,4,,,52,127
24629,note_on,1,0,0,,10,,,69,127
24629,note_on,0,0,0,,0,,,60,127
24630,note_off,1,0,0,,11,,,70,127
24686,note_on,56,0,0,,11,,,70,127
24687,note_off,1,0,0,,10,,,69,127
24742,note_off,55,0,0,,7,,,55,127
24743,note_on,1,0,0,,10,,,69,127
24743,note_on,0,0,0,,5,,,53,127
24744,note_off,1,0,0,,11,,,70,127
24856,note_off,112,0,0,,0,,,60,127
24857,note_on,1,0,0,,10,,,57,127
24970,note_off,113,0,0,,5,,,53,127
24971,note_on,1,0,0,,0,,,60,127
25081,note_off,110,0,0,,10,,,69,127
25084,note_off,3,0,0,,10,,,57,127
25085,note_on,1,0,0,,0,,,48,127
25085,note_on,0,0,0,,5,,,53,127
25198,note_off,113,0,0,,0,,,60,127
25199,note_on,1,0,0,,10,,,57,127
25312,note_off,113,0,0,,5,,,53,127
25313,note_on,1,0,0,,0,,,60,127
25423,note_off,110,0,0,,0,,,48,127
25426,note_off,3,0,0,,10,,,57,127
25427,note_on,1,0,0,,5,,,41,127
25427,note_on,0,0,0,,5,,,53,127
25540,note_off,113,0,0,,0,,,60,127
25541,note_on,1,0,0,,10,,,57,127
25654,note_off,113,0,0,,5,,,53,127
25655,note_on,1,0,0,,0,,,60,127
25765,note_off,110,0,0,,5,,,41,127
25768,note_off,3,0,0,,10,,,57,127
25769,note_on,1,0,0,,10,,,69,127
25769,note_on,0,0,0,,5,,,53,127
25882,note_off,113,0,0,,0,,,60,127
25883,note_on,1,0,0,,10,,,57,127
25996,note_off,113,0,0,,5,,,53,127
25997,note_on,1,0,0,,0,,,60,127
26016,note_off,19,0,0,,10,,,69,127
26110,note_off,94,0,0,,10,,,57,127
26118,note_on,8,0,0,,2,,,74,127
26118,note_on,0,0,0,,6,,,54,127
26224,note_off,106,0,0,,0,,,60,127
26232,note_on,8,0,0,,10,,,57,127
26345,note_off,113,0,0,,6,,,54,127
26346,note_on,1,0,0,,2,,,62,127
26456,note_off,110,0,0,,2,,,74,127
26459,note_off,3,0,0,,10,,,57,127
26460,note_on,1,0,0,,0,,,72,127
26460,note_on,0,0,0,,6,,,54,127
26573,note_off,113,0,0,,2,,,62,127
26574,note_on,1,0,0,,10,,,57,127
26687,note_off,113,0,0,,6,,,54,127
26688,note_on,1,0,0,,2,,,62,127
26798,note_off,110,0,0,,0,,,72,127
26801,note_off,3,0,0,,10,,,57,127
26802,note_on,1,0,0,,2,,,50,127
26802,note_on,0,0,0,,6,,,54,127
26915,note_off,113,0,0,,2,,,62,127
26916,note_on,1,0,0,,10,,,57,127
27029,note_off,113,0,0,,6,,,54,127
27030,note_on,1,0,0,,2,,,62,127
27140,note_off,110,0,0,,2,,,50,127
27143,note_off,3,0,0,,10,,,57,127
27144,note_on,1,0,0,,2,,,74,127
27144,note_on,0,0,0,,6,,,54,127
27201,note_on,57,0,0,,0,,,72,127
27202,note_off,1,0,0,,2,,,74,127
27257,note_off,55,0,0,,2,,,62,127
27258,note_on,1,0,0,,2,,,74,127
27258,note_on,0,0,0,,10,,,57,127
27259,note_off,1,0,0,,0,,,72,127
27315,note_on,56,0,0,,0,,,72,127
27316,note_off,1,0,0,,2,,,74,127
27371,note_off,55,0,0,,6,,,54,127
27372,note_on,1,0,0,,12,,,71,127
27372,note_on,0,0,0,,2,,,62,127
27373,note_off,1,0,0,,0,,,72,127
27429,note_on,56,0,0,,0,,,72,127
27430,note_off,1,0,0,,12,,,71,127
27485,note_off,55,0,0,,10,,,57,127
27486,note_on,1,0,0,,12,,,71,127
27486,note_on,0,0,0,,7,,,55,127
27487,note_off,1,0,0,,0,,,72,127
27599,note_off,112,0,0,,2,,,62,127
27600,note_on,1,0,0,,12,,,59,127
27713,note_off,113,0,0,,7,,,55,127
27714,note_on,1,0,0,,2,,,62,127
27824,note_off,110,0,0,,12,,,71,127
27827,note_off,3,0,0,,12,,,59,127
27828,note_on,1,0,0,,2,,,50,127
27828,note_on,0,0,0,,7,,,55,127
27941,note_off,113,0,0,,2,,,62,127
27942,note_on,1,0,0,,12,,,59,127
28055,note_off,113,0,0,,7,,,55,127
28056,note_on,1,0,0,,2,,,62,127
28166,note_off,110,0,0,,2,,,50,127
28169,note_off,3,0,0,,12,,,59,127
28170,note_on,1,0,0,,7,,,43,127
28170,note_on,0,0,0,,7,,,55,127
28283,note_off,113,0,0,,2,,,62,127
28284,note_on,1,0,0,,12,,,59,127
28397,note_off,113,0,0,,7,,,55,127
28398,note_on,1,0,0,,2,,,62,127
28508,note_off,110,0,0,,7,,,43,127
28511,note_off,3,0,0,,12,,,59,127
28512,note_on,1,0,0,,2,,,74,127
28512,note_on,0,0,0,,7,,,55,127
28625,note_off,113,0,0,,2,,,62,127
28626,note_on,1,0,0,,12,,,59,127
28739,note_off,113,0,0,,7,,,55,127
28740,note_on,1,0,0,,2,,,62,127
28759,note_off,19,0,0,,2,,,74,127
28853,note_off,94,0,0,,12,,,59,127
28861,note_on,8,0,0,,7,,,79,127
28861,note_on,0,0,0,,12,,,59,127
28967,note_off,106,0,0,,2,,,62,127
28975,note_on,8,0,0,,2,,,62,127
29088,note_off,113,0,0,,12,,,59,127
29089,note_on,1,0,0,,7,,,67,127
29199,note_off,110,0,0,,7,,,79,127
29202,note_off,3,0,0,,2,,,62,127
29203,note_on,1,0,0,,5,,,77,127
29203,note_on,0,0,0,,12,,,59,127
29316,note_off,113,0,0,,7,,,67,127
29317,note_on,1,0,0,,2,,,62,127
29430,note_off,113,0,0,,12,,,59,127
29431,note_on,1,0,0,,7,,,67,127
29541,note_off,110,0,0,,5,,,77,127
29544,note_off,3,0,0,,2,,,62,127
29545,note_on,1,0,0,,7,,,55,127
29545,note_on,0,0,0,,12,,,59,127
29658,note_off,113,0,0,,7,,,67,127
29659,note_on,1,0,0,,2,,,62,127
29772,note_off,113,0,0,,12,,,59,127
29773,note_on,1,0,0,,7,,,67,127
29883,note_off,110,0,0,,7,,,55,127
29886,note_off,3,0,0,,2,,,62,127
29887,note_on,1,0,0,,7,,,79,127
29887,note_on,0,0,0,,12,,,59,127
29944,note_on,57,0,0,,5,,,77,127
29945,note_off,1,0,0,,7,,,79,127
30000,note_off,55,0,0,,7,,,67,127
30001,note_on,1,0,0,,7,,,79,127
30001,note_on,0,0,0,,2,,,62,127
30002,note_off,1,0,0,,5,,,77,127
30058,note_on,56,0,0,,5,,,77,127
30059,note_off,1,0,0,,7,,,79,127
30114,note_off,55,0,0,,12,,,59,127
30115,note_on,1,0,0,,4,,,76,127
30115,note_on,0,0,0,,7,,,67,127
30116,note_off,1,0,0,,5,,,77,127
30172,note_on,56,0,0,,5,,,77,127
30173,note_off,1,0,0,,4,,,76,127
30228,note_off,55,0,0,,2,,,62,127
30229,note_on,1,0,0,,4,,,76,127
30229,note_on,0,0,0,,0,,,60,127
30230,note_off,1,0,0,,5,,,77,127
30342,note_off,112,0,0,,7,,,67,127
30343,note_on,1,0,0,,4,,,64,127
30456,note_off,113,0,0,,0,,,60,127
30457,note_on,1,0,0,,7,,,67,127
30567,note_off,110,0,0,,4,,,76,127
30570,note_off,3,0,0,,4,,,64,127
30571,note_on,1,0,0,,7,,,55,127
30571,note_on,0,0,0,,0,,,60,127
30684,note_off,113,0,0,,7,,,67,127
30685,note_on,1,0,0,,4,,,64,127
30798,note_off,113,0,0,,0,,,60,127
30799,note_on,1,0,0,,7,,,67,127
30909,note_off,110,0,0,,7,,,55,127
30912,note_off,3,0,0,,4,,,64,127
30913,note_on,1,0,0,,0,,,48,127
30913,note_on,0,0,0,,0,,,60,127
31026,note_off,113,0,0,,7,,,67,127
31027,note_on,1,0,0,,4,,,64,127
31140,note_off,113,0,0,,0,,,60,127
31141,note_on,1,0,0,,7,,,67,127
31251,note_off,110,0,0,,0,,,48,127
31254,note_off,3,0,0,,4,,,64,127
31262,note_on,8,0,0,,10,,,81,127
31262,note_on,0,0,0,,0,,,60,127
31344,note_off,82,0,0,,10,,,81,127
31348,note_on,4,0,0,,7,,,79,127
31368,note_off,20,0,0,,7,,,67,127
31376,note_on,8,0,0,,4,,,64,127
31429,note_off,53,0,0,,7,,,79,127
31433,note_on,4,0,0,,5,,,77,127
31489,note_off,56,0,0,,0,,,60,127
31490,note_on,1,0,0,,7,,,67,127
31515,note_off,25,0,0,,5,,,77,127
31519,note_on,4,0,0,,7,,,79,127
31601,note_off,82,0,0,,7,,,79,127
31602,note_off,1,0,0,,7,,,67,127
31604,note_off,2,0,0,,4,,,64,127
31605,note_on,1,0,0,,10,,,81,127
31605,note_on,0,0,0,,5,,,65,127
31719,note_on,114,0,0,,10,,,69,127
31832,note_off,113,0,0,,5,,,65,127
31833,note_on,1,0,0,,0,,,72,127
31943,note_off,110,0,0,,10,,,81,127
31946,note_off,3,0,0,,10,,,69,127
31947,note_on,1,0,0,,0,,,60,127
31947,note_on,0,0,0,,5,,,65,127
32060,note_off,113,0,0,,0,,,72,127
32061,note_on,1,0,0,,10,,,69,127
32174,note_off,113,0,0,,5,,,65,127
32175,note_on,1,0,0,,0,,,72,127
32285,note_off,110,0,0,,0,,,60,127
32288,note_off,3,0,0,,10,,,69,127
32289,note_on,1,0,0,,5,,,53,127
32289,note_on,0,0,0,,5,,,65,127
32402,note_off,113,0,0,,0,,,72,127
32403,note_on,1,0,0,,10,,,69,127
32516,note_off,113,0,0,,5,,,65,127
32517,note_on,1,0,0,,0,,,72,127
32627,note_off,110,0,0,,5,,,53,127
32630,note_off,3,0,0,,10,,,69,127
32638,note_on,8,0,0,,12,,,83,127
32638,note_on,0,0,0,,5,,,65,127
32720,note_off,82,0,0,,12,,,83,127
32724,note_on,4,0,0,,10,,,81,127
32744,note_off,20,0,0,,0,,,72,127
32752,note_on,8,0,0,,10,,,69,127
32805,note_off,53,0,0,,10,,,81,127
32809,note_on,4,0,0,,7,,,79,127
32865,note_off,56,0,0,,5,,,65,127
32866,note_on,1,0,0,,0,,,72,127
32891,note_off,25,0,0,,7,,,79,127
32895,note_on,4,0,0,,10,,,81,127
32977,note_off,82,0,0,,10,,,81,127
32980,note_off,3,0,0,,10,,,69,127
32981,note_on,1,0,0,,7,,,79,127
32981,note_on,0,0,0,,4,,,64,127
33094,note_off,113,0,0,,0,,,72,127
33095,note_on,1,0,0,,7,,,67,127
33208,note_off,113,0,0,,4,,,64,127
33209,note_on,1,0,0,,0,,,72,127
33319,note_off,110,0,0,,7,,,79,127
33322,note_off,3,0,0,,7,,,67,127
33323,note_on,1,0,0,,0,,,60,127
33323,note_on,0,0,0,,4,,,64,127
33436,note_off,113,0,0,,0,,,72,127
33437,note_on,1,0,0,,7,,,67,127
33550,note_off,113,0,0,,4,,,64,127
33551,note_on,1,0,0,,0,,,72,127
33661,note_off,110,0,0,,0,,,60,127
33664,note_off,3,0,0,,7,,,67,127
33665,note_on,1,0,0,,4,,,52,127
33665,note_on,0,0,0,,4,,,64,127
33778,note_off,113,0,0,,0,,,72,127
33779,note_on,1,0,0,,7,,,67,127
33892,note_off,113,0,0,,4,,,64,127
33893,note_on,1,0,0,,0,,,72,127
34003,note_off,110,0,0,,4,,,52,127
34006,note_off,3,0,0,,7,,,67,127
34014,note_on,8,0,0,,10,,,81,127
34014,note_on,0,0,0,,4,,,64,127
34085,note_on,71,0,0,,7,,,79,127
34096,note_off,11,0,0,,10,,,81,127
34114,note_on,18,0,0,,7,,,67,127
34120,note_off,6,0,0,,0,,,72,127
34167,note_off,47,0,0,,7,,,79,127
34171,note_on,4,0,0,,5,,,77,127
34228,note_on,57,0,0,,0,,,72,127
34241,note_off,13,0,0,,4,,,64,127
34253,note_off,12,0,0,,5,,,77,127
34257,note_on,4,0,0,,7,,,79,127
34339,note_off,82,0,0,,7,,,79,127
34342,note_off,3,0,0,,7,,,67,127
34343,note_on,1,0,0,,2,,,62,127
34343,note_on,0,0,0,,5,,,77,127
34456,note_off,113,0,0,,0,,,72,127
34457,note_on,1,0,0,,5,,,65,127
34570,note_off,113,0,0,,2,,,62,127
34571,note_on,1,0,0,,12,,,71,127
34681,note_off,110,0,0,,5,,,77,127
34684,note_off,3,0,0,,5,,,65,127
34685,note_on,1,0,0,,2,,,62,127
34685,note_on,0,0,0,,0,,,60,127
34798,note_off,113,0,0,,12,,,71,127
34799,note_on,1,0,0,,5,,,65,127
34912,note_off,113,0,0,,2,,,62,127
34913,note_on,1,0,0,,12,,,71,127
35023,note_off,110,0,0,,0,,,60,127
35026,note_off,3,0,0,,5,,,65,127
35027,note_on,1,0,0,,2,,,62,127
35027,note_on,0,0,0,,2,,,50,127
35140,note_off,113,0,0,,12,,,71,127
35141,note_on,1,0,0,,5,,,65,127
35254,note_off,113,0,0,,2,,,62,127
35255,note_on,1,0,0,,12,,,71,127
35365,note_off,110,0,0,,2,,,50,127
35368,note_off,3,0,0,,5,,,65,127
35376,note_on,8,0,0,,2,,,62,127
35376,note_on,0,0,0,,7,,,79,127
35458,note_off,82,0,0,,7,,,79,127
35462,note_on,4,0,0,,5,,,77,127
35482,note_off,20,0,0,,12,,,71,127
35490,note_on,8,0,0,,5,,,65,127
35543,note_off,53,0,0,,5,,,77,127
35547,note_on,4,0,0,,4,,,76,127
35603,note_off,56,0,0,,2,,,62,127
35604,note_on,1,0,0,,12,,,71,127
35629,note_off,25,0,0,,4,,,76,127
35633,note_on,4,0,0,,5,,,77,127
35715,note_off,82,0,0,,5,,,77,127
35716,note_off,1,0,0,,12,,,71,127
35718,note_off,2,0,0,,5,,,65,127
35719,note_on,1,0,0,,4,,,76,127
35719,note_on,0,0,0,,0,,,60,127
35835,note_on,116,0,0,,4,,,64,127
35946,note_off,111,0,0,,0,,,60,127
35950,note_on,4,0,0,,7,,,67,127
36058,note_off,108,0,0,,4,,,76,127
36062,note_off,4,0,0,,4,,,64,127
36065,note_on,3,0,0,,0,,,72,127
36065,note_on,0,0,0,,4,,,52,127
36177,note_off,112,0,0,,7,,,67,127
36181,note_on,4,0,0,,7,,,55,127
36292,note_off,111,0,0,,4,,,52,127
36296,note_on,4,0,0,,0,,,60,127
36404,note_off,108,0,0,,0,,,72,127
36408,note_off,4,0,0,,7,,,55,127
36411,note_on,3,0,0,,2,,,50,127
36411,note_on,0,0,0,,5,,,53,127
36523,note_off,112,0,0,,0,,,60,127
36526,note_on,3,0,0,,10,,,57,127
36638,note_off,112,0,0,,5,,,53,127
36642,note_on,4,0,0,,2,,,62,127
36750,note_off,108,0,0,,2,,,50,127
36754,note_off,4,0,0,,10,,,57,127
36758,note_on,4,0,0,,0,,,72,127
36758,note_on,0,0,0,,7,,,55,127
36816,note_off,58,0,0,,0,,,72,127
36816,note_on,0,0,0,,12,,,71,127
36870,note_off,54,0,0,,2,,,62,127
36873,note_on,3,0,0,,0,,,72,127
36873,note_on,0,0,0,,12,,,59,127
36874,note_off,1,0,0,,12,,,71,127
36931,note_off,57,0,0,,0,,,72,127
36931,note_on,0,0,0,,12,,,71,127
36985,note_off,54,0,0,,7,,,55,127
36989,note_off,4,0,0,,12,,,71,127
36989,note_on,0,0,0,,10,,,69,127
36989,note_on,0,0,0,,2,,,62,127
37046,note_on,57,0,0,,12,,,71,127
37047,note_off,1,0,0,,10,,,69,127
37100,note_off,53,0,0,,2,,,62,127
37100,note_off,0,0,0,,12,,,59,127
37104,note_off,4,0,0,,12,,,71,127
37106,note_on,2,0,0,,0,,,72,127
37106,note_on,0,0,0,,0,,,60,127
37235,note_on,129,0,0,,4,,,64,127
37333,note_off,98,0,0,,0,,,60,127
37365,note_on,32,0,0,,7,,,67,127
37462,note_off,97,0,0,,4,,,64,127
37467,note_off,5,0,0,,0,,,72,127
37499,note_on,32,0,0,,0,,,60,127
37499,note_on,0,0,0,,0,,,48,127
37591,note_off,92,0,0,,7,,,67,127
37635,note_on,44,0,0,,4,,,64,127
37726,note_off,91,0,0,,0,,,60,127
37770,note_on,44,0,0,,7,,,67,127
37862,note_off,92,0,0,,4,,,64,127
37903,note_off,41,0,0,,7,,,67,127
37903,note_off,0,0,0,,0,,,48,127
37926,note_on,23,0,0,,0,,,36,127
37926,note_on,0,0,0,,0,,,48,127
39635,note_off,1709,0,0,,0,,,48,127
39635,note_off,0,0,0,,0,,,36,127
44544,end_of_track,4909,1,0,,,,,,
