tick,type,time,meta,track,program,channel,pitch,tempo,note,velocity
0,copyright,0,1,0,,,,,,
0,program_change,0,0,0,6,0,,,,
0,pitchwheel,0,0,0,,0,0,,,
0,program_change,0,0,0,6,1,,,,
0,pitchwheel,0,0,0,,1,-590,,,
0,program_change,0,0,0,6,2,,,,
0,pitchwheel,0,0,0,,2,-272,,,
0,program_change,0,0,0,6,3,,,,
0,pitchwheel,0,0,0,,3,-353,,,
0,program_change,0,0,0,6,4,,,,
0,pitchwheel,0,0,0,,4,-560,,,
0,program_change,0,0,0,6,5,,,,
0,pitchwheel,0,0,0,,5,-80,,,
0,program_change,0,0,0,6,6,,,,
0,pitchwheel,0,0,0,,6,-625,,,
0,program_change,0,0,0,6,7,,,,
0,pitchwheel,0,0,0,,7,-130,,,
0,program_change,0,0,0,6,8,,,,
0,pitchwheel,0,0,0,,8,-512,,,
0,program_change,0,0,0,6,10,,,,
0,pitchwheel,0,0,0,,10,-464,,,
0,program_change,0,0,0,6,11,,,,
0,pitchwheel,0,0,0,,11,-208,,,
0,program_change,0,0,0,6,12,,,,
0,pitchwheel,0,0,0,,12,-553,,,
0,set_tempo,0,1,0,,,,500000,,
110,note_on,110,0,0,,6,,,78,127
110,note_on,0,0,0,,10,,,81,127
328,note_off,218,0,0,,10,,,81,127
328,note_off,0,0,0,,6,,,78,127
329,note_on,1,0,0,,2,,,74,127
329,note_on,0,0,0,,6,,,78,127
547,note_off,218,0,0,,6,,,78,127
547,note_off,0,0,0,,2,,,74,127
548,note_on,1,0,0,,10,,,69,127
548,note_on,0,0,0,,4,,,76,127
766,note_off,218,0,0,,4,,,76,127
766,note_off,0,0,0,,10,,,69,127
767,note_on,1,0,0,,2,,,74,127
767,note_on,0,0,0,,6,,,66,127
985,note_off,218,0,0,,6,,,66,127
985,note_off,0,0,0,,2,,,74,127
986,note_on,1,0,0,,6,,,66,127
986,note_on,0,0,0,,2,,,74,127
1204,note_off,218,0,0,,2,,,74,127
1204,note_off,0,0,0,,6,,,66,127
1205,note_on,1,0,0,,4,,,76,127
1205,note_on,0,0,0,,10,,,69,127
1423,note_off,218,0,0,,10,,,69,127
1423,note_off,0,0,0,,4,,,76,127
1424,note_on,1,0,0,,6,,,66,127
1424,note_on,0,0,0,,2,,,74,127
1642,note_off,218,0,0,,2,,,74,127
1642,note_off,0,0,0,,6,,,66,127
1643,note_on,1,0,0,,6,,,66,127
1643,note_on,0,0,0,,2,,,74,127
1861,note_off,218,0,0,,2,,,74,127
1861,note_off,0,0,0,,6,,,66,127
1862,note_on,1,0,0,,10,,,69,127
1862,note_on,0,0,0,,4,,,76,127
2080,note_off,218,0,0,,4,,,76,127
2080,note_off,0,0,0,,10,,,69,127
2081,note_on,1,0,0,,6,,,66,127
2081,note_on,0,0,0,,2,,,74,127
2299,note_off,218,0,0,,2,,,74,127
2299,note_off,0,0,0,,6,,,66,127
2300,note_on,1,0,0,,6,,,66,127
2300,note_on,0,0,0,,2,,,74,127
2518,note_off,218,0,0,,2,,,74,127
2518,note_off,0,0,0,,6,,,66,127
2519,note_on,1,0,0,,10,,,69,127
2519,note_on,0,0,0,,4,,,76,127
2737,note_off,218,0,0,,4,,,76,127
2737,note_off,0,0,0,,10,,,69,127
2738,note_on,1,0,0,,6,,,78,127
2738,note_on,0,0,0,,2,,,74,127
2956,note_off,218,0,0,,2,,,74,127
2956,note_off,0,0,0,,6,,,78,127
2957,note_on,1,0,0,,4,,,76,127
2957,note_on,0,0,0,,7,,,79,127
3175,note_off,218,0,0,,7,,,79,127
3175,note_off,0,0,0,,4,,,76,127
3176,note_on,1,0,0,,10,,,81,127
3176,note_on,0,0,0,,6,,,78,127
3394,note_off,218,0,0,,6,,,78,127
3394,note_off,0,0,0,,10,,,81,127
3395,note_on,1,0,0,,10,,,69,127
3395,note_on,0,0,0,,6,,,78,127
3449,note_off,54,0,0,,6,,,78,127
3450,note_on,1,0,0,,4,,,76,127
3504,note_off,54,0,0,,4,,,76,127
3505,note_on,1,0,0,,6,,,78,127
3559,note_off,54,0,0,,6,,,78,127
3560,note_on,1,0,0,,4,,,76,127
4053,note_off,493,0,0,,4,,,76,127
4053,note_off,0,0,0,,10,,,69,127
4054,note_on,1,0,0,,6,,,78,127
4054,note_on,0,0,0,,2,,,74,127
4272,note_off,218,0,0,,2,,,74,127
4272,note_off,0,0,0,,6,,,78,127
4273,note_on,1,0,0,,7,,,79,127
4273,note_on,0,0,0,,4,,,76,127
4491,note_off,218,0,0,,4,,,76,127
4491,note_off,0,0,0,,7,,,79,127
4492,note_on,1,0,0,,10,,,81,127
4492,note_on,0,0,0,,6,,,78,127
4710,note_off,218,0,0,,6,,,78,127
4710,note_off,0,0,0,,10,,,81,127
4711,note_on,1,0,0,,10,,,69,127
4711,note_on,0,0,0,,6,,,78,127
4765,note_off,54,0,0,,6,,,78,127
4766,note_on,1,0,0,,4,,,76,127
4820,note_off,54,0,0,,4,,,76,127
4821,note_on,1,0,0,,6,,,78,127
4875,note_off,54,0,0,,6,,,78,127
4876,note_on,1,0,0,,4,,,76,127
5369,note_off,493,0,0,,4,,,76,127
5369,note_off,0,0,0,,10,,,69,127
5370,note_on,1,0,0,,6,,,78,127
5370,note_on,0,0,0,,2,,,74,127
5588,note_off,218,0,0,,2,,,74,127
5588,note_off,0,0,0,,6,,,78,127
5589,note_on,1,0,0,,7,,,79,127
5589,note_on,0,0,0,,4,,,76,127
5807,note_off,218,0,0,,4,,,76,127
5807,note_off,0,0,0,,7,,,79,127
5808,note_on,1,0,0,,10,,,81,127
5808,note_on,0,0,0,,6,,,78,127
6026,note_off,218,0,0,,6,,,78,127
6026,note_off,0,0,0,,10,,,81,127
6027,note_on,1,0,0,,10,,,69,127
6027,note_on,0,0,0,,6,,,78,127
6081,note_off,54,0,0,,6,,,78,127
6082,note_on,1,0,0,,4,,,76,127
6136,note_off,54,0,0,,4,,,76,127
6137,note_on,1,0,0,,6,,,78,127
6191,note_off,54,0,0,,6,,,78,127
6192,note_on,1,0,0,,4,,,76,127
6685,note_off,493,0,0,,4,,,76,127
6685,note_off,0,0,0,,10,,,69,127
6686,note_on,1,0,0,,2,,,50,127
6905,note_on,219,0,0,,2,,,62,127
6905,note_on,0,0,0,,4,,,76,127
6960,note_on,55,0,0,,2,,,74,127
6977,note_off,17,0,0,,4,,,76,127
7015,note_on,38,0,0,,4,,,76,127
7032,note_off,17,0,0,,2,,,74,127
7070,note_on,38,0,0,,2,,,74,127
7087,note_off,17,0,0,,4,,,76,127
7124,note_off,37,0,0,,2,,,62,127
7124,note_off,0,0,0,,2,,,50,127
7125,note_on,1,0,0,,12,,,59,127
7125,note_on,0,0,0,,7,,,55,127
7125,note_on,0,0,0,,4,,,76,127
7142,note_off,17,0,0,,2,,,74,127
7180,note_on,38,0,0,,2,,,74,127
7197,note_off,17,0,0,,4,,,76,127
7235,note_on,38,0,0,,4,,,76,127
7252,note_off,17,0,0,,2,,,74,127
7290,note_on,38,0,0,,2,,,74,127
7307,note_off,17,0,0,,4,,,76,127
7344,note_off,37,0,0,,7,,,55,127
7344,note_off,0,0,0,,12,,,59,127
7345,note_on,1,0,0,,6,,,54,127
7345,note_on,0,0,0,,10,,,57,127
7345,note_on,0,0,0,,4,,,76,127
7362,note_off,17,0,0,,2,,,74,127
7400,note_on,38,0,0,,2,,,74,127
7417,note_off,17,0,0,,4,,,76,127
7455,note_on,38,0,0,,4,,,76,127
7472,note_off,17,0,0,,2,,,74,127
7510,note_on,38,0,0,,2,,,74,127
7527,note_off,17,0,0,,4,,,76,127
7564,note_off,37,0,0,,10,,,57,127
7565,note_on,1,0,0,,2,,,62,127
7565,note_on,0,0,0,,4,,,76,127
7582,note_off,17,0,0,,2,,,74,127
7620,note_on,38,0,0,,2,,,74,127
7637,note_off,17,0,0,,4,,,76,127
7675,note_on,38,0,0,,4,,,76,127
7692,note_off,17,0,0,,2,,,74,127
7730,note_on,38,0,0,,2,,,74,127
7747,note_off,17,0,0,,4,,,76,127
7784,note_off,37,0,0,,2,,,62,127
7784,note_off,0,0,0,,6,,,54,127
7785,note_on,1,0,0,,7,,,55,127
7785,note_on,0,0,0,,4,,,52,127
7785,note_on,0,0,0,,4,,,76,127
7802,note_off,17,0,0,,2,,,74,127
7840,note_on,38,0,0,,2,,,74,127
7857,note_off,17,0,0,,4,,,76,127
7895,note_on,38,0,0,,4,,,76,127
7912,note_off,17,0,0,,2,,,74,127
7950,note_on,38,0,0,,2,,,74,127
7967,note_off,17,0,0,,4,,,76,127
8004,note_off,37,0,0,,4,,,52,127
8004,note_off,0,0,0,,7,,,55,127
8005,note_on,1,0,0,,2,,,50,127
8005,note_on,0,0,0,,6,,,54,127
8005,note_on,0,0,0,,4,,,76,127
8022,note_off,17,0,0,,2,,,74,127
8060,note_on,38,0,0,,2,,,74,127
8077,note_off,17,0,0,,4,,,76,127
8115,note_on,38,0,0,,4,,,76,127
8132,note_off,17,0,0,,2,,,74,127
8170,note_on,38,0,0,,2,,,74,127
8187,note_off,17,0,0,,4,,,76,127
8224,note_off,37,0,0,,6,,,54,127
8225,note_on,1,0,0,,2,,,62,127
8225,note_on,0,0,0,,7,,,79,127
8225,note_on,0,0,0,,4,,,76,127
8242,note_off,17,0,0,,2,,,74,127
8280,note_on,38,0,0,,6,,,78,127
8280,note_on,0,0,0,,2,,,74,127
8297,note_off,17,0,0,,4,,,76,127
8297,note_off,0,0,0,,7,,,79,127
8335,note_on,38,0,0,,4,,,76,127
8335,note_on,0,0,0,,7,,,79,127
8352,note_off,17,0,0,,2,,,74,127
8352,note_off,0,0,0,,6,,,78,127
8390,note_on,38,0,0,,6,,,78,127
8390,note_on,0,0,0,,2,,,74,127
8407,note_off,17,0,0,,7,,,79,127
8407,note_off,0,0,0,,4,,,76,127
8444,note_off,37,0,0,,2,,,62,127
8444,note_off,0,0,0,,2,,,50,127
8445,note_on,1,0,0,,12,,,59,127
8445,note_on,0,0,0,,7,,,55,127
8445,note_on,0,0,0,,4,,,76,127
8445,note_on,0,0,0,,7,,,79,127
8462,note_off,17,0,0,,2,,,74,127
8462,note_off,0,0,0,,6,,,78,127
8500,note_on,38,0,0,,6,,,78,127
8500,note_on,0,0,0,,2,,,74,127
8517,note_off,17,0,0,,7,,,79,127
8517,note_off,0,0,0,,4,,,76,127
8555,note_on,38,0,0,,4,,,76,127
8555,note_on,0,0,0,,7,,,79,127
8572,note_off,17,0,0,,2,,,74,127
8572,note_off,0,0,0,,6,,,78,127
8610,note_on,38,0,0,,6,,,78,127
8610,note_on,0,0,0,,2,,,74,127
8627,note_off,17,0,0,,7,,,79,127
8627,note_off,0,0,0,,4,,,76,127
8664,note_off,37,0,0,,7,,,55,127
8664,note_off,0,0,0,,12,,,59,127
8665,note_on,1,0,0,,6,,,54,127
8665,note_on,0,0,0,,10,,,57,127
8665,note_on,0,0,0,,4,,,76,127
8665,note_on,0,0,0,,7,,,79,127
8682,note_off,17,0,0,,2,,,74,127
8682,note_off,0,0,0,,6,,,78,127
8720,note_on,38,0,0,,6,,,78,127
8720,note_on,0,0,0,,2,,,74,127
8737,note_off,17,0,0,,7,,,79,127
8737,note_off,0,0,0,,4,,,76,127
8775,note_on,38,0,0,,7,,,79,127
8775,note_on,0,0,0,,4,,,76,127
8792,note_off,17,0,0,,2,,,74,127
8792,note_off,0,0,0,,6,,,78,127
8830,note_on,38,0,0,,6,,,78,127
8830,note_on,0,0,0,,2,,,74,127
8847,note_off,17,0,0,,4,,,76,127
8847,note_off,0,0,0,,7,,,79,127
8884,note_off,37,0,0,,10,,,57,127
8885,note_on,1,0,0,,2,,,62,127
8885,note_on,0,0,0,,4,,,76,127
8885,note_on,0,0,0,,7,,,79,127
8902,note_off,17,0,0,,2,,,74,127
8902,note_off,0,0,0,,6,,,78,127
8940,note_on,38,0,0,,6,,,78,127
8940,note_on,0,0,0,,2,,,74,127
8957,note_off,17,0,0,,7,,,79,127
8957,note_off,0,0,0,,4,,,76,127
8995,note_on,38,0,0,,4,,,76,127
8995,note_on,0,0,0,,7,,,79,127
9012,note_off,17,0,0,,2,,,74,127
9012,note_off,0,0,0,,6,,,78,127
9050,note_on,38,0,0,,6,,,78,127
9050,note_on,0,0,0,,2,,,74,127
9067,note_off,17,0,0,,7,,,79,127
9067,note_off,0,0,0,,4,,,76,127
9104,note_off,37,0,0,,2,,,62,127
9104,note_off,0,0,0,,6,,,54,127
9105,note_on,1,0,0,,7,,,55,127
9105,note_on,0,0,0,,4,,,52,127
9105,note_on,0,0,0,,4,,,76,127
9105,note_on,0,0,0,,7,,,79,127
9122,note_off,17,0,0,,2,,,74,127
9122,note_off,0,0,0,,6,,,78,127
9160,note_on,38,0,0,,2,,,74,127
9160,note_on,0,0,0,,6,,,78,127
9177,note_off,17,0,0,,7,,,79,127
9177,note_off,0,0,0,,4,,,76,127
9215,note_on,38,0,0,,4,,,76,127
9215,note_on,0,0,0,,7,,,79,127
9232,note_off,17,0,0,,6,,,78,127
9232,note_off,0,0,0,,2,,,74,127
9270,note_on,38,0,0,,2,,,74,127
9270,note_on,0,0,0,,6,,,78,127
9287,note_off,17,0,0,,7,,,79,127
9287,note_off,0,0,0,,4,,,76,127
9324,note_off,37,0,0,,4,,,52,127
9324,note_off,0,0,0,,7,,,55,127
9325,note_on,1,0,0,,2,,,50,127
9325,note_on,0,0,0,,6,,,54,127
9325,note_on,0,0,0,,7,,,79,127
9325,note_on,0,0,0,,4,,,76,127
9342,note_off,17,0,0,,6,,,78,127
9342,note_off,0,0,0,,2,,,74,127
9380,note_on,38,0,0,,6,,,78,127
9380,note_on,0,0,0,,2,,,74,127
9397,note_off,17,0,0,,4,,,76,127
9397,note_off,0,0,0,,7,,,79,127
9435,note_on,38,0,0,,7,,,79,127
9435,note_on,0,0,0,,4,,,76,127
9452,note_off,17,0,0,,2,,,74,127
9452,note_off,0,0,0,,6,,,78,127
9490,note_on,38,0,0,,6,,,78,127
9490,note_on,0,0,0,,2,,,74,127
9507,note_off,17,0,0,,4,,,76,127
9507,note_off,0,0,0,,7,,,79,127
9544,note_off,37,0,0,,6,,,54,127
9545,note_on,1,0,0,,2,,,62,127
9545,note_on,0,0,0,,7,,,79,127
9545,note_on,0,0,0,,12,,,83,127
9562,note_off,17,0,0,,2,,,74,127
9562,note_off,0,0,0,,6,,,78,127
9600,note_on,38,0,0,,10,,,81,127
9600,note_on,0,0,0,,6,,,78,127
9617,note_off,17,0,0,,12,,,83,127
9617,note_off,0,0,0,,7,,,79,127
9655,note_on,38,0,0,,12,,,83,127
9655,note_on,0,0,0,,7,,,79,127
9672,note_off,17,0,0,,6,,,78,127
9672,note_off,0,0,0,,10,,,81,127
9710,note_on,38,0,0,,10,,,81,127
9710,note_on,0,0,0,,6,,,78,127
9727,note_off,17,0,0,,7,,,79,127
9727,note_off,0,0,0,,12,,,83,127
9764,note_off,37,0,0,,2,,,62,127
9764,note_off,0,0,0,,2,,,50,127
9765,note_on,1,0,0,,12,,,59,127
9765,note_on,0,0,0,,7,,,55,127
9765,note_on,0,0,0,,7,,,79,127
9765,note_on,0,0,0,,12,,,83,127
9782,note_off,17,0,0,,6,,,78,127
9782,note_off,0,0,0,,10,,,81,127
9820,note_on,38,0,0,,10,,,81,127
9820,note_on,0,0,0,,6,,,78,127
9837,note_off,17,0,0,,12,,,83,127
9837,note_off,0,0,0,,7,,,79,127
9875,note_on,38,0,0,,12,,,83,127
9875,note_on,0,0,0,,7,,,79,127
9892,note_off,17,0,0,,6,,,78,127
9892,note_off,0,0,0,,10,,,81,127
9930,note_on,38,0,0,,10,,,81,127
9930,note_on,0,0,0,,6,,,78,127
9947,note_off,17,0,0,,7,,,79,127
9947,note_off,0,0,0,,12,,,83,127
9984,note_off,37,0,0,,7,,,55,127
9984,note_off,0,0,0,,12,,,59,127
9985,note_on,1,0,0,,6,,,54,127
9985,note_on,0,0,0,,10,,,57,127
9985,note_on,0,0,0,,12,,,83,127
9985,note_on,0,0,0,,7,,,79,127
10002,note_off,17,0,0,,6,,,78,127
10002,note_off,0,0,0,,10,,,81,127
10040,note_on,38,0,0,,6,,,78,127
10040,note_on,0,0,0,,10,,,81,127
10057,note_off,17,0,0,,7,,,79,127
10057,note_off,0,0,0,,12,,,83,127
10095,note_on,38,0,0,,7,,,79,127
10095,note_on,0,0,0,,12,,,83,127
10112,note_off,17,0,0,,10,,,81,127
10112,note_off,0,0,0,,6,,,78,127
10150,note_on,38,0,0,,10,,,81,127
10150,note_on,0,0,0,,6,,,78,127
10167,note_off,17,0,0,,12,,,83,127
10167,note_off,0,0,0,,7,,,79,127
10204,note_off,37,0,0,,10,,,57,127
10205,note_on,1,0,0,,2,,,62,127
10205,note_on,0,0,0,,12,,,83,127
10205,note_on,0,0,0,,7,,,79,127
10222,note_off,17,0,0,,6,,,78,127
10222,note_off,0,0,0,,10,,,81,127
10260,note_on,38,0,0,,10,,,81,127
10260,note_on,0,0,0,,6,,,78,127
10277,note_off,17,0,0,,7,,,79,127
10277,note_off,0,0,0,,12,,,83,127
10315,note_on,38,0,0,,12,,,83,127
10315,note_on,0,0,0,,7,,,79,127
10332,note_off,17,0,0,,6,,,78,127
10332,note_off,0,0,0,,10,,,81,127
10370,note_on,38,0,0,,10,,,81,127
10370,note_on,0,0,0,,6,,,78,127
10387,note_off,17,0,0,,7,,,79,127
10387,note_off,0,0,0,,12,,,83,127
10424,note_off,37,0,0,,2,,,62,127
10424,note_off,0,0,0,,6,,,54,127
10425,note_on,1,0,0,,7,,,55,127
10425,note_on,0,0,0,,4,,,52,127
10425,note_on,0,0,0,,12,,,83,127
10425,note_on,0,0,0,,7,,,79,127
10442,note_off,17,0,0,,6,,,78,127
10442,note_off,0,0,0,,10,,,81,127
10480,note_on,38,0,0,,6,,,78,127
10480,note_on,0,0,0,,10,,,81,127
10497,note_off,17,0,0,,7,,,79,127
10497,note_off,0,0,0,,12,,,83,127
10535,note_on,38,0,0,,12,,,83,127
10535,note_on,0,0,0,,7,,,79,127
10552,note_off,17,0,0,,10,,,81,127
10552,note_off,0,0,0,,6,,,78,127
10590,note_on,38,0,0,,6,,,78,127
10590,note_on,0,0,0,,10,,,81,127
10607,note_off,17,0,0,,7,,,79,127
10607,note_off,0,0,0,,12,,,83,127
10644,note_off,37,0,0,,4,,,52,127
10644,note_off,0,0,0,,7,,,55,127
10645,note_on,1,0,0,,2,,,50,127
10863,note_off,218,0,0,,10,,,81,127
10863,note_off,0,0,0,,6,,,78,127
10864,note_on,1,0,0,,4,,,76,127
10864,note_on,0,0,0,,7,,,79,127
11082,note_off,218,0,0,,7,,,79,127
11082,note_off,0,0,0,,4,,,76,127
11082,note_off,0,0,0,,2,,,50,127
11083,note_on,1,0,0,,2,,,62,127
11083,note_on,0,0,0,,6,,,78,127
11083,note_on,0,0,0,,2,,,74,127
11301,note_off,218,0,0,,2,,,74,127
11301,note_off,0,0,0,,6,,,78,127
11301,note_off,0,0,0,,2,,,62,127
11302,note_on,1,0,0,,1,,,61,127
11302,note_on,0,0,0,,4,,,76,127
11302,note_on,0,0,0,,7,,,79,127
11520,note_off,218,0,0,,7,,,79,127
11520,note_off,0,0,0,,4,,,76,127
11521,note_on,1,0,0,,4,,,76,127
11521,note_on,0,0,0,,7,,,79,127
11739,note_off,218,0,0,,7,,,79,127
11739,note_off,0,0,0,,4,,,76,127
11739,note_off,0,0,0,,1,,,61,127
11740,note_on,1,0,0,,2,,,62,127
11740,note_on,0,0,0,,6,,,78,127
11740,note_on,0,0,0,,2,,,74,127
11958,note_off,218,0,0,,2,,,74,127
11958,note_off,0,0,0,,6,,,78,127
11958,note_off,0,0,0,,2,,,62,127
11959,note_on,1,0,0,,10,,,45,127
11959,note_on,0,0,0,,4,,,76,127
11959,note_on,0,0,0,,10,,,69,127
11959,note_on,0,0,0,,10,,,81,127
12177,note_off,218,0,0,,10,,,81,127
12177,note_off,0,0,0,,10,,,69,127
12177,note_off,0,0,0,,4,,,76,127
12178,note_on,1,0,0,,10,,,69,127
12178,note_on,0,0,0,,4,,,76,127
12178,note_on,0,0,0,,10,,,81,127
12396,note_off,218,0,0,,10,,,81,127
12396,note_off,0,0,0,,4,,,76,127
12396,note_off,0,0,0,,10,,,69,127
12396,note_off,0,0,0,,10,,,45,127
12397,note_on,1,0,0,,6,,,42,127
12397,note_on,0,0,0,,10,,,81,127
12397,note_on,0,0,0,,2,,,74,127
12397,note_on,0,0,0,,10,,,69,127
12615,note_off,218,0,0,,10,,,69,127
12615,note_off,0,0,0,,2,,,74,127
12615,note_off,0,0,0,,10,,,81,127
12615,note_off,0,0,0,,6,,,42,127
12616,note_on,1,0,0,,10,,,45,127
12616,note_on,0,0,0,,10,,,69,127
12616,note_on,0,0,0,,4,,,76,127
12616,note_on,0,0,0,,10,,,81,127
12834,note_off,218,0,0,,10,,,81,127
12834,note_off,0,0,0,,4,,,76,127
12834,note_off,0,0,0,,10,,,69,127
12835,note_on,1,0,0,,4,,,76,127
12835,note_on,0,0,0,,10,,,81,127
12835,note_on,0,0,0,,10,,,69,127
13053,note_off,218,0,0,,10,,,69,127
13053,note_off,0,0,0,,10,,,81,127
13053,note_off,0,0,0,,4,,,76,127
13053,note_off,0,0,0,,10,,,45,127
13054,note_on,1,0,0,,2,,,50,127
13054,note_on,0,0,0,,10,,,69,127
13054,note_on,0,0,0,,10,,,81,127
13054,note_on,0,0,0,,6,,,78,127
13272,note_off,218,0,0,,6,,,78,127
13272,note_off,0,0,0,,10,,,81,127
13272,note_off,0,0,0,,10,,,69,127
13272,note_off,0,0,0,,2,,,50,127
13273,note_on,1,0,0,,10,,,45,127
13273,note_on,0,0,0,,4,,,76,127
13273,note_on,0,0,0,,10,,,69,127
13273,note_on,0,0,0,,10,,,81,127
13491,note_off,218,0,0,,10,,,81,127
13491,note_off,0,0,0,,10,,,69,127
13491,note_off,0,0,0,,4,,,76,127
13491,note_off,0,0,0,,10,,,45,127
13492,note_on,1,0,0,,6,,,42,127
13492,note_on,0,0,0,,10,,,69,127
13492,note_on,0,0,0,,10,,,81,127
13492,note_on,0,0,0,,2,,,74,127
13710,note_off,218,0,0,,2,,,74,127
13710,note_off,0,0,0,,10,,,81,127
13710,note_off,0,0,0,,10,,,69,127
13710,note_off,0,0,0,,6,,,42,127
13711,note_on,1,0,0,,10,,,45,127
13711,note_on,0,0,0,,4,,,76,127
13711,note_on,0,0,0,,10,,,69,127
13711,note_on,0,0,0,,10,,,81,127
13929,note_off,218,0,0,,10,,,81,127
13929,note_off,0,0,0,,10,,,69,127
13929,note_off,0,0,0,,4,,,76,127
13929,note_off,0,0,0,,10,,,45,127
13930,note_on,1,0,0,,2,,,50,127
13930,note_on,0,0,0,,6,,,78,127
13930,note_on,0,0,0,,10,,,81,127
13930,note_on,0,0,0,,10,,,69,127
14148,note_off,218,0,0,,10,,,69,127
14148,note_off,0,0,0,,10,,,81,127
14148,note_off,0,0,0,,6,,,78,127
14148,note_off,0,0,0,,2,,,50,127
14149,note_on,1,0,0,,10,,,45,127
14149,note_on,0,0,0,,4,,,76,127
14149,note_on,0,0,0,,10,,,69,127
14149,note_on,0,0,0,,10,,,81,127
14367,note_off,218,0,0,,10,,,81,127
14367,note_off,0,0,0,,10,,,69,127
14367,note_off,0,0,0,,4,,,76,127
14367,note_off,0,0,0,,10,,,45,127
14368,note_on,1,0,0,,6,,,42,127
14368,note_on,0,0,0,,2,,,74,127
14368,note_on,0,0,0,,10,,,69,127
14368,note_on,0,0,0,,10,,,81,127
14586,note_off,218,0,0,,10,,,81,127
14586,note_off,0,0,0,,10,,,69,127
14586,note_off,0,0,0,,2,,,74,127
14586,note_off,0,0,0,,6,,,42,127
14587,note_on,1,0,0,,10,,,45,127
14587,note_on,0,0,0,,10,,,69,127
14587,note_on,0,0,0,,10,,,81,127
14587,note_on,0,0,0,,4,,,76,127
14805,note_off,218,0,0,,4,,,76,127
14805,note_off,0,0,0,,10,,,81,127
14805,note_off,0,0,0,,10,,,69,127
14805,note_off,0,0,0,,10,,,45,127
14806,note_on,1,0,0,,6,,,42,127
14806,note_on,0,0,0,,10,,,69,127
14806,note_on,0,0,0,,10,,,81,127
14806,note_on,0,0,0,,2,,,74,127
15024,note_off,218,0,0,,2,,,74,127
15024,note_off,0,0,0,,10,,,81,127
15024,note_off,0,0,0,,10,,,69,127
15024,note_off,0,0,0,,6,,,42,127
15025,note_on,1,0,0,,10,,,45,127
15025,note_on,0,0,0,,4,,,76,127
15025,note_on,0,0,0,,10,,,69,127
15025,note_on,0,0,0,,10,,,81,127
15243,note_off,218,0,0,,10,,,81,127
15243,note_off,0,0,0,,10,,,69,127
15243,note_off,0,0,0,,4,,,76,127
15243,note_off,0,0,0,,10,,,45,127
15244,note_on,1,0,0,,2,,,50,127
15244,note_on,0,0,0,,6,,,78,127
15244,note_on,0,0,0,,10,,,69,127
15244,note_on,0,0,0,,10,,,81,127
15462,note_off,218,0,0,,10,,,81,127
15462,note_off,0,0,0,,10,,,69,127
15462,note_off,0,0,0,,6,,,78,127
15462,note_off,0,0,0,,2,,,50,127
15463,note_on,1,0,0,,10,,,45,127
15463,note_on,0,0,0,,10,,,81,127
15463,note_on,0,0,0,,4,,,76,127
15463,note_on,0,0,0,,10,,,69,127
15681,note_off,218,0,0,,10,,,69,127
15681,note_off,0,0,0,,4,,,76,127
15681,note_off,0,0,0,,10,,,81,127
15681,note_off,0,0,0,,10,,,45,127
15682,note_on,1,0,0,,2,,,38,127
15682,note_on,0,0,0,,10,,,81,127
15682,note_on,0,0,0,,10,,,69,127
15682,note_on,0,0,0,,2,,,74,127
15900,note_off,218,0,0,,2,,,74,127
15900,note_off,0,0,0,,10,,,69,127
15900,note_off,0,0,0,,10,,,81,127
15900,note_off,0,0,0,,2,,,38,127
15901,note_on,1,0,0,,10,,,45,127
15901,note_on,0,0,0,,6,,,78,127
15955,note_off,54,0,0,,6,,,78,127
15956,note_on,1,0,0,,4,,,76,127
16010,note_off,54,0,0,,4,,,76,127
16011,note_on,1,0,0,,6,,,78,127
16065,note_off,54,0,0,,6,,,78,127
16066,note_on,1,0,0,,4,,,76,127
16120,note_off,54,0,0,,4,,,76,127
16121,note_on,1,0,0,,6,,,78,127
16175,note_off,54,0,0,,6,,,78,127
16176,note_on,1,0,0,,4,,,76,127
16230,note_off,54,0,0,,4,,,76,127
16231,note_on,1,0,0,,6,,,78,127
16285,note_off,54,0,0,,6,,,78,127
16286,note_on,1,0,0,,4,,,76,127
16559,note_off,273,0,0,,4,,,76,127
16559,note_off,0,0,0,,10,,,45,127
16560,note_on,1,0,0,,1,,,61,127
16560,note_on,0,0,0,,10,,,57,127
16560,note_on,0,0,0,,10,,,69,127
16778,note_off,218,0,0,,10,,,57,127
16778,note_off,0,0,0,,1,,,61,127
16779,note_on,1,0,0,,2,,,62,127
16779,note_on,0,0,0,,12,,,59,127
16888,note_off,109,0,0,,10,,,69,127
16889,note_on,1,0,0,,12,,,71,127
16943,note_off,54,0,0,,12,,,71,127
16944,note_on,1,0,0,,1,,,73,127
16998,note_off,54,0,0,,1,,,73,127
16998,note_off,0,0,0,,12,,,59,127
16998,note_off,0,0,0,,2,,,62,127
16999,note_on,1,0,0,,4,,,64,127
16999,note_on,0,0,0,,1,,,61,127
16999,note_on,0,0,0,,2,,,74,127
17108,note_off,109,0,0,,2,,,74,127
17109,note_on,1,0,0,,4,,,76,127
17218,note_off,109,0,0,,4,,,76,127
17218,note_off,0,0,0,,1,,,61,127
17218,note_off,0,0,0,,4,,,64,127
17219,note_on,1,0,0,,2,,,62,127
17219,note_on,0,0,0,,6,,,66,127
17219,note_on,0,0,0,,6,,,78,127
17437,note_off,218,0,0,,6,,,78,127
17438,note_on,1,0,0,,2,,,74,127
17656,note_off,218,0,0,,2,,,74,127
17657,note_on,1,0,0,,12,,,71,127
17875,note_off,218,0,0,,12,,,71,127
17875,note_off,0,0,0,,6,,,66,127
17875,note_off,0,0,0,,2,,,62,127
17876,note_on,1,0,0,,2,,,62,127
17876,note_on,0,0,0,,12,,,59,127
17876,note_on,0,0,0,,10,,,69,127
17985,note_off,109,0,0,,10,,,69,127
17986,note_on,1,0,0,,8,,,68,127
18095,note_off,109,0,0,,12,,,59,127
18095,note_off,0,0,0,,2,,,62,127
18096,note_on,1,0,0,,1,,,61,127
18096,note_on,0,0,0,,4,,,64,127
18205,note_off,109,0,0,,8,,,68,127
18206,note_on,1,0,0,,10,,,69,127
18260,note_off,54,0,0,,10,,,69,127
18261,note_on,1,0,0,,12,,,71,127
18315,note_off,54,0,0,,12,,,71,127
18315,note_off,0,0,0,,4,,,64,127
18315,note_off,0,0,0,,1,,,61,127
18316,note_on,1,0,0,,2,,,62,127
18316,note_on,0,0,0,,6,,,66,127
18316,note_on,0,0,0,,1,,,73,127
18425,note_off,109,0,0,,1,,,73,127
18426,note_on,1,0,0,,2,,,74,127
18535,note_off,109,0,0,,2,,,74,127
18535,note_off,0,0,0,,6,,,66,127
18535,note_off,0,0,0,,2,,,62,127
18536,note_on,1,0,0,,4,,,64,127
18536,note_on,0,0,0,,1,,,61,127
18536,note_on,0,0,0,,4,,,76,127
18754,note_off,218,0,0,,4,,,76,127
18755,note_on,1,0,0,,1,,,73,127
18973,note_off,218,0,0,,1,,,73,127
18974,note_on,1,0,0,,10,,,69,127
19192,note_off,218,0,0,,10,,,69,127
19192,note_off,0,0,0,,1,,,61,127
19192,note_off,0,0,0,,4,,,64,127
19193,note_on,1,0,0,,1,,,61,127
19193,note_on,0,0,0,,10,,,57,127
19193,note_on,0,0,0,,8,,,68,127
19302,note_off,109,0,0,,8,,,68,127
19303,note_on,1,0,0,,6,,,66,127
19412,note_off,109,0,0,,10,,,57,127
19412,note_off,0,0,0,,1,,,61,127
19413,note_on,1,0,0,,12,,,59,127
19413,note_on,0,0,0,,2,,,62,127
19522,note_off,109,0,0,,6,,,66,127
19523,note_on,1,0,0,,8,,,68,127
19577,note_off,54,0,0,,8,,,68,127
19578,note_on,1,0,0,,10,,,69,127
19632,note_off,54,0,0,,10,,,69,127
19632,note_off,0,0,0,,2,,,62,127
19632,note_off,0,0,0,,12,,,59,127
19633,note_on,1,0,0,,1,,,61,127
19633,note_on,0,0,0,,4,,,64,127
19633,note_on,0,0,0,,12,,,71,127
19742,note_off,109,0,0,,12,,,71,127
19743,note_on,1,0,0,,1,,,73,127
19852,note_off,109,0,0,,1,,,73,127
19852,note_off,0,0,0,,4,,,64,127
19852,note_off,0,0,0,,1,,,61,127
19853,note_on,1,0,0,,2,,,62,127
19853,note_on,0,0,0,,12,,,59,127
19853,note_on,0,0,0,,2,,,74,127
20071,note_off,218,0,0,,2,,,74,127
20072,note_on,1,0,0,,12,,,71,127
20290,note_off,218,0,0,,12,,,71,127
20291,note_on,1,0,0,,8,,,68,127
20509,note_off,218,0,0,,8,,,68,127
20509,note_off,0,0,0,,12,,,59,127
20509,note_off,0,0,0,,2,,,62,127
20510,note_on,1,0,0,,12,,,59,127
20510,note_on,0,0,0,,8,,,56,127
20510,note_on,0,0,0,,6,,,66,127
20619,note_off,109,0,0,,6,,,66,127
20620,note_on,1,0,0,,4,,,64,127
20729,note_off,109,0,0,,8,,,56,127
20729,note_off,0,0,0,,12,,,59,127
20730,note_on,1,0,0,,1,,,61,127
20730,note_on,0,0,0,,10,,,57,127
20839,note_off,109,0,0,,4,,,64,127
20840,note_on,1,0,0,,6,,,66,127
20894,note_off,54,0,0,,6,,,66,127
20895,note_on,1,0,0,,8,,,68,127
20949,note_off,54,0,0,,8,,,68,127
20949,note_off,0,0,0,,10,,,57,127
20949,note_off,0,0,0,,1,,,61,127
20950,note_on,1,0,0,,2,,,62,127
20950,note_on,0,0,0,,12,,,59,127
20950,note_on,0,0,0,,10,,,69,127
21059,note_off,109,0,0,,10,,,69,127
21060,note_on,1,0,0,,12,,,71,127
21169,note_off,109,0,0,,12,,,71,127
21169,note_off,0,0,0,,12,,,59,127
21169,note_off,0,0,0,,2,,,62,127
21170,note_on,1,0,0,,10,,,57,127
21170,note_on,0,0,0,,1,,,61,127
21170,note_on,0,0,0,,1,,,73,127
21279,note_off,109,0,0,,1,,,73,127
21280,note_on,1,0,0,,1,,,73,127
21389,note_off,109,0,0,,1,,,73,127
21389,note_off,0,0,0,,10,,,57,127
21390,note_on,1,0,0,,10,,,57,127
21390,note_on,0,0,0,,1,,,73,127
21499,note_off,109,0,0,,1,,,73,127
21500,note_on,1,0,0,,1,,,73,127
21609,note_off,109,0,0,,1,,,73,127
21609,note_off,0,0,0,,10,,,57,127
21609,note_off,0,0,0,,1,,,61,127
21610,note_on,1,0,0,,8,,,56,127
21610,note_on,0,0,0,,1,,,73,127
21719,note_off,109,0,0,,1,,,73,127
21720,note_on,1,0,0,,1,,,73,127
21829,note_off,109,0,0,,1,,,73,127
21829,note_off,0,0,0,,8,,,56,127
21830,note_on,1,0,0,,6,,,54,127
21830,note_on,0,0,0,,1,,,73,127
21939,note_off,109,0,0,,1,,,73,127
21940,note_on,1,0,0,,1,,,73,127
22049,note_off,109,0,0,,1,,,73,127
22050,note_on,1,0,0,,10,,,69,127
22050,note_on,0,0,0,,1,,,73,127
22159,note_off,109,0,0,,1,,,73,127
22160,note_on,1,0,0,,1,,,73,127
22269,note_off,109,0,0,,1,,,73,127
22269,note_off,0,0,0,,10,,,69,127
22269,note_off,0,0,0,,6,,,54,127
22270,note_on,1,0,0,,4,,,64,127
22270,note_on,0,0,0,,1,,,73,127
22379,note_off,109,0,0,,1,,,73,127
22380,note_on,1,0,0,,1,,,73,127
22489,note_off,109,0,0,,1,,,73,127
22489,note_off,0,0,0,,4,,,64,127
22490,note_on,1,0,0,,3,,,63,127
22490,note_on,0,0,0,,6,,,78,127
22708,note_off,218,0,0,,6,,,78,127
22709,note_on,1,0,0,,12,,,71,127
22927,note_off,218,0,0,,12,,,71,127
22927,note_off,0,0,0,,3,,,63,127
22928,note_on,1,0,0,,12,,,59,127
22928,note_on,0,0,0,,10,,,69,127
23146,note_off,218,0,0,,10,,,69,127
23147,note_on,1,0,0,,12,,,71,127
23256,note_off,109,0,0,,12,,,71,127
23257,note_on,1,0,0,,12,,,71,127
23316,note_off,59,0,0,,12,,,59,127
23365,note_off,49,0,0,,12,,,71,127
23366,note_on,1,0,0,,8,,,68,127
23366,note_on,0,0,0,,12,,,71,127
23475,note_off,109,0,0,,12,,,71,127
23476,note_on,1,0,0,,12,,,71,127
23585,note_off,109,0,0,,12,,,71,127
23585,note_off,0,0,0,,8,,,68,127
23586,note_on,1,0,0,,6,,,66,127
23586,note_on,0,0,0,,12,,,71,127
23695,note_off,109,0,0,,12,,,71,127
23696,note_on,1,0,0,,12,,,71,127
23805,note_off,109,0,0,,12,,,71,127
23805,note_off,0,0,0,,6,,,66,127
23806,note_on,1,0,0,,4,,,64,127
23806,note_on,0,0,0,,12,,,71,127
23915,note_off,109,0,0,,12,,,71,127
23916,note_on,1,0,0,,12,,,71,127
24025,note_off,109,0,0,,12,,,71,127
24025,note_off,0,0,0,,4,,,64,127
24026,note_on,1,0,0,,8,,,68,127
24026,note_on,0,0,0,,12,,,71,127
24135,note_off,109,0,0,,12,,,71,127
24136,note_on,1,0,0,,12,,,71,127
24245,note_off,109,0,0,,12,,,71,127
24245,note_off,0,0,0,,8,,,68,127
24246,note_on,1,0,0,,3,,,63,127
24246,note_on,0,0,0,,12,,,71,127
24355,note_off,109,0,0,,12,,,71,127
24356,note_on,1,0,0,,12,,,71,127
24465,note_off,109,0,0,,12,,,71,127
24466,note_on,1,0,0,,8,,,80,127
24635,note_off,169,0,0,,3,,,63,127
24684,note_off,49,0,0,,8,,,80,127
24685,note_on,1,0,0,,1,,,61,127
24685,note_on,0,0,0,,1,,,73,127
24903,note_off,218,0,0,,1,,,73,127
24903,note_off,0,0,0,,1,,,61,127
24904,note_on,1,0,0,,5,,,65,127
24904,note_on,0,0,0,,12,,,71,127
25122,note_off,218,0,0,,12,,,71,127
25123,note_on,1,0,0,,10,,,69,127
25232,note_off,109,0,0,,10,,,69,127
25233,note_on,1,0,0,,10,,,69,127
25342,note_off,109,0,0,,10,,,69,127
25342,note_off,0,0,0,,5,,,65,127
25343,note_on,1,0,0,,6,,,66,127
25343,note_on,0,0,0,,10,,,69,127
25452,note_off,109,0,0,,10,,,69,127
25453,note_on,1,0,0,,10,,,69,127
25562,note_off,109,0,0,,10,,,69,127
25562,note_off,0,0,0,,6,,,66,127
25563,note_on,1,0,0,,4,,,64,127
25563,note_on,0,0,0,,10,,,69,127
25672,note_off,109,0,0,,10,,,69,127
25673,note_on,1,0,0,,10,,,69,127
25782,note_off,109,0,0,,10,,,69,127
25782,note_off,0,0,0,,4,,,64,127
25783,note_on,1,0,0,,3,,,63,127
25783,note_on,0,0,0,,10,,,69,127
25892,note_off,109,0,0,,10,,,69,127
25893,note_on,1,0,0,,10,,,69,127
26002,note_off,109,0,0,,10,,,69,127
26002,note_off,0,0,0,,3,,,63,127
26003,note_on,1,0,0,,6,,,66,127
26003,note_on,0,0,0,,10,,,69,127
26112,note_off,109,0,0,,10,,,69,127
26113,note_on,1,0,0,,10,,,69,127
26222,note_off,109,0,0,,10,,,69,127
26222,note_off,0,0,0,,6,,,66,127
26223,note_on,1,0,0,,1,,,61,127
26223,note_on,0,0,0,,10,,,69,127
26332,note_off,109,0,0,,10,,,69,127
26333,note_on,1,0,0,,10,,,69,127
26442,note_off,109,0,0,,10,,,69,127
26443,note_on,1,0,0,,6,,,78,127
26612,note_off,169,0,0,,1,,,61,127
26661,note_off,49,0,0,,6,,,78,127
26662,note_on,1,0,0,,12,,,59,127
26662,note_on,0,0,0,,12,,,71,127
26880,note_off,218,0,0,,12,,,71,127
26880,note_off,0,0,0,,12,,,59,127
26881,note_on,1,0,0,,3,,,63,127
26881,note_on,0,0,0,,10,,,69,127
27099,note_off,218,0,0,,10,,,69,127
27099,note_off,0,0,0,,3,,,63,127
27100,note_on,1,0,0,,4,,,64,127
27100,note_on,0,0,0,,8,,,68,127
27209,note_off,109,0,0,,8,,,68,127
27210,note_on,1,0,0,,12,,,71,127
27319,note_off,109,0,0,,12,,,71,127
27320,note_on,1,0,0,,10,,,69,127
27429,note_off,109,0,0,,10,,,69,127
27430,note_on,1,0,0,,8,,,68,127
27539,note_off,109,0,0,,8,,,68,127
27539,note_off,0,0,0,,4,,,64,127
27540,note_on,1,0,0,,8,,,56,127
27540,note_on,0,0,0,,6,,,66,127
27649,note_off,109,0,0,,6,,,66,127
27650,note_on,1,0,0,,4,,,64,127
27759,note_off,109,0,0,,4,,,64,127
27759,note_off,0,0,0,,8,,,56,127
27760,note_on,1,0,0,,10,,,57,127
27760,note_on,0,0,0,,4,,,64,127
27760,note_on,0,0,0,,1,,,73,127
27869,note_off,109,0,0,,1,,,73,127
27870,note_on,1,0,0,,1,,,73,127
27979,note_off,109,0,0,,1,,,73,127
27980,note_on,1,0,0,,12,,,71,127
28089,note_off,109,0,0,,12,,,71,127
28090,note_on,1,0,0,,10,,,69,127
28199,note_off,109,0,0,,10,,,69,127
28199,note_off,0,0,0,,10,,,57,127
28200,note_on,1,0,0,,6,,,54,127
28200,note_on,0,0,0,,8,,,68,127
28309,note_off,109,0,0,,8,,,68,127
28310,note_on,1,0,0,,6,,,66,127
28419,note_off,109,0,0,,6,,,66,127
28419,note_off,0,0,0,,6,,,54,127
28419,note_off,0,0,0,,4,,,64,127
28420,note_on,1,0,0,,4,,,64,127
28420,note_on,0,0,0,,8,,,56,127
28420,note_on,0,0,0,,12,,,71,127
28529,note_off,109,0,0,,12,,,71,127
28530,note_on,1,0,0,,12,,,71,127
28639,note_off,109,0,0,,12,,,71,127
28640,note_on,1,0,0,,10,,,69,127
28749,note_off,109,0,0,,10,,,69,127
28750,note_on,1,0,0,,8,,,68,127
28859,note_off,109,0,0,,8,,,68,127
28859,note_off,0,0,0,,8,,,56,127
28860,note_on,1,0,0,,4,,,52,127
28860,note_on,0,0,0,,6,,,66,127
28967,note_off,107,0,0,,4,,,64,127
28968,note_off,1,0,0,,6,,,66,127
28969,note_on,1,0,0,,4,,,64,127
29078,note_off,109,0,0,,4,,,64,127
29078,note_off,0,0,0,,4,,,52,127
29079,note_on,1,0,0,,4,,,64,127
29079,note_on,0,0,0,,10,,,57,127
29079,note_on,0,0,0,,1,,,73,127
29188,note_off,109,0,0,,1,,,73,127
29189,note_on,1,0,0,,1,,,73,127
29298,note_off,109,0,0,,1,,,73,127
29299,note_on,1,0,0,,12,,,71,127
29408,note_off,109,0,0,,12,,,71,127
29409,note_on,1,0,0,,10,,,69,127
29518,note_off,109,0,0,,10,,,69,127
29518,note_off,0,0,0,,10,,,57,127
29519,note_on,1,0,0,,6,,,54,127
29519,note_on,0,0,0,,8,,,68,127
29628,note_off,109,0,0,,8,,,68,127
29629,note_on,1,0,0,,6,,,66,127
29738,note_off,109,0,0,,6,,,66,127
29738,note_off,0,0,0,,6,,,54,127
29738,note_off,0,0,0,,4,,,64,127
29739,note_on,1,0,0,,4,,,64,127
29739,note_on,0,0,0,,8,,,56,127
29739,note_on,0,0,0,,4,,,76,127
29848,note_off,109,0,0,,4,,,76,127
29849,note_on,1,0,0,,4,,,76,127
29958,note_off,109,0,0,,4,,,76,127
29959,note_on,1,0,0,,3,,,75,127
30068,note_off,109,0,0,,3,,,75,127
30069,note_on,1,0,0,,1,,,73,127
30178,note_off,109,0,0,,1,,,73,127
30178,note_off,0,0,0,,8,,,56,127
30179,note_on,1,0,0,,10,,,57,127
30179,note_on,0,0,0,,12,,,71,127
30288,note_off,109,0,0,,12,,,71,127
30289,note_on,1,0,0,,10,,,69,127
30398,note_off,109,0,0,,10,,,69,127
30398,note_off,0,0,0,,10,,,57,127
30398,note_off,0,0,0,,4,,,64,127
30399,note_on,1,0,0,,12,,,59,127
30399,note_on,0,0,0,,8,,,68,127
30508,note_off,109,0,0,,8,,,68,127
30509,note_on,1,0,0,,10,,,69,127
30618,note_off,109,0,0,,10,,,69,127
30619,note_on,1,0,0,,12,,,71,127
30728,note_off,109,0,0,,12,,,71,127
30729,note_on,1,0,0,,4,,,64,127
30838,note_off,109,0,0,,4,,,64,127
30839,note_on,1,0,0,,12,,,47,127
30839,note_on,0,0,0,,6,,,66,127
30948,note_off,109,0,0,,6,,,66,127
30949,note_on,1,0,0,,3,,,63,127
31058,note_off,109,0,0,,3,,,63,127
31058,note_off,0,0,0,,12,,,47,127
31058,note_off,0,0,0,,12,,,59,127
31059,note_on,1,0,0,,4,,,40,127
31059,note_on,0,0,0,,4,,,64,127
31497,note_off,438,0,0,,4,,,64,127
31498,note_on,1,0,0,,4,,,76,127
31716,note_off,218,0,0,,4,,,76,127
31716,note_off,0,0,0,,4,,,40,127
31717,note_on,1,0,0,,4,,,40,127
31717,note_on,0,0,0,,4,,,76,127
31717,note_on,0,0,0,,5,,,77,127
31935,note_off,218,0,0,,4,,,76,127
31936,note_on,1,0,0,,2,,,74,127
32154,note_off,218,0,0,,2,,,74,127
32154,note_off,0,0,0,,5,,,77,127
32155,note_on,1,0,0,,0,,,72,127
32155,note_on,0,0,0,,4,,,76,127
32373,note_off,218,0,0,,4,,,76,127
32373,note_off,0,0,0,,0,,,72,127
32373,note_off,0,0,0,,4,,,40,127
32374,note_on,1,0,0,,4,,,40,127
32374,note_on,0,0,0,,0,,,72,127
32374,note_on,0,0,0,,2,,,74,127
32592,note_off,218,0,0,,0,,,72,127
32593,note_on,1,0,0,,12,,,71,127
32811,note_off,218,0,0,,12,,,71,127
32811,note_off,0,0,0,,2,,,74,127
32812,note_on,1,0,0,,10,,,69,127
32812,note_on,0,0,0,,0,,,72,127
33030,note_off,218,0,0,,0,,,72,127
33030,note_off,0,0,0,,10,,,69,127
33030,note_off,0,0,0,,4,,,40,127
33031,note_on,1,0,0,,4,,,40,127
33031,note_on,0,0,0,,10,,,69,127
33031,note_on,0,0,0,,12,,,71,127
33249,note_off,218,0,0,,10,,,69,127
33250,note_on,1,0,0,,7,,,67,127
33468,note_off,218,0,0,,7,,,67,127
33468,note_off,0,0,0,,12,,,71,127
33469,note_on,1,0,0,,5,,,65,127
33469,note_on,0,0,0,,10,,,69,127
33687,note_off,218,0,0,,5,,,65,127
33687,note_off,0,0,0,,4,,,40,127
33688,note_on,1,0,0,,4,,,40,127
33688,note_on,0,0,0,,4,,,64,127
33906,note_off,218,0,0,,10,,,69,127
33907,note_on,1,0,0,,8,,,68,127
34125,note_off,218,0,0,,8,,,68,127
34125,note_off,0,0,0,,4,,,64,127
34126,note_on,1,0,0,,4,,,64,127
34344,note_off,218,0,0,,4,,,64,127
34344,note_off,0,0,0,,4,,,40,127
34345,note_on,1,0,0,,4,,,40,127
34345,note_on,0,0,0,,5,,,65,127
34345,note_on,0,0,0,,4,,,64,127
34563,note_off,218,0,0,,4,,,64,127
34564,note_on,1,0,0,,2,,,62,127
34782,note_off,218,0,0,,2,,,62,127
34782,note_off,0,0,0,,5,,,65,127
34783,note_on,1,0,0,,4,,,64,127
34783,note_on,0,0,0,,0,,,60,127
35001,note_off,218,0,0,,0,,,60,127
35001,note_off,0,0,0,,4,,,64,127
35001,note_off,0,0,0,,4,,,40,127
35002,note_on,1,0,0,,4,,,40,127
35002,note_on,0,0,0,,2,,,62,127
35002,note_on,0,0,0,,0,,,60,127
35220,note_off,218,0,0,,0,,,60,127
35221,note_on,1,0,0,,12,,,59,127
35439,note_off,218,0,0,,12,,,59,127
35439,note_off,0,0,0,,2,,,62,127
35440,note_on,1,0,0,,10,,,57,127
35440,note_on,0,0,0,,0,,,60,127
35658,note_off,218,0,0,,0,,,60,127
35658,note_off,0,0,0,,10,,,57,127
35658,note_off,0,0,0,,4,,,40,127
35659,note_on,1,0,0,,4,,,40,127
35659,note_on,0,0,0,,12,,,59,127
35659,note_on,0,0,0,,10,,,57,127
35877,note_off,218,0,0,,10,,,57,127
35878,note_on,1,0,0,,7,,,55,127
36096,note_off,218,0,0,,7,,,55,127
36096,note_off,0,0,0,,12,,,59,127
36097,note_on,1,0,0,,10,,,57,127
36097,note_on,0,0,0,,5,,,53,127
36315,note_off,218,0,0,,5,,,53,127
36315,note_off,0,0,0,,4,,,40,127
36316,note_on,1,0,0,,4,,,40,127
36316,note_on,0,0,0,,4,,,52,127
36534,note_off,218,0,0,,4,,,52,127
36534,note_off,0,0,0,,10,,,57,127
36535,note_on,1,0,0,,8,,,56,127
36753,note_off,218,0,0,,8,,,56,127
36754,note_on,1,0,0,,4,,,64,127
36972,note_off,218,0,0,,4,,,64,127
36972,note_off,0,0,0,,4,,,40,127
36973,note_on,1,0,0,,2,,,50,127
36973,note_on,0,0,0,,10,,,57,127
36973,note_on,0,0,0,,5,,,65,127
37191,note_off,218,0,0,,5,,,65,127
37192,note_on,1,0,0,,4,,,64,127
37410,note_off,218,0,0,,4,,,64,127
37411,note_on,1,0,0,,10,,,69,127
37411,note_on,0,0,0,,5,,,65,127
37629,note_off,218,0,0,,5,,,65,127
37629,note_off,0,0,0,,10,,,57,127
37629,note_off,0,0,0,,2,,,50,127
37630,note_on,1,0,0,,4,,,52,127
37630,note_on,0,0,0,,12,,,59,127
37630,note_on,0,0,0,,4,,,64,127
37845,note_off,215,0,0,,10,,,69,127
37850,note_on,5,0,0,,8,,,68,127
38065,note_off,215,0,0,,4,,,64,127
38068,note_off,3,0,0,,8,,,68,127
38069,note_on,1,0,0,,4,,,76,127
38287,note_off,218,0,0,,4,,,76,127
38287,note_off,0,0,0,,12,,,59,127
38287,note_off,0,0,0,,4,,,52,127
38288,note_on,1,0,0,,10,,,57,127
38288,note_on,0,0,0,,2,,,50,127
38288,note_on,0,0,0,,5,,,77,127
38506,note_off,218,0,0,,5,,,77,127
38507,note_on,1,0,0,,4,,,76,127
38725,note_off,218,0,0,,4,,,76,127
38726,note_on,1,0,0,,5,,,77,127
38726,note_on,0,0,0,,10,,,69,127
38944,note_off,218,0,0,,2,,,50,127
38944,note_off,0,0,0,,10,,,57,127
38945,note_on,1,0,0,,12,,,59,127
38945,note_on,0,0,0,,4,,,52,127
39163,note_off,218,0,0,,10,,,69,127
39163,note_off,0,0,0,,5,,,77,127
39164,note_on,1,0,0,,4,,,76,127
39164,note_on,0,0,0,,8,,,68,127
39382,note_off,218,0,0,,8,,,68,127
39382,note_off,0,0,0,,4,,,76,127
39383,note_on,1,0,0,,4,,,64,127
39601,note_off,218,0,0,,4,,,64,127
39601,note_off,0,0,0,,4,,,52,127
39601,note_off,0,0,0,,12,,,59,127
39602,note_on,1,0,0,,2,,,50,127
39602,note_on,0,0,0,,10,,,57,127
39602,note_on,0,0,0,,5,,,65,127
39820,note_off,218,0,0,,5,,,65,127
39821,note_on,1,0,0,,4,,,64,127
40039,note_off,218,0,0,,4,,,64,127
40040,note_on,1,0,0,,10,,,69,127
40040,note_on,0,0,0,,5,,,65,127
40258,note_off,218,0,0,,5,,,65,127
40258,note_off,0,0,0,,10,,,57,127
40258,note_off,0,0,0,,2,,,50,127
40259,note_on,1,0,0,,12,,,59,127
40259,note_on,0,0,0,,4,,,52,127
40259,note_on,0,0,0,,4,,,64,127
40474,note_off,215,0,0,,10,,,69,127
40479,note_on,5,0,0,,8,,,68,127
40694,note_off,215,0,0,,4,,,64,127
40697,note_off,3,0,0,,8,,,68,127
40698,note_on,1,0,0,,4,,,76,127
40916,note_off,218,0,0,,4,,,76,127
40916,note_off,0,0,0,,4,,,52,127
40916,note_off,0,0,0,,12,,,59,127
40917,note_on,1,0,0,,2,,,50,127
40917,note_on,0,0,0,,10,,,57,127
40917,note_on,0,0,0,,5,,,77,127
41135,note_off,218,0,0,,5,,,77,127
41136,note_on,1,0,0,,4,,,76,127
41354,note_off,218,0,0,,4,,,76,127
41355,note_on,1,0,0,,10,,,69,127
41355,note_on,0,0,0,,5,,,77,127
41573,note_off,218,0,0,,10,,,57,127
41573,note_off,0,0,0,,2,,,50,127
41574,note_on,1,0,0,,12,,,59,127
41574,note_on,0,0,0,,4,,,52,127
41792,note_off,218,0,0,,5,,,77,127
41792,note_off,0,0,0,,10,,,69,127
41793,note_on,1,0,0,,4,,,76,127
41793,note_on,0,0,0,,8,,,68,127
42011,note_off,218,0,0,,8,,,68,127
42011,note_off,0,0,0,,4,,,76,127
42012,note_on,1,0,0,,4,,,64,127
42230,note_off,218,0,0,,4,,,64,127
42230,note_off,0,0,0,,4,,,52,127
42230,note_off,0,0,0,,12,,,59,127
42231,note_on,1,0,0,,12,,,59,127
42231,note_on,0,0,0,,10,,,57,127
42231,note_on,0,0,0,,2,,,50,127
42231,note_on,0,0,0,,7,,,67,127
42449,note_off,218,0,0,,7,,,67,127
42450,note_on,1,0,0,,5,,,65,127
42668,note_off,218,0,0,,5,,,65,127
42669,note_on,1,0,0,,4,,,64,127
42887,note_off,218,0,0,,4,,,64,127
42887,note_off,0,0,0,,2,,,50,127
42887,note_off,0,0,0,,10,,,57,127
42887,note_off,0,0,0,,12,,,59,127
42888,note_on,1,0,0,,2,,,50,127
42888,note_on,0,0,0,,12,,,59,127
42888,note_on,0,0,0,,10,,,57,127
42888,note_on,0,0,0,,5,,,65,127
42888,note_on,0,0,0,,2,,,74,127
43106,note_off,218,0,0,,2,,,74,127
43107,note_on,1,0,0,,0,,,72,127
43325,note_off,218,0,0,,0,,,72,127
43325,note_off,0,0,0,,5,,,65,127
43326,note_on,1,0,0,,12,,,71,127
43544,note_off,218,0,0,,12,,,71,127
43544,note_off,0,0,0,,10,,,57,127
43544,note_off,0,0,0,,12,,,59,127
43544,note_off,0,0,0,,2,,,50,127
43545,note_on,1,0,0,,10,,,57,127
43545,note_on,0,0,0,,2,,,50,127
43545,note_on,0,0,0,,12,,,59,127
43545,note_on,0,0,0,,10,,,69,127
43545,note_on,0,0,0,,7,,,79,127
43763,note_off,218,0,0,,7,,,79,127
43764,note_on,1,0,0,,5,,,77,127
43982,note_off,218,0,0,,5,,,77,127
43983,note_on,1,0,0,,4,,,76,127
44201,note_off,218,0,0,,4,,,76,127
44201,note_off,0,0,0,,10,,,69,127
44201,note_off,0,0,0,,12,,,59,127
44201,note_off,0,0,0,,2,,,50,127
44201,note_off,0,0,0,,10,,,57,127
44202,note_on,1,0,0,,12,,,59,127
44202,note_on,0,0,0,,10,,,57,127
44202,note_on,0,0,0,,2,,,50,127
44202,note_on,0,0,0,,0,,,84,127
44202,note_on,0,0,0,,2,,,74,127
44420,note_off,218,0,0,,0,,,84,127
44421,note_on,1,0,0,,11,,,82,127
44640,note_on,219,0,0,,8,,,80,127
44694,note_off,54,0,0,,11,,,82,127
44859,note_off,165,0,0,,8,,,80,127
44859,note_off,0,0,0,,2,,,74,127
44859,note_off,0,0,0,,2,,,50,127
44859,note_off,0,0,0,,10,,,57,127
44859,note_off,0,0,0,,12,,,59,127
44860,note_on,1,0,0,,0,,,48,127
44860,note_on,0,0,0,,10,,,57,127
44860,note_on,0,0,0,,10,,,81,127
45078,note_off,218,0,0,,10,,,81,127
45079,note_on,1,0,0,,4,,,76,127
45297,note_off,218,0,0,,4,,,76,127
45297,note_off,0,0,0,,10,,,57,127
45297,note_off,0,0,0,,0,,,48,127
45298,note_on,1,0,0,,2,,,50,127
45298,note_on,0,0,0,,12,,,59,127
45298,note_on,0,0,0,,2,,,74,127
45516,note_off,218,0,0,,2,,,74,127
45516,note_off,0,0,0,,12,,,59,127
45516,note_off,0,0,0,,2,,,50,127
45517,note_on,1,0,0,,10,,,57,127
45517,note_on,0,0,0,,4,,,52,127
45517,note_on,0,0,0,,0,,,60,127
45517,note_on,0,0,0,,0,,,72,127
45735,note_off,218,0,0,,0,,,72,127
45736,note_on,1,0,0,,12,,,71,127
45845,note_off,109,0,0,,12,,,71,127
45846,note_on,1,0,0,,10,,,69,127
45955,note_off,109,0,0,,10,,,69,127
45955,note_off,0,0,0,,0,,,60,127
45955,note_off,0,0,0,,4,,,52,127
45955,note_off,0,0,0,,10,,,57,127
45956,note_on,1,0,0,,4,,,52,127
45956,note_on,0,0,0,,12,,,59,127
45956,note_on,0,0,0,,12,,,71,127
46065,note_off,109,0,0,,12,,,71,127
46066,note_on,1,0,0,,8,,,68,127
46175,note_off,109,0,0,,8,,,68,127
46175,note_off,0,0,0,,12,,,59,127
46175,note_off,0,0,0,,4,,,52,127
46176,note_on,1,0,0,,10,,,45,127
46176,note_on,0,0,0,,10,,,57,127
46176,note_on,0,0,0,,8,,,68,127
46394,note_off,218,0,0,,8,,,68,127
46395,note_on,1,0,0,,10,,,69,127
46613,note_off,218,0,0,,10,,,69,127
46614,note_on,1,0,0,,4,,,64,127
46724,note_off,110,0,0,,10,,,45,127
46833,note_off,109,0,0,,4,,,64,127
46833,note_off,0,0,0,,10,,,57,127
46834,note_on,1,0,0,,2,,,50,127
46834,note_on,0,0,0,,10,,,57,127
46834,note_on,0,0,0,,12,,,59,127
46834,note_on,0,0,0,,7,,,67,127
47052,note_off,218,0,0,,7,,,67,127
47053,note_on,1,0,0,,5,,,65,127
47271,note_off,218,0,0,,5,,,65,127
47272,note_on,1,0,0,,4,,,64,127
47490,note_off,218,0,0,,4,,,64,127
47490,note_off,0,0,0,,12,,,59,127
47490,note_off,0,0,0,,10,,,57,127
47490,note_off,0,0,0,,2,,,50,127
47491,note_on,1,0,0,,10,,,57,127
47491,note_on,0,0,0,,2,,,50,127
47491,note_on,0,0,0,,12,,,59,127
47491,note_on,0,0,0,,5,,,65,127
47491,note_on,0,0,0,,2,,,74,127
47709,note_off,218,0,0,,2,,,74,127
47710,note_on,1,0,0,,0,,,72,127
47928,note_off,218,0,0,,0,,,72,127
47929,note_on,1,0,0,,12,,,71,127
48147,note_off,218,0,0,,12,,,71,127
48147,note_off,0,0,0,,5,,,65,127
48147,note_off,0,0,0,,12,,,59,127
48147,note_off,0,0,0,,2,,,50,127
48147,note_off,0,0,0,,10,,,57,127
48148,note_on,1,0,0,,2,,,50,127
48148,note_on,0,0,0,,12,,,59,127
48148,note_on,0,0,0,,10,,,57,127
48148,note_on,0,0,0,,7,,,79,127
48148,note_on,0,0,0,,10,,,69,127
48366,note_off,218,0,0,,7,,,79,127
48367,note_on,1,0,0,,5,,,77,127
48585,note_off,218,0,0,,5,,,77,127
48586,note_on,1,0,0,,4,,,76,127
48804,note_off,218,0,0,,4,,,76,127
48804,note_off,0,0,0,,10,,,69,127
48804,note_off,0,0,0,,10,,,57,127
48804,note_off,0,0,0,,12,,,59,127
48804,note_off,0,0,0,,2,,,50,127
48805,note_on,1,0,0,,2,,,50,127
48805,note_on,0,0,0,,12,,,59,127
48805,note_on,0,0,0,,10,,,57,127
48805,note_on,0,0,0,,0,,,84,127
48805,note_on,0,0,0,,2,,,74,127
49024,note_on,219,0,0,,11,,,82,127
49078,note_off,54,0,0,,0,,,84,127
49243,note_off,165,0,0,,11,,,82,127
49244,note_on,1,0,0,,8,,,80,127
49462,note_off,218,0,0,,8,,,80,127
49462,note_off,0,0,0,,2,,,74,127
49462,note_off,0,0,0,,10,,,57,127
49462,note_off,0,0,0,,12,,,59,127
49462,note_off,0,0,0,,2,,,50,127
49463,note_on,1,0,0,,0,,,48,127
49463,note_on,0,0,0,,10,,,57,127
49463,note_on,0,0,0,,10,,,81,127
49681,note_off,218,0,0,,10,,,81,127
49682,note_on,1,0,0,,4,,,76,127
49900,note_off,218,0,0,,4,,,76,127
49900,note_off,0,0,0,,10,,,57,127
49900,note_off,0,0,0,,0,,,48,127
49901,note_on,1,0,0,,12,,,59,127
49901,note_on,0,0,0,,2,,,50,127
49901,note_on,0,0,0,,2,,,74,127
50119,note_off,218,0,0,,2,,,74,127
50119,note_off,0,0,0,,2,,,50,127
50119,note_off,0,0,0,,12,,,59,127
50120,note_on,1,0,0,,10,,,57,127
50120,note_on,0,0,0,,4,,,52,127
50120,note_on,0,0,0,,0,,,60,127
50120,note_on,0,0,0,,0,,,72,127
50338,note_off,218,0,0,,0,,,72,127
50339,note_on,1,0,0,,12,,,71,127
50448,note_off,109,0,0,,12,,,71,127
50449,note_on,1,0,0,,10,,,69,127
50558,note_off,109,0,0,,10,,,69,127
50558,note_off,0,0,0,,0,,,60,127
50558,note_off,0,0,0,,4,,,52,127
50558,note_off,0,0,0,,10,,,57,127
50559,note_on,1,0,0,,4,,,52,127
50559,note_on,0,0,0,,12,,,59,127
50559,note_on,0,0,0,,12,,,71,127
50668,note_off,109,0,0,,12,,,71,127
50669,note_on,1,0,0,,8,,,68,127
50778,note_off,109,0,0,,8,,,68,127
50778,note_off,0,0,0,,12,,,59,127
50778,note_off,0,0,0,,4,,,52,127
50779,note_on,1,0,0,,10,,,45,127
50779,note_on,0,0,0,,10,,,69,127
50997,note_off,218,0,0,,10,,,69,127
50997,note_off,0,0,0,,10,,,45,127
50998,note_on,1,0,0,,10,,,57,127
50998,note_on,0,0,0,,1,,,73,127
51216,note_off,218,0,0,,1,,,73,127
51216,note_off,0,0,0,,10,,,57,127
51217,note_on,1,0,0,,1,,,61,127
51217,note_on,0,0,0,,4,,,76,127
51435,note_off,218,0,0,,1,,,61,127
51436,note_on,1,0,0,,4,,,40,127
51654,note_off,218,0,0,,4,,,76,127
51655,note_on,1,0,0,,2,,,74,127
51764,note_off,109,0,0,,2,,,74,127
51765,note_on,1,0,0,,1,,,73,127
51874,note_off,109,0,0,,1,,,73,127
51875,note_on,1,0,0,,12,,,71,127
51984,note_off,109,0,0,,12,,,71,127
51985,note_on,1,0,0,,2,,,74,127
52094,note_off,109,0,0,,2,,,74,127
52094,note_off,0,0,0,,4,,,40,127
52095,note_on,1,0,0,,10,,,45,127
52095,note_on,0,0,0,,1,,,73,127
52204,note_off,109,0,0,,1,,,73,127
52205,note_on,1,0,0,,10,,,69,127
52314,note_off,109,0,0,,10,,,69,127
52314,note_off,0,0,0,,10,,,45,127
52315,note_on,1,0,0,,10,,,57,127
52315,note_on,0,0,0,,2,,,74,127
52424,note_off,109,0,0,,2,,,74,127
52425,note_on,1,0,0,,12,,,71,127
52534,note_off,109,0,0,,12,,,71,127
52534,note_off,0,0,0,,10,,,57,127
52535,note_on,1,0,0,,1,,,61,127
52535,note_on,0,0,0,,4,,,76,127
52753,note_off,218,0,0,,1,,,61,127
52754,note_on,1,0,0,,4,,,40,127
52754,note_on,0,0,0,,4,,,64,127
52972,note_off,218,0,0,,4,,,76,127
52973,note_on,1,0,0,,2,,,74,127
53082,note_off,109,0,0,,2,,,74,127
53083,note_on,1,0,0,,1,,,73,127
53192,note_off,109,0,0,,1,,,73,127
53193,note_on,1,0,0,,12,,,71,127
53302,note_off,109,0,0,,12,,,71,127
53303,note_on,1,0,0,,2,,,74,127
53412,note_off,109,0,0,,2,,,74,127
53412,note_off,0,0,0,,4,,,64,127
53412,note_off,0,0,0,,4,,,40,127
53413,note_on,1,0,0,,10,,,45,127
53413,note_on,0,0,0,,1,,,73,127
53522,note_off,109,0,0,,1,,,73,127
53523,note_on,1,0,0,,10,,,69,127
53632,note_off,109,0,0,,10,,,69,127
53632,note_off,0,0,0,,10,,,45,127
53633,note_on,1,0,0,,10,,,57,127
53633,note_on,0,0,0,,2,,,74,127
53742,note_off,109,0,0,,2,,,74,127
53743,note_on,1,0,0,,12,,,71,127
53852,note_off,109,0,0,,12,,,71,127
53852,note_off,0,0,0,,10,,,57,127
53853,note_on,1,0,0,,1,,,61,127
53853,note_on,0,0,0,,4,,,76,127
54071,note_off,218,0,0,,1,,,61,127
54072,note_on,1,0,0,,4,,,40,127
54072,note_on,0,0,0,,4,,,64,127
54290,note_off,218,0,0,,4,,,76,127
54291,note_on,1,0,0,,2,,,74,127
54400,note_off,109,0,0,,2,,,74,127
54401,note_on,1,0,0,,1,,,73,127
54510,note_off,109,0,0,,1,,,73,127
54511,note_on,1,0,0,,12,,,71,127
54620,note_off,109,0,0,,12,,,71,127
54621,note_on,1,0,0,,2,,,74,127
54730,note_off,109,0,0,,2,,,74,127
54730,note_off,0,0,0,,4,,,64,127
54730,note_off,0,0,0,,4,,,40,127
54731,note_on,1,0,0,,10,,,45,127
54731,note_on,0,0,0,,1,,,73,127
54840,note_off,109,0,0,,1,,,73,127
54841,note_on,1,0,0,,10,,,69,127
54950,note_off,109,0,0,,10,,,69,127
54951,note_on,1,0,0,,10,,,57,127
54951,note_on,0,0,0,,1,,,73,127
55060,note_off,109,0,0,,1,,,73,127
55061,note_on,1,0,0,,4,,,76,127
55166,note_off,105,0,0,,10,,,45,127
55169,note_off,3,0,0,,4,,,76,127
55170,note_on,1,0,0,,1,,,49,127
55170,note_on,0,0,0,,10,,,81,127
55279,note_off,109,0,0,,10,,,81,127
55280,note_on,1,0,0,,6,,,78,127
55385,note_off,105,0,0,,10,,,57,127
55388,note_off,3,0,0,,6,,,78,127
55388,note_off,0,0,0,,1,,,49,127
55389,note_on,1,0,0,,2,,,50,127
55389,note_on,0,0,0,,4,,,76,127
55498,note_off,109,0,0,,4,,,76,127
55499,note_on,1,0,0,,2,,,74,127
55608,note_off,109,0,0,,2,,,74,127
55608,note_off,0,0,0,,2,,,50,127
55609,note_on,1,0,0,,4,,,52,127
55609,note_on,0,0,0,,1,,,73,127
55718,note_off,109,0,0,,1,,,73,127
55719,note_on,1,0,0,,12,,,71,127
55828,note_off,109,0,0,,12,,,71,127
55829,note_on,1,0,0,,4,,,40,127
55829,note_on,0,0,0,,10,,,69,127
55938,note_off,109,0,0,,10,,,69,127
55939,note_on,1,0,0,,8,,,68,127
56048,note_off,109,0,0,,8,,,68,127
56048,note_off,0,0,0,,4,,,40,127
56048,note_off,0,0,0,,4,,,52,127
56049,note_on,1,0,0,,10,,,45,127
56049,note_on,0,0,0,,10,,,69,127
56267,note_off,218,0,0,,10,,,69,127
56267,note_off,0,0,0,,10,,,45,127
56268,note_on,1,0,0,,10,,,57,127
56268,note_on,0,0,0,,1,,,73,127
56486,note_off,218,0,0,,1,,,73,127
56486,note_off,0,0,0,,10,,,57,127
56487,note_on,1,0,0,,1,,,61,127
56487,note_on,0,0,0,,4,,,76,127
56705,note_off,218,0,0,,1,,,61,127
56706,note_on,1,0,0,,4,,,40,127
56924,note_off,218,0,0,,4,,,76,127
56925,note_on,1,0,0,,2,,,74,127
57034,note_off,109,0,0,,2,,,74,127
57035,note_on,1,0,0,,1,,,73,127
57144,note_off,109,0,0,,1,,,73,127
57145,note_on,1,0,0,,12,,,71,127
57254,note_off,109,0,0,,12,,,71,127
57255,note_on,1,0,0,,2,,,74,127
57364,note_off,109,0,0,,2,,,74,127
57364,note_off,0,0,0,,4,,,40,127
57365,note_on,1,0,0,,10,,,45,127
57365,note_on,0,0,0,,1,,,73,127
57474,note_off,109,0,0,,1,,,73,127
57475,note_on,1,0,0,,10,,,69,127
57584,note_off,109,0,0,,10,,,69,127
57584,note_off,0,0,0,,10,,,45,127
57585,note_on,1,0,0,,10,,,57,127
57585,note_on,0,0,0,,2,,,74,127
57694,note_off,109,0,0,,2,,,74,127
57695,note_on,1,0,0,,12,,,71,127
57804,note_off,109,0,0,,12,,,71,127
57804,note_off,0,0,0,,10,,,57,127
57805,note_on,1,0,0,,1,,,61,127
57805,note_on,0,0,0,,4,,,76,127
58023,note_off,218,0,0,,1,,,61,127
58024,note_on,1,0,0,,4,,,40,127
58024,note_on,0,0,0,,4,,,64,127
58242,note_off,218,0,0,,4,,,76,127
58243,note_on,1,0,0,,2,,,74,127
58352,note_off,109,0,0,,2,,,74,127
58353,note_on,1,0,0,,1,,,73,127
58462,note_off,109,0,0,,1,,,73,127
58463,note_on,1,0,0,,12,,,71,127
58572,note_off,109,0,0,,12,,,71,127
58573,note_on,1,0,0,,2,,,74,127
58682,note_off,109,0,0,,2,,,74,127
58682,note_off,0,0,0,,4,,,64,127
58682,note_off,0,0,0,,4,,,40,127
58683,note_on,1,0,0,,10,,,45,127
58683,note_on,0,0,0,,1,,,73,127
58792,note_off,109,0,0,,1,,,73,127
58793,note_on,1,0,0,,10,,,69,127
58902,note_off,109,0,0,,10,,,69,127
58902,note_off,0,0,0,,10,,,45,127
58903,note_on,1,0,0,,10,,,57,127
58903,note_on,0,0,0,,2,,,74,127
59012,note_off,109,0,0,,2,,,74,127
59013,note_on,1,0,0,,12,,,71,127
59122,note_off,109,0,0,,12,,,71,127
59122,note_off,0,0,0,,10,,,57,127
59123,note_on,1,0,0,,1,,,61,127
59123,note_on,0,0,0,,4,,,76,127
59341,note_off,218,0,0,,1,,,61,127
59342,note_on,1,0,0,,4,,,40,127
59342,note_on,0,0,0,,4,,,64,127
59560,note_off,218,0,0,,4,,,76,127
59561,note_on,1,0,0,,2,,,74,127
59670,note_off,109,0,0,,2,,,74,127
59671,note_on,1,0,0,,1,,,73,127
59780,note_off,109,0,0,,1,,,73,127
59781,note_on,1,0,0,,12,,,71,127
59890,note_off,109,0,0,,12,,,71,127
59891,note_on,1,0,0,,2,,,74,127
60000,note_off,109,0,0,,2,,,74,127
60000,note_off,0,0,0,,4,,,64,127
60000,note_off,0,0,0,,4,,,40,127
60001,note_on,1,0,0,,10,,,45,127
60001,note_on,0,0,0,,1,,,73,127
60110,note_off,109,0,0,,1,,,73,127
60111,note_on,1,0,0,,10,,,69,127
60220,note_off,109,0,0,,10,,,69,127
60221,note_on,1,0,0,,10,,,57,127
60221,note_on,0,0,0,,1,,,73,127
60330,note_off,109,0,0,,1,,,73,127
60331,note_on,1,0,0,,4,,,76,127
60436,note_off,105,0,0,,10,,,45,127
60439,note_off,3,0,0,,4,,,76,127
60440,note_on,1,0,0,,1,,,49,127
60440,note_on,0,0,0,,10,,,81,127
60549,note_off,109,0,0,,10,,,81,127
60550,note_on,1,0,0,,6,,,78,127
60655,note_off,105,0,0,,10,,,57,127
60658,note_off,3,0,0,,6,,,78,127
60658,note_off,0,0,0,,1,,,49,127
60659,note_on,1,0,0,,2,,,50,127
60659,note_on,0,0,0,,4,,,76,127
60768,note_off,109,0,0,,4,,,76,127
60769,note_on,1,0,0,,2,,,74,127
60878,note_off,109,0,0,,2,,,74,127
60878,note_off,0,0,0,,2,,,50,127
60879,note_on,1,0,0,,4,,,52,127
60879,note_on,0,0,0,,1,,,73,127
60988,note_off,109,0,0,,1,,,73,127
60989,note_on,1,0,0,,12,,,71,127
61098,note_off,109,0,0,,12,,,71,127
61099,note_on,1,0,0,,4,,,40,127
61099,note_on,0,0,0,,10,,,69,127
61208,note_off,109,0,0,,10,,,69,127
61209,note_on,1,0,0,,8,,,68,127
61318,note_off,109,0,0,,8,,,68,127
61318,note_off,0,0,0,,4,,,40,127
61318,note_off,0,0,0,,4,,,52,127
61319,note_on,1,0,0,,10,,,45,127
61319,note_on,0,0,0,,10,,,69,127
61537,note_off,218,0,0,,10,,,69,127
61537,note_off,0,0,0,,10,,,45,127
61538,note_on,1,0,0,,10,,,69,127
61538,note_on,0,0,0,,0,,,72,127
61538,note_on,0,0,0,,0,,,84,127
61756,note_off,218,0,0,,10,,,69,127
61757,note_on,1,0,0,,7,,,67,127
61975,note_off,218,0,0,,7,,,67,127
61976,note_on,1,0,0,,5,,,65,127
62194,note_off,218,0,0,,5,,,65,127
62194,note_off,0,0,0,,0,,,84,127
62194,note_off,0,0,0,,0,,,72,127
62195,note_on,1,0,0,,10,,,69,127
62195,note_on,0,0,0,,0,,,72,127
62195,note_on,0,0,0,,0,,,84,127
62413,note_off,218,0,0,,10,,,69,127
62414,note_on,1,0,0,,4,,,64,127
62632,note_off,218,0,0,,4,,,64,127
62633,note_on,1,0,0,,2,,,62,127
62851,note_off,218,0,0,,0,,,84,127
62851,note_off,0,0,0,,0,,,72,127
62852,note_on,1,0,0,,2,,,86,127
62852,note_on,0,0,0,,2,,,74,127
63070,note_off,218,0,0,,2,,,74,127
63070,note_off,0,0,0,,2,,,86,127
63070,note_off,0,0,0,,2,,,62,127
63071,note_on,1,0,0,,5,,,65,127
63071,note_on,0,0,0,,12,,,83,127
63071,note_on,0,0,0,,12,,,71,127
63289,note_off,218,0,0,,12,,,71,127
63289,note_off,0,0,0,,12,,,83,127
63289,note_off,0,0,0,,5,,,65,127
63290,note_on,1,0,0,,4,,,64,127
63290,note_on,0,0,0,,10,,,81,127
63290,note_on,0,0,0,,10,,,69,127
63508,note_off,218,0,0,,10,,,69,127
63508,note_off,0,0,0,,10,,,81,127
63509,note_on,1,0,0,,10,,,69,127
63509,note_on,0,0,0,,10,,,81,127
63727,note_off,218,0,0,,10,,,81,127
63727,note_off,0,0,0,,10,,,69,127
63727,note_off,0,0,0,,4,,,64,127
63728,note_on,1,0,0,,4,,,52,127
63728,note_on,0,0,0,,8,,,80,127
63728,note_on,0,0,0,,8,,,68,127
63946,note_off,218,0,0,,8,,,68,127
63946,note_off,0,0,0,,8,,,80,127
63946,note_off,0,0,0,,4,,,52,127
63947,note_on,1,0,0,,10,,,57,127
63947,note_on,0,0,0,,10,,,81,127
63947,note_on,0,0,0,,10,,,69,127
64165,note_off,218,0,0,,10,,,69,127
64165,note_off,0,0,0,,10,,,81,127
64165,note_off,0,0,0,,10,,,57,127
64166,note_on,1,0,0,,10,,,69,127
64166,note_on,0,0,0,,1,,,85,127
64166,note_on,0,0,0,,1,,,73,127
64384,note_off,218,0,0,,10,,,69,127
64385,note_on,1,0,0,,8,,,68,127
64603,note_off,218,0,0,,8,,,68,127
64604,note_on,1,0,0,,6,,,66,127
64822,note_off,218,0,0,,6,,,66,127
64822,note_off,0,0,0,,1,,,73,127
64822,note_off,0,0,0,,1,,,85,127
64823,note_on,1,0,0,,10,,,69,127
64823,note_on,0,0,0,,1,,,85,127
64823,note_on,0,0,0,,1,,,73,127
65041,note_off,218,0,0,,10,,,69,127
65042,note_on,1,0,0,,4,,,64,127
65260,note_off,218,0,0,,4,,,64,127
65261,note_on,1,0,0,,2,,,62,127
65479,note_off,218,0,0,,1,,,73,127
65479,note_off,0,0,0,,1,,,85,127
65480,note_on,1,0,0,,2,,,86,127
65480,note_on,0,0,0,,2,,,74,127
65698,note_off,218,0,0,,2,,,74,127
65698,note_off,0,0,0,,2,,,86,127
65698,note_off,0,0,0,,2,,,62,127
65699,note_on,1,0,0,,6,,,66,127
65699,note_on,0,0,0,,12,,,83,127
65699,note_on,0,0,0,,12,,,71,127
65917,note_off,218,0,0,,12,,,71,127
65917,note_off,0,0,0,,12,,,83,127
65917,note_off,0,0,0,,6,,,66,127
65918,note_on,1,0,0,,4,,,64,127
65918,note_on,0,0,0,,10,,,69,127
65918,note_on,0,0,0,,10,,,81,127
66136,note_off,218,0,0,,10,,,81,127
66136,note_off,0,0,0,,10,,,69,127
66137,note_on,1,0,0,,10,,,81,127
66137,note_on,0,0,0,,10,,,69,127
66355,note_off,218,0,0,,10,,,69,127
66355,note_off,0,0,0,,10,,,81,127
66355,note_off,0,0,0,,4,,,64,127
66356,note_on,1,0,0,,4,,,52,127
66356,note_on,0,0,0,,8,,,80,127
66356,note_on,0,0,0,,8,,,68,127
66574,note_off,218,0,0,,8,,,68,127
66574,note_off,0,0,0,,8,,,80,127
66574,note_off,0,0,0,,4,,,52,127
66575,note_on,1,0,0,,10,,,45,127
66575,note_on,0,0,0,,10,,,81,127
66575,note_on,0,0,0,,10,,,69,127
66793,note_off,218,0,0,,10,,,69,127
66793,note_off,0,0,0,,10,,,81,127
66793,note_off,0,0,0,,10,,,45,127
66794,note_on,1,0,0,,10,,,57,127
66794,note_on,0,0,0,,4,,,76,127
66794,note_on,0,0,0,,4,,,64,127
67012,note_off,218,0,0,,4,,,64,127
67012,note_off,0,0,0,,4,,,76,127
67012,note_off,0,0,0,,10,,,57,127
67013,note_on,1,0,0,,1,,,49,127
67013,note_on,0,0,0,,1,,,73,127
67013,note_on,0,0,0,,1,,,61,127
67231,note_off,218,0,0,,1,,,61,127
67231,note_off,0,0,0,,1,,,73,127
67231,note_off,0,0,0,,1,,,49,127
67232,note_on,1,0,0,,2,,,50,127
67232,note_on,0,0,0,,10,,,57,127
67232,note_on,0,0,0,,6,,,66,127
67232,note_on,0,0,0,,6,,,78,127
67450,note_off,218,0,0,,6,,,78,127
67450,note_off,0,0,0,,6,,,66,127
67450,note_off,0,0,0,,2,,,50,127
67451,note_on,1,0,0,,12,,,47,127
67451,note_on,0,0,0,,2,,,62,127
67451,note_on,0,0,0,,2,,,74,127
67669,note_off,218,0,0,,2,,,74,127
67669,note_off,0,0,0,,2,,,62,127
67669,note_off,0,0,0,,12,,,47,127
67670,note_on,1,0,0,,4,,,52,127
67670,note_on,0,0,0,,8,,,80,127
67670,note_on,0,0,0,,8,,,68,127
67888,note_off,218,0,0,,8,,,68,127
67888,note_off,0,0,0,,8,,,80,127
67888,note_off,0,0,0,,4,,,52,127
67888,note_off,0,0,0,,10,,,57,127
67889,note_on,1,0,0,,1,,,49,127
67889,note_on,0,0,0,,10,,,57,127
67889,note_on,0,0,0,,10,,,81,127
67889,note_on,0,0,0,,10,,,69,127
68107,note_off,218,0,0,,10,,,69,127
68107,note_off,0,0,0,,10,,,81,127
68107,note_off,0,0,0,,1,,,49,127
68108,note_on,1,0,0,,10,,,45,127
68108,note_on,0,0,0,,4,,,76,127
68108,note_on,0,0,0,,4,,,64,127
68326,note_off,218,0,0,,4,,,64,127
68326,note_off,0,0,0,,4,,,76,127
68326,note_off,0,0,0,,10,,,45,127
68327,note_on,1,0,0,,1,,,49,127
68327,note_on,0,0,0,,1,,,73,127
68327,note_on,0,0,0,,1,,,61,127
68545,note_off,218,0,0,,1,,,61,127
68545,note_off,0,0,0,,1,,,73,127
68545,note_off,0,0,0,,1,,,49,127
68545,note_off,0,0,0,,10,,,57,127
68546,note_on,1,0,0,,10,,,57,127
68546,note_on,0,0,0,,2,,,50,127
68546,note_on,0,0,0,,6,,,66,127
68546,note_on,0,0,0,,6,,,78,127
68764,note_off,218,0,0,,6,,,78,127
68764,note_off,0,0,0,,6,,,66,127
68764,note_off,0,0,0,,2,,,50,127
68765,note_on,1,0,0,,12,,,47,127
68765,note_on,0,0,0,,2,,,74,127
68765,note_on,0,0,0,,2,,,62,127
68983,note_off,218,0,0,,2,,,62,127
68983,note_off,0,0,0,,2,,,74,127
68983,note_off,0,0,0,,12,,,47,127
68984,note_on,1,0,0,,4,,,52,127
68984,note_on,0,0,0,,8,,,80,127
68984,note_on,0,0,0,,8,,,68,127
69202,note_off,218,0,0,,8,,,68,127
69202,note_off,0,0,0,,8,,,80,127
69202,note_off,0,0,0,,4,,,52,127
69202,note_off,0,0,0,,10,,,57,127
69203,note_on,1,0,0,,10,,,57,127
69203,note_on,0,0,0,,1,,,49,127
69203,note_on,0,0,0,,10,,,81,127
69203,note_on,0,0,0,,10,,,69,127
69421,note_off,218,0,0,,10,,,69,127
69421,note_off,0,0,0,,10,,,81,127
69421,note_off,0,0,0,,1,,,49,127
69422,note_on,1,0,0,,10,,,45,127
69422,note_on,0,0,0,,4,,,76,127
69422,note_on,0,0,0,,4,,,64,127
69640,note_off,218,0,0,,4,,,64,127
69640,note_off,0,0,0,,4,,,76,127
69640,note_off,0,0,0,,10,,,45,127
69641,note_on,1,0,0,,1,,,49,127
69641,note_on,0,0,0,,1,,,61,127
69641,note_on,0,0,0,,1,,,73,127
69859,note_off,218,0,0,,1,,,73,127
69859,note_off,0,0,0,,1,,,61,127
69859,note_off,0,0,0,,1,,,49,127
69859,note_off,0,0,0,,10,,,57,127
69860,note_on,1,0,0,,2,,,50,127
69860,note_on,0,0,0,,10,,,57,127
69860,note_on,0,0,0,,6,,,78,127
69860,note_on,0,0,0,,6,,,66,127
70078,note_off,218,0,0,,6,,,66,127
70078,note_off,0,0,0,,6,,,78,127
70078,note_off,0,0,0,,2,,,50,127
70079,note_on,1,0,0,,12,,,47,127
70079,note_on,0,0,0,,2,,,62,127
70079,note_on,0,0,0,,2,,,74,127
70297,note_off,218,0,0,,2,,,74,127
70297,note_off,0,0,0,,2,,,62,127
70297,note_off,0,0,0,,12,,,47,127
70298,note_on,1,0,0,,4,,,52,127
70298,note_on,0,0,0,,8,,,68,127
70298,note_on,0,0,0,,8,,,80,127
70516,note_off,218,0,0,,8,,,80,127
70516,note_off,0,0,0,,8,,,68,127
70516,note_off,0,0,0,,4,,,52,127
70516,note_off,0,0,0,,10,,,57,127
70517,note_on,1,0,0,,1,,,49,127
70517,note_on,0,0,0,,10,,,57,127
70517,note_on,0,0,0,,10,,,69,127
70517,note_on,0,0,0,,10,,,81,127
70735,note_off,218,0,0,,10,,,81,127
70735,note_off,0,0,0,,10,,,69,127
70735,note_off,0,0,0,,10,,,57,127
70735,note_off,0,0,0,,1,,,49,127
70736,note_on,1,0,0,,1,,,49,127
70736,note_on,0,0,0,,4,,,76,127
70736,note_on,0,0,0,,1,,,73,127
70954,note_off,218,0,0,,1,,,73,127
70954,note_off,0,0,0,,4,,,76,127
70954,note_off,0,0,0,,1,,,49,127
70955,note_on,1,0,0,,2,,,50,127
70955,note_on,0,0,0,,6,,,66,127
70955,note_on,0,0,0,,2,,,74,127
71173,note_off,218,0,0,,2,,,74,127
71173,note_off,0,0,0,,6,,,66,127
71173,note_off,0,0,0,,2,,,50,127
71174,note_on,1,0,0,,4,,,52,127
71174,note_on,0,0,0,,4,,,64,127
71174,note_on,0,0,0,,1,,,73,127
71392,note_off,218,0,0,,1,,,73,127
71393,note_on,1,0,0,,10,,,69,127
71611,note_off,218,0,0,,10,,,69,127
71611,note_off,0,0,0,,4,,,64,127
71612,note_on,1,0,0,,4,,,40,127
71612,note_on,0,0,0,,12,,,71,127
71612,note_on,0,0,0,,2,,,62,127
71830,note_off,218,0,0,,2,,,62,127
71830,note_off,0,0,0,,12,,,71,127
71830,note_off,0,0,0,,4,,,40,127
71830,note_off,0,0,0,,4,,,52,127
71831,note_on,1,0,0,,10,,,45,127
71831,note_on,0,0,0,,1,,,61,127
71831,note_on,0,0,0,,10,,,69,127
72049,note_off,218,0,0,,10,,,69,127
72049,note_off,0,0,0,,1,,,61,127
72050,note_on,1,0,0,,1,,,61,127
72050,note_on,0,0,0,,10,,,69,127
72268,note_off,218,0,0,,10,,,69,127
72268,note_off,0,0,0,,1,,,61,127
72269,note_on,1,0,0,,4,,,64,127
72269,note_on,0,0,0,,12,,,71,127
72487,note_off,218,0,0,,12,,,71,127
72487,note_off,0,0,0,,4,,,64,127
72487,note_off,0,0,0,,10,,,45,127
72488,note_on,1,0,0,,10,,,45,127
72488,note_on,0,0,0,,1,,,61,127
72488,note_on,0,0,0,,10,,,69,127
72706,note_off,218,0,0,,10,,,69,127
72706,note_off,0,0,0,,1,,,61,127
72707,note_on,1,0,0,,10,,,69,127
72707,note_on,0,0,0,,1,,,61,127
72925,note_off,218,0,0,,1,,,61,127
72925,note_off,0,0,0,,10,,,69,127
72926,note_on,1,0,0,,4,,,64,127
72926,note_on,0,0,0,,12,,,71,127
73144,note_off,218,0,0,,12,,,71,127
73144,note_off,0,0,0,,4,,,64,127
73144,note_off,0,0,0,,10,,,45,127
73145,note_on,1,0,0,,10,,,45,127
73145,note_on,0,0,0,,10,,,69,127
73145,note_on,0,0,0,,1,,,61,127
73363,note_off,218,0,0,,1,,,61,127
73363,note_off,0,0,0,,10,,,69,127
73364,note_on,1,0,0,,12,,,71,127
73364,note_on,0,0,0,,4,,,64,127
73582,note_off,218,0,0,,4,,,64,127
73582,note_off,0,0,0,,12,,,71,127
73582,note_off,0,0,0,,10,,,45,127
73583,note_on,1,0,0,,10,,,45,127
73583,note_on,0,0,0,,1,,,61,127
73583,note_on,0,0,0,,10,,,69,127
73801,note_off,218,0,0,,10,,,69,127
73801,note_off,0,0,0,,1,,,61,127
73802,note_on,1,0,0,,12,,,71,127
73802,note_on,0,0,0,,4,,,64,127
74020,note_off,218,0,0,,4,,,64,127
74020,note_off,0,0,0,,12,,,71,127
74020,note_off,0,0,0,,10,,,45,127
74021,note_on,1,0,0,,10,,,45,127
74021,note_on,0,0,0,,10,,,69,127
74021,note_on,0,0,0,,1,,,61,127
74239,note_off,218,0,0,,1,,,61,127
74239,note_off,0,0,0,,10,,,69,127
74240,note_on,1,0,0,,4,,,64,127
74240,note_on,0,0,0,,12,,,71,127
74458,note_off,218,0,0,,12,,,71,127
74458,note_off,0,0,0,,4,,,64,127
74458,note_off,0,0,0,,10,,,45,127
74459,note_on,1,0,0,,10,,,45,127
74459,note_on,0,0,0,,1,,,61,127
74459,note_on,0,0,0,,12,,,71,127
74513,note_off,54,0,0,,12,,,71,127
74514,note_on,1,0,0,,10,,,69,127
74568,note_off,54,0,0,,10,,,69,127
74569,note_on,1,0,0,,12,,,71,127
74623,note_off,54,0,0,,12,,,71,127
74624,note_on,1,0,0,,10,,,69,127
75117,note_off,493,0,0,,10,,,69,127
75117,note_off,0,0,0,,1,,,61,127
75117,note_off,0,0,0,,10,,,45,127
75118,note_on,1,0,0,,10,,,45,127
75337,note_on,219,0,0,,1,,,73,127
75337,note_on,0,0,0,,10,,,69,127
75555,note_off,218,0,0,,10,,,69,127
75555,note_off,0,0,0,,1,,,73,127
75556,note_on,1,0,0,,2,,,74,127
75556,note_on,0,0,0,,12,,,71,127
75774,note_off,218,0,0,,12,,,71,127
75774,note_off,0,0,0,,2,,,74,127
75774,note_off,0,0,0,,10,,,45,127
75775,note_on,1,0,0,,10,,,69,127
75775,note_on,0,0,0,,4,,,76,127
75775,note_on,0,0,0,,1,,,73,127
75993,note_off,218,0,0,,1,,,73,127
75993,note_off,0,0,0,,4,,,76,127
75993,note_off,0,0,0,,10,,,69,127
75994,note_on,1,0,0,,7,,,67,127
75994,note_on,0,0,0,,4,,,76,127
75994,note_on,0,0,0,,1,,,73,127
76212,note_off,218,0,0,,1,,,73,127
76212,note_off,0,0,0,,4,,,76,127
76212,note_off,0,0,0,,7,,,67,127
76213,note_on,1,0,0,,6,,,66,127
76213,note_on,0,0,0,,6,,,78,127
76213,note_on,0,0,0,,2,,,74,127
76431,note_off,218,0,0,,2,,,74,127
76431,note_off,0,0,0,,6,,,78,127
76431,note_off,0,0,0,,6,,,66,127
76432,note_on,1,0,0,,4,,,64,127
76432,note_on,0,0,0,,7,,,79,127
76432,note_on,0,0,0,,4,,,76,127
76650,note_off,218,0,0,,4,,,76,127
76650,note_off,0,0,0,,7,,,79,127
76651,note_on,1,0,0,,12,,,71,127
76651,note_on,0,0,0,,2,,,74,127
76869,note_off,218,0,0,,2,,,74,127
76869,note_off,0,0,0,,12,,,71,127
76870,note_on,1,0,0,,1,,,73,127
76870,note_on,0,0,0,,4,,,76,127
77088,note_off,218,0,0,,4,,,76,127
77088,note_off,0,0,0,,1,,,73,127
77088,note_off,0,0,0,,4,,,64,127
77089,note_on,1,0,0,,12,,,71,127
77089,note_on,0,0,0,,2,,,74,127
77089,note_on,0,0,0,,6,,,78,127
77307,note_off,218,0,0,,6,,,78,127
77307,note_off,0,0,0,,2,,,74,127
77307,note_off,0,0,0,,12,,,71,127
77308,note_on,1,0,0,,10,,,69,127
77308,note_on,0,0,0,,6,,,78,127
77308,note_on,0,0,0,,2,,,74,127
77526,note_off,218,0,0,,2,,,74,127
77526,note_off,0,0,0,,6,,,78,127
77526,note_off,0,0,0,,10,,,69,127
77527,note_on,1,0,0,,7,,,67,127
77527,note_on,0,0,0,,7,,,79,127
77527,note_on,0,0,0,,4,,,76,127
77745,note_off,218,0,0,,4,,,76,127
77745,note_off,0,0,0,,7,,,79,127
77745,note_off,0,0,0,,7,,,67,127
77746,note_on,1,0,0,,10,,,69,127
77746,note_on,0,0,0,,6,,,66,127
77746,note_on,0,0,0,,10,,,81,127
77964,note_off,218,0,0,,10,,,69,127
77965,note_on,1,0,0,,12,,,71,127
78183,note_off,218,0,0,,12,,,71,127
78183,note_off,0,0,0,,6,,,66,127
78184,note_on,1,0,0,,4,,,64,127
78184,note_on,0,0,0,,0,,,72,127
78402,note_off,218,0,0,,0,,,72,127
78402,note_off,0,0,0,,4,,,64,127
78402,note_off,0,0,0,,10,,,81,127
78403,note_on,1,0,0,,3,,,63,127
78403,note_on,0,0,0,,12,,,71,127
78403,note_on,0,0,0,,12,,,83,127
78621,note_off,218,0,0,,12,,,83,127
78621,note_off,0,0,0,,3,,,63,127
78622,note_on,1,0,0,,4,,,64,127
78622,note_on,0,0,0,,7,,,79,127
78840,note_off,218,0,0,,7,,,79,127
78840,note_off,0,0,0,,4,,,64,127
78841,note_on,1,0,0,,3,,,63,127
78841,note_on,0,0,0,,6,,,78,127
79059,note_off,218,0,0,,6,,,78,127
79059,note_off,0,0,0,,3,,,63,127
79059,note_off,0,0,0,,12,,,71,127
79060,note_on,1,0,0,,4,,,64,127
79060,note_on,0,0,0,,7,,,79,127
79278,note_off,218,0,0,,7,,,79,127
79278,note_off,0,0,0,,4,,,64,127
79279,note_on,1,0,0,,6,,,66,127
79279,note_on,0,0,0,,10,,,81,127
79497,note_off,218,0,0,,10,,,81,127
79497,note_off,0,0,0,,6,,,66,127
79498,note_on,1,0,0,,7,,,67,127
79498,note_on,0,0,0,,12,,,83,127
79716,note_off,218,0,0,,12,,,83,127
79716,note_off,0,0,0,,7,,,67,127
79717,note_on,1,0,0,,10,,,57,127
79717,note_on,0,0,0,,0,,,84,127
79935,note_off,218,0,0,,0,,,84,127
79936,note_on,1,0,0,,0,,,84,127
79936,note_on,0,0,0,,10,,,81,127
80154,note_off,218,0,0,,10,,,81,127
80154,note_off,0,0,0,,0,,,84,127
80155,note_on,1,0,0,,12,,,83,127
80155,note_on,0,0,0,,7,,,79,127
80373,note_off,218,0,0,,7,,,79,127
80373,note_off,0,0,0,,12,,,83,127
80373,note_off,0,0,0,,10,,,57,127
80374,note_on,1,0,0,,10,,,69,127
80374,note_on,0,0,0,,10,,,81,127
80592,note_off,218,0,0,,10,,,81,127
80593,note_on,1,0,0,,10,,,81,127
80593,note_on,0,0,0,,6,,,78,127
80811,note_off,218,0,0,,6,,,78,127
80811,note_off,0,0,0,,10,,,81,127
80812,note_on,1,0,0,,7,,,79,127
80812,note_on,0,0,0,,4,,,76,127
81030,note_off,218,0,0,,4,,,76,127
81030,note_off,0,0,0,,7,,,79,127
81030,note_off,0,0,0,,10,,,69,127
81031,note_on,1,0,0,,12,,,59,127
81031,note_on,0,0,0,,5,,,77,127
81249,note_off,218,0,0,,5,,,77,127
81249,note_off,0,0,0,,12,,,59,127
81250,note_on,1,0,0,,12,,,71,127
81250,note_on,0,0,0,,8,,,80,127
81250,note_on,0,0,0,,4,,,76,127
81468,note_off,218,0,0,,4,,,76,127
81468,note_off,0,0,0,,8,,,80,127
81468,note_off,0,0,0,,12,,,71,127
81469,note_on,1,0,0,,10,,,69,127
81469,note_on,0,0,0,,2,,,74,127
81469,note_on,0,0,0,,10,,,81,127
81687,note_off,218,0,0,,10,,,81,127
81687,note_off,0,0,0,,10,,,69,127
81688,note_on,1,0,0,,8,,,68,127
81688,note_on,0,0,0,,12,,,83,127
81906,note_off,218,0,0,,8,,,68,127
81906,note_off,0,0,0,,2,,,74,127
81907,note_on,1,0,0,,4,,,64,127
81907,note_on,0,0,0,,4,,,76,127
82125,note_off,218,0,0,,4,,,76,127
82125,note_off,0,0,0,,4,,,64,127
82126,note_on,1,0,0,,8,,,68,127
82126,note_on,0,0,0,,2,,,74,127
82344,note_off,218,0,0,,2,,,74,127
82344,note_off,0,0,0,,8,,,68,127
82344,note_off,0,0,0,,12,,,83,127
82345,note_on,1,0,0,,10,,,57,127
82345,note_on,0,0,0,,4,,,76,127
82345,note_on,0,0,0,,2,,,74,127
82563,note_off,218,0,0,,2,,,74,127
82564,note_on,1,0,0,,0,,,72,127
82782,note_off,218,0,0,,0,,,72,127
82782,note_off,0,0,0,,4,,,76,127
82782,note_off,0,0,0,,10,,,57,127
82783,note_on,1,0,0,,10,,,69,127
82783,note_on,0,0,0,,10,,,81,127
83001,note_off,218,0,0,,10,,,81,127
83001,note_off,0,0,0,,10,,,69,127
83002,note_on,1,0,0,,10,,,57,127
83002,note_on,0,0,0,,7,,,67,127
83002,note_on,0,0,0,,10,,,81,127
83002,note_on,0,0,0,,11,,,82,127
83220,note_off,218,0,0,,10,,,81,127
83221,note_on,1,0,0,,7,,,79,127
83439,note_off,218,0,0,,7,,,79,127
83439,note_off,0,0,0,,11,,,82,127
83439,note_off,0,0,0,,7,,,67,127
83440,note_on,1,0,0,,5,,,65,127
83440,note_on,0,0,0,,10,,,81,127
83440,note_on,0,0,0,,5,,,77,127
83658,note_off,218,0,0,,5,,,77,127
83658,note_off,0,0,0,,10,,,81,127
83658,note_off,0,0,0,,5,,,65,127
83658,note_off,0,0,0,,10,,,57,127
83659,note_on,1,0,0,,10,,,57,127
83659,note_on,0,0,0,,4,,,64,127
83659,note_on,0,0,0,,5,,,77,127
83659,note_on,0,0,0,,7,,,79,127
83877,note_off,218,0,0,,7,,,79,127
83877,note_off,0,0,0,,5,,,77,127
83878,note_on,1,0,0,,7,,,79,127
83878,note_on,0,0,0,,4,,,76,127
84096,note_off,218,0,0,,4,,,76,127
84096,note_off,0,0,0,,7,,,79,127
84096,note_off,0,0,0,,4,,,64,127
84097,note_on,1,0,0,,2,,,62,127
84097,note_on,0,0,0,,5,,,77,127
84097,note_on,0,0,0,,2,,,74,127
84315,note_off,218,0,0,,2,,,74,127
84315,note_off,0,0,0,,5,,,77,127
84315,note_off,0,0,0,,2,,,62,127
84315,note_off,0,0,0,,10,,,57,127
84316,note_on,1,0,0,,10,,,57,127
84316,note_on,0,0,0,,2,,,74,127
84316,note_on,0,0,0,,3,,,75,127
84534,note_off,218,0,0,,3,,,75,127
84534,note_off,0,0,0,,2,,,74,127
84534,note_off,0,0,0,,10,,,57,127
84535,note_on,1,0,0,,10,,,69,127
84535,note_on,0,0,0,,0,,,72,127
84535,note_on,0,0,0,,6,,,78,127
84753,note_off,218,0,0,,6,,,78,127
84753,note_off,0,0,0,,10,,,69,127
84754,note_on,1,0,0,,7,,,67,127
84754,note_on,0,0,0,,7,,,79,127
84972,note_off,218,0,0,,7,,,79,127
84972,note_off,0,0,0,,7,,,67,127
84972,note_off,0,0,0,,0,,,72,127
84973,note_on,1,0,0,,6,,,66,127
84973,note_on,0,0,0,,0,,,72,127
84973,note_on,0,0,0,,10,,,81,127
85191,note_off,218,0,0,,0,,,72,127
85191,note_off,0,0,0,,6,,,66,127
85192,note_on,1,0,0,,2,,,62,127
85192,note_on,0,0,0,,2,,,74,127
85410,note_off,218,0,0,,2,,,74,127
85410,note_off,0,0,0,,2,,,62,127
85411,note_on,1,0,0,,6,,,66,127
85411,note_on,0,0,0,,0,,,72,127
85629,note_off,218,0,0,,0,,,72,127
85629,note_off,0,0,0,,6,,,66,127
85629,note_off,0,0,0,,10,,,81,127
85630,note_on,1,0,0,,7,,,67,127
85630,note_on,0,0,0,,12,,,71,127
85630,note_on,0,0,0,,7,,,79,127
85848,note_off,218,0,0,,12,,,71,127
85848,note_off,0,0,0,,7,,,67,127
85849,note_on,1,0,0,,4,,,64,127
85849,note_on,0,0,0,,1,,,73,127
86067,note_off,218,0,0,,1,,,73,127
86067,note_off,0,0,0,,4,,,64,127
86067,note_off,0,0,0,,7,,,79,127
86068,note_on,1,0,0,,10,,,69,127
86068,note_on,0,0,0,,6,,,66,127
86068,note_on,0,0,0,,2,,,74,127
86286,note_off,218,0,0,,2,,,74,127
86286,note_off,0,0,0,,6,,,66,127
86286,note_off,0,0,0,,10,,,69,127
86287,note_on,1,0,0,,1,,,61,127
86287,note_on,0,0,0,,4,,,76,127
86505,note_off,218,0,0,,4,,,76,127
86505,note_off,0,0,0,,1,,,61,127
86506,note_on,1,0,0,,2,,,62,127
86506,note_on,0,0,0,,6,,,78,127
86724,note_off,218,0,0,,6,,,78,127
86724,note_off,0,0,0,,2,,,62,127
86725,note_on,1,0,0,,12,,,59,127
86725,note_on,0,0,0,,8,,,80,127
86943,note_off,218,0,0,,8,,,80,127
86943,note_off,0,0,0,,12,,,59,127
86944,note_on,1,0,0,,10,,,57,127
86944,note_on,0,0,0,,10,,,69,127
86944,note_on,0,0,0,,10,,,81,127
87162,note_off,218,0,0,,10,,,81,127
87162,note_off,0,0,0,,10,,,69,127
87162,note_off,0,0,0,,10,,,57,127
87163,note_on,1,0,0,,7,,,55,127
87163,note_on,0,0,0,,1,,,73,127
87381,note_off,218,0,0,,1,,,73,127
87381,note_off,0,0,0,,7,,,55,127
87382,note_on,1,0,0,,6,,,54,127
87382,note_on,0,0,0,,2,,,74,127
87600,note_off,218,0,0,,2,,,74,127
87600,note_off,0,0,0,,6,,,54,127
87601,note_on,1,0,0,,1,,,49,127
87601,note_on,0,0,0,,4,,,76,127
87819,note_off,218,0,0,,4,,,76,127
87819,note_off,0,0,0,,1,,,49,127
87820,note_on,1,0,0,,2,,,50,127
87820,note_on,0,0,0,,6,,,78,127
88038,note_off,218,0,0,,6,,,78,127
88038,note_off,0,0,0,,2,,,50,127
88039,note_on,1,0,0,,12,,,47,127
88039,note_on,0,0,0,,8,,,80,127
88257,note_off,218,0,0,,8,,,80,127
88257,note_off,0,0,0,,12,,,47,127
88258,note_on,1,0,0,,10,,,45,127
88258,note_on,0,0,0,,10,,,81,127
88476,note_off,218,0,0,,10,,,81,127
88476,note_off,0,0,0,,10,,,45,127
88477,note_on,1,0,0,,7,,,43,127
88477,note_on,0,0,0,,1,,,73,127
88695,note_off,218,0,0,,1,,,73,127
88695,note_off,0,0,0,,7,,,43,127
88696,note_on,1,0,0,,6,,,42,127
88696,note_on,0,0,0,,2,,,74,127
88914,note_off,218,0,0,,2,,,74,127
88914,note_off,0,0,0,,6,,,42,127
88915,note_on,1,0,0,,1,,,37,127
88915,note_on,0,0,0,,4,,,76,127
89133,note_off,218,0,0,,4,,,76,127
89133,note_off,0,0,0,,1,,,37,127
89134,note_on,1,0,0,,2,,,38,127
89134,note_on,0,0,0,,6,,,78,127
89352,note_off,218,0,0,,6,,,78,127
89352,note_off,0,0,0,,2,,,38,127
89353,note_on,1,0,0,,12,,,47,127
89353,note_on,0,0,0,,8,,,80,127
89571,note_off,218,0,0,,12,,,47,127
89572,note_on,1,0,0,,10,,,45,127
89790,note_off,218,0,0,,8,,,80,127
89791,note_on,1,0,0,,10,,,81,127
90120,note_off,329,0,0,,10,,,81,127
90229,note_off,109,0,0,,10,,,45,127
90230,note_on,1,0,0,,10,,,69,127
90230,note_on,0,0,0,,6,,,66,127
90230,note_on,0,0,0,,2,,,74,127
90448,note_off,218,0,0,,6,,,66,127
90448,note_off,0,0,0,,10,,,69,127
90449,note_on,1,0,0,,7,,,67,127
90449,note_on,0,0,0,,4,,,64,127
90558,note_off,109,0,0,,2,,,74,127
90559,note_on,1,0,0,,4,,,76,127
90613,note_off,54,0,0,,4,,,76,127
90614,note_on,1,0,0,,6,,,78,127
90668,note_off,54,0,0,,6,,,78,127
90668,note_off,0,0,0,,4,,,64,127
90668,note_off,0,0,0,,7,,,67,127
90669,note_on,1,0,0,,2,,,62,127
90669,note_on,0,0,0,,6,,,66,127
90669,note_on,0,0,0,,7,,,79,127
90778,note_off,109,0,0,,7,,,79,127
90779,note_on,1,0,0,,10,,,81,127
90888,note_off,109,0,0,,10,,,81,127
90888,note_off,0,0,0,,6,,,66,127
90888,note_off,0,0,0,,2,,,62,127
90889,note_on,1,0,0,,12,,,71,127
90889,note_on,0,0,0,,7,,,67,127
90889,note_on,0,0,0,,12,,,83,127
91107,note_off,218,0,0,,12,,,83,127
91108,note_on,1,0,0,,7,,,79,127
91326,note_off,218,0,0,,7,,,79,127
91327,note_on,1,0,0,,4,,,76,127
91545,note_off,218,0,0,,4,,,76,127
91545,note_off,0,0,0,,7,,,67,127
91545,note_off,0,0,0,,12,,,71,127
91546,note_on,1,0,0,,7,,,67,127
91546,note_on,0,0,0,,4,,,64,127
91546,note_on,0,0,0,,2,,,74,127
91655,note_off,109,0,0,,2,,,74,127
91656,note_on,1,0,0,,1,,,73,127
91765,note_off,109,0,0,,4,,,64,127
91765,note_off,0,0,0,,7,,,67,127
91766,note_on,1,0,0,,6,,,66,127
91766,note_on,0,0,0,,10,,,69,127
91875,note_off,109,0,0,,1,,,73,127
91876,note_on,1,0,0,,2,,,74,127
91930,note_off,54,0,0,,2,,,74,127
91931,note_on,1,0,0,,4,,,76,127
91985,note_off,54,0,0,,4,,,76,127
91985,note_off,0,0,0,,10,,,69,127
91985,note_off,0,0,0,,6,,,66,127
91986,note_on,1,0,0,,7,,,67,127
91986,note_on,0,0,0,,12,,,71,127
91986,note_on,0,0,0,,6,,,78,127
92095,note_off,109,0,0,,6,,,78,127
92096,note_on,1,0,0,,7,,,79,127
92205,note_off,109,0,0,,7,,,79,127
92205,note_off,0,0,0,,12,,,71,127
92205,note_off,0,0,0,,7,,,67,127
92206,note_on,1,0,0,,6,,,66,127
92206,note_on,0,0,0,,10,,,69,127
92206,note_on,0,0,0,,10,,,81,127
92424,note_off,218,0,0,,10,,,81,127
92425,note_on,1,0,0,,6,,,78,127
92643,note_off,218,0,0,,6,,,78,127
92644,note_on,1,0,0,,2,,,74,127
92862,note_off,218,0,0,,2,,,74,127
92862,note_off,0,0,0,,10,,,69,127
92862,note_off,0,0,0,,6,,,66,127
92863,note_on,1,0,0,,6,,,66,127
92863,note_on,0,0,0,,2,,,62,127
92863,note_on,0,0,0,,1,,,73,127
92972,note_off,109,0,0,,1,,,73,127
92973,note_on,1,0,0,,12,,,71,127
93082,note_off,109,0,0,,2,,,62,127
93082,note_off,0,0,0,,6,,,66,127
93083,note_on,1,0,0,,7,,,67,127
93083,note_on,0,0,0,,4,,,64,127
93192,note_off,109,0,0,,12,,,71,127
93193,note_on,1,0,0,,1,,,73,127
93247,note_off,54,0,0,,1,,,73,127
93248,note_on,1,0,0,,2,,,74,127
93302,note_off,54,0,0,,2,,,74,127
93302,note_off,0,0,0,,4,,,64,127
93302,note_off,0,0,0,,7,,,67,127
93303,note_on,1,0,0,,10,,,69,127
93303,note_on,0,0,0,,6,,,66,127
93303,note_on,0,0,0,,4,,,76,127
93412,note_off,109,0,0,,4,,,76,127
93413,note_on,1,0,0,,6,,,78,127
93522,note_off,109,0,0,,6,,,78,127
93522,note_off,0,0,0,,6,,,66,127
93522,note_off,0,0,0,,10,,,69,127
93523,note_on,1,0,0,,7,,,67,127
93523,note_on,0,0,0,,4,,,64,127
93523,note_on,0,0,0,,7,,,79,127
93741,note_off,218,0,0,,7,,,79,127
93742,note_on,1,0,0,,4,,,76,127
93960,note_off,218,0,0,,4,,,76,127
93961,note_on,1,0,0,,1,,,73,127
94179,note_off,218,0,0,,1,,,73,127
94179,note_off,0,0,0,,4,,,64,127
94179,note_off,0,0,0,,7,,,67,127
94180,note_on,1,0,0,,4,,,64,127
94180,note_on,0,0,0,,1,,,61,127
94180,note_on,0,0,0,,12,,,71,127
94289,note_off,109,0,0,,12,,,71,127
94290,note_on,1,0,0,,10,,,69,127
94399,note_off,109,0,0,,1,,,61,127
94399,note_off,0,0,0,,4,,,64,127
94400,note_on,1,0,0,,6,,,66,127
94400,note_on,0,0,0,,2,,,62,127
94509,note_off,109,0,0,,10,,,69,127
94510,note_on,1,0,0,,12,,,71,127
94564,note_off,54,0,0,,12,,,71,127
94565,note_on,1,0,0,,1,,,73,127
94619,note_off,54,0,0,,1,,,73,127
94619,note_off,0,0,0,,2,,,62,127
94619,note_off,0,0,0,,6,,,66,127
94620,note_on,1,0,0,,4,,,64,127
94620,note_on,0,0,0,,7,,,67,127
94620,note_on,0,0,0,,2,,,74,127
94729,note_off,109,0,0,,2,,,74,127
94730,note_on,1,0,0,,4,,,76,127
94839,note_off,109,0,0,,4,,,76,127
94839,note_off,0,0,0,,7,,,67,127
94839,note_off,0,0,0,,4,,,64,127
94840,note_on,1,0,0,,2,,,50,127
94840,note_on,0,0,0,,6,,,78,127
95058,note_off,218,0,0,,6,,,78,127
95059,note_on,1,0,0,,2,,,62,127
95059,note_on,0,0,0,,6,,,66,127
95168,note_off,109,0,0,,6,,,66,127
95169,note_on,1,0,0,,6,,,66,127
95278,note_off,109,0,0,,6,,,66,127
95278,note_off,0,0,0,,2,,,62,127
95278,note_off,0,0,0,,2,,,50,127
95279,note_on,1,0,0,,1,,,61,127
95279,note_on,0,0,0,,6,,,66,127
95388,note_off,109,0,0,,6,,,66,127
95389,note_on,1,0,0,,6,,,66,127
95498,note_off,109,0,0,,6,,,66,127
95498,note_off,0,0,0,,1,,,61,127
95499,note_on,1,0,0,,12,,,59,127
95499,note_on,0,0,0,,6,,,66,127
95608,note_off,109,0,0,,6,,,66,127
95609,note_on,1,0,0,,6,,,66,127
95718,note_off,109,0,0,,6,,,66,127
95719,note_on,1,0,0,,2,,,62,127
95719,note_on,0,0,0,,6,,,66,127
95828,note_off,109,0,0,,6,,,66,127
95829,note_on,1,0,0,,6,,,66,127
95938,note_off,109,0,0,,6,,,66,127
95938,note_off,0,0,0,,2,,,62,127
95938,note_off,0,0,0,,12,,,59,127
95939,note_on,1,0,0,,10,,,57,127
95939,note_on,0,0,0,,6,,,66,127
96048,note_off,109,0,0,,6,,,66,127
96049,note_on,1,0,0,,6,,,66,127
96158,note_off,109,0,0,,6,,,66,127
96158,note_off,0,0,0,,10,,,57,127
96159,note_on,1,0,0,,7,,,55,127
96159,note_on,0,0,0,,12,,,71,127
96268,note_off,109,0,0,,12,,,71,127
96269,note_on,1,0,0,,12,,,71,127
96378,note_off,109,0,0,,12,,,71,127
96379,note_on,1,0,0,,2,,,62,127
96379,note_on,0,0,0,,12,,,71,127
96488,note_off,109,0,0,,12,,,71,127
96489,note_on,1,0,0,,12,,,71,127
96598,note_off,109,0,0,,12,,,71,127
96598,note_off,0,0,0,,2,,,62,127
96598,note_off,0,0,0,,7,,,55,127
96599,note_on,1,0,0,,6,,,54,127
96599,note_on,0,0,0,,12,,,71,127
96708,note_off,109,0,0,,12,,,71,127
96709,note_on,1,0,0,,12,,,71,127
96818,note_off,109,0,0,,12,,,71,127
96818,note_off,0,0,0,,6,,,54,127
96819,note_on,1,0,0,,4,,,52,127
96819,note_on,0,0,0,,12,,,71,127
96928,note_off,109,0,0,,12,,,71,127
96929,note_on,1,0,0,,12,,,71,127
97038,note_off,109,0,0,,12,,,71,127
97039,note_on,1,0,0,,4,,,64,127
97039,note_on,0,0,0,,12,,,71,127
97148,note_off,109,0,0,,12,,,71,127
97149,note_on,1,0,0,,12,,,71,127
97258,note_off,109,0,0,,12,,,71,127
97258,note_off,0,0,0,,4,,,64,127
97258,note_off,0,0,0,,4,,,52,127
97259,note_on,1,0,0,,2,,,50,127
97259,note_on,0,0,0,,12,,,71,127
97368,note_off,109,0,0,,12,,,71,127
97369,note_on,1,0,0,,12,,,71,127
97478,note_off,109,0,0,,12,,,71,127
97478,note_off,0,0,0,,2,,,50,127
97479,note_on,1,0,0,,1,,,49,127
97479,note_on,0,0,0,,4,,,76,127
97588,note_off,109,0,0,,4,,,76,127
97589,note_on,1,0,0,,4,,,76,127
97698,note_off,109,0,0,,4,,,76,127
97698,note_off,0,0,0,,1,,,49,127
97699,note_on,1,0,0,,1,,,61,127
97699,note_on,0,0,0,,4,,,76,127
97808,note_off,109,0,0,,4,,,76,127
97809,note_on,1,0,0,,4,,,76,127
97918,note_off,109,0,0,,4,,,76,127
97918,note_off,0,0,0,,1,,,61,127
97919,note_on,1,0,0,,12,,,59,127
97919,note_on,0,0,0,,4,,,76,127
98028,note_off,109,0,0,,4,,,76,127
98029,note_on,1,0,0,,4,,,76,127
98138,note_off,109,0,0,,4,,,76,127
98138,note_off,0,0,0,,12,,,59,127
98139,note_on,1,0,0,,10,,,57,127
98139,note_on,0,0,0,,4,,,76,127
98248,note_off,109,0,0,,4,,,76,127
98249,note_on,1,0,0,,4,,,76,127
98358,note_off,109,0,0,,4,,,76,127
98359,note_on,1,0,0,,4,,,64,127
98359,note_on,0,0,0,,4,,,76,127
98468,note_off,109,0,0,,4,,,76,127
98469,note_on,1,0,0,,4,,,76,127
98578,note_off,109,0,0,,4,,,76,127
98578,note_off,0,0,0,,4,,,64,127
98578,note_off,0,0,0,,10,,,57,127
98579,note_on,1,0,0,,7,,,55,127
98579,note_on,0,0,0,,4,,,76,127
98688,note_off,109,0,0,,4,,,76,127
98689,note_on,1,0,0,,4,,,76,127
98798,note_off,109,0,0,,4,,,76,127
98798,note_off,0,0,0,,7,,,55,127
98799,note_on,1,0,0,,6,,,54,127
98799,note_on,0,0,0,,10,,,81,127
98908,note_off,109,0,0,,10,,,81,127
98909,note_on,1,0,0,,10,,,81,127
99018,note_off,109,0,0,,10,,,81,127
99018,note_off,0,0,0,,6,,,54,127
99019,note_on,1,0,0,,6,,,54,127
99019,note_on,0,0,0,,6,,,66,127
99019,note_on,0,0,0,,10,,,81,127
99128,note_off,109,0,0,,10,,,81,127
99129,note_on,1,0,0,,10,,,81,127
99238,note_off,109,0,0,,10,,,81,127
99238,note_off,0,0,0,,6,,,66,127
99238,note_off,0,0,0,,6,,,54,127
99239,note_on,1,0,0,,4,,,52,127
99239,note_on,0,0,0,,4,,,64,127
99239,note_on,0,0,0,,10,,,81,127
99348,note_off,109,0,0,,10,,,81,127
99349,note_on,1,0,0,,10,,,81,127
99458,note_off,109,0,0,,10,,,81,127
99458,note_off,0,0,0,,4,,,64,127
99458,note_off,0,0,0,,4,,,52,127
99459,note_on,1,0,0,,2,,,50,127
99459,note_on,0,0,0,,2,,,62,127
99459,note_on,0,0,0,,10,,,81,127
99568,note_off,109,0,0,,10,,,81,127
99569,note_on,1,0,0,,10,,,81,127
99678,note_off,109,0,0,,10,,,81,127
99678,note_off,0,0,0,,2,,,62,127
99678,note_off,0,0,0,,2,,,50,127
99679,note_on,1,0,0,,2,,,50,127
99679,note_on,0,0,0,,2,,,62,127
99679,note_on,0,0,0,,10,,,81,127
99788,note_off,109,0,0,,10,,,81,127
99789,note_on,1,0,0,,10,,,81,127
99898,note_off,109,0,0,,10,,,81,127
99898,note_off,0,0,0,,2,,,62,127
99898,note_off,0,0,0,,2,,,50,127
99899,note_on,1,0,0,,1,,,49,127
99899,note_on,0,0,0,,1,,,61,127
99899,note_on,0,0,0,,10,,,81,127
100008,note_off,109,0,0,,10,,,81,127
100009,note_on,1,0,0,,10,,,81,127
100118,note_off,109,0,0,,10,,,81,127
100118,note_off,0,0,0,,1,,,61,127
100118,note_off,0,0,0,,1,,,49,127
100119,note_on,1,0,0,,12,,,47,127
100119,note_on,0,0,0,,12,,,59,127
100119,note_on,0,0,0,,2,,,86,127
100228,note_off,109,0,0,,2,,,86,127
100229,note_on,1,0,0,,1,,,85,127
100338,note_off,109,0,0,,1,,,85,127
100338,note_off,0,0,0,,12,,,59,127
100338,note_off,0,0,0,,12,,,47,127
100339,note_on,1,0,0,,7,,,43,127
100339,note_on,0,0,0,,7,,,55,127
100339,note_on,0,0,0,,12,,,83,127
100448,note_off,109,0,0,,12,,,83,127
100449,note_on,1,0,0,,10,,,81,127
100558,note_off,109,0,0,,10,,,81,127
100558,note_off,0,0,0,,7,,,55,127
100558,note_off,0,0,0,,7,,,43,127
100559,note_on,1,0,0,,12,,,47,127
100559,note_on,0,0,0,,12,,,59,127
100559,note_on,0,0,0,,7,,,79,127
100668,note_off,109,0,0,,7,,,79,127
100669,note_on,1,0,0,,6,,,78,127
100778,note_off,109,0,0,,6,,,78,127
100778,note_off,0,0,0,,12,,,59,127
100778,note_off,0,0,0,,12,,,47,127
100779,note_on,1,0,0,,1,,,49,127
100779,note_on,0,0,0,,1,,,61,127
100779,note_on,0,0,0,,4,,,76,127
100888,note_off,109,0,0,,4,,,76,127
100889,note_on,1,0,0,,2,,,74,127
100998,note_off,109,0,0,,2,,,74,127
100998,note_off,0,0,0,,1,,,61,127
100998,note_off,0,0,0,,1,,,49,127
100999,note_on,1,0,0,,10,,,45,127
100999,note_on,0,0,0,,10,,,57,127
100999,note_on,0,0,0,,1,,,73,127
101108,note_off,109,0,0,,1,,,73,127
101109,note_on,1,0,0,,12,,,71,127
101218,note_off,109,0,0,,12,,,71,127
101218,note_off,0,0,0,,10,,,57,127
101218,note_off,0,0,0,,10,,,45,127
101219,note_on,1,0,0,,1,,,49,127
101219,note_on,0,0,0,,1,,,61,127
101219,note_on,0,0,0,,10,,,69,127
101328,note_off,109,0,0,,10,,,69,127
101329,note_on,1,0,0,,7,,,67,127
101438,note_off,109,0,0,,7,,,67,127
101438,note_off,0,0,0,,1,,,61,127
101438,note_off,0,0,0,,1,,,49,127
101439,note_on,1,0,0,,2,,,50,127
101439,note_on,0,0,0,,2,,,62,127
101439,note_on,0,0,0,,6,,,66,127
101548,note_off,109,0,0,,6,,,66,127
101549,note_on,1,0,0,,7,,,67,127
101658,note_off,109,0,0,,7,,,67,127
101659,note_on,1,0,0,,10,,,69,127
101768,note_off,109,0,0,,10,,,69,127
101769,note_on,1,0,0,,6,,,66,127
101878,note_off,109,0,0,,6,,,66,127
101878,note_off,0,0,0,,2,,,62,127
101878,note_off,0,0,0,,2,,,50,127
101879,note_on,1,0,0,,6,,,54,127
101879,note_on,0,0,0,,4,,,64,127
101988,note_off,109,0,0,,4,,,64,127
101989,note_on,1,0,0,,2,,,62,127
102098,note_off,109,0,0,,2,,,62,127
102098,note_off,0,0,0,,6,,,54,127
102099,note_on,1,0,0,,7,,,55,127
102099,note_on,0,0,0,,4,,,64,127
102208,note_off,109,0,0,,4,,,64,127
102209,note_on,1,0,0,,7,,,67,127
102318,note_off,109,0,0,,7,,,67,127
102318,note_off,0,0,0,,7,,,55,127
102319,note_on,1,0,0,,10,,,57,127
102319,note_on,0,0,0,,6,,,66,127
102428,note_off,109,0,0,,6,,,66,127
102429,note_on,1,0,0,,4,,,64,127
102538,note_off,109,0,0,,4,,,64,127
102539,note_on,1,0,0,,10,,,45,127
102539,note_on,0,0,0,,2,,,62,127
102648,note_off,109,0,0,,2,,,62,127
102649,note_on,1,0,0,,1,,,61,127
102754,note_off,105,0,0,,10,,,57,127
102757,note_off,3,0,0,,1,,,61,127
102757,note_off,0,0,0,,10,,,45,127
102758,note_on,1,0,0,,2,,,50,127
102758,note_on,0,0,0,,2,,,62,127
102975,note_off,217,0,0,,2,,,62,127
102976,note_off,1,0,0,,2,,,50,127
102977,note_on,1,0,0,,2,,,62,127
103195,note_off,218,0,0,,2,,,62,127
103196,note_on,1,0,0,,2,,,50,127
103196,note_on,0,0,0,,6,,,78,127
103196,note_on,0,0,0,,2,,,74,127
103414,note_off,218,0,0,,2,,,74,127
103414,note_off,0,0,0,,6,,,78,127
103414,note_off,0,0,0,,2,,,50,127
103415,note_on,1,0,0,,10,,,45,127
103415,note_on,0,0,0,,10,,,69,127
103415,note_on,0,0,0,,4,,,76,127
103633,note_off,218,0,0,,4,,,76,127
103633,note_off,0,0,0,,10,,,69,127
103633,note_off,0,0,0,,10,,,45,127
103634,note_on,1,0,0,,10,,,57,127
103634,note_on,0,0,0,,4,,,76,127
103634,note_on,0,0,0,,10,,,69,127
103852,note_off,218,0,0,,10,,,69,127
103852,note_off,0,0,0,,4,,,76,127
103852,note_off,0,0,0,,10,,,57,127
103853,note_on,1,0,0,,2,,,50,127
103853,note_on,0,0,0,,6,,,66,127
103853,note_on,0,0,0,,2,,,74,127
104071,note_off,218,0,0,,2,,,74,127
104071,note_off,0,0,0,,6,,,66,127
104071,note_off,0,0,0,,2,,,50,127
104072,note_on,1,0,0,,10,,,45,127
104072,note_on,0,0,0,,4,,,76,127
104072,note_on,0,0,0,,10,,,69,127
104290,note_off,218,0,0,,10,,,69,127
104290,note_off,0,0,0,,4,,,76,127
104290,note_off,0,0,0,,10,,,45,127
104291,note_on,1,0,0,,10,,,57,127
104291,note_on,0,0,0,,6,,,78,127
104291,note_on,0,0,0,,2,,,74,127
104509,note_off,218,0,0,,2,,,74,127
104509,note_off,0,0,0,,6,,,78,127
104509,note_off,0,0,0,,10,,,57,127
104510,note_on,1,0,0,,10,,,45,127
104510,note_on,0,0,0,,7,,,79,127
104510,note_on,0,0,0,,4,,,76,127
104728,note_off,218,0,0,,4,,,76,127
104728,note_off,0,0,0,,7,,,79,127
104728,note_off,0,0,0,,10,,,45,127
104729,note_on,1,0,0,,2,,,50,127
104729,note_on,0,0,0,,6,,,78,127
104729,note_on,0,0,0,,2,,,74,127
104947,note_off,218,0,0,,2,,,74,127
104947,note_off,0,0,0,,6,,,78,127
104947,note_off,0,0,0,,2,,,50,127
104948,note_on,1,0,0,,2,,,62,127
104948,note_on,0,0,0,,6,,,78,127
104948,note_on,0,0,0,,2,,,74,127
105166,note_off,218,0,0,,2,,,74,127
105166,note_off,0,0,0,,6,,,78,127
105166,note_off,0,0,0,,2,,,62,127
105167,note_on,1,0,0,,10,,,57,127
105167,note_on,0,0,0,,4,,,76,127
105167,note_on,0,0,0,,10,,,69,127
105385,note_off,218,0,0,,10,,,69,127
105385,note_off,0,0,0,,4,,,76,127
105385,note_off,0,0,0,,10,,,57,127
105386,note_on,1,0,0,,2,,,50,127
105386,note_on,0,0,0,,2,,,74,127
105386,note_on,0,0,0,,6,,,66,127
105604,note_off,218,0,0,,6,,,66,127
105604,note_off,0,0,0,,2,,,74,127
105604,note_off,0,0,0,,2,,,50,127
105605,note_on,1,0,0,,10,,,57,127
105605,note_on,0,0,0,,4,,,76,127
105605,note_on,0,0,0,,10,,,69,127
105823,note_off,218,0,0,,10,,,69,127
105823,note_off,0,0,0,,4,,,76,127
105823,note_off,0,0,0,,10,,,57,127
105824,note_on,1,0,0,,2,,,50,127
105824,note_on,0,0,0,,6,,,78,127
105824,note_on,0,0,0,,2,,,74,127
106042,note_off,218,0,0,,2,,,74,127
106042,note_off,0,0,0,,6,,,78,127
106042,note_off,0,0,0,,2,,,50,127
106043,note_on,1,0,0,,10,,,45,127
106043,note_on,0,0,0,,10,,,69,127
106043,note_on,0,0,0,,4,,,76,127
106261,note_off,218,0,0,,4,,,76,127
106261,note_off,0,0,0,,10,,,69,127
106261,note_off,0,0,0,,10,,,45,127
106262,note_on,1,0,0,,10,,,57,127
106262,note_on,0,0,0,,4,,,76,127
106262,note_on,0,0,0,,10,,,69,127
106480,note_off,218,0,0,,10,,,69,127
106480,note_off,0,0,0,,4,,,76,127
106480,note_off,0,0,0,,10,,,57,127
106481,note_on,1,0,0,,2,,,50,127
106481,note_on,0,0,0,,6,,,66,127
106481,note_on,0,0,0,,2,,,74,127
106699,note_off,218,0,0,,2,,,74,127
106699,note_off,0,0,0,,6,,,66,127
106699,note_off,0,0,0,,2,,,50,127
106700,note_on,1,0,0,,10,,,45,127
106700,note_on,0,0,0,,4,,,76,127
106700,note_on,0,0,0,,10,,,69,127
106918,note_off,218,0,0,,10,,,69,127
106918,note_off,0,0,0,,4,,,76,127
106918,note_off,0,0,0,,10,,,45,127
106919,note_on,1,0,0,,10,,,57,127
106919,note_on,0,0,0,,6,,,78,127
106919,note_on,0,0,0,,2,,,74,127
107137,note_off,218,0,0,,2,,,74,127
107137,note_off,0,0,0,,6,,,78,127
107137,note_off,0,0,0,,10,,,57,127
107138,note_on,1,0,0,,10,,,45,127
107138,note_on,0,0,0,,7,,,79,127
107138,note_on,0,0,0,,4,,,76,127
107356,note_off,218,0,0,,4,,,76,127
107356,note_off,0,0,0,,7,,,79,127
107356,note_off,0,0,0,,10,,,45,127
107357,note_on,1,0,0,,2,,,38,127
107357,note_on,0,0,0,,6,,,78,127
107357,note_on,0,0,0,,2,,,74,127
107575,note_off,218,0,0,,2,,,74,127
107575,note_off,0,0,0,,6,,,78,127
107575,note_off,0,0,0,,2,,,38,127
107576,note_on,1,0,0,,2,,,50,127
107576,note_on,0,0,0,,6,,,78,127
107576,note_on,0,0,0,,2,,,74,127
107794,note_off,218,0,0,,2,,,74,127
107794,note_off,0,0,0,,6,,,78,127
107794,note_off,0,0,0,,2,,,50,127
107795,note_on,1,0,0,,10,,,45,127
107795,note_on,0,0,0,,4,,,76,127
107795,note_on,0,0,0,,10,,,69,127
108013,note_off,218,0,0,,10,,,69,127
108013,note_off,0,0,0,,4,,,76,127
108013,note_off,0,0,0,,10,,,45,127
108014,note_on,1,0,0,,2,,,38,127
108014,note_on,0,0,0,,2,,,74,127
108123,note_off,109,0,0,,2,,,74,127
108124,note_on,1,0,0,,10,,,69,127
108233,note_off,109,0,0,,10,,,69,127
108234,note_on,1,0,0,,6,,,66,127
108343,note_off,109,0,0,,6,,,66,127
108344,note_on,1,0,0,,2,,,62,127
108453,note_off,109,0,0,,2,,,62,127
108453,note_off,0,0,0,,2,,,38,127
108454,note_on,1,0,0,,10,,,81,127
108454,note_on,0,0,0,,6,,,66,127
108563,note_off,109,0,0,,6,,,66,127
108564,note_on,1,0,0,,10,,,69,127
108673,note_off,109,0,0,,10,,,69,127
108673,note_off,0,0,0,,10,,,81,127
108674,note_on,1,0,0,,10,,,45,127
108674,note_on,0,0,0,,4,,,76,127
108783,note_off,109,0,0,,4,,,76,127
108784,note_on,1,0,0,,1,,,73,127
108893,note_off,109,0,0,,1,,,73,127
108894,note_on,1,0,0,,10,,,69,127
109003,note_off,109,0,0,,10,,,69,127
109004,note_on,1,0,0,,4,,,64,127
109113,note_off,109,0,0,,4,,,64,127
109113,note_off,0,0,0,,10,,,45,127
109114,note_on,1,0,0,,10,,,81,127
109114,note_on,0,0,0,,7,,,67,127
109223,note_off,109,0,0,,7,,,67,127
109224,note_on,1,0,0,,1,,,73,127
109333,note_off,109,0,0,,1,,,73,127
109333,note_off,0,0,0,,10,,,81,127
109334,note_on,1,0,0,,2,,,38,127
109334,note_on,0,0,0,,2,,,74,127
109443,note_off,109,0,0,,2,,,74,127
109444,note_on,1,0,0,,10,,,69,127
109553,note_off,109,0,0,,10,,,69,127
109554,note_on,1,0,0,,6,,,66,127
109663,note_off,109,0,0,,6,,,66,127
109664,note_on,1,0,0,,2,,,62,127
109773,note_off,109,0,0,,2,,,62,127
109773,note_off,0,0,0,,2,,,38,127
109774,note_on,1,0,0,,6,,,66,127
109774,note_on,0,0,0,,10,,,81,127
109883,note_off,109,0,0,,6,,,66,127
109884,note_on,1,0,0,,2,,,74,127
109993,note_off,109,0,0,,2,,,74,127
109993,note_off,0,0,0,,10,,,81,127
109994,note_on,1,0,0,,10,,,45,127
109994,note_on,0,0,0,,4,,,76,127
110103,note_off,109,0,0,,4,,,76,127
110104,note_on,1,0,0,,1,,,73,127
110213,note_off,109,0,0,,1,,,73,127
110214,note_on,1,0,0,,7,,,67,127
110323,note_off,109,0,0,,7,,,67,127
110324,note_on,1,0,0,,4,,,64,127
110433,note_off,109,0,0,,4,,,64,127
110433,note_off,0,0,0,,10,,,45,127
110434,note_on,1,0,0,,7,,,67,127
110434,note_on,0,0,0,,10,,,81,127
110543,note_off,109,0,0,,7,,,67,127
110544,note_on,1,0,0,,1,,,73,127
110653,note_off,109,0,0,,1,,,73,127
110653,note_off,0,0,0,,10,,,81,127
110654,note_on,1,0,0,,2,,,38,127
110654,note_on,0,0,0,,2,,,74,127
110763,note_off,109,0,0,,2,,,74,127
110764,note_on,1,0,0,,10,,,69,127
110873,note_off,109,0,0,,10,,,69,127
110874,note_on,1,0,0,,6,,,66,127
110983,note_off,109,0,0,,6,,,66,127
110984,note_on,1,0,0,,2,,,62,127
111093,note_off,109,0,0,,2,,,62,127
111093,note_off,0,0,0,,2,,,38,127
111094,note_on,1,0,0,,6,,,66,127
111094,note_on,0,0,0,,10,,,81,127
111203,note_off,109,0,0,,6,,,66,127
111204,note_on,1,0,0,,2,,,74,127
111313,note_off,109,0,0,,2,,,74,127
111313,note_off,0,0,0,,10,,,81,127
111314,note_on,1,0,0,,10,,,45,127
111314,note_on,0,0,0,,4,,,76,127
111423,note_off,109,0,0,,4,,,76,127
111424,note_on,1,0,0,,1,,,73,127
111533,note_off,109,0,0,,1,,,73,127
111534,note_on,1,0,0,,10,,,69,127
111643,note_off,109,0,0,,10,,,69,127
111644,note_on,1,0,0,,4,,,64,127
111753,note_off,109,0,0,,4,,,64,127
111753,note_off,0,0,0,,10,,,45,127
111754,note_on,1,0,0,,7,,,67,127
111754,note_on,0,0,0,,10,,,81,127
111863,note_off,109,0,0,,7,,,67,127
111864,note_on,1,0,0,,1,,,73,127
111973,note_off,109,0,0,,1,,,73,127
111973,note_off,0,0,0,,10,,,81,127
111974,note_on,1,0,0,,2,,,38,127
111974,note_on,0,0,0,,2,,,50,127
111974,note_on,0,0,0,,2,,,74,127
112083,note_off,109,0,0,,2,,,74,127
112084,note_on,1,0,0,,2,,,74,127
112193,note_off,109,0,0,,2,,,74,127
112193,note_off,0,0,0,,2,,,50,127
112193,note_off,0,0,0,,2,,,38,127
112194,note_on,1,0,0,,4,,,52,127
112194,note_on,0,0,0,,1,,,73,127
112303,note_off,109,0,0,,1,,,73,127
112304,note_on,1,0,0,,12,,,71,127
112413,note_off,109,0,0,,12,,,71,127
112413,note_off,0,0,0,,4,,,52,127
112414,note_on,1,0,0,,6,,,54,127
112414,note_on,0,0,0,,10,,,69,127
112523,note_off,109,0,0,,10,,,69,127
112524,note_on,1,0,0,,12,,,71,127
112633,note_off,109,0,0,,12,,,71,127
112633,note_off,0,0,0,,6,,,54,127
112634,note_on,1,0,0,,7,,,55,127
112634,note_on,0,0,0,,10,,,69,127
112743,note_off,109,0,0,,10,,,69,127
112744,note_on,1,0,0,,7,,,67,127
112853,note_off,109,0,0,,7,,,67,127
112853,note_off,0,0,0,,7,,,55,127
112854,note_on,1,0,0,,10,,,57,127
112854,note_on,0,0,0,,6,,,66,127
112963,note_off,109,0,0,,6,,,66,127
112964,note_on,1,0,0,,4,,,64,127
113073,note_off,109,0,0,,4,,,64,127
113074,note_on,1,0,0,,2,,,62,127
113183,note_off,109,0,0,,2,,,62,127
113184,note_on,1,0,0,,1,,,61,127
113293,note_off,109,0,0,,1,,,61,127
113293,note_off,0,0,0,,10,,,57,127
113294,note_on,1,0,0,,2,,,38,127
113294,note_on,0,0,0,,2,,,74,127
113403,note_off,109,0,0,,2,,,74,127
113404,note_on,1,0,0,,10,,,69,127
113513,note_off,109,0,0,,10,,,69,127
113514,note_on,1,0,0,,6,,,66,127
113623,note_off,109,0,0,,6,,,66,127
113624,note_on,1,0,0,,2,,,62,127
113733,note_off,109,0,0,,2,,,62,127
113733,note_off,0,0,0,,2,,,38,127
113734,note_on,1,0,0,,6,,,66,127
113734,note_on,0,0,0,,10,,,81,127
113843,note_off,109,0,0,,6,,,66,127
113844,note_on,1,0,0,,2,,,74,127
113953,note_off,109,0,0,,2,,,74,127
113953,note_off,0,0,0,,10,,,81,127
113954,note_on,1,0,0,,10,,,45,127
113954,note_on,0,0,0,,4,,,76,127
114063,note_off,109,0,0,,4,,,76,127
114064,note_on,1,0,0,,1,,,73,127
114173,note_off,109,0,0,,1,,,73,127
114174,note_on,1,0,0,,10,,,69,127
114283,note_off,109,0,0,,10,,,69,127
114284,note_on,1,0,0,,4,,,64,127
114393,note_off,109,0,0,,4,,,64,127
114393,note_off,0,0,0,,10,,,45,127
114394,note_on,1,0,0,,10,,,81,127
114394,note_on,0,0,0,,7,,,67,127
114503,note_off,109,0,0,,7,,,67,127
114504,note_on,1,0,0,,1,,,73,127
114613,note_off,109,0,0,,1,,,73,127
114613,note_off,0,0,0,,10,,,81,127
114614,note_on,1,0,0,,2,,,38,127
114614,note_on,0,0,0,,2,,,74,127
114723,note_off,109,0,0,,2,,,74,127
114724,note_on,1,0,0,,10,,,69,127
114833,note_off,109,0,0,,10,,,69,127
114834,note_on,1,0,0,,6,,,66,127
114943,note_off,109,0,0,,6,,,66,127
114944,note_on,1,0,0,,2,,,62,127
115053,note_off,109,0,0,,2,,,62,127
115053,note_off,0,0,0,,2,,,38,127
115054,note_on,1,0,0,,10,,,81,127
115054,note_on,0,0,0,,6,,,66,127
115163,note_off,109,0,0,,6,,,66,127
115164,note_on,1,0,0,,2,,,74,127
115273,note_off,109,0,0,,2,,,74,127
115273,note_off,0,0,0,,10,,,81,127
115274,note_on,1,0,0,,10,,,45,127
115274,note_on,0,0,0,,4,,,76,127
115383,note_off,109,0,0,,4,,,76,127
115384,note_on,1,0,0,,1,,,73,127
115493,note_off,109,0,0,,1,,,73,127
115494,note_on,1,0,0,,10,,,69,127
115603,note_off,109,0,0,,10,,,69,127
115604,note_on,1,0,0,,4,,,64,127
115713,note_off,109,0,0,,4,,,64,127
115713,note_off,0,0,0,,10,,,45,127
115714,note_on,1,0,0,,10,,,81,127
115714,note_on,0,0,0,,7,,,67,127
115823,note_off,109,0,0,,7,,,67,127
115824,note_on,1,0,0,,1,,,73,127
115933,note_off,109,0,0,,1,,,73,127
115933,note_off,0,0,0,,10,,,81,127
115934,note_on,1,0,0,,2,,,38,127
115934,note_on,0,0,0,,2,,,74,127
116043,note_off,109,0,0,,2,,,74,127
116044,note_on,1,0,0,,10,,,69,127
116153,note_off,109,0,0,,10,,,69,127
116154,note_on,1,0,0,,6,,,66,127
116263,note_off,109,0,0,,6,,,66,127
116264,note_on,1,0,0,,2,,,62,127
116373,note_off,109,0,0,,2,,,62,127
116373,note_off,0,0,0,,2,,,38,127
116374,note_on,1,0,0,,6,,,66,127
116374,note_on,0,0,0,,10,,,81,127
116483,note_off,109,0,0,,6,,,66,127
116484,note_on,1,0,0,,2,,,74,127
116593,note_off,109,0,0,,2,,,74,127
116593,note_off,0,0,0,,10,,,81,127
116594,note_on,1,0,0,,10,,,45,127
116594,note_on,0,0,0,,4,,,76,127
116703,note_off,109,0,0,,4,,,76,127
116704,note_on,1,0,0,,1,,,73,127
116813,note_off,109,0,0,,1,,,73,127
116814,note_on,1,0,0,,10,,,69,127
116923,note_off,109,0,0,,10,,,69,127
116924,note_on,1,0,0,,4,,,64,127
117033,note_off,109,0,0,,4,,,64,127
117033,note_off,0,0,0,,10,,,45,127
117034,note_on,1,0,0,,10,,,81,127
117034,note_on,0,0,0,,7,,,67,127
117143,note_off,109,0,0,,7,,,67,127
117144,note_on,1,0,0,,1,,,73,127
117253,note_off,109,0,0,,1,,,73,127
117253,note_off,0,0,0,,10,,,81,127
117254,note_on,1,0,0,,2,,,50,127
117254,note_on,0,0,0,,2,,,38,127
117254,note_on,0,0,0,,2,,,74,127
117363,note_off,109,0,0,,2,,,74,127
117364,note_on,1,0,0,,2,,,74,127
117473,note_off,109,0,0,,2,,,74,127
117473,note_off,0,0,0,,2,,,38,127
117473,note_off,0,0,0,,2,,,50,127
117474,note_on,1,0,0,,4,,,52,127
117474,note_on,0,0,0,,1,,,73,127
117583,note_off,109,0,0,,1,,,73,127
117584,note_on,1,0,0,,12,,,71,127
117693,note_off,109,0,0,,12,,,71,127
117693,note_off,0,0,0,,4,,,52,127
117694,note_on,1,0,0,,6,,,54,127
117694,note_on,0,0,0,,10,,,69,127
117803,note_off,109,0,0,,10,,,69,127
117804,note_on,1,0,0,,12,,,71,127
117913,note_off,109,0,0,,12,,,71,127
117913,note_off,0,0,0,,6,,,54,127
117914,note_on,1,0,0,,7,,,55,127
117914,note_on,0,0,0,,10,,,69,127
118023,note_off,109,0,0,,10,,,69,127
118024,note_on,1,0,0,,7,,,67,127
118133,note_off,109,0,0,,7,,,67,127
118133,note_off,0,0,0,,7,,,55,127
118134,note_on,1,0,0,,10,,,57,127
118134,note_on,0,0,0,,6,,,66,127
118243,note_off,109,0,0,,6,,,66,127
118244,note_on,1,0,0,,4,,,64,127
118353,note_off,109,0,0,,4,,,64,127
118354,note_on,1,0,0,,10,,,45,127
118354,note_on,0,0,0,,2,,,62,127
118463,note_off,109,0,0,,2,,,62,127
118464,note_on,1,0,0,,1,,,61,127
118569,note_off,105,0,0,,10,,,57,127
118572,note_off,3,0,0,,1,,,61,127
118572,note_off,0,0,0,,10,,,45,127
118573,note_on,1,0,0,,2,,,50,127
118573,note_on,0,0,0,,2,,,62,127
118791,note_off,218,0,0,,2,,,62,127
118791,note_off,0,0,0,,2,,,50,127
118792,note_on,1,0,0,,2,,,62,127
118792,note_on,0,0,0,,5,,,65,127
118792,note_on,0,0,0,,5,,,77,127
119010,note_off,218,0,0,,2,,,62,127
119011,note_on,1,0,0,,0,,,60,127
119229,note_off,218,0,0,,0,,,60,127
119230,note_on,1,0,0,,11,,,58,127
119448,note_off,218,0,0,,11,,,58,127
119448,note_off,0,0,0,,5,,,77,127
119448,note_off,0,0,0,,5,,,65,127
119449,note_on,1,0,0,,2,,,62,127
119449,note_on,0,0,0,,5,,,65,127
119449,note_on,0,0,0,,5,,,77,127
119667,note_off,218,0,0,,2,,,62,127
119668,note_on,1,0,0,,10,,,57,127
119886,note_off,218,0,0,,10,,,57,127
119887,note_on,1,0,0,,7,,,55,127
120105,note_off,218,0,0,,5,,,77,127
120105,note_off,0,0,0,,5,,,65,127
120106,note_on,1,0,0,,7,,,67,127
120106,note_on,0,0,0,,7,,,79,127
120324,note_off,218,0,0,,7,,,79,127
120324,note_off,0,0,0,,7,,,67,127
120324,note_off,0,0,0,,7,,,55,127
120325,note_on,1,0,0,,7,,,43,127
120325,note_on,0,0,0,,4,,,64,127
120325,note_on,0,0,0,,4,,,76,127
120543,note_off,218,0,0,,4,,,76,127
120543,note_off,0,0,0,,4,,,64,127
120543,note_off,0,0,0,,7,,,43,127
120544,note_on,1,0,0,,10,,,45,127
120544,note_on,0,0,0,,2,,,62,127
120544,note_on,0,0,0,,2,,,74,127
120762,note_off,218,0,0,,2,,,74,127
120762,note_off,0,0,0,,2,,,62,127
120763,note_on,1,0,0,,2,,,62,127
120763,note_on,0,0,0,,2,,,74,127
120981,note_off,218,0,0,,2,,,74,127
120981,note_off,0,0,0,,2,,,62,127
120981,note_off,0,0,0,,10,,,45,127
120982,note_on,1,0,0,,10,,,57,127
120982,note_on,0,0,0,,1,,,61,127
120982,note_on,0,0,0,,1,,,73,127
121200,note_off,218,0,0,,1,,,73,127
121200,note_off,0,0,0,,1,,,61,127
121200,note_off,0,0,0,,10,,,57,127
121201,note_on,1,0,0,,2,,,50,127
121201,note_on,0,0,0,,2,,,62,127
121201,note_on,0,0,0,,2,,,74,127
121419,note_off,218,0,0,,2,,,74,127
121419,note_off,0,0,0,,2,,,62,127
121419,note_off,0,0,0,,2,,,50,127
121420,note_on,1,0,0,,2,,,62,127
121420,note_on,0,0,0,,6,,,66,127
121420,note_on,0,0,0,,6,,,78,127
121638,note_off,218,0,0,,2,,,62,127
121639,note_on,1,0,0,,1,,,61,127
121857,note_off,218,0,0,,1,,,61,127
121858,note_on,1,0,0,,12,,,59,127
122076,note_off,218,0,0,,12,,,59,127
122076,note_off,0,0,0,,6,,,78,127
122076,note_off,0,0,0,,6,,,66,127
122077,note_on,1,0,0,,2,,,62,127
122077,note_on,0,0,0,,6,,,66,127
122077,note_on,0,0,0,,6,,,78,127
122295,note_off,218,0,0,,2,,,62,127
122296,note_on,1,0,0,,10,,,57,127
122514,note_off,218,0,0,,10,,,57,127
122515,note_on,1,0,0,,7,,,55,127
122733,note_off,218,0,0,,6,,,78,127
122733,note_off,0,0,0,,6,,,66,127
122734,note_on,1,0,0,,7,,,67,127
122734,note_on,0,0,0,,7,,,79,127
122952,note_off,218,0,0,,7,,,79,127
122952,note_off,0,0,0,,7,,,67,127
122952,note_off,0,0,0,,7,,,55,127
122953,note_on,1,0,0,,7,,,43,127
122953,note_on,0,0,0,,4,,,64,127
122953,note_on,0,0,0,,4,,,76,127
123171,note_off,218,0,0,,4,,,76,127
123171,note_off,0,0,0,,4,,,64,127
123171,note_off,0,0,0,,7,,,43,127
123172,note_on,1,0,0,,10,,,45,127
123172,note_on,0,0,0,,2,,,62,127
123172,note_on,0,0,0,,2,,,74,127
123390,note_off,218,0,0,,2,,,74,127
123390,note_off,0,0,0,,2,,,62,127
123391,note_on,1,0,0,,2,,,62,127
123391,note_on,0,0,0,,2,,,74,127
123609,note_off,218,0,0,,2,,,74,127
123609,note_off,0,0,0,,2,,,62,127
123609,note_off,0,0,0,,10,,,45,127
123610,note_on,1,0,0,,10,,,57,127
123610,note_on,0,0,0,,1,,,61,127
123610,note_on,0,0,0,,1,,,73,127
123828,note_off,218,0,0,,1,,,73,127
123828,note_off,0,0,0,,1,,,61,127
123828,note_off,0,0,0,,10,,,57,127
123829,note_on,1,0,0,,2,,,50,127
123829,note_on,0,0,0,,2,,,62,127
123829,note_on,0,0,0,,2,,,74,127
124047,note_off,218,0,0,,2,,,74,127
124047,note_off,0,0,0,,2,,,62,127
124048,note_on,1,0,0,,2,,,74,127
124048,note_on,0,0,0,,2,,,86,127
124266,note_off,218,0,0,,2,,,86,127
124266,note_off,0,0,0,,2,,,74,127
124266,note_off,0,0,0,,2,,,50,127
124267,note_on,1,0,0,,2,,,62,127
124267,note_on,0,0,0,,12,,,71,127
124267,note_on,0,0,0,,12,,,83,127
124485,note_off,218,0,0,,2,,,62,127
124486,note_on,1,0,0,,1,,,61,127
124704,note_off,218,0,0,,12,,,83,127
124704,note_off,0,0,0,,12,,,71,127
124705,note_on,1,0,0,,10,,,69,127
124705,note_on,0,0,0,,10,,,81,127
124923,note_off,218,0,0,,10,,,81,127
124923,note_off,0,0,0,,10,,,69,127
124924,note_on,1,0,0,,7,,,67,127
124924,note_on,0,0,0,,7,,,79,127
125142,note_off,218,0,0,,7,,,79,127
125142,note_off,0,0,0,,7,,,67,127
125142,note_off,0,0,0,,1,,,61,127
125143,note_on,1,0,0,,2,,,50,127
125143,note_on,0,0,0,,6,,,66,127
125143,note_on,0,0,0,,6,,,78,127
125361,note_off,218,0,0,,6,,,78,127
125361,note_off,0,0,0,,6,,,66,127
125362,note_on,1,0,0,,2,,,74,127
125362,note_on,0,0,0,,2,,,86,127
125580,note_off,218,0,0,,2,,,86,127
125580,note_off,0,0,0,,2,,,74,127
125580,note_off,0,0,0,,2,,,50,127
125581,note_on,1,0,0,,7,,,55,127
125581,note_on,0,0,0,,11,,,70,127
125581,note_on,0,0,0,,11,,,82,127
125799,note_off,218,0,0,,7,,,55,127
125800,note_on,1,0,0,,10,,,57,127
126018,note_off,218,0,0,,11,,,82,127
126018,note_off,0,0,0,,11,,,70,127
126019,note_on,1,0,0,,10,,,69,127
126019,note_on,0,0,0,,10,,,81,127
126237,note_off,218,0,0,,10,,,81,127
126237,note_off,0,0,0,,10,,,69,127
126238,note_on,1,0,0,,10,,,45,127
126238,note_on,0,0,0,,7,,,67,127
126238,note_on,0,0,0,,7,,,79,127
126456,note_off,218,0,0,,7,,,79,127
126456,note_off,0,0,0,,7,,,67,127
126456,note_off,0,0,0,,10,,,45,127
126456,note_off,0,0,0,,10,,,57,127
126457,note_on,1,0,0,,2,,,50,127
126457,note_on,0,0,0,,5,,,65,127
126457,note_on,0,0,0,,5,,,77,127
126675,note_off,218,0,0,,5,,,77,127
126675,note_off,0,0,0,,5,,,65,127
126676,note_on,1,0,0,,2,,,74,127
126676,note_on,0,0,0,,2,,,86,127
126894,note_off,218,0,0,,2,,,86,127
126894,note_off,0,0,0,,2,,,74,127
126894,note_off,0,0,0,,2,,,50,127
126895,note_on,1,0,0,,2,,,62,127
126895,note_on,0,0,0,,12,,,71,127
126895,note_on,0,0,0,,12,,,83,127
127113,note_off,218,0,0,,2,,,62,127
127114,note_on,1,0,0,,1,,,61,127
127332,note_off,218,0,0,,12,,,83,127
127332,note_off,0,0,0,,12,,,71,127
127333,note_on,1,0,0,,10,,,69,127
127333,note_on,0,0,0,,10,,,81,127
127551,note_off,218,0,0,,10,,,81,127
127551,note_off,0,0,0,,10,,,69,127
127552,note_on,1,0,0,,7,,,67,127
127552,note_on,0,0,0,,7,,,79,127
127770,note_off,218,0,0,,7,,,79,127
127770,note_off,0,0,0,,7,,,67,127
127770,note_off,0,0,0,,1,,,61,127
127771,note_on,1,0,0,,2,,,50,127
127771,note_on,0,0,0,,6,,,66,127
127771,note_on,0,0,0,,6,,,78,127
127989,note_off,218,0,0,,6,,,78,127
127989,note_off,0,0,0,,6,,,66,127
127990,note_on,1,0,0,,2,,,74,127
127990,note_on,0,0,0,,2,,,86,127
128208,note_off,218,0,0,,2,,,86,127
128208,note_off,0,0,0,,2,,,74,127
128208,note_off,0,0,0,,2,,,50,127
128209,note_on,1,0,0,,7,,,55,127
128209,note_on,0,0,0,,11,,,70,127
128209,note_on,0,0,0,,11,,,82,127
128427,note_off,218,0,0,,7,,,55,127
128428,note_on,1,0,0,,10,,,57,127
128646,note_off,218,0,0,,11,,,82,127
128646,note_off,0,0,0,,11,,,70,127
128647,note_on,1,0,0,,10,,,69,127
128647,note_on,0,0,0,,10,,,81,127
128865,note_off,218,0,0,,10,,,81,127
128865,note_off,0,0,0,,10,,,69,127
128866,note_on,1,0,0,,10,,,45,127
128866,note_on,0,0,0,,7,,,67,127
128866,note_on,0,0,0,,7,,,79,127
129084,note_off,218,0,0,,7,,,79,127
129084,note_off,0,0,0,,7,,,67,127
129084,note_off,0,0,0,,10,,,45,127
129084,note_off,0,0,0,,10,,,57,127
129085,note_on,1,0,0,,2,,,50,127
129085,note_on,0,0,0,,5,,,65,127
129085,note_on,0,0,0,,5,,,77,127
129303,note_off,218,0,0,,5,,,77,127
129303,note_off,0,0,0,,5,,,65,127
129303,note_off,0,0,0,,2,,,50,127
129304,note_on,1,0,0,,4,,,52,127
129304,note_on,0,0,0,,4,,,64,127
129304,note_on,0,0,0,,4,,,76,127
129522,note_off,218,0,0,,4,,,76,127
129522,note_off,0,0,0,,4,,,64,127
129522,note_off,0,0,0,,4,,,52,127
129523,note_on,1,0,0,,5,,,53,127
129523,note_on,0,0,0,,2,,,62,127
129523,note_on,0,0,0,,2,,,74,127
129741,note_off,218,0,0,,2,,,74,127
129741,note_off,0,0,0,,2,,,62,127
129741,note_off,0,0,0,,5,,,53,127
129742,note_on,1,0,0,,7,,,55,127
129742,note_on,0,0,0,,7,,,67,127
129742,note_on,0,0,0,,7,,,79,127
129960,note_off,218,0,0,,7,,,79,127
129960,note_off,0,0,0,,7,,,67,127
129960,note_off,0,0,0,,7,,,55,127
129961,note_on,1,0,0,,10,,,57,127
129961,note_on,0,0,0,,5,,,65,127
129961,note_on,0,0,0,,5,,,77,127
130179,note_off,218,0,0,,5,,,77,127
130179,note_off,0,0,0,,5,,,65,127
130180,note_on,1,0,0,,10,,,45,127
130180,note_on,0,0,0,,4,,,64,127
130180,note_on,0,0,0,,4,,,76,127
130395,note_off,215,0,0,,10,,,57,127
130398,note_off,3,0,0,,4,,,76,127
130398,note_off,0,0,0,,4,,,64,127
130398,note_off,0,0,0,,10,,,45,127
130399,note_on,1,0,0,,2,,,50,127
130399,note_on,0,0,0,,2,,,62,127
130399,note_on,0,0,0,,2,,,74,127
130617,note_off,218,0,0,,2,,,74,127
130617,note_off,0,0,0,,2,,,62,127
130618,note_on,1,0,0,,10,,,69,127
130618,note_on,0,0,0,,10,,,81,127
130836,note_off,218,0,0,,10,,,81,127
130836,note_off,0,0,0,,10,,,69,127
130836,note_off,0,0,0,,2,,,50,127
130837,note_on,1,0,0,,2,,,50,127
130837,note_on,0,0,0,,6,,,66,127
130837,note_on,0,0,0,,6,,,78,127
131055,note_off,218,0,0,,6,,,78,127
131055,note_off,0,0,0,,6,,,66,127
131055,note_off,0,0,0,,2,,,50,127
131056,note_on,1,0,0,,7,,,55,127
131056,note_on,0,0,0,,12,,,71,127
131056,note_on,0,0,0,,12,,,83,127
131274,note_off,218,0,0,,12,,,83,127
131274,note_off,0,0,0,,12,,,71,127
131274,note_off,0,0,0,,7,,,55,127
131275,note_on,1,0,0,,4,,,52,127
131275,note_on,0,0,0,,7,,,67,127
131275,note_on,0,0,0,,7,,,79,127
131493,note_off,218,0,0,,7,,,79,127
131493,note_off,0,0,0,,7,,,67,127
131493,note_off,0,0,0,,4,,,52,127
131494,note_on,1,0,0,,10,,,57,127
131494,note_on,0,0,0,,1,,,73,127
131494,note_on,0,0,0,,1,,,85,127
131712,note_off,218,0,0,,1,,,85,127
131712,note_off,0,0,0,,1,,,73,127
131712,note_off,0,0,0,,10,,,57,127
131713,note_on,1,0,0,,6,,,54,127
131713,note_on,0,0,0,,2,,,62,127
131713,note_on,0,0,0,,2,,,74,127
131713,note_on,0,0,0,,2,,,86,127
131931,note_off,218,0,0,,2,,,86,127
131931,note_off,0,0,0,,2,,,74,127
131931,note_off,0,0,0,,6,,,54,127
131932,note_on,1,0,0,,2,,,50,127
131932,note_on,0,0,0,,10,,,69,127
131932,note_on,0,0,0,,10,,,81,127
132150,note_off,218,0,0,,10,,,81,127
132150,note_off,0,0,0,,10,,,69,127
132150,note_off,0,0,0,,2,,,50,127
132151,note_on,1,0,0,,6,,,54,127
132151,note_on,0,0,0,,6,,,66,127
132151,note_on,0,0,0,,6,,,78,127
132369,note_off,218,0,0,,6,,,78,127
132369,note_off,0,0,0,,6,,,66,127
132369,note_off,0,0,0,,6,,,54,127
132369,note_off,0,0,0,,2,,,62,127
132370,note_on,1,0,0,,7,,,55,127
132370,note_on,0,0,0,,2,,,62,127
132370,note_on,0,0,0,,12,,,71,127
132370,note_on,0,0,0,,12,,,83,127
132588,note_off,218,0,0,,12,,,83,127
132588,note_off,0,0,0,,12,,,71,127
132588,note_off,0,0,0,,7,,,55,127
132589,note_on,1,0,0,,4,,,52,127
132589,note_on,0,0,0,,7,,,67,127
132589,note_on,0,0,0,,7,,,79,127
132807,note_off,218,0,0,,7,,,79,127
132807,note_off,0,0,0,,7,,,67,127
132808,note_on,1,0,0,,10,,,57,127
132808,note_on,0,0,0,,1,,,73,127
132808,note_on,0,0,0,,1,,,85,127
132862,note_off,54,0,0,,4,,,52,127
133027,note_off,165,0,0,,1,,,85,127
133027,note_off,0,0,0,,1,,,73,127
133027,note_off,0,0,0,,10,,,57,127
133027,note_off,0,0,0,,2,,,62,127
133028,note_on,1,0,0,,2,,,62,127
133028,note_on,0,0,0,,6,,,54,127
133028,note_on,0,0,0,,2,,,74,127
133028,note_on,0,0,0,,2,,,86,127
133246,note_off,218,0,0,,2,,,86,127
133246,note_off,0,0,0,,2,,,74,127
133246,note_off,0,0,0,,6,,,54,127
133247,note_on,1,0,0,,2,,,50,127
133247,note_on,0,0,0,,10,,,69,127
133247,note_on,0,0,0,,10,,,81,127
133465,note_off,218,0,0,,10,,,81,127
133465,note_off,0,0,0,,10,,,69,127
133465,note_off,0,0,0,,2,,,50,127
133466,note_on,1,0,0,,6,,,54,127
133466,note_on,0,0,0,,6,,,66,127
133466,note_on,0,0,0,,6,,,78,127
133684,note_off,218,0,0,,6,,,78,127
133684,note_off,0,0,0,,6,,,66,127
133684,note_off,0,0,0,,6,,,54,127
133684,note_off,0,0,0,,2,,,62,127
133685,note_on,1,0,0,,2,,,62,127
133685,note_on,0,0,0,,7,,,55,127
133685,note_on,0,0,0,,12,,,71,127
133685,note_on,0,0,0,,12,,,83,127
133903,note_off,218,0,0,,12,,,83,127
133903,note_off,0,0,0,,12,,,71,127
133903,note_off,0,0,0,,7,,,55,127
133904,note_on,1,0,0,,4,,,52,127
133904,note_on,0,0,0,,7,,,67,127
133904,note_on,0,0,0,,7,,,79,127
134122,note_off,218,0,0,,7,,,79,127
134122,note_off,0,0,0,,7,,,67,127
134122,note_off,0,0,0,,4,,,52,127
134123,note_on,1,0,0,,10,,,57,127
134123,note_on,0,0,0,,1,,,73,127
134123,note_on,0,0,0,,1,,,85,127
134341,note_off,218,0,0,,1,,,85,127
134341,note_off,0,0,0,,1,,,73,127
134341,note_off,0,0,0,,10,,,57,127
134341,note_off,0,0,0,,2,,,62,127
134342,note_on,1,0,0,,6,,,54,127
134342,note_on,0,0,0,,2,,,62,127
134342,note_on,0,0,0,,2,,,74,127
134342,note_on,0,0,0,,2,,,86,127
134560,note_off,218,0,0,,2,,,86,127
134560,note_off,0,0,0,,2,,,74,127
134560,note_off,0,0,0,,6,,,54,127
134561,note_on,1,0,0,,2,,,50,127
134561,note_on,0,0,0,,10,,,81,127
134561,note_on,0,0,0,,6,,,78,127
134779,note_off,218,0,0,,6,,,78,127
134779,note_off,0,0,0,,10,,,81,127
134779,note_off,0,0,0,,2,,,50,127
134780,note_on,1,0,0,,7,,,55,127
134780,note_on,0,0,0,,4,,,76,127
134780,note_on,0,0,0,,7,,,79,127
134998,note_off,218,0,0,,7,,,79,127
134998,note_off,0,0,0,,4,,,76,127
134998,note_off,0,0,0,,7,,,55,127
134998,note_off,0,0,0,,2,,,62,127
134999,note_on,1,0,0,,10,,,57,127
134999,note_on,0,0,0,,6,,,78,127
134999,note_on,0,0,0,,2,,,74,127
135217,note_off,218,0,0,,2,,,74,127
135217,note_off,0,0,0,,6,,,78,127
135218,note_on,1,0,0,,2,,,74,127
135218,note_on,0,0,0,,6,,,78,127
135436,note_off,218,0,0,,6,,,78,127
135436,note_off,0,0,0,,2,,,74,127
135437,note_on,1,0,0,,10,,,45,127
135437,note_on,0,0,0,,4,,,76,127
135437,note_on,0,0,0,,10,,,69,127
135655,note_off,218,0,0,,10,,,69,127
135655,note_off,0,0,0,,4,,,76,127
135655,note_off,0,0,0,,10,,,45,127
135655,note_off,0,0,0,,10,,,57,127
135656,note_on,1,0,0,,2,,,38,127
135656,note_on,0,0,0,,2,,,74,127
135656,note_on,0,0,0,,6,,,66,127
135874,note_off,218,0,0,,6,,,66,127
135874,note_off,0,0,0,,2,,,74,127
135875,note_on,1,0,0,,6,,,66,127
135875,note_on,0,0,0,,2,,,74,127
136093,note_off,218,0,0,,2,,,74,127
136093,note_off,0,0,0,,6,,,66,127
136094,note_on,1,0,0,,4,,,76,127
136094,note_on,0,0,0,,10,,,69,127
136312,note_off,218,0,0,,10,,,69,127
136312,note_off,0,0,0,,4,,,76,127
136312,note_off,0,0,0,,2,,,38,127
136313,note_on,1,0,0,,2,,,38,127
136313,note_on,0,0,0,,6,,,66,127
136313,note_on,0,0,0,,2,,,74,127
136531,note_off,218,0,0,,2,,,74,127
136531,note_off,0,0,0,,6,,,66,127
136532,note_on,1,0,0,,6,,,66,127
136532,note_on,0,0,0,,2,,,74,127
136750,note_off,218,0,0,,2,,,74,127
136750,note_off,0,0,0,,6,,,66,127
136751,note_on,1,0,0,,10,,,69,127
136751,note_on,0,0,0,,4,,,76,127
136969,note_off,218,0,0,,4,,,76,127
136969,note_off,0,0,0,,10,,,69,127
136969,note_off,0,0,0,,2,,,38,127
136970,note_on,1,0,0,,2,,,38,127
136970,note_on,0,0,0,,2,,,74,127
136970,note_on,0,0,0,,6,,,66,127
137188,note_off,218,0,0,,6,,,66,127
137188,note_off,0,0,0,,2,,,74,127
137189,note_on,1,0,0,,10,,,69,127
137189,note_on,0,0,0,,4,,,76,127
137407,note_off,218,0,0,,4,,,76,127
137407,note_off,0,0,0,,10,,,69,127
137407,note_off,0,0,0,,2,,,38,127
137408,note_on,1,0,0,,2,,,38,127
137408,note_on,0,0,0,,2,,,74,127
137408,note_on,0,0,0,,6,,,66,127
137626,note_off,218,0,0,,6,,,66,127
137626,note_off,0,0,0,,2,,,74,127
137627,note_on,1,0,0,,4,,,76,127
137627,note_on,0,0,0,,10,,,69,127
137845,note_off,218,0,0,,10,,,69,127
137845,note_off,0,0,0,,4,,,76,127
137845,note_off,0,0,0,,2,,,38,127
137846,note_on,1,0,0,,2,,,38,127
137846,note_on,0,0,0,,2,,,74,127
137846,note_on,0,0,0,,6,,,66,127
138064,note_off,218,0,0,,6,,,66,127
138064,note_off,0,0,0,,2,,,74,127
138065,note_on,1,0,0,,4,,,76,127
138065,note_on,0,0,0,,10,,,69,127
138283,note_off,218,0,0,,10,,,69,127
138283,note_off,0,0,0,,4,,,76,127
138283,note_off,0,0,0,,2,,,38,127
138284,note_on,1,0,0,,2,,,38,127
138284,note_on,0,0,0,,4,,,76,127
138284,note_on,0,0,0,,6,,,66,127
138339,note_on,55,0,0,,2,,,74,127
138365,note_off,26,0,0,,4,,,76,127
138394,note_on,29,0,0,,4,,,76,127
138420,note_off,26,0,0,,2,,,74,127
138449,note_on,29,0,0,,2,,,74,127
138475,note_off,26,0,0,,4,,,76,127
140049,note_off,1574,0,0,,2,,,74,127
140113,note_off,64,0,0,,6,,,66,127
140113,note_off,0,0,0,,2,,,38,127
145920,end_of_track,5807,1,0,,,,,,
