tick,type,time,meta,track,program,channel,pitch,tempo,note,velocity
0,copyright,0,1,0,,,,,,
0,program_change,0,0,0,6,0,,,,
0,pitchwheel,0,0,0,,0,0,,,
0,program_change,0,0,0,6,1,,,,
0,pitchwheel,0,0,0,,1,-590,,,
0,program_change,0,0,0,6,2,,,,
0,pitchwheel,0,0,0,,2,-272,,,
0,program_change,0,0,0,6,3,,,,
0,pitchwheel,0,0,0,,3,-353,,,
0,program_change,0,0,0,6,4,,,,
0,pitchwheel,0,0,0,,4,-560,,,
0,program_change,0,0,0,6,5,,,,
0,pitchwheel,0,0,0,,5,-80,,,
0,program_change,0,0,0,6,6,,,,
0,pitchwheel,0,0,0,,6,-625,,,
0,program_change,0,0,0,6,7,,,,
0,pitchwheel,0,0,0,,7,-130,,,
0,program_change,0,0,0,6,8,,,,
0,pitchwheel,0,0,0,,8,-512,,,
0,program_change,0,0,0,6,10,,,,
0,pitchwheel,0,0,0,,10,-464,,,
0,program_change,0,0,0,6,11,,,,
0,pitchwheel,0,0,0,,11,-208,,,
0,program_change,0,0,0,6,12,,,,
0,pitchwheel,0,0,0,,12,-553,,,
0,set_tempo,0,1,0,,,,500000,,
48,note_on,48,0,0,,7,,,67,127
281,note_off,233,0,0,,7,,,67,127
283,note_on,2,0,0,,11,,,70,127
516,note_off,233,0,0,,11,,,70,127
518,note_on,2,0,0,,2,,,74,127
751,note_off,233,0,0,,2,,,74,127
753,note_on,2,0,0,,7,,,55,127
753,note_on,0,0,0,,7,,,79,127
986,note_off,233,0,0,,7,,,55,127
988,note_on,2,0,0,,11,,,58,127
1221,note_off,233,0,0,,11,,,58,127
1221,note_off,0,0,0,,7,,,79,127
1223,note_on,2,0,0,,2,,,62,127
1223,note_on,0,0,0,,10,,,81,127
1456,note_off,233,0,0,,10,,,81,127
1456,note_off,0,0,0,,2,,,62,127
1458,note_on,2,0,0,,7,,,67,127
1458,note_on,0,0,0,,11,,,82,127
1691,note_off,233,0,0,,11,,,82,127
1691,note_off,0,0,0,,7,,,67,127
1693,note_on,2,0,0,,10,,,69,127
1693,note_on,0,0,0,,6,,,78,127
1926,note_off,233,0,0,,6,,,78,127
1926,note_off,0,0,0,,10,,,69,127
1928,note_on,2,0,0,,11,,,70,127
1928,note_on,0,0,0,,7,,,79,127
2161,note_off,233,0,0,,7,,,79,127
2161,note_off,0,0,0,,11,,,70,127
2163,note_on,2,0,0,,0,,,72,127
2163,note_on,0,0,0,,10,,,81,127
2239,note_off,76,0,0,,10,,,81,127
2241,note_on,2,0,0,,11,,,82,127
2317,note_off,76,0,0,,11,,,82,127
2319,note_on,2,0,0,,0,,,84,127
2395,note_off,76,0,0,,0,,,84,127
2395,note_off,0,0,0,,0,,,72,127
2397,note_on,2,0,0,,2,,,74,127
2397,note_on,0,0,0,,11,,,82,127
2630,note_off,233,0,0,,11,,,82,127
2630,note_off,0,0,0,,2,,,74,127
2632,note_on,2,0,0,,2,,,62,127
2632,note_on,0,0,0,,10,,,81,127
2865,note_off,233,0,0,,10,,,81,127
2865,note_off,0,0,0,,2,,,62,127
2867,note_on,2,0,0,,7,,,55,127
2867,note_on,0,0,0,,11,,,82,127
3110,note_off,243,0,0,,11,,,82,127
3110,note_off,0,0,0,,7,,,55,127
3118,note_on,8,0,0,,10,,,81,127
3118,note_on,0,0,0,,2,,,50,127
3361,note_off,243,0,0,,2,,,50,127
3361,note_off,0,0,0,,10,,,81,127
3369,note_on,8,0,0,,7,,,43,127
3369,note_on,0,0,0,,7,,,79,127
3602,note_off,233,0,0,,7,,,79,127
3646,note_on,44,0,0,,7,,,79,127
3649,note_off,3,0,0,,7,,,43,127
3730,note_on,81,0,0,,10,,,81,127
3733,note_off,3,0,0,,7,,,79,127
3806,note_off,73,0,0,,10,,,81,127
3808,note_on,2,0,0,,11,,,82,127
3884,note_off,76,0,0,,11,,,82,127
3886,note_on,2,0,0,,11,,,82,127
3886,note_on,0,0,0,,7,,,67,127
4119,note_off,233,0,0,,7,,,67,127
4119,note_off,0,0,0,,11,,,82,127
4121,note_on,2,0,0,,11,,,82,127
4121,note_on,0,0,0,,5,,,65,127
4354,note_off,233,0,0,,5,,,65,127
4354,note_off,0,0,0,,11,,,82,127
4356,note_on,2,0,0,,11,,,82,127
4356,note_on,0,0,0,,3,,,63,127
4589,note_off,233,0,0,,3,,,63,127
4589,note_off,0,0,0,,11,,,82,127
4591,note_on,2,0,0,,11,,,82,127
4591,note_on,0,0,0,,2,,,62,127
4824,note_off,233,0,0,,2,,,62,127
4824,note_off,0,0,0,,11,,,82,127
4826,note_on,2,0,0,,11,,,82,127
4826,note_on,0,0,0,,0,,,60,127
5059,note_off,233,0,0,,0,,,60,127
5059,note_off,0,0,0,,11,,,82,127
5061,note_on,2,0,0,,11,,,82,127
5061,note_on,0,0,0,,11,,,58,127
5176,note_off,115,0,0,,11,,,82,127
5178,note_on,2,0,0,,10,,,81,127
5293,note_off,115,0,0,,10,,,81,127
5295,note_on,2,0,0,,7,,,79,127
5528,note_off,233,0,0,,7,,,79,127
5528,note_off,0,0,0,,11,,,58,127
5530,note_on,2,0,0,,5,,,77,127
5530,note_on,0,0,0,,2,,,62,127
5763,note_off,233,0,0,,2,,,62,127
5763,note_off,0,0,0,,5,,,77,127
5765,note_on,2,0,0,,3,,,75,127
5765,note_on,0,0,0,,0,,,60,127
5998,note_off,233,0,0,,0,,,60,127
5998,note_off,0,0,0,,3,,,75,127
6000,note_on,2,0,0,,2,,,74,127
6000,note_on,0,0,0,,11,,,58,127
6233,note_off,233,0,0,,11,,,58,127
6233,note_off,0,0,0,,2,,,74,127
6235,note_on,2,0,0,,0,,,72,127
6235,note_on,0,0,0,,10,,,57,127
6468,note_off,233,0,0,,10,,,57,127
6468,note_off,0,0,0,,0,,,72,127
6470,note_on,2,0,0,,2,,,74,127
6470,note_on,0,0,0,,11,,,58,127
6585,note_off,115,0,0,,2,,,74,127
6587,note_on,2,0,0,,0,,,72,127
6702,note_off,115,0,0,,0,,,72,127
6704,note_on,2,0,0,,11,,,70,127
6937,note_off,233,0,0,,11,,,70,127
6937,note_off,0,0,0,,11,,,58,127
6939,note_on,2,0,0,,5,,,77,127
6939,note_on,0,0,0,,2,,,62,127
7172,note_off,233,0,0,,2,,,62,127
7172,note_off,0,0,0,,5,,,77,127
7174,note_on,2,0,0,,3,,,75,127
7174,note_on,0,0,0,,0,,,60,127
7289,note_off,115,0,0,,3,,,75,127
7291,note_on,2,0,0,,2,,,74,127
7406,note_off,115,0,0,,2,,,74,127
7406,note_off,0,0,0,,0,,,60,127
7408,note_on,2,0,0,,0,,,72,127
7408,note_on,0,0,0,,10,,,57,127
7641,note_off,233,0,0,,10,,,57,127
7641,note_off,0,0,0,,0,,,72,127
7643,note_on,2,0,0,,5,,,77,127
7643,note_on,0,0,0,,5,,,53,127
7876,note_off,233,0,0,,5,,,53,127
7876,note_off,0,0,0,,5,,,77,127
7878,note_on,2,0,0,,2,,,74,127
7878,note_on,0,0,0,,11,,,58,127
7993,note_off,115,0,0,,2,,,74,127
7995,note_on,2,0,0,,0,,,72,127
8110,note_off,115,0,0,,0,,,72,127
8110,note_off,0,0,0,,11,,,58,127
8112,note_on,2,0,0,,11,,,70,127
8112,note_on,0,0,0,,2,,,62,127
8345,note_off,233,0,0,,2,,,62,127
8345,note_off,0,0,0,,11,,,70,127
8347,note_on,2,0,0,,5,,,77,127
8347,note_on,0,0,0,,11,,,58,127
8580,note_off,233,0,0,,11,,,58,127
8580,note_off,0,0,0,,5,,,77,127
8582,note_on,2,0,0,,7,,,79,127
8582,note_on,0,0,0,,3,,,63,127
8815,note_off,233,0,0,,7,,,79,127
8817,note_on,2,0,0,,10,,,69,127
9047,note_off,230,0,0,,3,,,63,127
9049,note_off,2,0,0,,10,,,69,127
9051,note_on,2,0,0,,11,,,70,127
9286,note_on,235,0,0,,3,,,51,127
9467,note_off,181,0,0,,11,,,70,127
9521,note_on,54,0,0,,2,,,74,127
9751,note_off,230,0,0,,3,,,51,127
9753,note_off,2,0,0,,2,,,74,127
9755,note_on,2,0,0,,3,,,75,127
9988,note_off,233,0,0,,3,,,75,127
9990,note_on,2,0,0,,5,,,77,127
9990,note_on,0,0,0,,2,,,50,127
9990,note_on,0,0,0,,2,,,62,127
10223,note_off,233,0,0,,5,,,77,127
10225,note_on,2,0,0,,10,,,69,127
10455,note_off,230,0,0,,2,,,62,127
10455,note_off,0,0,0,,2,,,50,127
10457,note_off,2,0,0,,10,,,69,127
10459,note_on,2,0,0,,11,,,70,127
10694,note_on,235,0,0,,2,,,62,127
10694,note_on,0,0,0,,2,,,50,127
10900,note_off,206,0,0,,11,,,70,127
10929,note_on,29,0,0,,0,,,72,127
11159,note_off,230,0,0,,2,,,50,127
11159,note_off,0,0,0,,2,,,62,127
11161,note_off,2,0,0,,0,,,72,127
11163,note_on,2,0,0,,2,,,74,127
11396,note_off,233,0,0,,2,,,74,127
11398,note_on,2,0,0,,3,,,75,127
11398,note_on,0,0,0,,0,,,48,127
11398,note_on,0,0,0,,0,,,60,127
11631,note_off,233,0,0,,3,,,75,127
11633,note_on,2,0,0,,2,,,74,127
11863,note_off,230,0,0,,0,,,60,127
11863,note_off,0,0,0,,0,,,48,127
11865,note_off,2,0,0,,2,,,74,127
11867,note_on,2,0,0,,3,,,75,127
12100,note_off,233,0,0,,3,,,75,127
12102,note_on,2,0,0,,5,,,77,127
12102,note_on,0,0,0,,11,,,46,127
12102,note_on,0,0,0,,11,,,58,127
12217,note_off,115,0,0,,5,,,77,127
12219,note_on,2,0,0,,3,,,75,127
12334,note_off,115,0,0,,3,,,75,127
12336,note_on,2,0,0,,2,,,74,127
12566,note_off,230,0,0,,11,,,58,127
12566,note_off,0,0,0,,11,,,46,127
12568,note_off,2,0,0,,2,,,74,127
12570,note_on,2,0,0,,3,,,75,127
12803,note_off,233,0,0,,3,,,75,127
12805,note_on,2,0,0,,3,,,75,127
12805,note_on,0,0,0,,10,,,57,127
12805,note_on,0,0,0,,10,,,45,127
13038,note_off,233,0,0,,3,,,75,127
13040,note_on,2,0,0,,7,,,79,127
13155,note_off,115,0,0,,7,,,79,127
13157,note_on,2,0,0,,5,,,77,127
13270,note_off,113,0,0,,10,,,45,127
13270,note_off,0,0,0,,10,,,57,127
13272,note_off,2,0,0,,5,,,77,127
13274,note_on,2,0,0,,3,,,75,127
13389,note_off,115,0,0,,3,,,75,127
13391,note_on,2,0,0,,2,,,74,127
13506,note_off,115,0,0,,2,,,74,127
13508,note_on,2,0,0,,0,,,72,127
13508,note_on,0,0,0,,5,,,41,127
13508,note_on,0,0,0,,0,,,48,127
13623,note_off,115,0,0,,0,,,72,127
13625,note_on,2,0,0,,11,,,70,127
13740,note_off,115,0,0,,11,,,70,127
13740,note_off,0,0,0,,0,,,48,127
13740,note_off,0,0,0,,5,,,41,127
13742,note_on,2,0,0,,10,,,69,127
13742,note_on,0,0,0,,5,,,41,127
13742,note_on,0,0,0,,0,,,48,127
13857,note_off,115,0,0,,10,,,69,127
13859,note_on,2,0,0,,7,,,67,127
13974,note_off,115,0,0,,7,,,67,127
13974,note_off,0,0,0,,0,,,48,127
13974,note_off,0,0,0,,5,,,41,127
13976,note_on,2,0,0,,5,,,65,127
13976,note_on,0,0,0,,0,,,48,127
13976,note_on,0,0,0,,5,,,41,127
14091,note_off,115,0,0,,5,,,65,127
14093,note_on,2,0,0,,3,,,63,127
14208,note_off,115,0,0,,3,,,63,127
14208,note_off,0,0,0,,5,,,41,127
14208,note_off,0,0,0,,0,,,48,127
14210,note_on,2,0,0,,2,,,62,127
14210,note_on,0,0,0,,11,,,46,127
14210,note_on,0,0,0,,5,,,41,127
14443,note_off,233,0,0,,2,,,62,127
14445,note_on,2,0,0,,5,,,77,127
14560,note_off,115,0,0,,5,,,77,127
14562,note_on,2,0,0,,3,,,75,127
14675,note_off,113,0,0,,5,,,41,127
14675,note_off,0,0,0,,11,,,46,127
14677,note_off,2,0,0,,3,,,75,127
14679,note_on,2,0,0,,2,,,74,127
14794,note_off,115,0,0,,2,,,74,127
14796,note_on,2,0,0,,0,,,72,127
14911,note_off,115,0,0,,0,,,72,127
14913,note_on,2,0,0,,11,,,70,127
14913,note_on,0,0,0,,3,,,51,127
15028,note_off,115,0,0,,11,,,70,127
15030,note_on,2,0,0,,10,,,69,127
15145,note_off,115,0,0,,10,,,69,127
15147,note_on,2,0,0,,7,,,67,127
15262,note_off,115,0,0,,7,,,67,127
15264,note_on,2,0,0,,5,,,65,127
15379,note_off,115,0,0,,5,,,65,127
15381,note_on,2,0,0,,3,,,63,127
15496,note_off,115,0,0,,3,,,63,127
15498,note_on,2,0,0,,2,,,62,127
15543,note_off,45,0,0,,3,,,51,127
15613,note_off,70,0,0,,2,,,62,127
15615,note_on,2,0,0,,0,,,60,127
15615,note_on,0,0,0,,5,,,53,127
15848,note_off,233,0,0,,0,,,60,127
15850,note_on,2,0,0,,0,,,60,127
16083,note_off,233,0,0,,0,,,60,127
16085,note_on,2,0,0,,0,,,60,127
16203,note_off,118,0,0,,5,,,53,127
16318,note_off,115,0,0,,0,,,60,127
16320,note_on,2,0,0,,0,,,60,127
16320,note_on,0,0,0,,3,,,63,127
16320,note_on,0,0,0,,3,,,51,127
16435,note_off,115,0,0,,3,,,63,127
16435,note_off,0,0,0,,0,,,60,127
16437,note_on,2,0,0,,5,,,65,127
16437,note_on,0,0,0,,2,,,62,127
16552,note_off,115,0,0,,2,,,62,127
16552,note_off,0,0,0,,5,,,65,127
16554,note_on,2,0,0,,3,,,63,127
16554,note_on,0,0,0,,0,,,60,127
16787,note_off,233,0,0,,0,,,60,127
16787,note_off,0,0,0,,3,,,63,127
16789,note_on,2,0,0,,3,,,63,127
16789,note_on,0,0,0,,0,,,60,127
16907,note_off,118,0,0,,3,,,51,127
17025,note_on,118,0,0,,3,,,51,127
17258,note_off,233,0,0,,0,,,60,127
17258,note_off,0,0,0,,3,,,63,127
17260,note_on,2,0,0,,5,,,65,127
17260,note_on,0,0,0,,2,,,62,127
17493,note_off,233,0,0,,2,,,62,127
17493,note_off,0,0,0,,5,,,65,127
17495,note_on,2,0,0,,3,,,63,127
17495,note_on,0,0,0,,7,,,67,127
17613,note_off,118,0,0,,3,,,51,127
17728,note_off,115,0,0,,7,,,67,127
17728,note_off,0,0,0,,3,,,63,127
17730,note_on,2,0,0,,2,,,62,127
17730,note_on,0,0,0,,5,,,65,127
17730,note_on,0,0,0,,2,,,50,127
17845,note_off,115,0,0,,5,,,65,127
17845,note_off,0,0,0,,2,,,62,127
17847,note_on,2,0,0,,7,,,67,127
17847,note_on,0,0,0,,3,,,63,127
17962,note_off,115,0,0,,3,,,63,127
17962,note_off,0,0,0,,7,,,67,127
17964,note_on,2,0,0,,5,,,65,127
17964,note_on,0,0,0,,2,,,62,127
18197,note_off,233,0,0,,2,,,62,127
18197,note_off,0,0,0,,5,,,65,127
18199,note_on,2,0,0,,2,,,62,127
18199,note_on,0,0,0,,5,,,65,127
18317,note_off,118,0,0,,2,,,50,127
18435,note_on,118,0,0,,0,,,48,127
18668,note_off,233,0,0,,5,,,65,127
18668,note_off,0,0,0,,2,,,62,127
18670,note_on,2,0,0,,7,,,67,127
18670,note_on,0,0,0,,3,,,63,127
18903,note_off,233,0,0,,3,,,63,127
18903,note_off,0,0,0,,7,,,67,127
18905,note_on,2,0,0,,3,,,63,127
18905,note_on,0,0,0,,10,,,69,127
19023,note_off,118,0,0,,0,,,48,127
19138,note_off,115,0,0,,10,,,69,127
19138,note_off,0,0,0,,3,,,63,127
19140,note_on,2,0,0,,11,,,70,127
19140,note_on,0,0,0,,2,,,62,127
19140,note_on,0,0,0,,11,,,46,127
19373,note_off,233,0,0,,11,,,70,127
19375,note_on,2,0,0,,2,,,74,127
19451,note_off,76,0,0,,2,,,74,127
19453,note_on,2,0,0,,0,,,72,127
19529,note_off,76,0,0,,0,,,72,127
19531,note_on,2,0,0,,11,,,70,127
19604,note_off,73,0,0,,2,,,62,127
19606,note_off,2,0,0,,11,,,70,127
19608,note_on,2,0,0,,5,,,77,127
19726,note_off,118,0,0,,11,,,46,127
19841,note_off,115,0,0,,5,,,77,127
19843,note_on,2,0,0,,11,,,58,127
20078,note_on,235,0,0,,2,,,74,127
20154,note_off,76,0,0,,2,,,74,127
20156,note_on,2,0,0,,0,,,72,127
20232,note_off,76,0,0,,0,,,72,127
20234,note_on,2,0,0,,11,,,70,127
20310,note_off,76,0,0,,11,,,70,127
20312,note_on,2,0,0,,5,,,77,127
20430,note_off,118,0,0,,11,,,58,127
20548,note_on,118,0,0,,11,,,46,127
20778,note_off,230,0,0,,5,,,77,127
20783,note_on,5,0,0,,2,,,74,127
20859,note_off,76,0,0,,2,,,74,127
20861,note_on,2,0,0,,0,,,72,127
20937,note_off,76,0,0,,0,,,72,127
20939,note_on,2,0,0,,11,,,70,127
21015,note_off,76,0,0,,11,,,70,127
21017,note_on,2,0,0,,11,,,82,127
21135,note_off,118,0,0,,11,,,46,127
21250,note_off,115,0,0,,11,,,82,127
21252,note_on,2,0,0,,8,,,80,127
21252,note_on,0,0,0,,11,,,58,127
21485,note_off,233,0,0,,11,,,58,127
21485,note_off,0,0,0,,8,,,80,127
21487,note_on,2,0,0,,7,,,79,127
21487,note_on,0,0,0,,0,,,60,127
21720,note_off,233,0,0,,0,,,60,127
21720,note_off,0,0,0,,7,,,79,127
21722,note_on,2,0,0,,5,,,77,127
21722,note_on,0,0,0,,2,,,62,127
21955,note_off,233,0,0,,2,,,62,127
21955,note_off,0,0,0,,5,,,77,127
21957,note_on,2,0,0,,3,,,63,127
22190,note_off,233,0,0,,3,,,63,127
22192,note_on,2,0,0,,7,,,67,127
22192,note_on,0,0,0,,7,,,79,127
22425,note_off,233,0,0,,7,,,67,127
22427,note_on,2,0,0,,3,,,63,127
22660,note_off,233,0,0,,3,,,63,127
22662,note_on,2,0,0,,10,,,57,127
22895,note_off,233,0,0,,10,,,57,127
22896,note_off,1,0,0,,7,,,79,127
22897,note_on,1,0,0,,0,,,84,127
22897,note_on,0,0,0,,0,,,60,127
23130,note_off,233,0,0,,0,,,60,127
23130,note_off,0,0,0,,0,,,84,127
23132,note_on,2,0,0,,4,,,76,127
23132,note_on,0,0,0,,10,,,57,127
23365,note_off,233,0,0,,10,,,57,127
23365,note_off,0,0,0,,4,,,76,127
23367,note_on,2,0,0,,5,,,77,127
23367,note_on,0,0,0,,2,,,62,127
23600,note_off,233,0,0,,2,,,62,127
23602,note_on,2,0,0,,5,,,65,127
23835,note_off,233,0,0,,5,,,65,127
23837,note_on,2,0,0,,2,,,62,127
24070,note_off,233,0,0,,2,,,62,127
24072,note_on,2,0,0,,7,,,55,127
24199,note_off,127,0,0,,5,,,77,127
24304,note_off,105,0,0,,7,,,55,127
24306,note_on,2,0,0,,11,,,82,127
24306,note_on,0,0,0,,11,,,58,127
24539,note_off,233,0,0,,11,,,58,127
24539,note_off,0,0,0,,11,,,82,127
24541,note_on,2,0,0,,2,,,74,127
24541,note_on,0,0,0,,7,,,55,127
24774,note_off,233,0,0,,7,,,55,127
24774,note_off,0,0,0,,2,,,74,127
24776,note_on,2,0,0,,3,,,75,127
24776,note_on,0,0,0,,0,,,60,127
24891,note_off,115,0,0,,3,,,75,127
24893,note_on,2,0,0,,2,,,74,127
25008,note_off,115,0,0,,2,,,74,127
25008,note_off,0,0,0,,0,,,60,127
25010,note_on,2,0,0,,3,,,75,127
25010,note_on,0,0,0,,3,,,63,127
25243,note_off,233,0,0,,3,,,63,127
25245,note_on,2,0,0,,0,,,60,127
25478,note_off,233,0,0,,0,,,60,127
25480,note_on,2,0,0,,5,,,53,127
25713,note_off,233,0,0,,5,,,53,127
25713,note_off,0,0,0,,3,,,75,127
25715,note_on,2,0,0,,2,,,74,127
25715,note_on,0,0,0,,7,,,55,127
25948,note_off,233,0,0,,7,,,55,127
25948,note_off,0,0,0,,2,,,74,127
25950,note_on,2,0,0,,0,,,72,127
25950,note_on,0,0,0,,10,,,57,127
26183,note_off,233,0,0,,10,,,57,127
26183,note_off,0,0,0,,0,,,72,127
26185,note_on,2,0,0,,11,,,58,127
26420,note_on,235,0,0,,2,,,74,127
26535,note_off,115,0,0,,2,,,74,127
26537,note_on,2,0,0,,3,,,75,127
26650,note_off,113,0,0,,11,,,58,127
26652,note_off,2,0,0,,3,,,75,127
26654,note_on,2,0,0,,5,,,77,127
26887,note_off,233,0,0,,5,,,77,127
26889,note_on,2,0,0,,5,,,53,127
27124,note_on,235,0,0,,3,,,75,127
27239,note_off,115,0,0,,3,,,75,127
27241,note_on,2,0,0,,2,,,74,127
27354,note_off,113,0,0,,5,,,53,127
27356,note_off,2,0,0,,2,,,74,127
27358,note_on,2,0,0,,0,,,72,127
27591,note_off,233,0,0,,0,,,72,127
27593,note_on,2,0,0,,11,,,58,127
27828,note_on,235,0,0,,2,,,74,127
27943,note_off,115,0,0,,2,,,74,127
27945,note_on,2,0,0,,3,,,75,127
28058,note_off,113,0,0,,11,,,58,127
28060,note_off,2,0,0,,3,,,75,127
28062,note_on,2,0,0,,5,,,77,127
28295,note_off,233,0,0,,5,,,77,127
28297,note_on,2,0,0,,5,,,53,127
28532,note_on,235,0,0,,3,,,75,127
28647,note_off,115,0,0,,3,,,75,127
28649,note_on,2,0,0,,2,,,74,127
28762,note_off,113,0,0,,5,,,53,127
28764,note_off,2,0,0,,2,,,74,127
28766,note_on,2,0,0,,0,,,72,127
28999,note_off,233,0,0,,0,,,72,127
29001,note_on,2,0,0,,11,,,70,127
29001,note_on,0,0,0,,11,,,46,127
29236,note_on,235,0,0,,2,,,62,127
29270,note_off,34,0,0,,11,,,70,127
29466,note_off,196,0,0,,11,,,46,127
29468,note_off,2,0,0,,2,,,62,127
29470,note_on,2,0,0,,5,,,65,127
29703,note_off,233,0,0,,5,,,65,127
29705,note_on,2,0,0,,2,,,74,127
29705,note_on,0,0,0,,11,,,46,127
29940,note_on,235,0,0,,2,,,62,127
29974,note_off,34,0,0,,2,,,74,127
30170,note_off,196,0,0,,11,,,46,127
30172,note_off,2,0,0,,2,,,62,127
30174,note_on,2,0,0,,5,,,65,127
30407,note_off,233,0,0,,5,,,65,127
30409,note_on,2,0,0,,5,,,77,127
30409,note_on,0,0,0,,11,,,46,127
30644,note_on,235,0,0,,5,,,65,127
30678,note_off,34,0,0,,5,,,77,127
30874,note_off,196,0,0,,11,,,46,127
30876,note_off,2,0,0,,5,,,65,127
30878,note_on,2,0,0,,5,,,65,127
31111,note_off,233,0,0,,5,,,65,127
31113,note_on,2,0,0,,11,,,82,127
31113,note_on,0,0,0,,11,,,46,127
31346,note_off,233,0,0,,11,,,82,127
31348,note_on,2,0,0,,2,,,62,127
31463,note_off,115,0,0,,2,,,62,127
31465,note_on,2,0,0,,3,,,63,127
31578,note_off,113,0,0,,11,,,46,127
31580,note_off,2,0,0,,3,,,63,127
31582,note_on,2,0,0,,5,,,65,127
31815,note_off,233,0,0,,5,,,65,127
31817,note_on,2,0,0,,2,,,74,127
32052,note_on,235,0,0,,2,,,62,127
32167,note_off,115,0,0,,2,,,62,127
32169,note_on,2,0,0,,3,,,63,127
32282,note_off,113,0,0,,2,,,74,127
32284,note_off,2,0,0,,3,,,63,127
32286,note_on,2,0,0,,5,,,65,127
32519,note_off,233,0,0,,5,,,65,127
32521,note_on,2,0,0,,2,,,74,127
32756,note_on,235,0,0,,2,,,62,127
32871,note_off,115,0,0,,2,,,62,127
32873,note_on,2,0,0,,3,,,63,127
32986,note_off,113,0,0,,2,,,74,127
32988,note_off,2,0,0,,3,,,63,127
32990,note_on,2,0,0,,5,,,65,127
33223,note_off,233,0,0,,5,,,65,127
33225,note_on,2,0,0,,2,,,74,127
33225,note_on,0,0,0,,5,,,77,127
33458,note_off,233,0,0,,5,,,77,127
33458,note_off,0,0,0,,2,,,74,127
33460,note_on,2,0,0,,0,,,72,127
33460,note_on,0,0,0,,3,,,75,127
33693,note_off,233,0,0,,3,,,75,127
33693,note_off,0,0,0,,0,,,72,127
33695,note_on,2,0,0,,11,,,70,127
33695,note_on,0,0,0,,2,,,74,127
33928,note_off,233,0,0,,2,,,74,127
33928,note_off,0,0,0,,11,,,70,127
33930,note_on,2,0,0,,3,,,75,127
33930,note_on,0,0,0,,0,,,72,127
34165,note_on,235,0,0,,0,,,60,127
34273,note_off,108,0,0,,0,,,72,127
34273,note_off,0,0,0,,3,,,75,127
34280,note_off,7,0,0,,0,,,60,127
34282,note_on,2,0,0,,2,,,62,127
34397,note_off,115,0,0,,2,,,62,127
34399,note_on,2,0,0,,3,,,63,127
34632,note_off,233,0,0,,3,,,63,127
34634,note_on,2,0,0,,10,,,69,127
34869,note_on,235,0,0,,0,,,60,127
34984,note_off,115,0,0,,0,,,60,127
34986,note_on,2,0,0,,2,,,62,127
35099,note_off,113,0,0,,10,,,69,127
35101,note_off,2,0,0,,2,,,62,127
35103,note_on,2,0,0,,3,,,63,127
35336,note_off,233,0,0,,3,,,63,127
35338,note_on,2,0,0,,0,,,72,127
35573,note_on,235,0,0,,0,,,60,127
35688,note_off,115,0,0,,0,,,60,127
35690,note_on,2,0,0,,2,,,62,127
35803,note_off,113,0,0,,0,,,72,127
35805,note_off,2,0,0,,2,,,62,127
35807,note_on,2,0,0,,3,,,63,127
36040,note_off,233,0,0,,3,,,63,127
36042,note_on,2,0,0,,5,,,65,127
36042,note_on,0,0,0,,3,,,75,127
36275,note_off,233,0,0,,3,,,75,127
36275,note_off,0,0,0,,5,,,65,127
36277,note_on,2,0,0,,7,,,67,127
36277,note_on,0,0,0,,2,,,74,127
36510,note_off,233,0,0,,2,,,74,127
36510,note_off,0,0,0,,7,,,67,127
36512,note_on,2,0,0,,10,,,69,127
36512,note_on,0,0,0,,0,,,72,127
36745,note_off,233,0,0,,0,,,72,127
36745,note_off,0,0,0,,10,,,69,127
36747,note_on,2,0,0,,11,,,70,127
36747,note_on,0,0,0,,2,,,74,127
36980,note_off,233,0,0,,2,,,74,127
36998,note_on,18,0,0,,11,,,82,127
37231,note_off,233,0,0,,11,,,82,127
37233,note_on,2,0,0,,10,,,81,127
37451,note_off,218,0,0,,11,,,70,127
37466,note_off,15,0,0,,10,,,81,127
37468,note_on,2,0,0,,11,,,58,127
37468,note_on,0,0,0,,11,,,82,127
37701,note_off,233,0,0,,11,,,82,127
37703,note_on,2,0,0,,11,,,82,127
37933,note_off,230,0,0,,11,,,58,127
37935,note_off,2,0,0,,11,,,82,127
37937,note_on,2,0,0,,8,,,80,127
38170,note_off,233,0,0,,8,,,80,127
38172,note_on,2,0,0,,6,,,78,127
38405,note_off,233,0,0,,6,,,78,127
38407,note_on,2,0,0,,11,,,82,127
38640,note_off,233,0,0,,11,,,82,127
38642,note_on,2,0,0,,8,,,80,127
38875,note_off,233,0,0,,8,,,80,127
38877,note_on,2,0,0,,6,,,78,127
38877,note_on,0,0,0,,11,,,70,127
39110,note_off,233,0,0,,6,,,78,127
39112,note_on,2,0,0,,6,,,78,127
39345,note_off,233,0,0,,6,,,78,127
39347,note_on,2,0,0,,5,,,77,127
39563,note_off,216,0,0,,11,,,70,127
39580,note_off,17,0,0,,5,,,77,127
39582,note_on,2,0,0,,4,,,76,127
39582,note_on,0,0,0,,11,,,70,127
39815,note_off,233,0,0,,4,,,76,127
39817,note_on,2,0,0,,0,,,84,127
40050,note_off,233,0,0,,0,,,84,127
40052,note_on,2,0,0,,0,,,84,127
40170,note_off,118,0,0,,11,,,70,127
40285,note_off,115,0,0,,0,,,84,127
40287,note_on,2,0,0,,4,,,76,127
40287,note_on,0,0,0,,11,,,70,127
40520,note_off,233,0,0,,4,,,76,127
40522,note_on,2,0,0,,0,,,84,127
40755,note_off,233,0,0,,0,,,84,127
40757,note_on,2,0,0,,0,,,84,127
40875,note_off,118,0,0,,11,,,70,127
40990,note_off,115,0,0,,0,,,84,127
40992,note_on,2,0,0,,4,,,76,127
40992,note_on,0,0,0,,11,,,70,127
41225,note_off,233,0,0,,4,,,76,127
41227,note_on,2,0,0,,0,,,84,127
41460,note_off,233,0,0,,0,,,84,127
41462,note_on,2,0,0,,0,,,84,127
41580,note_off,118,0,0,,11,,,70,127
41695,note_off,115,0,0,,0,,,84,127
41697,note_on,2,0,0,,5,,,77,127
41697,note_on,0,0,0,,8,,,68,127
41930,note_off,233,0,0,,5,,,77,127
41932,note_on,2,0,0,,8,,,80,127
42165,note_off,233,0,0,,8,,,80,127
42167,note_on,2,0,0,,6,,,78,127
42383,note_off,216,0,0,,8,,,68,127
42400,note_off,17,0,0,,6,,,78,127
42402,note_on,2,0,0,,5,,,77,127
42402,note_on,0,0,0,,8,,,68,127
42635,note_off,233,0,0,,5,,,77,127
42637,note_on,2,0,0,,8,,,80,127
42870,note_off,233,0,0,,8,,,80,127
42872,note_on,2,0,0,,3,,,75,127
42990,note_off,118,0,0,,8,,,68,127
43105,note_off,115,0,0,,3,,,75,127
43107,note_on,2,0,0,,2,,,74,127
43107,note_on,0,0,0,,8,,,68,127
43340,note_off,233,0,0,,2,,,74,127
43342,note_on,2,0,0,,8,,,80,127
43575,note_off,233,0,0,,8,,,80,127
43577,note_on,2,0,0,,6,,,78,127
43695,note_off,118,0,0,,8,,,68,127
43810,note_off,115,0,0,,6,,,78,127
43812,note_on,2,0,0,,6,,,78,127
43812,note_on,0,0,0,,6,,,66,127
43927,note_off,115,0,0,,6,,,78,127
43929,note_on,2,0,0,,5,,,77,127
44044,note_off,115,0,0,,5,,,77,127
44046,note_on,2,0,0,,3,,,75,127
44279,note_off,233,0,0,,3,,,75,127
44281,note_on,2,0,0,,1,,,73,127
44484,note_off,203,0,0,,6,,,66,127
44513,note_off,29,0,0,,1,,,73,127
44515,note_on,2,0,0,,6,,,66,127
44515,note_on,0,0,0,,5,,,77,127
44630,note_off,115,0,0,,5,,,77,127
44632,note_on,2,0,0,,3,,,75,127
44747,note_off,115,0,0,,3,,,75,127
44749,note_on,2,0,0,,3,,,75,127
44982,note_off,233,0,0,,3,,,75,127
44984,note_on,2,0,0,,1,,,73,127
45102,note_off,118,0,0,,6,,,66,127
45217,note_off,115,0,0,,1,,,73,127
45219,note_on,2,0,0,,6,,,66,127
45219,note_on,0,0,0,,0,,,72,127
45452,note_off,233,0,0,,0,,,72,127
45454,note_on,2,0,0,,0,,,72,127
45687,note_off,233,0,0,,0,,,72,127
45689,note_on,2,0,0,,11,,,70,127
45807,note_off,118,0,0,,6,,,66,127
45922,note_off,115,0,0,,11,,,70,127
45924,note_on,2,0,0,,6,,,66,127
45924,note_on,0,0,0,,0,,,72,127
46157,note_off,233,0,0,,0,,,72,127
46159,note_on,2,0,0,,3,,,75,127
46392,note_off,233,0,0,,3,,,75,127
46394,note_on,2,0,0,,11,,,70,127
46512,note_off,118,0,0,,6,,,66,127
46627,note_off,115,0,0,,11,,,70,127
46629,note_on,2,0,0,,5,,,65,127
46629,note_on,0,0,0,,10,,,69,127
46862,note_off,233,0,0,,10,,,69,127
46864,note_on,2,0,0,,7,,,67,127
47094,note_off,230,0,0,,5,,,65,127
47096,note_off,2,0,0,,7,,,67,127
47098,note_on,2,0,0,,5,,,65,127
47333,note_on,235,0,0,,10,,,69,127
47333,note_on,0,0,0,,0,,,72,127
47441,note_off,108,0,0,,5,,,65,127
47566,note_off,125,0,0,,0,,,72,127
47566,note_off,0,0,0,,10,,,69,127
47568,note_on,2,0,0,,2,,,74,127
47568,note_on,0,0,0,,11,,,70,127
47801,note_off,233,0,0,,11,,,70,127
47801,note_off,0,0,0,,2,,,74,127
47803,note_on,2,0,0,,0,,,72,127
47803,note_on,0,0,0,,3,,,75,127
48036,note_off,233,0,0,,3,,,75,127
48036,note_off,0,0,0,,0,,,72,127
48038,note_on,2,0,0,,5,,,41,127
48038,note_on,0,0,0,,5,,,77,127
48038,note_on,0,0,0,,2,,,74,127
48271,note_off,233,0,0,,5,,,41,127
48273,note_on,2,0,0,,11,,,46,127
48506,note_off,233,0,0,,11,,,46,127
48508,note_on,2,0,0,,2,,,50,127
48741,note_off,233,0,0,,2,,,50,127
48743,note_on,2,0,0,,5,,,53,127
48976,note_off,233,0,0,,5,,,53,127
48976,note_off,0,0,0,,2,,,74,127
48976,note_off,0,0,0,,5,,,77,127
48978,note_on,2,0,0,,11,,,58,127
48978,note_on,0,0,0,,0,,,72,127
48978,note_on,0,0,0,,3,,,75,127
49211,note_off,233,0,0,,3,,,75,127
49211,note_off,0,0,0,,0,,,72,127
49211,note_off,0,0,0,,11,,,58,127
49213,note_on,2,0,0,,2,,,62,127
49213,note_on,0,0,0,,11,,,70,127
49213,note_on,0,0,0,,2,,,74,127
49446,note_off,233,0,0,,2,,,74,127
49446,note_off,0,0,0,,11,,,70,127
49446,note_off,0,0,0,,2,,,62,127
49448,note_on,2,0,0,,5,,,41,127
49448,note_on,0,0,0,,0,,,72,127
49448,note_on,0,0,0,,3,,,75,127
49681,note_off,233,0,0,,5,,,41,127
49683,note_on,2,0,0,,10,,,45,127
49916,note_off,233,0,0,,10,,,45,127
49918,note_on,2,0,0,,0,,,48,127
50151,note_off,233,0,0,,0,,,48,127
50153,note_on,2,0,0,,5,,,53,127
50386,note_off,233,0,0,,5,,,53,127
50386,note_off,0,0,0,,3,,,75,127
50386,note_off,0,0,0,,0,,,72,127
50388,note_on,2,0,0,,10,,,57,127
50388,note_on,0,0,0,,11,,,70,127
50388,note_on,0,0,0,,2,,,74,127
50621,note_off,233,0,0,,2,,,74,127
50621,note_off,0,0,0,,11,,,70,127
50621,note_off,0,0,0,,10,,,57,127
50623,note_on,2,0,0,,0,,,60,127
50623,note_on,0,0,0,,0,,,72,127
50623,note_on,0,0,0,,10,,,69,127
50856,note_off,233,0,0,,10,,,69,127
50856,note_off,0,0,0,,0,,,72,127
50856,note_off,0,0,0,,0,,,60,127
50858,note_on,2,0,0,,11,,,46,127
50858,note_on,0,0,0,,11,,,58,127
50858,note_on,0,0,0,,2,,,74,127
50934,note_off,76,0,0,,2,,,74,127
50936,note_on,2,0,0,,0,,,72,127
51012,note_off,76,0,0,,0,,,72,127
51014,note_on,2,0,0,,11,,,70,127
51090,note_off,76,0,0,,11,,,70,127
51092,note_on,2,0,0,,5,,,77,127
51324,note_off,232,0,0,,5,,,77,127
51326,note_on,2,0,0,,11,,,82,127
51528,note_off,202,0,0,,11,,,58,127
51528,note_off,0,0,0,,11,,,46,127
51559,note_off,31,0,0,,11,,,82,127
51561,note_on,2,0,0,,11,,,58,127
51561,note_on,0,0,0,,11,,,46,127
51561,note_on,0,0,0,,2,,,74,127
51637,note_off,76,0,0,,2,,,74,127
51639,note_on,2,0,0,,0,,,72,127
51715,note_off,76,0,0,,0,,,72,127
51717,note_on,2,0,0,,11,,,70,127
51793,note_off,76,0,0,,11,,,70,127
51795,note_on,2,0,0,,11,,,82,127
52025,note_off,230,0,0,,11,,,46,127
52025,note_off,0,0,0,,11,,,58,127
52027,note_off,2,0,0,,11,,,82,127
52029,note_on,2,0,0,,2,,,86,127
52262,note_off,233,0,0,,2,,,86,127
52264,note_on,2,0,0,,3,,,63,127
52264,note_on,0,0,0,,3,,,51,127
52264,note_on,0,0,0,,7,,,79,127
52264,note_on,0,0,0,,3,,,75,127
52497,note_off,233,0,0,,3,,,75,127
52497,note_off,0,0,0,,7,,,79,127
52499,note_on,2,0,0,,2,,,74,127
52499,note_on,0,0,0,,5,,,77,127
52729,note_off,230,0,0,,3,,,51,127
52729,note_off,0,0,0,,3,,,63,127
52731,note_off,2,0,0,,5,,,77,127
52731,note_off,0,0,0,,2,,,74,127
52733,note_on,2,0,0,,3,,,75,127
52733,note_on,0,0,0,,7,,,79,127
52966,note_off,233,0,0,,7,,,79,127
52966,note_off,0,0,0,,3,,,75,127
52968,note_on,2,0,0,,0,,,60,127
52968,note_on,0,0,0,,0,,,48,127
52968,note_on,0,0,0,,3,,,75,127
52968,note_on,0,0,0,,7,,,79,127
53201,note_off,233,0,0,,7,,,79,127
53201,note_off,0,0,0,,3,,,75,127
53203,note_on,2,0,0,,2,,,74,127
53203,note_on,0,0,0,,5,,,77,127
53433,note_off,230,0,0,,0,,,48,127
53433,note_off,0,0,0,,0,,,60,127
53435,note_off,2,0,0,,5,,,77,127
53435,note_off,0,0,0,,2,,,74,127
53437,note_on,2,0,0,,7,,,79,127
53437,note_on,0,0,0,,3,,,75,127
53670,note_off,233,0,0,,3,,,75,127
53670,note_off,0,0,0,,7,,,79,127
53672,note_on,2,0,0,,10,,,57,127
53672,note_on,0,0,0,,10,,,45,127
53672,note_on,0,0,0,,3,,,75,127
53672,note_on,0,0,0,,5,,,77,127
53905,note_off,233,0,0,,5,,,77,127
53905,note_off,0,0,0,,3,,,75,127
53907,note_on,2,0,0,,2,,,74,127
54139,note_off,232,0,0,,2,,,74,127
54141,note_on,2,0,0,,0,,,72,127
54342,note_off,201,0,0,,10,,,45,127
54342,note_off,0,0,0,,10,,,57,127
54374,note_off,32,0,0,,0,,,72,127
54376,note_on,2,0,0,,10,,,45,127
54376,note_on,0,0,0,,10,,,57,127
54376,note_on,0,0,0,,0,,,72,127
54376,note_on,0,0,0,,5,,,77,127
54609,note_off,233,0,0,,5,,,77,127
54609,note_off,0,0,0,,0,,,72,127
54611,note_on,2,0,0,,2,,,74,127
54841,note_off,230,0,0,,10,,,57,127
54841,note_off,0,0,0,,10,,,45,127
54843,note_off,2,0,0,,2,,,74,127
54845,note_on,2,0,0,,3,,,75,127
55078,note_off,233,0,0,,3,,,75,127
55080,note_on,2,0,0,,2,,,50,127
55080,note_on,0,0,0,,2,,,62,127
55080,note_on,0,0,0,,5,,,77,127
55080,note_on,0,0,0,,2,,,74,127
55313,note_off,233,0,0,,2,,,74,127
55313,note_off,0,0,0,,5,,,77,127
55315,note_on,2,0,0,,3,,,75,127
55315,note_on,0,0,0,,0,,,72,127
55545,note_off,230,0,0,,2,,,62,127
55545,note_off,0,0,0,,2,,,50,127
55547,note_off,2,0,0,,0,,,72,127
55547,note_off,0,0,0,,3,,,75,127
55549,note_on,2,0,0,,5,,,77,127
55549,note_on,0,0,0,,2,,,74,127
55782,note_off,233,0,0,,2,,,74,127
55782,note_off,0,0,0,,5,,,77,127
55784,note_on,2,0,0,,11,,,46,127
55784,note_on,0,0,0,,11,,,58,127
55784,note_on,0,0,0,,5,,,77,127
55784,note_on,0,0,0,,2,,,74,127
56017,note_off,233,0,0,,2,,,74,127
56017,note_off,0,0,0,,5,,,77,127
56019,note_on,2,0,0,,3,,,75,127
56019,note_on,0,0,0,,0,,,72,127
56249,note_off,230,0,0,,11,,,58,127
56249,note_off,0,0,0,,11,,,46,127
56251,note_off,2,0,0,,0,,,72,127
56251,note_off,0,0,0,,3,,,75,127
56253,note_on,2,0,0,,5,,,77,127
56253,note_on,0,0,0,,2,,,74,127
56486,note_off,233,0,0,,2,,,74,127
56486,note_off,0,0,0,,5,,,77,127
56488,note_on,2,0,0,,7,,,43,127
56488,note_on,0,0,0,,7,,,55,127
56488,note_on,0,0,0,,3,,,75,127
56488,note_on,0,0,0,,2,,,86,127
56721,note_off,233,0,0,,2,,,86,127
56723,note_on,2,0,0,,0,,,84,127
56955,note_off,232,0,0,,0,,,84,127
56957,note_on,2,0,0,,11,,,82,127
57075,note_off,118,0,0,,3,,,75,127
57158,note_off,83,0,0,,7,,,55,127
57158,note_off,0,0,0,,7,,,43,127
57190,note_off,32,0,0,,11,,,82,127
57192,note_on,2,0,0,,7,,,43,127
57192,note_on,0,0,0,,7,,,55,127
57192,note_on,0,0,0,,2,,,86,127
57192,note_on,0,0,0,,3,,,75,127
57425,note_off,233,0,0,,2,,,86,127
57427,note_on,2,0,0,,0,,,84,127
57657,note_off,230,0,0,,7,,,55,127
57657,note_off,0,0,0,,7,,,43,127
57659,note_off,2,0,0,,0,,,84,127
57661,note_on,2,0,0,,11,,,82,127
57779,note_off,118,0,0,,3,,,75,127
57894,note_off,115,0,0,,11,,,82,127
57896,note_on,2,0,0,,0,,,48,127
57896,note_on,0,0,0,,0,,,60,127
57896,note_on,0,0,0,,3,,,75,127
57896,note_on,0,0,0,,0,,,84,127
58129,note_off,233,0,0,,0,,,84,127
58129,note_off,0,0,0,,3,,,75,127
58131,note_on,2,0,0,,2,,,74,127
58131,note_on,0,0,0,,11,,,82,127
58361,note_off,230,0,0,,0,,,60,127
58361,note_off,0,0,0,,0,,,48,127
58363,note_off,2,0,0,,11,,,82,127
58363,note_off,0,0,0,,2,,,74,127
58365,note_on,2,0,0,,0,,,84,127
58365,note_on,0,0,0,,3,,,75,127
58598,note_off,233,0,0,,3,,,75,127
58598,note_off,0,0,0,,0,,,84,127
58600,note_on,2,0,0,,10,,,45,127
58600,note_on,0,0,0,,10,,,57,127
58600,note_on,0,0,0,,0,,,84,127
58600,note_on,0,0,0,,3,,,75,127
58833,note_off,233,0,0,,3,,,75,127
58833,note_off,0,0,0,,0,,,84,127
58835,note_on,2,0,0,,2,,,74,127
58835,note_on,0,0,0,,11,,,82,127
59065,note_off,230,0,0,,10,,,57,127
59065,note_off,0,0,0,,10,,,45,127
59067,note_off,2,0,0,,11,,,82,127
59067,note_off,0,0,0,,2,,,74,127
59069,note_on,2,0,0,,0,,,84,127
59069,note_on,0,0,0,,3,,,75,127
59302,note_off,233,0,0,,3,,,75,127
59302,note_off,0,0,0,,0,,,84,127
59304,note_on,2,0,0,,5,,,53,127
59304,note_on,0,0,0,,5,,,41,127
59304,note_on,0,0,0,,0,,,84,127
59304,note_on,0,0,0,,3,,,75,127
59537,note_off,233,0,0,,5,,,41,127
59537,note_off,0,0,0,,5,,,53,127
59539,note_on,2,0,0,,10,,,45,127
59539,note_on,0,0,0,,10,,,57,127
59772,note_off,233,0,0,,10,,,57,127
59772,note_off,0,0,0,,10,,,45,127
59774,note_on,2,0,0,,0,,,48,127
59774,note_on,0,0,0,,0,,,60,127
60007,note_off,233,0,0,,0,,,60,127
60007,note_off,0,0,0,,0,,,48,127
60009,note_on,2,0,0,,5,,,53,127
60009,note_on,0,0,0,,5,,,65,127
60242,note_off,233,0,0,,3,,,75,127
60242,note_off,0,0,0,,0,,,84,127
60244,note_on,2,0,0,,11,,,82,127
60244,note_on,0,0,0,,2,,,74,127
60477,note_off,233,0,0,,2,,,74,127
60477,note_off,0,0,0,,11,,,82,127
60479,note_on,2,0,0,,10,,,81,127
60479,note_on,0,0,0,,0,,,72,127
60670,note_off,191,0,0,,5,,,65,127
60670,note_off,0,0,0,,5,,,53,127
60712,note_off,42,0,0,,0,,,72,127
60712,note_off,0,0,0,,10,,,81,127
60714,note_on,2,0,0,,11,,,46,127
60714,note_on,0,0,0,,11,,,82,127
60714,note_on,0,0,0,,2,,,74,127
60829,note_off,115,0,0,,11,,,46,127
60831,note_on,2,0,0,,2,,,50,127
60946,note_off,115,0,0,,2,,,50,127
60948,note_on,2,0,0,,5,,,53,127
61063,note_off,115,0,0,,5,,,53,127
61065,note_on,2,0,0,,11,,,58,127
61180,note_off,115,0,0,,11,,,58,127
61180,note_off,0,0,0,,2,,,74,127
61180,note_off,0,0,0,,11,,,82,127
61182,note_on,2,0,0,,2,,,62,127
61182,note_on,0,0,0,,5,,,77,127
61415,note_off,233,0,0,,5,,,77,127
61415,note_off,0,0,0,,2,,,62,127
61417,note_on,2,0,0,,0,,,60,127
61417,note_on,0,0,0,,3,,,75,127
61650,note_off,233,0,0,,3,,,75,127
61650,note_off,0,0,0,,0,,,60,127
61652,note_on,2,0,0,,11,,,58,127
61652,note_on,0,0,0,,2,,,74,127
61885,note_off,233,0,0,,2,,,74,127
61885,note_off,0,0,0,,11,,,58,127
61887,note_on,2,0,0,,10,,,57,127
61887,note_on,0,0,0,,0,,,72,127
62083,note_off,196,0,0,,0,,,72,127
62120,note_off,37,0,0,,10,,,57,127
62122,note_on,2,0,0,,11,,,46,127
62122,note_on,0,0,0,,11,,,82,127
62122,note_on,0,0,0,,2,,,74,127
62237,note_off,115,0,0,,11,,,46,127
62239,note_on,2,0,0,,2,,,50,127
62354,note_off,115,0,0,,2,,,50,127
62356,note_on,2,0,0,,5,,,53,127
62471,note_off,115,0,0,,5,,,53,127
62473,note_on,2,0,0,,11,,,58,127
62588,note_off,115,0,0,,11,,,58,127
62588,note_off,0,0,0,,2,,,74,127
62588,note_off,0,0,0,,11,,,82,127
62590,note_on,2,0,0,,2,,,62,127
62590,note_on,0,0,0,,5,,,77,127
62823,note_off,233,0,0,,5,,,77,127
62823,note_off,0,0,0,,2,,,62,127
62825,note_on,2,0,0,,0,,,60,127
62825,note_on,0,0,0,,3,,,75,127
63058,note_off,233,0,0,,3,,,75,127
63058,note_off,0,0,0,,0,,,60,127
63060,note_on,2,0,0,,11,,,58,127
63060,note_on,0,0,0,,2,,,74,127
63293,note_off,233,0,0,,2,,,74,127
63293,note_off,0,0,0,,11,,,58,127
63295,note_on,2,0,0,,10,,,57,127
63295,note_on,0,0,0,,0,,,72,127
63491,note_off,196,0,0,,0,,,72,127
63528,note_off,37,0,0,,10,,,57,127
63530,note_on,2,0,0,,11,,,82,127
63530,note_on,0,0,0,,11,,,58,127
63640,note_off,110,0,0,,11,,,58,127
63645,note_off,5,0,0,,11,,,82,127
63647,note_on,2,0,0,,11,,,58,127
63762,note_off,115,0,0,,11,,,58,127
63764,note_on,2,0,0,,2,,,62,127
63879,note_off,115,0,0,,2,,,62,127
63881,note_on,2,0,0,,5,,,65,127
63991,note_off,110,0,0,,5,,,65,127
63998,note_on,7,0,0,,5,,,65,127
64113,note_off,115,0,0,,5,,,65,127
64115,note_on,2,0,0,,11,,,70,127
64225,note_off,110,0,0,,11,,,70,127
64232,note_on,7,0,0,,11,,,70,127
64347,note_off,115,0,0,,11,,,70,127
64349,note_on,2,0,0,,2,,,74,127
64459,note_off,110,0,0,,2,,,74,127
64466,note_on,7,0,0,,2,,,74,127
64581,note_off,115,0,0,,2,,,74,127
64583,note_on,2,0,0,,5,,,77,127
64693,note_off,110,0,0,,5,,,77,127
64700,note_on,7,0,0,,5,,,77,127
64815,note_off,115,0,0,,5,,,77,127
64817,note_on,2,0,0,,11,,,82,127
64932,note_off,115,0,0,,11,,,82,127
64934,note_on,2,0,0,,7,,,79,127
64934,note_on,0,0,0,,11,,,82,127
65167,note_off,233,0,0,,11,,,82,127
65167,note_off,0,0,0,,7,,,79,127
65169,note_on,2,0,0,,5,,,77,127
65169,note_on,0,0,0,,10,,,81,127
65402,note_off,233,0,0,,10,,,81,127
65402,note_off,0,0,0,,5,,,77,127
65404,note_on,2,0,0,,7,,,79,127
65404,note_on,0,0,0,,3,,,75,127
65637,note_off,233,0,0,,3,,,75,127
65637,note_off,0,0,0,,7,,,79,127
65639,note_on,2,0,0,,2,,,74,127
65639,note_on,0,0,0,,5,,,77,127
65872,note_off,233,0,0,,5,,,77,127
65872,note_off,0,0,0,,2,,,74,127
65874,note_on,2,0,0,,0,,,72,127
65874,note_on,0,0,0,,3,,,75,127
66107,note_off,233,0,0,,3,,,75,127
66107,note_off,0,0,0,,0,,,72,127
66109,note_on,2,0,0,,2,,,74,127
66109,note_on,0,0,0,,11,,,70,127
66332,note_off,223,0,0,,11,,,70,127
66332,note_off,0,0,0,,2,,,74,127
66344,note_on,12,0,0,,3,,,63,127
66344,note_on,0,0,0,,3,,,75,127
66459,note_off,115,0,0,,3,,,75,127
66461,note_on,2,0,0,,7,,,79,127
66576,note_off,115,0,0,,7,,,79,127
66576,note_off,0,0,0,,3,,,63,127
66578,note_on,2,0,0,,5,,,65,127
66578,note_on,0,0,0,,5,,,77,127
66693,note_off,115,0,0,,5,,,77,127
66695,note_on,2,0,0,,3,,,75,127
66810,note_off,115,0,0,,3,,,75,127
66810,note_off,0,0,0,,5,,,65,127
66812,note_on,2,0,0,,5,,,53,127
66812,note_on,0,0,0,,2,,,74,127
66927,note_off,115,0,0,,2,,,74,127
66929,note_on,2,0,0,,0,,,72,127
67044,note_off,115,0,0,,0,,,72,127
67044,note_off,0,0,0,,5,,,53,127
67046,note_on,2,0,0,,11,,,58,127
67046,note_on,0,0,0,,11,,,82,127
67161,note_off,115,0,0,,11,,,82,127
67163,note_on,2,0,0,,5,,,77,127
67278,note_off,115,0,0,,5,,,77,127
67280,note_on,2,0,0,,2,,,74,127
67395,note_off,115,0,0,,2,,,74,127
67397,note_on,2,0,0,,11,,,70,127
67512,note_off,115,0,0,,11,,,70,127
67512,note_off,0,0,0,,11,,,58,127
67514,note_on,2,0,0,,11,,,58,127
67749,note_on,235,0,0,,5,,,77,127
67864,note_off,115,0,0,,5,,,77,127
67866,note_on,2,0,0,,2,,,74,127
67981,note_off,115,0,0,,2,,,74,127
67983,note_on,2,0,0,,11,,,70,127
68098,note_off,115,0,0,,11,,,70,127
68100,note_on,2,0,0,,5,,,65,127
68215,note_off,115,0,0,,5,,,65,127
68215,note_off,0,0,0,,11,,,58,127
68217,note_on,2,0,0,,11,,,46,127
68217,note_on,0,0,0,,11,,,58,127
68452,note_on,235,0,0,,11,,,70,127
68567,note_off,115,0,0,,11,,,70,127
68569,note_on,2,0,0,,5,,,65,127
68684,note_off,115,0,0,,5,,,65,127
68686,note_on,2,0,0,,2,,,62,127
68801,note_off,115,0,0,,2,,,62,127
68803,note_off,2,0,0,,11,,,58,127
68803,note_on,0,0,0,,11,,,58,127
68913,note_off,110,0,0,,11,,,58,127
68918,note_off,5,0,0,,11,,,46,127
68920,note_on,2,0,0,,11,,,46,127
68920,note_on,0,0,0,,11,,,58,127
69153,note_off,233,0,0,,11,,,58,127
69153,note_off,0,0,0,,11,,,46,127
69171,note_on,18,0,0,,2,,,62,127
69171,note_on,0,0,0,,2,,,38,127
69171,note_on,0,0,0,,2,,,50,127
69404,note_off,233,0,0,,2,,,50,127
69404,note_off,0,0,0,,2,,,38,127
69404,note_off,0,0,0,,2,,,62,127
69406,note_on,2,0,0,,3,,,63,127
69406,note_on,0,0,0,,3,,,39,127
69406,note_on,0,0,0,,3,,,51,127
69639,note_off,233,0,0,,3,,,51,127
69639,note_off,0,0,0,,3,,,39,127
69639,note_off,0,0,0,,3,,,63,127
69641,note_on,2,0,0,,5,,,65,127
69641,note_on,0,0,0,,5,,,53,127
69641,note_on,0,0,0,,5,,,41,127
69874,note_off,233,0,0,,5,,,41,127
69874,note_off,0,0,0,,5,,,53,127
69874,note_off,0,0,0,,5,,,65,127
69876,note_on,2,0,0,,11,,,58,127
69876,note_on,0,0,0,,11,,,46,127
70579,note_off,703,0,0,,11,,,46,127
70579,note_off,0,0,0,,11,,,58,127
70597,note_on,18,0,0,,11,,,70,127
70830,note_off,233,0,0,,11,,,70,127
70832,note_on,2,0,0,,2,,,74,127
71065,note_off,233,0,0,,2,,,74,127
71067,note_on,2,0,0,,5,,,77,127
71300,note_off,233,0,0,,5,,,77,127
71302,note_on,2,0,0,,11,,,82,127
71302,note_on,0,0,0,,11,,,58,127
71535,note_off,233,0,0,,11,,,58,127
71537,note_on,2,0,0,,2,,,62,127
71770,note_off,233,0,0,,2,,,62,127
71770,note_off,0,0,0,,11,,,82,127
71772,note_on,2,0,0,,0,,,84,127
71772,note_on,0,0,0,,5,,,65,127
72005,note_off,233,0,0,,5,,,65,127
72005,note_off,0,0,0,,0,,,84,127
72007,note_on,2,0,0,,2,,,86,127
72007,note_on,0,0,0,,11,,,70,127
72240,note_off,233,0,0,,11,,,70,127
72240,note_off,0,0,0,,2,,,86,127
72242,note_on,2,0,0,,0,,,84,127
72242,note_on,0,0,0,,0,,,72,127
72475,note_off,233,0,0,,0,,,72,127
72475,note_off,0,0,0,,0,,,84,127
72477,note_on,2,0,0,,11,,,82,127
72477,note_on,0,0,0,,2,,,74,127
72710,note_off,233,0,0,,2,,,74,127
72710,note_off,0,0,0,,11,,,82,127
72712,note_on,2,0,0,,0,,,84,127
72712,note_on,0,0,0,,3,,,75,127
72788,note_off,76,0,0,,0,,,84,127
72790,note_on,2,0,0,,2,,,86,127
72866,note_off,76,0,0,,2,,,86,127
72868,note_on,2,0,0,,3,,,87,127
72944,note_off,76,0,0,,3,,,87,127
72944,note_off,0,0,0,,3,,,75,127
72946,note_on,2,0,0,,2,,,86,127
72946,note_on,0,0,0,,5,,,77,127
73179,note_off,233,0,0,,5,,,77,127
73179,note_off,0,0,0,,2,,,86,127
73181,note_on,2,0,0,,0,,,84,127
73181,note_on,0,0,0,,5,,,65,127
73414,note_off,233,0,0,,5,,,65,127
73414,note_off,0,0,0,,0,,,84,127
73416,note_on,2,0,0,,2,,,86,127
73416,note_on,0,0,0,,11,,,70,127
73659,note_off,243,0,0,,11,,,70,127
73659,note_off,0,0,0,,2,,,86,127
73667,note_on,8,0,0,,5,,,65,127
73667,note_on,0,0,0,,0,,,84,127
73910,note_off,243,0,0,,0,,,84,127
73910,note_off,0,0,0,,5,,,65,127
73918,note_on,8,0,0,,11,,,82,127
73918,note_on,0,0,0,,11,,,58,127
74151,note_off,233,0,0,,11,,,82,127
74195,note_on,44,0,0,,2,,,86,127
74198,note_off,3,0,0,,11,,,58,127
74279,note_on,81,0,0,,0,,,84,127
74281,note_off,2,0,0,,2,,,86,127
74355,note_off,74,0,0,,0,,,84,127
74357,note_on,2,0,0,,12,,,83,127
74433,note_off,76,0,0,,12,,,83,127
74435,note_on,2,0,0,,8,,,80,127
74435,note_on,0,0,0,,12,,,83,127
74668,note_off,233,0,0,,12,,,83,127
74668,note_off,0,0,0,,8,,,80,127
74670,note_on,2,0,0,,7,,,79,127
74670,note_on,0,0,0,,12,,,83,127
74903,note_off,233,0,0,,12,,,83,127
74903,note_off,0,0,0,,7,,,79,127
74905,note_on,2,0,0,,5,,,77,127
74905,note_on,0,0,0,,12,,,83,127
75138,note_off,233,0,0,,12,,,83,127
75138,note_off,0,0,0,,5,,,77,127
75140,note_on,2,0,0,,7,,,79,127
75140,note_on,0,0,0,,12,,,83,127
75373,note_off,233,0,0,,12,,,83,127
75373,note_off,0,0,0,,7,,,79,127
75375,note_on,2,0,0,,8,,,80,127
75375,note_on,0,0,0,,12,,,83,127
75608,note_off,233,0,0,,12,,,83,127
75608,note_off,0,0,0,,8,,,80,127
75610,note_on,2,0,0,,7,,,79,127
75610,note_on,0,0,0,,12,,,83,127
75843,note_off,233,0,0,,12,,,83,127
75845,note_on,2,0,0,,2,,,86,127
75960,note_off,115,0,0,,2,,,86,127
75962,note_on,2,0,0,,0,,,84,127
76077,note_off,115,0,0,,0,,,84,127
76077,note_off,0,0,0,,7,,,79,127
76079,note_on,2,0,0,,5,,,77,127
76079,note_on,0,0,0,,12,,,83,127
76312,note_off,233,0,0,,12,,,83,127
76312,note_off,0,0,0,,5,,,77,127
76314,note_on,2,0,0,,3,,,75,127
76314,note_on,0,0,0,,0,,,84,127
76547,note_off,233,0,0,,0,,,84,127
76547,note_off,0,0,0,,3,,,75,127
76549,note_on,2,0,0,,2,,,74,127
76549,note_on,0,0,0,,2,,,86,127
76782,note_off,233,0,0,,2,,,86,127
76782,note_off,0,0,0,,2,,,74,127
76784,note_on,2,0,0,,0,,,72,127
76784,note_on,0,0,0,,3,,,87,127
77017,note_off,233,0,0,,3,,,87,127
77017,note_off,0,0,0,,0,,,72,127
77019,note_on,2,0,0,,12,,,71,127
77019,note_on,0,0,0,,2,,,86,127
77134,note_off,115,0,0,,2,,,86,127
77136,note_on,2,0,0,,0,,,84,127
77251,note_off,115,0,0,,0,,,84,127
77253,note_on,2,0,0,,12,,,83,127
77368,note_off,115,0,0,,12,,,83,127
77370,note_on,2,0,0,,10,,,81,127
77483,note_off,113,0,0,,12,,,71,127
77485,note_off,2,0,0,,10,,,81,127
77487,note_on,2,0,0,,7,,,79,127
77602,note_off,115,0,0,,7,,,79,127
77604,note_on,2,0,0,,5,,,77,127
77719,note_off,115,0,0,,5,,,77,127
77721,note_on,2,0,0,,12,,,59,127
77721,note_on,0,0,0,,7,,,79,127
77836,note_off,115,0,0,,7,,,79,127
77838,note_on,2,0,0,,8,,,80,127
77953,note_off,115,0,0,,8,,,80,127
77955,note_on,2,0,0,,7,,,79,127
78070,note_off,115,0,0,,7,,,79,127
78072,note_on,2,0,0,,5,,,77,127
78185,note_off,113,0,0,,12,,,59,127
78187,note_off,2,0,0,,5,,,77,127
78189,note_on,2,0,0,,3,,,75,127
78304,note_off,115,0,0,,3,,,75,127
78306,note_on,2,0,0,,2,,,74,127
78421,note_off,115,0,0,,2,,,74,127
78423,note_on,2,0,0,,0,,,60,127
78423,note_on,0,0,0,,3,,,75,127
78538,note_off,115,0,0,,3,,,75,127
78540,note_on,2,0,0,,2,,,74,127
78655,note_off,115,0,0,,2,,,74,127
78657,note_on,2,0,0,,0,,,72,127
78887,note_off,230,0,0,,0,,,60,127
78889,note_off,2,0,0,,0,,,72,127
78891,note_on,2,0,0,,7,,,79,127
79124,note_off,233,0,0,,7,,,79,127
79126,note_on,2,0,0,,5,,,65,127
79126,note_on,0,0,0,,8,,,80,127
79359,note_off,233,0,0,,8,,,80,127
79361,note_on,2,0,0,,12,,,71,127
79591,note_off,230,0,0,,5,,,65,127
79593,note_off,2,0,0,,12,,,71,127
79595,note_on,2,0,0,,0,,,72,127
79828,note_off,233,0,0,,0,,,72,127
79830,note_on,2,0,0,,5,,,53,127
79830,note_on,0,0,0,,12,,,71,127
80063,note_off,233,0,0,,12,,,71,127
80065,note_on,2,0,0,,3,,,75,127
80295,note_off,230,0,0,,5,,,53,127
80297,note_off,2,0,0,,3,,,75,127
80299,note_on,2,0,0,,5,,,77,127
80532,note_off,233,0,0,,5,,,77,127
80534,note_on,2,0,0,,3,,,63,127
80534,note_on,0,0,0,,7,,,79,127
80767,note_off,233,0,0,,7,,,79,127
80769,note_on,2,0,0,,12,,,71,127
80999,note_off,230,0,0,,3,,,63,127
81001,note_off,2,0,0,,12,,,71,127
81003,note_on,2,0,0,,0,,,72,127
81236,note_off,233,0,0,,0,,,72,127
81238,note_on,2,0,0,,3,,,51,127
81473,note_on,235,0,0,,3,,,75,127
81703,note_off,230,0,0,,3,,,51,127
81705,note_off,2,0,0,,3,,,75,127
81707,note_on,2,0,0,,5,,,77,127
81940,note_off,233,0,0,,5,,,77,127
81942,note_on,2,0,0,,2,,,62,127
81942,note_on,0,0,0,,7,,,79,127
82175,note_off,233,0,0,,7,,,79,127
82177,note_on,2,0,0,,12,,,71,127
82407,note_off,230,0,0,,2,,,62,127
82409,note_off,2,0,0,,12,,,71,127
82411,note_on,2,0,0,,0,,,72,127
82644,note_off,233,0,0,,0,,,72,127
82646,note_on,2,0,0,,0,,,60,127
82646,note_on,0,0,0,,0,,,72,127
82879,note_off,233,0,0,,0,,,72,127
82881,note_on,2,0,0,,2,,,74,127
83111,note_off,230,0,0,,0,,,60,127
83113,note_off,2,0,0,,2,,,74,127
83115,note_on,2,0,0,,3,,,75,127
83348,note_off,233,0,0,,3,,,75,127
83350,note_on,2,0,0,,11,,,58,127
83350,note_on,0,0,0,,5,,,77,127
83583,note_off,233,0,0,,5,,,77,127
83585,note_on,2,0,0,,4,,,76,127
83815,note_off,230,0,0,,11,,,58,127
83817,note_off,2,0,0,,4,,,76,127
83819,note_on,2,0,0,,5,,,77,127
84052,note_off,233,0,0,,5,,,77,127
84054,note_on,2,0,0,,8,,,56,127
84054,note_on,0,0,0,,5,,,77,127
84287,note_off,233,0,0,,5,,,77,127
84289,note_on,2,0,0,,4,,,76,127
84519,note_off,230,0,0,,8,,,56,127
84521,note_off,2,0,0,,4,,,76,127
84523,note_on,2,0,0,,5,,,77,127
84756,note_off,233,0,0,,5,,,77,127
84758,note_on,2,0,0,,7,,,55,127
84758,note_on,0,0,0,,5,,,77,127
84991,note_off,233,0,0,,5,,,77,127
84993,note_on,2,0,0,,8,,,80,127
85108,note_off,115,0,0,,8,,,80,127
85110,note_on,2,0,0,,7,,,79,127
85223,note_off,113,0,0,,7,,,55,127
85225,note_off,2,0,0,,7,,,79,127
85227,note_on,2,0,0,,5,,,77,127
85460,note_off,233,0,0,,5,,,77,127
85462,note_on,2,0,0,,8,,,56,127
85697,note_on,235,0,0,,12,,,71,127
85927,note_off,230,0,0,,8,,,56,127
85929,note_off,2,0,0,,12,,,71,127
85931,note_on,2,0,0,,0,,,72,127
86164,note_off,233,0,0,,0,,,72,127
86166,note_on,2,0,0,,7,,,55,127
86401,note_on,235,0,0,,8,,,80,127
86516,note_off,115,0,0,,8,,,80,127
86518,note_on,2,0,0,,7,,,79,127
86631,note_off,113,0,0,,7,,,55,127
86633,note_off,2,0,0,,7,,,79,127
86635,note_on,2,0,0,,5,,,77,127
86868,note_off,233,0,0,,5,,,77,127
86870,note_on,2,0,0,,0,,,60,127
87105,note_on,235,0,0,,12,,,83,127
87335,note_off,230,0,0,,0,,,60,127
87337,note_off,2,0,0,,12,,,83,127
87339,note_on,2,0,0,,0,,,84,127
87572,note_off,233,0,0,,0,,,84,127
87574,note_on,2,0,0,,7,,,55,127
87574,note_on,0,0,0,,2,,,86,127
87689,note_off,115,0,0,,2,,,86,127
87691,note_on,2,0,0,,0,,,84,127
87806,note_off,115,0,0,,0,,,84,127
87808,note_on,2,0,0,,12,,,83,127
87923,note_off,115,0,0,,12,,,83,127
87925,note_on,2,0,0,,10,,,81,127
88040,note_off,115,0,0,,10,,,81,127
88042,note_on,2,0,0,,7,,,79,127
88157,note_off,115,0,0,,7,,,79,127
88159,note_on,2,0,0,,5,,,77,127
88257,note_off,98,0,0,,7,,,55,127
88274,note_off,17,0,0,,5,,,77,127
88276,note_on,2,0,0,,0,,,60,127
88276,note_on,0,0,0,,3,,,75,127
88391,note_off,115,0,0,,3,,,75,127
88393,note_on,2,0,0,,2,,,74,127
88508,note_off,115,0,0,,2,,,74,127
88510,note_on,2,0,0,,0,,,72,127
88625,note_off,115,0,0,,0,,,72,127
88627,note_on,2,0,0,,11,,,70,127
88742,note_off,115,0,0,,11,,,70,127
88744,note_on,2,0,0,,8,,,68,127
88859,note_off,115,0,0,,8,,,68,127
88861,note_on,2,0,0,,7,,,67,127
88976,note_off,115,0,0,,7,,,67,127
88977,note_off,1,0,0,,0,,,60,127
88978,note_on,1,0,0,,5,,,53,127
88978,note_on,0,0,0,,8,,,68,127
89093,note_off,115,0,0,,8,,,68,127
89095,note_on,2,0,0,,7,,,67,127
89210,note_off,115,0,0,,7,,,67,127
89212,note_on,2,0,0,,5,,,65,127
89327,note_off,115,0,0,,5,,,65,127
89329,note_on,2,0,0,,3,,,63,127
89444,note_off,115,0,0,,3,,,63,127
89446,note_on,2,0,0,,2,,,62,127
89561,note_off,115,0,0,,2,,,62,127
89563,note_on,2,0,0,,0,,,60,127
89678,note_off,115,0,0,,0,,,60,127
89679,note_off,1,0,0,,5,,,53,127
89680,note_on,1,0,0,,7,,,55,127
89915,note_on,235,0,0,,12,,,59,127
89915,note_on,0,0,0,,2,,,62,127
90145,note_off,230,0,0,,7,,,55,127
90147,note_off,2,0,0,,2,,,62,127
90147,note_off,0,0,0,,12,,,59,127
90149,note_on,2,0,0,,12,,,59,127
90149,note_on,0,0,0,,2,,,62,127
90382,note_off,233,0,0,,2,,,62,127
90382,note_off,0,0,0,,12,,,59,127
90384,note_on,2,0,0,,8,,,56,127
90384,note_on,0,0,0,,12,,,59,127
90384,note_on,0,0,0,,2,,,62,127
90499,note_off,115,0,0,,2,,,62,127
90499,note_off,0,0,0,,12,,,59,127
90501,note_on,2,0,0,,3,,,63,127
90501,note_on,0,0,0,,0,,,60,127
90616,note_off,115,0,0,,0,,,60,127
90616,note_off,0,0,0,,3,,,63,127
90618,note_on,2,0,0,,2,,,62,127
90618,note_on,0,0,0,,12,,,59,127
90851,note_off,233,0,0,,12,,,59,127
90851,note_off,0,0,0,,2,,,62,127
90853,note_on,2,0,0,,2,,,62,127
90853,note_on,0,0,0,,12,,,59,127
90971,note_off,118,0,0,,8,,,56,127
91086,note_off,115,0,0,,12,,,59,127
91086,note_off,0,0,0,,2,,,62,127
91088,note_on,2,0,0,,7,,,55,127
91088,note_on,0,0,0,,12,,,59,127
91088,note_on,0,0,0,,2,,,62,127
91203,note_off,115,0,0,,2,,,62,127
91203,note_off,0,0,0,,12,,,59,127
91205,note_on,2,0,0,,3,,,63,127
91205,note_on,0,0,0,,0,,,60,127
91320,note_off,115,0,0,,0,,,60,127
91320,note_off,0,0,0,,3,,,63,127
91322,note_on,2,0,0,,2,,,62,127
91322,note_on,0,0,0,,12,,,59,127
91555,note_off,233,0,0,,12,,,59,127
91555,note_off,0,0,0,,2,,,62,127
91557,note_on,2,0,0,,2,,,62,127
91557,note_on,0,0,0,,12,,,59,127
91675,note_off,118,0,0,,7,,,55,127
91790,note_off,115,0,0,,12,,,59,127
91790,note_off,0,0,0,,2,,,62,127
91792,note_on,2,0,0,,5,,,53,127
91792,note_on,0,0,0,,2,,,62,127
91792,note_on,0,0,0,,12,,,59,127
92025,note_off,233,0,0,,12,,,59,127
92025,note_off,0,0,0,,2,,,62,127
92027,note_on,2,0,0,,0,,,60,127
92027,note_on,0,0,0,,3,,,63,127
92260,note_off,233,0,0,,3,,,63,127
92260,note_off,0,0,0,,0,,,60,127
92262,note_on,2,0,0,,2,,,62,127
92262,note_on,0,0,0,,5,,,65,127
92380,note_off,118,0,0,,5,,,53,127
92495,note_off,115,0,0,,5,,,65,127
92495,note_off,0,0,0,,2,,,62,127
92497,note_on,2,0,0,,3,,,51,127
92497,note_on,0,0,0,,3,,,63,127
92497,note_on,0,0,0,,7,,,67,127
92612,note_off,115,0,0,,7,,,67,127
92612,note_off,0,0,0,,3,,,63,127
92614,note_on,2,0,0,,5,,,65,127
92614,note_on,0,0,0,,8,,,68,127
92729,note_off,115,0,0,,8,,,68,127
92729,note_off,0,0,0,,5,,,65,127
92731,note_on,2,0,0,,7,,,67,127
92731,note_on,0,0,0,,3,,,63,127
92964,note_off,233,0,0,,3,,,63,127
92964,note_off,0,0,0,,7,,,67,127
92966,note_on,2,0,0,,3,,,63,127
92966,note_on,0,0,0,,7,,,67,127
93084,note_off,118,0,0,,3,,,51,127
93199,note_off,115,0,0,,7,,,67,127
93199,note_off,0,0,0,,3,,,63,127
93201,note_on,2,0,0,,2,,,50,127
93201,note_on,0,0,0,,7,,,67,127
93434,note_off,233,0,0,,7,,,67,127
93436,note_on,2,0,0,,10,,,69,127
93669,note_off,233,0,0,,10,,,69,127
93671,note_on,2,0,0,,5,,,65,127
93671,note_on,0,0,0,,12,,,71,127
93789,note_off,118,0,0,,2,,,50,127
93904,note_off,115,0,0,,12,,,71,127
93904,note_off,0,0,0,,5,,,65,127
93906,note_on,2,0,0,,3,,,63,127
93906,note_on,0,0,0,,0,,,48,127
93906,note_on,0,0,0,,0,,,72,127
94139,note_off,233,0,0,,0,,,72,127
94141,note_on,2,0,0,,3,,,75,127
94217,note_off,76,0,0,,3,,,75,127
94219,note_on,2,0,0,,2,,,74,127
94295,note_off,76,0,0,,2,,,74,127
94297,note_on,2,0,0,,0,,,72,127
94370,note_off,73,0,0,,0,,,48,127
94370,note_off,0,0,0,,3,,,63,127
94372,note_off,2,0,0,,0,,,72,127
94374,note_on,2,0,0,,7,,,79,127
94607,note_off,233,0,0,,7,,,79,127
94609,note_on,2,0,0,,0,,,60,127
94844,note_on,235,0,0,,3,,,75,127
94920,note_off,76,0,0,,3,,,75,127
94922,note_on,2,0,0,,2,,,74,127
94998,note_off,76,0,0,,2,,,74,127
95000,note_on,2,0,0,,0,,,72,127
95076,note_off,76,0,0,,0,,,72,127
95078,note_on,2,0,0,,7,,,79,127
95311,note_off,233,0,0,,7,,,79,127
95312,note_off,1,0,0,,0,,,60,127
95313,note_on,1,0,0,,0,,,60,127
95548,note_on,235,0,0,,3,,,75,127
95624,note_off,76,0,0,,3,,,75,127
95626,note_on,2,0,0,,2,,,74,127
95702,note_off,76,0,0,,2,,,74,127
95704,note_on,2,0,0,,0,,,72,127
95780,note_off,76,0,0,,0,,,72,127
95782,note_on,2,0,0,,0,,,84,127
96015,note_off,233,0,0,,0,,,84,127
96016,note_off,1,0,0,,0,,,60,127
96017,note_on,1,0,0,,0,,,60,127
96017,note_on,0,0,0,,11,,,82,127
96250,note_off,233,0,0,,11,,,82,127
96250,note_off,0,0,0,,0,,,60,127
96252,note_on,2,0,0,,2,,,62,127
96252,note_on,0,0,0,,8,,,80,127
96485,note_off,233,0,0,,8,,,80,127
96485,note_off,0,0,0,,2,,,62,127
96487,note_on,2,0,0,,3,,,63,127
96487,note_on,0,0,0,,7,,,79,127
96720,note_off,233,0,0,,7,,,79,127
96720,note_off,0,0,0,,3,,,63,127
96722,note_on,2,0,0,,5,,,53,127
96722,note_on,0,0,0,,8,,,80,127
96955,note_off,233,0,0,,5,,,53,127
96957,note_on,2,0,0,,8,,,56,127
97190,note_off,233,0,0,,8,,,56,127
97192,note_on,2,0,0,,5,,,53,127
97425,note_off,233,0,0,,5,,,53,127
97427,note_on,2,0,0,,11,,,58,127
97660,note_off,233,0,0,,11,,,58,127
97662,note_on,2,0,0,,2,,,62,127
97777,note_off,115,0,0,,8,,,80,127
97779,note_on,2,0,0,,0,,,84,127
97894,note_off,115,0,0,,0,,,84,127
97894,note_off,0,0,0,,2,,,62,127
97896,note_on,2,0,0,,11,,,58,127
97896,note_on,0,0,0,,11,,,82,127
98011,note_off,115,0,0,,11,,,82,127
98013,note_on,2,0,0,,8,,,80,127
98128,note_off,115,0,0,,8,,,80,127
98128,note_off,0,0,0,,11,,,58,127
98130,note_on,2,0,0,,3,,,51,127
98130,note_on,0,0,0,,7,,,79,127
98363,note_off,233,0,0,,3,,,51,127
98365,note_on,2,0,0,,7,,,55,127
98598,note_off,233,0,0,,7,,,55,127
98600,note_on,2,0,0,,3,,,51,127
98833,note_off,233,0,0,,3,,,51,127
98835,note_on,2,0,0,,8,,,56,127
99068,note_off,233,0,0,,8,,,56,127
99070,note_on,2,0,0,,0,,,60,127
99185,note_off,115,0,0,,7,,,79,127
99187,note_on,2,0,0,,11,,,82,127
99302,note_off,115,0,0,,11,,,82,127
99302,note_off,0,0,0,,0,,,60,127
99304,note_on,2,0,0,,8,,,56,127
99304,note_on,0,0,0,,8,,,80,127
99419,note_off,115,0,0,,8,,,80,127
99421,note_on,2,0,0,,7,,,79,127
99536,note_off,115,0,0,,7,,,79,127
99536,note_off,0,0,0,,8,,,56,127
99538,note_on,2,0,0,,2,,,50,127
99538,note_on,0,0,0,,5,,,77,127
99771,note_off,233,0,0,,2,,,50,127
99773,note_on,2,0,0,,5,,,53,127
100006,note_off,233,0,0,,5,,,53,127
100008,note_on,2,0,0,,2,,,50,127
100241,note_off,233,0,0,,2,,,50,127
100243,note_on,2,0,0,,7,,,55,127
100476,note_off,233,0,0,,7,,,55,127
100478,note_on,2,0,0,,12,,,59,127
100593,note_off,115,0,0,,5,,,77,127
100595,note_on,2,0,0,,8,,,80,127
100710,note_off,115,0,0,,8,,,80,127
100710,note_off,0,0,0,,12,,,59,127
100712,note_on,2,0,0,,7,,,55,127
100712,note_on,0,0,0,,7,,,79,127
100827,note_off,115,0,0,,7,,,79,127
100829,note_on,2,0,0,,5,,,77,127
100944,note_off,115,0,0,,5,,,77,127
100944,note_off,0,0,0,,7,,,55,127
100946,note_on,2,0,0,,0,,,48,127
100946,note_on,0,0,0,,0,,,60,127
101181,note_on,235,0,0,,3,,,75,127
101296,note_off,115,0,0,,3,,,75,127
101298,note_on,2,0,0,,5,,,77,127
101411,note_off,113,0,0,,0,,,60,127
101411,note_off,0,0,0,,0,,,48,127
101413,note_off,2,0,0,,5,,,77,127
101415,note_on,2,0,0,,7,,,79,127
101648,note_off,233,0,0,,7,,,79,127
101650,note_on,2,0,0,,7,,,43,127
101650,note_on,0,0,0,,7,,,55,127
101885,note_on,235,0,0,,5,,,77,127
102000,note_off,115,0,0,,5,,,77,127
102002,note_on,2,0,0,,3,,,75,127
102115,note_off,113,0,0,,7,,,55,127
102115,note_off,0,0,0,,7,,,43,127
102117,note_off,2,0,0,,3,,,75,127
102119,note_on,2,0,0,,2,,,74,127
102352,note_off,233,0,0,,2,,,74,127
102354,note_on,2,0,0,,0,,,48,127
102354,note_on,0,0,0,,7,,,55,127
102354,note_on,0,0,0,,0,,,72,127
102587,note_off,233,0,0,,0,,,72,127
102589,note_on,2,0,0,,3,,,63,127
102819,note_off,230,0,0,,7,,,55,127
102819,note_off,0,0,0,,0,,,48,127
102821,note_off,2,0,0,,3,,,63,127
102823,note_on,2,0,0,,7,,,67,127
103056,note_off,233,0,0,,7,,,67,127
103058,note_on,2,0,0,,0,,,48,127
103058,note_on,0,0,0,,0,,,72,127
103291,note_off,233,0,0,,0,,,72,127
103293,note_on,2,0,0,,3,,,63,127
103523,note_off,230,0,0,,0,,,48,127
103525,note_off,2,0,0,,3,,,63,127
103527,note_on,2,0,0,,7,,,67,127
103760,note_off,233,0,0,,7,,,67,127
103762,note_on,2,0,0,,0,,,48,127
103762,note_on,0,0,0,,3,,,75,127
103995,note_off,233,0,0,,3,,,75,127
103997,note_on,2,0,0,,3,,,63,127
104227,note_off,230,0,0,,0,,,48,127
104229,note_off,2,0,0,,3,,,63,127
104231,note_on,2,0,0,,7,,,67,127
104464,note_off,233,0,0,,7,,,67,127
104466,note_on,2,0,0,,0,,,48,127
104466,note_on,0,0,0,,7,,,79,127
104699,note_off,233,0,0,,7,,,79,127
104701,note_on,2,0,0,,3,,,63,127
104931,note_off,230,0,0,,0,,,48,127
104933,note_off,2,0,0,,3,,,63,127
104935,note_on,2,0,0,,7,,,67,127
105168,note_off,233,0,0,,7,,,67,127
105170,note_on,2,0,0,,0,,,48,127
105170,note_on,0,0,0,,0,,,84,127
105403,note_off,233,0,0,,0,,,84,127
105405,note_on,2,0,0,,0,,,84,127
105635,note_off,230,0,0,,0,,,48,127
105637,note_off,2,0,0,,0,,,84,127
105639,note_on,2,0,0,,11,,,82,127
105872,note_off,233,0,0,,11,,,82,127
105874,note_on,2,0,0,,0,,,72,127
105874,note_on,0,0,0,,8,,,80,127
106107,note_off,233,0,0,,8,,,80,127
106109,note_on,2,0,0,,8,,,80,127
106342,note_off,233,0,0,,8,,,80,127
106344,note_on,2,0,0,,7,,,79,127
106560,note_off,216,0,0,,0,,,72,127
106577,note_off,17,0,0,,7,,,79,127
106579,note_on,2,0,0,,0,,,72,127
106579,note_on,0,0,0,,6,,,78,127
106812,note_off,233,0,0,,6,,,78,127
106814,note_on,2,0,0,,2,,,86,127
107047,note_off,233,0,0,,2,,,86,127
107049,note_on,2,0,0,,2,,,86,127
107167,note_off,118,0,0,,0,,,72,127
107282,note_off,115,0,0,,2,,,86,127
107284,note_on,2,0,0,,0,,,72,127
107284,note_on,0,0,0,,6,,,78,127
107517,note_off,233,0,0,,6,,,78,127
107519,note_on,2,0,0,,2,,,86,127
107752,note_off,233,0,0,,2,,,86,127
107754,note_on,2,0,0,,2,,,86,127
107872,note_off,118,0,0,,0,,,72,127
107987,note_off,115,0,0,,2,,,86,127
107989,note_on,2,0,0,,12,,,71,127
107989,note_on,0,0,0,,7,,,79,127
108222,note_off,233,0,0,,7,,,79,127
108224,note_on,2,0,0,,11,,,82,127
108457,note_off,233,0,0,,11,,,82,127
108459,note_on,2,0,0,,8,,,80,127
108675,note_off,216,0,0,,12,,,71,127
108692,note_off,17,0,0,,8,,,80,127
108694,note_on,2,0,0,,12,,,71,127
108694,note_on,0,0,0,,7,,,79,127
108927,note_off,233,0,0,,7,,,79,127
108929,note_on,2,0,0,,7,,,79,127
109162,note_off,233,0,0,,7,,,79,127
109164,note_on,2,0,0,,5,,,77,127
109282,note_off,118,0,0,,12,,,71,127
109397,note_off,115,0,0,,5,,,77,127
109399,note_on,2,0,0,,11,,,70,127
109399,note_on,0,0,0,,4,,,76,127
109632,note_off,233,0,0,,4,,,76,127
109634,note_on,2,0,0,,0,,,84,127
109867,note_off,233,0,0,,0,,,84,127
109869,note_on,2,0,0,,0,,,84,127
109987,note_off,118,0,0,,11,,,70,127
110102,note_off,115,0,0,,0,,,84,127
110104,note_on,2,0,0,,11,,,70,127
110104,note_on,0,0,0,,4,,,76,127
110337,note_off,233,0,0,,4,,,76,127
110339,note_on,2,0,0,,0,,,84,127
110572,note_off,233,0,0,,0,,,84,127
110574,note_on,2,0,0,,0,,,84,127
110692,note_off,118,0,0,,11,,,70,127
110807,note_off,115,0,0,,0,,,84,127
110809,note_on,2,0,0,,8,,,68,127
110809,note_on,0,0,0,,5,,,77,127
111042,note_off,233,0,0,,5,,,77,127
111044,note_on,2,0,0,,8,,,80,127
111277,note_off,233,0,0,,8,,,80,127
111279,note_on,2,0,0,,7,,,79,127
111495,note_off,216,0,0,,8,,,68,127
111512,note_off,17,0,0,,7,,,79,127
111514,note_on,2,0,0,,5,,,77,127
111747,note_off,233,0,0,,5,,,77,127
111749,note_on,2,0,0,,8,,,68,127
111749,note_on,0,0,0,,5,,,77,127
111982,note_off,233,0,0,,5,,,77,127
111982,note_off,0,0,0,,8,,,68,127
111984,note_on,2,0,0,,7,,,67,127
111984,note_on,0,0,0,,3,,,75,127
112217,note_off,233,0,0,,3,,,75,127
112217,note_off,0,0,0,,7,,,67,127
112219,note_on,2,0,0,,5,,,65,127
112219,note_on,0,0,0,,2,,,74,127
112452,note_off,233,0,0,,2,,,74,127
112452,note_off,0,0,0,,5,,,65,127
112454,note_on,2,0,0,,5,,,65,127
112454,note_on,0,0,0,,2,,,74,127
112687,note_off,233,0,0,,2,,,74,127
112687,note_off,0,0,0,,5,,,65,127
112689,note_on,2,0,0,,3,,,63,127
112689,note_on,0,0,0,,0,,,72,127
112922,note_off,233,0,0,,0,,,72,127
112922,note_off,0,0,0,,3,,,63,127
112924,note_on,2,0,0,,2,,,62,127
112924,note_on,0,0,0,,12,,,71,127
113157,note_off,233,0,0,,12,,,71,127
113157,note_off,0,0,0,,2,,,62,127
113159,note_on,2,0,0,,3,,,63,127
113159,note_on,0,0,0,,0,,,72,127
113392,note_off,233,0,0,,0,,,72,127
113392,note_off,0,0,0,,3,,,63,127
113394,note_on,2,0,0,,5,,,65,127
113394,note_on,0,0,0,,2,,,74,127
113627,note_off,233,0,0,,2,,,74,127
113627,note_off,0,0,0,,5,,,65,127
113629,note_on,2,0,0,,12,,,59,127
113629,note_on,0,0,0,,7,,,67,127
113862,note_off,233,0,0,,7,,,67,127
113864,note_on,2,0,0,,7,,,79,127
113979,note_off,115,0,0,,7,,,79,127
113981,note_on,2,0,0,,5,,,77,127
114094,note_off,113,0,0,,12,,,59,127
114096,note_off,2,0,0,,5,,,77,127
114098,note_on,2,0,0,,3,,,75,127
114213,note_off,115,0,0,,3,,,75,127
114215,note_on,2,0,0,,2,,,74,127
114330,note_off,115,0,0,,2,,,74,127
114332,note_on,2,0,0,,0,,,60,127
114332,note_on,0,0,0,,0,,,72,127
114565,note_off,233,0,0,,0,,,72,127
114567,note_on,2,0,0,,2,,,74,127
114800,note_off,233,0,0,,2,,,74,127
114802,note_on,2,0,0,,3,,,75,127
115035,note_off,233,0,0,,3,,,75,127
115036,note_off,1,0,0,,0,,,60,127
115037,note_on,1,0,0,,0,,,48,127
115037,note_on,0,0,0,,8,,,68,127
115270,note_off,233,0,0,,8,,,68,127
115272,note_on,2,0,0,,11,,,70,127
115502,note_off,230,0,0,,0,,,48,127
115504,note_off,2,0,0,,11,,,70,127
115506,note_on,2,0,0,,0,,,72,127
115739,note_off,233,0,0,,0,,,72,127
115741,note_on,2,0,0,,2,,,62,127
115741,note_on,0,0,0,,6,,,66,127
115974,note_off,233,0,0,,6,,,66,127
115974,note_off,0,0,0,,2,,,62,127
115976,note_on,2,0,0,,2,,,62,127
116094,note_on,118,0,0,,4,,,64,127
116209,note_off,115,0,0,,4,,,64,127
116211,note_on,2,0,0,,6,,,66,127
116326,note_off,115,0,0,,6,,,66,127
116328,note_on,2,0,0,,7,,,67,127
116441,note_off,113,0,0,,2,,,62,127
116443,note_off,2,0,0,,7,,,67,127
116445,note_on,2,0,0,,2,,,50,127
116445,note_on,0,0,0,,10,,,69,127
116560,note_off,115,0,0,,10,,,69,127
116562,note_on,2,0,0,,6,,,66,127
116677,note_off,115,0,0,,6,,,66,127
116679,note_on,2,0,0,,7,,,67,127
116794,note_off,115,0,0,,7,,,67,127
116796,note_on,2,0,0,,10,,,69,127
116911,note_off,115,0,0,,10,,,69,127
116913,note_on,2,0,0,,12,,,71,127
117028,note_off,115,0,0,,12,,,71,127
117030,note_on,2,0,0,,1,,,73,127
117145,note_off,115,0,0,,1,,,73,127
117146,note_off,1,0,0,,2,,,50,127
117147,note_on,1,0,0,,2,,,38,127
117147,note_on,0,0,0,,2,,,74,127
117262,note_off,115,0,0,,2,,,74,127
117264,note_on,2,0,0,,10,,,69,127
117379,note_off,115,0,0,,10,,,69,127
117381,note_on,2,0,0,,12,,,71,127
117496,note_off,115,0,0,,12,,,71,127
117498,note_on,2,0,0,,1,,,73,127
117613,note_off,115,0,0,,1,,,73,127
117615,note_on,2,0,0,,2,,,74,127
117730,note_off,115,0,0,,2,,,74,127
117732,note_off,2,0,0,,2,,,38,127
117732,note_on,0,0,0,,4,,,76,127
117847,note_off,115,0,0,,4,,,76,127
117849,note_on,2,0,0,,2,,,62,127
117849,note_on,0,0,0,,6,,,78,127
118082,note_off,233,0,0,,6,,,78,127
118084,note_on,2,0,0,,2,,,74,127
118199,note_off,115,0,0,,2,,,74,127
118201,note_on,2,0,0,,4,,,76,127
118316,note_off,115,0,0,,4,,,76,127
118318,note_on,2,0,0,,6,,,78,127
118433,note_off,115,0,0,,6,,,78,127
118435,note_on,2,0,0,,7,,,79,127
118550,note_off,115,0,0,,7,,,79,127
118551,note_off,1,0,0,,2,,,62,127
118552,note_on,1,0,0,,2,,,50,127
118552,note_on,0,0,0,,10,,,81,127
118785,note_off,233,0,0,,10,,,81,127
118787,note_on,2,0,0,,6,,,78,127
118902,note_off,115,0,0,,6,,,78,127
118904,note_on,2,0,0,,7,,,79,127
119019,note_off,115,0,0,,7,,,79,127
119021,note_on,2,0,0,,10,,,81,127
119136,note_off,115,0,0,,10,,,81,127
119138,note_on,2,0,0,,11,,,82,127
119253,note_off,115,0,0,,11,,,82,127
119254,note_off,1,0,0,,2,,,50,127
119255,note_on,1,0,0,,2,,,38,127
119255,note_on,0,0,0,,2,,,50,127
119255,note_on,0,0,0,,0,,,84,127
119488,note_off,233,0,0,,2,,,50,127
119488,note_off,0,0,0,,2,,,38,127
119490,note_on,2,0,0,,6,,,42,127
119490,note_on,0,0,0,,6,,,54,127
119723,note_off,233,0,0,,6,,,54,127
119723,note_off,0,0,0,,6,,,42,127
119725,note_on,2,0,0,,10,,,45,127
119725,note_on,0,0,0,,10,,,57,127
119958,note_off,233,0,0,,10,,,57,127
119958,note_off,0,0,0,,10,,,45,127
119960,note_on,2,0,0,,2,,,50,127
119960,note_on,0,0,0,,2,,,62,127
120193,note_off,233,0,0,,0,,,84,127
120195,note_on,2,0,0,,11,,,82,127
120425,note_off,230,0,0,,2,,,62,127
120425,note_off,0,0,0,,2,,,50,127
120427,note_off,2,0,0,,11,,,82,127
120429,note_on,2,0,0,,10,,,81,127
120662,note_off,233,0,0,,10,,,81,127
120664,note_on,2,0,0,,7,,,55,127
120664,note_on,0,0,0,,7,,,43,127
120664,note_on,0,0,0,,11,,,82,127
120897,note_off,233,0,0,,7,,,43,127
120897,note_off,0,0,0,,7,,,55,127
120899,note_on,2,0,0,,11,,,58,127
120899,note_on,0,0,0,,11,,,46,127
121132,note_off,233,0,0,,11,,,46,127
121132,note_off,0,0,0,,11,,,58,127
121134,note_on,2,0,0,,2,,,50,127
121134,note_on,0,0,0,,2,,,62,127
121367,note_off,233,0,0,,2,,,62,127
121367,note_off,0,0,0,,2,,,50,127
121367,note_off,0,0,0,,11,,,82,127
121369,note_on,2,0,0,,7,,,55,127
121369,note_on,0,0,0,,7,,,67,127
121369,note_on,0,0,0,,11,,,82,127
121602,note_off,233,0,0,,7,,,67,127
121602,note_off,0,0,0,,7,,,55,127
121604,note_on,2,0,0,,11,,,70,127
121604,note_on,0,0,0,,11,,,58,127
121837,note_off,233,0,0,,11,,,58,127
121837,note_off,0,0,0,,11,,,70,127
121839,note_on,2,0,0,,2,,,74,127
121839,note_on,0,0,0,,2,,,62,127
122072,note_off,233,0,0,,2,,,62,127
122072,note_off,0,0,0,,2,,,74,127
122074,note_on,2,0,0,,7,,,79,127
122074,note_on,0,0,0,,7,,,67,127
122307,note_off,233,0,0,,11,,,82,127
122309,note_on,2,0,0,,0,,,84,127
122539,note_off,230,0,0,,7,,,67,127
122539,note_off,0,0,0,,7,,,79,127
122541,note_off,2,0,0,,0,,,84,127
122543,note_on,2,0,0,,2,,,86,127
122776,note_off,233,0,0,,2,,,86,127
122778,note_on,2,0,0,,2,,,86,127
123011,note_off,233,0,0,,2,,,86,127
123013,note_on,2,0,0,,0,,,84,127
123246,note_off,233,0,0,,0,,,84,127
123248,note_on,2,0,0,,11,,,82,127
123481,note_off,233,0,0,,11,,,82,127
123483,note_on,2,0,0,,5,,,53,127
123483,note_on,0,0,0,,5,,,41,127
123483,note_on,0,0,0,,10,,,81,127
123716,note_off,233,0,0,,5,,,41,127
123716,note_off,0,0,0,,5,,,53,127
123718,note_on,2,0,0,,10,,,45,127
123718,note_on,0,0,0,,10,,,57,127
123951,note_off,233,0,0,,10,,,57,127
123951,note_off,0,0,0,,10,,,45,127
123953,note_on,2,0,0,,2,,,50,127
123953,note_on,0,0,0,,2,,,62,127
124186,note_off,233,0,0,,2,,,62,127
124186,note_off,0,0,0,,2,,,50,127
124186,note_off,0,0,0,,10,,,81,127
124188,note_on,2,0,0,,5,,,53,127
124188,note_on,0,0,0,,5,,,65,127
124188,note_on,0,0,0,,10,,,81,127
124421,note_off,233,0,0,,5,,,65,127
124421,note_off,0,0,0,,5,,,53,127
124423,note_on,2,0,0,,10,,,57,127
124423,note_on,0,0,0,,10,,,69,127
124656,note_off,233,0,0,,10,,,69,127
124656,note_off,0,0,0,,10,,,57,127
124658,note_on,2,0,0,,2,,,62,127
124658,note_on,0,0,0,,2,,,74,127
124891,note_off,233,0,0,,2,,,74,127
124891,note_off,0,0,0,,2,,,62,127
124893,note_on,2,0,0,,5,,,77,127
124893,note_on,0,0,0,,5,,,65,127
125126,note_off,233,0,0,,10,,,81,127
125128,note_on,2,0,0,,11,,,82,127
125358,note_off,230,0,0,,5,,,65,127
125358,note_off,0,0,0,,5,,,77,127
125360,note_off,2,0,0,,11,,,82,127
125362,note_on,2,0,0,,0,,,84,127
125595,note_off,233,0,0,,0,,,84,127
125597,note_on,2,0,0,,0,,,84,127
125830,note_off,233,0,0,,0,,,84,127
125832,note_on,2,0,0,,11,,,82,127
126065,note_off,233,0,0,,11,,,82,127
126067,note_on,2,0,0,,10,,,81,127
126300,note_off,233,0,0,,10,,,81,127
126302,note_on,2,0,0,,3,,,51,127
126302,note_on,0,0,0,,3,,,39,127
126302,note_on,0,0,0,,7,,,79,127
126535,note_off,233,0,0,,3,,,39,127
126535,note_off,0,0,0,,3,,,51,127
126537,note_on,2,0,0,,7,,,55,127
126537,note_on,0,0,0,,7,,,43,127
126770,note_off,233,0,0,,7,,,43,127
126770,note_off,0,0,0,,7,,,55,127
126772,note_on,2,0,0,,0,,,48,127
126772,note_on,0,0,0,,0,,,60,127
127005,note_off,233,0,0,,0,,,60,127
127005,note_off,0,0,0,,0,,,48,127
127006,note_off,1,0,0,,7,,,79,127
127007,note_on,1,0,0,,3,,,63,127
127007,note_on,0,0,0,,3,,,51,127
127007,note_on,0,0,0,,7,,,79,127
127240,note_off,233,0,0,,3,,,51,127
127240,note_off,0,0,0,,3,,,63,127
127242,note_on,2,0,0,,7,,,67,127
127242,note_on,0,0,0,,7,,,55,127
127475,note_off,233,0,0,,7,,,55,127
127475,note_off,0,0,0,,7,,,67,127
127477,note_on,2,0,0,,0,,,60,127
127477,note_on,0,0,0,,0,,,72,127
127710,note_off,233,0,0,,0,,,72,127
127710,note_off,0,0,0,,0,,,60,127
127712,note_on,2,0,0,,3,,,63,127
127712,note_on,0,0,0,,3,,,75,127
127946,note_off,234,0,0,,7,,,79,127
127947,note_on,1,0,0,,10,,,81,127
128177,note_off,230,0,0,,3,,,75,127
128177,note_off,0,0,0,,3,,,63,127
128179,note_off,2,0,0,,10,,,81,127
128181,note_on,2,0,0,,11,,,82,127
128414,note_off,233,0,0,,11,,,82,127
128416,note_on,2,0,0,,11,,,82,127
128649,note_off,233,0,0,,11,,,82,127
128651,note_on,2,0,0,,10,,,81,127
128884,note_off,233,0,0,,10,,,81,127
128886,note_on,2,0,0,,7,,,79,127
129119,note_off,233,0,0,,7,,,79,127
129121,note_on,2,0,0,,2,,,62,127
129121,note_on,0,0,0,,6,,,78,127
129354,note_off,233,0,0,,6,,,78,127
129356,note_on,2,0,0,,2,,,74,127
129589,note_off,233,0,0,,2,,,74,127
129591,note_on,2,0,0,,2,,,74,127
129709,note_off,118,0,0,,2,,,62,127
129824,note_off,115,0,0,,2,,,74,127
129826,note_on,2,0,0,,7,,,55,127
129826,note_on,0,0,0,,2,,,74,127
130059,note_off,233,0,0,,2,,,74,127
130061,note_on,2,0,0,,11,,,82,127
130294,note_off,233,0,0,,11,,,82,127
130296,note_on,2,0,0,,11,,,82,127
130414,note_off,118,0,0,,7,,,55,127
130529,note_off,115,0,0,,11,,,82,127
130531,note_on,2,0,0,,6,,,54,127
130531,note_on,0,0,0,,10,,,81,127
130764,note_off,233,0,0,,10,,,81,127
130766,note_on,2,0,0,,0,,,84,127
130881,note_off,115,0,0,,0,,,84,127
130883,note_on,2,0,0,,11,,,82,127
130996,note_off,113,0,0,,6,,,54,127
130998,note_off,2,0,0,,11,,,82,127
131000,note_on,2,0,0,,10,,,81,127
131233,note_off,233,0,0,,10,,,81,127
131235,note_on,2,0,0,,7,,,55,127
131470,note_on,235,0,0,,11,,,82,127
131585,note_off,115,0,0,,11,,,82,127
131587,note_on,2,0,0,,10,,,81,127
131700,note_off,113,0,0,,7,,,55,127
131702,note_off,2,0,0,,10,,,81,127
131704,note_on,2,0,0,,7,,,79,127
131937,note_off,233,0,0,,7,,,79,127
131939,note_on,2,0,0,,2,,,62,127
132174,note_on,235,0,0,,0,,,72,127
132289,note_off,115,0,0,,0,,,72,127
132291,note_on,2,0,0,,11,,,70,127
132404,note_off,113,0,0,,2,,,62,127
132406,note_off,2,0,0,,11,,,70,127
132408,note_on,2,0,0,,10,,,69,127
132641,note_off,233,0,0,,10,,,69,127
132643,note_on,2,0,0,,7,,,55,127
132878,note_on,235,0,0,,11,,,70,127
132993,note_off,115,0,0,,11,,,70,127
132995,note_on,2,0,0,,10,,,69,127
133108,note_off,113,0,0,,7,,,55,127
133110,note_off,2,0,0,,10,,,69,127
133112,note_on,2,0,0,,7,,,67,127
133345,note_off,233,0,0,,7,,,67,127
133347,note_on,2,0,0,,2,,,62,127
133582,note_on,235,0,0,,0,,,72,127
133697,note_off,115,0,0,,0,,,72,127
133699,note_on,2,0,0,,11,,,70,127
133812,note_off,113,0,0,,2,,,62,127
133814,note_off,2,0,0,,11,,,70,127
133816,note_on,2,0,0,,10,,,69,127
134049,note_off,233,0,0,,10,,,69,127
134051,note_on,2,0,0,,7,,,43,127
134051,note_on,0,0,0,,7,,,67,127
134284,note_off,233,0,0,,7,,,67,127
134286,note_on,2,0,0,,11,,,58,127
134519,note_off,233,0,0,,11,,,58,127
134521,note_on,2,0,0,,2,,,62,127
134749,note_off,228,0,0,,7,,,43,127
134754,note_off,5,0,0,,2,,,62,127
134756,note_on,2,0,0,,7,,,43,127
134756,note_on,0,0,0,,7,,,67,127
134989,note_off,233,0,0,,7,,,67,127
134991,note_on,2,0,0,,11,,,58,127
135224,note_off,233,0,0,,11,,,58,127
135226,note_on,2,0,0,,2,,,62,127
135454,note_off,228,0,0,,7,,,43,127
135459,note_off,5,0,0,,2,,,62,127
135461,note_on,2,0,0,,7,,,43,127
135461,note_on,0,0,0,,11,,,70,127
135694,note_off,233,0,0,,11,,,70,127
135696,note_on,2,0,0,,11,,,58,127
135929,note_off,233,0,0,,11,,,58,127
135931,note_on,2,0,0,,2,,,62,127
136159,note_off,228,0,0,,7,,,43,127
136164,note_off,5,0,0,,2,,,62,127
136166,note_on,2,0,0,,7,,,43,127
136166,note_on,0,0,0,,2,,,74,127
136399,note_off,233,0,0,,2,,,74,127
136401,note_on,2,0,0,,11,,,58,127
136634,note_off,233,0,0,,11,,,58,127
136636,note_on,2,0,0,,2,,,62,127
136864,note_off,228,0,0,,7,,,43,127
136869,note_off,5,0,0,,2,,,62,127
136871,note_on,2,0,0,,7,,,43,127
136871,note_on,0,0,0,,7,,,79,127
137104,note_off,233,0,0,,7,,,43,127
137106,note_on,2,0,0,,7,,,55,127
137221,note_off,115,0,0,,7,,,55,127
137223,note_on,2,0,0,,10,,,57,127
137336,note_off,113,0,0,,7,,,79,127
137338,note_off,2,0,0,,10,,,57,127
137340,note_on,2,0,0,,11,,,58,127
137573,note_off,233,0,0,,11,,,58,127
137575,note_on,2,0,0,,2,,,62,127
137810,note_on,235,0,0,,7,,,55,127
137925,note_off,115,0,0,,7,,,55,127
137927,note_on,2,0,0,,10,,,57,127
138040,note_off,113,0,0,,2,,,62,127
138042,note_off,2,0,0,,10,,,57,127
138044,note_on,2,0,0,,11,,,58,127
138277,note_off,233,0,0,,11,,,58,127
138279,note_on,2,0,0,,7,,,67,127
138514,note_on,235,0,0,,11,,,58,127
138629,note_off,115,0,0,,11,,,58,127
138631,note_on,2,0,0,,0,,,60,127
138744,note_off,113,0,0,,7,,,67,127
138746,note_off,2,0,0,,0,,,60,127
138748,note_on,2,0,0,,2,,,62,127
138981,note_off,233,0,0,,2,,,62,127
138983,note_on,2,0,0,,11,,,70,127
138983,note_on,0,0,0,,2,,,74,127
139216,note_off,233,0,0,,2,,,74,127
139216,note_off,0,0,0,,11,,,70,127
139218,note_on,2,0,0,,0,,,72,127
139218,note_on,0,0,0,,10,,,69,127
139451,note_off,233,0,0,,10,,,69,127
139451,note_off,0,0,0,,0,,,72,127
139453,note_on,2,0,0,,7,,,67,127
139453,note_on,0,0,0,,11,,,70,127
139686,note_off,233,0,0,,11,,,70,127
139686,note_off,0,0,0,,7,,,67,127
139688,note_on,2,0,0,,0,,,72,127
139688,note_on,0,0,0,,10,,,69,127
139923,note_on,235,0,0,,10,,,57,127
140038,note_off,115,0,0,,10,,,57,127
140040,note_on,2,0,0,,11,,,58,127
140153,note_off,113,0,0,,10,,,69,127
140153,note_off,0,0,0,,0,,,72,127
140155,note_off,2,0,0,,11,,,58,127
140157,note_on,2,0,0,,0,,,60,127
140390,note_off,233,0,0,,0,,,60,127
140392,note_on,2,0,0,,6,,,66,127
140627,note_on,235,0,0,,10,,,57,127
140742,note_off,115,0,0,,10,,,57,127
140744,note_on,2,0,0,,11,,,58,127
140857,note_off,113,0,0,,6,,,66,127
140859,note_off,2,0,0,,11,,,58,127
140861,note_on,2,0,0,,0,,,60,127
141094,note_off,233,0,0,,0,,,60,127
141096,note_on,2,0,0,,10,,,69,127
141331,note_on,235,0,0,,10,,,57,127
141446,note_off,115,0,0,,10,,,57,127
141448,note_on,2,0,0,,11,,,58,127
141561,note_off,113,0,0,,10,,,69,127
141563,note_off,2,0,0,,11,,,58,127
141565,note_on,2,0,0,,0,,,60,127
141798,note_off,233,0,0,,0,,,60,127
141800,note_on,2,0,0,,2,,,62,127
141800,note_on,0,0,0,,0,,,72,127
142033,note_off,233,0,0,,0,,,72,127
142033,note_off,0,0,0,,2,,,62,127
142035,note_on,2,0,0,,4,,,64,127
142035,note_on,0,0,0,,11,,,70,127
142268,note_off,233,0,0,,11,,,70,127
142268,note_off,0,0,0,,4,,,64,127
142270,note_on,2,0,0,,6,,,66,127
142270,note_on,0,0,0,,10,,,69,127
142503,note_off,233,0,0,,10,,,69,127
142503,note_off,0,0,0,,6,,,66,127
142505,note_on,2,0,0,,11,,,70,127
142505,note_on,0,0,0,,7,,,67,127
142738,note_off,233,0,0,,11,,,70,127
142740,note_on,2,0,0,,7,,,79,127
142970,note_off,230,0,0,,7,,,67,127
142972,note_off,2,0,0,,7,,,79,127
142974,note_on,2,0,0,,6,,,78,127
143207,note_off,233,0,0,,6,,,78,127
143209,note_on,2,0,0,,7,,,55,127
143209,note_on,0,0,0,,7,,,79,127
143442,note_off,233,0,0,,7,,,79,127
143444,note_on,2,0,0,,7,,,79,127
143677,note_off,233,0,0,,7,,,79,127
143679,note_on,2,0,0,,5,,,77,127
143797,note_off,118,0,0,,7,,,55,127
143912,note_off,115,0,0,,5,,,77,127
143914,note_on,2,0,0,,7,,,67,127
143914,note_on,0,0,0,,3,,,75,127
144147,note_off,233,0,0,,3,,,75,127
144149,note_on,2,0,0,,7,,,79,127
144382,note_off,233,0,0,,7,,,79,127
144384,note_on,2,0,0,,5,,,77,127
144600,note_off,216,0,0,,7,,,67,127
144617,note_off,17,0,0,,5,,,77,127
144619,note_on,2,0,0,,7,,,67,127
144619,note_on,0,0,0,,3,,,75,127
144852,note_off,233,0,0,,3,,,75,127
144854,note_on,2,0,0,,3,,,75,127
145087,note_off,233,0,0,,3,,,75,127
145089,note_on,2,0,0,,2,,,74,127
145207,note_off,118,0,0,,7,,,67,127
145322,note_off,115,0,0,,2,,,74,127
145324,note_on,2,0,0,,7,,,67,127
145324,note_on,0,0,0,,1,,,73,127
145557,note_off,233,0,0,,1,,,73,127
145559,note_on,2,0,0,,10,,,81,127
145792,note_off,233,0,0,,10,,,81,127
145794,note_on,2,0,0,,10,,,81,127
145912,note_off,118,0,0,,7,,,67,127
146027,note_off,115,0,0,,10,,,81,127
146029,note_on,2,0,0,,7,,,67,127
146029,note_on,0,0,0,,1,,,73,127
146262,note_off,233,0,0,,1,,,73,127
146264,note_on,2,0,0,,10,,,81,127
146497,note_off,233,0,0,,10,,,81,127
146499,note_on,2,0,0,,10,,,81,127
146617,note_off,118,0,0,,7,,,67,127
146732,note_off,115,0,0,,10,,,81,127
146734,note_on,2,0,0,,5,,,65,127
146734,note_on,0,0,0,,2,,,74,127
146967,note_off,233,0,0,,2,,,74,127
146969,note_on,2,0,0,,5,,,77,127
147202,note_off,233,0,0,,5,,,77,127
147204,note_on,2,0,0,,3,,,75,127
147420,note_off,216,0,0,,5,,,65,127
147437,note_off,17,0,0,,3,,,75,127
147439,note_on,2,0,0,,5,,,65,127
147439,note_on,0,0,0,,2,,,74,127
147672,note_off,233,0,0,,2,,,74,127
147674,note_on,2,0,0,,2,,,74,127
147907,note_off,233,0,0,,2,,,74,127
147909,note_on,2,0,0,,0,,,72,127
148027,note_off,118,0,0,,5,,,65,127
148142,note_off,115,0,0,,0,,,72,127
148144,note_on,2,0,0,,5,,,65,127
148144,note_on,0,0,0,,12,,,71,127
148377,note_off,233,0,0,,12,,,71,127
148379,note_on,2,0,0,,7,,,79,127
148612,note_off,233,0,0,,7,,,79,127
148614,note_on,2,0,0,,7,,,79,127
148732,note_off,118,0,0,,5,,,65,127
148847,note_off,115,0,0,,7,,,79,127
148849,note_on,2,0,0,,5,,,65,127
148849,note_on,0,0,0,,12,,,71,127
149082,note_off,233,0,0,,12,,,71,127
149084,note_on,2,0,0,,7,,,79,127
149317,note_off,233,0,0,,7,,,79,127
149319,note_on,2,0,0,,7,,,79,127
149437,note_off,118,0,0,,5,,,65,127
149552,note_off,115,0,0,,7,,,79,127
149554,note_on,2,0,0,,4,,,64,127
149554,note_on,0,0,0,,0,,,72,127
149787,note_off,233,0,0,,0,,,72,127
149789,note_on,2,0,0,,0,,,72,127
150022,note_off,233,0,0,,0,,,72,127
150024,note_on,2,0,0,,11,,,70,127
150215,note_off,191,0,0,,4,,,64,127
150257,note_off,42,0,0,,11,,,70,127
150259,note_on,2,0,0,,0,,,60,127
150259,note_on,0,0,0,,8,,,68,127
150492,note_off,233,0,0,,8,,,68,127
150494,note_on,2,0,0,,0,,,72,127
150727,note_off,233,0,0,,0,,,72,127
150729,note_on,2,0,0,,7,,,67,127
150847,note_off,118,0,0,,0,,,60,127
150962,note_off,115,0,0,,7,,,67,127
150964,note_on,2,0,0,,2,,,62,127
150964,note_on,0,0,0,,6,,,66,127
151197,note_off,233,0,0,,6,,,66,127
151199,note_on,2,0,0,,4,,,64,127
151429,note_off,230,0,0,,2,,,62,127
151431,note_off,2,0,0,,4,,,64,127
151433,note_on,2,0,0,,2,,,62,127
151666,note_off,233,0,0,,2,,,62,127
151668,note_on,2,0,0,,6,,,66,127
151668,note_on,0,0,0,,10,,,69,127
151901,note_off,233,0,0,,10,,,69,127
151901,note_off,0,0,0,,6,,,66,127
151903,note_on,2,0,0,,11,,,70,127
151903,note_on,0,0,0,,7,,,67,127
152136,note_off,233,0,0,,7,,,67,127
152136,note_off,0,0,0,,11,,,70,127
152138,note_on,2,0,0,,10,,,69,127
152138,note_on,0,0,0,,0,,,72,127
152371,note_off,233,0,0,,0,,,72,127
152371,note_off,0,0,0,,10,,,69,127
152373,note_on,2,0,0,,2,,,38,127
152373,note_on,0,0,0,,11,,,70,127
152373,note_on,0,0,0,,2,,,74,127
152606,note_off,233,0,0,,2,,,38,127
152608,note_on,2,0,0,,7,,,43,127
152841,note_off,233,0,0,,7,,,43,127
152843,note_on,2,0,0,,11,,,46,127
153076,note_off,233,0,0,,11,,,46,127
153076,note_off,0,0,0,,2,,,74,127
153076,note_off,0,0,0,,11,,,70,127
153078,note_on,2,0,0,,2,,,50,127
153078,note_on,0,0,0,,11,,,70,127
153078,note_on,0,0,0,,2,,,74,127
153311,note_off,233,0,0,,2,,,74,127
153311,note_off,0,0,0,,11,,,70,127
153311,note_off,0,0,0,,2,,,50,127
153313,note_on,2,0,0,,7,,,55,127
153313,note_on,0,0,0,,10,,,69,127
153313,note_on,0,0,0,,0,,,72,127
153546,note_off,233,0,0,,0,,,72,127
153546,note_off,0,0,0,,10,,,69,127
153546,note_off,0,0,0,,7,,,55,127
153548,note_on,2,0,0,,11,,,58,127
153548,note_on,0,0,0,,11,,,70,127
153548,note_on,0,0,0,,7,,,67,127
153781,note_off,233,0,0,,7,,,67,127
153781,note_off,0,0,0,,11,,,70,127
153781,note_off,0,0,0,,11,,,58,127
153783,note_on,2,0,0,,2,,,38,127
153783,note_on,0,0,0,,10,,,69,127
153783,note_on,0,0,0,,0,,,72,127
154016,note_off,233,0,0,,2,,,38,127
154018,note_on,2,0,0,,6,,,42,127
154251,note_off,233,0,0,,6,,,42,127
154253,note_on,2,0,0,,10,,,45,127
154486,note_off,233,0,0,,10,,,45,127
154486,note_off,0,0,0,,0,,,72,127
154486,note_off,0,0,0,,10,,,69,127
154488,note_on,2,0,0,,2,,,50,127
154488,note_on,0,0,0,,10,,,69,127
154488,note_on,0,0,0,,0,,,72,127
154721,note_off,233,0,0,,0,,,72,127
154721,note_off,0,0,0,,10,,,69,127
154721,note_off,0,0,0,,2,,,50,127
154723,note_on,2,0,0,,6,,,54,127
154723,note_on,0,0,0,,7,,,67,127
154723,note_on,0,0,0,,11,,,70,127
154956,note_off,233,0,0,,11,,,70,127
154956,note_off,0,0,0,,7,,,67,127
154956,note_off,0,0,0,,6,,,54,127
154958,note_on,2,0,0,,10,,,57,127
154958,note_on,0,0,0,,10,,,69,127
154958,note_on,0,0,0,,6,,,66,127
155191,note_off,233,0,0,,6,,,66,127
155191,note_off,0,0,0,,10,,,69,127
155191,note_off,0,0,0,,10,,,57,127
155193,note_on,2,0,0,,7,,,43,127
155193,note_on,0,0,0,,11,,,70,127
155269,note_off,76,0,0,,11,,,70,127
155271,note_on,2,0,0,,10,,,69,127
155347,note_off,76,0,0,,10,,,69,127
155349,note_on,2,0,0,,7,,,67,127
155425,note_off,76,0,0,,7,,,67,127
155427,note_on,2,0,0,,2,,,74,127
155660,note_off,233,0,0,,2,,,74,127
155662,note_on,2,0,0,,7,,,79,127
155780,note_off,118,0,0,,7,,,43,127
155895,note_off,115,0,0,,7,,,79,127
155897,note_on,2,0,0,,7,,,55,127
155897,note_on,0,0,0,,11,,,70,127
155973,note_off,76,0,0,,11,,,70,127
155975,note_on,2,0,0,,10,,,69,127
156051,note_off,76,0,0,,10,,,69,127
156053,note_on,2,0,0,,7,,,67,127
156129,note_off,76,0,0,,7,,,67,127
156131,note_on,2,0,0,,7,,,79,127
156364,note_off,233,0,0,,7,,,79,127
156366,note_on,2,0,0,,11,,,82,127
156484,note_off,118,0,0,,7,,,55,127
156599,note_off,115,0,0,,11,,,82,127
156617,note_on,18,0,0,,0,,,84,127
156617,note_on,0,0,0,,3,,,75,127
156617,note_on,0,0,0,,3,,,63,127
156617,note_on,0,0,0,,3,,,51,127
156850,note_off,233,0,0,,3,,,75,127
156850,note_off,0,0,0,,0,,,84,127
156852,note_on,2,0,0,,2,,,74,127
156852,note_on,0,0,0,,12,,,83,127
157082,note_off,230,0,0,,3,,,51,127
157082,note_off,0,0,0,,3,,,63,127
157084,note_off,2,0,0,,12,,,83,127
157084,note_off,0,0,0,,2,,,74,127
157086,note_on,2,0,0,,0,,,84,127
157086,note_on,0,0,0,,3,,,75,127
157319,note_off,233,0,0,,3,,,75,127
157319,note_off,0,0,0,,0,,,84,127
157321,note_on,2,0,0,,0,,,84,127
157321,note_on,0,0,0,,3,,,75,127
157321,note_on,0,0,0,,0,,,60,127
157321,note_on,0,0,0,,0,,,48,127
157554,note_off,233,0,0,,3,,,75,127
157554,note_off,0,0,0,,0,,,84,127
157556,note_on,2,0,0,,12,,,83,127
157556,note_on,0,0,0,,2,,,74,127
157786,note_off,230,0,0,,0,,,48,127
157786,note_off,0,0,0,,0,,,60,127
157788,note_off,2,0,0,,2,,,74,127
157788,note_off,0,0,0,,12,,,83,127
157790,note_on,2,0,0,,3,,,75,127
157790,note_on,0,0,0,,0,,,84,127
158023,note_off,233,0,0,,0,,,84,127
158023,note_off,0,0,0,,3,,,75,127
158025,note_on,2,0,0,,3,,,75,127
158025,note_on,0,0,0,,0,,,84,127
158025,note_on,0,0,0,,10,,,57,127
158025,note_on,0,0,0,,10,,,45,127
158258,note_off,233,0,0,,0,,,84,127
158260,note_on,2,0,0,,11,,,82,127
158490,note_off,230,0,0,,10,,,45,127
158490,note_off,0,0,0,,10,,,57,127
158490,note_off,0,0,0,,3,,,75,127
158492,note_off,2,0,0,,11,,,82,127
158494,note_on,2,0,0,,10,,,81,127
158727,note_off,233,0,0,,10,,,81,127
158729,note_on,2,0,0,,3,,,75,127
158729,note_on,0,0,0,,10,,,81,127
158729,note_on,0,0,0,,5,,,53,127
158729,note_on,0,0,0,,5,,,41,127
158962,note_off,233,0,0,,10,,,81,127
158964,note_on,2,0,0,,11,,,82,127
159194,note_off,230,0,0,,5,,,41,127
159194,note_off,0,0,0,,5,,,53,127
159194,note_off,0,0,0,,3,,,75,127
159196,note_off,2,0,0,,11,,,82,127
159198,note_on,2,0,0,,0,,,84,127
159431,note_off,233,0,0,,0,,,84,127
159433,note_on,2,0,0,,2,,,74,127
159433,note_on,0,0,0,,11,,,82,127
159433,note_on,0,0,0,,11,,,58,127
159433,note_on,0,0,0,,11,,,46,127
159666,note_off,233,0,0,,11,,,82,127
159666,note_off,0,0,0,,2,,,74,127
159668,note_on,2,0,0,,0,,,72,127
159668,note_on,0,0,0,,10,,,81,127
159898,note_off,230,0,0,,11,,,46,127
159898,note_off,0,0,0,,11,,,58,127
159900,note_off,2,0,0,,10,,,81,127
159900,note_off,0,0,0,,0,,,72,127
159902,note_on,2,0,0,,2,,,74,127
159902,note_on,0,0,0,,11,,,82,127
160135,note_off,233,0,0,,11,,,82,127
160135,note_off,0,0,0,,2,,,74,127
160137,note_on,2,0,0,,11,,,82,127
160137,note_on,0,0,0,,2,,,74,127
160137,note_on,0,0,0,,7,,,43,127
160137,note_on,0,0,0,,7,,,55,127
160370,note_off,233,0,0,,2,,,74,127
160370,note_off,0,0,0,,11,,,82,127
160372,note_on,2,0,0,,10,,,81,127
160372,note_on,0,0,0,,0,,,72,127
160602,note_off,230,0,0,,7,,,55,127
160602,note_off,0,0,0,,7,,,43,127
160604,note_off,2,0,0,,0,,,72,127
160604,note_off,0,0,0,,10,,,81,127
160606,note_on,2,0,0,,2,,,74,127
160606,note_on,0,0,0,,11,,,82,127
160839,note_off,233,0,0,,11,,,82,127
160839,note_off,0,0,0,,2,,,74,127
160841,note_on,2,0,0,,11,,,82,127
160841,note_on,0,0,0,,0,,,72,127
160841,note_on,0,0,0,,3,,,39,127
160841,note_on,0,0,0,,3,,,51,127
161074,note_off,233,0,0,,11,,,82,127
161076,note_on,2,0,0,,10,,,81,127
161306,note_off,230,0,0,,3,,,51,127
161306,note_off,0,0,0,,3,,,39,127
161306,note_off,0,0,0,,0,,,72,127
161308,note_off,2,0,0,,10,,,81,127
161310,note_on,2,0,0,,7,,,79,127
161543,note_off,233,0,0,,7,,,79,127
161545,note_on,2,0,0,,0,,,72,127
161545,note_on,0,0,0,,11,,,82,127
161545,note_on,0,0,0,,0,,,48,127
161545,note_on,0,0,0,,0,,,36,127
161778,note_off,233,0,0,,11,,,82,127
161780,note_on,2,0,0,,10,,,81,127
162010,note_off,230,0,0,,0,,,36,127
162010,note_off,0,0,0,,0,,,48,127
162010,note_off,0,0,0,,0,,,72,127
162012,note_off,2,0,0,,10,,,81,127
162014,note_on,2,0,0,,7,,,79,127
162247,note_off,233,0,0,,7,,,79,127
162249,note_on,2,0,0,,0,,,72,127
162249,note_on,0,0,0,,10,,,81,127
162249,note_on,0,0,0,,10,,,57,127
162249,note_on,0,0,0,,10,,,45,127
162482,note_off,233,0,0,,10,,,81,127
162482,note_off,0,0,0,,0,,,72,127
162484,note_on,2,0,0,,7,,,79,127
162484,note_on,0,0,0,,11,,,70,127
162714,note_off,230,0,0,,10,,,45,127
162714,note_off,0,0,0,,10,,,57,127
162716,note_off,2,0,0,,11,,,70,127
162716,note_off,0,0,0,,7,,,79,127
162718,note_on,2,0,0,,10,,,81,127
162718,note_on,0,0,0,,0,,,72,127
162951,note_off,233,0,0,,0,,,72,127
162951,note_off,0,0,0,,10,,,81,127
162953,note_on,2,0,0,,10,,,81,127
162953,note_on,0,0,0,,0,,,72,127
162953,note_on,0,0,0,,6,,,54,127
162953,note_on,0,0,0,,6,,,42,127
163186,note_off,233,0,0,,0,,,72,127
163186,note_off,0,0,0,,10,,,81,127
163188,note_on,2,0,0,,7,,,79,127
163188,note_on,0,0,0,,11,,,70,127
163418,note_off,230,0,0,,6,,,42,127
163418,note_off,0,0,0,,6,,,54,127
163420,note_off,2,0,0,,11,,,70,127
163420,note_off,0,0,0,,7,,,79,127
163422,note_on,2,0,0,,10,,,81,127
163422,note_on,0,0,0,,0,,,72,127
163655,note_off,233,0,0,,0,,,72,127
163655,note_off,0,0,0,,10,,,81,127
163657,note_on,2,0,0,,10,,,81,127
163657,note_on,0,0,0,,0,,,72,127
163657,note_on,0,0,0,,2,,,38,127
163657,note_on,0,0,0,,2,,,50,127
163890,note_off,233,0,0,,2,,,50,127
163890,note_off,0,0,0,,2,,,38,127
163892,note_on,2,0,0,,6,,,54,127
163892,note_on,0,0,0,,6,,,42,127
164125,note_off,233,0,0,,6,,,42,127
164125,note_off,0,0,0,,6,,,54,127
164127,note_on,2,0,0,,10,,,57,127
164127,note_on,0,0,0,,10,,,45,127
164360,note_off,233,0,0,,10,,,45,127
164360,note_off,0,0,0,,10,,,57,127
164360,note_off,0,0,0,,0,,,72,127
164360,note_off,0,0,0,,10,,,81,127
164362,note_on,2,0,0,,0,,,72,127
164362,note_on,0,0,0,,10,,,81,127
164362,note_on,0,0,0,,2,,,62,127
164362,note_on,0,0,0,,2,,,50,127
164595,note_off,233,0,0,,10,,,81,127
164595,note_off,0,0,0,,0,,,72,127
164597,note_on,2,0,0,,11,,,70,127
164597,note_on,0,0,0,,7,,,79,127
164827,note_off,230,0,0,,2,,,50,127
164827,note_off,0,0,0,,2,,,62,127
164829,note_off,2,0,0,,7,,,79,127
164829,note_off,0,0,0,,11,,,70,127
164831,note_on,2,0,0,,10,,,69,127
164831,note_on,0,0,0,,6,,,78,127
165064,note_off,233,0,0,,6,,,78,127
165064,note_off,0,0,0,,10,,,69,127
165066,note_on,2,0,0,,7,,,79,127
165066,note_on,0,0,0,,11,,,70,127
165066,note_on,0,0,0,,7,,,43,127
165181,note_off,115,0,0,,7,,,43,127
165183,note_on,2,0,0,,11,,,46,127
165298,note_off,115,0,0,,11,,,46,127
165300,note_on,2,0,0,,2,,,50,127
165415,note_off,115,0,0,,2,,,50,127
165417,note_on,2,0,0,,7,,,55,127
165532,note_off,115,0,0,,7,,,55,127
165532,note_off,0,0,0,,11,,,70,127
165532,note_off,0,0,0,,7,,,79,127
165534,note_on,2,0,0,,2,,,74,127
165534,note_on,0,0,0,,11,,,58,127
165767,note_off,233,0,0,,11,,,58,127
165767,note_off,0,0,0,,2,,,74,127
165769,note_on,2,0,0,,0,,,72,127
165769,note_on,0,0,0,,10,,,57,127
166002,note_off,233,0,0,,10,,,57,127
166002,note_off,0,0,0,,0,,,72,127
166004,note_on,2,0,0,,11,,,70,127
166004,note_on,0,0,0,,7,,,55,127
166237,note_off,233,0,0,,7,,,55,127
166237,note_off,0,0,0,,11,,,70,127
166239,note_on,2,0,0,,10,,,69,127
166239,note_on,0,0,0,,6,,,54,127
166435,note_off,196,0,0,,10,,,69,127
166472,note_off,37,0,0,,6,,,54,127
166474,note_on,2,0,0,,7,,,79,127
166474,note_on,0,0,0,,11,,,70,127
166474,note_on,0,0,0,,7,,,43,127
166589,note_off,115,0,0,,7,,,43,127
166591,note_on,2,0,0,,11,,,46,127
166706,note_off,115,0,0,,11,,,46,127
166708,note_on,2,0,0,,2,,,50,127
166823,note_off,115,0,0,,2,,,50,127
166825,note_on,2,0,0,,7,,,55,127
166940,note_off,115,0,0,,7,,,55,127
166940,note_off,0,0,0,,11,,,70,127
166940,note_off,0,0,0,,7,,,79,127
166942,note_on,2,0,0,,2,,,74,127
166942,note_on,0,0,0,,11,,,58,127
167175,note_off,233,0,0,,11,,,58,127
167175,note_off,0,0,0,,2,,,74,127
167177,note_on,2,0,0,,0,,,72,127
167177,note_on,0,0,0,,10,,,57,127
167410,note_off,233,0,0,,10,,,57,127
167410,note_off,0,0,0,,0,,,72,127
167412,note_on,2,0,0,,11,,,70,127
167412,note_on,0,0,0,,7,,,55,127
167645,note_off,233,0,0,,7,,,55,127
167645,note_off,0,0,0,,11,,,70,127
167647,note_on,2,0,0,,10,,,69,127
167647,note_on,0,0,0,,6,,,54,127
167880,note_off,233,0,0,,6,,,54,127
167880,note_off,0,0,0,,10,,,69,127
167882,note_on,2,0,0,,7,,,67,127
167882,note_on,0,0,0,,7,,,43,127
167997,note_off,115,0,0,,7,,,43,127
167997,note_off,0,0,0,,7,,,67,127
167999,note_on,2,0,0,,7,,,55,127
168109,note_off,110,0,0,,7,,,55,127
168116,note_on,7,0,0,,7,,,55,127
168231,note_off,115,0,0,,7,,,55,127
168233,note_on,2,0,0,,2,,,62,127
168348,note_off,115,0,0,,2,,,62,127
168350,note_on,2,0,0,,2,,,62,127
168465,note_off,115,0,0,,2,,,62,127
168467,note_on,2,0,0,,7,,,67,127
168577,note_off,110,0,0,,7,,,67,127
168584,note_on,7,0,0,,7,,,67,127
168699,note_off,115,0,0,,7,,,67,127
168701,note_on,2,0,0,,11,,,70,127
168811,note_off,110,0,0,,11,,,70,127
168818,note_on,7,0,0,,11,,,70,127
168933,note_off,115,0,0,,11,,,70,127
168935,note_on,2,0,0,,2,,,74,127
169045,note_off,110,0,0,,2,,,74,127
169052,note_on,7,0,0,,2,,,74,127
169167,note_off,115,0,0,,2,,,74,127
169169,note_on,2,0,0,,7,,,79,127
169279,note_off,110,0,0,,7,,,79,127
169286,note_on,7,0,0,,3,,,75,127
169286,note_on,0,0,0,,7,,,79,127
169519,note_off,233,0,0,,7,,,79,127
169519,note_off,0,0,0,,3,,,75,127
169521,note_on,2,0,0,,5,,,77,127
169521,note_on,0,0,0,,2,,,74,127
169754,note_off,233,0,0,,2,,,74,127
169754,note_off,0,0,0,,5,,,77,127
169756,note_on,2,0,0,,0,,,72,127
169756,note_on,0,0,0,,3,,,75,127
169989,note_off,233,0,0,,3,,,75,127
169989,note_off,0,0,0,,0,,,72,127
169991,note_on,2,0,0,,2,,,74,127
169991,note_on,0,0,0,,11,,,70,127
170224,note_off,233,0,0,,11,,,70,127
170224,note_off,0,0,0,,2,,,74,127
170226,note_on,2,0,0,,10,,,69,127
170226,note_on,0,0,0,,0,,,72,127
170459,note_off,233,0,0,,0,,,72,127
170459,note_off,0,0,0,,10,,,69,127
170461,note_on,2,0,0,,11,,,70,127
170461,note_on,0,0,0,,7,,,67,127
170694,note_off,233,0,0,,7,,,67,127
170694,note_off,0,0,0,,11,,,70,127
170696,note_on,2,0,0,,0,,,72,127
170696,note_on,0,0,0,,0,,,60,127
170811,note_off,115,0,0,,0,,,72,127
170813,note_on,2,0,0,,3,,,75,127
170928,note_off,115,0,0,,3,,,75,127
170928,note_off,0,0,0,,0,,,60,127
170930,note_on,2,0,0,,2,,,74,127
170930,note_on,0,0,0,,2,,,62,127
171045,note_off,115,0,0,,2,,,74,127
171047,note_on,2,0,0,,0,,,72,127
171162,note_off,115,0,0,,0,,,72,127
171162,note_off,0,0,0,,2,,,62,127
171164,note_on,2,0,0,,11,,,70,127
171164,note_on,0,0,0,,2,,,50,127
171279,note_off,115,0,0,,11,,,70,127
171281,note_on,2,0,0,,10,,,69,127
171396,note_off,115,0,0,,10,,,69,127
171396,note_off,0,0,0,,2,,,50,127
171414,note_on,18,0,0,,7,,,55,127
171414,note_on,0,0,0,,7,,,79,127
171529,note_off,115,0,0,,7,,,79,127
171531,note_on,2,0,0,,2,,,74,127
171646,note_off,115,0,0,,2,,,74,127
171648,note_on,2,0,0,,11,,,70,127
171763,note_off,115,0,0,,11,,,70,127
171765,note_on,2,0,0,,7,,,67,127
171880,note_off,115,0,0,,7,,,55,127
171881,note_off,1,0,0,,7,,,67,127
171882,note_on,1,0,0,,7,,,43,127
172115,note_off,233,0,0,,7,,,43,127
172117,note_on,2,0,0,,2,,,74,127
172232,note_off,115,0,0,,2,,,74,127
172234,note_on,2,0,0,,11,,,70,127
172349,note_off,115,0,0,,11,,,70,127
172351,note_on,2,0,0,,7,,,67,127
172466,note_off,115,0,0,,7,,,67,127
172468,note_on,2,0,0,,2,,,62,127
172584,note_off,116,0,0,,2,,,62,127
172585,note_on,1,0,0,,7,,,43,127
172585,note_on,0,0,0,,7,,,55,127
172818,note_off,233,0,0,,7,,,55,127
172818,note_off,0,0,0,,7,,,43,127
172820,note_on,2,0,0,,7,,,67,127
172935,note_off,115,0,0,,7,,,67,127
172937,note_on,2,0,0,,2,,,62,127
173052,note_off,115,0,0,,2,,,62,127
173054,note_on,2,0,0,,11,,,58,127
173169,note_off,115,0,0,,11,,,58,127
173171,note_on,2,0,0,,7,,,55,127
173287,note_off,116,0,0,,7,,,55,127
173288,note_on,1,0,0,,7,,,43,127
173288,note_on,0,0,0,,7,,,55,127
173521,note_off,233,0,0,,7,,,55,127
173521,note_off,0,0,0,,7,,,43,127
173555,note_on,34,0,0,,11,,,46,127
173555,note_on,0,0,0,,11,,,58,127
173555,note_on,0,0,0,,11,,,70,127
173788,note_off,233,0,0,,11,,,70,127
173788,note_off,0,0,0,,11,,,58,127
173788,note_off,0,0,0,,11,,,46,127
173806,note_on,18,0,0,,0,,,72,127
173806,note_on,0,0,0,,0,,,60,127
173806,note_on,0,0,0,,0,,,48,127
174039,note_off,233,0,0,,0,,,48,127
174039,note_off,0,0,0,,0,,,60,127
174039,note_off,0,0,0,,0,,,72,127
174057,note_on,18,0,0,,2,,,62,127
174057,note_on,0,0,0,,2,,,50,127
174057,note_on,0,0,0,,2,,,74,127
174290,note_off,233,0,0,,2,,,62,127
174317,note_off,27,0,0,,2,,,74,127
174317,note_off,0,0,0,,2,,,50,127
174356,note_on,39,0,0,,7,,,43,127
174356,note_on,0,0,0,,7,,,55,127
174356,note_on,0,0,0,,7,,,67,127
175756,note_off,1400,0,0,,7,,,67,127
175756,note_off,0,0,0,,7,,,55,127
175756,note_off,0,0,0,,7,,,43,127
179712,end_of_track,3956,1,0,,,,,,
