tick,type,time,meta,track,program,channel,pitch,tempo,note,velocity
0,copyright,0,1,0,,,,,,
0,program_change,0,0,0,6,0,,,,
0,pitchwheel,0,0,0,,0,0,,,
0,program_change,0,0,0,6,1,,,,
0,pitchwheel,0,0,0,,1,-590,,,
0,program_change,0,0,0,6,2,,,,
0,pitchwheel,0,0,0,,2,-272,,,
0,program_change,0,0,0,6,3,,,,
0,pitchwheel,0,0,0,,3,-353,,,
0,program_change,0,0,0,6,4,,,,
0,pitchwheel,0,0,0,,4,-560,,,
0,program_change,0,0,0,6,5,,,,
0,pitchwheel,0,0,0,,5,-80,,,
0,program_change,0,0,0,6,6,,,,
0,pitchwheel,0,0,0,,6,-625,,,
0,program_change,0,0,0,6,7,,,,
0,pitchwheel,0,0,0,,7,-130,,,
0,program_change,0,0,0,6,8,,,,
0,pitchwheel,0,0,0,,8,-512,,,
0,program_change,0,0,0,6,10,,,,
0,pitchwheel,0,0,0,,10,-464,,,
0,program_change,0,0,0,6,11,,,,
0,pitchwheel,0,0,0,,11,-208,,,
0,program_change,0,0,0,6,12,,,,
0,pitchwheel,0,0,0,,12,-553,,,
0,set_tempo,0,1,0,,,,500000,,
105,note_on,105,0,0,,4,,,64,127
105,note_on,0,0,0,,7,,,67,127
105,note_on,0,0,0,,4,,,76,127
306,note_off,201,0,0,,7,,,67,127
306,note_off,0,0,0,,4,,,64,127
315,note_on,9,0,0,,7,,,67,127
315,note_on,0,0,0,,4,,,64,127
516,note_off,201,0,0,,4,,,64,127
516,note_off,0,0,0,,7,,,67,127
525,note_on,9,0,0,,7,,,67,127
525,note_on,0,0,0,,4,,,64,127
726,note_off,201,0,0,,4,,,64,127
726,note_off,0,0,0,,7,,,67,127
734,note_off,8,0,0,,4,,,76,127
735,note_on,1,0,0,,7,,,67,127
735,note_on,0,0,0,,4,,,64,127
735,note_on,0,0,0,,7,,,79,127
839,note_off,104,0,0,,7,,,79,127
840,note_on,1,0,0,,3,,,75,127
944,note_off,104,0,0,,3,,,75,127
944,note_off,0,0,0,,4,,,64,127
944,note_off,0,0,0,,7,,,67,127
945,note_on,1,0,0,,7,,,67,127
945,note_on,0,0,0,,4,,,64,127
945,note_on,0,0,0,,4,,,76,127
1049,note_off,104,0,0,,4,,,76,127
1050,note_on,1,0,0,,12,,,71,127
1154,note_off,104,0,0,,12,,,71,127
1154,note_off,0,0,0,,4,,,64,127
1154,note_off,0,0,0,,7,,,67,127
1155,note_on,1,0,0,,4,,,64,127
1155,note_on,0,0,0,,0,,,72,127
1259,note_off,104,0,0,,0,,,72,127
1260,note_on,1,0,0,,11,,,70,127
1364,note_off,104,0,0,,11,,,70,127
1364,note_off,0,0,0,,4,,,64,127
1365,note_on,1,0,0,,6,,,66,127
1365,note_on,0,0,0,,3,,,63,127
1365,note_on,0,0,0,,11,,,70,127
1573,note_off,208,0,0,,11,,,70,127
1573,note_off,0,0,0,,3,,,63,127
1573,note_off,0,0,0,,6,,,66,127
1574,note_on,1,0,0,,3,,,63,127
1574,note_on,0,0,0,,6,,,66,127
1574,note_on,0,0,0,,12,,,71,127
1782,note_off,208,0,0,,6,,,66,127
1782,note_off,0,0,0,,3,,,63,127
1783,note_on,1,0,0,,6,,,66,127
1783,note_on,0,0,0,,3,,,63,127
1944,note_off,161,0,0,,12,,,71,127
1991,note_off,47,0,0,,3,,,63,127
1991,note_off,0,0,0,,6,,,66,127
1992,note_on,1,0,0,,4,,,64,127
1992,note_on,0,0,0,,7,,,67,127
1992,note_on,0,0,0,,7,,,79,127
2096,note_off,104,0,0,,7,,,79,127
2097,note_on,1,0,0,,3,,,75,127
2201,note_off,104,0,0,,3,,,75,127
2201,note_off,0,0,0,,7,,,67,127
2201,note_off,0,0,0,,4,,,64,127
2202,note_on,1,0,0,,7,,,67,127
2202,note_on,0,0,0,,4,,,64,127
2202,note_on,0,0,0,,4,,,76,127
2306,note_off,104,0,0,,4,,,76,127
2307,note_on,1,0,0,,12,,,71,127
2411,note_off,104,0,0,,12,,,71,127
2411,note_off,0,0,0,,4,,,64,127
2411,note_off,0,0,0,,7,,,67,127
2412,note_on,1,0,0,,4,,,64,127
2412,note_on,0,0,0,,0,,,72,127
2516,note_off,104,0,0,,0,,,72,127
2517,note_on,1,0,0,,11,,,70,127
2621,note_off,104,0,0,,11,,,70,127
2621,note_off,0,0,0,,4,,,64,127
2622,note_on,1,0,0,,6,,,66,127
2622,note_on,0,0,0,,3,,,63,127
2622,note_on,0,0,0,,11,,,70,127
2830,note_off,208,0,0,,11,,,70,127
2830,note_off,0,0,0,,3,,,63,127
2830,note_off,0,0,0,,6,,,66,127
2831,note_on,1,0,0,,6,,,66,127
2831,note_on,0,0,0,,3,,,63,127
2831,note_on,0,0,0,,12,,,71,127
3039,note_off,208,0,0,,3,,,63,127
3039,note_off,0,0,0,,6,,,66,127
3040,note_on,1,0,0,,3,,,63,127
3040,note_on,0,0,0,,6,,,66,127
3201,note_off,161,0,0,,12,,,71,127
3248,note_off,47,0,0,,6,,,66,127
3248,note_off,0,0,0,,3,,,63,127
3249,note_on,1,0,0,,7,,,67,127
3249,note_on,0,0,0,,4,,,64,127
3249,note_on,0,0,0,,12,,,83,127
3353,note_off,104,0,0,,12,,,83,127
3354,note_on,1,0,0,,6,,,78,127
3458,note_off,104,0,0,,6,,,78,127
3458,note_off,0,0,0,,4,,,64,127
3458,note_off,0,0,0,,7,,,67,127
3459,note_on,1,0,0,,7,,,67,127
3459,note_on,0,0,0,,4,,,64,127
3459,note_on,0,0,0,,7,,,79,127
3563,note_off,104,0,0,,7,,,79,127
3564,note_on,1,0,0,,3,,,75,127
3668,note_off,104,0,0,,3,,,75,127
3668,note_off,0,0,0,,4,,,64,127
3668,note_off,0,0,0,,7,,,67,127
3669,note_on,1,0,0,,7,,,67,127
3669,note_on,0,0,0,,4,,,64,127
3669,note_on,0,0,0,,4,,,76,127
3773,note_off,104,0,0,,4,,,76,127
3774,note_on,1,0,0,,12,,,71,127
3878,note_off,104,0,0,,12,,,71,127
3878,note_off,0,0,0,,4,,,64,127
3878,note_off,0,0,0,,7,,,67,127
3879,note_on,1,0,0,,10,,,57,127
3879,note_on,0,0,0,,4,,,64,127
3879,note_on,0,0,0,,0,,,72,127
3983,note_off,104,0,0,,0,,,72,127
3984,note_on,1,0,0,,10,,,69,127
4088,note_off,104,0,0,,10,,,69,127
4088,note_off,0,0,0,,4,,,64,127
4088,note_off,0,0,0,,10,,,57,127
4089,note_on,1,0,0,,10,,,57,127
4089,note_on,0,0,0,,4,,,64,127
4089,note_on,0,0,0,,12,,,71,127
4193,note_off,104,0,0,,12,,,71,127
4194,note_on,1,0,0,,7,,,67,127
4298,note_off,104,0,0,,7,,,67,127
4298,note_off,0,0,0,,4,,,64,127
4298,note_off,0,0,0,,10,,,57,127
4299,note_on,1,0,0,,4,,,64,127
4299,note_on,0,0,0,,10,,,57,127
4299,note_on,0,0,0,,10,,,69,127
4403,note_off,104,0,0,,10,,,69,127
4404,note_on,1,0,0,,6,,,66,127
4508,note_off,104,0,0,,6,,,66,127
4508,note_off,0,0,0,,10,,,57,127
4508,note_off,0,0,0,,4,,,64,127
4509,note_on,1,0,0,,12,,,59,127
4509,note_on,0,0,0,,7,,,67,127
4613,note_off,104,0,0,,7,,,67,127
4614,note_on,1,0,0,,4,,,64,127
4718,note_off,104,0,0,,4,,,64,127
4719,note_on,1,0,0,,12,,,71,127
4823,note_off,104,0,0,,12,,,71,127
4824,note_on,1,0,0,,4,,,64,127
4928,note_off,104,0,0,,4,,,64,127
4929,note_on,1,0,0,,12,,,47,127
4929,note_on,0,0,0,,6,,,66,127
5033,note_off,104,0,0,,6,,,66,127
5034,note_on,1,0,0,,3,,,63,127
5138,note_off,104,0,0,,3,,,63,127
5138,note_off,0,0,0,,12,,,47,127
5138,note_off,0,0,0,,12,,,59,127
5139,note_on,1,0,0,,4,,,52,127
5139,note_on,0,0,0,,3,,,63,127
5557,note_off,418,0,0,,3,,,63,127
5558,note_on,1,0,0,,4,,,64,127
5766,note_off,208,0,0,,4,,,64,127
5766,note_off,0,0,0,,4,,,52,127
5767,note_on,1,0,0,,12,,,59,127
5767,note_on,0,0,0,,4,,,52,127
5767,note_on,0,0,0,,4,,,64,127
5767,note_on,0,0,0,,12,,,83,127
5871,note_off,104,0,0,,12,,,83,127
5872,note_on,1,0,0,,6,,,78,127
5976,note_off,104,0,0,,6,,,78,127
5977,note_on,1,0,0,,7,,,79,127
6081,note_off,104,0,0,,7,,,79,127
6082,note_on,1,0,0,,3,,,75,127
6186,note_off,104,0,0,,3,,,75,127
6187,note_on,1,0,0,,4,,,76,127
6291,note_off,104,0,0,,4,,,76,127
6292,note_on,1,0,0,,12,,,71,127
6396,note_off,104,0,0,,12,,,71,127
6396,note_off,0,0,0,,4,,,64,127
6396,note_off,0,0,0,,4,,,52,127
6396,note_off,0,0,0,,12,,,59,127
6397,note_on,1,0,0,,10,,,45,127
6397,note_on,0,0,0,,10,,,57,127
6397,note_on,0,0,0,,4,,,52,127
6397,note_on,0,0,0,,0,,,72,127
6501,note_off,104,0,0,,0,,,72,127
6502,note_on,1,0,0,,10,,,69,127
6606,note_off,104,0,0,,10,,,69,127
6607,note_on,1,0,0,,12,,,71,127
6711,note_off,104,0,0,,12,,,71,127
6712,note_on,1,0,0,,7,,,67,127
6816,note_off,104,0,0,,7,,,67,127
6817,note_on,1,0,0,,10,,,69,127
6921,note_off,104,0,0,,10,,,69,127
6922,note_on,1,0,0,,6,,,66,127
7026,note_off,104,0,0,,6,,,66,127
7026,note_off,0,0,0,,4,,,52,127
7026,note_off,0,0,0,,10,,,57,127
7026,note_off,0,0,0,,10,,,45,127
7027,note_on,1,0,0,,4,,,52,127
7027,note_on,0,0,0,,12,,,47,127
7027,note_on,0,0,0,,12,,,59,127
7027,note_on,0,0,0,,7,,,67,127
7131,note_off,104,0,0,,7,,,67,127
7132,note_on,1,0,0,,4,,,64,127
7236,note_off,104,0,0,,4,,,64,127
7237,note_on,1,0,0,,12,,,71,127
7341,note_off,104,0,0,,12,,,71,127
7342,note_on,1,0,0,,4,,,64,127
7446,note_off,104,0,0,,4,,,64,127
7446,note_off,0,0,0,,12,,,59,127
7446,note_off,0,0,0,,12,,,47,127
7446,note_off,0,0,0,,4,,,52,127
7447,note_on,1,0,0,,12,,,59,127
7447,note_on,0,0,0,,12,,,47,127
7447,note_on,0,0,0,,6,,,66,127
7551,note_off,104,0,0,,6,,,66,127
7552,note_on,1,0,0,,3,,,63,127
7656,note_off,104,0,0,,3,,,63,127
7656,note_off,0,0,0,,12,,,47,127
7656,note_off,0,0,0,,12,,,59,127
7657,note_on,1,0,0,,4,,,52,127
7657,note_on,0,0,0,,4,,,40,127
7657,note_on,0,0,0,,3,,,63,127
7865,note_off,208,0,0,,3,,,63,127
7866,note_on,1,0,0,,4,,,64,127
8284,note_off,418,0,0,,4,,,64,127
8284,note_off,0,0,0,,4,,,40,127
8284,note_off,0,0,0,,4,,,52,127
8285,note_on,1,0,0,,4,,,52,127
8389,note_off,104,0,0,,4,,,52,127
8390,note_on,1,0,0,,4,,,64,127
8390,note_on,0,0,0,,7,,,67,127
8494,note_off,104,0,0,,7,,,67,127
8494,note_off,0,0,0,,4,,,64,127
8495,note_on,1,0,0,,3,,,63,127
8495,note_on,0,0,0,,6,,,66,127
8599,note_off,104,0,0,,6,,,66,127
8599,note_off,0,0,0,,3,,,63,127
8600,note_on,1,0,0,,4,,,64,127
8600,note_on,0,0,0,,7,,,67,127
8704,note_off,104,0,0,,7,,,67,127
8704,note_off,0,0,0,,4,,,64,127
8705,note_on,1,0,0,,6,,,66,127
8705,note_on,0,0,0,,10,,,69,127
8809,note_off,104,0,0,,10,,,69,127
8809,note_off,0,0,0,,6,,,66,127
8810,note_on,1,0,0,,4,,,64,127
8810,note_on,0,0,0,,7,,,67,127
8914,note_off,104,0,0,,7,,,67,127
8914,note_off,0,0,0,,4,,,64,127
8915,note_on,1,0,0,,10,,,57,127
8915,note_on,0,0,0,,0,,,72,127
9019,note_off,104,0,0,,0,,,72,127
9019,note_off,0,0,0,,10,,,57,127
9020,note_on,1,0,0,,4,,,64,127
9020,note_on,0,0,0,,7,,,67,127
9124,note_off,104,0,0,,7,,,67,127
9124,note_off,0,0,0,,4,,,64,127
9125,note_on,1,0,0,,3,,,63,127
9125,note_on,0,0,0,,6,,,66,127
9229,note_off,104,0,0,,6,,,66,127
9229,note_off,0,0,0,,3,,,63,127
9230,note_on,1,0,0,,4,,,64,127
9230,note_on,0,0,0,,7,,,67,127
9334,note_off,104,0,0,,7,,,67,127
9334,note_off,0,0,0,,4,,,64,127
9335,note_on,1,0,0,,6,,,66,127
9335,note_on,0,0,0,,10,,,69,127
9439,note_off,104,0,0,,10,,,69,127
9439,note_off,0,0,0,,6,,,66,127
9440,note_on,1,0,0,,4,,,64,127
9440,note_on,0,0,0,,7,,,67,127
9544,note_off,104,0,0,,7,,,67,127
9544,note_off,0,0,0,,4,,,64,127
9545,note_on,1,0,0,,7,,,55,127
9545,note_on,0,0,0,,12,,,71,127
9649,note_off,104,0,0,,12,,,71,127
9649,note_off,0,0,0,,7,,,55,127
9650,note_on,1,0,0,,4,,,64,127
9650,note_on,0,0,0,,7,,,67,127
9754,note_off,104,0,0,,7,,,67,127
9754,note_off,0,0,0,,4,,,64,127
9755,note_on,1,0,0,,3,,,63,127
9755,note_on,0,0,0,,6,,,66,127
9859,note_off,104,0,0,,6,,,66,127
9859,note_off,0,0,0,,3,,,63,127
9860,note_on,1,0,0,,4,,,64,127
9860,note_on,0,0,0,,7,,,67,127
9964,note_off,104,0,0,,7,,,67,127
9964,note_off,0,0,0,,4,,,64,127
9965,note_on,1,0,0,,6,,,66,127
9965,note_on,0,0,0,,10,,,69,127
10069,note_off,104,0,0,,10,,,69,127
10069,note_off,0,0,0,,6,,,66,127
10070,note_on,1,0,0,,4,,,64,127
10070,note_on,0,0,0,,7,,,67,127
10174,note_off,104,0,0,,7,,,67,127
10174,note_off,0,0,0,,4,,,64,127
10175,note_on,1,0,0,,6,,,54,127
10175,note_on,0,0,0,,3,,,75,127
10279,note_off,104,0,0,,3,,,75,127
10279,note_off,0,0,0,,6,,,54,127
10280,note_on,1,0,0,,4,,,64,127
10280,note_on,0,0,0,,7,,,67,127
10384,note_off,104,0,0,,7,,,67,127
10384,note_off,0,0,0,,4,,,64,127
10385,note_on,1,0,0,,3,,,63,127
10385,note_on,0,0,0,,6,,,66,127
10489,note_off,104,0,0,,6,,,66,127
10489,note_off,0,0,0,,3,,,63,127
10490,note_on,1,0,0,,4,,,64,127
10490,note_on,0,0,0,,7,,,67,127
10594,note_off,104,0,0,,7,,,67,127
10594,note_off,0,0,0,,4,,,64,127
10595,note_on,1,0,0,,6,,,66,127
10595,note_on,0,0,0,,10,,,69,127
10699,note_off,104,0,0,,10,,,69,127
10699,note_off,0,0,0,,6,,,66,127
10700,note_on,1,0,0,,4,,,64,127
10700,note_on,0,0,0,,7,,,67,127
10804,note_off,104,0,0,,7,,,67,127
10804,note_off,0,0,0,,4,,,64,127
10805,note_on,1,0,0,,4,,,52,127
10805,note_on,0,0,0,,4,,,76,127
10909,note_off,104,0,0,,4,,,76,127
10909,note_off,0,0,0,,4,,,52,127
10910,note_on,1,0,0,,4,,,64,127
10910,note_on,0,0,0,,7,,,67,127
11014,note_off,104,0,0,,7,,,67,127
11014,note_off,0,0,0,,4,,,64,127
11015,note_on,1,0,0,,3,,,63,127
11015,note_on,0,0,0,,6,,,66,127
11119,note_off,104,0,0,,6,,,66,127
11119,note_off,0,0,0,,3,,,63,127
11120,note_on,1,0,0,,4,,,64,127
11120,note_on,0,0,0,,7,,,67,127
11224,note_off,104,0,0,,7,,,67,127
11224,note_off,0,0,0,,4,,,64,127
11225,note_on,1,0,0,,6,,,66,127
11225,note_on,0,0,0,,10,,,69,127
11329,note_off,104,0,0,,10,,,69,127
11329,note_off,0,0,0,,6,,,66,127
11330,note_on,1,0,0,,4,,,64,127
11330,note_on,0,0,0,,7,,,67,127
11434,note_off,104,0,0,,7,,,67,127
11434,note_off,0,0,0,,4,,,64,127
11435,note_on,1,0,0,,10,,,57,127
11435,note_on,0,0,0,,0,,,72,127
11539,note_off,104,0,0,,0,,,72,127
11539,note_off,0,0,0,,10,,,57,127
11540,note_on,1,0,0,,4,,,64,127
11540,note_on,0,0,0,,7,,,67,127
11644,note_off,104,0,0,,7,,,67,127
11644,note_off,0,0,0,,4,,,64,127
11645,note_on,1,0,0,,3,,,63,127
11645,note_on,0,0,0,,6,,,66,127
11749,note_off,104,0,0,,6,,,66,127
11749,note_off,0,0,0,,3,,,63,127
11750,note_on,1,0,0,,4,,,64,127
11750,note_on,0,0,0,,7,,,67,127
11854,note_off,104,0,0,,7,,,67,127
11854,note_off,0,0,0,,4,,,64,127
11855,note_on,1,0,0,,6,,,66,127
11855,note_on,0,0,0,,10,,,69,127
11959,note_off,104,0,0,,10,,,69,127
11959,note_off,0,0,0,,6,,,66,127
11960,note_on,1,0,0,,4,,,64,127
11960,note_on,0,0,0,,7,,,67,127
12064,note_off,104,0,0,,7,,,67,127
12064,note_off,0,0,0,,4,,,64,127
12065,note_on,1,0,0,,7,,,55,127
12065,note_on,0,0,0,,12,,,71,127
12169,note_off,104,0,0,,12,,,71,127
12169,note_off,0,0,0,,7,,,55,127
12170,note_on,1,0,0,,4,,,64,127
12170,note_on,0,0,0,,7,,,67,127
12274,note_off,104,0,0,,7,,,67,127
12274,note_off,0,0,0,,4,,,64,127
12275,note_on,1,0,0,,3,,,63,127
12275,note_on,0,0,0,,6,,,66,127
12379,note_off,104,0,0,,6,,,66,127
12379,note_off,0,0,0,,3,,,63,127
12380,note_on,1,0,0,,4,,,64,127
12380,note_on,0,0,0,,7,,,67,127
12484,note_off,104,0,0,,7,,,67,127
12484,note_off,0,0,0,,4,,,64,127
12485,note_on,1,0,0,,6,,,66,127
12485,note_on,0,0,0,,10,,,69,127
12589,note_off,104,0,0,,10,,,69,127
12589,note_off,0,0,0,,6,,,66,127
12590,note_on,1,0,0,,4,,,64,127
12590,note_on,0,0,0,,7,,,67,127
12694,note_off,104,0,0,,7,,,67,127
12694,note_off,0,0,0,,4,,,64,127
12695,note_on,1,0,0,,6,,,54,127
12695,note_on,0,0,0,,3,,,75,127
12799,note_off,104,0,0,,3,,,75,127
12799,note_off,0,0,0,,6,,,54,127
12800,note_on,1,0,0,,4,,,64,127
12800,note_on,0,0,0,,7,,,67,127
12904,note_off,104,0,0,,7,,,67,127
12904,note_off,0,0,0,,4,,,64,127
12905,note_on,1,0,0,,3,,,63,127
12905,note_on,0,0,0,,6,,,66,127
13009,note_off,104,0,0,,6,,,66,127
13009,note_off,0,0,0,,3,,,63,127
13010,note_on,1,0,0,,4,,,64,127
13010,note_on,0,0,0,,7,,,67,127
13114,note_off,104,0,0,,7,,,67,127
13114,note_off,0,0,0,,4,,,64,127
13115,note_on,1,0,0,,6,,,66,127
13115,note_on,0,0,0,,10,,,69,127
13219,note_off,104,0,0,,10,,,69,127
13219,note_off,0,0,0,,6,,,66,127
13220,note_on,1,0,0,,4,,,64,127
13220,note_on,0,0,0,,7,,,67,127
13324,note_off,104,0,0,,7,,,67,127
13324,note_off,0,0,0,,4,,,64,127
13325,note_on,1,0,0,,4,,,52,127
13325,note_on,0,0,0,,4,,,76,127
13429,note_off,104,0,0,,4,,,76,127
13429,note_off,0,0,0,,4,,,52,127
13430,note_on,1,0,0,,4,,,64,127
13430,note_on,0,0,0,,7,,,67,127
13534,note_off,104,0,0,,7,,,67,127
13534,note_off,0,0,0,,4,,,64,127
13535,note_on,1,0,0,,3,,,63,127
13535,note_on,0,0,0,,6,,,66,127
13639,note_off,104,0,0,,6,,,66,127
13639,note_off,0,0,0,,3,,,63,127
13640,note_on,1,0,0,,4,,,64,127
13640,note_on,0,0,0,,7,,,67,127
13744,note_off,104,0,0,,7,,,67,127
13744,note_off,0,0,0,,4,,,64,127
13745,note_on,1,0,0,,6,,,66,127
13745,note_on,0,0,0,,10,,,69,127
13849,note_off,104,0,0,,10,,,69,127
13849,note_off,0,0,0,,6,,,66,127
13850,note_on,1,0,0,,4,,,64,127
13850,note_on,0,0,0,,7,,,67,127
13954,note_off,104,0,0,,7,,,67,127
13954,note_off,0,0,0,,4,,,64,127
13955,note_on,1,0,0,,3,,,51,127
13955,note_on,0,0,0,,6,,,78,127
14059,note_off,104,0,0,,6,,,78,127
14059,note_off,0,0,0,,3,,,51,127
14060,note_on,1,0,0,,4,,,64,127
14060,note_on,0,0,0,,7,,,67,127
14164,note_off,104,0,0,,7,,,67,127
14164,note_off,0,0,0,,4,,,64,127
14165,note_on,1,0,0,,3,,,63,127
14165,note_on,0,0,0,,6,,,66,127
14269,note_off,104,0,0,,6,,,66,127
14269,note_off,0,0,0,,3,,,63,127
14270,note_on,1,0,0,,4,,,64,127
14270,note_on,0,0,0,,7,,,67,127
14374,note_off,104,0,0,,7,,,67,127
14374,note_off,0,0,0,,4,,,64,127
14375,note_on,1,0,0,,6,,,66,127
14375,note_on,0,0,0,,10,,,69,127
14479,note_off,104,0,0,,10,,,69,127
14479,note_off,0,0,0,,6,,,66,127
14480,note_on,1,0,0,,4,,,64,127
14480,note_on,0,0,0,,7,,,67,127
14584,note_off,104,0,0,,7,,,67,127
14584,note_off,0,0,0,,4,,,64,127
14585,note_on,1,0,0,,4,,,52,127
14585,note_on,0,0,0,,7,,,79,127
14689,note_off,104,0,0,,7,,,79,127
14690,note_on,1,0,0,,6,,,78,127
14794,note_off,104,0,0,,6,,,78,127
14794,note_off,0,0,0,,4,,,52,127
14795,note_on,1,0,0,,6,,,54,127
14795,note_on,0,0,0,,4,,,76,127
14899,note_off,104,0,0,,4,,,76,127
14900,note_on,1,0,0,,2,,,74,127
15004,note_off,104,0,0,,2,,,74,127
15004,note_off,0,0,0,,6,,,54,127
15005,note_on,1,0,0,,7,,,55,127
15005,note_on,0,0,0,,0,,,72,127
15109,note_off,104,0,0,,0,,,72,127
15110,note_on,1,0,0,,12,,,71,127
15214,note_off,104,0,0,,12,,,71,127
15214,note_off,0,0,0,,7,,,55,127
15215,note_on,1,0,0,,10,,,57,127
15215,note_on,0,0,0,,0,,,72,127
15319,note_off,104,0,0,,0,,,72,127
15320,note_on,1,0,0,,12,,,71,127
15424,note_off,104,0,0,,12,,,71,127
15424,note_off,0,0,0,,10,,,57,127
15425,note_on,1,0,0,,12,,,59,127
15425,note_on,0,0,0,,10,,,69,127
15529,note_off,104,0,0,,10,,,69,127
15530,note_on,1,0,0,,7,,,67,127
15634,note_off,104,0,0,,7,,,67,127
15634,note_off,0,0,0,,12,,,59,127
15635,note_on,1,0,0,,0,,,60,127
15635,note_on,0,0,0,,6,,,66,127
15739,note_off,104,0,0,,6,,,66,127
15740,note_on,1,0,0,,4,,,64,127
15844,note_off,104,0,0,,4,,,64,127
15844,note_off,0,0,0,,0,,,60,127
15845,note_on,1,0,0,,12,,,59,127
15845,note_on,0,0,0,,3,,,63,127
16053,note_off,208,0,0,,3,,,63,127
16053,note_off,0,0,0,,12,,,59,127
16054,note_on,1,0,0,,7,,,55,127
16054,note_on,0,0,0,,6,,,66,127
16123,note_off,69,0,0,,6,,,66,127
16124,note_on,1,0,0,,4,,,64,127
16193,note_off,69,0,0,,4,,,64,127
16194,note_on,1,0,0,,6,,,66,127
16263,note_off,69,0,0,,6,,,66,127
16263,note_off,0,0,0,,7,,,55,127
16264,note_on,1,0,0,,4,,,52,127
16264,note_on,0,0,0,,4,,,64,127
16333,note_off,69,0,0,,4,,,64,127
16334,note_on,1,0,0,,3,,,63,127
16403,note_off,69,0,0,,3,,,63,127
16404,note_on,1,0,0,,4,,,64,127
16473,note_off,69,0,0,,4,,,64,127
16473,note_off,0,0,0,,4,,,52,127
16474,note_on,1,0,0,,12,,,47,127
16474,note_on,0,0,0,,4,,,64,127
16892,note_off,418,0,0,,4,,,64,127
16893,note_on,1,0,0,,6,,,66,127
17101,note_off,208,0,0,,12,,,47,127
17102,note_on,1,0,0,,12,,,59,127
17206,note_off,104,0,0,,12,,,59,127
17206,note_off,0,0,0,,6,,,66,127
17207,note_on,1,0,0,,3,,,63,127
17207,note_on,0,0,0,,6,,,66,127
17311,note_off,104,0,0,,6,,,66,127
17311,note_off,0,0,0,,3,,,63,127
17312,note_on,1,0,0,,4,,,64,127
17312,note_on,0,0,0,,7,,,67,127
17416,note_off,104,0,0,,7,,,67,127
17416,note_off,0,0,0,,4,,,64,127
17417,note_on,1,0,0,,6,,,66,127
17417,note_on,0,0,0,,10,,,69,127
17521,note_off,104,0,0,,10,,,69,127
17521,note_off,0,0,0,,6,,,66,127
17522,note_on,1,0,0,,7,,,67,127
17522,note_on,0,0,0,,12,,,71,127
17626,note_off,104,0,0,,12,,,71,127
17626,note_off,0,0,0,,7,,,67,127
17627,note_on,1,0,0,,6,,,66,127
17627,note_on,0,0,0,,10,,,69,127
17731,note_off,104,0,0,,10,,,69,127
17731,note_off,0,0,0,,6,,,66,127
17732,note_on,1,0,0,,4,,,52,127
17732,note_on,0,0,0,,10,,,69,127
17836,note_off,104,0,0,,10,,,69,127
17836,note_off,0,0,0,,4,,,52,127
17837,note_on,1,0,0,,4,,,64,127
17837,note_on,0,0,0,,7,,,67,127
17941,note_off,104,0,0,,7,,,67,127
17941,note_off,0,0,0,,4,,,64,127
17942,note_on,1,0,0,,6,,,66,127
17942,note_on,0,0,0,,10,,,69,127
18046,note_off,104,0,0,,10,,,69,127
18046,note_off,0,0,0,,6,,,66,127
18047,note_on,1,0,0,,7,,,67,127
18047,note_on,0,0,0,,12,,,71,127
18151,note_off,104,0,0,,12,,,71,127
18151,note_off,0,0,0,,7,,,67,127
18152,note_on,1,0,0,,10,,,69,127
18152,note_on,0,0,0,,0,,,72,127
18256,note_off,104,0,0,,0,,,72,127
18256,note_off,0,0,0,,10,,,69,127
18257,note_on,1,0,0,,7,,,67,127
18257,note_on,0,0,0,,12,,,71,127
18361,note_off,104,0,0,,12,,,71,127
18361,note_off,0,0,0,,7,,,67,127
18362,note_on,1,0,0,,2,,,50,127
18362,note_on,0,0,0,,12,,,71,127
18466,note_off,104,0,0,,12,,,71,127
18466,note_off,0,0,0,,2,,,50,127
18467,note_on,1,0,0,,6,,,66,127
18467,note_on,0,0,0,,10,,,69,127
18571,note_off,104,0,0,,10,,,69,127
18571,note_off,0,0,0,,6,,,66,127
18572,note_on,1,0,0,,7,,,67,127
18572,note_on,0,0,0,,12,,,71,127
18676,note_off,104,0,0,,12,,,71,127
18676,note_off,0,0,0,,7,,,67,127
18677,note_on,1,0,0,,10,,,69,127
18677,note_on,0,0,0,,0,,,72,127
18781,note_off,104,0,0,,0,,,72,127
18781,note_off,0,0,0,,10,,,69,127
18782,note_on,1,0,0,,12,,,71,127
18782,note_on,0,0,0,,2,,,74,127
18886,note_off,104,0,0,,2,,,74,127
18886,note_off,0,0,0,,12,,,71,127
18887,note_on,1,0,0,,10,,,69,127
18887,note_on,0,0,0,,0,,,72,127
18991,note_off,104,0,0,,0,,,72,127
18991,note_off,0,0,0,,10,,,69,127
18992,note_on,1,0,0,,7,,,43,127
18992,note_on,0,0,0,,0,,,72,127
19200,note_off,208,0,0,,0,,,72,127
19201,note_on,1,0,0,,12,,,71,127
19201,note_on,0,0,0,,0,,,72,127
19305,note_off,104,0,0,,0,,,72,127
19305,note_off,0,0,0,,12,,,71,127
19306,note_on,1,0,0,,10,,,69,127
19410,note_off,104,0,0,,10,,,69,127
19411,note_on,1,0,0,,7,,,67,127
19619,note_off,208,0,0,,7,,,43,127
19620,note_on,1,0,0,,7,,,55,127
19724,note_off,104,0,0,,7,,,55,127
19724,note_off,0,0,0,,7,,,67,127
19725,note_on,1,0,0,,7,,,67,127
19725,note_on,0,0,0,,12,,,71,127
19829,note_off,104,0,0,,12,,,71,127
19829,note_off,0,0,0,,7,,,67,127
19830,note_on,1,0,0,,6,,,66,127
19830,note_on,0,0,0,,10,,,69,127
19934,note_off,104,0,0,,10,,,69,127
19934,note_off,0,0,0,,6,,,66,127
19935,note_on,1,0,0,,7,,,67,127
19935,note_on,0,0,0,,12,,,71,127
20039,note_off,104,0,0,,12,,,71,127
20039,note_off,0,0,0,,7,,,67,127
20040,note_on,1,0,0,,10,,,69,127
20040,note_on,0,0,0,,0,,,72,127
20144,note_off,104,0,0,,0,,,72,127
20144,note_off,0,0,0,,10,,,69,127
20145,note_on,1,0,0,,7,,,67,127
20145,note_on,0,0,0,,12,,,71,127
20249,note_off,104,0,0,,12,,,71,127
20249,note_off,0,0,0,,7,,,67,127
20250,note_on,1,0,0,,0,,,60,127
20250,note_on,0,0,0,,4,,,76,127
20354,note_off,104,0,0,,4,,,76,127
20354,note_off,0,0,0,,0,,,60,127
20355,note_on,1,0,0,,7,,,67,127
20355,note_on,0,0,0,,12,,,71,127
20459,note_off,104,0,0,,12,,,71,127
20459,note_off,0,0,0,,7,,,67,127
20460,note_on,1,0,0,,6,,,66,127
20460,note_on,0,0,0,,10,,,69,127
20564,note_off,104,0,0,,10,,,69,127
20564,note_off,0,0,0,,6,,,66,127
20565,note_on,1,0,0,,7,,,67,127
20565,note_on,0,0,0,,12,,,71,127
20669,note_off,104,0,0,,12,,,71,127
20669,note_off,0,0,0,,7,,,67,127
20670,note_on,1,0,0,,10,,,69,127
20670,note_on,0,0,0,,0,,,72,127
20774,note_off,104,0,0,,0,,,72,127
20774,note_off,0,0,0,,10,,,69,127
20775,note_on,1,0,0,,7,,,67,127
20775,note_on,0,0,0,,12,,,71,127
20879,note_off,104,0,0,,12,,,71,127
20879,note_off,0,0,0,,7,,,67,127
20880,note_on,1,0,0,,12,,,59,127
20880,note_on,0,0,0,,7,,,79,127
20984,note_off,104,0,0,,7,,,79,127
20984,note_off,0,0,0,,12,,,59,127
20985,note_on,1,0,0,,7,,,67,127
20985,note_on,0,0,0,,12,,,71,127
21089,note_off,104,0,0,,12,,,71,127
21089,note_off,0,0,0,,7,,,67,127
21090,note_on,1,0,0,,6,,,66,127
21090,note_on,0,0,0,,10,,,69,127
21194,note_off,104,0,0,,10,,,69,127
21194,note_off,0,0,0,,6,,,66,127
21195,note_on,1,0,0,,7,,,67,127
21195,note_on,0,0,0,,12,,,71,127
21299,note_off,104,0,0,,12,,,71,127
21299,note_off,0,0,0,,7,,,67,127
21300,note_on,1,0,0,,10,,,69,127
21300,note_on,0,0,0,,0,,,72,127
21404,note_off,104,0,0,,0,,,72,127
21404,note_off,0,0,0,,10,,,69,127
21405,note_on,1,0,0,,7,,,67,127
21405,note_on,0,0,0,,12,,,71,127
21509,note_off,104,0,0,,12,,,71,127
21509,note_off,0,0,0,,7,,,67,127
21510,note_on,1,0,0,,10,,,57,127
21510,note_on,0,0,0,,10,,,81,127
21614,note_off,104,0,0,,10,,,81,127
21614,note_off,0,0,0,,10,,,57,127
21615,note_on,1,0,0,,7,,,67,127
21615,note_on,0,0,0,,12,,,71,127
21719,note_off,104,0,0,,12,,,71,127
21719,note_off,0,0,0,,7,,,67,127
21720,note_on,1,0,0,,6,,,66,127
21720,note_on,0,0,0,,10,,,69,127
21824,note_off,104,0,0,,10,,,69,127
21824,note_off,0,0,0,,6,,,66,127
21825,note_on,1,0,0,,7,,,67,127
21825,note_on,0,0,0,,12,,,71,127
21929,note_off,104,0,0,,12,,,71,127
21929,note_off,0,0,0,,7,,,67,127
21930,note_on,1,0,0,,10,,,69,127
21930,note_on,0,0,0,,0,,,72,127
22034,note_off,104,0,0,,0,,,72,127
22034,note_off,0,0,0,,10,,,69,127
22035,note_on,1,0,0,,7,,,67,127
22035,note_on,0,0,0,,12,,,71,127
22139,note_off,104,0,0,,12,,,71,127
22139,note_off,0,0,0,,7,,,67,127
22140,note_on,1,0,0,,7,,,55,127
22140,note_on,0,0,0,,12,,,83,127
22244,note_off,104,0,0,,12,,,83,127
22244,note_off,0,0,0,,7,,,55,127
22245,note_on,1,0,0,,7,,,67,127
22245,note_on,0,0,0,,12,,,71,127
22349,note_off,104,0,0,,12,,,71,127
22349,note_off,0,0,0,,7,,,67,127
22350,note_on,1,0,0,,6,,,66,127
22350,note_on,0,0,0,,10,,,69,127
22454,note_off,104,0,0,,10,,,69,127
22454,note_off,0,0,0,,6,,,66,127
22455,note_on,1,0,0,,7,,,67,127
22455,note_on,0,0,0,,12,,,71,127
22559,note_off,104,0,0,,12,,,71,127
22559,note_off,0,0,0,,7,,,67,127
22560,note_on,1,0,0,,10,,,69,127
22560,note_on,0,0,0,,0,,,72,127
22664,note_off,104,0,0,,0,,,72,127
22664,note_off,0,0,0,,10,,,69,127
22665,note_on,1,0,0,,7,,,67,127
22665,note_on,0,0,0,,12,,,71,127
22769,note_off,104,0,0,,12,,,71,127
22769,note_off,0,0,0,,7,,,67,127
22770,note_on,1,0,0,,0,,,60,127
22770,note_on,0,0,0,,4,,,76,127
22874,note_off,104,0,0,,4,,,76,127
22874,note_off,0,0,0,,0,,,60,127
22875,note_on,1,0,0,,7,,,67,127
22875,note_on,0,0,0,,12,,,71,127
22979,note_off,104,0,0,,12,,,71,127
22979,note_off,0,0,0,,7,,,67,127
22980,note_on,1,0,0,,6,,,66,127
22980,note_on,0,0,0,,10,,,69,127
23084,note_off,104,0,0,,10,,,69,127
23084,note_off,0,0,0,,6,,,66,127
23085,note_on,1,0,0,,7,,,67,127
23085,note_on,0,0,0,,12,,,71,127
23189,note_off,104,0,0,,12,,,71,127
23189,note_off,0,0,0,,7,,,67,127
23190,note_on,1,0,0,,10,,,69,127
23190,note_on,0,0,0,,0,,,72,127
23294,note_off,104,0,0,,0,,,72,127
23294,note_off,0,0,0,,10,,,69,127
23295,note_on,1,0,0,,7,,,67,127
23295,note_on,0,0,0,,12,,,71,127
23399,note_off,104,0,0,,12,,,71,127
23399,note_off,0,0,0,,7,,,67,127
23400,note_on,1,0,0,,12,,,59,127
23400,note_on,0,0,0,,7,,,79,127
23504,note_off,104,0,0,,7,,,79,127
23504,note_off,0,0,0,,12,,,59,127
23505,note_on,1,0,0,,7,,,67,127
23505,note_on,0,0,0,,12,,,71,127
23609,note_off,104,0,0,,12,,,71,127
23609,note_off,0,0,0,,7,,,67,127
23610,note_on,1,0,0,,6,,,66,127
23610,note_on,0,0,0,,10,,,69,127
23714,note_off,104,0,0,,10,,,69,127
23714,note_off,0,0,0,,6,,,66,127
23715,note_on,1,0,0,,7,,,67,127
23715,note_on,0,0,0,,12,,,71,127
23819,note_off,104,0,0,,12,,,71,127
23819,note_off,0,0,0,,7,,,67,127
23820,note_on,1,0,0,,10,,,69,127
23820,note_on,0,0,0,,0,,,72,127
23924,note_off,104,0,0,,0,,,72,127
23924,note_off,0,0,0,,10,,,69,127
23925,note_on,1,0,0,,7,,,67,127
23925,note_on,0,0,0,,12,,,71,127
24029,note_off,104,0,0,,12,,,71,127
24029,note_off,0,0,0,,7,,,67,127
24030,note_on,1,0,0,,10,,,57,127
24030,note_on,0,0,0,,10,,,81,127
24134,note_off,104,0,0,,10,,,81,127
24134,note_off,0,0,0,,10,,,57,127
24135,note_on,1,0,0,,7,,,67,127
24135,note_on,0,0,0,,12,,,71,127
24239,note_off,104,0,0,,12,,,71,127
24239,note_off,0,0,0,,7,,,67,127
24240,note_on,1,0,0,,6,,,66,127
24240,note_on,0,0,0,,10,,,69,127
24344,note_off,104,0,0,,10,,,69,127
24344,note_off,0,0,0,,6,,,66,127
24345,note_on,1,0,0,,7,,,67,127
24345,note_on,0,0,0,,12,,,71,127
24449,note_off,104,0,0,,12,,,71,127
24449,note_off,0,0,0,,7,,,67,127
24450,note_on,1,0,0,,10,,,69,127
24450,note_on,0,0,0,,0,,,72,127
24554,note_off,104,0,0,,0,,,72,127
24554,note_off,0,0,0,,10,,,69,127
24555,note_on,1,0,0,,7,,,67,127
24555,note_on,0,0,0,,12,,,71,127
24659,note_off,104,0,0,,12,,,71,127
24659,note_off,0,0,0,,7,,,67,127
24660,note_on,1,0,0,,7,,,55,127
24660,note_on,0,0,0,,12,,,83,127
24764,note_off,104,0,0,,12,,,83,127
24765,note_on,1,0,0,,10,,,81,127
24869,note_off,104,0,0,,10,,,81,127
24869,note_off,0,0,0,,7,,,55,127
24870,note_on,1,0,0,,10,,,57,127
24870,note_on,0,0,0,,7,,,79,127
24974,note_off,104,0,0,,7,,,79,127
24975,note_on,1,0,0,,6,,,78,127
25079,note_off,104,0,0,,6,,,78,127
25079,note_off,0,0,0,,10,,,57,127
25080,note_on,1,0,0,,12,,,59,127
25080,note_on,0,0,0,,4,,,76,127
25184,note_off,104,0,0,,4,,,76,127
25185,note_on,1,0,0,,2,,,74,127
25289,note_off,104,0,0,,2,,,74,127
25289,note_off,0,0,0,,12,,,59,127
25290,note_on,1,0,0,,0,,,60,127
25290,note_on,0,0,0,,4,,,76,127
25394,note_off,104,0,0,,4,,,76,127
25395,note_on,1,0,0,,2,,,74,127
25499,note_off,104,0,0,,2,,,74,127
25499,note_off,0,0,0,,0,,,60,127
25500,note_on,1,0,0,,2,,,62,127
25500,note_on,0,0,0,,0,,,72,127
25604,note_off,104,0,0,,0,,,72,127
25605,note_on,1,0,0,,12,,,71,127
25709,note_off,104,0,0,,12,,,71,127
25709,note_off,0,0,0,,2,,,62,127
25710,note_on,1,0,0,,4,,,64,127
25710,note_on,0,0,0,,10,,,69,127
25814,note_off,104,0,0,,10,,,69,127
25815,note_on,1,0,0,,7,,,67,127
25919,note_off,104,0,0,,7,,,67,127
25919,note_off,0,0,0,,4,,,64,127
25920,note_on,1,0,0,,2,,,62,127
25920,note_on,0,0,0,,6,,,66,127
26024,note_off,104,0,0,,6,,,66,127
26025,note_on,1,0,0,,4,,,64,127
26129,note_off,104,0,0,,4,,,64,127
26129,note_off,0,0,0,,2,,,62,127
26130,note_on,1,0,0,,0,,,60,127
26130,note_on,0,0,0,,2,,,62,127
26234,note_off,104,0,0,,2,,,62,127
26235,note_on,1,0,0,,6,,,66,127
26339,note_off,104,0,0,,6,,,66,127
26339,note_off,0,0,0,,0,,,60,127
26340,note_on,1,0,0,,12,,,59,127
26340,note_on,0,0,0,,7,,,67,127
26444,note_off,104,0,0,,7,,,67,127
26445,note_on,1,0,0,,4,,,76,127
26549,note_off,104,0,0,,4,,,76,127
26549,note_off,0,0,0,,12,,,59,127
26550,note_on,1,0,0,,0,,,60,127
26550,note_on,0,0,0,,2,,,74,127
26654,note_off,104,0,0,,2,,,74,127
26655,note_on,1,0,0,,0,,,72,127
26759,note_off,104,0,0,,0,,,72,127
26759,note_off,0,0,0,,0,,,60,127
26760,note_on,1,0,0,,2,,,62,127
26760,note_on,0,0,0,,12,,,71,127
26864,note_off,104,0,0,,12,,,71,127
26865,note_on,1,0,0,,10,,,69,127
26969,note_off,104,0,0,,10,,,69,127
26970,note_on,1,0,0,,2,,,50,127
26970,note_on,0,0,0,,7,,,67,127
27074,note_off,104,0,0,,7,,,67,127
27075,note_on,1,0,0,,6,,,66,127
27179,note_off,104,0,0,,6,,,66,127
27179,note_off,0,0,0,,2,,,50,127
27179,note_off,0,0,0,,2,,,62,127
27180,note_on,1,0,0,,7,,,55,127
27180,note_on,0,0,0,,7,,,67,127
27388,note_off,208,0,0,,7,,,67,127
27389,note_on,1,0,0,,7,,,79,127
27597,note_off,208,0,0,,7,,,55,127
27598,note_on,1,0,0,,7,,,67,127
27598,note_on,0,0,0,,1,,,73,127
27806,note_off,208,0,0,,1,,,73,127
27806,note_off,0,0,0,,7,,,67,127
27807,note_on,1,0,0,,6,,,66,127
27807,note_on,0,0,0,,2,,,74,127
28015,note_off,208,0,0,,7,,,79,127
28016,note_on,1,0,0,,10,,,81,127
28224,note_off,208,0,0,,10,,,81,127
28224,note_off,0,0,0,,2,,,74,127
28224,note_off,0,0,0,,6,,,66,127
28225,note_on,1,0,0,,2,,,62,127
28225,note_on,0,0,0,,0,,,72,127
28433,note_off,208,0,0,,0,,,72,127
28433,note_off,0,0,0,,2,,,62,127
28434,note_on,1,0,0,,7,,,67,127
28434,note_on,0,0,0,,12,,,71,127
28642,note_off,208,0,0,,12,,,71,127
28643,note_on,1,0,0,,12,,,83,127
28851,note_off,208,0,0,,12,,,83,127
28851,note_off,0,0,0,,7,,,67,127
28852,note_on,1,0,0,,12,,,59,127
28852,note_on,0,0,0,,7,,,79,127
29060,note_off,208,0,0,,7,,,79,127
29060,note_off,0,0,0,,12,,,59,127
29061,note_on,1,0,0,,0,,,60,127
29061,note_on,0,0,0,,6,,,78,127
29061,note_on,0,0,0,,4,,,76,127
29130,note_off,69,0,0,,4,,,76,127
29130,note_off,0,0,0,,6,,,78,127
29131,note_on,1,0,0,,2,,,74,127
29200,note_off,69,0,0,,2,,,74,127
29201,note_on,1,0,0,,0,,,72,127
29270,note_off,69,0,0,,0,,,72,127
29270,note_off,0,0,0,,0,,,60,127
29271,note_on,1,0,0,,2,,,62,127
29271,note_on,0,0,0,,12,,,71,127
29271,note_on,0,0,0,,7,,,67,127
29479,note_off,208,0,0,,7,,,67,127
29479,note_off,0,0,0,,12,,,71,127
29479,note_off,0,0,0,,2,,,62,127
29480,note_on,1,0,0,,2,,,50,127
29480,note_on,0,0,0,,10,,,69,127
29480,note_on,0,0,0,,6,,,66,127
29688,note_off,208,0,0,,6,,,66,127
29688,note_off,0,0,0,,10,,,69,127
29688,note_off,0,0,0,,2,,,50,127
29689,note_on,1,0,0,,7,,,55,127
29689,note_on,0,0,0,,7,,,67,127
29898,note_on,209,0,0,,7,,,79,127
30106,note_off,208,0,0,,7,,,67,127
30106,note_off,0,0,0,,7,,,55,127
30107,note_on,1,0,0,,7,,,67,127
30107,note_on,0,0,0,,1,,,73,127
30315,note_off,208,0,0,,1,,,73,127
30315,note_off,0,0,0,,7,,,67,127
30316,note_on,1,0,0,,6,,,66,127
30316,note_on,0,0,0,,2,,,74,127
30524,note_off,208,0,0,,7,,,79,127
30525,note_on,1,0,0,,10,,,81,127
30733,note_off,208,0,0,,2,,,74,127
30733,note_off,0,0,0,,6,,,66,127
30734,note_on,1,0,0,,2,,,62,127
30734,note_on,0,0,0,,0,,,72,127
30942,note_off,208,0,0,,0,,,72,127
30942,note_off,0,0,0,,2,,,62,127
30943,note_on,1,0,0,,7,,,67,127
30943,note_on,0,0,0,,12,,,71,127
31151,note_off,208,0,0,,10,,,81,127
31152,note_on,1,0,0,,12,,,83,127
31360,note_off,208,0,0,,12,,,83,127
31360,note_off,0,0,0,,12,,,71,127
31360,note_off,0,0,0,,7,,,67,127
31361,note_on,1,0,0,,12,,,59,127
31361,note_on,0,0,0,,7,,,79,127
31569,note_off,208,0,0,,7,,,79,127
31569,note_off,0,0,0,,12,,,59,127
31570,note_on,1,0,0,,0,,,60,127
31570,note_on,0,0,0,,6,,,78,127
31570,note_on,0,0,0,,4,,,76,127
31639,note_off,69,0,0,,4,,,76,127
31639,note_off,0,0,0,,6,,,78,127
31640,note_on,1,0,0,,2,,,74,127
31709,note_off,69,0,0,,2,,,74,127
31710,note_on,1,0,0,,0,,,72,127
31779,note_off,69,0,0,,0,,,72,127
31779,note_off,0,0,0,,0,,,60,127
31780,note_on,1,0,0,,2,,,62,127
31780,note_on,0,0,0,,7,,,67,127
31780,note_on,0,0,0,,12,,,71,127
31988,note_off,208,0,0,,12,,,71,127
31988,note_off,0,0,0,,7,,,67,127
31988,note_off,0,0,0,,2,,,62,127
31989,note_on,1,0,0,,2,,,50,127
31989,note_on,0,0,0,,6,,,66,127
31989,note_on,0,0,0,,10,,,69,127
32197,note_off,208,0,0,,10,,,69,127
32197,note_off,0,0,0,,6,,,66,127
32197,note_off,0,0,0,,2,,,50,127
32198,note_on,1,0,0,,7,,,43,127
32198,note_on,0,0,0,,12,,,71,127
32302,note_off,104,0,0,,12,,,71,127
32303,note_on,1,0,0,,10,,,69,127
32407,note_off,104,0,0,,10,,,69,127
32407,note_off,0,0,0,,7,,,43,127
32408,note_on,1,0,0,,10,,,45,127
32408,note_on,0,0,0,,7,,,67,127
32512,note_off,104,0,0,,7,,,67,127
32513,note_on,1,0,0,,6,,,66,127
32617,note_off,104,0,0,,6,,,66,127
32617,note_off,0,0,0,,10,,,45,127
32618,note_on,1,0,0,,12,,,47,127
32618,note_on,0,0,0,,4,,,64,127
32722,note_off,104,0,0,,4,,,64,127
32723,note_on,1,0,0,,2,,,62,127
32827,note_off,104,0,0,,2,,,62,127
32827,note_off,0,0,0,,12,,,47,127
32828,note_on,1,0,0,,0,,,48,127
32828,note_on,0,0,0,,4,,,64,127
32828,note_on,0,0,0,,6,,,66,127
32897,note_off,69,0,0,,6,,,66,127
32897,note_off,0,0,0,,4,,,64,127
32898,note_on,1,0,0,,2,,,62,127
32967,note_off,69,0,0,,2,,,62,127
32968,note_on,1,0,0,,0,,,60,127
33037,note_off,69,0,0,,0,,,60,127
33037,note_off,0,0,0,,0,,,48,127
33038,note_on,1,0,0,,2,,,50,127
33038,note_on,0,0,0,,12,,,59,127
33038,note_on,0,0,0,,7,,,55,127
33246,note_off,208,0,0,,7,,,55,127
33246,note_off,0,0,0,,12,,,59,127
33247,note_on,1,0,0,,2,,,38,127
33247,note_on,0,0,0,,6,,,54,127
33247,note_on,0,0,0,,10,,,57,127
33455,note_off,208,0,0,,10,,,57,127
33455,note_off,0,0,0,,6,,,54,127
33455,note_off,0,0,0,,2,,,38,127
33455,note_off,0,0,0,,2,,,50,127
33456,note_on,1,0,0,,7,,,43,127
33456,note_on,0,0,0,,10,,,57,127
33507,note_off,51,0,0,,10,,,57,127
33508,note_on,1,0,0,,7,,,55,127
33559,note_off,51,0,0,,7,,,55,127
33560,note_on,1,0,0,,10,,,57,127
33611,note_off,51,0,0,,10,,,57,127
33612,note_on,1,0,0,,7,,,55,127
34082,note_off,470,0,0,,7,,,55,127
34082,note_off,0,0,0,,7,,,43,127
34083,note_on,1,0,0,,12,,,71,127
34083,note_on,0,0,0,,7,,,67,127
34083,note_on,0,0,0,,7,,,55,127
34083,note_on,0,0,0,,4,,,76,127
34152,note_off,69,0,0,,4,,,76,127
34152,note_off,0,0,0,,7,,,55,127
34153,note_on,1,0,0,,2,,,74,127
34222,note_off,69,0,0,,2,,,74,127
34223,note_on,1,0,0,,4,,,76,127
34292,note_off,69,0,0,,4,,,76,127
34292,note_off,0,0,0,,7,,,67,127
34292,note_off,0,0,0,,12,,,71,127
34293,note_on,1,0,0,,7,,,67,127
34293,note_on,0,0,0,,12,,,71,127
34293,note_on,0,0,0,,2,,,74,127
34362,note_off,69,0,0,,2,,,74,127
34363,note_on,1,0,0,,4,,,76,127
34432,note_off,69,0,0,,4,,,76,127
34433,note_on,1,0,0,,2,,,74,127
34502,note_off,69,0,0,,2,,,74,127
34502,note_off,0,0,0,,12,,,71,127
34502,note_off,0,0,0,,7,,,67,127
34503,note_on,1,0,0,,12,,,71,127
34503,note_on,0,0,0,,7,,,67,127
34503,note_on,0,0,0,,4,,,76,127
34572,note_off,69,0,0,,4,,,76,127
34573,note_on,1,0,0,,2,,,74,127
34712,note_off,139,0,0,,2,,,74,127
34712,note_off,0,0,0,,7,,,67,127
34712,note_off,0,0,0,,12,,,71,127
34713,note_on,1,0,0,,6,,,66,127
34713,note_on,0,0,0,,10,,,69,127
34713,note_on,0,0,0,,10,,,81,127
34817,note_off,104,0,0,,10,,,81,127
34818,note_on,1,0,0,,4,,,76,127
34922,note_off,104,0,0,,4,,,76,127
34922,note_off,0,0,0,,10,,,69,127
34922,note_off,0,0,0,,6,,,66,127
34923,note_on,1,0,0,,10,,,69,127
34923,note_on,0,0,0,,6,,,66,127
34923,note_on,0,0,0,,6,,,78,127
35027,note_off,104,0,0,,6,,,78,127
35028,note_on,1,0,0,,1,,,73,127
35132,note_off,104,0,0,,1,,,73,127
35132,note_off,0,0,0,,6,,,66,127
35132,note_off,0,0,0,,10,,,69,127
35133,note_on,1,0,0,,6,,,66,127
35133,note_on,0,0,0,,2,,,74,127
35237,note_off,104,0,0,,2,,,74,127
35238,note_on,1,0,0,,10,,,69,127
35342,note_off,104,0,0,,10,,,69,127
35342,note_off,0,0,0,,6,,,66,127
35343,note_on,1,0,0,,12,,,71,127
35343,note_on,0,0,0,,7,,,67,127
35343,note_on,0,0,0,,4,,,76,127
35412,note_off,69,0,0,,4,,,76,127
35413,note_on,1,0,0,,2,,,74,127
35482,note_off,69,0,0,,2,,,74,127
35483,note_on,1,0,0,,4,,,76,127
35552,note_off,69,0,0,,4,,,76,127
35552,note_off,0,0,0,,7,,,67,127
35552,note_off,0,0,0,,12,,,71,127
35553,note_on,1,0,0,,12,,,71,127
35553,note_on,0,0,0,,7,,,67,127
35553,note_on,0,0,0,,2,,,74,127
35622,note_off,69,0,0,,2,,,74,127
35623,note_on,1,0,0,,4,,,76,127
35692,note_off,69,0,0,,4,,,76,127
35693,note_on,1,0,0,,2,,,74,127
35762,note_off,69,0,0,,2,,,74,127
35762,note_off,0,0,0,,7,,,67,127
35762,note_off,0,0,0,,12,,,71,127
35763,note_on,1,0,0,,7,,,67,127
35763,note_on,0,0,0,,12,,,71,127
35763,note_on,0,0,0,,4,,,76,127
35832,note_off,69,0,0,,4,,,76,127
35833,note_on,1,0,0,,2,,,74,127
35972,note_off,139,0,0,,2,,,74,127
35972,note_off,0,0,0,,12,,,71,127
35972,note_off,0,0,0,,7,,,67,127
35973,note_on,1,0,0,,10,,,69,127
35973,note_on,0,0,0,,6,,,66,127
35973,note_on,0,0,0,,10,,,81,127
36077,note_off,104,0,0,,10,,,81,127
36078,note_on,1,0,0,,4,,,76,127
36182,note_off,104,0,0,,4,,,76,127
36182,note_off,0,0,0,,6,,,66,127
36182,note_off,0,0,0,,10,,,69,127
36183,note_on,1,0,0,,6,,,66,127
36183,note_on,0,0,0,,10,,,69,127
36183,note_on,0,0,0,,6,,,78,127
36287,note_off,104,0,0,,6,,,78,127
36288,note_on,1,0,0,,1,,,73,127
36392,note_off,104,0,0,,1,,,73,127
36392,note_off,0,0,0,,10,,,69,127
36392,note_off,0,0,0,,6,,,66,127
36393,note_on,1,0,0,,6,,,66,127
36393,note_on,0,0,0,,2,,,74,127
36497,note_off,104,0,0,,2,,,74,127
36498,note_on,1,0,0,,10,,,69,127
36602,note_off,104,0,0,,10,,,69,127
36602,note_off,0,0,0,,6,,,66,127
36603,note_on,1,0,0,,7,,,67,127
36603,note_on,0,0,0,,12,,,71,127
36603,note_on,0,0,0,,4,,,76,127
36672,note_off,69,0,0,,4,,,76,127
36673,note_on,1,0,0,,2,,,74,127
36742,note_off,69,0,0,,2,,,74,127
36743,note_on,1,0,0,,4,,,76,127
36812,note_off,69,0,0,,4,,,76,127
36812,note_off,0,0,0,,12,,,71,127
36812,note_off,0,0,0,,7,,,67,127
36813,note_on,1,0,0,,12,,,71,127
36813,note_on,0,0,0,,7,,,67,127
36813,note_on,0,0,0,,2,,,74,127
36882,note_off,69,0,0,,2,,,74,127
36883,note_on,1,0,0,,4,,,76,127
36952,note_off,69,0,0,,4,,,76,127
36953,note_on,1,0,0,,2,,,74,127
37022,note_off,69,0,0,,2,,,74,127
37022,note_off,0,0,0,,7,,,67,127
37022,note_off,0,0,0,,12,,,71,127
37023,note_on,1,0,0,,12,,,71,127
37023,note_on,0,0,0,,7,,,67,127
37023,note_on,0,0,0,,4,,,76,127
37092,note_off,69,0,0,,4,,,76,127
37093,note_on,1,0,0,,2,,,74,127
37232,note_off,139,0,0,,2,,,74,127
37232,note_off,0,0,0,,7,,,67,127
37232,note_off,0,0,0,,12,,,71,127
37233,note_on,1,0,0,,4,,,64,127
37233,note_on,0,0,0,,12,,,71,127
37233,note_on,0,0,0,,7,,,79,127
37337,note_off,104,0,0,,7,,,79,127
37338,note_on,1,0,0,,2,,,74,127
37442,note_off,104,0,0,,2,,,74,127
37442,note_off,0,0,0,,12,,,71,127
37442,note_off,0,0,0,,4,,,64,127
37443,note_on,1,0,0,,12,,,71,127
37443,note_on,0,0,0,,4,,,64,127
37443,note_on,0,0,0,,4,,,76,127
37546,note_off,103,0,0,,12,,,71,127
37547,note_off,1,0,0,,4,,,76,127
37548,note_on,1,0,0,,12,,,71,127
37652,note_off,104,0,0,,12,,,71,127
37652,note_off,0,0,0,,4,,,64,127
37653,note_on,1,0,0,,4,,,64,127
37653,note_on,0,0,0,,1,,,73,127
37757,note_off,104,0,0,,1,,,73,127
37758,note_on,1,0,0,,11,,,70,127
37862,note_off,104,0,0,,11,,,70,127
37862,note_off,0,0,0,,4,,,64,127
37863,note_on,1,0,0,,6,,,66,127
37863,note_on,0,0,0,,11,,,70,127
37863,note_on,0,0,0,,4,,,64,127
37863,note_on,0,0,0,,2,,,74,127
37932,note_off,69,0,0,,2,,,74,127
37933,note_on,1,0,0,,1,,,73,127
38002,note_off,69,0,0,,1,,,73,127
38003,note_on,1,0,0,,2,,,74,127
38072,note_off,69,0,0,,2,,,74,127
38072,note_off,0,0,0,,4,,,64,127
38072,note_off,0,0,0,,11,,,70,127
38072,note_off,0,0,0,,6,,,66,127
38073,note_on,1,0,0,,6,,,66,127
38073,note_on,0,0,0,,4,,,64,127
38073,note_on,0,0,0,,11,,,70,127
38073,note_on,0,0,0,,1,,,73,127
38142,note_off,69,0,0,,1,,,73,127
38143,note_on,1,0,0,,2,,,74,127
38212,note_off,69,0,0,,2,,,74,127
38213,note_on,1,0,0,,1,,,73,127
38282,note_off,69,0,0,,1,,,73,127
38282,note_off,0,0,0,,11,,,70,127
38282,note_off,0,0,0,,4,,,64,127
38282,note_off,0,0,0,,6,,,66,127
38283,note_on,1,0,0,,11,,,70,127
38283,note_on,0,0,0,,4,,,64,127
38283,note_on,0,0,0,,6,,,66,127
38283,note_on,0,0,0,,2,,,74,127
38352,note_off,69,0,0,,2,,,74,127
38353,note_on,1,0,0,,1,,,73,127
38492,note_off,139,0,0,,1,,,73,127
38492,note_off,0,0,0,,6,,,66,127
38492,note_off,0,0,0,,4,,,64,127
38492,note_off,0,0,0,,11,,,70,127
38493,note_on,1,0,0,,6,,,66,127
38493,note_on,0,0,0,,2,,,62,127
38493,note_on,0,0,0,,12,,,71,127
38493,note_on,0,0,0,,12,,,83,127
38597,note_off,104,0,0,,12,,,83,127
38598,note_on,1,0,0,,4,,,76,127
38702,note_off,104,0,0,,4,,,76,127
38702,note_off,0,0,0,,12,,,71,127
38702,note_off,0,0,0,,2,,,62,127
38702,note_off,0,0,0,,6,,,66,127
38703,note_on,1,0,0,,6,,,66,127
38703,note_on,0,0,0,,2,,,62,127
38703,note_on,0,0,0,,6,,,78,127
38807,note_off,104,0,0,,6,,,78,127
38808,note_on,1,0,0,,1,,,73,127
38912,note_off,104,0,0,,1,,,73,127
38912,note_off,0,0,0,,2,,,62,127
38912,note_off,0,0,0,,6,,,66,127
38913,note_on,1,0,0,,2,,,62,127
38913,note_on,0,0,0,,6,,,66,127
38913,note_on,0,0,0,,2,,,74,127
39017,note_off,104,0,0,,2,,,74,127
39018,note_on,1,0,0,,12,,,71,127
39122,note_off,104,0,0,,12,,,71,127
39122,note_off,0,0,0,,6,,,66,127
39122,note_off,0,0,0,,2,,,62,127
39123,note_on,1,0,0,,11,,,70,127
39123,note_on,0,0,0,,6,,,66,127
39123,note_on,0,0,0,,4,,,64,127
39123,note_on,0,0,0,,2,,,74,127
39192,note_off,69,0,0,,2,,,74,127
39193,note_on,1,0,0,,1,,,73,127
39262,note_off,69,0,0,,1,,,73,127
39263,note_on,1,0,0,,2,,,74,127
39332,note_off,69,0,0,,2,,,74,127
39332,note_off,0,0,0,,4,,,64,127
39332,note_off,0,0,0,,6,,,66,127
39332,note_off,0,0,0,,11,,,70,127
39333,note_on,1,0,0,,6,,,66,127
39333,note_on,0,0,0,,4,,,64,127
39333,note_on,0,0,0,,11,,,70,127
39333,note_on,0,0,0,,1,,,73,127
39402,note_off,69,0,0,,1,,,73,127
39403,note_on,1,0,0,,2,,,74,127
39472,note_off,69,0,0,,2,,,74,127
39473,note_on,1,0,0,,1,,,73,127
39542,note_off,69,0,0,,1,,,73,127
39542,note_off,0,0,0,,11,,,70,127
39542,note_off,0,0,0,,4,,,64,127
39542,note_off,0,0,0,,6,,,66,127
39543,note_on,1,0,0,,6,,,66,127
39543,note_on,0,0,0,,4,,,64,127
39543,note_on,0,0,0,,11,,,70,127
39543,note_on,0,0,0,,2,,,74,127
39612,note_off,69,0,0,,2,,,74,127
39613,note_on,1,0,0,,1,,,73,127
39752,note_off,139,0,0,,1,,,73,127
39752,note_off,0,0,0,,11,,,70,127
39752,note_off,0,0,0,,4,,,64,127
39752,note_off,0,0,0,,6,,,66,127
39753,note_on,1,0,0,,2,,,62,127
39753,note_on,0,0,0,,12,,,71,127
39753,note_on,0,0,0,,6,,,66,127
39753,note_on,0,0,0,,12,,,83,127
39857,note_off,104,0,0,,12,,,83,127
39858,note_on,1,0,0,,4,,,76,127
39962,note_off,104,0,0,,4,,,76,127
39962,note_off,0,0,0,,6,,,66,127
39962,note_off,0,0,0,,12,,,71,127
39962,note_off,0,0,0,,2,,,62,127
39963,note_on,1,0,0,,6,,,66,127
39963,note_on,0,0,0,,2,,,62,127
39963,note_on,0,0,0,,6,,,78,127
40067,note_off,104,0,0,,6,,,78,127
40068,note_on,1,0,0,,1,,,73,127
40172,note_off,104,0,0,,1,,,73,127
40172,note_off,0,0,0,,2,,,62,127
40172,note_off,0,0,0,,6,,,66,127
40173,note_on,1,0,0,,2,,,62,127
40173,note_on,0,0,0,,6,,,66,127
40173,note_on,0,0,0,,2,,,74,127
40277,note_off,104,0,0,,2,,,74,127
40278,note_on,1,0,0,,12,,,71,127
40382,note_off,104,0,0,,12,,,71,127
40382,note_off,0,0,0,,6,,,66,127
40382,note_off,0,0,0,,2,,,62,127
40383,note_on,1,0,0,,4,,,64,127
40383,note_on,0,0,0,,2,,,62,127
40383,note_on,0,0,0,,12,,,71,127
40383,note_on,0,0,0,,8,,,68,127
40383,note_on,0,0,0,,10,,,81,127
40452,note_off,69,0,0,,10,,,81,127
40453,note_on,1,0,0,,8,,,80,127
40522,note_off,69,0,0,,8,,,80,127
40523,note_on,1,0,0,,10,,,81,127
40592,note_off,69,0,0,,10,,,81,127
40592,note_off,0,0,0,,8,,,68,127
40592,note_off,0,0,0,,12,,,71,127
40592,note_off,0,0,0,,2,,,62,127
40592,note_off,0,0,0,,4,,,64,127
40593,note_on,1,0,0,,4,,,64,127
40593,note_on,0,0,0,,2,,,62,127
40593,note_on,0,0,0,,12,,,71,127
40593,note_on,0,0,0,,8,,,68,127
40593,note_on,0,0,0,,8,,,80,127
40662,note_off,69,0,0,,8,,,80,127
40663,note_on,1,0,0,,10,,,81,127
40732,note_off,69,0,0,,10,,,81,127
40733,note_on,1,0,0,,8,,,80,127
40802,note_off,69,0,0,,8,,,80,127
40802,note_off,0,0,0,,8,,,68,127
40802,note_off,0,0,0,,12,,,71,127
40802,note_off,0,0,0,,2,,,62,127
40802,note_off,0,0,0,,4,,,64,127
40803,note_on,1,0,0,,8,,,68,127
40803,note_on,0,0,0,,2,,,62,127
40803,note_on,0,0,0,,12,,,71,127
40803,note_on,0,0,0,,4,,,64,127
40803,note_on,0,0,0,,10,,,81,127
40872,note_off,69,0,0,,10,,,81,127
40873,note_on,1,0,0,,8,,,80,127
41012,note_off,139,0,0,,8,,,80,127
41012,note_off,0,0,0,,4,,,64,127
41012,note_off,0,0,0,,12,,,71,127
41012,note_off,0,0,0,,2,,,62,127
41012,note_off,0,0,0,,8,,,68,127
41013,note_on,1,0,0,,4,,,64,127
41013,note_on,0,0,0,,0,,,60,127
41013,note_on,0,0,0,,10,,,69,127
41013,note_on,0,0,0,,10,,,81,127
41117,note_off,104,0,0,,10,,,81,127
41118,note_on,1,0,0,,4,,,76,127
41222,note_off,104,0,0,,4,,,76,127
41222,note_off,0,0,0,,10,,,69,127
41222,note_off,0,0,0,,0,,,60,127
41222,note_off,0,0,0,,4,,,64,127
41223,note_on,1,0,0,,4,,,64,127
41223,note_on,0,0,0,,0,,,60,127
41223,note_on,0,0,0,,10,,,69,127
41223,note_on,0,0,0,,5,,,77,127
41327,note_off,104,0,0,,5,,,77,127
41328,note_on,1,0,0,,0,,,72,127
41432,note_off,104,0,0,,0,,,72,127
41432,note_off,0,0,0,,10,,,69,127
41432,note_off,0,0,0,,0,,,60,127
41432,note_off,0,0,0,,4,,,64,127
41433,note_on,1,0,0,,0,,,60,127
41433,note_on,0,0,0,,10,,,69,127
41433,note_on,0,0,0,,4,,,64,127
41433,note_on,0,0,0,,2,,,74,127
41537,note_off,104,0,0,,2,,,74,127
41538,note_on,1,0,0,,12,,,71,127
41642,note_off,104,0,0,,12,,,71,127
41642,note_off,0,0,0,,4,,,64,127
41642,note_off,0,0,0,,10,,,69,127
41642,note_off,0,0,0,,0,,,60,127
41643,note_on,1,0,0,,2,,,62,127
41643,note_on,0,0,0,,8,,,68,127
41643,note_on,0,0,0,,4,,,64,127
41643,note_on,0,0,0,,12,,,71,127
41643,note_on,0,0,0,,10,,,81,127
41712,note_off,69,0,0,,10,,,81,127
41713,note_on,1,0,0,,8,,,80,127
41782,note_off,69,0,0,,8,,,80,127
41783,note_on,1,0,0,,10,,,81,127
41852,note_off,69,0,0,,10,,,81,127
41852,note_off,0,0,0,,12,,,71,127
41852,note_off,0,0,0,,4,,,64,127
41852,note_off,0,0,0,,8,,,68,127
41852,note_off,0,0,0,,2,,,62,127
41853,note_on,1,0,0,,2,,,62,127
41853,note_on,0,0,0,,12,,,71,127
41853,note_on,0,0,0,,8,,,68,127
41853,note_on,0,0,0,,4,,,64,127
41853,note_on,0,0,0,,8,,,80,127
41922,note_off,69,0,0,,8,,,80,127
41923,note_on,1,0,0,,10,,,81,127
41992,note_off,69,0,0,,10,,,81,127
41993,note_on,1,0,0,,8,,,80,127
42062,note_off,69,0,0,,8,,,80,127
42062,note_off,0,0,0,,4,,,64,127
42062,note_off,0,0,0,,8,,,68,127
42062,note_off,0,0,0,,12,,,71,127
42062,note_off,0,0,0,,2,,,62,127
42063,note_on,1,0,0,,8,,,68,127
42063,note_on,0,0,0,,12,,,71,127
42063,note_on,0,0,0,,4,,,64,127
42063,note_on,0,0,0,,2,,,62,127
42063,note_on,0,0,0,,10,,,81,127
42132,note_off,69,0,0,,10,,,81,127
42133,note_on,1,0,0,,8,,,80,127
42272,note_off,139,0,0,,8,,,80,127
42272,note_off,0,0,0,,2,,,62,127
42272,note_off,0,0,0,,4,,,64,127
42272,note_off,0,0,0,,12,,,71,127
42272,note_off,0,0,0,,8,,,68,127
42273,note_on,1,0,0,,0,,,60,127
42273,note_on,0,0,0,,10,,,69,127
42273,note_on,0,0,0,,4,,,64,127
42273,note_on,0,0,0,,10,,,81,127
42377,note_off,104,0,0,,10,,,81,127
42378,note_on,1,0,0,,4,,,76,127
42482,note_off,104,0,0,,4,,,76,127
42482,note_off,0,0,0,,4,,,64,127
42482,note_off,0,0,0,,10,,,69,127
42482,note_off,0,0,0,,0,,,60,127
42483,note_on,1,0,0,,0,,,60,127
42483,note_on,0,0,0,,10,,,69,127
42483,note_on,0,0,0,,4,,,64,127
42483,note_on,0,0,0,,5,,,77,127
42587,note_off,104,0,0,,5,,,77,127
42588,note_on,1,0,0,,0,,,72,127
42692,note_off,104,0,0,,0,,,72,127
42692,note_off,0,0,0,,4,,,64,127
42692,note_off,0,0,0,,10,,,69,127
42692,note_off,0,0,0,,0,,,60,127
42693,note_on,1,0,0,,0,,,60,127
42693,note_on,0,0,0,,4,,,64,127
42693,note_on,0,0,0,,2,,,74,127
42797,note_off,104,0,0,,2,,,74,127
42798,note_on,1,0,0,,12,,,71,127
42902,note_off,104,0,0,,12,,,71,127
42902,note_off,0,0,0,,4,,,64,127
42902,note_off,0,0,0,,0,,,60,127
42903,note_on,1,0,0,,4,,,64,127
42903,note_on,0,0,0,,11,,,70,127
42903,note_on,0,0,0,,1,,,73,127
42903,note_on,0,0,0,,12,,,83,127
42972,note_off,69,0,0,,12,,,83,127
42973,note_on,1,0,0,,11,,,82,127
43042,note_off,69,0,0,,11,,,82,127
43043,note_on,1,0,0,,12,,,83,127
43112,note_off,69,0,0,,12,,,83,127
43112,note_off,0,0,0,,1,,,73,127
43112,note_off,0,0,0,,11,,,70,127
43112,note_off,0,0,0,,4,,,64,127
43113,note_on,1,0,0,,4,,,64,127
43113,note_on,0,0,0,,11,,,70,127
43113,note_on,0,0,0,,1,,,73,127
43113,note_on,0,0,0,,11,,,82,127
43182,note_off,69,0,0,,11,,,82,127
43183,note_on,1,0,0,,12,,,83,127
43252,note_off,69,0,0,,12,,,83,127
43253,note_on,1,0,0,,11,,,82,127
43322,note_off,69,0,0,,11,,,82,127
43322,note_off,0,0,0,,1,,,73,127
43322,note_off,0,0,0,,11,,,70,127
43322,note_off,0,0,0,,4,,,64,127
43323,note_on,1,0,0,,4,,,64,127
43323,note_on,0,0,0,,1,,,73,127
43323,note_on,0,0,0,,11,,,70,127
43323,note_on,0,0,0,,12,,,83,127
43392,note_off,69,0,0,,12,,,83,127
43393,note_on,1,0,0,,11,,,82,127
43532,note_off,139,0,0,,11,,,82,127
43532,note_off,0,0,0,,11,,,70,127
43532,note_off,0,0,0,,1,,,73,127
43532,note_off,0,0,0,,4,,,64,127
43533,note_on,1,0,0,,6,,,66,127
43533,note_on,0,0,0,,2,,,62,127
43533,note_on,0,0,0,,12,,,71,127
43533,note_on,0,0,0,,12,,,83,127
43637,note_off,104,0,0,,12,,,83,127
43638,note_on,1,0,0,,6,,,78,127
43742,note_off,104,0,0,,6,,,78,127
43742,note_off,0,0,0,,12,,,71,127
43742,note_off,0,0,0,,2,,,62,127
43742,note_off,0,0,0,,6,,,66,127
43743,note_on,1,0,0,,6,,,66,127
43743,note_on,0,0,0,,2,,,62,127
43743,note_on,0,0,0,,12,,,71,127
43743,note_on,0,0,0,,7,,,79,127
43847,note_off,104,0,0,,7,,,79,127
43848,note_on,1,0,0,,4,,,76,127
43952,note_off,104,0,0,,4,,,76,127
43952,note_off,0,0,0,,12,,,71,127
43952,note_off,0,0,0,,2,,,62,127
43952,note_off,0,0,0,,6,,,66,127
43953,note_on,1,0,0,,6,,,66,127
43953,note_on,0,0,0,,2,,,62,127
43953,note_on,0,0,0,,6,,,78,127
44057,note_off,104,0,0,,6,,,78,127
44058,note_on,1,0,0,,1,,,73,127
44162,note_off,104,0,0,,1,,,73,127
44162,note_off,0,0,0,,2,,,62,127
44162,note_off,0,0,0,,6,,,66,127
44163,note_on,1,0,0,,11,,,70,127
44163,note_on,0,0,0,,4,,,64,127
44163,note_on,0,0,0,,1,,,73,127
44163,note_on,0,0,0,,12,,,83,127
44232,note_off,69,0,0,,12,,,83,127
44233,note_on,1,0,0,,11,,,82,127
44302,note_off,69,0,0,,11,,,82,127
44303,note_on,1,0,0,,12,,,83,127
44372,note_off,69,0,0,,12,,,83,127
44372,note_off,0,0,0,,1,,,73,127
44372,note_off,0,0,0,,4,,,64,127
44372,note_off,0,0,0,,11,,,70,127
44373,note_on,1,0,0,,4,,,64,127
44373,note_on,0,0,0,,11,,,70,127
44373,note_on,0,0,0,,1,,,73,127
44373,note_on,0,0,0,,11,,,82,127
44442,note_off,69,0,0,,11,,,82,127
44443,note_on,1,0,0,,12,,,83,127
44512,note_off,69,0,0,,12,,,83,127
44513,note_on,1,0,0,,11,,,82,127
44582,note_off,69,0,0,,11,,,82,127
44582,note_off,0,0,0,,1,,,73,127
44582,note_off,0,0,0,,11,,,70,127
44582,note_off,0,0,0,,4,,,64,127
44583,note_on,1,0,0,,11,,,70,127
44583,note_on,0,0,0,,1,,,73,127
44583,note_on,0,0,0,,4,,,64,127
44583,note_on,0,0,0,,12,,,83,127
44652,note_off,69,0,0,,12,,,83,127
44653,note_on,1,0,0,,11,,,82,127
44792,note_off,139,0,0,,11,,,82,127
44792,note_off,0,0,0,,4,,,64,127
44792,note_off,0,0,0,,1,,,73,127
44792,note_off,0,0,0,,11,,,70,127
44793,note_on,1,0,0,,3,,,63,127
44793,note_on,0,0,0,,10,,,69,127
44793,note_on,0,0,0,,12,,,71,127
44793,note_on,0,0,0,,12,,,83,127
44897,note_off,104,0,0,,12,,,83,127
44898,note_on,1,0,0,,6,,,78,127
45002,note_off,104,0,0,,6,,,78,127
45002,note_off,0,0,0,,12,,,71,127
45002,note_off,0,0,0,,10,,,69,127
45002,note_off,0,0,0,,3,,,63,127
45003,note_on,1,0,0,,3,,,63,127
45003,note_on,0,0,0,,12,,,71,127
45003,note_on,0,0,0,,10,,,69,127
45003,note_on,0,0,0,,7,,,79,127
45107,note_off,104,0,0,,7,,,79,127
45108,note_on,1,0,0,,4,,,76,127
45212,note_off,104,0,0,,4,,,76,127
45212,note_off,0,0,0,,10,,,69,127
45212,note_off,0,0,0,,12,,,71,127
45212,note_off,0,0,0,,3,,,63,127
45213,note_on,1,0,0,,3,,,63,127
45213,note_on,0,0,0,,10,,,69,127
45213,note_on,0,0,0,,12,,,71,127
45213,note_on,0,0,0,,6,,,78,127
45317,note_off,104,0,0,,6,,,78,127
45318,note_on,1,0,0,,3,,,75,127
45422,note_off,104,0,0,,3,,,75,127
45422,note_off,0,0,0,,12,,,71,127
45422,note_off,0,0,0,,10,,,69,127
45422,note_off,0,0,0,,3,,,63,127
45423,note_on,1,0,0,,7,,,67,127
45423,note_on,0,0,0,,4,,,64,127
45423,note_on,0,0,0,,12,,,71,127
45423,note_on,0,0,0,,12,,,83,127
45527,note_off,104,0,0,,12,,,83,127
45528,note_on,1,0,0,,7,,,79,127
45632,note_off,104,0,0,,7,,,79,127
45632,note_off,0,0,0,,12,,,71,127
45632,note_off,0,0,0,,4,,,64,127
45632,note_off,0,0,0,,7,,,67,127
45633,note_on,1,0,0,,10,,,69,127
45633,note_on,0,0,0,,6,,,66,127
45633,note_on,0,0,0,,10,,,81,127
45737,note_off,104,0,0,,10,,,81,127
45738,note_on,1,0,0,,6,,,78,127
45842,note_off,104,0,0,,6,,,78,127
45842,note_off,0,0,0,,6,,,66,127
45842,note_off,0,0,0,,10,,,69,127
45843,note_on,1,0,0,,12,,,71,127
45843,note_on,0,0,0,,7,,,67,127
45843,note_on,0,0,0,,7,,,79,127
45947,note_off,104,0,0,,7,,,79,127
45948,note_on,1,0,0,,4,,,76,127
46052,note_off,104,0,0,,4,,,76,127
46052,note_off,0,0,0,,7,,,67,127
46052,note_off,0,0,0,,12,,,71,127
46053,note_on,1,0,0,,10,,,69,127
46053,note_on,0,0,0,,0,,,84,127
46157,note_off,104,0,0,,0,,,84,127
46158,note_on,1,0,0,,7,,,79,127
46262,note_off,104,0,0,,7,,,79,127
46262,note_off,0,0,0,,10,,,69,127
46263,note_on,1,0,0,,12,,,71,127
46263,note_on,0,0,0,,10,,,81,127
46367,note_off,104,0,0,,10,,,81,127
46368,note_on,1,0,0,,6,,,78,127
46472,note_off,104,0,0,,6,,,78,127
46472,note_off,0,0,0,,12,,,71,127
46473,note_on,1,0,0,,0,,,72,127
46473,note_on,0,0,0,,7,,,79,127
46577,note_off,104,0,0,,7,,,79,127
46578,note_on,1,0,0,,4,,,76,127
46682,note_off,104,0,0,,4,,,76,127
46682,note_off,0,0,0,,0,,,72,127
46683,note_on,1,0,0,,12,,,71,127
46683,note_on,0,0,0,,3,,,75,127
46891,note_off,208,0,0,,3,,,75,127
46891,note_off,0,0,0,,12,,,71,127
46892,note_on,1,0,0,,7,,,67,127
46892,note_on,0,0,0,,6,,,78,127
46961,note_off,69,0,0,,6,,,78,127
46962,note_on,1,0,0,,4,,,76,127
47031,note_off,69,0,0,,4,,,76,127
47032,note_on,1,0,0,,6,,,78,127
47101,note_off,69,0,0,,6,,,78,127
47101,note_off,0,0,0,,7,,,67,127
47102,note_on,1,0,0,,4,,,64,127
47102,note_on,0,0,0,,4,,,76,127
47171,note_off,69,0,0,,4,,,76,127
47172,note_on,1,0,0,,3,,,75,127
47241,note_off,69,0,0,,3,,,75,127
47242,note_on,1,0,0,,4,,,76,127
47311,note_off,69,0,0,,4,,,76,127
47311,note_off,0,0,0,,4,,,64,127
47312,note_on,1,0,0,,12,,,59,127
47312,note_on,0,0,0,,6,,,78,127
47416,note_off,104,0,0,,6,,,78,127
47417,note_on,1,0,0,,12,,,71,127
47521,note_off,104,0,0,,12,,,71,127
47521,note_off,0,0,0,,12,,,59,127
47522,note_on,1,0,0,,3,,,63,127
47522,note_on,0,0,0,,12,,,59,127
47522,note_on,0,0,0,,0,,,72,127
47626,note_off,104,0,0,,0,,,72,127
47627,note_on,1,0,0,,10,,,69,127
47731,note_off,104,0,0,,10,,,69,127
47731,note_off,0,0,0,,12,,,59,127
47731,note_off,0,0,0,,3,,,63,127
47732,note_on,1,0,0,,3,,,63,127
47732,note_on,0,0,0,,12,,,59,127
47732,note_on,0,0,0,,12,,,71,127
47836,note_off,104,0,0,,12,,,71,127
47837,note_on,1,0,0,,6,,,66,127
47941,note_off,104,0,0,,6,,,66,127
47941,note_off,0,0,0,,12,,,59,127
47941,note_off,0,0,0,,3,,,63,127
47942,note_on,1,0,0,,4,,,52,127
47942,note_on,0,0,0,,4,,,64,127
47942,note_on,0,0,0,,12,,,71,127
48046,note_off,104,0,0,,12,,,71,127
48047,note_on,1,0,0,,7,,,67,127
48151,note_off,104,0,0,,7,,,67,127
48151,note_off,0,0,0,,4,,,64,127
48151,note_off,0,0,0,,4,,,52,127
48152,note_on,1,0,0,,6,,,54,127
48152,note_on,0,0,0,,10,,,69,127
48256,note_off,104,0,0,,10,,,69,127
48257,note_on,1,0,0,,6,,,66,127
48361,note_off,104,0,0,,6,,,66,127
48361,note_off,0,0,0,,6,,,54,127
48362,note_on,1,0,0,,12,,,59,127
48362,note_on,0,0,0,,7,,,55,127
48362,note_on,0,0,0,,7,,,67,127
48466,note_off,104,0,0,,7,,,67,127
48467,note_on,1,0,0,,4,,,64,127
48571,note_off,104,0,0,,4,,,64,127
48571,note_off,0,0,0,,7,,,55,127
48571,note_off,0,0,0,,12,,,59,127
48572,note_on,1,0,0,,0,,,60,127
48572,note_on,0,0,0,,10,,,57,127
48572,note_on,0,0,0,,0,,,72,127
48676,note_off,104,0,0,,0,,,72,127
48677,note_on,1,0,0,,7,,,67,127
48781,note_off,104,0,0,,7,,,67,127
48781,note_off,0,0,0,,10,,,57,127
48781,note_off,0,0,0,,0,,,60,127
48782,note_on,1,0,0,,12,,,59,127
48782,note_on,0,0,0,,10,,,69,127
48886,note_off,104,0,0,,10,,,69,127
48887,note_on,1,0,0,,6,,,66,127
48991,note_off,104,0,0,,6,,,66,127
48991,note_off,0,0,0,,12,,,59,127
48992,note_on,1,0,0,,0,,,60,127
48992,note_on,0,0,0,,7,,,67,127
49096,note_off,104,0,0,,7,,,67,127
49097,note_on,1,0,0,,4,,,64,127
49201,note_off,104,0,0,,4,,,64,127
49201,note_off,0,0,0,,0,,,60,127
49202,note_on,1,0,0,,12,,,59,127
49202,note_on,0,0,0,,3,,,63,127
49410,note_off,208,0,0,,3,,,63,127
49410,note_off,0,0,0,,12,,,59,127
49411,note_on,1,0,0,,7,,,55,127
49411,note_on,0,0,0,,6,,,66,127
49480,note_off,69,0,0,,6,,,66,127
49481,note_on,1,0,0,,4,,,64,127
49550,note_off,69,0,0,,4,,,64,127
49551,note_on,1,0,0,,6,,,66,127
49620,note_off,69,0,0,,6,,,66,127
49620,note_off,0,0,0,,7,,,55,127
49621,note_on,1,0,0,,4,,,52,127
49621,note_on,0,0,0,,4,,,64,127
49690,note_off,69,0,0,,4,,,64,127
49691,note_on,1,0,0,,3,,,63,127
49760,note_off,69,0,0,,3,,,63,127
49761,note_on,1,0,0,,4,,,64,127
49830,note_off,69,0,0,,4,,,64,127
49830,note_off,0,0,0,,4,,,52,127
49831,note_on,1,0,0,,12,,,47,127
49831,note_on,0,0,0,,4,,,64,127
50039,note_off,208,0,0,,12,,,47,127
50040,note_on,1,0,0,,12,,,59,127
50144,note_off,104,0,0,,12,,,59,127
50145,note_on,1,0,0,,10,,,57,127
50249,note_off,104,0,0,,10,,,57,127
50249,note_off,0,0,0,,4,,,64,127
50250,note_on,1,0,0,,7,,,55,127
50250,note_on,0,0,0,,6,,,66,127
50354,note_off,104,0,0,,7,,,55,127
50355,note_on,1,0,0,,6,,,54,127
50459,note_off,104,0,0,,6,,,54,127
50459,note_off,0,0,0,,6,,,66,127
50460,note_on,1,0,0,,4,,,52,127
50564,note_off,104,0,0,,4,,,52,127
50565,note_on,1,0,0,,4,,,64,127
50565,note_on,0,0,0,,7,,,67,127
50669,note_off,104,0,0,,7,,,67,127
50669,note_off,0,0,0,,4,,,64,127
50670,note_on,1,0,0,,3,,,63,127
50670,note_on,0,0,0,,6,,,66,127
50774,note_off,104,0,0,,6,,,66,127
50774,note_off,0,0,0,,3,,,63,127
50775,note_on,1,0,0,,4,,,64,127
50775,note_on,0,0,0,,7,,,67,127
50879,note_off,104,0,0,,7,,,67,127
50879,note_off,0,0,0,,4,,,64,127
50880,note_on,1,0,0,,6,,,66,127
50880,note_on,0,0,0,,10,,,69,127
50984,note_off,104,0,0,,10,,,69,127
50984,note_off,0,0,0,,6,,,66,127
50985,note_on,1,0,0,,4,,,64,127
50985,note_on,0,0,0,,7,,,67,127
51089,note_off,104,0,0,,7,,,67,127
51089,note_off,0,0,0,,4,,,64,127
51090,note_on,1,0,0,,10,,,57,127
51090,note_on,0,0,0,,0,,,72,127
51194,note_off,104,0,0,,0,,,72,127
51194,note_off,0,0,0,,10,,,57,127
51195,note_on,1,0,0,,4,,,64,127
51195,note_on,0,0,0,,7,,,67,127
51299,note_off,104,0,0,,7,,,67,127
51299,note_off,0,0,0,,4,,,64,127
51300,note_on,1,0,0,,3,,,63,127
51300,note_on,0,0,0,,6,,,66,127
51404,note_off,104,0,0,,6,,,66,127
51404,note_off,0,0,0,,3,,,63,127
51405,note_on,1,0,0,,4,,,64,127
51405,note_on,0,0,0,,7,,,67,127
51509,note_off,104,0,0,,7,,,67,127
51509,note_off,0,0,0,,4,,,64,127
51510,note_on,1,0,0,,6,,,66,127
51510,note_on,0,0,0,,10,,,69,127
51614,note_off,104,0,0,,10,,,69,127
51614,note_off,0,0,0,,6,,,66,127
51615,note_on,1,0,0,,4,,,64,127
51615,note_on,0,0,0,,7,,,67,127
51719,note_off,104,0,0,,7,,,67,127
51719,note_off,0,0,0,,4,,,64,127
51720,note_on,1,0,0,,7,,,55,127
51720,note_on,0,0,0,,12,,,71,127
51824,note_off,104,0,0,,12,,,71,127
51824,note_off,0,0,0,,7,,,55,127
51825,note_on,1,0,0,,4,,,64,127
51825,note_on,0,0,0,,7,,,67,127
51929,note_off,104,0,0,,7,,,67,127
51929,note_off,0,0,0,,4,,,64,127
51930,note_on,1,0,0,,3,,,63,127
51930,note_on,0,0,0,,6,,,66,127
52034,note_off,104,0,0,,6,,,66,127
52034,note_off,0,0,0,,3,,,63,127
52035,note_on,1,0,0,,4,,,64,127
52035,note_on,0,0,0,,7,,,67,127
52139,note_off,104,0,0,,7,,,67,127
52139,note_off,0,0,0,,4,,,64,127
52140,note_on,1,0,0,,6,,,66,127
52140,note_on,0,0,0,,10,,,69,127
52244,note_off,104,0,0,,10,,,69,127
52244,note_off,0,0,0,,6,,,66,127
52245,note_on,1,0,0,,4,,,64,127
52245,note_on,0,0,0,,7,,,67,127
52349,note_off,104,0,0,,7,,,67,127
52349,note_off,0,0,0,,4,,,64,127
52350,note_on,1,0,0,,6,,,54,127
52350,note_on,0,0,0,,3,,,75,127
52454,note_off,104,0,0,,3,,,75,127
52454,note_off,0,0,0,,6,,,54,127
52455,note_on,1,0,0,,4,,,64,127
52455,note_on,0,0,0,,7,,,67,127
52559,note_off,104,0,0,,7,,,67,127
52559,note_off,0,0,0,,4,,,64,127
52560,note_on,1,0,0,,3,,,63,127
52560,note_on,0,0,0,,6,,,66,127
52664,note_off,104,0,0,,6,,,66,127
52664,note_off,0,0,0,,3,,,63,127
52665,note_on,1,0,0,,4,,,64,127
52665,note_on,0,0,0,,7,,,67,127
52769,note_off,104,0,0,,7,,,67,127
52769,note_off,0,0,0,,4,,,64,127
52770,note_on,1,0,0,,6,,,66,127
52770,note_on,0,0,0,,10,,,69,127
52874,note_off,104,0,0,,10,,,69,127
52874,note_off,0,0,0,,6,,,66,127
52875,note_on,1,0,0,,4,,,64,127
52875,note_on,0,0,0,,7,,,67,127
52979,note_off,104,0,0,,7,,,67,127
52979,note_off,0,0,0,,4,,,64,127
52980,note_on,1,0,0,,4,,,52,127
52980,note_on,0,0,0,,4,,,76,127
53084,note_off,104,0,0,,4,,,76,127
53084,note_off,0,0,0,,4,,,52,127
53085,note_on,1,0,0,,4,,,64,127
53085,note_on,0,0,0,,7,,,67,127
53189,note_off,104,0,0,,7,,,67,127
53189,note_off,0,0,0,,4,,,64,127
53190,note_on,1,0,0,,3,,,63,127
53190,note_on,0,0,0,,6,,,66,127
53294,note_off,104,0,0,,6,,,66,127
53294,note_off,0,0,0,,3,,,63,127
53295,note_on,1,0,0,,4,,,64,127
53295,note_on,0,0,0,,7,,,67,127
53399,note_off,104,0,0,,7,,,67,127
53399,note_off,0,0,0,,4,,,64,127
53400,note_on,1,0,0,,6,,,66,127
53400,note_on,0,0,0,,10,,,69,127
53504,note_off,104,0,0,,10,,,69,127
53504,note_off,0,0,0,,6,,,66,127
53505,note_on,1,0,0,,4,,,64,127
53505,note_on,0,0,0,,7,,,67,127
53609,note_off,104,0,0,,7,,,67,127
53609,note_off,0,0,0,,4,,,64,127
53610,note_on,1,0,0,,2,,,50,127
53610,note_on,0,0,0,,4,,,76,127
53714,note_off,104,0,0,,4,,,76,127
53714,note_off,0,0,0,,2,,,50,127
53715,note_on,1,0,0,,4,,,64,127
53715,note_on,0,0,0,,7,,,67,127
53819,note_off,104,0,0,,7,,,67,127
53819,note_off,0,0,0,,4,,,64,127
53820,note_on,1,0,0,,3,,,63,127
53820,note_on,0,0,0,,6,,,66,127
53924,note_off,104,0,0,,6,,,66,127
53924,note_off,0,0,0,,3,,,63,127
53925,note_on,1,0,0,,4,,,64,127
53925,note_on,0,0,0,,7,,,67,127
54029,note_off,104,0,0,,7,,,67,127
54029,note_off,0,0,0,,4,,,64,127
54030,note_on,1,0,0,,6,,,66,127
54030,note_on,0,0,0,,10,,,69,127
54134,note_off,104,0,0,,10,,,69,127
54134,note_off,0,0,0,,6,,,66,127
54135,note_on,1,0,0,,4,,,64,127
54135,note_on,0,0,0,,7,,,67,127
54239,note_off,104,0,0,,7,,,67,127
54239,note_off,0,0,0,,4,,,64,127
54240,note_on,1,0,0,,0,,,48,127
54240,note_on,0,0,0,,4,,,76,127
54344,note_off,104,0,0,,4,,,76,127
54344,note_off,0,0,0,,0,,,48,127
54345,note_on,1,0,0,,4,,,64,127
54345,note_on,0,0,0,,7,,,67,127
54449,note_off,104,0,0,,7,,,67,127
54449,note_off,0,0,0,,4,,,64,127
54450,note_on,1,0,0,,3,,,63,127
54450,note_on,0,0,0,,6,,,66,127
54554,note_off,104,0,0,,6,,,66,127
54554,note_off,0,0,0,,3,,,63,127
54555,note_on,1,0,0,,4,,,64,127
54555,note_on,0,0,0,,7,,,67,127
54659,note_off,104,0,0,,7,,,67,127
54659,note_off,0,0,0,,4,,,64,127
54660,note_on,1,0,0,,6,,,66,127
54660,note_on,0,0,0,,10,,,69,127
54764,note_off,104,0,0,,10,,,69,127
54764,note_off,0,0,0,,6,,,66,127
54765,note_on,1,0,0,,4,,,64,127
54765,note_on,0,0,0,,7,,,67,127
54869,note_off,104,0,0,,7,,,67,127
54869,note_off,0,0,0,,4,,,64,127
54870,note_on,1,0,0,,12,,,47,127
54870,note_on,0,0,0,,4,,,76,127
54974,note_off,104,0,0,,4,,,76,127
54974,note_off,0,0,0,,12,,,47,127
54975,note_on,1,0,0,,4,,,64,127
54975,note_on,0,0,0,,7,,,67,127
55079,note_off,104,0,0,,7,,,67,127
55079,note_off,0,0,0,,4,,,64,127
55080,note_on,1,0,0,,3,,,63,127
55080,note_on,0,0,0,,6,,,66,127
55184,note_off,104,0,0,,6,,,66,127
55184,note_off,0,0,0,,3,,,63,127
55185,note_on,1,0,0,,4,,,64,127
55185,note_on,0,0,0,,7,,,67,127
55289,note_off,104,0,0,,7,,,67,127
55289,note_off,0,0,0,,4,,,64,127
55290,note_on,1,0,0,,6,,,66,127
55290,note_on,0,0,0,,10,,,69,127
55394,note_off,104,0,0,,10,,,69,127
55394,note_off,0,0,0,,6,,,66,127
55395,note_on,1,0,0,,4,,,64,127
55395,note_on,0,0,0,,7,,,67,127
55499,note_off,104,0,0,,7,,,67,127
55499,note_off,0,0,0,,4,,,64,127
55500,note_on,1,0,0,,10,,,45,127
55500,note_on,0,0,0,,4,,,76,127
55604,note_off,104,0,0,,4,,,76,127
55604,note_off,0,0,0,,10,,,45,127
55605,note_on,1,0,0,,4,,,64,127
55605,note_on,0,0,0,,7,,,67,127
55709,note_off,104,0,0,,7,,,67,127
55709,note_off,0,0,0,,4,,,64,127
55710,note_on,1,0,0,,3,,,63,127
55710,note_on,0,0,0,,6,,,66,127
55814,note_off,104,0,0,,6,,,66,127
55814,note_off,0,0,0,,3,,,63,127
55815,note_on,1,0,0,,4,,,64,127
55815,note_on,0,0,0,,7,,,67,127
55919,note_off,104,0,0,,7,,,67,127
55919,note_off,0,0,0,,4,,,64,127
55920,note_on,1,0,0,,6,,,66,127
55920,note_on,0,0,0,,10,,,69,127
56024,note_off,104,0,0,,10,,,69,127
56024,note_off,0,0,0,,6,,,66,127
56025,note_on,1,0,0,,4,,,64,127
56025,note_on,0,0,0,,7,,,67,127
56129,note_off,104,0,0,,7,,,67,127
56129,note_off,0,0,0,,4,,,64,127
56130,note_on,1,0,0,,7,,,43,127
56130,note_on,0,0,0,,4,,,76,127
56234,note_off,104,0,0,,4,,,76,127
56235,note_on,1,0,0,,2,,,74,127
56339,note_off,104,0,0,,2,,,74,127
56340,note_on,1,0,0,,0,,,72,127
56444,note_off,104,0,0,,0,,,72,127
56445,note_on,1,0,0,,12,,,71,127
56549,note_off,104,0,0,,12,,,71,127
56550,note_on,1,0,0,,10,,,69,127
56654,note_off,104,0,0,,10,,,69,127
56655,note_on,1,0,0,,7,,,67,127
56759,note_off,104,0,0,,7,,,67,127
56759,note_off,0,0,0,,7,,,43,127
56760,note_on,1,0,0,,10,,,57,127
56760,note_on,0,0,0,,6,,,66,127
56829,note_off,69,0,0,,6,,,66,127
56830,note_on,1,0,0,,7,,,67,127
56899,note_off,69,0,0,,7,,,67,127
56900,note_on,1,0,0,,10,,,69,127
56969,note_off,69,0,0,,10,,,69,127
56969,note_off,0,0,0,,10,,,57,127
56970,note_on,1,0,0,,12,,,59,127
56970,note_on,0,0,0,,7,,,67,127
57074,note_off,104,0,0,,7,,,67,127
57075,note_on,1,0,0,,6,,,66,127
57179,note_off,104,0,0,,6,,,66,127
57180,note_on,1,0,0,,12,,,47,127
57180,note_on,0,0,0,,4,,,64,127
57284,note_off,104,0,0,,4,,,64,127
57285,note_on,1,0,0,,3,,,63,127
57389,note_off,104,0,0,,3,,,63,127
57389,note_off,0,0,0,,12,,,47,127
57389,note_off,0,0,0,,12,,,59,127
57390,note_on,1,0,0,,4,,,52,127
57390,note_on,0,0,0,,4,,,76,127
57494,note_off,104,0,0,,4,,,76,127
57494,note_off,0,0,0,,4,,,52,127
57495,note_on,1,0,0,,4,,,64,127
57495,note_on,0,0,0,,7,,,67,127
57599,note_off,104,0,0,,7,,,67,127
57599,note_off,0,0,0,,4,,,64,127
57600,note_on,1,0,0,,3,,,63,127
57600,note_on,0,0,0,,6,,,66,127
57704,note_off,104,0,0,,6,,,66,127
57704,note_off,0,0,0,,3,,,63,127
57705,note_on,1,0,0,,4,,,64,127
57705,note_on,0,0,0,,7,,,67,127
57809,note_off,104,0,0,,7,,,67,127
57809,note_off,0,0,0,,4,,,64,127
57810,note_on,1,0,0,,6,,,66,127
57810,note_on,0,0,0,,10,,,69,127
57914,note_off,104,0,0,,10,,,69,127
57914,note_off,0,0,0,,6,,,66,127
57915,note_on,1,0,0,,4,,,64,127
57915,note_on,0,0,0,,7,,,67,127
58019,note_off,104,0,0,,7,,,67,127
58019,note_off,0,0,0,,4,,,64,127
58020,note_on,1,0,0,,10,,,57,127
58020,note_on,0,0,0,,0,,,72,127
58124,note_off,104,0,0,,0,,,72,127
58124,note_off,0,0,0,,10,,,57,127
58125,note_on,1,0,0,,4,,,64,127
58125,note_on,0,0,0,,7,,,67,127
58229,note_off,104,0,0,,7,,,67,127
58229,note_off,0,0,0,,4,,,64,127
58230,note_on,1,0,0,,3,,,63,127
58230,note_on,0,0,0,,6,,,66,127
58334,note_off,104,0,0,,6,,,66,127
58334,note_off,0,0,0,,3,,,63,127
58335,note_on,1,0,0,,4,,,64,127
58335,note_on,0,0,0,,7,,,67,127
58439,note_off,104,0,0,,7,,,67,127
58439,note_off,0,0,0,,4,,,64,127
58440,note_on,1,0,0,,6,,,66,127
58440,note_on,0,0,0,,10,,,69,127
58544,note_off,104,0,0,,10,,,69,127
58544,note_off,0,0,0,,6,,,66,127
58545,note_on,1,0,0,,4,,,64,127
58545,note_on,0,0,0,,7,,,67,127
58649,note_off,104,0,0,,7,,,67,127
58649,note_off,0,0,0,,4,,,64,127
58650,note_on,1,0,0,,7,,,55,127
58650,note_on,0,0,0,,12,,,71,127
58754,note_off,104,0,0,,12,,,71,127
58754,note_off,0,0,0,,7,,,55,127
58755,note_on,1,0,0,,4,,,64,127
58755,note_on,0,0,0,,7,,,67,127
58859,note_off,104,0,0,,7,,,67,127
58859,note_off,0,0,0,,4,,,64,127
58860,note_on,1,0,0,,3,,,63,127
58860,note_on,0,0,0,,6,,,66,127
58964,note_off,104,0,0,,6,,,66,127
58964,note_off,0,0,0,,3,,,63,127
58965,note_on,1,0,0,,4,,,64,127
58965,note_on,0,0,0,,7,,,67,127
59069,note_off,104,0,0,,7,,,67,127
59069,note_off,0,0,0,,4,,,64,127
59070,note_on,1,0,0,,6,,,66,127
59070,note_on,0,0,0,,10,,,69,127
59174,note_off,104,0,0,,10,,,69,127
59174,note_off,0,0,0,,6,,,66,127
59175,note_on,1,0,0,,4,,,64,127
59175,note_on,0,0,0,,7,,,67,127
59279,note_off,104,0,0,,7,,,67,127
59279,note_off,0,0,0,,4,,,64,127
59280,note_on,1,0,0,,6,,,54,127
59280,note_on,0,0,0,,3,,,75,127
59384,note_off,104,0,0,,3,,,75,127
59384,note_off,0,0,0,,6,,,54,127
59385,note_on,1,0,0,,4,,,64,127
59385,note_on,0,0,0,,7,,,67,127
59489,note_off,104,0,0,,7,,,67,127
59489,note_off,0,0,0,,4,,,64,127
59490,note_on,1,0,0,,3,,,63,127
59490,note_on,0,0,0,,6,,,66,127
59594,note_off,104,0,0,,6,,,66,127
59594,note_off,0,0,0,,3,,,63,127
59595,note_on,1,0,0,,4,,,64,127
59595,note_on,0,0,0,,7,,,67,127
59699,note_off,104,0,0,,7,,,67,127
59699,note_off,0,0,0,,4,,,64,127
59700,note_on,1,0,0,,6,,,66,127
59700,note_on,0,0,0,,10,,,69,127
59804,note_off,104,0,0,,10,,,69,127
59804,note_off,0,0,0,,6,,,66,127
59805,note_on,1,0,0,,4,,,64,127
59805,note_on,0,0,0,,7,,,67,127
59909,note_off,104,0,0,,7,,,67,127
59909,note_off,0,0,0,,4,,,64,127
59910,note_on,1,0,0,,4,,,52,127
59910,note_on,0,0,0,,4,,,76,127
60014,note_off,104,0,0,,4,,,76,127
60014,note_off,0,0,0,,4,,,52,127
60015,note_on,1,0,0,,4,,,64,127
60015,note_on,0,0,0,,7,,,67,127
60119,note_off,104,0,0,,7,,,67,127
60119,note_off,0,0,0,,4,,,64,127
60120,note_on,1,0,0,,3,,,63,127
60120,note_on,0,0,0,,6,,,66,127
60224,note_off,104,0,0,,6,,,66,127
60224,note_off,0,0,0,,3,,,63,127
60225,note_on,1,0,0,,4,,,64,127
60225,note_on,0,0,0,,7,,,67,127
60329,note_off,104,0,0,,7,,,67,127
60329,note_off,0,0,0,,4,,,64,127
60330,note_on,1,0,0,,6,,,66,127
60330,note_on,0,0,0,,10,,,69,127
60434,note_off,104,0,0,,10,,,69,127
60434,note_off,0,0,0,,6,,,66,127
60435,note_on,1,0,0,,4,,,64,127
60435,note_on,0,0,0,,7,,,67,127
60539,note_off,104,0,0,,7,,,67,127
60539,note_off,0,0,0,,4,,,64,127
60540,note_on,1,0,0,,2,,,50,127
60540,note_on,0,0,0,,4,,,76,127
60644,note_off,104,0,0,,4,,,76,127
60644,note_off,0,0,0,,2,,,50,127
60645,note_on,1,0,0,,4,,,64,127
60645,note_on,0,0,0,,7,,,67,127
60749,note_off,104,0,0,,7,,,67,127
60749,note_off,0,0,0,,4,,,64,127
60750,note_on,1,0,0,,3,,,63,127
60750,note_on,0,0,0,,6,,,66,127
60854,note_off,104,0,0,,6,,,66,127
60854,note_off,0,0,0,,3,,,63,127
60855,note_on,1,0,0,,4,,,64,127
60855,note_on,0,0,0,,7,,,67,127
60959,note_off,104,0,0,,7,,,67,127
60959,note_off,0,0,0,,4,,,64,127
60960,note_on,1,0,0,,6,,,66,127
60960,note_on,0,0,0,,10,,,69,127
61064,note_off,104,0,0,,10,,,69,127
61064,note_off,0,0,0,,6,,,66,127
61065,note_on,1,0,0,,4,,,64,127
61065,note_on,0,0,0,,7,,,67,127
61169,note_off,104,0,0,,7,,,67,127
61169,note_off,0,0,0,,4,,,64,127
61170,note_on,1,0,0,,0,,,48,127
61170,note_on,0,0,0,,4,,,76,127
61274,note_off,104,0,0,,4,,,76,127
61274,note_off,0,0,0,,0,,,48,127
61275,note_on,1,0,0,,4,,,64,127
61275,note_on,0,0,0,,7,,,67,127
61379,note_off,104,0,0,,7,,,67,127
61379,note_off,0,0,0,,4,,,64,127
61380,note_on,1,0,0,,3,,,63,127
61380,note_on,0,0,0,,6,,,66,127
61484,note_off,104,0,0,,6,,,66,127
61484,note_off,0,0,0,,3,,,63,127
61485,note_on,1,0,0,,4,,,64,127
61485,note_on,0,0,0,,7,,,67,127
61589,note_off,104,0,0,,7,,,67,127
61589,note_off,0,0,0,,4,,,64,127
61590,note_on,1,0,0,,6,,,66,127
61590,note_on,0,0,0,,10,,,69,127
61694,note_off,104,0,0,,10,,,69,127
61694,note_off,0,0,0,,6,,,66,127
61695,note_on,1,0,0,,4,,,64,127
61695,note_on,0,0,0,,7,,,67,127
61799,note_off,104,0,0,,7,,,67,127
61799,note_off,0,0,0,,4,,,64,127
61800,note_on,1,0,0,,12,,,47,127
61800,note_on,0,0,0,,4,,,76,127
61904,note_off,104,0,0,,4,,,76,127
61904,note_off,0,0,0,,12,,,47,127
61905,note_on,1,0,0,,4,,,64,127
61905,note_on,0,0,0,,7,,,67,127
62009,note_off,104,0,0,,7,,,67,127
62009,note_off,0,0,0,,4,,,64,127
62010,note_on,1,0,0,,3,,,63,127
62010,note_on,0,0,0,,6,,,66,127
62114,note_off,104,0,0,,6,,,66,127
62114,note_off,0,0,0,,3,,,63,127
62115,note_on,1,0,0,,4,,,64,127
62115,note_on,0,0,0,,7,,,67,127
62219,note_off,104,0,0,,7,,,67,127
62219,note_off,0,0,0,,4,,,64,127
62220,note_on,1,0,0,,6,,,66,127
62220,note_on,0,0,0,,10,,,69,127
62324,note_off,104,0,0,,10,,,69,127
62324,note_off,0,0,0,,6,,,66,127
62325,note_on,1,0,0,,4,,,64,127
62325,note_on,0,0,0,,7,,,67,127
62429,note_off,104,0,0,,7,,,67,127
62429,note_off,0,0,0,,4,,,64,127
62430,note_on,1,0,0,,10,,,45,127
62430,note_on,0,0,0,,4,,,76,127
62534,note_off,104,0,0,,4,,,76,127
62534,note_off,0,0,0,,10,,,45,127
62535,note_on,1,0,0,,4,,,64,127
62535,note_on,0,0,0,,7,,,67,127
62639,note_off,104,0,0,,7,,,67,127
62639,note_off,0,0,0,,4,,,64,127
62640,note_on,1,0,0,,3,,,63,127
62640,note_on,0,0,0,,6,,,66,127
62744,note_off,104,0,0,,6,,,66,127
62744,note_off,0,0,0,,3,,,63,127
62745,note_on,1,0,0,,4,,,64,127
62745,note_on,0,0,0,,7,,,67,127
62849,note_off,104,0,0,,7,,,67,127
62849,note_off,0,0,0,,4,,,64,127
62850,note_on,1,0,0,,6,,,66,127
62850,note_on,0,0,0,,10,,,69,127
62954,note_off,104,0,0,,10,,,69,127
62954,note_off,0,0,0,,6,,,66,127
62955,note_on,1,0,0,,4,,,64,127
62955,note_on,0,0,0,,7,,,67,127
63059,note_off,104,0,0,,7,,,67,127
63059,note_off,0,0,0,,4,,,64,127
63060,note_on,1,0,0,,7,,,43,127
63060,note_on,0,0,0,,4,,,76,127
63164,note_off,104,0,0,,4,,,76,127
63165,note_on,1,0,0,,2,,,74,127
63269,note_off,104,0,0,,2,,,74,127
63270,note_on,1,0,0,,0,,,72,127
63374,note_off,104,0,0,,0,,,72,127
63375,note_on,1,0,0,,12,,,71,127
63479,note_off,104,0,0,,12,,,71,127
63480,note_on,1,0,0,,10,,,69,127
63584,note_off,104,0,0,,10,,,69,127
63585,note_on,1,0,0,,7,,,67,127
63689,note_off,104,0,0,,7,,,67,127
63689,note_off,0,0,0,,7,,,43,127
63690,note_on,1,0,0,,10,,,57,127
63690,note_on,0,0,0,,10,,,69,127
63759,note_off,69,0,0,,10,,,69,127
63760,note_on,1,0,0,,7,,,67,127
63829,note_off,69,0,0,,7,,,67,127
63830,note_on,1,0,0,,6,,,66,127
63899,note_off,69,0,0,,6,,,66,127
63899,note_off,0,0,0,,10,,,57,127
63900,note_on,1,0,0,,12,,,59,127
63900,note_on,0,0,0,,4,,,64,127
63900,note_on,0,0,0,,7,,,67,127
64108,note_off,208,0,0,,7,,,67,127
64108,note_off,0,0,0,,4,,,64,127
64109,note_on,1,0,0,,12,,,47,127
64109,note_on,0,0,0,,6,,,66,127
64109,note_on,0,0,0,,3,,,63,127
64317,note_off,208,0,0,,3,,,63,127
64317,note_off,0,0,0,,6,,,66,127
64317,note_off,0,0,0,,12,,,47,127
64317,note_off,0,0,0,,12,,,59,127
64318,note_on,1,0,0,,4,,,52,127
64318,note_on,0,0,0,,4,,,64,127
64526,note_off,208,0,0,,4,,,64,127
64527,note_on,1,0,0,,7,,,79,127
64527,note_on,0,0,0,,0,,,72,127
64735,note_off,208,0,0,,0,,,72,127
64735,note_off,0,0,0,,4,,,52,127
64736,note_on,1,0,0,,4,,,64,127
64736,note_on,0,0,0,,11,,,70,127
64944,note_off,208,0,0,,11,,,70,127
64944,note_off,0,0,0,,4,,,64,127
64945,note_on,1,0,0,,3,,,63,127
64945,note_on,0,0,0,,12,,,71,127
65153,note_off,208,0,0,,12,,,71,127
65153,note_off,0,0,0,,7,,,79,127
65154,note_on,1,0,0,,10,,,69,127
65154,note_on,0,0,0,,6,,,78,127
65362,note_off,208,0,0,,10,,,69,127
65362,note_off,0,0,0,,3,,,63,127
65363,note_on,1,0,0,,12,,,59,127
65363,note_on,0,0,0,,6,,,66,127
65571,note_off,208,0,0,,6,,,66,127
65571,note_off,0,0,0,,12,,,59,127
65572,note_on,1,0,0,,4,,,64,127
65572,note_on,0,0,0,,7,,,67,127
65780,note_off,208,0,0,,6,,,78,127
65781,note_on,1,0,0,,4,,,76,127
65989,note_off,208,0,0,,7,,,67,127
65989,note_off,0,0,0,,4,,,64,127
65990,note_on,1,0,0,,7,,,55,127
65990,note_on,0,0,0,,4,,,64,127
66095,note_off,105,0,0,,4,,,76,127
66199,note_off,104,0,0,,4,,,64,127
66199,note_off,0,0,0,,7,,,55,127
66200,note_on,1,0,0,,10,,,57,127
66200,note_on,0,0,0,,10,,,69,127
66269,note_off,69,0,0,,10,,,69,127
66270,note_on,1,0,0,,7,,,67,127
66339,note_off,69,0,0,,7,,,67,127
66340,note_on,1,0,0,,6,,,66,127
66409,note_off,69,0,0,,6,,,66,127
66409,note_off,0,0,0,,10,,,57,127
66410,note_on,1,0,0,,12,,,59,127
66410,note_on,0,0,0,,4,,,64,127
66410,note_on,0,0,0,,7,,,67,127
66618,note_off,208,0,0,,7,,,67,127
66618,note_off,0,0,0,,4,,,64,127
66619,note_on,1,0,0,,12,,,47,127
66619,note_on,0,0,0,,6,,,66,127
66619,note_on,0,0,0,,3,,,63,127
66827,note_off,208,0,0,,3,,,63,127
66827,note_off,0,0,0,,6,,,66,127
66827,note_off,0,0,0,,12,,,47,127
66827,note_off,0,0,0,,12,,,59,127
66828,note_on,1,0,0,,4,,,52,127
66828,note_on,0,0,0,,4,,,64,127
67036,note_off,208,0,0,,4,,,64,127
67037,note_on,1,0,0,,7,,,79,127
67037,note_on,0,0,0,,0,,,72,127
67245,note_off,208,0,0,,0,,,72,127
67245,note_off,0,0,0,,4,,,52,127
67246,note_on,1,0,0,,4,,,64,127
67246,note_on,0,0,0,,11,,,70,127
67454,note_off,208,0,0,,11,,,70,127
67454,note_off,0,0,0,,4,,,64,127
67455,note_on,1,0,0,,3,,,63,127
67455,note_on,0,0,0,,12,,,71,127
67663,note_off,208,0,0,,12,,,71,127
67663,note_off,0,0,0,,7,,,79,127
67664,note_on,1,0,0,,6,,,78,127
67664,note_on,0,0,0,,10,,,69,127
67872,note_off,208,0,0,,10,,,69,127
67872,note_off,0,0,0,,3,,,63,127
67873,note_on,1,0,0,,12,,,59,127
67873,note_on,0,0,0,,6,,,66,127
68081,note_off,208,0,0,,6,,,66,127
68081,note_off,0,0,0,,12,,,59,127
68082,note_on,1,0,0,,4,,,64,127
68082,note_on,0,0,0,,7,,,67,127
68290,note_off,208,0,0,,6,,,78,127
68291,note_on,1,0,0,,7,,,79,127
68499,note_off,208,0,0,,7,,,79,127
68499,note_off,0,0,0,,4,,,64,127
68500,note_on,1,0,0,,7,,,55,127
68500,note_on,0,0,0,,4,,,76,127
68708,note_off,208,0,0,,4,,,76,127
68708,note_off,0,0,0,,7,,,55,127
68708,note_off,0,0,0,,7,,,67,127
68709,note_on,1,0,0,,10,,,57,127
68709,note_on,0,0,0,,0,,,72,127
68709,note_on,0,0,0,,10,,,81,127
68778,note_off,69,0,0,,10,,,81,127
68779,note_on,1,0,0,,7,,,79,127
68848,note_off,69,0,0,,7,,,79,127
68849,note_on,1,0,0,,6,,,78,127
68918,note_off,69,0,0,,6,,,78,127
68918,note_off,0,0,0,,0,,,72,127
68918,note_off,0,0,0,,10,,,57,127
68919,note_on,1,0,0,,12,,,59,127
68919,note_on,0,0,0,,7,,,79,127
68919,note_on,0,0,0,,4,,,76,127
69127,note_off,208,0,0,,4,,,76,127
69127,note_off,0,0,0,,7,,,79,127
69128,note_on,1,0,0,,12,,,47,127
69128,note_on,0,0,0,,3,,,75,127
69128,note_on,0,0,0,,6,,,78,127
69336,note_off,208,0,0,,6,,,78,127
69336,note_off,0,0,0,,3,,,75,127
69336,note_off,0,0,0,,12,,,47,127
69336,note_off,0,0,0,,12,,,59,127
69340,note_on,4,0,0,,4,,,76,127
69340,note_on,0,0,0,,4,,,52,127
69446,note_off,106,0,0,,4,,,76,127
69449,note_on,3,0,0,,2,,,74,127
69554,note_off,105,0,0,,4,,,52,127
69555,note_off,1,0,0,,2,,,74,127
69558,note_on,3,0,0,,0,,,72,127
69558,note_on,0,0,0,,6,,,54,127
69664,note_off,106,0,0,,0,,,72,127
69667,note_on,3,0,0,,12,,,71,127
69772,note_off,105,0,0,,6,,,54,127
69773,note_off,1,0,0,,12,,,71,127
69776,note_on,3,0,0,,10,,,69,127
69776,note_on,0,0,0,,7,,,55,127
69882,note_off,106,0,0,,10,,,69,127
69885,note_on,3,0,0,,7,,,67,127
69990,note_off,105,0,0,,7,,,55,127
69991,note_off,1,0,0,,7,,,67,127
69993,note_on,2,0,0,,10,,,69,127
69993,note_on,0,0,0,,10,,,57,127
70063,note_off,70,0,0,,10,,,69,127
70066,note_on,3,0,0,,7,,,67,127
70136,note_off,70,0,0,,7,,,67,127
70139,note_on,3,0,0,,6,,,66,127
70207,note_off,68,0,0,,10,,,57,127
70209,note_off,2,0,0,,6,,,66,127
70211,note_on,2,0,0,,4,,,64,127
70211,note_on,0,0,0,,7,,,67,127
70211,note_on,0,0,0,,12,,,59,127
70425,note_off,214,0,0,,7,,,67,127
70425,note_off,0,0,0,,4,,,64,127
70429,note_on,4,0,0,,3,,,63,127
70429,note_on,0,0,0,,6,,,66,127
70429,note_on,0,0,0,,12,,,47,127
70534,note_off,105,0,0,,12,,,59,127
70643,note_off,109,0,0,,12,,,47,127
70643,note_off,0,0,0,,6,,,66,127
70643,note_off,0,0,0,,3,,,63,127
70678,note_on,35,0,0,,6,,,66,127
70678,note_on,0,0,0,,4,,,40,127
70743,note_off,65,0,0,,6,,,66,127
70744,note_on,1,0,0,,4,,,64,127
70809,note_off,65,0,0,,4,,,64,127
70809,note_on,0,0,0,,6,,,66,127
70874,note_off,65,0,0,,6,,,66,127
70875,note_on,1,0,0,,4,,,64,127
72695,note_off,1820,0,0,,4,,,40,127
72730,note_off,35,0,0,,4,,,64,127
76800,end_of_track,4070,1,0,,,,,,
