tick,type,time,meta,track,program,channel,pitch,tempo,note,velocity
0,copyright,0,1,0,,,,,,
0,program_change,0,0,0,6,0,,,,
0,pitchwheel,0,0,0,,0,0,,,
0,program_change,0,0,0,6,1,,,,
0,pitchwheel,0,0,0,,1,-590,,,
0,program_change,0,0,0,6,2,,,,
0,pitchwheel,0,0,0,,2,-272,,,
0,program_change,0,0,0,6,3,,,,
0,pitchwheel,0,0,0,,3,-353,,,
0,program_change,0,0,0,6,4,,,,
0,pitchwheel,0,0,0,,4,-560,,,
0,program_change,0,0,0,6,5,,,,
0,pitchwheel,0,0,0,,5,-80,,,
0,program_change,0,0,0,6,6,,,,
0,pitchwheel,0,0,0,,6,-625,,,
0,program_change,0,0,0,6,7,,,,
0,pitchwheel,0,0,0,,7,-130,,,
0,program_change,0,0,0,6,8,,,,
0,pitchwheel,0,0,0,,8,-512,,,
0,program_change,0,0,0,6,10,,,,
0,pitchwheel,0,0,0,,10,-464,,,
0,program_change,0,0,0,6,11,,,,
0,pitchwheel,0,0,0,,11,-208,,,
0,program_change,0,0,0,6,12,,,,
0,pitchwheel,0,0,0,,12,-553,,,
0,set_tempo,0,1,0,,,,500000,,
96,note_on,96,0,0,,0,,,60,127
96,note_on,0,0,0,,3,,,63,127
192,note_on,96,0,0,,7,,,67,127
287,note_off,95,0,0,,7,,,67,127
288,note_on,1,0,0,,10,,,69,127
383,note_off,95,0,0,,10,,,69,127
384,note_on,1,0,0,,12,,,71,127
479,note_off,95,0,0,,12,,,71,127
479,note_off,0,0,0,,3,,,63,127
479,note_off,0,0,0,,0,,,60,127
480,note_on,1,0,0,,3,,,63,127
480,note_on,0,0,0,,0,,,60,127
480,note_on,0,0,0,,12,,,71,127
575,note_off,95,0,0,,12,,,71,127
576,note_on,1,0,0,,0,,,72,127
671,note_off,95,0,0,,0,,,72,127
672,note_on,1,0,0,,12,,,71,127
767,note_off,95,0,0,,12,,,71,127
768,note_on,1,0,0,,0,,,72,127
863,note_off,95,0,0,,0,,,72,127
863,note_off,0,0,0,,0,,,60,127
863,note_off,0,0,0,,3,,,63,127
864,note_on,1,0,0,,3,,,63,127
864,note_on,0,0,0,,0,,,60,127
864,note_on,0,0,0,,2,,,74,127
927,note_off,63,0,0,,2,,,74,127
928,note_on,1,0,0,,0,,,72,127
991,note_off,63,0,0,,0,,,72,127
992,note_on,1,0,0,,2,,,74,127
1055,note_off,63,0,0,,2,,,74,127
1056,note_on,1,0,0,,0,,,72,127
1119,note_off,63,0,0,,0,,,72,127
1120,note_on,1,0,0,,12,,,71,127
1183,note_off,63,0,0,,12,,,71,127
1184,note_on,1,0,0,,0,,,72,127
1247,note_off,63,0,0,,0,,,72,127
1247,note_off,0,0,0,,0,,,60,127
1247,note_off,0,0,0,,3,,,63,127
1248,note_on,1,0,0,,7,,,55,127
1248,note_on,0,0,0,,2,,,62,127
1248,note_on,0,0,0,,2,,,74,127
1343,note_off,95,0,0,,2,,,74,127
1344,note_on,1,0,0,,7,,,67,127
1439,note_off,95,0,0,,7,,,67,127
1440,note_on,1,0,0,,10,,,69,127
1535,note_off,95,0,0,,10,,,69,127
1536,note_on,1,0,0,,12,,,71,127
1631,note_off,95,0,0,,12,,,71,127
1631,note_off,0,0,0,,2,,,62,127
1631,note_off,0,0,0,,7,,,55,127
1632,note_on,1,0,0,,3,,,63,127
1632,note_on,0,0,0,,0,,,60,127
1632,note_on,0,0,0,,12,,,71,127
1727,note_off,95,0,0,,12,,,71,127
1728,note_on,1,0,0,,0,,,72,127
1823,note_off,95,0,0,,0,,,72,127
1824,note_on,1,0,0,,12,,,71,127
1919,note_off,95,0,0,,12,,,71,127
1920,note_on,1,0,0,,0,,,72,127
2015,note_off,95,0,0,,0,,,72,127
2015,note_off,0,0,0,,0,,,60,127
2015,note_off,0,0,0,,3,,,63,127
2016,note_on,1,0,0,,0,,,60,127
2016,note_on,0,0,0,,3,,,63,127
2016,note_on,0,0,0,,2,,,74,127
2079,note_off,63,0,0,,2,,,74,127
2080,note_on,1,0,0,,0,,,72,127
2143,note_off,63,0,0,,0,,,72,127
2144,note_on,1,0,0,,2,,,74,127
2207,note_off,63,0,0,,2,,,74,127
2208,note_on,1,0,0,,0,,,72,127
2271,note_off,63,0,0,,0,,,72,127
2272,note_on,1,0,0,,12,,,71,127
2335,note_off,63,0,0,,12,,,71,127
2336,note_on,1,0,0,,0,,,72,127
2399,note_off,63,0,0,,0,,,72,127
2399,note_off,0,0,0,,3,,,63,127
2399,note_off,0,0,0,,0,,,60,127
2400,note_on,1,0,0,,7,,,55,127
2400,note_on,0,0,0,,2,,,62,127
2400,note_on,0,0,0,,2,,,74,127
2495,note_off,95,0,0,,2,,,74,127
2496,note_on,1,0,0,,7,,,67,127
2591,note_off,95,0,0,,7,,,67,127
2592,note_on,1,0,0,,10,,,69,127
2687,note_off,95,0,0,,10,,,69,127
2688,note_on,1,0,0,,12,,,71,127
2783,note_off,95,0,0,,12,,,71,127
2783,note_off,0,0,0,,2,,,62,127
2783,note_off,0,0,0,,7,,,55,127
2784,note_on,1,0,0,,3,,,63,127
2784,note_on,0,0,0,,0,,,60,127
2784,note_on,0,0,0,,12,,,71,127
2879,note_off,95,0,0,,12,,,71,127
2880,note_on,1,0,0,,0,,,72,127
2975,note_off,95,0,0,,0,,,72,127
2976,note_on,1,0,0,,12,,,71,127
3071,note_off,95,0,0,,12,,,71,127
3072,note_on,1,0,0,,0,,,72,127
3167,note_off,95,0,0,,0,,,72,127
3167,note_off,0,0,0,,0,,,60,127
3167,note_off,0,0,0,,3,,,63,127
3168,note_on,1,0,0,,3,,,63,127
3168,note_on,0,0,0,,0,,,60,127
3168,note_on,0,0,0,,2,,,74,127
3231,note_off,63,0,0,,2,,,74,127
3232,note_on,1,0,0,,0,,,72,127
3295,note_off,63,0,0,,0,,,72,127
3296,note_on,1,0,0,,2,,,74,127
3359,note_off,63,0,0,,2,,,74,127
3360,note_on,1,0,0,,0,,,72,127
3423,note_off,63,0,0,,0,,,72,127
3424,note_on,1,0,0,,12,,,71,127
3487,note_off,63,0,0,,12,,,71,127
3488,note_on,1,0,0,,0,,,72,127
3551,note_off,63,0,0,,0,,,72,127
3551,note_off,0,0,0,,0,,,60,127
3551,note_off,0,0,0,,3,,,63,127
3552,note_on,1,0,0,,7,,,55,127
3552,note_on,0,0,0,,2,,,62,127
3552,note_on,0,0,0,,0,,,72,127
3743,note_off,191,0,0,,0,,,72,127
3744,note_on,1,0,0,,2,,,74,127
3935,note_off,191,0,0,,2,,,62,127
3935,note_off,0,0,0,,7,,,55,127
3936,note_on,1,0,0,,7,,,55,127
3936,note_on,0,0,0,,2,,,62,127
4319,note_off,383,0,0,,2,,,62,127
4319,note_off,0,0,0,,7,,,55,127
4319,note_off,0,0,0,,2,,,74,127
4320,note_on,1,0,0,,7,,,55,127
4320,note_on,0,0,0,,2,,,62,127
4320,note_on,0,0,0,,2,,,74,127
4415,note_off,95,0,0,,2,,,74,127
4416,note_on,1,0,0,,3,,,75,127
4511,note_off,95,0,0,,3,,,75,127
4512,note_on,1,0,0,,5,,,77,127
4703,note_off,191,0,0,,5,,,77,127
4703,note_off,0,0,0,,2,,,62,127
4703,note_off,0,0,0,,7,,,55,127
4704,note_on,1,0,0,,3,,,63,127
4704,note_on,0,0,0,,0,,,60,127
4704,note_on,0,0,0,,5,,,77,127
4799,note_off,95,0,0,,5,,,77,127
4800,note_on,1,0,0,,3,,,75,127
4895,note_off,95,0,0,,3,,,75,127
4896,note_on,1,0,0,,2,,,74,127
4991,note_off,95,0,0,,2,,,74,127
4992,note_on,1,0,0,,0,,,72,127
5087,note_off,95,0,0,,0,,,72,127
5087,note_off,0,0,0,,0,,,60,127
5087,note_off,0,0,0,,3,,,63,127
5088,note_on,1,0,0,,5,,,53,127
5088,note_on,0,0,0,,5,,,65,127
5088,note_on,0,0,0,,10,,,69,127
5279,note_off,191,0,0,,10,,,69,127
5280,note_on,1,0,0,,0,,,72,127
5471,note_off,191,0,0,,5,,,65,127
5471,note_off,0,0,0,,5,,,53,127
5472,note_on,1,0,0,,7,,,55,127
5472,note_on,0,0,0,,5,,,65,127
5663,note_off,191,0,0,,0,,,72,127
5664,note_on,1,0,0,,12,,,71,127
5855,note_off,191,0,0,,12,,,71,127
5855,note_off,0,0,0,,5,,,65,127
5855,note_off,0,0,0,,7,,,55,127
5856,note_on,1,0,0,,8,,,56,127
5856,note_on,0,0,0,,5,,,65,127
5856,note_on,0,0,0,,12,,,71,127
6047,note_off,191,0,0,,12,,,71,127
6048,note_on,1,0,0,,0,,,72,127
6239,note_off,191,0,0,,8,,,56,127
6240,note_on,1,0,0,,5,,,53,127
6623,note_off,383,0,0,,5,,,53,127
6623,note_off,0,0,0,,0,,,72,127
6623,note_off,0,0,0,,5,,,65,127
6624,note_on,1,0,0,,12,,,59,127
6624,note_on,0,0,0,,5,,,65,127
6624,note_on,0,0,0,,2,,,74,127
6815,note_off,191,0,0,,2,,,74,127
6816,note_on,1,0,0,,3,,,75,127
6911,note_off,95,0,0,,3,,,75,127
6912,note_on,1,0,0,,5,,,77,127
7007,note_off,95,0,0,,5,,,77,127
7007,note_off,0,0,0,,5,,,65,127
7007,note_off,0,0,0,,12,,,59,127
7008,note_on,1,0,0,,3,,,63,127
7008,note_on,0,0,0,,0,,,60,127
7008,note_on,0,0,0,,5,,,77,127
7103,note_off,95,0,0,,5,,,77,127
7104,note_on,1,0,0,,3,,,75,127
7199,note_off,95,0,0,,3,,,75,127
7200,note_on,1,0,0,,2,,,74,127
7295,note_off,95,0,0,,2,,,74,127
7296,note_on,1,0,0,,0,,,72,127
7391,note_off,95,0,0,,0,,,72,127
7391,note_off,0,0,0,,0,,,60,127
7391,note_off,0,0,0,,3,,,63,127
7392,note_on,1,0,0,,5,,,53,127
7392,note_on,0,0,0,,5,,,65,127
7392,note_on,0,0,0,,10,,,69,127
7583,note_off,191,0,0,,10,,,69,127
7584,note_on,1,0,0,,0,,,72,127
7775,note_off,191,0,0,,5,,,65,127
7775,note_off,0,0,0,,5,,,53,127
7776,note_on,1,0,0,,7,,,55,127
7776,note_on,0,0,0,,2,,,62,127
7967,note_off,191,0,0,,0,,,72,127
7968,note_on,1,0,0,,12,,,71,127
8159,note_off,191,0,0,,12,,,71,127
8159,note_off,0,0,0,,2,,,62,127
8159,note_off,0,0,0,,7,,,55,127
8160,note_on,1,0,0,,0,,,60,127
8160,note_on,0,0,0,,12,,,71,127
8351,note_off,191,0,0,,12,,,71,127
8352,note_on,1,0,0,,0,,,72,127
8735,note_off,383,0,0,,0,,,60,127
8736,note_on,1,0,0,,0,,,48,127
8927,note_off,191,0,0,,0,,,48,127
8928,note_on,1,0,0,,0,,,36,127
9119,note_off,191,0,0,,0,,,72,127
9312,note_on,193,0,0,,7,,,79,127
9407,note_off,95,0,0,,7,,,79,127
9408,note_on,1,0,0,,3,,,75,127
9503,note_off,95,0,0,,3,,,75,127
9504,note_on,1,0,0,,0,,,72,127
9599,note_off,95,0,0,,0,,,72,127
9600,note_on,1,0,0,,7,,,67,127
9695,note_off,95,0,0,,7,,,67,127
9695,note_off,0,0,0,,0,,,36,127
9696,note_on,1,0,0,,3,,,63,127
9791,note_off,95,0,0,,3,,,63,127
9792,note_on,1,0,0,,0,,,60,127
9887,note_off,95,0,0,,0,,,60,127
9888,note_on,1,0,0,,3,,,63,127
9983,note_off,95,0,0,,3,,,63,127
9984,note_on,1,0,0,,7,,,67,127
10079,note_off,95,0,0,,7,,,67,127
10080,note_on,1,0,0,,0,,,72,127
10271,note_off,191,0,0,,0,,,72,127
10272,note_on,1,0,0,,8,,,68,127
10463,note_off,191,0,0,,8,,,68,127
10464,note_on,1,0,0,,7,,,55,127
10464,note_on,0,0,0,,7,,,67,127
10655,note_off,191,0,0,,7,,,67,127
10656,note_on,1,0,0,,2,,,74,127
10847,note_off,191,0,0,,2,,,74,127
10848,note_on,1,0,0,,12,,,71,127
11039,note_off,191,0,0,,12,,,71,127
11039,note_off,0,0,0,,7,,,55,127
11040,note_on,1,0,0,,5,,,65,127
11040,note_on,0,0,0,,8,,,68,127
11231,note_off,191,0,0,,8,,,68,127
11231,note_off,0,0,0,,5,,,65,127
11232,note_on,1,0,0,,3,,,63,127
11232,note_on,0,0,0,,7,,,67,127
11423,note_off,191,0,0,,7,,,67,127
11423,note_off,0,0,0,,3,,,63,127
11424,note_on,1,0,0,,2,,,62,127
11424,note_on,0,0,0,,5,,,65,127
11615,note_off,191,0,0,,5,,,65,127
11615,note_off,0,0,0,,2,,,62,127
11616,note_on,1,0,0,,0,,,60,127
11616,note_on,0,0,0,,7,,,79,127
11711,note_off,95,0,0,,7,,,79,127
11712,note_on,1,0,0,,3,,,75,127
11807,note_off,95,0,0,,3,,,75,127
11808,note_on,1,0,0,,0,,,72,127
11903,note_off,95,0,0,,0,,,72,127
11904,note_on,1,0,0,,7,,,67,127
11999,note_off,95,0,0,,7,,,67,127
11999,note_off,0,0,0,,0,,,60,127
12000,note_on,1,0,0,,0,,,48,127
12000,note_on,0,0,0,,3,,,63,127
12095,note_off,95,0,0,,3,,,63,127
12096,note_on,1,0,0,,0,,,60,127
12191,note_off,95,0,0,,0,,,60,127
12192,note_on,1,0,0,,3,,,63,127
12287,note_off,95,0,0,,3,,,63,127
12288,note_on,1,0,0,,7,,,67,127
12383,note_off,95,0,0,,7,,,67,127
12384,note_on,1,0,0,,0,,,72,127
12575,note_off,191,0,0,,0,,,72,127
12576,note_on,1,0,0,,8,,,68,127
12767,note_off,191,0,0,,8,,,68,127
12767,note_off,0,0,0,,0,,,48,127
12768,note_on,1,0,0,,7,,,55,127
12768,note_on,0,0,0,,7,,,67,127
12959,note_off,191,0,0,,7,,,67,127
12960,note_on,1,0,0,,2,,,74,127
13151,note_off,191,0,0,,2,,,74,127
13152,note_on,1,0,0,,12,,,71,127
13343,note_off,191,0,0,,12,,,71,127
13343,note_off,0,0,0,,7,,,55,127
13344,note_on,1,0,0,,5,,,65,127
13344,note_on,0,0,0,,8,,,68,127
13535,note_off,191,0,0,,8,,,68,127
13535,note_off,0,0,0,,5,,,65,127
13536,note_on,1,0,0,,3,,,63,127
13536,note_on,0,0,0,,7,,,67,127
13727,note_off,191,0,0,,7,,,67,127
13727,note_off,0,0,0,,3,,,63,127
13728,note_on,1,0,0,,2,,,62,127
13728,note_on,0,0,0,,5,,,65,127
13919,note_off,191,0,0,,5,,,65,127
13919,note_off,0,0,0,,2,,,62,127
13920,note_on,1,0,0,,0,,,48,127
14016,note_on,96,0,0,,3,,,75,127
14111,note_off,95,0,0,,3,,,75,127
14112,note_on,1,0,0,,2,,,74,127
14207,note_off,95,0,0,,2,,,74,127
14208,note_on,1,0,0,,3,,,75,127
14303,note_off,95,0,0,,3,,,75,127
14303,note_off,0,0,0,,0,,,48,127
14304,note_on,1,0,0,,0,,,84,127
14304,note_on,0,0,0,,7,,,79,127
14399,note_off,95,0,0,,7,,,79,127
14400,note_on,1,0,0,,3,,,75,127
14495,note_off,95,0,0,,3,,,75,127
14496,note_on,1,0,0,,2,,,74,127
14591,note_off,95,0,0,,2,,,74,127
14592,note_on,1,0,0,,3,,,75,127
14687,note_off,95,0,0,,3,,,75,127
14687,note_off,0,0,0,,0,,,84,127
14688,note_on,1,0,0,,8,,,80,127
14688,note_on,0,0,0,,3,,,75,127
14783,note_off,95,0,0,,3,,,75,127
14784,note_on,1,0,0,,0,,,72,127
14879,note_off,95,0,0,,0,,,72,127
14880,note_on,1,0,0,,12,,,71,127
14975,note_off,95,0,0,,12,,,71,127
14976,note_on,1,0,0,,0,,,72,127
15071,note_off,95,0,0,,0,,,72,127
15071,note_off,0,0,0,,8,,,80,127
15072,note_on,1,0,0,,5,,,77,127
15072,note_on,0,0,0,,0,,,72,127
15167,note_off,95,0,0,,0,,,72,127
15168,note_on,1,0,0,,8,,,68,127
15263,note_off,95,0,0,,8,,,68,127
15264,note_on,1,0,0,,7,,,67,127
15359,note_off,95,0,0,,7,,,67,127
15360,note_on,1,0,0,,8,,,68,127
15455,note_off,95,0,0,,8,,,68,127
15455,note_off,0,0,0,,5,,,77,127
15456,note_on,1,0,0,,8,,,80,127
15456,note_on,0,0,0,,0,,,72,127
15551,note_off,95,0,0,,0,,,72,127
15552,note_on,1,0,0,,8,,,68,127
15647,note_off,95,0,0,,8,,,68,127
15648,note_on,1,0,0,,7,,,67,127
15743,note_off,95,0,0,,7,,,67,127
15744,note_on,1,0,0,,8,,,68,127
15839,note_off,95,0,0,,8,,,68,127
15839,note_off,0,0,0,,8,,,80,127
15840,note_on,1,0,0,,5,,,77,127
15840,note_on,0,0,0,,11,,,70,127
15935,note_off,95,0,0,,11,,,70,127
15936,note_on,1,0,0,,0,,,72,127
16031,note_off,95,0,0,,0,,,72,127
16032,note_on,1,0,0,,2,,,74,127
16127,note_off,95,0,0,,2,,,74,127
16128,note_on,1,0,0,,3,,,75,127
16223,note_off,95,0,0,,3,,,75,127
16223,note_off,0,0,0,,5,,,77,127
16224,note_on,1,0,0,,5,,,77,127
16320,note_on,96,0,0,,2,,,74,127
16415,note_off,95,0,0,,2,,,74,127
16416,note_on,1,0,0,,0,,,72,127
16511,note_off,95,0,0,,0,,,72,127
16512,note_on,1,0,0,,2,,,74,127
16607,note_off,95,0,0,,2,,,74,127
16607,note_off,0,0,0,,5,,,77,127
16608,note_on,1,0,0,,11,,,82,127
16608,note_on,0,0,0,,2,,,74,127
16703,note_off,95,0,0,,2,,,74,127
16704,note_on,1,0,0,,11,,,70,127
16799,note_off,95,0,0,,11,,,70,127
16800,note_on,1,0,0,,10,,,69,127
16895,note_off,95,0,0,,10,,,69,127
16896,note_on,1,0,0,,11,,,70,127
16991,note_off,95,0,0,,11,,,70,127
16991,note_off,0,0,0,,11,,,82,127
16992,note_on,1,0,0,,7,,,79,127
16992,note_on,0,0,0,,11,,,70,127
17087,note_off,95,0,0,,11,,,70,127
17088,note_on,1,0,0,,7,,,67,127
17183,note_off,95,0,0,,7,,,67,127
17184,note_on,1,0,0,,5,,,65,127
17279,note_off,95,0,0,,5,,,65,127
17280,note_on,1,0,0,,7,,,67,127
17375,note_off,95,0,0,,7,,,67,127
17375,note_off,0,0,0,,7,,,79,127
17376,note_on,1,0,0,,3,,,75,127
17376,note_on,0,0,0,,7,,,67,127
17471,note_off,95,0,0,,7,,,67,127
17472,note_on,1,0,0,,3,,,63,127
17567,note_off,95,0,0,,3,,,63,127
17568,note_on,1,0,0,,2,,,62,127
17663,note_off,95,0,0,,2,,,62,127
17664,note_on,1,0,0,,3,,,63,127
17759,note_off,95,0,0,,3,,,63,127
17759,note_off,0,0,0,,3,,,75,127
17760,note_on,1,0,0,,7,,,79,127
17760,note_on,0,0,0,,7,,,67,127
17855,note_off,95,0,0,,7,,,67,127
17856,note_on,1,0,0,,3,,,63,127
17951,note_off,95,0,0,,3,,,63,127
17952,note_on,1,0,0,,5,,,65,127
18047,note_off,95,0,0,,5,,,65,127
18048,note_on,1,0,0,,7,,,67,127
18143,note_off,95,0,0,,7,,,67,127
18143,note_off,0,0,0,,7,,,79,127
18144,note_on,1,0,0,,3,,,75,127
18144,note_on,0,0,0,,8,,,68,127
18239,note_off,95,0,0,,8,,,68,127
18240,note_on,1,0,0,,11,,,70,127
18335,note_off,95,0,0,,11,,,70,127
18336,note_on,1,0,0,,0,,,72,127
18431,note_off,95,0,0,,0,,,72,127
18432,note_on,1,0,0,,2,,,74,127
18527,note_off,95,0,0,,2,,,74,127
18527,note_off,0,0,0,,3,,,75,127
18528,note_on,1,0,0,,3,,,75,127
18624,note_on,96,0,0,,0,,,72,127
18719,note_off,95,0,0,,0,,,72,127
18720,note_on,1,0,0,,12,,,71,127
18815,note_off,95,0,0,,12,,,71,127
18816,note_on,1,0,0,,0,,,72,127
18911,note_off,95,0,0,,0,,,72,127
18911,note_off,0,0,0,,3,,,75,127
18912,note_on,1,0,0,,8,,,80,127
18912,note_on,0,0,0,,0,,,72,127
19007,note_off,95,0,0,,0,,,72,127
19008,note_on,1,0,0,,8,,,68,127
19103,note_off,95,0,0,,8,,,68,127
19104,note_on,1,0,0,,7,,,67,127
19199,note_off,95,0,0,,7,,,67,127
19200,note_on,1,0,0,,8,,,68,127
19295,note_off,95,0,0,,8,,,68,127
19295,note_off,0,0,0,,8,,,80,127
19296,note_on,1,0,0,,5,,,77,127
19296,note_on,0,0,0,,8,,,68,127
19391,note_off,95,0,0,,8,,,68,127
19392,note_on,1,0,0,,5,,,65,127
19487,note_off,95,0,0,,5,,,65,127
19488,note_on,1,0,0,,3,,,63,127
19583,note_off,95,0,0,,3,,,63,127
19584,note_on,1,0,0,,5,,,65,127
19679,note_off,95,0,0,,5,,,65,127
19679,note_off,0,0,0,,5,,,77,127
19680,note_on,1,0,0,,2,,,74,127
19680,note_on,0,0,0,,5,,,65,127
19775,note_off,95,0,0,,5,,,65,127
19776,note_on,1,0,0,,2,,,62,127
19871,note_off,95,0,0,,2,,,62,127
19872,note_on,1,0,0,,0,,,60,127
19967,note_off,95,0,0,,0,,,60,127
19968,note_on,1,0,0,,2,,,62,127
20063,note_off,95,0,0,,2,,,62,127
20063,note_off,0,0,0,,2,,,74,127
20064,note_on,1,0,0,,5,,,77,127
20064,note_on,0,0,0,,5,,,65,127
20159,note_off,95,0,0,,5,,,65,127
20160,note_on,1,0,0,,2,,,62,127
20255,note_off,95,0,0,,2,,,62,127
20256,note_on,1,0,0,,3,,,63,127
20351,note_off,95,0,0,,3,,,63,127
20352,note_on,1,0,0,,5,,,65,127
20447,note_off,95,0,0,,5,,,65,127
20447,note_off,0,0,0,,5,,,77,127
20448,note_on,1,0,0,,2,,,74,127
20448,note_on,0,0,0,,7,,,67,127
20543,note_off,95,0,0,,7,,,67,127
20544,note_on,1,0,0,,10,,,69,127
20639,note_off,95,0,0,,10,,,69,127
20640,note_on,1,0,0,,12,,,71,127
20735,note_off,95,0,0,,12,,,71,127
20736,note_on,1,0,0,,0,,,72,127
20831,note_off,95,0,0,,0,,,72,127
20831,note_off,0,0,0,,2,,,74,127
20832,note_on,1,0,0,,2,,,74,127
20928,note_on,96,0,0,,12,,,71,127
21023,note_off,95,0,0,,12,,,71,127
21024,note_on,1,0,0,,10,,,69,127
21119,note_off,95,0,0,,10,,,69,127
21120,note_on,1,0,0,,12,,,71,127
21215,note_off,95,0,0,,12,,,71,127
21215,note_off,0,0,0,,2,,,74,127
21216,note_on,1,0,0,,7,,,79,127
21216,note_on,0,0,0,,12,,,71,127
21311,note_off,95,0,0,,12,,,71,127
21312,note_on,1,0,0,,7,,,67,127
21407,note_off,95,0,0,,7,,,67,127
21408,note_on,1,0,0,,5,,,65,127
21503,note_off,95,0,0,,5,,,65,127
21504,note_on,1,0,0,,7,,,67,127
21599,note_off,95,0,0,,7,,,67,127
21599,note_off,0,0,0,,7,,,79,127
21600,note_on,1,0,0,,3,,,75,127
21600,note_on,0,0,0,,7,,,67,127
21695,note_off,95,0,0,,7,,,67,127
21696,note_on,1,0,0,,3,,,63,127
21791,note_off,95,0,0,,3,,,63,127
21792,note_on,1,0,0,,2,,,62,127
21887,note_off,95,0,0,,2,,,62,127
21888,note_on,1,0,0,,3,,,63,127
21983,note_off,95,0,0,,3,,,63,127
21983,note_off,0,0,0,,3,,,75,127
21984,note_on,1,0,0,,0,,,84,127
21984,note_on,0,0,0,,0,,,60,127
22079,note_off,95,0,0,,0,,,84,127
22080,note_on,1,0,0,,11,,,82,127
22175,note_off,95,0,0,,11,,,82,127
22175,note_off,0,0,0,,0,,,60,127
22176,note_on,1,0,0,,8,,,80,127
22176,note_on,0,0,0,,0,,,60,127
22271,note_off,95,0,0,,8,,,80,127
22272,note_on,1,0,0,,7,,,79,127
22367,note_off,95,0,0,,7,,,79,127
22367,note_off,0,0,0,,0,,,60,127
22368,note_on,1,0,0,,5,,,77,127
22368,note_on,0,0,0,,2,,,62,127
22559,note_off,191,0,0,,2,,,62,127
22559,note_off,0,0,0,,5,,,77,127
22560,note_on,1,0,0,,3,,,75,127
22560,note_on,0,0,0,,3,,,63,127
22751,note_off,191,0,0,,3,,,63,127
22751,note_off,0,0,0,,3,,,75,127
22752,note_on,1,0,0,,2,,,74,127
22752,note_on,0,0,0,,5,,,65,127
22847,note_off,95,0,0,,5,,,65,127
22848,note_on,1,0,0,,7,,,67,127
22943,note_off,95,0,0,,7,,,67,127
22943,note_off,0,0,0,,2,,,74,127
22944,note_on,1,0,0,,0,,,72,127
22944,note_on,0,0,0,,8,,,68,127
23039,note_off,95,0,0,,8,,,68,127
23040,note_on,1,0,0,,5,,,65,127
23135,note_off,95,0,0,,5,,,65,127
23135,note_off,0,0,0,,0,,,72,127
23136,note_on,1,0,0,,12,,,71,127
23136,note_on,0,0,0,,7,,,67,127
23231,note_off,95,0,0,,7,,,67,127
23232,note_on,1,0,0,,5,,,65,127
23327,note_off,95,0,0,,5,,,65,127
23328,note_on,1,0,0,,7,,,67,127
23423,note_off,95,0,0,,7,,,67,127
23424,note_on,1,0,0,,8,,,68,127
23519,note_off,95,0,0,,8,,,68,127
23519,note_off,0,0,0,,12,,,71,127
23520,note_on,1,0,0,,7,,,67,127
23615,note_off,95,0,0,,7,,,67,127
23616,note_on,1,0,0,,5,,,65,127
23711,note_off,95,0,0,,5,,,65,127
23712,note_on,1,0,0,,3,,,63,127
23807,note_off,95,0,0,,3,,,63,127
23808,note_on,1,0,0,,2,,,62,127
23903,note_off,95,0,0,,2,,,62,127
23904,note_on,1,0,0,,3,,,63,127
23999,note_off,95,0,0,,3,,,63,127
24000,note_on,1,0,0,,2,,,62,127
24095,note_off,95,0,0,,2,,,62,127
24096,note_on,1,0,0,,0,,,60,127
24191,note_off,95,0,0,,0,,,60,127
24192,note_on,1,0,0,,12,,,59,127
24287,note_off,95,0,0,,12,,,59,127
24288,note_on,1,0,0,,0,,,84,127
24288,note_on,0,0,0,,0,,,60,127
24383,note_off,95,0,0,,0,,,84,127
24384,note_on,1,0,0,,11,,,82,127
24479,note_off,95,0,0,,11,,,82,127
24479,note_off,0,0,0,,0,,,60,127
24480,note_on,1,0,0,,8,,,80,127
24480,note_on,0,0,0,,0,,,60,127
24575,note_off,95,0,0,,8,,,80,127
24576,note_on,1,0,0,,7,,,79,127
24671,note_off,95,0,0,,7,,,79,127
24671,note_off,0,0,0,,0,,,60,127
24672,note_on,1,0,0,,5,,,77,127
24672,note_on,0,0,0,,2,,,62,127
24863,note_off,191,0,0,,2,,,62,127
24863,note_off,0,0,0,,5,,,77,127
24864,note_on,1,0,0,,3,,,75,127
24864,note_on,0,0,0,,3,,,63,127
25055,note_off,191,0,0,,3,,,63,127
25055,note_off,0,0,0,,3,,,75,127
25056,note_on,1,0,0,,2,,,74,127
25056,note_on,0,0,0,,5,,,65,127
25151,note_off,95,0,0,,5,,,65,127
25152,note_on,1,0,0,,7,,,67,127
25247,note_off,95,0,0,,7,,,67,127
25247,note_off,0,0,0,,2,,,74,127
25248,note_on,1,0,0,,0,,,72,127
25248,note_on,0,0,0,,8,,,68,127
25343,note_off,95,0,0,,8,,,68,127
25344,note_on,1,0,0,,5,,,65,127
25439,note_off,95,0,0,,5,,,65,127
25439,note_off,0,0,0,,0,,,72,127
25440,note_on,1,0,0,,12,,,71,127
25440,note_on,0,0,0,,7,,,67,127
25535,note_off,95,0,0,,7,,,67,127
25536,note_on,1,0,0,,5,,,65,127
25631,note_off,95,0,0,,5,,,65,127
25632,note_on,1,0,0,,7,,,67,127
25727,note_off,95,0,0,,7,,,67,127
25728,note_on,1,0,0,,8,,,68,127
25823,note_off,95,0,0,,8,,,68,127
25823,note_off,0,0,0,,12,,,71,127
25824,note_on,1,0,0,,7,,,67,127
25919,note_off,95,0,0,,7,,,67,127
25920,note_on,1,0,0,,5,,,65,127
26015,note_off,95,0,0,,5,,,65,127
26016,note_on,1,0,0,,3,,,63,127
26111,note_off,95,0,0,,3,,,63,127
26112,note_on,1,0,0,,2,,,62,127
26207,note_off,95,0,0,,2,,,62,127
26208,note_on,1,0,0,,3,,,63,127
26303,note_off,95,0,0,,3,,,63,127
26304,note_on,1,0,0,,2,,,62,127
26399,note_off,95,0,0,,2,,,62,127
26400,note_on,1,0,0,,0,,,60,127
26495,note_off,95,0,0,,0,,,60,127
26496,note_on,1,0,0,,12,,,59,127
26591,note_off,95,0,0,,12,,,59,127
26592,note_on,1,0,0,,0,,,84,127
26592,note_on,0,0,0,,0,,,60,127
26687,note_off,95,0,0,,0,,,84,127
26688,note_on,1,0,0,,11,,,82,127
26783,note_off,95,0,0,,11,,,82,127
26783,note_off,0,0,0,,0,,,60,127
26784,note_on,1,0,0,,8,,,80,127
26784,note_on,0,0,0,,0,,,60,127
26879,note_off,95,0,0,,8,,,80,127
26880,note_on,1,0,0,,7,,,79,127
26975,note_off,95,0,0,,7,,,79,127
26975,note_off,0,0,0,,0,,,60,127
26976,note_on,1,0,0,,5,,,77,127
26976,note_on,0,0,0,,2,,,62,127
27167,note_off,191,0,0,,2,,,62,127
27167,note_off,0,0,0,,5,,,77,127
27168,note_on,1,0,0,,3,,,75,127
27168,note_on,0,0,0,,3,,,63,127
27359,note_off,191,0,0,,3,,,63,127
27359,note_off,0,0,0,,3,,,75,127
27360,note_on,1,0,0,,2,,,74,127
27360,note_on,0,0,0,,5,,,65,127
27455,note_off,95,0,0,,5,,,65,127
27456,note_on,1,0,0,,7,,,67,127
27551,note_off,95,0,0,,7,,,67,127
27551,note_off,0,0,0,,2,,,74,127
27552,note_on,1,0,0,,0,,,72,127
27552,note_on,0,0,0,,8,,,68,127
27647,note_off,95,0,0,,8,,,68,127
27648,note_on,1,0,0,,5,,,65,127
27743,note_off,95,0,0,,5,,,65,127
27743,note_off,0,0,0,,0,,,72,127
27744,note_on,1,0,0,,12,,,71,127
27744,note_on,0,0,0,,7,,,67,127
27839,note_off,95,0,0,,7,,,67,127
27839,note_off,0,0,0,,12,,,71,127
27840,note_on,1,0,0,,12,,,71,127
27936,note_on,96,0,0,,2,,,74,127
28031,note_off,95,0,0,,2,,,74,127
28032,note_on,1,0,0,,5,,,77,127
28127,note_off,95,0,0,,5,,,77,127
28127,note_off,0,0,0,,12,,,71,127
28128,note_on,1,0,0,,7,,,55,127
28128,note_on,0,0,0,,2,,,62,127
28128,note_on,0,0,0,,5,,,65,127
28128,note_on,0,0,0,,8,,,80,127
28319,note_off,191,0,0,,8,,,80,127
28320,note_on,1,0,0,,7,,,79,127
28511,note_off,191,0,0,,7,,,79,127
28511,note_off,0,0,0,,5,,,65,127
28511,note_off,0,0,0,,2,,,62,127
28511,note_off,0,0,0,,7,,,55,127
28512,note_on,1,0,0,,7,,,55,127
28512,note_on,0,0,0,,5,,,65,127
28512,note_on,0,0,0,,2,,,62,127
28512,note_on,0,0,0,,7,,,79,127
28607,note_off,95,0,0,,7,,,79,127
28608,note_on,1,0,0,,5,,,77,127
28703,note_off,95,0,0,,5,,,77,127
28704,note_on,1,0,0,,3,,,75,127
28799,note_off,95,0,0,,3,,,75,127
28800,note_on,1,0,0,,2,,,74,127
28895,note_off,95,0,0,,2,,,74,127
28895,note_off,0,0,0,,2,,,62,127
28895,note_off,0,0,0,,5,,,65,127
28895,note_off,0,0,0,,7,,,55,127
28896,note_on,1,0,0,,0,,,60,127
28896,note_on,0,0,0,,7,,,67,127
28896,note_on,0,0,0,,3,,,63,127
28896,note_on,0,0,0,,0,,,84,127
28991,note_off,95,0,0,,0,,,84,127
28992,note_on,1,0,0,,3,,,75,127
29087,note_off,95,0,0,,3,,,75,127
29088,note_on,1,0,0,,11,,,82,127
29183,note_off,95,0,0,,11,,,82,127
29184,note_on,1,0,0,,2,,,74,127
29279,note_off,95,0,0,,2,,,74,127
29279,note_off,0,0,0,,3,,,63,127
29279,note_off,0,0,0,,7,,,67,127
29279,note_off,0,0,0,,0,,,60,127
29280,note_on,1,0,0,,0,,,60,127
29280,note_on,0,0,0,,7,,,67,127
29280,note_on,0,0,0,,3,,,63,127
29280,note_on,0,0,0,,10,,,81,127
29375,note_off,95,0,0,,10,,,81,127
29376,note_on,1,0,0,,0,,,72,127
29471,note_off,95,0,0,,0,,,72,127
29472,note_on,1,0,0,,7,,,79,127
29567,note_off,95,0,0,,7,,,79,127
29568,note_on,1,0,0,,11,,,70,127
29663,note_off,95,0,0,,11,,,70,127
29663,note_off,0,0,0,,3,,,63,127
29663,note_off,0,0,0,,7,,,67,127
29663,note_off,0,0,0,,0,,,60,127
29664,note_on,1,0,0,,0,,,60,127
29664,note_on,0,0,0,,3,,,63,127
29664,note_on,0,0,0,,6,,,78,127
29759,note_off,95,0,0,,6,,,78,127
29760,note_on,1,0,0,,10,,,69,127
29855,note_off,95,0,0,,10,,,69,127
29856,note_on,1,0,0,,3,,,75,127
29951,note_off,95,0,0,,3,,,75,127
29952,note_on,1,0,0,,7,,,67,127
30047,note_off,95,0,0,,7,,,67,127
30047,note_off,0,0,0,,3,,,63,127
30047,note_off,0,0,0,,0,,,60,127
30048,note_on,1,0,0,,2,,,50,127
30048,note_on,0,0,0,,10,,,57,127
30048,note_on,0,0,0,,2,,,62,127
30048,note_on,0,0,0,,0,,,60,127
30048,note_on,0,0,0,,1,,,73,127
30239,note_off,191,0,0,,1,,,73,127
30240,note_on,1,0,0,,2,,,74,127
30431,note_off,191,0,0,,0,,,60,127
30431,note_off,0,0,0,,2,,,62,127
30431,note_off,0,0,0,,10,,,57,127
30431,note_off,0,0,0,,2,,,50,127
30432,note_on,1,0,0,,2,,,62,127
30432,note_on,0,0,0,,10,,,57,127
30432,note_on,0,0,0,,2,,,50,127
30432,note_on,0,0,0,,0,,,60,127
30623,note_off,191,0,0,,2,,,74,127
30624,note_on,1,0,0,,0,,,84,127
30719,note_off,95,0,0,,0,,,84,127
30720,note_on,1,0,0,,0,,,72,127
30815,note_off,95,0,0,,0,,,72,127
30815,note_off,0,0,0,,0,,,60,127
30815,note_off,0,0,0,,2,,,50,127
30815,note_off,0,0,0,,10,,,57,127
30815,note_off,0,0,0,,2,,,62,127
30816,note_on,1,0,0,,2,,,50,127
30816,note_on,0,0,0,,10,,,57,127
30816,note_on,0,0,0,,2,,,62,127
30816,note_on,0,0,0,,0,,,60,127
30816,note_on,0,0,0,,10,,,81,127
30911,note_off,95,0,0,,10,,,81,127
30912,note_on,1,0,0,,0,,,72,127
31007,note_off,95,0,0,,0,,,72,127
31008,note_on,1,0,0,,11,,,82,127
31103,note_off,95,0,0,,11,,,82,127
31104,note_on,1,0,0,,2,,,74,127
31199,note_off,95,0,0,,2,,,74,127
31199,note_off,0,0,0,,0,,,60,127
31199,note_off,0,0,0,,2,,,62,127
31199,note_off,0,0,0,,10,,,57,127
31199,note_off,0,0,0,,2,,,50,127
31200,note_on,1,0,0,,3,,,51,127
31200,note_on,0,0,0,,7,,,55,127
31200,note_on,0,0,0,,2,,,62,127
31200,note_on,0,0,0,,0,,,60,127
31200,note_on,0,0,0,,0,,,84,127
31295,note_off,95,0,0,,0,,,84,127
31296,note_on,1,0,0,,3,,,75,127
31391,note_off,95,0,0,,3,,,75,127
31392,note_on,1,0,0,,11,,,82,127
31487,note_off,95,0,0,,11,,,82,127
31488,note_on,1,0,0,,2,,,74,127
31583,note_off,95,0,0,,2,,,74,127
31583,note_off,0,0,0,,0,,,60,127
31583,note_off,0,0,0,,2,,,62,127
31583,note_off,0,0,0,,7,,,55,127
31583,note_off,0,0,0,,3,,,51,127
31584,note_on,1,0,0,,7,,,55,127
31584,note_on,0,0,0,,3,,,51,127
31584,note_on,0,0,0,,2,,,62,127
31584,note_on,0,0,0,,0,,,60,127
31584,note_on,0,0,0,,10,,,81,127
31679,note_off,95,0,0,,10,,,81,127
31680,note_on,1,0,0,,0,,,72,127
31775,note_off,95,0,0,,0,,,72,127
31776,note_on,1,0,0,,7,,,79,127
31871,note_off,95,0,0,,7,,,79,127
31872,note_on,1,0,0,,11,,,70,127
31967,note_off,95,0,0,,11,,,70,127
31967,note_off,0,0,0,,0,,,60,127
31967,note_off,0,0,0,,2,,,62,127
31967,note_off,0,0,0,,3,,,51,127
31967,note_off,0,0,0,,7,,,55,127
31968,note_on,1,0,0,,3,,,51,127
31968,note_on,0,0,0,,7,,,55,127
31968,note_on,0,0,0,,0,,,60,127
31968,note_on,0,0,0,,2,,,62,127
31968,note_on,0,0,0,,6,,,78,127
32063,note_off,95,0,0,,6,,,78,127
32064,note_on,1,0,0,,10,,,69,127
32159,note_off,95,0,0,,10,,,69,127
32160,note_on,1,0,0,,3,,,75,127
32255,note_off,95,0,0,,3,,,75,127
32256,note_on,1,0,0,,7,,,67,127
32351,note_off,95,0,0,,7,,,67,127
32351,note_off,0,0,0,,2,,,62,127
32351,note_off,0,0,0,,0,,,60,127
32351,note_off,0,0,0,,7,,,55,127
32351,note_off,0,0,0,,3,,,51,127
32352,note_on,1,0,0,,2,,,50,127
32352,note_on,0,0,0,,0,,,60,127
32352,note_on,0,0,0,,10,,,57,127
32352,note_on,0,0,0,,2,,,62,127
32352,note_on,0,0,0,,1,,,73,127
32543,note_off,191,0,0,,1,,,73,127
32544,note_on,1,0,0,,2,,,74,127
32735,note_off,191,0,0,,2,,,62,127
32735,note_off,0,0,0,,10,,,57,127
32735,note_off,0,0,0,,0,,,60,127
32735,note_off,0,0,0,,2,,,50,127
32736,note_on,1,0,0,,2,,,50,127
32736,note_on,0,0,0,,10,,,57,127
32736,note_on,0,0,0,,0,,,60,127
32736,note_on,0,0,0,,2,,,62,127
32927,note_off,191,0,0,,2,,,74,127
32928,note_on,1,0,0,,10,,,81,127
33023,note_off,95,0,0,,10,,,81,127
33024,note_on,1,0,0,,0,,,72,127
33119,note_off,95,0,0,,0,,,72,127
33119,note_off,0,0,0,,2,,,62,127
33119,note_off,0,0,0,,0,,,60,127
33119,note_off,0,0,0,,10,,,57,127
33119,note_off,0,0,0,,2,,,50,127
33120,note_on,1,0,0,,2,,,50,127
33120,note_on,0,0,0,,10,,,57,127
33120,note_on,0,0,0,,0,,,60,127
33120,note_on,0,0,0,,2,,,62,127
33120,note_on,0,0,0,,10,,,81,127
33215,note_off,95,0,0,,10,,,81,127
33216,note_on,1,0,0,,0,,,72,127
33311,note_off,95,0,0,,0,,,72,127
33312,note_on,1,0,0,,11,,,82,127
33407,note_off,95,0,0,,11,,,82,127
33408,note_on,1,0,0,,2,,,74,127
33503,note_off,95,0,0,,2,,,74,127
33503,note_off,0,0,0,,2,,,62,127
33503,note_off,0,0,0,,0,,,60,127
33503,note_off,0,0,0,,10,,,57,127
33503,note_off,0,0,0,,2,,,50,127
33504,note_on,1,0,0,,3,,,63,127
33504,note_on,0,0,0,,0,,,60,127
33504,note_on,0,0,0,,7,,,67,127
33504,note_on,0,0,0,,0,,,84,127
33599,note_off,95,0,0,,0,,,84,127
33600,note_on,1,0,0,,3,,,75,127
33695,note_off,95,0,0,,3,,,75,127
33696,note_on,1,0,0,,11,,,82,127
33791,note_off,95,0,0,,11,,,82,127
33792,note_on,1,0,0,,2,,,74,127
33887,note_off,95,0,0,,2,,,74,127
33887,note_off,0,0,0,,7,,,67,127
33887,note_off,0,0,0,,0,,,60,127
33887,note_off,0,0,0,,3,,,63,127
33888,note_on,1,0,0,,0,,,60,127
33888,note_on,0,0,0,,7,,,67,127
33888,note_on,0,0,0,,3,,,63,127
33888,note_on,0,0,0,,10,,,81,127
33983,note_off,95,0,0,,10,,,81,127
33984,note_on,1,0,0,,0,,,72,127
34079,note_off,95,0,0,,0,,,72,127
34080,note_on,1,0,0,,7,,,79,127
34175,note_off,95,0,0,,7,,,79,127
34176,note_on,1,0,0,,11,,,70,127
34271,note_off,95,0,0,,11,,,70,127
34271,note_off,0,0,0,,3,,,63,127
34271,note_off,0,0,0,,7,,,67,127
34271,note_off,0,0,0,,0,,,60,127
34272,note_on,1,0,0,,3,,,63,127
34272,note_on,0,0,0,,0,,,60,127
34272,note_on,0,0,0,,6,,,78,127
34367,note_off,95,0,0,,6,,,78,127
34368,note_on,1,0,0,,10,,,69,127
34463,note_off,95,0,0,,10,,,69,127
34464,note_on,1,0,0,,3,,,75,127
34559,note_off,95,0,0,,3,,,75,127
34560,note_on,1,0,0,,7,,,67,127
34655,note_off,95,0,0,,7,,,67,127
34655,note_off,0,0,0,,0,,,60,127
34655,note_off,0,0,0,,3,,,63,127
34656,note_on,1,0,0,,2,,,50,127
34656,note_on,0,0,0,,6,,,66,127
34751,note_off,95,0,0,,6,,,66,127
34752,note_on,1,0,0,,2,,,62,127
34847,note_off,95,0,0,,2,,,62,127
34848,note_on,1,0,0,,7,,,67,127
34943,note_off,95,0,0,,7,,,67,127
34944,note_on,1,0,0,,2,,,62,127
35039,note_off,95,0,0,,2,,,62,127
35039,note_off,0,0,0,,2,,,50,127
35040,note_on,1,0,0,,10,,,81,127
35040,note_on,0,0,0,,10,,,69,127
35135,note_off,95,0,0,,10,,,69,127
35136,note_on,1,0,0,,2,,,62,127
35231,note_off,95,0,0,,2,,,62,127
35232,note_on,1,0,0,,7,,,67,127
35327,note_off,95,0,0,,7,,,67,127
35328,note_on,1,0,0,,2,,,62,127
35423,note_off,95,0,0,,2,,,62,127
35423,note_off,0,0,0,,10,,,81,127
35424,note_on,1,0,0,,2,,,38,127
35424,note_on,0,0,0,,2,,,50,127
35424,note_on,0,0,0,,10,,,69,127
35519,note_off,95,0,0,,10,,,69,127
35520,note_on,1,0,0,,2,,,62,127
35615,note_off,95,0,0,,2,,,62,127
35616,note_on,1,0,0,,11,,,70,127
35711,note_off,95,0,0,,11,,,70,127
35712,note_on,1,0,0,,2,,,62,127
35807,note_off,95,0,0,,2,,,62,127
35807,note_off,0,0,0,,2,,,50,127
35807,note_off,0,0,0,,2,,,38,127
35808,note_on,1,0,0,,3,,,39,127
35808,note_on,0,0,0,,3,,,51,127
35808,note_on,0,0,0,,10,,,69,127
35903,note_off,95,0,0,,10,,,69,127
35904,note_on,1,0,0,,0,,,60,127
35999,note_off,95,0,0,,0,,,60,127
36000,note_on,1,0,0,,7,,,67,127
36095,note_off,95,0,0,,7,,,67,127
36096,note_on,1,0,0,,0,,,60,127
36191,note_off,95,0,0,,0,,,60,127
36191,note_off,0,0,0,,3,,,51,127
36191,note_off,0,0,0,,3,,,39,127
36192,note_on,1,0,0,,10,,,81,127
36192,note_on,0,0,0,,10,,,69,127
36287,note_off,95,0,0,,10,,,69,127
36288,note_on,1,0,0,,0,,,60,127
36383,note_off,95,0,0,,0,,,60,127
36384,note_on,1,0,0,,7,,,67,127
36479,note_off,95,0,0,,7,,,67,127
36480,note_on,1,0,0,,0,,,60,127
36575,note_off,95,0,0,,0,,,60,127
36575,note_off,0,0,0,,10,,,81,127
36576,note_on,1,0,0,,3,,,39,127
36576,note_on,0,0,0,,3,,,51,127
36576,note_on,0,0,0,,10,,,69,127
36671,note_off,95,0,0,,10,,,69,127
36672,note_on,1,0,0,,0,,,60,127
36767,note_off,95,0,0,,0,,,60,127
36768,note_on,1,0,0,,11,,,70,127
36863,note_off,95,0,0,,11,,,70,127
36864,note_on,1,0,0,,0,,,60,127
36959,note_off,95,0,0,,0,,,60,127
36959,note_off,0,0,0,,3,,,51,127
36959,note_off,0,0,0,,3,,,39,127
36960,note_on,1,0,0,,2,,,38,127
36960,note_on,0,0,0,,2,,,50,127
36960,note_on,0,0,0,,10,,,69,127
37055,note_off,95,0,0,,10,,,69,127
37056,note_on,1,0,0,,2,,,62,127
37151,note_off,95,0,0,,2,,,62,127
37152,note_on,1,0,0,,7,,,67,127
37247,note_off,95,0,0,,7,,,67,127
37248,note_on,1,0,0,,2,,,62,127
37343,note_off,95,0,0,,2,,,62,127
37343,note_off,0,0,0,,2,,,50,127
37343,note_off,0,0,0,,2,,,38,127
37344,note_on,1,0,0,,10,,,81,127
37344,note_on,0,0,0,,6,,,66,127
37439,note_off,95,0,0,,6,,,66,127
37440,note_on,1,0,0,,2,,,62,127
37535,note_off,95,0,0,,2,,,62,127
37536,note_on,1,0,0,,7,,,67,127
37631,note_off,95,0,0,,7,,,67,127
37632,note_on,1,0,0,,2,,,62,127
37727,note_off,95,0,0,,2,,,62,127
37727,note_off,0,0,0,,10,,,81,127
37728,note_on,1,0,0,,2,,,38,127
37728,note_on,0,0,0,,2,,,50,127
37728,note_on,0,0,0,,10,,,69,127
37823,note_off,95,0,0,,10,,,69,127
37824,note_on,1,0,0,,2,,,62,127
37919,note_off,95,0,0,,2,,,62,127
37920,note_on,1,0,0,,11,,,70,127
38015,note_off,95,0,0,,11,,,70,127
38016,note_on,1,0,0,,2,,,62,127
38111,note_off,95,0,0,,2,,,62,127
38111,note_off,0,0,0,,2,,,50,127
38111,note_off,0,0,0,,2,,,38,127
38112,note_on,1,0,0,,0,,,36,127
38112,note_on,0,0,0,,0,,,48,127
38112,note_on,0,0,0,,10,,,69,127
38207,note_off,95,0,0,,10,,,69,127
38208,note_on,1,0,0,,3,,,63,127
38303,note_off,95,0,0,,3,,,63,127
38304,note_on,1,0,0,,11,,,70,127
38399,note_off,95,0,0,,11,,,70,127
38400,note_on,1,0,0,,3,,,63,127
38495,note_off,95,0,0,,3,,,63,127
38495,note_off,0,0,0,,0,,,48,127
38495,note_off,0,0,0,,0,,,36,127
38496,note_on,1,0,0,,10,,,81,127
38496,note_on,0,0,0,,0,,,72,127
38591,note_off,95,0,0,,0,,,72,127
38592,note_on,1,0,0,,3,,,63,127
38687,note_off,95,0,0,,3,,,63,127
38688,note_on,1,0,0,,11,,,70,127
38783,note_off,95,0,0,,11,,,70,127
38784,note_on,1,0,0,,3,,,63,127
38879,note_off,95,0,0,,3,,,63,127
38879,note_off,0,0,0,,10,,,81,127
38880,note_on,1,0,0,,0,,,48,127
38880,note_on,0,0,0,,0,,,36,127
38880,note_on,0,0,0,,10,,,69,127
38975,note_off,95,0,0,,10,,,69,127
38976,note_on,1,0,0,,3,,,63,127
39071,note_off,95,0,0,,3,,,63,127
39072,note_on,1,0,0,,7,,,67,127
39167,note_off,95,0,0,,7,,,67,127
39168,note_on,1,0,0,,3,,,63,127
39263,note_off,95,0,0,,3,,,63,127
39263,note_off,0,0,0,,0,,,36,127
39263,note_off,0,0,0,,0,,,48,127
39264,note_on,1,0,0,,2,,,38,127
39264,note_on,0,0,0,,2,,,50,127
39264,note_on,0,0,0,,6,,,66,127
39359,note_off,95,0,0,,6,,,66,127
39360,note_on,1,0,0,,2,,,62,127
39455,note_off,95,0,0,,2,,,62,127
39456,note_on,1,0,0,,7,,,67,127
39551,note_off,95,0,0,,7,,,67,127
39552,note_on,1,0,0,,2,,,62,127
39647,note_off,95,0,0,,2,,,62,127
39647,note_off,0,0,0,,2,,,50,127
39647,note_off,0,0,0,,2,,,38,127
39648,note_on,1,0,0,,10,,,81,127
39648,note_on,0,0,0,,6,,,66,127
39743,note_off,95,0,0,,6,,,66,127
39744,note_on,1,0,0,,2,,,62,127
39839,note_off,95,0,0,,2,,,62,127
39840,note_on,1,0,0,,7,,,67,127
39935,note_off,95,0,0,,7,,,67,127
39936,note_on,1,0,0,,2,,,62,127
40031,note_off,95,0,0,,2,,,62,127
40031,note_off,0,0,0,,10,,,81,127
40032,note_on,1,0,0,,2,,,38,127
40032,note_on,0,0,0,,2,,,50,127
40032,note_on,0,0,0,,6,,,66,127
40127,note_off,95,0,0,,6,,,66,127
40128,note_on,1,0,0,,2,,,62,127
40223,note_off,95,0,0,,2,,,62,127
40224,note_on,1,0,0,,7,,,67,127
40319,note_off,95,0,0,,7,,,67,127
40320,note_on,1,0,0,,2,,,62,127
40415,note_off,95,0,0,,2,,,62,127
40415,note_off,0,0,0,,2,,,50,127
40415,note_off,0,0,0,,2,,,38,127
40416,note_on,1,0,0,,3,,,39,127
40416,note_on,0,0,0,,3,,,51,127
40416,note_on,0,0,0,,6,,,66,127
40511,note_off,95,0,0,,6,,,66,127
40512,note_on,1,0,0,,0,,,60,127
40607,note_off,95,0,0,,0,,,60,127
40608,note_on,1,0,0,,7,,,67,127
40703,note_off,95,0,0,,7,,,67,127
40704,note_on,1,0,0,,0,,,60,127
40799,note_off,95,0,0,,0,,,60,127
40799,note_off,0,0,0,,3,,,51,127
40799,note_off,0,0,0,,3,,,39,127
40800,note_on,1,0,0,,10,,,81,127
40800,note_on,0,0,0,,6,,,66,127
40895,note_off,95,0,0,,6,,,66,127
40896,note_on,1,0,0,,0,,,60,127
40991,note_off,95,0,0,,0,,,60,127
40992,note_on,1,0,0,,7,,,67,127
41087,note_off,95,0,0,,7,,,67,127
41088,note_on,1,0,0,,0,,,60,127
41183,note_off,95,0,0,,0,,,60,127
41183,note_off,0,0,0,,10,,,81,127
41184,note_on,1,0,0,,3,,,39,127
41184,note_on,0,0,0,,3,,,51,127
41184,note_on,0,0,0,,6,,,66,127
41279,note_off,95,0,0,,6,,,66,127
41280,note_on,1,0,0,,7,,,67,127
41375,note_off,95,0,0,,7,,,67,127
41376,note_on,1,0,0,,10,,,69,127
41423,note_off,47,0,0,,10,,,69,127
41424,note_on,1,0,0,,7,,,67,127
41471,note_off,47,0,0,,7,,,67,127
41472,note_on,1,0,0,,6,,,66,127
41519,note_off,47,0,0,,6,,,66,127
41520,note_on,1,0,0,,7,,,67,127
41567,note_off,47,0,0,,7,,,67,127
41567,note_off,0,0,0,,3,,,51,127
41567,note_off,0,0,0,,3,,,39,127
41568,note_on,1,0,0,,2,,,50,127
41568,note_on,0,0,0,,2,,,38,127
41568,note_on,0,0,0,,7,,,67,127
41759,note_off,191,0,0,,7,,,67,127
41760,note_on,1,0,0,,10,,,69,127
41951,note_off,191,0,0,,2,,,38,127
41951,note_off,0,0,0,,2,,,50,127
41952,note_on,1,0,0,,2,,,50,127
42047,note_off,95,0,0,,10,,,69,127
42048,note_on,1,0,0,,6,,,66,127
42143,note_off,95,0,0,,6,,,66,127
42144,note_on,1,0,0,,10,,,69,127
42239,note_off,95,0,0,,10,,,69,127
42240,note_on,1,0,0,,3,,,75,127
42335,note_off,95,0,0,,3,,,75,127
42335,note_off,0,0,0,,2,,,50,127
42336,note_on,1,0,0,,6,,,54,127
42336,note_on,0,0,0,,0,,,60,127
42336,note_on,0,0,0,,2,,,62,127
42336,note_on,0,0,0,,2,,,74,127
42431,note_off,95,0,0,,2,,,74,127
42432,note_on,1,0,0,,0,,,72,127
42527,note_off,95,0,0,,0,,,72,127
42528,note_on,1,0,0,,11,,,70,127
42623,note_off,95,0,0,,11,,,70,127
42624,note_on,1,0,0,,10,,,69,127
42719,note_off,95,0,0,,10,,,69,127
42719,note_off,0,0,0,,2,,,62,127
42719,note_off,0,0,0,,0,,,60,127
42719,note_off,0,0,0,,6,,,54,127
42720,note_on,1,0,0,,7,,,55,127
42720,note_on,0,0,0,,2,,,62,127
42720,note_on,0,0,0,,11,,,58,127
42720,note_on,0,0,0,,0,,,72,127
42815,note_off,95,0,0,,0,,,72,127
42816,note_on,1,0,0,,11,,,70,127
42911,note_off,95,0,0,,11,,,70,127
42912,note_on,1,0,0,,10,,,69,127
43007,note_off,95,0,0,,10,,,69,127
43008,note_on,1,0,0,,7,,,67,127
43103,note_off,95,0,0,,7,,,67,127
43103,note_off,0,0,0,,11,,,58,127
43103,note_off,0,0,0,,2,,,62,127
43103,note_off,0,0,0,,7,,,55,127
43104,note_on,1,0,0,,0,,,60,127
43104,note_on,0,0,0,,0,,,48,127
43104,note_on,0,0,0,,4,,,64,127
43295,note_off,191,0,0,,4,,,64,127
43296,note_on,1,0,0,,7,,,67,127
43487,note_off,191,0,0,,0,,,48,127
43487,note_off,0,0,0,,0,,,60,127
43488,note_on,1,0,0,,2,,,50,127
43488,note_on,0,0,0,,0,,,60,127
43679,note_off,191,0,0,,7,,,67,127
43680,note_on,1,0,0,,6,,,66,127
43871,note_off,191,0,0,,6,,,66,127
43871,note_off,0,0,0,,0,,,60,127
43871,note_off,0,0,0,,2,,,50,127
43872,note_on,1,0,0,,3,,,51,127
43872,note_on,0,0,0,,0,,,60,127
43872,note_on,0,0,0,,7,,,67,127
43967,note_off,95,0,0,,7,,,67,127
43968,note_on,1,0,0,,0,,,72,127
44063,note_off,95,0,0,,0,,,72,127
44064,note_on,1,0,0,,3,,,75,127
44255,note_off,191,0,0,,0,,,60,127
44255,note_off,0,0,0,,3,,,51,127
44256,note_on,1,0,0,,0,,,48,127
44256,note_on,0,0,0,,0,,,60,127
44447,note_off,191,0,0,,3,,,75,127
44448,note_on,1,0,0,,3,,,75,127
44639,note_off,191,0,0,,0,,,60,127
44639,note_off,0,0,0,,0,,,48,127
44640,note_on,1,0,0,,0,,,60,127
44640,note_on,0,0,0,,6,,,54,127
44640,note_on,0,0,0,,2,,,62,127
44831,note_off,191,0,0,,3,,,75,127
44832,note_on,1,0,0,,2,,,74,127
44879,note_off,47,0,0,,2,,,74,127
44880,note_on,1,0,0,,0,,,72,127
44927,note_off,47,0,0,,0,,,72,127
44928,note_on,1,0,0,,11,,,70,127
44975,note_off,47,0,0,,11,,,70,127
44976,note_on,1,0,0,,10,,,69,127
45023,note_off,47,0,0,,10,,,69,127
45023,note_off,0,0,0,,2,,,62,127
45023,note_off,0,0,0,,6,,,54,127
45023,note_off,0,0,0,,0,,,60,127
45024,note_on,1,0,0,,7,,,55,127
45024,note_on,0,0,0,,11,,,58,127
45024,note_on,0,0,0,,2,,,62,127
45024,note_on,0,0,0,,0,,,72,127
45119,note_off,95,0,0,,0,,,72,127
45120,note_on,1,0,0,,11,,,70,127
45215,note_off,95,0,0,,11,,,70,127
45216,note_on,1,0,0,,10,,,69,127
45311,note_off,95,0,0,,10,,,69,127
45312,note_on,1,0,0,,7,,,67,127
45407,note_off,95,0,0,,7,,,67,127
45407,note_off,0,0,0,,2,,,62,127
45407,note_off,0,0,0,,11,,,58,127
45407,note_off,0,0,0,,7,,,55,127
45408,note_on,1,0,0,,0,,,48,127
45408,note_on,0,0,0,,0,,,60,127
45408,note_on,0,0,0,,4,,,64,127
45599,note_off,191,0,0,,4,,,64,127
45600,note_on,1,0,0,,7,,,67,127
45791,note_off,191,0,0,,0,,,60,127
45791,note_off,0,0,0,,0,,,48,127
45792,note_on,1,0,0,,2,,,50,127
45792,note_on,0,0,0,,0,,,60,127
45983,note_off,191,0,0,,7,,,67,127
45984,note_on,1,0,0,,6,,,66,127
46175,note_off,191,0,0,,6,,,66,127
46175,note_off,0,0,0,,0,,,60,127
46175,note_off,0,0,0,,2,,,50,127
46176,note_on,1,0,0,,3,,,51,127
46176,note_on,0,0,0,,0,,,60,127
46176,note_on,0,0,0,,7,,,67,127
46271,note_off,95,0,0,,7,,,67,127
46272,note_on,1,0,0,,3,,,75,127
46367,note_off,95,0,0,,3,,,75,127
46368,note_on,1,0,0,,7,,,79,127
46559,note_off,191,0,0,,0,,,60,127
46559,note_off,0,0,0,,3,,,51,127
46560,note_on,1,0,0,,0,,,60,127
46560,note_on,0,0,0,,0,,,48,127
46751,note_off,191,0,0,,7,,,79,127
46752,note_on,1,0,0,,7,,,79,127
46943,note_off,191,0,0,,0,,,48,127
46943,note_off,0,0,0,,0,,,60,127
46944,note_on,1,0,0,,0,,,60,127
46944,note_on,0,0,0,,6,,,54,127
46944,note_on,0,0,0,,2,,,62,127
47135,note_off,191,0,0,,7,,,79,127
47136,note_on,1,0,0,,5,,,77,127
47183,note_off,47,0,0,,5,,,77,127
47184,note_on,1,0,0,,3,,,75,127
47231,note_off,47,0,0,,3,,,75,127
47232,note_on,1,0,0,,2,,,74,127
47279,note_off,47,0,0,,2,,,74,127
47280,note_on,1,0,0,,0,,,72,127
47327,note_off,47,0,0,,0,,,72,127
47327,note_off,0,0,0,,2,,,62,127
47327,note_off,0,0,0,,6,,,54,127
47327,note_off,0,0,0,,0,,,60,127
47328,note_on,1,0,0,,7,,,55,127
47328,note_on,0,0,0,,11,,,58,127
47328,note_on,0,0,0,,2,,,62,127
47328,note_on,0,0,0,,0,,,72,127
47423,note_off,95,0,0,,0,,,72,127
47424,note_on,1,0,0,,11,,,70,127
47519,note_off,95,0,0,,11,,,70,127
47520,note_on,1,0,0,,10,,,69,127
47615,note_off,95,0,0,,10,,,69,127
47616,note_on,1,0,0,,7,,,67,127
47711,note_off,95,0,0,,7,,,67,127
47711,note_off,0,0,0,,2,,,62,127
47711,note_off,0,0,0,,11,,,58,127
47711,note_off,0,0,0,,7,,,55,127
47712,note_on,1,0,0,,0,,,60,127
47712,note_on,0,0,0,,0,,,48,127
47712,note_on,0,0,0,,0,,,72,127
47712,note_on,0,0,0,,10,,,69,127
47903,note_off,191,0,0,,10,,,69,127
47903,note_off,0,0,0,,0,,,72,127
47904,note_on,1,0,0,,11,,,70,127
47904,note_on,0,0,0,,7,,,67,127
48095,note_off,191,0,0,,0,,,48,127
48095,note_off,0,0,0,,0,,,60,127
48096,note_on,1,0,0,,2,,,62,127
48096,note_on,0,0,0,,2,,,50,127
48287,note_off,191,0,0,,7,,,67,127
48287,note_off,0,0,0,,11,,,70,127
48288,note_on,1,0,0,,10,,,69,127
48288,note_on,0,0,0,,6,,,66,127
48479,note_off,191,0,0,,6,,,66,127
48479,note_off,0,0,0,,10,,,69,127
48479,note_off,0,0,0,,2,,,50,127
48479,note_off,0,0,0,,2,,,62,127
48480,note_on,1,0,0,,7,,,55,127
48480,note_on,0,0,0,,7,,,43,127
48480,note_on,0,0,0,,7,,,67,127
49440,note_off,960,0,0,,7,,,43,127
49631,note_off,191,0,0,,7,,,67,127
49631,note_off,0,0,0,,7,,,55,127
49632,note_on,1,0,0,,7,,,55,127
49728,note_on,96,0,0,,7,,,67,127
49823,note_off,95,0,0,,7,,,67,127
49824,note_on,1,0,0,,8,,,68,127
49919,note_off,95,0,0,,8,,,68,127
49920,note_on,1,0,0,,10,,,69,127
50015,note_off,95,0,0,,10,,,69,127
50016,note_on,1,0,0,,11,,,70,127
50111,note_off,95,0,0,,11,,,70,127
50112,note_on,1,0,0,,12,,,71,127
50207,note_off,95,0,0,,12,,,71,127
50208,note_on,1,0,0,,0,,,72,127
50303,note_off,95,0,0,,0,,,72,127
50304,note_on,1,0,0,,2,,,74,127
50399,note_off,95,0,0,,2,,,74,127
50400,note_on,1,0,0,,3,,,75,127
50591,note_off,191,0,0,,3,,,75,127
50592,note_on,1,0,0,,5,,,77,127
50783,note_off,191,0,0,,5,,,77,127
50783,note_off,0,0,0,,7,,,55,127
50784,note_on,1,0,0,,7,,,55,127
50784,note_on,0,0,0,,5,,,65,127
50784,note_on,0,0,0,,2,,,74,127
50975,note_off,191,0,0,,2,,,74,127
50976,note_on,1,0,0,,12,,,71,127
51167,note_off,191,0,0,,12,,,71,127
51167,note_off,0,0,0,,5,,,65,127
51167,note_off,0,0,0,,7,,,55,127
51168,note_on,1,0,0,,7,,,55,127
51168,note_on,0,0,0,,7,,,67,127
51168,note_on,0,0,0,,12,,,71,127
51423,note_off,255,0,0,,12,,,71,127
51424,note_on,1,0,0,,2,,,74,127
51487,note_off,63,0,0,,2,,,74,127
51488,note_on,1,0,0,,0,,,72,127
51551,note_off,63,0,0,,0,,,72,127
51551,note_off,0,0,0,,7,,,67,127
51551,note_off,0,0,0,,7,,,55,127
51552,note_on,1,0,0,,8,,,68,127
51552,note_on,0,0,0,,7,,,55,127
51552,note_on,0,0,0,,2,,,74,127
51615,note_off,63,0,0,,2,,,74,127
51616,note_on,1,0,0,,0,,,72,127
51679,note_off,63,0,0,,0,,,72,127
51680,note_on,1,0,0,,2,,,74,127
51743,note_off,63,0,0,,2,,,74,127
51744,note_on,1,0,0,,0,,,72,127
51807,note_off,63,0,0,,0,,,72,127
51808,note_on,1,0,0,,12,,,71,127
51871,note_off,63,0,0,,12,,,71,127
51872,note_on,1,0,0,,0,,,72,127
51935,note_off,63,0,0,,0,,,72,127
51935,note_off,0,0,0,,7,,,55,127
51935,note_off,0,0,0,,8,,,68,127
51936,note_on,1,0,0,,7,,,55,127
51936,note_on,0,0,0,,7,,,67,127
51936,note_on,0,0,0,,2,,,74,127
52031,note_off,95,0,0,,2,,,74,127
52031,note_off,0,0,0,,7,,,67,127
52032,note_on,1,0,0,,7,,,67,127
52128,note_on,96,0,0,,8,,,68,127
52223,note_off,95,0,0,,8,,,68,127
52224,note_on,1,0,0,,10,,,69,127
52319,note_off,95,0,0,,10,,,69,127
52320,note_on,1,0,0,,11,,,70,127
52415,note_off,95,0,0,,11,,,70,127
52415,note_off,0,0,0,,7,,,67,127
52416,note_on,1,0,0,,12,,,71,127
52511,note_off,95,0,0,,12,,,71,127
52512,note_on,1,0,0,,0,,,72,127
52607,note_off,95,0,0,,0,,,72,127
52608,note_on,1,0,0,,2,,,74,127
52703,note_off,95,0,0,,2,,,74,127
52703,note_off,0,0,0,,7,,,55,127
52704,note_on,1,0,0,,3,,,75,127
52895,note_off,191,0,0,,3,,,75,127
52896,note_on,1,0,0,,5,,,77,127
53087,note_off,191,0,0,,5,,,77,127
53088,note_on,1,0,0,,7,,,55,127
53088,note_on,0,0,0,,5,,,65,127
53088,note_on,0,0,0,,2,,,74,127
53279,note_off,191,0,0,,2,,,74,127
53280,note_on,1,0,0,,12,,,71,127
53471,note_off,191,0,0,,12,,,71,127
53471,note_off,0,0,0,,5,,,65,127
53471,note_off,0,0,0,,7,,,55,127
53472,note_on,1,0,0,,7,,,55,127
53472,note_on,0,0,0,,7,,,67,127
53472,note_on,0,0,0,,12,,,71,127
53727,note_off,255,0,0,,12,,,71,127
53728,note_on,1,0,0,,2,,,74,127
53791,note_off,63,0,0,,2,,,74,127
53792,note_on,1,0,0,,0,,,72,127
53855,note_off,63,0,0,,0,,,72,127
53855,note_off,0,0,0,,7,,,67,127
53855,note_off,0,0,0,,7,,,55,127
53856,note_on,1,0,0,,8,,,68,127
53856,note_on,0,0,0,,7,,,55,127
53856,note_on,0,0,0,,2,,,74,127
53919,note_off,63,0,0,,2,,,74,127
53920,note_on,1,0,0,,0,,,72,127
53983,note_off,63,0,0,,0,,,72,127
53984,note_on,1,0,0,,2,,,74,127
54047,note_off,63,0,0,,2,,,74,127
54048,note_on,1,0,0,,0,,,72,127
54111,note_off,63,0,0,,0,,,72,127
54112,note_on,1,0,0,,12,,,71,127
54175,note_off,63,0,0,,12,,,71,127
54176,note_on,1,0,0,,0,,,72,127
54239,note_off,63,0,0,,0,,,72,127
54239,note_off,0,0,0,,7,,,55,127
54239,note_off,0,0,0,,8,,,68,127
54240,note_on,1,0,0,,7,,,55,127
54240,note_on,0,0,0,,7,,,67,127
54240,note_on,0,0,0,,0,,,72,127
54431,note_off,191,0,0,,0,,,72,127
54432,note_on,1,0,0,,2,,,74,127
54815,note_off,383,0,0,,2,,,74,127
54815,note_off,0,0,0,,7,,,67,127
54815,note_off,0,0,0,,7,,,55,127
54816,note_on,1,0,0,,11,,,82,127
54911,note_off,95,0,0,,11,,,82,127
54912,note_on,1,0,0,,1,,,73,127
55007,note_off,95,0,0,,1,,,73,127
55008,note_on,1,0,0,,11,,,82,127
55103,note_off,95,0,0,,11,,,82,127
55104,note_on,1,0,0,,1,,,73,127
55199,note_off,95,0,0,,1,,,73,127
55200,note_on,1,0,0,,8,,,80,127
55295,note_off,95,0,0,,8,,,80,127
55296,note_on,1,0,0,,0,,,72,127
55391,note_off,95,0,0,,0,,,72,127
55392,note_on,1,0,0,,7,,,79,127
55487,note_off,95,0,0,,7,,,79,127
55488,note_on,1,0,0,,11,,,70,127
55583,note_off,95,0,0,,11,,,70,127
55584,note_on,1,0,0,,5,,,77,127
55679,note_off,95,0,0,,5,,,77,127
55680,note_on,1,0,0,,8,,,68,127
55775,note_off,95,0,0,,8,,,68,127
55776,note_on,1,0,0,,0,,,48,127
55776,note_on,0,0,0,,0,,,60,127
55776,note_on,0,0,0,,4,,,76,127
55871,note_off,95,0,0,,4,,,76,127
55872,note_on,1,0,0,,7,,,67,127
55967,note_off,95,0,0,,7,,,67,127
55968,note_on,1,0,0,,1,,,73,127
56063,note_off,95,0,0,,1,,,73,127
56064,note_on,1,0,0,,5,,,65,127
56159,note_off,95,0,0,,5,,,65,127
56159,note_off,0,0,0,,0,,,60,127
56159,note_off,0,0,0,,0,,,48,127
56160,note_on,1,0,0,,0,,,48,127
56160,note_on,0,0,0,,0,,,36,127
56160,note_on,0,0,0,,0,,,72,127
56255,note_off,95,0,0,,0,,,72,127
56256,note_on,1,0,0,,4,,,64,127
56351,note_off,95,0,0,,4,,,64,127
56352,note_on,1,0,0,,11,,,70,127
56447,note_off,95,0,0,,11,,,70,127
56448,note_on,1,0,0,,7,,,67,127
56543,note_off,95,0,0,,7,,,67,127
56543,note_off,0,0,0,,0,,,36,127
56543,note_off,0,0,0,,0,,,48,127
56544,note_on,1,0,0,,5,,,41,127
56544,note_on,0,0,0,,5,,,53,127
56544,note_on,0,0,0,,11,,,70,127
56544,note_on,0,0,0,,7,,,67,127
56927,note_off,383,0,0,,7,,,67,127
56927,note_off,0,0,0,,11,,,70,127
56927,note_off,0,0,0,,5,,,53,127
56927,note_off,0,0,0,,5,,,41,127
56928,note_on,1,0,0,,5,,,41,127
56928,note_on,0,0,0,,5,,,53,127
56928,note_on,0,0,0,,5,,,65,127
56928,note_on,0,0,0,,8,,,68,127
57119,note_off,191,0,0,,8,,,68,127
57119,note_off,0,0,0,,5,,,65,127
57120,note_on,1,0,0,,8,,,80,127
57215,note_off,95,0,0,,8,,,80,127
57216,note_on,1,0,0,,0,,,72,127
57311,note_off,95,0,0,,0,,,72,127
57312,note_on,1,0,0,,8,,,80,127
57407,note_off,95,0,0,,8,,,80,127
57408,note_on,1,0,0,,0,,,72,127
57503,note_off,95,0,0,,0,,,72,127
57504,note_on,1,0,0,,7,,,79,127
57599,note_off,95,0,0,,7,,,79,127
57600,note_on,1,0,0,,11,,,70,127
57695,note_off,95,0,0,,11,,,70,127
57695,note_off,0,0,0,,5,,,53,127
57695,note_off,0,0,0,,5,,,41,127
57696,note_on,1,0,0,,5,,,77,127
57791,note_off,95,0,0,,5,,,77,127
57792,note_on,1,0,0,,8,,,68,127
57887,note_off,95,0,0,,8,,,68,127
57888,note_on,1,0,0,,3,,,75,127
57983,note_off,95,0,0,,3,,,75,127
57984,note_on,1,0,0,,7,,,67,127
58079,note_off,95,0,0,,7,,,67,127
58080,note_on,1,0,0,,11,,,46,127
58080,note_on,0,0,0,,11,,,58,127
58080,note_on,0,0,0,,2,,,74,127
58175,note_off,95,0,0,,2,,,74,127
58176,note_on,1,0,0,,5,,,65,127
58271,note_off,95,0,0,,5,,,65,127
58272,note_on,1,0,0,,0,,,72,127
58367,note_off,95,0,0,,0,,,72,127
58368,note_on,1,0,0,,3,,,63,127
58463,note_off,95,0,0,,3,,,63,127
58463,note_off,0,0,0,,11,,,58,127
58463,note_off,0,0,0,,11,,,46,127
58464,note_on,1,0,0,,11,,,46,127
58464,note_on,0,0,0,,11,,,34,127
58464,note_on,0,0,0,,11,,,70,127
58559,note_off,95,0,0,,11,,,70,127
58560,note_on,1,0,0,,2,,,62,127
58655,note_off,95,0,0,,2,,,62,127
58656,note_on,1,0,0,,8,,,68,127
58751,note_off,95,0,0,,8,,,68,127
58752,note_on,1,0,0,,5,,,65,127
58847,note_off,95,0,0,,5,,,65,127
58847,note_off,0,0,0,,11,,,34,127
58847,note_off,0,0,0,,11,,,46,127
58848,note_on,1,0,0,,3,,,39,127
58848,note_on,0,0,0,,3,,,51,127
58848,note_on,0,0,0,,7,,,67,127
58943,note_off,95,0,0,,7,,,67,127
58944,note_on,1,0,0,,3,,,63,127
59039,note_off,95,0,0,,3,,,63,127
59040,note_on,1,0,0,,5,,,65,127
59135,note_off,95,0,0,,5,,,65,127
59136,note_on,1,0,0,,3,,,63,127
59231,note_off,95,0,0,,3,,,63,127
59231,note_off,0,0,0,,3,,,51,127
59231,note_off,0,0,0,,3,,,39,127
59232,note_on,1,0,0,,3,,,75,127
59232,note_on,0,0,0,,7,,,79,127
59232,note_on,0,0,0,,7,,,67,127
59327,note_off,95,0,0,,7,,,67,127
59328,note_on,1,0,0,,3,,,63,127
59423,note_off,95,0,0,,3,,,63,127
59424,note_on,1,0,0,,7,,,67,127
59519,note_off,95,0,0,,7,,,67,127
59520,note_on,1,0,0,,3,,,63,127
59615,note_off,95,0,0,,3,,,63,127
59615,note_off,0,0,0,,7,,,79,127
59615,note_off,0,0,0,,3,,,75,127
59616,note_on,1,0,0,,7,,,79,127
59616,note_on,0,0,0,,11,,,82,127
59616,note_on,0,0,0,,11,,,70,127
59711,note_off,95,0,0,,11,,,70,127
59712,note_on,1,0,0,,3,,,63,127
59807,note_off,95,0,0,,3,,,63,127
59808,note_on,1,0,0,,7,,,67,127
59903,note_off,95,0,0,,7,,,67,127
59904,note_on,1,0,0,,3,,,63,127
59999,note_off,95,0,0,,3,,,63,127
59999,note_off,0,0,0,,11,,,82,127
59999,note_off,0,0,0,,7,,,79,127
60000,note_on,1,0,0,,11,,,46,127
60000,note_on,0,0,0,,5,,,65,127
60095,note_off,95,0,0,,5,,,65,127
60096,note_on,1,0,0,,2,,,62,127
60191,note_off,95,0,0,,2,,,62,127
60192,note_on,1,0,0,,3,,,63,127
60287,note_off,95,0,0,,3,,,63,127
60288,note_on,1,0,0,,2,,,62,127
60383,note_off,95,0,0,,2,,,62,127
60383,note_off,0,0,0,,11,,,46,127
60384,note_on,1,0,0,,2,,,74,127
60384,note_on,0,0,0,,5,,,77,127
60384,note_on,0,0,0,,5,,,65,127
60479,note_off,95,0,0,,5,,,65,127
60480,note_on,1,0,0,,2,,,62,127
60575,note_off,95,0,0,,2,,,62,127
60576,note_on,1,0,0,,3,,,63,127
60671,note_off,95,0,0,,3,,,63,127
60672,note_on,1,0,0,,2,,,62,127
60767,note_off,95,0,0,,2,,,62,127
60767,note_off,0,0,0,,5,,,77,127
60767,note_off,0,0,0,,2,,,74,127
60768,note_on,1,0,0,,5,,,77,127
60768,note_on,0,0,0,,8,,,80,127
60768,note_on,0,0,0,,8,,,68,127
60863,note_off,95,0,0,,8,,,68,127
60864,note_on,1,0,0,,2,,,62,127
60959,note_off,95,0,0,,2,,,62,127
60960,note_on,1,0,0,,5,,,65,127
61055,note_off,95,0,0,,5,,,65,127
61056,note_on,1,0,0,,2,,,62,127
61151,note_off,95,0,0,,2,,,62,127
61151,note_off,0,0,0,,8,,,80,127
61151,note_off,0,0,0,,5,,,77,127
61152,note_on,1,0,0,,3,,,39,127
61152,note_on,0,0,0,,3,,,51,127
61152,note_on,0,0,0,,7,,,67,127
61247,note_off,95,0,0,,7,,,67,127
61248,note_on,1,0,0,,3,,,63,127
61343,note_off,95,0,0,,3,,,63,127
61344,note_on,1,0,0,,5,,,65,127
61439,note_off,95,0,0,,5,,,65,127
61440,note_on,1,0,0,,3,,,63,127
61535,note_off,95,0,0,,3,,,63,127
61535,note_off,0,0,0,,3,,,51,127
61535,note_off,0,0,0,,3,,,39,127
61536,note_on,1,0,0,,3,,,75,127
61536,note_on,0,0,0,,7,,,79,127
61536,note_on,0,0,0,,7,,,67,127
61631,note_off,95,0,0,,7,,,67,127
61632,note_on,1,0,0,,3,,,63,127
61727,note_off,95,0,0,,3,,,63,127
61728,note_on,1,0,0,,7,,,67,127
61823,note_off,95,0,0,,7,,,67,127
61824,note_on,1,0,0,,3,,,63,127
61919,note_off,95,0,0,,3,,,63,127
61919,note_off,0,0,0,,7,,,79,127
61919,note_off,0,0,0,,3,,,75,127
61920,note_on,1,0,0,,7,,,79,127
61920,note_on,0,0,0,,11,,,82,127
61920,note_on,0,0,0,,11,,,70,127
62015,note_off,95,0,0,,11,,,70,127
62016,note_on,1,0,0,,3,,,63,127
62111,note_off,95,0,0,,3,,,63,127
62112,note_on,1,0,0,,7,,,67,127
62207,note_off,95,0,0,,7,,,67,127
62208,note_on,1,0,0,,3,,,63,127
62303,note_off,95,0,0,,3,,,63,127
62303,note_off,0,0,0,,11,,,82,127
62303,note_off,0,0,0,,7,,,79,127
62304,note_on,1,0,0,,11,,,46,127
62304,note_on,0,0,0,,5,,,65,127
62399,note_off,95,0,0,,5,,,65,127
62400,note_on,1,0,0,,2,,,62,127
62495,note_off,95,0,0,,2,,,62,127
62496,note_on,1,0,0,,3,,,63,127
62591,note_off,95,0,0,,3,,,63,127
62592,note_on,1,0,0,,2,,,62,127
62687,note_off,95,0,0,,2,,,62,127
62687,note_off,0,0,0,,11,,,46,127
62688,note_on,1,0,0,,5,,,77,127
62688,note_on,0,0,0,,2,,,74,127
62688,note_on,0,0,0,,5,,,65,127
62783,note_off,95,0,0,,5,,,65,127
62784,note_on,1,0,0,,2,,,62,127
62879,note_off,95,0,0,,2,,,62,127
62880,note_on,1,0,0,,3,,,63,127
62975,note_off,95,0,0,,3,,,63,127
62976,note_on,1,0,0,,2,,,62,127
63071,note_off,95,0,0,,2,,,62,127
63071,note_off,0,0,0,,2,,,74,127
63071,note_off,0,0,0,,5,,,77,127
63072,note_on,1,0,0,,8,,,80,127
63072,note_on,0,0,0,,5,,,77,127
63072,note_on,0,0,0,,8,,,68,127
63167,note_off,95,0,0,,8,,,68,127
63168,note_on,1,0,0,,2,,,62,127
63263,note_off,95,0,0,,2,,,62,127
63264,note_on,1,0,0,,5,,,65,127
63359,note_off,95,0,0,,5,,,65,127
63360,note_on,1,0,0,,2,,,62,127
63455,note_off,95,0,0,,2,,,62,127
63455,note_off,0,0,0,,5,,,77,127
63455,note_off,0,0,0,,8,,,80,127
63456,note_on,1,0,0,,3,,,39,127
63456,note_on,0,0,0,,3,,,51,127
63456,note_on,0,0,0,,7,,,67,127
63551,note_off,95,0,0,,7,,,67,127
63552,note_on,1,0,0,,3,,,63,127
63647,note_off,95,0,0,,3,,,63,127
63648,note_on,1,0,0,,5,,,65,127
63743,note_off,95,0,0,,5,,,65,127
63744,note_on,1,0,0,,3,,,63,127
63839,note_off,95,0,0,,3,,,63,127
63839,note_off,0,0,0,,3,,,51,127
63839,note_off,0,0,0,,3,,,39,127
63840,note_on,1,0,0,,3,,,75,127
63840,note_on,0,0,0,,7,,,79,127
63840,note_on,0,0,0,,7,,,67,127
63935,note_off,95,0,0,,7,,,67,127
63936,note_on,1,0,0,,3,,,63,127
64031,note_off,95,0,0,,3,,,63,127
64032,note_on,1,0,0,,7,,,67,127
64127,note_off,95,0,0,,7,,,67,127
64128,note_on,1,0,0,,3,,,63,127
64223,note_off,95,0,0,,3,,,63,127
64223,note_off,0,0,0,,7,,,79,127
64223,note_off,0,0,0,,3,,,75,127
64224,note_on,1,0,0,,7,,,79,127
64224,note_on,0,0,0,,11,,,82,127
64224,note_on,0,0,0,,11,,,70,127
64319,note_off,95,0,0,,11,,,70,127
64320,note_on,1,0,0,,3,,,63,127
64415,note_off,95,0,0,,3,,,63,127
64416,note_on,1,0,0,,7,,,67,127
64511,note_off,95,0,0,,7,,,67,127
64512,note_on,1,0,0,,3,,,63,127
64607,note_off,95,0,0,,3,,,63,127
64607,note_off,0,0,0,,11,,,82,127
64607,note_off,0,0,0,,7,,,79,127
64608,note_on,1,0,0,,0,,,48,127
64608,note_on,0,0,0,,0,,,36,127
64608,note_on,0,0,0,,7,,,67,127
64703,note_off,95,0,0,,7,,,67,127
64704,note_on,1,0,0,,4,,,64,127
64799,note_off,95,0,0,,4,,,64,127
64800,note_on,1,0,0,,5,,,65,127
64895,note_off,95,0,0,,5,,,65,127
64896,note_on,1,0,0,,4,,,64,127
64991,note_off,95,0,0,,4,,,64,127
64991,note_off,0,0,0,,0,,,36,127
64991,note_off,0,0,0,,0,,,48,127
64992,note_on,1,0,0,,4,,,76,127
64992,note_on,0,0,0,,7,,,79,127
64992,note_on,0,0,0,,7,,,67,127
65087,note_off,95,0,0,,7,,,67,127
65088,note_on,1,0,0,,4,,,64,127
65183,note_off,95,0,0,,4,,,64,127
65184,note_on,1,0,0,,7,,,67,127
65279,note_off,95,0,0,,7,,,67,127
65280,note_on,1,0,0,,4,,,64,127
65375,note_off,95,0,0,,4,,,64,127
65375,note_off,0,0,0,,7,,,79,127
65375,note_off,0,0,0,,4,,,76,127
65376,note_on,1,0,0,,11,,,82,127
65376,note_on,0,0,0,,7,,,79,127
65376,note_on,0,0,0,,11,,,70,127
65471,note_off,95,0,0,,11,,,70,127
65472,note_on,1,0,0,,4,,,64,127
65567,note_off,95,0,0,,4,,,64,127
65568,note_on,1,0,0,,7,,,67,127
65663,note_off,95,0,0,,7,,,67,127
65664,note_on,1,0,0,,4,,,64,127
65759,note_off,95,0,0,,4,,,64,127
65759,note_off,0,0,0,,7,,,79,127
65759,note_off,0,0,0,,11,,,82,127
65760,note_on,1,0,0,,5,,,41,127
65760,note_on,0,0,0,,5,,,53,127
65760,note_on,0,0,0,,8,,,68,127
65855,note_off,95,0,0,,8,,,68,127
65856,note_on,1,0,0,,5,,,65,127
65951,note_off,95,0,0,,5,,,65,127
65952,note_on,1,0,0,,7,,,67,127
66047,note_off,95,0,0,,7,,,67,127
66048,note_on,1,0,0,,5,,,65,127
66143,note_off,95,0,0,,5,,,65,127
66143,note_off,0,0,0,,5,,,53,127
66143,note_off,0,0,0,,5,,,41,127
66144,note_on,1,0,0,,5,,,77,127
66144,note_on,0,0,0,,8,,,80,127
66144,note_on,0,0,0,,8,,,68,127
66239,note_off,95,0,0,,8,,,68,127
66240,note_on,1,0,0,,5,,,65,127
66335,note_off,95,0,0,,5,,,65,127
66336,note_on,1,0,0,,8,,,68,127
66431,note_off,95,0,0,,8,,,68,127
66432,note_on,1,0,0,,5,,,65,127
66527,note_off,95,0,0,,5,,,65,127
66527,note_off,0,0,0,,8,,,80,127
66527,note_off,0,0,0,,5,,,77,127
66528,note_on,1,0,0,,8,,,80,127
66528,note_on,0,0,0,,0,,,84,127
66528,note_on,0,0,0,,0,,,72,127
66623,note_off,95,0,0,,0,,,72,127
66624,note_on,1,0,0,,5,,,65,127
66719,note_off,95,0,0,,5,,,65,127
66720,note_on,1,0,0,,8,,,68,127
66815,note_off,95,0,0,,8,,,68,127
66816,note_on,1,0,0,,5,,,65,127
66911,note_off,95,0,0,,5,,,65,127
66911,note_off,0,0,0,,0,,,84,127
66911,note_off,0,0,0,,8,,,80,127
66912,note_on,1,0,0,,0,,,48,127
66912,note_on,0,0,0,,0,,,36,127
66912,note_on,0,0,0,,7,,,67,127
67007,note_off,95,0,0,,7,,,67,127
67008,note_on,1,0,0,,4,,,64,127
67103,note_off,95,0,0,,4,,,64,127
67104,note_on,1,0,0,,5,,,65,127
67199,note_off,95,0,0,,5,,,65,127
67200,note_on,1,0,0,,4,,,64,127
67295,note_off,95,0,0,,4,,,64,127
67295,note_off,0,0,0,,0,,,36,127
67295,note_off,0,0,0,,0,,,48,127
67296,note_on,1,0,0,,4,,,76,127
67296,note_on,0,0,0,,7,,,79,127
67296,note_on,0,0,0,,7,,,67,127
67391,note_off,95,0,0,,7,,,67,127
67392,note_on,1,0,0,,4,,,64,127
67487,note_off,95,0,0,,4,,,64,127
67488,note_on,1,0,0,,7,,,67,127
67583,note_off,95,0,0,,7,,,67,127
67584,note_on,1,0,0,,4,,,64,127
67679,note_off,95,0,0,,4,,,64,127
67679,note_off,0,0,0,,7,,,79,127
67679,note_off,0,0,0,,4,,,76,127
67680,note_on,1,0,0,,11,,,82,127
67680,note_on,0,0,0,,7,,,79,127
67680,note_on,0,0,0,,11,,,70,127
67775,note_off,95,0,0,,11,,,70,127
67776,note_on,1,0,0,,4,,,64,127
67871,note_off,95,0,0,,4,,,64,127
67872,note_on,1,0,0,,7,,,67,127
67967,note_off,95,0,0,,7,,,67,127
67968,note_on,1,0,0,,4,,,64,127
68063,note_off,95,0,0,,4,,,64,127
68063,note_off,0,0,0,,7,,,79,127
68063,note_off,0,0,0,,11,,,82,127
68064,note_on,1,0,0,,5,,,41,127
68064,note_on,0,0,0,,5,,,53,127
68064,note_on,0,0,0,,8,,,68,127
68159,note_off,95,0,0,,8,,,68,127
68160,note_on,1,0,0,,5,,,65,127
68255,note_off,95,0,0,,5,,,65,127
68256,note_on,1,0,0,,7,,,67,127
68351,note_off,95,0,0,,7,,,67,127
68352,note_on,1,0,0,,5,,,65,127
68447,note_off,95,0,0,,5,,,65,127
68447,note_off,0,0,0,,5,,,53,127
68447,note_off,0,0,0,,5,,,41,127
68448,note_on,1,0,0,,8,,,80,127
68448,note_on,0,0,0,,5,,,77,127
68448,note_on,0,0,0,,8,,,68,127
68543,note_off,95,0,0,,8,,,68,127
68544,note_on,1,0,0,,5,,,65,127
68639,note_off,95,0,0,,5,,,65,127
68640,note_on,1,0,0,,8,,,68,127
68735,note_off,95,0,0,,8,,,68,127
68736,note_on,1,0,0,,5,,,65,127
68831,note_off,95,0,0,,5,,,65,127
68831,note_off,0,0,0,,5,,,77,127
68831,note_off,0,0,0,,8,,,80,127
68832,note_on,1,0,0,,8,,,80,127
68832,note_on,0,0,0,,0,,,84,127
68832,note_on,0,0,0,,0,,,72,127
68927,note_off,95,0,0,,0,,,72,127
68928,note_on,1,0,0,,5,,,65,127
69023,note_off,95,0,0,,5,,,65,127
69024,note_on,1,0,0,,8,,,68,127
69119,note_off,95,0,0,,8,,,68,127
69120,note_on,1,0,0,,5,,,65,127
69215,note_off,95,0,0,,5,,,65,127
69215,note_off,0,0,0,,0,,,84,127
69215,note_off,0,0,0,,8,,,80,127
69216,note_on,1,0,0,,2,,,38,127
69216,note_on,0,0,0,,2,,,50,127
69216,note_on,0,0,0,,5,,,65,127
69311,note_off,95,0,0,,5,,,65,127
69312,note_on,1,0,0,,2,,,62,127
69407,note_off,95,0,0,,2,,,62,127
69408,note_on,1,0,0,,5,,,65,127
69503,note_off,95,0,0,,5,,,65,127
69504,note_on,1,0,0,,2,,,62,127
69599,note_off,95,0,0,,2,,,62,127
69599,note_off,0,0,0,,2,,,50,127
69599,note_off,0,0,0,,2,,,38,127
69600,note_on,1,0,0,,5,,,77,127
69600,note_on,0,0,0,,2,,,74,127
69600,note_on,0,0,0,,8,,,68,127
69695,note_off,95,0,0,,8,,,68,127
69696,note_on,1,0,0,,2,,,62,127
69791,note_off,95,0,0,,2,,,62,127
69792,note_on,1,0,0,,5,,,65,127
69887,note_off,95,0,0,,5,,,65,127
69888,note_on,1,0,0,,2,,,62,127
69983,note_off,95,0,0,,2,,,62,127
69983,note_off,0,0,0,,2,,,74,127
69983,note_off,0,0,0,,5,,,77,127
69984,note_on,1,0,0,,11,,,82,127
69984,note_on,0,0,0,,2,,,74,127
69984,note_on,0,0,0,,5,,,65,127
70079,note_off,95,0,0,,5,,,65,127
70080,note_on,1,0,0,,2,,,62,127
70175,note_off,95,0,0,,2,,,62,127
70176,note_on,1,0,0,,5,,,65,127
70271,note_off,95,0,0,,5,,,65,127
70272,note_on,1,0,0,,2,,,62,127
70367,note_off,95,0,0,,2,,,62,127
70367,note_off,0,0,0,,2,,,74,127
70367,note_off,0,0,0,,11,,,82,127
70368,note_on,1,0,0,,3,,,39,127
70368,note_on,0,0,0,,3,,,51,127
70368,note_on,0,0,0,,7,,,67,127
70463,note_off,95,0,0,,7,,,67,127
70464,note_on,1,0,0,,3,,,63,127
70559,note_off,95,0,0,,3,,,63,127
70560,note_on,1,0,0,,5,,,65,127
70655,note_off,95,0,0,,5,,,65,127
70656,note_on,1,0,0,,3,,,63,127
70751,note_off,95,0,0,,3,,,63,127
70751,note_off,0,0,0,,3,,,51,127
70751,note_off,0,0,0,,3,,,39,127
70752,note_on,1,0,0,,3,,,75,127
70752,note_on,0,0,0,,7,,,79,127
70752,note_on,0,0,0,,7,,,67,127
70847,note_off,95,0,0,,7,,,67,127
70848,note_on,1,0,0,,3,,,63,127
70943,note_off,95,0,0,,3,,,63,127
70944,note_on,1,0,0,,7,,,67,127
71039,note_off,95,0,0,,7,,,67,127
71040,note_on,1,0,0,,3,,,63,127
71135,note_off,95,0,0,,3,,,63,127
71135,note_off,0,0,0,,7,,,79,127
71135,note_off,0,0,0,,3,,,75,127
71136,note_on,1,0,0,,3,,,75,127
71136,note_on,0,0,0,,0,,,84,127
71136,note_on,0,0,0,,0,,,72,127
71231,note_off,95,0,0,,0,,,72,127
71232,note_on,1,0,0,,3,,,63,127
71327,note_off,95,0,0,,3,,,63,127
71328,note_on,1,0,0,,7,,,67,127
71423,note_off,95,0,0,,7,,,67,127
71424,note_on,1,0,0,,3,,,63,127
71519,note_off,95,0,0,,3,,,63,127
71519,note_off,0,0,0,,0,,,84,127
71519,note_off,0,0,0,,3,,,75,127
71520,note_on,1,0,0,,5,,,41,127
71520,note_on,0,0,0,,5,,,53,127
71520,note_on,0,0,0,,8,,,68,127
71615,note_off,95,0,0,,8,,,68,127
71616,note_on,1,0,0,,5,,,65,127
71711,note_off,95,0,0,,5,,,65,127
71712,note_on,1,0,0,,7,,,67,127
71807,note_off,95,0,0,,7,,,67,127
71808,note_on,1,0,0,,5,,,65,127
71903,note_off,95,0,0,,5,,,65,127
71903,note_off,0,0,0,,5,,,53,127
71903,note_off,0,0,0,,5,,,41,127
71904,note_on,1,0,0,,8,,,80,127
71904,note_on,0,0,0,,5,,,77,127
71904,note_on,0,0,0,,8,,,68,127
71999,note_off,95,0,0,,8,,,68,127
72000,note_on,1,0,0,,5,,,65,127
72095,note_off,95,0,0,,5,,,65,127
72096,note_on,1,0,0,,8,,,68,127
72191,note_off,95,0,0,,8,,,68,127
72192,note_on,1,0,0,,5,,,65,127
72287,note_off,95,0,0,,5,,,65,127
72287,note_off,0,0,0,,5,,,77,127
72287,note_off,0,0,0,,8,,,80,127
72288,note_on,1,0,0,,0,,,84,127
72288,note_on,0,0,0,,8,,,80,127
72288,note_on,0,0,0,,0,,,72,127
72383,note_off,95,0,0,,0,,,72,127
72384,note_on,1,0,0,,5,,,65,127
72479,note_off,95,0,0,,5,,,65,127
72480,note_on,1,0,0,,8,,,68,127
72575,note_off,95,0,0,,8,,,68,127
72576,note_on,1,0,0,,5,,,65,127
72671,note_off,95,0,0,,5,,,65,127
72671,note_off,0,0,0,,8,,,80,127
72671,note_off,0,0,0,,0,,,84,127
72672,note_on,1,0,0,,7,,,43,127
72672,note_on,0,0,0,,0,,,72,127
72672,note_on,0,0,0,,2,,,62,127
72863,note_off,191,0,0,,0,,,72,127
72864,note_on,1,0,0,,12,,,71,127
73056,note_on,192,0,0,,7,,,55,127
73247,note_off,191,0,0,,12,,,71,127
73247,note_off,0,0,0,,2,,,62,127
73248,note_on,1,0,0,,2,,,74,127
73248,note_on,0,0,0,,5,,,65,127
73439,note_off,191,0,0,,5,,,65,127
73439,note_off,0,0,0,,2,,,74,127
73439,note_off,0,0,0,,7,,,43,127
73440,note_on,1,0,0,,7,,,43,127
73440,note_on,0,0,0,,5,,,65,127
73440,note_on,0,0,0,,2,,,74,127
73631,note_off,191,0,0,,2,,,74,127
73631,note_off,0,0,0,,5,,,65,127
73632,note_on,1,0,0,,3,,,75,127
73632,note_on,0,0,0,,7,,,67,127
73823,note_off,191,0,0,,7,,,67,127
73823,note_off,0,0,0,,3,,,75,127
73823,note_off,0,0,0,,7,,,43,127
73823,note_off,0,0,0,,7,,,55,127
73824,note_on,1,0,0,,5,,,41,127
73824,note_on,0,0,0,,8,,,68,127
73824,note_on,0,0,0,,5,,,77,127
74015,note_off,191,0,0,,5,,,77,127
74015,note_off,0,0,0,,8,,,68,127
74016,note_on,1,0,0,,7,,,67,127
74016,note_on,0,0,0,,3,,,75,127
74207,note_off,191,0,0,,3,,,75,127
74207,note_off,0,0,0,,7,,,67,127
74208,note_on,1,0,0,,5,,,53,127
74208,note_on,0,0,0,,2,,,74,127
74208,note_on,0,0,0,,5,,,65,127
74399,note_off,191,0,0,,5,,,65,127
74399,note_off,0,0,0,,2,,,74,127
74400,note_on,1,0,0,,0,,,72,127
74400,note_on,0,0,0,,3,,,63,127
74591,note_off,191,0,0,,3,,,63,127
74591,note_off,0,0,0,,0,,,72,127
74591,note_off,0,0,0,,5,,,41,127
74592,note_on,1,0,0,,5,,,41,127
74592,note_on,0,0,0,,2,,,62,127
74592,note_on,0,0,0,,12,,,71,127
74783,note_off,191,0,0,,12,,,71,127
74783,note_off,0,0,0,,2,,,62,127
74784,note_on,1,0,0,,0,,,72,127
74784,note_on,0,0,0,,3,,,63,127
74975,note_off,191,0,0,,3,,,63,127
74975,note_off,0,0,0,,0,,,72,127
74975,note_off,0,0,0,,5,,,41,127
74975,note_off,0,0,0,,5,,,53,127
74976,note_on,1,0,0,,7,,,43,127
74976,note_on,0,0,0,,3,,,63,127
74976,note_on,0,0,0,,0,,,72,127
75167,note_off,191,0,0,,0,,,72,127
75167,note_off,0,0,0,,3,,,63,127
75168,note_on,1,0,0,,12,,,71,127
75168,note_on,0,0,0,,2,,,62,127
75360,note_on,192,0,0,,7,,,55,127
75551,note_off,191,0,0,,2,,,62,127
75551,note_off,0,0,0,,12,,,71,127
75552,note_on,1,0,0,,5,,,77,127
75552,note_on,0,0,0,,2,,,74,127
75743,note_off,191,0,0,,2,,,74,127
75743,note_off,0,0,0,,5,,,77,127
75743,note_off,0,0,0,,7,,,43,127
75744,note_on,1,0,0,,7,,,43,127
75744,note_on,0,0,0,,5,,,77,127
75744,note_on,0,0,0,,2,,,74,127
75935,note_off,191,0,0,,2,,,74,127
75935,note_off,0,0,0,,5,,,77,127
75936,note_on,1,0,0,,7,,,79,127
75936,note_on,0,0,0,,3,,,75,127
76127,note_off,191,0,0,,3,,,75,127
76127,note_off,0,0,0,,7,,,79,127
76127,note_off,0,0,0,,7,,,43,127
76127,note_off,0,0,0,,7,,,55,127
76128,note_on,1,0,0,,5,,,41,127
76128,note_on,0,0,0,,5,,,77,127
76128,note_on,0,0,0,,8,,,80,127
76319,note_off,191,0,0,,8,,,80,127
76319,note_off,0,0,0,,5,,,77,127
76320,note_on,1,0,0,,3,,,75,127
76320,note_on,0,0,0,,7,,,79,127
76511,note_off,191,0,0,,7,,,79,127
76511,note_off,0,0,0,,3,,,75,127
76512,note_on,1,0,0,,5,,,53,127
76512,note_on,0,0,0,,5,,,77,127
76512,note_on,0,0,0,,2,,,74,127
76703,note_off,191,0,0,,2,,,74,127
76703,note_off,0,0,0,,5,,,77,127
76704,note_on,1,0,0,,3,,,75,127
76704,note_on,0,0,0,,7,,,67,127
76895,note_off,191,0,0,,7,,,67,127
76895,note_off,0,0,0,,3,,,75,127
76895,note_off,0,0,0,,5,,,41,127
76896,note_on,1,0,0,,5,,,41,127
76896,note_on,0,0,0,,2,,,74,127
76896,note_on,0,0,0,,5,,,65,127
77087,note_off,191,0,0,,5,,,65,127
77087,note_off,0,0,0,,2,,,74,127
77088,note_on,1,0,0,,3,,,63,127
77088,note_on,0,0,0,,0,,,72,127
77279,note_off,191,0,0,,0,,,72,127
77279,note_off,0,0,0,,3,,,63,127
77279,note_off,0,0,0,,5,,,41,127
77279,note_off,0,0,0,,5,,,53,127
77280,note_on,1,0,0,,7,,,43,127
77280,note_on,0,0,0,,12,,,71,127
77375,note_off,95,0,0,,12,,,71,127
77376,note_on,1,0,0,,7,,,67,127
77471,note_off,95,0,0,,7,,,67,127
77472,note_on,1,0,0,,0,,,72,127
77567,note_off,95,0,0,,0,,,72,127
77568,note_on,1,0,0,,7,,,67,127
77663,note_off,95,0,0,,7,,,67,127
77663,note_off,0,0,0,,7,,,43,127
77664,note_on,1,0,0,,7,,,79,127
77664,note_on,0,0,0,,12,,,71,127
77759,note_off,95,0,0,,12,,,71,127
77760,note_on,1,0,0,,7,,,67,127
77855,note_off,95,0,0,,7,,,67,127
77856,note_on,1,0,0,,0,,,72,127
77951,note_off,95,0,0,,0,,,72,127
77952,note_on,1,0,0,,7,,,67,127
78047,note_off,95,0,0,,7,,,67,127
78047,note_off,0,0,0,,7,,,79,127
78048,note_on,1,0,0,,7,,,55,127
78048,note_on,0,0,0,,7,,,43,127
78048,note_on,0,0,0,,12,,,71,127
78143,note_off,95,0,0,,12,,,71,127
78144,note_on,1,0,0,,7,,,67,127
78239,note_off,95,0,0,,7,,,67,127
78240,note_on,1,0,0,,0,,,72,127
78335,note_off,95,0,0,,0,,,72,127
78336,note_on,1,0,0,,7,,,67,127
78431,note_off,95,0,0,,7,,,67,127
78431,note_off,0,0,0,,7,,,43,127
78431,note_off,0,0,0,,7,,,55,127
78432,note_on,1,0,0,,8,,,44,127
78432,note_on,0,0,0,,8,,,56,127
78432,note_on,0,0,0,,12,,,71,127
78527,note_off,95,0,0,,12,,,71,127
78528,note_on,1,0,0,,5,,,65,127
78623,note_off,95,0,0,,5,,,65,127
78624,note_on,1,0,0,,0,,,72,127
78719,note_off,95,0,0,,0,,,72,127
78720,note_on,1,0,0,,5,,,65,127
78815,note_off,95,0,0,,5,,,65,127
78815,note_off,0,0,0,,8,,,56,127
78815,note_off,0,0,0,,8,,,44,127
78816,note_on,1,0,0,,8,,,80,127
78816,note_on,0,0,0,,12,,,71,127
78911,note_off,95,0,0,,12,,,71,127
78912,note_on,1,0,0,,5,,,65,127
79007,note_off,95,0,0,,5,,,65,127
79008,note_on,1,0,0,,0,,,72,127
79103,note_off,95,0,0,,0,,,72,127
79104,note_on,1,0,0,,5,,,65,127
79199,note_off,95,0,0,,5,,,65,127
79199,note_off,0,0,0,,8,,,80,127
79200,note_on,1,0,0,,8,,,44,127
79200,note_on,0,0,0,,8,,,56,127
79200,note_on,0,0,0,,12,,,71,127
79295,note_off,95,0,0,,12,,,71,127
79296,note_on,1,0,0,,5,,,65,127
79391,note_off,95,0,0,,5,,,65,127
79392,note_on,1,0,0,,0,,,72,127
79487,note_off,95,0,0,,0,,,72,127
79488,note_on,1,0,0,,5,,,65,127
79583,note_off,95,0,0,,5,,,65,127
79583,note_off,0,0,0,,8,,,56,127
79583,note_off,0,0,0,,8,,,44,127
79584,note_on,1,0,0,,7,,,43,127
79584,note_on,0,0,0,,7,,,55,127
79584,note_on,0,0,0,,2,,,74,127
79679,note_off,95,0,0,,2,,,74,127
79680,note_on,1,0,0,,7,,,67,127
79775,note_off,95,0,0,,7,,,67,127
79776,note_on,1,0,0,,0,,,72,127
79871,note_off,95,0,0,,0,,,72,127
79872,note_on,1,0,0,,7,,,67,127
79967,note_off,95,0,0,,7,,,67,127
79967,note_off,0,0,0,,7,,,55,127
79967,note_off,0,0,0,,7,,,43,127
79968,note_on,1,0,0,,7,,,79,127
79968,note_on,0,0,0,,2,,,74,127
80063,note_off,95,0,0,,2,,,74,127
80064,note_on,1,0,0,,7,,,67,127
80159,note_off,95,0,0,,7,,,67,127
80160,note_on,1,0,0,,0,,,72,127
80255,note_off,95,0,0,,0,,,72,127
80256,note_on,1,0,0,,7,,,67,127
80351,note_off,95,0,0,,7,,,67,127
80351,note_off,0,0,0,,7,,,79,127
80352,note_on,1,0,0,,7,,,43,127
80352,note_on,0,0,0,,7,,,55,127
80352,note_on,0,0,0,,2,,,74,127
80447,note_off,95,0,0,,2,,,74,127
80448,note_on,1,0,0,,7,,,67,127
80543,note_off,95,0,0,,7,,,67,127
80544,note_on,1,0,0,,0,,,72,127
80639,note_off,95,0,0,,0,,,72,127
80640,note_on,1,0,0,,7,,,67,127
80735,note_off,95,0,0,,7,,,67,127
80735,note_off,0,0,0,,7,,,55,127
80735,note_off,0,0,0,,7,,,43,127
80736,note_on,1,0,0,,5,,,53,127
80736,note_on,0,0,0,,5,,,41,127
80736,note_on,0,0,0,,2,,,74,127
80831,note_off,95,0,0,,2,,,74,127
80832,note_on,1,0,0,,8,,,68,127
80927,note_off,95,0,0,,8,,,68,127
80928,note_on,1,0,0,,3,,,75,127
81023,note_off,95,0,0,,3,,,75,127
81024,note_on,1,0,0,,8,,,68,127
81119,note_off,95,0,0,,8,,,68,127
81119,note_off,0,0,0,,5,,,41,127
81119,note_off,0,0,0,,5,,,53,127
81120,note_on,1,0,0,,8,,,80,127
81120,note_on,0,0,0,,5,,,77,127
81215,note_off,95,0,0,,5,,,77,127
81216,note_on,1,0,0,,8,,,68,127
81311,note_off,95,0,0,,8,,,68,127
81312,note_on,1,0,0,,3,,,75,127
81407,note_off,95,0,0,,3,,,75,127
81408,note_on,1,0,0,,8,,,68,127
81503,note_off,95,0,0,,8,,,68,127
81503,note_off,0,0,0,,8,,,80,127
81504,note_on,1,0,0,,5,,,53,127
81504,note_on,0,0,0,,5,,,41,127
81504,note_on,0,0,0,,2,,,74,127
81599,note_off,95,0,0,,2,,,74,127
81600,note_on,1,0,0,,8,,,68,127
81695,note_off,95,0,0,,8,,,68,127
81696,note_on,1,0,0,,0,,,72,127
81791,note_off,95,0,0,,0,,,72,127
81792,note_on,1,0,0,,8,,,68,127
81887,note_off,95,0,0,,8,,,68,127
81887,note_off,0,0,0,,5,,,41,127
81887,note_off,0,0,0,,5,,,53,127
81888,note_on,1,0,0,,7,,,55,127
81888,note_on,0,0,0,,7,,,43,127
81888,note_on,0,0,0,,12,,,71,127
81983,note_off,95,0,0,,12,,,71,127
81984,note_on,1,0,0,,7,,,67,127
82079,note_off,95,0,0,,7,,,67,127
82080,note_on,1,0,0,,8,,,68,127
82175,note_off,95,0,0,,8,,,68,127
82176,note_on,1,0,0,,7,,,67,127
82271,note_off,95,0,0,,7,,,67,127
82271,note_off,0,0,0,,7,,,43,127
82271,note_off,0,0,0,,7,,,55,127
82272,note_on,1,0,0,,7,,,79,127
82272,note_on,0,0,0,,12,,,71,127
82367,note_off,95,0,0,,12,,,71,127
82368,note_on,1,0,0,,7,,,67,127
82463,note_off,95,0,0,,7,,,67,127
82464,note_on,1,0,0,,0,,,72,127
82559,note_off,95,0,0,,0,,,72,127
82560,note_on,1,0,0,,7,,,67,127
82655,note_off,95,0,0,,7,,,67,127
82655,note_off,0,0,0,,7,,,79,127
82656,note_on,1,0,0,,7,,,43,127
82656,note_on,0,0,0,,7,,,55,127
82656,note_on,0,0,0,,12,,,71,127
82751,note_off,95,0,0,,12,,,71,127
82752,note_on,1,0,0,,7,,,67,127
82847,note_off,95,0,0,,7,,,67,127
82848,note_on,1,0,0,,0,,,72,127
82943,note_off,95,0,0,,0,,,72,127
82944,note_on,1,0,0,,7,,,67,127
83039,note_off,95,0,0,,7,,,67,127
83039,note_off,0,0,0,,7,,,55,127
83039,note_off,0,0,0,,7,,,43,127
83040,note_on,1,0,0,,8,,,44,127
83040,note_on,0,0,0,,8,,,56,127
83040,note_on,0,0,0,,12,,,71,127
83135,note_off,95,0,0,,12,,,71,127
83136,note_on,1,0,0,,5,,,65,127
83231,note_off,95,0,0,,5,,,65,127
83232,note_on,1,0,0,,0,,,72,127
83327,note_off,95,0,0,,0,,,72,127
83328,note_on,1,0,0,,5,,,65,127
83423,note_off,95,0,0,,5,,,65,127
83423,note_off,0,0,0,,8,,,56,127
83423,note_off,0,0,0,,8,,,44,127
83424,note_on,1,0,0,,8,,,80,127
83424,note_on,0,0,0,,12,,,71,127
83519,note_off,95,0,0,,12,,,71,127
83520,note_on,1,0,0,,5,,,65,127
83615,note_off,95,0,0,,5,,,65,127
83616,note_on,1,0,0,,0,,,72,127
83711,note_off,95,0,0,,0,,,72,127
83712,note_on,1,0,0,,5,,,65,127
83807,note_off,95,0,0,,5,,,65,127
83807,note_off,0,0,0,,8,,,80,127
83808,note_on,1,0,0,,8,,,44,127
83808,note_on,0,0,0,,8,,,56,127
83808,note_on,0,0,0,,12,,,71,127
83999,note_off,191,0,0,,12,,,71,127
84000,note_on,1,0,0,,2,,,74,127
84047,note_off,47,0,0,,2,,,74,127
84048,note_on,1,0,0,,0,,,72,127
84095,note_off,47,0,0,,0,,,72,127
84096,note_on,1,0,0,,12,,,71,127
84143,note_off,47,0,0,,12,,,71,127
84144,note_on,1,0,0,,0,,,72,127
84191,note_off,47,0,0,,0,,,72,127
84191,note_off,0,0,0,,8,,,56,127
84191,note_off,0,0,0,,8,,,44,127
84192,note_on,1,0,0,,7,,,43,127
84192,note_on,0,0,0,,7,,,55,127
84192,note_on,0,0,0,,0,,,72,127
84383,note_off,191,0,0,,0,,,72,127
84384,note_on,1,0,0,,2,,,74,127
84575,note_off,191,0,0,,7,,,55,127
84575,note_off,0,0,0,,7,,,43,127
84576,note_on,1,0,0,,7,,,43,127
84576,note_on,0,0,0,,7,,,55,127
84671,note_off,95,0,0,,2,,,74,127
84672,note_on,1,0,0,,7,,,67,127
84767,note_off,95,0,0,,7,,,67,127
84768,note_on,1,0,0,,12,,,71,127
84863,note_off,95,0,0,,12,,,71,127
84864,note_on,1,0,0,,2,,,74,127
84959,note_off,95,0,0,,2,,,74,127
84960,note_on,1,0,0,,7,,,79,127
85055,note_off,95,0,0,,7,,,79,127
85056,note_on,1,0,0,,5,,,77,127
85151,note_off,95,0,0,,5,,,77,127
85152,note_on,1,0,0,,3,,,75,127
85247,note_off,95,0,0,,3,,,75,127
85248,note_on,1,0,0,,2,,,74,127
85343,note_off,95,0,0,,2,,,74,127
85343,note_off,0,0,0,,7,,,55,127
85343,note_off,0,0,0,,7,,,43,127
85344,note_on,1,0,0,,7,,,79,127
85439,note_off,95,0,0,,7,,,79,127
85440,note_on,1,0,0,,3,,,75,127
85535,note_off,95,0,0,,3,,,75,127
85536,note_on,1,0,0,,2,,,74,127
85631,note_off,95,0,0,,2,,,74,127
85632,note_on,1,0,0,,3,,,75,127
85727,note_off,95,0,0,,3,,,75,127
85728,note_on,1,0,0,,0,,,84,127
85728,note_on,0,0,0,,3,,,75,127
85823,note_off,95,0,0,,3,,,75,127
85824,note_on,1,0,0,,0,,,72,127
85919,note_off,95,0,0,,0,,,72,127
85920,note_on,1,0,0,,12,,,71,127
86015,note_off,95,0,0,,12,,,71,127
86016,note_on,1,0,0,,0,,,72,127
86111,note_off,95,0,0,,0,,,72,127
86111,note_off,0,0,0,,0,,,84,127
86112,note_on,1,0,0,,8,,,80,127
86112,note_on,0,0,0,,0,,,72,127
86207,note_off,95,0,0,,0,,,72,127
86208,note_on,1,0,0,,8,,,68,127
86303,note_off,95,0,0,,8,,,68,127
86304,note_on,1,0,0,,7,,,67,127
86399,note_off,95,0,0,,7,,,67,127
86400,note_on,1,0,0,,8,,,68,127
86495,note_off,95,0,0,,8,,,68,127
86495,note_off,0,0,0,,8,,,80,127
86496,note_on,1,0,0,,5,,,77,127
86496,note_on,0,0,0,,8,,,68,127
86591,note_off,95,0,0,,8,,,68,127
86592,note_on,1,0,0,,5,,,65,127
86687,note_off,95,0,0,,5,,,65,127
86688,note_on,1,0,0,,4,,,64,127
86783,note_off,95,0,0,,4,,,64,127
86784,note_on,1,0,0,,5,,,65,127
86879,note_off,95,0,0,,5,,,65,127
86879,note_off,0,0,0,,5,,,77,127
86880,note_on,1,0,0,,2,,,74,127
86880,note_on,0,0,0,,5,,,65,127
86975,note_off,95,0,0,,5,,,65,127
86976,note_on,1,0,0,,2,,,62,127
87071,note_off,95,0,0,,2,,,62,127
87072,note_on,1,0,0,,0,,,60,127
87167,note_off,95,0,0,,0,,,60,127
87168,note_on,1,0,0,,2,,,62,127
87263,note_off,95,0,0,,2,,,62,127
87263,note_off,0,0,0,,2,,,74,127
87264,note_on,1,0,0,,12,,,71,127
87264,note_on,0,0,0,,2,,,62,127
87359,note_off,95,0,0,,2,,,62,127
87360,note_on,1,0,0,,12,,,59,127
87455,note_off,95,0,0,,12,,,59,127
87456,note_on,1,0,0,,10,,,57,127
87551,note_off,95,0,0,,10,,,57,127
87552,note_on,1,0,0,,12,,,59,127
87647,note_off,95,0,0,,12,,,59,127
87648,note_on,1,0,0,,12,,,59,127
87743,note_off,95,0,0,,12,,,59,127
87744,note_on,1,0,0,,7,,,55,127
87839,note_off,95,0,0,,7,,,55,127
87839,note_off,0,0,0,,12,,,71,127
87840,note_on,1,0,0,,12,,,59,127
87935,note_off,95,0,0,,12,,,59,127
87936,note_on,1,0,0,,2,,,62,127
88031,note_off,95,0,0,,2,,,62,127
88032,note_on,1,0,0,,5,,,65,127
88127,note_off,95,0,0,,5,,,65,127
88128,note_on,1,0,0,,2,,,62,127
88223,note_off,95,0,0,,2,,,62,127
88224,note_on,1,0,0,,5,,,65,127
88319,note_off,95,0,0,,5,,,65,127
88320,note_on,1,0,0,,12,,,71,127
88415,note_off,95,0,0,,12,,,71,127
88416,note_on,1,0,0,,2,,,74,127
88511,note_off,95,0,0,,2,,,74,127
88512,note_on,1,0,0,,5,,,65,127
88607,note_off,95,0,0,,5,,,65,127
88608,note_on,1,0,0,,12,,,71,127
88703,note_off,95,0,0,,12,,,71,127
88704,note_on,1,0,0,,2,,,74,127
88799,note_off,95,0,0,,2,,,74,127
88800,note_on,1,0,0,,7,,,79,127
88895,note_off,95,0,0,,7,,,79,127
88896,note_on,1,0,0,,3,,,75,127
88991,note_off,95,0,0,,3,,,75,127
88992,note_on,1,0,0,,2,,,74,127
89087,note_off,95,0,0,,2,,,74,127
89088,note_on,1,0,0,,3,,,75,127
89183,note_off,95,0,0,,3,,,75,127
89184,note_on,1,0,0,,0,,,84,127
89184,note_on,0,0,0,,3,,,75,127
89279,note_off,95,0,0,,3,,,75,127
89280,note_on,1,0,0,,0,,,72,127
89375,note_off,95,0,0,,0,,,72,127
89376,note_on,1,0,0,,12,,,71,127
89471,note_off,95,0,0,,12,,,71,127
89472,note_on,1,0,0,,0,,,72,127
89567,note_off,95,0,0,,0,,,72,127
89567,note_off,0,0,0,,0,,,84,127
89568,note_on,1,0,0,,8,,,80,127
89568,note_on,0,0,0,,0,,,72,127
89663,note_off,95,0,0,,0,,,72,127
89664,note_on,1,0,0,,8,,,68,127
89759,note_off,95,0,0,,8,,,68,127
89760,note_on,1,0,0,,7,,,67,127
89855,note_off,95,0,0,,7,,,67,127
89856,note_on,1,0,0,,8,,,68,127
89951,note_off,95,0,0,,8,,,68,127
89951,note_off,0,0,0,,8,,,80,127
89952,note_on,1,0,0,,5,,,77,127
89952,note_on,0,0,0,,8,,,68,127
90047,note_off,95,0,0,,8,,,68,127
90048,note_on,1,0,0,,5,,,65,127
90143,note_off,95,0,0,,5,,,65,127
90144,note_on,1,0,0,,4,,,64,127
90239,note_off,95,0,0,,4,,,64,127
90240,note_on,1,0,0,,5,,,65,127
90335,note_off,95,0,0,,5,,,65,127
90335,note_off,0,0,0,,5,,,77,127
90336,note_on,1,0,0,,2,,,74,127
90336,note_on,0,0,0,,5,,,65,127
90431,note_off,95,0,0,,5,,,65,127
90432,note_on,1,0,0,,2,,,62,127
90527,note_off,95,0,0,,2,,,62,127
90528,note_on,1,0,0,,0,,,60,127
90623,note_off,95,0,0,,0,,,60,127
90624,note_on,1,0,0,,2,,,62,127
90719,note_off,95,0,0,,2,,,62,127
90719,note_off,0,0,0,,2,,,74,127
90720,note_on,1,0,0,,12,,,71,127
90720,note_on,0,0,0,,2,,,62,127
90815,note_off,95,0,0,,2,,,62,127
90816,note_on,1,0,0,,12,,,59,127
90911,note_off,95,0,0,,12,,,59,127
90912,note_on,1,0,0,,10,,,57,127
91007,note_off,95,0,0,,10,,,57,127
91008,note_on,1,0,0,,12,,,59,127
91103,note_off,95,0,0,,12,,,71,127
91108,note_off,5,0,0,,12,,,59,127
91109,note_on,1,0,0,,7,,,43,127
91923,note_on,814,0,0,,2,,,74,127
91923,note_on,0,0,0,,5,,,77,127
91923,note_on,0,0,0,,12,,,71,127
91923,note_on,0,0,0,,7,,,67,127
92328,note_off,405,0,0,,7,,,67,127
92328,note_off,0,0,0,,12,,,71,127
92328,note_off,0,0,0,,5,,,77,127
92328,note_off,0,0,0,,2,,,74,127
92329,note_off,1,0,0,,7,,,43,127
92330,note_on,1,0,0,,5,,,77,127
92330,note_on,0,0,0,,0,,,72,127
92330,note_on,0,0,0,,7,,,67,127
92330,note_on,0,0,0,,0,,,60,127
92330,note_on,0,0,0,,7,,,55,127
92330,note_on,0,0,0,,0,,,48,127
92430,note_off,100,0,0,,5,,,77,127
92432,note_on,2,0,0,,3,,,75,127
92532,note_off,100,0,0,,3,,,75,127
92534,note_on,2,0,0,,2,,,74,127
92634,note_off,100,0,0,,2,,,74,127
92634,note_off,0,0,0,,0,,,72,127
92636,note_on,2,0,0,,0,,,72,127
92735,note_off,99,0,0,,0,,,48,127
92735,note_off,0,0,0,,7,,,55,127
92735,note_off,0,0,0,,0,,,60,127
92735,note_off,0,0,0,,7,,,67,127
92736,note_off,1,0,0,,0,,,72,127
92737,note_on,1,0,0,,10,,,69,127
92737,note_on,0,0,0,,5,,,65,127
92737,note_on,0,0,0,,5,,,53,127
92939,note_off,202,0,0,,10,,,69,127
92941,note_on,2,0,0,,0,,,72,127
93142,note_off,201,0,0,,5,,,53,127
93142,note_off,0,0,0,,5,,,65,127
93144,note_on,2,0,0,,5,,,65,127
93144,note_on,0,0,0,,7,,,55,127
93346,note_off,202,0,0,,0,,,72,127
93348,note_on,2,0,0,,12,,,71,127
93549,note_off,201,0,0,,7,,,55,127
93549,note_off,0,0,0,,5,,,65,127
93550,note_off,1,0,0,,12,,,71,127
93552,note_on,2,0,0,,0,,,72,127
93552,note_on,0,0,0,,5,,,65,127
93552,note_on,0,0,0,,8,,,56,127
93652,note_off,100,0,0,,0,,,72,127
93653,note_on,1,0,0,,5,,,77,127
93753,note_off,100,0,0,,5,,,77,127
93755,note_on,2,0,0,,8,,,80,127
93957,note_off,202,0,0,,8,,,56,127
93957,note_off,0,0,0,,5,,,65,127
93959,note_on,2,0,0,,5,,,65,127
93959,note_on,0,0,0,,5,,,53,127
94160,note_off,201,0,0,,8,,,80,127
94162,note_on,2,0,0,,8,,,80,127
94364,note_off,202,0,0,,5,,,53,127
94364,note_off,0,0,0,,5,,,65,127
94366,note_on,2,0,0,,7,,,67,127
94366,note_on,0,0,0,,5,,,65,127
94366,note_on,0,0,0,,12,,,59,127
94567,note_off,201,0,0,,8,,,80,127
94569,note_on,2,0,0,,7,,,79,127
94618,note_off,49,0,0,,7,,,79,127
94620,note_on,2,0,0,,5,,,77,127
94669,note_off,49,0,0,,5,,,77,127
94671,note_on,2,0,0,,3,,,75,127
94720,note_off,49,0,0,,3,,,75,127
94722,note_on,2,0,0,,2,,,74,127
94771,note_off,49,0,0,,2,,,74,127
94771,note_off,0,0,0,,12,,,59,127
94771,note_off,0,0,0,,5,,,65,127
94771,note_off,0,0,0,,7,,,67,127
94773,note_on,2,0,0,,5,,,77,127
94773,note_on,0,0,0,,7,,,67,127
94773,note_on,0,0,0,,0,,,60,127
94873,note_off,100,0,0,,5,,,77,127
94874,note_on,1,0,0,,3,,,75,127
94974,note_off,100,0,0,,3,,,75,127
94976,note_on,2,0,0,,2,,,74,127
95076,note_off,100,0,0,,2,,,74,127
95078,note_on,2,0,0,,0,,,72,127
95178,note_off,100,0,0,,0,,,72,127
95178,note_off,0,0,0,,0,,,60,127
95178,note_off,0,0,0,,7,,,67,127
95180,note_on,2,0,0,,10,,,69,127
95180,note_on,0,0,0,,5,,,65,127
95180,note_on,0,0,0,,5,,,53,127
95382,note_off,202,0,0,,10,,,69,127
95383,note_on,1,0,0,,0,,,72,127
95585,note_off,202,0,0,,5,,,53,127
95585,note_off,0,0,0,,5,,,65,127
95587,note_on,2,0,0,,5,,,65,127
95587,note_on,0,0,0,,7,,,55,127
95788,note_off,201,0,0,,0,,,72,127
95790,note_on,2,0,0,,12,,,71,127
95992,note_off,202,0,0,,12,,,71,127
95992,note_off,0,0,0,,7,,,55,127
95992,note_off,0,0,0,,5,,,65,127
95994,note_on,2,0,0,,0,,,72,127
95994,note_on,0,0,0,,5,,,65,127
95994,note_on,0,0,0,,8,,,56,127
96094,note_off,100,0,0,,0,,,72,127
96096,note_on,2,0,0,,8,,,80,127
96196,note_off,100,0,0,,8,,,80,127
96197,note_on,1,0,0,,0,,,84,127
96399,note_off,202,0,0,,8,,,56,127
96399,note_off,0,0,0,,5,,,65,127
96401,note_on,2,0,0,,5,,,65,127
96401,note_on,0,0,0,,5,,,53,127
96602,note_off,201,0,0,,0,,,84,127
96604,note_on,2,0,0,,0,,,84,127
96806,note_off,202,0,0,,5,,,53,127
96806,note_off,0,0,0,,5,,,65,127
96808,note_on,2,0,0,,7,,,67,127
96808,note_on,0,0,0,,5,,,65,127
96808,note_on,0,0,0,,12,,,59,127
97009,note_off,201,0,0,,0,,,84,127
97011,note_on,2,0,0,,11,,,82,127
97060,note_off,49,0,0,,11,,,82,127
97062,note_on,2,0,0,,8,,,80,127
97111,note_off,49,0,0,,8,,,80,127
97113,note_on,2,0,0,,7,,,79,127
97162,note_off,49,0,0,,7,,,79,127
97164,note_on,2,0,0,,5,,,77,127
97213,note_off,49,0,0,,5,,,77,127
97213,note_off,0,0,0,,12,,,59,127
97213,note_off,0,0,0,,5,,,65,127
97213,note_off,0,0,0,,7,,,67,127
97215,note_on,2,0,0,,5,,,77,127
97215,note_on,0,0,0,,7,,,67,127
97215,note_on,0,0,0,,0,,,60,127
97315,note_off,100,0,0,,5,,,77,127
97317,note_on,2,0,0,,3,,,75,127
97417,note_off,100,0,0,,3,,,75,127
97418,note_on,1,0,0,,2,,,74,127
97518,note_off,100,0,0,,2,,,74,127
97520,note_on,2,0,0,,0,,,72,127
97620,note_off,100,0,0,,0,,,72,127
97620,note_off,0,0,0,,0,,,60,127
97620,note_off,0,0,0,,7,,,67,127
97622,note_on,2,0,0,,2,,,74,127
97622,note_on,0,0,0,,5,,,77,127
97622,note_on,0,0,0,,5,,,65,127
97622,note_on,0,0,0,,5,,,53,127
97824,note_off,202,0,0,,5,,,77,127
97824,note_off,0,0,0,,2,,,74,127
97837,note_on,13,0,0,,3,,,75,127
97837,note_on,0,0,0,,0,,,72,127
98027,note_off,190,0,0,,5,,,53,127
98027,note_off,0,0,0,,5,,,65,127
98057,note_on,30,0,0,,7,,,55,127
98057,note_on,0,0,0,,7,,,67,127
98270,note_off,213,0,0,,0,,,72,127
98270,note_off,0,0,0,,3,,,75,127
98277,note_on,7,0,0,,2,,,74,127
98277,note_on,0,0,0,,12,,,71,127
98490,note_off,213,0,0,,7,,,67,127
98490,note_off,0,0,0,,7,,,55,127
98493,note_off,3,0,0,,12,,,71,127
98493,note_off,0,0,0,,2,,,74,127
98506,note_on,13,0,0,,0,,,60,127
98506,note_on,0,0,0,,0,,,72,127
98506,note_on,0,0,0,,0,,,48,127
100617,note_off,2111,0,0,,0,,,48,127
100617,note_off,0,0,0,,0,,,72,127
100617,note_off,0,0,0,,0,,,60,127
101376,end_of_track,759,1,0,,,,,,
