tick,type,time,meta,track,program,channel,pitch,tempo,note,velocity
0,copyright,0,1,0,,,,,,
0,program_change,0,0,0,6,0,,,,
0,pitchwheel,0,0,0,,0,0,,,
0,program_change,0,0,0,6,1,,,,
0,pitchwheel,0,0,0,,1,-590,,,
0,program_change,0,0,0,6,2,,,,
0,pitchwheel,0,0,0,,2,-272,,,
0,program_change,0,0,0,6,3,,,,
0,pitchwheel,0,0,0,,3,-353,,,
0,program_change,0,0,0,6,4,,,,
0,pitchwheel,0,0,0,,4,-560,,,
0,program_change,0,0,0,6,5,,,,
0,pitchwheel,0,0,0,,5,-80,,,
0,program_change,0,0,0,6,6,,,,
0,pitchwheel,0,0,0,,6,-625,,,
0,program_change,0,0,0,6,7,,,,
0,pitchwheel,0,0,0,,7,-130,,,
0,program_change,0,0,0,6,8,,,,
0,pitchwheel,0,0,0,,8,-512,,,
0,program_change,0,0,0,6,10,,,,
0,pitchwheel,0,0,0,,10,-464,,,
0,program_change,0,0,0,6,11,,,,
0,pitchwheel,0,0,0,,11,-208,,,
0,program_change,0,0,0,6,12,,,,
0,pitchwheel,0,0,0,,12,-553,,,
0,set_tempo,0,1,0,,,,500000,,
89,note_on,89,0,0,,7,,,67,127
206,note_off,117,0,0,,7,,,67,127
207,note_on,1,0,0,,7,,,67,127
325,note_on,118,0,0,,0,,,72,127
441,note_off,116,0,0,,0,,,72,127
442,note_off,1,0,0,,7,,,67,127
443,note_on,1,0,0,,4,,,64,127
443,note_on,0,0,0,,7,,,79,127
559,note_off,116,0,0,,7,,,79,127
561,note_on,2,0,0,,5,,,77,127
677,note_off,116,0,0,,5,,,77,127
679,note_on,2,0,0,,4,,,76,127
795,note_off,116,0,0,,4,,,64,127
796,note_off,1,0,0,,4,,,76,127
797,note_on,1,0,0,,5,,,65,127
914,note_off,117,0,0,,5,,,65,127
915,note_on,1,0,0,,5,,,65,127
1033,note_on,118,0,0,,12,,,71,127
1149,note_off,116,0,0,,12,,,71,127
1150,note_off,1,0,0,,5,,,65,127
1151,note_on,1,0,0,,2,,,62,127
1151,note_on,0,0,0,,5,,,77,127
1267,note_off,116,0,0,,5,,,77,127
1269,note_on,2,0,0,,4,,,76,127
1385,note_off,116,0,0,,4,,,76,127
1387,note_on,2,0,0,,2,,,74,127
1503,note_off,116,0,0,,2,,,62,127
1504,note_off,1,0,0,,2,,,74,127
1505,note_on,1,0,0,,4,,,64,127
1622,note_off,117,0,0,,4,,,64,127
1623,note_on,1,0,0,,4,,,64,127
1741,note_on,118,0,0,,7,,,67,127
1857,note_off,116,0,0,,7,,,67,127
1858,note_off,1,0,0,,4,,,64,127
1859,note_on,1,0,0,,0,,,60,127
1859,note_on,0,0,0,,4,,,76,127
1975,note_off,116,0,0,,4,,,76,127
1977,note_on,2,0,0,,2,,,74,127
2093,note_off,116,0,0,,2,,,74,127
2095,note_on,2,0,0,,0,,,72,127
2211,note_off,116,0,0,,0,,,60,127
2213,note_on,2,0,0,,2,,,62,127
2329,note_off,116,0,0,,0,,,72,127
2330,note_off,1,0,0,,2,,,62,127
2331,note_on,1,0,0,,2,,,62,127
2449,note_on,118,0,0,,5,,,65,127
2565,note_off,116,0,0,,5,,,65,127
2566,note_off,1,0,0,,2,,,62,127
2567,note_on,1,0,0,,12,,,59,127
2567,note_on,0,0,0,,2,,,74,127
2683,note_off,116,0,0,,2,,,74,127
2685,note_on,2,0,0,,0,,,72,127
2801,note_off,116,0,0,,0,,,72,127
2803,note_on,2,0,0,,12,,,71,127
2910,note_off,107,0,0,,12,,,71,127
2919,note_off,9,0,0,,12,,,59,127
2936,note_on,17,0,0,,0,,,60,127
3054,note_on,118,0,0,,4,,,64,127
3170,note_off,116,0,0,,4,,,64,127
3171,note_off,1,0,0,,0,,,60,127
3172,note_on,1,0,0,,0,,,60,127
3290,note_on,118,0,0,,4,,,64,127
3406,note_off,116,0,0,,0,,,60,127
3408,note_on,2,0,0,,7,,,67,127
3524,note_off,116,0,0,,7,,,67,127
3525,note_off,1,0,0,,4,,,64,127
3526,note_on,1,0,0,,4,,,64,127
3644,note_on,118,0,0,,7,,,67,127
3760,note_off,116,0,0,,4,,,64,127
3762,note_on,2,0,0,,0,,,72,127
3878,note_off,116,0,0,,0,,,72,127
3879,note_off,1,0,0,,7,,,67,127
3880,note_on,1,0,0,,7,,,67,127
3998,note_on,118,0,0,,0,,,72,127
4114,note_off,116,0,0,,7,,,67,127
4115,note_off,1,0,0,,0,,,72,127
4116,note_on,1,0,0,,0,,,72,127
4234,note_on,118,0,0,,4,,,76,127
4350,note_off,116,0,0,,4,,,76,127
4351,note_off,1,0,0,,0,,,72,127
4352,note_on,1,0,0,,4,,,76,127
4352,note_on,0,0,0,,7,,,55,127
4389,note_off,37,0,0,,4,,,76,127
4391,note_on,2,0,0,,2,,,74,127
4429,note_off,38,0,0,,2,,,74,127
4431,note_on,2,0,0,,4,,,76,127
4469,note_off,38,0,0,,4,,,76,127
4471,note_on,2,0,0,,2,,,74,127
4656,note_off,185,0,0,,2,,,74,127
4706,note_off,50,0,0,,7,,,55,127
4723,note_on,17,0,0,,0,,,60,127
4841,note_on,118,0,0,,4,,,64,127
4957,note_off,116,0,0,,4,,,64,127
4958,note_off,1,0,0,,0,,,60,127
4959,note_on,1,0,0,,0,,,60,127
5077,note_on,118,0,0,,4,,,64,127
5193,note_off,116,0,0,,0,,,60,127
5195,note_on,2,0,0,,7,,,67,127
5311,note_off,116,0,0,,7,,,67,127
5312,note_off,1,0,0,,4,,,64,127
5313,note_on,1,0,0,,4,,,64,127
5431,note_on,118,0,0,,7,,,67,127
5547,note_off,116,0,0,,4,,,64,127
5549,note_on,2,0,0,,0,,,72,127
5665,note_off,116,0,0,,0,,,72,127
5667,note_on,2,0,0,,4,,,76,127
5783,note_off,116,0,0,,4,,,76,127
5783,note_off,0,0,0,,7,,,67,127
5785,note_on,2,0,0,,7,,,55,127
5785,note_on,0,0,0,,4,,,76,127
5822,note_off,37,0,0,,4,,,76,127
5824,note_on,2,0,0,,2,,,74,127
5862,note_off,38,0,0,,2,,,74,127
5864,note_on,2,0,0,,4,,,76,127
5902,note_off,38,0,0,,4,,,76,127
5904,note_on,2,0,0,,2,,,74,127
6102,note_off,198,0,0,,2,,,74,127
6139,note_off,37,0,0,,7,,,55,127
6170,note_on,31,0,0,,0,,,60,127
6288,note_on,118,0,0,,4,,,64,127
6404,note_off,116,0,0,,4,,,64,127
6405,note_off,1,0,0,,0,,,60,127
6406,note_on,1,0,0,,0,,,60,127
6524,note_on,118,0,0,,4,,,64,127
6640,note_off,116,0,0,,0,,,60,127
6642,note_on,2,0,0,,7,,,67,127
6758,note_off,116,0,0,,7,,,67,127
6759,note_off,1,0,0,,4,,,64,127
6760,note_on,1,0,0,,4,,,64,127
6878,note_on,118,0,0,,7,,,67,127
6994,note_off,116,0,0,,4,,,64,127
6996,note_on,2,0,0,,0,,,72,127
7112,note_off,116,0,0,,0,,,72,127
7114,note_on,2,0,0,,4,,,76,127
7230,note_off,116,0,0,,4,,,76,127
7230,note_off,0,0,0,,7,,,67,127
7232,note_on,2,0,0,,4,,,76,127
7232,note_on,0,0,0,,7,,,55,127
7269,note_off,37,0,0,,4,,,76,127
7271,note_on,2,0,0,,2,,,74,127
7309,note_off,38,0,0,,2,,,74,127
7311,note_on,2,0,0,,4,,,76,127
7349,note_off,38,0,0,,4,,,76,127
7351,note_on,2,0,0,,2,,,74,127
7579,note_off,228,0,0,,2,,,74,127
7587,note_on,8,0,0,,2,,,62,127
7587,note_on,0,0,0,,12,,,59,127
7587,note_on,0,0,0,,2,,,74,127
7590,note_off,3,0,0,,7,,,55,127
7704,note_off,114,0,0,,2,,,74,127
7706,note_on,2,0,0,,0,,,72,127
7822,note_off,116,0,0,,0,,,72,127
7824,note_on,2,0,0,,2,,,74,127
7940,note_off,116,0,0,,2,,,74,127
7940,note_off,0,0,0,,12,,,59,127
7940,note_off,0,0,0,,2,,,62,127
7942,note_on,2,0,0,,0,,,60,127
7942,note_on,0,0,0,,4,,,64,127
7942,note_on,0,0,0,,4,,,76,127
8058,note_off,116,0,0,,4,,,76,127
8060,note_on,2,0,0,,0,,,72,127
8176,note_off,116,0,0,,0,,,72,127
8178,note_on,2,0,0,,10,,,69,127
8294,note_off,116,0,0,,10,,,69,127
8294,note_off,0,0,0,,4,,,64,127
8294,note_off,0,0,0,,0,,,60,127
8296,note_on,2,0,0,,12,,,59,127
8296,note_on,0,0,0,,2,,,62,127
8296,note_on,0,0,0,,7,,,67,127
8412,note_off,116,0,0,,7,,,67,127
8414,note_on,2,0,0,,12,,,71,127
8530,note_off,116,0,0,,12,,,71,127
8532,note_on,2,0,0,,2,,,74,127
8648,note_off,116,0,0,,2,,,74,127
8648,note_off,0,0,0,,2,,,62,127
8648,note_off,0,0,0,,12,,,59,127
8650,note_on,2,0,0,,10,,,57,127
8650,note_on,0,0,0,,0,,,60,127
8650,note_on,0,0,0,,0,,,72,127
8768,note_on,118,0,0,,10,,,69,127
8779,note_off,11,0,0,,0,,,72,127
8884,note_off,105,0,0,,10,,,69,127
8886,note_on,2,0,0,,6,,,66,127
9002,note_off,116,0,0,,6,,,66,127
9002,note_off,0,0,0,,0,,,60,127
9002,note_off,0,0,0,,10,,,57,127
9004,note_on,2,0,0,,12,,,59,127
9004,note_on,0,0,0,,7,,,55,127
9004,note_on,0,0,0,,7,,,67,127
9120,note_off,116,0,0,,7,,,67,127
9122,note_on,2,0,0,,12,,,71,127
9238,note_off,116,0,0,,12,,,71,127
9240,note_on,2,0,0,,2,,,74,127
9356,note_off,116,0,0,,2,,,74,127
9356,note_off,0,0,0,,7,,,55,127
9356,note_off,0,0,0,,12,,,59,127
9358,note_on,2,0,0,,0,,,48,127
9358,note_on,0,0,0,,4,,,76,127
9474,note_off,116,0,0,,4,,,76,127
9476,note_on,2,0,0,,2,,,74,127
9592,note_off,116,0,0,,2,,,74,127
9594,note_on,2,0,0,,0,,,72,127
9710,note_off,116,0,0,,0,,,72,127
9710,note_off,0,0,0,,0,,,48,127
9712,note_on,2,0,0,,0,,,60,127
9712,note_on,0,0,0,,12,,,71,127
9828,note_off,116,0,0,,12,,,71,127
9830,note_on,2,0,0,,10,,,69,127
9946,note_off,116,0,0,,10,,,69,127
9948,note_on,2,0,0,,7,,,67,127
10064,note_off,116,0,0,,7,,,67,127
10073,note_on,9,0,0,,2,,,50,127
10073,note_on,0,0,0,,6,,,66,127
10077,note_off,4,0,0,,0,,,60,127
10190,note_off,113,0,0,,6,,,66,127
10192,note_on,2,0,0,,2,,,62,127
10308,note_off,116,0,0,,2,,,62,127
10310,note_on,2,0,0,,10,,,69,127
10426,note_off,116,0,0,,10,,,69,127
10426,note_off,0,0,0,,2,,,50,127
10428,note_on,2,0,0,,2,,,74,127
10428,note_on,0,0,0,,6,,,66,127
10544,note_off,116,0,0,,6,,,66,127
10546,note_on,2,0,0,,2,,,62,127
10662,note_off,116,0,0,,2,,,62,127
10664,note_on,2,0,0,,6,,,66,127
10780,note_off,116,0,0,,6,,,66,127
10780,note_off,0,0,0,,2,,,74,127
10782,note_on,2,0,0,,0,,,48,127
10782,note_on,0,0,0,,10,,,69,127
10898,note_off,116,0,0,,10,,,69,127
10900,note_on,2,0,0,,6,,,66,127
11016,note_off,116,0,0,,6,,,66,127
11018,note_on,2,0,0,,2,,,62,127
11134,note_off,116,0,0,,2,,,62,127
11134,note_off,0,0,0,,0,,,48,127
11136,note_on,2,0,0,,6,,,78,127
11136,note_on,0,0,0,,2,,,62,127
11252,note_off,116,0,0,,2,,,62,127
11254,note_on,2,0,0,,6,,,66,127
11370,note_off,116,0,0,,6,,,66,127
11372,note_on,2,0,0,,10,,,69,127
11488,note_off,116,0,0,,10,,,69,127
11488,note_off,0,0,0,,6,,,78,127
11490,note_on,2,0,0,,12,,,47,127
11490,note_on,0,0,0,,12,,,71,127
11606,note_off,116,0,0,,12,,,71,127
11608,note_on,2,0,0,,7,,,67,127
11724,note_off,116,0,0,,7,,,67,127
11726,note_on,2,0,0,,2,,,62,127
11842,note_off,116,0,0,,2,,,62,127
11842,note_off,0,0,0,,12,,,47,127
11844,note_on,2,0,0,,7,,,79,127
11844,note_on,0,0,0,,2,,,62,127
11960,note_off,116,0,0,,2,,,62,127
11962,note_on,2,0,0,,7,,,67,127
12078,note_off,116,0,0,,7,,,67,127
12080,note_on,2,0,0,,12,,,71,127
12196,note_off,116,0,0,,12,,,71,127
12196,note_off,0,0,0,,7,,,79,127
12198,note_on,2,0,0,,10,,,45,127
12198,note_on,0,0,0,,0,,,72,127
12314,note_off,116,0,0,,0,,,72,127
12316,note_on,2,0,0,,10,,,69,127
12432,note_off,116,0,0,,10,,,69,127
12434,note_on,2,0,0,,6,,,66,127
12550,note_off,116,0,0,,6,,,66,127
12550,note_off,0,0,0,,10,,,45,127
12552,note_on,2,0,0,,10,,,81,127
12552,note_on,0,0,0,,0,,,60,127
12668,note_off,116,0,0,,0,,,60,127
12670,note_on,2,0,0,,6,,,66,127
12786,note_off,116,0,0,,6,,,66,127
12788,note_on,2,0,0,,0,,,72,127
12904,note_off,116,0,0,,0,,,72,127
12904,note_off,0,0,0,,10,,,81,127
12906,note_on,2,0,0,,7,,,43,127
12906,note_on,0,0,0,,2,,,74,127
13022,note_off,116,0,0,,2,,,74,127
13024,note_on,2,0,0,,12,,,71,127
13140,note_off,116,0,0,,12,,,71,127
13142,note_on,2,0,0,,7,,,67,127
13258,note_off,116,0,0,,7,,,67,127
13258,note_off,0,0,0,,7,,,43,127
13260,note_on,2,0,0,,12,,,83,127
13260,note_on,0,0,0,,2,,,62,127
13376,note_off,116,0,0,,2,,,62,127
13378,note_on,2,0,0,,12,,,71,127
13494,note_off,116,0,0,,12,,,71,127
13496,note_on,2,0,0,,2,,,74,127
13612,note_off,116,0,0,,2,,,74,127
13612,note_off,0,0,0,,12,,,83,127
13614,note_on,2,0,0,,0,,,36,127
13614,note_on,0,0,0,,4,,,76,127
13730,note_off,116,0,0,,4,,,76,127
13732,note_on,2,0,0,,0,,,72,127
13848,note_off,116,0,0,,0,,,72,127
13850,note_on,2,0,0,,7,,,67,127
13966,note_off,116,0,0,,7,,,67,127
13966,note_off,0,0,0,,0,,,36,127
13968,note_on,2,0,0,,0,,,84,127
13968,note_on,0,0,0,,4,,,64,127
14084,note_off,116,0,0,,4,,,64,127
14086,note_on,2,0,0,,4,,,76,127
14202,note_off,116,0,0,,4,,,76,127
14204,note_on,2,0,0,,7,,,79,127
14320,note_off,116,0,0,,0,,,84,127
14322,note_on,2,0,0,,2,,,38,127
14322,note_on,0,0,0,,6,,,78,127
14328,note_off,6,0,0,,7,,,79,127
14438,note_off,110,0,0,,6,,,78,127
14440,note_on,2,0,0,,2,,,74,127
14556,note_off,116,0,0,,2,,,74,127
14558,note_on,2,0,0,,6,,,78,127
14674,note_off,116,0,0,,6,,,78,127
14674,note_off,0,0,0,,2,,,38,127
14676,note_on,2,0,0,,7,,,43,127
14676,note_on,0,0,0,,7,,,79,127
14792,note_off,116,0,0,,7,,,79,127
14794,note_on,2,0,0,,2,,,74,127
14910,note_off,116,0,0,,2,,,74,127
14912,note_on,2,0,0,,12,,,71,127
15028,note_off,116,0,0,,12,,,71,127
15028,note_off,0,0,0,,7,,,43,127
15030,note_on,2,0,0,,0,,,48,127
15030,note_on,0,0,0,,0,,,36,127
15030,note_on,0,0,0,,4,,,76,127
15146,note_off,116,0,0,,4,,,76,127
15148,note_on,2,0,0,,2,,,74,127
15264,note_off,116,0,0,,2,,,74,127
15266,note_on,2,0,0,,0,,,72,127
15382,note_off,116,0,0,,0,,,72,127
15382,note_off,0,0,0,,0,,,36,127
15382,note_off,0,0,0,,0,,,48,127
15384,note_on,2,0,0,,2,,,50,127
15384,note_on,0,0,0,,2,,,38,127
15384,note_on,0,0,0,,12,,,71,127
15500,note_off,116,0,0,,12,,,71,127
15502,note_on,2,0,0,,0,,,72,127
15618,note_off,116,0,0,,0,,,72,127
15620,note_on,2,0,0,,10,,,69,127
15736,note_off,116,0,0,,10,,,69,127
15736,note_off,0,0,0,,2,,,38,127
15736,note_off,0,0,0,,2,,,50,127
15753,note_on,17,0,0,,7,,,67,127
15753,note_on,0,0,0,,7,,,43,127
15869,note_off,116,0,0,,7,,,67,127
15871,note_on,2,0,0,,7,,,67,127
15871,note_on,0,0,0,,12,,,71,127
15987,note_off,116,0,0,,12,,,71,127
15987,note_off,0,0,0,,7,,,67,127
15989,note_on,2,0,0,,10,,,69,127
15989,note_on,0,0,0,,0,,,72,127
16105,note_off,116,0,0,,0,,,72,127
16105,note_off,0,0,0,,10,,,69,127
16105,note_off,0,0,0,,7,,,43,127
16107,note_on,2,0,0,,2,,,74,127
16107,note_on,0,0,0,,12,,,71,127
16107,note_on,0,0,0,,7,,,55,127
16223,note_off,116,0,0,,12,,,71,127
16223,note_off,0,0,0,,2,,,74,127
16225,note_on,2,0,0,,10,,,69,127
16225,note_on,0,0,0,,0,,,72,127
16341,note_off,116,0,0,,0,,,72,127
16341,note_off,0,0,0,,10,,,69,127
16343,note_on,2,0,0,,7,,,67,127
16343,note_on,0,0,0,,12,,,71,127
16459,note_off,116,0,0,,12,,,71,127
16459,note_off,0,0,0,,7,,,55,127
16461,note_on,2,0,0,,2,,,62,127
16461,note_on,0,0,0,,2,,,38,127
16527,note_off,66,0,0,,7,,,67,127
16577,note_off,50,0,0,,2,,,62,127
16579,note_on,2,0,0,,6,,,66,127
16579,note_on,0,0,0,,10,,,69,127
16695,note_off,116,0,0,,10,,,69,127
16695,note_off,0,0,0,,6,,,66,127
16697,note_on,2,0,0,,7,,,67,127
16697,note_on,0,0,0,,12,,,71,127
16813,note_off,116,0,0,,12,,,71,127
16813,note_off,0,0,0,,7,,,67,127
16813,note_off,0,0,0,,2,,,38,127
16815,note_on,2,0,0,,0,,,72,127
16815,note_on,0,0,0,,10,,,69,127
16815,note_on,0,0,0,,2,,,50,127
16931,note_off,116,0,0,,10,,,69,127
16931,note_off,0,0,0,,0,,,72,127
16933,note_on,2,0,0,,7,,,67,127
16933,note_on,0,0,0,,12,,,71,127
17049,note_off,116,0,0,,12,,,71,127
17049,note_off,0,0,0,,7,,,67,127
17051,note_on,2,0,0,,6,,,66,127
17051,note_on,0,0,0,,10,,,69,127
17167,note_off,116,0,0,,10,,,69,127
17167,note_off,0,0,0,,2,,,50,127
17169,note_on,2,0,0,,2,,,62,127
17169,note_on,0,0,0,,7,,,43,127
17235,note_off,66,0,0,,6,,,66,127
17285,note_off,50,0,0,,2,,,62,127
17287,note_on,2,0,0,,7,,,67,127
17287,note_on,0,0,0,,12,,,71,127
17403,note_off,116,0,0,,12,,,71,127
17403,note_off,0,0,0,,7,,,67,127
17405,note_on,2,0,0,,0,,,72,127
17405,note_on,0,0,0,,10,,,69,127
17521,note_off,116,0,0,,10,,,69,127
17521,note_off,0,0,0,,0,,,72,127
17521,note_off,0,0,0,,7,,,43,127
17523,note_on,2,0,0,,2,,,74,127
17523,note_on,0,0,0,,12,,,71,127
17523,note_on,0,0,0,,7,,,55,127
17639,note_off,116,0,0,,12,,,71,127
17639,note_off,0,0,0,,2,,,74,127
17641,note_on,2,0,0,,0,,,72,127
17641,note_on,0,0,0,,10,,,69,127
17757,note_off,116,0,0,,10,,,69,127
17757,note_off,0,0,0,,0,,,72,127
17759,note_on,2,0,0,,7,,,67,127
17759,note_on,0,0,0,,12,,,71,127
17875,note_off,116,0,0,,12,,,71,127
17875,note_off,0,0,0,,7,,,55,127
17877,note_on,2,0,0,,2,,,62,127
17877,note_on,0,0,0,,2,,,38,127
17943,note_off,66,0,0,,7,,,67,127
17993,note_off,50,0,0,,2,,,62,127
17995,note_on,2,0,0,,10,,,69,127
17995,note_on,0,0,0,,6,,,66,127
18111,note_off,116,0,0,,6,,,66,127
18111,note_off,0,0,0,,10,,,69,127
18113,note_on,2,0,0,,7,,,67,127
18113,note_on,0,0,0,,12,,,71,127
18229,note_off,116,0,0,,12,,,71,127
18229,note_off,0,0,0,,7,,,67,127
18229,note_off,0,0,0,,2,,,38,127
18231,note_on,2,0,0,,10,,,69,127
18231,note_on,0,0,0,,0,,,72,127
18231,note_on,0,0,0,,2,,,50,127
18347,note_off,116,0,0,,0,,,72,127
18347,note_off,0,0,0,,10,,,69,127
18349,note_on,2,0,0,,12,,,71,127
18349,note_on,0,0,0,,7,,,67,127
18465,note_off,116,0,0,,7,,,67,127
18465,note_off,0,0,0,,12,,,71,127
18467,note_on,2,0,0,,6,,,66,127
18467,note_on,0,0,0,,10,,,69,127
18555,note_off,88,0,0,,10,,,69,127
18584,note_off,29,0,0,,6,,,66,127
18584,note_off,0,0,0,,2,,,50,127
18586,note_on,2,0,0,,7,,,67,127
18586,note_on,0,0,0,,12,,,71,127
18586,note_on,0,0,0,,7,,,55,127
18702,note_off,116,0,0,,12,,,71,127
18704,note_on,2,0,0,,0,,,72,127
18820,note_off,116,0,0,,0,,,72,127
18822,note_on,2,0,0,,2,,,74,127
18938,note_off,116,0,0,,2,,,74,127
18938,note_off,0,0,0,,7,,,55,127
18939,note_off,1,0,0,,7,,,67,127
18940,note_on,1,0,0,,4,,,76,127
18940,note_on,0,0,0,,0,,,60,127
19056,note_off,116,0,0,,4,,,76,127
19058,note_on,2,0,0,,6,,,78,127
19174,note_off,116,0,0,,6,,,78,127
19176,note_on,2,0,0,,7,,,79,127
19292,note_off,116,0,0,,7,,,79,127
19292,note_off,0,0,0,,0,,,60,127
19294,note_on,2,0,0,,7,,,79,127
19294,note_on,0,0,0,,6,,,78,127
19294,note_on,0,0,0,,2,,,50,127
19410,note_off,116,0,0,,6,,,78,127
19410,note_off,0,0,0,,7,,,79,127
19412,note_on,2,0,0,,4,,,76,127
19528,note_off,116,0,0,,4,,,76,127
19530,note_on,2,0,0,,2,,,74,127
19646,note_off,116,0,0,,2,,,74,127
19646,note_off,0,0,0,,2,,,50,127
19648,note_on,2,0,0,,0,,,72,127
19648,note_on,0,0,0,,6,,,54,127
19648,note_on,0,0,0,,2,,,62,127
19764,note_off,116,0,0,,0,,,72,127
19766,note_on,2,0,0,,12,,,71,127
19882,note_off,116,0,0,,12,,,71,127
19884,note_on,2,0,0,,10,,,69,127
20000,note_off,116,0,0,,10,,,69,127
20000,note_off,0,0,0,,2,,,62,127
20000,note_off,0,0,0,,6,,,54,127
20002,note_on,2,0,0,,12,,,71,127
20002,note_on,0,0,0,,7,,,55,127
20002,note_on,0,0,0,,2,,,62,127
20118,note_off,116,0,0,,12,,,71,127
20120,note_on,2,0,0,,0,,,72,127
20236,note_off,116,0,0,,0,,,72,127
20238,note_on,2,0,0,,2,,,74,127
20354,note_off,116,0,0,,2,,,74,127
20354,note_off,0,0,0,,2,,,62,127
20354,note_off,0,0,0,,7,,,55,127
20356,note_on,2,0,0,,0,,,72,127
20356,note_on,0,0,0,,0,,,48,127
20472,note_off,116,0,0,,0,,,72,127
20474,note_on,2,0,0,,2,,,74,127
20590,note_off,116,0,0,,2,,,74,127
20592,note_on,2,0,0,,4,,,76,127
20708,note_off,116,0,0,,4,,,76,127
20708,note_off,0,0,0,,0,,,48,127
20710,note_on,2,0,0,,4,,,76,127
20710,note_on,0,0,0,,2,,,74,127
20710,note_on,0,0,0,,2,,,50,127
20826,note_off,116,0,0,,2,,,74,127
20826,note_off,0,0,0,,4,,,76,127
20828,note_on,2,0,0,,0,,,72,127
20944,note_off,116,0,0,,0,,,72,127
20946,note_on,2,0,0,,12,,,71,127
21062,note_off,116,0,0,,12,,,71,127
21064,note_on,2,0,0,,10,,,69,127
21064,note_on,0,0,0,,2,,,38,127
21180,note_off,116,0,0,,10,,,69,127
21182,note_on,2,0,0,,7,,,67,127
21298,note_off,116,0,0,,7,,,67,127
21300,note_on,2,0,0,,6,,,66,127
21373,note_off,73,0,0,,6,,,66,127
21416,note_off,43,0,0,,2,,,38,127
21417,note_off,1,0,0,,2,,,50,127
21418,note_on,1,0,0,,7,,,79,127
21418,note_on,0,0,0,,7,,,43,127
21551,note_on,133,0,0,,2,,,74,127
21554,note_off,3,0,0,,7,,,79,127
21668,note_off,114,0,0,,2,,,74,127
21670,note_on,2,0,0,,12,,,71,127
21786,note_off,116,0,0,,12,,,71,127
21788,note_on,2,0,0,,7,,,67,127
21904,note_off,116,0,0,,7,,,67,127
21906,note_on,2,0,0,,2,,,62,127
22022,note_off,116,0,0,,2,,,62,127
22024,note_on,2,0,0,,12,,,59,127
22126,note_off,102,0,0,,7,,,43,127
22141,note_off,15,0,0,,12,,,59,127
22143,note_on,2,0,0,,7,,,55,127
22261,note_on,118,0,0,,2,,,50,127
22377,note_off,116,0,0,,2,,,50,127
22379,note_on,2,0,0,,12,,,47,127
22420,note_off,41,0,0,,7,,,55,127
22496,note_off,76,0,0,,12,,,47,127
22498,note_on,2,0,0,,7,,,43,127
22904,note_off,406,0,0,,7,,,43,127
22919,note_on,15,0,0,,7,,,67,127
23037,note_on,118,0,0,,12,,,71,127
23153,note_off,116,0,0,,12,,,71,127
23155,note_on,2,0,0,,0,,,72,127
23271,note_off,116,0,0,,0,,,72,127
23273,note_on,2,0,0,,2,,,74,127
23389,note_off,116,0,0,,2,,,74,127
23391,note_on,2,0,0,,0,,,72,127
23507,note_off,116,0,0,,0,,,72,127
23509,note_on,2,0,0,,12,,,71,127
23625,note_off,116,0,0,,7,,,67,127
23627,note_on,2,0,0,,5,,,65,127
23627,note_on,0,0,0,,10,,,69,127
23743,note_off,116,0,0,,12,,,71,127
23745,note_on,2,0,0,,12,,,71,127
23861,note_off,116,0,0,,12,,,71,127
23863,note_on,2,0,0,,0,,,72,127
23979,note_off,116,0,0,,0,,,72,127
23981,note_on,2,0,0,,2,,,74,127
24097,note_off,116,0,0,,2,,,74,127
24099,note_on,2,0,0,,0,,,72,127
24215,note_off,116,0,0,,0,,,72,127
24217,note_on,2,0,0,,12,,,71,127
24333,note_off,116,0,0,,10,,,69,127
24333,note_off,0,0,0,,5,,,65,127
24335,note_on,2,0,0,,4,,,64,127
24335,note_on,0,0,0,,8,,,68,127
24451,note_off,116,0,0,,12,,,71,127
24453,note_on,2,0,0,,12,,,71,127
24569,note_off,116,0,0,,12,,,71,127
24571,note_on,2,0,0,,0,,,72,127
24687,note_off,116,0,0,,0,,,72,127
24687,note_off,0,0,0,,8,,,68,127
24687,note_off,0,0,0,,4,,,64,127
24689,note_on,2,0,0,,4,,,64,127
24689,note_on,0,0,0,,8,,,68,127
24689,note_on,0,0,0,,2,,,74,127
24805,note_off,116,0,0,,2,,,74,127
24807,note_on,2,0,0,,0,,,72,127
24923,note_off,116,0,0,,0,,,72,127
24925,note_on,2,0,0,,12,,,71,127
25041,note_off,116,0,0,,8,,,68,127
25041,note_off,0,0,0,,4,,,64,127
25043,note_on,2,0,0,,8,,,68,127
25043,note_on,0,0,0,,2,,,62,127
25161,note_on,118,0,0,,2,,,74,127
25277,note_off,116,0,0,,2,,,74,127
25279,note_on,2,0,0,,4,,,76,127
25395,note_off,116,0,0,,4,,,76,127
25395,note_off,0,0,0,,2,,,62,127
25395,note_off,0,0,0,,8,,,68,127
25395,note_off,0,0,0,,12,,,71,127
25397,note_on,2,0,0,,12,,,71,127
25397,note_on,0,0,0,,8,,,68,127
25397,note_on,0,0,0,,2,,,62,127
25397,note_on,0,0,0,,5,,,77,127
25513,note_off,116,0,0,,5,,,77,127
25515,note_on,2,0,0,,4,,,76,127
25631,note_off,116,0,0,,4,,,76,127
25633,note_on,2,0,0,,2,,,74,127
25749,note_off,116,0,0,,2,,,62,127
25749,note_off,0,0,0,,8,,,68,127
25749,note_off,0,0,0,,12,,,71,127
25751,note_on,2,0,0,,8,,,68,127
25751,note_on,0,0,0,,4,,,64,127
25867,note_off,116,0,0,,2,,,74,127
25869,note_on,2,0,0,,12,,,71,127
25985,note_off,116,0,0,,12,,,71,127
25987,note_on,2,0,0,,0,,,72,127
26103,note_off,116,0,0,,0,,,72,127
26103,note_off,0,0,0,,4,,,64,127
26103,note_off,0,0,0,,8,,,68,127
26105,note_on,2,0,0,,2,,,74,127
26105,note_on,0,0,0,,2,,,62,127
26105,note_on,0,0,0,,8,,,68,127
26105,note_on,0,0,0,,4,,,64,127
26221,note_off,116,0,0,,2,,,74,127
26223,note_on,2,0,0,,0,,,72,127
26339,note_off,116,0,0,,0,,,72,127
26341,note_on,2,0,0,,12,,,71,127
26457,note_off,116,0,0,,12,,,71,127
26457,note_off,0,0,0,,4,,,64,127
26457,note_off,0,0,0,,8,,,68,127
26457,note_off,0,0,0,,2,,,62,127
26459,note_on,2,0,0,,4,,,76,127
26459,note_on,0,0,0,,0,,,60,127
26459,note_on,0,0,0,,4,,,64,127
26459,note_on,0,0,0,,10,,,69,127
26575,note_off,116,0,0,,4,,,76,127
26577,note_on,2,0,0,,2,,,74,127
26693,note_off,116,0,0,,2,,,74,127
26695,note_on,2,0,0,,4,,,76,127
26811,note_off,116,0,0,,4,,,76,127
26811,note_off,0,0,0,,10,,,69,127
26811,note_off,0,0,0,,4,,,64,127
26811,note_off,0,0,0,,0,,,60,127
26813,note_on,2,0,0,,2,,,74,127
26813,note_on,0,0,0,,4,,,64,127
26813,note_on,0,0,0,,12,,,59,127
26813,note_on,0,0,0,,8,,,68,127
26813,note_on,0,0,0,,2,,,62,127
26929,note_off,116,0,0,,2,,,74,127
26931,note_on,2,0,0,,0,,,72,127
27047,note_off,116,0,0,,0,,,72,127
27049,note_on,2,0,0,,2,,,74,127
27165,note_off,116,0,0,,2,,,62,127
27165,note_off,0,0,0,,8,,,68,127
27165,note_off,0,0,0,,12,,,59,127
27165,note_off,0,0,0,,4,,,64,127
27166,note_off,1,0,0,,2,,,74,127
27182,note_on,16,0,0,,10,,,57,127
27300,note_on,118,0,0,,0,,,72,127
27416,note_off,116,0,0,,0,,,72,127
27418,note_on,2,0,0,,2,,,74,127
27534,note_off,116,0,0,,2,,,74,127
27534,note_off,0,0,0,,10,,,57,127
27536,note_on,2,0,0,,10,,,81,127
27536,note_on,0,0,0,,0,,,84,127
27536,note_on,0,0,0,,4,,,76,127
27652,note_off,116,0,0,,4,,,76,127
27654,note_on,2,0,0,,2,,,74,127
27770,note_off,116,0,0,,2,,,74,127
27772,note_on,2,0,0,,0,,,72,127
27888,note_off,116,0,0,,0,,,72,127
27888,note_off,0,0,0,,0,,,84,127
27888,note_off,0,0,0,,10,,,81,127
27890,note_on,2,0,0,,4,,,52,127
27890,note_on,0,0,0,,4,,,40,127
27890,note_on,0,0,0,,4,,,64,127
28006,note_off,116,0,0,,4,,,64,127
28008,note_on,2,0,0,,12,,,71,127
28124,note_off,116,0,0,,12,,,71,127
28126,note_on,2,0,0,,0,,,72,127
28242,note_off,116,0,0,,0,,,72,127
28242,note_off,0,0,0,,4,,,40,127
28242,note_off,0,0,0,,4,,,52,127
28244,note_on,2,0,0,,8,,,80,127
28244,note_on,0,0,0,,12,,,83,127
28244,note_on,0,0,0,,2,,,74,127
28360,note_off,116,0,0,,2,,,74,127
28362,note_on,2,0,0,,0,,,72,127
28478,note_off,116,0,0,,0,,,72,127
28480,note_on,2,0,0,,12,,,71,127
28596,note_off,116,0,0,,12,,,71,127
28596,note_off,0,0,0,,12,,,83,127
28596,note_off,0,0,0,,8,,,80,127
28598,note_on,2,0,0,,10,,,57,127
28598,note_on,0,0,0,,10,,,45,127
28598,note_on,0,0,0,,4,,,64,127
28714,note_off,116,0,0,,4,,,64,127
28716,note_on,2,0,0,,0,,,72,127
28832,note_off,116,0,0,,0,,,72,127
28834,note_on,2,0,0,,2,,,74,127
28950,note_off,116,0,0,,2,,,74,127
28950,note_off,0,0,0,,10,,,45,127
28950,note_off,0,0,0,,10,,,57,127
28952,note_on,2,0,0,,0,,,84,127
28952,note_on,0,0,0,,10,,,81,127
28952,note_on,0,0,0,,4,,,76,127
29068,note_off,116,0,0,,4,,,76,127
29070,note_on,2,0,0,,2,,,74,127
29186,note_off,116,0,0,,2,,,74,127
29188,note_on,2,0,0,,0,,,72,127
29304,note_off,116,0,0,,0,,,72,127
29304,note_off,0,0,0,,10,,,81,127
29304,note_off,0,0,0,,0,,,84,127
29306,note_on,2,0,0,,4,,,52,127
29306,note_on,0,0,0,,4,,,40,127
29306,note_on,0,0,0,,4,,,64,127
29422,note_off,116,0,0,,4,,,64,127
29424,note_on,2,0,0,,12,,,71,127
29540,note_off,116,0,0,,12,,,71,127
29542,note_on,2,0,0,,0,,,72,127
29658,note_off,116,0,0,,0,,,72,127
29658,note_off,0,0,0,,4,,,40,127
29658,note_off,0,0,0,,4,,,52,127
29660,note_on,2,0,0,,12,,,83,127
29660,note_on,0,0,0,,8,,,80,127
29660,note_on,0,0,0,,2,,,74,127
29776,note_off,116,0,0,,2,,,74,127
29778,note_on,2,0,0,,0,,,72,127
29836,note_off,58,0,0,,8,,,80,127
29836,note_off,0,0,0,,12,,,83,127
29894,note_off,58,0,0,,0,,,72,127
29896,note_on,2,0,0,,12,,,71,127
30021,note_off,125,0,0,,12,,,71,127
30022,note_on,1,0,0,,10,,,57,127
30022,note_on,0,0,0,,10,,,45,127
30022,note_on,0,0,0,,0,,,72,127
30138,note_off,116,0,0,,0,,,72,127
30140,note_on,2,0,0,,0,,,72,127
30256,note_off,116,0,0,,0,,,72,127
30258,note_on,2,0,0,,2,,,74,127
30374,note_off,116,0,0,,2,,,74,127
30374,note_off,0,0,0,,10,,,45,127
30374,note_off,0,0,0,,10,,,57,127
30376,note_on,2,0,0,,7,,,55,127
30376,note_on,0,0,0,,7,,,43,127
30376,note_on,0,0,0,,4,,,76,127
30492,note_off,116,0,0,,4,,,76,127
30494,note_on,2,0,0,,6,,,78,127
30610,note_off,116,0,0,,6,,,78,127
30612,note_on,2,0,0,,7,,,79,127
30728,note_off,116,0,0,,7,,,79,127
30728,note_off,0,0,0,,7,,,43,127
30728,note_off,0,0,0,,7,,,55,127
30730,note_on,2,0,0,,6,,,54,127
30730,note_on,0,0,0,,6,,,42,127
30730,note_on,0,0,0,,10,,,81,127
30846,note_off,116,0,0,,10,,,81,127
30848,note_on,2,0,0,,7,,,79,127
30964,note_off,116,0,0,,7,,,79,127
30966,note_on,2,0,0,,6,,,78,127
31082,note_off,116,0,0,,6,,,78,127
31082,note_off,0,0,0,,6,,,42,127
31082,note_off,0,0,0,,6,,,54,127
31084,note_on,2,0,0,,2,,,50,127
31084,note_on,0,0,0,,2,,,38,127
31084,note_on,0,0,0,,4,,,76,127
31200,note_off,116,0,0,,4,,,76,127
31202,note_on,2,0,0,,2,,,74,127
31318,note_off,116,0,0,,2,,,74,127
31320,note_on,2,0,0,,0,,,72,127
31422,note_off,102,0,0,,0,,,72,127
31437,note_off,15,0,0,,2,,,38,127
31437,note_off,0,0,0,,2,,,50,127
31439,note_on,2,0,0,,7,,,55,127
31439,note_on,0,0,0,,7,,,43,127
31439,note_on,0,0,0,,12,,,71,127
31555,note_off,116,0,0,,12,,,71,127
31557,note_on,2,0,0,,12,,,71,127
31673,note_off,116,0,0,,12,,,71,127
31675,note_on,2,0,0,,0,,,72,127
31791,note_off,116,0,0,,0,,,72,127
31791,note_off,0,0,0,,7,,,43,127
31791,note_off,0,0,0,,7,,,55,127
31793,note_on,2,0,0,,7,,,79,127
31793,note_on,0,0,0,,12,,,83,127
31793,note_on,0,0,0,,2,,,74,127
31909,note_off,116,0,0,,2,,,74,127
31911,note_on,2,0,0,,0,,,72,127
32027,note_off,116,0,0,,0,,,72,127
32029,note_on,2,0,0,,12,,,71,127
32145,note_off,116,0,0,,12,,,71,127
32145,note_off,0,0,0,,12,,,83,127
32145,note_off,0,0,0,,7,,,79,127
32147,note_on,2,0,0,,2,,,50,127
32147,note_on,0,0,0,,2,,,38,127
32147,note_on,0,0,0,,2,,,62,127
32263,note_off,116,0,0,,2,,,62,127
32265,note_on,2,0,0,,10,,,69,127
32381,note_off,116,0,0,,10,,,69,127
32383,note_on,2,0,0,,12,,,71,127
32499,note_off,116,0,0,,12,,,71,127
32499,note_off,0,0,0,,2,,,38,127
32499,note_off,0,0,0,,2,,,50,127
32501,note_on,2,0,0,,6,,,78,127
32501,note_on,0,0,0,,10,,,81,127
32501,note_on,0,0,0,,0,,,72,127
32617,note_off,116,0,0,,0,,,72,127
32619,note_on,2,0,0,,12,,,71,127
32735,note_off,116,0,0,,12,,,71,127
32737,note_on,2,0,0,,10,,,69,127
32853,note_off,116,0,0,,10,,,69,127
32853,note_off,0,0,0,,10,,,81,127
32853,note_off,0,0,0,,6,,,78,127
32855,note_on,2,0,0,,7,,,55,127
32855,note_on,0,0,0,,7,,,43,127
32855,note_on,0,0,0,,2,,,62,127
32971,note_off,116,0,0,,2,,,62,127
32973,note_on,2,0,0,,12,,,71,127
33089,note_off,116,0,0,,12,,,71,127
33091,note_on,2,0,0,,0,,,72,127
33207,note_off,116,0,0,,0,,,72,127
33207,note_off,0,0,0,,7,,,43,127
33207,note_off,0,0,0,,7,,,55,127
33209,note_on,2,0,0,,12,,,83,127
33209,note_on,0,0,0,,7,,,79,127
33209,note_on,0,0,0,,2,,,74,127
33325,note_off,116,0,0,,2,,,74,127
33327,note_on,2,0,0,,0,,,72,127
33443,note_off,116,0,0,,0,,,72,127
33445,note_on,2,0,0,,12,,,71,127
33561,note_off,116,0,0,,12,,,71,127
33561,note_off,0,0,0,,7,,,79,127
33561,note_off,0,0,0,,12,,,83,127
33563,note_on,2,0,0,,2,,,50,127
33563,note_on,0,0,0,,2,,,38,127
33563,note_on,0,0,0,,2,,,62,127
33679,note_off,116,0,0,,2,,,62,127
33681,note_on,2,0,0,,10,,,69,127
33797,note_off,116,0,0,,10,,,69,127
33799,note_on,2,0,0,,12,,,71,127
33915,note_off,116,0,0,,12,,,71,127
33915,note_off,0,0,0,,2,,,38,127
33915,note_off,0,0,0,,2,,,50,127
33917,note_on,2,0,0,,10,,,81,127
33917,note_on,0,0,0,,6,,,78,127
33917,note_on,0,0,0,,0,,,72,127
34033,note_off,116,0,0,,0,,,72,127
34035,note_on,2,0,0,,12,,,71,127
34120,note_off,85,0,0,,6,,,78,127
34120,note_off,0,0,0,,10,,,81,127
34151,note_off,31,0,0,,12,,,71,127
34154,note_on,3,0,0,,10,,,69,127
34270,note_off,116,0,0,,10,,,69,127
34276,note_on,6,0,0,,7,,,55,127
34276,note_on,0,0,0,,7,,,43,127
34276,note_on,0,0,0,,12,,,71,127
34392,note_off,116,0,0,,12,,,71,127
34403,note_on,11,0,0,,12,,,71,127
34519,note_off,116,0,0,,12,,,71,127
34521,note_on,2,0,0,,1,,,73,127
34628,note_off,107,0,0,,7,,,43,127
34628,note_off,0,0,0,,7,,,55,127
34637,note_off,9,0,0,,1,,,73,127
34639,note_on,2,0,0,,2,,,74,127
34639,note_on,0,0,0,,10,,,69,127
34639,note_on,0,0,0,,5,,,65,127
34755,note_off,116,0,0,,2,,,74,127
34757,note_on,2,0,0,,1,,,73,127
34873,note_off,116,0,0,,1,,,73,127
34875,note_on,2,0,0,,2,,,74,127
34991,note_off,116,0,0,,2,,,74,127
34991,note_off,0,0,0,,5,,,65,127
34991,note_off,0,0,0,,10,,,69,127
34993,note_on,2,0,0,,4,,,76,127
34993,note_on,0,0,0,,7,,,67,127
34993,note_on,0,0,0,,4,,,64,127
34993,note_on,0,0,0,,1,,,73,127
35109,note_off,116,0,0,,4,,,76,127
35111,note_on,2,0,0,,5,,,77,127
35227,note_off,116,0,0,,5,,,77,127
35229,note_on,2,0,0,,7,,,79,127
35345,note_off,116,0,0,,7,,,79,127
35345,note_off,0,0,0,,1,,,73,127
35345,note_off,0,0,0,,4,,,64,127
35345,note_off,0,0,0,,7,,,67,127
35347,note_on,2,0,0,,5,,,77,127
35347,note_on,0,0,0,,2,,,62,127
35347,note_on,0,0,0,,2,,,74,127
35347,note_on,0,0,0,,10,,,69,127
35463,note_off,116,0,0,,5,,,77,127
35465,note_on,2,0,0,,4,,,76,127
35581,note_off,116,0,0,,4,,,76,127
35583,note_on,2,0,0,,5,,,77,127
35689,note_off,106,0,0,,5,,,77,127
35699,note_off,10,0,0,,10,,,69,127
35699,note_off,0,0,0,,2,,,74,127
35699,note_off,0,0,0,,2,,,62,127
35708,note_on,9,0,0,,4,,,76,127
35708,note_on,0,0,0,,10,,,69,127
35708,note_on,0,0,0,,1,,,73,127
35824,note_off,116,0,0,,4,,,76,127
35841,note_on,17,0,0,,4,,,76,127
35957,note_off,116,0,0,,4,,,76,127
35959,note_on,2,0,0,,5,,,77,127
36061,note_off,102,0,0,,1,,,73,127
36061,note_off,0,0,0,,10,,,69,127
36076,note_off,15,0,0,,5,,,77,127
36078,note_on,2,0,0,,1,,,73,127
36078,note_on,0,0,0,,10,,,69,127
36078,note_on,0,0,0,,7,,,79,127
36194,note_off,116,0,0,,7,,,79,127
36196,note_on,2,0,0,,5,,,77,127
36312,note_off,116,0,0,,5,,,77,127
36314,note_on,2,0,0,,4,,,76,127
36430,note_off,116,0,0,,10,,,69,127
36430,note_off,0,0,0,,1,,,73,127
36432,note_on,2,0,0,,7,,,67,127
36432,note_on,0,0,0,,1,,,73,127
36490,note_off,58,0,0,,4,,,76,127
36550,note_on,60,0,0,,7,,,79,127
36666,note_off,116,0,0,,7,,,79,127
36668,note_on,2,0,0,,10,,,81,127
36784,note_off,116,0,0,,10,,,81,127
36784,note_off,0,0,0,,1,,,73,127
36784,note_off,0,0,0,,7,,,67,127
36786,note_on,2,0,0,,7,,,67,127
36786,note_on,0,0,0,,1,,,73,127
36786,note_on,0,0,0,,4,,,76,127
36786,note_on,0,0,0,,11,,,82,127
36902,note_off,116,0,0,,11,,,82,127
36904,note_on,2,0,0,,10,,,81,127
37020,note_off,116,0,0,,10,,,81,127
37022,note_on,2,0,0,,7,,,79,127
37138,note_off,116,0,0,,4,,,76,127
37138,note_off,0,0,0,,1,,,73,127
37138,note_off,0,0,0,,7,,,67,127
37155,note_on,17,0,0,,1,,,73,127
37155,note_on,0,0,0,,10,,,69,127
37198,note_off,43,0,0,,7,,,79,127
37273,note_on,75,0,0,,4,,,76,127
37389,note_off,116,0,0,,4,,,76,127
37391,note_on,2,0,0,,5,,,77,127
37507,note_off,116,0,0,,5,,,77,127
37507,note_off,0,0,0,,10,,,69,127
37507,note_off,0,0,0,,1,,,73,127
37509,note_on,2,0,0,,7,,,79,127
37509,note_on,0,0,0,,1,,,73,127
37509,note_on,0,0,0,,10,,,69,127
37625,note_off,116,0,0,,7,,,79,127
37627,note_on,2,0,0,,5,,,77,127
37743,note_off,116,0,0,,5,,,77,127
37745,note_on,2,0,0,,4,,,76,127
37861,note_off,116,0,0,,10,,,69,127
37861,note_off,0,0,0,,1,,,73,127
37863,note_on,2,0,0,,7,,,67,127
37863,note_on,0,0,0,,1,,,73,127
37981,note_on,118,0,0,,7,,,79,127
38097,note_off,116,0,0,,7,,,79,127
38098,note_off,1,0,0,,4,,,76,127
38099,note_on,1,0,0,,10,,,81,127
38215,note_off,116,0,0,,10,,,81,127
38215,note_off,0,0,0,,1,,,73,127
38215,note_off,0,0,0,,7,,,67,127
38217,note_on,2,0,0,,11,,,82,127
38217,note_on,0,0,0,,7,,,67,127
38217,note_on,0,0,0,,4,,,76,127
38217,note_on,0,0,0,,1,,,73,127
38333,note_off,116,0,0,,11,,,82,127
38335,note_on,2,0,0,,10,,,81,127
38451,note_off,116,0,0,,10,,,81,127
38453,note_on,2,0,0,,7,,,79,127
38569,note_off,116,0,0,,1,,,73,127
38569,note_off,0,0,0,,4,,,76,127
38569,note_off,0,0,0,,7,,,67,127
38586,note_on,17,0,0,,1,,,73,127
38586,note_on,0,0,0,,10,,,69,127
38629,note_off,43,0,0,,7,,,79,127
38704,note_on,75,0,0,,4,,,76,127
38820,note_off,116,0,0,,4,,,76,127
38822,note_on,2,0,0,,5,,,77,127
38938,note_off,116,0,0,,5,,,77,127
38938,note_off,0,0,0,,10,,,69,127
38938,note_off,0,0,0,,1,,,73,127
38940,note_on,2,0,0,,10,,,69,127
38940,note_on,0,0,0,,1,,,73,127
38940,note_on,0,0,0,,7,,,67,127
38940,note_on,0,0,0,,7,,,79,127
39056,note_off,116,0,0,,7,,,79,127
39058,note_on,2,0,0,,5,,,77,127
39174,note_off,116,0,0,,5,,,77,127
39176,note_on,2,0,0,,4,,,76,127
39292,note_off,116,0,0,,4,,,76,127
39292,note_off,0,0,0,,7,,,67,127
39292,note_off,0,0,0,,1,,,73,127
39292,note_off,0,0,0,,10,,,69,127
39294,note_on,2,0,0,,2,,,74,127
39294,note_on,0,0,0,,5,,,65,127
39294,note_on,0,0,0,,10,,,69,127
39294,note_on,0,0,0,,10,,,81,127
39410,note_off,116,0,0,,10,,,81,127
39412,note_on,2,0,0,,8,,,80,127
39528,note_off,116,0,0,,8,,,80,127
39530,note_on,2,0,0,,10,,,81,127
39646,note_off,116,0,0,,10,,,81,127
39646,note_off,0,0,0,,10,,,69,127
39646,note_off,0,0,0,,5,,,65,127
39646,note_off,0,0,0,,2,,,74,127
39648,note_on,2,0,0,,7,,,67,127
39648,note_on,0,0,0,,1,,,73,127
39648,note_on,0,0,0,,4,,,64,127
39648,note_on,0,0,0,,7,,,79,127
39764,note_off,116,0,0,,7,,,79,127
39766,note_on,2,0,0,,6,,,78,127
39882,note_off,116,0,0,,6,,,78,127
39884,note_on,2,0,0,,7,,,79,127
40000,note_off,116,0,0,,7,,,79,127
40000,note_off,0,0,0,,4,,,64,127
40000,note_off,0,0,0,,1,,,73,127
40000,note_off,0,0,0,,7,,,67,127
40002,note_on,2,0,0,,2,,,62,127
40002,note_on,0,0,0,,2,,,74,127
40002,note_on,0,0,0,,5,,,77,127
40118,note_off,116,0,0,,5,,,77,127
40120,note_on,2,0,0,,4,,,76,127
40236,note_off,116,0,0,,4,,,76,127
40238,note_on,2,0,0,,5,,,77,127
40354,note_off,116,0,0,,5,,,77,127
40354,note_off,0,0,0,,2,,,74,127
40354,note_off,0,0,0,,2,,,62,127
40356,note_on,2,0,0,,4,,,64,127
40356,note_on,0,0,0,,7,,,67,127
40356,note_on,0,0,0,,4,,,76,127
40472,note_off,116,0,0,,4,,,76,127
40474,note_on,2,0,0,,2,,,74,127
40590,note_off,116,0,0,,2,,,74,127
40592,note_on,2,0,0,,4,,,76,127
40708,note_off,116,0,0,,4,,,76,127
40708,note_off,0,0,0,,7,,,67,127
40708,note_off,0,0,0,,4,,,64,127
40710,note_on,2,0,0,,10,,,69,127
40710,note_on,0,0,0,,5,,,65,127
40710,note_on,0,0,0,,2,,,74,127
40826,note_off,116,0,0,,2,,,74,127
40828,note_on,2,0,0,,0,,,72,127
40944,note_off,116,0,0,,0,,,72,127
40946,note_on,2,0,0,,2,,,74,127
41062,note_off,116,0,0,,2,,,74,127
41062,note_off,0,0,0,,5,,,65,127
41062,note_off,0,0,0,,10,,,69,127
41064,note_on,2,0,0,,6,,,66,127
41064,note_on,0,0,0,,10,,,69,127
41064,note_on,0,0,0,,0,,,72,127
41180,note_off,116,0,0,,0,,,72,127
41182,note_on,2,0,0,,12,,,71,127
41298,note_off,116,0,0,,12,,,71,127
41300,note_on,2,0,0,,0,,,72,127
41416,note_off,116,0,0,,0,,,72,127
41416,note_off,0,0,0,,10,,,69,127
41416,note_off,0,0,0,,6,,,66,127
41418,note_on,2,0,0,,7,,,67,127
41418,note_on,0,0,0,,12,,,71,127
41534,note_off,116,0,0,,12,,,71,127
41536,note_on,2,0,0,,2,,,74,127
41652,note_off,116,0,0,,2,,,74,127
41654,note_on,2,0,0,,4,,,76,127
41770,note_off,116,0,0,,4,,,76,127
41770,note_off,0,0,0,,7,,,67,127
41772,note_on,2,0,0,,12,,,71,127
41772,note_on,0,0,0,,5,,,65,127
41772,note_on,0,0,0,,5,,,77,127
41888,note_off,116,0,0,,5,,,77,127
41890,note_on,2,0,0,,7,,,79,127
42006,note_off,116,0,0,,7,,,79,127
42008,note_on,2,0,0,,10,,,81,127
42124,note_off,116,0,0,,10,,,81,127
42124,note_off,0,0,0,,5,,,65,127
42124,note_off,0,0,0,,12,,,71,127
42126,note_on,2,0,0,,7,,,67,127
42126,note_on,0,0,0,,0,,,72,127
42126,note_on,0,0,0,,4,,,64,127
42126,note_on,0,0,0,,7,,,79,127
42242,note_off,116,0,0,,7,,,79,127
42244,note_on,2,0,0,,6,,,78,127
42360,note_off,116,0,0,,6,,,78,127
42362,note_on,2,0,0,,7,,,79,127
42478,note_off,116,0,0,,7,,,79,127
42478,note_off,0,0,0,,4,,,64,127
42478,note_off,0,0,0,,0,,,72,127
42478,note_off,0,0,0,,7,,,67,127
42480,note_on,2,0,0,,2,,,62,127
42480,note_on,0,0,0,,5,,,65,127
42480,note_on,0,0,0,,12,,,71,127
42480,note_on,0,0,0,,5,,,77,127
42596,note_off,116,0,0,,5,,,77,127
42598,note_on,2,0,0,,4,,,76,127
42714,note_off,116,0,0,,4,,,76,127
42716,note_on,2,0,0,,5,,,77,127
42832,note_off,116,0,0,,5,,,77,127
42832,note_off,0,0,0,,12,,,71,127
42832,note_off,0,0,0,,5,,,65,127
42832,note_off,0,0,0,,2,,,62,127
42834,note_on,2,0,0,,0,,,72,127
42834,note_on,0,0,0,,7,,,67,127
42834,note_on,0,0,0,,0,,,60,127
42834,note_on,0,0,0,,4,,,76,127
42950,note_off,116,0,0,,4,,,76,127
42952,note_on,2,0,0,,2,,,74,127
43068,note_off,116,0,0,,2,,,74,127
43070,note_on,2,0,0,,4,,,76,127
43186,note_off,116,0,0,,4,,,76,127
43186,note_off,0,0,0,,0,,,60,127
43186,note_off,0,0,0,,7,,,67,127
43186,note_off,0,0,0,,0,,,72,127
43188,note_on,2,0,0,,7,,,67,127
43188,note_on,0,0,0,,12,,,59,127
43188,note_on,0,0,0,,2,,,74,127
43304,note_off,116,0,0,,2,,,74,127
43306,note_on,2,0,0,,0,,,72,127
43422,note_off,116,0,0,,0,,,72,127
43424,note_on,2,0,0,,2,,,74,127
43540,note_off,116,0,0,,2,,,74,127
43540,note_off,0,0,0,,12,,,59,127
43540,note_off,0,0,0,,7,,,67,127
43542,note_on,2,0,0,,10,,,57,127
43542,note_on,0,0,0,,0,,,72,127
43658,note_off,116,0,0,,0,,,72,127
43660,note_on,2,0,0,,4,,,76,127
43776,note_off,116,0,0,,4,,,76,127
43778,note_on,2,0,0,,2,,,74,127
43894,note_off,116,0,0,,2,,,74,127
43894,note_off,0,0,0,,10,,,57,127
43896,note_on,2,0,0,,6,,,66,127
43896,note_on,0,0,0,,10,,,57,127
43896,note_on,0,0,0,,0,,,72,127
43896,note_on,0,0,0,,2,,,74,127
44012,note_off,116,0,0,,2,,,74,127
44012,note_off,0,0,0,,0,,,72,127
44014,note_on,2,0,0,,12,,,71,127
44130,note_off,116,0,0,,12,,,71,127
44132,note_on,2,0,0,,10,,,69,127
44248,note_off,116,0,0,,10,,,69,127
44248,note_off,0,0,0,,10,,,57,127
44248,note_off,0,0,0,,6,,,66,127
44250,note_on,2,0,0,,7,,,55,127
44250,note_on,0,0,0,,12,,,71,127
44366,note_off,116,0,0,,12,,,71,127
44383,note_on,17,0,0,,7,,,67,127
44499,note_off,116,0,0,,7,,,67,127
44501,note_on,2,0,0,,2,,,74,127
44603,note_off,102,0,0,,7,,,55,127
44618,note_off,15,0,0,,2,,,74,127
44620,note_on,2,0,0,,12,,,71,127
44620,note_on,0,0,0,,7,,,79,127
44736,note_off,116,0,0,,12,,,71,127
44738,note_on,2,0,0,,7,,,67,127
44854,note_off,116,0,0,,7,,,67,127
44856,note_on,2,0,0,,2,,,74,127
44972,note_off,116,0,0,,2,,,74,127
44972,note_off,0,0,0,,7,,,79,127
44974,note_on,2,0,0,,12,,,71,127
44974,note_on,0,0,0,,5,,,53,127
45090,note_off,116,0,0,,12,,,71,127
45092,note_on,2,0,0,,7,,,67,127
45208,note_off,116,0,0,,7,,,67,127
45210,note_on,2,0,0,,2,,,74,127
45326,note_off,116,0,0,,2,,,74,127
45326,note_off,0,0,0,,5,,,53,127
45328,note_on,2,0,0,,12,,,71,127
45328,note_on,0,0,0,,7,,,79,127
45444,note_off,116,0,0,,12,,,71,127
45446,note_on,2,0,0,,7,,,67,127
45562,note_off,116,0,0,,7,,,67,127
45564,note_on,2,0,0,,2,,,74,127
45680,note_off,116,0,0,,2,,,74,127
45680,note_off,0,0,0,,7,,,79,127
45682,note_on,2,0,0,,0,,,72,127
45682,note_on,0,0,0,,4,,,52,127
45798,note_off,116,0,0,,0,,,72,127
45800,note_on,2,0,0,,7,,,67,127
45916,note_off,116,0,0,,7,,,67,127
45918,note_on,2,0,0,,4,,,76,127
46034,note_off,116,0,0,,4,,,76,127
46034,note_off,0,0,0,,4,,,52,127
46036,note_on,2,0,0,,0,,,72,127
46036,note_on,0,0,0,,7,,,79,127
46152,note_off,116,0,0,,0,,,72,127
46154,note_on,2,0,0,,7,,,67,127
46270,note_off,116,0,0,,7,,,67,127
46272,note_on,2,0,0,,4,,,76,127
46388,note_off,116,0,0,,4,,,76,127
46388,note_off,0,0,0,,7,,,79,127
46390,note_on,2,0,0,,12,,,71,127
46390,note_on,0,0,0,,2,,,50,127
46506,note_off,116,0,0,,12,,,71,127
46508,note_on,2,0,0,,5,,,65,127
46624,note_off,116,0,0,,5,,,65,127
46626,note_on,2,0,0,,2,,,74,127
46742,note_off,116,0,0,,2,,,74,127
46742,note_off,0,0,0,,2,,,50,127
46744,note_on,2,0,0,,12,,,71,127
46744,note_on,0,0,0,,7,,,79,127
46860,note_off,116,0,0,,12,,,71,127
46862,note_on,2,0,0,,5,,,65,127
46978,note_off,116,0,0,,5,,,65,127
46980,note_on,2,0,0,,5,,,77,127
47096,note_off,116,0,0,,5,,,77,127
47096,note_off,0,0,0,,7,,,79,127
47098,note_on,2,0,0,,4,,,76,127
47098,note_on,0,0,0,,0,,,48,127
47214,note_off,116,0,0,,4,,,76,127
47216,note_on,2,0,0,,0,,,72,127
47332,note_off,116,0,0,,0,,,72,127
47334,note_on,2,0,0,,7,,,67,127
47450,note_off,116,0,0,,7,,,67,127
47450,note_off,0,0,0,,0,,,48,127
47452,note_on,2,0,0,,4,,,76,127
47452,note_on,0,0,0,,7,,,79,127
47568,note_off,116,0,0,,4,,,76,127
47570,note_on,2,0,0,,0,,,72,127
47686,note_off,116,0,0,,0,,,72,127
47688,note_on,2,0,0,,7,,,67,127
47804,note_off,116,0,0,,7,,,67,127
47804,note_off,0,0,0,,7,,,79,127
47806,note_on,2,0,0,,2,,,74,127
47806,note_on,0,0,0,,12,,,47,127
47922,note_off,116,0,0,,2,,,74,127
47924,note_on,2,0,0,,12,,,71,127
48040,note_off,116,0,0,,12,,,71,127
48042,note_on,2,0,0,,7,,,67,127
48158,note_off,116,0,0,,7,,,67,127
48158,note_off,0,0,0,,12,,,47,127
48160,note_on,2,0,0,,2,,,74,127
48160,note_on,0,0,0,,7,,,79,127
48276,note_off,116,0,0,,2,,,74,127
48278,note_on,2,0,0,,12,,,71,127
48394,note_off,116,0,0,,12,,,71,127
48396,note_on,2,0,0,,7,,,67,127
48512,note_off,116,0,0,,7,,,67,127
48512,note_off,0,0,0,,7,,,79,127
48514,note_on,2,0,0,,0,,,72,127
48514,note_on,0,0,0,,10,,,45,127
48630,note_off,116,0,0,,0,,,72,127
48632,note_on,2,0,0,,10,,,69,127
48748,note_off,116,0,0,,10,,,69,127
48750,note_on,2,0,0,,7,,,67,127
48866,note_off,116,0,0,,7,,,67,127
48866,note_off,0,0,0,,10,,,45,127
48868,note_on,2,0,0,,0,,,72,127
48868,note_on,0,0,0,,7,,,79,127
48984,note_off,116,0,0,,0,,,72,127
48986,note_on,2,0,0,,10,,,69,127
49102,note_off,116,0,0,,10,,,69,127
49104,note_on,2,0,0,,7,,,67,127
49220,note_off,116,0,0,,7,,,67,127
49220,note_off,0,0,0,,7,,,79,127
49222,note_on,2,0,0,,2,,,74,127
49222,note_on,0,0,0,,7,,,43,127
49338,note_off,116,0,0,,2,,,74,127
49340,note_on,2,0,0,,12,,,71,127
49456,note_off,116,0,0,,12,,,71,127
49458,note_on,2,0,0,,7,,,67,127
49574,note_off,116,0,0,,7,,,67,127
49574,note_off,0,0,0,,7,,,43,127
49576,note_on,2,0,0,,2,,,74,127
49576,note_on,0,0,0,,7,,,79,127
49692,note_off,116,0,0,,2,,,74,127
49694,note_on,2,0,0,,12,,,71,127
49810,note_off,116,0,0,,12,,,71,127
49812,note_on,2,0,0,,7,,,67,127
49928,note_off,116,0,0,,7,,,67,127
49928,note_off,0,0,0,,7,,,79,127
49930,note_on,2,0,0,,2,,,74,127
49930,note_on,0,0,0,,5,,,41,127
50046,note_off,116,0,0,,2,,,74,127
50048,note_on,2,0,0,,12,,,71,127
50164,note_off,116,0,0,,12,,,71,127
50166,note_on,2,0,0,,7,,,67,127
50282,note_off,116,0,0,,7,,,67,127
50282,note_off,0,0,0,,5,,,41,127
50284,note_on,2,0,0,,2,,,74,127
50284,note_on,0,0,0,,7,,,79,127
50400,note_off,116,0,0,,2,,,74,127
50402,note_on,2,0,0,,12,,,71,127
50518,note_off,116,0,0,,12,,,71,127
50520,note_on,2,0,0,,7,,,67,127
50636,note_off,116,0,0,,7,,,67,127
50636,note_off,0,0,0,,7,,,79,127
50638,note_on,2,0,0,,4,,,76,127
50638,note_on,0,0,0,,4,,,40,127
50754,note_off,116,0,0,,4,,,76,127
50756,note_on,2,0,0,,0,,,72,127
50872,note_off,116,0,0,,0,,,72,127
50874,note_on,2,0,0,,7,,,67,127
50990,note_off,116,0,0,,7,,,67,127
50990,note_off,0,0,0,,4,,,40,127
50992,note_on,2,0,0,,4,,,76,127
50992,note_on,0,0,0,,7,,,79,127
51108,note_off,116,0,0,,4,,,76,127
51110,note_on,2,0,0,,0,,,72,127
51226,note_off,116,0,0,,0,,,72,127
51228,note_on,2,0,0,,7,,,67,127
51344,note_off,116,0,0,,7,,,67,127
51344,note_off,0,0,0,,7,,,79,127
51346,note_on,2,0,0,,5,,,77,127
51346,note_on,0,0,0,,2,,,38,127
51462,note_off,116,0,0,,5,,,77,127
51464,note_on,2,0,0,,2,,,74,127
51580,note_off,116,0,0,,2,,,74,127
51582,note_on,2,0,0,,7,,,67,127
51698,note_off,116,0,0,,7,,,67,127
51698,note_off,0,0,0,,2,,,38,127
51700,note_on,2,0,0,,5,,,77,127
51700,note_on,0,0,0,,7,,,79,127
51816,note_off,116,0,0,,5,,,77,127
51818,note_on,2,0,0,,2,,,74,127
51934,note_off,116,0,0,,2,,,74,127
51936,note_on,2,0,0,,7,,,67,127
52052,note_off,116,0,0,,7,,,67,127
52052,note_off,0,0,0,,7,,,79,127
52054,note_on,2,0,0,,4,,,76,127
52054,note_on,0,0,0,,0,,,36,127
52187,note_on,133,0,0,,0,,,72,127
52229,note_off,42,0,0,,4,,,76,127
52303,note_off,74,0,0,,0,,,72,127
52305,note_on,2,0,0,,2,,,74,127
52407,note_off,102,0,0,,0,,,36,127
52422,note_off,15,0,0,,2,,,74,127
52424,note_on,2,0,0,,0,,,60,127
52424,note_on,0,0,0,,4,,,76,127
52540,note_off,116,0,0,,4,,,76,127
52542,note_on,2,0,0,,5,,,77,127
52658,note_off,116,0,0,,5,,,77,127
52660,note_on,2,0,0,,7,,,79,127
52719,note_off,59,0,0,,0,,,60,127
52776,note_off,57,0,0,,7,,,79,127
52778,note_on,2,0,0,,5,,,65,127
52778,note_on,0,0,0,,10,,,81,127
52894,note_off,116,0,0,,10,,,81,127
52896,note_on,2,0,0,,7,,,79,127
53012,note_off,116,0,0,,7,,,79,127
53014,note_on,2,0,0,,5,,,77,127
53130,note_off,116,0,0,,5,,,77,127
53130,note_off,0,0,0,,5,,,65,127
53132,note_on,2,0,0,,6,,,66,127
53132,note_on,0,0,0,,4,,,76,127
53248,note_off,116,0,0,,4,,,76,127
53250,note_on,2,0,0,,2,,,74,127
53366,note_off,116,0,0,,2,,,74,127
53368,note_on,2,0,0,,0,,,72,127
53457,note_off,89,0,0,,0,,,72,127
53494,note_on,37,0,0,,7,,,67,127
53494,note_on,0,0,0,,12,,,83,127
53496,note_off,2,0,0,,6,,,66,127
53612,note_on,116,0,0,,7,,,79,127
53623,note_off,11,0,0,,12,,,83,127
53728,note_off,105,0,0,,7,,,79,127
53730,note_on,2,0,0,,12,,,83,127
53846,note_off,116,0,0,,12,,,83,127
53846,note_off,0,0,0,,7,,,67,127
53848,note_on,2,0,0,,4,,,64,127
53848,note_on,0,0,0,,0,,,84,127
53966,note_on,118,0,0,,4,,,76,127
53977,note_off,11,0,0,,0,,,84,127
54082,note_off,105,0,0,,4,,,76,127
54084,note_on,2,0,0,,0,,,72,127
54200,note_off,116,0,0,,0,,,72,127
54200,note_off,0,0,0,,4,,,64,127
54202,note_on,2,0,0,,5,,,65,127
54202,note_on,0,0,0,,10,,,81,127
54318,note_off,116,0,0,,10,,,81,127
54320,note_on,2,0,0,,7,,,79,127
54436,note_off,116,0,0,,7,,,79,127
54438,note_on,2,0,0,,5,,,77,127
54554,note_off,116,0,0,,5,,,77,127
54554,note_off,0,0,0,,5,,,65,127
54556,note_on,2,0,0,,7,,,67,127
54556,note_on,0,0,0,,4,,,76,127
54672,note_off,116,0,0,,4,,,76,127
54680,note_on,8,0,0,,5,,,77,127
54796,note_off,116,0,0,,5,,,77,127
54806,note_on,10,0,0,,2,,,74,127
55083,note_off,277,0,0,,2,,,74,127
55083,note_off,0,0,0,,7,,,67,127
55404,note_on,321,0,0,,0,,,60,127
55522,note_on,118,0,0,,4,,,64,127
55638,note_off,116,0,0,,4,,,64,127
55639,note_off,1,0,0,,0,,,60,127
55640,note_on,1,0,0,,0,,,60,127
55758,note_on,118,0,0,,4,,,64,127
55874,note_off,116,0,0,,0,,,60,127
55876,note_on,2,0,0,,7,,,67,127
55992,note_off,116,0,0,,7,,,67,127
55993,note_off,1,0,0,,4,,,64,127
55994,note_on,1,0,0,,4,,,64,127
56112,note_on,118,0,0,,7,,,67,127
56228,note_off,116,0,0,,4,,,64,127
56230,note_on,2,0,0,,0,,,72,127
56346,note_off,116,0,0,,0,,,72,127
56347,note_off,1,0,0,,7,,,67,127
56348,note_on,1,0,0,,7,,,67,127
56466,note_on,118,0,0,,0,,,72,127
56582,note_off,116,0,0,,7,,,67,127
56584,note_on,2,0,0,,4,,,76,127
56700,note_off,116,0,0,,4,,,76,127
56701,note_off,1,0,0,,0,,,72,127
56702,note_on,1,0,0,,0,,,72,127
56820,note_on,118,0,0,,4,,,76,127
56936,note_off,116,0,0,,0,,,72,127
56938,note_on,2,0,0,,7,,,79,127
57054,note_off,116,0,0,,7,,,79,127
57055,note_off,1,0,0,,4,,,76,127
57056,note_on,1,0,0,,4,,,76,127
57174,note_on,118,0,0,,7,,,79,127
57290,note_off,116,0,0,,4,,,76,127
57292,note_on,2,0,0,,0,,,84,127
57408,note_off,116,0,0,,0,,,84,127
57409,note_off,1,0,0,,7,,,79,127
57410,note_on,1,0,0,,7,,,79,127
57527,note_off,117,0,0,,7,,,79,127
57550,note_on,23,0,0,,0,,,60,127
57668,note_on,118,0,0,,4,,,64,127
57784,note_off,116,0,0,,4,,,64,127
57785,note_off,1,0,0,,0,,,60,127
57786,note_on,1,0,0,,0,,,60,127
57904,note_on,118,0,0,,4,,,64,127
58020,note_off,116,0,0,,0,,,60,127
58022,note_on,2,0,0,,7,,,67,127
58138,note_off,116,0,0,,7,,,67,127
58139,note_off,1,0,0,,4,,,64,127
58140,note_on,1,0,0,,4,,,64,127
58258,note_on,118,0,0,,7,,,67,127
58374,note_off,116,0,0,,4,,,64,127
58376,note_on,2,0,0,,0,,,72,127
58492,note_off,116,0,0,,0,,,72,127
58493,note_off,1,0,0,,7,,,67,127
58494,note_on,1,0,0,,7,,,67,127
58612,note_on,118,0,0,,0,,,72,127
58728,note_off,116,0,0,,7,,,67,127
58730,note_on,2,0,0,,4,,,76,127
58846,note_off,116,0,0,,4,,,76,127
58847,note_off,1,0,0,,0,,,72,127
58848,note_on,1,0,0,,0,,,72,127
58966,note_on,118,0,0,,4,,,76,127
59082,note_off,116,0,0,,0,,,72,127
59084,note_on,2,0,0,,7,,,79,127
59200,note_off,116,0,0,,7,,,79,127
59201,note_off,1,0,0,,4,,,76,127
59202,note_on,1,0,0,,4,,,76,127
59320,note_on,118,0,0,,7,,,79,127
59436,note_off,116,0,0,,4,,,76,127
59438,note_on,2,0,0,,0,,,84,127
59555,note_off,117,0,0,,7,,,79,127
59556,note_on,1,0,0,,7,,,79,127
59567,note_off,11,0,0,,0,,,84,127
59685,note_off,118,0,0,,7,,,79,127
59689,note_on,4,0,0,,5,,,65,127
59689,note_on,0,0,0,,10,,,69,127
59689,note_on,0,0,0,,10,,,81,127
59805,note_off,116,0,0,,10,,,81,127
59807,note_on,2,0,0,,5,,,77,127
59923,note_off,116,0,0,,5,,,77,127
59925,note_on,2,0,0,,2,,,74,127
60041,note_off,116,0,0,,2,,,74,127
60041,note_off,0,0,0,,10,,,69,127
60041,note_off,0,0,0,,5,,,65,127
60043,note_on,2,0,0,,7,,,67,127
60043,note_on,0,0,0,,4,,,64,127
60043,note_on,0,0,0,,0,,,72,127
60159,note_off,116,0,0,,0,,,72,127
60161,note_on,2,0,0,,4,,,76,127
60277,note_off,116,0,0,,4,,,76,127
60279,note_on,2,0,0,,7,,,79,127
60395,note_off,116,0,0,,7,,,79,127
60395,note_off,0,0,0,,4,,,64,127
60395,note_off,0,0,0,,7,,,67,127
60397,note_on,2,0,0,,2,,,62,127
60397,note_on,0,0,0,,5,,,65,127
60397,note_on,0,0,0,,5,,,77,127
60515,note_on,118,0,0,,2,,,74,127
60526,note_off,11,0,0,,5,,,77,127
60631,note_off,105,0,0,,2,,,74,127
60633,note_on,2,0,0,,12,,,71,127
60749,note_off,116,0,0,,12,,,71,127
60749,note_off,0,0,0,,5,,,65,127
60749,note_off,0,0,0,,2,,,62,127
60751,note_on,2,0,0,,0,,,60,127
60751,note_on,0,0,0,,4,,,64,127
60751,note_on,0,0,0,,0,,,72,127
60867,note_off,116,0,0,,0,,,72,127
60869,note_on,2,0,0,,2,,,74,127
60985,note_off,116,0,0,,2,,,74,127
60987,note_on,2,0,0,,4,,,76,127
61103,note_off,116,0,0,,4,,,64,127
61103,note_off,0,0,0,,0,,,60,127
61105,note_on,2,0,0,,5,,,65,127
61105,note_on,0,0,0,,5,,,53,127
61105,note_on,0,0,0,,10,,,69,127
61218,note_off,113,0,0,,4,,,76,127
61222,note_off,4,0,0,,10,,,69,127
61224,note_on,2,0,0,,5,,,77,127
61340,note_off,116,0,0,,5,,,77,127
61342,note_on,2,0,0,,4,,,76,127
61458,note_off,116,0,0,,4,,,76,127
61458,note_off,0,0,0,,5,,,53,127
61458,note_off,0,0,0,,5,,,65,127
61460,note_on,2,0,0,,7,,,55,127
61460,note_on,0,0,0,,2,,,62,127
61460,note_on,0,0,0,,2,,,74,127
61460,note_on,0,0,0,,4,,,76,127
61576,note_off,116,0,0,,4,,,76,127
61576,note_off,0,0,0,,2,,,74,127
61578,note_on,2,0,0,,0,,,72,127
61694,note_off,116,0,0,,0,,,72,127
61696,note_on,2,0,0,,12,,,71,127
61822,note_off,126,0,0,,2,,,62,127
61825,note_off,3,0,0,,12,,,71,127
61830,note_off,5,0,0,,7,,,55,127
61845,note_on,15,0,0,,0,,,48,127
61963,note_on,118,0,0,,4,,,76,127
61963,note_on,0,0,0,,0,,,72,127
62079,note_off,116,0,0,,0,,,72,127
62079,note_off,0,0,0,,4,,,76,127
62081,note_on,2,0,0,,2,,,74,127
62081,note_on,0,0,0,,5,,,77,127
62197,note_off,116,0,0,,5,,,77,127
62197,note_off,0,0,0,,2,,,74,127
62197,note_off,0,0,0,,0,,,48,127
62199,note_on,2,0,0,,0,,,60,127
62199,note_on,0,0,0,,4,,,76,127
62199,note_on,0,0,0,,7,,,79,127
62315,note_off,116,0,0,,7,,,79,127
62315,note_off,0,0,0,,4,,,76,127
62317,note_on,2,0,0,,2,,,74,127
62317,note_on,0,0,0,,5,,,77,127
62433,note_off,116,0,0,,5,,,77,127
62433,note_off,0,0,0,,2,,,74,127
62435,note_on,2,0,0,,4,,,76,127
62435,note_on,0,0,0,,0,,,72,127
62551,note_off,116,0,0,,4,,,76,127
62551,note_off,0,0,0,,0,,,60,127
62553,note_on,2,0,0,,7,,,43,127
62553,note_on,0,0,0,,7,,,67,127
62619,note_off,66,0,0,,0,,,72,127
62669,note_off,50,0,0,,7,,,67,127
62671,note_on,2,0,0,,12,,,71,127
62671,note_on,0,0,0,,2,,,74,127
62787,note_off,116,0,0,,2,,,74,127
62787,note_off,0,0,0,,12,,,71,127
62789,note_on,2,0,0,,4,,,76,127
62789,note_on,0,0,0,,0,,,72,127
62905,note_off,116,0,0,,0,,,72,127
62905,note_off,0,0,0,,4,,,76,127
62905,note_off,0,0,0,,7,,,43,127
62907,note_on,2,0,0,,7,,,55,127
62907,note_on,0,0,0,,5,,,77,127
62907,note_on,0,0,0,,2,,,74,127
63023,note_off,116,0,0,,2,,,74,127
63023,note_off,0,0,0,,5,,,77,127
63025,note_on,2,0,0,,4,,,76,127
63025,note_on,0,0,0,,0,,,72,127
63141,note_off,116,0,0,,0,,,72,127
63141,note_off,0,0,0,,4,,,76,127
63143,note_on,2,0,0,,2,,,74,127
63143,note_on,0,0,0,,12,,,71,127
63260,note_off,117,0,0,,12,,,71,127
63260,note_off,0,0,0,,2,,,74,127
63265,note_off,5,0,0,,7,,,55,127
63269,note_on,4,0,0,,0,,,48,127
63387,note_on,118,0,0,,4,,,64,127
63387,note_on,0,0,0,,0,,,60,127
63503,note_off,116,0,0,,0,,,60,127
63503,note_off,0,0,0,,4,,,64,127
63505,note_on,2,0,0,,5,,,65,127
63505,note_on,0,0,0,,2,,,62,127
63621,note_off,116,0,0,,2,,,62,127
63621,note_off,0,0,0,,5,,,65,127
63621,note_off,0,0,0,,0,,,48,127
63623,note_on,2,0,0,,0,,,60,127
63623,note_on,0,0,0,,4,,,64,127
63623,note_on,0,0,0,,7,,,67,127
63739,note_off,116,0,0,,7,,,67,127
63739,note_off,0,0,0,,4,,,64,127
63741,note_on,2,0,0,,2,,,62,127
63741,note_on,0,0,0,,5,,,65,127
63857,note_off,116,0,0,,5,,,65,127
63857,note_off,0,0,0,,2,,,62,127
63858,note_off,1,0,0,,0,,,60,127
63859,note_on,1,0,0,,4,,,64,127
63859,note_on,0,0,0,,0,,,60,127
63975,note_off,116,0,0,,4,,,64,127
63977,note_on,2,0,0,,7,,,43,127
63977,note_on,0,0,0,,7,,,55,127
64043,note_off,66,0,0,,0,,,60,127
64093,note_off,50,0,0,,7,,,55,127
64095,note_on,2,0,0,,2,,,62,127
64095,note_on,0,0,0,,12,,,59,127
64211,note_off,116,0,0,,12,,,59,127
64211,note_off,0,0,0,,2,,,62,127
64213,note_on,2,0,0,,4,,,64,127
64213,note_on,0,0,0,,0,,,60,127
64329,note_off,116,0,0,,0,,,60,127
64329,note_off,0,0,0,,4,,,64,127
64329,note_off,0,0,0,,7,,,43,127
64331,note_on,2,0,0,,7,,,55,127
64331,note_on,0,0,0,,2,,,62,127
64331,note_on,0,0,0,,5,,,65,127
64447,note_off,116,0,0,,5,,,65,127
64447,note_off,0,0,0,,2,,,62,127
64449,note_on,2,0,0,,4,,,64,127
64449,note_on,0,0,0,,0,,,60,127
64565,note_off,116,0,0,,0,,,60,127
64565,note_off,0,0,0,,4,,,64,127
64567,note_on,2,0,0,,12,,,59,127
64567,note_on,0,0,0,,2,,,62,127
64683,note_off,116,0,0,,7,,,55,127
64684,note_off,1,0,0,,2,,,62,127
64684,note_off,0,0,0,,12,,,59,127
64692,note_on,8,0,0,,0,,,48,127
64810,note_on,118,0,0,,4,,,76,127
64810,note_on,0,0,0,,0,,,72,127
64926,note_off,116,0,0,,0,,,72,127
64926,note_off,0,0,0,,4,,,76,127
64928,note_on,2,0,0,,5,,,77,127
64928,note_on,0,0,0,,2,,,74,127
65044,note_off,116,0,0,,2,,,74,127
65044,note_off,0,0,0,,5,,,77,127
65044,note_off,0,0,0,,0,,,48,127
65046,note_on,2,0,0,,0,,,60,127
65046,note_on,0,0,0,,7,,,79,127
65046,note_on,0,0,0,,4,,,76,127
65162,note_off,116,0,0,,4,,,76,127
65162,note_off,0,0,0,,7,,,79,127
65164,note_on,2,0,0,,5,,,77,127
65164,note_on,0,0,0,,2,,,74,127
65280,note_off,116,0,0,,2,,,74,127
65280,note_off,0,0,0,,5,,,77,127
65282,note_on,2,0,0,,4,,,76,127
65282,note_on,0,0,0,,0,,,72,127
65398,note_off,116,0,0,,4,,,76,127
65398,note_off,0,0,0,,0,,,60,127
65400,note_on,2,0,0,,7,,,43,127
65400,note_on,0,0,0,,7,,,67,127
65466,note_off,66,0,0,,0,,,72,127
65516,note_off,50,0,0,,7,,,67,127
65518,note_on,2,0,0,,2,,,74,127
65518,note_on,0,0,0,,12,,,71,127
65634,note_off,116,0,0,,12,,,71,127
65634,note_off,0,0,0,,2,,,74,127
65636,note_on,2,0,0,,4,,,76,127
65636,note_on,0,0,0,,0,,,72,127
65752,note_off,116,0,0,,0,,,72,127
65752,note_off,0,0,0,,4,,,76,127
65752,note_off,0,0,0,,7,,,43,127
65754,note_on,2,0,0,,7,,,55,127
65754,note_on,0,0,0,,2,,,74,127
65754,note_on,0,0,0,,5,,,77,127
65870,note_off,116,0,0,,5,,,77,127
65870,note_off,0,0,0,,2,,,74,127
65872,note_on,2,0,0,,4,,,76,127
65872,note_on,0,0,0,,0,,,72,127
65988,note_off,116,0,0,,0,,,72,127
65988,note_off,0,0,0,,4,,,76,127
65990,note_on,2,0,0,,12,,,71,127
65990,note_on,0,0,0,,2,,,74,127
66078,note_off,88,0,0,,2,,,74,127
66078,note_off,0,0,0,,12,,,71,127
66107,note_off,29,0,0,,7,,,55,127
66109,note_on,2,0,0,,0,,,60,127
66109,note_on,0,0,0,,0,,,48,127
66109,note_on,0,0,0,,4,,,76,127
66109,note_on,0,0,0,,0,,,72,127
66225,note_off,116,0,0,,4,,,76,127
66227,note_on,2,0,0,,5,,,77,127
66343,note_off,116,0,0,,5,,,77,127
66345,note_on,2,0,0,,7,,,79,127
66461,note_off,116,0,0,,7,,,79,127
66461,note_off,0,0,0,,0,,,48,127
66461,note_off,0,0,0,,0,,,60,127
66462,note_off,1,0,0,,0,,,72,127
66463,note_on,1,0,0,,5,,,65,127
66463,note_on,0,0,0,,5,,,53,127
66463,note_on,0,0,0,,10,,,81,127
66579,note_off,116,0,0,,10,,,81,127
66581,note_on,2,0,0,,12,,,83,127
66697,note_off,116,0,0,,12,,,83,127
66699,note_on,2,0,0,,0,,,84,127
66815,note_off,116,0,0,,0,,,84,127
66815,note_off,0,0,0,,5,,,53,127
66815,note_off,0,0,0,,5,,,65,127
66817,note_on,2,0,0,,7,,,67,127
66817,note_on,0,0,0,,7,,,55,127
66817,note_on,0,0,0,,12,,,83,127
66817,note_on,0,0,0,,0,,,84,127
66933,note_off,116,0,0,,0,,,84,127
66933,note_off,0,0,0,,12,,,83,127
66935,note_on,2,0,0,,10,,,81,127
67051,note_off,116,0,0,,10,,,81,127
67053,note_on,2,0,0,,7,,,79,127
67169,note_off,116,0,0,,7,,,79,127
67169,note_off,0,0,0,,7,,,55,127
67169,note_off,0,0,0,,7,,,67,127
67171,note_on,2,0,0,,7,,,67,127
67171,note_on,0,0,0,,12,,,59,127
67171,note_on,0,0,0,,5,,,77,127
67287,note_off,116,0,0,,5,,,77,127
67289,note_on,2,0,0,,4,,,76,127
67405,note_off,116,0,0,,4,,,76,127
67407,note_on,2,0,0,,2,,,74,127
67520,note_off,113,0,0,,12,,,59,127
67520,note_off,0,0,0,,7,,,67,127
67522,note_on,2,0,0,,0,,,60,127
67522,note_on,0,0,0,,7,,,67,127
67522,note_on,0,0,0,,4,,,76,127
67524,note_off,2,0,0,,2,,,74,127
67644,note_on,120,0,0,,5,,,77,127
67649,note_off,5,0,0,,4,,,76,127
67761,note_off,112,0,0,,5,,,77,127
67763,note_on,2,0,0,,7,,,79,127
67876,note_off,113,0,0,,7,,,67,127
67876,note_off,0,0,0,,0,,,60,127
67880,note_off,4,0,0,,7,,,79,127
67882,note_on,2,0,0,,5,,,65,127
67882,note_on,0,0,0,,5,,,53,127
67882,note_on,0,0,0,,5,,,77,127
67998,note_off,116,0,0,,5,,,77,127
68000,note_on,2,0,0,,7,,,79,127
68116,note_off,116,0,0,,7,,,79,127
68118,note_on,2,0,0,,10,,,81,127
68234,note_off,116,0,0,,10,,,81,127
68234,note_off,0,0,0,,5,,,53,127
68234,note_off,0,0,0,,5,,,65,127
68236,note_on,2,0,0,,7,,,55,127
68236,note_on,0,0,0,,7,,,79,127
68236,note_on,0,0,0,,10,,,81,127
68352,note_off,116,0,0,,10,,,81,127
68352,note_off,0,0,0,,7,,,79,127
68354,note_on,2,0,0,,5,,,77,127
68470,note_off,116,0,0,,5,,,77,127
68472,note_on,2,0,0,,4,,,76,127
68588,note_off,116,0,0,,4,,,76,127
68588,note_off,0,0,0,,7,,,55,127
68590,note_on,2,0,0,,7,,,43,127
68590,note_on,0,0,0,,2,,,74,127
68706,note_off,116,0,0,,2,,,74,127
68708,note_on,2,0,0,,0,,,72,127
68824,note_off,116,0,0,,0,,,72,127
68826,note_on,2,0,0,,12,,,71,127
68909,note_off,83,0,0,,12,,,71,127
68942,note_off,33,0,0,,7,,,43,127
68959,note_on,17,0,0,,0,,,84,127
68959,note_on,0,0,0,,0,,,36,127
69075,note_off,116,0,0,,0,,,84,127
69077,note_on,2,0,0,,7,,,79,127
69193,note_off,116,0,0,,7,,,79,127
69195,note_on,2,0,0,,4,,,76,127
69311,note_off,116,0,0,,4,,,76,127
69313,note_on,2,0,0,,0,,,72,127
69429,note_off,116,0,0,,0,,,72,127
69431,note_on,2,0,0,,7,,,67,127
69547,note_off,116,0,0,,7,,,67,127
69549,note_on,2,0,0,,4,,,64,127
69665,note_off,116,0,0,,4,,,64,127
69667,note_on,2,0,0,,0,,,60,127
69783,note_off,116,0,0,,0,,,60,127
69785,note_on,2,0,0,,7,,,55,127
69901,note_off,116,0,0,,7,,,55,127
69903,note_on,2,0,0,,4,,,52,127
70019,note_off,116,0,0,,4,,,52,127
70019,note_off,0,0,0,,0,,,36,127
70021,note_on,2,0,0,,0,,,48,127
70139,note_on,118,0,0,,7,,,43,127
70255,note_off,116,0,0,,7,,,43,127
70257,note_on,2,0,0,,4,,,40,127
70298,note_off,41,0,0,,0,,,48,127
70374,note_off,76,0,0,,4,,,40,127
70381,note_on,7,0,0,,0,,,36,127
71795,note_off,1414,0,0,,0,,,36,127
75264,end_of_track,3469,1,0,,,,,,
