tick,type,time,meta,track,program,channel,pitch,tempo,note,velocity
0,copyright,0,1,0,,,,,,
0,program_change,0,0,0,6,0,,,,
0,pitchwheel,0,0,0,,0,0,,,
0,program_change,0,0,0,6,1,,,,
0,pitchwheel,0,0,0,,1,-590,,,
0,program_change,0,0,0,6,2,,,,
0,pitchwheel,0,0,0,,2,-272,,,
0,program_change,0,0,0,6,3,,,,
0,pitchwheel,0,0,0,,3,-353,,,
0,program_change,0,0,0,6,4,,,,
0,pitchwheel,0,0,0,,4,-560,,,
0,program_change,0,0,0,6,5,,,,
0,pitchwheel,0,0,0,,5,-80,,,
0,program_change,0,0,0,6,6,,,,
0,pitchwheel,0,0,0,,6,-625,,,
0,program_change,0,0,0,6,7,,,,
0,pitchwheel,0,0,0,,7,-130,,,
0,program_change,0,0,0,6,8,,,,
0,pitchwheel,0,0,0,,8,-512,,,
0,program_change,0,0,0,6,10,,,,
0,pitchwheel,0,0,0,,10,-464,,,
0,program_change,0,0,0,6,11,,,,
0,pitchwheel,0,0,0,,11,-208,,,
0,program_change,0,0,0,6,12,,,,
0,pitchwheel,0,0,0,,12,-553,,,
0,set_tempo,0,1,0,,,,500000,,
136,note_on,136,0,0,,10,,,57,127
136,note_on,0,0,0,,10,,,81,127
269,note_off,133,0,0,,10,,,81,127
272,note_on,3,0,0,,4,,,76,127
340,note_on,68,0,0,,1,,,73,127
346,note_off,6,0,0,,4,,,76,127
408,note_on,62,0,0,,10,,,69,127
414,note_off,6,0,0,,1,,,73,127
677,note_off,263,0,0,,10,,,69,127
680,note_on,3,0,0,,8,,,68,127
680,note_on,0,0,0,,12,,,71,127
920,note_off,240,0,0,,12,,,71,127
920,note_off,0,0,0,,8,,,68,127
950,note_off,30,0,0,,10,,,57,127
951,note_on,1,0,0,,10,,,69,127
951,note_on,0,0,0,,10,,,57,127
951,note_on,0,0,0,,10,,,81,127
1084,note_off,133,0,0,,10,,,81,127
1087,note_on,3,0,0,,4,,,76,127
1155,note_on,68,0,0,,1,,,73,127
1161,note_off,6,0,0,,4,,,76,127
1222,note_off,61,0,0,,10,,,69,127
1223,note_on,1,0,0,,10,,,69,127
1229,note_off,6,0,0,,1,,,73,127
1492,note_off,263,0,0,,10,,,69,127
1495,note_on,3,0,0,,8,,,68,127
1495,note_on,0,0,0,,12,,,71,127
1735,note_off,240,0,0,,12,,,71,127
1735,note_off,0,0,0,,8,,,68,127
1765,note_off,30,0,0,,10,,,57,127
1766,note_on,1,0,0,,10,,,57,127
1766,note_on,0,0,0,,10,,,69,127
1766,note_on,0,0,0,,10,,,81,127
1899,note_off,133,0,0,,10,,,81,127
1902,note_on,3,0,0,,4,,,76,127
1970,note_on,68,0,0,,1,,,73,127
1976,note_off,6,0,0,,4,,,76,127
2037,note_off,61,0,0,,10,,,69,127
2038,note_on,1,0,0,,10,,,69,127
2044,note_off,6,0,0,,1,,,73,127
2307,note_off,263,0,0,,10,,,69,127
2310,note_on,3,0,0,,8,,,68,127
2310,note_on,0,0,0,,12,,,71,127
2578,note_off,268,0,0,,12,,,71,127
2578,note_off,0,0,0,,8,,,68,127
2579,note_off,1,0,0,,10,,,57,127
2580,note_on,1,0,0,,8,,,68,127
2580,note_on,0,0,0,,10,,,57,127
2580,note_on,0,0,0,,12,,,71,127
2848,note_off,268,0,0,,12,,,71,127
2848,note_off,0,0,0,,8,,,68,127
2851,note_on,3,0,0,,10,,,69,127
2851,note_on,0,0,0,,1,,,73,127
3331,note_off,480,0,0,,1,,,73,127
3331,note_off,0,0,0,,10,,,69,127
3392,note_off,61,0,0,,10,,,57,127
3393,note_on,1,0,0,,10,,,69,127
3393,note_on,0,0,0,,1,,,73,127
3526,note_off,133,0,0,,1,,,73,127
3529,note_on,3,0,0,,2,,,74,127
3662,note_off,133,0,0,,2,,,74,127
3662,note_off,0,0,0,,10,,,69,127
3665,note_on,3,0,0,,12,,,71,127
3665,note_on,0,0,0,,2,,,74,127
3798,note_off,133,0,0,,2,,,74,127
3801,note_on,3,0,0,,4,,,76,127
3934,note_off,133,0,0,,4,,,76,127
3934,note_off,0,0,0,,12,,,71,127
3937,note_on,3,0,0,,1,,,73,127
3937,note_on,0,0,0,,4,,,76,127
4070,note_off,133,0,0,,4,,,76,127
4073,note_on,3,0,0,,6,,,78,127
4206,note_off,133,0,0,,6,,,78,127
4206,note_off,0,0,0,,1,,,73,127
4209,note_on,3,0,0,,2,,,74,127
4209,note_on,0,0,0,,6,,,78,127
4342,note_off,133,0,0,,6,,,78,127
4345,note_on,3,0,0,,8,,,80,127
4478,note_off,133,0,0,,8,,,80,127
4478,note_off,0,0,0,,2,,,74,127
4481,note_on,3,0,0,,12,,,71,127
4481,note_on,0,0,0,,8,,,80,127
4614,note_off,133,0,0,,8,,,80,127
4617,note_on,3,0,0,,10,,,81,127
4750,note_off,133,0,0,,10,,,81,127
4750,note_off,0,0,0,,12,,,71,127
4753,note_on,3,0,0,,1,,,73,127
4753,note_on,0,0,0,,10,,,81,127
4886,note_off,133,0,0,,10,,,81,127
4889,note_on,3,0,0,,12,,,83,127
5022,note_off,133,0,0,,12,,,83,127
5022,note_off,0,0,0,,1,,,73,127
5025,note_on,3,0,0,,8,,,68,127
5025,note_on,0,0,0,,12,,,83,127
5158,note_off,133,0,0,,12,,,83,127
5161,note_on,3,0,0,,4,,,76,127
5294,note_off,133,0,0,,4,,,76,127
5297,note_on,3,0,0,,4,,,76,127
5430,note_off,133,0,0,,4,,,76,127
5433,note_on,3,0,0,,2,,,74,127
5566,note_off,133,0,0,,2,,,74,127
5566,note_off,0,0,0,,8,,,68,127
5569,note_on,3,0,0,,4,,,64,127
5569,note_on,0,0,0,,1,,,73,127
5702,note_off,133,0,0,,1,,,73,127
5705,note_on,3,0,0,,2,,,74,127
5838,note_off,133,0,0,,2,,,74,127
5838,note_off,0,0,0,,4,,,64,127
5841,note_on,3,0,0,,10,,,69,127
5841,note_on,0,0,0,,2,,,74,127
6109,note_off,268,0,0,,2,,,74,127
6112,note_on,3,0,0,,1,,,73,127
6383,note_on,271,0,0,,10,,,57,127
6651,note_off,268,0,0,,10,,,57,127
6651,note_off,0,0,0,,1,,,73,127
6652,note_off,1,0,0,,10,,,69,127
6653,note_on,1,0,0,,10,,,69,127
6653,note_on,0,0,0,,1,,,73,127
6786,note_off,133,0,0,,1,,,73,127
6789,note_on,3,0,0,,2,,,74,127
6922,note_off,133,0,0,,2,,,74,127
6922,note_off,0,0,0,,10,,,69,127
6925,note_on,3,0,0,,12,,,71,127
6925,note_on,0,0,0,,2,,,74,127
7058,note_off,133,0,0,,2,,,74,127
7061,note_on,3,0,0,,4,,,76,127
7194,note_off,133,0,0,,4,,,76,127
7194,note_off,0,0,0,,12,,,71,127
7197,note_on,3,0,0,,1,,,73,127
7197,note_on,0,0,0,,4,,,76,127
7330,note_off,133,0,0,,4,,,76,127
7333,note_on,3,0,0,,6,,,78,127
7466,note_off,133,0,0,,6,,,78,127
7466,note_off,0,0,0,,1,,,73,127
7469,note_on,3,0,0,,2,,,74,127
7469,note_on,0,0,0,,6,,,78,127
7602,note_off,133,0,0,,6,,,78,127
7605,note_on,3,0,0,,8,,,80,127
7738,note_off,133,0,0,,8,,,80,127
7738,note_off,0,0,0,,2,,,74,127
7741,note_on,3,0,0,,12,,,71,127
7741,note_on,0,0,0,,8,,,80,127
7874,note_off,133,0,0,,8,,,80,127
7877,note_on,3,0,0,,10,,,81,127
8010,note_off,133,0,0,,10,,,81,127
8010,note_off,0,0,0,,12,,,71,127
8013,note_on,3,0,0,,1,,,73,127
8013,note_on,0,0,0,,10,,,81,127
8146,note_off,133,0,0,,10,,,81,127
8149,note_on,3,0,0,,12,,,83,127
8282,note_off,133,0,0,,12,,,83,127
8282,note_off,0,0,0,,1,,,73,127
8285,note_on,3,0,0,,8,,,68,127
8285,note_on,0,0,0,,12,,,83,127
8418,note_off,133,0,0,,12,,,83,127
8421,note_on,3,0,0,,4,,,76,127
8554,note_off,133,0,0,,4,,,76,127
8557,note_on,3,0,0,,4,,,76,127
8690,note_off,133,0,0,,4,,,76,127
8693,note_on,3,0,0,,2,,,74,127
8826,note_off,133,0,0,,2,,,74,127
8826,note_off,0,0,0,,8,,,68,127
8829,note_on,3,0,0,,4,,,64,127
8829,note_on,0,0,0,,1,,,73,127
8962,note_off,133,0,0,,1,,,73,127
8965,note_on,3,0,0,,2,,,74,127
9098,note_off,133,0,0,,2,,,74,127
9098,note_off,0,0,0,,4,,,64,127
9101,note_on,3,0,0,,10,,,69,127
9101,note_on,0,0,0,,2,,,74,127
9369,note_off,268,0,0,,2,,,74,127
9372,note_on,3,0,0,,1,,,73,127
9643,note_on,271,0,0,,10,,,57,127
9779,note_off,136,0,0,,1,,,73,127
9946,note_off,167,0,0,,10,,,57,127
9949,note_off,3,0,0,,10,,,69,127
9949,note_on,0,0,0,,10,,,81,127
9949,note_on,0,0,0,,10,,,57,127
10017,note_on,68,0,0,,4,,,76,127
10023,note_off,6,0,0,,10,,,81,127
10085,note_on,62,0,0,,1,,,73,127
10091,note_off,6,0,0,,4,,,76,127
10153,note_on,62,0,0,,10,,,69,127
10159,note_off,6,0,0,,1,,,73,127
10221,note_on,62,0,0,,1,,,73,127
10227,note_off,6,0,0,,10,,,69,127
10289,note_on,62,0,0,,10,,,69,127
10295,note_off,6,0,0,,1,,,73,127
10357,note_on,62,0,0,,4,,,64,127
10363,note_off,6,0,0,,10,,,69,127
10425,note_on,62,0,0,,1,,,61,127
10431,note_off,6,0,0,,4,,,64,127
10490,note_off,59,0,0,,10,,,57,127
10493,note_on,3,0,0,,10,,,57,127
10493,note_on,0,0,0,,10,,,45,127
10499,note_off,6,0,0,,1,,,61,127
10561,note_on,62,0,0,,1,,,61,127
10567,note_off,6,0,0,,10,,,57,127
10629,note_on,62,0,0,,4,,,64,127
10635,note_off,6,0,0,,1,,,61,127
10697,note_on,62,0,0,,10,,,69,127
10703,note_off,6,0,0,,4,,,64,127
10762,note_off,59,0,0,,10,,,45,127
10765,note_on,3,0,0,,1,,,61,127
10765,note_on,0,0,0,,4,,,40,127
10771,note_off,6,0,0,,10,,,69,127
10966,note_off,195,0,0,,1,,,61,127
10969,note_on,3,0,0,,12,,,59,127
11037,note_on,68,0,0,,1,,,61,127
11043,note_off,6,0,0,,12,,,59,127
11105,note_on,62,0,0,,12,,,59,127
11111,note_off,6,0,0,,1,,,61,127
11173,note_on,62,0,0,,1,,,61,127
11179,note_off,6,0,0,,12,,,59,127
11241,note_on,62,0,0,,12,,,59,127
11247,note_off,6,0,0,,1,,,61,127
11306,note_off,59,0,0,,4,,,40,127
11309,note_on,3,0,0,,1,,,61,127
11309,note_on,0,0,0,,4,,,52,127
11315,note_off,6,0,0,,12,,,59,127
11377,note_on,62,0,0,,12,,,59,127
11383,note_off,6,0,0,,1,,,61,127
11445,note_on,62,0,0,,1,,,61,127
11451,note_off,6,0,0,,12,,,59,127
11513,note_on,62,0,0,,12,,,59,127
11519,note_off,6,0,0,,1,,,61,127
11578,note_off,59,0,0,,4,,,52,127
11579,note_off,1,0,0,,12,,,59,127
11580,note_on,1,0,0,,10,,,81,127
11580,note_on,0,0,0,,10,,,57,127
11648,note_on,68,0,0,,4,,,76,127
11654,note_off,6,0,0,,10,,,81,127
11716,note_on,62,0,0,,1,,,73,127
11722,note_off,6,0,0,,4,,,76,127
11784,note_on,62,0,0,,10,,,69,127
11790,note_off,6,0,0,,1,,,73,127
11852,note_on,62,0,0,,1,,,73,127
11858,note_off,6,0,0,,10,,,69,127
11920,note_on,62,0,0,,10,,,69,127
11926,note_off,6,0,0,,1,,,73,127
11988,note_on,62,0,0,,4,,,64,127
11994,note_off,6,0,0,,10,,,69,127
12056,note_on,62,0,0,,1,,,61,127
12062,note_off,6,0,0,,4,,,64,127
12121,note_off,59,0,0,,10,,,57,127
12124,note_on,3,0,0,,10,,,57,127
12124,note_on,0,0,0,,10,,,45,127
12130,note_off,6,0,0,,1,,,61,127
12192,note_on,62,0,0,,1,,,61,127
12198,note_off,6,0,0,,10,,,57,127
12260,note_on,62,0,0,,4,,,64,127
12266,note_off,6,0,0,,1,,,61,127
12328,note_on,62,0,0,,10,,,69,127
12334,note_off,6,0,0,,4,,,64,127
12393,note_off,59,0,0,,10,,,45,127
12396,note_on,3,0,0,,1,,,61,127
12396,note_on,0,0,0,,4,,,40,127
12402,note_off,6,0,0,,10,,,69,127
12529,note_off,127,0,0,,1,,,61,127
12532,note_on,3,0,0,,12,,,59,127
12596,note_on,64,0,0,,1,,,61,127
12606,note_off,10,0,0,,12,,,59,127
12660,note_on,54,0,0,,12,,,59,127
12670,note_off,10,0,0,,1,,,61,127
12724,note_on,54,0,0,,1,,,61,127
12734,note_off,10,0,0,,12,,,59,127
12788,note_on,54,0,0,,12,,,59,127
12798,note_off,10,0,0,,1,,,61,127
12852,note_on,54,0,0,,1,,,61,127
12862,note_off,10,0,0,,12,,,59,127
12917,note_on,55,0,0,,12,,,59,127
12925,note_off,8,0,0,,1,,,61,127
12938,note_off,13,0,0,,4,,,40,127
12941,note_on,3,0,0,,4,,,52,127
13209,note_off,268,0,0,,4,,,52,127
13212,note_on,3,0,0,,12,,,83,127
13212,note_on,0,0,0,,4,,,52,127
13213,note_off,1,0,0,,12,,,59,127
13344,note_off,131,0,0,,12,,,83,127
13347,note_on,3,0,0,,8,,,80,127
13480,note_off,133,0,0,,8,,,80,127
13480,note_off,0,0,0,,4,,,52,127
13483,note_on,3,0,0,,8,,,80,127
13483,note_on,0,0,0,,8,,,56,127
13616,note_off,133,0,0,,8,,,80,127
13619,note_on,3,0,0,,4,,,76,127
13752,note_off,133,0,0,,4,,,76,127
13752,note_off,0,0,0,,8,,,56,127
13755,note_on,3,0,0,,4,,,76,127
13755,note_on,0,0,0,,10,,,57,127
13888,note_off,133,0,0,,4,,,76,127
13891,note_on,3,0,0,,3,,,75,127
14024,note_off,133,0,0,,3,,,75,127
14024,note_off,0,0,0,,10,,,57,127
14027,note_on,3,0,0,,3,,,75,127
14027,note_on,0,0,0,,12,,,59,127
14160,note_off,133,0,0,,3,,,75,127
14163,note_on,3,0,0,,1,,,73,127
14296,note_off,133,0,0,,1,,,73,127
14299,note_on,3,0,0,,1,,,73,127
14432,note_off,133,0,0,,1,,,73,127
14435,note_on,3,0,0,,12,,,71,127
14568,note_off,133,0,0,,12,,,71,127
14568,note_off,0,0,0,,12,,,59,127
14571,note_on,3,0,0,,12,,,71,127
14571,note_on,0,0,0,,1,,,61,127
14704,note_off,133,0,0,,12,,,71,127
14707,note_on,3,0,0,,11,,,70,127
14840,note_off,133,0,0,,11,,,70,127
14840,note_off,0,0,0,,1,,,61,127
14843,note_on,3,0,0,,11,,,70,127
14843,note_on,0,0,0,,3,,,63,127
14976,note_off,133,0,0,,11,,,70,127
14979,note_on,3,0,0,,12,,,71,127
15112,note_off,133,0,0,,12,,,71,127
15115,note_on,3,0,0,,12,,,71,127
15248,note_off,133,0,0,,12,,,71,127
15251,note_on,3,0,0,,10,,,69,127
15384,note_off,133,0,0,,10,,,69,127
15384,note_off,0,0,0,,3,,,63,127
15387,note_on,3,0,0,,8,,,68,127
15387,note_on,0,0,0,,12,,,59,127
15520,note_off,133,0,0,,8,,,68,127
15523,note_on,3,0,0,,10,,,69,127
15656,note_off,133,0,0,,10,,,69,127
15656,note_off,0,0,0,,12,,,59,127
15659,note_on,3,0,0,,10,,,69,127
15659,note_on,0,0,0,,4,,,52,127
15859,note_off,200,0,0,,10,,,69,127
15860,note_on,1,0,0,,8,,,68,127
15926,note_on,66,0,0,,10,,,69,127
15933,note_off,7,0,0,,8,,,68,127
15992,note_on,59,0,0,,8,,,68,127
15999,note_off,7,0,0,,10,,,69,127
16058,note_on,59,0,0,,10,,,69,127
16065,note_off,7,0,0,,8,,,68,127
16124,note_on,59,0,0,,8,,,68,127
16131,note_off,7,0,0,,10,,,69,127
16190,note_on,59,0,0,,4,,,64,127
16190,note_on,0,0,0,,10,,,69,127
16196,note_off,6,0,0,,4,,,52,127
16197,note_off,1,0,0,,8,,,68,127
16256,note_on,59,0,0,,8,,,68,127
16263,note_off,7,0,0,,10,,,69,127
16322,note_on,59,0,0,,10,,,69,127
16329,note_off,7,0,0,,8,,,68,127
16388,note_on,59,0,0,,8,,,68,127
16395,note_off,7,0,0,,10,,,69,127
16491,note_on,96,0,0,,4,,,52,127
16491,note_on,0,0,0,,12,,,83,127
16495,note_off,4,0,0,,8,,,68,127
16499,note_off,4,0,0,,4,,,64,127
16623,note_off,124,0,0,,12,,,83,127
16626,note_on,3,0,0,,8,,,80,127
16759,note_off,133,0,0,,8,,,80,127
16759,note_off,0,0,0,,4,,,52,127
16762,note_on,3,0,0,,8,,,56,127
16762,note_on,0,0,0,,8,,,80,127
16895,note_off,133,0,0,,8,,,80,127
16898,note_on,3,0,0,,4,,,76,127
17031,note_off,133,0,0,,4,,,76,127
17031,note_off,0,0,0,,8,,,56,127
17034,note_on,3,0,0,,10,,,57,127
17034,note_on,0,0,0,,4,,,76,127
17167,note_off,133,0,0,,4,,,76,127
17170,note_on,3,0,0,,3,,,75,127
17303,note_off,133,0,0,,3,,,75,127
17303,note_off,0,0,0,,10,,,57,127
17306,note_on,3,0,0,,12,,,59,127
17306,note_on,0,0,0,,3,,,75,127
17439,note_off,133,0,0,,3,,,75,127
17442,note_on,3,0,0,,1,,,73,127
17575,note_off,133,0,0,,1,,,73,127
17578,note_on,3,0,0,,1,,,73,127
17711,note_off,133,0,0,,1,,,73,127
17714,note_on,3,0,0,,12,,,71,127
17847,note_off,133,0,0,,12,,,71,127
17847,note_off,0,0,0,,12,,,59,127
17850,note_on,3,0,0,,1,,,61,127
17850,note_on,0,0,0,,12,,,71,127
17983,note_off,133,0,0,,12,,,71,127
17986,note_on,3,0,0,,11,,,70,127
18119,note_off,133,0,0,,11,,,70,127
18119,note_off,0,0,0,,1,,,61,127
18122,note_on,3,0,0,,3,,,63,127
18122,note_on,0,0,0,,11,,,70,127
18255,note_off,133,0,0,,11,,,70,127
18258,note_on,3,0,0,,12,,,71,127
18391,note_off,133,0,0,,12,,,71,127
18394,note_on,3,0,0,,12,,,71,127
18527,note_off,133,0,0,,12,,,71,127
18530,note_on,3,0,0,,10,,,69,127
18663,note_off,133,0,0,,10,,,69,127
18663,note_off,0,0,0,,3,,,63,127
18666,note_on,3,0,0,,12,,,59,127
18666,note_on,0,0,0,,8,,,68,127
18799,note_off,133,0,0,,8,,,68,127
18802,note_on,3,0,0,,10,,,69,127
18935,note_off,133,0,0,,10,,,69,127
18935,note_off,0,0,0,,12,,,59,127
18938,note_on,3,0,0,,4,,,64,127
18938,note_on,0,0,0,,10,,,69,127
19206,note_off,268,0,0,,10,,,69,127
19209,note_on,3,0,0,,8,,,68,127
19277,note_on,68,0,0,,10,,,69,127
19283,note_off,6,0,0,,8,,,68,127
19345,note_on,62,0,0,,8,,,68,127
19351,note_off,6,0,0,,10,,,69,127
19413,note_on,62,0,0,,10,,,69,127
19419,note_off,6,0,0,,8,,,68,127
19478,note_off,59,0,0,,4,,,64,127
19481,note_on,3,0,0,,4,,,52,127
19481,note_on,0,0,0,,8,,,68,127
19487,note_off,6,0,0,,10,,,69,127
19752,note_off,265,0,0,,4,,,52,127
19762,note_off,10,0,0,,8,,,68,127
19775,note_on,13,0,0,,12,,,71,127
19775,note_on,0,0,0,,12,,,59,127
19908,note_off,133,0,0,,12,,,59,127
19908,note_off,0,0,0,,12,,,71,127
19911,note_on,3,0,0,,2,,,74,127
19911,note_on,0,0,0,,2,,,62,127
20044,note_off,133,0,0,,2,,,62,127
20044,note_off,0,0,0,,2,,,74,127
20047,note_on,3,0,0,,0,,,72,127
20047,note_on,0,0,0,,0,,,60,127
20180,note_off,133,0,0,,0,,,60,127
20180,note_off,0,0,0,,0,,,72,127
20183,note_on,3,0,0,,8,,,68,127
20183,note_on,0,0,0,,8,,,56,127
20316,note_off,133,0,0,,8,,,56,127
20316,note_off,0,0,0,,8,,,68,127
20319,note_on,3,0,0,,10,,,69,127
20319,note_on,0,0,0,,10,,,57,127
20452,note_off,133,0,0,,10,,,57,127
20452,note_off,0,0,0,,10,,,69,127
20455,note_on,3,0,0,,0,,,72,127
20455,note_on,0,0,0,,0,,,60,127
20588,note_off,133,0,0,,0,,,60,127
20588,note_off,0,0,0,,0,,,72,127
20591,note_on,3,0,0,,12,,,71,127
20591,note_on,0,0,0,,12,,,59,127
20724,note_off,133,0,0,,12,,,59,127
20724,note_off,0,0,0,,12,,,71,127
20727,note_on,3,0,0,,4,,,76,127
20727,note_on,0,0,0,,4,,,64,127
20860,note_off,133,0,0,,4,,,64,127
20860,note_off,0,0,0,,4,,,76,127
20863,note_on,3,0,0,,3,,,75,127
20863,note_on,0,0,0,,3,,,63,127
20996,note_off,133,0,0,,3,,,63,127
20996,note_off,0,0,0,,3,,,75,127
20999,note_on,3,0,0,,6,,,78,127
20999,note_on,0,0,0,,6,,,66,127
21132,note_off,133,0,0,,6,,,66,127
21132,note_off,0,0,0,,6,,,78,127
21135,note_on,3,0,0,,7,,,79,127
21135,note_on,0,0,0,,7,,,67,127
21268,note_off,133,0,0,,7,,,67,127
21268,note_off,0,0,0,,7,,,79,127
21271,note_on,3,0,0,,11,,,82,127
21271,note_on,0,0,0,,11,,,70,127
21404,note_off,133,0,0,,11,,,70,127
21404,note_off,0,0,0,,11,,,82,127
21407,note_on,3,0,0,,12,,,83,127
21407,note_on,0,0,0,,12,,,71,127
21540,note_off,133,0,0,,12,,,71,127
21540,note_off,0,0,0,,12,,,83,127
21543,note_on,3,0,0,,6,,,78,127
21543,note_on,0,0,0,,6,,,66,127
21676,note_off,133,0,0,,6,,,66,127
21676,note_off,0,0,0,,6,,,78,127
21679,note_on,3,0,0,,7,,,79,127
21679,note_on,0,0,0,,7,,,67,127
21812,note_off,133,0,0,,7,,,67,127
21812,note_off,0,0,0,,7,,,79,127
21815,note_on,3,0,0,,3,,,75,127
21815,note_on,0,0,0,,3,,,63,127
21948,note_off,133,0,0,,3,,,63,127
21948,note_off,0,0,0,,3,,,75,127
21951,note_on,3,0,0,,4,,,76,127
21951,note_on,0,0,0,,4,,,64,127
22084,note_off,133,0,0,,4,,,64,127
22084,note_off,0,0,0,,4,,,76,127
22087,note_on,3,0,0,,0,,,72,127
22087,note_on,0,0,0,,0,,,60,127
22220,note_off,133,0,0,,0,,,60,127
22220,note_off,0,0,0,,0,,,72,127
22223,note_on,3,0,0,,0,,,72,127
22223,note_on,0,0,0,,12,,,59,127
22356,note_off,133,0,0,,0,,,72,127
22359,note_on,3,0,0,,12,,,71,127
22427,note_on,68,0,0,,0,,,72,127
22433,note_off,6,0,0,,12,,,71,127
22495,note_on,62,0,0,,12,,,71,127
22501,note_off,6,0,0,,0,,,72,127
22563,note_on,62,0,0,,0,,,72,127
22569,note_off,6,0,0,,12,,,71,127
22631,note_on,62,0,0,,12,,,71,127
22637,note_off,6,0,0,,0,,,72,127
22699,note_on,62,0,0,,0,,,72,127
22705,note_off,6,0,0,,12,,,71,127
22767,note_on,62,0,0,,12,,,71,127
22773,note_off,6,0,0,,0,,,72,127
22835,note_on,62,0,0,,0,,,72,127
22841,note_off,6,0,0,,12,,,71,127
22903,note_on,62,0,0,,12,,,71,127
22909,note_off,6,0,0,,0,,,72,127
22971,note_on,62,0,0,,0,,,72,127
22977,note_off,6,0,0,,12,,,71,127
23036,note_off,59,0,0,,12,,,59,127
23039,note_on,3,0,0,,12,,,71,127
23039,note_on,0,0,0,,12,,,59,127
23045,note_off,6,0,0,,0,,,72,127
23172,note_off,127,0,0,,12,,,59,127
23172,note_off,0,0,0,,12,,,71,127
23175,note_on,3,0,0,,2,,,74,127
23175,note_on,0,0,0,,2,,,62,127
23308,note_off,133,0,0,,2,,,62,127
23308,note_off,0,0,0,,2,,,74,127
23311,note_on,3,0,0,,0,,,72,127
23311,note_on,0,0,0,,0,,,60,127
23444,note_off,133,0,0,,0,,,60,127
23444,note_off,0,0,0,,0,,,72,127
23447,note_on,3,0,0,,8,,,68,127
23447,note_on,0,0,0,,8,,,56,127
23580,note_off,133,0,0,,8,,,56,127
23580,note_off,0,0,0,,8,,,68,127
23583,note_on,3,0,0,,10,,,69,127
23583,note_on,0,0,0,,10,,,57,127
23716,note_off,133,0,0,,10,,,57,127
23716,note_off,0,0,0,,10,,,69,127
23719,note_on,3,0,0,,0,,,72,127
23719,note_on,0,0,0,,0,,,60,127
23852,note_off,133,0,0,,0,,,60,127
23852,note_off,0,0,0,,0,,,72,127
23855,note_on,3,0,0,,12,,,71,127
23855,note_on,0,0,0,,12,,,59,127
23988,note_off,133,0,0,,12,,,59,127
23988,note_off,0,0,0,,12,,,71,127
23991,note_on,3,0,0,,4,,,76,127
23991,note_on,0,0,0,,4,,,64,127
24124,note_off,133,0,0,,4,,,64,127
24124,note_off,0,0,0,,4,,,76,127
24127,note_on,3,0,0,,3,,,75,127
24127,note_on,0,0,0,,3,,,63,127
24260,note_off,133,0,0,,3,,,63,127
24260,note_off,0,0,0,,3,,,75,127
24263,note_on,3,0,0,,6,,,78,127
24263,note_on,0,0,0,,6,,,66,127
24396,note_off,133,0,0,,6,,,66,127
24396,note_off,0,0,0,,6,,,78,127
24399,note_on,3,0,0,,7,,,79,127
24399,note_on,0,0,0,,7,,,67,127
24532,note_off,133,0,0,,7,,,67,127
24532,note_off,0,0,0,,7,,,79,127
24535,note_on,3,0,0,,11,,,82,127
24535,note_on,0,0,0,,11,,,70,127
24668,note_off,133,0,0,,11,,,70,127
24668,note_off,0,0,0,,11,,,82,127
24671,note_on,3,0,0,,12,,,83,127
24671,note_on,0,0,0,,12,,,71,127
24804,note_off,133,0,0,,12,,,71,127
24804,note_off,0,0,0,,12,,,83,127
24807,note_on,3,0,0,,6,,,78,127
24807,note_on,0,0,0,,6,,,66,127
24940,note_off,133,0,0,,6,,,66,127
24940,note_off,0,0,0,,6,,,78,127
24943,note_on,3,0,0,,7,,,79,127
24943,note_on,0,0,0,,7,,,67,127
25076,note_off,133,0,0,,7,,,67,127
25076,note_off,0,0,0,,7,,,79,127
25079,note_on,3,0,0,,3,,,75,127
25079,note_on,0,0,0,,3,,,63,127
25212,note_off,133,0,0,,3,,,63,127
25212,note_off,0,0,0,,3,,,75,127
25215,note_on,3,0,0,,4,,,76,127
25215,note_on,0,0,0,,4,,,64,127
25348,note_off,133,0,0,,4,,,64,127
25348,note_off,0,0,0,,4,,,76,127
25351,note_on,3,0,0,,0,,,72,127
25351,note_on,0,0,0,,0,,,60,127
25484,note_off,133,0,0,,0,,,60,127
25484,note_off,0,0,0,,0,,,72,127
25487,note_on,3,0,0,,12,,,71,127
25487,note_on,0,0,0,,12,,,59,127
25620,note_off,133,0,0,,12,,,59,127
25620,note_off,0,0,0,,12,,,71,127
25623,note_on,3,0,0,,6,,,66,127
25623,note_on,0,0,0,,6,,,54,127
25756,note_off,133,0,0,,6,,,54,127
25756,note_off,0,0,0,,6,,,66,127
25759,note_on,3,0,0,,7,,,67,127
25759,note_on,0,0,0,,7,,,55,127
25892,note_off,133,0,0,,7,,,55,127
25892,note_off,0,0,0,,7,,,67,127
25895,note_on,3,0,0,,3,,,63,127
25895,note_on,0,0,0,,3,,,51,127
26028,note_off,133,0,0,,3,,,51,127
26028,note_off,0,0,0,,3,,,63,127
26031,note_on,3,0,0,,4,,,64,127
26031,note_on,0,0,0,,4,,,52,127
26164,note_off,133,0,0,,4,,,52,127
26164,note_off,0,0,0,,4,,,64,127
26167,note_on,3,0,0,,0,,,60,127
26167,note_on,0,0,0,,0,,,48,127
26300,note_off,133,0,0,,0,,,48,127
26300,note_off,0,0,0,,0,,,60,127
26303,note_on,3,0,0,,0,,,60,127
26303,note_on,0,0,0,,12,,,47,127
26436,note_off,133,0,0,,0,,,60,127
26439,note_on,3,0,0,,12,,,59,127
26500,note_on,61,0,0,,0,,,60,127
26513,note_off,13,0,0,,12,,,59,127
26561,note_on,48,0,0,,12,,,59,127
26574,note_off,13,0,0,,0,,,60,127
26622,note_on,48,0,0,,0,,,60,127
26635,note_off,13,0,0,,12,,,59,127
26683,note_on,48,0,0,,12,,,59,127
26696,note_off,13,0,0,,0,,,60,127
26744,note_on,48,0,0,,0,,,60,127
26757,note_off,13,0,0,,12,,,59,127
26805,note_on,48,0,0,,12,,,59,127
26818,note_off,13,0,0,,0,,,60,127
27116,note_off,298,0,0,,12,,,59,127
27116,note_off,0,0,0,,12,,,47,127
27141,note_on,25,0,0,,8,,,44,127
27141,note_on,0,0,0,,12,,,83,127
27209,note_on,68,0,0,,10,,,81,127
27215,note_off,6,0,0,,12,,,83,127
27277,note_on,62,0,0,,8,,,80,127
27283,note_off,6,0,0,,10,,,81,127
27345,note_on,62,0,0,,6,,,78,127
27351,note_off,6,0,0,,8,,,80,127
27413,note_on,62,0,0,,4,,,76,127
27419,note_off,6,0,0,,6,,,78,127
27481,note_on,62,0,0,,3,,,75,127
27487,note_off,6,0,0,,4,,,76,127
27549,note_on,62,0,0,,1,,,73,127
27555,note_off,6,0,0,,3,,,75,127
27617,note_on,62,0,0,,12,,,71,127
27623,note_off,6,0,0,,1,,,73,127
27682,note_off,59,0,0,,8,,,44,127
27685,note_on,3,0,0,,8,,,56,127
27685,note_on,0,0,0,,10,,,69,127
27691,note_off,6,0,0,,12,,,71,127
27753,note_on,62,0,0,,8,,,68,127
27759,note_off,6,0,0,,10,,,69,127
27821,note_on,62,0,0,,6,,,66,127
27827,note_off,6,0,0,,8,,,68,127
27889,note_on,62,0,0,,4,,,64,127
27895,note_off,6,0,0,,6,,,66,127
27954,note_off,59,0,0,,8,,,56,127
27957,note_on,3,0,0,,10,,,57,127
27957,note_on,0,0,0,,1,,,73,127
27963,note_off,6,0,0,,4,,,64,127
28090,note_off,127,0,0,,1,,,73,127
28093,note_on,3,0,0,,4,,,64,127
28226,note_off,133,0,0,,4,,,64,127
28226,note_off,0,0,0,,10,,,57,127
28229,note_on,3,0,0,,6,,,54,127
28229,note_on,0,0,0,,3,,,63,127
28362,note_off,133,0,0,,3,,,63,127
28365,note_on,3,0,0,,6,,,66,127
28498,note_off,133,0,0,,6,,,66,127
28498,note_off,0,0,0,,6,,,54,127
28501,note_on,3,0,0,,8,,,56,127
28501,note_on,0,0,0,,4,,,64,127
28634,note_off,133,0,0,,4,,,64,127
28637,note_on,3,0,0,,8,,,68,127
28770,note_off,133,0,0,,8,,,68,127
28770,note_off,0,0,0,,8,,,56,127
28773,note_on,3,0,0,,10,,,57,127
28773,note_on,0,0,0,,6,,,66,127
28906,note_off,133,0,0,,6,,,66,127
28909,note_on,3,0,0,,1,,,73,127
29042,note_off,133,0,0,,1,,,73,127
29042,note_off,0,0,0,,10,,,57,127
29045,note_on,3,0,0,,12,,,59,127
29045,note_on,0,0,0,,12,,,71,127
29178,note_off,133,0,0,,12,,,71,127
29181,note_on,3,0,0,,10,,,69,127
29314,note_off,133,0,0,,10,,,69,127
29314,note_off,0,0,0,,12,,,59,127
29317,note_on,3,0,0,,10,,,57,127
29317,note_on,0,0,0,,8,,,68,127
29450,note_off,133,0,0,,8,,,68,127
29453,note_on,3,0,0,,6,,,66,127
29574,note_off,121,0,0,,6,,,66,127
29585,note_off,11,0,0,,10,,,57,127
29605,note_on,20,0,0,,8,,,44,127
29605,note_on,0,0,0,,12,,,83,127
29678,note_on,73,0,0,,10,,,81,127
29685,note_off,7,0,0,,12,,,83,127
29746,note_on,61,0,0,,8,,,80,127
29752,note_off,6,0,0,,10,,,81,127
29814,note_on,62,0,0,,6,,,78,127
29820,note_off,6,0,0,,8,,,80,127
29882,note_on,62,0,0,,4,,,76,127
29888,note_off,6,0,0,,6,,,78,127
29950,note_on,62,0,0,,3,,,75,127
29956,note_off,6,0,0,,4,,,76,127
30018,note_on,62,0,0,,1,,,73,127
30024,note_off,6,0,0,,3,,,75,127
30086,note_on,62,0,0,,12,,,71,127
30092,note_off,6,0,0,,1,,,73,127
30146,note_off,54,0,0,,8,,,44,127
30154,note_on,8,0,0,,10,,,69,127
30154,note_on,0,0,0,,8,,,56,127
30160,note_off,6,0,0,,12,,,71,127
30222,note_on,62,0,0,,8,,,68,127
30228,note_off,6,0,0,,10,,,69,127
30290,note_on,62,0,0,,6,,,66,127
30296,note_off,6,0,0,,8,,,68,127
30358,note_on,62,0,0,,4,,,64,127
30364,note_off,6,0,0,,6,,,66,127
30423,note_off,59,0,0,,8,,,56,127
30426,note_on,3,0,0,,1,,,73,127
30426,note_on,0,0,0,,10,,,57,127
30432,note_off,6,0,0,,4,,,64,127
30559,note_off,127,0,0,,1,,,73,127
30562,note_on,3,0,0,,4,,,64,127
30695,note_off,133,0,0,,4,,,64,127
30695,note_off,0,0,0,,10,,,57,127
30698,note_on,3,0,0,,3,,,63,127
30698,note_on,0,0,0,,6,,,54,127
30831,note_off,133,0,0,,3,,,63,127
30834,note_on,3,0,0,,6,,,66,127
30967,note_off,133,0,0,,6,,,66,127
30967,note_off,0,0,0,,6,,,54,127
30970,note_on,3,0,0,,4,,,64,127
30970,note_on,0,0,0,,8,,,56,127
31103,note_off,133,0,0,,4,,,64,127
31106,note_on,3,0,0,,8,,,68,127
31239,note_off,133,0,0,,8,,,68,127
31239,note_off,0,0,0,,8,,,56,127
31242,note_on,3,0,0,,6,,,66,127
31242,note_on,0,0,0,,10,,,57,127
31375,note_off,133,0,0,,6,,,66,127
31378,note_on,3,0,0,,1,,,73,127
31511,note_off,133,0,0,,1,,,73,127
31511,note_off,0,0,0,,10,,,57,127
31514,note_on,3,0,0,,12,,,71,127
31514,note_on,0,0,0,,12,,,59,127
31647,note_off,133,0,0,,12,,,71,127
31650,note_on,3,0,0,,10,,,69,127
31783,note_off,133,0,0,,10,,,69,127
31786,note_on,3,0,0,,8,,,68,127
31786,note_on,0,0,0,,12,,,47,127
31919,note_off,133,0,0,,8,,,68,127
31922,note_on,3,0,0,,6,,,66,127
32052,note_off,130,0,0,,12,,,59,127
32055,note_off,3,0,0,,6,,,66,127
32055,note_off,0,0,0,,12,,,47,127
32058,note_on,3,0,0,,4,,,64,127
32058,note_on,0,0,0,,4,,,52,127
32191,note_off,133,0,0,,4,,,52,127
32194,note_on,3,0,0,,8,,,56,127
32327,note_off,133,0,0,,8,,,56,127
32330,note_on,3,0,0,,12,,,59,127
32463,note_off,133,0,0,,12,,,59,127
32463,note_off,0,0,0,,4,,,64,127
32466,note_on,3,0,0,,4,,,64,127
32599,note_off,133,0,0,,4,,,64,127
32602,note_on,3,0,0,,12,,,83,127
32602,note_on,0,0,0,,8,,,68,127
32735,note_off,133,0,0,,8,,,68,127
32738,note_on,3,0,0,,12,,,71,127
32871,note_off,133,0,0,,12,,,71,127
32874,note_on,3,0,0,,12,,,47,127
33007,note_off,133,0,0,,12,,,83,127
33010,note_on,3,0,0,,10,,,81,127
33143,note_off,133,0,0,,10,,,81,127
33146,note_on,3,0,0,,6,,,78,127
33279,note_off,133,0,0,,6,,,78,127
33282,note_on,3,0,0,,3,,,75,127
33415,note_off,133,0,0,,3,,,75,127
33418,note_on,3,0,0,,12,,,71,127
33551,note_off,133,0,0,,12,,,71,127
33554,note_on,3,0,0,,10,,,81,127
33687,note_off,133,0,0,,10,,,81,127
33687,note_off,0,0,0,,12,,,47,127
33690,note_on,3,0,0,,10,,,81,127
33690,note_on,0,0,0,,4,,,52,127
33823,note_off,133,0,0,,4,,,52,127
33826,note_on,3,0,0,,8,,,56,127
33959,note_off,133,0,0,,8,,,56,127
33959,note_off,0,0,0,,10,,,81,127
33962,note_on,3,0,0,,8,,,80,127
33962,note_on,0,0,0,,12,,,59,127
34095,note_off,133,0,0,,12,,,59,127
34098,note_on,3,0,0,,4,,,64,127
34202,note_off,104,0,0,,8,,,80,127
34230,note_off,28,0,0,,4,,,64,127
34233,note_on,3,0,0,,12,,,83,127
34233,note_on,0,0,0,,8,,,68,127
34366,note_off,133,0,0,,8,,,68,127
34369,note_on,3,0,0,,12,,,71,127
34502,note_off,133,0,0,,12,,,71,127
34505,note_on,3,0,0,,12,,,47,127
34638,note_off,133,0,0,,12,,,83,127
34641,note_on,3,0,0,,10,,,81,127
34774,note_off,133,0,0,,10,,,81,127
34777,note_on,3,0,0,,6,,,78,127
34910,note_off,133,0,0,,6,,,78,127
34913,note_on,3,0,0,,3,,,75,127
35046,note_off,133,0,0,,3,,,75,127
35049,note_on,3,0,0,,12,,,71,127
35182,note_off,133,0,0,,12,,,71,127
35185,note_on,3,0,0,,10,,,81,127
35318,note_off,133,0,0,,10,,,81,127
35318,note_off,0,0,0,,12,,,47,127
35321,note_on,3,0,0,,10,,,81,127
35321,note_on,0,0,0,,4,,,52,127
35454,note_off,133,0,0,,4,,,52,127
35457,note_on,3,0,0,,8,,,56,127
35590,note_off,133,0,0,,8,,,56,127
35590,note_off,0,0,0,,10,,,81,127
35593,note_on,3,0,0,,8,,,80,127
35593,note_on,0,0,0,,12,,,59,127
35726,note_off,133,0,0,,12,,,59,127
35729,note_on,3,0,0,,4,,,64,127
35833,note_off,104,0,0,,8,,,80,127
35861,note_off,28,0,0,,4,,,64,127
35864,note_on,3,0,0,,12,,,83,127
35864,note_on,0,0,0,,8,,,68,127
35997,note_off,133,0,0,,8,,,68,127
36000,note_on,3,0,0,,12,,,71,127
36133,note_off,133,0,0,,12,,,71,127
36136,note_on,3,0,0,,12,,,47,127
36269,note_off,133,0,0,,12,,,83,127
36272,note_on,3,0,0,,10,,,81,127
36405,note_off,133,0,0,,10,,,81,127
36408,note_on,3,0,0,,6,,,78,127
36541,note_off,133,0,0,,6,,,78,127
36544,note_on,3,0,0,,3,,,75,127
36677,note_off,133,0,0,,3,,,75,127
36680,note_on,3,0,0,,12,,,71,127
36813,note_off,133,0,0,,12,,,71,127
36816,note_on,3,0,0,,10,,,81,127
36901,note_off,85,0,0,,12,,,47,127
36949,note_off,48,0,0,,10,,,81,127
36952,note_on,3,0,0,,8,,,80,127
36952,note_on,0,0,0,,4,,,52,127
37085,note_off,133,0,0,,8,,,80,127
37088,note_on,3,0,0,,12,,,83,127
37221,note_off,133,0,0,,12,,,83,127
37221,note_off,0,0,0,,4,,,52,127
37224,note_on,3,0,0,,3,,,75,127
37224,note_on,0,0,0,,6,,,54,127
37357,note_off,133,0,0,,3,,,75,127
37360,note_on,3,0,0,,6,,,78,127
37493,note_off,133,0,0,,6,,,78,127
37493,note_off,0,0,0,,6,,,54,127
37496,note_on,3,0,0,,4,,,76,127
37496,note_on,0,0,0,,8,,,56,127
37629,note_off,133,0,0,,4,,,76,127
37632,note_on,3,0,0,,8,,,80,127
37765,note_off,133,0,0,,8,,,80,127
37765,note_off,0,0,0,,8,,,56,127
37768,note_on,3,0,0,,6,,,78,127
37768,note_on,0,0,0,,10,,,57,127
37901,note_off,133,0,0,,6,,,78,127
37904,note_on,3,0,0,,1,,,85,127
38037,note_off,133,0,0,,1,,,85,127
38037,note_off,0,0,0,,10,,,57,127
38040,note_on,3,0,0,,12,,,83,127
38040,note_on,0,0,0,,12,,,59,127
38173,note_off,133,0,0,,12,,,83,127
38176,note_on,3,0,0,,10,,,81,127
38309,note_off,133,0,0,,10,,,81,127
38312,note_on,3,0,0,,8,,,80,127
38312,note_on,0,0,0,,12,,,47,127
38445,note_off,133,0,0,,8,,,80,127
38448,note_on,3,0,0,,6,,,78,127
38578,note_off,130,0,0,,12,,,59,127
38581,note_off,3,0,0,,6,,,78,127
38581,note_off,0,0,0,,12,,,47,127
38584,note_on,3,0,0,,4,,,76,127
38584,note_on,0,0,0,,4,,,52,127
38717,note_off,133,0,0,,4,,,52,127
38720,note_on,3,0,0,,7,,,55,127
38810,note_off,90,0,0,,4,,,76,127
38852,note_off,42,0,0,,7,,,55,127
38855,note_on,3,0,0,,7,,,79,127
38855,note_on,0,0,0,,12,,,59,127
38988,note_off,133,0,0,,12,,,59,127
38991,note_on,3,0,0,,4,,,64,127
39124,note_off,133,0,0,,4,,,64,127
39124,note_off,0,0,0,,7,,,79,127
39127,note_on,3,0,0,,12,,,83,127
39127,note_on,0,0,0,,7,,,67,127
39260,note_off,133,0,0,,7,,,67,127
39263,note_on,3,0,0,,12,,,71,127
39396,note_off,133,0,0,,12,,,71,127
39399,note_on,3,0,0,,12,,,47,127
39532,note_off,133,0,0,,12,,,83,127
39535,note_on,3,0,0,,10,,,81,127
39668,note_off,133,0,0,,10,,,81,127
39671,note_on,3,0,0,,6,,,78,127
39804,note_off,133,0,0,,6,,,78,127
39807,note_on,3,0,0,,3,,,75,127
39940,note_off,133,0,0,,3,,,75,127
39943,note_on,3,0,0,,12,,,71,127
40076,note_off,133,0,0,,12,,,71,127
40079,note_on,3,0,0,,10,,,81,127
40212,note_off,133,0,0,,10,,,81,127
40212,note_off,0,0,0,,12,,,47,127
40215,note_on,3,0,0,,10,,,81,127
40215,note_on,0,0,0,,4,,,52,127
40348,note_off,133,0,0,,4,,,52,127
40351,note_on,3,0,0,,7,,,55,127
40484,note_off,133,0,0,,7,,,55,127
40484,note_off,0,0,0,,10,,,81,127
40487,note_on,3,0,0,,7,,,79,127
40487,note_on,0,0,0,,12,,,59,127
40620,note_off,133,0,0,,12,,,59,127
40623,note_on,3,0,0,,4,,,64,127
40742,note_off,119,0,0,,7,,,79,127
40756,note_off,14,0,0,,4,,,64,127
40759,note_on,3,0,0,,12,,,83,127
40759,note_on,0,0,0,,7,,,67,127
40892,note_off,133,0,0,,7,,,67,127
40895,note_on,3,0,0,,12,,,71,127
41028,note_off,133,0,0,,12,,,71,127
41031,note_on,3,0,0,,12,,,47,127
41164,note_off,133,0,0,,12,,,83,127
41167,note_on,3,0,0,,10,,,81,127
41300,note_off,133,0,0,,10,,,81,127
41303,note_on,3,0,0,,6,,,78,127
41436,note_off,133,0,0,,6,,,78,127
41439,note_on,3,0,0,,3,,,75,127
41572,note_off,133,0,0,,3,,,75,127
41575,note_on,3,0,0,,12,,,71,127
41708,note_off,133,0,0,,12,,,71,127
41711,note_on,3,0,0,,10,,,81,127
41844,note_off,133,0,0,,10,,,81,127
41844,note_off,0,0,0,,12,,,47,127
41847,note_on,3,0,0,,10,,,81,127
41847,note_on,0,0,0,,4,,,52,127
41980,note_off,133,0,0,,4,,,52,127
41983,note_on,3,0,0,,7,,,55,127
42116,note_off,133,0,0,,7,,,55,127
42116,note_off,0,0,0,,10,,,81,127
42119,note_on,3,0,0,,7,,,79,127
42119,note_on,0,0,0,,12,,,59,127
42252,note_off,133,0,0,,12,,,59,127
42255,note_on,3,0,0,,4,,,64,127
42374,note_off,119,0,0,,7,,,79,127
42388,note_off,14,0,0,,4,,,64,127
42391,note_on,3,0,0,,12,,,83,127
42391,note_on,0,0,0,,7,,,67,127
42524,note_off,133,0,0,,7,,,67,127
42527,note_on,3,0,0,,12,,,71,127
42660,note_off,133,0,0,,12,,,71,127
42663,note_on,3,0,0,,12,,,47,127
42796,note_off,133,0,0,,12,,,83,127
42799,note_on,3,0,0,,10,,,81,127
42932,note_off,133,0,0,,10,,,81,127
42935,note_on,3,0,0,,6,,,78,127
43068,note_off,133,0,0,,6,,,78,127
43071,note_on,3,0,0,,3,,,75,127
43204,note_off,133,0,0,,3,,,75,127
43207,note_on,3,0,0,,12,,,71,127
43340,note_off,133,0,0,,12,,,71,127
43343,note_on,3,0,0,,10,,,81,127
43456,note_off,113,0,0,,12,,,47,127
43476,note_off,20,0,0,,10,,,81,127
43479,note_on,3,0,0,,7,,,79,127
43479,note_on,0,0,0,,4,,,52,127
43612,note_off,133,0,0,,7,,,79,127
43615,note_on,3,0,0,,4,,,76,127
43748,note_off,133,0,0,,4,,,76,127
43748,note_off,0,0,0,,4,,,52,127
43751,note_on,3,0,0,,3,,,75,127
43751,note_on,0,0,0,,6,,,54,127
43884,note_off,133,0,0,,3,,,75,127
43887,note_on,3,0,0,,6,,,78,127
44020,note_off,133,0,0,,6,,,78,127
44020,note_off,0,0,0,,6,,,54,127
44023,note_on,3,0,0,,4,,,76,127
44023,note_on,0,0,0,,7,,,55,127
44156,note_off,133,0,0,,4,,,76,127
44159,note_on,3,0,0,,7,,,79,127
44292,note_off,133,0,0,,7,,,79,127
44292,note_off,0,0,0,,7,,,55,127
44295,note_on,3,0,0,,6,,,78,127
44295,note_on,0,0,0,,10,,,57,127
44428,note_off,133,0,0,,6,,,78,127
44431,note_on,3,0,0,,10,,,81,127
44564,note_off,133,0,0,,10,,,81,127
44564,note_off,0,0,0,,10,,,57,127
44567,note_on,3,0,0,,7,,,79,127
44567,note_on,0,0,0,,12,,,59,127
44700,note_off,133,0,0,,7,,,79,127
44703,note_on,3,0,0,,6,,,78,127
44836,note_off,133,0,0,,6,,,78,127
44836,note_off,0,0,0,,12,,,59,127
44839,note_on,3,0,0,,4,,,76,127
44839,note_on,0,0,0,,10,,,57,127
44972,note_off,133,0,0,,4,,,76,127
44979,note_on,7,0,0,,3,,,75,127
45122,note_off,143,0,0,,10,,,57,127
45135,note_off,13,0,0,,3,,,75,127
45136,note_on,1,0,0,,12,,,83,127
45136,note_on,0,0,0,,8,,,56,127
45204,note_on,68,0,0,,10,,,81,127
45210,note_off,6,0,0,,12,,,83,127
45272,note_on,62,0,0,,8,,,80,127
45278,note_off,6,0,0,,10,,,81,127
45340,note_on,62,0,0,,6,,,78,127
45346,note_off,6,0,0,,8,,,80,127
45408,note_on,62,0,0,,4,,,76,127
45414,note_off,6,0,0,,6,,,78,127
45476,note_on,62,0,0,,3,,,75,127
45482,note_off,6,0,0,,4,,,76,127
45544,note_on,62,0,0,,1,,,73,127
45550,note_off,6,0,0,,3,,,75,127
45612,note_on,62,0,0,,12,,,71,127
45618,note_off,6,0,0,,1,,,73,127
45677,note_off,59,0,0,,8,,,56,127
45680,note_on,3,0,0,,10,,,69,127
45680,note_on,0,0,0,,8,,,56,127
45686,note_off,6,0,0,,12,,,71,127
45748,note_on,62,0,0,,8,,,68,127
45754,note_off,6,0,0,,10,,,69,127
45816,note_on,62,0,0,,6,,,66,127
45822,note_off,6,0,0,,8,,,68,127
45884,note_on,62,0,0,,4,,,64,127
45890,note_off,6,0,0,,6,,,66,127
45949,note_off,59,0,0,,8,,,56,127
45952,note_on,3,0,0,,1,,,73,127
45952,note_on,0,0,0,,10,,,57,127
45958,note_off,6,0,0,,4,,,64,127
46221,note_off,263,0,0,,10,,,57,127
46221,note_off,0,0,0,,1,,,73,127
46224,note_on,3,0,0,,8,,,68,127
46224,note_on,0,0,0,,12,,,59,127
46292,note_on,68,0,0,,6,,,66,127
46298,note_off,6,0,0,,8,,,68,127
46360,note_on,62,0,0,,8,,,68,127
46366,note_off,6,0,0,,6,,,66,127
46428,note_on,62,0,0,,6,,,66,127
46434,note_off,6,0,0,,8,,,68,127
46493,note_off,59,0,0,,12,,,59,127
46496,note_on,3,0,0,,8,,,68,127
46496,note_on,0,0,0,,10,,,57,127
46502,note_off,6,0,0,,6,,,66,127
46564,note_on,62,0,0,,6,,,66,127
46570,note_off,6,0,0,,8,,,68,127
46632,note_on,62,0,0,,8,,,68,127
46638,note_off,6,0,0,,6,,,66,127
46700,note_on,62,0,0,,6,,,66,127
46706,note_off,6,0,0,,8,,,68,127
46765,note_off,59,0,0,,10,,,57,127
46773,note_off,8,0,0,,6,,,66,127
46790,note_on,17,0,0,,8,,,56,127
46790,note_on,0,0,0,,12,,,83,127
46858,note_on,68,0,0,,10,,,81,127
46864,note_off,6,0,0,,12,,,83,127
46926,note_on,62,0,0,,8,,,80,127
46932,note_off,6,0,0,,10,,,81,127
46994,note_on,62,0,0,,6,,,78,127
47000,note_off,6,0,0,,8,,,80,127
47062,note_on,62,0,0,,4,,,76,127
47068,note_off,6,0,0,,6,,,78,127
47130,note_on,62,0,0,,3,,,75,127
47136,note_off,6,0,0,,4,,,76,127
47198,note_on,62,0,0,,1,,,73,127
47204,note_off,6,0,0,,3,,,75,127
47266,note_on,62,0,0,,12,,,71,127
47272,note_off,6,0,0,,1,,,73,127
47331,note_off,59,0,0,,8,,,56,127
47334,note_on,3,0,0,,8,,,56,127
47334,note_on,0,0,0,,10,,,69,127
47340,note_off,6,0,0,,12,,,71,127
47402,note_on,62,0,0,,8,,,68,127
47408,note_off,6,0,0,,10,,,69,127
47470,note_on,62,0,0,,6,,,66,127
47476,note_off,6,0,0,,8,,,68,127
47538,note_on,62,0,0,,4,,,64,127
47544,note_off,6,0,0,,6,,,66,127
47603,note_off,59,0,0,,8,,,56,127
47606,note_on,3,0,0,,10,,,57,127
47606,note_on,0,0,0,,1,,,73,127
47612,note_off,6,0,0,,4,,,64,127
47875,note_off,263,0,0,,1,,,73,127
47875,note_off,0,0,0,,10,,,57,127
47878,note_on,3,0,0,,12,,,59,127
47878,note_on,0,0,0,,8,,,68,127
47946,note_on,68,0,0,,6,,,66,127
47952,note_off,6,0,0,,8,,,68,127
48014,note_on,62,0,0,,8,,,68,127
48020,note_off,6,0,0,,6,,,66,127
48082,note_on,62,0,0,,6,,,66,127
48088,note_off,6,0,0,,8,,,68,127
48150,note_on,62,0,0,,12,,,47,127
48150,note_on,0,0,0,,8,,,68,127
48156,note_off,6,0,0,,6,,,66,127
48218,note_on,62,0,0,,6,,,66,127
48224,note_off,6,0,0,,8,,,68,127
48286,note_on,62,0,0,,4,,,64,127
48292,note_off,6,0,0,,6,,,66,127
48354,note_on,62,0,0,,6,,,66,127
48360,note_off,6,0,0,,4,,,64,127
48419,note_off,59,0,0,,12,,,47,127
48420,note_off,1,0,0,,12,,,59,127
48421,note_on,1,0,0,,4,,,52,127
48421,note_on,0,0,0,,4,,,64,127
48427,note_off,6,0,0,,6,,,66,127
49232,note_off,805,0,0,,4,,,64,127
49232,note_off,0,0,0,,4,,,52,127
49248,note_on,16,0,0,,4,,,64,127
49248,note_on,0,0,0,,4,,,52,127
49381,note_off,133,0,0,,4,,,52,127
49381,note_off,0,0,0,,4,,,64,127
49384,note_on,3,0,0,,7,,,67,127
49384,note_on,0,0,0,,7,,,55,127
49517,note_off,133,0,0,,7,,,55,127
49517,note_off,0,0,0,,7,,,67,127
49520,note_on,3,0,0,,5,,,65,127
49520,note_on,0,0,0,,5,,,53,127
49653,note_off,133,0,0,,5,,,53,127
49653,note_off,0,0,0,,5,,,65,127
49656,note_on,3,0,0,,10,,,69,127
49656,note_on,0,0,0,,10,,,57,127
49789,note_off,133,0,0,,10,,,57,127
49789,note_off,0,0,0,,10,,,69,127
49792,note_on,3,0,0,,8,,,68,127
49792,note_on,0,0,0,,8,,,56,127
49925,note_off,133,0,0,,8,,,56,127
49925,note_off,0,0,0,,8,,,68,127
49928,note_on,3,0,0,,0,,,72,127
49928,note_on,0,0,0,,0,,,60,127
50061,note_off,133,0,0,,0,,,60,127
50061,note_off,0,0,0,,0,,,72,127
50064,note_on,3,0,0,,12,,,71,127
50064,note_on,0,0,0,,12,,,59,127
50197,note_off,133,0,0,,12,,,59,127
50197,note_off,0,0,0,,12,,,71,127
50200,note_on,3,0,0,,4,,,76,127
50200,note_on,0,0,0,,4,,,64,127
50333,note_off,133,0,0,,4,,,64,127
50333,note_off,0,0,0,,4,,,76,127
50336,note_on,3,0,0,,2,,,74,127
50336,note_on,0,0,0,,2,,,62,127
50469,note_off,133,0,0,,2,,,62,127
50469,note_off,0,0,0,,2,,,74,127
50472,note_on,3,0,0,,0,,,72,127
50472,note_on,0,0,0,,0,,,60,127
50605,note_off,133,0,0,,0,,,60,127
50605,note_off,0,0,0,,0,,,72,127
50608,note_on,3,0,0,,12,,,71,127
50608,note_on,0,0,0,,12,,,59,127
50741,note_off,133,0,0,,12,,,59,127
50741,note_off,0,0,0,,12,,,71,127
50744,note_on,3,0,0,,10,,,69,127
50744,note_on,0,0,0,,10,,,57,127
50865,note_off,121,0,0,,10,,,57,127
50865,note_off,0,0,0,,10,,,69,127
50879,note_on,14,0,0,,4,,,64,127
50879,note_on,0,0,0,,4,,,52,127
51012,note_off,133,0,0,,4,,,52,127
51012,note_off,0,0,0,,4,,,64,127
51015,note_on,3,0,0,,7,,,67,127
51015,note_on,0,0,0,,7,,,55,127
51148,note_off,133,0,0,,7,,,55,127
51148,note_off,0,0,0,,7,,,67,127
51151,note_on,3,0,0,,5,,,65,127
51151,note_on,0,0,0,,5,,,53,127
51284,note_off,133,0,0,,5,,,53,127
51284,note_off,0,0,0,,5,,,65,127
51287,note_on,3,0,0,,10,,,69,127
51287,note_on,0,0,0,,10,,,57,127
51420,note_off,133,0,0,,10,,,57,127
51420,note_off,0,0,0,,10,,,69,127
51423,note_on,3,0,0,,8,,,68,127
51423,note_on,0,0,0,,8,,,56,127
51556,note_off,133,0,0,,8,,,56,127
51556,note_off,0,0,0,,8,,,68,127
51559,note_on,3,0,0,,0,,,72,127
51559,note_on,0,0,0,,0,,,60,127
51692,note_off,133,0,0,,0,,,60,127
51692,note_off,0,0,0,,0,,,72,127
51695,note_on,3,0,0,,12,,,71,127
51695,note_on,0,0,0,,12,,,59,127
51828,note_off,133,0,0,,12,,,59,127
51828,note_off,0,0,0,,12,,,71,127
51831,note_on,3,0,0,,4,,,76,127
51831,note_on,0,0,0,,4,,,64,127
51964,note_off,133,0,0,,4,,,64,127
51964,note_off,0,0,0,,4,,,76,127
51967,note_on,3,0,0,,2,,,74,127
51967,note_on,0,0,0,,2,,,62,127
52100,note_off,133,0,0,,2,,,62,127
52100,note_off,0,0,0,,2,,,74,127
52103,note_on,3,0,0,,0,,,72,127
52103,note_on,0,0,0,,0,,,60,127
52236,note_off,133,0,0,,0,,,60,127
52236,note_off,0,0,0,,0,,,72,127
52239,note_on,3,0,0,,12,,,71,127
52239,note_on,0,0,0,,12,,,59,127
52372,note_off,133,0,0,,12,,,59,127
52372,note_off,0,0,0,,12,,,71,127
52375,note_on,3,0,0,,10,,,69,127
52375,note_on,0,0,0,,10,,,57,127
52496,note_off,121,0,0,,10,,,57,127
52496,note_off,0,0,0,,10,,,69,127
52510,note_on,14,0,0,,4,,,64,127
52510,note_on,0,0,0,,4,,,52,127
52643,note_off,133,0,0,,4,,,52,127
52643,note_off,0,0,0,,4,,,64,127
52646,note_on,3,0,0,,10,,,69,127
52646,note_on,0,0,0,,10,,,57,127
52779,note_off,133,0,0,,10,,,57,127
52779,note_off,0,0,0,,10,,,69,127
52782,note_on,3,0,0,,7,,,67,127
52782,note_on,0,0,0,,7,,,55,127
52915,note_off,133,0,0,,7,,,55,127
52915,note_off,0,0,0,,7,,,67,127
52918,note_on,3,0,0,,11,,,70,127
52918,note_on,0,0,0,,11,,,58,127
53051,note_off,133,0,0,,11,,,58,127
53051,note_off,0,0,0,,11,,,70,127
53054,note_on,3,0,0,,10,,,69,127
53054,note_on,0,0,0,,10,,,57,127
53187,note_off,133,0,0,,10,,,57,127
53187,note_off,0,0,0,,10,,,69,127
53190,note_on,3,0,0,,2,,,74,127
53190,note_on,0,0,0,,2,,,62,127
53323,note_off,133,0,0,,2,,,62,127
53323,note_off,0,0,0,,2,,,74,127
53326,note_on,3,0,0,,0,,,72,127
53326,note_on,0,0,0,,0,,,60,127
53459,note_off,133,0,0,,0,,,60,127
53459,note_off,0,0,0,,0,,,72,127
53462,note_on,3,0,0,,5,,,77,127
53462,note_on,0,0,0,,5,,,65,127
53595,note_off,133,0,0,,5,,,65,127
53595,note_off,0,0,0,,5,,,77,127
53598,note_on,3,0,0,,4,,,76,127
53598,note_on,0,0,0,,4,,,64,127
53731,note_off,133,0,0,,4,,,64,127
53731,note_off,0,0,0,,4,,,76,127
53734,note_on,3,0,0,,7,,,79,127
53734,note_on,0,0,0,,7,,,67,127
53867,note_off,133,0,0,,7,,,67,127
53867,note_off,0,0,0,,7,,,79,127
53870,note_on,3,0,0,,5,,,77,127
53870,note_on,0,0,0,,5,,,65,127
54003,note_off,133,0,0,,5,,,65,127
54003,note_off,0,0,0,,5,,,77,127
54006,note_on,3,0,0,,4,,,76,127
54006,note_on,0,0,0,,4,,,64,127
54139,note_off,133,0,0,,4,,,64,127
54139,note_off,0,0,0,,4,,,76,127
54142,note_on,3,0,0,,5,,,77,127
54142,note_on,0,0,0,,2,,,50,127
54224,note_off,82,0,0,,5,,,77,127
54227,note_on,3,0,0,,4,,,76,127
54309,note_off,82,0,0,,4,,,76,127
54312,note_on,3,0,0,,2,,,74,127
54390,note_off,78,0,0,,2,,,74,127
54397,note_on,7,0,0,,2,,,74,127
54682,note_off,285,0,0,,2,,,50,127
54689,note_on,7,0,0,,2,,,62,127
54953,note_off,264,0,0,,2,,,74,127
54957,note_off,4,0,0,,2,,,62,127
54967,note_on,10,0,0,,10,,,69,127
54967,note_on,0,0,0,,5,,,65,127
54967,note_on,0,0,0,,2,,,62,127
54967,note_on,0,0,0,,5,,,77,127
55100,note_off,133,0,0,,5,,,77,127
55103,note_on,3,0,0,,4,,,76,127
55236,note_off,133,0,0,,4,,,76,127
55236,note_off,0,0,0,,2,,,62,127
55236,note_off,0,0,0,,5,,,65,127
55236,note_off,0,0,0,,10,,,69,127
55239,note_on,3,0,0,,5,,,65,127
55239,note_on,0,0,0,,2,,,62,127
55239,note_on,0,0,0,,10,,,69,127
55239,note_on,0,0,0,,4,,,76,127
55372,note_off,133,0,0,,4,,,76,127
55375,note_on,3,0,0,,2,,,74,127
55508,note_off,133,0,0,,2,,,74,127
55508,note_off,0,0,0,,10,,,69,127
55508,note_off,0,0,0,,2,,,62,127
55508,note_off,0,0,0,,5,,,65,127
55511,note_on,3,0,0,,10,,,69,127
55511,note_on,0,0,0,,5,,,65,127
55511,note_on,0,0,0,,2,,,62,127
55511,note_on,0,0,0,,2,,,74,127
55644,note_off,133,0,0,,2,,,74,127
55647,note_on,3,0,0,,0,,,72,127
55780,note_off,133,0,0,,0,,,72,127
55780,note_off,0,0,0,,2,,,62,127
55780,note_off,0,0,0,,5,,,65,127
55780,note_off,0,0,0,,10,,,69,127
55783,note_on,3,0,0,,4,,,64,127
55783,note_on,0,0,0,,2,,,62,127
55783,note_on,0,0,0,,8,,,68,127
55783,note_on,0,0,0,,0,,,72,127
55783,note_on,0,0,0,,2,,,74,127
55916,note_off,133,0,0,,2,,,74,127
55916,note_off,0,0,0,,0,,,72,127
55919,note_on,3,0,0,,12,,,71,127
56052,note_off,133,0,0,,12,,,71,127
56052,note_off,0,0,0,,8,,,68,127
56052,note_off,0,0,0,,2,,,62,127
56052,note_off,0,0,0,,4,,,64,127
56055,note_on,3,0,0,,8,,,68,127
56055,note_on,0,0,0,,4,,,64,127
56055,note_on,0,0,0,,2,,,62,127
56055,note_on,0,0,0,,12,,,71,127
56188,note_off,133,0,0,,12,,,71,127
56191,note_on,3,0,0,,0,,,72,127
56324,note_off,133,0,0,,0,,,72,127
56324,note_off,0,0,0,,2,,,62,127
56324,note_off,0,0,0,,4,,,64,127
56324,note_off,0,0,0,,8,,,68,127
56327,note_on,3,0,0,,8,,,68,127
56327,note_on,0,0,0,,4,,,64,127
56327,note_on,0,0,0,,2,,,62,127
56327,note_on,0,0,0,,0,,,72,127
56460,note_off,133,0,0,,0,,,72,127
56463,note_on,3,0,0,,2,,,74,127
56596,note_off,133,0,0,,2,,,74,127
56596,note_off,0,0,0,,2,,,62,127
56596,note_off,0,0,0,,4,,,64,127
56596,note_off,0,0,0,,8,,,68,127
56599,note_on,3,0,0,,0,,,60,127
56599,note_on,0,0,0,,10,,,69,127
56599,note_on,0,0,0,,4,,,64,127
56599,note_on,0,0,0,,4,,,76,127
56732,note_off,133,0,0,,4,,,76,127
56735,note_on,3,0,0,,2,,,74,127
56868,note_off,133,0,0,,2,,,74,127
56868,note_off,0,0,0,,4,,,64,127
56868,note_off,0,0,0,,10,,,69,127
56868,note_off,0,0,0,,0,,,60,127
56871,note_on,3,0,0,,10,,,69,127
56871,note_on,0,0,0,,4,,,64,127
56871,note_on,0,0,0,,0,,,60,127
56871,note_on,0,0,0,,2,,,74,127
57004,note_off,133,0,0,,2,,,74,127
57007,note_on,3,0,0,,0,,,72,127
57140,note_off,133,0,0,,0,,,72,127
57140,note_off,0,0,0,,0,,,60,127
57140,note_off,0,0,0,,4,,,64,127
57140,note_off,0,0,0,,10,,,69,127
57143,note_on,3,0,0,,0,,,60,127
57143,note_on,0,0,0,,10,,,69,127
57143,note_on,0,0,0,,4,,,64,127
57143,note_on,0,0,0,,0,,,72,127
57276,note_off,133,0,0,,0,,,72,127
57279,note_on,3,0,0,,12,,,71,127
57412,note_off,133,0,0,,12,,,71,127
57412,note_off,0,0,0,,4,,,64,127
57412,note_off,0,0,0,,10,,,69,127
57412,note_off,0,0,0,,0,,,60,127
57415,note_on,3,0,0,,5,,,65,127
57415,note_on,0,0,0,,2,,,62,127
57415,note_on,0,0,0,,0,,,60,127
57415,note_on,0,0,0,,12,,,71,127
57415,note_on,0,0,0,,0,,,72,127
57548,note_off,133,0,0,,0,,,72,127
57548,note_off,0,0,0,,12,,,71,127
57551,note_on,3,0,0,,10,,,69,127
57684,note_off,133,0,0,,10,,,69,127
57684,note_off,0,0,0,,0,,,60,127
57684,note_off,0,0,0,,2,,,62,127
57684,note_off,0,0,0,,5,,,65,127
57687,note_on,3,0,0,,5,,,65,127
57687,note_on,0,0,0,,2,,,62,127
57687,note_on,0,0,0,,0,,,60,127
57687,note_on,0,0,0,,10,,,69,127
57820,note_off,133,0,0,,10,,,69,127
57823,note_on,3,0,0,,12,,,71,127
57956,note_off,133,0,0,,12,,,71,127
57956,note_off,0,0,0,,0,,,60,127
57956,note_off,0,0,0,,2,,,62,127
57956,note_off,0,0,0,,5,,,65,127
57959,note_on,3,0,0,,2,,,62,127
57959,note_on,0,0,0,,5,,,65,127
57959,note_on,0,0,0,,0,,,60,127
57959,note_on,0,0,0,,12,,,71,127
58092,note_off,133,0,0,,12,,,71,127
58095,note_on,3,0,0,,0,,,72,127
58228,note_off,133,0,0,,0,,,72,127
58228,note_off,0,0,0,,0,,,60,127
58228,note_off,0,0,0,,5,,,65,127
58228,note_off,0,0,0,,2,,,62,127
58231,note_on,3,0,0,,12,,,59,127
58231,note_on,0,0,0,,2,,,62,127
58231,note_on,0,0,0,,2,,,74,127
58364,note_off,133,0,0,,2,,,74,127
58367,note_on,3,0,0,,0,,,72,127
58500,note_off,133,0,0,,0,,,72,127
58500,note_off,0,0,0,,2,,,62,127
58500,note_off,0,0,0,,12,,,59,127
58503,note_on,3,0,0,,2,,,62,127
58503,note_on,0,0,0,,12,,,59,127
58503,note_on,0,0,0,,0,,,72,127
58636,note_off,133,0,0,,0,,,72,127
58639,note_on,3,0,0,,12,,,71,127
58772,note_off,133,0,0,,12,,,71,127
58772,note_off,0,0,0,,12,,,59,127
58772,note_off,0,0,0,,2,,,62,127
58775,note_on,3,0,0,,2,,,62,127
58775,note_on,0,0,0,,12,,,59,127
58775,note_on,0,0,0,,12,,,71,127
58908,note_off,133,0,0,,12,,,71,127
58911,note_on,3,0,0,,10,,,69,127
59044,note_off,133,0,0,,10,,,69,127
59044,note_off,0,0,0,,12,,,59,127
59044,note_off,0,0,0,,2,,,62,127
59047,note_on,3,0,0,,12,,,59,127
59047,note_on,0,0,0,,4,,,64,127
59047,note_on,0,0,0,,2,,,62,127
59047,note_on,0,0,0,,10,,,69,127
59047,note_on,0,0,0,,12,,,71,127
59180,note_off,133,0,0,,12,,,71,127
59180,note_off,0,0,0,,10,,,69,127
59183,note_on,3,0,0,,8,,,68,127
59316,note_off,133,0,0,,8,,,68,127
59316,note_off,0,0,0,,2,,,62,127
59316,note_off,0,0,0,,4,,,64,127
59316,note_off,0,0,0,,12,,,59,127
59319,note_on,3,0,0,,12,,,59,127
59319,note_on,0,0,0,,4,,,64,127
59319,note_on,0,0,0,,2,,,62,127
59319,note_on,0,0,0,,8,,,68,127
59452,note_off,133,0,0,,8,,,68,127
59455,note_on,3,0,0,,10,,,69,127
59588,note_off,133,0,0,,10,,,69,127
59588,note_off,0,0,0,,2,,,62,127
59588,note_off,0,0,0,,4,,,64,127
59588,note_off,0,0,0,,12,,,59,127
59591,note_on,3,0,0,,2,,,62,127
59591,note_on,0,0,0,,12,,,59,127
59591,note_on,0,0,0,,4,,,64,127
59591,note_on,0,0,0,,10,,,69,127
59724,note_off,133,0,0,,10,,,69,127
59727,note_on,3,0,0,,12,,,71,127
59860,note_off,133,0,0,,12,,,71,127
59860,note_off,0,0,0,,4,,,64,127
59860,note_off,0,0,0,,12,,,59,127
59860,note_off,0,0,0,,2,,,62,127
59863,note_on,3,0,0,,10,,,57,127
59863,note_on,0,0,0,,4,,,64,127
59863,note_on,0,0,0,,0,,,60,127
59863,note_on,0,0,0,,0,,,72,127
59996,note_off,133,0,0,,0,,,72,127
59999,note_on,3,0,0,,4,,,76,127
60132,note_off,133,0,0,,4,,,76,127
60132,note_off,0,0,0,,0,,,60,127
60132,note_off,0,0,0,,4,,,64,127
60132,note_off,0,0,0,,10,,,57,127
60135,note_on,3,0,0,,10,,,57,127
60135,note_on,0,0,0,,4,,,64,127
60135,note_on,0,0,0,,0,,,60,127
60135,note_on,0,0,0,,4,,,76,127
60268,note_off,133,0,0,,4,,,76,127
60271,note_on,3,0,0,,0,,,72,127
60404,note_off,133,0,0,,0,,,72,127
60404,note_off,0,0,0,,0,,,60,127
60404,note_off,0,0,0,,4,,,64,127
60404,note_off,0,0,0,,10,,,57,127
60407,note_on,3,0,0,,0,,,60,127
60407,note_on,0,0,0,,10,,,57,127
60407,note_on,0,0,0,,4,,,64,127
60407,note_on,0,0,0,,0,,,72,127
60540,note_off,133,0,0,,0,,,72,127
60543,note_on,3,0,0,,4,,,76,127
60676,note_off,133,0,0,,4,,,76,127
60676,note_off,0,0,0,,4,,,64,127
60676,note_off,0,0,0,,10,,,57,127
60676,note_off,0,0,0,,0,,,60,127
60679,note_on,3,0,0,,7,,,55,127
60679,note_on,0,0,0,,4,,,64,127
60679,note_on,0,0,0,,0,,,60,127
60679,note_on,0,0,0,,4,,,76,127
60812,note_off,133,0,0,,4,,,76,127
60815,note_on,3,0,0,,0,,,72,127
60948,note_off,133,0,0,,0,,,72,127
60948,note_off,0,0,0,,0,,,60,127
60948,note_off,0,0,0,,4,,,64,127
60948,note_off,0,0,0,,7,,,55,127
60951,note_on,3,0,0,,4,,,64,127
60951,note_on,0,0,0,,0,,,60,127
60951,note_on,0,0,0,,7,,,55,127
60951,note_on,0,0,0,,0,,,72,127
61084,note_off,133,0,0,,0,,,72,127
61087,note_on,3,0,0,,4,,,76,127
61220,note_off,133,0,0,,4,,,76,127
61220,note_off,0,0,0,,7,,,55,127
61220,note_off,0,0,0,,0,,,60,127
61220,note_off,0,0,0,,4,,,64,127
61223,note_on,3,0,0,,0,,,60,127
61223,note_on,0,0,0,,7,,,55,127
61223,note_on,0,0,0,,4,,,64,127
61223,note_on,0,0,0,,4,,,76,127
61356,note_off,133,0,0,,4,,,76,127
61359,note_on,3,0,0,,0,,,72,127
61492,note_off,133,0,0,,0,,,72,127
61492,note_off,0,0,0,,4,,,64,127
61492,note_off,0,0,0,,7,,,55,127
61492,note_off,0,0,0,,0,,,60,127
61495,note_on,3,0,0,,10,,,57,127
61495,note_on,0,0,0,,5,,,53,127
61495,note_on,0,0,0,,4,,,64,127
61495,note_on,0,0,0,,10,,,69,127
61495,note_on,0,0,0,,0,,,72,127
61628,note_off,133,0,0,,0,,,72,127
61631,note_on,3,0,0,,10,,,81,127
61764,note_off,133,0,0,,10,,,81,127
61764,note_off,0,0,0,,4,,,64,127
61764,note_off,0,0,0,,5,,,53,127
61764,note_off,0,0,0,,10,,,57,127
61765,note_off,1,0,0,,10,,,69,127
61766,note_on,1,0,0,,10,,,57,127
61766,note_on,0,0,0,,5,,,53,127
61766,note_on,0,0,0,,4,,,64,127
61766,note_on,0,0,0,,10,,,81,127
61766,note_on,0,0,0,,10,,,69,127
61899,note_off,133,0,0,,10,,,81,127
61902,note_on,3,0,0,,0,,,72,127
62035,note_off,133,0,0,,0,,,72,127
62035,note_off,0,0,0,,4,,,64,127
62035,note_off,0,0,0,,5,,,53,127
62035,note_off,0,0,0,,10,,,57,127
62036,note_off,1,0,0,,10,,,69,127
62037,note_on,1,0,0,,10,,,57,127
62037,note_on,0,0,0,,5,,,53,127
62037,note_on,0,0,0,,4,,,64,127
62037,note_on,0,0,0,,0,,,72,127
62037,note_on,0,0,0,,10,,,69,127
62170,note_off,133,0,0,,0,,,72,127
62173,note_on,3,0,0,,10,,,81,127
62306,note_off,133,0,0,,10,,,81,127
62306,note_off,0,0,0,,4,,,64,127
62306,note_off,0,0,0,,5,,,53,127
62306,note_off,0,0,0,,10,,,57,127
62307,note_off,1,0,0,,10,,,69,127
62308,note_on,1,0,0,,10,,,57,127
62308,note_on,0,0,0,,4,,,52,127
62308,note_on,0,0,0,,0,,,60,127
62308,note_on,0,0,0,,10,,,81,127
62308,note_on,0,0,0,,10,,,69,127
62441,note_off,133,0,0,,10,,,81,127
62444,note_on,3,0,0,,0,,,72,127
62577,note_off,133,0,0,,0,,,72,127
62577,note_off,0,0,0,,0,,,60,127
62577,note_off,0,0,0,,4,,,52,127
62577,note_off,0,0,0,,10,,,57,127
62578,note_off,1,0,0,,10,,,69,127
62579,note_on,1,0,0,,4,,,52,127
62579,note_on,0,0,0,,0,,,60,127
62579,note_on,0,0,0,,10,,,57,127
62579,note_on,0,0,0,,0,,,72,127
62579,note_on,0,0,0,,10,,,69,127
62712,note_off,133,0,0,,0,,,72,127
62715,note_on,3,0,0,,10,,,81,127
62848,note_off,133,0,0,,10,,,81,127
62848,note_off,0,0,0,,10,,,57,127
62848,note_off,0,0,0,,0,,,60,127
62848,note_off,0,0,0,,4,,,52,127
62849,note_off,1,0,0,,10,,,69,127
62850,note_on,1,0,0,,4,,,52,127
62850,note_on,0,0,0,,0,,,60,127
62850,note_on,0,0,0,,10,,,57,127
62850,note_on,0,0,0,,10,,,69,127
62850,note_on,0,0,0,,10,,,81,127
62983,note_off,133,0,0,,10,,,81,127
62986,note_on,3,0,0,,0,,,72,127
63119,note_off,133,0,0,,0,,,72,127
63119,note_off,0,0,0,,10,,,57,127
63119,note_off,0,0,0,,0,,,60,127
63119,note_off,0,0,0,,4,,,52,127
63120,note_off,1,0,0,,10,,,69,127
63121,note_on,1,0,0,,4,,,52,127
63121,note_on,0,0,0,,10,,,57,127
63121,note_on,0,0,0,,0,,,72,127
63121,note_on,0,0,0,,10,,,69,127
63254,note_off,133,0,0,,10,,,69,127
63257,note_on,3,0,0,,0,,,84,127
63390,note_off,133,0,0,,0,,,84,127
63390,note_off,0,0,0,,10,,,57,127
63390,note_off,0,0,0,,4,,,52,127
63393,note_on,3,0,0,,4,,,52,127
63393,note_on,0,0,0,,10,,,57,127
63393,note_on,0,0,0,,0,,,84,127
63526,note_off,133,0,0,,0,,,84,127
63527,note_off,1,0,0,,0,,,72,127
63528,note_on,1,0,0,,0,,,72,127
63528,note_on,0,0,0,,4,,,76,127
63661,note_off,133,0,0,,4,,,76,127
63661,note_off,0,0,0,,0,,,72,127
63661,note_off,0,0,0,,10,,,57,127
63661,note_off,0,0,0,,4,,,52,127
63664,note_on,3,0,0,,4,,,52,127
63664,note_on,0,0,0,,10,,,57,127
63664,note_on,0,0,0,,0,,,72,127
63664,note_on,0,0,0,,4,,,76,127
63797,note_off,133,0,0,,4,,,76,127
63800,note_on,3,0,0,,0,,,84,127
63933,note_off,133,0,0,,0,,,84,127
63933,note_off,0,0,0,,10,,,57,127
63933,note_off,0,0,0,,4,,,52,127
63934,note_off,1,0,0,,0,,,72,127
63935,note_on,1,0,0,,0,,,48,127
63935,note_on,0,0,0,,10,,,57,127
63935,note_on,0,0,0,,4,,,52,127
63935,note_on,0,0,0,,0,,,84,127
63935,note_on,0,0,0,,0,,,72,127
64068,note_off,133,0,0,,0,,,84,127
64071,note_on,3,0,0,,4,,,76,127
64204,note_off,133,0,0,,4,,,76,127
64204,note_off,0,0,0,,4,,,52,127
64204,note_off,0,0,0,,10,,,57,127
64204,note_off,0,0,0,,0,,,48,127
64207,note_on,3,0,0,,0,,,48,127
64207,note_on,0,0,0,,10,,,57,127
64207,note_on,0,0,0,,4,,,52,127
64207,note_on,0,0,0,,4,,,76,127
64340,note_off,133,0,0,,4,,,76,127
64341,note_off,1,0,0,,0,,,72,127
64342,note_on,1,0,0,,0,,,84,127
64342,note_on,0,0,0,,0,,,72,127
64475,note_off,133,0,0,,0,,,72,127
64475,note_off,0,0,0,,0,,,84,127
64475,note_off,0,0,0,,4,,,52,127
64475,note_off,0,0,0,,10,,,57,127
64475,note_off,0,0,0,,0,,,48,127
64478,note_on,3,0,0,,10,,,57,127
64478,note_on,0,0,0,,4,,,52,127
64478,note_on,0,0,0,,0,,,48,127
64478,note_on,0,0,0,,0,,,84,127
64478,note_on,0,0,0,,0,,,72,127
64611,note_off,133,0,0,,0,,,72,127
64611,note_off,0,0,0,,0,,,84,127
64614,note_on,3,0,0,,4,,,76,127
64741,note_off,127,0,0,,4,,,76,127
64747,note_off,6,0,0,,0,,,48,127
64747,note_off,0,0,0,,4,,,52,127
64747,note_off,0,0,0,,10,,,57,127
64750,note_on,3,0,0,,4,,,52,127
64750,note_on,0,0,0,,0,,,48,127
64750,note_on,0,0,0,,10,,,57,127
64886,note_on,136,0,0,,0,,,84,127
65019,note_off,133,0,0,,0,,,84,127
65019,note_off,0,0,0,,10,,,57,127
65019,note_off,0,0,0,,0,,,48,127
65019,note_off,0,0,0,,4,,,52,127
65022,note_on,3,0,0,,0,,,48,127
65022,note_on,0,0,0,,10,,,57,127
65022,note_on,0,0,0,,4,,,52,127
65022,note_on,0,0,0,,0,,,84,127
65155,note_off,133,0,0,,0,,,84,127
65158,note_on,3,0,0,,12,,,83,127
65291,note_off,133,0,0,,12,,,83,127
65291,note_off,0,0,0,,4,,,52,127
65291,note_off,0,0,0,,10,,,57,127
65291,note_off,0,0,0,,0,,,48,127
65294,note_on,3,0,0,,0,,,48,127
65294,note_on,0,0,0,,10,,,57,127
65294,note_on,0,0,0,,4,,,52,127
65294,note_on,0,0,0,,12,,,83,127
65427,note_off,133,0,0,,12,,,83,127
65430,note_on,3,0,0,,10,,,81,127
65563,note_off,133,0,0,,10,,,81,127
65563,note_off,0,0,0,,4,,,52,127
65563,note_off,0,0,0,,10,,,57,127
65563,note_off,0,0,0,,0,,,48,127
65566,note_on,3,0,0,,12,,,59,127
65566,note_on,0,0,0,,10,,,57,127
65566,note_on,0,0,0,,2,,,50,127
65566,note_on,0,0,0,,10,,,81,127
65699,note_off,133,0,0,,10,,,81,127
65702,note_on,3,0,0,,7,,,79,127
65835,note_off,133,0,0,,7,,,79,127
65835,note_off,0,0,0,,2,,,50,127
65835,note_off,0,0,0,,10,,,57,127
65835,note_off,0,0,0,,12,,,59,127
65838,note_on,3,0,0,,10,,,57,127
65838,note_on,0,0,0,,2,,,50,127
65838,note_on,0,0,0,,12,,,59,127
65838,note_on,0,0,0,,5,,,77,127
65971,note_off,133,0,0,,5,,,77,127
65974,note_on,3,0,0,,4,,,76,127
66107,note_off,133,0,0,,4,,,76,127
66107,note_off,0,0,0,,12,,,59,127
66107,note_off,0,0,0,,2,,,50,127
66107,note_off,0,0,0,,10,,,57,127
66110,note_on,3,0,0,,12,,,59,127
66110,note_on,0,0,0,,10,,,57,127
66110,note_on,0,0,0,,2,,,50,127
66110,note_on,0,0,0,,4,,,76,127
66243,note_off,133,0,0,,4,,,76,127
66246,note_on,3,0,0,,3,,,75,127
66379,note_off,133,0,0,,3,,,75,127
66379,note_off,0,0,0,,2,,,50,127
66379,note_off,0,0,0,,10,,,57,127
66379,note_off,0,0,0,,12,,,59,127
66382,note_on,3,0,0,,12,,,59,127
66382,note_on,0,0,0,,4,,,52,127
66382,note_on,0,0,0,,4,,,76,127
66515,note_off,133,0,0,,4,,,76,127
66518,note_on,3,0,0,,2,,,74,127
66651,note_off,133,0,0,,2,,,74,127
66651,note_off,0,0,0,,4,,,52,127
66651,note_off,0,0,0,,12,,,59,127
66654,note_on,3,0,0,,12,,,59,127
66654,note_on,0,0,0,,4,,,52,127
66654,note_on,0,0,0,,2,,,74,127
66787,note_off,133,0,0,,2,,,74,127
66790,note_on,3,0,0,,0,,,72,127
66923,note_off,133,0,0,,0,,,72,127
66923,note_off,0,0,0,,4,,,52,127
66923,note_off,0,0,0,,12,,,59,127
66926,note_on,3,0,0,,0,,,60,127
66926,note_on,0,0,0,,4,,,52,127
66926,note_on,0,0,0,,0,,,72,127
67059,note_off,133,0,0,,0,,,72,127
67062,note_on,3,0,0,,12,,,71,127
67195,note_off,133,0,0,,12,,,71,127
67195,note_off,0,0,0,,4,,,52,127
67195,note_off,0,0,0,,0,,,60,127
67198,note_on,3,0,0,,7,,,43,127
67198,note_on,0,0,0,,10,,,69,127
67286,note_off,88,0,0,,7,,,43,127
67289,note_on,3,0,0,,5,,,41,127
67331,note_off,42,0,0,,10,,,69,127
67334,note_on,3,0,0,,7,,,67,127
67376,note_off,42,0,0,,5,,,41,127
67379,note_on,3,0,0,,7,,,43,127
67467,note_off,88,0,0,,7,,,43,127
67467,note_off,0,0,0,,7,,,67,127
67470,note_on,3,0,0,,5,,,41,127
67470,note_on,0,0,0,,5,,,65,127
67558,note_off,88,0,0,,5,,,41,127
67561,note_on,3,0,0,,7,,,43,127
67603,note_off,42,0,0,,5,,,65,127
67606,note_on,3,0,0,,4,,,64,127
67648,note_off,42,0,0,,7,,,43,127
67651,note_on,3,0,0,,5,,,41,127
67739,note_off,88,0,0,,5,,,41,127
67739,note_off,0,0,0,,4,,,64,127
67742,note_on,3,0,0,,7,,,43,127
67742,note_on,0,0,0,,4,,,64,127
67830,note_off,88,0,0,,7,,,43,127
67833,note_on,3,0,0,,5,,,41,127
67875,note_off,42,0,0,,4,,,64,127
67878,note_on,3,0,0,,3,,,63,127
68011,note_off,133,0,0,,3,,,63,127
68011,note_off,0,0,0,,5,,,41,127
68014,note_on,3,0,0,,4,,,40,127
68014,note_on,0,0,0,,3,,,63,127
68282,note_off,268,0,0,,3,,,63,127
68285,note_on,3,0,0,,4,,,64,127
68692,note_off,407,0,0,,4,,,64,127
68825,note_off,133,0,0,,4,,,40,127
68839,note_on,14,0,0,,12,,,83,127
68839,note_on,0,0,0,,4,,,40,127
68907,note_on,68,0,0,,8,,,80,127
68913,note_off,6,0,0,,12,,,83,127
68975,note_on,62,0,0,,4,,,76,127
68981,note_off,6,0,0,,8,,,80,127
69043,note_on,62,0,0,,12,,,71,127
69049,note_off,6,0,0,,4,,,76,127
69108,note_off,59,0,0,,4,,,40,127
69111,note_on,3,0,0,,4,,,76,127
69111,note_on,0,0,0,,4,,,40,127
69117,note_off,6,0,0,,12,,,71,127
69179,note_on,62,0,0,,12,,,71,127
69185,note_off,6,0,0,,4,,,76,127
69247,note_on,62,0,0,,8,,,68,127
69253,note_off,6,0,0,,12,,,71,127
69315,note_on,62,0,0,,4,,,64,127
69321,note_off,6,0,0,,8,,,68,127
69380,note_off,59,0,0,,4,,,40,127
69383,note_on,3,0,0,,12,,,71,127
69383,note_on,0,0,0,,4,,,40,127
69389,note_off,6,0,0,,4,,,64,127
69451,note_on,62,0,0,,8,,,68,127
69457,note_off,6,0,0,,12,,,71,127
69519,note_on,62,0,0,,12,,,59,127
69525,note_off,6,0,0,,8,,,68,127
69587,note_on,62,0,0,,4,,,64,127
69593,note_off,6,0,0,,12,,,59,127
69652,note_off,59,0,0,,4,,,40,127
69655,note_on,3,0,0,,2,,,62,127
69655,note_on,0,0,0,,10,,,45,127
69661,note_off,6,0,0,,4,,,64,127
69856,note_off,195,0,0,,2,,,62,127
69859,note_on,3,0,0,,1,,,61,127
69927,note_on,68,0,0,,2,,,62,127
69933,note_off,6,0,0,,1,,,61,127
69995,note_on,62,0,0,,1,,,61,127
70001,note_off,6,0,0,,2,,,62,127
70063,note_on,62,0,0,,2,,,62,127
70069,note_off,6,0,0,,1,,,61,127
70131,note_on,62,0,0,,1,,,61,127
70137,note_off,6,0,0,,2,,,62,127
70199,note_on,62,0,0,,2,,,62,127
70205,note_off,6,0,0,,1,,,61,127
70267,note_on,62,0,0,,1,,,61,127
70273,note_off,6,0,0,,2,,,62,127
70335,note_on,62,0,0,,2,,,62,127
70341,note_off,6,0,0,,1,,,61,127
70401,note_on,60,0,0,,1,,,61,127
70409,note_off,8,0,0,,2,,,62,127
70465,note_off,56,0,0,,1,,,61,127
70468,note_off,3,0,0,,10,,,45,127
70471,note_on,3,0,0,,12,,,83,127
70471,note_on,0,0,0,,4,,,40,127
70539,note_on,68,0,0,,8,,,80,127
70545,note_off,6,0,0,,12,,,83,127
70607,note_on,62,0,0,,4,,,76,127
70613,note_off,6,0,0,,8,,,80,127
70675,note_on,62,0,0,,12,,,71,127
70681,note_off,6,0,0,,4,,,76,127
70740,note_off,59,0,0,,4,,,40,127
70743,note_on,3,0,0,,4,,,76,127
70743,note_on,0,0,0,,4,,,40,127
70749,note_off,6,0,0,,12,,,71,127
70811,note_on,62,0,0,,12,,,71,127
70817,note_off,6,0,0,,4,,,76,127
70879,note_on,62,0,0,,8,,,68,127
70885,note_off,6,0,0,,12,,,71,127
70947,note_on,62,0,0,,4,,,64,127
70953,note_off,6,0,0,,8,,,68,127
71012,note_off,59,0,0,,4,,,40,127
71015,note_on,3,0,0,,12,,,71,127
71015,note_on,0,0,0,,4,,,40,127
71021,note_off,6,0,0,,4,,,64,127
71083,note_on,62,0,0,,8,,,68,127
71089,note_off,6,0,0,,12,,,71,127
71151,note_on,62,0,0,,12,,,59,127
71157,note_off,6,0,0,,8,,,68,127
71219,note_on,62,0,0,,4,,,64,127
71225,note_off,6,0,0,,12,,,59,127
71284,note_off,59,0,0,,4,,,40,127
71287,note_on,3,0,0,,2,,,62,127
71287,note_on,0,0,0,,10,,,45,127
71293,note_off,6,0,0,,4,,,64,127
71556,note_off,263,0,0,,2,,,62,127
71559,note_on,3,0,0,,1,,,61,127
71627,note_on,68,0,0,,2,,,62,127
71633,note_off,6,0,0,,1,,,61,127
71695,note_on,62,0,0,,1,,,61,127
71701,note_off,6,0,0,,2,,,62,127
71763,note_on,62,0,0,,2,,,62,127
71769,note_off,6,0,0,,1,,,61,127
71831,note_on,62,0,0,,1,,,61,127
71837,note_off,6,0,0,,2,,,62,127
72100,note_off,263,0,0,,1,,,61,127
72100,note_off,0,0,0,,10,,,45,127
72103,note_on,3,0,0,,1,,,61,127
72103,note_on,0,0,0,,10,,,57,127
72236,note_off,133,0,0,,1,,,61,127
72239,note_on,3,0,0,,2,,,62,127
72372,note_off,133,0,0,,2,,,62,127
72372,note_off,0,0,0,,10,,,57,127
72375,note_on,3,0,0,,2,,,62,127
72375,note_on,0,0,0,,6,,,54,127
72508,note_off,133,0,0,,2,,,62,127
72511,note_on,3,0,0,,4,,,64,127
72644,note_off,133,0,0,,4,,,64,127
72644,note_off,0,0,0,,6,,,54,127
72647,note_on,3,0,0,,4,,,64,127
72647,note_on,0,0,0,,1,,,49,127
72780,note_off,133,0,0,,4,,,64,127
72783,note_on,3,0,0,,6,,,66,127
72916,note_off,133,0,0,,6,,,66,127
72916,note_off,0,0,0,,1,,,49,127
72919,note_on,3,0,0,,6,,,66,127
72919,note_on,0,0,0,,2,,,50,127
73052,note_off,133,0,0,,6,,,66,127
73055,note_on,3,0,0,,8,,,68,127
73188,note_off,133,0,0,,8,,,68,127
73188,note_off,0,0,0,,2,,,50,127
73191,note_on,3,0,0,,8,,,68,127
73191,note_on,0,0,0,,12,,,47,127
73324,note_off,133,0,0,,8,,,68,127
73327,note_on,3,0,0,,10,,,69,127
73460,note_off,133,0,0,,10,,,69,127
73460,note_off,0,0,0,,12,,,47,127
73463,note_on,3,0,0,,10,,,69,127
73463,note_on,0,0,0,,1,,,49,127
73596,note_off,133,0,0,,10,,,69,127
73599,note_on,3,0,0,,12,,,71,127
73732,note_off,133,0,0,,12,,,71,127
73732,note_off,0,0,0,,1,,,49,127
73735,note_on,3,0,0,,12,,,71,127
73735,note_on,0,0,0,,8,,,44,127
73868,note_off,133,0,0,,12,,,71,127
73871,note_on,3,0,0,,1,,,73,127
74004,note_off,133,0,0,,1,,,73,127
74004,note_off,0,0,0,,8,,,44,127
74007,note_on,3,0,0,,1,,,73,127
74007,note_on,0,0,0,,10,,,45,127
74140,note_off,133,0,0,,1,,,73,127
74143,note_on,3,0,0,,2,,,74,127
74276,note_off,133,0,0,,2,,,74,127
74276,note_off,0,0,0,,10,,,45,127
74279,note_on,3,0,0,,2,,,74,127
74279,note_on,0,0,0,,6,,,54,127
74412,note_off,133,0,0,,2,,,74,127
74415,note_on,3,0,0,,4,,,76,127
74548,note_off,133,0,0,,4,,,76,127
74548,note_off,0,0,0,,6,,,54,127
74551,note_on,3,0,0,,4,,,76,127
74551,note_on,0,0,0,,1,,,49,127
74684,note_off,133,0,0,,4,,,76,127
74687,note_on,3,0,0,,6,,,78,127
74820,note_off,133,0,0,,6,,,78,127
74820,note_off,0,0,0,,1,,,49,127
74823,note_on,3,0,0,,6,,,78,127
74823,note_on,0,0,0,,2,,,50,127
74956,note_off,133,0,0,,6,,,78,127
74959,note_on,3,0,0,,8,,,80,127
75092,note_off,133,0,0,,8,,,80,127
75092,note_off,0,0,0,,2,,,50,127
75095,note_on,3,0,0,,8,,,80,127
75095,note_on,0,0,0,,4,,,52,127
75228,note_off,133,0,0,,8,,,80,127
75231,note_on,3,0,0,,10,,,81,127
75364,note_off,133,0,0,,10,,,81,127
75364,note_off,0,0,0,,4,,,52,127
75367,note_on,3,0,0,,10,,,81,127
75367,note_on,0,0,0,,6,,,54,127
75435,note_on,68,0,0,,12,,,83,127
75441,note_off,6,0,0,,10,,,81,127
75503,note_on,62,0,0,,10,,,81,127
75509,note_off,6,0,0,,12,,,83,127
75571,note_on,62,0,0,,8,,,80,127
75577,note_off,6,0,0,,10,,,81,127
75639,note_on,62,0,0,,6,,,78,127
75645,note_off,6,0,0,,8,,,80,127
75707,note_on,62,0,0,,4,,,76,127
75713,note_off,6,0,0,,6,,,78,127
75775,note_on,62,0,0,,2,,,74,127
75781,note_off,6,0,0,,4,,,76,127
75843,note_on,62,0,0,,1,,,73,127
75849,note_off,6,0,0,,2,,,74,127
75908,note_off,59,0,0,,6,,,54,127
75911,note_on,3,0,0,,12,,,71,127
75911,note_on,0,0,0,,8,,,56,127
75917,note_off,6,0,0,,1,,,73,127
75979,note_on,62,0,0,,10,,,69,127
75985,note_off,6,0,0,,12,,,71,127
76047,note_on,62,0,0,,8,,,68,127
76053,note_off,6,0,0,,10,,,69,127
76115,note_on,62,0,0,,6,,,66,127
76121,note_off,6,0,0,,8,,,68,127
76180,note_off,59,0,0,,8,,,56,127
76183,note_on,3,0,0,,4,,,64,127
76183,note_on,0,0,0,,10,,,57,127
76189,note_off,6,0,0,,6,,,66,127
76316,note_off,127,0,0,,4,,,64,127
76319,note_on,3,0,0,,2,,,74,127
76452,note_off,133,0,0,,2,,,74,127
76452,note_off,0,0,0,,10,,,57,127
76455,note_on,3,0,0,,1,,,73,127
76455,note_on,0,0,0,,4,,,52,127
76723,note_off,268,0,0,,4,,,52,127
76726,note_on,3,0,0,,2,,,50,127
76777,note_on,51,0,0,,12,,,71,127
76780,note_off,3,0,0,,1,,,73,127
76844,note_on,64,0,0,,10,,,69,127
76851,note_off,7,0,0,,12,,,71,127
76907,note_on,56,0,0,,12,,,71,127
76917,note_off,10,0,0,,10,,,69,127
76981,note_off,64,0,0,,12,,,71,127
76995,note_off,14,0,0,,2,,,50,127
76998,note_on,3,0,0,,10,,,81,127
76998,note_on,0,0,0,,1,,,49,127
77066,note_on,68,0,0,,12,,,83,127
77072,note_off,6,0,0,,10,,,81,127
77134,note_on,62,0,0,,10,,,81,127
77140,note_off,6,0,0,,12,,,83,127
77202,note_on,62,0,0,,8,,,80,127
77208,note_off,6,0,0,,10,,,81,127
77270,note_on,62,0,0,,6,,,78,127
77276,note_off,6,0,0,,8,,,80,127
77338,note_on,62,0,0,,4,,,76,127
77344,note_off,6,0,0,,6,,,78,127
77406,note_on,62,0,0,,2,,,74,127
77412,note_off,6,0,0,,4,,,76,127
77474,note_on,62,0,0,,1,,,73,127
77480,note_off,6,0,0,,2,,,74,127
77539,note_off,59,0,0,,1,,,49,127
77542,note_on,3,0,0,,12,,,71,127
77542,note_on,0,0,0,,2,,,50,127
77548,note_off,6,0,0,,1,,,73,127
77610,note_on,62,0,0,,10,,,69,127
77616,note_off,6,0,0,,12,,,71,127
77678,note_on,62,0,0,,8,,,68,127
77684,note_off,6,0,0,,10,,,69,127
77746,note_on,62,0,0,,6,,,66,127
77752,note_off,6,0,0,,8,,,68,127
77811,note_off,59,0,0,,2,,,50,127
77814,note_on,3,0,0,,4,,,64,127
77814,note_on,0,0,0,,4,,,52,127
77820,note_off,6,0,0,,6,,,66,127
77947,note_off,127,0,0,,4,,,64,127
77950,note_on,3,0,0,,2,,,74,127
78083,note_off,133,0,0,,2,,,74,127
78086,note_on,3,0,0,,1,,,73,127
78357,note_on,271,0,0,,4,,,40,127
78422,note_off,65,0,0,,1,,,73,127
78425,note_on,3,0,0,,12,,,71,127
78493,note_on,68,0,0,,1,,,73,127
78499,note_off,6,0,0,,12,,,71,127
78561,note_on,62,0,0,,12,,,71,127
78567,note_off,6,0,0,,1,,,73,127
78626,note_off,59,0,0,,4,,,40,127
78627,note_off,1,0,0,,4,,,52,127
78628,note_on,1,0,0,,10,,,69,127
78628,note_on,0,0,0,,10,,,57,127
78634,note_off,6,0,0,,12,,,71,127
78761,note_off,127,0,0,,10,,,57,127
78764,note_on,3,0,0,,1,,,61,127
78897,note_off,133,0,0,,1,,,61,127
78900,note_on,3,0,0,,4,,,64,127
79033,note_off,133,0,0,,4,,,64,127
79033,note_off,0,0,0,,10,,,69,127
79036,note_on,3,0,0,,10,,,69,127
79169,note_off,133,0,0,,10,,,69,127
79172,note_on,3,0,0,,1,,,85,127
79172,note_on,0,0,0,,1,,,73,127
79305,note_off,133,0,0,,1,,,73,127
79308,note_on,3,0,0,,4,,,76,127
79441,note_off,133,0,0,,4,,,76,127
79444,note_on,3,0,0,,4,,,40,127
79577,note_off,133,0,0,,1,,,85,127
79580,note_on,3,0,0,,12,,,83,127
79648,note_on,68,0,0,,1,,,85,127
79654,note_off,6,0,0,,12,,,83,127
79716,note_on,62,0,0,,2,,,86,127
79722,note_off,6,0,0,,1,,,85,127
79985,note_off,263,0,0,,2,,,86,127
79988,note_on,3,0,0,,12,,,83,127
80121,note_off,133,0,0,,12,,,83,127
80124,note_on,3,0,0,,10,,,81,127
80124,note_on,0,0,0,,1,,,85,127
80192,note_on,68,0,0,,8,,,80,127
80192,note_on,0,0,0,,12,,,83,127
80198,note_off,6,0,0,,1,,,85,127
80198,note_off,0,0,0,,10,,,81,127
80257,note_off,59,0,0,,12,,,83,127
80257,note_off,0,0,0,,8,,,80,127
80257,note_off,0,0,0,,4,,,40,127
80260,note_on,3,0,0,,12,,,83,127
80260,note_on,0,0,0,,8,,,80,127
80260,note_on,0,0,0,,10,,,57,127
80393,note_off,133,0,0,,10,,,57,127
80396,note_on,3,0,0,,1,,,61,127
80529,note_off,133,0,0,,1,,,61,127
80529,note_off,0,0,0,,8,,,80,127
80529,note_off,0,0,0,,12,,,83,127
80532,note_on,3,0,0,,1,,,85,127
80532,note_on,0,0,0,,10,,,81,127
80532,note_on,0,0,0,,4,,,64,127
80665,note_off,133,0,0,,4,,,64,127
80668,note_on,3,0,0,,10,,,69,127
80801,note_off,133,0,0,,10,,,69,127
80801,note_off,0,0,0,,10,,,81,127
80801,note_off,0,0,0,,1,,,85,127
80804,note_on,3,0,0,,1,,,85,127
80804,note_on,0,0,0,,1,,,73,127
80937,note_off,133,0,0,,1,,,73,127
80940,note_on,3,0,0,,4,,,76,127
81073,note_off,133,0,0,,4,,,76,127
81076,note_on,3,0,0,,4,,,40,127
81209,note_off,133,0,0,,1,,,85,127
81212,note_on,3,0,0,,12,,,83,127
81280,note_on,68,0,0,,1,,,85,127
81286,note_off,6,0,0,,12,,,83,127
81348,note_on,62,0,0,,2,,,86,127
81354,note_off,6,0,0,,1,,,85,127
81617,note_off,263,0,0,,2,,,86,127
81620,note_on,3,0,0,,12,,,83,127
81753,note_off,133,0,0,,12,,,83,127
81756,note_on,3,0,0,,10,,,81,127
81756,note_on,0,0,0,,1,,,85,127
81824,note_on,68,0,0,,8,,,80,127
81824,note_on,0,0,0,,12,,,83,127
81830,note_off,6,0,0,,1,,,85,127
81830,note_off,0,0,0,,10,,,81,127
81889,note_off,59,0,0,,12,,,83,127
81889,note_off,0,0,0,,8,,,80,127
81889,note_off,0,0,0,,4,,,40,127
81892,note_on,3,0,0,,12,,,83,127
81892,note_on,0,0,0,,8,,,80,127
81892,note_on,0,0,0,,10,,,57,127
82025,note_off,133,0,0,,10,,,57,127
82028,note_on,3,0,0,,1,,,61,127
82161,note_off,133,0,0,,1,,,61,127
82161,note_off,0,0,0,,8,,,80,127
82161,note_off,0,0,0,,12,,,83,127
82164,note_on,3,0,0,,1,,,85,127
82164,note_on,0,0,0,,10,,,81,127
82164,note_on,0,0,0,,4,,,64,127
82297,note_off,133,0,0,,4,,,64,127
82300,note_on,3,0,0,,10,,,69,127
82433,note_off,133,0,0,,10,,,69,127
82433,note_off,0,0,0,,10,,,81,127
82433,note_off,0,0,0,,1,,,85,127
82436,note_on,3,0,0,,1,,,85,127
82436,note_on,0,0,0,,1,,,73,127
82569,note_off,133,0,0,,1,,,73,127
82572,note_on,3,0,0,,4,,,76,127
82705,note_off,133,0,0,,4,,,76,127
82708,note_on,3,0,0,,4,,,40,127
82841,note_off,133,0,0,,1,,,85,127
82844,note_on,3,0,0,,12,,,83,127
82912,note_on,68,0,0,,1,,,85,127
82918,note_off,6,0,0,,12,,,83,127
82980,note_on,62,0,0,,2,,,86,127
82986,note_off,6,0,0,,1,,,85,127
83249,note_off,263,0,0,,2,,,86,127
83252,note_on,3,0,0,,12,,,83,127
83385,note_off,133,0,0,,12,,,83,127
83388,note_on,3,0,0,,10,,,81,127
83388,note_on,0,0,0,,1,,,85,127
83456,note_on,68,0,0,,12,,,83,127
83456,note_on,0,0,0,,8,,,80,127
83462,note_off,6,0,0,,1,,,85,127
83462,note_off,0,0,0,,10,,,81,127
83487,note_off,25,0,0,,4,,,40,127
83521,note_off,34,0,0,,8,,,80,127
83521,note_off,0,0,0,,12,,,83,127
83524,note_on,3,0,0,,10,,,81,127
83524,note_on,0,0,0,,1,,,85,127
83524,note_on,0,0,0,,10,,,57,127
83657,note_off,133,0,0,,1,,,85,127
83660,note_on,3,0,0,,6,,,78,127
83793,note_off,133,0,0,,6,,,78,127
83793,note_off,0,0,0,,10,,,57,127
83794,note_off,1,0,0,,10,,,81,127
83795,note_on,1,0,0,,4,,,76,127
83795,note_on,0,0,0,,12,,,59,127
83928,note_off,133,0,0,,4,,,76,127
83931,note_on,3,0,0,,3,,,75,127
84064,note_off,133,0,0,,3,,,75,127
84064,note_off,0,0,0,,12,,,59,127
84067,note_on,3,0,0,,4,,,76,127
84067,note_on,0,0,0,,1,,,61,127
84200,note_off,133,0,0,,4,,,76,127
84203,note_on,3,0,0,,1,,,73,127
84336,note_off,133,0,0,,1,,,73,127
84336,note_off,0,0,0,,1,,,61,127
84339,note_on,3,0,0,,12,,,71,127
84339,note_on,0,0,0,,2,,,62,127
84472,note_off,133,0,0,,12,,,71,127
84475,note_on,3,0,0,,2,,,74,127
84608,note_off,133,0,0,,2,,,74,127
84608,note_off,0,0,0,,2,,,62,127
84611,note_on,3,0,0,,1,,,73,127
84611,note_on,0,0,0,,4,,,64,127
84744,note_off,133,0,0,,1,,,73,127
84747,note_on,3,0,0,,12,,,71,127
84880,note_off,133,0,0,,12,,,71,127
84883,note_on,3,0,0,,10,,,69,127
84883,note_on,0,0,0,,4,,,52,127
85016,note_off,133,0,0,,10,,,69,127
85019,note_on,3,0,0,,8,,,68,127
85149,note_off,130,0,0,,4,,,64,127
85152,note_off,3,0,0,,8,,,68,127
85152,note_off,0,0,0,,4,,,52,127
85155,note_on,3,0,0,,10,,,69,127
85155,note_on,0,0,0,,10,,,57,127
85288,note_off,133,0,0,,10,,,57,127
85291,note_on,3,0,0,,0,,,60,127
85424,note_off,133,0,0,,0,,,60,127
85427,note_on,3,0,0,,4,,,64,127
85560,note_off,133,0,0,,4,,,64,127
85560,note_off,0,0,0,,10,,,69,127
85563,note_on,3,0,0,,10,,,69,127
85696,note_off,133,0,0,,10,,,69,127
85699,note_on,3,0,0,,0,,,84,127
85699,note_on,0,0,0,,0,,,72,127
85832,note_off,133,0,0,,0,,,72,127
85835,note_on,3,0,0,,4,,,76,127
85968,note_off,133,0,0,,4,,,76,127
85971,note_on,3,0,0,,4,,,40,127
86104,note_off,133,0,0,,0,,,84,127
86107,note_on,3,0,0,,12,,,83,127
86175,note_on,68,0,0,,0,,,84,127
86181,note_off,6,0,0,,12,,,83,127
86243,note_on,62,0,0,,2,,,86,127
86249,note_off,6,0,0,,0,,,84,127
86512,note_off,263,0,0,,2,,,86,127
86515,note_on,3,0,0,,12,,,83,127
86648,note_off,133,0,0,,12,,,83,127
86651,note_on,3,0,0,,10,,,81,127
86651,note_on,0,0,0,,0,,,84,127
86719,note_on,68,0,0,,8,,,80,127
86719,note_on,0,0,0,,12,,,83,127
86725,note_off,6,0,0,,0,,,84,127
86725,note_off,0,0,0,,10,,,81,127
86784,note_off,59,0,0,,12,,,83,127
86784,note_off,0,0,0,,8,,,80,127
86784,note_off,0,0,0,,4,,,40,127
86787,note_on,3,0,0,,12,,,83,127
86787,note_on,0,0,0,,8,,,80,127
86787,note_on,0,0,0,,10,,,57,127
86920,note_off,133,0,0,,10,,,57,127
86923,note_on,3,0,0,,0,,,60,127
87056,note_off,133,0,0,,0,,,60,127
87056,note_off,0,0,0,,8,,,80,127
87056,note_off,0,0,0,,12,,,83,127
87059,note_on,3,0,0,,0,,,84,127
87059,note_on,0,0,0,,10,,,81,127
87059,note_on,0,0,0,,4,,,64,127
87192,note_off,133,0,0,,4,,,64,127
87195,note_on,3,0,0,,10,,,69,127
87328,note_off,133,0,0,,10,,,69,127
87328,note_off,0,0,0,,10,,,81,127
87328,note_off,0,0,0,,0,,,84,127
87331,note_on,3,0,0,,0,,,84,127
87331,note_on,0,0,0,,0,,,72,127
87464,note_off,133,0,0,,0,,,72,127
87467,note_on,3,0,0,,4,,,76,127
87600,note_off,133,0,0,,4,,,76,127
87603,note_on,3,0,0,,4,,,40,127
87736,note_off,133,0,0,,0,,,84,127
87739,note_on,3,0,0,,12,,,83,127
87807,note_on,68,0,0,,0,,,84,127
87813,note_off,6,0,0,,12,,,83,127
87875,note_on,62,0,0,,2,,,86,127
87881,note_off,6,0,0,,0,,,84,127
88144,note_off,263,0,0,,2,,,86,127
88147,note_on,3,0,0,,12,,,83,127
88280,note_off,133,0,0,,12,,,83,127
88283,note_on,3,0,0,,0,,,84,127
88283,note_on,0,0,0,,10,,,81,127
88351,note_on,68,0,0,,12,,,83,127
88351,note_on,0,0,0,,8,,,80,127
88357,note_off,6,0,0,,10,,,81,127
88357,note_off,0,0,0,,0,,,84,127
88416,note_off,59,0,0,,8,,,80,127
88416,note_off,0,0,0,,12,,,83,127
88416,note_off,0,0,0,,4,,,40,127
88419,note_on,3,0,0,,12,,,83,127
88419,note_on,0,0,0,,8,,,80,127
88419,note_on,0,0,0,,10,,,57,127
88552,note_off,133,0,0,,10,,,57,127
88555,note_on,3,0,0,,0,,,60,127
88688,note_off,133,0,0,,0,,,60,127
88688,note_off,0,0,0,,8,,,80,127
88688,note_off,0,0,0,,12,,,83,127
88691,note_on,3,0,0,,0,,,84,127
88691,note_on,0,0,0,,10,,,81,127
88691,note_on,0,0,0,,4,,,64,127
88824,note_off,133,0,0,,4,,,64,127
88827,note_on,3,0,0,,10,,,69,127
88960,note_off,133,0,0,,10,,,69,127
88960,note_off,0,0,0,,10,,,81,127
88960,note_off,0,0,0,,0,,,84,127
88963,note_on,3,0,0,,0,,,84,127
88963,note_on,0,0,0,,0,,,72,127
89096,note_off,133,0,0,,0,,,72,127
89099,note_on,3,0,0,,4,,,76,127
89232,note_off,133,0,0,,4,,,76,127
89235,note_on,3,0,0,,4,,,40,127
89368,note_off,133,0,0,,0,,,84,127
89371,note_on,3,0,0,,12,,,83,127
89439,note_on,68,0,0,,0,,,84,127
89445,note_off,6,0,0,,12,,,83,127
89507,note_on,62,0,0,,2,,,86,127
89513,note_off,6,0,0,,0,,,84,127
89776,note_off,263,0,0,,2,,,86,127
89779,note_on,3,0,0,,12,,,83,127
89912,note_off,133,0,0,,12,,,83,127
89915,note_on,3,0,0,,0,,,84,127
89915,note_on,0,0,0,,10,,,81,127
89983,note_on,68,0,0,,12,,,83,127
89983,note_on,0,0,0,,8,,,80,127
89989,note_off,6,0,0,,10,,,81,127
89989,note_off,0,0,0,,0,,,84,127
90000,note_off,11,0,0,,4,,,40,127
90048,note_off,48,0,0,,8,,,80,127
90048,note_off,0,0,0,,12,,,83,127
90051,note_on,3,0,0,,0,,,84,127
90051,note_on,0,0,0,,10,,,81,127
90051,note_on,0,0,0,,10,,,57,127
90184,note_off,133,0,0,,0,,,84,127
90187,note_on,3,0,0,,5,,,77,127
90320,note_off,133,0,0,,5,,,77,127
90320,note_off,0,0,0,,10,,,57,127
90321,note_off,1,0,0,,10,,,81,127
90322,note_on,1,0,0,,4,,,76,127
90322,note_on,0,0,0,,12,,,59,127
90455,note_off,133,0,0,,4,,,76,127
90458,note_on,3,0,0,,3,,,75,127
90591,note_off,133,0,0,,3,,,75,127
90591,note_off,0,0,0,,12,,,59,127
90594,note_on,3,0,0,,4,,,76,127
90594,note_on,0,0,0,,0,,,60,127
90727,note_off,133,0,0,,4,,,76,127
90730,note_on,3,0,0,,0,,,72,127
90863,note_off,133,0,0,,0,,,72,127
90863,note_off,0,0,0,,0,,,60,127
90866,note_on,3,0,0,,12,,,71,127
90866,note_on,0,0,0,,2,,,62,127
90999,note_off,133,0,0,,12,,,71,127
91002,note_on,3,0,0,,2,,,74,127
91135,note_off,133,0,0,,2,,,74,127
91135,note_off,0,0,0,,2,,,62,127
91138,note_on,3,0,0,,0,,,72,127
91138,note_on,0,0,0,,4,,,64,127
91271,note_off,133,0,0,,0,,,72,127
91274,note_on,3,0,0,,12,,,71,127
91407,note_off,133,0,0,,12,,,71,127
91407,note_off,0,0,0,,4,,,64,127
91410,note_on,3,0,0,,10,,,69,127
91410,note_on,0,0,0,,2,,,62,127
91543,note_off,133,0,0,,10,,,69,127
91546,note_on,3,0,0,,8,,,68,127
91691,note_off,145,0,0,,2,,,62,127
91701,note_off,10,0,0,,8,,,68,127
91704,note_on,3,0,0,,1,,,61,127
91704,note_on,0,0,0,,10,,,81,127
91772,note_on,68,0,0,,12,,,83,127
91778,note_off,6,0,0,,10,,,81,127
91840,note_on,62,0,0,,10,,,81,127
91846,note_off,6,0,0,,12,,,83,127
91908,note_on,62,0,0,,8,,,80,127
91914,note_off,6,0,0,,10,,,81,127
91976,note_on,62,0,0,,6,,,78,127
91982,note_off,6,0,0,,8,,,80,127
92044,note_on,62,0,0,,4,,,76,127
92050,note_off,6,0,0,,6,,,78,127
92112,note_on,62,0,0,,2,,,74,127
92118,note_off,6,0,0,,4,,,76,127
92180,note_on,62,0,0,,1,,,73,127
92186,note_off,6,0,0,,2,,,74,127
92245,note_off,59,0,0,,1,,,61,127
92248,note_on,3,0,0,,1,,,49,127
92248,note_on,0,0,0,,12,,,71,127
92254,note_off,6,0,0,,1,,,73,127
92316,note_on,62,0,0,,10,,,69,127
92322,note_off,6,0,0,,12,,,71,127
92384,note_on,62,0,0,,8,,,68,127
92390,note_off,6,0,0,,10,,,69,127
92452,note_on,62,0,0,,6,,,66,127
92458,note_off,6,0,0,,8,,,68,127
92517,note_off,59,0,0,,1,,,49,127
92520,note_on,3,0,0,,2,,,50,127
92520,note_on,0,0,0,,6,,,78,127
92526,note_off,6,0,0,,6,,,66,127
92789,note_off,263,0,0,,6,,,78,127
92789,note_off,0,0,0,,2,,,50,127
92792,note_on,3,0,0,,4,,,52,127
92792,note_on,0,0,0,,1,,,73,127
92860,note_on,68,0,0,,12,,,71,127
92866,note_off,6,0,0,,1,,,73,127
92928,note_on,62,0,0,,1,,,73,127
92934,note_off,6,0,0,,12,,,71,127
92996,note_on,62,0,0,,12,,,71,127
93002,note_off,6,0,0,,1,,,73,127
93061,note_off,59,0,0,,4,,,52,127
93064,note_on,3,0,0,,2,,,50,127
93064,note_on,0,0,0,,1,,,73,127
93070,note_off,6,0,0,,12,,,71,127
93132,note_on,62,0,0,,12,,,71,127
93138,note_off,6,0,0,,1,,,73,127
93200,note_on,62,0,0,,1,,,73,127
93206,note_off,6,0,0,,12,,,71,127
93268,note_on,62,0,0,,12,,,71,127
93274,note_off,6,0,0,,1,,,73,127
93350,note_off,76,0,0,,2,,,50,127
93360,note_off,10,0,0,,12,,,71,127
93361,note_on,1,0,0,,1,,,49,127
93361,note_on,0,0,0,,10,,,81,127
93430,note_on,69,0,0,,12,,,83,127
93436,note_off,6,0,0,,10,,,81,127
93501,note_on,65,0,0,,10,,,81,127
93505,note_off,4,0,0,,12,,,83,127
93570,note_on,65,0,0,,8,,,80,127
93576,note_off,6,0,0,,10,,,81,127
93641,note_on,65,0,0,,6,,,78,127
93645,note_off,4,0,0,,8,,,80,127
93710,note_on,65,0,0,,4,,,76,127
93716,note_off,6,0,0,,6,,,78,127
93781,note_on,65,0,0,,2,,,74,127
93785,note_off,4,0,0,,4,,,76,127
93850,note_on,65,0,0,,1,,,73,127
93856,note_off,6,0,0,,2,,,74,127
93917,note_off,61,0,0,,1,,,49,127
93921,note_on,4,0,0,,1,,,49,127
93921,note_on,0,0,0,,12,,,71,127
93925,note_off,4,0,0,,1,,,73,127
93990,note_on,65,0,0,,10,,,69,127
93996,note_off,6,0,0,,12,,,71,127
94060,note_on,64,0,0,,8,,,68,127
94066,note_off,6,0,0,,10,,,69,127
94131,note_on,65,0,0,,6,,,66,127
94135,note_off,4,0,0,,8,,,68,127
94197,note_off,62,0,0,,1,,,49,127
94198,note_off,1,0,0,,6,,,66,127
94199,note_on,1,0,0,,2,,,50,127
94199,note_on,0,0,0,,6,,,78,127
94460,note_off,261,0,0,,6,,,78,127
94474,note_off,14,0,0,,2,,,50,127
94478,note_on,4,0,0,,4,,,52,127
94478,note_on,0,0,0,,1,,,73,127
94547,note_on,69,0,0,,12,,,71,127
94553,note_off,6,0,0,,1,,,73,127
94618,note_on,65,0,0,,1,,,73,127
94622,note_off,4,0,0,,12,,,71,127
94687,note_on,65,0,0,,12,,,71,127
94693,note_off,6,0,0,,1,,,73,127
94758,note_on,65,0,0,,4,,,40,127
94758,note_on,0,0,0,,1,,,73,127
94762,note_off,4,0,0,,12,,,71,127
94827,note_on,65,0,0,,12,,,71,127
94833,note_off,6,0,0,,1,,,73,127
94898,note_on,65,0,0,,10,,,69,127
94902,note_off,4,0,0,,12,,,71,127
94973,note_off,71,0,0,,10,,,69,127
94976,note_on,3,0,0,,12,,,71,127
95034,note_off,58,0,0,,4,,,40,127
95035,note_off,1,0,0,,4,,,52,127
95077,note_off,42,0,0,,12,,,71,127
95091,note_on,14,0,0,,10,,,45,127
95091,note_on,0,0,0,,10,,,69,127
97272,note_off,2181,0,0,,10,,,69,127
97272,note_off,0,0,0,,10,,,45,127
102912,end_of_track,5640,1,0,,,,,,
