tick,type,time,meta,track,program,channel,pitch,tempo,note,velocity
0,copyright,0,1,0,,,,,,
0,program_change,0,0,0,6,0,,,,
0,pitchwheel,0,0,0,,0,0,,,
0,program_change,0,0,0,6,1,,,,
0,pitchwheel,0,0,0,,1,-590,,,
0,program_change,0,0,0,6,2,,,,
0,pitchwheel,0,0,0,,2,-272,,,
0,program_change,0,0,0,6,3,,,,
0,pitchwheel,0,0,0,,3,-353,,,
0,program_change,0,0,0,6,4,,,,
0,pitchwheel,0,0,0,,4,-560,,,
0,program_change,0,0,0,6,5,,,,
0,pitchwheel,0,0,0,,5,-80,,,
0,program_change,0,0,0,6,6,,,,
0,pitchwheel,0,0,0,,6,-625,,,
0,program_change,0,0,0,6,7,,,,
0,pitchwheel,0,0,0,,7,-130,,,
0,program_change,0,0,0,6,8,,,,
0,pitchwheel,0,0,0,,8,-512,,,
0,program_change,0,0,0,6,10,,,,
0,pitchwheel,0,0,0,,10,-464,,,
0,program_change,0,0,0,6,11,,,,
0,pitchwheel,0,0,0,,11,-208,,,
0,program_change,0,0,0,6,12,,,,
0,pitchwheel,0,0,0,,12,-553,,,
0,set_tempo,0,1,0,,,,500000,,
118,note_on,118,0,0,,7,,,79,127
352,note_off,234,0,0,,7,,,79,127
353,note_on,1,0,0,,2,,,74,127
587,note_off,234,0,0,,2,,,74,127
588,note_on,1,0,0,,10,,,69,127
822,note_off,234,0,0,,10,,,69,127
823,note_on,1,0,0,,7,,,67,127
823,note_on,0,0,0,,11,,,70,127
1057,note_off,234,0,0,,7,,,67,127
1058,note_on,1,0,0,,2,,,62,127
1292,note_off,234,0,0,,2,,,62,127
1292,note_off,0,0,0,,11,,,70,127
1293,note_on,1,0,0,,10,,,57,127
1293,note_on,0,0,0,,0,,,72,127
1527,note_off,234,0,0,,0,,,72,127
1527,note_off,0,0,0,,10,,,57,127
1528,note_on,1,0,0,,11,,,58,127
1528,note_on,0,0,0,,2,,,74,127
1762,note_off,234,0,0,,2,,,74,127
1762,note_off,0,0,0,,11,,,58,127
1763,note_on,1,0,0,,0,,,60,127
1763,note_on,0,0,0,,3,,,75,127
1997,note_off,234,0,0,,3,,,75,127
1998,note_on,1,0,0,,7,,,67,127
2232,note_off,234,0,0,,0,,,60,127
2233,note_on,1,0,0,,2,,,62,127
2292,note_off,59,0,0,,7,,,67,127
2292,note_on,0,0,0,,6,,,66,127
2350,note_off,58,0,0,,6,,,66,127
2351,note_on,1,0,0,,7,,,67,127
2409,note_off,58,0,0,,7,,,67,127
2410,note_on,1,0,0,,6,,,66,127
2468,note_off,58,0,0,,6,,,66,127
2468,note_off,0,0,0,,2,,,62,127
2469,note_on,1,0,0,,3,,,63,127
2469,note_on,0,0,0,,7,,,67,127
2527,note_off,58,0,0,,7,,,67,127
2528,note_on,1,0,0,,6,,,66,127
2586,note_off,58,0,0,,6,,,66,127
2587,note_on,1,0,0,,7,,,67,127
2645,note_off,58,0,0,,7,,,67,127
2646,note_on,1,0,0,,6,,,66,127
2704,note_off,58,0,0,,6,,,66,127
2704,note_off,0,0,0,,3,,,63,127
2705,note_on,1,0,0,,7,,,55,127
2705,note_on,0,0,0,,7,,,67,127
2939,note_off,234,0,0,,7,,,55,127
2940,note_on,1,0,0,,2,,,62,127
2940,note_on,0,0,0,,6,,,54,127
3058,note_off,118,0,0,,7,,,67,127
3174,note_off,116,0,0,,6,,,54,127
3175,note_on,1,0,0,,4,,,52,127
3175,note_on,0,0,0,,10,,,69,127
3409,note_off,234,0,0,,4,,,52,127
3410,note_on,1,0,0,,2,,,50,127
3526,note_off,116,0,0,,10,,,69,127
3527,note_on,1,0,0,,11,,,70,127
3585,note_off,58,0,0,,11,,,70,127
3586,note_on,1,0,0,,0,,,72,127
3644,note_off,58,0,0,,0,,,72,127
3644,note_off,0,0,0,,2,,,50,127
3644,note_off,0,0,0,,2,,,62,127
3645,note_on,1,0,0,,7,,,55,127
3645,note_on,0,0,0,,2,,,62,127
3645,note_on,0,0,0,,11,,,70,127
3879,note_off,234,0,0,,11,,,70,127
3879,note_off,0,0,0,,7,,,55,127
3880,note_on,1,0,0,,10,,,57,127
3880,note_on,0,0,0,,10,,,69,127
4114,note_off,234,0,0,,10,,,69,127
4114,note_off,0,0,0,,10,,,57,127
4115,note_on,1,0,0,,11,,,58,127
4115,note_on,0,0,0,,7,,,67,127
4349,note_off,234,0,0,,11,,,58,127
4349,note_off,0,0,0,,2,,,62,127
4350,note_on,1,0,0,,6,,,54,127
4350,note_on,0,0,0,,2,,,62,127
4468,note_off,118,0,0,,7,,,67,127
4584,note_off,116,0,0,,6,,,54,127
4585,note_on,1,0,0,,4,,,52,127
4585,note_on,0,0,0,,10,,,69,127
4819,note_off,234,0,0,,4,,,52,127
4820,note_on,1,0,0,,2,,,50,127
4936,note_off,116,0,0,,10,,,69,127
4937,note_on,1,0,0,,11,,,70,127
4995,note_off,58,0,0,,11,,,70,127
4996,note_on,1,0,0,,0,,,72,127
5054,note_off,58,0,0,,0,,,72,127
5054,note_off,0,0,0,,2,,,50,127
5054,note_off,0,0,0,,2,,,62,127
5055,note_on,1,0,0,,7,,,55,127
5055,note_on,0,0,0,,2,,,62,127
5055,note_on,0,0,0,,11,,,70,127
5289,note_off,234,0,0,,11,,,70,127
5289,note_off,0,0,0,,7,,,55,127
5290,note_on,1,0,0,,10,,,57,127
5290,note_on,0,0,0,,10,,,69,127
5524,note_off,234,0,0,,10,,,69,127
5524,note_off,0,0,0,,10,,,57,127
5525,note_on,1,0,0,,11,,,58,127
5525,note_on,0,0,0,,7,,,67,127
5759,note_off,234,0,0,,11,,,58,127
5759,note_off,0,0,0,,2,,,62,127
5760,note_on,1,0,0,,6,,,54,127
5760,note_on,0,0,0,,2,,,62,127
5878,note_off,118,0,0,,7,,,67,127
5994,note_off,116,0,0,,6,,,54,127
5995,note_on,1,0,0,,4,,,52,127
5995,note_on,0,0,0,,10,,,69,127
6229,note_off,234,0,0,,4,,,52,127
6230,note_on,1,0,0,,2,,,50,127
6346,note_off,116,0,0,,10,,,69,127
6347,note_on,1,0,0,,11,,,70,127
6405,note_off,58,0,0,,11,,,70,127
6406,note_on,1,0,0,,0,,,72,127
6464,note_off,58,0,0,,0,,,72,127
6464,note_off,0,0,0,,2,,,50,127
6464,note_off,0,0,0,,2,,,62,127
6465,note_on,1,0,0,,7,,,55,127
6465,note_on,0,0,0,,2,,,62,127
6465,note_on,0,0,0,,11,,,70,127
6699,note_off,234,0,0,,11,,,70,127
6699,note_off,0,0,0,,2,,,62,127
6699,note_off,0,0,0,,7,,,55,127
6700,note_on,1,0,0,,10,,,57,127
6700,note_on,0,0,0,,0,,,72,127
6934,note_off,234,0,0,,0,,,72,127
6934,note_off,0,0,0,,10,,,57,127
6935,note_on,1,0,0,,11,,,58,127
6935,note_on,0,0,0,,2,,,74,127
7169,note_off,234,0,0,,11,,,58,127
7170,note_on,1,0,0,,0,,,48,127
7170,note_on,0,0,0,,0,,,60,127
7404,note_off,234,0,0,,0,,,60,127
7404,note_off,0,0,0,,0,,,48,127
7404,note_off,0,0,0,,2,,,74,127
7405,note_on,1,0,0,,2,,,50,127
7405,note_on,0,0,0,,2,,,62,127
7405,note_on,0,0,0,,0,,,72,127
7521,note_off,116,0,0,,0,,,72,127
7522,note_on,1,0,0,,11,,,70,127
7638,note_off,116,0,0,,11,,,70,127
7638,note_off,0,0,0,,2,,,62,127
7638,note_off,0,0,0,,2,,,50,127
7639,note_on,1,0,0,,3,,,51,127
7639,note_on,0,0,0,,3,,,63,127
7639,note_on,0,0,0,,10,,,69,127
7755,note_off,116,0,0,,10,,,69,127
7756,note_on,1,0,0,,7,,,67,127
7872,note_off,116,0,0,,3,,,63,127
7872,note_off,0,0,0,,3,,,51,127
7873,note_on,1,0,0,,2,,,62,127
7873,note_on,0,0,0,,2,,,50,127
8107,note_off,234,0,0,,2,,,50,127
8107,note_off,0,0,0,,2,,,62,127
8107,note_off,0,0,0,,7,,,67,127
8108,note_on,1,0,0,,0,,,60,127
8108,note_on,0,0,0,,0,,,48,127
8108,note_on,0,0,0,,10,,,69,127
8331,note_off,223,0,0,,10,,,69,127
8342,note_off,11,0,0,,0,,,48,127
8342,note_off,0,0,0,,0,,,60,127
8343,note_on,1,0,0,,11,,,58,127
8343,note_on,0,0,0,,11,,,46,127
8343,note_on,0,0,0,,2,,,74,127
8577,note_off,234,0,0,,11,,,46,127
8577,note_off,0,0,0,,11,,,58,127
8578,note_on,1,0,0,,0,,,60,127
8578,note_on,0,0,0,,0,,,48,127
8812,note_off,234,0,0,,0,,,48,127
8812,note_off,0,0,0,,0,,,60,127
8812,note_off,0,0,0,,2,,,74,127
8813,note_on,1,0,0,,2,,,62,127
8813,note_on,0,0,0,,2,,,50,127
8813,note_on,0,0,0,,0,,,72,127
8929,note_off,116,0,0,,0,,,72,127
8930,note_on,1,0,0,,11,,,70,127
9046,note_off,116,0,0,,11,,,70,127
9046,note_off,0,0,0,,2,,,50,127
9046,note_off,0,0,0,,2,,,62,127
9047,note_on,1,0,0,,3,,,51,127
9047,note_on,0,0,0,,3,,,63,127
9047,note_on,0,0,0,,10,,,69,127
9163,note_off,116,0,0,,10,,,69,127
9164,note_on,1,0,0,,7,,,67,127
9280,note_off,116,0,0,,3,,,63,127
9280,note_off,0,0,0,,3,,,51,127
9281,note_on,1,0,0,,2,,,62,127
9281,note_on,0,0,0,,2,,,50,127
9515,note_off,234,0,0,,2,,,50,127
9515,note_off,0,0,0,,2,,,62,127
9515,note_off,0,0,0,,7,,,67,127
9516,note_on,1,0,0,,0,,,48,127
9516,note_on,0,0,0,,0,,,60,127
9516,note_on,0,0,0,,10,,,69,127
9739,note_off,223,0,0,,10,,,69,127
9750,note_off,11,0,0,,0,,,60,127
9750,note_off,0,0,0,,0,,,48,127
9751,note_on,1,0,0,,11,,,58,127
9751,note_on,0,0,0,,11,,,46,127
9751,note_on,0,0,0,,2,,,74,127
9985,note_off,234,0,0,,11,,,46,127
9985,note_off,0,0,0,,11,,,58,127
9986,note_on,1,0,0,,3,,,51,127
9986,note_on,0,0,0,,3,,,39,127
10220,note_off,234,0,0,,2,,,74,127
10221,note_on,1,0,0,,0,,,72,127
10337,note_off,116,0,0,,0,,,72,127
10338,note_on,1,0,0,,11,,,70,127
10454,note_off,116,0,0,,11,,,70,127
10455,note_on,1,0,0,,10,,,69,127
10571,note_off,116,0,0,,10,,,69,127
10572,note_on,1,0,0,,7,,,67,127
10688,note_off,116,0,0,,7,,,67,127
10688,note_off,0,0,0,,3,,,39,127
10688,note_off,0,0,0,,3,,,51,127
10689,note_on,1,0,0,,2,,,50,127
10689,note_on,0,0,0,,2,,,38,127
10689,note_on,0,0,0,,3,,,63,127
10747,note_off,58,0,0,,3,,,63,127
10748,note_on,1,0,0,,2,,,62,127
10806,note_off,58,0,0,,2,,,62,127
10807,note_on,1,0,0,,3,,,63,127
10865,note_off,58,0,0,,3,,,63,127
10866,note_on,1,0,0,,2,,,62,127
10924,note_off,58,0,0,,2,,,62,127
10925,note_on,1,0,0,,3,,,63,127
10983,note_off,58,0,0,,3,,,63,127
10984,note_on,1,0,0,,2,,,62,127
11337,note_off,353,0,0,,2,,,62,127
11395,note_off,58,0,0,,2,,,38,127
11395,note_off,0,0,0,,2,,,50,127
11396,note_on,1,0,0,,2,,,62,127
11512,note_off,116,0,0,,2,,,62,127
11513,note_on,1,0,0,,7,,,67,127
11629,note_off,116,0,0,,7,,,67,127
11630,note_on,1,0,0,,6,,,66,127
11746,note_off,116,0,0,,6,,,66,127
11747,note_on,1,0,0,,11,,,70,127
11863,note_off,116,0,0,,11,,,70,127
11864,note_on,1,0,0,,10,,,69,127
11980,note_off,116,0,0,,10,,,69,127
11981,note_on,1,0,0,,0,,,72,127
12097,note_off,116,0,0,,0,,,72,127
12098,note_on,1,0,0,,7,,,55,127
12098,note_on,0,0,0,,11,,,70,127
12214,note_off,116,0,0,,7,,,55,127
12215,note_on,1,0,0,,0,,,60,127
12331,note_off,116,0,0,,0,,,60,127
12331,note_off,0,0,0,,11,,,70,127
12332,note_on,1,0,0,,11,,,58,127
12332,note_on,0,0,0,,0,,,72,127
12448,note_off,116,0,0,,11,,,58,127
12449,note_on,1,0,0,,3,,,63,127
12565,note_off,116,0,0,,3,,,63,127
12565,note_off,0,0,0,,0,,,72,127
12566,note_on,1,0,0,,2,,,62,127
12566,note_on,0,0,0,,2,,,74,127
12682,note_off,116,0,0,,2,,,62,127
12683,note_on,1,0,0,,7,,,67,127
12799,note_off,116,0,0,,7,,,67,127
12800,note_on,1,0,0,,6,,,66,127
12916,note_off,116,0,0,,2,,,74,127
12917,note_on,1,0,0,,3,,,75,127
13033,note_off,116,0,0,,3,,,75,127
13033,note_off,0,0,0,,6,,,66,127
13034,note_on,1,0,0,,4,,,64,127
13034,note_on,0,0,0,,2,,,74,127
13150,note_off,116,0,0,,2,,,74,127
13151,note_on,1,0,0,,0,,,72,127
13267,note_off,116,0,0,,0,,,72,127
13267,note_off,0,0,0,,4,,,64,127
13268,note_on,1,0,0,,2,,,62,127
13268,note_on,0,0,0,,11,,,70,127
13384,note_off,116,0,0,,11,,,70,127
13385,note_on,1,0,0,,10,,,69,127
13501,note_off,116,0,0,,10,,,69,127
13501,note_off,0,0,0,,2,,,62,127
13502,note_on,1,0,0,,7,,,43,127
13502,note_on,0,0,0,,0,,,72,127
13560,note_off,58,0,0,,0,,,72,127
13561,note_on,1,0,0,,11,,,70,127
13619,note_off,58,0,0,,11,,,70,127
13620,note_on,1,0,0,,0,,,72,127
13678,note_off,58,0,0,,0,,,72,127
13679,note_on,1,0,0,,11,,,70,127
13737,note_off,58,0,0,,11,,,70,127
13738,note_on,1,0,0,,10,,,69,127
13854,note_off,116,0,0,,10,,,69,127
13855,note_on,1,0,0,,11,,,70,127
13971,note_off,116,0,0,,11,,,70,127
13972,note_on,1,0,0,,7,,,67,127
14206,note_off,234,0,0,,7,,,67,127
14206,note_off,0,0,0,,7,,,43,127
14207,note_on,1,0,0,,2,,,62,127
14323,note_off,116,0,0,,2,,,62,127
14324,note_on,1,0,0,,7,,,67,127
14440,note_off,116,0,0,,7,,,67,127
14441,note_on,1,0,0,,6,,,66,127
14557,note_off,116,0,0,,6,,,66,127
14558,note_on,1,0,0,,11,,,70,127
14674,note_off,116,0,0,,11,,,70,127
14675,note_on,1,0,0,,10,,,69,127
14791,note_off,116,0,0,,10,,,69,127
14792,note_on,1,0,0,,0,,,72,127
14908,note_off,116,0,0,,0,,,72,127
14909,note_on,1,0,0,,7,,,55,127
14909,note_on,0,0,0,,11,,,70,127
15025,note_off,116,0,0,,7,,,55,127
15026,note_on,1,0,0,,0,,,60,127
15142,note_off,116,0,0,,0,,,60,127
15142,note_off,0,0,0,,11,,,70,127
15143,note_on,1,0,0,,11,,,58,127
15143,note_on,0,0,0,,0,,,72,127
15259,note_off,116,0,0,,11,,,58,127
15260,note_on,1,0,0,,3,,,63,127
15376,note_off,116,0,0,,3,,,63,127
15376,note_off,0,0,0,,0,,,72,127
15377,note_on,1,0,0,,2,,,62,127
15377,note_on,0,0,0,,2,,,74,127
15493,note_off,116,0,0,,2,,,62,127
15494,note_on,1,0,0,,7,,,67,127
15610,note_off,116,0,0,,7,,,67,127
15611,note_on,1,0,0,,6,,,66,127
15670,note_off,59,0,0,,2,,,74,127
15729,note_on,59,0,0,,3,,,87,127
15845,note_off,116,0,0,,3,,,87,127
15845,note_off,0,0,0,,6,,,66,127
15846,note_on,1,0,0,,4,,,64,127
15846,note_on,0,0,0,,2,,,86,127
15962,note_off,116,0,0,,2,,,86,127
15963,note_on,1,0,0,,0,,,84,127
16079,note_off,116,0,0,,0,,,84,127
16079,note_off,0,0,0,,4,,,64,127
16080,note_on,1,0,0,,2,,,62,127
16080,note_on,0,0,0,,11,,,82,127
16196,note_off,116,0,0,,11,,,82,127
16197,note_on,1,0,0,,10,,,81,127
16313,note_off,116,0,0,,10,,,81,127
16313,note_off,0,0,0,,2,,,62,127
16314,note_on,1,0,0,,7,,,43,127
16314,note_on,0,0,0,,0,,,84,127
16372,note_off,58,0,0,,0,,,84,127
16373,note_on,1,0,0,,11,,,82,127
16431,note_off,58,0,0,,11,,,82,127
16432,note_on,1,0,0,,0,,,84,127
16490,note_off,58,0,0,,0,,,84,127
16491,note_on,1,0,0,,11,,,82,127
16549,note_off,58,0,0,,11,,,82,127
16550,note_on,1,0,0,,10,,,81,127
16666,note_off,116,0,0,,10,,,81,127
16667,note_on,1,0,0,,11,,,82,127
16783,note_off,116,0,0,,11,,,82,127
16784,note_on,1,0,0,,7,,,79,127
17018,note_off,234,0,0,,7,,,79,127
17018,note_off,0,0,0,,7,,,43,127
17019,note_on,1,0,0,,4,,,64,127
17019,note_on,0,0,0,,11,,,82,127
17135,note_off,116,0,0,,11,,,82,127
17136,note_on,1,0,0,,7,,,79,127
17252,note_off,116,0,0,,7,,,79,127
17252,note_off,0,0,0,,4,,,64,127
17253,note_on,1,0,0,,7,,,67,127
17253,note_on,0,0,0,,4,,,76,127
17369,note_off,116,0,0,,4,,,76,127
17370,note_on,1,0,0,,1,,,73,127
17486,note_off,116,0,0,,1,,,73,127
17486,note_off,0,0,0,,7,,,67,127
17487,note_on,1,0,0,,4,,,64,127
17487,note_on,0,0,0,,4,,,76,127
17603,note_off,116,0,0,,4,,,76,127
17604,note_on,1,0,0,,11,,,82,127
17720,note_off,116,0,0,,11,,,82,127
17720,note_off,0,0,0,,4,,,64,127
17721,note_on,1,0,0,,5,,,65,127
17721,note_on,0,0,0,,10,,,81,127
17837,note_off,116,0,0,,10,,,81,127
17838,note_on,1,0,0,,7,,,79,127
17954,note_off,116,0,0,,7,,,79,127
17954,note_off,0,0,0,,5,,,65,127
17955,note_on,1,0,0,,10,,,69,127
17955,note_on,0,0,0,,5,,,77,127
18071,note_off,116,0,0,,5,,,77,127
18072,note_on,1,0,0,,4,,,76,127
18188,note_off,116,0,0,,4,,,76,127
18188,note_off,0,0,0,,10,,,69,127
18189,note_on,1,0,0,,5,,,65,127
18189,note_on,0,0,0,,2,,,74,127
18307,note_on,118,0,0,,0,,,84,127
18319,note_off,12,0,0,,2,,,74,127
18412,note_off,93,0,0,,0,,,84,127
18423,note_off,11,0,0,,5,,,65,127
18424,note_on,1,0,0,,4,,,64,127
18424,note_on,0,0,0,,11,,,82,127
18540,note_off,116,0,0,,11,,,82,127
18541,note_on,1,0,0,,7,,,79,127
18657,note_off,116,0,0,,7,,,79,127
18657,note_off,0,0,0,,4,,,64,127
18658,note_on,1,0,0,,7,,,67,127
18658,note_on,0,0,0,,4,,,76,127
18774,note_off,116,0,0,,4,,,76,127
18775,note_on,1,0,0,,1,,,73,127
18891,note_off,116,0,0,,1,,,73,127
18891,note_off,0,0,0,,7,,,67,127
18892,note_on,1,0,0,,4,,,64,127
18892,note_on,0,0,0,,4,,,76,127
19008,note_off,116,0,0,,4,,,76,127
19009,note_on,1,0,0,,11,,,82,127
19125,note_off,116,0,0,,11,,,82,127
19125,note_off,0,0,0,,4,,,64,127
19126,note_on,1,0,0,,5,,,65,127
19126,note_on,0,0,0,,10,,,81,127
19242,note_off,116,0,0,,10,,,81,127
19243,note_on,1,0,0,,7,,,79,127
19359,note_off,116,0,0,,7,,,79,127
19359,note_off,0,0,0,,5,,,65,127
19360,note_on,1,0,0,,10,,,69,127
19360,note_on,0,0,0,,5,,,77,127
19476,note_off,116,0,0,,5,,,77,127
19477,note_on,1,0,0,,4,,,76,127
19593,note_off,116,0,0,,4,,,76,127
19593,note_off,0,0,0,,10,,,69,127
19594,note_on,1,0,0,,5,,,65,127
19594,note_on,0,0,0,,2,,,74,127
19712,note_on,118,0,0,,0,,,84,127
19724,note_off,12,0,0,,2,,,74,127
19817,note_off,93,0,0,,0,,,84,127
19828,note_off,11,0,0,,5,,,65,127
19829,note_on,1,0,0,,4,,,64,127
19829,note_on,0,0,0,,11,,,82,127
19945,note_off,116,0,0,,11,,,82,127
19946,note_on,1,0,0,,7,,,79,127
20062,note_off,116,0,0,,7,,,79,127
20062,note_off,0,0,0,,4,,,64,127
20063,note_on,1,0,0,,7,,,67,127
20063,note_on,0,0,0,,4,,,76,127
20179,note_off,116,0,0,,4,,,76,127
20180,note_on,1,0,0,,1,,,73,127
20296,note_off,116,0,0,,1,,,73,127
20296,note_off,0,0,0,,7,,,67,127
20297,note_on,1,0,0,,4,,,64,127
20297,note_on,0,0,0,,4,,,76,127
20413,note_off,116,0,0,,4,,,76,127
20414,note_on,1,0,0,,11,,,82,127
20530,note_off,116,0,0,,11,,,82,127
20530,note_off,0,0,0,,4,,,64,127
20531,note_on,1,0,0,,5,,,65,127
20531,note_on,0,0,0,,10,,,81,127
20647,note_off,116,0,0,,10,,,81,127
20648,note_on,1,0,0,,4,,,76,127
20764,note_off,116,0,0,,4,,,76,127
20765,note_on,1,0,0,,5,,,77,127
20881,note_off,116,0,0,,5,,,77,127
20882,note_on,1,0,0,,1,,,73,127
20998,note_off,116,0,0,,1,,,73,127
20998,note_off,0,0,0,,5,,,65,127
20999,note_on,1,0,0,,2,,,62,127
20999,note_on,0,0,0,,2,,,74,127
21115,note_off,116,0,0,,2,,,74,127
21116,note_on,1,0,0,,10,,,69,127
21232,note_off,116,0,0,,10,,,69,127
21232,note_off,0,0,0,,2,,,62,127
21233,note_on,1,0,0,,7,,,55,127
21233,note_on,0,0,0,,11,,,70,127
21349,note_off,116,0,0,,11,,,70,127
21350,note_on,1,0,0,,5,,,65,127
21466,note_off,116,0,0,,5,,,65,127
21467,note_on,1,0,0,,7,,,67,127
21583,note_off,116,0,0,,7,,,67,127
21584,note_on,1,0,0,,4,,,64,127
21700,note_off,116,0,0,,4,,,64,127
21700,note_off,0,0,0,,7,,,55,127
21701,note_on,1,0,0,,11,,,58,127
21701,note_on,0,0,0,,5,,,65,127
21817,note_off,116,0,0,,5,,,65,127
21818,note_on,1,0,0,,2,,,62,127
21934,note_off,116,0,0,,11,,,58,127
21935,note_on,1,0,0,,10,,,45,127
22169,note_off,234,0,0,,2,,,62,127
22170,note_on,1,0,0,,1,,,61,127
22228,note_off,58,0,0,,1,,,61,127
22229,note_on,1,0,0,,2,,,62,127
22287,note_off,58,0,0,,2,,,62,127
22288,note_on,1,0,0,,1,,,61,127
22346,note_off,58,0,0,,1,,,61,127
22347,note_on,1,0,0,,2,,,62,127
22405,note_off,58,0,0,,2,,,62,127
22406,note_on,1,0,0,,1,,,61,127
22640,note_off,234,0,0,,1,,,61,127
22640,note_off,0,0,0,,10,,,45,127
22641,note_on,1,0,0,,4,,,52,127
22641,note_on,0,0,0,,11,,,70,127
22757,note_off,116,0,0,,11,,,70,127
22758,note_on,1,0,0,,7,,,67,127
22874,note_off,116,0,0,,7,,,67,127
22874,note_off,0,0,0,,4,,,52,127
22875,note_on,1,0,0,,7,,,55,127
22875,note_on,0,0,0,,4,,,64,127
22991,note_off,116,0,0,,4,,,64,127
22992,note_on,1,0,0,,1,,,61,127
23108,note_off,116,0,0,,1,,,61,127
23108,note_off,0,0,0,,7,,,55,127
23109,note_on,1,0,0,,4,,,52,127
23109,note_on,0,0,0,,4,,,64,127
23225,note_off,116,0,0,,4,,,64,127
23226,note_on,1,0,0,,11,,,70,127
23342,note_off,116,0,0,,11,,,70,127
23342,note_off,0,0,0,,4,,,52,127
23343,note_on,1,0,0,,5,,,53,127
23343,note_on,0,0,0,,10,,,69,127
23459,note_off,116,0,0,,10,,,69,127
23460,note_on,1,0,0,,7,,,67,127
23576,note_off,116,0,0,,7,,,67,127
23576,note_off,0,0,0,,5,,,53,127
23577,note_on,1,0,0,,10,,,57,127
23577,note_on,0,0,0,,5,,,65,127
23693,note_off,116,0,0,,5,,,65,127
23694,note_on,1,0,0,,4,,,64,127
23810,note_off,116,0,0,,4,,,64,127
23810,note_off,0,0,0,,10,,,57,127
23811,note_on,1,0,0,,5,,,53,127
23811,note_on,0,0,0,,2,,,62,127
23929,note_on,118,0,0,,0,,,72,127
23941,note_off,12,0,0,,2,,,62,127
24034,note_off,93,0,0,,0,,,72,127
24045,note_off,11,0,0,,5,,,53,127
24046,note_on,1,0,0,,4,,,52,127
24046,note_on,0,0,0,,11,,,70,127
24162,note_off,116,0,0,,11,,,70,127
24163,note_on,1,0,0,,7,,,67,127
24279,note_off,116,0,0,,7,,,67,127
24279,note_off,0,0,0,,4,,,52,127
24280,note_on,1,0,0,,7,,,55,127
24280,note_on,0,0,0,,4,,,64,127
24396,note_off,116,0,0,,4,,,64,127
24397,note_on,1,0,0,,1,,,61,127
24513,note_off,116,0,0,,1,,,61,127
24513,note_off,0,0,0,,7,,,55,127
24514,note_on,1,0,0,,4,,,52,127
24514,note_on,0,0,0,,4,,,64,127
24630,note_off,116,0,0,,4,,,64,127
24631,note_on,1,0,0,,11,,,70,127
24747,note_off,116,0,0,,11,,,70,127
24747,note_off,0,0,0,,4,,,52,127
24748,note_on,1,0,0,,5,,,53,127
24748,note_on,0,0,0,,10,,,69,127
24864,note_off,116,0,0,,10,,,69,127
24865,note_on,1,0,0,,7,,,67,127
24981,note_off,116,0,0,,7,,,67,127
24981,note_off,0,0,0,,5,,,53,127
24982,note_on,1,0,0,,10,,,57,127
24982,note_on,0,0,0,,5,,,65,127
25098,note_off,116,0,0,,5,,,65,127
25099,note_on,1,0,0,,4,,,64,127
25215,note_off,116,0,0,,4,,,64,127
25215,note_off,0,0,0,,10,,,57,127
25216,note_on,1,0,0,,5,,,53,127
25216,note_on,0,0,0,,2,,,62,127
25334,note_on,118,0,0,,2,,,74,127
25358,note_off,24,0,0,,2,,,62,127
25450,note_off,92,0,0,,2,,,74,127
25450,note_off,0,0,0,,5,,,53,127
25451,note_on,1,0,0,,4,,,52,127
25451,note_on,0,0,0,,1,,,73,127
25567,note_off,116,0,0,,1,,,73,127
25568,note_on,1,0,0,,11,,,70,127
25684,note_off,116,0,0,,11,,,70,127
25684,note_off,0,0,0,,4,,,52,127
25685,note_on,1,0,0,,7,,,55,127
25685,note_on,0,0,0,,7,,,67,127
25801,note_off,116,0,0,,7,,,67,127
25802,note_on,1,0,0,,4,,,64,127
25918,note_off,116,0,0,,4,,,64,127
25918,note_off,0,0,0,,7,,,55,127
25919,note_on,1,0,0,,4,,,52,127
25919,note_on,0,0,0,,7,,,67,127
26035,note_off,116,0,0,,7,,,67,127
26036,note_on,1,0,0,,1,,,73,127
26152,note_off,116,0,0,,1,,,73,127
26152,note_off,0,0,0,,4,,,52,127
26153,note_on,1,0,0,,5,,,53,127
26153,note_on,0,0,0,,2,,,74,127
26271,note_on,118,0,0,,5,,,65,127
26330,note_off,59,0,0,,2,,,74,127
26388,note_off,58,0,0,,5,,,65,127
26388,note_off,0,0,0,,5,,,53,127
26389,note_on,1,0,0,,4,,,52,127
26389,note_on,0,0,0,,7,,,67,127
26507,note_on,118,0,0,,4,,,76,127
26566,note_off,59,0,0,,7,,,67,127
26624,note_off,58,0,0,,4,,,52,127
26625,note_on,1,0,0,,2,,,50,127
26625,note_on,0,0,0,,10,,,69,127
26684,note_off,59,0,0,,4,,,76,127
26743,note_on,59,0,0,,5,,,77,127
26802,note_off,59,0,0,,10,,,69,127
26860,note_off,58,0,0,,2,,,50,127
26861,note_on,1,0,0,,7,,,55,127
26861,note_on,0,0,0,,11,,,70,127
26920,note_off,59,0,0,,5,,,77,127
26979,note_on,59,0,0,,7,,,79,127
27038,note_off,59,0,0,,11,,,70,127
27096,note_off,58,0,0,,7,,,79,127
27096,note_off,0,0,0,,7,,,55,127
27097,note_on,1,0,0,,10,,,57,127
27097,note_on,0,0,0,,5,,,77,127
27213,note_off,116,0,0,,5,,,77,127
27214,note_on,1,0,0,,4,,,76,127
27330,note_off,116,0,0,,4,,,76,127
27330,note_off,0,0,0,,10,,,57,127
27331,note_on,1,0,0,,10,,,45,127
27331,note_on,0,0,0,,2,,,74,127
27447,note_off,116,0,0,,2,,,74,127
27448,note_on,1,0,0,,1,,,73,127
27564,note_off,116,0,0,,1,,,73,127
27564,note_off,0,0,0,,10,,,45,127
27565,note_on,1,0,0,,2,,,50,127
27565,note_on,0,0,0,,1,,,73,127
28034,note_off,469,0,0,,1,,,73,127
28035,note_on,1,0,0,,2,,,74,127
28269,note_off,234,0,0,,2,,,74,127
28269,note_off,0,0,0,,2,,,50,127
28270,note_on,1,0,0,,4,,,52,127
28270,note_on,0,0,0,,11,,,70,127
28386,note_off,116,0,0,,11,,,70,127
28387,note_on,1,0,0,,7,,,67,127
28503,note_off,116,0,0,,7,,,67,127
28503,note_off,0,0,0,,4,,,52,127
28504,note_on,1,0,0,,7,,,55,127
28504,note_on,0,0,0,,4,,,64,127
28620,note_off,116,0,0,,4,,,64,127
28621,note_on,1,0,0,,1,,,61,127
28737,note_off,116,0,0,,1,,,61,127
28737,note_off,0,0,0,,7,,,55,127
28738,note_on,1,0,0,,4,,,52,127
28738,note_on,0,0,0,,4,,,64,127
28854,note_off,116,0,0,,4,,,64,127
28855,note_on,1,0,0,,11,,,70,127
28971,note_off,116,0,0,,11,,,70,127
28971,note_off,0,0,0,,4,,,52,127
28972,note_on,1,0,0,,5,,,53,127
28972,note_on,0,0,0,,10,,,69,127
29088,note_off,116,0,0,,10,,,69,127
29089,note_on,1,0,0,,7,,,67,127
29205,note_off,116,0,0,,7,,,67,127
29205,note_off,0,0,0,,5,,,53,127
29206,note_on,1,0,0,,10,,,57,127
29206,note_on,0,0,0,,5,,,65,127
29322,note_off,116,0,0,,5,,,65,127
29323,note_on,1,0,0,,4,,,64,127
29439,note_off,116,0,0,,4,,,64,127
29439,note_off,0,0,0,,10,,,57,127
29440,note_on,1,0,0,,5,,,53,127
29440,note_on,0,0,0,,2,,,62,127
29558,note_on,118,0,0,,0,,,72,127
29570,note_off,12,0,0,,2,,,62,127
29663,note_off,93,0,0,,0,,,72,127
29674,note_off,11,0,0,,5,,,53,127
29675,note_on,1,0,0,,4,,,52,127
29675,note_on,0,0,0,,11,,,70,127
29791,note_off,116,0,0,,11,,,70,127
29792,note_on,1,0,0,,7,,,67,127
29908,note_off,116,0,0,,7,,,67,127
29908,note_off,0,0,0,,4,,,52,127
29909,note_on,1,0,0,,7,,,55,127
29909,note_on,0,0,0,,4,,,64,127
30025,note_off,116,0,0,,4,,,64,127
30026,note_on,1,0,0,,1,,,61,127
30142,note_off,116,0,0,,1,,,61,127
30142,note_off,0,0,0,,7,,,55,127
30143,note_on,1,0,0,,4,,,52,127
30143,note_on,0,0,0,,4,,,64,127
30259,note_off,116,0,0,,4,,,64,127
30260,note_on,1,0,0,,11,,,70,127
30376,note_off,116,0,0,,11,,,70,127
30376,note_off,0,0,0,,4,,,52,127
30377,note_on,1,0,0,,5,,,53,127
30377,note_on,0,0,0,,10,,,69,127
30493,note_off,116,0,0,,10,,,69,127
30494,note_on,1,0,0,,7,,,67,127
30610,note_off,116,0,0,,7,,,67,127
30610,note_off,0,0,0,,5,,,53,127
30611,note_on,1,0,0,,10,,,57,127
30611,note_on,0,0,0,,5,,,65,127
30727,note_off,116,0,0,,5,,,65,127
30728,note_on,1,0,0,,4,,,64,127
30844,note_off,116,0,0,,4,,,64,127
30844,note_off,0,0,0,,10,,,57,127
30845,note_on,1,0,0,,5,,,53,127
30845,note_on,0,0,0,,2,,,62,127
30963,note_on,118,0,0,,2,,,74,127
30987,note_off,24,0,0,,2,,,62,127
31079,note_off,92,0,0,,2,,,74,127
31079,note_off,0,0,0,,5,,,53,127
31080,note_on,1,0,0,,4,,,52,127
31080,note_on,0,0,0,,1,,,73,127
31196,note_off,116,0,0,,1,,,73,127
31197,note_on,1,0,0,,11,,,70,127
31313,note_off,116,0,0,,11,,,70,127
31313,note_off,0,0,0,,4,,,52,127
31314,note_on,1,0,0,,7,,,55,127
31314,note_on,0,0,0,,7,,,67,127
31430,note_off,116,0,0,,7,,,67,127
31431,note_on,1,0,0,,4,,,64,127
31547,note_off,116,0,0,,4,,,64,127
31547,note_off,0,0,0,,7,,,55,127
31548,note_on,1,0,0,,4,,,52,127
31548,note_on,0,0,0,,7,,,67,127
31664,note_off,116,0,0,,7,,,67,127
31665,note_on,1,0,0,,1,,,73,127
31781,note_off,116,0,0,,1,,,73,127
31781,note_off,0,0,0,,4,,,52,127
31782,note_on,1,0,0,,5,,,53,127
31782,note_on,0,0,0,,2,,,74,127
31900,note_on,118,0,0,,5,,,65,127
32016,note_off,116,0,0,,5,,,65,127
32016,note_off,0,0,0,,5,,,53,127
32017,note_on,1,0,0,,4,,,52,127
32017,note_on,0,0,0,,7,,,67,127
32135,note_off,118,0,0,,2,,,74,127
32135,note_on,0,0,0,,4,,,76,127
32250,note_off,115,0,0,,7,,,67,127
32251,note_off,1,0,0,,4,,,52,127
32252,note_on,1,0,0,,2,,,50,127
32252,note_on,0,0,0,,10,,,69,127
32367,note_off,115,0,0,,4,,,76,127
32369,note_on,2,0,0,,5,,,77,127
32484,note_off,115,0,0,,10,,,69,127
32485,note_off,1,0,0,,2,,,50,127
32486,note_on,1,0,0,,7,,,55,127
32486,note_on,0,0,0,,11,,,70,127
32601,note_off,115,0,0,,5,,,77,127
32603,note_on,2,0,0,,7,,,79,127
32662,note_off,59,0,0,,11,,,70,127
32720,note_off,58,0,0,,7,,,79,127
32720,note_off,0,0,0,,7,,,55,127
32721,note_on,1,0,0,,10,,,57,127
32721,note_on,0,0,0,,5,,,77,127
32837,note_off,116,0,0,,5,,,77,127
32838,note_on,1,0,0,,4,,,76,127
32954,note_off,116,0,0,,4,,,76,127
32955,note_on,1,0,0,,10,,,45,127
32955,note_on,0,0,0,,2,,,74,127
33071,note_off,116,0,0,,2,,,74,127
33072,note_on,1,0,0,,1,,,73,127
33177,note_off,105,0,0,,1,,,73,127
33184,note_off,7,0,0,,10,,,57,127
33188,note_off,4,0,0,,10,,,45,127
33189,note_on,1,0,0,,2,,,50,127
33189,note_on,0,0,0,,2,,,62,127
33305,note_off,116,0,0,,2,,,62,127
33306,note_on,1,0,0,,5,,,65,127
33422,note_off,116,0,0,,5,,,65,127
33422,note_off,0,0,0,,2,,,50,127
33423,note_on,1,0,0,,4,,,52,127
33423,note_on,0,0,0,,10,,,69,127
33539,note_off,116,0,0,,10,,,69,127
33540,note_on,1,0,0,,2,,,74,127
33656,note_off,116,0,0,,4,,,52,127
33657,note_on,1,0,0,,5,,,53,127
33657,note_on,0,0,0,,10,,,69,127
33772,note_off,115,0,0,,2,,,74,127
33774,note_on,2,0,0,,5,,,77,127
33889,note_off,115,0,0,,10,,,69,127
33890,note_off,1,0,0,,5,,,77,127
33890,note_off,0,0,0,,5,,,53,127
33891,note_on,1,0,0,,7,,,55,127
33891,note_on,0,0,0,,4,,,76,127
34007,note_off,116,0,0,,4,,,76,127
34008,note_on,1,0,0,,7,,,79,127
34124,note_off,116,0,0,,7,,,79,127
34124,note_off,0,0,0,,7,,,55,127
34125,note_on,1,0,0,,10,,,57,127
34125,note_on,0,0,0,,5,,,77,127
34241,note_off,116,0,0,,5,,,77,127
34242,note_on,1,0,0,,4,,,76,127
34358,note_off,116,0,0,,4,,,76,127
34359,note_on,1,0,0,,10,,,45,127
34359,note_on,0,0,0,,2,,,74,127
34475,note_off,116,0,0,,2,,,74,127
34476,note_on,1,0,0,,1,,,73,127
34581,note_off,105,0,0,,1,,,73,127
34588,note_off,7,0,0,,10,,,57,127
34592,note_off,4,0,0,,10,,,45,127
34593,note_on,1,0,0,,2,,,50,127
34593,note_on,0,0,0,,2,,,62,127
34709,note_off,116,0,0,,2,,,62,127
34710,note_on,1,0,0,,5,,,65,127
34826,note_off,116,0,0,,5,,,65,127
34826,note_off,0,0,0,,2,,,50,127
34827,note_on,1,0,0,,4,,,52,127
34827,note_on,0,0,0,,10,,,69,127
34945,note_on,118,0,0,,2,,,74,127
35060,note_off,115,0,0,,10,,,69,127
35061,note_off,1,0,0,,2,,,74,127
35061,note_off,0,0,0,,4,,,52,127
35062,note_on,1,0,0,,5,,,53,127
35062,note_on,0,0,0,,10,,,69,127
35180,note_on,118,0,0,,5,,,77,127
35295,note_off,115,0,0,,10,,,69,127
35296,note_off,1,0,0,,5,,,77,127
35296,note_off,0,0,0,,5,,,53,127
35297,note_on,1,0,0,,7,,,55,127
35297,note_on,0,0,0,,4,,,76,127
35413,note_off,116,0,0,,4,,,76,127
35414,note_on,1,0,0,,7,,,79,127
35530,note_off,116,0,0,,7,,,79,127
35530,note_off,0,0,0,,7,,,55,127
35531,note_on,1,0,0,,10,,,57,127
35531,note_on,0,0,0,,5,,,77,127
35647,note_off,116,0,0,,5,,,77,127
35648,note_on,1,0,0,,4,,,76,127
35764,note_off,116,0,0,,4,,,76,127
35765,note_on,1,0,0,,10,,,45,127
35765,note_on,0,0,0,,2,,,74,127
35881,note_off,116,0,0,,2,,,74,127
35882,note_on,1,0,0,,1,,,73,127
35987,note_off,105,0,0,,1,,,73,127
35994,note_off,7,0,0,,10,,,57,127
35998,note_off,4,0,0,,10,,,45,127
35999,note_on,1,0,0,,2,,,50,127
35999,note_on,0,0,0,,2,,,62,127
36115,note_off,116,0,0,,2,,,62,127
36116,note_on,1,0,0,,5,,,65,127
36232,note_off,116,0,0,,5,,,65,127
36232,note_off,0,0,0,,2,,,50,127
36233,note_on,1,0,0,,4,,,52,127
36233,note_on,0,0,0,,10,,,69,127
36349,note_off,116,0,0,,10,,,69,127
36350,note_on,1,0,0,,2,,,74,127
36466,note_off,116,0,0,,4,,,52,127
36467,note_on,1,0,0,,5,,,53,127
36467,note_on,0,0,0,,10,,,69,127
36582,note_off,115,0,0,,2,,,74,127
36583,note_off,1,0,0,,10,,,69,127
36584,note_on,1,0,0,,5,,,77,127
36700,note_off,116,0,0,,5,,,77,127
36700,note_off,0,0,0,,5,,,53,127
36701,note_on,1,0,0,,7,,,55,127
36701,note_on,0,0,0,,4,,,76,127
36817,note_off,116,0,0,,4,,,76,127
36818,note_on,1,0,0,,7,,,79,127
36934,note_off,116,0,0,,7,,,79,127
36934,note_off,0,0,0,,7,,,55,127
36935,note_on,1,0,0,,10,,,57,127
36935,note_on,0,0,0,,5,,,77,127
37051,note_off,116,0,0,,5,,,77,127
37052,note_on,1,0,0,,4,,,76,127
37168,note_off,116,0,0,,4,,,76,127
37169,note_on,1,0,0,,10,,,45,127
37169,note_on,0,0,0,,2,,,74,127
37285,note_off,116,0,0,,2,,,74,127
37286,note_off,1,0,0,,10,,,57,127
37286,note_on,0,0,0,,1,,,73,127
37402,note_off,116,0,0,,1,,,73,127
37402,note_off,0,0,0,,10,,,45,127
37403,note_on,1,0,0,,2,,,38,127
37403,note_on,0,0,0,,4,,,76,127
37461,note_off,58,0,0,,4,,,76,127
37462,note_on,1,0,0,,2,,,74,127
37520,note_off,58,0,0,,2,,,74,127
37521,note_on,1,0,0,,4,,,76,127
37579,note_off,58,0,0,,4,,,76,127
37580,note_on,1,0,0,,2,,,74,127
37638,note_off,58,0,0,,2,,,74,127
37639,note_on,1,0,0,,4,,,76,127
37697,note_off,58,0,0,,4,,,76,127
37698,note_on,1,0,0,,2,,,74,127
37756,note_off,58,0,0,,2,,,74,127
37757,note_on,1,0,0,,4,,,76,127
37815,note_off,58,0,0,,4,,,76,127
37816,note_on,1,0,0,,2,,,74,127
38061,note_off,245,0,0,,2,,,74,127
38109,note_off,48,0,0,,2,,,38,127
38110,note_on,1,0,0,,10,,,81,127
38344,note_off,234,0,0,,10,,,81,127
38345,note_on,1,0,0,,6,,,78,127
38579,note_off,234,0,0,,6,,,78,127
38580,note_on,1,0,0,,2,,,74,127
38814,note_off,234,0,0,,2,,,74,127
38815,note_on,1,0,0,,10,,,69,127
38815,note_on,0,0,0,,0,,,72,127
39049,note_off,234,0,0,,10,,,69,127
39050,note_on,1,0,0,,6,,,66,127
39284,note_off,234,0,0,,6,,,66,127
39284,note_off,0,0,0,,0,,,72,127
39285,note_on,1,0,0,,3,,,63,127
39285,note_on,0,0,0,,0,,,72,127
39519,note_off,234,0,0,,0,,,72,127
39519,note_off,0,0,0,,3,,,63,127
39520,note_on,1,0,0,,0,,,60,127
39520,note_on,0,0,0,,10,,,81,127
39754,note_off,234,0,0,,10,,,81,127
39755,note_on,1,0,0,,6,,,78,127
39985,note_off,230,0,0,,0,,,60,127
39989,note_off,4,0,0,,6,,,78,127
39990,note_on,1,0,0,,0,,,72,127
40224,note_off,234,0,0,,0,,,72,127
40225,note_on,1,0,0,,10,,,69,127
40225,note_on,0,0,0,,1,,,73,127
40459,note_off,234,0,0,,1,,,73,127
40459,note_off,0,0,0,,10,,,69,127
40460,note_on,1,0,0,,7,,,67,127
40460,note_on,0,0,0,,2,,,74,127
40694,note_off,234,0,0,,7,,,67,127
40695,note_on,1,0,0,,2,,,62,127
40901,note_off,206,0,0,,2,,,74,127
40929,note_off,28,0,0,,2,,,62,127
40930,note_on,1,0,0,,11,,,58,127
40930,note_on,0,0,0,,7,,,79,127
41164,note_off,234,0,0,,7,,,79,127
41165,note_on,1,0,0,,2,,,74,127
41399,note_off,234,0,0,,2,,,74,127
41400,note_on,1,0,0,,11,,,70,127
41634,note_off,234,0,0,,11,,,70,127
41634,note_off,0,0,0,,11,,,58,127
41635,note_on,1,0,0,,7,,,67,127
41635,note_on,0,0,0,,12,,,71,127
41869,note_off,234,0,0,,12,,,71,127
41869,note_off,0,0,0,,7,,,67,127
41870,note_on,1,0,0,,6,,,66,127
41870,note_on,0,0,0,,0,,,72,127
42104,note_off,234,0,0,,6,,,66,127
42105,note_on,1,0,0,,0,,,60,127
42311,note_off,206,0,0,,0,,,72,127
42339,note_off,28,0,0,,0,,,60,127
42340,note_on,1,0,0,,10,,,57,127
42340,note_on,0,0,0,,10,,,81,127
42574,note_off,234,0,0,,10,,,81,127
42575,note_on,1,0,0,,6,,,78,127
42805,note_off,230,0,0,,10,,,57,127
42809,note_off,4,0,0,,6,,,78,127
42810,note_on,1,0,0,,0,,,72,127
43044,note_off,234,0,0,,0,,,72,127
43045,note_on,1,0,0,,6,,,66,127
43045,note_on,0,0,0,,10,,,69,127
43279,note_off,234,0,0,,10,,,69,127
43279,note_off,0,0,0,,6,,,66,127
43280,note_on,1,0,0,,7,,,67,127
43280,note_on,0,0,0,,11,,,70,127
43514,note_off,234,0,0,,7,,,67,127
43515,note_on,1,0,0,,2,,,62,127
43749,note_off,234,0,0,,2,,,62,127
43750,note_on,1,0,0,,11,,,58,127
43984,note_off,234,0,0,,11,,,58,127
43984,note_off,0,0,0,,11,,,70,127
43985,note_on,1,0,0,,7,,,55,127
43985,note_on,0,0,0,,2,,,74,127
44219,note_off,234,0,0,,2,,,74,127
44219,note_off,0,0,0,,7,,,55,127
44220,note_on,1,0,0,,11,,,58,127
44220,note_on,0,0,0,,7,,,79,127
44454,note_off,234,0,0,,7,,,79,127
44454,note_off,0,0,0,,11,,,58,127
44455,note_on,1,0,0,,0,,,60,127
44455,note_on,0,0,0,,5,,,77,127
44689,note_off,234,0,0,,5,,,77,127
44690,note_on,1,0,0,,0,,,48,127
44690,note_on,0,0,0,,3,,,75,127
44924,note_off,234,0,0,,3,,,75,127
44924,note_off,0,0,0,,0,,,48,127
44925,note_on,1,0,0,,2,,,50,127
44925,note_on,0,0,0,,6,,,78,127
44925,note_on,0,0,0,,2,,,74,127
45159,note_off,234,0,0,,6,,,78,127
45159,note_off,0,0,0,,2,,,50,127
45160,note_on,1,0,0,,3,,,51,127
45160,note_on,0,0,0,,7,,,79,127
45394,note_off,234,0,0,,2,,,74,127
45395,note_on,1,0,0,,0,,,72,127
45511,note_off,116,0,0,,0,,,72,127
45512,note_on,1,0,0,,11,,,70,127
45628,note_off,116,0,0,,11,,,70,127
45628,note_off,0,0,0,,7,,,79,127
45629,note_on,1,0,0,,10,,,69,127
45745,note_off,116,0,0,,10,,,69,127
45746,note_on,1,0,0,,7,,,67,127
45862,note_off,116,0,0,,7,,,67,127
45862,note_off,0,0,0,,3,,,51,127
45863,note_off,1,0,0,,0,,,60,127
45863,note_on,0,0,0,,2,,,50,127
45863,note_on,0,0,0,,2,,,62,127
45863,note_on,0,0,0,,7,,,67,127
46097,note_off,234,0,0,,7,,,67,127
46097,note_off,0,0,0,,2,,,62,127
46097,note_off,0,0,0,,2,,,50,127
46098,note_on,1,0,0,,0,,,48,127
46098,note_on,0,0,0,,0,,,60,127
46098,note_on,0,0,0,,10,,,69,127
46321,note_off,223,0,0,,10,,,69,127
46332,note_off,11,0,0,,0,,,60,127
46332,note_off,0,0,0,,0,,,48,127
46333,note_on,1,0,0,,11,,,46,127
46333,note_on,0,0,0,,11,,,58,127
46333,note_on,0,0,0,,2,,,74,127
46567,note_off,234,0,0,,11,,,58,127
46567,note_off,0,0,0,,11,,,46,127
46568,note_on,1,0,0,,0,,,48,127
46568,note_on,0,0,0,,0,,,60,127
46802,note_off,234,0,0,,0,,,60,127
46802,note_off,0,0,0,,0,,,48,127
46802,note_off,0,0,0,,2,,,74,127
46803,note_on,1,0,0,,2,,,62,127
46803,note_on,0,0,0,,2,,,50,127
46803,note_on,0,0,0,,0,,,72,127
46919,note_off,116,0,0,,0,,,72,127
46920,note_on,1,0,0,,11,,,70,127
47036,note_off,116,0,0,,11,,,70,127
47036,note_off,0,0,0,,2,,,50,127
47036,note_off,0,0,0,,2,,,62,127
47037,note_on,1,0,0,,3,,,51,127
47037,note_on,0,0,0,,3,,,63,127
47037,note_on,0,0,0,,10,,,69,127
47153,note_off,116,0,0,,10,,,69,127
47154,note_on,1,0,0,,7,,,67,127
47270,note_off,116,0,0,,3,,,63,127
47270,note_off,0,0,0,,3,,,51,127
47271,note_on,1,0,0,,2,,,50,127
47271,note_on,0,0,0,,2,,,62,127
47505,note_off,234,0,0,,2,,,62,127
47505,note_off,0,0,0,,2,,,50,127
47505,note_off,0,0,0,,7,,,67,127
47506,note_on,1,0,0,,0,,,48,127
47506,note_on,0,0,0,,0,,,60,127
47506,note_on,0,0,0,,10,,,69,127
47729,note_off,223,0,0,,10,,,69,127
47740,note_off,11,0,0,,0,,,60,127
47740,note_off,0,0,0,,0,,,48,127
47741,note_on,1,0,0,,11,,,46,127
47741,note_on,0,0,0,,11,,,58,127
47741,note_on,0,0,0,,2,,,74,127
47975,note_off,234,0,0,,11,,,58,127
47975,note_off,0,0,0,,11,,,46,127
47976,note_on,1,0,0,,3,,,39,127
47976,note_on,0,0,0,,3,,,51,127
48210,note_off,234,0,0,,2,,,74,127
48211,note_on,1,0,0,,0,,,72,127
48327,note_off,116,0,0,,0,,,72,127
48328,note_on,1,0,0,,11,,,70,127
48444,note_off,116,0,0,,11,,,70,127
48445,note_on,1,0,0,,10,,,69,127
48561,note_off,116,0,0,,10,,,69,127
48562,note_on,1,0,0,,7,,,67,127
48678,note_off,116,0,0,,7,,,67,127
48678,note_off,0,0,0,,3,,,51,127
48678,note_off,0,0,0,,3,,,39,127
48679,note_on,1,0,0,,2,,,50,127
48679,note_on,0,0,0,,2,,,38,127
48679,note_on,0,0,0,,3,,,63,127
48737,note_off,58,0,0,,3,,,63,127
48738,note_on,1,0,0,,2,,,62,127
48796,note_off,58,0,0,,2,,,62,127
48797,note_on,1,0,0,,3,,,63,127
48855,note_off,58,0,0,,3,,,63,127
48856,note_on,1,0,0,,2,,,62,127
48914,note_off,58,0,0,,2,,,62,127
48915,note_on,1,0,0,,3,,,63,127
48973,note_off,58,0,0,,3,,,63,127
48974,note_on,1,0,0,,2,,,62,127
49327,note_off,353,0,0,,2,,,62,127
49385,note_off,58,0,0,,2,,,38,127
49385,note_off,0,0,0,,2,,,50,127
49386,note_on,1,0,0,,2,,,62,127
49386,note_on,0,0,0,,5,,,65,127
49502,note_off,116,0,0,,5,,,65,127
49503,note_on,1,0,0,,8,,,68,127
49619,note_off,116,0,0,,8,,,68,127
49619,note_off,0,0,0,,2,,,62,127
49620,note_on,1,0,0,,2,,,62,127
49620,note_on,0,0,0,,7,,,67,127
49736,note_off,116,0,0,,7,,,67,127
49737,note_on,1,0,0,,0,,,72,127
49853,note_off,116,0,0,,0,,,72,127
49853,note_off,0,0,0,,2,,,62,127
49854,note_on,1,0,0,,5,,,65,127
49854,note_on,0,0,0,,2,,,62,127
49854,note_on,0,0,0,,12,,,71,127
49970,note_off,116,0,0,,12,,,71,127
49971,note_on,1,0,0,,2,,,74,127
50087,note_off,116,0,0,,2,,,62,127
50087,note_off,0,0,0,,5,,,65,127
50088,note_on,1,0,0,,7,,,67,127
50088,note_on,0,0,0,,3,,,63,127
50146,note_off,58,0,0,,2,,,74,127
50147,note_on,1,0,0,,0,,,72,127
50205,note_off,58,0,0,,0,,,72,127
50206,note_on,1,0,0,,2,,,74,127
50264,note_off,58,0,0,,2,,,74,127
50265,note_on,1,0,0,,0,,,72,127
50323,note_off,58,0,0,,0,,,72,127
50323,note_off,0,0,0,,3,,,63,127
50323,note_off,0,0,0,,7,,,67,127
50324,note_on,1,0,0,,3,,,63,127
50324,note_on,0,0,0,,7,,,67,127
50324,note_on,0,0,0,,12,,,71,127
50558,note_off,234,0,0,,12,,,71,127
50558,note_off,0,0,0,,7,,,67,127
50558,note_off,0,0,0,,3,,,63,127
50559,note_on,1,0,0,,7,,,67,127
50559,note_on,0,0,0,,3,,,63,127
50559,note_on,0,0,0,,0,,,72,127
50793,note_off,234,0,0,,0,,,72,127
50793,note_off,0,0,0,,3,,,63,127
50793,note_off,0,0,0,,7,,,67,127
50794,note_on,1,0,0,,2,,,62,127
50794,note_on,0,0,0,,5,,,65,127
50910,note_off,116,0,0,,5,,,65,127
50911,note_on,1,0,0,,8,,,68,127
51027,note_off,116,0,0,,8,,,68,127
51027,note_off,0,0,0,,2,,,62,127
51028,note_on,1,0,0,,2,,,62,127
51028,note_on,0,0,0,,7,,,67,127
51144,note_off,116,0,0,,7,,,67,127
51145,note_on,1,0,0,,0,,,72,127
51261,note_off,116,0,0,,0,,,72,127
51261,note_off,0,0,0,,2,,,62,127
51262,note_on,1,0,0,,5,,,65,127
51262,note_on,0,0,0,,2,,,62,127
51262,note_on,0,0,0,,12,,,71,127
51378,note_off,116,0,0,,12,,,71,127
51379,note_on,1,0,0,,2,,,74,127
51495,note_off,116,0,0,,2,,,62,127
51495,note_off,0,0,0,,5,,,65,127
51496,note_on,1,0,0,,3,,,63,127
51496,note_on,0,0,0,,7,,,67,127
51554,note_off,58,0,0,,2,,,74,127
51555,note_on,1,0,0,,0,,,72,127
51613,note_off,58,0,0,,0,,,72,127
51614,note_on,1,0,0,,2,,,74,127
51672,note_off,58,0,0,,2,,,74,127
51673,note_on,1,0,0,,0,,,72,127
51731,note_off,58,0,0,,0,,,72,127
51731,note_off,0,0,0,,7,,,67,127
51731,note_off,0,0,0,,3,,,63,127
51732,note_on,1,0,0,,3,,,63,127
51732,note_on,0,0,0,,7,,,67,127
51732,note_on,0,0,0,,12,,,71,127
51966,note_off,234,0,0,,12,,,71,127
51966,note_off,0,0,0,,7,,,67,127
51966,note_off,0,0,0,,3,,,63,127
51967,note_on,1,0,0,,3,,,63,127
51967,note_on,0,0,0,,7,,,67,127
51967,note_on,0,0,0,,0,,,72,127
52201,note_off,234,0,0,,0,,,72,127
52201,note_off,0,0,0,,7,,,67,127
52201,note_off,0,0,0,,3,,,63,127
52202,note_on,1,0,0,,2,,,62,127
52202,note_on,0,0,0,,12,,,59,127
52202,note_on,0,0,0,,5,,,65,127
52318,note_off,116,0,0,,5,,,65,127
52319,note_on,1,0,0,,8,,,68,127
52435,note_off,116,0,0,,8,,,68,127
52435,note_off,0,0,0,,12,,,59,127
52435,note_off,0,0,0,,2,,,62,127
52436,note_on,1,0,0,,2,,,62,127
52436,note_on,0,0,0,,12,,,59,127
52436,note_on,0,0,0,,7,,,67,127
52552,note_off,116,0,0,,7,,,67,127
52553,note_on,1,0,0,,3,,,75,127
52669,note_off,116,0,0,,3,,,75,127
52669,note_off,0,0,0,,12,,,59,127
52669,note_off,0,0,0,,2,,,62,127
52670,note_on,1,0,0,,12,,,59,127
52670,note_on,0,0,0,,7,,,67,127
52670,note_on,0,0,0,,2,,,74,127
52786,note_off,116,0,0,,2,,,74,127
52787,note_on,1,0,0,,5,,,77,127
52903,note_off,116,0,0,,7,,,67,127
52903,note_off,0,0,0,,12,,,59,127
52904,note_on,1,0,0,,3,,,63,127
52904,note_on,0,0,0,,0,,,60,127
52904,note_on,0,0,0,,7,,,67,127
52962,note_off,58,0,0,,5,,,77,127
52963,note_on,1,0,0,,3,,,75,127
53021,note_off,58,0,0,,3,,,75,127
53022,note_on,1,0,0,,5,,,77,127
53080,note_off,58,0,0,,5,,,77,127
53081,note_on,1,0,0,,3,,,75,127
53139,note_off,58,0,0,,3,,,75,127
53139,note_off,0,0,0,,7,,,67,127
53139,note_off,0,0,0,,0,,,60,127
53139,note_off,0,0,0,,3,,,63,127
53140,note_on,1,0,0,,3,,,63,127
53140,note_on,0,0,0,,7,,,67,127
53140,note_on,0,0,0,,0,,,60,127
53140,note_on,0,0,0,,2,,,74,127
53374,note_off,234,0,0,,2,,,74,127
53374,note_off,0,0,0,,0,,,60,127
53374,note_off,0,0,0,,7,,,67,127
53374,note_off,0,0,0,,3,,,63,127
53375,note_on,1,0,0,,3,,,63,127
53375,note_on,0,0,0,,0,,,60,127
53375,note_on,0,0,0,,7,,,67,127
53375,note_on,0,0,0,,3,,,75,127
53609,note_off,234,0,0,,3,,,75,127
53609,note_off,0,0,0,,7,,,67,127
53609,note_off,0,0,0,,0,,,60,127
53609,note_off,0,0,0,,3,,,63,127
53610,note_on,1,0,0,,2,,,62,127
53610,note_on,0,0,0,,12,,,59,127
53610,note_on,0,0,0,,5,,,65,127
53726,note_off,116,0,0,,5,,,65,127
53727,note_on,1,0,0,,8,,,68,127
53843,note_off,116,0,0,,8,,,68,127
53843,note_off,0,0,0,,12,,,59,127
53843,note_off,0,0,0,,2,,,62,127
53844,note_on,1,0,0,,2,,,62,127
53844,note_on,0,0,0,,12,,,59,127
53844,note_on,0,0,0,,7,,,67,127
53960,note_off,116,0,0,,7,,,67,127
53961,note_on,1,0,0,,3,,,75,127
54077,note_off,116,0,0,,3,,,75,127
54077,note_off,0,0,0,,12,,,59,127
54077,note_off,0,0,0,,2,,,62,127
54078,note_on,1,0,0,,12,,,59,127
54078,note_on,0,0,0,,7,,,67,127
54078,note_on,0,0,0,,2,,,74,127
54194,note_off,116,0,0,,2,,,74,127
54195,note_on,1,0,0,,5,,,77,127
54311,note_off,116,0,0,,7,,,67,127
54311,note_off,0,0,0,,12,,,59,127
54312,note_on,1,0,0,,0,,,60,127
54312,note_on,0,0,0,,7,,,67,127
54312,note_on,0,0,0,,3,,,63,127
54370,note_off,58,0,0,,5,,,77,127
54371,note_on,1,0,0,,3,,,75,127
54429,note_off,58,0,0,,3,,,75,127
54430,note_on,1,0,0,,5,,,77,127
54488,note_off,58,0,0,,5,,,77,127
54489,note_on,1,0,0,,3,,,75,127
54547,note_off,58,0,0,,3,,,75,127
54548,note_on,1,0,0,,2,,,74,127
54664,note_off,116,0,0,,2,,,74,127
54665,note_on,1,0,0,,3,,,75,127
54781,note_off,116,0,0,,3,,,75,127
54782,note_on,1,0,0,,0,,,72,127
54978,note_off,196,0,0,,0,,,72,127
55016,note_off,38,0,0,,3,,,63,127
55016,note_off,0,0,0,,7,,,67,127
55016,note_off,0,0,0,,0,,,60,127
55017,note_on,1,0,0,,10,,,57,127
55017,note_on,0,0,0,,3,,,75,127
55133,note_off,116,0,0,,3,,,75,127
55134,note_on,1,0,0,,0,,,72,127
55250,note_off,116,0,0,,0,,,72,127
55250,note_off,0,0,0,,10,,,57,127
55251,note_on,1,0,0,,0,,,60,127
55251,note_on,0,0,0,,10,,,69,127
55367,note_off,116,0,0,,10,,,69,127
55368,note_on,1,0,0,,6,,,66,127
55484,note_off,116,0,0,,6,,,66,127
55484,note_off,0,0,0,,0,,,60,127
55485,note_on,1,0,0,,10,,,57,127
55485,note_on,0,0,0,,10,,,69,127
55601,note_off,116,0,0,,10,,,69,127
55602,note_on,1,0,0,,3,,,75,127
55718,note_off,116,0,0,,3,,,75,127
55718,note_off,0,0,0,,10,,,57,127
55719,note_on,1,0,0,,11,,,58,127
55719,note_on,0,0,0,,2,,,74,127
55835,note_off,116,0,0,,2,,,74,127
55836,note_on,1,0,0,,0,,,72,127
55952,note_off,116,0,0,,0,,,72,127
55952,note_off,0,0,0,,11,,,58,127
55953,note_on,1,0,0,,2,,,62,127
55953,note_on,0,0,0,,11,,,70,127
56069,note_off,116,0,0,,11,,,70,127
56070,note_on,1,0,0,,10,,,69,127
56186,note_off,116,0,0,,10,,,69,127
56186,note_off,0,0,0,,2,,,62,127
56187,note_on,1,0,0,,11,,,58,127
56187,note_on,0,0,0,,7,,,67,127
56305,note_on,118,0,0,,5,,,77,127
56317,note_off,12,0,0,,7,,,67,127
56410,note_off,93,0,0,,5,,,77,127
56421,note_off,11,0,0,,11,,,58,127
56422,note_on,1,0,0,,10,,,57,127
56422,note_on,0,0,0,,3,,,75,127
56538,note_off,116,0,0,,3,,,75,127
56539,note_on,1,0,0,,0,,,72,127
56655,note_off,116,0,0,,0,,,72,127
56655,note_off,0,0,0,,10,,,57,127
56656,note_on,1,0,0,,0,,,60,127
56656,note_on,0,0,0,,10,,,69,127
56772,note_off,116,0,0,,10,,,69,127
56773,note_on,1,0,0,,6,,,66,127
56889,note_off,116,0,0,,6,,,66,127
56889,note_off,0,0,0,,0,,,60,127
56890,note_on,1,0,0,,10,,,57,127
56890,note_on,0,0,0,,10,,,69,127
57006,note_off,116,0,0,,10,,,69,127
57007,note_on,1,0,0,,3,,,75,127
57123,note_off,116,0,0,,3,,,75,127
57123,note_off,0,0,0,,10,,,57,127
57124,note_on,1,0,0,,11,,,58,127
57124,note_on,0,0,0,,2,,,74,127
57240,note_off,116,0,0,,2,,,74,127
57241,note_on,1,0,0,,0,,,72,127
57357,note_off,116,0,0,,0,,,72,127
57357,note_off,0,0,0,,11,,,58,127
57358,note_on,1,0,0,,2,,,62,127
57358,note_on,0,0,0,,11,,,70,127
57474,note_off,116,0,0,,11,,,70,127
57475,note_on,1,0,0,,10,,,69,127
57591,note_off,116,0,0,,10,,,69,127
57591,note_off,0,0,0,,2,,,62,127
57592,note_on,1,0,0,,11,,,58,127
57592,note_on,0,0,0,,7,,,67,127
57710,note_on,118,0,0,,7,,,79,127
57734,note_off,24,0,0,,7,,,67,127
57826,note_off,92,0,0,,7,,,79,127
57826,note_off,0,0,0,,11,,,58,127
57827,note_on,1,0,0,,10,,,57,127
57827,note_on,0,0,0,,6,,,78,127
57943,note_off,116,0,0,,6,,,78,127
57944,note_on,1,0,0,,3,,,75,127
58060,note_off,116,0,0,,3,,,75,127
58060,note_off,0,0,0,,10,,,57,127
58061,note_on,1,0,0,,0,,,60,127
58061,note_on,0,0,0,,0,,,72,127
58177,note_off,116,0,0,,0,,,72,127
58178,note_on,1,0,0,,10,,,69,127
58294,note_off,116,0,0,,10,,,69,127
58294,note_off,0,0,0,,0,,,60,127
58295,note_on,1,0,0,,10,,,57,127
58295,note_on,0,0,0,,0,,,72,127
58411,note_off,116,0,0,,0,,,72,127
58412,note_on,1,0,0,,6,,,78,127
58528,note_off,116,0,0,,6,,,78,127
58528,note_off,0,0,0,,10,,,57,127
58529,note_on,1,0,0,,11,,,58,127
58529,note_on,0,0,0,,7,,,79,127
58647,note_on,118,0,0,,11,,,70,127
58706,note_off,59,0,0,,7,,,79,127
58764,note_off,58,0,0,,11,,,70,127
58764,note_off,0,0,0,,11,,,58,127
58765,note_on,1,0,0,,10,,,57,127
58765,note_on,0,0,0,,0,,,72,127
58883,note_on,118,0,0,,10,,,81,127
58942,note_off,59,0,0,,0,,,72,127
59000,note_off,58,0,0,,10,,,57,127
59001,note_on,1,0,0,,7,,,55,127
59001,note_on,0,0,0,,2,,,74,127
59060,note_off,59,0,0,,10,,,81,127
59119,note_on,59,0,0,,11,,,82,127
59178,note_off,59,0,0,,2,,,74,127
59236,note_off,58,0,0,,7,,,55,127
59237,note_on,1,0,0,,0,,,60,127
59237,note_on,0,0,0,,3,,,75,127
59296,note_off,59,0,0,,11,,,82,127
59355,note_on,59,0,0,,0,,,84,127
59414,note_off,59,0,0,,3,,,75,127
59472,note_off,58,0,0,,0,,,84,127
59472,note_off,0,0,0,,0,,,60,127
59473,note_on,1,0,0,,2,,,62,127
59473,note_on,0,0,0,,11,,,82,127
59589,note_off,116,0,0,,11,,,82,127
59590,note_on,1,0,0,,10,,,81,127
59706,note_off,116,0,0,,10,,,81,127
59706,note_off,0,0,0,,2,,,62,127
59707,note_on,1,0,0,,2,,,50,127
59707,note_on,0,0,0,,7,,,79,127
59823,note_off,116,0,0,,7,,,79,127
59824,note_on,1,0,0,,6,,,78,127
59940,note_off,116,0,0,,6,,,78,127
59940,note_off,0,0,0,,2,,,50,127
59941,note_on,1,0,0,,7,,,43,127
59941,note_on,0,0,0,,6,,,78,127
60410,note_off,469,0,0,,6,,,78,127
60411,note_on,1,0,0,,7,,,79,127
60634,note_off,223,0,0,,7,,,79,127
60645,note_off,11,0,0,,7,,,43,127
60646,note_on,1,0,0,,10,,,57,127
60646,note_on,0,0,0,,3,,,75,127
60762,note_off,116,0,0,,3,,,75,127
60763,note_on,1,0,0,,0,,,72,127
60879,note_off,116,0,0,,0,,,72,127
60879,note_off,0,0,0,,10,,,57,127
60880,note_on,1,0,0,,0,,,60,127
60880,note_on,0,0,0,,10,,,69,127
60996,note_off,116,0,0,,10,,,69,127
60997,note_on,1,0,0,,6,,,66,127
61113,note_off,116,0,0,,6,,,66,127
61113,note_off,0,0,0,,0,,,60,127
61114,note_on,1,0,0,,10,,,57,127
61114,note_on,0,0,0,,10,,,69,127
61230,note_off,116,0,0,,10,,,69,127
61231,note_on,1,0,0,,3,,,75,127
61347,note_off,116,0,0,,3,,,75,127
61347,note_off,0,0,0,,10,,,57,127
61348,note_on,1,0,0,,11,,,58,127
61348,note_on,0,0,0,,2,,,74,127
61464,note_off,116,0,0,,2,,,74,127
61465,note_on,1,0,0,,0,,,72,127
61581,note_off,116,0,0,,0,,,72,127
61581,note_off,0,0,0,,11,,,58,127
61582,note_on,1,0,0,,2,,,62,127
61582,note_on,0,0,0,,11,,,70,127
61698,note_off,116,0,0,,11,,,70,127
61699,note_on,1,0,0,,10,,,69,127
61815,note_off,116,0,0,,10,,,69,127
61815,note_off,0,0,0,,2,,,62,127
61816,note_on,1,0,0,,11,,,58,127
61816,note_on,0,0,0,,7,,,67,127
61934,note_on,118,0,0,,5,,,77,127
61946,note_off,12,0,0,,7,,,67,127
62039,note_off,93,0,0,,5,,,77,127
62050,note_off,11,0,0,,11,,,58,127
62051,note_on,1,0,0,,10,,,57,127
62051,note_on,0,0,0,,3,,,75,127
62167,note_off,116,0,0,,3,,,75,127
62168,note_on,1,0,0,,0,,,72,127
62284,note_off,116,0,0,,0,,,72,127
62284,note_off,0,0,0,,10,,,57,127
62285,note_on,1,0,0,,0,,,60,127
62285,note_on,0,0,0,,10,,,69,127
62401,note_off,116,0,0,,10,,,69,127
62402,note_on,1,0,0,,6,,,66,127
62518,note_off,116,0,0,,6,,,66,127
62518,note_off,0,0,0,,0,,,60,127
62519,note_on,1,0,0,,10,,,57,127
62519,note_on,0,0,0,,10,,,69,127
62635,note_off,116,0,0,,10,,,69,127
62636,note_on,1,0,0,,3,,,75,127
62752,note_off,116,0,0,,3,,,75,127
62752,note_off,0,0,0,,10,,,57,127
62753,note_on,1,0,0,,11,,,58,127
62753,note_on,0,0,0,,2,,,74,127
62869,note_off,116,0,0,,2,,,74,127
62870,note_on,1,0,0,,0,,,72,127
62986,note_off,116,0,0,,0,,,72,127
62986,note_off,0,0,0,,11,,,58,127
62987,note_on,1,0,0,,2,,,62,127
62987,note_on,0,0,0,,11,,,70,127
63103,note_off,116,0,0,,11,,,70,127
63104,note_on,1,0,0,,10,,,69,127
63220,note_off,116,0,0,,10,,,69,127
63220,note_off,0,0,0,,2,,,62,127
63221,note_on,1,0,0,,11,,,58,127
63221,note_on,0,0,0,,7,,,67,127
63339,note_on,118,0,0,,7,,,79,127
63363,note_off,24,0,0,,7,,,67,127
63455,note_off,92,0,0,,7,,,79,127
63455,note_off,0,0,0,,11,,,58,127
63456,note_on,1,0,0,,10,,,57,127
63456,note_on,0,0,0,,6,,,78,127
63572,note_off,116,0,0,,6,,,78,127
63573,note_on,1,0,0,,3,,,75,127
63689,note_off,116,0,0,,3,,,75,127
63689,note_off,0,0,0,,10,,,57,127
63690,note_on,1,0,0,,0,,,60,127
63690,note_on,0,0,0,,0,,,72,127
63806,note_off,116,0,0,,0,,,72,127
63807,note_on,1,0,0,,10,,,69,127
63923,note_off,116,0,0,,10,,,69,127
63923,note_off,0,0,0,,0,,,60,127
63924,note_on,1,0,0,,10,,,57,127
63924,note_on,0,0,0,,0,,,72,127
64040,note_off,116,0,0,,0,,,72,127
64041,note_on,1,0,0,,6,,,78,127
64157,note_off,116,0,0,,6,,,78,127
64157,note_off,0,0,0,,10,,,57,127
64158,note_on,1,0,0,,11,,,58,127
64158,note_on,0,0,0,,7,,,79,127
64276,note_on,118,0,0,,11,,,70,127
64392,note_off,116,0,0,,11,,,70,127
64392,note_off,0,0,0,,11,,,58,127
64393,note_on,1,0,0,,10,,,57,127
64393,note_on,0,0,0,,0,,,72,127
64508,note_off,115,0,0,,7,,,79,127
64510,note_on,2,0,0,,10,,,81,127
64625,note_off,115,0,0,,0,,,72,127
64626,note_off,1,0,0,,10,,,57,127
64627,note_on,1,0,0,,7,,,55,127
64627,note_on,0,0,0,,2,,,74,127
64742,note_off,115,0,0,,10,,,81,127
64744,note_on,2,0,0,,11,,,82,127
64859,note_off,115,0,0,,2,,,74,127
64860,note_off,1,0,0,,7,,,55,127
64861,note_on,1,0,0,,0,,,60,127
64861,note_on,0,0,0,,3,,,75,127
64976,note_off,115,0,0,,11,,,82,127
64977,note_off,1,0,0,,3,,,75,127
64978,note_on,1,0,0,,0,,,84,127
65094,note_off,116,0,0,,0,,,84,127
65094,note_off,0,0,0,,0,,,60,127
65095,note_on,1,0,0,,2,,,62,127
65095,note_on,0,0,0,,11,,,82,127
65211,note_off,116,0,0,,11,,,82,127
65212,note_on,1,0,0,,10,,,81,127
65328,note_off,116,0,0,,10,,,81,127
65329,note_on,1,0,0,,2,,,50,127
65329,note_on,0,0,0,,7,,,79,127
65445,note_off,116,0,0,,7,,,79,127
65446,note_on,1,0,0,,6,,,78,127
65551,note_off,105,0,0,,6,,,78,127
65558,note_off,7,0,0,,2,,,62,127
65562,note_off,4,0,0,,2,,,50,127
65563,note_on,1,0,0,,7,,,55,127
65563,note_on,0,0,0,,7,,,67,127
65679,note_off,116,0,0,,7,,,67,127
65680,note_on,1,0,0,,11,,,70,127
65796,note_off,116,0,0,,11,,,70,127
65796,note_off,0,0,0,,7,,,55,127
65797,note_on,1,0,0,,10,,,57,127
65797,note_on,0,0,0,,2,,,74,127
65915,note_on,118,0,0,,7,,,79,127
66030,note_off,115,0,0,,2,,,74,127
66031,note_off,1,0,0,,7,,,79,127
66031,note_off,0,0,0,,10,,,57,127
66032,note_on,1,0,0,,11,,,58,127
66032,note_on,0,0,0,,2,,,74,127
66150,note_on,118,0,0,,11,,,82,127
66265,note_off,115,0,0,,2,,,74,127
66266,note_off,1,0,0,,11,,,82,127
66266,note_off,0,0,0,,11,,,58,127
66267,note_on,1,0,0,,0,,,60,127
66267,note_on,0,0,0,,10,,,81,127
66383,note_off,116,0,0,,10,,,81,127
66384,note_on,1,0,0,,0,,,84,127
66500,note_off,116,0,0,,0,,,84,127
66500,note_off,0,0,0,,0,,,60,127
66501,note_on,1,0,0,,2,,,62,127
66501,note_on,0,0,0,,11,,,82,127
66617,note_off,116,0,0,,11,,,82,127
66618,note_on,1,0,0,,10,,,81,127
66734,note_off,116,0,0,,10,,,81,127
66735,note_on,1,0,0,,2,,,50,127
66735,note_on,0,0,0,,7,,,79,127
66851,note_off,116,0,0,,7,,,79,127
66852,note_on,1,0,0,,6,,,78,127
66957,note_off,105,0,0,,6,,,78,127
66964,note_off,7,0,0,,2,,,62,127
66968,note_off,4,0,0,,2,,,50,127
66969,note_on,1,0,0,,7,,,55,127
66969,note_on,0,0,0,,7,,,67,127
67085,note_off,116,0,0,,7,,,67,127
67086,note_on,1,0,0,,11,,,70,127
67202,note_off,116,0,0,,11,,,70,127
67202,note_off,0,0,0,,7,,,55,127
67203,note_on,1,0,0,,10,,,57,127
67203,note_on,0,0,0,,2,,,74,127
67319,note_off,116,0,0,,2,,,74,127
67320,note_on,1,0,0,,7,,,79,127
67436,note_off,116,0,0,,10,,,57,127
67437,note_on,1,0,0,,11,,,58,127
67437,note_on,0,0,0,,2,,,74,127
67552,note_off,115,0,0,,7,,,79,127
67553,note_off,1,0,0,,2,,,74,127
67554,note_on,1,0,0,,11,,,82,127
67670,note_off,116,0,0,,11,,,82,127
67670,note_off,0,0,0,,11,,,58,127
67671,note_on,1,0,0,,0,,,60,127
67671,note_on,0,0,0,,10,,,81,127
67787,note_off,116,0,0,,10,,,81,127
67788,note_on,1,0,0,,0,,,84,127
67904,note_off,116,0,0,,0,,,84,127
67904,note_off,0,0,0,,0,,,60,127
67905,note_on,1,0,0,,2,,,62,127
67905,note_on,0,0,0,,11,,,82,127
68021,note_off,116,0,0,,11,,,82,127
68022,note_on,1,0,0,,10,,,81,127
68138,note_off,116,0,0,,10,,,81,127
68139,note_on,1,0,0,,2,,,50,127
68139,note_on,0,0,0,,7,,,79,127
68255,note_off,116,0,0,,7,,,79,127
68256,note_on,1,0,0,,6,,,78,127
68369,note_off,113,0,0,,2,,,62,127
68373,note_off,4,0,0,,6,,,78,127
68373,note_off,0,0,0,,2,,,50,127
68374,note_on,1,0,0,,7,,,55,127
68374,note_on,0,0,0,,7,,,79,127
68490,note_off,116,0,0,,7,,,79,127
68491,note_on,1,0,0,,3,,,75,127
68607,note_off,116,0,0,,3,,,75,127
68607,note_off,0,0,0,,7,,,55,127
68608,note_on,1,0,0,,10,,,57,127
68608,note_on,0,0,0,,2,,,74,127
68724,note_off,116,0,0,,2,,,74,127
68725,note_on,1,0,0,,0,,,72,127
68841,note_off,116,0,0,,0,,,72,127
68841,note_off,0,0,0,,10,,,57,127
68842,note_on,1,0,0,,11,,,58,127
68842,note_on,0,0,0,,2,,,74,127
68958,note_off,116,0,0,,2,,,74,127
68959,note_on,1,0,0,,0,,,72,127
69075,note_off,116,0,0,,0,,,72,127
69075,note_off,0,0,0,,11,,,58,127
69076,note_on,1,0,0,,0,,,60,127
69076,note_on,0,0,0,,11,,,70,127
69192,note_off,116,0,0,,11,,,70,127
69193,note_on,1,0,0,,10,,,69,127
69309,note_off,116,0,0,,10,,,69,127
69309,note_off,0,0,0,,0,,,60,127
69310,note_on,1,0,0,,2,,,62,127
69310,note_on,0,0,0,,11,,,70,127
69426,note_off,116,0,0,,11,,,70,127
69427,note_on,1,0,0,,10,,,69,127
69543,note_off,116,0,0,,10,,,69,127
69544,note_on,1,0,0,,2,,,50,127
69544,note_on,0,0,0,,7,,,67,127
69660,note_off,116,0,0,,7,,,67,127
69661,note_off,1,0,0,,2,,,62,127
69661,note_on,0,0,0,,6,,,66,127
69777,note_off,116,0,0,,6,,,66,127
69777,note_off,0,0,0,,2,,,50,127
69778,note_on,1,0,0,,7,,,43,127
69778,note_on,0,0,0,,10,,,69,127
69836,note_off,58,0,0,,10,,,69,127
69837,note_on,1,0,0,,7,,,67,127
69895,note_off,58,0,0,,7,,,67,127
69896,note_on,1,0,0,,10,,,69,127
69954,note_off,58,0,0,,10,,,69,127
69955,note_on,1,0,0,,7,,,67,127
70013,note_off,58,0,0,,7,,,67,127
70014,note_on,1,0,0,,10,,,69,127
70072,note_off,58,0,0,,10,,,69,127
70073,note_on,1,0,0,,7,,,67,127
71787,note_off,1714,0,0,,7,,,67,127
71799,note_off,12,0,0,,7,,,43,127
75264,end_of_track,3465,1,0,,,,,,
