tick,type,time,meta,track,program,channel,pitch,tempo,note,velocity
0,copyright,0,1,0,,,,,,
0,program_change,0,0,0,6,0,,,,
0,pitchwheel,0,0,0,,0,0,,,
0,program_change,0,0,0,6,1,,,,
0,pitchwheel,0,0,0,,1,-590,,,
0,program_change,0,0,0,6,2,,,,
0,pitchwheel,0,0,0,,2,-272,,,
0,program_change,0,0,0,6,3,,,,
0,pitchwheel,0,0,0,,3,-353,,,
0,program_change,0,0,0,6,4,,,,
0,pitchwheel,0,0,0,,4,-560,,,
0,program_change,0,0,0,6,5,,,,
0,pitchwheel,0,0,0,,5,-80,,,
0,program_change,0,0,0,6,6,,,,
0,pitchwheel,0,0,0,,6,-625,,,
0,program_change,0,0,0,6,7,,,,
0,pitchwheel,0,0,0,,7,-130,,,
0,program_change,0,0,0,6,8,,,,
0,pitchwheel,0,0,0,,8,-512,,,
0,program_change,0,0,0,6,10,,,,
0,pitchwheel,0,0,0,,10,-464,,,
0,program_change,0,0,0,6,11,,,,
0,pitchwheel,0,0,0,,11,-208,,,
0,program_change,0,0,0,6,12,,,,
0,pitchwheel,0,0,0,,12,-553,,,
0,set_tempo,0,1,0,,,,500000,,
110,note_on,110,0,0,,7,,,79,127
220,note_on,110,0,0,,12,,,83,127
327,note_off,107,0,0,,7,,,79,127
328,note_off,1,0,0,,12,,,83,127
329,note_on,1,0,0,,7,,,79,127
439,note_on,110,0,0,,2,,,74,127
548,note_off,109,0,0,,2,,,74,127
549,note_on,1,0,0,,12,,,71,127
658,note_off,109,0,0,,12,,,71,127
659,note_on,1,0,0,,7,,,67,127
768,note_off,109,0,0,,7,,,67,127
769,note_on,1,0,0,,4,,,76,127
878,note_off,109,0,0,,7,,,79,127
879,note_on,1,0,0,,7,,,79,127
988,note_off,109,0,0,,4,,,76,127
989,note_on,1,0,0,,2,,,74,127
1098,note_off,109,0,0,,7,,,79,127
1099,note_on,1,0,0,,6,,,78,127
1208,note_off,109,0,0,,2,,,74,127
1209,note_on,1,0,0,,0,,,72,127
1318,note_off,109,0,0,,6,,,78,127
1319,note_on,1,0,0,,4,,,76,127
1428,note_off,109,0,0,,4,,,76,127
1428,note_off,0,0,0,,0,,,72,127
1429,note_on,1,0,0,,7,,,67,127
1429,note_on,0,0,0,,12,,,71,127
1538,note_off,109,0,0,,12,,,71,127
1544,note_on,6,0,0,,7,,,79,127
1653,note_off,109,0,0,,7,,,79,127
1654,note_on,1,0,0,,12,,,71,127
1758,note_off,104,0,0,,7,,,67,127
1763,note_off,5,0,0,,12,,,71,127
1764,note_on,1,0,0,,12,,,71,127
1874,note_on,110,0,0,,7,,,67,127
1983,note_off,109,0,0,,7,,,67,127
1984,note_on,1,0,0,,2,,,62,127
2093,note_off,109,0,0,,2,,,62,127
2094,note_on,1,0,0,,4,,,64,127
2203,note_off,109,0,0,,12,,,71,127
2204,note_on,1,0,0,,0,,,72,127
2313,note_off,109,0,0,,4,,,64,127
2314,note_on,1,0,0,,2,,,62,127
2423,note_off,109,0,0,,0,,,72,127
2424,note_on,1,0,0,,12,,,71,127
2533,note_off,109,0,0,,2,,,62,127
2534,note_on,1,0,0,,0,,,60,127
2643,note_off,109,0,0,,12,,,71,127
2644,note_on,1,0,0,,10,,,69,127
2753,note_off,109,0,0,,10,,,69,127
2753,note_off,0,0,0,,0,,,60,127
2754,note_on,1,0,0,,7,,,67,127
2754,note_on,0,0,0,,12,,,59,127
2863,note_off,109,0,0,,7,,,67,127
2864,note_on,1,0,0,,7,,,79,127
2973,note_off,109,0,0,,7,,,79,127
2974,note_on,1,0,0,,7,,,67,127
3083,note_off,109,0,0,,12,,,59,127
3084,note_on,1,0,0,,2,,,62,127
3193,note_off,109,0,0,,2,,,62,127
3194,note_on,1,0,0,,12,,,59,127
3303,note_off,109,0,0,,12,,,59,127
3304,note_on,1,0,0,,7,,,55,127
3413,note_off,109,0,0,,7,,,55,127
3414,note_on,1,0,0,,4,,,64,127
3414,note_on,0,0,0,,0,,,60,127
3523,note_off,109,0,0,,7,,,67,127
3524,note_on,1,0,0,,10,,,69,127
3633,note_off,109,0,0,,0,,,60,127
3633,note_off,0,0,0,,4,,,64,127
3634,note_on,1,0,0,,2,,,62,127
3634,note_on,0,0,0,,12,,,59,127
3743,note_off,109,0,0,,10,,,69,127
3744,note_on,1,0,0,,7,,,67,127
3853,note_off,109,0,0,,12,,,59,127
3853,note_off,0,0,0,,2,,,62,127
3854,note_on,1,0,0,,10,,,57,127
3854,note_on,0,0,0,,0,,,60,127
3963,note_off,109,0,0,,7,,,67,127
3964,note_on,1,0,0,,6,,,66,127
4073,note_off,109,0,0,,0,,,60,127
4073,note_off,0,0,0,,10,,,57,127
4078,note_off,5,0,0,,6,,,66,127
4081,note_on,3,0,0,,7,,,55,127
4081,note_on,0,0,0,,7,,,67,127
4190,note_off,109,0,0,,7,,,67,127
4191,note_on,1,0,0,,2,,,62,127
4300,note_off,109,0,0,,2,,,62,127
4301,note_on,1,0,0,,12,,,71,127
4410,note_off,109,0,0,,12,,,71,127
4411,note_on,1,0,0,,7,,,67,127
4520,note_off,109,0,0,,7,,,67,127
4521,note_on,1,0,0,,2,,,74,127
4630,note_off,109,0,0,,2,,,74,127
4631,note_on,1,0,0,,12,,,71,127
4740,note_off,109,0,0,,12,,,71,127
4740,note_off,0,0,0,,7,,,55,127
4748,note_on,8,0,0,,7,,,79,127
4748,note_on,0,0,0,,7,,,55,127
4857,note_off,109,0,0,,7,,,79,127
4858,note_on,1,0,0,,2,,,74,127
4967,note_off,109,0,0,,2,,,74,127
4967,note_off,0,0,0,,7,,,55,127
4968,note_on,1,0,0,,7,,,79,127
4968,note_on,0,0,0,,2,,,62,127
5022,note_off,54,0,0,,7,,,79,127
5023,note_on,1,0,0,,6,,,78,127
5077,note_off,54,0,0,,6,,,78,127
5078,note_on,1,0,0,,7,,,79,127
5132,note_off,54,0,0,,7,,,79,127
5133,note_on,1,0,0,,6,,,78,127
5187,note_off,54,0,0,,6,,,78,127
5188,note_on,1,0,0,,7,,,79,127
5188,note_on,0,0,0,,2,,,50,127
5242,note_off,54,0,0,,7,,,79,127
5243,note_on,1,0,0,,6,,,78,127
5297,note_off,54,0,0,,6,,,78,127
5298,note_on,1,0,0,,4,,,76,127
5352,note_off,54,0,0,,4,,,76,127
5353,note_on,1,0,0,,2,,,74,127
5403,note_off,50,0,0,,2,,,62,127
5406,note_off,3,0,0,,2,,,74,127
5406,note_off,0,0,0,,2,,,50,127
5407,note_on,1,0,0,,12,,,83,127
5407,note_on,0,0,0,,7,,,55,127
5516,note_off,109,0,0,,12,,,83,127
5517,note_on,1,0,0,,7,,,79,127
5626,note_off,109,0,0,,7,,,79,127
5626,note_off,0,0,0,,7,,,55,127
5627,note_on,1,0,0,,12,,,83,127
5627,note_on,0,0,0,,2,,,62,127
5681,note_off,54,0,0,,12,,,83,127
5682,note_on,1,0,0,,10,,,81,127
5736,note_off,54,0,0,,10,,,81,127
5737,note_on,1,0,0,,12,,,83,127
5791,note_off,54,0,0,,12,,,83,127
5792,note_on,1,0,0,,10,,,81,127
5846,note_off,54,0,0,,10,,,81,127
5847,note_on,1,0,0,,12,,,83,127
5847,note_on,0,0,0,,2,,,50,127
5901,note_off,54,0,0,,12,,,83,127
5902,note_on,1,0,0,,10,,,81,127
5956,note_off,54,0,0,,10,,,81,127
5957,note_on,1,0,0,,7,,,79,127
6011,note_off,54,0,0,,7,,,79,127
6012,note_on,1,0,0,,6,,,78,127
6062,note_off,50,0,0,,2,,,62,127
6065,note_off,3,0,0,,6,,,78,127
6065,note_off,0,0,0,,2,,,50,127
6066,note_on,1,0,0,,7,,,79,127
6066,note_on,0,0,0,,7,,,55,127
6175,note_off,109,0,0,,7,,,79,127
6176,note_on,1,0,0,,2,,,74,127
6285,note_off,109,0,0,,2,,,74,127
6285,note_off,0,0,0,,7,,,55,127
6286,note_on,1,0,0,,7,,,79,127
6286,note_on,0,0,0,,2,,,62,127
6340,note_off,54,0,0,,7,,,79,127
6341,note_on,1,0,0,,6,,,78,127
6395,note_off,54,0,0,,6,,,78,127
6396,note_on,1,0,0,,7,,,79,127
6450,note_off,54,0,0,,7,,,79,127
6451,note_on,1,0,0,,6,,,78,127
6505,note_off,54,0,0,,6,,,78,127
6506,note_on,1,0,0,,7,,,79,127
6506,note_on,0,0,0,,2,,,50,127
6560,note_off,54,0,0,,7,,,79,127
6561,note_on,1,0,0,,6,,,78,127
6615,note_off,54,0,0,,6,,,78,127
6616,note_on,1,0,0,,4,,,76,127
6670,note_off,54,0,0,,4,,,76,127
6671,note_on,1,0,0,,2,,,74,127
6721,note_off,50,0,0,,2,,,62,127
6724,note_off,3,0,0,,2,,,74,127
6724,note_off,0,0,0,,2,,,50,127
6725,note_on,1,0,0,,12,,,83,127
6725,note_on,0,0,0,,7,,,55,127
6834,note_off,109,0,0,,12,,,83,127
6835,note_on,1,0,0,,7,,,79,127
6944,note_off,109,0,0,,7,,,79,127
6944,note_off,0,0,0,,7,,,55,127
6945,note_on,1,0,0,,12,,,83,127
6945,note_on,0,0,0,,2,,,62,127
6999,note_off,54,0,0,,12,,,83,127
7000,note_on,1,0,0,,10,,,81,127
7054,note_off,54,0,0,,10,,,81,127
7055,note_on,1,0,0,,12,,,83,127
7109,note_off,54,0,0,,12,,,83,127
7110,note_on,1,0,0,,10,,,81,127
7164,note_off,54,0,0,,10,,,81,127
7165,note_on,1,0,0,,12,,,83,127
7165,note_on,0,0,0,,2,,,50,127
7219,note_off,54,0,0,,12,,,83,127
7220,note_on,1,0,0,,10,,,81,127
7274,note_off,54,0,0,,10,,,81,127
7275,note_on,1,0,0,,7,,,79,127
7329,note_off,54,0,0,,7,,,79,127
7330,note_on,1,0,0,,6,,,78,127
7380,note_off,50,0,0,,2,,,62,127
7383,note_off,3,0,0,,6,,,78,127
7383,note_off,0,0,0,,2,,,50,127
7384,note_on,1,0,0,,7,,,79,127
7384,note_on,0,0,0,,7,,,55,127
7493,note_off,109,0,0,,7,,,79,127
7494,note_on,1,0,0,,2,,,74,127
7603,note_off,109,0,0,,2,,,74,127
7604,note_on,1,0,0,,12,,,71,127
7713,note_off,109,0,0,,12,,,71,127
7714,note_on,1,0,0,,7,,,67,127
7823,note_off,109,0,0,,7,,,67,127
7824,note_on,1,0,0,,2,,,62,127
7933,note_off,109,0,0,,2,,,62,127
7934,note_on,1,0,0,,12,,,59,127
8043,note_off,109,0,0,,12,,,59,127
8043,note_off,0,0,0,,7,,,55,127
8044,note_on,1,0,0,,7,,,55,127
8153,note_off,109,0,0,,7,,,55,127
8154,note_on,1,0,0,,2,,,50,127
8263,note_off,109,0,0,,2,,,50,127
8264,note_on,1,0,0,,12,,,47,127
8373,note_off,109,0,0,,12,,,47,127
8374,note_on,1,0,0,,7,,,43,127
8483,note_off,109,0,0,,7,,,43,127
8484,note_on,1,0,0,,2,,,38,127
8593,note_off,109,0,0,,2,,,38,127
8594,note_on,1,0,0,,12,,,35,127
8703,note_off,109,0,0,,12,,,35,127
8704,note_on,1,0,0,,7,,,31,127
9481,note_off,777,0,0,,7,,,31,127
9801,note_on,320,0,0,,7,,,67,127
9911,note_on,110,0,0,,12,,,71,127
10020,note_off,109,0,0,,12,,,71,127
10020,note_off,0,0,0,,7,,,67,127
10021,note_on,1,0,0,,12,,,71,127
10131,note_on,110,0,0,,2,,,74,127
10240,note_off,109,0,0,,2,,,74,127
10240,note_off,0,0,0,,12,,,71,127
10241,note_on,1,0,0,,2,,,74,127
10351,note_on,110,0,0,,7,,,79,127
10460,note_off,109,0,0,,2,,,74,127
10461,note_on,1,0,0,,7,,,67,127
10570,note_off,109,0,0,,7,,,79,127
10571,note_on,1,0,0,,4,,,76,127
10680,note_off,109,0,0,,7,,,67,127
10681,note_on,1,0,0,,0,,,72,127
10790,note_off,109,0,0,,4,,,76,127
10791,note_on,1,0,0,,7,,,79,127
10900,note_off,109,0,0,,0,,,72,127
10901,note_on,1,0,0,,4,,,76,127
11010,note_off,109,0,0,,7,,,79,127
11011,note_on,1,0,0,,0,,,84,127
11120,note_off,109,0,0,,0,,,84,127
11120,note_off,0,0,0,,4,,,76,127
11121,note_on,1,0,0,,7,,,67,127
11231,note_on,110,0,0,,2,,,74,127
11340,note_off,109,0,0,,7,,,67,127
11341,note_on,1,0,0,,12,,,71,127
11450,note_off,109,0,0,,2,,,74,127
11451,note_on,1,0,0,,7,,,79,127
11560,note_off,109,0,0,,12,,,71,127
11561,note_on,1,0,0,,2,,,74,127
11670,note_off,109,0,0,,7,,,79,127
11671,note_on,1,0,0,,12,,,83,127
11780,note_off,109,0,0,,2,,,74,127
11781,note_on,1,0,0,,2,,,62,127
11890,note_off,109,0,0,,12,,,83,127
11891,note_on,1,0,0,,0,,,72,127
12000,note_off,109,0,0,,2,,,62,127
12001,note_on,1,0,0,,10,,,69,127
12110,note_off,109,0,0,,0,,,72,127
12111,note_on,1,0,0,,6,,,78,127
12220,note_off,109,0,0,,10,,,69,127
12221,note_on,1,0,0,,0,,,72,127
12330,note_off,109,0,0,,6,,,78,127
12331,note_on,1,0,0,,10,,,81,127
12440,note_off,109,0,0,,0,,,72,127
12450,note_on,10,0,0,,7,,,55,127
12549,note_off,99,0,0,,10,,,81,127
12559,note_on,10,0,0,,12,,,71,127
12668,note_off,109,0,0,,7,,,55,127
12669,note_on,1,0,0,,7,,,67,127
12778,note_off,109,0,0,,12,,,71,127
12779,note_on,1,0,0,,2,,,74,127
12888,note_off,109,0,0,,7,,,67,127
12889,note_on,1,0,0,,12,,,71,127
12998,note_off,109,0,0,,2,,,74,127
12999,note_on,1,0,0,,7,,,79,127
13108,note_off,109,0,0,,12,,,71,127
13109,note_on,1,0,0,,7,,,55,127
13218,note_off,109,0,0,,7,,,79,127
13219,note_on,1,0,0,,4,,,76,127
13328,note_off,109,0,0,,7,,,55,127
13329,note_on,1,0,0,,0,,,72,127
13438,note_off,109,0,0,,4,,,76,127
13439,note_on,1,0,0,,7,,,79,127
13548,note_off,109,0,0,,0,,,72,127
13549,note_on,1,0,0,,4,,,76,127
13658,note_off,109,0,0,,7,,,79,127
13659,note_on,1,0,0,,0,,,84,127
13768,note_off,109,0,0,,4,,,76,127
13769,note_on,1,0,0,,7,,,55,127
13878,note_off,109,0,0,,0,,,84,127
13879,note_on,1,0,0,,2,,,74,127
13988,note_off,109,0,0,,7,,,55,127
13989,note_on,1,0,0,,12,,,71,127
14098,note_off,109,0,0,,2,,,74,127
14099,note_on,1,0,0,,7,,,79,127
14208,note_off,109,0,0,,12,,,71,127
14209,note_on,1,0,0,,2,,,74,127
14318,note_off,109,0,0,,7,,,79,127
14319,note_on,1,0,0,,12,,,83,127
14428,note_off,109,0,0,,2,,,74,127
14429,note_on,1,0,0,,2,,,50,127
14538,note_off,109,0,0,,12,,,83,127
14539,note_on,1,0,0,,0,,,72,127
14648,note_off,109,0,0,,2,,,50,127
14649,note_on,1,0,0,,10,,,69,127
14758,note_off,109,0,0,,0,,,72,127
14759,note_on,1,0,0,,6,,,78,127
14868,note_off,109,0,0,,10,,,69,127
14869,note_on,1,0,0,,0,,,72,127
14978,note_off,109,0,0,,6,,,78,127
14979,note_on,1,0,0,,10,,,81,127
15088,note_off,109,0,0,,10,,,81,127
15088,note_off,0,0,0,,0,,,72,127
15089,note_on,1,0,0,,7,,,79,127
15198,note_off,109,0,0,,7,,,79,127
15199,note_on,1,0,0,,2,,,74,127
15308,note_off,109,0,0,,2,,,74,127
15309,note_on,1,0,0,,12,,,71,127
15418,note_off,109,0,0,,12,,,71,127
15419,note_on,1,0,0,,7,,,67,127
15528,note_off,109,0,0,,7,,,67,127
15529,note_on,1,0,0,,2,,,62,127
15638,note_off,109,0,0,,2,,,62,127
15639,note_on,1,0,0,,12,,,59,127
15748,note_off,109,0,0,,12,,,59,127
15749,note_on,1,0,0,,7,,,55,127
15858,note_off,109,0,0,,7,,,55,127
15859,note_on,1,0,0,,2,,,50,127
15968,note_off,109,0,0,,2,,,50,127
15969,note_on,1,0,0,,12,,,47,127
16078,note_off,109,0,0,,12,,,47,127
16079,note_on,1,0,0,,7,,,43,127
16188,note_off,109,0,0,,7,,,43,127
16189,note_on,1,0,0,,2,,,38,127
16298,note_off,109,0,0,,2,,,38,127
16299,note_on,1,0,0,,12,,,35,127
16408,note_off,109,0,0,,12,,,35,127
16409,note_on,1,0,0,,7,,,31,127
17838,note_off,1429,0,0,,7,,,31,127
18055,note_on,217,0,0,,11,,,70,127
18055,note_on,0,0,0,,2,,,74,127
18055,note_on,0,0,0,,7,,,67,127
18273,note_off,218,0,0,,7,,,67,127
18273,note_off,0,0,0,,2,,,74,127
18273,note_off,0,0,0,,11,,,70,127
18274,note_on,1,0,0,,7,,,67,127
18274,note_on,0,0,0,,2,,,74,127
18274,note_on,0,0,0,,11,,,70,127
18274,note_on,0,0,0,,0,,,84,127
18328,note_off,54,0,0,,0,,,84,127
18329,note_on,1,0,0,,11,,,82,127
18383,note_off,54,0,0,,11,,,82,127
18384,note_on,1,0,0,,0,,,84,127
18438,note_off,54,0,0,,0,,,84,127
18439,note_on,1,0,0,,11,,,82,127
18493,note_off,54,0,0,,11,,,82,127
18493,note_off,0,0,0,,11,,,70,127
18493,note_off,0,0,0,,2,,,74,127
18493,note_off,0,0,0,,7,,,67,127
18494,note_on,1,0,0,,11,,,70,127
18494,note_on,0,0,0,,2,,,74,127
18494,note_on,0,0,0,,7,,,67,127
18494,note_on,0,0,0,,0,,,84,127
18548,note_off,54,0,0,,0,,,84,127
18549,note_on,1,0,0,,11,,,82,127
18603,note_off,54,0,0,,11,,,82,127
18604,note_on,1,0,0,,10,,,81,127
18658,note_off,54,0,0,,10,,,81,127
18659,note_on,1,0,0,,7,,,79,127
18713,note_off,54,0,0,,7,,,79,127
18713,note_off,0,0,0,,7,,,67,127
18713,note_off,0,0,0,,2,,,74,127
18713,note_off,0,0,0,,11,,,70,127
18714,note_on,1,0,0,,6,,,66,127
18714,note_on,0,0,0,,10,,,69,127
18714,note_on,0,0,0,,2,,,74,127
18714,note_on,0,0,0,,0,,,72,127
18932,note_off,218,0,0,,0,,,72,127
18932,note_off,0,0,0,,2,,,74,127
18932,note_off,0,0,0,,10,,,69,127
18932,note_off,0,0,0,,6,,,66,127
18933,note_on,1,0,0,,10,,,69,127
18933,note_on,0,0,0,,6,,,66,127
18933,note_on,0,0,0,,2,,,74,127
18933,note_on,0,0,0,,2,,,86,127
19151,note_off,218,0,0,,2,,,74,127
19151,note_off,0,0,0,,6,,,66,127
19151,note_off,0,0,0,,10,,,69,127
19152,note_on,1,0,0,,10,,,69,127
19152,note_on,0,0,0,,6,,,66,127
19152,note_on,0,0,0,,2,,,74,127
19370,note_off,218,0,0,,2,,,74,127
19370,note_off,0,0,0,,6,,,66,127
19370,note_off,0,0,0,,10,,,69,127
19389,note_on,19,0,0,,11,,,70,127
19389,note_on,0,0,0,,2,,,74,127
19389,note_on,0,0,0,,7,,,67,127
19480,note_off,91,0,0,,2,,,86,127
19607,note_off,127,0,0,,7,,,67,127
19607,note_off,0,0,0,,2,,,74,127
19607,note_off,0,0,0,,11,,,70,127
19608,note_on,1,0,0,,0,,,84,127
19608,note_on,0,0,0,,7,,,67,127
19608,note_on,0,0,0,,11,,,70,127
19608,note_on,0,0,0,,2,,,74,127
19662,note_off,54,0,0,,0,,,84,127
19663,note_on,1,0,0,,11,,,82,127
19717,note_off,54,0,0,,11,,,82,127
19718,note_on,1,0,0,,0,,,84,127
19772,note_off,54,0,0,,0,,,84,127
19773,note_on,1,0,0,,11,,,82,127
19827,note_off,54,0,0,,11,,,82,127
19827,note_off,0,0,0,,2,,,74,127
19827,note_off,0,0,0,,11,,,70,127
19827,note_off,0,0,0,,7,,,67,127
19828,note_on,1,0,0,,0,,,84,127
19828,note_on,0,0,0,,7,,,67,127
19828,note_on,0,0,0,,2,,,74,127
19828,note_on,0,0,0,,11,,,70,127
19882,note_off,54,0,0,,0,,,84,127
19883,note_on,1,0,0,,11,,,82,127
19937,note_off,54,0,0,,11,,,82,127
19938,note_on,1,0,0,,10,,,81,127
19992,note_off,54,0,0,,10,,,81,127
19993,note_on,1,0,0,,7,,,79,127
20047,note_off,54,0,0,,7,,,79,127
20047,note_off,0,0,0,,11,,,70,127
20047,note_off,0,0,0,,2,,,74,127
20047,note_off,0,0,0,,7,,,67,127
20048,note_on,1,0,0,,2,,,74,127
20048,note_on,0,0,0,,6,,,66,127
20048,note_on,0,0,0,,10,,,69,127
20048,note_on,0,0,0,,0,,,72,127
20266,note_off,218,0,0,,0,,,72,127
20266,note_off,0,0,0,,10,,,69,127
20266,note_off,0,0,0,,6,,,66,127
20267,note_on,1,0,0,,2,,,86,127
20267,note_on,0,0,0,,0,,,72,127
20267,note_on,0,0,0,,6,,,66,127
20267,note_on,0,0,0,,10,,,69,127
20485,note_off,218,0,0,,10,,,69,127
20485,note_off,0,0,0,,6,,,66,127
20485,note_off,0,0,0,,0,,,72,127
20486,note_on,1,0,0,,10,,,69,127
20486,note_on,0,0,0,,0,,,72,127
20486,note_on,0,0,0,,6,,,66,127
20587,note_off,101,0,0,,2,,,86,127
20705,note_off,118,0,0,,6,,,66,127
20705,note_off,0,0,0,,0,,,72,127
20705,note_off,0,0,0,,10,,,69,127
20705,note_off,0,0,0,,2,,,74,127
20720,note_on,15,0,0,,5,,,65,127
20720,note_on,0,0,0,,2,,,74,127
20720,note_on,0,0,0,,12,,,71,127
20938,note_off,218,0,0,,12,,,71,127
20938,note_off,0,0,0,,2,,,74,127
20938,note_off,0,0,0,,5,,,65,127
20939,note_on,1,0,0,,12,,,71,127
20939,note_on,0,0,0,,5,,,65,127
20939,note_on,0,0,0,,2,,,74,127
20939,note_on,0,0,0,,11,,,82,127
20993,note_off,54,0,0,,11,,,82,127
20994,note_on,1,0,0,,8,,,80,127
21048,note_off,54,0,0,,8,,,80,127
21049,note_on,1,0,0,,11,,,82,127
21103,note_off,54,0,0,,11,,,82,127
21104,note_on,1,0,0,,8,,,80,127
21158,note_off,54,0,0,,8,,,80,127
21158,note_off,0,0,0,,2,,,74,127
21158,note_off,0,0,0,,5,,,65,127
21158,note_off,0,0,0,,12,,,71,127
21159,note_on,1,0,0,,2,,,74,127
21159,note_on,0,0,0,,12,,,71,127
21159,note_on,0,0,0,,5,,,65,127
21159,note_on,0,0,0,,11,,,82,127
21213,note_off,54,0,0,,11,,,82,127
21214,note_on,1,0,0,,8,,,80,127
21268,note_off,54,0,0,,8,,,80,127
21269,note_on,1,0,0,,7,,,79,127
21323,note_off,54,0,0,,7,,,79,127
21324,note_on,1,0,0,,5,,,77,127
21378,note_off,54,0,0,,5,,,77,127
21378,note_off,0,0,0,,5,,,65,127
21378,note_off,0,0,0,,12,,,71,127
21378,note_off,0,0,0,,2,,,74,127
21379,note_on,1,0,0,,7,,,67,127
21379,note_on,0,0,0,,3,,,63,127
21379,note_on,0,0,0,,0,,,72,127
21597,note_off,218,0,0,,0,,,72,127
21597,note_off,0,0,0,,3,,,63,127
21597,note_off,0,0,0,,7,,,67,127
21598,note_on,1,0,0,,0,,,72,127
21598,note_on,0,0,0,,7,,,67,127
21598,note_on,0,0,0,,3,,,63,127
21598,note_on,0,0,0,,0,,,84,127
21816,note_off,218,0,0,,3,,,63,127
21816,note_off,0,0,0,,7,,,67,127
21816,note_off,0,0,0,,0,,,72,127
21817,note_on,1,0,0,,7,,,67,127
21817,note_on,0,0,0,,3,,,63,127
21817,note_on,0,0,0,,0,,,72,127
22035,note_off,218,0,0,,0,,,72,127
22035,note_off,0,0,0,,3,,,63,127
22035,note_off,0,0,0,,7,,,67,127
22050,note_on,15,0,0,,12,,,71,127
22050,note_on,0,0,0,,5,,,65,127
22050,note_on,0,0,0,,2,,,74,127
22146,note_off,96,0,0,,0,,,84,127
22268,note_off,122,0,0,,2,,,74,127
22268,note_off,0,0,0,,5,,,65,127
22268,note_off,0,0,0,,12,,,71,127
22269,note_on,1,0,0,,5,,,65,127
22269,note_on,0,0,0,,2,,,74,127
22269,note_on,0,0,0,,12,,,71,127
22269,note_on,0,0,0,,11,,,82,127
22323,note_off,54,0,0,,11,,,82,127
22324,note_on,1,0,0,,8,,,80,127
22378,note_off,54,0,0,,8,,,80,127
22379,note_on,1,0,0,,11,,,82,127
22433,note_off,54,0,0,,11,,,82,127
22434,note_on,1,0,0,,8,,,80,127
22488,note_off,54,0,0,,8,,,80,127
22488,note_off,0,0,0,,12,,,71,127
22488,note_off,0,0,0,,2,,,74,127
22488,note_off,0,0,0,,5,,,65,127
22489,note_on,1,0,0,,2,,,74,127
22489,note_on,0,0,0,,12,,,71,127
22489,note_on,0,0,0,,5,,,65,127
22489,note_on,0,0,0,,11,,,82,127
22543,note_off,54,0,0,,11,,,82,127
22544,note_on,1,0,0,,8,,,80,127
22598,note_off,54,0,0,,8,,,80,127
22599,note_on,1,0,0,,7,,,79,127
22653,note_off,54,0,0,,7,,,79,127
22654,note_on,1,0,0,,5,,,77,127
22708,note_off,54,0,0,,5,,,77,127
22708,note_off,0,0,0,,5,,,65,127
22708,note_off,0,0,0,,12,,,71,127
22708,note_off,0,0,0,,2,,,74,127
22709,note_on,1,0,0,,3,,,63,127
22709,note_on,0,0,0,,7,,,67,127
22709,note_on,0,0,0,,0,,,72,127
22927,note_off,218,0,0,,0,,,72,127
22927,note_off,0,0,0,,7,,,67,127
22927,note_off,0,0,0,,3,,,63,127
22928,note_on,1,0,0,,0,,,72,127
22928,note_on,0,0,0,,7,,,67,127
22928,note_on,0,0,0,,3,,,63,127
22928,note_on,0,0,0,,0,,,84,127
23146,note_off,218,0,0,,3,,,63,127
23146,note_off,0,0,0,,7,,,67,127
23146,note_off,0,0,0,,0,,,72,127
23147,note_on,1,0,0,,0,,,72,127
23147,note_on,0,0,0,,7,,,67,127
23147,note_on,0,0,0,,3,,,63,127
23365,note_off,218,0,0,,3,,,63,127
23365,note_off,0,0,0,,7,,,67,127
23365,note_off,0,0,0,,0,,,72,127
23366,note_on,1,0,0,,3,,,63,127
23366,note_on,0,0,0,,0,,,72,127
23366,note_on,0,0,0,,7,,,67,127
23475,note_off,109,0,0,,0,,,84,127
23476,note_on,1,0,0,,0,,,84,127
23585,note_off,109,0,0,,0,,,84,127
23585,note_off,0,0,0,,7,,,67,127
23585,note_off,0,0,0,,0,,,72,127
23585,note_off,0,0,0,,3,,,63,127
23586,note_on,1,0,0,,0,,,72,127
23586,note_on,0,0,0,,7,,,67,127
23586,note_on,0,0,0,,3,,,63,127
23586,note_on,0,0,0,,0,,,84,127
23695,note_off,109,0,0,,0,,,84,127
23696,note_on,1,0,0,,11,,,82,127
23805,note_off,109,0,0,,11,,,82,127
23805,note_off,0,0,0,,3,,,63,127
23805,note_off,0,0,0,,7,,,67,127
23805,note_off,0,0,0,,0,,,72,127
23806,note_on,1,0,0,,2,,,62,127
23806,note_on,0,0,0,,11,,,70,127
23806,note_on,0,0,0,,7,,,67,127
23806,note_on,0,0,0,,11,,,82,127
23915,note_off,109,0,0,,11,,,82,127
23916,note_on,1,0,0,,10,,,81,127
24025,note_off,109,0,0,,10,,,81,127
24025,note_off,0,0,0,,7,,,67,127
24025,note_off,0,0,0,,11,,,70,127
24025,note_off,0,0,0,,2,,,62,127
24026,note_on,1,0,0,,7,,,67,127
24026,note_on,0,0,0,,0,,,60,127
24026,note_on,0,0,0,,10,,,69,127
24026,note_on,0,0,0,,10,,,81,127
24135,note_off,109,0,0,,10,,,81,127
24136,note_on,1,0,0,,7,,,79,127
24245,note_off,109,0,0,,7,,,79,127
24245,note_off,0,0,0,,10,,,69,127
24245,note_off,0,0,0,,0,,,60,127
24245,note_off,0,0,0,,7,,,67,127
24246,note_on,1,0,0,,10,,,69,127
24246,note_on,0,0,0,,7,,,67,127
24246,note_on,0,0,0,,0,,,60,127
24246,note_on,0,0,0,,7,,,79,127
24355,note_off,109,0,0,,7,,,79,127
24356,note_on,1,0,0,,6,,,78,127
24465,note_off,109,0,0,,6,,,78,127
24465,note_off,0,0,0,,0,,,60,127
24465,note_off,0,0,0,,7,,,67,127
24465,note_off,0,0,0,,10,,,69,127
24466,note_on,1,0,0,,11,,,58,127
24466,note_on,0,0,0,,7,,,67,127
24466,note_on,0,0,0,,2,,,62,127
24466,note_on,0,0,0,,6,,,78,127
24575,note_off,109,0,0,,6,,,78,127
24576,note_on,1,0,0,,7,,,79,127
24685,note_off,109,0,0,,7,,,79,127
24685,note_off,0,0,0,,2,,,62,127
24685,note_off,0,0,0,,7,,,67,127
24685,note_off,0,0,0,,11,,,58,127
24686,note_on,1,0,0,,10,,,57,127
24686,note_on,0,0,0,,5,,,65,127
24686,note_on,0,0,0,,7,,,79,127
24795,note_off,109,0,0,,7,,,79,127
24796,note_on,1,0,0,,5,,,77,127
24905,note_off,109,0,0,,5,,,77,127
24905,note_off,0,0,0,,5,,,65,127
24905,note_off,0,0,0,,10,,,57,127
24906,note_on,1,0,0,,5,,,65,127
24906,note_on,0,0,0,,10,,,57,127
24906,note_on,0,0,0,,5,,,77,127
25015,note_off,109,0,0,,5,,,77,127
25016,note_on,1,0,0,,3,,,75,127
25125,note_off,109,0,0,,3,,,75,127
25125,note_off,0,0,0,,10,,,57,127
25125,note_off,0,0,0,,5,,,65,127
25126,note_on,1,0,0,,3,,,63,127
25126,note_on,0,0,0,,7,,,55,127
25126,note_on,0,0,0,,3,,,75,127
25235,note_off,109,0,0,,3,,,75,127
25236,note_on,1,0,0,,2,,,74,127
25345,note_off,109,0,0,,2,,,74,127
25345,note_off,0,0,0,,7,,,55,127
25345,note_off,0,0,0,,3,,,63,127
25346,note_on,1,0,0,,2,,,62,127
25346,note_on,0,0,0,,5,,,53,127
25346,note_on,0,0,0,,2,,,74,127
25455,note_off,109,0,0,,2,,,74,127
25456,note_on,1,0,0,,1,,,73,127
25565,note_off,109,0,0,,1,,,73,127
25565,note_off,0,0,0,,5,,,53,127
25565,note_off,0,0,0,,2,,,62,127
25566,note_on,1,0,0,,5,,,53,127
25566,note_on,0,0,0,,2,,,62,127
25566,note_on,0,0,0,,1,,,73,127
25675,note_off,109,0,0,,1,,,73,127
25676,note_on,1,0,0,,2,,,74,127
25785,note_off,109,0,0,,2,,,74,127
25785,note_off,0,0,0,,2,,,62,127
25785,note_off,0,0,0,,5,,,53,127
25786,note_on,1,0,0,,3,,,51,127
25786,note_on,0,0,0,,0,,,60,127
25786,note_on,0,0,0,,2,,,74,127
25895,note_off,109,0,0,,2,,,74,127
25896,note_on,1,0,0,,0,,,72,127
26005,note_off,109,0,0,,0,,,72,127
26005,note_off,0,0,0,,0,,,60,127
26005,note_off,0,0,0,,3,,,51,127
26006,note_on,1,0,0,,2,,,50,127
26006,note_on,0,0,0,,11,,,58,127
26006,note_on,0,0,0,,0,,,72,127
26115,note_off,109,0,0,,0,,,72,127
26116,note_on,1,0,0,,11,,,70,127
26225,note_off,109,0,0,,11,,,70,127
26225,note_off,0,0,0,,11,,,58,127
26225,note_off,0,0,0,,2,,,50,127
26226,note_on,1,0,0,,2,,,50,127
26226,note_on,0,0,0,,11,,,58,127
26226,note_on,0,0,0,,11,,,70,127
26335,note_off,109,0,0,,11,,,70,127
26336,note_on,1,0,0,,10,,,69,127
26445,note_off,109,0,0,,10,,,69,127
26445,note_off,0,0,0,,11,,,58,127
26445,note_off,0,0,0,,2,,,50,127
26446,note_on,1,0,0,,0,,,48,127
26446,note_on,0,0,0,,10,,,57,127
26446,note_on,0,0,0,,10,,,69,127
26555,note_off,109,0,0,,10,,,69,127
26556,note_on,1,0,0,,11,,,70,127
26665,note_off,109,0,0,,11,,,70,127
26665,note_off,0,0,0,,10,,,57,127
26665,note_off,0,0,0,,0,,,48,127
26666,note_on,1,0,0,,11,,,46,127
26666,note_on,0,0,0,,7,,,55,127
26666,note_on,0,0,0,,10,,,69,127
26775,note_off,109,0,0,,10,,,69,127
26776,note_on,1,0,0,,7,,,67,127
26885,note_off,109,0,0,,7,,,67,127
26885,note_off,0,0,0,,7,,,55,127
26885,note_off,0,0,0,,11,,,46,127
26886,note_on,1,0,0,,7,,,55,127
26886,note_on,0,0,0,,11,,,46,127
26886,note_on,0,0,0,,7,,,67,127
26995,note_off,109,0,0,,7,,,67,127
26996,note_on,1,0,0,,6,,,66,127
27105,note_off,109,0,0,,6,,,66,127
27105,note_off,0,0,0,,11,,,46,127
27105,note_off,0,0,0,,7,,,55,127
27106,note_on,1,0,0,,6,,,54,127
27106,note_on,0,0,0,,10,,,45,127
27106,note_on,0,0,0,,6,,,66,127
27215,note_off,109,0,0,,6,,,66,127
27216,note_on,1,0,0,,7,,,67,127
27325,note_off,109,0,0,,7,,,67,127
27325,note_off,0,0,0,,10,,,45,127
27325,note_off,0,0,0,,6,,,54,127
27326,note_on,1,0,0,,7,,,43,127
27326,note_on,0,0,0,,7,,,55,127
27326,note_on,0,0,0,,7,,,67,127
27435,note_off,109,0,0,,7,,,67,127
27436,note_on,1,0,0,,10,,,69,127
27545,note_off,109,0,0,,10,,,69,127
27545,note_off,0,0,0,,7,,,55,127
27545,note_off,0,0,0,,7,,,43,127
27546,note_on,1,0,0,,5,,,41,127
27546,note_on,0,0,0,,5,,,53,127
27546,note_on,0,0,0,,10,,,69,127
27655,note_off,109,0,0,,10,,,69,127
27656,note_on,1,0,0,,11,,,70,127
27765,note_off,109,0,0,,11,,,70,127
27765,note_off,0,0,0,,5,,,53,127
27765,note_off,0,0,0,,5,,,41,127
27766,note_on,1,0,0,,3,,,39,127
27766,note_on,0,0,0,,3,,,51,127
27766,note_on,0,0,0,,11,,,70,127
27875,note_off,109,0,0,,11,,,70,127
27876,note_on,1,0,0,,0,,,72,127
27985,note_off,109,0,0,,0,,,72,127
27985,note_off,0,0,0,,3,,,51,127
27985,note_off,0,0,0,,3,,,39,127
27986,note_on,1,0,0,,2,,,50,127
27986,note_on,0,0,0,,2,,,38,127
27986,note_on,0,0,0,,2,,,74,127
28095,note_off,109,0,0,,2,,,74,127
28096,note_on,1,0,0,,10,,,69,127
28205,note_off,109,0,0,,10,,,69,127
28206,note_on,1,0,0,,6,,,66,127
28315,note_off,109,0,0,,6,,,66,127
28316,note_on,1,0,0,,2,,,62,127
28425,note_off,109,0,0,,2,,,62,127
28426,note_on,1,0,0,,2,,,62,127
28535,note_off,109,0,0,,2,,,62,127
28541,note_on,6,0,0,,2,,,62,127
28645,note_off,104,0,0,,2,,,38,127
28645,note_off,0,0,0,,2,,,50,127
28668,note_off,23,0,0,,2,,,62,127
28681,note_on,13,0,0,,2,,,38,127
29558,note_off,877,0,0,,2,,,38,127
29575,note_on,17,0,0,,2,,,62,127
29685,note_on,110,0,0,,6,,,66,127
29794,note_off,109,0,0,,6,,,66,127
29794,note_off,0,0,0,,2,,,62,127
29795,note_on,1,0,0,,6,,,66,127
29905,note_on,110,0,0,,10,,,69,127
30014,note_off,109,0,0,,10,,,69,127
30014,note_off,0,0,0,,6,,,66,127
30015,note_on,1,0,0,,10,,,69,127
30125,note_on,110,0,0,,0,,,72,127
30234,note_off,109,0,0,,10,,,69,127
30235,note_on,1,0,0,,2,,,62,127
30344,note_off,109,0,0,,0,,,72,127
30345,note_on,1,0,0,,12,,,71,127
30454,note_off,109,0,0,,2,,,62,127
30455,note_on,1,0,0,,7,,,67,127
30564,note_off,109,0,0,,12,,,71,127
30565,note_on,1,0,0,,2,,,74,127
30674,note_off,109,0,0,,7,,,67,127
30675,note_on,1,0,0,,12,,,71,127
30784,note_off,109,0,0,,2,,,74,127
30785,note_on,1,0,0,,7,,,79,127
30894,note_off,109,0,0,,12,,,71,127
30895,note_on,1,0,0,,2,,,62,127
31004,note_off,109,0,0,,7,,,79,127
31005,note_on,1,0,0,,0,,,72,127
31114,note_off,109,0,0,,2,,,62,127
31115,note_on,1,0,0,,10,,,69,127
31224,note_off,109,0,0,,0,,,72,127
31225,note_on,1,0,0,,6,,,78,127
31334,note_off,109,0,0,,10,,,69,127
31335,note_on,1,0,0,,0,,,72,127
31444,note_off,109,0,0,,6,,,78,127
31445,note_on,1,0,0,,10,,,81,127
31554,note_off,109,0,0,,0,,,72,127
31555,note_on,1,0,0,,2,,,62,127
31664,note_off,109,0,0,,10,,,81,127
31665,note_on,1,0,0,,2,,,74,127
31774,note_off,109,0,0,,2,,,62,127
31775,note_on,1,0,0,,12,,,71,127
31884,note_off,109,0,0,,2,,,74,127
31885,note_on,1,0,0,,7,,,79,127
31994,note_off,109,0,0,,12,,,71,127
31995,note_on,1,0,0,,2,,,74,127
32104,note_off,109,0,0,,7,,,79,127
32105,note_on,1,0,0,,12,,,83,127
32233,note_on,128,0,0,,2,,,50,127
32242,note_off,9,0,0,,12,,,83,127
32247,note_off,5,0,0,,2,,,74,127
32343,note_on,96,0,0,,6,,,66,127
32452,note_off,109,0,0,,6,,,66,127
32452,note_off,0,0,0,,2,,,50,127
32453,note_on,1,0,0,,6,,,66,127
32563,note_on,110,0,0,,10,,,69,127
32672,note_off,109,0,0,,10,,,69,127
32672,note_off,0,0,0,,6,,,66,127
32673,note_on,1,0,0,,10,,,69,127
32783,note_on,110,0,0,,0,,,72,127
32892,note_off,109,0,0,,10,,,69,127
32893,note_on,1,0,0,,2,,,50,127
33002,note_off,109,0,0,,0,,,72,127
33003,note_on,1,0,0,,12,,,71,127
33112,note_off,109,0,0,,2,,,50,127
33113,note_on,1,0,0,,7,,,67,127
33222,note_off,109,0,0,,12,,,71,127
33223,note_on,1,0,0,,2,,,74,127
33332,note_off,109,0,0,,7,,,67,127
33333,note_on,1,0,0,,12,,,71,127
33442,note_off,109,0,0,,2,,,74,127
33443,note_on,1,0,0,,7,,,79,127
33552,note_off,109,0,0,,12,,,71,127
33553,note_on,1,0,0,,2,,,50,127
33662,note_off,109,0,0,,7,,,79,127
33663,note_on,1,0,0,,0,,,72,127
33772,note_off,109,0,0,,2,,,50,127
33773,note_on,1,0,0,,10,,,69,127
33882,note_off,109,0,0,,0,,,72,127
33883,note_on,1,0,0,,6,,,78,127
33992,note_off,109,0,0,,10,,,69,127
33993,note_on,1,0,0,,0,,,72,127
34102,note_off,109,0,0,,6,,,78,127
34103,note_on,1,0,0,,10,,,81,127
34212,note_off,109,0,0,,0,,,72,127
34213,note_on,1,0,0,,2,,,50,127
34322,note_off,109,0,0,,10,,,81,127
34323,note_on,1,0,0,,2,,,74,127
34432,note_off,109,0,0,,2,,,50,127
34433,note_on,1,0,0,,12,,,71,127
34542,note_off,109,0,0,,2,,,74,127
34543,note_on,1,0,0,,7,,,79,127
34652,note_off,109,0,0,,12,,,71,127
34653,note_on,1,0,0,,2,,,74,127
34762,note_off,109,0,0,,7,,,79,127
34763,note_on,1,0,0,,12,,,83,127
34889,note_off,126,0,0,,12,,,83,127
34891,note_on,2,0,0,,4,,,76,127
34893,note_off,2,0,0,,2,,,74,127
34944,note_off,51,0,0,,4,,,76,127
34945,note_on,1,0,0,,2,,,74,127
34999,note_off,54,0,0,,2,,,74,127
35000,note_on,1,0,0,,4,,,76,127
35054,note_off,54,0,0,,4,,,76,127
35055,note_on,1,0,0,,2,,,74,127
35109,note_off,54,0,0,,2,,,74,127
35110,note_on,1,0,0,,4,,,76,127
35164,note_off,54,0,0,,4,,,76,127
35165,note_on,1,0,0,,2,,,74,127
35219,note_off,54,0,0,,2,,,74,127
35220,note_on,1,0,0,,4,,,76,127
35274,note_off,54,0,0,,4,,,76,127
35275,note_on,1,0,0,,2,,,74,127
35330,note_on,55,0,0,,4,,,64,127
35384,note_off,54,0,0,,4,,,64,127
35385,note_on,1,0,0,,2,,,62,127
35439,note_off,54,0,0,,2,,,62,127
35440,note_on,1,0,0,,4,,,64,127
35494,note_off,54,0,0,,4,,,64,127
35495,note_on,1,0,0,,2,,,62,127
35549,note_off,54,0,0,,2,,,62,127
35550,note_on,1,0,0,,4,,,64,127
35604,note_off,54,0,0,,4,,,64,127
35605,note_on,1,0,0,,2,,,62,127
35659,note_off,54,0,0,,2,,,62,127
35660,note_on,1,0,0,,4,,,64,127
35710,note_off,50,0,0,,2,,,74,127
35713,note_off,3,0,0,,4,,,64,127
35714,note_on,1,0,0,,2,,,62,127
35769,note_on,55,0,0,,4,,,52,127
35823,note_off,54,0,0,,4,,,52,127
35824,note_on,1,0,0,,2,,,50,127
35878,note_off,54,0,0,,2,,,50,127
35879,note_on,1,0,0,,4,,,52,127
35933,note_off,54,0,0,,4,,,52,127
35934,note_on,1,0,0,,2,,,50,127
35988,note_off,54,0,0,,2,,,50,127
35989,note_on,1,0,0,,4,,,52,127
36043,note_off,54,0,0,,4,,,52,127
36044,note_on,1,0,0,,2,,,50,127
36098,note_off,54,0,0,,2,,,50,127
36099,note_on,1,0,0,,4,,,52,127
36149,note_off,50,0,0,,2,,,62,127
36152,note_off,3,0,0,,4,,,52,127
36153,note_on,1,0,0,,2,,,50,127
36208,note_on,55,0,0,,4,,,40,127
36262,note_off,54,0,0,,4,,,40,127
36263,note_on,1,0,0,,2,,,38,127
36317,note_off,54,0,0,,2,,,38,127
36318,note_on,1,0,0,,4,,,40,127
36371,note_off,53,0,0,,2,,,50,127
36372,note_off,1,0,0,,4,,,40,127
36373,note_on,1,0,0,,2,,,38,127
36427,note_off,54,0,0,,2,,,38,127
36428,note_on,1,0,0,,4,,,40,127
36482,note_off,54,0,0,,4,,,40,127
36483,note_on,1,0,0,,2,,,38,127
36537,note_off,54,0,0,,2,,,38,127
36538,note_on,1,0,0,,4,,,40,127
36592,note_off,54,0,0,,4,,,40,127
36593,note_on,1,0,0,,2,,,38,127
36647,note_off,54,0,0,,2,,,38,127
36650,note_on,3,0,0,,4,,,40,127
36704,note_off,54,0,0,,4,,,40,127
36709,note_on,5,0,0,,2,,,38,127
37586,note_off,877,0,0,,2,,,38,127
38185,note_on,599,0,0,,0,,,84,127
38294,note_off,109,0,0,,0,,,84,127
38295,note_on,1,0,0,,10,,,81,127
38404,note_off,109,0,0,,10,,,81,127
38405,note_on,1,0,0,,6,,,78,127
38514,note_off,109,0,0,,6,,,78,127
38515,note_on,1,0,0,,3,,,75,127
38624,note_off,109,0,0,,3,,,75,127
38625,note_on,1,0,0,,6,,,66,127
38625,note_on,0,0,0,,0,,,72,127
38734,note_off,109,0,0,,0,,,72,127
38735,note_on,1,0,0,,10,,,69,127
38844,note_off,109,0,0,,10,,,69,127
38844,note_off,0,0,0,,6,,,66,127
38845,note_on,1,0,0,,7,,,67,127
38845,note_on,0,0,0,,10,,,69,127
39063,note_off,218,0,0,,10,,,69,127
39063,note_off,0,0,0,,7,,,67,127
39064,note_on,1,0,0,,2,,,62,127
39064,note_on,0,0,0,,11,,,70,127
39282,note_off,218,0,0,,2,,,62,127
39283,note_on,1,0,0,,7,,,55,127
39501,note_off,218,0,0,,11,,,70,127
39520,note_on,19,0,0,,0,,,84,127
39611,note_off,91,0,0,,7,,,55,127
39628,note_off,17,0,0,,0,,,84,127
39629,note_on,1,0,0,,10,,,81,127
39738,note_off,109,0,0,,10,,,81,127
39739,note_on,1,0,0,,6,,,78,127
39848,note_off,109,0,0,,6,,,78,127
39849,note_on,1,0,0,,3,,,75,127
39958,note_off,109,0,0,,3,,,75,127
39959,note_on,1,0,0,,0,,,72,127
39959,note_on,0,0,0,,6,,,66,127
40068,note_off,109,0,0,,0,,,72,127
40069,note_on,1,0,0,,10,,,69,127
40178,note_off,109,0,0,,10,,,69,127
40178,note_off,0,0,0,,6,,,66,127
40179,note_on,1,0,0,,10,,,69,127
40179,note_on,0,0,0,,7,,,67,127
40397,note_off,218,0,0,,7,,,67,127
40397,note_off,0,0,0,,10,,,69,127
40398,note_on,1,0,0,,11,,,70,127
40398,note_on,0,0,0,,2,,,62,127
40616,note_off,218,0,0,,2,,,62,127
40617,note_on,1,0,0,,7,,,55,127
40811,note_off,194,0,0,,7,,,55,127
40835,note_off,24,0,0,,11,,,70,127
40849,note_on,14,0,0,,11,,,82,127
40958,note_off,109,0,0,,11,,,82,127
40959,note_on,1,0,0,,7,,,79,127
41068,note_off,109,0,0,,7,,,79,127
41069,note_on,1,0,0,,4,,,76,127
41178,note_off,109,0,0,,4,,,76,127
41179,note_on,1,0,0,,1,,,73,127
41288,note_off,109,0,0,,1,,,73,127
41289,note_on,1,0,0,,11,,,70,127
41289,note_on,0,0,0,,1,,,61,127
41398,note_off,109,0,0,,11,,,70,127
41399,note_on,1,0,0,,7,,,79,127
41508,note_off,109,0,0,,7,,,79,127
41508,note_off,0,0,0,,1,,,61,127
41509,note_on,1,0,0,,7,,,79,127
41509,note_on,0,0,0,,1,,,73,127
41509,note_on,0,0,0,,2,,,62,127
41618,note_off,109,0,0,,7,,,79,127
41619,note_on,1,0,0,,4,,,76,127
41728,note_off,109,0,0,,4,,,76,127
41728,note_off,0,0,0,,2,,,62,127
41729,note_on,1,0,0,,4,,,76,127
41729,note_on,0,0,0,,10,,,57,127
41947,note_off,218,0,0,,10,,,57,127
41947,note_off,0,0,0,,4,,,76,127
41947,note_off,0,0,0,,1,,,73,127
41948,note_on,1,0,0,,5,,,77,127
41948,note_on,0,0,0,,2,,,74,127
41948,note_on,0,0,0,,2,,,50,127
42166,note_off,218,0,0,,2,,,74,127
42166,note_off,0,0,0,,5,,,77,127
42167,note_on,1,0,0,,11,,,82,127
42276,note_off,109,0,0,,11,,,82,127
42277,note_off,1,0,0,,2,,,50,127
42277,note_on,0,0,0,,7,,,79,127
42386,note_off,109,0,0,,7,,,79,127
42387,note_on,1,0,0,,4,,,76,127
42496,note_off,109,0,0,,4,,,76,127
42497,note_on,1,0,0,,1,,,73,127
42606,note_off,109,0,0,,1,,,73,127
42607,note_on,1,0,0,,11,,,70,127
42607,note_on,0,0,0,,1,,,61,127
42716,note_off,109,0,0,,11,,,70,127
42717,note_on,1,0,0,,7,,,79,127
42826,note_off,109,0,0,,7,,,79,127
42826,note_off,0,0,0,,1,,,61,127
42827,note_on,1,0,0,,1,,,73,127
42827,note_on,0,0,0,,7,,,79,127
42827,note_on,0,0,0,,2,,,62,127
42936,note_off,109,0,0,,7,,,79,127
42937,note_on,1,0,0,,4,,,76,127
43046,note_off,109,0,0,,4,,,76,127
43046,note_off,0,0,0,,2,,,62,127
43047,note_on,1,0,0,,4,,,76,127
43047,note_on,0,0,0,,10,,,57,127
43265,note_off,218,0,0,,10,,,57,127
43265,note_off,0,0,0,,4,,,76,127
43265,note_off,0,0,0,,1,,,73,127
43266,note_on,1,0,0,,5,,,77,127
43266,note_on,0,0,0,,2,,,74,127
43266,note_on,0,0,0,,2,,,50,127
43460,note_off,194,0,0,,2,,,50,127
43484,note_off,24,0,0,,2,,,74,127
43484,note_off,0,0,0,,5,,,77,127
43503,note_on,19,0,0,,2,,,74,127
43503,note_on,0,0,0,,5,,,77,127
43612,note_off,109,0,0,,2,,,74,127
43613,note_on,1,0,0,,10,,,69,127
43722,note_off,109,0,0,,10,,,69,127
43722,note_off,0,0,0,,5,,,77,127
43723,note_on,1,0,0,,1,,,85,127
43723,note_on,0,0,0,,1,,,73,127
43723,note_on,0,0,0,,4,,,76,127
43832,note_off,109,0,0,,1,,,73,127
43833,note_on,1,0,0,,10,,,69,127
43942,note_off,109,0,0,,10,,,69,127
43942,note_off,0,0,0,,4,,,76,127
43942,note_off,0,0,0,,1,,,85,127
43943,note_on,1,0,0,,2,,,86,127
43943,note_on,0,0,0,,5,,,77,127
43943,note_on,0,0,0,,2,,,74,127
44052,note_off,109,0,0,,2,,,74,127
44053,note_on,1,0,0,,10,,,69,127
44162,note_off,109,0,0,,10,,,69,127
44162,note_off,0,0,0,,5,,,77,127
44162,note_off,0,0,0,,2,,,86,127
44163,note_on,1,0,0,,10,,,45,127
44163,note_on,0,0,0,,4,,,76,127
44163,note_on,0,0,0,,1,,,73,127
44272,note_off,109,0,0,,1,,,73,127
44273,note_on,1,0,0,,10,,,69,127
44382,note_off,109,0,0,,10,,,69,127
44382,note_off,0,0,0,,4,,,76,127
44383,note_on,1,0,0,,2,,,74,127
44492,note_off,109,0,0,,2,,,74,127
44493,note_on,1,0,0,,10,,,69,127
44602,note_off,109,0,0,,10,,,69,127
44603,note_on,1,0,0,,1,,,73,127
44712,note_off,109,0,0,,1,,,73,127
44713,note_on,1,0,0,,10,,,69,127
44822,note_off,109,0,0,,10,,,69,127
44823,note_on,1,0,0,,1,,,73,127
44823,note_on,0,0,0,,4,,,76,127
44932,note_off,109,0,0,,1,,,73,127
44933,note_on,1,0,0,,10,,,69,127
44942,note_off,9,0,0,,10,,,45,127
45041,note_off,99,0,0,,10,,,69,127
45041,note_off,0,0,0,,4,,,76,127
45042,note_on,1,0,0,,10,,,81,127
45042,note_on,0,0,0,,2,,,74,127
45042,note_on,0,0,0,,5,,,77,127
45151,note_off,109,0,0,,2,,,74,127
45152,note_on,1,0,0,,10,,,69,127
45261,note_off,109,0,0,,10,,,69,127
45261,note_off,0,0,0,,5,,,77,127
45261,note_off,0,0,0,,10,,,81,127
45262,note_on,1,0,0,,1,,,85,127
45262,note_on,0,0,0,,7,,,79,127
45262,note_on,0,0,0,,4,,,76,127
45371,note_off,109,0,0,,4,,,76,127
45372,note_on,1,0,0,,10,,,69,127
45481,note_off,109,0,0,,10,,,69,127
45481,note_off,0,0,0,,7,,,79,127
45481,note_off,0,0,0,,1,,,85,127
45482,note_on,1,0,0,,2,,,38,127
45482,note_on,0,0,0,,5,,,77,127
45591,note_off,109,0,0,,5,,,77,127
45592,note_on,1,0,0,,10,,,69,127
45701,note_off,109,0,0,,10,,,69,127
45702,note_on,1,0,0,,4,,,76,127
45811,note_off,109,0,0,,4,,,76,127
45812,note_on,1,0,0,,10,,,69,127
45921,note_off,109,0,0,,10,,,69,127
45922,note_on,1,0,0,,2,,,74,127
46031,note_off,109,0,0,,2,,,74,127
46032,note_on,1,0,0,,10,,,69,127
46141,note_off,109,0,0,,10,,,69,127
46142,note_on,1,0,0,,2,,,74,127
46142,note_on,0,0,0,,5,,,77,127
46251,note_off,109,0,0,,2,,,74,127
46252,note_on,1,0,0,,10,,,69,127
46361,note_off,109,0,0,,10,,,69,127
46361,note_off,0,0,0,,5,,,77,127
46361,note_off,0,0,0,,2,,,38,127
46362,note_on,1,0,0,,1,,,85,127
46362,note_on,0,0,0,,4,,,76,127
46362,note_on,0,0,0,,1,,,73,127
46471,note_off,109,0,0,,1,,,73,127
46472,note_on,1,0,0,,10,,,69,127
46581,note_off,109,0,0,,10,,,69,127
46581,note_off,0,0,0,,4,,,76,127
46581,note_off,0,0,0,,1,,,85,127
46582,note_on,1,0,0,,2,,,86,127
46582,note_on,0,0,0,,2,,,74,127
46582,note_on,0,0,0,,5,,,77,127
46691,note_off,109,0,0,,2,,,74,127
46692,note_on,1,0,0,,10,,,69,127
46801,note_off,109,0,0,,10,,,69,127
46801,note_off,0,0,0,,5,,,77,127
46801,note_off,0,0,0,,2,,,86,127
46802,note_on,1,0,0,,10,,,45,127
46802,note_on,0,0,0,,1,,,73,127
46802,note_on,0,0,0,,4,,,76,127
46911,note_off,109,0,0,,1,,,73,127
46912,note_on,1,0,0,,10,,,69,127
47021,note_off,109,0,0,,10,,,69,127
47021,note_off,0,0,0,,4,,,76,127
47022,note_on,1,0,0,,2,,,74,127
47131,note_off,109,0,0,,2,,,74,127
47132,note_on,1,0,0,,10,,,69,127
47241,note_off,109,0,0,,10,,,69,127
47242,note_on,1,0,0,,1,,,73,127
47351,note_off,109,0,0,,1,,,73,127
47352,note_on,1,0,0,,10,,,69,127
47461,note_off,109,0,0,,10,,,69,127
47462,note_on,1,0,0,,4,,,76,127
47462,note_on,0,0,0,,1,,,73,127
47571,note_off,109,0,0,,1,,,73,127
47572,note_on,1,0,0,,10,,,69,127
47581,note_off,9,0,0,,10,,,45,127
47680,note_off,99,0,0,,10,,,69,127
47680,note_off,0,0,0,,4,,,76,127
47681,note_on,1,0,0,,10,,,81,127
47681,note_on,0,0,0,,2,,,74,127
47681,note_on,0,0,0,,5,,,77,127
47790,note_off,109,0,0,,2,,,74,127
47791,note_on,1,0,0,,10,,,69,127
47900,note_off,109,0,0,,10,,,69,127
47900,note_off,0,0,0,,5,,,77,127
47900,note_off,0,0,0,,10,,,81,127
47901,note_on,1,0,0,,1,,,85,127
47901,note_on,0,0,0,,4,,,76,127
47901,note_on,0,0,0,,7,,,79,127
48010,note_off,109,0,0,,4,,,76,127
48011,note_on,1,0,0,,10,,,69,127
48120,note_off,109,0,0,,10,,,69,127
48120,note_off,0,0,0,,7,,,79,127
48120,note_off,0,0,0,,1,,,85,127
48121,note_on,1,0,0,,2,,,38,127
48121,note_on,0,0,0,,5,,,77,127
48230,note_off,109,0,0,,5,,,77,127
48231,note_on,1,0,0,,10,,,69,127
48340,note_off,109,0,0,,10,,,69,127
48341,note_on,1,0,0,,4,,,76,127
48450,note_off,109,0,0,,4,,,76,127
48451,note_on,1,0,0,,10,,,69,127
48560,note_off,109,0,0,,10,,,69,127
48561,note_on,1,0,0,,2,,,74,127
48670,note_off,109,0,0,,2,,,74,127
48671,note_on,1,0,0,,10,,,69,127
48780,note_off,109,0,0,,10,,,69,127
48780,note_off,0,0,0,,2,,,38,127
48799,note_on,19,0,0,,1,,,73,127
48799,note_on,0,0,0,,6,,,54,127
48908,note_off,109,0,0,,1,,,73,127
48909,note_on,1,0,0,,10,,,69,127
49018,note_off,109,0,0,,10,,,69,127
49018,note_off,0,0,0,,6,,,54,127
49019,note_on,1,0,0,,2,,,74,127
49019,note_on,0,0,0,,10,,,81,127
49128,note_off,109,0,0,,2,,,74,127
49129,note_on,1,0,0,,10,,,69,127
49238,note_off,109,0,0,,10,,,69,127
49238,note_off,0,0,0,,10,,,81,127
49239,note_on,1,0,0,,1,,,73,127
49239,note_on,0,0,0,,6,,,54,127
49348,note_off,109,0,0,,1,,,73,127
49349,note_on,1,0,0,,10,,,69,127
49458,note_off,109,0,0,,10,,,69,127
49458,note_off,0,0,0,,6,,,54,127
49459,note_on,1,0,0,,12,,,71,127
49459,note_on,0,0,0,,7,,,55,127
49568,note_off,109,0,0,,12,,,71,127
49569,note_on,1,0,0,,10,,,69,127
49678,note_off,109,0,0,,10,,,69,127
49678,note_off,0,0,0,,7,,,55,127
49679,note_on,1,0,0,,4,,,76,127
49679,note_on,0,0,0,,12,,,83,127
49788,note_off,109,0,0,,4,,,76,127
49789,note_on,1,0,0,,10,,,69,127
49898,note_off,109,0,0,,10,,,69,127
49898,note_off,0,0,0,,12,,,83,127
49899,note_on,1,0,0,,2,,,74,127
49899,note_on,0,0,0,,7,,,55,127
50008,note_off,109,0,0,,2,,,74,127
50009,note_on,1,0,0,,10,,,69,127
50118,note_off,109,0,0,,10,,,69,127
50118,note_off,0,0,0,,7,,,55,127
50119,note_on,1,0,0,,1,,,73,127
50119,note_on,0,0,0,,10,,,57,127
50228,note_off,109,0,0,,1,,,73,127
50229,note_on,1,0,0,,10,,,69,127
50338,note_off,109,0,0,,10,,,69,127
50338,note_off,0,0,0,,10,,,57,127
50339,note_on,1,0,0,,2,,,74,127
50339,note_on,0,0,0,,1,,,85,127
50448,note_off,109,0,0,,2,,,74,127
50449,note_on,1,0,0,,10,,,69,127
50558,note_off,109,0,0,,10,,,69,127
50558,note_off,0,0,0,,1,,,85,127
50559,note_on,1,0,0,,4,,,76,127
50559,note_on,0,0,0,,10,,,57,127
50668,note_off,109,0,0,,4,,,76,127
50669,note_on,1,0,0,,10,,,69,127
50778,note_off,109,0,0,,10,,,69,127
50778,note_off,0,0,0,,10,,,57,127
50779,note_on,1,0,0,,6,,,78,127
50779,note_on,0,0,0,,2,,,50,127
50888,note_off,109,0,0,,6,,,78,127
50889,note_on,1,0,0,,10,,,69,127
50998,note_off,109,0,0,,10,,,69,127
50999,note_on,1,0,0,,4,,,76,127
51108,note_off,109,0,0,,4,,,76,127
51109,note_on,1,0,0,,10,,,69,127
51218,note_off,109,0,0,,10,,,69,127
51219,note_on,1,0,0,,2,,,74,127
51328,note_off,109,0,0,,2,,,74,127
51329,note_on,1,0,0,,10,,,69,127
51438,note_off,109,0,0,,2,,,50,127
51449,note_off,11,0,0,,10,,,69,127
51457,note_on,8,0,0,,6,,,54,127
51457,note_on,0,0,0,,1,,,73,127
51566,note_off,109,0,0,,1,,,73,127
51567,note_on,1,0,0,,10,,,69,127
51676,note_off,109,0,0,,10,,,69,127
51676,note_off,0,0,0,,6,,,54,127
51677,note_on,1,0,0,,10,,,81,127
51677,note_on,0,0,0,,2,,,74,127
51786,note_off,109,0,0,,2,,,74,127
51787,note_on,1,0,0,,10,,,69,127
51896,note_off,109,0,0,,10,,,69,127
51896,note_off,0,0,0,,10,,,81,127
51897,note_on,1,0,0,,6,,,54,127
51897,note_on,0,0,0,,1,,,73,127
52006,note_off,109,0,0,,1,,,73,127
52007,note_on,1,0,0,,10,,,69,127
52116,note_off,109,0,0,,10,,,69,127
52116,note_off,0,0,0,,6,,,54,127
52117,note_on,1,0,0,,7,,,55,127
52117,note_on,0,0,0,,12,,,71,127
52226,note_off,109,0,0,,12,,,71,127
52227,note_on,1,0,0,,10,,,69,127
52336,note_off,109,0,0,,10,,,69,127
52336,note_off,0,0,0,,7,,,55,127
52337,note_on,1,0,0,,12,,,83,127
52337,note_on,0,0,0,,4,,,76,127
52446,note_off,109,0,0,,4,,,76,127
52447,note_on,1,0,0,,10,,,69,127
52556,note_off,109,0,0,,10,,,69,127
52556,note_off,0,0,0,,12,,,83,127
52557,note_on,1,0,0,,7,,,55,127
52557,note_on,0,0,0,,2,,,74,127
52666,note_off,109,0,0,,2,,,74,127
52667,note_on,1,0,0,,10,,,69,127
52776,note_off,109,0,0,,10,,,69,127
52776,note_off,0,0,0,,7,,,55,127
52777,note_on,1,0,0,,10,,,57,127
52777,note_on,0,0,0,,1,,,73,127
52886,note_off,109,0,0,,1,,,73,127
52887,note_on,1,0,0,,10,,,69,127
52996,note_off,109,0,0,,10,,,69,127
52996,note_off,0,0,0,,10,,,57,127
52997,note_on,1,0,0,,1,,,85,127
52997,note_on,0,0,0,,2,,,74,127
53106,note_off,109,0,0,,2,,,74,127
53107,note_on,1,0,0,,10,,,69,127
53216,note_off,109,0,0,,10,,,69,127
53216,note_off,0,0,0,,1,,,85,127
53217,note_on,1,0,0,,10,,,57,127
53217,note_on,0,0,0,,4,,,76,127
53326,note_off,109,0,0,,4,,,76,127
53327,note_on,1,0,0,,10,,,69,127
53436,note_off,109,0,0,,10,,,69,127
53436,note_off,0,0,0,,10,,,57,127
53437,note_on,1,0,0,,2,,,50,127
53437,note_on,0,0,0,,6,,,78,127
53546,note_off,109,0,0,,6,,,78,127
53547,note_on,1,0,0,,7,,,79,127
53656,note_off,109,0,0,,7,,,79,127
53657,note_on,1,0,0,,10,,,81,127
53766,note_off,109,0,0,,10,,,81,127
53767,note_on,1,0,0,,7,,,79,127
53876,note_off,109,0,0,,7,,,79,127
53877,note_on,1,0,0,,6,,,78,127
53986,note_off,109,0,0,,6,,,78,127
53987,note_on,1,0,0,,4,,,76,127
54096,note_off,109,0,0,,4,,,76,127
54096,note_off,0,0,0,,2,,,50,127
54097,note_on,1,0,0,,6,,,54,127
54097,note_on,0,0,0,,2,,,74,127
54206,note_off,109,0,0,,2,,,74,127
54207,note_on,1,0,0,,1,,,73,127
54316,note_off,109,0,0,,1,,,73,127
54317,note_on,1,0,0,,12,,,71,127
54426,note_off,109,0,0,,12,,,71,127
54427,note_on,1,0,0,,10,,,69,127
54536,note_off,109,0,0,,10,,,69,127
54537,note_on,1,0,0,,7,,,67,127
54646,note_off,109,0,0,,7,,,67,127
54647,note_on,1,0,0,,6,,,66,127
54756,note_off,109,0,0,,6,,,66,127
54756,note_off,0,0,0,,6,,,54,127
54757,note_on,1,0,0,,10,,,57,127
54757,note_on,0,0,0,,12,,,71,127
54866,note_off,109,0,0,,12,,,71,127
54867,note_on,1,0,0,,10,,,69,127
54976,note_off,109,0,0,,10,,,69,127
54977,note_on,1,0,0,,7,,,67,127
55086,note_off,109,0,0,,7,,,67,127
55087,note_on,1,0,0,,6,,,66,127
55196,note_off,109,0,0,,6,,,66,127
55197,note_on,1,0,0,,4,,,64,127
55306,note_off,109,0,0,,4,,,64,127
55307,note_on,1,0,0,,2,,,62,127
55416,note_off,109,0,0,,2,,,62,127
55416,note_off,0,0,0,,10,,,57,127
55417,note_on,1,0,0,,10,,,45,127
55417,note_on,0,0,0,,1,,,61,127
55526,note_off,109,0,0,,1,,,61,127
55527,note_on,1,0,0,,12,,,59,127
55636,note_off,109,0,0,,12,,,59,127
55637,note_on,1,0,0,,10,,,57,127
55746,note_off,109,0,0,,10,,,57,127
55747,note_on,1,0,0,,7,,,55,127
55856,note_off,109,0,0,,7,,,55,127
55857,note_on,1,0,0,,6,,,54,127
55966,note_off,109,0,0,,6,,,54,127
55967,note_on,1,0,0,,4,,,52,127
56076,note_off,109,0,0,,4,,,52,127
56076,note_off,0,0,0,,10,,,45,127
56077,note_on,1,0,0,,2,,,38,127
56077,note_on,0,0,0,,6,,,54,127
56186,note_off,109,0,0,,6,,,54,127
56187,note_on,1,0,0,,2,,,50,127
56296,note_off,109,0,0,,2,,,50,127
56297,note_on,1,0,0,,6,,,54,127
56406,note_off,109,0,0,,6,,,54,127
56407,note_on,1,0,0,,10,,,57,127
56516,note_off,109,0,0,,10,,,57,127
56517,note_on,1,0,0,,10,,,81,127
56736,note_on,219,0,0,,10,,,45,127
56954,note_off,218,0,0,,10,,,81,127
56955,note_on,1,0,0,,10,,,81,127
57009,note_off,54,0,0,,10,,,81,127
57010,note_on,1,0,0,,7,,,79,127
57064,note_off,54,0,0,,7,,,79,127
57065,note_on,1,0,0,,10,,,81,127
57119,note_off,54,0,0,,10,,,81,127
57120,note_on,1,0,0,,7,,,79,127
57174,note_off,54,0,0,,7,,,79,127
57175,note_on,1,0,0,,10,,,81,127
57229,note_off,54,0,0,,10,,,81,127
57230,note_on,1,0,0,,7,,,79,127
57284,note_off,54,0,0,,7,,,79,127
57285,note_on,1,0,0,,10,,,81,127
57339,note_off,54,0,0,,10,,,81,127
57340,note_on,1,0,0,,7,,,79,127
57394,note_off,54,0,0,,7,,,79,127
57394,note_off,0,0,0,,2,,,38,127
57395,note_on,1,0,0,,2,,,38,127
57395,note_on,0,0,0,,6,,,54,127
57504,note_off,109,0,0,,6,,,54,127
57505,note_on,1,0,0,,2,,,50,127
57614,note_off,109,0,0,,2,,,50,127
57615,note_on,1,0,0,,6,,,54,127
57724,note_off,109,0,0,,6,,,54,127
57725,note_on,1,0,0,,10,,,57,127
57834,note_off,109,0,0,,10,,,57,127
57835,note_on,1,0,0,,2,,,86,127
58053,note_off,218,0,0,,10,,,45,127
58054,note_on,1,0,0,,10,,,45,127
58272,note_off,218,0,0,,2,,,86,127
58273,note_on,1,0,0,,2,,,86,127
58327,note_off,54,0,0,,2,,,86,127
58328,note_on,1,0,0,,1,,,85,127
58382,note_off,54,0,0,,1,,,85,127
58383,note_on,1,0,0,,2,,,86,127
58437,note_off,54,0,0,,2,,,86,127
58438,note_on,1,0,0,,1,,,85,127
58492,note_off,54,0,0,,1,,,85,127
58493,note_on,1,0,0,,2,,,86,127
58547,note_off,54,0,0,,2,,,86,127
58548,note_on,1,0,0,,1,,,85,127
58602,note_off,54,0,0,,1,,,85,127
58603,note_on,1,0,0,,2,,,86,127
58657,note_off,54,0,0,,2,,,86,127
58658,note_on,1,0,0,,1,,,85,127
58712,note_off,54,0,0,,1,,,85,127
58712,note_off,0,0,0,,2,,,38,127
58713,note_on,1,0,0,,2,,,38,127
58713,note_on,0,0,0,,6,,,54,127
58822,note_off,109,0,0,,6,,,54,127
58823,note_on,1,0,0,,2,,,50,127
58932,note_off,109,0,0,,2,,,50,127
58933,note_on,1,0,0,,6,,,54,127
59042,note_off,109,0,0,,6,,,54,127
59043,note_on,1,0,0,,10,,,57,127
59152,note_off,109,0,0,,10,,,57,127
59153,note_on,1,0,0,,10,,,81,127
59371,note_off,218,0,0,,10,,,45,127
59372,note_on,1,0,0,,10,,,45,127
59590,note_off,218,0,0,,10,,,81,127
59591,note_on,1,0,0,,10,,,81,127
59645,note_off,54,0,0,,10,,,81,127
59646,note_on,1,0,0,,7,,,79,127
59700,note_off,54,0,0,,7,,,79,127
59701,note_on,1,0,0,,10,,,81,127
59755,note_off,54,0,0,,10,,,81,127
59756,note_on,1,0,0,,7,,,79,127
59810,note_off,54,0,0,,7,,,79,127
59811,note_on,1,0,0,,10,,,81,127
59865,note_off,54,0,0,,10,,,81,127
59866,note_on,1,0,0,,7,,,79,127
59920,note_off,54,0,0,,7,,,79,127
59921,note_on,1,0,0,,10,,,81,127
59975,note_off,54,0,0,,10,,,81,127
59976,note_on,1,0,0,,7,,,79,127
60030,note_off,54,0,0,,7,,,79,127
60030,note_off,0,0,0,,2,,,38,127
60031,note_on,1,0,0,,2,,,38,127
60031,note_on,0,0,0,,6,,,54,127
60140,note_off,109,0,0,,6,,,54,127
60141,note_on,1,0,0,,2,,,50,127
60250,note_off,109,0,0,,2,,,50,127
60251,note_on,1,0,0,,6,,,54,127
60360,note_off,109,0,0,,6,,,54,127
60361,note_on,1,0,0,,10,,,57,127
60470,note_off,109,0,0,,10,,,57,127
60471,note_on,1,0,0,,2,,,86,127
60689,note_off,218,0,0,,2,,,38,127
60689,note_off,0,0,0,,10,,,45,127
60690,note_on,1,0,0,,10,,,45,127
60908,note_off,218,0,0,,2,,,86,127
60909,note_on,1,0,0,,2,,,86,127
60963,note_off,54,0,0,,2,,,86,127
60964,note_on,1,0,0,,1,,,85,127
61018,note_off,54,0,0,,1,,,85,127
61019,note_on,1,0,0,,2,,,86,127
61073,note_off,54,0,0,,2,,,86,127
61074,note_on,1,0,0,,1,,,85,127
61128,note_off,54,0,0,,1,,,85,127
61129,note_on,1,0,0,,2,,,86,127
61183,note_off,54,0,0,,2,,,86,127
61184,note_on,1,0,0,,1,,,85,127
61238,note_off,54,0,0,,1,,,85,127
61239,note_on,1,0,0,,12,,,83,127
61293,note_off,54,0,0,,12,,,83,127
61294,note_on,1,0,0,,1,,,85,127
61308,note_off,14,0,0,,10,,,45,127
61348,note_off,40,0,0,,1,,,85,127
61349,note_on,1,0,0,,2,,,50,127
61349,note_on,0,0,0,,2,,,86,127
61458,note_off,109,0,0,,2,,,86,127
61459,note_on,1,0,0,,1,,,85,127
61568,note_off,109,0,0,,1,,,85,127
61568,note_off,0,0,0,,2,,,50,127
61569,note_on,1,0,0,,4,,,52,127
61569,note_on,0,0,0,,12,,,83,127
61678,note_off,109,0,0,,12,,,83,127
61679,note_on,1,0,0,,10,,,81,127
61788,note_off,109,0,0,,10,,,81,127
61788,note_off,0,0,0,,4,,,52,127
61789,note_on,1,0,0,,6,,,54,127
61789,note_on,0,0,0,,7,,,79,127
61898,note_off,109,0,0,,7,,,79,127
61899,note_on,1,0,0,,6,,,78,127
62008,note_off,109,0,0,,6,,,78,127
62008,note_off,0,0,0,,6,,,54,127
62009,note_on,1,0,0,,7,,,55,127
62009,note_on,0,0,0,,4,,,76,127
62118,note_off,109,0,0,,4,,,76,127
62119,note_on,1,0,0,,6,,,78,127
62173,note_off,54,0,0,,6,,,78,127
62174,note_on,1,0,0,,7,,,79,127
62228,note_off,54,0,0,,7,,,79,127
62228,note_off,0,0,0,,7,,,55,127
62229,note_on,1,0,0,,10,,,57,127
62229,note_on,0,0,0,,6,,,78,127
62338,note_off,109,0,0,,6,,,78,127
62339,note_on,1,0,0,,4,,,76,127
62448,note_off,109,0,0,,4,,,76,127
62449,note_on,1,0,0,,10,,,45,127
62449,note_on,0,0,0,,2,,,74,127
62558,note_off,109,0,0,,2,,,74,127
62559,note_on,1,0,0,,1,,,73,127
62664,note_off,105,0,0,,10,,,57,127
62667,note_off,3,0,0,,1,,,73,127
62667,note_off,0,0,0,,10,,,45,127
62668,note_on,1,0,0,,2,,,50,127
62668,note_on,0,0,0,,2,,,74,127
62796,note_on,128,0,0,,10,,,69,127
62818,note_off,22,0,0,,2,,,74,127
62887,note_off,69,0,0,,2,,,50,127
62905,note_off,18,0,0,,10,,,69,127
62906,note_on,1,0,0,,1,,,73,127
62906,note_on,0,0,0,,4,,,76,127
62906,note_on,0,0,0,,1,,,85,127
63015,note_off,109,0,0,,1,,,73,127
63016,note_on,1,0,0,,10,,,69,127
63125,note_off,109,0,0,,10,,,69,127
63125,note_off,0,0,0,,1,,,85,127
63125,note_off,0,0,0,,4,,,76,127
63126,note_on,1,0,0,,2,,,74,127
63126,note_on,0,0,0,,6,,,78,127
63126,note_on,0,0,0,,2,,,86,127
63235,note_off,109,0,0,,2,,,74,127
63236,note_on,1,0,0,,10,,,69,127
63345,note_off,109,0,0,,10,,,69,127
63345,note_off,0,0,0,,2,,,86,127
63345,note_off,0,0,0,,6,,,78,127
63346,note_on,1,0,0,,7,,,79,127
63346,note_on,0,0,0,,4,,,76,127
63346,note_on,0,0,0,,7,,,43,127
63455,note_off,109,0,0,,4,,,76,127
63456,note_on,1,0,0,,10,,,69,127
63565,note_off,109,0,0,,10,,,69,127
63565,note_off,0,0,0,,7,,,43,127
63565,note_off,0,0,0,,7,,,79,127
63566,note_on,1,0,0,,2,,,74,127
63566,note_on,0,0,0,,6,,,78,127
63566,note_on,0,0,0,,10,,,45,127
63675,note_off,109,0,0,,2,,,74,127
63676,note_on,1,0,0,,10,,,69,127
63785,note_off,109,0,0,,10,,,69,127
63785,note_off,0,0,0,,6,,,78,127
63786,note_on,1,0,0,,4,,,76,127
63786,note_on,0,0,0,,1,,,73,127
63895,note_off,109,0,0,,1,,,73,127
63896,note_on,1,0,0,,10,,,69,127
64005,note_off,109,0,0,,10,,,69,127
64005,note_off,0,0,0,,4,,,76,127
64005,note_off,0,0,0,,10,,,45,127
64006,note_on,1,0,0,,2,,,74,127
64006,note_on,0,0,0,,6,,,78,127
64006,note_on,0,0,0,,2,,,38,127
64115,note_off,109,0,0,,2,,,74,127
64128,note_on,13,0,0,,10,,,69,127
64225,note_off,97,0,0,,2,,,38,127
64225,note_off,0,0,0,,6,,,78,127
64236,note_off,11,0,0,,10,,,69,127
64237,note_on,1,0,0,,1,,,73,127
64237,note_on,0,0,0,,4,,,76,127
64237,note_on,0,0,0,,1,,,85,127
64346,note_off,109,0,0,,1,,,73,127
64347,note_on,1,0,0,,10,,,69,127
64456,note_off,109,0,0,,10,,,69,127
64456,note_off,0,0,0,,1,,,85,127
64456,note_off,0,0,0,,4,,,76,127
64457,note_on,1,0,0,,6,,,78,127
64457,note_on,0,0,0,,2,,,74,127
64457,note_on,0,0,0,,2,,,86,127
64566,note_off,109,0,0,,2,,,74,127
64567,note_on,1,0,0,,10,,,69,127
64676,note_off,109,0,0,,10,,,69,127
64676,note_off,0,0,0,,2,,,86,127
64676,note_off,0,0,0,,6,,,78,127
64677,note_on,1,0,0,,4,,,76,127
64677,note_on,0,0,0,,7,,,79,127
64677,note_on,0,0,0,,7,,,43,127
64786,note_off,109,0,0,,4,,,76,127
64787,note_on,1,0,0,,10,,,69,127
64896,note_off,109,0,0,,10,,,69,127
64896,note_off,0,0,0,,7,,,43,127
64896,note_off,0,0,0,,7,,,79,127
64897,note_on,1,0,0,,6,,,78,127
64897,note_on,0,0,0,,2,,,74,127
64897,note_on,0,0,0,,10,,,45,127
65006,note_off,109,0,0,,2,,,74,127
65007,note_on,1,0,0,,10,,,69,127
65116,note_off,109,0,0,,10,,,69,127
65116,note_off,0,0,0,,6,,,78,127
65117,note_on,1,0,0,,1,,,73,127
65117,note_on,0,0,0,,4,,,76,127
65226,note_off,109,0,0,,1,,,73,127
65227,note_on,1,0,0,,10,,,69,127
65336,note_off,109,0,0,,10,,,69,127
65336,note_off,0,0,0,,4,,,76,127
65336,note_off,0,0,0,,10,,,45,127
65337,note_on,1,0,0,,6,,,78,127
65337,note_on,0,0,0,,2,,,74,127
65337,note_on,0,0,0,,2,,,38,127
65446,note_off,109,0,0,,2,,,74,127
65447,note_on,1,0,0,,10,,,69,127
65556,note_off,109,0,0,,2,,,38,127
65567,note_off,11,0,0,,10,,,69,127
65567,note_off,0,0,0,,6,,,78,127
65570,note_on,3,0,0,,4,,,76,127
65570,note_on,0,0,0,,1,,,73,127
65570,note_on,0,0,0,,1,,,85,127
65679,note_off,109,0,0,,1,,,73,127
65680,note_on,1,0,0,,10,,,69,127
65789,note_off,109,0,0,,10,,,69,127
65789,note_off,0,0,0,,1,,,85,127
65789,note_off,0,0,0,,4,,,76,127
65790,note_on,1,0,0,,6,,,78,127
65790,note_on,0,0,0,,2,,,74,127
65790,note_on,0,0,0,,2,,,86,127
65899,note_off,109,0,0,,2,,,74,127
65900,note_on,1,0,0,,10,,,69,127
66009,note_off,109,0,0,,10,,,69,127
66009,note_off,0,0,0,,2,,,86,127
66009,note_off,0,0,0,,6,,,78,127
66010,note_on,1,0,0,,7,,,79,127
66010,note_on,0,0,0,,4,,,76,127
66010,note_on,0,0,0,,7,,,43,127
66119,note_off,109,0,0,,4,,,76,127
66120,note_on,1,0,0,,10,,,69,127
66229,note_off,109,0,0,,10,,,69,127
66229,note_off,0,0,0,,7,,,43,127
66229,note_off,0,0,0,,7,,,79,127
66230,note_on,1,0,0,,6,,,78,127
66230,note_on,0,0,0,,2,,,74,127
66230,note_on,0,0,0,,10,,,45,127
66339,note_off,109,0,0,,2,,,74,127
66340,note_on,1,0,0,,10,,,69,127
66449,note_off,109,0,0,,10,,,69,127
66449,note_off,0,0,0,,6,,,78,127
66450,note_on,1,0,0,,4,,,76,127
66450,note_on,0,0,0,,1,,,73,127
66559,note_off,109,0,0,,1,,,73,127
66560,note_on,1,0,0,,10,,,69,127
66669,note_off,109,0,0,,10,,,69,127
66669,note_off,0,0,0,,4,,,76,127
66669,note_off,0,0,0,,10,,,45,127
66676,note_on,7,0,0,,2,,,74,127
66676,note_on,0,0,0,,2,,,50,127
66795,note_off,119,0,0,,2,,,74,127
66798,note_on,3,0,0,,1,,,73,127
66904,note_off,106,0,0,,2,,,50,127
66906,note_off,2,0,0,,1,,,73,127
66907,note_on,1,0,0,,4,,,52,127
66907,note_on,0,0,0,,12,,,71,127
67016,note_off,109,0,0,,12,,,71,127
67017,note_on,1,0,0,,10,,,69,127
67126,note_off,109,0,0,,10,,,69,127
67126,note_off,0,0,0,,4,,,52,127
67127,note_on,1,0,0,,6,,,54,127
67127,note_on,0,0,0,,7,,,67,127
67236,note_off,109,0,0,,7,,,67,127
67237,note_on,1,0,0,,6,,,66,127
67346,note_off,109,0,0,,6,,,66,127
67346,note_off,0,0,0,,6,,,54,127
67347,note_on,1,0,0,,7,,,55,127
67347,note_on,0,0,0,,4,,,64,127
67456,note_off,109,0,0,,4,,,64,127
67457,note_on,1,0,0,,6,,,66,127
67511,note_off,54,0,0,,6,,,66,127
67512,note_on,1,0,0,,7,,,67,127
67566,note_off,54,0,0,,7,,,67,127
67566,note_off,0,0,0,,7,,,55,127
67567,note_on,1,0,0,,10,,,57,127
67567,note_on,0,0,0,,6,,,66,127
67676,note_off,109,0,0,,6,,,66,127
67677,note_on,1,0,0,,4,,,64,127
67786,note_off,109,0,0,,4,,,64,127
67787,note_on,1,0,0,,10,,,45,127
67787,note_on,0,0,0,,2,,,62,127
67896,note_off,109,0,0,,2,,,62,127
67897,note_off,1,0,0,,10,,,57,127
67904,note_on,7,0,0,,1,,,61,127
68019,note_off,115,0,0,,10,,,45,127
68022,note_off,3,0,0,,1,,,61,127
68027,note_on,5,0,0,,2,,,62,127
68027,note_on,0,0,0,,2,,,38,127
69090,note_off,1063,0,0,,2,,,38,127
69090,note_off,0,0,0,,2,,,62,127
69177,note_on,87,0,0,,2,,,62,127
69286,note_off,109,0,0,,2,,,62,127
69287,note_on,1,0,0,,2,,,62,127
69397,note_on,110,0,0,,6,,,66,127
69506,note_off,109,0,0,,6,,,66,127
69506,note_off,0,0,0,,2,,,62,127
69507,note_on,1,0,0,,6,,,66,127
69617,note_on,110,0,0,,10,,,69,127
69726,note_off,109,0,0,,10,,,69,127
69726,note_off,0,0,0,,6,,,66,127
69727,note_on,1,0,0,,10,,,69,127
69837,note_on,110,0,0,,0,,,72,127
69946,note_off,109,0,0,,0,,,72,127
69946,note_off,0,0,0,,10,,,69,127
69947,note_on,1,0,0,,0,,,72,127
70057,note_on,110,0,0,,10,,,81,127
70166,note_off,109,0,0,,0,,,72,127
70167,note_on,1,0,0,,10,,,69,127
70276,note_off,109,0,0,,10,,,81,127
70277,note_on,1,0,0,,6,,,78,127
70386,note_off,109,0,0,,10,,,69,127
70387,note_on,1,0,0,,2,,,62,127
70496,note_off,109,0,0,,6,,,78,127
70507,note_off,11,0,0,,2,,,62,127
70508,note_on,1,0,0,,0,,,60,127
70617,note_off,109,0,0,,0,,,60,127
70618,note_on,1,0,0,,0,,,60,127
70728,note_on,110,0,0,,6,,,66,127
70837,note_off,109,0,0,,6,,,66,127
70837,note_off,0,0,0,,0,,,60,127
70838,note_on,1,0,0,,6,,,66,127
70948,note_on,110,0,0,,10,,,69,127
71057,note_off,109,0,0,,10,,,69,127
71057,note_off,0,0,0,,6,,,66,127
71058,note_on,1,0,0,,10,,,69,127
71168,note_on,110,0,0,,0,,,72,127
71277,note_off,109,0,0,,0,,,72,127
71277,note_off,0,0,0,,10,,,69,127
71278,note_on,1,0,0,,0,,,72,127
71388,note_on,110,0,0,,10,,,81,127
71497,note_off,109,0,0,,0,,,72,127
71498,note_on,1,0,0,,10,,,69,127
71607,note_off,109,0,0,,10,,,81,127
71608,note_on,1,0,0,,6,,,78,127
71717,note_off,109,0,0,,10,,,69,127
71718,note_on,1,0,0,,0,,,60,127
71827,note_off,109,0,0,,6,,,78,127
71838,note_off,11,0,0,,0,,,60,127
71841,note_on,3,0,0,,12,,,59,127
71950,note_off,109,0,0,,12,,,59,127
71951,note_on,1,0,0,,12,,,59,127
72061,note_on,110,0,0,,7,,,67,127
72170,note_off,109,0,0,,12,,,59,127
72171,note_on,1,0,0,,2,,,62,127
72280,note_off,109,0,0,,7,,,67,127
72281,note_on,1,0,0,,12,,,71,127
72390,note_off,109,0,0,,2,,,62,127
72391,note_on,1,0,0,,7,,,67,127
72500,note_off,109,0,0,,12,,,71,127
72501,note_on,1,0,0,,2,,,74,127
72610,note_off,109,0,0,,7,,,67,127
72611,note_on,1,0,0,,12,,,71,127
72720,note_off,109,0,0,,2,,,74,127
72721,note_on,1,0,0,,12,,,83,127
72830,note_off,109,0,0,,12,,,71,127
72831,note_on,1,0,0,,2,,,74,127
72940,note_off,109,0,0,,12,,,83,127
72941,note_on,1,0,0,,7,,,79,127
73050,note_off,109,0,0,,2,,,74,127
73051,note_on,1,0,0,,12,,,71,127
73160,note_off,109,0,0,,7,,,79,127
73171,note_off,11,0,0,,12,,,71,127
73174,note_on,3,0,0,,10,,,57,127
73283,note_off,109,0,0,,10,,,57,127
73284,note_on,1,0,0,,10,,,57,127
73394,note_on,110,0,0,,6,,,66,127
73503,note_off,109,0,0,,10,,,57,127
73504,note_on,1,0,0,,0,,,60,127
73613,note_off,109,0,0,,6,,,66,127
73614,note_on,1,0,0,,10,,,69,127
73723,note_off,109,0,0,,0,,,60,127
73724,note_on,1,0,0,,6,,,66,127
73833,note_off,109,0,0,,10,,,69,127
73834,note_on,1,0,0,,6,,,78,127
73943,note_off,109,0,0,,6,,,66,127
73944,note_on,1,0,0,,10,,,69,127
74053,note_off,109,0,0,,6,,,78,127
74054,note_on,1,0,0,,10,,,81,127
74163,note_off,109,0,0,,10,,,69,127
74164,note_on,1,0,0,,6,,,66,127
74273,note_off,109,0,0,,10,,,81,127
74274,note_on,1,0,0,,0,,,72,127
74383,note_off,109,0,0,,6,,,66,127
74384,note_on,1,0,0,,2,,,62,127
74493,note_off,109,0,0,,2,,,62,127
74493,note_off,0,0,0,,0,,,72,127
74494,note_on,1,0,0,,7,,,55,127
74494,note_on,0,0,0,,0,,,72,127
74548,note_off,54,0,0,,0,,,72,127
74549,note_on,1,0,0,,12,,,71,127
74603,note_off,54,0,0,,12,,,71,127
74604,note_on,1,0,0,,0,,,72,127
74658,note_off,54,0,0,,0,,,72,127
74659,note_on,1,0,0,,12,,,71,127
74713,note_off,54,0,0,,12,,,71,127
74714,note_on,1,0,0,,0,,,72,127
74768,note_off,54,0,0,,0,,,72,127
74769,note_on,1,0,0,,12,,,71,127
74823,note_off,54,0,0,,12,,,71,127
74824,note_on,1,0,0,,10,,,69,127
74933,note_off,109,0,0,,10,,,69,127
74934,note_on,1,0,0,,7,,,67,127
75152,note_off,218,0,0,,7,,,67,127
75152,note_off,0,0,0,,7,,,55,127
75208,note_on,56,0,0,,2,,,74,127
75318,note_on,110,0,0,,4,,,64,127
75427,note_off,109,0,0,,4,,,64,127
75428,note_on,1,0,0,,8,,,68,127
75428,note_on,0,0,0,,4,,,52,127
75537,note_off,109,0,0,,8,,,68,127
75538,note_on,1,0,0,,4,,,64,127
75647,note_off,109,0,0,,4,,,64,127
75647,note_off,0,0,0,,4,,,52,127
75647,note_off,0,0,0,,2,,,74,127
75648,note_on,1,0,0,,2,,,74,127
75648,note_on,0,0,0,,10,,,69,127
75648,note_on,0,0,0,,5,,,53,127
75757,note_off,109,0,0,,10,,,69,127
75758,note_on,1,0,0,,5,,,65,127
75867,note_off,109,0,0,,5,,,65,127
75867,note_off,0,0,0,,5,,,53,127
75867,note_off,0,0,0,,2,,,74,127
75868,note_on,1,0,0,,8,,,68,127
75868,note_on,0,0,0,,2,,,74,127
75868,note_on,0,0,0,,4,,,52,127
75977,note_off,109,0,0,,8,,,68,127
75978,note_on,1,0,0,,4,,,64,127
76087,note_off,109,0,0,,4,,,64,127
76087,note_off,0,0,0,,2,,,74,127
76088,note_on,1,0,0,,10,,,69,127
76088,note_on,0,0,0,,2,,,74,127
76197,note_off,109,0,0,,10,,,69,127
76198,note_on,1,0,0,,5,,,65,127
76307,note_off,109,0,0,,5,,,65,127
76307,note_off,0,0,0,,2,,,74,127
76308,note_on,1,0,0,,8,,,68,127
76308,note_on,0,0,0,,2,,,74,127
76417,note_off,109,0,0,,8,,,68,127
76418,note_on,1,0,0,,4,,,64,127
76527,note_off,109,0,0,,4,,,64,127
76527,note_off,0,0,0,,2,,,74,127
76527,note_off,0,0,0,,4,,,52,127
76528,note_on,1,0,0,,2,,,74,127
76528,note_on,0,0,0,,10,,,69,127
76528,note_on,0,0,0,,5,,,53,127
76637,note_off,109,0,0,,10,,,69,127
76638,note_on,1,0,0,,5,,,65,127
76747,note_off,109,0,0,,5,,,65,127
76747,note_off,0,0,0,,5,,,53,127
76747,note_off,0,0,0,,2,,,74,127
76748,note_on,1,0,0,,8,,,68,127
76748,note_on,0,0,0,,2,,,74,127
76748,note_on,0,0,0,,8,,,80,127
76857,note_off,109,0,0,,8,,,68,127
76858,note_on,1,0,0,,4,,,64,127
76967,note_off,109,0,0,,4,,,64,127
76967,note_off,0,0,0,,8,,,80,127
76967,note_off,0,0,0,,2,,,74,127
76968,note_on,1,0,0,,2,,,74,127
76968,note_on,0,0,0,,10,,,69,127
76968,note_on,0,0,0,,10,,,81,127
77077,note_off,109,0,0,,10,,,69,127
77078,note_on,1,0,0,,5,,,65,127
77187,note_off,109,0,0,,5,,,65,127
77187,note_off,0,0,0,,10,,,81,127
77187,note_off,0,0,0,,2,,,74,127
77193,note_on,6,0,0,,4,,,52,127
77193,note_on,0,0,0,,2,,,74,127
77193,note_on,0,0,0,,8,,,68,127
77302,note_off,109,0,0,,8,,,68,127
77303,note_on,1,0,0,,4,,,64,127
77412,note_off,109,0,0,,4,,,64,127
77412,note_off,0,0,0,,2,,,74,127
77413,note_on,1,0,0,,10,,,69,127
77413,note_on,0,0,0,,2,,,74,127
77522,note_off,109,0,0,,10,,,69,127
77523,note_on,1,0,0,,5,,,65,127
77632,note_off,109,0,0,,5,,,65,127
77632,note_off,0,0,0,,2,,,74,127
77633,note_on,1,0,0,,2,,,74,127
77633,note_on,0,0,0,,8,,,68,127
77742,note_off,109,0,0,,8,,,68,127
77743,note_on,1,0,0,,4,,,64,127
77852,note_off,109,0,0,,4,,,64,127
77852,note_off,0,0,0,,2,,,74,127
77852,note_off,0,0,0,,4,,,52,127
77853,note_on,1,0,0,,5,,,53,127
77853,note_on,0,0,0,,10,,,69,127
77853,note_on,0,0,0,,2,,,74,127
77962,note_off,109,0,0,,10,,,69,127
77963,note_on,1,0,0,,5,,,65,127
78072,note_off,109,0,0,,5,,,65,127
78072,note_off,0,0,0,,2,,,74,127
78072,note_off,0,0,0,,5,,,53,127
78073,note_on,1,0,0,,8,,,80,127
78073,note_on,0,0,0,,2,,,74,127
78073,note_on,0,0,0,,8,,,68,127
78182,note_off,109,0,0,,8,,,68,127
78183,note_on,1,0,0,,4,,,64,127
78292,note_off,109,0,0,,4,,,64,127
78292,note_off,0,0,0,,2,,,74,127
78292,note_off,0,0,0,,8,,,80,127
78293,note_on,1,0,0,,10,,,81,127
78293,note_on,0,0,0,,10,,,69,127
78293,note_on,0,0,0,,2,,,74,127
78402,note_off,109,0,0,,10,,,69,127
78403,note_on,1,0,0,,5,,,65,127
78512,note_off,109,0,0,,5,,,65,127
78512,note_off,0,0,0,,2,,,74,127
78512,note_off,0,0,0,,10,,,81,127
78518,note_on,6,0,0,,8,,,68,127
78518,note_on,0,0,0,,2,,,74,127
78518,note_on,0,0,0,,4,,,52,127
78627,note_off,109,0,0,,8,,,68,127
78628,note_on,1,0,0,,4,,,64,127
78737,note_off,109,0,0,,4,,,64,127
78737,note_off,0,0,0,,2,,,74,127
78738,note_on,1,0,0,,10,,,69,127
78738,note_on,0,0,0,,2,,,74,127
78847,note_off,109,0,0,,10,,,69,127
78848,note_on,1,0,0,,5,,,65,127
78957,note_off,109,0,0,,5,,,65,127
78957,note_off,0,0,0,,2,,,74,127
78958,note_on,1,0,0,,8,,,68,127
78958,note_on,0,0,0,,2,,,74,127
79067,note_off,109,0,0,,8,,,68,127
79068,note_on,1,0,0,,4,,,64,127
79177,note_off,109,0,0,,4,,,64,127
79177,note_off,0,0,0,,2,,,74,127
79177,note_off,0,0,0,,4,,,52,127
79187,note_on,10,0,0,,5,,,77,127
79187,note_on,0,0,0,,2,,,50,127
79296,note_off,109,0,0,,5,,,77,127
79297,note_on,1,0,0,,5,,,65,127
79406,note_off,109,0,0,,5,,,65,127
79406,note_off,0,0,0,,2,,,50,127
79407,note_on,1,0,0,,8,,,68,127
79407,note_on,0,0,0,,8,,,80,127
79516,note_off,109,0,0,,8,,,68,127
79517,note_on,1,0,0,,5,,,65,127
79626,note_off,109,0,0,,5,,,65,127
79626,note_off,0,0,0,,8,,,80,127
79627,note_on,1,0,0,,5,,,77,127
79627,note_on,0,0,0,,10,,,81,127
79736,note_off,109,0,0,,5,,,77,127
79737,note_on,1,0,0,,8,,,68,127
79846,note_off,109,0,0,,8,,,68,127
79846,note_off,0,0,0,,10,,,81,127
79847,note_on,1,0,0,,4,,,76,127
79847,note_on,0,0,0,,0,,,48,127
79956,note_off,109,0,0,,4,,,76,127
79957,note_on,1,0,0,,4,,,64,127
80066,note_off,109,0,0,,4,,,64,127
80066,note_off,0,0,0,,0,,,48,127
80067,note_on,1,0,0,,10,,,69,127
80067,note_on,0,0,0,,8,,,80,127
80176,note_off,109,0,0,,10,,,69,127
80177,note_on,1,0,0,,4,,,64,127
80286,note_off,109,0,0,,4,,,64,127
80286,note_off,0,0,0,,8,,,80,127
80287,note_on,1,0,0,,4,,,76,127
80287,note_on,0,0,0,,10,,,81,127
80396,note_off,109,0,0,,4,,,76,127
80397,note_on,1,0,0,,4,,,64,127
80506,note_off,109,0,0,,4,,,64,127
80506,note_off,0,0,0,,10,,,81,127
80507,note_on,1,0,0,,2,,,74,127
80507,note_on,0,0,0,,12,,,47,127
80616,note_off,109,0,0,,2,,,74,127
80617,note_on,1,0,0,,2,,,62,127
80726,note_off,109,0,0,,2,,,62,127
80726,note_off,0,0,0,,12,,,47,127
80727,note_on,1,0,0,,8,,,68,127
80727,note_on,0,0,0,,8,,,80,127
80836,note_off,109,0,0,,8,,,68,127
80837,note_on,1,0,0,,2,,,62,127
80946,note_off,109,0,0,,2,,,62,127
80946,note_off,0,0,0,,8,,,80,127
80947,note_on,1,0,0,,2,,,74,127
80947,note_on,0,0,0,,10,,,81,127
81056,note_off,109,0,0,,2,,,74,127
81057,note_on,1,0,0,,2,,,62,127
81166,note_off,109,0,0,,2,,,62,127
81166,note_off,0,0,0,,10,,,81,127
81167,note_on,1,0,0,,2,,,74,127
81167,note_on,0,0,0,,10,,,45,127
81221,note_off,54,0,0,,2,,,74,127
81222,note_on,1,0,0,,0,,,72,127
81276,note_off,54,0,0,,0,,,72,127
81277,note_on,1,0,0,,2,,,74,127
81331,note_off,54,0,0,,2,,,74,127
81332,note_on,1,0,0,,0,,,72,127
81386,note_off,54,0,0,,0,,,72,127
81387,note_on,1,0,0,,2,,,74,127
81441,note_off,54,0,0,,2,,,74,127
81442,note_on,1,0,0,,0,,,72,127
81496,note_off,54,0,0,,0,,,72,127
81497,note_on,1,0,0,,12,,,71,127
81606,note_off,109,0,0,,12,,,71,127
81607,note_on,1,0,0,,10,,,69,127
81825,note_off,218,0,0,,10,,,45,127
81854,note_on,29,0,0,,4,,,64,127
81854,note_on,0,0,0,,0,,,60,127
81935,note_off,81,0,0,,10,,,69,127
81964,note_on,29,0,0,,4,,,76,127
82073,note_off,109,0,0,,4,,,76,127
82073,note_off,0,0,0,,0,,,60,127
82073,note_off,0,0,0,,4,,,64,127
82074,note_on,1,0,0,,0,,,60,127
82074,note_on,0,0,0,,4,,,64,127
82074,note_on,0,0,0,,4,,,76,127
82183,note_off,109,0,0,,4,,,76,127
82184,note_on,1,0,0,,2,,,74,127
82293,note_off,109,0,0,,2,,,74,127
82293,note_off,0,0,0,,4,,,64,127
82293,note_off,0,0,0,,0,,,60,127
82294,note_on,1,0,0,,12,,,59,127
82294,note_on,0,0,0,,2,,,62,127
82294,note_on,0,0,0,,2,,,74,127
82403,note_off,109,0,0,,2,,,74,127
82404,note_on,1,0,0,,0,,,72,127
82513,note_off,109,0,0,,0,,,72,127
82513,note_off,0,0,0,,2,,,62,127
82513,note_off,0,0,0,,12,,,59,127
82514,note_on,1,0,0,,10,,,57,127
82514,note_on,0,0,0,,0,,,60,127
82514,note_on,0,0,0,,0,,,72,127
82623,note_off,109,0,0,,0,,,72,127
82624,note_on,1,0,0,,12,,,71,127
82733,note_off,109,0,0,,12,,,71,127
82733,note_off,0,0,0,,0,,,60,127
82733,note_off,0,0,0,,10,,,57,127
82734,note_on,1,0,0,,7,,,55,127
82734,note_on,0,0,0,,12,,,59,127
82734,note_on,0,0,0,,12,,,71,127
82843,note_off,109,0,0,,12,,,71,127
82844,note_on,1,0,0,,10,,,69,127
82953,note_off,109,0,0,,10,,,69,127
82953,note_off,0,0,0,,12,,,59,127
82953,note_off,0,0,0,,7,,,55,127
82954,note_on,1,0,0,,6,,,54,127
82954,note_on,0,0,0,,10,,,57,127
82954,note_on,0,0,0,,10,,,69,127
83063,note_off,109,0,0,,10,,,69,127
83064,note_on,1,0,0,,7,,,67,127
83173,note_off,109,0,0,,7,,,67,127
83173,note_off,0,0,0,,10,,,57,127
83173,note_off,0,0,0,,6,,,54,127
83174,note_on,1,0,0,,4,,,52,127
83174,note_on,0,0,0,,7,,,55,127
83174,note_on,0,0,0,,7,,,67,127
83295,note_on,121,0,0,,7,,,79,127
83300,note_off,5,0,0,,7,,,67,127
83393,note_off,93,0,0,,7,,,55,127
83393,note_off,0,0,0,,4,,,52,127
83404,note_off,11,0,0,,7,,,79,127
83405,note_on,1,0,0,,4,,,64,127
83405,note_on,0,0,0,,7,,,67,127
83405,note_on,0,0,0,,7,,,79,127
83514,note_off,109,0,0,,7,,,79,127
83515,note_on,1,0,0,,5,,,77,127
83624,note_off,109,0,0,,5,,,77,127
83624,note_off,0,0,0,,7,,,67,127
83624,note_off,0,0,0,,4,,,64,127
83625,note_on,1,0,0,,5,,,65,127
83625,note_on,0,0,0,,2,,,62,127
83625,note_on,0,0,0,,5,,,77,127
83734,note_off,109,0,0,,5,,,77,127
83735,note_on,1,0,0,,4,,,76,127
83844,note_off,109,0,0,,4,,,76,127
83844,note_off,0,0,0,,2,,,62,127
83844,note_off,0,0,0,,5,,,65,127
83845,note_on,1,0,0,,4,,,64,127
83845,note_on,0,0,0,,0,,,60,127
83845,note_on,0,0,0,,4,,,76,127
83954,note_off,109,0,0,,4,,,76,127
83955,note_on,1,0,0,,2,,,74,127
84064,note_off,109,0,0,,2,,,74,127
84064,note_off,0,0,0,,0,,,60,127
84064,note_off,0,0,0,,4,,,64,127
84065,note_on,1,0,0,,12,,,59,127
84065,note_on,0,0,0,,2,,,62,127
84065,note_on,0,0,0,,2,,,74,127
84174,note_off,109,0,0,,2,,,74,127
84175,note_on,1,0,0,,0,,,72,127
84284,note_off,109,0,0,,0,,,72,127
84284,note_off,0,0,0,,2,,,62,127
84284,note_off,0,0,0,,12,,,59,127
84285,note_on,1,0,0,,0,,,60,127
84285,note_on,0,0,0,,10,,,57,127
84285,note_on,0,0,0,,0,,,72,127
84394,note_off,109,0,0,,0,,,72,127
84395,note_on,1,0,0,,12,,,71,127
84504,note_off,109,0,0,,12,,,71,127
84504,note_off,0,0,0,,10,,,57,127
84504,note_off,0,0,0,,0,,,60,127
84505,note_on,1,0,0,,7,,,55,127
84505,note_on,0,0,0,,12,,,59,127
84505,note_on,0,0,0,,12,,,71,127
84626,note_on,121,0,0,,12,,,83,127
84631,note_off,5,0,0,,12,,,71,127
84724,note_off,93,0,0,,12,,,59,127
84735,note_off,11,0,0,,12,,,83,127
84736,note_on,1,0,0,,7,,,67,127
84736,note_on,0,0,0,,12,,,83,127
84845,note_off,109,0,0,,12,,,83,127
84846,note_on,1,0,0,,10,,,81,127
84943,note_off,97,0,0,,7,,,55,127
84954,note_off,11,0,0,,10,,,81,127
84954,note_off,0,0,0,,7,,,67,127
84955,note_on,1,0,0,,6,,,54,127
84955,note_on,0,0,0,,6,,,66,127
84955,note_on,0,0,0,,10,,,81,127
85064,note_off,109,0,0,,10,,,81,127
85065,note_on,1,0,0,,7,,,79,127
85174,note_off,109,0,0,,7,,,79,127
85174,note_off,0,0,0,,6,,,66,127
85174,note_off,0,0,0,,6,,,54,127
85175,note_on,1,0,0,,4,,,64,127
85175,note_on,0,0,0,,7,,,79,127
85284,note_off,109,0,0,,7,,,79,127
85285,note_on,1,0,0,,6,,,78,127
85394,note_off,109,0,0,,6,,,78,127
85394,note_off,0,0,0,,4,,,64,127
85395,note_on,1,0,0,,2,,,62,127
85395,note_on,0,0,0,,6,,,78,127
85504,note_off,109,0,0,,6,,,78,127
85505,note_on,1,0,0,,4,,,76,127
85614,note_off,109,0,0,,4,,,76,127
85614,note_off,0,0,0,,2,,,62,127
85615,note_on,1,0,0,,0,,,60,127
85615,note_on,0,0,0,,4,,,76,127
85724,note_off,109,0,0,,4,,,76,127
85725,note_on,1,0,0,,3,,,75,127
85834,note_off,109,0,0,,3,,,75,127
85834,note_off,0,0,0,,0,,,60,127
85835,note_on,1,0,0,,12,,,59,127
85835,note_on,0,0,0,,3,,,75,127
85944,note_off,109,0,0,,3,,,75,127
85945,note_on,1,0,0,,0,,,72,127
86054,note_off,109,0,0,,0,,,72,127
86055,note_on,1,0,0,,0,,,72,127
86164,note_off,109,0,0,,0,,,72,127
86165,note_on,1,0,0,,12,,,71,127
86274,note_off,109,0,0,,12,,,71,127
86274,note_off,0,0,0,,12,,,59,127
86275,note_on,1,0,0,,1,,,61,127
86275,note_on,0,0,0,,12,,,71,127
86384,note_off,109,0,0,,12,,,71,127
86385,note_on,1,0,0,,10,,,69,127
86494,note_off,109,0,0,,10,,,69,127
86494,note_off,0,0,0,,1,,,61,127
86495,note_on,1,0,0,,3,,,63,127
86495,note_on,0,0,0,,10,,,69,127
86604,note_off,109,0,0,,10,,,69,127
86605,note_on,1,0,0,,7,,,67,127
86714,note_off,109,0,0,,7,,,67,127
86714,note_off,0,0,0,,3,,,63,127
86715,note_on,1,0,0,,4,,,64,127
86715,note_on,0,0,0,,7,,,67,127
86824,note_off,109,0,0,,7,,,67,127
86825,note_on,1,0,0,,6,,,66,127
86934,note_off,109,0,0,,6,,,66,127
86934,note_off,0,0,0,,4,,,64,127
86935,note_on,1,0,0,,12,,,59,127
86935,note_on,0,0,0,,6,,,66,127
87044,note_off,109,0,0,,6,,,66,127
87045,note_on,1,0,0,,7,,,67,127
87154,note_off,109,0,0,,7,,,67,127
87173,note_on,19,0,0,,7,,,67,127
87263,note_off,90,0,0,,12,,,59,127
87282,note_on,19,0,0,,4,,,64,127
87391,note_off,109,0,0,,7,,,67,127
87392,note_on,1,0,0,,12,,,71,127
87501,note_off,109,0,0,,4,,,64,127
87502,note_on,1,0,0,,7,,,67,127
87611,note_off,109,0,0,,12,,,71,127
87612,note_on,1,0,0,,4,,,76,127
87721,note_off,109,0,0,,7,,,67,127
87722,note_on,1,0,0,,12,,,71,127
87831,note_off,109,0,0,,4,,,76,127
87832,note_on,1,0,0,,6,,,66,127
87941,note_off,109,0,0,,12,,,71,127
87942,note_on,1,0,0,,12,,,59,127
88051,note_off,109,0,0,,6,,,66,127
88052,note_on,1,0,0,,10,,,69,127
88161,note_off,109,0,0,,12,,,59,127
88162,note_on,1,0,0,,6,,,66,127
88271,note_off,109,0,0,,10,,,69,127
88272,note_on,1,0,0,,3,,,75,127
88381,note_off,109,0,0,,6,,,66,127
88382,note_on,1,0,0,,10,,,69,127
88491,note_off,109,0,0,,10,,,69,127
88491,note_off,0,0,0,,3,,,75,127
88492,note_on,1,0,0,,7,,,67,127
88602,note_on,110,0,0,,4,,,64,127
88711,note_off,109,0,0,,7,,,67,127
88712,note_on,1,0,0,,12,,,71,127
88821,note_off,109,0,0,,4,,,64,127
88822,note_on,1,0,0,,7,,,67,127
88931,note_off,109,0,0,,12,,,71,127
88932,note_on,1,0,0,,4,,,76,127
89041,note_off,109,0,0,,7,,,67,127
89042,note_on,1,0,0,,12,,,71,127
89151,note_off,109,0,0,,4,,,76,127
89152,note_on,1,0,0,,6,,,66,127
89261,note_off,109,0,0,,12,,,71,127
89262,note_on,1,0,0,,12,,,59,127
89371,note_off,109,0,0,,6,,,66,127
89372,note_on,1,0,0,,10,,,69,127
89481,note_off,109,0,0,,12,,,59,127
89482,note_on,1,0,0,,6,,,66,127
89591,note_off,109,0,0,,10,,,69,127
89592,note_on,1,0,0,,3,,,75,127
89592,note_on,0,0,0,,6,,,78,127
89701,note_off,109,0,0,,6,,,66,127
89702,note_on,1,0,0,,10,,,69,127
89811,note_off,109,0,0,,10,,,69,127
89811,note_off,0,0,0,,6,,,78,127
89811,note_off,0,0,0,,3,,,75,127
89812,note_on,1,0,0,,4,,,76,127
89812,note_on,0,0,0,,7,,,79,127
89940,note_on,128,0,0,,4,,,52,127
90030,note_off,90,0,0,,7,,,79,127
90030,note_off,0,0,0,,4,,,76,127
90049,note_on,19,0,0,,7,,,67,127
90158,note_off,109,0,0,,4,,,52,127
90159,note_on,1,0,0,,4,,,64,127
90268,note_off,109,0,0,,7,,,67,127
90269,note_on,1,0,0,,12,,,71,127
90378,note_off,109,0,0,,4,,,64,127
90379,note_on,1,0,0,,7,,,67,127
90488,note_off,109,0,0,,7,,,67,127
90488,note_off,0,0,0,,12,,,71,127
90489,note_on,1,0,0,,7,,,67,127
90599,note_on,110,0,0,,10,,,57,127
90708,note_off,109,0,0,,7,,,67,127
90709,note_on,1,0,0,,1,,,73,127
90818,note_off,109,0,0,,10,,,57,127
90819,note_on,1,0,0,,4,,,64,127
90928,note_off,109,0,0,,1,,,73,127
90929,note_on,1,0,0,,4,,,76,127
91038,note_off,109,0,0,,4,,,64,127
91039,note_on,1,0,0,,7,,,67,127
91148,note_off,109,0,0,,7,,,67,127
91148,note_off,0,0,0,,4,,,76,127
91149,note_on,1,0,0,,5,,,65,127
91259,note_on,110,0,0,,10,,,57,127
91368,note_off,109,0,0,,5,,,65,127
91369,note_on,1,0,0,,10,,,69,127
91478,note_off,109,0,0,,10,,,57,127
91479,note_on,1,0,0,,2,,,62,127
91588,note_off,109,0,0,,10,,,69,127
91589,note_on,1,0,0,,2,,,74,127
91698,note_off,109,0,0,,2,,,62,127
91699,note_on,1,0,0,,5,,,65,127
91808,note_off,109,0,0,,5,,,65,127
91808,note_off,0,0,0,,2,,,74,127
91809,note_on,1,0,0,,7,,,67,127
91919,note_on,110,0,0,,10,,,57,127
92028,note_off,109,0,0,,7,,,67,127
92029,note_on,1,0,0,,1,,,73,127
92138,note_off,109,0,0,,10,,,57,127
92139,note_on,1,0,0,,4,,,64,127
92248,note_off,109,0,0,,1,,,73,127
92249,note_on,1,0,0,,4,,,76,127
92249,note_on,0,0,0,,1,,,73,127
92358,note_off,109,0,0,,4,,,64,127
92359,note_on,1,0,0,,7,,,67,127
92468,note_off,109,0,0,,7,,,67,127
92468,note_off,0,0,0,,1,,,73,127
92468,note_off,0,0,0,,4,,,76,127
92469,note_on,1,0,0,,2,,,74,127
92469,note_on,0,0,0,,5,,,77,127
92597,note_on,128,0,0,,2,,,50,127
92687,note_off,90,0,0,,5,,,77,127
92687,note_off,0,0,0,,2,,,74,127
92706,note_on,19,0,0,,5,,,65,127
92815,note_off,109,0,0,,2,,,50,127
92816,note_on,1,0,0,,2,,,62,127
92925,note_off,109,0,0,,5,,,65,127
92926,note_on,1,0,0,,10,,,69,127
93035,note_off,109,0,0,,2,,,62,127
93036,note_on,1,0,0,,5,,,65,127
93145,note_off,109,0,0,,5,,,65,127
93145,note_off,0,0,0,,10,,,69,127
93146,note_on,1,0,0,,5,,,65,127
93256,note_on,110,0,0,,7,,,55,127
93365,note_off,109,0,0,,5,,,65,127
93366,note_on,1,0,0,,12,,,71,127
93475,note_off,109,0,0,,7,,,55,127
93476,note_on,1,0,0,,2,,,62,127
93585,note_off,109,0,0,,12,,,71,127
93586,note_on,1,0,0,,2,,,74,127
93695,note_off,109,0,0,,2,,,62,127
93696,note_on,1,0,0,,5,,,65,127
93805,note_off,109,0,0,,5,,,65,127
93805,note_off,0,0,0,,2,,,74,127
93806,note_on,1,0,0,,4,,,64,127
93916,note_on,110,0,0,,7,,,55,127
94025,note_off,109,0,0,,4,,,64,127
94026,note_on,1,0,0,,7,,,67,127
94135,note_off,109,0,0,,7,,,55,127
94136,note_on,1,0,0,,0,,,60,127
94245,note_off,109,0,0,,7,,,67,127
94246,note_on,1,0,0,,0,,,72,127
94355,note_off,109,0,0,,0,,,60,127
94356,note_on,1,0,0,,4,,,64,127
94465,note_off,109,0,0,,4,,,64,127
94465,note_off,0,0,0,,0,,,72,127
94466,note_on,1,0,0,,5,,,65,127
94576,note_on,110,0,0,,7,,,55,127
94685,note_off,109,0,0,,5,,,65,127
94686,note_on,1,0,0,,12,,,71,127
94795,note_off,109,0,0,,7,,,55,127
94796,note_on,1,0,0,,2,,,62,127
94905,note_off,109,0,0,,12,,,71,127
94906,note_on,1,0,0,,12,,,71,127
94906,note_on,0,0,0,,2,,,74,127
95015,note_off,109,0,0,,2,,,62,127
95016,note_on,1,0,0,,5,,,65,127
95125,note_off,109,0,0,,5,,,65,127
95125,note_off,0,0,0,,2,,,74,127
95125,note_off,0,0,0,,12,,,71,127
95131,note_on,6,0,0,,0,,,48,127
95131,note_on,0,0,0,,4,,,64,127
95254,note_on,123,0,0,,4,,,76,127
95256,note_off,2,0,0,,4,,,64,127
95349,note_off,93,0,0,,0,,,48,127
95363,note_off,14,0,0,,4,,,76,127
95364,note_on,1,0,0,,4,,,76,127
95364,note_on,0,0,0,,4,,,64,127
95364,note_on,0,0,0,,0,,,60,127
95473,note_off,109,0,0,,4,,,76,127
95474,note_on,1,0,0,,2,,,74,127
95583,note_off,109,0,0,,2,,,74,127
95583,note_off,0,0,0,,0,,,60,127
95583,note_off,0,0,0,,4,,,64,127
95584,note_on,1,0,0,,2,,,74,127
95584,note_on,0,0,0,,12,,,59,127
95584,note_on,0,0,0,,2,,,62,127
95693,note_off,109,0,0,,2,,,74,127
95694,note_on,1,0,0,,0,,,72,127
95803,note_off,109,0,0,,0,,,72,127
95803,note_off,0,0,0,,2,,,62,127
95803,note_off,0,0,0,,12,,,59,127
95804,note_on,1,0,0,,0,,,72,127
95804,note_on,0,0,0,,0,,,60,127
95804,note_on,0,0,0,,10,,,57,127
95913,note_off,109,0,0,,0,,,72,127
95914,note_on,1,0,0,,12,,,71,127
96023,note_off,109,0,0,,12,,,71,127
96023,note_off,0,0,0,,10,,,57,127
96023,note_off,0,0,0,,0,,,60,127
96024,note_on,1,0,0,,12,,,71,127
96024,note_on,0,0,0,,12,,,59,127
96024,note_on,0,0,0,,7,,,55,127
96133,note_off,109,0,0,,12,,,71,127
96134,note_on,1,0,0,,10,,,69,127
96243,note_off,109,0,0,,10,,,69,127
96243,note_off,0,0,0,,7,,,55,127
96243,note_off,0,0,0,,12,,,59,127
96244,note_on,1,0,0,,10,,,69,127
96244,note_on,0,0,0,,6,,,54,127
96244,note_on,0,0,0,,10,,,57,127
96353,note_off,109,0,0,,10,,,69,127
96354,note_on,1,0,0,,12,,,71,127
96463,note_off,109,0,0,,12,,,71,127
96463,note_off,0,0,0,,10,,,57,127
96463,note_off,0,0,0,,6,,,54,127
96464,note_on,1,0,0,,12,,,71,127
96464,note_on,0,0,0,,7,,,43,127
96585,note_off,121,0,0,,12,,,71,127
96587,note_on,2,0,0,,2,,,74,127
96682,note_off,95,0,0,,7,,,43,127
96696,note_off,14,0,0,,2,,,74,127
96697,note_on,1,0,0,,2,,,74,127
96697,note_on,0,0,0,,12,,,59,127
96697,note_on,0,0,0,,2,,,62,127
96806,note_off,109,0,0,,2,,,74,127
96807,note_on,1,0,0,,0,,,72,127
96916,note_off,109,0,0,,0,,,72,127
96916,note_off,0,0,0,,2,,,62,127
96916,note_off,0,0,0,,12,,,59,127
96917,note_on,1,0,0,,0,,,72,127
96917,note_on,0,0,0,,0,,,60,127
96917,note_on,0,0,0,,10,,,57,127
97026,note_off,109,0,0,,0,,,72,127
97027,note_on,1,0,0,,12,,,71,127
97136,note_off,109,0,0,,12,,,71,127
97136,note_off,0,0,0,,10,,,57,127
97136,note_off,0,0,0,,0,,,60,127
97137,note_on,1,0,0,,12,,,71,127
97137,note_on,0,0,0,,7,,,55,127
97137,note_on,0,0,0,,12,,,59,127
97246,note_off,109,0,0,,12,,,71,127
97247,note_on,1,0,0,,10,,,69,127
97356,note_off,109,0,0,,10,,,69,127
97356,note_off,0,0,0,,12,,,59,127
97356,note_off,0,0,0,,7,,,55,127
97357,note_on,1,0,0,,10,,,69,127
97357,note_on,0,0,0,,10,,,57,127
97357,note_on,0,0,0,,6,,,54,127
97466,note_off,109,0,0,,10,,,69,127
97467,note_on,1,0,0,,7,,,67,127
97576,note_off,109,0,0,,7,,,67,127
97576,note_off,0,0,0,,6,,,54,127
97576,note_off,0,0,0,,10,,,57,127
97577,note_on,1,0,0,,7,,,67,127
97577,note_on,0,0,0,,4,,,52,127
97577,note_on,0,0,0,,7,,,55,127
97686,note_off,109,0,0,,7,,,67,127
97687,note_on,1,0,0,,6,,,66,127
97796,note_off,109,0,0,,6,,,66,127
97796,note_off,0,0,0,,7,,,55,127
97796,note_off,0,0,0,,4,,,52,127
97797,note_on,1,0,0,,7,,,67,127
97797,note_on,0,0,0,,2,,,38,127
97851,note_off,54,0,0,,7,,,67,127
97852,note_on,1,0,0,,6,,,66,127
97906,note_off,54,0,0,,6,,,66,127
97907,note_on,1,0,0,,7,,,67,127
97961,note_off,54,0,0,,7,,,67,127
97962,note_on,1,0,0,,6,,,66,127
98016,note_off,54,0,0,,6,,,66,127
98017,note_on,1,0,0,,7,,,67,127
98071,note_off,54,0,0,,7,,,67,127
98072,note_on,1,0,0,,6,,,66,127
98126,note_off,54,0,0,,6,,,66,127
98127,note_on,1,0,0,,4,,,64,127
98236,note_off,109,0,0,,4,,,64,127
98237,note_on,1,0,0,,2,,,62,127
98455,note_off,218,0,0,,2,,,38,127
98557,note_off,102,0,0,,2,,,62,127
99334,note_on,777,0,0,,7,,,55,127
99334,note_on,0,0,0,,11,,,58,127
99334,note_on,0,0,0,,2,,,62,127
99552,note_off,218,0,0,,2,,,62,127
99552,note_off,0,0,0,,11,,,58,127
99552,note_off,0,0,0,,7,,,55,127
99553,note_on,1,0,0,,0,,,72,127
99553,note_on,0,0,0,,11,,,58,127
99553,note_on,0,0,0,,7,,,55,127
99553,note_on,0,0,0,,2,,,62,127
99607,note_off,54,0,0,,0,,,72,127
99608,note_on,1,0,0,,11,,,70,127
99662,note_off,54,0,0,,11,,,70,127
99663,note_on,1,0,0,,0,,,72,127
99717,note_off,54,0,0,,0,,,72,127
99718,note_on,1,0,0,,11,,,70,127
99772,note_off,54,0,0,,11,,,70,127
99772,note_off,0,0,0,,2,,,62,127
99772,note_off,0,0,0,,7,,,55,127
99772,note_off,0,0,0,,11,,,58,127
99773,note_on,1,0,0,,0,,,72,127
99773,note_on,0,0,0,,11,,,58,127
99773,note_on,0,0,0,,7,,,55,127
99773,note_on,0,0,0,,2,,,62,127
99827,note_off,54,0,0,,0,,,72,127
99828,note_on,1,0,0,,11,,,70,127
99882,note_off,54,0,0,,11,,,70,127
99883,note_on,1,0,0,,10,,,69,127
99937,note_off,54,0,0,,10,,,69,127
99938,note_on,1,0,0,,7,,,67,127
99992,note_off,54,0,0,,7,,,67,127
99992,note_off,0,0,0,,2,,,62,127
99992,note_off,0,0,0,,7,,,55,127
99992,note_off,0,0,0,,11,,,58,127
99993,note_on,1,0,0,,2,,,62,127
99993,note_on,0,0,0,,10,,,57,127
99993,note_on,0,0,0,,6,,,54,127
100211,note_off,218,0,0,,6,,,54,127
100211,note_off,0,0,0,,10,,,57,127
100211,note_off,0,0,0,,2,,,62,127
100212,note_on,1,0,0,,2,,,74,127
100212,note_on,0,0,0,,2,,,62,127
100212,note_on,0,0,0,,10,,,57,127
100212,note_on,0,0,0,,6,,,54,127
100430,note_off,218,0,0,,6,,,54,127
100430,note_off,0,0,0,,10,,,57,127
100430,note_off,0,0,0,,2,,,62,127
100431,note_on,1,0,0,,6,,,54,127
100431,note_on,0,0,0,,10,,,57,127
100431,note_on,0,0,0,,2,,,62,127
100649,note_off,218,0,0,,2,,,62,127
100649,note_off,0,0,0,,10,,,57,127
100649,note_off,0,0,0,,6,,,54,127
100650,note_on,1,0,0,,7,,,55,127
100650,note_on,0,0,0,,11,,,58,127
100650,note_on,0,0,0,,2,,,62,127
100868,note_off,218,0,0,,2,,,62,127
100868,note_off,0,0,0,,11,,,58,127
100868,note_off,0,0,0,,7,,,55,127
100868,note_off,0,0,0,,2,,,74,127
100869,note_on,1,0,0,,0,,,72,127
100869,note_on,0,0,0,,11,,,58,127
100869,note_on,0,0,0,,7,,,55,127
100869,note_on,0,0,0,,2,,,62,127
100923,note_off,54,0,0,,0,,,72,127
100924,note_on,1,0,0,,11,,,70,127
100978,note_off,54,0,0,,11,,,70,127
100979,note_on,1,0,0,,0,,,72,127
101033,note_off,54,0,0,,0,,,72,127
101034,note_on,1,0,0,,11,,,70,127
101088,note_off,54,0,0,,11,,,70,127
101088,note_off,0,0,0,,2,,,62,127
101088,note_off,0,0,0,,7,,,55,127
101088,note_off,0,0,0,,11,,,58,127
101089,note_on,1,0,0,,0,,,72,127
101089,note_on,0,0,0,,7,,,55,127
101089,note_on,0,0,0,,11,,,58,127
101089,note_on,0,0,0,,2,,,62,127
101143,note_off,54,0,0,,0,,,72,127
101144,note_on,1,0,0,,11,,,70,127
101198,note_off,54,0,0,,11,,,70,127
101199,note_on,1,0,0,,10,,,69,127
101253,note_off,54,0,0,,10,,,69,127
101254,note_on,1,0,0,,7,,,67,127
101308,note_off,54,0,0,,7,,,67,127
101308,note_off,0,0,0,,2,,,62,127
101308,note_off,0,0,0,,11,,,58,127
101308,note_off,0,0,0,,7,,,55,127
101309,note_on,1,0,0,,2,,,62,127
101309,note_on,0,0,0,,10,,,57,127
101309,note_on,0,0,0,,6,,,54,127
101527,note_off,218,0,0,,6,,,54,127
101527,note_off,0,0,0,,10,,,57,127
101527,note_off,0,0,0,,2,,,62,127
101528,note_on,1,0,0,,2,,,74,127
101528,note_on,0,0,0,,10,,,57,127
101528,note_on,0,0,0,,6,,,54,127
101528,note_on,0,0,0,,2,,,62,127
101746,note_off,218,0,0,,2,,,62,127
101746,note_off,0,0,0,,6,,,54,127
101746,note_off,0,0,0,,10,,,57,127
101747,note_on,1,0,0,,10,,,57,127
101747,note_on,0,0,0,,6,,,54,127
101747,note_on,0,0,0,,2,,,62,127
101965,note_off,218,0,0,,2,,,62,127
101965,note_off,0,0,0,,6,,,54,127
101965,note_off,0,0,0,,10,,,57,127
101984,note_on,19,0,0,,7,,,55,127
101984,note_on,0,0,0,,2,,,62,127
101984,note_on,0,0,0,,5,,,65,127
102184,note_off,200,0,0,,2,,,74,127
102202,note_off,18,0,0,,5,,,65,127
102202,note_off,0,0,0,,2,,,62,127
102202,note_off,0,0,0,,7,,,55,127
102203,note_on,1,0,0,,5,,,65,127
102203,note_on,0,0,0,,7,,,55,127
102203,note_on,0,0,0,,2,,,62,127
102203,note_on,0,0,0,,5,,,77,127
102312,note_off,109,0,0,,5,,,77,127
102313,note_on,1,0,0,,2,,,74,127
102422,note_off,109,0,0,,2,,,74,127
102422,note_off,0,0,0,,2,,,62,127
102422,note_off,0,0,0,,7,,,55,127
102422,note_off,0,0,0,,5,,,65,127
102423,note_on,1,0,0,,5,,,65,127
102423,note_on,0,0,0,,7,,,55,127
102423,note_on,0,0,0,,2,,,62,127
102423,note_on,0,0,0,,2,,,74,127
102532,note_off,109,0,0,,2,,,74,127
102533,note_on,1,0,0,,12,,,71,127
102642,note_off,109,0,0,,12,,,71,127
102642,note_off,0,0,0,,2,,,62,127
102642,note_off,0,0,0,,7,,,55,127
102642,note_off,0,0,0,,5,,,65,127
102643,note_on,1,0,0,,5,,,65,127
102643,note_on,0,0,0,,0,,,60,127
102643,note_on,0,0,0,,8,,,56,127
102643,note_on,0,0,0,,12,,,71,127
102861,note_off,218,0,0,,12,,,71,127
102861,note_off,0,0,0,,8,,,56,127
102861,note_off,0,0,0,,0,,,60,127
102861,note_off,0,0,0,,5,,,65,127
102862,note_on,1,0,0,,5,,,65,127
102862,note_on,0,0,0,,8,,,56,127
102862,note_on,0,0,0,,0,,,60,127
102862,note_on,0,0,0,,0,,,72,127
103080,note_off,218,0,0,,0,,,60,127
103080,note_off,0,0,0,,8,,,56,127
103080,note_off,0,0,0,,5,,,65,127
103081,note_on,1,0,0,,5,,,65,127
103081,note_on,0,0,0,,0,,,60,127
103081,note_on,0,0,0,,8,,,56,127
103299,note_off,218,0,0,,8,,,56,127
103299,note_off,0,0,0,,0,,,60,127
103299,note_off,0,0,0,,5,,,65,127
103305,note_on,6,0,0,,7,,,55,127
103305,note_on,0,0,0,,5,,,65,127
103305,note_on,0,0,0,,2,,,62,127
103519,note_off,214,0,0,,0,,,72,127
103524,note_off,5,0,0,,2,,,62,127
103524,note_off,0,0,0,,5,,,65,127
103524,note_off,0,0,0,,7,,,55,127
103525,note_on,1,0,0,,5,,,77,127
103525,note_on,0,0,0,,5,,,65,127
103525,note_on,0,0,0,,2,,,62,127
103525,note_on,0,0,0,,7,,,55,127
103634,note_off,109,0,0,,5,,,77,127
103635,note_on,1,0,0,,2,,,74,127
103744,note_off,109,0,0,,2,,,74,127
103744,note_off,0,0,0,,7,,,55,127
103744,note_off,0,0,0,,2,,,62,127
103744,note_off,0,0,0,,5,,,65,127
103745,note_on,1,0,0,,2,,,74,127
103745,note_on,0,0,0,,5,,,65,127
103745,note_on,0,0,0,,2,,,62,127
103745,note_on,0,0,0,,7,,,55,127
103854,note_off,109,0,0,,2,,,74,127
103855,note_on,1,0,0,,12,,,71,127
103964,note_off,109,0,0,,12,,,71,127
103964,note_off,0,0,0,,7,,,55,127
103964,note_off,0,0,0,,2,,,62,127
103964,note_off,0,0,0,,5,,,65,127
103965,note_on,1,0,0,,12,,,71,127
103965,note_on,0,0,0,,8,,,56,127
103965,note_on,0,0,0,,5,,,65,127
103965,note_on,0,0,0,,0,,,60,127
104183,note_off,218,0,0,,0,,,60,127
104183,note_off,0,0,0,,5,,,65,127
104183,note_off,0,0,0,,8,,,56,127
104183,note_off,0,0,0,,12,,,71,127
104184,note_on,1,0,0,,8,,,56,127
104184,note_on,0,0,0,,0,,,72,127
104184,note_on,0,0,0,,5,,,65,127
104184,note_on,0,0,0,,0,,,60,127
104402,note_off,218,0,0,,0,,,60,127
104402,note_off,0,0,0,,5,,,65,127
104402,note_off,0,0,0,,0,,,72,127
104402,note_off,0,0,0,,8,,,56,127
104403,note_on,1,0,0,,8,,,56,127
104403,note_on,0,0,0,,5,,,65,127
104403,note_on,0,0,0,,0,,,60,127
104611,note_off,208,0,0,,0,,,60,127
104611,note_off,0,0,0,,5,,,65,127
104611,note_off,0,0,0,,8,,,56,127
104659,note_on,48,0,0,,10,,,57,127
104659,note_on,0,0,0,,4,,,64,127
104659,note_on,0,0,0,,7,,,67,127
104877,note_off,218,0,0,,7,,,67,127
104877,note_off,0,0,0,,4,,,64,127
104877,note_off,0,0,0,,10,,,57,127
104878,note_on,1,0,0,,10,,,57,127
104878,note_on,0,0,0,,11,,,82,127
104878,note_on,0,0,0,,4,,,64,127
104878,note_on,0,0,0,,7,,,67,127
104987,note_off,109,0,0,,11,,,82,127
104988,note_on,1,0,0,,7,,,79,127
105097,note_off,109,0,0,,7,,,79,127
105097,note_off,0,0,0,,7,,,67,127
105097,note_off,0,0,0,,4,,,64,127
105097,note_off,0,0,0,,10,,,57,127
105098,note_on,1,0,0,,10,,,57,127
105098,note_on,0,0,0,,4,,,76,127
105098,note_on,0,0,0,,4,,,64,127
105098,note_on,0,0,0,,7,,,67,127
105207,note_off,109,0,0,,4,,,76,127
105208,note_on,1,0,0,,1,,,73,127
105317,note_off,109,0,0,,1,,,73,127
105317,note_off,0,0,0,,7,,,67,127
105317,note_off,0,0,0,,4,,,64,127
105317,note_off,0,0,0,,10,,,57,127
105318,note_on,1,0,0,,2,,,62,127
105318,note_on,0,0,0,,11,,,58,127
105318,note_on,0,0,0,,1,,,73,127
105318,note_on,0,0,0,,7,,,67,127
105536,note_off,218,0,0,,7,,,67,127
105536,note_off,0,0,0,,1,,,73,127
105536,note_off,0,0,0,,11,,,58,127
105536,note_off,0,0,0,,2,,,62,127
105537,note_on,1,0,0,,2,,,62,127
105537,note_on,0,0,0,,11,,,58,127
105537,note_on,0,0,0,,2,,,74,127
105537,note_on,0,0,0,,7,,,67,127
105755,note_off,218,0,0,,7,,,67,127
105755,note_off,0,0,0,,11,,,58,127
105755,note_off,0,0,0,,2,,,62,127
105756,note_on,1,0,0,,11,,,58,127
105756,note_on,0,0,0,,2,,,62,127
105756,note_on,0,0,0,,7,,,67,127
105974,note_off,218,0,0,,7,,,67,127
105974,note_off,0,0,0,,2,,,62,127
105974,note_off,0,0,0,,11,,,58,127
105988,note_on,14,0,0,,7,,,67,127
105988,note_on,0,0,0,,1,,,61,127
105988,note_on,0,0,0,,10,,,57,127
105988,note_on,0,0,0,,4,,,64,127
106194,note_off,206,0,0,,2,,,74,127
106207,note_off,13,0,0,,4,,,64,127
106207,note_off,0,0,0,,10,,,57,127
106207,note_off,0,0,0,,1,,,61,127
106207,note_off,0,0,0,,7,,,67,127
106214,note_on,7,0,0,,11,,,82,127
106214,note_on,0,0,0,,1,,,61,127
106214,note_on,0,0,0,,10,,,57,127
106214,note_on,0,0,0,,7,,,67,127
106214,note_on,0,0,0,,4,,,64,127
106323,note_off,109,0,0,,11,,,82,127
106324,note_on,1,0,0,,7,,,79,127
106433,note_off,109,0,0,,7,,,79,127
106433,note_off,0,0,0,,4,,,64,127
106433,note_off,0,0,0,,7,,,67,127
106433,note_off,0,0,0,,10,,,57,127
106433,note_off,0,0,0,,1,,,61,127
106434,note_on,1,0,0,,4,,,76,127
106434,note_on,0,0,0,,1,,,61,127
106434,note_on,0,0,0,,10,,,57,127
106434,note_on,0,0,0,,7,,,67,127
106434,note_on,0,0,0,,4,,,64,127
106543,note_off,109,0,0,,4,,,76,127
106544,note_on,1,0,0,,1,,,73,127
106653,note_off,109,0,0,,1,,,73,127
106653,note_off,0,0,0,,4,,,64,127
106653,note_off,0,0,0,,7,,,67,127
106653,note_off,0,0,0,,10,,,57,127
106653,note_off,0,0,0,,1,,,61,127
106654,note_on,1,0,0,,1,,,73,127
106654,note_on,0,0,0,,7,,,67,127
106654,note_on,0,0,0,,2,,,62,127
106654,note_on,0,0,0,,11,,,58,127
106872,note_off,218,0,0,,11,,,58,127
106872,note_off,0,0,0,,2,,,62,127
106872,note_off,0,0,0,,7,,,67,127
106872,note_off,0,0,0,,1,,,73,127
106873,note_on,1,0,0,,2,,,74,127
106873,note_on,0,0,0,,11,,,58,127
106873,note_on,0,0,0,,7,,,67,127
106873,note_on,0,0,0,,2,,,62,127
106982,note_off,109,0,0,,2,,,74,127
106983,note_on,1,0,0,,2,,,86,127
107092,note_off,109,0,0,,2,,,86,127
107092,note_off,0,0,0,,2,,,62,127
107092,note_off,0,0,0,,7,,,67,127
107092,note_off,0,0,0,,11,,,58,127
107093,note_on,1,0,0,,2,,,86,127
107093,note_on,0,0,0,,6,,,66,127
107093,note_on,0,0,0,,2,,,62,127
107093,note_on,0,0,0,,0,,,60,127
107093,note_on,0,0,0,,10,,,57,127
107202,note_off,109,0,0,,2,,,86,127
107203,note_on,1,0,0,,0,,,84,127
107312,note_off,109,0,0,,0,,,84,127
107312,note_off,0,0,0,,10,,,57,127
107312,note_off,0,0,0,,0,,,60,127
107312,note_off,0,0,0,,2,,,62,127
107312,note_off,0,0,0,,6,,,66,127
107313,note_on,1,0,0,,0,,,84,127
107313,note_on,0,0,0,,7,,,55,127
107313,note_on,0,0,0,,7,,,67,127
107422,note_off,109,0,0,,0,,,84,127
107423,note_on,1,0,0,,11,,,82,127
107532,note_off,109,0,0,,11,,,82,127
107532,note_off,0,0,0,,7,,,67,127
107532,note_off,0,0,0,,7,,,55,127
107533,note_on,1,0,0,,11,,,82,127
107533,note_on,0,0,0,,5,,,53,127
107533,note_on,0,0,0,,5,,,65,127
107642,note_off,109,0,0,,11,,,82,127
107643,note_on,1,0,0,,10,,,81,127
107752,note_off,109,0,0,,10,,,81,127
107752,note_off,0,0,0,,5,,,65,127
107752,note_off,0,0,0,,5,,,53,127
107753,note_on,1,0,0,,10,,,81,127
107753,note_on,0,0,0,,3,,,63,127
107753,note_on,0,0,0,,3,,,51,127
107862,note_off,109,0,0,,10,,,81,127
107863,note_on,1,0,0,,7,,,79,127
107972,note_off,109,0,0,,7,,,79,127
107972,note_off,0,0,0,,3,,,51,127
107972,note_off,0,0,0,,3,,,63,127
107973,note_on,1,0,0,,6,,,78,127
107973,note_on,0,0,0,,2,,,50,127
107973,note_on,0,0,0,,2,,,62,127
108082,note_off,109,0,0,,6,,,78,127
108083,note_on,1,0,0,,3,,,75,127
108192,note_off,109,0,0,,3,,,75,127
108193,note_on,1,0,0,,3,,,75,127
108302,note_off,109,0,0,,3,,,75,127
108303,note_on,1,0,0,,2,,,74,127
108412,note_off,109,0,0,,2,,,74,127
108412,note_off,0,0,0,,2,,,62,127
108412,note_off,0,0,0,,2,,,50,127
108413,note_on,1,0,0,,2,,,74,127
108413,note_on,0,0,0,,0,,,60,127
108413,note_on,0,0,0,,4,,,52,127
108522,note_off,109,0,0,,2,,,74,127
108523,note_on,1,0,0,,0,,,72,127
108632,note_off,109,0,0,,0,,,72,127
108632,note_off,0,0,0,,4,,,52,127
108632,note_off,0,0,0,,0,,,60,127
108633,note_on,1,0,0,,0,,,72,127
108633,note_on,0,0,0,,2,,,62,127
108633,note_on,0,0,0,,6,,,54,127
108742,note_off,109,0,0,,0,,,72,127
108743,note_on,1,0,0,,11,,,70,127
108852,note_off,109,0,0,,11,,,70,127
108852,note_off,0,0,0,,6,,,54,127
108852,note_off,0,0,0,,2,,,62,127
108853,note_on,1,0,0,,11,,,70,127
108853,note_on,0,0,0,,7,,,55,127
108853,note_on,0,0,0,,2,,,62,127
108962,note_off,109,0,0,,11,,,70,127
108963,note_on,1,0,0,,10,,,69,127
109072,note_off,109,0,0,,10,,,69,127
109072,note_off,0,0,0,,2,,,62,127
109072,note_off,0,0,0,,7,,,55,127
109073,note_on,1,0,0,,10,,,69,127
109073,note_on,0,0,0,,2,,,62,127
109073,note_on,0,0,0,,6,,,54,127
109182,note_off,109,0,0,,10,,,69,127
109183,note_on,1,0,0,,11,,,70,127
109292,note_off,109,0,0,,11,,,70,127
109292,note_off,0,0,0,,6,,,54,127
109292,note_off,0,0,0,,2,,,62,127
109293,note_on,1,0,0,,11,,,70,127
109293,note_on,0,0,0,,2,,,62,127
109293,note_on,0,0,0,,7,,,55,127
109402,note_off,109,0,0,,11,,,70,127
109403,note_on,1,0,0,,2,,,74,127
109512,note_off,109,0,0,,2,,,74,127
109512,note_off,0,0,0,,7,,,55,127
109512,note_off,0,0,0,,2,,,62,127
109513,note_on,1,0,0,,2,,,74,127
109513,note_on,0,0,0,,11,,,58,127
109513,note_on,0,0,0,,2,,,62,127
109622,note_off,109,0,0,,2,,,74,127
109623,note_on,1,0,0,,0,,,72,127
109732,note_off,109,0,0,,0,,,72,127
109732,note_off,0,0,0,,2,,,62,127
109732,note_off,0,0,0,,11,,,58,127
109733,note_on,1,0,0,,0,,,72,127
109733,note_on,0,0,0,,0,,,60,127
109733,note_on,0,0,0,,10,,,57,127
109842,note_off,109,0,0,,0,,,72,127
109843,note_on,1,0,0,,11,,,70,127
109952,note_off,109,0,0,,11,,,70,127
109952,note_off,0,0,0,,10,,,57,127
109952,note_off,0,0,0,,0,,,60,127
109953,note_on,1,0,0,,11,,,70,127
109953,note_on,0,0,0,,2,,,62,127
109953,note_on,0,0,0,,7,,,55,127
110062,note_off,109,0,0,,11,,,70,127
110063,note_on,1,0,0,,10,,,69,127
110172,note_off,109,0,0,,10,,,69,127
110172,note_off,0,0,0,,7,,,55,127
110172,note_off,0,0,0,,2,,,62,127
110173,note_on,1,0,0,,10,,,69,127
110173,note_on,0,0,0,,5,,,53,127
110282,note_off,109,0,0,,10,,,69,127
110283,note_on,1,0,0,,7,,,67,127
110392,note_off,109,0,0,,7,,,67,127
110392,note_off,0,0,0,,5,,,53,127
110393,note_on,1,0,0,,7,,,67,127
110393,note_on,0,0,0,,3,,,51,127
110502,note_off,109,0,0,,7,,,67,127
110503,note_on,1,0,0,,6,,,66,127
110612,note_off,109,0,0,,6,,,66,127
110612,note_off,0,0,0,,3,,,51,127
110613,note_on,1,0,0,,7,,,67,127
110613,note_on,0,0,0,,2,,,38,127
110667,note_off,54,0,0,,7,,,67,127
110668,note_on,1,0,0,,6,,,66,127
110722,note_off,54,0,0,,6,,,66,127
110723,note_on,1,0,0,,7,,,67,127
110777,note_off,54,0,0,,7,,,67,127
110778,note_on,1,0,0,,6,,,66,127
110832,note_off,54,0,0,,6,,,66,127
110833,note_on,1,0,0,,7,,,67,127
110887,note_off,54,0,0,,7,,,67,127
110895,note_on,8,0,0,,6,,,66,127
110956,note_off,61,0,0,,6,,,66,127
110973,note_on,17,0,0,,4,,,64,127
111125,note_off,152,0,0,,4,,,64,127
111130,note_on,5,0,0,,2,,,62,127
111300,note_off,170,0,0,,2,,,38,127
111467,note_off,167,0,0,,2,,,62,127
111476,note_on,9,0,0,,2,,,38,127
111476,note_on,0,0,0,,2,,,50,127
111476,note_on,0,0,0,,2,,,62,127
111585,note_off,109,0,0,,2,,,62,127
111586,note_on,1,0,0,,10,,,69,127
111695,note_off,109,0,0,,10,,,69,127
111696,note_on,1,0,0,,6,,,66,127
111805,note_off,109,0,0,,6,,,66,127
111806,note_on,1,0,0,,2,,,62,127
111915,note_off,109,0,0,,2,,,62,127
111916,note_on,1,0,0,,0,,,84,127
112134,note_off,218,0,0,,0,,,84,127
112134,note_off,0,0,0,,2,,,50,127
112134,note_off,0,0,0,,2,,,38,127
112135,note_on,1,0,0,,7,,,43,127
112135,note_on,0,0,0,,7,,,55,127
112135,note_on,0,0,0,,2,,,62,127
112244,note_off,109,0,0,,2,,,62,127
112245,note_on,1,0,0,,12,,,71,127
112354,note_off,109,0,0,,12,,,71,127
112355,note_on,1,0,0,,7,,,67,127
112464,note_off,109,0,0,,7,,,67,127
112465,note_on,1,0,0,,2,,,62,127
112574,note_off,109,0,0,,2,,,62,127
112575,note_on,1,0,0,,2,,,86,127
112793,note_off,218,0,0,,2,,,86,127
112793,note_off,0,0,0,,7,,,55,127
112793,note_off,0,0,0,,7,,,43,127
112794,note_on,1,0,0,,2,,,50,127
112794,note_on,0,0,0,,2,,,38,127
112794,note_on,0,0,0,,2,,,62,127
112903,note_off,109,0,0,,2,,,62,127
112904,note_on,1,0,0,,10,,,69,127
113013,note_off,109,0,0,,10,,,69,127
113014,note_on,1,0,0,,6,,,66,127
113123,note_off,109,0,0,,6,,,66,127
113124,note_on,1,0,0,,2,,,62,127
113233,note_off,109,0,0,,2,,,62,127
113234,note_on,1,0,0,,0,,,84,127
113452,note_off,218,0,0,,0,,,84,127
113452,note_off,0,0,0,,2,,,38,127
113452,note_off,0,0,0,,2,,,50,127
113453,note_on,1,0,0,,7,,,55,127
113453,note_on,0,0,0,,7,,,43,127
113453,note_on,0,0,0,,2,,,62,127
113562,note_off,109,0,0,,2,,,62,127
113563,note_on,1,0,0,,12,,,71,127
113672,note_off,109,0,0,,12,,,71,127
113673,note_on,1,0,0,,7,,,67,127
113782,note_off,109,0,0,,7,,,67,127
113783,note_on,1,0,0,,2,,,62,127
113892,note_off,109,0,0,,2,,,62,127
113893,note_on,1,0,0,,2,,,86,127
114111,note_off,218,0,0,,2,,,86,127
114111,note_off,0,0,0,,7,,,43,127
114111,note_off,0,0,0,,7,,,55,127
114112,note_on,1,0,0,,2,,,50,127
114112,note_on,0,0,0,,2,,,38,127
114112,note_on,0,0,0,,2,,,62,127
114221,note_off,109,0,0,,2,,,62,127
114222,note_on,1,0,0,,10,,,69,127
114331,note_off,109,0,0,,10,,,69,127
114332,note_on,1,0,0,,6,,,66,127
114441,note_off,109,0,0,,6,,,66,127
114442,note_on,1,0,0,,2,,,62,127
114551,note_off,109,0,0,,2,,,62,127
114552,note_on,1,0,0,,0,,,84,127
114770,note_off,218,0,0,,0,,,84,127
114770,note_off,0,0,0,,2,,,38,127
114770,note_off,0,0,0,,2,,,50,127
114771,note_on,1,0,0,,7,,,55,127
114771,note_on,0,0,0,,7,,,43,127
114771,note_on,0,0,0,,12,,,83,127
114880,note_off,109,0,0,,12,,,83,127
114881,note_on,1,0,0,,10,,,81,127
114990,note_off,109,0,0,,10,,,81,127
114990,note_off,0,0,0,,7,,,43,127
114990,note_off,0,0,0,,7,,,55,127
114991,note_on,1,0,0,,10,,,57,127
114991,note_on,0,0,0,,10,,,45,127
114991,note_on,0,0,0,,7,,,79,127
115100,note_off,109,0,0,,7,,,79,127
115101,note_on,1,0,0,,6,,,78,127
115210,note_off,109,0,0,,6,,,78,127
115210,note_off,0,0,0,,10,,,45,127
115210,note_off,0,0,0,,10,,,57,127
115211,note_on,1,0,0,,12,,,59,127
115211,note_on,0,0,0,,12,,,47,127
115211,note_on,0,0,0,,7,,,79,127
115320,note_off,109,0,0,,7,,,79,127
115321,note_on,1,0,0,,2,,,74,127
115430,note_off,109,0,0,,2,,,74,127
115430,note_off,0,0,0,,12,,,47,127
115430,note_off,0,0,0,,12,,,59,127
115431,note_on,1,0,0,,0,,,48,127
115431,note_on,0,0,0,,4,,,76,127
115540,note_off,109,0,0,,4,,,76,127
115541,note_on,1,0,0,,0,,,72,127
115650,note_off,109,0,0,,0,,,72,127
115650,note_off,0,0,0,,0,,,48,127
115651,note_on,1,0,0,,2,,,50,127
115651,note_on,0,0,0,,12,,,71,127
115760,note_off,109,0,0,,12,,,71,127
115761,note_on,1,0,0,,10,,,69,127
115870,note_off,109,0,0,,10,,,69,127
115871,note_on,1,0,0,,2,,,38,127
115871,note_on,0,0,0,,7,,,67,127
115980,note_off,109,0,0,,7,,,67,127
115981,note_on,1,0,0,,6,,,66,127
116090,note_off,109,0,0,,6,,,66,127
116090,note_off,0,0,0,,2,,,38,127
116090,note_off,0,0,0,,2,,,50,127
116091,note_on,1,0,0,,7,,,43,127
116091,note_on,0,0,0,,7,,,67,127
116200,note_off,109,0,0,,7,,,67,127
116206,note_on,6,0,0,,2,,,74,127
116315,note_off,109,0,0,,2,,,74,127
116321,note_on,6,0,0,,12,,,71,127
116430,note_off,109,0,0,,12,,,71,127
116433,note_on,3,0,0,,7,,,67,127
116542,note_off,109,0,0,,7,,,67,127
116550,note_on,8,0,0,,2,,,62,127
116659,note_off,109,0,0,,2,,,62,127
116665,note_on,6,0,0,,7,,,67,127
116751,note_off,86,0,0,,7,,,43,127
116774,note_off,23,0,0,,7,,,67,127
116780,note_on,6,0,0,,6,,,66,127
116780,note_on,0,0,0,,2,,,38,127
116780,note_on,0,0,0,,2,,,50,127
116889,note_off,109,0,0,,6,,,66,127
116890,note_on,1,0,0,,10,,,69,127
116999,note_off,109,0,0,,10,,,69,127
117000,note_on,1,0,0,,6,,,66,127
117109,note_off,109,0,0,,6,,,66,127
117110,note_on,1,0,0,,2,,,62,127
117219,note_off,109,0,0,,2,,,62,127
117220,note_on,1,0,0,,0,,,84,127
117438,note_off,218,0,0,,0,,,84,127
117438,note_off,0,0,0,,2,,,50,127
117438,note_off,0,0,0,,2,,,38,127
117439,note_on,1,0,0,,2,,,62,127
117439,note_on,0,0,0,,7,,,55,127
117439,note_on,0,0,0,,7,,,43,127
117548,note_off,109,0,0,,2,,,62,127
117549,note_on,1,0,0,,12,,,71,127
117658,note_off,109,0,0,,12,,,71,127
117659,note_on,1,0,0,,7,,,67,127
117768,note_off,109,0,0,,7,,,67,127
117769,note_on,1,0,0,,2,,,62,127
117878,note_off,109,0,0,,2,,,62,127
117879,note_on,1,0,0,,2,,,86,127
118097,note_off,218,0,0,,2,,,86,127
118097,note_off,0,0,0,,7,,,43,127
118097,note_off,0,0,0,,7,,,55,127
118098,note_on,1,0,0,,2,,,62,127
118098,note_on,0,0,0,,2,,,50,127
118098,note_on,0,0,0,,2,,,38,127
118207,note_off,109,0,0,,2,,,62,127
118208,note_on,1,0,0,,10,,,69,127
118317,note_off,109,0,0,,10,,,69,127
118318,note_on,1,0,0,,6,,,66,127
118427,note_off,109,0,0,,6,,,66,127
118428,note_on,1,0,0,,2,,,62,127
118537,note_off,109,0,0,,2,,,62,127
118538,note_on,1,0,0,,0,,,84,127
118756,note_off,218,0,0,,0,,,84,127
118756,note_off,0,0,0,,2,,,38,127
118756,note_off,0,0,0,,2,,,50,127
118757,note_on,1,0,0,,2,,,62,127
118757,note_on,0,0,0,,7,,,55,127
118757,note_on,0,0,0,,7,,,43,127
118866,note_off,109,0,0,,2,,,62,127
118867,note_on,1,0,0,,12,,,71,127
118976,note_off,109,0,0,,12,,,71,127
118977,note_on,1,0,0,,7,,,67,127
119086,note_off,109,0,0,,7,,,67,127
119087,note_on,1,0,0,,2,,,62,127
119196,note_off,109,0,0,,2,,,62,127
119197,note_on,1,0,0,,2,,,86,127
119415,note_off,218,0,0,,2,,,86,127
119415,note_off,0,0,0,,7,,,43,127
119415,note_off,0,0,0,,7,,,55,127
119416,note_on,1,0,0,,2,,,62,127
119416,note_on,0,0,0,,2,,,38,127
119416,note_on,0,0,0,,2,,,50,127
119525,note_off,109,0,0,,2,,,62,127
119526,note_on,1,0,0,,10,,,69,127
119635,note_off,109,0,0,,10,,,69,127
119636,note_on,1,0,0,,6,,,66,127
119745,note_off,109,0,0,,6,,,66,127
119746,note_on,1,0,0,,2,,,62,127
119855,note_off,109,0,0,,2,,,62,127
119856,note_on,1,0,0,,0,,,84,127
120074,note_off,218,0,0,,0,,,84,127
120074,note_off,0,0,0,,2,,,50,127
120074,note_off,0,0,0,,2,,,38,127
120075,note_on,1,0,0,,12,,,83,127
120075,note_on,0,0,0,,7,,,43,127
120075,note_on,0,0,0,,7,,,55,127
120184,note_off,109,0,0,,12,,,83,127
120185,note_on,1,0,0,,10,,,81,127
120294,note_off,109,0,0,,10,,,81,127
120294,note_off,0,0,0,,7,,,55,127
120294,note_off,0,0,0,,7,,,43,127
120295,note_on,1,0,0,,7,,,79,127
120295,note_on,0,0,0,,10,,,45,127
120295,note_on,0,0,0,,10,,,57,127
120404,note_off,109,0,0,,7,,,79,127
120405,note_on,1,0,0,,6,,,78,127
120514,note_off,109,0,0,,6,,,78,127
120514,note_off,0,0,0,,10,,,57,127
120514,note_off,0,0,0,,10,,,45,127
120515,note_on,1,0,0,,7,,,79,127
120515,note_on,0,0,0,,12,,,59,127
120515,note_on,0,0,0,,12,,,47,127
120624,note_off,109,0,0,,7,,,79,127
120625,note_on,1,0,0,,2,,,74,127
120734,note_off,109,0,0,,2,,,74,127
120734,note_off,0,0,0,,12,,,47,127
120734,note_off,0,0,0,,12,,,59,127
120735,note_on,1,0,0,,4,,,76,127
120735,note_on,0,0,0,,0,,,48,127
120844,note_off,109,0,0,,4,,,76,127
120845,note_on,1,0,0,,0,,,72,127
120954,note_off,109,0,0,,0,,,72,127
120954,note_off,0,0,0,,0,,,48,127
120955,note_on,1,0,0,,12,,,71,127
120955,note_on,0,0,0,,2,,,50,127
121064,note_off,109,0,0,,12,,,71,127
121065,note_on,1,0,0,,10,,,69,127
121174,note_off,109,0,0,,10,,,69,127
121175,note_on,1,0,0,,7,,,67,127
121175,note_on,0,0,0,,2,,,38,127
121284,note_off,109,0,0,,7,,,67,127
121285,note_on,1,0,0,,6,,,66,127
121390,note_off,105,0,0,,2,,,50,127
121393,note_off,3,0,0,,6,,,66,127
121393,note_off,0,0,0,,2,,,38,127
121394,note_on,1,0,0,,7,,,67,127
121394,note_on,0,0,0,,7,,,43,127
121503,note_off,109,0,0,,7,,,67,127
121511,note_on,8,0,0,,2,,,62,127
121613,note_off,102,0,0,,7,,,43,127
121620,note_off,7,0,0,,2,,,62,127
121628,note_on,8,0,0,,2,,,74,127
121628,note_on,0,0,0,,12,,,83,127
121737,note_off,109,0,0,,2,,,74,127
121738,note_on,1,0,0,,12,,,71,127
121847,note_off,109,0,0,,12,,,71,127
121847,note_off,0,0,0,,12,,,83,127
121848,note_on,1,0,0,,12,,,71,127
121848,note_on,0,0,0,,7,,,79,127
121957,note_off,109,0,0,,12,,,71,127
121958,note_on,1,0,0,,7,,,67,127
122067,note_off,109,0,0,,7,,,67,127
122067,note_off,0,0,0,,7,,,79,127
122068,note_on,1,0,0,,10,,,69,127
122068,note_on,0,0,0,,2,,,38,127
122177,note_off,109,0,0,,10,,,69,127
122178,note_on,1,0,0,,2,,,62,127
122287,note_off,109,0,0,,2,,,62,127
122288,note_on,1,0,0,,7,,,67,127
122397,note_off,109,0,0,,7,,,67,127
122398,note_on,1,0,0,,2,,,62,127
122507,note_off,109,0,0,,2,,,62,127
122508,note_on,1,0,0,,6,,,66,127
122617,note_off,109,0,0,,6,,,66,127
122618,note_on,1,0,0,,2,,,62,127
122727,note_off,109,0,0,,2,,,62,127
122728,note_on,1,0,0,,10,,,69,127
122837,note_off,109,0,0,,10,,,69,127
122845,note_on,8,0,0,,2,,,62,127
122947,note_off,102,0,0,,2,,,38,127
122954,note_off,7,0,0,,2,,,62,127
122962,note_on,8,0,0,,0,,,72,127
122962,note_on,0,0,0,,10,,,81,127
123071,note_off,109,0,0,,0,,,72,127
123072,note_on,1,0,0,,2,,,62,127
123181,note_off,109,0,0,,2,,,62,127
123181,note_off,0,0,0,,10,,,81,127
123182,note_on,1,0,0,,10,,,69,127
123182,note_on,0,0,0,,6,,,78,127
123291,note_off,109,0,0,,10,,,69,127
123292,note_on,1,0,0,,2,,,62,127
123401,note_off,109,0,0,,2,,,62,127
123401,note_off,0,0,0,,6,,,78,127
123402,note_on,1,0,0,,12,,,71,127
123402,note_on,0,0,0,,7,,,43,127
123511,note_off,109,0,0,,12,,,71,127
123512,note_on,1,0,0,,2,,,62,127
123621,note_off,109,0,0,,2,,,62,127
123622,note_on,1,0,0,,10,,,69,127
123731,note_off,109,0,0,,10,,,69,127
123732,note_on,1,0,0,,2,,,62,127
123841,note_off,109,0,0,,2,,,62,127
123842,note_on,1,0,0,,7,,,67,127
123951,note_off,109,0,0,,7,,,67,127
123952,note_on,1,0,0,,2,,,62,127
124061,note_off,109,0,0,,2,,,62,127
124062,note_on,1,0,0,,12,,,71,127
124171,note_off,109,0,0,,12,,,71,127
124179,note_on,8,0,0,,2,,,62,127
124281,note_off,102,0,0,,7,,,43,127
124288,note_off,7,0,0,,2,,,62,127
124296,note_on,8,0,0,,2,,,74,127
124296,note_on,0,0,0,,12,,,83,127
124405,note_off,109,0,0,,2,,,74,127
124406,note_on,1,0,0,,2,,,62,127
124515,note_off,109,0,0,,2,,,62,127
124515,note_off,0,0,0,,12,,,83,127
124516,note_on,1,0,0,,12,,,71,127
124516,note_on,0,0,0,,7,,,79,127
124625,note_off,109,0,0,,12,,,71,127
124626,note_on,1,0,0,,2,,,62,127
124735,note_off,109,0,0,,2,,,62,127
124735,note_off,0,0,0,,7,,,79,127
124736,note_on,1,0,0,,10,,,69,127
124736,note_on,0,0,0,,2,,,38,127
124845,note_off,109,0,0,,10,,,69,127
124846,note_on,1,0,0,,2,,,62,127
124955,note_off,109,0,0,,2,,,62,127
124956,note_on,1,0,0,,7,,,67,127
125065,note_off,109,0,0,,7,,,67,127
125066,note_on,1,0,0,,2,,,62,127
125175,note_off,109,0,0,,2,,,62,127
125176,note_on,1,0,0,,6,,,66,127
125285,note_off,109,0,0,,6,,,66,127
125286,note_on,1,0,0,,2,,,62,127
125395,note_off,109,0,0,,2,,,62,127
125396,note_on,1,0,0,,10,,,69,127
125505,note_off,109,0,0,,10,,,69,127
125511,note_on,6,0,0,,2,,,62,127
125615,note_off,104,0,0,,2,,,38,127
125620,note_off,5,0,0,,2,,,62,127
125623,note_on,3,0,0,,10,,,81,127
125623,note_on,0,0,0,,0,,,72,127
125732,note_off,109,0,0,,0,,,72,127
125733,note_on,1,0,0,,2,,,62,127
125842,note_off,109,0,0,,2,,,62,127
125842,note_off,0,0,0,,10,,,81,127
125843,note_on,1,0,0,,6,,,78,127
125843,note_on,0,0,0,,10,,,69,127
125950,note_off,107,0,0,,10,,,69,127
125953,note_on,3,0,0,,2,,,62,127
126060,note_off,107,0,0,,2,,,62,127
126060,note_off,0,0,0,,6,,,78,127
126063,note_on,3,0,0,,7,,,43,127
126063,note_on,0,0,0,,12,,,71,127
126172,note_off,109,0,0,,12,,,71,127
126173,note_on,1,0,0,,2,,,62,127
126282,note_off,109,0,0,,2,,,62,127
126282,note_off,0,0,0,,7,,,43,127
126283,note_on,1,0,0,,12,,,83,127
126283,note_on,0,0,0,,2,,,74,127
126392,note_off,109,0,0,,2,,,74,127
126393,note_on,1,0,0,,2,,,62,127
126502,note_off,109,0,0,,2,,,62,127
126502,note_off,0,0,0,,12,,,83,127
126503,note_on,1,0,0,,7,,,79,127
126503,note_on,0,0,0,,12,,,71,127
126612,note_off,109,0,0,,12,,,71,127
126613,note_on,1,0,0,,2,,,62,127
126722,note_off,109,0,0,,2,,,62,127
126722,note_off,0,0,0,,7,,,79,127
126723,note_on,1,0,0,,2,,,38,127
126723,note_on,0,0,0,,10,,,69,127
126832,note_off,109,0,0,,10,,,69,127
126833,note_on,1,0,0,,2,,,62,127
126942,note_off,109,0,0,,2,,,62,127
126942,note_off,0,0,0,,2,,,38,127
126943,note_on,1,0,0,,10,,,81,127
126943,note_on,0,0,0,,0,,,72,127
127052,note_off,109,0,0,,0,,,72,127
127053,note_on,1,0,0,,2,,,62,127
127162,note_off,109,0,0,,2,,,62,127
127162,note_off,0,0,0,,10,,,81,127
127163,note_on,1,0,0,,6,,,78,127
127163,note_on,0,0,0,,10,,,69,127
127272,note_off,109,0,0,,10,,,69,127
127273,note_on,1,0,0,,2,,,62,127
127371,note_off,98,0,0,,2,,,62,127
127382,note_off,11,0,0,,6,,,78,127
127383,note_on,1,0,0,,7,,,43,127
127383,note_on,0,0,0,,12,,,71,127
127492,note_off,109,0,0,,12,,,71,127
127493,note_on,1,0,0,,2,,,62,127
127597,note_off,104,0,0,,2,,,62,127
127602,note_off,5,0,0,,7,,,43,127
127603,note_on,1,0,0,,12,,,83,127
127603,note_on,0,0,0,,2,,,74,127
127712,note_off,109,0,0,,2,,,74,127
127713,note_on,1,0,0,,2,,,62,127
127822,note_off,109,0,0,,2,,,62,127
127822,note_off,0,0,0,,12,,,83,127
127823,note_on,1,0,0,,7,,,79,127
127823,note_on,0,0,0,,12,,,71,127
127932,note_off,109,0,0,,12,,,71,127
127933,note_on,1,0,0,,2,,,62,127
128042,note_off,109,0,0,,2,,,62,127
128042,note_off,0,0,0,,7,,,79,127
128043,note_on,1,0,0,,2,,,38,127
128043,note_on,0,0,0,,10,,,69,127
128152,note_off,109,0,0,,10,,,69,127
128153,note_on,1,0,0,,2,,,62,127
128262,note_off,109,0,0,,2,,,62,127
128262,note_off,0,0,0,,2,,,38,127
128263,note_on,1,0,0,,10,,,81,127
128263,note_on,0,0,0,,0,,,72,127
128372,note_off,109,0,0,,0,,,72,127
128373,note_on,1,0,0,,2,,,62,127
128482,note_off,109,0,0,,2,,,62,127
128482,note_off,0,0,0,,10,,,81,127
128483,note_on,1,0,0,,6,,,78,127
128483,note_on,0,0,0,,10,,,69,127
128592,note_off,109,0,0,,10,,,69,127
128593,note_on,1,0,0,,2,,,62,127
128692,note_off,99,0,0,,2,,,62,127
128698,note_on,6,0,0,,12,,,71,127
128698,note_on,0,0,0,,7,,,43,127
128701,note_off,3,0,0,,6,,,78,127
128819,note_on,118,0,0,,10,,,69,127
128825,note_off,6,0,0,,12,,,71,127
128928,note_off,103,0,0,,10,,,69,127
128929,note_on,1,0,0,,7,,,67,127
128929,note_on,0,0,0,,10,,,45,127
128931,note_off,2,0,0,,7,,,43,127
129037,note_off,106,0,0,,7,,,67,127
129038,note_on,1,0,0,,6,,,66,127
129147,note_off,109,0,0,,6,,,66,127
129147,note_off,0,0,0,,10,,,45,127
129148,note_on,1,0,0,,7,,,67,127
129148,note_on,0,0,0,,12,,,47,127
129257,note_off,109,0,0,,7,,,67,127
129258,note_on,1,0,0,,2,,,62,127
129367,note_off,109,0,0,,2,,,62,127
129367,note_off,0,0,0,,12,,,47,127
129368,note_on,1,0,0,,4,,,64,127
129368,note_on,0,0,0,,0,,,48,127
129477,note_off,109,0,0,,4,,,64,127
129478,note_on,1,0,0,,0,,,60,127
129587,note_off,109,0,0,,0,,,60,127
129587,note_off,0,0,0,,0,,,48,127
129588,note_on,1,0,0,,12,,,59,127
129588,note_on,0,0,0,,2,,,50,127
129697,note_off,109,0,0,,12,,,59,127
129698,note_on,1,0,0,,10,,,57,127
129807,note_off,109,0,0,,10,,,57,127
129807,note_off,0,0,0,,2,,,50,127
129808,note_on,1,0,0,,7,,,55,127
129808,note_on,0,0,0,,2,,,38,127
129917,note_off,109,0,0,,7,,,55,127
129918,note_on,1,0,0,,6,,,54,127
130027,note_off,109,0,0,,6,,,54,127
130027,note_off,0,0,0,,2,,,38,127
130028,note_on,1,0,0,,7,,,55,127
130156,note_on,128,0,0,,7,,,79,127
130246,note_off,90,0,0,,7,,,55,127
130264,note_off,18,0,0,,7,,,79,127
130265,note_on,1,0,0,,2,,,62,127
130265,note_on,0,0,0,,12,,,59,127
130265,note_on,0,0,0,,7,,,79,127
130374,note_off,109,0,0,,7,,,79,127
130375,note_on,1,0,0,,6,,,78,127
130484,note_off,109,0,0,,6,,,78,127
130484,note_off,0,0,0,,12,,,59,127
130484,note_off,0,0,0,,2,,,62,127
130485,note_on,1,0,0,,7,,,67,127
130485,note_on,0,0,0,,7,,,55,127
130485,note_on,0,0,0,,6,,,78,127
130594,note_off,109,0,0,,6,,,78,127
130595,note_on,1,0,0,,4,,,76,127
130704,note_off,109,0,0,,4,,,76,127
130704,note_off,0,0,0,,7,,,55,127
130704,note_off,0,0,0,,7,,,67,127
130705,note_on,1,0,0,,0,,,60,127
130705,note_on,0,0,0,,4,,,64,127
130705,note_on,0,0,0,,4,,,76,127
130814,note_off,109,0,0,,4,,,76,127
130815,note_on,1,0,0,,2,,,74,127
130924,note_off,109,0,0,,2,,,74,127
130924,note_off,0,0,0,,0,,,60,127
130925,note_on,1,0,0,,12,,,59,127
130925,note_on,0,0,0,,2,,,74,127
131034,note_off,109,0,0,,2,,,74,127
131035,note_on,1,0,0,,0,,,72,127
131144,note_off,109,0,0,,0,,,72,127
131144,note_off,0,0,0,,12,,,59,127
131144,note_off,0,0,0,,4,,,64,127
131145,note_on,1,0,0,,10,,,57,127
131145,note_on,0,0,0,,6,,,66,127
131145,note_on,0,0,0,,0,,,72,127
131254,note_off,109,0,0,,0,,,72,127
131255,note_on,1,0,0,,12,,,71,127
131364,note_off,109,0,0,,12,,,71,127
131364,note_off,0,0,0,,6,,,66,127
131364,note_off,0,0,0,,10,,,57,127
131365,note_on,1,0,0,,7,,,67,127
131365,note_on,0,0,0,,7,,,55,127
131365,note_on,0,0,0,,12,,,71,127
131474,note_off,109,0,0,,12,,,71,127
131493,note_on,19,0,0,,12,,,83,127
131583,note_off,90,0,0,,7,,,55,127
131583,note_off,0,0,0,,7,,,67,127
131601,note_off,18,0,0,,12,,,83,127
131602,note_on,1,0,0,,12,,,83,127
131602,note_on,0,0,0,,7,,,67,127
131711,note_off,109,0,0,,12,,,83,127
131712,note_on,1,0,0,,10,,,81,127
131821,note_off,109,0,0,,10,,,81,127
131821,note_off,0,0,0,,7,,,67,127
131822,note_on,1,0,0,,10,,,81,127
131822,note_on,0,0,0,,6,,,66,127
131931,note_off,109,0,0,,10,,,81,127
131932,note_on,1,0,0,,7,,,79,127
132041,note_off,109,0,0,,7,,,79,127
132041,note_off,0,0,0,,6,,,66,127
132042,note_on,1,0,0,,7,,,79,127
132042,note_on,0,0,0,,4,,,64,127
132151,note_off,109,0,0,,7,,,79,127
132152,note_on,1,0,0,,6,,,78,127
132261,note_off,109,0,0,,6,,,78,127
132261,note_off,0,0,0,,4,,,64,127
132262,note_on,1,0,0,,6,,,78,127
132262,note_on,0,0,0,,2,,,62,127
132371,note_off,109,0,0,,6,,,78,127
132372,note_on,1,0,0,,4,,,76,127
132481,note_off,109,0,0,,4,,,76,127
132481,note_off,0,0,0,,2,,,62,127
132482,note_on,1,0,0,,4,,,76,127
132482,note_on,0,0,0,,0,,,60,127
132591,note_off,109,0,0,,4,,,76,127
132592,note_on,1,0,0,,2,,,74,127
132701,note_off,109,0,0,,2,,,74,127
132701,note_off,0,0,0,,0,,,60,127
132702,note_on,1,0,0,,2,,,74,127
132702,note_on,0,0,0,,12,,,59,127
132811,note_off,109,0,0,,2,,,74,127
132830,note_on,19,0,0,,2,,,86,127
132939,note_off,109,0,0,,2,,,86,127
132940,note_on,1,0,0,,7,,,67,127
132940,note_on,0,0,0,,2,,,86,127
133049,note_off,109,0,0,,2,,,86,127
133050,note_on,1,0,0,,0,,,84,127
133140,note_off,90,0,0,,12,,,59,127
133158,note_off,18,0,0,,0,,,84,127
133158,note_off,0,0,0,,7,,,67,127
133159,note_on,1,0,0,,10,,,57,127
133159,note_on,0,0,0,,6,,,66,127
133159,note_on,0,0,0,,0,,,84,127
133268,note_off,109,0,0,,0,,,84,127
133269,note_on,1,0,0,,12,,,83,127
133378,note_off,109,0,0,,12,,,83,127
133378,note_off,0,0,0,,6,,,66,127
133378,note_off,0,0,0,,10,,,57,127
133379,note_on,1,0,0,,7,,,67,127
133379,note_on,0,0,0,,7,,,55,127
133379,note_on,0,0,0,,12,,,83,127
133488,note_off,109,0,0,,12,,,83,127
133489,note_on,1,0,0,,10,,,81,127
133598,note_off,109,0,0,,10,,,81,127
133598,note_off,0,0,0,,7,,,55,127
133598,note_off,0,0,0,,7,,,67,127
133599,note_on,1,0,0,,6,,,66,127
133599,note_on,0,0,0,,10,,,81,127
133708,note_off,109,0,0,,10,,,81,127
133709,note_on,1,0,0,,7,,,79,127
133818,note_off,109,0,0,,7,,,79,127
133818,note_off,0,0,0,,6,,,66,127
133819,note_on,1,0,0,,7,,,67,127
133819,note_on,0,0,0,,4,,,64,127
133819,note_on,0,0,0,,7,,,79,127
133928,note_off,109,0,0,,7,,,79,127
133929,note_on,1,0,0,,6,,,78,127
134038,note_off,109,0,0,,6,,,78,127
134038,note_off,0,0,0,,4,,,64,127
134038,note_off,0,0,0,,7,,,67,127
134039,note_on,1,0,0,,6,,,66,127
134039,note_on,0,0,0,,2,,,62,127
134039,note_on,0,0,0,,6,,,78,127
134148,note_off,109,0,0,,6,,,78,127
134149,note_on,1,0,0,,4,,,76,127
134258,note_off,109,0,0,,4,,,76,127
134258,note_off,0,0,0,,2,,,62,127
134258,note_off,0,0,0,,6,,,66,127
134259,note_on,1,0,0,,4,,,64,127
134259,note_on,0,0,0,,0,,,60,127
134259,note_on,0,0,0,,4,,,76,127
134368,note_off,109,0,0,,4,,,76,127
134369,note_on,1,0,0,,2,,,74,127
134478,note_off,109,0,0,,2,,,74,127
134478,note_off,0,0,0,,0,,,60,127
134478,note_off,0,0,0,,4,,,64,127
134479,note_on,1,0,0,,12,,,59,127
134479,note_on,0,0,0,,2,,,62,127
134479,note_on,0,0,0,,2,,,74,127
134588,note_off,109,0,0,,2,,,74,127
134589,note_on,1,0,0,,0,,,72,127
134698,note_off,109,0,0,,0,,,72,127
134698,note_off,0,0,0,,2,,,62,127
134698,note_off,0,0,0,,12,,,59,127
134699,note_on,1,0,0,,10,,,57,127
134699,note_on,0,0,0,,0,,,60,127
134699,note_on,0,0,0,,0,,,72,127
134808,note_off,109,0,0,,0,,,72,127
134809,note_on,1,0,0,,12,,,71,127
134918,note_off,109,0,0,,12,,,71,127
134918,note_off,0,0,0,,0,,,60,127
134918,note_off,0,0,0,,10,,,57,127
134919,note_on,1,0,0,,7,,,55,127
134919,note_on,0,0,0,,2,,,62,127
134919,note_on,0,0,0,,12,,,71,127
135028,note_off,109,0,0,,12,,,71,127
135029,note_on,1,0,0,,10,,,69,127
135138,note_off,109,0,0,,10,,,69,127
135138,note_off,0,0,0,,7,,,55,127
135139,note_on,1,0,0,,6,,,54,127
135139,note_on,0,0,0,,10,,,69,127
135248,note_off,109,0,0,,10,,,69,127
135249,note_on,1,0,0,,12,,,71,127
135358,note_off,109,0,0,,12,,,71,127
135358,note_off,0,0,0,,6,,,54,127
135358,note_off,0,0,0,,2,,,62,127
135359,note_on,1,0,0,,7,,,55,127
135359,note_on,0,0,0,,2,,,62,127
135359,note_on,0,0,0,,12,,,71,127
135468,note_off,109,0,0,,12,,,71,127
135469,note_on,1,0,0,,10,,,69,127
135578,note_off,109,0,0,,10,,,69,127
135578,note_off,0,0,0,,7,,,55,127
135579,note_on,1,0,0,,10,,,57,127
135579,note_on,0,0,0,,12,,,71,127
135688,note_off,109,0,0,,12,,,71,127
135689,note_on,1,0,0,,0,,,72,127
135798,note_off,109,0,0,,0,,,72,127
135798,note_off,0,0,0,,10,,,57,127
135799,note_on,1,0,0,,12,,,59,127
135799,note_on,0,0,0,,2,,,74,127
135908,note_off,109,0,0,,2,,,74,127
135909,note_on,1,0,0,,12,,,71,127
136018,note_off,109,0,0,,12,,,71,127
136018,note_off,0,0,0,,12,,,59,127
136018,note_off,0,0,0,,2,,,62,127
136019,note_on,1,0,0,,0,,,60,127
136019,note_on,0,0,0,,4,,,76,127
136128,note_off,109,0,0,,4,,,76,127
136129,note_on,1,0,0,,0,,,72,127
136238,note_off,109,0,0,,0,,,72,127
136238,note_off,0,0,0,,0,,,60,127
136239,note_on,1,0,0,,2,,,62,127
136239,note_on,0,0,0,,12,,,71,127
136348,note_off,109,0,0,,12,,,71,127
136349,note_on,1,0,0,,10,,,69,127
136458,note_off,109,0,0,,10,,,69,127
136459,note_on,1,0,0,,2,,,50,127
136459,note_on,0,0,0,,7,,,67,127
136568,note_off,109,0,0,,7,,,67,127
136569,note_off,1,0,0,,2,,,62,127
136569,note_on,0,0,0,,6,,,66,127
136678,note_off,109,0,0,,6,,,66,127
136678,note_off,0,0,0,,2,,,50,127
136679,note_on,1,0,0,,7,,,43,127
136679,note_on,0,0,0,,7,,,67,127
136788,note_off,109,0,0,,7,,,67,127
136807,note_on,19,0,0,,2,,,62,127
136897,note_off,90,0,0,,7,,,43,127
136915,note_off,18,0,0,,2,,,62,127
136916,note_on,1,0,0,,10,,,69,127
136916,note_on,0,0,0,,6,,,66,127
136916,note_on,0,0,0,,6,,,78,127
137025,note_off,109,0,0,,6,,,66,127
137026,note_on,1,0,0,,2,,,62,127
137135,note_off,109,0,0,,2,,,62,127
137135,note_off,0,0,0,,6,,,78,127
137135,note_off,0,0,0,,10,,,69,127
137136,note_on,1,0,0,,12,,,71,127
137136,note_on,0,0,0,,7,,,67,127
137136,note_on,0,0,0,,7,,,79,127
137245,note_off,109,0,0,,7,,,67,127
137246,note_on,1,0,0,,2,,,62,127
137355,note_off,109,0,0,,2,,,62,127
137355,note_off,0,0,0,,7,,,79,127
137355,note_off,0,0,0,,12,,,71,127
137356,note_on,1,0,0,,4,,,76,127
137356,note_on,0,0,0,,0,,,72,127
137356,note_on,0,0,0,,0,,,48,127
137465,note_off,109,0,0,,0,,,72,127
137466,note_on,1,0,0,,2,,,62,127
137575,note_off,109,0,0,,2,,,62,127
137575,note_off,0,0,0,,0,,,48,127
137575,note_off,0,0,0,,4,,,76,127
137576,note_on,1,0,0,,2,,,74,127
137576,note_on,0,0,0,,12,,,71,127
137576,note_on,0,0,0,,2,,,50,127
137685,note_off,109,0,0,,12,,,71,127
137686,note_on,1,0,0,,2,,,62,127
137795,note_off,109,0,0,,2,,,62,127
137795,note_off,0,0,0,,2,,,74,127
137796,note_on,1,0,0,,0,,,72,127
137796,note_on,0,0,0,,10,,,69,127
137905,note_off,109,0,0,,10,,,69,127
137906,note_on,1,0,0,,2,,,62,127
138015,note_off,109,0,0,,2,,,62,127
138015,note_off,0,0,0,,0,,,72,127
138015,note_off,0,0,0,,2,,,50,127
138016,note_on,1,0,0,,12,,,71,127
138016,note_on,0,0,0,,7,,,67,127
138016,note_on,0,0,0,,7,,,43,127
138125,note_off,109,0,0,,7,,,67,127
138131,note_on,6,0,0,,2,,,62,127
138235,note_off,104,0,0,,7,,,43,127
138235,note_off,0,0,0,,12,,,71,127
138240,note_off,5,0,0,,2,,,62,127
138241,note_on,1,0,0,,6,,,78,127
138241,note_on,0,0,0,,6,,,66,127
138241,note_on,0,0,0,,10,,,69,127
138350,note_off,109,0,0,,6,,,66,127
138351,note_on,1,0,0,,2,,,62,127
138460,note_off,109,0,0,,2,,,62,127
138460,note_off,0,0,0,,10,,,69,127
138460,note_off,0,0,0,,6,,,78,127
138461,note_on,1,0,0,,7,,,79,127
138461,note_on,0,0,0,,7,,,67,127
138461,note_on,0,0,0,,12,,,71,127
138570,note_off,109,0,0,,7,,,67,127
138571,note_on,1,0,0,,2,,,62,127
138680,note_off,109,0,0,,2,,,62,127
138680,note_off,0,0,0,,12,,,71,127
138680,note_off,0,0,0,,7,,,79,127
138681,note_on,1,0,0,,0,,,48,127
138681,note_on,0,0,0,,0,,,72,127
138681,note_on,0,0,0,,4,,,76,127
138790,note_off,109,0,0,,0,,,72,127
138791,note_on,1,0,0,,2,,,62,127
138900,note_off,109,0,0,,2,,,62,127
138900,note_off,0,0,0,,4,,,76,127
138900,note_off,0,0,0,,0,,,48,127
138901,note_on,1,0,0,,2,,,50,127
138901,note_on,0,0,0,,12,,,71,127
138901,note_on,0,0,0,,2,,,74,127
139010,note_off,109,0,0,,12,,,71,127
139011,note_on,1,0,0,,2,,,62,127
139120,note_off,109,0,0,,2,,,62,127
139120,note_off,0,0,0,,2,,,74,127
139121,note_on,1,0,0,,0,,,72,127
139121,note_on,0,0,0,,10,,,69,127
139230,note_off,109,0,0,,10,,,69,127
139231,note_on,1,0,0,,2,,,62,127
139340,note_off,109,0,0,,2,,,62,127
139340,note_off,0,0,0,,0,,,72,127
139340,note_off,0,0,0,,2,,,50,127
139341,note_on,1,0,0,,7,,,43,127
139341,note_on,0,0,0,,7,,,67,127
139341,note_on,0,0,0,,12,,,71,127
139450,note_off,109,0,0,,7,,,67,127
139460,note_on,10,0,0,,2,,,62,127
139559,note_off,99,0,0,,12,,,71,127
139559,note_off,0,0,0,,7,,,43,127
139568,note_off,9,0,0,,2,,,62,127
139569,note_on,1,0,0,,6,,,66,127
139569,note_on,0,0,0,,10,,,69,127
139569,note_on,0,0,0,,6,,,78,127
139678,note_off,109,0,0,,6,,,66,127
139679,note_on,1,0,0,,2,,,62,127
139788,note_off,109,0,0,,2,,,62,127
139788,note_off,0,0,0,,6,,,78,127
139788,note_off,0,0,0,,10,,,69,127
139789,note_on,1,0,0,,12,,,71,127
139789,note_on,0,0,0,,7,,,67,127
139789,note_on,0,0,0,,7,,,79,127
139898,note_off,109,0,0,,7,,,67,127
139899,note_on,1,0,0,,2,,,62,127
140008,note_off,109,0,0,,2,,,62,127
140008,note_off,0,0,0,,7,,,79,127
140008,note_off,0,0,0,,12,,,71,127
140009,note_on,1,0,0,,0,,,72,127
140009,note_on,0,0,0,,4,,,76,127
140009,note_on,0,0,0,,0,,,48,127
140118,note_off,109,0,0,,0,,,72,127
140119,note_on,1,0,0,,2,,,62,127
140228,note_off,109,0,0,,2,,,62,127
140228,note_off,0,0,0,,0,,,48,127
140228,note_off,0,0,0,,4,,,76,127
140229,note_on,1,0,0,,2,,,74,127
140229,note_on,0,0,0,,12,,,71,127
140229,note_on,0,0,0,,2,,,50,127
140338,note_off,109,0,0,,12,,,71,127
140339,note_on,1,0,0,,2,,,62,127
140448,note_off,109,0,0,,2,,,62,127
140448,note_off,0,0,0,,2,,,74,127
140449,note_on,1,0,0,,0,,,72,127
140449,note_on,0,0,0,,10,,,69,127
140558,note_off,109,0,0,,10,,,69,127
140559,note_on,1,0,0,,2,,,62,127
140668,note_off,109,0,0,,2,,,62,127
140668,note_off,0,0,0,,0,,,72,127
140668,note_off,0,0,0,,2,,,50,127
140669,note_on,1,0,0,,12,,,71,127
140669,note_on,0,0,0,,7,,,43,127
140669,note_on,0,0,0,,7,,,55,127
140778,note_off,109,0,0,,12,,,71,127
140779,note_on,1,0,0,,10,,,69,127
140888,note_off,109,0,0,,10,,,69,127
140888,note_off,0,0,0,,7,,,55,127
140888,note_off,0,0,0,,7,,,43,127
140889,note_on,1,0,0,,12,,,71,127
140889,note_on,0,0,0,,10,,,57,127
140889,note_on,0,0,0,,10,,,45,127
140998,note_off,109,0,0,,12,,,71,127
140999,note_on,1,0,0,,0,,,72,127
141108,note_off,109,0,0,,0,,,72,127
141108,note_off,0,0,0,,10,,,45,127
141108,note_off,0,0,0,,10,,,57,127
141109,note_on,1,0,0,,2,,,74,127
141109,note_on,0,0,0,,12,,,59,127
141109,note_on,0,0,0,,12,,,47,127
141218,note_off,109,0,0,,2,,,74,127
141219,note_on,1,0,0,,12,,,71,127
141328,note_off,109,0,0,,12,,,71,127
141328,note_off,0,0,0,,12,,,47,127
141328,note_off,0,0,0,,12,,,59,127
141329,note_on,1,0,0,,4,,,76,127
141329,note_on,0,0,0,,0,,,60,127
141329,note_on,0,0,0,,0,,,48,127
141438,note_off,109,0,0,,4,,,76,127
141439,note_on,1,0,0,,0,,,72,127
141548,note_off,109,0,0,,0,,,72,127
141548,note_off,0,0,0,,0,,,48,127
141548,note_off,0,0,0,,0,,,60,127
141549,note_on,1,0,0,,12,,,71,127
141549,note_on,0,0,0,,2,,,50,127
141549,note_on,0,0,0,,2,,,62,127
141658,note_off,109,0,0,,12,,,71,127
141659,note_on,1,0,0,,10,,,69,127
141768,note_off,109,0,0,,10,,,69,127
141768,note_off,0,0,0,,2,,,62,127
141769,note_on,1,0,0,,7,,,67,127
141769,note_on,0,0,0,,2,,,38,127
141878,note_off,109,0,0,,7,,,67,127
141879,note_on,1,0,0,,6,,,66,127
141984,note_off,105,0,0,,2,,,50,127
141987,note_off,3,0,0,,6,,,66,127
141987,note_off,0,0,0,,2,,,38,127
141988,note_on,1,0,0,,7,,,67,127
141988,note_on,0,0,0,,7,,,43,127
142097,note_off,109,0,0,,7,,,67,127
142103,note_on,6,0,0,,6,,,66,127
142207,note_off,104,0,0,,7,,,43,127
142212,note_off,5,0,0,,6,,,66,127
142213,note_on,1,0,0,,10,,,45,127
142213,note_on,0,0,0,,4,,,64,127
142322,note_off,109,0,0,,4,,,64,127
142323,note_on,1,0,0,,2,,,62,127
142432,note_off,109,0,0,,2,,,62,127
142432,note_off,0,0,0,,10,,,45,127
142433,note_on,1,0,0,,12,,,47,127
142433,note_on,0,0,0,,0,,,60,127
142542,note_off,109,0,0,,0,,,60,127
142543,note_on,1,0,0,,12,,,59,127
142652,note_off,109,0,0,,12,,,59,127
142652,note_off,0,0,0,,12,,,47,127
142653,note_on,1,0,0,,0,,,48,127
142653,note_on,0,0,0,,10,,,57,127
142762,note_off,109,0,0,,10,,,57,127
142763,note_on,1,0,0,,12,,,59,127
142817,note_off,54,0,0,,12,,,59,127
142818,note_on,1,0,0,,0,,,60,127
142872,note_off,54,0,0,,0,,,60,127
142872,note_off,0,0,0,,0,,,48,127
142873,note_on,1,0,0,,2,,,50,127
142873,note_on,0,0,0,,12,,,59,127
142982,note_off,109,0,0,,12,,,59,127
142983,note_on,1,0,0,,10,,,57,127
143092,note_off,109,0,0,,10,,,57,127
143093,note_on,1,0,0,,2,,,38,127
143093,note_on,0,0,0,,7,,,55,127
143202,note_off,109,0,0,,7,,,55,127
143210,note_on,8,0,0,,6,,,54,127
143308,note_off,98,0,0,,2,,,50,127
143324,note_off,16,0,0,,2,,,38,127
143332,note_off,8,0,0,,6,,,54,127
143348,note_on,16,0,0,,7,,,43,127
143348,note_on,0,0,0,,7,,,55,127
145089,note_off,1741,0,0,,7,,,55,127
145089,note_off,0,0,0,,7,,,43,127
150528,end_of_track,5439,1,0,,,,,,
