tick,type,time,meta,track,program,channel,pitch,tempo,note,velocity
0,copyright,0,1,0,,,,,,
0,program_change,0,0,0,6,0,,,,
0,pitchwheel,0,0,0,,0,0,,,
0,program_change,0,0,0,6,1,,,,
0,pitchwheel,0,0,0,,1,-590,,,
0,program_change,0,0,0,6,2,,,,
0,pitchwheel,0,0,0,,2,-272,,,
0,program_change,0,0,0,6,3,,,,
0,pitchwheel,0,0,0,,3,-353,,,
0,program_change,0,0,0,6,4,,,,
0,pitchwheel,0,0,0,,4,-560,,,
0,program_change,0,0,0,6,5,,,,
0,pitchwheel,0,0,0,,5,-80,,,
0,program_change,0,0,0,6,6,,,,
0,pitchwheel,0,0,0,,6,-625,,,
0,program_change,0,0,0,6,7,,,,
0,pitchwheel,0,0,0,,7,-130,,,
0,program_change,0,0,0,6,8,,,,
0,pitchwheel,0,0,0,,8,-512,,,
0,program_change,0,0,0,6,10,,,,
0,pitchwheel,0,0,0,,10,-464,,,
0,program_change,0,0,0,6,11,,,,
0,pitchwheel,0,0,0,,11,-208,,,
0,program_change,0,0,0,6,12,,,,
0,pitchwheel,0,0,0,,12,-553,,,
0,set_tempo,0,1,0,,,,500000,,
131,note_on,131,0,0,,7,,,67,127
393,note_off,262,0,0,,7,,,67,127
393,note_on,0,0,0,,0,,,72,127
655,note_off,262,0,0,,0,,,72,127
655,note_on,0,0,0,,4,,,76,127
917,note_off,262,0,0,,4,,,76,127
917,note_on,0,0,0,,2,,,50,127
917,note_on,0,0,0,,4,,,76,127
982,note_off,65,0,0,,4,,,76,127
982,note_on,0,0,0,,2,,,74,127
1047,note_off,65,0,0,,2,,,74,127
1047,note_on,0,0,0,,4,,,76,127
1112,note_off,65,0,0,,4,,,76,127
1112,note_on,0,0,0,,2,,,74,127
1177,note_off,65,0,0,,2,,,50,127
1177,note_on,0,0,0,,7,,,55,127
1439,note_off,262,0,0,,7,,,55,127
1439,note_off,0,0,0,,2,,,74,127
1439,note_on,0,0,0,,12,,,59,127
1439,note_on,0,0,0,,2,,,74,127
1701,note_off,262,0,0,,2,,,74,127
1701,note_off,0,0,0,,12,,,59,127
1701,note_on,0,0,0,,10,,,57,127
1701,note_on,0,0,0,,0,,,72,127
1832,note_off,131,0,0,,0,,,72,127
1832,note_on,0,0,0,,12,,,71,127
1963,note_off,131,0,0,,12,,,71,127
1963,note_on,0,0,0,,10,,,69,127
2094,note_off,131,0,0,,10,,,69,127
2094,note_on,0,0,0,,7,,,67,127
2225,note_off,131,0,0,,7,,,67,127
2225,note_off,0,0,0,,10,,,57,127
2225,note_on,0,0,0,,0,,,60,127
2225,note_on,0,0,0,,6,,,66,127
2356,note_off,131,0,0,,6,,,66,127
2356,note_on,0,0,0,,10,,,69,127
2487,note_off,131,0,0,,10,,,69,127
2487,note_off,0,0,0,,0,,,60,127
2487,note_on,0,0,0,,12,,,59,127
2487,note_on,0,0,0,,10,,,69,127
2552,note_off,65,0,0,,10,,,69,127
2552,note_on,0,0,0,,7,,,67,127
2617,note_off,65,0,0,,7,,,67,127
2617,note_off,0,0,0,,12,,,59,127
2617,note_on,0,0,0,,2,,,62,127
2617,note_on,0,0,0,,10,,,69,127
2682,note_off,65,0,0,,10,,,69,127
2682,note_on,0,0,0,,7,,,67,127
2747,note_off,65,0,0,,2,,,62,127
2747,note_on,0,0,0,,7,,,55,127
2878,note_off,131,0,0,,7,,,55,127
2878,note_on,0,0,0,,12,,,59,127
3009,note_off,131,0,0,,12,,,59,127
3009,note_off,0,0,0,,7,,,67,127
3009,note_on,0,0,0,,4,,,52,127
3009,note_on,0,0,0,,7,,,67,127
3140,note_off,131,0,0,,4,,,52,127
3140,note_on,0,0,0,,7,,,55,127
3205,note_off,65,0,0,,7,,,67,127
3270,note_off,65,0,0,,7,,,55,127
3270,note_on,0,0,0,,0,,,48,127
3270,note_on,0,0,0,,4,,,76,127
3335,note_off,65,0,0,,4,,,76,127
3335,note_on,0,0,0,,5,,,77,127
3400,note_off,65,0,0,,5,,,77,127
3400,note_on,0,0,0,,7,,,79,127
3531,note_off,131,0,0,,7,,,79,127
3531,note_off,0,0,0,,0,,,48,127
3531,note_on,0,0,0,,2,,,50,127
3531,note_on,0,0,0,,5,,,77,127
3662,note_off,131,0,0,,5,,,77,127
3662,note_on,0,0,0,,4,,,76,127
3793,note_off,131,0,0,,4,,,76,127
3793,note_off,0,0,0,,2,,,50,127
3793,note_on,0,0,0,,0,,,60,127
3793,note_on,0,0,0,,2,,,74,127
3924,note_off,131,0,0,,2,,,74,127
3924,note_on,0,0,0,,0,,,72,127
4055,note_off,131,0,0,,0,,,72,127
4055,note_off,0,0,0,,0,,,60,127
4055,note_on,0,0,0,,12,,,59,127
4055,note_on,0,0,0,,4,,,76,127
4120,note_off,65,0,0,,4,,,76,127
4120,note_on,0,0,0,,2,,,74,127
4185,note_off,65,0,0,,2,,,74,127
4185,note_off,0,0,0,,12,,,59,127
4185,note_on,0,0,0,,2,,,62,127
4185,note_on,0,0,0,,4,,,76,127
4250,note_off,65,0,0,,4,,,76,127
4250,note_on,0,0,0,,2,,,74,127
4315,note_off,65,0,0,,2,,,62,127
4315,note_on,0,0,0,,7,,,55,127
4446,note_off,131,0,0,,7,,,55,127
4446,note_on,0,0,0,,12,,,59,127
4577,note_off,131,0,0,,12,,,59,127
4577,note_off,0,0,0,,2,,,74,127
4577,note_on,0,0,0,,4,,,52,127
4577,note_on,0,0,0,,2,,,74,127
4708,note_off,131,0,0,,4,,,52,127
4708,note_on,0,0,0,,7,,,55,127
4795,note_off,87,0,0,,2,,,74,127
4839,note_off,44,0,0,,7,,,55,127
4839,note_on,0,0,0,,0,,,48,127
4839,note_on,0,0,0,,4,,,76,127
4904,note_off,65,0,0,,4,,,76,127
4904,note_on,0,0,0,,5,,,77,127
4969,note_off,65,0,0,,5,,,77,127
4969,note_on,0,0,0,,7,,,79,127
5100,note_off,131,0,0,,7,,,79,127
5100,note_off,0,0,0,,0,,,48,127
5100,note_on,0,0,0,,2,,,50,127
5100,note_on,0,0,0,,5,,,77,127
5231,note_off,131,0,0,,5,,,77,127
5231,note_on,0,0,0,,4,,,76,127
5362,note_off,131,0,0,,4,,,76,127
5362,note_off,0,0,0,,2,,,50,127
5362,note_on,0,0,0,,0,,,60,127
5362,note_on,0,0,0,,2,,,74,127
5493,note_off,131,0,0,,2,,,74,127
5493,note_on,0,0,0,,0,,,72,127
5624,note_off,131,0,0,,0,,,72,127
5624,note_off,0,0,0,,0,,,60,127
5624,note_on,0,0,0,,12,,,59,127
5624,note_on,0,0,0,,4,,,76,127
5689,note_off,65,0,0,,4,,,76,127
5689,note_on,0,0,0,,2,,,74,127
5754,note_off,65,0,0,,2,,,74,127
5754,note_off,0,0,0,,12,,,59,127
5754,note_on,0,0,0,,2,,,62,127
5754,note_on,0,0,0,,4,,,76,127
5819,note_off,65,0,0,,4,,,76,127
5819,note_on,0,0,0,,2,,,74,127
5884,note_off,65,0,0,,2,,,62,127
5884,note_on,0,0,0,,7,,,55,127
6015,note_off,131,0,0,,7,,,55,127
6015,note_on,0,0,0,,12,,,59,127
6146,note_off,131,0,0,,12,,,59,127
6146,note_off,0,0,0,,2,,,74,127
6146,note_on,0,0,0,,4,,,52,127
6146,note_on,0,0,0,,2,,,74,127
6277,note_off,131,0,0,,4,,,52,127
6277,note_on,0,0,0,,7,,,55,127
6364,note_off,87,0,0,,2,,,74,127
6408,note_off,44,0,0,,7,,,55,127
6408,note_on,0,0,0,,0,,,48,127
6408,note_on,0,0,0,,4,,,76,127
6473,note_off,65,0,0,,4,,,76,127
6473,note_on,0,0,0,,5,,,77,127
6538,note_off,65,0,0,,5,,,77,127
6538,note_on,0,0,0,,7,,,79,127
6669,note_off,131,0,0,,7,,,79,127
6669,note_off,0,0,0,,0,,,48,127
6669,note_on,0,0,0,,2,,,50,127
6669,note_on,0,0,0,,5,,,77,127
6800,note_off,131,0,0,,5,,,77,127
6800,note_on,0,0,0,,4,,,76,127
6931,note_off,131,0,0,,4,,,76,127
6931,note_off,0,0,0,,2,,,50,127
6931,note_on,0,0,0,,2,,,38,127
6931,note_on,0,0,0,,2,,,74,127
7062,note_off,131,0,0,,2,,,74,127
7062,note_on,0,0,0,,0,,,72,127
7193,note_off,131,0,0,,0,,,72,127
7193,note_on,0,0,0,,7,,,31,127
7193,note_on,0,0,0,,0,,,72,127
7258,note_off,65,0,0,,0,,,72,127
7258,note_on,0,0,0,,12,,,71,127
7323,note_off,65,0,0,,12,,,71,127
7323,note_off,0,0,0,,2,,,38,127
7323,note_on,0,0,0,,0,,,72,127
7388,note_off,65,0,0,,0,,,72,127
7388,note_on,0,0,0,,12,,,71,127
7453,note_off,65,0,0,,12,,,71,127
7453,note_on,0,0,0,,10,,,69,127
7584,note_off,131,0,0,,10,,,69,127
7584,note_on,0,0,0,,12,,,71,127
7715,note_off,131,0,0,,12,,,71,127
7715,note_on,0,0,0,,7,,,67,127
7977,note_off,262,0,0,,7,,,67,127
7977,note_off,0,0,0,,7,,,31,127
7977,note_on,0,0,0,,7,,,55,127
8108,note_on,131,0,0,,2,,,62,127
8239,note_off,131,0,0,,2,,,62,127
8239,note_off,0,0,0,,7,,,55,127
8239,note_on,0,0,0,,12,,,59,127
8239,note_on,0,0,0,,7,,,67,127
8370,note_off,131,0,0,,7,,,67,127
8370,note_on,0,0,0,,12,,,71,127
8501,note_off,131,0,0,,12,,,71,127
8501,note_off,0,0,0,,12,,,59,127
8501,note_on,0,0,0,,7,,,55,127
8501,note_on,0,0,0,,2,,,74,127
8632,note_off,131,0,0,,2,,,74,127
8632,note_on,0,0,0,,7,,,79,127
8763,note_off,131,0,0,,7,,,79,127
8763,note_off,0,0,0,,7,,,55,127
8763,note_on,0,0,0,,2,,,50,127
8763,note_on,0,0,0,,7,,,79,127
8894,note_off,131,0,0,,7,,,79,127
8894,note_on,0,0,0,,6,,,78,127
8959,note_off,65,0,0,,6,,,78,127
8959,note_on,0,0,0,,7,,,79,127
9024,note_off,65,0,0,,7,,,79,127
9024,note_on,0,0,0,,2,,,62,127
9024,note_on,0,0,0,,6,,,78,127
9286,note_off,262,0,0,,6,,,78,127
9286,note_off,0,0,0,,2,,,62,127
9286,note_off,0,0,0,,2,,,50,127
9286,note_on,0,0,0,,0,,,60,127
9286,note_on,0,0,0,,4,,,76,127
9482,note_off,196,0,0,,4,,,76,127
9547,note_off,65,0,0,,0,,,60,127
9547,note_on,0,0,0,,12,,,59,127
9678,note_on,131,0,0,,7,,,67,127
9809,note_off,131,0,0,,7,,,67,127
9809,note_off,0,0,0,,12,,,59,127
9809,note_on,0,0,0,,2,,,62,127
9809,note_on,0,0,0,,12,,,71,127
9940,note_off,131,0,0,,12,,,71,127
9940,note_on,0,0,0,,2,,,74,127
10071,note_off,131,0,0,,2,,,74,127
10071,note_off,0,0,0,,2,,,62,127
10071,note_on,0,0,0,,7,,,55,127
10071,note_on,0,0,0,,7,,,79,127
10202,note_off,131,0,0,,7,,,79,127
10202,note_on,0,0,0,,12,,,83,127
10333,note_off,131,0,0,,12,,,83,127
10333,note_off,0,0,0,,7,,,55,127
10333,note_on,0,0,0,,2,,,50,127
10333,note_on,0,0,0,,12,,,83,127
10464,note_off,131,0,0,,12,,,83,127
10464,note_on,0,0,0,,10,,,81,127
10529,note_off,65,0,0,,10,,,81,127
10529,note_on,0,0,0,,12,,,83,127
10594,note_off,65,0,0,,12,,,83,127
10594,note_on,0,0,0,,2,,,62,127
10594,note_on,0,0,0,,10,,,81,127
10659,note_off,65,0,0,,10,,,81,127
10659,note_on,0,0,0,,12,,,83,127
10724,note_off,65,0,0,,12,,,83,127
10724,note_on,0,0,0,,10,,,81,127
10789,note_off,65,0,0,,10,,,81,127
10789,note_on,0,0,0,,12,,,83,127
10854,note_off,65,0,0,,12,,,83,127
10854,note_off,0,0,0,,2,,,62,127
10854,note_off,0,0,0,,2,,,50,127
10854,note_on,0,0,0,,0,,,60,127
10854,note_on,0,0,0,,10,,,81,127
10985,note_off,131,0,0,,10,,,81,127
11116,note_off,131,0,0,,0,,,60,127
11116,note_on,0,0,0,,12,,,59,127
11247,note_on,131,0,0,,2,,,62,127
11378,note_off,131,0,0,,2,,,62,127
11378,note_on,0,0,0,,7,,,67,127
11509,note_off,131,0,0,,7,,,67,127
11509,note_on,0,0,0,,12,,,71,127
11640,note_off,131,0,0,,12,,,71,127
11640,note_off,0,0,0,,12,,,59,127
11640,note_on,0,0,0,,7,,,55,127
11640,note_on,0,0,0,,2,,,74,127
11771,note_off,131,0,0,,2,,,74,127
11771,note_on,0,0,0,,7,,,79,127
11902,note_off,131,0,0,,7,,,79,127
11902,note_off,0,0,0,,7,,,55,127
11902,note_on,0,0,0,,2,,,50,127
11902,note_on,0,0,0,,7,,,79,127
12033,note_off,131,0,0,,7,,,79,127
12033,note_on,0,0,0,,6,,,78,127
12098,note_off,65,0,0,,6,,,78,127
12098,note_on,0,0,0,,7,,,79,127
12163,note_off,65,0,0,,7,,,79,127
12163,note_on,0,0,0,,2,,,62,127
12163,note_on,0,0,0,,6,,,78,127
12425,note_off,262,0,0,,6,,,78,127
12425,note_off,0,0,0,,2,,,62,127
12425,note_off,0,0,0,,2,,,50,127
12425,note_on,0,0,0,,0,,,60,127
12425,note_on,0,0,0,,4,,,76,127
12621,note_off,196,0,0,,4,,,76,127
12686,note_off,65,0,0,,0,,,60,127
12686,note_on,0,0,0,,12,,,59,127
12817,note_on,131,0,0,,7,,,67,127
12948,note_off,131,0,0,,7,,,67,127
12948,note_off,0,0,0,,12,,,59,127
12948,note_on,0,0,0,,2,,,62,127
12948,note_on,0,0,0,,12,,,71,127
13079,note_off,131,0,0,,12,,,71,127
13079,note_on,0,0,0,,2,,,74,127
13210,note_off,131,0,0,,2,,,74,127
13210,note_off,0,0,0,,2,,,62,127
13210,note_on,0,0,0,,7,,,55,127
13210,note_on,0,0,0,,7,,,79,127
13341,note_off,131,0,0,,7,,,79,127
13341,note_on,0,0,0,,12,,,83,127
13472,note_off,131,0,0,,12,,,83,127
13472,note_off,0,0,0,,7,,,55,127
13472,note_on,0,0,0,,2,,,50,127
13472,note_on,0,0,0,,12,,,83,127
13603,note_off,131,0,0,,12,,,83,127
13603,note_on,0,0,0,,10,,,81,127
13668,note_off,65,0,0,,10,,,81,127
13668,note_on,0,0,0,,12,,,83,127
13733,note_off,65,0,0,,12,,,83,127
13733,note_on,0,0,0,,10,,,81,127
13798,note_off,65,0,0,,10,,,81,127
13798,note_on,0,0,0,,12,,,83,127
13863,note_off,65,0,0,,12,,,83,127
13863,note_on,0,0,0,,10,,,81,127
13928,note_off,65,0,0,,10,,,81,127
13928,note_on,0,0,0,,12,,,83,127
13993,note_off,65,0,0,,12,,,83,127
13993,note_on,0,0,0,,2,,,38,127
13993,note_on,0,0,0,,10,,,81,127
14255,note_off,262,0,0,,2,,,38,127
14255,note_off,0,0,0,,2,,,50,127
14255,note_on,0,0,0,,6,,,66,127
14255,note_on,0,0,0,,2,,,62,127
14386,note_off,131,0,0,,10,,,81,127
14386,note_on,0,0,0,,10,,,81,127
14517,note_off,131,0,0,,10,,,81,127
14517,note_off,0,0,0,,2,,,62,127
14517,note_off,0,0,0,,6,,,66,127
14517,note_on,0,0,0,,7,,,67,127
14517,note_on,0,0,0,,4,,,64,127
14517,note_on,0,0,0,,7,,,79,127
14648,note_off,131,0,0,,7,,,79,127
14648,note_on,0,0,0,,6,,,78,127
14779,note_off,131,0,0,,6,,,78,127
14779,note_off,0,0,0,,4,,,64,127
14779,note_off,0,0,0,,7,,,67,127
14779,note_on,0,0,0,,6,,,66,127
14779,note_on,0,0,0,,10,,,69,127
14779,note_on,0,0,0,,4,,,76,127
14910,note_off,131,0,0,,4,,,76,127
14910,note_on,0,0,0,,3,,,75,127
15041,note_off,131,0,0,,3,,,75,127
15041,note_off,0,0,0,,10,,,69,127
15041,note_off,0,0,0,,6,,,66,127
15041,note_on,0,0,0,,7,,,67,127
15041,note_on,0,0,0,,12,,,71,127
15041,note_on,0,0,0,,4,,,76,127
15172,note_off,131,0,0,,4,,,76,127
15172,note_on,0,0,0,,6,,,78,127
15303,note_off,131,0,0,,6,,,78,127
15303,note_on,0,0,0,,7,,,79,127
15434,note_off,131,0,0,,7,,,79,127
15434,note_on,0,0,0,,10,,,81,127
15565,note_off,131,0,0,,10,,,81,127
15565,note_on,0,0,0,,11,,,82,127
15696,note_off,131,0,0,,11,,,82,127
15696,note_on,0,0,0,,12,,,83,127
15827,note_off,131,0,0,,12,,,71,127
15827,note_off,0,0,0,,7,,,67,127
15827,note_on,0,0,0,,4,,,64,127
15827,note_on,0,0,0,,7,,,67,127
15892,note_off,65,0,0,,12,,,83,127
15957,note_on,65,0,0,,7,,,79,127
16088,note_off,131,0,0,,7,,,79,127
16088,note_off,0,0,0,,7,,,67,127
16088,note_off,0,0,0,,4,,,64,127
16088,note_on,0,0,0,,10,,,69,127
16088,note_on,0,0,0,,6,,,66,127
16088,note_on,0,0,0,,6,,,78,127
16219,note_off,131,0,0,,6,,,78,127
16219,note_on,0,0,0,,4,,,76,127
16350,note_off,131,0,0,,4,,,76,127
16350,note_off,0,0,0,,6,,,66,127
16350,note_off,0,0,0,,10,,,69,127
16350,note_on,0,0,0,,7,,,67,127
16350,note_on,0,0,0,,2,,,74,127
16481,note_off,131,0,0,,2,,,74,127
16481,note_on,0,0,0,,1,,,73,127
16612,note_off,131,0,0,,1,,,73,127
16612,note_off,0,0,0,,7,,,67,127
16612,note_on,0,0,0,,6,,,66,127
16612,note_on,0,0,0,,10,,,69,127
16612,note_on,0,0,0,,2,,,74,127
16743,note_off,131,0,0,,2,,,74,127
16743,note_on,0,0,0,,4,,,76,127
16874,note_off,131,0,0,,4,,,76,127
16874,note_on,0,0,0,,6,,,78,127
17005,note_off,131,0,0,,6,,,78,127
17005,note_on,0,0,0,,7,,,79,127
17136,note_off,131,0,0,,7,,,79,127
17136,note_on,0,0,0,,8,,,80,127
17267,note_off,131,0,0,,8,,,80,127
17267,note_on,0,0,0,,10,,,81,127
17398,note_off,131,0,0,,10,,,69,127
17398,note_off,0,0,0,,6,,,66,127
17398,note_on,0,0,0,,6,,,66,127
17398,note_on,0,0,0,,2,,,62,127
17463,note_off,65,0,0,,10,,,81,127
17528,note_on,65,0,0,,10,,,81,127
17659,note_off,131,0,0,,10,,,81,127
17659,note_off,0,0,0,,2,,,62,127
17659,note_off,0,0,0,,6,,,66,127
17659,note_on,0,0,0,,7,,,67,127
17659,note_on,0,0,0,,4,,,64,127
17659,note_on,0,0,0,,7,,,79,127
17790,note_off,131,0,0,,7,,,79,127
17790,note_on,0,0,0,,6,,,78,127
17921,note_off,131,0,0,,6,,,78,127
17921,note_off,0,0,0,,4,,,64,127
17921,note_off,0,0,0,,7,,,67,127
17921,note_on,0,0,0,,6,,,66,127
17921,note_on,0,0,0,,10,,,69,127
17921,note_on,0,0,0,,4,,,76,127
18052,note_off,131,0,0,,4,,,76,127
18052,note_on,0,0,0,,3,,,75,127
18183,note_off,131,0,0,,3,,,75,127
18183,note_off,0,0,0,,10,,,69,127
18183,note_off,0,0,0,,6,,,66,127
18183,note_on,0,0,0,,12,,,71,127
18183,note_on,0,0,0,,7,,,67,127
18183,note_on,0,0,0,,4,,,76,127
18314,note_off,131,0,0,,4,,,76,127
18314,note_on,0,0,0,,6,,,78,127
18445,note_off,131,0,0,,6,,,78,127
18445,note_on,0,0,0,,7,,,79,127
18576,note_off,131,0,0,,7,,,79,127
18576,note_on,0,0,0,,10,,,81,127
18707,note_off,131,0,0,,10,,,81,127
18707,note_on,0,0,0,,11,,,82,127
18838,note_off,131,0,0,,11,,,82,127
18838,note_on,0,0,0,,12,,,83,127
18969,note_off,131,0,0,,7,,,67,127
18969,note_off,0,0,0,,12,,,71,127
18969,note_on,0,0,0,,4,,,64,127
18969,note_on,0,0,0,,7,,,67,127
19034,note_off,65,0,0,,12,,,83,127
19099,note_on,65,0,0,,7,,,79,127
19230,note_off,131,0,0,,7,,,79,127
19230,note_off,0,0,0,,7,,,67,127
19230,note_off,0,0,0,,4,,,64,127
19230,note_on,0,0,0,,10,,,69,127
19230,note_on,0,0,0,,6,,,66,127
19230,note_on,0,0,0,,6,,,78,127
19361,note_off,131,0,0,,6,,,78,127
19361,note_on,0,0,0,,4,,,76,127
19492,note_off,131,0,0,,4,,,76,127
19492,note_off,0,0,0,,6,,,66,127
19492,note_off,0,0,0,,10,,,69,127
19492,note_on,0,0,0,,7,,,67,127
19492,note_on,0,0,0,,2,,,74,127
19623,note_off,131,0,0,,2,,,74,127
19623,note_on,0,0,0,,1,,,73,127
19754,note_off,131,0,0,,1,,,73,127
19754,note_off,0,0,0,,7,,,67,127
19754,note_on,0,0,0,,6,,,66,127
19754,note_on,0,0,0,,10,,,69,127
19754,note_on,0,0,0,,2,,,74,127
19885,note_off,131,0,0,,2,,,74,127
19885,note_on,0,0,0,,4,,,76,127
20016,note_off,131,0,0,,4,,,76,127
20016,note_on,0,0,0,,6,,,78,127
20147,note_off,131,0,0,,6,,,78,127
20147,note_on,0,0,0,,7,,,79,127
20278,note_off,131,0,0,,7,,,79,127
20278,note_on,0,0,0,,8,,,80,127
20409,note_off,131,0,0,,8,,,80,127
20409,note_on,0,0,0,,10,,,81,127
20540,note_off,131,0,0,,10,,,69,127
20540,note_off,0,0,0,,6,,,66,127
20540,note_on,0,0,0,,6,,,54,127
20540,note_on,0,0,0,,2,,,62,127
20671,note_on,131,0,0,,2,,,86,127
20799,note_off,128,0,0,,10,,,81,127
20802,note_off,3,0,0,,2,,,86,127
20802,note_off,0,0,0,,2,,,62,127
20802,note_off,0,0,0,,6,,,54,127
20802,note_on,0,0,0,,2,,,62,127
20802,note_on,0,0,0,,6,,,54,127
20802,note_on,0,0,0,,10,,,81,127
20933,note_off,131,0,0,,10,,,81,127
20933,note_on,0,0,0,,7,,,79,127
21064,note_off,131,0,0,,7,,,79,127
21064,note_off,0,0,0,,6,,,54,127
21064,note_off,0,0,0,,2,,,62,127
21064,note_on,0,0,0,,6,,,54,127
21064,note_on,0,0,0,,2,,,62,127
21064,note_on,0,0,0,,6,,,78,127
21195,note_off,131,0,0,,6,,,78,127
21195,note_on,0,0,0,,4,,,76,127
21326,note_off,131,0,0,,4,,,76,127
21326,note_off,0,0,0,,2,,,62,127
21326,note_off,0,0,0,,6,,,54,127
21326,note_on,0,0,0,,7,,,55,127
21326,note_on,0,0,0,,2,,,62,127
21326,note_on,0,0,0,,4,,,64,127
21326,note_on,0,0,0,,2,,,74,127
21457,note_on,131,0,0,,2,,,86,127
21588,note_off,131,0,0,,2,,,86,127
21588,note_off,0,0,0,,2,,,74,127
21588,note_off,0,0,0,,4,,,64,127
21588,note_off,0,0,0,,2,,,62,127
21588,note_off,0,0,0,,7,,,55,127
21588,note_on,0,0,0,,2,,,62,127
21588,note_on,0,0,0,,7,,,55,127
21588,note_on,0,0,0,,4,,,64,127
21588,note_on,0,0,0,,12,,,83,127
21719,note_off,131,0,0,,12,,,83,127
21719,note_on,0,0,0,,10,,,81,127
21850,note_off,131,0,0,,10,,,81,127
21850,note_off,0,0,0,,4,,,64,127
21850,note_off,0,0,0,,7,,,55,127
21850,note_off,0,0,0,,2,,,62,127
21850,note_on,0,0,0,,2,,,62,127
21850,note_on,0,0,0,,7,,,55,127
21850,note_on,0,0,0,,4,,,64,127
21850,note_on,0,0,0,,7,,,79,127
21981,note_off,131,0,0,,7,,,79,127
21981,note_on,0,0,0,,6,,,78,127
22112,note_off,131,0,0,,6,,,78,127
22112,note_off,0,0,0,,4,,,64,127
22112,note_off,0,0,0,,7,,,55,127
22112,note_off,0,0,0,,2,,,62,127
22112,note_on,0,0,0,,10,,,57,127
22112,note_on,0,0,0,,4,,,64,127
22112,note_on,0,0,0,,2,,,62,127
22112,note_on,0,0,0,,4,,,76,127
22243,note_on,131,0,0,,2,,,86,127
22374,note_off,131,0,0,,2,,,86,127
22374,note_off,0,0,0,,4,,,76,127
22374,note_off,0,0,0,,2,,,62,127
22374,note_off,0,0,0,,4,,,64,127
22374,note_off,0,0,0,,10,,,57,127
22374,note_on,0,0,0,,4,,,64,127
22374,note_on,0,0,0,,2,,,62,127
22374,note_on,0,0,0,,10,,,57,127
22374,note_on,0,0,0,,6,,,78,127
22505,note_off,131,0,0,,6,,,78,127
22505,note_on,0,0,0,,4,,,76,127
22636,note_off,131,0,0,,4,,,76,127
22636,note_off,0,0,0,,10,,,57,127
22636,note_off,0,0,0,,2,,,62,127
22636,note_off,0,0,0,,4,,,64,127
22636,note_on,0,0,0,,2,,,62,127
22636,note_on,0,0,0,,10,,,57,127
22636,note_on,0,0,0,,4,,,64,127
22636,note_on,0,0,0,,2,,,74,127
22767,note_off,131,0,0,,2,,,74,127
22767,note_on,0,0,0,,1,,,73,127
22898,note_off,131,0,0,,1,,,73,127
22898,note_off,0,0,0,,4,,,64,127
22898,note_off,0,0,0,,10,,,57,127
22898,note_off,0,0,0,,2,,,62,127
22898,note_on,0,0,0,,2,,,62,127
22898,note_on,0,0,0,,12,,,59,127
22898,note_on,0,0,0,,2,,,74,127
23029,note_off,131,0,0,,2,,,74,127
23029,note_on,0,0,0,,1,,,73,127
23160,note_off,131,0,0,,1,,,73,127
23160,note_off,0,0,0,,12,,,59,127
23160,note_off,0,0,0,,2,,,62,127
23160,note_on,0,0,0,,1,,,61,127
23160,note_on,0,0,0,,10,,,57,127
23160,note_on,0,0,0,,2,,,74,127
23291,note_off,131,0,0,,2,,,74,127
23291,note_on,0,0,0,,1,,,73,127
23422,note_off,131,0,0,,1,,,73,127
23422,note_off,0,0,0,,10,,,57,127
23422,note_off,0,0,0,,1,,,61,127
23422,note_on,0,0,0,,12,,,59,127
23422,note_on,0,0,0,,7,,,55,127
23422,note_on,0,0,0,,2,,,74,127
23553,note_off,131,0,0,,2,,,74,127
23553,note_on,0,0,0,,1,,,73,127
23618,note_off,65,0,0,,1,,,73,127
23683,note_off,65,0,0,,7,,,55,127
23683,note_off,0,0,0,,12,,,59,127
23683,note_on,0,0,0,,6,,,54,127
23683,note_on,0,0,0,,2,,,62,127
23814,note_on,131,0,0,,2,,,86,127
23945,note_off,131,0,0,,2,,,86,127
23945,note_off,0,0,0,,2,,,62,127
23945,note_off,0,0,0,,6,,,54,127
23945,note_on,0,0,0,,6,,,54,127
23945,note_on,0,0,0,,2,,,62,127
23945,note_on,0,0,0,,10,,,81,127
24076,note_off,131,0,0,,10,,,81,127
24076,note_on,0,0,0,,7,,,79,127
24207,note_off,131,0,0,,7,,,79,127
24207,note_off,0,0,0,,2,,,62,127
24207,note_off,0,0,0,,6,,,54,127
24207,note_on,0,0,0,,6,,,54,127
24207,note_on,0,0,0,,2,,,62,127
24207,note_on,0,0,0,,6,,,78,127
24338,note_off,131,0,0,,6,,,78,127
24338,note_on,0,0,0,,4,,,76,127
24469,note_off,131,0,0,,4,,,76,127
24469,note_off,0,0,0,,2,,,62,127
24469,note_off,0,0,0,,6,,,54,127
24469,note_on,0,0,0,,7,,,55,127
24469,note_on,0,0,0,,4,,,64,127
24469,note_on,0,0,0,,2,,,62,127
24469,note_on,0,0,0,,2,,,74,127
24600,note_on,131,0,0,,2,,,86,127
24731,note_off,131,0,0,,2,,,86,127
24731,note_off,0,0,0,,2,,,74,127
24731,note_off,0,0,0,,2,,,62,127
24731,note_off,0,0,0,,4,,,64,127
24731,note_off,0,0,0,,7,,,55,127
24731,note_on,0,0,0,,7,,,55,127
24731,note_on,0,0,0,,4,,,64,127
24731,note_on,0,0,0,,2,,,62,127
24731,note_on,0,0,0,,12,,,83,127
24862,note_off,131,0,0,,12,,,83,127
24862,note_on,0,0,0,,10,,,81,127
24993,note_off,131,0,0,,10,,,81,127
24993,note_off,0,0,0,,2,,,62,127
24993,note_off,0,0,0,,4,,,64,127
24993,note_off,0,0,0,,7,,,55,127
24993,note_on,0,0,0,,7,,,55,127
24993,note_on,0,0,0,,4,,,64,127
24993,note_on,0,0,0,,2,,,62,127
24993,note_on,0,0,0,,7,,,79,127
25124,note_off,131,0,0,,7,,,79,127
25124,note_on,0,0,0,,6,,,78,127
25255,note_off,131,0,0,,6,,,78,127
25255,note_off,0,0,0,,2,,,62,127
25255,note_off,0,0,0,,4,,,64,127
25255,note_off,0,0,0,,7,,,55,127
25255,note_on,0,0,0,,2,,,62,127
25255,note_on,0,0,0,,10,,,57,127
25255,note_on,0,0,0,,4,,,64,127
25255,note_on,0,0,0,,4,,,76,127
25386,note_on,131,0,0,,2,,,86,127
25517,note_off,131,0,0,,2,,,86,127
25517,note_off,0,0,0,,4,,,76,127
25517,note_off,0,0,0,,4,,,64,127
25517,note_off,0,0,0,,10,,,57,127
25517,note_off,0,0,0,,2,,,62,127
25517,note_on,0,0,0,,10,,,57,127
25517,note_on,0,0,0,,4,,,64,127
25517,note_on,0,0,0,,2,,,62,127
25517,note_on,0,0,0,,6,,,78,127
25648,note_off,131,0,0,,6,,,78,127
25648,note_on,0,0,0,,4,,,76,127
25779,note_off,131,0,0,,4,,,76,127
25779,note_off,0,0,0,,2,,,62,127
25779,note_off,0,0,0,,4,,,64,127
25779,note_off,0,0,0,,10,,,57,127
25779,note_on,0,0,0,,10,,,57,127
25779,note_on,0,0,0,,4,,,64,127
25779,note_on,0,0,0,,2,,,62,127
25779,note_on,0,0,0,,2,,,74,127
25910,note_off,131,0,0,,2,,,74,127
25910,note_on,0,0,0,,1,,,73,127
26041,note_off,131,0,0,,1,,,73,127
26041,note_off,0,0,0,,2,,,62,127
26041,note_off,0,0,0,,4,,,64,127
26041,note_off,0,0,0,,10,,,57,127
26041,note_on,0,0,0,,2,,,62,127
26041,note_on,0,0,0,,12,,,59,127
26041,note_on,0,0,0,,2,,,74,127
26172,note_off,131,0,0,,2,,,74,127
26172,note_on,0,0,0,,1,,,73,127
26303,note_off,131,0,0,,1,,,73,127
26303,note_off,0,0,0,,12,,,59,127
26303,note_off,0,0,0,,2,,,62,127
26303,note_on,0,0,0,,1,,,61,127
26303,note_on,0,0,0,,10,,,57,127
26303,note_on,0,0,0,,2,,,74,127
26434,note_off,131,0,0,,2,,,74,127
26434,note_on,0,0,0,,1,,,73,127
26565,note_off,131,0,0,,1,,,73,127
26565,note_off,0,0,0,,10,,,57,127
26565,note_off,0,0,0,,1,,,61,127
26565,note_on,0,0,0,,7,,,55,127
26565,note_on,0,0,0,,12,,,59,127
26565,note_on,0,0,0,,2,,,74,127
26696,note_off,131,0,0,,2,,,74,127
26696,note_on,0,0,0,,1,,,73,127
26761,note_off,65,0,0,,1,,,73,127
26826,note_off,65,0,0,,12,,,59,127
26826,note_off,0,0,0,,7,,,55,127
26826,note_on,0,0,0,,10,,,57,127
26826,note_on,0,0,0,,6,,,54,127
26826,note_on,0,0,0,,2,,,62,127
26957,note_on,131,0,0,,1,,,85,127
27088,note_off,131,0,0,,1,,,85,127
27088,note_off,0,0,0,,2,,,62,127
27088,note_off,0,0,0,,6,,,54,127
27088,note_off,0,0,0,,10,,,57,127
27088,note_on,0,0,0,,6,,,54,127
27088,note_on,0,0,0,,2,,,62,127
27088,note_on,0,0,0,,10,,,57,127
27088,note_on,0,0,0,,2,,,86,127
27219,note_off,131,0,0,,2,,,86,127
27219,note_on,0,0,0,,12,,,83,127
27350,note_off,131,0,0,,12,,,83,127
27350,note_off,0,0,0,,10,,,57,127
27350,note_off,0,0,0,,2,,,62,127
27350,note_off,0,0,0,,6,,,54,127
27350,note_on,0,0,0,,6,,,54,127
27350,note_on,0,0,0,,2,,,62,127
27350,note_on,0,0,0,,10,,,57,127
27350,note_on,0,0,0,,1,,,85,127
27481,note_off,131,0,0,,1,,,85,127
27481,note_on,0,0,0,,11,,,82,127
27612,note_off,131,0,0,,11,,,82,127
27612,note_off,0,0,0,,10,,,57,127
27612,note_off,0,0,0,,2,,,62,127
27612,note_off,0,0,0,,6,,,54,127
27612,note_on,0,0,0,,7,,,55,127
27612,note_on,0,0,0,,2,,,62,127
27612,note_on,0,0,0,,12,,,83,127
27743,note_off,131,0,0,,12,,,83,127
27743,note_on,0,0,0,,8,,,80,127
27874,note_off,131,0,0,,8,,,80,127
27874,note_off,0,0,0,,2,,,62,127
27874,note_off,0,0,0,,7,,,55,127
27874,note_on,0,0,0,,7,,,55,127
27874,note_on,0,0,0,,2,,,62,127
27874,note_on,0,0,0,,10,,,81,127
28005,note_off,131,0,0,,10,,,81,127
28005,note_on,0,0,0,,6,,,78,127
28136,note_off,131,0,0,,6,,,78,127
28136,note_off,0,0,0,,2,,,62,127
28136,note_off,0,0,0,,7,,,55,127
28136,note_on,0,0,0,,7,,,55,127
28136,note_on,0,0,0,,2,,,62,127
28136,note_on,0,0,0,,7,,,79,127
28267,note_off,131,0,0,,7,,,79,127
28267,note_on,0,0,0,,4,,,76,127
28398,note_off,131,0,0,,4,,,76,127
28398,note_off,0,0,0,,2,,,62,127
28398,note_off,0,0,0,,7,,,55,127
28398,note_on,0,0,0,,2,,,62,127
28398,note_on,0,0,0,,8,,,56,127
28398,note_on,0,0,0,,4,,,64,127
28398,note_on,0,0,0,,6,,,78,127
28529,note_off,131,0,0,,6,,,78,127
28529,note_on,0,0,0,,2,,,74,127
28660,note_off,131,0,0,,2,,,74,127
28660,note_off,0,0,0,,4,,,64,127
28660,note_off,0,0,0,,8,,,56,127
28660,note_off,0,0,0,,2,,,62,127
28660,note_on,0,0,0,,8,,,56,127
28660,note_on,0,0,0,,4,,,64,127
28660,note_on,0,0,0,,2,,,62,127
28660,note_on,0,0,0,,4,,,76,127
28791,note_off,131,0,0,,4,,,76,127
28791,note_on,0,0,0,,1,,,73,127
28922,note_off,131,0,0,,1,,,73,127
28922,note_off,0,0,0,,2,,,62,127
28922,note_off,0,0,0,,4,,,64,127
28922,note_off,0,0,0,,8,,,56,127
28922,note_on,0,0,0,,8,,,56,127
28922,note_on,0,0,0,,2,,,62,127
28922,note_on,0,0,0,,4,,,64,127
28922,note_on,0,0,0,,2,,,74,127
29053,note_off,131,0,0,,2,,,74,127
29053,note_on,0,0,0,,12,,,71,127
29184,note_off,131,0,0,,12,,,71,127
29184,note_off,0,0,0,,4,,,64,127
29184,note_off,0,0,0,,2,,,62,127
29184,note_off,0,0,0,,8,,,56,127
29184,note_on,0,0,0,,10,,,57,127
29184,note_on,0,0,0,,10,,,45,127
29184,note_on,0,0,0,,2,,,74,127
29315,note_off,131,0,0,,2,,,74,127
29315,note_on,0,0,0,,1,,,73,127
29446,note_off,131,0,0,,1,,,73,127
29446,note_on,0,0,0,,12,,,71,127
29577,note_off,131,0,0,,12,,,71,127
29577,note_on,0,0,0,,1,,,73,127
29708,note_off,131,0,0,,1,,,73,127
29708,note_on,0,0,0,,10,,,69,127
29839,note_off,131,0,0,,10,,,69,127
29839,note_on,0,0,0,,10,,,69,127
29970,note_off,131,0,0,,10,,,69,127
29970,note_off,0,0,0,,10,,,45,127
29970,note_off,0,0,0,,10,,,57,127
29970,note_on,0,0,0,,10,,,45,127
29970,note_on,0,0,0,,4,,,52,127
29970,note_on,0,0,0,,2,,,50,127
29970,note_on,0,0,0,,10,,,57,127
29970,note_on,0,0,0,,10,,,69,127
30101,note_off,131,0,0,,10,,,69,127
30101,note_off,0,0,0,,2,,,50,127
30101,note_on,0,0,0,,1,,,73,127
30232,note_off,131,0,0,,1,,,73,127
30232,note_on,0,0,0,,4,,,76,127
30363,note_off,131,0,0,,4,,,76,127
30363,note_on,0,0,0,,10,,,81,127
30494,note_off,131,0,0,,10,,,81,127
30494,note_on,0,0,0,,10,,,69,127
30625,note_off,131,0,0,,10,,,69,127
30625,note_on,0,0,0,,10,,,69,127
30756,note_off,131,0,0,,10,,,69,127
30756,note_off,0,0,0,,10,,,57,127
30756,note_off,0,0,0,,4,,,52,127
30756,note_off,0,0,0,,10,,,45,127
30756,note_on,0,0,0,,10,,,45,127
30756,note_on,0,0,0,,4,,,52,127
30756,note_on,0,0,0,,2,,,50,127
30756,note_on,0,0,0,,10,,,57,127
30756,note_on,0,0,0,,10,,,69,127
30887,note_off,131,0,0,,10,,,69,127
30887,note_on,0,0,0,,1,,,73,127
30920,note_off,33,0,0,,2,,,50,127
31018,note_off,98,0,0,,1,,,73,127
31018,note_on,0,0,0,,4,,,76,127
31149,note_off,131,0,0,,4,,,76,127
31149,note_on,0,0,0,,10,,,81,127
31280,note_off,131,0,0,,10,,,81,127
31280,note_on,0,0,0,,10,,,69,127
31411,note_off,131,0,0,,10,,,69,127
31411,note_on,0,0,0,,10,,,69,127
31542,note_off,131,0,0,,10,,,69,127
31542,note_off,0,0,0,,10,,,57,127
31542,note_off,0,0,0,,4,,,52,127
31542,note_off,0,0,0,,10,,,45,127
31542,note_on,0,0,0,,10,,,45,127
31542,note_on,0,0,0,,2,,,50,127
31542,note_on,0,0,0,,10,,,57,127
31542,note_on,0,0,0,,4,,,52,127
31542,note_on,0,0,0,,10,,,69,127
31673,note_off,131,0,0,,10,,,69,127
31673,note_on,0,0,0,,1,,,73,127
31738,note_off,65,0,0,,2,,,50,127
31803,note_off,65,0,0,,1,,,73,127
31803,note_on,0,0,0,,4,,,76,127
31934,note_off,131,0,0,,4,,,76,127
31934,note_on,0,0,0,,10,,,81,127
32065,note_off,131,0,0,,10,,,81,127
32065,note_on,0,0,0,,10,,,69,127
32196,note_off,131,0,0,,10,,,69,127
32196,note_on,0,0,0,,10,,,69,127
32327,note_off,131,0,0,,10,,,69,127
32327,note_off,0,0,0,,4,,,52,127
32327,note_off,0,0,0,,10,,,57,127
32327,note_off,0,0,0,,10,,,45,127
32327,note_on,0,0,0,,10,,,45,127
32327,note_on,0,0,0,,10,,,33,127
32327,note_on,0,0,0,,12,,,71,127
32371,note_on,44,0,0,,10,,,69,127
32393,note_off,22,0,0,,12,,,71,127
32415,note_on,22,0,0,,12,,,71,127
32437,note_off,22,0,0,,10,,,69,127
32459,note_on,22,0,0,,10,,,69,127
32481,note_off,22,0,0,,12,,,71,127
32503,note_on,22,0,0,,12,,,71,127
32525,note_off,22,0,0,,10,,,69,127
32547,note_on,22,0,0,,10,,,69,127
32569,note_off,22,0,0,,12,,,71,127
32984,note_off,415,0,0,,10,,,33,127
33071,note_off,87,0,0,,10,,,69,127
33115,note_off,44,0,0,,10,,,45,127
33115,note_on,0,0,0,,10,,,57,127
33115,note_on,0,0,0,,2,,,62,127
33115,note_on,0,0,0,,4,,,64,127
33246,note_on,131,0,0,,10,,,69,127
33377,note_off,131,0,0,,10,,,69,127
33377,note_off,0,0,0,,4,,,64,127
33377,note_off,0,0,0,,2,,,62,127
33377,note_off,0,0,0,,10,,,57,127
33377,note_on,0,0,0,,10,,,57,127
33377,note_on,0,0,0,,2,,,62,127
33377,note_on,0,0,0,,4,,,64,127
33377,note_on,0,0,0,,1,,,73,127
33508,note_off,131,0,0,,1,,,73,127
33508,note_on,0,0,0,,10,,,69,127
33639,note_off,131,0,0,,10,,,69,127
33639,note_off,0,0,0,,4,,,64,127
33639,note_off,0,0,0,,2,,,62,127
33639,note_off,0,0,0,,10,,,57,127
33639,note_on,0,0,0,,10,,,57,127
33639,note_on,0,0,0,,4,,,64,127
33639,note_on,0,0,0,,2,,,62,127
33639,note_on,0,0,0,,7,,,79,127
33770,note_off,131,0,0,,7,,,79,127
33770,note_on,0,0,0,,4,,,76,127
33901,note_off,131,0,0,,4,,,76,127
33901,note_off,0,0,0,,2,,,62,127
33901,note_off,0,0,0,,4,,,64,127
33901,note_off,0,0,0,,10,,,57,127
33901,note_on,0,0,0,,7,,,55,127
33901,note_on,0,0,0,,2,,,62,127
33901,note_on,0,0,0,,4,,,64,127
33901,note_on,0,0,0,,11,,,82,127
33901,note_on,0,0,0,,11,,,70,127
34163,note_off,262,0,0,,4,,,64,127
34163,note_off,0,0,0,,2,,,62,127
34163,note_off,0,0,0,,7,,,55,127
34163,note_on,0,0,0,,7,,,55,127
34163,note_on,0,0,0,,2,,,62,127
34163,note_on,0,0,0,,4,,,64,127
34425,note_off,262,0,0,,4,,,64,127
34425,note_off,0,0,0,,2,,,62,127
34425,note_off,0,0,0,,7,,,55,127
34425,note_on,0,0,0,,7,,,55,127
34425,note_on,0,0,0,,4,,,64,127
34425,note_on,0,0,0,,2,,,62,127
34687,note_off,262,0,0,,2,,,62,127
34687,note_off,0,0,0,,4,,,64,127
34687,note_off,0,0,0,,7,,,55,127
34687,note_on,0,0,0,,2,,,62,127
34687,note_on,0,0,0,,10,,,57,127
34687,note_on,0,0,0,,4,,,64,127
34818,note_off,131,0,0,,11,,,70,127
34818,note_off,0,0,0,,11,,,82,127
34818,note_on,0,0,0,,10,,,69,127
34949,note_off,131,0,0,,10,,,69,127
34949,note_off,0,0,0,,4,,,64,127
34949,note_off,0,0,0,,10,,,57,127
34949,note_off,0,0,0,,2,,,62,127
34949,note_on,0,0,0,,10,,,57,127
34949,note_on,0,0,0,,4,,,64,127
34949,note_on,0,0,0,,2,,,62,127
34949,note_on,0,0,0,,1,,,73,127
35080,note_off,131,0,0,,1,,,73,127
35080,note_on,0,0,0,,10,,,69,127
35211,note_off,131,0,0,,10,,,69,127
35211,note_off,0,0,0,,2,,,62,127
35211,note_off,0,0,0,,4,,,64,127
35211,note_off,0,0,0,,10,,,57,127
35211,note_on,0,0,0,,10,,,57,127
35211,note_on,0,0,0,,4,,,64,127
35211,note_on,0,0,0,,2,,,62,127
35211,note_on,0,0,0,,7,,,79,127
35342,note_off,131,0,0,,7,,,79,127
35342,note_on,0,0,0,,4,,,76,127
35473,note_off,131,0,0,,4,,,76,127
35473,note_off,0,0,0,,2,,,62,127
35473,note_off,0,0,0,,4,,,64,127
35473,note_off,0,0,0,,10,,,57,127
35473,note_on,0,0,0,,2,,,62,127
35473,note_on,0,0,0,,11,,,58,127
35473,note_on,0,0,0,,4,,,64,127
35473,note_on,0,0,0,,7,,,67,127
35473,note_on,0,0,0,,1,,,85,127
35473,note_on,0,0,0,,1,,,73,127
35669,note_off,196,0,0,,2,,,62,127
35734,note_off,65,0,0,,7,,,67,127
35734,note_off,0,0,0,,4,,,64,127
35734,note_off,0,0,0,,11,,,58,127
35734,note_on,0,0,0,,11,,,58,127
35734,note_on,0,0,0,,2,,,62,127
35734,note_on,0,0,0,,7,,,67,127
35734,note_on,0,0,0,,4,,,64,127
35930,note_off,196,0,0,,2,,,62,127
35995,note_off,65,0,0,,4,,,64,127
35995,note_off,0,0,0,,7,,,67,127
35995,note_off,0,0,0,,11,,,58,127
35995,note_on,0,0,0,,11,,,58,127
35995,note_on,0,0,0,,2,,,62,127
35995,note_on,0,0,0,,4,,,64,127
35995,note_on,0,0,0,,7,,,67,127
36191,note_off,196,0,0,,2,,,62,127
36256,note_off,65,0,0,,7,,,67,127
36256,note_off,0,0,0,,4,,,64,127
36256,note_off,0,0,0,,11,,,58,127
36256,note_on,0,0,0,,4,,,64,127
36256,note_on,0,0,0,,2,,,62,127
36256,note_on,0,0,0,,10,,,57,127
36387,note_off,131,0,0,,1,,,73,127
36387,note_off,0,0,0,,1,,,85,127
36387,note_on,0,0,0,,10,,,69,127
36518,note_off,131,0,0,,10,,,69,127
36518,note_off,0,0,0,,10,,,57,127
36518,note_off,0,0,0,,2,,,62,127
36518,note_off,0,0,0,,4,,,64,127
36518,note_on,0,0,0,,2,,,62,127
36518,note_on,0,0,0,,10,,,57,127
36518,note_on,0,0,0,,4,,,64,127
36518,note_on,0,0,0,,1,,,73,127
36649,note_off,131,0,0,,1,,,73,127
36649,note_on,0,0,0,,10,,,69,127
36780,note_off,131,0,0,,10,,,69,127
36780,note_off,0,0,0,,4,,,64,127
36780,note_off,0,0,0,,10,,,57,127
36780,note_off,0,0,0,,2,,,62,127
36780,note_on,0,0,0,,10,,,57,127
36780,note_on,0,0,0,,4,,,64,127
36780,note_on,0,0,0,,2,,,62,127
36780,note_on,0,0,0,,7,,,79,127
36911,note_off,131,0,0,,7,,,79,127
36911,note_on,0,0,0,,4,,,76,127
37042,note_off,131,0,0,,4,,,76,127
37042,note_off,0,0,0,,2,,,62,127
37042,note_off,0,0,0,,4,,,64,127
37042,note_off,0,0,0,,10,,,57,127
37042,note_on,0,0,0,,7,,,55,127
37042,note_on,0,0,0,,2,,,62,127
37042,note_on,0,0,0,,4,,,64,127
37042,note_on,0,0,0,,11,,,82,127
37042,note_on,0,0,0,,11,,,70,127
37304,note_off,262,0,0,,4,,,64,127
37304,note_off,0,0,0,,2,,,62,127
37304,note_off,0,0,0,,7,,,55,127
37304,note_on,0,0,0,,2,,,62,127
37304,note_on,0,0,0,,7,,,55,127
37304,note_on,0,0,0,,4,,,64,127
37566,note_off,262,0,0,,4,,,64,127
37566,note_off,0,0,0,,7,,,55,127
37566,note_off,0,0,0,,2,,,62,127
37566,note_on,0,0,0,,2,,,62,127
37566,note_on,0,0,0,,7,,,55,127
37566,note_on,0,0,0,,4,,,64,127
37828,note_off,262,0,0,,4,,,64,127
37828,note_off,0,0,0,,7,,,55,127
37828,note_off,0,0,0,,2,,,62,127
37828,note_on,0,0,0,,2,,,62,127
37828,note_on,0,0,0,,10,,,57,127
37828,note_on,0,0,0,,4,,,64,127
37959,note_off,131,0,0,,11,,,70,127
37959,note_off,0,0,0,,11,,,82,127
37959,note_on,0,0,0,,10,,,69,127
38090,note_off,131,0,0,,10,,,69,127
38090,note_off,0,0,0,,4,,,64,127
38090,note_off,0,0,0,,10,,,57,127
38090,note_off,0,0,0,,2,,,62,127
38090,note_on,0,0,0,,10,,,57,127
38090,note_on,0,0,0,,4,,,64,127
38090,note_on,0,0,0,,2,,,62,127
38090,note_on,0,0,0,,1,,,73,127
38221,note_off,131,0,0,,1,,,73,127
38221,note_on,0,0,0,,10,,,69,127
38352,note_off,131,0,0,,10,,,69,127
38352,note_off,0,0,0,,2,,,62,127
38352,note_off,0,0,0,,4,,,64,127
38352,note_off,0,0,0,,10,,,57,127
38352,note_on,0,0,0,,10,,,57,127
38352,note_on,0,0,0,,4,,,64,127
38352,note_on,0,0,0,,2,,,62,127
38352,note_on,0,0,0,,7,,,79,127
38483,note_off,131,0,0,,7,,,79,127
38483,note_on,0,0,0,,4,,,76,127
38614,note_off,131,0,0,,4,,,76,127
38614,note_off,0,0,0,,2,,,62,127
38614,note_off,0,0,0,,4,,,64,127
38614,note_off,0,0,0,,10,,,57,127
38614,note_on,0,0,0,,11,,,58,127
38614,note_on,0,0,0,,2,,,62,127
38614,note_on,0,0,0,,7,,,67,127
38614,note_on,0,0,0,,4,,,64,127
38614,note_on,0,0,0,,1,,,85,127
38614,note_on,0,0,0,,1,,,73,127
38745,note_off,131,0,0,,2,,,62,127
38876,note_off,131,0,0,,4,,,64,127
38876,note_off,0,0,0,,7,,,67,127
38876,note_off,0,0,0,,11,,,58,127
38876,note_on,0,0,0,,11,,,58,127
38876,note_on,0,0,0,,2,,,62,127
38876,note_on,0,0,0,,7,,,67,127
38876,note_on,0,0,0,,4,,,64,127
39007,note_off,131,0,0,,2,,,62,127
39138,note_off,131,0,0,,4,,,64,127
39138,note_off,0,0,0,,7,,,67,127
39138,note_off,0,0,0,,11,,,58,127
39138,note_on,0,0,0,,2,,,62,127
39138,note_on,0,0,0,,11,,,58,127
39138,note_on,0,0,0,,7,,,67,127
39138,note_on,0,0,0,,4,,,64,127
39269,note_off,131,0,0,,2,,,62,127
39400,note_off,131,0,0,,4,,,64,127
39400,note_off,0,0,0,,7,,,67,127
39400,note_off,0,0,0,,11,,,58,127
39400,note_on,0,0,0,,7,,,67,127
39400,note_on,0,0,0,,10,,,57,127
39400,note_on,0,0,0,,4,,,64,127
39531,note_off,131,0,0,,1,,,73,127
39531,note_off,0,0,0,,1,,,85,127
39531,note_on,0,0,0,,11,,,82,127
39662,note_off,131,0,0,,11,,,82,127
39662,note_off,0,0,0,,4,,,64,127
39662,note_off,0,0,0,,10,,,57,127
39662,note_off,0,0,0,,7,,,67,127
39662,note_on,0,0,0,,10,,,57,127
39662,note_on,0,0,0,,4,,,64,127
39662,note_on,0,0,0,,7,,,67,127
39662,note_on,0,0,0,,7,,,79,127
39793,note_off,131,0,0,,7,,,79,127
39793,note_on,0,0,0,,4,,,76,127
39924,note_off,131,0,0,,4,,,76,127
39924,note_off,0,0,0,,7,,,67,127
39924,note_off,0,0,0,,4,,,64,127
39924,note_off,0,0,0,,10,,,57,127
39924,note_on,0,0,0,,4,,,64,127
39924,note_on,0,0,0,,1,,,61,127
39924,note_on,0,0,0,,10,,,69,127
39924,note_on,0,0,0,,7,,,67,127
39924,note_on,0,0,0,,10,,,81,127
40055,note_off,131,0,0,,10,,,81,127
40055,note_on,0,0,0,,7,,,79,127
40186,note_off,131,0,0,,7,,,79,127
40186,note_off,0,0,0,,7,,,67,127
40186,note_off,0,0,0,,10,,,69,127
40186,note_off,0,0,0,,1,,,61,127
40186,note_off,0,0,0,,4,,,64,127
40186,note_on,0,0,0,,2,,,62,127
40186,note_on,0,0,0,,10,,,69,127
40186,note_on,0,0,0,,5,,,65,127
40186,note_on,0,0,0,,5,,,77,127
40317,note_off,131,0,0,,5,,,77,127
40317,note_on,0,0,0,,4,,,76,127
40448,note_off,131,0,0,,4,,,76,127
40448,note_on,0,0,0,,5,,,77,127
40579,note_off,131,0,0,,5,,,77,127
40579,note_on,0,0,0,,7,,,79,127
40710,note_off,131,0,0,,7,,,79,127
40710,note_off,0,0,0,,5,,,65,127
40710,note_off,0,0,0,,10,,,69,127
40710,note_off,0,0,0,,2,,,62,127
40710,note_on,0,0,0,,11,,,58,127
40710,note_on,0,0,0,,2,,,62,127
40710,note_on,0,0,0,,10,,,81,127
40841,note_off,131,0,0,,10,,,81,127
40841,note_on,0,0,0,,2,,,74,127
40972,note_off,131,0,0,,2,,,74,127
40972,note_off,0,0,0,,2,,,62,127
40972,note_off,0,0,0,,11,,,58,127
40972,note_on,0,0,0,,7,,,55,127
40972,note_on,0,0,0,,2,,,62,127
40972,note_on,0,0,0,,4,,,64,127
40972,note_on,0,0,0,,4,,,76,127
41103,note_off,131,0,0,,4,,,76,127
41103,note_on,0,0,0,,7,,,79,127
41234,note_off,131,0,0,,7,,,79,127
41234,note_off,0,0,0,,4,,,64,127
41234,note_off,0,0,0,,2,,,62,127
41234,note_off,0,0,0,,7,,,55,127
41234,note_on,0,0,0,,10,,,57,127
41234,note_on,0,0,0,,2,,,62,127
41234,note_on,0,0,0,,5,,,65,127
41234,note_on,0,0,0,,5,,,77,127
41365,note_off,131,0,0,,5,,,77,127
41365,note_on,0,0,0,,4,,,76,127
41496,note_off,131,0,0,,4,,,76,127
41496,note_off,0,0,0,,5,,,65,127
41496,note_off,0,0,0,,2,,,62,127
41496,note_off,0,0,0,,10,,,57,127
41496,note_on,0,0,0,,10,,,57,127
41496,note_on,0,0,0,,4,,,64,127
41496,note_on,0,0,0,,2,,,74,127
41627,note_off,131,0,0,,2,,,74,127
41627,note_on,0,0,0,,1,,,73,127
41758,note_off,131,0,0,,1,,,73,127
41758,note_off,0,0,0,,4,,,64,127
41758,note_off,0,0,0,,10,,,57,127
41758,note_on,0,0,0,,2,,,50,127
41758,note_on,0,0,0,,1,,,73,127
42020,note_off,262,0,0,,1,,,73,127
42020,note_on,0,0,0,,2,,,74,127
42085,note_off,65,0,0,,2,,,74,127
42085,note_on,0,0,0,,1,,,73,127
42150,note_off,65,0,0,,1,,,73,127
42150,note_on,0,0,0,,2,,,74,127
42215,note_off,65,0,0,,2,,,74,127
42215,note_on,0,0,0,,1,,,73,127
42280,note_off,65,0,0,,1,,,73,127
42280,note_on,0,0,0,,2,,,74,127
42542,note_off,262,0,0,,2,,,74,127
42542,note_off,0,0,0,,2,,,50,127
42542,note_on,0,0,0,,10,,,57,127
42542,note_on,0,0,0,,4,,,64,127
42542,note_on,0,0,0,,2,,,62,127
42673,note_on,131,0,0,,10,,,69,127
42804,note_off,131,0,0,,10,,,69,127
42804,note_off,0,0,0,,2,,,62,127
42804,note_off,0,0,0,,4,,,64,127
42804,note_off,0,0,0,,10,,,57,127
42804,note_on,0,0,0,,10,,,57,127
42804,note_on,0,0,0,,4,,,64,127
42804,note_on,0,0,0,,2,,,62,127
42804,note_on,0,0,0,,1,,,73,127
42935,note_off,131,0,0,,1,,,73,127
42935,note_on,0,0,0,,10,,,69,127
43066,note_off,131,0,0,,10,,,69,127
43066,note_off,0,0,0,,2,,,62,127
43066,note_off,0,0,0,,4,,,64,127
43066,note_off,0,0,0,,10,,,57,127
43066,note_on,0,0,0,,10,,,57,127
43066,note_on,0,0,0,,2,,,62,127
43066,note_on,0,0,0,,4,,,64,127
43066,note_on,0,0,0,,7,,,79,127
43197,note_off,131,0,0,,7,,,79,127
43197,note_on,0,0,0,,4,,,76,127
43328,note_off,131,0,0,,4,,,76,127
43328,note_off,0,0,0,,4,,,64,127
43328,note_off,0,0,0,,2,,,62,127
43328,note_off,0,0,0,,10,,,57,127
43328,note_on,0,0,0,,7,,,55,127
43328,note_on,0,0,0,,4,,,64,127
43328,note_on,0,0,0,,2,,,62,127
43328,note_on,0,0,0,,11,,,82,127
43328,note_on,0,0,0,,11,,,70,127
43590,note_off,262,0,0,,2,,,62,127
43590,note_off,0,0,0,,4,,,64,127
43590,note_off,0,0,0,,7,,,55,127
43590,note_on,0,0,0,,7,,,55,127
43590,note_on,0,0,0,,2,,,62,127
43590,note_on,0,0,0,,4,,,64,127
43852,note_off,262,0,0,,4,,,64,127
43852,note_off,0,0,0,,2,,,62,127
43852,note_off,0,0,0,,7,,,55,127
43852,note_on,0,0,0,,7,,,55,127
43852,note_on,0,0,0,,4,,,64,127
43852,note_on,0,0,0,,2,,,62,127
44114,note_off,262,0,0,,2,,,62,127
44114,note_off,0,0,0,,4,,,64,127
44114,note_off,0,0,0,,7,,,55,127
44114,note_on,0,0,0,,10,,,57,127
44114,note_on,0,0,0,,2,,,62,127
44114,note_on,0,0,0,,4,,,64,127
44245,note_off,131,0,0,,11,,,70,127
44245,note_on,0,0,0,,10,,,69,127
44376,note_off,131,0,0,,10,,,69,127
44376,note_off,0,0,0,,4,,,64,127
44376,note_off,0,0,0,,2,,,62,127
44376,note_off,0,0,0,,10,,,57,127
44376,note_off,0,0,0,,11,,,82,127
44376,note_on,0,0,0,,4,,,64,127
44376,note_on,0,0,0,,2,,,62,127
44376,note_on,0,0,0,,10,,,57,127
44376,note_on,0,0,0,,1,,,73,127
44507,note_off,131,0,0,,1,,,73,127
44507,note_on,0,0,0,,10,,,69,127
44638,note_off,131,0,0,,10,,,69,127
44638,note_off,0,0,0,,10,,,57,127
44638,note_off,0,0,0,,2,,,62,127
44638,note_off,0,0,0,,4,,,64,127
44638,note_on,0,0,0,,10,,,57,127
44638,note_on,0,0,0,,4,,,64,127
44638,note_on,0,0,0,,2,,,62,127
44638,note_on,0,0,0,,7,,,79,127
44769,note_off,131,0,0,,7,,,79,127
44769,note_on,0,0,0,,4,,,76,127
44900,note_off,131,0,0,,4,,,76,127
44900,note_off,0,0,0,,2,,,62,127
44900,note_off,0,0,0,,4,,,64,127
44900,note_off,0,0,0,,10,,,57,127
44900,note_on,0,0,0,,11,,,58,127
44900,note_on,0,0,0,,7,,,67,127
44900,note_on,0,0,0,,4,,,64,127
44900,note_on,0,0,0,,2,,,62,127
44900,note_on,0,0,0,,1,,,85,127
44900,note_on,0,0,0,,1,,,73,127
45158,note_off,258,0,0,,2,,,62,127
45162,note_off,4,0,0,,4,,,64,127
45162,note_off,0,0,0,,7,,,67,127
45162,note_off,0,0,0,,11,,,58,127
45162,note_on,0,0,0,,11,,,58,127
45162,note_on,0,0,0,,2,,,62,127
45162,note_on,0,0,0,,7,,,67,127
45162,note_on,0,0,0,,4,,,64,127
45420,note_off,258,0,0,,2,,,62,127
45424,note_off,4,0,0,,4,,,64,127
45424,note_off,0,0,0,,7,,,67,127
45424,note_off,0,0,0,,11,,,58,127
45424,note_on,0,0,0,,2,,,62,127
45424,note_on,0,0,0,,11,,,58,127
45424,note_on,0,0,0,,7,,,67,127
45424,note_on,0,0,0,,4,,,64,127
45682,note_off,258,0,0,,2,,,62,127
45686,note_off,4,0,0,,4,,,64,127
45686,note_off,0,0,0,,7,,,67,127
45686,note_off,0,0,0,,11,,,58,127
45686,note_on,0,0,0,,4,,,64,127
45686,note_on,0,0,0,,2,,,62,127
45686,note_on,0,0,0,,10,,,57,127
45817,note_off,131,0,0,,1,,,73,127
45817,note_on,0,0,0,,10,,,69,127
45948,note_off,131,0,0,,10,,,69,127
45948,note_off,0,0,0,,10,,,57,127
45948,note_off,0,0,0,,2,,,62,127
45948,note_off,0,0,0,,4,,,64,127
45948,note_off,0,0,0,,1,,,85,127
45948,note_on,0,0,0,,4,,,64,127
45948,note_on,0,0,0,,2,,,62,127
45948,note_on,0,0,0,,10,,,57,127
45948,note_on,0,0,0,,1,,,73,127
46079,note_off,131,0,0,,1,,,73,127
46079,note_on,0,0,0,,10,,,69,127
46210,note_off,131,0,0,,10,,,69,127
46210,note_off,0,0,0,,10,,,57,127
46210,note_off,0,0,0,,2,,,62,127
46210,note_off,0,0,0,,4,,,64,127
46210,note_on,0,0,0,,10,,,57,127
46210,note_on,0,0,0,,4,,,64,127
46210,note_on,0,0,0,,2,,,62,127
46210,note_on,0,0,0,,7,,,79,127
46341,note_off,131,0,0,,7,,,79,127
46341,note_on,0,0,0,,4,,,76,127
46472,note_off,131,0,0,,4,,,76,127
46472,note_off,0,0,0,,2,,,62,127
46472,note_off,0,0,0,,4,,,64,127
46472,note_off,0,0,0,,10,,,57,127
46472,note_on,0,0,0,,7,,,55,127
46472,note_on,0,0,0,,2,,,62,127
46472,note_on,0,0,0,,4,,,64,127
46472,note_on,0,0,0,,11,,,82,127
46472,note_on,0,0,0,,11,,,70,127
46734,note_off,262,0,0,,4,,,64,127
46734,note_off,0,0,0,,2,,,62,127
46734,note_off,0,0,0,,7,,,55,127
46734,note_on,0,0,0,,4,,,64,127
46734,note_on,0,0,0,,2,,,62,127
46734,note_on,0,0,0,,7,,,55,127
46996,note_off,262,0,0,,7,,,55,127
46996,note_off,0,0,0,,2,,,62,127
46996,note_off,0,0,0,,4,,,64,127
46996,note_on,0,0,0,,7,,,55,127
46996,note_on,0,0,0,,4,,,64,127
46996,note_on,0,0,0,,2,,,62,127
47258,note_off,262,0,0,,2,,,62,127
47258,note_off,0,0,0,,4,,,64,127
47258,note_off,0,0,0,,7,,,55,127
47258,note_on,0,0,0,,10,,,57,127
47258,note_on,0,0,0,,2,,,62,127
47258,note_on,0,0,0,,4,,,64,127
47389,note_off,131,0,0,,11,,,70,127
47389,note_on,0,0,0,,10,,,69,127
47520,note_off,131,0,0,,10,,,69,127
47520,note_off,0,0,0,,4,,,64,127
47520,note_off,0,0,0,,2,,,62,127
47520,note_off,0,0,0,,10,,,57,127
47520,note_off,0,0,0,,11,,,82,127
47520,note_on,0,0,0,,10,,,57,127
47520,note_on,0,0,0,,4,,,64,127
47520,note_on,0,0,0,,2,,,62,127
47520,note_on,0,0,0,,1,,,73,127
47651,note_off,131,0,0,,1,,,73,127
47651,note_on,0,0,0,,10,,,69,127
47782,note_off,131,0,0,,10,,,69,127
47782,note_off,0,0,0,,2,,,62,127
47782,note_off,0,0,0,,4,,,64,127
47782,note_off,0,0,0,,10,,,57,127
47782,note_on,0,0,0,,10,,,57,127
47782,note_on,0,0,0,,4,,,64,127
47782,note_on,0,0,0,,2,,,62,127
47782,note_on,0,0,0,,7,,,79,127
47913,note_off,131,0,0,,7,,,79,127
47913,note_on,0,0,0,,4,,,76,127
48044,note_off,131,0,0,,4,,,76,127
48044,note_off,0,0,0,,2,,,62,127
48044,note_off,0,0,0,,4,,,64,127
48044,note_off,0,0,0,,10,,,57,127
48044,note_on,0,0,0,,11,,,58,127
48044,note_on,0,0,0,,4,,,64,127
48044,note_on,0,0,0,,2,,,62,127
48044,note_on,0,0,0,,7,,,67,127
48044,note_on,0,0,0,,1,,,85,127
48044,note_on,0,0,0,,1,,,73,127
48240,note_off,196,0,0,,2,,,62,127
48305,note_off,65,0,0,,7,,,67,127
48305,note_off,0,0,0,,4,,,64,127
48305,note_off,0,0,0,,11,,,58,127
48305,note_on,0,0,0,,11,,,58,127
48305,note_on,0,0,0,,7,,,67,127
48305,note_on,0,0,0,,4,,,64,127
48305,note_on,0,0,0,,2,,,62,127
48501,note_off,196,0,0,,2,,,62,127
48566,note_off,65,0,0,,4,,,64,127
48566,note_off,0,0,0,,7,,,67,127
48566,note_off,0,0,0,,11,,,58,127
48566,note_on,0,0,0,,2,,,62,127
48566,note_on,0,0,0,,11,,,58,127
48566,note_on,0,0,0,,4,,,64,127
48566,note_on,0,0,0,,7,,,67,127
48762,note_off,196,0,0,,2,,,62,127
48827,note_off,65,0,0,,7,,,67,127
48827,note_off,0,0,0,,4,,,64,127
48827,note_off,0,0,0,,11,,,58,127
48827,note_on,0,0,0,,4,,,64,127
48827,note_on,0,0,0,,10,,,57,127
48827,note_on,0,0,0,,7,,,67,127
48958,note_off,131,0,0,,1,,,73,127
48958,note_on,0,0,0,,11,,,82,127
49089,note_off,131,0,0,,11,,,82,127
49089,note_off,0,0,0,,7,,,67,127
49089,note_off,0,0,0,,10,,,57,127
49089,note_off,0,0,0,,4,,,64,127
49089,note_off,0,0,0,,1,,,85,127
49089,note_on,0,0,0,,7,,,67,127
49089,note_on,0,0,0,,4,,,64,127
49089,note_on,0,0,0,,10,,,57,127
49089,note_on,0,0,0,,7,,,79,127
49220,note_off,131,0,0,,7,,,79,127
49220,note_on,0,0,0,,4,,,76,127
49351,note_off,131,0,0,,4,,,76,127
49351,note_off,0,0,0,,10,,,57,127
49351,note_off,0,0,0,,4,,,64,127
49351,note_off,0,0,0,,7,,,67,127
49351,note_on,0,0,0,,1,,,61,127
49351,note_on,0,0,0,,4,,,64,127
49351,note_on,0,0,0,,10,,,69,127
49351,note_on,0,0,0,,7,,,67,127
49351,note_on,0,0,0,,10,,,81,127
49482,note_off,131,0,0,,10,,,81,127
49482,note_on,0,0,0,,7,,,79,127
49613,note_off,131,0,0,,7,,,79,127
49613,note_off,0,0,0,,7,,,67,127
49613,note_off,0,0,0,,10,,,69,127
49613,note_off,0,0,0,,4,,,64,127
49613,note_off,0,0,0,,1,,,61,127
49613,note_on,0,0,0,,2,,,62,127
49613,note_on,0,0,0,,5,,,65,127
49613,note_on,0,0,0,,10,,,69,127
49613,note_on,0,0,0,,5,,,77,127
49744,note_off,131,0,0,,5,,,77,127
49744,note_on,0,0,0,,4,,,76,127
49875,note_off,131,0,0,,4,,,76,127
49875,note_on,0,0,0,,5,,,77,127
50006,note_off,131,0,0,,5,,,77,127
50006,note_on,0,0,0,,7,,,79,127
50137,note_off,131,0,0,,7,,,79,127
50137,note_off,0,0,0,,10,,,69,127
50137,note_off,0,0,0,,5,,,65,127
50137,note_off,0,0,0,,2,,,62,127
50137,note_on,0,0,0,,11,,,58,127
50137,note_on,0,0,0,,2,,,62,127
50137,note_on,0,0,0,,10,,,81,127
50268,note_off,131,0,0,,10,,,81,127
50268,note_on,0,0,0,,2,,,74,127
50399,note_off,131,0,0,,2,,,74,127
50399,note_off,0,0,0,,2,,,62,127
50399,note_off,0,0,0,,11,,,58,127
50399,note_on,0,0,0,,7,,,55,127
50399,note_on,0,0,0,,4,,,64,127
50399,note_on,0,0,0,,2,,,62,127
50399,note_on,0,0,0,,4,,,76,127
50530,note_off,131,0,0,,4,,,76,127
50530,note_on,0,0,0,,7,,,79,127
50661,note_off,131,0,0,,7,,,79,127
50661,note_off,0,0,0,,2,,,62,127
50661,note_off,0,0,0,,4,,,64,127
50661,note_off,0,0,0,,7,,,55,127
50661,note_on,0,0,0,,10,,,57,127
50661,note_on,0,0,0,,5,,,65,127
50661,note_on,0,0,0,,2,,,62,127
50661,note_on,0,0,0,,5,,,77,127
50792,note_off,131,0,0,,5,,,77,127
50792,note_on,0,0,0,,4,,,76,127
50923,note_off,131,0,0,,4,,,76,127
50923,note_off,0,0,0,,2,,,62,127
50923,note_off,0,0,0,,5,,,65,127
50923,note_off,0,0,0,,10,,,57,127
50923,note_on,0,0,0,,4,,,64,127
50923,note_on,0,0,0,,10,,,57,127
50923,note_on,0,0,0,,2,,,74,127
51054,note_off,131,0,0,,2,,,74,127
51054,note_on,0,0,0,,1,,,73,127
51185,note_off,131,0,0,,1,,,73,127
51185,note_off,0,0,0,,10,,,57,127
51185,note_off,0,0,0,,4,,,64,127
51185,note_on,0,0,0,,2,,,62,127
51185,note_on,0,0,0,,5,,,65,127
51185,note_on,0,0,0,,5,,,77,127
51316,note_off,131,0,0,,5,,,77,127
51316,note_on,0,0,0,,4,,,76,127
51447,note_off,131,0,0,,4,,,76,127
51447,note_off,0,0,0,,5,,,65,127
51447,note_off,0,0,0,,2,,,62,127
51447,note_on,0,0,0,,7,,,67,127
51447,note_on,0,0,0,,4,,,64,127
51447,note_on,0,0,0,,5,,,77,127
51578,note_off,131,0,0,,5,,,77,127
51578,note_on,0,0,0,,7,,,79,127
51709,note_off,131,0,0,,7,,,79,127
51709,note_off,0,0,0,,4,,,64,127
51709,note_off,0,0,0,,7,,,67,127
51709,note_on,0,0,0,,10,,,69,127
51709,note_on,0,0,0,,5,,,65,127
51709,note_on,0,0,0,,10,,,81,127
51840,note_off,131,0,0,,10,,,81,127
51840,note_on,0,0,0,,2,,,74,127
51971,note_off,131,0,0,,2,,,74,127
51971,note_off,0,0,0,,5,,,65,127
51971,note_off,0,0,0,,10,,,69,127
51971,note_on,0,0,0,,7,,,67,127
51971,note_on,0,0,0,,11,,,70,127
51971,note_on,0,0,0,,4,,,76,127
52102,note_off,131,0,0,,4,,,76,127
52102,note_on,0,0,0,,7,,,79,127
52233,note_off,131,0,0,,7,,,79,127
52233,note_off,0,0,0,,11,,,70,127
52233,note_off,0,0,0,,7,,,67,127
52233,note_on,0,0,0,,10,,,69,127
52233,note_on,0,0,0,,5,,,77,127
52364,note_off,131,0,0,,5,,,77,127
52364,note_on,0,0,0,,4,,,76,127
52495,note_off,131,0,0,,4,,,76,127
52495,note_on,0,0,0,,10,,,57,127
52495,note_on,0,0,0,,2,,,74,127
52626,note_off,131,0,0,,2,,,74,127
52626,note_on,0,0,0,,1,,,73,127
52757,note_off,131,0,0,,1,,,73,127
52757,note_off,0,0,0,,10,,,57,127
52757,note_off,0,0,0,,10,,,69,127
52757,note_on,0,0,0,,2,,,62,127
52757,note_on,0,0,0,,5,,,65,127
52757,note_on,0,0,0,,5,,,77,127
52888,note_off,131,0,0,,5,,,77,127
52888,note_on,0,0,0,,4,,,76,127
53019,note_off,131,0,0,,4,,,76,127
53019,note_off,0,0,0,,5,,,65,127
53019,note_off,0,0,0,,2,,,62,127
53019,note_on,0,0,0,,7,,,67,127
53019,note_on,0,0,0,,4,,,64,127
53019,note_on,0,0,0,,5,,,77,127
53150,note_off,131,0,0,,5,,,77,127
53150,note_on,0,0,0,,7,,,79,127
53281,note_off,131,0,0,,7,,,79,127
53281,note_off,0,0,0,,4,,,64,127
53281,note_off,0,0,0,,7,,,67,127
53281,note_on,0,0,0,,5,,,65,127
53281,note_on,0,0,0,,10,,,69,127
53281,note_on,0,0,0,,10,,,81,127
53412,note_off,131,0,0,,10,,,81,127
53412,note_on,0,0,0,,2,,,74,127
53543,note_off,131,0,0,,2,,,74,127
53543,note_off,0,0,0,,10,,,69,127
53543,note_off,0,0,0,,5,,,65,127
53543,note_on,0,0,0,,11,,,70,127
53543,note_on,0,0,0,,7,,,67,127
53543,note_on,0,0,0,,4,,,76,127
53674,note_off,131,0,0,,4,,,76,127
53674,note_on,0,0,0,,7,,,79,127
53805,note_off,131,0,0,,7,,,79,127
53805,note_off,0,0,0,,7,,,67,127
53805,note_off,0,0,0,,11,,,70,127
53805,note_on,0,0,0,,10,,,69,127
53805,note_on,0,0,0,,5,,,77,127
53936,note_off,131,0,0,,5,,,77,127
53936,note_on,0,0,0,,4,,,76,127
54067,note_off,131,0,0,,4,,,76,127
54067,note_on,0,0,0,,10,,,57,127
54067,note_on,0,0,0,,2,,,74,127
54198,note_off,131,0,0,,2,,,74,127
54198,note_on,0,0,0,,1,,,73,127
54329,note_off,131,0,0,,1,,,73,127
54329,note_off,0,0,0,,10,,,57,127
54329,note_off,0,0,0,,10,,,69,127
54329,note_on,0,0,0,,2,,,62,127
54329,note_on,0,0,0,,4,,,76,127
54373,note_on,44,0,0,,2,,,74,127
54395,note_off,22,0,0,,4,,,76,127
54417,note_on,22,0,0,,4,,,76,127
54439,note_off,22,0,0,,2,,,74,127
54461,note_off,22,0,0,,2,,,62,127
54461,note_on,0,0,0,,10,,,57,127
54461,note_on,0,0,0,,2,,,74,127
54483,note_off,22,0,0,,4,,,76,127
54505,note_on,22,0,0,,4,,,76,127
54527,note_off,22,0,0,,2,,,74,127
54549,note_on,22,0,0,,2,,,74,127
54571,note_off,22,0,0,,4,,,76,127
54593,note_off,22,0,0,,10,,,57,127
54593,note_on,0,0,0,,6,,,54,127
54724,note_off,131,0,0,,6,,,54,127
54724,note_on,0,0,0,,2,,,50,127
54855,note_off,131,0,0,,2,,,50,127
54855,note_on,0,0,0,,10,,,45,127
54986,note_off,131,0,0,,10,,,45,127
54986,note_on,0,0,0,,6,,,42,127
55073,note_off,87,0,0,,2,,,74,127
55117,note_off,44,0,0,,6,,,42,127
55117,note_on,0,0,0,,2,,,38,127
55117,note_on,0,0,0,,2,,,50,127
55248,note_on,131,0,0,,2,,,86,127
55379,note_off,131,0,0,,2,,,86,127
55379,note_off,0,0,0,,2,,,50,127
55379,note_off,0,0,0,,2,,,38,127
55379,note_on,0,0,0,,6,,,42,127
55379,note_on,0,0,0,,6,,,54,127
55379,note_on,0,0,0,,6,,,78,127
55510,note_off,131,0,0,,6,,,78,127
55510,note_on,0,0,0,,7,,,79,127
55641,note_off,131,0,0,,7,,,79,127
55641,note_off,0,0,0,,6,,,54,127
55641,note_off,0,0,0,,6,,,42,127
55641,note_on,0,0,0,,2,,,38,127
55641,note_on,0,0,0,,2,,,50,127
55641,note_on,0,0,0,,10,,,81,127
55772,note_off,131,0,0,,10,,,81,127
55772,note_on,0,0,0,,12,,,83,127
55903,note_off,131,0,0,,12,,,83,127
55903,note_off,0,0,0,,2,,,50,127
55903,note_off,0,0,0,,2,,,38,127
55903,note_on,0,0,0,,10,,,45,127
55903,note_on,0,0,0,,10,,,57,127
55903,note_on,0,0,0,,12,,,83,127
55903,note_on,0,0,0,,10,,,81,127
56034,note_off,131,0,0,,10,,,81,127
56034,note_off,0,0,0,,12,,,83,127
56034,note_on,0,0,0,,7,,,79,127
56165,note_off,131,0,0,,7,,,79,127
56165,note_off,0,0,0,,10,,,57,127
56165,note_off,0,0,0,,10,,,45,127
56165,note_on,0,0,0,,1,,,49,127
56165,note_on,0,0,0,,1,,,61,127
56165,note_on,0,0,0,,10,,,81,127
56296,note_off,131,0,0,,10,,,81,127
56296,note_on,0,0,0,,12,,,83,127
56427,note_off,131,0,0,,12,,,83,127
56427,note_off,0,0,0,,1,,,61,127
56427,note_off,0,0,0,,1,,,49,127
56427,note_on,0,0,0,,10,,,45,127
56427,note_on,0,0,0,,10,,,57,127
56427,note_on,0,0,0,,10,,,81,127
56689,note_off,262,0,0,,10,,,57,127
56689,note_off,0,0,0,,10,,,45,127
56689,note_on,0,0,0,,2,,,50,127
56689,note_on,0,0,0,,2,,,62,127
56820,note_off,131,0,0,,10,,,81,127
56820,note_on,0,0,0,,2,,,86,127
56951,note_off,131,0,0,,2,,,86,127
56951,note_off,0,0,0,,2,,,62,127
56951,note_off,0,0,0,,2,,,50,127
56951,note_on,0,0,0,,6,,,54,127
56951,note_on,0,0,0,,6,,,66,127
56951,note_on,0,0,0,,6,,,78,127
57082,note_off,131,0,0,,6,,,78,127
57082,note_on,0,0,0,,7,,,79,127
57213,note_off,131,0,0,,7,,,79,127
57213,note_off,0,0,0,,6,,,66,127
57213,note_off,0,0,0,,6,,,54,127
57213,note_on,0,0,0,,2,,,50,127
57213,note_on,0,0,0,,2,,,62,127
57213,note_on,0,0,0,,10,,,81,127
57344,note_off,131,0,0,,10,,,81,127
57344,note_on,0,0,0,,12,,,83,127
57475,note_off,131,0,0,,12,,,83,127
57475,note_off,0,0,0,,2,,,62,127
57475,note_off,0,0,0,,2,,,50,127
57475,note_on,0,0,0,,10,,,57,127
57475,note_on,0,0,0,,10,,,69,127
57475,note_on,0,0,0,,10,,,81,127
57475,note_on,0,0,0,,12,,,83,127
57606,note_off,131,0,0,,12,,,83,127
57606,note_off,0,0,0,,10,,,81,127
57606,note_on,0,0,0,,7,,,79,127
57737,note_off,131,0,0,,7,,,79,127
57737,note_off,0,0,0,,10,,,69,127
57737,note_off,0,0,0,,10,,,57,127
57737,note_on,0,0,0,,1,,,61,127
57737,note_on,0,0,0,,1,,,73,127
57737,note_on,0,0,0,,10,,,81,127
57868,note_off,131,0,0,,10,,,81,127
57868,note_on,0,0,0,,12,,,83,127
57999,note_off,131,0,0,,12,,,83,127
57999,note_off,0,0,0,,1,,,73,127
57999,note_off,0,0,0,,1,,,61,127
57999,note_on,0,0,0,,10,,,57,127
57999,note_on,0,0,0,,10,,,69,127
57999,note_on,0,0,0,,10,,,81,127
58261,note_off,262,0,0,,10,,,69,127
58261,note_off,0,0,0,,10,,,57,127
58261,note_on,0,0,0,,2,,,38,127
58261,note_on,0,0,0,,2,,,50,127
58392,note_off,131,0,0,,10,,,81,127
58392,note_on,0,0,0,,2,,,86,127
58523,note_off,131,0,0,,2,,,86,127
58523,note_off,0,0,0,,2,,,50,127
58523,note_off,0,0,0,,2,,,38,127
58523,note_on,0,0,0,,6,,,42,127
58523,note_on,0,0,0,,6,,,54,127
58523,note_on,0,0,0,,6,,,78,127
58654,note_off,131,0,0,,6,,,78,127
58654,note_on,0,0,0,,7,,,79,127
58785,note_off,131,0,0,,7,,,79,127
58785,note_off,0,0,0,,6,,,54,127
58785,note_off,0,0,0,,6,,,42,127
58785,note_on,0,0,0,,2,,,38,127
58785,note_on,0,0,0,,2,,,50,127
58785,note_on,0,0,0,,10,,,81,127
58916,note_off,131,0,0,,10,,,81,127
58916,note_on,0,0,0,,12,,,83,127
59047,note_off,131,0,0,,12,,,83,127
59047,note_off,0,0,0,,2,,,50,127
59047,note_off,0,0,0,,2,,,38,127
59047,note_on,0,0,0,,10,,,45,127
59047,note_on,0,0,0,,10,,,57,127
59047,note_on,0,0,0,,10,,,81,127
59178,note_off,131,0,0,,10,,,81,127
59178,note_on,0,0,0,,7,,,79,127
59309,note_off,131,0,0,,7,,,79,127
59309,note_on,0,0,0,,6,,,78,127
59440,note_off,131,0,0,,6,,,78,127
59440,note_on,0,0,0,,4,,,76,127
59571,note_off,131,0,0,,4,,,76,127
59571,note_off,0,0,0,,10,,,57,127
59571,note_off,0,0,0,,10,,,45,127
59571,note_on,0,0,0,,12,,,47,127
59571,note_on,0,0,0,,12,,,59,127
59571,note_on,0,0,0,,2,,,74,127
59702,note_off,131,0,0,,2,,,74,127
59702,note_on,0,0,0,,6,,,78,127
59833,note_off,131,0,0,,6,,,78,127
59833,note_off,0,0,0,,12,,,59,127
59833,note_off,0,0,0,,12,,,47,127
59833,note_on,0,0,0,,7,,,43,127
59833,note_on,0,0,0,,7,,,55,127
59833,note_on,0,0,0,,4,,,76,127
59964,note_off,131,0,0,,4,,,76,127
59964,note_on,0,0,0,,7,,,79,127
60095,note_off,131,0,0,,7,,,79,127
60095,note_off,0,0,0,,7,,,55,127
60095,note_off,0,0,0,,7,,,43,127
60095,note_on,0,0,0,,10,,,57,127
60095,note_on,0,0,0,,6,,,78,127
60226,note_off,131,0,0,,6,,,78,127
60226,note_on,0,0,0,,4,,,76,127
60357,note_off,131,0,0,,4,,,76,127
60357,note_on,0,0,0,,10,,,45,127
60357,note_on,0,0,0,,2,,,74,127
60488,note_off,131,0,0,,2,,,74,127
60488,note_on,0,0,0,,1,,,73,127
60619,note_off,131,0,0,,1,,,73,127
60619,note_off,0,0,0,,10,,,45,127
60619,note_off,0,0,0,,10,,,57,127
60619,note_on,0,0,0,,2,,,38,127
60619,note_on,0,0,0,,2,,,50,127
60619,note_on,0,0,0,,2,,,74,127
60750,note_on,131,0,0,,2,,,86,127
60878,note_off,128,0,0,,2,,,74,127
60881,note_off,3,0,0,,2,,,86,127
60881,note_off,0,0,0,,2,,,50,127
60881,note_off,0,0,0,,2,,,38,127
60881,note_on,0,0,0,,6,,,42,127
60881,note_on,0,0,0,,6,,,54,127
60881,note_on,0,0,0,,6,,,78,127
61012,note_off,131,0,0,,6,,,78,127
61012,note_on,0,0,0,,7,,,79,127
61143,note_off,131,0,0,,7,,,79,127
61143,note_off,0,0,0,,6,,,54,127
61143,note_off,0,0,0,,6,,,42,127
61143,note_on,0,0,0,,2,,,38,127
61143,note_on,0,0,0,,2,,,50,127
61143,note_on,0,0,0,,10,,,81,127
61274,note_off,131,0,0,,10,,,81,127
61274,note_on,0,0,0,,12,,,83,127
61405,note_off,131,0,0,,12,,,83,127
61405,note_off,0,0,0,,2,,,50,127
61405,note_off,0,0,0,,2,,,38,127
61405,note_on,0,0,0,,10,,,45,127
61405,note_on,0,0,0,,10,,,57,127
61405,note_on,0,0,0,,10,,,81,127
61405,note_on,0,0,0,,12,,,83,127
61536,note_off,131,0,0,,12,,,83,127
61536,note_off,0,0,0,,10,,,81,127
61536,note_on,0,0,0,,7,,,79,127
61667,note_off,131,0,0,,7,,,79,127
61667,note_off,0,0,0,,10,,,57,127
61667,note_off,0,0,0,,10,,,45,127
61667,note_on,0,0,0,,1,,,49,127
61667,note_on,0,0,0,,1,,,61,127
61667,note_on,0,0,0,,10,,,81,127
61798,note_off,131,0,0,,10,,,81,127
61798,note_on,0,0,0,,12,,,83,127
61929,note_off,131,0,0,,12,,,83,127
61929,note_off,0,0,0,,1,,,61,127
61929,note_off,0,0,0,,1,,,49,127
61929,note_on,0,0,0,,10,,,45,127
61929,note_on,0,0,0,,10,,,57,127
61929,note_on,0,0,0,,10,,,81,127
62191,note_off,262,0,0,,10,,,57,127
62191,note_off,0,0,0,,10,,,45,127
62191,note_on,0,0,0,,2,,,50,127
62191,note_on,0,0,0,,2,,,62,127
62322,note_off,131,0,0,,10,,,81,127
62322,note_on,0,0,0,,2,,,86,127
62453,note_off,131,0,0,,2,,,86,127
62453,note_off,0,0,0,,2,,,62,127
62453,note_off,0,0,0,,2,,,50,127
62453,note_on,0,0,0,,6,,,54,127
62453,note_on,0,0,0,,6,,,66,127
62453,note_on,0,0,0,,6,,,78,127
62584,note_off,131,0,0,,6,,,78,127
62584,note_on,0,0,0,,7,,,79,127
62715,note_off,131,0,0,,7,,,79,127
62715,note_off,0,0,0,,6,,,66,127
62715,note_off,0,0,0,,6,,,54,127
62715,note_on,0,0,0,,2,,,50,127
62715,note_on,0,0,0,,2,,,62,127
62715,note_on,0,0,0,,10,,,81,127
62846,note_off,131,0,0,,10,,,81,127
62846,note_on,0,0,0,,12,,,83,127
62977,note_off,131,0,0,,12,,,83,127
62977,note_off,0,0,0,,2,,,62,127
62977,note_off,0,0,0,,2,,,50,127
62977,note_on,0,0,0,,10,,,57,127
62977,note_on,0,0,0,,10,,,69,127
62977,note_on,0,0,0,,10,,,81,127
62977,note_on,0,0,0,,12,,,83,127
63108,note_off,131,0,0,,12,,,83,127
63108,note_off,0,0,0,,10,,,81,127
63108,note_on,0,0,0,,7,,,79,127
63239,note_off,131,0,0,,7,,,79,127
63239,note_off,0,0,0,,10,,,69,127
63239,note_off,0,0,0,,10,,,57,127
63239,note_on,0,0,0,,1,,,61,127
63239,note_on,0,0,0,,1,,,73,127
63239,note_on,0,0,0,,10,,,81,127
63370,note_off,131,0,0,,10,,,81,127
63370,note_on,0,0,0,,12,,,83,127
63501,note_off,131,0,0,,12,,,83,127
63501,note_off,0,0,0,,1,,,73,127
63501,note_off,0,0,0,,1,,,61,127
63501,note_on,0,0,0,,10,,,57,127
63501,note_on,0,0,0,,10,,,69,127
63501,note_on,0,0,0,,10,,,81,127
63763,note_off,262,0,0,,10,,,69,127
63763,note_off,0,0,0,,10,,,57,127
63763,note_on,0,0,0,,2,,,50,127
63763,note_on,0,0,0,,2,,,62,127
63894,note_off,131,0,0,,10,,,81,127
63894,note_on,0,0,0,,2,,,86,127
64025,note_off,131,0,0,,2,,,86,127
64025,note_off,0,0,0,,2,,,62,127
64025,note_off,0,0,0,,2,,,50,127
64025,note_on,0,0,0,,6,,,54,127
64025,note_on,0,0,0,,6,,,66,127
64025,note_on,0,0,0,,6,,,78,127
64156,note_off,131,0,0,,6,,,78,127
64156,note_on,0,0,0,,7,,,79,127
64287,note_off,131,0,0,,7,,,79,127
64287,note_off,0,0,0,,6,,,66,127
64287,note_off,0,0,0,,6,,,54,127
64287,note_on,0,0,0,,2,,,50,127
64287,note_on,0,0,0,,2,,,62,127
64287,note_on,0,0,0,,10,,,81,127
64418,note_off,131,0,0,,10,,,81,127
64418,note_on,0,0,0,,12,,,83,127
64549,note_off,131,0,0,,12,,,83,127
64549,note_off,0,0,0,,2,,,62,127
64549,note_off,0,0,0,,2,,,50,127
64549,note_on,0,0,0,,10,,,45,127
64549,note_on,0,0,0,,10,,,81,127
64680,note_off,131,0,0,,10,,,81,127
64680,note_on,0,0,0,,7,,,79,127
64811,note_off,131,0,0,,7,,,79,127
64811,note_on,0,0,0,,6,,,78,127
64942,note_off,131,0,0,,6,,,78,127
64942,note_on,0,0,0,,4,,,76,127
65073,note_off,131,0,0,,4,,,76,127
65073,note_off,0,0,0,,10,,,45,127
65073,note_on,0,0,0,,12,,,47,127
65073,note_on,0,0,0,,2,,,74,127
65204,note_off,131,0,0,,2,,,74,127
65204,note_on,0,0,0,,6,,,78,127
65335,note_off,131,0,0,,6,,,78,127
65335,note_off,0,0,0,,12,,,47,127
65335,note_on,0,0,0,,7,,,43,127
65335,note_on,0,0,0,,4,,,76,127
65466,note_off,131,0,0,,4,,,76,127
65466,note_on,0,0,0,,7,,,79,127
65597,note_off,131,0,0,,7,,,79,127
65597,note_off,0,0,0,,7,,,43,127
65597,note_on,0,0,0,,10,,,45,127
65597,note_on,0,0,0,,6,,,78,127
65728,note_off,131,0,0,,6,,,78,127
65728,note_on,0,0,0,,4,,,76,127
65859,note_off,131,0,0,,4,,,76,127
65859,note_on,0,0,0,,10,,,33,127
65859,note_on,0,0,0,,2,,,74,127
65990,note_off,131,0,0,,2,,,74,127
65990,note_on,0,0,0,,1,,,73,127
66121,note_off,131,0,0,,1,,,73,127
66121,note_off,0,0,0,,10,,,33,127
66121,note_off,0,0,0,,10,,,45,127
66121,note_on,0,0,0,,2,,,38,127
66121,note_on,0,0,0,,2,,,50,127
66121,note_on,0,0,0,,2,,,74,127
66252,note_off,131,0,0,,2,,,74,127
66252,note_on,0,0,0,,10,,,81,127
66383,note_off,131,0,0,,10,,,81,127
66383,note_on,0,0,0,,6,,,78,127
66514,note_off,131,0,0,,6,,,78,127
66514,note_on,0,0,0,,2,,,74,127
66645,note_off,131,0,0,,2,,,74,127
66645,note_off,0,0,0,,2,,,50,127
66645,note_off,0,0,0,,2,,,38,127
66645,note_on,0,0,0,,6,,,54,127
66645,note_on,0,0,0,,2,,,62,127
66645,note_on,0,0,0,,10,,,69,127
66776,note_off,131,0,0,,10,,,69,127
66776,note_on,0,0,0,,1,,,73,127
66907,note_off,131,0,0,,1,,,73,127
66907,note_off,0,0,0,,6,,,54,127
66907,note_on,0,0,0,,7,,,55,127
66907,note_on,0,0,0,,12,,,71,127
67038,note_off,131,0,0,,12,,,71,127
67038,note_on,0,0,0,,2,,,74,127
67169,note_off,131,0,0,,2,,,74,127
67169,note_off,0,0,0,,7,,,55,127
67169,note_off,0,0,0,,2,,,62,127
67169,note_on,0,0,0,,10,,,57,127
67169,note_on,0,0,0,,1,,,73,127
67300,note_off,131,0,0,,1,,,73,127
67300,note_on,0,0,0,,4,,,76,127
67431,note_off,131,0,0,,4,,,76,127
67431,note_on,0,0,0,,4,,,64,127
67431,note_on,0,0,0,,2,,,74,127
67562,note_off,131,0,0,,2,,,74,127
67562,note_on,0,0,0,,1,,,73,127
67693,note_off,131,0,0,,1,,,73,127
67693,note_off,0,0,0,,4,,,64,127
67693,note_off,0,0,0,,10,,,57,127
67693,note_on,0,0,0,,2,,,62,127
67693,note_on,0,0,0,,2,,,74,127
67824,note_off,131,0,0,,2,,,74,127
67824,note_on,0,0,0,,10,,,69,127
67955,note_off,131,0,0,,10,,,69,127
67955,note_on,0,0,0,,2,,,50,127
67955,note_on,0,0,0,,6,,,66,127
68086,note_off,131,0,0,,6,,,66,127
68086,note_on,0,0,0,,10,,,69,127
68216,note_off,130,0,0,,2,,,62,127
68217,note_off,1,0,0,,10,,,69,127
68217,note_off,0,0,0,,2,,,50,127
68217,note_on,0,0,0,,6,,,54,127
68217,note_on,0,0,0,,2,,,62,127
68348,note_off,131,0,0,,2,,,62,127
68348,note_on,0,0,0,,6,,,66,127
68479,note_off,131,0,0,,6,,,66,127
68479,note_off,0,0,0,,6,,,54,127
68479,note_on,0,0,0,,7,,,55,127
68479,note_on,0,0,0,,4,,,64,127
68610,note_off,131,0,0,,4,,,64,127
68610,note_on,0,0,0,,7,,,67,127
68741,note_off,131,0,0,,7,,,67,127
68741,note_off,0,0,0,,7,,,55,127
68741,note_on,0,0,0,,10,,,57,127
68741,note_on,0,0,0,,6,,,66,127
68872,note_off,131,0,0,,6,,,66,127
68872,note_on,0,0,0,,4,,,64,127
69003,note_off,131,0,0,,4,,,64,127
69003,note_on,0,0,0,,10,,,45,127
69003,note_on,0,0,0,,2,,,62,127
69134,note_off,131,0,0,,2,,,62,127
69134,note_on,0,0,0,,1,,,61,127
69265,note_off,131,0,0,,1,,,61,127
69265,note_off,0,0,0,,10,,,45,127
69265,note_off,0,0,0,,10,,,57,127
69265,note_on,0,0,0,,2,,,50,127
69265,note_on,0,0,0,,2,,,62,127
69396,note_off,131,0,0,,2,,,62,127
69396,note_on,0,0,0,,10,,,81,127
69527,note_off,131,0,0,,10,,,81,127
69527,note_on,0,0,0,,6,,,78,127
69658,note_off,131,0,0,,6,,,78,127
69658,note_on,0,0,0,,2,,,74,127
69789,note_off,131,0,0,,2,,,74,127
69789,note_off,0,0,0,,2,,,50,127
69789,note_on,0,0,0,,2,,,62,127
69789,note_on,0,0,0,,6,,,54,127
69789,note_on,0,0,0,,10,,,69,127
69920,note_off,131,0,0,,10,,,69,127
69920,note_on,0,0,0,,1,,,73,127
70051,note_off,131,0,0,,1,,,73,127
70051,note_off,0,0,0,,6,,,54,127
70051,note_on,0,0,0,,7,,,55,127
70051,note_on,0,0,0,,12,,,71,127
70182,note_off,131,0,0,,12,,,71,127
70182,note_on,0,0,0,,2,,,74,127
70313,note_off,131,0,0,,2,,,74,127
70313,note_off,0,0,0,,7,,,55,127
70313,note_off,0,0,0,,2,,,62,127
70313,note_on,0,0,0,,10,,,57,127
70313,note_on,0,0,0,,1,,,73,127
70444,note_off,131,0,0,,1,,,73,127
70444,note_on,0,0,0,,4,,,76,127
70575,note_off,131,0,0,,4,,,76,127
70575,note_on,0,0,0,,4,,,64,127
70575,note_on,0,0,0,,2,,,74,127
70706,note_off,131,0,0,,2,,,74,127
70706,note_on,0,0,0,,1,,,73,127
70837,note_off,131,0,0,,1,,,73,127
70837,note_off,0,0,0,,4,,,64,127
70837,note_off,0,0,0,,10,,,57,127
70837,note_on,0,0,0,,2,,,62,127
70837,note_on,0,0,0,,2,,,74,127
70968,note_off,131,0,0,,2,,,74,127
70968,note_on,0,0,0,,10,,,69,127
71099,note_off,131,0,0,,10,,,69,127
71099,note_on,0,0,0,,2,,,50,127
71099,note_on,0,0,0,,6,,,66,127
71230,note_off,131,0,0,,6,,,66,127
71230,note_on,0,0,0,,10,,,69,127
71360,note_off,130,0,0,,2,,,62,127
71361,note_off,1,0,0,,10,,,69,127
71361,note_off,0,0,0,,2,,,50,127
71361,note_on,0,0,0,,6,,,54,127
71361,note_on,0,0,0,,2,,,62,127
71492,note_off,131,0,0,,2,,,62,127
71492,note_on,0,0,0,,6,,,66,127
71623,note_off,131,0,0,,6,,,66,127
71623,note_off,0,0,0,,6,,,54,127
71623,note_on,0,0,0,,7,,,55,127
71623,note_on,0,0,0,,4,,,64,127
71754,note_off,131,0,0,,4,,,64,127
71754,note_on,0,0,0,,7,,,67,127
71885,note_off,131,0,0,,7,,,67,127
71885,note_off,0,0,0,,7,,,55,127
71885,note_on,0,0,0,,10,,,57,127
71885,note_on,0,0,0,,6,,,66,127
72016,note_off,131,0,0,,6,,,66,127
72016,note_on,0,0,0,,4,,,64,127
72147,note_off,131,0,0,,4,,,64,127
72147,note_on,0,0,0,,10,,,45,127
72147,note_on,0,0,0,,2,,,62,127
72278,note_off,131,0,0,,2,,,62,127
72278,note_on,0,0,0,,1,,,61,127
72409,note_off,131,0,0,,1,,,61,127
72409,note_off,0,0,0,,10,,,45,127
72409,note_off,0,0,0,,10,,,57,127
72409,note_on,0,0,0,,2,,,38,127
72409,note_on,0,0,0,,4,,,64,127
72453,note_on,44,0,0,,2,,,62,127
72475,note_off,22,0,0,,4,,,64,127
72497,note_on,22,0,0,,4,,,64,127
72519,note_off,22,0,0,,2,,,62,127
72541,note_on,22,0,0,,2,,,62,127
72563,note_off,22,0,0,,4,,,64,127
72585,note_on,22,0,0,,4,,,64,127
72607,note_off,22,0,0,,2,,,62,127
72629,note_on,22,0,0,,2,,,62,127
72651,note_off,22,0,0,,4,,,64,127
73153,note_off,502,0,0,,2,,,62,127
73197,note_off,44,0,0,,2,,,38,127
73197,note_on,0,0,0,,2,,,62,127
73459,note_off,262,0,0,,2,,,62,127
73459,note_on,0,0,0,,10,,,69,127
73721,note_off,262,0,0,,10,,,69,127
73721,note_on,0,0,0,,2,,,74,127
73983,note_off,262,0,0,,2,,,74,127
73983,note_on,0,0,0,,10,,,57,127
73983,note_on,0,0,0,,2,,,74,127
74114,note_off,131,0,0,,2,,,74,127
74114,note_on,0,0,0,,0,,,72,127
74179,note_off,65,0,0,,0,,,72,127
74179,note_on,0,0,0,,2,,,74,127
74244,note_off,65,0,0,,2,,,74,127
74244,note_off,0,0,0,,10,,,57,127
74244,note_on,0,0,0,,4,,,64,127
74244,note_on,0,0,0,,0,,,72,127
74506,note_off,262,0,0,,0,,,72,127
74506,note_off,0,0,0,,4,,,64,127
74506,note_on,0,0,0,,7,,,67,127
74506,note_on,0,0,0,,0,,,72,127
74768,note_off,262,0,0,,7,,,67,127
74768,note_on,0,0,0,,6,,,66,127
74899,note_off,131,0,0,,0,,,72,127
74899,note_on,0,0,0,,10,,,69,127
75030,note_off,131,0,0,,10,,,69,127
75030,note_off,0,0,0,,6,,,66,127
75030,note_on,0,0,0,,4,,,64,127
75030,note_on,0,0,0,,6,,,78,127
75161,note_off,131,0,0,,6,,,78,127
75161,note_on,0,0,0,,7,,,79,127
75292,note_off,131,0,0,,7,,,79,127
75292,note_off,0,0,0,,4,,,64,127
75292,note_on,0,0,0,,2,,,62,127
75292,note_on,0,0,0,,10,,,81,127
75423,note_off,131,0,0,,10,,,81,127
75423,note_on,0,0,0,,0,,,72,127
75554,note_off,131,0,0,,0,,,72,127
75554,note_off,0,0,0,,2,,,62,127
75554,note_on,0,0,0,,0,,,72,127
75685,note_off,131,0,0,,0,,,72,127
75685,note_on,0,0,0,,2,,,62,127
75685,note_on,0,0,0,,12,,,71,127
75816,note_off,131,0,0,,2,,,62,127
75816,note_on,0,0,0,,7,,,67,127
75947,note_off,131,0,0,,7,,,67,127
75947,note_off,0,0,0,,12,,,71,127
75947,note_on,0,0,0,,10,,,69,127
75947,note_on,0,0,0,,0,,,72,127
76078,note_off,131,0,0,,0,,,72,127
76078,note_off,0,0,0,,10,,,69,127
76078,note_on,0,0,0,,12,,,71,127
76078,note_on,0,0,0,,2,,,74,127
76208,note_off,130,0,0,,12,,,71,127
76209,note_off,1,0,0,,2,,,74,127
76209,note_on,0,0,0,,7,,,67,127
76209,note_on,0,0,0,,12,,,71,127
76340,note_off,131,0,0,,12,,,71,127
76340,note_on,0,0,0,,12,,,71,127
76471,note_off,131,0,0,,12,,,71,127
76471,note_off,0,0,0,,7,,,67,127
76471,note_on,0,0,0,,2,,,62,127
76471,note_on,0,0,0,,10,,,69,127
76602,note_off,131,0,0,,2,,,62,127
76602,note_on,0,0,0,,6,,,66,127
76733,note_off,131,0,0,,6,,,66,127
76733,note_off,0,0,0,,10,,,69,127
76733,note_on,0,0,0,,7,,,67,127
76733,note_on,0,0,0,,12,,,71,127
76864,note_off,131,0,0,,12,,,71,127
76864,note_off,0,0,0,,7,,,67,127
76864,note_on,0,0,0,,10,,,69,127
76864,note_on,0,0,0,,0,,,72,127
76994,note_off,130,0,0,,10,,,69,127
76995,note_off,1,0,0,,0,,,72,127
76995,note_on,0,0,0,,6,,,66,127
76995,note_on,0,0,0,,10,,,69,127
77126,note_off,131,0,0,,10,,,69,127
77126,note_on,0,0,0,,0,,,72,127
77257,note_off,131,0,0,,0,,,72,127
77257,note_off,0,0,0,,6,,,66,127
77257,note_on,0,0,0,,2,,,62,127
77257,note_on,0,0,0,,12,,,71,127
77388,note_off,131,0,0,,2,,,62,127
77388,note_on,0,0,0,,7,,,67,127
77519,note_off,131,0,0,,7,,,67,127
77519,note_off,0,0,0,,12,,,71,127
77519,note_on,0,0,0,,10,,,69,127
77519,note_on,0,0,0,,0,,,72,127
77650,note_off,131,0,0,,0,,,72,127
77650,note_off,0,0,0,,10,,,69,127
77650,note_on,0,0,0,,12,,,71,127
77650,note_on,0,0,0,,2,,,74,127
77780,note_off,130,0,0,,12,,,71,127
77781,note_off,1,0,0,,2,,,74,127
77781,note_on,0,0,0,,7,,,67,127
77781,note_on,0,0,0,,12,,,71,127
77912,note_off,131,0,0,,12,,,71,127
77912,note_on,0,0,0,,12,,,71,127
78043,note_off,131,0,0,,12,,,71,127
78043,note_off,0,0,0,,7,,,67,127
78043,note_on,0,0,0,,2,,,62,127
78043,note_on,0,0,0,,10,,,69,127
78174,note_off,131,0,0,,2,,,62,127
78174,note_on,0,0,0,,6,,,66,127
78305,note_off,131,0,0,,6,,,66,127
78305,note_off,0,0,0,,10,,,69,127
78305,note_on,0,0,0,,7,,,67,127
78305,note_on,0,0,0,,12,,,71,127
78436,note_off,131,0,0,,12,,,71,127
78436,note_off,0,0,0,,7,,,67,127
78436,note_on,0,0,0,,10,,,69,127
78436,note_on,0,0,0,,0,,,72,127
78566,note_off,130,0,0,,10,,,69,127
78567,note_off,1,0,0,,0,,,72,127
78567,note_on,0,0,0,,6,,,66,127
78567,note_on,0,0,0,,10,,,69,127
78698,note_off,131,0,0,,10,,,69,127
78698,note_off,0,0,0,,6,,,66,127
78698,note_on,0,0,0,,7,,,67,127
78698,note_on,0,0,0,,12,,,71,127
78829,note_off,131,0,0,,12,,,71,127
78829,note_on,0,0,0,,0,,,72,127
78960,note_off,131,0,0,,0,,,72,127
78960,note_off,0,0,0,,7,,,67,127
78960,note_on,0,0,0,,10,,,69,127
78960,note_on,0,0,0,,2,,,74,127
79091,note_off,131,0,0,,2,,,74,127
79091,note_on,0,0,0,,4,,,76,127
79222,note_off,131,0,0,,4,,,76,127
79222,note_off,0,0,0,,10,,,69,127
79222,note_on,0,0,0,,12,,,71,127
79222,note_on,0,0,0,,6,,,78,127
79353,note_off,131,0,0,,6,,,78,127
79353,note_on,0,0,0,,7,,,79,127
79484,note_off,131,0,0,,7,,,79,127
79484,note_off,0,0,0,,12,,,71,127
79484,note_on,0,0,0,,0,,,72,127
79484,note_on,0,0,0,,4,,,76,127
79615,note_off,131,0,0,,4,,,76,127
79615,note_off,0,0,0,,0,,,72,127
79615,note_on,0,0,0,,12,,,71,127
79615,note_on,0,0,0,,2,,,74,127
79746,note_off,131,0,0,,2,,,74,127
79746,note_off,0,0,0,,12,,,71,127
79746,note_on,0,0,0,,10,,,69,127
79746,note_on,0,0,0,,0,,,72,127
79877,note_off,131,0,0,,0,,,72,127
79877,note_off,0,0,0,,10,,,69,127
79877,note_on,0,0,0,,7,,,67,127
79877,note_on,0,0,0,,12,,,71,127
80008,note_off,131,0,0,,12,,,71,127
80008,note_off,0,0,0,,7,,,67,127
80008,note_on,0,0,0,,6,,,66,127
80008,note_on,0,0,0,,10,,,69,127
80139,note_off,131,0,0,,10,,,69,127
80139,note_off,0,0,0,,6,,,66,127
80139,note_on,0,0,0,,4,,,64,127
80139,note_on,0,0,0,,7,,,67,127
80270,note_off,131,0,0,,7,,,67,127
80270,note_off,0,0,0,,4,,,64,127
80270,note_on,0,0,0,,2,,,62,127
80270,note_on,0,0,0,,6,,,66,127
80401,note_off,131,0,0,,6,,,66,127
80401,note_off,0,0,0,,2,,,62,127
80401,note_on,0,0,0,,0,,,60,127
80401,note_on,0,0,0,,4,,,64,127
80532,note_off,131,0,0,,4,,,64,127
80532,note_off,0,0,0,,0,,,60,127
80532,note_on,0,0,0,,12,,,59,127
80532,note_on,0,0,0,,2,,,62,127
80663,note_off,131,0,0,,2,,,62,127
80663,note_off,0,0,0,,12,,,59,127
80663,note_on,0,0,0,,10,,,57,127
80663,note_on,0,0,0,,0,,,60,127
80794,note_off,131,0,0,,0,,,60,127
80794,note_off,0,0,0,,10,,,57,127
80794,note_on,0,0,0,,7,,,55,127
80794,note_on,0,0,0,,12,,,59,127
80925,note_off,131,0,0,,12,,,59,127
80925,note_off,0,0,0,,7,,,55,127
80925,note_on,0,0,0,,6,,,54,127
80925,note_on,0,0,0,,10,,,57,127
81056,note_off,131,0,0,,10,,,57,127
81056,note_off,0,0,0,,6,,,54,127
81056,note_on,0,0,0,,7,,,55,127
81056,note_on,0,0,0,,12,,,59,127
81187,note_off,131,0,0,,12,,,59,127
81187,note_on,0,0,0,,2,,,62,127
81318,note_off,131,0,0,,2,,,62,127
81318,note_off,0,0,0,,7,,,55,127
81318,note_on,0,0,0,,4,,,52,127
81318,note_on,0,0,0,,0,,,60,127
81449,note_off,131,0,0,,0,,,60,127
81449,note_on,0,0,0,,12,,,59,127
81580,note_off,131,0,0,,12,,,59,127
81580,note_off,0,0,0,,4,,,52,127
81580,note_on,0,0,0,,0,,,48,127
81580,note_on,0,0,0,,10,,,57,127
81711,note_off,131,0,0,,10,,,57,127
81711,note_on,0,0,0,,7,,,55,127
81842,note_off,131,0,0,,7,,,55,127
81842,note_off,0,0,0,,0,,,48,127
81842,note_on,0,0,0,,2,,,38,127
81842,note_on,0,0,0,,4,,,52,127
81907,note_off,65,0,0,,4,,,52,127
81907,note_on,0,0,0,,2,,,50,127
81972,note_off,65,0,0,,2,,,50,127
81972,note_on,0,0,0,,4,,,52,127
82037,note_off,65,0,0,,4,,,52,127
82037,note_on,0,0,0,,2,,,50,127
82473,note_off,436,0,0,,2,,,50,127
82626,note_off,153,0,0,,2,,,38,127
82626,note_on,0,0,0,,2,,,50,127
82757,note_on,131,0,0,,10,,,57,127
82888,note_off,131,0,0,,10,,,57,127
82888,note_off,0,0,0,,2,,,50,127
82888,note_on,0,0,0,,2,,,50,127
82888,note_on,0,0,0,,2,,,62,127
83019,note_off,131,0,0,,2,,,62,127
83019,note_on,0,0,0,,6,,,66,127
83150,note_off,131,0,0,,6,,,66,127
83150,note_off,0,0,0,,2,,,50,127
83150,note_on,0,0,0,,2,,,50,127
83150,note_on,0,0,0,,10,,,69,127
83281,note_off,131,0,0,,10,,,69,127
83281,note_on,0,0,0,,2,,,74,127
83412,note_off,131,0,0,,2,,,74,127
83412,note_off,0,0,0,,2,,,50,127
83412,note_on,0,0,0,,4,,,52,127
83412,note_on,0,0,0,,2,,,74,127
83674,note_off,262,0,0,,2,,,74,127
83674,note_off,0,0,0,,4,,,52,127
83674,note_on,0,0,0,,4,,,52,127
83674,note_on,0,0,0,,0,,,60,127
83674,note_on,0,0,0,,0,,,72,127
83805,note_off,131,0,0,,0,,,72,127
83805,note_on,0,0,0,,12,,,71,127
83936,note_off,131,0,0,,12,,,71,127
83936,note_off,0,0,0,,0,,,60,127
83936,note_off,0,0,0,,4,,,52,127
83936,note_on,0,0,0,,0,,,60,127
83936,note_on,0,0,0,,4,,,52,127
83936,note_on,0,0,0,,0,,,72,127
84198,note_off,262,0,0,,4,,,52,127
84198,note_off,0,0,0,,0,,,60,127
84198,note_on,0,0,0,,0,,,60,127
84198,note_on,0,0,0,,6,,,54,127
84329,note_off,131,0,0,,0,,,72,127
84329,note_on,0,0,0,,6,,,66,127
84460,note_off,131,0,0,,6,,,66,127
84460,note_off,0,0,0,,6,,,54,127
84460,note_off,0,0,0,,0,,,60,127
84460,note_on,0,0,0,,6,,,54,127
84460,note_on,0,0,0,,0,,,60,127
84460,note_on,0,0,0,,10,,,69,127
84591,note_off,131,0,0,,10,,,69,127
84591,note_on,0,0,0,,2,,,74,127
84722,note_off,131,0,0,,2,,,74,127
84722,note_off,0,0,0,,0,,,60,127
84722,note_off,0,0,0,,6,,,54,127
84722,note_on,0,0,0,,2,,,62,127
84722,note_on,0,0,0,,6,,,54,127
84722,note_on,0,0,0,,6,,,78,127
84853,note_off,131,0,0,,6,,,78,127
84853,note_on,0,0,0,,10,,,81,127
84984,note_off,131,0,0,,10,,,81,127
84984,note_off,0,0,0,,6,,,54,127
84984,note_off,0,0,0,,2,,,62,127
84984,note_on,0,0,0,,2,,,62,127
84984,note_on,0,0,0,,7,,,55,127
84984,note_on,0,0,0,,0,,,72,127
84984,note_on,0,0,0,,10,,,81,127
85246,note_off,262,0,0,,10,,,81,127
85246,note_off,0,0,0,,0,,,72,127
85246,note_off,0,0,0,,7,,,55,127
85246,note_off,0,0,0,,2,,,62,127
85246,note_on,0,0,0,,7,,,55,127
85246,note_on,0,0,0,,2,,,62,127
85246,note_on,0,0,0,,12,,,71,127
85246,note_on,0,0,0,,7,,,79,127
85377,note_off,131,0,0,,7,,,79,127
85377,note_off,0,0,0,,12,,,71,127
85377,note_on,0,0,0,,6,,,78,127
85377,note_on,0,0,0,,10,,,69,127
85508,note_off,131,0,0,,10,,,69,127
85508,note_off,0,0,0,,6,,,78,127
85508,note_off,0,0,0,,2,,,62,127
85508,note_off,0,0,0,,7,,,55,127
85508,note_on,0,0,0,,7,,,55,127
85508,note_on,0,0,0,,2,,,62,127
85508,note_on,0,0,0,,7,,,79,127
85508,note_on,0,0,0,,12,,,71,127
85770,note_off,262,0,0,,2,,,62,127
85770,note_off,0,0,0,,7,,,55,127
85770,note_on,0,0,0,,2,,,50,127
85901,note_off,131,0,0,,12,,,71,127
85901,note_off,0,0,0,,7,,,79,127
85901,note_on,0,0,0,,10,,,57,127
86032,note_off,131,0,0,,10,,,57,127
86032,note_off,0,0,0,,2,,,50,127
86032,note_on,0,0,0,,2,,,50,127
86032,note_on,0,0,0,,2,,,62,127
86163,note_off,131,0,0,,2,,,62,127
86163,note_on,0,0,0,,6,,,66,127
86294,note_off,131,0,0,,6,,,66,127
86294,note_off,0,0,0,,2,,,50,127
86294,note_on,0,0,0,,2,,,50,127
86294,note_on,0,0,0,,10,,,69,127
86425,note_off,131,0,0,,10,,,69,127
86425,note_on,0,0,0,,2,,,74,127
86556,note_off,131,0,0,,2,,,74,127
86556,note_off,0,0,0,,2,,,50,127
86556,note_on,0,0,0,,4,,,52,127
86556,note_on,0,0,0,,4,,,76,127
86687,note_off,131,0,0,,4,,,76,127
86687,note_on,0,0,0,,2,,,74,127
86818,note_off,131,0,0,,2,,,74,127
86818,note_off,0,0,0,,4,,,52,127
86818,note_on,0,0,0,,4,,,52,127
86818,note_on,0,0,0,,0,,,60,127
86818,note_on,0,0,0,,0,,,72,127
86949,note_off,131,0,0,,0,,,72,127
86949,note_on,0,0,0,,12,,,71,127
87080,note_off,131,0,0,,12,,,71,127
87080,note_off,0,0,0,,0,,,60,127
87080,note_off,0,0,0,,4,,,52,127
87080,note_on,0,0,0,,0,,,60,127
87080,note_on,0,0,0,,4,,,52,127
87080,note_on,0,0,0,,0,,,72,127
87342,note_off,262,0,0,,4,,,52,127
87342,note_off,0,0,0,,0,,,60,127
87342,note_on,0,0,0,,6,,,54,127
87342,note_on,0,0,0,,0,,,60,127
87473,note_off,131,0,0,,0,,,72,127
87473,note_on,0,0,0,,6,,,66,127
87604,note_off,131,0,0,,6,,,66,127
87604,note_off,0,0,0,,0,,,60,127
87604,note_off,0,0,0,,6,,,54,127
87604,note_on,0,0,0,,0,,,60,127
87604,note_on,0,0,0,,6,,,54,127
87604,note_on,0,0,0,,10,,,69,127
87735,note_off,131,0,0,,10,,,69,127
87735,note_on,0,0,0,,2,,,74,127
87866,note_off,131,0,0,,2,,,74,127
87866,note_off,0,0,0,,6,,,54,127
87866,note_off,0,0,0,,0,,,60,127
87866,note_on,0,0,0,,6,,,54,127
87866,note_on,0,0,0,,2,,,62,127
87866,note_on,0,0,0,,6,,,78,127
87997,note_off,131,0,0,,6,,,78,127
87997,note_on,0,0,0,,10,,,81,127
88128,note_off,131,0,0,,10,,,81,127
88128,note_off,0,0,0,,2,,,62,127
88128,note_off,0,0,0,,6,,,54,127
88128,note_on,0,0,0,,7,,,55,127
88128,note_on,0,0,0,,2,,,62,127
88128,note_on,0,0,0,,10,,,81,127
88128,note_on,0,0,0,,0,,,72,127
88390,note_off,262,0,0,,0,,,72,127
88390,note_off,0,0,0,,10,,,81,127
88390,note_off,0,0,0,,2,,,62,127
88390,note_off,0,0,0,,7,,,55,127
88390,note_on,0,0,0,,7,,,55,127
88390,note_on,0,0,0,,2,,,62,127
88390,note_on,0,0,0,,7,,,79,127
88390,note_on,0,0,0,,12,,,71,127
88521,note_off,131,0,0,,12,,,71,127
88521,note_off,0,0,0,,7,,,79,127
88521,note_on,0,0,0,,10,,,69,127
88521,note_on,0,0,0,,6,,,78,127
88652,note_off,131,0,0,,6,,,78,127
88652,note_off,0,0,0,,10,,,69,127
88652,note_off,0,0,0,,2,,,62,127
88652,note_off,0,0,0,,7,,,55,127
88652,note_on,0,0,0,,2,,,62,127
88652,note_on,0,0,0,,7,,,55,127
88652,note_on,0,0,0,,12,,,71,127
88652,note_on,0,0,0,,7,,,79,127
88911,note_off,259,0,0,,12,,,71,127
88914,note_off,3,0,0,,7,,,55,127
88914,note_off,0,0,0,,2,,,62,127
88914,note_on,0,0,0,,12,,,71,127
88914,note_on,0,0,0,,7,,,67,127
89045,note_off,131,0,0,,7,,,79,127
89045,note_on,0,0,0,,12,,,83,127
89176,note_off,131,0,0,,12,,,83,127
89176,note_off,0,0,0,,7,,,67,127
89176,note_off,0,0,0,,12,,,71,127
89176,note_on,0,0,0,,12,,,71,127
89176,note_on,0,0,0,,7,,,67,127
89176,note_on,0,0,0,,11,,,82,127
89307,note_off,131,0,0,,11,,,82,127
89307,note_on,0,0,0,,12,,,83,127
89438,note_off,131,0,0,,12,,,83,127
89438,note_off,0,0,0,,7,,,67,127
89438,note_off,0,0,0,,12,,,71,127
89438,note_on,0,0,0,,12,,,71,127
89438,note_on,0,0,0,,7,,,67,127
89438,note_on,0,0,0,,10,,,81,127
89438,note_on,0,0,0,,7,,,79,127
89569,note_off,131,0,0,,7,,,79,127
89569,note_off,0,0,0,,10,,,81,127
89569,note_on,0,0,0,,6,,,78,127
89700,note_off,131,0,0,,6,,,78,127
89700,note_off,0,0,0,,7,,,67,127
89700,note_off,0,0,0,,12,,,71,127
89700,note_on,0,0,0,,7,,,67,127
89700,note_on,0,0,0,,12,,,71,127
89700,note_on,0,0,0,,4,,,76,127
89831,note_off,131,0,0,,4,,,76,127
89831,note_on,0,0,0,,12,,,83,127
89962,note_off,131,0,0,,12,,,83,127
89962,note_off,0,0,0,,12,,,71,127
89962,note_off,0,0,0,,7,,,67,127
89962,note_on,0,0,0,,7,,,67,127
89962,note_on,0,0,0,,12,,,71,127
89962,note_on,0,0,0,,11,,,82,127
90093,note_off,131,0,0,,11,,,82,127
90093,note_on,0,0,0,,12,,,83,127
90224,note_off,131,0,0,,12,,,83,127
90224,note_off,0,0,0,,12,,,71,127
90224,note_off,0,0,0,,7,,,67,127
90224,note_on,0,0,0,,7,,,67,127
90224,note_on,0,0,0,,12,,,71,127
90224,note_on,0,0,0,,10,,,81,127
90224,note_on,0,0,0,,7,,,79,127
90355,note_off,131,0,0,,7,,,79,127
90355,note_off,0,0,0,,10,,,81,127
90355,note_on,0,0,0,,6,,,78,127
90486,note_off,131,0,0,,6,,,78,127
90486,note_off,0,0,0,,12,,,71,127
90486,note_off,0,0,0,,7,,,67,127
90486,note_on,0,0,0,,7,,,67,127
90486,note_on,0,0,0,,12,,,71,127
90486,note_on,0,0,0,,4,,,76,127
90617,note_off,131,0,0,,4,,,76,127
90617,note_on,0,0,0,,4,,,76,127
90748,note_off,131,0,0,,4,,,76,127
90748,note_off,0,0,0,,12,,,71,127
90748,note_off,0,0,0,,7,,,67,127
90748,note_on,0,0,0,,7,,,67,127
90748,note_on,0,0,0,,12,,,71,127
90748,note_on,0,0,0,,3,,,75,127
90879,note_off,131,0,0,,3,,,75,127
90879,note_on,0,0,0,,4,,,76,127
91010,note_off,131,0,0,,4,,,76,127
91010,note_off,0,0,0,,12,,,71,127
91010,note_off,0,0,0,,7,,,67,127
91010,note_on,0,0,0,,12,,,71,127
91010,note_on,0,0,0,,7,,,67,127
91010,note_on,0,0,0,,1,,,73,127
91010,note_on,0,0,0,,7,,,79,127
91141,note_off,131,0,0,,7,,,79,127
91141,note_on,0,0,0,,6,,,78,127
91272,note_off,131,0,0,,6,,,78,127
91272,note_off,0,0,0,,1,,,73,127
91272,note_off,0,0,0,,7,,,67,127
91272,note_off,0,0,0,,12,,,71,127
91272,note_on,0,0,0,,1,,,73,127
91272,note_on,0,0,0,,12,,,71,127
91272,note_on,0,0,0,,6,,,66,127
91272,note_on,0,0,0,,4,,,76,127
91403,note_off,131,0,0,,4,,,76,127
91403,note_on,0,0,0,,12,,,83,127
91534,note_off,131,0,0,,12,,,83,127
91534,note_off,0,0,0,,6,,,66,127
91534,note_off,0,0,0,,12,,,71,127
91534,note_off,0,0,0,,1,,,73,127
91534,note_on,0,0,0,,1,,,73,127
91534,note_on,0,0,0,,12,,,71,127
91534,note_on,0,0,0,,6,,,66,127
91534,note_on,0,0,0,,11,,,82,127
91665,note_off,131,0,0,,11,,,82,127
91665,note_on,0,0,0,,12,,,83,127
91796,note_off,131,0,0,,12,,,83,127
91796,note_off,0,0,0,,6,,,66,127
91796,note_off,0,0,0,,12,,,71,127
91796,note_off,0,0,0,,1,,,73,127
91796,note_on,0,0,0,,12,,,71,127
91796,note_on,0,0,0,,6,,,66,127
91796,note_on,0,0,0,,1,,,73,127
91796,note_on,0,0,0,,11,,,82,127
91927,note_off,131,0,0,,11,,,82,127
91927,note_on,0,0,0,,12,,,83,127
92058,note_off,131,0,0,,12,,,83,127
92058,note_off,0,0,0,,1,,,73,127
92058,note_off,0,0,0,,6,,,66,127
92058,note_off,0,0,0,,12,,,71,127
92058,note_on,0,0,0,,12,,,71,127
92058,note_on,0,0,0,,6,,,66,127
92058,note_on,0,0,0,,1,,,73,127
92058,note_on,0,0,0,,1,,,85,127
92189,note_off,131,0,0,,1,,,85,127
92189,note_on,0,0,0,,7,,,79,127
92320,note_off,131,0,0,,7,,,79,127
92320,note_off,0,0,0,,1,,,73,127
92320,note_off,0,0,0,,6,,,66,127
92320,note_off,0,0,0,,12,,,71,127
92320,note_on,0,0,0,,6,,,66,127
92320,note_on,0,0,0,,1,,,73,127
92320,note_on,0,0,0,,6,,,78,127
92451,note_off,131,0,0,,6,,,78,127
92451,note_on,0,0,0,,4,,,76,127
92582,note_off,131,0,0,,4,,,76,127
92582,note_off,0,0,0,,1,,,73,127
92582,note_off,0,0,0,,6,,,66,127
92582,note_on,0,0,0,,6,,,66,127
92582,note_on,0,0,0,,11,,,70,127
92582,note_on,0,0,0,,2,,,74,127
92713,note_off,131,0,0,,2,,,74,127
92713,note_on,0,0,0,,1,,,73,127
92844,note_off,131,0,0,,1,,,73,127
92844,note_off,0,0,0,,11,,,70,127
92844,note_off,0,0,0,,6,,,66,127
92844,note_on,0,0,0,,12,,,71,127
92844,note_on,0,0,0,,1,,,73,127
93106,note_off,262,0,0,,1,,,73,127
93106,note_off,0,0,0,,12,,,71,127
93106,note_on,0,0,0,,12,,,71,127
93106,note_on,0,0,0,,2,,,74,127
93368,note_off,262,0,0,,12,,,71,127
93368,note_on,0,0,0,,12,,,71,127
93630,note_off,262,0,0,,12,,,71,127
93630,note_on,0,0,0,,2,,,62,127
93630,note_on,0,0,0,,12,,,71,127
93630,note_on,0,0,0,,10,,,69,127
93761,note_off,131,0,0,,2,,,74,127
93761,note_on,0,0,0,,10,,,81,127
93892,note_off,131,0,0,,10,,,81,127
93892,note_off,0,0,0,,10,,,69,127
93892,note_off,0,0,0,,12,,,71,127
93892,note_off,0,0,0,,2,,,62,127
93892,note_on,0,0,0,,2,,,62,127
93892,note_on,0,0,0,,12,,,71,127
93892,note_on,0,0,0,,10,,,69,127
93892,note_on,0,0,0,,8,,,80,127
94023,note_off,131,0,0,,8,,,80,127
94023,note_on,0,0,0,,10,,,81,127
94154,note_off,131,0,0,,10,,,81,127
94154,note_off,0,0,0,,10,,,69,127
94154,note_off,0,0,0,,12,,,71,127
94154,note_off,0,0,0,,2,,,62,127
94154,note_on,0,0,0,,2,,,62,127
94154,note_on,0,0,0,,12,,,71,127
94154,note_on,0,0,0,,10,,,69,127
94154,note_on,0,0,0,,5,,,77,127
94154,note_on,0,0,0,,7,,,79,127
94285,note_off,131,0,0,,7,,,79,127
94285,note_off,0,0,0,,5,,,77,127
94285,note_on,0,0,0,,4,,,76,127
94416,note_off,131,0,0,,4,,,76,127
94416,note_off,0,0,0,,10,,,69,127
94416,note_off,0,0,0,,12,,,71,127
94416,note_off,0,0,0,,2,,,62,127
94416,note_on,0,0,0,,12,,,71,127
94416,note_on,0,0,0,,10,,,69,127
94416,note_on,0,0,0,,4,,,64,127
94416,note_on,0,0,0,,2,,,74,127
94547,note_off,131,0,0,,2,,,74,127
94547,note_on,0,0,0,,10,,,81,127
94678,note_off,131,0,0,,10,,,81,127
94678,note_off,0,0,0,,4,,,64,127
94678,note_off,0,0,0,,10,,,69,127
94678,note_off,0,0,0,,12,,,71,127
94678,note_on,0,0,0,,10,,,69,127
94678,note_on,0,0,0,,4,,,64,127
94678,note_on,0,0,0,,12,,,71,127
94678,note_on,0,0,0,,8,,,80,127
94809,note_off,131,0,0,,8,,,80,127
94809,note_on,0,0,0,,10,,,81,127
94940,note_off,131,0,0,,10,,,81,127
94940,note_off,0,0,0,,12,,,71,127
94940,note_off,0,0,0,,4,,,64,127
94940,note_off,0,0,0,,10,,,69,127
94940,note_on,0,0,0,,4,,,64,127
94940,note_on,0,0,0,,12,,,71,127
94940,note_on,0,0,0,,10,,,69,127
94940,note_on,0,0,0,,7,,,79,127
94940,note_on,0,0,0,,5,,,77,127
95071,note_off,131,0,0,,5,,,77,127
95071,note_off,0,0,0,,7,,,79,127
95071,note_on,0,0,0,,4,,,76,127
95202,note_off,131,0,0,,4,,,76,127
95202,note_off,0,0,0,,10,,,69,127
95202,note_off,0,0,0,,12,,,71,127
95202,note_off,0,0,0,,4,,,64,127
95202,note_on,0,0,0,,10,,,69,127
95202,note_on,0,0,0,,5,,,65,127
95202,note_on,0,0,0,,12,,,71,127
95202,note_on,0,0,0,,2,,,74,127
95333,note_off,131,0,0,,2,,,74,127
95333,note_on,0,0,0,,10,,,81,127
95464,note_off,131,0,0,,10,,,81,127
95464,note_off,0,0,0,,12,,,71,127
95464,note_off,0,0,0,,5,,,65,127
95464,note_off,0,0,0,,10,,,69,127
95464,note_on,0,0,0,,10,,,69,127
95464,note_on,0,0,0,,5,,,65,127
95464,note_on,0,0,0,,12,,,71,127
95464,note_on,0,0,0,,8,,,80,127
95595,note_off,131,0,0,,8,,,80,127
95595,note_on,0,0,0,,10,,,81,127
95726,note_off,131,0,0,,10,,,81,127
95726,note_off,0,0,0,,12,,,71,127
95726,note_off,0,0,0,,5,,,65,127
95726,note_off,0,0,0,,10,,,69,127
95726,note_on,0,0,0,,5,,,65,127
95726,note_on,0,0,0,,12,,,71,127
95726,note_on,0,0,0,,10,,,69,127
95726,note_on,0,0,0,,8,,,80,127
95857,note_off,131,0,0,,8,,,80,127
95857,note_on,0,0,0,,10,,,81,127
95988,note_off,131,0,0,,10,,,81,127
95988,note_off,0,0,0,,10,,,69,127
95988,note_off,0,0,0,,12,,,71,127
95988,note_off,0,0,0,,5,,,65,127
95988,note_on,0,0,0,,4,,,64,127
95988,note_on,0,0,0,,12,,,71,127
95988,note_on,0,0,0,,10,,,69,127
95988,note_on,0,0,0,,12,,,83,127
96119,note_off,131,0,0,,12,,,83,127
96119,note_on,0,0,0,,5,,,77,127
96250,note_off,131,0,0,,5,,,77,127
96250,note_off,0,0,0,,10,,,69,127
96250,note_off,0,0,0,,12,,,71,127
96250,note_off,0,0,0,,4,,,64,127
96250,note_on,0,0,0,,12,,,71,127
96250,note_on,0,0,0,,4,,,64,127
96250,note_on,0,0,0,,4,,,76,127
96381,note_off,131,0,0,,4,,,76,127
96381,note_on,0,0,0,,2,,,74,127
96512,note_off,131,0,0,,2,,,74,127
96512,note_off,0,0,0,,4,,,64,127
96512,note_off,0,0,0,,12,,,71,127
96512,note_on,0,0,0,,8,,,68,127
96512,note_on,0,0,0,,4,,,64,127
96512,note_on,0,0,0,,0,,,72,127
96643,note_off,131,0,0,,0,,,72,127
96643,note_on,0,0,0,,12,,,71,127
96774,note_off,131,0,0,,12,,,71,127
96774,note_off,0,0,0,,4,,,64,127
96774,note_off,0,0,0,,8,,,68,127
96774,note_on,0,0,0,,10,,,69,127
96774,note_on,0,0,0,,12,,,71,127
97036,note_off,262,0,0,,12,,,71,127
97036,note_off,0,0,0,,10,,,69,127
97036,note_on,0,0,0,,10,,,69,127
97036,note_on,0,0,0,,0,,,72,127
97298,note_off,262,0,0,,10,,,69,127
97298,note_on,0,0,0,,10,,,69,127
97560,note_off,262,0,0,,10,,,69,127
97560,note_on,0,0,0,,10,,,69,127
97560,note_on,0,0,0,,0,,,60,127
97560,note_on,0,0,0,,4,,,64,127
97691,note_off,131,0,0,,0,,,72,127
97691,note_on,0,0,0,,0,,,72,127
97822,note_off,131,0,0,,0,,,72,127
97822,note_off,0,0,0,,4,,,64,127
97822,note_off,0,0,0,,0,,,60,127
97822,note_off,0,0,0,,10,,,69,127
97822,note_on,0,0,0,,10,,,69,127
97822,note_on,0,0,0,,4,,,64,127
97822,note_on,0,0,0,,0,,,60,127
97822,note_on,0,0,0,,0,,,84,127
97953,note_off,131,0,0,,0,,,84,127
97953,note_on,0,0,0,,12,,,83,127
98084,note_off,131,0,0,,12,,,83,127
98084,note_off,0,0,0,,0,,,60,127
98084,note_off,0,0,0,,4,,,64,127
98084,note_off,0,0,0,,10,,,69,127
98084,note_on,0,0,0,,4,,,64,127
98084,note_on,0,0,0,,0,,,60,127
98084,note_on,0,0,0,,10,,,69,127
98084,note_on,0,0,0,,10,,,81,127
98215,note_off,131,0,0,,10,,,81,127
98215,note_on,0,0,0,,7,,,79,127
98346,note_off,131,0,0,,7,,,79,127
98346,note_off,0,0,0,,10,,,69,127
98346,note_off,0,0,0,,0,,,60,127
98346,note_off,0,0,0,,4,,,64,127
98346,note_on,0,0,0,,4,,,64,127
98346,note_on,0,0,0,,0,,,60,127
98346,note_on,0,0,0,,10,,,69,127
98346,note_on,0,0,0,,6,,,66,127
98346,note_on,0,0,0,,6,,,78,127
98477,note_off,131,0,0,,6,,,78,127
98477,note_on,0,0,0,,4,,,76,127
98608,note_off,131,0,0,,4,,,76,127
98608,note_off,0,0,0,,6,,,66,127
98608,note_off,0,0,0,,10,,,69,127
98608,note_off,0,0,0,,0,,,60,127
98608,note_off,0,0,0,,4,,,64,127
98608,note_on,0,0,0,,4,,,64,127
98608,note_on,0,0,0,,0,,,60,127
98608,note_on,0,0,0,,10,,,69,127
98608,note_on,0,0,0,,6,,,66,127
98608,note_on,0,0,0,,3,,,75,127
98739,note_off,131,0,0,,3,,,75,127
98739,note_on,0,0,0,,4,,,76,127
98870,note_off,131,0,0,,4,,,76,127
98870,note_off,0,0,0,,6,,,66,127
98870,note_off,0,0,0,,10,,,69,127
98870,note_off,0,0,0,,0,,,60,127
98870,note_off,0,0,0,,4,,,64,127
98870,note_on,0,0,0,,4,,,64,127
98870,note_on,0,0,0,,0,,,60,127
98870,note_on,0,0,0,,10,,,69,127
98870,note_on,0,0,0,,6,,,66,127
98870,note_on,0,0,0,,3,,,75,127
99001,note_off,131,0,0,,3,,,75,127
99001,note_on,0,0,0,,4,,,76,127
99132,note_off,131,0,0,,6,,,66,127
99132,note_off,0,0,0,,10,,,69,127
99132,note_off,0,0,0,,0,,,60,127
99132,note_off,0,0,0,,4,,,64,127
99132,note_on,0,0,0,,0,,,60,127
99132,note_on,0,0,0,,10,,,69,127
99132,note_on,0,0,0,,6,,,66,127
99132,note_on,0,0,0,,4,,,64,127
99263,note_off,131,0,0,,4,,,76,127
99263,note_on,0,0,0,,0,,,72,127
99394,note_off,131,0,0,,0,,,72,127
99394,note_off,0,0,0,,4,,,64,127
99394,note_off,0,0,0,,6,,,66,127
99394,note_off,0,0,0,,10,,,69,127
99394,note_off,0,0,0,,0,,,60,127
99394,note_on,0,0,0,,6,,,66,127
99394,note_on,0,0,0,,4,,,64,127
99394,note_on,0,0,0,,0,,,60,127
99394,note_on,0,0,0,,10,,,69,127
99394,note_on,0,0,0,,0,,,84,127
99525,note_off,131,0,0,,0,,,84,127
99525,note_on,0,0,0,,12,,,83,127
99656,note_off,131,0,0,,12,,,83,127
99656,note_off,0,0,0,,10,,,69,127
99656,note_off,0,0,0,,0,,,60,127
99656,note_off,0,0,0,,4,,,64,127
99656,note_off,0,0,0,,6,,,66,127
99656,note_on,0,0,0,,6,,,66,127
99656,note_on,0,0,0,,4,,,64,127
99656,note_on,0,0,0,,0,,,60,127
99656,note_on,0,0,0,,10,,,69,127
99656,note_on,0,0,0,,10,,,81,127
99787,note_off,131,0,0,,10,,,81,127
99787,note_on,0,0,0,,7,,,79,127
99918,note_off,131,0,0,,7,,,79,127
99918,note_off,0,0,0,,10,,,69,127
99918,note_off,0,0,0,,0,,,60,127
99918,note_off,0,0,0,,4,,,64,127
99918,note_off,0,0,0,,6,,,66,127
99918,note_on,0,0,0,,0,,,60,127
99918,note_on,0,0,0,,6,,,66,127
99918,note_on,0,0,0,,10,,,69,127
99918,note_on,0,0,0,,4,,,64,127
99918,note_on,0,0,0,,6,,,78,127
100049,note_off,131,0,0,,6,,,78,127
100049,note_on,0,0,0,,4,,,76,127
100180,note_off,131,0,0,,4,,,76,127
100180,note_off,0,0,0,,4,,,64,127
100180,note_off,0,0,0,,10,,,69,127
100180,note_off,0,0,0,,6,,,66,127
100180,note_off,0,0,0,,0,,,60,127
100180,note_on,0,0,0,,4,,,64,127
100180,note_on,0,0,0,,0,,,60,127
100180,note_on,0,0,0,,10,,,69,127
100180,note_on,0,0,0,,6,,,66,127
100180,note_on,0,0,0,,3,,,75,127
100311,note_off,131,0,0,,3,,,75,127
100311,note_on,0,0,0,,4,,,76,127
100442,note_off,131,0,0,,4,,,76,127
100442,note_off,0,0,0,,6,,,66,127
100442,note_off,0,0,0,,10,,,69,127
100442,note_off,0,0,0,,0,,,60,127
100442,note_off,0,0,0,,4,,,64,127
100442,note_on,0,0,0,,6,,,66,127
100442,note_on,0,0,0,,4,,,64,127
100442,note_on,0,0,0,,0,,,60,127
100442,note_on,0,0,0,,10,,,69,127
100442,note_on,0,0,0,,3,,,75,127
100573,note_off,131,0,0,,3,,,75,127
100573,note_on,0,0,0,,4,,,76,127
100704,note_off,131,0,0,,10,,,69,127
100704,note_off,0,0,0,,0,,,60,127
100704,note_off,0,0,0,,4,,,64,127
100704,note_off,0,0,0,,6,,,66,127
100704,note_on,0,0,0,,0,,,60,127
100704,note_on,0,0,0,,4,,,64,127
100704,note_on,0,0,0,,10,,,69,127
100704,note_on,0,0,0,,6,,,66,127
100835,note_off,131,0,0,,4,,,64,127
100835,note_off,0,0,0,,4,,,76,127
100835,note_on,0,0,0,,0,,,72,127
100966,note_off,131,0,0,,0,,,72,127
100966,note_off,0,0,0,,6,,,66,127
100966,note_off,0,0,0,,10,,,69,127
100966,note_off,0,0,0,,0,,,60,127
100966,note_on,0,0,0,,4,,,64,127
100966,note_on,0,0,0,,0,,,60,127
100966,note_on,0,0,0,,10,,,69,127
100966,note_on,0,0,0,,6,,,66,127
100966,note_on,0,0,0,,0,,,84,127
101097,note_off,131,0,0,,0,,,84,127
101097,note_off,0,0,0,,4,,,64,127
101097,note_on,0,0,0,,12,,,83,127
101228,note_off,131,0,0,,12,,,83,127
101228,note_off,0,0,0,,6,,,66,127
101228,note_off,0,0,0,,10,,,69,127
101228,note_off,0,0,0,,0,,,60,127
101228,note_on,0,0,0,,4,,,64,127
101228,note_on,0,0,0,,0,,,60,127
101228,note_on,0,0,0,,10,,,69,127
101228,note_on,0,0,0,,6,,,66,127
101228,note_on,0,0,0,,10,,,81,127
101359,note_off,131,0,0,,10,,,81,127
101359,note_off,0,0,0,,4,,,64,127
101359,note_on,0,0,0,,7,,,79,127
101490,note_off,131,0,0,,7,,,79,127
101490,note_off,0,0,0,,6,,,66,127
101490,note_off,0,0,0,,10,,,69,127
101490,note_off,0,0,0,,0,,,60,127
101490,note_on,0,0,0,,6,,,66,127
101490,note_on,0,0,0,,2,,,62,127
101490,note_on,0,0,0,,10,,,69,127
101490,note_on,0,0,0,,6,,,78,127
101621,note_off,131,0,0,,6,,,78,127
101621,note_on,0,0,0,,4,,,76,127
101752,note_off,131,0,0,,4,,,76,127
101752,note_off,0,0,0,,10,,,69,127
101752,note_off,0,0,0,,2,,,62,127
101752,note_off,0,0,0,,6,,,66,127
101752,note_on,0,0,0,,10,,,69,127
101752,note_on,0,0,0,,6,,,66,127
101752,note_on,0,0,0,,2,,,62,127
101752,note_on,0,0,0,,2,,,74,127
101883,note_off,131,0,0,,2,,,74,127
101883,note_on,0,0,0,,0,,,72,127
102014,note_off,131,0,0,,0,,,72,127
102014,note_off,0,0,0,,2,,,62,127
102014,note_off,0,0,0,,6,,,66,127
102014,note_off,0,0,0,,10,,,69,127
102014,note_on,0,0,0,,2,,,62,127
102014,note_on,0,0,0,,6,,,66,127
102014,note_on,0,0,0,,12,,,71,127
102145,note_off,131,0,0,,12,,,71,127
102145,note_on,0,0,0,,10,,,69,127
102276,note_off,131,0,0,,10,,,69,127
102276,note_off,0,0,0,,6,,,66,127
102276,note_off,0,0,0,,2,,,62,127
102276,note_on,0,0,0,,7,,,67,127
102276,note_on,0,0,0,,12,,,71,127
102341,note_off,65,0,0,,12,,,71,127
102341,note_on,0,0,0,,10,,,69,127
102406,note_off,65,0,0,,10,,,69,127
102406,note_on,0,0,0,,12,,,71,127
102537,note_off,131,0,0,,12,,,71,127
102537,note_off,0,0,0,,7,,,67,127
102537,note_on,0,0,0,,4,,,64,127
102537,note_on,0,0,0,,7,,,67,127
102537,note_on,0,0,0,,0,,,72,127
102602,note_off,65,0,0,,0,,,72,127
102602,note_on,0,0,0,,12,,,71,127
102667,note_off,65,0,0,,12,,,71,127
102667,note_on,0,0,0,,0,,,72,127
102798,note_off,131,0,0,,0,,,72,127
102798,note_off,0,0,0,,7,,,67,127
102798,note_off,0,0,0,,4,,,64,127
102798,note_on,0,0,0,,12,,,59,127
102798,note_on,0,0,0,,7,,,67,127
102798,note_on,0,0,0,,2,,,74,127
102863,note_off,65,0,0,,2,,,74,127
102863,note_on,0,0,0,,0,,,72,127
102928,note_off,65,0,0,,0,,,72,127
102928,note_on,0,0,0,,2,,,74,127
103059,note_off,131,0,0,,2,,,74,127
103059,note_off,0,0,0,,7,,,67,127
103059,note_off,0,0,0,,12,,,59,127
103059,note_on,0,0,0,,0,,,60,127
103059,note_on,0,0,0,,7,,,67,127
103059,note_on,0,0,0,,4,,,76,127
103124,note_off,65,0,0,,4,,,76,127
103124,note_on,0,0,0,,2,,,74,127
103189,note_off,65,0,0,,2,,,74,127
103189,note_on,0,0,0,,4,,,76,127
103320,note_off,131,0,0,,4,,,76,127
103320,note_off,0,0,0,,7,,,67,127
103320,note_off,0,0,0,,0,,,60,127
103320,note_on,0,0,0,,6,,,66,127
103320,note_on,0,0,0,,10,,,57,127
103320,note_on,0,0,0,,6,,,78,127
103385,note_off,65,0,0,,6,,,78,127
103385,note_on,0,0,0,,4,,,76,127
103450,note_off,65,0,0,,4,,,76,127
103450,note_on,0,0,0,,6,,,78,127
103581,note_off,131,0,0,,6,,,78,127
103581,note_off,0,0,0,,10,,,57,127
103581,note_off,0,0,0,,6,,,66,127
103581,note_on,0,0,0,,2,,,62,127
103581,note_on,0,0,0,,12,,,59,127
103581,note_on,0,0,0,,7,,,79,127
103646,note_off,65,0,0,,7,,,79,127
103646,note_on,0,0,0,,6,,,78,127
103711,note_off,65,0,0,,6,,,78,127
103711,note_on,0,0,0,,7,,,79,127
103842,note_off,131,0,0,,7,,,79,127
103842,note_off,0,0,0,,12,,,59,127
103842,note_off,0,0,0,,2,,,62,127
103842,note_on,0,0,0,,6,,,54,127
103842,note_on,0,0,0,,2,,,62,127
103842,note_on,0,0,0,,10,,,81,127
103907,note_off,65,0,0,,10,,,81,127
103907,note_on,0,0,0,,7,,,79,127
103972,note_off,65,0,0,,7,,,79,127
103972,note_on,0,0,0,,10,,,81,127
104103,note_off,131,0,0,,10,,,81,127
104103,note_off,0,0,0,,2,,,62,127
104103,note_off,0,0,0,,6,,,54,127
104103,note_on,0,0,0,,2,,,62,127
104103,note_on,0,0,0,,7,,,55,127
104103,note_on,0,0,0,,12,,,83,127
104168,note_off,65,0,0,,12,,,83,127
104168,note_on,0,0,0,,10,,,81,127
104233,note_off,65,0,0,,10,,,81,127
104233,note_on,0,0,0,,12,,,83,127
104364,note_off,131,0,0,,12,,,83,127
104364,note_off,0,0,0,,7,,,55,127
104364,note_off,0,0,0,,2,,,62,127
104364,note_on,0,0,0,,4,,,52,127
104364,note_on,0,0,0,,7,,,55,127
104364,note_on,0,0,0,,1,,,85,127
104429,note_off,65,0,0,,1,,,85,127
104429,note_on,0,0,0,,12,,,83,127
104494,note_off,65,0,0,,12,,,83,127
104494,note_on,0,0,0,,1,,,85,127
104625,note_off,131,0,0,,1,,,85,127
104625,note_off,0,0,0,,7,,,55,127
104625,note_off,0,0,0,,4,,,52,127
104625,note_on,0,0,0,,2,,,50,127
104625,note_on,0,0,0,,2,,,86,127
104756,note_off,131,0,0,,2,,,86,127
104756,note_on,0,0,0,,10,,,81,127
104887,note_off,131,0,0,,10,,,81,127
104887,note_on,0,0,0,,6,,,78,127
105018,note_off,131,0,0,,6,,,78,127
105018,note_on,0,0,0,,2,,,74,127
105149,note_off,131,0,0,,2,,,74,127
105149,note_on,0,0,0,,10,,,69,127
105280,note_off,131,0,0,,10,,,69,127
105280,note_on,0,0,0,,6,,,66,127
105411,note_off,131,0,0,,6,,,66,127
105411,note_on,0,0,0,,2,,,62,127
105542,note_off,131,0,0,,2,,,50,127
105542,note_on,0,0,0,,10,,,57,127
105673,note_off,131,0,0,,10,,,57,127
105673,note_on,0,0,0,,6,,,54,127
105804,note_off,131,0,0,,6,,,54,127
105804,note_off,0,0,0,,2,,,62,127
105804,note_on,0,0,0,,2,,,50,127
105935,note_on,131,0,0,,10,,,45,127
106066,note_off,131,0,0,,10,,,45,127
106066,note_on,0,0,0,,6,,,42,127
106197,note_off,131,0,0,,6,,,42,127
106197,note_on,0,0,0,,2,,,38,127
106850,note_off,653,0,0,,2,,,50,127
106982,note_off,132,0,0,,2,,,38,127
106982,note_on,0,0,0,,2,,,50,127
106982,note_on,0,0,0,,2,,,62,127
106982,note_on,0,0,0,,10,,,57,127
107113,note_on,131,0,0,,10,,,69,127
107244,note_off,131,0,0,,10,,,69,127
107244,note_off,0,0,0,,10,,,57,127
107244,note_off,0,0,0,,2,,,62,127
107244,note_off,0,0,0,,2,,,50,127
107244,note_on,0,0,0,,2,,,50,127
107244,note_on,0,0,0,,10,,,57,127
107244,note_on,0,0,0,,2,,,62,127
107244,note_on,0,0,0,,11,,,70,127
107375,note_off,131,0,0,,11,,,70,127
107375,note_on,0,0,0,,7,,,67,127
107506,note_off,131,0,0,,7,,,67,127
107506,note_off,0,0,0,,2,,,62,127
107506,note_off,0,0,0,,10,,,57,127
107506,note_off,0,0,0,,2,,,50,127
107506,note_on,0,0,0,,2,,,50,127
107506,note_on,0,0,0,,2,,,62,127
107506,note_on,0,0,0,,10,,,57,127
107506,note_on,0,0,0,,10,,,69,127
107637,note_off,131,0,0,,10,,,69,127
107637,note_on,0,0,0,,6,,,66,127
107768,note_off,131,0,0,,6,,,66,127
107768,note_off,0,0,0,,10,,,57,127
107768,note_off,0,0,0,,2,,,62,127
107768,note_off,0,0,0,,2,,,50,127
107768,note_on,0,0,0,,0,,,48,127
107768,note_on,0,0,0,,7,,,55,127
107768,note_on,0,0,0,,0,,,60,127
107768,note_on,0,0,0,,3,,,63,127
107768,note_on,0,0,0,,3,,,75,127
108030,note_off,262,0,0,,0,,,60,127
108030,note_off,0,0,0,,7,,,55,127
108030,note_off,0,0,0,,0,,,48,127
108030,note_on,0,0,0,,0,,,48,127
108030,note_on,0,0,0,,0,,,60,127
108030,note_on,0,0,0,,7,,,55,127
108292,note_off,262,0,0,,7,,,55,127
108292,note_off,0,0,0,,0,,,60,127
108292,note_off,0,0,0,,0,,,48,127
108292,note_on,0,0,0,,0,,,48,127
108292,note_on,0,0,0,,0,,,60,127
108292,note_on,0,0,0,,7,,,55,127
108554,note_off,262,0,0,,7,,,55,127
108554,note_off,0,0,0,,0,,,60,127
108554,note_off,0,0,0,,0,,,48,127
108554,note_on,0,0,0,,2,,,50,127
108554,note_on,0,0,0,,10,,,57,127
108554,note_on,0,0,0,,2,,,62,127
108685,note_off,131,0,0,,3,,,63,127
108685,note_on,0,0,0,,10,,,69,127
108816,note_off,131,0,0,,10,,,69,127
108816,note_off,0,0,0,,2,,,62,127
108816,note_off,0,0,0,,10,,,57,127
108816,note_off,0,0,0,,2,,,50,127
108816,note_off,0,0,0,,3,,,75,127
108816,note_on,0,0,0,,10,,,57,127
108816,note_on,0,0,0,,2,,,50,127
108816,note_on,0,0,0,,2,,,62,127
108816,note_on,0,0,0,,11,,,70,127
108947,note_off,131,0,0,,11,,,70,127
108947,note_on,0,0,0,,7,,,67,127
109078,note_off,131,0,0,,7,,,67,127
109078,note_off,0,0,0,,2,,,62,127
109078,note_off,0,0,0,,2,,,50,127
109078,note_off,0,0,0,,10,,,57,127
109078,note_on,0,0,0,,2,,,50,127
109078,note_on,0,0,0,,10,,,57,127
109078,note_on,0,0,0,,2,,,62,127
109078,note_on,0,0,0,,10,,,69,127
109209,note_off,131,0,0,,10,,,69,127
109209,note_on,0,0,0,,6,,,66,127
109340,note_off,131,0,0,,6,,,66,127
109340,note_off,0,0,0,,2,,,62,127
109340,note_off,0,0,0,,10,,,57,127
109340,note_off,0,0,0,,2,,,50,127
109340,note_on,0,0,0,,10,,,57,127
109340,note_on,0,0,0,,3,,,51,127
109340,note_on,0,0,0,,0,,,60,127
109340,note_on,0,0,0,,2,,,62,127
109340,note_on,0,0,0,,6,,,78,127
109340,note_on,0,0,0,,6,,,66,127
109471,note_off,131,0,0,,2,,,62,127
109602,note_off,131,0,0,,0,,,60,127
109602,note_off,0,0,0,,3,,,51,127
109602,note_off,0,0,0,,10,,,57,127
109602,note_on,0,0,0,,3,,,51,127
109602,note_on,0,0,0,,10,,,57,127
109602,note_on,0,0,0,,0,,,60,127
109602,note_on,0,0,0,,2,,,62,127
109733,note_off,131,0,0,,2,,,62,127
109864,note_off,131,0,0,,0,,,60,127
109864,note_off,0,0,0,,10,,,57,127
109864,note_off,0,0,0,,3,,,51,127
109864,note_on,0,0,0,,10,,,57,127
109864,note_on,0,0,0,,3,,,51,127
109864,note_on,0,0,0,,2,,,62,127
109864,note_on,0,0,0,,0,,,60,127
109995,note_off,131,0,0,,2,,,62,127
110126,note_off,131,0,0,,0,,,60,127
110126,note_off,0,0,0,,3,,,51,127
110126,note_off,0,0,0,,10,,,57,127
110126,note_on,0,0,0,,2,,,50,127
110126,note_on,0,0,0,,2,,,62,127
110126,note_on,0,0,0,,0,,,60,127
110126,note_on,0,0,0,,7,,,55,127
110126,note_on,0,0,0,,10,,,57,127
110191,note_off,65,0,0,,0,,,60,127
110255,note_off,64,0,0,,7,,,55,127
110256,note_off,1,0,0,,6,,,66,127
110256,note_on,0,0,0,,10,,,69,127
110387,note_off,131,0,0,,10,,,69,127
110387,note_off,0,0,0,,10,,,57,127
110387,note_off,0,0,0,,2,,,62,127
110387,note_off,0,0,0,,2,,,50,127
110387,note_off,0,0,0,,6,,,78,127
110387,note_on,0,0,0,,2,,,50,127
110387,note_on,0,0,0,,7,,,55,127
110387,note_on,0,0,0,,10,,,57,127
110387,note_on,0,0,0,,0,,,60,127
110387,note_on,0,0,0,,2,,,62,127
110387,note_on,0,0,0,,11,,,70,127
110452,note_off,65,0,0,,0,,,60,127
110516,note_off,64,0,0,,7,,,55,127
110517,note_off,1,0,0,,11,,,70,127
110517,note_on,0,0,0,,7,,,67,127
110648,note_off,131,0,0,,7,,,67,127
110648,note_off,0,0,0,,2,,,62,127
110648,note_off,0,0,0,,10,,,57,127
110648,note_off,0,0,0,,2,,,50,127
110648,note_on,0,0,0,,2,,,50,127
110648,note_on,0,0,0,,7,,,55,127
110648,note_on,0,0,0,,10,,,57,127
110648,note_on,0,0,0,,0,,,60,127
110648,note_on,0,0,0,,2,,,62,127
110648,note_on,0,0,0,,10,,,69,127
110713,note_off,65,0,0,,0,,,60,127
110777,note_off,64,0,0,,7,,,55,127
110778,note_off,1,0,0,,10,,,69,127
110778,note_on,0,0,0,,6,,,66,127
110909,note_off,131,0,0,,6,,,66,127
110909,note_off,0,0,0,,2,,,62,127
110909,note_off,0,0,0,,10,,,57,127
110909,note_off,0,0,0,,2,,,50,127
110909,note_on,0,0,0,,0,,,60,127
110909,note_on,0,0,0,,7,,,55,127
110909,note_on,0,0,0,,3,,,51,127
110909,note_on,0,0,0,,2,,,62,127
110909,note_on,0,0,0,,10,,,81,127
110909,note_on,0,0,0,,10,,,69,127
111040,note_off,131,0,0,,0,,,60,127
111171,note_off,131,0,0,,2,,,62,127
111171,note_off,0,0,0,,3,,,51,127
111171,note_off,0,0,0,,7,,,55,127
111171,note_on,0,0,0,,3,,,51,127
111171,note_on,0,0,0,,7,,,55,127
111171,note_on,0,0,0,,0,,,60,127
111171,note_on,0,0,0,,2,,,62,127
111302,note_off,131,0,0,,0,,,60,127
111433,note_off,131,0,0,,2,,,62,127
111433,note_off,0,0,0,,7,,,55,127
111433,note_off,0,0,0,,3,,,51,127
111433,note_on,0,0,0,,3,,,51,127
111433,note_on,0,0,0,,7,,,55,127
111433,note_on,0,0,0,,0,,,60,127
111433,note_on,0,0,0,,2,,,62,127
111564,note_off,131,0,0,,0,,,60,127
111695,note_off,131,0,0,,2,,,62,127
111695,note_off,0,0,0,,7,,,55,127
111695,note_off,0,0,0,,3,,,51,127
111695,note_on,0,0,0,,2,,,50,127
111695,note_on,0,0,0,,7,,,55,127
111695,note_on,0,0,0,,10,,,57,127
111695,note_on,0,0,0,,0,,,60,127
111695,note_on,0,0,0,,2,,,62,127
111760,note_off,65,0,0,,7,,,55,127
111824,note_off,64,0,0,,0,,,60,127
111825,note_off,1,0,0,,10,,,69,127
111825,note_on,0,0,0,,10,,,69,127
111956,note_off,131,0,0,,10,,,69,127
111956,note_off,0,0,0,,2,,,62,127
111956,note_off,0,0,0,,10,,,57,127
111956,note_off,0,0,0,,2,,,50,127
111956,note_off,0,0,0,,10,,,81,127
111956,note_on,0,0,0,,2,,,50,127
111956,note_on,0,0,0,,7,,,55,127
111956,note_on,0,0,0,,10,,,57,127
111956,note_on,0,0,0,,0,,,60,127
111956,note_on,0,0,0,,2,,,62,127
111956,note_on,0,0,0,,11,,,70,127
112021,note_off,65,0,0,,7,,,55,127
112085,note_off,64,0,0,,0,,,60,127
112086,note_off,1,0,0,,11,,,70,127
112086,note_on,0,0,0,,7,,,67,127
112217,note_off,131,0,0,,7,,,67,127
112217,note_off,0,0,0,,2,,,62,127
112217,note_off,0,0,0,,10,,,57,127
112217,note_off,0,0,0,,2,,,50,127
112217,note_on,0,0,0,,2,,,50,127
112217,note_on,0,0,0,,7,,,55,127
112217,note_on,0,0,0,,10,,,57,127
112217,note_on,0,0,0,,0,,,60,127
112217,note_on,0,0,0,,2,,,62,127
112217,note_on,0,0,0,,10,,,69,127
112282,note_off,65,0,0,,7,,,55,127
112346,note_off,64,0,0,,0,,,60,127
112347,note_off,1,0,0,,10,,,69,127
112347,note_on,0,0,0,,6,,,66,127
112478,note_off,131,0,0,,6,,,66,127
112478,note_off,0,0,0,,2,,,62,127
112478,note_off,0,0,0,,10,,,57,127
112478,note_off,0,0,0,,2,,,50,127
112478,note_on,0,0,0,,3,,,51,127
112478,note_on,0,0,0,,7,,,55,127
112478,note_on,0,0,0,,0,,,60,127
112478,note_on,0,0,0,,2,,,62,127
112478,note_on,0,0,0,,0,,,72,127
112478,note_on,0,0,0,,0,,,84,127
112609,note_off,131,0,0,,2,,,62,127
112740,note_off,131,0,0,,0,,,60,127
112740,note_off,0,0,0,,7,,,55,127
112740,note_off,0,0,0,,3,,,51,127
112740,note_on,0,0,0,,3,,,51,127
112740,note_on,0,0,0,,7,,,55,127
112740,note_on,0,0,0,,0,,,60,127
112740,note_on,0,0,0,,2,,,62,127
112871,note_off,131,0,0,,2,,,62,127
113002,note_off,131,0,0,,0,,,60,127
113002,note_off,0,0,0,,7,,,55,127
113002,note_off,0,0,0,,3,,,51,127
113002,note_on,0,0,0,,3,,,51,127
113002,note_on,0,0,0,,7,,,55,127
113002,note_on,0,0,0,,0,,,60,127
113002,note_on,0,0,0,,2,,,62,127
113133,note_off,131,0,0,,2,,,62,127
113264,note_off,131,0,0,,0,,,60,127
113264,note_off,0,0,0,,7,,,55,127
113264,note_off,0,0,0,,3,,,51,127
113264,note_on,0,0,0,,2,,,50,127
113264,note_on,0,0,0,,7,,,55,127
113264,note_on,0,0,0,,10,,,57,127
113264,note_on,0,0,0,,0,,,60,127
113264,note_on,0,0,0,,2,,,62,127
113329,note_off,65,0,0,,0,,,60,127
113393,note_off,64,0,0,,7,,,55,127
113394,note_off,1,0,0,,0,,,72,127
113394,note_on,0,0,0,,10,,,81,127
113525,note_off,131,0,0,,10,,,81,127
113525,note_off,0,0,0,,2,,,62,127
113525,note_off,0,0,0,,10,,,57,127
113525,note_off,0,0,0,,2,,,50,127
113525,note_off,0,0,0,,0,,,84,127
113525,note_on,0,0,0,,2,,,50,127
113525,note_on,0,0,0,,7,,,55,127
113525,note_on,0,0,0,,10,,,57,127
113525,note_on,0,0,0,,0,,,60,127
113525,note_on,0,0,0,,2,,,62,127
113525,note_on,0,0,0,,6,,,78,127
113590,note_off,65,0,0,,0,,,60,127
113654,note_off,64,0,0,,7,,,55,127
113655,note_off,1,0,0,,6,,,78,127
113655,note_on,0,0,0,,3,,,75,127
113786,note_off,131,0,0,,3,,,75,127
113786,note_off,0,0,0,,2,,,62,127
113786,note_off,0,0,0,,10,,,57,127
113786,note_off,0,0,0,,2,,,50,127
113786,note_on,0,0,0,,2,,,50,127
113786,note_on,0,0,0,,10,,,57,127
113786,note_on,0,0,0,,2,,,62,127
113786,note_on,0,0,0,,0,,,72,127
113917,note_off,131,0,0,,0,,,72,127
113917,note_on,0,0,0,,10,,,69,127
114048,note_off,131,0,0,,10,,,69,127
114048,note_off,0,0,0,,2,,,62,127
114048,note_off,0,0,0,,10,,,57,127
114048,note_off,0,0,0,,2,,,50,127
114048,note_on,0,0,0,,7,,,55,127
114048,note_on,0,0,0,,11,,,58,127
114048,note_on,0,0,0,,7,,,67,127
114048,note_on,0,0,0,,11,,,70,127
114179,note_off,131,0,0,,11,,,70,127
114179,note_on,0,0,0,,7,,,79,127
114310,note_off,131,0,0,,7,,,79,127
114310,note_off,0,0,0,,7,,,67,127
114310,note_off,0,0,0,,11,,,58,127
114310,note_off,0,0,0,,7,,,55,127
114310,note_on,0,0,0,,0,,,60,127
114310,note_on,0,0,0,,10,,,57,127
114310,note_on,0,0,0,,0,,,72,127
114441,note_off,131,0,0,,0,,,72,127
114441,note_on,0,0,0,,6,,,78,127
114572,note_off,131,0,0,,6,,,78,127
114572,note_off,0,0,0,,10,,,57,127
114572,note_off,0,0,0,,0,,,60,127
114572,note_on,0,0,0,,11,,,58,127
114572,note_on,0,0,0,,2,,,62,127
114572,note_on,0,0,0,,7,,,79,127
114703,note_off,131,0,0,,7,,,79,127
114703,note_on,0,0,0,,2,,,74,127
114834,note_off,131,0,0,,2,,,74,127
114834,note_off,0,0,0,,2,,,62,127
114834,note_off,0,0,0,,11,,,58,127
114834,note_on,0,0,0,,0,,,60,127
114834,note_on,0,0,0,,3,,,75,127
114965,note_off,131,0,0,,3,,,75,127
114965,note_on,0,0,0,,0,,,84,127
115096,note_off,131,0,0,,0,,,84,127
115096,note_off,0,0,0,,0,,,60,127
115096,note_on,0,0,0,,2,,,62,127
115096,note_on,0,0,0,,11,,,82,127
115227,note_off,131,0,0,,11,,,82,127
115227,note_on,0,0,0,,10,,,81,127
115358,note_off,131,0,0,,10,,,81,127
115358,note_on,0,0,0,,2,,,50,127
115358,note_on,0,0,0,,7,,,79,127
115489,note_off,131,0,0,,7,,,79,127
115489,note_on,0,0,0,,6,,,78,127
115620,note_off,131,0,0,,6,,,78,127
115620,note_off,0,0,0,,2,,,50,127
115620,note_off,0,0,0,,2,,,62,127
115620,note_on,0,0,0,,7,,,43,127
115620,note_on,0,0,0,,6,,,78,127
115882,note_off,262,0,0,,6,,,78,127
115882,note_on,0,0,0,,7,,,79,127
116406,note_off,524,0,0,,7,,,43,127
116406,note_on,0,0,0,,2,,,50,127
116406,note_on,0,0,0,,10,,,57,127
116406,note_on,0,0,0,,2,,,62,127
116537,note_off,131,0,0,,7,,,79,127
116537,note_on,0,0,0,,10,,,69,127
116668,note_off,131,0,0,,10,,,69,127
116668,note_off,0,0,0,,2,,,62,127
116668,note_off,0,0,0,,10,,,57,127
116668,note_off,0,0,0,,2,,,50,127
116668,note_on,0,0,0,,2,,,50,127
116668,note_on,0,0,0,,2,,,62,127
116668,note_on,0,0,0,,10,,,57,127
116668,note_on,0,0,0,,11,,,70,127
116799,note_off,131,0,0,,11,,,70,127
116799,note_on,0,0,0,,7,,,67,127
116930,note_off,131,0,0,,7,,,67,127
116930,note_off,0,0,0,,10,,,57,127
116930,note_off,0,0,0,,2,,,62,127
116930,note_off,0,0,0,,2,,,50,127
116930,note_on,0,0,0,,2,,,50,127
116930,note_on,0,0,0,,2,,,62,127
116930,note_on,0,0,0,,10,,,57,127
116930,note_on,0,0,0,,10,,,69,127
117061,note_off,131,0,0,,10,,,69,127
117061,note_on,0,0,0,,6,,,66,127
117192,note_off,131,0,0,,6,,,66,127
117192,note_off,0,0,0,,10,,,57,127
117192,note_off,0,0,0,,2,,,62,127
117192,note_off,0,0,0,,2,,,50,127
117192,note_on,0,0,0,,0,,,48,127
117192,note_on,0,0,0,,0,,,60,127
117192,note_on,0,0,0,,7,,,55,127
117192,note_on,0,0,0,,3,,,63,127
117192,note_on,0,0,0,,3,,,75,127
117454,note_off,262,0,0,,7,,,55,127
117454,note_off,0,0,0,,0,,,60,127
117454,note_off,0,0,0,,0,,,48,127
117454,note_on,0,0,0,,0,,,48,127
117454,note_on,0,0,0,,0,,,60,127
117454,note_on,0,0,0,,7,,,55,127
117716,note_off,262,0,0,,7,,,55,127
117716,note_off,0,0,0,,0,,,60,127
117716,note_off,0,0,0,,0,,,48,127
117716,note_on,0,0,0,,0,,,48,127
117716,note_on,0,0,0,,0,,,60,127
117716,note_on,0,0,0,,7,,,55,127
117976,note_off,260,0,0,,3,,,63,127
117977,note_off,1,0,0,,7,,,55,127
117977,note_off,0,0,0,,0,,,60,127
117977,note_off,0,0,0,,0,,,48,127
117977,note_on,0,0,0,,2,,,50,127
117977,note_on,0,0,0,,2,,,62,127
117977,note_on,0,0,0,,10,,,57,127
118108,note_on,131,0,0,,10,,,69,127
118239,note_off,131,0,0,,10,,,69,127
118239,note_off,0,0,0,,10,,,57,127
118239,note_off,0,0,0,,2,,,62,127
118239,note_off,0,0,0,,2,,,50,127
118239,note_off,0,0,0,,3,,,75,127
118239,note_on,0,0,0,,2,,,50,127
118239,note_on,0,0,0,,2,,,62,127
118239,note_on,0,0,0,,10,,,57,127
118239,note_on,0,0,0,,11,,,70,127
118370,note_off,131,0,0,,11,,,70,127
118370,note_on,0,0,0,,7,,,67,127
118501,note_off,131,0,0,,7,,,67,127
118501,note_off,0,0,0,,10,,,57,127
118501,note_off,0,0,0,,2,,,62,127
118501,note_off,0,0,0,,2,,,50,127
118501,note_on,0,0,0,,2,,,50,127
118501,note_on,0,0,0,,2,,,62,127
118501,note_on,0,0,0,,10,,,57,127
118501,note_on,0,0,0,,10,,,69,127
118632,note_off,131,0,0,,10,,,69,127
118632,note_on,0,0,0,,6,,,66,127
118763,note_off,131,0,0,,6,,,66,127
118763,note_off,0,0,0,,10,,,57,127
118763,note_off,0,0,0,,2,,,62,127
118763,note_off,0,0,0,,2,,,50,127
118763,note_on,0,0,0,,3,,,51,127
118763,note_on,0,0,0,,0,,,60,127
118763,note_on,0,0,0,,10,,,57,127
118763,note_on,0,0,0,,6,,,66,127
118763,note_on,0,0,0,,6,,,78,127
119025,note_off,262,0,0,,10,,,57,127
119025,note_off,0,0,0,,0,,,60,127
119025,note_off,0,0,0,,3,,,51,127
119025,note_on,0,0,0,,3,,,51,127
119025,note_on,0,0,0,,0,,,60,127
119025,note_on,0,0,0,,10,,,57,127
119287,note_off,262,0,0,,10,,,57,127
119287,note_off,0,0,0,,0,,,60,127
119287,note_off,0,0,0,,3,,,51,127
119287,note_on,0,0,0,,3,,,51,127
119287,note_on,0,0,0,,10,,,57,127
119287,note_on,0,0,0,,0,,,60,127
119549,note_off,262,0,0,,0,,,60,127
119549,note_off,0,0,0,,10,,,57,127
119549,note_off,0,0,0,,3,,,51,127
119549,note_on,0,0,0,,2,,,50,127
119549,note_on,0,0,0,,7,,,55,127
119549,note_on,0,0,0,,0,,,60,127
119549,note_on,0,0,0,,10,,,57,127
119680,note_off,131,0,0,,6,,,66,127
119680,note_on,0,0,0,,10,,,69,127
119745,note_off,65,0,0,,7,,,55,127
119810,note_off,65,0,0,,10,,,69,127
119810,note_off,0,0,0,,10,,,57,127
119810,note_off,0,0,0,,0,,,60,127
119810,note_off,0,0,0,,2,,,50,127
119810,note_off,0,0,0,,6,,,78,127
119810,note_on,0,0,0,,2,,,50,127
119810,note_on,0,0,0,,7,,,55,127
119810,note_on,0,0,0,,0,,,60,127
119810,note_on,0,0,0,,10,,,57,127
119810,note_on,0,0,0,,11,,,70,127
119941,note_off,131,0,0,,11,,,70,127
119941,note_on,0,0,0,,7,,,67,127
120006,note_off,65,0,0,,7,,,55,127
120071,note_off,65,0,0,,7,,,67,127
120071,note_off,0,0,0,,10,,,57,127
120071,note_off,0,0,0,,0,,,60,127
120071,note_off,0,0,0,,2,,,50,127
120071,note_on,0,0,0,,10,,,57,127
120071,note_on,0,0,0,,7,,,55,127
120071,note_on,0,0,0,,2,,,50,127
120071,note_on,0,0,0,,0,,,60,127
120071,note_on,0,0,0,,10,,,69,127
120202,note_off,131,0,0,,10,,,69,127
120202,note_on,0,0,0,,6,,,66,127
120267,note_off,65,0,0,,7,,,55,127
120332,note_off,65,0,0,,6,,,66,127
120332,note_off,0,0,0,,0,,,60,127
120332,note_off,0,0,0,,2,,,50,127
120332,note_off,0,0,0,,10,,,57,127
120332,note_on,0,0,0,,3,,,51,127
120332,note_on,0,0,0,,0,,,60,127
120332,note_on,0,0,0,,7,,,55,127
120332,note_on,0,0,0,,10,,,81,127
120332,note_on,0,0,0,,10,,,69,127
120594,note_off,262,0,0,,7,,,55,127
120594,note_off,0,0,0,,0,,,60,127
120594,note_off,0,0,0,,3,,,51,127
120594,note_on,0,0,0,,0,,,60,127
120594,note_on,0,0,0,,7,,,55,127
120594,note_on,0,0,0,,3,,,51,127
120856,note_off,262,0,0,,3,,,51,127
120856,note_off,0,0,0,,7,,,55,127
120856,note_off,0,0,0,,0,,,60,127
120856,note_on,0,0,0,,0,,,60,127
120856,note_on,0,0,0,,7,,,55,127
120856,note_on,0,0,0,,3,,,51,127
121118,note_off,262,0,0,,3,,,51,127
121118,note_off,0,0,0,,7,,,55,127
121118,note_off,0,0,0,,0,,,60,127
121118,note_on,0,0,0,,7,,,55,127
121118,note_on,0,0,0,,2,,,50,127
121118,note_on,0,0,0,,0,,,60,127
121118,note_on,0,0,0,,10,,,57,127
121249,note_off,131,0,0,,7,,,55,127
121249,note_off,0,0,0,,10,,,69,127
121249,note_on,0,0,0,,10,,,69,127
121380,note_off,131,0,0,,10,,,69,127
121380,note_off,0,0,0,,10,,,57,127
121380,note_off,0,0,0,,0,,,60,127
121380,note_off,0,0,0,,2,,,50,127
121380,note_off,0,0,0,,10,,,81,127
121380,note_on,0,0,0,,2,,,50,127
121380,note_on,0,0,0,,0,,,60,127
121380,note_on,0,0,0,,10,,,57,127
121380,note_on,0,0,0,,7,,,55,127
121380,note_on,0,0,0,,11,,,70,127
121511,note_off,131,0,0,,11,,,70,127
121511,note_off,0,0,0,,7,,,55,127
121511,note_on,0,0,0,,7,,,67,127
121642,note_off,131,0,0,,7,,,67,127
121642,note_off,0,0,0,,10,,,57,127
121642,note_off,0,0,0,,0,,,60,127
121642,note_off,0,0,0,,2,,,50,127
121642,note_on,0,0,0,,2,,,50,127
121642,note_on,0,0,0,,0,,,60,127
121642,note_on,0,0,0,,10,,,57,127
121642,note_on,0,0,0,,7,,,55,127
121642,note_on,0,0,0,,10,,,69,127
121773,note_off,131,0,0,,10,,,69,127
121773,note_off,0,0,0,,7,,,55,127
121773,note_on,0,0,0,,6,,,66,127
121904,note_off,131,0,0,,6,,,66,127
121904,note_off,0,0,0,,10,,,57,127
121904,note_off,0,0,0,,0,,,60,127
121904,note_off,0,0,0,,2,,,50,127
121904,note_on,0,0,0,,3,,,51,127
121904,note_on,0,0,0,,0,,,60,127
121904,note_on,0,0,0,,7,,,55,127
121904,note_on,0,0,0,,0,,,84,127
121904,note_on,0,0,0,,0,,,72,127
122166,note_off,262,0,0,,7,,,55,127
122166,note_off,0,0,0,,0,,,60,127
122166,note_off,0,0,0,,3,,,51,127
122166,note_on,0,0,0,,3,,,51,127
122166,note_on,0,0,0,,0,,,60,127
122166,note_on,0,0,0,,7,,,55,127
122428,note_off,262,0,0,,7,,,55,127
122428,note_off,0,0,0,,0,,,60,127
122428,note_off,0,0,0,,3,,,51,127
122428,note_on,0,0,0,,3,,,51,127
122428,note_on,0,0,0,,0,,,60,127
122428,note_on,0,0,0,,7,,,55,127
122690,note_off,262,0,0,,7,,,55,127
122690,note_off,0,0,0,,0,,,60,127
122690,note_off,0,0,0,,3,,,51,127
122690,note_on,0,0,0,,10,,,57,127
122690,note_on,0,0,0,,7,,,55,127
122690,note_on,0,0,0,,2,,,50,127
122690,note_on,0,0,0,,0,,,60,127
122755,note_off,65,0,0,,7,,,55,127
122820,note_off,65,0,0,,0,,,72,127
122820,note_on,0,0,0,,10,,,81,127
122951,note_off,131,0,0,,10,,,81,127
122951,note_off,0,0,0,,0,,,60,127
122951,note_off,0,0,0,,2,,,50,127
122951,note_off,0,0,0,,10,,,57,127
122951,note_off,0,0,0,,0,,,84,127
122951,note_on,0,0,0,,2,,,50,127
122951,note_on,0,0,0,,0,,,60,127
122951,note_on,0,0,0,,10,,,57,127
122951,note_on,0,0,0,,7,,,55,127
122951,note_on,0,0,0,,6,,,78,127
123016,note_off,65,0,0,,7,,,55,127
123081,note_off,65,0,0,,6,,,78,127
123081,note_on,0,0,0,,3,,,75,127
123212,note_off,131,0,0,,3,,,75,127
123212,note_off,0,0,0,,10,,,57,127
123212,note_off,0,0,0,,0,,,60,127
123212,note_off,0,0,0,,2,,,50,127
123212,note_on,0,0,0,,2,,,50,127
123212,note_on,0,0,0,,0,,,60,127
123212,note_on,0,0,0,,10,,,57,127
123212,note_on,0,0,0,,0,,,72,127
123343,note_off,131,0,0,,0,,,72,127
123343,note_on,0,0,0,,10,,,69,127
123474,note_off,131,0,0,,10,,,69,127
123474,note_off,0,0,0,,10,,,57,127
123474,note_off,0,0,0,,0,,,60,127
123474,note_off,0,0,0,,2,,,50,127
123474,note_on,0,0,0,,11,,,58,127
123474,note_on,0,0,0,,7,,,55,127
123474,note_on,0,0,0,,11,,,70,127
123605,note_off,131,0,0,,11,,,70,127
123605,note_on,0,0,0,,7,,,79,127
123736,note_off,131,0,0,,7,,,79,127
123736,note_off,0,0,0,,7,,,55,127
123736,note_off,0,0,0,,11,,,58,127
123736,note_on,0,0,0,,10,,,57,127
123736,note_on,0,0,0,,0,,,60,127
123736,note_on,0,0,0,,0,,,72,127
123867,note_off,131,0,0,,0,,,72,127
123867,note_on,0,0,0,,6,,,78,127
123998,note_off,131,0,0,,6,,,78,127
123998,note_off,0,0,0,,0,,,60,127
123998,note_off,0,0,0,,10,,,57,127
123998,note_on,0,0,0,,11,,,58,127
123998,note_on,0,0,0,,2,,,62,127
123998,note_on,0,0,0,,7,,,79,127
124129,note_off,131,0,0,,7,,,79,127
124129,note_on,0,0,0,,2,,,74,127
124260,note_off,131,0,0,,2,,,74,127
124260,note_off,0,0,0,,2,,,62,127
124260,note_off,0,0,0,,11,,,58,127
124260,note_on,0,0,0,,0,,,60,127
124260,note_on,0,0,0,,3,,,75,127
124391,note_off,131,0,0,,3,,,75,127
124391,note_on,0,0,0,,0,,,84,127
124522,note_off,131,0,0,,0,,,84,127
124522,note_off,0,0,0,,0,,,60,127
124522,note_on,0,0,0,,2,,,62,127
124522,note_on,0,0,0,,11,,,82,127
124653,note_off,131,0,0,,11,,,82,127
124653,note_on,0,0,0,,10,,,81,127
124784,note_off,131,0,0,,10,,,81,127
124784,note_on,0,0,0,,2,,,50,127
124784,note_on,0,0,0,,7,,,79,127
124915,note_off,131,0,0,,7,,,79,127
124915,note_on,0,0,0,,6,,,78,127
125046,note_off,131,0,0,,6,,,78,127
125046,note_off,0,0,0,,2,,,50,127
125046,note_off,0,0,0,,2,,,62,127
125046,note_on,0,0,0,,7,,,43,127
125046,note_on,0,0,0,,7,,,55,127
125046,note_on,0,0,0,,6,,,78,127
125177,note_off,131,0,0,,6,,,78,127
125177,note_on,0,0,0,,7,,,79,127
125308,note_off,131,0,0,,7,,,79,127
125308,note_off,0,0,0,,7,,,55,127
125308,note_off,0,0,0,,7,,,43,127
125308,note_on,0,0,0,,12,,,47,127
125308,note_on,0,0,0,,12,,,59,127
125308,note_on,0,0,0,,12,,,71,127
125439,note_off,131,0,0,,12,,,71,127
125439,note_on,0,0,0,,0,,,72,127
125570,note_off,131,0,0,,0,,,72,127
125570,note_off,0,0,0,,12,,,59,127
125570,note_off,0,0,0,,12,,,47,127
125570,note_on,0,0,0,,7,,,43,127
125570,note_on,0,0,0,,7,,,55,127
125570,note_on,0,0,0,,2,,,74,127
125701,note_off,131,0,0,,2,,,74,127
125701,note_on,0,0,0,,4,,,76,127
125832,note_off,131,0,0,,4,,,76,127
125832,note_off,0,0,0,,7,,,55,127
125832,note_off,0,0,0,,7,,,43,127
125832,note_on,0,0,0,,2,,,38,127
125832,note_on,0,0,0,,2,,,50,127
125832,note_on,0,0,0,,4,,,76,127
125832,note_on,0,0,0,,2,,,74,127
125963,note_off,131,0,0,,2,,,74,127
125963,note_off,0,0,0,,4,,,76,127
125963,note_on,0,0,0,,0,,,72,127
126094,note_off,131,0,0,,0,,,72,127
126094,note_off,0,0,0,,2,,,50,127
126094,note_off,0,0,0,,2,,,38,127
126094,note_on,0,0,0,,6,,,42,127
126094,note_on,0,0,0,,6,,,54,127
126094,note_on,0,0,0,,2,,,74,127
126225,note_off,131,0,0,,2,,,74,127
126225,note_on,0,0,0,,4,,,76,127
126356,note_off,131,0,0,,4,,,76,127
126356,note_off,0,0,0,,6,,,54,127
126356,note_off,0,0,0,,6,,,42,127
126356,note_on,0,0,0,,2,,,38,127
126356,note_on,0,0,0,,2,,,50,127
126356,note_on,0,0,0,,2,,,74,127
126615,note_off,259,0,0,,2,,,74,127
126618,note_off,3,0,0,,2,,,50,127
126618,note_off,0,0,0,,2,,,38,127
126618,note_on,0,0,0,,7,,,43,127
126618,note_on,0,0,0,,7,,,55,127
126749,note_on,131,0,0,,7,,,79,127
126880,note_off,131,0,0,,7,,,79,127
126880,note_off,0,0,0,,7,,,55,127
126880,note_off,0,0,0,,7,,,43,127
126880,note_on,0,0,0,,12,,,47,127
126880,note_on,0,0,0,,12,,,59,127
126880,note_on,0,0,0,,12,,,71,127
127011,note_off,131,0,0,,12,,,71,127
127011,note_on,0,0,0,,0,,,72,127
127142,note_off,131,0,0,,0,,,72,127
127142,note_off,0,0,0,,12,,,59,127
127142,note_off,0,0,0,,12,,,47,127
127142,note_on,0,0,0,,7,,,43,127
127142,note_on,0,0,0,,7,,,55,127
127142,note_on,0,0,0,,2,,,74,127
127273,note_off,131,0,0,,2,,,74,127
127273,note_on,0,0,0,,4,,,76,127
127404,note_off,131,0,0,,4,,,76,127
127404,note_off,0,0,0,,7,,,55,127
127404,note_off,0,0,0,,7,,,43,127
127404,note_on,0,0,0,,2,,,62,127
127404,note_on,0,0,0,,2,,,50,127
127404,note_on,0,0,0,,4,,,76,127
127404,note_on,0,0,0,,2,,,74,127
127535,note_off,131,0,0,,2,,,74,127
127535,note_off,0,0,0,,4,,,76,127
127535,note_on,0,0,0,,0,,,72,127
127666,note_off,131,0,0,,0,,,72,127
127666,note_off,0,0,0,,2,,,50,127
127666,note_off,0,0,0,,2,,,62,127
127666,note_on,0,0,0,,6,,,66,127
127666,note_on,0,0,0,,6,,,54,127
127666,note_on,0,0,0,,2,,,74,127
127797,note_off,131,0,0,,2,,,74,127
127797,note_on,0,0,0,,4,,,76,127
127928,note_off,131,0,0,,4,,,76,127
127928,note_off,0,0,0,,6,,,54,127
127928,note_off,0,0,0,,6,,,66,127
127928,note_on,0,0,0,,2,,,62,127
127928,note_on,0,0,0,,2,,,50,127
127928,note_on,0,0,0,,2,,,74,127
128190,note_off,262,0,0,,2,,,50,127
128190,note_off,0,0,0,,2,,,62,127
128190,note_on,0,0,0,,7,,,55,127
128190,note_on,0,0,0,,7,,,43,127
128321,note_off,131,0,0,,2,,,74,127
128321,note_on,0,0,0,,7,,,79,127
128452,note_off,131,0,0,,7,,,79,127
128452,note_off,0,0,0,,7,,,43,127
128452,note_off,0,0,0,,7,,,55,127
128452,note_on,0,0,0,,12,,,59,127
128452,note_on,0,0,0,,12,,,47,127
128452,note_on,0,0,0,,12,,,71,127
128583,note_off,131,0,0,,12,,,71,127
128583,note_on,0,0,0,,0,,,72,127
128714,note_off,131,0,0,,0,,,72,127
128714,note_off,0,0,0,,12,,,47,127
128714,note_off,0,0,0,,12,,,59,127
128714,note_on,0,0,0,,7,,,55,127
128714,note_on,0,0,0,,7,,,43,127
128714,note_on,0,0,0,,2,,,74,127
128845,note_off,131,0,0,,2,,,74,127
128845,note_on,0,0,0,,4,,,76,127
128976,note_off,131,0,0,,4,,,76,127
128976,note_off,0,0,0,,7,,,43,127
128976,note_off,0,0,0,,7,,,55,127
128976,note_on,0,0,0,,2,,,38,127
128976,note_on,0,0,0,,2,,,50,127
128976,note_on,0,0,0,,2,,,74,127
129107,note_off,131,0,0,,2,,,74,127
129107,note_on,0,0,0,,0,,,72,127
129238,note_off,131,0,0,,0,,,72,127
129238,note_on,0,0,0,,12,,,71,127
129369,note_off,131,0,0,,12,,,71,127
129369,note_on,0,0,0,,10,,,69,127
129500,note_off,131,0,0,,10,,,69,127
129500,note_off,0,0,0,,2,,,50,127
129500,note_off,0,0,0,,2,,,38,127
129500,note_on,0,0,0,,4,,,40,127
129500,note_on,0,0,0,,4,,,52,127
129500,note_on,0,0,0,,7,,,67,127
129631,note_off,131,0,0,,7,,,67,127
129631,note_on,0,0,0,,12,,,71,127
129762,note_off,131,0,0,,12,,,71,127
129762,note_off,0,0,0,,4,,,52,127
129762,note_off,0,0,0,,4,,,40,127
129762,note_on,0,0,0,,0,,,48,127
129762,note_on,0,0,0,,10,,,69,127
129893,note_off,131,0,0,,10,,,69,127
129893,note_on,0,0,0,,0,,,72,127
130024,note_off,131,0,0,,0,,,72,127
130024,note_off,0,0,0,,0,,,48,127
130024,note_on,0,0,0,,2,,,50,127
130024,note_on,0,0,0,,12,,,71,127
130155,note_off,131,0,0,,12,,,71,127
130155,note_on,0,0,0,,10,,,69,127
130286,note_off,131,0,0,,10,,,69,127
130286,note_on,0,0,0,,2,,,38,127
130286,note_on,0,0,0,,7,,,67,127
130417,note_off,131,0,0,,7,,,67,127
130417,note_on,0,0,0,,6,,,66,127
130548,note_off,131,0,0,,6,,,66,127
130548,note_off,0,0,0,,2,,,38,127
130548,note_off,0,0,0,,2,,,50,127
130548,note_on,0,0,0,,7,,,55,127
130548,note_on,0,0,0,,7,,,43,127
130679,note_on,131,0,0,,2,,,86,127
130810,note_off,131,0,0,,2,,,86,127
130810,note_off,0,0,0,,7,,,43,127
130810,note_off,0,0,0,,7,,,55,127
130810,note_on,0,0,0,,12,,,59,127
130810,note_on,0,0,0,,12,,,47,127
130810,note_on,0,0,0,,7,,,79,127
130941,note_off,131,0,0,,7,,,79,127
130941,note_on,0,0,0,,10,,,81,127
131072,note_off,131,0,0,,10,,,81,127
131072,note_off,0,0,0,,12,,,47,127
131072,note_off,0,0,0,,12,,,59,127
131072,note_on,0,0,0,,7,,,55,127
131072,note_on,0,0,0,,7,,,43,127
131072,note_on,0,0,0,,12,,,83,127
131203,note_off,131,0,0,,12,,,83,127
131203,note_on,0,0,0,,0,,,84,127
131334,note_off,131,0,0,,0,,,84,127
131334,note_off,0,0,0,,7,,,43,127
131334,note_off,0,0,0,,7,,,55,127
131334,note_on,0,0,0,,2,,,50,127
131334,note_on,0,0,0,,2,,,38,127
131334,note_on,0,0,0,,12,,,83,127
131334,note_on,0,0,0,,10,,,81,127
131465,note_off,131,0,0,,10,,,81,127
131465,note_off,0,0,0,,12,,,83,127
131465,note_on,0,0,0,,7,,,79,127
131596,note_off,131,0,0,,7,,,79,127
131596,note_off,0,0,0,,2,,,38,127
131596,note_off,0,0,0,,2,,,50,127
131596,note_on,0,0,0,,6,,,54,127
131596,note_on,0,0,0,,6,,,42,127
131596,note_on,0,0,0,,10,,,81,127
131727,note_off,131,0,0,,10,,,81,127
131727,note_on,0,0,0,,12,,,83,127
131858,note_off,131,0,0,,12,,,83,127
131858,note_off,0,0,0,,6,,,42,127
131858,note_off,0,0,0,,6,,,54,127
131858,note_on,0,0,0,,2,,,50,127
131858,note_on,0,0,0,,2,,,38,127
131858,note_on,0,0,0,,10,,,81,127
132120,note_off,262,0,0,,2,,,38,127
132120,note_off,0,0,0,,2,,,50,127
132120,note_on,0,0,0,,7,,,55,127
132120,note_on,0,0,0,,7,,,43,127
132251,note_off,131,0,0,,10,,,81,127
132251,note_on,0,0,0,,2,,,86,127
132382,note_off,131,0,0,,2,,,86,127
132382,note_off,0,0,0,,7,,,43,127
132382,note_off,0,0,0,,7,,,55,127
132382,note_on,0,0,0,,12,,,59,127
132382,note_on,0,0,0,,12,,,47,127
132382,note_on,0,0,0,,7,,,79,127
132513,note_off,131,0,0,,7,,,79,127
132513,note_on,0,0,0,,10,,,81,127
132644,note_off,131,0,0,,10,,,81,127
132644,note_off,0,0,0,,12,,,47,127
132644,note_off,0,0,0,,12,,,59,127
132644,note_on,0,0,0,,7,,,55,127
132644,note_on,0,0,0,,7,,,43,127
132644,note_on,0,0,0,,12,,,83,127
132775,note_off,131,0,0,,12,,,83,127
132775,note_on,0,0,0,,0,,,84,127
132906,note_off,131,0,0,,0,,,84,127
132906,note_off,0,0,0,,7,,,43,127
132906,note_off,0,0,0,,7,,,55,127
132906,note_on,0,0,0,,2,,,62,127
132906,note_on,0,0,0,,2,,,50,127
132906,note_on,0,0,0,,10,,,81,127
132906,note_on,0,0,0,,12,,,83,127
133037,note_off,131,0,0,,12,,,83,127
133037,note_off,0,0,0,,10,,,81,127
133037,note_on,0,0,0,,7,,,79,127
133168,note_off,131,0,0,,7,,,79,127
133168,note_off,0,0,0,,2,,,50,127
133168,note_off,0,0,0,,2,,,62,127
133168,note_on,0,0,0,,6,,,66,127
133168,note_on,0,0,0,,6,,,54,127
133168,note_on,0,0,0,,10,,,81,127
133299,note_off,131,0,0,,10,,,81,127
133299,note_on,0,0,0,,12,,,83,127
133430,note_off,131,0,0,,12,,,83,127
133430,note_off,0,0,0,,6,,,54,127
133430,note_off,0,0,0,,6,,,66,127
133430,note_on,0,0,0,,2,,,62,127
133430,note_on,0,0,0,,2,,,50,127
133430,note_on,0,0,0,,10,,,81,127
133692,note_off,262,0,0,,2,,,50,127
133692,note_off,0,0,0,,2,,,62,127
133692,note_on,0,0,0,,7,,,55,127
133692,note_on,0,0,0,,7,,,43,127
133823,note_off,131,0,0,,10,,,81,127
133823,note_on,0,0,0,,2,,,86,127
133954,note_off,131,0,0,,2,,,86,127
133954,note_off,0,0,0,,7,,,43,127
133954,note_off,0,0,0,,7,,,55,127
133954,note_on,0,0,0,,12,,,59,127
133954,note_on,0,0,0,,12,,,47,127
133954,note_on,0,0,0,,7,,,79,127
134085,note_off,131,0,0,,7,,,79,127
134085,note_on,0,0,0,,10,,,81,127
134216,note_off,131,0,0,,10,,,81,127
134216,note_off,0,0,0,,12,,,47,127
134216,note_off,0,0,0,,12,,,59,127
134216,note_on,0,0,0,,7,,,55,127
134216,note_on,0,0,0,,7,,,43,127
134216,note_on,0,0,0,,12,,,83,127
134347,note_off,131,0,0,,12,,,83,127
134347,note_on,0,0,0,,0,,,84,127
134478,note_off,131,0,0,,0,,,84,127
134478,note_off,0,0,0,,7,,,43,127
134478,note_off,0,0,0,,7,,,55,127
134478,note_on,0,0,0,,2,,,50,127
134478,note_on,0,0,0,,2,,,38,127
134478,note_on,0,0,0,,10,,,81,127
134478,note_on,0,0,0,,12,,,83,127
134609,note_off,131,0,0,,12,,,83,127
134609,note_off,0,0,0,,10,,,81,127
134609,note_on,0,0,0,,7,,,79,127
134740,note_off,131,0,0,,7,,,79,127
134740,note_on,0,0,0,,10,,,81,127
134871,note_off,131,0,0,,10,,,81,127
134871,note_on,0,0,0,,6,,,78,127
135002,note_off,131,0,0,,6,,,78,127
135002,note_off,0,0,0,,2,,,38,127
135002,note_off,0,0,0,,2,,,50,127
135002,note_on,0,0,0,,4,,,52,127
135002,note_on,0,0,0,,4,,,40,127
135002,note_on,0,0,0,,7,,,79,127
135133,note_off,131,0,0,,7,,,79,127
135133,note_on,0,0,0,,0,,,84,127
135264,note_off,131,0,0,,0,,,84,127
135264,note_off,0,0,0,,4,,,40,127
135264,note_off,0,0,0,,4,,,52,127
135264,note_on,0,0,0,,0,,,48,127
135264,note_on,0,0,0,,12,,,83,127
135395,note_off,131,0,0,,12,,,83,127
135395,note_on,0,0,0,,10,,,81,127
135526,note_off,131,0,0,,10,,,81,127
135526,note_off,0,0,0,,0,,,48,127
135526,note_on,0,0,0,,2,,,50,127
135526,note_on,0,0,0,,2,,,86,127
135657,note_off,131,0,0,,2,,,86,127
135657,note_on,0,0,0,,0,,,84,127
135788,note_off,131,0,0,,0,,,84,127
135788,note_on,0,0,0,,2,,,38,127
135788,note_on,0,0,0,,12,,,83,127
135919,note_off,131,0,0,,12,,,83,127
135919,note_on,0,0,0,,10,,,81,127
136050,note_off,131,0,0,,10,,,81,127
136050,note_off,0,0,0,,2,,,38,127
136050,note_off,0,0,0,,2,,,50,127
136061,note_on,11,0,0,,7,,,43,127
136061,note_on,0,0,0,,7,,,79,127
136192,note_off,131,0,0,,7,,,79,127
136192,note_on,0,0,0,,6,,,78,127
136323,note_off,131,0,0,,6,,,78,127
136323,note_off,0,0,0,,7,,,43,127
136323,note_on,0,0,0,,10,,,45,127
136323,note_on,0,0,0,,4,,,76,127
136454,note_off,131,0,0,,4,,,76,127
136454,note_on,0,0,0,,2,,,74,127
136585,note_off,131,0,0,,2,,,74,127
136585,note_off,0,0,0,,10,,,45,127
136585,note_on,0,0,0,,12,,,47,127
136585,note_on,0,0,0,,0,,,72,127
136716,note_off,131,0,0,,0,,,72,127
136716,note_on,0,0,0,,12,,,71,127
136847,note_off,131,0,0,,12,,,71,127
136847,note_off,0,0,0,,12,,,47,127
136847,note_on,0,0,0,,0,,,48,127
136847,note_on,0,0,0,,10,,,69,127
136912,note_off,65,0,0,,10,,,69,127
136912,note_on,0,0,0,,12,,,71,127
136977,note_off,65,0,0,,12,,,71,127
136977,note_on,0,0,0,,0,,,72,127
137108,note_off,131,0,0,,0,,,72,127
137108,note_off,0,0,0,,0,,,48,127
137108,note_on,0,0,0,,2,,,50,127
137108,note_on,0,0,0,,12,,,71,127
137239,note_off,131,0,0,,12,,,71,127
137239,note_on,0,0,0,,10,,,69,127
137370,note_off,131,0,0,,10,,,69,127
137370,note_on,0,0,0,,2,,,38,127
137370,note_on,0,0,0,,7,,,67,127
137501,note_off,131,0,0,,7,,,67,127
137501,note_on,0,0,0,,6,,,66,127
137632,note_off,131,0,0,,2,,,38,127
137632,note_off,0,0,0,,2,,,50,127
137636,note_off,4,0,0,,6,,,66,127
137650,note_on,14,0,0,,7,,,67,127
137650,note_on,0,0,0,,7,,,43,127
137785,note_off,135,0,0,,7,,,67,127
137788,note_on,3,0,0,,6,,,66,127
137922,note_off,134,0,0,,7,,,43,127
137923,note_off,1,0,0,,6,,,66,127
137926,note_on,3,0,0,,4,,,64,127
137926,note_on,0,0,0,,10,,,45,127
138061,note_off,135,0,0,,4,,,64,127
138064,note_on,3,0,0,,2,,,62,127
138198,note_off,134,0,0,,10,,,45,127
138199,note_off,1,0,0,,2,,,62,127
138200,note_on,1,0,0,,0,,,60,127
138200,note_on,0,0,0,,12,,,47,127
138335,note_off,135,0,0,,0,,,60,127
138338,note_on,3,0,0,,12,,,59,127
138472,note_off,134,0,0,,12,,,47,127
138473,note_off,1,0,0,,12,,,59,127
138476,note_on,3,0,0,,10,,,57,127
138476,note_on,0,0,0,,0,,,48,127
138543,note_off,67,0,0,,10,,,57,127
138544,note_on,1,0,0,,12,,,59,127
138611,note_off,67,0,0,,12,,,59,127
138614,note_on,3,0,0,,0,,,60,127
138748,note_off,134,0,0,,0,,,48,127
138749,note_off,1,0,0,,0,,,60,127
138752,note_on,3,0,0,,12,,,59,127
138752,note_on,0,0,0,,2,,,50,127
138887,note_off,135,0,0,,12,,,59,127
138888,note_on,1,0,0,,10,,,57,127
139023,note_off,135,0,0,,10,,,57,127
139026,note_on,3,0,0,,7,,,55,127
139026,note_on,0,0,0,,2,,,38,127
139161,note_off,135,0,0,,7,,,55,127
139164,note_on,3,0,0,,6,,,54,127
139296,note_off,132,0,0,,2,,,50,127
139297,note_off,1,0,0,,2,,,38,127
139298,note_off,1,0,0,,6,,,54,127
139324,note_on,26,0,0,,7,,,43,127
139324,note_on,0,0,0,,7,,,55,127
141309,note_off,1985,0,0,,7,,,55,127
141309,note_off,0,0,0,,7,,,43,127
145920,end_of_track,4611,1,0,,,,,,
