tick,type,time,meta,track,program,channel,pitch,tempo,note,velocity
0,copyright,0,1,0,,,,,,
0,program_change,0,0,0,6,0,,,,
0,pitchwheel,0,0,0,,0,0,,,
0,program_change,0,0,0,6,1,,,,
0,pitchwheel,0,0,0,,1,-590,,,
0,program_change,0,0,0,6,2,,,,
0,pitchwheel,0,0,0,,2,-272,,,
0,program_change,0,0,0,6,3,,,,
0,pitchwheel,0,0,0,,3,-353,,,
0,program_change,0,0,0,6,4,,,,
0,pitchwheel,0,0,0,,4,-560,,,
0,program_change,0,0,0,6,5,,,,
0,pitchwheel,0,0,0,,5,-80,,,
0,program_change,0,0,0,6,6,,,,
0,pitchwheel,0,0,0,,6,-625,,,
0,program_change,0,0,0,6,7,,,,
0,pitchwheel,0,0,0,,7,-130,,,
0,program_change,0,0,0,6,8,,,,
0,pitchwheel,0,0,0,,8,-512,,,
0,program_change,0,0,0,6,10,,,,
0,pitchwheel,0,0,0,,10,-464,,,
0,program_change,0,0,0,6,11,,,,
0,pitchwheel,0,0,0,,11,-208,,,
0,program_change,0,0,0,6,12,,,,
0,pitchwheel,0,0,0,,12,-553,,,
0,set_tempo,0,1,0,,,,500000,,
128,note_on,128,0,0,,10,,,69,127
128,note_on,0,0,0,,5,,,65,127
128,note_on,0,0,0,,0,,,84,127
255,note_off,127,0,0,,0,,,84,127
256,note_on,1,0,0,,10,,,81,127
383,note_off,127,0,0,,10,,,81,127
384,note_on,1,0,0,,0,,,72,127
511,note_off,127,0,0,,0,,,72,127
512,note_on,1,0,0,,5,,,77,127
639,note_off,127,0,0,,5,,,77,127
639,note_off,0,0,0,,5,,,65,127
639,note_off,0,0,0,,10,,,69,127
640,note_on,1,0,0,,11,,,70,127
640,note_on,0,0,0,,7,,,67,127
640,note_on,0,0,0,,4,,,76,127
767,note_off,127,0,0,,4,,,76,127
768,note_on,1,0,0,,7,,,79,127
895,note_off,127,0,0,,7,,,79,127
895,note_off,0,0,0,,7,,,67,127
895,note_off,0,0,0,,11,,,70,127
896,note_on,1,0,0,,0,,,72,127
896,note_on,0,0,0,,10,,,69,127
896,note_on,0,0,0,,7,,,79,127
896,note_on,0,0,0,,5,,,77,127
1023,note_off,127,0,0,,5,,,77,127
1023,note_off,0,0,0,,7,,,79,127
1024,note_on,1,0,0,,4,,,76,127
1151,note_off,127,0,0,,4,,,76,127
1152,note_on,1,0,0,,5,,,77,127
1279,note_off,127,0,0,,5,,,77,127
1280,note_on,1,0,0,,7,,,79,127
1407,note_off,127,0,0,,7,,,79,127
1407,note_off,0,0,0,,10,,,69,127
1407,note_off,0,0,0,,0,,,72,127
1408,note_on,1,0,0,,10,,,69,127
1408,note_on,0,0,0,,0,,,72,127
1408,note_on,0,0,0,,10,,,81,127
1535,note_off,127,0,0,,10,,,81,127
1536,note_on,1,0,0,,5,,,77,127
1663,note_off,127,0,0,,5,,,77,127
1663,note_off,0,0,0,,0,,,72,127
1663,note_off,0,0,0,,10,,,69,127
1664,note_on,1,0,0,,7,,,67,127
1664,note_on,0,0,0,,11,,,70,127
1664,note_on,0,0,0,,11,,,82,127
1791,note_off,127,0,0,,11,,,82,127
1792,note_on,1,0,0,,7,,,79,127
1919,note_off,127,0,0,,7,,,79,127
1919,note_off,0,0,0,,11,,,70,127
1919,note_off,0,0,0,,7,,,67,127
1920,note_on,1,0,0,,0,,,60,127
1920,note_on,0,0,0,,4,,,76,127
2047,note_off,127,0,0,,4,,,76,127
2048,note_on,1,0,0,,0,,,72,127
2175,note_off,127,0,0,,0,,,72,127
2175,note_off,0,0,0,,0,,,60,127
2176,note_on,1,0,0,,4,,,64,127
2176,note_on,0,0,0,,11,,,70,127
2303,note_off,127,0,0,,11,,,70,127
2304,note_on,1,0,0,,7,,,67,127
2431,note_off,127,0,0,,7,,,67,127
2431,note_off,0,0,0,,4,,,64,127
2432,note_on,1,0,0,,5,,,65,127
2432,note_on,0,0,0,,11,,,70,127
2496,note_on,64,0,0,,10,,,69,127
2504,note_off,8,0,0,,11,,,70,127
2559,note_off,55,0,0,,5,,,65,127
2560,note_on,1,0,0,,0,,,60,127
2560,note_on,0,0,0,,11,,,70,127
2568,note_off,8,0,0,,10,,,69,127
2624,note_on,56,0,0,,10,,,69,127
2632,note_off,8,0,0,,11,,,70,127
2687,note_off,55,0,0,,0,,,60,127
2688,note_on,1,0,0,,10,,,57,127
2688,note_on,0,0,0,,11,,,70,127
2696,note_off,8,0,0,,10,,,69,127
2752,note_on,56,0,0,,10,,,69,127
2760,note_off,8,0,0,,11,,,70,127
2815,note_off,55,0,0,,10,,,57,127
2816,note_on,1,0,0,,5,,,53,127
2816,note_on,0,0,0,,11,,,70,127
2824,note_off,8,0,0,,10,,,69,127
2880,note_on,56,0,0,,10,,,69,127
2888,note_off,8,0,0,,11,,,70,127
2944,note_on,56,0,0,,5,,,41,127
2944,note_on,0,0,0,,11,,,70,127
2952,note_off,8,0,0,,10,,,69,127
3008,note_on,56,0,0,,10,,,69,127
3016,note_off,8,0,0,,11,,,70,127
3188,note_off,172,0,0,,10,,,69,127
3199,note_off,11,0,0,,5,,,41,127
3200,note_off,1,0,0,,5,,,53,127
3200,note_on,0,0,0,,5,,,65,127
3200,note_on,0,0,0,,10,,,69,127
3200,note_on,0,0,0,,10,,,81,127
3327,note_off,127,0,0,,10,,,81,127
3328,note_on,1,0,0,,10,,,81,127
3455,note_off,127,0,0,,10,,,81,127
3456,note_on,1,0,0,,0,,,72,127
3583,note_off,127,0,0,,0,,,72,127
3584,note_on,1,0,0,,5,,,77,127
3711,note_off,127,0,0,,5,,,77,127
3711,note_off,0,0,0,,10,,,69,127
3711,note_off,0,0,0,,5,,,65,127
3712,note_on,1,0,0,,11,,,70,127
3712,note_on,0,0,0,,7,,,67,127
3712,note_on,0,0,0,,4,,,76,127
3839,note_off,127,0,0,,4,,,76,127
3840,note_on,1,0,0,,7,,,79,127
3967,note_off,127,0,0,,7,,,79,127
3967,note_off,0,0,0,,7,,,67,127
3967,note_off,0,0,0,,11,,,70,127
3968,note_on,1,0,0,,10,,,69,127
3968,note_on,0,0,0,,0,,,72,127
3968,note_on,0,0,0,,7,,,79,127
3968,note_on,0,0,0,,5,,,77,127
4095,note_off,127,0,0,,5,,,77,127
4095,note_off,0,0,0,,7,,,79,127
4096,note_on,1,0,0,,4,,,76,127
4223,note_off,127,0,0,,4,,,76,127
4224,note_on,1,0,0,,5,,,77,127
4351,note_off,127,0,0,,5,,,77,127
4352,note_on,1,0,0,,7,,,79,127
4479,note_off,127,0,0,,7,,,79,127
4479,note_off,0,0,0,,0,,,72,127
4479,note_off,0,0,0,,10,,,69,127
4480,note_on,1,0,0,,10,,,69,127
4480,note_on,0,0,0,,0,,,72,127
4480,note_on,0,0,0,,10,,,81,127
4607,note_off,127,0,0,,10,,,81,127
4608,note_on,1,0,0,,5,,,77,127
4735,note_off,127,0,0,,5,,,77,127
4735,note_off,0,0,0,,0,,,72,127
4735,note_off,0,0,0,,10,,,69,127
4736,note_on,1,0,0,,11,,,70,127
4736,note_on,0,0,0,,7,,,67,127
4736,note_on,0,0,0,,11,,,82,127
4863,note_off,127,0,0,,11,,,82,127
4864,note_on,1,0,0,,7,,,79,127
4991,note_off,127,0,0,,7,,,79,127
4991,note_off,0,0,0,,7,,,67,127
4991,note_off,0,0,0,,11,,,70,127
4992,note_on,1,0,0,,0,,,60,127
4992,note_on,0,0,0,,4,,,76,127
5119,note_off,127,0,0,,4,,,76,127
5120,note_on,1,0,0,,0,,,72,127
5247,note_off,127,0,0,,0,,,72,127
5247,note_off,0,0,0,,0,,,60,127
5248,note_on,1,0,0,,4,,,64,127
5248,note_on,0,0,0,,11,,,70,127
5375,note_off,127,0,0,,11,,,70,127
5376,note_on,1,0,0,,7,,,67,127
5503,note_off,127,0,0,,7,,,67,127
5503,note_off,0,0,0,,4,,,64,127
5504,note_on,1,0,0,,5,,,65,127
5504,note_on,0,0,0,,7,,,67,127
5760,note_on,256,0,0,,5,,,53,127
6015,note_off,255,0,0,,7,,,67,127
6016,note_on,1,0,0,,10,,,69,127
6144,note_off,128,0,0,,5,,,65,127
6239,note_off,95,0,0,,10,,,69,127
6271,note_off,32,0,0,,5,,,53,127
6272,note_on,1,0,0,,10,,,69,127
6272,note_on,0,0,0,,5,,,65,127
6400,note_on,128,0,0,,10,,,81,127
6527,note_off,127,0,0,,10,,,81,127
6527,note_off,0,0,0,,5,,,65,127
6527,note_off,0,0,0,,10,,,69,127
6528,note_on,1,0,0,,5,,,65,127
6528,note_on,0,0,0,,10,,,69,127
6528,note_on,0,0,0,,5,,,77,127
6655,note_off,127,0,0,,5,,,77,127
6656,note_on,1,0,0,,2,,,74,127
6783,note_off,127,0,0,,2,,,74,127
6783,note_off,0,0,0,,10,,,69,127
6783,note_off,0,0,0,,5,,,65,127
6784,note_on,1,0,0,,5,,,65,127
6784,note_on,0,0,0,,0,,,72,127
6911,note_off,127,0,0,,0,,,72,127
6912,note_on,1,0,0,,12,,,71,127
7037,note_off,125,0,0,,12,,,71,127
7038,note_off,1,0,0,,5,,,65,127
7039,note_on,1,0,0,,7,,,67,127
7039,note_on,0,0,0,,4,,,64,127
7103,note_on,64,0,0,,0,,,72,127
7167,note_on,64,0,0,,2,,,74,127
7175,note_off,8,0,0,,0,,,72,127
7231,note_on,56,0,0,,4,,,76,127
7239,note_off,8,0,0,,2,,,74,127
7294,note_off,55,0,0,,4,,,64,127
7294,note_off,0,0,0,,7,,,67,127
7295,note_on,1,0,0,,7,,,67,127
7295,note_on,0,0,0,,4,,,64,127
7295,note_on,0,0,0,,5,,,77,127
7303,note_off,8,0,0,,4,,,76,127
7359,note_on,56,0,0,,7,,,79,127
7367,note_off,8,0,0,,5,,,77,127
7423,note_on,56,0,0,,10,,,81,127
7431,note_off,8,0,0,,7,,,79,127
7487,note_on,56,0,0,,12,,,83,127
7495,note_off,8,0,0,,10,,,81,127
7550,note_off,55,0,0,,4,,,64,127
7550,note_off,0,0,0,,7,,,67,127
7551,note_on,1,0,0,,7,,,67,127
7551,note_on,0,0,0,,4,,,64,127
7551,note_on,0,0,0,,0,,,84,127
7559,note_off,8,0,0,,12,,,83,127
7804,note_off,245,0,0,,0,,,84,127
7805,note_off,1,0,0,,4,,,64,127
7805,note_off,0,0,0,,7,,,67,127
7806,note_on,1,0,0,,5,,,65,127
7806,note_on,0,0,0,,10,,,69,127
7934,note_on,128,0,0,,10,,,81,127
8061,note_off,127,0,0,,10,,,81,127
8061,note_off,0,0,0,,10,,,69,127
8061,note_off,0,0,0,,5,,,65,127
8062,note_on,1,0,0,,5,,,65,127
8062,note_on,0,0,0,,10,,,69,127
8062,note_on,0,0,0,,5,,,77,127
8189,note_off,127,0,0,,5,,,77,127
8190,note_on,1,0,0,,2,,,74,127
8317,note_off,127,0,0,,2,,,74,127
8317,note_off,0,0,0,,10,,,69,127
8317,note_off,0,0,0,,5,,,65,127
8318,note_on,1,0,0,,5,,,65,127
8318,note_on,0,0,0,,0,,,72,127
8445,note_off,127,0,0,,0,,,72,127
8446,note_on,1,0,0,,12,,,71,127
8571,note_off,125,0,0,,12,,,71,127
8572,note_off,1,0,0,,5,,,65,127
8573,note_on,1,0,0,,4,,,64,127
8573,note_on,0,0,0,,7,,,67,127
8637,note_on,64,0,0,,0,,,72,127
8701,note_on,64,0,0,,2,,,74,127
8709,note_off,8,0,0,,0,,,72,127
8765,note_on,56,0,0,,4,,,76,127
8773,note_off,8,0,0,,2,,,74,127
8828,note_off,55,0,0,,7,,,67,127
8828,note_off,0,0,0,,4,,,64,127
8829,note_on,1,0,0,,7,,,67,127
8829,note_on,0,0,0,,4,,,64,127
8829,note_on,0,0,0,,5,,,77,127
8837,note_off,8,0,0,,4,,,76,127
8893,note_on,56,0,0,,7,,,79,127
8901,note_off,8,0,0,,5,,,77,127
8957,note_on,56,0,0,,10,,,81,127
8965,note_off,8,0,0,,7,,,79,127
9021,note_on,56,0,0,,12,,,83,127
9029,note_off,8,0,0,,10,,,81,127
9084,note_off,55,0,0,,4,,,64,127
9084,note_off,0,0,0,,7,,,67,127
9085,note_on,1,0,0,,7,,,67,127
9085,note_on,0,0,0,,4,,,64,127
9085,note_on,0,0,0,,0,,,84,127
9093,note_off,8,0,0,,12,,,83,127
9338,note_off,245,0,0,,0,,,84,127
9339,note_off,1,0,0,,4,,,64,127
9339,note_off,0,0,0,,7,,,67,127
9340,note_on,1,0,0,,11,,,70,127
9340,note_on,0,0,0,,7,,,67,127
9468,note_on,128,0,0,,11,,,82,127
9595,note_off,127,0,0,,11,,,82,127
9595,note_off,0,0,0,,7,,,67,127
9595,note_off,0,0,0,,11,,,70,127
9596,note_on,1,0,0,,11,,,70,127
9596,note_on,0,0,0,,7,,,67,127
9596,note_on,0,0,0,,7,,,79,127
9723,note_off,127,0,0,,7,,,79,127
9724,note_on,1,0,0,,4,,,76,127
9851,note_off,127,0,0,,4,,,76,127
9851,note_off,0,0,0,,7,,,67,127
9851,note_off,0,0,0,,11,,,70,127
9852,note_on,1,0,0,,7,,,67,127
9852,note_on,0,0,0,,2,,,74,127
9979,note_off,127,0,0,,2,,,74,127
9980,note_on,1,0,0,,1,,,73,127
10107,note_off,127,0,0,,1,,,73,127
10107,note_off,0,0,0,,7,,,67,127
10108,note_on,1,0,0,,10,,,69,127
10108,note_on,0,0,0,,5,,,65,127
10172,note_on,64,0,0,,2,,,74,127
10236,note_on,64,0,0,,4,,,76,127
10244,note_off,8,0,0,,2,,,74,127
10300,note_on,56,0,0,,5,,,77,127
10308,note_off,8,0,0,,4,,,76,127
10363,note_off,55,0,0,,5,,,65,127
10363,note_off,0,0,0,,10,,,69,127
10364,note_on,1,0,0,,5,,,65,127
10364,note_on,0,0,0,,10,,,69,127
10364,note_on,0,0,0,,7,,,79,127
10372,note_off,8,0,0,,5,,,77,127
10428,note_on,56,0,0,,10,,,81,127
10436,note_off,8,0,0,,7,,,79,127
10492,note_on,56,0,0,,12,,,83,127
10500,note_off,8,0,0,,10,,,81,127
10556,note_on,56,0,0,,1,,,85,127
10564,note_off,8,0,0,,12,,,83,127
10619,note_off,55,0,0,,10,,,69,127
10619,note_off,0,0,0,,5,,,65,127
10620,note_on,1,0,0,,5,,,65,127
10620,note_on,0,0,0,,10,,,69,127
10620,note_on,0,0,0,,2,,,86,127
10628,note_off,8,0,0,,1,,,85,127
10873,note_off,245,0,0,,2,,,86,127
10874,note_off,1,0,0,,10,,,69,127
10874,note_off,0,0,0,,5,,,65,127
10875,note_on,1,0,0,,11,,,70,127
10875,note_on,0,0,0,,7,,,67,127
11003,note_on,128,0,0,,11,,,82,127
11130,note_off,127,0,0,,11,,,82,127
11130,note_off,0,0,0,,7,,,67,127
11130,note_off,0,0,0,,11,,,70,127
11131,note_on,1,0,0,,7,,,67,127
11131,note_on,0,0,0,,11,,,70,127
11131,note_on,0,0,0,,7,,,79,127
11258,note_off,127,0,0,,7,,,79,127
11259,note_on,1,0,0,,4,,,76,127
11386,note_off,127,0,0,,4,,,76,127
11386,note_off,0,0,0,,11,,,70,127
11386,note_off,0,0,0,,7,,,67,127
11387,note_on,1,0,0,,7,,,67,127
11387,note_on,0,0,0,,2,,,74,127
11514,note_off,127,0,0,,2,,,74,127
11515,note_on,1,0,0,,1,,,73,127
11642,note_off,127,0,0,,1,,,73,127
11642,note_off,0,0,0,,7,,,67,127
11643,note_on,1,0,0,,5,,,65,127
11643,note_on,0,0,0,,10,,,69,127
11707,note_on,64,0,0,,2,,,74,127
11771,note_on,64,0,0,,4,,,76,127
11779,note_off,8,0,0,,2,,,74,127
11835,note_on,56,0,0,,5,,,77,127
11843,note_off,8,0,0,,4,,,76,127
11898,note_off,55,0,0,,10,,,69,127
11898,note_off,0,0,0,,5,,,65,127
11899,note_on,1,0,0,,5,,,65,127
11899,note_on,0,0,0,,10,,,69,127
11899,note_on,0,0,0,,7,,,79,127
11907,note_off,8,0,0,,5,,,77,127
11963,note_on,56,0,0,,10,,,81,127
11971,note_off,8,0,0,,7,,,79,127
12027,note_on,56,0,0,,12,,,83,127
12035,note_off,8,0,0,,10,,,81,127
12091,note_on,56,0,0,,1,,,85,127
12099,note_off,8,0,0,,12,,,83,127
12154,note_off,55,0,0,,10,,,69,127
12154,note_off,0,0,0,,5,,,65,127
12155,note_on,1,0,0,,5,,,65,127
12155,note_on,0,0,0,,10,,,69,127
12155,note_on,0,0,0,,2,,,86,127
12163,note_off,8,0,0,,1,,,85,127
12410,note_off,247,0,0,,10,,,69,127
12410,note_off,0,0,0,,5,,,65,127
12411,note_on,1,0,0,,10,,,69,127
12411,note_on,0,0,0,,0,,,72,127
12411,note_on,0,0,0,,6,,,66,127
12411,note_on,0,0,0,,2,,,74,127
12538,note_off,127,0,0,,2,,,86,127
12539,note_on,1,0,0,,2,,,86,127
12666,note_off,127,0,0,,2,,,86,127
12666,note_off,0,0,0,,2,,,74,127
12666,note_off,0,0,0,,6,,,66,127
12666,note_off,0,0,0,,0,,,72,127
12666,note_off,0,0,0,,10,,,69,127
12667,note_on,1,0,0,,0,,,72,127
12667,note_on,0,0,0,,10,,,69,127
12667,note_on,0,0,0,,6,,,66,127
12667,note_on,0,0,0,,2,,,74,127
12667,note_on,0,0,0,,2,,,86,127
12794,note_off,127,0,0,,2,,,86,127
12795,note_on,1,0,0,,0,,,84,127
12922,note_off,127,0,0,,0,,,84,127
12922,note_off,0,0,0,,2,,,74,127
12922,note_off,0,0,0,,6,,,66,127
12922,note_off,0,0,0,,10,,,69,127
12922,note_off,0,0,0,,0,,,72,127
12923,note_on,1,0,0,,6,,,66,127
12923,note_on,0,0,0,,0,,,72,127
12923,note_on,0,0,0,,10,,,69,127
12923,note_on,0,0,0,,2,,,74,127
12923,note_on,0,0,0,,0,,,84,127
13050,note_off,127,0,0,,0,,,84,127
13051,note_on,1,0,0,,11,,,82,127
13178,note_off,127,0,0,,11,,,82,127
13178,note_off,0,0,0,,2,,,74,127
13178,note_off,0,0,0,,10,,,69,127
13178,note_off,0,0,0,,0,,,72,127
13178,note_off,0,0,0,,6,,,66,127
13179,note_on,1,0,0,,2,,,74,127
13179,note_on,0,0,0,,11,,,70,127
13179,note_on,0,0,0,,7,,,67,127
13179,note_on,0,0,0,,11,,,82,127
13306,note_off,127,0,0,,11,,,82,127
13307,note_on,1,0,0,,10,,,81,127
13434,note_off,127,0,0,,10,,,81,127
13434,note_off,0,0,0,,7,,,67,127
13434,note_off,0,0,0,,11,,,70,127
13434,note_off,0,0,0,,2,,,74,127
13435,note_on,1,0,0,,11,,,70,127
13435,note_on,0,0,0,,7,,,67,127
13435,note_on,0,0,0,,2,,,74,127
13435,note_on,0,0,0,,10,,,81,127
13562,note_off,127,0,0,,10,,,81,127
13563,note_on,1,0,0,,7,,,79,127
13690,note_off,127,0,0,,7,,,79,127
13690,note_off,0,0,0,,2,,,74,127
13690,note_off,0,0,0,,7,,,67,127
13690,note_off,0,0,0,,11,,,70,127
13691,note_on,1,0,0,,0,,,72,127
13691,note_on,0,0,0,,10,,,69,127
13691,note_on,0,0,0,,7,,,79,127
13818,note_off,127,0,0,,7,,,79,127
13819,note_on,1,0,0,,6,,,78,127
13946,note_off,127,0,0,,6,,,78,127
13946,note_off,0,0,0,,10,,,69,127
13946,note_off,0,0,0,,0,,,72,127
13947,note_on,1,0,0,,11,,,70,127
13947,note_on,0,0,0,,2,,,74,127
13947,note_on,0,0,0,,6,,,78,127
14074,note_off,127,0,0,,6,,,78,127
14075,note_on,1,0,0,,7,,,79,127
14202,note_off,127,0,0,,7,,,79,127
14202,note_off,0,0,0,,2,,,74,127
14202,note_off,0,0,0,,11,,,70,127
14203,note_on,1,0,0,,12,,,71,127
14203,note_on,0,0,0,,7,,,79,127
14330,note_off,127,0,0,,7,,,79,127
14331,note_on,1,0,0,,5,,,77,127
14458,note_off,127,0,0,,5,,,77,127
14458,note_off,0,0,0,,12,,,71,127
14459,note_on,1,0,0,,7,,,67,127
14459,note_on,0,0,0,,5,,,77,127
14586,note_off,127,0,0,,5,,,77,127
14587,note_on,1,0,0,,4,,,76,127
14714,note_off,127,0,0,,4,,,76,127
14714,note_off,0,0,0,,7,,,67,127
14715,note_on,1,0,0,,0,,,60,127
14715,note_on,0,0,0,,7,,,67,127
14715,note_on,0,0,0,,4,,,76,127
14842,note_off,127,0,0,,4,,,76,127
14843,note_on,1,0,0,,2,,,74,127
14970,note_off,127,0,0,,2,,,74,127
14970,note_off,0,0,0,,7,,,67,127
14970,note_off,0,0,0,,0,,,60,127
14971,note_on,1,0,0,,0,,,60,127
14971,note_on,0,0,0,,7,,,67,127
14971,note_on,0,0,0,,2,,,74,127
15098,note_off,127,0,0,,2,,,74,127
15099,note_on,1,0,0,,0,,,72,127
15226,note_off,127,0,0,,0,,,72,127
15226,note_off,0,0,0,,7,,,67,127
15226,note_off,0,0,0,,0,,,60,127
15227,note_on,1,0,0,,5,,,65,127
15227,note_on,0,0,0,,2,,,62,127
15227,note_on,0,0,0,,0,,,72,127
15354,note_off,127,0,0,,0,,,72,127
15355,note_on,1,0,0,,12,,,71,127
15482,note_off,127,0,0,,12,,,71,127
15482,note_off,0,0,0,,2,,,62,127
15482,note_off,0,0,0,,5,,,65,127
15483,note_on,1,0,0,,4,,,64,127
15483,note_on,0,0,0,,7,,,67,127
15483,note_on,0,0,0,,12,,,71,127
15610,note_off,127,0,0,,12,,,71,127
15611,note_on,1,0,0,,0,,,72,127
15738,note_off,127,0,0,,0,,,72,127
15738,note_off,0,0,0,,7,,,67,127
15738,note_off,0,0,0,,4,,,64,127
15739,note_on,1,0,0,,0,,,60,127
15739,note_on,0,0,0,,0,,,72,127
15866,note_off,127,0,0,,0,,,72,127
15867,note_on,1,0,0,,11,,,70,127
15994,note_off,127,0,0,,11,,,70,127
15994,note_off,0,0,0,,0,,,60,127
15995,note_on,1,0,0,,4,,,64,127
15995,note_on,0,0,0,,7,,,67,127
15995,note_on,0,0,0,,11,,,70,127
16122,note_off,127,0,0,,11,,,70,127
16123,note_on,1,0,0,,10,,,69,127
16250,note_off,127,0,0,,10,,,69,127
16250,note_off,0,0,0,,7,,,67,127
16250,note_off,0,0,0,,4,,,64,127
16251,note_on,1,0,0,,5,,,65,127
16251,note_on,0,0,0,,10,,,69,127
16378,note_off,127,0,0,,10,,,69,127
16379,note_on,1,0,0,,12,,,71,127
16506,note_off,127,0,0,,12,,,71,127
16506,note_off,0,0,0,,5,,,65,127
16507,note_on,1,0,0,,2,,,62,127
16507,note_on,0,0,0,,12,,,71,127
16634,note_off,127,0,0,,12,,,71,127
16635,note_on,1,0,0,,0,,,72,127
16762,note_off,127,0,0,,0,,,72,127
16762,note_off,0,0,0,,2,,,62,127
16763,note_on,1,0,0,,4,,,64,127
16763,note_on,0,0,0,,7,,,67,127
16763,note_on,0,0,0,,0,,,72,127
16890,note_off,127,0,0,,0,,,72,127
16891,note_on,1,0,0,,2,,,74,127
17018,note_off,127,0,0,,2,,,74,127
17018,note_off,0,0,0,,7,,,67,127
17018,note_off,0,0,0,,4,,,64,127
17019,note_on,1,0,0,,7,,,67,127
17019,note_on,0,0,0,,2,,,62,127
17019,note_on,0,0,0,,12,,,59,127
17019,note_on,0,0,0,,2,,,74,127
17146,note_off,127,0,0,,2,,,74,127
17147,note_on,1,0,0,,4,,,76,127
17274,note_off,127,0,0,,4,,,76,127
17274,note_off,0,0,0,,12,,,59,127
17274,note_off,0,0,0,,2,,,62,127
17274,note_off,0,0,0,,7,,,67,127
17275,note_on,1,0,0,,4,,,64,127
17275,note_on,0,0,0,,0,,,60,127
17275,note_on,0,0,0,,7,,,67,127
17275,note_on,0,0,0,,4,,,76,127
17402,note_off,127,0,0,,4,,,76,127
17403,note_on,1,0,0,,6,,,78,127
17530,note_off,127,0,0,,6,,,78,127
17530,note_off,0,0,0,,7,,,67,127
17530,note_off,0,0,0,,0,,,60,127
17530,note_off,0,0,0,,4,,,64,127
17531,note_on,1,0,0,,0,,,60,127
17531,note_on,0,0,0,,10,,,57,127
17531,note_on,0,0,0,,6,,,66,127
17531,note_on,0,0,0,,6,,,78,127
17658,note_off,127,0,0,,6,,,78,127
17659,note_on,1,0,0,,7,,,79,127
17786,note_off,127,0,0,,7,,,79,127
17786,note_off,0,0,0,,6,,,66,127
17786,note_off,0,0,0,,10,,,57,127
17786,note_off,0,0,0,,0,,,60,127
17787,note_on,1,0,0,,7,,,55,127
17787,note_on,0,0,0,,7,,,79,127
17914,note_off,127,0,0,,7,,,79,127
17915,note_on,1,0,0,,2,,,74,127
18042,note_off,127,0,0,,2,,,74,127
18043,note_on,1,0,0,,7,,,67,127
18043,note_on,0,0,0,,0,,,72,127
18170,note_off,127,0,0,,0,,,72,127
18171,note_on,1,0,0,,12,,,71,127
18294,note_off,123,0,0,,7,,,55,127
18298,note_off,4,0,0,,12,,,71,127
18298,note_off,0,0,0,,7,,,67,127
18299,note_on,1,0,0,,4,,,64,127
18299,note_on,0,0,0,,0,,,72,127
18363,note_on,64,0,0,,2,,,74,127
18371,note_off,8,0,0,,0,,,72,127
18427,note_on,56,0,0,,0,,,72,127
18435,note_off,8,0,0,,2,,,74,127
18491,note_on,56,0,0,,2,,,74,127
18499,note_off,8,0,0,,0,,,72,127
18554,note_off,55,0,0,,4,,,64,127
18555,note_on,1,0,0,,12,,,59,127
18555,note_on,0,0,0,,7,,,67,127
18555,note_on,0,0,0,,4,,,76,127
18563,note_off,8,0,0,,2,,,74,127
18619,note_on,56,0,0,,2,,,74,127
18627,note_off,8,0,0,,4,,,76,127
18683,note_on,56,0,0,,0,,,72,127
18691,note_off,8,0,0,,2,,,74,127
18747,note_on,56,0,0,,2,,,74,127
18755,note_off,8,0,0,,0,,,72,127
18810,note_off,55,0,0,,12,,,59,127
18811,note_on,1,0,0,,0,,,60,127
18811,note_on,0,0,0,,4,,,76,127
18819,note_off,8,0,0,,2,,,74,127
18875,note_on,56,0,0,,6,,,78,127
18883,note_off,8,0,0,,4,,,76,127
18939,note_on,56,0,0,,4,,,76,127
18947,note_off,8,0,0,,6,,,78,127
19003,note_on,56,0,0,,6,,,78,127
19011,note_off,8,0,0,,4,,,76,127
19062,note_off,51,0,0,,7,,,67,127
19066,note_off,4,0,0,,0,,,60,127
19067,note_on,1,0,0,,10,,,57,127
19067,note_on,0,0,0,,7,,,79,127
19075,note_off,8,0,0,,6,,,78,127
19131,note_on,56,0,0,,6,,,78,127
19139,note_off,8,0,0,,7,,,79,127
19195,note_on,56,0,0,,4,,,76,127
19203,note_off,8,0,0,,6,,,78,127
19259,note_on,56,0,0,,6,,,78,127
19267,note_off,8,0,0,,4,,,76,127
19322,note_off,55,0,0,,10,,,57,127
19323,note_on,1,0,0,,7,,,55,127
19323,note_on,0,0,0,,7,,,79,127
19331,note_off,8,0,0,,6,,,78,127
19450,note_off,119,0,0,,7,,,79,127
19451,note_on,1,0,0,,2,,,74,127
19578,note_off,127,0,0,,2,,,74,127
19579,note_on,1,0,0,,7,,,67,127
19579,note_on,0,0,0,,0,,,72,127
19706,note_off,127,0,0,,0,,,72,127
19707,note_on,1,0,0,,12,,,71,127
19830,note_off,123,0,0,,7,,,55,127
19834,note_off,4,0,0,,12,,,71,127
19834,note_off,0,0,0,,7,,,67,127
19835,note_on,1,0,0,,4,,,64,127
19835,note_on,0,0,0,,0,,,72,127
19899,note_on,64,0,0,,2,,,74,127
19907,note_off,8,0,0,,0,,,72,127
19963,note_on,56,0,0,,0,,,72,127
19971,note_off,8,0,0,,2,,,74,127
20027,note_on,56,0,0,,2,,,74,127
20035,note_off,8,0,0,,0,,,72,127
20090,note_off,55,0,0,,4,,,64,127
20091,note_on,1,0,0,,12,,,59,127
20091,note_on,0,0,0,,7,,,67,127
20091,note_on,0,0,0,,4,,,76,127
20099,note_off,8,0,0,,2,,,74,127
20155,note_on,56,0,0,,2,,,74,127
20163,note_off,8,0,0,,4,,,76,127
20219,note_on,56,0,0,,0,,,72,127
20227,note_off,8,0,0,,2,,,74,127
20283,note_on,56,0,0,,2,,,74,127
20291,note_off,8,0,0,,0,,,72,127
20346,note_off,55,0,0,,12,,,59,127
20347,note_on,1,0,0,,0,,,60,127
20347,note_on,0,0,0,,4,,,76,127
20355,note_off,8,0,0,,2,,,74,127
20411,note_on,56,0,0,,6,,,78,127
20419,note_off,8,0,0,,4,,,76,127
20475,note_on,56,0,0,,4,,,76,127
20483,note_off,8,0,0,,6,,,78,127
20539,note_on,56,0,0,,6,,,78,127
20547,note_off,8,0,0,,4,,,76,127
20602,note_off,55,0,0,,0,,,60,127
20603,note_on,1,0,0,,10,,,57,127
20603,note_on,0,0,0,,7,,,79,127
20611,note_off,8,0,0,,6,,,78,127
20667,note_on,56,0,0,,6,,,78,127
20675,note_off,8,0,0,,7,,,79,127
20731,note_off,56,0,0,,7,,,67,127
20731,note_on,0,0,0,,4,,,76,127
20739,note_off,8,0,0,,6,,,78,127
20795,note_on,56,0,0,,6,,,78,127
20803,note_off,8,0,0,,4,,,76,127
20858,note_off,55,0,0,,10,,,57,127
20859,note_on,1,0,0,,7,,,55,127
20859,note_on,0,0,0,,7,,,79,127
20867,note_off,8,0,0,,6,,,78,127
20986,note_off,119,0,0,,7,,,79,127
20987,note_on,1,0,0,,2,,,74,127
21114,note_off,127,0,0,,2,,,74,127
21115,note_on,1,0,0,,7,,,67,127
21115,note_on,0,0,0,,12,,,71,127
21242,note_off,127,0,0,,12,,,71,127
21242,note_off,0,0,0,,7,,,67,127
21243,note_on,1,0,0,,7,,,67,127
21366,note_off,123,0,0,,7,,,55,127
21370,note_off,4,0,0,,7,,,67,127
21371,note_on,1,0,0,,4,,,64,127
21371,note_on,0,0,0,,0,,,72,127
21498,note_off,127,0,0,,0,,,72,127
21499,note_on,1,0,0,,2,,,74,127
21626,note_off,127,0,0,,2,,,74,127
21626,note_off,0,0,0,,4,,,64,127
21627,note_on,1,0,0,,12,,,59,127
21627,note_on,0,0,0,,7,,,67,127
21627,note_on,0,0,0,,4,,,76,127
21691,note_on,64,0,0,,2,,,74,127
21699,note_off,8,0,0,,4,,,76,127
21755,note_on,56,0,0,,0,,,72,127
21763,note_off,8,0,0,,2,,,74,127
21819,note_on,56,0,0,,2,,,74,127
21827,note_off,8,0,0,,0,,,72,127
21882,note_off,55,0,0,,12,,,59,127
21883,note_on,1,0,0,,0,,,60,127
21883,note_on,0,0,0,,4,,,76,127
21891,note_off,8,0,0,,2,,,74,127
21947,note_on,56,0,0,,6,,,78,127
21955,note_off,8,0,0,,4,,,76,127
22011,note_on,56,0,0,,4,,,76,127
22019,note_off,8,0,0,,6,,,78,127
22075,note_on,56,0,0,,6,,,78,127
22083,note_off,8,0,0,,4,,,76,127
22138,note_off,55,0,0,,0,,,60,127
22139,note_on,1,0,0,,10,,,57,127
22139,note_on,0,0,0,,7,,,79,127
22147,note_off,8,0,0,,6,,,78,127
22203,note_on,56,0,0,,6,,,78,127
22211,note_off,8,0,0,,7,,,79,127
22267,note_on,56,0,0,,4,,,76,127
22275,note_off,8,0,0,,6,,,78,127
22331,note_on,56,0,0,,6,,,78,127
22339,note_off,8,0,0,,4,,,76,127
22394,note_off,55,0,0,,10,,,57,127
22394,note_off,0,0,0,,7,,,67,127
22395,note_on,1,0,0,,7,,,55,127
22395,note_on,0,0,0,,7,,,79,127
22403,note_off,8,0,0,,6,,,78,127
22522,note_off,119,0,0,,7,,,79,127
22523,note_on,1,0,0,,2,,,74,127
22650,note_off,127,0,0,,2,,,74,127
22651,note_on,1,0,0,,7,,,43,127
22651,note_on,0,0,0,,12,,,71,127
22778,note_off,127,0,0,,12,,,71,127
22779,note_on,1,0,0,,7,,,67,127
22902,note_off,123,0,0,,7,,,55,127
22906,note_off,4,0,0,,7,,,67,127
22907,note_on,1,0,0,,2,,,62,127
23034,note_off,127,0,0,,2,,,62,127
23035,note_on,1,0,0,,12,,,59,127
23162,note_off,127,0,0,,12,,,59,127
23162,note_off,0,0,0,,7,,,43,127
23163,note_on,1,0,0,,7,,,55,127
23290,note_off,127,0,0,,7,,,55,127
23291,note_on,1,0,0,,2,,,50,127
23418,note_off,127,0,0,,2,,,50,127
23419,note_on,1,0,0,,12,,,47,127
23546,note_off,127,0,0,,12,,,47,127
23547,note_on,1,0,0,,7,,,43,127
23674,note_off,127,0,0,,7,,,43,127
23675,note_on,1,0,0,,2,,,38,127
23802,note_off,127,0,0,,2,,,38,127
23803,note_on,1,0,0,,12,,,35,127
23930,note_off,127,0,0,,12,,,35,127
23931,note_on,1,0,0,,7,,,31,127
24698,note_off,767,0,0,,7,,,31,127
24699,note_on,1,0,0,,7,,,67,127
24699,note_on,0,0,0,,12,,,71,127
24827,note_on,128,0,0,,7,,,79,127
24954,note_off,127,0,0,,7,,,79,127
24954,note_off,0,0,0,,12,,,71,127
24954,note_off,0,0,0,,7,,,67,127
24955,note_on,1,0,0,,7,,,67,127
24955,note_on,0,0,0,,12,,,71,127
24955,note_on,0,0,0,,2,,,74,127
25082,note_off,127,0,0,,2,,,74,127
25083,note_on,1,0,0,,3,,,75,127
25210,note_off,127,0,0,,3,,,75,127
25210,note_off,0,0,0,,12,,,71,127
25210,note_off,0,0,0,,7,,,67,127
25211,note_on,1,0,0,,7,,,67,127
25211,note_on,0,0,0,,12,,,71,127
25211,note_on,0,0,0,,5,,,77,127
25338,note_off,127,0,0,,5,,,77,127
25339,note_on,1,0,0,,7,,,79,127
25466,note_off,127,0,0,,7,,,79,127
25466,note_off,0,0,0,,12,,,71,127
25466,note_off,0,0,0,,7,,,67,127
25467,note_on,1,0,0,,5,,,65,127
25467,note_on,0,0,0,,0,,,72,127
25467,note_on,0,0,0,,12,,,71,127
25467,note_on,0,0,0,,11,,,82,127
25467,note_on,0,0,0,,8,,,80,127
25722,note_off,255,0,0,,12,,,71,127
25722,note_off,0,0,0,,0,,,72,127
25722,note_off,0,0,0,,5,,,65,127
25723,note_on,1,0,0,,5,,,65,127
25723,note_on,0,0,0,,12,,,71,127
25723,note_on,0,0,0,,0,,,72,127
25850,note_off,127,0,0,,8,,,80,127
25850,note_off,0,0,0,,11,,,82,127
25851,note_on,1,0,0,,7,,,79,127
25978,note_off,127,0,0,,7,,,79,127
25978,note_off,0,0,0,,0,,,72,127
25978,note_off,0,0,0,,12,,,71,127
25978,note_off,0,0,0,,5,,,65,127
25979,note_on,1,0,0,,5,,,65,127
25979,note_on,0,0,0,,12,,,71,127
25979,note_on,0,0,0,,0,,,72,127
25979,note_on,0,0,0,,8,,,80,127
26232,note_off,253,0,0,,8,,,80,127
26233,note_off,1,0,0,,0,,,72,127
26233,note_off,0,0,0,,12,,,71,127
26233,note_off,0,0,0,,5,,,65,127
26234,note_on,1,0,0,,12,,,71,127
26234,note_on,0,0,0,,7,,,67,127
26298,note_on,64,0,0,,7,,,79,127
26362,note_on,64,0,0,,5,,,77,127
26370,note_off,8,0,0,,7,,,79,127
26426,note_on,56,0,0,,3,,,75,127
26434,note_off,8,0,0,,5,,,77,127
26489,note_off,55,0,0,,7,,,67,127
26489,note_off,0,0,0,,12,,,71,127
26490,note_on,1,0,0,,12,,,71,127
26490,note_on,0,0,0,,7,,,67,127
26490,note_on,0,0,0,,2,,,74,127
26498,note_off,8,0,0,,3,,,75,127
26554,note_on,56,0,0,,3,,,75,127
26562,note_off,8,0,0,,2,,,74,127
26618,note_on,56,0,0,,5,,,77,127
26626,note_off,8,0,0,,3,,,75,127
26682,note_on,56,0,0,,7,,,79,127
26690,note_off,8,0,0,,5,,,77,127
26745,note_off,55,0,0,,7,,,67,127
26745,note_off,0,0,0,,12,,,71,127
26746,note_on,1,0,0,,12,,,71,127
26746,note_on,0,0,0,,7,,,67,127
26746,note_on,0,0,0,,5,,,77,127
26754,note_off,8,0,0,,7,,,79,127
26810,note_on,56,0,0,,7,,,79,127
26818,note_off,8,0,0,,5,,,77,127
26874,note_on,56,0,0,,8,,,80,127
26882,note_off,8,0,0,,7,,,79,127
26938,note_on,56,0,0,,11,,,82,127
26946,note_off,8,0,0,,8,,,80,127
26999,note_off,53,0,0,,11,,,82,127
27000,note_off,1,0,0,,7,,,67,127
27000,note_off,0,0,0,,12,,,71,127
27001,note_on,1,0,0,,5,,,65,127
27001,note_on,0,0,0,,12,,,71,127
27001,note_on,0,0,0,,0,,,72,127
27001,note_on,0,0,0,,11,,,82,127
27001,note_on,0,0,0,,8,,,80,127
27256,note_off,255,0,0,,0,,,72,127
27256,note_off,0,0,0,,12,,,71,127
27256,note_off,0,0,0,,5,,,65,127
27257,note_on,1,0,0,,12,,,71,127
27257,note_on,0,0,0,,5,,,65,127
27257,note_on,0,0,0,,0,,,72,127
27384,note_off,127,0,0,,8,,,80,127
27384,note_off,0,0,0,,11,,,82,127
27385,note_on,1,0,0,,7,,,79,127
27512,note_off,127,0,0,,7,,,79,127
27512,note_off,0,0,0,,0,,,72,127
27512,note_off,0,0,0,,5,,,65,127
27512,note_off,0,0,0,,12,,,71,127
27513,note_on,1,0,0,,5,,,65,127
27513,note_on,0,0,0,,12,,,71,127
27513,note_on,0,0,0,,0,,,72,127
27513,note_on,0,0,0,,8,,,80,127
27766,note_off,253,0,0,,8,,,80,127
27767,note_off,1,0,0,,0,,,72,127
27767,note_off,0,0,0,,12,,,71,127
27767,note_off,0,0,0,,5,,,65,127
27768,note_on,1,0,0,,12,,,71,127
27768,note_on,0,0,0,,7,,,67,127
27832,note_on,64,0,0,,7,,,79,127
27896,note_on,64,0,0,,5,,,77,127
27904,note_off,8,0,0,,7,,,79,127
27960,note_on,56,0,0,,3,,,75,127
27968,note_off,8,0,0,,5,,,77,127
28023,note_off,55,0,0,,7,,,67,127
28023,note_off,0,0,0,,12,,,71,127
28024,note_on,1,0,0,,12,,,71,127
28024,note_on,0,0,0,,7,,,67,127
28024,note_on,0,0,0,,2,,,74,127
28032,note_off,8,0,0,,3,,,75,127
28088,note_on,56,0,0,,3,,,75,127
28096,note_off,8,0,0,,2,,,74,127
28152,note_on,56,0,0,,5,,,77,127
28160,note_off,8,0,0,,3,,,75,127
28216,note_on,56,0,0,,7,,,79,127
28224,note_off,8,0,0,,5,,,77,127
28279,note_off,55,0,0,,7,,,67,127
28279,note_off,0,0,0,,12,,,71,127
28280,note_on,1,0,0,,7,,,67,127
28280,note_on,0,0,0,,12,,,71,127
28280,note_on,0,0,0,,5,,,77,127
28288,note_off,8,0,0,,7,,,79,127
28344,note_on,56,0,0,,7,,,79,127
28352,note_off,8,0,0,,5,,,77,127
28408,note_on,56,0,0,,8,,,80,127
28416,note_off,8,0,0,,7,,,79,127
28472,note_on,56,0,0,,11,,,82,127
28480,note_off,8,0,0,,8,,,80,127
28533,note_off,53,0,0,,11,,,82,127
28534,note_off,1,0,0,,12,,,71,127
28534,note_off,0,0,0,,7,,,67,127
28535,note_on,1,0,0,,5,,,65,127
28535,note_on,0,0,0,,12,,,71,127
28535,note_on,0,0,0,,0,,,72,127
28535,note_on,0,0,0,,11,,,82,127
28535,note_on,0,0,0,,8,,,80,127
28790,note_off,255,0,0,,0,,,72,127
28790,note_off,0,0,0,,12,,,71,127
28790,note_off,0,0,0,,5,,,65,127
28791,note_on,1,0,0,,5,,,65,127
28791,note_on,0,0,0,,12,,,71,127
28791,note_on,0,0,0,,0,,,72,127
28918,note_off,127,0,0,,8,,,80,127
28918,note_off,0,0,0,,11,,,82,127
28919,note_on,1,0,0,,7,,,79,127
29046,note_off,127,0,0,,7,,,79,127
29046,note_off,0,0,0,,0,,,72,127
29046,note_off,0,0,0,,12,,,71,127
29046,note_off,0,0,0,,5,,,65,127
29047,note_on,1,0,0,,5,,,65,127
29047,note_on,0,0,0,,12,,,71,127
29047,note_on,0,0,0,,0,,,72,127
29047,note_on,0,0,0,,8,,,80,127
29302,note_off,255,0,0,,8,,,80,127
29302,note_off,0,0,0,,0,,,72,127
29302,note_off,0,0,0,,12,,,71,127
29302,note_off,0,0,0,,5,,,65,127
29303,note_on,1,0,0,,8,,,68,127
29303,note_on,0,0,0,,0,,,72,127
29303,note_on,0,0,0,,5,,,65,127
29431,note_on,128,0,0,,12,,,83,127
29558,note_off,127,0,0,,12,,,83,127
29558,note_off,0,0,0,,5,,,65,127
29558,note_off,0,0,0,,0,,,72,127
29558,note_off,0,0,0,,8,,,68,127
29559,note_on,1,0,0,,8,,,68,127
29559,note_on,0,0,0,,0,,,72,127
29559,note_on,0,0,0,,5,,,65,127
29559,note_on,0,0,0,,0,,,84,127
29686,note_off,127,0,0,,0,,,84,127
29687,note_on,1,0,0,,8,,,80,127
29814,note_off,127,0,0,,8,,,80,127
29814,note_off,0,0,0,,5,,,65,127
29814,note_off,0,0,0,,0,,,72,127
29814,note_off,0,0,0,,8,,,68,127
29815,note_on,1,0,0,,8,,,68,127
29815,note_on,0,0,0,,5,,,65,127
29815,note_on,0,0,0,,0,,,72,127
29815,note_on,0,0,0,,7,,,79,127
29942,note_off,127,0,0,,7,,,79,127
29943,note_on,1,0,0,,6,,,78,127
30070,note_off,127,0,0,,6,,,78,127
30070,note_off,0,0,0,,0,,,72,127
30070,note_off,0,0,0,,5,,,65,127
30070,note_off,0,0,0,,8,,,68,127
30071,note_on,1,0,0,,3,,,63,127
30071,note_on,0,0,0,,0,,,72,127
30071,note_on,0,0,0,,7,,,67,127
30071,note_on,0,0,0,,7,,,79,127
30198,note_off,127,0,0,,7,,,79,127
30199,note_on,1,0,0,,12,,,83,127
30326,note_off,127,0,0,,12,,,83,127
30326,note_off,0,0,0,,7,,,67,127
30326,note_off,0,0,0,,0,,,72,127
30326,note_off,0,0,0,,3,,,63,127
30327,note_on,1,0,0,,0,,,72,127
30327,note_on,0,0,0,,7,,,67,127
30327,note_on,0,0,0,,3,,,63,127
30327,note_on,0,0,0,,0,,,84,127
30454,note_off,127,0,0,,0,,,84,127
30455,note_on,1,0,0,,5,,,77,127
30582,note_off,127,0,0,,5,,,77,127
30582,note_off,0,0,0,,3,,,63,127
30582,note_off,0,0,0,,7,,,67,127
30582,note_off,0,0,0,,0,,,72,127
30583,note_on,1,0,0,,0,,,72,127
30583,note_on,0,0,0,,7,,,67,127
30583,note_on,0,0,0,,3,,,63,127
30583,note_on,0,0,0,,3,,,75,127
30710,note_off,127,0,0,,3,,,75,127
30711,note_on,1,0,0,,2,,,74,127
30838,note_off,127,0,0,,2,,,74,127
30838,note_off,0,0,0,,3,,,63,127
30838,note_off,0,0,0,,7,,,67,127
30838,note_off,0,0,0,,0,,,72,127
30839,note_on,1,0,0,,7,,,67,127
30839,note_on,0,0,0,,5,,,65,127
30839,note_on,0,0,0,,2,,,62,127
30839,note_on,0,0,0,,12,,,71,127
30839,note_on,0,0,0,,5,,,77,127
30966,note_off,127,0,0,,5,,,77,127
30967,note_on,1,0,0,,12,,,83,127
31094,note_off,127,0,0,,12,,,83,127
31094,note_off,0,0,0,,12,,,71,127
31094,note_off,0,0,0,,2,,,62,127
31094,note_off,0,0,0,,5,,,65,127
31094,note_off,0,0,0,,7,,,67,127
31095,note_on,1,0,0,,7,,,67,127
31095,note_on,0,0,0,,5,,,65,127
31095,note_on,0,0,0,,2,,,62,127
31095,note_on,0,0,0,,12,,,71,127
31095,note_on,0,0,0,,0,,,84,127
31222,note_off,127,0,0,,0,,,84,127
31223,note_on,1,0,0,,5,,,77,127
31350,note_off,127,0,0,,5,,,77,127
31350,note_off,0,0,0,,12,,,71,127
31350,note_off,0,0,0,,2,,,62,127
31350,note_off,0,0,0,,5,,,65,127
31350,note_off,0,0,0,,7,,,67,127
31351,note_on,1,0,0,,2,,,62,127
31351,note_on,0,0,0,,12,,,71,127
31351,note_on,0,0,0,,7,,,67,127
31351,note_on,0,0,0,,5,,,65,127
31351,note_on,0,0,0,,3,,,75,127
31478,note_off,127,0,0,,3,,,75,127
31479,note_on,1,0,0,,2,,,74,127
31606,note_off,127,0,0,,2,,,74,127
31606,note_off,0,0,0,,5,,,65,127
31606,note_off,0,0,0,,7,,,67,127
31606,note_off,0,0,0,,12,,,71,127
31606,note_off,0,0,0,,2,,,62,127
31607,note_on,1,0,0,,7,,,67,127
31607,note_on,0,0,0,,0,,,60,127
31607,note_on,0,0,0,,3,,,75,127
31734,note_off,127,0,0,,3,,,75,127
31735,note_on,1,0,0,,5,,,77,127
31862,note_off,127,0,0,,5,,,77,127
31862,note_off,0,0,0,,0,,,60,127
31862,note_off,0,0,0,,7,,,67,127
31863,note_on,1,0,0,,0,,,60,127
31863,note_on,0,0,0,,7,,,67,127
31863,note_on,0,0,0,,7,,,79,127
31990,note_off,127,0,0,,7,,,79,127
31991,note_on,1,0,0,,3,,,75,127
32118,note_off,127,0,0,,3,,,75,127
32118,note_off,0,0,0,,7,,,67,127
32118,note_off,0,0,0,,0,,,60,127
32119,note_on,1,0,0,,0,,,60,127
32119,note_on,0,0,0,,7,,,67,127
32119,note_on,0,0,0,,1,,,73,127
32246,note_off,127,0,0,,1,,,73,127
32247,note_on,1,0,0,,0,,,72,127
32374,note_off,127,0,0,,0,,,72,127
32374,note_off,0,0,0,,7,,,67,127
32374,note_off,0,0,0,,0,,,60,127
32375,note_on,1,0,0,,5,,,65,127
32375,note_on,0,0,0,,1,,,73,127
32502,note_off,127,0,0,,1,,,73,127
32503,note_on,1,0,0,,4,,,76,127
32630,note_off,127,0,0,,4,,,76,127
32631,note_on,1,0,0,,5,,,53,127
32631,note_on,0,0,0,,5,,,77,127
32758,note_off,127,0,0,,5,,,77,127
32759,note_on,1,0,0,,7,,,79,127
32886,note_off,127,0,0,,7,,,79,127
32886,note_off,0,0,0,,5,,,53,127
32886,note_off,0,0,0,,5,,,65,127
32887,note_on,1,0,0,,8,,,56,127
32887,note_on,0,0,0,,8,,,80,127
33014,note_off,127,0,0,,8,,,80,127
33015,note_on,1,0,0,,0,,,72,127
33142,note_off,127,0,0,,0,,,72,127
33142,note_off,0,0,0,,8,,,56,127
33143,note_on,1,0,0,,7,,,55,127
33143,note_on,0,0,0,,0,,,72,127
33399,note_on,256,0,0,,7,,,43,127
33654,note_off,255,0,0,,0,,,72,127
33655,note_on,1,0,0,,12,,,71,127
33878,note_off,223,0,0,,12,,,71,127
33910,note_off,32,0,0,,7,,,43,127
33910,note_off,0,0,0,,7,,,55,127
33911,note_on,1,0,0,,7,,,67,127
33911,note_on,0,0,0,,2,,,74,127
33911,note_on,0,0,0,,12,,,71,127
34038,note_off,127,0,0,,7,,,67,127
34039,note_on,1,0,0,,8,,,68,127
34166,note_off,127,0,0,,8,,,68,127
34166,note_off,0,0,0,,12,,,71,127
34166,note_off,0,0,0,,2,,,74,127
34167,note_on,1,0,0,,7,,,67,127
34167,note_on,0,0,0,,2,,,74,127
34167,note_on,0,0,0,,12,,,71,127
34294,note_off,127,0,0,,7,,,67,127
34295,note_on,1,0,0,,5,,,65,127
34422,note_off,127,0,0,,5,,,65,127
34422,note_off,0,0,0,,12,,,71,127
34422,note_off,0,0,0,,2,,,74,127
34423,note_on,1,0,0,,3,,,63,127
34423,note_on,0,0,0,,3,,,75,127
34423,note_on,0,0,0,,0,,,72,127
34550,note_off,127,0,0,,3,,,63,127
34551,note_on,1,0,0,,2,,,62,127
34678,note_off,127,0,0,,2,,,62,127
34678,note_off,0,0,0,,0,,,72,127
34678,note_off,0,0,0,,3,,,75,127
34679,note_on,1,0,0,,7,,,31,127
34679,note_on,0,0,0,,12,,,71,127
34679,note_on,0,0,0,,2,,,74,127
34806,note_off,127,0,0,,2,,,74,127
34806,note_off,0,0,0,,12,,,71,127
34807,note_on,1,0,0,,3,,,75,127
34807,note_on,0,0,0,,0,,,72,127
34934,note_off,127,0,0,,0,,,72,127
34934,note_off,0,0,0,,3,,,75,127
34935,note_on,1,0,0,,5,,,77,127
34935,note_on,0,0,0,,2,,,74,127
35062,note_off,127,0,0,,2,,,74,127
35062,note_off,0,0,0,,5,,,77,127
35063,note_on,1,0,0,,3,,,75,127
35063,note_on,0,0,0,,7,,,79,127
35190,note_off,127,0,0,,7,,,79,127
35190,note_off,0,0,0,,3,,,75,127
35191,note_on,1,0,0,,5,,,77,127
35191,note_on,0,0,0,,2,,,74,127
35318,note_off,127,0,0,,2,,,74,127
35318,note_off,0,0,0,,5,,,77,127
35319,note_on,1,0,0,,3,,,75,127
35319,note_on,0,0,0,,0,,,72,127
35446,note_off,127,0,0,,0,,,72,127
35446,note_off,0,0,0,,3,,,75,127
35446,note_off,0,0,0,,7,,,31,127
35447,note_on,1,0,0,,7,,,67,127
35447,note_on,0,0,0,,2,,,74,127
35447,note_on,0,0,0,,12,,,71,127
35574,note_off,127,0,0,,7,,,67,127
35575,note_on,1,0,0,,8,,,68,127
35702,note_off,127,0,0,,8,,,68,127
35702,note_off,0,0,0,,12,,,71,127
35702,note_off,0,0,0,,2,,,74,127
35703,note_on,1,0,0,,7,,,67,127
35703,note_on,0,0,0,,12,,,71,127
35703,note_on,0,0,0,,2,,,74,127
35830,note_off,127,0,0,,7,,,67,127
35831,note_on,1,0,0,,5,,,65,127
35958,note_off,127,0,0,,5,,,65,127
35958,note_off,0,0,0,,2,,,74,127
35958,note_off,0,0,0,,12,,,71,127
35959,note_on,1,0,0,,3,,,63,127
35959,note_on,0,0,0,,3,,,75,127
35959,note_on,0,0,0,,0,,,72,127
36086,note_off,127,0,0,,3,,,63,127
36087,note_on,1,0,0,,2,,,62,127
36214,note_off,127,0,0,,2,,,62,127
36214,note_off,0,0,0,,0,,,72,127
36214,note_off,0,0,0,,3,,,75,127
36215,note_on,1,0,0,,7,,,31,127
36215,note_on,0,0,0,,2,,,74,127
36215,note_on,0,0,0,,12,,,71,127
36342,note_off,127,0,0,,12,,,71,127
36342,note_off,0,0,0,,2,,,74,127
36343,note_on,1,0,0,,0,,,72,127
36343,note_on,0,0,0,,3,,,75,127
36470,note_off,127,0,0,,3,,,75,127
36470,note_off,0,0,0,,0,,,72,127
36471,note_on,1,0,0,,2,,,74,127
36471,note_on,0,0,0,,5,,,77,127
36598,note_off,127,0,0,,5,,,77,127
36598,note_off,0,0,0,,2,,,74,127
36599,note_on,1,0,0,,3,,,75,127
36599,note_on,0,0,0,,7,,,79,127
36726,note_off,127,0,0,,7,,,79,127
36726,note_off,0,0,0,,3,,,75,127
36727,note_on,1,0,0,,5,,,77,127
36727,note_on,0,0,0,,2,,,74,127
36854,note_off,127,0,0,,2,,,74,127
36854,note_off,0,0,0,,5,,,77,127
36855,note_on,1,0,0,,0,,,72,127
36855,note_on,0,0,0,,3,,,75,127
36982,note_off,127,0,0,,3,,,75,127
36982,note_off,0,0,0,,0,,,72,127
36982,note_off,0,0,0,,7,,,31,127
36983,note_on,1,0,0,,7,,,67,127
36983,note_on,0,0,0,,2,,,74,127
36983,note_on,0,0,0,,12,,,71,127
37110,note_off,127,0,0,,7,,,67,127
37111,note_on,1,0,0,,8,,,68,127
37238,note_off,127,0,0,,8,,,68,127
37238,note_off,0,0,0,,12,,,71,127
37238,note_off,0,0,0,,2,,,74,127
37239,note_on,1,0,0,,7,,,67,127
37239,note_on,0,0,0,,12,,,71,127
37239,note_on,0,0,0,,2,,,74,127
37366,note_off,127,0,0,,7,,,67,127
37367,note_on,1,0,0,,5,,,65,127
37494,note_off,127,0,0,,5,,,65,127
37494,note_off,0,0,0,,2,,,74,127
37494,note_off,0,0,0,,12,,,71,127
37495,note_on,1,0,0,,3,,,63,127
37495,note_on,0,0,0,,3,,,75,127
37495,note_on,0,0,0,,0,,,72,127
37622,note_off,127,0,0,,3,,,63,127
37623,note_on,1,0,0,,2,,,62,127
37750,note_off,127,0,0,,2,,,62,127
37750,note_off,0,0,0,,0,,,72,127
37750,note_off,0,0,0,,3,,,75,127
37751,note_on,1,0,0,,7,,,31,127
37751,note_on,0,0,0,,12,,,71,127
37751,note_on,0,0,0,,2,,,74,127
37878,note_off,127,0,0,,2,,,74,127
37878,note_off,0,0,0,,12,,,71,127
37879,note_on,1,0,0,,3,,,75,127
38006,note_off,127,0,0,,3,,,75,127
38007,note_on,1,0,0,,5,,,77,127
38134,note_off,127,0,0,,5,,,77,127
38135,note_on,1,0,0,,2,,,74,127
38262,note_off,127,0,0,,2,,,74,127
38262,note_off,0,0,0,,7,,,31,127
38263,note_on,1,0,0,,0,,,36,127
38263,note_on,0,0,0,,0,,,72,127
38263,note_on,0,0,0,,3,,,75,127
38390,note_off,127,0,0,,3,,,75,127
38390,note_off,0,0,0,,0,,,72,127
38391,note_on,1,0,0,,2,,,74,127
38391,note_on,0,0,0,,5,,,77,127
38518,note_off,127,0,0,,5,,,77,127
38518,note_off,0,0,0,,2,,,74,127
38518,note_off,0,0,0,,0,,,36,127
38519,note_on,1,0,0,,5,,,53,127
38519,note_on,0,0,0,,3,,,75,127
38519,note_on,0,0,0,,7,,,79,127
38646,note_off,127,0,0,,7,,,79,127
38646,note_off,0,0,0,,3,,,75,127
38647,note_on,1,0,0,,8,,,80,127
38647,note_on,0,0,0,,5,,,77,127
38774,note_off,127,0,0,,5,,,77,127
38774,note_off,0,0,0,,8,,,80,127
38774,note_off,0,0,0,,5,,,53,127
38775,note_on,1,0,0,,7,,,55,127
38775,note_on,0,0,0,,3,,,75,127
38775,note_on,0,0,0,,7,,,79,127
38902,note_off,127,0,0,,7,,,79,127
38902,note_off,0,0,0,,3,,,75,127
38903,note_on,1,0,0,,2,,,74,127
38903,note_on,0,0,0,,5,,,77,127
39030,note_off,127,0,0,,5,,,77,127
39030,note_off,0,0,0,,2,,,74,127
39031,note_on,1,0,0,,7,,,43,127
39031,note_on,0,0,0,,0,,,72,127
39031,note_on,0,0,0,,3,,,75,127
39158,note_off,127,0,0,,3,,,75,127
39158,note_off,0,0,0,,0,,,72,127
39159,note_off,1,0,0,,7,,,55,127
39159,note_on,0,0,0,,12,,,71,127
39159,note_on,0,0,0,,2,,,74,127
39286,note_off,127,0,0,,2,,,74,127
39286,note_off,0,0,0,,12,,,71,127
39286,note_off,0,0,0,,7,,,43,127
39287,note_on,1,0,0,,0,,,36,127
39287,note_on,0,0,0,,2,,,74,127
39362,note_off,75,0,0,,2,,,74,127
39363,note_on,1,0,0,,0,,,72,127
39438,note_off,75,0,0,,0,,,72,127
39439,note_on,1,0,0,,2,,,74,127
39514,note_off,75,0,0,,2,,,74,127
39515,note_on,1,0,0,,0,,,72,127
39590,note_off,75,0,0,,0,,,72,127
39591,note_on,1,0,0,,2,,,74,127
39666,note_off,75,0,0,,2,,,74,127
39667,note_on,1,0,0,,0,,,72,127
39742,note_off,75,0,0,,0,,,72,127
39743,note_on,1,0,0,,2,,,74,127
39826,note_off,83,0,0,,2,,,74,127
39827,note_on,1,0,0,,0,,,72,127
39902,note_off,75,0,0,,0,,,72,127
39903,note_on,1,0,0,,12,,,71,127
39978,note_off,75,0,0,,12,,,71,127
39979,note_on,1,0,0,,0,,,72,127
40054,note_off,75,0,0,,0,,,72,127
40054,note_off,0,0,0,,0,,,36,127
40055,note_on,1,0,0,,7,,,67,127
40055,note_on,0,0,0,,12,,,71,127
40055,note_on,0,0,0,,2,,,74,127
40182,note_off,127,0,0,,7,,,67,127
40183,note_on,1,0,0,,8,,,68,127
40310,note_off,127,0,0,,8,,,68,127
40310,note_off,0,0,0,,2,,,74,127
40310,note_off,0,0,0,,12,,,71,127
40311,note_on,1,0,0,,7,,,67,127
40311,note_on,0,0,0,,2,,,74,127
40311,note_on,0,0,0,,12,,,71,127
40438,note_off,127,0,0,,7,,,67,127
40439,note_on,1,0,0,,5,,,65,127
40566,note_off,127,0,0,,5,,,65,127
40566,note_off,0,0,0,,12,,,71,127
40566,note_off,0,0,0,,2,,,74,127
40567,note_on,1,0,0,,3,,,63,127
40567,note_on,0,0,0,,3,,,75,127
40567,note_on,0,0,0,,0,,,72,127
40694,note_off,127,0,0,,3,,,63,127
40695,note_on,1,0,0,,2,,,62,127
40822,note_off,127,0,0,,2,,,62,127
40822,note_off,0,0,0,,0,,,72,127
40822,note_off,0,0,0,,3,,,75,127
40823,note_on,1,0,0,,7,,,31,127
40823,note_on,0,0,0,,12,,,71,127
40823,note_on,0,0,0,,2,,,74,127
40950,note_off,127,0,0,,2,,,74,127
40950,note_off,0,0,0,,12,,,71,127
40951,note_on,1,0,0,,3,,,75,127
40951,note_on,0,0,0,,0,,,72,127
41078,note_off,127,0,0,,0,,,72,127
41078,note_off,0,0,0,,3,,,75,127
41079,note_on,1,0,0,,2,,,74,127
41079,note_on,0,0,0,,5,,,77,127
41206,note_off,127,0,0,,5,,,77,127
41206,note_off,0,0,0,,2,,,74,127
41207,note_on,1,0,0,,3,,,75,127
41207,note_on,0,0,0,,7,,,79,127
41334,note_off,127,0,0,,7,,,79,127
41334,note_off,0,0,0,,3,,,75,127
41335,note_on,1,0,0,,5,,,77,127
41335,note_on,0,0,0,,2,,,74,127
41462,note_off,127,0,0,,2,,,74,127
41462,note_off,0,0,0,,5,,,77,127
41463,note_on,1,0,0,,0,,,72,127
41463,note_on,0,0,0,,3,,,75,127
41590,note_off,127,0,0,,3,,,75,127
41590,note_off,0,0,0,,0,,,72,127
41590,note_off,0,0,0,,7,,,31,127
41591,note_on,1,0,0,,7,,,67,127
41591,note_on,0,0,0,,2,,,74,127
41591,note_on,0,0,0,,12,,,71,127
41718,note_off,127,0,0,,7,,,67,127
41719,note_on,1,0,0,,8,,,68,127
41846,note_off,127,0,0,,8,,,68,127
41846,note_off,0,0,0,,12,,,71,127
41846,note_off,0,0,0,,2,,,74,127
41847,note_on,1,0,0,,7,,,67,127
41847,note_on,0,0,0,,2,,,74,127
41847,note_on,0,0,0,,12,,,71,127
41974,note_off,127,0,0,,7,,,67,127
41975,note_on,1,0,0,,5,,,65,127
42102,note_off,127,0,0,,5,,,65,127
42102,note_off,0,0,0,,12,,,71,127
42102,note_off,0,0,0,,2,,,74,127
42103,note_on,1,0,0,,3,,,63,127
42103,note_on,0,0,0,,3,,,75,127
42103,note_on,0,0,0,,0,,,72,127
42230,note_off,127,0,0,,3,,,63,127
42231,note_on,1,0,0,,2,,,62,127
42358,note_off,127,0,0,,2,,,62,127
42358,note_off,0,0,0,,0,,,72,127
42358,note_off,0,0,0,,3,,,75,127
42359,note_on,1,0,0,,7,,,31,127
42359,note_on,0,0,0,,12,,,71,127
42359,note_on,0,0,0,,2,,,74,127
42486,note_off,127,0,0,,2,,,74,127
42486,note_off,0,0,0,,12,,,71,127
42487,note_on,1,0,0,,3,,,75,127
42487,note_on,0,0,0,,0,,,72,127
42614,note_off,127,0,0,,0,,,72,127
42614,note_off,0,0,0,,3,,,75,127
42615,note_on,1,0,0,,5,,,77,127
42615,note_on,0,0,0,,2,,,74,127
42742,note_off,127,0,0,,2,,,74,127
42742,note_off,0,0,0,,5,,,77,127
42743,note_on,1,0,0,,3,,,75,127
42743,note_on,0,0,0,,7,,,79,127
42870,note_off,127,0,0,,7,,,79,127
42870,note_off,0,0,0,,3,,,75,127
42871,note_on,1,0,0,,5,,,77,127
42871,note_on,0,0,0,,2,,,74,127
42998,note_off,127,0,0,,2,,,74,127
42998,note_off,0,0,0,,5,,,77,127
42999,note_on,1,0,0,,3,,,75,127
42999,note_on,0,0,0,,0,,,72,127
43126,note_off,127,0,0,,0,,,72,127
43126,note_off,0,0,0,,3,,,75,127
43126,note_off,0,0,0,,7,,,31,127
43127,note_on,1,0,0,,7,,,67,127
43127,note_on,0,0,0,,12,,,71,127
43127,note_on,0,0,0,,2,,,74,127
43254,note_off,127,0,0,,7,,,67,127
43255,note_on,1,0,0,,8,,,68,127
43382,note_off,127,0,0,,8,,,68,127
43382,note_off,0,0,0,,2,,,74,127
43382,note_off,0,0,0,,12,,,71,127
43383,note_on,1,0,0,,7,,,67,127
43383,note_on,0,0,0,,2,,,74,127
43383,note_on,0,0,0,,12,,,71,127
43510,note_off,127,0,0,,7,,,67,127
43511,note_on,1,0,0,,5,,,65,127
43638,note_off,127,0,0,,5,,,65,127
43638,note_off,0,0,0,,12,,,71,127
43638,note_off,0,0,0,,2,,,74,127
43639,note_on,1,0,0,,3,,,63,127
43639,note_on,0,0,0,,3,,,75,127
43639,note_on,0,0,0,,0,,,72,127
43766,note_off,127,0,0,,3,,,63,127
43767,note_on,1,0,0,,2,,,62,127
43894,note_off,127,0,0,,2,,,62,127
43894,note_off,0,0,0,,0,,,72,127
43894,note_off,0,0,0,,3,,,75,127
43895,note_on,1,0,0,,7,,,31,127
43895,note_on,0,0,0,,12,,,71,127
43895,note_on,0,0,0,,2,,,74,127
44022,note_off,127,0,0,,2,,,74,127
44022,note_off,0,0,0,,12,,,71,127
44023,note_on,1,0,0,,3,,,75,127
44150,note_off,127,0,0,,3,,,75,127
44151,note_on,1,0,0,,5,,,77,127
44278,note_off,127,0,0,,5,,,77,127
44279,note_on,1,0,0,,2,,,74,127
44406,note_off,127,0,0,,2,,,74,127
44406,note_off,0,0,0,,7,,,31,127
44407,note_on,1,0,0,,0,,,36,127
44407,note_on,0,0,0,,0,,,72,127
44407,note_on,0,0,0,,3,,,75,127
44534,note_off,127,0,0,,3,,,75,127
44534,note_off,0,0,0,,0,,,72,127
44535,note_on,1,0,0,,5,,,77,127
44535,note_on,0,0,0,,2,,,74,127
44662,note_off,127,0,0,,2,,,74,127
44662,note_off,0,0,0,,5,,,77,127
44662,note_off,0,0,0,,0,,,36,127
44663,note_on,1,0,0,,5,,,53,127
44663,note_on,0,0,0,,3,,,75,127
44663,note_on,0,0,0,,7,,,79,127
44790,note_off,127,0,0,,7,,,79,127
44790,note_off,0,0,0,,3,,,75,127
44791,note_on,1,0,0,,8,,,80,127
44791,note_on,0,0,0,,5,,,77,127
44918,note_off,127,0,0,,5,,,77,127
44918,note_off,0,0,0,,8,,,80,127
44918,note_off,0,0,0,,5,,,53,127
44919,note_on,1,0,0,,7,,,55,127
44919,note_on,0,0,0,,3,,,75,127
44919,note_on,0,0,0,,7,,,79,127
45046,note_off,127,0,0,,7,,,79,127
45046,note_off,0,0,0,,3,,,75,127
45047,note_on,1,0,0,,5,,,77,127
45047,note_on,0,0,0,,2,,,74,127
45174,note_off,127,0,0,,2,,,74,127
45174,note_off,0,0,0,,5,,,77,127
45175,note_on,1,0,0,,7,,,43,127
45175,note_on,0,0,0,,3,,,75,127
45175,note_on,0,0,0,,0,,,72,127
45302,note_off,127,0,0,,0,,,72,127
45302,note_off,0,0,0,,3,,,75,127
45303,note_on,1,0,0,,12,,,71,127
45303,note_on,0,0,0,,2,,,74,127
45388,note_off,85,0,0,,12,,,71,127
45429,note_off,41,0,0,,2,,,74,127
45429,note_off,0,0,0,,7,,,43,127
45429,note_off,0,0,0,,7,,,55,127
45430,note_on,1,0,0,,0,,,48,127
45430,note_on,0,0,0,,0,,,72,127
45430,note_on,0,0,0,,0,,,84,127
45557,note_off,127,0,0,,0,,,84,127
45558,note_on,1,0,0,,12,,,83,127
45685,note_off,127,0,0,,12,,,83,127
45685,note_off,0,0,0,,0,,,48,127
45686,note_on,1,0,0,,2,,,50,127
45686,note_on,0,0,0,,0,,,84,127
45813,note_off,127,0,0,,0,,,84,127
45814,note_on,1,0,0,,12,,,83,127
45941,note_off,127,0,0,,12,,,83,127
45941,note_off,0,0,0,,2,,,50,127
45942,note_on,1,0,0,,3,,,51,127
45942,note_on,0,0,0,,0,,,84,127
46069,note_off,127,0,0,,0,,,84,127
46070,note_on,1,0,0,,7,,,79,127
46197,note_off,127,0,0,,7,,,79,127
46197,note_off,0,0,0,,3,,,51,127
46197,note_off,0,0,0,,0,,,72,127
46198,note_on,1,0,0,,5,,,53,127
46198,note_on,0,0,0,,8,,,80,127
46325,note_off,127,0,0,,8,,,80,127
46326,note_on,1,0,0,,5,,,77,127
46453,note_off,127,0,0,,5,,,77,127
46453,note_off,0,0,0,,5,,,53,127
46454,note_on,1,0,0,,7,,,55,127
46454,note_on,0,0,0,,3,,,75,127
46581,note_off,127,0,0,,3,,,75,127
46582,note_on,1,0,0,,2,,,74,127
46709,note_off,127,0,0,,2,,,74,127
46710,note_on,1,0,0,,7,,,43,127
46710,note_on,0,0,0,,0,,,72,127
46837,note_off,127,0,0,,0,,,72,127
46838,note_on,1,0,0,,12,,,71,127
46965,note_off,127,0,0,,12,,,71,127
46965,note_off,0,0,0,,7,,,43,127
46965,note_off,0,0,0,,7,,,55,127
46966,note_on,1,0,0,,0,,,48,127
46966,note_on,0,0,0,,7,,,79,127
46966,note_on,0,0,0,,0,,,72,127
47049,note_off,83,0,0,,0,,,72,127
47094,note_on,45,0,0,,12,,,71,127
47221,note_off,127,0,0,,12,,,71,127
47221,note_off,0,0,0,,0,,,48,127
47222,note_on,1,0,0,,2,,,50,127
47222,note_on,0,0,0,,0,,,72,127
47349,note_off,127,0,0,,0,,,72,127
47350,note_on,1,0,0,,12,,,71,127
47477,note_off,127,0,0,,12,,,71,127
47477,note_off,0,0,0,,2,,,50,127
47478,note_on,1,0,0,,3,,,51,127
47478,note_on,0,0,0,,0,,,72,127
47605,note_off,127,0,0,,0,,,72,127
47606,note_on,1,0,0,,7,,,67,127
47733,note_off,127,0,0,,7,,,67,127
47733,note_off,0,0,0,,3,,,51,127
47733,note_off,0,0,0,,7,,,79,127
47734,note_on,1,0,0,,5,,,53,127
47734,note_on,0,0,0,,8,,,68,127
47861,note_off,127,0,0,,8,,,68,127
47862,note_on,1,0,0,,5,,,65,127
47989,note_off,127,0,0,,5,,,65,127
47989,note_off,0,0,0,,5,,,53,127
47990,note_on,1,0,0,,7,,,55,127
47990,note_on,0,0,0,,3,,,63,127
48117,note_off,127,0,0,,3,,,63,127
48118,note_on,1,0,0,,2,,,62,127
48245,note_off,127,0,0,,2,,,62,127
48246,note_on,1,0,0,,7,,,43,127
48246,note_on,0,0,0,,0,,,60,127
48373,note_off,127,0,0,,0,,,60,127
48374,note_off,1,0,0,,7,,,55,127
48374,note_on,0,0,0,,12,,,59,127
48501,note_off,127,0,0,,12,,,59,127
48501,note_off,0,0,0,,7,,,43,127
48502,note_on,1,0,0,,0,,,36,127
48502,note_on,0,0,0,,7,,,67,127
48502,note_on,0,0,0,,0,,,60,127
48629,note_off,127,0,0,,0,,,60,127
48630,note_on,1,0,0,,12,,,59,127
48757,note_off,127,0,0,,12,,,59,127
48757,note_off,0,0,0,,0,,,36,127
48758,note_on,1,0,0,,2,,,38,127
48758,note_on,0,0,0,,0,,,60,127
48885,note_off,127,0,0,,0,,,60,127
48886,note_on,1,0,0,,12,,,59,127
49013,note_off,127,0,0,,12,,,59,127
49013,note_off,0,0,0,,2,,,38,127
49013,note_off,0,0,0,,7,,,67,127
49014,note_on,1,0,0,,3,,,39,127
49014,note_on,0,0,0,,0,,,60,127
49141,note_off,127,0,0,,0,,,60,127
49142,note_on,1,0,0,,7,,,55,127
49269,note_off,127,0,0,,7,,,55,127
49269,note_off,0,0,0,,3,,,39,127
49270,note_on,1,0,0,,5,,,41,127
49270,note_on,0,0,0,,8,,,56,127
49397,note_off,127,0,0,,8,,,56,127
49398,note_on,1,0,0,,5,,,53,127
49525,note_off,127,0,0,,5,,,53,127
49525,note_off,0,0,0,,5,,,41,127
49526,note_on,1,0,0,,7,,,43,127
49526,note_on,0,0,0,,3,,,51,127
49653,note_off,127,0,0,,3,,,51,127
49654,note_on,1,0,0,,2,,,50,127
49781,note_off,127,0,0,,2,,,50,127
49782,note_on,1,0,0,,7,,,31,127
49782,note_on,0,0,0,,0,,,48,127
49909,note_off,127,0,0,,0,,,48,127
49910,note_on,1,0,0,,12,,,47,127
50037,note_off,127,0,0,,12,,,47,127
50037,note_off,0,0,0,,7,,,31,127
50037,note_off,0,0,0,,7,,,43,127
50038,note_on,1,0,0,,0,,,36,127
50038,note_on,0,0,0,,0,,,48,127
50805,note_off,767,0,0,,0,,,48,127
50805,note_off,0,0,0,,0,,,36,127
50806,note_on,1,0,0,,0,,,48,127
50934,note_on,128,0,0,,7,,,79,127
51061,note_off,127,0,0,,7,,,79,127
51062,note_on,1,0,0,,4,,,76,127
51189,note_off,127,0,0,,4,,,76,127
51190,note_on,1,0,0,,5,,,77,127
51317,note_off,127,0,0,,5,,,77,127
51318,note_on,1,0,0,,7,,,79,127
51445,note_off,127,0,0,,7,,,79,127
51446,note_on,1,0,0,,10,,,81,127
51573,note_off,127,0,0,,10,,,81,127
51574,note_on,1,0,0,,7,,,79,127
51701,note_off,127,0,0,,0,,,48,127
51702,note_on,1,0,0,,0,,,72,127
51829,note_off,127,0,0,,0,,,72,127
51829,note_off,0,0,0,,7,,,79,127
51830,note_on,1,0,0,,10,,,69,127
51830,note_on,0,0,0,,0,,,84,127
51957,note_off,127,0,0,,10,,,69,127
51958,note_on,1,0,0,,11,,,70,127
52085,note_off,127,0,0,,11,,,70,127
52085,note_off,0,0,0,,0,,,84,127
52086,note_on,1,0,0,,0,,,72,127
52086,note_on,0,0,0,,5,,,77,127
52213,note_off,127,0,0,,0,,,72,127
52214,note_on,1,0,0,,2,,,74,127
52341,note_off,127,0,0,,2,,,74,127
52341,note_off,0,0,0,,5,,,77,127
52342,note_on,1,0,0,,0,,,72,127
52342,note_on,0,0,0,,4,,,76,127
52469,note_off,127,0,0,,4,,,76,127
52470,note_on,1,0,0,,5,,,77,127
52597,note_off,127,0,0,,5,,,77,127
52597,note_off,0,0,0,,0,,,72,127
52598,note_on,1,0,0,,0,,,60,127
52598,note_on,0,0,0,,7,,,79,127
52725,note_off,127,0,0,,7,,,79,127
52726,note_on,1,0,0,,4,,,76,127
52853,note_off,127,0,0,,4,,,76,127
52853,note_off,0,0,0,,0,,,60,127
52854,note_on,1,0,0,,0,,,60,127
52854,note_on,0,0,0,,2,,,74,127
52981,note_off,127,0,0,,2,,,74,127
52982,note_on,1,0,0,,0,,,72,127
53107,note_off,125,0,0,,0,,,72,127
53108,note_off,1,0,0,,0,,,60,127
53109,note_on,1,0,0,,5,,,65,127
53109,note_on,0,0,0,,2,,,62,127
53173,note_on,64,0,0,,11,,,70,127
53237,note_on,64,0,0,,0,,,72,127
53245,note_off,8,0,0,,11,,,70,127
53301,note_on,56,0,0,,2,,,74,127
53309,note_off,8,0,0,,0,,,72,127
53364,note_off,55,0,0,,2,,,62,127
53364,note_off,0,0,0,,5,,,65,127
53365,note_on,1,0,0,,5,,,65,127
53365,note_on,0,0,0,,2,,,62,127
53365,note_on,0,0,0,,4,,,76,127
53373,note_off,8,0,0,,2,,,74,127
53429,note_on,56,0,0,,5,,,77,127
53437,note_off,8,0,0,,4,,,76,127
53493,note_on,56,0,0,,7,,,79,127
53501,note_off,8,0,0,,5,,,77,127
53557,note_on,56,0,0,,10,,,81,127
53565,note_off,8,0,0,,7,,,79,127
53620,note_off,55,0,0,,2,,,62,127
53620,note_off,0,0,0,,5,,,65,127
53621,note_on,1,0,0,,5,,,65,127
53621,note_on,0,0,0,,2,,,62,127
53621,note_on,0,0,0,,11,,,82,127
53629,note_off,8,0,0,,10,,,81,127
53876,note_off,247,0,0,,2,,,62,127
53876,note_off,0,0,0,,5,,,65,127
53877,note_on,1,0,0,,7,,,67,127
53877,note_on,0,0,0,,4,,,64,127
54004,note_off,127,0,0,,11,,,82,127
54005,note_on,1,0,0,,7,,,79,127
54132,note_off,127,0,0,,7,,,79,127
54132,note_off,0,0,0,,4,,,64,127
54132,note_off,0,0,0,,7,,,67,127
54133,note_on,1,0,0,,4,,,64,127
54133,note_on,0,0,0,,7,,,67,127
54133,note_on,0,0,0,,4,,,76,127
54260,note_off,127,0,0,,4,,,76,127
54261,note_on,1,0,0,,0,,,72,127
54388,note_off,127,0,0,,0,,,72,127
54388,note_off,0,0,0,,7,,,67,127
54388,note_off,0,0,0,,4,,,64,127
54389,note_on,1,0,0,,4,,,64,127
54389,note_on,0,0,0,,11,,,70,127
54516,note_off,127,0,0,,11,,,70,127
54517,note_on,1,0,0,,7,,,67,127
54644,note_off,127,0,0,,7,,,67,127
54644,note_off,0,0,0,,4,,,64,127
54645,note_on,1,0,0,,5,,,65,127
54709,note_on,64,0,0,,10,,,69,127
54773,note_on,64,0,0,,11,,,70,127
54781,note_off,8,0,0,,10,,,69,127
54837,note_on,56,0,0,,0,,,72,127
54845,note_off,8,0,0,,11,,,70,127
54900,note_off,55,0,0,,5,,,65,127
54901,note_on,1,0,0,,5,,,53,127
54901,note_on,0,0,0,,2,,,74,127
54909,note_off,8,0,0,,0,,,72,127
54965,note_on,56,0,0,,4,,,76,127
54973,note_off,8,0,0,,2,,,74,127
55029,note_on,56,0,0,,5,,,77,127
55037,note_off,8,0,0,,4,,,76,127
55093,note_on,56,0,0,,7,,,79,127
55101,note_off,8,0,0,,5,,,77,127
55157,note_on,56,0,0,,10,,,81,127
55165,note_off,8,0,0,,7,,,79,127
55412,note_off,247,0,0,,5,,,53,127
55413,note_on,1,0,0,,5,,,65,127
55413,note_on,0,0,0,,0,,,72,127
55413,note_on,0,0,0,,10,,,69,127
55540,note_off,127,0,0,,10,,,81,127
55541,note_on,1,0,0,,10,,,81,127
55668,note_off,127,0,0,,10,,,81,127
55668,note_off,0,0,0,,10,,,69,127
55668,note_off,0,0,0,,0,,,72,127
55668,note_off,0,0,0,,5,,,65,127
55669,note_on,1,0,0,,0,,,72,127
55669,note_on,0,0,0,,10,,,69,127
55669,note_on,0,0,0,,5,,,65,127
55669,note_on,0,0,0,,10,,,81,127
55796,note_off,127,0,0,,10,,,81,127
55797,note_on,1,0,0,,8,,,80,127
55924,note_off,127,0,0,,8,,,80,127
55924,note_off,0,0,0,,5,,,65,127
55924,note_off,0,0,0,,10,,,69,127
55924,note_off,0,0,0,,0,,,72,127
55925,note_on,1,0,0,,5,,,65,127
55925,note_on,0,0,0,,12,,,71,127
55925,note_on,0,0,0,,8,,,80,127
56052,note_off,127,0,0,,8,,,80,127
56053,note_on,1,0,0,,10,,,81,127
56180,note_off,127,0,0,,10,,,81,127
56180,note_off,0,0,0,,12,,,71,127
56180,note_off,0,0,0,,5,,,65,127
56181,note_on,1,0,0,,4,,,64,127
56181,note_on,0,0,0,,0,,,72,127
56181,note_on,0,0,0,,10,,,69,127
56181,note_on,0,0,0,,10,,,81,127
56308,note_off,127,0,0,,10,,,81,127
56309,note_on,1,0,0,,12,,,83,127
56436,note_off,127,0,0,,12,,,83,127
56436,note_off,0,0,0,,10,,,69,127
56436,note_off,0,0,0,,0,,,72,127
56437,note_on,1,0,0,,12,,,71,127
56437,note_on,0,0,0,,2,,,74,127
56437,note_on,0,0,0,,12,,,83,127
56564,note_off,127,0,0,,12,,,83,127
56565,note_on,1,0,0,,0,,,84,127
56692,note_off,127,0,0,,0,,,84,127
56692,note_off,0,0,0,,2,,,74,127
56692,note_off,0,0,0,,12,,,71,127
56693,note_on,1,0,0,,4,,,76,127
56693,note_on,0,0,0,,0,,,72,127
56693,note_on,0,0,0,,0,,,84,127
56948,note_off,255,0,0,,0,,,72,127
56948,note_off,0,0,0,,4,,,76,127
56948,note_off,0,0,0,,4,,,64,127
56949,note_on,1,0,0,,10,,,69,127
56949,note_on,0,0,0,,5,,,65,127
56949,note_on,0,0,0,,2,,,74,127
57076,note_off,127,0,0,,0,,,84,127
57077,note_on,1,0,0,,2,,,86,127
57204,note_off,127,0,0,,2,,,86,127
57204,note_off,0,0,0,,2,,,74,127
57204,note_off,0,0,0,,5,,,65,127
57204,note_off,0,0,0,,10,,,69,127
57205,note_on,1,0,0,,5,,,65,127
57205,note_on,0,0,0,,2,,,74,127
57205,note_on,0,0,0,,10,,,69,127
57205,note_on,0,0,0,,0,,,84,127
57332,note_off,127,0,0,,0,,,84,127
57333,note_on,1,0,0,,12,,,83,127
57460,note_off,127,0,0,,12,,,83,127
57460,note_off,0,0,0,,10,,,69,127
57460,note_off,0,0,0,,2,,,74,127
57460,note_off,0,0,0,,5,,,65,127
57461,note_on,1,0,0,,10,,,69,127
57461,note_on,0,0,0,,5,,,65,127
57461,note_on,0,0,0,,2,,,74,127
57461,note_on,0,0,0,,10,,,81,127
57588,note_off,127,0,0,,10,,,81,127
57589,note_on,1,0,0,,8,,,80,127
57716,note_off,127,0,0,,8,,,80,127
57716,note_off,0,0,0,,2,,,74,127
57716,note_off,0,0,0,,5,,,65,127
57716,note_off,0,0,0,,10,,,69,127
57717,note_on,1,0,0,,4,,,64,127
57717,note_on,0,0,0,,0,,,72,127
57717,note_on,0,0,0,,10,,,69,127
57717,note_on,0,0,0,,10,,,81,127
57844,note_off,127,0,0,,10,,,81,127
57845,note_on,1,0,0,,8,,,80,127
57972,note_off,127,0,0,,8,,,80,127
57972,note_off,0,0,0,,10,,,69,127
57972,note_off,0,0,0,,0,,,72,127
57972,note_off,0,0,0,,4,,,64,127
57973,note_on,1,0,0,,4,,,64,127
57973,note_on,0,0,0,,0,,,72,127
57973,note_on,0,0,0,,10,,,69,127
57973,note_on,0,0,0,,8,,,80,127
58100,note_off,127,0,0,,8,,,80,127
58101,note_on,1,0,0,,10,,,81,127
58228,note_off,127,0,0,,10,,,81,127
58228,note_off,0,0,0,,10,,,69,127
58228,note_off,0,0,0,,0,,,72,127
58228,note_off,0,0,0,,4,,,64,127
58229,note_on,1,0,0,,10,,,69,127
58229,note_on,0,0,0,,4,,,64,127
58229,note_on,0,0,0,,0,,,72,127
58229,note_on,0,0,0,,10,,,81,127
58482,note_off,253,0,0,,10,,,81,127
58483,note_off,1,0,0,,0,,,72,127
58483,note_off,0,0,0,,4,,,64,127
58483,note_off,0,0,0,,10,,,69,127
58484,note_on,1,0,0,,3,,,63,127
58484,note_on,0,0,0,,0,,,72,127
58484,note_on,0,0,0,,7,,,67,127
58612,note_on,128,0,0,,7,,,79,127
58739,note_off,127,0,0,,7,,,79,127
58739,note_off,0,0,0,,7,,,67,127
58739,note_off,0,0,0,,0,,,72,127
58739,note_off,0,0,0,,3,,,63,127
58740,note_on,1,0,0,,3,,,63,127
58740,note_on,0,0,0,,0,,,72,127
58740,note_on,0,0,0,,7,,,67,127
58740,note_on,0,0,0,,7,,,79,127
58867,note_off,127,0,0,,7,,,79,127
58868,note_on,1,0,0,,6,,,78,127
58995,note_off,127,0,0,,6,,,78,127
58995,note_off,0,0,0,,7,,,67,127
58995,note_off,0,0,0,,0,,,72,127
58995,note_off,0,0,0,,3,,,63,127
58996,note_on,1,0,0,,0,,,72,127
58996,note_on,0,0,0,,10,,,69,127
58996,note_on,0,0,0,,3,,,63,127
58996,note_on,0,0,0,,6,,,78,127
59123,note_off,127,0,0,,6,,,78,127
59124,note_on,1,0,0,,7,,,79,127
59251,note_off,127,0,0,,7,,,79,127
59251,note_off,0,0,0,,3,,,63,127
59251,note_off,0,0,0,,10,,,69,127
59251,note_off,0,0,0,,0,,,72,127
59252,note_on,1,0,0,,2,,,62,127
59252,note_on,0,0,0,,11,,,70,127
59252,note_on,0,0,0,,7,,,67,127
59252,note_on,0,0,0,,7,,,79,127
59379,note_off,127,0,0,,7,,,79,127
59380,note_on,1,0,0,,10,,,81,127
59507,note_off,127,0,0,,10,,,81,127
59507,note_off,0,0,0,,7,,,67,127
59507,note_off,0,0,0,,11,,,70,127
59508,note_on,1,0,0,,10,,,69,127
59508,note_on,0,0,0,,0,,,72,127
59508,note_on,0,0,0,,10,,,81,127
59635,note_off,127,0,0,,10,,,81,127
59636,note_on,1,0,0,,11,,,82,127
59763,note_off,127,0,0,,11,,,82,127
59763,note_off,0,0,0,,0,,,72,127
59763,note_off,0,0,0,,10,,,69,127
59764,note_on,1,0,0,,11,,,70,127
59764,note_on,0,0,0,,2,,,74,127
59764,note_on,0,0,0,,11,,,82,127
60019,note_off,255,0,0,,2,,,74,127
60019,note_off,0,0,0,,11,,,70,127
60019,note_off,0,0,0,,2,,,62,127
60020,note_on,1,0,0,,3,,,63,127
60020,note_on,0,0,0,,0,,,72,127
60020,note_on,0,0,0,,7,,,67,127
60145,note_off,125,0,0,,11,,,82,127
60148,note_on,3,0,0,,0,,,84,127
60275,note_off,127,0,0,,0,,,84,127
60275,note_off,0,0,0,,7,,,67,127
60275,note_off,0,0,0,,0,,,72,127
60275,note_off,0,0,0,,3,,,63,127
60276,note_on,1,0,0,,0,,,72,127
60276,note_on,0,0,0,,3,,,63,127
60276,note_on,0,0,0,,7,,,67,127
60276,note_on,0,0,0,,11,,,82,127
60403,note_off,127,0,0,,11,,,82,127
60404,note_on,1,0,0,,10,,,81,127
60531,note_off,127,0,0,,10,,,81,127
60531,note_off,0,0,0,,7,,,67,127
60531,note_off,0,0,0,,3,,,63,127
60531,note_off,0,0,0,,0,,,72,127
60532,note_on,1,0,0,,3,,,63,127
60532,note_on,0,0,0,,0,,,72,127
60532,note_on,0,0,0,,7,,,67,127
60532,note_on,0,0,0,,7,,,79,127
60659,note_off,127,0,0,,7,,,79,127
60660,note_on,1,0,0,,6,,,78,127
60787,note_off,127,0,0,,6,,,78,127
60787,note_off,0,0,0,,7,,,67,127
60787,note_off,0,0,0,,0,,,72,127
60787,note_off,0,0,0,,3,,,63,127
60788,note_on,1,0,0,,11,,,70,127
60788,note_on,0,0,0,,7,,,67,127
60788,note_on,0,0,0,,2,,,62,127
60788,note_on,0,0,0,,7,,,79,127
60915,note_off,127,0,0,,7,,,79,127
60916,note_on,1,0,0,,6,,,78,127
61043,note_off,127,0,0,,6,,,78,127
61043,note_off,0,0,0,,2,,,62,127
61043,note_off,0,0,0,,7,,,67,127
61043,note_off,0,0,0,,11,,,70,127
61044,note_on,1,0,0,,7,,,67,127
61044,note_on,0,0,0,,2,,,62,127
61044,note_on,0,0,0,,11,,,70,127
61044,note_on,0,0,0,,6,,,78,127
61171,note_off,127,0,0,,6,,,78,127
61172,note_on,1,0,0,,7,,,79,127
61299,note_off,127,0,0,,7,,,79,127
61299,note_off,0,0,0,,11,,,70,127
61299,note_off,0,0,0,,2,,,62,127
61299,note_off,0,0,0,,7,,,67,127
61300,note_on,1,0,0,,11,,,70,127
61300,note_on,0,0,0,,7,,,67,127
61300,note_on,0,0,0,,2,,,62,127
61300,note_on,0,0,0,,7,,,79,127
61553,note_off,253,0,0,,7,,,79,127
61554,note_off,1,0,0,,2,,,62,127
61554,note_off,0,0,0,,7,,,67,127
61554,note_off,0,0,0,,11,,,70,127
61555,note_on,1,0,0,,1,,,61,127
61555,note_on,0,0,0,,10,,,69,127
61555,note_on,0,0,0,,7,,,67,127
61683,note_on,128,0,0,,7,,,79,127
61810,note_off,127,0,0,,7,,,79,127
61810,note_off,0,0,0,,7,,,67,127
61810,note_off,0,0,0,,10,,,69,127
61810,note_off,0,0,0,,1,,,61,127
61811,note_on,1,0,0,,1,,,61,127
61811,note_on,0,0,0,,10,,,69,127
61811,note_on,0,0,0,,7,,,67,127
61811,note_on,0,0,0,,11,,,82,127
61938,note_off,127,0,0,,11,,,82,127
61939,note_on,1,0,0,,7,,,79,127
62066,note_off,127,0,0,,7,,,79,127
62066,note_off,0,0,0,,7,,,67,127
62066,note_off,0,0,0,,10,,,69,127
62066,note_off,0,0,0,,1,,,61,127
62067,note_on,1,0,0,,1,,,61,127
62067,note_on,0,0,0,,10,,,69,127
62067,note_on,0,0,0,,7,,,67,127
62067,note_on,0,0,0,,5,,,77,127
62194,note_off,127,0,0,,5,,,77,127
62195,note_on,1,0,0,,4,,,76,127
62322,note_off,127,0,0,,4,,,76,127
62322,note_off,0,0,0,,7,,,67,127
62322,note_off,0,0,0,,10,,,69,127
62322,note_off,0,0,0,,1,,,61,127
62323,note_on,1,0,0,,2,,,62,127
62323,note_on,0,0,0,,10,,,69,127
62323,note_on,0,0,0,,5,,,77,127
62450,note_off,127,0,0,,5,,,77,127
62451,note_on,1,0,0,,8,,,80,127
62578,note_off,127,0,0,,8,,,80,127
62578,note_off,0,0,0,,10,,,69,127
62578,note_off,0,0,0,,2,,,62,127
62579,note_on,1,0,0,,7,,,67,127
62579,note_on,0,0,0,,4,,,64,127
62579,note_on,0,0,0,,10,,,81,127
62706,note_off,127,0,0,,10,,,81,127
62707,note_on,1,0,0,,5,,,77,127
62834,note_off,127,0,0,,5,,,77,127
62834,note_off,0,0,0,,4,,,64,127
62834,note_off,0,0,0,,7,,,67,127
62835,note_on,1,0,0,,10,,,69,127
62835,note_on,0,0,0,,5,,,65,127
62835,note_on,0,0,0,,4,,,76,127
62962,note_off,127,0,0,,4,,,76,127
62963,note_on,1,0,0,,2,,,74,127
63090,note_off,127,0,0,,2,,,74,127
63090,note_off,0,0,0,,5,,,65,127
63090,note_off,0,0,0,,10,,,69,127
63091,note_on,1,0,0,,7,,,67,127
63091,note_on,0,0,0,,3,,,75,127
63218,note_off,127,0,0,,3,,,75,127
63219,note_on,1,0,0,,6,,,78,127
63346,note_off,127,0,0,,6,,,78,127
63347,note_on,1,0,0,,7,,,55,127
63347,note_on,0,0,0,,7,,,79,127
63474,note_off,127,0,0,,7,,,79,127
63475,note_on,1,0,0,,10,,,81,127
63602,note_off,127,0,0,,10,,,81,127
63602,note_off,0,0,0,,7,,,55,127
63602,note_off,0,0,0,,7,,,67,127
63603,note_on,1,0,0,,11,,,58,127
63603,note_on,0,0,0,,11,,,82,127
63730,note_off,127,0,0,,11,,,82,127
63731,note_on,1,0,0,,2,,,74,127
63858,note_off,127,0,0,,2,,,74,127
63858,note_off,0,0,0,,11,,,58,127
63859,note_on,1,0,0,,10,,,57,127
63859,note_on,0,0,0,,2,,,74,127
64115,note_on,256,0,0,,10,,,45,127
64370,note_off,255,0,0,,2,,,74,127
64371,note_on,1,0,0,,1,,,73,127
64594,note_off,223,0,0,,1,,,73,127
64626,note_off,32,0,0,,10,,,45,127
64626,note_off,0,0,0,,10,,,57,127
64627,note_on,1,0,0,,1,,,73,127
64627,note_on,0,0,0,,10,,,69,127
64755,note_on,128,0,0,,10,,,81,127
64882,note_off,127,0,0,,10,,,81,127
64882,note_off,0,0,0,,10,,,69,127
64882,note_off,0,0,0,,1,,,73,127
64883,note_on,1,0,0,,1,,,73,127
64883,note_on,0,0,0,,10,,,69,127
64883,note_on,0,0,0,,4,,,76,127
65010,note_off,127,0,0,,4,,,76,127
65011,note_on,1,0,0,,5,,,77,127
65138,note_off,127,0,0,,5,,,77,127
65138,note_off,0,0,0,,10,,,69,127
65138,note_off,0,0,0,,1,,,73,127
65139,note_on,1,0,0,,1,,,73,127
65139,note_on,0,0,0,,10,,,69,127
65139,note_on,0,0,0,,7,,,79,127
65266,note_off,127,0,0,,7,,,79,127
65267,note_on,1,0,0,,10,,,81,127
65394,note_off,127,0,0,,10,,,81,127
65394,note_off,0,0,0,,10,,,69,127
65394,note_off,0,0,0,,1,,,73,127
65395,note_on,1,0,0,,7,,,67,127
65395,note_on,0,0,0,,11,,,70,127
65395,note_on,0,0,0,,2,,,74,127
65395,note_on,0,0,0,,11,,,82,127
65395,note_on,0,0,0,,0,,,84,127
65650,note_off,255,0,0,,2,,,74,127
65650,note_off,0,0,0,,11,,,70,127
65650,note_off,0,0,0,,7,,,67,127
65651,note_on,1,0,0,,7,,,67,127
65651,note_on,0,0,0,,2,,,74,127
65651,note_on,0,0,0,,11,,,70,127
65778,note_off,127,0,0,,0,,,84,127
65778,note_off,0,0,0,,11,,,82,127
65779,note_on,1,0,0,,10,,,81,127
65906,note_off,127,0,0,,10,,,81,127
65906,note_off,0,0,0,,11,,,70,127
65906,note_off,0,0,0,,2,,,74,127
65906,note_off,0,0,0,,7,,,67,127
65907,note_on,1,0,0,,11,,,70,127
65907,note_on,0,0,0,,2,,,74,127
65907,note_on,0,0,0,,7,,,67,127
65907,note_on,0,0,0,,11,,,82,127
66162,note_off,255,0,0,,7,,,67,127
66162,note_off,0,0,0,,2,,,74,127
66162,note_off,0,0,0,,11,,,70,127
66163,note_on,1,0,0,,10,,,69,127
66163,note_on,0,0,0,,1,,,73,127
66226,note_off,63,0,0,,11,,,82,127
66227,note_on,1,0,0,,10,,,81,127
66291,note_on,64,0,0,,7,,,79,127
66299,note_off,8,0,0,,10,,,81,127
66355,note_on,56,0,0,,5,,,77,127
66363,note_off,8,0,0,,7,,,79,127
66418,note_off,55,0,0,,1,,,73,127
66418,note_off,0,0,0,,10,,,69,127
66419,note_on,1,0,0,,1,,,73,127
66419,note_on,0,0,0,,10,,,69,127
66419,note_on,0,0,0,,4,,,76,127
66427,note_off,8,0,0,,5,,,77,127
66483,note_on,56,0,0,,5,,,77,127
66491,note_off,8,0,0,,4,,,76,127
66547,note_on,56,0,0,,7,,,79,127
66555,note_off,8,0,0,,5,,,77,127
66611,note_on,56,0,0,,10,,,81,127
66619,note_off,8,0,0,,7,,,79,127
66674,note_off,55,0,0,,10,,,69,127
66674,note_off,0,0,0,,1,,,73,127
66675,note_on,1,0,0,,1,,,73,127
66675,note_on,0,0,0,,10,,,69,127
66675,note_on,0,0,0,,7,,,79,127
66683,note_off,8,0,0,,10,,,81,127
66739,note_on,56,0,0,,10,,,81,127
66747,note_off,8,0,0,,7,,,79,127
66803,note_on,56,0,0,,11,,,82,127
66811,note_off,8,0,0,,10,,,81,127
66867,note_on,56,0,0,,0,,,84,127
66875,note_off,8,0,0,,11,,,82,127
66928,note_off,53,0,0,,0,,,84,127
66929,note_off,1,0,0,,10,,,69,127
66929,note_off,0,0,0,,1,,,73,127
66930,note_on,1,0,0,,7,,,67,127
66930,note_on,0,0,0,,11,,,70,127
66930,note_on,0,0,0,,2,,,74,127
66930,note_on,0,0,0,,11,,,82,127
66930,note_on,0,0,0,,0,,,84,127
67185,note_off,255,0,0,,2,,,74,127
67185,note_off,0,0,0,,11,,,70,127
67185,note_off,0,0,0,,7,,,67,127
67186,note_on,1,0,0,,2,,,74,127
67186,note_on,0,0,0,,11,,,70,127
67186,note_on,0,0,0,,7,,,67,127
67313,note_off,127,0,0,,0,,,84,127
67313,note_off,0,0,0,,11,,,82,127
67314,note_on,1,0,0,,10,,,81,127
67441,note_off,127,0,0,,10,,,81,127
67441,note_off,0,0,0,,7,,,67,127
67441,note_off,0,0,0,,11,,,70,127
67441,note_off,0,0,0,,2,,,74,127
67442,note_on,1,0,0,,2,,,74,127
67442,note_on,0,0,0,,11,,,70,127
67442,note_on,0,0,0,,7,,,67,127
67442,note_on,0,0,0,,11,,,82,127
67697,note_off,255,0,0,,7,,,67,127
67697,note_off,0,0,0,,11,,,70,127
67697,note_off,0,0,0,,2,,,74,127
67698,note_on,1,0,0,,10,,,69,127
67698,note_on,0,0,0,,1,,,73,127
67761,note_off,63,0,0,,11,,,82,127
67762,note_on,1,0,0,,10,,,81,127
67826,note_on,64,0,0,,7,,,79,127
67834,note_off,8,0,0,,10,,,81,127
67890,note_on,56,0,0,,5,,,77,127
67898,note_off,8,0,0,,7,,,79,127
67953,note_off,55,0,0,,1,,,73,127
67953,note_off,0,0,0,,10,,,69,127
67954,note_on,1,0,0,,10,,,69,127
67954,note_on,0,0,0,,1,,,73,127
67954,note_on,0,0,0,,4,,,76,127
67962,note_off,8,0,0,,5,,,77,127
68018,note_on,56,0,0,,5,,,77,127
68026,note_off,8,0,0,,4,,,76,127
68082,note_on,56,0,0,,7,,,79,127
68090,note_off,8,0,0,,5,,,77,127
68146,note_on,56,0,0,,10,,,81,127
68154,note_off,8,0,0,,7,,,79,127
68209,note_off,55,0,0,,1,,,73,127
68209,note_off,0,0,0,,10,,,69,127
68210,note_on,1,0,0,,1,,,73,127
68210,note_on,0,0,0,,10,,,69,127
68210,note_on,0,0,0,,7,,,79,127
68218,note_off,8,0,0,,10,,,81,127
68274,note_on,56,0,0,,10,,,81,127
68282,note_off,8,0,0,,7,,,79,127
68338,note_on,56,0,0,,11,,,82,127
68346,note_off,8,0,0,,10,,,81,127
68402,note_on,56,0,0,,0,,,84,127
68410,note_off,8,0,0,,11,,,82,127
68463,note_off,53,0,0,,0,,,84,127
68464,note_off,1,0,0,,10,,,69,127
68464,note_off,0,0,0,,1,,,73,127
68465,note_on,1,0,0,,11,,,70,127
68465,note_on,0,0,0,,7,,,67,127
68465,note_on,0,0,0,,2,,,74,127
68465,note_on,0,0,0,,0,,,84,127
68465,note_on,0,0,0,,11,,,82,127
68720,note_off,255,0,0,,2,,,74,127
68720,note_off,0,0,0,,7,,,67,127
68720,note_off,0,0,0,,11,,,70,127
68721,note_on,1,0,0,,2,,,74,127
68721,note_on,0,0,0,,11,,,70,127
68721,note_on,0,0,0,,7,,,67,127
68848,note_off,127,0,0,,11,,,82,127
68848,note_off,0,0,0,,0,,,84,127
68849,note_on,1,0,0,,10,,,81,127
68976,note_off,127,0,0,,10,,,81,127
68976,note_off,0,0,0,,7,,,67,127
68976,note_off,0,0,0,,11,,,70,127
68976,note_off,0,0,0,,2,,,74,127
68977,note_on,1,0,0,,2,,,74,127
68977,note_on,0,0,0,,11,,,70,127
68977,note_on,0,0,0,,7,,,67,127
68977,note_on,0,0,0,,11,,,82,127
69061,note_off,84,0,0,,11,,,82,127
69062,note_on,1,0,0,,0,,,84,127
69146,note_off,84,0,0,,0,,,84,127
69147,note_on,1,0,0,,2,,,86,127
69231,note_off,84,0,0,,2,,,86,127
69231,note_off,0,0,0,,7,,,67,127
69231,note_off,0,0,0,,11,,,70,127
69231,note_off,0,0,0,,2,,,74,127
69232,note_on,1,0,0,,11,,,70,127
69232,note_on,0,0,0,,5,,,65,127
69232,note_on,0,0,0,,2,,,74,127
69232,note_on,0,0,0,,0,,,84,127
69232,note_on,0,0,0,,11,,,82,127
69487,note_off,255,0,0,,2,,,74,127
69487,note_off,0,0,0,,5,,,65,127
69487,note_off,0,0,0,,11,,,70,127
69488,note_on,1,0,0,,5,,,65,127
69488,note_on,0,0,0,,2,,,74,127
69488,note_on,0,0,0,,11,,,70,127
69615,note_off,127,0,0,,11,,,82,127
69615,note_off,0,0,0,,0,,,84,127
69616,note_on,1,0,0,,10,,,81,127
69743,note_off,127,0,0,,10,,,81,127
69743,note_off,0,0,0,,11,,,70,127
69743,note_off,0,0,0,,2,,,74,127
69743,note_off,0,0,0,,5,,,65,127
69744,note_on,1,0,0,,2,,,74,127
69744,note_on,0,0,0,,11,,,70,127
69744,note_on,0,0,0,,5,,,65,127
69744,note_on,0,0,0,,11,,,82,127
69828,note_off,84,0,0,,11,,,82,127
69829,note_on,1,0,0,,0,,,84,127
69913,note_off,84,0,0,,0,,,84,127
69914,note_on,1,0,0,,2,,,86,127
69998,note_off,84,0,0,,2,,,86,127
69998,note_off,0,0,0,,5,,,65,127
69998,note_off,0,0,0,,11,,,70,127
69998,note_off,0,0,0,,2,,,74,127
69999,note_on,1,0,0,,4,,,64,127
69999,note_on,0,0,0,,0,,,72,127
69999,note_on,0,0,0,,11,,,70,127
69999,note_on,0,0,0,,11,,,82,127
69999,note_on,0,0,0,,0,,,84,127
70254,note_off,255,0,0,,11,,,70,127
70254,note_off,0,0,0,,0,,,72,127
70254,note_off,0,0,0,,4,,,64,127
70255,note_on,1,0,0,,4,,,64,127
70255,note_on,0,0,0,,0,,,72,127
70255,note_on,0,0,0,,11,,,70,127
70382,note_off,127,0,0,,0,,,84,127
70382,note_off,0,0,0,,11,,,82,127
70383,note_on,1,0,0,,10,,,81,127
70510,note_off,127,0,0,,10,,,81,127
70510,note_off,0,0,0,,11,,,70,127
70510,note_off,0,0,0,,0,,,72,127
70510,note_off,0,0,0,,4,,,64,127
70511,note_on,1,0,0,,4,,,64,127
70511,note_on,0,0,0,,11,,,70,127
70511,note_on,0,0,0,,0,,,72,127
70511,note_on,0,0,0,,11,,,82,127
70595,note_off,84,0,0,,11,,,82,127
70596,note_on,1,0,0,,0,,,84,127
70680,note_off,84,0,0,,0,,,84,127
70681,note_on,1,0,0,,2,,,86,127
70765,note_off,84,0,0,,2,,,86,127
70765,note_off,0,0,0,,0,,,72,127
70765,note_off,0,0,0,,11,,,70,127
70765,note_off,0,0,0,,4,,,64,127
70766,note_on,1,0,0,,2,,,62,127
70766,note_on,0,0,0,,11,,,70,127
70766,note_on,0,0,0,,5,,,65,127
70766,note_on,0,0,0,,11,,,82,127
70766,note_on,0,0,0,,0,,,84,127
71021,note_off,255,0,0,,5,,,65,127
71021,note_off,0,0,0,,11,,,70,127
71021,note_off,0,0,0,,2,,,62,127
71022,note_on,1,0,0,,2,,,62,127
71022,note_on,0,0,0,,5,,,65,127
71022,note_on,0,0,0,,11,,,70,127
71149,note_off,127,0,0,,0,,,84,127
71149,note_off,0,0,0,,11,,,82,127
71150,note_on,1,0,0,,10,,,81,127
71277,note_off,127,0,0,,10,,,81,127
71277,note_off,0,0,0,,11,,,70,127
71277,note_off,0,0,0,,5,,,65,127
71277,note_off,0,0,0,,2,,,62,127
71278,note_on,1,0,0,,11,,,70,127
71278,note_on,0,0,0,,2,,,62,127
71278,note_on,0,0,0,,5,,,65,127
71278,note_on,0,0,0,,11,,,82,127
71362,note_off,84,0,0,,11,,,82,127
71363,note_on,1,0,0,,0,,,84,127
71447,note_off,84,0,0,,0,,,84,127
71448,note_on,1,0,0,,2,,,86,127
71532,note_off,84,0,0,,2,,,86,127
71532,note_off,0,0,0,,5,,,65,127
71532,note_off,0,0,0,,2,,,62,127
71532,note_off,0,0,0,,11,,,70,127
71533,note_on,1,0,0,,11,,,70,127
71533,note_on,0,0,0,,5,,,65,127
71533,note_on,0,0,0,,7,,,67,127
71533,note_on,0,0,0,,0,,,60,127
71533,note_on,0,0,0,,0,,,84,127
71533,note_on,0,0,0,,11,,,82,127
71788,note_off,255,0,0,,0,,,60,127
71788,note_off,0,0,0,,7,,,67,127
71788,note_off,0,0,0,,5,,,65,127
71788,note_off,0,0,0,,11,,,70,127
71789,note_on,1,0,0,,5,,,65,127
71789,note_on,0,0,0,,11,,,70,127
71789,note_on,0,0,0,,7,,,67,127
71789,note_on,0,0,0,,0,,,60,127
71916,note_off,127,0,0,,11,,,82,127
71916,note_off,0,0,0,,0,,,84,127
71917,note_on,1,0,0,,10,,,81,127
72044,note_off,127,0,0,,10,,,81,127
72044,note_off,0,0,0,,0,,,60,127
72044,note_off,0,0,0,,7,,,67,127
72044,note_off,0,0,0,,11,,,70,127
72044,note_off,0,0,0,,5,,,65,127
72045,note_on,1,0,0,,11,,,70,127
72045,note_on,0,0,0,,5,,,65,127
72045,note_on,0,0,0,,0,,,60,127
72045,note_on,0,0,0,,7,,,67,127
72045,note_on,0,0,0,,7,,,79,127
72172,note_off,127,0,0,,7,,,79,127
72173,note_on,1,0,0,,5,,,77,127
72300,note_off,127,0,0,,5,,,77,127
72300,note_off,0,0,0,,7,,,67,127
72300,note_off,0,0,0,,0,,,60,127
72300,note_off,0,0,0,,5,,,65,127
72300,note_off,0,0,0,,11,,,70,127
72301,note_on,1,0,0,,7,,,67,127
72301,note_on,0,0,0,,11,,,70,127
72301,note_on,0,0,0,,0,,,60,127
72301,note_on,0,0,0,,4,,,76,127
72428,note_off,127,0,0,,4,,,76,127
72429,note_on,1,0,0,,5,,,77,127
72556,note_off,127,0,0,,5,,,77,127
72556,note_off,0,0,0,,0,,,60,127
72556,note_off,0,0,0,,11,,,70,127
72556,note_off,0,0,0,,7,,,67,127
72557,note_on,1,0,0,,11,,,70,127
72557,note_on,0,0,0,,7,,,67,127
72557,note_on,0,0,0,,0,,,60,127
72557,note_on,0,0,0,,7,,,79,127
72684,note_off,127,0,0,,7,,,79,127
72685,note_on,1,0,0,,10,,,81,127
72812,note_off,127,0,0,,10,,,81,127
72812,note_off,0,0,0,,0,,,60,127
72812,note_off,0,0,0,,7,,,67,127
72812,note_off,0,0,0,,11,,,70,127
72813,note_on,1,0,0,,11,,,70,127
72813,note_on,0,0,0,,7,,,67,127
72813,note_on,0,0,0,,0,,,60,127
72813,note_on,0,0,0,,11,,,82,127
72940,note_off,127,0,0,,11,,,82,127
72941,note_on,1,0,0,,7,,,79,127
73068,note_off,127,0,0,,7,,,79,127
73068,note_off,0,0,0,,0,,,60,127
73068,note_off,0,0,0,,7,,,67,127
73068,note_off,0,0,0,,11,,,70,127
73069,note_on,1,0,0,,10,,,69,127
73069,note_on,0,0,0,,5,,,65,127
73069,note_on,0,0,0,,10,,,81,127
73196,note_off,127,0,0,,10,,,81,127
73197,note_on,1,0,0,,7,,,79,127
73324,note_off,127,0,0,,7,,,79,127
73325,note_on,1,0,0,,5,,,77,127
73452,note_off,127,0,0,,5,,,77,127
73453,note_on,1,0,0,,4,,,76,127
73580,note_off,127,0,0,,4,,,76,127
73581,note_on,1,0,0,,5,,,77,127
73645,note_on,64,0,0,,0,,,72,127
73653,note_off,8,0,0,,5,,,77,127
73709,note_off,56,0,0,,5,,,65,127
73709,note_off,0,0,0,,10,,,69,127
73709,note_on,0,0,0,,2,,,74,127
73717,note_off,8,0,0,,0,,,72,127
73773,note_on,56,0,0,,4,,,76,127
73781,note_off,8,0,0,,2,,,74,127
73837,note_on,56,0,0,,5,,,65,127
73837,note_on,0,0,0,,10,,,69,127
73837,note_on,0,0,0,,5,,,77,127
73845,note_off,8,0,0,,4,,,76,127
73901,note_on,56,0,0,,7,,,79,127
73909,note_off,8,0,0,,5,,,77,127
73965,note_on,56,0,0,,10,,,81,127
73973,note_off,8,0,0,,7,,,79,127
74029,note_on,56,0,0,,12,,,83,127
74037,note_off,8,0,0,,10,,,81,127
74093,note_on,56,0,0,,2,,,62,127
74093,note_on,0,0,0,,0,,,84,127
74101,note_off,8,0,0,,12,,,83,127
74157,note_on,56,0,0,,12,,,83,127
74165,note_off,8,0,0,,0,,,84,127
74221,note_on,56,0,0,,0,,,84,127
74229,note_off,8,0,0,,12,,,83,127
74285,note_on,56,0,0,,12,,,83,127
74293,note_off,8,0,0,,0,,,84,127
74348,note_off,55,0,0,,10,,,69,127
74348,note_off,0,0,0,,5,,,65,127
74349,note_on,1,0,0,,7,,,67,127
74349,note_on,0,0,0,,12,,,71,127
74349,note_on,0,0,0,,0,,,84,127
74357,note_off,8,0,0,,12,,,83,127
74413,note_on,56,0,0,,12,,,83,127
74421,note_off,8,0,0,,0,,,84,127
74477,note_on,56,0,0,,10,,,81,127
74485,note_off,8,0,0,,12,,,83,127
74541,note_on,56,0,0,,12,,,83,127
74549,note_off,8,0,0,,10,,,81,127
74604,note_off,55,0,0,,12,,,71,127
74604,note_off,0,0,0,,7,,,67,127
74604,note_off,0,0,0,,2,,,62,127
74605,note_on,1,0,0,,0,,,60,127
74605,note_on,0,0,0,,0,,,72,127
74605,note_on,0,0,0,,7,,,67,127
74605,note_on,0,0,0,,4,,,64,127
74605,note_on,0,0,0,,0,,,84,127
74613,note_off,8,0,0,,12,,,83,127
74669,note_on,56,0,0,,12,,,83,127
74677,note_off,8,0,0,,0,,,84,127
74733,note_on,56,0,0,,10,,,81,127
74741,note_off,8,0,0,,12,,,83,127
74797,note_on,56,0,0,,7,,,79,127
74805,note_off,8,0,0,,10,,,81,127
74861,note_on,56,0,0,,5,,,77,127
74869,note_off,8,0,0,,7,,,79,127
74925,note_on,56,0,0,,4,,,76,127
74933,note_off,8,0,0,,5,,,77,127
74989,note_on,56,0,0,,2,,,74,127
74997,note_off,8,0,0,,4,,,76,127
75052,note_off,55,0,0,,0,,,72,127
75053,note_on,1,0,0,,0,,,72,127
75061,note_off,8,0,0,,2,,,74,127
75117,note_on,56,0,0,,2,,,74,127
75181,note_on,64,0,0,,4,,,76,127
75189,note_off,8,0,0,,2,,,74,127
75245,note_on,56,0,0,,5,,,77,127
75253,note_off,8,0,0,,4,,,76,127
75308,note_off,55,0,0,,0,,,72,127
75309,note_on,1,0,0,,7,,,79,127
75317,note_off,8,0,0,,5,,,77,127
75372,note_off,55,0,0,,4,,,64,127
75372,note_off,0,0,0,,7,,,67,127
75372,note_off,0,0,0,,0,,,60,127
75373,note_on,1,0,0,,5,,,65,127
75373,note_on,0,0,0,,10,,,69,127
75373,note_on,0,0,0,,10,,,81,127
75381,note_off,8,0,0,,7,,,79,127
75500,note_off,119,0,0,,10,,,81,127
75501,note_on,1,0,0,,12,,,83,127
75628,note_off,127,0,0,,12,,,83,127
75629,note_on,1,0,0,,2,,,62,127
75629,note_on,0,0,0,,0,,,84,127
75693,note_on,64,0,0,,12,,,83,127
75701,note_off,8,0,0,,0,,,84,127
75757,note_on,56,0,0,,0,,,84,127
75765,note_off,8,0,0,,12,,,83,127
75821,note_on,56,0,0,,12,,,83,127
75829,note_off,8,0,0,,0,,,84,127
75884,note_off,55,0,0,,10,,,69,127
75884,note_off,0,0,0,,5,,,65,127
75885,note_on,1,0,0,,7,,,67,127
75885,note_on,0,0,0,,12,,,71,127
75885,note_on,0,0,0,,0,,,84,127
75893,note_off,8,0,0,,12,,,83,127
75949,note_on,56,0,0,,12,,,83,127
75957,note_off,8,0,0,,0,,,84,127
76013,note_on,56,0,0,,10,,,81,127
76021,note_off,8,0,0,,12,,,83,127
76077,note_on,56,0,0,,12,,,83,127
76085,note_off,8,0,0,,10,,,81,127
76140,note_off,55,0,0,,12,,,71,127
76140,note_off,0,0,0,,7,,,67,127
76140,note_off,0,0,0,,2,,,62,127
76141,note_on,1,0,0,,4,,,64,127
76141,note_on,0,0,0,,0,,,60,127
76141,note_on,0,0,0,,0,,,72,127
76141,note_on,0,0,0,,7,,,67,127
76141,note_on,0,0,0,,0,,,84,127
76149,note_off,8,0,0,,12,,,83,127
76205,note_on,56,0,0,,12,,,83,127
76213,note_off,8,0,0,,0,,,84,127
76269,note_on,56,0,0,,10,,,81,127
76277,note_off,8,0,0,,12,,,83,127
76333,note_on,56,0,0,,7,,,79,127
76341,note_off,8,0,0,,10,,,81,127
76397,note_on,56,0,0,,5,,,77,127
76405,note_off,8,0,0,,7,,,79,127
76461,note_on,56,0,0,,4,,,76,127
76469,note_off,8,0,0,,5,,,77,127
76525,note_on,56,0,0,,2,,,74,127
76533,note_off,8,0,0,,4,,,76,127
76588,note_off,55,0,0,,0,,,72,127
76589,note_on,1,0,0,,0,,,72,127
76597,note_off,8,0,0,,2,,,74,127
76653,note_on,56,0,0,,2,,,74,127
76717,note_on,64,0,0,,4,,,76,127
76725,note_off,8,0,0,,2,,,74,127
76781,note_on,56,0,0,,5,,,77,127
76789,note_off,8,0,0,,4,,,76,127
76844,note_off,55,0,0,,0,,,72,127
76845,note_on,1,0,0,,7,,,79,127
76853,note_off,8,0,0,,5,,,77,127
76908,note_off,55,0,0,,7,,,67,127
76908,note_off,0,0,0,,0,,,60,127
76908,note_off,0,0,0,,4,,,64,127
76909,note_on,1,0,0,,10,,,69,127
76909,note_on,0,0,0,,5,,,65,127
76909,note_on,0,0,0,,10,,,81,127
76917,note_off,8,0,0,,7,,,79,127
77036,note_off,119,0,0,,10,,,81,127
77037,note_on,1,0,0,,12,,,83,127
77164,note_off,127,0,0,,12,,,83,127
77165,note_on,1,0,0,,2,,,62,127
77165,note_on,0,0,0,,0,,,84,127
77229,note_on,64,0,0,,12,,,83,127
77237,note_off,8,0,0,,0,,,84,127
77293,note_on,56,0,0,,0,,,84,127
77301,note_off,8,0,0,,12,,,83,127
77357,note_on,56,0,0,,12,,,83,127
77365,note_off,8,0,0,,0,,,84,127
77420,note_off,55,0,0,,5,,,65,127
77420,note_off,0,0,0,,10,,,69,127
77421,note_on,1,0,0,,7,,,67,127
77421,note_on,0,0,0,,12,,,71,127
77421,note_on,0,0,0,,0,,,84,127
77429,note_off,8,0,0,,12,,,83,127
77485,note_on,56,0,0,,12,,,83,127
77493,note_off,8,0,0,,0,,,84,127
77549,note_on,56,0,0,,10,,,81,127
77557,note_off,8,0,0,,12,,,83,127
77613,note_on,56,0,0,,12,,,83,127
77621,note_off,8,0,0,,10,,,81,127
77676,note_off,55,0,0,,12,,,71,127
77676,note_off,0,0,0,,7,,,67,127
77676,note_off,0,0,0,,2,,,62,127
77677,note_on,1,0,0,,0,,,60,127
77677,note_on,0,0,0,,0,,,72,127
77677,note_on,0,0,0,,4,,,64,127
77677,note_on,0,0,0,,7,,,67,127
77677,note_on,0,0,0,,0,,,84,127
77685,note_off,8,0,0,,12,,,83,127
77741,note_on,56,0,0,,12,,,83,127
77749,note_off,8,0,0,,0,,,84,127
77805,note_on,56,0,0,,10,,,81,127
77813,note_off,8,0,0,,12,,,83,127
77869,note_on,56,0,0,,7,,,79,127
77877,note_off,8,0,0,,10,,,81,127
77933,note_on,56,0,0,,5,,,77,127
77941,note_off,8,0,0,,7,,,79,127
77997,note_on,56,0,0,,4,,,76,127
78005,note_off,8,0,0,,5,,,77,127
78061,note_on,56,0,0,,2,,,74,127
78069,note_off,8,0,0,,4,,,76,127
78124,note_off,55,0,0,,0,,,72,127
78125,note_on,1,0,0,,0,,,72,127
78133,note_off,8,0,0,,2,,,74,127
78189,note_on,56,0,0,,2,,,74,127
78253,note_on,64,0,0,,4,,,76,127
78261,note_off,8,0,0,,2,,,74,127
78317,note_on,56,0,0,,5,,,77,127
78325,note_off,8,0,0,,4,,,76,127
78380,note_off,55,0,0,,0,,,72,127
78381,note_on,1,0,0,,7,,,79,127
78389,note_off,8,0,0,,5,,,77,127
78444,note_off,55,0,0,,7,,,67,127
78444,note_off,0,0,0,,4,,,64,127
78444,note_off,0,0,0,,0,,,60,127
78445,note_on,1,0,0,,10,,,69,127
78445,note_on,0,0,0,,5,,,65,127
78445,note_on,0,0,0,,10,,,81,127
78453,note_off,8,0,0,,7,,,79,127
78572,note_off,119,0,0,,10,,,81,127
78573,note_on,1,0,0,,12,,,83,127
78700,note_off,127,0,0,,12,,,83,127
78701,note_on,1,0,0,,2,,,62,127
78701,note_on,0,0,0,,0,,,84,127
78765,note_on,64,0,0,,12,,,83,127
78773,note_off,8,0,0,,0,,,84,127
78829,note_on,56,0,0,,0,,,84,127
78837,note_off,8,0,0,,12,,,83,127
78893,note_on,56,0,0,,12,,,83,127
78901,note_off,8,0,0,,0,,,84,127
78956,note_off,55,0,0,,5,,,65,127
78956,note_off,0,0,0,,10,,,69,127
78957,note_on,1,0,0,,12,,,71,127
78957,note_on,0,0,0,,7,,,67,127
78957,note_on,0,0,0,,0,,,84,127
78965,note_off,8,0,0,,12,,,83,127
79021,note_on,56,0,0,,12,,,83,127
79029,note_off,8,0,0,,0,,,84,127
79085,note_on,56,0,0,,10,,,81,127
79093,note_off,8,0,0,,12,,,83,127
79149,note_on,56,0,0,,12,,,83,127
79157,note_off,8,0,0,,10,,,81,127
79212,note_off,55,0,0,,7,,,67,127
79212,note_off,0,0,0,,12,,,71,127
79212,note_off,0,0,0,,2,,,62,127
79213,note_on,1,0,0,,0,,,60,127
79213,note_on,0,0,0,,7,,,67,127
79213,note_on,0,0,0,,4,,,64,127
79213,note_on,0,0,0,,0,,,72,127
79213,note_on,0,0,0,,0,,,84,127
79221,note_off,8,0,0,,12,,,83,127
79340,note_off,119,0,0,,0,,,84,127
79341,note_on,1,0,0,,7,,,79,127
79468,note_off,127,0,0,,7,,,79,127
79469,note_on,1,0,0,,4,,,76,127
79596,note_off,127,0,0,,4,,,76,127
79596,note_off,0,0,0,,0,,,72,127
79597,note_on,1,0,0,,0,,,72,127
79724,note_off,127,0,0,,0,,,72,127
79724,note_off,0,0,0,,7,,,67,127
79725,note_on,1,0,0,,7,,,67,127
79852,note_off,127,0,0,,7,,,67,127
79852,note_off,0,0,0,,4,,,64,127
79853,note_on,1,0,0,,4,,,64,127
79980,note_off,127,0,0,,4,,,64,127
79980,note_off,0,0,0,,0,,,60,127
79981,note_on,1,0,0,,0,,,60,127
80109,note_on,128,0,0,,7,,,55,127
80236,note_off,127,0,0,,7,,,55,127
80237,note_on,1,0,0,,4,,,52,127
80364,note_off,127,0,0,,4,,,52,127
80365,note_on,1,0,0,,0,,,48,127
80492,note_off,127,0,0,,0,,,48,127
80493,note_on,1,0,0,,7,,,43,127
80620,note_off,127,0,0,,7,,,43,127
80621,note_on,1,0,0,,4,,,40,127
80748,note_off,127,0,0,,4,,,40,127
80748,note_off,0,0,0,,0,,,60,127
80749,note_on,1,0,0,,0,,,36,127
81516,note_off,767,0,0,,0,,,36,127
81517,note_on,1,0,0,,4,,,64,127
81517,note_on,0,0,0,,0,,,60,127
81645,note_on,128,0,0,,0,,,72,127
81772,note_off,127,0,0,,0,,,72,127
81772,note_off,0,0,0,,0,,,60,127
81772,note_off,0,0,0,,4,,,64,127
81773,note_on,1,0,0,,4,,,64,127
81773,note_on,0,0,0,,0,,,60,127
81773,note_on,0,0,0,,7,,,67,127
81900,note_off,127,0,0,,7,,,67,127
81901,note_on,1,0,0,,8,,,68,127
82028,note_off,127,0,0,,8,,,68,127
82028,note_off,0,0,0,,0,,,60,127
82028,note_off,0,0,0,,4,,,64,127
82029,note_on,1,0,0,,4,,,64,127
82029,note_on,0,0,0,,0,,,60,127
82029,note_on,0,0,0,,11,,,70,127
82156,note_off,127,0,0,,11,,,70,127
82157,note_on,1,0,0,,0,,,72,127
82284,note_off,127,0,0,,0,,,72,127
82284,note_off,0,0,0,,0,,,60,127
82284,note_off,0,0,0,,4,,,64,127
82285,note_on,1,0,0,,11,,,58,127
82285,note_on,0,0,0,,4,,,64,127
82285,note_on,0,0,0,,5,,,65,127
82285,note_on,0,0,0,,1,,,73,127
82285,note_on,0,0,0,,3,,,75,127
82540,note_off,255,0,0,,5,,,65,127
82540,note_off,0,0,0,,4,,,64,127
82540,note_off,0,0,0,,11,,,58,127
82541,note_on,1,0,0,,4,,,64,127
82541,note_on,0,0,0,,11,,,58,127
82541,note_on,0,0,0,,5,,,65,127
82668,note_off,127,0,0,,3,,,75,127
82668,note_off,0,0,0,,1,,,73,127
82669,note_on,1,0,0,,0,,,72,127
82796,note_off,127,0,0,,0,,,72,127
82796,note_off,0,0,0,,5,,,65,127
82796,note_off,0,0,0,,11,,,58,127
82796,note_off,0,0,0,,4,,,64,127
82797,note_on,1,0,0,,5,,,65,127
82797,note_on,0,0,0,,11,,,58,127
82797,note_on,0,0,0,,4,,,64,127
82797,note_on,0,0,0,,1,,,73,127
83052,note_off,255,0,0,,4,,,64,127
83052,note_off,0,0,0,,11,,,58,127
83052,note_off,0,0,0,,5,,,65,127
83053,note_on,1,0,0,,4,,,64,127
83053,note_on,0,0,0,,0,,,60,127
83116,note_off,63,0,0,,1,,,73,127
83117,note_on,1,0,0,,0,,,72,127
83181,note_on,64,0,0,,11,,,70,127
83189,note_off,8,0,0,,0,,,72,127
83245,note_on,56,0,0,,8,,,68,127
83253,note_off,8,0,0,,11,,,70,127
83308,note_off,55,0,0,,0,,,60,127
83308,note_off,0,0,0,,4,,,64,127
83309,note_on,1,0,0,,4,,,64,127
83309,note_on,0,0,0,,0,,,60,127
83309,note_on,0,0,0,,7,,,67,127
83317,note_off,8,0,0,,8,,,68,127
83373,note_on,56,0,0,,8,,,68,127
83381,note_off,8,0,0,,7,,,67,127
83437,note_on,56,0,0,,11,,,70,127
83445,note_off,8,0,0,,8,,,68,127
83501,note_on,56,0,0,,0,,,72,127
83509,note_off,8,0,0,,11,,,70,127
83564,note_off,55,0,0,,0,,,60,127
83564,note_off,0,0,0,,4,,,64,127
83565,note_on,1,0,0,,4,,,64,127
83565,note_on,0,0,0,,0,,,60,127
83565,note_on,0,0,0,,11,,,70,127
83573,note_off,8,0,0,,0,,,72,127
83629,note_on,56,0,0,,0,,,72,127
83637,note_off,8,0,0,,11,,,70,127
83693,note_on,56,0,0,,1,,,73,127
83701,note_off,8,0,0,,0,,,72,127
83757,note_on,56,0,0,,3,,,75,127
83765,note_off,8,0,0,,1,,,73,127
83818,note_off,53,0,0,,3,,,75,127
83819,note_off,1,0,0,,0,,,60,127
83819,note_off,0,0,0,,4,,,64,127
83820,note_on,1,0,0,,11,,,58,127
83820,note_on,0,0,0,,5,,,65,127
83820,note_on,0,0,0,,4,,,64,127
83820,note_on,0,0,0,,3,,,75,127
83820,note_on,0,0,0,,1,,,73,127
84075,note_off,255,0,0,,4,,,64,127
84075,note_off,0,0,0,,5,,,65,127
84075,note_off,0,0,0,,11,,,58,127
84076,note_on,1,0,0,,11,,,58,127
84076,note_on,0,0,0,,5,,,65,127
84076,note_on,0,0,0,,4,,,64,127
84203,note_off,127,0,0,,1,,,73,127
84203,note_off,0,0,0,,3,,,75,127
84204,note_on,1,0,0,,0,,,72,127
84331,note_off,127,0,0,,0,,,72,127
84331,note_off,0,0,0,,4,,,64,127
84331,note_off,0,0,0,,5,,,65,127
84331,note_off,0,0,0,,11,,,58,127
84332,note_on,1,0,0,,11,,,58,127
84332,note_on,0,0,0,,5,,,65,127
84332,note_on,0,0,0,,4,,,64,127
84332,note_on,0,0,0,,1,,,73,127
84587,note_off,255,0,0,,4,,,64,127
84587,note_off,0,0,0,,5,,,65,127
84587,note_off,0,0,0,,11,,,58,127
84588,note_on,1,0,0,,4,,,64,127
84588,note_on,0,0,0,,0,,,60,127
84651,note_off,63,0,0,,1,,,73,127
84652,note_on,1,0,0,,0,,,72,127
84716,note_on,64,0,0,,11,,,70,127
84724,note_off,8,0,0,,0,,,72,127
84780,note_on,56,0,0,,8,,,68,127
84788,note_off,8,0,0,,11,,,70,127
84843,note_off,55,0,0,,0,,,60,127
84843,note_off,0,0,0,,4,,,64,127
84844,note_on,1,0,0,,4,,,64,127
84844,note_on,0,0,0,,0,,,60,127
84844,note_on,0,0,0,,7,,,67,127
84852,note_off,8,0,0,,8,,,68,127
84908,note_on,56,0,0,,8,,,68,127
84916,note_off,8,0,0,,7,,,67,127
84972,note_on,56,0,0,,11,,,70,127
84980,note_off,8,0,0,,8,,,68,127
85036,note_on,56,0,0,,0,,,72,127
85044,note_off,8,0,0,,11,,,70,127
85099,note_off,55,0,0,,0,,,60,127
85099,note_off,0,0,0,,4,,,64,127
85100,note_on,1,0,0,,0,,,60,127
85100,note_on,0,0,0,,4,,,64,127
85100,note_on,0,0,0,,11,,,70,127
85108,note_off,8,0,0,,0,,,72,127
85164,note_on,56,0,0,,0,,,72,127
85172,note_off,8,0,0,,11,,,70,127
85228,note_on,56,0,0,,1,,,73,127
85236,note_off,8,0,0,,0,,,72,127
85292,note_on,56,0,0,,3,,,75,127
85300,note_off,8,0,0,,1,,,73,127
85355,note_off,55,0,0,,4,,,64,127
85355,note_off,0,0,0,,0,,,60,127
85356,note_on,1,0,0,,11,,,58,127
85356,note_on,0,0,0,,4,,,64,127
85356,note_on,0,0,0,,7,,,67,127
85356,note_on,0,0,0,,1,,,73,127
85364,note_off,8,0,0,,3,,,75,127
85483,note_off,119,0,0,,1,,,73,127
85484,note_on,1,0,0,,3,,,75,127
85611,note_off,127,0,0,,3,,,75,127
85611,note_off,0,0,0,,7,,,67,127
85611,note_off,0,0,0,,4,,,64,127
85611,note_off,0,0,0,,11,,,58,127
85612,note_on,1,0,0,,11,,,58,127
85612,note_on,0,0,0,,7,,,67,127
85612,note_on,0,0,0,,4,,,64,127
85612,note_on,0,0,0,,5,,,77,127
85739,note_off,127,0,0,,5,,,77,127
85740,note_on,1,0,0,,1,,,73,127
85867,note_off,127,0,0,,1,,,73,127
85867,note_off,0,0,0,,4,,,64,127
85867,note_off,0,0,0,,7,,,67,127
85867,note_off,0,0,0,,11,,,58,127
85868,note_on,1,0,0,,11,,,58,127
85868,note_on,0,0,0,,7,,,67,127
85868,note_on,0,0,0,,4,,,64,127
85868,note_on,0,0,0,,0,,,72,127
85995,note_off,127,0,0,,0,,,72,127
85996,note_on,1,0,0,,12,,,71,127
86123,note_off,127,0,0,,12,,,71,127
86123,note_off,0,0,0,,4,,,64,127
86123,note_off,0,0,0,,7,,,67,127
86123,note_off,0,0,0,,11,,,58,127
86124,note_on,1,0,0,,0,,,60,127
86124,note_on,0,0,0,,7,,,67,127
86124,note_on,0,0,0,,0,,,72,127
86251,note_off,127,0,0,,0,,,72,127
86252,note_on,1,0,0,,2,,,74,127
86379,note_off,127,0,0,,2,,,74,127
86379,note_off,0,0,0,,7,,,67,127
86379,note_off,0,0,0,,0,,,60,127
86380,note_on,1,0,0,,0,,,60,127
86380,note_on,0,0,0,,5,,,65,127
86380,note_on,0,0,0,,4,,,76,127
86507,note_off,127,0,0,,4,,,76,127
86508,note_on,1,0,0,,5,,,77,127
86635,note_off,127,0,0,,5,,,77,127
86635,note_off,0,0,0,,5,,,65,127
86635,note_off,0,0,0,,0,,,60,127
86636,note_on,1,0,0,,0,,,60,127
86636,note_on,0,0,0,,5,,,65,127
86636,note_on,0,0,0,,7,,,79,127
86763,note_off,127,0,0,,7,,,79,127
86764,note_on,1,0,0,,8,,,80,127
86891,note_off,127,0,0,,8,,,80,127
86891,note_off,0,0,0,,5,,,65,127
86891,note_off,0,0,0,,0,,,60,127
86892,note_on,1,0,0,,7,,,55,127
86892,note_on,0,0,0,,7,,,67,127
86892,note_on,0,0,0,,11,,,82,127
87019,note_off,127,0,0,,11,,,82,127
87020,note_on,1,0,0,,7,,,79,127
87147,note_off,127,0,0,,7,,,79,127
87147,note_off,0,0,0,,7,,,67,127
87148,note_on,1,0,0,,4,,,64,127
87148,note_on,0,0,0,,0,,,84,127
87275,note_off,127,0,0,,0,,,84,127
87276,note_on,1,0,0,,11,,,82,127
87403,note_off,127,0,0,,11,,,82,127
87403,note_off,0,0,0,,7,,,55,127
87404,note_on,1,0,0,,0,,,60,127
87404,note_on,0,0,0,,8,,,80,127
87531,note_off,127,0,0,,8,,,80,127
87532,note_on,1,0,0,,7,,,79,127
87659,note_off,127,0,0,,7,,,79,127
87659,note_off,0,0,0,,0,,,60,127
87659,note_off,0,0,0,,4,,,64,127
87660,note_on,1,0,0,,5,,,65,127
87660,note_on,0,0,0,,11,,,82,127
87724,note_on,64,0,0,,8,,,80,127
87732,note_off,8,0,0,,11,,,82,127
87788,note_on,56,0,0,,11,,,82,127
87796,note_off,8,0,0,,8,,,80,127
87852,note_on,56,0,0,,8,,,80,127
87860,note_off,8,0,0,,11,,,82,127
87916,note_on,56,0,0,,5,,,53,127
87916,note_on,0,0,0,,11,,,82,127
87924,note_off,8,0,0,,8,,,80,127
87980,note_on,56,0,0,,8,,,80,127
87988,note_off,8,0,0,,11,,,82,127
88044,note_on,56,0,0,,7,,,79,127
88052,note_off,8,0,0,,8,,,80,127
88171,note_off,119,0,0,,7,,,79,127
88172,note_on,1,0,0,,5,,,77,127
88395,note_off,223,0,0,,5,,,77,127
88427,note_off,32,0,0,,5,,,53,127
88427,note_off,0,0,0,,5,,,65,127
88428,note_on,1,0,0,,0,,,72,127
88428,note_on,0,0,0,,7,,,79,127
88428,note_on,0,0,0,,4,,,76,127
88555,note_off,127,0,0,,0,,,72,127
88556,note_on,1,0,0,,1,,,73,127
88683,note_off,127,0,0,,1,,,73,127
88683,note_off,0,0,0,,4,,,76,127
88683,note_off,0,0,0,,7,,,79,127
88684,note_on,1,0,0,,0,,,72,127
88684,note_on,0,0,0,,7,,,79,127
88684,note_on,0,0,0,,4,,,76,127
88811,note_off,127,0,0,,0,,,72,127
88812,note_on,1,0,0,,11,,,70,127
88939,note_off,127,0,0,,11,,,70,127
88939,note_off,0,0,0,,4,,,76,127
88939,note_off,0,0,0,,7,,,79,127
88940,note_on,1,0,0,,8,,,68,127
88940,note_on,0,0,0,,8,,,80,127
88940,note_on,0,0,0,,5,,,77,127
89067,note_off,127,0,0,,8,,,68,127
89068,note_on,1,0,0,,7,,,67,127
89195,note_off,127,0,0,,7,,,67,127
89195,note_off,0,0,0,,5,,,77,127
89195,note_off,0,0,0,,8,,,80,127
89196,note_on,1,0,0,,0,,,36,127
89196,note_on,0,0,0,,4,,,76,127
89196,note_on,0,0,0,,7,,,79,127
89323,note_off,127,0,0,,7,,,79,127
89323,note_off,0,0,0,,4,,,76,127
89324,note_on,1,0,0,,8,,,80,127
89324,note_on,0,0,0,,5,,,77,127
89451,note_off,127,0,0,,5,,,77,127
89451,note_off,0,0,0,,8,,,80,127
89452,note_on,1,0,0,,11,,,82,127
89452,note_on,0,0,0,,7,,,79,127
89579,note_off,127,0,0,,7,,,79,127
89579,note_off,0,0,0,,11,,,82,127
89580,note_on,1,0,0,,0,,,84,127
89580,note_on,0,0,0,,8,,,80,127
89707,note_off,127,0,0,,8,,,80,127
89707,note_off,0,0,0,,0,,,84,127
89708,note_on,1,0,0,,7,,,79,127
89708,note_on,0,0,0,,11,,,82,127
89835,note_off,127,0,0,,11,,,82,127
89835,note_off,0,0,0,,7,,,79,127
89836,note_on,1,0,0,,8,,,80,127
89836,note_on,0,0,0,,5,,,77,127
89949,note_off,113,0,0,,5,,,77,127
89949,note_off,0,0,0,,8,,,80,127
89962,note_off,13,0,0,,0,,,36,127
89963,note_on,1,0,0,,0,,,72,127
89963,note_on,0,0,0,,4,,,76,127
89963,note_on,0,0,0,,7,,,79,127
90090,note_off,127,0,0,,0,,,72,127
90091,note_on,1,0,0,,1,,,73,127
90218,note_off,127,0,0,,1,,,73,127
90218,note_off,0,0,0,,7,,,79,127
90218,note_off,0,0,0,,4,,,76,127
90219,note_on,1,0,0,,0,,,72,127
90219,note_on,0,0,0,,7,,,79,127
90219,note_on,0,0,0,,4,,,76,127
90346,note_off,127,0,0,,0,,,72,127
90347,note_on,1,0,0,,11,,,70,127
90474,note_off,127,0,0,,11,,,70,127
90474,note_off,0,0,0,,4,,,76,127
90474,note_off,0,0,0,,7,,,79,127
90475,note_on,1,0,0,,8,,,68,127
90475,note_on,0,0,0,,8,,,80,127
90475,note_on,0,0,0,,5,,,77,127
90602,note_off,127,0,0,,8,,,68,127
90603,note_on,1,0,0,,7,,,67,127
90730,note_off,127,0,0,,7,,,67,127
90730,note_off,0,0,0,,5,,,77,127
90730,note_off,0,0,0,,8,,,80,127
90731,note_on,1,0,0,,0,,,36,127
90731,note_on,0,0,0,,7,,,79,127
90731,note_on,0,0,0,,4,,,76,127
90858,note_off,127,0,0,,4,,,76,127
90858,note_off,0,0,0,,7,,,79,127
90859,note_on,1,0,0,,8,,,80,127
90859,note_on,0,0,0,,5,,,77,127
90986,note_off,127,0,0,,5,,,77,127
90986,note_off,0,0,0,,8,,,80,127
90987,note_on,1,0,0,,11,,,82,127
90987,note_on,0,0,0,,7,,,79,127
91114,note_off,127,0,0,,7,,,79,127
91114,note_off,0,0,0,,11,,,82,127
91115,note_on,1,0,0,,8,,,80,127
91115,note_on,0,0,0,,0,,,84,127
91242,note_off,127,0,0,,0,,,84,127
91242,note_off,0,0,0,,8,,,80,127
91243,note_on,1,0,0,,11,,,82,127
91243,note_on,0,0,0,,7,,,79,127
91370,note_off,127,0,0,,7,,,79,127
91370,note_off,0,0,0,,11,,,82,127
91371,note_on,1,0,0,,8,,,80,127
91371,note_on,0,0,0,,5,,,77,127
91484,note_off,113,0,0,,5,,,77,127
91484,note_off,0,0,0,,8,,,80,127
91497,note_off,13,0,0,,0,,,36,127
91498,note_on,1,0,0,,0,,,72,127
91498,note_on,0,0,0,,7,,,79,127
91498,note_on,0,0,0,,4,,,76,127
91625,note_off,127,0,0,,0,,,72,127
91626,note_on,1,0,0,,1,,,73,127
91753,note_off,127,0,0,,1,,,73,127
91753,note_off,0,0,0,,4,,,76,127
91753,note_off,0,0,0,,7,,,79,127
91754,note_on,1,0,0,,0,,,72,127
91754,note_on,0,0,0,,7,,,79,127
91754,note_on,0,0,0,,4,,,76,127
91881,note_off,127,0,0,,0,,,72,127
91882,note_on,1,0,0,,11,,,70,127
92009,note_off,127,0,0,,11,,,70,127
92009,note_off,0,0,0,,4,,,76,127
92009,note_off,0,0,0,,7,,,79,127
92010,note_on,1,0,0,,8,,,68,127
92010,note_on,0,0,0,,8,,,80,127
92010,note_on,0,0,0,,5,,,77,127
92137,note_off,127,0,0,,8,,,68,127
92138,note_on,1,0,0,,7,,,67,127
92265,note_off,127,0,0,,7,,,67,127
92265,note_off,0,0,0,,5,,,77,127
92265,note_off,0,0,0,,8,,,80,127
92266,note_on,1,0,0,,0,,,36,127
92266,note_on,0,0,0,,7,,,79,127
92266,note_on,0,0,0,,4,,,76,127
92393,note_off,127,0,0,,7,,,79,127
92394,note_on,1,0,0,,8,,,80,127
92521,note_off,127,0,0,,8,,,80,127
92521,note_off,0,0,0,,0,,,36,127
92522,note_on,1,0,0,,0,,,48,127
92522,note_on,0,0,0,,11,,,82,127
92649,note_off,127,0,0,,4,,,76,127
92650,note_on,1,0,0,,7,,,79,127
92775,note_off,125,0,0,,11,,,82,127
92776,note_off,1,0,0,,7,,,79,127
92776,note_off,0,0,0,,0,,,48,127
92777,note_on,1,0,0,,5,,,53,127
92777,note_on,0,0,0,,8,,,80,127
92777,note_on,0,0,0,,5,,,77,127
92904,note_off,127,0,0,,5,,,77,127
92904,note_off,0,0,0,,8,,,80,127
92905,note_on,1,0,0,,7,,,79,127
92905,note_on,0,0,0,,11,,,82,127
93032,note_off,127,0,0,,11,,,82,127
93032,note_off,0,0,0,,7,,,79,127
93032,note_off,0,0,0,,5,,,53,127
93033,note_on,1,0,0,,11,,,58,127
93033,note_on,0,0,0,,0,,,84,127
93033,note_on,0,0,0,,8,,,80,127
93160,note_off,127,0,0,,8,,,80,127
93160,note_off,0,0,0,,0,,,84,127
93161,note_on,1,0,0,,1,,,85,127
93161,note_on,0,0,0,,11,,,82,127
93288,note_off,127,0,0,,11,,,82,127
93288,note_off,0,0,0,,1,,,85,127
93288,note_off,0,0,0,,11,,,58,127
93289,note_on,1,0,0,,0,,,60,127
93289,note_on,0,0,0,,8,,,80,127
93289,note_on,0,0,0,,0,,,84,127
93416,note_off,127,0,0,,0,,,84,127
93416,note_off,0,0,0,,8,,,80,127
93417,note_on,1,0,0,,11,,,82,127
93417,note_on,0,0,0,,7,,,79,127
93544,note_off,127,0,0,,7,,,79,127
93544,note_off,0,0,0,,11,,,82,127
93545,note_on,1,0,0,,0,,,48,127
93545,note_on,0,0,0,,8,,,80,127
93545,note_on,0,0,0,,5,,,77,127
93672,note_off,127,0,0,,5,,,77,127
93672,note_off,0,0,0,,8,,,80,127
93673,note_off,1,0,0,,0,,,60,127
93673,note_on,0,0,0,,4,,,76,127
93673,note_on,0,0,0,,7,,,79,127
93800,note_off,127,0,0,,7,,,79,127
93800,note_off,0,0,0,,4,,,76,127
93800,note_off,0,0,0,,0,,,48,127
93801,note_on,1,0,0,,5,,,41,127
93801,note_on,0,0,0,,7,,,79,127
93876,note_off,75,0,0,,7,,,79,127
93877,note_on,1,0,0,,5,,,77,127
93952,note_off,75,0,0,,5,,,77,127
93953,note_on,1,0,0,,7,,,79,127
94028,note_off,75,0,0,,7,,,79,127
94029,note_on,1,0,0,,5,,,77,127
94104,note_off,75,0,0,,5,,,77,127
94105,note_on,1,0,0,,7,,,79,127
94180,note_off,75,0,0,,7,,,79,127
94181,note_on,1,0,0,,5,,,77,127
94256,note_off,75,0,0,,5,,,77,127
94257,note_on,1,0,0,,7,,,79,127
94340,note_off,83,0,0,,7,,,79,127
94341,note_on,1,0,0,,5,,,77,127
94416,note_off,75,0,0,,5,,,77,127
94417,note_on,1,0,0,,4,,,76,127
94492,note_off,75,0,0,,4,,,76,127
94493,note_on,1,0,0,,5,,,77,127
94568,note_off,75,0,0,,5,,,77,127
94568,note_off,0,0,0,,5,,,41,127
94569,note_on,1,0,0,,0,,,72,127
94569,note_on,0,0,0,,7,,,79,127
94569,note_on,0,0,0,,4,,,76,127
94696,note_off,127,0,0,,0,,,72,127
94697,note_on,1,0,0,,1,,,73,127
94824,note_off,127,0,0,,1,,,73,127
94824,note_off,0,0,0,,4,,,76,127
94824,note_off,0,0,0,,7,,,79,127
94825,note_on,1,0,0,,0,,,72,127
94825,note_on,0,0,0,,4,,,76,127
94825,note_on,0,0,0,,7,,,79,127
94952,note_off,127,0,0,,0,,,72,127
94953,note_on,1,0,0,,11,,,70,127
95080,note_off,127,0,0,,11,,,70,127
95080,note_off,0,0,0,,7,,,79,127
95080,note_off,0,0,0,,4,,,76,127
95081,note_on,1,0,0,,8,,,68,127
95081,note_on,0,0,0,,8,,,80,127
95081,note_on,0,0,0,,5,,,77,127
95208,note_off,127,0,0,,8,,,68,127
95209,note_on,1,0,0,,7,,,67,127
95336,note_off,127,0,0,,7,,,67,127
95336,note_off,0,0,0,,5,,,77,127
95336,note_off,0,0,0,,8,,,80,127
95337,note_on,1,0,0,,0,,,36,127
95337,note_on,0,0,0,,4,,,76,127
95337,note_on,0,0,0,,7,,,79,127
95464,note_off,127,0,0,,7,,,79,127
95464,note_off,0,0,0,,4,,,76,127
95465,note_on,1,0,0,,8,,,80,127
95465,note_on,0,0,0,,5,,,77,127
95592,note_off,127,0,0,,5,,,77,127
95592,note_off,0,0,0,,8,,,80,127
95593,note_on,1,0,0,,11,,,82,127
95593,note_on,0,0,0,,7,,,79,127
95720,note_off,127,0,0,,7,,,79,127
95720,note_off,0,0,0,,11,,,82,127
95721,note_on,1,0,0,,8,,,80,127
95721,note_on,0,0,0,,0,,,84,127
95848,note_off,127,0,0,,0,,,84,127
95848,note_off,0,0,0,,8,,,80,127
95849,note_on,1,0,0,,11,,,82,127
95849,note_on,0,0,0,,7,,,79,127
95976,note_off,127,0,0,,7,,,79,127
95976,note_off,0,0,0,,11,,,82,127
95977,note_on,1,0,0,,8,,,80,127
95977,note_on,0,0,0,,5,,,77,127
96084,note_off,107,0,0,,5,,,77,127
96084,note_off,0,0,0,,8,,,80,127
96104,note_off,20,0,0,,0,,,36,127
96105,note_on,1,0,0,,0,,,72,127
96105,note_on,0,0,0,,7,,,79,127
96105,note_on,0,0,0,,4,,,76,127
96232,note_off,127,0,0,,0,,,72,127
96233,note_on,1,0,0,,1,,,73,127
96360,note_off,127,0,0,,1,,,73,127
96360,note_off,0,0,0,,4,,,76,127
96360,note_off,0,0,0,,7,,,79,127
96361,note_on,1,0,0,,0,,,72,127
96361,note_on,0,0,0,,7,,,79,127
96361,note_on,0,0,0,,4,,,76,127
96488,note_off,127,0,0,,0,,,72,127
96489,note_on,1,0,0,,11,,,70,127
96616,note_off,127,0,0,,11,,,70,127
96616,note_off,0,0,0,,4,,,76,127
96616,note_off,0,0,0,,7,,,79,127
96617,note_on,1,0,0,,8,,,68,127
96617,note_on,0,0,0,,8,,,80,127
96617,note_on,0,0,0,,5,,,77,127
96744,note_off,127,0,0,,8,,,68,127
96745,note_on,1,0,0,,7,,,67,127
96872,note_off,127,0,0,,7,,,67,127
96872,note_off,0,0,0,,5,,,77,127
96872,note_off,0,0,0,,8,,,80,127
96873,note_on,1,0,0,,0,,,36,127
96873,note_on,0,0,0,,4,,,76,127
96873,note_on,0,0,0,,7,,,79,127
97000,note_off,127,0,0,,7,,,79,127
97000,note_off,0,0,0,,4,,,76,127
97001,note_on,1,0,0,,8,,,80,127
97001,note_on,0,0,0,,5,,,77,127
97128,note_off,127,0,0,,5,,,77,127
97128,note_off,0,0,0,,8,,,80,127
97129,note_on,1,0,0,,11,,,82,127
97129,note_on,0,0,0,,7,,,79,127
97256,note_off,127,0,0,,7,,,79,127
97256,note_off,0,0,0,,11,,,82,127
97257,note_on,1,0,0,,8,,,80,127
97257,note_on,0,0,0,,0,,,84,127
97384,note_off,127,0,0,,0,,,84,127
97384,note_off,0,0,0,,8,,,80,127
97385,note_on,1,0,0,,11,,,82,127
97385,note_on,0,0,0,,7,,,79,127
97512,note_off,127,0,0,,7,,,79,127
97512,note_off,0,0,0,,11,,,82,127
97513,note_on,1,0,0,,5,,,77,127
97513,note_on,0,0,0,,8,,,80,127
97620,note_off,107,0,0,,8,,,80,127
97620,note_off,0,0,0,,5,,,77,127
97640,note_off,20,0,0,,0,,,36,127
97641,note_on,1,0,0,,0,,,72,127
97641,note_on,0,0,0,,7,,,79,127
97641,note_on,0,0,0,,4,,,76,127
97768,note_off,127,0,0,,0,,,72,127
97769,note_on,1,0,0,,1,,,73,127
97896,note_off,127,0,0,,1,,,73,127
97896,note_off,0,0,0,,4,,,76,127
97896,note_off,0,0,0,,7,,,79,127
97897,note_on,1,0,0,,0,,,72,127
97897,note_on,0,0,0,,4,,,76,127
97897,note_on,0,0,0,,7,,,79,127
98024,note_off,127,0,0,,0,,,72,127
98025,note_on,1,0,0,,11,,,70,127
98152,note_off,127,0,0,,11,,,70,127
98152,note_off,0,0,0,,7,,,79,127
98152,note_off,0,0,0,,4,,,76,127
98153,note_on,1,0,0,,8,,,68,127
98153,note_on,0,0,0,,5,,,77,127
98153,note_on,0,0,0,,8,,,80,127
98280,note_off,127,0,0,,8,,,68,127
98281,note_on,1,0,0,,7,,,67,127
98408,note_off,127,0,0,,7,,,67,127
98408,note_off,0,0,0,,8,,,80,127
98408,note_off,0,0,0,,5,,,77,127
98409,note_on,1,0,0,,0,,,36,127
98409,note_on,0,0,0,,4,,,76,127
98409,note_on,0,0,0,,7,,,79,127
98536,note_off,127,0,0,,7,,,79,127
98537,note_on,1,0,0,,8,,,80,127
98664,note_off,127,0,0,,8,,,80,127
98665,note_on,1,0,0,,11,,,82,127
98790,note_off,125,0,0,,4,,,76,127
98793,note_on,3,0,0,,7,,,79,127
98918,note_off,125,0,0,,11,,,82,127
98919,note_off,1,0,0,,7,,,79,127
98919,note_off,0,0,0,,0,,,36,127
98920,note_on,1,0,0,,5,,,41,127
98920,note_on,0,0,0,,8,,,80,127
98920,note_on,0,0,0,,5,,,77,127
99047,note_off,127,0,0,,5,,,77,127
99047,note_off,0,0,0,,8,,,80,127
99048,note_on,1,0,0,,7,,,79,127
99048,note_on,0,0,0,,11,,,82,127
99175,note_off,127,0,0,,11,,,82,127
99175,note_off,0,0,0,,7,,,79,127
99175,note_off,0,0,0,,5,,,41,127
99176,note_on,1,0,0,,11,,,58,127
99176,note_on,0,0,0,,8,,,80,127
99176,note_on,0,0,0,,0,,,84,127
99303,note_off,127,0,0,,0,,,84,127
99303,note_off,0,0,0,,8,,,80,127
99304,note_on,1,0,0,,11,,,82,127
99304,note_on,0,0,0,,1,,,85,127
99431,note_off,127,0,0,,1,,,85,127
99431,note_off,0,0,0,,11,,,82,127
99431,note_off,0,0,0,,11,,,58,127
99432,note_on,1,0,0,,0,,,60,127
99432,note_on,0,0,0,,8,,,80,127
99432,note_on,0,0,0,,0,,,84,127
99559,note_off,127,0,0,,0,,,84,127
99559,note_off,0,0,0,,8,,,80,127
99560,note_on,1,0,0,,7,,,79,127
99560,note_on,0,0,0,,11,,,82,127
99687,note_off,127,0,0,,11,,,82,127
99687,note_off,0,0,0,,7,,,79,127
99688,note_on,1,0,0,,0,,,48,127
99688,note_on,0,0,0,,5,,,77,127
99688,note_on,0,0,0,,8,,,80,127
99815,note_off,127,0,0,,8,,,80,127
99815,note_off,0,0,0,,5,,,77,127
99816,note_on,1,0,0,,7,,,79,127
99816,note_on,0,0,0,,4,,,76,127
99941,note_off,125,0,0,,4,,,76,127
99941,note_off,0,0,0,,7,,,79,127
99942,note_off,1,0,0,,0,,,48,127
99942,note_off,0,0,0,,0,,,60,127
99943,note_on,1,0,0,,5,,,53,127
99943,note_on,0,0,0,,0,,,84,127
99943,note_on,0,0,0,,5,,,77,127
100070,note_off,127,0,0,,5,,,77,127
100071,note_on,1,0,0,,4,,,76,127
100198,note_off,127,0,0,,4,,,76,127
100198,note_off,0,0,0,,5,,,53,127
100199,note_on,1,0,0,,7,,,55,127
100199,note_on,0,0,0,,5,,,77,127
100326,note_off,127,0,0,,5,,,77,127
100327,note_on,1,0,0,,4,,,76,127
100454,note_off,127,0,0,,4,,,76,127
100454,note_off,0,0,0,,7,,,55,127
100455,note_on,1,0,0,,8,,,56,127
100455,note_on,0,0,0,,5,,,77,127
100582,note_off,127,0,0,,5,,,77,127
100583,note_on,1,0,0,,8,,,80,127
100710,note_off,127,0,0,,8,,,80,127
100710,note_off,0,0,0,,8,,,56,127
100710,note_off,0,0,0,,0,,,84,127
100711,note_on,1,0,0,,11,,,58,127
100711,note_on,0,0,0,,7,,,79,127
100838,note_off,127,0,0,,7,,,79,127
100839,note_on,1,0,0,,11,,,82,127
100966,note_off,127,0,0,,11,,,82,127
100966,note_off,0,0,0,,11,,,58,127
100967,note_on,1,0,0,,0,,,60,127
100967,note_on,0,0,0,,8,,,80,127
101094,note_off,127,0,0,,8,,,80,127
101095,note_on,1,0,0,,7,,,79,127
101222,note_off,127,0,0,,7,,,79,127
101223,note_on,1,0,0,,0,,,48,127
101223,note_on,0,0,0,,5,,,77,127
101350,note_off,127,0,0,,5,,,77,127
101351,note_on,1,0,0,,4,,,76,127
101478,note_off,127,0,0,,4,,,76,127
101478,note_off,0,0,0,,0,,,48,127
101478,note_off,0,0,0,,0,,,60,127
101479,note_on,1,0,0,,5,,,53,127
101479,note_on,0,0,0,,0,,,84,127
101479,note_on,0,0,0,,5,,,77,127
101606,note_off,127,0,0,,5,,,77,127
101607,note_on,1,0,0,,4,,,76,127
101734,note_off,127,0,0,,4,,,76,127
101734,note_off,0,0,0,,5,,,53,127
101735,note_on,1,0,0,,7,,,55,127
101735,note_on,0,0,0,,5,,,77,127
101862,note_off,127,0,0,,5,,,77,127
101863,note_on,1,0,0,,4,,,76,127
101990,note_off,127,0,0,,4,,,76,127
101990,note_off,0,0,0,,7,,,55,127
101991,note_on,1,0,0,,8,,,56,127
101991,note_on,0,0,0,,5,,,77,127
102118,note_off,127,0,0,,5,,,77,127
102119,note_off,1,0,0,,0,,,84,127
102119,note_on,0,0,0,,0,,,72,127
102246,note_off,127,0,0,,0,,,72,127
102246,note_off,0,0,0,,8,,,56,127
102247,note_on,1,0,0,,11,,,58,127
102247,note_on,0,0,0,,1,,,73,127
102374,note_off,127,0,0,,1,,,73,127
102375,note_on,1,0,0,,11,,,70,127
102502,note_off,127,0,0,,11,,,70,127
102502,note_off,0,0,0,,11,,,58,127
102503,note_on,1,0,0,,0,,,60,127
102503,note_on,0,0,0,,8,,,68,127
102630,note_off,127,0,0,,8,,,68,127
102631,note_on,1,0,0,,7,,,67,127
102758,note_off,127,0,0,,7,,,67,127
102759,note_on,1,0,0,,0,,,48,127
102759,note_on,0,0,0,,5,,,65,127
102886,note_off,127,0,0,,5,,,65,127
102887,note_off,1,0,0,,0,,,60,127
102887,note_on,0,0,0,,4,,,64,127
103014,note_off,127,0,0,,4,,,64,127
103014,note_off,0,0,0,,0,,,48,127
103015,note_on,1,0,0,,5,,,41,127
103015,note_on,0,0,0,,0,,,72,127
103015,note_on,0,0,0,,5,,,65,127
103142,note_off,127,0,0,,5,,,65,127
103143,note_on,1,0,0,,4,,,64,127
103270,note_off,127,0,0,,4,,,64,127
103270,note_off,0,0,0,,5,,,41,127
103271,note_on,1,0,0,,7,,,43,127
103271,note_on,0,0,0,,5,,,65,127
103398,note_off,127,0,0,,5,,,65,127
103399,note_off,1,0,0,,0,,,72,127
103399,note_on,0,0,0,,4,,,64,127
103526,note_off,127,0,0,,4,,,64,127
103526,note_off,0,0,0,,7,,,43,127
103527,note_on,1,0,0,,8,,,44,127
103527,note_on,0,0,0,,5,,,65,127
103654,note_off,127,0,0,,5,,,65,127
103655,note_on,1,0,0,,0,,,60,127
103782,note_off,127,0,0,,0,,,60,127
103782,note_off,0,0,0,,8,,,44,127
103783,note_on,1,0,0,,11,,,46,127
103783,note_on,0,0,0,,1,,,61,127
103910,note_off,127,0,0,,1,,,61,127
103911,note_on,1,0,0,,11,,,58,127
104038,note_off,127,0,0,,11,,,58,127
104038,note_off,0,0,0,,11,,,46,127
104039,note_on,1,0,0,,0,,,48,127
104039,note_on,0,0,0,,8,,,56,127
104166,note_off,127,0,0,,8,,,56,127
104167,note_on,1,0,0,,7,,,55,127
104294,note_off,127,0,0,,7,,,55,127
104295,note_on,1,0,0,,0,,,36,127
104295,note_on,0,0,0,,5,,,53,127
104422,note_off,127,0,0,,5,,,53,127
104423,note_on,1,0,0,,4,,,52,127
104550,note_off,127,0,0,,4,,,52,127
104550,note_off,0,0,0,,0,,,36,127
104550,note_off,0,0,0,,0,,,48,127
104551,note_on,1,0,0,,5,,,41,127
104551,note_on,0,0,0,,5,,,53,127
106087,note_off,1536,0,0,,5,,,53,127
106087,note_off,0,0,0,,5,,,41,127
110592,end_of_track,4505,1,0,,,,,,
