tick,type,time,meta,track,program,channel,pitch,tempo,note,velocity
0,copyright,0,1,0,,,,,,
0,program_change,0,0,0,6,0,,,,
0,pitchwheel,0,0,0,,0,0,,,
0,program_change,0,0,0,6,1,,,,
0,pitchwheel,0,0,0,,1,-590,,,
0,program_change,0,0,0,6,2,,,,
0,pitchwheel,0,0,0,,2,-272,,,
0,program_change,0,0,0,6,3,,,,
0,pitchwheel,0,0,0,,3,-353,,,
0,program_change,0,0,0,6,4,,,,
0,pitchwheel,0,0,0,,4,-560,,,
0,program_change,0,0,0,6,5,,,,
0,pitchwheel,0,0,0,,5,-80,,,
0,program_change,0,0,0,6,6,,,,
0,pitchwheel,0,0,0,,6,-625,,,
0,program_change,0,0,0,6,7,,,,
0,pitchwheel,0,0,0,,7,-130,,,
0,program_change,0,0,0,6,8,,,,
0,pitchwheel,0,0,0,,8,-512,,,
0,program_change,0,0,0,6,10,,,,
0,pitchwheel,0,0,0,,10,-464,,,
0,program_change,0,0,0,6,11,,,,
0,pitchwheel,0,0,0,,11,-208,,,
0,program_change,0,0,0,6,12,,,,
0,pitchwheel,0,0,0,,12,-553,,,
0,set_tempo,0,1,0,,,,500000,,
100,note_on,100,0,0,,7,,,55,127
100,note_on,0,0,0,,7,,,67,127
300,note_on,200,0,0,,2,,,62,127
400,note_off,100,0,0,,7,,,67,127
499,note_off,99,0,0,,2,,,62,127
499,note_off,0,0,0,,7,,,55,127
500,note_on,1,0,0,,6,,,54,127
500,note_on,0,0,0,,2,,,74,127
699,note_off,199,0,0,,2,,,74,127
699,note_off,0,0,0,,6,,,54,127
700,note_on,1,0,0,,7,,,55,127
700,note_on,0,0,0,,0,,,72,127
799,note_off,99,0,0,,0,,,72,127
800,note_on,1,0,0,,11,,,70,127
899,note_off,99,0,0,,11,,,70,127
899,note_off,0,0,0,,7,,,55,127
900,note_on,1,0,0,,5,,,53,127
900,note_on,0,0,0,,10,,,69,127
1099,note_off,199,0,0,,10,,,69,127
1099,note_off,0,0,0,,5,,,53,127
1100,note_on,1,0,0,,3,,,51,127
1100,note_on,0,0,0,,7,,,67,127
1299,note_off,199,0,0,,7,,,67,127
1299,note_off,0,0,0,,3,,,51,127
1300,note_on,1,0,0,,2,,,50,127
1300,note_on,0,0,0,,10,,,69,127
1500,note_on,200,0,0,,2,,,62,127
1600,note_off,100,0,0,,10,,,69,127
1699,note_off,99,0,0,,2,,,62,127
1699,note_off,0,0,0,,2,,,50,127
1700,note_on,1,0,0,,6,,,54,127
1700,note_on,0,0,0,,2,,,74,127
1899,note_off,199,0,0,,2,,,74,127
1899,note_off,0,0,0,,6,,,54,127
1900,note_on,1,0,0,,7,,,55,127
1900,note_on,0,0,0,,0,,,72,127
1999,note_off,99,0,0,,0,,,72,127
2000,note_on,1,0,0,,11,,,70,127
2099,note_off,99,0,0,,11,,,70,127
2099,note_off,0,0,0,,7,,,55,127
2100,note_on,1,0,0,,5,,,53,127
2100,note_on,0,0,0,,10,,,69,127
2100,note_on,0,0,0,,7,,,79,127
2299,note_off,199,0,0,,10,,,69,127
2299,note_off,0,0,0,,5,,,53,127
2300,note_on,1,0,0,,3,,,51,127
2300,note_on,0,0,0,,7,,,67,127
2499,note_off,199,0,0,,7,,,67,127
2499,note_off,0,0,0,,3,,,51,127
2499,note_off,0,0,0,,7,,,79,127
2500,note_on,1,0,0,,2,,,50,127
2500,note_on,0,0,0,,10,,,69,127
2500,note_on,0,0,0,,6,,,78,127
2699,note_off,199,0,0,,6,,,78,127
2699,note_off,0,0,0,,10,,,69,127
2700,note_on,1,0,0,,7,,,79,127
2700,note_on,0,0,0,,11,,,70,127
2899,note_off,199,0,0,,11,,,70,127
2899,note_off,0,0,0,,7,,,79,127
2899,note_off,0,0,0,,2,,,50,127
2900,note_on,1,0,0,,2,,,50,127
2900,note_on,0,0,0,,10,,,81,127
2900,note_on,0,0,0,,0,,,72,127
3099,note_off,199,0,0,,0,,,72,127
3099,note_off,0,0,0,,10,,,81,127
3099,note_off,0,0,0,,2,,,50,127
3100,note_on,1,0,0,,7,,,55,127
3100,note_on,0,0,0,,7,,,79,127
3100,note_on,0,0,0,,11,,,70,127
3299,note_off,199,0,0,,11,,,70,127
3299,note_off,0,0,0,,7,,,79,127
3300,note_on,1,0,0,,10,,,69,127
3300,note_on,0,0,0,,5,,,77,127
3499,note_off,199,0,0,,5,,,77,127
3499,note_off,0,0,0,,10,,,69,127
3499,note_off,0,0,0,,7,,,55,127
3500,note_on,1,0,0,,0,,,48,127
3500,note_on,0,0,0,,3,,,75,127
3500,note_on,0,0,0,,7,,,67,127
3699,note_off,199,0,0,,7,,,67,127
3699,note_off,0,0,0,,3,,,75,127
3699,note_off,0,0,0,,0,,,48,127
3700,note_on,1,0,0,,2,,,50,127
3700,note_on,0,0,0,,2,,,74,127
3700,note_on,0,0,0,,6,,,66,127
3899,note_off,199,0,0,,6,,,66,127
3899,note_off,0,0,0,,2,,,74,127
3900,note_on,1,0,0,,4,,,76,127
3900,note_on,0,0,0,,7,,,67,127
4099,note_off,199,0,0,,7,,,67,127
4099,note_off,0,0,0,,4,,,76,127
4099,note_off,0,0,0,,2,,,50,127
4100,note_on,1,0,0,,2,,,50,127
4100,note_on,0,0,0,,6,,,78,127
4100,note_on,0,0,0,,10,,,69,127
4299,note_off,199,0,0,,10,,,69,127
4299,note_off,0,0,0,,6,,,78,127
4299,note_off,0,0,0,,2,,,50,127
4300,note_on,1,0,0,,7,,,55,127
4300,note_on,0,0,0,,7,,,79,127
4300,note_on,0,0,0,,11,,,70,127
4499,note_off,199,0,0,,11,,,70,127
4499,note_off,0,0,0,,7,,,79,127
4500,note_on,1,0,0,,5,,,77,127
4500,note_on,0,0,0,,10,,,69,127
4699,note_off,199,0,0,,10,,,69,127
4699,note_off,0,0,0,,5,,,77,127
4699,note_off,0,0,0,,7,,,55,127
4700,note_on,1,0,0,,0,,,48,127
4700,note_on,0,0,0,,7,,,67,127
4700,note_on,0,0,0,,3,,,75,127
4899,note_off,199,0,0,,3,,,75,127
4899,note_off,0,0,0,,7,,,67,127
4899,note_off,0,0,0,,0,,,48,127
4900,note_on,1,0,0,,2,,,50,127
4900,note_on,0,0,0,,2,,,74,127
4900,note_on,0,0,0,,6,,,66,127
5099,note_off,199,0,0,,6,,,66,127
5099,note_off,0,0,0,,2,,,74,127
5100,note_on,1,0,0,,7,,,67,127
5100,note_on,0,0,0,,4,,,76,127
5299,note_off,199,0,0,,4,,,76,127
5299,note_off,0,0,0,,7,,,67,127
5299,note_off,0,0,0,,2,,,50,127
5300,note_on,1,0,0,,2,,,50,127
5300,note_on,0,0,0,,6,,,78,127
5300,note_on,0,0,0,,10,,,69,127
5499,note_off,199,0,0,,10,,,69,127
5499,note_off,0,0,0,,6,,,78,127
5499,note_off,0,0,0,,2,,,50,127
5500,note_on,1,0,0,,7,,,55,127
5500,note_on,0,0,0,,11,,,70,127
5500,note_on,0,0,0,,7,,,79,127
5699,note_off,199,0,0,,7,,,79,127
5699,note_off,0,0,0,,11,,,70,127
5700,note_on,1,0,0,,5,,,77,127
5700,note_on,0,0,0,,10,,,69,127
5899,note_off,199,0,0,,10,,,69,127
5899,note_off,0,0,0,,5,,,77,127
5899,note_off,0,0,0,,7,,,55,127
5900,note_on,1,0,0,,0,,,48,127
5900,note_on,0,0,0,,3,,,75,127
5900,note_on,0,0,0,,7,,,67,127
6099,note_off,199,0,0,,7,,,67,127
6099,note_off,0,0,0,,3,,,75,127
6099,note_off,0,0,0,,0,,,48,127
6100,note_on,1,0,0,,2,,,50,127
6100,note_on,0,0,0,,1,,,73,127
6299,note_off,199,0,0,,1,,,73,127
6300,note_on,1,0,0,,2,,,74,127
6601,note_off,301,0,0,,2,,,74,127
6700,note_off,99,0,0,,2,,,50,127
6701,note_on,1,0,0,,2,,,50,127
6701,note_on,0,0,0,,2,,,86,127
6900,note_off,199,0,0,,2,,,86,127
6901,note_on,1,0,0,,2,,,74,127
7100,note_off,199,0,0,,2,,,74,127
7100,note_off,0,0,0,,2,,,50,127
7101,note_on,1,0,0,,6,,,54,127
7101,note_on,0,0,0,,2,,,62,127
7300,note_off,199,0,0,,2,,,62,127
7300,note_off,0,0,0,,6,,,54,127
7301,note_on,1,0,0,,7,,,55,127
7301,note_on,0,0,0,,0,,,60,127
7380,note_off,79,0,0,,0,,,60,127
7381,note_on,1,0,0,,11,,,58,127
7459,note_off,78,0,0,,11,,,58,127
7460,note_on,1,0,0,,0,,,60,127
7537,note_off,77,0,0,,0,,,60,127
7538,note_on,1,0,0,,11,,,58,127
7614,note_off,76,0,0,,11,,,58,127
7615,note_on,1,0,0,,10,,,57,127
7700,note_off,85,0,0,,10,,,57,127
7700,note_off,0,0,0,,7,,,55,127
7701,note_on,1,0,0,,7,,,43,127
7701,note_on,0,0,0,,7,,,55,127
7900,note_off,199,0,0,,7,,,55,127
7900,note_off,0,0,0,,7,,,43,127
7901,note_on,1,0,0,,2,,,50,127
7901,note_on,0,0,0,,2,,,86,127
8100,note_off,199,0,0,,2,,,86,127
8101,note_on,1,0,0,,2,,,74,127
8300,note_off,199,0,0,,2,,,74,127
8300,note_off,0,0,0,,2,,,50,127
8301,note_on,1,0,0,,6,,,54,127
8301,note_on,0,0,0,,2,,,62,127
8500,note_off,199,0,0,,2,,,62,127
8500,note_off,0,0,0,,6,,,54,127
8501,note_on,1,0,0,,7,,,55,127
8501,note_on,0,0,0,,0,,,60,127
8580,note_off,79,0,0,,0,,,60,127
8581,note_on,1,0,0,,11,,,58,127
8659,note_off,78,0,0,,11,,,58,127
8660,note_on,1,0,0,,0,,,60,127
8737,note_off,77,0,0,,0,,,60,127
8738,note_on,1,0,0,,11,,,58,127
8814,note_off,76,0,0,,11,,,58,127
8815,note_on,1,0,0,,10,,,57,127
8900,note_off,85,0,0,,10,,,57,127
8900,note_off,0,0,0,,7,,,55,127
8901,note_on,1,0,0,,7,,,55,127
9100,note_off,199,0,0,,7,,,55,127
9101,note_on,1,0,0,,2,,,86,127
9101,note_on,0,0,0,,10,,,69,127
9101,note_on,0,0,0,,6,,,66,127
9101,note_on,0,0,0,,2,,,62,127
9300,note_off,199,0,0,,6,,,66,127
9300,note_off,0,0,0,,10,,,69,127
9300,note_off,0,0,0,,2,,,86,127
9301,note_on,1,0,0,,2,,,50,127
9301,note_on,0,0,0,,7,,,67,127
9301,note_on,0,0,0,,11,,,70,127
9500,note_off,199,0,0,,11,,,70,127
9500,note_off,0,0,0,,7,,,67,127
9500,note_off,0,0,0,,2,,,50,127
9501,note_on,1,0,0,,2,,,38,127
9501,note_on,0,0,0,,0,,,72,127
9501,note_on,0,0,0,,10,,,69,127
9700,note_off,199,0,0,,10,,,69,127
9700,note_off,0,0,0,,0,,,72,127
9700,note_off,0,0,0,,2,,,38,127
9700,note_off,0,0,0,,2,,,62,127
9701,note_on,1,0,0,,7,,,43,127
9701,note_on,0,0,0,,7,,,67,127
9701,note_on,0,0,0,,2,,,62,127
9701,note_on,0,0,0,,11,,,70,127
9900,note_off,199,0,0,,11,,,70,127
9900,note_off,0,0,0,,7,,,67,127
9901,note_on,1,0,0,,0,,,72,127
9901,note_on,0,0,0,,10,,,69,127
10100,note_off,199,0,0,,10,,,69,127
10100,note_off,0,0,0,,0,,,72,127
10101,note_on,1,0,0,,11,,,70,127
10101,note_on,0,0,0,,2,,,74,127
10300,note_off,199,0,0,,2,,,74,127
10300,note_off,0,0,0,,11,,,70,127
10300,note_off,0,0,0,,2,,,62,127
10300,note_off,0,0,0,,7,,,43,127
10301,note_on,1,0,0,,2,,,86,127
10301,note_on,0,0,0,,10,,,69,127
10301,note_on,0,0,0,,6,,,66,127
10301,note_on,0,0,0,,2,,,62,127
10500,note_off,199,0,0,,6,,,66,127
10500,note_off,0,0,0,,10,,,69,127
10500,note_off,0,0,0,,2,,,86,127
10501,note_on,1,0,0,,2,,,50,127
10501,note_on,0,0,0,,11,,,70,127
10501,note_on,0,0,0,,7,,,67,127
10700,note_off,199,0,0,,7,,,67,127
10700,note_off,0,0,0,,11,,,70,127
10700,note_off,0,0,0,,2,,,50,127
10701,note_on,1,0,0,,2,,,38,127
10701,note_on,0,0,0,,0,,,72,127
10701,note_on,0,0,0,,10,,,69,127
10900,note_off,199,0,0,,10,,,69,127
10900,note_off,0,0,0,,0,,,72,127
10900,note_off,0,0,0,,2,,,38,127
10900,note_off,0,0,0,,2,,,62,127
10901,note_on,1,0,0,,7,,,43,127
10901,note_on,0,0,0,,2,,,62,127
10901,note_on,0,0,0,,11,,,70,127
10901,note_on,0,0,0,,7,,,67,127
11100,note_off,199,0,0,,7,,,67,127
11100,note_off,0,0,0,,11,,,70,127
11101,note_on,1,0,0,,10,,,69,127
11101,note_on,0,0,0,,0,,,72,127
11300,note_off,199,0,0,,0,,,72,127
11300,note_off,0,0,0,,10,,,69,127
11300,note_off,0,0,0,,2,,,62,127
11301,note_on,1,0,0,,2,,,74,127
11301,note_on,0,0,0,,11,,,70,127
11500,note_off,199,0,0,,11,,,70,127
11500,note_off,0,0,0,,2,,,74,127
11500,note_off,0,0,0,,7,,,43,127
11501,note_on,1,0,0,,2,,,86,127
11501,note_on,0,0,0,,2,,,74,127
11501,note_on,0,0,0,,12,,,71,127
11501,note_on,0,0,0,,7,,,67,127
11700,note_off,199,0,0,,12,,,71,127
11700,note_off,0,0,0,,2,,,74,127
11700,note_off,0,0,0,,2,,,86,127
11701,note_on,1,0,0,,7,,,55,127
11701,note_on,0,0,0,,3,,,75,127
11701,note_on,0,0,0,,0,,,72,127
11900,note_off,199,0,0,,0,,,72,127
11900,note_off,0,0,0,,3,,,75,127
11900,note_off,0,0,0,,7,,,55,127
11901,note_on,1,0,0,,7,,,43,127
11901,note_on,0,0,0,,5,,,77,127
11901,note_on,0,0,0,,2,,,74,127
12100,note_off,199,0,0,,2,,,74,127
12100,note_off,0,0,0,,5,,,77,127
12100,note_off,0,0,0,,7,,,43,127
12100,note_off,0,0,0,,7,,,67,127
12101,note_on,1,0,0,,0,,,48,127
12101,note_on,0,0,0,,3,,,75,127
12101,note_on,0,0,0,,7,,,67,127
12300,note_off,199,0,0,,3,,,75,127
12301,note_on,1,0,0,,2,,,74,127
12500,note_off,199,0,0,,2,,,74,127
12501,note_on,1,0,0,,0,,,72,127
12700,note_off,199,0,0,,0,,,72,127
12700,note_off,0,0,0,,7,,,67,127
12700,note_off,0,0,0,,0,,,48,127
12701,note_on,1,0,0,,2,,,86,127
12701,note_on,0,0,0,,2,,,74,127
12701,note_on,0,0,0,,12,,,71,127
12701,note_on,0,0,0,,7,,,67,127
12900,note_off,199,0,0,,12,,,71,127
12900,note_off,0,0,0,,2,,,74,127
12900,note_off,0,0,0,,2,,,86,127
12901,note_on,1,0,0,,7,,,55,127
12901,note_on,0,0,0,,0,,,72,127
12901,note_on,0,0,0,,3,,,75,127
13100,note_off,199,0,0,,3,,,75,127
13100,note_off,0,0,0,,0,,,72,127
13100,note_off,0,0,0,,7,,,55,127
13101,note_on,1,0,0,,7,,,43,127
13101,note_on,0,0,0,,5,,,77,127
13101,note_on,0,0,0,,2,,,74,127
13300,note_off,199,0,0,,2,,,74,127
13300,note_off,0,0,0,,5,,,77,127
13300,note_off,0,0,0,,7,,,43,127
13300,note_off,0,0,0,,7,,,67,127
13301,note_on,1,0,0,,0,,,48,127
13301,note_on,0,0,0,,3,,,75,127
13301,note_on,0,0,0,,7,,,67,127
13500,note_off,199,0,0,,3,,,75,127
13501,note_on,1,0,0,,2,,,74,127
13700,note_off,199,0,0,,2,,,74,127
13700,note_off,0,0,0,,7,,,67,127
13701,note_on,1,0,0,,0,,,72,127
13900,note_off,199,0,0,,0,,,72,127
13900,note_off,0,0,0,,0,,,48,127
13901,note_on,1,0,0,,0,,,84,127
13901,note_on,0,0,0,,10,,,69,127
13901,note_on,0,0,0,,5,,,65,127
13901,note_on,0,0,0,,0,,,72,127
14100,note_off,199,0,0,,0,,,72,127
14100,note_off,0,0,0,,10,,,69,127
14100,note_off,0,0,0,,0,,,84,127
14101,note_on,1,0,0,,5,,,53,127
14101,note_on,0,0,0,,2,,,74,127
14101,note_on,0,0,0,,11,,,70,127
14300,note_off,199,0,0,,11,,,70,127
14300,note_off,0,0,0,,2,,,74,127
14300,note_off,0,0,0,,5,,,53,127
14301,note_on,1,0,0,,5,,,41,127
14301,note_on,0,0,0,,3,,,75,127
14301,note_on,0,0,0,,0,,,72,127
14500,note_off,199,0,0,,0,,,72,127
14500,note_off,0,0,0,,3,,,75,127
14500,note_off,0,0,0,,5,,,41,127
14500,note_off,0,0,0,,5,,,65,127
14501,note_on,1,0,0,,11,,,46,127
14501,note_on,0,0,0,,2,,,74,127
14501,note_on,0,0,0,,5,,,65,127
14700,note_off,199,0,0,,2,,,74,127
14701,note_on,1,0,0,,0,,,72,127
14900,note_off,199,0,0,,0,,,72,127
14901,note_on,1,0,0,,11,,,70,127
15100,note_off,199,0,0,,11,,,70,127
15100,note_off,0,0,0,,5,,,65,127
15100,note_off,0,0,0,,11,,,46,127
15101,note_on,1,0,0,,0,,,84,127
15101,note_on,0,0,0,,0,,,72,127
15101,note_on,0,0,0,,10,,,69,127
15101,note_on,0,0,0,,5,,,65,127
15300,note_off,199,0,0,,10,,,69,127
15300,note_off,0,0,0,,0,,,72,127
15300,note_off,0,0,0,,0,,,84,127
15301,note_on,1,0,0,,5,,,53,127
15301,note_on,0,0,0,,2,,,74,127
15301,note_on,0,0,0,,11,,,70,127
15500,note_off,199,0,0,,11,,,70,127
15500,note_off,0,0,0,,2,,,74,127
15500,note_off,0,0,0,,5,,,53,127
15501,note_on,1,0,0,,5,,,41,127
15501,note_on,0,0,0,,3,,,75,127
15501,note_on,0,0,0,,0,,,72,127
15700,note_off,199,0,0,,0,,,72,127
15700,note_off,0,0,0,,3,,,75,127
15700,note_off,0,0,0,,5,,,41,127
15700,note_off,0,0,0,,5,,,65,127
15701,note_on,1,0,0,,11,,,46,127
15701,note_on,0,0,0,,2,,,74,127
15701,note_on,0,0,0,,5,,,65,127
15900,note_off,199,0,0,,2,,,74,127
15901,note_on,1,0,0,,0,,,72,127
16100,note_off,199,0,0,,0,,,72,127
16100,note_off,0,0,0,,5,,,65,127
16101,note_on,1,0,0,,11,,,70,127
16300,note_off,199,0,0,,11,,,70,127
16300,note_off,0,0,0,,11,,,46,127
16301,note_on,1,0,0,,11,,,82,127
16301,note_on,0,0,0,,7,,,67,127
16301,note_on,0,0,0,,11,,,70,127
16500,note_off,199,0,0,,11,,,70,127
16500,note_off,0,0,0,,7,,,67,127
16500,note_off,0,0,0,,11,,,82,127
16501,note_on,1,0,0,,3,,,51,127
16501,note_on,0,0,0,,10,,,69,127
16501,note_on,0,0,0,,0,,,72,127
16700,note_off,199,0,0,,0,,,72,127
16700,note_off,0,0,0,,10,,,69,127
16700,note_off,0,0,0,,3,,,51,127
16701,note_on,1,0,0,,3,,,39,127
16701,note_on,0,0,0,,11,,,70,127
16701,note_on,0,0,0,,2,,,74,127
16900,note_off,199,0,0,,2,,,74,127
16900,note_off,0,0,0,,11,,,70,127
16900,note_off,0,0,0,,3,,,39,127
16901,note_on,1,0,0,,10,,,45,127
16901,note_on,0,0,0,,10,,,69,127
16901,note_on,0,0,0,,0,,,72,127
17100,note_off,199,0,0,,0,,,72,127
17100,note_off,0,0,0,,10,,,69,127
17101,note_on,1,0,0,,11,,,70,127
17101,note_on,0,0,0,,7,,,67,127
17300,note_off,199,0,0,,7,,,67,127
17300,note_off,0,0,0,,11,,,70,127
17301,note_on,1,0,0,,10,,,69,127
17301,note_on,0,0,0,,6,,,66,127
17500,note_off,199,0,0,,6,,,66,127
17500,note_off,0,0,0,,10,,,69,127
17500,note_off,0,0,0,,10,,,45,127
17501,note_on,1,0,0,,10,,,81,127
17501,note_on,0,0,0,,10,,,69,127
17501,note_on,0,0,0,,6,,,66,127
17700,note_off,199,0,0,,6,,,66,127
17700,note_off,0,0,0,,10,,,69,127
17700,note_off,0,0,0,,10,,,81,127
17701,note_on,1,0,0,,2,,,50,127
17701,note_on,0,0,0,,11,,,70,127
17701,note_on,0,0,0,,7,,,67,127
17900,note_off,199,0,0,,7,,,67,127
17900,note_off,0,0,0,,11,,,70,127
17900,note_off,0,0,0,,2,,,50,127
17901,note_on,1,0,0,,2,,,38,127
17901,note_on,0,0,0,,10,,,69,127
17901,note_on,0,0,0,,0,,,72,127
18100,note_off,199,0,0,,0,,,72,127
18100,note_off,0,0,0,,10,,,69,127
18100,note_off,0,0,0,,2,,,38,127
18101,note_on,1,0,0,,7,,,43,127
18101,note_on,0,0,0,,11,,,70,127
18101,note_on,0,0,0,,7,,,67,127
18300,note_off,199,0,0,,7,,,67,127
18300,note_off,0,0,0,,11,,,70,127
18301,note_on,1,0,0,,10,,,69,127
18500,note_off,199,0,0,,10,,,69,127
18501,note_on,1,0,0,,7,,,67,127
18700,note_off,199,0,0,,7,,,67,127
18700,note_off,0,0,0,,7,,,43,127
18701,note_on,1,0,0,,7,,,55,127
18701,note_on,0,0,0,,11,,,70,127
18701,note_on,0,0,0,,7,,,79,127
18900,note_off,199,0,0,,7,,,79,127
18900,note_off,0,0,0,,11,,,70,127
18901,note_on,1,0,0,,4,,,76,127
18901,note_on,0,0,0,,7,,,67,127
18901,note_on,0,0,0,,5,,,77,127
19100,note_off,199,0,0,,5,,,77,127
19100,note_off,0,0,0,,7,,,67,127
19100,note_off,0,0,0,,4,,,76,127
19101,note_on,1,0,0,,2,,,74,127
19101,note_on,0,0,0,,5,,,65,127
19300,note_off,199,0,0,,5,,,65,127
19300,note_off,0,0,0,,2,,,74,127
19300,note_off,0,0,0,,7,,,55,127
19301,note_on,1,0,0,,10,,,57,127
19301,note_on,0,0,0,,2,,,74,127
19301,note_on,0,0,0,,5,,,65,127
19301,note_on,0,0,0,,4,,,76,127
19500,note_off,199,0,0,,4,,,76,127
19500,note_off,0,0,0,,5,,,65,127
19500,note_off,0,0,0,,2,,,74,127
19501,note_on,1,0,0,,1,,,73,127
19501,note_on,0,0,0,,4,,,64,127
19700,note_off,199,0,0,,4,,,64,127
19700,note_off,0,0,0,,1,,,73,127
19700,note_off,0,0,0,,10,,,57,127
19701,note_on,1,0,0,,10,,,57,127
19701,note_on,0,0,0,,11,,,46,127
19701,note_on,0,0,0,,2,,,74,127
19701,note_on,0,0,0,,5,,,65,127
19900,note_off,199,0,0,,5,,,65,127
19900,note_off,0,0,0,,2,,,74,127
19900,note_off,0,0,0,,11,,,46,127
19900,note_off,0,0,0,,10,,,57,127
19901,note_on,1,0,0,,10,,,57,127
19901,note_on,0,0,0,,10,,,45,127
19901,note_on,0,0,0,,4,,,76,127
19901,note_on,0,0,0,,2,,,74,127
19901,note_on,0,0,0,,5,,,65,127
20100,note_off,199,0,0,,5,,,65,127
20100,note_off,0,0,0,,2,,,74,127
20100,note_off,0,0,0,,4,,,76,127
20101,note_on,1,0,0,,4,,,64,127
20101,note_on,0,0,0,,1,,,73,127
20300,note_off,199,0,0,,1,,,73,127
20300,note_off,0,0,0,,4,,,64,127
20300,note_off,0,0,0,,10,,,45,127
20300,note_off,0,0,0,,10,,,57,127
20301,note_on,1,0,0,,10,,,57,127
20301,note_on,0,0,0,,11,,,46,127
20301,note_on,0,0,0,,2,,,74,127
20301,note_on,0,0,0,,5,,,65,127
20500,note_off,199,0,0,,5,,,65,127
20500,note_off,0,0,0,,2,,,74,127
20500,note_off,0,0,0,,11,,,46,127
20500,note_off,0,0,0,,10,,,57,127
20501,note_on,1,0,0,,10,,,45,127
20501,note_on,0,0,0,,10,,,57,127
20501,note_on,0,0,0,,2,,,74,127
20501,note_on,0,0,0,,5,,,65,127
20501,note_on,0,0,0,,4,,,76,127
20700,note_off,199,0,0,,4,,,76,127
20700,note_off,0,0,0,,5,,,65,127
20700,note_off,0,0,0,,2,,,74,127
20701,note_on,1,0,0,,4,,,64,127
20701,note_on,0,0,0,,1,,,73,127
20900,note_off,199,0,0,,1,,,73,127
20900,note_off,0,0,0,,4,,,64,127
20900,note_off,0,0,0,,10,,,57,127
20900,note_off,0,0,0,,10,,,45,127
20901,note_on,1,0,0,,11,,,46,127
20901,note_on,0,0,0,,10,,,57,127
20901,note_on,0,0,0,,2,,,74,127
20901,note_on,0,0,0,,5,,,65,127
21100,note_off,199,0,0,,5,,,65,127
21100,note_off,0,0,0,,2,,,74,127
21100,note_off,0,0,0,,10,,,57,127
21100,note_off,0,0,0,,11,,,46,127
21101,note_on,1,0,0,,10,,,45,127
21101,note_on,0,0,0,,10,,,57,127
21101,note_on,0,0,0,,4,,,76,127
21101,note_on,0,0,0,,2,,,74,127
21101,note_on,0,0,0,,5,,,65,127
21300,note_off,199,0,0,,5,,,65,127
21300,note_off,0,0,0,,2,,,74,127
21300,note_off,0,0,0,,4,,,76,127
21301,note_on,1,0,0,,4,,,64,127
21301,note_on,0,0,0,,1,,,73,127
21500,note_off,199,0,0,,1,,,73,127
21500,note_off,0,0,0,,4,,,64,127
21500,note_off,0,0,0,,10,,,57,127
21500,note_off,0,0,0,,10,,,45,127
21501,note_on,1,0,0,,11,,,46,127
21501,note_on,0,0,0,,10,,,57,127
21501,note_on,0,0,0,,4,,,76,127
21501,note_on,0,0,0,,5,,,65,127
21551,note_on,50,0,0,,2,,,74,127
21566,note_off,15,0,0,,4,,,76,127
21601,note_on,35,0,0,,1,,,73,127
21616,note_off,15,0,0,,2,,,74,127
21651,note_on,35,0,0,,2,,,74,127
21666,note_off,15,0,0,,1,,,73,127
21700,note_off,34,0,0,,5,,,65,127
21700,note_off,0,0,0,,10,,,57,127
21700,note_off,0,0,0,,11,,,46,127
21701,note_on,1,0,0,,10,,,45,127
21701,note_on,0,0,0,,10,,,57,127
21901,note_off,200,0,0,,2,,,74,127
21901,note_on,0,0,0,,4,,,76,127
22261,note_off,360,0,0,,4,,,76,127
22301,note_off,40,0,0,,10,,,57,127
22301,note_off,0,0,0,,10,,,45,127
22302,note_on,1,0,0,,10,,,45,127
22302,note_on,0,0,0,,10,,,81,127
22501,note_off,199,0,0,,10,,,81,127
22502,note_on,1,0,0,,10,,,69,127
22701,note_off,199,0,0,,10,,,69,127
22701,note_off,0,0,0,,10,,,45,127
22702,note_on,1,0,0,,1,,,49,127
22702,note_on,0,0,0,,10,,,57,127
22901,note_off,199,0,0,,10,,,57,127
22901,note_off,0,0,0,,1,,,49,127
22902,note_on,1,0,0,,2,,,50,127
22902,note_on,0,0,0,,7,,,55,127
22981,note_off,79,0,0,,7,,,55,127
22982,note_on,1,0,0,,5,,,53,127
23060,note_off,78,0,0,,5,,,53,127
23061,note_on,1,0,0,,7,,,55,127
23138,note_off,77,0,0,,7,,,55,127
23139,note_on,1,0,0,,5,,,53,127
23215,note_off,76,0,0,,5,,,53,127
23216,note_on,1,0,0,,4,,,52,127
23301,note_off,85,0,0,,4,,,52,127
23301,note_off,0,0,0,,2,,,50,127
23302,note_on,1,0,0,,2,,,50,127
23501,note_off,199,0,0,,2,,,50,127
23502,note_on,1,0,0,,10,,,45,127
23502,note_on,0,0,0,,10,,,81,127
23701,note_off,199,0,0,,10,,,81,127
23702,note_on,1,0,0,,10,,,69,127
23901,note_off,199,0,0,,10,,,69,127
23901,note_off,0,0,0,,10,,,45,127
23902,note_on,1,0,0,,1,,,49,127
23902,note_on,0,0,0,,10,,,57,127
24101,note_off,199,0,0,,10,,,57,127
24101,note_off,0,0,0,,1,,,49,127
24102,note_on,1,0,0,,2,,,50,127
24102,note_on,0,0,0,,7,,,55,127
24181,note_off,79,0,0,,7,,,55,127
24182,note_on,1,0,0,,5,,,53,127
24260,note_off,78,0,0,,5,,,53,127
24261,note_on,1,0,0,,7,,,55,127
24338,note_off,77,0,0,,7,,,55,127
24339,note_on,1,0,0,,5,,,53,127
24415,note_off,76,0,0,,5,,,53,127
24416,note_on,1,0,0,,4,,,52,127
24501,note_off,85,0,0,,4,,,52,127
24501,note_off,0,0,0,,2,,,50,127
24502,note_on,1,0,0,,2,,,50,127
24701,note_off,199,0,0,,2,,,50,127
24702,note_on,1,0,0,,10,,,81,127
24702,note_on,0,0,0,,4,,,64,127
24702,note_on,0,0,0,,1,,,73,127
24901,note_off,199,0,0,,1,,,73,127
24901,note_off,0,0,0,,4,,,64,127
24901,note_off,0,0,0,,10,,,81,127
24902,note_on,1,0,0,,10,,,57,127
24902,note_on,0,0,0,,2,,,74,127
24902,note_on,0,0,0,,5,,,65,127
25101,note_off,199,0,0,,5,,,65,127
25101,note_off,0,0,0,,2,,,74,127
25101,note_off,0,0,0,,10,,,57,127
25102,note_on,1,0,0,,10,,,45,127
25102,note_on,0,0,0,,4,,,76,127
25102,note_on,0,0,0,,7,,,67,127
25301,note_off,199,0,0,,7,,,67,127
25301,note_off,0,0,0,,4,,,76,127
25301,note_off,0,0,0,,10,,,45,127
25302,note_on,1,0,0,,2,,,38,127
25302,note_on,0,0,0,,2,,,74,127
25302,note_on,0,0,0,,5,,,65,127
25501,note_off,199,0,0,,5,,,65,127
25501,note_off,0,0,0,,2,,,74,127
25502,note_on,1,0,0,,1,,,73,127
25502,note_on,0,0,0,,4,,,64,127
25701,note_off,199,0,0,,4,,,64,127
25701,note_off,0,0,0,,1,,,73,127
25702,note_on,1,0,0,,5,,,65,127
25702,note_on,0,0,0,,2,,,74,127
25901,note_off,199,0,0,,2,,,74,127
25901,note_off,0,0,0,,5,,,65,127
25901,note_off,0,0,0,,2,,,38,127
25902,note_on,1,0,0,,10,,,81,127
25902,note_on,0,0,0,,4,,,64,127
25902,note_on,0,0,0,,1,,,73,127
26101,note_off,199,0,0,,1,,,73,127
26101,note_off,0,0,0,,4,,,64,127
26101,note_off,0,0,0,,10,,,81,127
26102,note_on,1,0,0,,10,,,57,127
26102,note_on,0,0,0,,2,,,74,127
26102,note_on,0,0,0,,5,,,65,127
26301,note_off,199,0,0,,5,,,65,127
26301,note_off,0,0,0,,2,,,74,127
26301,note_off,0,0,0,,10,,,57,127
26302,note_on,1,0,0,,10,,,45,127
26302,note_on,0,0,0,,4,,,76,127
26302,note_on,0,0,0,,7,,,67,127
26501,note_off,199,0,0,,7,,,67,127
26501,note_off,0,0,0,,4,,,76,127
26501,note_off,0,0,0,,10,,,45,127
26502,note_on,1,0,0,,2,,,38,127
26502,note_on,0,0,0,,5,,,65,127
26502,note_on,0,0,0,,2,,,74,127
26701,note_off,199,0,0,,2,,,74,127
26701,note_off,0,0,0,,5,,,65,127
26702,note_on,1,0,0,,4,,,76,127
26702,note_on,0,0,0,,7,,,67,127
26901,note_off,199,0,0,,7,,,67,127
26901,note_off,0,0,0,,4,,,76,127
26902,note_on,1,0,0,,10,,,69,127
26902,note_on,0,0,0,,5,,,77,127
27101,note_off,199,0,0,,5,,,77,127
27101,note_off,0,0,0,,10,,,69,127
27101,note_off,0,0,0,,2,,,38,127
27102,note_on,1,0,0,,11,,,58,127
27102,note_on,0,0,0,,7,,,55,127
27102,note_on,0,0,0,,4,,,64,127
27102,note_on,0,0,0,,2,,,62,127
27102,note_on,0,0,0,,7,,,79,127
27102,note_on,0,0,0,,11,,,70,127
27301,note_off,199,0,0,,7,,,79,127
27302,note_on,1,0,0,,4,,,76,127
27501,note_off,199,0,0,,4,,,76,127
27501,note_off,0,0,0,,11,,,70,127
27501,note_off,0,0,0,,2,,,62,127
27501,note_off,0,0,0,,4,,,64,127
27501,note_off,0,0,0,,7,,,55,127
27501,note_off,0,0,0,,11,,,58,127
27502,note_on,1,0,0,,1,,,61,127
27502,note_on,0,0,0,,10,,,57,127
27502,note_on,0,0,0,,4,,,64,127
27502,note_on,0,0,0,,2,,,62,127
27502,note_on,0,0,0,,1,,,73,127
27701,note_off,199,0,0,,1,,,73,127
27701,note_off,0,0,0,,2,,,62,127
27701,note_off,0,0,0,,4,,,64,127
27701,note_off,0,0,0,,10,,,57,127
27701,note_off,0,0,0,,1,,,61,127
27702,note_on,1,0,0,,5,,,53,127
27702,note_on,0,0,0,,2,,,62,127
27702,note_on,0,0,0,,10,,,57,127
27702,note_on,0,0,0,,2,,,74,127
27901,note_off,199,0,0,,2,,,74,127
27902,note_on,1,0,0,,10,,,69,127
28101,note_off,199,0,0,,10,,,69,127
28101,note_off,0,0,0,,10,,,57,127
28101,note_off,0,0,0,,2,,,62,127
28101,note_off,0,0,0,,5,,,53,127
28102,note_on,1,0,0,,11,,,58,127
28102,note_on,0,0,0,,7,,,55,127
28102,note_on,0,0,0,,11,,,82,127
28301,note_off,199,0,0,,11,,,82,127
28301,note_off,0,0,0,,7,,,55,127
28301,note_off,0,0,0,,11,,,58,127
28302,note_on,1,0,0,,10,,,57,127
28302,note_on,0,0,0,,10,,,81,127
28401,note_off,99,0,0,,10,,,81,127
28402,note_on,1,0,0,,7,,,79,127
28501,note_off,99,0,0,,7,,,79,127
28502,note_on,1,0,0,,5,,,77,127
28601,note_off,99,0,0,,5,,,77,127
28602,note_on,1,0,0,,4,,,76,127
28701,note_off,99,0,0,,4,,,76,127
28702,note_on,1,0,0,,10,,,45,127
28702,note_on,0,0,0,,2,,,74,127
28801,note_off,99,0,0,,2,,,74,127
28802,note_off,1,0,0,,10,,,57,127
28802,note_on,0,0,0,,1,,,73,127
28901,note_off,99,0,0,,1,,,73,127
28901,note_off,0,0,0,,10,,,45,127
28902,note_on,1,0,0,,2,,,38,127
28902,note_on,0,0,0,,1,,,73,127
29302,note_off,400,0,0,,1,,,73,127
29303,note_on,1,0,0,,2,,,74,127
29477,note_off,174,0,0,,2,,,74,127
29502,note_off,25,0,0,,2,,,38,127
29503,note_on,1,0,0,,4,,,64,127
29503,note_on,0,0,0,,1,,,61,127
29503,note_on,0,0,0,,10,,,81,127
29702,note_off,199,0,0,,10,,,81,127
29702,note_off,0,0,0,,4,,,64,127
29703,note_on,1,0,0,,10,,,69,127
29703,note_on,0,0,0,,10,,,57,127
29902,note_off,199,0,0,,10,,,57,127
29902,note_off,0,0,0,,10,,,69,127
29902,note_off,0,0,0,,1,,,61,127
29903,note_on,1,0,0,,4,,,64,127
29903,note_on,0,0,0,,1,,,61,127
29903,note_on,0,0,0,,7,,,67,127
29903,note_on,0,0,0,,10,,,45,127
30102,note_off,199,0,0,,10,,,45,127
30102,note_off,0,0,0,,7,,,67,127
30102,note_off,0,0,0,,1,,,61,127
30102,note_off,0,0,0,,4,,,64,127
30103,note_on,1,0,0,,7,,,67,127
30103,note_on,0,0,0,,2,,,62,127
30103,note_on,0,0,0,,2,,,38,127
30202,note_off,99,0,0,,7,,,67,127
30203,note_on,1,0,0,,5,,,65,127
30302,note_off,99,0,0,,5,,,65,127
30302,note_off,0,0,0,,2,,,62,127
30303,note_on,1,0,0,,4,,,64,127
30502,note_off,199,0,0,,4,,,64,127
30503,note_on,1,0,0,,2,,,62,127
30702,note_off,199,0,0,,2,,,62,127
30702,note_off,0,0,0,,2,,,38,127
30703,note_on,1,0,0,,1,,,61,127
30703,note_on,0,0,0,,4,,,64,127
30703,note_on,0,0,0,,10,,,81,127
30902,note_off,199,0,0,,10,,,81,127
30902,note_off,0,0,0,,4,,,64,127
30903,note_on,1,0,0,,10,,,69,127
30903,note_on,0,0,0,,10,,,57,127
31102,note_off,199,0,0,,10,,,57,127
31102,note_off,0,0,0,,10,,,69,127
31102,note_off,0,0,0,,1,,,61,127
31103,note_on,1,0,0,,1,,,61,127
31103,note_on,0,0,0,,7,,,67,127
31103,note_on,0,0,0,,4,,,64,127
31103,note_on,0,0,0,,10,,,45,127
31302,note_off,199,0,0,,10,,,45,127
31302,note_off,0,0,0,,4,,,64,127
31302,note_off,0,0,0,,7,,,67,127
31302,note_off,0,0,0,,1,,,61,127
31303,note_on,1,0,0,,2,,,62,127
31303,note_on,0,0,0,,7,,,67,127
31303,note_on,0,0,0,,2,,,38,127
31402,note_off,99,0,0,,7,,,67,127
31403,note_on,1,0,0,,5,,,65,127
31502,note_off,99,0,0,,5,,,65,127
31502,note_off,0,0,0,,2,,,62,127
31503,note_on,1,0,0,,4,,,64,127
31702,note_off,199,0,0,,4,,,64,127
31703,note_on,1,0,0,,2,,,62,127
31902,note_off,199,0,0,,2,,,62,127
31902,note_off,0,0,0,,2,,,38,127
31903,note_on,1,0,0,,1,,,61,127
31903,note_on,0,0,0,,4,,,64,127
31903,note_on,0,0,0,,10,,,81,127
32102,note_off,199,0,0,,10,,,81,127
32102,note_off,0,0,0,,4,,,64,127
32103,note_on,1,0,0,,10,,,69,127
32103,note_on,0,0,0,,10,,,57,127
32302,note_off,199,0,0,,10,,,57,127
32302,note_off,0,0,0,,10,,,69,127
32302,note_off,0,0,0,,1,,,61,127
32303,note_on,1,0,0,,1,,,61,127
32303,note_on,0,0,0,,7,,,67,127
32303,note_on,0,0,0,,4,,,64,127
32303,note_on,0,0,0,,10,,,45,127
32502,note_off,199,0,0,,10,,,45,127
32502,note_off,0,0,0,,4,,,64,127
32502,note_off,0,0,0,,7,,,67,127
32502,note_off,0,0,0,,1,,,61,127
32503,note_on,1,0,0,,7,,,67,127
32503,note_on,0,0,0,,2,,,62,127
32503,note_on,0,0,0,,2,,,38,127
32602,note_off,99,0,0,,7,,,67,127
32603,note_on,1,0,0,,5,,,65,127
32702,note_off,99,0,0,,5,,,65,127
32702,note_off,0,0,0,,2,,,62,127
32703,note_on,1,0,0,,4,,,64,127
32902,note_off,199,0,0,,4,,,64,127
32903,note_on,1,0,0,,2,,,62,127
33094,note_off,191,0,0,,2,,,62,127
33102,note_off,8,0,0,,2,,,38,127
33103,note_on,1,0,0,,7,,,55,127
33103,note_on,0,0,0,,11,,,58,127
33103,note_on,0,0,0,,2,,,62,127
33103,note_on,0,0,0,,4,,,64,127
33103,note_on,0,0,0,,7,,,79,127
33103,note_on,0,0,0,,11,,,70,127
33302,note_off,199,0,0,,11,,,70,127
33302,note_off,0,0,0,,7,,,79,127
33303,note_on,1,0,0,,4,,,76,127
33502,note_off,199,0,0,,4,,,76,127
33502,note_off,0,0,0,,4,,,64,127
33502,note_off,0,0,0,,2,,,62,127
33502,note_off,0,0,0,,11,,,58,127
33502,note_off,0,0,0,,7,,,55,127
33503,note_on,1,0,0,,1,,,61,127
33503,note_on,0,0,0,,10,,,57,127
33503,note_on,0,0,0,,4,,,64,127
33503,note_on,0,0,0,,2,,,62,127
33503,note_on,0,0,0,,1,,,73,127
33702,note_off,199,0,0,,1,,,73,127
33702,note_off,0,0,0,,2,,,62,127
33702,note_off,0,0,0,,4,,,64,127
33702,note_off,0,0,0,,10,,,57,127
33702,note_off,0,0,0,,1,,,61,127
33703,note_on,1,0,0,,10,,,57,127
33703,note_on,0,0,0,,5,,,53,127
33703,note_on,0,0,0,,2,,,62,127
33703,note_on,0,0,0,,2,,,74,127
33902,note_off,199,0,0,,2,,,74,127
33903,note_on,1,0,0,,10,,,69,127
34102,note_off,199,0,0,,10,,,69,127
34102,note_off,0,0,0,,2,,,62,127
34102,note_off,0,0,0,,5,,,53,127
34102,note_off,0,0,0,,10,,,57,127
34103,note_on,1,0,0,,11,,,58,127
34103,note_on,0,0,0,,7,,,55,127
34103,note_on,0,0,0,,11,,,82,127
34302,note_off,199,0,0,,11,,,82,127
34302,note_off,0,0,0,,7,,,55,127
34302,note_off,0,0,0,,11,,,58,127
34303,note_on,1,0,0,,10,,,57,127
34303,note_on,0,0,0,,10,,,81,127
34402,note_off,99,0,0,,10,,,81,127
34403,note_on,1,0,0,,7,,,79,127
34502,note_off,99,0,0,,7,,,79,127
34503,note_on,1,0,0,,5,,,77,127
34602,note_off,99,0,0,,5,,,77,127
34603,note_on,1,0,0,,4,,,76,127
34702,note_off,99,0,0,,4,,,76,127
34702,note_off,0,0,0,,10,,,57,127
34703,note_on,1,0,0,,10,,,45,127
34703,note_on,0,0,0,,2,,,74,127
34802,note_off,99,0,0,,2,,,74,127
34803,note_on,1,0,0,,1,,,73,127
34902,note_off,99,0,0,,1,,,73,127
34902,note_off,0,0,0,,10,,,45,127
34903,note_on,1,0,0,,2,,,50,127
34903,note_on,0,0,0,,5,,,41,127
34903,note_on,0,0,0,,2,,,74,127
35102,note_off,199,0,0,,2,,,74,127
35103,note_on,1,0,0,,10,,,69,127
35302,note_off,199,0,0,,10,,,69,127
35302,note_off,0,0,0,,5,,,41,127
35303,note_on,1,0,0,,7,,,43,127
35303,note_on,0,0,0,,11,,,70,127
35502,note_off,199,0,0,,11,,,70,127
35502,note_off,0,0,0,,7,,,43,127
35503,note_on,1,0,0,,10,,,45,127
35503,note_on,0,0,0,,10,,,69,127
35602,note_off,99,0,0,,10,,,69,127
35603,note_on,1,0,0,,7,,,67,127
35702,note_off,99,0,0,,7,,,67,127
35702,note_off,0,0,0,,2,,,50,127
35703,note_on,1,0,0,,5,,,65,127
35802,note_off,99,0,0,,5,,,65,127
35803,note_on,1,0,0,,4,,,64,127
35902,note_off,99,0,0,,4,,,64,127
35902,note_off,0,0,0,,10,,,45,127
35903,note_on,1,0,0,,10,,,45,127
35903,note_on,0,0,0,,2,,,62,127
36002,note_off,99,0,0,,2,,,62,127
36003,note_on,1,0,0,,1,,,61,127
36102,note_off,99,0,0,,1,,,61,127
36102,note_off,0,0,0,,10,,,45,127
36103,note_on,1,0,0,,2,,,38,127
36103,note_on,0,0,0,,1,,,61,127
36503,note_off,400,0,0,,1,,,61,127
36504,note_on,1,0,0,,2,,,62,127
36693,note_off,189,0,0,,2,,,62,127
36703,note_off,10,0,0,,2,,,38,127
36704,note_on,1,0,0,,11,,,82,127
36704,note_on,0,0,0,,5,,,65,127
36704,note_on,0,0,0,,2,,,74,127
36704,note_on,0,0,0,,11,,,70,127
36903,note_off,199,0,0,,11,,,70,127
36903,note_off,0,0,0,,2,,,74,127
36903,note_off,0,0,0,,11,,,82,127
36904,note_on,1,0,0,,11,,,58,127
36904,note_on,0,0,0,,0,,,72,127
36904,note_on,0,0,0,,3,,,75,127
37103,note_off,199,0,0,,3,,,75,127
37103,note_off,0,0,0,,0,,,72,127
37103,note_off,0,0,0,,11,,,58,127
37104,note_on,1,0,0,,11,,,46,127
37104,note_on,0,0,0,,5,,,77,127
37104,note_on,0,0,0,,2,,,74,127
37303,note_off,199,0,0,,2,,,74,127
37303,note_off,0,0,0,,5,,,77,127
37303,note_off,0,0,0,,11,,,46,127
37303,note_off,0,0,0,,5,,,65,127
37304,note_on,1,0,0,,3,,,51,127
37304,note_on,0,0,0,,7,,,67,127
37304,note_on,0,0,0,,7,,,79,127
37304,note_on,0,0,0,,3,,,75,127
37503,note_off,199,0,0,,3,,,75,127
37503,note_off,0,0,0,,7,,,79,127
37504,note_on,1,0,0,,5,,,77,127
37703,note_off,199,0,0,,5,,,77,127
37704,note_on,1,0,0,,3,,,75,127
37903,note_off,199,0,0,,3,,,75,127
37903,note_off,0,0,0,,7,,,67,127
37903,note_off,0,0,0,,3,,,51,127
37904,note_on,1,0,0,,11,,,82,127
37904,note_on,0,0,0,,5,,,65,127
37904,note_on,0,0,0,,2,,,74,127
37904,note_on,0,0,0,,11,,,70,127
38103,note_off,199,0,0,,11,,,70,127
38103,note_off,0,0,0,,2,,,74,127
38103,note_off,0,0,0,,11,,,82,127
38104,note_on,1,0,0,,11,,,58,127
38104,note_on,0,0,0,,5,,,77,127
38303,note_off,199,0,0,,5,,,77,127
38303,note_off,0,0,0,,11,,,58,127
38304,note_on,1,0,0,,11,,,46,127
38304,note_on,0,0,0,,2,,,74,127
38503,note_off,199,0,0,,2,,,74,127
38503,note_off,0,0,0,,11,,,46,127
38503,note_off,0,0,0,,5,,,65,127
38504,note_on,1,0,0,,5,,,53,127
38504,note_on,0,0,0,,0,,,72,127
38504,note_on,0,0,0,,2,,,74,127
38504,note_on,0,0,0,,5,,,65,127
38703,note_off,199,0,0,,2,,,74,127
38703,note_off,0,0,0,,0,,,72,127
38704,note_on,1,0,0,,11,,,70,127
38903,note_off,199,0,0,,11,,,70,127
38904,note_on,1,0,0,,10,,,69,127
39103,note_off,199,0,0,,10,,,69,127
39103,note_off,0,0,0,,5,,,65,127
39103,note_off,0,0,0,,5,,,53,127
39104,note_on,1,0,0,,11,,,82,127
39104,note_on,0,0,0,,2,,,74,127
39104,note_on,0,0,0,,11,,,70,127
39104,note_on,0,0,0,,5,,,65,127
39303,note_off,199,0,0,,11,,,70,127
39303,note_off,0,0,0,,2,,,74,127
39303,note_off,0,0,0,,11,,,82,127
39304,note_on,1,0,0,,11,,,58,127
39304,note_on,0,0,0,,3,,,75,127
39304,note_on,0,0,0,,0,,,72,127
39503,note_off,199,0,0,,0,,,72,127
39503,note_off,0,0,0,,3,,,75,127
39503,note_off,0,0,0,,11,,,58,127
39504,note_on,1,0,0,,11,,,46,127
39504,note_on,0,0,0,,2,,,74,127
39504,note_on,0,0,0,,5,,,77,127
39703,note_off,199,0,0,,5,,,77,127
39703,note_off,0,0,0,,2,,,74,127
39703,note_off,0,0,0,,11,,,46,127
39703,note_off,0,0,0,,5,,,65,127
39704,note_on,1,0,0,,3,,,51,127
39704,note_on,0,0,0,,3,,,75,127
39704,note_on,0,0,0,,7,,,67,127
39704,note_on,0,0,0,,7,,,79,127
39903,note_off,199,0,0,,7,,,79,127
39903,note_off,0,0,0,,3,,,75,127
39904,note_on,1,0,0,,5,,,77,127
40103,note_off,199,0,0,,5,,,77,127
40104,note_on,1,0,0,,3,,,75,127
40303,note_off,199,0,0,,3,,,75,127
40303,note_off,0,0,0,,7,,,67,127
40303,note_off,0,0,0,,3,,,51,127
40304,note_on,1,0,0,,11,,,82,127
40304,note_on,0,0,0,,2,,,74,127
40304,note_on,0,0,0,,11,,,70,127
40304,note_on,0,0,0,,5,,,65,127
40503,note_off,199,0,0,,11,,,70,127
40503,note_off,0,0,0,,2,,,74,127
40503,note_off,0,0,0,,11,,,82,127
40504,note_on,1,0,0,,11,,,58,127
40504,note_on,0,0,0,,5,,,77,127
40703,note_off,199,0,0,,5,,,77,127
40703,note_off,0,0,0,,11,,,58,127
40704,note_on,1,0,0,,11,,,46,127
40704,note_on,0,0,0,,2,,,74,127
40903,note_off,199,0,0,,2,,,74,127
40903,note_off,0,0,0,,11,,,46,127
40903,note_off,0,0,0,,5,,,65,127
40904,note_on,1,0,0,,5,,,53,127
40904,note_on,0,0,0,,2,,,74,127
41037,note_off,133,0,0,,2,,,74,127
41038,note_on,1,0,0,,0,,,72,127
41104,note_off,66,0,0,,0,,,72,127
41105,note_on,1,0,0,,2,,,74,127
41171,note_off,66,0,0,,2,,,74,127
41172,note_on,1,0,0,,0,,,72,127
41238,note_off,66,0,0,,0,,,72,127
41239,note_on,1,0,0,,2,,,74,127
41305,note_off,66,0,0,,2,,,74,127
41306,note_on,1,0,0,,0,,,72,127
41479,note_off,173,0,0,,0,,,72,127
41505,note_off,26,0,0,,5,,,53,127
41506,note_on,1,0,0,,5,,,65,127
41506,note_on,0,0,0,,5,,,77,127
41705,note_off,199,0,0,,5,,,77,127
41706,note_on,1,0,0,,0,,,72,127
41905,note_off,199,0,0,,0,,,72,127
41905,note_off,0,0,0,,5,,,65,127
41906,note_on,1,0,0,,7,,,67,127
41906,note_on,0,0,0,,4,,,64,127
41906,note_on,0,0,0,,0,,,84,127
42105,note_off,199,0,0,,0,,,84,127
42105,note_off,0,0,0,,4,,,64,127
42105,note_off,0,0,0,,7,,,67,127
42106,note_on,1,0,0,,8,,,68,127
42106,note_on,0,0,0,,5,,,65,127
42106,note_on,0,0,0,,8,,,80,127
42305,note_off,199,0,0,,8,,,80,127
42305,note_off,0,0,0,,5,,,65,127
42305,note_off,0,0,0,,8,,,68,127
42306,note_on,1,0,0,,3,,,63,127
42306,note_on,0,0,0,,7,,,67,127
42306,note_on,0,0,0,,7,,,79,127
42505,note_off,199,0,0,,7,,,79,127
42505,note_off,0,0,0,,7,,,67,127
42505,note_off,0,0,0,,3,,,63,127
42506,note_on,1,0,0,,5,,,65,127
42506,note_on,0,0,0,,1,,,61,127
42506,note_on,0,0,0,,5,,,77,127
42705,note_off,199,0,0,,5,,,77,127
42705,note_off,0,0,0,,1,,,61,127
42705,note_off,0,0,0,,5,,,65,127
42706,note_on,1,0,0,,0,,,60,127
42706,note_on,0,0,0,,7,,,67,127
42706,note_on,0,0,0,,7,,,79,127
42905,note_off,199,0,0,,7,,,79,127
42906,note_on,1,0,0,,0,,,72,127
43105,note_off,199,0,0,,0,,,72,127
43105,note_off,0,0,0,,7,,,67,127
43105,note_off,0,0,0,,0,,,60,127
43106,note_on,1,0,0,,7,,,67,127
43106,note_on,0,0,0,,4,,,64,127
43106,note_on,0,0,0,,0,,,84,127
43305,note_off,199,0,0,,0,,,84,127
43305,note_off,0,0,0,,4,,,64,127
43305,note_off,0,0,0,,7,,,67,127
43306,note_on,1,0,0,,5,,,65,127
43306,note_on,0,0,0,,8,,,68,127
43306,note_on,0,0,0,,8,,,80,127
43505,note_off,199,0,0,,8,,,80,127
43505,note_off,0,0,0,,8,,,68,127
43505,note_off,0,0,0,,5,,,65,127
43506,note_on,1,0,0,,7,,,67,127
43506,note_on,0,0,0,,3,,,63,127
43506,note_on,0,0,0,,7,,,79,127
43705,note_off,199,0,0,,7,,,79,127
43705,note_off,0,0,0,,3,,,63,127
43705,note_off,0,0,0,,7,,,67,127
43706,note_on,1,0,0,,1,,,61,127
43706,note_on,0,0,0,,5,,,65,127
43706,note_on,0,0,0,,5,,,77,127
43905,note_off,199,0,0,,5,,,77,127
43905,note_off,0,0,0,,5,,,65,127
43905,note_off,0,0,0,,1,,,61,127
43906,note_on,1,0,0,,7,,,67,127
43906,note_on,0,0,0,,0,,,60,127
43906,note_on,0,0,0,,4,,,76,127
44105,note_off,199,0,0,,4,,,76,127
44106,note_on,1,0,0,,7,,,79,127
44156,note_on,50,0,0,,5,,,77,127
44171,note_off,15,0,0,,7,,,79,127
44206,note_on,35,0,0,,4,,,76,127
44221,note_off,15,0,0,,5,,,77,127
44256,note_on,35,0,0,,5,,,77,127
44271,note_off,15,0,0,,4,,,76,127
44306,note_on,35,0,0,,7,,,79,127
44321,note_off,15,0,0,,5,,,77,127
44457,note_off,136,0,0,,7,,,79,127
44480,note_off,23,0,0,,7,,,67,127
44506,note_off,26,0,0,,0,,,60,127
44507,note_on,1,0,0,,0,,,84,127
44507,note_on,0,0,0,,7,,,67,127
44507,note_on,0,0,0,,4,,,76,127
44706,note_off,199,0,0,,4,,,76,127
44706,note_off,0,0,0,,7,,,67,127
44706,note_off,0,0,0,,0,,,84,127
44707,note_on,1,0,0,,0,,,60,127
44707,note_on,0,0,0,,5,,,77,127
44707,note_on,0,0,0,,8,,,68,127
44906,note_off,199,0,0,,8,,,68,127
44906,note_off,0,0,0,,5,,,77,127
44906,note_off,0,0,0,,0,,,60,127
44907,note_on,1,0,0,,0,,,48,127
44907,note_on,0,0,0,,11,,,70,127
44907,note_on,0,0,0,,7,,,79,127
45106,note_off,199,0,0,,7,,,79,127
45106,note_off,0,0,0,,11,,,70,127
45106,note_off,0,0,0,,0,,,48,127
45107,note_on,1,0,0,,5,,,53,127
45107,note_on,0,0,0,,8,,,68,127
45107,note_on,0,0,0,,5,,,77,127
45306,note_off,199,0,0,,5,,,77,127
45306,note_off,0,0,0,,8,,,68,127
45307,note_on,1,0,0,,7,,,67,127
45307,note_on,0,0,0,,4,,,76,127
45506,note_off,199,0,0,,4,,,76,127
45506,note_off,0,0,0,,7,,,67,127
45507,note_on,1,0,0,,5,,,77,127
45507,note_on,0,0,0,,8,,,68,127
45706,note_off,199,0,0,,8,,,68,127
45706,note_off,0,0,0,,5,,,77,127
45706,note_off,0,0,0,,5,,,53,127
45707,note_on,1,0,0,,0,,,84,127
45707,note_on,0,0,0,,4,,,76,127
45707,note_on,0,0,0,,7,,,67,127
45906,note_off,199,0,0,,7,,,67,127
45906,note_off,0,0,0,,4,,,76,127
45906,note_off,0,0,0,,0,,,84,127
45907,note_on,1,0,0,,0,,,60,127
45907,note_on,0,0,0,,8,,,68,127
45907,note_on,0,0,0,,5,,,77,127
46106,note_off,199,0,0,,5,,,77,127
46106,note_off,0,0,0,,8,,,68,127
46106,note_off,0,0,0,,0,,,60,127
46107,note_on,1,0,0,,0,,,48,127
46107,note_on,0,0,0,,11,,,70,127
46107,note_on,0,0,0,,7,,,79,127
46306,note_off,199,0,0,,7,,,79,127
46306,note_off,0,0,0,,11,,,70,127
46306,note_off,0,0,0,,0,,,48,127
46307,note_on,1,0,0,,5,,,53,127
46307,note_on,0,0,0,,8,,,68,127
46307,note_on,0,0,0,,5,,,77,127
46506,note_off,199,0,0,,5,,,77,127
46506,note_off,0,0,0,,8,,,68,127
46507,note_on,1,0,0,,4,,,76,127
46507,note_on,0,0,0,,7,,,67,127
46706,note_off,199,0,0,,7,,,67,127
46706,note_off,0,0,0,,4,,,76,127
46707,note_on,1,0,0,,5,,,77,127
46707,note_on,0,0,0,,8,,,68,127
46906,note_off,199,0,0,,8,,,68,127
46906,note_off,0,0,0,,5,,,77,127
46906,note_off,0,0,0,,5,,,53,127
46907,note_on,1,0,0,,11,,,82,127
46907,note_on,0,0,0,,5,,,65,127
46907,note_on,0,0,0,,2,,,74,127
47106,note_off,199,0,0,,2,,,74,127
47106,note_off,0,0,0,,5,,,65,127
47106,note_off,0,0,0,,11,,,82,127
47107,note_on,1,0,0,,11,,,58,127
47107,note_on,0,0,0,,3,,,75,127
47107,note_on,0,0,0,,7,,,67,127
47306,note_off,199,0,0,,7,,,67,127
47306,note_off,0,0,0,,3,,,75,127
47306,note_off,0,0,0,,11,,,58,127
47307,note_on,1,0,0,,11,,,46,127
47307,note_on,0,0,0,,5,,,77,127
47307,note_on,0,0,0,,8,,,68,127
47506,note_off,199,0,0,,8,,,68,127
47506,note_off,0,0,0,,5,,,77,127
47506,note_off,0,0,0,,11,,,46,127
47507,note_on,1,0,0,,3,,,51,127
47507,note_on,0,0,0,,3,,,75,127
47507,note_on,0,0,0,,7,,,67,127
47706,note_off,199,0,0,,7,,,67,127
47706,note_off,0,0,0,,3,,,75,127
47707,note_on,1,0,0,,2,,,74,127
47707,note_on,0,0,0,,5,,,65,127
47906,note_off,199,0,0,,5,,,65,127
47906,note_off,0,0,0,,2,,,74,127
47907,note_on,1,0,0,,3,,,75,127
47907,note_on,0,0,0,,7,,,67,127
48106,note_off,199,0,0,,7,,,67,127
48106,note_off,0,0,0,,3,,,75,127
48106,note_off,0,0,0,,3,,,51,127
48107,note_on,1,0,0,,11,,,82,127
48107,note_on,0,0,0,,5,,,65,127
48107,note_on,0,0,0,,2,,,74,127
48306,note_off,199,0,0,,2,,,74,127
48306,note_off,0,0,0,,5,,,65,127
48306,note_off,0,0,0,,11,,,82,127
48307,note_on,1,0,0,,11,,,58,127
48307,note_on,0,0,0,,7,,,67,127
48307,note_on,0,0,0,,3,,,75,127
48506,note_off,199,0,0,,3,,,75,127
48506,note_off,0,0,0,,7,,,67,127
48506,note_off,0,0,0,,11,,,58,127
48507,note_on,1,0,0,,11,,,46,127
48507,note_on,0,0,0,,8,,,68,127
48507,note_on,0,0,0,,5,,,77,127
48706,note_off,199,0,0,,5,,,77,127
48706,note_off,0,0,0,,8,,,68,127
48706,note_off,0,0,0,,11,,,46,127
48707,note_on,1,0,0,,3,,,51,127
48707,note_on,0,0,0,,3,,,75,127
48707,note_on,0,0,0,,7,,,67,127
48906,note_off,199,0,0,,7,,,67,127
48906,note_off,0,0,0,,3,,,75,127
48907,note_on,1,0,0,,5,,,65,127
48907,note_on,0,0,0,,2,,,74,127
49106,note_off,199,0,0,,2,,,74,127
49106,note_off,0,0,0,,5,,,65,127
49107,note_on,1,0,0,,3,,,75,127
49107,note_on,0,0,0,,7,,,67,127
49306,note_off,199,0,0,,7,,,67,127
49306,note_off,0,0,0,,3,,,75,127
49306,note_off,0,0,0,,3,,,51,127
49307,note_on,1,0,0,,11,,,82,127
49307,note_on,0,0,0,,11,,,70,127
49307,note_on,0,0,0,,1,,,73,127
49506,note_off,199,0,0,,1,,,73,127
49506,note_off,0,0,0,,11,,,70,127
49506,note_off,0,0,0,,11,,,82,127
49507,note_on,1,0,0,,3,,,51,127
49507,note_on,0,0,0,,0,,,72,127
49507,note_on,0,0,0,,8,,,68,127
49706,note_off,199,0,0,,8,,,68,127
49706,note_off,0,0,0,,0,,,72,127
49706,note_off,0,0,0,,3,,,51,127
49707,note_on,1,0,0,,3,,,39,127
49707,note_on,0,0,0,,11,,,70,127
49707,note_on,0,0,0,,1,,,73,127
49906,note_off,199,0,0,,1,,,73,127
49906,note_off,0,0,0,,11,,,70,127
49906,note_off,0,0,0,,3,,,39,127
49907,note_on,1,0,0,,8,,,44,127
49907,note_on,0,0,0,,0,,,72,127
49907,note_on,0,0,0,,8,,,68,127
50106,note_off,199,0,0,,8,,,68,127
50106,note_off,0,0,0,,0,,,72,127
50107,note_on,1,0,0,,11,,,70,127
50107,note_on,0,0,0,,7,,,67,127
50306,note_off,199,0,0,,7,,,67,127
50306,note_off,0,0,0,,11,,,70,127
50307,note_on,1,0,0,,0,,,72,127
50307,note_on,0,0,0,,8,,,68,127
50506,note_off,199,0,0,,8,,,68,127
50506,note_off,0,0,0,,0,,,72,127
50506,note_off,0,0,0,,8,,,44,127
50507,note_on,1,0,0,,11,,,82,127
50507,note_on,0,0,0,,1,,,73,127
50507,note_on,0,0,0,,11,,,70,127
50706,note_off,199,0,0,,11,,,70,127
50706,note_off,0,0,0,,1,,,73,127
50706,note_off,0,0,0,,11,,,82,127
50707,note_on,1,0,0,,3,,,51,127
50707,note_on,0,0,0,,0,,,72,127
50707,note_on,0,0,0,,8,,,68,127
50906,note_off,199,0,0,,8,,,68,127
50906,note_off,0,0,0,,0,,,72,127
50906,note_off,0,0,0,,3,,,51,127
50907,note_on,1,0,0,,3,,,39,127
50907,note_on,0,0,0,,11,,,70,127
50907,note_on,0,0,0,,1,,,73,127
51106,note_off,199,0,0,,1,,,73,127
51106,note_off,0,0,0,,11,,,70,127
51106,note_off,0,0,0,,3,,,39,127
51107,note_on,1,0,0,,8,,,44,127
51107,note_on,0,0,0,,8,,,68,127
51107,note_on,0,0,0,,0,,,72,127
51306,note_off,199,0,0,,0,,,72,127
51306,note_off,0,0,0,,8,,,68,127
51307,note_on,1,0,0,,11,,,70,127
51307,note_on,0,0,0,,7,,,67,127
51506,note_off,199,0,0,,7,,,67,127
51506,note_off,0,0,0,,11,,,70,127
51507,note_on,1,0,0,,0,,,72,127
51507,note_on,0,0,0,,8,,,68,127
51695,note_off,188,0,0,,8,,,68,127
51695,note_off,0,0,0,,0,,,72,127
51706,note_off,11,0,0,,8,,,44,127
51707,note_on,1,0,0,,5,,,77,127
51707,note_on,0,0,0,,0,,,72,127
51707,note_on,0,0,0,,10,,,69,127
51906,note_off,199,0,0,,10,,,69,127
51906,note_off,0,0,0,,0,,,72,127
51906,note_off,0,0,0,,5,,,77,127
51907,note_on,1,0,0,,5,,,53,127
51907,note_on,0,0,0,,11,,,70,127
51907,note_on,0,0,0,,2,,,74,127
52106,note_off,199,0,0,,2,,,74,127
52106,note_off,0,0,0,,11,,,70,127
52106,note_off,0,0,0,,5,,,53,127
52107,note_on,1,0,0,,5,,,41,127
52107,note_on,0,0,0,,3,,,75,127
52107,note_on,0,0,0,,0,,,72,127
52306,note_off,199,0,0,,0,,,72,127
52306,note_off,0,0,0,,3,,,75,127
52306,note_off,0,0,0,,5,,,41,127
52307,note_on,1,0,0,,11,,,46,127
52307,note_on,0,0,0,,2,,,74,127
52307,note_on,0,0,0,,11,,,70,127
52506,note_off,199,0,0,,11,,,70,127
52506,note_off,0,0,0,,2,,,74,127
52507,note_on,1,0,0,,10,,,69,127
52507,note_on,0,0,0,,0,,,72,127
52706,note_off,199,0,0,,0,,,72,127
52706,note_off,0,0,0,,10,,,69,127
52707,note_on,1,0,0,,2,,,74,127
52707,note_on,0,0,0,,11,,,70,127
52906,note_off,199,0,0,,11,,,70,127
52906,note_off,0,0,0,,2,,,74,127
52906,note_off,0,0,0,,11,,,46,127
52907,note_on,1,0,0,,7,,,79,127
52907,note_on,0,0,0,,2,,,74,127
52907,note_on,0,0,0,,12,,,71,127
53106,note_off,199,0,0,,12,,,71,127
53106,note_off,0,0,0,,2,,,74,127
53106,note_off,0,0,0,,7,,,79,127
53107,note_on,1,0,0,,7,,,55,127
53107,note_on,0,0,0,,0,,,72,127
53107,note_on,0,0,0,,3,,,75,127
53306,note_off,199,0,0,,3,,,75,127
53306,note_off,0,0,0,,0,,,72,127
53306,note_off,0,0,0,,7,,,55,127
53307,note_on,1,0,0,,7,,,43,127
53307,note_on,0,0,0,,5,,,77,127
53307,note_on,0,0,0,,2,,,74,127
53506,note_off,199,0,0,,2,,,74,127
53506,note_off,0,0,0,,5,,,77,127
53506,note_off,0,0,0,,7,,,43,127
53507,note_on,1,0,0,,0,,,48,127
53507,note_on,0,0,0,,3,,,75,127
53507,note_on,0,0,0,,0,,,72,127
53706,note_off,199,0,0,,0,,,72,127
53706,note_off,0,0,0,,3,,,75,127
53707,note_on,1,0,0,,2,,,74,127
53707,note_on,0,0,0,,12,,,71,127
53906,note_off,199,0,0,,12,,,71,127
53906,note_off,0,0,0,,2,,,74,127
53907,note_on,1,0,0,,4,,,76,127
53907,note_on,0,0,0,,0,,,72,127
54095,note_off,188,0,0,,0,,,72,127
54095,note_off,0,0,0,,4,,,76,127
54106,note_off,11,0,0,,0,,,48,127
54107,note_on,1,0,0,,10,,,81,127
54107,note_on,0,0,0,,4,,,76,127
54107,note_on,0,0,0,,1,,,73,127
54306,note_off,199,0,0,,1,,,73,127
54306,note_off,0,0,0,,4,,,76,127
54306,note_off,0,0,0,,10,,,81,127
54307,note_on,1,0,0,,10,,,57,127
54307,note_on,0,0,0,,5,,,77,127
54307,note_on,0,0,0,,2,,,74,127
54506,note_off,199,0,0,,2,,,74,127
54506,note_off,0,0,0,,5,,,77,127
54506,note_off,0,0,0,,10,,,57,127
54507,note_on,1,0,0,,10,,,45,127
54507,note_on,0,0,0,,7,,,79,127
54507,note_on,0,0,0,,4,,,76,127
54695,note_off,188,0,0,,4,,,76,127
54695,note_off,0,0,0,,7,,,79,127
54706,note_off,11,0,0,,10,,,45,127
54707,note_on,1,0,0,,2,,,50,127
54707,note_on,0,0,0,,6,,,78,127
54707,note_on,0,0,0,,2,,,74,127
54906,note_off,199,0,0,,6,,,78,127
54907,note_on,1,0,0,,7,,,79,127
55106,note_off,199,0,0,,7,,,79,127
55106,note_off,0,0,0,,2,,,74,127
55106,note_off,0,0,0,,2,,,50,127
55107,note_on,1,0,0,,2,,,50,127
55107,note_on,0,0,0,,10,,,81,127
55107,note_on,0,0,0,,0,,,72,127
55306,note_off,199,0,0,,0,,,72,127
55306,note_off,0,0,0,,10,,,81,127
55306,note_off,0,0,0,,2,,,50,127
55307,note_on,1,0,0,,11,,,58,127
55307,note_on,0,0,0,,2,,,62,127
55307,note_on,0,0,0,,7,,,55,127
55307,note_on,0,0,0,,7,,,79,127
55307,note_on,0,0,0,,11,,,70,127
55506,note_off,199,0,0,,11,,,70,127
55506,note_off,0,0,0,,7,,,79,127
55507,note_on,1,0,0,,5,,,77,127
55507,note_on,0,0,0,,10,,,69,127
55706,note_off,199,0,0,,10,,,69,127
55706,note_off,0,0,0,,5,,,77,127
55706,note_off,0,0,0,,7,,,55,127
55706,note_off,0,0,0,,2,,,62,127
55706,note_off,0,0,0,,11,,,58,127
55707,note_on,1,0,0,,0,,,48,127
55707,note_on,0,0,0,,3,,,75,127
55707,note_on,0,0,0,,7,,,67,127
55906,note_off,199,0,0,,7,,,67,127
55906,note_off,0,0,0,,3,,,75,127
55906,note_off,0,0,0,,0,,,48,127
55907,note_on,1,0,0,,2,,,50,127
55907,note_on,0,0,0,,2,,,74,127
55907,note_on,0,0,0,,6,,,66,127
56106,note_off,199,0,0,,6,,,66,127
56106,note_off,0,0,0,,2,,,74,127
56107,note_on,1,0,0,,4,,,76,127
56107,note_on,0,0,0,,7,,,67,127
56306,note_off,199,0,0,,7,,,67,127
56306,note_off,0,0,0,,4,,,76,127
56306,note_off,0,0,0,,2,,,50,127
56307,note_on,1,0,0,,2,,,50,127
56307,note_on,0,0,0,,10,,,69,127
56307,note_on,0,0,0,,6,,,78,127
56506,note_off,199,0,0,,6,,,78,127
56506,note_off,0,0,0,,10,,,69,127
56506,note_off,0,0,0,,2,,,50,127
56507,note_on,1,0,0,,7,,,55,127
56507,note_on,0,0,0,,11,,,58,127
56507,note_on,0,0,0,,2,,,62,127
56507,note_on,0,0,0,,7,,,79,127
56507,note_on,0,0,0,,11,,,70,127
56706,note_off,199,0,0,,11,,,70,127
56706,note_off,0,0,0,,7,,,79,127
56707,note_on,1,0,0,,5,,,77,127
56707,note_on,0,0,0,,10,,,69,127
56906,note_off,199,0,0,,10,,,69,127
56906,note_off,0,0,0,,5,,,77,127
56906,note_off,0,0,0,,2,,,62,127
56906,note_off,0,0,0,,11,,,58,127
56906,note_off,0,0,0,,7,,,55,127
56907,note_on,1,0,0,,0,,,60,127
56907,note_on,0,0,0,,3,,,75,127
56907,note_on,0,0,0,,7,,,67,127
57106,note_off,199,0,0,,7,,,67,127
57106,note_off,0,0,0,,3,,,75,127
57106,note_off,0,0,0,,0,,,60,127
57107,note_on,1,0,0,,2,,,62,127
57107,note_on,0,0,0,,1,,,73,127
57306,note_off,199,0,0,,1,,,73,127
57307,note_on,1,0,0,,2,,,74,127
57506,note_off,199,0,0,,2,,,74,127
57506,note_off,0,0,0,,2,,,62,127
57507,note_on,1,0,0,,2,,,62,127
57507,note_on,0,0,0,,2,,,74,127
57706,note_off,199,0,0,,2,,,74,127
57706,note_off,0,0,0,,2,,,62,127
57707,note_on,1,0,0,,3,,,63,127
57707,note_on,0,0,0,,3,,,75,127
57907,note_on,200,0,0,,0,,,84,127
57907,note_on,0,0,0,,0,,,72,127
58106,note_off,199,0,0,,0,,,72,127
58106,note_off,0,0,0,,0,,,84,127
58106,note_off,0,0,0,,3,,,75,127
58106,note_off,0,0,0,,3,,,63,127
58107,note_on,1,0,0,,2,,,62,127
58107,note_on,0,0,0,,2,,,74,127
58107,note_on,0,0,0,,11,,,82,127
58107,note_on,0,0,0,,11,,,70,127
58306,note_off,199,0,0,,2,,,74,127
58306,note_off,0,0,0,,2,,,62,127
58307,note_on,1,0,0,,0,,,60,127
58307,note_on,0,0,0,,0,,,72,127
58506,note_off,199,0,0,,11,,,70,127
58506,note_off,0,0,0,,11,,,82,127
58507,note_on,1,0,0,,10,,,69,127
58507,note_on,0,0,0,,10,,,81,127
58706,note_off,199,0,0,,10,,,81,127
58706,note_off,0,0,0,,10,,,69,127
58706,note_off,0,0,0,,0,,,72,127
58706,note_off,0,0,0,,0,,,60,127
58707,note_on,1,0,0,,11,,,70,127
58707,note_on,0,0,0,,11,,,58,127
58707,note_on,0,0,0,,7,,,79,127
58707,note_on,0,0,0,,7,,,67,127
58906,note_off,199,0,0,,11,,,58,127
58906,note_off,0,0,0,,11,,,70,127
58907,note_on,1,0,0,,10,,,69,127
58907,note_on,0,0,0,,10,,,57,127
59106,note_off,199,0,0,,7,,,67,127
59106,note_off,0,0,0,,7,,,79,127
59107,note_on,1,0,0,,5,,,77,127
59107,note_on,0,0,0,,5,,,65,127
59306,note_off,199,0,0,,5,,,65,127
59306,note_off,0,0,0,,5,,,77,127
59306,note_off,0,0,0,,10,,,57,127
59306,note_off,0,0,0,,10,,,69,127
59307,note_on,1,0,0,,7,,,55,127
59307,note_on,0,0,0,,7,,,67,127
59307,note_on,0,0,0,,3,,,75,127
59307,note_on,0,0,0,,3,,,63,127
59506,note_off,199,0,0,,7,,,67,127
59506,note_off,0,0,0,,7,,,55,127
59507,note_on,1,0,0,,5,,,65,127
59507,note_on,0,0,0,,5,,,53,127
59706,note_off,199,0,0,,3,,,63,127
59706,note_off,0,0,0,,3,,,75,127
59707,note_on,1,0,0,,2,,,62,127
59707,note_on,0,0,0,,2,,,74,127
59906,note_off,199,0,0,,2,,,74,127
59906,note_off,0,0,0,,2,,,62,127
59906,note_off,0,0,0,,5,,,53,127
59906,note_off,0,0,0,,5,,,65,127
59907,note_on,1,0,0,,3,,,63,127
59907,note_on,0,0,0,,3,,,51,127
59907,note_on,0,0,0,,0,,,60,127
59907,note_on,0,0,0,,0,,,72,127
60106,note_off,199,0,0,,3,,,51,127
60106,note_off,0,0,0,,3,,,63,127
60107,note_on,1,0,0,,2,,,50,127
60107,note_on,0,0,0,,2,,,62,127
60306,note_off,199,0,0,,0,,,72,127
60306,note_off,0,0,0,,0,,,60,127
60307,note_on,1,0,0,,11,,,70,127
60307,note_on,0,0,0,,11,,,58,127
60506,note_off,199,0,0,,11,,,58,127
60506,note_off,0,0,0,,11,,,70,127
60506,note_off,0,0,0,,2,,,62,127
60506,note_off,0,0,0,,2,,,50,127
60507,note_on,1,0,0,,0,,,60,127
60507,note_on,0,0,0,,0,,,48,127
60507,note_on,0,0,0,,10,,,69,127
60507,note_on,0,0,0,,10,,,57,127
60706,note_off,199,0,0,,10,,,57,127
60706,note_off,0,0,0,,10,,,69,127
60706,note_off,0,0,0,,0,,,48,127
60706,note_off,0,0,0,,0,,,60,127
60707,note_on,1,0,0,,11,,,46,127
60707,note_on,0,0,0,,11,,,58,127
60707,note_on,0,0,0,,7,,,67,127
60707,note_on,0,0,0,,7,,,55,127
60906,note_off,199,0,0,,7,,,55,127
60906,note_off,0,0,0,,7,,,67,127
60906,note_off,0,0,0,,11,,,58,127
60906,note_off,0,0,0,,11,,,46,127
60907,note_on,1,0,0,,10,,,45,127
60907,note_on,0,0,0,,10,,,69,127
60907,note_on,0,0,0,,10,,,57,127
61106,note_off,199,0,0,,10,,,57,127
61106,note_off,0,0,0,,10,,,69,127
61106,note_off,0,0,0,,10,,,45,127
61107,note_on,1,0,0,,7,,,43,127
61107,note_on,0,0,0,,7,,,55,127
61107,note_on,0,0,0,,11,,,70,127
61107,note_on,0,0,0,,11,,,58,127
61306,note_off,199,0,0,,7,,,55,127
61306,note_off,0,0,0,,7,,,43,127
61307,note_on,1,0,0,,0,,,36,127
61307,note_on,0,0,0,,0,,,48,127
61506,note_off,199,0,0,,0,,,48,127
61506,note_off,0,0,0,,0,,,36,127
61506,note_off,0,0,0,,11,,,58,127
61506,note_off,0,0,0,,11,,,70,127
61507,note_on,1,0,0,,2,,,38,127
61507,note_on,0,0,0,,2,,,50,127
61507,note_on,0,0,0,,10,,,69,127
61507,note_on,0,0,0,,10,,,57,127
61706,note_off,199,0,0,,10,,,57,127
61706,note_off,0,0,0,,10,,,69,127
61706,note_off,0,0,0,,2,,,50,127
61706,note_off,0,0,0,,2,,,38,127
61707,note_on,1,0,0,,3,,,51,127
61707,note_on,0,0,0,,3,,,39,127
61707,note_on,0,0,0,,7,,,67,127
61707,note_on,0,0,0,,7,,,55,127
61906,note_off,199,0,0,,7,,,55,127
61906,note_off,0,0,0,,7,,,67,127
61906,note_off,0,0,0,,3,,,39,127
61906,note_off,0,0,0,,3,,,51,127
61907,note_on,1,0,0,,2,,,38,127
61907,note_on,0,0,0,,2,,,50,127
61907,note_on,0,0,0,,7,,,67,127
61907,note_on,0,0,0,,7,,,55,127
62106,note_off,199,0,0,,7,,,55,127
62106,note_off,0,0,0,,7,,,67,127
62107,note_on,1,0,0,,10,,,69,127
62107,note_on,0,0,0,,10,,,57,127
62306,note_off,199,0,0,,10,,,57,127
62306,note_off,0,0,0,,10,,,69,127
62306,note_off,0,0,0,,2,,,50,127
62306,note_off,0,0,0,,2,,,38,127
62307,note_on,1,0,0,,2,,,62,127
62307,note_on,0,0,0,,2,,,74,127
62506,note_off,199,0,0,,2,,,74,127
62506,note_off,0,0,0,,2,,,62,127
62507,note_on,1,0,0,,3,,,63,127
62507,note_on,0,0,0,,3,,,75,127
62707,note_on,200,0,0,,0,,,84,127
62707,note_on,0,0,0,,0,,,72,127
62906,note_off,199,0,0,,0,,,72,127
62906,note_off,0,0,0,,0,,,84,127
62906,note_off,0,0,0,,3,,,75,127
62906,note_off,0,0,0,,3,,,63,127
62907,note_on,1,0,0,,2,,,74,127
62907,note_on,0,0,0,,2,,,62,127
62907,note_on,0,0,0,,11,,,82,127
62907,note_on,0,0,0,,11,,,70,127
63106,note_off,199,0,0,,2,,,62,127
63106,note_off,0,0,0,,2,,,74,127
63107,note_on,1,0,0,,0,,,60,127
63107,note_on,0,0,0,,0,,,72,127
63306,note_off,199,0,0,,11,,,70,127
63306,note_off,0,0,0,,11,,,82,127
63307,note_on,1,0,0,,10,,,81,127
63307,note_on,0,0,0,,10,,,69,127
63506,note_off,199,0,0,,10,,,69,127
63506,note_off,0,0,0,,10,,,81,127
63506,note_off,0,0,0,,0,,,72,127
63506,note_off,0,0,0,,0,,,60,127
63507,note_on,1,0,0,,11,,,58,127
63507,note_on,0,0,0,,11,,,70,127
63507,note_on,0,0,0,,7,,,79,127
63507,note_on,0,0,0,,7,,,67,127
63706,note_off,199,0,0,,11,,,70,127
63706,note_off,0,0,0,,11,,,58,127
63707,note_on,1,0,0,,10,,,57,127
63707,note_on,0,0,0,,10,,,69,127
63906,note_off,199,0,0,,7,,,67,127
63906,note_off,0,0,0,,7,,,79,127
63907,note_on,1,0,0,,5,,,77,127
63907,note_on,0,0,0,,5,,,65,127
64106,note_off,199,0,0,,5,,,65,127
64106,note_off,0,0,0,,5,,,77,127
64106,note_off,0,0,0,,10,,,69,127
64106,note_off,0,0,0,,10,,,57,127
64107,note_on,1,0,0,,7,,,55,127
64107,note_on,0,0,0,,7,,,67,127
64107,note_on,0,0,0,,3,,,75,127
64107,note_on,0,0,0,,3,,,63,127
64306,note_off,199,0,0,,7,,,67,127
64306,note_off,0,0,0,,7,,,55,127
64307,note_on,1,0,0,,5,,,65,127
64307,note_on,0,0,0,,5,,,53,127
64506,note_off,199,0,0,,3,,,63,127
64506,note_off,0,0,0,,3,,,75,127
64507,note_on,1,0,0,,2,,,62,127
64507,note_on,0,0,0,,2,,,74,127
64706,note_off,199,0,0,,2,,,74,127
64706,note_off,0,0,0,,2,,,62,127
64706,note_off,0,0,0,,5,,,53,127
64706,note_off,0,0,0,,5,,,65,127
64707,note_on,1,0,0,,3,,,51,127
64707,note_on,0,0,0,,3,,,63,127
64707,note_on,0,0,0,,0,,,72,127
64707,note_on,0,0,0,,0,,,60,127
64906,note_off,199,0,0,,3,,,63,127
64906,note_off,0,0,0,,3,,,51,127
64907,note_on,1,0,0,,2,,,50,127
64907,note_on,0,0,0,,2,,,62,127
65106,note_off,199,0,0,,0,,,60,127
65106,note_off,0,0,0,,0,,,72,127
65107,note_on,1,0,0,,11,,,70,127
65107,note_on,0,0,0,,11,,,58,127
65306,note_off,199,0,0,,11,,,58,127
65306,note_off,0,0,0,,11,,,70,127
65306,note_off,0,0,0,,2,,,62,127
65306,note_off,0,0,0,,2,,,50,127
65307,note_on,1,0,0,,0,,,60,127
65307,note_on,0,0,0,,0,,,48,127
65307,note_on,0,0,0,,10,,,69,127
65307,note_on,0,0,0,,10,,,57,127
65506,note_off,199,0,0,,10,,,57,127
65506,note_off,0,0,0,,10,,,69,127
65506,note_off,0,0,0,,0,,,48,127
65506,note_off,0,0,0,,0,,,60,127
65507,note_on,1,0,0,,11,,,58,127
65507,note_on,0,0,0,,11,,,46,127
65507,note_on,0,0,0,,2,,,74,127
65706,note_off,199,0,0,,2,,,74,127
65707,note_on,1,0,0,,7,,,67,127
65906,note_off,199,0,0,,7,,,67,127
65906,note_off,0,0,0,,11,,,46,127
65906,note_off,0,0,0,,11,,,58,127
65907,note_on,1,0,0,,0,,,48,127
65907,note_on,0,0,0,,10,,,69,127
65973,note_off,66,0,0,,10,,,69,127
65974,note_on,1,0,0,,11,,,70,127
66040,note_off,66,0,0,,11,,,70,127
66041,note_on,1,0,0,,0,,,72,127
66107,note_off,66,0,0,,0,,,72,127
66107,note_off,0,0,0,,0,,,48,127
66108,note_on,1,0,0,,2,,,50,127
66108,note_on,0,0,0,,11,,,70,127
66307,note_off,199,0,0,,11,,,70,127
66308,note_on,1,0,0,,10,,,69,127
66407,note_off,99,0,0,,10,,,69,127
66408,note_on,1,0,0,,7,,,67,127
66507,note_off,99,0,0,,7,,,67,127
66507,note_off,0,0,0,,2,,,50,127
66508,note_on,1,0,0,,2,,,50,127
66508,note_on,0,0,0,,10,,,69,127
66607,note_off,99,0,0,,10,,,69,127
66608,note_on,1,0,0,,6,,,66,127
66707,note_off,99,0,0,,6,,,66,127
66707,note_off,0,0,0,,2,,,50,127
66708,note_on,1,0,0,,7,,,43,127
66708,note_on,0,0,0,,6,,,66,127
67108,note_off,400,0,0,,6,,,66,127
67109,note_on,1,0,0,,7,,,67,127
67283,note_off,174,0,0,,7,,,67,127
67308,note_off,25,0,0,,7,,,43,127
67309,note_on,1,0,0,,2,,,50,127
67309,note_on,0,0,0,,2,,,86,127
67508,note_off,199,0,0,,2,,,86,127
67509,note_on,1,0,0,,2,,,74,127
67708,note_off,199,0,0,,2,,,74,127
67708,note_off,0,0,0,,2,,,50,127
67709,note_on,1,0,0,,6,,,54,127
67709,note_on,0,0,0,,2,,,62,127
67908,note_off,199,0,0,,2,,,62,127
67908,note_off,0,0,0,,6,,,54,127
67909,note_on,1,0,0,,7,,,55,127
67909,note_on,0,0,0,,0,,,60,127
67988,note_off,79,0,0,,0,,,60,127
67989,note_on,1,0,0,,11,,,58,127
68067,note_off,78,0,0,,11,,,58,127
68068,note_on,1,0,0,,0,,,60,127
68145,note_off,77,0,0,,0,,,60,127
68146,note_on,1,0,0,,11,,,58,127
68222,note_off,76,0,0,,11,,,58,127
68223,note_on,1,0,0,,10,,,57,127
68308,note_off,85,0,0,,10,,,57,127
68308,note_off,0,0,0,,7,,,55,127
68309,note_on,1,0,0,,7,,,55,127
68508,note_off,199,0,0,,7,,,55,127
68509,note_on,1,0,0,,2,,,50,127
68509,note_on,0,0,0,,2,,,86,127
68708,note_off,199,0,0,,2,,,86,127
68709,note_on,1,0,0,,2,,,74,127
68908,note_off,199,0,0,,2,,,74,127
68908,note_off,0,0,0,,2,,,50,127
68909,note_on,1,0,0,,6,,,54,127
68909,note_on,0,0,0,,2,,,62,127
69108,note_off,199,0,0,,2,,,62,127
69108,note_off,0,0,0,,6,,,54,127
69109,note_on,1,0,0,,7,,,55,127
69109,note_on,0,0,0,,0,,,60,127
69188,note_off,79,0,0,,0,,,60,127
69189,note_on,1,0,0,,11,,,58,127
69267,note_off,78,0,0,,11,,,58,127
69268,note_on,1,0,0,,0,,,60,127
69345,note_off,77,0,0,,0,,,60,127
69346,note_on,1,0,0,,11,,,58,127
69422,note_off,76,0,0,,11,,,58,127
69423,note_on,1,0,0,,10,,,57,127
69508,note_off,85,0,0,,10,,,57,127
69508,note_off,0,0,0,,7,,,55,127
69509,note_on,1,0,0,,7,,,55,127
69708,note_off,199,0,0,,7,,,55,127
69709,note_on,1,0,0,,2,,,86,127
69709,note_on,0,0,0,,6,,,66,127
69709,note_on,0,0,0,,2,,,62,127
69709,note_on,0,0,0,,10,,,69,127
69908,note_off,199,0,0,,10,,,69,127
69908,note_off,0,0,0,,6,,,66,127
69908,note_off,0,0,0,,2,,,86,127
69909,note_on,1,0,0,,2,,,50,127
69909,note_on,0,0,0,,11,,,70,127
69909,note_on,0,0,0,,7,,,67,127
70108,note_off,199,0,0,,7,,,67,127
70108,note_off,0,0,0,,11,,,70,127
70108,note_off,0,0,0,,2,,,50,127
70109,note_on,1,0,0,,2,,,38,127
70109,note_on,0,0,0,,0,,,72,127
70109,note_on,0,0,0,,10,,,69,127
70308,note_off,199,0,0,,10,,,69,127
70308,note_off,0,0,0,,0,,,72,127
70308,note_off,0,0,0,,2,,,38,127
70308,note_off,0,0,0,,2,,,62,127
70309,note_on,1,0,0,,7,,,43,127
70309,note_on,0,0,0,,2,,,62,127
70309,note_on,0,0,0,,11,,,70,127
70309,note_on,0,0,0,,7,,,67,127
70508,note_off,199,0,0,,7,,,67,127
70508,note_off,0,0,0,,11,,,70,127
70509,note_on,1,0,0,,0,,,72,127
70509,note_on,0,0,0,,10,,,69,127
70708,note_off,199,0,0,,10,,,69,127
70708,note_off,0,0,0,,0,,,72,127
70709,note_on,1,0,0,,2,,,74,127
70709,note_on,0,0,0,,11,,,70,127
70908,note_off,199,0,0,,11,,,70,127
70908,note_off,0,0,0,,2,,,74,127
70908,note_off,0,0,0,,2,,,62,127
70908,note_off,0,0,0,,7,,,43,127
70909,note_on,1,0,0,,2,,,86,127
70909,note_on,0,0,0,,10,,,69,127
70909,note_on,0,0,0,,6,,,66,127
70909,note_on,0,0,0,,2,,,62,127
71108,note_off,199,0,0,,6,,,66,127
71108,note_off,0,0,0,,10,,,69,127
71108,note_off,0,0,0,,2,,,86,127
71109,note_on,1,0,0,,2,,,50,127
71109,note_on,0,0,0,,11,,,70,127
71109,note_on,0,0,0,,7,,,67,127
71308,note_off,199,0,0,,7,,,67,127
71308,note_off,0,0,0,,11,,,70,127
71308,note_off,0,0,0,,2,,,50,127
71309,note_on,1,0,0,,2,,,38,127
71309,note_on,0,0,0,,0,,,72,127
71309,note_on,0,0,0,,10,,,69,127
71508,note_off,199,0,0,,10,,,69,127
71508,note_off,0,0,0,,0,,,72,127
71508,note_off,0,0,0,,2,,,38,127
71508,note_off,0,0,0,,2,,,62,127
71509,note_on,1,0,0,,7,,,43,127
71509,note_on,0,0,0,,2,,,62,127
71509,note_on,0,0,0,,11,,,70,127
71509,note_on,0,0,0,,7,,,67,127
71708,note_off,199,0,0,,7,,,67,127
71708,note_off,0,0,0,,11,,,70,127
71709,note_on,1,0,0,,10,,,69,127
71709,note_on,0,0,0,,0,,,72,127
71908,note_off,199,0,0,,0,,,72,127
71908,note_off,0,0,0,,10,,,69,127
71908,note_off,0,0,0,,2,,,62,127
71909,note_on,1,0,0,,2,,,74,127
71909,note_on,0,0,0,,11,,,70,127
72108,note_off,199,0,0,,11,,,70,127
72108,note_off,0,0,0,,2,,,74,127
72108,note_off,0,0,0,,7,,,43,127
72109,note_on,1,0,0,,0,,,60,127
72109,note_on,0,0,0,,7,,,79,127
72109,note_on,0,0,0,,3,,,75,127
72308,note_off,199,0,0,,3,,,75,127
72309,note_on,1,0,0,,0,,,72,127
72508,note_off,199,0,0,,0,,,72,127
72508,note_off,0,0,0,,7,,,79,127
72508,note_off,0,0,0,,0,,,60,127
72509,note_on,1,0,0,,10,,,57,127
72509,note_on,0,0,0,,10,,,81,127
72509,note_on,0,0,0,,6,,,78,127
72708,note_off,199,0,0,,6,,,78,127
72708,note_off,0,0,0,,10,,,81,127
72708,note_off,0,0,0,,10,,,57,127
72709,note_on,1,0,0,,7,,,55,127
72709,note_on,0,0,0,,7,,,79,127
72709,note_on,0,0,0,,11,,,82,127
72909,note_on,200,0,0,,2,,,74,127
73108,note_off,199,0,0,,2,,,74,127
73108,note_off,0,0,0,,11,,,82,127
73108,note_off,0,0,0,,7,,,79,127
73108,note_off,0,0,0,,7,,,55,127
73109,note_on,1,0,0,,0,,,60,127
73109,note_on,0,0,0,,3,,,51,127
73109,note_on,0,0,0,,0,,,84,127
73308,note_off,199,0,0,,0,,,84,127
73308,note_off,0,0,0,,3,,,51,127
73308,note_off,0,0,0,,0,,,60,127
73309,note_on,1,0,0,,2,,,50,127
73309,note_on,0,0,0,,7,,,55,127
73309,note_on,0,0,0,,11,,,58,127
73309,note_on,0,0,0,,2,,,86,127
73408,note_off,99,0,0,,2,,,86,127
73409,note_on,1,0,0,,0,,,84,127
73508,note_off,99,0,0,,0,,,84,127
73509,note_on,1,0,0,,11,,,82,127
73608,note_off,99,0,0,,11,,,82,127
73609,note_on,1,0,0,,10,,,81,127
73708,note_off,99,0,0,,10,,,81,127
73708,note_off,0,0,0,,11,,,58,127
73708,note_off,0,0,0,,7,,,55,127
73708,note_off,0,0,0,,2,,,50,127
73709,note_on,1,0,0,,10,,,57,127
73709,note_on,0,0,0,,7,,,55,127
73709,note_on,0,0,0,,2,,,50,127
73709,note_on,0,0,0,,7,,,79,127
73808,note_off,99,0,0,,7,,,79,127
73809,note_on,1,0,0,,6,,,78,127
73908,note_off,99,0,0,,6,,,78,127
73908,note_off,0,0,0,,2,,,50,127
73908,note_off,0,0,0,,7,,,55,127
73908,note_off,0,0,0,,10,,,57,127
73909,note_on,1,0,0,,7,,,55,127
73909,note_on,0,0,0,,7,,,79,127
74108,note_off,199,0,0,,7,,,79,127
74109,note_on,1,0,0,,2,,,74,127
74308,note_off,199,0,0,,2,,,74,127
74308,note_off,0,0,0,,7,,,55,127
74309,note_on,1,0,0,,0,,,48,127
74309,note_on,0,0,0,,3,,,75,127
74508,note_off,199,0,0,,3,,,75,127
74508,note_off,0,0,0,,0,,,48,127
74509,note_on,1,0,0,,2,,,50,127
74509,note_on,0,0,0,,2,,,74,127
74608,note_off,99,0,0,,2,,,74,127
74609,note_on,1,0,0,,0,,,72,127
74708,note_off,99,0,0,,0,,,72,127
74709,note_on,1,0,0,,11,,,70,127
74808,note_off,99,0,0,,11,,,70,127
74809,note_on,1,0,0,,10,,,69,127
74908,note_off,99,0,0,,10,,,69,127
74909,note_on,1,0,0,,7,,,67,127
75008,note_off,99,0,0,,7,,,67,127
75009,note_on,1,0,0,,6,,,66,127
75108,note_off,99,0,0,,2,,,50,127
75110,note_off,2,0,0,,6,,,66,127
75112,note_on,2,0,0,,7,,,67,127
75112,note_on,0,0,0,,7,,,55,127
75112,note_on,0,0,0,,7,,,43,127
75317,note_off,205,0,0,,7,,,67,127
75321,note_on,4,0,0,,2,,,62,127
75523,note_off,202,0,0,,7,,,43,127
75523,note_off,0,0,0,,7,,,55,127
75525,note_off,2,0,0,,2,,,62,127
75529,note_on,4,0,0,,3,,,63,127
75529,note_on,0,0,0,,0,,,48,127
75529,note_on,0,0,0,,0,,,36,127
75734,note_off,205,0,0,,0,,,36,127
75734,note_off,0,0,0,,0,,,48,127
75734,note_off,0,0,0,,3,,,63,127
75737,note_on,3,0,0,,2,,,62,127
75737,note_on,0,0,0,,2,,,38,127
75737,note_on,0,0,0,,2,,,50,127
75838,note_off,101,0,0,,2,,,62,127
75841,note_on,3,0,0,,0,,,60,127
75942,note_off,101,0,0,,0,,,60,127
75945,note_on,3,0,0,,11,,,58,127
76046,note_off,101,0,0,,11,,,58,127
76049,note_on,3,0,0,,10,,,57,127
76150,note_off,101,0,0,,10,,,57,127
76153,note_on,3,0,0,,7,,,55,127
76254,note_off,101,0,0,,7,,,55,127
76262,note_on,8,0,0,,6,,,54,127
76353,note_off,91,0,0,,2,,,50,127
76353,note_off,0,0,0,,2,,,38,127
76363,note_off,10,0,0,,6,,,54,127
76390,note_on,27,0,0,,7,,,43,127
76390,note_on,0,0,0,,7,,,55,127
78060,note_off,1670,0,0,,7,,,55,127
78060,note_off,0,0,0,,7,,,43,127
82944,end_of_track,4884,1,0,,,,,,
