tick,type,time,meta,track,program,channel,pitch,tempo,note,velocity
0,copyright,0,1,0,,,,,,
0,program_change,0,0,0,6,0,,,,
0,pitchwheel,0,0,0,,0,0,,,
0,program_change,0,0,0,6,1,,,,
0,pitchwheel,0,0,0,,1,-590,,,
0,program_change,0,0,0,6,2,,,,
0,pitchwheel,0,0,0,,2,-272,,,
0,program_change,0,0,0,6,3,,,,
0,pitchwheel,0,0,0,,3,-353,,,
0,program_change,0,0,0,6,4,,,,
0,pitchwheel,0,0,0,,4,-560,,,
0,program_change,0,0,0,6,5,,,,
0,pitchwheel,0,0,0,,5,-80,,,
0,program_change,0,0,0,6,6,,,,
0,pitchwheel,0,0,0,,6,-625,,,
0,program_change,0,0,0,6,7,,,,
0,pitchwheel,0,0,0,,7,-130,,,
0,program_change,0,0,0,6,8,,,,
0,pitchwheel,0,0,0,,8,-512,,,
0,program_change,0,0,0,6,10,,,,
0,pitchwheel,0,0,0,,10,-464,,,
0,program_change,0,0,0,6,11,,,,
0,pitchwheel,0,0,0,,11,-208,,,
0,program_change,0,0,0,6,12,,,,
0,pitchwheel,0,0,0,,12,-553,,,
0,set_tempo,0,1,0,,,,500000,,
100,note_on,100,0,0,,10,,,45,127
510,note_on,410,0,0,,10,,,69,127
900,note_off,390,0,0,,10,,,45,127
907,note_on,7,0,0,,0,,,72,127
909,note_off,2,0,0,,10,,,69,127
1304,note_on,395,0,0,,4,,,76,127
1306,note_off,2,0,0,,0,,,72,127
1696,note_off,390,0,0,,4,,,76,127
1701,note_on,5,0,0,,7,,,79,127
1900,note_off,199,0,0,,7,,,79,127
1901,note_on,1,0,0,,5,,,77,127
2100,note_off,199,0,0,,5,,,77,127
2101,note_on,1,0,0,,10,,,69,127
2101,note_on,0,0,0,,0,,,72,127
2101,note_on,0,0,0,,4,,,76,127
2501,note_off,400,0,0,,0,,,72,127
2501,note_off,0,0,0,,10,,,69,127
2502,note_on,1,0,0,,8,,,68,127
2502,note_on,0,0,0,,12,,,71,127
2873,note_off,371,0,0,,4,,,76,127
2901,note_off,28,0,0,,8,,,68,127
2902,note_on,1,0,0,,4,,,64,127
2902,note_on,0,0,0,,12,,,83,127
3035,note_off,133,0,0,,12,,,83,127
3036,note_on,1,0,0,,0,,,84,127
3169,note_off,133,0,0,,0,,,84,127
3170,note_on,1,0,0,,2,,,86,127
3303,note_off,133,0,0,,2,,,86,127
3303,note_off,0,0,0,,12,,,71,127
3304,note_on,1,0,0,,7,,,79,127
3404,note_off,100,0,0,,4,,,64,127
3503,note_off,99,0,0,,7,,,79,127
3504,note_on,1,0,0,,5,,,77,127
3703,note_off,199,0,0,,5,,,77,127
3704,note_on,1,0,0,,10,,,69,127
3704,note_on,0,0,0,,0,,,72,127
3704,note_on,0,0,0,,4,,,76,127
4104,note_off,400,0,0,,0,,,72,127
4104,note_off,0,0,0,,10,,,69,127
4105,note_on,1,0,0,,12,,,71,127
4105,note_on,0,0,0,,8,,,68,127
4435,note_off,330,0,0,,4,,,76,127
4505,note_off,70,0,0,,8,,,68,127
4506,note_on,1,0,0,,4,,,64,127
4506,note_on,0,0,0,,12,,,83,127
4639,note_off,133,0,0,,12,,,83,127
4640,note_on,1,0,0,,0,,,84,127
4773,note_off,133,0,0,,0,,,84,127
4774,note_on,1,0,0,,2,,,86,127
4903,note_off,129,0,0,,4,,,64,127
4905,note_off,2,0,0,,2,,,86,127
4906,note_off,1,0,0,,12,,,71,127
4907,note_on,1,0,0,,2,,,86,127
5308,note_on,401,0,0,,10,,,69,127
5308,note_on,0,0,0,,5,,,65,127
5308,note_on,0,0,0,,2,,,74,127
5421,note_on,113,0,0,,0,,,84,127
5423,note_off,2,0,0,,2,,,86,127
5575,note_off,152,0,0,,0,,,84,127
5575,note_on,0,0,0,,12,,,83,127
5642,note_on,67,0,0,,10,,,81,127
5649,note_off,7,0,0,,12,,,83,127
5707,note_off,58,0,0,,5,,,65,127
5707,note_off,0,0,0,,10,,,69,127
5708,note_on,1,0,0,,5,,,65,127
5708,note_on,0,0,0,,10,,,69,127
5774,note_off,66,0,0,,10,,,81,127
5775,note_on,1,0,0,,8,,,80,127
5842,note_on,67,0,0,,10,,,81,127
5848,note_off,6,0,0,,8,,,80,127
5909,note_on,61,0,0,,8,,,80,127
5915,note_off,6,0,0,,10,,,81,127
5976,note_on,61,0,0,,10,,,81,127
5982,note_off,6,0,0,,8,,,80,127
6043,note_on,61,0,0,,8,,,80,127
6049,note_off,6,0,0,,10,,,81,127
6108,note_off,59,0,0,,10,,,69,127
6108,note_off,0,0,0,,5,,,65,127
6109,note_on,1,0,0,,10,,,69,127
6109,note_on,0,0,0,,5,,,65,127
6109,note_on,0,0,0,,10,,,81,127
6115,note_off,6,0,0,,8,,,80,127
6176,note_on,61,0,0,,8,,,80,127
6182,note_off,6,0,0,,10,,,81,127
6243,note_on,61,0,0,,10,,,81,127
6249,note_off,6,0,0,,8,,,80,127
6310,note_on,61,0,0,,8,,,80,127
6316,note_off,6,0,0,,10,,,81,127
6377,note_on,61,0,0,,10,,,81,127
6383,note_off,6,0,0,,8,,,80,127
6509,note_off,126,0,0,,10,,,81,127
6509,note_off,0,0,0,,5,,,65,127
6509,note_off,0,0,0,,10,,,69,127
6510,note_on,1,0,0,,4,,,64,127
6510,note_on,0,0,0,,12,,,71,127
6510,note_on,0,0,0,,12,,,83,127
6905,note_off,395,0,0,,2,,,74,127
6909,note_off,4,0,0,,12,,,71,127
6909,note_off,0,0,0,,4,,,64,127
6910,note_on,1,0,0,,5,,,65,127
6910,note_on,0,0,0,,10,,,69,127
6910,note_on,0,0,0,,4,,,76,127
7176,note_off,266,0,0,,12,,,83,127
7177,note_on,1,0,0,,0,,,84,127
7244,note_on,67,0,0,,2,,,86,127
7250,note_off,6,0,0,,0,,,84,127
7309,note_off,59,0,0,,10,,,69,127
7309,note_off,0,0,0,,5,,,65,127
7310,note_on,1,0,0,,5,,,65,127
7310,note_on,0,0,0,,10,,,69,127
7310,note_on,0,0,0,,10,,,81,127
7316,note_off,6,0,0,,2,,,86,127
7377,note_on,61,0,0,,8,,,80,127
7383,note_off,6,0,0,,10,,,81,127
7444,note_on,61,0,0,,10,,,81,127
7450,note_off,6,0,0,,8,,,80,127
7511,note_on,61,0,0,,8,,,80,127
7517,note_off,6,0,0,,10,,,81,127
7578,note_on,61,0,0,,10,,,81,127
7584,note_off,6,0,0,,8,,,80,127
7645,note_on,61,0,0,,8,,,80,127
7651,note_off,6,0,0,,10,,,81,127
7710,note_off,59,0,0,,10,,,69,127
7710,note_off,0,0,0,,5,,,65,127
7711,note_on,1,0,0,,10,,,69,127
7711,note_on,0,0,0,,5,,,65,127
7711,note_on,0,0,0,,10,,,81,127
7717,note_off,6,0,0,,8,,,80,127
7778,note_on,61,0,0,,8,,,80,127
7784,note_off,6,0,0,,10,,,81,127
7845,note_on,61,0,0,,10,,,81,127
7851,note_off,6,0,0,,8,,,80,127
7910,note_off,59,0,0,,4,,,76,127
7911,note_on,1,0,0,,2,,,74,127
7911,note_on,0,0,0,,8,,,80,127
7917,note_off,6,0,0,,10,,,81,127
7978,note_on,61,0,0,,10,,,81,127
7984,note_off,6,0,0,,8,,,80,127
8110,note_off,126,0,0,,10,,,81,127
8110,note_off,0,0,0,,5,,,65,127
8110,note_off,0,0,0,,10,,,69,127
8111,note_on,1,0,0,,4,,,64,127
8111,note_on,0,0,0,,12,,,71,127
8111,note_on,0,0,0,,12,,,83,127
8511,note_off,400,0,0,,12,,,71,127
8511,note_off,0,0,0,,4,,,64,127
8511,note_off,0,0,0,,2,,,74,127
8512,note_on,1,0,0,,5,,,65,127
8512,note_on,0,0,0,,10,,,69,127
8512,note_on,0,0,0,,4,,,76,127
8778,note_off,266,0,0,,12,,,83,127
8779,note_on,1,0,0,,0,,,84,127
8846,note_on,67,0,0,,2,,,86,127
8852,note_off,6,0,0,,0,,,84,127
8911,note_off,59,0,0,,10,,,69,127
8911,note_off,0,0,0,,5,,,65,127
8912,note_on,1,0,0,,5,,,65,127
8912,note_on,0,0,0,,10,,,69,127
8912,note_on,0,0,0,,10,,,81,127
8918,note_off,6,0,0,,2,,,86,127
8979,note_on,61,0,0,,8,,,80,127
8985,note_off,6,0,0,,10,,,81,127
9046,note_on,61,0,0,,10,,,81,127
9052,note_off,6,0,0,,8,,,80,127
9113,note_on,61,0,0,,8,,,80,127
9119,note_off,6,0,0,,10,,,81,127
9180,note_on,61,0,0,,10,,,81,127
9186,note_off,6,0,0,,8,,,80,127
9247,note_on,61,0,0,,8,,,80,127
9253,note_off,6,0,0,,10,,,81,127
9312,note_off,59,0,0,,10,,,69,127
9312,note_off,0,0,0,,5,,,65,127
9313,note_on,1,0,0,,5,,,65,127
9313,note_on,0,0,0,,10,,,69,127
9313,note_on,0,0,0,,10,,,81,127
9319,note_off,6,0,0,,8,,,80,127
9380,note_on,61,0,0,,8,,,80,127
9386,note_off,6,0,0,,10,,,81,127
9447,note_on,61,0,0,,10,,,81,127
9453,note_off,6,0,0,,8,,,80,127
9512,note_off,59,0,0,,4,,,76,127
9513,note_on,1,0,0,,2,,,74,127
9513,note_on,0,0,0,,8,,,80,127
9519,note_off,6,0,0,,10,,,81,127
9580,note_on,61,0,0,,10,,,81,127
9586,note_off,6,0,0,,8,,,80,127
9712,note_off,126,0,0,,10,,,81,127
9712,note_off,0,0,0,,10,,,69,127
9712,note_off,0,0,0,,5,,,65,127
9713,note_on,1,0,0,,4,,,64,127
9713,note_on,0,0,0,,12,,,71,127
9713,note_on,0,0,0,,10,,,81,127
9922,note_off,209,0,0,,10,,,81,127
9923,note_on,1,0,0,,0,,,84,127
9989,note_on,66,0,0,,12,,,83,127
9996,note_off,7,0,0,,0,,,84,127
10054,note_on,58,0,0,,0,,,84,127
10061,note_off,7,0,0,,12,,,83,127
10112,note_off,51,0,0,,12,,,71,127
10112,note_off,0,0,0,,4,,,64,127
10112,note_off,0,0,0,,2,,,74,127
10113,note_on,1,0,0,,4,,,52,127
10119,note_on,6,0,0,,12,,,83,127
10126,note_off,7,0,0,,0,,,84,127
10184,note_on,58,0,0,,0,,,84,127
10191,note_off,7,0,0,,12,,,83,127
10249,note_on,58,0,0,,12,,,83,127
10256,note_off,7,0,0,,0,,,84,127
10314,note_on,58,0,0,,0,,,84,127
10321,note_off,7,0,0,,12,,,83,127
10379,note_on,58,0,0,,12,,,83,127
10386,note_off,7,0,0,,0,,,84,127
10444,note_on,58,0,0,,0,,,84,127
10451,note_off,7,0,0,,12,,,83,127
10508,note_off,57,0,0,,4,,,52,127
10509,note_on,1,0,0,,8,,,56,127
10509,note_on,0,0,0,,12,,,83,127
10516,note_off,7,0,0,,0,,,84,127
10908,note_off,392,0,0,,8,,,56,127
10909,note_on,1,0,0,,12,,,59,127
11009,note_off,100,0,0,,12,,,83,127
11308,note_off,299,0,0,,12,,,59,127
11309,note_on,1,0,0,,4,,,64,127
11709,note_off,400,0,0,,4,,,64,127
11710,note_on,1,0,0,,5,,,65,127
11710,note_on,0,0,0,,10,,,81,127
11909,note_off,199,0,0,,10,,,81,127
11910,note_on,1,0,0,,5,,,77,127
12109,note_off,199,0,0,,5,,,77,127
12110,note_on,1,0,0,,1,,,73,127
12471,note_off,361,0,0,,5,,,65,127
12510,note_off,39,0,0,,1,,,73,127
12511,note_on,1,0,0,,4,,,64,127
12511,note_on,0,0,0,,2,,,74,127
12710,note_off,199,0,0,,4,,,64,127
12711,note_on,1,0,0,,2,,,62,127
12910,note_off,199,0,0,,2,,,62,127
12911,note_on,1,0,0,,8,,,68,127
13105,note_off,194,0,0,,2,,,74,127
13111,note_on,6,0,0,,8,,,80,127
13310,note_off,199,0,0,,8,,,80,127
13310,note_off,0,0,0,,8,,,68,127
13311,note_on,1,0,0,,5,,,65,127
13311,note_on,0,0,0,,10,,,81,127
13510,note_off,199,0,0,,10,,,81,127
13511,note_on,1,0,0,,5,,,77,127
13710,note_off,199,0,0,,5,,,77,127
13711,note_on,1,0,0,,1,,,73,127
14082,note_off,371,0,0,,5,,,65,127
14110,note_off,28,0,0,,1,,,73,127
14111,note_on,1,0,0,,4,,,64,127
14111,note_on,0,0,0,,2,,,74,127
14310,note_off,199,0,0,,4,,,64,127
14311,note_on,1,0,0,,2,,,62,127
14510,note_off,199,0,0,,2,,,62,127
14511,note_on,1,0,0,,8,,,68,127
14698,note_off,187,0,0,,2,,,74,127
14712,note_on,14,0,0,,12,,,83,127
14911,note_off,199,0,0,,12,,,83,127
14911,note_off,0,0,0,,8,,,68,127
14912,note_on,1,0,0,,5,,,65,127
14912,note_on,0,0,0,,8,,,80,127
15111,note_off,199,0,0,,8,,,80,127
15112,note_on,1,0,0,,5,,,77,127
15311,note_off,199,0,0,,5,,,77,127
15312,note_on,1,0,0,,2,,,74,127
15712,note_off,400,0,0,,5,,,65,127
15713,note_on,1,0,0,,8,,,68,127
15912,note_off,199,0,0,,2,,,74,127
15913,note_on,1,0,0,,0,,,72,127
16012,note_off,99,0,0,,0,,,72,127
16013,note_on,1,0,0,,12,,,71,127
16112,note_off,99,0,0,,8,,,68,127
16113,note_on,1,0,0,,10,,,69,127
16179,note_off,66,0,0,,12,,,71,127
16180,note_on,1,0,0,,0,,,72,127
16247,note_on,67,0,0,,2,,,74,127
16253,note_off,6,0,0,,0,,,72,127
16314,note_on,61,0,0,,0,,,72,127
16320,note_off,6,0,0,,2,,,74,127
16381,note_on,61,0,0,,2,,,74,127
16387,note_off,6,0,0,,0,,,72,127
16448,note_on,61,0,0,,0,,,72,127
16454,note_off,6,0,0,,2,,,74,127
16513,note_off,59,0,0,,10,,,69,127
16514,note_on,1,0,0,,5,,,65,127
16514,note_on,0,0,0,,2,,,74,127
16520,note_off,6,0,0,,0,,,72,127
16581,note_on,61,0,0,,0,,,72,127
16587,note_off,6,0,0,,2,,,74,127
16648,note_on,61,0,0,,2,,,74,127
16654,note_off,6,0,0,,0,,,72,127
16715,note_on,61,0,0,,0,,,72,127
16721,note_off,6,0,0,,2,,,74,127
16782,note_on,61,0,0,,12,,,71,127
16788,note_off,6,0,0,,0,,,72,127
16849,note_on,61,0,0,,10,,,69,127
16855,note_off,6,0,0,,12,,,71,127
16914,note_off,59,0,0,,5,,,65,127
16915,note_on,1,0,0,,2,,,62,127
16981,note_off,66,0,0,,10,,,69,127
16982,note_on,1,0,0,,12,,,71,127
17049,note_on,67,0,0,,0,,,72,127
17055,note_off,6,0,0,,12,,,71,127
17116,note_on,61,0,0,,12,,,71,127
17122,note_off,6,0,0,,0,,,72,127
17183,note_on,61,0,0,,0,,,72,127
17189,note_off,6,0,0,,12,,,71,127
17250,note_on,61,0,0,,12,,,71,127
17256,note_off,6,0,0,,0,,,72,127
17315,note_off,59,0,0,,2,,,62,127
17316,note_on,1,0,0,,4,,,64,127
17316,note_on,0,0,0,,0,,,72,127
17322,note_off,6,0,0,,12,,,71,127
17383,note_on,61,0,0,,12,,,71,127
17389,note_off,6,0,0,,0,,,72,127
17450,note_on,61,0,0,,0,,,72,127
17456,note_off,6,0,0,,12,,,71,127
17517,note_on,61,0,0,,12,,,71,127
17523,note_off,6,0,0,,0,,,72,127
17584,note_on,61,0,0,,10,,,69,127
17590,note_off,6,0,0,,12,,,71,127
17651,note_on,61,0,0,,8,,,68,127
17657,note_off,6,0,0,,10,,,69,127
17716,note_off,59,0,0,,4,,,64,127
17717,note_on,1,0,0,,10,,,57,127
17717,note_on,0,0,0,,10,,,69,127
17723,note_off,6,0,0,,8,,,68,127
18116,note_off,393,0,0,,10,,,69,127
18116,note_off,0,0,0,,10,,,57,127
18117,note_on,1,0,0,,8,,,80,127
18117,note_on,0,0,0,,12,,,83,127
18517,note_off,400,0,0,,12,,,83,127
18517,note_off,0,0,0,,8,,,80,127
18518,note_on,1,0,0,,10,,,81,127
18518,note_on,0,0,0,,0,,,84,127
18919,note_on,401,0,0,,8,,,68,127
18919,note_on,0,0,0,,12,,,71,127
19118,note_off,199,0,0,,0,,,84,127
19118,note_off,0,0,0,,10,,,81,127
19318,note_off,200,0,0,,12,,,71,127
19318,note_off,0,0,0,,8,,,68,127
19319,note_on,1,0,0,,10,,,69,127
19319,note_on,0,0,0,,0,,,72,127
19720,note_on,401,0,0,,8,,,56,127
19720,note_on,0,0,0,,12,,,59,127
19883,note_off,163,0,0,,0,,,72,127
19883,note_off,0,0,0,,10,,,69,127
20120,note_off,237,0,0,,12,,,59,127
20120,note_off,0,0,0,,8,,,56,127
20121,note_on,1,0,0,,10,,,57,127
20121,note_on,0,0,0,,0,,,60,127
20521,note_off,400,0,0,,0,,,60,127
20521,note_off,0,0,0,,10,,,57,127
20522,note_on,1,0,0,,5,,,53,127
20522,note_on,0,0,0,,4,,,64,127
20589,note_on,67,0,0,,2,,,62,127
20595,note_off,6,0,0,,4,,,64,127
20656,note_on,61,0,0,,4,,,64,127
20662,note_off,6,0,0,,2,,,62,127
20723,note_on,61,0,0,,2,,,62,127
20729,note_off,6,0,0,,4,,,64,127
20790,note_on,61,0,0,,0,,,60,127
20796,note_off,6,0,0,,2,,,62,127
20857,note_on,61,0,0,,2,,,62,127
20863,note_off,6,0,0,,0,,,60,127
20922,note_off,59,0,0,,5,,,53,127
20923,note_on,1,0,0,,4,,,52,127
20923,note_on,0,0,0,,4,,,64,127
20929,note_off,6,0,0,,2,,,62,127
21322,note_off,393,0,0,,4,,,64,127
21322,note_off,0,0,0,,4,,,52,127
21323,note_on,1,0,0,,8,,,80,127
21323,note_on,0,0,0,,12,,,83,127
21723,note_off,400,0,0,,12,,,83,127
21723,note_off,0,0,0,,8,,,80,127
21724,note_on,1,0,0,,10,,,81,127
21724,note_on,0,0,0,,0,,,84,127
22124,note_off,400,0,0,,0,,,84,127
22124,note_off,0,0,0,,10,,,81,127
22125,note_on,1,0,0,,8,,,68,127
22125,note_on,0,0,0,,12,,,71,127
22525,note_off,400,0,0,,12,,,71,127
22525,note_off,0,0,0,,8,,,68,127
22526,note_on,1,0,0,,10,,,69,127
22526,note_on,0,0,0,,0,,,72,127
22926,note_off,400,0,0,,0,,,72,127
22926,note_off,0,0,0,,10,,,69,127
22927,note_on,1,0,0,,8,,,56,127
22927,note_on,0,0,0,,12,,,59,127
23327,note_off,400,0,0,,12,,,59,127
23327,note_off,0,0,0,,8,,,56,127
23328,note_on,1,0,0,,10,,,57,127
23328,note_on,0,0,0,,0,,,60,127
23728,note_off,400,0,0,,0,,,60,127
23728,note_off,0,0,0,,10,,,57,127
23729,note_on,1,0,0,,5,,,53,127
23729,note_on,0,0,0,,4,,,64,127
23796,note_on,67,0,0,,2,,,62,127
23802,note_off,6,0,0,,4,,,64,127
23863,note_on,61,0,0,,4,,,64,127
23869,note_off,6,0,0,,2,,,62,127
23930,note_on,61,0,0,,2,,,62,127
23936,note_off,6,0,0,,4,,,64,127
23997,note_on,61,0,0,,0,,,60,127
24003,note_off,6,0,0,,2,,,62,127
24064,note_on,61,0,0,,2,,,62,127
24070,note_off,6,0,0,,0,,,60,127
24129,note_off,59,0,0,,5,,,53,127
24130,note_on,1,0,0,,4,,,52,127
24130,note_on,0,0,0,,4,,,64,127
24136,note_off,6,0,0,,2,,,62,127
24529,note_off,393,0,0,,4,,,64,127
24530,note_on,1,0,0,,4,,,64,127
24930,note_off,400,0,0,,4,,,52,127
24931,note_on,1,0,0,,0,,,72,127
25331,note_off,400,0,0,,4,,,64,127
25332,note_on,1,0,0,,0,,,48,127
25332,note_on,0,0,0,,4,,,64,127
25732,note_off,400,0,0,,4,,,64,127
25732,note_off,0,0,0,,0,,,48,127
25732,note_off,0,0,0,,0,,,72,127
25733,note_on,1,0,0,,7,,,43,127
25733,note_on,0,0,0,,2,,,62,127
25733,note_on,0,0,0,,12,,,71,127
25866,note_off,133,0,0,,12,,,71,127
25867,note_on,1,0,0,,2,,,74,127
26000,note_off,133,0,0,,2,,,74,127
26001,note_on,1,0,0,,0,,,72,127
26134,note_off,133,0,0,,0,,,72,127
26134,note_off,0,0,0,,7,,,43,127
26135,note_on,1,0,0,,7,,,55,127
26135,note_on,0,0,0,,12,,,71,127
26268,note_off,133,0,0,,12,,,71,127
26269,note_on,1,0,0,,10,,,69,127
26402,note_off,133,0,0,,10,,,69,127
26403,note_on,1,0,0,,7,,,67,127
26536,note_off,133,0,0,,7,,,67,127
26536,note_off,0,0,0,,7,,,55,127
26537,note_on,1,0,0,,10,,,57,127
26537,note_on,0,0,0,,7,,,67,127
26670,note_off,133,0,0,,7,,,67,127
26671,note_on,1,0,0,,11,,,70,127
26804,note_off,133,0,0,,11,,,70,127
26805,note_on,1,0,0,,10,,,69,127
26938,note_off,133,0,0,,10,,,69,127
26938,note_off,0,0,0,,2,,,62,127
26939,note_on,1,0,0,,10,,,45,127
26939,note_on,0,0,0,,1,,,61,127
26939,note_on,0,0,0,,7,,,67,127
27072,note_off,133,0,0,,7,,,67,127
27073,note_on,1,0,0,,5,,,65,127
27206,note_off,133,0,0,,5,,,65,127
27207,note_on,1,0,0,,4,,,64,127
27340,note_off,133,0,0,,4,,,64,127
27340,note_off,0,0,0,,1,,,61,127
27340,note_off,0,0,0,,10,,,45,127
27340,note_off,0,0,0,,10,,,57,127
27341,note_on,1,0,0,,2,,,50,127
27341,note_on,0,0,0,,5,,,65,127
27474,note_off,133,0,0,,5,,,65,127
27475,note_on,1,0,0,,2,,,62,127
27608,note_off,133,0,0,,2,,,62,127
27609,note_on,1,0,0,,5,,,65,127
27742,note_off,133,0,0,,5,,,65,127
27743,note_on,1,0,0,,8,,,68,127
27876,note_off,133,0,0,,8,,,68,127
27877,note_on,1,0,0,,2,,,62,127
27943,note_off,66,0,0,,2,,,50,127
28010,note_off,67,0,0,,2,,,62,127
28011,note_on,1,0,0,,12,,,71,127
28144,note_off,133,0,0,,12,,,71,127
28145,note_on,1,0,0,,2,,,74,127
28546,note_on,401,0,0,,4,,,52,127
28546,note_on,0,0,0,,4,,,64,127
28946,note_off,400,0,0,,4,,,52,127
28946,note_off,0,0,0,,2,,,74,127
28947,note_on,1,0,0,,10,,,45,127
28947,note_on,0,0,0,,0,,,72,127
29080,note_off,133,0,0,,0,,,72,127
29081,note_on,1,0,0,,4,,,76,127
29214,note_off,133,0,0,,4,,,76,127
29215,note_on,1,0,0,,2,,,74,127
29348,note_off,133,0,0,,2,,,74,127
29348,note_off,0,0,0,,10,,,45,127
29349,note_on,1,0,0,,10,,,57,127
29349,note_on,0,0,0,,0,,,72,127
29482,note_off,133,0,0,,0,,,72,127
29483,note_on,1,0,0,,12,,,71,127
29616,note_off,133,0,0,,12,,,71,127
29617,note_on,1,0,0,,10,,,69,127
29750,note_off,133,0,0,,10,,,69,127
29750,note_off,0,0,0,,10,,,57,127
29751,note_on,1,0,0,,12,,,59,127
29751,note_on,0,0,0,,10,,,69,127
29884,note_off,133,0,0,,10,,,69,127
29885,note_on,1,0,0,,0,,,72,127
30018,note_off,133,0,0,,0,,,72,127
30019,note_on,1,0,0,,12,,,71,127
30147,note_off,128,0,0,,4,,,64,127
30151,note_off,4,0,0,,12,,,71,127
30152,note_on,1,0,0,,12,,,47,127
30152,note_on,0,0,0,,3,,,63,127
30152,note_on,0,0,0,,10,,,69,127
30285,note_off,133,0,0,,10,,,69,127
30286,note_on,1,0,0,,7,,,67,127
30419,note_off,133,0,0,,7,,,67,127
30420,note_on,1,0,0,,6,,,66,127
30553,note_off,133,0,0,,6,,,66,127
30553,note_off,0,0,0,,3,,,63,127
30553,note_off,0,0,0,,12,,,47,127
30553,note_off,0,0,0,,12,,,59,127
30554,note_on,1,0,0,,4,,,52,127
30554,note_on,0,0,0,,7,,,67,127
30687,note_off,133,0,0,,7,,,67,127
30688,note_on,1,0,0,,4,,,64,127
30821,note_off,133,0,0,,4,,,64,127
30822,note_on,1,0,0,,7,,,67,127
30955,note_off,133,0,0,,7,,,67,127
30955,note_off,0,0,0,,4,,,52,127
30956,note_on,1,0,0,,4,,,64,127
30956,note_on,0,0,0,,7,,,79,127
30956,note_on,0,0,0,,12,,,71,127
31356,note_off,400,0,0,,12,,,71,127
31356,note_off,0,0,0,,7,,,79,127
31356,note_off,0,0,0,,4,,,64,127
31357,note_on,1,0,0,,10,,,57,127
31357,note_on,0,0,0,,6,,,78,127
31357,note_on,0,0,0,,10,,,69,127
31757,note_off,400,0,0,,10,,,69,127
31757,note_off,0,0,0,,6,,,78,127
31757,note_off,0,0,0,,10,,,57,127
31758,note_on,1,0,0,,0,,,60,127
31758,note_on,0,0,0,,10,,,69,127
31758,note_on,0,0,0,,4,,,76,127
31891,note_off,133,0,0,,4,,,76,127
31892,note_on,1,0,0,,3,,,75,127
32025,note_off,133,0,0,,3,,,75,127
32026,note_on,1,0,0,,4,,,76,127
32159,note_off,133,0,0,,4,,,76,127
32159,note_off,0,0,0,,10,,,69,127
32159,note_off,0,0,0,,0,,,60,127
32160,note_on,1,0,0,,12,,,59,127
32160,note_on,0,0,0,,6,,,66,127
32160,note_on,0,0,0,,3,,,75,127
32160,note_on,0,0,0,,12,,,71,127
32560,note_off,400,0,0,,12,,,71,127
32560,note_off,0,0,0,,3,,,75,127
32560,note_off,0,0,0,,6,,,66,127
32560,note_off,0,0,0,,12,,,59,127
32561,note_on,1,0,0,,6,,,78,127
32561,note_on,0,0,0,,10,,,81,127
32961,note_off,400,0,0,,10,,,81,127
32961,note_off,0,0,0,,6,,,78,127
32962,note_on,1,0,0,,7,,,79,127
32962,note_on,0,0,0,,12,,,83,127
33363,note_on,401,0,0,,6,,,66,127
33363,note_on,0,0,0,,10,,,69,127
33562,note_off,199,0,0,,12,,,83,127
33562,note_off,0,0,0,,7,,,79,127
33762,note_off,200,0,0,,10,,,69,127
33762,note_off,0,0,0,,6,,,66,127
33763,note_on,1,0,0,,7,,,67,127
33763,note_on,0,0,0,,12,,,71,127
34164,note_on,401,0,0,,6,,,54,127
34164,note_on,0,0,0,,10,,,57,127
34327,note_off,163,0,0,,12,,,71,127
34327,note_off,0,0,0,,7,,,67,127
34564,note_off,237,0,0,,10,,,57,127
34564,note_off,0,0,0,,6,,,54,127
34565,note_on,1,0,0,,7,,,55,127
34565,note_on,0,0,0,,12,,,59,127
34965,note_off,400,0,0,,12,,,59,127
34965,note_off,0,0,0,,7,,,55,127
34966,note_on,1,0,0,,0,,,48,127
34966,note_on,0,0,0,,4,,,64,127
35366,note_off,400,0,0,,4,,,64,127
35366,note_off,0,0,0,,0,,,48,127
35367,note_on,1,0,0,,12,,,47,127
35367,note_on,0,0,0,,3,,,63,127
35500,note_off,133,0,0,,3,,,63,127
35501,note_on,1,0,0,,1,,,61,127
35634,note_off,133,0,0,,1,,,61,127
35635,note_on,1,0,0,,12,,,59,127
35768,note_off,133,0,0,,12,,,59,127
35768,note_off,0,0,0,,12,,,47,127
35769,note_on,1,0,0,,6,,,78,127
35769,note_on,0,0,0,,10,,,81,127
36169,note_off,400,0,0,,10,,,81,127
36169,note_off,0,0,0,,6,,,78,127
36170,note_on,1,0,0,,7,,,79,127
36170,note_on,0,0,0,,12,,,83,127
36570,note_off,400,0,0,,12,,,83,127
36570,note_off,0,0,0,,7,,,79,127
36571,note_on,1,0,0,,6,,,66,127
36571,note_on,0,0,0,,10,,,69,127
36971,note_off,400,0,0,,10,,,69,127
36971,note_off,0,0,0,,6,,,66,127
36972,note_on,1,0,0,,7,,,67,127
36972,note_on,0,0,0,,12,,,71,127
37372,note_off,400,0,0,,12,,,71,127
37372,note_off,0,0,0,,7,,,67,127
37373,note_on,1,0,0,,6,,,54,127
37373,note_on,0,0,0,,10,,,57,127
37773,note_off,400,0,0,,10,,,57,127
37773,note_off,0,0,0,,6,,,54,127
37774,note_on,1,0,0,,7,,,55,127
37774,note_on,0,0,0,,12,,,59,127
38174,note_off,400,0,0,,12,,,59,127
38174,note_off,0,0,0,,7,,,55,127
38175,note_on,1,0,0,,0,,,48,127
38175,note_on,0,0,0,,4,,,64,127
38575,note_off,400,0,0,,4,,,64,127
38575,note_off,0,0,0,,0,,,48,127
38576,note_on,1,0,0,,12,,,47,127
38576,note_on,0,0,0,,3,,,63,127
38709,note_off,133,0,0,,3,,,63,127
38710,note_on,1,0,0,,12,,,59,127
38843,note_off,133,0,0,,12,,,59,127
38844,note_on,1,0,0,,3,,,63,127
38977,note_off,133,0,0,,3,,,63,127
38978,note_on,1,0,0,,0,,,60,127
38978,note_on,0,0,0,,10,,,69,127
39378,note_off,400,0,0,,10,,,69,127
39378,note_off,0,0,0,,0,,,60,127
39379,note_on,1,0,0,,7,,,67,127
39379,note_on,0,0,0,,12,,,59,127
39779,note_off,400,0,0,,12,,,59,127
39779,note_off,0,0,0,,7,,,67,127
39779,note_off,0,0,0,,12,,,47,127
39780,note_on,1,0,0,,12,,,47,127
39780,note_on,0,0,0,,6,,,66,127
39780,note_on,0,0,0,,10,,,57,127
40180,note_off,400,0,0,,6,,,66,127
40180,note_off,0,0,0,,12,,,47,127
40181,note_on,1,0,0,,0,,,48,127
40181,note_on,0,0,0,,4,,,64,127
40581,note_off,400,0,0,,4,,,64,127
40581,note_off,0,0,0,,0,,,48,127
40581,note_off,0,0,0,,10,,,57,127
40582,note_on,1,0,0,,10,,,45,127
40582,note_on,0,0,0,,0,,,72,127
40582,note_on,0,0,0,,4,,,64,127
40982,note_off,400,0,0,,0,,,72,127
40982,note_off,0,0,0,,10,,,45,127
40983,note_on,1,0,0,,12,,,47,127
40983,note_on,0,0,0,,12,,,71,127
41116,note_off,133,0,0,,12,,,71,127
41117,note_on,1,0,0,,10,,,69,127
41250,note_off,133,0,0,,10,,,69,127
41251,note_on,1,0,0,,7,,,67,127
41384,note_off,133,0,0,,7,,,67,127
41384,note_off,0,0,0,,4,,,64,127
41385,note_on,1,0,0,,12,,,59,127
41385,note_on,0,0,0,,3,,,63,127
41385,note_on,0,0,0,,6,,,66,127
41518,note_off,133,0,0,,6,,,66,127
41519,note_on,1,0,0,,4,,,64,127
41652,note_off,133,0,0,,4,,,64,127
41652,note_off,0,0,0,,3,,,63,127
41653,note_on,1,0,0,,3,,,63,127
41786,note_off,133,0,0,,3,,,63,127
41786,note_off,0,0,0,,12,,,59,127
41786,note_off,0,0,0,,12,,,47,127
41787,note_on,1,0,0,,4,,,52,127
41787,note_on,0,0,0,,4,,,64,127
42187,note_off,400,0,0,,4,,,64,127
42188,note_on,1,0,0,,12,,,71,127
42588,note_off,400,0,0,,12,,,71,127
42588,note_off,0,0,0,,4,,,52,127
42589,note_on,1,0,0,,12,,,83,127
42990,note_on,401,0,0,,7,,,55,127
42990,note_on,0,0,0,,4,,,64,127
42990,note_on,0,0,0,,12,,,71,127
43390,note_off,400,0,0,,12,,,71,127
43390,note_off,0,0,0,,4,,,64,127
43390,note_off,0,0,0,,7,,,55,127
43390,note_off,0,0,0,,12,,,83,127
43391,note_on,1,0,0,,10,,,57,127
43391,note_on,0,0,0,,6,,,66,127
43391,note_on,0,0,0,,0,,,72,127
43391,note_on,0,0,0,,10,,,81,127
43524,note_off,133,0,0,,10,,,81,127
43525,note_on,1,0,0,,7,,,79,127
43658,note_off,133,0,0,,7,,,79,127
43659,note_on,1,0,0,,6,,,78,127
43792,note_off,133,0,0,,6,,,78,127
43792,note_off,0,0,0,,0,,,72,127
43792,note_off,0,0,0,,6,,,66,127
43792,note_off,0,0,0,,10,,,57,127
43793,note_on,1,0,0,,4,,,64,127
43793,note_on,0,0,0,,0,,,60,127
43793,note_on,0,0,0,,4,,,76,127
43793,note_on,0,0,0,,10,,,69,127
44193,note_off,400,0,0,,10,,,69,127
44193,note_off,0,0,0,,0,,,60,127
44193,note_off,0,0,0,,4,,,64,127
44194,note_on,1,0,0,,12,,,59,127
44194,note_on,0,0,0,,7,,,67,127
44194,note_on,0,0,0,,12,,,71,127
44594,note_off,400,0,0,,7,,,67,127
44594,note_off,0,0,0,,4,,,76,127
44595,note_on,1,0,0,,6,,,66,127
44595,note_on,0,0,0,,3,,,75,127
44995,note_off,400,0,0,,3,,,75,127
44995,note_off,0,0,0,,6,,,66,127
44995,note_off,0,0,0,,12,,,71,127
44995,note_off,0,0,0,,12,,,59,127
44996,note_on,1,0,0,,4,,,52,127
44996,note_on,0,0,0,,4,,,64,127
44996,note_on,0,0,0,,4,,,76,127
45396,note_off,400,0,0,,4,,,76,127
45396,note_off,0,0,0,,4,,,64,127
45396,note_off,0,0,0,,4,,,52,127
45397,note_on,1,0,0,,10,,,69,127
45397,note_on,0,0,0,,4,,,64,127
45397,note_on,0,0,0,,6,,,78,127
45397,note_on,0,0,0,,3,,,75,127
45530,note_off,133,0,0,,6,,,78,127
45530,note_off,0,0,0,,10,,,69,127
45531,note_on,1,0,0,,12,,,71,127
45531,note_on,0,0,0,,7,,,79,127
45664,note_off,133,0,0,,7,,,79,127
45664,note_off,0,0,0,,12,,,71,127
45665,note_on,1,0,0,,0,,,72,127
45665,note_on,0,0,0,,10,,,81,127
45798,note_off,133,0,0,,10,,,81,127
45798,note_off,0,0,0,,0,,,72,127
45798,note_off,0,0,0,,3,,,75,127
45798,note_off,0,0,0,,4,,,64,127
45799,note_on,1,0,0,,12,,,71,127
45799,note_on,0,0,0,,4,,,64,127
45799,note_on,0,0,0,,4,,,76,127
45799,note_on,0,0,0,,7,,,79,127
46199,note_off,400,0,0,,7,,,79,127
46199,note_off,0,0,0,,4,,,76,127
46199,note_off,0,0,0,,4,,,64,127
46199,note_off,0,0,0,,12,,,71,127
46200,note_on,1,0,0,,4,,,64,127
46200,note_on,0,0,0,,10,,,69,127
46200,note_on,0,0,0,,3,,,75,127
46200,note_on,0,0,0,,6,,,78,127
46333,note_off,133,0,0,,6,,,78,127
46333,note_off,0,0,0,,10,,,69,127
46334,note_on,1,0,0,,12,,,71,127
46334,note_on,0,0,0,,7,,,79,127
46467,note_off,133,0,0,,7,,,79,127
46467,note_off,0,0,0,,12,,,71,127
46468,note_on,1,0,0,,0,,,72,127
46468,note_on,0,0,0,,10,,,81,127
46601,note_off,133,0,0,,10,,,81,127
46601,note_off,0,0,0,,0,,,72,127
46601,note_off,0,0,0,,3,,,75,127
46601,note_off,0,0,0,,4,,,64,127
46602,note_on,1,0,0,,4,,,64,127
46602,note_on,0,0,0,,12,,,71,127
46602,note_on,0,0,0,,4,,,76,127
46602,note_on,0,0,0,,7,,,79,127
47002,note_off,400,0,0,,7,,,79,127
47002,note_off,0,0,0,,4,,,76,127
47002,note_off,0,0,0,,12,,,71,127
47002,note_off,0,0,0,,4,,,64,127
47003,note_on,1,0,0,,10,,,69,127
47003,note_on,0,0,0,,4,,,64,127
47003,note_on,0,0,0,,6,,,78,127
47003,note_on,0,0,0,,3,,,75,127
47136,note_off,133,0,0,,6,,,78,127
47136,note_off,0,0,0,,10,,,69,127
47137,note_on,1,0,0,,12,,,71,127
47137,note_on,0,0,0,,7,,,79,127
47270,note_off,133,0,0,,7,,,79,127
47270,note_off,0,0,0,,12,,,71,127
47271,note_on,1,0,0,,0,,,72,127
47271,note_on,0,0,0,,10,,,81,127
47404,note_off,133,0,0,,10,,,81,127
47404,note_off,0,0,0,,0,,,72,127
47404,note_off,0,0,0,,3,,,75,127
47404,note_off,0,0,0,,4,,,64,127
47405,note_on,1,0,0,,4,,,64,127
47405,note_on,0,0,0,,12,,,71,127
47405,note_on,0,0,0,,7,,,79,127
47405,note_on,0,0,0,,4,,,76,127
47805,note_off,400,0,0,,4,,,76,127
47805,note_off,0,0,0,,7,,,79,127
47805,note_off,0,0,0,,12,,,71,127
47805,note_off,0,0,0,,4,,,64,127
47806,note_on,1,0,0,,4,,,64,127
47806,note_on,0,0,0,,10,,,69,127
47806,note_on,0,0,0,,6,,,78,127
47806,note_on,0,0,0,,3,,,75,127
47939,note_off,133,0,0,,6,,,78,127
47939,note_off,0,0,0,,10,,,69,127
47940,note_on,1,0,0,,12,,,71,127
47940,note_on,0,0,0,,7,,,79,127
48073,note_off,133,0,0,,7,,,79,127
48073,note_off,0,0,0,,12,,,71,127
48074,note_on,1,0,0,,0,,,72,127
48074,note_on,0,0,0,,10,,,81,127
48207,note_off,133,0,0,,10,,,81,127
48207,note_off,0,0,0,,0,,,72,127
48207,note_off,0,0,0,,3,,,75,127
48207,note_off,0,0,0,,4,,,64,127
48208,note_on,1,0,0,,12,,,71,127
48208,note_on,0,0,0,,4,,,64,127
48208,note_on,0,0,0,,7,,,79,127
48208,note_on,0,0,0,,4,,,76,127
48341,note_off,133,0,0,,7,,,79,127
48342,note_on,1,0,0,,6,,,78,127
48475,note_off,133,0,0,,6,,,78,127
48476,note_on,1,0,0,,7,,,79,127
48609,note_off,133,0,0,,7,,,79,127
48609,note_off,0,0,0,,4,,,76,127
48609,note_off,0,0,0,,4,,,64,127
48609,note_off,0,0,0,,12,,,71,127
48610,note_on,1,0,0,,10,,,69,127
48610,note_on,0,0,0,,10,,,57,127
48610,note_on,0,0,0,,10,,,81,127
48610,note_on,0,0,0,,0,,,72,127
48743,note_off,133,0,0,,10,,,81,127
48744,note_on,1,0,0,,7,,,79,127
48877,note_off,133,0,0,,7,,,79,127
48878,note_on,1,0,0,,6,,,78,127
49011,note_off,133,0,0,,6,,,78,127
49011,note_off,0,0,0,,0,,,72,127
49011,note_off,0,0,0,,10,,,57,127
49011,note_off,0,0,0,,10,,,69,127
49012,note_on,1,0,0,,7,,,67,127
49012,note_on,0,0,0,,12,,,59,127
49012,note_on,0,0,0,,4,,,76,127
49012,note_on,0,0,0,,12,,,71,127
49412,note_off,400,0,0,,12,,,71,127
49412,note_off,0,0,0,,4,,,76,127
49412,note_off,0,0,0,,12,,,59,127
49412,note_off,0,0,0,,7,,,67,127
49413,note_on,1,0,0,,6,,,66,127
49413,note_on,0,0,0,,12,,,59,127
49413,note_on,0,0,0,,10,,,69,127
49413,note_on,0,0,0,,3,,,75,127
49813,note_off,400,0,0,,3,,,75,127
49813,note_off,0,0,0,,10,,,69,127
49813,note_off,0,0,0,,12,,,59,127
49813,note_off,0,0,0,,6,,,66,127
49814,note_on,1,0,0,,4,,,64,127
49814,note_on,0,0,0,,4,,,76,127
49814,note_on,0,0,0,,7,,,67,127
50214,note_off,400,0,0,,7,,,67,127
50214,note_off,0,0,0,,4,,,76,127
50214,note_off,0,0,0,,4,,,64,127
50215,note_on,1,0,0,,6,,,66,127
50215,note_on,0,0,0,,12,,,59,127
50215,note_on,0,0,0,,3,,,75,127
50215,note_on,0,0,0,,10,,,81,127
50348,note_off,133,0,0,,10,,,81,127
50348,note_off,0,0,0,,6,,,66,127
50349,note_on,1,0,0,,7,,,67,127
50349,note_on,0,0,0,,12,,,83,127
50482,note_off,133,0,0,,12,,,83,127
50482,note_off,0,0,0,,7,,,67,127
50483,note_on,1,0,0,,10,,,69,127
50483,note_on,0,0,0,,0,,,84,127
50616,note_off,133,0,0,,0,,,84,127
50616,note_off,0,0,0,,10,,,69,127
50616,note_off,0,0,0,,3,,,75,127
50616,note_off,0,0,0,,12,,,59,127
50617,note_on,1,0,0,,7,,,67,127
50617,note_on,0,0,0,,12,,,59,127
50617,note_on,0,0,0,,12,,,83,127
50617,note_on,0,0,0,,4,,,76,127
51017,note_off,400,0,0,,4,,,76,127
51017,note_off,0,0,0,,12,,,83,127
51017,note_off,0,0,0,,12,,,59,127
51017,note_off,0,0,0,,7,,,67,127
51018,note_on,1,0,0,,12,,,59,127
51018,note_on,0,0,0,,6,,,66,127
51018,note_on,0,0,0,,10,,,81,127
51018,note_on,0,0,0,,3,,,75,127
51151,note_off,133,0,0,,10,,,81,127
51151,note_off,0,0,0,,6,,,66,127
51152,note_on,1,0,0,,7,,,67,127
51152,note_on,0,0,0,,12,,,83,127
51285,note_off,133,0,0,,12,,,83,127
51285,note_off,0,0,0,,7,,,67,127
51286,note_on,1,0,0,,10,,,69,127
51286,note_on,0,0,0,,0,,,84,127
51419,note_off,133,0,0,,0,,,84,127
51419,note_off,0,0,0,,10,,,69,127
51419,note_off,0,0,0,,3,,,75,127
51419,note_off,0,0,0,,12,,,59,127
51420,note_on,1,0,0,,7,,,67,127
51420,note_on,0,0,0,,12,,,59,127
51420,note_on,0,0,0,,12,,,83,127
51420,note_on,0,0,0,,4,,,76,127
51820,note_off,400,0,0,,4,,,76,127
51820,note_off,0,0,0,,12,,,83,127
51820,note_off,0,0,0,,12,,,59,127
51820,note_off,0,0,0,,7,,,67,127
51821,note_on,1,0,0,,6,,,66,127
51821,note_on,0,0,0,,12,,,59,127
51821,note_on,0,0,0,,3,,,75,127
51821,note_on,0,0,0,,10,,,81,127
51954,note_off,133,0,0,,10,,,81,127
51954,note_off,0,0,0,,6,,,66,127
51955,note_on,1,0,0,,7,,,67,127
51955,note_on,0,0,0,,12,,,83,127
52088,note_off,133,0,0,,12,,,83,127
52088,note_off,0,0,0,,7,,,67,127
52089,note_on,1,0,0,,10,,,69,127
52089,note_on,0,0,0,,0,,,84,127
52222,note_off,133,0,0,,0,,,84,127
52222,note_off,0,0,0,,10,,,69,127
52222,note_off,0,0,0,,3,,,75,127
52222,note_off,0,0,0,,12,,,59,127
52223,note_on,1,0,0,,12,,,59,127
52223,note_on,0,0,0,,7,,,67,127
52223,note_on,0,0,0,,4,,,76,127
52223,note_on,0,0,0,,12,,,83,127
52623,note_off,400,0,0,,12,,,83,127
52623,note_off,0,0,0,,4,,,76,127
52623,note_off,0,0,0,,7,,,67,127
52623,note_off,0,0,0,,12,,,59,127
52624,note_on,1,0,0,,6,,,66,127
52624,note_on,0,0,0,,12,,,59,127
52624,note_on,0,0,0,,10,,,81,127
52624,note_on,0,0,0,,3,,,75,127
52757,note_off,133,0,0,,10,,,81,127
52757,note_off,0,0,0,,6,,,66,127
52758,note_on,1,0,0,,7,,,67,127
52758,note_on,0,0,0,,12,,,83,127
52891,note_off,133,0,0,,12,,,83,127
52891,note_off,0,0,0,,7,,,67,127
52892,note_on,1,0,0,,10,,,69,127
52892,note_on,0,0,0,,0,,,84,127
53025,note_off,133,0,0,,0,,,84,127
53025,note_off,0,0,0,,10,,,69,127
53025,note_off,0,0,0,,3,,,75,127
53025,note_off,0,0,0,,12,,,59,127
53026,note_on,1,0,0,,7,,,67,127
53026,note_on,0,0,0,,4,,,64,127
53026,note_on,0,0,0,,12,,,83,127
53026,note_on,0,0,0,,4,,,76,127
53159,note_off,133,0,0,,12,,,83,127
53160,note_on,1,0,0,,10,,,81,127
53293,note_off,133,0,0,,10,,,81,127
53294,note_on,1,0,0,,12,,,83,127
53427,note_off,133,0,0,,12,,,83,127
53427,note_off,0,0,0,,4,,,76,127
53427,note_off,0,0,0,,4,,,64,127
53427,note_off,0,0,0,,7,,,67,127
53428,note_on,1,0,0,,10,,,69,127
53428,note_on,0,0,0,,4,,,64,127
53428,note_on,0,0,0,,0,,,84,127
53428,note_on,0,0,0,,4,,,76,127
53561,note_off,133,0,0,,0,,,84,127
53562,note_on,1,0,0,,12,,,83,127
53695,note_off,133,0,0,,12,,,83,127
53696,note_on,1,0,0,,10,,,81,127
53829,note_off,133,0,0,,10,,,81,127
53829,note_off,0,0,0,,4,,,64,127
53829,note_off,0,0,0,,10,,,69,127
53830,note_on,1,0,0,,4,,,64,127
53830,note_on,0,0,0,,7,,,67,127
53830,note_on,0,0,0,,7,,,79,127
54230,note_off,400,0,0,,7,,,79,127
54230,note_off,0,0,0,,7,,,67,127
54230,note_off,0,0,0,,4,,,64,127
54230,note_off,0,0,0,,4,,,76,127
54231,note_on,1,0,0,,12,,,59,127
54231,note_on,0,0,0,,6,,,66,127
54231,note_on,0,0,0,,6,,,78,127
54231,note_on,0,0,0,,3,,,75,127
54631,note_off,400,0,0,,3,,,75,127
54631,note_off,0,0,0,,6,,,78,127
54631,note_off,0,0,0,,6,,,66,127
54631,note_off,0,0,0,,12,,,59,127
54632,note_on,1,0,0,,4,,,52,127
54632,note_on,0,0,0,,4,,,64,127
54632,note_on,0,0,0,,4,,,76,127
55032,note_off,400,0,0,,4,,,76,127
55033,note_on,1,0,0,,4,,,76,127
55433,note_off,400,0,0,,4,,,76,127
55433,note_off,0,0,0,,4,,,64,127
55433,note_off,0,0,0,,4,,,52,127
55434,note_on,1,0,0,,12,,,83,127
55835,note_on,401,0,0,,7,,,55,127
55835,note_on,0,0,0,,4,,,64,127
55835,note_on,0,0,0,,12,,,71,127
56235,note_off,400,0,0,,12,,,71,127
56235,note_off,0,0,0,,4,,,64,127
56235,note_off,0,0,0,,7,,,55,127
56235,note_off,0,0,0,,12,,,83,127
56236,note_on,1,0,0,,10,,,57,127
56236,note_on,0,0,0,,6,,,66,127
56236,note_on,0,0,0,,10,,,81,127
56236,note_on,0,0,0,,0,,,72,127
56369,note_off,133,0,0,,10,,,81,127
56370,note_on,1,0,0,,7,,,79,127
56503,note_off,133,0,0,,7,,,79,127
56504,note_on,1,0,0,,6,,,78,127
56637,note_off,133,0,0,,6,,,78,127
56637,note_off,0,0,0,,0,,,72,127
56637,note_off,0,0,0,,6,,,66,127
56637,note_off,0,0,0,,10,,,57,127
56638,note_on,1,0,0,,4,,,64,127
56638,note_on,0,0,0,,0,,,60,127
56638,note_on,0,0,0,,4,,,76,127
56638,note_on,0,0,0,,10,,,69,127
57038,note_off,400,0,0,,10,,,69,127
57038,note_off,0,0,0,,0,,,60,127
57038,note_off,0,0,0,,4,,,64,127
57039,note_on,1,0,0,,12,,,59,127
57039,note_on,0,0,0,,7,,,67,127
57039,note_on,0,0,0,,12,,,71,127
57439,note_off,400,0,0,,7,,,67,127
57439,note_off,0,0,0,,4,,,76,127
57440,note_on,1,0,0,,6,,,66,127
57440,note_on,0,0,0,,3,,,75,127
57840,note_off,400,0,0,,3,,,75,127
57840,note_off,0,0,0,,6,,,66,127
57840,note_off,0,0,0,,12,,,71,127
57840,note_off,0,0,0,,12,,,59,127
57841,note_on,1,0,0,,4,,,52,127
57841,note_on,0,0,0,,4,,,76,127
58241,note_off,400,0,0,,4,,,76,127
58242,note_on,1,0,0,,4,,,64,127
58642,note_off,400,0,0,,4,,,64,127
58642,note_off,0,0,0,,4,,,52,127
58643,note_on,1,0,0,,12,,,71,127
59044,note_on,401,0,0,,4,,,52,127
59044,note_on,0,0,0,,7,,,43,127
59044,note_on,0,0,0,,12,,,59,127
59444,note_off,400,0,0,,12,,,59,127
59444,note_off,0,0,0,,7,,,43,127
59444,note_off,0,0,0,,4,,,52,127
59444,note_off,0,0,0,,12,,,71,127
59445,note_on,1,0,0,,10,,,45,127
59445,note_on,0,0,0,,4,,,52,127
59445,note_on,0,0,0,,0,,,60,127
59445,note_on,0,0,0,,10,,,69,127
59578,note_off,133,0,0,,10,,,69,127
59579,note_on,1,0,0,,7,,,67,127
59712,note_off,133,0,0,,7,,,67,127
59713,note_on,1,0,0,,6,,,66,127
59846,note_off,133,0,0,,6,,,66,127
59846,note_off,0,0,0,,0,,,60,127
59846,note_off,0,0,0,,4,,,52,127
59846,note_off,0,0,0,,10,,,45,127
59847,note_on,1,0,0,,4,,,52,127
59847,note_on,0,0,0,,0,,,48,127
59847,note_on,0,0,0,,4,,,64,127
59847,note_on,0,0,0,,10,,,57,127
60247,note_off,400,0,0,,10,,,57,127
60247,note_off,0,0,0,,0,,,48,127
60247,note_off,0,0,0,,4,,,52,127
60248,note_on,1,0,0,,7,,,55,127
60248,note_on,0,0,0,,12,,,47,127
60248,note_on,0,0,0,,12,,,59,127
60648,note_off,400,0,0,,12,,,47,127
60648,note_off,0,0,0,,7,,,55,127
60649,note_off,1,0,0,,4,,,64,127
60649,note_on,0,0,0,,6,,,54,127
60649,note_on,0,0,0,,12,,,47,127
60649,note_on,0,0,0,,3,,,63,127
60716,note_on,67,0,0,,4,,,64,127
60722,note_off,6,0,0,,3,,,63,127
60783,note_on,61,0,0,,3,,,63,127
60789,note_off,6,0,0,,4,,,64,127
61049,note_off,260,0,0,,3,,,63,127
61049,note_off,0,0,0,,12,,,47,127
61049,note_off,0,0,0,,6,,,54,127
61049,note_off,0,0,0,,12,,,59,127
61050,note_on,1,0,0,,4,,,40,127
61050,note_on,0,0,0,,4,,,52,127
61050,note_on,0,0,0,,4,,,64,127
61551,note_on,501,0,0,,12,,,71,127
61565,note_off,14,0,0,,4,,,64,127
61677,note_off,112,0,0,,4,,,52,127
61677,note_off,0,0,0,,4,,,40,127
61951,note_off,274,0,0,,12,,,71,127
61952,note_on,1,0,0,,12,,,71,127
62353,note_on,401,0,0,,2,,,62,127
62353,note_on,0,0,0,,5,,,65,127
62753,note_off,400,0,0,,5,,,65,127
62753,note_off,0,0,0,,2,,,62,127
62754,note_on,1,0,0,,4,,,64,127
62754,note_on,0,0,0,,0,,,60,127
63154,note_off,400,0,0,,0,,,60,127
63154,note_off,0,0,0,,4,,,64,127
63154,note_off,0,0,0,,12,,,71,127
63155,note_on,1,0,0,,4,,,76,127
63155,note_on,0,0,0,,4,,,64,127
63155,note_on,0,0,0,,0,,,60,127
63421,note_off,266,0,0,,4,,,76,127
63422,note_on,1,0,0,,10,,,69,127
63555,note_off,133,0,0,,10,,,69,127
63555,note_off,0,0,0,,0,,,60,127
63555,note_off,0,0,0,,4,,,64,127
63556,note_on,1,0,0,,10,,,69,127
63556,note_on,0,0,0,,12,,,59,127
63556,note_on,0,0,0,,2,,,62,127
63623,note_on,67,0,0,,8,,,68,127
63629,note_off,6,0,0,,10,,,69,127
63690,note_on,61,0,0,,10,,,69,127
63696,note_off,6,0,0,,8,,,68,127
63757,note_on,61,0,0,,8,,,68,127
63763,note_off,6,0,0,,10,,,69,127
63824,note_on,61,0,0,,10,,,69,127
63830,note_off,6,0,0,,8,,,68,127
63891,note_on,61,0,0,,8,,,68,127
63897,note_off,6,0,0,,10,,,69,127
63956,note_off,59,0,0,,2,,,62,127
63956,note_off,0,0,0,,12,,,59,127
63957,note_on,1,0,0,,10,,,69,127
63957,note_on,0,0,0,,4,,,64,127
63957,note_on,0,0,0,,0,,,60,127
63957,note_on,0,0,0,,10,,,57,127
63963,note_off,6,0,0,,8,,,68,127
64024,note_on,61,0,0,,8,,,68,127
64030,note_off,6,0,0,,10,,,69,127
64091,note_on,61,0,0,,10,,,69,127
64097,note_off,6,0,0,,8,,,68,127
64357,note_off,260,0,0,,10,,,69,127
64357,note_off,0,0,0,,10,,,57,127
64357,note_off,0,0,0,,0,,,60,127
64357,note_off,0,0,0,,4,,,64,127
64358,note_on,1,0,0,,12,,,71,127
64358,note_on,0,0,0,,4,,,64,127
64358,note_on,0,0,0,,12,,,59,127
64358,note_on,0,0,0,,4,,,52,127
64758,note_off,400,0,0,,12,,,71,127
64759,note_on,1,0,0,,0,,,72,127
64958,note_off,199,0,0,,0,,,72,127
64959,note_on,1,0,0,,10,,,69,127
65158,note_off,199,0,0,,10,,,69,127
65158,note_off,0,0,0,,4,,,52,127
65158,note_off,0,0,0,,12,,,59,127
65159,note_on,1,0,0,,12,,,71,127
65559,note_off,400,0,0,,4,,,64,127
65560,note_on,1,0,0,,5,,,65,127
65560,note_on,0,0,0,,2,,,62,127
65960,note_off,400,0,0,,2,,,62,127
65960,note_off,0,0,0,,5,,,65,127
65961,note_on,1,0,0,,0,,,60,127
65961,note_on,0,0,0,,4,,,64,127
66361,note_off,400,0,0,,4,,,64,127
66361,note_off,0,0,0,,0,,,60,127
66361,note_off,0,0,0,,12,,,71,127
66362,note_on,1,0,0,,4,,,76,127
66362,note_on,0,0,0,,4,,,64,127
66362,note_on,0,0,0,,0,,,60,127
66628,note_off,266,0,0,,4,,,76,127
66629,note_on,1,0,0,,10,,,69,127
66762,note_off,133,0,0,,10,,,69,127
66762,note_off,0,0,0,,0,,,60,127
66762,note_off,0,0,0,,4,,,64,127
66763,note_on,1,0,0,,10,,,69,127
66763,note_on,0,0,0,,2,,,62,127
66763,note_on,0,0,0,,12,,,59,127
66830,note_on,67,0,0,,8,,,68,127
66836,note_off,6,0,0,,10,,,69,127
66897,note_on,61,0,0,,10,,,69,127
66903,note_off,6,0,0,,8,,,68,127
66964,note_on,61,0,0,,8,,,68,127
66970,note_off,6,0,0,,10,,,69,127
67031,note_on,61,0,0,,10,,,69,127
67037,note_off,6,0,0,,8,,,68,127
67098,note_on,61,0,0,,8,,,68,127
67104,note_off,6,0,0,,10,,,69,127
67163,note_off,59,0,0,,12,,,59,127
67163,note_off,0,0,0,,2,,,62,127
67164,note_on,1,0,0,,10,,,69,127
67164,note_on,0,0,0,,10,,,57,127
67164,note_on,0,0,0,,0,,,60,127
67170,note_off,6,0,0,,8,,,68,127
67231,note_on,61,0,0,,8,,,68,127
67237,note_off,6,0,0,,10,,,69,127
67298,note_on,61,0,0,,10,,,69,127
67304,note_off,6,0,0,,8,,,68,127
67564,note_off,260,0,0,,10,,,69,127
67564,note_off,0,0,0,,0,,,60,127
67564,note_off,0,0,0,,10,,,57,127
67565,note_on,1,0,0,,12,,,71,127
67565,note_on,0,0,0,,12,,,59,127
67565,note_on,0,0,0,,4,,,52,127
67965,note_off,400,0,0,,12,,,71,127
67966,note_on,1,0,0,,4,,,64,127
68232,note_off,266,0,0,,4,,,64,127
68233,note_on,1,0,0,,4,,,76,127
68366,note_off,133,0,0,,4,,,76,127
68366,note_off,0,0,0,,4,,,52,127
68366,note_off,0,0,0,,12,,,59,127
68367,note_on,1,0,0,,4,,,76,127
68768,note_on,401,0,0,,11,,,70,127
68768,note_on,0,0,0,,7,,,67,127
69168,note_off,400,0,0,,7,,,67,127
69168,note_off,0,0,0,,11,,,70,127
69169,note_on,1,0,0,,10,,,69,127
69169,note_on,0,0,0,,5,,,65,127
69569,note_off,400,0,0,,5,,,65,127
69569,note_off,0,0,0,,10,,,69,127
69569,note_off,0,0,0,,4,,,76,127
69570,note_on,1,0,0,,10,,,81,127
69570,note_on,0,0,0,,10,,,69,127
69570,note_on,0,0,0,,5,,,65,127
69836,note_off,266,0,0,,10,,,81,127
69837,note_on,1,0,0,,2,,,74,127
69970,note_off,133,0,0,,2,,,74,127
69970,note_off,0,0,0,,5,,,65,127
69970,note_off,0,0,0,,10,,,69,127
69971,note_on,1,0,0,,2,,,74,127
69971,note_on,0,0,0,,4,,,64,127
69971,note_on,0,0,0,,7,,,67,127
70038,note_on,67,0,0,,1,,,73,127
70044,note_off,6,0,0,,2,,,74,127
70105,note_on,61,0,0,,2,,,74,127
70111,note_off,6,0,0,,1,,,73,127
70172,note_on,61,0,0,,1,,,73,127
70178,note_off,6,0,0,,2,,,74,127
70239,note_on,61,0,0,,2,,,74,127
70245,note_off,6,0,0,,1,,,73,127
70306,note_on,61,0,0,,1,,,73,127
70312,note_off,6,0,0,,2,,,74,127
70371,note_off,59,0,0,,7,,,67,127
70371,note_off,0,0,0,,4,,,64,127
70372,note_on,1,0,0,,2,,,74,127
70372,note_on,0,0,0,,5,,,65,127
70372,note_on,0,0,0,,10,,,69,127
70372,note_on,0,0,0,,2,,,62,127
70378,note_off,6,0,0,,1,,,73,127
70439,note_on,61,0,0,,1,,,73,127
70445,note_off,6,0,0,,2,,,74,127
70506,note_on,61,0,0,,2,,,74,127
70512,note_off,6,0,0,,1,,,73,127
70573,note_on,61,0,0,,1,,,73,127
70579,note_off,6,0,0,,2,,,74,127
70640,note_on,61,0,0,,2,,,74,127
70646,note_off,6,0,0,,1,,,73,127
70772,note_off,126,0,0,,2,,,74,127
70772,note_off,0,0,0,,2,,,62,127
70772,note_off,0,0,0,,10,,,69,127
70772,note_off,0,0,0,,5,,,65,127
70773,note_on,1,0,0,,4,,,76,127
70773,note_on,0,0,0,,10,,,69,127
70773,note_on,0,0,0,,10,,,57,127
70773,note_on,0,0,0,,4,,,64,127
71173,note_off,400,0,0,,4,,,76,127
71174,note_on,1,0,0,,5,,,77,127
71373,note_off,199,0,0,,5,,,77,127
71374,note_on,1,0,0,,2,,,74,127
71573,note_off,199,0,0,,2,,,74,127
71573,note_off,0,0,0,,10,,,57,127
71574,note_on,1,0,0,,4,,,76,127
71974,note_off,400,0,0,,4,,,64,127
71974,note_off,0,0,0,,10,,,69,127
71975,note_on,1,0,0,,7,,,67,127
71975,note_on,0,0,0,,11,,,70,127
72375,note_off,400,0,0,,11,,,70,127
72375,note_off,0,0,0,,7,,,67,127
72376,note_on,1,0,0,,5,,,65,127
72376,note_on,0,0,0,,10,,,69,127
72776,note_off,400,0,0,,10,,,69,127
72776,note_off,0,0,0,,5,,,65,127
72776,note_off,0,0,0,,4,,,76,127
72777,note_on,1,0,0,,10,,,81,127
72777,note_on,0,0,0,,10,,,69,127
72777,note_on,0,0,0,,5,,,65,127
73043,note_off,266,0,0,,10,,,81,127
73044,note_on,1,0,0,,2,,,74,127
73177,note_off,133,0,0,,2,,,74,127
73177,note_off,0,0,0,,5,,,65,127
73177,note_off,0,0,0,,10,,,69,127
73178,note_on,1,0,0,,2,,,74,127
73178,note_on,0,0,0,,4,,,64,127
73178,note_on,0,0,0,,7,,,67,127
73245,note_on,67,0,0,,1,,,73,127
73251,note_off,6,0,0,,2,,,74,127
73312,note_on,61,0,0,,2,,,74,127
73318,note_off,6,0,0,,1,,,73,127
73379,note_on,61,0,0,,1,,,73,127
73385,note_off,6,0,0,,2,,,74,127
73446,note_on,61,0,0,,2,,,74,127
73452,note_off,6,0,0,,1,,,73,127
73513,note_on,61,0,0,,1,,,73,127
73519,note_off,6,0,0,,2,,,74,127
73578,note_off,59,0,0,,7,,,67,127
73578,note_off,0,0,0,,4,,,64,127
73579,note_on,1,0,0,,2,,,74,127
73579,note_on,0,0,0,,10,,,69,127
73579,note_on,0,0,0,,2,,,62,127
73579,note_on,0,0,0,,5,,,65,127
73585,note_off,6,0,0,,1,,,73,127
73646,note_on,61,0,0,,1,,,73,127
73652,note_off,6,0,0,,2,,,74,127
73713,note_on,61,0,0,,2,,,74,127
73719,note_off,6,0,0,,1,,,73,127
73780,note_on,61,0,0,,1,,,73,127
73786,note_off,6,0,0,,2,,,74,127
73847,note_on,61,0,0,,2,,,74,127
73853,note_off,6,0,0,,1,,,73,127
73979,note_off,126,0,0,,2,,,74,127
73979,note_off,0,0,0,,5,,,65,127
73979,note_off,0,0,0,,2,,,62,127
73979,note_off,0,0,0,,10,,,69,127
73980,note_on,1,0,0,,4,,,76,127
73980,note_on,0,0,0,,4,,,64,127
73980,note_on,0,0,0,,10,,,69,127
73980,note_on,0,0,0,,10,,,57,127
74380,note_off,400,0,0,,4,,,76,127
74381,note_on,1,0,0,,10,,,81,127
74781,note_off,400,0,0,,10,,,81,127
74781,note_off,0,0,0,,10,,,57,127
74781,note_off,0,0,0,,10,,,69,127
74781,note_off,0,0,0,,4,,,64,127
74782,note_on,1,0,0,,11,,,82,127
74782,note_on,0,0,0,,10,,,69,127
74849,note_on,67,0,0,,10,,,81,127
74855,note_off,6,0,0,,11,,,82,127
74916,note_on,61,0,0,,11,,,82,127
74922,note_off,6,0,0,,10,,,81,127
74983,note_on,61,0,0,,10,,,81,127
74989,note_off,6,0,0,,11,,,82,127
75050,note_on,61,0,0,,11,,,82,127
75056,note_off,6,0,0,,10,,,81,127
75117,note_on,61,0,0,,10,,,81,127
75123,note_off,6,0,0,,11,,,82,127
75182,note_off,59,0,0,,10,,,69,127
75183,note_on,1,0,0,,11,,,82,127
75183,note_on,0,0,0,,7,,,67,127
75189,note_off,6,0,0,,10,,,81,127
75250,note_on,61,0,0,,10,,,81,127
75256,note_off,6,0,0,,11,,,82,127
75317,note_on,61,0,0,,11,,,82,127
75323,note_off,6,0,0,,10,,,81,127
75384,note_on,61,0,0,,10,,,81,127
75390,note_off,6,0,0,,11,,,82,127
75451,note_on,61,0,0,,11,,,82,127
75457,note_off,6,0,0,,10,,,81,127
75518,note_on,61,0,0,,10,,,81,127
75524,note_off,6,0,0,,11,,,82,127
75583,note_off,59,0,0,,7,,,67,127
75584,note_on,1,0,0,,11,,,82,127
75584,note_on,0,0,0,,10,,,69,127
75584,note_on,0,0,0,,5,,,65,127
75590,note_off,6,0,0,,10,,,81,127
75651,note_on,61,0,0,,10,,,81,127
75657,note_off,6,0,0,,11,,,82,127
75718,note_on,61,0,0,,11,,,82,127
75724,note_off,6,0,0,,10,,,81,127
75785,note_on,61,0,0,,10,,,81,127
75791,note_off,6,0,0,,11,,,82,127
75852,note_on,61,0,0,,11,,,82,127
75858,note_off,6,0,0,,10,,,81,127
75919,note_on,61,0,0,,10,,,81,127
75925,note_off,6,0,0,,11,,,82,127
75984,note_off,59,0,0,,5,,,65,127
75984,note_off,0,0,0,,10,,,69,127
75985,note_on,1,0,0,,7,,,79,127
75985,note_on,0,0,0,,4,,,64,127
75985,note_on,0,0,0,,7,,,67,127
75991,note_off,6,0,0,,10,,,81,127
76384,note_off,393,0,0,,7,,,67,127
76384,note_off,0,0,0,,4,,,64,127
76384,note_off,0,0,0,,7,,,79,127
76385,note_on,1,0,0,,5,,,77,127
76385,note_on,0,0,0,,10,,,69,127
76385,note_on,0,0,0,,2,,,62,127
76518,note_off,133,0,0,,5,,,77,127
76519,note_on,1,0,0,,4,,,76,127
76652,note_off,133,0,0,,4,,,76,127
76653,note_on,1,0,0,,2,,,74,127
76786,note_off,133,0,0,,2,,,74,127
76786,note_off,0,0,0,,2,,,62,127
76786,note_off,0,0,0,,10,,,69,127
76787,note_on,1,0,0,,0,,,72,127
76787,note_on,0,0,0,,10,,,69,127
76787,note_on,0,0,0,,5,,,65,127
76920,note_off,133,0,0,,0,,,72,127
76921,note_on,1,0,0,,12,,,71,127
77054,note_off,133,0,0,,12,,,71,127
77055,note_on,1,0,0,,0,,,72,127
77188,note_off,133,0,0,,0,,,72,127
77188,note_off,0,0,0,,5,,,65,127
77188,note_off,0,0,0,,10,,,69,127
77189,note_on,1,0,0,,12,,,71,127
77189,note_on,0,0,0,,7,,,67,127
77544,note_off,355,0,0,,12,,,71,127
77589,note_off,45,0,0,,7,,,67,127
77590,note_on,1,0,0,,12,,,71,127
77590,note_on,0,0,0,,5,,,77,127
77590,note_on,0,0,0,,5,,,65,127
77723,note_off,133,0,0,,5,,,77,127
77724,note_on,1,0,0,,7,,,79,127
77857,note_off,133,0,0,,7,,,79,127
77858,note_on,1,0,0,,10,,,81,127
77991,note_off,133,0,0,,10,,,81,127
77991,note_off,0,0,0,,5,,,65,127
77991,note_off,0,0,0,,12,,,71,127
77992,note_on,1,0,0,,0,,,72,127
77992,note_on,0,0,0,,7,,,79,127
77992,note_on,0,0,0,,4,,,64,127
78392,note_off,400,0,0,,4,,,64,127
78392,note_off,0,0,0,,7,,,79,127
78392,note_off,0,0,0,,0,,,72,127
78393,note_on,1,0,0,,5,,,77,127
78393,note_on,0,0,0,,12,,,71,127
78393,note_on,0,0,0,,2,,,62,127
78526,note_off,133,0,0,,5,,,77,127
78527,note_on,1,0,0,,4,,,76,127
78660,note_off,133,0,0,,4,,,76,127
78661,note_on,1,0,0,,5,,,77,127
78794,note_off,133,0,0,,5,,,77,127
78794,note_off,0,0,0,,2,,,62,127
78794,note_off,0,0,0,,12,,,71,127
78795,note_on,1,0,0,,4,,,76,127
78795,note_on,0,0,0,,0,,,72,127
78795,note_on,0,0,0,,0,,,60,127
78928,note_off,133,0,0,,4,,,76,127
78929,note_on,1,0,0,,5,,,77,127
79062,note_off,133,0,0,,5,,,77,127
79063,note_on,1,0,0,,7,,,79,127
79196,note_off,133,0,0,,0,,,60,127
79196,note_off,0,0,0,,0,,,72,127
79197,note_on,1,0,0,,0,,,72,127
79197,note_on,0,0,0,,4,,,64,127
79330,note_off,133,0,0,,7,,,79,127
79331,note_on,1,0,0,,5,,,77,127
79464,note_off,133,0,0,,5,,,77,127
79465,note_on,1,0,0,,7,,,79,127
79598,note_off,133,0,0,,7,,,79,127
79598,note_off,0,0,0,,4,,,64,127
79598,note_off,0,0,0,,0,,,72,127
79599,note_on,1,0,0,,0,,,72,127
79599,note_on,0,0,0,,10,,,81,127
79599,note_on,0,0,0,,5,,,65,127
79732,note_off,133,0,0,,10,,,81,127
79733,note_on,1,0,0,,7,,,79,127
79866,note_off,133,0,0,,7,,,79,127
79867,note_on,1,0,0,,5,,,77,127
80000,note_off,133,0,0,,5,,,77,127
80000,note_off,0,0,0,,5,,,65,127
80000,note_off,0,0,0,,0,,,72,127
80001,note_on,1,0,0,,0,,,72,127
80001,note_on,0,0,0,,4,,,76,127
80001,note_on,0,0,0,,6,,,66,127
80134,note_off,133,0,0,,4,,,76,127
80135,note_on,1,0,0,,2,,,74,127
80268,note_off,133,0,0,,2,,,74,127
80268,note_off,0,0,0,,0,,,72,127
80269,note_on,1,0,0,,0,,,72,127
80402,note_off,133,0,0,,0,,,72,127
80402,note_off,0,0,0,,6,,,66,127
80403,note_on,1,0,0,,12,,,71,127
80403,note_on,0,0,0,,7,,,67,127
80785,note_off,382,0,0,,7,,,67,127
80785,note_off,0,0,0,,12,,,71,127
80804,note_on,19,0,0,,12,,,83,127
80804,note_on,0,0,0,,2,,,74,127
81204,note_off,400,0,0,,2,,,74,127
81204,note_off,0,0,0,,12,,,83,127
81205,note_on,1,0,0,,0,,,84,127
81205,note_on,0,0,0,,4,,,76,127
81606,note_on,401,0,0,,12,,,71,127
81606,note_on,0,0,0,,2,,,62,127
81805,note_off,199,0,0,,4,,,76,127
81805,note_off,0,0,0,,0,,,84,127
82005,note_off,200,0,0,,2,,,62,127
82005,note_off,0,0,0,,12,,,71,127
82006,note_on,1,0,0,,0,,,72,127
82006,note_on,0,0,0,,4,,,64,127
82407,note_on,401,0,0,,12,,,59,127
82407,note_on,0,0,0,,2,,,50,127
82570,note_off,163,0,0,,4,,,64,127
82570,note_off,0,0,0,,0,,,72,127
82807,note_off,237,0,0,,2,,,50,127
82807,note_off,0,0,0,,12,,,59,127
82808,note_on,1,0,0,,0,,,60,127
82808,note_on,0,0,0,,4,,,52,127
83208,note_off,400,0,0,,4,,,52,127
83208,note_off,0,0,0,,0,,,60,127
83209,note_on,1,0,0,,0,,,60,127
83209,note_on,0,0,0,,6,,,54,127
83609,note_off,400,0,0,,6,,,54,127
83609,note_off,0,0,0,,0,,,60,127
83610,note_on,1,0,0,,12,,,59,127
83610,note_on,0,0,0,,7,,,43,127
83743,note_off,133,0,0,,12,,,59,127
83744,note_on,1,0,0,,10,,,57,127
83877,note_off,133,0,0,,10,,,57,127
83878,note_on,1,0,0,,7,,,55,127
84011,note_off,133,0,0,,7,,,55,127
84011,note_off,0,0,0,,7,,,43,127
84012,note_on,1,0,0,,12,,,83,127
84012,note_on,0,0,0,,2,,,74,127
84412,note_off,400,0,0,,2,,,74,127
84412,note_off,0,0,0,,12,,,83,127
84413,note_on,1,0,0,,0,,,84,127
84413,note_on,0,0,0,,4,,,76,127
84813,note_off,400,0,0,,4,,,76,127
84813,note_off,0,0,0,,0,,,84,127
84814,note_on,1,0,0,,12,,,71,127
84814,note_on,0,0,0,,2,,,62,127
85214,note_off,400,0,0,,2,,,62,127
85214,note_off,0,0,0,,12,,,71,127
85215,note_on,1,0,0,,0,,,72,127
85215,note_on,0,0,0,,4,,,64,127
85615,note_off,400,0,0,,4,,,64,127
85615,note_off,0,0,0,,0,,,72,127
85616,note_on,1,0,0,,12,,,59,127
85616,note_on,0,0,0,,2,,,50,127
86016,note_off,400,0,0,,2,,,50,127
86016,note_off,0,0,0,,12,,,59,127
86017,note_on,1,0,0,,0,,,60,127
86017,note_on,0,0,0,,4,,,52,127
86417,note_off,400,0,0,,4,,,52,127
86417,note_off,0,0,0,,0,,,60,127
86418,note_on,1,0,0,,0,,,60,127
86418,note_on,0,0,0,,6,,,54,127
86818,note_off,400,0,0,,6,,,54,127
86818,note_off,0,0,0,,0,,,60,127
86819,note_on,1,0,0,,12,,,59,127
86819,note_on,0,0,0,,7,,,43,127
86952,note_off,133,0,0,,12,,,59,127
86953,note_on,1,0,0,,10,,,57,127
87086,note_off,133,0,0,,10,,,57,127
87087,note_on,1,0,0,,7,,,55,127
87220,note_off,133,0,0,,7,,,55,127
87221,note_on,1,0,0,,2,,,74,127
87354,note_off,133,0,0,,2,,,74,127
87355,note_on,1,0,0,,4,,,76,127
87488,note_off,133,0,0,,4,,,76,127
87489,note_on,1,0,0,,5,,,77,127
87622,note_off,133,0,0,,5,,,77,127
87622,note_off,0,0,0,,7,,,43,127
87623,note_on,1,0,0,,4,,,76,127
88023,note_off,400,0,0,,4,,,76,127
88024,note_on,1,0,0,,2,,,74,127
88024,note_on,0,0,0,,7,,,67,127
88157,note_off,133,0,0,,2,,,74,127
88158,note_on,1,0,0,,0,,,72,127
88291,note_off,133,0,0,,0,,,72,127
88292,note_on,1,0,0,,12,,,71,127
88425,note_off,133,0,0,,12,,,71,127
88425,note_off,0,0,0,,7,,,67,127
88426,note_on,1,0,0,,0,,,72,127
88426,note_on,0,0,0,,10,,,69,127
88559,note_off,133,0,0,,0,,,72,127
88560,note_on,1,0,0,,12,,,71,127
88693,note_off,133,0,0,,12,,,71,127
88694,note_on,1,0,0,,0,,,72,127
88827,note_off,133,0,0,,0,,,72,127
88827,note_off,0,0,0,,10,,,69,127
88828,note_on,1,0,0,,10,,,81,127
88828,note_on,0,0,0,,5,,,65,127
88961,note_off,133,0,0,,10,,,81,127
88962,note_on,1,0,0,,5,,,77,127
89095,note_off,133,0,0,,5,,,77,127
89096,note_on,1,0,0,,10,,,69,127
89229,note_off,133,0,0,,10,,,69,127
89229,note_off,0,0,0,,5,,,65,127
89230,note_on,1,0,0,,0,,,72,127
89230,note_on,0,0,0,,4,,,64,127
89230,note_on,0,0,0,,0,,,60,127
89230,note_on,0,0,0,,7,,,55,127
89297,note_on,67,0,0,,12,,,71,127
89303,note_off,6,0,0,,0,,,72,127
89364,note_on,61,0,0,,0,,,72,127
89370,note_off,6,0,0,,12,,,71,127
89431,note_on,61,0,0,,12,,,71,127
89437,note_off,6,0,0,,0,,,72,127
89498,note_on,61,0,0,,0,,,72,127
89504,note_off,6,0,0,,12,,,71,127
89565,note_on,61,0,0,,12,,,71,127
89571,note_off,6,0,0,,0,,,72,127
89630,note_off,59,0,0,,7,,,55,127
89630,note_off,0,0,0,,0,,,60,127
89630,note_off,0,0,0,,4,,,64,127
89631,note_on,1,0,0,,0,,,72,127
89631,note_on,0,0,0,,2,,,62,127
89631,note_on,0,0,0,,12,,,59,127
89631,note_on,0,0,0,,7,,,55,127
89637,note_off,6,0,0,,12,,,71,127
89698,note_on,61,0,0,,12,,,71,127
89704,note_off,6,0,0,,0,,,72,127
89765,note_on,61,0,0,,0,,,72,127
89771,note_off,6,0,0,,12,,,71,127
89832,note_on,61,0,0,,12,,,71,127
89838,note_off,6,0,0,,0,,,72,127
89899,note_on,61,0,0,,0,,,72,127
89905,note_off,6,0,0,,12,,,71,127
90031,note_off,126,0,0,,0,,,72,127
90031,note_off,0,0,0,,7,,,55,127
90031,note_off,0,0,0,,12,,,59,127
90031,note_off,0,0,0,,2,,,62,127
90032,note_on,1,0,0,,0,,,72,127
90032,note_on,0,0,0,,0,,,48,127
90432,note_off,400,0,0,,0,,,48,127
90432,note_off,0,0,0,,0,,,72,127
90433,note_on,1,0,0,,7,,,79,127
90433,note_on,0,0,0,,0,,,60,127
90433,note_on,0,0,0,,0,,,72,127
90833,note_off,400,0,0,,0,,,60,127
90833,note_off,0,0,0,,7,,,79,127
90834,note_on,1,0,0,,6,,,78,127
90834,note_on,0,0,0,,2,,,62,127
90967,note_off,133,0,0,,6,,,78,127
90968,note_on,1,0,0,,3,,,75,127
91101,note_off,133,0,0,,3,,,75,127
91102,note_on,1,0,0,,2,,,74,127
91235,note_off,133,0,0,,2,,,74,127
91235,note_off,0,0,0,,2,,,62,127
91235,note_off,0,0,0,,0,,,72,127
91236,note_on,1,0,0,,0,,,72,127
91236,note_on,0,0,0,,6,,,66,127
91369,note_off,133,0,0,,0,,,72,127
91370,note_on,1,0,0,,11,,,70,127
91503,note_off,133,0,0,,11,,,70,127
91504,note_on,1,0,0,,10,,,69,127
91637,note_off,133,0,0,,10,,,69,127
91637,note_off,0,0,0,,6,,,66,127
91638,note_on,1,0,0,,11,,,70,127
91638,note_on,0,0,0,,7,,,55,127
91771,note_off,133,0,0,,11,,,70,127
91772,note_on,1,0,0,,10,,,69,127
91905,note_off,133,0,0,,10,,,69,127
91906,note_on,1,0,0,,7,,,67,127
92039,note_off,133,0,0,,7,,,55,127
92040,note_on,1,0,0,,7,,,79,127
92040,note_on,0,0,0,,2,,,62,127
92040,note_on,0,0,0,,11,,,58,127
92440,note_off,400,0,0,,11,,,58,127
92440,note_off,0,0,0,,2,,,62,127
92440,note_off,0,0,0,,7,,,79,127
92441,note_off,1,0,0,,7,,,67,127
92441,note_on,0,0,0,,2,,,74,127
92441,note_on,0,0,0,,10,,,57,127
92441,note_on,0,0,0,,2,,,62,127
92441,note_on,0,0,0,,5,,,65,127
92841,note_off,400,0,0,,5,,,65,127
92841,note_off,0,0,0,,2,,,62,127
92841,note_off,0,0,0,,10,,,57,127
92841,note_off,0,0,0,,2,,,74,127
92842,note_on,1,0,0,,1,,,73,127
92842,note_on,0,0,0,,4,,,64,127
92842,note_on,0,0,0,,10,,,57,127
93242,note_off,400,0,0,,10,,,57,127
93242,note_off,0,0,0,,4,,,64,127
93242,note_off,0,0,0,,1,,,73,127
93243,note_on,1,0,0,,2,,,74,127
93243,note_on,0,0,0,,2,,,62,127
93243,note_on,0,0,0,,2,,,50,127
93626,note_off,383,0,0,,2,,,74,127
93643,note_off,17,0,0,,2,,,50,127
93643,note_off,0,0,0,,2,,,62,127
93644,note_on,1,0,0,,10,,,81,127
93644,note_on,0,0,0,,2,,,62,127
93644,note_on,0,0,0,,5,,,53,127
94044,note_off,400,0,0,,5,,,53,127
94044,note_off,0,0,0,,10,,,81,127
94045,note_on,1,0,0,,8,,,80,127
94045,note_on,0,0,0,,4,,,52,127
94178,note_off,133,0,0,,8,,,80,127
94179,note_on,1,0,0,,5,,,77,127
94312,note_off,133,0,0,,5,,,77,127
94313,note_on,1,0,0,,4,,,76,127
94446,note_off,133,0,0,,4,,,76,127
94446,note_off,0,0,0,,4,,,52,127
94446,note_off,0,0,0,,2,,,62,127
94447,note_on,1,0,0,,2,,,74,127
94447,note_on,0,0,0,,4,,,64,127
94447,note_on,0,0,0,,2,,,62,127
94447,note_on,0,0,0,,8,,,56,127
94580,note_off,133,0,0,,2,,,74,127
94581,note_on,1,0,0,,0,,,72,127
94714,note_off,133,0,0,,0,,,72,127
94715,note_on,1,0,0,,12,,,71,127
94848,note_off,133,0,0,,12,,,71,127
94848,note_off,0,0,0,,8,,,56,127
94848,note_off,0,0,0,,2,,,62,127
94848,note_off,0,0,0,,4,,,64,127
94849,note_on,1,0,0,,0,,,72,127
94849,note_on,0,0,0,,4,,,64,127
94849,note_on,0,0,0,,10,,,57,127
94982,note_off,133,0,0,,0,,,72,127
94983,note_on,1,0,0,,12,,,71,127
95116,note_off,133,0,0,,12,,,71,127
95117,note_on,1,0,0,,10,,,69,127
95250,note_off,133,0,0,,10,,,57,127
95250,note_off,0,0,0,,4,,,64,127
95251,note_on,1,0,0,,10,,,81,127
95251,note_on,0,0,0,,10,,,57,127
95251,note_on,0,0,0,,4,,,64,127
95651,note_off,400,0,0,,4,,,64,127
95651,note_off,0,0,0,,10,,,57,127
95651,note_off,0,0,0,,10,,,81,127
95652,note_off,1,0,0,,10,,,69,127
95652,note_on,0,0,0,,4,,,76,127
95652,note_on,0,0,0,,7,,,67,127
95652,note_on,0,0,0,,4,,,64,127
95652,note_on,0,0,0,,12,,,59,127
96052,note_off,400,0,0,,12,,,59,127
96052,note_off,0,0,0,,4,,,64,127
96052,note_off,0,0,0,,7,,,67,127
96052,note_off,0,0,0,,4,,,76,127
96053,note_on,1,0,0,,3,,,75,127
96053,note_on,0,0,0,,12,,,59,127
96053,note_on,0,0,0,,6,,,66,127
96453,note_off,400,0,0,,6,,,66,127
96453,note_off,0,0,0,,12,,,59,127
96453,note_off,0,0,0,,3,,,75,127
96454,note_on,1,0,0,,4,,,76,127
96454,note_on,0,0,0,,4,,,52,127
96837,note_off,383,0,0,,4,,,76,127
96854,note_off,17,0,0,,4,,,52,127
96855,note_on,1,0,0,,4,,,76,127
96855,note_on,0,0,0,,4,,,64,127
96855,note_on,0,0,0,,0,,,60,127
96988,note_off,133,0,0,,4,,,76,127
96989,note_on,1,0,0,,5,,,77,127
97122,note_off,133,0,0,,5,,,77,127
97123,note_on,1,0,0,,7,,,79,127
97256,note_off,133,0,0,,7,,,79,127
97256,note_off,0,0,0,,0,,,60,127
97256,note_off,0,0,0,,4,,,64,127
97257,note_on,1,0,0,,5,,,77,127
97257,note_on,0,0,0,,2,,,62,127
97257,note_on,0,0,0,,2,,,50,127
97390,note_off,133,0,0,,5,,,77,127
97391,note_on,1,0,0,,4,,,76,127
97524,note_off,133,0,0,,4,,,76,127
97525,note_on,1,0,0,,2,,,74,127
97658,note_off,133,0,0,,2,,,74,127
97658,note_off,0,0,0,,2,,,50,127
97659,note_on,1,0,0,,0,,,72,127
97659,note_on,0,0,0,,5,,,53,127
97792,note_off,133,0,0,,0,,,72,127
97793,note_on,1,0,0,,12,,,71,127
97926,note_off,133,0,0,,12,,,71,127
97927,note_on,1,0,0,,10,,,69,127
98060,note_off,133,0,0,,10,,,69,127
98060,note_off,0,0,0,,5,,,53,127
98060,note_off,0,0,0,,2,,,62,127
98061,note_on,1,0,0,,8,,,68,127
98061,note_on,0,0,0,,4,,,64,127
98061,note_on,0,0,0,,4,,,52,127
98444,note_off,383,0,0,,8,,,68,127
98461,note_off,17,0,0,,4,,,52,127
98461,note_off,0,0,0,,4,,,64,127
98462,note_on,1,0,0,,4,,,76,127
98462,note_on,0,0,0,,4,,,64,127
98462,note_on,0,0,0,,0,,,60,127
98595,note_off,133,0,0,,4,,,76,127
98596,note_on,1,0,0,,5,,,77,127
98729,note_off,133,0,0,,5,,,77,127
98730,note_on,1,0,0,,7,,,79,127
98863,note_off,133,0,0,,7,,,79,127
98863,note_off,0,0,0,,0,,,60,127
98863,note_off,0,0,0,,4,,,64,127
98864,note_on,1,0,0,,5,,,77,127
98864,note_on,0,0,0,,5,,,65,127
98864,note_on,0,0,0,,2,,,62,127
98997,note_off,133,0,0,,5,,,77,127
98998,note_on,1,0,0,,4,,,76,127
99131,note_off,133,0,0,,4,,,76,127
99132,note_on,1,0,0,,2,,,74,127
99263,note_off,131,0,0,,5,,,65,127
99264,note_off,1,0,0,,2,,,74,127
99265,note_on,1,0,0,,5,,,65,127
99265,note_on,0,0,0,,0,,,72,127
99398,note_off,133,0,0,,0,,,72,127
99399,note_on,1,0,0,,12,,,71,127
99532,note_off,133,0,0,,12,,,71,127
99533,note_on,1,0,0,,10,,,69,127
99664,note_off,131,0,0,,5,,,65,127
99665,note_off,1,0,0,,10,,,69,127
99665,note_off,0,0,0,,2,,,62,127
99666,note_on,1,0,0,,8,,,68,127
99666,note_on,0,0,0,,4,,,64,127
100049,note_off,383,0,0,,4,,,64,127
100049,note_off,0,0,0,,8,,,68,127
100067,note_on,18,0,0,,12,,,83,127
100067,note_on,0,0,0,,8,,,80,127
100467,note_off,400,0,0,,8,,,80,127
100467,note_off,0,0,0,,12,,,83,127
100468,note_on,1,0,0,,0,,,84,127
100468,note_on,0,0,0,,10,,,81,127
100869,note_on,401,0,0,,12,,,71,127
100869,note_on,0,0,0,,8,,,68,127
101068,note_off,199,0,0,,10,,,81,127
101068,note_off,0,0,0,,0,,,84,127
101268,note_off,200,0,0,,8,,,68,127
101268,note_off,0,0,0,,12,,,71,127
101269,note_on,1,0,0,,0,,,72,127
101269,note_on,0,0,0,,10,,,69,127
101670,note_on,401,0,0,,12,,,59,127
101670,note_on,0,0,0,,8,,,56,127
101833,note_off,163,0,0,,10,,,69,127
101833,note_off,0,0,0,,0,,,72,127
102070,note_off,237,0,0,,8,,,56,127
102070,note_off,0,0,0,,12,,,59,127
102071,note_on,1,0,0,,0,,,60,127
102071,note_on,0,0,0,,10,,,57,127
102471,note_off,400,0,0,,10,,,57,127
102471,note_off,0,0,0,,0,,,60,127
102472,note_on,1,0,0,,4,,,64,127
102472,note_on,0,0,0,,5,,,53,127
102539,note_on,67,0,0,,2,,,62,127
102545,note_off,6,0,0,,4,,,64,127
102606,note_on,61,0,0,,4,,,64,127
102612,note_off,6,0,0,,2,,,62,127
102673,note_on,61,0,0,,2,,,62,127
102679,note_off,6,0,0,,4,,,64,127
102740,note_on,61,0,0,,0,,,60,127
102746,note_off,6,0,0,,2,,,62,127
102807,note_on,61,0,0,,2,,,62,127
102813,note_off,6,0,0,,0,,,60,127
102872,note_off,59,0,0,,5,,,53,127
102873,note_on,1,0,0,,4,,,64,127
102873,note_on,0,0,0,,4,,,52,127
102879,note_off,6,0,0,,2,,,62,127
103272,note_off,393,0,0,,4,,,52,127
103272,note_off,0,0,0,,4,,,64,127
103273,note_on,1,0,0,,12,,,83,127
103273,note_on,0,0,0,,8,,,80,127
103673,note_off,400,0,0,,8,,,80,127
103673,note_off,0,0,0,,12,,,83,127
103674,note_on,1,0,0,,0,,,84,127
103674,note_on,0,0,0,,10,,,81,127
104074,note_off,400,0,0,,10,,,81,127
104074,note_off,0,0,0,,0,,,84,127
104075,note_on,1,0,0,,12,,,71,127
104075,note_on,0,0,0,,8,,,68,127
104475,note_off,400,0,0,,8,,,68,127
104475,note_off,0,0,0,,12,,,71,127
104476,note_on,1,0,0,,0,,,72,127
104476,note_on,0,0,0,,10,,,69,127
104876,note_off,400,0,0,,10,,,69,127
104876,note_off,0,0,0,,0,,,72,127
104877,note_on,1,0,0,,12,,,59,127
104877,note_on,0,0,0,,8,,,56,127
105277,note_off,400,0,0,,8,,,56,127
105277,note_off,0,0,0,,12,,,59,127
105278,note_on,1,0,0,,0,,,60,127
105278,note_on,0,0,0,,10,,,57,127
105678,note_off,400,0,0,,10,,,57,127
105678,note_off,0,0,0,,0,,,60,127
105679,note_on,1,0,0,,4,,,64,127
105679,note_on,0,0,0,,5,,,53,127
105746,note_on,67,0,0,,2,,,62,127
105752,note_off,6,0,0,,4,,,64,127
105813,note_on,61,0,0,,4,,,64,127
105819,note_off,6,0,0,,2,,,62,127
105880,note_on,61,0,0,,2,,,62,127
105886,note_off,6,0,0,,4,,,64,127
105947,note_on,61,0,0,,0,,,60,127
105953,note_off,6,0,0,,2,,,62,127
106014,note_on,61,0,0,,2,,,62,127
106020,note_off,6,0,0,,0,,,60,127
106079,note_off,59,0,0,,5,,,53,127
106080,note_on,1,0,0,,4,,,64,127
106080,note_on,0,0,0,,4,,,52,127
106086,note_off,6,0,0,,2,,,62,127
106479,note_off,393,0,0,,4,,,64,127
106480,note_on,1,0,0,,4,,,64,127
106580,note_off,100,0,0,,4,,,52,127
106881,note_on,301,0,0,,7,,,79,127
107281,note_off,400,0,0,,7,,,79,127
107281,note_off,0,0,0,,4,,,64,127
107282,note_on,1,0,0,,5,,,77,127
107282,note_on,0,0,0,,2,,,62,127
107682,note_off,400,0,0,,2,,,62,127
107682,note_off,0,0,0,,5,,,77,127
107683,note_on,1,0,0,,4,,,76,127
107683,note_on,0,0,0,,4,,,52,127
107816,note_off,133,0,0,,4,,,76,127
107817,note_on,1,0,0,,2,,,74,127
107950,note_off,133,0,0,,2,,,74,127
107951,note_on,1,0,0,,0,,,72,127
108084,note_off,133,0,0,,0,,,72,127
108084,note_off,0,0,0,,4,,,52,127
108085,note_on,1,0,0,,12,,,71,127
108085,note_on,0,0,0,,4,,,64,127
108218,note_off,133,0,0,,12,,,71,127
108219,note_on,1,0,0,,10,,,69,127
108352,note_off,133,0,0,,10,,,69,127
108353,note_on,1,0,0,,8,,,68,127
108486,note_off,133,0,0,,8,,,68,127
108487,note_on,1,0,0,,7,,,79,127
108887,note_off,400,0,0,,7,,,79,127
108887,note_off,0,0,0,,4,,,64,127
108888,note_on,1,0,0,,5,,,77,127
108888,note_on,0,0,0,,2,,,62,127
109288,note_off,400,0,0,,2,,,62,127
109288,note_off,0,0,0,,5,,,77,127
109289,note_on,1,0,0,,4,,,76,127
109289,note_on,0,0,0,,4,,,52,127
109422,note_off,133,0,0,,4,,,76,127
109423,note_on,1,0,0,,2,,,74,127
109556,note_off,133,0,0,,2,,,74,127
109557,note_on,1,0,0,,0,,,72,127
109690,note_off,133,0,0,,0,,,72,127
109690,note_off,0,0,0,,4,,,52,127
109691,note_on,1,0,0,,12,,,71,127
109691,note_on,0,0,0,,4,,,64,127
109824,note_off,133,0,0,,12,,,71,127
109825,note_on,1,0,0,,10,,,69,127
109958,note_off,133,0,0,,10,,,69,127
109959,note_on,1,0,0,,8,,,68,127
110092,note_off,133,0,0,,8,,,68,127
110093,note_on,1,0,0,,10,,,81,127
110493,note_off,400,0,0,,10,,,81,127
110493,note_off,0,0,0,,4,,,64,127
110494,note_on,1,0,0,,8,,,80,127
110494,note_on,0,0,0,,2,,,62,127
110561,note_on,67,0,0,,10,,,81,127
110567,note_off,6,0,0,,8,,,80,127
110628,note_on,61,0,0,,8,,,80,127
110634,note_off,6,0,0,,10,,,81,127
110894,note_off,260,0,0,,8,,,80,127
110894,note_off,0,0,0,,2,,,62,127
110895,note_on,1,0,0,,10,,,81,127
110895,note_on,0,0,0,,0,,,60,127
111028,note_off,133,0,0,,10,,,81,127
111029,note_on,1,0,0,,4,,,76,127
111162,note_off,133,0,0,,4,,,76,127
111163,note_on,1,0,0,,2,,,74,127
111296,note_off,133,0,0,,2,,,74,127
111296,note_off,0,0,0,,0,,,60,127
111297,note_on,1,0,0,,0,,,72,127
111297,note_on,0,0,0,,2,,,62,127
111430,note_off,133,0,0,,0,,,72,127
111431,note_on,1,0,0,,12,,,71,127
111564,note_off,133,0,0,,12,,,71,127
111565,note_on,1,0,0,,10,,,69,127
111698,note_off,133,0,0,,10,,,69,127
111698,note_off,0,0,0,,2,,,62,127
111699,note_on,1,0,0,,4,,,76,127
111699,note_on,0,0,0,,4,,,64,127
111832,note_off,133,0,0,,4,,,76,127
111833,note_on,1,0,0,,2,,,74,127
111966,note_off,133,0,0,,2,,,74,127
111967,note_on,1,0,0,,0,,,72,127
112100,note_off,133,0,0,,0,,,72,127
112101,note_on,1,0,0,,12,,,71,127
112101,note_on,0,0,0,,4,,,52,127
112234,note_off,133,0,0,,12,,,71,127
112235,note_on,1,0,0,,10,,,69,127
112368,note_off,133,0,0,,10,,,69,127
112369,note_on,1,0,0,,8,,,68,127
112502,note_off,133,0,0,,8,,,68,127
112502,note_off,0,0,0,,4,,,52,127
112502,note_off,0,0,0,,4,,,64,127
112503,note_on,1,0,0,,10,,,69,127
112503,note_on,0,0,0,,10,,,45,127
112903,note_off,400,0,0,,10,,,69,127
112904,note_on,1,0,0,,12,,,71,127
112904,note_on,0,0,0,,2,,,62,127
112905,note_off,1,0,0,,10,,,45,127
113036,note_off,131,0,0,,2,,,62,127
113036,note_off,0,0,0,,12,,,71,127
113037,note_on,1,0,0,,0,,,72,127
113037,note_on,0,0,0,,4,,,64,127
113170,note_off,133,0,0,,4,,,64,127
113170,note_off,0,0,0,,0,,,72,127
113171,note_on,1,0,0,,2,,,74,127
113171,note_on,0,0,0,,5,,,65,127
113304,note_off,133,0,0,,5,,,65,127
113304,note_off,0,0,0,,2,,,74,127
113305,note_on,1,0,0,,0,,,72,127
113305,note_on,0,0,0,,10,,,81,127
113305,note_on,0,0,0,,4,,,64,127
113305,note_on,0,0,0,,10,,,57,127
113705,note_off,400,0,0,,4,,,64,127
113705,note_off,0,0,0,,0,,,72,127
113706,note_on,1,0,0,,12,,,71,127
113706,note_on,0,0,0,,2,,,62,127
113839,note_off,133,0,0,,2,,,62,127
113839,note_off,0,0,0,,12,,,71,127
113840,note_on,1,0,0,,0,,,72,127
113840,note_on,0,0,0,,4,,,64,127
113973,note_off,133,0,0,,4,,,64,127
113973,note_off,0,0,0,,0,,,72,127
113974,note_on,1,0,0,,2,,,74,127
113974,note_on,0,0,0,,5,,,65,127
114107,note_off,133,0,0,,5,,,65,127
114107,note_off,0,0,0,,2,,,74,127
114107,note_off,0,0,0,,10,,,57,127
114107,note_off,0,0,0,,10,,,81,127
114108,note_on,1,0,0,,10,,,81,127
114108,note_on,0,0,0,,0,,,72,127
114108,note_on,0,0,0,,4,,,64,127
114108,note_on,0,0,0,,10,,,57,127
114508,note_off,400,0,0,,4,,,64,127
114508,note_off,0,0,0,,0,,,72,127
114509,note_on,1,0,0,,12,,,71,127
114509,note_on,0,0,0,,2,,,62,127
114642,note_off,133,0,0,,2,,,62,127
114642,note_off,0,0,0,,12,,,71,127
114643,note_on,1,0,0,,0,,,72,127
114643,note_on,0,0,0,,4,,,64,127
114776,note_off,133,0,0,,4,,,64,127
114776,note_off,0,0,0,,0,,,72,127
114777,note_on,1,0,0,,2,,,74,127
114777,note_on,0,0,0,,5,,,65,127
114910,note_off,133,0,0,,5,,,65,127
114910,note_off,0,0,0,,2,,,74,127
114910,note_off,0,0,0,,10,,,57,127
114910,note_off,0,0,0,,10,,,81,127
114911,note_on,1,0,0,,10,,,81,127
114911,note_on,0,0,0,,0,,,72,127
114911,note_on,0,0,0,,4,,,64,127
114911,note_on,0,0,0,,10,,,57,127
115311,note_off,400,0,0,,4,,,64,127
115311,note_off,0,0,0,,0,,,72,127
115312,note_on,1,0,0,,12,,,71,127
115312,note_on,0,0,0,,2,,,62,127
115445,note_off,133,0,0,,2,,,62,127
115445,note_off,0,0,0,,12,,,71,127
115446,note_on,1,0,0,,0,,,72,127
115446,note_on,0,0,0,,4,,,64,127
115579,note_off,133,0,0,,4,,,64,127
115579,note_off,0,0,0,,0,,,72,127
115580,note_on,1,0,0,,2,,,74,127
115580,note_on,0,0,0,,5,,,65,127
115713,note_off,133,0,0,,5,,,65,127
115713,note_off,0,0,0,,2,,,74,127
115713,note_off,0,0,0,,10,,,57,127
115713,note_off,0,0,0,,10,,,81,127
115714,note_on,1,0,0,,0,,,72,127
115714,note_on,0,0,0,,10,,,81,127
115714,note_on,0,0,0,,4,,,64,127
115714,note_on,0,0,0,,10,,,57,127
115847,note_off,133,0,0,,0,,,72,127
115848,note_on,1,0,0,,12,,,71,127
115981,note_off,133,0,0,,12,,,71,127
115982,note_on,1,0,0,,0,,,72,127
116115,note_off,133,0,0,,0,,,72,127
116115,note_off,0,0,0,,10,,,57,127
116115,note_off,0,0,0,,4,,,64,127
116115,note_off,0,0,0,,10,,,81,127
116116,note_on,1,0,0,,5,,,77,127
116116,note_on,0,0,0,,2,,,74,127
116116,note_on,0,0,0,,2,,,62,127
116116,note_on,0,0,0,,2,,,50,127
116249,note_off,133,0,0,,2,,,74,127
116250,note_on,1,0,0,,0,,,72,127
116383,note_off,133,0,0,,0,,,72,127
116384,note_on,1,0,0,,12,,,71,127
116517,note_off,133,0,0,,12,,,71,127
116517,note_off,0,0,0,,2,,,50,127
116517,note_off,0,0,0,,2,,,62,127
116517,note_off,0,0,0,,5,,,77,127
116518,note_on,1,0,0,,0,,,72,127
116518,note_on,0,0,0,,4,,,76,127
116518,note_on,0,0,0,,0,,,60,127
116518,note_on,0,0,0,,4,,,52,127
116651,note_off,133,0,0,,0,,,72,127
116652,note_on,1,0,0,,12,,,71,127
116785,note_off,133,0,0,,12,,,71,127
116786,note_on,1,0,0,,10,,,69,127
116919,note_off,133,0,0,,10,,,69,127
116919,note_off,0,0,0,,4,,,52,127
116919,note_off,0,0,0,,0,,,60,127
116919,note_off,0,0,0,,4,,,76,127
116920,note_on,1,0,0,,12,,,71,127
116920,note_on,0,0,0,,2,,,74,127
116920,note_on,0,0,0,,12,,,59,127
116920,note_on,0,0,0,,4,,,52,127
117053,note_off,133,0,0,,12,,,71,127
117054,note_on,1,0,0,,10,,,69,127
117187,note_off,133,0,0,,10,,,69,127
117188,note_on,1,0,0,,8,,,68,127
117321,note_off,133,0,0,,8,,,68,127
117321,note_off,0,0,0,,4,,,52,127
117321,note_off,0,0,0,,12,,,59,127
117321,note_off,0,0,0,,2,,,74,127
117322,note_on,1,0,0,,10,,,69,127
117322,note_on,0,0,0,,0,,,72,127
117322,note_on,0,0,0,,10,,,45,127
117722,note_off,400,0,0,,10,,,45,127
117722,note_off,0,0,0,,0,,,72,127
117722,note_off,0,0,0,,10,,,69,127
117723,note_on,1,0,0,,4,,,76,127
117723,note_on,0,0,0,,8,,,80,127
117723,note_on,0,0,0,,12,,,71,127
117723,note_on,0,0,0,,4,,,64,127
117856,note_off,133,0,0,,12,,,71,127
117856,note_off,0,0,0,,8,,,80,127
117857,note_on,1,0,0,,10,,,81,127
117857,note_on,0,0,0,,0,,,72,127
117990,note_off,133,0,0,,0,,,72,127
117990,note_off,0,0,0,,10,,,81,127
117991,note_on,1,0,0,,12,,,83,127
117991,note_on,0,0,0,,2,,,74,127
118124,note_off,133,0,0,,2,,,74,127
118124,note_off,0,0,0,,12,,,83,127
118124,note_off,0,0,0,,4,,,64,127
118124,note_off,0,0,0,,4,,,76,127
118125,note_on,1,0,0,,4,,,76,127
118125,note_on,0,0,0,,10,,,81,127
118125,note_on,0,0,0,,4,,,64,127
118125,note_on,0,0,0,,0,,,72,127
118525,note_off,400,0,0,,0,,,72,127
118525,note_off,0,0,0,,4,,,64,127
118525,note_off,0,0,0,,10,,,81,127
118525,note_off,0,0,0,,4,,,76,127
118526,note_on,1,0,0,,8,,,80,127
118526,note_on,0,0,0,,4,,,76,127
118526,note_on,0,0,0,,12,,,71,127
118526,note_on,0,0,0,,4,,,64,127
118659,note_off,133,0,0,,12,,,71,127
118659,note_off,0,0,0,,8,,,80,127
118660,note_on,1,0,0,,10,,,81,127
118660,note_on,0,0,0,,0,,,72,127
118793,note_off,133,0,0,,0,,,72,127
118793,note_off,0,0,0,,10,,,81,127
118794,note_on,1,0,0,,12,,,83,127
118794,note_on,0,0,0,,2,,,74,127
118927,note_off,133,0,0,,2,,,74,127
118927,note_off,0,0,0,,12,,,83,127
118927,note_off,0,0,0,,4,,,64,127
118927,note_off,0,0,0,,4,,,76,127
118928,note_on,1,0,0,,10,,,81,127
118928,note_on,0,0,0,,4,,,76,127
118928,note_on,0,0,0,,4,,,64,127
118928,note_on,0,0,0,,0,,,72,127
119328,note_off,400,0,0,,0,,,72,127
119328,note_off,0,0,0,,4,,,64,127
119328,note_off,0,0,0,,4,,,76,127
119328,note_off,0,0,0,,10,,,81,127
119329,note_on,1,0,0,,12,,,83,127
119329,note_on,0,0,0,,4,,,76,127
119329,note_on,0,0,0,,8,,,68,127
119329,note_on,0,0,0,,4,,,64,127
119462,note_off,133,0,0,,8,,,68,127
119462,note_off,0,0,0,,12,,,83,127
119463,note_on,1,0,0,,0,,,84,127
119463,note_on,0,0,0,,10,,,69,127
119596,note_off,133,0,0,,10,,,69,127
119596,note_off,0,0,0,,0,,,84,127
119597,note_on,1,0,0,,2,,,86,127
119597,note_on,0,0,0,,12,,,71,127
119730,note_off,133,0,0,,12,,,71,127
119730,note_off,0,0,0,,2,,,86,127
119730,note_off,0,0,0,,4,,,64,127
119730,note_off,0,0,0,,4,,,76,127
119731,note_on,1,0,0,,0,,,84,127
119731,note_on,0,0,0,,4,,,76,127
119731,note_on,0,0,0,,4,,,64,127
119731,note_on,0,0,0,,10,,,69,127
120131,note_off,400,0,0,,10,,,69,127
120131,note_off,0,0,0,,4,,,64,127
120131,note_off,0,0,0,,4,,,76,127
120131,note_off,0,0,0,,0,,,84,127
120132,note_on,1,0,0,,12,,,83,127
120132,note_on,0,0,0,,4,,,76,127
120132,note_on,0,0,0,,8,,,68,127
120132,note_on,0,0,0,,4,,,64,127
120265,note_off,133,0,0,,8,,,68,127
120265,note_off,0,0,0,,12,,,83,127
120266,note_on,1,0,0,,0,,,84,127
120266,note_on,0,0,0,,10,,,69,127
120399,note_off,133,0,0,,10,,,69,127
120399,note_off,0,0,0,,0,,,84,127
120400,note_on,1,0,0,,2,,,86,127
120400,note_on,0,0,0,,12,,,71,127
120533,note_off,133,0,0,,12,,,71,127
120533,note_off,0,0,0,,2,,,86,127
120533,note_off,0,0,0,,4,,,64,127
120533,note_off,0,0,0,,4,,,76,127
120534,note_on,1,0,0,,4,,,76,127
120534,note_on,0,0,0,,0,,,84,127
120534,note_on,0,0,0,,10,,,69,127
120534,note_on,0,0,0,,4,,,64,127
120667,note_off,133,0,0,,0,,,84,127
120668,note_on,1,0,0,,12,,,83,127
120801,note_off,133,0,0,,12,,,83,127
120802,note_on,1,0,0,,0,,,84,127
120935,note_off,133,0,0,,0,,,84,127
120935,note_off,0,0,0,,4,,,64,127
120935,note_off,0,0,0,,10,,,69,127
120935,note_off,0,0,0,,4,,,76,127
120936,note_on,1,0,0,,5,,,77,127
120936,note_on,0,0,0,,2,,,86,127
120936,note_on,0,0,0,,10,,,69,127
120936,note_on,0,0,0,,12,,,71,127
120936,note_on,0,0,0,,2,,,62,127
121069,note_off,133,0,0,,2,,,86,127
121070,note_on,1,0,0,,0,,,84,127
121203,note_off,133,0,0,,0,,,84,127
121204,note_on,1,0,0,,12,,,83,127
121337,note_off,133,0,0,,12,,,83,127
121337,note_off,0,0,0,,2,,,62,127
121337,note_off,0,0,0,,12,,,71,127
121337,note_off,0,0,0,,10,,,69,127
121337,note_off,0,0,0,,5,,,77,127
121338,note_on,1,0,0,,10,,,81,127
121338,note_on,0,0,0,,4,,,76,127
121338,note_on,0,0,0,,0,,,72,127
121338,note_on,0,0,0,,4,,,64,127
121738,note_off,400,0,0,,0,,,72,127
121738,note_off,0,0,0,,4,,,76,127
121738,note_off,0,0,0,,10,,,81,127
121739,note_on,1,0,0,,2,,,74,127
121739,note_on,0,0,0,,8,,,80,127
121739,note_on,0,0,0,,12,,,71,127
122139,note_off,400,0,0,,12,,,71,127
122139,note_off,0,0,0,,8,,,80,127
122139,note_off,0,0,0,,2,,,74,127
122139,note_off,0,0,0,,4,,,64,127
122140,note_on,1,0,0,,10,,,81,127
122140,note_on,0,0,0,,10,,,57,127
122540,note_off,400,0,0,,10,,,81,127
122541,note_on,1,0,0,,10,,,69,127
122941,note_off,400,0,0,,10,,,69,127
122941,note_off,0,0,0,,10,,,57,127
122942,note_on,1,0,0,,4,,,76,127
123343,note_on,401,0,0,,4,,,64,127
123343,note_on,0,0,0,,0,,,60,127
123743,note_off,400,0,0,,0,,,60,127
123743,note_off,0,0,0,,4,,,64,127
123743,note_off,0,0,0,,4,,,76,127
123744,note_on,1,0,0,,4,,,76,127
123744,note_on,0,0,0,,2,,,74,127
123744,note_on,0,0,0,,2,,,62,127
123744,note_on,0,0,0,,5,,,65,127
123877,note_off,133,0,0,,2,,,74,127
123877,note_off,0,0,0,,4,,,76,127
123878,note_on,1,0,0,,0,,,72,127
124011,note_off,133,0,0,,0,,,72,127
124012,note_on,1,0,0,,12,,,71,127
124145,note_off,133,0,0,,12,,,71,127
124145,note_off,0,0,0,,5,,,65,127
124145,note_off,0,0,0,,2,,,62,127
124146,note_on,1,0,0,,10,,,69,127
124146,note_on,0,0,0,,5,,,65,127
124546,note_off,400,0,0,,5,,,65,127
124547,note_on,1,0,0,,4,,,64,127
124947,note_off,400,0,0,,10,,,69,127
124948,note_on,1,0,0,,8,,,68,127
124948,note_on,0,0,0,,4,,,52,127
125348,note_off,400,0,0,,4,,,52,127
125348,note_off,0,0,0,,8,,,68,127
125348,note_off,0,0,0,,4,,,64,127
125349,note_on,1,0,0,,10,,,69,127
125349,note_on,0,0,0,,10,,,45,127
125548,note_off,199,0,0,,10,,,69,127
125549,note_on,1,0,0,,10,,,57,127
125748,note_off,199,0,0,,10,,,57,127
125749,note_on,1,0,0,,5,,,65,127
125948,note_off,199,0,0,,5,,,65,127
125949,note_on,1,0,0,,2,,,62,127
126148,note_off,199,0,0,,2,,,62,127
126148,note_off,0,0,0,,10,,,45,127
126149,note_on,1,0,0,,3,,,63,127
126549,note_off,400,0,0,,3,,,63,127
126550,note_on,1,0,0,,4,,,64,127
126550,note_on,0,0,0,,10,,,57,127
126550,note_on,0,0,0,,0,,,48,127
126950,note_off,400,0,0,,0,,,48,127
126950,note_off,0,0,0,,10,,,57,127
126950,note_off,0,0,0,,4,,,64,127
126951,note_on,1,0,0,,2,,,62,127
126951,note_on,0,0,0,,2,,,50,127
127084,note_off,133,0,0,,2,,,62,127
127085,note_on,1,0,0,,0,,,60,127
127218,note_off,133,0,0,,0,,,60,127
127219,note_on,1,0,0,,12,,,59,127
127352,note_off,133,0,0,,12,,,59,127
127352,note_off,0,0,0,,2,,,50,127
127353,note_on,1,0,0,,10,,,57,127
127353,note_on,0,0,0,,5,,,53,127
127753,note_off,400,0,0,,5,,,53,127
127754,note_on,1,0,0,,4,,,52,127
128154,note_off,400,0,0,,10,,,57,127
128155,note_on,1,0,0,,8,,,56,127
128155,note_on,0,0,0,,4,,,40,127
128222,note_on,67,0,0,,10,,,57,127
128228,note_off,6,0,0,,8,,,56,127
128289,note_on,61,0,0,,8,,,56,127
128295,note_off,6,0,0,,10,,,57,127
128555,note_off,260,0,0,,8,,,56,127
128555,note_off,0,0,0,,4,,,40,127
128555,note_off,0,0,0,,4,,,52,127
128570,note_on,15,0,0,,10,,,45,127
128570,note_on,0,0,0,,10,,,57,127
130874,note_off,2304,0,0,,10,,,57,127
130874,note_off,0,0,0,,10,,,45,127
132096,end_of_track,1222,1,0,,,,,,
