tick,type,time,meta,track,program,channel,pitch,tempo,note,velocity
0,copyright,0,1,0,,,,,,
0,program_change,0,0,0,6,0,,,,
0,pitchwheel,0,0,0,,0,0,,,
0,program_change,0,0,0,6,1,,,,
0,pitchwheel,0,0,0,,1,-590,,,
0,program_change,0,0,0,6,2,,,,
0,pitchwheel,0,0,0,,2,-272,,,
0,program_change,0,0,0,6,3,,,,
0,pitchwheel,0,0,0,,3,-353,,,
0,program_change,0,0,0,6,4,,,,
0,pitchwheel,0,0,0,,4,-560,,,
0,program_change,0,0,0,6,5,,,,
0,pitchwheel,0,0,0,,5,-80,,,
0,program_change,0,0,0,6,6,,,,
0,pitchwheel,0,0,0,,6,-625,,,
0,program_change,0,0,0,6,7,,,,
0,pitchwheel,0,0,0,,7,-130,,,
0,program_change,0,0,0,6,8,,,,
0,pitchwheel,0,0,0,,8,-512,,,
0,program_change,0,0,0,6,10,,,,
0,pitchwheel,0,0,0,,10,-464,,,
0,program_change,0,0,0,6,11,,,,
0,pitchwheel,0,0,0,,11,-208,,,
0,program_change,0,0,0,6,12,,,,
0,pitchwheel,0,0,0,,12,-553,,,
0,set_tempo,0,1,0,,,,500000,,
110,note_on,110,0,0,,10,,,81,127
217,note_off,107,0,0,,10,,,81,127
219,note_on,2,0,0,,4,,,76,127
326,note_off,107,0,0,,4,,,76,127
328,note_on,2,0,0,,0,,,72,127
435,note_off,107,0,0,,0,,,72,127
437,note_on,2,0,0,,10,,,69,127
544,note_off,107,0,0,,10,,,69,127
546,note_on,2,0,0,,4,,,64,127
653,note_off,107,0,0,,4,,,64,127
655,note_on,2,0,0,,0,,,60,127
762,note_off,107,0,0,,0,,,60,127
764,note_on,2,0,0,,10,,,57,127
983,note_on,219,0,0,,10,,,45,127
1200,note_off,217,0,0,,10,,,45,127
1200,note_off,0,0,0,,10,,,57,127
1202,note_on,2,0,0,,10,,,57,127
1202,note_on,0,0,0,,4,,,76,127
1419,note_off,217,0,0,,4,,,76,127
1419,note_off,0,0,0,,10,,,57,127
1421,note_on,2,0,0,,2,,,50,127
1421,note_on,0,0,0,,5,,,77,127
1528,note_off,107,0,0,,5,,,77,127
1530,note_on,2,0,0,,2,,,74,127
1637,note_off,107,0,0,,2,,,74,127
1639,note_on,2,0,0,,0,,,72,127
1746,note_off,107,0,0,,0,,,72,127
1748,note_on,2,0,0,,12,,,71,127
1855,note_off,107,0,0,,12,,,71,127
1855,note_off,0,0,0,,2,,,50,127
1857,note_on,2,0,0,,2,,,62,127
1857,note_on,0,0,0,,0,,,72,127
1964,note_off,107,0,0,,0,,,72,127
1966,note_on,2,0,0,,2,,,74,127
2073,note_off,107,0,0,,2,,,74,127
2073,note_off,0,0,0,,2,,,62,127
2075,note_on,2,0,0,,0,,,60,127
2075,note_on,0,0,0,,2,,,74,127
2292,note_off,217,0,0,,2,,,74,127
2294,note_on,2,0,0,,8,,,68,127
2294,note_on,0,0,0,,4,,,76,127
2511,note_off,217,0,0,,4,,,76,127
2511,note_off,0,0,0,,8,,,68,127
2513,note_on,2,0,0,,10,,,69,127
2513,note_on,0,0,0,,4,,,76,127
2730,note_off,217,0,0,,4,,,76,127
2730,note_off,0,0,0,,10,,,69,127
2730,note_off,0,0,0,,0,,,60,127
2732,note_on,2,0,0,,2,,,62,127
2732,note_on,0,0,0,,2,,,74,127
2839,note_off,107,0,0,,2,,,74,127
2841,note_on,2,0,0,,0,,,72,127
2948,note_off,107,0,0,,0,,,72,127
2950,note_on,2,0,0,,12,,,71,127
3057,note_off,107,0,0,,12,,,71,127
3059,note_on,2,0,0,,10,,,69,127
3166,note_off,107,0,0,,10,,,69,127
3166,note_off,0,0,0,,2,,,62,127
3168,note_on,2,0,0,,5,,,65,127
3168,note_on,0,0,0,,8,,,68,127
3275,note_off,107,0,0,,8,,,68,127
3277,note_on,2,0,0,,10,,,69,127
3384,note_off,107,0,0,,10,,,69,127
3384,note_off,0,0,0,,5,,,65,127
3386,note_on,2,0,0,,4,,,64,127
3386,note_on,0,0,0,,10,,,69,127
3603,note_off,217,0,0,,10,,,69,127
3605,note_on,2,0,0,,12,,,71,127
3712,note_off,107,0,0,,4,,,64,127
3714,note_on,2,0,0,,2,,,62,127
3821,note_off,107,0,0,,2,,,62,127
3821,note_off,0,0,0,,12,,,71,127
3823,note_on,2,0,0,,0,,,60,127
3823,note_on,0,0,0,,4,,,76,127
3930,note_off,107,0,0,,0,,,60,127
3932,note_on,2,0,0,,10,,,57,127
4039,note_off,107,0,0,,10,,,57,127
4039,note_off,0,0,0,,4,,,76,127
4041,note_on,2,0,0,,2,,,50,127
4041,note_on,0,0,0,,5,,,77,127
4148,note_off,107,0,0,,5,,,77,127
4150,note_on,2,0,0,,2,,,74,127
4257,note_off,107,0,0,,2,,,74,127
4259,note_on,2,0,0,,0,,,72,127
4366,note_off,107,0,0,,0,,,72,127
4368,note_on,2,0,0,,12,,,71,127
4475,note_off,107,0,0,,12,,,71,127
4475,note_off,0,0,0,,2,,,50,127
4477,note_on,2,0,0,,2,,,62,127
4477,note_on,0,0,0,,0,,,72,127
4584,note_off,107,0,0,,0,,,72,127
4586,note_on,2,0,0,,2,,,74,127
4693,note_off,107,0,0,,2,,,74,127
4693,note_off,0,0,0,,2,,,62,127
4695,note_on,2,0,0,,0,,,60,127
4695,note_on,0,0,0,,2,,,74,127
4912,note_off,217,0,0,,2,,,74,127
4914,note_on,2,0,0,,8,,,68,127
4914,note_on,0,0,0,,4,,,76,127
5131,note_off,217,0,0,,4,,,76,127
5131,note_off,0,0,0,,8,,,68,127
5133,note_on,2,0,0,,10,,,69,127
5133,note_on,0,0,0,,4,,,76,127
5350,note_off,217,0,0,,4,,,76,127
5350,note_off,0,0,0,,10,,,69,127
5350,note_off,0,0,0,,0,,,60,127
5352,note_on,2,0,0,,2,,,62,127
5352,note_on,0,0,0,,2,,,74,127
5459,note_off,107,0,0,,2,,,74,127
5461,note_on,2,0,0,,0,,,72,127
5568,note_off,107,0,0,,0,,,72,127
5568,note_off,0,0,0,,2,,,62,127
5570,note_on,2,0,0,,4,,,64,127
5570,note_on,0,0,0,,12,,,71,127
5677,note_off,107,0,0,,12,,,71,127
5679,note_on,2,0,0,,10,,,69,127
5786,note_off,107,0,0,,10,,,69,127
5786,note_off,0,0,0,,4,,,64,127
5788,note_on,2,0,0,,4,,,52,127
5788,note_on,0,0,0,,10,,,69,127
5895,note_off,107,0,0,,10,,,69,127
5897,note_on,2,0,0,,8,,,68,127
6004,note_off,107,0,0,,8,,,68,127
6004,note_off,0,0,0,,4,,,52,127
6006,note_on,2,0,0,,10,,,45,127
6006,note_on,0,0,0,,8,,,68,127
6443,note_off,437,0,0,,8,,,68,127
6445,note_on,2,0,0,,10,,,69,127
6635,note_off,190,0,0,,10,,,69,127
6662,note_off,27,0,0,,10,,,45,127
6664,note_on,2,0,0,,4,,,52,127
6664,note_on,0,0,0,,8,,,56,127
6771,note_off,107,0,0,,8,,,56,127
6771,note_off,0,0,0,,4,,,52,127
6773,note_on,2,0,0,,6,,,54,127
6773,note_on,0,0,0,,10,,,57,127
6880,note_off,107,0,0,,10,,,57,127
6880,note_off,0,0,0,,6,,,54,127
6882,note_on,2,0,0,,8,,,56,127
6882,note_on,0,0,0,,12,,,59,127
6989,note_off,107,0,0,,12,,,59,127
6989,note_off,0,0,0,,8,,,56,127
6991,note_on,2,0,0,,10,,,57,127
6991,note_on,0,0,0,,1,,,61,127
7098,note_off,107,0,0,,1,,,61,127
7098,note_off,0,0,0,,10,,,57,127
7100,note_on,2,0,0,,12,,,59,127
7100,note_on,0,0,0,,2,,,62,127
7207,note_off,107,0,0,,2,,,62,127
7207,note_off,0,0,0,,12,,,59,127
7209,note_on,2,0,0,,1,,,61,127
7209,note_on,0,0,0,,4,,,64,127
7316,note_off,107,0,0,,4,,,64,127
7316,note_off,0,0,0,,1,,,61,127
7318,note_on,2,0,0,,2,,,62,127
7318,note_on,0,0,0,,6,,,66,127
7425,note_off,107,0,0,,6,,,66,127
7425,note_off,0,0,0,,2,,,62,127
7427,note_on,2,0,0,,4,,,64,127
7427,note_on,0,0,0,,8,,,68,127
7534,note_off,107,0,0,,8,,,68,127
7534,note_off,0,0,0,,4,,,64,127
7536,note_on,2,0,0,,6,,,66,127
7536,note_on,0,0,0,,10,,,69,127
7643,note_off,107,0,0,,10,,,69,127
7643,note_off,0,0,0,,6,,,66,127
7645,note_on,2,0,0,,8,,,68,127
7645,note_on,0,0,0,,12,,,71,127
7752,note_off,107,0,0,,12,,,71,127
7752,note_off,0,0,0,,8,,,68,127
7754,note_on,2,0,0,,10,,,69,127
7754,note_on,0,0,0,,1,,,73,127
7861,note_off,107,0,0,,1,,,73,127
7861,note_off,0,0,0,,10,,,69,127
7863,note_on,2,0,0,,12,,,71,127
7863,note_on,0,0,0,,2,,,74,127
7970,note_off,107,0,0,,2,,,74,127
7970,note_off,0,0,0,,12,,,71,127
7972,note_on,2,0,0,,1,,,73,127
7972,note_on,0,0,0,,4,,,76,127
8079,note_off,107,0,0,,4,,,76,127
8081,note_on,2,0,0,,6,,,78,127
8188,note_off,107,0,0,,6,,,78,127
8188,note_off,0,0,0,,1,,,73,127
8190,note_on,2,0,0,,12,,,71,127
8190,note_on,0,0,0,,8,,,80,127
8297,note_off,107,0,0,,8,,,80,127
8299,note_on,2,0,0,,10,,,81,127
8406,note_off,107,0,0,,10,,,81,127
8406,note_off,0,0,0,,12,,,71,127
8408,note_on,2,0,0,,10,,,69,127
8408,note_on,0,0,0,,12,,,83,127
8515,note_off,107,0,0,,12,,,83,127
8517,note_on,2,0,0,,1,,,85,127
8624,note_off,107,0,0,,1,,,85,127
8624,note_off,0,0,0,,10,,,69,127
8626,note_on,2,0,0,,4,,,64,127
8626,note_on,0,0,0,,1,,,85,127
8843,note_off,217,0,0,,1,,,85,127
8845,note_on,2,0,0,,1,,,85,127
8845,note_on,0,0,0,,12,,,83,127
8952,note_off,107,0,0,,12,,,83,127
8952,note_off,0,0,0,,1,,,85,127
8954,note_on,2,0,0,,10,,,81,127
9061,note_off,107,0,0,,10,,,81,127
9063,note_on,2,0,0,,12,,,83,127
9280,note_off,217,0,0,,12,,,83,127
9280,note_off,0,0,0,,4,,,64,127
9282,note_on,2,0,0,,4,,,52,127
9282,note_on,0,0,0,,8,,,56,127
9389,note_off,107,0,0,,8,,,56,127
9389,note_off,0,0,0,,4,,,52,127
9391,note_on,2,0,0,,6,,,54,127
9391,note_on,0,0,0,,10,,,57,127
9498,note_off,107,0,0,,10,,,57,127
9498,note_off,0,0,0,,6,,,54,127
9500,note_on,2,0,0,,8,,,56,127
9500,note_on,0,0,0,,12,,,59,127
9607,note_off,107,0,0,,12,,,59,127
9607,note_off,0,0,0,,8,,,56,127
9609,note_on,2,0,0,,10,,,57,127
9609,note_on,0,0,0,,1,,,61,127
9716,note_off,107,0,0,,1,,,61,127
9716,note_off,0,0,0,,10,,,57,127
9718,note_on,2,0,0,,12,,,59,127
9718,note_on,0,0,0,,2,,,62,127
9825,note_off,107,0,0,,2,,,62,127
9825,note_off,0,0,0,,12,,,59,127
9827,note_on,2,0,0,,1,,,61,127
9827,note_on,0,0,0,,4,,,64,127
9934,note_off,107,0,0,,4,,,64,127
9934,note_off,0,0,0,,1,,,61,127
9936,note_on,2,0,0,,2,,,62,127
9936,note_on,0,0,0,,6,,,66,127
10043,note_off,107,0,0,,6,,,66,127
10043,note_off,0,0,0,,2,,,62,127
10045,note_on,2,0,0,,4,,,64,127
10045,note_on,0,0,0,,8,,,68,127
10152,note_off,107,0,0,,8,,,68,127
10152,note_off,0,0,0,,4,,,64,127
10154,note_on,2,0,0,,6,,,66,127
10154,note_on,0,0,0,,10,,,69,127
10261,note_off,107,0,0,,10,,,69,127
10261,note_off,0,0,0,,6,,,66,127
10263,note_on,2,0,0,,8,,,68,127
10263,note_on,0,0,0,,12,,,71,127
10370,note_off,107,0,0,,12,,,71,127
10370,note_off,0,0,0,,8,,,68,127
10372,note_on,2,0,0,,10,,,69,127
10372,note_on,0,0,0,,1,,,73,127
10479,note_off,107,0,0,,1,,,73,127
10479,note_off,0,0,0,,10,,,69,127
10481,note_on,2,0,0,,12,,,71,127
10481,note_on,0,0,0,,2,,,74,127
10588,note_off,107,0,0,,2,,,74,127
10588,note_off,0,0,0,,12,,,71,127
10590,note_on,2,0,0,,1,,,73,127
10590,note_on,0,0,0,,4,,,76,127
10697,note_off,107,0,0,,4,,,76,127
10699,note_on,2,0,0,,6,,,78,127
10806,note_off,107,0,0,,6,,,78,127
10806,note_off,0,0,0,,1,,,73,127
10808,note_on,2,0,0,,12,,,71,127
10808,note_on,0,0,0,,8,,,80,127
10915,note_off,107,0,0,,8,,,80,127
10917,note_on,2,0,0,,10,,,81,127
11024,note_off,107,0,0,,10,,,81,127
11024,note_off,0,0,0,,12,,,71,127
11026,note_on,2,0,0,,10,,,69,127
11026,note_on,0,0,0,,12,,,83,127
11133,note_off,107,0,0,,12,,,83,127
11135,note_on,2,0,0,,1,,,85,127
11242,note_off,107,0,0,,1,,,85,127
11242,note_off,0,0,0,,10,,,69,127
11244,note_on,2,0,0,,4,,,64,127
11244,note_on,0,0,0,,1,,,73,127
11461,note_off,217,0,0,,1,,,73,127
11463,note_on,2,0,0,,1,,,73,127
11463,note_on,0,0,0,,12,,,71,127
11570,note_off,107,0,0,,12,,,71,127
11570,note_off,0,0,0,,1,,,73,127
11572,note_on,2,0,0,,10,,,69,127
11679,note_off,107,0,0,,10,,,69,127
11681,note_on,2,0,0,,12,,,71,127
11898,note_off,217,0,0,,12,,,71,127
11898,note_off,0,0,0,,4,,,64,127
11900,note_on,2,0,0,,6,,,66,127
11900,note_on,0,0,0,,3,,,63,127
12010,note_on,110,0,0,,6,,,78,127
12117,note_off,107,0,0,,6,,,78,127
12117,note_off,0,0,0,,3,,,63,127
12117,note_off,0,0,0,,6,,,66,127
12119,note_on,2,0,0,,3,,,63,127
12119,note_on,0,0,0,,6,,,66,127
12119,note_on,0,0,0,,12,,,71,127
12336,note_off,217,0,0,,6,,,66,127
12336,note_off,0,0,0,,3,,,63,127
12338,note_on,2,0,0,,3,,,63,127
12338,note_on,0,0,0,,6,,,66,127
12445,note_off,107,0,0,,12,,,71,127
12447,note_on,2,0,0,,10,,,69,127
12554,note_off,107,0,0,,10,,,69,127
12554,note_off,0,0,0,,6,,,66,127
12554,note_off,0,0,0,,3,,,63,127
12556,note_on,2,0,0,,4,,,64,127
12556,note_on,0,0,0,,8,,,68,127
12663,note_off,107,0,0,,8,,,68,127
12665,note_on,2,0,0,,6,,,78,127
12772,note_off,107,0,0,,6,,,78,127
12772,note_off,0,0,0,,4,,,64,127
12774,note_on,2,0,0,,6,,,66,127
12774,note_on,0,0,0,,3,,,63,127
12774,note_on,0,0,0,,12,,,71,127
12991,note_off,217,0,0,,3,,,63,127
12991,note_off,0,0,0,,6,,,66,127
12993,note_on,2,0,0,,6,,,66,127
12993,note_on,0,0,0,,3,,,63,127
13100,note_off,107,0,0,,12,,,71,127
13102,note_on,2,0,0,,10,,,69,127
13209,note_off,107,0,0,,10,,,69,127
13209,note_off,0,0,0,,3,,,63,127
13209,note_off,0,0,0,,6,,,66,127
13211,note_on,2,0,0,,4,,,64,127
13211,note_on,0,0,0,,8,,,68,127
13283,note_off,72,0,0,,8,,,68,127
13321,note_on,38,0,0,,7,,,79,127
13428,note_off,107,0,0,,7,,,79,127
13428,note_off,0,0,0,,4,,,64,127
13430,note_on,2,0,0,,4,,,64,127
13430,note_on,0,0,0,,7,,,67,127
13430,note_on,0,0,0,,1,,,73,127
13647,note_off,217,0,0,,7,,,67,127
13647,note_off,0,0,0,,4,,,64,127
13649,note_on,2,0,0,,7,,,67,127
13649,note_on,0,0,0,,4,,,64,127
13756,note_off,107,0,0,,1,,,73,127
13758,note_on,2,0,0,,12,,,71,127
13865,note_off,107,0,0,,12,,,71,127
13865,note_off,0,0,0,,4,,,64,127
13865,note_off,0,0,0,,7,,,67,127
13867,note_on,2,0,0,,6,,,66,127
13867,note_on,0,0,0,,11,,,70,127
13974,note_off,107,0,0,,11,,,70,127
13976,note_on,2,0,0,,7,,,79,127
14083,note_off,107,0,0,,7,,,79,127
14083,note_off,0,0,0,,6,,,66,127
14085,note_on,2,0,0,,4,,,64,127
14085,note_on,0,0,0,,7,,,67,127
14085,note_on,0,0,0,,1,,,73,127
14302,note_off,217,0,0,,7,,,67,127
14302,note_off,0,0,0,,4,,,64,127
14304,note_on,2,0,0,,4,,,64,127
14304,note_on,0,0,0,,7,,,67,127
14411,note_off,107,0,0,,1,,,73,127
14413,note_on,2,0,0,,12,,,71,127
14520,note_off,107,0,0,,12,,,71,127
14520,note_off,0,0,0,,7,,,67,127
14520,note_off,0,0,0,,4,,,64,127
14522,note_on,2,0,0,,6,,,66,127
14522,note_on,0,0,0,,11,,,70,127
14594,note_off,72,0,0,,11,,,70,127
14632,note_on,38,0,0,,0,,,84,127
14739,note_off,107,0,0,,0,,,84,127
14739,note_off,0,0,0,,6,,,66,127
14741,note_on,2,0,0,,0,,,72,127
14741,note_on,0,0,0,,10,,,69,127
14741,note_on,0,0,0,,6,,,78,127
14958,note_off,217,0,0,,10,,,69,127
14958,note_off,0,0,0,,0,,,72,127
14960,note_on,2,0,0,,10,,,69,127
14960,note_on,0,0,0,,0,,,72,127
15067,note_off,107,0,0,,6,,,78,127
15069,note_on,2,0,0,,4,,,76,127
15176,note_off,107,0,0,,4,,,76,127
15176,note_off,0,0,0,,0,,,72,127
15176,note_off,0,0,0,,10,,,69,127
15178,note_on,2,0,0,,12,,,71,127
15178,note_on,0,0,0,,3,,,75,127
15285,note_off,107,0,0,,3,,,75,127
15287,note_on,2,0,0,,0,,,84,127
15394,note_off,107,0,0,,0,,,84,127
15394,note_off,0,0,0,,12,,,71,127
15396,note_on,2,0,0,,10,,,69,127
15396,note_on,0,0,0,,0,,,72,127
15396,note_on,0,0,0,,6,,,78,127
15613,note_off,217,0,0,,0,,,72,127
15613,note_off,0,0,0,,10,,,69,127
15615,note_on,2,0,0,,10,,,69,127
15615,note_on,0,0,0,,0,,,72,127
15722,note_off,107,0,0,,6,,,78,127
15724,note_on,2,0,0,,4,,,76,127
15831,note_off,107,0,0,,4,,,76,127
15831,note_off,0,0,0,,0,,,72,127
15831,note_off,0,0,0,,10,,,69,127
15833,note_on,2,0,0,,12,,,71,127
15833,note_on,0,0,0,,3,,,75,127
15940,note_off,107,0,0,,3,,,75,127
15942,note_on,2,0,0,,0,,,84,127
16049,note_off,107,0,0,,0,,,84,127
16049,note_off,0,0,0,,12,,,71,127
16051,note_on,2,0,0,,12,,,59,127
16051,note_on,0,0,0,,0,,,84,127
16158,note_off,107,0,0,,0,,,84,127
16160,note_on,2,0,0,,12,,,83,127
16267,note_off,107,0,0,,12,,,83,127
16267,note_off,0,0,0,,12,,,59,127
16269,note_on,2,0,0,,3,,,63,127
16269,note_on,0,0,0,,12,,,83,127
16376,note_off,107,0,0,,12,,,83,127
16378,note_on,2,0,0,,10,,,81,127
16485,note_off,107,0,0,,10,,,81,127
16485,note_off,0,0,0,,3,,,63,127
16487,note_on,2,0,0,,4,,,64,127
16487,note_on,0,0,0,,10,,,81,127
16594,note_off,107,0,0,,10,,,81,127
16596,note_on,2,0,0,,7,,,79,127
16703,note_off,107,0,0,,7,,,79,127
16703,note_off,0,0,0,,4,,,64,127
16705,note_on,2,0,0,,4,,,52,127
16705,note_on,0,0,0,,7,,,79,127
16812,note_off,107,0,0,,7,,,79,127
16814,note_on,2,0,0,,6,,,78,127
16921,note_off,107,0,0,,6,,,78,127
16921,note_off,0,0,0,,4,,,52,127
16923,note_on,2,0,0,,7,,,55,127
16923,note_on,0,0,0,,4,,,76,127
17030,note_off,107,0,0,,4,,,76,127
17032,note_on,2,0,0,,2,,,74,127
17139,note_off,107,0,0,,2,,,74,127
17139,note_off,0,0,0,,7,,,55,127
17141,note_on,2,0,0,,10,,,57,127
17141,note_on,0,0,0,,0,,,72,127
17248,note_off,107,0,0,,0,,,72,127
17250,note_on,2,0,0,,12,,,71,127
17357,note_off,107,0,0,,12,,,71,127
17359,note_on,2,0,0,,10,,,45,127
17359,note_on,0,0,0,,10,,,69,127
17466,note_off,107,0,0,,10,,,69,127
17468,note_on,2,0,0,,7,,,67,127
17575,note_off,107,0,0,,7,,,67,127
17575,note_off,0,0,0,,10,,,45,127
17575,note_off,0,0,0,,10,,,57,127
17577,note_on,2,0,0,,0,,,48,127
17577,note_on,0,0,0,,6,,,66,127
17684,note_off,107,0,0,,6,,,66,127
17686,note_on,2,0,0,,4,,,64,127
17793,note_off,107,0,0,,4,,,64,127
17793,note_off,0,0,0,,0,,,48,127
17795,note_on,2,0,0,,12,,,47,127
17795,note_on,0,0,0,,12,,,59,127
18124,note_on,329,0,0,,1,,,61,127
18178,note_off,54,0,0,,1,,,61,127
18179,note_on,1,0,0,,3,,,63,127
18233,note_off,54,0,0,,3,,,63,127
18234,note_on,1,0,0,,4,,,64,127
18288,note_off,54,0,0,,4,,,64,127
18289,note_on,1,0,0,,6,,,66,127
18343,note_off,54,0,0,,6,,,66,127
18344,note_off,1,0,0,,12,,,59,127
18344,note_off,0,0,0,,12,,,47,127
18344,note_on,0,0,0,,8,,,68,127
18398,note_off,54,0,0,,8,,,68,127
18399,note_on,1,0,0,,10,,,69,127
18453,note_off,54,0,0,,10,,,69,127
18454,note_on,1,0,0,,12,,,71,127
18561,note_off,107,0,0,,12,,,71,127
18563,note_on,2,0,0,,12,,,71,127
18673,note_on,110,0,0,,6,,,78,127
18780,note_off,107,0,0,,12,,,71,127
18782,note_on,2,0,0,,3,,,75,127
18889,note_off,107,0,0,,6,,,78,127
18891,note_on,2,0,0,,10,,,81,127
18998,note_off,107,0,0,,3,,,75,127
19000,note_on,2,0,0,,6,,,78,127
19107,note_off,107,0,0,,6,,,78,127
19107,note_off,0,0,0,,10,,,81,127
19109,note_on,2,0,0,,4,,,40,127
19109,note_on,0,0,0,,8,,,80,127
19216,note_off,107,0,0,,8,,,80,127
19218,note_on,2,0,0,,6,,,78,127
19325,note_off,107,0,0,,6,,,78,127
19327,note_on,2,0,0,,4,,,76,127
19434,note_off,107,0,0,,4,,,76,127
19436,note_on,2,0,0,,3,,,75,127
19543,note_off,107,0,0,,3,,,75,127
19545,note_on,2,0,0,,4,,,76,127
19652,note_off,107,0,0,,4,,,76,127
19654,note_on,2,0,0,,6,,,78,127
19761,note_off,107,0,0,,6,,,78,127
19761,note_off,0,0,0,,4,,,40,127
19763,note_on,2,0,0,,12,,,71,127
19870,note_off,107,0,0,,12,,,71,127
19872,note_on,2,0,0,,12,,,71,127
19982,note_on,110,0,0,,6,,,78,127
20089,note_off,107,0,0,,12,,,71,127
20091,note_on,2,0,0,,3,,,75,127
20198,note_off,107,0,0,,6,,,78,127
20200,note_on,2,0,0,,10,,,81,127
20307,note_off,107,0,0,,3,,,75,127
20309,note_on,2,0,0,,6,,,78,127
20416,note_off,107,0,0,,6,,,78,127
20416,note_off,0,0,0,,10,,,81,127
20418,note_on,2,0,0,,4,,,40,127
20418,note_on,0,0,0,,8,,,80,127
20525,note_off,107,0,0,,8,,,80,127
20527,note_on,2,0,0,,6,,,78,127
20634,note_off,107,0,0,,6,,,78,127
20636,note_on,2,0,0,,4,,,76,127
20743,note_off,107,0,0,,4,,,76,127
20745,note_on,2,0,0,,3,,,75,127
20852,note_off,107,0,0,,3,,,75,127
20854,note_on,2,0,0,,4,,,76,127
20961,note_off,107,0,0,,4,,,76,127
20963,note_on,2,0,0,,6,,,78,127
21070,note_off,107,0,0,,6,,,78,127
21070,note_off,0,0,0,,4,,,40,127
21072,note_on,2,0,0,,12,,,71,127
21179,note_off,107,0,0,,12,,,71,127
21181,note_on,2,0,0,,12,,,71,127
21291,note_on,110,0,0,,6,,,78,127
21398,note_off,107,0,0,,12,,,71,127
21400,note_on,2,0,0,,3,,,75,127
21507,note_off,107,0,0,,6,,,78,127
21509,note_on,2,0,0,,10,,,81,127
21616,note_off,107,0,0,,3,,,75,127
21618,note_on,2,0,0,,6,,,78,127
21725,note_off,107,0,0,,6,,,78,127
21725,note_off,0,0,0,,10,,,81,127
21727,note_on,2,0,0,,4,,,40,127
21727,note_on,0,0,0,,8,,,80,127
21834,note_off,107,0,0,,8,,,80,127
21836,note_on,2,0,0,,12,,,83,127
21943,note_off,107,0,0,,12,,,83,127
21945,note_on,2,0,0,,10,,,81,127
22052,note_off,107,0,0,,10,,,81,127
22054,note_on,2,0,0,,8,,,80,127
22161,note_off,107,0,0,,8,,,80,127
22161,note_off,0,0,0,,4,,,40,127
22163,note_on,2,0,0,,8,,,56,127
22163,note_on,0,0,0,,6,,,78,127
22270,note_off,107,0,0,,6,,,78,127
22272,note_on,2,0,0,,4,,,76,127
22379,note_off,107,0,0,,4,,,76,127
22379,note_off,0,0,0,,8,,,56,127
22381,note_on,2,0,0,,10,,,57,127
22381,note_on,0,0,0,,6,,,78,127
22488,note_off,107,0,0,,6,,,78,127
22490,note_on,2,0,0,,10,,,81,127
22597,note_off,107,0,0,,10,,,81,127
22597,note_off,0,0,0,,10,,,57,127
22599,note_on,2,0,0,,12,,,59,127
22599,note_on,0,0,0,,8,,,80,127
22706,note_off,107,0,0,,8,,,80,127
22708,note_on,2,0,0,,6,,,78,127
22815,note_off,107,0,0,,6,,,78,127
22817,note_on,2,0,0,,12,,,47,127
22817,note_on,0,0,0,,4,,,76,127
22924,note_off,107,0,0,,4,,,76,127
22926,note_on,2,0,0,,3,,,75,127
23033,note_off,107,0,0,,3,,,75,127
23033,note_off,0,0,0,,12,,,47,127
23033,note_off,0,0,0,,12,,,59,127
23035,note_on,2,0,0,,4,,,52,127
23035,note_on,0,0,0,,3,,,75,127
23253,note_off,218,0,0,,3,,,75,127
23254,note_on,1,0,0,,4,,,76,127
23472,note_off,218,0,0,,4,,,76,127
23473,note_on,1,0,0,,3,,,75,127
23580,note_off,107,0,0,,3,,,75,127
23582,note_off,2,0,0,,4,,,52,127
23582,note_on,0,0,0,,1,,,73,127
23689,note_off,107,0,0,,1,,,73,127
23691,note_on,2,0,0,,12,,,71,127
23798,note_off,107,0,0,,12,,,71,127
23800,note_on,2,0,0,,12,,,71,127
23910,note_on,110,0,0,,6,,,78,127
23937,note_off,27,0,0,,12,,,71,127
24019,note_on,82,0,0,,3,,,75,127
24046,note_off,27,0,0,,6,,,78,127
24128,note_on,82,0,0,,10,,,81,127
24155,note_off,27,0,0,,3,,,75,127
24237,note_on,82,0,0,,6,,,78,127
24264,note_off,27,0,0,,10,,,81,127
24344,note_off,80,0,0,,6,,,78,127
24346,note_on,2,0,0,,4,,,40,127
24346,note_on,0,0,0,,8,,,80,127
24453,note_off,107,0,0,,8,,,80,127
24455,note_on,2,0,0,,6,,,78,127
24562,note_off,107,0,0,,6,,,78,127
24564,note_on,2,0,0,,4,,,76,127
24671,note_off,107,0,0,,4,,,76,127
24673,note_on,2,0,0,,3,,,75,127
24780,note_off,107,0,0,,3,,,75,127
24782,note_on,2,0,0,,4,,,76,127
24889,note_off,107,0,0,,4,,,76,127
24891,note_on,2,0,0,,6,,,78,127
24998,note_off,107,0,0,,6,,,78,127
24998,note_off,0,0,0,,4,,,40,127
25000,note_on,2,0,0,,12,,,71,127
25107,note_off,107,0,0,,12,,,71,127
25109,note_on,2,0,0,,12,,,71,127
25219,note_on,110,0,0,,6,,,78,127
25258,note_off,39,0,0,,12,,,71,127
25329,note_on,71,0,0,,3,,,75,127
25368,note_off,39,0,0,,6,,,78,127
25439,note_on,71,0,0,,10,,,81,127
25478,note_off,39,0,0,,3,,,75,127
25549,note_on,71,0,0,,6,,,78,127
25588,note_off,39,0,0,,10,,,81,127
25657,note_off,69,0,0,,6,,,78,127
25659,note_on,2,0,0,,4,,,40,127
25659,note_on,0,0,0,,8,,,80,127
25766,note_off,107,0,0,,8,,,80,127
25768,note_on,2,0,0,,6,,,78,127
25875,note_off,107,0,0,,6,,,78,127
25877,note_on,2,0,0,,4,,,76,127
25984,note_off,107,0,0,,4,,,76,127
25986,note_on,2,0,0,,3,,,75,127
26093,note_off,107,0,0,,3,,,75,127
26095,note_on,2,0,0,,4,,,76,127
26202,note_off,107,0,0,,4,,,76,127
26204,note_on,2,0,0,,6,,,78,127
26311,note_off,107,0,0,,6,,,78,127
26311,note_off,0,0,0,,4,,,40,127
26313,note_on,2,0,0,,12,,,71,127
26420,note_off,107,0,0,,12,,,71,127
26422,note_on,2,0,0,,12,,,71,127
26532,note_on,110,0,0,,6,,,78,127
26594,note_off,62,0,0,,12,,,71,127
26642,note_on,48,0,0,,3,,,75,127
26749,note_off,107,0,0,,6,,,78,127
26751,note_on,2,0,0,,10,,,81,127
26813,note_off,62,0,0,,3,,,75,127
26861,note_on,48,0,0,,6,,,78,127
26968,note_off,107,0,0,,6,,,78,127
26968,note_off,0,0,0,,10,,,81,127
26970,note_on,2,0,0,,4,,,40,127
26970,note_on,0,0,0,,8,,,80,127
27077,note_off,107,0,0,,8,,,80,127
27079,note_on,2,0,0,,12,,,83,127
27186,note_off,107,0,0,,12,,,83,127
27188,note_on,2,0,0,,10,,,81,127
27295,note_off,107,0,0,,10,,,81,127
27297,note_on,2,0,0,,8,,,80,127
27404,note_off,107,0,0,,8,,,80,127
27404,note_off,0,0,0,,4,,,40,127
27406,note_on,2,0,0,,8,,,56,127
27406,note_on,0,0,0,,6,,,78,127
27513,note_off,107,0,0,,6,,,78,127
27515,note_on,2,0,0,,4,,,76,127
27622,note_off,107,0,0,,4,,,76,127
27622,note_off,0,0,0,,8,,,56,127
27624,note_on,2,0,0,,10,,,57,127
27624,note_on,0,0,0,,6,,,78,127
27731,note_off,107,0,0,,6,,,78,127
27733,note_on,2,0,0,,10,,,81,127
27840,note_off,107,0,0,,10,,,81,127
27840,note_off,0,0,0,,10,,,57,127
27842,note_on,2,0,0,,12,,,59,127
27842,note_on,0,0,0,,8,,,80,127
27949,note_off,107,0,0,,8,,,80,127
27951,note_on,2,0,0,,6,,,78,127
28058,note_off,107,0,0,,6,,,78,127
28060,note_on,2,0,0,,12,,,47,127
28060,note_on,0,0,0,,4,,,76,127
28167,note_off,107,0,0,,4,,,76,127
28169,note_on,2,0,0,,3,,,75,127
28276,note_off,107,0,0,,3,,,75,127
28276,note_off,0,0,0,,12,,,47,127
28276,note_off,0,0,0,,12,,,59,127
28278,note_on,2,0,0,,4,,,40,127
28278,note_on,0,0,0,,6,,,78,127
28496,note_off,218,0,0,,6,,,78,127
28497,note_on,1,0,0,,4,,,76,127
28552,note_on,55,0,0,,6,,,78,127
28569,note_off,17,0,0,,4,,,76,127
28607,note_on,38,0,0,,4,,,76,127
28624,note_off,17,0,0,,6,,,78,127
28662,note_on,38,0,0,,6,,,78,127
28679,note_off,17,0,0,,4,,,76,127
28717,note_on,38,0,0,,4,,,76,127
28734,note_off,17,0,0,,6,,,78,127
28908,note_off,174,0,0,,4,,,76,127
28934,note_off,26,0,0,,4,,,40,127
28936,note_on,2,0,0,,4,,,40,127
28936,note_on,0,0,0,,4,,,76,127
29043,note_off,107,0,0,,4,,,76,127
29045,note_on,2,0,0,,11,,,82,127
29152,note_off,107,0,0,,11,,,82,127
29154,note_on,2,0,0,,11,,,82,127
29261,note_off,107,0,0,,11,,,82,127
29263,note_on,2,0,0,,12,,,83,127
29370,note_off,107,0,0,,12,,,83,127
29370,note_off,0,0,0,,4,,,40,127
29372,note_on,2,0,0,,7,,,67,127
29372,note_on,0,0,0,,12,,,83,127
29479,note_off,107,0,0,,12,,,83,127
29481,note_on,2,0,0,,12,,,71,127
29588,note_off,107,0,0,,12,,,71,127
29588,note_off,0,0,0,,7,,,67,127
29590,note_on,2,0,0,,10,,,69,127
29590,note_on,0,0,0,,0,,,72,127
29697,note_off,107,0,0,,0,,,72,127
29699,note_on,2,0,0,,8,,,80,127
29806,note_off,107,0,0,,8,,,80,127
29806,note_off,0,0,0,,10,,,69,127
29808,note_on,2,0,0,,6,,,66,127
29808,note_on,0,0,0,,8,,,80,127
29915,note_off,107,0,0,,8,,,80,127
29917,note_on,2,0,0,,10,,,81,127
30024,note_off,107,0,0,,10,,,81,127
30024,note_off,0,0,0,,6,,,66,127
30026,note_on,2,0,0,,4,,,64,127
30026,note_on,0,0,0,,10,,,81,127
30133,note_off,107,0,0,,10,,,81,127
30135,note_on,2,0,0,,10,,,69,127
30242,note_off,107,0,0,,10,,,69,127
30242,note_off,0,0,0,,4,,,64,127
30244,note_on,2,0,0,,6,,,66,127
30244,note_on,0,0,0,,3,,,63,127
30244,note_on,0,0,0,,12,,,71,127
30351,note_off,107,0,0,,12,,,71,127
30353,note_on,2,0,0,,6,,,78,127
30460,note_off,107,0,0,,6,,,78,127
30462,note_on,2,0,0,,6,,,78,127
30569,note_off,107,0,0,,6,,,78,127
30571,note_on,2,0,0,,7,,,79,127
30678,note_off,107,0,0,,7,,,79,127
30678,note_off,0,0,0,,3,,,63,127
30678,note_off,0,0,0,,6,,,66,127
30680,note_on,2,0,0,,7,,,67,127
30680,note_on,0,0,0,,4,,,64,127
30680,note_on,0,0,0,,7,,,79,127
30787,note_off,107,0,0,,7,,,79,127
30787,note_off,0,0,0,,7,,,67,127
30789,note_on,2,0,0,,7,,,67,127
30896,note_off,107,0,0,,7,,,67,127
30896,note_off,0,0,0,,4,,,64,127
30898,note_on,2,0,0,,6,,,66,127
30898,note_on,0,0,0,,10,,,69,127
31005,note_off,107,0,0,,10,,,69,127
31007,note_on,2,0,0,,4,,,76,127
31114,note_off,107,0,0,,4,,,76,127
31114,note_off,0,0,0,,6,,,66,127
31116,note_on,2,0,0,,3,,,63,127
31116,note_on,0,0,0,,4,,,76,127
31223,note_off,107,0,0,,4,,,76,127
31225,note_on,2,0,0,,6,,,78,127
31332,note_off,107,0,0,,6,,,78,127
31332,note_off,0,0,0,,3,,,63,127
31334,note_on,2,0,0,,12,,,59,127
31334,note_on,0,0,0,,6,,,78,127
31441,note_off,107,0,0,,6,,,78,127
31443,note_on,2,0,0,,6,,,66,127
31550,note_off,107,0,0,,6,,,66,127
31550,note_off,0,0,0,,12,,,59,127
31552,note_on,2,0,0,,4,,,64,127
31552,note_on,0,0,0,,7,,,67,127
31659,note_off,107,0,0,,7,,,67,127
31661,note_on,2,0,0,,4,,,76,127
31768,note_off,107,0,0,,4,,,76,127
31768,note_off,0,0,0,,4,,,64,127
31770,note_on,2,0,0,,6,,,66,127
31770,note_on,0,0,0,,4,,,76,127
31877,note_off,107,0,0,,4,,,76,127
31879,note_on,2,0,0,,3,,,75,127
31986,note_off,107,0,0,,3,,,75,127
31986,note_off,0,0,0,,6,,,66,127
31988,note_on,2,0,0,,7,,,67,127
31988,note_on,0,0,0,,4,,,76,127
32095,note_off,107,0,0,,4,,,76,127
32097,note_on,2,0,0,,7,,,79,127
32204,note_off,107,0,0,,7,,,79,127
32204,note_off,0,0,0,,7,,,67,127
32206,note_on,2,0,0,,10,,,69,127
32206,note_on,0,0,0,,6,,,78,127
32313,note_off,107,0,0,,6,,,78,127
32315,note_on,2,0,0,,10,,,81,127
32422,note_off,107,0,0,,10,,,81,127
32422,note_off,0,0,0,,10,,,69,127
32424,note_on,2,0,0,,12,,,71,127
32424,note_on,0,0,0,,7,,,79,127
32531,note_off,107,0,0,,7,,,79,127
32533,note_on,2,0,0,,6,,,78,127
32640,note_off,107,0,0,,6,,,78,127
32640,note_off,0,0,0,,12,,,71,127
32642,note_on,2,0,0,,12,,,59,127
32642,note_on,0,0,0,,4,,,76,127
32749,note_off,107,0,0,,4,,,76,127
32751,note_on,2,0,0,,3,,,75,127
32858,note_off,107,0,0,,3,,,75,127
32858,note_off,0,0,0,,12,,,59,127
32860,note_on,2,0,0,,4,,,52,127
32860,note_on,0,0,0,,4,,,76,127
32947,note_off,87,0,0,,4,,,76,127
32970,note_on,23,0,0,,11,,,82,127
33077,note_off,107,0,0,,11,,,82,127
33079,note_on,2,0,0,,11,,,82,127
33186,note_off,107,0,0,,11,,,82,127
33188,note_on,2,0,0,,12,,,83,127
33295,note_off,107,0,0,,12,,,83,127
33295,note_off,0,0,0,,4,,,52,127
33297,note_on,2,0,0,,7,,,55,127
33297,note_on,0,0,0,,12,,,83,127
33407,note_on,110,0,0,,12,,,71,127
33514,note_off,107,0,0,,12,,,71,127
33514,note_off,0,0,0,,12,,,83,127
33514,note_off,0,0,0,,7,,,55,127
33516,note_on,2,0,0,,10,,,57,127
33516,note_on,0,0,0,,0,,,72,127
33623,note_off,107,0,0,,0,,,72,127
33625,note_on,2,0,0,,8,,,80,127
33732,note_off,107,0,0,,8,,,80,127
33732,note_off,0,0,0,,10,,,57,127
33734,note_on,2,0,0,,6,,,54,127
33734,note_on,0,0,0,,8,,,80,127
33841,note_off,107,0,0,,8,,,80,127
33843,note_on,2,0,0,,10,,,81,127
33950,note_off,107,0,0,,10,,,81,127
33950,note_off,0,0,0,,6,,,54,127
33952,note_on,2,0,0,,2,,,50,127
33952,note_on,0,0,0,,10,,,81,127
34062,note_on,110,0,0,,10,,,69,127
34169,note_off,107,0,0,,10,,,69,127
34169,note_off,0,0,0,,10,,,81,127
34169,note_off,0,0,0,,2,,,50,127
34171,note_on,2,0,0,,7,,,55,127
34171,note_on,0,0,0,,12,,,71,127
34278,note_off,107,0,0,,12,,,71,127
34280,note_on,2,0,0,,6,,,78,127
34387,note_off,107,0,0,,6,,,78,127
34387,note_off,0,0,0,,7,,,55,127
34389,note_on,2,0,0,,4,,,52,127
34389,note_on,0,0,0,,6,,,78,127
34496,note_off,107,0,0,,6,,,78,127
34498,note_on,2,0,0,,7,,,79,127
34605,note_off,107,0,0,,7,,,79,127
34605,note_off,0,0,0,,4,,,52,127
34607,note_on,2,0,0,,1,,,49,127
34607,note_on,0,0,0,,7,,,79,127
34717,note_on,110,0,0,,7,,,67,127
34824,note_off,107,0,0,,7,,,67,127
34824,note_off,0,0,0,,7,,,79,127
34824,note_off,0,0,0,,1,,,49,127
34826,note_on,2,0,0,,6,,,54,127
34826,note_on,0,0,0,,10,,,69,127
34933,note_off,107,0,0,,10,,,69,127
34935,note_on,2,0,0,,4,,,76,127
35042,note_off,107,0,0,,4,,,76,127
35042,note_off,0,0,0,,6,,,54,127
35044,note_on,2,0,0,,3,,,51,127
35044,note_on,0,0,0,,4,,,76,127
35151,note_off,107,0,0,,4,,,76,127
35153,note_on,2,0,0,,6,,,78,127
35260,note_off,107,0,0,,6,,,78,127
35260,note_off,0,0,0,,3,,,51,127
35262,note_on,2,0,0,,12,,,47,127
35262,note_on,0,0,0,,6,,,78,127
35372,note_on,110,0,0,,6,,,66,127
35479,note_off,107,0,0,,6,,,66,127
35479,note_off,0,0,0,,6,,,78,127
35479,note_off,0,0,0,,12,,,47,127
35481,note_on,2,0,0,,4,,,52,127
35481,note_on,0,0,0,,7,,,67,127
35588,note_off,107,0,0,,7,,,67,127
35590,note_on,2,0,0,,4,,,76,127
35697,note_off,107,0,0,,4,,,76,127
35697,note_off,0,0,0,,4,,,52,127
35699,note_on,2,0,0,,6,,,54,127
35699,note_on,0,0,0,,4,,,76,127
35806,note_off,107,0,0,,4,,,76,127
35808,note_on,2,0,0,,3,,,75,127
35915,note_off,107,0,0,,3,,,75,127
35915,note_off,0,0,0,,6,,,54,127
35917,note_on,2,0,0,,7,,,55,127
35917,note_on,0,0,0,,4,,,76,127
36024,note_off,107,0,0,,4,,,76,127
36026,note_on,2,0,0,,7,,,79,127
36133,note_off,107,0,0,,7,,,79,127
36133,note_off,0,0,0,,7,,,55,127
36135,note_on,2,0,0,,10,,,57,127
36135,note_on,0,0,0,,6,,,78,127
36242,note_off,107,0,0,,6,,,78,127
36244,note_on,2,0,0,,10,,,81,127
36351,note_off,107,0,0,,10,,,81,127
36351,note_off,0,0,0,,10,,,57,127
36353,note_on,2,0,0,,12,,,59,127
36353,note_on,0,0,0,,7,,,79,127
36460,note_off,107,0,0,,7,,,79,127
36462,note_on,2,0,0,,6,,,78,127
36569,note_off,107,0,0,,6,,,78,127
36571,note_on,2,0,0,,12,,,47,127
36571,note_on,0,0,0,,4,,,76,127
36678,note_off,107,0,0,,4,,,76,127
36680,note_on,2,0,0,,3,,,75,127
36787,note_off,107,0,0,,3,,,75,127
36787,note_off,0,0,0,,12,,,47,127
36787,note_off,0,0,0,,12,,,59,127
36789,note_on,2,0,0,,4,,,52,127
36789,note_on,0,0,0,,4,,,76,127
36899,note_on,110,0,0,,12,,,83,127
37006,note_off,107,0,0,,12,,,83,127
37006,note_off,0,0,0,,4,,,76,127
37008,note_on,2,0,0,,4,,,76,127
37115,note_off,107,0,0,,4,,,76,127
37117,note_on,2,0,0,,4,,,76,127
37224,note_off,107,0,0,,4,,,76,127
37224,note_off,0,0,0,,4,,,52,127
37226,note_on,2,0,0,,7,,,67,127
37226,note_on,0,0,0,,4,,,76,127
37333,note_off,107,0,0,,4,,,76,127
37335,note_on,2,0,0,,4,,,76,127
37442,note_off,107,0,0,,4,,,76,127
37442,note_off,0,0,0,,7,,,67,127
37444,note_on,2,0,0,,10,,,69,127
37444,note_on,0,0,0,,6,,,78,127
37551,note_off,107,0,0,,6,,,78,127
37553,note_on,2,0,0,,10,,,81,127
37660,note_off,107,0,0,,10,,,81,127
37662,note_on,2,0,0,,7,,,79,127
37769,note_off,107,0,0,,7,,,79,127
37771,note_on,2,0,0,,6,,,78,127
37878,note_off,107,0,0,,6,,,78,127
37878,note_off,0,0,0,,10,,,69,127
37880,note_on,2,0,0,,12,,,59,127
37880,note_on,0,0,0,,4,,,76,127
37987,note_off,107,0,0,,4,,,76,127
37989,note_on,2,0,0,,3,,,75,127
38096,note_off,107,0,0,,3,,,75,127
38096,note_off,0,0,0,,12,,,59,127
38098,note_on,2,0,0,,4,,,64,127
38098,note_on,0,0,0,,7,,,79,127
38205,note_off,107,0,0,,7,,,79,127
38207,note_on,2,0,0,,4,,,76,127
38314,note_off,107,0,0,,4,,,76,127
38316,note_on,2,0,0,,12,,,71,127
38423,note_off,107,0,0,,12,,,71,127
38425,note_on,2,0,0,,12,,,71,127
38532,note_off,107,0,0,,12,,,71,127
38532,note_off,0,0,0,,4,,,64,127
38534,note_on,2,0,0,,7,,,55,127
38534,note_on,0,0,0,,12,,,71,127
38641,note_off,107,0,0,,12,,,71,127
38643,note_on,2,0,0,,12,,,71,127
38750,note_off,107,0,0,,12,,,71,127
38750,note_off,0,0,0,,7,,,55,127
38752,note_on,2,0,0,,10,,,57,127
38752,note_on,0,0,0,,0,,,72,127
38859,note_off,107,0,0,,0,,,72,127
38861,note_on,2,0,0,,10,,,69,127
38968,note_off,107,0,0,,10,,,69,127
38968,note_off,0,0,0,,10,,,57,127
38970,note_on,2,0,0,,12,,,59,127
38970,note_on,0,0,0,,7,,,67,127
39077,note_off,107,0,0,,7,,,67,127
39079,note_on,2,0,0,,6,,,66,127
39186,note_off,107,0,0,,6,,,66,127
39188,note_on,2,0,0,,12,,,47,127
39188,note_on,0,0,0,,4,,,64,127
39295,note_off,107,0,0,,4,,,64,127
39297,note_off,2,0,0,,12,,,59,127
39297,note_on,0,0,0,,3,,,63,127
39404,note_off,107,0,0,,3,,,63,127
39404,note_off,0,0,0,,12,,,47,127
39406,note_on,2,0,0,,4,,,40,127
39406,note_on,0,0,0,,4,,,64,127
39497,note_off,91,0,0,,4,,,64,127
39515,note_on,18,0,0,,12,,,83,127
39622,note_off,107,0,0,,12,,,83,127
39624,note_on,2,0,0,,4,,,76,127
39731,note_off,107,0,0,,4,,,76,127
39733,note_on,2,0,0,,4,,,76,127
39840,note_off,107,0,0,,4,,,76,127
39840,note_off,0,0,0,,4,,,40,127
39842,note_on,2,0,0,,7,,,67,127
39842,note_on,0,0,0,,4,,,76,127
39949,note_off,107,0,0,,4,,,76,127
39951,note_on,2,0,0,,4,,,76,127
40058,note_off,107,0,0,,4,,,76,127
40058,note_off,0,0,0,,7,,,67,127
40060,note_on,2,0,0,,10,,,69,127
40060,note_on,0,0,0,,6,,,78,127
40167,note_off,107,0,0,,6,,,78,127
40169,note_on,2,0,0,,10,,,81,127
40276,note_off,107,0,0,,10,,,81,127
40278,note_on,2,0,0,,7,,,79,127
40385,note_off,107,0,0,,7,,,79,127
40387,note_on,2,0,0,,6,,,78,127
40494,note_off,107,0,0,,6,,,78,127
40494,note_off,0,0,0,,10,,,69,127
40496,note_on,2,0,0,,12,,,59,127
40496,note_on,0,0,0,,4,,,76,127
40603,note_off,107,0,0,,4,,,76,127
40605,note_on,2,0,0,,6,,,78,127
40712,note_off,107,0,0,,6,,,78,127
40712,note_off,0,0,0,,12,,,59,127
40714,note_on,2,0,0,,4,,,64,127
40714,note_on,0,0,0,,7,,,79,127
40821,note_off,107,0,0,,7,,,79,127
40823,note_on,2,0,0,,4,,,76,127
40930,note_off,107,0,0,,4,,,76,127
40930,note_off,0,0,0,,4,,,64,127
40932,note_on,2,0,0,,4,,,52,127
40932,note_on,0,0,0,,12,,,71,127
41039,note_off,107,0,0,,12,,,71,127
41041,note_on,2,0,0,,12,,,71,127
41148,note_off,107,0,0,,12,,,71,127
41148,note_off,0,0,0,,4,,,52,127
41150,note_on,2,0,0,,7,,,55,127
41150,note_on,0,0,0,,12,,,71,127
41257,note_off,107,0,0,,12,,,71,127
41259,note_on,2,0,0,,12,,,71,127
41366,note_off,107,0,0,,12,,,71,127
41366,note_off,0,0,0,,7,,,55,127
41368,note_on,2,0,0,,10,,,57,127
41368,note_on,0,0,0,,0,,,72,127
41475,note_off,107,0,0,,0,,,72,127
41477,note_on,2,0,0,,10,,,69,127
41584,note_off,107,0,0,,10,,,69,127
41584,note_off,0,0,0,,10,,,57,127
41586,note_on,2,0,0,,12,,,59,127
41586,note_on,0,0,0,,7,,,67,127
41693,note_off,107,0,0,,7,,,67,127
41695,note_on,2,0,0,,6,,,66,127
41802,note_off,107,0,0,,6,,,66,127
41804,note_on,2,0,0,,12,,,47,127
41804,note_on,0,0,0,,4,,,64,127
41911,note_off,107,0,0,,4,,,64,127
41913,note_off,2,0,0,,12,,,59,127
41913,note_on,0,0,0,,3,,,63,127
42020,note_off,107,0,0,,3,,,63,127
42020,note_off,0,0,0,,12,,,47,127
42022,note_on,2,0,0,,4,,,40,127
42022,note_on,0,0,0,,4,,,64,127
42678,note_off,656,0,0,,4,,,64,127
42680,note_on,2,0,0,,4,,,64,127
42787,note_off,107,0,0,,4,,,64,127
42789,note_on,2,0,0,,8,,,68,127
42896,note_off,107,0,0,,8,,,68,127
42896,note_off,0,0,0,,4,,,40,127
42898,note_on,2,0,0,,8,,,68,127
43005,note_off,107,0,0,,8,,,68,127
43007,note_on,2,0,0,,12,,,71,127
43114,note_off,107,0,0,,12,,,71,127
43116,note_on,2,0,0,,12,,,71,127
43223,note_off,107,0,0,,12,,,71,127
43225,note_on,2,0,0,,2,,,74,127
43332,note_off,107,0,0,,2,,,74,127
43334,note_on,2,0,0,,4,,,52,127
43334,note_on,0,0,0,,12,,,59,127
43334,note_on,0,0,0,,2,,,62,127
43334,note_on,0,0,0,,6,,,78,127
43441,note_off,107,0,0,,6,,,78,127
43443,note_on,2,0,0,,2,,,74,127
43550,note_off,107,0,0,,2,,,74,127
43550,note_off,0,0,0,,2,,,62,127
43550,note_off,0,0,0,,12,,,59,127
43550,note_off,0,0,0,,4,,,52,127
43552,note_on,2,0,0,,4,,,52,127
43552,note_on,0,0,0,,12,,,59,127
43552,note_on,0,0,0,,2,,,62,127
43552,note_on,0,0,0,,1,,,73,127
43659,note_off,107,0,0,,1,,,73,127
43661,note_on,2,0,0,,12,,,71,127
43768,note_off,107,0,0,,12,,,71,127
43768,note_off,0,0,0,,2,,,62,127
43768,note_off,0,0,0,,12,,,59,127
43768,note_off,0,0,0,,4,,,52,127
43770,note_on,2,0,0,,4,,,52,127
43770,note_on,0,0,0,,12,,,59,127
43770,note_on,0,0,0,,2,,,62,127
43770,note_on,0,0,0,,1,,,73,127
43877,note_off,107,0,0,,1,,,73,127
43879,note_on,2,0,0,,2,,,74,127
43986,note_off,107,0,0,,2,,,74,127
43986,note_off,0,0,0,,2,,,62,127
43986,note_off,0,0,0,,12,,,59,127
43986,note_off,0,0,0,,4,,,52,127
43988,note_on,2,0,0,,1,,,61,127
43988,note_on,0,0,0,,10,,,57,127
43988,note_on,0,0,0,,4,,,52,127
43988,note_on,0,0,0,,10,,,81,127
44095,note_off,107,0,0,,10,,,81,127
44097,note_on,2,0,0,,4,,,76,127
44204,note_off,107,0,0,,4,,,76,127
44204,note_off,0,0,0,,4,,,52,127
44204,note_off,0,0,0,,10,,,57,127
44204,note_off,0,0,0,,1,,,61,127
44206,note_on,2,0,0,,4,,,52,127
44206,note_on,0,0,0,,1,,,61,127
44206,note_on,0,0,0,,10,,,57,127
44206,note_on,0,0,0,,4,,,76,127
44313,note_off,107,0,0,,4,,,76,127
44315,note_on,2,0,0,,1,,,73,127
44422,note_off,107,0,0,,1,,,73,127
44422,note_off,0,0,0,,10,,,57,127
44422,note_off,0,0,0,,1,,,61,127
44422,note_off,0,0,0,,4,,,52,127
44424,note_on,2,0,0,,10,,,57,127
44424,note_on,0,0,0,,4,,,52,127
44424,note_on,0,0,0,,1,,,61,127
44424,note_on,0,0,0,,1,,,73,127
44531,note_off,107,0,0,,1,,,73,127
44533,note_on,2,0,0,,10,,,69,127
44640,note_off,107,0,0,,10,,,69,127
44640,note_off,0,0,0,,1,,,61,127
44640,note_off,0,0,0,,4,,,52,127
44640,note_off,0,0,0,,10,,,57,127
44642,note_on,2,0,0,,2,,,62,127
44642,note_on,0,0,0,,12,,,59,127
44642,note_on,0,0,0,,4,,,52,127
44642,note_on,0,0,0,,6,,,78,127
44749,note_off,107,0,0,,6,,,78,127
44751,note_on,2,0,0,,2,,,74,127
44858,note_off,107,0,0,,2,,,74,127
44858,note_off,0,0,0,,4,,,52,127
44858,note_off,0,0,0,,12,,,59,127
44858,note_off,0,0,0,,2,,,62,127
44860,note_on,2,0,0,,4,,,52,127
44860,note_on,0,0,0,,2,,,62,127
44860,note_on,0,0,0,,12,,,59,127
44860,note_on,0,0,0,,1,,,73,127
44967,note_off,107,0,0,,1,,,73,127
44969,note_on,2,0,0,,12,,,71,127
45076,note_off,107,0,0,,12,,,71,127
45076,note_off,0,0,0,,12,,,59,127
45076,note_off,0,0,0,,2,,,62,127
45076,note_off,0,0,0,,4,,,52,127
45078,note_on,2,0,0,,2,,,62,127
45078,note_on,0,0,0,,12,,,59,127
45078,note_on,0,0,0,,4,,,52,127
45078,note_on,0,0,0,,1,,,73,127
45185,note_off,107,0,0,,1,,,73,127
45187,note_on,2,0,0,,2,,,74,127
45294,note_off,107,0,0,,2,,,74,127
45294,note_off,0,0,0,,4,,,52,127
45294,note_off,0,0,0,,12,,,59,127
45294,note_off,0,0,0,,2,,,62,127
45296,note_on,2,0,0,,10,,,57,127
45296,note_on,0,0,0,,4,,,52,127
45296,note_on,0,0,0,,1,,,61,127
45296,note_on,0,0,0,,10,,,81,127
45403,note_off,107,0,0,,10,,,81,127
45405,note_on,2,0,0,,4,,,76,127
45512,note_off,107,0,0,,4,,,76,127
45512,note_off,0,0,0,,1,,,61,127
45512,note_off,0,0,0,,4,,,52,127
45512,note_off,0,0,0,,10,,,57,127
45514,note_on,2,0,0,,1,,,61,127
45514,note_on,0,0,0,,10,,,57,127
45514,note_on,0,0,0,,4,,,52,127
45514,note_on,0,0,0,,4,,,76,127
45621,note_off,107,0,0,,4,,,76,127
45623,note_on,2,0,0,,1,,,73,127
45730,note_off,107,0,0,,1,,,73,127
45730,note_off,0,0,0,,4,,,52,127
45730,note_off,0,0,0,,10,,,57,127
45730,note_off,0,0,0,,1,,,61,127
45732,note_on,2,0,0,,10,,,57,127
45732,note_on,0,0,0,,4,,,52,127
45732,note_on,0,0,0,,1,,,61,127
45732,note_on,0,0,0,,1,,,73,127
45839,note_off,107,0,0,,1,,,73,127
45841,note_on,2,0,0,,10,,,69,127
45948,note_off,107,0,0,,10,,,69,127
45948,note_off,0,0,0,,1,,,61,127
45948,note_off,0,0,0,,4,,,52,127
45948,note_off,0,0,0,,10,,,57,127
45950,note_on,2,0,0,,12,,,59,127
45950,note_on,0,0,0,,4,,,52,127
45950,note_on,0,0,0,,2,,,62,127
45950,note_on,0,0,0,,6,,,78,127
46057,note_off,107,0,0,,6,,,78,127
46059,note_on,2,0,0,,2,,,74,127
46166,note_off,107,0,0,,2,,,74,127
46166,note_off,0,0,0,,2,,,62,127
46166,note_off,0,0,0,,4,,,52,127
46166,note_off,0,0,0,,12,,,59,127
46168,note_on,2,0,0,,12,,,59,127
46168,note_on,0,0,0,,4,,,52,127
46168,note_on,0,0,0,,2,,,62,127
46168,note_on,0,0,0,,1,,,73,127
46275,note_off,107,0,0,,1,,,73,127
46277,note_on,2,0,0,,12,,,71,127
46384,note_off,107,0,0,,12,,,71,127
46384,note_off,0,0,0,,2,,,62,127
46384,note_off,0,0,0,,4,,,52,127
46384,note_off,0,0,0,,12,,,59,127
46386,note_on,2,0,0,,12,,,59,127
46386,note_on,0,0,0,,4,,,52,127
46386,note_on,0,0,0,,2,,,62,127
46386,note_on,0,0,0,,10,,,69,127
46493,note_off,107,0,0,,10,,,69,127
46495,note_on,2,0,0,,12,,,71,127
46602,note_off,107,0,0,,12,,,71,127
46602,note_off,0,0,0,,2,,,62,127
46602,note_off,0,0,0,,4,,,52,127
46602,note_off,0,0,0,,12,,,59,127
46604,note_on,2,0,0,,10,,,45,127
46604,note_on,0,0,0,,12,,,71,127
47041,note_off,437,0,0,,12,,,71,127
47043,note_on,2,0,0,,1,,,73,127
47260,note_off,217,0,0,,1,,,73,127
47262,note_on,2,0,0,,10,,,69,127
47369,note_off,107,0,0,,10,,,69,127
47371,note_on,2,0,0,,1,,,73,127
47478,note_off,107,0,0,,1,,,73,127
47478,note_off,0,0,0,,10,,,45,127
47480,note_on,2,0,0,,1,,,73,127
47587,note_off,107,0,0,,1,,,73,127
47589,note_on,2,0,0,,4,,,76,127
47696,note_off,107,0,0,,4,,,76,127
47698,note_on,2,0,0,,4,,,76,127
47805,note_off,107,0,0,,4,,,76,127
47807,note_on,2,0,0,,7,,,79,127
47914,note_off,107,0,0,,7,,,79,127
47916,note_on,2,0,0,,4,,,64,127
47916,note_on,0,0,0,,10,,,57,127
47916,note_on,0,0,0,,7,,,67,127
47916,note_on,0,0,0,,11,,,82,127
48023,note_off,107,0,0,,11,,,82,127
48025,note_on,2,0,0,,7,,,79,127
48132,note_off,107,0,0,,7,,,79,127
48132,note_off,0,0,0,,7,,,67,127
48132,note_off,0,0,0,,10,,,57,127
48132,note_off,0,0,0,,4,,,64,127
48134,note_on,2,0,0,,4,,,64,127
48134,note_on,0,0,0,,10,,,57,127
48134,note_on,0,0,0,,7,,,67,127
48134,note_on,0,0,0,,5,,,77,127
48241,note_off,107,0,0,,5,,,77,127
48243,note_on,2,0,0,,4,,,76,127
48350,note_off,107,0,0,,4,,,76,127
48350,note_off,0,0,0,,7,,,67,127
48350,note_off,0,0,0,,10,,,57,127
48350,note_off,0,0,0,,4,,,64,127
48352,note_on,2,0,0,,10,,,57,127
48352,note_on,0,0,0,,7,,,67,127
48352,note_on,0,0,0,,4,,,64,127
48352,note_on,0,0,0,,5,,,77,127
48459,note_off,107,0,0,,5,,,77,127
48461,note_on,2,0,0,,8,,,80,127
48568,note_off,107,0,0,,8,,,80,127
48568,note_off,0,0,0,,4,,,64,127
48568,note_off,0,0,0,,7,,,67,127
48568,note_off,0,0,0,,10,,,57,127
48570,note_on,2,0,0,,2,,,62,127
48570,note_on,0,0,0,,10,,,57,127
48570,note_on,0,0,0,,5,,,65,127
48570,note_on,0,0,0,,10,,,81,127
48677,note_off,107,0,0,,10,,,81,127
48679,note_on,2,0,0,,5,,,77,127
48786,note_off,107,0,0,,5,,,77,127
48786,note_off,0,0,0,,5,,,65,127
48786,note_off,0,0,0,,10,,,57,127
48786,note_off,0,0,0,,2,,,62,127
48788,note_on,2,0,0,,10,,,57,127
48788,note_on,0,0,0,,5,,,65,127
48788,note_on,0,0,0,,2,,,62,127
48788,note_on,0,0,0,,5,,,77,127
48895,note_off,107,0,0,,5,,,77,127
48897,note_on,2,0,0,,2,,,74,127
49004,note_off,107,0,0,,2,,,74,127
49004,note_off,0,0,0,,2,,,62,127
49004,note_off,0,0,0,,5,,,65,127
49004,note_off,0,0,0,,10,,,57,127
49006,note_on,2,0,0,,10,,,57,127
49006,note_on,0,0,0,,5,,,65,127
49006,note_on,0,0,0,,2,,,62,127
49006,note_on,0,0,0,,2,,,74,127
49113,note_off,107,0,0,,2,,,74,127
49115,note_on,2,0,0,,10,,,69,127
49222,note_off,107,0,0,,10,,,69,127
49222,note_off,0,0,0,,2,,,62,127
49222,note_off,0,0,0,,5,,,65,127
49222,note_off,0,0,0,,10,,,57,127
49224,note_on,2,0,0,,7,,,67,127
49224,note_on,0,0,0,,4,,,64,127
49224,note_on,0,0,0,,10,,,57,127
49224,note_on,0,0,0,,11,,,82,127
49331,note_off,107,0,0,,11,,,82,127
49333,note_on,2,0,0,,7,,,79,127
49440,note_off,107,0,0,,7,,,79,127
49440,note_off,0,0,0,,10,,,57,127
49440,note_off,0,0,0,,4,,,64,127
49440,note_off,0,0,0,,7,,,67,127
49442,note_on,2,0,0,,10,,,57,127
49442,note_on,0,0,0,,7,,,67,127
49442,note_on,0,0,0,,4,,,64,127
49442,note_on,0,0,0,,5,,,77,127
49549,note_off,107,0,0,,5,,,77,127
49551,note_on,2,0,0,,4,,,76,127
49658,note_off,107,0,0,,4,,,76,127
49658,note_off,0,0,0,,4,,,64,127
49658,note_off,0,0,0,,7,,,67,127
49658,note_off,0,0,0,,10,,,57,127
49660,note_on,2,0,0,,10,,,57,127
49660,note_on,0,0,0,,7,,,67,127
49660,note_on,0,0,0,,4,,,64,127
49660,note_on,0,0,0,,5,,,77,127
49767,note_off,107,0,0,,5,,,77,127
49769,note_on,2,0,0,,8,,,80,127
49876,note_off,107,0,0,,8,,,80,127
49876,note_off,0,0,0,,4,,,64,127
49876,note_off,0,0,0,,7,,,67,127
49876,note_off,0,0,0,,10,,,57,127
49878,note_on,2,0,0,,10,,,57,127
49878,note_on,0,0,0,,5,,,65,127
49878,note_on,0,0,0,,2,,,62,127
49878,note_on,0,0,0,,10,,,81,127
49985,note_off,107,0,0,,10,,,81,127
49987,note_on,2,0,0,,5,,,77,127
50094,note_off,107,0,0,,5,,,77,127
50094,note_off,0,0,0,,2,,,62,127
50094,note_off,0,0,0,,5,,,65,127
50094,note_off,0,0,0,,10,,,57,127
50096,note_on,2,0,0,,2,,,62,127
50096,note_on,0,0,0,,10,,,57,127
50096,note_on,0,0,0,,5,,,65,127
50096,note_on,0,0,0,,5,,,77,127
50203,note_off,107,0,0,,5,,,77,127
50205,note_on,2,0,0,,2,,,74,127
50312,note_off,107,0,0,,2,,,74,127
50312,note_off,0,0,0,,5,,,65,127
50312,note_off,0,0,0,,10,,,57,127
50312,note_off,0,0,0,,2,,,62,127
50314,note_on,2,0,0,,2,,,62,127
50314,note_on,0,0,0,,10,,,57,127
50314,note_on,0,0,0,,5,,,65,127
50314,note_on,0,0,0,,2,,,74,127
50421,note_off,107,0,0,,2,,,74,127
50423,note_on,2,0,0,,10,,,69,127
50530,note_off,107,0,0,,10,,,69,127
50530,note_off,0,0,0,,5,,,65,127
50530,note_off,0,0,0,,10,,,57,127
50530,note_off,0,0,0,,2,,,62,127
50532,note_on,2,0,0,,10,,,57,127
50532,note_on,0,0,0,,7,,,67,127
50532,note_on,0,0,0,,4,,,64,127
50532,note_on,0,0,0,,11,,,82,127
50639,note_off,107,0,0,,11,,,82,127
50641,note_on,2,0,0,,7,,,79,127
50748,note_off,107,0,0,,7,,,79,127
50748,note_off,0,0,0,,4,,,64,127
50748,note_off,0,0,0,,7,,,67,127
50748,note_off,0,0,0,,10,,,57,127
50750,note_on,2,0,0,,7,,,67,127
50750,note_on,0,0,0,,4,,,64,127
50750,note_on,0,0,0,,10,,,57,127
50750,note_on,0,0,0,,5,,,77,127
50857,note_off,107,0,0,,5,,,77,127
50859,note_on,2,0,0,,4,,,76,127
50966,note_off,107,0,0,,4,,,76,127
50966,note_off,0,0,0,,10,,,57,127
50966,note_off,0,0,0,,4,,,64,127
50966,note_off,0,0,0,,7,,,67,127
50968,note_on,2,0,0,,10,,,57,127
50968,note_on,0,0,0,,7,,,67,127
50968,note_on,0,0,0,,4,,,64,127
50968,note_on,0,0,0,,2,,,74,127
51075,note_off,107,0,0,,2,,,74,127
51077,note_on,2,0,0,,4,,,76,127
51184,note_off,107,0,0,,4,,,76,127
51184,note_off,0,0,0,,4,,,64,127
51184,note_off,0,0,0,,7,,,67,127
51184,note_off,0,0,0,,10,,,57,127
51186,note_on,2,0,0,,2,,,50,127
51186,note_on,0,0,0,,4,,,76,127
51623,note_off,437,0,0,,4,,,76,127
51625,note_on,2,0,0,,5,,,77,127
51842,note_off,217,0,0,,5,,,77,127
51842,note_off,0,0,0,,2,,,50,127
51844,note_on,2,0,0,,2,,,50,127
51844,note_on,0,0,0,,2,,,86,127
51844,note_on,0,0,0,,7,,,79,127
51926,note_off,82,0,0,,7,,,79,127
51926,note_on,0,0,0,,5,,,77,127
52007,note_off,81,0,0,,5,,,77,127
52008,note_on,1,0,0,,7,,,79,127
52061,note_off,53,0,0,,2,,,50,127
52063,note_on,2,0,0,,2,,,62,127
52090,note_off,27,0,0,,7,,,79,127
52090,note_on,0,0,0,,5,,,77,127
52171,note_off,81,0,0,,5,,,77,127
52172,note_on,1,0,0,,7,,,79,127
52254,note_off,82,0,0,,7,,,79,127
52254,note_on,0,0,0,,5,,,77,127
52279,note_off,25,0,0,,2,,,62,127
52281,note_on,2,0,0,,5,,,65,127
52335,note_off,54,0,0,,5,,,77,127
52336,note_on,1,0,0,,7,,,79,127
52418,note_off,82,0,0,,7,,,79,127
52418,note_on,0,0,0,,5,,,77,127
52498,note_off,80,0,0,,5,,,65,127
52498,note_off,0,0,0,,2,,,86,127
52499,note_off,1,0,0,,5,,,77,127
52500,note_on,1,0,0,,7,,,43,127
52500,note_on,0,0,0,,2,,,86,127
52500,note_on,0,0,0,,7,,,79,127
52582,note_off,82,0,0,,7,,,79,127
52582,note_on,0,0,0,,5,,,77,127
52663,note_off,81,0,0,,5,,,77,127
52664,note_on,1,0,0,,7,,,79,127
52717,note_off,53,0,0,,7,,,43,127
52719,note_on,2,0,0,,12,,,59,127
52746,note_off,27,0,0,,7,,,79,127
52746,note_on,0,0,0,,5,,,77,127
52827,note_off,81,0,0,,5,,,77,127
52828,note_on,1,0,0,,7,,,79,127
52910,note_off,82,0,0,,7,,,79,127
52910,note_on,0,0,0,,5,,,77,127
52935,note_off,25,0,0,,12,,,59,127
52937,note_on,2,0,0,,5,,,65,127
52991,note_off,54,0,0,,5,,,77,127
52992,note_on,1,0,0,,7,,,79,127
53074,note_off,82,0,0,,7,,,79,127
53074,note_on,0,0,0,,5,,,77,127
53154,note_off,80,0,0,,5,,,65,127
53154,note_off,0,0,0,,2,,,86,127
53155,note_off,1,0,0,,5,,,77,127
53156,note_on,1,0,0,,0,,,48,127
53156,note_on,0,0,0,,0,,,84,127
53156,note_on,0,0,0,,5,,,77,127
53238,note_off,82,0,0,,5,,,77,127
53238,note_on,0,0,0,,4,,,76,127
53319,note_off,81,0,0,,4,,,76,127
53320,note_on,1,0,0,,5,,,77,127
53373,note_off,53,0,0,,0,,,48,127
53375,note_on,2,0,0,,0,,,60,127
53402,note_off,27,0,0,,5,,,77,127
53402,note_on,0,0,0,,4,,,76,127
53483,note_off,81,0,0,,4,,,76,127
53484,note_on,1,0,0,,5,,,77,127
53566,note_off,82,0,0,,5,,,77,127
53566,note_on,0,0,0,,4,,,76,127
53591,note_off,25,0,0,,0,,,60,127
53593,note_on,2,0,0,,4,,,64,127
53647,note_off,54,0,0,,4,,,76,127
53648,note_on,1,0,0,,5,,,77,127
53730,note_off,82,0,0,,5,,,77,127
53730,note_on,0,0,0,,4,,,76,127
53810,note_off,80,0,0,,4,,,64,127
53810,note_off,0,0,0,,0,,,84,127
53811,note_off,1,0,0,,4,,,76,127
53812,note_on,1,0,0,,5,,,41,127
53812,note_on,0,0,0,,0,,,84,127
53812,note_on,0,0,0,,5,,,77,127
53894,note_off,82,0,0,,5,,,77,127
53894,note_on,0,0,0,,4,,,76,127
53975,note_off,81,0,0,,4,,,76,127
53976,note_on,1,0,0,,5,,,77,127
54029,note_off,53,0,0,,5,,,41,127
54031,note_on,2,0,0,,0,,,60,127
54058,note_off,27,0,0,,5,,,77,127
54058,note_on,0,0,0,,4,,,76,127
54139,note_off,81,0,0,,4,,,76,127
54140,note_on,1,0,0,,5,,,77,127
54222,note_off,82,0,0,,5,,,77,127
54222,note_on,0,0,0,,4,,,76,127
54247,note_off,25,0,0,,0,,,60,127
54249,note_on,2,0,0,,4,,,64,127
54303,note_off,54,0,0,,4,,,76,127
54304,note_on,1,0,0,,5,,,77,127
54386,note_off,82,0,0,,5,,,77,127
54386,note_on,0,0,0,,4,,,76,127
54466,note_off,80,0,0,,4,,,64,127
54466,note_off,0,0,0,,0,,,84,127
54467,note_off,1,0,0,,4,,,76,127
54468,note_on,1,0,0,,12,,,47,127
54468,note_on,0,0,0,,12,,,83,127
54468,note_on,0,0,0,,4,,,76,127
54550,note_off,82,0,0,,4,,,76,127
54550,note_on,0,0,0,,2,,,74,127
54631,note_off,81,0,0,,2,,,74,127
54632,note_on,1,0,0,,4,,,76,127
54685,note_off,53,0,0,,12,,,47,127
54687,note_on,2,0,0,,12,,,59,127
54714,note_off,27,0,0,,4,,,76,127
54714,note_on,0,0,0,,2,,,74,127
54795,note_off,81,0,0,,2,,,74,127
54796,note_on,1,0,0,,4,,,76,127
54878,note_off,82,0,0,,4,,,76,127
54878,note_on,0,0,0,,2,,,74,127
54903,note_off,25,0,0,,12,,,59,127
54905,note_on,2,0,0,,2,,,62,127
54959,note_off,54,0,0,,2,,,74,127
54960,note_on,1,0,0,,4,,,76,127
55042,note_off,82,0,0,,4,,,76,127
55042,note_on,0,0,0,,2,,,74,127
55122,note_off,80,0,0,,2,,,62,127
55122,note_off,0,0,0,,12,,,83,127
55123,note_off,1,0,0,,2,,,74,127
55124,note_on,1,0,0,,4,,,40,127
55124,note_on,0,0,0,,12,,,83,127
55124,note_on,0,0,0,,4,,,76,127
55206,note_off,82,0,0,,4,,,76,127
55206,note_on,0,0,0,,2,,,74,127
55287,note_off,81,0,0,,2,,,74,127
55288,note_on,1,0,0,,4,,,76,127
55341,note_off,53,0,0,,4,,,40,127
55343,note_on,2,0,0,,12,,,59,127
55370,note_off,27,0,0,,4,,,76,127
55370,note_on,0,0,0,,2,,,74,127
55451,note_off,81,0,0,,2,,,74,127
55452,note_on,1,0,0,,4,,,76,127
55534,note_off,82,0,0,,4,,,76,127
55534,note_on,0,0,0,,2,,,74,127
55559,note_off,25,0,0,,12,,,59,127
55561,note_on,2,0,0,,2,,,62,127
55615,note_off,54,0,0,,2,,,74,127
55616,note_on,1,0,0,,4,,,76,127
55698,note_off,82,0,0,,4,,,76,127
55698,note_on,0,0,0,,2,,,74,127
55778,note_off,80,0,0,,2,,,62,127
55778,note_off,0,0,0,,12,,,83,127
55779,note_off,1,0,0,,2,,,74,127
55780,note_on,1,0,0,,10,,,45,127
55780,note_on,0,0,0,,10,,,81,127
55780,note_on,0,0,0,,0,,,72,127
55887,note_off,107,0,0,,10,,,81,127
55889,note_on,2,0,0,,7,,,79,127
55996,note_off,107,0,0,,7,,,79,127
55996,note_off,0,0,0,,0,,,72,127
55996,note_off,0,0,0,,10,,,45,127
55998,note_on,2,0,0,,12,,,47,127
55998,note_on,0,0,0,,5,,,77,127
56105,note_off,107,0,0,,5,,,77,127
56107,note_on,2,0,0,,4,,,76,127
56214,note_off,107,0,0,,4,,,76,127
56214,note_off,0,0,0,,12,,,47,127
56216,note_on,2,0,0,,0,,,48,127
56216,note_on,0,0,0,,2,,,74,127
56323,note_off,107,0,0,,2,,,74,127
56325,note_on,2,0,0,,0,,,72,127
56432,note_off,107,0,0,,0,,,72,127
56432,note_off,0,0,0,,0,,,48,127
56434,note_on,2,0,0,,2,,,50,127
56434,note_on,0,0,0,,5,,,77,127
56541,note_off,107,0,0,,5,,,77,127
56543,note_on,2,0,0,,4,,,76,127
56650,note_off,107,0,0,,4,,,76,127
56650,note_off,0,0,0,,2,,,50,127
56652,note_on,2,0,0,,4,,,52,127
56652,note_on,0,0,0,,2,,,74,127
56759,note_off,107,0,0,,2,,,74,127
56761,note_on,2,0,0,,0,,,72,127
56868,note_off,107,0,0,,0,,,72,127
56868,note_off,0,0,0,,4,,,52,127
56870,note_on,2,0,0,,5,,,53,127
56870,note_on,0,0,0,,12,,,71,127
56977,note_off,107,0,0,,12,,,71,127
56979,note_on,2,0,0,,10,,,69,127
57086,note_off,107,0,0,,10,,,69,127
57086,note_off,0,0,0,,5,,,53,127
57088,note_on,2,0,0,,4,,,52,127
57088,note_on,0,0,0,,8,,,68,127
57195,note_off,107,0,0,,8,,,68,127
57197,note_on,2,0,0,,5,,,65,127
57304,note_off,107,0,0,,5,,,65,127
57304,note_off,0,0,0,,4,,,52,127
57306,note_on,2,0,0,,4,,,40,127
57306,note_on,0,0,0,,4,,,64,127
57413,note_off,107,0,0,,4,,,64,127
57415,note_on,2,0,0,,2,,,62,127
57522,note_off,107,0,0,,2,,,62,127
57522,note_off,0,0,0,,4,,,40,127
57524,note_on,2,0,0,,4,,,52,127
57524,note_on,0,0,0,,0,,,60,127
57631,note_off,107,0,0,,0,,,60,127
57633,note_on,2,0,0,,12,,,59,127
57740,note_off,107,0,0,,12,,,59,127
57740,note_off,0,0,0,,4,,,52,127
57742,note_on,2,0,0,,5,,,53,127
57742,note_on,0,0,0,,10,,,57,127
57849,note_off,107,0,0,,10,,,57,127
57851,note_on,2,0,0,,8,,,56,127
57958,note_off,107,0,0,,8,,,56,127
57960,note_on,2,0,0,,10,,,57,127
58067,note_off,107,0,0,,10,,,57,127
58069,note_on,2,0,0,,12,,,59,127
58176,note_off,107,0,0,,12,,,59,127
58178,note_on,2,0,0,,0,,,60,127
58285,note_off,107,0,0,,0,,,60,127
58287,note_on,2,0,0,,2,,,62,127
58394,note_off,107,0,0,,2,,,62,127
58394,note_off,0,0,0,,5,,,53,127
58396,note_on,2,0,0,,4,,,52,127
58396,note_on,0,0,0,,2,,,62,127
58773,note_off,377,0,0,,2,,,62,127
58773,note_on,0,0,0,,4,,,64,127
58883,note_off,110,0,0,,4,,,64,127
58890,note_on,7,0,0,,6,,,66,127
58944,note_off,54,0,0,,6,,,66,127
58945,note_off,1,0,0,,4,,,52,127
58945,note_on,0,0,0,,8,,,68,127
58999,note_off,54,0,0,,8,,,68,127
59000,note_on,1,0,0,,10,,,69,127
59054,note_off,54,0,0,,10,,,69,127
59055,note_on,1,0,0,,12,,,71,127
59165,note_on,110,0,0,,8,,,68,127
59272,note_off,107,0,0,,12,,,71,127
59274,note_on,2,0,0,,2,,,74,127
59381,note_off,107,0,0,,8,,,68,127
59383,note_on,2,0,0,,12,,,71,127
59490,note_off,107,0,0,,2,,,74,127
59492,note_on,2,0,0,,6,,,78,127
59599,note_off,107,0,0,,12,,,71,127
59601,note_on,2,0,0,,2,,,74,127
59708,note_off,107,0,0,,2,,,74,127
59708,note_off,0,0,0,,6,,,78,127
59710,note_on,2,0,0,,10,,,33,127
59710,note_on,0,0,0,,4,,,76,127
59817,note_off,107,0,0,,4,,,76,127
59819,note_on,2,0,0,,10,,,81,127
59926,note_off,107,0,0,,10,,,81,127
59928,note_on,2,0,0,,4,,,76,127
60035,note_off,107,0,0,,4,,,76,127
60037,note_on,2,0,0,,1,,,73,127
60144,note_off,107,0,0,,1,,,73,127
60146,note_on,2,0,0,,10,,,69,127
60253,note_off,107,0,0,,10,,,69,127
60255,note_on,2,0,0,,4,,,76,127
60362,note_off,107,0,0,,4,,,76,127
60362,note_off,0,0,0,,10,,,33,127
60364,note_on,2,0,0,,12,,,71,127
60474,note_on,110,0,0,,8,,,68,127
60581,note_off,107,0,0,,12,,,71,127
60583,note_on,2,0,0,,2,,,74,127
60690,note_off,107,0,0,,8,,,68,127
60692,note_on,2,0,0,,12,,,71,127
60799,note_off,107,0,0,,2,,,74,127
60801,note_on,2,0,0,,6,,,78,127
60908,note_off,107,0,0,,12,,,71,127
60910,note_on,2,0,0,,2,,,74,127
61017,note_off,107,0,0,,2,,,74,127
61017,note_off,0,0,0,,6,,,78,127
61019,note_on,2,0,0,,10,,,33,127
61019,note_on,0,0,0,,4,,,76,127
61126,note_off,107,0,0,,4,,,76,127
61128,note_on,2,0,0,,10,,,81,127
61235,note_off,107,0,0,,10,,,81,127
61237,note_on,2,0,0,,4,,,76,127
61344,note_off,107,0,0,,4,,,76,127
61346,note_on,2,0,0,,1,,,73,127
61453,note_off,107,0,0,,1,,,73,127
61455,note_on,2,0,0,,10,,,69,127
61562,note_off,107,0,0,,10,,,69,127
61564,note_on,2,0,0,,4,,,76,127
61671,note_off,107,0,0,,4,,,76,127
61671,note_off,0,0,0,,10,,,33,127
61673,note_on,2,0,0,,12,,,71,127
61783,note_on,110,0,0,,8,,,68,127
61890,note_off,107,0,0,,12,,,71,127
61892,note_on,2,0,0,,2,,,74,127
61999,note_off,107,0,0,,8,,,68,127
62001,note_on,2,0,0,,12,,,71,127
62108,note_off,107,0,0,,2,,,74,127
62110,note_on,2,0,0,,6,,,78,127
62217,note_off,107,0,0,,12,,,71,127
62219,note_on,2,0,0,,2,,,74,127
62326,note_off,107,0,0,,2,,,74,127
62326,note_off,0,0,0,,6,,,78,127
62328,note_on,2,0,0,,10,,,33,127
62328,note_on,0,0,0,,4,,,76,127
62435,note_off,107,0,0,,4,,,76,127
62437,note_on,2,0,0,,10,,,81,127
62544,note_off,107,0,0,,10,,,81,127
62546,note_on,2,0,0,,4,,,76,127
62653,note_off,107,0,0,,4,,,76,127
62655,note_on,2,0,0,,1,,,73,127
62762,note_off,107,0,0,,1,,,73,127
62762,note_off,0,0,0,,10,,,33,127
62764,note_on,2,0,0,,1,,,61,127
62764,note_on,0,0,0,,10,,,69,127
62871,note_off,107,0,0,,10,,,69,127
62873,note_on,2,0,0,,4,,,76,127
62980,note_off,107,0,0,,4,,,76,127
62980,note_off,0,0,0,,1,,,61,127
62982,note_on,2,0,0,,2,,,62,127
62982,note_on,0,0,0,,12,,,71,127
63089,note_off,107,0,0,,12,,,71,127
63091,note_on,2,0,0,,2,,,74,127
63198,note_off,107,0,0,,2,,,74,127
63198,note_off,0,0,0,,2,,,62,127
63200,note_on,2,0,0,,4,,,64,127
63200,note_on,0,0,0,,1,,,73,127
63307,note_off,107,0,0,,1,,,73,127
63309,note_on,2,0,0,,12,,,71,127
63416,note_off,107,0,0,,12,,,71,127
63416,note_off,0,0,0,,4,,,64,127
63418,note_on,2,0,0,,4,,,52,127
63418,note_on,0,0,0,,10,,,69,127
63525,note_off,107,0,0,,10,,,69,127
63527,note_on,2,0,0,,8,,,68,127
63634,note_off,107,0,0,,8,,,68,127
63634,note_off,0,0,0,,4,,,52,127
63636,note_on,2,0,0,,10,,,45,127
63636,note_on,0,0,0,,1,,,73,127
63743,note_off,107,0,0,,1,,,73,127
63745,note_on,2,0,0,,12,,,71,127
63852,note_off,107,0,0,,12,,,71,127
63854,note_on,2,0,0,,10,,,69,127
63961,note_off,107,0,0,,10,,,69,127
63963,note_on,2,0,0,,8,,,68,127
64070,note_off,107,0,0,,8,,,68,127
64072,note_on,2,0,0,,10,,,69,127
64289,note_off,217,0,0,,10,,,69,127
64289,note_off,0,0,0,,10,,,45,127
64291,note_on,2,0,0,,12,,,71,127
64401,note_on,110,0,0,,8,,,68,127
64463,note_off,62,0,0,,12,,,71,127
64511,note_on,48,0,0,,2,,,74,127
64618,note_off,107,0,0,,8,,,68,127
64620,note_on,2,0,0,,12,,,71,127
64682,note_off,62,0,0,,2,,,74,127
64730,note_on,48,0,0,,6,,,78,127
64837,note_off,107,0,0,,12,,,71,127
64839,note_on,2,0,0,,2,,,74,127
64901,note_off,62,0,0,,6,,,78,127
64947,note_off,46,0,0,,2,,,74,127
64949,note_on,2,0,0,,10,,,33,127
64949,note_on,0,0,0,,4,,,76,127
65056,note_off,107,0,0,,4,,,76,127
65058,note_on,2,0,0,,10,,,81,127
65165,note_off,107,0,0,,10,,,81,127
65167,note_on,2,0,0,,4,,,76,127
65274,note_off,107,0,0,,4,,,76,127
65276,note_on,2,0,0,,1,,,73,127
65383,note_off,107,0,0,,1,,,73,127
65385,note_on,2,0,0,,10,,,69,127
65492,note_off,107,0,0,,10,,,69,127
65494,note_on,2,0,0,,4,,,76,127
65601,note_off,107,0,0,,4,,,76,127
65601,note_off,0,0,0,,10,,,33,127
65603,note_on,2,0,0,,12,,,71,127
65713,note_on,110,0,0,,8,,,68,127
65775,note_off,62,0,0,,12,,,71,127
65823,note_on,48,0,0,,2,,,74,127
65930,note_off,107,0,0,,8,,,68,127
65932,note_on,2,0,0,,12,,,71,127
65994,note_off,62,0,0,,2,,,74,127
66042,note_on,48,0,0,,6,,,78,127
66149,note_off,107,0,0,,12,,,71,127
66151,note_on,2,0,0,,2,,,74,127
66213,note_off,62,0,0,,6,,,78,127
66259,note_off,46,0,0,,2,,,74,127
66261,note_on,2,0,0,,10,,,33,127
66261,note_on,0,0,0,,4,,,76,127
66368,note_off,107,0,0,,4,,,76,127
66370,note_on,2,0,0,,10,,,81,127
66477,note_off,107,0,0,,10,,,81,127
66479,note_on,2,0,0,,4,,,76,127
66586,note_off,107,0,0,,4,,,76,127
66588,note_on,2,0,0,,1,,,73,127
66695,note_off,107,0,0,,1,,,73,127
66697,note_on,2,0,0,,10,,,69,127
66804,note_off,107,0,0,,10,,,69,127
66806,note_on,2,0,0,,4,,,76,127
66913,note_off,107,0,0,,4,,,76,127
66913,note_off,0,0,0,,10,,,33,127
66915,note_on,2,0,0,,12,,,71,127
67025,note_on,110,0,0,,8,,,68,127
67132,note_off,107,0,0,,12,,,71,127
67134,note_on,2,0,0,,2,,,74,127
67196,note_off,62,0,0,,8,,,68,127
67244,note_on,48,0,0,,12,,,71,127
67351,note_off,107,0,0,,2,,,74,127
67353,note_on,2,0,0,,6,,,78,127
67415,note_off,62,0,0,,12,,,71,127
67463,note_on,48,0,0,,2,,,74,127
67570,note_off,107,0,0,,2,,,74,127
67570,note_off,0,0,0,,6,,,78,127
67572,note_on,2,0,0,,10,,,33,127
67572,note_on,0,0,0,,4,,,76,127
67679,note_off,107,0,0,,4,,,76,127
67681,note_on,2,0,0,,10,,,81,127
67788,note_off,107,0,0,,10,,,81,127
67790,note_on,2,0,0,,4,,,76,127
67897,note_off,107,0,0,,4,,,76,127
67899,note_on,2,0,0,,1,,,73,127
68006,note_off,107,0,0,,1,,,73,127
68006,note_off,0,0,0,,10,,,33,127
68008,note_on,2,0,0,,1,,,61,127
68008,note_on,0,0,0,,10,,,69,127
68115,note_off,107,0,0,,10,,,69,127
68117,note_on,2,0,0,,4,,,76,127
68224,note_off,107,0,0,,4,,,76,127
68224,note_off,0,0,0,,1,,,61,127
68226,note_on,2,0,0,,2,,,62,127
68226,note_on,0,0,0,,12,,,71,127
68333,note_off,107,0,0,,12,,,71,127
68335,note_on,2,0,0,,2,,,74,127
68442,note_off,107,0,0,,2,,,74,127
68442,note_off,0,0,0,,2,,,62,127
68444,note_on,2,0,0,,4,,,64,127
68444,note_on,0,0,0,,1,,,73,127
68551,note_off,107,0,0,,1,,,73,127
68553,note_on,2,0,0,,12,,,71,127
68660,note_off,107,0,0,,12,,,71,127
68660,note_off,0,0,0,,4,,,64,127
68662,note_on,2,0,0,,4,,,52,127
68662,note_on,0,0,0,,10,,,69,127
68769,note_off,107,0,0,,10,,,69,127
68771,note_on,2,0,0,,8,,,68,127
68878,note_off,107,0,0,,8,,,68,127
68878,note_off,0,0,0,,4,,,52,127
68880,note_on,2,0,0,,10,,,45,127
68880,note_on,0,0,0,,10,,,69,127
69207,note_off,327,0,0,,10,,,69,127
69209,note_on,2,0,0,,12,,,71,127
69263,note_off,54,0,0,,12,,,71,127
69264,note_on,1,0,0,,0,,,72,127
69318,note_off,54,0,0,,0,,,72,127
69319,note_on,1,0,0,,2,,,74,127
69373,note_off,54,0,0,,2,,,74,127
69374,note_on,1,0,0,,4,,,76,127
69428,note_off,54,0,0,,4,,,76,127
69429,note_on,1,0,0,,6,,,78,127
69483,note_off,54,0,0,,6,,,78,127
69484,note_on,1,0,0,,8,,,80,127
69537,note_off,53,0,0,,10,,,45,127
69538,note_off,1,0,0,,8,,,80,127
69539,note_on,1,0,0,,10,,,45,127
69539,note_on,0,0,0,,10,,,81,127
69646,note_off,107,0,0,,10,,,81,127
69648,note_on,2,0,0,,12,,,83,127
69755,note_off,107,0,0,,12,,,83,127
69757,note_on,2,0,0,,12,,,83,127
69864,note_off,107,0,0,,12,,,83,127
69866,note_on,2,0,0,,0,,,84,127
69973,note_off,107,0,0,,0,,,84,127
69973,note_off,0,0,0,,10,,,45,127
69975,note_on,2,0,0,,10,,,69,127
69975,note_on,0,0,0,,0,,,84,127
70082,note_off,107,0,0,,0,,,84,127
70084,note_on,2,0,0,,0,,,72,127
70191,note_off,107,0,0,,0,,,72,127
70191,note_off,0,0,0,,10,,,69,127
70193,note_on,2,0,0,,12,,,71,127
70193,note_on,0,0,0,,2,,,74,127
70300,note_off,107,0,0,,2,,,74,127
70302,note_on,2,0,0,,10,,,81,127
70409,note_off,107,0,0,,10,,,81,127
70409,note_off,0,0,0,,12,,,71,127
70411,note_on,2,0,0,,8,,,68,127
70411,note_on,0,0,0,,10,,,81,127
70518,note_off,107,0,0,,10,,,81,127
70520,note_on,2,0,0,,12,,,83,127
70627,note_off,107,0,0,,12,,,83,127
70627,note_off,0,0,0,,8,,,68,127
70629,note_on,2,0,0,,4,,,64,127
70629,note_on,0,0,0,,12,,,83,127
70736,note_off,107,0,0,,12,,,83,127
70738,note_on,2,0,0,,12,,,71,127
70845,note_off,107,0,0,,12,,,71,127
70845,note_off,0,0,0,,4,,,64,127
70847,note_on,2,0,0,,10,,,57,127
70847,note_on,0,0,0,,0,,,72,127
70954,note_off,107,0,0,,0,,,72,127
70956,note_on,2,0,0,,8,,,80,127
71063,note_off,107,0,0,,8,,,80,127
71063,note_off,0,0,0,,10,,,57,127
71065,note_on,2,0,0,,12,,,59,127
71065,note_on,0,0,0,,8,,,80,127
71172,note_off,107,0,0,,8,,,80,127
71174,note_on,2,0,0,,10,,,81,127
71281,note_off,107,0,0,,10,,,81,127
71281,note_off,0,0,0,,12,,,59,127
71283,note_on,2,0,0,,0,,,60,127
71283,note_on,0,0,0,,10,,,81,127
71390,note_off,107,0,0,,10,,,81,127
71392,note_on,2,0,0,,7,,,79,127
71499,note_off,107,0,0,,7,,,79,127
71499,note_off,0,0,0,,0,,,60,127
71501,note_on,2,0,0,,2,,,62,127
71501,note_on,0,0,0,,5,,,77,127
71608,note_off,107,0,0,,5,,,77,127
71610,note_on,2,0,0,,4,,,76,127
71717,note_off,107,0,0,,4,,,76,127
71717,note_off,0,0,0,,2,,,62,127
71719,note_on,2,0,0,,4,,,64,127
71719,note_on,0,0,0,,2,,,74,127
71826,note_off,107,0,0,,2,,,74,127
71828,note_on,2,0,0,,0,,,72,127
71935,note_off,107,0,0,,0,,,72,127
71935,note_off,0,0,0,,4,,,64,127
71937,note_on,2,0,0,,5,,,65,127
71937,note_on,0,0,0,,12,,,71,127
72044,note_off,107,0,0,,12,,,71,127
72046,note_on,2,0,0,,10,,,69,127
72153,note_off,107,0,0,,10,,,69,127
72153,note_off,0,0,0,,5,,,65,127
72155,note_on,2,0,0,,4,,,64,127
72155,note_on,0,0,0,,8,,,68,127
72262,note_off,107,0,0,,8,,,68,127
72264,note_on,2,0,0,,2,,,74,127
72371,note_off,107,0,0,,2,,,74,127
72373,note_on,2,0,0,,2,,,74,127
72480,note_off,107,0,0,,2,,,74,127
72482,note_on,2,0,0,,4,,,76,127
72589,note_off,107,0,0,,4,,,76,127
72589,note_off,0,0,0,,4,,,64,127
72591,note_on,2,0,0,,0,,,60,127
72591,note_on,0,0,0,,4,,,76,127
72698,note_off,107,0,0,,4,,,76,127
72700,note_on,2,0,0,,4,,,64,127
72807,note_off,107,0,0,,4,,,64,127
72807,note_off,0,0,0,,0,,,60,127
72809,note_on,2,0,0,,2,,,62,127
72809,note_on,0,0,0,,5,,,65,127
72916,note_off,107,0,0,,5,,,65,127
72918,note_on,2,0,0,,1,,,73,127
73025,note_off,107,0,0,,1,,,73,127
73025,note_off,0,0,0,,2,,,62,127
73027,note_on,2,0,0,,12,,,59,127
73027,note_on,0,0,0,,1,,,73,127
73134,note_off,107,0,0,,1,,,73,127
73136,note_on,2,0,0,,2,,,74,127
73243,note_off,107,0,0,,2,,,74,127
73243,note_off,0,0,0,,12,,,59,127
73245,note_on,2,0,0,,7,,,55,127
73245,note_on,0,0,0,,2,,,74,127
73352,note_off,107,0,0,,2,,,74,127
73354,note_on,2,0,0,,2,,,62,127
73461,note_off,107,0,0,,2,,,62,127
73461,note_off,0,0,0,,7,,,55,127
73463,note_on,2,0,0,,0,,,60,127
73463,note_on,0,0,0,,4,,,64,127
73570,note_off,107,0,0,,4,,,64,127
73572,note_on,2,0,0,,12,,,71,127
73679,note_off,107,0,0,,12,,,71,127
73679,note_off,0,0,0,,0,,,60,127
73681,note_on,2,0,0,,10,,,57,127
73681,note_on,0,0,0,,12,,,71,127
73788,note_off,107,0,0,,12,,,71,127
73790,note_on,2,0,0,,0,,,72,127
73897,note_off,107,0,0,,0,,,72,127
73897,note_off,0,0,0,,10,,,57,127
73899,note_on,2,0,0,,6,,,54,127
73899,note_on,0,0,0,,0,,,72,127
74006,note_off,107,0,0,,0,,,72,127
74008,note_on,2,0,0,,0,,,60,127
74115,note_off,107,0,0,,0,,,60,127
74115,note_off,0,0,0,,6,,,54,127
74117,note_on,2,0,0,,12,,,59,127
74117,note_on,0,0,0,,2,,,62,127
74224,note_off,107,0,0,,2,,,62,127
74226,note_on,2,0,0,,10,,,69,127
74333,note_off,107,0,0,,10,,,69,127
74333,note_off,0,0,0,,12,,,59,127
74335,note_on,2,0,0,,8,,,56,127
74335,note_on,0,0,0,,10,,,69,127
74442,note_off,107,0,0,,10,,,69,127
74444,note_on,2,0,0,,12,,,71,127
74551,note_off,107,0,0,,12,,,71,127
74551,note_off,0,0,0,,8,,,56,127
74553,note_on,2,0,0,,4,,,52,127
74553,note_on,0,0,0,,12,,,71,127
74660,note_off,107,0,0,,12,,,71,127
74662,note_on,2,0,0,,12,,,59,127
74769,note_off,107,0,0,,12,,,59,127
74769,note_off,0,0,0,,4,,,52,127
74771,note_on,2,0,0,,10,,,57,127
74771,note_on,0,0,0,,0,,,60,127
74878,note_off,107,0,0,,0,,,60,127
74880,note_on,2,0,0,,10,,,69,127
74987,note_off,107,0,0,,10,,,69,127
74987,note_off,0,0,0,,10,,,57,127
74989,note_on,2,0,0,,12,,,59,127
74989,note_on,0,0,0,,10,,,69,127
75096,note_off,107,0,0,,10,,,69,127
75098,note_on,2,0,0,,8,,,68,127
75205,note_off,107,0,0,,8,,,68,127
75205,note_off,0,0,0,,12,,,59,127
75207,note_on,2,0,0,,0,,,60,127
75207,note_on,0,0,0,,10,,,69,127
75314,note_off,107,0,0,,10,,,69,127
75316,note_on,2,0,0,,0,,,72,127
75423,note_off,107,0,0,,0,,,72,127
75423,note_off,0,0,0,,0,,,60,127
75425,note_on,2,0,0,,2,,,62,127
75425,note_on,0,0,0,,12,,,71,127
75532,note_off,107,0,0,,12,,,71,127
75534,note_on,2,0,0,,2,,,74,127
75641,note_off,107,0,0,,2,,,74,127
75641,note_off,0,0,0,,2,,,62,127
75643,note_on,2,0,0,,4,,,64,127
75643,note_on,0,0,0,,0,,,72,127
75750,note_off,107,0,0,,0,,,72,127
75752,note_on,2,0,0,,12,,,71,127
75859,note_off,107,0,0,,12,,,71,127
75861,note_on,2,0,0,,4,,,52,127
75861,note_on,0,0,0,,10,,,69,127
75968,note_off,107,0,0,,10,,,69,127
75969,note_off,1,0,0,,4,,,64,127
75970,note_on,1,0,0,,8,,,68,127
76077,note_off,107,0,0,,8,,,68,127
76077,note_off,0,0,0,,4,,,52,127
76079,note_on,2,0,0,,10,,,45,127
76079,note_on,0,0,0,,10,,,69,127
76167,note_off,88,0,0,,10,,,69,127
76189,note_on,22,0,0,,3,,,75,127
76296,note_off,107,0,0,,3,,,75,127
76298,note_on,2,0,0,,3,,,75,127
76405,note_off,107,0,0,,3,,,75,127
76407,note_on,2,0,0,,4,,,76,127
76514,note_off,107,0,0,,4,,,76,127
76514,note_off,0,0,0,,10,,,45,127
76516,note_on,2,0,0,,0,,,60,127
76516,note_on,0,0,0,,4,,,76,127
76626,note_on,110,0,0,,4,,,64,127
76733,note_off,107,0,0,,4,,,64,127
76733,note_off,0,0,0,,4,,,76,127
76733,note_off,0,0,0,,0,,,60,127
76735,note_on,2,0,0,,2,,,62,127
76735,note_on,0,0,0,,5,,,65,127
76842,note_off,107,0,0,,5,,,65,127
76844,note_on,2,0,0,,1,,,73,127
76951,note_off,107,0,0,,1,,,73,127
76951,note_off,0,0,0,,2,,,62,127
76953,note_on,2,0,0,,12,,,59,127
76953,note_on,0,0,0,,1,,,73,127
77060,note_off,107,0,0,,1,,,73,127
77062,note_on,2,0,0,,2,,,74,127
77169,note_off,107,0,0,,2,,,74,127
77169,note_off,0,0,0,,12,,,59,127
77171,note_on,2,0,0,,7,,,55,127
77171,note_on,0,0,0,,2,,,74,127
77281,note_on,110,0,0,,2,,,62,127
77388,note_off,107,0,0,,2,,,62,127
77388,note_off,0,0,0,,2,,,74,127
77388,note_off,0,0,0,,7,,,55,127
77390,note_on,2,0,0,,0,,,60,127
77390,note_on,0,0,0,,4,,,64,127
77497,note_off,107,0,0,,4,,,64,127
77499,note_on,2,0,0,,12,,,71,127
77606,note_off,107,0,0,,12,,,71,127
77606,note_off,0,0,0,,0,,,60,127
77608,note_on,2,0,0,,10,,,57,127
77608,note_on,0,0,0,,12,,,71,127
77715,note_off,107,0,0,,12,,,71,127
77717,note_on,2,0,0,,0,,,72,127
77824,note_off,107,0,0,,0,,,72,127
77824,note_off,0,0,0,,10,,,57,127
77826,note_on,2,0,0,,6,,,54,127
77826,note_on,0,0,0,,0,,,72,127
77936,note_on,110,0,0,,0,,,60,127
78043,note_off,107,0,0,,0,,,60,127
78043,note_off,0,0,0,,0,,,72,127
78043,note_off,0,0,0,,6,,,54,127
78045,note_on,2,0,0,,12,,,59,127
78045,note_on,0,0,0,,2,,,62,127
78152,note_off,107,0,0,,2,,,62,127
78154,note_on,2,0,0,,10,,,69,127
78261,note_off,107,0,0,,10,,,69,127
78261,note_off,0,0,0,,12,,,59,127
78263,note_on,2,0,0,,8,,,56,127
78263,note_on,0,0,0,,10,,,69,127
78370,note_off,107,0,0,,10,,,69,127
78372,note_on,2,0,0,,12,,,71,127
78479,note_off,107,0,0,,12,,,71,127
78479,note_off,0,0,0,,8,,,56,127
78481,note_on,2,0,0,,4,,,52,127
78481,note_on,0,0,0,,12,,,71,127
78591,note_on,110,0,0,,12,,,59,127
78698,note_off,107,0,0,,12,,,59,127
78698,note_off,0,0,0,,12,,,71,127
78698,note_off,0,0,0,,4,,,52,127
78700,note_on,2,0,0,,10,,,45,127
78700,note_on,0,0,0,,0,,,60,127
78807,note_off,107,0,0,,0,,,60,127
78809,note_on,2,0,0,,10,,,69,127
78916,note_off,107,0,0,,10,,,69,127
78916,note_off,0,0,0,,10,,,45,127
78918,note_on,2,0,0,,12,,,47,127
78918,note_on,0,0,0,,10,,,69,127
79025,note_off,107,0,0,,10,,,69,127
79027,note_on,2,0,0,,8,,,68,127
79134,note_off,107,0,0,,8,,,68,127
79134,note_off,0,0,0,,12,,,47,127
79136,note_on,2,0,0,,0,,,48,127
79136,note_on,0,0,0,,10,,,69,127
79243,note_off,107,0,0,,10,,,69,127
79245,note_on,2,0,0,,0,,,72,127
79352,note_off,107,0,0,,0,,,72,127
79352,note_off,0,0,0,,0,,,48,127
79354,note_on,2,0,0,,2,,,50,127
79354,note_on,0,0,0,,12,,,71,127
79461,note_off,107,0,0,,12,,,71,127
79463,note_on,2,0,0,,2,,,74,127
79570,note_off,107,0,0,,2,,,74,127
79570,note_off,0,0,0,,2,,,50,127
79572,note_on,2,0,0,,4,,,52,127
79572,note_on,0,0,0,,0,,,72,127
79679,note_off,107,0,0,,0,,,72,127
79681,note_on,2,0,0,,12,,,71,127
79788,note_off,107,0,0,,12,,,71,127
79790,note_on,2,0,0,,4,,,40,127
79790,note_on,0,0,0,,10,,,69,127
79897,note_off,107,0,0,,10,,,69,127
79899,note_on,2,0,0,,8,,,68,127
80006,note_off,107,0,0,,8,,,68,127
80006,note_off,0,0,0,,4,,,40,127
80006,note_off,0,0,0,,4,,,52,127
80008,note_on,2,0,0,,10,,,45,127
80008,note_on,0,0,0,,10,,,69,127
80118,note_on,110,0,0,,10,,,81,127
80225,note_off,107,0,0,,10,,,81,127
80225,note_off,0,0,0,,10,,,69,127
80227,note_on,2,0,0,,4,,,76,127
80334,note_off,107,0,0,,4,,,76,127
80336,note_on,2,0,0,,4,,,76,127
80443,note_off,107,0,0,,4,,,76,127
80443,note_off,0,0,0,,10,,,45,127
80445,note_on,2,0,0,,0,,,60,127
80445,note_on,0,0,0,,4,,,76,127
80552,note_off,107,0,0,,4,,,76,127
80554,note_on,2,0,0,,4,,,76,127
80661,note_off,107,0,0,,4,,,76,127
80661,note_off,0,0,0,,0,,,60,127
80663,note_on,2,0,0,,2,,,62,127
80663,note_on,0,0,0,,5,,,77,127
80770,note_off,107,0,0,,5,,,77,127
80772,note_on,2,0,0,,2,,,74,127
80879,note_off,107,0,0,,2,,,74,127
80881,note_on,2,0,0,,0,,,72,127
80988,note_off,107,0,0,,0,,,72,127
80990,note_on,2,0,0,,12,,,71,127
81097,note_off,107,0,0,,12,,,71,127
81097,note_off,0,0,0,,2,,,62,127
81099,note_on,2,0,0,,7,,,55,127
81099,note_on,0,0,0,,0,,,72,127
81206,note_off,107,0,0,,0,,,72,127
81208,note_on,2,0,0,,2,,,74,127
81315,note_off,107,0,0,,2,,,74,127
81315,note_off,0,0,0,,7,,,55,127
81317,note_on,2,0,0,,0,,,60,127
81317,note_on,0,0,0,,4,,,76,127
81424,note_off,107,0,0,,4,,,76,127
81426,note_on,2,0,0,,0,,,72,127
81533,note_off,107,0,0,,0,,,72,127
81535,note_on,2,0,0,,10,,,69,127
81642,note_off,107,0,0,,10,,,69,127
81644,note_on,2,0,0,,10,,,69,127
81751,note_off,107,0,0,,10,,,69,127
81751,note_off,0,0,0,,0,,,60,127
81753,note_on,2,0,0,,5,,,65,127
81753,note_on,0,0,0,,10,,,69,127
81860,note_off,107,0,0,,10,,,69,127
81862,note_on,2,0,0,,10,,,69,127
81969,note_off,107,0,0,,10,,,69,127
81969,note_off,0,0,0,,5,,,65,127
81971,note_on,2,0,0,,2,,,62,127
81971,note_on,0,0,0,,12,,,71,127
82078,note_off,107,0,0,,12,,,71,127
82080,note_on,2,0,0,,2,,,74,127
82187,note_off,107,0,0,,2,,,74,127
82187,note_off,0,0,0,,2,,,62,127
82189,note_on,2,0,0,,4,,,64,127
82189,note_on,0,0,0,,0,,,72,127
82296,note_off,107,0,0,,0,,,72,127
82298,note_on,2,0,0,,12,,,71,127
82405,note_off,107,0,0,,12,,,71,127
82407,note_on,2,0,0,,4,,,52,127
82407,note_on,0,0,0,,10,,,69,127
82514,note_off,107,0,0,,10,,,69,127
82516,note_on,2,0,0,,8,,,68,127
82623,note_off,107,0,0,,8,,,68,127
82623,note_off,0,0,0,,4,,,52,127
82623,note_off,0,0,0,,4,,,64,127
82625,note_on,2,0,0,,10,,,57,127
82625,note_on,0,0,0,,10,,,69,127
82735,note_on,110,0,0,,10,,,81,127
82842,note_off,107,0,0,,10,,,81,127
82842,note_off,0,0,0,,10,,,69,127
82844,note_on,2,0,0,,10,,,45,127
82844,note_on,0,0,0,,4,,,76,127
82951,note_off,107,0,0,,4,,,76,127
82953,note_on,2,0,0,,4,,,76,127
83060,note_off,107,0,0,,4,,,76,127
83060,note_off,0,0,0,,10,,,45,127
83060,note_off,0,0,0,,10,,,57,127
83062,note_on,2,0,0,,0,,,48,127
83062,note_on,0,0,0,,4,,,76,127
83169,note_off,107,0,0,,4,,,76,127
83171,note_on,2,0,0,,4,,,76,127
83278,note_off,107,0,0,,4,,,76,127
83278,note_off,0,0,0,,0,,,48,127
83280,note_on,2,0,0,,2,,,50,127
83280,note_on,0,0,0,,5,,,77,127
83387,note_off,107,0,0,,5,,,77,127
83389,note_on,2,0,0,,2,,,74,127
83496,note_off,107,0,0,,2,,,74,127
83498,note_on,2,0,0,,0,,,72,127
83605,note_off,107,0,0,,0,,,72,127
83607,note_on,2,0,0,,12,,,71,127
83714,note_off,107,0,0,,12,,,71,127
83714,note_off,0,0,0,,2,,,50,127
83716,note_on,2,0,0,,7,,,55,127
83716,note_on,0,0,0,,0,,,72,127
83823,note_off,107,0,0,,0,,,72,127
83825,note_on,2,0,0,,2,,,74,127
83932,note_off,107,0,0,,2,,,74,127
83932,note_off,0,0,0,,7,,,55,127
83934,note_on,2,0,0,,0,,,48,127
83934,note_on,0,0,0,,4,,,76,127
84041,note_off,107,0,0,,4,,,76,127
84043,note_on,2,0,0,,0,,,72,127
84150,note_off,107,0,0,,0,,,72,127
84150,note_off,0,0,0,,0,,,48,127
84152,note_on,2,0,0,,5,,,53,127
84152,note_on,0,0,0,,10,,,69,127
84259,note_off,107,0,0,,10,,,69,127
84261,note_on,2,0,0,,10,,,69,127
84368,note_off,107,0,0,,10,,,69,127
84368,note_off,0,0,0,,5,,,53,127
84370,note_on,2,0,0,,4,,,52,127
84370,note_on,0,0,0,,10,,,69,127
84477,note_off,107,0,0,,10,,,69,127
84479,note_on,2,0,0,,10,,,69,127
84586,note_off,107,0,0,,10,,,69,127
84586,note_off,0,0,0,,4,,,52,127
84588,note_on,2,0,0,,2,,,50,127
84588,note_on,0,0,0,,12,,,71,127
84695,note_off,107,0,0,,12,,,71,127
84697,note_on,2,0,0,,2,,,74,127
84804,note_off,107,0,0,,2,,,74,127
84804,note_off,0,0,0,,2,,,50,127
84806,note_on,2,0,0,,4,,,52,127
84806,note_on,0,0,0,,0,,,72,127
84913,note_off,107,0,0,,0,,,72,127
84915,note_on,2,0,0,,12,,,71,127
85022,note_off,107,0,0,,12,,,71,127
85024,note_on,2,0,0,,4,,,40,127
85024,note_on,0,0,0,,10,,,69,127
85131,note_off,107,0,0,,10,,,69,127
85133,note_on,2,0,0,,8,,,68,127
85240,note_off,107,0,0,,8,,,68,127
85240,note_off,0,0,0,,4,,,40,127
85240,note_off,0,0,0,,4,,,52,127
85257,note_on,17,0,0,,10,,,45,127
85257,note_on,0,0,0,,10,,,69,127
87122,note_off,1865,0,0,,10,,,69,127
87122,note_off,0,0,0,,10,,,45,127
92160,end_of_track,5038,1,0,,,,,,
