tick,type,time,meta,track,program,channel,pitch,tempo,note,velocity
0,copyright,0,1,0,,,,,,
0,program_change,0,0,0,6,0,,,,
0,pitchwheel,0,0,0,,0,0,,,
0,program_change,0,0,0,6,1,,,,
0,pitchwheel,0,0,0,,1,-590,,,
0,program_change,0,0,0,6,2,,,,
0,pitchwheel,0,0,0,,2,-272,,,
0,program_change,0,0,0,6,3,,,,
0,pitchwheel,0,0,0,,3,-353,,,
0,program_change,0,0,0,6,4,,,,
0,pitchwheel,0,0,0,,4,-560,,,
0,program_change,0,0,0,6,5,,,,
0,pitchwheel,0,0,0,,5,-80,,,
0,program_change,0,0,0,6,6,,,,
0,pitchwheel,0,0,0,,6,-625,,,
0,program_change,0,0,0,6,7,,,,
0,pitchwheel,0,0,0,,7,-130,,,
0,program_change,0,0,0,6,8,,,,
0,pitchwheel,0,0,0,,8,-512,,,
0,program_change,0,0,0,6,10,,,,
0,pitchwheel,0,0,0,,10,-464,,,
0,program_change,0,0,0,6,11,,,,
0,pitchwheel,0,0,0,,11,-208,,,
0,program_change,0,0,0,6,12,,,,
0,pitchwheel,0,0,0,,12,-553,,,
0,set_tempo,0,1,0,,,,500000,,
89,note_on,89,0,0,,7,,,55,127
89,note_on,0,0,0,,7,,,79,127
206,note_off,117,0,0,,7,,,79,127
207,note_on,1,0,0,,2,,,74,127
324,note_off,117,0,0,,2,,,74,127
325,note_on,1,0,0,,11,,,70,127
442,note_off,117,0,0,,11,,,70,127
443,note_on,1,0,0,,7,,,43,127
443,note_on,0,0,0,,7,,,67,127
560,note_off,117,0,0,,7,,,67,127
561,note_on,1,0,0,,2,,,62,127
678,note_off,117,0,0,,2,,,62,127
679,note_on,1,0,0,,11,,,58,127
796,note_off,117,0,0,,7,,,43,127
796,note_off,0,0,0,,7,,,55,127
797,note_on,1,0,0,,2,,,50,127
1151,note_on,354,0,0,,2,,,38,127
1209,note_off,58,0,0,,11,,,58,127
1210,note_on,1,0,0,,10,,,57,127
1268,note_off,58,0,0,,10,,,57,127
1269,note_on,1,0,0,,11,,,58,127
1327,note_off,58,0,0,,11,,,58,127
1328,note_on,1,0,0,,10,,,57,127
1386,note_off,58,0,0,,10,,,57,127
1387,note_on,1,0,0,,11,,,58,127
1445,note_off,58,0,0,,11,,,58,127
1446,note_on,1,0,0,,10,,,57,127
1504,note_off,58,0,0,,10,,,57,127
1504,note_off,0,0,0,,2,,,38,127
1504,note_off,0,0,0,,2,,,50,127
1505,note_on,1,0,0,,7,,,55,127
1505,note_on,0,0,0,,7,,,79,127
1622,note_off,117,0,0,,7,,,79,127
1623,note_on,1,0,0,,2,,,74,127
1740,note_off,117,0,0,,2,,,74,127
1741,note_on,1,0,0,,11,,,70,127
1858,note_off,117,0,0,,11,,,70,127
1859,note_on,1,0,0,,7,,,43,127
1859,note_on,0,0,0,,7,,,67,127
1976,note_off,117,0,0,,7,,,67,127
1977,note_on,1,0,0,,2,,,62,127
2094,note_off,117,0,0,,2,,,62,127
2095,note_on,1,0,0,,11,,,58,127
2212,note_off,117,0,0,,7,,,43,127
2212,note_off,0,0,0,,7,,,55,127
2213,note_on,1,0,0,,2,,,50,127
2567,note_on,354,0,0,,2,,,38,127
2625,note_off,58,0,0,,11,,,58,127
2626,note_on,1,0,0,,10,,,57,127
2684,note_off,58,0,0,,10,,,57,127
2685,note_on,1,0,0,,11,,,58,127
2743,note_off,58,0,0,,11,,,58,127
2744,note_on,1,0,0,,10,,,57,127
2802,note_off,58,0,0,,10,,,57,127
2803,note_on,1,0,0,,11,,,58,127
2861,note_off,58,0,0,,11,,,58,127
2862,note_on,1,0,0,,10,,,57,127
2920,note_off,58,0,0,,10,,,57,127
2920,note_off,0,0,0,,2,,,38,127
2920,note_off,0,0,0,,2,,,50,127
2921,note_on,1,0,0,,2,,,50,127
2921,note_on,0,0,0,,10,,,81,127
3038,note_off,117,0,0,,10,,,81,127
3039,note_on,1,0,0,,6,,,78,127
3156,note_off,117,0,0,,6,,,78,127
3157,note_on,1,0,0,,0,,,72,127
3274,note_off,117,0,0,,0,,,72,127
3274,note_off,0,0,0,,2,,,50,127
3275,note_on,1,0,0,,2,,,38,127
3275,note_on,0,0,0,,10,,,69,127
3392,note_off,117,0,0,,10,,,69,127
3393,note_on,1,0,0,,6,,,66,127
3510,note_off,117,0,0,,6,,,66,127
3511,note_on,1,0,0,,0,,,60,127
3628,note_off,117,0,0,,2,,,38,127
3629,note_on,1,0,0,,7,,,43,127
3983,note_off,354,0,0,,7,,,43,127
3984,note_on,1,0,0,,7,,,55,127
4042,note_off,58,0,0,,0,,,60,127
4043,note_on,1,0,0,,11,,,58,127
4101,note_off,58,0,0,,11,,,58,127
4102,note_on,1,0,0,,0,,,60,127
4160,note_off,58,0,0,,0,,,60,127
4161,note_on,1,0,0,,11,,,58,127
4219,note_off,58,0,0,,11,,,58,127
4220,note_on,1,0,0,,0,,,60,127
4278,note_off,58,0,0,,0,,,60,127
4279,note_on,1,0,0,,11,,,58,127
4337,note_off,58,0,0,,11,,,58,127
4337,note_off,0,0,0,,7,,,55,127
4338,note_on,1,0,0,,2,,,62,127
4338,note_on,0,0,0,,10,,,81,127
4455,note_off,117,0,0,,10,,,81,127
4456,note_on,1,0,0,,6,,,78,127
4573,note_off,117,0,0,,6,,,78,127
4574,note_on,1,0,0,,0,,,72,127
4691,note_off,117,0,0,,0,,,72,127
4692,note_on,1,0,0,,2,,,50,127
4692,note_on,0,0,0,,10,,,69,127
4808,note_off,116,0,0,,2,,,62,127
4809,note_off,1,0,0,,10,,,69,127
4810,note_on,1,0,0,,6,,,66,127
4927,note_off,117,0,0,,6,,,66,127
4928,note_on,1,0,0,,0,,,60,127
5045,note_off,117,0,0,,2,,,50,127
5046,note_on,1,0,0,,7,,,55,127
5400,note_off,354,0,0,,7,,,55,127
5401,note_on,1,0,0,,7,,,43,127
5459,note_off,58,0,0,,0,,,60,127
5460,note_on,1,0,0,,11,,,58,127
5518,note_off,58,0,0,,11,,,58,127
5519,note_on,1,0,0,,0,,,60,127
5577,note_off,58,0,0,,0,,,60,127
5578,note_on,1,0,0,,11,,,58,127
5636,note_off,58,0,0,,11,,,58,127
5637,note_on,1,0,0,,0,,,60,127
5695,note_off,58,0,0,,0,,,60,127
5696,note_on,1,0,0,,11,,,58,127
5754,note_off,58,0,0,,11,,,58,127
5754,note_off,0,0,0,,7,,,43,127
5755,note_on,1,0,0,,7,,,67,127
5872,note_off,117,0,0,,7,,,67,127
5873,note_on,1,0,0,,2,,,62,127
5990,note_off,117,0,0,,2,,,62,127
5991,note_on,1,0,0,,11,,,58,127
6108,note_off,117,0,0,,11,,,58,127
6109,note_on,1,0,0,,7,,,55,127
6226,note_off,117,0,0,,7,,,55,127
6227,note_on,1,0,0,,3,,,63,127
6227,note_on,0,0,0,,7,,,67,127
6227,note_on,0,0,0,,11,,,70,127
6227,note_on,0,0,0,,7,,,79,127
6344,note_off,117,0,0,,3,,,63,127
6345,note_on,1,0,0,,0,,,60,127
6462,note_off,117,0,0,,0,,,60,127
6463,note_on,1,0,0,,2,,,62,127
6817,note_off,354,0,0,,7,,,79,127
6817,note_off,0,0,0,,11,,,70,127
6817,note_off,0,0,0,,7,,,67,127
6818,note_on,1,0,0,,2,,,50,127
6818,note_on,0,0,0,,2,,,74,127
6818,note_on,0,0,0,,6,,,78,127
6818,note_on,0,0,0,,10,,,69,127
6818,note_on,0,0,0,,0,,,72,127
7172,note_off,354,0,0,,0,,,72,127
7172,note_off,0,0,0,,10,,,69,127
7172,note_off,0,0,0,,6,,,78,127
7172,note_off,0,0,0,,2,,,74,127
7172,note_off,0,0,0,,2,,,50,127
7172,note_off,0,0,0,,2,,,62,127
7173,note_on,1,0,0,,7,,,67,127
7290,note_off,117,0,0,,7,,,67,127
7291,note_on,1,0,0,,2,,,62,127
7408,note_off,117,0,0,,2,,,62,127
7409,note_on,1,0,0,,11,,,58,127
7526,note_off,117,0,0,,11,,,58,127
7527,note_on,1,0,0,,7,,,55,127
7644,note_off,117,0,0,,7,,,55,127
7645,note_on,1,0,0,,3,,,63,127
7645,note_on,0,0,0,,7,,,79,127
7645,note_on,0,0,0,,11,,,70,127
7645,note_on,0,0,0,,7,,,67,127
7762,note_off,117,0,0,,3,,,63,127
7763,note_on,1,0,0,,0,,,60,127
7880,note_off,117,0,0,,0,,,60,127
7881,note_on,1,0,0,,2,,,62,127
8235,note_off,354,0,0,,7,,,67,127
8235,note_off,0,0,0,,11,,,70,127
8235,note_off,0,0,0,,7,,,79,127
8236,note_on,1,0,0,,2,,,50,127
8236,note_on,0,0,0,,10,,,69,127
8236,note_on,0,0,0,,0,,,72,127
8236,note_on,0,0,0,,2,,,74,127
8236,note_on,0,0,0,,6,,,78,127
8590,note_off,354,0,0,,6,,,78,127
8590,note_off,0,0,0,,2,,,74,127
8590,note_off,0,0,0,,0,,,72,127
8590,note_off,0,0,0,,10,,,69,127
8590,note_off,0,0,0,,2,,,50,127
8590,note_off,0,0,0,,2,,,62,127
8591,note_on,1,0,0,,2,,,62,127
8708,note_off,117,0,0,,2,,,62,127
8709,note_on,1,0,0,,10,,,57,127
8826,note_off,117,0,0,,10,,,57,127
8827,note_on,1,0,0,,6,,,54,127
8944,note_off,117,0,0,,6,,,54,127
8945,note_on,1,0,0,,2,,,50,127
9062,note_off,117,0,0,,2,,,50,127
9063,note_on,1,0,0,,0,,,60,127
9063,note_on,0,0,0,,10,,,69,127
9063,note_on,0,0,0,,0,,,72,127
9063,note_on,0,0,0,,2,,,74,127
9063,note_on,0,0,0,,6,,,78,127
9180,note_off,117,0,0,,0,,,60,127
9181,note_on,1,0,0,,10,,,57,127
9298,note_off,117,0,0,,10,,,57,127
9299,note_on,1,0,0,,11,,,58,127
9653,note_off,354,0,0,,11,,,58,127
9653,note_off,0,0,0,,6,,,78,127
9653,note_off,0,0,0,,2,,,74,127
9653,note_off,0,0,0,,0,,,72,127
9653,note_off,0,0,0,,10,,,69,127
9654,note_on,1,0,0,,7,,,55,127
9654,note_on,0,0,0,,11,,,70,127
9654,note_on,0,0,0,,7,,,67,127
9654,note_on,0,0,0,,2,,,74,127
9654,note_on,0,0,0,,7,,,79,127
10008,note_off,354,0,0,,7,,,79,127
10008,note_off,0,0,0,,2,,,74,127
10008,note_off,0,0,0,,7,,,67,127
10008,note_off,0,0,0,,11,,,70,127
10008,note_off,0,0,0,,7,,,55,127
10009,note_on,1,0,0,,2,,,62,127
10126,note_off,117,0,0,,2,,,62,127
10127,note_on,1,0,0,,10,,,57,127
10244,note_off,117,0,0,,10,,,57,127
10245,note_on,1,0,0,,6,,,54,127
10362,note_off,117,0,0,,6,,,54,127
10363,note_on,1,0,0,,2,,,50,127
10480,note_off,117,0,0,,2,,,50,127
10481,note_on,1,0,0,,0,,,60,127
10481,note_on,0,0,0,,10,,,69,127
10481,note_on,0,0,0,,0,,,72,127
10481,note_on,0,0,0,,6,,,78,127
10481,note_on,0,0,0,,10,,,81,127
10598,note_off,117,0,0,,0,,,60,127
10599,note_on,1,0,0,,6,,,54,127
10716,note_off,117,0,0,,6,,,54,127
10717,note_on,1,0,0,,11,,,58,127
11071,note_off,354,0,0,,11,,,58,127
11071,note_off,0,0,0,,10,,,81,127
11071,note_off,0,0,0,,6,,,78,127
11071,note_off,0,0,0,,0,,,72,127
11071,note_off,0,0,0,,10,,,69,127
11072,note_on,1,0,0,,7,,,55,127
11072,note_on,0,0,0,,11,,,82,127
11072,note_on,0,0,0,,11,,,70,127
11072,note_on,0,0,0,,2,,,74,127
11426,note_off,354,0,0,,2,,,74,127
11426,note_off,0,0,0,,11,,,70,127
11426,note_off,0,0,0,,11,,,82,127
11426,note_off,0,0,0,,7,,,55,127
11427,note_on,1,0,0,,10,,,57,127
11544,note_off,117,0,0,,10,,,57,127
11545,note_on,1,0,0,,4,,,52,127
11662,note_off,117,0,0,,4,,,52,127
11663,note_on,1,0,0,,1,,,49,127
11780,note_off,117,0,0,,1,,,49,127
11781,note_on,1,0,0,,10,,,45,127
11898,note_off,117,0,0,,10,,,45,127
11899,note_on,1,0,0,,7,,,55,127
11899,note_on,0,0,0,,4,,,64,127
11899,note_on,0,0,0,,7,,,67,127
11899,note_on,0,0,0,,10,,,69,127
11899,note_on,0,0,0,,1,,,73,127
12016,note_off,117,0,0,,7,,,55,127
12017,note_on,1,0,0,,4,,,52,127
12134,note_off,117,0,0,,4,,,52,127
12135,note_on,1,0,0,,5,,,53,127
12489,note_off,354,0,0,,5,,,53,127
12489,note_off,0,0,0,,1,,,73,127
12489,note_off,0,0,0,,10,,,69,127
12489,note_off,0,0,0,,7,,,67,127
12489,note_off,0,0,0,,4,,,64,127
12490,note_on,1,0,0,,2,,,50,127
12490,note_on,0,0,0,,5,,,65,127
12490,note_on,0,0,0,,2,,,74,127
12490,note_on,0,0,0,,10,,,69,127
12844,note_off,354,0,0,,10,,,69,127
12844,note_off,0,0,0,,2,,,74,127
12844,note_off,0,0,0,,5,,,65,127
12844,note_off,0,0,0,,2,,,50,127
12845,note_on,1,0,0,,10,,,57,127
12962,note_off,117,0,0,,10,,,57,127
12963,note_on,1,0,0,,4,,,52,127
13080,note_off,117,0,0,,4,,,52,127
13081,note_on,1,0,0,,1,,,49,127
13198,note_off,117,0,0,,1,,,49,127
13199,note_on,1,0,0,,10,,,45,127
13316,note_off,117,0,0,,10,,,45,127
13317,note_on,1,0,0,,7,,,55,127
13317,note_on,0,0,0,,4,,,64,127
13317,note_on,0,0,0,,7,,,67,127
13317,note_on,0,0,0,,10,,,69,127
13317,note_on,0,0,0,,1,,,73,127
13317,note_on,0,0,0,,4,,,76,127
13434,note_off,117,0,0,,7,,,55,127
13435,note_on,1,0,0,,4,,,52,127
13552,note_off,117,0,0,,4,,,52,127
13553,note_on,1,0,0,,5,,,53,127
13907,note_off,354,0,0,,5,,,53,127
13907,note_off,0,0,0,,4,,,76,127
13907,note_off,0,0,0,,1,,,73,127
13907,note_off,0,0,0,,10,,,69,127
13907,note_off,0,0,0,,7,,,67,127
13907,note_off,0,0,0,,4,,,64,127
13908,note_on,1,0,0,,2,,,50,127
13908,note_on,0,0,0,,5,,,77,127
14025,note_off,117,0,0,,5,,,77,127
14026,note_on,1,0,0,,7,,,79,127
14143,note_off,117,0,0,,7,,,79,127
14144,note_on,1,0,0,,10,,,81,127
14261,note_off,117,0,0,,10,,,81,127
14261,note_off,0,0,0,,2,,,50,127
14262,note_on,1,0,0,,7,,,55,127
14262,note_on,0,0,0,,11,,,82,127
14379,note_off,117,0,0,,11,,,82,127
14380,note_on,1,0,0,,10,,,81,127
14497,note_off,117,0,0,,10,,,81,127
14498,note_on,1,0,0,,7,,,79,127
14615,note_off,117,0,0,,7,,,79,127
14616,note_on,1,0,0,,7,,,43,127
14616,note_on,0,0,0,,5,,,77,127
14733,note_off,117,0,0,,5,,,77,127
14734,note_on,1,0,0,,4,,,76,127
14851,note_off,117,0,0,,4,,,76,127
14852,note_on,1,0,0,,2,,,74,127
14969,note_off,117,0,0,,7,,,43,127
14969,note_off,0,0,0,,7,,,55,127
14970,note_on,1,0,0,,10,,,57,127
15324,note_on,354,0,0,,10,,,45,127
15382,note_off,58,0,0,,2,,,74,127
15383,note_on,1,0,0,,1,,,73,127
15441,note_off,58,0,0,,1,,,73,127
15442,note_on,1,0,0,,2,,,74,127
15500,note_off,58,0,0,,2,,,74,127
15501,note_on,1,0,0,,1,,,73,127
15559,note_off,58,0,0,,1,,,73,127
15560,note_on,1,0,0,,2,,,74,127
15618,note_off,58,0,0,,2,,,74,127
15619,note_on,1,0,0,,1,,,73,127
15677,note_off,58,0,0,,1,,,73,127
15677,note_off,0,0,0,,10,,,45,127
15677,note_off,0,0,0,,10,,,57,127
15678,note_on,1,0,0,,10,,,57,127
15678,note_on,0,0,0,,7,,,79,127
15795,note_off,117,0,0,,7,,,79,127
15796,note_on,1,0,0,,4,,,76,127
15913,note_off,117,0,0,,4,,,76,127
15914,note_on,1,0,0,,1,,,73,127
16031,note_off,117,0,0,,1,,,73,127
16032,note_on,1,0,0,,10,,,45,127
16032,note_on,0,0,0,,7,,,67,127
16149,note_off,117,0,0,,7,,,67,127
16150,note_on,1,0,0,,4,,,64,127
16267,note_off,117,0,0,,4,,,64,127
16268,note_on,1,0,0,,1,,,61,127
16385,note_off,117,0,0,,10,,,45,127
16386,note_on,1,0,0,,11,,,46,127
16740,note_off,354,0,0,,1,,,61,127
16740,note_off,0,0,0,,10,,,57,127
16741,note_on,1,0,0,,7,,,55,127
16741,note_on,0,0,0,,4,,,64,127
16799,note_off,58,0,0,,4,,,64,127
16800,note_on,1,0,0,,2,,,62,127
16858,note_off,58,0,0,,2,,,62,127
16859,note_on,1,0,0,,4,,,64,127
16917,note_off,58,0,0,,4,,,64,127
16918,note_on,1,0,0,,2,,,62,127
16976,note_off,58,0,0,,2,,,62,127
16977,note_on,1,0,0,,4,,,64,127
17035,note_off,58,0,0,,4,,,64,127
17036,note_on,1,0,0,,2,,,62,127
17094,note_off,58,0,0,,2,,,62,127
17094,note_off,0,0,0,,7,,,55,127
17094,note_off,0,0,0,,11,,,46,127
17095,note_on,1,0,0,,10,,,57,127
17095,note_on,0,0,0,,7,,,79,127
17212,note_off,117,0,0,,7,,,79,127
17213,note_on,1,0,0,,4,,,76,127
17330,note_off,117,0,0,,4,,,76,127
17331,note_on,1,0,0,,11,,,70,127
17448,note_off,117,0,0,,11,,,70,127
17449,note_on,1,0,0,,10,,,45,127
17449,note_on,0,0,0,,7,,,67,127
17566,note_off,117,0,0,,7,,,67,127
17567,note_on,1,0,0,,4,,,64,127
17684,note_off,117,0,0,,4,,,64,127
17685,note_on,1,0,0,,1,,,61,127
17802,note_off,117,0,0,,10,,,45,127
17803,note_on,1,0,0,,11,,,46,127
18157,note_off,354,0,0,,1,,,61,127
18157,note_off,0,0,0,,10,,,57,127
18158,note_on,1,0,0,,7,,,55,127
18158,note_on,0,0,0,,4,,,64,127
18216,note_off,58,0,0,,4,,,64,127
18217,note_on,1,0,0,,2,,,62,127
18275,note_off,58,0,0,,2,,,62,127
18276,note_on,1,0,0,,4,,,64,127
18334,note_off,58,0,0,,4,,,64,127
18335,note_on,1,0,0,,2,,,62,127
18393,note_off,58,0,0,,2,,,62,127
18394,note_on,1,0,0,,4,,,64,127
18452,note_off,58,0,0,,4,,,64,127
18453,note_on,1,0,0,,2,,,62,127
18511,note_off,58,0,0,,2,,,62,127
18511,note_off,0,0,0,,7,,,55,127
18511,note_off,0,0,0,,11,,,46,127
18512,note_on,1,0,0,,7,,,43,127
18512,note_on,0,0,0,,11,,,82,127
18629,note_off,117,0,0,,11,,,82,127
18630,note_on,1,0,0,,7,,,79,127
18747,note_off,117,0,0,,7,,,79,127
18748,note_on,1,0,0,,4,,,76,127
18865,note_off,117,0,0,,4,,,76,127
18865,note_off,0,0,0,,7,,,43,127
18866,note_on,1,0,0,,1,,,61,127
18866,note_on,0,0,0,,7,,,55,127
18866,note_on,0,0,0,,4,,,64,127
18866,note_on,0,0,0,,1,,,73,127
18983,note_off,117,0,0,,1,,,73,127
18984,note_on,1,0,0,,11,,,70,127
19101,note_off,117,0,0,,11,,,70,127
19102,note_on,1,0,0,,7,,,67,127
19219,note_off,117,0,0,,7,,,67,127
19219,note_off,0,0,0,,4,,,64,127
19219,note_off,0,0,0,,7,,,55,127
19219,note_off,0,0,0,,1,,,61,127
19220,note_on,1,0,0,,2,,,62,127
19220,note_on,0,0,0,,5,,,53,127
19220,note_on,0,0,0,,10,,,69,127
19337,note_off,117,0,0,,10,,,69,127
19338,note_on,1,0,0,,5,,,77,127
19455,note_off,117,0,0,,5,,,77,127
19456,note_on,1,0,0,,4,,,76,127
19573,note_off,117,0,0,,4,,,76,127
19573,note_off,0,0,0,,5,,,53,127
19573,note_off,0,0,0,,2,,,62,127
19574,note_on,1,0,0,,7,,,55,127
19574,note_on,0,0,0,,4,,,64,127
19574,note_on,0,0,0,,7,,,79,127
19691,note_off,117,0,0,,7,,,79,127
19692,note_on,1,0,0,,5,,,77,127
19809,note_off,117,0,0,,5,,,77,127
19810,note_on,1,0,0,,10,,,81,127
19927,note_off,117,0,0,,10,,,81,127
19927,note_off,0,0,0,,4,,,64,127
19927,note_off,0,0,0,,7,,,55,127
19928,note_on,1,0,0,,10,,,57,127
19928,note_on,0,0,0,,5,,,77,127
19928,note_on,0,0,0,,7,,,79,127
20045,note_off,117,0,0,,7,,,79,127
20045,note_off,0,0,0,,5,,,77,127
20046,note_on,1,0,0,,4,,,76,127
20163,note_off,117,0,0,,4,,,76,127
20164,note_on,1,0,0,,5,,,77,127
20281,note_off,117,0,0,,5,,,77,127
20281,note_off,0,0,0,,10,,,57,127
20282,note_on,1,0,0,,10,,,57,127
20282,note_on,0,0,0,,7,,,79,127
20399,note_off,117,0,0,,7,,,79,127
20400,note_on,1,0,0,,5,,,77,127
20517,note_off,117,0,0,,5,,,77,127
20518,note_on,1,0,0,,4,,,76,127
20635,note_off,117,0,0,,10,,,57,127
20636,note_on,1,0,0,,2,,,50,127
20694,note_off,58,0,0,,4,,,76,127
20695,note_on,1,0,0,,2,,,74,127
20753,note_off,58,0,0,,2,,,74,127
20754,note_on,1,0,0,,4,,,76,127
20812,note_off,58,0,0,,4,,,76,127
20813,note_on,1,0,0,,2,,,74,127
20871,note_off,58,0,0,,2,,,74,127
20872,note_on,1,0,0,,4,,,76,127
20930,note_off,58,0,0,,4,,,76,127
20931,note_on,1,0,0,,2,,,74,127
21285,note_off,354,0,0,,2,,,74,127
21344,note_off,59,0,0,,2,,,50,127
21345,note_on,1,0,0,,2,,,62,127
21462,note_off,117,0,0,,2,,,62,127
21463,note_on,1,0,0,,10,,,57,127
21580,note_off,117,0,0,,10,,,57,127
21581,note_on,1,0,0,,5,,,53,127
21698,note_off,117,0,0,,5,,,53,127
21699,note_on,1,0,0,,2,,,50,127
21816,note_off,117,0,0,,2,,,50,127
21817,note_on,1,0,0,,11,,,58,127
21817,note_on,0,0,0,,5,,,65,127
21817,note_on,0,0,0,,2,,,74,127
21817,note_on,0,0,0,,5,,,77,127
21934,note_off,117,0,0,,11,,,58,127
21935,note_on,1,0,0,,8,,,56,127
22052,note_off,117,0,0,,8,,,56,127
22053,note_on,1,0,0,,10,,,57,127
22407,note_off,354,0,0,,5,,,77,127
22407,note_off,0,0,0,,2,,,74,127
22407,note_off,0,0,0,,5,,,65,127
22408,note_on,1,0,0,,10,,,45,127
22408,note_on,0,0,0,,1,,,73,127
22408,note_on,0,0,0,,4,,,76,127
22408,note_on,0,0,0,,7,,,67,127
22762,note_off,354,0,0,,7,,,67,127
22762,note_off,0,0,0,,4,,,76,127
22762,note_off,0,0,0,,1,,,73,127
22762,note_off,0,0,0,,10,,,45,127
22762,note_off,0,0,0,,10,,,57,127
22763,note_on,1,0,0,,2,,,62,127
22880,note_off,117,0,0,,2,,,62,127
22881,note_on,1,0,0,,10,,,57,127
22998,note_off,117,0,0,,10,,,57,127
22999,note_on,1,0,0,,5,,,53,127
23116,note_off,117,0,0,,5,,,53,127
23117,note_on,1,0,0,,2,,,50,127
23234,note_off,117,0,0,,2,,,50,127
23235,note_on,1,0,0,,11,,,58,127
23235,note_on,0,0,0,,2,,,62,127
23235,note_on,0,0,0,,5,,,65,127
23235,note_on,0,0,0,,2,,,74,127
23352,note_off,117,0,0,,11,,,58,127
23353,note_on,1,0,0,,8,,,56,127
23470,note_off,117,0,0,,8,,,56,127
23471,note_on,1,0,0,,10,,,57,127
23825,note_off,354,0,0,,2,,,74,127
23825,note_off,0,0,0,,5,,,65,127
23825,note_off,0,0,0,,2,,,62,127
23826,note_on,1,0,0,,10,,,45,127
23826,note_on,0,0,0,,1,,,73,127
23826,note_on,0,0,0,,4,,,64,127
23826,note_on,0,0,0,,7,,,67,127
24180,note_off,354,0,0,,7,,,67,127
24180,note_off,0,0,0,,4,,,64,127
24180,note_off,0,0,0,,1,,,73,127
24180,note_off,0,0,0,,10,,,45,127
24180,note_off,0,0,0,,10,,,57,127
24181,note_on,1,0,0,,2,,,62,127
24298,note_off,117,0,0,,2,,,62,127
24299,note_on,1,0,0,,10,,,57,127
24416,note_off,117,0,0,,10,,,57,127
24417,note_on,1,0,0,,5,,,53,127
24534,note_off,117,0,0,,5,,,53,127
24535,note_on,1,0,0,,2,,,50,127
24652,note_off,117,0,0,,2,,,50,127
24653,note_on,1,0,0,,11,,,58,127
24653,note_on,0,0,0,,10,,,69,127
24653,note_on,0,0,0,,5,,,77,127
24653,note_on,0,0,0,,10,,,81,127
24770,note_off,117,0,0,,11,,,58,127
24771,note_on,1,0,0,,8,,,56,127
24888,note_off,117,0,0,,8,,,56,127
24889,note_on,1,0,0,,10,,,57,127
25243,note_off,354,0,0,,10,,,81,127
25243,note_off,0,0,0,,5,,,77,127
25243,note_off,0,0,0,,10,,,69,127
25244,note_on,1,0,0,,10,,,45,127
25244,note_on,0,0,0,,1,,,73,127
25244,note_on,0,0,0,,10,,,69,127
25244,note_on,0,0,0,,4,,,76,127
25244,note_on,0,0,0,,7,,,79,127
25598,note_off,354,0,0,,7,,,79,127
25598,note_off,0,0,0,,4,,,76,127
25598,note_off,0,0,0,,10,,,69,127
25598,note_off,0,0,0,,1,,,73,127
25598,note_off,0,0,0,,10,,,45,127
25598,note_off,0,0,0,,10,,,57,127
25599,note_on,1,0,0,,2,,,62,127
25716,note_off,117,0,0,,2,,,62,127
25717,note_on,1,0,0,,10,,,57,127
25834,note_off,117,0,0,,10,,,57,127
25835,note_on,1,0,0,,5,,,53,127
25952,note_off,117,0,0,,5,,,53,127
25953,note_on,1,0,0,,2,,,50,127
26070,note_off,117,0,0,,2,,,50,127
26071,note_on,1,0,0,,11,,,58,127
26071,note_on,0,0,0,,5,,,65,127
26071,note_on,0,0,0,,2,,,74,127
26071,note_on,0,0,0,,5,,,77,127
26188,note_off,117,0,0,,11,,,58,127
26189,note_on,1,0,0,,8,,,56,127
26306,note_off,117,0,0,,8,,,56,127
26307,note_on,1,0,0,,10,,,57,127
26661,note_off,354,0,0,,5,,,77,127
26661,note_off,0,0,0,,2,,,74,127
26661,note_off,0,0,0,,5,,,65,127
26662,note_on,1,0,0,,10,,,45,127
26662,note_on,0,0,0,,1,,,73,127
26662,note_on,0,0,0,,10,,,69,127
26662,note_on,0,0,0,,4,,,76,127
26662,note_on,0,0,0,,7,,,67,127
27016,note_off,354,0,0,,7,,,67,127
27016,note_off,0,0,0,,4,,,76,127
27016,note_off,0,0,0,,10,,,69,127
27016,note_off,0,0,0,,1,,,73,127
27016,note_off,0,0,0,,10,,,45,127
27016,note_off,0,0,0,,10,,,57,127
27017,note_on,1,0,0,,10,,,57,127
27017,note_on,0,0,0,,7,,,79,127
27134,note_off,117,0,0,,7,,,79,127
27135,note_on,1,0,0,,4,,,76,127
27252,note_off,117,0,0,,4,,,76,127
27253,note_on,1,0,0,,1,,,73,127
27370,note_off,117,0,0,,1,,,73,127
27371,note_on,1,0,0,,10,,,45,127
27371,note_on,0,0,0,,7,,,67,127
27488,note_off,117,0,0,,7,,,67,127
27489,note_on,1,0,0,,4,,,64,127
27606,note_off,117,0,0,,4,,,64,127
27607,note_on,1,0,0,,1,,,61,127
27724,note_off,117,0,0,,10,,,45,127
27725,note_on,1,0,0,,11,,,46,127
28079,note_off,354,0,0,,1,,,61,127
28079,note_off,0,0,0,,10,,,57,127
28080,note_on,1,0,0,,7,,,55,127
28080,note_on,0,0,0,,4,,,64,127
28138,note_off,58,0,0,,4,,,64,127
28139,note_on,1,0,0,,2,,,62,127
28197,note_off,58,0,0,,2,,,62,127
28198,note_on,1,0,0,,4,,,64,127
28256,note_off,58,0,0,,4,,,64,127
28257,note_on,1,0,0,,2,,,62,127
28315,note_off,58,0,0,,2,,,62,127
28316,note_on,1,0,0,,4,,,64,127
28374,note_off,58,0,0,,4,,,64,127
28375,note_on,1,0,0,,2,,,62,127
28433,note_off,58,0,0,,2,,,62,127
28433,note_off,0,0,0,,7,,,55,127
28433,note_off,0,0,0,,11,,,46,127
28434,note_on,1,0,0,,10,,,57,127
28434,note_on,0,0,0,,7,,,79,127
28551,note_off,117,0,0,,7,,,79,127
28552,note_on,1,0,0,,4,,,76,127
28669,note_off,117,0,0,,4,,,76,127
28670,note_on,1,0,0,,1,,,73,127
28787,note_off,117,0,0,,1,,,73,127
28788,note_on,1,0,0,,10,,,45,127
28788,note_on,0,0,0,,7,,,67,127
28905,note_off,117,0,0,,7,,,67,127
28906,note_on,1,0,0,,4,,,64,127
29023,note_off,117,0,0,,4,,,64,127
29024,note_on,1,0,0,,1,,,61,127
29141,note_off,117,0,0,,10,,,45,127
29142,note_on,1,0,0,,11,,,46,127
29496,note_off,354,0,0,,1,,,61,127
29496,note_off,0,0,0,,10,,,57,127
29497,note_on,1,0,0,,7,,,55,127
29497,note_on,0,0,0,,4,,,64,127
29555,note_off,58,0,0,,4,,,64,127
29556,note_on,1,0,0,,2,,,62,127
29614,note_off,58,0,0,,2,,,62,127
29615,note_on,1,0,0,,4,,,64,127
29673,note_off,58,0,0,,4,,,64,127
29674,note_on,1,0,0,,2,,,62,127
29732,note_off,58,0,0,,2,,,62,127
29733,note_on,1,0,0,,4,,,64,127
29791,note_off,58,0,0,,4,,,64,127
29792,note_on,1,0,0,,2,,,62,127
29850,note_off,58,0,0,,2,,,62,127
29850,note_off,0,0,0,,7,,,55,127
29850,note_off,0,0,0,,11,,,46,127
29851,note_on,1,0,0,,7,,,43,127
29851,note_on,0,0,0,,11,,,82,127
29968,note_off,117,0,0,,11,,,82,127
29969,note_on,1,0,0,,7,,,79,127
30086,note_off,117,0,0,,7,,,79,127
30087,note_on,1,0,0,,4,,,76,127
30204,note_off,117,0,0,,4,,,76,127
30204,note_off,0,0,0,,7,,,43,127
30205,note_on,1,0,0,,7,,,55,127
30205,note_on,0,0,0,,1,,,61,127
30205,note_on,0,0,0,,4,,,64,127
30205,note_on,0,0,0,,1,,,73,127
30322,note_off,117,0,0,,1,,,73,127
30323,note_on,1,0,0,,11,,,70,127
30440,note_off,117,0,0,,11,,,70,127
30441,note_on,1,0,0,,7,,,67,127
30558,note_off,117,0,0,,7,,,67,127
30558,note_off,0,0,0,,4,,,64,127
30558,note_off,0,0,0,,1,,,61,127
30558,note_off,0,0,0,,7,,,55,127
30559,note_on,1,0,0,,2,,,62,127
30559,note_on,0,0,0,,5,,,53,127
30559,note_on,0,0,0,,10,,,69,127
30676,note_off,117,0,0,,10,,,69,127
30677,note_on,1,0,0,,5,,,77,127
30794,note_off,117,0,0,,5,,,77,127
30795,note_on,1,0,0,,4,,,76,127
30912,note_off,117,0,0,,4,,,76,127
30912,note_off,0,0,0,,5,,,53,127
30912,note_off,0,0,0,,2,,,62,127
30913,note_on,1,0,0,,4,,,64,127
30913,note_on,0,0,0,,7,,,55,127
30913,note_on,0,0,0,,7,,,79,127
31030,note_off,117,0,0,,7,,,79,127
31031,note_on,1,0,0,,5,,,77,127
31148,note_off,117,0,0,,5,,,77,127
31149,note_on,1,0,0,,10,,,81,127
31266,note_off,117,0,0,,10,,,81,127
31266,note_off,0,0,0,,7,,,55,127
31266,note_off,0,0,0,,4,,,64,127
31267,note_on,1,0,0,,10,,,57,127
31267,note_on,0,0,0,,5,,,65,127
31267,note_on,0,0,0,,2,,,62,127
31267,note_on,0,0,0,,5,,,77,127
31267,note_on,0,0,0,,7,,,79,127
31384,note_off,117,0,0,,7,,,79,127
31384,note_off,0,0,0,,5,,,77,127
31385,note_on,1,0,0,,4,,,76,127
31502,note_off,117,0,0,,4,,,76,127
31503,note_on,1,0,0,,5,,,77,127
31620,note_off,117,0,0,,5,,,77,127
31620,note_off,0,0,0,,2,,,62,127
31620,note_off,0,0,0,,5,,,65,127
31620,note_off,0,0,0,,10,,,57,127
31621,note_on,1,0,0,,10,,,57,127
31621,note_on,0,0,0,,4,,,64,127
31621,note_on,0,0,0,,1,,,61,127
31621,note_on,0,0,0,,7,,,79,127
31738,note_off,117,0,0,,7,,,79,127
31739,note_on,1,0,0,,5,,,77,127
31856,note_off,117,0,0,,5,,,77,127
31857,note_on,1,0,0,,4,,,76,127
31974,note_off,117,0,0,,4,,,76,127
31974,note_off,0,0,0,,1,,,61,127
31974,note_off,0,0,0,,4,,,64,127
31974,note_off,0,0,0,,10,,,57,127
31975,note_on,1,0,0,,2,,,62,127
31975,note_on,0,0,0,,2,,,50,127
31975,note_on,0,0,0,,2,,,74,127
32092,note_off,117,0,0,,2,,,74,127
32093,note_on,1,0,0,,5,,,65,127
32210,note_off,117,0,0,,5,,,65,127
32211,note_on,1,0,0,,4,,,64,127
32328,note_off,117,0,0,,4,,,64,127
32328,note_off,0,0,0,,2,,,50,127
32328,note_off,0,0,0,,2,,,62,127
32329,note_on,1,0,0,,7,,,55,127
32329,note_on,0,0,0,,7,,,67,127
32446,note_off,117,0,0,,7,,,67,127
32447,note_on,1,0,0,,5,,,65,127
32564,note_off,117,0,0,,5,,,65,127
32565,note_on,1,0,0,,10,,,69,127
32682,note_off,117,0,0,,10,,,69,127
32682,note_off,0,0,0,,7,,,55,127
32683,note_on,1,0,0,,10,,,57,127
32683,note_on,0,0,0,,7,,,67,127
32683,note_on,0,0,0,,5,,,65,127
32800,note_off,117,0,0,,5,,,65,127
32800,note_off,0,0,0,,7,,,67,127
32801,note_on,1,0,0,,4,,,64,127
32918,note_off,117,0,0,,4,,,64,127
32919,note_on,1,0,0,,5,,,65,127
33036,note_off,117,0,0,,5,,,65,127
33036,note_off,0,0,0,,10,,,57,127
33037,note_on,1,0,0,,10,,,45,127
33037,note_on,0,0,0,,7,,,67,127
33154,note_off,117,0,0,,7,,,67,127
33155,note_on,1,0,0,,5,,,65,127
33272,note_off,117,0,0,,5,,,65,127
33273,note_on,1,0,0,,4,,,64,127
33390,note_off,117,0,0,,10,,,45,127
33391,note_on,1,0,0,,2,,,38,127
33449,note_off,58,0,0,,4,,,64,127
33450,note_on,1,0,0,,2,,,62,127
33508,note_off,58,0,0,,2,,,62,127
33509,note_on,1,0,0,,4,,,64,127
33567,note_off,58,0,0,,4,,,64,127
33568,note_on,1,0,0,,2,,,62,127
33626,note_off,58,0,0,,2,,,62,127
33627,note_on,1,0,0,,4,,,64,127
33685,note_off,58,0,0,,4,,,64,127
33686,note_on,1,0,0,,2,,,62,127
34099,note_off,413,0,0,,2,,,62,127
34099,note_off,0,0,0,,2,,,38,127
34100,note_on,1,0,0,,2,,,50,127
34100,note_on,0,0,0,,10,,,81,127
34217,note_off,117,0,0,,10,,,81,127
34218,note_on,1,0,0,,6,,,78,127
34335,note_off,117,0,0,,6,,,78,127
34336,note_on,1,0,0,,0,,,72,127
34453,note_off,117,0,0,,0,,,72,127
34453,note_off,0,0,0,,2,,,50,127
34454,note_on,1,0,0,,6,,,54,127
34454,note_on,0,0,0,,10,,,69,127
34571,note_off,117,0,0,,10,,,69,127
34572,note_on,1,0,0,,6,,,66,127
34689,note_off,117,0,0,,6,,,66,127
34690,note_on,1,0,0,,0,,,60,127
34807,note_off,117,0,0,,6,,,54,127
34808,note_on,1,0,0,,7,,,55,127
35162,note_off,354,0,0,,7,,,55,127
35163,note_on,1,0,0,,7,,,43,127
35221,note_off,58,0,0,,0,,,60,127
35222,note_on,1,0,0,,11,,,58,127
35280,note_off,58,0,0,,11,,,58,127
35281,note_on,1,0,0,,0,,,60,127
35339,note_off,58,0,0,,0,,,60,127
35340,note_on,1,0,0,,11,,,58,127
35398,note_off,58,0,0,,11,,,58,127
35399,note_on,1,0,0,,0,,,60,127
35457,note_off,58,0,0,,0,,,60,127
35458,note_on,1,0,0,,11,,,58,127
35516,note_off,58,0,0,,11,,,58,127
35517,note_on,1,0,0,,11,,,82,127
35634,note_off,117,0,0,,11,,,82,127
35635,note_on,1,0,0,,7,,,79,127
35752,note_off,117,0,0,,7,,,79,127
35753,note_on,1,0,0,,2,,,74,127
35870,note_off,117,0,0,,2,,,74,127
35870,note_off,0,0,0,,7,,,43,127
35871,note_on,1,0,0,,7,,,55,127
35871,note_on,0,0,0,,11,,,70,127
35988,note_off,117,0,0,,11,,,70,127
35989,note_on,1,0,0,,7,,,67,127
36106,note_off,117,0,0,,7,,,67,127
36107,note_on,1,0,0,,2,,,62,127
36224,note_off,117,0,0,,7,,,55,127
36225,note_on,1,0,0,,10,,,45,127
36579,note_off,354,0,0,,10,,,45,127
36580,note_on,1,0,0,,10,,,57,127
36638,note_off,58,0,0,,2,,,62,127
36639,note_on,1,0,0,,0,,,60,127
36697,note_off,58,0,0,,0,,,60,127
36698,note_on,1,0,0,,2,,,62,127
36756,note_off,58,0,0,,2,,,62,127
36757,note_on,1,0,0,,0,,,60,127
36815,note_off,58,0,0,,0,,,60,127
36816,note_on,1,0,0,,2,,,62,127
36874,note_off,58,0,0,,2,,,62,127
36875,note_on,1,0,0,,0,,,60,127
36933,note_off,58,0,0,,0,,,60,127
36934,note_on,1,0,0,,0,,,84,127
37051,note_off,117,0,0,,0,,,84,127
37052,note_on,1,0,0,,10,,,81,127
37169,note_off,117,0,0,,10,,,81,127
37170,note_on,1,0,0,,3,,,75,127
37287,note_off,117,0,0,,3,,,75,127
37287,note_off,0,0,0,,10,,,57,127
37288,note_on,1,0,0,,10,,,57,127
37288,note_on,0,0,0,,0,,,72,127
37405,note_off,117,0,0,,0,,,72,127
37406,note_on,1,0,0,,10,,,69,127
37523,note_off,117,0,0,,10,,,69,127
37524,note_on,1,0,0,,3,,,63,127
37641,note_off,117,0,0,,10,,,57,127
37642,note_on,1,0,0,,11,,,46,127
37996,note_off,354,0,0,,11,,,46,127
37997,note_on,1,0,0,,11,,,58,127
38055,note_off,58,0,0,,3,,,63,127
38056,note_on,1,0,0,,2,,,62,127
38114,note_off,58,0,0,,2,,,62,127
38115,note_on,1,0,0,,3,,,63,127
38173,note_off,58,0,0,,3,,,63,127
38174,note_on,1,0,0,,2,,,62,127
38232,note_off,58,0,0,,2,,,62,127
38233,note_on,1,0,0,,3,,,63,127
38291,note_off,58,0,0,,3,,,63,127
38292,note_on,1,0,0,,2,,,62,127
38350,note_off,58,0,0,,2,,,62,127
38350,note_off,0,0,0,,11,,,58,127
38351,note_on,1,0,0,,11,,,46,127
38351,note_on,0,0,0,,11,,,82,127
38468,note_off,117,0,0,,11,,,82,127
38469,note_on,1,0,0,,5,,,77,127
38586,note_off,117,0,0,,5,,,77,127
38587,note_on,1,0,0,,2,,,74,127
38704,note_off,117,0,0,,2,,,74,127
38704,note_off,0,0,0,,11,,,46,127
38705,note_on,1,0,0,,2,,,50,127
38705,note_on,0,0,0,,11,,,70,127
38822,note_off,117,0,0,,11,,,70,127
38823,note_on,1,0,0,,5,,,65,127
38940,note_off,117,0,0,,5,,,65,127
38941,note_on,1,0,0,,2,,,62,127
39058,note_off,117,0,0,,2,,,50,127
39059,note_on,1,0,0,,5,,,53,127
39413,note_on,354,0,0,,5,,,41,127
39471,note_off,58,0,0,,2,,,62,127
39472,note_on,1,0,0,,0,,,60,127
39530,note_off,58,0,0,,0,,,60,127
39531,note_on,1,0,0,,2,,,62,127
39589,note_off,58,0,0,,2,,,62,127
39590,note_on,1,0,0,,0,,,60,127
39648,note_off,58,0,0,,0,,,60,127
39649,note_on,1,0,0,,2,,,62,127
39707,note_off,58,0,0,,2,,,62,127
39708,note_on,1,0,0,,0,,,60,127
39766,note_off,58,0,0,,0,,,60,127
39766,note_off,0,0,0,,5,,,41,127
39766,note_off,0,0,0,,5,,,53,127
39767,note_on,1,0,0,,11,,,46,127
39767,note_on,0,0,0,,11,,,82,127
39884,note_off,117,0,0,,11,,,82,127
39885,note_on,1,0,0,,5,,,77,127
40002,note_off,117,0,0,,5,,,77,127
40003,note_on,1,0,0,,2,,,74,127
40120,note_off,117,0,0,,2,,,74,127
40120,note_off,0,0,0,,11,,,46,127
40121,note_on,1,0,0,,2,,,50,127
40121,note_on,0,0,0,,11,,,70,127
40238,note_off,117,0,0,,11,,,70,127
40239,note_on,1,0,0,,5,,,65,127
40356,note_off,117,0,0,,5,,,65,127
40357,note_on,1,0,0,,2,,,62,127
40474,note_off,117,0,0,,2,,,50,127
40475,note_on,1,0,0,,5,,,53,127
40829,note_on,354,0,0,,5,,,41,127
40887,note_off,58,0,0,,2,,,62,127
40888,note_on,1,0,0,,0,,,60,127
40946,note_off,58,0,0,,0,,,60,127
40947,note_on,1,0,0,,2,,,62,127
41005,note_off,58,0,0,,2,,,62,127
41006,note_on,1,0,0,,0,,,60,127
41064,note_off,58,0,0,,0,,,60,127
41065,note_on,1,0,0,,2,,,62,127
41123,note_off,58,0,0,,2,,,62,127
41124,note_on,1,0,0,,0,,,60,127
41182,note_off,58,0,0,,0,,,60,127
41182,note_off,0,0,0,,5,,,41,127
41182,note_off,0,0,0,,5,,,53,127
41183,note_on,1,0,0,,5,,,65,127
41300,note_off,117,0,0,,5,,,65,127
41301,note_on,1,0,0,,0,,,60,127
41418,note_off,117,0,0,,0,,,60,127
41419,note_on,1,0,0,,10,,,57,127
41536,note_off,117,0,0,,10,,,57,127
41537,note_on,1,0,0,,5,,,53,127
41654,note_off,117,0,0,,5,,,53,127
41655,note_on,1,0,0,,3,,,63,127
41655,note_on,0,0,0,,10,,,69,127
41655,note_on,0,0,0,,0,,,72,127
41655,note_on,0,0,0,,3,,,75,127
41772,note_off,117,0,0,,3,,,63,127
41773,note_on,1,0,0,,0,,,60,127
41890,note_off,117,0,0,,0,,,60,127
41891,note_on,1,0,0,,2,,,62,127
42245,note_off,354,0,0,,2,,,62,127
42245,note_off,0,0,0,,3,,,75,127
42245,note_off,0,0,0,,0,,,72,127
42245,note_off,0,0,0,,10,,,69,127
42246,note_on,1,0,0,,11,,,58,127
42246,note_on,0,0,0,,5,,,77,127
42246,note_on,0,0,0,,2,,,74,127
42246,note_on,0,0,0,,11,,,70,127
42600,note_off,354,0,0,,11,,,70,127
42600,note_off,0,0,0,,2,,,74,127
42600,note_off,0,0,0,,5,,,77,127
42600,note_off,0,0,0,,11,,,58,127
42601,note_on,1,0,0,,5,,,65,127
42718,note_off,117,0,0,,5,,,65,127
42719,note_on,1,0,0,,0,,,60,127
42836,note_off,117,0,0,,0,,,60,127
42837,note_on,1,0,0,,10,,,57,127
42954,note_off,117,0,0,,10,,,57,127
42955,note_on,1,0,0,,5,,,53,127
43072,note_off,117,0,0,,5,,,53,127
43073,note_on,1,0,0,,3,,,63,127
43073,note_on,0,0,0,,3,,,75,127
43073,note_on,0,0,0,,5,,,77,127
43073,note_on,0,0,0,,0,,,72,127
43073,note_on,0,0,0,,10,,,81,127
43190,note_off,117,0,0,,3,,,63,127
43191,note_on,1,0,0,,0,,,60,127
43308,note_off,117,0,0,,0,,,60,127
43309,note_on,1,0,0,,2,,,62,127
43663,note_off,354,0,0,,2,,,62,127
43663,note_off,0,0,0,,10,,,81,127
43663,note_off,0,0,0,,0,,,72,127
43663,note_off,0,0,0,,5,,,77,127
43663,note_off,0,0,0,,3,,,75,127
43664,note_on,1,0,0,,11,,,58,127
43664,note_on,0,0,0,,2,,,74,127
43664,note_on,0,0,0,,11,,,82,127
43664,note_on,0,0,0,,5,,,77,127
44018,note_off,354,0,0,,5,,,77,127
44018,note_off,0,0,0,,11,,,82,127
44018,note_off,0,0,0,,2,,,74,127
44018,note_off,0,0,0,,11,,,58,127
44019,note_on,1,0,0,,7,,,67,127
44136,note_off,117,0,0,,7,,,67,127
44137,note_on,1,0,0,,2,,,62,127
44254,note_off,117,0,0,,2,,,62,127
44255,note_on,1,0,0,,12,,,59,127
44372,note_off,117,0,0,,12,,,59,127
44373,note_on,1,0,0,,7,,,55,127
44490,note_off,117,0,0,,7,,,55,127
44491,note_on,1,0,0,,5,,,65,127
44491,note_on,0,0,0,,12,,,71,127
44491,note_on,0,0,0,,2,,,74,127
44491,note_on,0,0,0,,5,,,77,127
44608,note_off,117,0,0,,5,,,65,127
44609,note_on,1,0,0,,2,,,62,127
44726,note_off,117,0,0,,2,,,62,127
44727,note_on,1,0,0,,3,,,63,127
45081,note_off,354,0,0,,3,,,63,127
45081,note_off,0,0,0,,5,,,77,127
45081,note_off,0,0,0,,2,,,74,127
45081,note_off,0,0,0,,12,,,71,127
45082,note_on,1,0,0,,0,,,60,127
45082,note_on,0,0,0,,3,,,75,127
45082,note_on,0,0,0,,0,,,72,127
45082,note_on,0,0,0,,7,,,79,127
45436,note_off,354,0,0,,7,,,79,127
45436,note_off,0,0,0,,0,,,72,127
45436,note_off,0,0,0,,3,,,75,127
45436,note_off,0,0,0,,0,,,60,127
45437,note_on,1,0,0,,7,,,67,127
45554,note_off,117,0,0,,7,,,67,127
45555,note_on,1,0,0,,2,,,62,127
45672,note_off,117,0,0,,2,,,62,127
45673,note_on,1,0,0,,12,,,59,127
45790,note_off,117,0,0,,12,,,59,127
45791,note_on,1,0,0,,7,,,55,127
45908,note_off,117,0,0,,7,,,55,127
45909,note_on,1,0,0,,5,,,65,127
45909,note_on,0,0,0,,2,,,74,127
45909,note_on,0,0,0,,5,,,77,127
45909,note_on,0,0,0,,7,,,79,127
45909,note_on,0,0,0,,12,,,83,127
46026,note_off,117,0,0,,5,,,65,127
46027,note_on,1,0,0,,2,,,62,127
46144,note_off,117,0,0,,2,,,62,127
46145,note_on,1,0,0,,3,,,63,127
46499,note_off,354,0,0,,3,,,63,127
46499,note_off,0,0,0,,12,,,83,127
46499,note_off,0,0,0,,7,,,79,127
46499,note_off,0,0,0,,5,,,77,127
46499,note_off,0,0,0,,2,,,74,127
46500,note_on,1,0,0,,0,,,60,127
46500,note_on,0,0,0,,0,,,84,127
46500,note_on,0,0,0,,7,,,79,127
46500,note_on,0,0,0,,3,,,75,127
46854,note_off,354,0,0,,3,,,75,127
46854,note_off,0,0,0,,7,,,79,127
46854,note_off,0,0,0,,0,,,84,127
46854,note_off,0,0,0,,0,,,60,127
46855,note_on,1,0,0,,10,,,69,127
46972,note_off,117,0,0,,10,,,69,127
46973,note_on,1,0,0,,4,,,64,127
47090,note_off,117,0,0,,4,,,64,127
47091,note_on,1,0,0,,1,,,61,127
47208,note_off,117,0,0,,1,,,61,127
47209,note_on,1,0,0,,10,,,57,127
47326,note_off,117,0,0,,10,,,57,127
47327,note_on,1,0,0,,10,,,69,127
47327,note_on,0,0,0,,1,,,73,127
47327,note_on,0,0,0,,4,,,76,127
47327,note_on,0,0,0,,7,,,79,127
47327,note_on,0,0,0,,10,,,81,127
47444,note_off,117,0,0,,10,,,69,127
47445,note_on,1,0,0,,4,,,64,127
47562,note_off,117,0,0,,4,,,64,127
47563,note_on,1,0,0,,5,,,65,127
47917,note_off,354,0,0,,5,,,65,127
47917,note_off,0,0,0,,10,,,81,127
47917,note_off,0,0,0,,7,,,79,127
47917,note_off,0,0,0,,4,,,76,127
47917,note_off,0,0,0,,1,,,73,127
47918,note_on,1,0,0,,2,,,62,127
47918,note_on,0,0,0,,2,,,74,127
47918,note_on,0,0,0,,5,,,77,127
47918,note_on,0,0,0,,10,,,81,127
48272,note_off,354,0,0,,10,,,81,127
48272,note_off,0,0,0,,5,,,77,127
48272,note_off,0,0,0,,2,,,74,127
48272,note_off,0,0,0,,2,,,62,127
48273,note_on,1,0,0,,10,,,69,127
48390,note_off,117,0,0,,10,,,69,127
48391,note_on,1,0,0,,4,,,64,127
48508,note_off,117,0,0,,4,,,64,127
48509,note_on,1,0,0,,1,,,61,127
48626,note_off,117,0,0,,1,,,61,127
48627,note_on,1,0,0,,10,,,57,127
48744,note_off,117,0,0,,10,,,57,127
48745,note_on,1,0,0,,7,,,67,127
48745,note_on,0,0,0,,4,,,76,127
48745,note_on,0,0,0,,7,,,79,127
48745,note_on,0,0,0,,10,,,81,127
48745,note_on,0,0,0,,1,,,85,127
48862,note_off,117,0,0,,7,,,67,127
48863,note_on,1,0,0,,4,,,64,127
48980,note_off,117,0,0,,4,,,64,127
48981,note_on,1,0,0,,6,,,66,127
49335,note_off,354,0,0,,6,,,66,127
49335,note_off,0,0,0,,1,,,85,127
49335,note_off,0,0,0,,10,,,81,127
49335,note_off,0,0,0,,7,,,79,127
49335,note_off,0,0,0,,4,,,76,127
49336,note_on,1,0,0,,2,,,62,127
49336,note_on,0,0,0,,2,,,86,127
49453,note_off,117,0,0,,2,,,86,127
49454,note_on,1,0,0,,10,,,81,127
49571,note_off,117,0,0,,10,,,81,127
49572,note_on,1,0,0,,0,,,84,127
49689,note_off,117,0,0,,0,,,84,127
49689,note_off,0,0,0,,2,,,62,127
49690,note_on,1,0,0,,7,,,67,127
49690,note_on,0,0,0,,11,,,82,127
49807,note_off,117,0,0,,11,,,82,127
49808,note_on,1,0,0,,10,,,81,127
49925,note_off,117,0,0,,10,,,81,127
49926,note_on,1,0,0,,0,,,84,127
50043,note_off,117,0,0,,0,,,84,127
50043,note_off,0,0,0,,7,,,67,127
50044,note_on,1,0,0,,0,,,60,127
50044,note_on,0,0,0,,11,,,82,127
50161,note_off,117,0,0,,11,,,82,127
50162,note_on,1,0,0,,10,,,81,127
50279,note_off,117,0,0,,10,,,81,127
50280,note_on,1,0,0,,7,,,79,127
50397,note_off,117,0,0,,7,,,79,127
50397,note_off,0,0,0,,0,,,60,127
50398,note_on,1,0,0,,2,,,62,127
50398,note_on,0,0,0,,6,,,78,127
50515,note_off,117,0,0,,6,,,78,127
50516,note_on,1,0,0,,3,,,75,127
50633,note_off,117,0,0,,3,,,75,127
50634,note_on,1,0,0,,2,,,74,127
50751,note_off,117,0,0,,2,,,74,127
50751,note_off,0,0,0,,2,,,62,127
50752,note_on,1,0,0,,6,,,54,127
50752,note_on,0,0,0,,0,,,72,127
50869,note_off,117,0,0,,0,,,72,127
50870,note_on,1,0,0,,11,,,70,127
50987,note_off,117,0,0,,11,,,70,127
50988,note_on,1,0,0,,10,,,69,127
51105,note_off,117,0,0,,10,,,69,127
51105,note_off,0,0,0,,6,,,54,127
51106,note_on,1,0,0,,7,,,55,127
51106,note_on,0,0,0,,11,,,70,127
51223,note_off,117,0,0,,11,,,70,127
51224,note_on,1,0,0,,10,,,69,127
51341,note_off,117,0,0,,10,,,69,127
51342,note_on,1,0,0,,0,,,72,127
51459,note_off,117,0,0,,0,,,72,127
51459,note_off,0,0,0,,7,,,55,127
51460,note_on,1,0,0,,0,,,48,127
51460,note_on,0,0,0,,11,,,70,127
51577,note_off,117,0,0,,11,,,70,127
51578,note_on,1,0,0,,10,,,69,127
51695,note_off,117,0,0,,10,,,69,127
51696,note_on,1,0,0,,7,,,67,127
51813,note_off,117,0,0,,0,,,48,127
51814,note_on,1,0,0,,2,,,50,127
52168,note_on,354,0,0,,2,,,38,127
52226,note_off,58,0,0,,7,,,67,127
52227,note_on,1,0,0,,6,,,66,127
52285,note_off,58,0,0,,6,,,66,127
52286,note_on,1,0,0,,7,,,67,127
52344,note_off,58,0,0,,7,,,67,127
52345,note_on,1,0,0,,6,,,66,127
52403,note_off,58,0,0,,6,,,66,127
52404,note_on,1,0,0,,7,,,67,127
52462,note_off,58,0,0,,7,,,67,127
52463,note_on,1,0,0,,6,,,66,127
52521,note_off,58,0,0,,6,,,66,127
52521,note_off,0,0,0,,2,,,38,127
52521,note_off,0,0,0,,2,,,50,127
52522,note_on,1,0,0,,2,,,62,127
52522,note_on,0,0,0,,10,,,81,127
52639,note_off,117,0,0,,10,,,81,127
52640,note_on,1,0,0,,6,,,78,127
52757,note_off,117,0,0,,6,,,78,127
52758,note_on,1,0,0,,3,,,75,127
52875,note_off,117,0,0,,3,,,75,127
52876,note_on,1,0,0,,2,,,50,127
52876,note_on,0,0,0,,0,,,72,127
52993,note_off,117,0,0,,0,,,72,127
52994,note_on,1,0,0,,10,,,69,127
53111,note_off,117,0,0,,10,,,69,127
53112,note_on,1,0,0,,6,,,66,127
53229,note_off,117,0,0,,2,,,50,127
53230,note_on,1,0,0,,3,,,51,127
53584,note_off,354,0,0,,6,,,66,127
53584,note_off,0,0,0,,2,,,62,127
53585,note_on,1,0,0,,0,,,60,127
53585,note_on,0,0,0,,10,,,69,127
53643,note_off,58,0,0,,10,,,69,127
53644,note_on,1,0,0,,7,,,67,127
53702,note_off,58,0,0,,7,,,67,127
53703,note_on,1,0,0,,10,,,69,127
53761,note_off,58,0,0,,10,,,69,127
53762,note_on,1,0,0,,7,,,67,127
53820,note_off,58,0,0,,7,,,67,127
53821,note_on,1,0,0,,10,,,69,127
53879,note_off,58,0,0,,10,,,69,127
53880,note_on,1,0,0,,7,,,67,127
53938,note_off,58,0,0,,7,,,67,127
53938,note_off,0,0,0,,0,,,60,127
53938,note_off,0,0,0,,3,,,51,127
53939,note_on,1,0,0,,2,,,62,127
53939,note_on,0,0,0,,10,,,81,127
54056,note_off,117,0,0,,10,,,81,127
54057,note_on,1,0,0,,6,,,78,127
54174,note_off,117,0,0,,6,,,78,127
54175,note_on,1,0,0,,3,,,75,127
54292,note_off,117,0,0,,3,,,75,127
54293,note_on,1,0,0,,2,,,50,127
54293,note_on,0,0,0,,0,,,72,127
54410,note_off,117,0,0,,0,,,72,127
54411,note_on,1,0,0,,10,,,69,127
54528,note_off,117,0,0,,10,,,69,127
54529,note_on,1,0,0,,6,,,66,127
54646,note_off,117,0,0,,2,,,50,127
54647,note_on,1,0,0,,3,,,51,127
55001,note_off,354,0,0,,6,,,66,127
55001,note_off,0,0,0,,2,,,62,127
55002,note_on,1,0,0,,0,,,60,127
55002,note_on,0,0,0,,10,,,69,127
55060,note_off,58,0,0,,10,,,69,127
55061,note_on,1,0,0,,7,,,67,127
55119,note_off,58,0,0,,7,,,67,127
55120,note_on,1,0,0,,10,,,69,127
55178,note_off,58,0,0,,10,,,69,127
55179,note_on,1,0,0,,7,,,67,127
55237,note_off,58,0,0,,7,,,67,127
55238,note_on,1,0,0,,10,,,69,127
55296,note_off,58,0,0,,10,,,69,127
55297,note_on,1,0,0,,7,,,67,127
55355,note_off,58,0,0,,7,,,67,127
55355,note_off,0,0,0,,0,,,60,127
55355,note_off,0,0,0,,3,,,51,127
55356,note_on,1,0,0,,0,,,48,127
55356,note_on,0,0,0,,10,,,81,127
55473,note_off,117,0,0,,10,,,81,127
55474,note_on,1,0,0,,3,,,75,127
55591,note_off,117,0,0,,3,,,75,127
55592,note_on,1,0,0,,0,,,72,127
55709,note_off,117,0,0,,0,,,72,127
55710,note_on,1,0,0,,10,,,57,127
55710,note_on,0,0,0,,10,,,69,127
55827,note_off,117,0,0,,10,,,69,127
55828,note_on,1,0,0,,6,,,66,127
55945,note_off,117,0,0,,6,,,66,127
55946,note_on,1,0,0,,3,,,63,127
56063,note_off,117,0,0,,3,,,63,127
56063,note_off,0,0,0,,0,,,48,127
56064,note_on,1,0,0,,11,,,46,127
56064,note_on,0,0,0,,2,,,62,127
56181,note_off,117,0,0,,2,,,62,127
56182,note_on,1,0,0,,11,,,70,127
56299,note_off,117,0,0,,11,,,70,127
56300,note_on,1,0,0,,10,,,69,127
56417,note_off,117,0,0,,10,,,69,127
56417,note_off,0,0,0,,10,,,57,127
56418,note_on,1,0,0,,7,,,55,127
56418,note_on,0,0,0,,0,,,72,127
56535,note_off,117,0,0,,0,,,72,127
56536,note_on,1,0,0,,11,,,70,127
56653,note_off,117,0,0,,11,,,70,127
56654,note_on,1,0,0,,2,,,74,127
56771,note_off,117,0,0,,2,,,74,127
56771,note_off,0,0,0,,11,,,46,127
56772,note_on,1,0,0,,3,,,51,127
56772,note_on,0,0,0,,11,,,70,127
56772,note_on,0,0,0,,0,,,72,127
56889,note_off,117,0,0,,0,,,72,127
56889,note_off,0,0,0,,11,,,70,127
56890,note_on,1,0,0,,10,,,69,127
57007,note_off,117,0,0,,10,,,69,127
57008,note_on,1,0,0,,0,,,72,127
57125,note_off,117,0,0,,0,,,72,127
57125,note_off,0,0,0,,3,,,51,127
57125,note_off,0,0,0,,7,,,55,127
57126,note_on,1,0,0,,0,,,48,127
57126,note_on,0,0,0,,11,,,70,127
57243,note_off,117,0,0,,11,,,70,127
57244,note_on,1,0,0,,10,,,69,127
57361,note_off,117,0,0,,10,,,69,127
57362,note_on,1,0,0,,7,,,67,127
57479,note_off,117,0,0,,0,,,48,127
57480,note_on,1,0,0,,2,,,50,127
57834,note_on,354,0,0,,2,,,38,127
57892,note_off,58,0,0,,7,,,67,127
57893,note_on,1,0,0,,6,,,66,127
57951,note_off,58,0,0,,6,,,66,127
57952,note_on,1,0,0,,7,,,67,127
58010,note_off,58,0,0,,7,,,67,127
58011,note_on,1,0,0,,6,,,66,127
58069,note_off,58,0,0,,6,,,66,127
58070,note_on,1,0,0,,7,,,67,127
58128,note_off,58,0,0,,7,,,67,127
58129,note_on,1,0,0,,6,,,66,127
58187,note_off,58,0,0,,6,,,66,127
58187,note_off,0,0,0,,2,,,38,127
58187,note_off,0,0,0,,2,,,50,127
58188,note_on,1,0,0,,2,,,62,127
58305,note_off,117,0,0,,2,,,62,127
58306,note_on,1,0,0,,10,,,57,127
58423,note_off,117,0,0,,10,,,57,127
58424,note_on,1,0,0,,6,,,54,127
58541,note_off,117,0,0,,6,,,54,127
58542,note_on,1,0,0,,2,,,50,127
58659,note_off,117,0,0,,2,,,50,127
58660,note_on,1,0,0,,10,,,45,127
58660,note_on,0,0,0,,10,,,69,127
58660,note_on,0,0,0,,0,,,72,127
58660,note_on,0,0,0,,2,,,74,127
58660,note_on,0,0,0,,6,,,78,127
58777,note_off,117,0,0,,10,,,45,127
58778,note_on,1,0,0,,2,,,38,127
58895,note_off,117,0,0,,2,,,38,127
58896,note_on,1,0,0,,7,,,31,127
59250,note_off,354,0,0,,6,,,78,127
59250,note_off,0,0,0,,2,,,74,127
59250,note_off,0,0,0,,0,,,72,127
59250,note_off,0,0,0,,10,,,69,127
59251,note_on,1,0,0,,7,,,67,127
59251,note_on,0,0,0,,2,,,74,127
59251,note_on,0,0,0,,11,,,70,127
59251,note_on,0,0,0,,7,,,79,127
59605,note_off,354,0,0,,7,,,79,127
59605,note_off,0,0,0,,11,,,70,127
59605,note_off,0,0,0,,2,,,74,127
59605,note_off,0,0,0,,7,,,67,127
59605,note_off,0,0,0,,7,,,31,127
59606,note_on,1,0,0,,2,,,62,127
59723,note_off,117,0,0,,2,,,62,127
59724,note_on,1,0,0,,10,,,57,127
59841,note_off,117,0,0,,10,,,57,127
59842,note_on,1,0,0,,6,,,54,127
59959,note_off,117,0,0,,6,,,54,127
59960,note_on,1,0,0,,2,,,50,127
60077,note_off,117,0,0,,2,,,50,127
60078,note_on,1,0,0,,10,,,45,127
60078,note_on,0,0,0,,10,,,69,127
60078,note_on,0,0,0,,0,,,72,127
60078,note_on,0,0,0,,6,,,78,127
60078,note_on,0,0,0,,10,,,81,127
60195,note_off,117,0,0,,10,,,45,127
60196,note_on,1,0,0,,2,,,38,127
60313,note_off,117,0,0,,2,,,38,127
60314,note_on,1,0,0,,7,,,31,127
60668,note_off,354,0,0,,10,,,81,127
60668,note_off,0,0,0,,6,,,78,127
60668,note_off,0,0,0,,0,,,72,127
60668,note_off,0,0,0,,10,,,69,127
60669,note_on,1,0,0,,11,,,82,127
60669,note_on,0,0,0,,11,,,70,127
60669,note_on,0,0,0,,2,,,74,127
60669,note_on,0,0,0,,7,,,79,127
61023,note_off,354,0,0,,7,,,79,127
61023,note_off,0,0,0,,2,,,74,127
61023,note_off,0,0,0,,11,,,70,127
61023,note_off,0,0,0,,11,,,82,127
61023,note_off,0,0,0,,7,,,31,127
61024,note_on,1,0,0,,2,,,62,127
61141,note_off,117,0,0,,2,,,62,127
61142,note_on,1,0,0,,10,,,57,127
61259,note_off,117,0,0,,10,,,57,127
61260,note_on,1,0,0,,6,,,54,127
61377,note_off,117,0,0,,6,,,54,127
61378,note_on,1,0,0,,2,,,50,127
61495,note_off,117,0,0,,2,,,50,127
61496,note_on,1,0,0,,10,,,45,127
61496,note_on,0,0,0,,10,,,69,127
61496,note_on,0,0,0,,0,,,72,127
61496,note_on,0,0,0,,2,,,74,127
61496,note_on,0,0,0,,6,,,78,127
61613,note_off,117,0,0,,10,,,45,127
61614,note_on,1,0,0,,2,,,38,127
61731,note_off,117,0,0,,2,,,38,127
61731,note_off,0,0,0,,6,,,78,127
61731,note_off,0,0,0,,2,,,74,127
61731,note_off,0,0,0,,0,,,72,127
61731,note_off,0,0,0,,10,,,69,127
61732,note_on,1,0,0,,7,,,31,127
61732,note_on,0,0,0,,11,,,70,127
61732,note_on,0,0,0,,7,,,79,127
61849,note_off,117,0,0,,7,,,79,127
61849,note_off,0,0,0,,11,,,70,127
61850,note_on,1,0,0,,2,,,74,127
61967,note_off,117,0,0,,2,,,74,127
61968,note_on,1,0,0,,5,,,77,127
62085,note_off,117,0,0,,5,,,77,127
62085,note_off,0,0,0,,7,,,31,127
62086,note_on,1,0,0,,0,,,60,127
62086,note_on,0,0,0,,3,,,75,127
62203,note_off,117,0,0,,3,,,75,127
62204,note_on,1,0,0,,2,,,74,127
62321,note_off,117,0,0,,2,,,74,127
62322,note_on,1,0,0,,0,,,84,127
62439,note_off,117,0,0,,0,,,84,127
62439,note_off,0,0,0,,0,,,60,127
62440,note_on,1,0,0,,2,,,62,127
62440,note_on,0,0,0,,11,,,82,127
62557,note_off,117,0,0,,11,,,82,127
62558,note_on,1,0,0,,10,,,81,127
62675,note_off,117,0,0,,10,,,81,127
62676,note_on,1,0,0,,11,,,82,127
62793,note_off,117,0,0,,11,,,82,127
62793,note_off,0,0,0,,2,,,62,127
62794,note_on,1,0,0,,2,,,50,127
62794,note_on,0,0,0,,0,,,84,127
62911,note_off,117,0,0,,0,,,84,127
62912,note_on,1,0,0,,11,,,82,127
63029,note_off,117,0,0,,11,,,82,127
63030,note_on,1,0,0,,10,,,81,127
63147,note_off,117,0,0,,10,,,81,127
63147,note_off,0,0,0,,2,,,50,127
63148,note_on,1,0,0,,7,,,43,127
63148,note_on,0,0,0,,7,,,79,127
63265,note_off,117,0,0,,7,,,79,127
63266,note_on,1,0,0,,2,,,86,127
63383,note_off,117,0,0,,2,,,86,127
63384,note_on,1,0,0,,11,,,82,127
63501,note_off,117,0,0,,11,,,82,127
63502,note_on,1,0,0,,7,,,79,127
63619,note_off,117,0,0,,7,,,79,127
63620,note_on,1,0,0,,2,,,74,127
63737,note_off,117,0,0,,2,,,74,127
63738,note_on,1,0,0,,11,,,70,127
63855,note_off,117,0,0,,11,,,70,127
63855,note_off,0,0,0,,7,,,43,127
63856,note_on,1,0,0,,7,,,67,127
63973,note_off,117,0,0,,7,,,67,127
63974,note_on,1,0,0,,2,,,62,127
64091,note_off,117,0,0,,2,,,62,127
64092,note_on,1,0,0,,11,,,58,127
64209,note_off,117,0,0,,11,,,58,127
64210,note_on,1,0,0,,7,,,55,127
64327,note_off,117,0,0,,7,,,55,127
64328,note_on,1,0,0,,3,,,63,127
64328,note_on,0,0,0,,7,,,67,127
64328,note_on,0,0,0,,11,,,70,127
64328,note_on,0,0,0,,7,,,79,127
64445,note_off,117,0,0,,3,,,63,127
64446,note_on,1,0,0,,1,,,61,127
64563,note_off,117,0,0,,1,,,61,127
64564,note_on,1,0,0,,2,,,62,127
64918,note_off,354,0,0,,7,,,79,127
64918,note_off,0,0,0,,11,,,70,127
64918,note_off,0,0,0,,7,,,67,127
64919,note_on,1,0,0,,2,,,50,127
64919,note_on,0,0,0,,6,,,78,127
64919,note_on,0,0,0,,10,,,69,127
64919,note_on,0,0,0,,0,,,72,127
64919,note_on,0,0,0,,2,,,74,127
65273,note_off,354,0,0,,2,,,74,127
65273,note_off,0,0,0,,0,,,72,127
65273,note_off,0,0,0,,10,,,69,127
65273,note_off,0,0,0,,6,,,78,127
65273,note_off,0,0,0,,2,,,50,127
65273,note_off,0,0,0,,2,,,62,127
65274,note_on,1,0,0,,7,,,67,127
65391,note_off,117,0,0,,7,,,67,127
65392,note_on,1,0,0,,2,,,62,127
65509,note_off,117,0,0,,2,,,62,127
65510,note_on,1,0,0,,11,,,58,127
65627,note_off,117,0,0,,11,,,58,127
65628,note_on,1,0,0,,7,,,55,127
65745,note_off,117,0,0,,7,,,55,127
65746,note_on,1,0,0,,3,,,63,127
65746,note_on,0,0,0,,11,,,70,127
65746,note_on,0,0,0,,1,,,73,127
65746,note_on,0,0,0,,11,,,82,127
65863,note_off,117,0,0,,3,,,63,127
65864,note_on,1,0,0,,1,,,61,127
65981,note_off,117,0,0,,1,,,61,127
65982,note_on,1,0,0,,2,,,62,127
66336,note_off,354,0,0,,11,,,82,127
66336,note_off,0,0,0,,1,,,73,127
66336,note_off,0,0,0,,11,,,70,127
66337,note_on,1,0,0,,2,,,50,127
66337,note_on,0,0,0,,10,,,81,127
66337,note_on,0,0,0,,10,,,69,127
66337,note_on,0,0,0,,6,,,78,127
66337,note_on,0,0,0,,2,,,74,127
66691,note_off,354,0,0,,2,,,74,127
66691,note_off,0,0,0,,6,,,78,127
66691,note_off,0,0,0,,10,,,69,127
66691,note_off,0,0,0,,10,,,81,127
66691,note_off,0,0,0,,2,,,50,127
66691,note_off,0,0,0,,2,,,62,127
66692,note_on,1,0,0,,7,,,67,127
66809,note_off,117,0,0,,7,,,67,127
66810,note_on,1,0,0,,2,,,62,127
66927,note_off,117,0,0,,2,,,62,127
66928,note_on,1,0,0,,11,,,58,127
67045,note_off,117,0,0,,11,,,58,127
67046,note_on,1,0,0,,7,,,55,127
67163,note_off,117,0,0,,7,,,55,127
67164,note_on,1,0,0,,3,,,63,127
67164,note_on,0,0,0,,7,,,67,127
67164,note_on,0,0,0,,11,,,70,127
67164,note_on,0,0,0,,7,,,79,127
67281,note_off,117,0,0,,3,,,63,127
67282,note_on,1,0,0,,1,,,61,127
67399,note_off,117,0,0,,1,,,61,127
67400,note_on,1,0,0,,2,,,62,127
67754,note_off,354,0,0,,7,,,79,127
67754,note_off,0,0,0,,11,,,70,127
67754,note_off,0,0,0,,7,,,67,127
67755,note_on,1,0,0,,2,,,50,127
67755,note_on,0,0,0,,6,,,78,127
67755,note_on,0,0,0,,10,,,69,127
67755,note_on,0,0,0,,2,,,74,127
67755,note_on,0,0,0,,0,,,72,127
68109,note_off,354,0,0,,0,,,72,127
68109,note_off,0,0,0,,2,,,74,127
68109,note_off,0,0,0,,10,,,69,127
68109,note_off,0,0,0,,6,,,78,127
68109,note_off,0,0,0,,2,,,50,127
68109,note_off,0,0,0,,2,,,62,127
68110,note_on,1,0,0,,7,,,67,127
68227,note_off,117,0,0,,7,,,67,127
68228,note_on,1,0,0,,2,,,62,127
68345,note_off,117,0,0,,2,,,62,127
68346,note_on,1,0,0,,11,,,58,127
68463,note_off,117,0,0,,11,,,58,127
68464,note_on,1,0,0,,7,,,55,127
68581,note_off,117,0,0,,7,,,55,127
68582,note_on,1,0,0,,3,,,63,127
68582,note_on,0,0,0,,11,,,70,127
68582,note_on,0,0,0,,1,,,73,127
68582,note_on,0,0,0,,11,,,82,127
68699,note_off,117,0,0,,3,,,63,127
68700,note_on,1,0,0,,1,,,61,127
68817,note_off,117,0,0,,1,,,61,127
68818,note_on,1,0,0,,2,,,62,127
69172,note_off,354,0,0,,11,,,82,127
69172,note_off,0,0,0,,1,,,73,127
69172,note_off,0,0,0,,11,,,70,127
69173,note_on,1,0,0,,2,,,50,127
69173,note_on,0,0,0,,10,,,81,127
69173,note_on,0,0,0,,10,,,69,127
69173,note_on,0,0,0,,2,,,74,127
69173,note_on,0,0,0,,6,,,78,127
69527,note_off,354,0,0,,6,,,78,127
69527,note_off,0,0,0,,2,,,74,127
69527,note_off,0,0,0,,10,,,69,127
69527,note_off,0,0,0,,10,,,81,127
69527,note_off,0,0,0,,2,,,50,127
69527,note_off,0,0,0,,2,,,62,127
69528,note_on,1,0,0,,2,,,62,127
69645,note_off,117,0,0,,2,,,62,127
69646,note_on,1,0,0,,10,,,57,127
69763,note_off,117,0,0,,10,,,57,127
69764,note_on,1,0,0,,6,,,54,127
69881,note_off,117,0,0,,6,,,54,127
69882,note_on,1,0,0,,2,,,50,127
69999,note_off,117,0,0,,2,,,50,127
70000,note_on,1,0,0,,10,,,45,127
70000,note_on,0,0,0,,10,,,69,127
70000,note_on,0,0,0,,0,,,72,127
70000,note_on,0,0,0,,2,,,74,127
70000,note_on,0,0,0,,6,,,78,127
70117,note_off,117,0,0,,10,,,45,127
70118,note_on,1,0,0,,2,,,38,127
70235,note_off,117,0,0,,2,,,38,127
70236,note_on,1,0,0,,7,,,31,127
70590,note_off,354,0,0,,6,,,78,127
70590,note_off,0,0,0,,2,,,74,127
70590,note_off,0,0,0,,0,,,72,127
70590,note_off,0,0,0,,10,,,69,127
70591,note_on,1,0,0,,11,,,70,127
70591,note_on,0,0,0,,7,,,79,127
70591,note_on,0,0,0,,7,,,67,127
70591,note_on,0,0,0,,2,,,74,127
70945,note_off,354,0,0,,2,,,74,127
70945,note_off,0,0,0,,7,,,67,127
70945,note_off,0,0,0,,7,,,79,127
70945,note_off,0,0,0,,11,,,70,127
70945,note_off,0,0,0,,7,,,31,127
70946,note_on,1,0,0,,2,,,62,127
71063,note_off,117,0,0,,2,,,62,127
71064,note_on,1,0,0,,10,,,57,127
71181,note_off,117,0,0,,10,,,57,127
71182,note_on,1,0,0,,6,,,54,127
71299,note_off,117,0,0,,6,,,54,127
71300,note_on,1,0,0,,2,,,50,127
71417,note_off,117,0,0,,2,,,50,127
71418,note_on,1,0,0,,10,,,45,127
71418,note_on,0,0,0,,10,,,69,127
71418,note_on,0,0,0,,0,,,72,127
71418,note_on,0,0,0,,6,,,78,127
71418,note_on,0,0,0,,10,,,81,127
71535,note_off,117,0,0,,10,,,45,127
71536,note_on,1,0,0,,2,,,38,127
71653,note_off,117,0,0,,2,,,38,127
71654,note_on,1,0,0,,7,,,31,127
72008,note_off,354,0,0,,10,,,81,127
72008,note_off,0,0,0,,6,,,78,127
72008,note_off,0,0,0,,0,,,72,127
72008,note_off,0,0,0,,10,,,69,127
72009,note_on,1,0,0,,11,,,82,127
72009,note_on,0,0,0,,11,,,70,127
72009,note_on,0,0,0,,2,,,74,127
72009,note_on,0,0,0,,7,,,79,127
72363,note_off,354,0,0,,7,,,79,127
72363,note_off,0,0,0,,2,,,74,127
72363,note_off,0,0,0,,11,,,70,127
72363,note_off,0,0,0,,11,,,82,127
72363,note_off,0,0,0,,7,,,31,127
72364,note_on,1,0,0,,2,,,62,127
72481,note_off,117,0,0,,2,,,62,127
72482,note_on,1,0,0,,10,,,57,127
72599,note_off,117,0,0,,10,,,57,127
72600,note_on,1,0,0,,6,,,54,127
72717,note_off,117,0,0,,6,,,54,127
72718,note_on,1,0,0,,2,,,50,127
72835,note_off,117,0,0,,2,,,50,127
72836,note_on,1,0,0,,10,,,45,127
72836,note_on,0,0,0,,10,,,69,127
72836,note_on,0,0,0,,0,,,72,127
72836,note_on,0,0,0,,2,,,74,127
72836,note_on,0,0,0,,6,,,78,127
72953,note_off,117,0,0,,10,,,45,127
72954,note_on,1,0,0,,2,,,38,127
73071,note_off,117,0,0,,2,,,38,127
73071,note_off,0,0,0,,6,,,78,127
73071,note_off,0,0,0,,2,,,74,127
73071,note_off,0,0,0,,0,,,72,127
73071,note_off,0,0,0,,10,,,69,127
73072,note_on,1,0,0,,7,,,43,127
73072,note_on,0,0,0,,7,,,79,127
73189,note_off,117,0,0,,7,,,79,127
73190,note_on,1,0,0,,2,,,74,127
73307,note_off,117,0,0,,2,,,74,127
73308,note_on,1,0,0,,5,,,77,127
73425,note_off,117,0,0,,5,,,77,127
73425,note_off,0,0,0,,7,,,43,127
73426,note_on,1,0,0,,0,,,60,127
73426,note_on,0,0,0,,3,,,75,127
73543,note_off,117,0,0,,3,,,75,127
73544,note_on,1,0,0,,2,,,74,127
73661,note_off,117,0,0,,2,,,74,127
73662,note_on,1,0,0,,0,,,84,127
73779,note_off,117,0,0,,0,,,84,127
73779,note_off,0,0,0,,0,,,60,127
73780,note_on,1,0,0,,2,,,62,127
73780,note_on,0,0,0,,11,,,82,127
73897,note_off,117,0,0,,11,,,82,127
73898,note_on,1,0,0,,10,,,81,127
74015,note_off,117,0,0,,10,,,81,127
74016,note_on,1,0,0,,11,,,82,127
74133,note_off,117,0,0,,11,,,82,127
74134,note_on,1,0,0,,2,,,50,127
74134,note_on,0,0,0,,0,,,84,127
74251,note_off,117,0,0,,0,,,84,127
74252,note_on,1,0,0,,11,,,82,127
74369,note_off,117,0,0,,11,,,82,127
74370,note_on,1,0,0,,10,,,81,127
74487,note_off,117,0,0,,10,,,81,127
74487,note_off,0,0,0,,2,,,50,127
74487,note_off,0,0,0,,2,,,62,127
74488,note_on,1,0,0,,7,,,55,127
74488,note_on,0,0,0,,7,,,79,127
74605,note_off,117,0,0,,7,,,79,127
74606,note_on,1,0,0,,11,,,70,127
74723,note_off,117,0,0,,11,,,70,127
74724,note_on,1,0,0,,10,,,69,127
74841,note_off,117,0,0,,10,,,69,127
74841,note_off,0,0,0,,7,,,55,127
74842,note_on,1,0,0,,0,,,48,127
74842,note_on,0,0,0,,0,,,72,127
74959,note_off,117,0,0,,0,,,72,127
74960,note_on,1,0,0,,11,,,70,127
75077,note_off,117,0,0,,11,,,70,127
75078,note_on,1,0,0,,2,,,74,127
75195,note_off,117,0,0,,2,,,74,127
75195,note_off,0,0,0,,0,,,48,127
75196,note_on,1,0,0,,2,,,50,127
75196,note_on,0,0,0,,11,,,70,127
75196,note_on,0,0,0,,0,,,72,127
75313,note_off,117,0,0,,0,,,72,127
75313,note_off,0,0,0,,11,,,70,127
75314,note_on,1,0,0,,10,,,69,127
75431,note_off,117,0,0,,10,,,69,127
75432,note_on,1,0,0,,11,,,70,127
75549,note_off,117,0,0,,11,,,70,127
75550,note_on,1,0,0,,2,,,38,127
75550,note_on,0,0,0,,0,,,72,127
75667,note_off,117,0,0,,0,,,72,127
75668,note_on,1,0,0,,11,,,70,127
75785,note_off,117,0,0,,11,,,70,127
75786,note_on,1,0,0,,10,,,69,127
75903,note_off,117,0,0,,10,,,69,127
75903,note_off,0,0,0,,2,,,38,127
75903,note_off,0,0,0,,2,,,50,127
75904,note_on,1,0,0,,7,,,43,127
75904,note_on,0,0,0,,7,,,67,127
76021,note_off,117,0,0,,7,,,67,127
76022,note_on,1,0,0,,2,,,62,127
76139,note_off,117,0,0,,2,,,62,127
76140,note_on,1,0,0,,11,,,58,127
76257,note_off,117,0,0,,11,,,58,127
76257,note_off,0,0,0,,7,,,43,127
76258,note_on,1,0,0,,7,,,55,127
76375,note_off,117,0,0,,7,,,55,127
76376,note_on,1,0,0,,2,,,50,127
76493,note_off,117,0,0,,2,,,50,127
76494,note_on,1,0,0,,11,,,46,127
76611,note_off,117,0,0,,11,,,46,127
76612,note_on,1,0,0,,7,,,43,127
76729,note_off,117,0,0,,7,,,43,127
76730,note_on,1,0,0,,11,,,46,127
76847,note_off,117,0,0,,11,,,46,127
76848,note_on,1,0,0,,2,,,50,127
76965,note_off,117,0,0,,2,,,50,127
76966,note_on,1,0,0,,7,,,55,127
77083,note_off,117,0,0,,7,,,55,127
77084,note_on,1,0,0,,11,,,58,127
77201,note_off,117,0,0,,11,,,58,127
77202,note_on,1,0,0,,2,,,62,127
77319,note_off,117,0,0,,2,,,62,127
77320,note_on,1,0,0,,10,,,45,127
77378,note_off,58,0,0,,10,,,45,127
77379,note_on,1,0,0,,7,,,43,127
77437,note_off,58,0,0,,7,,,43,127
77438,note_on,1,0,0,,10,,,45,127
77496,note_off,58,0,0,,10,,,45,127
77497,note_on,1,0,0,,7,,,43,127
77555,note_off,58,0,0,,7,,,43,127
77556,note_on,1,0,0,,10,,,45,127
77614,note_off,58,0,0,,10,,,45,127
77615,note_on,1,0,0,,7,,,43,127
79086,note_off,1471,0,0,,7,,,43,127
82944,end_of_track,3858,1,0,,,,,,
