tick,type,time,meta,track,program,channel,pitch,tempo,note,velocity
0,copyright,0,1,0,,,,,,
0,program_change,0,0,0,6,0,,,,
0,pitchwheel,0,0,0,,0,0,,,
0,program_change,0,0,0,6,1,,,,
0,pitchwheel,0,0,0,,1,-590,,,
0,program_change,0,0,0,6,2,,,,
0,pitchwheel,0,0,0,,2,-272,,,
0,program_change,0,0,0,6,3,,,,
0,pitchwheel,0,0,0,,3,-353,,,
0,program_change,0,0,0,6,4,,,,
0,pitchwheel,0,0,0,,4,-560,,,
0,program_change,0,0,0,6,5,,,,
0,pitchwheel,0,0,0,,5,-80,,,
0,program_change,0,0,0,6,6,,,,
0,pitchwheel,0,0,0,,6,-625,,,
0,program_change,0,0,0,6,7,,,,
0,pitchwheel,0,0,0,,7,-130,,,
0,program_change,0,0,0,6,8,,,,
0,pitchwheel,0,0,0,,8,-512,,,
0,program_change,0,0,0,6,10,,,,
0,pitchwheel,0,0,0,,10,-464,,,
0,program_change,0,0,0,6,11,,,,
0,pitchwheel,0,0,0,,11,-208,,,
0,program_change,0,0,0,6,12,,,,
0,pitchwheel,0,0,0,,12,-553,,,
0,set_tempo,0,1,0,,,,500000,,
110,note_on,110,0,0,,11,,,46,127
329,note_on,219,0,0,,5,,,77,127
400,note_off,71,0,0,,5,,,77,127
402,note_on,2,0,0,,3,,,75,127
473,note_off,71,0,0,,3,,,75,127
475,note_on,2,0,0,,2,,,74,127
546,note_off,71,0,0,,2,,,74,127
548,note_on,2,0,0,,0,,,72,127
619,note_off,71,0,0,,0,,,72,127
621,note_on,2,0,0,,11,,,70,127
692,note_off,71,0,0,,11,,,70,127
694,note_on,2,0,0,,10,,,69,127
765,note_off,71,0,0,,10,,,69,127
766,note_off,1,0,0,,11,,,46,127
767,note_on,1,0,0,,11,,,70,127
986,note_on,219,0,0,,5,,,65,127
1057,note_off,71,0,0,,5,,,65,127
1059,note_on,2,0,0,,3,,,63,127
1130,note_off,71,0,0,,3,,,63,127
1132,note_on,2,0,0,,2,,,62,127
1203,note_off,71,0,0,,2,,,62,127
1203,note_off,0,0,0,,11,,,70,127
1205,note_on,2,0,0,,0,,,60,127
1205,note_on,0,0,0,,0,,,72,127
1276,note_off,71,0,0,,0,,,60,127
1278,note_on,2,0,0,,11,,,58,127
1349,note_off,71,0,0,,11,,,58,127
1351,note_on,2,0,0,,10,,,57,127
1422,note_off,71,0,0,,10,,,57,127
1422,note_off,0,0,0,,0,,,72,127
1424,note_on,2,0,0,,11,,,58,127
1424,note_on,0,0,0,,2,,,74,127
1641,note_off,217,0,0,,2,,,74,127
1641,note_off,0,0,0,,11,,,58,127
1643,note_on,2,0,0,,0,,,60,127
1643,note_on,0,0,0,,3,,,75,127
1860,note_off,217,0,0,,3,,,75,127
1860,note_off,0,0,0,,0,,,60,127
1862,note_on,2,0,0,,2,,,62,127
1862,note_on,0,0,0,,5,,,77,127
2079,note_off,217,0,0,,5,,,77,127
2079,note_off,0,0,0,,2,,,62,127
2081,note_on,2,0,0,,3,,,63,127
2081,note_on,0,0,0,,6,,,78,127
2298,note_off,217,0,0,,6,,,78,127
2298,note_off,0,0,0,,3,,,63,127
2300,note_on,2,0,0,,5,,,65,127
2300,note_on,0,0,0,,7,,,79,127
2407,note_off,107,0,0,,7,,,79,127
2409,note_on,2,0,0,,10,,,81,127
2516,note_off,107,0,0,,10,,,81,127
2516,note_off,0,0,0,,5,,,65,127
2518,note_on,2,0,0,,7,,,67,127
2518,note_on,0,0,0,,11,,,82,127
2625,note_off,107,0,0,,11,,,82,127
2627,note_on,2,0,0,,0,,,84,127
2734,note_off,107,0,0,,0,,,84,127
2734,note_off,0,0,0,,7,,,67,127
2736,note_on,2,0,0,,5,,,65,127
2736,note_on,0,0,0,,11,,,82,127
2953,note_off,217,0,0,,11,,,82,127
2955,note_on,2,0,0,,5,,,53,127
2955,note_on,0,0,0,,10,,,81,127
3062,note_off,107,0,0,,10,,,81,127
3064,note_on,2,0,0,,7,,,79,127
3169,note_off,105,0,0,,5,,,65,127
3171,note_off,2,0,0,,7,,,79,127
3171,note_off,0,0,0,,5,,,53,127
3173,note_on,2,0,0,,10,,,57,127
3173,note_on,0,0,0,,5,,,77,127
3280,note_off,107,0,0,,5,,,77,127
3282,note_on,2,0,0,,3,,,75,127
3389,note_off,107,0,0,,3,,,75,127
3389,note_off,0,0,0,,10,,,57,127
3391,note_on,2,0,0,,11,,,58,127
3391,note_on,0,0,0,,2,,,74,127
3462,note_off,71,0,0,,2,,,74,127
3464,note_on,2,0,0,,5,,,77,127
3535,note_off,71,0,0,,5,,,77,127
3537,note_on,2,0,0,,2,,,74,127
3608,note_off,71,0,0,,2,,,74,127
3610,note_on,2,0,0,,11,,,70,127
3681,note_off,71,0,0,,11,,,70,127
3683,note_on,2,0,0,,5,,,65,127
3754,note_off,71,0,0,,5,,,65,127
3756,note_on,2,0,0,,2,,,62,127
3827,note_off,71,0,0,,2,,,62,127
3827,note_off,0,0,0,,11,,,58,127
3829,note_on,2,0,0,,11,,,58,127
3900,note_off,71,0,0,,11,,,58,127
3902,note_on,2,0,0,,5,,,53,127
3973,note_off,71,0,0,,5,,,53,127
3975,note_on,2,0,0,,2,,,50,127
4046,note_off,71,0,0,,2,,,50,127
4048,note_on,2,0,0,,11,,,46,127
4267,note_on,219,0,0,,5,,,77,127
4338,note_off,71,0,0,,5,,,77,127
4340,note_on,2,0,0,,3,,,75,127
4411,note_off,71,0,0,,3,,,75,127
4413,note_on,2,0,0,,2,,,74,127
4484,note_off,71,0,0,,2,,,74,127
4486,note_on,2,0,0,,0,,,72,127
4557,note_off,71,0,0,,0,,,72,127
4559,note_on,2,0,0,,11,,,70,127
4630,note_off,71,0,0,,11,,,70,127
4632,note_on,2,0,0,,10,,,69,127
4703,note_off,71,0,0,,10,,,69,127
4704,note_off,1,0,0,,11,,,46,127
4705,note_on,1,0,0,,11,,,70,127
4924,note_on,219,0,0,,5,,,65,127
4995,note_off,71,0,0,,5,,,65,127
4997,note_on,2,0,0,,3,,,63,127
5068,note_off,71,0,0,,3,,,63,127
5070,note_on,2,0,0,,2,,,62,127
5141,note_off,71,0,0,,2,,,62,127
5141,note_off,0,0,0,,11,,,70,127
5143,note_on,2,0,0,,0,,,60,127
5143,note_on,0,0,0,,0,,,72,127
5214,note_off,71,0,0,,0,,,60,127
5216,note_on,2,0,0,,11,,,58,127
5287,note_off,71,0,0,,11,,,58,127
5289,note_on,2,0,0,,10,,,57,127
5360,note_off,71,0,0,,10,,,57,127
5360,note_off,0,0,0,,0,,,72,127
5362,note_on,2,0,0,,11,,,58,127
5362,note_on,0,0,0,,2,,,74,127
5579,note_off,217,0,0,,2,,,74,127
5579,note_off,0,0,0,,11,,,58,127
5581,note_on,2,0,0,,0,,,60,127
5581,note_on,0,0,0,,3,,,75,127
5798,note_off,217,0,0,,3,,,75,127
5798,note_off,0,0,0,,0,,,60,127
5800,note_on,2,0,0,,2,,,62,127
5800,note_on,0,0,0,,5,,,77,127
6017,note_off,217,0,0,,5,,,77,127
6017,note_off,0,0,0,,2,,,62,127
6019,note_on,2,0,0,,3,,,63,127
6019,note_on,0,0,0,,6,,,78,127
6236,note_off,217,0,0,,6,,,78,127
6236,note_off,0,0,0,,3,,,63,127
6238,note_on,2,0,0,,5,,,65,127
6238,note_on,0,0,0,,7,,,79,127
6345,note_off,107,0,0,,7,,,79,127
6347,note_on,2,0,0,,10,,,81,127
6454,note_off,107,0,0,,10,,,81,127
6454,note_off,0,0,0,,5,,,65,127
6456,note_on,2,0,0,,7,,,67,127
6456,note_on,0,0,0,,11,,,82,127
6563,note_off,107,0,0,,11,,,82,127
6565,note_on,2,0,0,,0,,,84,127
6672,note_off,107,0,0,,0,,,84,127
6672,note_off,0,0,0,,7,,,67,127
6674,note_on,2,0,0,,5,,,65,127
6674,note_on,0,0,0,,11,,,82,127
6891,note_off,217,0,0,,11,,,82,127
6893,note_on,2,0,0,,5,,,53,127
6893,note_on,0,0,0,,10,,,81,127
7000,note_off,107,0,0,,10,,,81,127
7002,note_on,2,0,0,,7,,,79,127
7107,note_off,105,0,0,,5,,,65,127
7109,note_off,2,0,0,,7,,,79,127
7109,note_off,0,0,0,,5,,,53,127
7111,note_on,2,0,0,,10,,,57,127
7111,note_on,0,0,0,,5,,,77,127
7218,note_off,107,0,0,,5,,,77,127
7220,note_on,2,0,0,,3,,,75,127
7327,note_off,107,0,0,,3,,,75,127
7327,note_off,0,0,0,,10,,,57,127
7329,note_on,2,0,0,,11,,,58,127
7329,note_on,0,0,0,,3,,,75,127
7400,note_off,71,0,0,,3,,,75,127
7402,note_on,2,0,0,,2,,,74,127
7473,note_off,71,0,0,,2,,,74,127
7475,note_on,2,0,0,,3,,,75,127
7546,note_off,71,0,0,,3,,,75,127
7548,note_on,2,0,0,,11,,,46,127
7548,note_on,0,0,0,,2,,,74,127
7655,note_off,107,0,0,,2,,,74,127
7657,note_on,2,0,0,,0,,,72,127
7762,note_off,105,0,0,,11,,,58,127
7764,note_off,2,0,0,,0,,,72,127
7766,note_on,2,0,0,,11,,,70,127
7983,note_off,217,0,0,,11,,,70,127
7983,note_off,0,0,0,,11,,,46,127
7985,note_on,2,0,0,,11,,,46,127
7985,note_on,0,0,0,,11,,,82,127
8056,note_off,71,0,0,,11,,,82,127
8058,note_on,2,0,0,,5,,,77,127
8129,note_off,71,0,0,,5,,,77,127
8131,note_on,2,0,0,,2,,,74,127
8202,note_off,71,0,0,,2,,,74,127
8204,note_on,2,0,0,,11,,,70,127
8421,note_off,217,0,0,,11,,,70,127
8421,note_off,0,0,0,,11,,,46,127
8423,note_on,2,0,0,,0,,,84,127
8423,note_on,0,0,0,,3,,,75,127
8640,note_off,217,0,0,,3,,,75,127
8640,note_off,0,0,0,,0,,,84,127
8642,note_on,2,0,0,,0,,,84,127
8642,note_on,0,0,0,,11,,,82,127
8642,note_on,0,0,0,,2,,,74,127
8859,note_off,217,0,0,,2,,,74,127
8859,note_off,0,0,0,,11,,,82,127
8859,note_off,0,0,0,,0,,,84,127
8861,note_on,2,0,0,,10,,,81,127
8861,note_on,0,0,0,,0,,,72,127
9078,note_off,217,0,0,,0,,,72,127
9078,note_off,0,0,0,,10,,,81,127
9080,note_on,2,0,0,,11,,,82,127
9080,note_on,0,0,0,,2,,,74,127
9297,note_off,217,0,0,,2,,,74,127
9297,note_off,0,0,0,,11,,,82,127
9299,note_on,2,0,0,,11,,,46,127
9299,note_on,0,0,0,,11,,,82,127
9370,note_off,71,0,0,,11,,,82,127
9372,note_on,2,0,0,,5,,,77,127
9443,note_off,71,0,0,,5,,,77,127
9445,note_on,2,0,0,,2,,,74,127
9516,note_off,71,0,0,,2,,,74,127
9518,note_on,2,0,0,,11,,,70,127
9735,note_off,217,0,0,,11,,,70,127
9735,note_off,0,0,0,,11,,,46,127
9737,note_on,2,0,0,,0,,,84,127
9737,note_on,0,0,0,,3,,,75,127
9954,note_off,217,0,0,,3,,,75,127
9954,note_off,0,0,0,,0,,,84,127
9956,note_on,2,0,0,,0,,,84,127
9956,note_on,0,0,0,,11,,,82,127
9956,note_on,0,0,0,,2,,,74,127
10173,note_off,217,0,0,,2,,,74,127
10173,note_off,0,0,0,,11,,,82,127
10173,note_off,0,0,0,,0,,,84,127
10175,note_on,2,0,0,,10,,,81,127
10175,note_on,0,0,0,,0,,,72,127
10392,note_off,217,0,0,,0,,,72,127
10392,note_off,0,0,0,,10,,,81,127
10394,note_on,2,0,0,,11,,,82,127
10394,note_on,0,0,0,,2,,,74,127
10611,note_off,217,0,0,,2,,,74,127
10611,note_off,0,0,0,,11,,,82,127
10613,note_on,2,0,0,,7,,,43,127
10613,note_on,0,0,0,,7,,,79,127
10684,note_off,71,0,0,,7,,,79,127
10686,note_on,2,0,0,,2,,,74,127
10757,note_off,71,0,0,,2,,,74,127
10759,note_on,2,0,0,,11,,,70,127
10830,note_off,71,0,0,,11,,,70,127
10832,note_on,2,0,0,,7,,,67,127
11049,note_off,217,0,0,,7,,,67,127
11049,note_off,0,0,0,,7,,,43,127
11051,note_on,2,0,0,,0,,,84,127
11051,note_on,0,0,0,,3,,,75,127
11051,note_on,0,0,0,,0,,,72,127
11268,note_off,217,0,0,,0,,,72,127
11268,note_off,0,0,0,,3,,,75,127
11268,note_off,0,0,0,,0,,,84,127
11270,note_on,2,0,0,,0,,,84,127
11270,note_on,0,0,0,,11,,,82,127
11270,note_on,0,0,0,,2,,,74,127
11270,note_on,0,0,0,,11,,,70,127
11487,note_off,217,0,0,,11,,,70,127
11487,note_off,0,0,0,,2,,,74,127
11487,note_off,0,0,0,,11,,,82,127
11487,note_off,0,0,0,,0,,,84,127
11489,note_on,2,0,0,,10,,,81,127
11489,note_on,0,0,0,,10,,,69,127
11489,note_on,0,0,0,,1,,,73,127
11706,note_off,217,0,0,,1,,,73,127
11706,note_off,0,0,0,,10,,,69,127
11706,note_off,0,0,0,,10,,,81,127
11708,note_on,2,0,0,,11,,,82,127
11708,note_on,0,0,0,,2,,,74,127
11708,note_on,0,0,0,,11,,,70,127
11925,note_off,217,0,0,,11,,,70,127
11925,note_off,0,0,0,,2,,,74,127
11925,note_off,0,0,0,,11,,,82,127
11927,note_on,2,0,0,,7,,,43,127
11927,note_on,0,0,0,,7,,,79,127
11998,note_off,71,0,0,,7,,,79,127
12000,note_on,2,0,0,,2,,,74,127
12071,note_off,71,0,0,,2,,,74,127
12073,note_on,2,0,0,,11,,,70,127
12144,note_off,71,0,0,,11,,,70,127
12146,note_on,2,0,0,,7,,,67,127
12363,note_off,217,0,0,,7,,,67,127
12363,note_off,0,0,0,,7,,,43,127
12365,note_on,2,0,0,,0,,,84,127
12365,note_on,0,0,0,,3,,,75,127
12365,note_on,0,0,0,,0,,,72,127
12582,note_off,217,0,0,,0,,,72,127
12582,note_off,0,0,0,,3,,,75,127
12582,note_off,0,0,0,,0,,,84,127
12584,note_on,2,0,0,,0,,,84,127
12584,note_on,0,0,0,,11,,,82,127
12584,note_on,0,0,0,,2,,,74,127
12584,note_on,0,0,0,,11,,,70,127
12801,note_off,217,0,0,,11,,,70,127
12801,note_off,0,0,0,,2,,,74,127
12801,note_off,0,0,0,,11,,,82,127
12801,note_off,0,0,0,,0,,,84,127
12803,note_on,2,0,0,,10,,,81,127
12803,note_on,0,0,0,,10,,,69,127
12803,note_on,0,0,0,,1,,,73,127
13020,note_off,217,0,0,,1,,,73,127
13020,note_off,0,0,0,,10,,,69,127
13020,note_off,0,0,0,,10,,,81,127
13022,note_on,2,0,0,,11,,,82,127
13022,note_on,0,0,0,,2,,,74,127
13022,note_on,0,0,0,,11,,,70,127
13239,note_off,217,0,0,,11,,,70,127
13239,note_off,0,0,0,,2,,,74,127
13239,note_off,0,0,0,,11,,,82,127
13241,note_on,2,0,0,,3,,,39,127
13241,note_on,0,0,0,,3,,,75,127
13312,note_off,71,0,0,,3,,,75,127
13314,note_on,2,0,0,,11,,,70,127
13385,note_off,71,0,0,,11,,,70,127
13387,note_on,2,0,0,,7,,,67,127
13458,note_off,71,0,0,,7,,,67,127
13460,note_on,2,0,0,,3,,,63,127
13677,note_off,217,0,0,,3,,,63,127
13677,note_off,0,0,0,,3,,,39,127
13679,note_on,2,0,0,,8,,,80,127
13679,note_on,0,0,0,,5,,,77,127
13679,note_on,0,0,0,,8,,,68,127
13896,note_off,217,0,0,,8,,,68,127
13896,note_off,0,0,0,,5,,,77,127
13896,note_off,0,0,0,,8,,,80,127
13898,note_on,2,0,0,,8,,,80,127
13898,note_on,0,0,0,,7,,,79,127
13898,note_on,0,0,0,,3,,,75,127
13898,note_on,0,0,0,,7,,,67,127
14115,note_off,217,0,0,,7,,,67,127
14115,note_off,0,0,0,,3,,,75,127
14115,note_off,0,0,0,,7,,,79,127
14115,note_off,0,0,0,,8,,,80,127
14117,note_on,2,0,0,,5,,,77,127
14117,note_on,0,0,0,,2,,,74,127
14117,note_on,0,0,0,,5,,,65,127
14334,note_off,217,0,0,,5,,,65,127
14334,note_off,0,0,0,,2,,,74,127
14334,note_off,0,0,0,,5,,,77,127
14336,note_on,2,0,0,,7,,,79,127
14336,note_on,0,0,0,,7,,,67,127
14336,note_on,0,0,0,,3,,,75,127
14553,note_off,217,0,0,,3,,,75,127
14553,note_off,0,0,0,,7,,,67,127
14553,note_off,0,0,0,,7,,,79,127
14555,note_on,2,0,0,,3,,,39,127
14555,note_on,0,0,0,,3,,,75,127
14626,note_off,71,0,0,,3,,,75,127
14628,note_on,2,0,0,,11,,,70,127
14699,note_off,71,0,0,,11,,,70,127
14701,note_on,2,0,0,,7,,,67,127
14772,note_off,71,0,0,,7,,,67,127
14774,note_on,2,0,0,,3,,,63,127
14991,note_off,217,0,0,,3,,,63,127
14991,note_off,0,0,0,,3,,,39,127
14993,note_on,2,0,0,,8,,,80,127
14993,note_on,0,0,0,,5,,,77,127
14993,note_on,0,0,0,,8,,,68,127
15210,note_off,217,0,0,,8,,,68,127
15210,note_off,0,0,0,,5,,,77,127
15210,note_off,0,0,0,,8,,,80,127
15212,note_on,2,0,0,,8,,,80,127
15212,note_on,0,0,0,,7,,,79,127
15212,note_on,0,0,0,,3,,,75,127
15212,note_on,0,0,0,,7,,,67,127
15429,note_off,217,0,0,,7,,,67,127
15429,note_off,0,0,0,,3,,,75,127
15429,note_off,0,0,0,,7,,,79,127
15429,note_off,0,0,0,,8,,,80,127
15431,note_on,2,0,0,,5,,,77,127
15431,note_on,0,0,0,,5,,,65,127
15431,note_on,0,0,0,,2,,,74,127
15648,note_off,217,0,0,,2,,,74,127
15648,note_off,0,0,0,,5,,,65,127
15648,note_off,0,0,0,,5,,,77,127
15650,note_on,2,0,0,,7,,,79,127
15650,note_on,0,0,0,,7,,,67,127
15650,note_on,0,0,0,,3,,,75,127
15867,note_off,217,0,0,,3,,,75,127
15867,note_off,0,0,0,,7,,,67,127
15867,note_off,0,0,0,,7,,,79,127
15869,note_on,2,0,0,,3,,,63,127
15869,note_on,0,0,0,,7,,,79,127
15940,note_off,71,0,0,,7,,,79,127
15942,note_on,2,0,0,,3,,,75,127
16013,note_off,71,0,0,,3,,,75,127
16015,note_on,2,0,0,,7,,,67,127
16086,note_off,71,0,0,,7,,,67,127
16088,note_on,2,0,0,,10,,,69,127
16305,note_off,217,0,0,,10,,,69,127
16305,note_off,0,0,0,,3,,,63,127
16307,note_on,2,0,0,,2,,,62,127
16307,note_on,0,0,0,,11,,,70,127
16524,note_off,217,0,0,,11,,,70,127
16524,note_off,0,0,0,,2,,,62,127
16526,note_on,2,0,0,,3,,,63,127
16526,note_on,0,0,0,,7,,,79,127
16597,note_off,71,0,0,,7,,,79,127
16599,note_on,2,0,0,,3,,,75,127
16670,note_off,71,0,0,,3,,,75,127
16672,note_on,2,0,0,,7,,,67,127
16743,note_off,71,0,0,,7,,,67,127
16745,note_on,2,0,0,,10,,,69,127
16962,note_off,217,0,0,,10,,,69,127
16962,note_off,0,0,0,,3,,,63,127
16964,note_on,2,0,0,,2,,,62,127
16964,note_on,0,0,0,,11,,,70,127
17181,note_off,217,0,0,,11,,,70,127
17181,note_off,0,0,0,,2,,,62,127
17183,note_on,2,0,0,,0,,,60,127
17183,note_on,0,0,0,,5,,,77,127
17183,note_on,0,0,0,,3,,,75,127
17254,note_off,71,0,0,,3,,,75,127
17254,note_off,0,0,0,,5,,,77,127
17256,note_on,2,0,0,,2,,,74,127
17327,note_off,71,0,0,,2,,,74,127
17329,note_on,2,0,0,,3,,,75,127
17400,note_off,71,0,0,,3,,,75,127
17400,note_off,0,0,0,,0,,,60,127
17402,note_on,2,0,0,,10,,,57,127
17402,note_on,0,0,0,,0,,,84,127
17402,note_on,0,0,0,,3,,,75,127
17619,note_off,217,0,0,,3,,,75,127
17619,note_off,0,0,0,,0,,,84,127
17619,note_off,0,0,0,,10,,,57,127
17621,note_on,2,0,0,,11,,,58,127
17621,note_on,0,0,0,,11,,,82,127
17621,note_on,0,0,0,,2,,,74,127
17838,note_off,217,0,0,,11,,,82,127
17838,note_off,0,0,0,,11,,,58,127
17840,note_on,2,0,0,,5,,,53,127
17840,note_on,0,0,0,,11,,,82,127
18055,note_off,215,0,0,,2,,,74,127
18057,note_off,2,0,0,,11,,,82,127
18059,note_on,2,0,0,,0,,,72,127
18059,note_on,0,0,0,,10,,,81,127
18276,note_off,217,0,0,,5,,,53,127
18278,note_on,2,0,0,,5,,,65,127
18495,note_off,217,0,0,,5,,,65,127
18495,note_off,0,0,0,,10,,,81,127
18495,note_off,0,0,0,,0,,,72,127
18497,note_on,2,0,0,,3,,,63,127
18497,note_on,0,0,0,,7,,,79,127
18568,note_off,71,0,0,,7,,,79,127
18570,note_on,2,0,0,,3,,,75,127
18641,note_off,71,0,0,,3,,,75,127
18643,note_on,2,0,0,,7,,,67,127
18714,note_off,71,0,0,,7,,,67,127
18716,note_on,2,0,0,,10,,,69,127
18933,note_off,217,0,0,,10,,,69,127
18933,note_off,0,0,0,,3,,,63,127
18935,note_on,2,0,0,,2,,,62,127
18935,note_on,0,0,0,,11,,,70,127
19152,note_off,217,0,0,,11,,,70,127
19152,note_off,0,0,0,,2,,,62,127
19154,note_on,2,0,0,,3,,,63,127
19154,note_on,0,0,0,,7,,,79,127
19225,note_off,71,0,0,,7,,,79,127
19227,note_on,2,0,0,,3,,,75,127
19298,note_off,71,0,0,,3,,,75,127
19300,note_on,2,0,0,,7,,,67,127
19371,note_off,71,0,0,,7,,,67,127
19373,note_on,2,0,0,,10,,,69,127
19590,note_off,217,0,0,,10,,,69,127
19590,note_off,0,0,0,,3,,,63,127
19592,note_on,2,0,0,,2,,,62,127
19592,note_on,0,0,0,,11,,,70,127
19809,note_off,217,0,0,,11,,,70,127
19809,note_off,0,0,0,,2,,,62,127
19811,note_on,2,0,0,,0,,,60,127
19811,note_on,0,0,0,,5,,,77,127
19811,note_on,0,0,0,,3,,,75,127
19882,note_off,71,0,0,,3,,,75,127
19882,note_off,0,0,0,,5,,,77,127
19884,note_on,2,0,0,,2,,,74,127
19955,note_off,71,0,0,,2,,,74,127
19957,note_on,2,0,0,,3,,,75,127
20028,note_off,71,0,0,,3,,,75,127
20028,note_off,0,0,0,,0,,,60,127
20030,note_on,2,0,0,,10,,,57,127
20030,note_on,0,0,0,,0,,,84,127
20030,note_on,0,0,0,,3,,,75,127
20247,note_off,217,0,0,,3,,,75,127
20247,note_off,0,0,0,,0,,,84,127
20247,note_off,0,0,0,,10,,,57,127
20249,note_on,2,0,0,,11,,,58,127
20249,note_on,0,0,0,,11,,,82,127
20249,note_on,0,0,0,,2,,,74,127
20466,note_off,217,0,0,,2,,,74,127
20466,note_off,0,0,0,,11,,,58,127
20468,note_on,2,0,0,,5,,,53,127
20468,note_on,0,0,0,,2,,,74,127
20683,note_off,215,0,0,,11,,,82,127
20685,note_off,2,0,0,,2,,,74,127
20687,note_on,2,0,0,,10,,,81,127
20687,note_on,0,0,0,,0,,,72,127
20904,note_off,217,0,0,,0,,,72,127
20904,note_off,0,0,0,,10,,,81,127
20906,note_on,2,0,0,,7,,,79,127
20906,note_on,0,0,0,,11,,,70,127
21123,note_off,217,0,0,,11,,,70,127
21123,note_off,0,0,0,,7,,,79,127
21123,note_off,0,0,0,,5,,,53,127
21125,note_on,2,0,0,,5,,,41,127
21125,note_on,0,0,0,,5,,,77,127
21196,note_off,71,0,0,,5,,,77,127
21198,note_on,2,0,0,,0,,,72,127
21269,note_off,71,0,0,,0,,,72,127
21271,note_on,2,0,0,,10,,,69,127
21342,note_off,71,0,0,,10,,,69,127
21342,note_off,0,0,0,,5,,,41,127
21344,note_on,2,0,0,,10,,,81,127
21344,note_on,0,0,0,,5,,,77,127
21561,note_off,217,0,0,,5,,,77,127
21561,note_off,0,0,0,,10,,,81,127
21563,note_on,2,0,0,,7,,,79,127
21563,note_on,0,0,0,,4,,,76,127
21780,note_off,217,0,0,,4,,,76,127
21780,note_off,0,0,0,,7,,,79,127
21782,note_on,2,0,0,,2,,,38,127
21782,note_on,0,0,0,,2,,,74,127
21853,note_off,71,0,0,,2,,,74,127
21855,note_on,2,0,0,,11,,,70,127
21926,note_off,71,0,0,,11,,,70,127
21928,note_on,2,0,0,,5,,,65,127
21999,note_off,71,0,0,,5,,,65,127
21999,note_off,0,0,0,,2,,,38,127
22001,note_on,2,0,0,,5,,,77,127
22001,note_on,0,0,0,,2,,,74,127
22218,note_off,217,0,0,,2,,,74,127
22218,note_off,0,0,0,,5,,,77,127
22220,note_on,2,0,0,,4,,,76,127
22220,note_on,0,0,0,,0,,,72,127
22437,note_off,217,0,0,,0,,,72,127
22437,note_off,0,0,0,,4,,,76,127
22439,note_on,2,0,0,,11,,,34,127
22439,note_on,0,0,0,,11,,,70,127
22510,note_off,71,0,0,,11,,,70,127
22512,note_on,2,0,0,,5,,,65,127
22583,note_off,71,0,0,,5,,,65,127
22585,note_on,2,0,0,,2,,,62,127
22656,note_off,71,0,0,,2,,,62,127
22656,note_off,0,0,0,,11,,,34,127
22658,note_on,2,0,0,,2,,,74,127
22658,note_on,0,0,0,,11,,,70,127
22875,note_off,217,0,0,,11,,,70,127
22875,note_off,0,0,0,,2,,,74,127
22877,note_on,2,0,0,,0,,,72,127
22877,note_on,0,0,0,,10,,,69,127
23094,note_off,217,0,0,,10,,,69,127
23094,note_off,0,0,0,,0,,,72,127
23096,note_on,2,0,0,,7,,,43,127
23096,note_on,0,0,0,,7,,,67,127
23167,note_off,71,0,0,,7,,,67,127
23169,note_on,2,0,0,,4,,,64,127
23240,note_off,71,0,0,,4,,,64,127
23242,note_on,2,0,0,,11,,,58,127
23313,note_off,71,0,0,,11,,,58,127
23313,note_off,0,0,0,,7,,,43,127
23315,note_on,2,0,0,,4,,,76,127
23315,note_on,0,0,0,,7,,,67,127
23315,note_on,0,0,0,,11,,,70,127
23532,note_off,217,0,0,,11,,,70,127
23532,note_off,0,0,0,,7,,,67,127
23532,note_off,0,0,0,,4,,,76,127
23534,note_on,2,0,0,,5,,,77,127
23534,note_on,0,0,0,,10,,,69,127
23534,note_on,0,0,0,,5,,,65,127
23751,note_off,217,0,0,,5,,,65,127
23751,note_off,0,0,0,,10,,,69,127
23751,note_off,0,0,0,,5,,,77,127
23753,note_on,2,0,0,,0,,,36,127
23753,note_on,0,0,0,,4,,,76,127
23753,note_on,0,0,0,,7,,,79,127
23970,note_off,217,0,0,,7,,,79,127
23970,note_off,0,0,0,,4,,,76,127
23972,note_on,2,0,0,,10,,,81,127
23972,note_on,0,0,0,,5,,,77,127
24189,note_off,217,0,0,,5,,,77,127
24189,note_off,0,0,0,,10,,,81,127
24189,note_off,0,0,0,,0,,,36,127
24191,note_on,2,0,0,,0,,,48,127
24191,note_on,0,0,0,,11,,,82,127
24191,note_on,0,0,0,,7,,,79,127
24408,note_off,217,0,0,,7,,,79,127
24408,note_off,0,0,0,,11,,,82,127
24408,note_off,0,0,0,,0,,,48,127
24410,note_on,2,0,0,,5,,,53,127
24410,note_on,0,0,0,,5,,,77,127
24410,note_on,0,0,0,,10,,,81,127
24481,note_off,71,0,0,,10,,,81,127
24481,note_off,0,0,0,,5,,,77,127
24483,note_on,2,0,0,,7,,,79,127
24554,note_off,71,0,0,,7,,,79,127
24556,note_on,2,0,0,,5,,,77,127
24627,note_off,71,0,0,,5,,,77,127
24627,note_off,0,0,0,,5,,,53,127
24629,note_on,2,0,0,,11,,,46,127
24629,note_on,0,0,0,,10,,,81,127
24846,note_off,217,0,0,,10,,,81,127
24846,note_off,0,0,0,,11,,,46,127
24848,note_on,2,0,0,,0,,,48,127
24848,note_on,0,0,0,,4,,,76,127
24848,note_on,0,0,0,,7,,,79,127
25065,note_off,217,0,0,,7,,,79,127
25065,note_off,0,0,0,,4,,,76,127
25065,note_off,0,0,0,,0,,,48,127
25067,note_on,2,0,0,,5,,,41,127
25067,note_on,0,0,0,,5,,,77,127
25138,note_off,71,0,0,,5,,,77,127
25140,note_on,2,0,0,,0,,,72,127
25211,note_off,71,0,0,,0,,,72,127
25213,note_on,2,0,0,,10,,,69,127
25284,note_off,71,0,0,,10,,,69,127
25284,note_off,0,0,0,,5,,,41,127
25286,note_on,2,0,0,,10,,,81,127
25286,note_on,0,0,0,,5,,,77,127
25503,note_off,217,0,0,,5,,,77,127
25503,note_off,0,0,0,,10,,,81,127
25505,note_on,2,0,0,,7,,,79,127
25505,note_on,0,0,0,,4,,,76,127
25722,note_off,217,0,0,,4,,,76,127
25722,note_off,0,0,0,,7,,,79,127
25724,note_on,2,0,0,,2,,,38,127
25724,note_on,0,0,0,,2,,,74,127
25795,note_off,71,0,0,,2,,,74,127
25797,note_on,2,0,0,,11,,,70,127
25868,note_off,71,0,0,,11,,,70,127
25870,note_on,2,0,0,,5,,,65,127
25941,note_off,71,0,0,,5,,,65,127
25941,note_off,0,0,0,,2,,,38,127
25943,note_on,2,0,0,,5,,,77,127
25943,note_on,0,0,0,,2,,,74,127
26160,note_off,217,0,0,,2,,,74,127
26160,note_off,0,0,0,,5,,,77,127
26162,note_on,2,0,0,,4,,,76,127
26162,note_on,0,0,0,,0,,,72,127
26379,note_off,217,0,0,,0,,,72,127
26379,note_off,0,0,0,,4,,,76,127
26381,note_on,2,0,0,,11,,,34,127
26381,note_on,0,0,0,,11,,,70,127
26452,note_off,71,0,0,,11,,,70,127
26454,note_on,2,0,0,,5,,,65,127
26525,note_off,71,0,0,,5,,,65,127
26527,note_on,2,0,0,,2,,,62,127
26598,note_off,71,0,0,,2,,,62,127
26598,note_off,0,0,0,,11,,,34,127
26600,note_on,2,0,0,,2,,,74,127
26600,note_on,0,0,0,,11,,,70,127
26817,note_off,217,0,0,,11,,,70,127
26817,note_off,0,0,0,,2,,,74,127
26819,note_on,2,0,0,,0,,,72,127
26819,note_on,0,0,0,,10,,,69,127
27036,note_off,217,0,0,,10,,,69,127
27036,note_off,0,0,0,,0,,,72,127
27038,note_on,2,0,0,,7,,,43,127
27038,note_on,0,0,0,,7,,,67,127
27109,note_off,71,0,0,,7,,,67,127
27111,note_on,2,0,0,,4,,,64,127
27182,note_off,71,0,0,,4,,,64,127
27184,note_on,2,0,0,,11,,,58,127
27255,note_off,71,0,0,,11,,,58,127
27255,note_off,0,0,0,,7,,,43,127
27257,note_on,2,0,0,,4,,,76,127
27257,note_on,0,0,0,,7,,,67,127
27257,note_on,0,0,0,,11,,,70,127
27474,note_off,217,0,0,,11,,,70,127
27474,note_off,0,0,0,,7,,,67,127
27474,note_off,0,0,0,,4,,,76,127
27476,note_on,2,0,0,,5,,,77,127
27476,note_on,0,0,0,,5,,,65,127
27476,note_on,0,0,0,,10,,,69,127
27693,note_off,217,0,0,,10,,,69,127
27693,note_off,0,0,0,,5,,,65,127
27693,note_off,0,0,0,,5,,,77,127
27695,note_on,2,0,0,,0,,,36,127
27695,note_on,0,0,0,,4,,,76,127
27695,note_on,0,0,0,,7,,,79,127
27912,note_off,217,0,0,,7,,,79,127
27912,note_off,0,0,0,,4,,,76,127
27914,note_on,2,0,0,,10,,,81,127
27914,note_on,0,0,0,,5,,,77,127
28131,note_off,217,0,0,,5,,,77,127
28131,note_off,0,0,0,,10,,,81,127
28131,note_off,0,0,0,,0,,,36,127
28133,note_on,2,0,0,,0,,,48,127
28133,note_on,0,0,0,,11,,,82,127
28133,note_on,0,0,0,,7,,,79,127
28350,note_off,217,0,0,,7,,,79,127
28350,note_off,0,0,0,,11,,,82,127
28350,note_off,0,0,0,,0,,,48,127
28352,note_on,2,0,0,,5,,,53,127
28352,note_on,0,0,0,,10,,,81,127
28352,note_on,0,0,0,,5,,,77,127
28423,note_off,71,0,0,,5,,,77,127
28423,note_off,0,0,0,,10,,,81,127
28425,note_on,2,0,0,,7,,,79,127
28496,note_off,71,0,0,,7,,,79,127
28498,note_on,2,0,0,,5,,,77,127
28569,note_off,71,0,0,,5,,,77,127
28569,note_off,0,0,0,,5,,,53,127
28571,note_on,2,0,0,,11,,,46,127
28571,note_on,0,0,0,,10,,,81,127
28571,note_on,0,0,0,,5,,,77,127
28788,note_off,217,0,0,,5,,,77,127
28788,note_off,0,0,0,,10,,,81,127
28788,note_off,0,0,0,,11,,,46,127
28790,note_on,2,0,0,,0,,,48,127
28790,note_on,0,0,0,,7,,,79,127
28790,note_on,0,0,0,,4,,,76,127
29007,note_off,217,0,0,,4,,,76,127
29007,note_off,0,0,0,,7,,,79,127
29007,note_off,0,0,0,,0,,,48,127
29009,note_on,2,0,0,,5,,,41,127
29009,note_on,0,0,0,,10,,,81,127
29080,note_off,71,0,0,,10,,,81,127
29082,note_on,2,0,0,,12,,,83,127
29153,note_off,71,0,0,,12,,,83,127
29155,note_on,2,0,0,,0,,,84,127
29226,note_off,71,0,0,,0,,,84,127
29228,note_on,2,0,0,,0,,,84,127
29445,note_off,217,0,0,,0,,,84,127
29445,note_off,0,0,0,,5,,,41,127
29447,note_on,2,0,0,,10,,,57,127
29447,note_on,0,0,0,,1,,,85,127
29664,note_off,217,0,0,,1,,,85,127
29664,note_off,0,0,0,,10,,,57,127
29666,note_on,2,0,0,,11,,,58,127
29666,note_on,0,0,0,,2,,,86,127
29737,note_off,71,0,0,,2,,,86,127
29739,note_on,2,0,0,,0,,,84,127
29810,note_off,71,0,0,,0,,,84,127
29812,note_on,2,0,0,,11,,,82,127
29883,note_off,71,0,0,,11,,,82,127
29883,note_off,0,0,0,,11,,,58,127
29885,note_on,2,0,0,,0,,,60,127
29885,note_on,0,0,0,,10,,,81,127
29885,note_on,0,0,0,,5,,,77,127
30102,note_off,217,0,0,,5,,,77,127
30102,note_off,0,0,0,,10,,,81,127
30104,note_on,2,0,0,,0,,,48,127
30104,note_on,0,0,0,,4,,,76,127
30104,note_on,0,0,0,,7,,,79,127
30321,note_off,217,0,0,,7,,,79,127
30321,note_off,0,0,0,,4,,,76,127
30321,note_off,0,0,0,,0,,,48,127
30322,note_off,1,0,0,,0,,,60,127
30323,note_on,1,0,0,,5,,,53,127
30323,note_on,0,0,0,,10,,,69,127
30394,note_off,71,0,0,,10,,,69,127
30396,note_on,2,0,0,,12,,,71,127
30467,note_off,71,0,0,,12,,,71,127
30469,note_on,2,0,0,,0,,,72,127
30540,note_off,71,0,0,,0,,,72,127
30542,note_on,2,0,0,,0,,,72,127
30759,note_off,217,0,0,,0,,,72,127
30759,note_off,0,0,0,,5,,,53,127
30761,note_on,2,0,0,,10,,,57,127
30761,note_on,0,0,0,,1,,,73,127
30978,note_off,217,0,0,,1,,,73,127
30978,note_off,0,0,0,,10,,,57,127
30980,note_on,2,0,0,,11,,,58,127
30980,note_on,0,0,0,,2,,,74,127
31051,note_off,71,0,0,,2,,,74,127
31053,note_on,2,0,0,,0,,,72,127
31124,note_off,71,0,0,,0,,,72,127
31126,note_on,2,0,0,,11,,,70,127
31197,note_off,71,0,0,,11,,,70,127
31197,note_off,0,0,0,,11,,,58,127
31199,note_on,2,0,0,,0,,,60,127
31199,note_on,0,0,0,,10,,,69,127
31199,note_on,0,0,0,,5,,,65,127
31416,note_off,217,0,0,,5,,,65,127
31416,note_off,0,0,0,,10,,,69,127
31418,note_on,2,0,0,,0,,,48,127
31418,note_on,0,0,0,,7,,,67,127
31418,note_on,0,0,0,,4,,,64,127
31635,note_off,217,0,0,,4,,,64,127
31635,note_off,0,0,0,,7,,,67,127
31635,note_off,0,0,0,,0,,,48,127
31636,note_off,1,0,0,,0,,,60,127
31637,note_on,1,0,0,,5,,,53,127
31637,note_on,0,0,0,,10,,,57,127
31708,note_off,71,0,0,,10,,,57,127
31710,note_on,2,0,0,,12,,,59,127
31781,note_off,71,0,0,,12,,,59,127
31783,note_on,2,0,0,,0,,,60,127
31854,note_off,71,0,0,,0,,,60,127
31856,note_on,2,0,0,,5,,,41,127
31856,note_on,0,0,0,,0,,,60,127
32073,note_off,217,0,0,,0,,,60,127
32073,note_off,0,0,0,,5,,,41,127
32074,note_off,1,0,0,,5,,,53,127
32075,note_on,1,0,0,,10,,,45,127
32075,note_on,0,0,0,,1,,,61,127
32292,note_off,217,0,0,,1,,,61,127
32292,note_off,0,0,0,,10,,,45,127
32294,note_on,2,0,0,,11,,,46,127
32294,note_on,0,0,0,,2,,,62,127
32365,note_off,71,0,0,,2,,,62,127
32367,note_on,2,0,0,,0,,,60,127
32438,note_off,71,0,0,,0,,,60,127
32440,note_on,2,0,0,,11,,,58,127
32511,note_off,71,0,0,,11,,,58,127
32511,note_off,0,0,0,,11,,,46,127
32513,note_on,2,0,0,,0,,,48,127
32513,note_on,0,0,0,,10,,,57,127
32513,note_on,0,0,0,,5,,,53,127
32730,note_off,217,0,0,,5,,,53,127
32730,note_off,0,0,0,,10,,,57,127
32732,note_on,2,0,0,,0,,,36,127
32732,note_on,0,0,0,,4,,,52,127
32732,note_on,0,0,0,,7,,,55,127
32949,note_off,217,0,0,,7,,,55,127
32949,note_off,0,0,0,,4,,,52,127
32949,note_off,0,0,0,,0,,,36,127
32950,note_off,1,0,0,,0,,,48,127
32951,note_on,1,0,0,,5,,,41,127
32951,note_on,0,0,0,,5,,,53,127
33022,note_off,71,0,0,,5,,,41,127
33024,note_on,2,0,0,,7,,,43,127
33095,note_off,71,0,0,,7,,,43,127
33097,note_on,2,0,0,,10,,,45,127
33166,note_off,69,0,0,,10,,,45,127
33171,note_on,5,0,0,,10,,,45,127
33242,note_off,71,0,0,,10,,,45,127
33244,note_on,2,0,0,,11,,,46,127
33315,note_off,71,0,0,,11,,,46,127
33317,note_on,2,0,0,,0,,,48,127
33386,note_off,69,0,0,,0,,,48,127
33391,note_on,5,0,0,,0,,,48,127
33462,note_off,71,0,0,,0,,,48,127
33464,note_on,2,0,0,,2,,,50,127
33535,note_off,71,0,0,,2,,,50,127
33537,note_on,2,0,0,,4,,,52,127
33608,note_off,71,0,0,,4,,,52,127
33608,note_off,0,0,0,,5,,,53,127
33610,note_on,2,0,0,,5,,,53,127
33610,note_on,0,0,0,,5,,,65,127
33681,note_off,71,0,0,,5,,,65,127
33683,note_on,2,0,0,,7,,,67,127
33754,note_off,71,0,0,,7,,,67,127
33756,note_on,2,0,0,,10,,,69,127
33825,note_off,69,0,0,,10,,,69,127
33830,note_on,5,0,0,,10,,,69,127
33901,note_off,71,0,0,,10,,,69,127
33903,note_on,2,0,0,,11,,,70,127
33974,note_off,71,0,0,,11,,,70,127
33976,note_on,2,0,0,,0,,,72,127
34045,note_off,69,0,0,,0,,,72,127
34050,note_on,5,0,0,,0,,,72,127
34121,note_off,71,0,0,,0,,,72,127
34123,note_on,2,0,0,,2,,,74,127
34194,note_off,71,0,0,,2,,,74,127
34196,note_on,2,0,0,,3,,,75,127
34267,note_off,71,0,0,,3,,,75,127
34267,note_off,0,0,0,,5,,,53,127
34269,note_on,2,0,0,,5,,,53,127
34269,note_on,0,0,0,,3,,,75,127
34340,note_off,71,0,0,,5,,,53,127
34342,note_on,2,0,0,,7,,,55,127
34413,note_off,71,0,0,,7,,,55,127
34415,note_on,2,0,0,,10,,,57,127
34484,note_off,69,0,0,,10,,,57,127
34489,note_on,5,0,0,,10,,,57,127
34560,note_off,71,0,0,,10,,,57,127
34562,note_on,2,0,0,,11,,,58,127
34633,note_off,71,0,0,,11,,,58,127
34635,note_on,2,0,0,,0,,,60,127
34704,note_off,69,0,0,,0,,,60,127
34709,note_on,5,0,0,,0,,,60,127
34780,note_off,71,0,0,,0,,,60,127
34782,note_on,2,0,0,,2,,,62,127
34853,note_off,71,0,0,,2,,,62,127
34855,note_on,2,0,0,,3,,,63,127
34926,note_off,71,0,0,,3,,,63,127
34928,note_on,2,0,0,,3,,,63,127
34999,note_off,71,0,0,,3,,,75,127
35001,note_on,2,0,0,,2,,,74,127
35072,note_off,71,0,0,,2,,,74,127
35074,note_on,2,0,0,,0,,,72,127
35143,note_off,69,0,0,,0,,,72,127
35145,note_off,2,0,0,,3,,,63,127
35147,note_on,2,0,0,,2,,,62,127
35147,note_on,0,0,0,,0,,,72,127
35218,note_off,71,0,0,,0,,,72,127
35220,note_on,2,0,0,,11,,,70,127
35291,note_off,71,0,0,,11,,,70,127
35293,note_on,2,0,0,,10,,,69,127
35362,note_off,69,0,0,,10,,,69,127
35364,note_off,2,0,0,,2,,,62,127
35366,note_on,2,0,0,,2,,,50,127
35366,note_on,0,0,0,,10,,,69,127
35437,note_off,71,0,0,,10,,,69,127
35439,note_on,2,0,0,,11,,,70,127
35510,note_off,71,0,0,,11,,,70,127
35512,note_on,2,0,0,,0,,,72,127
35583,note_off,71,0,0,,0,,,72,127
35583,note_off,0,0,0,,2,,,50,127
35585,note_on,2,0,0,,7,,,55,127
35585,note_on,0,0,0,,11,,,70,127
35802,note_off,217,0,0,,11,,,70,127
35802,note_off,0,0,0,,7,,,55,127
35804,note_on,2,0,0,,2,,,50,127
35804,note_on,0,0,0,,10,,,69,127
36021,note_off,217,0,0,,10,,,69,127
36021,note_off,0,0,0,,2,,,50,127
36023,note_on,2,0,0,,11,,,46,127
36023,note_on,0,0,0,,7,,,67,127
36240,note_off,217,0,0,,7,,,67,127
36240,note_off,0,0,0,,11,,,46,127
36242,note_on,2,0,0,,7,,,43,127
36242,note_on,0,0,0,,2,,,74,127
36313,note_off,71,0,0,,2,,,74,127
36315,note_on,2,0,0,,11,,,70,127
36386,note_off,71,0,0,,11,,,70,127
36388,note_on,2,0,0,,7,,,67,127
36459,note_off,71,0,0,,7,,,67,127
36461,note_on,2,0,0,,2,,,62,127
36678,note_off,217,0,0,,2,,,62,127
36678,note_off,0,0,0,,7,,,43,127
36680,note_on,2,0,0,,11,,,82,127
36680,note_on,0,0,0,,2,,,74,127
36897,note_off,217,0,0,,2,,,74,127
36897,note_off,0,0,0,,11,,,82,127
36899,note_on,2,0,0,,11,,,82,127
36899,note_on,0,0,0,,10,,,81,127
36899,note_on,0,0,0,,0,,,72,127
37116,note_off,217,0,0,,0,,,72,127
37116,note_off,0,0,0,,10,,,81,127
37116,note_off,0,0,0,,11,,,82,127
37118,note_on,2,0,0,,7,,,79,127
37118,note_on,0,0,0,,11,,,70,127
37335,note_off,217,0,0,,11,,,70,127
37335,note_off,0,0,0,,7,,,79,127
37337,note_on,2,0,0,,6,,,78,127
37337,note_on,0,0,0,,10,,,69,127
37554,note_off,217,0,0,,10,,,69,127
37554,note_off,0,0,0,,6,,,78,127
37556,note_on,2,0,0,,2,,,38,127
37556,note_on,0,0,0,,0,,,72,127
37627,note_off,71,0,0,,0,,,72,127
37629,note_on,2,0,0,,10,,,69,127
37700,note_off,71,0,0,,10,,,69,127
37702,note_on,2,0,0,,6,,,66,127
37773,note_off,71,0,0,,6,,,66,127
37775,note_on,2,0,0,,2,,,62,127
37992,note_off,217,0,0,,2,,,62,127
37992,note_off,0,0,0,,2,,,38,127
37994,note_on,2,0,0,,10,,,81,127
37994,note_on,0,0,0,,0,,,72,127
38211,note_off,217,0,0,,0,,,72,127
38211,note_off,0,0,0,,10,,,81,127
38213,note_on,2,0,0,,10,,,81,127
38213,note_on,0,0,0,,7,,,79,127
38213,note_on,0,0,0,,11,,,70,127
38430,note_off,217,0,0,,11,,,70,127
38430,note_off,0,0,0,,7,,,79,127
38430,note_off,0,0,0,,10,,,81,127
38432,note_on,2,0,0,,6,,,78,127
38432,note_on,0,0,0,,10,,,69,127
38649,note_off,217,0,0,,10,,,69,127
38649,note_off,0,0,0,,6,,,78,127
38651,note_on,2,0,0,,7,,,79,127
38651,note_on,0,0,0,,11,,,70,127
38868,note_off,217,0,0,,11,,,70,127
38868,note_off,0,0,0,,7,,,79,127
38870,note_on,2,0,0,,7,,,43,127
38870,note_on,0,0,0,,2,,,74,127
38941,note_off,71,0,0,,2,,,74,127
38943,note_on,2,0,0,,11,,,70,127
39014,note_off,71,0,0,,11,,,70,127
39016,note_on,2,0,0,,7,,,67,127
39087,note_off,71,0,0,,7,,,67,127
39089,note_on,2,0,0,,2,,,62,127
39306,note_off,217,0,0,,2,,,62,127
39306,note_off,0,0,0,,7,,,43,127
39308,note_on,2,0,0,,11,,,82,127
39308,note_on,0,0,0,,2,,,74,127
39525,note_off,217,0,0,,2,,,74,127
39525,note_off,0,0,0,,11,,,82,127
39527,note_on,2,0,0,,11,,,82,127
39527,note_on,0,0,0,,10,,,81,127
39527,note_on,0,0,0,,0,,,72,127
39744,note_off,217,0,0,,0,,,72,127
39744,note_off,0,0,0,,10,,,81,127
39744,note_off,0,0,0,,11,,,82,127
39746,note_on,2,0,0,,7,,,79,127
39746,note_on,0,0,0,,11,,,70,127
39963,note_off,217,0,0,,11,,,70,127
39963,note_off,0,0,0,,7,,,79,127
39965,note_on,2,0,0,,6,,,78,127
39965,note_on,0,0,0,,10,,,69,127
40182,note_off,217,0,0,,10,,,69,127
40182,note_off,0,0,0,,6,,,78,127
40184,note_on,2,0,0,,2,,,38,127
40184,note_on,0,0,0,,0,,,72,127
40255,note_off,71,0,0,,0,,,72,127
40257,note_on,2,0,0,,10,,,69,127
40328,note_off,71,0,0,,10,,,69,127
40330,note_on,2,0,0,,6,,,66,127
40401,note_off,71,0,0,,6,,,66,127
40403,note_on,2,0,0,,2,,,62,127
40620,note_off,217,0,0,,2,,,62,127
40620,note_off,0,0,0,,2,,,38,127
40622,note_on,2,0,0,,10,,,81,127
40622,note_on,0,0,0,,0,,,72,127
40839,note_off,217,0,0,,0,,,72,127
40839,note_off,0,0,0,,10,,,81,127
40841,note_on,2,0,0,,10,,,81,127
40841,note_on,0,0,0,,7,,,79,127
40841,note_on,0,0,0,,11,,,70,127
41058,note_off,217,0,0,,11,,,70,127
41058,note_off,0,0,0,,7,,,79,127
41058,note_off,0,0,0,,10,,,81,127
41060,note_on,2,0,0,,6,,,78,127
41060,note_on,0,0,0,,10,,,69,127
41277,note_off,217,0,0,,10,,,69,127
41277,note_off,0,0,0,,6,,,78,127
41279,note_on,2,0,0,,7,,,79,127
41279,note_on,0,0,0,,7,,,67,127
41496,note_off,217,0,0,,7,,,67,127
41496,note_off,0,0,0,,7,,,79,127
41498,note_on,2,0,0,,7,,,43,127
41498,note_on,0,0,0,,2,,,74,127
41569,note_off,71,0,0,,2,,,74,127
41571,note_on,2,0,0,,12,,,71,127
41642,note_off,71,0,0,,12,,,71,127
41644,note_on,2,0,0,,5,,,65,127
41715,note_off,71,0,0,,5,,,65,127
41717,note_on,2,0,0,,2,,,62,127
41934,note_off,217,0,0,,2,,,62,127
41934,note_off,0,0,0,,7,,,43,127
41936,note_on,2,0,0,,5,,,77,127
41936,note_on,0,0,0,,2,,,74,127
41936,note_on,0,0,0,,5,,,65,127
42153,note_off,217,0,0,,5,,,65,127
42153,note_off,0,0,0,,2,,,74,127
42153,note_off,0,0,0,,5,,,77,127
42155,note_on,2,0,0,,5,,,77,127
42155,note_on,0,0,0,,3,,,75,127
42155,note_on,0,0,0,,3,,,63,127
42155,note_on,0,0,0,,0,,,72,127
42372,note_off,217,0,0,,0,,,72,127
42372,note_off,0,0,0,,3,,,63,127
42372,note_off,0,0,0,,3,,,75,127
42372,note_off,0,0,0,,5,,,77,127
42374,note_on,2,0,0,,2,,,74,127
42374,note_on,0,0,0,,2,,,62,127
42374,note_on,0,0,0,,11,,,70,127
42591,note_off,217,0,0,,11,,,70,127
42591,note_off,0,0,0,,2,,,62,127
42591,note_off,0,0,0,,2,,,74,127
42593,note_on,2,0,0,,3,,,75,127
42593,note_on,0,0,0,,3,,,63,127
42593,note_on,0,0,0,,0,,,72,127
42810,note_off,217,0,0,,0,,,72,127
42810,note_off,0,0,0,,3,,,63,127
42810,note_off,0,0,0,,3,,,75,127
42812,note_on,2,0,0,,7,,,43,127
42812,note_on,0,0,0,,2,,,74,127
42883,note_off,71,0,0,,2,,,74,127
42885,note_on,2,0,0,,12,,,71,127
42956,note_off,71,0,0,,12,,,71,127
42958,note_on,2,0,0,,5,,,65,127
43029,note_off,71,0,0,,5,,,65,127
43031,note_on,2,0,0,,2,,,62,127
43248,note_off,217,0,0,,2,,,62,127
43248,note_off,0,0,0,,7,,,43,127
43250,note_on,2,0,0,,5,,,77,127
43250,note_on,0,0,0,,5,,,65,127
43250,note_on,0,0,0,,2,,,74,127
43467,note_off,217,0,0,,2,,,74,127
43467,note_off,0,0,0,,5,,,65,127
43467,note_off,0,0,0,,5,,,77,127
43469,note_on,2,0,0,,5,,,77,127
43469,note_on,0,0,0,,3,,,75,127
43469,note_on,0,0,0,,3,,,63,127
43469,note_on,0,0,0,,0,,,72,127
43686,note_off,217,0,0,,0,,,72,127
43686,note_off,0,0,0,,3,,,63,127
43686,note_off,0,0,0,,3,,,75,127
43686,note_off,0,0,0,,5,,,77,127
43688,note_on,2,0,0,,2,,,74,127
43688,note_on,0,0,0,,11,,,70,127
43688,note_on,0,0,0,,2,,,62,127
43905,note_off,217,0,0,,2,,,62,127
43905,note_off,0,0,0,,11,,,70,127
43905,note_off,0,0,0,,2,,,74,127
43907,note_on,2,0,0,,3,,,75,127
43907,note_on,0,0,0,,0,,,72,127
43907,note_on,0,0,0,,3,,,63,127
44124,note_off,217,0,0,,3,,,63,127
44124,note_off,0,0,0,,0,,,72,127
44124,note_off,0,0,0,,3,,,75,127
44126,note_on,2,0,0,,5,,,41,127
44126,note_on,0,0,0,,0,,,72,127
44197,note_off,71,0,0,,0,,,72,127
44199,note_on,2,0,0,,10,,,69,127
44270,note_off,71,0,0,,10,,,69,127
44272,note_on,2,0,0,,3,,,63,127
44343,note_off,71,0,0,,3,,,63,127
44345,note_on,2,0,0,,0,,,60,127
44562,note_off,217,0,0,,0,,,60,127
44562,note_off,0,0,0,,5,,,41,127
44564,note_on,2,0,0,,3,,,75,127
44564,note_on,0,0,0,,0,,,72,127
44564,note_on,0,0,0,,3,,,63,127
44781,note_off,217,0,0,,3,,,63,127
44781,note_off,0,0,0,,0,,,72,127
44781,note_off,0,0,0,,3,,,75,127
44783,note_on,2,0,0,,3,,,75,127
44783,note_on,0,0,0,,2,,,74,127
44783,note_on,0,0,0,,11,,,70,127
44783,note_on,0,0,0,,2,,,62,127
45000,note_off,217,0,0,,2,,,62,127
45000,note_off,0,0,0,,11,,,70,127
45000,note_off,0,0,0,,2,,,74,127
45000,note_off,0,0,0,,3,,,75,127
45002,note_on,2,0,0,,0,,,72,127
45002,note_on,0,0,0,,10,,,69,127
45002,note_on,0,0,0,,0,,,60,127
45219,note_off,217,0,0,,0,,,60,127
45219,note_off,0,0,0,,10,,,69,127
45219,note_off,0,0,0,,0,,,72,127
45221,note_on,2,0,0,,2,,,74,127
45221,note_on,0,0,0,,11,,,70,127
45221,note_on,0,0,0,,2,,,62,127
45438,note_off,217,0,0,,2,,,62,127
45438,note_off,0,0,0,,11,,,70,127
45438,note_off,0,0,0,,2,,,74,127
45440,note_on,2,0,0,,5,,,41,127
45440,note_on,0,0,0,,0,,,72,127
45511,note_off,71,0,0,,0,,,72,127
45513,note_on,2,0,0,,10,,,69,127
45584,note_off,71,0,0,,10,,,69,127
45586,note_on,2,0,0,,3,,,63,127
45657,note_off,71,0,0,,3,,,63,127
45659,note_on,2,0,0,,0,,,60,127
45876,note_off,217,0,0,,0,,,60,127
45876,note_off,0,0,0,,5,,,41,127
45878,note_on,2,0,0,,3,,,75,127
45878,note_on,0,0,0,,0,,,72,127
45878,note_on,0,0,0,,3,,,63,127
46095,note_off,217,0,0,,3,,,63,127
46095,note_off,0,0,0,,0,,,72,127
46095,note_off,0,0,0,,3,,,75,127
46097,note_on,2,0,0,,3,,,75,127
46097,note_on,0,0,0,,2,,,74,127
46097,note_on,0,0,0,,11,,,70,127
46097,note_on,0,0,0,,2,,,62,127
46314,note_off,217,0,0,,2,,,62,127
46314,note_off,0,0,0,,11,,,70,127
46314,note_off,0,0,0,,2,,,74,127
46314,note_off,0,0,0,,3,,,75,127
46316,note_on,2,0,0,,0,,,72,127
46316,note_on,0,0,0,,0,,,60,127
46316,note_on,0,0,0,,10,,,69,127
46533,note_off,217,0,0,,10,,,69,127
46533,note_off,0,0,0,,0,,,60,127
46533,note_off,0,0,0,,0,,,72,127
46535,note_on,2,0,0,,2,,,74,127
46535,note_on,0,0,0,,11,,,70,127
46535,note_on,0,0,0,,2,,,62,127
46752,note_off,217,0,0,,2,,,62,127
46752,note_off,0,0,0,,11,,,70,127
46752,note_off,0,0,0,,2,,,74,127
46754,note_on,2,0,0,,11,,,46,127
46754,note_on,0,0,0,,2,,,74,127
46825,note_off,71,0,0,,2,,,74,127
46827,note_on,2,0,0,,11,,,70,127
46898,note_off,71,0,0,,11,,,70,127
46900,note_on,2,0,0,,7,,,67,127
46971,note_off,71,0,0,,7,,,67,127
46973,note_on,2,0,0,,2,,,62,127
47190,note_off,217,0,0,,2,,,62,127
47190,note_off,0,0,0,,11,,,46,127
47192,note_on,2,0,0,,7,,,79,127
47192,note_on,0,0,0,,2,,,74,127
47192,note_on,0,0,0,,7,,,67,127
47409,note_off,217,0,0,,7,,,67,127
47409,note_off,0,0,0,,2,,,74,127
47409,note_off,0,0,0,,7,,,79,127
47411,note_on,2,0,0,,10,,,45,127
47411,note_on,0,0,0,,1,,,73,127
47411,note_on,0,0,0,,7,,,67,127
47628,note_off,217,0,0,,7,,,67,127
47628,note_off,0,0,0,,1,,,73,127
47630,note_on,2,0,0,,2,,,74,127
47630,note_on,0,0,0,,11,,,70,127
47847,note_off,217,0,0,,11,,,70,127
47847,note_off,0,0,0,,2,,,74,127
47847,note_off,0,0,0,,10,,,45,127
47849,note_on,2,0,0,,10,,,81,127
47849,note_on,0,0,0,,1,,,73,127
47849,note_on,0,0,0,,10,,,69,127
48066,note_off,217,0,0,,10,,,69,127
48066,note_off,0,0,0,,1,,,73,127
48066,note_off,0,0,0,,10,,,81,127
48068,note_on,2,0,0,,11,,,46,127
48068,note_on,0,0,0,,2,,,74,127
48139,note_off,71,0,0,,2,,,74,127
48141,note_on,2,0,0,,11,,,70,127
48212,note_off,71,0,0,,11,,,70,127
48214,note_on,2,0,0,,7,,,67,127
48285,note_off,71,0,0,,7,,,67,127
48287,note_on,2,0,0,,2,,,62,127
48504,note_off,217,0,0,,2,,,62,127
48504,note_off,0,0,0,,11,,,46,127
48506,note_on,2,0,0,,7,,,79,127
48506,note_on,0,0,0,,2,,,74,127
48506,note_on,0,0,0,,7,,,67,127
48723,note_off,217,0,0,,7,,,67,127
48723,note_off,0,0,0,,2,,,74,127
48723,note_off,0,0,0,,7,,,79,127
48725,note_on,2,0,0,,10,,,45,127
48725,note_on,0,0,0,,1,,,73,127
48725,note_on,0,0,0,,7,,,67,127
48942,note_off,217,0,0,,7,,,67,127
48942,note_off,0,0,0,,1,,,73,127
48944,note_on,2,0,0,,2,,,74,127
48944,note_on,0,0,0,,11,,,70,127
49161,note_off,217,0,0,,11,,,70,127
49161,note_off,0,0,0,,2,,,74,127
49161,note_off,0,0,0,,10,,,45,127
49163,note_on,2,0,0,,10,,,81,127
49163,note_on,0,0,0,,10,,,69,127
49163,note_on,0,0,0,,1,,,73,127
49380,note_off,217,0,0,,1,,,73,127
49380,note_off,0,0,0,,10,,,69,127
49380,note_off,0,0,0,,10,,,81,127
49382,note_on,2,0,0,,11,,,46,127
49382,note_on,0,0,0,,2,,,74,127
49382,note_on,0,0,0,,7,,,67,127
49599,note_off,217,0,0,,7,,,67,127
49599,note_off,0,0,0,,2,,,74,127
49601,note_on,2,0,0,,1,,,73,127
49601,note_on,0,0,0,,10,,,69,127
49818,note_off,217,0,0,,10,,,69,127
49818,note_off,0,0,0,,1,,,73,127
49818,note_off,0,0,0,,11,,,46,127
49820,note_on,2,0,0,,7,,,79,127
49820,note_on,0,0,0,,2,,,74,127
49820,note_on,0,0,0,,11,,,70,127
50037,note_off,217,0,0,,11,,,70,127
50037,note_off,0,0,0,,2,,,74,127
50037,note_off,0,0,0,,7,,,79,127
50039,note_on,2,0,0,,10,,,45,127
50039,note_on,0,0,0,,1,,,73,127
50039,note_on,0,0,0,,10,,,69,127
50039,note_on,0,0,0,,4,,,76,127
50256,note_off,217,0,0,,4,,,76,127
50256,note_off,0,0,0,,1,,,73,127
50256,note_off,0,0,0,,10,,,45,127
50258,note_on,2,0,0,,10,,,45,127
50258,note_on,0,0,0,,5,,,77,127
50258,note_on,0,0,0,,2,,,74,127
50475,note_off,217,0,0,,2,,,74,127
50475,note_off,0,0,0,,5,,,77,127
50475,note_off,0,0,0,,10,,,45,127
50477,note_on,2,0,0,,10,,,45,127
50477,note_on,0,0,0,,7,,,79,127
50477,note_on,0,0,0,,4,,,76,127
50694,note_off,217,0,0,,4,,,76,127
50694,note_off,0,0,0,,7,,,79,127
50694,note_off,0,0,0,,10,,,45,127
50695,note_off,1,0,0,,10,,,69,127
50696,note_on,1,0,0,,2,,,38,127
50696,note_on,0,0,0,,2,,,74,127
50696,note_on,0,0,0,,10,,,69,127
50696,note_on,0,0,0,,5,,,77,127
50913,note_off,217,0,0,,5,,,77,127
50913,note_off,0,0,0,,2,,,74,127
50915,note_on,2,0,0,,4,,,76,127
51132,note_off,217,0,0,,4,,,76,127
51134,note_on,2,0,0,,2,,,74,127
51351,note_off,217,0,0,,2,,,74,127
51351,note_off,0,0,0,,2,,,38,127
51352,note_off,1,0,0,,10,,,69,127
51353,note_on,1,0,0,,2,,,38,127
51353,note_on,0,0,0,,10,,,81,127
51424,note_off,71,0,0,,10,,,81,127
51426,note_on,2,0,0,,6,,,78,127
51497,note_off,71,0,0,,6,,,78,127
51499,note_on,2,0,0,,2,,,74,127
51570,note_off,71,0,0,,2,,,74,127
51572,note_on,2,0,0,,10,,,69,127
51789,note_off,217,0,0,,10,,,69,127
51789,note_off,0,0,0,,2,,,38,127
51791,note_on,2,0,0,,0,,,84,127
51791,note_on,0,0,0,,10,,,81,127
51791,note_on,0,0,0,,0,,,72,127
52008,note_off,217,0,0,,0,,,72,127
52008,note_off,0,0,0,,10,,,81,127
52008,note_off,0,0,0,,0,,,84,127
52010,note_on,2,0,0,,11,,,82,127
52010,note_on,0,0,0,,0,,,84,127
52010,note_on,0,0,0,,7,,,79,127
52010,note_on,0,0,0,,11,,,70,127
52227,note_off,217,0,0,,11,,,70,127
52227,note_off,0,0,0,,7,,,79,127
52227,note_off,0,0,0,,0,,,84,127
52227,note_off,0,0,0,,11,,,82,127
52229,note_on,2,0,0,,10,,,81,127
52229,note_on,0,0,0,,10,,,69,127
52229,note_on,0,0,0,,6,,,78,127
52446,note_off,217,0,0,,6,,,78,127
52446,note_off,0,0,0,,10,,,69,127
52446,note_off,0,0,0,,10,,,81,127
52448,note_on,2,0,0,,11,,,82,127
52448,note_on,0,0,0,,7,,,79,127
52448,note_on,0,0,0,,11,,,70,127
52665,note_off,217,0,0,,11,,,70,127
52665,note_off,0,0,0,,7,,,79,127
52665,note_off,0,0,0,,11,,,82,127
52667,note_on,2,0,0,,2,,,38,127
52667,note_on,0,0,0,,10,,,81,127
52738,note_off,71,0,0,,10,,,81,127
52740,note_on,2,0,0,,6,,,78,127
52811,note_off,71,0,0,,6,,,78,127
52813,note_on,2,0,0,,0,,,72,127
52884,note_off,71,0,0,,0,,,72,127
52886,note_on,2,0,0,,10,,,69,127
53103,note_off,217,0,0,,10,,,69,127
53103,note_off,0,0,0,,2,,,38,127
53105,note_on,2,0,0,,0,,,84,127
53105,note_on,0,0,0,,10,,,81,127
53105,note_on,0,0,0,,0,,,72,127
53322,note_off,217,0,0,,0,,,72,127
53322,note_off,0,0,0,,10,,,81,127
53322,note_off,0,0,0,,0,,,84,127
53324,note_on,2,0,0,,0,,,84,127
53324,note_on,0,0,0,,11,,,82,127
53324,note_on,0,0,0,,7,,,79,127
53324,note_on,0,0,0,,11,,,70,127
53541,note_off,217,0,0,,11,,,70,127
53541,note_off,0,0,0,,7,,,79,127
53541,note_off,0,0,0,,11,,,82,127
53541,note_off,0,0,0,,0,,,84,127
53543,note_on,2,0,0,,10,,,81,127
53543,note_on,0,0,0,,10,,,69,127
53543,note_on,0,0,0,,6,,,78,127
53760,note_off,217,0,0,,6,,,78,127
53760,note_off,0,0,0,,10,,,69,127
53760,note_off,0,0,0,,10,,,81,127
53762,note_on,2,0,0,,11,,,82,127
53762,note_on,0,0,0,,7,,,79,127
53762,note_on,0,0,0,,11,,,70,127
53979,note_off,217,0,0,,11,,,70,127
53979,note_off,0,0,0,,7,,,79,127
53979,note_off,0,0,0,,11,,,82,127
53981,note_on,2,0,0,,0,,,36,127
53981,note_on,0,0,0,,7,,,79,127
54052,note_off,71,0,0,,7,,,79,127
54054,note_on,2,0,0,,4,,,76,127
54125,note_off,71,0,0,,4,,,76,127
54127,note_on,2,0,0,,11,,,70,127
54198,note_off,71,0,0,,11,,,70,127
54200,note_on,2,0,0,,7,,,67,127
54417,note_off,217,0,0,,7,,,67,127
54417,note_off,0,0,0,,0,,,36,127
54419,note_on,2,0,0,,11,,,82,127
54419,note_on,0,0,0,,7,,,79,127
54419,note_on,0,0,0,,11,,,70,127
54636,note_off,217,0,0,,11,,,70,127
54636,note_off,0,0,0,,7,,,79,127
54636,note_off,0,0,0,,11,,,82,127
54638,note_on,2,0,0,,11,,,82,127
54638,note_on,0,0,0,,10,,,81,127
54638,note_on,0,0,0,,5,,,77,127
54638,note_on,0,0,0,,10,,,69,127
54855,note_off,217,0,0,,10,,,69,127
54855,note_off,0,0,0,,5,,,77,127
54855,note_off,0,0,0,,10,,,81,127
54855,note_off,0,0,0,,11,,,82,127
54857,note_on,2,0,0,,7,,,79,127
54857,note_on,0,0,0,,7,,,67,127
54857,note_on,0,0,0,,4,,,76,127
55074,note_off,217,0,0,,4,,,76,127
55074,note_off,0,0,0,,7,,,67,127
55074,note_off,0,0,0,,7,,,79,127
55076,note_on,2,0,0,,10,,,81,127
55076,note_on,0,0,0,,5,,,77,127
55076,note_on,0,0,0,,10,,,69,127
55293,note_off,217,0,0,,10,,,69,127
55293,note_off,0,0,0,,5,,,77,127
55293,note_off,0,0,0,,10,,,81,127
55295,note_on,2,0,0,,0,,,36,127
55295,note_on,0,0,0,,7,,,79,127
55366,note_off,71,0,0,,7,,,79,127
55368,note_on,2,0,0,,4,,,76,127
55439,note_off,71,0,0,,4,,,76,127
55441,note_on,2,0,0,,11,,,70,127
55512,note_off,71,0,0,,11,,,70,127
55514,note_on,2,0,0,,7,,,67,127
55731,note_off,217,0,0,,7,,,67,127
55731,note_off,0,0,0,,0,,,36,127
55733,note_on,2,0,0,,11,,,82,127
55733,note_on,0,0,0,,7,,,79,127
55733,note_on,0,0,0,,11,,,70,127
55950,note_off,217,0,0,,11,,,70,127
55950,note_off,0,0,0,,7,,,79,127
55950,note_off,0,0,0,,11,,,82,127
55952,note_on,2,0,0,,11,,,82,127
55952,note_on,0,0,0,,10,,,81,127
55952,note_on,0,0,0,,5,,,77,127
55952,note_on,0,0,0,,10,,,69,127
56169,note_off,217,0,0,,10,,,69,127
56169,note_off,0,0,0,,5,,,77,127
56169,note_off,0,0,0,,10,,,81,127
56169,note_off,0,0,0,,11,,,82,127
56171,note_on,2,0,0,,7,,,79,127
56171,note_on,0,0,0,,7,,,67,127
56171,note_on,0,0,0,,4,,,76,127
56388,note_off,217,0,0,,4,,,76,127
56388,note_off,0,0,0,,7,,,67,127
56388,note_off,0,0,0,,7,,,79,127
56390,note_on,2,0,0,,10,,,81,127
56390,note_on,0,0,0,,5,,,77,127
56390,note_on,0,0,0,,10,,,69,127
56607,note_off,217,0,0,,10,,,69,127
56607,note_off,0,0,0,,5,,,77,127
56607,note_off,0,0,0,,10,,,81,127
56609,note_on,2,0,0,,5,,,41,127
56609,note_on,0,0,0,,5,,,77,127
56680,note_off,71,0,0,,5,,,77,127
56682,note_on,2,0,0,,0,,,72,127
56753,note_off,71,0,0,,0,,,72,127
56755,note_on,2,0,0,,10,,,69,127
56826,note_off,71,0,0,,10,,,69,127
56828,note_on,2,0,0,,5,,,65,127
57045,note_off,217,0,0,,5,,,65,127
57045,note_off,0,0,0,,5,,,41,127
57047,note_on,2,0,0,,10,,,81,127
57047,note_on,0,0,0,,3,,,75,127
57264,note_off,217,0,0,,3,,,75,127
57264,note_off,0,0,0,,10,,,81,127
57266,note_on,2,0,0,,11,,,82,127
57266,note_on,0,0,0,,0,,,84,127
57266,note_on,0,0,0,,2,,,74,127
57483,note_off,217,0,0,,2,,,74,127
57483,note_off,0,0,0,,0,,,84,127
57483,note_off,0,0,0,,11,,,82,127
57485,note_on,2,0,0,,10,,,81,127
57485,note_on,0,0,0,,0,,,72,127
57702,note_off,217,0,0,,0,,,72,127
57702,note_off,0,0,0,,10,,,81,127
57704,note_on,2,0,0,,11,,,82,127
57704,note_on,0,0,0,,2,,,74,127
57921,note_off,217,0,0,,2,,,74,127
57921,note_off,0,0,0,,11,,,82,127
57923,note_on,2,0,0,,5,,,41,127
57923,note_on,0,0,0,,5,,,77,127
57994,note_off,71,0,0,,5,,,77,127
57996,note_on,2,0,0,,0,,,72,127
58067,note_off,71,0,0,,0,,,72,127
58069,note_on,2,0,0,,10,,,69,127
58140,note_off,71,0,0,,10,,,69,127
58142,note_on,2,0,0,,5,,,65,127
58359,note_off,217,0,0,,5,,,65,127
58359,note_off,0,0,0,,5,,,41,127
58361,note_on,2,0,0,,10,,,81,127
58361,note_on,0,0,0,,3,,,75,127
58578,note_off,217,0,0,,3,,,75,127
58578,note_off,0,0,0,,10,,,81,127
58580,note_on,2,0,0,,11,,,82,127
58580,note_on,0,0,0,,0,,,84,127
58580,note_on,0,0,0,,2,,,74,127
58797,note_off,217,0,0,,2,,,74,127
58797,note_off,0,0,0,,0,,,84,127
58797,note_off,0,0,0,,11,,,82,127
58799,note_on,2,0,0,,10,,,81,127
58799,note_on,0,0,0,,0,,,72,127
59016,note_off,217,0,0,,0,,,72,127
59016,note_off,0,0,0,,10,,,81,127
59018,note_on,2,0,0,,11,,,82,127
59018,note_on,0,0,0,,2,,,74,127
59235,note_off,217,0,0,,2,,,74,127
59235,note_off,0,0,0,,11,,,82,127
59237,note_on,2,0,0,,5,,,41,127
59237,note_on,0,0,0,,5,,,77,127
59308,note_off,71,0,0,,5,,,77,127
59310,note_on,2,0,0,,0,,,72,127
59381,note_off,71,0,0,,0,,,72,127
59383,note_on,2,0,0,,10,,,69,127
59454,note_off,71,0,0,,10,,,69,127
59454,note_off,0,0,0,,5,,,41,127
59456,note_on,2,0,0,,10,,,45,127
59456,note_on,0,0,0,,5,,,65,127
59673,note_off,217,0,0,,5,,,65,127
59673,note_off,0,0,0,,10,,,45,127
59675,note_on,2,0,0,,5,,,41,127
59675,note_on,0,0,0,,3,,,75,127
59892,note_off,217,0,0,,3,,,75,127
59892,note_off,0,0,0,,5,,,41,127
59894,note_on,2,0,0,,11,,,46,127
59894,note_on,0,0,0,,2,,,74,127
59965,note_off,71,0,0,,2,,,74,127
59967,note_on,2,0,0,,11,,,70,127
60038,note_off,71,0,0,,11,,,70,127
60040,note_on,2,0,0,,5,,,65,127
60111,note_off,71,0,0,,5,,,65,127
60111,note_off,0,0,0,,11,,,46,127
60113,note_on,2,0,0,,11,,,82,127
60113,note_on,0,0,0,,2,,,74,127
60330,note_off,217,0,0,,2,,,74,127
60330,note_off,0,0,0,,11,,,82,127
60332,note_on,2,0,0,,10,,,81,127
60332,note_on,0,0,0,,0,,,72,127
60549,note_off,217,0,0,,0,,,72,127
60549,note_off,0,0,0,,10,,,81,127
60551,note_on,2,0,0,,7,,,43,127
60551,note_on,0,0,0,,11,,,70,127
60622,note_off,71,0,0,,11,,,70,127
60624,note_on,2,0,0,,7,,,67,127
60695,note_off,71,0,0,,7,,,67,127
60697,note_on,2,0,0,,2,,,62,127
60768,note_off,71,0,0,,2,,,62,127
60768,note_off,0,0,0,,7,,,43,127
60770,note_on,2,0,0,,7,,,79,127
60770,note_on,0,0,0,,11,,,70,127
60987,note_off,217,0,0,,11,,,70,127
60987,note_off,0,0,0,,7,,,79,127
60989,note_on,2,0,0,,5,,,77,127
60989,note_on,0,0,0,,10,,,69,127
61206,note_off,217,0,0,,10,,,69,127
61206,note_off,0,0,0,,5,,,77,127
61208,note_on,2,0,0,,3,,,39,127
61208,note_on,0,0,0,,7,,,67,127
61279,note_off,71,0,0,,7,,,67,127
61281,note_on,2,0,0,,3,,,63,127
61352,note_off,71,0,0,,3,,,63,127
61354,note_on,2,0,0,,11,,,58,127
61425,note_off,71,0,0,,11,,,58,127
61425,note_off,0,0,0,,3,,,39,127
61427,note_on,2,0,0,,3,,,75,127
61427,note_on,0,0,0,,7,,,67,127
61644,note_off,217,0,0,,7,,,67,127
61644,note_off,0,0,0,,3,,,75,127
61646,note_on,2,0,0,,2,,,74,127
61646,note_on,0,0,0,,5,,,65,127
61863,note_off,217,0,0,,5,,,65,127
61863,note_off,0,0,0,,2,,,74,127
61865,note_on,2,0,0,,0,,,36,127
61865,note_on,0,0,0,,3,,,63,127
61936,note_off,71,0,0,,3,,,63,127
61938,note_on,2,0,0,,2,,,62,127
62009,note_off,71,0,0,,2,,,62,127
62011,note_on,2,0,0,,0,,,60,127
62082,note_off,71,0,0,,0,,,60,127
62082,note_off,0,0,0,,0,,,36,127
62084,note_on,2,0,0,,10,,,81,127
62084,note_on,0,0,0,,0,,,60,127
62084,note_on,0,0,0,,3,,,63,127
62084,note_on,0,0,0,,10,,,69,127
62301,note_off,217,0,0,,10,,,69,127
62301,note_off,0,0,0,,3,,,63,127
62301,note_off,0,0,0,,0,,,60,127
62301,note_off,0,0,0,,10,,,81,127
62303,note_on,2,0,0,,11,,,82,127
62303,note_on,0,0,0,,11,,,70,127
62303,note_on,0,0,0,,5,,,65,127
62303,note_on,0,0,0,,2,,,62,127
62520,note_off,217,0,0,,2,,,62,127
62520,note_off,0,0,0,,5,,,65,127
62520,note_off,0,0,0,,11,,,70,127
62520,note_off,0,0,0,,11,,,82,127
62522,note_on,2,0,0,,5,,,41,127
62522,note_on,0,0,0,,10,,,69,127
62522,note_on,0,0,0,,5,,,65,127
62522,note_on,0,0,0,,0,,,72,127
62739,note_off,217,0,0,,0,,,72,127
62741,note_on,2,0,0,,2,,,74,127
62958,note_off,217,0,0,,2,,,74,127
62958,note_off,0,0,0,,5,,,41,127
62959,note_off,1,0,0,,5,,,65,127
62959,note_off,0,0,0,,10,,,69,127
62960,note_on,1,0,0,,5,,,53,127
62960,note_on,0,0,0,,3,,,75,127
62960,note_on,0,0,0,,10,,,69,127
63177,note_off,217,0,0,,10,,,69,127
63177,note_off,0,0,0,,3,,,75,127
63177,note_off,0,0,0,,5,,,53,127
63179,note_on,2,0,0,,11,,,58,127
63179,note_on,0,0,0,,2,,,74,127
63179,note_on,0,0,0,,11,,,70,127
63250,note_off,71,0,0,,11,,,70,127
63250,note_off,0,0,0,,2,,,74,127
63252,note_on,2,0,0,,0,,,72,127
63323,note_off,71,0,0,,0,,,72,127
63325,note_on,2,0,0,,11,,,70,127
63396,note_off,71,0,0,,11,,,70,127
63396,note_off,0,0,0,,11,,,58,127
63398,note_on,2,0,0,,3,,,51,127
63398,note_on,0,0,0,,2,,,74,127
63615,note_off,217,0,0,,2,,,74,127
63615,note_off,0,0,0,,3,,,51,127
63617,note_on,2,0,0,,5,,,53,127
63617,note_on,0,0,0,,0,,,72,127
63617,note_on,0,0,0,,10,,,69,127
63834,note_off,217,0,0,,10,,,69,127
63834,note_off,0,0,0,,0,,,72,127
63834,note_off,0,0,0,,5,,,53,127
63836,note_on,2,0,0,,11,,,46,127
63836,note_on,0,0,0,,2,,,74,127
63907,note_off,71,0,0,,2,,,74,127
63909,note_on,2,0,0,,11,,,70,127
63980,note_off,71,0,0,,11,,,70,127
63982,note_on,2,0,0,,5,,,65,127
64053,note_off,71,0,0,,5,,,65,127
64053,note_off,0,0,0,,11,,,46,127
64055,note_on,2,0,0,,11,,,82,127
64055,note_on,0,0,0,,2,,,74,127
64272,note_off,217,0,0,,2,,,74,127
64272,note_off,0,0,0,,11,,,82,127
64274,note_on,2,0,0,,10,,,81,127
64274,note_on,0,0,0,,0,,,72,127
64491,note_off,217,0,0,,0,,,72,127
64491,note_off,0,0,0,,10,,,81,127
64493,note_on,2,0,0,,7,,,43,127
64493,note_on,0,0,0,,11,,,70,127
64564,note_off,71,0,0,,11,,,70,127
64566,note_on,2,0,0,,7,,,67,127
64637,note_off,71,0,0,,7,,,67,127
64639,note_on,2,0,0,,2,,,62,127
64710,note_off,71,0,0,,2,,,62,127
64710,note_off,0,0,0,,7,,,43,127
64712,note_on,2,0,0,,7,,,79,127
64712,note_on,0,0,0,,11,,,70,127
64929,note_off,217,0,0,,11,,,70,127
64929,note_off,0,0,0,,7,,,79,127
64931,note_on,2,0,0,,5,,,77,127
64931,note_on,0,0,0,,10,,,69,127
65148,note_off,217,0,0,,10,,,69,127
65148,note_off,0,0,0,,5,,,77,127
65150,note_on,2,0,0,,3,,,39,127
65150,note_on,0,0,0,,7,,,67,127
65221,note_off,71,0,0,,7,,,67,127
65223,note_on,2,0,0,,3,,,63,127
65294,note_off,71,0,0,,3,,,63,127
65296,note_on,2,0,0,,11,,,58,127
65367,note_off,71,0,0,,11,,,58,127
65367,note_off,0,0,0,,3,,,39,127
65369,note_on,2,0,0,,3,,,75,127
65369,note_on,0,0,0,,7,,,67,127
65586,note_off,217,0,0,,7,,,67,127
65586,note_off,0,0,0,,3,,,75,127
65588,note_on,2,0,0,,2,,,74,127
65588,note_on,0,0,0,,5,,,65,127
65805,note_off,217,0,0,,5,,,65,127
65805,note_off,0,0,0,,2,,,74,127
65807,note_on,2,0,0,,0,,,36,127
65807,note_on,0,0,0,,3,,,63,127
65878,note_off,71,0,0,,3,,,63,127
65880,note_on,2,0,0,,2,,,62,127
65951,note_off,71,0,0,,2,,,62,127
65953,note_on,2,0,0,,0,,,60,127
66024,note_off,71,0,0,,0,,,60,127
66024,note_off,0,0,0,,0,,,36,127
66026,note_on,2,0,0,,10,,,81,127
66026,note_on,0,0,0,,3,,,63,127
66026,note_on,0,0,0,,10,,,69,127
66026,note_on,0,0,0,,0,,,60,127
66243,note_off,217,0,0,,0,,,60,127
66243,note_off,0,0,0,,10,,,69,127
66243,note_off,0,0,0,,3,,,63,127
66243,note_off,0,0,0,,10,,,81,127
66245,note_on,2,0,0,,11,,,82,127
66245,note_on,0,0,0,,11,,,70,127
66245,note_on,0,0,0,,5,,,65,127
66245,note_on,0,0,0,,2,,,62,127
66462,note_off,217,0,0,,2,,,62,127
66462,note_off,0,0,0,,5,,,65,127
66462,note_off,0,0,0,,11,,,70,127
66462,note_off,0,0,0,,11,,,82,127
66464,note_on,2,0,0,,5,,,41,127
66464,note_on,0,0,0,,0,,,72,127
66464,note_on,0,0,0,,5,,,65,127
66464,note_on,0,0,0,,10,,,69,127
66681,note_off,217,0,0,,0,,,72,127
66683,note_on,2,0,0,,2,,,74,127
66900,note_off,217,0,0,,2,,,74,127
66900,note_off,0,0,0,,5,,,41,127
66901,note_off,1,0,0,,10,,,69,127
66901,note_off,0,0,0,,5,,,65,127
66902,note_on,1,0,0,,5,,,53,127
66902,note_on,0,0,0,,3,,,75,127
66902,note_on,0,0,0,,10,,,69,127
67119,note_off,217,0,0,,10,,,69,127
67119,note_off,0,0,0,,3,,,75,127
67119,note_off,0,0,0,,5,,,53,127
67121,note_on,2,0,0,,11,,,58,127
67121,note_on,0,0,0,,11,,,70,127
67121,note_on,0,0,0,,2,,,74,127
67192,note_off,71,0,0,,2,,,74,127
67192,note_off,0,0,0,,11,,,70,127
67194,note_on,2,0,0,,0,,,72,127
67265,note_off,71,0,0,,0,,,72,127
67267,note_on,2,0,0,,11,,,70,127
67338,note_off,71,0,0,,11,,,70,127
67338,note_off,0,0,0,,11,,,58,127
67340,note_on,2,0,0,,3,,,51,127
67340,note_on,0,0,0,,11,,,70,127
67340,note_on,0,0,0,,2,,,74,127
67557,note_off,217,0,0,,2,,,74,127
67557,note_off,0,0,0,,11,,,70,127
67557,note_off,0,0,0,,3,,,51,127
67559,note_on,2,0,0,,5,,,53,127
67559,note_on,0,0,0,,0,,,72,127
67559,note_on,0,0,0,,10,,,69,127
67776,note_off,217,0,0,,10,,,69,127
67776,note_off,0,0,0,,0,,,72,127
67776,note_off,0,0,0,,5,,,53,127
67778,note_on,2,0,0,,11,,,46,127
67778,note_on,0,0,0,,2,,,74,127
67778,note_on,0,0,0,,11,,,70,127
67849,note_off,71,0,0,,11,,,70,127
67849,note_off,0,0,0,,2,,,74,127
67851,note_on,2,0,0,,4,,,76,127
67922,note_off,71,0,0,,4,,,76,127
67924,note_on,2,0,0,,5,,,77,127
67995,note_off,71,0,0,,5,,,77,127
67997,note_on,2,0,0,,5,,,77,127
68214,note_off,217,0,0,,5,,,77,127
68214,note_off,0,0,0,,11,,,46,127
68216,note_on,2,0,0,,2,,,50,127
68216,note_on,0,0,0,,6,,,78,127
68433,note_off,217,0,0,,6,,,78,127
68433,note_off,0,0,0,,2,,,50,127
68435,note_on,2,0,0,,3,,,51,127
68435,note_on,0,0,0,,7,,,79,127
68506,note_off,71,0,0,,7,,,79,127
68508,note_on,2,0,0,,5,,,77,127
68579,note_off,71,0,0,,5,,,77,127
68581,note_on,2,0,0,,3,,,75,127
68652,note_off,71,0,0,,3,,,75,127
68652,note_off,0,0,0,,3,,,51,127
68654,note_on,2,0,0,,5,,,53,127
68654,note_on,0,0,0,,11,,,70,127
68654,note_on,0,0,0,,2,,,74,127
68871,note_off,217,0,0,,2,,,74,127
68871,note_off,0,0,0,,11,,,70,127
68873,note_on,2,0,0,,5,,,41,127
68873,note_on,0,0,0,,0,,,72,127
68873,note_on,0,0,0,,10,,,69,127
69090,note_off,217,0,0,,10,,,69,127
69090,note_off,0,0,0,,0,,,72,127
69090,note_off,0,0,0,,5,,,41,127
69091,note_off,1,0,0,,5,,,53,127
69092,note_on,1,0,0,,11,,,46,127
69092,note_on,0,0,0,,2,,,62,127
69163,note_off,71,0,0,,2,,,62,127
69165,note_on,2,0,0,,4,,,64,127
69236,note_off,71,0,0,,4,,,64,127
69238,note_on,2,0,0,,5,,,65,127
69309,note_off,71,0,0,,5,,,65,127
69311,note_on,2,0,0,,5,,,65,127
69528,note_off,217,0,0,,5,,,65,127
69528,note_off,0,0,0,,11,,,46,127
69530,note_on,2,0,0,,2,,,50,127
69530,note_on,0,0,0,,6,,,66,127
69747,note_off,217,0,0,,6,,,66,127
69747,note_off,0,0,0,,2,,,50,127
69749,note_on,2,0,0,,3,,,51,127
69749,note_on,0,0,0,,7,,,67,127
69820,note_off,71,0,0,,7,,,67,127
69822,note_on,2,0,0,,5,,,65,127
69893,note_off,71,0,0,,5,,,65,127
69895,note_on,2,0,0,,3,,,63,127
69966,note_off,71,0,0,,3,,,63,127
69966,note_off,0,0,0,,3,,,51,127
69968,note_on,2,0,0,,5,,,53,127
69968,note_on,0,0,0,,2,,,62,127
69968,note_on,0,0,0,,11,,,58,127
70185,note_off,217,0,0,,11,,,58,127
70185,note_off,0,0,0,,2,,,62,127
70187,note_on,2,0,0,,5,,,41,127
70187,note_on,0,0,0,,0,,,60,127
70187,note_on,0,0,0,,10,,,57,127
70404,note_off,217,0,0,,10,,,57,127
70404,note_off,0,0,0,,0,,,60,127
70404,note_off,0,0,0,,5,,,41,127
70405,note_off,1,0,0,,5,,,53,127
70406,note_on,1,0,0,,11,,,46,127
70406,note_on,0,0,0,,11,,,82,127
70477,note_off,71,0,0,,11,,,82,127
70479,note_on,2,0,0,,5,,,77,127
70550,note_off,71,0,0,,5,,,77,127
70552,note_on,2,0,0,,2,,,74,127
70623,note_off,71,0,0,,2,,,74,127
70623,note_off,0,0,0,,11,,,46,127
70625,note_on,2,0,0,,0,,,48,127
70625,note_on,0,0,0,,11,,,70,127
70842,note_off,217,0,0,,11,,,70,127
70842,note_off,0,0,0,,0,,,48,127
70844,note_on,2,0,0,,2,,,50,127
70844,note_on,0,0,0,,5,,,77,127
71061,note_off,217,0,0,,5,,,77,127
71061,note_off,0,0,0,,2,,,50,127
71063,note_on,2,0,0,,3,,,51,127
71063,note_on,0,0,0,,5,,,77,127
71063,note_on,0,0,0,,3,,,75,127
71134,note_off,71,0,0,,3,,,75,127
71134,note_off,0,0,0,,5,,,77,127
71136,note_on,2,0,0,,2,,,74,127
71207,note_off,71,0,0,,2,,,74,127
71209,note_on,2,0,0,,0,,,72,127
71280,note_off,71,0,0,,0,,,72,127
71280,note_off,0,0,0,,3,,,51,127
71282,note_on,2,0,0,,5,,,53,127
71282,note_on,0,0,0,,2,,,74,127
71282,note_on,0,0,0,,11,,,70,127
71499,note_off,217,0,0,,11,,,70,127
71499,note_off,0,0,0,,2,,,74,127
71501,note_on,2,0,0,,5,,,41,127
71501,note_on,0,0,0,,0,,,72,127
71501,note_on,0,0,0,,10,,,69,127
71718,note_off,217,0,0,,10,,,69,127
71718,note_off,0,0,0,,0,,,72,127
71718,note_off,0,0,0,,5,,,41,127
71719,note_off,1,0,0,,5,,,53,127
71724,note_on,5,0,0,,11,,,70,127
71724,note_on,0,0,0,,11,,,46,127
71797,note_off,73,0,0,,11,,,70,127
71800,note_on,3,0,0,,5,,,65,127
71873,note_off,73,0,0,,5,,,65,127
71875,note_on,2,0,0,,2,,,62,127
71948,note_off,73,0,0,,2,,,62,127
71948,note_off,0,0,0,,11,,,46,127
71951,note_on,3,0,0,,11,,,58,127
71951,note_on,0,0,0,,0,,,48,127
72176,note_off,225,0,0,,0,,,48,127
72176,note_off,0,0,0,,11,,,58,127
72179,note_on,3,0,0,,5,,,65,127
72179,note_on,0,0,0,,2,,,50,127
72404,note_off,225,0,0,,2,,,50,127
72404,note_off,0,0,0,,5,,,65,127
72406,note_on,2,0,0,,5,,,65,127
72406,note_on,0,0,0,,3,,,63,127
72406,note_on,0,0,0,,3,,,51,127
72479,note_off,73,0,0,,3,,,63,127
72479,note_off,0,0,0,,5,,,65,127
72482,note_on,3,0,0,,2,,,62,127
72555,note_off,73,0,0,,2,,,62,127
72558,note_on,3,0,0,,0,,,60,127
72630,note_off,72,0,0,,3,,,51,127
72631,note_off,1,0,0,,0,,,60,127
72633,note_on,2,0,0,,11,,,58,127
72633,note_on,0,0,0,,2,,,62,127
72633,note_on,0,0,0,,5,,,53,127
72858,note_off,225,0,0,,2,,,62,127
72858,note_off,0,0,0,,11,,,58,127
72881,note_on,23,0,0,,10,,,57,127
72881,note_on,0,0,0,,0,,,60,127
72881,note_on,0,0,0,,5,,,41,127
73088,note_off,207,0,0,,5,,,53,127
73106,note_off,18,0,0,,5,,,41,127
73106,note_off,0,0,0,,0,,,60,127
73106,note_off,0,0,0,,10,,,57,127
73154,note_on,48,0,0,,11,,,58,127
73154,note_on,0,0,0,,11,,,46,127
74983,note_off,1829,0,0,,11,,,46,127
74983,note_off,0,0,0,,11,,,58,127
79872,end_of_track,4889,1,0,,,,,,
