tick,type,time,meta,track,program,channel,pitch,tempo,note,velocity
0,copyright,0,1,0,,,,,,
0,program_change,0,0,0,6,0,,,,
0,pitchwheel,0,0,0,,0,0,,,
0,program_change,0,0,0,6,1,,,,
0,pitchwheel,0,0,0,,1,-590,,,
0,program_change,0,0,0,6,2,,,,
0,pitchwheel,0,0,0,,2,-272,,,
0,program_change,0,0,0,6,3,,,,
0,pitchwheel,0,0,0,,3,-353,,,
0,program_change,0,0,0,6,4,,,,
0,pitchwheel,0,0,0,,4,-560,,,
0,program_change,0,0,0,6,5,,,,
0,pitchwheel,0,0,0,,5,-80,,,
0,program_change,0,0,0,6,6,,,,
0,pitchwheel,0,0,0,,6,-625,,,
0,program_change,0,0,0,6,7,,,,
0,pitchwheel,0,0,0,,7,-130,,,
0,program_change,0,0,0,6,8,,,,
0,pitchwheel,0,0,0,,8,-512,,,
0,program_change,0,0,0,6,10,,,,
0,pitchwheel,0,0,0,,10,-464,,,
0,program_change,0,0,0,6,11,,,,
0,pitchwheel,0,0,0,,11,-208,,,
0,program_change,0,0,0,6,12,,,,
0,pitchwheel,0,0,0,,12,-553,,,
0,set_tempo,0,1,0,,,,500000,,
105,note_on,105,0,0,,1,,,73,127
206,note_off,101,0,0,,1,,,73,127
209,note_on,3,0,0,,10,,,69,127
310,note_off,101,0,0,,10,,,69,127
313,note_on,3,0,0,,1,,,73,127
313,note_on,0,0,0,,4,,,76,127
519,note_off,206,0,0,,4,,,76,127
519,note_off,0,0,0,,1,,,73,127
522,note_on,3,0,0,,2,,,74,127
522,note_on,0,0,0,,6,,,78,127
728,note_off,206,0,0,,6,,,78,127
728,note_off,0,0,0,,2,,,74,127
731,note_on,3,0,0,,1,,,73,127
731,note_on,0,0,0,,4,,,76,127
937,note_off,206,0,0,,4,,,76,127
937,note_off,0,0,0,,1,,,73,127
940,note_on,3,0,0,,1,,,61,127
940,note_on,0,0,0,,1,,,49,127
1097,note_off,157,0,0,,1,,,49,127
1097,note_off,0,0,0,,1,,,61,127
1149,note_on,52,0,0,,2,,,62,127
1149,note_on,0,0,0,,2,,,50,127
1306,note_off,157,0,0,,2,,,50,127
1306,note_off,0,0,0,,2,,,62,127
1358,note_on,52,0,0,,4,,,64,127
1358,note_on,0,0,0,,4,,,52,127
1515,note_off,157,0,0,,4,,,52,127
1515,note_off,0,0,0,,4,,,64,127
1567,note_on,52,0,0,,10,,,57,127
1567,note_on,0,0,0,,10,,,45,127
1773,note_off,206,0,0,,10,,,57,127
1776,note_on,3,0,0,,1,,,73,127
1877,note_off,101,0,0,,1,,,73,127
1880,note_on,3,0,0,,10,,,69,127
1981,note_off,101,0,0,,10,,,69,127
1984,note_on,3,0,0,,10,,,81,127
1984,note_on,0,0,0,,1,,,73,127
2190,note_off,206,0,0,,1,,,73,127
2190,note_off,0,0,0,,10,,,81,127
2192,note_off,2,0,0,,10,,,45,127
2193,note_on,1,0,0,,2,,,74,127
2193,note_on,0,0,0,,12,,,83,127
2399,note_off,206,0,0,,12,,,83,127
2399,note_off,0,0,0,,2,,,74,127
2402,note_on,3,0,0,,1,,,73,127
2402,note_on,0,0,0,,10,,,81,127
2608,note_off,206,0,0,,10,,,81,127
2608,note_off,0,0,0,,1,,,73,127
2611,note_on,3,0,0,,1,,,61,127
2611,note_on,0,0,0,,1,,,49,127
2768,note_off,157,0,0,,1,,,49,127
2780,note_off,12,0,0,,1,,,61,127
2820,note_on,40,0,0,,2,,,62,127
2820,note_on,0,0,0,,2,,,50,127
2977,note_off,157,0,0,,2,,,50,127
2989,note_off,12,0,0,,2,,,62,127
3029,note_on,40,0,0,,4,,,64,127
3029,note_on,0,0,0,,4,,,52,127
3186,note_off,157,0,0,,4,,,52,127
3198,note_off,12,0,0,,4,,,64,127
3238,note_on,40,0,0,,10,,,57,127
3238,note_on,0,0,0,,10,,,45,127
3444,note_off,206,0,0,,10,,,57,127
3447,note_on,3,0,0,,1,,,73,127
3548,note_off,101,0,0,,1,,,73,127
3551,note_on,3,0,0,,10,,,69,127
3652,note_off,101,0,0,,10,,,69,127
3655,note_on,3,0,0,,4,,,76,127
3756,note_off,101,0,0,,4,,,76,127
3759,note_on,3,0,0,,1,,,73,127
3860,note_off,101,0,0,,1,,,73,127
3862,note_off,2,0,0,,10,,,45,127
3863,note_on,1,0,0,,10,,,69,127
3964,note_off,101,0,0,,10,,,69,127
3967,note_on,3,0,0,,2,,,74,127
3967,note_on,0,0,0,,6,,,78,127
4068,note_off,101,0,0,,6,,,78,127
4068,note_off,0,0,0,,2,,,74,127
4071,note_on,3,0,0,,4,,,76,127
4071,note_on,0,0,0,,1,,,73,127
4277,note_off,206,0,0,,1,,,73,127
4277,note_off,0,0,0,,4,,,76,127
4280,note_on,3,0,0,,1,,,61,127
4280,note_on,0,0,0,,1,,,49,127
4437,note_off,157,0,0,,1,,,49,127
4465,note_off,28,0,0,,1,,,61,127
4489,note_on,24,0,0,,2,,,62,127
4489,note_on,0,0,0,,2,,,50,127
4646,note_off,157,0,0,,2,,,50,127
4674,note_off,28,0,0,,2,,,62,127
4698,note_on,24,0,0,,4,,,64,127
4698,note_on,0,0,0,,4,,,52,127
4855,note_off,157,0,0,,4,,,52,127
4883,note_off,28,0,0,,4,,,64,127
4907,note_on,24,0,0,,10,,,57,127
4907,note_on,0,0,0,,10,,,45,127
5113,note_off,206,0,0,,10,,,57,127
5116,note_on,3,0,0,,1,,,73,127
5217,note_off,101,0,0,,1,,,73,127
5220,note_on,3,0,0,,10,,,69,127
5321,note_off,101,0,0,,10,,,69,127
5324,note_on,3,0,0,,10,,,81,127
5425,note_off,101,0,0,,10,,,81,127
5428,note_on,3,0,0,,1,,,73,127
5529,note_off,101,0,0,,1,,,73,127
5531,note_off,2,0,0,,10,,,45,127
5532,note_on,1,0,0,,2,,,74,127
5633,note_off,101,0,0,,2,,,74,127
5636,note_on,3,0,0,,12,,,83,127
5737,note_off,101,0,0,,12,,,83,127
5740,note_on,3,0,0,,1,,,73,127
5740,note_on,0,0,0,,10,,,81,127
5946,note_off,206,0,0,,10,,,81,127
5946,note_off,0,0,0,,1,,,73,127
5949,note_on,3,0,0,,1,,,61,127
5949,note_on,0,0,0,,1,,,49,127
6155,note_off,206,0,0,,1,,,49,127
6155,note_off,0,0,0,,1,,,61,127
6158,note_on,3,0,0,,2,,,62,127
6158,note_on,0,0,0,,2,,,50,127
6364,note_off,206,0,0,,2,,,50,127
6364,note_off,0,0,0,,2,,,62,127
6367,note_on,3,0,0,,4,,,64,127
6367,note_on,0,0,0,,4,,,52,127
6573,note_off,206,0,0,,4,,,52,127
6573,note_off,0,0,0,,4,,,64,127
6576,note_on,3,0,0,,10,,,57,127
6576,note_on,0,0,0,,10,,,45,127
6677,note_off,101,0,0,,10,,,57,127
6680,note_on,3,0,0,,4,,,64,127
6781,note_off,101,0,0,,4,,,64,127
6784,note_on,3,0,0,,1,,,61,127
6885,note_off,101,0,0,,1,,,61,127
6888,note_on,3,0,0,,10,,,57,127
6989,note_off,101,0,0,,10,,,57,127
6992,note_on,3,0,0,,6,,,66,127
7093,note_off,101,0,0,,6,,,66,127
7096,note_on,3,0,0,,2,,,62,127
7197,note_off,101,0,0,,2,,,62,127
7200,note_on,3,0,0,,8,,,68,127
7301,note_off,101,0,0,,8,,,68,127
7304,note_on,3,0,0,,4,,,64,127
7405,note_off,101,0,0,,4,,,64,127
7405,note_off,0,0,0,,10,,,45,127
7408,note_on,3,0,0,,10,,,69,127
7408,note_on,0,0,0,,10,,,45,127
7509,note_off,101,0,0,,10,,,69,127
7512,note_on,3,0,0,,4,,,64,127
7613,note_off,101,0,0,,4,,,64,127
7616,note_on,3,0,0,,1,,,61,127
7717,note_off,101,0,0,,1,,,61,127
7720,note_on,3,0,0,,10,,,57,127
7821,note_off,101,0,0,,10,,,57,127
7824,note_on,3,0,0,,6,,,66,127
7925,note_off,101,0,0,,6,,,66,127
7928,note_on,3,0,0,,2,,,62,127
8029,note_off,101,0,0,,2,,,62,127
8032,note_on,3,0,0,,8,,,68,127
8133,note_off,101,0,0,,8,,,68,127
8136,note_on,3,0,0,,4,,,64,127
8237,note_off,101,0,0,,4,,,64,127
8237,note_off,0,0,0,,10,,,45,127
8240,note_on,3,0,0,,10,,,69,127
8240,note_on,0,0,0,,10,,,45,127
8341,note_off,101,0,0,,10,,,69,127
8344,note_on,3,0,0,,4,,,64,127
8445,note_off,101,0,0,,4,,,64,127
8448,note_on,3,0,0,,1,,,61,127
8549,note_off,101,0,0,,1,,,61,127
8552,note_on,3,0,0,,10,,,57,127
8653,note_off,101,0,0,,10,,,57,127
8656,note_on,3,0,0,,6,,,66,127
8656,note_on,0,0,0,,10,,,69,127
8757,note_off,101,0,0,,6,,,66,127
8760,note_on,3,0,0,,2,,,62,127
8812,note_off,52,0,0,,10,,,69,127
8861,note_off,49,0,0,,2,,,62,127
8864,note_on,3,0,0,,8,,,68,127
8864,note_on,0,0,0,,12,,,71,127
8965,note_off,101,0,0,,8,,,68,127
8968,note_on,3,0,0,,4,,,64,127
9020,note_off,52,0,0,,12,,,71,127
9069,note_off,49,0,0,,4,,,64,127
9069,note_off,0,0,0,,10,,,45,127
9072,note_on,3,0,0,,1,,,73,127
9072,note_on,0,0,0,,10,,,69,127
9072,note_on,0,0,0,,10,,,45,127
9173,note_off,101,0,0,,10,,,69,127
9176,note_on,3,0,0,,4,,,64,127
9277,note_off,101,0,0,,4,,,64,127
9280,note_on,3,0,0,,1,,,61,127
9381,note_off,101,0,0,,1,,,61,127
9384,note_off,3,0,0,,1,,,73,127
9384,note_on,0,0,0,,10,,,57,127
9485,note_off,101,0,0,,10,,,57,127
9488,note_on,3,0,0,,10,,,69,127
9488,note_on,0,0,0,,6,,,66,127
9589,note_off,101,0,0,,6,,,66,127
9592,note_on,3,0,0,,2,,,62,127
9644,note_off,52,0,0,,10,,,69,127
9693,note_off,49,0,0,,2,,,62,127
9696,note_on,3,0,0,,8,,,68,127
9696,note_on,0,0,0,,12,,,71,127
9797,note_off,101,0,0,,8,,,68,127
9800,note_on,3,0,0,,4,,,64,127
9852,note_off,52,0,0,,12,,,71,127
9901,note_off,49,0,0,,4,,,64,127
9901,note_off,0,0,0,,10,,,45,127
9904,note_on,3,0,0,,10,,,69,127
9904,note_on,0,0,0,,1,,,73,127
9904,note_on,0,0,0,,10,,,45,127
10005,note_off,101,0,0,,10,,,69,127
10008,note_on,3,0,0,,4,,,76,127
10060,note_off,52,0,0,,1,,,73,127
10109,note_off,49,0,0,,4,,,76,127
10112,note_on,3,0,0,,1,,,73,127
10213,note_off,101,0,0,,1,,,73,127
10216,note_on,3,0,0,,10,,,69,127
10317,note_off,101,0,0,,10,,,69,127
10320,note_on,3,0,0,,6,,,78,127
10421,note_off,101,0,0,,6,,,78,127
10424,note_on,3,0,0,,2,,,74,127
10525,note_off,101,0,0,,2,,,74,127
10528,note_on,3,0,0,,8,,,80,127
10629,note_off,101,0,0,,8,,,80,127
10632,note_on,3,0,0,,4,,,76,127
10733,note_off,101,0,0,,4,,,76,127
10733,note_off,0,0,0,,10,,,45,127
10736,note_on,3,0,0,,10,,,81,127
10736,note_on,0,0,0,,10,,,45,127
10837,note_off,101,0,0,,10,,,81,127
10840,note_on,3,0,0,,4,,,76,127
10941,note_off,101,0,0,,4,,,76,127
10944,note_on,3,0,0,,1,,,73,127
11045,note_off,101,0,0,,1,,,73,127
11048,note_on,3,0,0,,10,,,69,127
11149,note_off,101,0,0,,10,,,69,127
11152,note_on,3,0,0,,6,,,78,127
11253,note_off,101,0,0,,6,,,78,127
11256,note_on,3,0,0,,2,,,74,127
11357,note_off,101,0,0,,2,,,74,127
11360,note_on,3,0,0,,8,,,80,127
11461,note_off,101,0,0,,8,,,80,127
11464,note_on,3,0,0,,4,,,76,127
11565,note_off,101,0,0,,4,,,76,127
11568,note_on,3,0,0,,10,,,81,127
11669,note_off,101,0,0,,10,,,45,127
11672,note_on,3,0,0,,4,,,64,127
11773,note_off,101,0,0,,4,,,64,127
11773,note_off,0,0,0,,10,,,81,127
11776,note_on,3,0,0,,4,,,76,127
11776,note_on,0,0,0,,1,,,61,127
11877,note_off,101,0,0,,1,,,61,127
11880,note_on,3,0,0,,10,,,57,127
11981,note_off,101,0,0,,10,,,57,127
11984,note_on,3,0,0,,6,,,66,127
12085,note_off,101,0,0,,6,,,66,127
12088,note_on,3,0,0,,2,,,62,127
12189,note_off,101,0,0,,2,,,62,127
12189,note_off,0,0,0,,4,,,76,127
12192,note_on,3,0,0,,2,,,74,127
12192,note_on,0,0,0,,8,,,68,127
12293,note_off,101,0,0,,8,,,68,127
12296,note_on,3,0,0,,4,,,64,127
12397,note_off,101,0,0,,4,,,64,127
12397,note_off,0,0,0,,2,,,74,127
12400,note_on,3,0,0,,1,,,73,127
12400,note_on,0,0,0,,10,,,69,127
12501,note_off,101,0,0,,10,,,69,127
12504,note_on,3,0,0,,4,,,64,127
12605,note_off,101,0,0,,4,,,64,127
12605,note_off,0,0,0,,1,,,73,127
12608,note_on,3,0,0,,10,,,81,127
12608,note_on,0,0,0,,1,,,61,127
12709,note_off,101,0,0,,1,,,61,127
12712,note_on,3,0,0,,10,,,57,127
12813,note_off,101,0,0,,10,,,57,127
12813,note_off,0,0,0,,10,,,81,127
12816,note_on,3,0,0,,2,,,74,127
12816,note_on,0,0,0,,6,,,66,127
12917,note_off,101,0,0,,6,,,66,127
12920,note_on,3,0,0,,2,,,62,127
13021,note_off,101,0,0,,2,,,62,127
13021,note_off,0,0,0,,2,,,74,127
13024,note_on,3,0,0,,12,,,83,127
13024,note_on,0,0,0,,8,,,68,127
13125,note_off,101,0,0,,8,,,68,127
13128,note_on,3,0,0,,4,,,64,127
13229,note_off,101,0,0,,4,,,64,127
13229,note_off,0,0,0,,12,,,83,127
13232,note_on,3,0,0,,10,,,81,127
13232,note_on,0,0,0,,10,,,69,127
13333,note_off,101,0,0,,10,,,81,127
13336,note_on,3,0,0,,1,,,73,127
13437,note_off,101,0,0,,1,,,73,127
13437,note_off,0,0,0,,10,,,69,127
13440,note_on,3,0,0,,12,,,71,127
13440,note_on,0,0,0,,1,,,61,127
13541,note_off,101,0,0,,12,,,71,127
13544,note_on,3,0,0,,10,,,69,127
13645,note_off,101,0,0,,1,,,61,127
13648,note_on,3,0,0,,10,,,81,127
13648,note_on,0,0,0,,2,,,62,127
13749,note_off,101,0,0,,10,,,81,127
13750,note_off,1,0,0,,10,,,69,127
13752,note_on,2,0,0,,12,,,71,127
13853,note_off,101,0,0,,12,,,71,127
13853,note_off,0,0,0,,2,,,62,127
13856,note_on,3,0,0,,10,,,69,127
13856,note_on,0,0,0,,4,,,64,127
13957,note_off,101,0,0,,10,,,69,127
13960,note_on,3,0,0,,8,,,68,127
14061,note_off,101,0,0,,8,,,68,127
14061,note_off,0,0,0,,4,,,64,127
14064,note_on,3,0,0,,10,,,81,127
14064,note_on,0,0,0,,10,,,69,127
14165,note_off,101,0,0,,10,,,81,127
14168,note_on,3,0,0,,1,,,73,127
14269,note_off,101,0,0,,1,,,73,127
14269,note_off,0,0,0,,10,,,69,127
14272,note_on,3,0,0,,12,,,71,127
14272,note_on,0,0,0,,1,,,61,127
14373,note_off,101,0,0,,12,,,71,127
14376,note_on,3,0,0,,10,,,69,127
14477,note_off,101,0,0,,1,,,61,127
14480,note_on,3,0,0,,10,,,81,127
14480,note_on,0,0,0,,2,,,62,127
14581,note_off,101,0,0,,10,,,81,127
14582,note_off,1,0,0,,10,,,69,127
14584,note_on,2,0,0,,12,,,71,127
14685,note_off,101,0,0,,12,,,71,127
14685,note_off,0,0,0,,2,,,62,127
14688,note_on,3,0,0,,10,,,69,127
14688,note_on,0,0,0,,4,,,64,127
14789,note_off,101,0,0,,10,,,69,127
14792,note_on,3,0,0,,8,,,68,127
14893,note_off,101,0,0,,8,,,68,127
14893,note_off,0,0,0,,4,,,64,127
14896,note_on,3,0,0,,10,,,69,127
15001,note_on,105,0,0,,4,,,52,127
15102,note_off,101,0,0,,4,,,52,127
15102,note_off,0,0,0,,10,,,69,127
15105,note_on,3,0,0,,1,,,73,127
15105,note_on,0,0,0,,4,,,76,127
15105,note_on,0,0,0,,1,,,49,127
15206,note_off,101,0,0,,1,,,49,127
15209,note_on,3,0,0,,10,,,45,127
15310,note_off,101,0,0,,10,,,45,127
15313,note_on,3,0,0,,6,,,54,127
15414,note_off,101,0,0,,6,,,54,127
15417,note_on,3,0,0,,2,,,50,127
15518,note_off,101,0,0,,2,,,50,127
15518,note_off,0,0,0,,4,,,76,127
15518,note_off,0,0,0,,1,,,73,127
15521,note_on,3,0,0,,12,,,71,127
15521,note_on,0,0,0,,2,,,74,127
15521,note_on,0,0,0,,8,,,56,127
15622,note_off,101,0,0,,8,,,56,127
15625,note_on,3,0,0,,4,,,52,127
15726,note_off,101,0,0,,4,,,52,127
15726,note_off,0,0,0,,2,,,74,127
15726,note_off,0,0,0,,12,,,71,127
15729,note_on,3,0,0,,10,,,69,127
15729,note_on,0,0,0,,1,,,73,127
15729,note_on,0,0,0,,10,,,57,127
15830,note_off,101,0,0,,10,,,57,127
15833,note_on,3,0,0,,4,,,52,127
15934,note_off,101,0,0,,4,,,52,127
15934,note_off,0,0,0,,1,,,73,127
15934,note_off,0,0,0,,10,,,69,127
15937,note_on,3,0,0,,12,,,71,127
15937,note_on,0,0,0,,12,,,59,127
16038,note_off,101,0,0,,12,,,59,127
16041,note_on,3,0,0,,4,,,52,127
16142,note_off,101,0,0,,4,,,52,127
16145,note_on,3,0,0,,1,,,61,127
16246,note_off,101,0,0,,1,,,61,127
16249,note_on,3,0,0,,4,,,52,127
16350,note_off,101,0,0,,4,,,52,127
16350,note_off,0,0,0,,12,,,71,127
16353,note_on,3,0,0,,10,,,69,127
16353,note_on,0,0,0,,3,,,63,127
16454,note_off,101,0,0,,3,,,63,127
16457,note_on,3,0,0,,4,,,52,127
16558,note_off,101,0,0,,4,,,52,127
16558,note_off,0,0,0,,10,,,69,127
16561,note_on,3,0,0,,8,,,68,127
16561,note_on,0,0,0,,4,,,64,127
16662,note_off,101,0,0,,8,,,68,127
16665,note_on,3,0,0,,12,,,71,127
16766,note_off,101,0,0,,12,,,71,127
16766,note_off,0,0,0,,4,,,64,127
16769,note_on,3,0,0,,8,,,68,127
16769,note_on,0,0,0,,4,,,52,127
16870,note_off,101,0,0,,8,,,68,127
16873,note_on,3,0,0,,4,,,64,127
16974,note_off,101,0,0,,4,,,64,127
16974,note_off,0,0,0,,4,,,52,127
16977,note_on,3,0,0,,1,,,73,127
16977,note_on,0,0,0,,10,,,57,127
17078,note_off,101,0,0,,1,,,73,127
17081,note_on,3,0,0,,10,,,69,127
17182,note_off,101,0,0,,10,,,69,127
17182,note_off,0,0,0,,10,,,57,127
17185,note_on,3,0,0,,3,,,75,127
17185,note_on,0,0,0,,6,,,54,127
17286,note_off,101,0,0,,3,,,75,127
17289,note_on,3,0,0,,12,,,71,127
17390,note_off,101,0,0,,12,,,71,127
17390,note_off,0,0,0,,6,,,54,127
17393,note_on,3,0,0,,4,,,76,127
17393,note_on,0,0,0,,8,,,56,127
17494,note_off,101,0,0,,4,,,76,127
17497,note_on,3,0,0,,12,,,71,127
17598,note_off,101,0,0,,12,,,71,127
17598,note_off,0,0,0,,8,,,56,127
17601,note_on,3,0,0,,8,,,68,127
17601,note_on,0,0,0,,4,,,52,127
17702,note_off,101,0,0,,8,,,68,127
17705,note_on,3,0,0,,4,,,64,127
17806,note_off,101,0,0,,4,,,64,127
17806,note_off,0,0,0,,4,,,52,127
17809,note_on,3,0,0,,1,,,73,127
17809,note_on,0,0,0,,10,,,57,127
17910,note_off,101,0,0,,1,,,73,127
17913,note_on,3,0,0,,10,,,69,127
18014,note_off,101,0,0,,10,,,69,127
18014,note_off,0,0,0,,10,,,57,127
18017,note_on,3,0,0,,3,,,75,127
18017,note_on,0,0,0,,6,,,54,127
18118,note_off,101,0,0,,3,,,75,127
18121,note_on,3,0,0,,12,,,71,127
18222,note_off,101,0,0,,12,,,71,127
18222,note_off,0,0,0,,6,,,54,127
18225,note_on,3,0,0,,4,,,76,127
18225,note_on,0,0,0,,8,,,56,127
18326,note_off,101,0,0,,8,,,56,127
18329,note_on,3,0,0,,12,,,59,127
18430,note_off,101,0,0,,12,,,59,127
18430,note_off,0,0,0,,4,,,76,127
18433,note_on,3,0,0,,12,,,71,127
18433,note_on,0,0,0,,8,,,80,127
18433,note_on,0,0,0,,8,,,56,127
18534,note_off,101,0,0,,8,,,56,127
18537,note_on,3,0,0,,4,,,52,127
18638,note_off,101,0,0,,4,,,52,127
18641,note_on,3,0,0,,1,,,61,127
18742,note_off,101,0,0,,1,,,61,127
18745,note_on,3,0,0,,10,,,57,127
18846,note_off,101,0,0,,10,,,57,127
18846,note_off,0,0,0,,8,,,80,127
18846,note_off,0,0,0,,12,,,71,127
18849,note_on,3,0,0,,6,,,78,127
18849,note_on,0,0,0,,10,,,69,127
18849,note_on,0,0,0,,3,,,63,127
18950,note_off,101,0,0,,3,,,63,127
18953,note_on,3,0,0,,12,,,59,127
19054,note_off,101,0,0,,12,,,59,127
19054,note_off,0,0,0,,10,,,69,127
19054,note_off,0,0,0,,6,,,78,127
19057,note_on,3,0,0,,4,,,76,127
19057,note_on,0,0,0,,8,,,68,127
19057,note_on,0,0,0,,4,,,64,127
19158,note_off,101,0,0,,4,,,64,127
19161,note_on,3,0,0,,12,,,59,127
19262,note_off,101,0,0,,12,,,59,127
19262,note_off,0,0,0,,8,,,68,127
19262,note_off,0,0,0,,4,,,76,127
19265,note_on,3,0,0,,12,,,71,127
19265,note_on,0,0,0,,8,,,80,127
19265,note_on,0,0,0,,8,,,56,127
19366,note_off,101,0,0,,8,,,56,127
19369,note_on,3,0,0,,4,,,52,127
19470,note_off,101,0,0,,4,,,52,127
19473,note_on,3,0,0,,1,,,61,127
19574,note_off,101,0,0,,1,,,61,127
19577,note_on,3,0,0,,10,,,57,127
19678,note_off,101,0,0,,10,,,57,127
19678,note_off,0,0,0,,8,,,80,127
19678,note_off,0,0,0,,12,,,71,127
19681,note_on,3,0,0,,10,,,69,127
19681,note_on,0,0,0,,6,,,78,127
19681,note_on,0,0,0,,3,,,63,127
19782,note_off,101,0,0,,3,,,63,127
19785,note_on,3,0,0,,12,,,59,127
19886,note_off,101,0,0,,12,,,59,127
19886,note_off,0,0,0,,6,,,78,127
19886,note_off,0,0,0,,10,,,69,127
19889,note_on,3,0,0,,4,,,76,127
19889,note_on,0,0,0,,4,,,64,127
19990,note_off,101,0,0,,4,,,76,127
19993,note_on,3,0,0,,8,,,68,127
20094,note_off,101,0,0,,8,,,68,127
20094,note_off,0,0,0,,4,,,64,127
20097,note_on,3,0,0,,6,,,66,127
20097,note_on,0,0,0,,8,,,56,127
20198,note_off,101,0,0,,6,,,66,127
20201,note_on,3,0,0,,4,,,64,127
20302,note_off,101,0,0,,8,,,56,127
20305,note_on,3,0,0,,4,,,76,127
20305,note_on,0,0,0,,10,,,57,127
20406,note_off,101,0,0,,4,,,76,127
20407,note_off,1,0,0,,4,,,64,127
20409,note_on,2,0,0,,6,,,66,127
20510,note_off,101,0,0,,6,,,66,127
20510,note_off,0,0,0,,10,,,57,127
20513,note_on,3,0,0,,4,,,64,127
20513,note_on,0,0,0,,12,,,59,127
20614,note_off,101,0,0,,4,,,64,127
20617,note_on,3,0,0,,3,,,63,127
20718,note_off,101,0,0,,3,,,63,127
20718,note_off,0,0,0,,12,,,59,127
20721,note_on,3,0,0,,4,,,76,127
20721,note_on,0,0,0,,4,,,64,127
20822,note_off,101,0,0,,4,,,76,127
20825,note_on,3,0,0,,8,,,68,127
20926,note_off,101,0,0,,8,,,68,127
20926,note_off,0,0,0,,4,,,64,127
20929,note_on,3,0,0,,6,,,66,127
20929,note_on,0,0,0,,8,,,56,127
21030,note_off,101,0,0,,6,,,66,127
21033,note_on,3,0,0,,4,,,64,127
21134,note_off,101,0,0,,8,,,56,127
21137,note_on,3,0,0,,4,,,76,127
21137,note_on,0,0,0,,10,,,57,127
21238,note_off,101,0,0,,4,,,76,127
21239,note_off,1,0,0,,4,,,64,127
21241,note_on,2,0,0,,6,,,66,127
21342,note_off,101,0,0,,6,,,66,127
21342,note_off,0,0,0,,10,,,57,127
21345,note_on,3,0,0,,4,,,64,127
21345,note_on,0,0,0,,12,,,59,127
21446,note_off,101,0,0,,4,,,64,127
21449,note_on,3,0,0,,3,,,63,127
21550,note_off,101,0,0,,3,,,63,127
21550,note_off,0,0,0,,12,,,59,127
21553,note_on,3,0,0,,4,,,52,127
21553,note_on,0,0,0,,4,,,64,127
21675,note_on,122,0,0,,4,,,76,127
21702,note_off,27,0,0,,4,,,64,127
21776,note_off,74,0,0,,4,,,76,127
21779,note_on,3,0,0,,5,,,65,127
21880,note_off,101,0,0,,5,,,65,127
21883,note_on,3,0,0,,2,,,74,127
21984,note_off,101,0,0,,2,,,74,127
21987,note_on,3,0,0,,4,,,64,127
22088,note_off,101,0,0,,4,,,64,127
22091,note_on,3,0,0,,0,,,72,127
22192,note_off,101,0,0,,0,,,72,127
22195,note_on,3,0,0,,2,,,62,127
22296,note_off,101,0,0,,2,,,62,127
22299,note_on,3,0,0,,12,,,71,127
22400,note_off,101,0,0,,12,,,71,127
22403,note_on,3,0,0,,4,,,64,127
22504,note_off,101,0,0,,4,,,64,127
22507,note_on,3,0,0,,0,,,72,127
22608,note_off,101,0,0,,0,,,72,127
22611,note_on,3,0,0,,2,,,62,127
22712,note_off,101,0,0,,2,,,62,127
22715,note_on,3,0,0,,12,,,71,127
22816,note_off,101,0,0,,12,,,71,127
22819,note_on,3,0,0,,0,,,60,127
22920,note_off,101,0,0,,0,,,60,127
22923,note_on,3,0,0,,10,,,69,127
23024,note_off,101,0,0,,10,,,69,127
23027,note_on,3,0,0,,12,,,59,127
23128,note_off,101,0,0,,12,,,59,127
23131,note_on,3,0,0,,8,,,68,127
23232,note_off,101,0,0,,8,,,68,127
23235,note_on,3,0,0,,10,,,69,127
23319,note_off,84,0,0,,4,,,52,127
23340,note_on,21,0,0,,5,,,53,127
23441,note_off,101,0,0,,10,,,69,127
23444,note_on,3,0,0,,8,,,68,127
23444,note_on,0,0,0,,12,,,71,127
23545,note_off,101,0,0,,5,,,53,127
23548,note_on,3,0,0,,2,,,62,127
23649,note_off,101,0,0,,2,,,62,127
23649,note_off,0,0,0,,12,,,71,127
23649,note_off,0,0,0,,8,,,68,127
23652,note_on,3,0,0,,10,,,69,127
23652,note_on,0,0,0,,0,,,72,127
23652,note_on,0,0,0,,4,,,52,127
23753,note_off,101,0,0,,4,,,52,127
23756,note_on,3,0,0,,0,,,60,127
23857,note_off,101,0,0,,0,,,60,127
23857,note_off,0,0,0,,0,,,72,127
23857,note_off,0,0,0,,10,,,69,127
23860,note_on,3,0,0,,12,,,71,127
23860,note_on,0,0,0,,2,,,74,127
23860,note_on,0,0,0,,2,,,50,127
23961,note_off,101,0,0,,2,,,50,127
23964,note_on,3,0,0,,12,,,59,127
24065,note_off,101,0,0,,12,,,59,127
24065,note_off,0,0,0,,2,,,74,127
24065,note_off,0,0,0,,12,,,71,127
24068,note_on,3,0,0,,0,,,72,127
24068,note_on,0,0,0,,4,,,76,127
24068,note_on,0,0,0,,0,,,48,127
24169,note_off,101,0,0,,0,,,48,127
24172,note_on,3,0,0,,10,,,57,127
24273,note_off,101,0,0,,10,,,57,127
24273,note_off,0,0,0,,4,,,76,127
24273,note_off,0,0,0,,0,,,72,127
24276,note_on,3,0,0,,8,,,68,127
24276,note_on,0,0,0,,5,,,77,127
24276,note_on,0,0,0,,2,,,50,127
24377,note_off,101,0,0,,2,,,50,127
24380,note_on,3,0,0,,12,,,59,127
24481,note_off,101,0,0,,12,,,59,127
24481,note_off,0,0,0,,5,,,77,127
24481,note_off,0,0,0,,8,,,68,127
24484,note_on,3,0,0,,10,,,69,127
24484,note_on,0,0,0,,4,,,76,127
24484,note_on,0,0,0,,0,,,48,127
24585,note_off,101,0,0,,0,,,48,127
24588,note_on,3,0,0,,10,,,57,127
24689,note_off,101,0,0,,10,,,57,127
24689,note_off,0,0,0,,4,,,76,127
24689,note_off,0,0,0,,10,,,69,127
24692,note_on,3,0,0,,12,,,71,127
24692,note_on,0,0,0,,2,,,74,127
24692,note_on,0,0,0,,12,,,47,127
24793,note_off,101,0,0,,12,,,47,127
24796,note_on,3,0,0,,8,,,56,127
24897,note_off,101,0,0,,8,,,56,127
24897,note_off,0,0,0,,2,,,74,127
24897,note_off,0,0,0,,12,,,71,127
24907,note_on,10,0,0,,10,,,45,127
24907,note_on,0,0,0,,0,,,72,127
25008,note_off,101,0,0,,0,,,72,127
25011,note_on,3,0,0,,10,,,69,127
25112,note_off,101,0,0,,10,,,69,127
25112,note_off,0,0,0,,10,,,45,127
25115,note_on,3,0,0,,10,,,81,127
25115,note_on,0,0,0,,4,,,64,127
25216,note_off,101,0,0,,4,,,64,127
25219,note_on,3,0,0,,0,,,72,127
25320,note_off,101,0,0,,0,,,72,127
25320,note_off,0,0,0,,10,,,81,127
25323,note_on,3,0,0,,7,,,55,127
25323,note_on,0,0,0,,12,,,71,127
25424,note_off,101,0,0,,12,,,71,127
25427,note_on,3,0,0,,7,,,67,127
25528,note_off,101,0,0,,7,,,67,127
25528,note_off,0,0,0,,7,,,55,127
25531,note_on,3,0,0,,7,,,79,127
25531,note_on,0,0,0,,4,,,64,127
25632,note_off,101,0,0,,4,,,64,127
25635,note_on,3,0,0,,12,,,71,127
25736,note_off,101,0,0,,12,,,71,127
25736,note_off,0,0,0,,7,,,79,127
25739,note_on,3,0,0,,5,,,53,127
25739,note_on,0,0,0,,10,,,69,127
25840,note_off,101,0,0,,10,,,69,127
25843,note_on,3,0,0,,5,,,65,127
25944,note_off,101,0,0,,5,,,65,127
25944,note_off,0,0,0,,5,,,53,127
25947,note_on,3,0,0,,5,,,77,127
25947,note_on,0,0,0,,2,,,62,127
26048,note_off,101,0,0,,2,,,62,127
26051,note_on,3,0,0,,10,,,69,127
26152,note_off,101,0,0,,10,,,69,127
26152,note_off,0,0,0,,5,,,77,127
26155,note_on,3,0,0,,4,,,52,127
26155,note_on,0,0,0,,7,,,67,127
26256,note_off,101,0,0,,7,,,67,127
26259,note_on,3,0,0,,4,,,64,127
26360,note_off,101,0,0,,4,,,64,127
26360,note_off,0,0,0,,4,,,52,127
26363,note_on,3,0,0,,4,,,76,127
26363,note_on,0,0,0,,0,,,60,127
26464,note_off,101,0,0,,0,,,60,127
26467,note_on,3,0,0,,7,,,67,127
26568,note_off,101,0,0,,7,,,67,127
26568,note_off,0,0,0,,4,,,76,127
26571,note_on,3,0,0,,2,,,50,127
26571,note_on,0,0,0,,5,,,65,127
26672,note_off,101,0,0,,5,,,65,127
26675,note_on,3,0,0,,2,,,62,127
26776,note_off,101,0,0,,2,,,62,127
26776,note_off,0,0,0,,2,,,50,127
26779,note_on,3,0,0,,2,,,74,127
26779,note_on,0,0,0,,12,,,59,127
26880,note_off,101,0,0,,12,,,59,127
26883,note_on,3,0,0,,5,,,65,127
26984,note_off,101,0,0,,5,,,65,127
26984,note_off,0,0,0,,2,,,74,127
26987,note_on,3,0,0,,0,,,48,127
26987,note_on,0,0,0,,4,,,64,127
27088,note_off,101,0,0,,4,,,64,127
27091,note_on,3,0,0,,0,,,60,127
27192,note_off,101,0,0,,0,,,60,127
27192,note_off,0,0,0,,0,,,48,127
27195,note_on,3,0,0,,0,,,72,127
27195,note_on,0,0,0,,10,,,57,127
27296,note_off,101,0,0,,10,,,57,127
27299,note_on,3,0,0,,4,,,64,127
27400,note_off,101,0,0,,4,,,64,127
27400,note_off,0,0,0,,0,,,72,127
27403,note_on,3,0,0,,12,,,47,127
27403,note_on,0,0,0,,2,,,62,127
27504,note_off,101,0,0,,2,,,62,127
27507,note_on,3,0,0,,12,,,59,127
27608,note_off,101,0,0,,12,,,59,127
27608,note_off,0,0,0,,12,,,47,127
27611,note_on,3,0,0,,12,,,71,127
27611,note_on,0,0,0,,8,,,56,127
27712,note_off,101,0,0,,8,,,56,127
27715,note_on,3,0,0,,2,,,62,127
27816,note_off,101,0,0,,2,,,62,127
27816,note_off,0,0,0,,12,,,71,127
27819,note_on,3,0,0,,10,,,45,127
27819,note_on,0,0,0,,0,,,60,127
27920,note_off,101,0,0,,0,,,60,127
27923,note_on,3,0,0,,4,,,64,127
28024,note_off,101,0,0,,4,,,64,127
28024,note_off,0,0,0,,10,,,45,127
28027,note_on,3,0,0,,10,,,69,127
28027,note_on,0,0,0,,10,,,57,127
28128,note_off,101,0,0,,10,,,57,127
28130,note_off,2,0,0,,10,,,69,127
28131,note_on,1,0,0,,0,,,60,127
28232,note_off,101,0,0,,0,,,60,127
28235,note_on,3,0,0,,4,,,40,127
28235,note_on,0,0,0,,12,,,59,127
28336,note_off,101,0,0,,12,,,59,127
28339,note_on,3,0,0,,4,,,52,127
28440,note_off,101,0,0,,4,,,52,127
28443,note_on,3,0,0,,8,,,56,127
28544,note_off,101,0,0,,8,,,56,127
28547,note_on,3,0,0,,12,,,59,127
28648,note_off,101,0,0,,12,,,59,127
28651,note_on,3,0,0,,4,,,64,127
28752,note_off,101,0,0,,4,,,64,127
28755,note_on,3,0,0,,12,,,59,127
28856,note_off,101,0,0,,12,,,59,127
28859,note_on,3,0,0,,8,,,68,127
28960,note_off,101,0,0,,8,,,68,127
28963,note_on,3,0,0,,4,,,64,127
29064,note_off,101,0,0,,4,,,64,127
29067,note_on,3,0,0,,4,,,76,127
29168,note_off,101,0,0,,4,,,40,127
29171,note_on,3,0,0,,12,,,59,127
29272,note_off,101,0,0,,12,,,59,127
29272,note_off,0,0,0,,4,,,76,127
29275,note_on,3,0,0,,8,,,56,127
29275,note_on,0,0,0,,12,,,71,127
29376,note_off,101,0,0,,8,,,56,127
29379,note_on,3,0,0,,4,,,52,127
29480,note_off,101,0,0,,4,,,52,127
29483,note_on,3,0,0,,1,,,61,127
29584,note_off,101,0,0,,1,,,61,127
29587,note_on,3,0,0,,10,,,57,127
29688,note_off,101,0,0,,10,,,57,127
29688,note_off,0,0,0,,12,,,71,127
29691,note_on,3,0,0,,3,,,63,127
29691,note_on,0,0,0,,10,,,69,127
29792,note_off,101,0,0,,3,,,63,127
29795,note_on,3,0,0,,12,,,59,127
29896,note_off,101,0,0,,12,,,59,127
29896,note_off,0,0,0,,10,,,69,127
29899,note_on,3,0,0,,4,,,64,127
29899,note_on,0,0,0,,8,,,68,127
30000,note_off,101,0,0,,8,,,68,127
30000,note_off,0,0,0,,4,,,64,127
30003,note_on,3,0,0,,4,,,64,127
30108,note_on,105,0,0,,8,,,68,127
30209,note_off,101,0,0,,8,,,68,127
30212,note_on,3,0,0,,12,,,71,127
30313,note_off,101,0,0,,12,,,71,127
30316,note_on,3,0,0,,4,,,76,127
30417,note_off,101,0,0,,4,,,76,127
30420,note_on,3,0,0,,12,,,71,127
30521,note_off,101,0,0,,12,,,71,127
30524,note_on,3,0,0,,8,,,80,127
30625,note_off,101,0,0,,8,,,80,127
30628,note_on,3,0,0,,4,,,76,127
30729,note_off,101,0,0,,4,,,76,127
30732,note_on,3,0,0,,12,,,83,127
30836,note_off,104,0,0,,4,,,64,127
30837,note_on,1,0,0,,12,,,71,127
30938,note_off,101,0,0,,12,,,71,127
30938,note_off,0,0,0,,12,,,83,127
30941,note_on,3,0,0,,8,,,68,127
30941,note_on,0,0,0,,12,,,83,127
31042,note_off,101,0,0,,8,,,68,127
31045,note_on,3,0,0,,4,,,64,127
31146,note_off,101,0,0,,4,,,64,127
31149,note_on,3,0,0,,1,,,73,127
31250,note_off,101,0,0,,1,,,73,127
31253,note_on,3,0,0,,10,,,69,127
31354,note_off,101,0,0,,10,,,69,127
31354,note_off,0,0,0,,12,,,83,127
31357,note_on,3,0,0,,3,,,75,127
31357,note_on,0,0,0,,10,,,81,127
31458,note_off,101,0,0,,3,,,75,127
31461,note_on,3,0,0,,12,,,71,127
31562,note_off,101,0,0,,12,,,71,127
31565,note_on,3,0,0,,4,,,76,127
31666,note_off,101,0,0,,10,,,81,127
31669,note_on,3,0,0,,8,,,80,127
31770,note_off,101,0,0,,8,,,80,127
31770,note_off,0,0,0,,4,,,76,127
31773,note_on,3,0,0,,8,,,68,127
31773,note_on,0,0,0,,6,,,78,127
31874,note_off,101,0,0,,6,,,78,127
31877,note_on,3,0,0,,4,,,76,127
31978,note_off,101,0,0,,4,,,76,127
31978,note_off,0,0,0,,8,,,68,127
31981,note_on,3,0,0,,10,,,69,127
31981,note_on,0,0,0,,8,,,80,127
32082,note_off,101,0,0,,8,,,80,127
32085,note_on,3,0,0,,6,,,78,127
32186,note_off,101,0,0,,6,,,78,127
32186,note_off,0,0,0,,10,,,69,127
32189,note_on,3,0,0,,12,,,71,127
32189,note_on,0,0,0,,4,,,76,127
32290,note_off,101,0,0,,4,,,76,127
32293,note_on,3,0,0,,3,,,75,127
32394,note_off,101,0,0,,3,,,75,127
32394,note_off,0,0,0,,12,,,71,127
32397,note_on,3,0,0,,4,,,64,127
32397,note_on,0,0,0,,4,,,76,127
32498,note_off,101,0,0,,4,,,76,127
32498,note_off,0,0,0,,4,,,64,127
32508,note_on,10,0,0,,8,,,80,127
32508,note_on,0,0,0,,4,,,76,127
32609,note_off,101,0,0,,4,,,76,127
32609,note_off,0,0,0,,8,,,80,127
32612,note_on,3,0,0,,6,,,78,127
32612,note_on,0,0,0,,3,,,75,127
32713,note_off,101,0,0,,3,,,75,127
32713,note_off,0,0,0,,6,,,78,127
32716,note_on,3,0,0,,4,,,76,127
32716,note_on,0,0,0,,1,,,73,127
32817,note_off,101,0,0,,1,,,73,127
32817,note_off,0,0,0,,4,,,76,127
32820,note_on,3,0,0,,3,,,75,127
32820,note_on,0,0,0,,12,,,71,127
32921,note_off,101,0,0,,12,,,71,127
32921,note_off,0,0,0,,3,,,75,127
32924,note_on,3,0,0,,1,,,73,127
32924,note_on,0,0,0,,10,,,69,127
33025,note_off,101,0,0,,10,,,69,127
33025,note_off,0,0,0,,1,,,73,127
33028,note_on,3,0,0,,12,,,71,127
33028,note_on,0,0,0,,8,,,68,127
33129,note_off,101,0,0,,8,,,68,127
33129,note_off,0,0,0,,12,,,71,127
33132,note_on,3,0,0,,10,,,69,127
33132,note_on,0,0,0,,6,,,66,127
33233,note_off,101,0,0,,6,,,66,127
33233,note_off,0,0,0,,10,,,69,127
33236,note_on,3,0,0,,8,,,68,127
33236,note_on,0,0,0,,4,,,64,127
33337,note_off,101,0,0,,8,,,68,127
33340,note_on,3,0,0,,10,,,69,127
33441,note_off,101,0,0,,10,,,69,127
33441,note_off,0,0,0,,4,,,64,127
33444,note_on,3,0,0,,12,,,71,127
33444,note_on,0,0,0,,10,,,57,127
33545,note_off,101,0,0,,12,,,71,127
33548,note_on,3,0,0,,10,,,69,127
33649,note_off,101,0,0,,10,,,69,127
33649,note_off,0,0,0,,10,,,57,127
33652,note_on,3,0,0,,8,,,68,127
33652,note_on,0,0,0,,12,,,59,127
33753,note_off,101,0,0,,8,,,68,127
33756,note_on,3,0,0,,6,,,66,127
33857,note_off,101,0,0,,6,,,66,127
33860,note_on,3,0,0,,4,,,64,127
33860,note_on,0,0,0,,12,,,47,127
33961,note_off,101,0,0,,4,,,64,127
33964,note_on,3,0,0,,3,,,63,127
34065,note_off,101,0,0,,3,,,63,127
34065,note_off,0,0,0,,12,,,47,127
34067,note_off,2,0,0,,12,,,59,127
34068,note_on,1,0,0,,4,,,64,127
34068,note_on,0,0,0,,4,,,52,127
34192,note_on,124,0,0,,7,,,67,127
34274,note_off,82,0,0,,4,,,52,127
34276,note_off,2,0,0,,4,,,64,127
34293,note_off,17,0,0,,7,,,67,127
34296,note_on,3,0,0,,6,,,66,127
34296,note_on,0,0,0,,12,,,83,127
34397,note_off,101,0,0,,6,,,66,127
34400,note_on,3,0,0,,7,,,67,127
34501,note_off,101,0,0,,7,,,67,127
34501,note_off,0,0,0,,12,,,83,127
34504,note_on,3,0,0,,12,,,71,127
34504,note_on,0,0,0,,0,,,84,127
34605,note_off,101,0,0,,12,,,71,127
34608,note_on,3,0,0,,10,,,69,127
34709,note_off,101,0,0,,10,,,69,127
34709,note_off,0,0,0,,0,,,84,127
34712,note_on,3,0,0,,7,,,67,127
34712,note_on,0,0,0,,3,,,51,127
34813,note_off,101,0,0,,7,,,67,127
34816,note_on,3,0,0,,6,,,66,127
34917,note_off,101,0,0,,6,,,66,127
34917,note_off,0,0,0,,3,,,51,127
34920,note_on,3,0,0,,7,,,67,127
34920,note_on,0,0,0,,4,,,52,127
35021,note_off,101,0,0,,7,,,67,127
35024,note_on,3,0,0,,7,,,67,127
35125,note_off,101,0,0,,7,,,67,127
35125,note_off,0,0,0,,4,,,52,127
35128,note_on,3,0,0,,6,,,66,127
35128,note_on,0,0,0,,12,,,83,127
35229,note_off,101,0,0,,6,,,66,127
35232,note_on,3,0,0,,7,,,67,127
35333,note_off,101,0,0,,7,,,67,127
35333,note_off,0,0,0,,12,,,83,127
35336,note_on,3,0,0,,12,,,71,127
35336,note_on,0,0,0,,0,,,84,127
35437,note_off,101,0,0,,12,,,71,127
35440,note_on,3,0,0,,10,,,69,127
35541,note_off,101,0,0,,10,,,69,127
35541,note_off,0,0,0,,0,,,84,127
35544,note_on,3,0,0,,7,,,67,127
35544,note_on,0,0,0,,3,,,51,127
35645,note_off,101,0,0,,7,,,67,127
35648,note_on,3,0,0,,6,,,66,127
35749,note_off,101,0,0,,6,,,66,127
35749,note_off,0,0,0,,3,,,51,127
35752,note_on,3,0,0,,7,,,67,127
35752,note_on,0,0,0,,4,,,52,127
35853,note_off,101,0,0,,7,,,67,127
35856,note_on,3,0,0,,6,,,66,127
35957,note_off,101,0,0,,6,,,66,127
35957,note_off,0,0,0,,4,,,52,127
35960,note_on,3,0,0,,7,,,67,127
35960,note_on,0,0,0,,0,,,84,127
36061,note_off,101,0,0,,7,,,67,127
36064,note_on,3,0,0,,10,,,69,127
36165,note_off,101,0,0,,10,,,69,127
36165,note_off,0,0,0,,0,,,84,127
36168,note_on,3,0,0,,12,,,71,127
36168,note_on,0,0,0,,12,,,83,127
36269,note_off,101,0,0,,12,,,71,127
36272,note_on,3,0,0,,5,,,65,127
36373,note_off,101,0,0,,5,,,65,127
36373,note_off,0,0,0,,12,,,83,127
36376,note_on,3,0,0,,10,,,69,127
36376,note_on,0,0,0,,2,,,50,127
36477,note_off,101,0,0,,10,,,69,127
36480,note_on,3,0,0,,8,,,68,127
36581,note_off,101,0,0,,8,,,68,127
36581,note_off,0,0,0,,2,,,50,127
36584,note_on,3,0,0,,10,,,69,127
36584,note_on,0,0,0,,0,,,48,127
36685,note_off,101,0,0,,10,,,69,127
36688,note_on,3,0,0,,4,,,64,127
36789,note_off,101,0,0,,4,,,64,127
36789,note_off,0,0,0,,0,,,48,127
36792,note_on,3,0,0,,10,,,69,127
36792,note_on,0,0,0,,0,,,84,127
36893,note_off,101,0,0,,10,,,69,127
36896,note_on,3,0,0,,0,,,72,127
36997,note_off,101,0,0,,0,,,72,127
36997,note_off,0,0,0,,0,,,84,127
37000,note_on,3,0,0,,12,,,71,127
37000,note_on,0,0,0,,12,,,83,127
37101,note_off,101,0,0,,12,,,71,127
37104,note_on,3,0,0,,5,,,65,127
37205,note_off,101,0,0,,5,,,65,127
37205,note_off,0,0,0,,12,,,83,127
37208,note_on,3,0,0,,4,,,64,127
37208,note_on,0,0,0,,2,,,50,127
37309,note_off,101,0,0,,4,,,64,127
37312,note_on,3,0,0,,2,,,62,127
37413,note_off,101,0,0,,2,,,62,127
37413,note_off,0,0,0,,2,,,50,127
37416,note_on,3,0,0,,10,,,69,127
37416,note_on,0,0,0,,0,,,48,127
37517,note_off,101,0,0,,10,,,69,127
37520,note_on,3,0,0,,3,,,63,127
37621,note_off,101,0,0,,3,,,63,127
37621,note_off,0,0,0,,0,,,48,127
37624,note_on,3,0,0,,4,,,64,127
37624,note_on,0,0,0,,10,,,81,127
37725,note_off,101,0,0,,4,,,64,127
37728,note_on,3,0,0,,10,,,69,127
37829,note_off,101,0,0,,10,,,69,127
37829,note_off,0,0,0,,10,,,81,127
37832,note_on,3,0,0,,7,,,67,127
37832,note_on,0,0,0,,7,,,79,127
37933,note_off,101,0,0,,7,,,67,127
37936,note_on,3,0,0,,4,,,64,127
38037,note_off,101,0,0,,4,,,64,127
38037,note_off,0,0,0,,7,,,79,127
38040,note_on,3,0,0,,6,,,66,127
38040,note_on,0,0,0,,12,,,47,127
38141,note_off,101,0,0,,6,,,66,127
38144,note_on,3,0,0,,3,,,63,127
38245,note_off,101,0,0,,3,,,63,127
38245,note_off,0,0,0,,12,,,47,127
38248,note_on,3,0,0,,7,,,67,127
38248,note_on,0,0,0,,4,,,64,127
38248,note_on,0,0,0,,0,,,48,127
38349,note_off,101,0,0,,4,,,64,127
38352,note_on,3,0,0,,10,,,57,127
38404,note_off,52,0,0,,7,,,67,127
38453,note_off,49,0,0,,10,,,57,127
38453,note_off,0,0,0,,0,,,48,127
38456,note_on,3,0,0,,6,,,66,127
38456,note_on,0,0,0,,10,,,69,127
38456,note_on,0,0,0,,10,,,81,127
38557,note_off,101,0,0,,6,,,66,127
38560,note_on,3,0,0,,12,,,59,127
38612,note_off,52,0,0,,10,,,69,127
38661,note_off,49,0,0,,12,,,59,127
38661,note_off,0,0,0,,10,,,81,127
38664,note_on,3,0,0,,4,,,64,127
38664,note_on,0,0,0,,7,,,67,127
38664,note_on,0,0,0,,7,,,79,127
38765,note_off,101,0,0,,4,,,64,127
38768,note_on,3,0,0,,12,,,59,127
38820,note_off,52,0,0,,7,,,67,127
38869,note_off,49,0,0,,12,,,59,127
38869,note_off,0,0,0,,7,,,79,127
38872,note_on,3,0,0,,6,,,66,127
38872,note_on,0,0,0,,3,,,63,127
38872,note_on,0,0,0,,12,,,47,127
38973,note_off,101,0,0,,3,,,63,127
38976,note_on,3,0,0,,12,,,59,127
39028,note_off,52,0,0,,6,,,66,127
39077,note_off,49,0,0,,12,,,59,127
39077,note_off,0,0,0,,12,,,47,127
39080,note_on,3,0,0,,4,,,64,127
39080,note_on,0,0,0,,7,,,67,127
39080,note_on,0,0,0,,4,,,52,127
39181,note_off,101,0,0,,4,,,64,127
39184,note_on,3,0,0,,12,,,59,127
39236,note_off,52,0,0,,7,,,67,127
39285,note_off,49,0,0,,12,,,59,127
39285,note_off,0,0,0,,4,,,52,127
39288,note_on,3,0,0,,6,,,66,127
39288,note_on,0,0,0,,10,,,69,127
39288,note_on,0,0,0,,10,,,81,127
39389,note_off,101,0,0,,6,,,66,127
39392,note_on,3,0,0,,12,,,59,127
39444,note_off,52,0,0,,10,,,69,127
39493,note_off,49,0,0,,12,,,59,127
39493,note_off,0,0,0,,10,,,81,127
39496,note_on,3,0,0,,7,,,67,127
39496,note_on,0,0,0,,4,,,64,127
39496,note_on,0,0,0,,7,,,79,127
39597,note_off,101,0,0,,4,,,64,127
39600,note_on,3,0,0,,12,,,59,127
39652,note_off,52,0,0,,7,,,67,127
39701,note_off,49,0,0,,12,,,59,127
39701,note_off,0,0,0,,7,,,79,127
39704,note_on,3,0,0,,3,,,63,127
39704,note_on,0,0,0,,6,,,66,127
39704,note_on,0,0,0,,12,,,47,127
39805,note_off,101,0,0,,3,,,63,127
39808,note_on,3,0,0,,12,,,59,127
39860,note_off,52,0,0,,6,,,66,127
39909,note_off,49,0,0,,12,,,59,127
39909,note_off,0,0,0,,12,,,47,127
39919,note_on,10,0,0,,4,,,52,127
39919,note_on,0,0,0,,4,,,64,127
39919,note_on,0,0,0,,7,,,67,127
40020,note_off,101,0,0,,7,,,67,127
40023,note_on,3,0,0,,12,,,71,127
40124,note_off,101,0,0,,12,,,71,127
40124,note_off,0,0,0,,4,,,52,127
40127,note_on,3,0,0,,12,,,83,127
40127,note_on,0,0,0,,7,,,67,127
40227,note_off,100,0,0,,4,,,64,127
40228,note_off,1,0,0,,7,,,67,127
40231,note_on,3,0,0,,4,,,64,127
40332,note_off,101,0,0,,4,,,64,127
40332,note_off,0,0,0,,12,,,83,127
40335,note_on,3,0,0,,10,,,57,127
40335,note_on,0,0,0,,0,,,72,127
40436,note_off,101,0,0,,0,,,72,127
40439,note_on,3,0,0,,10,,,69,127
40540,note_off,101,0,0,,10,,,69,127
40540,note_off,0,0,0,,10,,,57,127
40543,note_on,3,0,0,,0,,,84,127
40543,note_on,0,0,0,,4,,,64,127
40644,note_off,101,0,0,,4,,,64,127
40647,note_on,3,0,0,,0,,,72,127
40748,note_off,101,0,0,,0,,,72,127
40748,note_off,0,0,0,,0,,,84,127
40751,note_on,3,0,0,,7,,,55,127
40751,note_on,0,0,0,,12,,,71,127
40852,note_off,101,0,0,,12,,,71,127
40855,note_on,3,0,0,,7,,,67,127
40956,note_off,101,0,0,,7,,,67,127
40956,note_off,0,0,0,,7,,,55,127
40959,note_on,3,0,0,,12,,,83,127
40959,note_on,0,0,0,,4,,,64,127
41060,note_off,101,0,0,,4,,,64,127
41063,note_on,3,0,0,,12,,,71,127
41164,note_off,101,0,0,,12,,,71,127
41164,note_off,0,0,0,,12,,,83,127
41167,note_on,3,0,0,,6,,,54,127
41167,note_on,0,0,0,,10,,,69,127
41268,note_off,101,0,0,,10,,,69,127
41271,note_on,3,0,0,,6,,,66,127
41372,note_off,101,0,0,,6,,,66,127
41372,note_off,0,0,0,,6,,,54,127
41375,note_on,3,0,0,,10,,,81,127
41375,note_on,0,0,0,,3,,,63,127
41476,note_off,101,0,0,,3,,,63,127
41479,note_on,3,0,0,,10,,,69,127
41580,note_off,101,0,0,,10,,,69,127
41580,note_off,0,0,0,,10,,,81,127
41583,note_on,3,0,0,,4,,,52,127
41583,note_on,0,0,0,,7,,,67,127
41684,note_off,101,0,0,,7,,,67,127
41687,note_on,3,0,0,,4,,,64,127
41788,note_off,101,0,0,,4,,,64,127
41788,note_off,0,0,0,,4,,,52,127
41791,note_on,3,0,0,,7,,,79,127
41791,note_on,0,0,0,,0,,,60,127
41892,note_off,101,0,0,,0,,,60,127
41895,note_on,3,0,0,,10,,,69,127
41996,note_off,101,0,0,,10,,,69,127
41996,note_off,0,0,0,,7,,,79,127
41999,note_on,3,0,0,,2,,,50,127
41999,note_on,0,0,0,,12,,,71,127
42100,note_off,101,0,0,,12,,,71,127
42103,note_on,3,0,0,,6,,,66,127
42204,note_off,101,0,0,,6,,,66,127
42204,note_off,0,0,0,,2,,,50,127
42207,note_on,3,0,0,,6,,,78,127
42207,note_on,0,0,0,,2,,,62,127
42308,note_off,101,0,0,,2,,,62,127
42311,note_on,3,0,0,,6,,,66,127
42412,note_off,101,0,0,,6,,,66,127
42412,note_off,0,0,0,,6,,,78,127
42415,note_on,3,0,0,,0,,,48,127
42415,note_on,0,0,0,,10,,,69,127
42516,note_off,101,0,0,,10,,,69,127
42519,note_on,3,0,0,,4,,,64,127
42620,note_off,101,0,0,,4,,,64,127
42620,note_off,0,0,0,,0,,,48,127
42623,note_on,3,0,0,,4,,,76,127
42623,note_on,0,0,0,,0,,,60,127
42724,note_off,101,0,0,,0,,,60,127
42727,note_on,3,0,0,,10,,,69,127
42828,note_off,101,0,0,,10,,,69,127
42828,note_off,0,0,0,,4,,,76,127
42831,note_on,3,0,0,,12,,,47,127
42831,note_on,0,0,0,,12,,,71,127
42932,note_off,101,0,0,,12,,,71,127
42935,note_on,3,0,0,,6,,,66,127
43036,note_off,101,0,0,,6,,,66,127
43036,note_off,0,0,0,,12,,,47,127
43039,note_on,3,0,0,,3,,,75,127
43039,note_on,0,0,0,,3,,,63,127
43140,note_off,101,0,0,,3,,,63,127
43143,note_on,3,0,0,,12,,,59,127
43244,note_off,101,0,0,,12,,,59,127
43247,note_on,3,0,0,,12,,,71,127
43348,note_off,101,0,0,,12,,,71,127
43351,note_on,3,0,0,,10,,,69,127
43452,note_off,101,0,0,,10,,,69,127
43452,note_off,0,0,0,,3,,,75,127
43455,note_on,3,0,0,,3,,,51,127
43455,note_on,0,0,0,,12,,,59,127
43455,note_on,0,0,0,,7,,,67,127
43556,note_off,101,0,0,,7,,,67,127
43559,note_on,3,0,0,,6,,,66,127
43660,note_off,101,0,0,,6,,,66,127
43660,note_off,0,0,0,,12,,,59,127
43660,note_off,0,0,0,,3,,,51,127
43663,note_on,3,0,0,,4,,,52,127
43663,note_on,0,0,0,,7,,,67,127
43764,note_off,101,0,0,,7,,,67,127
43767,note_on,3,0,0,,4,,,64,127
43868,note_off,101,0,0,,4,,,64,127
43868,note_off,0,0,0,,4,,,52,127
43871,note_on,3,0,0,,10,,,57,127
43871,note_on,0,0,0,,10,,,69,127
43972,note_off,101,0,0,,10,,,69,127
43975,note_on,3,0,0,,6,,,66,127
44076,note_off,101,0,0,,6,,,66,127
44076,note_off,0,0,0,,10,,,57,127
44079,note_on,3,0,0,,12,,,59,127
44079,note_on,0,0,0,,7,,,67,127
44180,note_off,101,0,0,,7,,,67,127
44183,note_on,3,0,0,,4,,,64,127
44284,note_off,101,0,0,,4,,,64,127
44287,note_on,3,0,0,,12,,,47,127
44287,note_on,0,0,0,,6,,,66,127
44388,note_off,101,0,0,,6,,,66,127
44391,note_on,3,0,0,,3,,,63,127
44492,note_off,101,0,0,,3,,,63,127
44492,note_off,0,0,0,,12,,,47,127
44494,note_off,2,0,0,,12,,,59,127
44495,note_on,1,0,0,,4,,,52,127
44495,note_on,0,0,0,,4,,,64,127
44606,note_on,111,0,0,,12,,,71,127
44609,note_off,3,0,0,,4,,,64,127
44701,note_off,92,0,0,,4,,,52,127
44714,note_off,13,0,0,,12,,,71,127
44717,note_on,3,0,0,,12,,,83,127
44717,note_on,0,0,0,,7,,,67,127
44818,note_off,101,0,0,,7,,,67,127
44821,note_on,3,0,0,,4,,,64,127
44922,note_off,101,0,0,,4,,,64,127
44922,note_off,0,0,0,,12,,,83,127
44925,note_on,3,0,0,,10,,,57,127
44925,note_on,0,0,0,,0,,,72,127
45026,note_off,101,0,0,,0,,,72,127
45029,note_on,3,0,0,,10,,,69,127
45130,note_off,101,0,0,,10,,,69,127
45130,note_off,0,0,0,,10,,,57,127
45133,note_on,3,0,0,,0,,,84,127
45133,note_on,0,0,0,,4,,,64,127
45234,note_off,101,0,0,,4,,,64,127
45237,note_on,3,0,0,,0,,,72,127
45338,note_off,101,0,0,,0,,,72,127
45338,note_off,0,0,0,,0,,,84,127
45341,note_on,3,0,0,,7,,,55,127
45341,note_on,0,0,0,,12,,,71,127
45442,note_off,101,0,0,,12,,,71,127
45445,note_on,3,0,0,,7,,,67,127
45546,note_off,101,0,0,,7,,,67,127
45546,note_off,0,0,0,,7,,,55,127
45549,note_on,3,0,0,,12,,,83,127
45549,note_on,0,0,0,,4,,,64,127
45650,note_off,101,0,0,,4,,,64,127
45653,note_on,3,0,0,,12,,,71,127
45754,note_off,101,0,0,,12,,,71,127
45754,note_off,0,0,0,,12,,,83,127
45757,note_on,3,0,0,,6,,,54,127
45757,note_on,0,0,0,,10,,,69,127
45858,note_off,101,0,0,,10,,,69,127
45861,note_on,3,0,0,,6,,,66,127
45962,note_off,101,0,0,,6,,,66,127
45962,note_off,0,0,0,,6,,,54,127
45965,note_on,3,0,0,,10,,,81,127
45965,note_on,0,0,0,,3,,,63,127
46066,note_off,101,0,0,,3,,,63,127
46069,note_on,3,0,0,,10,,,69,127
46170,note_off,101,0,0,,10,,,69,127
46170,note_off,0,0,0,,10,,,81,127
46173,note_on,3,0,0,,4,,,52,127
46173,note_on,0,0,0,,7,,,67,127
46274,note_off,101,0,0,,7,,,67,127
46277,note_on,3,0,0,,4,,,64,127
46378,note_off,101,0,0,,4,,,64,127
46378,note_off,0,0,0,,4,,,52,127
46381,note_on,3,0,0,,7,,,79,127
46381,note_on,0,0,0,,0,,,60,127
46482,note_off,101,0,0,,0,,,60,127
46485,note_on,3,0,0,,7,,,67,127
46586,note_off,101,0,0,,7,,,67,127
46586,note_off,0,0,0,,7,,,79,127
46589,note_on,3,0,0,,2,,,50,127
46589,note_on,0,0,0,,6,,,66,127
46690,note_off,101,0,0,,6,,,66,127
46693,note_on,3,0,0,,2,,,62,127
46794,note_off,101,0,0,,2,,,62,127
46794,note_off,0,0,0,,2,,,50,127
46797,note_on,3,0,0,,6,,,78,127
46797,note_on,0,0,0,,12,,,59,127
46898,note_off,101,0,0,,12,,,59,127
46901,note_on,3,0,0,,6,,,66,127
47002,note_off,101,0,0,,6,,,66,127
47002,note_off,0,0,0,,6,,,78,127
47005,note_on,3,0,0,,0,,,48,127
47005,note_on,0,0,0,,4,,,64,127
47106,note_off,101,0,0,,4,,,64,127
47109,note_on,3,0,0,,0,,,60,127
47210,note_off,101,0,0,,0,,,60,127
47210,note_off,0,0,0,,0,,,48,127
47213,note_on,3,0,0,,4,,,76,127
47213,note_on,0,0,0,,10,,,57,127
47314,note_off,101,0,0,,10,,,57,127
47316,note_off,2,0,0,,4,,,76,127
47317,note_on,1,0,0,,4,,,64,127
47418,note_off,101,0,0,,4,,,64,127
47421,note_on,3,0,0,,12,,,47,127
47421,note_on,0,0,0,,3,,,63,127
47522,note_off,101,0,0,,3,,,63,127
47525,note_on,3,0,0,,12,,,59,127
47626,note_off,101,0,0,,12,,,59,127
47626,note_off,0,0,0,,12,,,47,127
47629,note_on,3,0,0,,12,,,47,127
47629,note_on,0,0,0,,3,,,63,127
47730,note_off,101,0,0,,3,,,63,127
47733,note_on,3,0,0,,6,,,66,127
47834,note_off,101,0,0,,6,,,66,127
47837,note_on,3,0,0,,12,,,71,127
47938,note_off,101,0,0,,12,,,71,127
47941,note_on,3,0,0,,10,,,69,127
48042,note_off,101,0,0,,10,,,69,127
48042,note_off,0,0,0,,12,,,47,127
48045,note_on,3,0,0,,3,,,51,127
48045,note_on,0,0,0,,7,,,67,127
48146,note_off,101,0,0,,7,,,67,127
48149,note_on,3,0,0,,6,,,66,127
48250,note_off,101,0,0,,6,,,66,127
48250,note_off,0,0,0,,3,,,51,127
48253,note_on,3,0,0,,4,,,52,127
48253,note_on,0,0,0,,7,,,67,127
48354,note_off,101,0,0,,7,,,67,127
48357,note_on,3,0,0,,4,,,64,127
48458,note_off,101,0,0,,4,,,64,127
48458,note_off,0,0,0,,4,,,52,127
48461,note_on,3,0,0,,10,,,57,127
48461,note_on,0,0,0,,10,,,69,127
48562,note_off,101,0,0,,10,,,69,127
48565,note_on,3,0,0,,6,,,66,127
48666,note_off,101,0,0,,6,,,66,127
48666,note_off,0,0,0,,10,,,57,127
48669,note_on,3,0,0,,12,,,59,127
48669,note_on,0,0,0,,7,,,67,127
48770,note_off,101,0,0,,7,,,67,127
48773,note_on,3,0,0,,4,,,64,127
48874,note_off,101,0,0,,4,,,64,127
48877,note_on,3,0,0,,12,,,47,127
48877,note_on,0,0,0,,6,,,66,127
48978,note_off,101,0,0,,6,,,66,127
48981,note_on,3,0,0,,3,,,63,127
49082,note_off,101,0,0,,3,,,63,127
49082,note_off,0,0,0,,12,,,47,127
49084,note_off,2,0,0,,12,,,59,127
49085,note_on,1,0,0,,4,,,52,127
49085,note_on,0,0,0,,4,,,64,127
49186,note_off,101,0,0,,4,,,64,127
49189,note_on,3,0,0,,12,,,59,127
49290,note_off,101,0,0,,12,,,59,127
49290,note_off,0,0,0,,4,,,52,127
49293,note_on,3,0,0,,12,,,83,127
49293,note_on,0,0,0,,8,,,68,127
49394,note_off,101,0,0,,8,,,68,127
49397,note_on,3,0,0,,4,,,64,127
49498,note_off,101,0,0,,4,,,64,127
49498,note_off,0,0,0,,12,,,83,127
49501,note_on,3,0,0,,12,,,47,127
49501,note_on,0,0,0,,6,,,66,127
49602,note_off,101,0,0,,6,,,66,127
49605,note_on,3,0,0,,3,,,63,127
49706,note_off,101,0,0,,3,,,63,127
49709,note_on,3,0,0,,10,,,69,127
49810,note_off,101,0,0,,10,,,69,127
49813,note_on,3,0,0,,6,,,66,127
49914,note_off,101,0,0,,6,,,66,127
49914,note_off,0,0,0,,12,,,47,127
49917,note_on,3,0,0,,4,,,52,127
49917,note_on,0,0,0,,8,,,68,127
50018,note_off,101,0,0,,8,,,68,127
50021,note_on,3,0,0,,4,,,64,127
50122,note_off,101,0,0,,4,,,64,127
50122,note_off,0,0,0,,4,,,52,127
50125,note_on,3,0,0,,12,,,83,127
50125,note_on,0,0,0,,12,,,71,127
50226,note_off,101,0,0,,12,,,71,127
50229,note_on,3,0,0,,4,,,64,127
50330,note_off,101,0,0,,4,,,64,127
50330,note_off,0,0,0,,12,,,83,127
50333,note_on,3,0,0,,12,,,35,127
50333,note_on,0,0,0,,6,,,66,127
50434,note_off,101,0,0,,6,,,66,127
50437,note_on,3,0,0,,3,,,63,127
50538,note_off,101,0,0,,3,,,63,127
50541,note_on,3,0,0,,10,,,69,127
50642,note_off,101,0,0,,10,,,69,127
50645,note_on,3,0,0,,6,,,66,127
50746,note_off,101,0,0,,6,,,66,127
50746,note_off,0,0,0,,12,,,35,127
50749,note_on,3,0,0,,4,,,40,127
50749,note_on,0,0,0,,8,,,68,127
50850,note_off,101,0,0,,8,,,68,127
50853,note_on,3,0,0,,4,,,64,127
50954,note_off,101,0,0,,4,,,64,127
50954,note_off,0,0,0,,4,,,40,127
50957,note_on,3,0,0,,12,,,83,127
50957,note_on,0,0,0,,12,,,71,127
51058,note_off,101,0,0,,12,,,71,127
51061,note_on,3,0,0,,4,,,64,127
51162,note_off,101,0,0,,4,,,64,127
51162,note_off,0,0,0,,12,,,83,127
51165,note_on,3,0,0,,12,,,35,127
51165,note_on,0,0,0,,6,,,66,127
51266,note_off,101,0,0,,6,,,66,127
51269,note_on,3,0,0,,3,,,63,127
51370,note_off,101,0,0,,3,,,63,127
51373,note_on,3,0,0,,10,,,69,127
51474,note_off,101,0,0,,10,,,69,127
51477,note_on,3,0,0,,6,,,66,127
51578,note_off,101,0,0,,6,,,66,127
51578,note_off,0,0,0,,12,,,35,127
51581,note_on,3,0,0,,4,,,40,127
51581,note_on,0,0,0,,8,,,68,127
51682,note_off,101,0,0,,8,,,68,127
51685,note_on,3,0,0,,10,,,69,127
51786,note_off,101,0,0,,10,,,69,127
51786,note_off,0,0,0,,4,,,40,127
51789,note_on,3,0,0,,10,,,57,127
51789,note_on,0,0,0,,12,,,71,127
51890,note_off,101,0,0,,12,,,71,127
51893,note_on,3,0,0,,10,,,69,127
51994,note_off,101,0,0,,10,,,69,127
51994,note_off,0,0,0,,10,,,57,127
51997,note_on,3,0,0,,12,,,59,127
51997,note_on,0,0,0,,8,,,68,127
52098,note_off,101,0,0,,8,,,68,127
52101,note_on,3,0,0,,6,,,66,127
52202,note_off,101,0,0,,6,,,66,127
52205,note_on,3,0,0,,12,,,47,127
52205,note_on,0,0,0,,4,,,64,127
52306,note_off,101,0,0,,4,,,64,127
52309,note_on,3,0,0,,3,,,63,127
52410,note_off,101,0,0,,3,,,63,127
52410,note_off,0,0,0,,12,,,47,127
52412,note_off,2,0,0,,12,,,59,127
52413,note_on,1,0,0,,4,,,52,127
52413,note_on,0,0,0,,4,,,64,127
52514,note_off,101,0,0,,4,,,64,127
52517,note_on,3,0,0,,12,,,59,127
52618,note_off,101,0,0,,12,,,59,127
52618,note_off,0,0,0,,4,,,52,127
52621,note_on,3,0,0,,12,,,83,127
52621,note_on,0,0,0,,8,,,68,127
52722,note_off,101,0,0,,8,,,68,127
52725,note_on,3,0,0,,4,,,64,127
52826,note_off,101,0,0,,4,,,64,127
52826,note_off,0,0,0,,12,,,83,127
52829,note_on,3,0,0,,12,,,47,127
52829,note_on,0,0,0,,6,,,66,127
52930,note_off,101,0,0,,6,,,66,127
52933,note_on,3,0,0,,3,,,63,127
53034,note_off,101,0,0,,3,,,63,127
53037,note_on,3,0,0,,10,,,69,127
53138,note_off,101,0,0,,10,,,69,127
53141,note_on,3,0,0,,6,,,66,127
53242,note_off,101,0,0,,6,,,66,127
53242,note_off,0,0,0,,12,,,47,127
53245,note_on,3,0,0,,4,,,52,127
53245,note_on,0,0,0,,8,,,68,127
53346,note_off,101,0,0,,8,,,68,127
53349,note_on,3,0,0,,4,,,64,127
53450,note_off,101,0,0,,4,,,64,127
53450,note_off,0,0,0,,4,,,52,127
53453,note_on,3,0,0,,12,,,83,127
53453,note_on,0,0,0,,12,,,71,127
53554,note_off,101,0,0,,12,,,71,127
53557,note_on,3,0,0,,4,,,64,127
53658,note_off,101,0,0,,4,,,64,127
53658,note_off,0,0,0,,12,,,83,127
53661,note_on,3,0,0,,12,,,35,127
53661,note_on,0,0,0,,6,,,66,127
53762,note_off,101,0,0,,6,,,66,127
53765,note_on,3,0,0,,3,,,63,127
53866,note_off,101,0,0,,3,,,63,127
53869,note_on,3,0,0,,10,,,69,127
53970,note_off,101,0,0,,10,,,69,127
53973,note_on,3,0,0,,6,,,66,127
54074,note_off,101,0,0,,6,,,66,127
54074,note_off,0,0,0,,12,,,35,127
54077,note_on,3,0,0,,4,,,40,127
54077,note_on,0,0,0,,8,,,68,127
54178,note_off,101,0,0,,8,,,68,127
54181,note_on,3,0,0,,4,,,64,127
54282,note_off,101,0,0,,4,,,64,127
54282,note_off,0,0,0,,4,,,40,127
54285,note_on,3,0,0,,12,,,83,127
54285,note_on,0,0,0,,12,,,71,127
54386,note_off,101,0,0,,12,,,71,127
54389,note_on,3,0,0,,4,,,64,127
54490,note_off,101,0,0,,4,,,64,127
54490,note_off,0,0,0,,12,,,83,127
54493,note_on,3,0,0,,12,,,35,127
54493,note_on,0,0,0,,6,,,66,127
54594,note_off,101,0,0,,6,,,66,127
54597,note_on,3,0,0,,3,,,63,127
54698,note_off,101,0,0,,3,,,63,127
54701,note_on,3,0,0,,10,,,69,127
54802,note_off,101,0,0,,10,,,69,127
54805,note_on,3,0,0,,6,,,66,127
54906,note_off,101,0,0,,6,,,66,127
54906,note_off,0,0,0,,12,,,35,127
54909,note_on,3,0,0,,4,,,40,127
54909,note_on,0,0,0,,8,,,68,127
55010,note_off,101,0,0,,8,,,68,127
55013,note_on,3,0,0,,10,,,69,127
55114,note_off,101,0,0,,10,,,69,127
55114,note_off,0,0,0,,4,,,40,127
55117,note_on,3,0,0,,10,,,57,127
55117,note_on,0,0,0,,12,,,71,127
55218,note_off,101,0,0,,12,,,71,127
55221,note_on,3,0,0,,10,,,69,127
55322,note_off,101,0,0,,10,,,69,127
55322,note_off,0,0,0,,10,,,57,127
55325,note_on,3,0,0,,12,,,59,127
55325,note_on,0,0,0,,8,,,68,127
55426,note_off,101,0,0,,8,,,68,127
55429,note_on,3,0,0,,6,,,66,127
55530,note_off,101,0,0,,6,,,66,127
55533,note_on,3,0,0,,12,,,47,127
55533,note_on,0,0,0,,4,,,64,127
55634,note_off,101,0,0,,4,,,64,127
55637,note_on,3,0,0,,3,,,63,127
55738,note_off,101,0,0,,3,,,63,127
55738,note_off,0,0,0,,12,,,47,127
55740,note_off,2,0,0,,12,,,59,127
55741,note_on,1,0,0,,4,,,52,127
55741,note_on,0,0,0,,4,,,64,127
55842,note_off,101,0,0,,4,,,64,127
55845,note_on,3,0,0,,12,,,59,127
55946,note_off,101,0,0,,12,,,59,127
55946,note_off,0,0,0,,4,,,52,127
55949,note_on,3,0,0,,10,,,45,127
55949,note_on,0,0,0,,1,,,61,127
56050,note_off,101,0,0,,1,,,61,127
56053,note_on,3,0,0,,10,,,57,127
56154,note_off,101,0,0,,10,,,57,127
56154,note_off,0,0,0,,10,,,45,127
56157,note_on,3,0,0,,12,,,47,127
56157,note_on,0,0,0,,8,,,56,127
56258,note_off,101,0,0,,8,,,56,127
56261,note_on,3,0,0,,4,,,64,127
56362,note_off,101,0,0,,4,,,64,127
56362,note_off,0,0,0,,12,,,47,127
56365,note_on,3,0,0,,12,,,47,127
56365,note_on,0,0,0,,6,,,54,127
56466,note_off,101,0,0,,6,,,54,127
56469,note_on,3,0,0,,3,,,63,127
56570,note_off,101,0,0,,3,,,63,127
56570,note_off,0,0,0,,12,,,47,127
56573,note_on,3,0,0,,4,,,40,127
56573,note_on,0,0,0,,4,,,64,127
56674,note_off,101,0,0,,4,,,64,127
56677,note_on,3,0,0,,12,,,59,127
56778,note_off,101,0,0,,12,,,59,127
56781,note_on,3,0,0,,8,,,56,127
56882,note_off,101,0,0,,8,,,56,127
56885,note_on,3,0,0,,4,,,52,127
56985,note_off,100,0,0,,4,,,52,127
56989,note_on,4,0,0,,4,,,52,127
57405,note_off,416,0,0,,4,,,40,127
57407,note_off,2,0,0,,4,,,52,127
57426,note_on,19,0,0,,4,,,40,127
57531,note_on,105,0,0,,4,,,64,127
57632,note_off,101,0,0,,4,,,64,127
57635,note_on,3,0,0,,6,,,66,127
57736,note_off,101,0,0,,6,,,66,127
57739,note_on,3,0,0,,4,,,64,127
57840,note_off,101,0,0,,4,,,64,127
57843,note_on,3,0,0,,8,,,68,127
57944,note_off,101,0,0,,8,,,68,127
57947,note_on,3,0,0,,4,,,64,127
58048,note_off,101,0,0,,4,,,64,127
58051,note_on,3,0,0,,10,,,69,127
58152,note_off,101,0,0,,10,,,69,127
58155,note_on,3,0,0,,4,,,64,127
58256,note_off,101,0,0,,4,,,64,127
58256,note_off,0,0,0,,4,,,40,127
58259,note_on,3,0,0,,12,,,71,127
58259,note_on,0,0,0,,4,,,52,127
58360,note_off,101,0,0,,12,,,71,127
58363,note_on,3,0,0,,4,,,64,127
58464,note_off,101,0,0,,4,,,64,127
58464,note_off,0,0,0,,4,,,52,127
58467,note_on,3,0,0,,8,,,68,127
58467,note_on,0,0,0,,2,,,62,127
58467,note_on,0,0,0,,4,,,52,127
58568,note_off,101,0,0,,8,,,68,127
58571,note_on,3,0,0,,4,,,64,127
58672,note_off,101,0,0,,4,,,64,127
58672,note_off,0,0,0,,4,,,52,127
58672,note_off,0,0,0,,2,,,62,127
58675,note_on,3,0,0,,10,,,69,127
58675,note_on,0,0,0,,1,,,61,127
58675,note_on,0,0,0,,4,,,52,127
58776,note_off,101,0,0,,10,,,69,127
58779,note_on,3,0,0,,4,,,64,127
58880,note_off,101,0,0,,4,,,64,127
58880,note_off,0,0,0,,4,,,52,127
58880,note_off,0,0,0,,1,,,61,127
58883,note_on,3,0,0,,12,,,71,127
58883,note_on,0,0,0,,12,,,59,127
58883,note_on,0,0,0,,4,,,52,127
58984,note_off,101,0,0,,12,,,71,127
58987,note_on,3,0,0,,4,,,64,127
59088,note_off,101,0,0,,4,,,64,127
59088,note_off,0,0,0,,4,,,52,127
59088,note_off,0,0,0,,12,,,59,127
59091,note_on,3,0,0,,1,,,73,127
59091,note_on,0,0,0,,4,,,52,127
59091,note_on,0,0,0,,10,,,57,127
59192,note_off,101,0,0,,1,,,73,127
59195,note_on,3,0,0,,4,,,64,127
59296,note_off,101,0,0,,4,,,64,127
59296,note_off,0,0,0,,10,,,57,127
59296,note_off,0,0,0,,4,,,52,127
59299,note_on,3,0,0,,8,,,68,127
59299,note_on,0,0,0,,2,,,62,127
59299,note_on,0,0,0,,4,,,52,127
59400,note_off,101,0,0,,8,,,68,127
59403,note_on,3,0,0,,4,,,64,127
59504,note_off,101,0,0,,4,,,64,127
59504,note_off,0,0,0,,4,,,52,127
59504,note_off,0,0,0,,2,,,62,127
59507,note_on,3,0,0,,10,,,69,127
59507,note_on,0,0,0,,1,,,61,127
59507,note_on,0,0,0,,4,,,52,127
59608,note_off,101,0,0,,10,,,69,127
59611,note_on,3,0,0,,4,,,64,127
59712,note_off,101,0,0,,4,,,64,127
59712,note_off,0,0,0,,4,,,52,127
59712,note_off,0,0,0,,1,,,61,127
59715,note_on,3,0,0,,12,,,71,127
59715,note_on,0,0,0,,12,,,59,127
59715,note_on,0,0,0,,4,,,52,127
59816,note_off,101,0,0,,12,,,71,127
59819,note_on,3,0,0,,4,,,64,127
59920,note_off,101,0,0,,4,,,64,127
59920,note_off,0,0,0,,4,,,52,127
59920,note_off,0,0,0,,12,,,59,127
59923,note_on,3,0,0,,1,,,73,127
59923,note_on,0,0,0,,4,,,52,127
59923,note_on,0,0,0,,10,,,57,127
60024,note_off,101,0,0,,1,,,73,127
60027,note_on,3,0,0,,4,,,64,127
60128,note_off,101,0,0,,4,,,64,127
60128,note_off,0,0,0,,10,,,57,127
60128,note_off,0,0,0,,4,,,52,127
60131,note_on,3,0,0,,8,,,68,127
60131,note_on,0,0,0,,2,,,62,127
60131,note_on,0,0,0,,4,,,52,127
60232,note_off,101,0,0,,8,,,68,127
60235,note_on,3,0,0,,4,,,64,127
60336,note_off,101,0,0,,4,,,64,127
60336,note_off,0,0,0,,4,,,52,127
60336,note_off,0,0,0,,2,,,62,127
60339,note_on,3,0,0,,10,,,69,127
60339,note_on,0,0,0,,4,,,52,127
60339,note_on,0,0,0,,1,,,61,127
60440,note_off,101,0,0,,10,,,69,127
60443,note_on,3,0,0,,4,,,64,127
60544,note_off,101,0,0,,4,,,64,127
60544,note_off,0,0,0,,1,,,61,127
60544,note_off,0,0,0,,4,,,52,127
60547,note_on,3,0,0,,12,,,71,127
60547,note_on,0,0,0,,12,,,59,127
60547,note_on,0,0,0,,4,,,52,127
60648,note_off,101,0,0,,12,,,71,127
60651,note_on,3,0,0,,4,,,64,127
60752,note_off,101,0,0,,4,,,64,127
60752,note_off,0,0,0,,4,,,52,127
60752,note_off,0,0,0,,12,,,59,127
60755,note_on,3,0,0,,1,,,73,127
60755,note_on,0,0,0,,10,,,57,127
60755,note_on,0,0,0,,10,,,45,127
60856,note_off,101,0,0,,1,,,73,127
60859,note_on,3,0,0,,10,,,69,127
60960,note_off,101,0,0,,10,,,69,127
60963,note_on,3,0,0,,12,,,71,127
61064,note_off,101,0,0,,12,,,71,127
61067,note_on,3,0,0,,10,,,69,127
61168,note_off,101,0,0,,10,,,69,127
61171,note_on,3,0,0,,1,,,73,127
61272,note_off,101,0,0,,1,,,73,127
61275,note_on,3,0,0,,10,,,69,127
61376,note_off,101,0,0,,10,,,69,127
61379,note_on,3,0,0,,2,,,74,127
61480,note_off,101,0,0,,2,,,74,127
61483,note_on,3,0,0,,10,,,69,127
61584,note_off,101,0,0,,10,,,69,127
61584,note_off,0,0,0,,10,,,45,127
61584,note_off,0,0,0,,10,,,57,127
61587,note_on,3,0,0,,4,,,76,127
61587,note_on,0,0,0,,10,,,57,127
61688,note_off,101,0,0,,4,,,76,127
61691,note_on,3,0,0,,10,,,69,127
61792,note_off,101,0,0,,10,,,69,127
61792,note_off,0,0,0,,10,,,57,127
61795,note_on,3,0,0,,1,,,73,127
61795,note_on,0,0,0,,7,,,67,127
61795,note_on,0,0,0,,10,,,57,127
61896,note_off,101,0,0,,1,,,73,127
61899,note_on,3,0,0,,10,,,69,127
62000,note_off,101,0,0,,10,,,69,127
62000,note_off,0,0,0,,10,,,57,127
62000,note_off,0,0,0,,7,,,67,127
62003,note_on,3,0,0,,2,,,74,127
62003,note_on,0,0,0,,10,,,57,127
62003,note_on,0,0,0,,6,,,66,127
62104,note_off,101,0,0,,2,,,74,127
62107,note_on,3,0,0,,10,,,69,127
62208,note_off,101,0,0,,10,,,69,127
62208,note_off,0,0,0,,6,,,66,127
62208,note_off,0,0,0,,10,,,57,127
62211,note_on,3,0,0,,4,,,76,127
62211,note_on,0,0,0,,4,,,64,127
62211,note_on,0,0,0,,10,,,57,127
62312,note_off,101,0,0,,4,,,76,127
62315,note_on,3,0,0,,10,,,69,127
62416,note_off,101,0,0,,10,,,69,127
62416,note_off,0,0,0,,10,,,57,127
62416,note_off,0,0,0,,4,,,64,127
62419,note_on,3,0,0,,6,,,78,127
62419,note_on,0,0,0,,2,,,62,127
62419,note_on,0,0,0,,10,,,57,127
62520,note_off,101,0,0,,6,,,78,127
62523,note_on,3,0,0,,10,,,69,127
62624,note_off,101,0,0,,10,,,69,127
62624,note_off,0,0,0,,10,,,57,127
62624,note_off,0,0,0,,2,,,62,127
62627,note_on,3,0,0,,1,,,73,127
62627,note_on,0,0,0,,7,,,67,127
62627,note_on,0,0,0,,10,,,57,127
62728,note_off,101,0,0,,1,,,73,127
62731,note_on,3,0,0,,10,,,69,127
62832,note_off,101,0,0,,10,,,69,127
62832,note_off,0,0,0,,10,,,57,127
62832,note_off,0,0,0,,7,,,67,127
62835,note_on,3,0,0,,2,,,74,127
62835,note_on,0,0,0,,10,,,57,127
62835,note_on,0,0,0,,6,,,66,127
62936,note_off,101,0,0,,2,,,74,127
62939,note_on,3,0,0,,10,,,69,127
63040,note_off,101,0,0,,10,,,69,127
63040,note_off,0,0,0,,6,,,66,127
63040,note_off,0,0,0,,10,,,57,127
63043,note_on,3,0,0,,4,,,76,127
63043,note_on,0,0,0,,10,,,57,127
63043,note_on,0,0,0,,4,,,64,127
63144,note_off,101,0,0,,4,,,76,127
63147,note_on,3,0,0,,10,,,69,127
63248,note_off,101,0,0,,10,,,69,127
63248,note_off,0,0,0,,4,,,64,127
63248,note_off,0,0,0,,10,,,57,127
63251,note_on,3,0,0,,6,,,78,127
63251,note_on,0,0,0,,10,,,57,127
63251,note_on,0,0,0,,2,,,62,127
63352,note_off,101,0,0,,6,,,78,127
63355,note_on,3,0,0,,10,,,69,127
63456,note_off,101,0,0,,10,,,69,127
63456,note_off,0,0,0,,2,,,62,127
63456,note_off,0,0,0,,10,,,57,127
63459,note_on,3,0,0,,1,,,73,127
63459,note_on,0,0,0,,7,,,67,127
63459,note_on,0,0,0,,10,,,57,127
63560,note_off,101,0,0,,1,,,73,127
63563,note_on,3,0,0,,10,,,69,127
63664,note_off,101,0,0,,10,,,69,127
63664,note_off,0,0,0,,10,,,57,127
63664,note_off,0,0,0,,7,,,67,127
63667,note_on,3,0,0,,2,,,74,127
63667,note_on,0,0,0,,6,,,66,127
63667,note_on,0,0,0,,10,,,57,127
63768,note_off,101,0,0,,2,,,74,127
63771,note_on,3,0,0,,10,,,69,127
63872,note_off,101,0,0,,10,,,69,127
63872,note_off,0,0,0,,10,,,57,127
63872,note_off,0,0,0,,6,,,66,127
63875,note_on,3,0,0,,4,,,76,127
63875,note_on,0,0,0,,4,,,64,127
63875,note_on,0,0,0,,10,,,57,127
63976,note_off,101,0,0,,4,,,76,127
63979,note_on,3,0,0,,10,,,69,127
64080,note_off,101,0,0,,10,,,69,127
64080,note_off,0,0,0,,10,,,57,127
64080,note_off,0,0,0,,4,,,64,127
64092,note_on,12,0,0,,2,,,62,127
64092,note_on,0,0,0,,6,,,78,127
64193,note_off,101,0,0,,6,,,78,127
64196,note_on,3,0,0,,10,,,69,127
64297,note_off,101,0,0,,10,,,69,127
64297,note_off,0,0,0,,2,,,62,127
64300,note_on,3,0,0,,10,,,81,127
64300,note_on,0,0,0,,2,,,74,127
64401,note_off,101,0,0,,2,,,74,127
64404,note_on,3,0,0,,10,,,69,127
64505,note_off,101,0,0,,10,,,69,127
64505,note_off,0,0,0,,10,,,81,127
64508,note_on,3,0,0,,10,,,45,127
64508,note_on,0,0,0,,4,,,76,127
64609,note_off,101,0,0,,4,,,76,127
64612,note_on,3,0,0,,10,,,69,127
64713,note_off,101,0,0,,10,,,69,127
64716,note_on,3,0,0,,7,,,79,127
64817,note_off,101,0,0,,7,,,79,127
64820,note_on,3,0,0,,10,,,69,127
64921,note_off,101,0,0,,10,,,69,127
64921,note_off,0,0,0,,10,,,45,127
64924,note_on,3,0,0,,2,,,50,127
64924,note_on,0,0,0,,6,,,78,127
65025,note_off,101,0,0,,6,,,78,127
65028,note_on,3,0,0,,10,,,69,127
65129,note_off,101,0,0,,10,,,69,127
65129,note_off,0,0,0,,2,,,50,127
65132,note_on,3,0,0,,10,,,81,127
65132,note_on,0,0,0,,2,,,74,127
65233,note_off,101,0,0,,2,,,74,127
65236,note_on,3,0,0,,10,,,69,127
65337,note_off,101,0,0,,10,,,69,127
65337,note_off,0,0,0,,10,,,81,127
65340,note_on,3,0,0,,10,,,45,127
65340,note_on,0,0,0,,4,,,76,127
65441,note_off,101,0,0,,4,,,76,127
65444,note_on,3,0,0,,10,,,69,127
65545,note_off,101,0,0,,10,,,69,127
65548,note_on,3,0,0,,7,,,79,127
65649,note_off,101,0,0,,7,,,79,127
65652,note_on,3,0,0,,10,,,69,127
65753,note_off,101,0,0,,10,,,69,127
65753,note_off,0,0,0,,10,,,45,127
65756,note_on,3,0,0,,2,,,50,127
65756,note_on,0,0,0,,6,,,78,127
65857,note_off,101,0,0,,6,,,78,127
65860,note_on,3,0,0,,10,,,69,127
65961,note_off,101,0,0,,10,,,69,127
65961,note_off,0,0,0,,2,,,50,127
65964,note_on,3,0,0,,10,,,81,127
65964,note_on,0,0,0,,4,,,76,127
66065,note_off,101,0,0,,4,,,76,127
66068,note_on,3,0,0,,10,,,69,127
66169,note_off,101,0,0,,10,,,69,127
66169,note_off,0,0,0,,10,,,81,127
66172,note_on,3,0,0,,12,,,47,127
66172,note_on,0,0,0,,3,,,75,127
66273,note_off,101,0,0,,3,,,75,127
66276,note_on,3,0,0,,12,,,71,127
66377,note_off,101,0,0,,12,,,71,127
66380,note_on,3,0,0,,10,,,81,127
66481,note_off,101,0,0,,10,,,81,127
66484,note_on,3,0,0,,12,,,71,127
66585,note_off,101,0,0,,12,,,71,127
66585,note_off,0,0,0,,12,,,47,127
66588,note_on,3,0,0,,4,,,52,127
66588,note_on,0,0,0,,8,,,80,127
66689,note_off,101,0,0,,8,,,80,127
66692,note_on,3,0,0,,12,,,71,127
66793,note_off,101,0,0,,12,,,71,127
66793,note_off,0,0,0,,4,,,52,127
66796,note_on,3,0,0,,12,,,83,127
66796,note_on,0,0,0,,4,,,76,127
66897,note_off,101,0,0,,4,,,76,127
66900,note_on,3,0,0,,12,,,71,127
67001,note_off,101,0,0,,12,,,71,127
67001,note_off,0,0,0,,12,,,83,127
67004,note_on,3,0,0,,12,,,47,127
67004,note_on,0,0,0,,6,,,78,127
67105,note_off,101,0,0,,6,,,78,127
67108,note_on,3,0,0,,12,,,71,127
67209,note_off,101,0,0,,12,,,71,127
67212,note_on,3,0,0,,10,,,81,127
67313,note_off,101,0,0,,10,,,81,127
67316,note_on,3,0,0,,12,,,71,127
67417,note_off,101,0,0,,12,,,71,127
67417,note_off,0,0,0,,12,,,47,127
67420,note_on,3,0,0,,4,,,52,127
67420,note_on,0,0,0,,8,,,80,127
67521,note_off,101,0,0,,8,,,80,127
67524,note_on,3,0,0,,12,,,71,127
67625,note_off,101,0,0,,12,,,71,127
67625,note_off,0,0,0,,4,,,52,127
67628,note_on,3,0,0,,12,,,83,127
67628,note_on,0,0,0,,4,,,76,127
67729,note_off,101,0,0,,4,,,76,127
67732,note_on,3,0,0,,12,,,71,127
67833,note_off,101,0,0,,12,,,71,127
67833,note_off,0,0,0,,12,,,83,127
67836,note_on,3,0,0,,12,,,47,127
67836,note_on,0,0,0,,6,,,78,127
67937,note_off,101,0,0,,6,,,78,127
67940,note_on,3,0,0,,12,,,71,127
68041,note_off,101,0,0,,12,,,71,127
68044,note_on,3,0,0,,10,,,81,127
68145,note_off,101,0,0,,10,,,81,127
68148,note_on,3,0,0,,12,,,71,127
68249,note_off,101,0,0,,12,,,71,127
68249,note_off,0,0,0,,12,,,47,127
68252,note_on,3,0,0,,4,,,52,127
68252,note_on,0,0,0,,8,,,80,127
68368,note_on,116,0,0,,5,,,77,127
68371,note_off,3,0,0,,8,,,80,127
68469,note_off,98,0,0,,5,,,77,127
68479,note_on,10,0,0,,4,,,76,127
68580,note_off,101,0,0,,4,,,76,127
68583,note_on,3,0,0,,2,,,74,127
68669,note_off,86,0,0,,4,,,52,127
68684,note_off,15,0,0,,2,,,74,127
68687,note_on,3,0,0,,0,,,72,127
68788,note_off,101,0,0,,0,,,72,127
68791,note_on,3,0,0,,12,,,71,127
68892,note_off,101,0,0,,12,,,71,127
68895,note_on,3,0,0,,10,,,69,127
68895,note_on,0,0,0,,4,,,64,127
68996,note_off,101,0,0,,10,,,69,127
68999,note_on,3,0,0,,8,,,68,127
69100,note_off,101,0,0,,8,,,68,127
69100,note_off,0,0,0,,4,,,64,127
69103,note_on,3,0,0,,10,,,69,127
69103,note_on,0,0,0,,5,,,65,127
69208,note_on,105,0,0,,10,,,81,127
69309,note_off,101,0,0,,10,,,81,127
69309,note_off,0,0,0,,5,,,65,127
69310,note_off,1,0,0,,10,,,69,127
69312,note_on,2,0,0,,8,,,80,127
69312,note_on,0,0,0,,2,,,62,127
69413,note_off,101,0,0,,8,,,80,127
69416,note_on,3,0,0,,10,,,81,127
69517,note_off,101,0,0,,10,,,81,127
69517,note_off,0,0,0,,2,,,62,127
69520,note_on,3,0,0,,12,,,83,127
69520,note_on,0,0,0,,8,,,68,127
69621,note_off,101,0,0,,12,,,83,127
69624,note_on,3,0,0,,2,,,74,127
69725,note_off,101,0,0,,2,,,74,127
69725,note_off,0,0,0,,8,,,68,127
69728,note_on,3,0,0,,0,,,72,127
69728,note_on,0,0,0,,4,,,64,127
69829,note_off,101,0,0,,0,,,72,127
69832,note_on,3,0,0,,12,,,71,127
69933,note_off,101,0,0,,12,,,71,127
69933,note_off,0,0,0,,4,,,64,127
69936,note_on,3,0,0,,0,,,72,127
69936,note_on,0,0,0,,10,,,69,127
70037,note_off,101,0,0,,0,,,72,127
70040,note_on,3,0,0,,5,,,77,127
70141,note_off,101,0,0,,5,,,77,127
70141,note_off,0,0,0,,10,,,69,127
70144,note_on,3,0,0,,4,,,76,127
70144,note_on,0,0,0,,2,,,62,127
70245,note_off,101,0,0,,4,,,76,127
70248,note_on,3,0,0,,2,,,74,127
70349,note_off,101,0,0,,2,,,74,127
70352,note_on,3,0,0,,0,,,72,127
70453,note_off,101,0,0,,0,,,72,127
70456,note_on,3,0,0,,12,,,71,127
70491,note_off,35,0,0,,2,,,62,127
70558,note_off,67,0,0,,12,,,71,127
70561,note_on,3,0,0,,10,,,69,127
70561,note_on,0,0,0,,4,,,64,127
70662,note_off,101,0,0,,10,,,69,127
70665,note_on,3,0,0,,8,,,68,127
70766,note_off,101,0,0,,8,,,68,127
70766,note_off,0,0,0,,4,,,64,127
70769,note_on,3,0,0,,10,,,69,127
70769,note_on,0,0,0,,5,,,65,127
70874,note_on,105,0,0,,10,,,81,127
70975,note_off,101,0,0,,10,,,81,127
70975,note_off,0,0,0,,5,,,65,127
70976,note_off,1,0,0,,10,,,69,127
70978,note_on,2,0,0,,8,,,80,127
70978,note_on,0,0,0,,2,,,62,127
71079,note_off,101,0,0,,8,,,80,127
71082,note_on,3,0,0,,10,,,81,127
71183,note_off,101,0,0,,10,,,81,127
71183,note_off,0,0,0,,2,,,62,127
71186,note_on,3,0,0,,12,,,83,127
71186,note_on,0,0,0,,8,,,68,127
71287,note_off,101,0,0,,12,,,83,127
71290,note_on,3,0,0,,2,,,74,127
71391,note_off,101,0,0,,2,,,74,127
71391,note_off,0,0,0,,8,,,68,127
71394,note_on,3,0,0,,0,,,72,127
71394,note_on,0,0,0,,4,,,64,127
71495,note_off,101,0,0,,0,,,72,127
71498,note_on,3,0,0,,12,,,71,127
71599,note_off,101,0,0,,12,,,71,127
71599,note_off,0,0,0,,4,,,64,127
71602,note_on,3,0,0,,0,,,72,127
71602,note_on,0,0,0,,10,,,69,127
71703,note_off,101,0,0,,0,,,72,127
71715,note_on,12,0,0,,10,,,81,127
71808,note_off,93,0,0,,10,,,69,127
71817,note_off,9,0,0,,10,,,81,127
71820,note_on,3,0,0,,4,,,64,127
71820,note_on,0,0,0,,12,,,71,127
71921,note_off,101,0,0,,12,,,71,127
71924,note_on,3,0,0,,7,,,79,127
72025,note_off,101,0,0,,7,,,79,127
72025,note_off,0,0,0,,4,,,64,127
72028,note_on,3,0,0,,5,,,65,127
72028,note_on,0,0,0,,10,,,69,127
72129,note_off,101,0,0,,10,,,69,127
72132,note_on,3,0,0,,5,,,77,127
72233,note_off,101,0,0,,5,,,77,127
72233,note_off,0,0,0,,5,,,65,127
72236,note_on,3,0,0,,0,,,60,127
72236,note_on,0,0,0,,7,,,67,127
72337,note_off,101,0,0,,7,,,67,127
72340,note_on,3,0,0,,4,,,76,127
72441,note_off,101,0,0,,4,,,76,127
72441,note_off,0,0,0,,0,,,60,127
72444,note_on,3,0,0,,2,,,62,127
72444,note_on,0,0,0,,5,,,65,127
72545,note_off,101,0,0,,5,,,65,127
72548,note_on,3,0,0,,2,,,74,127
72649,note_off,101,0,0,,2,,,74,127
72649,note_off,0,0,0,,2,,,62,127
72652,note_on,3,0,0,,10,,,57,127
72652,note_on,0,0,0,,4,,,64,127
72753,note_off,101,0,0,,4,,,64,127
72756,note_on,3,0,0,,0,,,72,127
72857,note_off,101,0,0,,0,,,72,127
72857,note_off,0,0,0,,10,,,57,127
72860,note_on,3,0,0,,5,,,53,127
72860,note_on,0,0,0,,2,,,62,127
72961,note_off,101,0,0,,2,,,62,127
72964,note_on,3,0,0,,12,,,71,127
73065,note_off,101,0,0,,12,,,71,127
73065,note_off,0,0,0,,5,,,53,127
73068,note_on,3,0,0,,10,,,57,127
73068,note_on,0,0,0,,0,,,60,127
73169,note_off,101,0,0,,0,,,60,127
73172,note_on,3,0,0,,10,,,69,127
73273,note_off,101,0,0,,10,,,69,127
73273,note_off,0,0,0,,10,,,57,127
73276,note_on,3,0,0,,4,,,52,127
73276,note_on,0,0,0,,12,,,71,127
73377,note_off,101,0,0,,12,,,71,127
73380,note_on,3,0,0,,10,,,69,127
73481,note_off,101,0,0,,10,,,69,127
73481,note_off,0,0,0,,4,,,52,127
73484,note_on,3,0,0,,4,,,64,127
73484,note_on,0,0,0,,8,,,68,127
73585,note_off,101,0,0,,8,,,68,127
73588,note_on,3,0,0,,6,,,66,127
73689,note_off,101,0,0,,6,,,66,127
73689,note_off,0,0,0,,4,,,64,127
73692,note_on,3,0,0,,4,,,64,127
73797,note_on,105,0,0,,2,,,62,127
73898,note_off,101,0,0,,2,,,62,127
73898,note_off,0,0,0,,4,,,64,127
73901,note_on,3,0,0,,0,,,60,127
73901,note_on,0,0,0,,4,,,76,127
74002,note_off,101,0,0,,0,,,60,127
74005,note_on,3,0,0,,12,,,59,127
74106,note_off,101,0,0,,12,,,59,127
74109,note_on,3,0,0,,10,,,57,127
74210,note_off,101,0,0,,4,,,76,127
74213,note_on,3,0,0,,2,,,74,127
74314,note_off,101,0,0,,2,,,74,127
74314,note_off,0,0,0,,10,,,57,127
74317,note_on,3,0,0,,10,,,69,127
74317,note_on,0,0,0,,0,,,72,127
74418,note_off,101,0,0,,0,,,72,127
74421,note_on,3,0,0,,12,,,71,127
74522,note_off,101,0,0,,12,,,71,127
74522,note_off,0,0,0,,10,,,69,127
74525,note_on,3,0,0,,10,,,69,127
74630,note_on,105,0,0,,7,,,67,127
74731,note_off,101,0,0,,7,,,67,127
74731,note_off,0,0,0,,10,,,69,127
74734,note_on,3,0,0,,5,,,65,127
74734,note_on,0,0,0,,10,,,81,127
74835,note_off,101,0,0,,5,,,65,127
74838,note_on,3,0,0,,4,,,64,127
74939,note_off,101,0,0,,4,,,64,127
74942,note_on,3,0,0,,2,,,62,127
75043,note_off,101,0,0,,10,,,81,127
75046,note_on,3,0,0,,7,,,79,127
75147,note_off,101,0,0,,7,,,79,127
75147,note_off,0,0,0,,2,,,62,127
75150,note_on,3,0,0,,2,,,74,127
75150,note_on,0,0,0,,5,,,77,127
75251,note_off,101,0,0,,5,,,77,127
75254,note_on,3,0,0,,4,,,76,127
75355,note_off,101,0,0,,4,,,76,127
75355,note_off,0,0,0,,2,,,74,127
75358,note_on,3,0,0,,2,,,74,127
75463,note_on,105,0,0,,0,,,72,127
75564,note_off,101,0,0,,0,,,72,127
75564,note_off,0,0,0,,2,,,74,127
75567,note_on,3,0,0,,12,,,71,127
75567,note_on,0,0,0,,12,,,83,127
75668,note_off,101,0,0,,12,,,71,127
75671,note_on,3,0,0,,10,,,69,127
75772,note_off,101,0,0,,10,,,69,127
75775,note_on,3,0,0,,4,,,64,127
75876,note_off,101,0,0,,12,,,83,127
75879,note_on,3,0,0,,10,,,81,127
75980,note_off,101,0,0,,10,,,81,127
75980,note_off,0,0,0,,4,,,64,127
75983,note_on,3,0,0,,4,,,76,127
75983,note_on,0,0,0,,8,,,80,127
76084,note_off,101,0,0,,8,,,80,127
76087,note_on,3,0,0,,6,,,78,127
76188,note_off,101,0,0,,6,,,78,127
76188,note_off,0,0,0,,4,,,76,127
76191,note_on,3,0,0,,4,,,76,127
76296,note_on,105,0,0,,2,,,74,127
76397,note_off,101,0,0,,2,,,74,127
76400,note_on,3,0,0,,0,,,72,127
76501,note_off,101,0,0,,0,,,72,127
76501,note_off,0,0,0,,4,,,76,127
76504,note_on,3,0,0,,12,,,71,127
76504,note_on,0,0,0,,8,,,80,127
76605,note_off,101,0,0,,8,,,80,127
76605,note_off,0,0,0,,12,,,71,127
76608,note_on,3,0,0,,10,,,69,127
76608,note_on,0,0,0,,10,,,81,127
76709,note_off,101,0,0,,10,,,81,127
76712,note_on,3,0,0,,12,,,83,127
76813,note_off,101,0,0,,12,,,83,127
76813,note_off,0,0,0,,10,,,69,127
76816,note_on,3,0,0,,2,,,62,127
76816,note_on,0,0,0,,0,,,84,127
76917,note_off,101,0,0,,0,,,84,127
76920,note_on,3,0,0,,2,,,86,127
77021,note_off,101,0,0,,2,,,86,127
77021,note_off,0,0,0,,2,,,62,127
77024,note_on,3,0,0,,4,,,64,127
77024,note_on,0,0,0,,0,,,84,127
77125,note_off,101,0,0,,0,,,84,127
77128,note_on,3,0,0,,12,,,83,127
77229,note_off,101,0,0,,12,,,83,127
77232,note_on,3,0,0,,4,,,52,127
77232,note_on,0,0,0,,10,,,81,127
77333,note_off,101,0,0,,10,,,81,127
77336,note_off,3,0,0,,4,,,64,127
77336,note_on,0,0,0,,8,,,80,127
77437,note_off,101,0,0,,8,,,80,127
77437,note_off,0,0,0,,4,,,52,127
77440,note_on,3,0,0,,10,,,45,127
77440,note_on,0,0,0,,10,,,81,127
77541,note_off,101,0,0,,10,,,81,127
77544,note_on,3,0,0,,5,,,77,127
77645,note_off,101,0,0,,5,,,77,127
77645,note_off,0,0,0,,10,,,45,127
77648,note_on,3,0,0,,10,,,57,127
77648,note_on,0,0,0,,4,,,76,127
77749,note_off,101,0,0,,4,,,76,127
77752,note_on,3,0,0,,2,,,74,127
77853,note_off,101,0,0,,2,,,74,127
77856,note_on,3,0,0,,0,,,72,127
77957,note_off,101,0,0,,0,,,72,127
77960,note_on,3,0,0,,12,,,71,127
78061,note_off,101,0,0,,12,,,71,127
78061,note_off,0,0,0,,10,,,57,127
78064,note_on,3,0,0,,4,,,52,127
78064,note_on,0,0,0,,10,,,69,127
78165,note_off,101,0,0,,10,,,69,127
78168,note_on,3,0,0,,8,,,68,127
78269,note_off,101,0,0,,8,,,68,127
78269,note_off,0,0,0,,4,,,52,127
78272,note_on,3,0,0,,5,,,53,127
78272,note_on,0,0,0,,10,,,69,127
78373,note_off,101,0,0,,10,,,69,127
78376,note_on,3,0,0,,12,,,71,127
78477,note_off,101,0,0,,12,,,71,127
78477,note_off,0,0,0,,5,,,53,127
78480,note_on,3,0,0,,2,,,50,127
78480,note_on,0,0,0,,0,,,72,127
78581,note_off,101,0,0,,0,,,72,127
78584,note_on,3,0,0,,2,,,74,127
78685,note_off,101,0,0,,2,,,74,127
78685,note_off,0,0,0,,2,,,50,127
78688,note_on,3,0,0,,4,,,52,127
78688,note_on,0,0,0,,0,,,72,127
78789,note_off,101,0,0,,0,,,72,127
78792,note_on,3,0,0,,12,,,71,127
78893,note_off,101,0,0,,12,,,71,127
78896,note_on,3,0,0,,4,,,40,127
78896,note_on,0,0,0,,10,,,69,127
78997,note_off,101,0,0,,10,,,69,127
79000,note_on,3,0,0,,8,,,68,127
79101,note_off,101,0,0,,8,,,68,127
79101,note_off,0,0,0,,4,,,40,127
79103,note_off,2,0,0,,4,,,52,127
79104,note_on,1,0,0,,10,,,45,127
79104,note_on,0,0,0,,10,,,69,127
79226,note_on,122,0,0,,4,,,64,127
79235,note_off,9,0,0,,10,,,69,127
79310,note_off,75,0,0,,10,,,45,127
79327,note_off,17,0,0,,4,,,64,127
79330,note_on,3,0,0,,0,,,72,127
79330,note_on,0,0,0,,0,,,84,127
79431,note_off,101,0,0,,0,,,72,127
79434,note_on,3,0,0,,10,,,69,127
79535,note_off,101,0,0,,10,,,69,127
79535,note_off,0,0,0,,0,,,84,127
79538,note_on,3,0,0,,12,,,71,127
79538,note_on,0,0,0,,7,,,55,127
79639,note_off,101,0,0,,12,,,71,127
79642,note_on,3,0,0,,7,,,67,127
79743,note_off,101,0,0,,7,,,67,127
79743,note_off,0,0,0,,7,,,55,127
79746,note_on,3,0,0,,4,,,64,127
79746,note_on,0,0,0,,12,,,83,127
79847,note_off,101,0,0,,4,,,64,127
79850,note_on,3,0,0,,12,,,71,127
79951,note_off,101,0,0,,12,,,71,127
79951,note_off,0,0,0,,12,,,83,127
79954,note_on,3,0,0,,10,,,69,127
79954,note_on,0,0,0,,5,,,53,127
80055,note_off,101,0,0,,10,,,69,127
80058,note_on,3,0,0,,5,,,65,127
80159,note_off,101,0,0,,5,,,65,127
80159,note_off,0,0,0,,5,,,53,127
80162,note_on,3,0,0,,2,,,62,127
80162,note_on,0,0,0,,10,,,81,127
80263,note_off,101,0,0,,2,,,62,127
80266,note_on,3,0,0,,10,,,69,127
80367,note_off,101,0,0,,10,,,69,127
80367,note_off,0,0,0,,10,,,81,127
80370,note_on,3,0,0,,7,,,67,127
80370,note_on,0,0,0,,4,,,52,127
80471,note_off,101,0,0,,7,,,67,127
80474,note_on,3,0,0,,4,,,64,127
80575,note_off,101,0,0,,4,,,64,127
80575,note_off,0,0,0,,4,,,52,127
80578,note_on,3,0,0,,0,,,60,127
80578,note_on,0,0,0,,7,,,79,127
80679,note_off,101,0,0,,0,,,60,127
80682,note_on,3,0,0,,7,,,67,127
80783,note_off,101,0,0,,7,,,67,127
80783,note_off,0,0,0,,7,,,79,127
80786,note_on,3,0,0,,5,,,65,127
80786,note_on,0,0,0,,2,,,50,127
80887,note_off,101,0,0,,5,,,65,127
80890,note_on,3,0,0,,2,,,62,127
80991,note_off,101,0,0,,2,,,62,127
80991,note_off,0,0,0,,2,,,50,127
80994,note_on,3,0,0,,12,,,59,127
80994,note_on,0,0,0,,5,,,77,127
81095,note_off,101,0,0,,12,,,59,127
81098,note_on,3,0,0,,5,,,65,127
81199,note_off,101,0,0,,5,,,65,127
81199,note_off,0,0,0,,5,,,77,127
81202,note_on,3,0,0,,4,,,64,127
81202,note_on,0,0,0,,0,,,48,127
81303,note_off,101,0,0,,4,,,64,127
81306,note_on,3,0,0,,0,,,60,127
81407,note_off,101,0,0,,0,,,60,127
81407,note_off,0,0,0,,0,,,48,127
81410,note_on,3,0,0,,10,,,57,127
81410,note_on,0,0,0,,4,,,76,127
81511,note_off,101,0,0,,10,,,57,127
81514,note_on,3,0,0,,4,,,64,127
81615,note_off,101,0,0,,4,,,64,127
81615,note_off,0,0,0,,4,,,76,127
81618,note_on,3,0,0,,2,,,62,127
81618,note_on,0,0,0,,12,,,47,127
81719,note_off,101,0,0,,2,,,62,127
81722,note_on,3,0,0,,12,,,59,127
81823,note_off,101,0,0,,12,,,59,127
81823,note_off,0,0,0,,12,,,47,127
81826,note_on,3,0,0,,7,,,55,127
81826,note_on,0,0,0,,2,,,74,127
81927,note_off,101,0,0,,7,,,55,127
81930,note_on,3,0,0,,2,,,62,127
82031,note_off,101,0,0,,2,,,62,127
82031,note_off,0,0,0,,2,,,74,127
82034,note_on,3,0,0,,0,,,60,127
82034,note_on,0,0,0,,10,,,45,127
82135,note_off,101,0,0,,0,,,60,127
82138,note_on,3,0,0,,10,,,57,127
82239,note_off,101,0,0,,10,,,57,127
82239,note_off,0,0,0,,10,,,45,127
82242,note_on,3,0,0,,5,,,53,127
82242,note_on,0,0,0,,0,,,72,127
82343,note_off,101,0,0,,5,,,53,127
82346,note_on,3,0,0,,0,,,60,127
82447,note_off,101,0,0,,0,,,60,127
82447,note_off,0,0,0,,0,,,72,127
82450,note_on,3,0,0,,4,,,64,127
82450,note_on,0,0,0,,7,,,43,127
82551,note_off,101,0,0,,4,,,64,127
82554,note_on,3,0,0,,12,,,59,127
82655,note_off,101,0,0,,12,,,59,127
82655,note_off,0,0,0,,7,,,43,127
82658,note_on,3,0,0,,7,,,55,127
82658,note_on,0,0,0,,12,,,71,127
82759,note_off,101,0,0,,7,,,55,127
82762,note_on,3,0,0,,12,,,59,127
82863,note_off,101,0,0,,12,,,59,127
82863,note_off,0,0,0,,12,,,71,127
82866,note_on,3,0,0,,4,,,64,127
82866,note_on,0,0,0,,5,,,41,127
82967,note_off,101,0,0,,4,,,64,127
82970,note_on,3,0,0,,10,,,57,127
83071,note_off,101,0,0,,10,,,57,127
83071,note_off,0,0,0,,5,,,41,127
83074,note_on,3,0,0,,5,,,53,127
83074,note_on,0,0,0,,10,,,69,127
83175,note_off,101,0,0,,5,,,53,127
83177,note_off,2,0,0,,10,,,69,127
83178,note_on,1,0,0,,2,,,62,127
83279,note_off,101,0,0,,2,,,62,127
83282,note_on,3,0,0,,4,,,64,127
83282,note_on,0,0,0,,4,,,40,127
83383,note_off,101,0,0,,4,,,64,127
83386,note_on,3,0,0,,12,,,59,127
83487,note_off,101,0,0,,12,,,59,127
83487,note_off,0,0,0,,4,,,40,127
83490,note_on,3,0,0,,8,,,56,127
83490,note_on,0,0,0,,4,,,52,127
83591,note_off,101,0,0,,8,,,56,127
83594,note_on,3,0,0,,12,,,59,127
83695,note_off,101,0,0,,12,,,59,127
83698,note_on,3,0,0,,4,,,64,127
83799,note_off,101,0,0,,4,,,52,127
83802,note_on,3,0,0,,2,,,50,127
83903,note_off,101,0,0,,2,,,50,127
83903,note_off,0,0,0,,4,,,64,127
83906,note_on,3,0,0,,8,,,68,127
83906,note_on,0,0,0,,0,,,48,127
84007,note_off,101,0,0,,0,,,48,127
84010,note_on,3,0,0,,12,,,47,127
84111,note_off,101,0,0,,12,,,47,127
84111,note_off,0,0,0,,8,,,68,127
84114,note_on,3,0,0,,10,,,69,127
84114,note_on,0,0,0,,0,,,48,127
84215,note_off,101,0,0,,10,,,69,127
84218,note_on,3,0,0,,12,,,71,127
84319,note_off,101,0,0,,12,,,71,127
84319,note_off,0,0,0,,0,,,48,127
84322,note_on,3,0,0,,0,,,72,127
84322,note_on,0,0,0,,2,,,50,127
84423,note_off,101,0,0,,0,,,72,127
84426,note_on,3,0,0,,2,,,74,127
84527,note_off,101,0,0,,2,,,74,127
84527,note_off,0,0,0,,2,,,50,127
84530,note_on,3,0,0,,0,,,72,127
84530,note_on,0,0,0,,4,,,52,127
84631,note_off,101,0,0,,0,,,72,127
84634,note_on,3,0,0,,12,,,71,127
84735,note_off,101,0,0,,12,,,71,127
84738,note_on,3,0,0,,10,,,69,127
84738,note_on,0,0,0,,4,,,40,127
84839,note_off,101,0,0,,10,,,69,127
84842,note_on,3,0,0,,8,,,68,127
84943,note_off,101,0,0,,8,,,68,127
84943,note_off,0,0,0,,4,,,40,127
84945,note_off,2,0,0,,4,,,52,127
84950,note_on,5,0,0,,10,,,45,127
84950,note_on,0,0,0,,10,,,69,127
85051,note_off,101,0,0,,10,,,69,127
85054,note_on,3,0,0,,4,,,64,127
85155,note_off,101,0,0,,4,,,64,127
85155,note_off,0,0,0,,10,,,45,127
85158,note_on,3,0,0,,0,,,84,127
85158,note_on,0,0,0,,0,,,72,127
85259,note_off,101,0,0,,0,,,72,127
85262,note_on,3,0,0,,4,,,64,127
85363,note_off,101,0,0,,4,,,64,127
85363,note_off,0,0,0,,0,,,84,127
85366,note_on,3,0,0,,7,,,55,127
85366,note_on,0,0,0,,12,,,71,127
85467,note_off,101,0,0,,12,,,71,127
85470,note_on,3,0,0,,7,,,67,127
85571,note_off,101,0,0,,7,,,67,127
85571,note_off,0,0,0,,7,,,55,127
85574,note_on,3,0,0,,12,,,83,127
85574,note_on,0,0,0,,4,,,64,127
85675,note_off,101,0,0,,4,,,64,127
85678,note_on,3,0,0,,12,,,71,127
85779,note_off,101,0,0,,12,,,71,127
85779,note_off,0,0,0,,12,,,83,127
85782,note_on,3,0,0,,5,,,53,127
85782,note_on,0,0,0,,10,,,69,127
85883,note_off,101,0,0,,10,,,69,127
85886,note_on,3,0,0,,5,,,65,127
85987,note_off,101,0,0,,5,,,65,127
85987,note_off,0,0,0,,5,,,53,127
85990,note_on,3,0,0,,10,,,81,127
85990,note_on,0,0,0,,2,,,62,127
86091,note_off,101,0,0,,2,,,62,127
86094,note_on,3,0,0,,10,,,69,127
86195,note_off,101,0,0,,10,,,69,127
86195,note_off,0,0,0,,10,,,81,127
86198,note_on,3,0,0,,4,,,52,127
86198,note_on,0,0,0,,7,,,67,127
86299,note_off,101,0,0,,7,,,67,127
86302,note_on,3,0,0,,4,,,64,127
86403,note_off,101,0,0,,4,,,64,127
86403,note_off,0,0,0,,4,,,52,127
86406,note_on,3,0,0,,7,,,79,127
86406,note_on,0,0,0,,0,,,60,127
86507,note_off,101,0,0,,0,,,60,127
86510,note_on,3,0,0,,7,,,67,127
86611,note_off,101,0,0,,7,,,67,127
86611,note_off,0,0,0,,7,,,79,127
86614,note_on,3,0,0,,2,,,50,127
86614,note_on,0,0,0,,5,,,65,127
86715,note_off,101,0,0,,5,,,65,127
86718,note_on,3,0,0,,2,,,62,127
86819,note_off,101,0,0,,2,,,62,127
86819,note_off,0,0,0,,2,,,50,127
86822,note_on,3,0,0,,5,,,77,127
86822,note_on,0,0,0,,12,,,59,127
86923,note_off,101,0,0,,12,,,59,127
86926,note_on,3,0,0,,5,,,65,127
87027,note_off,101,0,0,,5,,,65,127
87027,note_off,0,0,0,,5,,,77,127
87030,note_on,3,0,0,,0,,,48,127
87030,note_on,0,0,0,,4,,,64,127
87131,note_off,101,0,0,,4,,,64,127
87134,note_on,3,0,0,,0,,,60,127
87235,note_off,101,0,0,,0,,,60,127
87235,note_off,0,0,0,,0,,,48,127
87238,note_on,3,0,0,,4,,,76,127
87238,note_on,0,0,0,,10,,,57,127
87339,note_off,101,0,0,,10,,,57,127
87342,note_on,3,0,0,,4,,,64,127
87443,note_off,101,0,0,,4,,,64,127
87443,note_off,0,0,0,,4,,,76,127
87446,note_on,3,0,0,,12,,,47,127
87446,note_on,0,0,0,,2,,,62,127
87547,note_off,101,0,0,,2,,,62,127
87550,note_on,3,0,0,,12,,,59,127
87651,note_off,101,0,0,,12,,,59,127
87651,note_off,0,0,0,,12,,,47,127
87654,note_on,3,0,0,,2,,,74,127
87654,note_on,0,0,0,,7,,,55,127
87755,note_off,101,0,0,,7,,,55,127
87758,note_on,3,0,0,,2,,,62,127
87859,note_off,101,0,0,,2,,,62,127
87859,note_off,0,0,0,,2,,,74,127
87862,note_on,3,0,0,,10,,,45,127
87862,note_on,0,0,0,,0,,,60,127
87963,note_off,101,0,0,,0,,,60,127
87966,note_on,3,0,0,,10,,,57,127
88067,note_off,101,0,0,,10,,,57,127
88067,note_off,0,0,0,,10,,,45,127
88070,note_on,3,0,0,,0,,,72,127
88070,note_on,0,0,0,,5,,,53,127
88171,note_off,101,0,0,,5,,,53,127
88174,note_on,3,0,0,,0,,,60,127
88275,note_off,101,0,0,,0,,,60,127
88275,note_off,0,0,0,,0,,,72,127
88278,note_on,3,0,0,,7,,,43,127
88278,note_on,0,0,0,,4,,,64,127
88379,note_off,101,0,0,,4,,,64,127
88382,note_on,3,0,0,,12,,,59,127
88483,note_off,101,0,0,,12,,,59,127
88483,note_off,0,0,0,,7,,,43,127
88486,note_on,3,0,0,,12,,,71,127
88486,note_on,0,0,0,,7,,,55,127
88587,note_off,101,0,0,,7,,,55,127
88590,note_on,3,0,0,,12,,,59,127
88691,note_off,101,0,0,,12,,,59,127
88691,note_off,0,0,0,,12,,,71,127
88694,note_on,3,0,0,,5,,,41,127
88694,note_on,0,0,0,,4,,,64,127
88795,note_off,101,0,0,,4,,,64,127
88798,note_on,3,0,0,,10,,,57,127
88899,note_off,101,0,0,,10,,,57,127
88899,note_off,0,0,0,,5,,,41,127
88902,note_on,3,0,0,,10,,,69,127
88902,note_on,0,0,0,,5,,,53,127
89003,note_off,101,0,0,,5,,,53,127
89005,note_off,2,0,0,,10,,,69,127
89006,note_on,1,0,0,,10,,,57,127
89107,note_off,101,0,0,,10,,,57,127
89110,note_on,3,0,0,,4,,,40,127
89110,note_on,0,0,0,,4,,,64,127
89211,note_off,101,0,0,,4,,,64,127
89214,note_on,3,0,0,,12,,,59,127
89315,note_off,101,0,0,,12,,,59,127
89315,note_off,0,0,0,,4,,,40,127
89318,note_on,3,0,0,,4,,,52,127
89318,note_on,0,0,0,,8,,,56,127
89419,note_off,101,0,0,,8,,,56,127
89422,note_on,3,0,0,,12,,,59,127
89523,note_off,101,0,0,,12,,,59,127
89526,note_on,3,0,0,,4,,,64,127
89627,note_off,101,0,0,,4,,,52,127
89630,note_on,3,0,0,,2,,,50,127
89731,note_off,101,0,0,,2,,,50,127
89731,note_off,0,0,0,,4,,,64,127
89734,note_on,3,0,0,,0,,,48,127
89734,note_on,0,0,0,,8,,,68,127
89835,note_off,101,0,0,,0,,,48,127
89838,note_on,3,0,0,,12,,,47,127
89939,note_off,101,0,0,,12,,,47,127
89939,note_off,0,0,0,,8,,,68,127
89942,note_on,3,0,0,,0,,,48,127
89942,note_on,0,0,0,,10,,,69,127
90043,note_off,101,0,0,,10,,,69,127
90046,note_on,3,0,0,,12,,,71,127
90147,note_off,101,0,0,,12,,,71,127
90147,note_off,0,0,0,,0,,,48,127
90150,note_on,3,0,0,,2,,,50,127
90150,note_on,0,0,0,,0,,,72,127
90251,note_off,101,0,0,,0,,,72,127
90254,note_on,3,0,0,,2,,,74,127
90355,note_off,101,0,0,,2,,,74,127
90355,note_off,0,0,0,,2,,,50,127
90358,note_on,3,0,0,,4,,,52,127
90358,note_on,0,0,0,,0,,,72,127
90459,note_off,101,0,0,,0,,,72,127
90462,note_on,3,0,0,,12,,,71,127
90563,note_off,101,0,0,,12,,,71,127
90566,note_on,3,0,0,,4,,,40,127
90566,note_on,0,0,0,,10,,,69,127
90667,note_off,101,0,0,,10,,,69,127
90670,note_on,3,0,0,,8,,,68,127
90771,note_off,101,0,0,,8,,,68,127
90771,note_off,0,0,0,,4,,,40,127
90773,note_off,2,0,0,,4,,,52,127
90774,note_on,1,0,0,,10,,,45,127
90774,note_on,0,0,0,,10,,,69,127
90875,note_off,101,0,0,,10,,,69,127
90878,note_on,3,0,0,,4,,,64,127
90979,note_off,101,0,0,,4,,,64,127
90979,note_off,0,0,0,,10,,,45,127
90982,note_on,3,0,0,,10,,,81,127
90982,note_on,0,0,0,,1,,,73,127
91083,note_off,101,0,0,,1,,,73,127
91086,note_on,3,0,0,,4,,,64,127
91187,note_off,101,0,0,,4,,,64,127
91187,note_off,0,0,0,,10,,,81,127
91190,note_on,3,0,0,,4,,,40,127
91190,note_on,0,0,0,,12,,,71,127
91291,note_off,101,0,0,,12,,,71,127
91294,note_on,3,0,0,,4,,,64,127
91395,note_off,101,0,0,,4,,,64,127
91398,note_on,3,0,0,,2,,,74,127
91499,note_off,101,0,0,,2,,,74,127
91502,note_on,3,0,0,,4,,,64,127
91603,note_off,101,0,0,,4,,,64,127
91603,note_off,0,0,0,,4,,,40,127
91606,note_on,3,0,0,,10,,,45,127
91606,note_on,0,0,0,,1,,,73,127
91707,note_off,101,0,0,,1,,,73,127
91710,note_on,3,0,0,,4,,,64,127
91811,note_off,101,0,0,,4,,,64,127
91811,note_off,0,0,0,,10,,,45,127
91814,note_on,3,0,0,,10,,,81,127
91814,note_on,0,0,0,,10,,,69,127
91915,note_off,101,0,0,,10,,,69,127
91918,note_on,3,0,0,,4,,,64,127
92019,note_off,101,0,0,,4,,,64,127
92019,note_off,0,0,0,,10,,,81,127
92022,note_on,3,0,0,,4,,,40,127
92022,note_on,0,0,0,,12,,,71,127
92123,note_off,101,0,0,,12,,,71,127
92126,note_on,3,0,0,,4,,,64,127
92227,note_off,101,0,0,,4,,,64,127
92230,note_on,3,0,0,,2,,,74,127
92331,note_off,101,0,0,,2,,,74,127
92334,note_on,3,0,0,,4,,,64,127
92435,note_off,101,0,0,,4,,,64,127
92435,note_off,0,0,0,,4,,,40,127
92438,note_on,3,0,0,,10,,,45,127
92438,note_on,0,0,0,,1,,,73,127
92539,note_off,101,0,0,,1,,,73,127
92542,note_on,3,0,0,,4,,,64,127
92643,note_off,101,0,0,,4,,,64,127
92643,note_off,0,0,0,,10,,,45,127
92646,note_on,3,0,0,,10,,,81,127
92646,note_on,0,0,0,,10,,,69,127
92747,note_off,101,0,0,,10,,,69,127
92750,note_on,3,0,0,,4,,,64,127
92851,note_off,101,0,0,,4,,,64,127
92851,note_off,0,0,0,,10,,,81,127
92854,note_on,3,0,0,,4,,,40,127
92854,note_on,0,0,0,,12,,,71,127
92955,note_off,101,0,0,,12,,,71,127
92958,note_on,3,0,0,,4,,,64,127
93059,note_off,101,0,0,,4,,,64,127
93062,note_on,3,0,0,,2,,,74,127
93163,note_off,101,0,0,,2,,,74,127
93166,note_on,3,0,0,,4,,,64,127
93267,note_off,101,0,0,,4,,,64,127
93267,note_off,0,0,0,,4,,,40,127
93270,note_on,3,0,0,,10,,,45,127
93270,note_on,0,0,0,,1,,,73,127
93371,note_off,101,0,0,,1,,,73,127
93374,note_on,3,0,0,,2,,,74,127
93475,note_off,101,0,0,,2,,,74,127
93475,note_off,0,0,0,,10,,,45,127
93478,note_on,3,0,0,,2,,,50,127
93478,note_on,0,0,0,,4,,,76,127
93579,note_off,101,0,0,,4,,,76,127
93582,note_on,3,0,0,,2,,,74,127
93683,note_off,101,0,0,,2,,,74,127
93683,note_off,0,0,0,,2,,,50,127
93686,note_on,3,0,0,,4,,,52,127
93686,note_on,0,0,0,,1,,,73,127
93787,note_off,101,0,0,,1,,,73,127
93790,note_on,3,0,0,,12,,,71,127
93891,note_off,101,0,0,,12,,,71,127
93894,note_on,3,0,0,,4,,,40,127
93894,note_on,0,0,0,,10,,,69,127
93995,note_off,101,0,0,,10,,,69,127
93998,note_on,3,0,0,,8,,,68,127
94099,note_off,101,0,0,,8,,,68,127
94099,note_off,0,0,0,,4,,,40,127
94101,note_off,2,0,0,,4,,,52,127
94102,note_on,1,0,0,,10,,,45,127
94102,note_on,0,0,0,,10,,,69,127
94203,note_off,101,0,0,,10,,,69,127
94206,note_on,3,0,0,,4,,,64,127
94307,note_off,101,0,0,,4,,,64,127
94307,note_off,0,0,0,,10,,,45,127
94310,note_on,3,0,0,,10,,,81,127
94310,note_on,0,0,0,,1,,,73,127
94411,note_off,101,0,0,,1,,,73,127
94414,note_on,3,0,0,,4,,,64,127
94515,note_off,101,0,0,,4,,,64,127
94515,note_off,0,0,0,,10,,,81,127
94518,note_on,3,0,0,,4,,,40,127
94518,note_on,0,0,0,,12,,,71,127
94619,note_off,101,0,0,,12,,,71,127
94622,note_on,3,0,0,,4,,,64,127
94723,note_off,101,0,0,,4,,,64,127
94726,note_on,3,0,0,,2,,,74,127
94827,note_off,101,0,0,,2,,,74,127
94830,note_on,3,0,0,,4,,,64,127
94931,note_off,101,0,0,,4,,,64,127
94931,note_off,0,0,0,,4,,,40,127
94934,note_on,3,0,0,,10,,,45,127
94934,note_on,0,0,0,,1,,,73,127
95035,note_off,101,0,0,,1,,,73,127
95038,note_on,3,0,0,,4,,,64,127
95139,note_off,101,0,0,,4,,,64,127
95139,note_off,0,0,0,,10,,,45,127
95142,note_on,3,0,0,,10,,,81,127
95142,note_on,0,0,0,,10,,,69,127
95243,note_off,101,0,0,,10,,,69,127
95246,note_on,3,0,0,,4,,,64,127
95347,note_off,101,0,0,,4,,,64,127
95347,note_off,0,0,0,,10,,,81,127
95350,note_on,3,0,0,,4,,,40,127
95350,note_on,0,0,0,,12,,,71,127
95451,note_off,101,0,0,,12,,,71,127
95454,note_on,3,0,0,,4,,,64,127
95555,note_off,101,0,0,,4,,,64,127
95558,note_on,3,0,0,,2,,,74,127
95659,note_off,101,0,0,,2,,,74,127
95662,note_on,3,0,0,,4,,,64,127
95763,note_off,101,0,0,,4,,,64,127
95763,note_off,0,0,0,,4,,,40,127
95766,note_on,3,0,0,,10,,,45,127
95766,note_on,0,0,0,,1,,,73,127
95867,note_off,101,0,0,,1,,,73,127
95870,note_on,3,0,0,,4,,,64,127
95971,note_off,101,0,0,,4,,,64,127
95971,note_off,0,0,0,,10,,,45,127
95974,note_on,3,0,0,,10,,,81,127
95974,note_on,0,0,0,,10,,,69,127
96075,note_off,101,0,0,,10,,,69,127
96078,note_on,3,0,0,,4,,,64,127
96179,note_off,101,0,0,,4,,,64,127
96179,note_off,0,0,0,,10,,,81,127
96182,note_on,3,0,0,,4,,,40,127
96182,note_on,0,0,0,,12,,,71,127
96283,note_off,101,0,0,,12,,,71,127
96286,note_on,3,0,0,,4,,,64,127
96387,note_off,101,0,0,,4,,,64,127
96390,note_on,3,0,0,,2,,,74,127
96491,note_off,101,0,0,,2,,,74,127
96494,note_on,3,0,0,,4,,,64,127
96595,note_off,101,0,0,,4,,,64,127
96595,note_off,0,0,0,,4,,,40,127
96598,note_on,3,0,0,,10,,,45,127
96598,note_on,0,0,0,,1,,,73,127
96699,note_off,101,0,0,,1,,,73,127
96702,note_on,3,0,0,,2,,,74,127
96803,note_off,101,0,0,,2,,,74,127
96803,note_off,0,0,0,,10,,,45,127
96806,note_on,3,0,0,,2,,,50,127
96806,note_on,0,0,0,,4,,,76,127
96907,note_off,101,0,0,,4,,,76,127
96910,note_on,3,0,0,,2,,,74,127
97011,note_off,101,0,0,,2,,,74,127
97011,note_off,0,0,0,,2,,,50,127
97014,note_on,3,0,0,,4,,,52,127
97014,note_on,0,0,0,,1,,,73,127
97115,note_off,101,0,0,,1,,,73,127
97118,note_on,3,0,0,,12,,,71,127
97219,note_off,101,0,0,,12,,,71,127
97222,note_on,3,0,0,,4,,,40,127
97222,note_on,0,0,0,,10,,,69,127
97323,note_off,101,0,0,,10,,,69,127
97326,note_on,3,0,0,,8,,,68,127
97427,note_off,101,0,0,,8,,,68,127
97427,note_off,0,0,0,,4,,,40,127
97429,note_off,2,0,0,,4,,,52,127
97437,note_on,8,0,0,,10,,,69,127
97437,note_on,0,0,0,,10,,,45,127
97538,note_off,101,0,0,,10,,,69,127
97541,note_on,3,0,0,,4,,,64,127
97642,note_off,101,0,0,,4,,,64,127
97642,note_off,0,0,0,,10,,,45,127
97645,note_on,3,0,0,,6,,,66,127
97645,note_on,0,0,0,,2,,,50,127
97746,note_off,101,0,0,,6,,,66,127
97749,note_on,3,0,0,,2,,,62,127
97850,note_off,101,0,0,,2,,,62,127
97850,note_off,0,0,0,,2,,,50,127
97853,note_on,3,0,0,,1,,,61,127
97853,note_on,0,0,0,,4,,,52,127
97954,note_off,101,0,0,,1,,,61,127
97957,note_on,3,0,0,,10,,,69,127
98058,note_off,101,0,0,,10,,,69,127
98061,note_on,3,0,0,,12,,,59,127
98061,note_on,0,0,0,,4,,,40,127
98162,note_off,101,0,0,,12,,,59,127
98165,note_on,3,0,0,,8,,,68,127
98266,note_off,101,0,0,,8,,,68,127
98266,note_off,0,0,0,,4,,,40,127
98268,note_off,2,0,0,,4,,,52,127
98269,note_on,1,0,0,,10,,,69,127
98269,note_on,0,0,0,,10,,,45,127
98370,note_off,101,0,0,,10,,,69,127
98373,note_on,3,0,0,,4,,,64,127
98474,note_off,101,0,0,,4,,,64,127
98477,note_on,3,0,0,,1,,,61,127
98578,note_off,101,0,0,,1,,,61,127
98581,note_on,3,0,0,,10,,,57,127
98682,note_off,101,0,0,,10,,,57,127
98685,note_on,3,0,0,,12,,,59,127
98786,note_off,101,0,0,,12,,,59,127
98789,note_on,3,0,0,,2,,,62,127
98890,note_off,101,0,0,,2,,,62,127
98893,note_on,3,0,0,,4,,,64,127
98994,note_off,101,0,0,,4,,,64,127
98997,note_on,3,0,0,,8,,,68,127
99098,note_off,101,0,0,,8,,,68,127
99098,note_off,0,0,0,,10,,,45,127
99101,note_on,3,0,0,,10,,,69,127
99101,note_on,0,0,0,,10,,,45,127
99202,note_off,101,0,0,,10,,,69,127
99205,note_on,3,0,0,,4,,,64,127
99306,note_off,101,0,0,,4,,,64,127
99309,note_on,3,0,0,,1,,,61,127
99410,note_off,101,0,0,,1,,,61,127
99413,note_on,3,0,0,,10,,,57,127
99514,note_off,101,0,0,,10,,,57,127
99517,note_on,3,0,0,,12,,,59,127
99618,note_off,101,0,0,,12,,,59,127
99621,note_on,3,0,0,,2,,,62,127
99722,note_off,101,0,0,,2,,,62,127
99725,note_on,3,0,0,,4,,,64,127
99826,note_off,101,0,0,,4,,,64,127
99829,note_on,3,0,0,,8,,,68,127
99930,note_off,101,0,0,,8,,,68,127
99930,note_off,0,0,0,,10,,,45,127
99933,note_on,3,0,0,,10,,,69,127
99933,note_on,0,0,0,,10,,,45,127
100034,note_off,101,0,0,,10,,,69,127
100037,note_on,3,0,0,,4,,,64,127
100138,note_off,101,0,0,,4,,,64,127
100141,note_on,3,0,0,,1,,,61,127
100242,note_off,101,0,0,,1,,,61,127
100245,note_on,3,0,0,,10,,,57,127
100346,note_off,101,0,0,,10,,,57,127
100349,note_on,3,0,0,,12,,,59,127
100450,note_off,101,0,0,,12,,,59,127
100453,note_on,3,0,0,,2,,,62,127
100554,note_off,101,0,0,,2,,,62,127
100557,note_on,3,0,0,,4,,,64,127
100658,note_off,101,0,0,,4,,,64,127
100661,note_on,3,0,0,,8,,,68,127
100762,note_off,101,0,0,,8,,,68,127
100762,note_off,0,0,0,,10,,,45,127
100783,note_on,21,0,0,,10,,,69,127
100783,note_on,0,0,0,,10,,,45,127
100783,note_on,0,0,0,,4,,,52,127
100783,note_on,0,0,0,,1,,,49,127
100783,note_on,0,0,0,,10,,,57,127
100783,note_on,0,0,0,,4,,,64,127
100783,note_on,0,0,0,,1,,,61,127
102458,note_off,1675,0,0,,1,,,61,127
102458,note_off,0,0,0,,4,,,64,127
102458,note_off,0,0,0,,10,,,57,127
102458,note_off,0,0,0,,1,,,49,127
102458,note_off,0,0,0,,4,,,52,127
102458,note_off,0,0,0,,10,,,45,127
102458,note_off,0,0,0,,10,,,69,127
102912,end_of_track,454,1,0,,,,,,
