tick,type,time,meta,track,program,channel,pitch,tempo,note,velocity
0,copyright,0,1,0,,,,,,
0,program_change,0,0,0,6,0,,,,
0,pitchwheel,0,0,0,,0,0,,,
0,program_change,0,0,0,6,1,,,,
0,pitchwheel,0,0,0,,1,-590,,,
0,program_change,0,0,0,6,2,,,,
0,pitchwheel,0,0,0,,2,-272,,,
0,program_change,0,0,0,6,3,,,,
0,pitchwheel,0,0,0,,3,-353,,,
0,program_change,0,0,0,6,4,,,,
0,pitchwheel,0,0,0,,4,-560,,,
0,program_change,0,0,0,6,5,,,,
0,pitchwheel,0,0,0,,5,-80,,,
0,program_change,0,0,0,6,6,,,,
0,pitchwheel,0,0,0,,6,-625,,,
0,program_change,0,0,0,6,7,,,,
0,pitchwheel,0,0,0,,7,-130,,,
0,program_change,0,0,0,6,8,,,,
0,pitchwheel,0,0,0,,8,-512,,,
0,program_change,0,0,0,6,10,,,,
0,pitchwheel,0,0,0,,10,-464,,,
0,program_change,0,0,0,6,11,,,,
0,pitchwheel,0,0,0,,11,-208,,,
0,program_change,0,0,0,6,12,,,,
0,pitchwheel,0,0,0,,12,-553,,,
0,set_tempo,0,1,0,,,,500000,,
0,note_on,0,0,0,,0,,,72,127
0,note_on,0,0,0,,0,,,48,127
134,note_off,134,0,0,,0,,,72,127
134,note_on,0,0,0,,7,,,67,127
268,note_off,134,0,0,,7,,,67,127
268,note_on,0,0,0,,3,,,63,127
402,note_off,134,0,0,,3,,,63,127
402,note_on,0,0,0,,0,,,60,127
536,note_off,134,0,0,,0,,,60,127
536,note_on,0,0,0,,3,,,75,127
536,note_on,0,0,0,,7,,,67,127
803,note_off,267,0,0,,0,,,48,127
804,note_on,1,0,0,,0,,,60,127
1072,note_off,268,0,0,,0,,,60,127
1072,note_on,0,0,0,,7,,,55,127
1340,note_off,268,0,0,,3,,,75,127
1340,note_on,0,0,0,,2,,,74,127
1591,note_off,251,0,0,,2,,,74,127
1608,note_off,17,0,0,,7,,,55,127
1608,note_off,0,0,0,,7,,,67,127
1608,note_on,0,0,0,,5,,,77,127
1608,note_on,0,0,0,,0,,,60,127
1608,note_on,0,0,0,,2,,,62,127
1608,note_on,0,0,0,,5,,,53,127
1742,note_off,134,0,0,,5,,,77,127
1742,note_on,0,0,0,,2,,,74,127
1876,note_off,134,0,0,,2,,,74,127
1876,note_on,0,0,0,,12,,,71,127
2010,note_off,134,0,0,,12,,,71,127
2010,note_off,0,0,0,,0,,,60,127
2010,note_on,0,0,0,,5,,,65,127
2144,note_on,134,0,0,,12,,,71,127
2144,note_on,0,0,0,,8,,,68,127
2412,note_off,268,0,0,,5,,,53,127
2412,note_off,0,0,0,,2,,,62,127
2412,note_on,0,0,0,,2,,,62,127
2412,note_on,0,0,0,,5,,,53,127
2674,note_off,262,0,0,,8,,,68,127
2680,note_off,6,0,0,,5,,,53,127
2680,note_off,0,0,0,,2,,,62,127
2680,note_off,0,0,0,,5,,,65,127
2680,note_on,0,0,0,,0,,,60,127
2680,note_on,0,0,0,,7,,,55,127
2680,note_on,0,0,0,,3,,,51,127
2948,note_off,268,0,0,,12,,,71,127
2948,note_on,0,0,0,,0,,,72,127
3216,note_off,268,0,0,,0,,,72,127
3216,note_off,0,0,0,,3,,,51,127
3216,note_off,0,0,0,,7,,,55,127
3216,note_off,0,0,0,,0,,,60,127
3216,note_on,0,0,0,,5,,,53,127
3216,note_on,0,0,0,,0,,,60,127
3350,note_on,134,0,0,,7,,,67,127
3484,note_off,134,0,0,,7,,,67,127
3484,note_on,0,0,0,,8,,,68,127
3618,note_off,134,0,0,,8,,,68,127
3618,note_on,0,0,0,,5,,,65,127
3752,note_off,134,0,0,,0,,,60,127
3752,note_off,0,0,0,,5,,,53,127
3752,note_on,0,0,0,,2,,,62,127
3752,note_on,0,0,0,,12,,,59,127
3886,note_off,134,0,0,,5,,,65,127
3886,note_on,0,0,0,,0,,,72,127
4020,note_off,134,0,0,,0,,,72,127
4020,note_on,0,0,0,,2,,,74,127
4154,note_off,134,0,0,,2,,,74,127
4154,note_on,0,0,0,,12,,,71,127
4288,note_off,134,0,0,,12,,,59,127
4288,note_off,0,0,0,,2,,,62,127
4288,note_on,0,0,0,,2,,,62,127
4288,note_on,0,0,0,,7,,,55,127
4422,note_off,134,0,0,,12,,,71,127
4422,note_on,0,0,0,,3,,,75,127
4556,note_off,134,0,0,,3,,,75,127
4556,note_on,0,0,0,,5,,,77,127
4690,note_off,134,0,0,,5,,,77,127
4690,note_on,0,0,0,,2,,,74,127
4824,note_off,134,0,0,,2,,,74,127
4824,note_off,0,0,0,,7,,,55,127
4824,note_off,0,0,0,,2,,,62,127
4824,note_on,0,0,0,,7,,,79,127
4824,note_on,0,0,0,,0,,,48,127
4958,note_off,134,0,0,,7,,,79,127
4958,note_on,0,0,0,,3,,,75,127
5092,note_off,134,0,0,,3,,,75,127
5092,note_on,0,0,0,,0,,,72,127
5226,note_off,134,0,0,,0,,,72,127
5226,note_on,0,0,0,,7,,,67,127
5360,note_off,134,0,0,,7,,,67,127
5360,note_on,0,0,0,,3,,,63,127
5494,note_off,134,0,0,,3,,,63,127
5494,note_on,0,0,0,,0,,,60,127
5628,note_off,134,0,0,,0,,,60,127
5628,note_off,0,0,0,,0,,,48,127
5628,note_on,0,0,0,,7,,,55,127
5762,note_off,134,0,0,,7,,,55,127
5762,note_on,0,0,0,,3,,,51,127
5896,note_off,134,0,0,,3,,,51,127
5896,note_on,0,0,0,,0,,,48,127
6030,note_off,134,0,0,,0,,,48,127
6030,note_on,0,0,0,,7,,,43,127
6164,note_off,134,0,0,,7,,,43,127
6164,note_on,0,0,0,,3,,,39,127
6298,note_off,134,0,0,,3,,,39,127
6298,note_on,0,0,0,,0,,,36,127
6432,note_on,134,0,0,,0,,,72,127
6432,note_on,0,0,0,,0,,,48,127
6566,note_off,134,0,0,,0,,,72,127
6566,note_on,0,0,0,,7,,,67,127
6700,note_off,134,0,0,,7,,,67,127
6700,note_off,0,0,0,,0,,,36,127
6700,note_on,0,0,0,,3,,,63,127
6834,note_off,134,0,0,,3,,,63,127
6834,note_on,0,0,0,,0,,,60,127
6968,note_off,134,0,0,,0,,,60,127
6968,note_on,0,0,0,,7,,,67,127
6968,note_on,0,0,0,,3,,,75,127
7236,note_off,268,0,0,,0,,,48,127
7236,note_on,0,0,0,,0,,,60,127
7504,note_off,268,0,0,,0,,,60,127
7504,note_on,0,0,0,,7,,,55,127
7772,note_off,268,0,0,,3,,,75,127
7772,note_off,0,0,0,,7,,,67,127
7772,note_on,0,0,0,,2,,,74,127
8040,note_off,268,0,0,,2,,,74,127
8040,note_off,0,0,0,,7,,,55,127
8040,note_on,0,0,0,,5,,,77,127
8040,note_on,0,0,0,,0,,,60,127
8040,note_on,0,0,0,,2,,,62,127
8040,note_on,0,0,0,,5,,,53,127
8174,note_off,134,0,0,,5,,,77,127
8174,note_on,0,0,0,,2,,,74,127
8308,note_off,134,0,0,,2,,,74,127
8308,note_off,0,0,0,,0,,,60,127
8308,note_on,0,0,0,,12,,,71,127
8442,note_off,134,0,0,,12,,,71,127
8442,note_on,0,0,0,,5,,,65,127
8576,note_on,134,0,0,,8,,,68,127
8576,note_on,0,0,0,,12,,,71,127
8844,note_off,268,0,0,,5,,,53,127
8844,note_off,0,0,0,,2,,,62,127
8844,note_on,0,0,0,,2,,,62,127
8844,note_on,0,0,0,,5,,,53,127
9112,note_off,268,0,0,,5,,,53,127
9112,note_off,0,0,0,,2,,,62,127
9112,note_off,0,0,0,,5,,,65,127
9112,note_on,0,0,0,,3,,,51,127
9112,note_on,0,0,0,,7,,,55,127
9112,note_on,0,0,0,,0,,,60,127
9379,note_off,267,0,0,,8,,,68,127
9380,note_off,1,0,0,,12,,,71,127
9380,note_on,0,0,0,,0,,,72,127
9648,note_off,268,0,0,,0,,,60,127
9648,note_off,0,0,0,,7,,,55,127
9648,note_off,0,0,0,,3,,,51,127
9648,note_on,0,0,0,,5,,,53,127
9648,note_on,0,0,0,,0,,,60,127
9782,note_off,134,0,0,,0,,,72,127
9782,note_on,0,0,0,,7,,,67,127
9916,note_off,134,0,0,,7,,,67,127
9916,note_on,0,0,0,,8,,,68,127
10050,note_off,134,0,0,,8,,,68,127
10050,note_on,0,0,0,,5,,,65,127
10184,note_off,134,0,0,,0,,,60,127
10184,note_off,0,0,0,,5,,,53,127
10184,note_on,0,0,0,,2,,,62,127
10184,note_on,0,0,0,,12,,,59,127
10318,note_off,134,0,0,,5,,,65,127
10318,note_on,0,0,0,,0,,,72,127
10452,note_off,134,0,0,,0,,,72,127
10452,note_on,0,0,0,,2,,,74,127
10586,note_off,134,0,0,,2,,,74,127
10586,note_on,0,0,0,,12,,,71,127
10720,note_off,134,0,0,,12,,,59,127
10720,note_off,0,0,0,,2,,,62,127
10720,note_on,0,0,0,,7,,,55,127
10720,note_on,0,0,0,,2,,,62,127
10854,note_off,134,0,0,,12,,,71,127
10854,note_on,0,0,0,,3,,,75,127
10988,note_off,134,0,0,,3,,,75,127
10988,note_on,0,0,0,,5,,,77,127
11122,note_off,134,0,0,,5,,,77,127
11122,note_on,0,0,0,,2,,,74,127
11256,note_off,134,0,0,,2,,,74,127
11256,note_off,0,0,0,,2,,,62,127
11256,note_off,0,0,0,,7,,,55,127
11256,note_on,0,0,0,,7,,,79,127
11256,note_on,0,0,0,,0,,,48,127
11390,note_off,134,0,0,,7,,,79,127
11390,note_on,0,0,0,,3,,,75,127
11524,note_off,134,0,0,,3,,,75,127
11524,note_on,0,0,0,,0,,,72,127
11658,note_off,134,0,0,,0,,,72,127
11658,note_on,0,0,0,,7,,,67,127
11792,note_off,134,0,0,,7,,,67,127
11792,note_on,0,0,0,,3,,,63,127
11926,note_off,134,0,0,,3,,,63,127
11926,note_on,0,0,0,,0,,,60,127
12060,note_off,134,0,0,,0,,,60,127
12060,note_off,0,0,0,,0,,,48,127
12060,note_on,0,0,0,,7,,,55,127
12194,note_off,134,0,0,,7,,,55,127
12194,note_on,0,0,0,,3,,,51,127
12328,note_off,134,0,0,,3,,,51,127
12328,note_on,0,0,0,,0,,,48,127
12462,note_off,134,0,0,,0,,,48,127
12462,note_on,0,0,0,,7,,,43,127
12596,note_on,134,0,0,,0,,,36,127
12864,note_off,268,0,0,,7,,,43,127
12864,note_on,0,0,0,,0,,,60,127
12864,note_on,0,0,0,,3,,,63,127
12998,note_off,134,0,0,,0,,,36,127
12998,note_on,0,0,0,,7,,,67,127
13132,note_off,134,0,0,,7,,,67,127
13132,note_off,0,0,0,,3,,,63,127
13132,note_off,0,0,0,,0,,,60,127
13132,note_on,0,0,0,,8,,,68,127
13132,note_on,0,0,0,,3,,,63,127
13132,note_on,0,0,0,,0,,,60,127
13266,note_off,134,0,0,,8,,,68,127
13266,note_on,0,0,0,,10,,,69,127
13400,note_off,134,0,0,,10,,,69,127
13400,note_off,0,0,0,,0,,,60,127
13400,note_off,0,0,0,,3,,,63,127
13400,note_on,0,0,0,,11,,,70,127
13400,note_on,0,0,0,,0,,,60,127
13400,note_on,0,0,0,,3,,,63,127
13534,note_off,134,0,0,,11,,,70,127
13534,note_on,0,0,0,,12,,,71,127
13668,note_off,134,0,0,,12,,,71,127
13668,note_off,0,0,0,,3,,,63,127
13668,note_off,0,0,0,,0,,,60,127
13668,note_on,0,0,0,,0,,,72,127
13668,note_on,0,0,0,,0,,,60,127
13668,note_on,0,0,0,,3,,,63,127
13802,note_off,134,0,0,,0,,,72,127
13802,note_on,0,0,0,,2,,,74,127
13936,note_off,134,0,0,,2,,,74,127
13936,note_off,0,0,0,,3,,,63,127
13936,note_off,0,0,0,,0,,,60,127
13936,note_on,0,0,0,,3,,,75,127
13936,note_on,0,0,0,,0,,,60,127
13936,note_on,0,0,0,,3,,,63,127
14070,note_off,134,0,0,,3,,,75,127
14070,note_on,0,0,0,,4,,,76,127
14204,note_off,134,0,0,,4,,,76,127
14204,note_off,0,0,0,,3,,,63,127
14204,note_off,0,0,0,,0,,,60,127
14204,note_on,0,0,0,,5,,,77,127
14204,note_on,0,0,0,,0,,,60,127
14204,note_on,0,0,0,,3,,,63,127
14338,note_off,134,0,0,,5,,,77,127
14338,note_on,0,0,0,,6,,,78,127
14472,note_off,134,0,0,,6,,,78,127
14472,note_off,0,0,0,,3,,,63,127
14472,note_off,0,0,0,,0,,,60,127
14472,note_on,0,0,0,,7,,,79,127
14472,note_on,0,0,0,,12,,,59,127
14472,note_on,0,0,0,,2,,,62,127
14606,note_off,134,0,0,,7,,,79,127
14606,note_on,0,0,0,,2,,,74,127
14740,note_off,134,0,0,,2,,,74,127
14740,note_off,0,0,0,,2,,,62,127
14740,note_off,0,0,0,,12,,,59,127
14740,note_on,0,0,0,,12,,,71,127
14740,note_on,0,0,0,,2,,,62,127
14740,note_on,0,0,0,,12,,,59,127
14874,note_off,134,0,0,,12,,,71,127
14874,note_on,0,0,0,,7,,,67,127
15008,note_off,134,0,0,,7,,,67,127
15008,note_off,0,0,0,,12,,,59,127
15008,note_off,0,0,0,,2,,,62,127
15008,note_on,0,0,0,,8,,,68,127
15008,note_on,0,0,0,,12,,,59,127
15008,note_on,0,0,0,,2,,,62,127
15142,note_off,134,0,0,,8,,,68,127
15142,note_on,0,0,0,,7,,,67,127
15209,note_off,67,0,0,,7,,,67,127
15209,note_on,0,0,0,,8,,,68,127
15276,note_off,67,0,0,,8,,,68,127
15276,note_off,0,0,0,,2,,,62,127
15276,note_off,0,0,0,,12,,,59,127
15276,note_on,0,0,0,,7,,,67,127
15276,note_on,0,0,0,,12,,,59,127
15276,note_on,0,0,0,,2,,,62,127
15343,note_off,67,0,0,,7,,,67,127
15343,note_on,0,0,0,,8,,,68,127
15410,note_off,67,0,0,,8,,,68,127
15410,note_on,0,0,0,,7,,,67,127
15477,note_off,67,0,0,,7,,,67,127
15477,note_on,0,0,0,,8,,,68,127
15544,note_off,67,0,0,,8,,,68,127
15544,note_off,0,0,0,,2,,,62,127
15544,note_off,0,0,0,,12,,,59,127
15544,note_on,0,0,0,,7,,,67,127
15544,note_on,0,0,0,,2,,,62,127
15544,note_on,0,0,0,,12,,,59,127
15812,note_off,268,0,0,,12,,,59,127
15812,note_off,0,0,0,,2,,,62,127
15812,note_on,0,0,0,,10,,,57,127
15812,note_on,0,0,0,,0,,,60,127
16080,note_off,268,0,0,,0,,,60,127
16080,note_off,0,0,0,,10,,,57,127
16080,note_off,0,0,0,,7,,,67,127
16080,note_on,0,0,0,,11,,,58,127
16080,note_on,0,0,0,,2,,,62,127
16214,note_on,134,0,0,,6,,,66,127
16348,note_off,134,0,0,,6,,,66,127
16348,note_off,0,0,0,,2,,,62,127
16348,note_off,0,0,0,,11,,,58,127
16348,note_on,0,0,0,,7,,,67,127
16348,note_on,0,0,0,,2,,,62,127
16348,note_on,0,0,0,,11,,,58,127
16482,note_off,134,0,0,,7,,,67,127
16482,note_on,0,0,0,,8,,,68,127
16616,note_off,134,0,0,,8,,,68,127
16616,note_off,0,0,0,,11,,,58,127
16616,note_off,0,0,0,,2,,,62,127
16616,note_on,0,0,0,,10,,,69,127
16616,note_on,0,0,0,,11,,,58,127
16616,note_on,0,0,0,,2,,,62,127
16750,note_off,134,0,0,,10,,,69,127
16750,note_on,0,0,0,,11,,,70,127
16884,note_off,134,0,0,,11,,,70,127
16884,note_off,0,0,0,,2,,,62,127
16884,note_off,0,0,0,,11,,,58,127
16884,note_on,0,0,0,,12,,,71,127
16884,note_on,0,0,0,,11,,,58,127
16884,note_on,0,0,0,,2,,,62,127
17018,note_off,134,0,0,,12,,,71,127
17018,note_on,0,0,0,,0,,,72,127
17152,note_off,134,0,0,,0,,,72,127
17152,note_off,0,0,0,,2,,,62,127
17152,note_off,0,0,0,,11,,,58,127
17152,note_on,0,0,0,,1,,,73,127
17152,note_on,0,0,0,,2,,,62,127
17152,note_on,0,0,0,,11,,,58,127
17286,note_off,134,0,0,,1,,,73,127
17286,note_on,0,0,0,,2,,,74,127
17420,note_off,134,0,0,,2,,,74,127
17420,note_off,0,0,0,,11,,,58,127
17420,note_off,0,0,0,,2,,,62,127
17420,note_on,0,0,0,,3,,,75,127
17420,note_on,0,0,0,,11,,,58,127
17420,note_on,0,0,0,,2,,,62,127
17554,note_off,134,0,0,,3,,,75,127
17554,note_on,0,0,0,,4,,,76,127
17688,note_off,134,0,0,,4,,,76,127
17688,note_off,0,0,0,,2,,,62,127
17688,note_off,0,0,0,,11,,,58,127
17688,note_on,0,0,0,,5,,,77,127
17688,note_on,0,0,0,,8,,,56,127
17688,note_on,0,0,0,,0,,,60,127
17822,note_off,134,0,0,,5,,,77,127
17822,note_on,0,0,0,,0,,,72,127
17956,note_off,134,0,0,,0,,,72,127
17956,note_off,0,0,0,,0,,,60,127
17956,note_off,0,0,0,,8,,,56,127
17956,note_on,0,0,0,,8,,,68,127
17956,note_on,0,0,0,,0,,,60,127
17956,note_on,0,0,0,,8,,,56,127
18090,note_off,134,0,0,,8,,,68,127
18090,note_on,0,0,0,,5,,,65,127
18224,note_off,134,0,0,,5,,,65,127
18224,note_off,0,0,0,,8,,,56,127
18224,note_off,0,0,0,,0,,,60,127
18224,note_on,0,0,0,,7,,,67,127
18224,note_on,0,0,0,,8,,,56,127
18224,note_on,0,0,0,,0,,,60,127
18291,note_off,67,0,0,,7,,,67,127
18291,note_on,0,0,0,,5,,,65,127
18358,note_off,67,0,0,,5,,,65,127
18358,note_on,0,0,0,,4,,,64,127
18425,note_off,67,0,0,,4,,,64,127
18425,note_on,0,0,0,,5,,,65,127
18492,note_off,67,0,0,,0,,,60,127
18492,note_off,0,0,0,,8,,,56,127
18492,note_on,0,0,0,,8,,,56,127
18492,note_on,0,0,0,,0,,,60,127
18760,note_off,268,0,0,,0,,,60,127
18760,note_off,0,0,0,,8,,,56,127
18760,note_on,0,0,0,,8,,,56,127
18760,note_on,0,0,0,,2,,,62,127
18894,note_off,134,0,0,,5,,,65,127
18894,note_on,0,0,0,,5,,,77,127
19028,note_off,134,0,0,,5,,,77,127
19028,note_off,0,0,0,,2,,,62,127
19028,note_off,0,0,0,,8,,,56,127
19028,note_on,0,0,0,,3,,,75,127
19028,note_on,0,0,0,,2,,,62,127
19028,note_on,0,0,0,,8,,,56,127
19162,note_off,134,0,0,,3,,,75,127
19162,note_on,0,0,0,,2,,,74,127
19296,note_off,134,0,0,,2,,,74,127
19296,note_off,0,0,0,,8,,,56,127
19296,note_off,0,0,0,,2,,,62,127
19296,note_on,0,0,0,,3,,,75,127
19296,note_on,0,0,0,,3,,,63,127
19296,note_on,0,0,0,,0,,,60,127
19296,note_on,0,0,0,,7,,,55,127
19430,note_off,134,0,0,,3,,,75,127
19430,note_on,0,0,0,,0,,,72,127
19564,note_off,134,0,0,,0,,,72,127
19564,note_off,0,0,0,,7,,,55,127
19564,note_off,0,0,0,,0,,,60,127
19564,note_off,0,0,0,,3,,,63,127
19564,note_on,0,0,0,,7,,,67,127
19564,note_on,0,0,0,,7,,,55,127
19564,note_on,0,0,0,,0,,,60,127
19564,note_on,0,0,0,,3,,,63,127
19697,note_off,133,0,0,,3,,,63,127
19698,note_off,1,0,0,,7,,,67,127
19698,note_on,0,0,0,,3,,,63,127
19832,note_off,134,0,0,,3,,,63,127
19832,note_off,0,0,0,,0,,,60,127
19832,note_off,0,0,0,,7,,,55,127
19832,note_on,0,0,0,,8,,,68,127
19832,note_on,0,0,0,,0,,,60,127
19832,note_on,0,0,0,,3,,,63,127
19832,note_on,0,0,0,,7,,,55,127
19899,note_off,67,0,0,,8,,,68,127
19899,note_on,0,0,0,,7,,,67,127
19966,note_off,67,0,0,,7,,,67,127
19966,note_on,0,0,0,,5,,,65,127
20033,note_off,67,0,0,,5,,,65,127
20033,note_on,0,0,0,,7,,,67,127
20100,note_off,67,0,0,,7,,,55,127
20100,note_off,0,0,0,,3,,,63,127
20100,note_off,0,0,0,,0,,,60,127
20100,note_on,0,0,0,,7,,,55,127
20100,note_on,0,0,0,,0,,,60,127
20100,note_on,0,0,0,,3,,,63,127
20368,note_off,268,0,0,,3,,,63,127
20368,note_off,0,0,0,,0,,,60,127
20368,note_off,0,0,0,,7,,,55,127
20368,note_on,0,0,0,,3,,,63,127
20368,note_on,0,0,0,,0,,,60,127
20368,note_on,0,0,0,,7,,,55,127
20502,note_off,134,0,0,,7,,,67,127
20502,note_on,0,0,0,,3,,,75,127
20636,note_off,134,0,0,,3,,,75,127
20636,note_off,0,0,0,,7,,,55,127
20636,note_off,0,0,0,,0,,,60,127
20636,note_off,0,0,0,,3,,,63,127
20636,note_on,0,0,0,,2,,,74,127
20636,note_on,0,0,0,,3,,,63,127
20636,note_on,0,0,0,,7,,,55,127
20636,note_on,0,0,0,,0,,,60,127
20770,note_off,134,0,0,,2,,,74,127
20770,note_on,0,0,0,,0,,,72,127
20904,note_off,134,0,0,,0,,,72,127
20904,note_off,0,0,0,,0,,,60,127
20904,note_off,0,0,0,,7,,,55,127
20904,note_off,0,0,0,,3,,,63,127
20904,note_on,0,0,0,,2,,,74,127
20904,note_on,0,0,0,,2,,,62,127
20904,note_on,0,0,0,,5,,,53,127
20904,note_on,0,0,0,,0,,,60,127
21038,note_off,134,0,0,,2,,,74,127
21038,note_on,0,0,0,,12,,,71,127
21172,note_off,134,0,0,,12,,,71,127
21172,note_off,0,0,0,,0,,,60,127
21172,note_off,0,0,0,,5,,,53,127
21172,note_off,0,0,0,,2,,,62,127
21172,note_on,0,0,0,,5,,,65,127
21172,note_on,0,0,0,,2,,,62,127
21172,note_on,0,0,0,,5,,,53,127
21172,note_on,0,0,0,,0,,,60,127
21305,note_off,133,0,0,,2,,,62,127
21306,note_off,1,0,0,,5,,,65,127
21306,note_on,0,0,0,,2,,,62,127
21440,note_off,134,0,0,,2,,,62,127
21440,note_off,0,0,0,,0,,,60,127
21440,note_off,0,0,0,,5,,,53,127
21440,note_on,0,0,0,,7,,,67,127
21440,note_on,0,0,0,,2,,,62,127
21440,note_on,0,0,0,,5,,,53,127
21440,note_on,0,0,0,,0,,,60,127
21507,note_off,67,0,0,,7,,,67,127
21507,note_on,0,0,0,,5,,,65,127
21574,note_off,67,0,0,,5,,,65,127
21574,note_on,0,0,0,,3,,,63,127
21641,note_off,67,0,0,,3,,,63,127
21641,note_on,0,0,0,,5,,,65,127
21708,note_off,67,0,0,,0,,,60,127
21708,note_off,0,0,0,,5,,,53,127
21708,note_off,0,0,0,,2,,,62,127
21708,note_on,0,0,0,,0,,,60,127
21708,note_on,0,0,0,,2,,,62,127
21708,note_on,0,0,0,,5,,,53,127
21976,note_off,268,0,0,,5,,,53,127
21976,note_off,0,0,0,,2,,,62,127
21976,note_off,0,0,0,,0,,,60,127
21976,note_on,0,0,0,,2,,,62,127
21976,note_on,0,0,0,,5,,,53,127
21976,note_on,0,0,0,,0,,,60,127
22110,note_off,134,0,0,,5,,,65,127
22110,note_on,0,0,0,,2,,,74,127
22244,note_off,134,0,0,,2,,,74,127
22244,note_off,0,0,0,,0,,,60,127
22244,note_off,0,0,0,,5,,,53,127
22244,note_off,0,0,0,,2,,,62,127
22244,note_on,0,0,0,,0,,,72,127
22244,note_on,0,0,0,,5,,,53,127
22244,note_on,0,0,0,,0,,,60,127
22244,note_on,0,0,0,,2,,,62,127
22378,note_off,134,0,0,,0,,,72,127
22378,note_on,0,0,0,,12,,,71,127
22512,note_off,134,0,0,,12,,,71,127
22512,note_off,0,0,0,,2,,,62,127
22512,note_off,0,0,0,,0,,,60,127
22512,note_off,0,0,0,,5,,,53,127
22512,note_on,0,0,0,,0,,,72,127
22512,note_on,0,0,0,,0,,,60,127
22512,note_on,0,0,0,,3,,,51,127
22646,note_off,134,0,0,,0,,,72,127
22646,note_on,0,0,0,,7,,,67,127
22780,note_off,134,0,0,,7,,,67,127
22780,note_off,0,0,0,,3,,,51,127
22780,note_off,0,0,0,,0,,,60,127
22780,note_on,0,0,0,,3,,,63,127
22780,note_on,0,0,0,,0,,,60,127
22780,note_on,0,0,0,,3,,,51,127
22913,note_off,133,0,0,,0,,,60,127
22914,note_off,1,0,0,,3,,,63,127
22914,note_on,0,0,0,,0,,,60,127
23048,note_off,134,0,0,,3,,,51,127
23048,note_on,0,0,0,,0,,,72,127
23048,note_on,0,0,0,,3,,,51,127
23182,note_off,134,0,0,,0,,,72,127
23182,note_on,0,0,0,,11,,,70,127
23315,note_off,133,0,0,,0,,,60,127
23316,note_off,1,0,0,,11,,,70,127
23316,note_off,0,0,0,,3,,,51,127
23316,note_on,0,0,0,,8,,,68,127
23316,note_on,0,0,0,,0,,,60,127
23316,note_on,0,0,0,,3,,,51,127
23450,note_off,134,0,0,,8,,,68,127
23450,note_on,0,0,0,,7,,,67,127
23584,note_off,134,0,0,,7,,,67,127
23584,note_off,0,0,0,,3,,,51,127
23584,note_off,0,0,0,,0,,,60,127
23584,note_on,0,0,0,,5,,,65,127
23584,note_on,0,0,0,,5,,,53,127
23584,note_on,0,0,0,,0,,,60,127
23718,note_off,134,0,0,,5,,,65,127
23718,note_on,0,0,0,,3,,,63,127
23852,note_off,134,0,0,,3,,,63,127
23852,note_off,0,0,0,,0,,,60,127
23852,note_off,0,0,0,,5,,,53,127
23852,note_on,0,0,0,,2,,,62,127
23852,note_on,0,0,0,,5,,,53,127
23852,note_on,0,0,0,,0,,,60,127
23985,note_off,133,0,0,,0,,,60,127
23986,note_off,1,0,0,,2,,,62,127
23986,note_on,0,0,0,,0,,,60,127
24120,note_off,134,0,0,,0,,,60,127
24120,note_off,0,0,0,,5,,,53,127
24120,note_on,0,0,0,,7,,,43,127
24254,note_on,134,0,0,,7,,,67,127
24388,note_off,134,0,0,,7,,,67,127
24388,note_on,0,0,0,,5,,,65,127
24388,note_on,0,0,0,,7,,,55,127
24522,note_off,134,0,0,,5,,,65,127
24522,note_on,0,0,0,,7,,,67,127
24656,note_off,134,0,0,,7,,,67,127
24656,note_off,0,0,0,,7,,,55,127
24656,note_on,0,0,0,,8,,,68,127
24656,note_on,0,0,0,,5,,,53,127
24790,note_off,134,0,0,,8,,,68,127
24790,note_on,0,0,0,,5,,,65,127
24923,note_off,133,0,0,,7,,,43,127
24924,note_off,1,0,0,,5,,,65,127
24924,note_off,0,0,0,,5,,,53,127
24924,note_on,0,0,0,,12,,,71,127
24924,note_on,0,0,0,,2,,,50,127
24924,note_on,0,0,0,,12,,,59,127
25058,note_off,134,0,0,,12,,,71,127
25058,note_on,0,0,0,,5,,,65,127
25192,note_off,134,0,0,,5,,,65,127
25192,note_off,0,0,0,,12,,,59,127
25192,note_off,0,0,0,,2,,,50,127
25192,note_on,0,0,0,,0,,,72,127
25192,note_on,0,0,0,,0,,,60,127
25192,note_on,0,0,0,,3,,,51,127
25326,note_off,134,0,0,,0,,,72,127
25326,note_on,0,0,0,,8,,,68,127
25460,note_off,134,0,0,,8,,,68,127
25460,note_off,0,0,0,,0,,,60,127
25460,note_on,0,0,0,,5,,,77,127
25460,note_on,0,0,0,,8,,,56,127
25460,note_on,0,0,0,,0,,,60,127
25594,note_off,134,0,0,,5,,,77,127
25594,note_on,0,0,0,,0,,,72,127
25728,note_off,134,0,0,,0,,,72,127
25728,note_off,0,0,0,,0,,,60,127
25728,note_off,0,0,0,,8,,,56,127
25728,note_off,0,0,0,,3,,,51,127
25728,note_on,0,0,0,,7,,,55,127
25728,note_on,0,0,0,,7,,,79,127
25728,note_on,0,0,0,,7,,,43,127
25862,note_off,134,0,0,,7,,,79,127
25862,note_on,0,0,0,,2,,,74,127
25995,note_off,133,0,0,,7,,,55,127
25996,note_off,1,0,0,,2,,,74,127
25996,note_on,0,0,0,,12,,,71,127
25996,note_on,0,0,0,,7,,,55,127
26130,note_off,134,0,0,,12,,,71,127
26130,note_on,0,0,0,,7,,,67,127
26264,note_off,134,0,0,,7,,,67,127
26264,note_off,0,0,0,,7,,,55,127
26264,note_on,0,0,0,,8,,,68,127
26264,note_on,0,0,0,,5,,,53,127
26398,note_off,134,0,0,,8,,,68,127
26398,note_on,0,0,0,,5,,,65,127
26531,note_off,133,0,0,,7,,,43,127
26532,note_off,1,0,0,,5,,,65,127
26532,note_off,0,0,0,,5,,,53,127
26532,note_on,0,0,0,,12,,,71,127
26532,note_on,0,0,0,,12,,,59,127
26532,note_on,0,0,0,,2,,,50,127
26666,note_off,134,0,0,,12,,,71,127
26666,note_on,0,0,0,,5,,,65,127
26800,note_off,134,0,0,,5,,,65,127
26800,note_off,0,0,0,,2,,,50,127
26800,note_off,0,0,0,,12,,,59,127
26800,note_on,0,0,0,,0,,,72,127
26800,note_on,0,0,0,,0,,,60,127
26800,note_on,0,0,0,,3,,,51,127
26934,note_off,134,0,0,,0,,,72,127
26934,note_on,0,0,0,,8,,,68,127
27068,note_off,134,0,0,,8,,,68,127
27068,note_off,0,0,0,,0,,,60,127
27068,note_on,0,0,0,,5,,,77,127
27068,note_on,0,0,0,,8,,,56,127
27068,note_on,0,0,0,,0,,,60,127
27202,note_off,134,0,0,,5,,,77,127
27202,note_on,0,0,0,,0,,,72,127
27336,note_off,134,0,0,,0,,,72,127
27336,note_off,0,0,0,,0,,,60,127
27336,note_off,0,0,0,,8,,,56,127
27336,note_off,0,0,0,,3,,,51,127
27336,note_on,0,0,0,,7,,,55,127
27336,note_on,0,0,0,,7,,,79,127
27336,note_on,0,0,0,,7,,,43,127
27470,note_off,134,0,0,,7,,,79,127
27470,note_on,0,0,0,,2,,,74,127
27603,note_off,133,0,0,,7,,,55,127
27604,note_off,1,0,0,,2,,,74,127
27604,note_on,0,0,0,,12,,,71,127
27604,note_on,0,0,0,,7,,,55,127
27738,note_off,134,0,0,,12,,,71,127
27738,note_on,0,0,0,,7,,,67,127
27872,note_off,134,0,0,,7,,,67,127
27872,note_off,0,0,0,,7,,,55,127
27872,note_on,0,0,0,,8,,,68,127
27872,note_on,0,0,0,,5,,,53,127
28006,note_off,134,0,0,,8,,,68,127
28006,note_on,0,0,0,,5,,,65,127
28139,note_off,133,0,0,,7,,,43,127
28140,note_off,1,0,0,,5,,,65,127
28140,note_off,0,0,0,,5,,,53,127
28140,note_on,0,0,0,,12,,,71,127
28140,note_on,0,0,0,,12,,,59,127
28140,note_on,0,0,0,,2,,,50,127
28274,note_off,134,0,0,,12,,,71,127
28274,note_on,0,0,0,,5,,,65,127
28408,note_off,134,0,0,,5,,,65,127
28408,note_off,0,0,0,,2,,,50,127
28408,note_off,0,0,0,,12,,,59,127
28408,note_on,0,0,0,,0,,,72,127
28408,note_on,0,0,0,,3,,,51,127
28408,note_on,0,0,0,,0,,,60,127
28542,note_off,134,0,0,,0,,,72,127
28542,note_on,0,0,0,,8,,,68,127
28676,note_off,134,0,0,,8,,,68,127
28676,note_off,0,0,0,,0,,,60,127
28676,note_on,0,0,0,,5,,,77,127
28676,note_on,0,0,0,,8,,,56,127
28676,note_on,0,0,0,,0,,,60,127
28810,note_off,134,0,0,,5,,,77,127
28810,note_on,0,0,0,,0,,,72,127
28944,note_off,134,0,0,,0,,,72,127
28944,note_off,0,0,0,,0,,,60,127
28944,note_off,0,0,0,,8,,,56,127
28944,note_off,0,0,0,,3,,,51,127
28944,note_on,0,0,0,,7,,,55,127
28944,note_on,0,0,0,,7,,,79,127
28944,note_on,0,0,0,,7,,,43,127
29078,note_off,134,0,0,,7,,,79,127
29078,note_on,0,0,0,,2,,,74,127
29211,note_off,133,0,0,,7,,,55,127
29212,note_off,1,0,0,,2,,,74,127
29212,note_on,0,0,0,,12,,,71,127
29346,note_off,134,0,0,,12,,,71,127
29346,note_on,0,0,0,,7,,,67,127
29480,note_on,134,0,0,,2,,,62,127
29547,note_off,67,0,0,,7,,,67,127
29614,note_off,67,0,0,,2,,,62,127
29614,note_on,0,0,0,,12,,,59,127
29748,note_off,134,0,0,,12,,,59,127
29748,note_on,0,0,0,,7,,,55,127
29882,note_on,134,0,0,,2,,,50,127
29949,note_off,67,0,0,,7,,,55,127
30015,note_off,66,0,0,,7,,,43,127
30016,note_off,1,0,0,,2,,,50,127
30016,note_on,0,0,0,,12,,,47,127
30150,note_off,134,0,0,,12,,,47,127
30150,note_on,0,0,0,,7,,,43,127
30284,note_off,134,0,0,,7,,,43,127
30284,note_on,0,0,0,,2,,,38,127
30418,note_on,134,0,0,,12,,,35,127
30552,note_off,134,0,0,,12,,,35,127
30552,note_on,0,0,0,,7,,,31,127
31819,note_off,1267,0,0,,2,,,38,127
31892,note_off,73,0,0,,7,,,31,127
32160,note_on,268,0,0,,12,,,71,127
32160,note_on,0,0,0,,7,,,67,127
32294,note_on,134,0,0,,2,,,74,127
32428,note_off,134,0,0,,2,,,74,127
32428,note_off,0,0,0,,7,,,67,127
32428,note_off,0,0,0,,12,,,71,127
32428,note_on,0,0,0,,4,,,76,127
32428,note_on,0,0,0,,12,,,71,127
32428,note_on,0,0,0,,7,,,67,127
32495,note_off,67,0,0,,4,,,76,127
32495,note_on,0,0,0,,6,,,78,127
32562,note_off,67,0,0,,6,,,78,127
32562,note_on,0,0,0,,7,,,79,127
32629,note_off,67,0,0,,7,,,79,127
32629,note_on,0,0,0,,10,,,81,127
32696,note_off,67,0,0,,10,,,81,127
32696,note_off,0,0,0,,7,,,67,127
32696,note_off,0,0,0,,12,,,71,127
32696,note_on,0,0,0,,12,,,83,127
32696,note_on,0,0,0,,12,,,71,127
32696,note_on,0,0,0,,7,,,67,127
32964,note_off,268,0,0,,7,,,67,127
32964,note_off,0,0,0,,12,,,71,127
32964,note_on,0,0,0,,12,,,71,127
32964,note_on,0,0,0,,7,,,67,127
33232,note_off,268,0,0,,7,,,67,127
33232,note_off,0,0,0,,12,,,71,127
33232,note_on,0,0,0,,2,,,62,127
33232,note_on,0,0,0,,10,,,69,127
33366,note_off,134,0,0,,12,,,83,127
33366,note_on,0,0,0,,0,,,84,127
33500,note_off,134,0,0,,0,,,84,127
33500,note_off,0,0,0,,10,,,69,127
33500,note_off,0,0,0,,2,,,62,127
33500,note_on,0,0,0,,10,,,81,127
33500,note_on,0,0,0,,2,,,62,127
33500,note_on,0,0,0,,10,,,69,127
33634,note_off,134,0,0,,10,,,81,127
33634,note_on,0,0,0,,6,,,78,127
33768,note_off,134,0,0,,6,,,78,127
33768,note_off,0,0,0,,10,,,69,127
33768,note_off,0,0,0,,2,,,62,127
33768,note_on,0,0,0,,7,,,79,127
33768,note_on,0,0,0,,12,,,71,127
33768,note_on,0,0,0,,7,,,67,127
33902,note_off,134,0,0,,7,,,79,127
33902,note_on,0,0,0,,2,,,74,127
34036,note_off,134,0,0,,2,,,74,127
34036,note_off,0,0,0,,7,,,67,127
34036,note_off,0,0,0,,12,,,71,127
34036,note_on,0,0,0,,4,,,76,127
34036,note_on,0,0,0,,12,,,71,127
34036,note_on,0,0,0,,7,,,67,127
34103,note_off,67,0,0,,4,,,76,127
34103,note_on,0,0,0,,6,,,78,127
34170,note_off,67,0,0,,6,,,78,127
34170,note_on,0,0,0,,7,,,79,127
34237,note_off,67,0,0,,7,,,79,127
34237,note_on,0,0,0,,10,,,81,127
34304,note_off,67,0,0,,10,,,81,127
34304,note_off,0,0,0,,7,,,67,127
34304,note_off,0,0,0,,12,,,71,127
34304,note_on,0,0,0,,12,,,83,127
34304,note_on,0,0,0,,7,,,67,127
34304,note_on,0,0,0,,12,,,71,127
34572,note_off,268,0,0,,12,,,71,127
34572,note_off,0,0,0,,7,,,67,127
34572,note_on,0,0,0,,7,,,67,127
34572,note_on,0,0,0,,12,,,71,127
34840,note_off,268,0,0,,12,,,71,127
34840,note_off,0,0,0,,7,,,67,127
34840,note_on,0,0,0,,2,,,62,127
34840,note_on,0,0,0,,10,,,69,127
34918,note_off,78,0,0,,12,,,83,127
34974,note_on,56,0,0,,0,,,84,127
35041,note_off,67,0,0,,0,,,84,127
35041,note_on,0,0,0,,12,,,83,127
35108,note_off,67,0,0,,12,,,83,127
35108,note_off,0,0,0,,10,,,69,127
35108,note_off,0,0,0,,2,,,62,127
35108,note_on,0,0,0,,10,,,81,127
35108,note_on,0,0,0,,2,,,62,127
35108,note_on,0,0,0,,10,,,69,127
35242,note_off,134,0,0,,10,,,81,127
35242,note_on,0,0,0,,7,,,79,127
35309,note_off,67,0,0,,7,,,79,127
35309,note_on,0,0,0,,6,,,78,127
35376,note_off,67,0,0,,6,,,78,127
35376,note_off,0,0,0,,10,,,69,127
35376,note_off,0,0,0,,2,,,62,127
35376,note_on,0,0,0,,10,,,81,127
35376,note_on,0,0,0,,7,,,79,127
35376,note_on,0,0,0,,4,,,64,127
35376,note_on,0,0,0,,7,,,67,127
35510,note_off,134,0,0,,7,,,79,127
35510,note_off,0,0,0,,10,,,81,127
35510,note_on,0,0,0,,6,,,78,127
35644,note_off,134,0,0,,6,,,78,127
35644,note_off,0,0,0,,7,,,67,127
35644,note_off,0,0,0,,4,,,64,127
35644,note_on,0,0,0,,6,,,78,127
35644,note_on,0,0,0,,2,,,62,127
35644,note_on,0,0,0,,6,,,66,127
35778,note_off,134,0,0,,6,,,78,127
35778,note_on,0,0,0,,4,,,76,127
35912,note_off,134,0,0,,4,,,76,127
35912,note_off,0,0,0,,6,,,66,127
35912,note_off,0,0,0,,2,,,62,127
35912,note_on,0,0,0,,4,,,76,127
35912,note_on,0,0,0,,4,,,64,127
35912,note_on,0,0,0,,0,,,60,127
36046,note_off,134,0,0,,4,,,76,127
36046,note_on,0,0,0,,2,,,74,127
36180,note_off,134,0,0,,2,,,74,127
36180,note_off,0,0,0,,0,,,60,127
36180,note_off,0,0,0,,4,,,64,127
36180,note_on,0,0,0,,2,,,74,127
36180,note_on,0,0,0,,12,,,59,127
36180,note_on,0,0,0,,2,,,62,127
36314,note_off,134,0,0,,2,,,74,127
36314,note_on,0,0,0,,0,,,72,127
36448,note_off,134,0,0,,0,,,72,127
36448,note_off,0,0,0,,2,,,62,127
36448,note_off,0,0,0,,12,,,59,127
36448,note_on,0,0,0,,0,,,72,127
36448,note_on,0,0,0,,10,,,57,127
36448,note_on,0,0,0,,0,,,60,127
36582,note_off,134,0,0,,0,,,72,127
36582,note_on,0,0,0,,12,,,71,127
36716,note_off,134,0,0,,12,,,71,127
36716,note_off,0,0,0,,0,,,60,127
36716,note_off,0,0,0,,10,,,57,127
36716,note_on,0,0,0,,12,,,71,127
36716,note_on,0,0,0,,7,,,55,127
36716,note_on,0,0,0,,12,,,59,127
36850,note_off,134,0,0,,12,,,71,127
36850,note_on,0,0,0,,0,,,72,127
36984,note_off,134,0,0,,0,,,72,127
36984,note_off,0,0,0,,12,,,59,127
36984,note_off,0,0,0,,7,,,55,127
36984,note_on,0,0,0,,0,,,72,127
36984,note_on,0,0,0,,0,,,60,127
36984,note_on,0,0,0,,10,,,57,127
37118,note_on,134,0,0,,0,,,84,127
37249,note_off,131,0,0,,0,,,72,127
37252,note_off,3,0,0,,0,,,84,127
37252,note_on,0,0,0,,10,,,81,127
37386,note_off,134,0,0,,10,,,81,127
37386,note_on,0,0,0,,8,,,80,127
37520,note_off,134,0,0,,8,,,80,127
37520,note_off,0,0,0,,10,,,57,127
37520,note_off,0,0,0,,0,,,60,127
37520,note_on,0,0,0,,8,,,80,127
37520,note_on,0,0,0,,2,,,62,127
37520,note_on,0,0,0,,12,,,59,127
37654,note_off,134,0,0,,8,,,80,127
37654,note_on,0,0,0,,10,,,81,127
37788,note_off,134,0,0,,10,,,81,127
37788,note_on,0,0,0,,4,,,76,127
37922,note_off,134,0,0,,4,,,76,127
37922,note_on,0,0,0,,3,,,75,127
38056,note_off,134,0,0,,3,,,75,127
38056,note_off,0,0,0,,12,,,59,127
38056,note_off,0,0,0,,2,,,62,127
38056,note_on,0,0,0,,3,,,75,127
38056,note_on,0,0,0,,4,,,64,127
38056,note_on,0,0,0,,0,,,60,127
38190,note_off,134,0,0,,3,,,75,127
38190,note_on,0,0,0,,4,,,76,127
38324,note_off,134,0,0,,4,,,76,127
38324,note_on,0,0,0,,0,,,72,127
38458,note_off,134,0,0,,0,,,72,127
38458,note_on,0,0,0,,12,,,71,127
38592,note_off,134,0,0,,12,,,71,127
38592,note_off,0,0,0,,0,,,60,127
38592,note_off,0,0,0,,4,,,64,127
38592,note_on,0,0,0,,12,,,71,127
38592,note_on,0,0,0,,0,,,48,127
38592,note_on,0,0,0,,10,,,57,127
38726,note_off,134,0,0,,12,,,71,127
38726,note_on,0,0,0,,0,,,72,127
38860,note_off,134,0,0,,0,,,72,127
38860,note_on,0,0,0,,10,,,69,127
38994,note_off,134,0,0,,10,,,69,127
38994,note_on,0,0,0,,8,,,68,127
39128,note_off,134,0,0,,8,,,68,127
39128,note_off,0,0,0,,10,,,57,127
39128,note_on,0,0,0,,8,,,68,127
39128,note_on,0,0,0,,12,,,59,127
39262,note_off,134,0,0,,8,,,68,127
39262,note_on,0,0,0,,10,,,69,127
39396,note_off,134,0,0,,10,,,69,127
39396,note_on,0,0,0,,4,,,64,127
39530,note_off,134,0,0,,4,,,64,127
39530,note_on,0,0,0,,3,,,63,127
39664,note_off,134,0,0,,3,,,63,127
39664,note_off,0,0,0,,12,,,59,127
39664,note_on,0,0,0,,3,,,63,127
39664,note_on,0,0,0,,0,,,60,127
39798,note_off,134,0,0,,3,,,63,127
39798,note_on,0,0,0,,4,,,64,127
39932,note_off,134,0,0,,4,,,64,127
39932,note_on,0,0,0,,0,,,72,127
40066,note_off,134,0,0,,0,,,72,127
40066,note_on,0,0,0,,4,,,76,127
40200,note_off,134,0,0,,4,,,76,127
40200,note_off,0,0,0,,0,,,48,127
40200,note_on,0,0,0,,7,,,67,127
40200,note_on,0,0,0,,2,,,50,127
40468,note_off,268,0,0,,7,,,67,127
40468,note_off,0,0,0,,0,,,60,127
40468,note_on,0,0,0,,6,,,66,127
40468,note_on,0,0,0,,0,,,60,127
40736,note_off,268,0,0,,2,,,50,127
40870,note_off,134,0,0,,0,,,60,127
40870,note_on,0,0,0,,0,,,60,127
41004,note_off,134,0,0,,0,,,60,127
41004,note_off,0,0,0,,6,,,66,127
41004,note_on,0,0,0,,4,,,76,127
41004,note_on,0,0,0,,12,,,59,127
41138,note_off,134,0,0,,12,,,59,127
41138,note_on,0,0,0,,10,,,57,127
41272,note_off,134,0,0,,10,,,57,127
41272,note_off,0,0,0,,4,,,76,127
41272,note_on,0,0,0,,2,,,74,127
41272,note_on,0,0,0,,12,,,59,127
41406,note_off,134,0,0,,2,,,74,127
41406,note_on,0,0,0,,12,,,71,127
41540,note_off,134,0,0,,12,,,71,127
41540,note_on,0,0,0,,10,,,69,127
41674,note_off,134,0,0,,10,,,69,127
41674,note_on,0,0,0,,7,,,67,127
41808,note_off,134,0,0,,7,,,67,127
41808,note_off,0,0,0,,12,,,59,127
41808,note_on,0,0,0,,10,,,69,127
41808,note_on,0,0,0,,0,,,60,127
41808,note_on,0,0,0,,0,,,48,127
41942,note_off,134,0,0,,10,,,69,127
41942,note_on,0,0,0,,0,,,72,127
42076,note_off,134,0,0,,0,,,72,127
42076,note_on,0,0,0,,12,,,71,127
42210,note_off,134,0,0,,12,,,71,127
42210,note_on,0,0,0,,10,,,69,127
42344,note_off,134,0,0,,10,,,69,127
42344,note_off,0,0,0,,0,,,48,127
42344,note_off,0,0,0,,0,,,60,127
42344,note_on,0,0,0,,12,,,71,127
42344,note_on,0,0,0,,12,,,59,127
42344,note_on,0,0,0,,2,,,50,127
42478,note_off,134,0,0,,12,,,71,127
42478,note_on,0,0,0,,2,,,74,127
42612,note_off,134,0,0,,2,,,74,127
42612,note_on,0,0,0,,0,,,72,127
42746,note_off,134,0,0,,0,,,72,127
42746,note_on,0,0,0,,12,,,71,127
42880,note_off,134,0,0,,12,,,71,127
42880,note_off,0,0,0,,2,,,50,127
42880,note_off,0,0,0,,12,,,59,127
42880,note_on,0,0,0,,12,,,71,127
42880,note_on,0,0,0,,10,,,57,127
42880,note_on,0,0,0,,2,,,50,127
43014,note_off,134,0,0,,12,,,71,127
43014,note_on,0,0,0,,10,,,69,127
43148,note_off,134,0,0,,10,,,69,127
43148,note_on,0,0,0,,7,,,67,127
43282,note_off,134,0,0,,7,,,67,127
43282,note_on,0,0,0,,6,,,66,127
43382,note_off,100,0,0,,6,,,66,127
43415,note_off,33,0,0,,2,,,50,127
43415,note_off,0,0,0,,10,,,57,127
43415,note_on,0,0,0,,0,,,72,127
43415,note_on,0,0,0,,0,,,60,127
43415,note_on,0,0,0,,10,,,57,127
43549,note_on,134,0,0,,0,,,84,127
43680,note_off,131,0,0,,0,,,72,127
43683,note_off,3,0,0,,0,,,84,127
43683,note_on,0,0,0,,10,,,81,127
43817,note_off,134,0,0,,10,,,81,127
43817,note_on,0,0,0,,8,,,80,127
43951,note_off,134,0,0,,8,,,80,127
43951,note_off,0,0,0,,10,,,57,127
43951,note_off,0,0,0,,0,,,60,127
43951,note_on,0,0,0,,8,,,80,127
43951,note_on,0,0,0,,12,,,59,127
43951,note_on,0,0,0,,2,,,62,127
44085,note_off,134,0,0,,8,,,80,127
44085,note_on,0,0,0,,10,,,81,127
44219,note_off,134,0,0,,10,,,81,127
44219,note_on,0,0,0,,4,,,76,127
44353,note_off,134,0,0,,4,,,76,127
44353,note_on,0,0,0,,3,,,75,127
44487,note_off,134,0,0,,3,,,75,127
44487,note_off,0,0,0,,2,,,62,127
44487,note_off,0,0,0,,12,,,59,127
44487,note_on,0,0,0,,3,,,75,127
44487,note_on,0,0,0,,4,,,64,127
44487,note_on,0,0,0,,0,,,60,127
44621,note_off,134,0,0,,3,,,75,127
44621,note_on,0,0,0,,4,,,76,127
44755,note_off,134,0,0,,4,,,76,127
44755,note_on,0,0,0,,0,,,72,127
44889,note_off,134,0,0,,0,,,72,127
44889,note_on,0,0,0,,12,,,71,127
45023,note_off,134,0,0,,12,,,71,127
45023,note_off,0,0,0,,0,,,60,127
45023,note_off,0,0,0,,4,,,64,127
45023,note_on,0,0,0,,12,,,71,127
45023,note_on,0,0,0,,0,,,48,127
45023,note_on,0,0,0,,10,,,57,127
45157,note_off,134,0,0,,12,,,71,127
45157,note_on,0,0,0,,0,,,72,127
45291,note_off,134,0,0,,0,,,72,127
45291,note_on,0,0,0,,10,,,69,127
45425,note_off,134,0,0,,10,,,69,127
45425,note_on,0,0,0,,8,,,68,127
45559,note_off,134,0,0,,8,,,68,127
45559,note_off,0,0,0,,10,,,57,127
45559,note_on,0,0,0,,8,,,68,127
45559,note_on,0,0,0,,12,,,59,127
45693,note_off,134,0,0,,8,,,68,127
45693,note_on,0,0,0,,10,,,69,127
45827,note_off,134,0,0,,10,,,69,127
45827,note_on,0,0,0,,4,,,64,127
45961,note_off,134,0,0,,4,,,64,127
45961,note_on,0,0,0,,3,,,63,127
46095,note_off,134,0,0,,3,,,63,127
46095,note_off,0,0,0,,12,,,59,127
46095,note_on,0,0,0,,3,,,63,127
46095,note_on,0,0,0,,0,,,60,127
46229,note_off,134,0,0,,3,,,63,127
46229,note_on,0,0,0,,4,,,64,127
46363,note_off,134,0,0,,4,,,64,127
46363,note_on,0,0,0,,0,,,72,127
46497,note_off,134,0,0,,0,,,72,127
46497,note_on,0,0,0,,4,,,76,127
46631,note_off,134,0,0,,4,,,76,127
46631,note_off,0,0,0,,0,,,60,127
46631,note_off,0,0,0,,0,,,48,127
46631,note_on,0,0,0,,7,,,67,127
46631,note_on,0,0,0,,2,,,50,127
46899,note_off,268,0,0,,7,,,67,127
46899,note_on,0,0,0,,6,,,66,127
46899,note_on,0,0,0,,0,,,60,127
47161,note_off,262,0,0,,2,,,50,127
47301,note_off,140,0,0,,0,,,60,127
47301,note_on,0,0,0,,0,,,60,127
47435,note_off,134,0,0,,0,,,60,127
47435,note_off,0,0,0,,6,,,66,127
47435,note_on,0,0,0,,4,,,76,127
47435,note_on,0,0,0,,12,,,59,127
47569,note_off,134,0,0,,12,,,59,127
47569,note_on,0,0,0,,10,,,57,127
47703,note_off,134,0,0,,10,,,57,127
47703,note_off,0,0,0,,4,,,76,127
47703,note_on,0,0,0,,2,,,74,127
47703,note_on,0,0,0,,12,,,59,127
47837,note_off,134,0,0,,2,,,74,127
47837,note_on,0,0,0,,12,,,71,127
47971,note_off,134,0,0,,12,,,71,127
47971,note_on,0,0,0,,10,,,69,127
48105,note_off,134,0,0,,10,,,69,127
48105,note_on,0,0,0,,7,,,67,127
48239,note_off,134,0,0,,7,,,67,127
48239,note_off,0,0,0,,12,,,59,127
48239,note_on,0,0,0,,10,,,69,127
48239,note_on,0,0,0,,0,,,60,127
48239,note_on,0,0,0,,0,,,48,127
48373,note_off,134,0,0,,10,,,69,127
48373,note_on,0,0,0,,0,,,72,127
48507,note_off,134,0,0,,0,,,72,127
48507,note_on,0,0,0,,12,,,71,127
48641,note_off,134,0,0,,12,,,71,127
48641,note_on,0,0,0,,10,,,69,127
48775,note_off,134,0,0,,10,,,69,127
48775,note_off,0,0,0,,0,,,48,127
48775,note_off,0,0,0,,0,,,60,127
48775,note_on,0,0,0,,12,,,71,127
48775,note_on,0,0,0,,2,,,50,127
48775,note_on,0,0,0,,12,,,59,127
48909,note_off,134,0,0,,12,,,71,127
48909,note_on,0,0,0,,0,,,72,127
49043,note_off,134,0,0,,0,,,72,127
49043,note_on,0,0,0,,2,,,74,127
49177,note_off,134,0,0,,2,,,74,127
49177,note_on,0,0,0,,0,,,72,127
49311,note_off,134,0,0,,0,,,72,127
49311,note_off,0,0,0,,12,,,59,127
49311,note_off,0,0,0,,2,,,50,127
49311,note_on,0,0,0,,12,,,71,127
49311,note_on,0,0,0,,10,,,57,127
49311,note_on,0,0,0,,2,,,50,127
49445,note_off,134,0,0,,12,,,71,127
49445,note_on,0,0,0,,10,,,69,127
49579,note_off,134,0,0,,10,,,69,127
49579,note_on,0,0,0,,7,,,67,127
49713,note_off,134,0,0,,7,,,67,127
49713,note_on,0,0,0,,6,,,66,127
49822,note_off,109,0,0,,6,,,66,127
49847,note_off,25,0,0,,2,,,50,127
49847,note_off,0,0,0,,10,,,57,127
49847,note_on,0,0,0,,7,,,43,127
50115,note_on,268,0,0,,2,,,74,127
50249,note_off,134,0,0,,2,,,74,127
50249,note_on,0,0,0,,0,,,72,127
50383,note_off,134,0,0,,0,,,72,127
50383,note_on,0,0,0,,3,,,63,127
50517,note_off,134,0,0,,7,,,43,127
50651,note_on,134,0,0,,7,,,55,127
50651,note_on,0,0,0,,0,,,60,127
50919,note_off,268,0,0,,0,,,60,127
50919,note_off,0,0,0,,7,,,55,127
50919,note_on,0,0,0,,7,,,55,127
50919,note_on,0,0,0,,0,,,60,127
50919,note_on,0,0,0,,10,,,57,127
50919,note_on,0,0,0,,6,,,54,127
51184,note_off,265,0,0,,7,,,55,127
51187,note_off,3,0,0,,3,,,63,127
51187,note_on,0,0,0,,2,,,62,127
51454,note_off,267,0,0,,2,,,62,127
51455,note_off,1,0,0,,6,,,54,127
51455,note_off,0,0,0,,10,,,57,127
51455,note_off,0,0,0,,0,,,60,127
51455,note_on,0,0,0,,11,,,58,127
51455,note_on,0,0,0,,2,,,62,127
51455,note_on,0,0,0,,10,,,57,127
51455,note_on,0,0,0,,7,,,55,127
51720,note_off,265,0,0,,10,,,57,127
51723,note_on,3,0,0,,2,,,74,127
51857,note_off,134,0,0,,2,,,74,127
51857,note_on,0,0,0,,0,,,72,127
51991,note_off,134,0,0,,0,,,72,127
51991,note_on,0,0,0,,3,,,63,127
52153,note_off,162,0,0,,7,,,55,127
52153,note_off,0,0,0,,11,,,58,127
52259,note_off,106,0,0,,2,,,62,127
52259,note_on,0,0,0,,0,,,60,127
52259,note_on,0,0,0,,7,,,55,127
52527,note_off,268,0,0,,7,,,55,127
52527,note_off,0,0,0,,0,,,60,127
52527,note_on,0,0,0,,7,,,55,127
52527,note_on,0,0,0,,6,,,54,127
52527,note_on,0,0,0,,10,,,57,127
52527,note_on,0,0,0,,0,,,60,127
52792,note_off,265,0,0,,7,,,55,127
52795,note_off,3,0,0,,3,,,63,127
52795,note_on,0,0,0,,2,,,62,127
53063,note_off,268,0,0,,0,,,60,127
53063,note_off,0,0,0,,10,,,57,127
53063,note_off,0,0,0,,6,,,54,127
53063,note_on,0,0,0,,0,,,60,127
53063,note_on,0,0,0,,7,,,55,127
53063,note_on,0,0,0,,3,,,51,127
53063,note_on,0,0,0,,0,,,48,127
53331,note_off,268,0,0,,2,,,62,127
53331,note_on,0,0,0,,5,,,77,127
53465,note_off,134,0,0,,5,,,77,127
53465,note_on,0,0,0,,3,,,75,127
53599,note_off,134,0,0,,3,,,75,127
53599,note_on,0,0,0,,7,,,67,127
53789,note_off,190,0,0,,0,,,48,127
53789,note_off,0,0,0,,3,,,51,127
53789,note_off,0,0,0,,7,,,55,127
53867,note_off,78,0,0,,0,,,60,127
53867,note_on,0,0,0,,7,,,55,127
53867,note_on,0,0,0,,0,,,60,127
53867,note_on,0,0,0,,0,,,48,127
53867,note_on,0,0,0,,3,,,51,127
54135,note_off,268,0,0,,3,,,51,127
54135,note_off,0,0,0,,0,,,48,127
54135,note_off,0,0,0,,0,,,60,127
54135,note_off,0,0,0,,7,,,55,127
54135,note_on,0,0,0,,10,,,57,127
54135,note_on,0,0,0,,0,,,60,127
54135,note_on,0,0,0,,2,,,50,127
54135,note_on,0,0,0,,7,,,55,127
54400,note_off,265,0,0,,7,,,55,127
54403,note_off,3,0,0,,7,,,67,127
54403,note_on,0,0,0,,6,,,66,127
54671,note_off,268,0,0,,2,,,50,127
54671,note_off,0,0,0,,0,,,60,127
54671,note_off,0,0,0,,10,,,57,127
54671,note_on,0,0,0,,7,,,55,127
54671,note_on,0,0,0,,0,,,60,127
54671,note_on,0,0,0,,3,,,51,127
54671,note_on,0,0,0,,0,,,48,127
54939,note_off,268,0,0,,6,,,66,127
54939,note_on,0,0,0,,5,,,77,127
55073,note_off,134,0,0,,5,,,77,127
55073,note_on,0,0,0,,3,,,75,127
55207,note_off,134,0,0,,3,,,75,127
55207,note_on,0,0,0,,7,,,67,127
55425,note_off,218,0,0,,0,,,48,127
55425,note_off,0,0,0,,3,,,51,127
55425,note_off,0,0,0,,7,,,55,127
55475,note_off,50,0,0,,0,,,60,127
55475,note_on,0,0,0,,0,,,60,127
55475,note_on,0,0,0,,3,,,51,127
55475,note_on,0,0,0,,7,,,55,127
55475,note_on,0,0,0,,0,,,48,127
55743,note_off,268,0,0,,0,,,48,127
55743,note_off,0,0,0,,7,,,55,127
55743,note_off,0,0,0,,3,,,51,127
55743,note_off,0,0,0,,0,,,60,127
55743,note_on,0,0,0,,10,,,57,127
55743,note_on,0,0,0,,2,,,50,127
55743,note_on,0,0,0,,7,,,55,127
55743,note_on,0,0,0,,0,,,60,127
56008,note_off,265,0,0,,7,,,55,127
56011,note_off,3,0,0,,7,,,67,127
56011,note_on,0,0,0,,6,,,66,127
56279,note_off,268,0,0,,0,,,60,127
56279,note_off,0,0,0,,2,,,50,127
56279,note_off,0,0,0,,10,,,57,127
56279,note_on,0,0,0,,0,,,60,127
56279,note_on,0,0,0,,3,,,51,127
56279,note_on,0,0,0,,7,,,55,127
56547,note_off,268,0,0,,6,,,66,127
56547,note_on,0,0,0,,0,,,72,127
56547,note_on,0,0,0,,0,,,84,127
56681,note_off,134,0,0,,0,,,84,127
56681,note_on,0,0,0,,10,,,81,127
56815,note_off,134,0,0,,10,,,81,127
56815,note_off,0,0,0,,0,,,72,127
56815,note_on,0,0,0,,7,,,79,127
57061,note_off,246,0,0,,7,,,55,127
57061,note_off,0,0,0,,3,,,51,127
57083,note_off,22,0,0,,0,,,60,127
57083,note_on,0,0,0,,0,,,60,127
57083,note_on,0,0,0,,3,,,51,127
57083,note_on,0,0,0,,7,,,55,127
57351,note_off,268,0,0,,7,,,55,127
57351,note_off,0,0,0,,3,,,51,127
57351,note_off,0,0,0,,0,,,60,127
57351,note_on,0,0,0,,10,,,57,127
57351,note_on,0,0,0,,0,,,60,127
57351,note_on,0,0,0,,2,,,50,127
57351,note_on,0,0,0,,7,,,55,127
57616,note_off,265,0,0,,7,,,55,127
57619,note_off,3,0,0,,7,,,79,127
57619,note_on,0,0,0,,6,,,78,127
57887,note_off,268,0,0,,2,,,50,127
57887,note_off,0,0,0,,0,,,60,127
57887,note_off,0,0,0,,10,,,57,127
57887,note_on,0,0,0,,0,,,60,127
57887,note_on,0,0,0,,3,,,51,127
57887,note_on,0,0,0,,7,,,55,127
58155,note_off,268,0,0,,6,,,78,127
58155,note_on,0,0,0,,0,,,84,127
58289,note_off,134,0,0,,0,,,84,127
58289,note_on,0,0,0,,10,,,81,127
58423,note_off,134,0,0,,10,,,81,127
58423,note_on,0,0,0,,7,,,79,127
58691,note_off,268,0,0,,7,,,55,127
58691,note_off,0,0,0,,3,,,51,127
58691,note_off,0,0,0,,0,,,60,127
58691,note_on,0,0,0,,0,,,60,127
58691,note_on,0,0,0,,3,,,51,127
58691,note_on,0,0,0,,7,,,55,127
58959,note_off,268,0,0,,7,,,55,127
58959,note_off,0,0,0,,3,,,51,127
58959,note_off,0,0,0,,0,,,60,127
58959,note_on,0,0,0,,10,,,57,127
58959,note_on,0,0,0,,0,,,60,127
58959,note_on,0,0,0,,7,,,55,127
58959,note_on,0,0,0,,2,,,50,127
59093,note_off,134,0,0,,7,,,79,127
59093,note_on,0,0,0,,6,,,78,127
59224,note_off,131,0,0,,7,,,55,127
59227,note_off,3,0,0,,6,,,78,127
59227,note_on,0,0,0,,10,,,81,127
59361,note_off,134,0,0,,10,,,81,127
59361,note_on,0,0,0,,0,,,84,127
59495,note_off,134,0,0,,0,,,84,127
59495,note_off,0,0,0,,2,,,50,127
59495,note_off,0,0,0,,0,,,60,127
59495,note_off,0,0,0,,10,,,57,127
59495,note_on,0,0,0,,11,,,82,127
59495,note_on,0,0,0,,7,,,55,127
59495,note_on,0,0,0,,11,,,58,127
59495,note_on,0,0,0,,2,,,62,127
59629,note_off,134,0,0,,11,,,82,127
59629,note_on,0,0,0,,7,,,79,127
59763,note_off,134,0,0,,7,,,79,127
59763,note_on,0,0,0,,2,,,74,127
59897,note_off,134,0,0,,2,,,74,127
59897,note_on,0,0,0,,5,,,77,127
60031,note_off,134,0,0,,5,,,77,127
60031,note_off,0,0,0,,2,,,62,127
60031,note_off,0,0,0,,11,,,58,127
60031,note_off,0,0,0,,7,,,55,127
60031,note_on,0,0,0,,3,,,75,127
60031,note_on,0,0,0,,0,,,60,127
60031,note_on,0,0,0,,0,,,48,127
60031,note_on,0,0,0,,7,,,55,127
60165,note_off,134,0,0,,3,,,75,127
60165,note_on,0,0,0,,7,,,79,127
60299,note_off,134,0,0,,7,,,79,127
60299,note_on,0,0,0,,10,,,69,127
60433,note_off,134,0,0,,10,,,69,127
60433,note_on,0,0,0,,0,,,72,127
60567,note_off,134,0,0,,0,,,72,127
60567,note_off,0,0,0,,7,,,55,127
60567,note_off,0,0,0,,0,,,48,127
60567,note_off,0,0,0,,0,,,60,127
60567,note_on,0,0,0,,11,,,70,127
60567,note_on,0,0,0,,2,,,50,127
60567,note_on,0,0,0,,7,,,55,127
60567,note_on,0,0,0,,11,,,58,127
60701,note_off,134,0,0,,11,,,70,127
60701,note_on,0,0,0,,2,,,74,127
60835,note_off,134,0,0,,2,,,74,127
60835,note_off,0,0,0,,11,,,58,127
60835,note_off,0,0,0,,7,,,55,127
60835,note_on,0,0,0,,6,,,66,127
60835,note_on,0,0,0,,10,,,57,127
60969,note_off,134,0,0,,6,,,66,127
60969,note_on,0,0,0,,10,,,69,127
61097,note_off,128,0,0,,2,,,50,127
61103,note_off,6,0,0,,10,,,69,127
61103,note_off,0,0,0,,10,,,57,127
61103,note_on,0,0,0,,7,,,67,127
61103,note_on,0,0,0,,7,,,43,127
61237,note_off,134,0,0,,7,,,67,127
61237,note_on,0,0,0,,11,,,70,127
61371,note_off,134,0,0,,11,,,70,127
61371,note_on,0,0,0,,2,,,62,127
61371,note_on,0,0,0,,7,,,55,127
61505,note_off,134,0,0,,2,,,62,127
61505,note_on,0,0,0,,5,,,65,127
61639,note_off,134,0,0,,5,,,65,127
61639,note_off,0,0,0,,7,,,55,127
61639,note_off,0,0,0,,7,,,43,127
61639,note_on,0,0,0,,3,,,63,127
61639,note_on,0,0,0,,0,,,48,127
61773,note_off,134,0,0,,3,,,63,127
61773,note_on,0,0,0,,7,,,67,127
61907,note_off,134,0,0,,7,,,67,127
61907,note_off,0,0,0,,0,,,48,127
61907,note_on,0,0,0,,10,,,57,127
61907,note_on,0,0,0,,0,,,36,127
62041,note_off,134,0,0,,10,,,57,127
62041,note_on,0,0,0,,0,,,60,127
62175,note_off,134,0,0,,0,,,60,127
62175,note_off,0,0,0,,0,,,36,127
62175,note_on,0,0,0,,11,,,58,127
62175,note_on,0,0,0,,2,,,38,127
62309,note_off,134,0,0,,11,,,58,127
62309,note_on,0,0,0,,2,,,62,127
62443,note_off,134,0,0,,2,,,62,127
62443,note_on,0,0,0,,6,,,54,127
62443,note_on,0,0,0,,2,,,50,127
62577,note_off,134,0,0,,6,,,54,127
62577,note_on,0,0,0,,10,,,57,127
62711,note_off,134,0,0,,10,,,57,127
62711,note_off,0,0,0,,2,,,50,127
62711,note_off,0,0,0,,2,,,38,127
62711,note_on,0,0,0,,7,,,55,127
62711,note_on,0,0,0,,7,,,31,127
62711,note_on,0,0,0,,7,,,43,127
62845,note_off,134,0,0,,7,,,55,127
62845,note_on,0,0,0,,12,,,59,127
62979,note_off,134,0,0,,12,,,59,127
62979,note_on,0,0,0,,2,,,62,127
63113,note_off,134,0,0,,2,,,62,127
63113,note_on,0,0,0,,7,,,67,127
63247,note_off,134,0,0,,7,,,67,127
63247,note_off,0,0,0,,7,,,43,127
63247,note_off,0,0,0,,7,,,31,127
63247,note_on,0,0,0,,7,,,67,127
63247,note_on,0,0,0,,12,,,71,127
63381,note_on,134,0,0,,12,,,83,127
63515,note_off,134,0,0,,12,,,83,127
63515,note_on,0,0,0,,7,,,79,127
63649,note_off,134,0,0,,7,,,79,127
63649,note_on,0,0,0,,2,,,74,127
63783,note_off,134,0,0,,2,,,74,127
63783,note_on,0,0,0,,2,,,38,127
63917,note_off,134,0,0,,12,,,71,127
63917,note_off,0,0,0,,7,,,67,127
63917,note_on,0,0,0,,0,,,72,127
64051,note_off,134,0,0,,0,,,72,127
64051,note_on,0,0,0,,10,,,69,127
64185,note_off,134,0,0,,10,,,69,127
64185,note_on,0,0,0,,6,,,66,127
64319,note_off,134,0,0,,6,,,66,127
64319,note_off,0,0,0,,2,,,38,127
64319,note_on,0,0,0,,7,,,55,127
64319,note_on,0,0,0,,7,,,43,127
64319,note_on,0,0,0,,7,,,31,127
64453,note_off,134,0,0,,7,,,55,127
64453,note_on,0,0,0,,12,,,59,127
64587,note_off,134,0,0,,12,,,59,127
64587,note_on,0,0,0,,2,,,62,127
64721,note_off,134,0,0,,2,,,62,127
64721,note_on,0,0,0,,7,,,67,127
64855,note_off,134,0,0,,7,,,67,127
64855,note_off,0,0,0,,7,,,31,127
64855,note_off,0,0,0,,7,,,43,127
64855,note_on,0,0,0,,12,,,71,127
64855,note_on,0,0,0,,7,,,67,127
64989,note_on,134,0,0,,12,,,83,127
65123,note_off,134,0,0,,12,,,83,127
65123,note_on,0,0,0,,7,,,79,127
65257,note_off,134,0,0,,7,,,79,127
65257,note_on,0,0,0,,2,,,74,127
65391,note_off,134,0,0,,2,,,74,127
65391,note_on,0,0,0,,2,,,38,127
65525,note_off,134,0,0,,7,,,67,127
65525,note_off,0,0,0,,12,,,71,127
65525,note_on,0,0,0,,0,,,72,127
65659,note_off,134,0,0,,0,,,72,127
65659,note_on,0,0,0,,10,,,69,127
65793,note_off,134,0,0,,10,,,69,127
65793,note_on,0,0,0,,6,,,66,127
65927,note_off,134,0,0,,6,,,66,127
65927,note_off,0,0,0,,2,,,38,127
65927,note_on,0,0,0,,2,,,62,127
65927,note_on,0,0,0,,7,,,43,127
65927,note_on,0,0,0,,7,,,31,127
66061,note_off,134,0,0,,2,,,62,127
66061,note_on,0,0,0,,6,,,66,127
66195,note_off,134,0,0,,6,,,66,127
66195,note_on,0,0,0,,7,,,67,127
66329,note_off,134,0,0,,7,,,67,127
66329,note_on,0,0,0,,12,,,71,127
66463,note_off,134,0,0,,12,,,71,127
66463,note_off,0,0,0,,7,,,31,127
66463,note_off,0,0,0,,7,,,43,127
66463,note_on,0,0,0,,2,,,74,127
66597,note_on,134,0,0,,2,,,86,127
66731,note_off,134,0,0,,2,,,86,127
66731,note_on,0,0,0,,12,,,83,127
66865,note_off,134,0,0,,12,,,83,127
66865,note_on,0,0,0,,7,,,79,127
66999,note_off,134,0,0,,7,,,79,127
66999,note_on,0,0,0,,2,,,38,127
67133,note_off,134,0,0,,2,,,74,127
67133,note_on,0,0,0,,4,,,76,127
67267,note_off,134,0,0,,4,,,76,127
67267,note_on,0,0,0,,0,,,72,127
67401,note_off,134,0,0,,0,,,72,127
67401,note_on,0,0,0,,10,,,69,127
67535,note_off,134,0,0,,10,,,69,127
67535,note_off,0,0,0,,2,,,38,127
67535,note_on,0,0,0,,2,,,62,127
67535,note_on,0,0,0,,7,,,43,127
67535,note_on,0,0,0,,7,,,31,127
67669,note_off,134,0,0,,2,,,62,127
67669,note_on,0,0,0,,6,,,66,127
67803,note_off,134,0,0,,6,,,66,127
67803,note_on,0,0,0,,7,,,67,127
67937,note_off,134,0,0,,7,,,67,127
67937,note_on,0,0,0,,12,,,71,127
68071,note_off,134,0,0,,12,,,71,127
68071,note_off,0,0,0,,7,,,31,127
68071,note_off,0,0,0,,7,,,43,127
68071,note_on,0,0,0,,2,,,74,127
68205,note_on,134,0,0,,2,,,86,127
68339,note_off,134,0,0,,2,,,86,127
68339,note_on,0,0,0,,12,,,83,127
68473,note_off,134,0,0,,12,,,83,127
68473,note_on,0,0,0,,7,,,79,127
68607,note_off,134,0,0,,7,,,79,127
68607,note_on,0,0,0,,2,,,38,127
68741,note_off,134,0,0,,2,,,74,127
68741,note_on,0,0,0,,4,,,76,127
68875,note_off,134,0,0,,4,,,76,127
68875,note_on,0,0,0,,0,,,72,127
69009,note_off,134,0,0,,0,,,72,127
69009,note_on,0,0,0,,10,,,69,127
69143,note_off,134,0,0,,10,,,69,127
69143,note_off,0,0,0,,2,,,38,127
69143,note_on,0,0,0,,12,,,71,127
69143,note_on,0,0,0,,7,,,43,127
69277,note_off,134,0,0,,12,,,71,127
69277,note_on,0,0,0,,2,,,74,127
69411,note_off,134,0,0,,2,,,74,127
69411,note_off,0,0,0,,7,,,43,127
69411,note_on,0,0,0,,7,,,67,127
69411,note_on,0,0,0,,12,,,59,127
69545,note_off,134,0,0,,7,,,67,127
69545,note_on,0,0,0,,12,,,71,127
69679,note_off,134,0,0,,12,,,71,127
69679,note_off,0,0,0,,12,,,59,127
69679,note_on,0,0,0,,4,,,64,127
69679,note_on,0,0,0,,0,,,60,127
69813,note_off,134,0,0,,4,,,64,127
69813,note_on,0,0,0,,4,,,76,127
69947,note_off,134,0,0,,4,,,76,127
69947,note_on,0,0,0,,2,,,74,127
69947,note_on,0,0,0,,0,,,48,127
70081,note_off,134,0,0,,2,,,74,127
70081,note_off,0,0,0,,0,,,60,127
70081,note_on,0,0,0,,0,,,72,127
70215,note_off,134,0,0,,0,,,72,127
70215,note_off,0,0,0,,0,,,48,127
70215,note_on,0,0,0,,12,,,71,127
70215,note_on,0,0,0,,2,,,50,127
70349,note_off,134,0,0,,12,,,71,127
70349,note_on,0,0,0,,10,,,69,127
70483,note_off,134,0,0,,10,,,69,127
70483,note_on,0,0,0,,7,,,67,127
70483,note_on,0,0,0,,2,,,38,127
70617,note_off,134,0,0,,7,,,67,127
70617,note_off,0,0,0,,2,,,50,127
70617,note_on,0,0,0,,6,,,66,127
70751,note_off,134,0,0,,6,,,66,127
70751,note_off,0,0,0,,2,,,38,127
70751,note_on,0,0,0,,7,,,67,127
70751,note_on,0,0,0,,7,,,43,127
70885,note_off,134,0,0,,7,,,67,127
70885,note_on,0,0,0,,6,,,66,127
71019,note_off,134,0,0,,6,,,66,127
71019,note_on,0,0,0,,4,,,64,127
71153,note_off,134,0,0,,4,,,64,127
71153,note_on,0,0,0,,2,,,62,127
71287,note_off,134,0,0,,2,,,62,127
71287,note_off,0,0,0,,7,,,43,127
71287,note_on,0,0,0,,0,,,60,127
71287,note_on,0,0,0,,0,,,48,127
71287,note_on,0,0,0,,0,,,36,127
71421,note_off,134,0,0,,0,,,60,127
71421,note_on,0,0,0,,12,,,59,127
71555,note_off,134,0,0,,12,,,59,127
71555,note_on,0,0,0,,10,,,57,127
71689,note_off,134,0,0,,10,,,57,127
71689,note_on,0,0,0,,7,,,55,127
71823,note_off,134,0,0,,7,,,55,127
71823,note_off,0,0,0,,0,,,36,127
71823,note_off,0,0,0,,0,,,48,127
71823,note_on,0,0,0,,2,,,62,127
71823,note_on,0,0,0,,2,,,50,127
71823,note_on,0,0,0,,2,,,38,127
71957,note_off,134,0,0,,2,,,62,127
71957,note_on,0,0,0,,0,,,60,127
72091,note_off,134,0,0,,0,,,60,127
72091,note_on,0,0,0,,12,,,59,127
72225,note_off,134,0,0,,12,,,59,127
72225,note_on,0,0,0,,10,,,57,127
72359,note_off,134,0,0,,10,,,57,127
72359,note_off,0,0,0,,2,,,38,127
72359,note_off,0,0,0,,2,,,50,127
72359,note_on,0,0,0,,7,,,55,127
72359,note_on,0,0,0,,7,,,43,127
72359,note_on,0,0,0,,7,,,31,127
73431,note_off,1072,0,0,,7,,,31,127
73431,note_off,0,0,0,,7,,,43,127
73431,note_off,0,0,0,,7,,,55,127
73699,note_on,268,0,0,,6,,,66,127
73762,note_on,63,0,0,,7,,,67,127
73766,note_off,4,0,0,,6,,,66,127
73825,note_on,59,0,0,,8,,,68,127
73829,note_off,4,0,0,,7,,,67,127
73888,note_on,59,0,0,,7,,,67,127
73892,note_off,4,0,0,,8,,,68,127
73952,note_on,60,0,0,,8,,,68,127
73955,note_off,3,0,0,,7,,,67,127
73968,note_on,13,0,0,,7,,,55,127
74015,note_on,47,0,0,,7,,,67,127
74019,note_off,4,0,0,,8,,,68,127
74078,note_on,59,0,0,,8,,,68,127
74082,note_off,4,0,0,,7,,,67,127
74141,note_on,59,0,0,,7,,,67,127
74145,note_off,4,0,0,,8,,,68,127
74205,note_on,60,0,0,,8,,,68,127
74208,note_off,3,0,0,,7,,,67,127
74236,note_off,28,0,0,,7,,,55,127
74236,note_on,0,0,0,,7,,,55,127
74268,note_on,32,0,0,,7,,,67,127
74272,note_off,4,0,0,,8,,,68,127
74331,note_on,59,0,0,,8,,,68,127
74335,note_off,4,0,0,,7,,,67,127
74395,note_on,60,0,0,,7,,,67,127
74398,note_off,3,0,0,,8,,,68,127
74458,note_on,60,0,0,,8,,,68,127
74462,note_off,4,0,0,,7,,,67,127
74504,note_off,42,0,0,,7,,,55,127
74504,note_on,0,0,0,,7,,,55,127
74521,note_on,17,0,0,,7,,,67,127
74525,note_off,4,0,0,,8,,,68,127
74584,note_on,59,0,0,,8,,,68,127
74588,note_off,4,0,0,,7,,,67,127
74648,note_on,60,0,0,,7,,,67,127
74651,note_off,3,0,0,,8,,,68,127
74711,note_on,60,0,0,,8,,,68,127
74715,note_off,4,0,0,,7,,,67,127
74772,note_off,57,0,0,,7,,,55,127
74772,note_on,0,0,0,,7,,,55,127
74772,note_on,0,0,0,,5,,,65,127
74773,note_on,1,0,0,,7,,,67,127
74777,note_off,4,0,0,,8,,,68,127
74837,note_on,60,0,0,,8,,,68,127
74840,note_off,3,0,0,,7,,,67,127
74900,note_on,60,0,0,,7,,,67,127
74904,note_off,4,0,0,,8,,,68,127
74963,note_on,59,0,0,,8,,,68,127
74967,note_off,4,0,0,,7,,,67,127
75026,note_on,59,0,0,,7,,,67,127
75030,note_off,4,0,0,,8,,,68,127
75040,note_off,10,0,0,,5,,,65,127
75040,note_off,0,0,0,,7,,,55,127
75040,note_on,0,0,0,,5,,,65,127
75040,note_on,0,0,0,,7,,,55,127
75090,note_on,50,0,0,,8,,,68,127
75093,note_off,3,0,0,,7,,,67,127
75153,note_on,60,0,0,,7,,,67,127
75157,note_off,4,0,0,,8,,,68,127
75216,note_on,59,0,0,,8,,,68,127
75220,note_off,4,0,0,,7,,,67,127
75280,note_on,60,0,0,,7,,,67,127
75283,note_off,3,0,0,,8,,,68,127
75308,note_off,25,0,0,,7,,,55,127
75308,note_off,0,0,0,,5,,,65,127
75308,note_on,0,0,0,,7,,,55,127
75308,note_on,0,0,0,,3,,,63,127
75343,note_on,35,0,0,,8,,,68,127
75347,note_off,4,0,0,,7,,,67,127
75406,note_on,59,0,0,,7,,,67,127
75410,note_off,4,0,0,,8,,,68,127
75469,note_on,59,0,0,,8,,,68,127
75473,note_off,4,0,0,,7,,,67,127
75533,note_on,60,0,0,,7,,,67,127
75536,note_off,3,0,0,,8,,,68,127
75576,note_off,40,0,0,,3,,,63,127
75576,note_off,0,0,0,,7,,,55,127
75576,note_on,0,0,0,,3,,,63,127
75576,note_on,0,0,0,,7,,,55,127
75596,note_on,20,0,0,,8,,,68,127
75600,note_off,4,0,0,,7,,,67,127
75659,note_on,59,0,0,,7,,,67,127
75663,note_off,4,0,0,,8,,,68,127
75722,note_on,59,0,0,,8,,,68,127
75726,note_off,4,0,0,,7,,,67,127
75785,note_on,59,0,0,,7,,,67,127
75789,note_off,4,0,0,,8,,,68,127
75845,note_off,56,0,0,,7,,,67,127
75845,note_off,0,0,0,,7,,,55,127
75845,note_off,0,0,0,,3,,,63,127
75845,note_on,0,0,0,,7,,,67,127
75845,note_on,0,0,0,,2,,,62,127
75845,note_on,0,0,0,,7,,,55,127
75912,note_off,67,0,0,,7,,,67,127
75912,note_on,0,0,0,,5,,,65,127
75979,note_off,67,0,0,,5,,,65,127
75979,note_on,0,0,0,,7,,,67,127
76046,note_off,67,0,0,,7,,,67,127
76046,note_on,0,0,0,,5,,,65,127
76113,note_off,67,0,0,,5,,,65,127
76113,note_off,0,0,0,,7,,,55,127
76113,note_off,0,0,0,,2,,,62,127
76113,note_on,0,0,0,,7,,,67,127
76113,note_on,0,0,0,,7,,,55,127
76113,note_on,0,0,0,,2,,,62,127
76180,note_off,67,0,0,,7,,,67,127
76180,note_on,0,0,0,,5,,,65,127
76247,note_off,67,0,0,,5,,,65,127
76247,note_on,0,0,0,,7,,,67,127
76314,note_off,67,0,0,,7,,,67,127
76314,note_on,0,0,0,,5,,,65,127
76381,note_off,67,0,0,,5,,,65,127
76381,note_off,0,0,0,,2,,,62,127
76381,note_off,0,0,0,,7,,,55,127
76381,note_on,0,0,0,,7,,,67,127
76381,note_on,0,0,0,,5,,,65,127
76381,note_on,0,0,0,,0,,,60,127
76381,note_on,0,0,0,,7,,,55,127
76448,note_off,67,0,0,,5,,,65,127
76448,note_on,0,0,0,,3,,,63,127
76515,note_off,67,0,0,,3,,,63,127
76515,note_on,0,0,0,,5,,,65,127
76582,note_off,67,0,0,,5,,,65,127
76582,note_on,0,0,0,,3,,,63,127
76649,note_off,67,0,0,,3,,,63,127
76649,note_off,0,0,0,,7,,,55,127
76649,note_off,0,0,0,,0,,,60,127
76649,note_on,0,0,0,,5,,,65,127
76649,note_on,0,0,0,,7,,,55,127
76649,note_on,0,0,0,,0,,,60,127
76716,note_off,67,0,0,,5,,,65,127
76716,note_on,0,0,0,,3,,,63,127
76783,note_off,67,0,0,,3,,,63,127
76783,note_on,0,0,0,,5,,,65,127
76850,note_off,67,0,0,,5,,,65,127
76850,note_on,0,0,0,,3,,,63,127
76917,note_off,67,0,0,,3,,,63,127
76917,note_off,0,0,0,,0,,,60,127
76917,note_off,0,0,0,,7,,,55,127
76917,note_off,0,0,0,,7,,,67,127
76917,note_on,0,0,0,,12,,,59,127
76917,note_on,0,0,0,,2,,,62,127
76917,note_on,0,0,0,,7,,,55,127
76917,note_on,0,0,0,,6,,,66,127
76980,note_on,63,0,0,,7,,,67,127
76984,note_off,4,0,0,,6,,,66,127
77043,note_on,59,0,0,,8,,,68,127
77047,note_off,4,0,0,,7,,,67,127
77106,note_on,59,0,0,,7,,,67,127
77110,note_off,4,0,0,,8,,,68,127
77170,note_on,60,0,0,,8,,,68,127
77173,note_off,3,0,0,,7,,,67,127
77186,note_off,13,0,0,,7,,,55,127
77186,note_off,0,0,0,,2,,,62,127
77186,note_off,0,0,0,,12,,,59,127
77186,note_on,0,0,0,,12,,,59,127
77186,note_on,0,0,0,,2,,,62,127
77186,note_on,0,0,0,,7,,,55,127
77233,note_on,47,0,0,,7,,,67,127
77237,note_off,4,0,0,,8,,,68,127
77296,note_on,59,0,0,,8,,,68,127
77300,note_off,4,0,0,,7,,,67,127
77359,note_on,59,0,0,,7,,,67,127
77363,note_off,4,0,0,,8,,,68,127
77423,note_on,60,0,0,,8,,,68,127
77426,note_off,3,0,0,,7,,,67,127
77454,note_off,28,0,0,,7,,,55,127
77454,note_off,0,0,0,,2,,,62,127
77454,note_off,0,0,0,,12,,,59,127
77454,note_on,0,0,0,,3,,,63,127
77454,note_on,0,0,0,,7,,,55,127
77454,note_on,0,0,0,,0,,,60,127
77486,note_on,32,0,0,,7,,,67,127
77490,note_off,4,0,0,,8,,,68,127
77549,note_on,59,0,0,,8,,,68,127
77553,note_off,4,0,0,,7,,,67,127
77613,note_on,60,0,0,,7,,,67,127
77616,note_off,3,0,0,,8,,,68,127
77676,note_on,60,0,0,,8,,,68,127
77680,note_off,4,0,0,,7,,,67,127
77722,note_off,42,0,0,,0,,,60,127
77722,note_off,0,0,0,,7,,,55,127
77722,note_off,0,0,0,,3,,,63,127
77722,note_on,0,0,0,,3,,,63,127
77722,note_on,0,0,0,,7,,,55,127
77722,note_on,0,0,0,,0,,,60,127
77739,note_on,17,0,0,,7,,,67,127
77743,note_off,4,0,0,,8,,,68,127
77802,note_on,59,0,0,,8,,,68,127
77806,note_off,4,0,0,,7,,,67,127
77866,note_on,60,0,0,,7,,,67,127
77869,note_off,3,0,0,,8,,,68,127
77929,note_on,60,0,0,,8,,,68,127
77933,note_off,4,0,0,,7,,,67,127
77990,note_off,57,0,0,,0,,,60,127
77990,note_off,0,0,0,,7,,,55,127
77990,note_off,0,0,0,,3,,,63,127
77990,note_on,0,0,0,,5,,,65,127
77990,note_on,0,0,0,,2,,,62,127
77990,note_on,0,0,0,,7,,,55,127
77991,note_on,1,0,0,,7,,,67,127
77995,note_off,4,0,0,,8,,,68,127
78055,note_on,60,0,0,,8,,,68,127
78058,note_off,3,0,0,,7,,,67,127
78118,note_on,60,0,0,,7,,,67,127
78122,note_off,4,0,0,,8,,,68,127
78181,note_on,59,0,0,,8,,,68,127
78185,note_off,4,0,0,,7,,,67,127
78244,note_on,59,0,0,,7,,,67,127
78248,note_off,4,0,0,,8,,,68,127
78258,note_off,10,0,0,,7,,,55,127
78258,note_off,0,0,0,,2,,,62,127
78258,note_off,0,0,0,,5,,,65,127
78258,note_on,0,0,0,,2,,,62,127
78258,note_on,0,0,0,,5,,,65,127
78258,note_on,0,0,0,,7,,,55,127
78308,note_on,50,0,0,,8,,,68,127
78311,note_off,3,0,0,,7,,,67,127
78371,note_on,60,0,0,,7,,,67,127
78375,note_off,4,0,0,,8,,,68,127
78434,note_on,59,0,0,,8,,,68,127
78438,note_off,4,0,0,,7,,,67,127
78498,note_on,60,0,0,,7,,,67,127
78501,note_off,3,0,0,,8,,,68,127
78526,note_off,25,0,0,,7,,,55,127
78526,note_off,0,0,0,,5,,,65,127
78526,note_off,0,0,0,,2,,,62,127
78526,note_on,0,0,0,,0,,,72,127
78526,note_on,0,0,0,,7,,,55,127
78526,note_on,0,0,0,,3,,,63,127
78561,note_on,35,0,0,,8,,,68,127
78565,note_off,4,0,0,,7,,,67,127
78624,note_on,59,0,0,,7,,,67,127
78628,note_off,4,0,0,,8,,,68,127
78687,note_on,59,0,0,,8,,,68,127
78691,note_off,4,0,0,,7,,,67,127
78751,note_on,60,0,0,,7,,,67,127
78754,note_off,3,0,0,,8,,,68,127
78794,note_off,40,0,0,,3,,,63,127
78794,note_off,0,0,0,,7,,,55,127
78794,note_on,0,0,0,,3,,,63,127
78794,note_on,0,0,0,,7,,,55,127
78814,note_on,20,0,0,,8,,,68,127
78818,note_off,4,0,0,,7,,,67,127
78877,note_on,59,0,0,,7,,,67,127
78881,note_off,4,0,0,,8,,,68,127
78940,note_on,59,0,0,,8,,,68,127
78944,note_off,4,0,0,,7,,,67,127
79003,note_on,59,0,0,,7,,,67,127
79007,note_off,4,0,0,,8,,,68,127
79063,note_off,56,0,0,,7,,,55,127
79063,note_off,0,0,0,,3,,,63,127
79063,note_off,0,0,0,,0,,,72,127
79063,note_on,0,0,0,,0,,,72,127
79063,note_on,0,0,0,,5,,,65,127
79063,note_on,0,0,0,,7,,,55,127
79063,note_on,0,0,0,,2,,,62,127
79070,note_off,7,0,0,,7,,,67,127
79130,note_off,60,0,0,,0,,,72,127
79130,note_on,0,0,0,,12,,,71,127
79197,note_off,67,0,0,,12,,,71,127
79197,note_on,0,0,0,,0,,,72,127
79264,note_off,67,0,0,,0,,,72,127
79264,note_on,0,0,0,,12,,,71,127
79331,note_off,67,0,0,,12,,,71,127
79331,note_off,0,0,0,,2,,,62,127
79331,note_off,0,0,0,,7,,,55,127
79331,note_off,0,0,0,,5,,,65,127
79331,note_on,0,0,0,,0,,,72,127
79331,note_on,0,0,0,,7,,,55,127
79331,note_on,0,0,0,,2,,,62,127
79331,note_on,0,0,0,,5,,,65,127
79398,note_off,67,0,0,,0,,,72,127
79398,note_on,0,0,0,,12,,,71,127
79465,note_off,67,0,0,,12,,,71,127
79465,note_on,0,0,0,,0,,,72,127
79532,note_off,67,0,0,,0,,,72,127
79532,note_on,0,0,0,,12,,,71,127
79599,note_off,67,0,0,,12,,,71,127
79599,note_off,0,0,0,,5,,,65,127
79599,note_off,0,0,0,,2,,,62,127
79599,note_off,0,0,0,,7,,,55,127
79599,note_on,0,0,0,,2,,,74,127
79599,note_on,0,0,0,,0,,,60,127
79599,note_on,0,0,0,,3,,,63,127
79599,note_on,0,0,0,,7,,,55,127
79666,note_off,67,0,0,,2,,,74,127
79666,note_on,0,0,0,,0,,,72,127
79733,note_off,67,0,0,,0,,,72,127
79733,note_on,0,0,0,,2,,,74,127
79800,note_off,67,0,0,,2,,,74,127
79800,note_on,0,0,0,,0,,,72,127
79867,note_off,67,0,0,,0,,,72,127
79867,note_off,0,0,0,,7,,,55,127
79867,note_off,0,0,0,,3,,,63,127
79867,note_off,0,0,0,,0,,,60,127
79867,note_on,0,0,0,,2,,,74,127
79867,note_on,0,0,0,,0,,,60,127
79867,note_on,0,0,0,,3,,,63,127
79867,note_on,0,0,0,,7,,,55,127
79934,note_off,67,0,0,,2,,,74,127
79934,note_on,0,0,0,,0,,,72,127
80001,note_off,67,0,0,,0,,,72,127
80001,note_on,0,0,0,,12,,,71,127
80068,note_off,67,0,0,,12,,,71,127
80068,note_on,0,0,0,,0,,,72,127
80135,note_off,67,0,0,,0,,,72,127
80135,note_off,0,0,0,,7,,,55,127
80135,note_off,0,0,0,,3,,,63,127
80135,note_off,0,0,0,,0,,,60,127
80135,note_on,0,0,0,,2,,,74,127
80135,note_on,0,0,0,,7,,,43,127
80269,note_off,134,0,0,,2,,,74,127
80269,note_on,0,0,0,,7,,,79,127
80403,note_off,134,0,0,,7,,,79,127
80403,note_on,0,0,0,,2,,,74,127
80537,note_off,134,0,0,,2,,,74,127
80537,note_on,0,0,0,,12,,,71,127
80671,note_off,134,0,0,,12,,,71,127
80671,note_on,0,0,0,,7,,,67,127
80805,note_off,134,0,0,,7,,,67,127
80805,note_on,0,0,0,,2,,,62,127
80939,note_off,134,0,0,,2,,,62,127
80939,note_on,0,0,0,,12,,,59,127
81073,note_off,134,0,0,,12,,,59,127
81073,note_on,0,0,0,,7,,,55,127
81207,note_off,134,0,0,,7,,,55,127
81207,note_off,0,0,0,,7,,,43,127
81207,note_on,0,0,0,,2,,,50,127
81341,note_off,134,0,0,,2,,,50,127
81341,note_on,0,0,0,,12,,,47,127
81475,note_off,134,0,0,,12,,,47,127
81475,note_on,0,0,0,,7,,,43,127
81489,note_on,14,0,0,,7,,,31,127
82279,note_off,790,0,0,,7,,,43,127
82279,note_on,0,0,0,,6,,,66,127
82293,note_off,14,0,0,,7,,,31,127
82342,note_on,49,0,0,,7,,,67,127
82346,note_off,4,0,0,,6,,,66,127
82405,note_on,59,0,0,,8,,,68,127
82409,note_off,4,0,0,,7,,,67,127
82468,note_on,59,0,0,,7,,,67,127
82472,note_off,4,0,0,,8,,,68,127
82532,note_on,60,0,0,,8,,,68,127
82535,note_off,3,0,0,,7,,,67,127
82548,note_on,13,0,0,,7,,,55,127
82595,note_on,47,0,0,,7,,,67,127
82599,note_off,4,0,0,,8,,,68,127
82658,note_on,59,0,0,,8,,,68,127
82662,note_off,4,0,0,,7,,,67,127
82721,note_on,59,0,0,,7,,,67,127
82725,note_off,4,0,0,,8,,,68,127
82785,note_on,60,0,0,,8,,,68,127
82788,note_off,3,0,0,,7,,,67,127
82816,note_off,28,0,0,,7,,,55,127
82816,note_on,0,0,0,,7,,,55,127
82848,note_on,32,0,0,,7,,,67,127
82852,note_off,4,0,0,,8,,,68,127
82911,note_on,59,0,0,,8,,,68,127
82915,note_off,4,0,0,,7,,,67,127
82975,note_on,60,0,0,,7,,,67,127
82978,note_off,3,0,0,,8,,,68,127
83038,note_on,60,0,0,,8,,,68,127
83042,note_off,4,0,0,,7,,,67,127
83084,note_off,42,0,0,,7,,,55,127
83084,note_on,0,0,0,,7,,,55,127
83101,note_on,17,0,0,,7,,,67,127
83105,note_off,4,0,0,,8,,,68,127
83164,note_on,59,0,0,,8,,,68,127
83168,note_off,4,0,0,,7,,,67,127
83228,note_on,60,0,0,,7,,,67,127
83231,note_off,3,0,0,,8,,,68,127
83291,note_on,60,0,0,,8,,,68,127
83295,note_off,4,0,0,,7,,,67,127
83352,note_off,57,0,0,,7,,,55,127
83352,note_on,0,0,0,,5,,,65,127
83352,note_on,0,0,0,,7,,,55,127
83353,note_on,1,0,0,,7,,,67,127
83357,note_off,4,0,0,,8,,,68,127
83417,note_on,60,0,0,,8,,,68,127
83420,note_off,3,0,0,,7,,,67,127
83480,note_on,60,0,0,,7,,,67,127
83484,note_off,4,0,0,,8,,,68,127
83543,note_on,59,0,0,,8,,,68,127
83547,note_off,4,0,0,,7,,,67,127
83606,note_on,59,0,0,,7,,,67,127
83610,note_off,4,0,0,,8,,,68,127
83620,note_off,10,0,0,,7,,,55,127
83620,note_off,0,0,0,,5,,,65,127
83620,note_on,0,0,0,,7,,,55,127
83620,note_on,0,0,0,,5,,,65,127
83670,note_on,50,0,0,,8,,,68,127
83673,note_off,3,0,0,,7,,,67,127
83733,note_on,60,0,0,,7,,,67,127
83737,note_off,4,0,0,,8,,,68,127
83796,note_on,59,0,0,,8,,,68,127
83800,note_off,4,0,0,,7,,,67,127
83860,note_on,60,0,0,,7,,,67,127
83863,note_off,3,0,0,,8,,,68,127
83888,note_off,25,0,0,,5,,,65,127
83888,note_off,0,0,0,,7,,,55,127
83888,note_on,0,0,0,,3,,,63,127
83888,note_on,0,0,0,,7,,,55,127
83923,note_on,35,0,0,,8,,,68,127
83927,note_off,4,0,0,,7,,,67,127
83986,note_on,59,0,0,,7,,,67,127
83990,note_off,4,0,0,,8,,,68,127
84049,note_on,59,0,0,,8,,,68,127
84053,note_off,4,0,0,,7,,,67,127
84113,note_on,60,0,0,,7,,,67,127
84116,note_off,3,0,0,,8,,,68,127
84156,note_off,40,0,0,,7,,,55,127
84156,note_off,0,0,0,,3,,,63,127
84156,note_on,0,0,0,,3,,,63,127
84156,note_on,0,0,0,,7,,,55,127
84176,note_on,20,0,0,,8,,,68,127
84180,note_off,4,0,0,,7,,,67,127
84239,note_on,59,0,0,,7,,,67,127
84243,note_off,4,0,0,,8,,,68,127
84302,note_on,59,0,0,,8,,,68,127
84306,note_off,4,0,0,,7,,,67,127
84365,note_on,59,0,0,,7,,,67,127
84369,note_off,4,0,0,,8,,,68,127
84425,note_off,56,0,0,,7,,,67,127
84425,note_off,0,0,0,,7,,,55,127
84425,note_off,0,0,0,,3,,,63,127
84425,note_on,0,0,0,,7,,,67,127
84425,note_on,0,0,0,,2,,,62,127
84425,note_on,0,0,0,,7,,,55,127
84492,note_off,67,0,0,,7,,,67,127
84492,note_on,0,0,0,,5,,,65,127
84559,note_off,67,0,0,,5,,,65,127
84559,note_on,0,0,0,,7,,,67,127
84626,note_off,67,0,0,,7,,,67,127
84626,note_on,0,0,0,,5,,,65,127
84693,note_off,67,0,0,,5,,,65,127
84693,note_off,0,0,0,,7,,,55,127
84693,note_off,0,0,0,,2,,,62,127
84693,note_on,0,0,0,,7,,,67,127
84693,note_on,0,0,0,,7,,,55,127
84693,note_on,0,0,0,,2,,,62,127
84760,note_off,67,0,0,,7,,,67,127
84760,note_on,0,0,0,,5,,,65,127
84827,note_off,67,0,0,,5,,,65,127
84827,note_on,0,0,0,,7,,,67,127
84894,note_off,67,0,0,,7,,,67,127
84894,note_on,0,0,0,,5,,,65,127
84961,note_off,67,0,0,,5,,,65,127
84961,note_off,0,0,0,,2,,,62,127
84961,note_off,0,0,0,,7,,,55,127
84961,note_on,0,0,0,,7,,,67,127
84961,note_on,0,0,0,,5,,,65,127
84961,note_on,0,0,0,,0,,,60,127
84961,note_on,0,0,0,,7,,,55,127
85028,note_off,67,0,0,,5,,,65,127
85028,note_on,0,0,0,,3,,,63,127
85095,note_off,67,0,0,,3,,,63,127
85095,note_on,0,0,0,,5,,,65,127
85162,note_off,67,0,0,,5,,,65,127
85162,note_on,0,0,0,,3,,,63,127
85229,note_off,67,0,0,,3,,,63,127
85229,note_off,0,0,0,,7,,,55,127
85229,note_off,0,0,0,,0,,,60,127
85229,note_on,0,0,0,,5,,,65,127
85229,note_on,0,0,0,,0,,,60,127
85229,note_on,0,0,0,,7,,,55,127
85296,note_off,67,0,0,,5,,,65,127
85296,note_on,0,0,0,,3,,,63,127
85363,note_off,67,0,0,,3,,,63,127
85363,note_on,0,0,0,,5,,,65,127
85430,note_off,67,0,0,,5,,,65,127
85430,note_on,0,0,0,,3,,,63,127
85497,note_off,67,0,0,,3,,,63,127
85497,note_off,0,0,0,,7,,,55,127
85497,note_off,0,0,0,,0,,,60,127
85497,note_off,0,0,0,,7,,,67,127
85497,note_on,0,0,0,,12,,,59,127
85497,note_on,0,0,0,,2,,,62,127
85497,note_on,0,0,0,,7,,,55,127
85497,note_on,0,0,0,,6,,,66,127
85560,note_on,63,0,0,,7,,,67,127
85564,note_off,4,0,0,,6,,,66,127
85623,note_on,59,0,0,,8,,,68,127
85627,note_off,4,0,0,,7,,,67,127
85686,note_on,59,0,0,,7,,,67,127
85690,note_off,4,0,0,,8,,,68,127
85750,note_on,60,0,0,,8,,,68,127
85753,note_off,3,0,0,,7,,,67,127
85766,note_off,13,0,0,,7,,,55,127
85766,note_off,0,0,0,,2,,,62,127
85766,note_off,0,0,0,,12,,,59,127
85766,note_on,0,0,0,,2,,,62,127
85766,note_on,0,0,0,,7,,,55,127
85766,note_on,0,0,0,,12,,,59,127
85813,note_on,47,0,0,,7,,,67,127
85817,note_off,4,0,0,,8,,,68,127
85876,note_on,59,0,0,,8,,,68,127
85880,note_off,4,0,0,,7,,,67,127
85939,note_on,59,0,0,,7,,,67,127
85943,note_off,4,0,0,,8,,,68,127
86003,note_on,60,0,0,,8,,,68,127
86006,note_off,3,0,0,,7,,,67,127
86034,note_off,28,0,0,,12,,,59,127
86034,note_off,0,0,0,,7,,,55,127
86034,note_off,0,0,0,,2,,,62,127
86034,note_on,0,0,0,,3,,,63,127
86034,note_on,0,0,0,,7,,,55,127
86034,note_on,0,0,0,,0,,,60,127
86066,note_on,32,0,0,,7,,,67,127
86070,note_off,4,0,0,,8,,,68,127
86129,note_on,59,0,0,,8,,,68,127
86133,note_off,4,0,0,,7,,,67,127
86193,note_on,60,0,0,,7,,,67,127
86196,note_off,3,0,0,,8,,,68,127
86256,note_on,60,0,0,,8,,,68,127
86260,note_off,4,0,0,,7,,,67,127
86302,note_off,42,0,0,,0,,,60,127
86302,note_off,0,0,0,,7,,,55,127
86302,note_off,0,0,0,,3,,,63,127
86302,note_on,0,0,0,,7,,,55,127
86302,note_on,0,0,0,,0,,,60,127
86302,note_on,0,0,0,,3,,,63,127
86319,note_on,17,0,0,,7,,,67,127
86323,note_off,4,0,0,,8,,,68,127
86382,note_on,59,0,0,,8,,,68,127
86386,note_off,4,0,0,,7,,,67,127
86446,note_on,60,0,0,,7,,,67,127
86449,note_off,3,0,0,,8,,,68,127
86509,note_on,60,0,0,,8,,,68,127
86513,note_off,4,0,0,,7,,,67,127
86570,note_off,57,0,0,,3,,,63,127
86570,note_off,0,0,0,,0,,,60,127
86570,note_off,0,0,0,,7,,,55,127
86570,note_on,0,0,0,,2,,,62,127
86570,note_on,0,0,0,,5,,,65,127
86570,note_on,0,0,0,,7,,,55,127
86571,note_on,1,0,0,,7,,,67,127
86575,note_off,4,0,0,,8,,,68,127
86635,note_on,60,0,0,,8,,,68,127
86638,note_off,3,0,0,,7,,,67,127
86698,note_on,60,0,0,,7,,,67,127
86702,note_off,4,0,0,,8,,,68,127
86761,note_on,59,0,0,,8,,,68,127
86765,note_off,4,0,0,,7,,,67,127
86824,note_on,59,0,0,,7,,,67,127
86828,note_off,4,0,0,,8,,,68,127
86838,note_off,10,0,0,,7,,,55,127
86838,note_off,0,0,0,,5,,,65,127
86838,note_off,0,0,0,,2,,,62,127
86838,note_on,0,0,0,,2,,,62,127
86838,note_on,0,0,0,,5,,,65,127
86838,note_on,0,0,0,,7,,,55,127
86888,note_on,50,0,0,,8,,,68,127
86891,note_off,3,0,0,,7,,,67,127
86951,note_on,60,0,0,,7,,,67,127
86955,note_off,4,0,0,,8,,,68,127
87014,note_on,59,0,0,,8,,,68,127
87018,note_off,4,0,0,,7,,,67,127
87078,note_on,60,0,0,,7,,,67,127
87081,note_off,3,0,0,,8,,,68,127
87106,note_off,25,0,0,,7,,,55,127
87106,note_off,0,0,0,,5,,,65,127
87106,note_off,0,0,0,,2,,,62,127
87106,note_on,0,0,0,,0,,,72,127
87106,note_on,0,0,0,,5,,,65,127
87106,note_on,0,0,0,,7,,,55,127
87141,note_on,35,0,0,,8,,,68,127
87145,note_off,4,0,0,,7,,,67,127
87204,note_on,59,0,0,,7,,,67,127
87208,note_off,4,0,0,,8,,,68,127
87267,note_on,59,0,0,,8,,,68,127
87271,note_off,4,0,0,,7,,,67,127
87331,note_on,60,0,0,,7,,,67,127
87334,note_off,3,0,0,,8,,,68,127
87374,note_off,40,0,0,,7,,,55,127
87374,note_off,0,0,0,,5,,,65,127
87374,note_on,0,0,0,,3,,,63,127
87374,note_on,0,0,0,,7,,,55,127
87394,note_on,20,0,0,,8,,,68,127
87398,note_off,4,0,0,,7,,,67,127
87457,note_on,59,0,0,,7,,,67,127
87461,note_off,4,0,0,,8,,,68,127
87520,note_on,59,0,0,,8,,,68,127
87524,note_off,4,0,0,,7,,,67,127
87583,note_on,59,0,0,,7,,,67,127
87587,note_off,4,0,0,,8,,,68,127
87643,note_off,56,0,0,,7,,,55,127
87643,note_off,0,0,0,,3,,,63,127
87643,note_off,0,0,0,,0,,,72,127
87643,note_on,0,0,0,,0,,,72,127
87643,note_on,0,0,0,,7,,,55,127
87643,note_on,0,0,0,,2,,,62,127
87643,note_on,0,0,0,,5,,,65,127
87650,note_off,7,0,0,,7,,,67,127
87710,note_off,60,0,0,,0,,,72,127
87710,note_on,0,0,0,,12,,,71,127
87777,note_off,67,0,0,,12,,,71,127
87777,note_on,0,0,0,,0,,,72,127
87844,note_off,67,0,0,,0,,,72,127
87844,note_on,0,0,0,,12,,,71,127
87911,note_off,67,0,0,,12,,,71,127
87911,note_off,0,0,0,,5,,,65,127
87911,note_off,0,0,0,,2,,,62,127
87911,note_off,0,0,0,,7,,,55,127
87911,note_on,0,0,0,,0,,,72,127
87911,note_on,0,0,0,,2,,,62,127
87911,note_on,0,0,0,,5,,,65,127
87911,note_on,0,0,0,,7,,,55,127
87978,note_off,67,0,0,,0,,,72,127
87978,note_on,0,0,0,,12,,,71,127
88045,note_off,67,0,0,,12,,,71,127
88045,note_on,0,0,0,,0,,,72,127
88112,note_off,67,0,0,,0,,,72,127
88112,note_on,0,0,0,,12,,,71,127
88179,note_off,67,0,0,,12,,,71,127
88179,note_off,0,0,0,,7,,,55,127
88179,note_off,0,0,0,,5,,,65,127
88179,note_off,0,0,0,,2,,,62,127
88179,note_on,0,0,0,,2,,,74,127
88179,note_on,0,0,0,,3,,,63,127
88179,note_on,0,0,0,,7,,,55,127
88179,note_on,0,0,0,,0,,,60,127
88246,note_off,67,0,0,,2,,,74,127
88246,note_on,0,0,0,,0,,,72,127
88313,note_off,67,0,0,,0,,,72,127
88313,note_on,0,0,0,,2,,,74,127
88380,note_off,67,0,0,,2,,,74,127
88380,note_on,0,0,0,,0,,,72,127
88447,note_off,67,0,0,,0,,,72,127
88447,note_off,0,0,0,,0,,,60,127
88447,note_off,0,0,0,,7,,,55,127
88447,note_off,0,0,0,,3,,,63,127
88447,note_on,0,0,0,,2,,,74,127
88447,note_on,0,0,0,,3,,,63,127
88447,note_on,0,0,0,,7,,,55,127
88447,note_on,0,0,0,,0,,,60,127
88514,note_off,67,0,0,,2,,,74,127
88514,note_on,0,0,0,,0,,,72,127
88581,note_off,67,0,0,,0,,,72,127
88581,note_on,0,0,0,,12,,,71,127
88648,note_off,67,0,0,,12,,,71,127
88648,note_on,0,0,0,,0,,,72,127
88715,note_off,67,0,0,,0,,,72,127
88715,note_off,0,0,0,,0,,,60,127
88715,note_off,0,0,0,,7,,,55,127
88715,note_off,0,0,0,,3,,,63,127
88715,note_on,0,0,0,,2,,,74,127
88715,note_on,0,0,0,,7,,,43,127
88849,note_off,134,0,0,,2,,,74,127
88849,note_on,0,0,0,,7,,,79,127
88983,note_off,134,0,0,,7,,,79,127
88983,note_on,0,0,0,,2,,,74,127
89117,note_off,134,0,0,,2,,,74,127
89117,note_on,0,0,0,,12,,,71,127
89251,note_off,134,0,0,,12,,,71,127
89251,note_on,0,0,0,,7,,,67,127
89385,note_off,134,0,0,,7,,,67,127
89385,note_on,0,0,0,,2,,,62,127
89519,note_off,134,0,0,,2,,,62,127
89519,note_on,0,0,0,,12,,,59,127
89653,note_off,134,0,0,,12,,,59,127
89653,note_on,0,0,0,,7,,,55,127
89787,note_off,134,0,0,,7,,,55,127
89787,note_off,0,0,0,,7,,,43,127
89787,note_on,0,0,0,,2,,,50,127
89921,note_off,134,0,0,,2,,,50,127
89921,note_on,0,0,0,,12,,,47,127
90055,note_off,134,0,0,,12,,,47,127
90055,note_on,0,0,0,,7,,,31,127
90055,note_on,0,0,0,,7,,,43,127
91395,note_off,1340,0,0,,7,,,43,127
91395,note_off,0,0,0,,7,,,31,127
91663,note_on,268,0,0,,7,,,67,127
91663,note_on,0,0,0,,3,,,63,127
91797,note_on,134,0,0,,11,,,70,127
91931,note_off,134,0,0,,11,,,70,127
91931,note_off,0,0,0,,3,,,63,127
91931,note_off,0,0,0,,7,,,67,127
91931,note_on,0,0,0,,0,,,72,127
91931,note_on,0,0,0,,3,,,63,127
91931,note_on,0,0,0,,7,,,67,127
91998,note_off,67,0,0,,0,,,72,127
91998,note_on,0,0,0,,2,,,74,127
92065,note_off,67,0,0,,2,,,74,127
92065,note_on,0,0,0,,3,,,75,127
92132,note_off,67,0,0,,3,,,75,127
92132,note_on,0,0,0,,5,,,77,127
92199,note_off,67,0,0,,5,,,77,127
92199,note_off,0,0,0,,7,,,67,127
92199,note_off,0,0,0,,3,,,63,127
92199,note_on,0,0,0,,7,,,79,127
92199,note_on,0,0,0,,7,,,67,127
92199,note_on,0,0,0,,3,,,63,127
92467,note_off,268,0,0,,3,,,63,127
92467,note_off,0,0,0,,7,,,67,127
92467,note_on,0,0,0,,3,,,63,127
92467,note_on,0,0,0,,7,,,67,127
92735,note_off,268,0,0,,7,,,67,127
92735,note_off,0,0,0,,3,,,63,127
92735,note_on,0,0,0,,5,,,65,127
92735,note_on,0,0,0,,11,,,58,127
92869,note_off,134,0,0,,7,,,79,127
92869,note_on,0,0,0,,8,,,80,127
93003,note_off,134,0,0,,8,,,80,127
93003,note_off,0,0,0,,11,,,58,127
93003,note_off,0,0,0,,5,,,65,127
93003,note_on,0,0,0,,5,,,77,127
93003,note_on,0,0,0,,11,,,58,127
93003,note_on,0,0,0,,5,,,65,127
93137,note_off,134,0,0,,5,,,77,127
93137,note_on,0,0,0,,2,,,74,127
93271,note_off,134,0,0,,2,,,74,127
93271,note_off,0,0,0,,5,,,65,127
93271,note_off,0,0,0,,11,,,58,127
93271,note_on,0,0,0,,3,,,75,127
93271,note_on,0,0,0,,3,,,63,127
93271,note_on,0,0,0,,7,,,67,127
93405,note_off,134,0,0,,3,,,75,127
93405,note_on,0,0,0,,11,,,70,127
93539,note_off,134,0,0,,11,,,70,127
93539,note_off,0,0,0,,7,,,67,127
93539,note_off,0,0,0,,3,,,63,127
93539,note_on,0,0,0,,0,,,72,127
93539,note_on,0,0,0,,7,,,67,127
93539,note_on,0,0,0,,3,,,63,127
93606,note_off,67,0,0,,0,,,72,127
93606,note_on,0,0,0,,2,,,74,127
93673,note_off,67,0,0,,2,,,74,127
93673,note_on,0,0,0,,3,,,75,127
93740,note_off,67,0,0,,3,,,75,127
93740,note_on,0,0,0,,5,,,77,127
93807,note_off,67,0,0,,5,,,77,127
93807,note_off,0,0,0,,3,,,63,127
93807,note_off,0,0,0,,7,,,67,127
93807,note_on,0,0,0,,7,,,79,127
93807,note_on,0,0,0,,7,,,67,127
93807,note_on,0,0,0,,3,,,63,127
94075,note_off,268,0,0,,3,,,63,127
94075,note_off,0,0,0,,7,,,67,127
94075,note_on,0,0,0,,7,,,67,127
94075,note_on,0,0,0,,3,,,63,127
94343,note_off,268,0,0,,3,,,63,127
94343,note_off,0,0,0,,7,,,67,127
94343,note_on,0,0,0,,11,,,58,127
94343,note_on,0,0,0,,5,,,65,127
94477,note_off,134,0,0,,7,,,79,127
94477,note_on,0,0,0,,8,,,80,127
94544,note_off,67,0,0,,8,,,80,127
94544,note_on,0,0,0,,7,,,79,127
94611,note_off,67,0,0,,7,,,79,127
94611,note_off,0,0,0,,5,,,65,127
94611,note_off,0,0,0,,11,,,58,127
94611,note_on,0,0,0,,5,,,77,127
94611,note_on,0,0,0,,5,,,65,127
94611,note_on,0,0,0,,11,,,58,127
94745,note_off,134,0,0,,5,,,77,127
94745,note_on,0,0,0,,3,,,75,127
94812,note_off,67,0,0,,3,,,75,127
94812,note_on,0,0,0,,2,,,74,127
94879,note_off,67,0,0,,2,,,74,127
94879,note_off,0,0,0,,11,,,58,127
94879,note_off,0,0,0,,5,,,65,127
94879,note_on,0,0,0,,3,,,75,127
94879,note_on,0,0,0,,5,,,77,127
94879,note_on,0,0,0,,3,,,63,127
94879,note_on,0,0,0,,0,,,60,127
95013,note_off,134,0,0,,5,,,77,127
95013,note_off,0,0,0,,3,,,75,127
95013,note_on,0,0,0,,2,,,74,127
95147,note_off,134,0,0,,2,,,74,127
95147,note_off,0,0,0,,0,,,60,127
95147,note_off,0,0,0,,3,,,63,127
95147,note_on,0,0,0,,3,,,75,127
95147,note_on,0,0,0,,3,,,63,127
95147,note_on,0,0,0,,0,,,60,127
95415,note_off,268,0,0,,0,,,60,127
95415,note_off,0,0,0,,3,,,63,127
95415,note_off,0,0,0,,3,,,75,127
95415,note_on,0,0,0,,5,,,77,127
95415,note_on,0,0,0,,3,,,75,127
95415,note_on,0,0,0,,0,,,60,127
95415,note_on,0,0,0,,7,,,67,127
95415,note_on,0,0,0,,3,,,63,127
95549,note_off,134,0,0,,3,,,75,127
95549,note_off,0,0,0,,5,,,77,127
95549,note_on,0,0,0,,2,,,74,127
95683,note_off,134,0,0,,2,,,74,127
95683,note_off,0,0,0,,3,,,63,127
95683,note_off,0,0,0,,7,,,67,127
95683,note_off,0,0,0,,0,,,60,127
95683,note_on,0,0,0,,3,,,75,127
95683,note_on,0,0,0,,7,,,67,127
95683,note_on,0,0,0,,3,,,63,127
95683,note_on,0,0,0,,0,,,60,127
95951,note_off,268,0,0,,0,,,60,127
95951,note_off,0,0,0,,3,,,63,127
95951,note_off,0,0,0,,7,,,67,127
95951,note_off,0,0,0,,3,,,75,127
95951,note_on,0,0,0,,5,,,77,127
95951,note_on,0,0,0,,3,,,75,127
95951,note_on,0,0,0,,11,,,58,127
95951,note_on,0,0,0,,7,,,67,127
95951,note_on,0,0,0,,3,,,63,127
96085,note_off,134,0,0,,3,,,75,127
96085,note_off,0,0,0,,5,,,77,127
96085,note_on,0,0,0,,2,,,74,127
96219,note_off,134,0,0,,2,,,74,127
96219,note_off,0,0,0,,3,,,63,127
96219,note_off,0,0,0,,7,,,67,127
96219,note_off,0,0,0,,11,,,58,127
96219,note_on,0,0,0,,3,,,75,127
96219,note_on,0,0,0,,3,,,63,127
96219,note_on,0,0,0,,7,,,67,127
96219,note_on,0,0,0,,11,,,58,127
96487,note_off,268,0,0,,11,,,58,127
96487,note_off,0,0,0,,7,,,67,127
96487,note_off,0,0,0,,3,,,63,127
96487,note_off,0,0,0,,3,,,75,127
96487,note_on,0,0,0,,3,,,75,127
96487,note_on,0,0,0,,5,,,77,127
96487,note_on,0,0,0,,3,,,63,127
96487,note_on,0,0,0,,0,,,60,127
96487,note_on,0,0,0,,8,,,56,127
96621,note_off,134,0,0,,5,,,77,127
96621,note_off,0,0,0,,3,,,75,127
96621,note_on,0,0,0,,2,,,74,127
96755,note_off,134,0,0,,2,,,74,127
96755,note_off,0,0,0,,8,,,56,127
96755,note_off,0,0,0,,0,,,60,127
96755,note_off,0,0,0,,3,,,63,127
96755,note_on,0,0,0,,3,,,75,127
96755,note_on,0,0,0,,8,,,56,127
96755,note_on,0,0,0,,3,,,63,127
96755,note_on,0,0,0,,0,,,60,127
97023,note_off,268,0,0,,0,,,60,127
97023,note_off,0,0,0,,3,,,63,127
97023,note_off,0,0,0,,8,,,56,127
97023,note_on,0,0,0,,0,,,84,127
97023,note_on,0,0,0,,8,,,56,127
97023,note_on,0,0,0,,3,,,63,127
97023,note_on,0,0,0,,0,,,60,127
97291,note_off,268,0,0,,0,,,60,127
97291,note_off,0,0,0,,3,,,63,127
97291,note_off,0,0,0,,8,,,56,127
97291,note_off,0,0,0,,3,,,75,127
97291,note_on,0,0,0,,5,,,77,127
97291,note_on,0,0,0,,0,,,60,127
97291,note_on,0,0,0,,8,,,56,127
97291,note_on,0,0,0,,3,,,63,127
97559,note_off,268,0,0,,3,,,63,127
97559,note_off,0,0,0,,8,,,56,127
97559,note_off,0,0,0,,0,,,60,127
97559,note_off,0,0,0,,5,,,77,127
97559,note_on,0,0,0,,6,,,78,127
97559,note_on,0,0,0,,11,,,58,127
97559,note_on,0,0,0,,6,,,54,127
97559,note_on,0,0,0,,3,,,63,127
97827,note_off,268,0,0,,3,,,63,127
97827,note_off,0,0,0,,6,,,54,127
97827,note_off,0,0,0,,11,,,58,127
97827,note_off,0,0,0,,0,,,84,127
97827,note_on,0,0,0,,11,,,82,127
97827,note_on,0,0,0,,3,,,63,127
97827,note_on,0,0,0,,11,,,58,127
97827,note_on,0,0,0,,6,,,54,127
98095,note_off,268,0,0,,6,,,54,127
98095,note_off,0,0,0,,11,,,58,127
98095,note_off,0,0,0,,3,,,63,127
98095,note_off,0,0,0,,11,,,82,127
98095,note_off,0,0,0,,6,,,78,127
98095,note_on,0,0,0,,10,,,81,127
98095,note_on,0,0,0,,5,,,53,127
98095,note_on,0,0,0,,11,,,58,127
98095,note_on,0,0,0,,0,,,60,127
98095,note_on,0,0,0,,3,,,63,127
98296,note_off,201,0,0,,11,,,58,127
98363,note_off,67,0,0,,3,,,63,127
98363,note_off,0,0,0,,0,,,60,127
98363,note_off,0,0,0,,5,,,53,127
98363,note_off,0,0,0,,10,,,81,127
98363,note_on,0,0,0,,6,,,78,127
98363,note_on,0,0,0,,5,,,53,127
98363,note_on,0,0,0,,11,,,58,127
98363,note_on,0,0,0,,0,,,60,127
98363,note_on,0,0,0,,3,,,63,127
98564,note_off,201,0,0,,11,,,58,127
98631,note_off,67,0,0,,3,,,63,127
98631,note_off,0,0,0,,0,,,60,127
98631,note_off,0,0,0,,5,,,53,127
98631,note_on,0,0,0,,5,,,53,127
98631,note_on,0,0,0,,11,,,58,127
98631,note_on,0,0,0,,0,,,60,127
98631,note_on,0,0,0,,3,,,63,127
98765,note_off,134,0,0,,0,,,60,127
98832,note_off,67,0,0,,11,,,58,127
98899,note_off,67,0,0,,3,,,63,127
98899,note_off,0,0,0,,5,,,53,127
98899,note_off,0,0,0,,6,,,78,127
98899,note_on,0,0,0,,5,,,77,127
98899,note_on,0,0,0,,5,,,53,127
98899,note_on,0,0,0,,11,,,58,127
98899,note_on,0,0,0,,0,,,60,127
98899,note_on,0,0,0,,3,,,63,127
99033,note_off,134,0,0,,0,,,60,127
99100,note_off,67,0,0,,11,,,58,127
99167,note_off,67,0,0,,3,,,63,127
99167,note_off,0,0,0,,5,,,53,127
99167,note_on,0,0,0,,5,,,53,127
99167,note_on,0,0,0,,11,,,58,127
99167,note_on,0,0,0,,0,,,60,127
99167,note_on,0,0,0,,3,,,63,127
99234,note_off,67,0,0,,0,,,60,127
99301,note_off,67,0,0,,5,,,77,127
99301,note_on,0,0,0,,3,,,75,127
99434,note_off,133,0,0,,11,,,58,127
99435,note_off,1,0,0,,3,,,75,127
99435,note_off,0,0,0,,3,,,63,127
99435,note_off,0,0,0,,5,,,53,127
99435,note_on,0,0,0,,1,,,73,127
99435,note_on,0,0,0,,5,,,53,127
99435,note_on,0,0,0,,11,,,58,127
99435,note_on,0,0,0,,0,,,60,127
99435,note_on,0,0,0,,3,,,63,127
99502,note_off,67,0,0,,0,,,60,127
99569,note_off,67,0,0,,1,,,73,127
99569,note_on,0,0,0,,0,,,72,127
99703,note_off,134,0,0,,0,,,72,127
99703,note_off,0,0,0,,3,,,63,127
99703,note_off,0,0,0,,11,,,58,127
99703,note_off,0,0,0,,5,,,53,127
99703,note_on,0,0,0,,5,,,77,127
99703,note_on,0,0,0,,6,,,78,127
99703,note_on,0,0,0,,11,,,58,127
99703,note_on,0,0,0,,5,,,65,127
99703,note_on,0,0,0,,1,,,61,127
99837,note_off,134,0,0,,6,,,78,127
99837,note_off,0,0,0,,5,,,77,127
99837,note_on,0,0,0,,4,,,76,127
99971,note_off,134,0,0,,4,,,76,127
99971,note_off,0,0,0,,1,,,61,127
99971,note_off,0,0,0,,5,,,65,127
99971,note_off,0,0,0,,11,,,58,127
99971,note_on,0,0,0,,5,,,77,127
99971,note_on,0,0,0,,5,,,65,127
99971,note_on,0,0,0,,1,,,61,127
99971,note_on,0,0,0,,11,,,58,127
100239,note_off,268,0,0,,11,,,58,127
100239,note_off,0,0,0,,1,,,61,127
100239,note_off,0,0,0,,5,,,65,127
100239,note_on,0,0,0,,1,,,85,127
100239,note_on,0,0,0,,5,,,65,127
100239,note_on,0,0,0,,11,,,58,127
100239,note_on,0,0,0,,1,,,61,127
100507,note_off,268,0,0,,1,,,61,127
100507,note_off,0,0,0,,11,,,58,127
100507,note_off,0,0,0,,5,,,65,127
100507,note_off,0,0,0,,5,,,77,127
100507,note_on,0,0,0,,7,,,79,127
100507,note_on,0,0,0,,1,,,61,127
100507,note_on,0,0,0,,11,,,58,127
100507,note_on,0,0,0,,5,,,65,127
100775,note_off,268,0,0,,5,,,65,127
100775,note_off,0,0,0,,11,,,58,127
100775,note_off,0,0,0,,1,,,61,127
100775,note_off,0,0,0,,7,,,79,127
100775,note_on,0,0,0,,8,,,80,127
100775,note_on,0,0,0,,0,,,60,127
100775,note_on,0,0,0,,8,,,56,127
100775,note_on,0,0,0,,5,,,65,127
101043,note_off,268,0,0,,5,,,65,127
101043,note_off,0,0,0,,8,,,56,127
101043,note_off,0,0,0,,0,,,60,127
101043,note_off,0,0,0,,8,,,80,127
101043,note_off,0,0,0,,1,,,85,127
101043,note_on,0,0,0,,0,,,84,127
101043,note_on,0,0,0,,0,,,60,127
101043,note_on,0,0,0,,8,,,56,127
101043,note_on,0,0,0,,5,,,65,127
101311,note_off,268,0,0,,5,,,65,127
101311,note_off,0,0,0,,8,,,56,127
101311,note_off,0,0,0,,0,,,60,127
101311,note_off,0,0,0,,0,,,84,127
101311,note_on,0,0,0,,12,,,83,127
101311,note_on,0,0,0,,7,,,55,127
101311,note_on,0,0,0,,5,,,65,127
101311,note_on,0,0,0,,0,,,60,127
101311,note_on,0,0,0,,2,,,62,127
101445,note_off,134,0,0,,0,,,60,127
101579,note_off,134,0,0,,2,,,62,127
101579,note_off,0,0,0,,5,,,65,127
101579,note_off,0,0,0,,7,,,55,127
101579,note_off,0,0,0,,12,,,83,127
101579,note_on,0,0,0,,8,,,80,127
101579,note_on,0,0,0,,7,,,55,127
101579,note_on,0,0,0,,0,,,60,127
101579,note_on,0,0,0,,2,,,62,127
101579,note_on,0,0,0,,5,,,65,127
101713,note_off,134,0,0,,0,,,60,127
101847,note_off,134,0,0,,5,,,65,127
101847,note_off,0,0,0,,2,,,62,127
101847,note_off,0,0,0,,7,,,55,127
101847,note_on,0,0,0,,7,,,55,127
101847,note_on,0,0,0,,0,,,60,127
101847,note_on,0,0,0,,2,,,62,127
101847,note_on,0,0,0,,5,,,65,127
102048,note_off,201,0,0,,2,,,62,127
102048,note_off,0,0,0,,0,,,60,127
102115,note_off,67,0,0,,5,,,65,127
102115,note_off,0,0,0,,7,,,55,127
102115,note_off,0,0,0,,8,,,80,127
102115,note_on,0,0,0,,7,,,79,127
102115,note_on,0,0,0,,7,,,55,127
102115,note_on,0,0,0,,0,,,60,127
102115,note_on,0,0,0,,2,,,62,127
102115,note_on,0,0,0,,5,,,65,127
102316,note_off,201,0,0,,2,,,62,127
102316,note_off,0,0,0,,0,,,60,127
102383,note_off,67,0,0,,5,,,65,127
102383,note_off,0,0,0,,7,,,55,127
102383,note_on,0,0,0,,7,,,55,127
102383,note_on,0,0,0,,0,,,60,127
102383,note_on,0,0,0,,2,,,62,127
102383,note_on,0,0,0,,5,,,65,127
102516,note_off,133,0,0,,2,,,62,127
102517,note_off,1,0,0,,7,,,79,127
102517,note_on,0,0,0,,5,,,77,127
102651,note_off,134,0,0,,5,,,77,127
102651,note_off,0,0,0,,5,,,65,127
102651,note_off,0,0,0,,0,,,60,127
102651,note_off,0,0,0,,7,,,55,127
102651,note_on,0,0,0,,4,,,76,127
102651,note_on,0,0,0,,7,,,55,127
102651,note_on,0,0,0,,0,,,60,127
102651,note_on,0,0,0,,2,,,62,127
102651,note_on,0,0,0,,5,,,65,127
102784,note_off,133,0,0,,2,,,62,127
102785,note_off,1,0,0,,4,,,76,127
102785,note_on,0,0,0,,2,,,74,127
102919,note_off,134,0,0,,2,,,74,127
102919,note_off,0,0,0,,5,,,65,127
102919,note_off,0,0,0,,0,,,60,127
102919,note_off,0,0,0,,7,,,55,127
102919,note_on,0,0,0,,4,,,76,127
102919,note_on,0,0,0,,0,,,48,127
103053,note_off,134,0,0,,4,,,76,127
103053,note_on,0,0,0,,0,,,72,127
103187,note_off,134,0,0,,0,,,72,127
103187,note_on,0,0,0,,1,,,73,127
103321,note_off,134,0,0,,1,,,73,127
103321,note_on,0,0,0,,2,,,74,127
103455,note_off,134,0,0,,2,,,74,127
103455,note_on,0,0,0,,3,,,75,127
103455,note_on,0,0,0,,0,,,60,127
103589,note_off,134,0,0,,3,,,75,127
103589,note_on,0,0,0,,4,,,76,127
103723,note_off,134,0,0,,4,,,76,127
103723,note_off,0,0,0,,0,,,48,127
103723,note_on,0,0,0,,5,,,77,127
103857,note_off,134,0,0,,5,,,77,127
103857,note_on,0,0,0,,7,,,79,127
103991,note_off,134,0,0,,7,,,79,127
103991,note_on,0,0,0,,8,,,80,127
103991,note_on,0,0,0,,0,,,72,127
104125,note_off,134,0,0,,8,,,80,127
104125,note_on,0,0,0,,10,,,81,127
104259,note_off,134,0,0,,10,,,81,127
104259,note_off,0,0,0,,0,,,60,127
104259,note_on,0,0,0,,11,,,82,127
104393,note_off,134,0,0,,11,,,82,127
104393,note_on,0,0,0,,12,,,83,127
104527,note_off,134,0,0,,12,,,83,127
104527,note_off,0,0,0,,0,,,72,127
104527,note_on,0,0,0,,0,,,84,127
104527,note_on,0,0,0,,0,,,72,127
104527,note_on,0,0,0,,11,,,70,127
104660,note_off,133,0,0,,0,,,72,127
104661,note_on,1,0,0,,0,,,72,127
104795,note_off,134,0,0,,0,,,84,127
104795,note_on,0,0,0,,1,,,73,127
104929,note_off,134,0,0,,1,,,73,127
104929,note_on,0,0,0,,2,,,74,127
105063,note_off,134,0,0,,2,,,74,127
105063,note_off,0,0,0,,0,,,72,127
105063,note_off,0,0,0,,11,,,70,127
105063,note_on,0,0,0,,3,,,75,127
105063,note_on,0,0,0,,11,,,70,127
105063,note_on,0,0,0,,0,,,72,127
105197,note_off,134,0,0,,3,,,75,127
105197,note_on,0,0,0,,4,,,76,127
105331,note_off,134,0,0,,4,,,76,127
105331,note_on,0,0,0,,5,,,77,127
105465,note_off,134,0,0,,5,,,77,127
105465,note_on,0,0,0,,7,,,79,127
105599,note_off,134,0,0,,7,,,79,127
105599,note_off,0,0,0,,0,,,72,127
105599,note_off,0,0,0,,11,,,70,127
105599,note_on,0,0,0,,8,,,80,127
105599,note_on,0,0,0,,0,,,72,127
105599,note_on,0,0,0,,11,,,70,127
105733,note_off,134,0,0,,8,,,80,127
105733,note_on,0,0,0,,10,,,81,127
105867,note_off,134,0,0,,10,,,81,127
105867,note_on,0,0,0,,11,,,82,127
106001,note_off,134,0,0,,11,,,82,127
106001,note_on,0,0,0,,12,,,83,127
106135,note_off,134,0,0,,12,,,83,127
106135,note_off,0,0,0,,11,,,70,127
106135,note_off,0,0,0,,0,,,72,127
106135,note_on,0,0,0,,0,,,84,127
106135,note_on,0,0,0,,0,,,72,127
106135,note_on,0,0,0,,8,,,68,127
106268,note_off,133,0,0,,0,,,72,127
106269,note_on,1,0,0,,0,,,72,127
106403,note_off,134,0,0,,0,,,84,127
106403,note_on,0,0,0,,1,,,73,127
106537,note_off,134,0,0,,1,,,73,127
106537,note_on,0,0,0,,2,,,74,127
106671,note_off,134,0,0,,2,,,74,127
106671,note_off,0,0,0,,0,,,72,127
106671,note_off,0,0,0,,8,,,68,127
106671,note_on,0,0,0,,3,,,75,127
106671,note_on,0,0,0,,8,,,68,127
106671,note_on,0,0,0,,0,,,72,127
106805,note_off,134,0,0,,3,,,75,127
106805,note_on,0,0,0,,4,,,76,127
106939,note_off,134,0,0,,4,,,76,127
106939,note_on,0,0,0,,5,,,77,127
107073,note_off,134,0,0,,5,,,77,127
107073,note_on,0,0,0,,6,,,78,127
107207,note_off,134,0,0,,6,,,78,127
107207,note_off,0,0,0,,0,,,72,127
107207,note_off,0,0,0,,8,,,68,127
107207,note_on,0,0,0,,7,,,79,127
107207,note_on,0,0,0,,8,,,68,127
107207,note_on,0,0,0,,0,,,72,127
107341,note_off,134,0,0,,7,,,79,127
107341,note_on,0,0,0,,10,,,81,127
107475,note_off,134,0,0,,10,,,81,127
107475,note_on,0,0,0,,11,,,82,127
107609,note_off,134,0,0,,11,,,82,127
107609,note_on,0,0,0,,12,,,83,127
107735,note_off,126,0,0,,12,,,83,127
107743,note_off,8,0,0,,0,,,72,127
107743,note_off,0,0,0,,8,,,68,127
107743,note_on,0,0,0,,11,,,82,127
107743,note_on,0,0,0,,0,,,84,127
107743,note_on,0,0,0,,11,,,70,127
107743,note_on,0,0,0,,7,,,67,127
107877,note_off,134,0,0,,0,,,84,127
107877,note_off,0,0,0,,11,,,82,127
107877,note_on,0,0,0,,10,,,81,127
108011,note_off,134,0,0,,10,,,81,127
108011,note_off,0,0,0,,7,,,67,127
108011,note_off,0,0,0,,11,,,70,127
108011,note_on,0,0,0,,11,,,82,127
108011,note_on,0,0,0,,11,,,70,127
108011,note_on,0,0,0,,7,,,67,127
108279,note_off,268,0,0,,7,,,67,127
108279,note_off,0,0,0,,11,,,70,127
108279,note_off,0,0,0,,11,,,82,127
108279,note_on,0,0,0,,0,,,84,127
108279,note_on,0,0,0,,11,,,82,127
108279,note_on,0,0,0,,11,,,70,127
108279,note_on,0,0,0,,7,,,67,127
108413,note_off,134,0,0,,11,,,82,127
108413,note_off,0,0,0,,0,,,84,127
108413,note_on,0,0,0,,10,,,81,127
108547,note_off,134,0,0,,10,,,81,127
108547,note_off,0,0,0,,7,,,67,127
108547,note_off,0,0,0,,11,,,70,127
108547,note_on,0,0,0,,11,,,82,127
108547,note_on,0,0,0,,7,,,67,127
108547,note_on,0,0,0,,0,,,72,127
108815,note_off,268,0,0,,0,,,72,127
108815,note_off,0,0,0,,7,,,67,127
108815,note_off,0,0,0,,11,,,82,127
108815,note_on,0,0,0,,0,,,84,127
108815,note_on,0,0,0,,11,,,82,127
108815,note_on,0,0,0,,1,,,73,127
108815,note_on,0,0,0,,11,,,70,127
108815,note_on,0,0,0,,5,,,65,127
108949,note_off,134,0,0,,11,,,82,127
108949,note_off,0,0,0,,0,,,84,127
108949,note_on,0,0,0,,10,,,81,127
109083,note_off,134,0,0,,10,,,81,127
109083,note_off,0,0,0,,5,,,65,127
109083,note_off,0,0,0,,11,,,70,127
109083,note_off,0,0,0,,1,,,73,127
109083,note_on,0,0,0,,11,,,82,127
109083,note_on,0,0,0,,1,,,73,127
109083,note_on,0,0,0,,11,,,70,127
109083,note_on,0,0,0,,5,,,65,127
109351,note_off,268,0,0,,5,,,65,127
109351,note_off,0,0,0,,11,,,70,127
109351,note_off,0,0,0,,1,,,73,127
109351,note_off,0,0,0,,11,,,82,127
109351,note_on,0,0,0,,0,,,84,127
109351,note_on,0,0,0,,4,,,64,127
109351,note_on,0,0,0,,11,,,70,127
109351,note_on,0,0,0,,0,,,72,127
109485,note_off,134,0,0,,0,,,84,127
109485,note_on,0,0,0,,11,,,82,127
109552,note_off,67,0,0,,11,,,82,127
109552,note_on,0,0,0,,0,,,84,127
109619,note_off,67,0,0,,0,,,84,127
109619,note_off,0,0,0,,0,,,72,127
109619,note_off,0,0,0,,11,,,70,127
109619,note_off,0,0,0,,4,,,64,127
109619,note_on,0,0,0,,11,,,82,127
109619,note_on,0,0,0,,4,,,64,127
109619,note_on,0,0,0,,11,,,70,127
109619,note_on,0,0,0,,0,,,72,127
109686,note_off,67,0,0,,11,,,82,127
109686,note_on,0,0,0,,0,,,84,127
109753,note_off,67,0,0,,0,,,84,127
109753,note_on,0,0,0,,11,,,82,127
109820,note_off,67,0,0,,11,,,82,127
109820,note_on,0,0,0,,0,,,84,127
109887,note_off,67,0,0,,0,,,84,127
109887,note_off,0,0,0,,0,,,72,127
109887,note_off,0,0,0,,11,,,70,127
109887,note_off,0,0,0,,4,,,64,127
109887,note_on,0,0,0,,11,,,82,127
109887,note_on,0,0,0,,4,,,64,127
109887,note_on,0,0,0,,11,,,70,127
109887,note_on,0,0,0,,0,,,72,127
110155,note_off,268,0,0,,0,,,72,127
110155,note_off,0,0,0,,11,,,70,127
110155,note_off,0,0,0,,4,,,64,127
110155,note_off,0,0,0,,11,,,82,127
110155,note_on,0,0,0,,8,,,80,127
110155,note_on,0,0,0,,4,,,64,127
110155,note_on,0,0,0,,11,,,70,127
110155,note_on,0,0,0,,0,,,72,127
110289,note_off,134,0,0,,8,,,80,127
110289,note_on,0,0,0,,11,,,82,127
110423,note_off,134,0,0,,11,,,82,127
110423,note_off,0,0,0,,0,,,72,127
110423,note_off,0,0,0,,11,,,70,127
110423,note_off,0,0,0,,4,,,64,127
110423,note_on,0,0,0,,0,,,84,127
110423,note_on,0,0,0,,4,,,64,127
110423,note_on,0,0,0,,0,,,72,127
110423,note_on,0,0,0,,11,,,70,127
110557,note_off,134,0,0,,0,,,84,127
110557,note_on,0,0,0,,11,,,82,127
110691,note_off,134,0,0,,11,,,82,127
110691,note_off,0,0,0,,11,,,70,127
110691,note_off,0,0,0,,0,,,72,127
110691,note_off,0,0,0,,4,,,64,127
110691,note_on,0,0,0,,8,,,80,127
110691,note_on,0,0,0,,4,,,64,127
110691,note_on,0,0,0,,11,,,70,127
110691,note_on,0,0,0,,0,,,72,127
110825,note_off,134,0,0,,8,,,80,127
110825,note_on,0,0,0,,7,,,79,127
110959,note_off,134,0,0,,7,,,79,127
110959,note_off,0,0,0,,0,,,72,127
110959,note_off,0,0,0,,11,,,70,127
110959,note_off,0,0,0,,4,,,64,127
110959,note_on,0,0,0,,11,,,82,127
110959,note_on,0,0,0,,8,,,80,127
110959,note_on,0,0,0,,8,,,68,127
110959,note_on,0,0,0,,5,,,65,127
111093,note_off,134,0,0,,8,,,80,127
111093,note_off,0,0,0,,11,,,82,127
111093,note_on,0,0,0,,7,,,79,127
111227,note_off,134,0,0,,7,,,79,127
111227,note_off,0,0,0,,5,,,65,127
111227,note_off,0,0,0,,8,,,68,127
111227,note_on,0,0,0,,8,,,80,127
111227,note_on,0,0,0,,5,,,65,127
111227,note_on,0,0,0,,8,,,68,127
111495,note_off,268,0,0,,8,,,68,127
111495,note_off,0,0,0,,5,,,65,127
111495,note_off,0,0,0,,8,,,80,127
111495,note_on,0,0,0,,11,,,82,127
111495,note_on,0,0,0,,8,,,80,127
111495,note_on,0,0,0,,1,,,61,127
111495,note_on,0,0,0,,8,,,68,127
111495,note_on,0,0,0,,5,,,65,127
111629,note_off,134,0,0,,8,,,80,127
111629,note_off,0,0,0,,11,,,82,127
111629,note_on,0,0,0,,7,,,79,127
111763,note_off,134,0,0,,7,,,79,127
111763,note_off,0,0,0,,5,,,65,127
111763,note_off,0,0,0,,8,,,68,127
111763,note_off,0,0,0,,1,,,61,127
111763,note_on,0,0,0,,8,,,80,127
111763,note_on,0,0,0,,1,,,61,127
111763,note_on,0,0,0,,5,,,65,127
111763,note_on,0,0,0,,8,,,68,127
112031,note_off,268,0,0,,8,,,68,127
112031,note_off,0,0,0,,5,,,65,127
112031,note_off,0,0,0,,1,,,61,127
112031,note_off,0,0,0,,8,,,80,127
112031,note_on,0,0,0,,11,,,82,127
112031,note_on,0,0,0,,8,,,80,127
112031,note_on,0,0,0,,3,,,63,127
112031,note_on,0,0,0,,0,,,60,127
112031,note_on,0,0,0,,8,,,68,127
112165,note_off,134,0,0,,8,,,80,127
112165,note_off,0,0,0,,11,,,82,127
112165,note_on,0,0,0,,7,,,79,127
112299,note_off,134,0,0,,7,,,79,127
112299,note_off,0,0,0,,8,,,68,127
112299,note_off,0,0,0,,0,,,60,127
112299,note_off,0,0,0,,3,,,63,127
112299,note_on,0,0,0,,8,,,80,127
112299,note_on,0,0,0,,3,,,63,127
112299,note_on,0,0,0,,0,,,60,127
112299,note_on,0,0,0,,8,,,68,127
112567,note_off,268,0,0,,8,,,68,127
112567,note_off,0,0,0,,0,,,60,127
112567,note_off,0,0,0,,3,,,63,127
112567,note_off,0,0,0,,8,,,80,127
112567,note_on,0,0,0,,11,,,82,127
112567,note_on,0,0,0,,8,,,80,127
112567,note_on,0,0,0,,5,,,65,127
112567,note_on,0,0,0,,1,,,61,127
112701,note_off,134,0,0,,8,,,80,127
112701,note_off,0,0,0,,11,,,82,127
112701,note_on,0,0,0,,7,,,79,127
112835,note_off,134,0,0,,7,,,79,127
112835,note_off,0,0,0,,1,,,61,127
112835,note_off,0,0,0,,5,,,65,127
112835,note_on,0,0,0,,8,,,80,127
112835,note_on,0,0,0,,1,,,61,127
112835,note_on,0,0,0,,5,,,65,127
113103,note_off,268,0,0,,5,,,65,127
113103,note_off,0,0,0,,1,,,61,127
113103,note_off,0,0,0,,8,,,80,127
113103,note_on,0,0,0,,11,,,82,127
113103,note_on,0,0,0,,7,,,55,127
113103,note_on,0,0,0,,3,,,63,127
113237,note_off,134,0,0,,11,,,82,127
113237,note_on,0,0,0,,8,,,80,127
113371,note_off,134,0,0,,8,,,80,127
113371,note_off,0,0,0,,3,,,63,127
113371,note_off,0,0,0,,7,,,55,127
113371,note_on,0,0,0,,7,,,79,127
113371,note_on,0,0,0,,7,,,55,127
113371,note_on,0,0,0,,3,,,63,127
113505,note_off,134,0,0,,7,,,79,127
113505,note_on,0,0,0,,5,,,77,127
113639,note_off,134,0,0,,5,,,77,127
113639,note_off,0,0,0,,3,,,63,127
113639,note_off,0,0,0,,7,,,55,127
113639,note_on,0,0,0,,3,,,75,127
113639,note_on,0,0,0,,3,,,51,127
113773,note_off,134,0,0,,3,,,75,127
113773,note_on,0,0,0,,1,,,73,127
113907,note_off,134,0,0,,1,,,73,127
113907,note_off,0,0,0,,3,,,51,127
113907,note_on,0,0,0,,0,,,72,127
113907,note_on,0,0,0,,3,,,51,127
114041,note_off,134,0,0,,0,,,72,127
114041,note_on,0,0,0,,12,,,71,127
114175,note_off,134,0,0,,12,,,71,127
114175,note_off,0,0,0,,3,,,51,127
114175,note_on,0,0,0,,0,,,72,127
114175,note_on,0,0,0,,2,,,74,127
114175,note_on,0,0,0,,8,,,56,127
114175,note_on,0,0,0,,5,,,65,127
114309,note_off,134,0,0,,2,,,74,127
114309,note_off,0,0,0,,0,,,72,127
114309,note_on,0,0,0,,12,,,71,127
114443,note_off,134,0,0,,12,,,71,127
114443,note_off,0,0,0,,5,,,65,127
114443,note_off,0,0,0,,8,,,56,127
114443,note_on,0,0,0,,0,,,72,127
114443,note_on,0,0,0,,5,,,65,127
114443,note_on,0,0,0,,8,,,56,127
114711,note_off,268,0,0,,8,,,56,127
114711,note_off,0,0,0,,5,,,65,127
114711,note_off,0,0,0,,0,,,72,127
114711,note_on,0,0,0,,2,,,74,127
114711,note_on,0,0,0,,0,,,72,127
114711,note_on,0,0,0,,8,,,56,127
114711,note_on,0,0,0,,5,,,65,127
114845,note_off,134,0,0,,0,,,72,127
114845,note_off,0,0,0,,2,,,74,127
114845,note_on,0,0,0,,12,,,71,127
114979,note_off,134,0,0,,12,,,71,127
114979,note_off,0,0,0,,5,,,65,127
114979,note_off,0,0,0,,8,,,56,127
114979,note_on,0,0,0,,0,,,72,127
114979,note_on,0,0,0,,3,,,63,127
114979,note_on,0,0,0,,7,,,55,127
115247,note_off,268,0,0,,7,,,55,127
115247,note_off,0,0,0,,3,,,63,127
115247,note_off,0,0,0,,0,,,72,127
115247,note_on,0,0,0,,2,,,74,127
115247,note_on,0,0,0,,0,,,72,127
115247,note_on,0,0,0,,3,,,63,127
115247,note_on,0,0,0,,7,,,55,127
115381,note_off,134,0,0,,0,,,72,127
115381,note_off,0,0,0,,2,,,74,127
115381,note_on,0,0,0,,12,,,71,127
115515,note_off,134,0,0,,12,,,71,127
115515,note_off,0,0,0,,7,,,55,127
115515,note_off,0,0,0,,3,,,63,127
115515,note_on,0,0,0,,0,,,72,127
115515,note_on,0,0,0,,7,,,55,127
115515,note_on,0,0,0,,3,,,63,127
115783,note_off,268,0,0,,3,,,63,127
115783,note_off,0,0,0,,7,,,55,127
115783,note_off,0,0,0,,0,,,72,127
115783,note_on,0,0,0,,2,,,74,127
115783,note_on,0,0,0,,0,,,72,127
115783,note_on,0,0,0,,6,,,54,127
115783,note_on,0,0,0,,2,,,62,127
115783,note_on,0,0,0,,0,,,60,127
115917,note_off,134,0,0,,0,,,72,127
115917,note_off,0,0,0,,2,,,74,127
115917,note_on,0,0,0,,12,,,71,127
116051,note_off,134,0,0,,12,,,71,127
116051,note_off,0,0,0,,0,,,60,127
116051,note_off,0,0,0,,2,,,62,127
116051,note_off,0,0,0,,6,,,54,127
116051,note_on,0,0,0,,0,,,72,127
116051,note_on,0,0,0,,6,,,54,127
116051,note_on,0,0,0,,2,,,62,127
116051,note_on,0,0,0,,0,,,60,127
116319,note_off,268,0,0,,0,,,60,127
116319,note_off,0,0,0,,2,,,62,127
116319,note_off,0,0,0,,6,,,54,127
116319,note_on,0,0,0,,6,,,54,127
116319,note_on,0,0,0,,0,,,60,127
116319,note_on,0,0,0,,2,,,62,127
116587,note_off,268,0,0,,2,,,62,127
116587,note_off,0,0,0,,0,,,60,127
116587,note_off,0,0,0,,6,,,54,127
116587,note_off,0,0,0,,0,,,72,127
116587,note_on,0,0,0,,2,,,74,127
116587,note_on,0,0,0,,6,,,54,127
116587,note_on,0,0,0,,0,,,60,127
116587,note_on,0,0,0,,2,,,62,127
116721,note_off,134,0,0,,2,,,74,127
116721,note_on,0,0,0,,3,,,75,127
116855,note_off,134,0,0,,3,,,75,127
116855,note_off,0,0,0,,2,,,62,127
116855,note_off,0,0,0,,0,,,60,127
116855,note_off,0,0,0,,6,,,54,127
116855,note_on,0,0,0,,3,,,75,127
116855,note_on,0,0,0,,6,,,54,127
116855,note_on,0,0,0,,2,,,62,127
116855,note_on,0,0,0,,0,,,60,127
116989,note_off,134,0,0,,3,,,75,127
116989,note_on,0,0,0,,2,,,74,127
117123,note_off,134,0,0,,2,,,74,127
117123,note_off,0,0,0,,0,,,60,127
117123,note_off,0,0,0,,2,,,62,127
117123,note_off,0,0,0,,6,,,54,127
117123,note_on,0,0,0,,2,,,74,127
117123,note_on,0,0,0,,6,,,54,127
117123,note_on,0,0,0,,2,,,62,127
117123,note_on,0,0,0,,0,,,60,127
117257,note_off,134,0,0,,2,,,74,127
117257,note_on,0,0,0,,0,,,72,127
117391,note_off,134,0,0,,0,,,72,127
117391,note_off,0,0,0,,0,,,60,127
117391,note_off,0,0,0,,2,,,62,127
117391,note_off,0,0,0,,6,,,54,127
117391,note_on,0,0,0,,8,,,80,127
117391,note_on,0,0,0,,5,,,53,127
117391,note_on,0,0,0,,12,,,59,127
117391,note_on,0,0,0,,0,,,60,127
117391,note_on,0,0,0,,2,,,62,127
117592,note_off,201,0,0,,0,,,60,127
117659,note_off,67,0,0,,2,,,62,127
117659,note_off,0,0,0,,12,,,59,127
117659,note_off,0,0,0,,5,,,53,127
117659,note_off,0,0,0,,8,,,80,127
117659,note_on,0,0,0,,7,,,79,127
117659,note_on,0,0,0,,5,,,53,127
117659,note_on,0,0,0,,12,,,59,127
117659,note_on,0,0,0,,0,,,60,127
117659,note_on,0,0,0,,2,,,62,127
117793,note_off,134,0,0,,7,,,79,127
117793,note_on,0,0,0,,5,,,77,127
117860,note_off,67,0,0,,0,,,60,127
117927,note_off,67,0,0,,5,,,77,127
117927,note_off,0,0,0,,2,,,62,127
117927,note_off,0,0,0,,12,,,59,127
117927,note_off,0,0,0,,5,,,53,127
117927,note_on,0,0,0,,3,,,75,127
117927,note_on,0,0,0,,12,,,59,127
117927,note_on,0,0,0,,5,,,53,127
117927,note_on,0,0,0,,0,,,60,127
117927,note_on,0,0,0,,2,,,62,127
118061,note_off,134,0,0,,3,,,75,127
118061,note_on,0,0,0,,2,,,74,127
118128,note_off,67,0,0,,0,,,60,127
118195,note_off,67,0,0,,2,,,74,127
118195,note_off,0,0,0,,2,,,62,127
118195,note_off,0,0,0,,5,,,53,127
118195,note_off,0,0,0,,12,,,59,127
118195,note_on,0,0,0,,0,,,72,127
118195,note_on,0,0,0,,12,,,59,127
118195,note_on,0,0,0,,5,,,53,127
118195,note_on,0,0,0,,0,,,60,127
118195,note_on,0,0,0,,2,,,62,127
118329,note_off,134,0,0,,0,,,72,127
118329,note_on,0,0,0,,12,,,71,127
118396,note_off,67,0,0,,0,,,60,127
118463,note_off,67,0,0,,12,,,71,127
118463,note_off,0,0,0,,2,,,62,127
118463,note_off,0,0,0,,5,,,53,127
118463,note_off,0,0,0,,12,,,59,127
118463,note_on,0,0,0,,12,,,71,127
118463,note_on,0,0,0,,3,,,51,127
118463,note_on,0,0,0,,0,,,60,127
118463,note_on,0,0,0,,7,,,55,127
118597,note_off,134,0,0,,12,,,71,127
118597,note_on,0,0,0,,0,,,72,127
118731,note_off,134,0,0,,0,,,72,127
118731,note_off,0,0,0,,7,,,55,127
118731,note_off,0,0,0,,0,,,60,127
118731,note_off,0,0,0,,3,,,51,127
118731,note_on,0,0,0,,2,,,74,127
118731,note_on,0,0,0,,3,,,51,127
118731,note_on,0,0,0,,0,,,60,127
118731,note_on,0,0,0,,7,,,55,127
118865,note_off,134,0,0,,2,,,74,127
118865,note_on,0,0,0,,3,,,75,127
118999,note_off,134,0,0,,3,,,75,127
118999,note_off,0,0,0,,7,,,55,127
118999,note_off,0,0,0,,0,,,60,127
118999,note_off,0,0,0,,3,,,51,127
118999,note_on,0,0,0,,3,,,75,127
118999,note_on,0,0,0,,7,,,55,127
118999,note_on,0,0,0,,2,,,50,127
118999,note_on,0,0,0,,5,,,53,127
118999,note_on,0,0,0,,12,,,59,127
119133,note_off,134,0,0,,3,,,75,127
119133,note_on,0,0,0,,2,,,74,127
119200,note_off,67,0,0,,5,,,53,127
119267,note_off,67,0,0,,2,,,74,127
119267,note_off,0,0,0,,12,,,59,127
119267,note_off,0,0,0,,2,,,50,127
119267,note_off,0,0,0,,7,,,55,127
119267,note_on,0,0,0,,3,,,75,127
119267,note_on,0,0,0,,5,,,53,127
119267,note_on,0,0,0,,2,,,50,127
119267,note_on,0,0,0,,7,,,55,127
119267,note_on,0,0,0,,12,,,59,127
119401,note_off,134,0,0,,3,,,75,127
119401,note_on,0,0,0,,5,,,77,127
119468,note_off,67,0,0,,5,,,53,127
119535,note_off,67,0,0,,5,,,77,127
119535,note_off,0,0,0,,12,,,59,127
119535,note_off,0,0,0,,7,,,55,127
119535,note_off,0,0,0,,2,,,50,127
119535,note_on,0,0,0,,5,,,77,127
119535,note_on,0,0,0,,7,,,55,127
119535,note_on,0,0,0,,0,,,60,127
119535,note_on,0,0,0,,0,,,48,127
119669,note_off,134,0,0,,5,,,77,127
119669,note_on,0,0,0,,3,,,75,127
119803,note_off,134,0,0,,3,,,75,127
119803,note_off,0,0,0,,0,,,48,127
119803,note_off,0,0,0,,0,,,60,127
119803,note_off,0,0,0,,7,,,55,127
119803,note_on,0,0,0,,5,,,77,127
119803,note_on,0,0,0,,0,,,48,127
119803,note_on,0,0,0,,7,,,55,127
119803,note_on,0,0,0,,0,,,60,127
119937,note_off,134,0,0,,5,,,77,127
119937,note_on,0,0,0,,7,,,79,127
120071,note_off,134,0,0,,7,,,79,127
120071,note_off,0,0,0,,0,,,60,127
120071,note_off,0,0,0,,7,,,55,127
120071,note_off,0,0,0,,0,,,48,127
120071,note_on,0,0,0,,5,,,77,127
120071,note_on,0,0,0,,8,,,56,127
120071,note_on,0,0,0,,0,,,60,127
120205,note_off,134,0,0,,5,,,77,127
120205,note_on,0,0,0,,3,,,75,127
120339,note_off,134,0,0,,3,,,75,127
120339,note_on,0,0,0,,2,,,74,127
120339,note_on,0,0,0,,5,,,53,127
120473,note_off,134,0,0,,2,,,74,127
120473,note_on,0,0,0,,0,,,72,127
120607,note_off,134,0,0,,0,,,72,127
120607,note_off,0,0,0,,5,,,53,127
120607,note_off,0,0,0,,0,,,60,127
120607,note_off,0,0,0,,8,,,56,127
120607,note_on,0,0,0,,12,,,71,127
120607,note_on,0,0,0,,7,,,43,127
120741,note_off,134,0,0,,12,,,71,127
120741,note_on,0,0,0,,7,,,67,127
120875,note_off,134,0,0,,7,,,67,127
120875,note_on,0,0,0,,5,,,65,127
120875,note_on,0,0,0,,7,,,55,127
121009,note_off,134,0,0,,5,,,65,127
121009,note_on,0,0,0,,7,,,67,127
121143,note_off,134,0,0,,7,,,67,127
121143,note_off,0,0,0,,7,,,55,127
121143,note_on,0,0,0,,8,,,68,127
121143,note_on,0,0,0,,5,,,53,127
121277,note_off,134,0,0,,8,,,68,127
121277,note_on,0,0,0,,5,,,65,127
121411,note_off,134,0,0,,5,,,65,127
121411,note_off,0,0,0,,5,,,53,127
121411,note_off,0,0,0,,7,,,43,127
121411,note_on,0,0,0,,12,,,71,127
121411,note_on,0,0,0,,2,,,50,127
121411,note_on,0,0,0,,12,,,59,127
121545,note_off,134,0,0,,12,,,71,127
121545,note_on,0,0,0,,5,,,65,127
121679,note_off,134,0,0,,5,,,65,127
121679,note_off,0,0,0,,12,,,59,127
121679,note_off,0,0,0,,2,,,50,127
121679,note_on,0,0,0,,0,,,72,127
121679,note_on,0,0,0,,0,,,60,127
121679,note_on,0,0,0,,3,,,51,127
121813,note_off,134,0,0,,0,,,72,127
121813,note_on,0,0,0,,8,,,68,127
121947,note_off,134,0,0,,8,,,68,127
121947,note_off,0,0,0,,0,,,60,127
121947,note_on,0,0,0,,5,,,77,127
121947,note_on,0,0,0,,8,,,44,127
122081,note_off,134,0,0,,5,,,77,127
122081,note_on,0,0,0,,0,,,72,127
122209,note_off,128,0,0,,3,,,51,127
122215,note_off,6,0,0,,0,,,72,127
122215,note_off,0,0,0,,8,,,44,127
122215,note_on,0,0,0,,7,,,79,127
122215,note_on,0,0,0,,7,,,43,127
122215,note_on,0,0,0,,7,,,55,127
122215,note_on,0,0,0,,2,,,50,127
122349,note_off,134,0,0,,7,,,79,127
122349,note_on,0,0,0,,2,,,74,127
122483,note_off,134,0,0,,2,,,74,127
122483,note_off,0,0,0,,2,,,50,127
122483,note_off,0,0,0,,7,,,55,127
122483,note_on,0,0,0,,12,,,71,127
122483,note_on,0,0,0,,7,,,55,127
122617,note_off,134,0,0,,12,,,71,127
122617,note_on,0,0,0,,7,,,67,127
122751,note_off,134,0,0,,7,,,67,127
122751,note_off,0,0,0,,7,,,55,127
122751,note_on,0,0,0,,8,,,68,127
122751,note_on,0,0,0,,5,,,53,127
122885,note_off,134,0,0,,8,,,68,127
122885,note_on,0,0,0,,5,,,65,127
123019,note_off,134,0,0,,5,,,65,127
123019,note_off,0,0,0,,5,,,53,127
123019,note_off,0,0,0,,7,,,43,127
123019,note_on,0,0,0,,12,,,71,127
123019,note_on,0,0,0,,12,,,59,127
123019,note_on,0,0,0,,2,,,50,127
123153,note_off,134,0,0,,12,,,71,127
123153,note_on,0,0,0,,5,,,65,127
123287,note_off,134,0,0,,5,,,65,127
123287,note_off,0,0,0,,2,,,50,127
123287,note_off,0,0,0,,12,,,59,127
123287,note_on,0,0,0,,0,,,72,127
123287,note_on,0,0,0,,3,,,51,127
123287,note_on,0,0,0,,0,,,60,127
123421,note_off,134,0,0,,0,,,72,127
123421,note_on,0,0,0,,8,,,68,127
123555,note_off,134,0,0,,8,,,68,127
123555,note_off,0,0,0,,0,,,60,127
123555,note_on,0,0,0,,5,,,77,127
123555,note_on,0,0,0,,8,,,44,127
123689,note_off,134,0,0,,5,,,77,127
123689,note_on,0,0,0,,0,,,72,127
123817,note_off,128,0,0,,3,,,51,127
123823,note_off,6,0,0,,0,,,72,127
123823,note_off,0,0,0,,8,,,44,127
123823,note_on,0,0,0,,7,,,79,127
123823,note_on,0,0,0,,7,,,43,127
123823,note_on,0,0,0,,7,,,55,127
123823,note_on,0,0,0,,0,,,48,127
123823,note_on,0,0,0,,2,,,50,127
123890,note_off,67,0,0,,0,,,48,127
123957,note_off,67,0,0,,7,,,79,127
123957,note_on,0,0,0,,2,,,74,127
124091,note_off,134,0,0,,2,,,74,127
124091,note_off,0,0,0,,2,,,50,127
124091,note_off,0,0,0,,7,,,55,127
124091,note_on,0,0,0,,12,,,71,127
124091,note_on,0,0,0,,7,,,55,127
124225,note_off,134,0,0,,12,,,71,127
124225,note_on,0,0,0,,7,,,67,127
124359,note_off,134,0,0,,7,,,67,127
124359,note_off,0,0,0,,7,,,55,127
124359,note_off,0,0,0,,7,,,43,127
124359,note_on,0,0,0,,8,,,68,127
124359,note_on,0,0,0,,5,,,53,127
124493,note_off,134,0,0,,8,,,68,127
124493,note_on,0,0,0,,5,,,65,127
124627,note_off,134,0,0,,5,,,65,127
124627,note_off,0,0,0,,5,,,53,127
124627,note_on,0,0,0,,12,,,71,127
124627,note_on,0,0,0,,12,,,59,127
124627,note_on,0,0,0,,2,,,50,127
124761,note_off,134,0,0,,12,,,71,127
124761,note_on,0,0,0,,5,,,65,127
124895,note_off,134,0,0,,5,,,65,127
124895,note_off,0,0,0,,2,,,50,127
124895,note_off,0,0,0,,12,,,59,127
124895,note_on,0,0,0,,0,,,72,127
124895,note_on,0,0,0,,3,,,51,127
124895,note_on,0,0,0,,0,,,60,127
125029,note_off,134,0,0,,0,,,72,127
125029,note_on,0,0,0,,8,,,68,127
125163,note_off,134,0,0,,8,,,68,127
125163,note_off,0,0,0,,0,,,60,127
125163,note_off,0,0,0,,3,,,51,127
125163,note_on,0,0,0,,5,,,77,127
125163,note_on,0,0,0,,8,,,44,127
125297,note_off,134,0,0,,5,,,77,127
125297,note_on,0,0,0,,0,,,72,127
125431,note_off,134,0,0,,0,,,72,127
125431,note_off,0,0,0,,8,,,44,127
125431,note_on,0,0,0,,7,,,79,127
125431,note_on,0,0,0,,0,,,48,127
125431,note_on,0,0,0,,7,,,43,127
125431,note_on,0,0,0,,2,,,50,127
125431,note_on,0,0,0,,7,,,55,127
125565,note_off,134,0,0,,0,,,48,127
125565,note_off,0,0,0,,7,,,79,127
125565,note_on,0,0,0,,2,,,74,127
125699,note_off,134,0,0,,2,,,74,127
125699,note_on,0,0,0,,12,,,71,127
125833,note_off,134,0,0,,12,,,71,127
125833,note_on,0,0,0,,7,,,67,127
125967,note_off,134,0,0,,7,,,67,127
125967,note_off,0,0,0,,7,,,55,127
125967,note_off,0,0,0,,2,,,50,127
125967,note_on,0,0,0,,2,,,62,127
126101,note_off,134,0,0,,2,,,62,127
126101,note_on,0,0,0,,12,,,59,127
126235,note_off,134,0,0,,12,,,59,127
126235,note_on,0,0,0,,7,,,55,127
126369,note_off,134,0,0,,7,,,55,127
126369,note_on,0,0,0,,2,,,50,127
126502,note_off,133,0,0,,7,,,43,127
126503,note_off,1,0,0,,2,,,50,127
126503,note_on,0,0,0,,12,,,47,127
126637,note_off,134,0,0,,12,,,47,127
126637,note_on,0,0,0,,7,,,43,127
126771,note_off,134,0,0,,7,,,43,127
126771,note_on,0,0,0,,2,,,38,127
126905,note_on,134,0,0,,12,,,35,127
127039,note_off,134,0,0,,12,,,35,127
127039,note_on,0,0,0,,7,,,31,127
128041,note_off,1002,0,0,,2,,,38,127
128111,note_off,70,0,0,,7,,,31,127
128647,note_on,536,0,0,,4,,,64,127
128647,note_on,0,0,0,,0,,,60,127
128781,note_on,134,0,0,,7,,,67,127
128915,note_off,134,0,0,,7,,,67,127
128915,note_off,0,0,0,,0,,,60,127
128915,note_off,0,0,0,,4,,,64,127
128915,note_on,0,0,0,,10,,,69,127
128915,note_on,0,0,0,,0,,,60,127
128915,note_on,0,0,0,,4,,,64,127
128982,note_off,67,0,0,,10,,,69,127
128982,note_on,0,0,0,,12,,,71,127
129049,note_off,67,0,0,,12,,,71,127
129049,note_on,0,0,0,,0,,,72,127
129116,note_off,67,0,0,,0,,,72,127
129116,note_on,0,0,0,,2,,,74,127
129183,note_off,67,0,0,,2,,,74,127
129183,note_off,0,0,0,,4,,,64,127
129183,note_off,0,0,0,,0,,,60,127
129183,note_on,0,0,0,,4,,,76,127
129183,note_on,0,0,0,,4,,,64,127
129183,note_on,0,0,0,,0,,,60,127
129451,note_off,268,0,0,,0,,,60,127
129451,note_off,0,0,0,,4,,,64,127
129451,note_on,0,0,0,,4,,,64,127
129451,note_on,0,0,0,,0,,,60,127
129719,note_off,268,0,0,,0,,,60,127
129719,note_off,0,0,0,,4,,,64,127
129719,note_on,0,0,0,,7,,,55,127
129719,note_on,0,0,0,,2,,,62,127
129853,note_off,134,0,0,,4,,,76,127
129853,note_on,0,0,0,,5,,,77,127
129987,note_off,134,0,0,,5,,,77,127
129987,note_off,0,0,0,,2,,,62,127
129987,note_off,0,0,0,,7,,,55,127
129987,note_on,0,0,0,,2,,,74,127
129987,note_on,0,0,0,,2,,,62,127
129987,note_on,0,0,0,,7,,,55,127
130121,note_off,134,0,0,,2,,,74,127
130121,note_on,0,0,0,,12,,,71,127
130255,note_off,134,0,0,,12,,,71,127
130255,note_off,0,0,0,,7,,,55,127
130255,note_off,0,0,0,,2,,,62,127
130255,note_on,0,0,0,,0,,,72,127
130255,note_on,0,0,0,,0,,,60,127
130255,note_on,0,0,0,,4,,,64,127
130389,note_off,134,0,0,,0,,,72,127
130389,note_on,0,0,0,,7,,,67,127
130523,note_off,134,0,0,,7,,,67,127
130523,note_off,0,0,0,,4,,,64,127
130523,note_off,0,0,0,,0,,,60,127
130523,note_on,0,0,0,,10,,,69,127
130523,note_on,0,0,0,,4,,,64,127
130523,note_on,0,0,0,,0,,,60,127
130590,note_off,67,0,0,,10,,,69,127
130590,note_on,0,0,0,,12,,,71,127
130657,note_off,67,0,0,,12,,,71,127
130657,note_on,0,0,0,,0,,,72,127
130724,note_off,67,0,0,,0,,,72,127
130724,note_on,0,0,0,,2,,,74,127
130791,note_off,67,0,0,,2,,,74,127
130791,note_off,0,0,0,,0,,,60,127
130791,note_off,0,0,0,,4,,,64,127
130791,note_on,0,0,0,,4,,,76,127
130791,note_on,0,0,0,,4,,,64,127
130791,note_on,0,0,0,,0,,,60,127
131059,note_off,268,0,0,,0,,,60,127
131059,note_off,0,0,0,,4,,,64,127
131059,note_on,0,0,0,,4,,,64,127
131059,note_on,0,0,0,,0,,,60,127
131327,note_off,268,0,0,,0,,,60,127
131327,note_off,0,0,0,,4,,,64,127
131327,note_on,0,0,0,,2,,,62,127
131327,note_on,0,0,0,,7,,,55,127
131405,note_off,78,0,0,,4,,,76,127
131461,note_on,56,0,0,,5,,,77,127
131528,note_off,67,0,0,,5,,,77,127
131528,note_on,0,0,0,,4,,,76,127
131595,note_off,67,0,0,,4,,,76,127
131595,note_off,0,0,0,,7,,,55,127
131595,note_off,0,0,0,,2,,,62,127
131595,note_on,0,0,0,,2,,,74,127
131595,note_on,0,0,0,,2,,,62,127
131595,note_on,0,0,0,,7,,,55,127
131729,note_off,134,0,0,,2,,,74,127
131729,note_on,0,0,0,,0,,,72,127
131796,note_off,67,0,0,,0,,,72,127
131796,note_on,0,0,0,,12,,,71,127
131863,note_off,67,0,0,,7,,,55,127
131863,note_off,0,0,0,,2,,,62,127
131863,note_on,0,0,0,,5,,,53,127
131863,note_on,0,0,0,,0,,,60,127
131896,note_off,33,0,0,,12,,,71,127
131996,note_on,100,0,0,,0,,,72,127
132130,note_off,134,0,0,,0,,,72,127
132130,note_off,0,0,0,,0,,,60,127
132130,note_off,0,0,0,,5,,,53,127
132130,note_on,0,0,0,,2,,,74,127
132130,note_on,0,0,0,,0,,,60,127
132130,note_on,0,0,0,,5,,,53,127
132197,note_off,67,0,0,,2,,,74,127
132197,note_on,0,0,0,,4,,,76,127
132264,note_off,67,0,0,,4,,,76,127
132264,note_on,0,0,0,,5,,,77,127
132331,note_off,67,0,0,,5,,,77,127
132331,note_on,0,0,0,,7,,,79,127
132398,note_off,67,0,0,,7,,,79,127
132398,note_off,0,0,0,,5,,,53,127
132398,note_off,0,0,0,,0,,,60,127
132398,note_on,0,0,0,,10,,,81,127
132398,note_on,0,0,0,,5,,,53,127
132398,note_on,0,0,0,,0,,,60,127
132666,note_off,268,0,0,,0,,,60,127
132666,note_off,0,0,0,,5,,,53,127
132666,note_on,0,0,0,,5,,,53,127
132666,note_on,0,0,0,,0,,,60,127
132934,note_off,268,0,0,,0,,,60,127
132934,note_off,0,0,0,,5,,,53,127
132934,note_on,0,0,0,,4,,,52,127
132934,note_on,0,0,0,,0,,,60,127
133068,note_off,134,0,0,,10,,,81,127
133068,note_on,0,0,0,,12,,,83,127
133202,note_off,134,0,0,,12,,,83,127
133202,note_off,0,0,0,,0,,,60,127
133202,note_off,0,0,0,,4,,,52,127
133202,note_on,0,0,0,,0,,,84,127
133202,note_on,0,0,0,,4,,,52,127
133202,note_on,0,0,0,,0,,,60,127
133336,note_off,134,0,0,,0,,,84,127
133336,note_on,0,0,0,,7,,,79,127
133470,note_off,134,0,0,,0,,,60,127
133470,note_off,0,0,0,,4,,,52,127
133470,note_on,0,0,0,,5,,,53,127
133470,note_on,0,0,0,,0,,,60,127
133604,note_off,134,0,0,,7,,,79,127
133604,note_on,0,0,0,,0,,,84,127
133738,note_off,134,0,0,,0,,,84,127
133738,note_on,0,0,0,,10,,,81,127
133872,note_off,134,0,0,,10,,,81,127
133872,note_on,0,0,0,,8,,,80,127
134006,note_off,134,0,0,,8,,,80,127
134006,note_off,0,0,0,,0,,,60,127
134006,note_off,0,0,0,,5,,,53,127
134006,note_on,0,0,0,,8,,,80,127
134006,note_on,0,0,0,,2,,,62,127
134006,note_on,0,0,0,,5,,,53,127
134140,note_off,134,0,0,,8,,,80,127
134140,note_on,0,0,0,,10,,,81,127
134274,note_off,134,0,0,,10,,,81,127
134274,note_on,0,0,0,,5,,,77,127
134408,note_off,134,0,0,,5,,,77,127
134408,note_on,0,0,0,,4,,,76,127
134542,note_off,134,0,0,,4,,,76,127
134542,note_off,0,0,0,,5,,,53,127
134542,note_off,0,0,0,,2,,,62,127
134542,note_on,0,0,0,,4,,,76,127
134542,note_on,0,0,0,,5,,,53,127
134542,note_on,0,0,0,,4,,,64,127
134676,note_off,134,0,0,,4,,,76,127
134676,note_on,0,0,0,,5,,,77,127
134810,note_off,134,0,0,,5,,,77,127
134810,note_on,0,0,0,,2,,,74,127
134944,note_off,134,0,0,,2,,,74,127
134944,note_on,0,0,0,,1,,,73,127
135078,note_off,134,0,0,,1,,,73,127
135078,note_off,0,0,0,,4,,,64,127
135078,note_off,0,0,0,,5,,,53,127
135078,note_on,0,0,0,,1,,,73,127
135078,note_on,0,0,0,,5,,,53,127
135078,note_on,0,0,0,,5,,,65,127
135212,note_off,134,0,0,,1,,,73,127
135212,note_on,0,0,0,,2,,,74,127
135346,note_off,134,0,0,,2,,,74,127
135346,note_on,0,0,0,,10,,,69,127
135480,note_off,134,0,0,,10,,,69,127
135480,note_on,0,0,0,,8,,,68,127
135614,note_off,134,0,0,,8,,,68,127
135614,note_off,0,0,0,,5,,,65,127
135614,note_off,0,0,0,,5,,,53,127
135614,note_on,0,0,0,,8,,,68,127
135614,note_on,0,0,0,,5,,,53,127
135748,note_off,134,0,0,,8,,,68,127
135748,note_on,0,0,0,,10,,,69,127
135882,note_off,134,0,0,,10,,,69,127
135882,note_on,0,0,0,,5,,,65,127
136016,note_off,134,0,0,,5,,,65,127
136016,note_on,0,0,0,,4,,,64,127
136150,note_off,134,0,0,,4,,,64,127
136150,note_off,0,0,0,,5,,,53,127
136150,note_on,0,0,0,,4,,,64,127
136150,note_on,0,0,0,,5,,,53,127
136284,note_off,134,0,0,,4,,,64,127
136284,note_on,0,0,0,,5,,,65,127
136418,note_off,134,0,0,,5,,,65,127
136418,note_on,0,0,0,,5,,,77,127
136552,note_off,134,0,0,,5,,,77,127
136552,note_on,0,0,0,,10,,,81,127
136686,note_off,134,0,0,,10,,,81,127
136686,note_off,0,0,0,,5,,,53,127
136686,note_on,0,0,0,,0,,,72,127
136686,note_on,0,0,0,,7,,,55,127
136954,note_off,268,0,0,,0,,,72,127
136954,note_on,0,0,0,,12,,,71,127
136954,note_on,0,0,0,,7,,,67,127
137222,note_off,268,0,0,,7,,,55,127
137356,note_off,134,0,0,,7,,,67,127
137356,note_on,0,0,0,,5,,,65,127
137490,note_off,134,0,0,,5,,,65,127
137490,note_off,0,0,0,,12,,,71,127
137490,note_on,0,0,0,,5,,,77,127
137490,note_on,0,0,0,,4,,,64,127
137624,note_off,134,0,0,,4,,,64,127
137624,note_on,0,0,0,,2,,,62,127
137758,note_off,134,0,0,,2,,,62,127
137758,note_off,0,0,0,,5,,,77,127
137758,note_on,0,0,0,,4,,,76,127
137758,note_on,0,0,0,,0,,,60,127
137892,note_off,134,0,0,,4,,,76,127
137892,note_on,0,0,0,,7,,,79,127
138026,note_off,134,0,0,,7,,,79,127
138026,note_on,0,0,0,,5,,,77,127
138160,note_off,134,0,0,,5,,,77,127
138160,note_on,0,0,0,,4,,,76,127
138294,note_off,134,0,0,,4,,,76,127
138294,note_off,0,0,0,,0,,,60,127
138294,note_on,0,0,0,,10,,,69,127
138294,note_on,0,0,0,,5,,,53,127
138294,note_on,0,0,0,,5,,,65,127
138428,note_on,134,0,0,,10,,,81,127
138562,note_off,134,0,0,,10,,,81,127
138562,note_off,0,0,0,,10,,,69,127
138562,note_on,0,0,0,,7,,,79,127
138696,note_off,134,0,0,,7,,,79,127
138696,note_on,0,0,0,,5,,,77,127
138830,note_off,134,0,0,,5,,,77,127
138830,note_off,0,0,0,,5,,,65,127
138830,note_off,0,0,0,,5,,,53,127
138830,note_on,0,0,0,,4,,,76,127
138830,note_on,0,0,0,,7,,,55,127
138830,note_on,0,0,0,,4,,,64,127
138964,note_off,134,0,0,,4,,,76,127
138964,note_on,0,0,0,,5,,,77,127
139098,note_off,134,0,0,,5,,,77,127
139098,note_on,0,0,0,,7,,,79,127
139232,note_off,134,0,0,,7,,,79,127
139232,note_on,0,0,0,,5,,,77,127
139366,note_off,134,0,0,,5,,,77,127
139366,note_off,0,0,0,,4,,,64,127
139366,note_off,0,0,0,,7,,,55,127
139366,note_on,0,0,0,,4,,,76,127
139366,note_on,0,0,0,,7,,,55,127
139366,note_on,0,0,0,,2,,,62,127
139500,note_off,134,0,0,,4,,,76,127
139500,note_on,0,0,0,,2,,,74,127
139634,note_off,134,0,0,,2,,,74,127
139634,note_on,0,0,0,,0,,,72,127
139768,note_off,134,0,0,,0,,,72,127
139768,note_on,0,0,0,,12,,,71,127
139902,note_off,134,0,0,,12,,,71,127
139902,note_off,0,0,0,,2,,,62,127
139902,note_off,0,0,0,,7,,,55,127
139902,note_on,0,0,0,,5,,,53,127
139902,note_on,0,0,0,,0,,,60,127
140036,note_on,134,0,0,,0,,,84,127
140170,note_off,134,0,0,,0,,,84,127
140170,note_on,0,0,0,,10,,,81,127
140304,note_off,134,0,0,,10,,,81,127
140304,note_on,0,0,0,,8,,,80,127
140438,note_off,134,0,0,,8,,,80,127
140438,note_off,0,0,0,,0,,,60,127
140438,note_off,0,0,0,,5,,,53,127
140438,note_on,0,0,0,,8,,,80,127
140438,note_on,0,0,0,,5,,,53,127
140438,note_on,0,0,0,,2,,,62,127
140572,note_off,134,0,0,,8,,,80,127
140572,note_on,0,0,0,,10,,,81,127
140706,note_off,134,0,0,,10,,,81,127
140706,note_on,0,0,0,,5,,,77,127
140840,note_off,134,0,0,,5,,,77,127
140840,note_on,0,0,0,,4,,,76,127
140974,note_off,134,0,0,,4,,,76,127
140974,note_off,0,0,0,,2,,,62,127
140974,note_off,0,0,0,,5,,,53,127
140974,note_on,0,0,0,,4,,,76,127
140974,note_on,0,0,0,,4,,,64,127
140974,note_on,0,0,0,,5,,,53,127
141108,note_off,134,0,0,,4,,,76,127
141108,note_on,0,0,0,,5,,,77,127
141242,note_off,134,0,0,,5,,,77,127
141242,note_on,0,0,0,,2,,,74,127
141376,note_off,134,0,0,,2,,,74,127
141376,note_on,0,0,0,,1,,,73,127
141510,note_off,134,0,0,,1,,,73,127
141510,note_off,0,0,0,,5,,,53,127
141510,note_off,0,0,0,,4,,,64,127
141510,note_on,0,0,0,,1,,,73,127
141510,note_on,0,0,0,,5,,,53,127
141510,note_on,0,0,0,,5,,,65,127
141644,note_off,134,0,0,,1,,,73,127
141644,note_on,0,0,0,,2,,,74,127
141778,note_off,134,0,0,,2,,,74,127
141778,note_on,0,0,0,,10,,,69,127
141912,note_off,134,0,0,,10,,,69,127
141912,note_on,0,0,0,,8,,,68,127
142046,note_off,134,0,0,,8,,,68,127
142046,note_off,0,0,0,,5,,,65,127
142046,note_off,0,0,0,,5,,,53,127
142046,note_on,0,0,0,,8,,,68,127
142046,note_on,0,0,0,,5,,,53,127
142180,note_off,134,0,0,,8,,,68,127
142180,note_on,0,0,0,,10,,,69,127
142314,note_off,134,0,0,,10,,,69,127
142314,note_on,0,0,0,,5,,,65,127
142448,note_off,134,0,0,,5,,,65,127
142448,note_on,0,0,0,,4,,,64,127
142582,note_off,134,0,0,,4,,,64,127
142582,note_off,0,0,0,,5,,,53,127
142582,note_on,0,0,0,,4,,,64,127
142582,note_on,0,0,0,,5,,,53,127
142716,note_off,134,0,0,,4,,,64,127
142716,note_on,0,0,0,,5,,,65,127
142850,note_off,134,0,0,,5,,,65,127
142850,note_on,0,0,0,,5,,,77,127
142984,note_off,134,0,0,,5,,,77,127
142984,note_on,0,0,0,,10,,,81,127
143118,note_off,134,0,0,,10,,,81,127
143118,note_off,0,0,0,,5,,,53,127
143118,note_on,0,0,0,,0,,,72,127
143118,note_on,0,0,0,,7,,,55,127
143386,note_off,268,0,0,,7,,,55,127
143386,note_off,0,0,0,,0,,,72,127
143386,note_on,0,0,0,,12,,,71,127
143386,note_on,0,0,0,,7,,,67,127
143788,note_off,402,0,0,,7,,,67,127
143788,note_on,0,0,0,,5,,,65,127
143922,note_off,134,0,0,,5,,,65,127
143922,note_off,0,0,0,,12,,,71,127
143922,note_on,0,0,0,,5,,,77,127
143922,note_on,0,0,0,,4,,,64,127
144056,note_off,134,0,0,,4,,,64,127
144056,note_on,0,0,0,,2,,,62,127
144190,note_off,134,0,0,,2,,,62,127
144190,note_off,0,0,0,,5,,,77,127
144190,note_on,0,0,0,,4,,,76,127
144190,note_on,0,0,0,,0,,,60,127
144324,note_off,134,0,0,,4,,,76,127
144324,note_on,0,0,0,,7,,,79,127
144458,note_off,134,0,0,,7,,,79,127
144458,note_on,0,0,0,,5,,,77,127
144592,note_off,134,0,0,,5,,,77,127
144592,note_on,0,0,0,,4,,,76,127
144726,note_off,134,0,0,,4,,,76,127
144726,note_off,0,0,0,,0,,,60,127
144726,note_on,0,0,0,,10,,,69,127
144726,note_on,0,0,0,,5,,,53,127
144726,note_on,0,0,0,,5,,,65,127
144860,note_on,134,0,0,,10,,,81,127
144994,note_off,134,0,0,,10,,,81,127
144994,note_off,0,0,0,,10,,,69,127
144994,note_on,0,0,0,,7,,,79,127
145128,note_off,134,0,0,,7,,,79,127
145128,note_on,0,0,0,,5,,,77,127
145262,note_off,134,0,0,,5,,,77,127
145262,note_off,0,0,0,,5,,,65,127
145262,note_off,0,0,0,,5,,,53,127
145262,note_on,0,0,0,,4,,,76,127
145262,note_on,0,0,0,,4,,,64,127
145262,note_on,0,0,0,,7,,,55,127
145396,note_off,134,0,0,,4,,,76,127
145396,note_on,0,0,0,,5,,,77,127
145530,note_off,134,0,0,,5,,,77,127
145530,note_on,0,0,0,,7,,,79,127
145664,note_off,134,0,0,,7,,,79,127
145664,note_on,0,0,0,,5,,,77,127
145798,note_off,134,0,0,,5,,,77,127
145798,note_off,0,0,0,,7,,,55,127
145798,note_off,0,0,0,,4,,,64,127
145798,note_on,0,0,0,,4,,,76,127
145798,note_on,0,0,0,,7,,,55,127
145798,note_on,0,0,0,,2,,,62,127
145932,note_off,134,0,0,,4,,,76,127
145932,note_on,0,0,0,,2,,,74,127
146066,note_off,134,0,0,,2,,,74,127
146066,note_on,0,0,0,,0,,,72,127
146200,note_off,134,0,0,,0,,,72,127
146200,note_on,0,0,0,,12,,,71,127
146334,note_off,134,0,0,,12,,,71,127
146334,note_off,0,0,0,,2,,,62,127
146334,note_off,0,0,0,,7,,,55,127
146334,note_on,0,0,0,,0,,,48,127
146602,note_on,268,0,0,,7,,,79,127
146736,note_off,134,0,0,,7,,,79,127
146736,note_on,0,0,0,,5,,,77,127
146870,note_off,134,0,0,,5,,,77,127
146870,note_on,0,0,0,,8,,,68,127
147004,note_off,134,0,0,,0,,,48,127
147138,note_on,134,0,0,,3,,,63,127
147138,note_on,0,0,0,,0,,,60,127
147406,note_off,268,0,0,,0,,,60,127
147406,note_off,0,0,0,,3,,,63,127
147406,note_on,0,0,0,,12,,,59,127
147406,note_on,0,0,0,,5,,,65,127
147406,note_on,0,0,0,,2,,,62,127
147674,note_off,268,0,0,,8,,,68,127
147674,note_on,0,0,0,,7,,,67,127
147942,note_off,268,0,0,,2,,,62,127
147942,note_off,0,0,0,,5,,,65,127
147942,note_off,0,0,0,,12,,,59,127
147942,note_on,0,0,0,,0,,,48,127
147942,note_on,0,0,0,,0,,,60,127
148210,note_off,268,0,0,,7,,,67,127
148210,note_on,0,0,0,,7,,,79,127
148344,note_off,134,0,0,,7,,,79,127
148344,note_on,0,0,0,,5,,,77,127
148478,note_off,134,0,0,,5,,,77,127
148478,note_on,0,0,0,,8,,,68,127
148640,note_off,162,0,0,,0,,,60,127
148640,note_off,0,0,0,,0,,,48,127
148746,note_on,106,0,0,,3,,,63,127
148746,note_on,0,0,0,,0,,,60,127
149014,note_off,268,0,0,,0,,,60,127
149014,note_off,0,0,0,,3,,,63,127
149014,note_on,0,0,0,,5,,,65,127
149014,note_on,0,0,0,,2,,,62,127
149014,note_on,0,0,0,,12,,,59,127
149282,note_off,268,0,0,,8,,,68,127
149282,note_on,0,0,0,,7,,,67,127
149547,note_off,265,0,0,,7,,,67,127
149550,note_off,3,0,0,,12,,,59,127
149550,note_off,0,0,0,,2,,,62,127
149550,note_off,0,0,0,,5,,,65,127
149550,note_on,0,0,0,,5,,,53,127
149550,note_on,0,0,0,,5,,,65,127
149550,note_on,0,0,0,,8,,,56,127
149550,note_on,0,0,0,,0,,,60,127
149818,note_on,268,0,0,,8,,,80,127
149952,note_off,134,0,0,,8,,,80,127
149952,note_on,0,0,0,,7,,,79,127
150086,note_off,134,0,0,,7,,,79,127
150086,note_on,0,0,0,,0,,,72,127
150276,note_off,190,0,0,,0,,,60,127
150276,note_off,0,0,0,,8,,,56,127
150276,note_off,0,0,0,,5,,,65,127
150276,note_off,0,0,0,,5,,,53,127
150354,note_on,78,0,0,,5,,,53,127
150354,note_on,0,0,0,,5,,,65,127
150354,note_on,0,0,0,,8,,,56,127
150354,note_on,0,0,0,,0,,,60,127
150622,note_off,268,0,0,,0,,,60,127
150622,note_off,0,0,0,,8,,,56,127
150622,note_off,0,0,0,,5,,,65,127
150622,note_off,0,0,0,,5,,,53,127
150622,note_on,0,0,0,,7,,,55,127
150622,note_on,0,0,0,,0,,,60,127
150622,note_on,0,0,0,,5,,,65,127
150622,note_on,0,0,0,,2,,,62,127
150890,note_off,268,0,0,,0,,,72,127
150890,note_on,0,0,0,,12,,,71,127
151024,note_off,134,0,0,,0,,,60,127
151158,note_off,134,0,0,,2,,,62,127
151158,note_off,0,0,0,,5,,,65,127
151158,note_off,0,0,0,,7,,,55,127
151158,note_on,0,0,0,,8,,,56,127
151158,note_on,0,0,0,,5,,,53,127
151158,note_on,0,0,0,,0,,,60,127
151158,note_on,0,0,0,,5,,,65,127
151292,note_off,134,0,0,,12,,,71,127
151426,note_on,134,0,0,,8,,,80,127
151560,note_off,134,0,0,,8,,,80,127
151560,note_on,0,0,0,,7,,,79,127
151694,note_off,134,0,0,,7,,,79,127
151694,note_on,0,0,0,,0,,,72,127
151912,note_off,218,0,0,,5,,,65,127
151912,note_off,0,0,0,,0,,,60,127
151912,note_off,0,0,0,,5,,,53,127
151912,note_off,0,0,0,,8,,,56,127
151962,note_on,50,0,0,,8,,,56,127
151962,note_on,0,0,0,,5,,,53,127
151962,note_on,0,0,0,,5,,,65,127
151962,note_on,0,0,0,,0,,,60,127
152230,note_off,268,0,0,,0,,,60,127
152230,note_off,0,0,0,,5,,,65,127
152230,note_off,0,0,0,,5,,,53,127
152230,note_off,0,0,0,,8,,,56,127
152230,note_on,0,0,0,,7,,,55,127
152230,note_on,0,0,0,,0,,,60,127
152230,note_on,0,0,0,,5,,,65,127
152230,note_on,0,0,0,,2,,,62,127
152498,note_off,268,0,0,,0,,,72,127
152498,note_on,0,0,0,,12,,,71,127
152632,note_off,134,0,0,,0,,,60,127
152763,note_off,131,0,0,,12,,,71,127
152766,note_off,3,0,0,,2,,,62,127
152766,note_off,0,0,0,,5,,,65,127
152766,note_off,0,0,0,,7,,,55,127
152766,note_on,0,0,0,,8,,,56,127
152766,note_on,0,0,0,,5,,,65,127
152766,note_on,0,0,0,,0,,,60,127
153034,note_on,268,0,0,,0,,,72,127
153168,note_off,134,0,0,,0,,,72,127
153168,note_on,0,0,0,,5,,,77,127
153302,note_off,134,0,0,,5,,,77,127
153302,note_on,0,0,0,,0,,,84,127
153548,note_off,246,0,0,,0,,,60,127
153548,note_off,0,0,0,,5,,,65,127
153548,note_off,0,0,0,,8,,,56,127
153570,note_on,22,0,0,,8,,,56,127
153570,note_on,0,0,0,,0,,,60,127
153570,note_on,0,0,0,,5,,,65,127
153838,note_off,268,0,0,,5,,,65,127
153838,note_off,0,0,0,,0,,,60,127
153838,note_off,0,0,0,,8,,,56,127
153838,note_on,0,0,0,,7,,,55,127
153838,note_on,0,0,0,,5,,,65,127
153838,note_on,0,0,0,,2,,,62,127
153838,note_on,0,0,0,,0,,,60,127
154106,note_off,268,0,0,,0,,,84,127
154106,note_on,0,0,0,,12,,,83,127
154240,note_off,134,0,0,,0,,,60,127
154374,note_off,134,0,0,,2,,,62,127
154374,note_off,0,0,0,,5,,,65,127
154374,note_off,0,0,0,,7,,,55,127
154374,note_on,0,0,0,,8,,,56,127
154374,note_on,0,0,0,,5,,,65,127
154374,note_on,0,0,0,,0,,,60,127
154508,note_off,134,0,0,,12,,,83,127
154642,note_on,134,0,0,,0,,,72,127
154776,note_off,134,0,0,,0,,,72,127
154776,note_on,0,0,0,,5,,,77,127
154910,note_off,134,0,0,,5,,,77,127
154910,note_on,0,0,0,,0,,,84,127
155178,note_off,268,0,0,,0,,,60,127
155178,note_off,0,0,0,,5,,,65,127
155178,note_off,0,0,0,,8,,,56,127
155178,note_on,0,0,0,,8,,,56,127
155178,note_on,0,0,0,,0,,,60,127
155178,note_on,0,0,0,,5,,,65,127
155446,note_off,268,0,0,,5,,,65,127
155446,note_off,0,0,0,,0,,,60,127
155446,note_off,0,0,0,,8,,,56,127
155446,note_on,0,0,0,,7,,,55,127
155446,note_on,0,0,0,,0,,,60,127
155446,note_on,0,0,0,,5,,,65,127
155446,note_on,0,0,0,,2,,,62,127
155580,note_off,134,0,0,,0,,,84,127
155580,note_on,0,0,0,,12,,,83,127
155711,note_off,131,0,0,,0,,,60,127
155714,note_off,3,0,0,,12,,,83,127
155714,note_on,0,0,0,,5,,,77,127
155848,note_off,134,0,0,,5,,,77,127
155848,note_on,0,0,0,,2,,,74,127
155982,note_off,134,0,0,,2,,,74,127
155982,note_off,0,0,0,,2,,,62,127
155982,note_off,0,0,0,,5,,,65,127
155982,note_off,0,0,0,,7,,,55,127
155982,note_on,0,0,0,,3,,,75,127
155982,note_on,0,0,0,,0,,,60,127
156116,note_off,134,0,0,,3,,,75,127
156116,note_on,0,0,0,,7,,,79,127
156250,note_off,134,0,0,,7,,,79,127
156250,note_off,0,0,0,,0,,,60,127
156250,note_on,0,0,0,,0,,,72,127
156250,note_on,0,0,0,,3,,,63,127
156384,note_off,134,0,0,,0,,,72,127
156384,note_on,0,0,0,,3,,,75,127
156518,note_off,134,0,0,,3,,,75,127
156518,note_off,0,0,0,,3,,,63,127
156518,note_on,0,0,0,,2,,,74,127
156518,note_on,0,0,0,,5,,,65,127
156652,note_off,134,0,0,,2,,,74,127
156652,note_on,0,0,0,,5,,,77,127
156786,note_off,134,0,0,,5,,,77,127
156786,note_on,0,0,0,,12,,,71,127
156786,note_on,0,0,0,,8,,,56,127
156920,note_off,134,0,0,,12,,,71,127
156920,note_on,0,0,0,,0,,,72,127
157048,note_off,128,0,0,,5,,,65,127
157054,note_off,6,0,0,,8,,,56,127
157054,note_on,0,0,0,,3,,,63,127
157054,note_on,0,0,0,,7,,,55,127
157188,note_off,134,0,0,,0,,,72,127
157188,note_on,0,0,0,,2,,,74,127
157322,note_off,134,0,0,,2,,,74,127
157322,note_off,0,0,0,,3,,,63,127
157322,note_on,0,0,0,,0,,,72,127
157322,note_on,0,0,0,,2,,,62,127
157456,note_off,134,0,0,,0,,,72,127
157456,note_on,0,0,0,,12,,,71,127
157590,note_off,134,0,0,,12,,,71,127
157590,note_off,0,0,0,,2,,,62,127
157590,note_off,0,0,0,,7,,,55,127
157590,note_on,0,0,0,,0,,,72,127
157590,note_on,0,0,0,,0,,,48,127
157724,note_off,134,0,0,,0,,,72,127
157724,note_on,0,0,0,,7,,,67,127
157858,note_off,134,0,0,,7,,,67,127
157858,note_on,0,0,0,,5,,,77,127
157992,note_off,134,0,0,,5,,,77,127
157992,note_on,0,0,0,,2,,,74,127
158126,note_off,134,0,0,,2,,,74,127
158126,note_off,0,0,0,,0,,,48,127
158126,note_on,0,0,0,,3,,,75,127
158126,note_on,0,0,0,,0,,,72,127
158260,note_on,134,0,0,,0,,,84,127
158394,note_off,134,0,0,,0,,,84,127
158394,note_on,0,0,0,,8,,,80,127
158528,note_off,134,0,0,,8,,,80,127
158528,note_on,0,0,0,,5,,,77,127
158662,note_off,134,0,0,,5,,,77,127
158662,note_on,0,0,0,,7,,,31,127
158662,note_on,0,0,0,,7,,,43,127
158796,note_off,134,0,0,,0,,,72,127
158796,note_off,0,0,0,,3,,,75,127
158796,note_on,0,0,0,,2,,,74,127
158930,note_off,134,0,0,,2,,,74,127
158930,note_on,0,0,0,,0,,,72,127
159064,note_off,134,0,0,,0,,,72,127
159064,note_on,0,0,0,,12,,,71,127
159198,note_off,134,0,0,,12,,,71,127
159198,note_off,0,0,0,,7,,,43,127
159198,note_off,0,0,0,,7,,,31,127
159198,note_on,0,0,0,,0,,,72,127
159198,note_on,0,0,0,,0,,,36,127
159332,note_off,134,0,0,,0,,,72,127
159332,note_on,0,0,0,,7,,,67,127
159466,note_off,134,0,0,,7,,,67,127
159466,note_on,0,0,0,,5,,,77,127
159600,note_off,134,0,0,,5,,,77,127
159600,note_on,0,0,0,,2,,,74,127
159734,note_off,134,0,0,,2,,,74,127
159734,note_off,0,0,0,,0,,,36,127
159734,note_on,0,0,0,,3,,,75,127
159734,note_on,0,0,0,,0,,,72,127
159868,note_on,134,0,0,,0,,,84,127
160002,note_off,134,0,0,,0,,,84,127
160002,note_on,0,0,0,,8,,,80,127
160136,note_off,134,0,0,,8,,,80,127
160136,note_on,0,0,0,,5,,,77,127
160270,note_off,134,0,0,,5,,,77,127
160270,note_on,0,0,0,,7,,,31,127
160270,note_on,0,0,0,,7,,,43,127
160404,note_off,134,0,0,,0,,,72,127
160404,note_off,0,0,0,,3,,,75,127
160404,note_on,0,0,0,,2,,,74,127
160538,note_off,134,0,0,,2,,,74,127
160538,note_on,0,0,0,,0,,,72,127
160672,note_off,134,0,0,,0,,,72,127
160672,note_on,0,0,0,,12,,,71,127
160806,note_off,134,0,0,,12,,,71,127
160806,note_off,0,0,0,,7,,,43,127
160806,note_off,0,0,0,,7,,,31,127
160806,note_on,0,0,0,,0,,,72,127
160806,note_on,0,0,0,,0,,,36,127
160940,note_off,134,0,0,,0,,,72,127
160940,note_on,0,0,0,,11,,,70,127
161074,note_off,134,0,0,,11,,,70,127
161074,note_on,0,0,0,,8,,,68,127
161208,note_off,134,0,0,,8,,,68,127
161208,note_on,0,0,0,,7,,,67,127
161342,note_off,134,0,0,,7,,,67,127
161342,note_off,0,0,0,,0,,,36,127
161342,note_on,0,0,0,,5,,,65,127
161342,note_on,0,0,0,,5,,,41,127
161476,note_off,134,0,0,,5,,,65,127
161476,note_on,0,0,0,,3,,,63,127
161610,note_off,134,0,0,,3,,,63,127
161610,note_on,0,0,0,,2,,,62,127
161744,note_off,134,0,0,,2,,,62,127
161744,note_on,0,0,0,,0,,,60,127
161878,note_off,134,0,0,,0,,,60,127
161878,note_off,0,0,0,,5,,,41,127
161878,note_on,0,0,0,,7,,,67,127
161878,note_on,0,0,0,,7,,,43,127
162012,note_off,134,0,0,,7,,,67,127
162012,note_on,0,0,0,,5,,,65,127
162146,note_off,134,0,0,,5,,,65,127
162146,note_on,0,0,0,,3,,,63,127
162280,note_off,134,0,0,,3,,,63,127
162280,note_on,0,0,0,,2,,,62,127
162414,note_off,134,0,0,,2,,,62,127
162414,note_off,0,0,0,,7,,,43,127
162414,note_on,0,0,0,,0,,,72,127
162414,note_on,0,0,0,,0,,,36,127
162548,note_off,134,0,0,,0,,,72,127
162548,note_on,0,0,0,,7,,,67,127
162682,note_off,134,0,0,,7,,,67,127
162682,note_on,0,0,0,,5,,,77,127
162816,note_off,134,0,0,,5,,,77,127
162816,note_on,0,0,0,,2,,,74,127
162950,note_off,134,0,0,,2,,,74,127
162950,note_on,0,0,0,,0,,,72,127
162950,note_on,0,0,0,,3,,,75,127
163084,note_off,134,0,0,,0,,,36,127
163084,note_on,0,0,0,,0,,,84,127
163218,note_off,134,0,0,,0,,,84,127
163218,note_on,0,0,0,,8,,,80,127
163352,note_off,134,0,0,,8,,,80,127
163352,note_on,0,0,0,,5,,,77,127
163486,note_off,134,0,0,,5,,,77,127
163486,note_on,0,0,0,,7,,,31,127
163486,note_on,0,0,0,,7,,,43,127
163620,note_off,134,0,0,,3,,,75,127
163620,note_off,0,0,0,,0,,,72,127
163620,note_on,0,0,0,,2,,,74,127
163754,note_off,134,0,0,,2,,,74,127
163754,note_on,0,0,0,,0,,,72,127
163888,note_off,134,0,0,,0,,,72,127
163888,note_on,0,0,0,,12,,,71,127
164022,note_off,134,0,0,,12,,,71,127
164022,note_off,0,0,0,,7,,,43,127
164022,note_off,0,0,0,,7,,,31,127
164022,note_on,0,0,0,,0,,,72,127
164022,note_on,0,0,0,,0,,,36,127
164156,note_off,134,0,0,,0,,,72,127
164156,note_on,0,0,0,,7,,,67,127
164290,note_off,134,0,0,,7,,,67,127
164290,note_on,0,0,0,,5,,,77,127
164424,note_off,134,0,0,,5,,,77,127
164424,note_on,0,0,0,,2,,,74,127
164558,note_off,134,0,0,,2,,,74,127
164558,note_on,0,0,0,,3,,,75,127
164558,note_on,0,0,0,,0,,,72,127
164692,note_off,134,0,0,,0,,,36,127
164692,note_on,0,0,0,,0,,,84,127
164826,note_off,134,0,0,,0,,,84,127
164826,note_on,0,0,0,,8,,,80,127
164960,note_off,134,0,0,,8,,,80,127
164960,note_on,0,0,0,,5,,,77,127
165094,note_off,134,0,0,,5,,,77,127
165094,note_on,0,0,0,,7,,,31,127
165094,note_on,0,0,0,,7,,,43,127
165228,note_off,134,0,0,,0,,,72,127
165228,note_off,0,0,0,,3,,,75,127
165228,note_on,0,0,0,,2,,,74,127
165362,note_off,134,0,0,,2,,,74,127
165362,note_on,0,0,0,,0,,,72,127
165496,note_off,134,0,0,,0,,,72,127
165496,note_on,0,0,0,,12,,,71,127
165630,note_off,134,0,0,,12,,,71,127
165630,note_off,0,0,0,,7,,,43,127
165630,note_off,0,0,0,,7,,,31,127
165630,note_on,0,0,0,,0,,,72,127
165630,note_on,0,0,0,,0,,,36,127
165764,note_off,134,0,0,,0,,,72,127
165764,note_on,0,0,0,,11,,,70,127
165898,note_off,134,0,0,,11,,,70,127
165898,note_on,0,0,0,,8,,,68,127
166032,note_off,134,0,0,,8,,,68,127
166032,note_on,0,0,0,,7,,,67,127
166166,note_off,134,0,0,,7,,,67,127
166166,note_off,0,0,0,,0,,,36,127
166166,note_on,0,0,0,,5,,,65,127
166166,note_on,0,0,0,,5,,,41,127
166300,note_off,134,0,0,,5,,,65,127
166300,note_on,0,0,0,,3,,,63,127
166434,note_off,134,0,0,,3,,,63,127
166434,note_on,0,0,0,,2,,,62,127
166568,note_off,134,0,0,,2,,,62,127
166568,note_on,0,0,0,,0,,,60,127
166702,note_off,134,0,0,,0,,,60,127
166702,note_off,0,0,0,,5,,,41,127
166702,note_on,0,0,0,,7,,,67,127
166702,note_on,0,0,0,,7,,,43,127
166836,note_off,134,0,0,,7,,,67,127
166836,note_on,0,0,0,,5,,,65,127
166970,note_off,134,0,0,,5,,,65,127
166970,note_on,0,0,0,,3,,,63,127
167104,note_off,134,0,0,,3,,,63,127
167104,note_on,0,0,0,,2,,,62,127
167220,note_off,116,0,0,,2,,,62,127
167238,note_off,18,0,0,,7,,,43,127
167238,note_on,0,0,0,,0,,,36,127
167372,note_on,134,0,0,,7,,,67,127
167506,note_off,134,0,0,,7,,,67,127
167506,note_on,0,0,0,,5,,,65,127
167506,note_on,0,0,0,,0,,,48,127
167640,note_off,134,0,0,,5,,,65,127
167640,note_on,0,0,0,,7,,,67,127
167774,note_off,134,0,0,,7,,,67,127
167774,note_off,0,0,0,,0,,,48,127
167774,note_off,0,0,0,,0,,,36,127
167774,note_on,0,0,0,,8,,,68,127
167774,note_on,0,0,0,,2,,,50,127
167908,note_off,134,0,0,,8,,,68,127
167908,note_on,0,0,0,,12,,,71,127
168042,note_off,134,0,0,,12,,,71,127
168042,note_off,0,0,0,,2,,,50,127
168042,note_on,0,0,0,,0,,,72,127
168042,note_on,0,0,0,,5,,,41,127
168176,note_off,134,0,0,,0,,,72,127
168176,note_on,0,0,0,,5,,,65,127
168310,note_off,134,0,0,,5,,,65,127
168310,note_off,0,0,0,,5,,,41,127
168310,note_on,0,0,0,,3,,,63,127
168310,note_on,0,0,0,,7,,,43,127
168444,note_on,134,0,0,,0,,,72,127
168511,note_off,67,0,0,,3,,,63,127
168578,note_on,67,0,0,,2,,,62,127
168578,note_on,0,0,0,,5,,,53,127
168645,note_off,67,0,0,,0,,,72,127
168712,note_on,67,0,0,,12,,,71,127
168779,note_off,67,0,0,,2,,,62,127
168846,note_off,67,0,0,,5,,,53,127
168846,note_off,0,0,0,,7,,,43,127
168846,note_on,0,0,0,,3,,,51,127
168866,note_off,20,0,0,,12,,,71,127
168980,note_on,114,0,0,,7,,,79,127
169114,note_off,134,0,0,,7,,,79,127
169114,note_off,0,0,0,,3,,,51,127
169114,note_on,0,0,0,,5,,,77,127
169114,note_on,0,0,0,,0,,,48,127
169248,note_off,134,0,0,,5,,,77,127
169248,note_on,0,0,0,,7,,,79,127
169382,note_off,134,0,0,,7,,,79,127
169382,note_off,0,0,0,,0,,,48,127
169382,note_on,0,0,0,,10,,,81,127
169382,note_on,0,0,0,,5,,,53,127
169516,note_off,134,0,0,,10,,,81,127
169516,note_on,0,0,0,,12,,,83,127
169650,note_off,134,0,0,,12,,,83,127
169650,note_on,0,0,0,,0,,,84,127
169650,note_on,0,0,0,,5,,,41,127
169784,note_off,134,0,0,,0,,,84,127
169784,note_on,0,0,0,,5,,,77,127
169912,note_off,128,0,0,,5,,,53,127
169918,note_off,6,0,0,,5,,,77,127
169918,note_off,0,0,0,,5,,,41,127
169918,note_on,0,0,0,,3,,,75,127
169918,note_on,0,0,0,,7,,,43,127
170052,note_on,134,0,0,,0,,,84,127
170119,note_off,67,0,0,,3,,,75,127
170186,note_off,67,0,0,,7,,,43,127
170186,note_on,0,0,0,,2,,,74,127
170186,note_on,0,0,0,,7,,,43,127
170253,note_off,67,0,0,,0,,,84,127
170320,note_on,67,0,0,,12,,,83,127
170387,note_off,67,0,0,,2,,,74,127
170454,note_off,67,0,0,,12,,,83,127
170454,note_off,0,0,0,,7,,,43,127
170454,note_on,0,0,0,,0,,,84,127
170454,note_on,0,0,0,,0,,,36,127
170454,note_on,0,0,0,,0,,,48,127
170588,note_off,134,0,0,,0,,,84,127
170588,note_on,0,0,0,,7,,,79,127
170722,note_off,134,0,0,,7,,,79,127
170722,note_on,0,0,0,,3,,,75,127
170856,note_off,134,0,0,,3,,,75,127
170856,note_on,0,0,0,,0,,,72,127
170990,note_off,134,0,0,,0,,,72,127
170990,note_on,0,0,0,,7,,,67,127
171124,note_off,134,0,0,,7,,,67,127
171124,note_on,0,0,0,,3,,,63,127
171258,note_off,134,0,0,,3,,,63,127
171258,note_on,0,0,0,,0,,,60,127
171392,note_off,134,0,0,,0,,,48,127
171392,note_off,0,0,0,,0,,,36,127
171392,note_on,0,0,0,,7,,,55,127
171525,note_off,133,0,0,,0,,,60,127
171526,note_off,1,0,0,,7,,,55,127
171526,note_on,0,0,0,,3,,,51,127
171660,note_off,134,0,0,,3,,,51,127
171660,note_on,0,0,0,,0,,,48,127
171793,note_off,133,0,0,,0,,,48,127
171794,note_on,1,0,0,,7,,,43,127
172062,note_on,268,0,0,,0,,,36,127
173748,note_off,1686,0,0,,0,,,36,127
173748,note_off,0,0,0,,7,,,43,127
175104,end_of_track,1356,1,0,,,,,,
