tick,type,time,meta,track,program,channel,pitch,tempo,note,velocity
0,copyright,0,1,0,,,,,,
0,program_change,0,0,0,6,0,,,,
0,pitchwheel,0,0,0,,0,0,,,
0,program_change,0,0,0,6,1,,,,
0,pitchwheel,0,0,0,,1,-590,,,
0,program_change,0,0,0,6,2,,,,
0,pitchwheel,0,0,0,,2,-272,,,
0,program_change,0,0,0,6,3,,,,
0,pitchwheel,0,0,0,,3,-353,,,
0,program_change,0,0,0,6,4,,,,
0,pitchwheel,0,0,0,,4,-560,,,
0,program_change,0,0,0,6,5,,,,
0,pitchwheel,0,0,0,,5,-80,,,
0,program_change,0,0,0,6,6,,,,
0,pitchwheel,0,0,0,,6,-625,,,
0,program_change,0,0,0,6,7,,,,
0,pitchwheel,0,0,0,,7,-130,,,
0,program_change,0,0,0,6,8,,,,
0,pitchwheel,0,0,0,,8,-512,,,
0,program_change,0,0,0,6,10,,,,
0,pitchwheel,0,0,0,,10,-464,,,
0,program_change,0,0,0,6,11,,,,
0,pitchwheel,0,0,0,,11,-208,,,
0,program_change,0,0,0,6,12,,,,
0,pitchwheel,0,0,0,,12,-553,,,
0,set_tempo,0,1,0,,,,500000,,
105,note_on,105,0,0,,7,,,79,127
209,note_off,104,0,0,,7,,,79,127
210,note_on,1,0,0,,4,,,76,127
314,note_off,104,0,0,,4,,,76,127
315,note_on,1,0,0,,0,,,72,127
523,note_off,208,0,0,,0,,,72,127
524,note_on,1,0,0,,12,,,71,127
732,note_off,208,0,0,,12,,,71,127
733,note_on,1,0,0,,0,,,72,127
942,note_on,209,0,0,,4,,,64,127
1136,note_off,194,0,0,,0,,,72,127
1150,note_off,14,0,0,,4,,,64,127
1151,note_on,1,0,0,,4,,,76,127
1151,note_on,0,0,0,,5,,,65,127
1220,note_off,69,0,0,,4,,,76,127
1221,note_on,1,0,0,,2,,,74,127
1290,note_off,69,0,0,,2,,,74,127
1291,note_on,1,0,0,,4,,,76,127
1360,note_off,69,0,0,,4,,,76,127
1360,note_off,0,0,0,,5,,,65,127
1361,note_on,1,0,0,,2,,,74,127
1361,note_on,0,0,0,,7,,,67,127
1430,note_off,69,0,0,,2,,,74,127
1431,note_on,1,0,0,,0,,,72,127
1500,note_off,69,0,0,,0,,,72,127
1501,note_on,1,0,0,,2,,,74,127
1570,note_off,69,0,0,,2,,,74,127
1570,note_off,0,0,0,,7,,,67,127
1571,note_on,1,0,0,,4,,,76,127
1571,note_on,0,0,0,,0,,,60,127
1776,note_off,205,0,0,,4,,,76,127
1780,note_on,4,0,0,,0,,,84,127
1884,note_off,104,0,0,,0,,,84,127
1885,note_on,1,0,0,,4,,,76,127
1989,note_off,104,0,0,,4,,,76,127
1990,note_on,1,0,0,,0,,,72,127
2198,note_off,208,0,0,,0,,,72,127
2198,note_off,0,0,0,,0,,,60,127
2199,note_on,1,0,0,,12,,,71,127
2407,note_off,208,0,0,,12,,,71,127
2408,note_on,1,0,0,,10,,,69,127
2617,note_on,209,0,0,,5,,,65,127
2811,note_off,194,0,0,,10,,,69,127
2825,note_off,14,0,0,,5,,,65,127
2826,note_on,1,0,0,,0,,,72,127
2826,note_on,0,0,0,,2,,,62,127
2895,note_off,69,0,0,,0,,,72,127
2896,note_on,1,0,0,,12,,,71,127
2965,note_off,69,0,0,,12,,,71,127
2966,note_on,1,0,0,,0,,,72,127
3035,note_off,69,0,0,,0,,,72,127
3035,note_off,0,0,0,,2,,,62,127
3036,note_on,1,0,0,,12,,,71,127
3036,note_on,0,0,0,,7,,,67,127
3105,note_off,69,0,0,,12,,,71,127
3106,note_on,1,0,0,,10,,,69,127
3175,note_off,69,0,0,,10,,,69,127
3176,note_on,1,0,0,,12,,,71,127
3245,note_off,69,0,0,,12,,,71,127
3245,note_off,0,0,0,,7,,,67,127
3246,note_on,1,0,0,,0,,,72,127
3246,note_on,0,0,0,,0,,,60,127
3344,note_off,98,0,0,,0,,,72,127
3455,note_on,111,0,0,,7,,,79,127
3559,note_off,104,0,0,,7,,,79,127
3560,note_on,1,0,0,,4,,,76,127
3664,note_off,104,0,0,,4,,,76,127
3665,note_on,1,0,0,,0,,,72,127
3873,note_off,208,0,0,,0,,,72,127
3874,note_on,1,0,0,,12,,,71,127
3902,note_off,28,0,0,,0,,,60,127
4082,note_off,180,0,0,,12,,,71,127
4083,note_on,1,0,0,,0,,,72,127
4292,note_on,209,0,0,,4,,,64,127
4433,note_off,141,0,0,,0,,,72,127
4501,note_off,68,0,0,,4,,,64,127
4502,note_on,1,0,0,,4,,,76,127
4502,note_on,0,0,0,,5,,,65,127
4571,note_off,69,0,0,,4,,,76,127
4572,note_on,1,0,0,,2,,,74,127
4641,note_off,69,0,0,,2,,,74,127
4642,note_on,1,0,0,,4,,,76,127
4711,note_off,69,0,0,,4,,,76,127
4711,note_off,0,0,0,,5,,,65,127
4712,note_on,1,0,0,,2,,,74,127
4712,note_on,0,0,0,,7,,,67,127
4781,note_off,69,0,0,,2,,,74,127
4782,note_on,1,0,0,,0,,,72,127
4851,note_off,69,0,0,,0,,,72,127
4852,note_on,1,0,0,,2,,,74,127
4921,note_off,69,0,0,,2,,,74,127
4921,note_off,0,0,0,,7,,,67,127
4922,note_on,1,0,0,,4,,,76,127
4922,note_on,0,0,0,,0,,,60,127
5020,note_off,98,0,0,,4,,,76,127
5131,note_on,111,0,0,,0,,,84,127
5235,note_off,104,0,0,,0,,,84,127
5236,note_on,1,0,0,,4,,,76,127
5340,note_off,104,0,0,,4,,,76,127
5341,note_on,1,0,0,,0,,,72,127
5446,note_off,105,0,0,,0,,,60,127
5550,note_off,104,0,0,,0,,,72,127
5551,note_on,1,0,0,,12,,,71,127
5759,note_off,208,0,0,,12,,,71,127
5760,note_on,1,0,0,,10,,,69,127
5969,note_on,209,0,0,,5,,,65,127
6065,note_off,96,0,0,,10,,,69,127
6177,note_off,112,0,0,,5,,,65,127
6178,note_on,1,0,0,,0,,,72,127
6178,note_on,0,0,0,,7,,,67,127
6247,note_off,69,0,0,,0,,,72,127
6248,note_on,1,0,0,,12,,,71,127
6317,note_off,69,0,0,,12,,,71,127
6318,note_on,1,0,0,,0,,,72,127
6387,note_off,69,0,0,,0,,,72,127
6387,note_off,0,0,0,,7,,,67,127
6388,note_on,1,0,0,,12,,,71,127
6388,note_on,0,0,0,,7,,,55,127
6457,note_off,69,0,0,,12,,,71,127
6458,note_on,1,0,0,,10,,,69,127
6527,note_off,69,0,0,,10,,,69,127
6528,note_on,1,0,0,,12,,,71,127
6597,note_off,69,0,0,,12,,,71,127
6597,note_off,0,0,0,,7,,,55,127
6598,note_on,1,0,0,,0,,,72,127
6598,note_on,0,0,0,,0,,,60,127
6703,note_on,105,0,0,,7,,,79,127
6806,note_off,103,0,0,,0,,,60,127
6806,note_off,0,0,0,,0,,,72,127
6807,note_off,1,0,0,,7,,,79,127
6808,note_on,1,0,0,,5,,,77,127
6808,note_on,0,0,0,,7,,,79,127
6912,note_off,104,0,0,,7,,,79,127
6912,note_off,0,0,0,,5,,,77,127
6913,note_on,1,0,0,,4,,,76,127
7017,note_off,104,0,0,,4,,,76,127
7018,note_on,1,0,0,,5,,,77,127
7123,note_on,105,0,0,,2,,,74,127
7227,note_off,104,0,0,,2,,,74,127
7228,note_on,1,0,0,,12,,,71,127
7332,note_off,104,0,0,,12,,,71,127
7333,note_on,1,0,0,,7,,,67,127
7437,note_off,104,0,0,,7,,,67,127
7438,note_on,1,0,0,,0,,,72,127
7521,note_off,83,0,0,,5,,,77,127
7543,note_on,22,0,0,,4,,,76,127
7647,note_off,104,0,0,,4,,,76,127
7648,note_on,1,0,0,,2,,,74,127
7648,note_on,0,0,0,,4,,,76,127
7752,note_off,104,0,0,,4,,,76,127
7752,note_off,0,0,0,,2,,,74,127
7752,note_off,0,0,0,,0,,,72,127
7753,note_on,1,0,0,,0,,,72,127
7857,note_off,104,0,0,,0,,,72,127
7858,note_on,1,0,0,,5,,,77,127
7963,note_on,105,0,0,,2,,,74,127
8067,note_off,104,0,0,,2,,,74,127
8068,note_on,1,0,0,,12,,,71,127
8172,note_off,104,0,0,,12,,,71,127
8173,note_on,1,0,0,,7,,,67,127
8238,note_off,65,0,0,,5,,,77,127
8276,note_off,38,0,0,,7,,,67,127
8277,note_on,1,0,0,,0,,,72,127
8382,note_on,105,0,0,,4,,,76,127
8486,note_off,104,0,0,,4,,,76,127
8487,note_on,1,0,0,,2,,,74,127
8487,note_on,0,0,0,,4,,,76,127
8591,note_off,104,0,0,,4,,,76,127
8591,note_off,0,0,0,,2,,,74,127
8591,note_off,0,0,0,,0,,,72,127
8592,note_on,1,0,0,,0,,,72,127
8696,note_off,104,0,0,,0,,,72,127
8697,note_on,1,0,0,,4,,,76,127
8802,note_on,105,0,0,,0,,,72,127
8906,note_off,104,0,0,,0,,,72,127
8907,note_on,1,0,0,,10,,,69,127
9011,note_off,104,0,0,,10,,,69,127
9012,note_on,1,0,0,,6,,,66,127
9116,note_off,104,0,0,,6,,,66,127
9117,note_on,1,0,0,,12,,,71,127
9221,note_off,104,0,0,,4,,,76,127
9222,note_on,1,0,0,,2,,,74,127
9326,note_off,104,0,0,,2,,,74,127
9327,note_on,1,0,0,,0,,,72,127
9327,note_on,0,0,0,,2,,,74,127
9431,note_off,104,0,0,,2,,,74,127
9431,note_off,0,0,0,,0,,,72,127
9431,note_off,0,0,0,,12,,,71,127
9432,note_on,1,0,0,,12,,,71,127
9536,note_off,104,0,0,,12,,,71,127
9537,note_on,1,0,0,,2,,,74,127
9642,note_on,105,0,0,,12,,,71,127
9746,note_off,104,0,0,,12,,,71,127
9747,note_on,1,0,0,,7,,,67,127
9851,note_off,104,0,0,,7,,,67,127
9852,note_on,1,0,0,,4,,,64,127
9956,note_off,104,0,0,,4,,,64,127
9957,note_on,1,0,0,,10,,,69,127
10061,note_off,104,0,0,,2,,,74,127
10062,note_on,1,0,0,,0,,,72,127
10166,note_off,104,0,0,,0,,,72,127
10167,note_on,1,0,0,,12,,,71,127
10167,note_on,0,0,0,,0,,,72,127
10271,note_off,104,0,0,,0,,,72,127
10271,note_off,0,0,0,,12,,,71,127
10271,note_off,0,0,0,,10,,,69,127
10272,note_on,1,0,0,,10,,,69,127
10376,note_off,104,0,0,,10,,,69,127
10377,note_on,1,0,0,,0,,,72,127
10482,note_on,105,0,0,,10,,,69,127
10586,note_off,104,0,0,,10,,,69,127
10587,note_on,1,0,0,,6,,,66,127
10639,note_off,52,0,0,,0,,,72,127
10690,note_off,51,0,0,,6,,,66,127
10691,note_on,1,0,0,,2,,,62,127
10795,note_off,104,0,0,,2,,,62,127
10805,note_on,10,0,0,,7,,,67,127
11041,note_on,236,0,0,,2,,,74,127
11145,note_off,104,0,0,,2,,,74,127
11146,note_on,1,0,0,,12,,,71,127
11223,note_off,77,0,0,,7,,,67,127
11249,note_off,26,0,0,,12,,,71,127
11250,note_on,1,0,0,,7,,,67,127
11458,note_off,208,0,0,,7,,,67,127
11459,note_on,1,0,0,,6,,,66,127
11667,note_off,208,0,0,,6,,,66,127
11668,note_on,1,0,0,,7,,,67,127
11877,note_on,209,0,0,,4,,,64,127
12085,note_off,208,0,0,,4,,,64,127
12085,note_off,0,0,0,,7,,,67,127
12086,note_on,1,0,0,,12,,,71,127
12086,note_on,0,0,0,,0,,,60,127
12155,note_off,69,0,0,,12,,,71,127
12156,note_on,1,0,0,,10,,,69,127
12225,note_off,69,0,0,,10,,,69,127
12226,note_on,1,0,0,,12,,,71,127
12295,note_off,69,0,0,,12,,,71,127
12295,note_off,0,0,0,,0,,,60,127
12296,note_on,1,0,0,,10,,,69,127
12296,note_on,0,0,0,,2,,,62,127
12365,note_off,69,0,0,,10,,,69,127
12366,note_on,1,0,0,,7,,,67,127
12435,note_off,69,0,0,,7,,,67,127
12436,note_on,1,0,0,,10,,,69,127
12505,note_off,69,0,0,,10,,,69,127
12505,note_off,0,0,0,,2,,,62,127
12506,note_on,1,0,0,,12,,,71,127
12506,note_on,0,0,0,,7,,,55,127
12708,note_off,202,0,0,,12,,,71,127
12716,note_on,8,0,0,,7,,,79,127
12820,note_off,104,0,0,,7,,,79,127
12821,note_on,1,0,0,,12,,,71,127
12925,note_off,104,0,0,,12,,,71,127
12926,note_on,1,0,0,,7,,,67,127
13134,note_off,208,0,0,,7,,,67,127
13134,note_off,0,0,0,,7,,,55,127
13135,note_on,1,0,0,,6,,,66,127
13343,note_off,208,0,0,,6,,,66,127
13344,note_on,1,0,0,,4,,,64,127
13553,note_on,209,0,0,,0,,,60,127
13736,note_off,183,0,0,,4,,,64,127
13761,note_off,25,0,0,,0,,,60,127
13762,note_on,1,0,0,,7,,,67,127
13762,note_on,0,0,0,,2,,,62,127
13831,note_off,69,0,0,,7,,,67,127
13832,note_on,1,0,0,,6,,,66,127
13901,note_off,69,0,0,,6,,,66,127
13902,note_on,1,0,0,,7,,,67,127
13971,note_off,69,0,0,,7,,,67,127
13971,note_off,0,0,0,,2,,,62,127
13972,note_on,1,0,0,,6,,,66,127
13972,note_on,0,0,0,,2,,,50,127
14041,note_off,69,0,0,,6,,,66,127
14042,note_on,1,0,0,,4,,,64,127
14111,note_off,69,0,0,,4,,,64,127
14112,note_on,1,0,0,,6,,,66,127
14181,note_off,69,0,0,,6,,,66,127
14181,note_off,0,0,0,,2,,,50,127
14182,note_on,1,0,0,,7,,,67,127
14182,note_on,0,0,0,,7,,,55,127
14304,note_on,122,0,0,,2,,,74,127
14389,note_off,85,0,0,,7,,,67,127
14408,note_off,19,0,0,,2,,,74,127
14409,note_on,1,0,0,,2,,,74,127
14409,note_on,0,0,0,,0,,,72,127
14513,note_off,104,0,0,,0,,,72,127
14513,note_off,0,0,0,,2,,,74,127
14514,note_on,1,0,0,,12,,,71,127
14600,note_off,86,0,0,,7,,,55,127
14617,note_off,17,0,0,,12,,,71,127
14618,note_on,1,0,0,,0,,,72,127
14723,note_on,105,0,0,,10,,,69,127
14827,note_off,104,0,0,,10,,,69,127
14828,note_on,1,0,0,,6,,,66,127
14932,note_off,104,0,0,,6,,,66,127
14933,note_on,1,0,0,,2,,,62,127
15037,note_off,104,0,0,,2,,,62,127
15038,note_on,1,0,0,,7,,,67,127
15142,note_off,104,0,0,,0,,,72,127
15143,note_on,1,0,0,,12,,,71,127
15247,note_off,104,0,0,,12,,,71,127
15248,note_on,1,0,0,,12,,,71,127
15248,note_on,0,0,0,,10,,,69,127
15352,note_off,104,0,0,,10,,,69,127
15352,note_off,0,0,0,,12,,,71,127
15352,note_off,0,0,0,,7,,,67,127
15353,note_on,1,0,0,,7,,,67,127
15457,note_off,104,0,0,,7,,,67,127
15458,note_on,1,0,0,,0,,,72,127
15563,note_on,105,0,0,,10,,,69,127
15667,note_off,104,0,0,,10,,,69,127
15668,note_on,1,0,0,,6,,,66,127
15772,note_off,104,0,0,,6,,,66,127
15773,note_on,1,0,0,,2,,,62,127
15877,note_off,104,0,0,,2,,,62,127
15878,note_on,1,0,0,,7,,,67,127
15982,note_off,104,0,0,,0,,,72,127
15983,note_on,1,0,0,,12,,,71,127
16087,note_off,104,0,0,,12,,,71,127
16088,note_on,1,0,0,,12,,,71,127
16088,note_on,0,0,0,,10,,,69,127
16192,note_off,104,0,0,,10,,,69,127
16192,note_off,0,0,0,,12,,,71,127
16192,note_off,0,0,0,,7,,,67,127
16193,note_on,1,0,0,,7,,,67,127
16297,note_off,104,0,0,,7,,,67,127
16298,note_on,1,0,0,,2,,,74,127
16403,note_on,105,0,0,,5,,,65,127
16507,note_off,104,0,0,,5,,,65,127
16508,note_on,1,0,0,,4,,,64,127
16612,note_off,104,0,0,,4,,,64,127
16613,note_on,1,0,0,,2,,,62,127
16717,note_off,104,0,0,,2,,,62,127
16718,note_on,1,0,0,,4,,,64,127
16822,note_off,104,0,0,,2,,,74,127
16823,note_on,1,0,0,,12,,,71,127
16927,note_off,104,0,0,,12,,,71,127
16928,note_on,1,0,0,,0,,,72,127
17032,note_off,104,0,0,,4,,,64,127
17033,note_on,1,0,0,,10,,,69,127
17137,note_off,104,0,0,,10,,,69,127
17138,note_on,1,0,0,,2,,,62,127
17242,note_off,104,0,0,,0,,,72,127
17243,note_on,1,0,0,,12,,,71,127
17347,note_off,104,0,0,,12,,,71,127
17348,note_on,1,0,0,,5,,,77,127
17452,note_off,104,0,0,,2,,,62,127
17453,note_on,1,0,0,,7,,,67,127
17557,note_off,104,0,0,,5,,,77,127
17567,note_off,10,0,0,,7,,,67,127
17576,note_on,9,0,0,,4,,,64,127
17576,note_on,0,0,0,,0,,,60,127
17681,note_on,105,0,0,,4,,,76,127
17731,note_off,50,0,0,,4,,,64,127
17784,note_off,53,0,0,,0,,,60,127
17785,note_on,1,0,0,,5,,,65,127
17785,note_on,0,0,0,,2,,,62,127
17835,note_off,50,0,0,,4,,,76,127
17890,note_on,55,0,0,,4,,,76,127
17940,note_off,50,0,0,,5,,,65,127
17993,note_off,53,0,0,,2,,,62,127
17994,note_on,1,0,0,,7,,,67,127
17994,note_on,0,0,0,,4,,,64,127
18044,note_off,50,0,0,,4,,,76,127
18099,note_on,55,0,0,,4,,,76,127
18149,note_off,50,0,0,,7,,,67,127
18202,note_off,53,0,0,,4,,,64,127
18203,note_on,1,0,0,,10,,,69,127
18203,note_on,0,0,0,,5,,,65,127
18253,note_off,50,0,0,,4,,,76,127
18308,note_on,55,0,0,,4,,,76,127
18358,note_off,50,0,0,,10,,,69,127
18411,note_off,53,0,0,,5,,,65,127
18412,note_on,1,0,0,,12,,,71,127
18412,note_on,0,0,0,,7,,,67,127
18462,note_off,50,0,0,,4,,,76,127
18517,note_on,55,0,0,,4,,,76,127
18567,note_off,50,0,0,,12,,,71,127
18620,note_off,53,0,0,,7,,,67,127
18621,note_on,1,0,0,,10,,,69,127
18621,note_on,0,0,0,,5,,,65,127
18671,note_off,50,0,0,,4,,,76,127
18726,note_on,55,0,0,,4,,,76,127
18776,note_off,50,0,0,,10,,,69,127
18829,note_off,53,0,0,,5,,,65,127
18830,note_on,1,0,0,,7,,,67,127
18830,note_on,0,0,0,,4,,,64,127
18880,note_off,50,0,0,,4,,,76,127
18935,note_on,55,0,0,,4,,,76,127
18985,note_off,50,0,0,,7,,,67,127
19038,note_off,53,0,0,,4,,,64,127
19039,note_on,1,0,0,,5,,,65,127
19039,note_on,0,0,0,,2,,,62,127
19089,note_off,50,0,0,,4,,,76,127
19144,note_on,55,0,0,,4,,,76,127
19194,note_off,50,0,0,,5,,,65,127
19247,note_off,53,0,0,,2,,,62,127
19248,note_on,1,0,0,,4,,,64,127
19248,note_on,0,0,0,,0,,,60,127
19298,note_off,50,0,0,,4,,,76,127
19353,note_on,55,0,0,,4,,,76,127
19403,note_off,50,0,0,,4,,,64,127
19456,note_off,53,0,0,,0,,,60,127
19457,note_on,1,0,0,,5,,,65,127
19457,note_on,0,0,0,,2,,,62,127
19507,note_off,50,0,0,,4,,,76,127
19562,note_on,55,0,0,,4,,,76,127
19612,note_off,50,0,0,,5,,,65,127
19665,note_off,53,0,0,,2,,,62,127
19666,note_on,1,0,0,,7,,,67,127
19666,note_on,0,0,0,,4,,,64,127
19716,note_off,50,0,0,,4,,,76,127
19771,note_on,55,0,0,,4,,,76,127
19821,note_off,50,0,0,,7,,,67,127
19874,note_off,53,0,0,,4,,,64,127
19875,note_on,1,0,0,,10,,,69,127
19875,note_on,0,0,0,,5,,,65,127
19925,note_off,50,0,0,,4,,,76,127
19980,note_on,55,0,0,,4,,,76,127
20030,note_off,50,0,0,,10,,,69,127
20083,note_off,53,0,0,,5,,,65,127
20084,note_on,1,0,0,,12,,,71,127
20084,note_on,0,0,0,,7,,,67,127
20134,note_off,50,0,0,,4,,,76,127
20189,note_on,55,0,0,,4,,,76,127
20239,note_off,50,0,0,,12,,,71,127
20292,note_off,53,0,0,,7,,,67,127
20293,note_on,1,0,0,,10,,,69,127
20293,note_on,0,0,0,,5,,,65,127
20343,note_off,50,0,0,,4,,,76,127
20398,note_on,55,0,0,,4,,,76,127
20448,note_off,50,0,0,,10,,,69,127
20501,note_off,53,0,0,,5,,,65,127
20502,note_on,1,0,0,,7,,,67,127
20502,note_on,0,0,0,,4,,,64,127
20552,note_off,50,0,0,,4,,,76,127
20607,note_on,55,0,0,,4,,,76,127
20657,note_off,50,0,0,,7,,,67,127
20710,note_off,53,0,0,,4,,,64,127
20711,note_on,1,0,0,,5,,,65,127
20711,note_on,0,0,0,,2,,,62,127
20761,note_off,50,0,0,,4,,,76,127
20816,note_on,55,0,0,,4,,,76,127
20879,note_off,63,0,0,,5,,,65,127
20929,note_on,50,0,0,,4,,,64,127
20929,note_on,0,0,0,,1,,,61,127
20938,note_off,9,0,0,,2,,,62,127
20971,note_off,33,0,0,,4,,,76,127
21034,note_on,63,0,0,,4,,,76,127
21084,note_off,50,0,0,,4,,,64,127
21137,note_off,53,0,0,,1,,,61,127
21138,note_on,1,0,0,,5,,,65,127
21138,note_on,0,0,0,,2,,,62,127
21188,note_off,50,0,0,,4,,,76,127
21243,note_on,55,0,0,,4,,,76,127
21293,note_off,50,0,0,,5,,,65,127
21346,note_off,53,0,0,,2,,,62,127
21347,note_on,1,0,0,,7,,,67,127
21347,note_on,0,0,0,,4,,,64,127
21397,note_off,50,0,0,,4,,,76,127
21452,note_on,55,0,0,,4,,,76,127
21502,note_off,50,0,0,,7,,,67,127
21555,note_off,53,0,0,,4,,,64,127
21556,note_on,1,0,0,,10,,,69,127
21556,note_on,0,0,0,,5,,,65,127
21606,note_off,50,0,0,,4,,,76,127
21661,note_on,55,0,0,,4,,,76,127
21711,note_off,50,0,0,,10,,,69,127
21764,note_off,53,0,0,,5,,,65,127
21765,note_on,1,0,0,,11,,,70,127
21765,note_on,0,0,0,,7,,,67,127
21815,note_off,50,0,0,,4,,,76,127
21870,note_on,55,0,0,,4,,,76,127
21920,note_off,50,0,0,,11,,,70,127
21973,note_off,53,0,0,,7,,,67,127
21974,note_on,1,0,0,,10,,,69,127
21974,note_on,0,0,0,,5,,,65,127
22024,note_off,50,0,0,,4,,,76,127
22079,note_on,55,0,0,,4,,,76,127
22129,note_off,50,0,0,,10,,,69,127
22182,note_off,53,0,0,,5,,,65,127
22183,note_on,1,0,0,,7,,,67,127
22183,note_on,0,0,0,,4,,,64,127
22233,note_off,50,0,0,,4,,,76,127
22288,note_on,55,0,0,,4,,,76,127
22338,note_off,50,0,0,,7,,,67,127
22391,note_off,53,0,0,,4,,,64,127
22392,note_on,1,0,0,,5,,,65,127
22392,note_on,0,0,0,,2,,,62,127
22442,note_off,50,0,0,,4,,,76,127
22497,note_on,55,0,0,,4,,,76,127
22547,note_off,50,0,0,,5,,,65,127
22600,note_off,53,0,0,,2,,,62,127
22601,note_on,1,0,0,,4,,,64,127
22601,note_on,0,0,0,,1,,,61,127
22651,note_off,50,0,0,,4,,,76,127
22706,note_on,55,0,0,,4,,,76,127
22756,note_off,50,0,0,,4,,,64,127
22809,note_off,53,0,0,,1,,,61,127
22810,note_on,1,0,0,,5,,,65,127
22810,note_on,0,0,0,,2,,,62,127
22860,note_off,50,0,0,,4,,,76,127
22915,note_on,55,0,0,,4,,,76,127
22965,note_off,50,0,0,,5,,,65,127
23018,note_off,53,0,0,,2,,,62,127
23019,note_on,1,0,0,,7,,,67,127
23019,note_on,0,0,0,,4,,,64,127
23069,note_off,50,0,0,,4,,,76,127
23124,note_on,55,0,0,,4,,,76,127
23174,note_off,50,0,0,,7,,,67,127
23227,note_off,53,0,0,,4,,,64,127
23228,note_on,1,0,0,,10,,,69,127
23228,note_on,0,0,0,,5,,,65,127
23278,note_off,50,0,0,,4,,,76,127
23333,note_on,55,0,0,,4,,,76,127
23383,note_off,50,0,0,,10,,,69,127
23436,note_off,53,0,0,,5,,,65,127
23437,note_on,1,0,0,,11,,,70,127
23437,note_on,0,0,0,,7,,,67,127
23487,note_off,50,0,0,,4,,,76,127
23542,note_on,55,0,0,,4,,,76,127
23592,note_off,50,0,0,,11,,,70,127
23645,note_off,53,0,0,,7,,,67,127
23646,note_on,1,0,0,,10,,,69,127
23646,note_on,0,0,0,,5,,,65,127
23696,note_off,50,0,0,,4,,,76,127
23751,note_on,55,0,0,,4,,,76,127
23801,note_off,50,0,0,,10,,,69,127
23854,note_off,53,0,0,,5,,,65,127
23855,note_on,1,0,0,,7,,,67,127
23855,note_on,0,0,0,,4,,,64,127
23905,note_off,50,0,0,,4,,,76,127
23960,note_on,55,0,0,,4,,,76,127
24010,note_off,50,0,0,,7,,,67,127
24063,note_off,53,0,0,,4,,,64,127
24064,note_on,1,0,0,,5,,,65,127
24064,note_on,0,0,0,,2,,,62,127
24114,note_off,50,0,0,,4,,,76,127
24176,note_on,62,0,0,,4,,,76,127
24231,note_off,55,0,0,,5,,,65,127
24283,note_off,52,0,0,,2,,,62,127
24284,note_on,1,0,0,,1,,,61,127
24284,note_on,0,0,0,,4,,,64,127
24331,note_off,47,0,0,,4,,,76,127
24395,note_on,64,0,0,,4,,,76,127
24439,note_off,44,0,0,,4,,,64,127
24492,note_off,53,0,0,,1,,,61,127
24500,note_on,8,0,0,,2,,,62,127
24500,note_on,0,0,0,,5,,,65,127
24550,note_off,50,0,0,,4,,,76,127
24605,note_on,55,0,0,,2,,,74,127
24655,note_off,50,0,0,,5,,,65,127
24708,note_off,53,0,0,,2,,,62,127
24709,note_on,1,0,0,,4,,,64,127
24813,note_off,104,0,0,,2,,,74,127
24814,note_on,1,0,0,,4,,,76,127
24918,note_off,104,0,0,,4,,,76,127
24918,note_off,0,0,0,,4,,,64,127
24919,note_on,1,0,0,,10,,,57,127
24919,note_on,0,0,0,,2,,,74,127
25023,note_off,104,0,0,,2,,,74,127
25024,note_on,1,0,0,,1,,,73,127
25128,note_off,104,0,0,,1,,,73,127
25128,note_off,0,0,0,,10,,,57,127
25129,note_on,1,0,0,,2,,,62,127
25129,note_on,0,0,0,,2,,,74,127
25251,note_on,122,0,0,,7,,,79,127
25336,note_off,85,0,0,,2,,,74,127
25355,note_off,19,0,0,,7,,,79,127
25356,note_on,1,0,0,,5,,,77,127
25356,note_on,0,0,0,,7,,,79,127
25460,note_off,104,0,0,,7,,,79,127
25460,note_off,0,0,0,,5,,,77,127
25461,note_on,1,0,0,,4,,,76,127
25547,note_off,86,0,0,,2,,,62,127
25564,note_off,17,0,0,,4,,,76,127
25565,note_on,1,0,0,,5,,,77,127
25670,note_on,105,0,0,,2,,,74,127
25774,note_off,104,0,0,,2,,,74,127
25775,note_on,1,0,0,,12,,,71,127
25879,note_off,104,0,0,,12,,,71,127
25880,note_on,1,0,0,,7,,,67,127
25984,note_off,104,0,0,,7,,,67,127
25985,note_on,1,0,0,,0,,,72,127
26046,note_off,61,0,0,,5,,,77,127
26090,note_on,44,0,0,,4,,,76,127
26194,note_off,104,0,0,,4,,,76,127
26195,note_on,1,0,0,,2,,,74,127
26195,note_on,0,0,0,,4,,,76,127
26299,note_off,104,0,0,,4,,,76,127
26299,note_off,0,0,0,,2,,,74,127
26299,note_off,0,0,0,,0,,,72,127
26300,note_on,1,0,0,,0,,,72,127
26404,note_off,104,0,0,,0,,,72,127
26405,note_on,1,0,0,,4,,,76,127
26510,note_on,105,0,0,,0,,,72,127
26614,note_off,104,0,0,,0,,,72,127
26615,note_on,1,0,0,,10,,,69,127
26719,note_off,104,0,0,,10,,,69,127
26720,note_on,1,0,0,,6,,,66,127
26824,note_off,104,0,0,,6,,,66,127
26825,note_on,1,0,0,,12,,,71,127
26929,note_off,104,0,0,,4,,,76,127
26930,note_on,1,0,0,,2,,,74,127
27034,note_off,104,0,0,,2,,,74,127
27035,note_on,1,0,0,,0,,,72,127
27035,note_on,0,0,0,,2,,,74,127
27139,note_off,104,0,0,,2,,,74,127
27139,note_off,0,0,0,,0,,,72,127
27139,note_off,0,0,0,,12,,,71,127
27140,note_on,1,0,0,,12,,,71,127
27244,note_off,104,0,0,,12,,,71,127
27245,note_on,1,0,0,,0,,,72,127
27350,note_on,105,0,0,,12,,,71,127
27454,note_off,104,0,0,,12,,,71,127
27455,note_on,1,0,0,,10,,,69,127
27559,note_off,104,0,0,,10,,,69,127
27560,note_off,1,0,0,,0,,,72,127
27568,note_on,8,0,0,,12,,,71,127
27677,note_off,109,0,0,,12,,,71,127
27682,note_on,5,0,0,,7,,,67,127
27682,note_on,0,0,0,,12,,,71,127
27787,note_on,105,0,0,,12,,,83,127
27837,note_off,50,0,0,,12,,,71,127
27890,note_off,53,0,0,,7,,,67,127
27891,note_on,1,0,0,,10,,,69,127
27891,note_on,0,0,0,,0,,,72,127
27941,note_off,50,0,0,,12,,,83,127
27996,note_on,55,0,0,,12,,,83,127
28046,note_off,50,0,0,,0,,,72,127
28099,note_off,53,0,0,,10,,,69,127
28100,note_on,1,0,0,,12,,,71,127
28100,note_on,0,0,0,,2,,,74,127
28150,note_off,50,0,0,,12,,,83,127
28205,note_on,55,0,0,,12,,,83,127
28255,note_off,50,0,0,,2,,,74,127
28308,note_off,53,0,0,,12,,,71,127
28309,note_on,1,0,0,,0,,,72,127
28309,note_on,0,0,0,,4,,,76,127
28359,note_off,50,0,0,,12,,,83,127
28414,note_on,55,0,0,,12,,,83,127
28464,note_off,50,0,0,,4,,,76,127
28517,note_off,53,0,0,,0,,,72,127
28518,note_on,1,0,0,,2,,,74,127
28518,note_on,0,0,0,,5,,,77,127
28568,note_off,50,0,0,,12,,,83,127
28623,note_on,55,0,0,,12,,,83,127
28673,note_off,50,0,0,,5,,,77,127
28726,note_off,53,0,0,,2,,,74,127
28727,note_on,1,0,0,,0,,,72,127
28727,note_on,0,0,0,,4,,,76,127
28777,note_off,50,0,0,,12,,,83,127
28832,note_on,55,0,0,,12,,,83,127
28882,note_off,50,0,0,,4,,,76,127
28935,note_off,53,0,0,,0,,,72,127
28936,note_on,1,0,0,,12,,,71,127
28936,note_on,0,0,0,,2,,,74,127
28986,note_off,50,0,0,,12,,,83,127
29041,note_on,55,0,0,,12,,,83,127
29091,note_off,50,0,0,,2,,,74,127
29144,note_off,53,0,0,,12,,,71,127
29145,note_on,1,0,0,,10,,,69,127
29145,note_on,0,0,0,,0,,,72,127
29195,note_off,50,0,0,,12,,,83,127
29250,note_on,55,0,0,,12,,,83,127
29300,note_off,50,0,0,,0,,,72,127
29353,note_off,53,0,0,,10,,,69,127
29354,note_on,1,0,0,,8,,,68,127
29354,note_on,0,0,0,,12,,,71,127
29404,note_off,50,0,0,,12,,,83,127
29459,note_on,55,0,0,,12,,,83,127
29509,note_off,50,0,0,,12,,,71,127
29562,note_off,53,0,0,,8,,,68,127
29563,note_on,1,0,0,,10,,,69,127
29563,note_on,0,0,0,,0,,,72,127
29613,note_off,50,0,0,,12,,,83,127
29668,note_on,55,0,0,,12,,,83,127
29718,note_off,50,0,0,,0,,,72,127
29771,note_off,53,0,0,,10,,,69,127
29772,note_on,1,0,0,,12,,,71,127
29772,note_on,0,0,0,,2,,,74,127
29822,note_off,50,0,0,,12,,,83,127
29877,note_on,55,0,0,,12,,,83,127
29927,note_off,50,0,0,,2,,,74,127
29980,note_off,53,0,0,,12,,,71,127
29981,note_on,1,0,0,,0,,,72,127
29981,note_on,0,0,0,,4,,,76,127
30031,note_off,50,0,0,,12,,,83,127
30086,note_on,55,0,0,,12,,,83,127
30136,note_off,50,0,0,,4,,,76,127
30189,note_off,53,0,0,,0,,,72,127
30190,note_on,1,0,0,,2,,,74,127
30190,note_on,0,0,0,,5,,,77,127
30240,note_off,50,0,0,,12,,,83,127
30295,note_on,55,0,0,,12,,,83,127
30345,note_off,50,0,0,,5,,,77,127
30398,note_off,53,0,0,,2,,,74,127
30399,note_on,1,0,0,,0,,,72,127
30399,note_on,0,0,0,,4,,,76,127
30449,note_off,50,0,0,,12,,,83,127
30504,note_on,55,0,0,,12,,,83,127
30554,note_off,50,0,0,,4,,,76,127
30607,note_off,53,0,0,,0,,,72,127
30608,note_on,1,0,0,,12,,,71,127
30608,note_on,0,0,0,,2,,,74,127
30658,note_off,50,0,0,,12,,,83,127
30713,note_on,55,0,0,,12,,,83,127
30763,note_off,50,0,0,,2,,,74,127
30816,note_off,53,0,0,,12,,,71,127
30817,note_on,1,0,0,,10,,,69,127
30817,note_on,0,0,0,,0,,,72,127
30867,note_off,50,0,0,,12,,,83,127
30922,note_on,55,0,0,,12,,,83,127
30972,note_off,50,0,0,,0,,,72,127
31025,note_off,53,0,0,,10,,,69,127
31026,note_on,1,0,0,,8,,,68,127
31026,note_on,0,0,0,,12,,,71,127
31076,note_off,50,0,0,,12,,,83,127
31131,note_on,55,0,0,,12,,,83,127
31181,note_off,50,0,0,,12,,,71,127
31234,note_off,53,0,0,,8,,,68,127
31235,note_on,1,0,0,,10,,,69,127
31235,note_on,0,0,0,,0,,,72,127
31285,note_off,50,0,0,,12,,,83,127
31340,note_on,55,0,0,,10,,,81,127
31390,note_off,50,0,0,,0,,,72,127
31443,note_off,53,0,0,,10,,,69,127
31444,note_on,1,0,0,,12,,,71,127
31548,note_off,104,0,0,,10,,,81,127
31549,note_on,1,0,0,,12,,,83,127
31653,note_off,104,0,0,,12,,,83,127
31653,note_off,0,0,0,,12,,,71,127
31654,note_on,1,0,0,,4,,,64,127
31654,note_on,0,0,0,,10,,,81,127
31758,note_off,104,0,0,,10,,,81,127
31759,note_on,1,0,0,,8,,,80,127
31863,note_off,104,0,0,,8,,,80,127
31863,note_off,0,0,0,,4,,,64,127
31873,note_on,10,0,0,,10,,,81,127
31873,note_on,0,0,0,,10,,,69,127
31995,note_on,122,0,0,,4,,,76,127
32002,note_off,7,0,0,,10,,,81,127
32099,note_off,97,0,0,,4,,,76,127
32100,note_on,1,0,0,,1,,,73,127
32189,note_off,89,0,0,,10,,,69,127
32203,note_off,14,0,0,,1,,,73,127
32204,note_on,1,0,0,,10,,,69,127
32308,note_off,104,0,0,,10,,,69,127
32309,note_on,1,0,0,,12,,,71,127
32378,note_off,69,0,0,,12,,,71,127
32379,note_on,1,0,0,,10,,,69,127
32414,note_on,35,0,0,,7,,,67,127
32448,note_off,34,0,0,,10,,,69,127
32449,note_on,1,0,0,,12,,,71,127
32518,note_off,69,0,0,,12,,,71,127
32518,note_off,0,0,0,,7,,,67,127
32519,note_on,1,0,0,,10,,,69,127
32519,note_on,0,0,0,,6,,,66,127
32588,note_off,69,0,0,,10,,,69,127
32589,note_on,1,0,0,,12,,,71,127
32623,note_off,34,0,0,,6,,,66,127
32624,note_on,1,0,0,,4,,,64,127
32658,note_off,34,0,0,,12,,,71,127
32659,note_on,1,0,0,,10,,,69,127
32728,note_off,69,0,0,,10,,,69,127
32729,note_on,1,0,0,,10,,,81,127
32729,note_on,0,0,0,,6,,,66,127
32730,note_off,1,0,0,,4,,,64,127
32833,note_off,103,0,0,,10,,,81,127
32843,note_on,10,0,0,,6,,,78,127
32947,note_off,104,0,0,,6,,,78,127
32948,note_on,1,0,0,,2,,,74,127
33052,note_off,104,0,0,,2,,,74,127
33053,note_on,1,0,0,,10,,,69,127
33157,note_off,104,0,0,,10,,,69,127
33158,note_on,1,0,0,,12,,,71,127
33227,note_off,69,0,0,,12,,,71,127
33228,note_on,1,0,0,,10,,,69,127
33253,note_off,25,0,0,,6,,,66,127
33263,note_on,10,0,0,,6,,,66,127
33297,note_off,34,0,0,,10,,,69,127
33298,note_on,1,0,0,,12,,,71,127
33367,note_off,69,0,0,,12,,,71,127
33367,note_off,0,0,0,,6,,,66,127
33368,note_on,1,0,0,,10,,,69,127
33368,note_on,0,0,0,,4,,,64,127
33437,note_off,69,0,0,,10,,,69,127
33438,note_on,1,0,0,,12,,,71,127
33472,note_off,34,0,0,,4,,,64,127
33473,note_on,1,0,0,,2,,,62,127
33507,note_off,34,0,0,,12,,,71,127
33508,note_on,1,0,0,,10,,,69,127
33577,note_off,69,0,0,,10,,,69,127
33577,note_off,0,0,0,,2,,,62,127
33578,note_on,1,0,0,,1,,,61,127
33578,note_on,0,0,0,,10,,,81,127
33682,note_off,104,0,0,,10,,,81,127
33692,note_on,10,0,0,,4,,,76,127
33796,note_off,104,0,0,,4,,,76,127
33797,note_on,1,0,0,,1,,,73,127
33901,note_off,104,0,0,,1,,,73,127
33902,note_on,1,0,0,,10,,,69,127
34006,note_off,104,0,0,,10,,,69,127
34007,note_on,1,0,0,,12,,,71,127
34076,note_off,69,0,0,,12,,,71,127
34077,note_on,1,0,0,,10,,,69,127
34102,note_off,25,0,0,,1,,,61,127
34112,note_on,10,0,0,,12,,,59,127
34146,note_off,34,0,0,,10,,,69,127
34147,note_on,1,0,0,,12,,,71,127
34216,note_off,69,0,0,,12,,,71,127
34216,note_off,0,0,0,,12,,,59,127
34217,note_on,1,0,0,,10,,,69,127
34217,note_on,0,0,0,,10,,,57,127
34286,note_off,69,0,0,,10,,,69,127
34287,note_on,1,0,0,,12,,,71,127
34321,note_off,34,0,0,,10,,,57,127
34322,note_on,1,0,0,,7,,,55,127
34356,note_off,34,0,0,,12,,,71,127
34357,note_on,1,0,0,,10,,,69,127
34426,note_off,69,0,0,,10,,,69,127
34426,note_off,0,0,0,,7,,,55,127
34427,note_on,1,0,0,,10,,,81,127
34436,note_on,9,0,0,,6,,,54,127
34531,note_off,95,0,0,,10,,,81,127
34541,note_on,10,0,0,,6,,,78,127
34645,note_off,104,0,0,,6,,,78,127
34646,note_on,1,0,0,,2,,,74,127
34750,note_off,104,0,0,,2,,,74,127
34751,note_on,1,0,0,,10,,,69,127
34855,note_off,104,0,0,,10,,,69,127
34856,note_on,1,0,0,,12,,,71,127
34925,note_off,69,0,0,,12,,,71,127
34926,note_on,1,0,0,,10,,,69,127
34960,note_off,34,0,0,,6,,,54,127
34961,note_on,1,0,0,,6,,,66,127
34995,note_off,34,0,0,,10,,,69,127
34996,note_on,1,0,0,,12,,,71,127
35065,note_off,69,0,0,,12,,,71,127
35065,note_off,0,0,0,,6,,,66,127
35066,note_on,1,0,0,,10,,,69,127
35066,note_on,0,0,0,,4,,,64,127
35135,note_off,69,0,0,,10,,,69,127
35136,note_on,1,0,0,,12,,,71,127
35170,note_off,34,0,0,,4,,,64,127
35171,note_on,1,0,0,,2,,,62,127
35205,note_off,34,0,0,,12,,,71,127
35206,note_on,1,0,0,,10,,,69,127
35275,note_off,69,0,0,,10,,,69,127
35275,note_off,0,0,0,,2,,,62,127
35276,note_on,1,0,0,,10,,,81,127
35276,note_on,0,0,0,,1,,,61,127
35380,note_off,104,0,0,,10,,,81,127
35381,note_on,1,0,0,,4,,,76,127
35485,note_off,104,0,0,,4,,,76,127
35486,note_on,1,0,0,,1,,,73,127
35590,note_off,104,0,0,,1,,,73,127
35591,note_on,1,0,0,,10,,,69,127
35695,note_off,104,0,0,,10,,,69,127
35696,note_on,1,0,0,,12,,,71,127
35756,note_on,60,0,0,,10,,,69,127
35765,note_off,9,0,0,,12,,,71,127
35800,note_off,35,0,0,,1,,,61,127
35801,note_on,1,0,0,,7,,,67,127
35816,note_on,15,0,0,,12,,,71,127
35825,note_off,9,0,0,,10,,,69,127
35876,note_on,51,0,0,,10,,,69,127
35885,note_off,9,0,0,,12,,,71,127
35905,note_off,20,0,0,,7,,,67,127
35906,note_on,1,0,0,,6,,,66,127
35937,note_on,31,0,0,,12,,,71,127
35946,note_off,9,0,0,,10,,,69,127
35997,note_on,51,0,0,,10,,,69,127
36006,note_off,9,0,0,,12,,,71,127
36010,note_off,4,0,0,,6,,,66,127
36011,note_on,1,0,0,,4,,,64,127
36057,note_on,46,0,0,,12,,,71,127
36066,note_off,9,0,0,,10,,,69,127
36115,note_off,49,0,0,,12,,,71,127
36120,note_off,5,0,0,,4,,,64,127
36124,note_on,4,0,0,,10,,,69,127
36124,note_on,0,0,0,,6,,,66,127
36246,note_on,122,0,0,,10,,,81,127
36279,note_off,33,0,0,,10,,,69,127
36332,note_off,53,0,0,,6,,,66,127
36351,note_on,19,0,0,,7,,,67,127
36351,note_on,0,0,0,,12,,,71,127
36401,note_off,50,0,0,,10,,,81,127
36456,note_on,55,0,0,,10,,,81,127
36506,note_off,50,0,0,,12,,,71,127
36559,note_off,53,0,0,,7,,,67,127
36560,note_on,1,0,0,,10,,,69,127
36560,note_on,0,0,0,,1,,,73,127
36610,note_off,50,0,0,,10,,,81,127
36665,note_on,55,0,0,,10,,,81,127
36715,note_off,50,0,0,,1,,,73,127
36768,note_off,53,0,0,,10,,,69,127
36769,note_on,1,0,0,,12,,,71,127
36769,note_on,0,0,0,,2,,,74,127
36819,note_off,50,0,0,,10,,,81,127
36874,note_on,55,0,0,,10,,,81,127
36924,note_off,50,0,0,,2,,,74,127
36977,note_off,53,0,0,,12,,,71,127
36978,note_on,1,0,0,,1,,,73,127
36978,note_on,0,0,0,,4,,,76,127
37028,note_off,50,0,0,,10,,,81,127
37083,note_on,55,0,0,,10,,,81,127
37133,note_off,50,0,0,,4,,,76,127
37186,note_off,53,0,0,,1,,,73,127
37187,note_on,1,0,0,,2,,,74,127
37187,note_on,0,0,0,,6,,,78,127
37237,note_off,50,0,0,,10,,,81,127
37292,note_on,55,0,0,,10,,,81,127
37342,note_off,50,0,0,,6,,,78,127
37395,note_off,53,0,0,,2,,,74,127
37396,note_on,1,0,0,,4,,,76,127
37396,note_on,0,0,0,,7,,,79,127
37446,note_off,50,0,0,,10,,,81,127
37501,note_on,55,0,0,,10,,,81,127
37551,note_off,50,0,0,,7,,,79,127
37604,note_off,53,0,0,,4,,,76,127
37605,note_on,1,0,0,,1,,,73,127
37605,note_on,0,0,0,,4,,,76,127
37655,note_off,50,0,0,,10,,,81,127
37710,note_on,55,0,0,,10,,,81,127
37760,note_off,50,0,0,,4,,,76,127
37813,note_off,53,0,0,,10,,,81,127
37813,note_off,0,0,0,,1,,,73,127
37832,note_on,19,0,0,,2,,,86,127
37832,note_on,0,0,0,,2,,,74,127
37937,note_on,105,0,0,,10,,,81,127
37947,note_off,10,0,0,,2,,,86,127
38041,note_off,94,0,0,,10,,,81,127
38042,note_on,1,0,0,,6,,,78,127
38146,note_off,104,0,0,,6,,,78,127
38146,note_off,0,0,0,,2,,,74,127
38147,note_on,1,0,0,,2,,,74,127
38251,note_off,104,0,0,,2,,,74,127
38252,note_on,1,0,0,,4,,,76,127
38321,note_off,69,0,0,,4,,,76,127
38322,note_on,1,0,0,,2,,,74,127
38357,note_on,35,0,0,,0,,,72,127
38391,note_off,34,0,0,,2,,,74,127
38392,note_on,1,0,0,,4,,,76,127
38461,note_off,69,0,0,,4,,,76,127
38461,note_off,0,0,0,,0,,,72,127
38462,note_on,1,0,0,,2,,,74,127
38462,note_on,0,0,0,,12,,,71,127
38531,note_off,69,0,0,,2,,,74,127
38532,note_on,1,0,0,,4,,,76,127
38566,note_off,34,0,0,,12,,,71,127
38567,note_on,1,0,0,,10,,,69,127
38601,note_off,34,0,0,,4,,,76,127
38602,note_on,1,0,0,,2,,,74,127
38671,note_off,69,0,0,,2,,,74,127
38672,note_on,1,0,0,,2,,,86,127
38672,note_on,0,0,0,,12,,,71,127
38674,note_off,2,0,0,,10,,,69,127
38785,note_on,111,0,0,,12,,,83,127
38786,note_off,1,0,0,,2,,,86,127
38889,note_off,103,0,0,,12,,,83,127
38890,note_on,1,0,0,,7,,,79,127
38994,note_off,104,0,0,,7,,,79,127
38995,note_on,1,0,0,,2,,,74,127
39099,note_off,104,0,0,,2,,,74,127
39100,note_on,1,0,0,,4,,,76,127
39169,note_off,69,0,0,,4,,,76,127
39170,note_on,1,0,0,,2,,,74,127
39195,note_off,25,0,0,,12,,,71,127
39205,note_on,10,0,0,,12,,,71,127
39239,note_off,34,0,0,,2,,,74,127
39240,note_on,1,0,0,,4,,,76,127
39309,note_off,69,0,0,,4,,,76,127
39309,note_off,0,0,0,,12,,,71,127
39310,note_on,1,0,0,,2,,,74,127
39310,note_on,0,0,0,,10,,,69,127
39379,note_off,69,0,0,,2,,,74,127
39380,note_on,1,0,0,,4,,,76,127
39414,note_off,34,0,0,,10,,,69,127
39415,note_on,1,0,0,,7,,,67,127
39449,note_off,34,0,0,,4,,,76,127
39450,note_on,1,0,0,,2,,,74,127
39519,note_off,69,0,0,,2,,,74,127
39519,note_off,0,0,0,,7,,,67,127
39520,note_on,1,0,0,,6,,,66,127
39520,note_on,0,0,0,,2,,,86,127
39633,note_on,113,0,0,,10,,,81,127
39634,note_off,1,0,0,,2,,,86,127
39737,note_off,103,0,0,,10,,,81,127
39738,note_on,1,0,0,,6,,,78,127
39842,note_off,104,0,0,,6,,,78,127
39843,note_on,1,0,0,,2,,,74,127
39947,note_off,104,0,0,,2,,,74,127
39948,note_on,1,0,0,,4,,,76,127
40017,note_off,69,0,0,,4,,,76,127
40018,note_on,1,0,0,,2,,,74,127
40043,note_off,25,0,0,,6,,,66,127
40053,note_on,10,0,0,,4,,,64,127
40087,note_off,34,0,0,,2,,,74,127
40088,note_on,1,0,0,,4,,,76,127
40157,note_off,69,0,0,,4,,,76,127
40157,note_off,0,0,0,,4,,,64,127
40158,note_on,1,0,0,,2,,,74,127
40158,note_on,0,0,0,,2,,,62,127
40227,note_off,69,0,0,,2,,,74,127
40228,note_on,1,0,0,,4,,,76,127
40262,note_off,34,0,0,,2,,,62,127
40263,note_on,1,0,0,,0,,,60,127
40297,note_off,34,0,0,,4,,,76,127
40298,note_on,1,0,0,,2,,,74,127
40367,note_off,69,0,0,,0,,,60,127
40368,note_on,1,0,0,,12,,,59,127
40368,note_on,0,0,0,,2,,,86,127
40378,note_off,10,0,0,,2,,,74,127
40482,note_on,104,0,0,,12,,,83,127
40483,note_off,1,0,0,,2,,,86,127
40586,note_off,103,0,0,,12,,,83,127
40587,note_on,1,0,0,,7,,,79,127
40691,note_off,104,0,0,,7,,,79,127
40692,note_on,1,0,0,,2,,,74,127
40796,note_off,104,0,0,,2,,,74,127
40797,note_on,1,0,0,,4,,,76,127
40866,note_off,69,0,0,,4,,,76,127
40867,note_on,1,0,0,,2,,,74,127
40892,note_off,25,0,0,,12,,,59,127
40902,note_on,10,0,0,,12,,,71,127
40936,note_off,34,0,0,,2,,,74,127
40937,note_on,1,0,0,,4,,,76,127
41006,note_off,69,0,0,,4,,,76,127
41006,note_off,0,0,0,,12,,,71,127
41007,note_on,1,0,0,,2,,,74,127
41007,note_on,0,0,0,,10,,,69,127
41076,note_off,69,0,0,,2,,,74,127
41077,note_on,1,0,0,,4,,,76,127
41111,note_off,34,0,0,,10,,,69,127
41112,note_on,1,0,0,,7,,,67,127
41146,note_off,34,0,0,,4,,,76,127
41147,note_on,1,0,0,,2,,,74,127
41216,note_off,69,0,0,,7,,,67,127
41232,note_off,16,0,0,,2,,,74,127
41252,note_on,20,0,0,,10,,,69,127
41252,note_on,0,0,0,,6,,,66,127
41357,note_on,105,0,0,,10,,,81,127
41407,note_off,50,0,0,,10,,,69,127
41460,note_off,53,0,0,,6,,,66,127
41461,note_on,1,0,0,,12,,,71,127
41461,note_on,0,0,0,,7,,,67,127
41511,note_off,50,0,0,,10,,,81,127
41566,note_on,55,0,0,,10,,,81,127
41616,note_off,50,0,0,,12,,,71,127
41669,note_off,53,0,0,,7,,,67,127
41670,note_on,1,0,0,,0,,,72,127
41670,note_on,0,0,0,,10,,,69,127
41720,note_off,50,0,0,,10,,,81,127
41775,note_on,55,0,0,,10,,,81,127
41825,note_off,50,0,0,,0,,,72,127
41878,note_off,53,0,0,,10,,,69,127
41879,note_on,1,0,0,,10,,,69,127
41879,note_on,0,0,0,,6,,,66,127
41929,note_off,50,0,0,,10,,,81,127
41984,note_on,55,0,0,,10,,,81,127
42034,note_off,50,0,0,,10,,,69,127
42087,note_off,53,0,0,,6,,,66,127
42088,note_on,1,0,0,,12,,,71,127
42088,note_on,0,0,0,,7,,,67,127
42138,note_off,50,0,0,,10,,,81,127
42193,note_on,55,0,0,,7,,,79,127
42243,note_off,50,0,0,,12,,,71,127
42296,note_off,53,0,0,,7,,,67,127
42297,note_on,1,0,0,,0,,,72,127
42297,note_on,0,0,0,,10,,,69,127
42347,note_off,50,0,0,,7,,,79,127
42402,note_on,55,0,0,,7,,,79,127
42452,note_off,50,0,0,,0,,,72,127
42505,note_off,53,0,0,,10,,,69,127
42506,note_on,1,0,0,,2,,,74,127
42506,note_on,0,0,0,,12,,,71,127
42556,note_off,50,0,0,,7,,,79,127
42611,note_on,55,0,0,,7,,,79,127
42661,note_off,50,0,0,,2,,,74,127
42714,note_off,53,0,0,,12,,,71,127
42715,note_on,1,0,0,,3,,,75,127
42715,note_on,0,0,0,,0,,,72,127
42765,note_off,50,0,0,,7,,,79,127
42820,note_on,55,0,0,,7,,,79,127
42870,note_off,50,0,0,,3,,,75,127
42923,note_off,53,0,0,,0,,,72,127
42933,note_on,10,0,0,,2,,,74,127
42933,note_on,0,0,0,,12,,,71,127
42974,note_off,41,0,0,,7,,,79,127
43046,note_on,72,0,0,,2,,,86,127
43087,note_off,41,0,0,,2,,,74,127
43140,note_off,53,0,0,,12,,,71,127
43150,note_on,10,0,0,,12,,,71,127
43150,note_on,0,0,0,,2,,,74,127
43200,note_off,50,0,0,,2,,,86,127
43255,note_on,55,0,0,,2,,,86,127
43305,note_off,50,0,0,,2,,,74,127
43358,note_off,53,0,0,,12,,,71,127
43359,note_on,1,0,0,,0,,,72,127
43359,note_on,0,0,0,,3,,,75,127
43409,note_off,50,0,0,,2,,,86,127
43464,note_on,55,0,0,,2,,,86,127
43514,note_off,50,0,0,,3,,,75,127
43567,note_off,53,0,0,,0,,,72,127
43568,note_on,1,0,0,,5,,,65,127
43568,note_on,0,0,0,,5,,,77,127
43618,note_off,50,0,0,,2,,,86,127
43673,note_on,55,0,0,,2,,,86,127
43723,note_off,50,0,0,,5,,,77,127
43776,note_off,53,0,0,,5,,,65,127
43777,note_on,1,0,0,,7,,,67,127
43777,note_on,0,0,0,,2,,,74,127
43827,note_off,50,0,0,,2,,,86,127
43882,note_on,55,0,0,,2,,,86,127
43932,note_off,50,0,0,,2,,,74,127
43985,note_off,53,0,0,,7,,,67,127
43986,note_on,1,0,0,,12,,,71,127
43986,note_on,0,0,0,,2,,,74,127
44036,note_off,50,0,0,,2,,,86,127
44091,note_on,55,0,0,,2,,,86,127
44141,note_off,50,0,0,,2,,,74,127
44194,note_off,53,0,0,,12,,,71,127
44195,note_on,1,0,0,,0,,,72,127
44195,note_on,0,0,0,,3,,,75,127
44245,note_off,50,0,0,,2,,,86,127
44300,note_on,55,0,0,,2,,,86,127
44350,note_off,50,0,0,,3,,,75,127
44403,note_off,53,0,0,,0,,,72,127
44404,note_on,1,0,0,,5,,,65,127
44404,note_on,0,0,0,,5,,,77,127
44454,note_off,50,0,0,,2,,,86,127
44509,note_on,55,0,0,,2,,,86,127
44559,note_off,50,0,0,,5,,,77,127
44612,note_off,53,0,0,,5,,,65,127
44613,note_on,1,0,0,,7,,,67,127
44613,note_on,0,0,0,,2,,,74,127
44663,note_off,50,0,0,,2,,,86,127
44718,note_on,55,0,0,,2,,,86,127
44768,note_off,50,0,0,,2,,,74,127
44821,note_off,53,0,0,,7,,,67,127
44822,note_on,1,0,0,,12,,,71,127
44822,note_on,0,0,0,,2,,,74,127
44872,note_off,50,0,0,,2,,,86,127
44927,note_on,55,0,0,,2,,,86,127
44977,note_off,50,0,0,,2,,,74,127
45030,note_off,53,0,0,,12,,,71,127
45031,note_on,1,0,0,,0,,,72,127
45031,note_on,0,0,0,,3,,,75,127
45081,note_off,50,0,0,,2,,,86,127
45136,note_on,55,0,0,,2,,,86,127
45186,note_off,50,0,0,,3,,,75,127
45239,note_off,53,0,0,,0,,,72,127
45240,note_on,1,0,0,,5,,,65,127
45240,note_on,0,0,0,,5,,,77,127
45290,note_off,50,0,0,,2,,,86,127
45345,note_on,55,0,0,,2,,,86,127
45395,note_off,50,0,0,,5,,,77,127
45448,note_off,53,0,0,,5,,,65,127
45449,note_on,1,0,0,,7,,,67,127
45449,note_on,0,0,0,,2,,,74,127
45499,note_off,50,0,0,,2,,,86,127
45554,note_on,55,0,0,,2,,,86,127
45604,note_off,50,0,0,,2,,,74,127
45657,note_off,53,0,0,,7,,,67,127
45658,note_on,1,0,0,,12,,,71,127
45658,note_on,0,0,0,,2,,,74,127
45708,note_off,50,0,0,,2,,,86,127
45763,note_on,55,0,0,,2,,,86,127
45813,note_off,50,0,0,,2,,,74,127
45866,note_off,53,0,0,,12,,,71,127
45867,note_on,1,0,0,,8,,,68,127
45867,note_on,0,0,0,,3,,,75,127
45917,note_off,50,0,0,,2,,,86,127
45972,note_on,55,0,0,,0,,,84,127
46022,note_off,50,0,0,,3,,,75,127
46075,note_off,53,0,0,,8,,,68,127
46076,note_on,1,0,0,,5,,,65,127
46076,note_on,0,0,0,,5,,,77,127
46126,note_off,50,0,0,,0,,,84,127
46181,note_on,55,0,0,,0,,,84,127
46231,note_off,50,0,0,,5,,,77,127
46284,note_off,53,0,0,,5,,,65,127
46285,note_on,1,0,0,,12,,,71,127
46285,note_on,0,0,0,,7,,,67,127
46285,note_on,0,0,0,,2,,,74,127
46335,note_off,50,0,0,,0,,,84,127
46390,note_on,55,0,0,,12,,,83,127
46440,note_off,50,0,0,,2,,,74,127
46493,note_off,53,0,0,,7,,,67,127
46493,note_off,0,0,0,,12,,,71,127
46494,note_on,1,0,0,,12,,,71,127
46494,note_on,0,0,0,,7,,,67,127
46494,note_on,0,0,0,,2,,,74,127
46544,note_off,50,0,0,,12,,,83,127
46599,note_on,55,0,0,,12,,,83,127
46649,note_off,50,0,0,,2,,,74,127
46702,note_off,53,0,0,,7,,,67,127
46702,note_off,0,0,0,,12,,,71,127
46703,note_on,1,0,0,,8,,,68,127
46703,note_on,0,0,0,,0,,,72,127
46703,note_on,0,0,0,,3,,,75,127
46753,note_off,50,0,0,,12,,,83,127
46808,note_on,55,0,0,,0,,,84,127
46858,note_off,50,0,0,,3,,,75,127
46911,note_off,53,0,0,,0,,,72,127
46911,note_off,0,0,0,,8,,,68,127
46912,note_on,1,0,0,,5,,,65,127
46912,note_on,0,0,0,,3,,,75,127
46962,note_off,50,0,0,,0,,,84,127
47017,note_on,55,0,0,,0,,,84,127
47067,note_off,50,0,0,,3,,,75,127
47120,note_off,53,0,0,,5,,,65,127
47121,note_on,1,0,0,,7,,,67,127
47121,note_on,0,0,0,,12,,,71,127
47121,note_on,0,0,0,,2,,,74,127
47171,note_off,50,0,0,,0,,,84,127
47226,note_on,55,0,0,,12,,,83,127
47276,note_off,50,0,0,,2,,,74,127
47329,note_off,53,0,0,,12,,,71,127
47329,note_off,0,0,0,,7,,,67,127
47330,note_on,1,0,0,,12,,,71,127
47330,note_on,0,0,0,,7,,,67,127
47330,note_on,0,0,0,,2,,,74,127
47380,note_off,50,0,0,,12,,,83,127
47435,note_on,55,0,0,,12,,,83,127
47485,note_off,50,0,0,,2,,,74,127
47538,note_off,53,0,0,,7,,,67,127
47538,note_off,0,0,0,,12,,,71,127
47539,note_on,1,0,0,,8,,,68,127
47539,note_on,0,0,0,,0,,,72,127
47539,note_on,0,0,0,,3,,,75,127
47589,note_off,50,0,0,,12,,,83,127
47644,note_on,55,0,0,,0,,,84,127
47694,note_off,50,0,0,,3,,,75,127
47747,note_off,53,0,0,,0,,,72,127
47747,note_off,0,0,0,,8,,,68,127
47748,note_on,1,0,0,,5,,,65,127
47748,note_on,0,0,0,,3,,,75,127
47798,note_off,50,0,0,,0,,,84,127
47853,note_on,55,0,0,,0,,,84,127
47903,note_off,50,0,0,,3,,,75,127
47956,note_off,53,0,0,,0,,,84,127
47956,note_off,0,0,0,,5,,,65,127
47957,note_on,1,0,0,,7,,,67,127
47957,note_on,0,0,0,,12,,,83,127
48061,note_off,104,0,0,,12,,,83,127
48062,note_on,1,0,0,,7,,,79,127
48166,note_off,104,0,0,,7,,,79,127
48167,note_on,1,0,0,,2,,,74,127
48271,note_off,104,0,0,,2,,,74,127
48271,note_off,0,0,0,,7,,,67,127
48272,note_on,1,0,0,,12,,,71,127
48376,note_off,104,0,0,,12,,,71,127
48377,note_on,1,0,0,,10,,,69,127
48428,note_off,51,0,0,,10,,,69,127
48429,note_on,1,0,0,,7,,,67,127
48480,note_off,51,0,0,,7,,,67,127
48481,note_on,1,0,0,,10,,,69,127
48500,note_on,19,0,0,,6,,,66,127
48533,note_off,33,0,0,,10,,,69,127
48534,note_on,1,0,0,,7,,,67,127
48608,note_off,74,0,0,,6,,,66,127
48615,note_on,7,0,0,,4,,,64,127
48723,note_off,108,0,0,,4,,,64,127
48726,note_on,3,0,0,,2,,,62,127
48818,note_off,92,0,0,,7,,,67,127
48834,note_off,16,0,0,,2,,,62,127
48848,note_on,14,0,0,,4,,,76,127
48848,note_on,0,0,0,,0,,,60,127
48952,note_off,104,0,0,,4,,,76,127
48953,note_on,1,0,0,,0,,,72,127
49057,note_off,104,0,0,,0,,,72,127
49058,note_on,1,0,0,,10,,,69,127
49162,note_off,104,0,0,,10,,,69,127
49163,note_on,1,0,0,,6,,,66,127
49267,note_off,104,0,0,,6,,,66,127
49268,note_on,1,0,0,,4,,,76,127
49372,note_off,104,0,0,,0,,,60,127
49373,note_on,1,0,0,,0,,,60,127
49477,note_off,104,0,0,,0,,,60,127
49478,note_on,1,0,0,,10,,,57,127
49582,note_off,104,0,0,,10,,,57,127
49583,note_on,1,0,0,,6,,,54,127
49672,note_off,89,0,0,,4,,,76,127
49680,note_off,8,0,0,,6,,,54,127
49688,note_on,8,0,0,,2,,,74,127
49688,note_on,0,0,0,,12,,,35,127
49792,note_off,104,0,0,,2,,,74,127
49793,note_on,1,0,0,,12,,,71,127
49897,note_off,104,0,0,,12,,,71,127
49898,note_on,1,0,0,,7,,,67,127
50002,note_off,104,0,0,,7,,,67,127
50003,note_on,1,0,0,,2,,,62,127
50107,note_off,104,0,0,,2,,,62,127
50108,note_on,1,0,0,,2,,,74,127
50212,note_off,104,0,0,,12,,,35,127
50213,note_on,1,0,0,,12,,,59,127
50317,note_off,104,0,0,,12,,,59,127
50318,note_on,1,0,0,,7,,,55,127
50422,note_off,104,0,0,,7,,,55,127
50423,note_on,1,0,0,,4,,,52,127
50512,note_off,89,0,0,,2,,,74,127
50520,note_off,8,0,0,,4,,,52,127
50528,note_on,8,0,0,,0,,,72,127
50528,note_on,0,0,0,,10,,,33,127
50632,note_off,104,0,0,,0,,,72,127
50633,note_on,1,0,0,,10,,,69,127
50737,note_off,104,0,0,,10,,,69,127
50738,note_on,1,0,0,,6,,,66,127
50842,note_off,104,0,0,,6,,,66,127
50843,note_on,1,0,0,,2,,,62,127
50947,note_off,104,0,0,,2,,,62,127
50948,note_on,1,0,0,,0,,,72,127
51052,note_off,104,0,0,,10,,,33,127
51053,note_on,1,0,0,,10,,,57,127
51157,note_off,104,0,0,,10,,,57,127
51158,note_on,1,0,0,,6,,,54,127
51262,note_off,104,0,0,,6,,,54,127
51263,note_on,1,0,0,,2,,,50,127
51352,note_off,89,0,0,,0,,,72,127
51360,note_off,8,0,0,,2,,,50,127
51368,note_on,8,0,0,,12,,,71,127
51368,note_on,0,0,0,,7,,,31,127
51472,note_off,104,0,0,,12,,,71,127
51473,note_on,1,0,0,,7,,,67,127
51577,note_off,104,0,0,,7,,,67,127
51578,note_on,1,0,0,,2,,,62,127
51682,note_off,104,0,0,,2,,,62,127
51683,note_on,1,0,0,,12,,,71,127
51787,note_off,104,0,0,,12,,,71,127
51788,note_on,1,0,0,,2,,,74,127
51892,note_off,104,0,0,,7,,,31,127
51893,note_on,1,0,0,,2,,,62,127
51997,note_off,104,0,0,,2,,,62,127
51998,note_on,1,0,0,,12,,,59,127
52102,note_off,104,0,0,,12,,,59,127
52103,note_on,1,0,0,,7,,,55,127
52183,note_off,80,0,0,,2,,,74,127
52200,note_off,17,0,0,,7,,,55,127
52208,note_on,8,0,0,,4,,,76,127
52208,note_on,0,0,0,,0,,,36,127
52312,note_off,104,0,0,,4,,,76,127
52313,note_on,1,0,0,,0,,,72,127
52417,note_off,104,0,0,,0,,,72,127
52418,note_on,1,0,0,,10,,,69,127
52522,note_off,104,0,0,,10,,,69,127
52523,note_on,1,0,0,,6,,,66,127
52627,note_off,104,0,0,,6,,,66,127
52628,note_on,1,0,0,,4,,,76,127
52732,note_off,104,0,0,,0,,,36,127
52733,note_on,1,0,0,,0,,,60,127
52837,note_off,104,0,0,,0,,,60,127
52838,note_on,1,0,0,,10,,,57,127
52934,note_off,96,0,0,,4,,,76,127
52942,note_off,8,0,0,,10,,,57,127
52943,note_on,1,0,0,,6,,,54,127
53040,note_off,97,0,0,,6,,,54,127
53048,note_on,8,0,0,,2,,,74,127
53048,note_on,0,0,0,,12,,,35,127
53152,note_off,104,0,0,,2,,,74,127
53153,note_on,1,0,0,,12,,,71,127
53257,note_off,104,0,0,,12,,,71,127
53258,note_on,1,0,0,,7,,,67,127
53362,note_off,104,0,0,,7,,,67,127
53363,note_on,1,0,0,,2,,,62,127
53467,note_off,104,0,0,,2,,,62,127
53468,note_on,1,0,0,,2,,,74,127
53572,note_off,104,0,0,,12,,,35,127
53573,note_on,1,0,0,,12,,,59,127
53677,note_off,104,0,0,,12,,,59,127
53678,note_on,1,0,0,,7,,,55,127
53774,note_off,96,0,0,,2,,,74,127
53782,note_off,8,0,0,,7,,,55,127
53783,note_on,1,0,0,,4,,,52,127
53880,note_off,97,0,0,,4,,,52,127
53888,note_on,8,0,0,,0,,,72,127
53888,note_on,0,0,0,,10,,,33,127
53992,note_off,104,0,0,,0,,,72,127
53993,note_on,1,0,0,,10,,,69,127
54097,note_off,104,0,0,,10,,,69,127
54098,note_on,1,0,0,,6,,,66,127
54202,note_off,104,0,0,,6,,,66,127
54203,note_on,1,0,0,,2,,,62,127
54307,note_off,104,0,0,,2,,,62,127
54308,note_on,1,0,0,,0,,,72,127
54412,note_off,104,0,0,,10,,,33,127
54413,note_on,1,0,0,,10,,,57,127
54517,note_off,104,0,0,,10,,,57,127
54518,note_on,1,0,0,,6,,,54,127
54614,note_off,96,0,0,,0,,,72,127
54622,note_off,8,0,0,,6,,,54,127
54623,note_on,1,0,0,,2,,,50,127
54731,note_off,108,0,0,,2,,,50,127
54745,note_on,14,0,0,,7,,,31,127
54745,note_on,0,0,0,,12,,,71,127
54849,note_off,104,0,0,,12,,,71,127
54850,note_on,1,0,0,,7,,,67,127
54954,note_off,104,0,0,,7,,,67,127
54955,note_on,1,0,0,,2,,,62,127
55059,note_off,104,0,0,,2,,,62,127
55060,note_on,1,0,0,,12,,,59,127
55164,note_off,104,0,0,,12,,,59,127
55165,note_on,1,0,0,,7,,,55,127
55547,note_off,382,0,0,,7,,,55,127
55619,note_off,72,0,0,,7,,,31,127
55636,note_on,17,0,0,,12,,,59,127
55636,note_on,0,0,0,,7,,,55,127
55741,note_on,105,0,0,,12,,,71,127
55791,note_off,50,0,0,,12,,,59,127
55844,note_off,53,0,0,,7,,,55,127
55845,note_on,1,0,0,,0,,,60,127
55845,note_on,0,0,0,,10,,,57,127
55895,note_off,50,0,0,,12,,,71,127
55950,note_on,55,0,0,,12,,,71,127
56000,note_off,50,0,0,,0,,,60,127
56053,note_off,53,0,0,,10,,,57,127
56054,note_on,1,0,0,,2,,,62,127
56054,note_on,0,0,0,,12,,,59,127
56104,note_off,50,0,0,,12,,,71,127
56159,note_on,55,0,0,,12,,,71,127
56209,note_off,50,0,0,,2,,,62,127
56262,note_off,53,0,0,,12,,,59,127
56263,note_on,1,0,0,,4,,,64,127
56263,note_on,0,0,0,,0,,,60,127
56313,note_off,50,0,0,,12,,,71,127
56368,note_on,55,0,0,,12,,,71,127
56418,note_off,50,0,0,,4,,,64,127
56471,note_off,53,0,0,,0,,,60,127
56472,note_on,1,0,0,,6,,,66,127
56472,note_on,0,0,0,,2,,,62,127
56522,note_off,50,0,0,,12,,,71,127
56577,note_on,55,0,0,,2,,,74,127
56627,note_off,50,0,0,,6,,,66,127
56680,note_off,53,0,0,,2,,,62,127
56681,note_on,1,0,0,,7,,,67,127
56681,note_on,0,0,0,,4,,,64,127
56731,note_off,50,0,0,,2,,,74,127
56786,note_on,55,0,0,,2,,,74,127
56836,note_off,50,0,0,,7,,,67,127
56889,note_off,53,0,0,,4,,,64,127
56890,note_on,1,0,0,,10,,,69,127
56890,note_on,0,0,0,,6,,,66,127
56940,note_off,50,0,0,,2,,,74,127
56995,note_on,55,0,0,,2,,,74,127
57045,note_off,50,0,0,,10,,,69,127
57098,note_off,53,0,0,,6,,,66,127
57099,note_on,1,0,0,,12,,,71,127
57099,note_on,0,0,0,,7,,,67,127
57149,note_off,50,0,0,,2,,,74,127
57204,note_on,55,0,0,,2,,,74,127
57254,note_off,50,0,0,,12,,,71,127
57307,note_off,53,0,0,,7,,,67,127
57319,note_on,12,0,0,,0,,,60,127
57319,note_on,0,0,0,,10,,,57,127
57358,note_off,39,0,0,,2,,,74,127
57430,note_on,72,0,0,,0,,,72,127
57474,note_off,44,0,0,,0,,,60,127
57527,note_off,53,0,0,,10,,,57,127
57535,note_on,8,0,0,,12,,,59,127
57535,note_on,0,0,0,,2,,,62,127
57585,note_off,50,0,0,,0,,,72,127
57640,note_on,55,0,0,,0,,,72,127
57690,note_off,50,0,0,,2,,,62,127
57743,note_off,53,0,0,,12,,,59,127
57744,note_on,1,0,0,,0,,,60,127
57744,note_on,0,0,0,,4,,,64,127
57794,note_off,50,0,0,,0,,,72,127
57849,note_on,55,0,0,,0,,,72,127
57899,note_off,50,0,0,,4,,,64,127
57952,note_off,53,0,0,,0,,,60,127
57953,note_on,1,0,0,,2,,,62,127
57953,note_on,0,0,0,,6,,,66,127
58003,note_off,50,0,0,,0,,,72,127
58058,note_on,55,0,0,,0,,,72,127
58108,note_off,50,0,0,,6,,,66,127
58161,note_off,53,0,0,,2,,,62,127
58162,note_on,1,0,0,,4,,,64,127
58162,note_on,0,0,0,,7,,,67,127
58212,note_off,50,0,0,,0,,,72,127
58267,note_on,55,0,0,,7,,,79,127
58317,note_off,50,0,0,,7,,,67,127
58370,note_off,53,0,0,,4,,,64,127
58371,note_on,1,0,0,,6,,,66,127
58371,note_on,0,0,0,,10,,,69,127
58421,note_off,50,0,0,,7,,,79,127
58476,note_on,55,0,0,,7,,,79,127
58526,note_off,50,0,0,,10,,,69,127
58579,note_off,53,0,0,,6,,,66,127
58580,note_on,1,0,0,,7,,,67,127
58580,note_on,0,0,0,,12,,,71,127
58630,note_off,50,0,0,,7,,,79,127
58685,note_on,55,0,0,,7,,,79,127
58735,note_off,50,0,0,,12,,,71,127
58788,note_off,53,0,0,,7,,,67,127
58789,note_on,1,0,0,,10,,,69,127
58789,note_on,0,0,0,,0,,,72,127
58839,note_off,50,0,0,,7,,,79,127
58894,note_on,55,0,0,,7,,,79,127
58944,note_off,50,0,0,,0,,,72,127
58997,note_off,53,0,0,,10,,,69,127
59009,note_on,12,0,0,,7,,,67,127
59009,note_on,0,0,0,,12,,,71,127
59048,note_off,39,0,0,,7,,,79,127
59120,note_on,72,0,0,,12,,,83,127
59164,note_off,44,0,0,,12,,,71,127
59217,note_off,53,0,0,,7,,,67,127
59225,note_on,8,0,0,,0,,,72,127
59225,note_on,0,0,0,,10,,,69,127
59275,note_off,50,0,0,,12,,,83,127
59330,note_on,55,0,0,,12,,,83,127
59380,note_off,50,0,0,,0,,,72,127
59433,note_off,53,0,0,,10,,,69,127
59434,note_on,1,0,0,,2,,,74,127
59434,note_on,0,0,0,,12,,,71,127
59484,note_off,50,0,0,,12,,,83,127
59539,note_on,55,0,0,,12,,,83,127
59589,note_off,50,0,0,,2,,,74,127
59642,note_off,53,0,0,,12,,,71,127
59643,note_on,1,0,0,,4,,,76,127
59643,note_on,0,0,0,,0,,,72,127
59693,note_off,50,0,0,,12,,,83,127
59748,note_on,55,0,0,,12,,,83,127
59798,note_off,50,0,0,,4,,,76,127
59851,note_off,53,0,0,,0,,,72,127
59852,note_on,1,0,0,,2,,,74,127
59852,note_on,0,0,0,,12,,,71,127
59902,note_off,50,0,0,,12,,,83,127
59957,note_on,55,0,0,,2,,,86,127
60007,note_off,50,0,0,,2,,,74,127
60060,note_off,53,0,0,,12,,,71,127
60061,note_on,1,0,0,,4,,,76,127
60061,note_on,0,0,0,,0,,,72,127
60111,note_off,50,0,0,,2,,,86,127
60166,note_on,55,0,0,,2,,,86,127
60216,note_off,50,0,0,,4,,,76,127
60269,note_off,53,0,0,,0,,,72,127
60270,note_on,1,0,0,,6,,,78,127
60270,note_on,0,0,0,,2,,,74,127
60320,note_off,50,0,0,,2,,,86,127
60375,note_on,55,0,0,,2,,,86,127
60425,note_off,50,0,0,,6,,,78,127
60478,note_off,53,0,0,,2,,,74,127
60479,note_on,1,0,0,,7,,,79,127
60479,note_on,0,0,0,,4,,,76,127
60529,note_off,50,0,0,,2,,,86,127
60584,note_on,55,0,0,,2,,,86,127
60634,note_off,50,0,0,,7,,,79,127
60687,note_off,53,0,0,,4,,,76,127
60688,note_on,1,0,0,,10,,,81,127
60688,note_on,0,0,0,,6,,,78,127
60738,note_off,50,0,0,,2,,,86,127
60793,note_on,55,0,0,,0,,,84,127
60843,note_off,50,0,0,,10,,,81,127
60896,note_off,53,0,0,,0,,,84,127
60896,note_off,0,0,0,,6,,,78,127
60897,note_on,1,0,0,,12,,,83,127
60897,note_on,0,0,0,,6,,,78,127
61001,note_off,104,0,0,,12,,,83,127
61002,note_on,1,0,0,,10,,,81,127
61106,note_off,104,0,0,,10,,,81,127
61106,note_off,0,0,0,,6,,,78,127
61107,note_on,1,0,0,,12,,,83,127
61107,note_on,0,0,0,,7,,,79,127
61211,note_off,104,0,0,,12,,,83,127
61212,note_on,1,0,0,,10,,,81,127
61316,note_off,104,0,0,,10,,,81,127
61316,note_off,0,0,0,,7,,,79,127
61317,note_on,1,0,0,,7,,,79,127
61317,note_on,0,0,0,,2,,,74,127
61421,note_off,104,0,0,,7,,,79,127
61422,note_on,1,0,0,,6,,,78,127
61526,note_off,104,0,0,,6,,,78,127
61526,note_off,0,0,0,,2,,,74,127
61527,note_on,1,0,0,,7,,,79,127
61527,note_on,0,0,0,,4,,,76,127
61631,note_off,104,0,0,,7,,,79,127
61632,note_on,1,0,0,,0,,,84,127
61736,note_off,104,0,0,,0,,,84,127
61736,note_off,0,0,0,,4,,,76,127
61737,note_on,1,0,0,,12,,,83,127
61737,note_on,0,0,0,,0,,,72,127
61841,note_off,104,0,0,,12,,,83,127
61842,note_on,1,0,0,,10,,,81,127
61946,note_off,104,0,0,,10,,,81,127
61946,note_off,0,0,0,,0,,,72,127
61947,note_on,1,0,0,,12,,,83,127
61947,note_on,0,0,0,,2,,,74,127
62051,note_off,104,0,0,,12,,,83,127
62052,note_on,1,0,0,,7,,,79,127
62156,note_off,104,0,0,,7,,,79,127
62156,note_off,0,0,0,,2,,,74,127
62157,note_on,1,0,0,,10,,,81,127
62157,note_on,0,0,0,,2,,,62,127
62261,note_off,104,0,0,,10,,,81,127
62262,note_on,1,0,0,,6,,,78,127
62366,note_off,104,0,0,,6,,,78,127
62366,note_off,0,0,0,,2,,,62,127
62367,note_on,1,0,0,,7,,,79,127
62367,note_on,0,0,0,,7,,,67,127
62489,note_on,122,0,0,,2,,,74,127
62574,note_off,85,0,0,,7,,,79,127
62593,note_off,19,0,0,,2,,,74,127
62594,note_on,1,0,0,,0,,,72,127
62698,note_off,104,0,0,,0,,,72,127
62699,note_on,1,0,0,,2,,,74,127
62785,note_off,86,0,0,,7,,,67,127
62802,note_off,17,0,0,,2,,,74,127
62803,note_on,1,0,0,,0,,,72,127
62803,note_on,0,0,0,,4,,,76,127
62906,note_off,103,0,0,,0,,,72,127
62907,note_off,1,0,0,,4,,,76,127
62908,note_on,1,0,0,,0,,,72,127
63012,note_off,104,0,0,,0,,,72,127
63013,note_on,1,0,0,,12,,,71,127
63117,note_off,104,0,0,,12,,,71,127
63118,note_on,1,0,0,,0,,,72,127
63222,note_off,104,0,0,,0,,,72,127
63223,note_on,1,0,0,,12,,,71,127
63223,note_on,0,0,0,,2,,,74,127
63326,note_off,103,0,0,,12,,,71,127
63327,note_off,1,0,0,,2,,,74,127
63328,note_on,1,0,0,,12,,,71,127
63432,note_off,104,0,0,,12,,,71,127
63433,note_on,1,0,0,,10,,,69,127
63537,note_off,104,0,0,,10,,,69,127
63538,note_on,1,0,0,,12,,,71,127
63642,note_off,104,0,0,,12,,,71,127
63643,note_on,1,0,0,,10,,,69,127
63643,note_on,0,0,0,,0,,,72,127
63746,note_off,103,0,0,,10,,,69,127
63747,note_off,1,0,0,,0,,,72,127
63748,note_on,1,0,0,,10,,,69,127
63852,note_off,104,0,0,,10,,,69,127
63853,note_on,1,0,0,,7,,,67,127
63957,note_off,104,0,0,,7,,,67,127
63958,note_on,1,0,0,,10,,,69,127
64062,note_off,104,0,0,,10,,,69,127
64063,note_on,1,0,0,,7,,,67,127
64063,note_on,0,0,0,,12,,,71,127
64167,note_off,104,0,0,,12,,,71,127
64168,note_on,1,0,0,,0,,,72,127
64272,note_off,104,0,0,,0,,,72,127
64272,note_off,0,0,0,,7,,,67,127
64273,note_on,1,0,0,,0,,,60,127
64273,note_on,0,0,0,,2,,,74,127
64377,note_off,104,0,0,,2,,,74,127
64378,note_on,1,0,0,,0,,,72,127
64482,note_off,104,0,0,,0,,,72,127
64482,note_off,0,0,0,,0,,,60,127
64483,note_on,1,0,0,,2,,,62,127
64483,note_on,0,0,0,,12,,,71,127
64587,note_off,104,0,0,,12,,,71,127
64588,note_on,1,0,0,,10,,,69,127
64692,note_off,104,0,0,,10,,,69,127
64692,note_off,0,0,0,,2,,,62,127
64693,note_on,1,0,0,,2,,,50,127
64693,note_on,0,0,0,,7,,,67,127
64797,note_off,104,0,0,,7,,,67,127
64798,note_on,1,0,0,,6,,,66,127
64902,note_off,104,0,0,,6,,,66,127
64902,note_off,0,0,0,,2,,,50,127
64903,note_on,1,0,0,,7,,,55,127
64903,note_on,0,0,0,,7,,,67,127
65025,note_on,122,0,0,,2,,,62,127
65077,note_off,52,0,0,,7,,,67,127
65128,note_off,51,0,0,,2,,,62,127
65129,note_on,1,0,0,,0,,,60,127
65233,note_off,104,0,0,,0,,,60,127
65234,note_on,1,0,0,,2,,,62,127
65320,note_off,86,0,0,,7,,,55,127
65337,note_off,17,0,0,,2,,,62,127
65338,note_on,1,0,0,,4,,,64,127
65338,note_on,0,0,0,,0,,,60,127
65441,note_off,103,0,0,,0,,,60,127
65442,note_off,1,0,0,,4,,,64,127
65443,note_on,1,0,0,,0,,,60,127
65547,note_off,104,0,0,,0,,,60,127
65548,note_on,1,0,0,,12,,,59,127
65652,note_off,104,0,0,,12,,,59,127
65653,note_on,1,0,0,,0,,,60,127
65757,note_off,104,0,0,,0,,,60,127
65758,note_on,1,0,0,,2,,,62,127
65758,note_on,0,0,0,,12,,,59,127
65861,note_off,103,0,0,,12,,,59,127
65862,note_off,1,0,0,,2,,,62,127
65863,note_on,1,0,0,,12,,,59,127
65967,note_off,104,0,0,,12,,,59,127
65968,note_on,1,0,0,,10,,,57,127
66072,note_off,104,0,0,,10,,,57,127
66073,note_on,1,0,0,,12,,,59,127
66177,note_off,104,0,0,,12,,,59,127
66178,note_on,1,0,0,,0,,,60,127
66178,note_on,0,0,0,,10,,,57,127
66281,note_off,103,0,0,,10,,,57,127
66282,note_off,1,0,0,,0,,,60,127
66283,note_on,1,0,0,,10,,,57,127
66387,note_off,104,0,0,,10,,,57,127
66388,note_on,1,0,0,,7,,,55,127
66492,note_off,104,0,0,,7,,,55,127
66493,note_on,1,0,0,,10,,,57,127
66597,note_off,104,0,0,,10,,,57,127
66598,note_on,1,0,0,,12,,,59,127
66598,note_on,0,0,0,,7,,,55,127
66702,note_off,104,0,0,,12,,,59,127
66703,note_on,1,0,0,,0,,,60,127
66807,note_off,104,0,0,,0,,,60,127
66807,note_off,0,0,0,,7,,,55,127
66808,note_on,1,0,0,,2,,,62,127
66808,note_on,0,0,0,,0,,,48,127
66912,note_off,104,0,0,,2,,,62,127
66913,note_on,1,0,0,,0,,,60,127
67017,note_off,104,0,0,,0,,,60,127
67017,note_off,0,0,0,,0,,,48,127
67018,note_on,1,0,0,,12,,,59,127
67018,note_on,0,0,0,,2,,,50,127
67122,note_off,104,0,0,,12,,,59,127
67123,note_on,1,0,0,,10,,,57,127
67227,note_off,104,0,0,,10,,,57,127
67227,note_off,0,0,0,,2,,,50,127
67228,note_on,1,0,0,,7,,,55,127
67228,note_on,0,0,0,,2,,,38,127
67332,note_off,104,0,0,,7,,,55,127
67333,note_on,1,0,0,,6,,,54,127
67437,note_off,104,0,0,,6,,,54,127
67437,note_off,0,0,0,,2,,,38,127
67438,note_on,1,0,0,,7,,,55,127
67438,note_on,0,0,0,,7,,,43,127
67560,note_on,122,0,0,,2,,,50,127
67612,note_off,52,0,0,,7,,,55,127
67663,note_off,51,0,0,,2,,,50,127
67664,note_on,1,0,0,,12,,,59,127
67768,note_off,104,0,0,,12,,,59,127
67769,note_on,1,0,0,,7,,,55,127
67873,note_off,104,0,0,,7,,,55,127
67874,note_on,1,0,0,,2,,,62,127
67978,note_off,104,0,0,,2,,,62,127
67979,note_on,1,0,0,,12,,,59,127
68083,note_off,104,0,0,,12,,,59,127
68084,note_on,1,0,0,,7,,,67,127
68188,note_off,104,0,0,,7,,,67,127
68189,note_on,1,0,0,,2,,,62,127
68293,note_off,104,0,0,,2,,,62,127
68294,note_on,1,0,0,,12,,,71,127
68398,note_off,104,0,0,,12,,,71,127
68399,note_on,1,0,0,,7,,,67,127
68503,note_off,104,0,0,,7,,,67,127
68504,note_on,1,0,0,,2,,,74,127
68608,note_off,104,0,0,,2,,,74,127
68609,note_on,1,0,0,,12,,,71,127
68696,note_off,87,0,0,,7,,,43,127
68712,note_off,16,0,0,,12,,,71,127
68713,note_on,1,0,0,,7,,,79,127
68818,note_on,105,0,0,,2,,,74,127
68922,note_off,104,0,0,,2,,,74,127
68923,note_on,1,0,0,,12,,,71,127
69019,note_off,96,0,0,,7,,,79,127
69027,note_off,8,0,0,,12,,,71,127
69028,note_on,1,0,0,,2,,,74,127
69132,note_off,104,0,0,,2,,,74,127
69133,note_on,1,0,0,,7,,,67,127
69970,note_off,837,0,0,,7,,,67,127
70058,note_on,88,0,0,,7,,,55,127
70267,note_on,209,0,0,,7,,,79,127
70371,note_off,104,0,0,,7,,,79,127
70372,note_on,1,0,0,,3,,,75,127
70476,note_off,104,0,0,,3,,,75,127
70476,note_off,0,0,0,,7,,,55,127
70477,note_on,1,0,0,,2,,,74,127
70477,note_on,0,0,0,,7,,,67,127
70685,note_off,208,0,0,,2,,,74,127
70686,note_on,1,0,0,,0,,,72,127
70894,note_off,208,0,0,,0,,,72,127
70894,note_off,0,0,0,,7,,,67,127
70895,note_on,1,0,0,,12,,,71,127
70895,note_on,0,0,0,,8,,,56,127
71103,note_off,208,0,0,,12,,,71,127
71104,note_on,1,0,0,,8,,,80,127
71208,note_off,104,0,0,,8,,,80,127
71209,note_on,1,0,0,,5,,,77,127
71313,note_off,104,0,0,,5,,,77,127
71313,note_off,0,0,0,,8,,,56,127
71314,note_on,1,0,0,,2,,,74,127
71314,note_on,0,0,0,,5,,,65,127
71522,note_off,208,0,0,,2,,,74,127
71523,note_on,1,0,0,,0,,,72,127
71731,note_off,208,0,0,,0,,,72,127
71731,note_off,0,0,0,,5,,,65,127
71732,note_on,1,0,0,,12,,,71,127
71732,note_on,0,0,0,,7,,,55,127
71940,note_off,208,0,0,,12,,,71,127
71941,note_on,1,0,0,,7,,,79,127
72045,note_off,104,0,0,,7,,,79,127
72046,note_on,1,0,0,,3,,,75,127
72150,note_off,104,0,0,,3,,,75,127
72150,note_off,0,0,0,,7,,,55,127
72151,note_on,1,0,0,,2,,,74,127
72151,note_on,0,0,0,,7,,,67,127
72359,note_off,208,0,0,,2,,,74,127
72360,note_on,1,0,0,,0,,,72,127
72568,note_off,208,0,0,,0,,,72,127
72568,note_off,0,0,0,,7,,,67,127
72569,note_on,1,0,0,,12,,,71,127
72569,note_on,0,0,0,,8,,,56,127
72777,note_off,208,0,0,,12,,,71,127
72778,note_on,1,0,0,,8,,,80,127
72882,note_off,104,0,0,,8,,,80,127
72883,note_on,1,0,0,,5,,,77,127
72987,note_off,104,0,0,,5,,,77,127
72987,note_off,0,0,0,,8,,,56,127
72988,note_on,1,0,0,,2,,,74,127
72988,note_on,0,0,0,,5,,,65,127
73196,note_off,208,0,0,,2,,,74,127
73197,note_on,1,0,0,,0,,,72,127
73405,note_off,208,0,0,,0,,,72,127
73405,note_off,0,0,0,,5,,,65,127
73413,note_on,8,0,0,,7,,,55,127
73413,note_on,0,0,0,,12,,,71,127
73620,note_off,207,0,0,,7,,,55,127
73632,note_off,12,0,0,,12,,,71,127
73633,note_on,1,0,0,,11,,,82,127
73737,note_off,104,0,0,,11,,,82,127
73738,note_on,1,0,0,,8,,,80,127
73842,note_off,104,0,0,,8,,,80,127
73843,note_on,1,0,0,,7,,,79,127
74051,note_off,208,0,0,,7,,,79,127
74052,note_on,1,0,0,,5,,,77,127
74260,note_off,208,0,0,,5,,,77,127
74261,note_on,1,0,0,,0,,,60,127
74261,note_on,0,0,0,,4,,,76,127
74469,note_off,208,0,0,,4,,,76,127
74470,note_on,1,0,0,,0,,,84,127
74574,note_off,104,0,0,,0,,,84,127
74575,note_on,1,0,0,,8,,,80,127
74679,note_off,104,0,0,,8,,,80,127
74679,note_off,0,0,0,,0,,,60,127
74680,note_on,1,0,0,,0,,,72,127
74680,note_on,0,0,0,,7,,,79,127
74888,note_off,208,0,0,,7,,,79,127
74889,note_on,1,0,0,,5,,,77,127
75097,note_off,208,0,0,,5,,,77,127
75097,note_off,0,0,0,,0,,,72,127
75098,note_on,1,0,0,,1,,,61,127
75098,note_on,0,0,0,,4,,,76,127
75306,note_off,208,0,0,,4,,,76,127
75307,note_on,1,0,0,,1,,,85,127
75411,note_off,104,0,0,,1,,,85,127
75412,note_on,1,0,0,,11,,,82,127
75516,note_off,104,0,0,,11,,,82,127
75516,note_off,0,0,0,,1,,,61,127
75517,note_on,1,0,0,,11,,,70,127
75517,note_on,0,0,0,,7,,,79,127
75725,note_off,208,0,0,,7,,,79,127
75726,note_on,1,0,0,,5,,,77,127
75934,note_off,208,0,0,,5,,,77,127
75934,note_off,0,0,0,,11,,,70,127
75935,note_on,1,0,0,,0,,,60,127
75935,note_on,0,0,0,,4,,,76,127
76143,note_off,208,0,0,,4,,,76,127
76144,note_on,1,0,0,,11,,,82,127
76248,note_off,104,0,0,,11,,,82,127
76249,note_on,1,0,0,,8,,,80,127
76353,note_off,104,0,0,,8,,,80,127
76353,note_off,0,0,0,,0,,,60,127
76354,note_on,1,0,0,,0,,,72,127
76354,note_on,0,0,0,,7,,,79,127
76562,note_off,208,0,0,,7,,,79,127
76563,note_on,1,0,0,,5,,,77,127
76771,note_off,208,0,0,,5,,,77,127
76771,note_off,0,0,0,,0,,,72,127
76772,note_on,1,0,0,,1,,,61,127
76772,note_on,0,0,0,,4,,,76,127
76980,note_off,208,0,0,,4,,,76,127
76981,note_on,1,0,0,,1,,,85,127
77085,note_off,104,0,0,,1,,,85,127
77086,note_on,1,0,0,,11,,,82,127
77190,note_off,104,0,0,,11,,,82,127
77190,note_off,0,0,0,,1,,,61,127
77191,note_on,1,0,0,,11,,,70,127
77191,note_on,0,0,0,,7,,,79,127
77399,note_off,208,0,0,,7,,,79,127
77400,note_on,1,0,0,,5,,,77,127
77608,note_off,208,0,0,,5,,,77,127
77608,note_off,0,0,0,,11,,,70,127
77620,note_on,12,0,0,,4,,,76,127
77620,note_on,0,0,0,,0,,,60,127
77731,note_on,111,0,0,,7,,,79,127
77753,note_off,22,0,0,,4,,,76,127
77835,note_off,82,0,0,,7,,,79,127
77836,note_on,1,0,0,,4,,,76,127
77940,note_off,104,0,0,,4,,,76,127
77941,note_on,1,0,0,,0,,,72,127
78038,note_off,97,0,0,,0,,,60,127
78045,note_off,7,0,0,,0,,,72,127
78046,note_on,1,0,0,,11,,,82,127
78151,note_on,105,0,0,,7,,,79,127
78255,note_off,104,0,0,,7,,,79,127
78256,note_on,1,0,0,,4,,,76,127
78360,note_off,104,0,0,,4,,,76,127
78361,note_on,1,0,0,,0,,,72,127
78465,note_off,104,0,0,,0,,,72,127
78466,note_on,1,0,0,,5,,,77,127
78570,note_off,104,0,0,,11,,,82,127
78571,note_on,1,0,0,,8,,,80,127
78675,note_off,104,0,0,,8,,,80,127
78676,note_on,1,0,0,,7,,,79,127
78676,note_on,0,0,0,,8,,,80,127
78780,note_off,104,0,0,,8,,,80,127
78780,note_off,0,0,0,,7,,,79,127
78780,note_off,0,0,0,,5,,,77,127
78781,note_on,1,0,0,,5,,,77,127
78885,note_off,104,0,0,,5,,,77,127
78886,note_on,1,0,0,,11,,,82,127
78991,note_on,105,0,0,,7,,,79,127
79095,note_off,104,0,0,,7,,,79,127
79096,note_on,1,0,0,,4,,,76,127
79200,note_off,104,0,0,,4,,,76,127
79201,note_on,1,0,0,,0,,,72,127
79305,note_off,104,0,0,,0,,,72,127
79306,note_on,1,0,0,,5,,,77,127
79410,note_off,104,0,0,,11,,,82,127
79411,note_on,1,0,0,,8,,,80,127
79515,note_off,104,0,0,,8,,,80,127
79516,note_on,1,0,0,,7,,,79,127
79516,note_on,0,0,0,,8,,,80,127
79620,note_off,104,0,0,,8,,,80,127
79620,note_off,0,0,0,,7,,,79,127
79620,note_off,0,0,0,,5,,,77,127
79621,note_on,1,0,0,,5,,,77,127
79725,note_off,104,0,0,,5,,,77,127
79726,note_on,1,0,0,,8,,,80,127
79831,note_on,105,0,0,,5,,,77,127
79935,note_off,104,0,0,,5,,,77,127
79936,note_on,1,0,0,,2,,,74,127
80040,note_off,104,0,0,,2,,,74,127
80041,note_on,1,0,0,,11,,,70,127
80145,note_off,104,0,0,,11,,,70,127
80146,note_on,1,0,0,,3,,,75,127
80250,note_off,104,0,0,,8,,,80,127
80251,note_on,1,0,0,,7,,,79,127
80355,note_off,104,0,0,,7,,,79,127
80356,note_on,1,0,0,,5,,,77,127
80356,note_on,0,0,0,,7,,,79,127
80460,note_off,104,0,0,,7,,,79,127
80460,note_off,0,0,0,,5,,,77,127
80460,note_off,0,0,0,,3,,,75,127
80461,note_on,1,0,0,,3,,,75,127
80565,note_off,104,0,0,,3,,,75,127
80566,note_on,1,0,0,,7,,,79,127
80671,note_on,105,0,0,,3,,,75,127
80775,note_off,104,0,0,,3,,,75,127
80776,note_on,1,0,0,,0,,,72,127
80880,note_off,104,0,0,,0,,,72,127
80881,note_on,1,0,0,,10,,,69,127
80985,note_off,104,0,0,,10,,,69,127
80986,note_on,1,0,0,,2,,,74,127
81090,note_off,104,0,0,,7,,,79,127
81091,note_on,1,0,0,,5,,,77,127
81195,note_off,104,0,0,,5,,,77,127
81196,note_on,1,0,0,,3,,,75,127
81196,note_on,0,0,0,,5,,,77,127
81300,note_off,104,0,0,,5,,,77,127
81300,note_off,0,0,0,,3,,,75,127
81300,note_off,0,0,0,,2,,,74,127
81301,note_on,1,0,0,,2,,,74,127
81405,note_off,104,0,0,,2,,,74,127
81406,note_on,1,0,0,,5,,,77,127
81511,note_on,105,0,0,,2,,,74,127
81615,note_off,104,0,0,,2,,,74,127
81616,note_on,1,0,0,,12,,,71,127
81720,note_off,104,0,0,,12,,,71,127
81721,note_on,1,0,0,,7,,,67,127
81825,note_off,104,0,0,,7,,,67,127
81826,note_on,1,0,0,,0,,,72,127
81930,note_off,104,0,0,,5,,,77,127
81931,note_on,1,0,0,,3,,,75,127
82035,note_off,104,0,0,,3,,,75,127
82036,note_on,1,0,0,,2,,,74,127
82036,note_on,0,0,0,,3,,,75,127
82140,note_off,104,0,0,,3,,,75,127
82140,note_off,0,0,0,,2,,,74,127
82140,note_off,0,0,0,,0,,,72,127
82141,note_on,1,0,0,,0,,,72,127
82245,note_off,104,0,0,,0,,,72,127
82246,note_on,1,0,0,,3,,,75,127
82351,note_on,105,0,0,,0,,,72,127
82455,note_off,104,0,0,,0,,,72,127
82456,note_on,1,0,0,,10,,,69,127
82560,note_off,104,0,0,,10,,,69,127
82561,note_on,1,0,0,,5,,,65,127
82665,note_off,104,0,0,,5,,,65,127
82666,note_on,1,0,0,,11,,,70,127
82770,note_off,104,0,0,,3,,,75,127
82771,note_on,1,0,0,,3,,,75,127
82875,note_off,104,0,0,,3,,,75,127
82876,note_on,1,0,0,,2,,,74,127
82876,note_on,0,0,0,,3,,,75,127
82980,note_off,104,0,0,,3,,,75,127
82980,note_off,0,0,0,,2,,,74,127
82981,note_on,1,0,0,,1,,,73,127
83085,note_off,104,0,0,,1,,,73,127
83086,note_on,1,0,0,,2,,,74,127
83190,note_off,104,0,0,,11,,,70,127
83191,note_on,1,0,0,,0,,,72,127
83295,note_off,104,0,0,,0,,,72,127
83296,note_on,1,0,0,,11,,,70,127
83400,note_off,104,0,0,,11,,,70,127
83401,note_on,1,0,0,,10,,,69,127
83505,note_off,104,0,0,,10,,,69,127
83506,note_on,1,0,0,,7,,,67,127
83611,note_off,105,0,0,,2,,,74,127
83724,note_on,113,0,0,,11,,,82,127
83828,note_off,104,0,0,,11,,,82,127
83838,note_on,10,0,0,,10,,,81,127
83924,note_off,86,0,0,,7,,,67,127
83941,note_off,17,0,0,,10,,,81,127
83942,note_on,1,0,0,,7,,,79,127
84046,note_off,104,0,0,,7,,,79,127
84047,note_on,1,0,0,,5,,,77,127
84151,note_off,104,0,0,,5,,,77,127
84152,note_on,1,0,0,,4,,,76,127
84256,note_off,104,0,0,,4,,,76,127
84257,note_on,1,0,0,,2,,,74,127
84361,note_off,104,0,0,,2,,,74,127
84371,note_on,10,0,0,,10,,,57,127
84371,note_on,0,0,0,,1,,,73,127
84588,note_off,217,0,0,,1,,,73,127
84589,note_on,1,0,0,,7,,,79,127
84693,note_off,104,0,0,,7,,,79,127
84694,note_on,1,0,0,,5,,,77,127
84789,note_off,95,0,0,,10,,,57,127
84798,note_off,9,0,0,,5,,,77,127
84799,note_on,1,0,0,,4,,,76,127
84799,note_on,0,0,0,,10,,,69,127
85007,note_off,208,0,0,,4,,,76,127
85008,note_on,1,0,0,,2,,,74,127
85216,note_off,208,0,0,,2,,,74,127
85216,note_off,0,0,0,,10,,,69,127
85217,note_on,1,0,0,,1,,,73,127
85217,note_on,0,0,0,,11,,,58,127
85425,note_off,208,0,0,,1,,,73,127
85426,note_on,1,0,0,,11,,,82,127
85530,note_off,104,0,0,,11,,,82,127
85531,note_on,1,0,0,,7,,,79,127
85635,note_off,104,0,0,,7,,,79,127
85635,note_off,0,0,0,,11,,,58,127
85636,note_on,1,0,0,,4,,,76,127
85636,note_on,0,0,0,,7,,,67,127
85844,note_off,208,0,0,,4,,,76,127
85845,note_on,1,0,0,,2,,,74,127
86053,note_off,208,0,0,,2,,,74,127
86053,note_off,0,0,0,,7,,,67,127
86054,note_on,1,0,0,,1,,,73,127
86054,note_on,0,0,0,,10,,,57,127
86262,note_off,208,0,0,,1,,,73,127
86263,note_on,1,0,0,,10,,,81,127
86367,note_off,104,0,0,,10,,,81,127
86368,note_on,1,0,0,,5,,,77,127
86472,note_off,104,0,0,,5,,,77,127
86472,note_off,0,0,0,,10,,,57,127
86473,note_on,1,0,0,,4,,,76,127
86473,note_on,0,0,0,,10,,,69,127
86681,note_off,208,0,0,,4,,,76,127
86682,note_on,1,0,0,,2,,,74,127
86890,note_off,208,0,0,,2,,,74,127
86890,note_off,0,0,0,,10,,,69,127
86891,note_on,1,0,0,,1,,,73,127
86891,note_on,0,0,0,,11,,,58,127
87099,note_off,208,0,0,,1,,,73,127
87100,note_on,1,0,0,,11,,,82,127
87204,note_off,104,0,0,,11,,,82,127
87205,note_on,1,0,0,,7,,,79,127
87309,note_off,104,0,0,,7,,,79,127
87309,note_off,0,0,0,,11,,,58,127
87310,note_on,1,0,0,,4,,,76,127
87310,note_on,0,0,0,,7,,,67,127
87518,note_off,208,0,0,,4,,,76,127
87519,note_on,1,0,0,,2,,,74,127
87727,note_off,208,0,0,,2,,,74,127
87727,note_off,0,0,0,,7,,,67,127
87728,note_on,1,0,0,,1,,,73,127
87728,note_on,0,0,0,,10,,,57,127
87832,note_off,104,0,0,,1,,,73,127
87833,note_on,1,0,0,,4,,,76,127
87937,note_off,104,0,0,,4,,,76,127
87938,note_on,1,0,0,,1,,,73,127
88042,note_off,104,0,0,,1,,,73,127
88043,note_on,1,0,0,,10,,,69,127
88147,note_off,104,0,0,,10,,,69,127
88147,note_off,0,0,0,,10,,,57,127
88148,note_on,1,0,0,,7,,,79,127
88253,note_on,105,0,0,,4,,,76,127
88357,note_off,104,0,0,,4,,,76,127
88358,note_on,1,0,0,,1,,,73,127
88462,note_off,104,0,0,,1,,,73,127
88463,note_on,1,0,0,,10,,,69,127
88567,note_off,104,0,0,,10,,,69,127
88568,note_on,1,0,0,,2,,,74,127
88672,note_off,104,0,0,,7,,,79,127
88673,note_on,1,0,0,,5,,,77,127
88777,note_off,104,0,0,,5,,,77,127
88778,note_on,1,0,0,,4,,,76,127
88778,note_on,0,0,0,,5,,,77,127
88882,note_off,104,0,0,,5,,,77,127
88882,note_off,0,0,0,,4,,,76,127
88882,note_off,0,0,0,,2,,,74,127
88883,note_on,1,0,0,,2,,,74,127
88987,note_off,104,0,0,,2,,,74,127
88988,note_on,1,0,0,,7,,,79,127
89093,note_on,105,0,0,,4,,,76,127
89197,note_off,104,0,0,,4,,,76,127
89198,note_on,1,0,0,,1,,,73,127
89302,note_off,104,0,0,,1,,,73,127
89303,note_on,1,0,0,,10,,,69,127
89407,note_off,104,0,0,,10,,,69,127
89408,note_on,1,0,0,,2,,,74,127
89512,note_off,104,0,0,,7,,,79,127
89513,note_on,1,0,0,,5,,,77,127
89617,note_off,104,0,0,,5,,,77,127
89618,note_on,1,0,0,,4,,,76,127
89618,note_on,0,0,0,,5,,,77,127
89722,note_off,104,0,0,,5,,,77,127
89722,note_off,0,0,0,,4,,,76,127
89722,note_off,0,0,0,,2,,,74,127
89723,note_on,1,0,0,,2,,,74,127
89827,note_off,104,0,0,,2,,,74,127
89828,note_on,1,0,0,,10,,,81,127
89933,note_on,105,0,0,,10,,,69,127
90037,note_off,104,0,0,,10,,,69,127
90045,note_on,8,0,0,,5,,,65,127
90149,note_off,104,0,0,,5,,,65,127
90154,note_on,5,0,0,,2,,,62,127
90247,note_off,93,0,0,,10,,,81,127
90258,note_off,11,0,0,,2,,,62,127
90283,note_on,25,0,0,,11,,,82,127
90283,note_on,0,0,0,,7,,,43,127
90387,note_off,104,0,0,,11,,,82,127
90388,note_on,1,0,0,,7,,,79,127
90492,note_off,104,0,0,,7,,,79,127
90493,note_on,1,0,0,,4,,,76,127
90597,note_off,104,0,0,,4,,,76,127
90598,note_on,1,0,0,,1,,,73,127
90702,note_off,104,0,0,,1,,,73,127
90703,note_on,1,0,0,,11,,,82,127
90807,note_off,104,0,0,,7,,,43,127
90808,note_on,1,0,0,,7,,,67,127
90912,note_off,104,0,0,,7,,,67,127
90913,note_on,1,0,0,,4,,,64,127
91017,note_off,104,0,0,,4,,,64,127
91018,note_on,1,0,0,,1,,,61,127
91122,note_off,104,0,0,,1,,,61,127
91122,note_off,0,0,0,,11,,,82,127
91123,note_on,1,0,0,,10,,,81,127
91123,note_on,0,0,0,,5,,,41,127
91227,note_off,104,0,0,,10,,,81,127
91228,note_on,1,0,0,,5,,,77,127
91332,note_off,104,0,0,,5,,,77,127
91333,note_on,1,0,0,,2,,,74,127
91437,note_off,104,0,0,,2,,,74,127
91438,note_on,1,0,0,,10,,,69,127
91542,note_off,104,0,0,,10,,,69,127
91543,note_on,1,0,0,,10,,,81,127
91647,note_off,104,0,0,,5,,,41,127
91648,note_on,1,0,0,,5,,,65,127
91752,note_off,104,0,0,,5,,,65,127
91753,note_on,1,0,0,,2,,,62,127
91857,note_off,104,0,0,,2,,,62,127
91858,note_on,1,0,0,,12,,,59,127
91962,note_off,104,0,0,,12,,,59,127
91962,note_off,0,0,0,,10,,,81,127
91963,note_on,1,0,0,,7,,,79,127
91963,note_on,0,0,0,,4,,,40,127
92067,note_off,104,0,0,,7,,,79,127
92068,note_on,1,0,0,,4,,,76,127
92172,note_off,104,0,0,,4,,,76,127
92173,note_on,1,0,0,,1,,,73,127
92277,note_off,104,0,0,,1,,,73,127
92278,note_on,1,0,0,,10,,,69,127
92382,note_off,104,0,0,,10,,,69,127
92383,note_on,1,0,0,,7,,,79,127
92487,note_off,104,0,0,,4,,,40,127
92488,note_on,1,0,0,,4,,,64,127
92592,note_off,104,0,0,,4,,,64,127
92593,note_on,1,0,0,,1,,,61,127
92697,note_off,104,0,0,,1,,,61,127
92698,note_on,1,0,0,,10,,,57,127
92802,note_off,104,0,0,,10,,,57,127
92802,note_off,0,0,0,,7,,,79,127
92803,note_on,1,0,0,,5,,,77,127
92803,note_on,0,0,0,,2,,,38,127
92907,note_off,104,0,0,,5,,,77,127
92908,note_on,1,0,0,,2,,,74,127
93012,note_off,104,0,0,,2,,,74,127
93013,note_on,1,0,0,,10,,,69,127
93117,note_off,104,0,0,,10,,,69,127
93118,note_on,1,0,0,,5,,,77,127
93222,note_off,104,0,0,,5,,,77,127
93223,note_on,1,0,0,,10,,,81,127
93327,note_off,104,0,0,,2,,,38,127
93328,note_on,1,0,0,,10,,,69,127
93432,note_off,104,0,0,,10,,,69,127
93437,note_on,5,0,0,,5,,,65,127
93541,note_off,104,0,0,,5,,,65,127
93549,note_on,8,0,0,,2,,,62,127
93642,note_off,93,0,0,,10,,,81,127
93653,note_off,11,0,0,,2,,,62,127
93661,note_on,8,0,0,,7,,,43,127
93661,note_on,0,0,0,,11,,,82,127
93765,note_off,104,0,0,,11,,,82,127
93766,note_on,1,0,0,,7,,,79,127
93870,note_off,104,0,0,,7,,,79,127
93871,note_on,1,0,0,,4,,,76,127
93975,note_off,104,0,0,,4,,,76,127
93976,note_on,1,0,0,,1,,,73,127
94080,note_off,104,0,0,,1,,,73,127
94081,note_on,1,0,0,,11,,,82,127
94185,note_off,104,0,0,,7,,,43,127
94186,note_on,1,0,0,,7,,,67,127
94290,note_off,104,0,0,,7,,,67,127
94291,note_on,1,0,0,,4,,,64,127
94395,note_off,104,0,0,,4,,,64,127
94396,note_on,1,0,0,,1,,,61,127
94500,note_off,104,0,0,,1,,,61,127
94500,note_off,0,0,0,,11,,,82,127
94501,note_on,1,0,0,,5,,,41,127
94501,note_on,0,0,0,,10,,,81,127
94605,note_off,104,0,0,,10,,,81,127
94606,note_on,1,0,0,,5,,,77,127
94710,note_off,104,0,0,,5,,,77,127
94711,note_on,1,0,0,,2,,,74,127
94815,note_off,104,0,0,,2,,,74,127
94816,note_on,1,0,0,,10,,,69,127
94920,note_off,104,0,0,,10,,,69,127
94921,note_on,1,0,0,,10,,,81,127
95025,note_off,104,0,0,,5,,,41,127
95026,note_on,1,0,0,,5,,,65,127
95130,note_off,104,0,0,,5,,,65,127
95131,note_on,1,0,0,,2,,,62,127
95235,note_off,104,0,0,,2,,,62,127
95236,note_on,1,0,0,,12,,,59,127
95340,note_off,104,0,0,,12,,,59,127
95340,note_off,0,0,0,,10,,,81,127
95341,note_on,1,0,0,,4,,,40,127
95341,note_on,0,0,0,,7,,,79,127
95445,note_off,104,0,0,,7,,,79,127
95446,note_on,1,0,0,,4,,,76,127
95550,note_off,104,0,0,,4,,,76,127
95551,note_on,1,0,0,,1,,,73,127
95655,note_off,104,0,0,,1,,,73,127
95656,note_on,1,0,0,,10,,,69,127
95760,note_off,104,0,0,,10,,,69,127
95761,note_on,1,0,0,,7,,,79,127
95865,note_off,104,0,0,,4,,,40,127
95866,note_on,1,0,0,,4,,,64,127
95970,note_off,104,0,0,,4,,,64,127
95971,note_on,1,0,0,,1,,,61,127
96075,note_off,104,0,0,,1,,,61,127
96076,note_on,1,0,0,,10,,,57,127
96180,note_off,104,0,0,,10,,,57,127
96180,note_off,0,0,0,,7,,,79,127
96181,note_on,1,0,0,,2,,,38,127
96181,note_on,0,0,0,,5,,,77,127
96285,note_off,104,0,0,,5,,,77,127
96286,note_on,1,0,0,,2,,,74,127
96390,note_off,104,0,0,,2,,,74,127
96391,note_on,1,0,0,,10,,,69,127
96495,note_off,104,0,0,,10,,,69,127
96496,note_on,1,0,0,,5,,,65,127
96600,note_off,104,0,0,,5,,,65,127
96601,note_on,1,0,0,,2,,,62,127
96973,note_off,372,0,0,,2,,,62,127
97019,note_off,46,0,0,,2,,,38,127
97038,note_on,19,0,0,,5,,,65,127
97038,note_on,0,0,0,,2,,,62,127
97143,note_on,105,0,0,,5,,,77,127
97193,note_off,50,0,0,,5,,,65,127
97246,note_off,53,0,0,,2,,,62,127
97247,note_on,1,0,0,,7,,,67,127
97247,note_on,0,0,0,,4,,,64,127
97297,note_off,50,0,0,,5,,,77,127
97352,note_on,55,0,0,,5,,,77,127
97402,note_off,50,0,0,,7,,,67,127
97455,note_off,53,0,0,,4,,,64,127
97456,note_on,1,0,0,,10,,,69,127
97456,note_on,0,0,0,,5,,,65,127
97506,note_off,50,0,0,,5,,,77,127
97561,note_on,55,0,0,,5,,,77,127
97611,note_off,50,0,0,,10,,,69,127
97664,note_off,53,0,0,,5,,,65,127
97665,note_on,1,0,0,,11,,,70,127
97665,note_on,0,0,0,,7,,,67,127
97715,note_off,50,0,0,,5,,,77,127
97770,note_on,55,0,0,,5,,,77,127
97820,note_off,50,0,0,,11,,,70,127
97857,note_off,37,0,0,,5,,,77,127
97873,note_off,16,0,0,,7,,,67,127
97874,note_on,1,0,0,,10,,,69,127
97874,note_on,0,0,0,,5,,,65,127
97979,note_on,105,0,0,,10,,,81,127
98029,note_off,50,0,0,,10,,,69,127
98082,note_off,53,0,0,,5,,,65,127
98083,note_on,1,0,0,,11,,,70,127
98083,note_on,0,0,0,,7,,,67,127
98133,note_off,50,0,0,,10,,,81,127
98188,note_on,55,0,0,,10,,,81,127
98238,note_off,50,0,0,,11,,,70,127
98291,note_off,53,0,0,,7,,,67,127
98292,note_on,1,0,0,,0,,,72,127
98292,note_on,0,0,0,,10,,,69,127
98342,note_off,50,0,0,,10,,,81,127
98397,note_on,55,0,0,,10,,,81,127
98447,note_off,50,0,0,,0,,,72,127
98500,note_off,53,0,0,,10,,,69,127
98501,note_on,1,0,0,,2,,,74,127
98501,note_on,0,0,0,,11,,,70,127
98551,note_off,50,0,0,,10,,,81,127
98606,note_on,55,0,0,,10,,,81,127
98656,note_off,50,0,0,,2,,,74,127
98693,note_off,37,0,0,,10,,,81,127
98709,note_off,16,0,0,,11,,,70,127
98710,note_on,1,0,0,,0,,,72,127
98710,note_on,0,0,0,,10,,,69,127
98815,note_on,105,0,0,,0,,,84,127
98865,note_off,50,0,0,,0,,,72,127
98918,note_off,53,0,0,,10,,,69,127
98919,note_on,1,0,0,,2,,,74,127
98919,note_on,0,0,0,,11,,,70,127
98969,note_off,50,0,0,,0,,,84,127
99024,note_on,55,0,0,,0,,,84,127
99074,note_off,50,0,0,,2,,,74,127
99127,note_off,53,0,0,,11,,,70,127
99128,note_on,1,0,0,,4,,,76,127
99128,note_on,0,0,0,,0,,,72,127
99178,note_off,50,0,0,,0,,,84,127
99233,note_on,55,0,0,,0,,,84,127
99283,note_off,50,0,0,,4,,,76,127
99336,note_off,53,0,0,,0,,,72,127
99337,note_on,1,0,0,,5,,,77,127
99337,note_on,0,0,0,,2,,,74,127
99387,note_off,50,0,0,,0,,,84,127
99442,note_on,55,0,0,,0,,,84,127
99492,note_off,50,0,0,,5,,,77,127
99545,note_off,53,0,0,,2,,,74,127
99546,note_on,1,0,0,,7,,,79,127
99546,note_on,0,0,0,,4,,,76,127
99596,note_off,50,0,0,,0,,,84,127
99651,note_on,55,0,0,,11,,,82,127
99701,note_off,50,0,0,,7,,,79,127
99754,note_off,53,0,0,,11,,,82,127
99754,note_off,0,0,0,,4,,,76,127
99755,note_on,1,0,0,,10,,,81,127
99755,note_on,0,0,0,,0,,,72,127
99859,note_off,104,0,0,,10,,,81,127
99860,note_on,1,0,0,,7,,,79,127
99964,note_off,104,0,0,,7,,,79,127
99964,note_off,0,0,0,,0,,,72,127
99965,note_on,1,0,0,,5,,,77,127
99965,note_on,0,0,0,,2,,,74,127
100069,note_off,104,0,0,,5,,,77,127
100070,note_on,1,0,0,,10,,,81,127
100174,note_off,104,0,0,,10,,,81,127
100174,note_off,0,0,0,,2,,,74,127
100175,note_on,1,0,0,,7,,,79,127
100175,note_on,0,0,0,,11,,,70,127
100279,note_off,104,0,0,,7,,,79,127
100280,note_on,1,0,0,,5,,,77,127
100384,note_off,104,0,0,,5,,,77,127
100384,note_off,0,0,0,,11,,,70,127
100394,note_on,10,0,0,,4,,,76,127
100394,note_on,0,0,0,,0,,,60,127
100507,note_on,113,0,0,,7,,,79,127
100526,note_off,19,0,0,,4,,,76,127
100611,note_off,85,0,0,,7,,,79,127
100612,note_on,1,0,0,,4,,,76,127
100716,note_off,104,0,0,,4,,,76,127
100717,note_on,1,0,0,,0,,,72,127
100812,note_off,95,0,0,,0,,,60,127
100821,note_off,9,0,0,,0,,,72,127
100822,note_on,1,0,0,,11,,,82,127
100927,note_on,105,0,0,,7,,,79,127
101031,note_off,104,0,0,,7,,,79,127
101032,note_on,1,0,0,,4,,,76,127
101136,note_off,104,0,0,,4,,,76,127
101137,note_on,1,0,0,,0,,,72,127
101241,note_off,104,0,0,,0,,,72,127
101242,note_on,1,0,0,,5,,,77,127
101346,note_off,104,0,0,,11,,,82,127
101347,note_on,1,0,0,,10,,,81,127
101451,note_off,104,0,0,,10,,,81,127
101452,note_on,1,0,0,,10,,,81,127
101452,note_on,0,0,0,,7,,,79,127
101556,note_off,104,0,0,,7,,,79,127
101556,note_off,0,0,0,,10,,,81,127
101556,note_off,0,0,0,,5,,,77,127
101557,note_on,1,0,0,,5,,,77,127
101661,note_off,104,0,0,,5,,,77,127
101662,note_on,1,0,0,,11,,,82,127
101767,note_on,105,0,0,,7,,,79,127
101871,note_off,104,0,0,,7,,,79,127
101872,note_on,1,0,0,,4,,,76,127
101976,note_off,104,0,0,,4,,,76,127
101977,note_on,1,0,0,,0,,,72,127
102081,note_off,104,0,0,,0,,,72,127
102082,note_on,1,0,0,,5,,,77,127
102186,note_off,104,0,0,,11,,,82,127
102187,note_on,1,0,0,,10,,,81,127
102291,note_off,104,0,0,,10,,,81,127
102292,note_on,1,0,0,,10,,,81,127
102292,note_on,0,0,0,,7,,,79,127
102396,note_off,104,0,0,,7,,,79,127
102396,note_off,0,0,0,,10,,,81,127
102396,note_off,0,0,0,,5,,,77,127
102405,note_on,9,0,0,,5,,,77,127
102518,note_off,113,0,0,,5,,,77,127
102519,note_on,1,0,0,,3,,,75,127
102624,note_on,105,0,0,,0,,,72,127
102728,note_off,104,0,0,,0,,,72,127
102729,note_on,1,0,0,,10,,,69,127
102833,note_off,104,0,0,,10,,,69,127
102834,note_on,1,0,0,,5,,,65,127
102938,note_off,104,0,0,,5,,,65,127
102939,note_on,1,0,0,,11,,,70,127
103043,note_off,104,0,0,,3,,,75,127
103044,note_on,1,0,0,,2,,,74,127
103148,note_off,104,0,0,,2,,,74,127
103149,note_on,1,0,0,,0,,,72,127
103149,note_on,0,0,0,,2,,,74,127
103253,note_off,104,0,0,,2,,,74,127
103253,note_off,0,0,0,,0,,,72,127
103253,note_off,0,0,0,,11,,,70,127
103254,note_on,1,0,0,,11,,,70,127
103358,note_off,104,0,0,,11,,,70,127
103359,note_on,1,0,0,,3,,,75,127
103464,note_on,105,0,0,,0,,,72,127
103568,note_off,104,0,0,,0,,,72,127
103569,note_on,1,0,0,,10,,,69,127
103673,note_off,104,0,0,,10,,,69,127
103674,note_on,1,0,0,,5,,,65,127
103778,note_off,104,0,0,,5,,,65,127
103779,note_on,1,0,0,,11,,,70,127
103883,note_off,104,0,0,,3,,,75,127
103884,note_on,1,0,0,,2,,,74,127
103988,note_off,104,0,0,,2,,,74,127
103989,note_on,1,0,0,,0,,,72,127
103989,note_on,0,0,0,,2,,,74,127
104093,note_off,104,0,0,,2,,,74,127
104093,note_off,0,0,0,,0,,,72,127
104093,note_off,0,0,0,,11,,,70,127
104101,note_on,8,0,0,,11,,,70,127
104205,note_off,104,0,0,,11,,,70,127
104213,note_on,8,0,0,,5,,,77,127
104322,note_on,109,0,0,,2,,,74,127
104426,note_off,104,0,0,,2,,,74,127
104427,note_on,1,0,0,,12,,,71,127
104531,note_off,104,0,0,,12,,,71,127
104532,note_on,1,0,0,,7,,,67,127
104636,note_off,104,0,0,,7,,,67,127
104637,note_on,1,0,0,,0,,,72,127
104736,note_off,99,0,0,,5,,,77,127
104741,note_on,5,0,0,,4,,,76,127
104845,note_off,104,0,0,,4,,,76,127
104846,note_on,1,0,0,,4,,,76,127
104846,note_on,0,0,0,,2,,,74,127
104950,note_off,104,0,0,,2,,,74,127
104950,note_off,0,0,0,,4,,,76,127
104950,note_off,0,0,0,,0,,,72,127
104951,note_on,1,0,0,,0,,,72,127
105055,note_off,104,0,0,,0,,,72,127
105056,note_on,1,0,0,,5,,,77,127
105161,note_on,105,0,0,,2,,,74,127
105265,note_off,104,0,0,,2,,,74,127
105268,note_on,3,0,0,,12,,,71,127
105372,note_off,104,0,0,,12,,,71,127
105377,note_on,5,0,0,,7,,,67,127
105481,note_off,104,0,0,,7,,,67,127
105488,note_on,7,0,0,,0,,,72,127
105580,note_off,92,0,0,,5,,,77,127
105599,note_on,19,0,0,,4,,,76,127
105703,note_off,104,0,0,,4,,,76,127
105704,note_on,1,0,0,,2,,,74,127
105704,note_on,0,0,0,,4,,,76,127
105802,note_off,98,0,0,,0,,,72,127
105807,note_off,5,0,0,,4,,,76,127
105807,note_off,0,0,0,,2,,,74,127
105808,note_on,1,0,0,,0,,,72,127
105912,note_off,104,0,0,,0,,,72,127
105913,note_on,1,0,0,,11,,,70,127
106018,note_on,105,0,0,,7,,,67,127
106122,note_off,104,0,0,,7,,,67,127
106123,note_on,1,0,0,,4,,,64,127
106227,note_off,104,0,0,,4,,,64,127
106228,note_on,1,0,0,,0,,,60,127
106332,note_off,104,0,0,,0,,,60,127
106333,note_on,1,0,0,,5,,,65,127
106437,note_off,104,0,0,,11,,,70,127
106438,note_on,1,0,0,,10,,,69,127
106542,note_off,104,0,0,,10,,,69,127
106543,note_on,1,0,0,,7,,,67,127
106543,note_on,0,0,0,,10,,,69,127
106647,note_off,104,0,0,,10,,,69,127
106647,note_off,0,0,0,,7,,,67,127
106647,note_off,0,0,0,,5,,,65,127
106648,note_on,1,0,0,,5,,,65,127
106752,note_off,104,0,0,,5,,,65,127
106753,note_on,1,0,0,,11,,,70,127
106860,note_on,107,0,0,,7,,,67,127
106964,note_off,104,0,0,,7,,,67,127
106969,note_on,5,0,0,,4,,,64,127
107073,note_off,104,0,0,,4,,,64,127
107081,note_on,8,0,0,,0,,,60,127
107125,note_off,44,0,0,,11,,,70,127
107185,note_off,60,0,0,,0,,,60,127
107190,note_on,5,0,0,,5,,,65,127
107190,note_on,0,0,0,,10,,,69,127
107295,note_on,105,0,0,,10,,,81,127
107345,note_off,50,0,0,,10,,,69,127
107398,note_off,53,0,0,,5,,,65,127
107399,note_on,1,0,0,,7,,,67,127
107399,note_on,0,0,0,,11,,,70,127
107449,note_off,50,0,0,,10,,,81,127
107504,note_on,55,0,0,,10,,,81,127
107554,note_off,50,0,0,,11,,,70,127
107607,note_off,53,0,0,,7,,,67,127
107608,note_on,1,0,0,,10,,,69,127
107608,note_on,0,0,0,,0,,,72,127
107658,note_off,50,0,0,,10,,,81,127
107713,note_on,55,0,0,,10,,,81,127
107763,note_off,50,0,0,,0,,,72,127
107816,note_off,53,0,0,,10,,,69,127
107817,note_on,1,0,0,,11,,,70,127
107817,note_on,0,0,0,,2,,,74,127
107867,note_off,50,0,0,,10,,,81,127
107922,note_on,55,0,0,,10,,,81,127
107972,note_off,50,0,0,,2,,,74,127
108025,note_off,53,0,0,,11,,,70,127
108026,note_on,1,0,0,,10,,,69,127
108026,note_on,0,0,0,,0,,,72,127
108076,note_off,50,0,0,,10,,,81,127
108131,note_on,55,0,0,,0,,,84,127
108181,note_off,50,0,0,,0,,,72,127
108234,note_off,53,0,0,,10,,,69,127
108235,note_on,1,0,0,,11,,,70,127
108235,note_on,0,0,0,,2,,,74,127
108285,note_off,50,0,0,,0,,,84,127
108340,note_on,55,0,0,,0,,,84,127
108390,note_off,50,0,0,,2,,,74,127
108443,note_off,53,0,0,,11,,,70,127
108444,note_on,1,0,0,,0,,,72,127
108444,note_on,0,0,0,,4,,,76,127
108494,note_off,50,0,0,,0,,,84,127
108549,note_on,55,0,0,,0,,,84,127
108599,note_off,50,0,0,,4,,,76,127
108652,note_off,53,0,0,,0,,,72,127
108653,note_on,1,0,0,,2,,,74,127
108653,note_on,0,0,0,,5,,,77,127
108703,note_off,50,0,0,,0,,,84,127
108758,note_on,55,0,0,,0,,,84,127
108808,note_off,50,0,0,,5,,,77,127
108861,note_off,53,0,0,,0,,,84,127
108861,note_off,0,0,0,,2,,,74,127
108862,note_on,1,0,0,,7,,,67,127
108862,note_on,0,0,0,,11,,,70,127
108967,note_on,105,0,0,,11,,,82,127
109017,note_off,50,0,0,,11,,,70,127
109070,note_off,53,0,0,,7,,,67,127
109071,note_on,1,0,0,,10,,,69,127
109071,note_on,0,0,0,,0,,,72,127
109121,note_off,50,0,0,,11,,,82,127
109176,note_on,55,0,0,,11,,,82,127
109226,note_off,50,0,0,,0,,,72,127
109279,note_off,53,0,0,,10,,,69,127
109280,note_on,1,0,0,,11,,,70,127
109280,note_on,0,0,0,,2,,,74,127
109330,note_off,50,0,0,,11,,,82,127
109385,note_on,55,0,0,,11,,,82,127
109435,note_off,50,0,0,,2,,,74,127
109488,note_off,53,0,0,,11,,,70,127
109489,note_on,1,0,0,,0,,,72,127
109489,note_on,0,0,0,,4,,,76,127
109539,note_off,50,0,0,,11,,,82,127
109594,note_on,55,0,0,,11,,,82,127
109644,note_off,50,0,0,,4,,,76,127
109697,note_off,53,0,0,,11,,,82,127
109697,note_off,0,0,0,,0,,,72,127
109698,note_on,1,0,0,,5,,,65,127
109698,note_on,0,0,0,,10,,,69,127
109803,note_on,105,0,0,,10,,,81,127
109853,note_off,50,0,0,,10,,,69,127
109906,note_off,53,0,0,,5,,,65,127
109907,note_on,1,0,0,,7,,,67,127
109907,note_on,0,0,0,,11,,,70,127
109957,note_off,50,0,0,,10,,,81,127
110012,note_on,55,0,0,,10,,,81,127
110062,note_off,50,0,0,,11,,,70,127
110115,note_off,53,0,0,,7,,,67,127
110116,note_on,1,0,0,,10,,,69,127
110116,note_on,0,0,0,,0,,,72,127
110166,note_off,50,0,0,,10,,,81,127
110221,note_on,55,0,0,,10,,,81,127
110271,note_off,50,0,0,,0,,,72,127
110324,note_off,53,0,0,,10,,,69,127
110325,note_on,1,0,0,,11,,,70,127
110325,note_on,0,0,0,,2,,,74,127
110375,note_off,50,0,0,,10,,,81,127
110430,note_on,55,0,0,,10,,,81,127
110480,note_off,50,0,0,,2,,,74,127
110533,note_off,53,0,0,,10,,,81,127
110533,note_off,0,0,0,,11,,,70,127
110534,note_on,1,0,0,,0,,,60,127
110534,note_on,0,0,0,,7,,,67,127
110639,note_on,105,0,0,,7,,,79,127
110689,note_off,50,0,0,,7,,,67,127
110742,note_off,53,0,0,,0,,,60,127
110743,note_on,1,0,0,,4,,,64,127
110743,note_on,0,0,0,,7,,,67,127
110793,note_off,50,0,0,,7,,,79,127
110848,note_on,55,0,0,,7,,,79,127
110898,note_off,50,0,0,,7,,,67,127
110951,note_off,53,0,0,,4,,,64,127
110952,note_on,1,0,0,,5,,,65,127
110952,note_on,0,0,0,,8,,,68,127
111002,note_off,50,0,0,,7,,,79,127
111057,note_on,55,0,0,,7,,,79,127
111107,note_off,50,0,0,,8,,,68,127
111160,note_off,53,0,0,,5,,,65,127
111161,note_on,1,0,0,,11,,,58,127
111161,note_on,0,0,0,,11,,,70,127
111211,note_off,50,0,0,,7,,,79,127
111266,note_on,55,0,0,,7,,,79,127
111316,note_off,50,0,0,,11,,,70,127
111369,note_off,53,0,0,,11,,,58,127
111370,note_on,1,0,0,,0,,,60,127
111370,note_on,0,0,0,,7,,,67,127
111420,note_off,50,0,0,,7,,,79,127
111475,note_on,55,0,0,,7,,,79,127
111525,note_off,50,0,0,,7,,,67,127
111578,note_off,53,0,0,,0,,,60,127
111579,note_on,1,0,0,,4,,,64,127
111579,note_on,0,0,0,,7,,,67,127
111629,note_off,50,0,0,,7,,,79,127
111684,note_on,55,0,0,,7,,,79,127
111734,note_off,50,0,0,,7,,,67,127
111787,note_off,53,0,0,,4,,,64,127
111788,note_on,1,0,0,,5,,,65,127
111788,note_on,0,0,0,,8,,,68,127
111838,note_off,50,0,0,,7,,,79,127
111893,note_on,55,0,0,,7,,,79,127
111943,note_off,50,0,0,,8,,,68,127
111996,note_off,53,0,0,,5,,,65,127
111997,note_on,1,0,0,,11,,,58,127
111997,note_on,0,0,0,,11,,,70,127
112047,note_off,50,0,0,,7,,,79,127
112102,note_on,55,0,0,,7,,,79,127
112152,note_off,50,0,0,,11,,,70,127
112205,note_off,53,0,0,,11,,,58,127
112206,note_on,1,0,0,,0,,,60,127
112206,note_on,0,0,0,,7,,,67,127
112256,note_off,50,0,0,,7,,,79,127
112311,note_on,55,0,0,,7,,,79,127
112361,note_off,50,0,0,,7,,,67,127
112414,note_off,53,0,0,,0,,,60,127
112415,note_on,1,0,0,,4,,,64,127
112415,note_on,0,0,0,,7,,,67,127
112465,note_off,50,0,0,,7,,,79,127
112520,note_on,55,0,0,,7,,,79,127
112570,note_off,50,0,0,,7,,,67,127
112623,note_off,53,0,0,,4,,,64,127
112624,note_on,1,0,0,,5,,,65,127
112624,note_on,0,0,0,,8,,,68,127
112674,note_off,50,0,0,,7,,,79,127
112729,note_on,55,0,0,,7,,,79,127
112779,note_off,50,0,0,,8,,,68,127
112832,note_off,53,0,0,,5,,,65,127
112833,note_on,1,0,0,,11,,,58,127
112833,note_on,0,0,0,,11,,,70,127
112883,note_off,50,0,0,,7,,,79,127
112938,note_on,55,0,0,,7,,,79,127
112988,note_off,50,0,0,,11,,,70,127
113041,note_off,53,0,0,,11,,,58,127
113042,note_on,1,0,0,,0,,,60,127
113042,note_on,0,0,0,,7,,,67,127
113092,note_off,50,0,0,,7,,,79,127
113147,note_on,55,0,0,,7,,,79,127
113197,note_off,50,0,0,,7,,,67,127
113250,note_off,53,0,0,,0,,,60,127
113251,note_on,1,0,0,,4,,,64,127
113251,note_on,0,0,0,,7,,,67,127
113301,note_off,50,0,0,,7,,,79,127
113356,note_on,55,0,0,,7,,,79,127
113406,note_off,50,0,0,,7,,,67,127
113459,note_off,53,0,0,,4,,,64,127
113460,note_on,1,0,0,,1,,,61,127
113460,note_on,0,0,0,,5,,,65,127
113460,note_on,0,0,0,,8,,,68,127
113510,note_off,50,0,0,,7,,,79,127
113565,note_on,55,0,0,,5,,,77,127
113615,note_off,50,0,0,,8,,,68,127
113668,note_off,53,0,0,,5,,,65,127
113669,note_on,1,0,0,,11,,,58,127
113669,note_on,0,0,0,,8,,,68,127
113719,note_off,50,0,0,,5,,,77,127
113774,note_off,55,0,0,,1,,,61,127
113774,note_on,0,0,0,,5,,,77,127
113824,note_off,50,0,0,,8,,,68,127
113877,note_off,53,0,0,,11,,,58,127
113878,note_on,1,0,0,,0,,,60,127
113878,note_on,0,0,0,,7,,,67,127
113928,note_off,50,0,0,,5,,,77,127
113983,note_on,55,0,0,,4,,,76,127
114033,note_off,50,0,0,,7,,,67,127
114086,note_off,53,0,0,,0,,,60,127
114087,note_on,1,0,0,,4,,,64,127
114087,note_on,0,0,0,,7,,,67,127
114137,note_off,50,0,0,,4,,,76,127
114192,note_on,55,0,0,,4,,,76,127
114242,note_off,50,0,0,,7,,,67,127
114295,note_off,53,0,0,,4,,,64,127
114296,note_on,1,0,0,,1,,,61,127
114296,note_on,0,0,0,,5,,,65,127
114296,note_on,0,0,0,,8,,,68,127
114346,note_off,50,0,0,,4,,,76,127
114401,note_on,55,0,0,,5,,,77,127
114451,note_off,50,0,0,,8,,,68,127
114504,note_off,53,0,0,,5,,,65,127
114505,note_on,1,0,0,,11,,,58,127
114505,note_on,0,0,0,,8,,,68,127
114555,note_off,50,0,0,,5,,,77,127
114610,note_on,55,0,0,,5,,,77,127
114660,note_off,50,0,0,,8,,,68,127
114710,note_off,50,0,0,,1,,,61,127
114713,note_off,3,0,0,,11,,,58,127
114714,note_on,1,0,0,,0,,,60,127
114714,note_on,0,0,0,,7,,,67,127
114764,note_off,50,0,0,,5,,,77,127
114819,note_on,55,0,0,,4,,,76,127
114869,note_off,50,0,0,,7,,,67,127
114922,note_off,53,0,0,,0,,,60,127
114923,note_on,1,0,0,,4,,,64,127
114923,note_on,0,0,0,,7,,,67,127
114973,note_off,50,0,0,,4,,,76,127
115028,note_on,55,0,0,,4,,,76,127
115078,note_off,50,0,0,,7,,,67,127
115131,note_off,53,0,0,,4,,,64,127
115132,note_on,1,0,0,,1,,,61,127
115132,note_on,0,0,0,,5,,,65,127
115132,note_on,0,0,0,,8,,,68,127
115182,note_off,50,0,0,,4,,,76,127
115237,note_on,55,0,0,,5,,,77,127
115287,note_off,50,0,0,,8,,,68,127
115340,note_off,53,0,0,,5,,,65,127
115341,note_on,1,0,0,,11,,,58,127
115341,note_on,0,0,0,,8,,,68,127
115391,note_off,50,0,0,,5,,,77,127
115446,note_on,55,0,0,,5,,,77,127
115496,note_off,50,0,0,,8,,,68,127
115546,note_off,50,0,0,,1,,,61,127
115549,note_off,3,0,0,,5,,,77,127
115549,note_off,0,0,0,,11,,,58,127
115550,note_on,1,0,0,,0,,,60,127
115550,note_on,0,0,0,,4,,,76,127
115654,note_off,104,0,0,,4,,,76,127
115655,note_on,1,0,0,,0,,,72,127
115759,note_off,104,0,0,,0,,,72,127
115760,note_on,1,0,0,,7,,,67,127
115864,note_off,104,0,0,,7,,,67,127
115865,note_on,1,0,0,,4,,,76,127
115969,note_off,104,0,0,,4,,,76,127
115970,note_on,1,0,0,,7,,,79,127
116074,note_off,104,0,0,,0,,,60,127
116075,note_on,1,0,0,,7,,,67,127
116179,note_off,104,0,0,,7,,,67,127
116180,note_on,1,0,0,,4,,,64,127
116284,note_off,104,0,0,,4,,,64,127
116285,note_on,1,0,0,,0,,,60,127
116389,note_off,104,0,0,,0,,,60,127
116389,note_off,0,0,0,,7,,,79,127
116408,note_on,19,0,0,,10,,,81,127
116408,note_on,0,0,0,,5,,,41,127
116512,note_off,104,0,0,,10,,,81,127
116513,note_on,1,0,0,,5,,,77,127
116617,note_off,104,0,0,,5,,,77,127
116618,note_on,1,0,0,,2,,,74,127
116722,note_off,104,0,0,,2,,,74,127
116723,note_on,1,0,0,,12,,,71,127
116827,note_off,104,0,0,,12,,,71,127
116828,note_on,1,0,0,,10,,,81,127
116932,note_off,104,0,0,,5,,,41,127
116933,note_on,1,0,0,,5,,,65,127
117037,note_off,104,0,0,,5,,,65,127
117038,note_on,1,0,0,,2,,,62,127
117142,note_off,104,0,0,,2,,,62,127
117143,note_on,1,0,0,,12,,,59,127
117247,note_off,104,0,0,,12,,,59,127
117247,note_off,0,0,0,,10,,,81,127
117248,note_on,1,0,0,,7,,,79,127
117248,note_on,0,0,0,,4,,,40,127
117352,note_off,104,0,0,,7,,,79,127
117353,note_on,1,0,0,,4,,,76,127
117457,note_off,104,0,0,,4,,,76,127
117458,note_on,1,0,0,,0,,,72,127
117562,note_off,104,0,0,,0,,,72,127
117563,note_on,1,0,0,,7,,,67,127
117667,note_off,104,0,0,,7,,,67,127
117668,note_on,1,0,0,,7,,,79,127
117772,note_off,104,0,0,,4,,,40,127
117773,note_on,1,0,0,,4,,,64,127
117877,note_off,104,0,0,,4,,,64,127
117878,note_on,1,0,0,,0,,,60,127
117982,note_off,104,0,0,,0,,,60,127
117983,note_on,1,0,0,,10,,,57,127
118087,note_off,104,0,0,,10,,,57,127
118087,note_off,0,0,0,,7,,,79,127
118088,note_on,1,0,0,,5,,,77,127
118088,note_on,0,0,0,,2,,,38,127
118192,note_off,104,0,0,,5,,,77,127
118193,note_on,1,0,0,,2,,,74,127
118297,note_off,104,0,0,,2,,,74,127
118298,note_on,1,0,0,,12,,,71,127
118402,note_off,104,0,0,,12,,,71,127
118403,note_on,1,0,0,,5,,,65,127
118507,note_off,104,0,0,,5,,,65,127
118508,note_on,1,0,0,,5,,,77,127
118612,note_off,104,0,0,,2,,,38,127
118613,note_on,1,0,0,,2,,,62,127
118717,note_off,104,0,0,,2,,,62,127
118718,note_on,1,0,0,,12,,,59,127
118822,note_off,104,0,0,,12,,,59,127
118823,note_on,1,0,0,,7,,,55,127
118927,note_off,104,0,0,,7,,,55,127
118927,note_off,0,0,0,,5,,,77,127
118928,note_on,1,0,0,,4,,,76,127
118928,note_on,0,0,0,,0,,,36,127
119032,note_off,104,0,0,,4,,,76,127
119033,note_on,1,0,0,,0,,,72,127
119137,note_off,104,0,0,,0,,,72,127
119138,note_on,1,0,0,,7,,,67,127
119242,note_off,104,0,0,,7,,,67,127
119243,note_on,1,0,0,,4,,,76,127
119347,note_off,104,0,0,,4,,,76,127
119348,note_on,1,0,0,,7,,,79,127
119452,note_off,104,0,0,,0,,,36,127
119453,note_on,1,0,0,,7,,,67,127
119557,note_off,104,0,0,,7,,,67,127
119558,note_on,1,0,0,,4,,,64,127
119662,note_off,104,0,0,,4,,,64,127
119663,note_on,1,0,0,,0,,,60,127
119698,note_off,35,0,0,,7,,,79,127
119767,note_off,69,0,0,,0,,,60,127
119777,note_on,10,0,0,,10,,,81,127
119777,note_on,0,0,0,,5,,,41,127
119881,note_off,104,0,0,,10,,,81,127
119891,note_on,10,0,0,,5,,,77,127
119995,note_off,104,0,0,,5,,,77,127
119996,note_on,1,0,0,,0,,,72,127
120100,note_off,104,0,0,,0,,,72,127
120101,note_on,1,0,0,,5,,,77,127
120205,note_off,104,0,0,,5,,,77,127
120206,note_on,1,0,0,,12,,,83,127
120301,note_off,95,0,0,,5,,,41,127
120311,note_on,10,0,0,,10,,,69,127
120415,note_off,104,0,0,,10,,,69,127
120416,note_on,1,0,0,,2,,,62,127
120520,note_off,104,0,0,,2,,,62,127
120521,note_on,1,0,0,,12,,,59,127
120625,note_off,104,0,0,,12,,,59,127
120625,note_off,0,0,0,,12,,,83,127
120626,note_on,1,0,0,,4,,,40,127
120626,note_on,0,0,0,,0,,,84,127
120730,note_off,104,0,0,,0,,,84,127
120731,note_on,1,0,0,,7,,,79,127
120835,note_off,104,0,0,,7,,,79,127
120836,note_on,1,0,0,,4,,,76,127
120940,note_off,104,0,0,,4,,,76,127
120941,note_on,1,0,0,,0,,,72,127
121038,note_off,97,0,0,,0,,,72,127
121046,note_on,8,0,0,,0,,,72,127
121150,note_off,104,0,0,,4,,,40,127
121151,note_on,1,0,0,,4,,,64,127
121255,note_off,104,0,0,,4,,,64,127
121256,note_on,1,0,0,,0,,,60,127
121360,note_off,104,0,0,,0,,,60,127
121361,note_on,1,0,0,,10,,,57,127
121465,note_off,104,0,0,,10,,,57,127
121465,note_off,0,0,0,,0,,,72,127
121466,note_on,1,0,0,,2,,,38,127
121466,note_on,0,0,0,,12,,,71,127
121570,note_off,104,0,0,,12,,,71,127
121571,note_on,1,0,0,,5,,,65,127
121675,note_off,104,0,0,,5,,,65,127
121676,note_on,1,0,0,,12,,,71,127
121780,note_off,104,0,0,,12,,,71,127
121781,note_on,1,0,0,,2,,,74,127
121885,note_off,104,0,0,,2,,,74,127
121886,note_on,1,0,0,,5,,,77,127
121990,note_off,104,0,0,,2,,,38,127
121991,note_on,1,0,0,,2,,,62,127
122095,note_off,104,0,0,,2,,,62,127
122096,note_on,1,0,0,,12,,,59,127
122200,note_off,104,0,0,,12,,,59,127
122201,note_on,1,0,0,,7,,,55,127
122280,note_off,79,0,0,,5,,,77,127
122305,note_off,25,0,0,,7,,,55,127
122306,note_on,1,0,0,,0,,,36,127
122306,note_on,0,0,0,,4,,,76,127
122410,note_off,104,0,0,,4,,,76,127
122411,note_on,1,0,0,,0,,,72,127
122515,note_off,104,0,0,,0,,,72,127
122516,note_on,1,0,0,,7,,,67,127
122620,note_off,104,0,0,,7,,,67,127
122621,note_on,1,0,0,,4,,,64,127
122725,note_off,104,0,0,,4,,,64,127
122726,note_on,1,0,0,,0,,,60,127
123108,note_off,382,0,0,,0,,,60,127
123144,note_off,36,0,0,,0,,,36,127
123163,note_on,19,0,0,,4,,,64,127
123163,note_on,0,0,0,,0,,,60,127
123268,note_on,105,0,0,,4,,,76,127
123318,note_off,50,0,0,,4,,,64,127
123371,note_off,53,0,0,,0,,,60,127
123372,note_on,1,0,0,,5,,,65,127
123372,note_on,0,0,0,,2,,,62,127
123422,note_off,50,0,0,,4,,,76,127
123477,note_on,55,0,0,,4,,,76,127
123527,note_off,50,0,0,,5,,,65,127
123580,note_off,53,0,0,,2,,,62,127
123581,note_on,1,0,0,,7,,,67,127
123581,note_on,0,0,0,,4,,,64,127
123631,note_off,50,0,0,,4,,,76,127
123686,note_on,55,0,0,,4,,,76,127
123736,note_off,50,0,0,,7,,,67,127
123789,note_off,53,0,0,,4,,,64,127
123790,note_on,1,0,0,,10,,,69,127
123790,note_on,0,0,0,,5,,,65,127
123840,note_off,50,0,0,,4,,,76,127
123895,note_on,55,0,0,,4,,,76,127
123945,note_off,50,0,0,,10,,,69,127
123998,note_off,53,0,0,,5,,,65,127
123999,note_on,1,0,0,,12,,,71,127
123999,note_on,0,0,0,,7,,,67,127
124049,note_off,50,0,0,,4,,,76,127
124104,note_on,55,0,0,,7,,,79,127
124154,note_off,50,0,0,,12,,,71,127
124207,note_off,53,0,0,,7,,,67,127
124208,note_on,1,0,0,,0,,,72,127
124208,note_on,0,0,0,,10,,,69,127
124258,note_off,50,0,0,,7,,,79,127
124313,note_on,55,0,0,,7,,,79,127
124363,note_off,50,0,0,,0,,,72,127
124416,note_off,53,0,0,,10,,,69,127
124417,note_on,1,0,0,,2,,,74,127
124417,note_on,0,0,0,,12,,,71,127
124467,note_off,50,0,0,,7,,,79,127
124522,note_on,55,0,0,,7,,,79,127
124572,note_off,50,0,0,,2,,,74,127
124625,note_off,53,0,0,,12,,,71,127
124626,note_on,1,0,0,,4,,,76,127
124626,note_on,0,0,0,,0,,,72,127
124676,note_off,50,0,0,,7,,,79,127
124731,note_on,55,0,0,,7,,,79,127
124781,note_off,50,0,0,,4,,,76,127
124834,note_off,53,0,0,,7,,,79,127
124834,note_off,0,0,0,,0,,,72,127
124844,note_on,10,0,0,,5,,,65,127
124844,note_on,0,0,0,,2,,,62,127
124957,note_on,113,0,0,,5,,,77,127
124998,note_off,41,0,0,,5,,,65,127
125051,note_off,53,0,0,,2,,,62,127
125061,note_on,10,0,0,,4,,,64,127
125061,note_on,0,0,0,,7,,,67,127
125111,note_off,50,0,0,,5,,,77,127
125166,note_on,55,0,0,,5,,,77,127
125216,note_off,50,0,0,,7,,,67,127
125269,note_off,53,0,0,,4,,,64,127
125270,note_on,1,0,0,,5,,,65,127
125270,note_on,0,0,0,,10,,,69,127
125320,note_off,50,0,0,,5,,,77,127
125375,note_on,55,0,0,,5,,,77,127
125425,note_off,50,0,0,,10,,,69,127
125478,note_off,53,0,0,,5,,,65,127
125479,note_on,1,0,0,,7,,,67,127
125479,note_on,0,0,0,,12,,,71,127
125529,note_off,50,0,0,,5,,,77,127
125584,note_on,55,0,0,,5,,,77,127
125634,note_off,50,0,0,,12,,,71,127
125687,note_off,53,0,0,,7,,,67,127
125688,note_on,1,0,0,,10,,,69,127
125688,note_on,0,0,0,,0,,,72,127
125738,note_off,50,0,0,,5,,,77,127
125793,note_on,55,0,0,,10,,,81,127
125843,note_off,50,0,0,,0,,,72,127
125896,note_off,53,0,0,,10,,,69,127
125897,note_on,1,0,0,,12,,,71,127
125897,note_on,0,0,0,,2,,,74,127
125947,note_off,50,0,0,,10,,,81,127
126002,note_on,55,0,0,,10,,,81,127
126052,note_off,50,0,0,,2,,,74,127
126105,note_off,53,0,0,,12,,,71,127
126106,note_on,1,0,0,,0,,,72,127
126106,note_on,0,0,0,,4,,,76,127
126156,note_off,50,0,0,,10,,,81,127
126211,note_on,55,0,0,,10,,,81,127
126261,note_off,50,0,0,,4,,,76,127
126314,note_off,53,0,0,,0,,,72,127
126315,note_on,1,0,0,,2,,,74,127
126315,note_on,0,0,0,,5,,,77,127
126365,note_off,50,0,0,,10,,,81,127
126420,note_on,55,0,0,,10,,,81,127
126470,note_off,50,0,0,,5,,,77,127
126523,note_off,53,0,0,,10,,,81,127
126523,note_off,0,0,0,,2,,,74,127
126533,note_on,10,0,0,,0,,,72,127
126533,note_on,0,0,0,,4,,,64,127
126646,note_on,113,0,0,,0,,,84,127
126687,note_off,41,0,0,,0,,,72,127
126740,note_off,53,0,0,,4,,,64,127
126750,note_on,10,0,0,,2,,,74,127
126750,note_on,0,0,0,,5,,,65,127
126800,note_off,50,0,0,,0,,,84,127
126855,note_on,55,0,0,,0,,,84,127
126905,note_off,50,0,0,,2,,,74,127
126958,note_off,53,0,0,,5,,,65,127
126959,note_on,1,0,0,,4,,,76,127
126959,note_on,0,0,0,,7,,,67,127
127009,note_off,50,0,0,,0,,,84,127
127064,note_on,55,0,0,,0,,,84,127
127114,note_off,50,0,0,,4,,,76,127
127167,note_off,53,0,0,,7,,,67,127
127168,note_on,1,0,0,,5,,,77,127
127168,note_on,0,0,0,,10,,,69,127
127218,note_off,50,0,0,,0,,,84,127
127273,note_on,55,0,0,,0,,,84,127
127323,note_off,50,0,0,,5,,,77,127
127376,note_off,53,0,0,,0,,,84,127
127376,note_off,0,0,0,,10,,,69,127
127377,note_on,1,0,0,,12,,,83,127
127377,note_on,0,0,0,,7,,,67,127
127481,note_off,104,0,0,,12,,,83,127
127482,note_on,1,0,0,,0,,,84,127
127586,note_off,104,0,0,,0,,,84,127
127586,note_off,0,0,0,,7,,,67,127
127587,note_on,1,0,0,,10,,,81,127
127587,note_on,0,0,0,,5,,,65,127
127691,note_off,104,0,0,,10,,,81,127
127692,note_on,1,0,0,,12,,,83,127
127796,note_off,104,0,0,,12,,,83,127
127796,note_off,0,0,0,,5,,,65,127
127797,note_on,1,0,0,,7,,,79,127
127797,note_on,0,0,0,,4,,,64,127
127901,note_off,104,0,0,,7,,,79,127
127902,note_on,1,0,0,,10,,,81,127
128006,note_off,104,0,0,,10,,,81,127
128006,note_off,0,0,0,,4,,,64,127
128007,note_on,1,0,0,,5,,,77,127
128007,note_on,0,0,0,,2,,,62,127
128111,note_off,104,0,0,,5,,,77,127
128112,note_on,1,0,0,,7,,,79,127
128216,note_off,104,0,0,,7,,,79,127
128216,note_off,0,0,0,,2,,,62,127
128217,note_on,1,0,0,,4,,,76,127
128217,note_on,0,0,0,,0,,,60,127
128321,note_off,104,0,0,,4,,,76,127
128322,note_on,1,0,0,,5,,,77,127
128426,note_off,104,0,0,,5,,,77,127
128426,note_off,0,0,0,,0,,,60,127
128427,note_on,1,0,0,,7,,,79,127
128427,note_on,0,0,0,,5,,,65,127
128531,note_off,104,0,0,,7,,,79,127
128532,note_on,1,0,0,,5,,,77,127
128636,note_off,104,0,0,,5,,,77,127
128636,note_off,0,0,0,,5,,,65,127
128637,note_on,1,0,0,,4,,,76,127
128637,note_on,0,0,0,,7,,,67,127
128741,note_off,104,0,0,,4,,,76,127
128742,note_on,1,0,0,,2,,,74,127
128846,note_off,104,0,0,,2,,,74,127
128847,note_on,1,0,0,,0,,,72,127
128847,note_on,0,0,0,,7,,,55,127
128951,note_off,104,0,0,,0,,,72,127
128952,note_on,1,0,0,,12,,,71,127
129009,note_off,57,0,0,,7,,,67,127
129056,note_off,47,0,0,,12,,,71,127
129056,note_off,0,0,0,,7,,,55,127
129057,note_on,1,0,0,,0,,,72,127
129057,note_on,0,0,0,,0,,,60,127
129161,note_off,104,0,0,,0,,,72,127
129180,note_on,19,0,0,,7,,,79,127
129265,note_off,85,0,0,,0,,,60,127
129284,note_off,19,0,0,,7,,,79,127
129285,note_on,1,0,0,,5,,,77,127
129389,note_off,104,0,0,,5,,,77,127
129390,note_on,1,0,0,,7,,,79,127
129494,note_off,104,0,0,,7,,,79,127
129495,note_on,1,0,0,,5,,,77,127
129495,note_on,0,0,0,,10,,,81,127
129598,note_off,103,0,0,,5,,,77,127
129599,note_off,1,0,0,,10,,,81,127
129600,note_on,1,0,0,,5,,,77,127
129704,note_off,104,0,0,,5,,,77,127
129705,note_on,1,0,0,,4,,,76,127
129809,note_off,104,0,0,,4,,,76,127
129810,note_on,1,0,0,,5,,,77,127
129914,note_off,104,0,0,,5,,,77,127
129915,note_on,1,0,0,,4,,,76,127
129915,note_on,0,0,0,,7,,,79,127
130018,note_off,103,0,0,,4,,,76,127
130019,note_off,1,0,0,,7,,,79,127
130020,note_on,1,0,0,,4,,,76,127
130124,note_off,104,0,0,,4,,,76,127
130125,note_on,1,0,0,,2,,,74,127
130229,note_off,104,0,0,,2,,,74,127
130230,note_on,1,0,0,,4,,,76,127
130334,note_off,104,0,0,,4,,,76,127
130335,note_on,1,0,0,,2,,,74,127
130335,note_on,0,0,0,,5,,,77,127
130438,note_off,103,0,0,,2,,,74,127
130439,note_off,1,0,0,,5,,,77,127
130440,note_on,1,0,0,,2,,,74,127
130544,note_off,104,0,0,,2,,,74,127
130545,note_on,1,0,0,,0,,,72,127
130649,note_off,104,0,0,,0,,,72,127
130650,note_on,1,0,0,,2,,,74,127
130754,note_off,104,0,0,,2,,,74,127
130755,note_on,1,0,0,,0,,,72,127
130755,note_on,0,0,0,,4,,,76,127
130859,note_off,104,0,0,,4,,,76,127
130860,note_on,1,0,0,,5,,,77,127
130964,note_off,104,0,0,,5,,,77,127
130964,note_off,0,0,0,,0,,,72,127
130965,note_on,1,0,0,,5,,,65,127
130965,note_on,0,0,0,,7,,,79,127
131069,note_off,104,0,0,,7,,,79,127
131070,note_on,1,0,0,,5,,,77,127
131174,note_off,104,0,0,,5,,,77,127
131174,note_off,0,0,0,,5,,,65,127
131175,note_on,1,0,0,,7,,,67,127
131175,note_on,0,0,0,,4,,,76,127
131279,note_off,104,0,0,,4,,,76,127
131280,note_on,1,0,0,,2,,,74,127
131384,note_off,104,0,0,,2,,,74,127
131384,note_off,0,0,0,,7,,,67,127
131385,note_on,1,0,0,,7,,,55,127
131385,note_on,0,0,0,,0,,,72,127
131489,note_off,104,0,0,,0,,,72,127
131490,note_on,1,0,0,,12,,,71,127
131594,note_off,104,0,0,,12,,,71,127
131594,note_off,0,0,0,,7,,,55,127
131595,note_on,1,0,0,,0,,,60,127
131595,note_on,0,0,0,,0,,,72,127
131699,note_off,104,0,0,,0,,,72,127
131718,note_on,19,0,0,,7,,,67,127
131822,note_off,104,0,0,,7,,,67,127
131823,note_on,1,0,0,,5,,,65,127
131927,note_off,104,0,0,,5,,,65,127
131928,note_on,1,0,0,,7,,,67,127
132014,note_off,86,0,0,,0,,,60,127
132031,note_off,17,0,0,,7,,,67,127
132032,note_on,1,0,0,,10,,,69,127
132032,note_on,0,0,0,,5,,,65,127
132136,note_off,104,0,0,,5,,,65,127
132136,note_off,0,0,0,,10,,,69,127
132137,note_on,1,0,0,,5,,,65,127
132241,note_off,104,0,0,,5,,,65,127
132242,note_on,1,0,0,,4,,,64,127
132346,note_off,104,0,0,,4,,,64,127
132347,note_on,1,0,0,,5,,,65,127
132451,note_off,104,0,0,,5,,,65,127
132452,note_on,1,0,0,,7,,,67,127
132452,note_on,0,0,0,,4,,,64,127
132556,note_off,104,0,0,,4,,,64,127
132556,note_off,0,0,0,,7,,,67,127
132557,note_on,1,0,0,,4,,,64,127
132661,note_off,104,0,0,,4,,,64,127
132662,note_on,1,0,0,,2,,,62,127
132766,note_off,104,0,0,,2,,,62,127
132767,note_on,1,0,0,,4,,,64,127
132871,note_off,104,0,0,,4,,,64,127
132872,note_on,1,0,0,,5,,,65,127
132872,note_on,0,0,0,,2,,,62,127
132976,note_off,104,0,0,,2,,,62,127
132976,note_off,0,0,0,,5,,,65,127
132977,note_on,1,0,0,,2,,,62,127
133081,note_off,104,0,0,,2,,,62,127
133082,note_on,1,0,0,,0,,,60,127
133186,note_off,104,0,0,,0,,,60,127
133187,note_on,1,0,0,,2,,,62,127
133291,note_off,104,0,0,,2,,,62,127
133292,note_on,1,0,0,,4,,,64,127
133292,note_on,0,0,0,,0,,,60,127
133396,note_off,104,0,0,,4,,,64,127
133397,note_on,1,0,0,,5,,,65,127
133501,note_off,104,0,0,,5,,,65,127
133501,note_off,0,0,0,,0,,,60,127
133502,note_on,1,0,0,,7,,,67,127
133502,note_on,0,0,0,,5,,,53,127
133606,note_off,104,0,0,,7,,,67,127
133607,note_on,1,0,0,,5,,,65,127
133711,note_off,104,0,0,,5,,,65,127
133711,note_off,0,0,0,,5,,,53,127
133712,note_on,1,0,0,,4,,,64,127
133712,note_on,0,0,0,,7,,,55,127
133816,note_off,104,0,0,,4,,,64,127
133817,note_on,1,0,0,,2,,,62,127
133921,note_off,104,0,0,,2,,,62,127
133921,note_off,0,0,0,,7,,,55,127
133922,note_on,1,0,0,,0,,,60,127
133922,note_on,0,0,0,,7,,,43,127
134026,note_off,104,0,0,,0,,,60,127
134027,note_on,1,0,0,,12,,,59,127
134131,note_off,104,0,0,,12,,,59,127
134131,note_off,0,0,0,,7,,,43,127
134132,note_on,1,0,0,,0,,,60,127
134132,note_on,0,0,0,,0,,,36,127
134254,note_on,122,0,0,,7,,,55,127
134263,note_off,9,0,0,,0,,,60,127
134358,note_off,95,0,0,,7,,,55,127
134359,note_on,1,0,0,,4,,,64,127
134464,note_on,105,0,0,,0,,,60,127
134479,note_off,15,0,0,,4,,,64,127
134567,note_off,88,0,0,,0,,,60,127
134568,note_on,1,0,0,,7,,,67,127
134673,note_on,105,0,0,,4,,,64,127
134688,note_off,15,0,0,,7,,,67,127
134776,note_off,88,0,0,,4,,,64,127
134777,note_on,1,0,0,,0,,,72,127
134882,note_on,105,0,0,,7,,,67,127
134897,note_off,15,0,0,,0,,,72,127
134985,note_off,88,0,0,,7,,,67,127
134986,note_on,1,0,0,,4,,,76,127
135091,note_on,105,0,0,,0,,,72,127
135106,note_off,15,0,0,,4,,,76,127
135194,note_off,88,0,0,,0,,,72,127
135195,note_on,1,0,0,,7,,,79,127
135300,note_on,105,0,0,,4,,,76,127
135315,note_off,15,0,0,,7,,,79,127
135387,note_off,72,0,0,,0,,,36,127
135403,note_off,16,0,0,,4,,,76,127
135404,note_on,1,0,0,,0,,,84,127
135509,note_on,105,0,0,,7,,,79,127
135612,note_off,103,0,0,,0,,,84,127
135613,note_off,1,0,0,,7,,,79,127
135614,note_on,1,0,0,,4,,,76,127
135718,note_off,104,0,0,,4,,,76,127
135719,note_on,1,0,0,,7,,,79,127
135823,note_off,104,0,0,,7,,,79,127
135824,note_on,1,0,0,,0,,,72,127
137081,note_off,1257,0,0,,0,,,72,127
141312,end_of_track,4231,1,0,,,,,,
