tick,type,time,meta,track,program,channel,pitch,tempo,note,velocity
0,copyright,0,1,0,,,,,,
0,program_change,0,0,0,6,0,,,,
0,pitchwheel,0,0,0,,0,0,,,
0,program_change,0,0,0,6,1,,,,
0,pitchwheel,0,0,0,,1,-590,,,
0,program_change,0,0,0,6,2,,,,
0,pitchwheel,0,0,0,,2,-272,,,
0,program_change,0,0,0,6,3,,,,
0,pitchwheel,0,0,0,,3,-353,,,
0,program_change,0,0,0,6,4,,,,
0,pitchwheel,0,0,0,,4,-560,,,
0,program_change,0,0,0,6,5,,,,
0,pitchwheel,0,0,0,,5,-80,,,
0,program_change,0,0,0,6,6,,,,
0,pitchwheel,0,0,0,,6,-625,,,
0,program_change,0,0,0,6,7,,,,
0,pitchwheel,0,0,0,,7,-130,,,
0,program_change,0,0,0,6,8,,,,
0,pitchwheel,0,0,0,,8,-512,,,
0,program_change,0,0,0,6,10,,,,
0,pitchwheel,0,0,0,,10,-464,,,
0,program_change,0,0,0,6,11,,,,
0,pitchwheel,0,0,0,,11,-208,,,
0,program_change,0,0,0,6,12,,,,
0,pitchwheel,0,0,0,,12,-553,,,
0,set_tempo,0,1,0,,,,500000,,
83,note_on,83,0,0,,2,,,74,127
411,note_off,328,0,0,,2,,,74,127
412,note_on,1,0,0,,10,,,81,127
741,note_on,329,0,0,,10,,,57,127
1069,note_off,328,0,0,,10,,,57,127
1070,note_on,1,0,0,,2,,,62,127
1398,note_off,328,0,0,,2,,,62,127
1398,note_off,0,0,0,,10,,,81,127
1399,note_on,1,0,0,,6,,,78,127
1399,note_on,0,0,0,,2,,,74,127
1727,note_off,328,0,0,,2,,,74,127
1727,note_off,0,0,0,,6,,,78,127
1728,note_on,1,0,0,,4,,,76,127
1728,note_on,0,0,0,,1,,,73,127
1837,note_off,109,0,0,,1,,,73,127
1837,note_off,0,0,0,,4,,,76,127
1838,note_on,1,0,0,,2,,,74,127
1838,note_on,0,0,0,,12,,,71,127
1947,note_off,109,0,0,,12,,,71,127
1947,note_off,0,0,0,,2,,,74,127
1948,note_on,1,0,0,,1,,,73,127
1948,note_on,0,0,0,,10,,,69,127
2057,note_off,109,0,0,,10,,,69,127
2057,note_off,0,0,0,,1,,,73,127
2058,note_on,1,0,0,,12,,,71,127
2058,note_on,0,0,0,,7,,,67,127
2167,note_off,109,0,0,,7,,,67,127
2167,note_off,0,0,0,,12,,,71,127
2168,note_on,1,0,0,,10,,,69,127
2168,note_on,0,0,0,,6,,,66,127
2277,note_off,109,0,0,,6,,,66,127
2277,note_off,0,0,0,,10,,,69,127
2278,note_on,1,0,0,,7,,,67,127
2278,note_on,0,0,0,,4,,,64,127
2387,note_off,109,0,0,,4,,,64,127
2387,note_off,0,0,0,,7,,,67,127
2388,note_on,1,0,0,,6,,,66,127
2388,note_on,0,0,0,,2,,,62,127
2716,note_off,328,0,0,,2,,,62,127
2716,note_off,0,0,0,,6,,,66,127
2717,note_on,1,0,0,,10,,,81,127
2717,note_on,0,0,0,,6,,,78,127
3045,note_off,328,0,0,,6,,,78,127
3045,note_off,0,0,0,,10,,,81,127
3046,note_on,1,0,0,,7,,,79,127
3046,note_on,0,0,0,,4,,,76,127
3155,note_off,109,0,0,,4,,,76,127
3155,note_off,0,0,0,,7,,,79,127
3156,note_on,1,0,0,,6,,,78,127
3156,note_on,0,0,0,,2,,,74,127
3265,note_off,109,0,0,,2,,,74,127
3265,note_off,0,0,0,,6,,,78,127
3266,note_on,1,0,0,,4,,,76,127
3266,note_on,0,0,0,,1,,,73,127
3375,note_off,109,0,0,,1,,,73,127
3375,note_off,0,0,0,,4,,,76,127
3376,note_on,1,0,0,,2,,,74,127
3376,note_on,0,0,0,,12,,,71,127
3485,note_off,109,0,0,,12,,,71,127
3485,note_off,0,0,0,,2,,,74,127
3486,note_on,1,0,0,,1,,,73,127
3486,note_on,0,0,0,,10,,,69,127
3595,note_off,109,0,0,,10,,,69,127
3595,note_off,0,0,0,,1,,,73,127
3596,note_on,1,0,0,,12,,,71,127
3596,note_on,0,0,0,,7,,,67,127
3705,note_off,109,0,0,,7,,,67,127
3705,note_off,0,0,0,,12,,,71,127
3706,note_on,1,0,0,,10,,,69,127
3706,note_on,0,0,0,,6,,,66,127
4034,note_off,328,0,0,,6,,,66,127
4034,note_off,0,0,0,,10,,,69,127
4035,note_on,1,0,0,,2,,,86,127
4035,note_on,0,0,0,,6,,,66,127
4144,note_off,109,0,0,,2,,,86,127
4145,note_on,1,0,0,,10,,,81,127
4254,note_off,109,0,0,,10,,,81,127
4255,note_on,1,0,0,,2,,,74,127
4364,note_off,109,0,0,,2,,,74,127
4364,note_off,0,0,0,,6,,,66,127
4365,note_on,1,0,0,,6,,,78,127
4365,note_on,0,0,0,,7,,,67,127
4420,note_on,55,0,0,,4,,,76,127
4427,note_off,7,0,0,,6,,,78,127
4475,note_on,48,0,0,,6,,,78,127
4482,note_off,7,0,0,,4,,,76,127
4530,note_on,48,0,0,,4,,,76,127
4537,note_off,7,0,0,,6,,,78,127
4585,note_on,48,0,0,,6,,,78,127
4592,note_off,7,0,0,,4,,,76,127
4640,note_on,48,0,0,,4,,,76,127
4647,note_off,7,0,0,,6,,,78,127
4694,note_off,47,0,0,,7,,,67,127
4695,note_on,1,0,0,,6,,,78,127
4695,note_on,0,0,0,,10,,,69,127
4702,note_off,7,0,0,,4,,,76,127
4750,note_on,48,0,0,,4,,,76,127
4757,note_off,7,0,0,,6,,,78,127
4805,note_on,48,0,0,,6,,,78,127
4812,note_off,7,0,0,,4,,,76,127
4860,note_on,48,0,0,,4,,,76,127
4867,note_off,7,0,0,,6,,,78,127
4915,note_on,48,0,0,,2,,,74,127
4922,note_off,7,0,0,,4,,,76,127
4970,note_on,48,0,0,,4,,,76,127
4977,note_off,7,0,0,,2,,,74,127
5024,note_off,47,0,0,,10,,,69,127
5025,note_on,1,0,0,,6,,,78,127
5025,note_on,0,0,0,,2,,,62,127
5032,note_off,7,0,0,,4,,,76,127
5353,note_off,321,0,0,,2,,,62,127
5353,note_off,0,0,0,,6,,,78,127
5354,note_on,1,0,0,,10,,,81,127
5354,note_on,0,0,0,,2,,,62,127
5463,note_off,109,0,0,,10,,,81,127
5464,note_on,1,0,0,,2,,,74,127
5573,note_off,109,0,0,,2,,,74,127
5574,note_on,1,0,0,,10,,,69,127
5683,note_off,109,0,0,,10,,,69,127
5683,note_off,0,0,0,,2,,,62,127
5684,note_on,1,0,0,,1,,,73,127
5684,note_on,0,0,0,,7,,,55,127
5739,note_on,55,0,0,,12,,,71,127
5746,note_off,7,0,0,,1,,,73,127
5794,note_on,48,0,0,,1,,,73,127
5801,note_off,7,0,0,,12,,,71,127
5849,note_on,48,0,0,,12,,,71,127
5849,note_on,0,0,0,,4,,,64,127
5856,note_off,7,0,0,,1,,,73,127
5904,note_on,48,0,0,,10,,,69,127
5911,note_off,7,0,0,,12,,,71,127
5916,note_off,5,0,0,,7,,,55,127
5959,note_on,43,0,0,,12,,,71,127
5966,note_off,7,0,0,,10,,,69,127
6014,note_on,48,0,0,,2,,,74,127
6014,note_on,0,0,0,,10,,,57,127
6021,note_off,7,0,0,,12,,,71,127
6069,note_on,48,0,0,,1,,,73,127
6076,note_off,7,0,0,,2,,,74,127
6081,note_off,5,0,0,,4,,,64,127
6124,note_on,43,0,0,,2,,,74,127
6131,note_off,7,0,0,,1,,,73,127
6179,note_on,48,0,0,,1,,,73,127
6179,note_on,0,0,0,,6,,,66,127
6186,note_off,7,0,0,,2,,,74,127
6234,note_on,48,0,0,,12,,,71,127
6241,note_off,7,0,0,,1,,,73,127
6246,note_off,5,0,0,,10,,,57,127
6289,note_on,43,0,0,,1,,,73,127
6296,note_off,7,0,0,,12,,,71,127
6344,note_on,48,0,0,,4,,,76,127
6344,note_on,0,0,0,,12,,,59,127
6351,note_off,7,0,0,,1,,,73,127
6399,note_on,48,0,0,,2,,,74,127
6406,note_off,7,0,0,,4,,,76,127
6411,note_off,5,0,0,,6,,,66,127
6454,note_on,43,0,0,,4,,,76,127
6461,note_off,7,0,0,,2,,,74,127
6509,note_on,48,0,0,,2,,,74,127
6509,note_on,0,0,0,,7,,,67,127
6516,note_off,7,0,0,,4,,,76,127
6564,note_on,48,0,0,,1,,,73,127
6571,note_off,7,0,0,,2,,,74,127
6576,note_off,5,0,0,,12,,,59,127
6619,note_on,43,0,0,,2,,,74,127
6626,note_off,7,0,0,,1,,,73,127
6674,note_on,48,0,0,,6,,,78,127
6674,note_on,0,0,0,,1,,,61,127
6681,note_off,7,0,0,,2,,,74,127
6729,note_on,48,0,0,,4,,,76,127
6736,note_off,7,0,0,,6,,,78,127
6741,note_off,5,0,0,,7,,,67,127
6784,note_on,43,0,0,,6,,,78,127
6791,note_off,7,0,0,,4,,,76,127
6839,note_on,48,0,0,,4,,,76,127
6839,note_on,0,0,0,,10,,,69,127
6846,note_off,7,0,0,,6,,,78,127
6894,note_on,48,0,0,,2,,,74,127
6901,note_off,7,0,0,,4,,,76,127
6906,note_off,5,0,0,,1,,,61,127
6949,note_on,43,0,0,,4,,,76,127
6956,note_off,7,0,0,,2,,,74,127
7004,note_on,48,0,0,,7,,,79,127
7004,note_on,0,0,0,,2,,,62,127
7011,note_off,7,0,0,,4,,,76,127
7059,note_on,48,0,0,,6,,,78,127
7066,note_off,7,0,0,,7,,,79,127
7071,note_off,5,0,0,,10,,,69,127
7114,note_on,43,0,0,,7,,,79,127
7121,note_off,7,0,0,,6,,,78,127
7169,note_on,48,0,0,,6,,,78,127
7169,note_on,0,0,0,,12,,,71,127
7176,note_off,7,0,0,,7,,,79,127
7224,note_on,48,0,0,,4,,,76,127
7231,note_off,7,0,0,,6,,,78,127
7236,note_off,5,0,0,,2,,,62,127
7279,note_on,43,0,0,,6,,,78,127
7286,note_off,7,0,0,,4,,,76,127
7334,note_on,48,0,0,,10,,,81,127
7334,note_on,0,0,0,,4,,,64,127
7341,note_off,7,0,0,,6,,,78,127
7389,note_on,48,0,0,,7,,,79,127
7396,note_off,7,0,0,,10,,,81,127
7401,note_off,5,0,0,,12,,,71,127
7444,note_on,43,0,0,,10,,,81,127
7451,note_off,7,0,0,,7,,,79,127
7499,note_on,48,0,0,,7,,,79,127
7499,note_on,0,0,0,,1,,,73,127
7506,note_off,7,0,0,,10,,,81,127
7554,note_on,48,0,0,,6,,,78,127
7561,note_off,7,0,0,,7,,,79,127
7566,note_off,5,0,0,,4,,,64,127
7609,note_on,43,0,0,,7,,,79,127
7616,note_off,7,0,0,,6,,,78,127
7664,note_on,48,0,0,,12,,,83,127
7664,note_on,0,0,0,,6,,,66,127
7671,note_off,7,0,0,,7,,,79,127
7719,note_on,48,0,0,,10,,,81,127
7726,note_off,7,0,0,,12,,,83,127
7731,note_off,5,0,0,,1,,,73,127
7774,note_on,43,0,0,,12,,,83,127
7781,note_off,7,0,0,,10,,,81,127
7829,note_on,48,0,0,,10,,,81,127
7829,note_on,0,0,0,,2,,,74,127
7836,note_off,7,0,0,,12,,,83,127
7884,note_on,48,0,0,,7,,,79,127
7891,note_off,7,0,0,,10,,,81,127
7896,note_off,5,0,0,,6,,,66,127
7939,note_on,43,0,0,,10,,,81,127
7946,note_off,7,0,0,,7,,,79,127
7994,note_on,48,0,0,,12,,,83,127
7994,note_on,0,0,0,,7,,,67,127
8001,note_off,7,0,0,,10,,,81,127
8061,note_off,60,0,0,,2,,,74,127
8157,note_off,96,0,0,,7,,,67,127
8158,note_off,1,0,0,,12,,,83,127
8159,note_on,1,0,0,,1,,,85,127
8159,note_on,0,0,0,,10,,,69,127
8322,note_off,163,0,0,,10,,,69,127
8323,note_off,1,0,0,,1,,,85,127
8324,note_on,1,0,0,,2,,,86,127
8324,note_on,0,0,0,,12,,,71,127
8405,note_off,81,0,0,,2,,,86,127
8406,note_on,1,0,0,,1,,,85,127
8487,note_off,81,0,0,,1,,,85,127
8488,note_on,1,0,0,,12,,,83,127
8569,note_off,81,0,0,,12,,,83,127
8570,note_on,1,0,0,,10,,,81,127
8651,note_off,81,0,0,,10,,,81,127
8651,note_off,0,0,0,,12,,,71,127
8652,note_on,1,0,0,,7,,,79,127
8652,note_on,0,0,0,,7,,,67,127
8733,note_off,81,0,0,,7,,,79,127
8734,note_on,1,0,0,,6,,,78,127
8815,note_off,81,0,0,,6,,,78,127
8816,note_on,1,0,0,,4,,,76,127
8897,note_off,81,0,0,,4,,,76,127
8898,note_on,1,0,0,,2,,,74,127
8979,note_off,81,0,0,,2,,,74,127
8979,note_off,0,0,0,,7,,,67,127
8980,note_on,1,0,0,,4,,,76,127
8980,note_on,0,0,0,,10,,,57,127
9061,note_off,81,0,0,,4,,,76,127
9062,note_on,1,0,0,,10,,,81,127
9143,note_off,81,0,0,,10,,,81,127
9144,note_on,1,0,0,,7,,,79,127
9225,note_off,81,0,0,,7,,,79,127
9226,note_on,1,0,0,,6,,,78,127
9307,note_off,81,0,0,,6,,,78,127
9308,note_on,1,0,0,,4,,,76,127
9389,note_off,81,0,0,,4,,,76,127
9390,note_on,1,0,0,,2,,,74,127
9471,note_off,81,0,0,,2,,,74,127
9472,note_on,1,0,0,,1,,,73,127
9553,note_off,81,0,0,,1,,,73,127
9554,note_on,1,0,0,,12,,,71,127
9635,note_off,81,0,0,,12,,,71,127
9636,note_on,1,0,0,,12,,,71,127
9691,note_on,55,0,0,,10,,,69,127
9698,note_off,7,0,0,,12,,,71,127
9746,note_on,48,0,0,,12,,,71,127
9753,note_off,7,0,0,,10,,,69,127
9801,note_on,48,0,0,,10,,,69,127
9808,note_off,7,0,0,,12,,,71,127
9856,note_on,48,0,0,,12,,,71,127
9863,note_off,7,0,0,,10,,,69,127
9911,note_on,48,0,0,,10,,,69,127
9918,note_off,7,0,0,,12,,,71,127
9965,note_off,47,0,0,,10,,,57,127
9966,note_on,1,0,0,,12,,,71,127
9966,note_on,0,0,0,,6,,,54,127
9973,note_off,7,0,0,,10,,,69,127
10021,note_on,48,0,0,,10,,,69,127
10028,note_off,7,0,0,,12,,,71,127
10076,note_on,48,0,0,,12,,,71,127
10083,note_off,7,0,0,,10,,,69,127
10131,note_on,48,0,0,,10,,,69,127
10131,note_on,0,0,0,,2,,,62,127
10138,note_off,7,0,0,,12,,,71,127
10186,note_on,48,0,0,,7,,,67,127
10193,note_off,7,0,0,,10,,,69,127
10198,note_off,5,0,0,,6,,,54,127
10241,note_on,43,0,0,,10,,,69,127
10248,note_off,7,0,0,,7,,,67,127
10296,note_on,48,0,0,,1,,,73,127
10296,note_on,0,0,0,,7,,,55,127
10303,note_off,7,0,0,,10,,,69,127
10351,note_on,48,0,0,,12,,,71,127
10358,note_off,7,0,0,,1,,,73,127
10363,note_off,5,0,0,,2,,,62,127
10406,note_on,43,0,0,,1,,,73,127
10413,note_off,7,0,0,,12,,,71,127
10461,note_on,48,0,0,,12,,,71,127
10461,note_on,0,0,0,,4,,,64,127
10468,note_off,7,0,0,,1,,,73,127
10516,note_on,48,0,0,,10,,,69,127
10523,note_off,7,0,0,,12,,,71,127
10528,note_off,5,0,0,,7,,,55,127
10571,note_on,43,0,0,,12,,,71,127
10578,note_off,7,0,0,,10,,,69,127
10626,note_on,48,0,0,,2,,,74,127
10626,note_on,0,0,0,,10,,,57,127
10633,note_off,7,0,0,,12,,,71,127
10681,note_on,48,0,0,,1,,,73,127
10688,note_off,7,0,0,,2,,,74,127
10693,note_off,5,0,0,,4,,,64,127
10736,note_on,43,0,0,,2,,,74,127
10743,note_off,7,0,0,,1,,,73,127
10791,note_on,48,0,0,,1,,,73,127
10791,note_on,0,0,0,,6,,,66,127
10798,note_off,7,0,0,,2,,,74,127
10846,note_on,48,0,0,,12,,,71,127
10853,note_off,7,0,0,,1,,,73,127
10858,note_off,5,0,0,,10,,,57,127
10901,note_on,43,0,0,,1,,,73,127
10908,note_off,7,0,0,,12,,,71,127
10956,note_on,48,0,0,,4,,,76,127
10956,note_on,0,0,0,,12,,,59,127
10963,note_off,7,0,0,,1,,,73,127
11011,note_on,48,0,0,,2,,,74,127
11018,note_off,7,0,0,,4,,,76,127
11023,note_off,5,0,0,,6,,,66,127
11066,note_on,43,0,0,,4,,,76,127
11073,note_off,7,0,0,,2,,,74,127
11121,note_on,48,0,0,,2,,,74,127
11121,note_on,0,0,0,,7,,,67,127
11128,note_off,7,0,0,,4,,,76,127
11176,note_on,48,0,0,,1,,,73,127
11183,note_off,7,0,0,,2,,,74,127
11188,note_off,5,0,0,,12,,,59,127
11231,note_on,43,0,0,,2,,,74,127
11238,note_off,7,0,0,,1,,,73,127
11286,note_on,48,0,0,,6,,,78,127
11286,note_on,0,0,0,,1,,,61,127
11293,note_off,7,0,0,,2,,,74,127
11341,note_on,48,0,0,,4,,,76,127
11348,note_off,7,0,0,,6,,,78,127
11353,note_off,5,0,0,,7,,,67,127
11396,note_on,43,0,0,,6,,,78,127
11403,note_off,7,0,0,,4,,,76,127
11451,note_on,48,0,0,,4,,,76,127
11451,note_on,0,0,0,,10,,,69,127
11458,note_off,7,0,0,,6,,,78,127
11506,note_on,48,0,0,,2,,,74,127
11513,note_off,7,0,0,,4,,,76,127
11518,note_off,5,0,0,,1,,,61,127
11561,note_on,43,0,0,,4,,,76,127
11568,note_off,7,0,0,,2,,,74,127
11616,note_on,48,0,0,,7,,,79,127
11616,note_on,0,0,0,,2,,,62,127
11623,note_off,7,0,0,,4,,,76,127
11671,note_on,48,0,0,,6,,,78,127
11678,note_off,7,0,0,,7,,,79,127
11683,note_off,5,0,0,,10,,,69,127
11726,note_on,43,0,0,,7,,,79,127
11733,note_off,7,0,0,,6,,,78,127
11781,note_on,48,0,0,,6,,,78,127
11781,note_on,0,0,0,,12,,,71,127
11788,note_off,7,0,0,,7,,,79,127
11836,note_on,48,0,0,,4,,,76,127
11843,note_off,7,0,0,,6,,,78,127
11848,note_off,5,0,0,,2,,,62,127
11891,note_on,43,0,0,,6,,,78,127
11898,note_off,7,0,0,,4,,,76,127
11946,note_on,48,0,0,,10,,,81,127
11946,note_on,0,0,0,,4,,,64,127
11953,note_off,7,0,0,,6,,,78,127
12001,note_on,48,0,0,,7,,,79,127
12008,note_off,7,0,0,,10,,,81,127
12013,note_off,5,0,0,,12,,,71,127
12056,note_on,43,0,0,,10,,,81,127
12063,note_off,7,0,0,,7,,,79,127
12111,note_on,48,0,0,,7,,,79,127
12111,note_on,0,0,0,,1,,,73,127
12118,note_off,7,0,0,,10,,,81,127
12166,note_on,48,0,0,,6,,,78,127
12173,note_off,7,0,0,,7,,,79,127
12178,note_off,5,0,0,,4,,,64,127
12221,note_on,43,0,0,,7,,,79,127
12228,note_off,7,0,0,,6,,,78,127
12276,note_on,48,0,0,,12,,,83,127
12276,note_on,0,0,0,,6,,,66,127
12283,note_off,7,0,0,,7,,,79,127
12331,note_on,48,0,0,,10,,,81,127
12338,note_off,7,0,0,,12,,,83,127
12343,note_off,5,0,0,,1,,,73,127
12386,note_on,43,0,0,,12,,,83,127
12393,note_off,7,0,0,,10,,,81,127
12441,note_on,48,0,0,,10,,,81,127
12441,note_on,0,0,0,,2,,,74,127
12448,note_off,7,0,0,,12,,,83,127
12496,note_on,48,0,0,,7,,,79,127
12503,note_off,7,0,0,,10,,,81,127
12508,note_off,5,0,0,,6,,,66,127
12551,note_on,43,0,0,,10,,,81,127
12558,note_off,7,0,0,,7,,,79,127
12606,note_on,48,0,0,,12,,,83,127
12606,note_on,0,0,0,,7,,,67,127
12613,note_off,7,0,0,,10,,,81,127
12673,note_off,60,0,0,,2,,,74,127
12769,note_off,96,0,0,,7,,,67,127
12770,note_off,1,0,0,,12,,,83,127
12771,note_on,1,0,0,,1,,,85,127
12771,note_on,0,0,0,,10,,,69,127
12934,note_off,163,0,0,,10,,,69,127
12935,note_off,1,0,0,,1,,,85,127
12936,note_on,1,0,0,,2,,,86,127
12936,note_on,0,0,0,,12,,,71,127
13017,note_off,81,0,0,,2,,,86,127
13018,note_on,1,0,0,,1,,,85,127
13099,note_off,81,0,0,,1,,,85,127
13100,note_on,1,0,0,,12,,,83,127
13181,note_off,81,0,0,,12,,,83,127
13182,note_on,1,0,0,,10,,,81,127
13263,note_off,81,0,0,,10,,,81,127
13263,note_off,0,0,0,,12,,,71,127
13264,note_on,1,0,0,,7,,,79,127
13264,note_on,0,0,0,,7,,,67,127
13345,note_off,81,0,0,,7,,,79,127
13346,note_on,1,0,0,,6,,,78,127
13427,note_off,81,0,0,,6,,,78,127
13428,note_on,1,0,0,,4,,,76,127
13509,note_off,81,0,0,,4,,,76,127
13510,note_on,1,0,0,,2,,,74,127
13591,note_off,81,0,0,,2,,,74,127
13591,note_off,0,0,0,,7,,,67,127
13592,note_on,1,0,0,,6,,,78,127
13592,note_on,0,0,0,,10,,,69,127
13647,note_on,55,0,0,,4,,,76,127
13654,note_off,7,0,0,,6,,,78,127
13702,note_on,48,0,0,,6,,,78,127
13709,note_off,7,0,0,,4,,,76,127
13757,note_on,48,0,0,,4,,,76,127
13764,note_off,7,0,0,,6,,,78,127
13812,note_on,48,0,0,,6,,,78,127
13819,note_off,7,0,0,,4,,,76,127
13867,note_on,48,0,0,,4,,,76,127
13874,note_off,7,0,0,,6,,,78,127
13921,note_off,47,0,0,,10,,,69,127
13922,note_on,1,0,0,,6,,,78,127
13922,note_on,0,0,0,,10,,,57,127
13929,note_off,7,0,0,,4,,,76,127
13977,note_on,48,0,0,,4,,,76,127
13984,note_off,7,0,0,,6,,,78,127
14032,note_on,48,0,0,,6,,,78,127
14039,note_off,7,0,0,,4,,,76,127
14087,note_on,48,0,0,,4,,,76,127
14094,note_off,7,0,0,,6,,,78,127
14142,note_on,48,0,0,,2,,,74,127
14149,note_off,7,0,0,,4,,,76,127
14197,note_on,48,0,0,,4,,,76,127
14204,note_off,7,0,0,,2,,,74,127
14251,note_off,47,0,0,,10,,,57,127
14252,note_on,1,0,0,,2,,,74,127
14252,note_on,0,0,0,,2,,,50,127
14259,note_off,7,0,0,,4,,,76,127
14580,note_off,321,0,0,,2,,,50,127
14581,note_on,1,0,0,,11,,,82,127
14581,note_on,0,0,0,,7,,,79,127
14909,note_off,328,0,0,,7,,,79,127
14909,note_off,0,0,0,,11,,,82,127
14909,note_off,0,0,0,,2,,,74,127
14910,note_on,1,0,0,,5,,,77,127
14910,note_on,0,0,0,,10,,,81,127
15238,note_off,328,0,0,,10,,,81,127
15238,note_off,0,0,0,,5,,,77,127
15239,note_on,1,0,0,,11,,,70,127
15239,note_on,0,0,0,,4,,,76,127
15239,note_on,0,0,0,,7,,,79,127
15239,note_on,0,0,0,,1,,,73,127
15348,note_off,109,0,0,,11,,,70,127
15349,note_on,1,0,0,,10,,,69,127
15458,note_off,109,0,0,,10,,,69,127
15459,note_on,1,0,0,,7,,,67,127
15568,note_off,109,0,0,,7,,,67,127
15568,note_off,0,0,0,,1,,,73,127
15568,note_off,0,0,0,,7,,,79,127
15568,note_off,0,0,0,,4,,,76,127
15569,note_on,1,0,0,,5,,,65,127
15569,note_on,0,0,0,,10,,,81,127
15569,note_on,0,0,0,,2,,,74,127
15569,note_on,0,0,0,,5,,,77,127
15678,note_off,109,0,0,,5,,,65,127
15679,note_on,1,0,0,,4,,,64,127
15788,note_off,109,0,0,,4,,,64,127
15789,note_on,1,0,0,,2,,,62,127
15898,note_off,109,0,0,,2,,,62,127
15898,note_off,0,0,0,,5,,,77,127
15898,note_off,0,0,0,,2,,,74,127
15898,note_off,0,0,0,,10,,,81,127
15899,note_on,1,0,0,,4,,,64,127
15899,note_on,0,0,0,,11,,,82,127
15899,note_on,0,0,0,,7,,,79,127
15954,note_on,55,0,0,,2,,,62,127
15961,note_off,7,0,0,,4,,,64,127
16009,note_on,48,0,0,,4,,,64,127
16016,note_off,7,0,0,,2,,,62,127
16064,note_on,48,0,0,,2,,,62,127
16071,note_off,7,0,0,,4,,,64,127
16119,note_on,48,0,0,,4,,,64,127
16126,note_off,7,0,0,,2,,,62,127
16174,note_on,48,0,0,,2,,,62,127
16181,note_off,7,0,0,,4,,,64,127
16228,note_off,47,0,0,,7,,,79,127
16228,note_off,0,0,0,,11,,,82,127
16229,note_on,1,0,0,,10,,,81,127
16229,note_on,0,0,0,,5,,,77,127
16502,note_off,273,0,0,,2,,,62,127
16557,note_off,55,0,0,,5,,,77,127
16557,note_off,0,0,0,,10,,,81,127
16558,note_on,1,0,0,,11,,,70,127
16558,note_on,0,0,0,,4,,,76,127
16558,note_on,0,0,0,,7,,,79,127
16558,note_on,0,0,0,,1,,,73,127
16667,note_off,109,0,0,,11,,,70,127
16668,note_on,1,0,0,,10,,,69,127
16777,note_off,109,0,0,,10,,,69,127
16778,note_on,1,0,0,,7,,,67,127
16887,note_off,109,0,0,,7,,,67,127
16887,note_off,0,0,0,,1,,,73,127
16887,note_off,0,0,0,,7,,,79,127
16887,note_off,0,0,0,,4,,,76,127
16888,note_on,1,0,0,,5,,,65,127
16888,note_on,0,0,0,,5,,,77,127
16888,note_on,0,0,0,,10,,,81,127
16888,note_on,0,0,0,,2,,,74,127
16997,note_off,109,0,0,,5,,,65,127
16998,note_on,1,0,0,,4,,,64,127
17107,note_off,109,0,0,,4,,,64,127
17108,note_on,1,0,0,,2,,,62,127
17217,note_off,109,0,0,,2,,,62,127
17217,note_off,0,0,0,,2,,,74,127
17217,note_off,0,0,0,,10,,,81,127
17217,note_off,0,0,0,,5,,,77,127
17218,note_on,1,0,0,,4,,,64,127
17218,note_on,0,0,0,,10,,,81,127
17218,note_on,0,0,0,,0,,,84,127
17273,note_on,55,0,0,,2,,,62,127
17280,note_off,7,0,0,,4,,,64,127
17328,note_on,48,0,0,,4,,,64,127
17335,note_off,7,0,0,,2,,,62,127
17383,note_on,48,0,0,,2,,,62,127
17390,note_off,7,0,0,,4,,,64,127
17438,note_on,48,0,0,,4,,,64,127
17445,note_off,7,0,0,,2,,,62,127
17493,note_on,48,0,0,,2,,,62,127
17500,note_off,7,0,0,,4,,,64,127
17547,note_off,47,0,0,,0,,,84,127
17547,note_off,0,0,0,,10,,,81,127
17548,note_on,1,0,0,,7,,,79,127
17548,note_on,0,0,0,,11,,,82,127
17821,note_off,273,0,0,,2,,,62,127
17876,note_off,55,0,0,,11,,,82,127
17876,note_off,0,0,0,,7,,,79,127
17877,note_on,1,0,0,,0,,,72,127
17877,note_on,0,0,0,,6,,,78,127
17877,note_on,0,0,0,,10,,,81,127
17877,note_on,0,0,0,,3,,,75,127
17986,note_off,109,0,0,,0,,,72,127
17987,note_on,1,0,0,,11,,,70,127
18096,note_off,109,0,0,,11,,,70,127
18097,note_on,1,0,0,,10,,,69,127
18206,note_off,109,0,0,,10,,,69,127
18206,note_off,0,0,0,,3,,,75,127
18206,note_off,0,0,0,,10,,,81,127
18206,note_off,0,0,0,,6,,,78,127
18207,note_on,1,0,0,,11,,,70,127
18207,note_on,0,0,0,,11,,,82,127
18207,note_on,0,0,0,,7,,,79,127
18207,note_on,0,0,0,,2,,,74,127
18316,note_off,109,0,0,,11,,,70,127
18317,note_on,1,0,0,,10,,,69,127
18426,note_off,109,0,0,,10,,,69,127
18427,note_on,1,0,0,,7,,,67,127
18536,note_off,109,0,0,,7,,,67,127
18536,note_off,0,0,0,,2,,,74,127
18536,note_off,0,0,0,,7,,,79,127
18536,note_off,0,0,0,,11,,,82,127
18537,note_on,1,0,0,,10,,,69,127
18537,note_on,0,0,0,,10,,,81,127
18537,note_on,0,0,0,,0,,,84,127
18592,note_on,55,0,0,,7,,,67,127
18599,note_off,7,0,0,,10,,,69,127
18647,note_on,48,0,0,,10,,,69,127
18654,note_off,7,0,0,,7,,,67,127
18702,note_on,48,0,0,,7,,,67,127
18709,note_off,7,0,0,,10,,,69,127
18757,note_on,48,0,0,,10,,,69,127
18764,note_off,7,0,0,,7,,,67,127
18812,note_on,48,0,0,,7,,,67,127
18819,note_off,7,0,0,,10,,,69,127
18866,note_off,47,0,0,,0,,,84,127
18866,note_off,0,0,0,,10,,,81,127
18867,note_on,1,0,0,,11,,,82,127
18867,note_on,0,0,0,,7,,,79,127
19140,note_off,273,0,0,,7,,,67,127
19195,note_off,55,0,0,,7,,,79,127
19195,note_off,0,0,0,,11,,,82,127
19196,note_on,1,0,0,,0,,,72,127
19196,note_on,0,0,0,,6,,,78,127
19196,note_on,0,0,0,,10,,,81,127
19196,note_on,0,0,0,,3,,,75,127
19305,note_off,109,0,0,,0,,,72,127
19306,note_on,1,0,0,,11,,,70,127
19415,note_off,109,0,0,,11,,,70,127
19416,note_on,1,0,0,,10,,,69,127
19525,note_off,109,0,0,,10,,,69,127
19525,note_off,0,0,0,,3,,,75,127
19525,note_off,0,0,0,,10,,,81,127
19525,note_off,0,0,0,,6,,,78,127
19526,note_on,1,0,0,,11,,,70,127
19526,note_on,0,0,0,,7,,,79,127
19526,note_on,0,0,0,,2,,,74,127
19526,note_on,0,0,0,,11,,,82,127
19635,note_off,109,0,0,,11,,,70,127
19636,note_on,1,0,0,,10,,,69,127
19745,note_off,109,0,0,,10,,,69,127
19746,note_on,1,0,0,,7,,,67,127
19855,note_off,109,0,0,,7,,,67,127
19855,note_off,0,0,0,,11,,,82,127
19855,note_off,0,0,0,,2,,,74,127
19855,note_off,0,0,0,,7,,,79,127
19856,note_on,1,0,0,,10,,,69,127
19856,note_on,0,0,0,,12,,,83,127
19856,note_on,0,0,0,,2,,,86,127
19911,note_on,55,0,0,,7,,,67,127
19918,note_off,7,0,0,,10,,,69,127
19966,note_on,48,0,0,,10,,,69,127
19973,note_off,7,0,0,,7,,,67,127
20021,note_on,48,0,0,,7,,,67,127
20028,note_off,7,0,0,,10,,,69,127
20076,note_on,48,0,0,,10,,,69,127
20083,note_off,7,0,0,,7,,,67,127
20131,note_on,48,0,0,,7,,,67,127
20138,note_off,7,0,0,,10,,,69,127
20185,note_off,47,0,0,,2,,,86,127
20185,note_off,0,0,0,,12,,,83,127
20186,note_on,1,0,0,,0,,,84,127
20186,note_on,0,0,0,,10,,,81,127
20459,note_off,273,0,0,,7,,,67,127
20514,note_off,55,0,0,,10,,,81,127
20514,note_off,0,0,0,,0,,,84,127
20515,note_on,1,0,0,,2,,,74,127
20515,note_on,0,0,0,,12,,,83,127
20515,note_on,0,0,0,,8,,,80,127
20515,note_on,0,0,0,,5,,,77,127
20624,note_off,109,0,0,,2,,,74,127
20625,note_on,1,0,0,,0,,,72,127
20734,note_off,109,0,0,,0,,,72,127
20735,note_on,1,0,0,,12,,,71,127
20844,note_off,109,0,0,,12,,,71,127
20844,note_off,0,0,0,,5,,,77,127
20844,note_off,0,0,0,,8,,,80,127
20844,note_off,0,0,0,,12,,,83,127
20845,note_on,1,0,0,,0,,,72,127
20845,note_on,0,0,0,,4,,,76,127
20845,note_on,0,0,0,,10,,,81,127
20845,note_on,0,0,0,,0,,,84,127
20954,note_off,109,0,0,,0,,,72,127
20955,note_on,1,0,0,,12,,,71,127
21064,note_off,109,0,0,,12,,,71,127
21065,note_on,1,0,0,,10,,,69,127
21174,note_off,109,0,0,,10,,,69,127
21174,note_off,0,0,0,,0,,,84,127
21174,note_off,0,0,0,,10,,,81,127
21174,note_off,0,0,0,,4,,,76,127
21175,note_on,1,0,0,,12,,,71,127
21175,note_on,0,0,0,,2,,,86,127
21175,note_on,0,0,0,,12,,,83,127
21230,note_on,55,0,0,,10,,,69,127
21237,note_off,7,0,0,,12,,,71,127
21285,note_on,48,0,0,,12,,,71,127
21292,note_off,7,0,0,,10,,,69,127
21340,note_on,48,0,0,,10,,,69,127
21347,note_off,7,0,0,,12,,,71,127
21395,note_on,48,0,0,,12,,,71,127
21402,note_off,7,0,0,,10,,,69,127
21450,note_on,48,0,0,,10,,,69,127
21457,note_off,7,0,0,,12,,,71,127
21504,note_off,47,0,0,,12,,,83,127
21504,note_off,0,0,0,,2,,,86,127
21505,note_on,1,0,0,,0,,,84,127
21505,note_on,0,0,0,,10,,,81,127
21778,note_off,273,0,0,,10,,,69,127
21833,note_off,55,0,0,,10,,,81,127
21833,note_off,0,0,0,,0,,,84,127
21834,note_on,1,0,0,,2,,,74,127
21834,note_on,0,0,0,,8,,,80,127
21834,note_on,0,0,0,,12,,,83,127
21834,note_on,0,0,0,,5,,,77,127
21943,note_off,109,0,0,,2,,,74,127
21944,note_on,1,0,0,,0,,,72,127
22053,note_off,109,0,0,,0,,,72,127
22054,note_on,1,0,0,,12,,,71,127
22163,note_off,109,0,0,,12,,,71,127
22163,note_off,0,0,0,,5,,,77,127
22163,note_off,0,0,0,,12,,,83,127
22163,note_off,0,0,0,,8,,,80,127
22164,note_on,1,0,0,,0,,,72,127
22164,note_on,0,0,0,,4,,,76,127
22164,note_on,0,0,0,,10,,,81,127
22164,note_on,0,0,0,,0,,,84,127
22273,note_off,109,0,0,,0,,,72,127
22274,note_on,1,0,0,,12,,,71,127
22383,note_off,109,0,0,,12,,,71,127
22384,note_on,1,0,0,,10,,,69,127
22493,note_off,109,0,0,,10,,,69,127
22493,note_off,0,0,0,,0,,,84,127
22493,note_off,0,0,0,,10,,,81,127
22493,note_off,0,0,0,,4,,,76,127
22494,note_on,1,0,0,,12,,,71,127
22494,note_on,0,0,0,,1,,,85,127
22549,note_on,55,0,0,,10,,,69,127
22556,note_off,7,0,0,,12,,,71,127
22604,note_on,48,0,0,,12,,,71,127
22611,note_off,7,0,0,,10,,,69,127
22659,note_on,48,0,0,,10,,,69,127
22666,note_off,7,0,0,,12,,,71,127
22714,note_on,48,0,0,,12,,,71,127
22721,note_off,7,0,0,,10,,,69,127
22769,note_on,48,0,0,,10,,,69,127
22776,note_off,7,0,0,,12,,,71,127
22823,note_off,47,0,0,,1,,,85,127
22824,note_on,1,0,0,,6,,,78,127
22824,note_on,0,0,0,,2,,,38,127
22831,note_off,7,0,0,,10,,,69,127
22933,note_off,102,0,0,,6,,,78,127
22934,note_on,1,0,0,,2,,,74,127
23043,note_off,109,0,0,,2,,,74,127
23044,note_on,1,0,0,,1,,,73,127
23153,note_off,109,0,0,,1,,,73,127
23153,note_off,0,0,0,,2,,,38,127
23154,note_on,1,0,0,,12,,,71,127
23154,note_on,0,0,0,,12,,,83,127
23263,note_off,109,0,0,,12,,,71,127
23264,note_on,1,0,0,,1,,,73,127
23373,note_off,109,0,0,,1,,,73,127
23374,note_on,1,0,0,,2,,,74,127
23483,note_off,109,0,0,,2,,,74,127
23483,note_off,0,0,0,,12,,,83,127
23484,note_on,1,0,0,,4,,,76,127
23484,note_on,0,0,0,,1,,,37,127
23593,note_off,109,0,0,,4,,,76,127
23594,note_on,1,0,0,,1,,,73,127
23703,note_off,109,0,0,,1,,,73,127
23704,note_on,1,0,0,,12,,,71,127
23813,note_off,109,0,0,,12,,,71,127
23813,note_off,0,0,0,,1,,,37,127
23814,note_on,1,0,0,,10,,,69,127
23814,note_on,0,0,0,,10,,,81,127
23923,note_off,109,0,0,,10,,,69,127
23924,note_on,1,0,0,,12,,,71,127
24033,note_off,109,0,0,,12,,,71,127
24034,note_on,1,0,0,,1,,,73,127
24143,note_off,109,0,0,,1,,,73,127
24143,note_off,0,0,0,,10,,,81,127
24144,note_on,1,0,0,,12,,,71,127
24144,note_on,0,0,0,,2,,,38,127
24253,note_off,109,0,0,,12,,,71,127
24254,note_on,1,0,0,,2,,,74,127
24363,note_off,109,0,0,,2,,,74,127
24364,note_on,1,0,0,,1,,,73,127
24473,note_off,109,0,0,,1,,,73,127
24473,note_off,0,0,0,,2,,,38,127
24474,note_on,1,0,0,,12,,,71,127
24474,note_on,0,0,0,,4,,,40,127
24583,note_off,109,0,0,,12,,,71,127
24584,note_on,1,0,0,,10,,,69,127
24693,note_off,109,0,0,,10,,,69,127
24694,note_on,1,0,0,,8,,,68,127
24803,note_off,109,0,0,,8,,,68,127
24803,note_off,0,0,0,,4,,,40,127
24804,note_on,1,0,0,,10,,,69,127
24804,note_on,0,0,0,,10,,,33,127
25132,note_off,328,0,0,,10,,,33,127
25132,note_off,0,0,0,,10,,,69,127
25133,note_on,1,0,0,,1,,,61,127
25133,note_on,0,0,0,,10,,,81,127
25242,note_off,109,0,0,,1,,,61,127
25243,note_on,1,0,0,,4,,,64,127
25352,note_off,109,0,0,,4,,,64,127
25353,note_on,1,0,0,,10,,,69,127
25462,note_off,109,0,0,,10,,,69,127
25462,note_off,0,0,0,,10,,,81,127
25463,note_on,1,0,0,,2,,,62,127
25463,note_on,0,0,0,,2,,,38,127
25572,note_off,109,0,0,,2,,,62,127
25573,note_on,1,0,0,,6,,,66,127
25682,note_off,109,0,0,,6,,,66,127
25683,note_on,1,0,0,,12,,,71,127
25792,note_off,109,0,0,,12,,,71,127
25792,note_off,0,0,0,,2,,,38,127
25793,note_on,1,0,0,,2,,,62,127
25793,note_on,0,0,0,,12,,,83,127
25902,note_off,109,0,0,,2,,,62,127
25903,note_on,1,0,0,,6,,,66,127
26012,note_off,109,0,0,,6,,,66,127
26013,note_on,1,0,0,,12,,,71,127
26122,note_off,109,0,0,,12,,,71,127
26122,note_off,0,0,0,,12,,,83,127
26123,note_on,1,0,0,,1,,,61,127
26123,note_on,0,0,0,,1,,,37,127
26232,note_off,109,0,0,,1,,,61,127
26233,note_on,1,0,0,,4,,,64,127
26342,note_off,109,0,0,,4,,,64,127
26343,note_on,1,0,0,,10,,,69,127
26452,note_off,109,0,0,,10,,,69,127
26452,note_off,0,0,0,,1,,,37,127
26453,note_on,1,0,0,,1,,,61,127
26453,note_on,0,0,0,,10,,,81,127
26562,note_off,109,0,0,,1,,,61,127
26563,note_on,1,0,0,,4,,,64,127
26672,note_off,109,0,0,,4,,,64,127
26673,note_on,1,0,0,,10,,,69,127
26782,note_off,109,0,0,,10,,,69,127
26782,note_off,0,0,0,,10,,,81,127
26783,note_on,1,0,0,,2,,,62,127
26783,note_on,0,0,0,,2,,,38,127
26892,note_off,109,0,0,,2,,,62,127
26893,note_on,1,0,0,,6,,,66,127
27002,note_off,109,0,0,,6,,,66,127
27003,note_on,1,0,0,,10,,,69,127
27112,note_off,109,0,0,,10,,,69,127
27112,note_off,0,0,0,,2,,,38,127
27113,note_on,1,0,0,,4,,,64,127
27113,note_on,0,0,0,,4,,,40,127
27222,note_off,109,0,0,,4,,,64,127
27223,note_on,1,0,0,,8,,,68,127
27332,note_off,109,0,0,,8,,,68,127
27333,note_on,1,0,0,,12,,,71,127
27442,note_off,109,0,0,,12,,,71,127
27442,note_off,0,0,0,,4,,,40,127
27443,note_on,1,0,0,,10,,,57,127
27443,note_on,0,0,0,,10,,,45,127
27771,note_off,328,0,0,,10,,,57,127
27772,note_on,1,0,0,,0,,,72,127
27827,note_on,55,0,0,,2,,,74,127
27834,note_off,7,0,0,,0,,,72,127
27882,note_on,48,0,0,,4,,,76,127
27889,note_off,7,0,0,,2,,,74,127
28101,note_off,212,0,0,,4,,,76,127
28101,note_off,0,0,0,,10,,,45,127
28102,note_on,1,0,0,,4,,,76,127
28266,note_off,164,0,0,,4,,,76,127
28267,note_on,1,0,0,,2,,,74,127
28431,note_off,164,0,0,,2,,,74,127
28432,note_on,1,0,0,,0,,,72,127
28432,note_on,0,0,0,,10,,,69,127
28432,note_on,0,0,0,,5,,,65,127
28541,note_off,109,0,0,,0,,,72,127
28542,note_on,1,0,0,,12,,,71,127
28647,note_off,105,0,0,,10,,,69,127
28651,note_off,4,0,0,,12,,,71,127
28652,note_on,1,0,0,,10,,,69,127
28761,note_off,109,0,0,,10,,,69,127
28761,note_off,0,0,0,,5,,,65,127
28762,note_on,1,0,0,,12,,,71,127
28762,note_on,0,0,0,,8,,,68,127
28762,note_on,0,0,0,,4,,,64,127
29090,note_off,328,0,0,,4,,,64,127
29090,note_off,0,0,0,,8,,,68,127
29090,note_off,0,0,0,,12,,,71,127
29091,note_on,1,0,0,,0,,,72,127
29091,note_on,0,0,0,,5,,,65,127
29091,note_on,0,0,0,,10,,,69,127
29200,note_off,109,0,0,,0,,,72,127
29201,note_on,1,0,0,,2,,,74,127
29310,note_off,109,0,0,,2,,,74,127
29311,note_on,1,0,0,,4,,,76,127
29420,note_off,109,0,0,,4,,,76,127
29420,note_off,0,0,0,,10,,,69,127
29420,note_off,0,0,0,,5,,,65,127
29421,note_on,1,0,0,,12,,,71,127
29421,note_on,0,0,0,,4,,,64,127
29421,note_on,0,0,0,,8,,,68,127
29749,note_off,328,0,0,,8,,,68,127
29749,note_off,0,0,0,,4,,,64,127
29749,note_off,0,0,0,,12,,,71,127
29750,note_on,1,0,0,,0,,,72,127
29750,note_on,0,0,0,,10,,,69,127
29750,note_on,0,0,0,,5,,,65,127
29859,note_off,109,0,0,,0,,,72,127
29860,note_on,1,0,0,,2,,,74,127
29969,note_off,109,0,0,,2,,,74,127
29970,note_on,1,0,0,,4,,,76,127
30079,note_off,109,0,0,,4,,,76,127
30079,note_off,0,0,0,,5,,,65,127
30079,note_off,0,0,0,,10,,,69,127
30080,note_on,1,0,0,,12,,,71,127
30080,note_on,0,0,0,,4,,,64,127
30080,note_on,0,0,0,,8,,,68,127
30408,note_off,328,0,0,,8,,,68,127
30408,note_off,0,0,0,,4,,,64,127
30408,note_off,0,0,0,,12,,,71,127
30409,note_on,1,0,0,,6,,,66,127
30409,note_on,0,0,0,,1,,,49,127
30464,note_on,55,0,0,,4,,,64,127
30471,note_off,7,0,0,,6,,,66,127
30519,note_on,48,0,0,,6,,,66,127
30526,note_off,7,0,0,,4,,,64,127
30574,note_on,48,0,0,,4,,,64,127
30574,note_on,0,0,0,,10,,,57,127
30581,note_off,7,0,0,,6,,,66,127
30629,note_on,48,0,0,,2,,,62,127
30636,note_off,7,0,0,,4,,,64,127
30641,note_off,5,0,0,,1,,,49,127
30684,note_on,43,0,0,,4,,,64,127
30691,note_off,7,0,0,,2,,,62,127
30739,note_on,48,0,0,,8,,,68,127
30739,note_on,0,0,0,,2,,,50,127
30746,note_off,7,0,0,,4,,,64,127
30794,note_on,48,0,0,,6,,,66,127
30801,note_off,7,0,0,,8,,,68,127
30806,note_off,5,0,0,,10,,,57,127
30849,note_on,43,0,0,,8,,,68,127
30856,note_off,7,0,0,,6,,,66,127
30904,note_on,48,0,0,,6,,,66,127
30904,note_on,0,0,0,,12,,,59,127
30911,note_off,7,0,0,,8,,,68,127
30959,note_on,48,0,0,,4,,,64,127
30966,note_off,7,0,0,,6,,,66,127
30971,note_off,5,0,0,,2,,,50,127
31014,note_on,43,0,0,,6,,,66,127
31021,note_off,7,0,0,,4,,,64,127
31069,note_on,48,0,0,,10,,,69,127
31069,note_on,0,0,0,,4,,,52,127
31076,note_off,7,0,0,,6,,,66,127
31124,note_on,48,0,0,,8,,,68,127
31131,note_off,7,0,0,,10,,,69,127
31136,note_off,5,0,0,,12,,,59,127
31179,note_on,43,0,0,,10,,,69,127
31186,note_off,7,0,0,,8,,,68,127
31234,note_on,48,0,0,,8,,,68,127
31234,note_on,0,0,0,,1,,,61,127
31241,note_off,7,0,0,,10,,,69,127
31289,note_on,48,0,0,,6,,,66,127
31296,note_off,7,0,0,,8,,,68,127
31301,note_off,5,0,0,,4,,,52,127
31344,note_on,43,0,0,,8,,,68,127
31351,note_off,7,0,0,,6,,,66,127
31399,note_on,48,0,0,,12,,,71,127
31399,note_on,0,0,0,,6,,,54,127
31406,note_off,7,0,0,,8,,,68,127
31454,note_on,48,0,0,,10,,,69,127
31461,note_off,7,0,0,,12,,,71,127
31466,note_off,5,0,0,,1,,,61,127
31509,note_on,43,0,0,,12,,,71,127
31516,note_off,7,0,0,,10,,,69,127
31564,note_on,48,0,0,,10,,,69,127
31564,note_on,0,0,0,,2,,,62,127
31571,note_off,7,0,0,,12,,,71,127
31619,note_on,48,0,0,,8,,,68,127
31626,note_off,7,0,0,,10,,,69,127
31631,note_off,5,0,0,,6,,,54,127
31674,note_on,43,0,0,,10,,,69,127
31681,note_off,7,0,0,,8,,,68,127
31729,note_on,48,0,0,,1,,,73,127
31729,note_on,0,0,0,,8,,,56,127
31736,note_off,7,0,0,,10,,,69,127
31784,note_on,48,0,0,,12,,,71,127
31791,note_off,7,0,0,,1,,,73,127
31796,note_off,5,0,0,,2,,,62,127
31839,note_on,43,0,0,,1,,,73,127
31846,note_off,7,0,0,,12,,,71,127
31894,note_on,48,0,0,,12,,,71,127
31894,note_on,0,0,0,,4,,,64,127
31901,note_off,7,0,0,,1,,,73,127
31949,note_on,48,0,0,,10,,,69,127
31956,note_off,7,0,0,,12,,,71,127
31961,note_off,5,0,0,,8,,,56,127
32004,note_on,43,0,0,,12,,,71,127
32011,note_off,7,0,0,,10,,,69,127
32059,note_on,48,0,0,,2,,,74,127
32059,note_on,0,0,0,,10,,,57,127
32066,note_off,7,0,0,,12,,,71,127
32114,note_on,48,0,0,,1,,,73,127
32121,note_off,7,0,0,,2,,,74,127
32126,note_off,5,0,0,,4,,,64,127
32169,note_on,43,0,0,,2,,,74,127
32176,note_off,7,0,0,,1,,,73,127
32224,note_on,48,0,0,,1,,,73,127
32224,note_on,0,0,0,,6,,,66,127
32231,note_off,7,0,0,,2,,,74,127
32279,note_on,48,0,0,,12,,,71,127
32286,note_off,7,0,0,,1,,,73,127
32291,note_off,5,0,0,,10,,,57,127
32334,note_on,43,0,0,,1,,,73,127
32341,note_off,7,0,0,,12,,,71,127
32389,note_on,48,0,0,,4,,,76,127
32389,note_on,0,0,0,,12,,,59,127
32396,note_off,7,0,0,,1,,,73,127
32444,note_on,48,0,0,,2,,,74,127
32451,note_off,7,0,0,,4,,,76,127
32456,note_off,5,0,0,,6,,,66,127
32499,note_on,43,0,0,,4,,,76,127
32506,note_off,7,0,0,,2,,,74,127
32554,note_on,48,0,0,,2,,,74,127
32554,note_on,0,0,0,,8,,,68,127
32561,note_off,7,0,0,,4,,,76,127
32609,note_on,48,0,0,,1,,,73,127
32616,note_off,7,0,0,,2,,,74,127
32621,note_off,5,0,0,,12,,,59,127
32664,note_on,43,0,0,,2,,,74,127
32671,note_off,7,0,0,,1,,,73,127
32719,note_on,48,0,0,,6,,,78,127
32719,note_on,0,0,0,,1,,,61,127
32726,note_off,7,0,0,,2,,,74,127
32774,note_on,48,0,0,,4,,,76,127
32781,note_off,7,0,0,,6,,,78,127
32786,note_off,5,0,0,,8,,,68,127
32829,note_on,43,0,0,,6,,,78,127
32836,note_off,7,0,0,,4,,,76,127
32884,note_on,48,0,0,,4,,,76,127
32884,note_on,0,0,0,,10,,,69,127
32891,note_off,7,0,0,,6,,,78,127
32939,note_on,48,0,0,,2,,,74,127
32946,note_off,7,0,0,,4,,,76,127
32951,note_off,5,0,0,,1,,,61,127
32994,note_on,43,0,0,,4,,,76,127
33001,note_off,7,0,0,,2,,,74,127
33049,note_on,48,0,0,,6,,,78,127
33049,note_on,0,0,0,,2,,,62,127
33056,note_off,7,0,0,,4,,,76,127
33116,note_off,60,0,0,,10,,,69,127
33212,note_off,96,0,0,,2,,,62,127
33213,note_off,1,0,0,,6,,,78,127
33214,note_on,1,0,0,,8,,,80,127
33214,note_on,0,0,0,,4,,,64,127
33377,note_off,163,0,0,,4,,,64,127
33378,note_off,1,0,0,,8,,,80,127
33379,note_on,1,0,0,,10,,,81,127
33379,note_on,0,0,0,,6,,,66,127
33460,note_off,81,0,0,,10,,,81,127
33461,note_on,1,0,0,,8,,,80,127
33542,note_off,81,0,0,,8,,,80,127
33543,note_on,1,0,0,,6,,,78,127
33624,note_off,81,0,0,,6,,,78,127
33625,note_on,1,0,0,,4,,,76,127
33706,note_off,81,0,0,,4,,,76,127
33706,note_off,0,0,0,,6,,,66,127
33707,note_on,1,0,0,,2,,,74,127
33707,note_on,0,0,0,,2,,,62,127
33788,note_off,81,0,0,,2,,,74,127
33789,note_on,1,0,0,,1,,,73,127
33870,note_off,81,0,0,,1,,,73,127
33871,note_on,1,0,0,,12,,,71,127
33952,note_off,81,0,0,,12,,,71,127
33953,note_on,1,0,0,,10,,,69,127
34034,note_off,81,0,0,,10,,,69,127
34034,note_off,0,0,0,,2,,,62,127
34035,note_on,1,0,0,,12,,,71,127
34035,note_on,0,0,0,,4,,,64,127
34116,note_off,81,0,0,,12,,,71,127
34117,note_on,1,0,0,,4,,,76,127
34198,note_off,81,0,0,,4,,,76,127
34199,note_on,1,0,0,,2,,,74,127
34280,note_off,81,0,0,,2,,,74,127
34281,note_on,1,0,0,,1,,,73,127
34362,note_off,81,0,0,,1,,,73,127
34362,note_off,0,0,0,,4,,,64,127
34363,note_on,1,0,0,,12,,,71,127
34363,note_on,0,0,0,,4,,,52,127
34444,note_off,81,0,0,,12,,,71,127
34445,note_on,1,0,0,,10,,,69,127
34526,note_off,81,0,0,,10,,,69,127
34527,note_on,1,0,0,,8,,,68,127
34608,note_off,81,0,0,,8,,,68,127
34609,note_on,1,0,0,,6,,,66,127
34690,note_off,81,0,0,,6,,,66,127
34691,note_on,1,0,0,,6,,,66,127
34746,note_on,55,0,0,,4,,,64,127
34753,note_off,7,0,0,,6,,,66,127
34801,note_on,48,0,0,,6,,,66,127
34808,note_off,7,0,0,,4,,,64,127
34856,note_on,48,0,0,,4,,,64,127
34863,note_off,7,0,0,,6,,,66,127
34911,note_on,48,0,0,,6,,,66,127
34918,note_off,7,0,0,,4,,,64,127
34966,note_on,48,0,0,,4,,,64,127
34973,note_off,7,0,0,,6,,,66,127
35020,note_off,47,0,0,,4,,,52,127
35021,note_on,1,0,0,,6,,,66,127
35021,note_on,0,0,0,,1,,,49,127
35028,note_off,7,0,0,,4,,,64,127
35076,note_on,48,0,0,,4,,,64,127
35083,note_off,7,0,0,,6,,,66,127
35131,note_on,48,0,0,,6,,,66,127
35138,note_off,7,0,0,,4,,,64,127
35186,note_on,48,0,0,,4,,,64,127
35186,note_on,0,0,0,,10,,,57,127
35193,note_off,7,0,0,,6,,,66,127
35241,note_on,48,0,0,,3,,,63,127
35248,note_off,7,0,0,,4,,,64,127
35253,note_off,5,0,0,,1,,,49,127
35296,note_on,43,0,0,,4,,,64,127
35303,note_off,7,0,0,,3,,,63,127
35351,note_on,48,0,0,,8,,,68,127
35351,note_on,0,0,0,,2,,,50,127
35358,note_off,7,0,0,,4,,,64,127
35406,note_on,48,0,0,,6,,,66,127
35413,note_off,7,0,0,,8,,,68,127
35418,note_off,5,0,0,,10,,,57,127
35461,note_on,43,0,0,,8,,,68,127
35468,note_off,7,0,0,,6,,,66,127
35516,note_on,48,0,0,,6,,,66,127
35516,note_on,0,0,0,,12,,,59,127
35523,note_off,7,0,0,,8,,,68,127
35571,note_on,48,0,0,,4,,,64,127
35578,note_off,7,0,0,,6,,,66,127
35583,note_off,5,0,0,,2,,,50,127
35626,note_on,43,0,0,,6,,,66,127
35633,note_off,7,0,0,,4,,,64,127
35681,note_on,48,0,0,,10,,,69,127
35681,note_on,0,0,0,,4,,,52,127
35688,note_off,7,0,0,,6,,,66,127
35736,note_on,48,0,0,,8,,,68,127
35743,note_off,7,0,0,,10,,,69,127
35748,note_off,5,0,0,,12,,,59,127
35791,note_on,43,0,0,,10,,,69,127
35798,note_off,7,0,0,,8,,,68,127
35846,note_on,48,0,0,,8,,,68,127
35846,note_on,0,0,0,,1,,,61,127
35853,note_off,7,0,0,,10,,,69,127
35901,note_on,48,0,0,,6,,,66,127
35908,note_off,7,0,0,,8,,,68,127
35913,note_off,5,0,0,,4,,,52,127
35956,note_on,43,0,0,,8,,,68,127
35963,note_off,7,0,0,,6,,,66,127
36011,note_on,48,0,0,,12,,,71,127
36011,note_on,0,0,0,,6,,,54,127
36018,note_off,7,0,0,,8,,,68,127
36066,note_on,48,0,0,,10,,,69,127
36073,note_off,7,0,0,,12,,,71,127
36078,note_off,5,0,0,,1,,,61,127
36121,note_on,43,0,0,,12,,,71,127
36128,note_off,7,0,0,,10,,,69,127
36176,note_on,48,0,0,,10,,,69,127
36176,note_on,0,0,0,,2,,,62,127
36183,note_off,7,0,0,,12,,,71,127
36231,note_on,48,0,0,,8,,,68,127
36238,note_off,7,0,0,,10,,,69,127
36243,note_off,5,0,0,,6,,,54,127
36286,note_on,43,0,0,,10,,,69,127
36293,note_off,7,0,0,,8,,,68,127
36341,note_on,48,0,0,,1,,,73,127
36341,note_on,0,0,0,,8,,,56,127
36348,note_off,7,0,0,,10,,,69,127
36396,note_on,48,0,0,,12,,,71,127
36403,note_off,7,0,0,,1,,,73,127
36408,note_off,5,0,0,,2,,,62,127
36451,note_on,43,0,0,,1,,,73,127
36458,note_off,7,0,0,,12,,,71,127
36506,note_on,48,0,0,,12,,,71,127
36506,note_on,0,0,0,,4,,,64,127
36513,note_off,7,0,0,,1,,,73,127
36561,note_on,48,0,0,,10,,,69,127
36568,note_off,7,0,0,,12,,,71,127
36573,note_off,5,0,0,,8,,,56,127
36616,note_on,43,0,0,,12,,,71,127
36623,note_off,7,0,0,,10,,,69,127
36671,note_on,48,0,0,,2,,,74,127
36671,note_on,0,0,0,,10,,,57,127
36678,note_off,7,0,0,,12,,,71,127
36726,note_on,48,0,0,,1,,,73,127
36733,note_off,7,0,0,,2,,,74,127
36738,note_off,5,0,0,,4,,,64,127
36781,note_on,43,0,0,,2,,,74,127
36788,note_off,7,0,0,,1,,,73,127
36836,note_on,48,0,0,,1,,,73,127
36836,note_on,0,0,0,,6,,,66,127
36843,note_off,7,0,0,,2,,,74,127
36891,note_on,48,0,0,,12,,,71,127
36898,note_off,7,0,0,,1,,,73,127
36903,note_off,5,0,0,,10,,,57,127
36946,note_on,43,0,0,,1,,,73,127
36953,note_off,7,0,0,,12,,,71,127
37001,note_on,48,0,0,,4,,,76,127
37001,note_on,0,0,0,,12,,,59,127
37008,note_off,7,0,0,,1,,,73,127
37056,note_on,48,0,0,,2,,,74,127
37063,note_off,7,0,0,,4,,,76,127
37068,note_off,5,0,0,,6,,,66,127
37111,note_on,43,0,0,,4,,,76,127
37118,note_off,7,0,0,,2,,,74,127
37166,note_on,48,0,0,,2,,,74,127
37166,note_on,0,0,0,,8,,,68,127
37173,note_off,7,0,0,,4,,,76,127
37221,note_on,48,0,0,,1,,,73,127
37228,note_off,7,0,0,,2,,,74,127
37233,note_off,5,0,0,,12,,,59,127
37276,note_on,43,0,0,,2,,,74,127
37283,note_off,7,0,0,,1,,,73,127
37331,note_on,48,0,0,,6,,,78,127
37331,note_on,0,0,0,,1,,,61,127
37338,note_off,7,0,0,,2,,,74,127
37386,note_on,48,0,0,,4,,,76,127
37393,note_off,7,0,0,,6,,,78,127
37398,note_off,5,0,0,,8,,,68,127
37441,note_on,43,0,0,,6,,,78,127
37448,note_off,7,0,0,,4,,,76,127
37496,note_on,48,0,0,,4,,,76,127
37496,note_on,0,0,0,,10,,,69,127
37503,note_off,7,0,0,,6,,,78,127
37551,note_on,48,0,0,,2,,,74,127
37558,note_off,7,0,0,,4,,,76,127
37563,note_off,5,0,0,,1,,,61,127
37606,note_on,43,0,0,,4,,,76,127
37613,note_off,7,0,0,,2,,,74,127
37661,note_on,48,0,0,,6,,,78,127
37661,note_on,0,0,0,,2,,,62,127
37668,note_off,7,0,0,,4,,,76,127
37728,note_off,60,0,0,,10,,,69,127
37824,note_off,96,0,0,,2,,,62,127
37825,note_off,1,0,0,,6,,,78,127
37826,note_on,1,0,0,,8,,,80,127
37826,note_on,0,0,0,,4,,,64,127
37989,note_off,163,0,0,,4,,,64,127
37990,note_off,1,0,0,,8,,,80,127
37991,note_on,1,0,0,,10,,,81,127
37991,note_on,0,0,0,,6,,,66,127
38072,note_off,81,0,0,,10,,,81,127
38073,note_on,1,0,0,,8,,,80,127
38154,note_off,81,0,0,,8,,,80,127
38155,note_on,1,0,0,,6,,,78,127
38236,note_off,81,0,0,,6,,,78,127
38237,note_on,1,0,0,,4,,,76,127
38318,note_off,81,0,0,,4,,,76,127
38318,note_off,0,0,0,,6,,,66,127
38319,note_on,1,0,0,,2,,,74,127
38319,note_on,0,0,0,,2,,,62,127
38400,note_off,81,0,0,,2,,,74,127
38401,note_on,1,0,0,,1,,,73,127
38482,note_off,81,0,0,,1,,,73,127
38483,note_on,1,0,0,,12,,,71,127
38564,note_off,81,0,0,,12,,,71,127
38565,note_on,1,0,0,,10,,,69,127
38646,note_off,81,0,0,,10,,,69,127
38646,note_off,0,0,0,,2,,,62,127
38647,note_on,1,0,0,,1,,,73,127
38647,note_on,0,0,0,,4,,,64,127
38702,note_on,55,0,0,,12,,,71,127
38709,note_off,7,0,0,,1,,,73,127
38757,note_on,48,0,0,,1,,,73,127
38764,note_off,7,0,0,,12,,,71,127
38812,note_on,48,0,0,,12,,,71,127
38819,note_off,7,0,0,,1,,,73,127
38867,note_on,48,0,0,,1,,,73,127
38874,note_off,7,0,0,,12,,,71,127
38922,note_on,48,0,0,,12,,,71,127
38929,note_off,7,0,0,,1,,,73,127
38976,note_off,47,0,0,,4,,,64,127
38977,note_on,1,0,0,,1,,,73,127
38977,note_on,0,0,0,,4,,,52,127
38984,note_off,7,0,0,,12,,,71,127
39032,note_on,48,0,0,,12,,,71,127
39039,note_off,7,0,0,,1,,,73,127
39087,note_on,48,0,0,,1,,,73,127
39094,note_off,7,0,0,,12,,,71,127
39142,note_on,48,0,0,,12,,,71,127
39149,note_off,7,0,0,,1,,,73,127
39197,note_on,48,0,0,,10,,,69,127
39204,note_off,7,0,0,,12,,,71,127
39252,note_on,48,0,0,,12,,,71,127
39259,note_off,7,0,0,,10,,,69,127
39306,note_off,47,0,0,,4,,,52,127
39307,note_on,1,0,0,,10,,,69,127
39307,note_on,0,0,0,,10,,,45,127
39314,note_off,7,0,0,,12,,,71,127
39635,note_off,321,0,0,,10,,,45,127
39635,note_off,0,0,0,,10,,,69,127
39636,note_on,1,0,0,,1,,,73,127
39636,note_on,0,0,0,,10,,,81,127
39745,note_off,109,0,0,,1,,,73,127
39746,note_on,1,0,0,,10,,,69,127
39855,note_off,109,0,0,,10,,,69,127
39856,note_on,1,0,0,,4,,,64,127
39965,note_off,109,0,0,,4,,,64,127
39965,note_off,0,0,0,,10,,,81,127
39966,note_on,1,0,0,,2,,,74,127
39966,note_on,0,0,0,,2,,,38,127
40075,note_off,109,0,0,,2,,,74,127
40076,note_on,1,0,0,,10,,,69,127
40185,note_off,109,0,0,,10,,,69,127
40186,note_on,1,0,0,,4,,,64,127
40295,note_off,109,0,0,,4,,,64,127
40295,note_off,0,0,0,,2,,,38,127
40296,note_on,1,0,0,,12,,,71,127
40296,note_on,0,0,0,,4,,,40,127
40405,note_off,109,0,0,,12,,,71,127
40406,note_on,1,0,0,,8,,,68,127
40515,note_off,109,0,0,,8,,,68,127
40516,note_on,1,0,0,,4,,,64,127
40625,note_off,109,0,0,,4,,,64,127
40625,note_off,0,0,0,,4,,,40,127
40626,note_on,1,0,0,,1,,,73,127
40626,note_on,0,0,0,,10,,,45,127
40735,note_off,109,0,0,,1,,,73,127
40736,note_on,1,0,0,,10,,,69,127
40845,note_off,109,0,0,,10,,,69,127
40846,note_on,1,0,0,,4,,,64,127
40955,note_off,109,0,0,,4,,,64,127
40955,note_off,0,0,0,,10,,,45,127
40956,note_on,1,0,0,,1,,,61,127
40956,note_on,0,0,0,,10,,,81,127
41065,note_off,109,0,0,,1,,,61,127
41066,note_on,1,0,0,,4,,,64,127
41175,note_off,109,0,0,,4,,,64,127
41176,note_on,1,0,0,,10,,,69,127
41285,note_off,109,0,0,,10,,,69,127
41285,note_off,0,0,0,,10,,,81,127
41286,note_on,1,0,0,,2,,,62,127
41286,note_on,0,0,0,,2,,,38,127
41395,note_off,109,0,0,,2,,,62,127
41396,note_on,1,0,0,,6,,,66,127
41505,note_off,109,0,0,,6,,,66,127
41506,note_on,1,0,0,,10,,,69,127
41615,note_off,109,0,0,,10,,,69,127
41615,note_off,0,0,0,,2,,,38,127
41616,note_on,1,0,0,,4,,,64,127
41616,note_on,0,0,0,,4,,,40,127
41725,note_off,109,0,0,,4,,,64,127
41726,note_on,1,0,0,,8,,,68,127
41835,note_off,109,0,0,,8,,,68,127
41836,note_on,1,0,0,,12,,,71,127
41945,note_off,109,0,0,,12,,,71,127
41945,note_off,0,0,0,,4,,,40,127
41946,note_on,1,0,0,,10,,,57,127
41946,note_on,0,0,0,,10,,,45,127
42274,note_off,328,0,0,,10,,,45,127
42274,note_off,0,0,0,,10,,,57,127
42275,note_on,1,0,0,,1,,,73,127
42275,note_on,0,0,0,,10,,,81,127
42384,note_off,109,0,0,,1,,,73,127
42385,note_on,1,0,0,,10,,,69,127
42494,note_off,109,0,0,,10,,,69,127
42495,note_on,1,0,0,,4,,,64,127
42604,note_off,109,0,0,,4,,,64,127
42604,note_off,0,0,0,,10,,,81,127
42605,note_on,1,0,0,,2,,,74,127
42605,note_on,0,0,0,,2,,,38,127
42714,note_off,109,0,0,,2,,,74,127
42715,note_on,1,0,0,,10,,,69,127
42824,note_off,109,0,0,,10,,,69,127
42825,note_on,1,0,0,,4,,,64,127
42934,note_off,109,0,0,,4,,,64,127
42934,note_off,0,0,0,,2,,,38,127
42935,note_on,1,0,0,,12,,,71,127
42935,note_on,0,0,0,,4,,,40,127
43044,note_off,109,0,0,,12,,,71,127
43045,note_on,1,0,0,,8,,,68,127
43154,note_off,109,0,0,,8,,,68,127
43155,note_on,1,0,0,,4,,,64,127
43264,note_off,109,0,0,,4,,,64,127
43264,note_off,0,0,0,,4,,,40,127
43265,note_on,1,0,0,,1,,,73,127
43265,note_on,0,0,0,,10,,,33,127
43374,note_off,109,0,0,,1,,,73,127
43375,note_on,1,0,0,,2,,,74,127
43484,note_off,109,0,0,,2,,,74,127
43485,note_on,1,0,0,,4,,,76,127
43594,note_off,109,0,0,,4,,,76,127
43594,note_off,0,0,0,,10,,,33,127
43595,note_on,1,0,0,,6,,,78,127
43595,note_on,0,0,0,,2,,,62,127
43704,note_off,109,0,0,,6,,,78,127
43705,note_on,1,0,0,,4,,,76,127
43814,note_off,109,0,0,,4,,,76,127
43815,note_on,1,0,0,,2,,,74,127
43924,note_off,109,0,0,,2,,,74,127
43924,note_off,0,0,0,,2,,,62,127
43925,note_on,1,0,0,,1,,,73,127
43925,note_on,0,0,0,,4,,,64,127
44034,note_off,109,0,0,,1,,,73,127
44035,note_on,1,0,0,,2,,,74,127
44144,note_off,109,0,0,,2,,,74,127
44145,note_on,1,0,0,,12,,,71,127
44254,note_off,109,0,0,,12,,,71,127
44254,note_off,0,0,0,,4,,,64,127
44255,note_on,1,0,0,,10,,,69,127
44255,note_on,0,0,0,,4,,,52,127
44364,note_off,109,0,0,,10,,,69,127
44365,note_on,1,0,0,,12,,,71,127
44474,note_off,109,0,0,,12,,,71,127
44475,note_on,1,0,0,,8,,,68,127
44584,note_off,109,0,0,,8,,,68,127
44584,note_off,0,0,0,,4,,,52,127
44585,note_on,1,0,0,,10,,,69,127
44585,note_on,0,0,0,,10,,,57,127
44694,note_off,109,0,0,,10,,,69,127
44695,note_on,1,0,0,,8,,,68,127
44804,note_off,109,0,0,,8,,,68,127
44805,note_on,1,0,0,,6,,,66,127
44914,note_off,109,0,0,,6,,,66,127
44914,note_off,0,0,0,,10,,,57,127
44915,note_on,1,0,0,,4,,,64,127
44915,note_on,0,0,0,,2,,,50,127
45024,note_off,109,0,0,,4,,,64,127
45025,note_on,1,0,0,,6,,,66,127
45134,note_off,109,0,0,,6,,,66,127
45135,note_on,1,0,0,,2,,,62,127
45244,note_off,109,0,0,,2,,,62,127
45244,note_off,0,0,0,,2,,,50,127
45245,note_on,1,0,0,,1,,,61,127
45245,note_on,0,0,0,,4,,,52,127
45354,note_off,109,0,0,,1,,,61,127
45355,note_on,1,0,0,,2,,,62,127
45464,note_off,109,0,0,,2,,,62,127
45465,note_on,1,0,0,,12,,,59,127
45574,note_off,109,0,0,,12,,,59,127
45574,note_off,0,0,0,,4,,,52,127
45575,note_on,1,0,0,,10,,,57,127
45575,note_on,0,0,0,,4,,,40,127
45684,note_off,109,0,0,,10,,,57,127
45685,note_on,1,0,0,,12,,,59,127
45794,note_off,109,0,0,,12,,,59,127
45795,note_on,1,0,0,,8,,,56,127
45904,note_off,109,0,0,,8,,,56,127
45904,note_off,0,0,0,,4,,,40,127
45905,note_on,1,0,0,,10,,,57,127
45905,note_on,0,0,0,,10,,,33,127
46233,note_off,328,0,0,,10,,,57,127
46234,note_on,1,0,0,,5,,,77,127
46289,note_on,55,0,0,,7,,,79,127
46296,note_off,7,0,0,,5,,,77,127
46344,note_on,48,0,0,,10,,,81,127
46351,note_off,7,0,0,,7,,,79,127
46563,note_off,212,0,0,,10,,,81,127
46563,note_off,0,0,0,,10,,,33,127
46564,note_on,1,0,0,,7,,,79,127
46673,note_off,109,0,0,,7,,,79,127
46674,note_on,1,0,0,,5,,,77,127
46783,note_off,109,0,0,,5,,,77,127
46784,note_on,1,0,0,,4,,,76,127
46893,note_off,109,0,0,,4,,,76,127
46894,note_on,1,0,0,,2,,,74,127
47003,note_off,109,0,0,,2,,,74,127
47004,note_on,1,0,0,,1,,,73,127
47113,note_off,109,0,0,,1,,,73,127
47114,note_on,1,0,0,,2,,,74,127
47223,note_off,109,0,0,,2,,,74,127
47224,note_on,1,0,0,,2,,,74,127
47279,note_on,55,0,0,,1,,,73,127
47286,note_off,7,0,0,,2,,,74,127
47334,note_on,48,0,0,,2,,,74,127
47341,note_off,7,0,0,,1,,,73,127
47389,note_on,48,0,0,,1,,,73,127
47396,note_off,7,0,0,,2,,,74,127
47444,note_on,48,0,0,,2,,,74,127
47451,note_off,7,0,0,,1,,,73,127
47499,note_on,48,0,0,,1,,,73,127
47506,note_off,7,0,0,,2,,,74,127
47554,note_on,48,0,0,,11,,,70,127
47882,note_off,328,0,0,,11,,,70,127
47883,note_on,1,0,0,,10,,,69,127
47992,note_off,109,0,0,,10,,,69,127
47993,note_on,1,0,0,,7,,,67,127
48102,note_off,109,0,0,,7,,,67,127
48103,note_on,1,0,0,,5,,,65,127
48212,note_off,109,0,0,,5,,,65,127
48212,note_off,0,0,0,,1,,,73,127
48213,note_on,1,0,0,,1,,,73,127
48213,note_on,0,0,0,,7,,,67,127
48322,note_off,109,0,0,,7,,,67,127
48323,note_on,1,0,0,,5,,,65,127
48432,note_off,109,0,0,,5,,,65,127
48433,note_on,1,0,0,,4,,,64,127
48542,note_off,109,0,0,,4,,,64,127
48542,note_off,0,0,0,,1,,,73,127
48543,note_on,1,0,0,,2,,,74,127
48543,note_on,0,0,0,,5,,,65,127
48652,note_off,109,0,0,,5,,,65,127
48653,note_on,1,0,0,,4,,,64,127
48762,note_off,109,0,0,,4,,,64,127
48763,note_on,1,0,0,,2,,,62,127
48872,note_off,109,0,0,,2,,,62,127
48872,note_off,0,0,0,,2,,,74,127
48873,note_on,1,0,0,,2,,,74,127
48873,note_on,0,0,0,,5,,,65,127
48873,note_on,0,0,0,,10,,,69,127
48873,note_on,0,0,0,,2,,,62,127
48928,note_on,55,0,0,,4,,,76,127
48935,note_off,7,0,0,,2,,,74,127
48983,note_on,48,0,0,,5,,,77,127
48990,note_off,7,0,0,,4,,,76,127
49202,note_off,212,0,0,,5,,,77,127
49202,note_off,0,0,0,,2,,,62,127
49202,note_off,0,0,0,,10,,,69,127
49202,note_off,0,0,0,,5,,,65,127
49203,note_on,1,0,0,,4,,,76,127
49203,note_on,0,0,0,,10,,,69,127
49203,note_on,0,0,0,,0,,,60,127
49203,note_on,0,0,0,,4,,,64,127
49531,note_off,328,0,0,,4,,,64,127
49531,note_off,0,0,0,,0,,,60,127
49531,note_off,0,0,0,,10,,,69,127
49531,note_off,0,0,0,,4,,,76,127
49532,note_on,1,0,0,,2,,,74,127
49532,note_on,0,0,0,,4,,,76,127
49532,note_on,0,0,0,,7,,,67,127
49532,note_on,0,0,0,,2,,,62,127
49532,note_on,0,0,0,,11,,,58,127
49641,note_off,109,0,0,,4,,,76,127
49641,note_off,0,0,0,,2,,,74,127
49642,note_on,1,0,0,,1,,,73,127
49751,note_off,109,0,0,,1,,,73,127
49752,note_on,1,0,0,,2,,,74,127
49861,note_off,109,0,0,,2,,,74,127
49861,note_off,0,0,0,,11,,,58,127
49861,note_off,0,0,0,,2,,,62,127
49861,note_off,0,0,0,,7,,,67,127
49862,note_on,1,0,0,,4,,,76,127
49862,note_on,0,0,0,,7,,,67,127
49862,note_on,0,0,0,,4,,,64,127
49862,note_on,0,0,0,,10,,,57,127
49862,note_on,0,0,0,,1,,,61,127
50190,note_off,328,0,0,,1,,,61,127
50190,note_off,0,0,0,,10,,,57,127
50190,note_off,0,0,0,,4,,,64,127
50190,note_off,0,0,0,,7,,,67,127
50190,note_off,0,0,0,,4,,,76,127
50191,note_on,1,0,0,,5,,,77,127
50191,note_on,0,0,0,,2,,,62,127
50191,note_on,0,0,0,,5,,,65,127
50191,note_on,0,0,0,,10,,,69,127
50300,note_off,109,0,0,,5,,,77,127
50301,note_on,1,0,0,,4,,,76,127
50410,note_off,109,0,0,,4,,,76,127
50411,note_on,1,0,0,,5,,,77,127
50520,note_off,109,0,0,,5,,,77,127
50520,note_off,0,0,0,,10,,,69,127
50520,note_off,0,0,0,,5,,,65,127
50520,note_off,0,0,0,,2,,,62,127
50521,note_on,1,0,0,,7,,,79,127
50521,note_on,0,0,0,,7,,,67,127
50521,note_on,0,0,0,,2,,,62,127
50521,note_on,0,0,0,,11,,,58,127
50630,note_off,109,0,0,,7,,,79,127
50631,note_on,1,0,0,,5,,,77,127
50740,note_off,109,0,0,,5,,,77,127
50741,note_on,1,0,0,,4,,,76,127
50850,note_off,109,0,0,,4,,,76,127
50850,note_off,0,0,0,,11,,,58,127
50850,note_off,0,0,0,,2,,,62,127
50850,note_off,0,0,0,,7,,,67,127
50851,note_on,1,0,0,,2,,,74,127
50851,note_on,0,0,0,,7,,,55,127
50851,note_on,0,0,0,,7,,,67,127
50851,note_on,0,0,0,,2,,,62,127
50960,note_off,109,0,0,,2,,,74,127
50961,note_on,1,0,0,,1,,,73,127
51070,note_off,109,0,0,,1,,,73,127
51071,note_on,1,0,0,,2,,,74,127
51180,note_off,109,0,0,,2,,,74,127
51180,note_off,0,0,0,,2,,,62,127
51180,note_off,0,0,0,,7,,,67,127
51180,note_off,0,0,0,,7,,,55,127
51181,note_on,1,0,0,,4,,,76,127
51181,note_on,0,0,0,,7,,,67,127
51181,note_on,0,0,0,,4,,,64,127
51181,note_on,0,0,0,,10,,,57,127
51181,note_on,0,0,0,,1,,,61,127
51290,note_off,109,0,0,,4,,,76,127
51291,note_on,1,0,0,,5,,,77,127
51400,note_off,109,0,0,,5,,,77,127
51401,note_on,1,0,0,,7,,,79,127
51510,note_off,109,0,0,,7,,,79,127
51510,note_off,0,0,0,,1,,,61,127
51510,note_off,0,0,0,,10,,,57,127
51510,note_off,0,0,0,,4,,,64,127
51510,note_off,0,0,0,,7,,,67,127
51511,note_on,1,0,0,,5,,,77,127
51511,note_on,0,0,0,,10,,,69,127
51511,note_on,0,0,0,,5,,,65,127
51511,note_on,0,0,0,,2,,,62,127
51620,note_off,109,0,0,,5,,,77,127
51621,note_on,1,0,0,,7,,,79,127
51730,note_off,109,0,0,,7,,,79,127
51731,note_on,1,0,0,,10,,,81,127
51840,note_off,109,0,0,,10,,,81,127
51840,note_off,0,0,0,,2,,,62,127
51840,note_off,0,0,0,,5,,,65,127
51840,note_off,0,0,0,,10,,,69,127
51841,note_on,1,0,0,,7,,,79,127
51841,note_on,0,0,0,,2,,,62,127
51841,note_on,0,0,0,,7,,,67,127
51841,note_on,0,0,0,,11,,,58,127
51950,note_off,109,0,0,,7,,,79,127
51951,note_on,1,0,0,,5,,,77,127
52060,note_off,109,0,0,,5,,,77,127
52061,note_on,1,0,0,,4,,,76,127
52170,note_off,109,0,0,,4,,,76,127
52170,note_off,0,0,0,,11,,,58,127
52170,note_off,0,0,0,,7,,,67,127
52170,note_off,0,0,0,,2,,,62,127
52171,note_on,1,0,0,,2,,,74,127
52171,note_on,0,0,0,,7,,,55,127
52171,note_on,0,0,0,,2,,,62,127
52171,note_on,0,0,0,,7,,,67,127
52280,note_off,109,0,0,,2,,,74,127
52281,note_on,1,0,0,,1,,,73,127
52390,note_off,109,0,0,,1,,,73,127
52391,note_on,1,0,0,,2,,,74,127
52500,note_off,109,0,0,,2,,,74,127
52500,note_off,0,0,0,,7,,,67,127
52500,note_off,0,0,0,,2,,,62,127
52500,note_off,0,0,0,,7,,,55,127
52501,note_on,1,0,0,,1,,,73,127
52501,note_on,0,0,0,,10,,,57,127
52610,note_off,109,0,0,,1,,,73,127
52611,note_on,1,0,0,,10,,,69,127
52720,note_off,109,0,0,,10,,,69,127
52721,note_on,1,0,0,,4,,,76,127
52830,note_off,109,0,0,,4,,,76,127
52830,note_off,0,0,0,,10,,,57,127
52831,note_on,1,0,0,,1,,,73,127
52831,note_on,0,0,0,,10,,,81,127
52940,note_off,109,0,0,,1,,,73,127
52941,note_on,1,0,0,,10,,,69,127
53050,note_off,109,0,0,,10,,,69,127
53051,note_on,1,0,0,,4,,,76,127
53160,note_off,109,0,0,,4,,,76,127
53160,note_off,0,0,0,,10,,,81,127
53161,note_on,1,0,0,,11,,,70,127
53161,note_on,0,0,0,,7,,,55,127
53270,note_off,109,0,0,,11,,,70,127
53271,note_on,1,0,0,,7,,,67,127
53380,note_off,109,0,0,,7,,,67,127
53381,note_on,1,0,0,,4,,,76,127
53490,note_off,109,0,0,,4,,,76,127
53490,note_off,0,0,0,,7,,,55,127
53491,note_on,1,0,0,,1,,,73,127
53491,note_on,0,0,0,,11,,,82,127
53600,note_off,109,0,0,,1,,,73,127
53601,note_on,1,0,0,,7,,,67,127
53710,note_off,109,0,0,,7,,,67,127
53711,note_on,1,0,0,,4,,,76,127
53820,note_off,109,0,0,,4,,,76,127
53820,note_off,0,0,0,,11,,,82,127
53821,note_on,1,0,0,,2,,,74,127
53821,note_on,0,0,0,,5,,,53,127
53930,note_off,109,0,0,,2,,,74,127
53931,note_on,1,0,0,,10,,,69,127
54040,note_off,109,0,0,,10,,,69,127
54041,note_on,1,0,0,,5,,,77,127
54150,note_off,109,0,0,,5,,,77,127
54150,note_off,0,0,0,,5,,,53,127
54151,note_on,1,0,0,,2,,,74,127
54151,note_on,0,0,0,,10,,,81,127
54260,note_off,109,0,0,,2,,,74,127
54261,note_on,1,0,0,,10,,,69,127
54370,note_off,109,0,0,,10,,,69,127
54371,note_on,1,0,0,,5,,,77,127
54480,note_off,109,0,0,,5,,,77,127
54480,note_off,0,0,0,,10,,,81,127
54481,note_on,1,0,0,,4,,,76,127
54481,note_on,0,0,0,,4,,,52,127
54590,note_off,109,0,0,,4,,,76,127
54591,note_on,1,0,0,,10,,,69,127
54700,note_off,109,0,0,,10,,,69,127
54701,note_on,1,0,0,,7,,,79,127
54810,note_off,109,0,0,,7,,,79,127
54810,note_off,0,0,0,,4,,,52,127
54811,note_on,1,0,0,,4,,,76,127
54811,note_on,0,0,0,,1,,,85,127
54920,note_off,109,0,0,,4,,,76,127
54921,note_on,1,0,0,,10,,,69,127
55030,note_off,109,0,0,,10,,,69,127
55031,note_on,1,0,0,,7,,,79,127
55140,note_off,109,0,0,,7,,,79,127
55140,note_off,0,0,0,,1,,,85,127
55141,note_on,1,0,0,,5,,,77,127
55141,note_on,0,0,0,,2,,,50,127
55250,note_off,109,0,0,,5,,,77,127
55251,note_on,1,0,0,,4,,,76,127
55360,note_off,109,0,0,,4,,,76,127
55361,note_on,1,0,0,,2,,,74,127
55470,note_off,109,0,0,,2,,,74,127
55470,note_off,0,0,0,,2,,,50,127
55471,note_on,1,0,0,,2,,,62,127
55471,note_on,0,0,0,,10,,,81,127
55580,note_off,109,0,0,,2,,,62,127
55581,note_on,1,0,0,,5,,,65,127
55690,note_off,109,0,0,,5,,,65,127
55691,note_on,1,0,0,,10,,,69,127
55800,note_off,109,0,0,,10,,,69,127
55800,note_off,0,0,0,,10,,,81,127
55801,note_on,1,0,0,,11,,,58,127
55801,note_on,0,0,0,,11,,,46,127
55910,note_off,109,0,0,,11,,,58,127
55911,note_on,1,0,0,,2,,,62,127
56020,note_off,109,0,0,,2,,,62,127
56021,note_on,1,0,0,,10,,,69,127
56130,note_off,109,0,0,,10,,,69,127
56130,note_off,0,0,0,,11,,,46,127
56131,note_on,1,0,0,,11,,,58,127
56131,note_on,0,0,0,,7,,,79,127
56240,note_off,109,0,0,,11,,,58,127
56241,note_on,1,0,0,,2,,,62,127
56350,note_off,109,0,0,,2,,,62,127
56351,note_on,1,0,0,,7,,,67,127
56460,note_off,109,0,0,,7,,,67,127
56460,note_off,0,0,0,,7,,,79,127
56461,note_on,1,0,0,,10,,,57,127
56461,note_on,0,0,0,,10,,,45,127
56570,note_off,109,0,0,,10,,,57,127
56571,note_on,1,0,0,,2,,,62,127
56680,note_off,109,0,0,,2,,,62,127
56681,note_on,1,0,0,,5,,,65,127
56790,note_off,109,0,0,,5,,,65,127
56790,note_off,0,0,0,,10,,,45,127
56791,note_on,1,0,0,,10,,,57,127
56791,note_on,0,0,0,,5,,,77,127
56900,note_off,109,0,0,,10,,,57,127
56901,note_on,1,0,0,,2,,,62,127
57010,note_off,109,0,0,,2,,,62,127
57011,note_on,1,0,0,,5,,,65,127
57120,note_off,109,0,0,,5,,,65,127
57120,note_off,0,0,0,,5,,,77,127
57121,note_on,1,0,0,,7,,,55,127
57121,note_on,0,0,0,,7,,,43,127
57230,note_off,109,0,0,,7,,,55,127
57231,note_on,1,0,0,,1,,,61,127
57340,note_off,109,0,0,,1,,,61,127
57341,note_on,1,0,0,,4,,,64,127
57450,note_off,109,0,0,,4,,,64,127
57450,note_off,0,0,0,,7,,,43,127
57451,note_on,1,0,0,,7,,,55,127
57451,note_on,0,0,0,,4,,,76,127
57560,note_off,109,0,0,,7,,,55,127
57561,note_on,1,0,0,,1,,,61,127
57670,note_off,109,0,0,,1,,,61,127
57671,note_on,1,0,0,,4,,,64,127
57780,note_off,109,0,0,,4,,,64,127
57780,note_off,0,0,0,,4,,,76,127
57781,note_on,1,0,0,,5,,,53,127
57781,note_on,0,0,0,,5,,,41,127
57890,note_off,109,0,0,,5,,,53,127
57891,note_on,1,0,0,,10,,,57,127
58000,note_off,109,0,0,,10,,,57,127
58001,note_on,1,0,0,,4,,,64,127
58110,note_off,109,0,0,,4,,,64,127
58110,note_off,0,0,0,,5,,,41,127
58111,note_on,1,0,0,,5,,,53,127
58111,note_on,0,0,0,,2,,,74,127
58220,note_off,109,0,0,,5,,,53,127
58221,note_on,1,0,0,,10,,,57,127
58330,note_off,109,0,0,,10,,,57,127
58331,note_on,1,0,0,,2,,,62,127
58440,note_off,109,0,0,,2,,,62,127
58440,note_off,0,0,0,,2,,,74,127
58441,note_on,1,0,0,,4,,,52,127
58441,note_on,0,0,0,,4,,,40,127
58550,note_off,109,0,0,,4,,,52,127
58551,note_on,1,0,0,,7,,,55,127
58660,note_off,109,0,0,,7,,,55,127
58661,note_on,1,0,0,,2,,,62,127
58770,note_off,109,0,0,,2,,,62,127
58770,note_off,0,0,0,,4,,,40,127
58771,note_on,1,0,0,,4,,,52,127
58771,note_on,0,0,0,,1,,,73,127
58880,note_off,109,0,0,,4,,,52,127
58881,note_on,1,0,0,,7,,,55,127
58990,note_off,109,0,0,,7,,,55,127
58991,note_on,1,0,0,,1,,,61,127
59100,note_off,109,0,0,,1,,,61,127
59100,note_off,0,0,0,,1,,,73,127
59101,note_on,1,0,0,,2,,,38,127
59101,note_on,0,0,0,,2,,,50,127
59430,note_on,329,0,0,,5,,,77,127
59485,note_on,55,0,0,,7,,,79,127
59492,note_off,7,0,0,,5,,,77,127
59540,note_on,48,0,0,,10,,,81,127
59547,note_off,7,0,0,,7,,,79,127
59759,note_off,212,0,0,,10,,,81,127
59759,note_off,0,0,0,,2,,,50,127
59759,note_off,0,0,0,,2,,,38,127
59760,note_on,1,0,0,,7,,,79,127
59869,note_off,109,0,0,,7,,,79,127
59870,note_on,1,0,0,,5,,,77,127
59979,note_off,109,0,0,,5,,,77,127
59980,note_on,1,0,0,,4,,,76,127
60089,note_off,109,0,0,,4,,,76,127
60090,note_on,1,0,0,,2,,,74,127
60090,note_on,0,0,0,,2,,,62,127
60090,note_on,0,0,0,,7,,,67,127
60090,note_on,0,0,0,,11,,,58,127
60199,note_off,109,0,0,,2,,,74,127
60200,note_on,1,0,0,,1,,,73,127
60309,note_off,109,0,0,,1,,,73,127
60310,note_on,1,0,0,,2,,,74,127
60419,note_off,109,0,0,,2,,,74,127
60419,note_off,0,0,0,,11,,,58,127
60419,note_off,0,0,0,,7,,,67,127
60419,note_off,0,0,0,,2,,,62,127
60420,note_on,1,0,0,,2,,,74,127
60420,note_on,0,0,0,,2,,,62,127
60420,note_on,0,0,0,,4,,,64,127
60420,note_on,0,0,0,,7,,,67,127
60420,note_on,0,0,0,,10,,,57,127
60475,note_on,55,0,0,,1,,,73,127
60482,note_off,7,0,0,,2,,,74,127
60530,note_on,48,0,0,,2,,,74,127
60537,note_off,7,0,0,,1,,,73,127
60585,note_on,48,0,0,,1,,,73,127
60592,note_off,7,0,0,,2,,,74,127
60640,note_on,48,0,0,,2,,,74,127
60647,note_off,7,0,0,,1,,,73,127
60695,note_on,48,0,0,,1,,,73,127
60702,note_off,7,0,0,,2,,,74,127
60750,note_on,48,0,0,,6,,,78,127
60757,note_off,7,0,0,,1,,,73,127
60805,note_on,48,0,0,,7,,,79,127
60812,note_off,7,0,0,,6,,,78,127
60860,note_on,48,0,0,,10,,,81,127
60867,note_off,7,0,0,,7,,,79,127
61079,note_off,212,0,0,,10,,,81,127
61079,note_off,0,0,0,,10,,,57,127
61079,note_off,0,0,0,,7,,,67,127
61079,note_off,0,0,0,,4,,,64,127
61079,note_off,0,0,0,,2,,,62,127
61080,note_on,1,0,0,,6,,,78,127
61189,note_off,109,0,0,,6,,,78,127
61190,note_on,1,0,0,,4,,,76,127
61299,note_off,109,0,0,,4,,,76,127
61300,note_on,1,0,0,,2,,,74,127
61409,note_off,109,0,0,,2,,,74,127
61410,note_on,1,0,0,,0,,,72,127
61410,note_on,0,0,0,,0,,,60,127
61410,note_on,0,0,0,,2,,,62,127
61410,note_on,0,0,0,,6,,,54,127
61410,note_on,0,0,0,,2,,,50,127
61519,note_off,109,0,0,,0,,,72,127
61520,note_on,1,0,0,,11,,,70,127
61629,note_off,109,0,0,,11,,,70,127
61630,note_on,1,0,0,,10,,,69,127
61739,note_off,109,0,0,,10,,,69,127
61739,note_off,0,0,0,,2,,,50,127
61739,note_off,0,0,0,,6,,,54,127
61739,note_off,0,0,0,,2,,,62,127
61739,note_off,0,0,0,,0,,,60,127
61740,note_on,1,0,0,,0,,,72,127
61740,note_on,0,0,0,,11,,,58,127
61740,note_on,0,0,0,,2,,,62,127
61740,note_on,0,0,0,,7,,,55,127
61795,note_on,55,0,0,,11,,,70,127
61802,note_off,7,0,0,,0,,,72,127
61850,note_on,48,0,0,,0,,,72,127
61857,note_off,7,0,0,,11,,,70,127
61905,note_on,48,0,0,,11,,,70,127
61912,note_off,7,0,0,,0,,,72,127
61960,note_on,48,0,0,,0,,,72,127
61967,note_off,7,0,0,,11,,,70,127
62015,note_on,48,0,0,,11,,,70,127
62022,note_off,7,0,0,,0,,,72,127
62070,note_on,48,0,0,,4,,,76,127
62077,note_off,7,0,0,,11,,,70,127
62125,note_on,48,0,0,,5,,,77,127
62132,note_off,7,0,0,,4,,,76,127
62180,note_on,48,0,0,,7,,,79,127
62187,note_off,7,0,0,,5,,,77,127
62399,note_off,212,0,0,,7,,,79,127
62399,note_off,0,0,0,,7,,,55,127
62399,note_off,0,0,0,,2,,,62,127
62399,note_off,0,0,0,,11,,,58,127
62400,note_on,1,0,0,,4,,,76,127
62509,note_off,109,0,0,,4,,,76,127
62510,note_on,1,0,0,,2,,,74,127
62619,note_off,109,0,0,,2,,,74,127
62620,note_on,1,0,0,,0,,,72,127
62729,note_off,109,0,0,,0,,,72,127
62730,note_on,1,0,0,,11,,,70,127
62730,note_on,0,0,0,,0,,,72,127
62730,note_on,0,0,0,,7,,,67,127
62730,note_on,0,0,0,,2,,,62,127
62839,note_off,109,0,0,,0,,,72,127
62839,note_off,0,0,0,,11,,,70,127
62840,note_on,1,0,0,,10,,,69,127
62949,note_off,109,0,0,,10,,,69,127
62950,note_on,1,0,0,,11,,,70,127
63059,note_off,109,0,0,,11,,,70,127
63059,note_off,0,0,0,,2,,,62,127
63059,note_off,0,0,0,,7,,,67,127
63060,note_on,1,0,0,,10,,,69,127
63060,note_on,0,0,0,,1,,,61,127
63060,note_on,0,0,0,,7,,,67,127
63169,note_off,109,0,0,,10,,,69,127
63170,note_on,1,0,0,,11,,,70,127
63279,note_off,109,0,0,,11,,,70,127
63280,note_on,1,0,0,,10,,,69,127
63389,note_off,109,0,0,,10,,,69,127
63389,note_off,0,0,0,,7,,,67,127
63389,note_off,0,0,0,,1,,,61,127
63390,note_on,1,0,0,,0,,,72,127
63390,note_on,0,0,0,,11,,,70,127
63390,note_on,0,0,0,,7,,,67,127
63390,note_on,0,0,0,,2,,,62,127
63499,note_off,109,0,0,,11,,,70,127
63499,note_off,0,0,0,,0,,,72,127
63500,note_on,1,0,0,,10,,,69,127
63609,note_off,109,0,0,,10,,,69,127
63610,note_on,1,0,0,,11,,,70,127
63719,note_off,109,0,0,,11,,,70,127
63719,note_off,0,0,0,,2,,,62,127
63719,note_off,0,0,0,,7,,,67,127
63720,note_on,1,0,0,,10,,,69,127
63720,note_on,0,0,0,,7,,,67,127
63720,note_on,0,0,0,,1,,,61,127
63829,note_off,109,0,0,,10,,,69,127
63830,note_on,1,0,0,,11,,,70,127
63939,note_off,109,0,0,,11,,,70,127
63940,note_on,1,0,0,,10,,,69,127
64049,note_off,109,0,0,,10,,,69,127
64049,note_off,0,0,0,,1,,,61,127
64049,note_off,0,0,0,,7,,,67,127
64050,note_on,1,0,0,,0,,,72,127
64050,note_on,0,0,0,,11,,,70,127
64050,note_on,0,0,0,,7,,,67,127
64050,note_on,0,0,0,,2,,,62,127
64159,note_off,109,0,0,,11,,,70,127
64159,note_off,0,0,0,,0,,,72,127
64160,note_on,1,0,0,,10,,,69,127
64269,note_off,109,0,0,,10,,,69,127
64270,note_on,1,0,0,,11,,,70,127
64379,note_off,109,0,0,,11,,,70,127
64379,note_off,0,0,0,,2,,,62,127
64379,note_off,0,0,0,,7,,,67,127
64380,note_on,1,0,0,,10,,,69,127
64380,note_on,0,0,0,,7,,,67,127
64380,note_on,0,0,0,,1,,,61,127
64489,note_off,109,0,0,,10,,,69,127
64490,note_on,1,0,0,,12,,,71,127
64599,note_off,109,0,0,,12,,,71,127
64600,note_on,1,0,0,,1,,,73,127
64709,note_off,109,0,0,,1,,,73,127
64709,note_off,0,0,0,,1,,,61,127
64709,note_off,0,0,0,,7,,,67,127
64710,note_on,1,0,0,,2,,,74,127
64710,note_on,0,0,0,,4,,,76,127
64710,note_on,0,0,0,,7,,,67,127
64710,note_on,0,0,0,,2,,,62,127
64710,note_on,0,0,0,,11,,,58,127
64819,note_off,109,0,0,,4,,,76,127
64819,note_off,0,0,0,,2,,,74,127
64820,note_on,1,0,0,,1,,,73,127
64929,note_off,109,0,0,,1,,,73,127
64930,note_on,1,0,0,,2,,,74,127
65039,note_off,109,0,0,,2,,,74,127
65039,note_off,0,0,0,,11,,,58,127
65039,note_off,0,0,0,,2,,,62,127
65039,note_off,0,0,0,,7,,,67,127
65040,note_on,1,0,0,,1,,,73,127
65040,note_on,0,0,0,,2,,,62,127
65040,note_on,0,0,0,,4,,,64,127
65040,note_on,0,0,0,,7,,,67,127
65040,note_on,0,0,0,,10,,,57,127
65149,note_off,109,0,0,,1,,,73,127
65150,note_on,1,0,0,,2,,,74,127
65259,note_off,109,0,0,,2,,,74,127
65260,note_on,1,0,0,,1,,,73,127
65369,note_off,109,0,0,,1,,,73,127
65369,note_off,0,0,0,,10,,,57,127
65369,note_off,0,0,0,,7,,,67,127
65369,note_off,0,0,0,,4,,,64,127
65369,note_off,0,0,0,,2,,,62,127
65370,note_on,1,0,0,,2,,,74,127
65370,note_on,0,0,0,,4,,,76,127
65370,note_on,0,0,0,,2,,,62,127
65370,note_on,0,0,0,,7,,,67,127
65370,note_on,0,0,0,,11,,,58,127
65479,note_off,109,0,0,,4,,,76,127
65479,note_off,0,0,0,,2,,,74,127
65480,note_on,1,0,0,,1,,,73,127
65589,note_off,109,0,0,,1,,,73,127
65590,note_on,1,0,0,,2,,,74,127
65699,note_off,109,0,0,,2,,,74,127
65699,note_off,0,0,0,,11,,,58,127
65699,note_off,0,0,0,,7,,,67,127
65699,note_off,0,0,0,,2,,,62,127
65700,note_on,1,0,0,,1,,,73,127
65700,note_on,0,0,0,,2,,,62,127
65700,note_on,0,0,0,,4,,,64,127
65700,note_on,0,0,0,,7,,,67,127
65700,note_on,0,0,0,,10,,,57,127
65809,note_off,109,0,0,,1,,,73,127
65810,note_on,1,0,0,,2,,,74,127
65919,note_off,109,0,0,,2,,,74,127
65920,note_on,1,0,0,,4,,,76,127
66029,note_off,109,0,0,,4,,,76,127
66029,note_off,0,0,0,,10,,,57,127
66029,note_off,0,0,0,,7,,,67,127
66029,note_off,0,0,0,,4,,,64,127
66029,note_off,0,0,0,,2,,,62,127
66030,note_on,1,0,0,,5,,,77,127
66030,note_on,0,0,0,,7,,,79,127
66030,note_on,0,0,0,,5,,,65,127
66030,note_on,0,0,0,,10,,,69,127
66030,note_on,0,0,0,,2,,,62,127
66139,note_off,109,0,0,,7,,,79,127
66139,note_off,0,0,0,,5,,,77,127
66140,note_on,1,0,0,,4,,,76,127
66249,note_off,109,0,0,,4,,,76,127
66250,note_on,1,0,0,,5,,,77,127
66359,note_off,109,0,0,,5,,,77,127
66359,note_off,0,0,0,,2,,,62,127
66359,note_off,0,0,0,,10,,,69,127
66359,note_off,0,0,0,,5,,,65,127
66360,note_on,1,0,0,,4,,,76,127
66360,note_on,0,0,0,,7,,,67,127
66360,note_on,0,0,0,,10,,,69,127
66360,note_on,0,0,0,,1,,,61,127
66469,note_off,109,0,0,,4,,,76,127
66470,note_on,1,0,0,,5,,,77,127
66579,note_off,109,0,0,,5,,,77,127
66580,note_on,1,0,0,,4,,,76,127
66689,note_off,109,0,0,,4,,,76,127
66689,note_off,0,0,0,,1,,,61,127
66689,note_off,0,0,0,,10,,,69,127
66689,note_off,0,0,0,,7,,,67,127
66690,note_on,1,0,0,,5,,,77,127
66690,note_on,0,0,0,,7,,,79,127
66690,note_on,0,0,0,,2,,,62,127
66690,note_on,0,0,0,,5,,,65,127
66690,note_on,0,0,0,,10,,,69,127
66799,note_off,109,0,0,,7,,,79,127
66799,note_off,0,0,0,,5,,,77,127
66800,note_on,1,0,0,,4,,,76,127
66909,note_off,109,0,0,,4,,,76,127
66910,note_on,1,0,0,,5,,,77,127
67019,note_off,109,0,0,,5,,,77,127
67019,note_off,0,0,0,,10,,,69,127
67019,note_off,0,0,0,,5,,,65,127
67019,note_off,0,0,0,,2,,,62,127
67020,note_on,1,0,0,,4,,,76,127
67020,note_on,0,0,0,,7,,,67,127
67020,note_on,0,0,0,,10,,,69,127
67020,note_on,0,0,0,,4,,,64,127
67020,note_on,0,0,0,,1,,,61,127
67129,note_off,109,0,0,,4,,,76,127
67130,note_on,1,0,0,,5,,,77,127
67239,note_off,109,0,0,,5,,,77,127
67240,note_on,1,0,0,,4,,,76,127
67349,note_off,109,0,0,,4,,,76,127
67349,note_off,0,0,0,,1,,,61,127
67349,note_off,0,0,0,,4,,,64,127
67349,note_off,0,0,0,,10,,,69,127
67349,note_off,0,0,0,,7,,,67,127
67350,note_on,1,0,0,,5,,,77,127
67350,note_on,0,0,0,,2,,,62,127
67350,note_on,0,0,0,,5,,,65,127
67350,note_on,0,0,0,,10,,,69,127
67459,note_off,109,0,0,,5,,,77,127
67460,note_on,1,0,0,,4,,,76,127
67569,note_off,109,0,0,,4,,,76,127
67570,note_on,1,0,0,,5,,,77,127
67679,note_off,109,0,0,,5,,,77,127
67679,note_off,0,0,0,,10,,,69,127
67679,note_off,0,0,0,,5,,,65,127
67679,note_off,0,0,0,,2,,,62,127
67680,note_on,1,0,0,,7,,,79,127
67680,note_on,0,0,0,,7,,,67,127
67680,note_on,0,0,0,,2,,,62,127
67680,note_on,0,0,0,,11,,,58,127
67789,note_off,109,0,0,,7,,,79,127
67790,note_on,1,0,0,,5,,,77,127
67899,note_off,109,0,0,,5,,,77,127
67900,note_on,1,0,0,,4,,,76,127
68009,note_off,109,0,0,,4,,,76,127
68009,note_off,0,0,0,,11,,,58,127
68009,note_off,0,0,0,,2,,,62,127
68009,note_off,0,0,0,,7,,,67,127
68010,note_on,1,0,0,,2,,,74,127
68010,note_on,0,0,0,,7,,,55,127
68010,note_on,0,0,0,,7,,,67,127
68010,note_on,0,0,0,,2,,,62,127
68010,note_on,0,0,0,,11,,,58,127
68119,note_off,109,0,0,,2,,,74,127
68120,note_on,1,0,0,,1,,,73,127
68229,note_off,109,0,0,,1,,,73,127
68230,note_on,1,0,0,,2,,,74,127
68339,note_off,109,0,0,,2,,,74,127
68339,note_off,0,0,0,,11,,,58,127
68339,note_off,0,0,0,,2,,,62,127
68339,note_off,0,0,0,,7,,,67,127
68339,note_off,0,0,0,,7,,,55,127
68340,note_on,1,0,0,,1,,,73,127
68340,note_on,0,0,0,,10,,,57,127
68449,note_off,109,0,0,,1,,,73,127
68450,note_on,1,0,0,,10,,,69,127
68559,note_off,109,0,0,,10,,,69,127
68560,note_on,1,0,0,,4,,,76,127
68669,note_off,109,0,0,,4,,,76,127
68669,note_off,0,0,0,,10,,,57,127
68670,note_on,1,0,0,,1,,,73,127
68670,note_on,0,0,0,,10,,,81,127
68779,note_off,109,0,0,,1,,,73,127
68780,note_on,1,0,0,,10,,,69,127
68889,note_off,109,0,0,,10,,,69,127
68890,note_on,1,0,0,,4,,,76,127
68999,note_off,109,0,0,,4,,,76,127
68999,note_off,0,0,0,,10,,,81,127
69000,note_on,1,0,0,,6,,,78,127
69000,note_on,0,0,0,,2,,,86,127
69109,note_off,109,0,0,,6,,,78,127
69110,note_on,1,0,0,,2,,,74,127
69219,note_off,109,0,0,,2,,,74,127
69220,note_on,1,0,0,,10,,,69,127
69329,note_off,109,0,0,,10,,,69,127
69329,note_off,0,0,0,,2,,,86,127
69330,note_on,1,0,0,,7,,,79,127
69330,note_on,0,0,0,,10,,,45,127
69439,note_off,109,0,0,,7,,,79,127
69440,note_on,1,0,0,,4,,,76,127
69549,note_off,109,0,0,,4,,,76,127
69550,note_on,1,0,0,,10,,,69,127
69659,note_off,109,0,0,,10,,,69,127
69659,note_off,0,0,0,,10,,,45,127
69660,note_on,1,0,0,,6,,,78,127
69660,note_on,0,0,0,,2,,,38,127
69769,note_off,109,0,0,,6,,,78,127
69770,note_on,1,0,0,,2,,,74,127
69879,note_off,109,0,0,,2,,,74,127
69880,note_on,1,0,0,,10,,,69,127
69989,note_off,109,0,0,,10,,,69,127
69989,note_off,0,0,0,,2,,,38,127
69990,note_on,1,0,0,,4,,,76,127
69990,note_on,0,0,0,,10,,,81,127
70099,note_off,109,0,0,,4,,,76,127
70100,note_on,1,0,0,,1,,,73,127
70209,note_off,109,0,0,,1,,,73,127
70210,note_on,1,0,0,,10,,,69,127
70319,note_off,109,0,0,,10,,,69,127
70319,note_off,0,0,0,,10,,,81,127
70320,note_on,1,0,0,,6,,,78,127
70320,note_on,0,0,0,,2,,,86,127
70429,note_off,109,0,0,,6,,,78,127
70430,note_on,1,0,0,,2,,,74,127
70539,note_off,109,0,0,,2,,,74,127
70540,note_on,1,0,0,,10,,,69,127
70649,note_off,109,0,0,,10,,,69,127
70649,note_off,0,0,0,,2,,,86,127
70650,note_on,1,0,0,,7,,,79,127
70650,note_on,0,0,0,,10,,,45,127
70759,note_off,109,0,0,,7,,,79,127
70760,note_on,1,0,0,,4,,,76,127
70869,note_off,109,0,0,,4,,,76,127
70870,note_on,1,0,0,,10,,,69,127
70979,note_off,109,0,0,,10,,,45,127
70980,note_on,1,0,0,,6,,,78,127
70980,note_on,0,0,0,,2,,,38,127
70990,note_off,10,0,0,,10,,,69,127
71089,note_off,99,0,0,,6,,,78,127
71090,note_on,1,0,0,,2,,,74,127
71199,note_off,109,0,0,,2,,,74,127
71200,note_on,1,0,0,,10,,,69,127
71309,note_off,109,0,0,,10,,,69,127
71309,note_off,0,0,0,,2,,,38,127
71310,note_on,1,0,0,,1,,,61,127
71310,note_on,0,0,0,,10,,,81,127
71419,note_off,109,0,0,,1,,,61,127
71420,note_on,1,0,0,,4,,,64,127
71529,note_off,109,0,0,,4,,,64,127
71530,note_on,1,0,0,,10,,,69,127
71639,note_off,109,0,0,,10,,,69,127
71639,note_off,0,0,0,,10,,,81,127
71640,note_on,1,0,0,,2,,,62,127
71640,note_on,0,0,0,,2,,,86,127
71749,note_off,109,0,0,,2,,,62,127
71750,note_on,1,0,0,,6,,,66,127
71859,note_off,109,0,0,,6,,,66,127
71860,note_on,1,0,0,,10,,,69,127
71969,note_off,109,0,0,,10,,,69,127
71969,note_off,0,0,0,,2,,,86,127
71970,note_on,1,0,0,,10,,,57,127
71970,note_on,0,0,0,,10,,,45,127
72079,note_off,109,0,0,,10,,,57,127
72080,note_on,1,0,0,,4,,,64,127
72189,note_off,109,0,0,,4,,,64,127
72190,note_on,1,0,0,,10,,,69,127
72299,note_off,109,0,0,,10,,,69,127
72299,note_off,0,0,0,,10,,,45,127
72300,note_on,1,0,0,,2,,,62,127
72300,note_on,0,0,0,,2,,,38,127
72409,note_off,109,0,0,,2,,,62,127
72410,note_on,1,0,0,,6,,,66,127
72519,note_off,109,0,0,,6,,,66,127
72520,note_on,1,0,0,,10,,,69,127
72629,note_off,109,0,0,,10,,,69,127
72629,note_off,0,0,0,,2,,,38,127
72630,note_on,1,0,0,,1,,,61,127
72630,note_on,0,0,0,,10,,,81,127
72739,note_off,109,0,0,,1,,,61,127
72740,note_on,1,0,0,,4,,,64,127
72849,note_off,109,0,0,,4,,,64,127
72850,note_on,1,0,0,,10,,,69,127
72959,note_off,109,0,0,,10,,,69,127
72959,note_off,0,0,0,,10,,,81,127
72960,note_on,1,0,0,,2,,,62,127
72960,note_on,0,0,0,,2,,,86,127
73069,note_off,109,0,0,,2,,,62,127
73070,note_on,1,0,0,,6,,,66,127
73179,note_off,109,0,0,,6,,,66,127
73180,note_on,1,0,0,,10,,,69,127
73289,note_off,109,0,0,,10,,,69,127
73289,note_off,0,0,0,,2,,,86,127
73290,note_on,1,0,0,,10,,,57,127
73290,note_on,0,0,0,,10,,,45,127
73399,note_off,109,0,0,,10,,,57,127
73400,note_on,1,0,0,,4,,,64,127
73509,note_off,109,0,0,,4,,,64,127
73510,note_on,1,0,0,,10,,,69,127
73619,note_off,109,0,0,,10,,,69,127
73619,note_off,0,0,0,,10,,,45,127
73620,note_on,1,0,0,,2,,,62,127
73620,note_on,0,0,0,,2,,,38,127
73948,note_off,328,0,0,,2,,,38,127
73948,note_off,0,0,0,,2,,,62,127
73949,note_on,1,0,0,,7,,,67,127
73949,note_on,0,0,0,,2,,,50,127
74004,note_on,55,0,0,,6,,,66,127
74011,note_off,7,0,0,,7,,,67,127
74059,note_on,48,0,0,,7,,,67,127
74066,note_off,7,0,0,,6,,,66,127
74114,note_on,48,0,0,,6,,,66,127
74114,note_on,0,0,0,,12,,,59,127
74121,note_off,7,0,0,,7,,,67,127
74169,note_on,48,0,0,,4,,,64,127
74176,note_off,7,0,0,,6,,,66,127
74181,note_off,5,0,0,,2,,,50,127
74224,note_on,43,0,0,,6,,,66,127
74231,note_off,7,0,0,,4,,,64,127
74279,note_on,48,0,0,,10,,,69,127
74279,note_on,0,0,0,,4,,,52,127
74286,note_off,7,0,0,,6,,,66,127
74334,note_on,48,0,0,,7,,,67,127
74341,note_off,7,0,0,,10,,,69,127
74346,note_off,5,0,0,,12,,,59,127
74389,note_on,43,0,0,,10,,,69,127
74396,note_off,7,0,0,,7,,,67,127
74444,note_on,48,0,0,,7,,,67,127
74444,note_on,0,0,0,,1,,,61,127
74451,note_off,7,0,0,,10,,,69,127
74499,note_on,48,0,0,,6,,,66,127
74506,note_off,7,0,0,,7,,,67,127
74511,note_off,5,0,0,,4,,,52,127
74554,note_on,43,0,0,,7,,,67,127
74561,note_off,7,0,0,,6,,,66,127
74609,note_on,48,0,0,,12,,,71,127
74609,note_on,0,0,0,,6,,,54,127
74616,note_off,7,0,0,,7,,,67,127
74664,note_on,48,0,0,,10,,,69,127
74671,note_off,7,0,0,,12,,,71,127
74676,note_off,5,0,0,,1,,,61,127
74719,note_on,43,0,0,,12,,,71,127
74726,note_off,7,0,0,,10,,,69,127
74774,note_on,48,0,0,,10,,,69,127
74774,note_on,0,0,0,,2,,,62,127
74781,note_off,7,0,0,,12,,,71,127
74829,note_on,48,0,0,,7,,,67,127
74836,note_off,7,0,0,,10,,,69,127
74841,note_off,5,0,0,,6,,,54,127
74884,note_on,43,0,0,,10,,,69,127
74891,note_off,7,0,0,,7,,,67,127
74939,note_on,48,0,0,,1,,,73,127
74939,note_on,0,0,0,,7,,,55,127
74946,note_off,7,0,0,,10,,,69,127
74994,note_on,48,0,0,,12,,,71,127
75001,note_off,7,0,0,,1,,,73,127
75006,note_off,5,0,0,,2,,,62,127
75049,note_on,43,0,0,,1,,,73,127
75056,note_off,7,0,0,,12,,,71,127
75104,note_on,48,0,0,,12,,,71,127
75104,note_on,0,0,0,,4,,,64,127
75111,note_off,7,0,0,,1,,,73,127
75159,note_on,48,0,0,,10,,,69,127
75166,note_off,7,0,0,,12,,,71,127
75171,note_off,5,0,0,,7,,,55,127
75214,note_on,43,0,0,,12,,,71,127
75221,note_off,7,0,0,,10,,,69,127
75269,note_on,48,0,0,,2,,,74,127
75269,note_on,0,0,0,,10,,,57,127
75276,note_off,7,0,0,,12,,,71,127
75324,note_on,48,0,0,,1,,,73,127
75331,note_off,7,0,0,,2,,,74,127
75336,note_off,5,0,0,,4,,,64,127
75379,note_on,43,0,0,,2,,,74,127
75386,note_off,7,0,0,,1,,,73,127
75434,note_on,48,0,0,,1,,,73,127
75434,note_on,0,0,0,,6,,,66,127
75441,note_off,7,0,0,,2,,,74,127
75489,note_on,48,0,0,,12,,,71,127
75496,note_off,7,0,0,,1,,,73,127
75501,note_off,5,0,0,,10,,,57,127
75544,note_on,43,0,0,,1,,,73,127
75551,note_off,7,0,0,,12,,,71,127
75599,note_on,48,0,0,,4,,,76,127
75599,note_on,0,0,0,,12,,,59,127
75606,note_off,7,0,0,,1,,,73,127
75654,note_on,48,0,0,,2,,,74,127
75661,note_off,7,0,0,,4,,,76,127
75666,note_off,5,0,0,,6,,,66,127
75709,note_on,43,0,0,,4,,,76,127
75716,note_off,7,0,0,,2,,,74,127
75764,note_on,48,0,0,,2,,,74,127
75764,note_on,0,0,0,,7,,,67,127
75771,note_off,7,0,0,,4,,,76,127
75819,note_on,48,0,0,,1,,,73,127
75826,note_off,7,0,0,,2,,,74,127
75831,note_off,5,0,0,,12,,,59,127
75874,note_on,43,0,0,,2,,,74,127
75881,note_off,7,0,0,,1,,,73,127
75929,note_on,48,0,0,,6,,,78,127
75929,note_on,0,0,0,,1,,,61,127
75936,note_off,7,0,0,,2,,,74,127
75984,note_on,48,0,0,,4,,,76,127
75991,note_off,7,0,0,,6,,,78,127
75996,note_off,5,0,0,,7,,,67,127
76039,note_on,43,0,0,,6,,,78,127
76046,note_off,7,0,0,,4,,,76,127
76094,note_on,48,0,0,,4,,,76,127
76094,note_on,0,0,0,,10,,,69,127
76101,note_off,7,0,0,,6,,,78,127
76149,note_on,48,0,0,,2,,,74,127
76156,note_off,7,0,0,,4,,,76,127
76161,note_off,5,0,0,,1,,,61,127
76204,note_on,43,0,0,,4,,,76,127
76211,note_off,7,0,0,,2,,,74,127
76259,note_on,48,0,0,,7,,,79,127
76259,note_on,0,0,0,,2,,,62,127
76266,note_off,7,0,0,,4,,,76,127
76314,note_on,48,0,0,,6,,,78,127
76321,note_off,7,0,0,,7,,,79,127
76326,note_off,5,0,0,,10,,,69,127
76369,note_on,43,0,0,,7,,,79,127
76376,note_off,7,0,0,,6,,,78,127
76424,note_on,48,0,0,,6,,,78,127
76424,note_on,0,0,0,,12,,,71,127
76431,note_off,7,0,0,,7,,,79,127
76479,note_on,48,0,0,,4,,,76,127
76486,note_off,7,0,0,,6,,,78,127
76491,note_off,5,0,0,,2,,,62,127
76534,note_on,43,0,0,,6,,,78,127
76541,note_off,7,0,0,,4,,,76,127
76589,note_on,48,0,0,,10,,,81,127
76589,note_on,0,0,0,,4,,,64,127
76596,note_off,7,0,0,,6,,,78,127
76644,note_on,48,0,0,,7,,,79,127
76651,note_off,7,0,0,,10,,,81,127
76656,note_off,5,0,0,,12,,,71,127
76699,note_on,43,0,0,,10,,,81,127
76706,note_off,7,0,0,,7,,,79,127
76754,note_on,48,0,0,,7,,,79,127
76754,note_on,0,0,0,,1,,,73,127
76761,note_off,7,0,0,,10,,,81,127
76809,note_on,48,0,0,,6,,,78,127
76816,note_off,7,0,0,,7,,,79,127
76821,note_off,5,0,0,,4,,,64,127
76864,note_on,43,0,0,,7,,,79,127
76871,note_off,7,0,0,,6,,,78,127
76919,note_on,48,0,0,,12,,,83,127
76919,note_on,0,0,0,,6,,,66,127
76926,note_off,7,0,0,,7,,,79,127
76974,note_on,48,0,0,,10,,,81,127
76981,note_off,7,0,0,,12,,,83,127
76986,note_off,5,0,0,,1,,,73,127
77029,note_on,43,0,0,,12,,,83,127
77036,note_off,7,0,0,,10,,,81,127
77084,note_on,48,0,0,,10,,,81,127
77084,note_on,0,0,0,,2,,,74,127
77091,note_off,7,0,0,,12,,,83,127
77139,note_on,48,0,0,,7,,,79,127
77146,note_off,7,0,0,,10,,,81,127
77151,note_off,5,0,0,,6,,,66,127
77194,note_on,43,0,0,,10,,,81,127
77201,note_off,7,0,0,,7,,,79,127
77249,note_on,48,0,0,,12,,,83,127
77249,note_on,0,0,0,,7,,,67,127
77256,note_off,7,0,0,,10,,,81,127
77316,note_off,60,0,0,,2,,,74,127
77412,note_off,96,0,0,,7,,,67,127
77413,note_off,1,0,0,,12,,,83,127
77414,note_on,1,0,0,,1,,,85,127
77414,note_on,0,0,0,,10,,,69,127
77577,note_off,163,0,0,,10,,,69,127
77578,note_off,1,0,0,,1,,,85,127
77579,note_on,1,0,0,,2,,,86,127
77579,note_on,0,0,0,,12,,,71,127
77660,note_off,81,0,0,,2,,,86,127
77661,note_on,1,0,0,,1,,,85,127
77742,note_off,81,0,0,,1,,,85,127
77743,note_on,1,0,0,,12,,,83,127
77824,note_off,81,0,0,,12,,,83,127
77825,note_on,1,0,0,,10,,,81,127
77906,note_off,81,0,0,,10,,,81,127
77906,note_off,0,0,0,,12,,,71,127
77907,note_on,1,0,0,,7,,,79,127
77907,note_on,0,0,0,,7,,,67,127
77988,note_off,81,0,0,,7,,,79,127
77989,note_on,1,0,0,,6,,,78,127
78070,note_off,81,0,0,,6,,,78,127
78071,note_on,1,0,0,,4,,,76,127
78152,note_off,81,0,0,,4,,,76,127
78153,note_on,1,0,0,,2,,,74,127
78234,note_off,81,0,0,,2,,,74,127
78234,note_off,0,0,0,,7,,,67,127
78235,note_on,1,0,0,,4,,,76,127
78235,note_on,0,0,0,,10,,,69,127
78316,note_off,81,0,0,,4,,,76,127
78317,note_on,1,0,0,,10,,,81,127
78398,note_off,81,0,0,,10,,,81,127
78399,note_on,1,0,0,,7,,,79,127
78480,note_off,81,0,0,,7,,,79,127
78481,note_on,1,0,0,,6,,,78,127
78562,note_off,81,0,0,,6,,,78,127
78562,note_off,0,0,0,,10,,,69,127
78563,note_on,1,0,0,,4,,,76,127
78563,note_on,0,0,0,,10,,,57,127
78644,note_off,81,0,0,,4,,,76,127
78645,note_on,1,0,0,,2,,,74,127
78726,note_off,81,0,0,,2,,,74,127
78727,note_on,1,0,0,,1,,,73,127
78808,note_off,81,0,0,,1,,,73,127
78809,note_on,1,0,0,,12,,,71,127
78890,note_off,81,0,0,,12,,,71,127
78891,note_on,1,0,0,,12,,,71,127
78946,note_on,55,0,0,,10,,,69,127
78953,note_off,7,0,0,,12,,,71,127
79001,note_on,48,0,0,,12,,,71,127
79008,note_off,7,0,0,,10,,,69,127
79056,note_on,48,0,0,,10,,,69,127
79063,note_off,7,0,0,,12,,,71,127
79111,note_on,48,0,0,,12,,,71,127
79118,note_off,7,0,0,,10,,,69,127
79166,note_on,48,0,0,,10,,,69,127
79173,note_off,7,0,0,,12,,,71,127
79220,note_off,47,0,0,,10,,,57,127
79221,note_on,1,0,0,,12,,,71,127
79221,note_on,0,0,0,,6,,,54,127
79228,note_off,7,0,0,,10,,,69,127
79276,note_on,48,0,0,,10,,,69,127
79283,note_off,7,0,0,,12,,,71,127
79331,note_on,48,0,0,,12,,,71,127
79338,note_off,7,0,0,,10,,,69,127
79386,note_on,48,0,0,,10,,,69,127
79386,note_on,0,0,0,,2,,,62,127
79393,note_off,7,0,0,,12,,,71,127
79441,note_on,48,0,0,,7,,,67,127
79448,note_off,7,0,0,,10,,,69,127
79453,note_off,5,0,0,,6,,,54,127
79496,note_on,43,0,0,,10,,,69,127
79503,note_off,7,0,0,,7,,,67,127
79551,note_on,48,0,0,,1,,,73,127
79551,note_on,0,0,0,,7,,,55,127
79558,note_off,7,0,0,,10,,,69,127
79606,note_on,48,0,0,,12,,,71,127
79613,note_off,7,0,0,,1,,,73,127
79618,note_off,5,0,0,,2,,,62,127
79661,note_on,43,0,0,,1,,,73,127
79668,note_off,7,0,0,,12,,,71,127
79716,note_on,48,0,0,,12,,,71,127
79716,note_on,0,0,0,,4,,,64,127
79723,note_off,7,0,0,,1,,,73,127
79771,note_on,48,0,0,,10,,,69,127
79778,note_off,7,0,0,,12,,,71,127
79783,note_off,5,0,0,,7,,,55,127
79826,note_on,43,0,0,,12,,,71,127
79833,note_off,7,0,0,,10,,,69,127
79881,note_on,48,0,0,,2,,,74,127
79881,note_on,0,0,0,,10,,,57,127
79888,note_off,7,0,0,,12,,,71,127
79936,note_on,48,0,0,,1,,,73,127
79943,note_off,7,0,0,,2,,,74,127
79948,note_off,5,0,0,,4,,,64,127
79991,note_on,43,0,0,,2,,,74,127
79998,note_off,7,0,0,,1,,,73,127
80046,note_on,48,0,0,,1,,,73,127
80046,note_on,0,0,0,,6,,,66,127
80053,note_off,7,0,0,,2,,,74,127
80101,note_on,48,0,0,,12,,,71,127
80108,note_off,7,0,0,,1,,,73,127
80113,note_off,5,0,0,,10,,,57,127
80156,note_on,43,0,0,,1,,,73,127
80163,note_off,7,0,0,,12,,,71,127
80211,note_on,48,0,0,,4,,,76,127
80211,note_on,0,0,0,,12,,,59,127
80218,note_off,7,0,0,,1,,,73,127
80266,note_on,48,0,0,,2,,,74,127
80273,note_off,7,0,0,,4,,,76,127
80278,note_off,5,0,0,,6,,,66,127
80321,note_on,43,0,0,,4,,,76,127
80328,note_off,7,0,0,,2,,,74,127
80376,note_on,48,0,0,,2,,,74,127
80376,note_on,0,0,0,,7,,,67,127
80383,note_off,7,0,0,,4,,,76,127
80431,note_on,48,0,0,,1,,,73,127
80438,note_off,7,0,0,,2,,,74,127
80443,note_off,5,0,0,,12,,,59,127
80486,note_on,43,0,0,,2,,,74,127
80493,note_off,7,0,0,,1,,,73,127
80541,note_on,48,0,0,,6,,,78,127
80541,note_on,0,0,0,,1,,,61,127
80548,note_off,7,0,0,,2,,,74,127
80596,note_on,48,0,0,,4,,,76,127
80603,note_off,7,0,0,,6,,,78,127
80608,note_off,5,0,0,,7,,,67,127
80651,note_on,43,0,0,,6,,,78,127
80658,note_off,7,0,0,,4,,,76,127
80706,note_on,48,0,0,,4,,,76,127
80706,note_on,0,0,0,,10,,,69,127
80713,note_off,7,0,0,,6,,,78,127
80761,note_on,48,0,0,,2,,,74,127
80768,note_off,7,0,0,,4,,,76,127
80773,note_off,5,0,0,,1,,,61,127
80816,note_on,43,0,0,,4,,,76,127
80823,note_off,7,0,0,,2,,,74,127
80871,note_on,48,0,0,,7,,,79,127
80871,note_on,0,0,0,,2,,,62,127
80878,note_off,7,0,0,,4,,,76,127
80926,note_on,48,0,0,,6,,,78,127
80933,note_off,7,0,0,,7,,,79,127
80938,note_off,5,0,0,,10,,,69,127
80981,note_on,43,0,0,,7,,,79,127
80988,note_off,7,0,0,,6,,,78,127
81036,note_on,48,0,0,,6,,,78,127
81036,note_on,0,0,0,,12,,,71,127
81043,note_off,7,0,0,,7,,,79,127
81091,note_on,48,0,0,,4,,,76,127
81098,note_off,7,0,0,,6,,,78,127
81103,note_off,5,0,0,,2,,,62,127
81146,note_on,43,0,0,,6,,,78,127
81153,note_off,7,0,0,,4,,,76,127
81201,note_on,48,0,0,,10,,,81,127
81201,note_on,0,0,0,,4,,,64,127
81208,note_off,7,0,0,,6,,,78,127
81256,note_on,48,0,0,,7,,,79,127
81263,note_off,7,0,0,,10,,,81,127
81268,note_off,5,0,0,,12,,,71,127
81311,note_on,43,0,0,,10,,,81,127
81318,note_off,7,0,0,,7,,,79,127
81366,note_on,48,0,0,,7,,,79,127
81366,note_on,0,0,0,,1,,,73,127
81373,note_off,7,0,0,,10,,,81,127
81421,note_on,48,0,0,,6,,,78,127
81428,note_off,7,0,0,,7,,,79,127
81433,note_off,5,0,0,,4,,,64,127
81476,note_on,43,0,0,,7,,,79,127
81483,note_off,7,0,0,,6,,,78,127
81531,note_on,48,0,0,,12,,,83,127
81531,note_on,0,0,0,,6,,,66,127
81538,note_off,7,0,0,,7,,,79,127
81586,note_on,48,0,0,,10,,,81,127
81593,note_off,7,0,0,,12,,,83,127
81598,note_off,5,0,0,,1,,,73,127
81641,note_on,43,0,0,,12,,,83,127
81648,note_off,7,0,0,,10,,,81,127
81696,note_on,48,0,0,,10,,,81,127
81696,note_on,0,0,0,,2,,,74,127
81703,note_off,7,0,0,,12,,,83,127
81751,note_on,48,0,0,,7,,,79,127
81758,note_off,7,0,0,,10,,,81,127
81763,note_off,5,0,0,,6,,,66,127
81806,note_on,43,0,0,,10,,,81,127
81813,note_off,7,0,0,,7,,,79,127
81861,note_on,48,0,0,,12,,,83,127
81861,note_on,0,0,0,,7,,,67,127
81868,note_off,7,0,0,,10,,,81,127
81928,note_off,60,0,0,,2,,,74,127
82024,note_off,96,0,0,,7,,,67,127
82025,note_off,1,0,0,,12,,,83,127
82026,note_on,1,0,0,,1,,,85,127
82026,note_on,0,0,0,,10,,,69,127
82189,note_off,163,0,0,,10,,,69,127
82190,note_off,1,0,0,,1,,,85,127
82191,note_on,1,0,0,,2,,,86,127
82191,note_on,0,0,0,,12,,,71,127
82272,note_off,81,0,0,,2,,,86,127
82273,note_on,1,0,0,,1,,,85,127
82354,note_off,81,0,0,,1,,,85,127
82355,note_on,1,0,0,,12,,,83,127
82436,note_off,81,0,0,,12,,,83,127
82437,note_on,1,0,0,,10,,,81,127
82518,note_off,81,0,0,,10,,,81,127
82518,note_off,0,0,0,,12,,,71,127
82519,note_on,1,0,0,,7,,,79,127
82519,note_on,0,0,0,,7,,,67,127
82600,note_off,81,0,0,,7,,,79,127
82601,note_on,1,0,0,,6,,,78,127
82682,note_off,81,0,0,,6,,,78,127
82683,note_on,1,0,0,,4,,,76,127
82764,note_off,81,0,0,,4,,,76,127
82765,note_on,1,0,0,,2,,,74,127
82846,note_off,81,0,0,,2,,,74,127
82846,note_off,0,0,0,,7,,,67,127
82847,note_on,1,0,0,,6,,,78,127
82847,note_on,0,0,0,,10,,,69,127
82902,note_on,55,0,0,,4,,,76,127
82909,note_off,7,0,0,,6,,,78,127
82957,note_on,48,0,0,,6,,,78,127
82964,note_off,7,0,0,,4,,,76,127
83012,note_on,48,0,0,,4,,,76,127
83019,note_off,7,0,0,,6,,,78,127
83067,note_on,48,0,0,,6,,,78,127
83074,note_off,7,0,0,,4,,,76,127
83122,note_on,48,0,0,,4,,,76,127
83129,note_off,7,0,0,,6,,,78,127
83176,note_off,47,0,0,,10,,,69,127
83177,note_on,1,0,0,,6,,,78,127
83177,note_on,0,0,0,,10,,,57,127
83184,note_off,7,0,0,,4,,,76,127
83232,note_on,48,0,0,,4,,,76,127
83239,note_off,7,0,0,,6,,,78,127
83287,note_on,48,0,0,,6,,,78,127
83294,note_off,7,0,0,,4,,,76,127
83342,note_on,48,0,0,,4,,,76,127
83349,note_off,7,0,0,,6,,,78,127
83397,note_on,48,0,0,,2,,,74,127
83404,note_off,7,0,0,,4,,,76,127
83452,note_on,48,0,0,,4,,,76,127
83459,note_off,7,0,0,,2,,,74,127
83506,note_off,47,0,0,,10,,,57,127
83507,note_on,1,0,0,,2,,,74,127
83507,note_on,0,0,0,,2,,,50,127
83514,note_off,7,0,0,,4,,,76,127
83835,note_off,321,0,0,,2,,,50,127
83835,note_off,0,0,0,,2,,,74,127
83836,note_on,1,0,0,,6,,,78,127
83836,note_on,0,0,0,,2,,,86,127
83945,note_off,109,0,0,,6,,,78,127
83946,note_on,1,0,0,,2,,,74,127
84055,note_off,109,0,0,,2,,,74,127
84056,note_on,1,0,0,,7,,,67,127
84165,note_off,109,0,0,,7,,,67,127
84165,note_off,0,0,0,,2,,,86,127
84166,note_on,1,0,0,,7,,,79,127
84166,note_on,0,0,0,,7,,,43,127
84275,note_off,109,0,0,,7,,,79,127
84276,note_on,1,0,0,,2,,,74,127
84385,note_off,109,0,0,,2,,,74,127
84386,note_on,1,0,0,,10,,,69,127
84495,note_off,109,0,0,,10,,,69,127
84495,note_off,0,0,0,,7,,,43,127
84496,note_on,1,0,0,,4,,,76,127
84496,note_on,0,0,0,,10,,,45,127
84605,note_off,109,0,0,,4,,,76,127
84606,note_on,1,0,0,,1,,,73,127
84715,note_off,109,0,0,,1,,,73,127
84716,note_on,1,0,0,,10,,,69,127
84825,note_off,109,0,0,,10,,,69,127
84825,note_off,0,0,0,,10,,,45,127
84826,note_on,1,0,0,,6,,,78,127
84826,note_on,0,0,0,,2,,,38,127
84935,note_off,109,0,0,,6,,,78,127
84936,note_on,1,0,0,,2,,,74,127
85045,note_off,109,0,0,,2,,,74,127
85046,note_on,1,0,0,,10,,,69,127
85155,note_off,109,0,0,,10,,,69,127
85155,note_off,0,0,0,,2,,,38,127
85156,note_on,1,0,0,,6,,,54,127
85156,note_on,0,0,0,,2,,,86,127
85265,note_off,109,0,0,,6,,,54,127
85266,note_on,1,0,0,,10,,,57,127
85375,note_off,109,0,0,,10,,,57,127
85376,note_on,1,0,0,,2,,,62,127
85485,note_off,109,0,0,,2,,,62,127
85485,note_off,0,0,0,,2,,,86,127
85486,note_on,1,0,0,,7,,,55,127
85486,note_on,0,0,0,,7,,,43,127
85595,note_off,109,0,0,,7,,,55,127
85596,note_on,1,0,0,,12,,,59,127
85705,note_off,109,0,0,,12,,,59,127
85706,note_on,1,0,0,,2,,,62,127
85815,note_off,109,0,0,,2,,,62,127
85815,note_off,0,0,0,,7,,,43,127
85816,note_on,1,0,0,,10,,,57,127
85816,note_on,0,0,0,,10,,,45,127
85925,note_off,109,0,0,,10,,,57,127
85926,note_on,1,0,0,,1,,,61,127
86035,note_off,109,0,0,,1,,,61,127
86036,note_on,1,0,0,,4,,,64,127
86145,note_off,109,0,0,,4,,,64,127
86145,note_off,0,0,0,,10,,,45,127
86146,note_on,1,0,0,,2,,,50,127
86146,note_on,0,0,0,,2,,,38,127
86474,note_off,328,0,0,,2,,,38,127
86474,note_off,0,0,0,,2,,,50,127
86475,note_on,1,0,0,,6,,,78,127
86475,note_on,0,0,0,,2,,,86,127
86584,note_off,109,0,0,,6,,,78,127
86585,note_on,1,0,0,,2,,,74,127
86694,note_off,109,0,0,,2,,,74,127
86695,note_on,1,0,0,,10,,,69,127
86804,note_off,109,0,0,,10,,,69,127
86804,note_off,0,0,0,,2,,,86,127
86805,note_on,1,0,0,,7,,,79,127
86805,note_on,0,0,0,,7,,,43,127
86914,note_off,109,0,0,,7,,,79,127
86915,note_on,1,0,0,,2,,,74,127
87024,note_off,109,0,0,,2,,,74,127
87025,note_on,1,0,0,,10,,,69,127
87134,note_off,109,0,0,,10,,,69,127
87134,note_off,0,0,0,,7,,,43,127
87135,note_on,1,0,0,,4,,,76,127
87135,note_on,0,0,0,,10,,,45,127
87244,note_off,109,0,0,,4,,,76,127
87245,note_on,1,0,0,,1,,,73,127
87354,note_off,109,0,0,,1,,,73,127
87355,note_on,1,0,0,,10,,,69,127
87464,note_off,109,0,0,,10,,,69,127
87464,note_off,0,0,0,,10,,,45,127
87465,note_on,1,0,0,,6,,,78,127
87465,note_on,0,0,0,,2,,,38,127
87574,note_off,109,0,0,,6,,,78,127
87575,note_on,1,0,0,,7,,,79,127
87684,note_off,109,0,0,,7,,,79,127
87685,note_on,1,0,0,,10,,,81,127
87794,note_off,109,0,0,,10,,,81,127
87794,note_off,0,0,0,,2,,,38,127
87795,note_on,1,0,0,,12,,,83,127
87795,note_on,0,0,0,,7,,,67,127
87904,note_off,109,0,0,,12,,,83,127
87905,note_on,1,0,0,,10,,,81,127
88014,note_off,109,0,0,,10,,,81,127
88015,note_on,1,0,0,,7,,,79,127
88124,note_off,109,0,0,,7,,,79,127
88124,note_off,0,0,0,,7,,,67,127
88125,note_on,1,0,0,,6,,,78,127
88125,note_on,0,0,0,,10,,,69,127
88234,note_off,109,0,0,,6,,,78,127
88235,note_on,1,0,0,,7,,,79,127
88344,note_off,109,0,0,,7,,,79,127
88345,note_on,1,0,0,,4,,,76,127
88454,note_off,109,0,0,,4,,,76,127
88454,note_off,0,0,0,,10,,,69,127
88455,note_on,1,0,0,,2,,,74,127
88455,note_on,0,0,0,,10,,,57,127
88564,note_off,109,0,0,,2,,,74,127
88565,note_on,1,0,0,,4,,,76,127
88674,note_off,109,0,0,,4,,,76,127
88675,note_on,1,0,0,,1,,,73,127
88784,note_off,109,0,0,,1,,,73,127
88784,note_off,0,0,0,,10,,,57,127
88785,note_on,1,0,0,,2,,,74,127
88785,note_on,0,0,0,,2,,,62,127
88894,note_off,109,0,0,,2,,,74,127
88895,note_on,1,0,0,,1,,,73,127
89004,note_off,109,0,0,,1,,,73,127
89005,note_on,1,0,0,,12,,,71,127
89114,note_off,109,0,0,,12,,,71,127
89114,note_off,0,0,0,,2,,,62,127
89115,note_on,1,0,0,,10,,,69,127
89115,note_on,0,0,0,,7,,,55,127
89224,note_off,109,0,0,,10,,,69,127
89225,note_on,1,0,0,,12,,,71,127
89334,note_off,109,0,0,,12,,,71,127
89335,note_on,1,0,0,,7,,,67,127
89444,note_off,109,0,0,,7,,,67,127
89444,note_off,0,0,0,,7,,,55,127
89445,note_on,1,0,0,,6,,,66,127
89445,note_on,0,0,0,,10,,,57,127
89554,note_off,109,0,0,,6,,,66,127
89555,note_on,1,0,0,,7,,,67,127
89664,note_off,109,0,0,,7,,,67,127
89665,note_on,1,0,0,,4,,,64,127
89774,note_off,109,0,0,,4,,,64,127
89774,note_off,0,0,0,,10,,,57,127
89775,note_on,1,0,0,,2,,,62,127
89775,note_on,0,0,0,,10,,,45,127
89884,note_off,109,0,0,,2,,,62,127
89885,note_on,1,0,0,,4,,,64,127
89994,note_off,109,0,0,,4,,,64,127
89995,note_on,1,0,0,,1,,,61,127
90104,note_off,109,0,0,,1,,,61,127
90104,note_off,0,0,0,,10,,,45,127
90105,note_on,1,0,0,,2,,,62,127
90105,note_on,0,0,0,,2,,,38,127
91476,note_off,1371,0,0,,2,,,38,127
91476,note_off,0,0,0,,2,,,62,127
92160,end_of_track,684,1,0,,,,,,
