tick,type,time,meta,track,program,channel,pitch,tempo,note,velocity
0,copyright,0,1,0,,,,,,
0,program_change,0,0,0,6,0,,,,
0,pitchwheel,0,0,0,,0,0,,,
0,program_change,0,0,0,6,1,,,,
0,pitchwheel,0,0,0,,1,-590,,,
0,program_change,0,0,0,6,2,,,,
0,pitchwheel,0,0,0,,2,-272,,,
0,program_change,0,0,0,6,3,,,,
0,pitchwheel,0,0,0,,3,-353,,,
0,program_change,0,0,0,6,4,,,,
0,pitchwheel,0,0,0,,4,-560,,,
0,program_change,0,0,0,6,5,,,,
0,pitchwheel,0,0,0,,5,-80,,,
0,program_change,0,0,0,6,6,,,,
0,pitchwheel,0,0,0,,6,-625,,,
0,program_change,0,0,0,6,7,,,,
0,pitchwheel,0,0,0,,7,-130,,,
0,program_change,0,0,0,6,8,,,,
0,pitchwheel,0,0,0,,8,-512,,,
0,program_change,0,0,0,6,10,,,,
0,pitchwheel,0,0,0,,10,-464,,,
0,program_change,0,0,0,6,11,,,,
0,pitchwheel,0,0,0,,11,-208,,,
0,program_change,0,0,0,6,12,,,,
0,pitchwheel,0,0,0,,12,-553,,,
0,set_tempo,0,1,0,,,,500000,,
110,note_on,110,0,0,,2,,,38,127
110,note_on,0,0,0,,10,,,45,127
110,note_on,0,0,0,,2,,,50,127
110,note_on,0,0,0,,2,,,62,127
326,note_off,216,0,0,,2,,,62,127
329,note_on,3,0,0,,2,,,62,127
545,note_off,216,0,0,,2,,,62,127
548,note_on,3,0,0,,6,,,66,127
764,note_off,216,0,0,,6,,,66,127
764,note_off,0,0,0,,2,,,50,127
764,note_off,0,0,0,,10,,,45,127
764,note_off,0,0,0,,2,,,38,127
767,note_on,3,0,0,,2,,,50,127
767,note_on,0,0,0,,10,,,45,127
767,note_on,0,0,0,,2,,,38,127
767,note_on,0,0,0,,2,,,62,127
983,note_off,216,0,0,,2,,,62,127
986,note_on,3,0,0,,10,,,69,127
1202,note_off,216,0,0,,10,,,69,127
1205,note_on,3,0,0,,6,,,66,127
1421,note_off,216,0,0,,6,,,66,127
1421,note_off,0,0,0,,2,,,38,127
1421,note_off,0,0,0,,10,,,45,127
1421,note_off,0,0,0,,2,,,50,127
1424,note_on,3,0,0,,2,,,38,127
1424,note_on,0,0,0,,2,,,50,127
1424,note_on,0,0,0,,10,,,45,127
1424,note_on,0,0,0,,2,,,62,127
1640,note_off,216,0,0,,2,,,62,127
1643,note_on,3,0,0,,2,,,74,127
1859,note_off,216,0,0,,2,,,74,127
1862,note_on,3,0,0,,10,,,69,127
2078,note_off,216,0,0,,10,,,69,127
2078,note_off,0,0,0,,10,,,45,127
2078,note_off,0,0,0,,2,,,50,127
2078,note_off,0,0,0,,2,,,38,127
2081,note_on,3,0,0,,2,,,38,127
2081,note_on,0,0,0,,2,,,50,127
2081,note_on,0,0,0,,10,,,45,127
2081,note_on,0,0,0,,2,,,62,127
2297,note_off,216,0,0,,2,,,62,127
2300,note_on,3,0,0,,6,,,78,127
2516,note_off,216,0,0,,6,,,78,127
2519,note_on,3,0,0,,2,,,74,127
2735,note_off,216,0,0,,2,,,74,127
2735,note_off,0,0,0,,10,,,45,127
2735,note_off,0,0,0,,2,,,50,127
2735,note_off,0,0,0,,2,,,38,127
2738,note_on,3,0,0,,2,,,38,127
2738,note_on,0,0,0,,2,,,50,127
2738,note_on,0,0,0,,10,,,45,127
2738,note_on,0,0,0,,2,,,62,127
2954,note_off,216,0,0,,2,,,62,127
2957,note_on,3,0,0,,2,,,86,127
3173,note_off,216,0,0,,2,,,86,127
3176,note_on,3,0,0,,10,,,81,127
3392,note_off,216,0,0,,10,,,81,127
3392,note_off,0,0,0,,10,,,45,127
3392,note_off,0,0,0,,2,,,50,127
3392,note_off,0,0,0,,2,,,38,127
3395,note_on,3,0,0,,2,,,38,127
3395,note_on,0,0,0,,10,,,45,127
3395,note_on,0,0,0,,2,,,50,127
3395,note_on,0,0,0,,2,,,62,127
3611,note_off,216,0,0,,2,,,62,127
3614,note_on,3,0,0,,2,,,74,127
3720,note_off,106,0,0,,2,,,74,127
3723,note_on,3,0,0,,4,,,76,127
3829,note_off,106,0,0,,4,,,76,127
3832,note_on,3,0,0,,6,,,78,127
3938,note_off,106,0,0,,6,,,78,127
3941,note_on,3,0,0,,7,,,79,127
4047,note_off,106,0,0,,7,,,79,127
4049,note_off,2,0,0,,2,,,50,127
4049,note_off,0,0,0,,10,,,45,127
4049,note_off,0,0,0,,2,,,38,127
4050,note_on,1,0,0,,10,,,81,127
4266,note_off,216,0,0,,10,,,81,127
4269,note_on,3,0,0,,10,,,45,127
4269,note_on,0,0,0,,10,,,69,127
4375,note_off,106,0,0,,10,,,45,127
4378,note_on,3,0,0,,12,,,47,127
4484,note_off,106,0,0,,12,,,47,127
4484,note_off,0,0,0,,10,,,69,127
4487,note_on,3,0,0,,1,,,49,127
4487,note_on,0,0,0,,10,,,81,127
4593,note_off,106,0,0,,1,,,49,127
4596,note_on,3,0,0,,2,,,50,127
4702,note_off,106,0,0,,2,,,50,127
4702,note_off,0,0,0,,10,,,81,127
4705,note_on,3,0,0,,4,,,52,127
4705,note_on,0,0,0,,7,,,79,127
4811,note_off,106,0,0,,4,,,52,127
4814,note_on,3,0,0,,6,,,54,127
4920,note_off,106,0,0,,6,,,54,127
4920,note_off,0,0,0,,7,,,79,127
4923,note_on,3,0,0,,7,,,55,127
4923,note_on,0,0,0,,7,,,67,127
5029,note_off,106,0,0,,7,,,55,127
5032,note_on,3,0,0,,10,,,57,127
5138,note_off,106,0,0,,10,,,57,127
5138,note_off,0,0,0,,7,,,67,127
5141,note_on,3,0,0,,12,,,59,127
5141,note_on,0,0,0,,7,,,79,127
5247,note_off,106,0,0,,12,,,59,127
5250,note_on,3,0,0,,1,,,61,127
5356,note_off,106,0,0,,1,,,61,127
5356,note_off,0,0,0,,7,,,79,127
5359,note_on,3,0,0,,2,,,62,127
5359,note_on,0,0,0,,6,,,78,127
5465,note_off,106,0,0,,2,,,62,127
5468,note_on,3,0,0,,4,,,64,127
5574,note_off,106,0,0,,4,,,64,127
5574,note_off,0,0,0,,6,,,78,127
5577,note_on,3,0,0,,6,,,66,127
5577,note_on,0,0,0,,2,,,74,127
5683,note_off,106,0,0,,6,,,66,127
5686,note_on,3,0,0,,7,,,67,127
5792,note_off,106,0,0,,7,,,67,127
5792,note_off,0,0,0,,2,,,74,127
5795,note_on,3,0,0,,10,,,69,127
5795,note_on,0,0,0,,4,,,76,127
5868,note_on,73,0,0,,12,,,71,127
5874,note_off,6,0,0,,10,,,69,127
5941,note_on,67,0,0,,1,,,73,127
5947,note_off,6,0,0,,12,,,71,127
6011,note_off,64,0,0,,4,,,76,127
6014,note_on,3,0,0,,2,,,74,127
6014,note_on,0,0,0,,6,,,78,127
6020,note_off,6,0,0,,1,,,73,127
6230,note_off,210,0,0,,6,,,78,127
6231,note_off,1,0,0,,2,,,74,127
6233,note_on,2,0,0,,2,,,74,127
6339,note_off,106,0,0,,2,,,74,127
6342,note_on,3,0,0,,4,,,76,127
6448,note_off,106,0,0,,4,,,76,127
6451,note_on,3,0,0,,6,,,78,127
6557,note_off,106,0,0,,6,,,78,127
6560,note_on,3,0,0,,7,,,79,127
6666,note_off,106,0,0,,7,,,79,127
6669,note_on,3,0,0,,10,,,81,127
6885,note_off,216,0,0,,10,,,81,127
6888,note_on,3,0,0,,10,,,45,127
6888,note_on,0,0,0,,10,,,69,127
6994,note_off,106,0,0,,10,,,45,127
6997,note_on,3,0,0,,12,,,47,127
7103,note_off,106,0,0,,12,,,47,127
7103,note_off,0,0,0,,10,,,69,127
7106,note_on,3,0,0,,1,,,49,127
7106,note_on,0,0,0,,10,,,81,127
7212,note_off,106,0,0,,1,,,49,127
7215,note_on,3,0,0,,2,,,50,127
7321,note_off,106,0,0,,2,,,50,127
7321,note_off,0,0,0,,10,,,81,127
7324,note_on,3,0,0,,4,,,52,127
7324,note_on,0,0,0,,7,,,79,127
7430,note_off,106,0,0,,4,,,52,127
7433,note_on,3,0,0,,6,,,54,127
7539,note_off,106,0,0,,6,,,54,127
7539,note_off,0,0,0,,7,,,79,127
7542,note_on,3,0,0,,7,,,55,127
7542,note_on,0,0,0,,7,,,67,127
7648,note_off,106,0,0,,7,,,55,127
7651,note_on,3,0,0,,10,,,57,127
7757,note_off,106,0,0,,10,,,57,127
7757,note_off,0,0,0,,7,,,67,127
7760,note_on,3,0,0,,12,,,59,127
7760,note_on,0,0,0,,7,,,79,127
7866,note_off,106,0,0,,12,,,59,127
7869,note_on,3,0,0,,1,,,61,127
7975,note_off,106,0,0,,1,,,61,127
7975,note_off,0,0,0,,7,,,79,127
7978,note_on,3,0,0,,2,,,62,127
7978,note_on,0,0,0,,6,,,78,127
8084,note_off,106,0,0,,2,,,62,127
8087,note_on,3,0,0,,4,,,64,127
8193,note_off,106,0,0,,4,,,64,127
8193,note_off,0,0,0,,6,,,78,127
8196,note_on,3,0,0,,6,,,66,127
8196,note_on,0,0,0,,2,,,74,127
8302,note_off,106,0,0,,6,,,66,127
8305,note_on,3,0,0,,7,,,67,127
8411,note_off,106,0,0,,7,,,67,127
8411,note_off,0,0,0,,2,,,74,127
8414,note_on,3,0,0,,10,,,69,127
8414,note_on,0,0,0,,4,,,76,127
8487,note_on,73,0,0,,12,,,71,127
8493,note_off,6,0,0,,10,,,69,127
8560,note_on,67,0,0,,1,,,73,127
8566,note_off,6,0,0,,12,,,71,127
8630,note_off,64,0,0,,4,,,76,127
8633,note_on,3,0,0,,2,,,74,127
8633,note_on,0,0,0,,6,,,78,127
8639,note_off,6,0,0,,1,,,73,127
8688,note_on,49,0,0,,7,,,79,127
8703,note_off,15,0,0,,6,,,78,127
8743,note_on,40,0,0,,10,,,81,127
8758,note_off,15,0,0,,7,,,79,127
8798,note_on,40,0,0,,12,,,83,127
8813,note_off,15,0,0,,10,,,81,127
8853,note_on,40,0,0,,10,,,81,127
8868,note_off,15,0,0,,12,,,83,127
9069,note_off,201,0,0,,2,,,74,127
9072,note_on,3,0,0,,6,,,66,127
9288,note_off,216,0,0,,6,,,66,127
9288,note_off,0,0,0,,10,,,81,127
9291,note_on,3,0,0,,7,,,67,127
9291,note_on,0,0,0,,7,,,79,127
9291,note_on,0,0,0,,4,,,76,127
9507,note_off,216,0,0,,4,,,76,127
9507,note_off,0,0,0,,7,,,79,127
9507,note_off,0,0,0,,7,,,67,127
9510,note_on,3,0,0,,10,,,69,127
9510,note_on,0,0,0,,2,,,74,127
9510,note_on,0,0,0,,6,,,78,127
9726,note_off,216,0,0,,6,,,78,127
9726,note_off,0,0,0,,2,,,74,127
9729,note_on,3,0,0,,10,,,57,127
9729,note_on,0,0,0,,1,,,73,127
9729,note_on,0,0,0,,4,,,76,127
9944,note_off,215,0,0,,10,,,69,127
9945,note_off,1,0,0,,4,,,76,127
9945,note_off,0,0,0,,1,,,73,127
9945,note_off,0,0,0,,10,,,57,127
9948,note_on,3,0,0,,2,,,62,127
9948,note_on,0,0,0,,6,,,78,127
10003,note_on,55,0,0,,7,,,79,127
10018,note_off,15,0,0,,6,,,78,127
10058,note_on,40,0,0,,10,,,81,127
10073,note_off,15,0,0,,7,,,79,127
10113,note_on,40,0,0,,12,,,83,127
10128,note_off,15,0,0,,10,,,81,127
10168,note_on,40,0,0,,6,,,78,127
10168,note_on,0,0,0,,10,,,81,127
10183,note_off,15,0,0,,12,,,83,127
10384,note_off,201,0,0,,2,,,62,127
10387,note_on,3,0,0,,6,,,54,127
10603,note_off,216,0,0,,6,,,54,127
10603,note_off,0,0,0,,10,,,81,127
10603,note_off,0,0,0,,6,,,78,127
10606,note_on,3,0,0,,7,,,55,127
10606,note_on,0,0,0,,4,,,76,127
10606,note_on,0,0,0,,7,,,79,127
10822,note_off,216,0,0,,7,,,79,127
10822,note_off,0,0,0,,4,,,76,127
10822,note_off,0,0,0,,7,,,55,127
10825,note_on,3,0,0,,10,,,57,127
10825,note_on,0,0,0,,2,,,74,127
10825,note_on,0,0,0,,6,,,78,127
11041,note_off,216,0,0,,6,,,78,127
11041,note_off,0,0,0,,2,,,74,127
11041,note_off,0,0,0,,10,,,57,127
11044,note_on,3,0,0,,10,,,45,127
11044,note_on,0,0,0,,1,,,73,127
11044,note_on,0,0,0,,4,,,76,127
11260,note_off,216,0,0,,4,,,76,127
11260,note_off,0,0,0,,1,,,73,127
11260,note_off,0,0,0,,10,,,45,127
11263,note_on,3,0,0,,2,,,50,127
11263,note_on,0,0,0,,2,,,74,127
11479,note_off,216,0,0,,2,,,74,127
11482,note_on,3,0,0,,2,,,38,127
11482,note_on,0,0,0,,2,,,62,127
11588,note_off,106,0,0,,2,,,62,127
11591,note_on,3,0,0,,2,,,62,127
11696,note_off,105,0,0,,2,,,50,127
11697,note_off,1,0,0,,2,,,62,127
11697,note_off,0,0,0,,2,,,38,127
11700,note_on,3,0,0,,2,,,50,127
11700,note_on,0,0,0,,2,,,62,127
11806,note_off,106,0,0,,2,,,62,127
11809,note_on,3,0,0,,2,,,62,127
11915,note_off,106,0,0,,2,,,62,127
11915,note_off,0,0,0,,2,,,50,127
11918,note_on,3,0,0,,7,,,55,127
11918,note_on,0,0,0,,2,,,62,127
11918,note_on,0,0,0,,12,,,59,127
12134,note_off,216,0,0,,2,,,62,127
12137,note_on,3,0,0,,7,,,43,127
12137,note_on,0,0,0,,2,,,62,127
12243,note_off,106,0,0,,2,,,62,127
12246,note_on,3,0,0,,2,,,62,127
12351,note_off,105,0,0,,7,,,55,127
12352,note_off,1,0,0,,2,,,62,127
12352,note_off,0,0,0,,7,,,43,127
12355,note_on,3,0,0,,7,,,55,127
12355,note_on,0,0,0,,2,,,62,127
12461,note_off,106,0,0,,2,,,62,127
12464,note_on,3,0,0,,6,,,66,127
12570,note_off,106,0,0,,6,,,66,127
12570,note_off,0,0,0,,7,,,55,127
12570,note_off,0,0,0,,12,,,59,127
12573,note_on,3,0,0,,6,,,54,127
12573,note_on,0,0,0,,2,,,62,127
12573,note_on,0,0,0,,10,,,57,127
12789,note_off,216,0,0,,2,,,62,127
12792,note_on,3,0,0,,6,,,42,127
12792,note_on,0,0,0,,2,,,62,127
12898,note_off,106,0,0,,2,,,62,127
12901,note_on,3,0,0,,2,,,62,127
13006,note_off,105,0,0,,6,,,54,127
13007,note_off,1,0,0,,2,,,62,127
13007,note_off,0,0,0,,6,,,42,127
13010,note_on,3,0,0,,6,,,54,127
13010,note_on,0,0,0,,2,,,62,127
13116,note_off,106,0,0,,2,,,62,127
13119,note_on,3,0,0,,6,,,66,127
13225,note_off,106,0,0,,6,,,66,127
13225,note_off,0,0,0,,6,,,54,127
13225,note_off,0,0,0,,10,,,57,127
13228,note_on,3,0,0,,4,,,52,127
13228,note_on,0,0,0,,2,,,62,127
13228,note_on,0,0,0,,7,,,55,127
13444,note_off,216,0,0,,2,,,62,127
13447,note_on,3,0,0,,4,,,40,127
13447,note_on,0,0,0,,2,,,62,127
13553,note_off,106,0,0,,2,,,62,127
13556,note_on,3,0,0,,2,,,62,127
13661,note_off,105,0,0,,4,,,52,127
13662,note_off,1,0,0,,2,,,62,127
13662,note_off,0,0,0,,4,,,40,127
13665,note_on,3,0,0,,4,,,52,127
13665,note_on,0,0,0,,2,,,62,127
13771,note_off,106,0,0,,2,,,62,127
13774,note_on,3,0,0,,6,,,66,127
13880,note_off,106,0,0,,6,,,66,127
13880,note_off,0,0,0,,4,,,52,127
13880,note_off,0,0,0,,7,,,55,127
13883,note_on,3,0,0,,2,,,50,127
13883,note_on,0,0,0,,2,,,62,127
13883,note_on,0,0,0,,6,,,54,127
14099,note_off,216,0,0,,2,,,62,127
14102,note_on,3,0,0,,2,,,38,127
14102,note_on,0,0,0,,2,,,62,127
14208,note_off,106,0,0,,2,,,62,127
14211,note_on,3,0,0,,2,,,62,127
14316,note_off,105,0,0,,2,,,50,127
14317,note_off,1,0,0,,2,,,62,127
14317,note_off,0,0,0,,2,,,38,127
14320,note_on,3,0,0,,2,,,50,127
14320,note_on,0,0,0,,2,,,62,127
14426,note_off,106,0,0,,2,,,62,127
14429,note_on,3,0,0,,6,,,66,127
14535,note_off,106,0,0,,6,,,66,127
14535,note_off,0,0,0,,2,,,50,127
14535,note_off,0,0,0,,6,,,54,127
14538,note_on,3,0,0,,7,,,55,127
14538,note_on,0,0,0,,2,,,62,127
14538,note_on,0,0,0,,12,,,59,127
14754,note_off,216,0,0,,2,,,62,127
14754,note_off,0,0,0,,7,,,55,127
14757,note_on,3,0,0,,7,,,43,127
14757,note_on,0,0,0,,2,,,62,127
14863,note_off,106,0,0,,2,,,62,127
14866,note_on,3,0,0,,2,,,62,127
14972,note_off,106,0,0,,2,,,62,127
14972,note_off,0,0,0,,7,,,43,127
14975,note_on,3,0,0,,7,,,55,127
14975,note_on,0,0,0,,2,,,62,127
15081,note_off,106,0,0,,2,,,62,127
15084,note_on,3,0,0,,6,,,66,127
15190,note_off,106,0,0,,6,,,66,127
15190,note_off,0,0,0,,7,,,55,127
15190,note_off,0,0,0,,12,,,59,127
15193,note_on,3,0,0,,6,,,54,127
15193,note_on,0,0,0,,10,,,57,127
15193,note_on,0,0,0,,2,,,62,127
15409,note_off,216,0,0,,2,,,62,127
15409,note_off,0,0,0,,6,,,54,127
15412,note_on,3,0,0,,6,,,42,127
15412,note_on,0,0,0,,2,,,62,127
15518,note_off,106,0,0,,2,,,62,127
15521,note_on,3,0,0,,2,,,62,127
15627,note_off,106,0,0,,2,,,62,127
15627,note_off,0,0,0,,6,,,42,127
15630,note_on,3,0,0,,6,,,54,127
15630,note_on,0,0,0,,2,,,62,127
15736,note_off,106,0,0,,2,,,62,127
15739,note_on,3,0,0,,6,,,66,127
15845,note_off,106,0,0,,6,,,66,127
15845,note_off,0,0,0,,6,,,54,127
15845,note_off,0,0,0,,10,,,57,127
15848,note_on,3,0,0,,4,,,52,127
15848,note_on,0,0,0,,7,,,55,127
15848,note_on,0,0,0,,2,,,62,127
16064,note_off,216,0,0,,2,,,62,127
16064,note_off,0,0,0,,4,,,52,127
16067,note_on,3,0,0,,4,,,40,127
16067,note_on,0,0,0,,2,,,62,127
16173,note_off,106,0,0,,2,,,62,127
16176,note_on,3,0,0,,2,,,62,127
16282,note_off,106,0,0,,2,,,62,127
16282,note_off,0,0,0,,4,,,40,127
16285,note_on,3,0,0,,4,,,52,127
16285,note_on,0,0,0,,2,,,62,127
16391,note_off,106,0,0,,2,,,62,127
16394,note_on,3,0,0,,6,,,66,127
16500,note_off,106,0,0,,6,,,66,127
16500,note_off,0,0,0,,4,,,52,127
16500,note_off,0,0,0,,7,,,55,127
16503,note_on,3,0,0,,2,,,50,127
16503,note_on,0,0,0,,2,,,62,127
16503,note_on,0,0,0,,6,,,54,127
16719,note_off,216,0,0,,2,,,62,127
16719,note_off,0,0,0,,2,,,50,127
16722,note_on,3,0,0,,2,,,38,127
16722,note_on,0,0,0,,2,,,62,127
16828,note_off,106,0,0,,2,,,62,127
16831,note_on,3,0,0,,2,,,62,127
16937,note_off,106,0,0,,2,,,62,127
16937,note_off,0,0,0,,2,,,38,127
16940,note_on,3,0,0,,2,,,50,127
16940,note_on,0,0,0,,2,,,62,127
17046,note_off,106,0,0,,2,,,62,127
17049,note_on,3,0,0,,6,,,66,127
17155,note_off,106,0,0,,6,,,66,127
17155,note_off,0,0,0,,2,,,50,127
17155,note_off,0,0,0,,6,,,54,127
17158,note_on,3,0,0,,6,,,42,127
17158,note_on,0,0,0,,10,,,57,127
17158,note_on,0,0,0,,2,,,62,127
17374,note_off,216,0,0,,2,,,62,127
17374,note_off,0,0,0,,6,,,42,127
17377,note_on,3,0,0,,2,,,50,127
17377,note_on,0,0,0,,2,,,62,127
17483,note_off,106,0,0,,2,,,62,127
17486,note_on,3,0,0,,2,,,62,127
17592,note_off,106,0,0,,2,,,62,127
17592,note_off,0,0,0,,2,,,50,127
17595,note_on,3,0,0,,6,,,42,127
17595,note_on,0,0,0,,2,,,62,127
17701,note_off,106,0,0,,2,,,62,127
17704,note_on,3,0,0,,6,,,66,127
17810,note_off,106,0,0,,6,,,66,127
17810,note_off,0,0,0,,6,,,42,127
17810,note_off,0,0,0,,10,,,57,127
17813,note_on,3,0,0,,4,,,40,127
17813,note_on,0,0,0,,10,,,57,127
17813,note_on,0,0,0,,2,,,62,127
17868,note_on,55,0,0,,8,,,56,127
17885,note_off,17,0,0,,10,,,57,127
17923,note_on,38,0,0,,10,,,57,127
17940,note_off,17,0,0,,8,,,56,127
17978,note_on,38,0,0,,8,,,56,127
17995,note_off,17,0,0,,10,,,57,127
18029,note_off,34,0,0,,4,,,40,127
18032,note_on,3,0,0,,4,,,52,127
18032,note_on,0,0,0,,10,,,57,127
18049,note_off,17,0,0,,8,,,56,127
18087,note_on,38,0,0,,8,,,56,127
18104,note_off,17,0,0,,10,,,57,127
18142,note_on,38,0,0,,10,,,57,127
18159,note_off,17,0,0,,8,,,56,127
18197,note_on,38,0,0,,8,,,56,127
18214,note_off,17,0,0,,10,,,57,127
18248,note_off,34,0,0,,4,,,52,127
18251,note_on,3,0,0,,6,,,42,127
18251,note_on,0,0,0,,12,,,59,127
18268,note_off,17,0,0,,8,,,56,127
18306,note_on,38,0,0,,10,,,57,127
18323,note_off,17,0,0,,12,,,59,127
18361,note_on,38,0,0,,12,,,59,127
18378,note_off,17,0,0,,10,,,57,127
18416,note_on,38,0,0,,10,,,57,127
18433,note_off,17,0,0,,12,,,59,127
18467,note_off,34,0,0,,6,,,42,127
18467,note_off,0,0,0,,2,,,62,127
18468,note_off,1,0,0,,10,,,57,127
18470,note_on,2,0,0,,4,,,40,127
18470,note_on,0,0,0,,10,,,57,127
18470,note_on,0,0,0,,2,,,62,127
18525,note_on,55,0,0,,8,,,56,127
18542,note_off,17,0,0,,10,,,57,127
18580,note_on,38,0,0,,10,,,57,127
18597,note_off,17,0,0,,8,,,56,127
18635,note_on,38,0,0,,8,,,56,127
18652,note_off,17,0,0,,10,,,57,127
18686,note_off,34,0,0,,4,,,40,127
18689,note_on,3,0,0,,4,,,52,127
18689,note_on,0,0,0,,10,,,57,127
18706,note_off,17,0,0,,8,,,56,127
18744,note_on,38,0,0,,8,,,56,127
18761,note_off,17,0,0,,10,,,57,127
18799,note_on,38,0,0,,10,,,57,127
18816,note_off,17,0,0,,8,,,56,127
18854,note_on,38,0,0,,8,,,56,127
18871,note_off,17,0,0,,10,,,57,127
18905,note_off,34,0,0,,4,,,52,127
18908,note_on,3,0,0,,6,,,42,127
18908,note_on,0,0,0,,12,,,59,127
18925,note_off,17,0,0,,8,,,56,127
18963,note_on,38,0,0,,10,,,57,127
18980,note_off,17,0,0,,12,,,59,127
19018,note_on,38,0,0,,12,,,59,127
19035,note_off,17,0,0,,10,,,57,127
19073,note_on,38,0,0,,10,,,57,127
19090,note_off,17,0,0,,12,,,59,127
19124,note_off,34,0,0,,6,,,42,127
19124,note_off,0,0,0,,2,,,62,127
19125,note_off,1,0,0,,10,,,57,127
19127,note_on,2,0,0,,4,,,40,127
19127,note_on,0,0,0,,10,,,57,127
19127,note_on,0,0,0,,2,,,62,127
19182,note_on,55,0,0,,8,,,56,127
19199,note_off,17,0,0,,10,,,57,127
19237,note_on,38,0,0,,10,,,57,127
19254,note_off,17,0,0,,8,,,56,127
19292,note_on,38,0,0,,8,,,56,127
19309,note_off,17,0,0,,10,,,57,127
19343,note_off,34,0,0,,4,,,40,127
19346,note_on,3,0,0,,4,,,52,127
19346,note_on,0,0,0,,10,,,57,127
19363,note_off,17,0,0,,8,,,56,127
19401,note_on,38,0,0,,8,,,56,127
19418,note_off,17,0,0,,10,,,57,127
19456,note_on,38,0,0,,10,,,57,127
19473,note_off,17,0,0,,8,,,56,127
19511,note_on,38,0,0,,8,,,56,127
19528,note_off,17,0,0,,10,,,57,127
19562,note_off,34,0,0,,4,,,52,127
19565,note_on,3,0,0,,6,,,42,127
19565,note_on,0,0,0,,12,,,59,127
19582,note_off,17,0,0,,8,,,56,127
19620,note_on,38,0,0,,10,,,57,127
19637,note_off,17,0,0,,12,,,59,127
19675,note_on,38,0,0,,12,,,59,127
19692,note_off,17,0,0,,10,,,57,127
19730,note_on,38,0,0,,10,,,57,127
19747,note_off,17,0,0,,12,,,59,127
19781,note_off,34,0,0,,6,,,42,127
19781,note_off,0,0,0,,2,,,62,127
19784,note_on,3,0,0,,4,,,40,127
19784,note_on,0,0,0,,8,,,56,127
19801,note_off,17,0,0,,10,,,57,127
19890,note_off,89,0,0,,8,,,56,127
19893,note_on,3,0,0,,4,,,52,127
19999,note_off,106,0,0,,4,,,52,127
20002,note_on,3,0,0,,12,,,59,127
20108,note_off,106,0,0,,12,,,59,127
20111,note_on,3,0,0,,8,,,56,127
20217,note_off,106,0,0,,8,,,56,127
20220,note_on,3,0,0,,2,,,62,127
20326,note_off,106,0,0,,2,,,62,127
20329,note_on,3,0,0,,12,,,59,127
20435,note_off,106,0,0,,12,,,59,127
20438,note_on,3,0,0,,8,,,68,127
20544,note_off,106,0,0,,8,,,68,127
20547,note_on,3,0,0,,2,,,62,127
20653,note_off,106,0,0,,2,,,62,127
20656,note_on,3,0,0,,12,,,71,127
20762,note_off,106,0,0,,12,,,71,127
20765,note_on,3,0,0,,8,,,68,127
20871,note_off,106,0,0,,8,,,68,127
20874,note_on,3,0,0,,2,,,74,127
20980,note_off,106,0,0,,2,,,74,127
20983,note_on,3,0,0,,12,,,71,127
21089,note_off,106,0,0,,12,,,71,127
21092,note_on,3,0,0,,8,,,80,127
21198,note_off,106,0,0,,8,,,80,127
21201,note_on,3,0,0,,2,,,74,127
21307,note_off,106,0,0,,2,,,74,127
21310,note_on,3,0,0,,12,,,83,127
21416,note_off,106,0,0,,12,,,83,127
21419,note_on,3,0,0,,8,,,80,127
21525,note_off,106,0,0,,8,,,80,127
21528,note_on,3,0,0,,2,,,86,127
21601,note_off,73,0,0,,4,,,40,127
21882,note_on,281,0,0,,1,,,85,127
21911,note_off,29,0,0,,2,,,86,127
21926,note_on,15,0,0,,12,,,83,127
21952,note_off,26,0,0,,1,,,85,127
21970,note_on,18,0,0,,10,,,81,127
21995,note_off,25,0,0,,12,,,83,127
22014,note_on,19,0,0,,8,,,80,127
22039,note_off,25,0,0,,10,,,81,127
22060,note_on,21,0,0,,6,,,78,127
22084,note_off,24,0,0,,8,,,80,127
22105,note_on,21,0,0,,4,,,76,127
22130,note_off,25,0,0,,6,,,78,127
22149,note_on,19,0,0,,2,,,74,127
22174,note_off,25,0,0,,4,,,76,127
22192,note_on,18,0,0,,1,,,73,127
22218,note_off,26,0,0,,2,,,74,127
22239,note_on,21,0,0,,12,,,71,127
22262,note_off,23,0,0,,1,,,73,127
22284,note_on,22,0,0,,10,,,69,127
22309,note_off,25,0,0,,12,,,71,127
22328,note_on,19,0,0,,8,,,68,127
22353,note_off,25,0,0,,10,,,69,127
22372,note_on,19,0,0,,6,,,66,127
22397,note_off,25,0,0,,8,,,68,127
22415,note_on,18,0,0,,4,,,64,127
22441,note_off,26,0,0,,6,,,66,127
22460,note_on,19,0,0,,2,,,62,127
22484,note_off,24,0,0,,4,,,64,127
22503,note_on,19,0,0,,1,,,61,127
22529,note_off,26,0,0,,2,,,62,127
22547,note_on,18,0,0,,12,,,59,127
22572,note_off,25,0,0,,1,,,61,127
22593,note_on,21,0,0,,10,,,57,127
22617,note_off,24,0,0,,12,,,59,127
22638,note_on,21,0,0,,8,,,56,127
22663,note_off,25,0,0,,10,,,57,127
22684,note_on,21,0,0,,6,,,54,127
22708,note_off,24,0,0,,8,,,56,127
22727,note_on,19,0,0,,4,,,52,127
22753,note_off,26,0,0,,6,,,54,127
22771,note_on,18,0,0,,2,,,50,127
22796,note_off,25,0,0,,4,,,52,127
22817,note_on,21,0,0,,1,,,49,127
22841,note_off,24,0,0,,2,,,50,127
22862,note_on,21,0,0,,12,,,47,127
22887,note_off,25,0,0,,1,,,49,127
22906,note_on,19,0,0,,10,,,45,127
22931,note_off,25,0,0,,12,,,47,127
22950,note_on,19,0,0,,8,,,44,127
22975,note_off,25,0,0,,10,,,45,127
22993,note_on,18,0,0,,6,,,42,127
23019,note_off,26,0,0,,8,,,44,127
23038,note_on,19,0,0,,4,,,40,127
23062,note_off,24,0,0,,6,,,42,127
23083,note_on,21,0,0,,6,,,42,127
23108,note_off,25,0,0,,4,,,40,127
23127,note_on,19,0,0,,4,,,40,127
23152,note_off,25,0,0,,6,,,42,127
23173,note_on,21,0,0,,6,,,42,127
23197,note_off,24,0,0,,4,,,40,127
23216,note_on,19,0,0,,4,,,40,127
23242,note_off,26,0,0,,6,,,42,127
23261,note_on,19,0,0,,6,,,42,127
23285,note_off,24,0,0,,4,,,40,127
23304,note_on,19,0,0,,4,,,40,127
23330,note_off,26,0,0,,6,,,42,127
23351,note_on,21,0,0,,6,,,42,127
23374,note_off,23,0,0,,4,,,40,127
23396,note_on,22,0,0,,4,,,40,127
23421,note_off,25,0,0,,6,,,42,127
23439,note_on,18,0,0,,6,,,42,127
23465,note_off,26,0,0,,4,,,40,127
23484,note_on,19,0,0,,4,,,40,127
23508,note_off,24,0,0,,6,,,42,127
23526,note_on,18,0,0,,6,,,42,127
23553,note_off,27,0,0,,4,,,40,127
23571,note_on,18,0,0,,4,,,40,127
23595,note_off,24,0,0,,6,,,42,127
23616,note_on,21,0,0,,6,,,42,127
23641,note_off,25,0,0,,4,,,40,127
23660,note_on,19,0,0,,4,,,40,127
23685,note_off,25,0,0,,6,,,42,127
25250,note_off,1565,0,0,,4,,,40,127
25579,note_on,329,0,0,,0,,,72,127
25579,note_on,0,0,0,,10,,,69,127
25795,note_off,216,0,0,,10,,,69,127
25795,note_off,0,0,0,,0,,,72,127
25798,note_on,3,0,0,,4,,,76,127
25798,note_on,0,0,0,,0,,,72,127
25798,note_on,0,0,0,,10,,,69,127
26014,note_off,216,0,0,,10,,,69,127
26014,note_off,0,0,0,,0,,,72,127
26017,note_on,3,0,0,,0,,,84,127
26017,note_on,0,0,0,,0,,,72,127
26017,note_on,0,0,0,,10,,,69,127
26233,note_off,216,0,0,,10,,,69,127
26233,note_off,0,0,0,,0,,,72,127
26234,note_off,1,0,0,,4,,,76,127
26236,note_on,2,0,0,,5,,,77,127
26236,note_on,0,0,0,,10,,,69,127
26236,note_on,0,0,0,,2,,,62,127
26452,note_off,216,0,0,,2,,,62,127
26452,note_off,0,0,0,,10,,,69,127
26452,note_off,0,0,0,,0,,,84,127
26455,note_on,3,0,0,,12,,,83,127
26455,note_on,0,0,0,,10,,,69,127
26455,note_on,0,0,0,,2,,,62,127
26671,note_off,216,0,0,,2,,,62,127
26671,note_off,0,0,0,,10,,,69,127
26673,note_off,2,0,0,,12,,,83,127
26674,note_on,1,0,0,,2,,,86,127
26674,note_on,0,0,0,,10,,,69,127
26674,note_on,0,0,0,,2,,,62,127
26890,note_off,216,0,0,,2,,,62,127
26890,note_off,0,0,0,,10,,,69,127
26890,note_off,0,0,0,,5,,,77,127
26893,note_on,3,0,0,,2,,,74,127
26893,note_on,0,0,0,,10,,,69,127
26893,note_on,0,0,0,,2,,,62,127
26893,note_on,0,0,0,,12,,,71,127
27109,note_off,216,0,0,,12,,,71,127
27109,note_off,0,0,0,,2,,,62,127
27109,note_off,0,0,0,,10,,,69,127
27109,note_off,0,0,0,,2,,,86,127
27112,note_on,3,0,0,,10,,,81,127
27112,note_on,0,0,0,,2,,,62,127
27112,note_on,0,0,0,,12,,,71,127
27112,note_on,0,0,0,,10,,,69,127
27328,note_off,216,0,0,,10,,,69,127
27328,note_off,0,0,0,,12,,,71,127
27328,note_off,0,0,0,,2,,,62,127
27330,note_off,2,0,0,,10,,,81,127
27331,note_on,1,0,0,,8,,,80,127
27331,note_on,0,0,0,,2,,,62,127
27331,note_on,0,0,0,,10,,,69,127
27331,note_on,0,0,0,,12,,,71,127
27547,note_off,216,0,0,,12,,,71,127
27547,note_off,0,0,0,,10,,,69,127
27547,note_off,0,0,0,,2,,,62,127
27547,note_off,0,0,0,,8,,,80,127
27547,note_off,0,0,0,,2,,,74,127
27550,note_on,3,0,0,,8,,,80,127
27550,note_on,0,0,0,,4,,,64,127
27550,note_on,0,0,0,,0,,,60,127
27550,note_on,0,0,0,,12,,,71,127
27766,note_off,216,0,0,,12,,,71,127
27766,note_off,0,0,0,,0,,,60,127
27766,note_off,0,0,0,,4,,,64,127
27766,note_off,0,0,0,,8,,,80,127
27769,note_on,3,0,0,,10,,,81,127
27769,note_on,0,0,0,,10,,,69,127
27769,note_on,0,0,0,,4,,,64,127
27769,note_on,0,0,0,,0,,,60,127
27985,note_off,216,0,0,,0,,,60,127
27985,note_off,0,0,0,,4,,,64,127
27985,note_off,0,0,0,,10,,,69,127
27985,note_off,0,0,0,,10,,,81,127
27988,note_on,3,0,0,,5,,,77,127
27988,note_on,0,0,0,,0,,,60,127
27988,note_on,0,0,0,,10,,,69,127
27988,note_on,0,0,0,,4,,,64,127
28204,note_off,216,0,0,,4,,,64,127
28204,note_off,0,0,0,,10,,,69,127
28204,note_off,0,0,0,,0,,,60,127
28204,note_off,0,0,0,,5,,,77,127
28207,note_on,3,0,0,,3,,,75,127
28207,note_on,0,0,0,,10,,,69,127
28207,note_on,0,0,0,,0,,,60,127
28423,note_off,216,0,0,,0,,,60,127
28423,note_off,0,0,0,,10,,,69,127
28423,note_off,0,0,0,,3,,,75,127
28426,note_on,3,0,0,,4,,,76,127
28426,note_on,0,0,0,,10,,,69,127
28426,note_on,0,0,0,,0,,,60,127
28642,note_off,216,0,0,,0,,,60,127
28642,note_off,0,0,0,,10,,,69,127
28645,note_on,3,0,0,,0,,,84,127
28645,note_on,0,0,0,,0,,,60,127
28645,note_on,0,0,0,,10,,,69,127
28860,note_off,215,0,0,,4,,,76,127
28861,note_off,1,0,0,,10,,,69,127
28861,note_off,0,0,0,,0,,,60,127
28864,note_on,3,0,0,,5,,,77,127
28864,note_on,0,0,0,,2,,,62,127
28864,note_on,0,0,0,,10,,,69,127
29080,note_off,216,0,0,,10,,,69,127
29080,note_off,0,0,0,,2,,,62,127
29080,note_off,0,0,0,,0,,,84,127
29083,note_on,3,0,0,,12,,,83,127
29083,note_on,0,0,0,,2,,,62,127
29083,note_on,0,0,0,,10,,,69,127
29299,note_off,216,0,0,,10,,,69,127
29299,note_off,0,0,0,,2,,,62,127
29299,note_off,0,0,0,,12,,,83,127
29302,note_on,3,0,0,,2,,,86,127
29302,note_on,0,0,0,,2,,,62,127
29302,note_on,0,0,0,,10,,,69,127
29518,note_off,216,0,0,,10,,,69,127
29518,note_off,0,0,0,,2,,,62,127
29518,note_off,0,0,0,,5,,,77,127
29521,note_on,3,0,0,,2,,,74,127
29521,note_on,0,0,0,,2,,,62,127
29521,note_on,0,0,0,,12,,,71,127
29521,note_on,0,0,0,,10,,,69,127
29737,note_off,216,0,0,,10,,,69,127
29737,note_off,0,0,0,,12,,,71,127
29737,note_off,0,0,0,,2,,,62,127
29737,note_off,0,0,0,,2,,,86,127
29740,note_on,3,0,0,,10,,,81,127
29740,note_on,0,0,0,,2,,,62,127
29740,note_on,0,0,0,,12,,,71,127
29740,note_on,0,0,0,,10,,,69,127
29956,note_off,216,0,0,,10,,,69,127
29956,note_off,0,0,0,,12,,,71,127
29956,note_off,0,0,0,,2,,,62,127
29956,note_off,0,0,0,,10,,,81,127
29959,note_on,3,0,0,,8,,,80,127
29959,note_on,0,0,0,,2,,,62,127
29959,note_on,0,0,0,,12,,,71,127
29959,note_on,0,0,0,,10,,,69,127
30175,note_off,216,0,0,,10,,,69,127
30175,note_off,0,0,0,,12,,,71,127
30175,note_off,0,0,0,,2,,,62,127
30175,note_off,0,0,0,,8,,,80,127
30175,note_off,0,0,0,,2,,,74,127
30178,note_on,3,0,0,,8,,,80,127
30178,note_on,0,0,0,,10,,,69,127
30178,note_on,0,0,0,,0,,,60,127
30394,note_off,216,0,0,,0,,,60,127
30394,note_off,0,0,0,,10,,,69,127
30394,note_off,0,0,0,,8,,,80,127
30397,note_on,3,0,0,,10,,,81,127
30397,note_on,0,0,0,,10,,,69,127
30397,note_on,0,0,0,,0,,,60,127
30613,note_off,216,0,0,,0,,,60,127
30613,note_off,0,0,0,,10,,,69,127
30613,note_off,0,0,0,,10,,,81,127
30616,note_on,3,0,0,,5,,,77,127
30616,note_on,0,0,0,,0,,,60,127
30616,note_on,0,0,0,,10,,,69,127
30832,note_off,216,0,0,,10,,,69,127
30832,note_off,0,0,0,,0,,,60,127
30832,note_off,0,0,0,,5,,,77,127
30835,note_on,3,0,0,,3,,,75,127
30835,note_on,0,0,0,,10,,,69,127
30835,note_on,0,0,0,,0,,,60,127
31051,note_off,216,0,0,,0,,,60,127
31051,note_off,0,0,0,,10,,,69,127
31051,note_off,0,0,0,,3,,,75,127
31054,note_on,3,0,0,,4,,,76,127
31054,note_on,0,0,0,,0,,,60,127
31054,note_on,0,0,0,,10,,,69,127
31270,note_off,216,0,0,,10,,,69,127
31270,note_off,0,0,0,,0,,,60,127
31270,note_off,0,0,0,,4,,,76,127
31273,note_on,3,0,0,,4,,,76,127
31273,note_on,0,0,0,,0,,,60,127
31273,note_on,0,0,0,,10,,,69,127
31489,note_off,216,0,0,,10,,,69,127
31489,note_off,0,0,0,,0,,,60,127
31489,note_off,0,0,0,,4,,,76,127
31492,note_on,3,0,0,,4,,,76,127
31492,note_on,0,0,0,,2,,,62,127
31492,note_on,0,0,0,,8,,,56,127
31492,note_on,0,0,0,,4,,,64,127
31598,note_off,106,0,0,,4,,,76,127
31601,note_on,3,0,0,,7,,,79,127
31707,note_off,106,0,0,,7,,,79,127
31707,note_off,0,0,0,,4,,,64,127
31707,note_off,0,0,0,,8,,,56,127
31707,note_off,0,0,0,,2,,,62,127
31710,note_on,3,0,0,,5,,,77,127
31710,note_on,0,0,0,,8,,,56,127
31710,note_on,0,0,0,,2,,,62,127
31710,note_on,0,0,0,,5,,,65,127
31926,note_off,216,0,0,,5,,,65,127
31926,note_off,0,0,0,,2,,,62,127
31926,note_off,0,0,0,,8,,,56,127
31926,note_off,0,0,0,,5,,,77,127
31929,note_on,3,0,0,,2,,,74,127
31929,note_on,0,0,0,,8,,,56,127
31929,note_on,0,0,0,,5,,,65,127
31929,note_on,0,0,0,,2,,,62,127
32145,note_off,216,0,0,,2,,,62,127
32145,note_off,0,0,0,,5,,,65,127
32145,note_off,0,0,0,,8,,,56,127
32148,note_on,3,0,0,,2,,,62,127
32148,note_on,0,0,0,,8,,,56,127
32148,note_on,0,0,0,,4,,,64,127
32258,note_off,110,0,0,,2,,,74,127
32364,note_off,106,0,0,,4,,,64,127
32364,note_off,0,0,0,,8,,,56,127
32364,note_off,0,0,0,,2,,,62,127
32367,note_on,3,0,0,,2,,,74,127
32367,note_on,0,0,0,,4,,,64,127
32367,note_on,0,0,0,,2,,,62,127
32367,note_on,0,0,0,,8,,,56,127
32583,note_off,216,0,0,,8,,,56,127
32583,note_off,0,0,0,,2,,,62,127
32583,note_off,0,0,0,,4,,,64,127
32583,note_off,0,0,0,,2,,,74,127
32586,note_on,3,0,0,,12,,,71,127
32586,note_on,0,0,0,,2,,,62,127
32586,note_on,0,0,0,,8,,,56,127
32586,note_on,0,0,0,,4,,,64,127
32802,note_off,216,0,0,,4,,,64,127
32802,note_off,0,0,0,,8,,,56,127
32802,note_off,0,0,0,,2,,,62,127
32802,note_off,0,0,0,,12,,,71,127
32805,note_on,3,0,0,,2,,,74,127
32805,note_on,0,0,0,,10,,,57,127
32805,note_on,0,0,0,,4,,,64,127
32860,note_on,55,0,0,,0,,,72,127
32875,note_off,15,0,0,,2,,,74,127
32915,note_on,40,0,0,,2,,,74,127
32930,note_off,15,0,0,,0,,,72,127
32970,note_on,40,0,0,,0,,,72,127
32985,note_off,15,0,0,,2,,,74,127
33022,note_off,37,0,0,,4,,,64,127
33022,note_off,0,0,0,,10,,,57,127
33025,note_on,3,0,0,,2,,,74,127
33025,note_on,0,0,0,,10,,,57,127
33025,note_on,0,0,0,,4,,,64,127
33040,note_off,15,0,0,,0,,,72,127
33080,note_on,40,0,0,,0,,,72,127
33095,note_off,15,0,0,,2,,,74,127
33135,note_on,40,0,0,,12,,,71,127
33150,note_off,15,0,0,,0,,,72,127
33241,note_off,91,0,0,,12,,,71,127
33241,note_off,0,0,0,,4,,,64,127
33241,note_off,0,0,0,,10,,,57,127
33244,note_on,3,0,0,,0,,,72,127
33244,note_on,0,0,0,,10,,,57,127
33244,note_on,0,0,0,,4,,,64,127
33460,note_off,216,0,0,,4,,,64,127
33460,note_off,0,0,0,,10,,,57,127
33463,note_on,3,0,0,,0,,,60,127
33463,note_on,0,0,0,,10,,,57,127
33463,note_on,0,0,0,,4,,,64,127
33679,note_off,216,0,0,,4,,,64,127
33679,note_off,0,0,0,,10,,,57,127
33679,note_off,0,0,0,,0,,,60,127
33679,note_off,0,0,0,,0,,,72,127
33682,note_on,3,0,0,,4,,,76,127
33682,note_on,0,0,0,,10,,,57,127
33682,note_on,0,0,0,,4,,,64,127
33682,note_on,0,0,0,,0,,,60,127
33898,note_off,216,0,0,,0,,,60,127
33898,note_off,0,0,0,,4,,,64,127
33898,note_off,0,0,0,,10,,,57,127
33898,note_off,0,0,0,,4,,,76,127
33901,note_on,3,0,0,,4,,,76,127
33901,note_on,0,0,0,,4,,,64,127
33901,note_on,0,0,0,,0,,,60,127
33901,note_on,0,0,0,,10,,,57,127
34117,note_off,216,0,0,,10,,,57,127
34117,note_off,0,0,0,,0,,,60,127
34117,note_off,0,0,0,,4,,,64,127
34117,note_off,0,0,0,,4,,,76,127
34120,note_on,3,0,0,,4,,,76,127
34120,note_on,0,0,0,,2,,,62,127
34120,note_on,0,0,0,,8,,,56,127
34120,note_on,0,0,0,,4,,,64,127
34226,note_off,106,0,0,,4,,,76,127
34229,note_on,3,0,0,,7,,,79,127
34335,note_off,106,0,0,,7,,,79,127
34335,note_off,0,0,0,,4,,,64,127
34335,note_off,0,0,0,,8,,,56,127
34335,note_off,0,0,0,,2,,,62,127
34338,note_on,3,0,0,,5,,,77,127
34338,note_on,0,0,0,,2,,,62,127
34338,note_on,0,0,0,,8,,,56,127
34338,note_on,0,0,0,,5,,,65,127
34554,note_off,216,0,0,,5,,,65,127
34554,note_off,0,0,0,,8,,,56,127
34554,note_off,0,0,0,,2,,,62,127
34554,note_off,0,0,0,,5,,,77,127
34557,note_on,3,0,0,,2,,,74,127
34557,note_on,0,0,0,,8,,,56,127
34557,note_on,0,0,0,,5,,,65,127
34557,note_on,0,0,0,,2,,,62,127
34773,note_off,216,0,0,,2,,,62,127
34773,note_off,0,0,0,,5,,,65,127
34773,note_off,0,0,0,,8,,,56,127
34776,note_on,3,0,0,,2,,,62,127
34776,note_on,0,0,0,,8,,,56,127
34776,note_on,0,0,0,,4,,,64,127
34886,note_off,110,0,0,,2,,,74,127
34992,note_off,106,0,0,,4,,,64,127
34992,note_off,0,0,0,,8,,,56,127
34992,note_off,0,0,0,,2,,,62,127
34995,note_on,3,0,0,,2,,,74,127
34995,note_on,0,0,0,,8,,,56,127
34995,note_on,0,0,0,,2,,,62,127
34995,note_on,0,0,0,,4,,,64,127
35211,note_off,216,0,0,,4,,,64,127
35211,note_off,0,0,0,,2,,,62,127
35211,note_off,0,0,0,,8,,,56,127
35211,note_off,0,0,0,,2,,,74,127
35214,note_on,3,0,0,,12,,,71,127
35214,note_on,0,0,0,,8,,,56,127
35214,note_on,0,0,0,,2,,,62,127
35214,note_on,0,0,0,,4,,,64,127
35430,note_off,216,0,0,,4,,,64,127
35430,note_off,0,0,0,,2,,,62,127
35430,note_off,0,0,0,,8,,,56,127
35430,note_off,0,0,0,,12,,,71,127
35433,note_on,3,0,0,,2,,,74,127
35433,note_on,0,0,0,,10,,,57,127
35433,note_on,0,0,0,,4,,,64,127
35488,note_on,55,0,0,,0,,,72,127
35503,note_off,15,0,0,,2,,,74,127
35543,note_on,40,0,0,,2,,,74,127
35558,note_off,15,0,0,,0,,,72,127
35598,note_on,40,0,0,,0,,,72,127
35613,note_off,15,0,0,,2,,,74,127
35650,note_off,37,0,0,,4,,,64,127
35650,note_off,0,0,0,,10,,,57,127
35653,note_on,3,0,0,,2,,,74,127
35653,note_on,0,0,0,,4,,,64,127
35653,note_on,0,0,0,,10,,,57,127
35668,note_off,15,0,0,,0,,,72,127
35708,note_on,40,0,0,,0,,,72,127
35723,note_off,15,0,0,,2,,,74,127
35763,note_on,40,0,0,,12,,,71,127
35778,note_off,15,0,0,,0,,,72,127
35869,note_off,91,0,0,,12,,,71,127
35869,note_off,0,0,0,,10,,,57,127
35869,note_off,0,0,0,,4,,,64,127
35872,note_on,3,0,0,,0,,,72,127
35872,note_on,0,0,0,,10,,,57,127
35872,note_on,0,0,0,,4,,,64,127
36088,note_off,216,0,0,,4,,,64,127
36088,note_off,0,0,0,,10,,,57,127
36091,note_on,3,0,0,,12,,,59,127
36091,note_on,0,0,0,,7,,,55,127
36091,note_on,0,0,0,,2,,,62,127
36091,note_on,0,0,0,,10,,,57,127
36307,note_off,216,0,0,,10,,,57,127
36307,note_off,0,0,0,,2,,,62,127
36307,note_off,0,0,0,,7,,,55,127
36307,note_off,0,0,0,,12,,,59,127
36307,note_off,0,0,0,,0,,,72,127
36310,note_on,3,0,0,,4,,,64,127
36310,note_on,0,0,0,,12,,,59,127
36310,note_on,0,0,0,,7,,,55,127
36310,note_on,0,0,0,,2,,,62,127
36310,note_on,0,0,0,,10,,,57,127
36526,note_off,216,0,0,,10,,,57,127
36526,note_off,0,0,0,,2,,,62,127
36526,note_off,0,0,0,,7,,,55,127
36526,note_off,0,0,0,,12,,,59,127
36526,note_off,0,0,0,,4,,,64,127
36529,note_on,3,0,0,,4,,,64,127
36529,note_on,0,0,0,,12,,,59,127
36529,note_on,0,0,0,,7,,,55,127
36529,note_on,0,0,0,,2,,,62,127
36529,note_on,0,0,0,,10,,,57,127
36745,note_off,216,0,0,,10,,,57,127
36745,note_off,0,0,0,,2,,,62,127
36745,note_off,0,0,0,,7,,,55,127
36745,note_off,0,0,0,,12,,,59,127
36745,note_off,0,0,0,,4,,,64,127
36748,note_on,3,0,0,,2,,,74,127
36748,note_on,0,0,0,,10,,,57,127
36748,note_on,0,0,0,,4,,,64,127
36748,note_on,0,0,0,,0,,,60,127
36803,note_on,55,0,0,,0,,,72,127
36818,note_off,15,0,0,,2,,,74,127
36858,note_on,40,0,0,,2,,,74,127
36873,note_off,15,0,0,,0,,,72,127
36913,note_on,40,0,0,,0,,,72,127
36928,note_off,15,0,0,,2,,,74,127
36965,note_off,37,0,0,,0,,,60,127
36965,note_off,0,0,0,,4,,,64,127
36965,note_off,0,0,0,,10,,,57,127
36968,note_on,3,0,0,,2,,,74,127
36968,note_on,0,0,0,,0,,,60,127
36968,note_on,0,0,0,,10,,,57,127
36968,note_on,0,0,0,,4,,,64,127
36983,note_off,15,0,0,,0,,,72,127
37023,note_on,40,0,0,,0,,,72,127
37038,note_off,15,0,0,,2,,,74,127
37078,note_on,40,0,0,,12,,,71,127
37093,note_off,15,0,0,,0,,,72,127
37184,note_off,91,0,0,,12,,,71,127
37184,note_off,0,0,0,,4,,,64,127
37184,note_off,0,0,0,,10,,,57,127
37184,note_off,0,0,0,,0,,,60,127
37187,note_on,3,0,0,,0,,,72,127
37187,note_on,0,0,0,,0,,,60,127
37187,note_on,0,0,0,,10,,,57,127
37187,note_on,0,0,0,,4,,,64,127
37403,note_off,216,0,0,,4,,,64,127
37403,note_off,0,0,0,,10,,,57,127
37403,note_off,0,0,0,,0,,,60,127
37406,note_on,3,0,0,,12,,,59,127
37406,note_on,0,0,0,,7,,,55,127
37406,note_on,0,0,0,,2,,,62,127
37406,note_on,0,0,0,,10,,,57,127
37622,note_off,216,0,0,,10,,,57,127
37622,note_off,0,0,0,,2,,,62,127
37622,note_off,0,0,0,,7,,,55,127
37622,note_off,0,0,0,,12,,,59,127
37622,note_off,0,0,0,,0,,,72,127
37625,note_on,3,0,0,,4,,,64,127
37625,note_on,0,0,0,,12,,,59,127
37625,note_on,0,0,0,,7,,,55,127
37625,note_on,0,0,0,,2,,,62,127
37625,note_on,0,0,0,,10,,,57,127
37841,note_off,216,0,0,,10,,,57,127
37841,note_off,0,0,0,,2,,,62,127
37841,note_off,0,0,0,,7,,,55,127
37841,note_off,0,0,0,,12,,,59,127
37841,note_off,0,0,0,,4,,,64,127
37844,note_on,3,0,0,,4,,,64,127
37844,note_on,0,0,0,,2,,,62,127
37844,note_on,0,0,0,,12,,,59,127
37844,note_on,0,0,0,,7,,,55,127
37844,note_on,0,0,0,,10,,,57,127
38060,note_off,216,0,0,,10,,,57,127
38060,note_off,0,0,0,,7,,,55,127
38060,note_off,0,0,0,,12,,,59,127
38060,note_off,0,0,0,,2,,,62,127
38060,note_off,0,0,0,,4,,,64,127
38063,note_on,3,0,0,,2,,,74,127
38063,note_on,0,0,0,,10,,,57,127
38063,note_on,0,0,0,,4,,,64,127
38063,note_on,0,0,0,,0,,,60,127
38118,note_on,55,0,0,,0,,,72,127
38133,note_off,15,0,0,,2,,,74,127
38173,note_on,40,0,0,,2,,,74,127
38188,note_off,15,0,0,,0,,,72,127
38228,note_on,40,0,0,,0,,,72,127
38243,note_off,15,0,0,,2,,,74,127
38280,note_off,37,0,0,,0,,,60,127
38280,note_off,0,0,0,,4,,,64,127
38280,note_off,0,0,0,,10,,,57,127
38283,note_on,3,0,0,,2,,,74,127
38283,note_on,0,0,0,,0,,,60,127
38283,note_on,0,0,0,,10,,,57,127
38283,note_on,0,0,0,,4,,,64,127
38298,note_off,15,0,0,,0,,,72,127
38338,note_on,40,0,0,,0,,,72,127
38353,note_off,15,0,0,,2,,,74,127
38393,note_on,40,0,0,,12,,,71,127
38408,note_off,15,0,0,,0,,,72,127
38499,note_off,91,0,0,,12,,,71,127
38499,note_off,0,0,0,,4,,,64,127
38499,note_off,0,0,0,,10,,,57,127
38499,note_off,0,0,0,,0,,,60,127
38502,note_on,3,0,0,,0,,,72,127
38502,note_on,0,0,0,,10,,,57,127
38502,note_on,0,0,0,,0,,,60,127
38502,note_on,0,0,0,,4,,,64,127
38718,note_off,216,0,0,,4,,,64,127
38718,note_off,0,0,0,,0,,,60,127
38718,note_off,0,0,0,,10,,,57,127
38721,note_on,3,0,0,,7,,,55,127
38721,note_on,0,0,0,,0,,,60,127
38721,note_on,0,0,0,,2,,,62,127
38937,note_off,216,0,0,,2,,,62,127
38937,note_off,0,0,0,,0,,,60,127
38937,note_off,0,0,0,,7,,,55,127
38937,note_off,0,0,0,,0,,,72,127
38940,note_on,3,0,0,,0,,,72,127
38940,note_on,0,0,0,,4,,,64,127
38940,note_on,0,0,0,,12,,,71,127
38940,note_on,0,0,0,,7,,,55,127
38940,note_on,0,0,0,,2,,,62,127
38940,note_on,0,0,0,,0,,,60,127
38995,note_on,55,0,0,,10,,,69,127
39012,note_off,17,0,0,,12,,,71,127
39050,note_on,38,0,0,,12,,,71,127
39067,note_off,17,0,0,,10,,,69,127
39105,note_on,38,0,0,,10,,,69,127
39122,note_off,17,0,0,,12,,,71,127
39156,note_off,34,0,0,,0,,,60,127
39156,note_off,0,0,0,,2,,,62,127
39156,note_off,0,0,0,,7,,,55,127
39159,note_on,3,0,0,,12,,,71,127
39159,note_on,0,0,0,,7,,,55,127
39159,note_on,0,0,0,,0,,,60,127
39176,note_off,17,0,0,,10,,,69,127
39214,note_on,38,0,0,,10,,,69,127
39231,note_off,17,0,0,,12,,,71,127
39269,note_on,38,0,0,,12,,,71,127
39286,note_off,17,0,0,,10,,,69,127
39324,note_on,38,0,0,,10,,,69,127
39341,note_off,17,0,0,,12,,,71,127
39375,note_off,34,0,0,,0,,,60,127
39375,note_off,0,0,0,,7,,,55,127
39378,note_on,3,0,0,,12,,,71,127
39378,note_on,0,0,0,,10,,,57,127
39378,note_on,0,0,0,,5,,,53,127
39378,note_on,0,0,0,,0,,,60,127
39395,note_off,17,0,0,,10,,,69,127
39433,note_on,38,0,0,,10,,,69,127
39450,note_off,17,0,0,,12,,,71,127
39488,note_on,38,0,0,,12,,,71,127
39505,note_off,17,0,0,,10,,,69,127
39543,note_on,38,0,0,,10,,,69,127
39560,note_off,17,0,0,,12,,,71,127
39594,note_off,34,0,0,,0,,,60,127
39594,note_off,0,0,0,,5,,,53,127
39594,note_off,0,0,0,,10,,,57,127
39594,note_off,0,0,0,,4,,,64,127
39594,note_off,0,0,0,,0,,,72,127
39597,note_on,3,0,0,,0,,,72,127
39597,note_on,0,0,0,,5,,,65,127
39597,note_on,0,0,0,,12,,,71,127
39597,note_on,0,0,0,,0,,,60,127
39597,note_on,0,0,0,,10,,,57,127
39597,note_on,0,0,0,,5,,,53,127
39614,note_off,17,0,0,,10,,,69,127
39652,note_on,38,0,0,,10,,,69,127
39669,note_off,17,0,0,,12,,,71,127
39707,note_on,38,0,0,,12,,,71,127
39724,note_off,17,0,0,,10,,,69,127
39762,note_on,38,0,0,,10,,,69,127
39779,note_off,17,0,0,,12,,,71,127
39813,note_off,34,0,0,,5,,,53,127
39813,note_off,0,0,0,,10,,,57,127
39813,note_off,0,0,0,,0,,,60,127
39816,note_on,3,0,0,,12,,,71,127
39816,note_on,0,0,0,,10,,,57,127
39816,note_on,0,0,0,,5,,,53,127
39816,note_on,0,0,0,,0,,,60,127
39833,note_off,17,0,0,,10,,,69,127
39871,note_on,38,0,0,,10,,,69,127
39888,note_off,17,0,0,,12,,,71,127
39926,note_on,38,0,0,,12,,,71,127
39943,note_off,17,0,0,,10,,,69,127
39981,note_on,38,0,0,,10,,,69,127
39998,note_off,17,0,0,,12,,,71,127
40032,note_off,34,0,0,,0,,,60,127
40032,note_off,0,0,0,,5,,,53,127
40032,note_off,0,0,0,,10,,,57,127
40035,note_on,3,0,0,,12,,,71,127
40035,note_on,0,0,0,,0,,,60,127
40035,note_on,0,0,0,,10,,,57,127
40035,note_on,0,0,0,,4,,,52,127
40052,note_off,17,0,0,,10,,,69,127
40090,note_on,38,0,0,,10,,,69,127
40107,note_off,17,0,0,,12,,,71,127
40145,note_on,38,0,0,,12,,,71,127
40162,note_off,17,0,0,,10,,,69,127
40200,note_on,38,0,0,,10,,,69,127
40217,note_off,17,0,0,,12,,,71,127
40251,note_off,34,0,0,,4,,,52,127
40251,note_off,0,0,0,,10,,,57,127
40251,note_off,0,0,0,,0,,,60,127
40251,note_off,0,0,0,,5,,,65,127
40251,note_off,0,0,0,,0,,,72,127
40254,note_on,3,0,0,,0,,,72,127
40254,note_on,0,0,0,,4,,,64,127
40254,note_on,0,0,0,,12,,,71,127
40254,note_on,0,0,0,,4,,,52,127
40254,note_on,0,0,0,,0,,,60,127
40254,note_on,0,0,0,,10,,,57,127
40271,note_off,17,0,0,,10,,,69,127
40309,note_on,38,0,0,,10,,,69,127
40326,note_off,17,0,0,,12,,,71,127
40364,note_on,38,0,0,,12,,,71,127
40381,note_off,17,0,0,,10,,,69,127
40419,note_on,38,0,0,,10,,,69,127
40436,note_off,17,0,0,,12,,,71,127
40470,note_off,34,0,0,,10,,,57,127
40470,note_off,0,0,0,,0,,,60,127
40470,note_off,0,0,0,,4,,,52,127
40473,note_on,3,0,0,,12,,,71,127
40473,note_on,0,0,0,,4,,,52,127
40473,note_on,0,0,0,,10,,,57,127
40473,note_on,0,0,0,,0,,,60,127
40490,note_off,17,0,0,,10,,,69,127
40528,note_on,38,0,0,,10,,,69,127
40545,note_off,17,0,0,,12,,,71,127
40583,note_on,38,0,0,,12,,,71,127
40600,note_off,17,0,0,,10,,,69,127
40638,note_on,38,0,0,,10,,,69,127
40655,note_off,17,0,0,,12,,,71,127
40689,note_off,34,0,0,,0,,,60,127
40689,note_off,0,0,0,,10,,,57,127
40689,note_off,0,0,0,,4,,,52,127
40692,note_on,3,0,0,,12,,,71,127
40692,note_on,0,0,0,,2,,,50,127
40692,note_on,0,0,0,,10,,,57,127
40692,note_on,0,0,0,,12,,,59,127
40709,note_off,17,0,0,,10,,,69,127
40747,note_on,38,0,0,,10,,,69,127
40764,note_off,17,0,0,,12,,,71,127
40802,note_on,38,0,0,,12,,,71,127
40819,note_off,17,0,0,,10,,,69,127
40857,note_on,38,0,0,,10,,,69,127
40874,note_off,17,0,0,,12,,,71,127
40908,note_off,34,0,0,,12,,,59,127
40908,note_off,0,0,0,,10,,,57,127
40908,note_off,0,0,0,,2,,,50,127
40908,note_off,0,0,0,,4,,,64,127
40908,note_off,0,0,0,,0,,,72,127
40910,note_off,2,0,0,,10,,,69,127
40911,note_on,1,0,0,,5,,,65,127
40911,note_on,0,0,0,,12,,,71,127
40911,note_on,0,0,0,,10,,,69,127
40911,note_on,0,0,0,,2,,,50,127
40911,note_on,0,0,0,,12,,,59,127
40911,note_on,0,0,0,,10,,,57,127
40966,note_on,55,0,0,,8,,,68,127
40983,note_off,17,0,0,,10,,,69,127
41021,note_on,38,0,0,,10,,,69,127
41038,note_off,17,0,0,,8,,,68,127
41076,note_on,38,0,0,,8,,,68,127
41093,note_off,17,0,0,,10,,,69,127
41127,note_off,34,0,0,,10,,,57,127
41127,note_off,0,0,0,,12,,,59,127
41127,note_off,0,0,0,,2,,,50,127
41130,note_on,3,0,0,,10,,,69,127
41130,note_on,0,0,0,,10,,,57,127
41130,note_on,0,0,0,,2,,,50,127
41130,note_on,0,0,0,,12,,,59,127
41147,note_off,17,0,0,,8,,,68,127
41185,note_on,38,0,0,,8,,,68,127
41202,note_off,17,0,0,,10,,,69,127
41240,note_on,38,0,0,,10,,,69,127
41257,note_off,17,0,0,,8,,,68,127
41295,note_on,38,0,0,,8,,,68,127
41312,note_off,17,0,0,,10,,,69,127
41346,note_off,34,0,0,,12,,,59,127
41346,note_off,0,0,0,,2,,,50,127
41346,note_off,0,0,0,,10,,,57,127
41349,note_on,3,0,0,,10,,,69,127
41349,note_on,0,0,0,,4,,,52,127
41349,note_on,0,0,0,,0,,,48,127
41349,note_on,0,0,0,,10,,,57,127
41366,note_off,17,0,0,,8,,,68,127
41404,note_on,38,0,0,,8,,,68,127
41421,note_off,17,0,0,,10,,,69,127
41459,note_on,38,0,0,,10,,,69,127
41476,note_off,17,0,0,,8,,,68,127
41514,note_on,38,0,0,,8,,,68,127
41531,note_off,17,0,0,,10,,,69,127
41565,note_off,34,0,0,,10,,,57,127
41565,note_off,0,0,0,,0,,,48,127
41565,note_off,0,0,0,,4,,,52,127
41565,note_off,0,0,0,,12,,,71,127
41565,note_off,0,0,0,,5,,,65,127
41568,note_on,3,0,0,,0,,,72,127
41568,note_on,0,0,0,,4,,,64,127
41568,note_on,0,0,0,,12,,,71,127
41568,note_on,0,0,0,,4,,,52,127
41568,note_on,0,0,0,,0,,,48,127
41568,note_on,0,0,0,,10,,,57,127
41585,note_off,17,0,0,,8,,,68,127
41623,note_on,38,0,0,,10,,,69,127
41640,note_off,17,0,0,,12,,,71,127
41678,note_on,38,0,0,,12,,,71,127
41695,note_off,17,0,0,,10,,,69,127
41733,note_on,38,0,0,,10,,,69,127
41750,note_off,17,0,0,,12,,,71,127
41784,note_off,34,0,0,,10,,,57,127
41784,note_off,0,0,0,,0,,,48,127
41784,note_off,0,0,0,,4,,,52,127
41787,note_on,3,0,0,,12,,,71,127
41787,note_on,0,0,0,,0,,,48,127
41787,note_on,0,0,0,,10,,,57,127
41787,note_on,0,0,0,,4,,,52,127
41804,note_off,17,0,0,,10,,,69,127
41842,note_on,38,0,0,,10,,,69,127
41859,note_off,17,0,0,,12,,,71,127
41897,note_on,38,0,0,,12,,,71,127
41914,note_off,17,0,0,,10,,,69,127
41952,note_on,38,0,0,,10,,,69,127
41969,note_off,17,0,0,,12,,,71,127
42003,note_off,34,0,0,,4,,,52,127
42003,note_off,0,0,0,,10,,,57,127
42003,note_off,0,0,0,,0,,,48,127
42006,note_on,3,0,0,,12,,,71,127
42006,note_on,0,0,0,,12,,,47,127
42006,note_on,0,0,0,,8,,,56,127
42006,note_on,0,0,0,,4,,,52,127
42006,note_on,0,0,0,,2,,,50,127
42023,note_off,17,0,0,,10,,,69,127
42061,note_on,38,0,0,,10,,,69,127
42078,note_off,17,0,0,,12,,,71,127
42116,note_on,38,0,0,,12,,,71,127
42133,note_off,17,0,0,,10,,,69,127
42171,note_on,38,0,0,,10,,,69,127
42188,note_off,17,0,0,,12,,,71,127
42222,note_off,34,0,0,,2,,,50,127
42222,note_off,0,0,0,,4,,,52,127
42222,note_off,0,0,0,,8,,,56,127
42222,note_off,0,0,0,,12,,,47,127
42222,note_off,0,0,0,,4,,,64,127
42222,note_off,0,0,0,,0,,,72,127
42224,note_off,2,0,0,,10,,,69,127
42225,note_on,1,0,0,,2,,,62,127
42225,note_on,0,0,0,,4,,,64,127
42225,note_on,0,0,0,,12,,,71,127
42225,note_on,0,0,0,,2,,,74,127
42225,note_on,0,0,0,,10,,,69,127
42225,note_on,0,0,0,,12,,,47,127
42225,note_on,0,0,0,,8,,,56,127
42225,note_on,0,0,0,,4,,,52,127
42225,note_on,0,0,0,,2,,,50,127
42280,note_on,55,0,0,,8,,,68,127
42297,note_off,17,0,0,,10,,,69,127
42335,note_on,38,0,0,,10,,,69,127
42352,note_off,17,0,0,,8,,,68,127
42390,note_on,38,0,0,,8,,,68,127
42407,note_off,17,0,0,,10,,,69,127
42441,note_off,34,0,0,,2,,,50,127
42441,note_off,0,0,0,,4,,,52,127
42441,note_off,0,0,0,,8,,,56,127
42441,note_off,0,0,0,,12,,,47,127
42444,note_on,3,0,0,,10,,,69,127
42444,note_on,0,0,0,,2,,,50,127
42444,note_on,0,0,0,,12,,,47,127
42444,note_on,0,0,0,,8,,,56,127
42444,note_on,0,0,0,,4,,,52,127
42461,note_off,17,0,0,,8,,,68,127
42499,note_on,38,0,0,,8,,,68,127
42516,note_off,17,0,0,,10,,,69,127
42554,note_on,38,0,0,,10,,,69,127
42571,note_off,17,0,0,,8,,,68,127
42609,note_on,38,0,0,,8,,,68,127
42626,note_off,17,0,0,,10,,,69,127
42660,note_off,34,0,0,,4,,,52,127
42660,note_off,0,0,0,,8,,,56,127
42660,note_off,0,0,0,,12,,,47,127
42660,note_off,0,0,0,,2,,,50,127
42663,note_on,3,0,0,,10,,,69,127
42663,note_on,0,0,0,,5,,,53,127
42663,note_on,0,0,0,,10,,,45,127
42663,note_on,0,0,0,,10,,,57,127
42680,note_off,17,0,0,,8,,,68,127
42718,note_on,38,0,0,,8,,,68,127
42735,note_off,17,0,0,,10,,,69,127
42773,note_on,38,0,0,,10,,,69,127
42790,note_off,17,0,0,,8,,,68,127
42828,note_on,38,0,0,,8,,,68,127
42845,note_off,17,0,0,,10,,,69,127
42879,note_off,34,0,0,,10,,,57,127
42879,note_off,0,0,0,,10,,,45,127
42879,note_off,0,0,0,,5,,,53,127
42879,note_off,0,0,0,,2,,,74,127
42879,note_off,0,0,0,,12,,,71,127
42879,note_off,0,0,0,,4,,,64,127
42879,note_off,0,0,0,,2,,,62,127
42880,note_off,1,0,0,,8,,,68,127
42882,note_on,2,0,0,,2,,,74,127
42882,note_on,0,0,0,,8,,,68,127
42882,note_on,0,0,0,,5,,,65,127
42882,note_on,0,0,0,,12,,,71,127
42882,note_on,0,0,0,,10,,,45,127
42882,note_on,0,0,0,,5,,,53,127
42882,note_on,0,0,0,,10,,,57,127
42937,note_on,55,0,0,,10,,,69,127
42954,note_off,17,0,0,,12,,,71,127
42992,note_on,38,0,0,,12,,,71,127
43009,note_off,17,0,0,,10,,,69,127
43047,note_on,38,0,0,,10,,,69,127
43064,note_off,17,0,0,,12,,,71,127
43098,note_off,34,0,0,,10,,,57,127
43098,note_off,0,0,0,,5,,,53,127
43098,note_off,0,0,0,,10,,,45,127
43101,note_on,3,0,0,,12,,,71,127
43101,note_on,0,0,0,,10,,,45,127
43101,note_on,0,0,0,,10,,,57,127
43101,note_on,0,0,0,,5,,,53,127
43118,note_off,17,0,0,,10,,,69,127
43156,note_on,38,0,0,,10,,,69,127
43173,note_off,17,0,0,,12,,,71,127
43211,note_on,38,0,0,,12,,,71,127
43228,note_off,17,0,0,,10,,,69,127
43266,note_on,38,0,0,,10,,,69,127
43283,note_off,17,0,0,,12,,,71,127
43317,note_off,34,0,0,,5,,,53,127
43317,note_off,0,0,0,,10,,,57,127
43317,note_off,0,0,0,,10,,,45,127
43320,note_on,3,0,0,,12,,,71,127
43320,note_on,0,0,0,,4,,,52,127
43320,note_on,0,0,0,,2,,,50,127
43320,note_on,0,0,0,,8,,,44,127
43337,note_off,17,0,0,,10,,,69,127
43375,note_on,38,0,0,,10,,,69,127
43392,note_off,17,0,0,,12,,,71,127
43430,note_on,38,0,0,,12,,,71,127
43447,note_off,17,0,0,,10,,,69,127
43485,note_on,38,0,0,,10,,,69,127
43502,note_off,17,0,0,,12,,,71,127
43536,note_off,34,0,0,,8,,,44,127
43536,note_off,0,0,0,,2,,,50,127
43536,note_off,0,0,0,,4,,,52,127
43536,note_off,0,0,0,,5,,,65,127
43536,note_off,0,0,0,,8,,,68,127
43536,note_off,0,0,0,,2,,,74,127
43539,note_on,3,0,0,,2,,,74,127
43539,note_on,0,0,0,,4,,,64,127
43539,note_on,0,0,0,,2,,,62,127
43539,note_on,0,0,0,,8,,,68,127
43539,note_on,0,0,0,,12,,,71,127
43539,note_on,0,0,0,,8,,,44,127
43539,note_on,0,0,0,,4,,,52,127
43539,note_on,0,0,0,,2,,,50,127
43556,note_off,17,0,0,,10,,,69,127
43594,note_on,38,0,0,,10,,,69,127
43611,note_off,17,0,0,,12,,,71,127
43649,note_on,38,0,0,,12,,,71,127
43666,note_off,17,0,0,,10,,,69,127
43704,note_on,38,0,0,,10,,,69,127
43721,note_off,17,0,0,,12,,,71,127
43755,note_off,34,0,0,,2,,,50,127
43755,note_off,0,0,0,,4,,,52,127
43755,note_off,0,0,0,,8,,,44,127
43758,note_on,3,0,0,,12,,,71,127
43758,note_on,0,0,0,,2,,,50,127
43758,note_on,0,0,0,,8,,,44,127
43758,note_on,0,0,0,,4,,,52,127
43775,note_off,17,0,0,,10,,,69,127
43813,note_on,38,0,0,,10,,,69,127
43830,note_off,17,0,0,,12,,,71,127
43868,note_on,38,0,0,,12,,,71,127
43885,note_off,17,0,0,,10,,,69,127
43923,note_on,38,0,0,,10,,,69,127
43940,note_off,17,0,0,,12,,,71,127
43974,note_off,34,0,0,,4,,,52,127
43974,note_off,0,0,0,,8,,,44,127
43974,note_off,0,0,0,,2,,,50,127
43977,note_on,3,0,0,,12,,,71,127
43977,note_on,0,0,0,,10,,,45,127
43977,note_on,0,0,0,,5,,,41,127
43977,note_on,0,0,0,,2,,,50,127
43994,note_off,17,0,0,,10,,,69,127
44032,note_on,38,0,0,,10,,,69,127
44049,note_off,17,0,0,,12,,,71,127
44087,note_on,38,0,0,,12,,,71,127
44104,note_off,17,0,0,,10,,,69,127
44142,note_on,38,0,0,,10,,,69,127
44159,note_off,17,0,0,,12,,,71,127
44193,note_off,34,0,0,,2,,,50,127
44193,note_off,0,0,0,,5,,,41,127
44193,note_off,0,0,0,,10,,,45,127
44193,note_off,0,0,0,,8,,,68,127
44193,note_off,0,0,0,,2,,,62,127
44193,note_off,0,0,0,,4,,,64,127
44193,note_off,0,0,0,,2,,,74,127
44196,note_on,3,0,0,,5,,,65,127
44196,note_on,0,0,0,,2,,,74,127
44196,note_on,0,0,0,,8,,,68,127
44196,note_on,0,0,0,,12,,,71,127
44196,note_on,0,0,0,,5,,,41,127
44196,note_on,0,0,0,,2,,,50,127
44196,note_on,0,0,0,,10,,,45,127
44213,note_off,17,0,0,,10,,,69,127
44251,note_on,38,0,0,,10,,,69,127
44268,note_off,17,0,0,,12,,,71,127
44306,note_on,38,0,0,,12,,,71,127
44323,note_off,17,0,0,,10,,,69,127
44361,note_on,38,0,0,,10,,,69,127
44378,note_off,17,0,0,,12,,,71,127
44412,note_off,34,0,0,,10,,,45,127
44412,note_off,0,0,0,,2,,,50,127
44412,note_off,0,0,0,,5,,,41,127
44415,note_on,3,0,0,,12,,,71,127
44415,note_on,0,0,0,,10,,,45,127
44415,note_on,0,0,0,,5,,,41,127
44415,note_on,0,0,0,,2,,,50,127
44432,note_off,17,0,0,,10,,,69,127
44470,note_on,38,0,0,,10,,,69,127
44487,note_off,17,0,0,,12,,,71,127
44525,note_on,38,0,0,,12,,,71,127
44542,note_off,17,0,0,,10,,,69,127
44580,note_on,38,0,0,,10,,,69,127
44597,note_off,17,0,0,,12,,,71,127
44631,note_off,34,0,0,,2,,,50,127
44631,note_off,0,0,0,,5,,,41,127
44631,note_off,0,0,0,,10,,,45,127
44631,note_off,0,0,0,,8,,,68,127
44631,note_off,0,0,0,,2,,,74,127
44631,note_off,0,0,0,,5,,,65,127
44634,note_on,3,0,0,,2,,,74,127
44634,note_on,0,0,0,,12,,,71,127
44634,note_on,0,0,0,,2,,,62,127
44634,note_on,0,0,0,,4,,,64,127
44634,note_on,0,0,0,,8,,,68,127
44634,note_on,0,0,0,,4,,,40,127
44634,note_on,0,0,0,,12,,,47,127
44634,note_on,0,0,0,,4,,,52,127
44651,note_off,17,0,0,,10,,,69,127
44850,note_off,199,0,0,,8,,,68,127
44850,note_off,0,0,0,,4,,,64,127
44850,note_off,0,0,0,,2,,,62,127
44850,note_off,0,0,0,,12,,,71,127
44850,note_off,0,0,0,,2,,,74,127
44853,note_on,3,0,0,,2,,,74,127
44853,note_on,0,0,0,,5,,,77,127
45069,note_off,216,0,0,,5,,,77,127
45069,note_off,0,0,0,,2,,,74,127
45072,note_on,3,0,0,,4,,,76,127
45072,note_on,0,0,0,,0,,,72,127
45288,note_off,216,0,0,,0,,,72,127
45288,note_off,0,0,0,,4,,,76,127
45291,note_on,3,0,0,,12,,,71,127
45291,note_on,0,0,0,,2,,,74,127
45507,note_off,216,0,0,,2,,,74,127
45507,note_off,0,0,0,,12,,,71,127
45510,note_on,3,0,0,,10,,,69,127
45510,note_on,0,0,0,,0,,,72,127
45726,note_off,216,0,0,,0,,,72,127
45726,note_off,0,0,0,,10,,,69,127
45726,note_off,0,0,0,,4,,,52,127
45726,note_off,0,0,0,,12,,,47,127
45726,note_off,0,0,0,,4,,,40,127
45729,note_on,3,0,0,,4,,,64,127
45729,note_on,0,0,0,,12,,,71,127
45729,note_on,0,0,0,,8,,,68,127
45729,note_on,0,0,0,,4,,,40,127
45729,note_on,0,0,0,,4,,,52,127
45729,note_on,0,0,0,,12,,,47,127
45945,note_off,216,0,0,,12,,,47,127
45945,note_off,0,0,0,,4,,,52,127
45945,note_off,0,0,0,,4,,,40,127
45945,note_off,0,0,0,,8,,,68,127
45945,note_off,0,0,0,,12,,,71,127
45945,note_off,0,0,0,,4,,,64,127
45948,note_on,3,0,0,,10,,,69,127
45948,note_on,0,0,0,,4,,,64,127
45948,note_on,0,0,0,,0,,,72,127
45948,note_on,0,0,0,,10,,,45,127
45948,note_on,0,0,0,,10,,,57,127
45948,note_on,0,0,0,,4,,,52,127
46164,note_off,216,0,0,,0,,,72,127
46164,note_off,0,0,0,,4,,,64,127
46164,note_off,0,0,0,,10,,,69,127
46167,note_on,3,0,0,,8,,,68,127
46167,note_on,0,0,0,,12,,,71,127
46383,note_off,216,0,0,,12,,,71,127
46383,note_off,0,0,0,,8,,,68,127
46383,note_off,0,0,0,,4,,,52,127
46383,note_off,0,0,0,,10,,,57,127
46383,note_off,0,0,0,,10,,,45,127
46386,note_on,3,0,0,,0,,,72,127
46386,note_on,0,0,0,,10,,,69,127
46386,note_on,0,0,0,,10,,,57,127
46386,note_on,0,0,0,,5,,,53,127
46602,note_off,216,0,0,,5,,,53,127
46602,note_off,0,0,0,,10,,,57,127
46602,note_off,0,0,0,,10,,,69,127
46602,note_off,0,0,0,,0,,,72,127
46605,note_on,3,0,0,,2,,,74,127
46605,note_on,0,0,0,,12,,,71,127
46605,note_on,0,0,0,,5,,,65,127
46605,note_on,0,0,0,,2,,,50,127
46605,note_on,0,0,0,,12,,,59,127
46605,note_on,0,0,0,,10,,,57,127
46821,note_off,216,0,0,,12,,,71,127
46821,note_off,0,0,0,,2,,,74,127
46824,note_on,3,0,0,,10,,,69,127
46824,note_on,0,0,0,,0,,,72,127
46985,note_off,161,0,0,,5,,,65,127
47040,note_off,55,0,0,,0,,,72,127
47040,note_off,0,0,0,,10,,,69,127
47040,note_off,0,0,0,,10,,,57,127
47040,note_off,0,0,0,,12,,,59,127
47040,note_off,0,0,0,,2,,,50,127
47043,note_on,3,0,0,,12,,,71,127
47043,note_on,0,0,0,,8,,,68,127
47043,note_on,0,0,0,,4,,,52,127
47259,note_off,216,0,0,,4,,,52,127
47262,note_on,3,0,0,,4,,,52,127
47262,note_on,0,0,0,,12,,,47,127
47262,note_on,0,0,0,,4,,,40,127
47478,note_off,216,0,0,,8,,,68,127
47478,note_off,0,0,0,,12,,,71,127
47481,note_on,3,0,0,,8,,,68,127
47481,note_on,0,0,0,,12,,,71,127
47481,note_on,0,0,0,,5,,,77,127
47481,note_on,0,0,0,,2,,,74,127
47697,note_off,216,0,0,,2,,,74,127
47697,note_off,0,0,0,,5,,,77,127
47697,note_off,0,0,0,,12,,,71,127
47697,note_off,0,0,0,,8,,,68,127
47700,note_on,3,0,0,,4,,,76,127
47700,note_on,0,0,0,,0,,,72,127
47916,note_off,216,0,0,,0,,,72,127
47916,note_off,0,0,0,,4,,,76,127
47919,note_on,3,0,0,,12,,,71,127
47919,note_on,0,0,0,,2,,,74,127
48135,note_off,216,0,0,,2,,,74,127
48135,note_off,0,0,0,,12,,,71,127
48138,note_on,3,0,0,,10,,,69,127
48138,note_on,0,0,0,,0,,,72,127
48354,note_off,216,0,0,,0,,,72,127
48354,note_off,0,0,0,,10,,,69,127
48354,note_off,0,0,0,,4,,,40,127
48354,note_off,0,0,0,,12,,,47,127
48354,note_off,0,0,0,,4,,,52,127
48357,note_on,3,0,0,,4,,,64,127
48357,note_on,0,0,0,,12,,,71,127
48357,note_on,0,0,0,,8,,,68,127
48357,note_on,0,0,0,,12,,,47,127
48357,note_on,0,0,0,,4,,,40,127
48357,note_on,0,0,0,,4,,,52,127
48573,note_off,216,0,0,,4,,,52,127
48573,note_off,0,0,0,,4,,,40,127
48573,note_off,0,0,0,,12,,,47,127
48573,note_off,0,0,0,,8,,,68,127
48573,note_off,0,0,0,,12,,,71,127
48573,note_off,0,0,0,,4,,,64,127
48576,note_on,3,0,0,,10,,,69,127
48576,note_on,0,0,0,,0,,,72,127
48576,note_on,0,0,0,,4,,,64,127
48576,note_on,0,0,0,,4,,,52,127
48576,note_on,0,0,0,,10,,,45,127
48576,note_on,0,0,0,,10,,,57,127
48792,note_off,216,0,0,,0,,,72,127
48792,note_off,0,0,0,,10,,,69,127
48795,note_on,3,0,0,,12,,,71,127
48795,note_on,0,0,0,,8,,,68,127
49011,note_off,216,0,0,,8,,,68,127
49011,note_off,0,0,0,,12,,,71,127
49011,note_off,0,0,0,,10,,,57,127
49011,note_off,0,0,0,,10,,,45,127
49011,note_off,0,0,0,,4,,,52,127
49014,note_on,3,0,0,,0,,,72,127
49014,note_on,0,0,0,,10,,,69,127
49014,note_on,0,0,0,,5,,,53,127
49014,note_on,0,0,0,,10,,,57,127
49230,note_off,216,0,0,,10,,,57,127
49230,note_off,0,0,0,,5,,,53,127
49230,note_off,0,0,0,,10,,,69,127
49230,note_off,0,0,0,,0,,,72,127
49230,note_off,0,0,0,,4,,,64,127
49233,note_on,3,0,0,,12,,,71,127
49233,note_on,0,0,0,,2,,,74,127
49233,note_on,0,0,0,,2,,,50,127
49449,note_off,216,0,0,,2,,,50,127
49449,note_off,0,0,0,,2,,,74,127
49449,note_off,0,0,0,,12,,,71,127
49452,note_on,3,0,0,,0,,,72,127
49452,note_on,0,0,0,,10,,,69,127
49452,note_on,0,0,0,,4,,,52,127
49668,note_off,216,0,0,,10,,,69,127
49668,note_off,0,0,0,,0,,,72,127
49671,note_on,3,0,0,,12,,,71,127
49671,note_on,0,0,0,,8,,,68,127
49671,note_on,0,0,0,,4,,,40,127
49886,note_off,215,0,0,,4,,,52,127
49887,note_off,1,0,0,,4,,,40,127
49887,note_off,0,0,0,,8,,,68,127
49887,note_off,0,0,0,,12,,,71,127
49890,note_on,3,0,0,,10,,,69,127
49890,note_on,0,0,0,,10,,,45,127
50106,note_off,216,0,0,,10,,,45,127
50106,note_off,0,0,0,,10,,,69,127
50109,note_on,3,0,0,,10,,,57,127
50109,note_on,0,0,0,,1,,,49,127
50215,note_off,106,0,0,,10,,,57,127
50218,note_on,3,0,0,,10,,,57,127
50324,note_off,106,0,0,,10,,,57,127
50324,note_off,0,0,0,,1,,,49,127
50327,note_on,3,0,0,,10,,,57,127
50327,note_on,0,0,0,,10,,,45,127
50433,note_off,106,0,0,,10,,,57,127
50436,note_on,3,0,0,,10,,,57,127
50542,note_off,106,0,0,,10,,,57,127
50542,note_off,0,0,0,,10,,,45,127
50545,note_on,3,0,0,,10,,,57,127
50545,note_on,0,0,0,,6,,,54,127
50545,note_on,0,0,0,,2,,,50,127
50761,note_off,216,0,0,,2,,,50,127
50761,note_off,0,0,0,,10,,,57,127
50764,note_on,3,0,0,,10,,,57,127
50764,note_on,0,0,0,,2,,,38,127
50870,note_off,106,0,0,,10,,,57,127
50873,note_on,3,0,0,,10,,,57,127
50979,note_off,106,0,0,,10,,,57,127
50979,note_off,0,0,0,,2,,,38,127
50982,note_on,3,0,0,,10,,,57,127
50982,note_on,0,0,0,,2,,,50,127
51088,note_off,106,0,0,,10,,,57,127
51091,note_on,3,0,0,,1,,,61,127
51197,note_off,106,0,0,,1,,,61,127
51197,note_off,0,0,0,,2,,,50,127
51197,note_off,0,0,0,,6,,,54,127
51200,note_on,3,0,0,,4,,,52,127
51200,note_on,0,0,0,,10,,,57,127
51200,note_on,0,0,0,,1,,,49,127
51416,note_off,216,0,0,,1,,,49,127
51416,note_off,0,0,0,,10,,,57,127
51419,note_on,3,0,0,,10,,,57,127
51419,note_on,0,0,0,,1,,,49,127
51525,note_off,106,0,0,,10,,,57,127
51528,note_on,3,0,0,,10,,,57,127
51634,note_off,106,0,0,,10,,,57,127
51634,note_off,0,0,0,,1,,,49,127
51637,note_on,3,0,0,,10,,,57,127
51637,note_on,0,0,0,,1,,,49,127
51743,note_off,106,0,0,,10,,,57,127
51746,note_on,3,0,0,,1,,,61,127
51852,note_off,106,0,0,,1,,,61,127
51852,note_off,0,0,0,,1,,,49,127
51852,note_off,0,0,0,,4,,,52,127
51855,note_on,3,0,0,,10,,,57,127
51855,note_on,0,0,0,,2,,,50,127
51855,note_on,0,0,0,,12,,,47,127
52071,note_off,216,0,0,,12,,,47,127
52071,note_off,0,0,0,,10,,,57,127
52074,note_on,3,0,0,,10,,,57,127
52074,note_on,0,0,0,,12,,,47,127
52180,note_off,106,0,0,,10,,,57,127
52183,note_on,3,0,0,,10,,,57,127
52289,note_off,106,0,0,,10,,,57,127
52289,note_off,0,0,0,,12,,,47,127
52292,note_on,3,0,0,,10,,,57,127
52292,note_on,0,0,0,,12,,,47,127
52398,note_off,106,0,0,,10,,,57,127
52401,note_on,3,0,0,,1,,,61,127
52507,note_off,106,0,0,,1,,,61,127
52507,note_off,0,0,0,,12,,,47,127
52507,note_off,0,0,0,,2,,,50,127
52510,note_on,3,0,0,,10,,,57,127
52510,note_on,0,0,0,,1,,,49,127
52510,note_on,0,0,0,,10,,,45,127
52616,note_off,106,0,0,,10,,,57,127
52619,note_on,3,0,0,,4,,,52,127
52725,note_off,106,0,0,,4,,,52,127
52728,note_on,3,0,0,,1,,,61,127
52834,note_off,106,0,0,,1,,,61,127
52837,note_on,3,0,0,,10,,,57,127
52943,note_off,106,0,0,,10,,,57,127
52946,note_on,3,0,0,,4,,,64,127
53052,note_off,106,0,0,,4,,,64,127
53055,note_on,3,0,0,,1,,,61,127
53161,note_off,106,0,0,,1,,,61,127
53161,note_off,0,0,0,,10,,,45,127
53161,note_off,0,0,0,,1,,,49,127
53164,note_on,3,0,0,,10,,,69,127
53164,note_on,0,0,0,,4,,,52,127
53164,note_on,0,0,0,,10,,,45,127
53164,note_on,0,0,0,,10,,,57,127
53270,note_off,106,0,0,,10,,,69,127
53273,note_on,3,0,0,,4,,,64,127
53379,note_off,106,0,0,,4,,,64,127
53382,note_on,3,0,0,,1,,,73,127
53488,note_off,106,0,0,,1,,,73,127
53491,note_on,3,0,0,,10,,,69,127
53597,note_off,106,0,0,,10,,,69,127
53600,note_on,3,0,0,,4,,,76,127
53706,note_off,106,0,0,,4,,,76,127
53709,note_on,3,0,0,,1,,,73,127
53815,note_off,106,0,0,,1,,,73,127
53815,note_off,0,0,0,,10,,,57,127
53815,note_off,0,0,0,,10,,,45,127
53815,note_off,0,0,0,,4,,,52,127
53818,note_on,3,0,0,,10,,,81,127
53818,note_on,0,0,0,,4,,,52,127
53818,note_on,0,0,0,,10,,,45,127
53818,note_on,0,0,0,,10,,,57,127
53924,note_off,106,0,0,,10,,,81,127
53927,note_on,3,0,0,,4,,,76,127
54033,note_off,106,0,0,,4,,,76,127
54036,note_on,3,0,0,,1,,,73,127
54142,note_off,106,0,0,,1,,,73,127
54145,note_on,3,0,0,,10,,,69,127
54251,note_off,106,0,0,,10,,,69,127
54251,note_off,0,0,0,,10,,,57,127
54251,note_off,0,0,0,,10,,,45,127
54251,note_off,0,0,0,,4,,,52,127
54254,note_on,3,0,0,,4,,,64,127
54254,note_on,0,0,0,,1,,,49,127
54360,note_off,106,0,0,,4,,,64,127
54363,note_on,3,0,0,,1,,,61,127
54469,note_off,106,0,0,,1,,,61,127
54469,note_off,0,0,0,,1,,,49,127
54472,note_on,3,0,0,,6,,,66,127
54472,note_on,0,0,0,,2,,,50,127
54578,note_off,106,0,0,,6,,,66,127
54581,note_on,3,0,0,,2,,,62,127
54687,note_off,106,0,0,,2,,,62,127
54687,note_off,0,0,0,,2,,,50,127
54690,note_on,3,0,0,,1,,,61,127
54690,note_on,0,0,0,,4,,,52,127
54796,note_off,106,0,0,,1,,,61,127
54799,note_on,3,0,0,,12,,,59,127
54905,note_off,106,0,0,,12,,,59,127
54908,note_on,3,0,0,,10,,,57,127
54908,note_on,0,0,0,,4,,,40,127
55014,note_off,106,0,0,,10,,,57,127
55017,note_on,3,0,0,,8,,,56,127
55122,note_off,105,0,0,,4,,,52,127
55123,note_off,1,0,0,,8,,,56,127
55123,note_off,0,0,0,,4,,,40,127
55126,note_on,3,0,0,,10,,,57,127
55126,note_on,0,0,0,,10,,,45,127
55232,note_off,106,0,0,,10,,,57,127
55235,note_on,3,0,0,,4,,,52,127
55341,note_off,106,0,0,,4,,,52,127
55341,note_off,0,0,0,,10,,,45,127
55344,note_on,3,0,0,,1,,,61,127
55344,note_on,0,0,0,,10,,,81,127
55450,note_off,106,0,0,,1,,,61,127
55453,note_on,3,0,0,,4,,,52,127
55559,note_off,106,0,0,,4,,,52,127
55559,note_off,0,0,0,,10,,,81,127
55562,note_on,3,0,0,,10,,,57,127
55562,note_on,0,0,0,,10,,,45,127
55668,note_off,106,0,0,,10,,,57,127
55671,note_on,3,0,0,,4,,,52,127
55777,note_off,106,0,0,,4,,,52,127
55777,note_off,0,0,0,,10,,,45,127
55780,note_on,3,0,0,,12,,,59,127
55780,note_on,0,0,0,,4,,,40,127
55886,note_off,106,0,0,,12,,,59,127
55889,note_on,3,0,0,,4,,,52,127
55995,note_off,106,0,0,,4,,,52,127
55998,note_on,3,0,0,,1,,,61,127
56104,note_off,106,0,0,,1,,,61,127
56107,note_on,3,0,0,,4,,,52,127
56213,note_off,106,0,0,,4,,,52,127
56216,note_on,3,0,0,,2,,,62,127
56322,note_off,106,0,0,,2,,,62,127
56325,note_on,3,0,0,,4,,,52,127
56431,note_off,106,0,0,,4,,,52,127
56431,note_off,0,0,0,,4,,,40,127
56434,note_on,3,0,0,,1,,,61,127
56434,note_on,0,0,0,,10,,,45,127
56540,note_off,106,0,0,,1,,,61,127
56543,note_on,3,0,0,,4,,,52,127
56649,note_off,106,0,0,,4,,,52,127
56649,note_off,0,0,0,,10,,,45,127
56652,note_on,3,0,0,,10,,,57,127
56652,note_on,0,0,0,,10,,,81,127
56758,note_off,106,0,0,,10,,,57,127
56761,note_on,3,0,0,,4,,,52,127
56867,note_off,106,0,0,,4,,,52,127
56867,note_off,0,0,0,,10,,,81,127
56870,note_on,3,0,0,,1,,,61,127
56870,note_on,0,0,0,,10,,,45,127
56976,note_off,106,0,0,,1,,,61,127
56979,note_on,3,0,0,,4,,,52,127
57085,note_off,106,0,0,,4,,,52,127
57085,note_off,0,0,0,,10,,,45,127
57088,note_on,3,0,0,,12,,,59,127
57088,note_on,0,0,0,,4,,,40,127
57194,note_off,106,0,0,,12,,,59,127
57197,note_on,3,0,0,,4,,,52,127
57303,note_off,106,0,0,,4,,,52,127
57306,note_on,3,0,0,,1,,,61,127
57412,note_off,106,0,0,,1,,,61,127
57415,note_on,3,0,0,,4,,,52,127
57521,note_off,106,0,0,,4,,,52,127
57524,note_on,3,0,0,,2,,,62,127
57630,note_off,106,0,0,,2,,,62,127
57633,note_on,3,0,0,,4,,,52,127
57739,note_off,106,0,0,,4,,,52,127
57739,note_off,0,0,0,,4,,,40,127
57742,note_on,3,0,0,,1,,,61,127
57742,note_on,0,0,0,,10,,,45,127
57848,note_off,106,0,0,,1,,,61,127
57851,note_on,3,0,0,,10,,,57,127
57957,note_off,106,0,0,,10,,,57,127
57960,note_on,3,0,0,,4,,,64,127
58066,note_off,106,0,0,,4,,,64,127
58069,note_on,3,0,0,,1,,,61,127
58175,note_off,106,0,0,,1,,,61,127
58175,note_off,0,0,0,,10,,,45,127
58178,note_on,3,0,0,,10,,,69,127
58178,note_on,0,0,0,,1,,,49,127
58284,note_off,106,0,0,,10,,,69,127
58287,note_on,3,0,0,,4,,,64,127
58393,note_off,106,0,0,,4,,,64,127
58393,note_off,0,0,0,,1,,,49,127
58396,note_on,3,0,0,,6,,,78,127
58396,note_on,0,0,0,,2,,,50,127
58502,note_off,106,0,0,,6,,,78,127
58505,note_on,3,0,0,,2,,,74,127
58611,note_off,106,0,0,,2,,,74,127
58611,note_off,0,0,0,,2,,,50,127
58614,note_on,3,0,0,,1,,,73,127
58614,note_on,0,0,0,,4,,,52,127
58720,note_off,106,0,0,,1,,,73,127
58723,note_on,3,0,0,,12,,,71,127
58829,note_off,106,0,0,,12,,,71,127
58832,note_on,3,0,0,,10,,,69,127
58832,note_on,0,0,0,,4,,,40,127
58938,note_off,106,0,0,,10,,,69,127
58941,note_on,3,0,0,,8,,,68,127
59046,note_off,105,0,0,,4,,,52,127
59047,note_off,1,0,0,,8,,,68,127
59047,note_off,0,0,0,,4,,,40,127
59050,note_on,3,0,0,,10,,,69,127
59050,note_on,0,0,0,,10,,,57,127
59156,note_off,106,0,0,,10,,,57,127
59159,note_on,3,0,0,,4,,,64,127
59265,note_off,106,0,0,,4,,,64,127
59265,note_off,0,0,0,,10,,,69,127
59268,note_on,3,0,0,,10,,,81,127
59268,note_on,0,0,0,,1,,,61,127
59374,note_off,106,0,0,,1,,,61,127
59377,note_on,3,0,0,,4,,,64,127
59483,note_off,106,0,0,,4,,,64,127
59483,note_off,0,0,0,,10,,,81,127
59486,note_on,3,0,0,,10,,,45,127
59486,note_on,0,0,0,,10,,,57,127
59592,note_off,106,0,0,,10,,,57,127
59595,note_on,3,0,0,,4,,,64,127
59701,note_off,106,0,0,,4,,,64,127
59701,note_off,0,0,0,,10,,,45,127
59704,note_on,3,0,0,,6,,,42,127
59704,note_on,0,0,0,,4,,,52,127
59759,note_on,55,0,0,,4,,,40,127
59774,note_off,15,0,0,,6,,,42,127
59811,note_off,37,0,0,,4,,,52,127
59814,note_on,3,0,0,,6,,,42,127
59814,note_on,0,0,0,,4,,,64,127
59829,note_off,15,0,0,,4,,,40,127
59869,note_on,40,0,0,,4,,,40,127
59884,note_off,15,0,0,,6,,,42,127
59921,note_off,37,0,0,,4,,,64,127
59924,note_on,3,0,0,,6,,,42,127
59924,note_on,0,0,0,,12,,,59,127
59939,note_off,15,0,0,,4,,,40,127
59979,note_on,40,0,0,,4,,,40,127
59994,note_off,15,0,0,,6,,,42,127
60031,note_off,37,0,0,,12,,,59,127
60034,note_on,3,0,0,,6,,,42,127
60034,note_on,0,0,0,,4,,,64,127
60049,note_off,15,0,0,,4,,,40,127
60089,note_on,40,0,0,,4,,,40,127
60104,note_off,15,0,0,,6,,,42,127
60141,note_off,37,0,0,,4,,,64,127
60144,note_on,3,0,0,,8,,,56,127
60250,note_off,106,0,0,,8,,,56,127
60253,note_on,3,0,0,,4,,,64,127
60359,note_off,106,0,0,,4,,,64,127
60362,note_on,3,0,0,,10,,,57,127
60417,note_off,55,0,0,,4,,,40,127
60468,note_off,51,0,0,,10,,,57,127
60471,note_on,3,0,0,,4,,,64,127
60577,note_off,106,0,0,,4,,,64,127
60580,note_on,3,0,0,,10,,,81,127
60580,note_on,0,0,0,,1,,,61,127
60686,note_off,106,0,0,,1,,,61,127
60689,note_on,3,0,0,,4,,,64,127
60795,note_off,106,0,0,,4,,,64,127
60795,note_off,0,0,0,,10,,,81,127
60798,note_on,3,0,0,,10,,,69,127
60798,note_on,0,0,0,,10,,,57,127
60904,note_off,106,0,0,,10,,,57,127
60907,note_on,3,0,0,,4,,,64,127
61013,note_off,106,0,0,,4,,,64,127
61013,note_off,0,0,0,,10,,,69,127
61016,note_on,3,0,0,,6,,,42,127
61016,note_on,0,0,0,,4,,,52,127
61071,note_on,55,0,0,,4,,,40,127
61086,note_off,15,0,0,,6,,,42,127
61123,note_off,37,0,0,,4,,,52,127
61126,note_on,3,0,0,,6,,,42,127
61126,note_on,0,0,0,,4,,,64,127
61141,note_off,15,0,0,,4,,,40,127
61181,note_on,40,0,0,,4,,,40,127
61196,note_off,15,0,0,,6,,,42,127
61233,note_off,37,0,0,,4,,,64,127
61236,note_on,3,0,0,,6,,,42,127
61236,note_on,0,0,0,,12,,,59,127
61251,note_off,15,0,0,,4,,,40,127
61291,note_on,40,0,0,,4,,,40,127
61306,note_off,15,0,0,,6,,,42,127
61343,note_off,37,0,0,,12,,,59,127
61346,note_on,3,0,0,,6,,,42,127
61346,note_on,0,0,0,,4,,,64,127
61361,note_off,15,0,0,,4,,,40,127
61401,note_on,40,0,0,,4,,,40,127
61416,note_off,15,0,0,,6,,,42,127
61453,note_off,37,0,0,,4,,,64,127
61456,note_on,3,0,0,,8,,,56,127
61562,note_off,106,0,0,,8,,,56,127
61565,note_on,3,0,0,,4,,,64,127
61671,note_off,106,0,0,,4,,,64,127
61671,note_off,0,0,0,,4,,,40,127
61674,note_on,3,0,0,,10,,,81,127
61674,note_on,0,0,0,,10,,,57,127
61780,note_off,106,0,0,,10,,,81,127
61783,note_on,3,0,0,,4,,,76,127
61889,note_off,106,0,0,,4,,,76,127
61892,note_on,3,0,0,,1,,,73,127
61998,note_off,106,0,0,,1,,,73,127
62001,note_on,3,0,0,,10,,,69,127
62107,note_off,106,0,0,,10,,,69,127
62107,note_off,0,0,0,,10,,,57,127
62110,note_on,3,0,0,,4,,,64,127
62110,note_on,0,0,0,,1,,,49,127
62216,note_off,106,0,0,,4,,,64,127
62219,note_on,3,0,0,,1,,,61,127
62325,note_off,106,0,0,,1,,,61,127
62325,note_off,0,0,0,,1,,,49,127
62328,note_on,3,0,0,,6,,,66,127
62328,note_on,0,0,0,,2,,,50,127
62434,note_off,106,0,0,,6,,,66,127
62437,note_on,3,0,0,,2,,,62,127
62543,note_off,106,0,0,,2,,,62,127
62543,note_off,0,0,0,,2,,,50,127
62546,note_on,3,0,0,,1,,,61,127
62546,note_on,0,0,0,,4,,,52,127
62652,note_off,106,0,0,,1,,,61,127
62655,note_on,3,0,0,,12,,,59,127
62761,note_off,106,0,0,,12,,,59,127
62764,note_on,3,0,0,,10,,,57,127
62764,note_on,0,0,0,,4,,,40,127
62870,note_off,106,0,0,,10,,,57,127
62873,note_on,3,0,0,,8,,,56,127
62964,note_off,91,0,0,,8,,,56,127
62978,note_off,14,0,0,,4,,,52,127
62979,note_off,1,0,0,,4,,,40,127
62982,note_on,3,0,0,,10,,,81,127
62982,note_on,0,0,0,,10,,,45,127
63088,note_off,106,0,0,,10,,,81,127
63091,note_on,3,0,0,,4,,,76,127
63197,note_off,106,0,0,,4,,,76,127
63197,note_off,0,0,0,,10,,,45,127
63200,note_on,3,0,0,,1,,,73,127
63200,note_on,0,0,0,,10,,,57,127
63306,note_off,106,0,0,,1,,,73,127
63309,note_on,3,0,0,,10,,,69,127
63415,note_off,106,0,0,,10,,,69,127
63415,note_off,0,0,0,,10,,,57,127
63418,note_on,3,0,0,,4,,,64,127
63418,note_on,0,0,0,,1,,,49,127
63524,note_off,106,0,0,,4,,,64,127
63527,note_on,3,0,0,,1,,,61,127
63633,note_off,106,0,0,,1,,,61,127
63633,note_off,0,0,0,,1,,,49,127
63636,note_on,3,0,0,,6,,,66,127
63636,note_on,0,0,0,,2,,,50,127
63742,note_off,106,0,0,,6,,,66,127
63745,note_on,3,0,0,,2,,,62,127
63851,note_off,106,0,0,,2,,,62,127
63851,note_off,0,0,0,,2,,,50,127
63854,note_on,3,0,0,,1,,,61,127
63854,note_on,0,0,0,,4,,,52,127
63960,note_off,106,0,0,,1,,,61,127
63963,note_on,3,0,0,,12,,,59,127
64069,note_off,106,0,0,,12,,,59,127
64072,note_on,3,0,0,,10,,,57,127
64072,note_on,0,0,0,,4,,,40,127
64178,note_off,106,0,0,,10,,,57,127
64181,note_on,3,0,0,,8,,,56,127
64286,note_off,105,0,0,,4,,,52,127
64287,note_off,1,0,0,,8,,,56,127
64287,note_off,0,0,0,,4,,,40,127
64290,note_on,3,0,0,,12,,,59,127
64290,note_on,0,0,0,,10,,,45,127
64345,note_on,55,0,0,,10,,,57,127
64396,note_off,51,0,0,,12,,,59,127
64399,note_on,3,0,0,,12,,,59,127
64423,note_off,24,0,0,,10,,,57,127
64454,note_on,31,0,0,,10,,,57,127
64469,note_off,15,0,0,,12,,,59,127
64892,note_off,423,0,0,,10,,,57,127
64945,note_off,53,0,0,,10,,,45,127
64948,note_on,3,0,0,,10,,,69,127
65167,note_on,219,0,0,,10,,,81,127
65383,note_off,216,0,0,,10,,,81,127
65386,note_on,3,0,0,,10,,,81,127
65602,note_off,216,0,0,,10,,,81,127
65605,note_on,3,0,0,,10,,,81,127
65605,note_on,0,0,0,,11,,,82,127
65821,note_off,216,0,0,,10,,,81,127
65821,note_off,0,0,0,,10,,,69,127
65824,note_on,3,0,0,,7,,,79,127
65824,note_on,0,0,0,,10,,,69,127
66040,note_off,216,0,0,,10,,,69,127
66040,note_off,0,0,0,,7,,,79,127
66040,note_off,0,0,0,,11,,,82,127
66043,note_on,3,0,0,,5,,,77,127
66043,note_on,0,0,0,,10,,,81,127
66043,note_on,0,0,0,,10,,,69,127
66259,note_off,216,0,0,,10,,,81,127
66259,note_off,0,0,0,,5,,,77,127
66262,note_on,3,0,0,,7,,,79,127
66262,note_on,0,0,0,,5,,,77,127
66478,note_off,216,0,0,,5,,,77,127
66478,note_off,0,0,0,,10,,,69,127
66481,note_on,3,0,0,,4,,,76,127
66481,note_on,0,0,0,,10,,,69,127
66697,note_off,216,0,0,,10,,,69,127
66697,note_off,0,0,0,,4,,,76,127
66697,note_off,0,0,0,,7,,,79,127
66700,note_on,3,0,0,,2,,,74,127
66700,note_on,0,0,0,,5,,,77,127
66700,note_on,0,0,0,,10,,,69,127
66916,note_off,216,0,0,,5,,,77,127
66916,note_off,0,0,0,,2,,,74,127
66919,note_on,3,0,0,,7,,,79,127
66919,note_on,0,0,0,,4,,,76,127
66919,note_on,0,0,0,,10,,,81,127
67135,note_off,216,0,0,,10,,,81,127
67135,note_off,0,0,0,,4,,,76,127
67135,note_off,0,0,0,,7,,,79,127
67135,note_off,0,0,0,,10,,,69,127
67138,note_on,3,0,0,,2,,,74,127
67138,note_on,0,0,0,,5,,,77,127
67138,note_on,0,0,0,,10,,,69,127
67354,note_off,216,0,0,,10,,,69,127
67354,note_off,0,0,0,,5,,,77,127
67354,note_off,0,0,0,,2,,,74,127
67357,note_on,3,0,0,,4,,,76,127
67357,note_on,0,0,0,,7,,,79,127
67357,note_on,0,0,0,,10,,,69,127
67573,note_off,216,0,0,,10,,,69,127
67576,note_on,3,0,0,,10,,,57,127
67792,note_off,216,0,0,,7,,,79,127
67792,note_off,0,0,0,,4,,,76,127
67795,note_on,3,0,0,,4,,,76,127
67795,note_on,0,0,0,,7,,,79,127
68011,note_off,216,0,0,,7,,,79,127
68011,note_off,0,0,0,,4,,,76,127
68014,note_on,3,0,0,,7,,,79,127
68014,note_on,0,0,0,,11,,,82,127
68230,note_off,216,0,0,,11,,,82,127
68230,note_off,0,0,0,,7,,,79,127
68233,note_on,3,0,0,,10,,,81,127
68233,note_on,0,0,0,,7,,,79,127
68449,note_off,216,0,0,,7,,,79,127
68449,note_off,0,0,0,,10,,,57,127
68452,note_on,3,0,0,,5,,,77,127
68452,note_on,0,0,0,,10,,,69,127
68668,note_off,216,0,0,,10,,,69,127
68668,note_off,0,0,0,,5,,,77,127
68668,note_off,0,0,0,,10,,,81,127
68671,note_on,3,0,0,,7,,,79,127
68671,note_on,0,0,0,,4,,,76,127
68671,note_on,0,0,0,,10,,,69,127
68887,note_off,216,0,0,,4,,,76,127
68887,note_off,0,0,0,,7,,,79,127
68890,note_on,3,0,0,,4,,,76,127
68890,note_on,0,0,0,,5,,,77,127
69106,note_off,216,0,0,,4,,,76,127
69106,note_off,0,0,0,,10,,,69,127
69109,note_on,3,0,0,,2,,,74,127
69109,note_on,0,0,0,,10,,,69,127
69325,note_off,216,0,0,,10,,,69,127
69325,note_off,0,0,0,,2,,,74,127
69325,note_off,0,0,0,,5,,,77,127
69328,note_on,3,0,0,,1,,,73,127
69328,note_on,0,0,0,,4,,,76,127
69328,note_on,0,0,0,,10,,,69,127
69544,note_off,216,0,0,,4,,,76,127
69544,note_off,0,0,0,,1,,,73,127
69547,note_on,3,0,0,,7,,,79,127
69547,note_on,0,0,0,,2,,,74,127
69547,note_on,0,0,0,,5,,,77,127
69763,note_off,216,0,0,,5,,,77,127
69763,note_off,0,0,0,,2,,,74,127
69763,note_off,0,0,0,,7,,,79,127
69763,note_off,0,0,0,,10,,,69,127
69766,note_on,3,0,0,,1,,,73,127
69766,note_on,0,0,0,,4,,,76,127
69766,note_on,0,0,0,,10,,,69,127
69982,note_off,216,0,0,,10,,,69,127
69982,note_off,0,0,0,,4,,,76,127
69982,note_off,0,0,0,,1,,,73,127
69985,note_on,3,0,0,,2,,,74,127
69985,note_on,0,0,0,,5,,,77,127
69985,note_on,0,0,0,,10,,,69,127
70201,note_off,216,0,0,,10,,,69,127
70204,note_on,3,0,0,,10,,,57,127
70420,note_off,216,0,0,,5,,,77,127
70420,note_off,0,0,0,,2,,,74,127
70423,note_on,3,0,0,,2,,,74,127
70423,note_on,0,0,0,,5,,,77,127
70639,note_off,216,0,0,,5,,,77,127
70639,note_off,0,0,0,,2,,,74,127
70642,note_on,3,0,0,,5,,,77,127
70642,note_on,0,0,0,,10,,,81,127
70858,note_off,216,0,0,,10,,,81,127
70858,note_off,0,0,0,,5,,,77,127
70861,note_on,3,0,0,,5,,,77,127
70861,note_on,0,0,0,,7,,,79,127
71077,note_off,216,0,0,,5,,,77,127
71077,note_off,0,0,0,,10,,,57,127
71080,note_on,3,0,0,,4,,,76,127
71080,note_on,0,0,0,,10,,,69,127
71296,note_off,216,0,0,,10,,,69,127
71296,note_off,0,0,0,,4,,,76,127
71296,note_off,0,0,0,,7,,,79,127
71299,note_on,3,0,0,,5,,,77,127
71299,note_on,0,0,0,,2,,,74,127
71299,note_on,0,0,0,,10,,,69,127
71515,note_off,216,0,0,,10,,,69,127
71515,note_off,0,0,0,,2,,,74,127
71515,note_off,0,0,0,,5,,,77,127
71518,note_on,3,0,0,,2,,,74,127
71518,note_on,0,0,0,,4,,,76,127
71518,note_on,0,0,0,,10,,,57,127
71734,note_off,216,0,0,,2,,,74,127
71737,note_on,3,0,0,,1,,,73,127
71737,note_on,0,0,0,,10,,,69,127
71952,note_off,215,0,0,,10,,,57,127
71953,note_off,1,0,0,,10,,,69,127
71953,note_off,0,0,0,,1,,,73,127
71953,note_off,0,0,0,,4,,,76,127
71956,note_on,3,0,0,,2,,,74,127
71956,note_on,0,0,0,,4,,,76,127
71956,note_on,0,0,0,,12,,,71,127
71956,note_on,0,0,0,,8,,,68,127
72172,note_off,216,0,0,,8,,,68,127
72172,note_off,0,0,0,,12,,,71,127
72172,note_off,0,0,0,,4,,,76,127
72172,note_off,0,0,0,,2,,,74,127
72175,note_on,3,0,0,,2,,,74,127
72175,note_on,0,0,0,,10,,,69,127
72175,note_on,0,0,0,,4,,,76,127
72230,note_on,55,0,0,,1,,,73,127
72247,note_off,17,0,0,,2,,,74,127
72285,note_on,38,0,0,,2,,,74,127
72302,note_off,17,0,0,,1,,,73,127
72340,note_on,38,0,0,,1,,,73,127
72357,note_off,17,0,0,,2,,,74,127
72391,note_off,34,0,0,,4,,,76,127
72391,note_off,0,0,0,,10,,,69,127
72394,note_on,3,0,0,,2,,,74,127
72394,note_on,0,0,0,,10,,,69,127
72394,note_on,0,0,0,,4,,,76,127
72411,note_off,17,0,0,,1,,,73,127
72449,note_on,38,0,0,,1,,,73,127
72466,note_off,17,0,0,,2,,,74,127
72504,note_on,38,0,0,,2,,,74,127
72521,note_off,17,0,0,,1,,,73,127
72559,note_on,38,0,0,,1,,,73,127
72576,note_off,17,0,0,,2,,,74,127
72610,note_off,34,0,0,,4,,,76,127
72610,note_off,0,0,0,,10,,,69,127
72613,note_on,3,0,0,,2,,,74,127
72613,note_on,0,0,0,,10,,,69,127
72613,note_on,0,0,0,,4,,,76,127
72630,note_off,17,0,0,,1,,,73,127
72668,note_on,38,0,0,,1,,,73,127
72685,note_off,17,0,0,,2,,,74,127
72723,note_on,38,0,0,,2,,,74,127
72740,note_off,17,0,0,,1,,,73,127
72778,note_on,38,0,0,,1,,,73,127
72795,note_off,17,0,0,,2,,,74,127
72829,note_off,34,0,0,,4,,,76,127
72829,note_off,0,0,0,,10,,,69,127
72832,note_on,3,0,0,,12,,,71,127
72832,note_on,0,0,0,,2,,,74,127
72832,note_on,0,0,0,,8,,,68,127
72832,note_on,0,0,0,,4,,,76,127
72849,note_off,17,0,0,,1,,,73,127
73048,note_off,199,0,0,,4,,,76,127
73048,note_off,0,0,0,,8,,,68,127
73048,note_off,0,0,0,,2,,,74,127
73048,note_off,0,0,0,,12,,,71,127
73051,note_on,3,0,0,,1,,,73,127
73051,note_on,0,0,0,,8,,,68,127
73051,note_on,0,0,0,,4,,,76,127
73051,note_on,0,0,0,,2,,,74,127
73267,note_off,216,0,0,,2,,,74,127
73267,note_off,0,0,0,,4,,,76,127
73267,note_off,0,0,0,,8,,,68,127
73267,note_off,0,0,0,,1,,,73,127
73270,note_on,3,0,0,,2,,,74,127
73270,note_on,0,0,0,,4,,,76,127
73270,note_on,0,0,0,,8,,,68,127
73486,note_off,216,0,0,,8,,,68,127
73486,note_off,0,0,0,,4,,,76,127
73486,note_off,0,0,0,,2,,,74,127
73489,note_on,3,0,0,,2,,,74,127
73489,note_on,0,0,0,,4,,,76,127
73489,note_on,0,0,0,,10,,,69,127
73544,note_on,55,0,0,,1,,,73,127
73561,note_off,17,0,0,,2,,,74,127
73599,note_on,38,0,0,,2,,,74,127
73616,note_off,17,0,0,,1,,,73,127
73654,note_on,38,0,0,,1,,,73,127
73671,note_off,17,0,0,,2,,,74,127
73705,note_off,34,0,0,,10,,,69,127
73705,note_off,0,0,0,,4,,,76,127
73708,note_on,3,0,0,,2,,,74,127
73708,note_on,0,0,0,,4,,,76,127
73708,note_on,0,0,0,,10,,,69,127
73725,note_off,17,0,0,,1,,,73,127
73763,note_on,38,0,0,,1,,,73,127
73780,note_off,17,0,0,,2,,,74,127
73818,note_on,38,0,0,,2,,,74,127
73835,note_off,17,0,0,,1,,,73,127
73873,note_on,38,0,0,,1,,,73,127
73890,note_off,17,0,0,,2,,,74,127
73924,note_off,34,0,0,,10,,,69,127
73924,note_off,0,0,0,,4,,,76,127
73927,note_on,3,0,0,,2,,,74,127
73927,note_on,0,0,0,,10,,,69,127
73927,note_on,0,0,0,,4,,,76,127
73944,note_off,17,0,0,,1,,,73,127
73982,note_on,38,0,0,,1,,,73,127
73999,note_off,17,0,0,,2,,,74,127
74037,note_on,38,0,0,,2,,,74,127
74054,note_off,17,0,0,,1,,,73,127
74092,note_on,38,0,0,,1,,,73,127
74109,note_off,17,0,0,,2,,,74,127
74143,note_off,34,0,0,,4,,,76,127
74143,note_off,0,0,0,,10,,,69,127
74146,note_on,3,0,0,,12,,,71,127
74146,note_on,0,0,0,,8,,,68,127
74146,note_on,0,0,0,,4,,,76,127
74146,note_on,0,0,0,,2,,,74,127
74163,note_off,17,0,0,,1,,,73,127
74362,note_off,199,0,0,,2,,,74,127
74362,note_off,0,0,0,,4,,,76,127
74362,note_off,0,0,0,,8,,,68,127
74362,note_off,0,0,0,,12,,,71,127
74365,note_on,3,0,0,,1,,,73,127
74365,note_on,0,0,0,,8,,,68,127
74365,note_on,0,0,0,,4,,,76,127
74365,note_on,0,0,0,,2,,,74,127
74581,note_off,216,0,0,,2,,,74,127
74581,note_off,0,0,0,,4,,,76,127
74581,note_off,0,0,0,,8,,,68,127
74581,note_off,0,0,0,,1,,,73,127
74584,note_on,3,0,0,,2,,,74,127
74584,note_on,0,0,0,,8,,,68,127
74584,note_on,0,0,0,,4,,,76,127
74800,note_off,216,0,0,,4,,,76,127
74800,note_off,0,0,0,,8,,,68,127
74800,note_off,0,0,0,,2,,,74,127
74803,note_on,3,0,0,,2,,,74,127
74803,note_on,0,0,0,,4,,,76,127
74803,note_on,0,0,0,,10,,,69,127
74858,note_on,55,0,0,,1,,,73,127
74875,note_off,17,0,0,,2,,,74,127
74913,note_on,38,0,0,,2,,,74,127
74930,note_off,17,0,0,,1,,,73,127
74968,note_on,38,0,0,,1,,,73,127
74985,note_off,17,0,0,,2,,,74,127
75019,note_off,34,0,0,,10,,,69,127
75019,note_off,0,0,0,,4,,,76,127
75022,note_on,3,0,0,,2,,,74,127
75022,note_on,0,0,0,,4,,,76,127
75022,note_on,0,0,0,,10,,,69,127
75039,note_off,17,0,0,,1,,,73,127
75077,note_on,38,0,0,,1,,,73,127
75094,note_off,17,0,0,,2,,,74,127
75132,note_on,38,0,0,,2,,,74,127
75149,note_off,17,0,0,,1,,,73,127
75187,note_on,38,0,0,,1,,,73,127
75204,note_off,17,0,0,,2,,,74,127
75238,note_off,34,0,0,,10,,,69,127
75238,note_off,0,0,0,,4,,,76,127
75241,note_on,3,0,0,,2,,,74,127
75241,note_on,0,0,0,,10,,,69,127
75241,note_on,0,0,0,,4,,,76,127
75258,note_off,17,0,0,,1,,,73,127
75296,note_on,38,0,0,,1,,,73,127
75313,note_off,17,0,0,,2,,,74,127
75351,note_on,38,0,0,,2,,,74,127
75368,note_off,17,0,0,,1,,,73,127
75406,note_on,38,0,0,,1,,,73,127
75423,note_off,17,0,0,,2,,,74,127
75457,note_off,34,0,0,,4,,,76,127
75457,note_off,0,0,0,,10,,,69,127
75458,note_off,1,0,0,,1,,,73,127
75460,note_on,2,0,0,,1,,,73,127
75460,note_on,0,0,0,,7,,,67,127
75460,note_on,0,0,0,,4,,,76,127
75515,note_on,55,0,0,,12,,,71,127
75532,note_off,17,0,0,,1,,,73,127
75570,note_on,38,0,0,,1,,,73,127
75587,note_off,17,0,0,,12,,,71,127
75625,note_on,38,0,0,,12,,,71,127
75642,note_off,17,0,0,,1,,,73,127
75676,note_off,34,0,0,,4,,,76,127
75676,note_off,0,0,0,,7,,,67,127
75679,note_on,3,0,0,,1,,,73,127
75679,note_on,0,0,0,,4,,,76,127
75679,note_on,0,0,0,,7,,,67,127
75696,note_off,17,0,0,,12,,,71,127
75734,note_on,38,0,0,,12,,,71,127
75751,note_off,17,0,0,,1,,,73,127
75789,note_on,38,0,0,,1,,,73,127
75806,note_off,17,0,0,,12,,,71,127
75844,note_on,38,0,0,,12,,,71,127
75861,note_off,17,0,0,,1,,,73,127
75895,note_off,34,0,0,,7,,,67,127
75895,note_off,0,0,0,,4,,,76,127
75898,note_on,3,0,0,,1,,,73,127
75898,note_on,0,0,0,,4,,,76,127
75898,note_on,0,0,0,,7,,,67,127
75915,note_off,17,0,0,,12,,,71,127
75953,note_on,38,0,0,,12,,,71,127
75970,note_off,17,0,0,,1,,,73,127
76008,note_on,38,0,0,,1,,,73,127
76025,note_off,17,0,0,,12,,,71,127
76063,note_on,38,0,0,,12,,,71,127
76080,note_off,17,0,0,,1,,,73,127
76114,note_off,34,0,0,,7,,,67,127
76114,note_off,0,0,0,,4,,,76,127
76115,note_off,1,0,0,,12,,,71,127
76117,note_on,2,0,0,,12,,,71,127
76117,note_on,0,0,0,,6,,,66,127
76117,note_on,0,0,0,,4,,,76,127
76172,note_on,55,0,0,,11,,,70,127
76189,note_off,17,0,0,,12,,,71,127
76227,note_on,38,0,0,,12,,,71,127
76244,note_off,17,0,0,,11,,,70,127
76282,note_on,38,0,0,,11,,,70,127
76299,note_off,17,0,0,,12,,,71,127
76333,note_off,34,0,0,,4,,,76,127
76333,note_off,0,0,0,,6,,,66,127
76336,note_on,3,0,0,,12,,,71,127
76336,note_on,0,0,0,,6,,,66,127
76336,note_on,0,0,0,,4,,,76,127
76353,note_off,17,0,0,,11,,,70,127
76391,note_on,38,0,0,,11,,,70,127
76408,note_off,17,0,0,,12,,,71,127
76446,note_on,38,0,0,,8,,,68,127
76463,note_off,17,0,0,,11,,,70,127
76501,note_on,38,0,0,,11,,,70,127
76518,note_off,17,0,0,,8,,,68,127
76552,note_off,34,0,0,,4,,,76,127
76552,note_off,0,0,0,,6,,,66,127
76555,note_on,3,0,0,,12,,,71,127
76555,note_on,0,0,0,,7,,,67,127
76555,note_on,0,0,0,,4,,,76,127
76572,note_off,17,0,0,,11,,,70,127
76771,note_off,199,0,0,,4,,,76,127
76771,note_off,0,0,0,,7,,,67,127
76772,note_off,1,0,0,,12,,,71,127
76774,note_on,2,0,0,,12,,,71,127
76774,note_on,0,0,0,,4,,,76,127
76774,note_on,0,0,0,,6,,,66,127
76829,note_on,55,0,0,,11,,,70,127
76846,note_off,17,0,0,,12,,,71,127
76884,note_on,38,0,0,,12,,,71,127
76901,note_off,17,0,0,,11,,,70,127
76939,note_on,38,0,0,,11,,,70,127
76956,note_off,17,0,0,,12,,,71,127
76990,note_off,34,0,0,,6,,,66,127
76990,note_off,0,0,0,,4,,,76,127
76993,note_on,3,0,0,,12,,,71,127
76993,note_on,0,0,0,,6,,,66,127
76993,note_on,0,0,0,,4,,,76,127
77010,note_off,17,0,0,,11,,,70,127
77048,note_on,38,0,0,,11,,,70,127
77065,note_off,17,0,0,,12,,,71,127
77103,note_on,38,0,0,,8,,,68,127
77120,note_off,17,0,0,,11,,,70,127
77158,note_on,38,0,0,,11,,,70,127
77175,note_off,17,0,0,,8,,,68,127
77209,note_off,34,0,0,,4,,,76,127
77209,note_off,0,0,0,,6,,,66,127
77212,note_on,3,0,0,,12,,,71,127
77212,note_on,0,0,0,,4,,,76,127
77212,note_on,0,0,0,,7,,,67,127
77229,note_off,17,0,0,,11,,,70,127
77428,note_off,199,0,0,,7,,,67,127
77428,note_off,0,0,0,,4,,,76,127
77429,note_off,1,0,0,,12,,,71,127
77431,note_on,2,0,0,,12,,,71,127
77431,note_on,0,0,0,,6,,,66,127
77431,note_on,0,0,0,,4,,,76,127
77486,note_on,55,0,0,,11,,,70,127
77503,note_off,17,0,0,,12,,,71,127
77541,note_on,38,0,0,,12,,,71,127
77558,note_off,17,0,0,,11,,,70,127
77596,note_on,38,0,0,,11,,,70,127
77613,note_off,17,0,0,,12,,,71,127
77647,note_off,34,0,0,,4,,,76,127
77647,note_off,0,0,0,,6,,,66,127
77650,note_on,3,0,0,,12,,,71,127
77650,note_on,0,0,0,,6,,,66,127
77650,note_on,0,0,0,,4,,,76,127
77667,note_off,17,0,0,,11,,,70,127
77705,note_on,38,0,0,,11,,,70,127
77722,note_off,17,0,0,,12,,,71,127
77760,note_on,38,0,0,,8,,,68,127
77777,note_off,17,0,0,,11,,,70,127
77815,note_on,38,0,0,,11,,,70,127
77832,note_off,17,0,0,,8,,,68,127
77866,note_off,34,0,0,,4,,,76,127
77866,note_off,0,0,0,,6,,,66,127
77869,note_on,3,0,0,,12,,,71,127
77869,note_on,0,0,0,,7,,,67,127
77869,note_on,0,0,0,,4,,,76,127
77886,note_off,17,0,0,,11,,,70,127
78085,note_off,199,0,0,,4,,,76,127
78085,note_off,0,0,0,,7,,,67,127
78085,note_off,0,0,0,,12,,,71,127
78088,note_on,3,0,0,,0,,,72,127
78088,note_on,0,0,0,,4,,,76,127
78088,note_on,0,0,0,,10,,,69,127
78088,note_on,0,0,0,,6,,,66,127
78143,note_on,55,0,0,,3,,,75,127
78160,note_off,17,0,0,,4,,,76,127
78198,note_on,38,0,0,,4,,,76,127
78215,note_off,17,0,0,,3,,,75,127
78253,note_on,38,0,0,,3,,,75,127
78270,note_off,17,0,0,,4,,,76,127
78304,note_off,34,0,0,,6,,,66,127
78304,note_off,0,0,0,,10,,,69,127
78307,note_on,3,0,0,,4,,,76,127
78307,note_on,0,0,0,,10,,,69,127
78307,note_on,0,0,0,,6,,,66,127
78324,note_off,17,0,0,,3,,,75,127
78362,note_on,38,0,0,,3,,,75,127
78379,note_off,17,0,0,,4,,,76,127
78417,note_on,38,0,0,,1,,,73,127
78434,note_off,17,0,0,,3,,,75,127
78472,note_on,38,0,0,,3,,,75,127
78489,note_off,17,0,0,,1,,,73,127
78523,note_off,34,0,0,,6,,,66,127
78523,note_off,0,0,0,,10,,,69,127
78523,note_off,0,0,0,,0,,,72,127
78526,note_on,3,0,0,,4,,,76,127
78526,note_on,0,0,0,,12,,,71,127
78526,note_on,0,0,0,,7,,,67,127
78543,note_off,17,0,0,,3,,,75,127
78742,note_off,199,0,0,,7,,,67,127
78742,note_off,0,0,0,,12,,,71,127
78742,note_off,0,0,0,,4,,,76,127
78745,note_on,3,0,0,,0,,,72,127
78745,note_on,0,0,0,,4,,,76,127
78745,note_on,0,0,0,,10,,,69,127
78745,note_on,0,0,0,,6,,,66,127
78800,note_on,55,0,0,,3,,,75,127
78817,note_off,17,0,0,,4,,,76,127
78855,note_on,38,0,0,,4,,,76,127
78872,note_off,17,0,0,,3,,,75,127
78910,note_on,38,0,0,,3,,,75,127
78927,note_off,17,0,0,,4,,,76,127
78961,note_off,34,0,0,,6,,,66,127
78961,note_off,0,0,0,,10,,,69,127
78964,note_on,3,0,0,,4,,,76,127
78964,note_on,0,0,0,,6,,,66,127
78964,note_on,0,0,0,,10,,,69,127
78981,note_off,17,0,0,,3,,,75,127
79019,note_on,38,0,0,,3,,,75,127
79036,note_off,17,0,0,,4,,,76,127
79074,note_on,38,0,0,,1,,,73,127
79091,note_off,17,0,0,,3,,,75,127
79129,note_on,38,0,0,,3,,,75,127
79146,note_off,17,0,0,,1,,,73,127
79180,note_off,34,0,0,,10,,,69,127
79180,note_off,0,0,0,,6,,,66,127
79180,note_off,0,0,0,,0,,,72,127
79183,note_on,3,0,0,,4,,,76,127
79183,note_on,0,0,0,,12,,,71,127
79183,note_on,0,0,0,,7,,,67,127
79200,note_off,17,0,0,,3,,,75,127
79399,note_off,199,0,0,,7,,,67,127
79399,note_off,0,0,0,,12,,,71,127
79399,note_off,0,0,0,,4,,,76,127
79402,note_on,3,0,0,,0,,,72,127
79402,note_on,0,0,0,,4,,,76,127
79402,note_on,0,0,0,,6,,,66,127
79402,note_on,0,0,0,,10,,,69,127
79457,note_on,55,0,0,,3,,,75,127
79474,note_off,17,0,0,,4,,,76,127
79512,note_on,38,0,0,,4,,,76,127
79529,note_off,17,0,0,,3,,,75,127
79567,note_on,38,0,0,,3,,,75,127
79584,note_off,17,0,0,,4,,,76,127
79618,note_off,34,0,0,,10,,,69,127
79618,note_off,0,0,0,,6,,,66,127
79621,note_on,3,0,0,,4,,,76,127
79621,note_on,0,0,0,,6,,,66,127
79621,note_on,0,0,0,,10,,,69,127
79638,note_off,17,0,0,,3,,,75,127
79676,note_on,38,0,0,,3,,,75,127
79693,note_off,17,0,0,,4,,,76,127
79731,note_on,38,0,0,,1,,,73,127
79748,note_off,17,0,0,,3,,,75,127
79786,note_on,38,0,0,,3,,,75,127
79803,note_off,17,0,0,,1,,,73,127
79837,note_off,34,0,0,,10,,,69,127
79837,note_off,0,0,0,,6,,,66,127
79837,note_off,0,0,0,,0,,,72,127
79840,note_on,3,0,0,,4,,,76,127
79840,note_on,0,0,0,,0,,,72,127
79840,note_on,0,0,0,,10,,,69,127
79840,note_on,0,0,0,,4,,,64,127
79857,note_off,17,0,0,,3,,,75,127
80056,note_off,199,0,0,,4,,,64,127
80056,note_off,0,0,0,,10,,,69,127
80056,note_off,0,0,0,,0,,,72,127
80056,note_off,0,0,0,,4,,,76,127
80059,note_on,3,0,0,,12,,,71,127
80059,note_on,0,0,0,,7,,,79,127
80059,note_on,0,0,0,,10,,,69,127
80059,note_on,0,0,0,,3,,,63,127
80114,note_on,55,0,0,,6,,,78,127
80131,note_off,17,0,0,,7,,,79,127
80169,note_on,38,0,0,,7,,,79,127
80186,note_off,17,0,0,,6,,,78,127
80224,note_on,38,0,0,,6,,,78,127
80241,note_off,17,0,0,,7,,,79,127
80275,note_off,34,0,0,,3,,,63,127
80275,note_off,0,0,0,,10,,,69,127
80278,note_on,3,0,0,,7,,,79,127
80278,note_on,0,0,0,,10,,,69,127
80278,note_on,0,0,0,,3,,,63,127
80295,note_off,17,0,0,,6,,,78,127
80333,note_on,38,0,0,,6,,,78,127
80350,note_off,17,0,0,,7,,,79,127
80388,note_on,38,0,0,,4,,,76,127
80405,note_off,17,0,0,,6,,,78,127
80443,note_on,38,0,0,,6,,,78,127
80460,note_off,17,0,0,,4,,,76,127
80494,note_off,34,0,0,,3,,,63,127
80494,note_off,0,0,0,,10,,,69,127
80494,note_off,0,0,0,,12,,,71,127
80497,note_on,3,0,0,,7,,,79,127
80497,note_on,0,0,0,,4,,,76,127
80497,note_on,0,0,0,,12,,,71,127
80497,note_on,0,0,0,,4,,,64,127
80497,note_on,0,0,0,,7,,,67,127
80514,note_off,17,0,0,,6,,,78,127
80713,note_off,199,0,0,,7,,,67,127
80713,note_off,0,0,0,,4,,,64,127
80713,note_off,0,0,0,,12,,,71,127
80713,note_off,0,0,0,,4,,,76,127
80713,note_off,0,0,0,,7,,,79,127
80716,note_on,3,0,0,,12,,,71,127
80716,note_on,0,0,0,,7,,,79,127
80716,note_on,0,0,0,,10,,,69,127
80716,note_on,0,0,0,,3,,,63,127
80771,note_on,55,0,0,,6,,,78,127
80788,note_off,17,0,0,,7,,,79,127
80826,note_on,38,0,0,,7,,,79,127
80843,note_off,17,0,0,,6,,,78,127
80881,note_on,38,0,0,,6,,,78,127
80898,note_off,17,0,0,,7,,,79,127
80932,note_off,34,0,0,,3,,,63,127
80932,note_off,0,0,0,,10,,,69,127
80935,note_on,3,0,0,,7,,,79,127
80935,note_on,0,0,0,,3,,,63,127
80935,note_on,0,0,0,,10,,,69,127
80952,note_off,17,0,0,,6,,,78,127
80990,note_on,38,0,0,,6,,,78,127
81007,note_off,17,0,0,,7,,,79,127
81045,note_on,38,0,0,,4,,,76,127
81062,note_off,17,0,0,,6,,,78,127
81100,note_on,38,0,0,,6,,,78,127
81117,note_off,17,0,0,,4,,,76,127
81151,note_off,34,0,0,,10,,,69,127
81151,note_off,0,0,0,,3,,,63,127
81151,note_off,0,0,0,,12,,,71,127
81154,note_on,3,0,0,,7,,,79,127
81154,note_on,0,0,0,,12,,,71,127
81154,note_on,0,0,0,,4,,,76,127
81154,note_on,0,0,0,,7,,,67,127
81154,note_on,0,0,0,,4,,,64,127
81171,note_off,17,0,0,,6,,,78,127
81370,note_off,199,0,0,,4,,,64,127
81370,note_off,0,0,0,,7,,,67,127
81370,note_off,0,0,0,,4,,,76,127
81370,note_off,0,0,0,,12,,,71,127
81370,note_off,0,0,0,,7,,,79,127
81373,note_on,3,0,0,,10,,,81,127
81373,note_on,0,0,0,,6,,,78,127
81373,note_on,0,0,0,,0,,,72,127
81373,note_on,0,0,0,,0,,,60,127
81373,note_on,0,0,0,,4,,,64,127
81373,note_on,0,0,0,,10,,,69,127
81589,note_off,216,0,0,,10,,,69,127
81589,note_off,0,0,0,,4,,,64,127
81589,note_off,0,0,0,,0,,,60,127
81592,note_on,3,0,0,,10,,,69,127
81592,note_on,0,0,0,,4,,,64,127
81592,note_on,0,0,0,,0,,,60,127
81808,note_off,216,0,0,,0,,,60,127
81808,note_off,0,0,0,,4,,,64,127
81808,note_off,0,0,0,,10,,,69,127
81808,note_off,0,0,0,,0,,,72,127
81808,note_off,0,0,0,,6,,,78,127
81808,note_off,0,0,0,,10,,,81,127
81811,note_on,3,0,0,,0,,,72,127
81811,note_on,0,0,0,,10,,,81,127
81811,note_on,0,0,0,,4,,,76,127
81811,note_on,0,0,0,,0,,,60,127
81811,note_on,0,0,0,,10,,,69,127
81811,note_on,0,0,0,,4,,,64,127
82027,note_off,216,0,0,,4,,,64,127
82027,note_off,0,0,0,,10,,,69,127
82027,note_off,0,0,0,,0,,,60,127
82027,note_off,0,0,0,,4,,,76,127
82027,note_off,0,0,0,,10,,,81,127
82027,note_off,0,0,0,,0,,,72,127
82030,note_on,3,0,0,,10,,,81,127
82030,note_on,0,0,0,,12,,,71,127
82030,note_on,0,0,0,,3,,,75,127
82030,note_on,0,0,0,,3,,,63,127
82030,note_on,0,0,0,,12,,,59,127
82030,note_on,0,0,0,,10,,,69,127
82030,note_on,0,0,0,,6,,,66,127
82246,note_off,216,0,0,,6,,,66,127
82246,note_off,0,0,0,,10,,,69,127
82246,note_off,0,0,0,,12,,,59,127
82246,note_off,0,0,0,,3,,,63,127
82249,note_on,3,0,0,,3,,,63,127
82249,note_on,0,0,0,,12,,,59,127
82249,note_on,0,0,0,,6,,,66,127
82249,note_on,0,0,0,,10,,,69,127
82465,note_off,216,0,0,,10,,,69,127
82465,note_off,0,0,0,,6,,,66,127
82465,note_off,0,0,0,,12,,,59,127
82465,note_off,0,0,0,,3,,,63,127
82465,note_off,0,0,0,,3,,,75,127
82465,note_off,0,0,0,,12,,,71,127
82465,note_off,0,0,0,,10,,,81,127
82468,note_on,3,0,0,,0,,,72,127
82468,note_on,0,0,0,,4,,,76,127
82468,note_on,0,0,0,,10,,,81,127
82468,note_on,0,0,0,,10,,,69,127
82468,note_on,0,0,0,,0,,,60,127
82468,note_on,0,0,0,,4,,,64,127
82684,note_off,216,0,0,,4,,,64,127
82684,note_off,0,0,0,,0,,,60,127
82684,note_off,0,0,0,,10,,,69,127
82684,note_off,0,0,0,,10,,,81,127
82684,note_off,0,0,0,,4,,,76,127
82684,note_off,0,0,0,,0,,,72,127
82687,note_on,3,0,0,,12,,,71,127
82687,note_on,0,0,0,,3,,,75,127
82687,note_on,0,0,0,,10,,,81,127
82687,note_on,0,0,0,,3,,,63,127
82687,note_on,0,0,0,,12,,,59,127
82687,note_on,0,0,0,,6,,,66,127
82687,note_on,0,0,0,,10,,,69,127
82903,note_off,216,0,0,,10,,,69,127
82903,note_off,0,0,0,,6,,,66,127
82903,note_off,0,0,0,,12,,,59,127
82903,note_off,0,0,0,,3,,,63,127
82906,note_on,3,0,0,,3,,,63,127
82906,note_on,0,0,0,,12,,,59,127
82906,note_on,0,0,0,,6,,,66,127
82906,note_on,0,0,0,,10,,,69,127
83122,note_off,216,0,0,,10,,,69,127
83122,note_off,0,0,0,,6,,,66,127
83122,note_off,0,0,0,,12,,,59,127
83122,note_off,0,0,0,,3,,,63,127
83122,note_off,0,0,0,,10,,,81,127
83122,note_off,0,0,0,,3,,,75,127
83122,note_off,0,0,0,,12,,,71,127
83125,note_on,3,0,0,,0,,,72,127
83125,note_on,0,0,0,,4,,,76,127
83125,note_on,0,0,0,,10,,,81,127
83125,note_on,0,0,0,,0,,,60,127
83125,note_on,0,0,0,,4,,,64,127
83125,note_on,0,0,0,,10,,,69,127
83341,note_off,216,0,0,,10,,,69,127
83341,note_off,0,0,0,,4,,,64,127
83341,note_off,0,0,0,,0,,,60,127
83341,note_off,0,0,0,,10,,,81,127
83341,note_off,0,0,0,,4,,,76,127
83341,note_off,0,0,0,,0,,,72,127
83344,note_on,3,0,0,,12,,,71,127
83344,note_on,0,0,0,,3,,,75,127
83344,note_on,0,0,0,,6,,,78,127
83344,note_on,0,0,0,,10,,,81,127
83344,note_on,0,0,0,,6,,,66,127
83344,note_on,0,0,0,,3,,,63,127
83344,note_on,0,0,0,,12,,,59,127
83344,note_on,0,0,0,,10,,,69,127
83560,note_off,216,0,0,,10,,,81,127
83560,note_off,0,0,0,,6,,,78,127
83560,note_off,0,0,0,,3,,,75,127
83560,note_off,0,0,0,,12,,,71,127
83563,note_on,3,0,0,,10,,,81,127
83563,note_on,0,0,0,,0,,,84,127
83779,note_off,216,0,0,,0,,,84,127
83779,note_off,0,0,0,,10,,,81,127
83782,note_on,3,0,0,,12,,,83,127
83782,note_on,0,0,0,,7,,,79,127
83998,note_off,216,0,0,,7,,,79,127
83998,note_off,0,0,0,,12,,,83,127
83998,note_off,0,0,0,,10,,,69,127
83998,note_off,0,0,0,,12,,,59,127
83998,note_off,0,0,0,,3,,,63,127
83998,note_off,0,0,0,,6,,,66,127
84001,note_on,3,0,0,,10,,,81,127
84001,note_on,0,0,0,,6,,,78,127
84001,note_on,0,0,0,,12,,,59,127
84001,note_on,0,0,0,,12,,,71,127
84217,note_off,216,0,0,,12,,,59,127
84217,note_off,0,0,0,,6,,,78,127
84217,note_off,0,0,0,,10,,,81,127
84220,note_on,3,0,0,,7,,,79,127
84220,note_on,0,0,0,,4,,,76,127
84220,note_on,0,0,0,,1,,,61,127
84436,note_off,216,0,0,,1,,,61,127
84436,note_off,0,0,0,,4,,,76,127
84436,note_off,0,0,0,,7,,,79,127
84439,note_on,3,0,0,,3,,,75,127
84439,note_on,0,0,0,,6,,,78,127
84439,note_on,0,0,0,,3,,,63,127
84655,note_off,216,0,0,,3,,,63,127
84655,note_off,0,0,0,,6,,,78,127
84655,note_off,0,0,0,,3,,,75,127
84655,note_off,0,0,0,,12,,,71,127
84658,note_on,3,0,0,,12,,,71,127
84658,note_on,0,0,0,,7,,,79,127
84658,note_on,0,0,0,,4,,,64,127
84874,note_off,216,0,0,,4,,,64,127
84874,note_off,0,0,0,,12,,,71,127
84877,note_on,3,0,0,,1,,,73,127
84877,note_on,0,0,0,,7,,,67,127
85093,note_off,216,0,0,,7,,,67,127
85093,note_off,0,0,0,,1,,,73,127
85096,note_on,3,0,0,,2,,,74,127
85096,note_on,0,0,0,,6,,,66,127
85312,note_off,216,0,0,,6,,,66,127
85312,note_off,0,0,0,,2,,,74,127
85312,note_off,0,0,0,,7,,,79,127
85315,note_on,3,0,0,,7,,,79,127
85315,note_on,0,0,0,,2,,,74,127
85315,note_on,0,0,0,,4,,,64,127
85370,note_on,55,0,0,,1,,,73,127
85387,note_off,17,0,0,,2,,,74,127
85425,note_on,38,0,0,,2,,,74,127
85440,note_off,15,0,0,,1,,,73,127
85480,note_on,40,0,0,,1,,,73,127
85495,note_off,15,0,0,,2,,,74,127
85532,note_off,37,0,0,,4,,,64,127
85535,note_on,3,0,0,,2,,,74,127
85535,note_on,0,0,0,,7,,,67,127
85550,note_off,15,0,0,,1,,,73,127
85590,note_on,40,0,0,,1,,,73,127
85607,note_off,17,0,0,,2,,,74,127
85645,note_on,38,0,0,,12,,,71,127
85660,note_off,15,0,0,,1,,,73,127
85700,note_on,40,0,0,,1,,,73,127
85715,note_off,15,0,0,,12,,,71,127
85752,note_off,37,0,0,,7,,,67,127
85752,note_off,0,0,0,,7,,,79,127
85755,note_on,3,0,0,,2,,,74,127
85755,note_on,0,0,0,,2,,,62,127
85806,note_off,51,0,0,,1,,,73,127
85971,note_off,165,0,0,,2,,,62,127
85971,note_off,0,0,0,,2,,,74,127
85974,note_on,3,0,0,,10,,,69,127
85974,note_on,0,0,0,,1,,,73,127
85974,note_on,0,0,0,,4,,,76,127
85974,note_on,0,0,0,,7,,,79,127
85974,note_on,0,0,0,,1,,,61,127
85974,note_on,0,0,0,,7,,,67,127
86190,note_off,216,0,0,,7,,,79,127
86190,note_off,0,0,0,,4,,,76,127
86190,note_off,0,0,0,,1,,,73,127
86190,note_off,0,0,0,,10,,,69,127
86193,note_on,3,0,0,,7,,,79,127
86193,note_on,0,0,0,,12,,,83,127
86409,note_off,216,0,0,,12,,,83,127
86409,note_off,0,0,0,,7,,,79,127
86412,note_on,3,0,0,,10,,,81,127
86412,note_on,0,0,0,,6,,,78,127
86628,note_off,216,0,0,,6,,,78,127
86628,note_off,0,0,0,,10,,,81,127
86628,note_off,0,0,0,,7,,,67,127
86628,note_off,0,0,0,,1,,,61,127
86631,note_on,3,0,0,,7,,,79,127
86631,note_on,0,0,0,,4,,,76,127
86631,note_on,0,0,0,,10,,,57,127
86631,note_on,0,0,0,,10,,,69,127
86847,note_off,216,0,0,,10,,,57,127
86847,note_off,0,0,0,,4,,,76,127
86847,note_off,0,0,0,,7,,,79,127
86850,note_on,3,0,0,,6,,,78,127
86850,note_on,0,0,0,,2,,,74,127
86850,note_on,0,0,0,,12,,,59,127
87066,note_off,216,0,0,,12,,,59,127
87066,note_off,0,0,0,,2,,,74,127
87066,note_off,0,0,0,,6,,,78,127
87069,note_on,3,0,0,,1,,,73,127
87069,note_on,0,0,0,,4,,,76,127
87069,note_on,0,0,0,,1,,,61,127
87285,note_off,216,0,0,,1,,,61,127
87285,note_off,0,0,0,,4,,,76,127
87285,note_off,0,0,0,,1,,,73,127
87285,note_off,0,0,0,,10,,,69,127
87288,note_on,3,0,0,,2,,,74,127
87288,note_on,0,0,0,,6,,,78,127
87288,note_on,0,0,0,,2,,,62,127
87394,note_off,106,0,0,,6,,,78,127
87397,note_on,3,0,0,,10,,,81,127
87503,note_off,106,0,0,,10,,,81,127
87503,note_off,0,0,0,,2,,,62,127
87503,note_off,0,0,0,,2,,,74,127
87506,note_on,3,0,0,,2,,,74,127
87506,note_on,0,0,0,,2,,,50,127
87612,note_off,106,0,0,,2,,,74,127
87615,note_on,3,0,0,,6,,,78,127
87721,note_off,106,0,0,,6,,,78,127
87721,note_off,0,0,0,,2,,,50,127
87724,note_on,3,0,0,,10,,,69,127
87724,note_on,0,0,0,,6,,,54,127
87830,note_off,106,0,0,,10,,,69,127
87833,note_on,3,0,0,,1,,,73,127
87939,note_off,106,0,0,,1,,,73,127
87939,note_off,0,0,0,,6,,,54,127
87942,note_on,3,0,0,,12,,,71,127
87942,note_on,0,0,0,,7,,,55,127
88048,note_off,106,0,0,,12,,,71,127
88051,note_on,3,0,0,,2,,,74,127
88157,note_off,106,0,0,,2,,,74,127
88157,note_off,0,0,0,,7,,,55,127
88160,note_on,3,0,0,,7,,,67,127
88160,note_on,0,0,0,,2,,,50,127
88266,note_off,106,0,0,,7,,,67,127
88269,note_on,3,0,0,,12,,,71,127
88375,note_off,106,0,0,,12,,,71,127
88375,note_off,0,0,0,,2,,,50,127
88378,note_on,3,0,0,,2,,,62,127
88378,note_on,0,0,0,,7,,,43,127
88484,note_off,106,0,0,,2,,,62,127
88487,note_on,3,0,0,,7,,,67,127
88593,note_off,106,0,0,,7,,,67,127
88593,note_off,0,0,0,,7,,,43,127
88596,note_on,3,0,0,,6,,,66,127
88596,note_on,0,0,0,,2,,,50,127
88702,note_off,106,0,0,,6,,,66,127
88705,note_on,3,0,0,,10,,,69,127
88811,note_off,106,0,0,,10,,,69,127
88814,note_on,3,0,0,,2,,,62,127
88920,note_off,106,0,0,,2,,,62,127
88923,note_on,3,0,0,,6,,,66,127
89029,note_off,106,0,0,,6,,,66,127
89029,note_off,0,0,0,,2,,,50,127
89032,note_on,3,0,0,,10,,,57,127
89032,note_on,0,0,0,,2,,,38,127
89138,note_off,106,0,0,,10,,,57,127
89141,note_on,3,0,0,,1,,,61,127
89247,note_off,106,0,0,,1,,,61,127
89247,note_off,0,0,0,,2,,,38,127
89250,note_on,3,0,0,,12,,,59,127
89250,note_on,0,0,0,,7,,,43,127
89356,note_off,106,0,0,,12,,,59,127
89359,note_on,3,0,0,,2,,,62,127
89465,note_off,106,0,0,,2,,,62,127
89465,note_off,0,0,0,,7,,,43,127
89468,note_on,3,0,0,,7,,,55,127
89468,note_on,0,0,0,,7,,,43,127
89574,note_off,106,0,0,,7,,,55,127
89577,note_on,3,0,0,,12,,,59,127
89683,note_off,106,0,0,,12,,,59,127
89683,note_off,0,0,0,,7,,,43,127
89686,note_on,3,0,0,,2,,,50,127
89686,note_on,0,0,0,,7,,,43,127
89792,note_off,106,0,0,,2,,,50,127
89795,note_on,3,0,0,,7,,,55,127
89901,note_off,106,0,0,,7,,,55,127
89901,note_off,0,0,0,,7,,,43,127
89904,note_on,3,0,0,,6,,,54,127
89904,note_on,0,0,0,,2,,,38,127
90010,note_off,106,0,0,,6,,,54,127
90013,note_on,3,0,0,,2,,,50,127
90119,note_off,106,0,0,,2,,,50,127
90122,note_on,3,0,0,,10,,,57,127
90228,note_off,106,0,0,,10,,,57,127
90231,note_on,3,0,0,,6,,,54,127
90337,note_off,106,0,0,,6,,,54,127
90340,note_on,3,0,0,,2,,,62,127
90446,note_off,106,0,0,,2,,,62,127
90449,note_on,3,0,0,,10,,,57,127
90555,note_off,106,0,0,,10,,,57,127
90555,note_off,0,0,0,,2,,,38,127
90558,note_on,3,0,0,,6,,,66,127
90558,note_on,0,0,0,,2,,,38,127
90664,note_off,106,0,0,,6,,,66,127
90667,note_on,3,0,0,,2,,,62,127
90773,note_off,106,0,0,,2,,,62,127
90776,note_on,3,0,0,,10,,,69,127
90882,note_off,106,0,0,,10,,,69,127
90885,note_on,3,0,0,,6,,,66,127
90991,note_off,106,0,0,,6,,,66,127
90994,note_on,3,0,0,,2,,,74,127
91100,note_off,106,0,0,,2,,,74,127
91103,note_on,3,0,0,,10,,,69,127
91209,note_off,106,0,0,,10,,,69,127
91209,note_off,0,0,0,,2,,,38,127
91212,note_on,3,0,0,,2,,,86,127
91212,note_on,0,0,0,,2,,,38,127
91318,note_off,106,0,0,,2,,,86,127
91321,note_on,3,0,0,,10,,,81,127
91427,note_off,106,0,0,,10,,,81,127
91430,note_on,3,0,0,,6,,,78,127
91536,note_off,106,0,0,,6,,,78,127
91539,note_on,3,0,0,,2,,,74,127
91645,note_off,106,0,0,,2,,,74,127
91648,note_on,3,0,0,,6,,,78,127
91754,note_off,106,0,0,,6,,,78,127
91757,note_on,3,0,0,,2,,,86,127
91863,note_off,106,0,0,,2,,,86,127
91863,note_off,0,0,0,,2,,,38,127
91866,note_on,3,0,0,,1,,,85,127
91866,note_on,0,0,0,,10,,,33,127
91972,note_off,106,0,0,,1,,,85,127
91975,note_on,3,0,0,,10,,,81,127
92081,note_off,106,0,0,,10,,,81,127
92084,note_on,3,0,0,,4,,,76,127
92190,note_off,106,0,0,,4,,,76,127
92193,note_on,3,0,0,,1,,,73,127
92299,note_off,106,0,0,,1,,,73,127
92302,note_on,3,0,0,,10,,,69,127
92408,note_off,106,0,0,,10,,,69,127
92411,note_on,3,0,0,,1,,,73,127
92517,note_off,106,0,0,,1,,,73,127
92517,note_off,0,0,0,,10,,,33,127
92520,note_on,3,0,0,,1,,,85,127
92520,note_on,0,0,0,,10,,,33,127
92626,note_off,106,0,0,,1,,,85,127
92629,note_on,3,0,0,,10,,,81,127
92735,note_off,106,0,0,,10,,,81,127
92738,note_on,3,0,0,,4,,,76,127
92844,note_off,106,0,0,,4,,,76,127
92847,note_on,3,0,0,,1,,,73,127
92953,note_off,106,0,0,,1,,,73,127
92956,note_on,3,0,0,,10,,,69,127
93062,note_off,106,0,0,,10,,,69,127
93065,note_on,3,0,0,,1,,,73,127
93171,note_off,106,0,0,,1,,,73,127
93171,note_off,0,0,0,,10,,,33,127
93174,note_on,3,0,0,,1,,,85,127
93174,note_on,0,0,0,,10,,,33,127
93280,note_off,106,0,0,,1,,,85,127
93283,note_on,3,0,0,,10,,,81,127
93389,note_off,106,0,0,,10,,,81,127
93392,note_on,3,0,0,,4,,,76,127
93498,note_off,106,0,0,,4,,,76,127
93501,note_on,3,0,0,,1,,,73,127
93607,note_off,106,0,0,,1,,,73,127
93610,note_on,3,0,0,,10,,,69,127
93716,note_off,106,0,0,,10,,,69,127
93719,note_on,3,0,0,,1,,,73,127
93825,note_off,106,0,0,,1,,,73,127
93828,note_on,3,0,0,,1,,,85,127
93934,note_off,106,0,0,,1,,,85,127
93937,note_on,3,0,0,,10,,,81,127
94043,note_off,106,0,0,,10,,,81,127
94043,note_off,0,0,0,,10,,,33,127
94046,note_on,3,0,0,,4,,,76,127
94152,note_off,106,0,0,,4,,,76,127
94155,note_on,3,0,0,,1,,,73,127
94261,note_off,106,0,0,,1,,,73,127
94264,note_on,3,0,0,,10,,,69,127
94370,note_off,106,0,0,,10,,,69,127
94373,note_on,3,0,0,,4,,,64,127
94479,note_off,106,0,0,,4,,,64,127
94482,note_on,3,0,0,,1,,,61,127
94588,note_off,106,0,0,,1,,,61,127
94591,note_on,3,0,0,,10,,,57,127
94697,note_off,106,0,0,,10,,,57,127
94700,note_on,3,0,0,,4,,,52,127
94806,note_off,106,0,0,,4,,,52,127
94809,note_on,3,0,0,,1,,,49,127
94915,note_off,106,0,0,,1,,,49,127
94918,note_on,3,0,0,,10,,,45,127
95024,note_off,106,0,0,,10,,,45,127
95027,note_on,3,0,0,,4,,,40,127
95133,note_off,106,0,0,,4,,,40,127
95136,note_on,3,0,0,,10,,,45,127
95136,note_on,0,0,0,,10,,,33,127
96013,note_off,877,0,0,,10,,,33,127
96013,note_off,0,0,0,,10,,,45,127
96453,note_on,440,0,0,,5,,,65,127
96453,note_on,0,0,0,,2,,,62,127
96669,note_off,216,0,0,,2,,,62,127
96669,note_off,0,0,0,,5,,,65,127
96672,note_on,3,0,0,,2,,,74,127
96672,note_on,0,0,0,,5,,,65,127
96672,note_on,0,0,0,,2,,,62,127
96888,note_off,216,0,0,,2,,,62,127
96888,note_off,0,0,0,,5,,,65,127
96891,note_on,3,0,0,,5,,,77,127
96891,note_on,0,0,0,,5,,,65,127
96891,note_on,0,0,0,,2,,,62,127
97106,note_off,215,0,0,,2,,,74,127
97107,note_off,1,0,0,,2,,,62,127
97107,note_off,0,0,0,,5,,,65,127
97110,note_on,3,0,0,,11,,,70,127
97110,note_on,0,0,0,,2,,,62,127
97110,note_on,0,0,0,,7,,,55,127
97110,note_on,0,0,0,,4,,,64,127
97326,note_off,216,0,0,,4,,,64,127
97326,note_off,0,0,0,,7,,,55,127
97326,note_off,0,0,0,,2,,,62,127
97326,note_off,0,0,0,,5,,,77,127
97329,note_on,3,0,0,,4,,,76,127
97329,note_on,0,0,0,,2,,,62,127
97329,note_on,0,0,0,,7,,,55,127
97329,note_on,0,0,0,,4,,,64,127
97545,note_off,216,0,0,,4,,,64,127
97545,note_off,0,0,0,,7,,,55,127
97545,note_off,0,0,0,,2,,,62,127
97545,note_off,0,0,0,,4,,,76,127
97548,note_on,3,0,0,,7,,,79,127
97548,note_on,0,0,0,,4,,,64,127
97548,note_on,0,0,0,,2,,,62,127
97548,note_on,0,0,0,,7,,,55,127
97764,note_off,216,0,0,,7,,,55,127
97764,note_off,0,0,0,,2,,,62,127
97764,note_off,0,0,0,,4,,,64,127
97764,note_off,0,0,0,,7,,,79,127
97764,note_off,0,0,0,,11,,,70,127
97767,note_on,3,0,0,,11,,,82,127
97767,note_on,0,0,0,,4,,,64,127
97767,note_on,0,0,0,,1,,,61,127
97767,note_on,0,0,0,,7,,,55,127
97767,note_on,0,0,0,,10,,,57,127
97983,note_off,216,0,0,,10,,,57,127
97983,note_off,0,0,0,,7,,,55,127
97983,note_off,0,0,0,,1,,,61,127
97983,note_off,0,0,0,,4,,,64,127
97983,note_off,0,0,0,,11,,,82,127
97986,note_on,3,0,0,,10,,,81,127
97986,note_on,0,0,0,,1,,,61,127
97986,note_on,0,0,0,,10,,,57,127
97986,note_on,0,0,0,,7,,,55,127
97986,note_on,0,0,0,,4,,,64,127
98202,note_off,216,0,0,,4,,,64,127
98202,note_off,0,0,0,,7,,,55,127
98202,note_off,0,0,0,,10,,,57,127
98202,note_off,0,0,0,,1,,,61,127
98202,note_off,0,0,0,,10,,,81,127
98205,note_on,3,0,0,,1,,,73,127
98205,note_on,0,0,0,,10,,,57,127
98205,note_on,0,0,0,,7,,,55,127
98205,note_on,0,0,0,,4,,,64,127
98205,note_on,0,0,0,,1,,,61,127
98421,note_off,216,0,0,,1,,,61,127
98421,note_off,0,0,0,,4,,,64,127
98421,note_off,0,0,0,,7,,,55,127
98421,note_off,0,0,0,,10,,,57,127
98421,note_off,0,0,0,,1,,,73,127
98424,note_on,3,0,0,,4,,,76,127
98424,note_on,0,0,0,,5,,,53,127
98424,note_on,0,0,0,,10,,,57,127
98424,note_on,0,0,0,,4,,,64,127
98640,note_off,216,0,0,,4,,,64,127
98640,note_off,0,0,0,,10,,,57,127
98640,note_off,0,0,0,,5,,,53,127
98640,note_off,0,0,0,,4,,,76,127
98643,note_on,3,0,0,,2,,,74,127
98643,note_on,0,0,0,,5,,,53,127
98643,note_on,0,0,0,,2,,,62,127
98643,note_on,0,0,0,,10,,,57,127
98859,note_off,216,0,0,,10,,,57,127
98859,note_off,0,0,0,,2,,,62,127
98859,note_off,0,0,0,,5,,,53,127
98859,note_off,0,0,0,,2,,,74,127
98862,note_on,3,0,0,,11,,,70,127
98862,note_on,0,0,0,,5,,,53,127
98862,note_on,0,0,0,,10,,,57,127
98862,note_on,0,0,0,,2,,,62,127
99078,note_off,216,0,0,,2,,,62,127
99078,note_off,0,0,0,,10,,,57,127
99078,note_off,0,0,0,,5,,,53,127
99078,note_off,0,0,0,,11,,,70,127
99081,note_on,3,0,0,,10,,,69,127
99081,note_on,0,0,0,,10,,,57,127
99081,note_on,0,0,0,,5,,,53,127
99081,note_on,0,0,0,,2,,,62,127
99297,note_off,216,0,0,,2,,,62,127
99297,note_off,0,0,0,,5,,,53,127
99297,note_off,0,0,0,,10,,,57,127
99300,note_on,3,0,0,,2,,,74,127
99300,note_on,0,0,0,,10,,,57,127
99300,note_on,0,0,0,,5,,,53,127
99300,note_on,0,0,0,,2,,,62,127
99516,note_off,216,0,0,,2,,,62,127
99516,note_off,0,0,0,,5,,,53,127
99516,note_off,0,0,0,,10,,,57,127
99519,note_on,3,0,0,,5,,,77,127
99519,note_on,0,0,0,,5,,,53,127
99519,note_on,0,0,0,,2,,,62,127
99519,note_on,0,0,0,,10,,,57,127
99734,note_off,215,0,0,,2,,,74,127
99735,note_off,1,0,0,,10,,,57,127
99735,note_off,0,0,0,,2,,,62,127
99735,note_off,0,0,0,,5,,,53,127
99735,note_off,0,0,0,,10,,,69,127
99738,note_on,3,0,0,,11,,,70,127
99738,note_on,0,0,0,,2,,,62,127
99738,note_on,0,0,0,,7,,,55,127
99738,note_on,0,0,0,,4,,,64,127
99954,note_off,216,0,0,,4,,,64,127
99954,note_off,0,0,0,,7,,,55,127
99954,note_off,0,0,0,,2,,,62,127
99954,note_off,0,0,0,,5,,,77,127
99957,note_on,3,0,0,,4,,,76,127
99957,note_on,0,0,0,,2,,,62,127
99957,note_on,0,0,0,,7,,,55,127
99957,note_on,0,0,0,,4,,,64,127
100173,note_off,216,0,0,,4,,,64,127
100173,note_off,0,0,0,,7,,,55,127
100173,note_off,0,0,0,,2,,,62,127
100173,note_off,0,0,0,,4,,,76,127
100176,note_on,3,0,0,,7,,,79,127
100176,note_on,0,0,0,,2,,,62,127
100176,note_on,0,0,0,,7,,,55,127
100176,note_on,0,0,0,,4,,,64,127
100392,note_off,216,0,0,,4,,,64,127
100392,note_off,0,0,0,,7,,,55,127
100392,note_off,0,0,0,,2,,,62,127
100392,note_off,0,0,0,,7,,,79,127
100392,note_off,0,0,0,,11,,,70,127
100395,note_on,3,0,0,,11,,,82,127
100395,note_on,0,0,0,,10,,,57,127
100395,note_on,0,0,0,,7,,,55,127
100395,note_on,0,0,0,,4,,,64,127
100395,note_on,0,0,0,,1,,,61,127
100611,note_off,216,0,0,,1,,,61,127
100611,note_off,0,0,0,,4,,,64,127
100611,note_off,0,0,0,,7,,,55,127
100611,note_off,0,0,0,,10,,,57,127
100611,note_off,0,0,0,,11,,,82,127
100614,note_on,3,0,0,,10,,,81,127
100614,note_on,0,0,0,,1,,,61,127
100614,note_on,0,0,0,,10,,,57,127
100614,note_on,0,0,0,,7,,,55,127
100614,note_on,0,0,0,,4,,,64,127
100830,note_off,216,0,0,,4,,,64,127
100830,note_off,0,0,0,,7,,,55,127
100830,note_off,0,0,0,,10,,,57,127
100830,note_off,0,0,0,,1,,,61,127
100830,note_off,0,0,0,,10,,,81,127
100833,note_on,3,0,0,,1,,,73,127
100833,note_on,0,0,0,,7,,,55,127
100833,note_on,0,0,0,,10,,,57,127
100833,note_on,0,0,0,,4,,,64,127
100833,note_on,0,0,0,,1,,,61,127
101049,note_off,216,0,0,,1,,,61,127
101049,note_off,0,0,0,,4,,,64,127
101049,note_off,0,0,0,,10,,,57,127
101049,note_off,0,0,0,,7,,,55,127
101049,note_off,0,0,0,,1,,,73,127
101052,note_on,3,0,0,,4,,,76,127
101052,note_on,0,0,0,,5,,,53,127
101052,note_on,0,0,0,,10,,,57,127
101052,note_on,0,0,0,,4,,,64,127
101268,note_off,216,0,0,,4,,,64,127
101268,note_off,0,0,0,,10,,,57,127
101268,note_off,0,0,0,,5,,,53,127
101268,note_off,0,0,0,,4,,,76,127
101271,note_on,3,0,0,,2,,,74,127
101271,note_on,0,0,0,,10,,,57,127
101271,note_on,0,0,0,,5,,,53,127
101271,note_on,0,0,0,,2,,,62,127
101487,note_off,216,0,0,,2,,,62,127
101487,note_off,0,0,0,,5,,,53,127
101487,note_off,0,0,0,,10,,,57,127
101487,note_off,0,0,0,,2,,,74,127
101490,note_on,3,0,0,,11,,,70,127
101490,note_on,0,0,0,,5,,,53,127
101490,note_on,0,0,0,,10,,,57,127
101490,note_on,0,0,0,,2,,,62,127
101706,note_off,216,0,0,,2,,,62,127
101706,note_off,0,0,0,,10,,,57,127
101706,note_off,0,0,0,,5,,,53,127
101706,note_off,0,0,0,,11,,,70,127
101709,note_on,3,0,0,,10,,,69,127
101709,note_on,0,0,0,,2,,,62,127
101709,note_on,0,0,0,,10,,,57,127
101709,note_on,0,0,0,,5,,,53,127
101925,note_off,216,0,0,,5,,,53,127
101925,note_off,0,0,0,,10,,,57,127
101925,note_off,0,0,0,,2,,,62,127
101928,note_on,3,0,0,,4,,,76,127
101928,note_on,0,0,0,,10,,,57,127
101928,note_on,0,0,0,,5,,,53,127
101928,note_on,0,0,0,,2,,,62,127
102144,note_off,216,0,0,,2,,,62,127
102144,note_off,0,0,0,,5,,,53,127
102144,note_off,0,0,0,,10,,,57,127
102144,note_off,0,0,0,,4,,,76,127
102147,note_on,3,0,0,,5,,,77,127
102147,note_on,0,0,0,,10,,,57,127
102147,note_on,0,0,0,,5,,,53,127
102147,note_on,0,0,0,,2,,,62,127
102363,note_off,216,0,0,,2,,,62,127
102363,note_off,0,0,0,,5,,,53,127
102363,note_off,0,0,0,,10,,,57,127
102363,note_off,0,0,0,,10,,,69,127
102366,note_on,3,0,0,,11,,,70,127
102366,note_on,0,0,0,,7,,,55,127
102366,note_on,0,0,0,,2,,,62,127
102366,note_on,0,0,0,,11,,,58,127
102472,note_off,106,0,0,,5,,,77,127
102582,note_off,110,0,0,,11,,,58,127
102582,note_off,0,0,0,,2,,,62,127
102582,note_off,0,0,0,,7,,,55,127
102585,note_on,3,0,0,,6,,,78,127
102585,note_on,0,0,0,,7,,,55,127
102585,note_on,0,0,0,,2,,,62,127
102585,note_on,0,0,0,,11,,,58,127
102801,note_off,216,0,0,,11,,,58,127
102801,note_off,0,0,0,,2,,,62,127
102801,note_off,0,0,0,,7,,,55,127
102801,note_off,0,0,0,,6,,,78,127
102804,note_on,3,0,0,,7,,,79,127
102804,note_on,0,0,0,,11,,,58,127
102804,note_on,0,0,0,,7,,,55,127
102804,note_on,0,0,0,,2,,,62,127
103020,note_off,216,0,0,,2,,,62,127
103020,note_off,0,0,0,,7,,,55,127
103020,note_off,0,0,0,,11,,,58,127
103020,note_off,0,0,0,,11,,,70,127
103023,note_on,3,0,0,,10,,,57,127
103023,note_on,0,0,0,,2,,,62,127
103023,note_on,0,0,0,,7,,,67,127
103023,note_on,0,0,0,,4,,,64,127
103238,note_off,215,0,0,,2,,,62,127
103239,note_off,1,0,0,,4,,,64,127
103239,note_off,0,0,0,,7,,,67,127
103239,note_off,0,0,0,,10,,,57,127
103239,note_off,0,0,0,,7,,,79,127
103242,note_on,3,0,0,,5,,,77,127
103242,note_on,0,0,0,,10,,,57,127
103242,note_on,0,0,0,,2,,,62,127
103242,note_on,0,0,0,,4,,,64,127
103242,note_on,0,0,0,,7,,,67,127
103457,note_off,215,0,0,,2,,,62,127
103458,note_off,1,0,0,,7,,,67,127
103458,note_off,0,0,0,,4,,,64,127
103458,note_off,0,0,0,,10,,,57,127
103458,note_off,0,0,0,,5,,,77,127
103461,note_on,3,0,0,,1,,,73,127
103461,note_on,0,0,0,,10,,,57,127
103461,note_on,0,0,0,,2,,,62,127
103461,note_on,0,0,0,,4,,,64,127
103461,note_on,0,0,0,,7,,,67,127
103676,note_off,215,0,0,,2,,,62,127
103677,note_off,1,0,0,,7,,,67,127
103677,note_off,0,0,0,,4,,,64,127
103677,note_off,0,0,0,,10,,,57,127
103677,note_off,0,0,0,,1,,,73,127
103680,note_on,3,0,0,,1,,,73,127
103680,note_on,0,0,0,,11,,,58,127
103680,note_on,0,0,0,,2,,,62,127
103680,note_on,0,0,0,,7,,,67,127
103896,note_off,216,0,0,,7,,,67,127
103896,note_off,0,0,0,,2,,,62,127
103896,note_off,0,0,0,,11,,,58,127
103896,note_off,0,0,0,,1,,,73,127
103899,note_on,3,0,0,,2,,,74,127
103899,note_on,0,0,0,,11,,,58,127
103899,note_on,0,0,0,,2,,,62,127
103899,note_on,0,0,0,,7,,,67,127
104115,note_off,216,0,0,,7,,,67,127
104115,note_off,0,0,0,,2,,,62,127
104115,note_off,0,0,0,,11,,,58,127
104115,note_off,0,0,0,,2,,,74,127
104118,note_on,3,0,0,,1,,,73,127
104118,note_on,0,0,0,,11,,,58,127
104118,note_on,0,0,0,,7,,,67,127
104118,note_on,0,0,0,,2,,,62,127
104319,note_off,201,0,0,,1,,,73,127
104334,note_off,15,0,0,,2,,,62,127
104334,note_off,0,0,0,,7,,,67,127
104334,note_off,0,0,0,,11,,,58,127
104337,note_on,3,0,0,,10,,,69,127
104337,note_on,0,0,0,,2,,,74,127
104337,note_on,0,0,0,,10,,,57,127
104337,note_on,0,0,0,,5,,,53,127
104337,note_on,0,0,0,,2,,,62,127
104553,note_off,216,0,0,,2,,,62,127
104553,note_off,0,0,0,,5,,,53,127
104553,note_off,0,0,0,,10,,,57,127
104553,note_off,0,0,0,,2,,,74,127
104556,note_on,3,0,0,,4,,,76,127
104556,note_on,0,0,0,,2,,,62,127
104556,note_on,0,0,0,,5,,,53,127
104556,note_on,0,0,0,,10,,,57,127
104772,note_off,216,0,0,,10,,,57,127
104772,note_off,0,0,0,,5,,,53,127
104772,note_off,0,0,0,,2,,,62,127
104772,note_off,0,0,0,,4,,,76,127
104775,note_on,3,0,0,,5,,,77,127
104775,note_on,0,0,0,,10,,,57,127
104775,note_on,0,0,0,,5,,,53,127
104775,note_on,0,0,0,,2,,,62,127
104991,note_off,216,0,0,,2,,,62,127
104991,note_off,0,0,0,,5,,,53,127
104991,note_off,0,0,0,,10,,,57,127
104991,note_off,0,0,0,,10,,,69,127
104994,note_on,3,0,0,,11,,,70,127
104994,note_on,0,0,0,,7,,,55,127
104994,note_on,0,0,0,,2,,,62,127
104994,note_on,0,0,0,,11,,,58,127
105210,note_off,216,0,0,,11,,,58,127
105210,note_off,0,0,0,,2,,,62,127
105210,note_off,0,0,0,,7,,,55,127
105210,note_off,0,0,0,,5,,,77,127
105213,note_on,3,0,0,,6,,,78,127
105213,note_on,0,0,0,,11,,,58,127
105213,note_on,0,0,0,,7,,,55,127
105213,note_on,0,0,0,,2,,,62,127
105429,note_off,216,0,0,,2,,,62,127
105429,note_off,0,0,0,,7,,,55,127
105429,note_off,0,0,0,,11,,,58,127
105429,note_off,0,0,0,,6,,,78,127
105432,note_on,3,0,0,,7,,,79,127
105432,note_on,0,0,0,,11,,,58,127
105432,note_on,0,0,0,,7,,,55,127
105432,note_on,0,0,0,,2,,,62,127
105648,note_off,216,0,0,,2,,,62,127
105648,note_off,0,0,0,,7,,,55,127
105648,note_off,0,0,0,,11,,,58,127
105648,note_off,0,0,0,,11,,,70,127
105651,note_on,3,0,0,,2,,,62,127
105651,note_on,0,0,0,,10,,,57,127
105651,note_on,0,0,0,,4,,,64,127
105651,note_on,0,0,0,,7,,,67,127
105866,note_off,215,0,0,,2,,,62,127
105867,note_off,1,0,0,,7,,,67,127
105867,note_off,0,0,0,,4,,,64,127
105867,note_off,0,0,0,,10,,,57,127
105867,note_off,0,0,0,,7,,,79,127
105870,note_on,3,0,0,,5,,,77,127
105870,note_on,0,0,0,,10,,,57,127
105870,note_on,0,0,0,,7,,,67,127
105870,note_on,0,0,0,,4,,,64,127
105870,note_on,0,0,0,,2,,,62,127
106085,note_off,215,0,0,,2,,,62,127
106086,note_off,1,0,0,,4,,,64,127
106086,note_off,0,0,0,,7,,,67,127
106086,note_off,0,0,0,,10,,,57,127
106086,note_off,0,0,0,,5,,,77,127
106089,note_on,3,0,0,,1,,,73,127
106089,note_on,0,0,0,,10,,,57,127
106089,note_on,0,0,0,,4,,,64,127
106089,note_on,0,0,0,,2,,,62,127
106089,note_on,0,0,0,,7,,,67,127
106304,note_off,215,0,0,,2,,,62,127
106305,note_off,1,0,0,,7,,,67,127
106305,note_off,0,0,0,,4,,,64,127
106305,note_off,0,0,0,,10,,,57,127
106305,note_off,0,0,0,,1,,,73,127
106308,note_on,3,0,0,,1,,,73,127
106308,note_on,0,0,0,,11,,,58,127
106308,note_on,0,0,0,,7,,,67,127
106308,note_on,0,0,0,,2,,,62,127
106524,note_off,216,0,0,,2,,,62,127
106524,note_off,0,0,0,,7,,,67,127
106524,note_off,0,0,0,,11,,,58,127
106524,note_off,0,0,0,,1,,,73,127
106527,note_on,3,0,0,,2,,,74,127
106527,note_on,0,0,0,,11,,,58,127
106527,note_on,0,0,0,,2,,,62,127
106527,note_on,0,0,0,,7,,,67,127
106743,note_off,216,0,0,,7,,,67,127
106743,note_off,0,0,0,,2,,,62,127
106743,note_off,0,0,0,,11,,,58,127
106743,note_off,0,0,0,,2,,,74,127
106746,note_on,3,0,0,,1,,,73,127
106746,note_on,0,0,0,,7,,,67,127
106746,note_on,0,0,0,,2,,,62,127
106746,note_on,0,0,0,,11,,,58,127
106962,note_off,216,0,0,,11,,,58,127
106962,note_off,0,0,0,,2,,,62,127
106962,note_off,0,0,0,,7,,,67,127
106962,note_off,0,0,0,,1,,,73,127
106965,note_on,3,0,0,,10,,,69,127
106965,note_on,0,0,0,,2,,,74,127
106965,note_on,0,0,0,,5,,,53,127
106965,note_on,0,0,0,,2,,,62,127
106965,note_on,0,0,0,,10,,,57,127
107181,note_off,216,0,0,,10,,,57,127
107181,note_off,0,0,0,,2,,,62,127
107181,note_off,0,0,0,,5,,,53,127
107181,note_off,0,0,0,,2,,,74,127
107184,note_on,3,0,0,,4,,,76,127
107184,note_on,0,0,0,,5,,,53,127
107184,note_on,0,0,0,,2,,,62,127
107184,note_on,0,0,0,,10,,,57,127
107400,note_off,216,0,0,,10,,,57,127
107400,note_off,0,0,0,,2,,,62,127
107400,note_off,0,0,0,,5,,,53,127
107400,note_off,0,0,0,,4,,,76,127
107403,note_on,3,0,0,,5,,,77,127
107403,note_on,0,0,0,,5,,,53,127
107403,note_on,0,0,0,,10,,,57,127
107403,note_on,0,0,0,,2,,,62,127
107619,note_off,216,0,0,,2,,,62,127
107619,note_off,0,0,0,,10,,,57,127
107619,note_off,0,0,0,,5,,,53,127
107619,note_off,0,0,0,,10,,,69,127
107622,note_on,3,0,0,,2,,,62,127
107622,note_on,0,0,0,,11,,,58,127
107622,note_on,0,0,0,,7,,,55,127
107622,note_on,0,0,0,,4,,,64,127
107838,note_off,216,0,0,,4,,,64,127
107838,note_off,0,0,0,,7,,,55,127
107838,note_off,0,0,0,,11,,,58,127
107838,note_off,0,0,0,,2,,,62,127
107838,note_off,0,0,0,,5,,,77,127
107841,note_on,3,0,0,,2,,,74,127
107841,note_on,0,0,0,,4,,,76,127
107841,note_on,0,0,0,,11,,,70,127
107841,note_on,0,0,0,,11,,,58,127
107841,note_on,0,0,0,,7,,,55,127
107841,note_on,0,0,0,,4,,,64,127
107841,note_on,0,0,0,,2,,,62,127
107896,note_on,55,0,0,,1,,,73,127
107913,note_off,17,0,0,,2,,,74,127
107951,note_on,38,0,0,,2,,,74,127
107968,note_off,17,0,0,,1,,,73,127
108006,note_on,38,0,0,,1,,,73,127
108023,note_off,17,0,0,,2,,,74,127
108057,note_off,34,0,0,,2,,,62,127
108057,note_off,0,0,0,,4,,,64,127
108057,note_off,0,0,0,,7,,,55,127
108057,note_off,0,0,0,,11,,,58,127
108060,note_on,3,0,0,,2,,,74,127
108060,note_on,0,0,0,,11,,,58,127
108060,note_on,0,0,0,,7,,,55,127
108060,note_on,0,0,0,,4,,,64,127
108060,note_on,0,0,0,,2,,,62,127
108077,note_off,17,0,0,,1,,,73,127
108115,note_on,38,0,0,,1,,,73,127
108132,note_off,17,0,0,,2,,,74,127
108170,note_on,38,0,0,,2,,,74,127
108187,note_off,17,0,0,,1,,,73,127
108225,note_on,38,0,0,,1,,,73,127
108242,note_off,17,0,0,,2,,,74,127
108276,note_off,34,0,0,,2,,,62,127
108276,note_off,0,0,0,,4,,,64,127
108276,note_off,0,0,0,,7,,,55,127
108276,note_off,0,0,0,,11,,,58,127
108279,note_on,3,0,0,,2,,,74,127
108279,note_on,0,0,0,,5,,,53,127
108279,note_on,0,0,0,,10,,,57,127
108279,note_on,0,0,0,,2,,,62,127
108296,note_off,17,0,0,,1,,,73,127
108334,note_on,38,0,0,,1,,,73,127
108351,note_off,17,0,0,,2,,,74,127
108389,note_on,38,0,0,,2,,,74,127
108406,note_off,17,0,0,,1,,,73,127
108444,note_on,38,0,0,,1,,,73,127
108461,note_off,17,0,0,,2,,,74,127
108495,note_off,34,0,0,,2,,,62,127
108495,note_off,0,0,0,,10,,,57,127
108495,note_off,0,0,0,,5,,,53,127
108495,note_off,0,0,0,,11,,,70,127
108495,note_off,0,0,0,,4,,,76,127
108498,note_on,3,0,0,,4,,,76,127
108498,note_on,0,0,0,,5,,,77,127
108498,note_on,0,0,0,,10,,,69,127
108498,note_on,0,0,0,,10,,,57,127
108498,note_on,0,0,0,,5,,,53,127
108498,note_on,0,0,0,,2,,,62,127
108515,note_off,17,0,0,,1,,,73,127
108553,note_on,38,0,0,,2,,,74,127
108570,note_off,17,0,0,,4,,,76,127
108608,note_on,38,0,0,,4,,,76,127
108625,note_off,17,0,0,,2,,,74,127
108663,note_on,38,0,0,,2,,,74,127
108680,note_off,17,0,0,,4,,,76,127
108714,note_off,34,0,0,,2,,,62,127
108714,note_off,0,0,0,,5,,,53,127
108714,note_off,0,0,0,,10,,,57,127
108717,note_on,3,0,0,,4,,,76,127
108717,note_on,0,0,0,,2,,,62,127
108717,note_on,0,0,0,,10,,,57,127
108717,note_on,0,0,0,,5,,,53,127
108734,note_off,17,0,0,,2,,,74,127
108772,note_on,38,0,0,,2,,,74,127
108789,note_off,17,0,0,,4,,,76,127
108827,note_on,38,0,0,,4,,,76,127
108844,note_off,17,0,0,,2,,,74,127
108882,note_on,38,0,0,,2,,,74,127
108899,note_off,17,0,0,,4,,,76,127
108933,note_off,34,0,0,,5,,,53,127
108933,note_off,0,0,0,,10,,,57,127
108933,note_off,0,0,0,,2,,,62,127
108936,note_on,3,0,0,,4,,,76,127
108936,note_on,0,0,0,,4,,,52,127
108936,note_on,0,0,0,,10,,,57,127
108936,note_on,0,0,0,,1,,,61,127
108936,note_on,0,0,0,,12,,,59,127
108953,note_off,17,0,0,,2,,,74,127
108991,note_on,38,0,0,,2,,,74,127
109008,note_off,17,0,0,,4,,,76,127
109046,note_on,38,0,0,,4,,,76,127
109063,note_off,17,0,0,,2,,,74,127
109101,note_on,38,0,0,,2,,,74,127
109118,note_off,17,0,0,,4,,,76,127
109152,note_off,34,0,0,,12,,,59,127
109152,note_off,0,0,0,,1,,,61,127
109152,note_off,0,0,0,,10,,,57,127
109152,note_off,0,0,0,,4,,,52,127
109152,note_off,0,0,0,,10,,,69,127
109152,note_off,0,0,0,,5,,,77,127
109155,note_on,3,0,0,,10,,,69,127
109155,note_on,0,0,0,,1,,,73,127
109155,note_on,0,0,0,,4,,,76,127
109155,note_on,0,0,0,,7,,,67,127
109155,note_on,0,0,0,,7,,,79,127
109155,note_on,0,0,0,,4,,,52,127
109155,note_on,0,0,0,,10,,,57,127
109155,note_on,0,0,0,,12,,,59,127
109155,note_on,0,0,0,,1,,,61,127
109172,note_off,17,0,0,,2,,,74,127
109371,note_off,199,0,0,,1,,,61,127
109371,note_off,0,0,0,,12,,,59,127
109371,note_off,0,0,0,,10,,,57,127
109371,note_off,0,0,0,,4,,,52,127
109374,note_on,3,0,0,,4,,,52,127
109374,note_on,0,0,0,,10,,,57,127
109374,note_on,0,0,0,,1,,,61,127
109374,note_on,0,0,0,,12,,,59,127
109590,note_off,216,0,0,,12,,,59,127
109590,note_off,0,0,0,,1,,,61,127
109590,note_off,0,0,0,,10,,,57,127
109590,note_off,0,0,0,,4,,,52,127
109593,note_on,3,0,0,,2,,,50,127
109593,note_on,0,0,0,,7,,,55,127
109593,note_on,0,0,0,,11,,,58,127
109593,note_on,0,0,0,,2,,,62,127
109593,note_on,0,0,0,,4,,,64,127
109809,note_off,216,0,0,,4,,,64,127
109809,note_off,0,0,0,,2,,,62,127
109809,note_off,0,0,0,,11,,,58,127
109809,note_off,0,0,0,,7,,,55,127
109809,note_off,0,0,0,,2,,,50,127
109809,note_off,0,0,0,,7,,,79,127
109809,note_off,0,0,0,,7,,,67,127
109809,note_off,0,0,0,,4,,,76,127
109809,note_off,0,0,0,,1,,,73,127
109809,note_off,0,0,0,,10,,,69,127
109812,note_on,3,0,0,,7,,,67,127
109812,note_on,0,0,0,,4,,,76,127
109812,note_on,0,0,0,,7,,,79,127
109812,note_on,0,0,0,,10,,,69,127
109812,note_on,0,0,0,,11,,,70,127
109812,note_on,0,0,0,,7,,,55,127
109812,note_on,0,0,0,,2,,,50,127
109812,note_on,0,0,0,,2,,,62,127
109812,note_on,0,0,0,,11,,,58,127
109812,note_on,0,0,0,,4,,,64,127
110028,note_off,216,0,0,,4,,,64,127
110028,note_off,0,0,0,,11,,,58,127
110028,note_off,0,0,0,,2,,,62,127
110028,note_off,0,0,0,,2,,,50,127
110028,note_off,0,0,0,,7,,,55,127
110031,note_on,3,0,0,,2,,,50,127
110031,note_on,0,0,0,,7,,,55,127
110031,note_on,0,0,0,,11,,,58,127
110031,note_on,0,0,0,,2,,,62,127
110031,note_on,0,0,0,,4,,,64,127
110247,note_off,216,0,0,,4,,,64,127
110247,note_off,0,0,0,,2,,,62,127
110247,note_off,0,0,0,,11,,,58,127
110247,note_off,0,0,0,,7,,,55,127
110247,note_off,0,0,0,,2,,,50,127
110250,note_on,3,0,0,,1,,,49,127
110250,note_on,0,0,0,,7,,,55,127
110250,note_on,0,0,0,,10,,,57,127
110250,note_on,0,0,0,,2,,,62,127
110250,note_on,0,0,0,,4,,,64,127
110466,note_off,216,0,0,,4,,,64,127
110466,note_off,0,0,0,,2,,,62,127
110466,note_off,0,0,0,,10,,,57,127
110466,note_off,0,0,0,,7,,,55,127
110466,note_off,0,0,0,,1,,,49,127
110466,note_off,0,0,0,,11,,,70,127
110466,note_off,0,0,0,,10,,,69,127
110466,note_off,0,0,0,,7,,,79,127
110466,note_off,0,0,0,,4,,,76,127
110466,note_off,0,0,0,,7,,,67,127
110469,note_on,3,0,0,,10,,,69,127
110469,note_on,0,0,0,,7,,,79,127
110469,note_on,0,0,0,,4,,,76,127
110469,note_on,0,0,0,,7,,,67,127
110469,note_on,0,0,0,,1,,,73,127
110469,note_on,0,0,0,,2,,,74,127
110469,note_on,0,0,0,,1,,,49,127
110469,note_on,0,0,0,,10,,,57,127
110469,note_on,0,0,0,,7,,,55,127
110469,note_on,0,0,0,,2,,,62,127
110469,note_on,0,0,0,,4,,,64,127
110685,note_off,216,0,0,,4,,,64,127
110685,note_off,0,0,0,,2,,,62,127
110685,note_off,0,0,0,,7,,,55,127
110685,note_off,0,0,0,,10,,,57,127
110685,note_off,0,0,0,,1,,,49,127
110688,note_on,3,0,0,,7,,,55,127
110688,note_on,0,0,0,,1,,,49,127
110688,note_on,0,0,0,,10,,,57,127
110688,note_on,0,0,0,,2,,,62,127
110688,note_on,0,0,0,,4,,,64,127
110904,note_off,216,0,0,,4,,,64,127
110904,note_off,0,0,0,,2,,,62,127
110904,note_off,0,0,0,,10,,,57,127
110904,note_off,0,0,0,,1,,,49,127
110904,note_off,0,0,0,,7,,,55,127
110907,note_on,3,0,0,,11,,,46,127
110907,note_on,0,0,0,,7,,,55,127
110907,note_on,0,0,0,,2,,,50,127
111123,note_off,216,0,0,,2,,,50,127
111123,note_off,0,0,0,,7,,,55,127
111123,note_off,0,0,0,,11,,,46,127
111123,note_off,0,0,0,,2,,,74,127
111123,note_off,0,0,0,,1,,,73,127
111123,note_off,0,0,0,,7,,,67,127
111123,note_off,0,0,0,,4,,,76,127
111123,note_off,0,0,0,,7,,,79,127
111123,note_off,0,0,0,,10,,,69,127
111126,note_on,3,0,0,,10,,,69,127
111126,note_on,0,0,0,,7,,,67,127
111126,note_on,0,0,0,,4,,,76,127
111126,note_on,0,0,0,,7,,,79,127
111126,note_on,0,0,0,,11,,,70,127
111126,note_on,0,0,0,,2,,,74,127
111126,note_on,0,0,0,,11,,,46,127
111126,note_on,0,0,0,,2,,,50,127
111126,note_on,0,0,0,,7,,,55,127
111342,note_off,216,0,0,,7,,,55,127
111342,note_off,0,0,0,,2,,,50,127
111342,note_off,0,0,0,,11,,,46,127
111345,note_on,3,0,0,,11,,,46,127
111345,note_on,0,0,0,,2,,,50,127
111345,note_on,0,0,0,,7,,,55,127
111561,note_off,216,0,0,,7,,,55,127
111561,note_off,0,0,0,,2,,,50,127
111561,note_off,0,0,0,,11,,,46,127
111564,note_on,3,0,0,,10,,,45,127
111564,note_on,0,0,0,,7,,,55,127
111564,note_on,0,0,0,,4,,,52,127
111564,note_on,0,0,0,,2,,,50,127
111564,note_on,0,0,0,,10,,,57,127
111780,note_off,216,0,0,,10,,,57,127
111780,note_off,0,0,0,,2,,,50,127
111780,note_off,0,0,0,,4,,,52,127
111780,note_off,0,0,0,,7,,,55,127
111780,note_off,0,0,0,,10,,,45,127
111780,note_off,0,0,0,,2,,,74,127
111780,note_off,0,0,0,,11,,,70,127
111780,note_off,0,0,0,,7,,,79,127
111780,note_off,0,0,0,,4,,,76,127
111780,note_off,0,0,0,,7,,,67,127
111780,note_off,0,0,0,,10,,,69,127
111783,note_on,3,0,0,,7,,,67,127
111783,note_on,0,0,0,,10,,,69,127
111783,note_on,0,0,0,,4,,,76,127
111783,note_on,0,0,0,,7,,,79,127
111783,note_on,0,0,0,,1,,,73,127
111783,note_on,0,0,0,,2,,,74,127
111783,note_on,0,0,0,,10,,,45,127
111783,note_on,0,0,0,,2,,,50,127
111783,note_on,0,0,0,,7,,,55,127
111783,note_on,0,0,0,,4,,,52,127
111783,note_on,0,0,0,,10,,,57,127
111999,note_off,216,0,0,,10,,,57,127
111999,note_off,0,0,0,,4,,,52,127
111999,note_off,0,0,0,,7,,,55,127
111999,note_off,0,0,0,,2,,,50,127
111999,note_off,0,0,0,,10,,,45,127
112002,note_on,3,0,0,,2,,,50,127
112002,note_on,0,0,0,,10,,,45,127
112002,note_on,0,0,0,,7,,,55,127
112002,note_on,0,0,0,,4,,,52,127
112002,note_on,0,0,0,,10,,,57,127
112218,note_off,216,0,0,,10,,,57,127
112218,note_off,0,0,0,,4,,,52,127
112218,note_off,0,0,0,,7,,,55,127
112218,note_off,0,0,0,,10,,,45,127
112218,note_off,0,0,0,,2,,,50,127
112221,note_on,3,0,0,,7,,,43,127
112221,note_on,0,0,0,,7,,,55,127
112221,note_on,0,0,0,,2,,,50,127
112221,note_on,0,0,0,,11,,,46,127
112221,note_on,0,0,0,,10,,,57,127
112437,note_off,216,0,0,,10,,,57,127
112437,note_off,0,0,0,,11,,,46,127
112437,note_off,0,0,0,,2,,,50,127
112437,note_off,0,0,0,,7,,,55,127
112437,note_off,0,0,0,,7,,,43,127
112437,note_off,0,0,0,,2,,,74,127
112437,note_off,0,0,0,,1,,,73,127
112437,note_off,0,0,0,,7,,,79,127
112437,note_off,0,0,0,,4,,,76,127
112437,note_off,0,0,0,,10,,,69,127
112437,note_off,0,0,0,,7,,,67,127
112440,note_on,3,0,0,,4,,,76,127
112440,note_on,0,0,0,,7,,,67,127
112440,note_on,0,0,0,,10,,,69,127
112440,note_on,0,0,0,,7,,,79,127
112440,note_on,0,0,0,,11,,,70,127
112440,note_on,0,0,0,,2,,,74,127
112440,note_on,0,0,0,,7,,,43,127
112440,note_on,0,0,0,,11,,,46,127
112440,note_on,0,0,0,,7,,,55,127
112440,note_on,0,0,0,,2,,,50,127
112440,note_on,0,0,0,,10,,,57,127
112656,note_off,216,0,0,,10,,,57,127
112656,note_off,0,0,0,,2,,,50,127
112656,note_off,0,0,0,,7,,,55,127
112656,note_off,0,0,0,,11,,,46,127
112656,note_off,0,0,0,,7,,,43,127
112659,note_on,3,0,0,,2,,,50,127
112659,note_on,0,0,0,,11,,,46,127
112659,note_on,0,0,0,,7,,,43,127
112659,note_on,0,0,0,,7,,,55,127
112659,note_on,0,0,0,,10,,,57,127
112875,note_off,216,0,0,,10,,,57,127
112875,note_off,0,0,0,,7,,,55,127
112875,note_off,0,0,0,,7,,,43,127
112875,note_off,0,0,0,,11,,,46,127
112875,note_off,0,0,0,,2,,,50,127
112875,note_off,0,0,0,,2,,,74,127
112875,note_off,0,0,0,,11,,,70,127
112875,note_off,0,0,0,,7,,,79,127
112875,note_off,0,0,0,,10,,,69,127
112875,note_off,0,0,0,,7,,,67,127
112875,note_off,0,0,0,,4,,,76,127
112878,note_on,3,0,0,,1,,,73,127
112878,note_on,0,0,0,,4,,,76,127
112878,note_on,0,0,0,,7,,,79,127
112878,note_on,0,0,0,,10,,,69,127
112878,note_on,0,0,0,,7,,,67,127
112878,note_on,0,0,0,,2,,,74,127
112878,note_on,0,0,0,,7,,,43,127
112878,note_on,0,0,0,,7,,,55,127
112878,note_on,0,0,0,,2,,,50,127
112878,note_on,0,0,0,,11,,,46,127
112878,note_on,0,0,0,,10,,,57,127
113094,note_off,216,0,0,,2,,,74,127
113094,note_off,0,0,0,,7,,,67,127
113094,note_off,0,0,0,,10,,,69,127
113094,note_off,0,0,0,,7,,,79,127
113094,note_off,0,0,0,,4,,,76,127
113094,note_off,0,0,0,,1,,,73,127
113097,note_on,3,0,0,,7,,,79,127
113097,note_on,0,0,0,,11,,,82,127
113313,note_off,216,0,0,,11,,,82,127
113313,note_off,0,0,0,,7,,,79,127
113316,note_on,3,0,0,,5,,,77,127
113316,note_on,0,0,0,,10,,,81,127
113532,note_off,216,0,0,,10,,,81,127
113532,note_off,0,0,0,,5,,,77,127
113535,note_on,3,0,0,,4,,,76,127
113535,note_on,0,0,0,,7,,,79,127
113751,note_off,216,0,0,,7,,,79,127
113751,note_off,0,0,0,,4,,,76,127
113754,note_on,3,0,0,,5,,,77,127
113754,note_on,0,0,0,,2,,,74,127
113970,note_off,216,0,0,,2,,,74,127
113970,note_off,0,0,0,,5,,,77,127
113970,note_off,0,0,0,,10,,,57,127
113970,note_off,0,0,0,,11,,,46,127
113970,note_off,0,0,0,,2,,,50,127
113970,note_off,0,0,0,,7,,,55,127
113970,note_off,0,0,0,,7,,,43,127
113973,note_on,3,0,0,,4,,,76,127
113973,note_on,0,0,0,,10,,,69,127
113973,note_on,0,0,0,,1,,,73,127
113973,note_on,0,0,0,,7,,,43,127
113973,note_on,0,0,0,,4,,,52,127
113973,note_on,0,0,0,,2,,,50,127
113973,note_on,0,0,0,,10,,,57,127
113973,note_on,0,0,0,,7,,,55,127
114189,note_off,216,0,0,,7,,,55,127
114189,note_off,0,0,0,,10,,,57,127
114189,note_off,0,0,0,,2,,,50,127
114189,note_off,0,0,0,,4,,,52,127
114189,note_off,0,0,0,,7,,,43,127
114189,note_off,0,0,0,,1,,,73,127
114189,note_off,0,0,0,,10,,,69,127
114189,note_off,0,0,0,,4,,,76,127
114192,note_on,3,0,0,,10,,,69,127
114192,note_on,0,0,0,,2,,,74,127
114192,note_on,0,0,0,,5,,,77,127
114192,note_on,0,0,0,,10,,,57,127
114192,note_on,0,0,0,,2,,,62,127
114192,note_on,0,0,0,,2,,,50,127
114408,note_off,216,0,0,,5,,,77,127
114408,note_off,0,0,0,,2,,,74,127
114411,note_on,3,0,0,,1,,,73,127
114411,note_on,0,0,0,,4,,,76,127
114627,note_off,216,0,0,,4,,,76,127
114627,note_off,0,0,0,,1,,,73,127
114627,note_off,0,0,0,,2,,,50,127
114627,note_off,0,0,0,,2,,,62,127
114627,note_off,0,0,0,,10,,,57,127
114630,note_on,3,0,0,,5,,,77,127
114630,note_on,0,0,0,,2,,,74,127
114630,note_on,0,0,0,,11,,,58,127
114630,note_on,0,0,0,,2,,,62,127
114846,note_off,216,0,0,,2,,,62,127
114846,note_off,0,0,0,,11,,,58,127
114846,note_off,0,0,0,,2,,,74,127
114846,note_off,0,0,0,,5,,,77,127
114846,note_off,0,0,0,,10,,,69,127
114849,note_on,3,0,0,,11,,,70,127
114849,note_on,0,0,0,,4,,,76,127
114849,note_on,0,0,0,,7,,,79,127
114849,note_on,0,0,0,,2,,,74,127
114849,note_on,0,0,0,,7,,,55,127
114849,note_on,0,0,0,,4,,,64,127
114849,note_on,0,0,0,,2,,,62,127
114849,note_on,0,0,0,,11,,,58,127
115065,note_off,216,0,0,,2,,,74,127
115065,note_off,0,0,0,,7,,,79,127
115065,note_off,0,0,0,,4,,,76,127
115065,note_off,0,0,0,,11,,,70,127
115068,note_on,3,0,0,,10,,,69,127
115068,note_on,0,0,0,,5,,,77,127
115284,note_off,216,0,0,,5,,,77,127
115284,note_off,0,0,0,,10,,,69,127
115287,note_on,3,0,0,,4,,,76,127
115287,note_on,0,0,0,,7,,,67,127
115503,note_off,216,0,0,,11,,,58,127
115503,note_off,0,0,0,,2,,,62,127
115503,note_off,0,0,0,,4,,,64,127
115503,note_off,0,0,0,,7,,,55,127
115506,note_on,3,0,0,,10,,,45,127
115506,note_on,0,0,0,,10,,,57,127
115506,note_on,0,0,0,,2,,,50,127
115506,note_on,0,0,0,,4,,,52,127
115506,note_on,0,0,0,,7,,,55,127
115722,note_off,216,0,0,,7,,,67,127
115722,note_off,0,0,0,,4,,,76,127
115725,note_on,3,0,0,,7,,,79,127
115725,note_on,0,0,0,,4,,,76,127
115725,note_on,0,0,0,,11,,,82,127
115725,note_on,0,0,0,,1,,,73,127
115941,note_off,216,0,0,,1,,,73,127
115941,note_off,0,0,0,,11,,,82,127
115941,note_off,0,0,0,,4,,,76,127
115941,note_off,0,0,0,,7,,,79,127
115944,note_on,3,0,0,,5,,,77,127
115944,note_on,0,0,0,,10,,,81,127
116160,note_off,216,0,0,,10,,,81,127
116160,note_off,0,0,0,,5,,,77,127
116163,note_on,3,0,0,,4,,,76,127
116163,note_on,0,0,0,,7,,,79,127
116379,note_off,216,0,0,,7,,,79,127
116379,note_off,0,0,0,,4,,,76,127
116382,note_on,3,0,0,,2,,,74,127
116382,note_on,0,0,0,,5,,,77,127
116598,note_off,216,0,0,,5,,,77,127
116598,note_off,0,0,0,,2,,,74,127
116598,note_off,0,0,0,,7,,,55,127
116598,note_off,0,0,0,,4,,,52,127
116598,note_off,0,0,0,,2,,,50,127
116598,note_off,0,0,0,,10,,,57,127
116598,note_off,0,0,0,,10,,,45,127
116601,note_on,3,0,0,,4,,,76,127
116601,note_on,0,0,0,,10,,,69,127
116601,note_on,0,0,0,,1,,,73,127
116601,note_on,0,0,0,,10,,,45,127
116601,note_on,0,0,0,,10,,,57,127
116601,note_on,0,0,0,,4,,,52,127
116601,note_on,0,0,0,,2,,,50,127
116601,note_on,0,0,0,,7,,,55,127
116817,note_off,216,0,0,,7,,,55,127
116817,note_off,0,0,0,,2,,,50,127
116817,note_off,0,0,0,,4,,,52,127
116817,note_off,0,0,0,,10,,,57,127
116817,note_off,0,0,0,,10,,,45,127
116817,note_off,0,0,0,,1,,,73,127
116817,note_off,0,0,0,,10,,,69,127
116817,note_off,0,0,0,,4,,,76,127
116820,note_on,3,0,0,,2,,,74,127
116820,note_on,0,0,0,,10,,,69,127
116820,note_on,0,0,0,,5,,,77,127
116820,note_on,0,0,0,,2,,,50,127
116820,note_on,0,0,0,,10,,,57,127
116820,note_on,0,0,0,,2,,,62,127
117036,note_off,216,0,0,,5,,,77,127
117036,note_off,0,0,0,,2,,,74,127
117039,note_on,3,0,0,,4,,,76,127
117039,note_on,0,0,0,,1,,,73,127
117255,note_off,216,0,0,,1,,,73,127
117255,note_off,0,0,0,,4,,,76,127
117255,note_off,0,0,0,,2,,,62,127
117255,note_off,0,0,0,,10,,,57,127
117255,note_off,0,0,0,,2,,,50,127
117258,note_on,3,0,0,,5,,,77,127
117258,note_on,0,0,0,,2,,,74,127
117258,note_on,0,0,0,,2,,,50,127
117258,note_on,0,0,0,,7,,,55,127
117258,note_on,0,0,0,,11,,,46,127
117258,note_on,0,0,0,,10,,,57,127
117474,note_off,216,0,0,,10,,,57,127
117474,note_off,0,0,0,,11,,,46,127
117474,note_off,0,0,0,,7,,,55,127
117474,note_off,0,0,0,,2,,,50,127
117474,note_off,0,0,0,,2,,,74,127
117474,note_off,0,0,0,,5,,,77,127
117474,note_off,0,0,0,,10,,,69,127
117477,note_on,3,0,0,,7,,,67,127
117477,note_on,0,0,0,,11,,,70,127
117477,note_on,0,0,0,,7,,,79,127
117477,note_on,0,0,0,,10,,,69,127
117477,note_on,0,0,0,,4,,,76,127
117477,note_on,0,0,0,,2,,,74,127
117477,note_on,0,0,0,,2,,,50,127
117477,note_on,0,0,0,,7,,,43,127
117477,note_on,0,0,0,,7,,,55,127
117477,note_on,0,0,0,,10,,,57,127
117693,note_off,216,0,0,,4,,,76,127
117693,note_off,0,0,0,,7,,,79,127
117696,note_on,3,0,0,,5,,,77,127
117912,note_off,216,0,0,,5,,,77,127
117912,note_off,0,0,0,,10,,,57,127
117912,note_off,0,0,0,,7,,,55,127
117912,note_off,0,0,0,,7,,,43,127
117912,note_off,0,0,0,,2,,,50,127
117912,note_off,0,0,0,,2,,,74,127
117912,note_off,0,0,0,,10,,,69,127
117912,note_off,0,0,0,,11,,,70,127
117912,note_off,0,0,0,,7,,,67,127
117915,note_on,3,0,0,,10,,,69,127
117915,note_on,0,0,0,,1,,,73,127
117915,note_on,0,0,0,,4,,,76,127
117915,note_on,0,0,0,,7,,,43,127
117915,note_on,0,0,0,,2,,,50,127
117915,note_on,0,0,0,,7,,,55,127
117915,note_on,0,0,0,,10,,,57,127
118131,note_off,216,0,0,,10,,,57,127
118131,note_off,0,0,0,,7,,,55,127
118131,note_off,0,0,0,,2,,,50,127
118131,note_off,0,0,0,,7,,,43,127
118131,note_off,0,0,0,,4,,,76,127
118131,note_off,0,0,0,,1,,,73,127
118131,note_off,0,0,0,,10,,,69,127
118134,note_on,3,0,0,,2,,,74,127
118134,note_on,0,0,0,,2,,,38,127
118350,note_off,216,0,0,,2,,,74,127
118353,note_on,3,0,0,,2,,,62,127
118459,note_off,106,0,0,,2,,,62,127
118462,note_on,3,0,0,,2,,,62,127
118568,note_off,106,0,0,,2,,,62,127
118571,note_on,3,0,0,,2,,,62,127
118677,note_off,106,0,0,,2,,,62,127
118680,note_on,3,0,0,,2,,,62,127
118786,note_off,106,0,0,,2,,,62,127
118786,note_off,0,0,0,,2,,,38,127
118789,note_on,3,0,0,,2,,,62,127
118789,note_on,0,0,0,,12,,,59,127
118789,note_on,0,0,0,,7,,,55,127
119005,note_off,216,0,0,,7,,,55,127
119005,note_off,0,0,0,,2,,,62,127
119008,note_on,3,0,0,,2,,,62,127
119008,note_on,0,0,0,,7,,,43,127
119114,note_off,106,0,0,,2,,,62,127
119117,note_on,3,0,0,,2,,,62,127
119223,note_off,106,0,0,,2,,,62,127
119223,note_off,0,0,0,,7,,,43,127
119226,note_on,3,0,0,,2,,,62,127
119226,note_on,0,0,0,,7,,,55,127
119332,note_off,106,0,0,,2,,,62,127
119335,note_on,3,0,0,,6,,,66,127
119441,note_off,106,0,0,,6,,,66,127
119441,note_off,0,0,0,,7,,,55,127
119441,note_off,0,0,0,,12,,,59,127
119444,note_on,3,0,0,,2,,,62,127
119444,note_on,0,0,0,,10,,,57,127
119444,note_on,0,0,0,,6,,,54,127
119660,note_off,216,0,0,,6,,,54,127
119660,note_off,0,0,0,,2,,,62,127
119663,note_on,3,0,0,,2,,,62,127
119663,note_on,0,0,0,,6,,,42,127
119769,note_off,106,0,0,,2,,,62,127
119772,note_on,3,0,0,,2,,,62,127
119878,note_off,106,0,0,,2,,,62,127
119878,note_off,0,0,0,,6,,,42,127
119881,note_on,3,0,0,,2,,,62,127
119881,note_on,0,0,0,,6,,,54,127
119987,note_off,106,0,0,,2,,,62,127
119990,note_on,3,0,0,,6,,,66,127
120096,note_off,106,0,0,,6,,,66,127
120096,note_off,0,0,0,,6,,,54,127
120096,note_off,0,0,0,,10,,,57,127
120099,note_on,3,0,0,,2,,,62,127
120099,note_on,0,0,0,,4,,,52,127
120099,note_on,0,0,0,,7,,,55,127
120315,note_off,216,0,0,,4,,,52,127
120315,note_off,0,0,0,,2,,,62,127
120318,note_on,3,0,0,,2,,,62,127
120318,note_on,0,0,0,,4,,,40,127
120424,note_off,106,0,0,,2,,,62,127
120427,note_on,3,0,0,,2,,,62,127
120533,note_off,106,0,0,,2,,,62,127
120533,note_off,0,0,0,,4,,,40,127
120536,note_on,3,0,0,,2,,,62,127
120536,note_on,0,0,0,,4,,,52,127
120642,note_off,106,0,0,,2,,,62,127
120645,note_on,3,0,0,,6,,,66,127
120751,note_off,106,0,0,,6,,,66,127
120751,note_off,0,0,0,,4,,,52,127
120751,note_off,0,0,0,,7,,,55,127
120754,note_on,3,0,0,,2,,,62,127
120754,note_on,0,0,0,,2,,,50,127
120754,note_on,0,0,0,,6,,,54,127
120970,note_off,216,0,0,,2,,,50,127
120970,note_off,0,0,0,,2,,,62,127
120973,note_on,3,0,0,,2,,,62,127
120973,note_on,0,0,0,,2,,,38,127
121079,note_off,106,0,0,,2,,,62,127
121082,note_on,3,0,0,,2,,,62,127
121188,note_off,106,0,0,,2,,,62,127
121188,note_off,0,0,0,,2,,,38,127
121191,note_on,3,0,0,,2,,,62,127
121191,note_on,0,0,0,,2,,,50,127
121297,note_off,106,0,0,,2,,,62,127
121300,note_on,3,0,0,,6,,,66,127
121406,note_off,106,0,0,,6,,,66,127
121406,note_off,0,0,0,,2,,,50,127
121406,note_off,0,0,0,,6,,,54,127
121409,note_on,3,0,0,,2,,,62,127
121409,note_on,0,0,0,,12,,,59,127
121409,note_on,0,0,0,,7,,,55,127
121625,note_off,216,0,0,,2,,,62,127
121628,note_on,3,0,0,,2,,,62,127
121628,note_on,0,0,0,,7,,,43,127
121734,note_off,106,0,0,,2,,,62,127
121737,note_on,3,0,0,,2,,,62,127
121842,note_off,105,0,0,,7,,,55,127
121843,note_off,1,0,0,,2,,,62,127
121843,note_off,0,0,0,,7,,,43,127
121846,note_on,3,0,0,,2,,,62,127
121846,note_on,0,0,0,,7,,,55,127
121952,note_off,106,0,0,,2,,,62,127
121955,note_on,3,0,0,,6,,,66,127
122061,note_off,106,0,0,,6,,,66,127
122061,note_off,0,0,0,,7,,,55,127
122061,note_off,0,0,0,,12,,,59,127
122064,note_on,3,0,0,,2,,,62,127
122064,note_on,0,0,0,,6,,,54,127
122064,note_on,0,0,0,,10,,,57,127
122280,note_off,216,0,0,,2,,,62,127
122283,note_on,3,0,0,,2,,,62,127
122283,note_on,0,0,0,,6,,,42,127
122389,note_off,106,0,0,,2,,,62,127
122392,note_on,3,0,0,,2,,,62,127
122497,note_off,105,0,0,,6,,,54,127
122498,note_off,1,0,0,,2,,,62,127
122498,note_off,0,0,0,,6,,,42,127
122501,note_on,3,0,0,,2,,,62,127
122501,note_on,0,0,0,,6,,,54,127
122607,note_off,106,0,0,,2,,,62,127
122610,note_on,3,0,0,,6,,,66,127
122716,note_off,106,0,0,,6,,,66,127
122716,note_off,0,0,0,,6,,,54,127
122716,note_off,0,0,0,,10,,,57,127
122719,note_on,3,0,0,,2,,,62,127
122719,note_on,0,0,0,,4,,,52,127
122719,note_on,0,0,0,,7,,,55,127
122935,note_off,216,0,0,,2,,,62,127
122938,note_on,3,0,0,,2,,,62,127
122938,note_on,0,0,0,,4,,,40,127
123044,note_off,106,0,0,,2,,,62,127
123047,note_on,3,0,0,,2,,,62,127
123152,note_off,105,0,0,,4,,,52,127
123153,note_off,1,0,0,,2,,,62,127
123153,note_off,0,0,0,,4,,,40,127
123156,note_on,3,0,0,,2,,,62,127
123156,note_on,0,0,0,,4,,,52,127
123262,note_off,106,0,0,,2,,,62,127
123265,note_on,3,0,0,,6,,,66,127
123371,note_off,106,0,0,,6,,,66,127
123371,note_off,0,0,0,,4,,,52,127
123371,note_off,0,0,0,,7,,,55,127
123374,note_on,3,0,0,,6,,,54,127
123374,note_on,0,0,0,,2,,,38,127
123480,note_off,106,0,0,,6,,,54,127
123483,note_on,3,0,0,,2,,,50,127
123589,note_off,106,0,0,,2,,,50,127
123592,note_on,3,0,0,,10,,,57,127
123698,note_off,106,0,0,,10,,,57,127
123701,note_on,3,0,0,,6,,,54,127
123807,note_off,106,0,0,,6,,,54,127
123810,note_on,3,0,0,,2,,,62,127
123916,note_off,106,0,0,,2,,,62,127
123919,note_on,3,0,0,,10,,,57,127
124025,note_off,106,0,0,,10,,,57,127
124025,note_off,0,0,0,,2,,,38,127
124028,note_on,3,0,0,,6,,,66,127
124028,note_on,0,0,0,,2,,,38,127
124134,note_off,106,0,0,,6,,,66,127
124137,note_on,3,0,0,,2,,,62,127
124243,note_off,106,0,0,,2,,,62,127
124246,note_on,3,0,0,,10,,,69,127
124352,note_off,106,0,0,,10,,,69,127
124355,note_on,3,0,0,,6,,,66,127
124461,note_off,106,0,0,,6,,,66,127
124464,note_on,3,0,0,,2,,,74,127
124570,note_off,106,0,0,,2,,,74,127
124573,note_on,3,0,0,,10,,,69,127
124679,note_off,106,0,0,,10,,,69,127
124679,note_off,0,0,0,,2,,,38,127
124682,note_on,3,0,0,,2,,,86,127
124682,note_on,0,0,0,,2,,,38,127
124682,note_on,0,0,0,,2,,,50,127
124788,note_off,106,0,0,,2,,,86,127
124791,note_on,3,0,0,,10,,,81,127
124897,note_off,106,0,0,,10,,,81,127
124900,note_on,3,0,0,,6,,,78,127
125006,note_off,106,0,0,,6,,,78,127
125009,note_on,3,0,0,,2,,,74,127
125115,note_off,106,0,0,,2,,,74,127
125115,note_off,0,0,0,,2,,,50,127
125115,note_off,0,0,0,,2,,,38,127
125118,note_on,3,0,0,,10,,,69,127
125118,note_on,0,0,0,,6,,,42,127
125118,note_on,0,0,0,,6,,,54,127
125224,note_off,106,0,0,,10,,,69,127
125227,note_on,3,0,0,,6,,,66,127
125333,note_off,106,0,0,,6,,,66,127
125333,note_off,0,0,0,,6,,,54,127
125333,note_off,0,0,0,,6,,,42,127
125336,note_on,3,0,0,,12,,,71,127
125336,note_on,0,0,0,,7,,,43,127
125336,note_on,0,0,0,,7,,,55,127
125442,note_off,106,0,0,,12,,,71,127
125445,note_on,3,0,0,,7,,,67,127
125551,note_off,106,0,0,,7,,,67,127
125551,note_off,0,0,0,,7,,,55,127
125551,note_off,0,0,0,,7,,,43,127
125554,note_on,3,0,0,,6,,,66,127
125554,note_on,0,0,0,,10,,,57,127
125660,note_off,106,0,0,,6,,,66,127
125663,note_on,3,0,0,,4,,,64,127
125769,note_off,106,0,0,,4,,,64,127
125772,note_on,3,0,0,,2,,,62,127
125772,note_on,0,0,0,,10,,,45,127
125878,note_off,106,0,0,,2,,,62,127
125881,note_on,3,0,0,,1,,,61,127
125986,note_off,105,0,0,,10,,,57,127
125987,note_off,1,0,0,,1,,,61,127
125987,note_off,0,0,0,,10,,,45,127
125990,note_on,3,0,0,,2,,,86,127
125990,note_on,0,0,0,,2,,,38,127
125990,note_on,0,0,0,,2,,,50,127
126096,note_off,106,0,0,,2,,,86,127
126099,note_on,3,0,0,,10,,,81,127
126205,note_off,106,0,0,,10,,,81,127
126208,note_on,3,0,0,,6,,,78,127
126314,note_off,106,0,0,,6,,,78,127
126317,note_on,3,0,0,,2,,,74,127
126423,note_off,106,0,0,,2,,,74,127
126423,note_off,0,0,0,,2,,,50,127
126423,note_off,0,0,0,,2,,,38,127
126426,note_on,3,0,0,,10,,,69,127
126426,note_on,0,0,0,,6,,,42,127
126426,note_on,0,0,0,,6,,,54,127
126532,note_off,106,0,0,,10,,,69,127
126535,note_on,3,0,0,,6,,,66,127
126641,note_off,106,0,0,,6,,,66,127
126641,note_off,0,0,0,,6,,,54,127
126641,note_off,0,0,0,,6,,,42,127
126644,note_on,3,0,0,,12,,,71,127
126644,note_on,0,0,0,,7,,,43,127
126644,note_on,0,0,0,,7,,,55,127
126750,note_off,106,0,0,,12,,,71,127
126753,note_on,3,0,0,,7,,,67,127
126859,note_off,106,0,0,,7,,,67,127
126859,note_off,0,0,0,,7,,,55,127
126859,note_off,0,0,0,,7,,,43,127
126862,note_on,3,0,0,,6,,,66,127
126862,note_on,0,0,0,,10,,,57,127
126968,note_off,106,0,0,,6,,,66,127
126971,note_on,3,0,0,,4,,,64,127
127077,note_off,106,0,0,,4,,,64,127
127080,note_on,3,0,0,,2,,,62,127
127080,note_on,0,0,0,,10,,,45,127
127186,note_off,106,0,0,,2,,,62,127
127189,note_on,3,0,0,,1,,,61,127
127294,note_off,105,0,0,,10,,,57,127
127295,note_off,1,0,0,,1,,,61,127
127295,note_off,0,0,0,,10,,,45,127
127298,note_on,3,0,0,,2,,,62,127
127298,note_on,0,0,0,,2,,,50,127
127404,note_off,106,0,0,,2,,,62,127
127407,note_on,3,0,0,,10,,,57,127
127513,note_off,106,0,0,,10,,,57,127
127513,note_off,0,0,0,,2,,,50,127
127516,note_on,3,0,0,,6,,,66,127
127516,note_on,0,0,0,,2,,,86,127
127622,note_off,106,0,0,,6,,,66,127
127625,note_on,3,0,0,,10,,,57,127
127731,note_off,106,0,0,,10,,,57,127
127731,note_off,0,0,0,,2,,,86,127
127734,note_on,3,0,0,,2,,,62,127
127734,note_on,0,0,0,,2,,,50,127
127840,note_off,106,0,0,,2,,,62,127
127843,note_on,3,0,0,,10,,,57,127
127949,note_off,106,0,0,,10,,,57,127
127949,note_off,0,0,0,,2,,,50,127
127952,note_on,3,0,0,,4,,,64,127
127952,note_on,0,0,0,,10,,,45,127
128058,note_off,106,0,0,,4,,,64,127
128061,note_on,3,0,0,,10,,,57,127
128167,note_off,106,0,0,,10,,,57,127
128170,note_on,3,0,0,,6,,,66,127
128276,note_off,106,0,0,,6,,,66,127
128279,note_on,3,0,0,,10,,,57,127
128385,note_off,106,0,0,,10,,,57,127
128388,note_on,3,0,0,,7,,,67,127
128494,note_off,106,0,0,,7,,,67,127
128497,note_on,3,0,0,,10,,,57,127
128603,note_off,106,0,0,,10,,,57,127
128603,note_off,0,0,0,,10,,,45,127
128606,note_on,3,0,0,,6,,,66,127
128606,note_on,0,0,0,,2,,,50,127
128712,note_off,106,0,0,,6,,,66,127
128715,note_on,3,0,0,,10,,,57,127
128821,note_off,106,0,0,,10,,,57,127
128821,note_off,0,0,0,,2,,,50,127
128824,note_on,3,0,0,,10,,,69,127
128824,note_on,0,0,0,,2,,,86,127
128930,note_off,106,0,0,,10,,,69,127
128933,note_on,3,0,0,,10,,,57,127
129039,note_off,106,0,0,,10,,,57,127
129039,note_off,0,0,0,,2,,,86,127
129042,note_on,3,0,0,,2,,,62,127
129042,note_on,0,0,0,,2,,,50,127
129148,note_off,106,0,0,,2,,,62,127
129151,note_on,3,0,0,,10,,,57,127
129257,note_off,106,0,0,,10,,,57,127
129257,note_off,0,0,0,,2,,,50,127
129260,note_on,3,0,0,,4,,,64,127
129260,note_on,0,0,0,,10,,,45,127
129366,note_off,106,0,0,,4,,,64,127
129369,note_on,3,0,0,,10,,,57,127
129475,note_off,106,0,0,,10,,,57,127
129478,note_on,3,0,0,,6,,,66,127
129584,note_off,106,0,0,,6,,,66,127
129587,note_on,3,0,0,,10,,,57,127
129693,note_off,106,0,0,,10,,,57,127
129696,note_on,3,0,0,,7,,,67,127
129802,note_off,106,0,0,,7,,,67,127
129805,note_on,3,0,0,,10,,,57,127
129911,note_off,106,0,0,,10,,,57,127
129911,note_off,0,0,0,,10,,,45,127
129914,note_on,3,0,0,,6,,,66,127
129914,note_on,0,0,0,,2,,,38,127
130020,note_off,106,0,0,,6,,,66,127
130023,note_on,3,0,0,,2,,,62,127
130129,note_off,106,0,0,,2,,,62,127
130132,note_on,3,0,0,,10,,,69,127
130238,note_off,106,0,0,,10,,,69,127
130241,note_on,3,0,0,,6,,,66,127
130347,note_off,106,0,0,,6,,,66,127
130350,note_on,3,0,0,,2,,,74,127
130456,note_off,106,0,0,,2,,,74,127
130459,note_on,3,0,0,,10,,,69,127
130565,note_off,106,0,0,,10,,,69,127
130565,note_off,0,0,0,,2,,,38,127
130568,note_on,3,0,0,,6,,,78,127
130568,note_on,0,0,0,,2,,,38,127
130674,note_off,106,0,0,,6,,,78,127
130677,note_on,3,0,0,,2,,,74,127
130783,note_off,106,0,0,,2,,,74,127
130786,note_on,3,0,0,,10,,,81,127
130892,note_off,106,0,0,,10,,,81,127
130895,note_on,3,0,0,,6,,,78,127
131001,note_off,106,0,0,,6,,,78,127
131004,note_on,3,0,0,,2,,,86,127
131110,note_off,106,0,0,,2,,,86,127
131113,note_on,3,0,0,,10,,,81,127
131219,note_off,106,0,0,,10,,,81,127
131219,note_off,0,0,0,,2,,,38,127
131222,note_on,3,0,0,,12,,,83,127
131222,note_on,0,0,0,,7,,,55,127
131328,note_off,106,0,0,,12,,,83,127
131331,note_on,3,0,0,,7,,,79,127
131437,note_off,106,0,0,,7,,,79,127
131437,note_off,0,0,0,,7,,,55,127
131440,note_on,3,0,0,,6,,,78,127
131440,note_on,0,0,0,,10,,,57,127
131546,note_off,106,0,0,,6,,,78,127
131549,note_on,3,0,0,,4,,,76,127
131655,note_off,106,0,0,,4,,,76,127
131658,note_on,3,0,0,,2,,,74,127
131658,note_on,0,0,0,,10,,,45,127
131764,note_off,106,0,0,,2,,,74,127
131767,note_on,3,0,0,,1,,,73,127
131872,note_off,105,0,0,,10,,,57,127
131873,note_off,1,0,0,,1,,,73,127
131873,note_off,0,0,0,,10,,,45,127
131876,note_on,3,0,0,,2,,,74,127
131876,note_on,0,0,0,,2,,,62,127
131982,note_off,106,0,0,,2,,,62,127
131985,note_on,3,0,0,,10,,,69,127
132091,note_off,106,0,0,,10,,,69,127
132091,note_off,0,0,0,,2,,,74,127
132094,note_on,3,0,0,,2,,,86,127
132094,note_on,0,0,0,,6,,,66,127
132200,note_off,106,0,0,,6,,,66,127
132203,note_on,3,0,0,,10,,,69,127
132309,note_off,106,0,0,,10,,,69,127
132309,note_off,0,0,0,,2,,,86,127
132312,note_on,3,0,0,,2,,,50,127
132312,note_on,0,0,0,,2,,,62,127
132418,note_off,106,0,0,,2,,,62,127
132421,note_on,3,0,0,,10,,,69,127
132527,note_off,106,0,0,,10,,,69,127
132527,note_off,0,0,0,,2,,,50,127
132530,note_on,3,0,0,,12,,,47,127
132530,note_on,0,0,0,,10,,,57,127
132600,note_off,70,0,0,,12,,,47,127
132603,note_on,3,0,0,,10,,,45,127
132636,note_off,33,0,0,,10,,,57,127
132639,note_on,3,0,0,,10,,,69,127
132672,note_off,33,0,0,,10,,,45,127
132675,note_on,3,0,0,,12,,,47,127
132745,note_off,70,0,0,,12,,,47,127
132745,note_off,0,0,0,,10,,,69,127
132748,note_on,3,0,0,,10,,,45,127
132748,note_on,0,0,0,,4,,,64,127
132818,note_off,70,0,0,,10,,,45,127
132821,note_on,3,0,0,,12,,,47,127
132854,note_off,33,0,0,,4,,,64,127
132857,note_on,3,0,0,,10,,,69,127
132890,note_off,33,0,0,,12,,,47,127
132893,note_on,3,0,0,,10,,,45,127
132963,note_off,70,0,0,,10,,,69,127
132966,note_on,3,0,0,,1,,,61,127
133072,note_off,106,0,0,,1,,,61,127
133075,note_on,3,0,0,,10,,,69,127
133163,note_off,88,0,0,,10,,,45,127
133181,note_off,18,0,0,,10,,,69,127
133184,note_on,3,0,0,,2,,,74,127
133184,note_on,0,0,0,,2,,,62,127
133290,note_off,106,0,0,,2,,,62,127
133293,note_on,3,0,0,,10,,,69,127
133399,note_off,106,0,0,,10,,,69,127
133399,note_off,0,0,0,,2,,,74,127
133402,note_on,3,0,0,,2,,,86,127
133402,note_on,0,0,0,,6,,,66,127
133508,note_off,106,0,0,,6,,,66,127
133511,note_on,3,0,0,,10,,,69,127
133617,note_off,106,0,0,,10,,,69,127
133617,note_off,0,0,0,,2,,,86,127
133620,note_on,3,0,0,,2,,,50,127
133620,note_on,0,0,0,,2,,,62,127
133726,note_off,106,0,0,,2,,,62,127
133729,note_on,3,0,0,,10,,,69,127
133835,note_off,106,0,0,,10,,,69,127
133835,note_off,0,0,0,,2,,,50,127
133838,note_on,3,0,0,,12,,,47,127
133838,note_on,0,0,0,,10,,,57,127
133908,note_off,70,0,0,,12,,,47,127
133911,note_on,3,0,0,,10,,,45,127
133944,note_off,33,0,0,,10,,,57,127
133947,note_on,3,0,0,,10,,,69,127
133980,note_off,33,0,0,,10,,,45,127
133983,note_on,3,0,0,,12,,,47,127
134053,note_off,70,0,0,,12,,,47,127
134053,note_off,0,0,0,,10,,,69,127
134056,note_on,3,0,0,,10,,,45,127
134056,note_on,0,0,0,,4,,,64,127
134126,note_off,70,0,0,,10,,,45,127
134129,note_on,3,0,0,,12,,,47,127
134162,note_off,33,0,0,,4,,,64,127
134165,note_on,3,0,0,,10,,,69,127
134198,note_off,33,0,0,,12,,,47,127
134201,note_on,3,0,0,,10,,,45,127
134271,note_off,70,0,0,,10,,,69,127
134274,note_on,3,0,0,,1,,,61,127
134380,note_off,106,0,0,,1,,,61,127
134383,note_on,3,0,0,,10,,,69,127
134471,note_off,88,0,0,,10,,,45,127
134489,note_off,18,0,0,,10,,,69,127
134492,note_on,3,0,0,,2,,,86,127
134492,note_on,0,0,0,,2,,,62,127
134598,note_off,106,0,0,,2,,,86,127
134601,note_on,3,0,0,,10,,,81,127
134707,note_off,106,0,0,,10,,,81,127
134707,note_off,0,0,0,,2,,,62,127
134710,note_on,3,0,0,,6,,,78,127
134710,note_on,0,0,0,,2,,,50,127
134816,note_off,106,0,0,,6,,,78,127
134819,note_on,3,0,0,,2,,,74,127
134925,note_off,106,0,0,,2,,,74,127
134925,note_off,0,0,0,,2,,,50,127
134928,note_on,3,0,0,,10,,,69,127
134928,note_on,0,0,0,,6,,,54,127
135034,note_off,106,0,0,,10,,,69,127
135037,note_on,3,0,0,,6,,,66,127
135143,note_off,106,0,0,,6,,,66,127
135143,note_off,0,0,0,,6,,,54,127
135146,note_on,3,0,0,,12,,,71,127
135146,note_on,0,0,0,,7,,,55,127
135252,note_off,106,0,0,,12,,,71,127
135255,note_on,3,0,0,,7,,,67,127
135361,note_off,106,0,0,,7,,,67,127
135361,note_off,0,0,0,,7,,,55,127
135364,note_on,3,0,0,,6,,,66,127
135364,note_on,0,0,0,,10,,,57,127
135470,note_off,106,0,0,,6,,,66,127
135473,note_on,3,0,0,,4,,,64,127
135579,note_off,106,0,0,,4,,,64,127
135582,note_on,3,0,0,,2,,,62,127
135582,note_on,0,0,0,,10,,,45,127
135688,note_off,106,0,0,,2,,,62,127
135691,note_on,3,0,0,,1,,,61,127
135796,note_off,105,0,0,,10,,,57,127
135797,note_off,1,0,0,,1,,,61,127
135797,note_off,0,0,0,,10,,,45,127
135800,note_on,3,0,0,,2,,,86,127
135800,note_on,0,0,0,,2,,,38,127
135800,note_on,0,0,0,,2,,,50,127
135906,note_off,106,0,0,,2,,,86,127
135909,note_on,3,0,0,,10,,,81,127
136015,note_off,106,0,0,,10,,,81,127
136018,note_on,3,0,0,,6,,,78,127
136124,note_off,106,0,0,,6,,,78,127
136127,note_on,3,0,0,,2,,,74,127
136233,note_off,106,0,0,,2,,,74,127
136233,note_off,0,0,0,,2,,,50,127
136233,note_off,0,0,0,,2,,,38,127
136236,note_on,3,0,0,,10,,,69,127
136236,note_on,0,0,0,,6,,,42,127
136236,note_on,0,0,0,,6,,,54,127
136342,note_off,106,0,0,,10,,,69,127
136345,note_on,3,0,0,,6,,,66,127
136451,note_off,106,0,0,,6,,,66,127
136451,note_off,0,0,0,,6,,,54,127
136451,note_off,0,0,0,,6,,,42,127
136454,note_on,3,0,0,,12,,,71,127
136454,note_on,0,0,0,,7,,,43,127
136454,note_on,0,0,0,,7,,,55,127
136560,note_off,106,0,0,,12,,,71,127
136563,note_on,3,0,0,,7,,,67,127
136669,note_off,106,0,0,,7,,,67,127
136669,note_off,0,0,0,,7,,,55,127
136669,note_off,0,0,0,,7,,,43,127
136672,note_on,3,0,0,,6,,,66,127
136672,note_on,0,0,0,,10,,,57,127
136778,note_off,106,0,0,,6,,,66,127
136781,note_on,3,0,0,,4,,,64,127
136887,note_off,106,0,0,,4,,,64,127
136890,note_on,3,0,0,,2,,,62,127
136890,note_on,0,0,0,,10,,,45,127
136996,note_off,106,0,0,,2,,,62,127
136999,note_on,3,0,0,,1,,,61,127
137104,note_off,105,0,0,,10,,,57,127
137105,note_off,1,0,0,,1,,,61,127
137105,note_off,0,0,0,,10,,,45,127
137108,note_on,3,0,0,,2,,,74,127
137108,note_on,0,0,0,,2,,,50,127
137214,note_off,106,0,0,,2,,,74,127
137217,note_on,3,0,0,,10,,,69,127
137323,note_off,106,0,0,,10,,,69,127
137326,note_on,3,0,0,,6,,,66,127
137326,note_on,0,0,0,,2,,,38,127
137432,note_off,106,0,0,,6,,,66,127
137435,note_on,3,0,0,,2,,,62,127
137540,note_off,105,0,0,,2,,,50,127
137541,note_off,1,0,0,,2,,,62,127
137541,note_off,0,0,0,,2,,,38,127
137544,note_on,3,0,0,,10,,,57,127
137544,note_on,0,0,0,,6,,,42,127
137650,note_off,106,0,0,,10,,,57,127
137653,note_on,3,0,0,,6,,,54,127
137759,note_off,106,0,0,,6,,,54,127
137759,note_off,0,0,0,,6,,,42,127
137762,note_on,3,0,0,,12,,,59,127
137762,note_on,0,0,0,,7,,,43,127
137868,note_off,106,0,0,,12,,,59,127
137871,note_on,3,0,0,,7,,,55,127
137977,note_off,106,0,0,,7,,,55,127
137977,note_off,0,0,0,,7,,,43,127
137980,note_on,3,0,0,,6,,,54,127
137980,note_on,0,0,0,,10,,,45,127
138086,note_off,106,0,0,,6,,,54,127
138089,note_on,3,0,0,,4,,,52,127
138195,note_off,106,0,0,,4,,,52,127
138195,note_off,0,0,0,,10,,,45,127
138198,note_on,3,0,0,,2,,,50,127
138198,note_on,0,0,0,,10,,,33,127
138198,note_on,0,0,0,,10,,,45,127
138304,note_off,106,0,0,,2,,,50,127
138312,note_on,8,0,0,,1,,,49,127
138414,note_off,102,0,0,,10,,,45,127
138414,note_off,0,0,0,,10,,,33,127
138419,note_off,5,0,0,,1,,,49,127
138446,note_on,27,0,0,,2,,,50,127
138446,note_on,0,0,0,,2,,,38,127
140503,note_off,2057,0,0,,2,,,38,127
140503,note_off,0,0,0,,2,,,50,127
141312,end_of_track,809,1,0,,,,,,
