tick,type,time,meta,track,program,channel,pitch,tempo,note,velocity
0,copyright,0,1,0,,,,,,
0,program_change,0,0,0,6,0,,,,
0,pitchwheel,0,0,0,,0,0,,,
0,program_change,0,0,0,6,1,,,,
0,pitchwheel,0,0,0,,1,-590,,,
0,program_change,0,0,0,6,2,,,,
0,pitchwheel,0,0,0,,2,-272,,,
0,program_change,0,0,0,6,3,,,,
0,pitchwheel,0,0,0,,3,-353,,,
0,program_change,0,0,0,6,4,,,,
0,pitchwheel,0,0,0,,4,-560,,,
0,program_change,0,0,0,6,5,,,,
0,pitchwheel,0,0,0,,5,-80,,,
0,program_change,0,0,0,6,6,,,,
0,pitchwheel,0,0,0,,6,-625,,,
0,program_change,0,0,0,6,7,,,,
0,pitchwheel,0,0,0,,7,-130,,,
0,program_change,0,0,0,6,8,,,,
0,pitchwheel,0,0,0,,8,-512,,,
0,program_change,0,0,0,6,10,,,,
0,pitchwheel,0,0,0,,10,-464,,,
0,program_change,0,0,0,6,11,,,,
0,pitchwheel,0,0,0,,11,-208,,,
0,program_change,0,0,0,6,12,,,,
0,pitchwheel,0,0,0,,12,-553,,,
0,set_tempo,0,1,0,,,,500000,,
92,note_on,92,0,0,,10,,,69,127
275,note_off,183,0,0,,10,,,69,127
276,note_on,1,0,0,,10,,,69,127
459,note_off,183,0,0,,10,,,69,127
461,note_on,2,0,0,,10,,,81,127
644,note_off,183,0,0,,10,,,81,127
645,note_on,1,0,0,,10,,,81,127
828,note_off,183,0,0,,10,,,81,127
829,note_on,1,0,0,,7,,,79,127
1012,note_off,183,0,0,,7,,,79,127
1013,note_on,1,0,0,,7,,,79,127
1059,note_on,46,0,0,,5,,,77,127
1071,note_off,12,0,0,,7,,,79,127
1105,note_on,34,0,0,,7,,,79,127
1117,note_off,12,0,0,,5,,,77,127
1151,note_on,34,0,0,,5,,,77,127
1163,note_off,12,0,0,,7,,,79,127
1197,note_on,34,0,0,,10,,,57,127
1197,note_on,0,0,0,,7,,,79,127
1209,note_off,12,0,0,,5,,,77,127
1243,note_on,34,0,0,,5,,,77,127
1255,note_off,12,0,0,,7,,,79,127
1289,note_on,34,0,0,,7,,,79,127
1301,note_off,12,0,0,,5,,,77,127
1335,note_on,34,0,0,,5,,,77,127
1347,note_off,12,0,0,,7,,,79,127
1380,note_off,33,0,0,,10,,,57,127
1381,note_on,1,0,0,,10,,,57,127
1381,note_on,0,0,0,,7,,,79,127
1393,note_off,12,0,0,,5,,,77,127
1427,note_on,34,0,0,,5,,,77,127
1439,note_off,12,0,0,,7,,,79,127
1473,note_on,34,0,0,,7,,,79,127
1485,note_off,12,0,0,,5,,,77,127
1519,note_on,34,0,0,,5,,,77,127
1531,note_off,12,0,0,,7,,,79,127
1564,note_off,33,0,0,,10,,,57,127
1565,note_on,1,0,0,,10,,,69,127
1565,note_on,0,0,0,,4,,,76,127
1577,note_off,12,0,0,,5,,,77,127
1748,note_off,171,0,0,,10,,,69,127
1749,note_on,1,0,0,,10,,,69,127
1932,note_off,183,0,0,,10,,,69,127
1932,note_off,0,0,0,,4,,,76,127
1933,note_on,1,0,0,,7,,,67,127
2116,note_off,183,0,0,,7,,,67,127
2117,note_on,1,0,0,,5,,,65,127
2300,note_off,183,0,0,,5,,,65,127
2301,note_on,1,0,0,,2,,,62,127
2301,note_on,0,0,0,,10,,,81,127
2484,note_off,183,0,0,,10,,,81,127
2484,note_off,0,0,0,,2,,,62,127
2485,note_on,1,0,0,,5,,,65,127
2485,note_on,0,0,0,,2,,,74,127
2668,note_off,183,0,0,,2,,,74,127
2668,note_off,0,0,0,,5,,,65,127
2669,note_on,1,0,0,,7,,,67,127
2669,note_on,0,0,0,,12,,,71,127
2852,note_off,183,0,0,,7,,,67,127
2853,note_on,1,0,0,,4,,,64,127
2853,note_on,0,0,0,,7,,,79,127
2945,note_off,92,0,0,,12,,,71,127
3036,note_off,91,0,0,,7,,,79,127
3036,note_off,0,0,0,,4,,,64,127
3037,note_on,1,0,0,,10,,,69,127
3037,note_on,0,0,0,,1,,,73,127
3220,note_off,183,0,0,,1,,,73,127
3220,note_off,0,0,0,,10,,,69,127
3221,note_on,1,0,0,,5,,,65,127
3221,note_on,0,0,0,,2,,,74,127
3404,note_off,183,0,0,,2,,,74,127
3404,note_off,0,0,0,,5,,,65,127
3405,note_on,1,0,0,,2,,,62,127
3405,note_on,0,0,0,,10,,,81,127
3588,note_off,183,0,0,,10,,,81,127
3588,note_off,0,0,0,,2,,,62,127
3589,note_on,1,0,0,,5,,,65,127
3589,note_on,0,0,0,,2,,,74,127
3772,note_off,183,0,0,,2,,,74,127
3772,note_off,0,0,0,,5,,,65,127
3773,note_on,1,0,0,,7,,,67,127
3773,note_on,0,0,0,,12,,,71,127
3956,note_off,183,0,0,,7,,,67,127
3957,note_on,1,0,0,,4,,,64,127
3957,note_on,0,0,0,,7,,,79,127
4049,note_off,92,0,0,,12,,,71,127
4140,note_off,91,0,0,,7,,,79,127
4140,note_off,0,0,0,,4,,,64,127
4141,note_on,1,0,0,,10,,,69,127
4141,note_on,0,0,0,,1,,,73,127
4324,note_off,183,0,0,,1,,,73,127
4324,note_off,0,0,0,,10,,,69,127
4325,note_on,1,0,0,,5,,,65,127
4325,note_on,0,0,0,,2,,,74,127
4508,note_off,183,0,0,,2,,,74,127
4508,note_off,0,0,0,,5,,,65,127
4509,note_on,1,0,0,,2,,,62,127
4509,note_on,0,0,0,,10,,,81,127
4692,note_off,183,0,0,,10,,,81,127
4692,note_off,0,0,0,,2,,,62,127
4693,note_on,1,0,0,,5,,,65,127
4693,note_on,0,0,0,,2,,,74,127
4876,note_off,183,0,0,,2,,,74,127
4876,note_off,0,0,0,,5,,,65,127
4877,note_on,1,0,0,,7,,,67,127
4877,note_on,0,0,0,,12,,,71,127
5060,note_off,183,0,0,,7,,,67,127
5061,note_on,1,0,0,,4,,,64,127
5061,note_on,0,0,0,,7,,,79,127
5153,note_off,92,0,0,,12,,,71,127
5244,note_off,91,0,0,,7,,,79,127
5244,note_off,0,0,0,,4,,,64,127
5245,note_on,1,0,0,,10,,,69,127
5245,note_on,0,0,0,,1,,,73,127
5428,note_off,183,0,0,,1,,,73,127
5429,note_on,1,0,0,,2,,,74,127
5612,note_off,183,0,0,,10,,,69,127
5613,note_on,1,0,0,,5,,,65,127
5796,note_off,183,0,0,,5,,,65,127
5797,note_on,1,0,0,,10,,,69,127
5980,note_off,183,0,0,,10,,,69,127
5981,note_on,1,0,0,,2,,,50,127
6164,note_off,183,0,0,,2,,,50,127
6164,note_off,0,0,0,,2,,,74,127
6165,note_on,1,0,0,,2,,,62,127
6165,note_on,0,0,0,,5,,,77,127
6165,note_on,0,0,0,,10,,,69,127
6348,note_off,183,0,0,,2,,,62,127
6349,note_on,1,0,0,,5,,,65,127
6532,note_off,183,0,0,,5,,,65,127
6533,note_on,1,0,0,,7,,,43,127
6716,note_off,183,0,0,,10,,,69,127
6716,note_off,0,0,0,,5,,,77,127
6717,note_on,1,0,0,,4,,,76,127
6717,note_on,0,0,0,,7,,,67,127
6900,note_off,183,0,0,,7,,,67,127
6900,note_off,0,0,0,,4,,,76,127
6901,note_on,1,0,0,,5,,,65,127
6901,note_on,0,0,0,,2,,,74,127
7084,note_off,183,0,0,,7,,,43,127
7085,note_on,1,0,0,,10,,,45,127
7268,note_off,183,0,0,,2,,,74,127
7268,note_off,0,0,0,,5,,,65,127
7269,note_on,1,0,0,,2,,,74,127
7269,note_on,0,0,0,,5,,,65,127
7452,note_off,183,0,0,,5,,,65,127
7452,note_off,0,0,0,,2,,,74,127
7453,note_on,1,0,0,,4,,,64,127
7453,note_on,0,0,0,,1,,,73,127
7636,note_off,183,0,0,,1,,,73,127
7636,note_off,0,0,0,,4,,,64,127
7636,note_off,0,0,0,,10,,,45,127
7637,note_on,1,0,0,,2,,,74,127
7821,note_on,184,0,0,,5,,,65,127
8004,note_off,183,0,0,,5,,,65,127
8005,note_on,1,0,0,,10,,,69,127
8188,note_off,183,0,0,,10,,,69,127
8189,note_on,1,0,0,,11,,,46,127
8372,note_off,183,0,0,,11,,,46,127
8372,note_off,0,0,0,,2,,,74,127
8373,note_on,1,0,0,,2,,,62,127
8373,note_on,0,0,0,,5,,,77,127
8373,note_on,0,0,0,,10,,,69,127
8556,note_off,183,0,0,,2,,,62,127
8557,note_on,1,0,0,,5,,,65,127
8740,note_off,183,0,0,,5,,,65,127
8741,note_on,1,0,0,,7,,,43,127
8924,note_off,183,0,0,,10,,,69,127
8924,note_off,0,0,0,,5,,,77,127
8925,note_on,1,0,0,,4,,,76,127
8925,note_on,0,0,0,,7,,,67,127
9108,note_off,183,0,0,,7,,,67,127
9108,note_off,0,0,0,,4,,,76,127
9109,note_on,1,0,0,,2,,,74,127
9109,note_on,0,0,0,,5,,,65,127
9292,note_off,183,0,0,,7,,,43,127
9293,note_on,1,0,0,,10,,,45,127
9476,note_off,183,0,0,,5,,,65,127
9476,note_off,0,0,0,,2,,,74,127
9477,note_on,1,0,0,,2,,,74,127
9477,note_on,0,0,0,,5,,,65,127
9660,note_off,183,0,0,,5,,,65,127
9660,note_off,0,0,0,,2,,,74,127
9661,note_on,1,0,0,,4,,,64,127
9661,note_on,0,0,0,,1,,,73,127
9844,note_off,183,0,0,,1,,,73,127
9844,note_off,0,0,0,,4,,,64,127
9844,note_off,0,0,0,,10,,,45,127
9845,note_on,1,0,0,,2,,,38,127
9845,note_on,0,0,0,,2,,,74,127
10028,note_off,183,0,0,,2,,,74,127
10029,note_on,1,0,0,,5,,,65,127
10212,note_off,183,0,0,,5,,,65,127
10213,note_on,1,0,0,,2,,,62,127
10396,note_off,183,0,0,,2,,,62,127
10397,note_on,1,0,0,,5,,,65,127
10397,note_on,0,0,0,,10,,,69,127
10580,note_off,183,0,0,,10,,,69,127
10580,note_off,0,0,0,,5,,,65,127
10581,note_on,1,0,0,,10,,,69,127
10581,note_on,0,0,0,,5,,,65,127
10764,note_off,183,0,0,,5,,,65,127
10764,note_off,0,0,0,,10,,,69,127
10765,note_on,1,0,0,,4,,,64,127
10765,note_on,0,0,0,,7,,,67,127
10948,note_off,183,0,0,,7,,,67,127
10948,note_off,0,0,0,,4,,,64,127
10948,note_off,0,0,0,,2,,,38,127
10949,note_on,1,0,0,,5,,,65,127
11133,note_on,184,0,0,,5,,,77,127
11316,note_off,183,0,0,,5,,,77,127
11316,note_off,0,0,0,,5,,,65,127
11317,note_on,1,0,0,,2,,,74,127
11317,note_on,0,0,0,,2,,,62,127
11500,note_off,183,0,0,,2,,,62,127
11500,note_off,0,0,0,,2,,,74,127
11501,note_on,1,0,0,,10,,,81,127
11501,note_on,0,0,0,,10,,,57,127
11684,note_off,183,0,0,,10,,,57,127
11684,note_off,0,0,0,,10,,,81,127
11685,note_on,1,0,0,,10,,,81,127
11685,note_on,0,0,0,,12,,,59,127
11868,note_off,183,0,0,,12,,,59,127
11868,note_off,0,0,0,,10,,,81,127
11869,note_on,1,0,0,,7,,,79,127
11869,note_on,0,0,0,,1,,,61,127
12052,note_off,183,0,0,,1,,,61,127
12052,note_off,0,0,0,,7,,,79,127
12053,note_on,1,0,0,,5,,,77,127
12053,note_on,0,0,0,,2,,,62,127
12236,note_off,183,0,0,,2,,,62,127
12236,note_off,0,0,0,,5,,,77,127
12237,note_on,1,0,0,,10,,,81,127
12237,note_on,0,0,0,,2,,,62,127
12420,note_off,183,0,0,,2,,,62,127
12420,note_off,0,0,0,,10,,,81,127
12421,note_on,1,0,0,,7,,,79,127
12421,note_on,0,0,0,,4,,,64,127
12604,note_off,183,0,0,,4,,,64,127
12604,note_off,0,0,0,,7,,,79,127
12605,note_on,1,0,0,,5,,,77,127
12605,note_on,0,0,0,,5,,,65,127
12788,note_off,183,0,0,,5,,,65,127
12788,note_off,0,0,0,,5,,,77,127
12789,note_on,1,0,0,,4,,,76,127
12789,note_on,0,0,0,,5,,,65,127
12972,note_off,183,0,0,,5,,,65,127
12972,note_off,0,0,0,,4,,,76,127
12973,note_on,1,0,0,,2,,,74,127
12973,note_on,0,0,0,,7,,,67,127
13156,note_off,183,0,0,,7,,,67,127
13156,note_off,0,0,0,,2,,,74,127
13157,note_on,1,0,0,,7,,,43,127
13341,note_on,184,0,0,,11,,,82,127
13341,note_on,0,0,0,,2,,,74,127
13524,note_off,183,0,0,,2,,,74,127
13524,note_off,0,0,0,,11,,,82,127
13525,note_on,1,0,0,,0,,,72,127
13525,note_on,0,0,0,,10,,,81,127
13708,note_off,183,0,0,,10,,,81,127
13708,note_off,0,0,0,,0,,,72,127
13708,note_off,0,0,0,,7,,,43,127
13709,note_on,1,0,0,,11,,,46,127
13709,note_on,0,0,0,,11,,,70,127
13709,note_on,0,0,0,,7,,,79,127
13892,note_off,183,0,0,,7,,,79,127
13892,note_off,0,0,0,,11,,,70,127
13893,note_on,1,0,0,,11,,,70,127
13893,note_on,0,0,0,,7,,,79,127
14076,note_off,183,0,0,,7,,,79,127
14076,note_off,0,0,0,,11,,,70,127
14077,note_on,1,0,0,,5,,,77,127
14077,note_on,0,0,0,,10,,,69,127
14260,note_off,183,0,0,,10,,,69,127
14260,note_off,0,0,0,,5,,,77,127
14260,note_off,0,0,0,,11,,,46,127
14261,note_on,1,0,0,,0,,,48,127
14445,note_on,184,0,0,,7,,,79,127
14628,note_off,183,0,0,,7,,,79,127
14628,note_off,0,0,0,,0,,,48,127
14629,note_on,1,0,0,,5,,,77,127
14629,note_on,0,0,0,,2,,,50,127
14812,note_off,183,0,0,,2,,,50,127
14812,note_off,0,0,0,,5,,,77,127
14813,note_on,1,0,0,,4,,,76,127
14813,note_on,0,0,0,,4,,,52,127
14996,note_off,183,0,0,,4,,,52,127
14996,note_off,0,0,0,,4,,,76,127
14997,note_on,1,0,0,,2,,,74,127
14997,note_on,0,0,0,,5,,,53,127
15180,note_off,183,0,0,,5,,,53,127
15180,note_off,0,0,0,,2,,,74,127
15181,note_on,1,0,0,,0,,,72,127
15181,note_on,0,0,0,,7,,,55,127
15364,note_off,183,0,0,,7,,,55,127
15364,note_off,0,0,0,,0,,,72,127
15365,note_on,1,0,0,,5,,,41,127
15549,note_on,184,0,0,,10,,,81,127
15549,note_on,0,0,0,,0,,,72,127
15732,note_off,183,0,0,,0,,,72,127
15732,note_off,0,0,0,,10,,,81,127
15733,note_on,1,0,0,,11,,,70,127
15733,note_on,0,0,0,,7,,,79,127
15916,note_off,183,0,0,,7,,,79,127
15916,note_off,0,0,0,,11,,,70,127
15916,note_off,0,0,0,,5,,,41,127
15917,note_on,1,0,0,,10,,,45,127
15917,note_on,0,0,0,,5,,,77,127
15917,note_on,0,0,0,,10,,,69,127
16100,note_off,183,0,0,,10,,,69,127
16100,note_off,0,0,0,,5,,,77,127
16101,note_on,1,0,0,,5,,,77,127
16101,note_on,0,0,0,,10,,,69,127
16284,note_off,183,0,0,,10,,,69,127
16284,note_off,0,0,0,,5,,,77,127
16285,note_on,1,0,0,,7,,,67,127
16285,note_on,0,0,0,,4,,,76,127
16468,note_off,183,0,0,,4,,,76,127
16468,note_off,0,0,0,,7,,,67,127
16468,note_off,0,0,0,,10,,,45,127
16469,note_on,1,0,0,,11,,,46,127
16653,note_on,184,0,0,,5,,,77,127
16836,note_off,183,0,0,,5,,,77,127
16836,note_off,0,0,0,,11,,,46,127
16837,note_on,1,0,0,,4,,,76,127
16837,note_on,0,0,0,,0,,,48,127
17020,note_off,183,0,0,,0,,,48,127
17020,note_off,0,0,0,,4,,,76,127
17021,note_on,1,0,0,,2,,,74,127
17021,note_on,0,0,0,,2,,,50,127
17204,note_off,183,0,0,,2,,,50,127
17204,note_off,0,0,0,,2,,,74,127
17205,note_on,1,0,0,,0,,,72,127
17205,note_on,0,0,0,,4,,,52,127
17388,note_off,183,0,0,,4,,,52,127
17388,note_off,0,0,0,,0,,,72,127
17389,note_on,1,0,0,,11,,,70,127
17389,note_on,0,0,0,,5,,,53,127
17572,note_off,183,0,0,,5,,,53,127
17572,note_off,0,0,0,,11,,,70,127
17573,note_on,1,0,0,,4,,,40,127
17757,note_on,184,0,0,,7,,,79,127
17757,note_on,0,0,0,,11,,,70,127
17940,note_off,183,0,0,,11,,,70,127
17940,note_off,0,0,0,,7,,,79,127
17941,note_on,1,0,0,,5,,,77,127
17941,note_on,0,0,0,,10,,,69,127
18124,note_off,183,0,0,,10,,,69,127
18124,note_off,0,0,0,,5,,,77,127
18124,note_off,0,0,0,,4,,,40,127
18125,note_on,1,0,0,,7,,,43,127
18125,note_on,0,0,0,,4,,,76,127
18125,note_on,0,0,0,,7,,,67,127
18308,note_off,183,0,0,,7,,,67,127
18308,note_off,0,0,0,,4,,,76,127
18309,note_on,1,0,0,,4,,,76,127
18309,note_on,0,0,0,,7,,,67,127
18492,note_off,183,0,0,,7,,,67,127
18492,note_off,0,0,0,,4,,,76,127
18493,note_on,1,0,0,,2,,,74,127
18493,note_on,0,0,0,,5,,,65,127
18676,note_off,183,0,0,,5,,,65,127
18676,note_off,0,0,0,,2,,,74,127
18676,note_off,0,0,0,,7,,,43,127
18677,note_on,1,0,0,,10,,,45,127
18861,note_on,184,0,0,,4,,,76,127
19044,note_off,183,0,0,,4,,,76,127
19044,note_off,0,0,0,,10,,,45,127
19045,note_on,1,0,0,,2,,,74,127
19045,note_on,0,0,0,,12,,,47,127
19228,note_off,183,0,0,,12,,,47,127
19228,note_off,0,0,0,,2,,,74,127
19229,note_on,1,0,0,,1,,,73,127
19229,note_on,0,0,0,,1,,,49,127
19412,note_off,183,0,0,,1,,,49,127
19412,note_off,0,0,0,,1,,,73,127
19413,note_on,1,0,0,,12,,,71,127
19413,note_on,0,0,0,,2,,,50,127
19596,note_off,183,0,0,,2,,,50,127
19596,note_off,0,0,0,,12,,,71,127
19597,note_on,1,0,0,,10,,,69,127
19597,note_on,0,0,0,,4,,,52,127
19780,note_off,183,0,0,,4,,,52,127
19780,note_off,0,0,0,,10,,,69,127
19781,note_on,1,0,0,,2,,,38,127
19965,note_on,184,0,0,,5,,,77,127
19965,note_on,0,0,0,,10,,,69,127
20148,note_off,183,0,0,,10,,,69,127
20148,note_off,0,0,0,,5,,,77,127
20149,note_on,1,0,0,,7,,,67,127
20149,note_on,0,0,0,,4,,,76,127
20332,note_off,183,0,0,,4,,,76,127
20332,note_off,0,0,0,,7,,,67,127
20332,note_off,0,0,0,,2,,,38,127
20333,note_on,1,0,0,,2,,,50,127
20333,note_on,0,0,0,,5,,,65,127
20333,note_on,0,0,0,,2,,,74,127
20516,note_off,183,0,0,,2,,,74,127
20516,note_off,0,0,0,,5,,,65,127
20517,note_on,1,0,0,,2,,,74,127
20517,note_on,0,0,0,,5,,,65,127
20700,note_off,183,0,0,,5,,,65,127
20700,note_off,0,0,0,,2,,,74,127
20701,note_on,1,0,0,,0,,,72,127
20701,note_on,0,0,0,,4,,,64,127
20884,note_off,183,0,0,,4,,,64,127
20884,note_off,0,0,0,,0,,,72,127
20885,note_on,1,0,0,,2,,,38,127
20885,note_on,0,0,0,,0,,,72,127
20885,note_on,0,0,0,,4,,,64,127
21068,note_off,183,0,0,,4,,,64,127
21068,note_off,0,0,0,,0,,,72,127
21069,note_on,1,0,0,,12,,,71,127
21069,note_on,0,0,0,,2,,,62,127
21252,note_off,183,0,0,,2,,,62,127
21252,note_off,0,0,0,,12,,,71,127
21253,note_on,1,0,0,,10,,,69,127
21253,note_on,0,0,0,,0,,,60,127
21435,note_off,182,0,0,,2,,,50,127
21436,note_off,1,0,0,,0,,,60,127
21436,note_off,0,0,0,,10,,,69,127
21436,note_off,0,0,0,,2,,,38,127
21437,note_on,1,0,0,,2,,,50,127
21437,note_on,0,0,0,,0,,,60,127
21437,note_on,0,0,0,,10,,,69,127
21620,note_off,183,0,0,,10,,,69,127
21620,note_off,0,0,0,,0,,,60,127
21621,note_on,1,0,0,,7,,,67,127
21621,note_on,0,0,0,,12,,,59,127
21804,note_off,183,0,0,,12,,,59,127
21804,note_off,0,0,0,,7,,,67,127
21805,note_on,1,0,0,,5,,,65,127
21805,note_on,0,0,0,,10,,,57,127
21988,note_off,183,0,0,,10,,,57,127
21988,note_off,0,0,0,,5,,,65,127
21988,note_off,0,0,0,,2,,,50,127
21989,note_on,1,0,0,,4,,,40,127
21989,note_on,0,0,0,,8,,,56,127
21989,note_on,0,0,0,,4,,,64,127
22172,note_off,183,0,0,,4,,,64,127
22172,note_off,0,0,0,,8,,,56,127
22173,note_on,1,0,0,,4,,,64,127
22356,note_off,183,0,0,,4,,,64,127
22357,note_on,1,0,0,,4,,,64,127
22540,note_off,183,0,0,,4,,,64,127
22541,note_on,1,0,0,,4,,,76,127
22724,note_off,183,0,0,,4,,,76,127
22725,note_on,1,0,0,,4,,,76,127
22908,note_off,183,0,0,,4,,,76,127
22909,note_on,1,0,0,,2,,,74,127
23092,note_off,183,0,0,,2,,,74,127
23092,note_off,0,0,0,,4,,,40,127
23093,note_on,1,0,0,,2,,,74,127
23139,note_on,46,0,0,,0,,,72,127
23151,note_off,12,0,0,,2,,,74,127
23185,note_on,34,0,0,,2,,,74,127
23197,note_off,12,0,0,,0,,,72,127
23231,note_on,34,0,0,,0,,,72,127
23243,note_off,12,0,0,,2,,,74,127
23277,note_on,34,0,0,,4,,,52,127
23277,note_on,0,0,0,,2,,,74,127
23289,note_off,12,0,0,,0,,,72,127
23323,note_on,34,0,0,,0,,,72,127
23335,note_off,12,0,0,,2,,,74,127
23369,note_on,34,0,0,,2,,,74,127
23381,note_off,12,0,0,,0,,,72,127
23415,note_on,34,0,0,,0,,,72,127
23427,note_off,12,0,0,,2,,,74,127
23460,note_off,33,0,0,,4,,,52,127
23461,note_on,1,0,0,,4,,,52,127
23461,note_on,0,0,0,,2,,,74,127
23473,note_off,12,0,0,,0,,,72,127
23507,note_on,34,0,0,,0,,,72,127
23519,note_off,12,0,0,,2,,,74,127
23553,note_on,34,0,0,,2,,,74,127
23565,note_off,12,0,0,,0,,,72,127
23599,note_on,34,0,0,,0,,,72,127
23611,note_off,12,0,0,,2,,,74,127
23644,note_off,33,0,0,,4,,,52,127
23645,note_on,1,0,0,,4,,,64,127
23645,note_on,0,0,0,,12,,,71,127
23657,note_off,12,0,0,,0,,,72,127
23828,note_off,171,0,0,,4,,,64,127
23829,note_on,1,0,0,,4,,,64,127
24012,note_off,183,0,0,,4,,,64,127
24012,note_off,0,0,0,,12,,,71,127
24013,note_on,1,0,0,,2,,,62,127
24196,note_off,183,0,0,,2,,,62,127
24197,note_on,1,0,0,,0,,,60,127
24380,note_off,183,0,0,,0,,,60,127
24381,note_on,1,0,0,,10,,,57,127
24381,note_on,0,0,0,,4,,,76,127
24564,note_off,183,0,0,,4,,,76,127
24564,note_off,0,0,0,,10,,,57,127
24565,note_on,1,0,0,,0,,,60,127
24565,note_on,0,0,0,,10,,,69,127
24748,note_off,183,0,0,,10,,,69,127
24748,note_off,0,0,0,,0,,,60,127
24749,note_on,1,0,0,,2,,,62,127
24749,note_on,0,0,0,,5,,,65,127
24932,note_off,183,0,0,,2,,,62,127
24933,note_on,1,0,0,,12,,,59,127
24933,note_on,0,0,0,,2,,,74,127
25025,note_off,92,0,0,,5,,,65,127
25116,note_off,91,0,0,,2,,,74,127
25116,note_off,0,0,0,,12,,,59,127
25117,note_on,1,0,0,,4,,,64,127
25117,note_on,0,0,0,,8,,,68,127
25300,note_off,183,0,0,,8,,,68,127
25300,note_off,0,0,0,,4,,,64,127
25301,note_on,1,0,0,,0,,,60,127
25301,note_on,0,0,0,,10,,,69,127
25484,note_off,183,0,0,,10,,,69,127
25484,note_off,0,0,0,,0,,,60,127
25485,note_on,1,0,0,,10,,,57,127
25485,note_on,0,0,0,,4,,,76,127
25668,note_off,183,0,0,,4,,,76,127
25668,note_off,0,0,0,,10,,,57,127
25669,note_on,1,0,0,,0,,,60,127
25669,note_on,0,0,0,,10,,,69,127
25852,note_off,183,0,0,,10,,,69,127
25852,note_off,0,0,0,,0,,,60,127
25853,note_on,1,0,0,,2,,,62,127
25853,note_on,0,0,0,,5,,,65,127
26036,note_off,183,0,0,,2,,,62,127
26037,note_on,1,0,0,,12,,,59,127
26037,note_on,0,0,0,,2,,,74,127
26129,note_off,92,0,0,,5,,,65,127
26220,note_off,91,0,0,,2,,,74,127
26220,note_off,0,0,0,,12,,,59,127
26221,note_on,1,0,0,,4,,,64,127
26221,note_on,0,0,0,,8,,,68,127
26404,note_off,183,0,0,,8,,,68,127
26404,note_off,0,0,0,,4,,,64,127
26405,note_on,1,0,0,,0,,,60,127
26405,note_on,0,0,0,,10,,,69,127
26588,note_off,183,0,0,,10,,,69,127
26589,note_on,1,0,0,,5,,,77,127
26589,note_on,0,0,0,,10,,,69,127
26772,note_off,183,0,0,,10,,,69,127
26772,note_off,0,0,0,,5,,,77,127
26772,note_off,0,0,0,,0,,,60,127
26773,note_on,1,0,0,,10,,,57,127
26773,note_on,0,0,0,,7,,,67,127
26773,note_on,0,0,0,,4,,,76,127
26956,note_off,183,0,0,,4,,,76,127
26956,note_off,0,0,0,,7,,,67,127
26957,note_on,1,0,0,,5,,,65,127
26957,note_on,0,0,0,,2,,,74,127
27140,note_off,183,0,0,,5,,,65,127
27140,note_off,0,0,0,,10,,,57,127
27141,note_on,1,0,0,,10,,,81,127
27141,note_on,0,0,0,,5,,,65,127
27324,note_off,183,0,0,,5,,,65,127
27324,note_off,0,0,0,,10,,,81,127
27325,note_on,1,0,0,,7,,,79,127
27325,note_on,0,0,0,,4,,,64,127
27508,note_off,183,0,0,,4,,,64,127
27508,note_off,0,0,0,,7,,,79,127
27509,note_on,1,0,0,,5,,,77,127
27509,note_on,0,0,0,,2,,,62,127
27692,note_off,183,0,0,,5,,,77,127
27692,note_off,0,0,0,,2,,,74,127
27693,note_on,1,0,0,,5,,,77,127
27693,note_on,0,0,0,,2,,,74,127
27876,note_off,183,0,0,,2,,,74,127
27876,note_off,0,0,0,,5,,,77,127
27877,note_on,1,0,0,,4,,,76,127
27877,note_on,0,0,0,,0,,,72,127
28060,note_off,183,0,0,,0,,,72,127
28060,note_off,0,0,0,,4,,,76,127
28061,note_on,1,0,0,,2,,,74,127
28061,note_on,0,0,0,,12,,,71,127
28244,note_off,183,0,0,,12,,,71,127
28244,note_off,0,0,0,,2,,,74,127
28245,note_on,1,0,0,,2,,,74,127
28245,note_on,0,0,0,,12,,,71,127
28428,note_off,183,0,0,,12,,,71,127
28428,note_off,0,0,0,,2,,,74,127
28429,note_on,1,0,0,,0,,,72,127
28429,note_on,0,0,0,,10,,,69,127
28612,note_off,183,0,0,,10,,,69,127
28612,note_off,0,0,0,,0,,,72,127
28612,note_off,0,0,0,,2,,,62,127
28613,note_on,1,0,0,,4,,,52,127
28613,note_on,0,0,0,,8,,,68,127
28796,note_off,183,0,0,,8,,,68,127
28797,note_on,1,0,0,,4,,,64,127
28980,note_off,183,0,0,,4,,,64,127
28980,note_off,0,0,0,,4,,,52,127
28981,note_on,1,0,0,,4,,,76,127
28981,note_on,0,0,0,,8,,,68,127
29164,note_off,183,0,0,,8,,,68,127
29164,note_off,0,0,0,,4,,,76,127
29165,note_on,1,0,0,,5,,,77,127
29165,note_on,0,0,0,,10,,,69,127
29348,note_off,183,0,0,,10,,,69,127
29349,note_on,1,0,0,,8,,,68,127
29532,note_off,183,0,0,,8,,,68,127
29533,note_on,1,0,0,,10,,,69,127
29625,note_off,92,0,0,,5,,,77,127
29716,note_off,91,0,0,,10,,,69,127
29717,note_on,1,0,0,,4,,,40,127
29717,note_on,0,0,0,,8,,,68,127
29717,note_on,0,0,0,,12,,,71,127
29717,note_on,0,0,0,,4,,,64,127
29900,note_off,183,0,0,,12,,,71,127
29900,note_off,0,0,0,,8,,,68,127
29901,note_on,1,0,0,,0,,,72,127
29901,note_on,0,0,0,,10,,,69,127
30084,note_off,183,0,0,,10,,,69,127
30084,note_off,0,0,0,,0,,,72,127
30084,note_off,0,0,0,,4,,,40,127
30085,note_on,1,0,0,,8,,,80,127
30085,note_on,0,0,0,,2,,,74,127
30085,note_on,0,0,0,,12,,,71,127
30268,note_off,183,0,0,,12,,,71,127
30268,note_off,0,0,0,,2,,,74,127
30268,note_off,0,0,0,,8,,,80,127
30269,note_on,1,0,0,,10,,,81,127
30269,note_on,0,0,0,,0,,,72,127
30269,note_on,0,0,0,,10,,,69,127
30452,note_off,183,0,0,,10,,,69,127
30452,note_off,0,0,0,,0,,,72,127
30453,note_on,1,0,0,,8,,,68,127
30453,note_on,0,0,0,,12,,,71,127
30636,note_off,183,0,0,,12,,,71,127
30636,note_off,0,0,0,,8,,,68,127
30637,note_on,1,0,0,,0,,,72,127
30637,note_on,0,0,0,,10,,,69,127
30729,note_off,92,0,0,,10,,,81,127
30820,note_off,91,0,0,,10,,,69,127
30820,note_off,0,0,0,,0,,,72,127
30820,note_off,0,0,0,,4,,,64,127
30821,note_on,1,0,0,,4,,,40,127
30821,note_on,0,0,0,,4,,,64,127
30821,note_on,0,0,0,,8,,,68,127
30821,note_on,0,0,0,,12,,,71,127
31004,note_off,183,0,0,,12,,,71,127
31004,note_off,0,0,0,,8,,,68,127
31005,note_on,1,0,0,,10,,,69,127
31005,note_on,0,0,0,,0,,,72,127
31188,note_off,183,0,0,,0,,,72,127
31188,note_off,0,0,0,,10,,,69,127
31188,note_off,0,0,0,,4,,,40,127
31189,note_on,1,0,0,,12,,,83,127
31189,note_on,0,0,0,,12,,,71,127
31189,note_on,0,0,0,,2,,,74,127
31372,note_off,183,0,0,,2,,,74,127
31372,note_off,0,0,0,,12,,,71,127
31372,note_off,0,0,0,,12,,,83,127
31373,note_on,1,0,0,,0,,,84,127
31373,note_on,0,0,0,,0,,,72,127
31373,note_on,0,0,0,,4,,,76,127
31556,note_off,183,0,0,,4,,,76,127
31556,note_off,0,0,0,,0,,,72,127
31557,note_on,1,0,0,,12,,,71,127
31557,note_on,0,0,0,,2,,,74,127
31740,note_off,183,0,0,,2,,,74,127
31740,note_off,0,0,0,,12,,,71,127
31741,note_on,1,0,0,,0,,,72,127
31741,note_on,0,0,0,,4,,,76,127
31833,note_off,92,0,0,,0,,,84,127
31924,note_off,91,0,0,,4,,,76,127
31924,note_off,0,0,0,,0,,,72,127
31924,note_off,0,0,0,,4,,,64,127
31925,note_on,1,0,0,,4,,,40,127
31925,note_on,0,0,0,,4,,,64,127
31925,note_on,0,0,0,,12,,,71,127
31925,note_on,0,0,0,,2,,,74,127
32108,note_off,183,0,0,,2,,,74,127
32108,note_off,0,0,0,,12,,,71,127
32109,note_on,1,0,0,,0,,,72,127
32109,note_on,0,0,0,,10,,,69,127
32292,note_off,183,0,0,,10,,,69,127
32292,note_off,0,0,0,,0,,,72,127
32292,note_off,0,0,0,,4,,,40,127
32293,note_on,1,0,0,,8,,,80,127
32293,note_on,0,0,0,,2,,,74,127
32293,note_on,0,0,0,,12,,,71,127
32476,note_off,183,0,0,,12,,,71,127
32476,note_off,0,0,0,,2,,,74,127
32476,note_off,0,0,0,,8,,,80,127
32477,note_on,1,0,0,,10,,,81,127
32477,note_on,0,0,0,,10,,,69,127
32477,note_on,0,0,0,,0,,,72,127
32660,note_off,183,0,0,,0,,,72,127
32660,note_off,0,0,0,,10,,,69,127
32661,note_on,1,0,0,,12,,,71,127
32661,note_on,0,0,0,,8,,,68,127
32844,note_off,183,0,0,,8,,,68,127
32844,note_off,0,0,0,,12,,,71,127
32845,note_on,1,0,0,,0,,,72,127
32845,note_on,0,0,0,,10,,,69,127
32937,note_off,92,0,0,,10,,,81,127
33028,note_off,91,0,0,,10,,,69,127
33028,note_off,0,0,0,,0,,,72,127
33028,note_off,0,0,0,,4,,,64,127
33029,note_on,1,0,0,,4,,,40,127
33029,note_on,0,0,0,,12,,,71,127
33212,note_off,183,0,0,,12,,,71,127
33213,note_on,1,0,0,,10,,,69,127
33396,note_off,183,0,0,,10,,,69,127
33396,note_off,0,0,0,,4,,,40,127
33397,note_on,1,0,0,,4,,,76,127
33397,note_on,0,0,0,,8,,,68,127
33580,note_off,183,0,0,,8,,,68,127
33580,note_off,0,0,0,,4,,,76,127
33581,note_on,1,0,0,,5,,,77,127
33581,note_on,0,0,0,,10,,,69,127
33764,note_off,183,0,0,,10,,,69,127
33765,note_on,1,0,0,,8,,,68,127
33948,note_off,183,0,0,,8,,,68,127
33948,note_off,0,0,0,,5,,,77,127
33949,note_on,1,0,0,,10,,,69,127
34132,note_off,183,0,0,,10,,,69,127
34133,note_on,1,0,0,,4,,,52,127
34133,note_on,0,0,0,,8,,,68,127
34316,note_off,183,0,0,,8,,,68,127
34317,note_on,1,0,0,,4,,,64,127
34500,note_off,183,0,0,,4,,,64,127
34500,note_off,0,0,0,,4,,,52,127
34501,note_on,1,0,0,,0,,,84,127
34501,note_on,0,0,0,,0,,,72,127
34684,note_off,183,0,0,,0,,,72,127
34684,note_off,0,0,0,,0,,,84,127
34685,note_on,1,0,0,,2,,,50,127
34685,note_on,0,0,0,,5,,,65,127
34868,note_off,183,0,0,,5,,,65,127
34869,note_on,1,0,0,,2,,,62,127
35052,note_off,183,0,0,,2,,,62,127
35052,note_off,0,0,0,,2,,,50,127
35053,note_on,1,0,0,,12,,,83,127
35053,note_on,0,0,0,,12,,,71,127
35236,note_off,183,0,0,,12,,,71,127
35236,note_off,0,0,0,,12,,,83,127
35237,note_on,1,0,0,,0,,,48,127
35237,note_on,0,0,0,,4,,,64,127
35420,note_off,183,0,0,,4,,,64,127
35421,note_on,1,0,0,,0,,,60,127
35604,note_off,183,0,0,,0,,,60,127
35604,note_off,0,0,0,,0,,,48,127
35605,note_on,1,0,0,,10,,,81,127
35605,note_on,0,0,0,,10,,,69,127
35788,note_off,183,0,0,,10,,,81,127
35789,note_on,1,0,0,,12,,,47,127
35789,note_on,0,0,0,,2,,,62,127
35972,note_off,183,0,0,,10,,,69,127
35973,note_on,1,0,0,,12,,,71,127
36156,note_off,183,0,0,,12,,,71,127
36156,note_off,0,0,0,,12,,,47,127
36157,note_on,1,0,0,,8,,,80,127
36157,note_on,0,0,0,,8,,,68,127
36340,note_off,183,0,0,,8,,,68,127
36340,note_off,0,0,0,,8,,,80,127
36340,note_off,0,0,0,,2,,,62,127
36341,note_on,1,0,0,,10,,,45,127
36341,note_on,0,0,0,,0,,,60,127
36341,note_on,0,0,0,,10,,,69,127
36524,note_off,183,0,0,,10,,,69,127
36524,note_off,0,0,0,,0,,,60,127
36525,note_on,1,0,0,,2,,,62,127
36525,note_on,0,0,0,,12,,,71,127
36708,note_off,183,0,0,,12,,,71,127
36708,note_off,0,0,0,,2,,,62,127
36708,note_off,0,0,0,,10,,,45,127
36709,note_on,1,0,0,,10,,,57,127
36709,note_on,0,0,0,,0,,,72,127
36709,note_on,0,0,0,,4,,,64,127
36892,note_off,183,0,0,,4,,,64,127
36892,note_off,0,0,0,,0,,,72,127
36892,note_off,0,0,0,,10,,,57,127
36893,note_on,1,0,0,,5,,,53,127
36893,note_on,0,0,0,,2,,,74,127
36893,note_on,0,0,0,,5,,,65,127
37076,note_off,183,0,0,,2,,,74,127
37076,note_off,0,0,0,,5,,,53,127
37077,note_on,1,0,0,,4,,,52,127
37077,note_on,0,0,0,,4,,,76,127
37260,note_off,183,0,0,,4,,,76,127
37260,note_off,0,0,0,,4,,,52,127
37260,note_off,0,0,0,,5,,,65,127
37261,note_on,1,0,0,,2,,,50,127
37261,note_on,0,0,0,,5,,,77,127
37261,note_on,0,0,0,,8,,,68,127
37444,note_off,183,0,0,,8,,,68,127
37444,note_off,0,0,0,,2,,,50,127
37445,note_on,1,0,0,,0,,,48,127
37445,note_on,0,0,0,,10,,,69,127
37628,note_off,183,0,0,,5,,,77,127
37629,note_on,1,0,0,,4,,,76,127
37812,note_off,183,0,0,,4,,,76,127
37812,note_off,0,0,0,,0,,,48,127
37813,note_on,1,0,0,,2,,,50,127
37813,note_on,0,0,0,,2,,,74,127
37996,note_off,183,0,0,,2,,,50,127
37997,note_on,1,0,0,,4,,,52,127
38180,note_off,183,0,0,,2,,,74,127
38181,note_on,1,0,0,,0,,,72,127
38364,note_off,183,0,0,,0,,,72,127
38364,note_off,0,0,0,,4,,,52,127
38364,note_off,0,0,0,,10,,,69,127
38365,note_on,1,0,0,,4,,,40,127
38365,note_on,0,0,0,,12,,,71,127
38365,note_on,0,0,0,,8,,,68,127
38548,note_off,183,0,0,,8,,,68,127
38548,note_off,0,0,0,,12,,,71,127
38548,note_off,0,0,0,,4,,,40,127
38549,note_on,1,0,0,,10,,,45,127
38549,note_on,0,0,0,,10,,,69,127
38549,note_on,0,0,0,,0,,,72,127
38732,note_off,183,0,0,,0,,,72,127
38733,note_on,1,0,0,,2,,,74,127
38916,note_off,183,0,0,,2,,,74,127
38916,note_off,0,0,0,,10,,,45,127
38917,note_on,1,0,0,,10,,,57,127
38917,note_on,0,0,0,,4,,,76,127
39100,note_off,183,0,0,,4,,,76,127
39100,note_off,0,0,0,,10,,,57,127
39100,note_off,0,0,0,,10,,,69,127
39101,note_on,1,0,0,,5,,,65,127
39101,note_on,0,0,0,,10,,,69,127
39101,note_on,0,0,0,,2,,,74,127
39284,note_off,183,0,0,,2,,,74,127
39284,note_off,0,0,0,,5,,,65,127
39285,note_on,1,0,0,,4,,,64,127
39285,note_on,0,0,0,,4,,,76,127
39468,note_off,183,0,0,,4,,,76,127
39468,note_off,0,0,0,,4,,,64,127
39469,note_on,1,0,0,,2,,,62,127
39469,note_on,0,0,0,,5,,,77,127
39652,note_off,183,0,0,,5,,,77,127
39652,note_off,0,0,0,,2,,,62,127
39652,note_off,0,0,0,,10,,,69,127
39653,note_on,1,0,0,,8,,,68,127
39653,note_on,0,0,0,,4,,,64,127
39653,note_on,0,0,0,,12,,,71,127
39837,note_on,184,0,0,,12,,,83,127
40020,note_off,183,0,0,,12,,,83,127
40021,note_on,1,0,0,,8,,,80,127
40204,note_off,183,0,0,,8,,,80,127
40204,note_off,0,0,0,,12,,,71,127
40204,note_off,0,0,0,,4,,,64,127
40204,note_off,0,0,0,,8,,,68,127
40205,note_on,1,0,0,,5,,,65,127
40205,note_on,0,0,0,,12,,,71,127
40205,note_on,0,0,0,,10,,,69,127
40205,note_on,0,0,0,,7,,,55,127
40251,note_on,46,0,0,,5,,,53,127
40263,note_off,12,0,0,,7,,,55,127
40297,note_on,34,0,0,,7,,,55,127
40309,note_off,12,0,0,,5,,,53,127
40343,note_on,34,0,0,,5,,,53,127
40355,note_off,12,0,0,,7,,,55,127
40389,note_on,34,0,0,,7,,,55,127
40401,note_off,12,0,0,,5,,,53,127
40435,note_on,34,0,0,,5,,,53,127
40447,note_off,12,0,0,,7,,,55,127
40481,note_on,34,0,0,,7,,,55,127
40493,note_off,12,0,0,,5,,,53,127
40527,note_on,34,0,0,,5,,,53,127
40539,note_off,12,0,0,,7,,,55,127
40573,note_on,34,0,0,,7,,,55,127
40585,note_off,12,0,0,,5,,,53,127
40619,note_on,34,0,0,,5,,,53,127
40631,note_off,12,0,0,,7,,,55,127
40665,note_on,34,0,0,,7,,,55,127
40677,note_off,12,0,0,,5,,,53,127
40711,note_on,34,0,0,,5,,,53,127
40723,note_off,12,0,0,,7,,,55,127
40756,note_off,33,0,0,,10,,,69,127
40756,note_off,0,0,0,,12,,,71,127
40756,note_off,0,0,0,,5,,,65,127
40757,note_on,1,0,0,,12,,,71,127
40757,note_on,0,0,0,,8,,,68,127
40757,note_on,0,0,0,,4,,,64,127
40757,note_on,0,0,0,,4,,,52,127
40769,note_off,12,0,0,,5,,,53,127
40940,note_off,171,0,0,,4,,,52,127
40941,note_on,1,0,0,,12,,,83,127
41124,note_off,183,0,0,,12,,,83,127
41125,note_on,1,0,0,,8,,,80,127
41308,note_off,183,0,0,,8,,,80,127
41308,note_off,0,0,0,,4,,,64,127
41308,note_off,0,0,0,,8,,,68,127
41308,note_off,0,0,0,,12,,,71,127
41309,note_on,1,0,0,,10,,,69,127
41309,note_on,0,0,0,,5,,,65,127
41309,note_on,0,0,0,,12,,,71,127
41309,note_on,0,0,0,,7,,,43,127
41355,note_on,46,0,0,,5,,,41,127
41367,note_off,12,0,0,,7,,,43,127
41401,note_on,34,0,0,,7,,,43,127
41413,note_off,12,0,0,,5,,,41,127
41447,note_on,34,0,0,,5,,,41,127
41459,note_off,12,0,0,,7,,,43,127
41493,note_on,34,0,0,,7,,,43,127
41505,note_off,12,0,0,,5,,,41,127
41539,note_on,34,0,0,,5,,,41,127
41551,note_off,12,0,0,,7,,,43,127
41585,note_on,34,0,0,,7,,,43,127
41597,note_off,12,0,0,,5,,,41,127
41631,note_on,34,0,0,,5,,,41,127
41643,note_off,12,0,0,,7,,,43,127
41677,note_on,34,0,0,,7,,,43,127
41689,note_off,12,0,0,,5,,,41,127
41723,note_on,34,0,0,,5,,,41,127
41735,note_off,12,0,0,,7,,,43,127
41769,note_on,34,0,0,,7,,,43,127
41781,note_off,12,0,0,,5,,,41,127
41815,note_on,34,0,0,,5,,,41,127
41827,note_off,12,0,0,,7,,,43,127
41860,note_off,33,0,0,,12,,,71,127
41860,note_off,0,0,0,,5,,,65,127
41860,note_off,0,0,0,,10,,,69,127
41861,note_on,1,0,0,,4,,,64,127
41861,note_on,0,0,0,,0,,,72,127
41861,note_on,0,0,0,,10,,,69,127
41861,note_on,0,0,0,,4,,,40,127
41873,note_off,12,0,0,,5,,,41,127
42044,note_off,171,0,0,,4,,,40,127
42045,note_on,1,0,0,,0,,,84,127
42228,note_off,183,0,0,,0,,,84,127
42229,note_on,1,0,0,,10,,,81,127
42412,note_off,183,0,0,,10,,,81,127
42412,note_off,0,0,0,,10,,,69,127
42412,note_off,0,0,0,,0,,,72,127
42412,note_off,0,0,0,,4,,,64,127
42413,note_on,1,0,0,,8,,,68,127
42413,note_on,0,0,0,,2,,,62,127
42413,note_on,0,0,0,,10,,,69,127
42413,note_on,0,0,0,,12,,,71,127
42413,note_on,0,0,0,,4,,,52,127
42459,note_on,46,0,0,,2,,,50,127
42471,note_off,12,0,0,,4,,,52,127
42505,note_on,34,0,0,,4,,,52,127
42517,note_off,12,0,0,,2,,,50,127
42551,note_on,34,0,0,,2,,,50,127
42563,note_off,12,0,0,,4,,,52,127
42597,note_on,34,0,0,,4,,,52,127
42609,note_off,12,0,0,,2,,,50,127
42643,note_on,34,0,0,,2,,,50,127
42655,note_off,12,0,0,,4,,,52,127
42689,note_on,34,0,0,,4,,,52,127
42701,note_off,12,0,0,,2,,,50,127
42735,note_on,34,0,0,,2,,,50,127
42747,note_off,12,0,0,,4,,,52,127
42781,note_on,34,0,0,,4,,,52,127
42793,note_off,12,0,0,,2,,,50,127
42827,note_on,34,0,0,,2,,,50,127
42839,note_off,12,0,0,,4,,,52,127
42873,note_on,34,0,0,,4,,,52,127
42885,note_off,12,0,0,,2,,,50,127
42919,note_on,34,0,0,,2,,,50,127
42931,note_off,12,0,0,,4,,,52,127
42964,note_off,33,0,0,,12,,,71,127
42964,note_off,0,0,0,,10,,,69,127
42964,note_off,0,0,0,,2,,,62,127
42964,note_off,0,0,0,,8,,,68,127
42965,note_on,1,0,0,,4,,,64,127
42965,note_on,0,0,0,,0,,,60,127
42965,note_on,0,0,0,,10,,,69,127
42965,note_on,0,0,0,,0,,,48,127
42977,note_off,12,0,0,,2,,,50,127
43148,note_off,171,0,0,,0,,,48,127
43149,note_on,1,0,0,,0,,,84,127
43332,note_off,183,0,0,,0,,,84,127
43333,note_on,1,0,0,,10,,,81,127
43516,note_off,183,0,0,,10,,,81,127
43516,note_off,0,0,0,,10,,,69,127
43516,note_off,0,0,0,,0,,,60,127
43516,note_off,0,0,0,,4,,,64,127
43517,note_on,1,0,0,,2,,,62,127
43517,note_on,0,0,0,,8,,,68,127
43517,note_on,0,0,0,,4,,,64,127
43517,note_on,0,0,0,,12,,,71,127
43517,note_on,0,0,0,,4,,,40,127
43563,note_on,46,0,0,,2,,,38,127
43575,note_off,12,0,0,,4,,,40,127
43609,note_on,34,0,0,,4,,,40,127
43621,note_off,12,0,0,,2,,,38,127
43655,note_on,34,0,0,,2,,,38,127
43667,note_off,12,0,0,,4,,,40,127
43701,note_on,34,0,0,,4,,,40,127
43713,note_off,12,0,0,,2,,,38,127
43747,note_on,34,0,0,,2,,,38,127
43759,note_off,12,0,0,,4,,,40,127
43793,note_on,34,0,0,,4,,,40,127
43805,note_off,12,0,0,,2,,,38,127
43839,note_on,34,0,0,,2,,,38,127
43851,note_off,12,0,0,,4,,,40,127
43885,note_on,34,0,0,,4,,,40,127
43897,note_off,12,0,0,,2,,,38,127
43931,note_on,34,0,0,,2,,,38,127
43943,note_off,12,0,0,,4,,,40,127
43977,note_on,34,0,0,,4,,,40,127
43989,note_off,12,0,0,,2,,,38,127
44023,note_on,34,0,0,,2,,,38,127
44035,note_off,12,0,0,,4,,,40,127
44068,note_off,33,0,0,,12,,,71,127
44068,note_off,0,0,0,,4,,,64,127
44068,note_off,0,0,0,,8,,,68,127
44068,note_off,0,0,0,,2,,,62,127
44069,note_on,1,0,0,,4,,,64,127
44069,note_on,0,0,0,,0,,,60,127
44069,note_on,0,0,0,,10,,,69,127
44069,note_on,0,0,0,,0,,,36,127
44081,note_off,12,0,0,,2,,,38,127
44252,note_off,171,0,0,,0,,,36,127
44253,note_on,1,0,0,,10,,,81,127
44436,note_off,183,0,0,,10,,,81,127
44437,note_on,1,0,0,,4,,,76,127
44620,note_off,183,0,0,,4,,,76,127
44620,note_off,0,0,0,,10,,,69,127
44620,note_off,0,0,0,,0,,,60,127
44620,note_off,0,0,0,,4,,,64,127
44621,note_on,1,0,0,,12,,,59,127
44621,note_on,0,0,0,,4,,,64,127
44621,note_on,0,0,0,,2,,,62,127
44621,note_on,0,0,0,,8,,,68,127
44621,note_on,0,0,0,,0,,,48,127
44667,note_on,46,0,0,,12,,,47,127
44679,note_off,12,0,0,,0,,,48,127
44713,note_on,34,0,0,,0,,,48,127
44725,note_off,12,0,0,,12,,,47,127
44759,note_on,34,0,0,,12,,,47,127
44771,note_off,12,0,0,,0,,,48,127
44805,note_on,34,0,0,,0,,,48,127
44817,note_off,12,0,0,,12,,,47,127
44851,note_on,34,0,0,,12,,,47,127
44863,note_off,12,0,0,,0,,,48,127
44897,note_on,34,0,0,,0,,,48,127
44909,note_off,12,0,0,,12,,,47,127
44943,note_on,34,0,0,,12,,,47,127
44955,note_off,12,0,0,,0,,,48,127
44989,note_on,34,0,0,,0,,,48,127
45001,note_off,12,0,0,,12,,,47,127
45035,note_on,34,0,0,,12,,,47,127
45047,note_off,12,0,0,,0,,,48,127
45081,note_on,34,0,0,,0,,,48,127
45093,note_off,12,0,0,,12,,,47,127
45127,note_on,34,0,0,,12,,,47,127
45139,note_off,12,0,0,,0,,,48,127
45172,note_off,33,0,0,,8,,,68,127
45172,note_off,0,0,0,,2,,,62,127
45172,note_off,0,0,0,,4,,,64,127
45172,note_off,0,0,0,,12,,,59,127
45173,note_on,1,0,0,,10,,,57,127
45173,note_on,0,0,0,,10,,,69,127
45173,note_on,0,0,0,,4,,,64,127
45173,note_on,0,0,0,,0,,,60,127
45173,note_on,0,0,0,,10,,,45,127
45185,note_off,12,0,0,,12,,,47,127
45356,note_off,171,0,0,,10,,,45,127
45357,note_on,1,0,0,,10,,,81,127
45540,note_off,183,0,0,,10,,,81,127
45541,note_on,1,0,0,,4,,,76,127
45724,note_off,183,0,0,,4,,,76,127
45724,note_off,0,0,0,,0,,,60,127
45724,note_off,0,0,0,,4,,,64,127
45724,note_off,0,0,0,,10,,,69,127
45724,note_off,0,0,0,,10,,,57,127
45725,note_on,1,0,0,,8,,,68,127
45725,note_on,0,0,0,,4,,,64,127
45725,note_on,0,0,0,,2,,,62,127
45725,note_on,0,0,0,,12,,,59,127
45725,note_on,0,0,0,,0,,,48,127
45771,note_on,46,0,0,,12,,,47,127
45783,note_off,12,0,0,,0,,,48,127
45817,note_on,34,0,0,,0,,,48,127
45829,note_off,12,0,0,,12,,,47,127
45863,note_on,34,0,0,,12,,,47,127
45875,note_off,12,0,0,,0,,,48,127
45909,note_on,34,0,0,,0,,,48,127
45921,note_off,12,0,0,,12,,,47,127
45955,note_on,34,0,0,,12,,,47,127
45967,note_off,12,0,0,,0,,,48,127
46001,note_on,34,0,0,,0,,,48,127
46013,note_off,12,0,0,,12,,,47,127
46047,note_on,34,0,0,,12,,,47,127
46059,note_off,12,0,0,,0,,,48,127
46092,note_off,33,0,0,,12,,,59,127
46092,note_off,0,0,0,,2,,,62,127
46092,note_off,0,0,0,,4,,,64,127
46092,note_off,0,0,0,,8,,,68,127
46093,note_on,1,0,0,,0,,,48,127
46105,note_off,12,0,0,,12,,,47,127
46139,note_on,34,0,0,,12,,,47,127
46151,note_off,12,0,0,,0,,,48,127
46185,note_on,34,0,0,,0,,,48,127
46197,note_off,12,0,0,,12,,,47,127
46231,note_on,34,0,0,,12,,,47,127
46243,note_off,12,0,0,,0,,,48,127
46277,note_on,34,0,0,,10,,,45,127
46289,note_off,12,0,0,,12,,,47,127
46460,note_off,171,0,0,,10,,,45,127
46461,note_on,1,0,0,,0,,,48,127
46644,note_off,183,0,0,,0,,,48,127
46645,note_on,1,0,0,,4,,,52,127
46828,note_off,183,0,0,,4,,,52,127
46829,note_on,1,0,0,,2,,,50,127
46829,note_on,0,0,0,,5,,,53,127
47012,note_off,183,0,0,,5,,,53,127
47013,note_on,1,0,0,,8,,,56,127
47196,note_off,183,0,0,,8,,,56,127
47197,note_on,1,0,0,,12,,,59,127
47380,note_off,183,0,0,,12,,,59,127
47380,note_off,0,0,0,,2,,,50,127
47381,note_on,1,0,0,,0,,,48,127
47381,note_on,0,0,0,,4,,,64,127
47565,note_on,184,0,0,,10,,,57,127
47748,note_off,183,0,0,,10,,,57,127
47748,note_off,0,0,0,,4,,,64,127
47748,note_off,0,0,0,,0,,,48,127
47749,note_on,1,0,0,,2,,,50,127
47749,note_on,0,0,0,,2,,,62,127
47749,note_on,0,0,0,,12,,,59,127
47932,note_off,183,0,0,,2,,,50,127
47933,note_on,1,0,0,,4,,,52,127
48116,note_off,183,0,0,,12,,,59,127
48116,note_off,0,0,0,,2,,,62,127
48117,note_on,1,0,0,,10,,,57,127
48117,note_on,0,0,0,,0,,,60,127
48300,note_off,183,0,0,,0,,,60,127
48300,note_off,0,0,0,,10,,,57,127
48300,note_off,0,0,0,,4,,,52,127
48301,note_on,1,0,0,,4,,,40,127
48301,note_on,0,0,0,,8,,,56,127
48301,note_on,0,0,0,,12,,,59,127
48484,note_off,183,0,0,,12,,,59,127
48484,note_off,0,0,0,,8,,,56,127
48484,note_off,0,0,0,,4,,,40,127
48484,note_on,0,0,0,,10,,,57,127
48485,note_on,1,0,0,,10,,,45,127
48485,note_on,0,0,0,,0,,,60,127
48485,note_on,0,0,0,,10,,,69,127
48668,note_off,183,0,0,,10,,,69,127
48668,note_off,0,0,0,,0,,,60,127
48669,note_on,1,0,0,,12,,,71,127
48669,note_on,0,0,0,,2,,,62,127
48851,note_off,182,0,0,,10,,,57,127
48852,note_off,1,0,0,,2,,,62,127
48852,note_off,0,0,0,,12,,,71,127
48852,note_off,0,0,0,,10,,,45,127
48853,note_on,1,0,0,,10,,,57,127
48853,note_on,0,0,0,,0,,,72,127
48853,note_on,0,0,0,,4,,,64,127
49036,note_off,183,0,0,,4,,,64,127
49036,note_off,0,0,0,,0,,,72,127
49036,note_off,0,0,0,,10,,,57,127
49037,note_on,1,0,0,,5,,,53,127
49037,note_on,0,0,0,,2,,,74,127
49037,note_on,0,0,0,,5,,,65,127
49220,note_off,183,0,0,,2,,,74,127
49220,note_off,0,0,0,,5,,,53,127
49221,note_on,1,0,0,,4,,,52,127
49221,note_on,0,0,0,,4,,,76,127
49404,note_off,183,0,0,,4,,,76,127
49404,note_off,0,0,0,,4,,,52,127
49404,note_off,0,0,0,,5,,,65,127
49405,note_on,1,0,0,,2,,,50,127
49405,note_on,0,0,0,,5,,,77,127
49405,note_on,0,0,0,,8,,,68,127
49588,note_off,183,0,0,,8,,,68,127
49588,note_off,0,0,0,,2,,,50,127
49589,note_on,1,0,0,,0,,,48,127
49589,note_on,0,0,0,,10,,,69,127
49772,note_off,183,0,0,,5,,,77,127
49773,note_on,1,0,0,,4,,,76,127
49956,note_off,183,0,0,,4,,,76,127
49956,note_off,0,0,0,,10,,,69,127
49956,note_off,0,0,0,,0,,,48,127
49957,note_on,1,0,0,,2,,,50,127
49957,note_on,0,0,0,,12,,,71,127
49957,note_on,0,0,0,,2,,,74,127
50140,note_off,183,0,0,,2,,,50,127
50141,note_on,1,0,0,,4,,,52,127
50324,note_off,183,0,0,,2,,,74,127
50324,note_off,0,0,0,,12,,,71,127
50325,note_on,1,0,0,,10,,,69,127
50325,note_on,0,0,0,,0,,,72,127
50508,note_off,183,0,0,,0,,,72,127
50508,note_off,0,0,0,,10,,,69,127
50509,note_on,1,0,0,,4,,,40,127
50509,note_on,0,0,0,,8,,,68,127
50509,note_on,0,0,0,,12,,,71,127
50692,note_off,183,0,0,,12,,,71,127
50692,note_off,0,0,0,,8,,,68,127
50692,note_off,0,0,0,,4,,,40,127
50692,note_off,0,0,0,,4,,,52,127
50693,note_on,1,0,0,,10,,,45,127
50693,note_on,0,0,0,,10,,,69,127
50693,note_on,0,0,0,,0,,,60,127
50876,note_off,183,0,0,,0,,,60,127
50876,note_off,0,0,0,,10,,,69,127
50877,note_on,1,0,0,,2,,,62,127
50877,note_on,0,0,0,,12,,,71,127
51060,note_off,183,0,0,,12,,,71,127
51060,note_off,0,0,0,,2,,,62,127
51060,note_off,0,0,0,,10,,,45,127
51061,note_on,1,0,0,,10,,,57,127
51061,note_on,0,0,0,,0,,,72,127
51061,note_on,0,0,0,,4,,,64,127
51244,note_off,183,0,0,,4,,,64,127
51244,note_off,0,0,0,,0,,,72,127
51244,note_off,0,0,0,,10,,,57,127
51245,note_on,1,0,0,,5,,,53,127
51245,note_on,0,0,0,,2,,,74,127
51245,note_on,0,0,0,,5,,,65,127
51428,note_off,183,0,0,,2,,,74,127
51428,note_off,0,0,0,,5,,,53,127
51429,note_on,1,0,0,,4,,,52,127
51429,note_on,0,0,0,,4,,,76,127
51612,note_off,183,0,0,,4,,,76,127
51612,note_off,0,0,0,,4,,,52,127
51612,note_off,0,0,0,,5,,,65,127
51613,note_on,1,0,0,,2,,,50,127
51613,note_on,0,0,0,,5,,,77,127
51613,note_on,0,0,0,,8,,,68,127
51796,note_off,183,0,0,,8,,,68,127
51796,note_off,0,0,0,,2,,,50,127
51797,note_on,1,0,0,,0,,,48,127
51797,note_on,0,0,0,,10,,,69,127
51980,note_off,183,0,0,,5,,,77,127
51981,note_on,1,0,0,,4,,,76,127
52164,note_off,183,0,0,,4,,,76,127
52164,note_off,0,0,0,,10,,,69,127
52164,note_off,0,0,0,,0,,,48,127
52165,note_on,1,0,0,,2,,,50,127
52165,note_on,0,0,0,,12,,,71,127
52165,note_on,0,0,0,,2,,,74,127
52348,note_off,183,0,0,,2,,,50,127
52349,note_on,1,0,0,,4,,,52,127
52532,note_off,183,0,0,,2,,,74,127
52532,note_off,0,0,0,,12,,,71,127
52533,note_on,1,0,0,,10,,,69,127
52533,note_on,0,0,0,,0,,,72,127
52716,note_off,183,0,0,,0,,,72,127
52716,note_off,0,0,0,,10,,,69,127
52717,note_on,1,0,0,,4,,,40,127
52717,note_on,0,0,0,,12,,,71,127
52717,note_on,0,0,0,,8,,,68,127
52900,note_off,183,0,0,,8,,,68,127
52900,note_off,0,0,0,,12,,,71,127
52900,note_off,0,0,0,,4,,,40,127
52900,note_off,0,0,0,,4,,,52,127
52901,note_on,1,0,0,,10,,,45,127
52901,note_on,0,0,0,,0,,,72,127
52901,note_on,0,0,0,,10,,,69,127
53084,note_off,183,0,0,,10,,,69,127
53084,note_off,0,0,0,,0,,,72,127
53085,note_on,1,0,0,,2,,,74,127
53085,note_on,0,0,0,,12,,,71,127
53268,note_off,183,0,0,,12,,,71,127
53268,note_off,0,0,0,,2,,,74,127
53268,note_on,0,0,0,,10,,,57,127
53269,note_on,1,0,0,,4,,,76,127
53269,note_on,0,0,0,,0,,,72,127
53451,note_off,182,0,0,,10,,,57,127
53452,note_off,1,0,0,,0,,,72,127
53452,note_off,0,0,0,,4,,,76,127
53452,note_off,0,0,0,,10,,,45,127
53453,note_on,1,0,0,,5,,,53,127
53453,note_on,0,0,0,,2,,,74,127
53453,note_on,0,0,0,,5,,,77,127
53636,note_off,183,0,0,,5,,,77,127
53636,note_off,0,0,0,,2,,,74,127
53636,note_off,0,0,0,,5,,,53,127
53637,note_on,1,0,0,,4,,,52,127
53637,note_on,0,0,0,,8,,,80,127
53637,note_on,0,0,0,,5,,,77,127
53820,note_off,183,0,0,,4,,,52,127
53821,note_on,1,0,0,,2,,,50,127
54004,note_off,183,0,0,,2,,,50,127
54004,note_off,0,0,0,,5,,,77,127
54004,note_off,0,0,0,,8,,,80,127
54005,note_on,1,0,0,,0,,,48,127
54005,note_on,0,0,0,,10,,,81,127
54188,note_off,183,0,0,,10,,,81,127
54189,note_on,1,0,0,,4,,,76,127
54372,note_off,183,0,0,,4,,,76,127
54372,note_off,0,0,0,,0,,,48,127
54373,note_on,1,0,0,,2,,,50,127
54373,note_on,0,0,0,,2,,,74,127
54373,note_on,0,0,0,,12,,,71,127
54556,note_off,183,0,0,,2,,,50,127
54557,note_on,1,0,0,,4,,,52,127
54740,note_off,183,0,0,,12,,,71,127
54740,note_off,0,0,0,,2,,,74,127
54741,note_on,1,0,0,,10,,,69,127
54741,note_on,0,0,0,,0,,,72,127
54924,note_off,183,0,0,,0,,,72,127
54924,note_off,0,0,0,,10,,,69,127
54925,note_on,1,0,0,,4,,,40,127
54925,note_on,0,0,0,,12,,,71,127
54925,note_on,0,0,0,,8,,,68,127
55108,note_off,183,0,0,,8,,,68,127
55108,note_off,0,0,0,,12,,,71,127
55108,note_off,0,0,0,,4,,,40,127
55108,note_off,0,0,0,,4,,,52,127
55109,note_on,1,0,0,,10,,,45,127
55109,note_on,0,0,0,,0,,,72,127
55109,note_on,0,0,0,,10,,,69,127
55292,note_off,183,0,0,,0,,,72,127
55293,note_on,1,0,0,,2,,,74,127
55293,note_on,0,0,0,,12,,,71,127
55476,note_off,183,0,0,,12,,,71,127
55476,note_off,0,0,0,,2,,,74,127
55477,note_on,1,0,0,,10,,,57,127
55477,note_on,0,0,0,,4,,,76,127
55477,note_on,0,0,0,,0,,,72,127
55660,note_off,183,0,0,,0,,,72,127
55660,note_off,0,0,0,,4,,,76,127
55660,note_off,0,0,0,,10,,,57,127
55660,note_off,0,0,0,,10,,,45,127
55661,note_on,1,0,0,,5,,,53,127
55661,note_on,0,0,0,,2,,,74,127
55661,note_on,0,0,0,,5,,,77,127
55844,note_off,183,0,0,,5,,,77,127
55844,note_off,0,0,0,,2,,,74,127
55844,note_off,0,0,0,,5,,,53,127
55845,note_on,1,0,0,,4,,,52,127
55845,note_on,0,0,0,,8,,,80,127
55845,note_on,0,0,0,,5,,,77,127
56028,note_off,183,0,0,,4,,,52,127
56029,note_on,1,0,0,,2,,,50,127
56212,note_off,183,0,0,,2,,,50,127
56212,note_off,0,0,0,,5,,,77,127
56212,note_off,0,0,0,,8,,,80,127
56213,note_on,1,0,0,,0,,,48,127
56213,note_on,0,0,0,,10,,,81,127
56396,note_off,183,0,0,,10,,,81,127
56397,note_on,1,0,0,,4,,,76,127
56580,note_off,183,0,0,,4,,,76,127
56580,note_off,0,0,0,,0,,,48,127
56580,note_off,0,0,0,,10,,,69,127
56581,note_on,1,0,0,,2,,,50,127
56581,note_on,0,0,0,,2,,,74,127
56581,note_on,0,0,0,,12,,,71,127
56764,note_off,183,0,0,,2,,,50,127
56765,note_on,1,0,0,,4,,,52,127
56948,note_off,183,0,0,,12,,,71,127
56948,note_off,0,0,0,,2,,,74,127
56949,note_on,1,0,0,,0,,,72,127
56949,note_on,0,0,0,,10,,,69,127
57132,note_off,183,0,0,,10,,,69,127
57132,note_off,0,0,0,,0,,,72,127
57133,note_on,1,0,0,,4,,,40,127
57133,note_on,0,0,0,,8,,,68,127
57133,note_on,0,0,0,,12,,,71,127
57316,note_off,183,0,0,,12,,,71,127
57316,note_off,0,0,0,,8,,,68,127
57316,note_off,0,0,0,,4,,,40,127
57316,note_off,0,0,0,,4,,,52,127
57317,note_on,1,0,0,,10,,,45,127
57317,note_on,0,0,0,,10,,,69,127
57454,note_off,137,0,0,,10,,,69,127
57501,note_on,47,0,0,,1,,,73,127
57501,note_on,0,0,0,,10,,,69,127
57673,note_off,172,0,0,,10,,,69,127
57673,note_off,0,0,0,,1,,,73,127
57685,note_on,12,0,0,,12,,,71,127
57685,note_on,0,0,0,,2,,,74,127
57857,note_off,172,0,0,,2,,,74,127
57857,note_off,0,0,0,,12,,,71,127
57869,note_on,12,0,0,,1,,,73,127
57869,note_on,0,0,0,,4,,,76,127
58052,note_off,183,0,0,,4,,,76,127
58052,note_off,0,0,0,,1,,,73,127
58053,note_on,1,0,0,,4,,,76,127
58053,note_on,0,0,0,,1,,,73,127
58236,note_off,183,0,0,,1,,,73,127
58236,note_off,0,0,0,,4,,,76,127
58237,note_on,1,0,0,,2,,,74,127
58237,note_on,0,0,0,,6,,,78,127
58420,note_off,183,0,0,,6,,,78,127
58420,note_off,0,0,0,,2,,,74,127
58421,note_on,1,0,0,,1,,,73,127
58421,note_on,0,0,0,,4,,,76,127
58424,note_off,3,0,0,,10,,,45,127
58605,note_on,181,0,0,,1,,,61,127
58605,note_on,0,0,0,,10,,,57,127
58788,note_off,183,0,0,,10,,,57,127
58788,note_off,0,0,0,,1,,,61,127
58789,note_on,1,0,0,,2,,,62,127
58789,note_on,0,0,0,,12,,,59,127
58972,note_off,183,0,0,,12,,,59,127
58972,note_off,0,0,0,,2,,,62,127
58973,note_on,1,0,0,,4,,,64,127
58973,note_on,0,0,0,,1,,,61,127
59156,note_off,183,0,0,,1,,,61,127
59156,note_off,0,0,0,,4,,,64,127
59157,note_on,1,0,0,,4,,,64,127
59157,note_on,0,0,0,,1,,,61,127
59340,note_off,183,0,0,,1,,,61,127
59340,note_off,0,0,0,,4,,,64,127
59340,note_off,0,0,0,,4,,,76,127
59340,note_off,0,0,0,,1,,,73,127
59341,note_on,1,0,0,,6,,,66,127
59341,note_on,0,0,0,,2,,,62,127
59341,note_on,0,0,0,,10,,,81,127
59524,note_off,183,0,0,,2,,,62,127
59524,note_off,0,0,0,,6,,,66,127
59525,note_on,1,0,0,,4,,,64,127
59525,note_on,0,0,0,,12,,,71,127
59708,note_off,183,0,0,,10,,,81,127
59709,note_on,1,0,0,,8,,,80,127
59892,note_off,183,0,0,,8,,,80,127
59892,note_off,0,0,0,,12,,,71,127
59892,note_off,0,0,0,,4,,,64,127
59893,note_on,1,0,0,,6,,,66,127
59893,note_on,0,0,0,,10,,,69,127
59893,note_on,0,0,0,,6,,,78,127
60076,note_off,183,0,0,,6,,,78,127
60076,note_off,0,0,0,,10,,,69,127
60076,note_off,0,0,0,,6,,,66,127
60077,note_on,1,0,0,,8,,,68,127
60077,note_on,0,0,0,,12,,,71,127
60077,note_on,0,0,0,,8,,,80,127
60123,note_on,46,0,0,,6,,,78,127
60135,note_off,12,0,0,,8,,,80,127
60169,note_on,34,0,0,,8,,,80,127
60181,note_off,12,0,0,,6,,,78,127
60215,note_on,34,0,0,,6,,,78,127
60227,note_off,12,0,0,,8,,,80,127
60261,note_on,34,0,0,,4,,,76,127
60273,note_off,12,0,0,,6,,,78,127
60444,note_off,171,0,0,,4,,,76,127
60444,note_off,0,0,0,,8,,,68,127
60445,note_on,1,0,0,,4,,,64,127
60445,note_on,0,0,0,,2,,,74,127
60628,note_off,183,0,0,,2,,,74,127
60628,note_off,0,0,0,,4,,,64,127
60628,note_off,0,0,0,,12,,,71,127
60629,note_on,1,0,0,,10,,,69,127
60629,note_on,0,0,0,,1,,,73,127
60767,note_off,138,0,0,,1,,,73,127
60813,note_on,46,0,0,,2,,,74,127
60813,note_on,0,0,0,,6,,,78,127
60996,note_off,183,0,0,,6,,,78,127
60996,note_off,0,0,0,,2,,,74,127
60997,note_on,1,0,0,,8,,,80,127
60997,note_on,0,0,0,,4,,,76,127
61180,note_off,183,0,0,,4,,,76,127
61180,note_off,0,0,0,,8,,,80,127
61181,note_on,1,0,0,,10,,,81,127
61181,note_on,0,0,0,,6,,,78,127
61364,note_off,183,0,0,,6,,,78,127
61364,note_off,0,0,0,,10,,,81,127
61365,note_on,1,0,0,,6,,,78,127
61365,note_on,0,0,0,,10,,,81,127
61548,note_off,183,0,0,,10,,,81,127
61549,note_on,1,0,0,,2,,,86,127
61732,note_off,183,0,0,,2,,,86,127
61732,note_off,0,0,0,,6,,,78,127
61733,note_on,1,0,0,,10,,,81,127
61916,note_off,183,0,0,,10,,,69,127
61917,note_on,1,0,0,,2,,,62,127
61917,note_on,0,0,0,,6,,,66,127
62100,note_off,183,0,0,,6,,,66,127
62100,note_off,0,0,0,,2,,,62,127
62101,note_on,1,0,0,,7,,,67,127
62101,note_on,0,0,0,,4,,,64,127
62284,note_off,183,0,0,,4,,,64,127
62284,note_off,0,0,0,,7,,,67,127
62285,note_on,1,0,0,,6,,,66,127
62285,note_on,0,0,0,,10,,,69,127
62468,note_off,183,0,0,,10,,,69,127
62468,note_off,0,0,0,,6,,,66,127
62469,note_on,1,0,0,,6,,,66,127
62469,note_on,0,0,0,,10,,,69,127
62652,note_off,183,0,0,,10,,,69,127
62652,note_off,0,0,0,,6,,,66,127
62652,note_off,0,0,0,,10,,,81,127
62653,note_on,1,0,0,,7,,,67,127
62653,note_on,0,0,0,,12,,,71,127
62653,note_on,0,0,0,,2,,,86,127
62836,note_off,183,0,0,,12,,,71,127
62836,note_off,0,0,0,,7,,,67,127
62837,note_on,1,0,0,,10,,,69,127
62837,note_on,0,0,0,,4,,,76,127
63020,note_off,183,0,0,,2,,,86,127
63021,note_on,1,0,0,,1,,,85,127
63204,note_off,183,0,0,,1,,,85,127
63204,note_off,0,0,0,,4,,,76,127
63204,note_off,0,0,0,,10,,,69,127
63205,note_on,1,0,0,,12,,,71,127
63205,note_on,0,0,0,,2,,,74,127
63205,note_on,0,0,0,,12,,,83,127
63388,note_off,183,0,0,,2,,,74,127
63388,note_off,0,0,0,,12,,,71,127
63389,note_on,1,0,0,,1,,,73,127
63389,note_on,0,0,0,,4,,,76,127
63572,note_off,183,0,0,,12,,,83,127
63573,note_on,1,0,0,,10,,,81,127
63756,note_off,183,0,0,,10,,,81,127
63756,note_off,0,0,0,,1,,,73,127
63757,note_on,1,0,0,,10,,,69,127
63757,note_on,0,0,0,,7,,,79,127
63940,note_off,183,0,0,,10,,,69,127
63940,note_off,0,0,0,,4,,,76,127
63941,note_on,1,0,0,,2,,,74,127
64124,note_off,183,0,0,,7,,,79,127
64125,note_on,1,0,0,,6,,,78,127
64308,note_off,183,0,0,,6,,,78,127
64308,note_off,0,0,0,,2,,,74,127
64309,note_on,1,0,0,,1,,,73,127
64309,note_on,0,0,0,,4,,,76,127
64492,note_off,183,0,0,,4,,,76,127
64492,note_off,0,0,0,,1,,,73,127
64493,note_on,1,0,0,,12,,,71,127
64493,note_on,0,0,0,,2,,,74,127
64676,note_off,183,0,0,,2,,,74,127
64676,note_off,0,0,0,,12,,,71,127
64677,note_on,1,0,0,,10,,,69,127
64677,note_on,0,0,0,,1,,,73,127
64860,note_off,183,0,0,,1,,,73,127
64860,note_off,0,0,0,,10,,,69,127
64861,note_on,1,0,0,,7,,,67,127
64861,note_on,0,0,0,,12,,,71,127
65044,note_off,183,0,0,,12,,,71,127
65044,note_off,0,0,0,,7,,,67,127
65045,note_on,1,0,0,,6,,,66,127
65045,note_on,0,0,0,,10,,,69,127
65228,note_off,183,0,0,,10,,,69,127
65228,note_off,0,0,0,,6,,,66,127
65229,note_on,1,0,0,,4,,,64,127
65229,note_on,0,0,0,,7,,,67,127
65412,note_off,183,0,0,,7,,,67,127
65412,note_off,0,0,0,,4,,,64,127
65413,note_on,1,0,0,,2,,,62,127
65413,note_on,0,0,0,,6,,,66,127
65596,note_off,183,0,0,,6,,,66,127
65596,note_off,0,0,0,,2,,,62,127
65597,note_on,1,0,0,,4,,,64,127
65597,note_on,0,0,0,,10,,,69,127
65643,note_on,46,0,0,,7,,,67,127
65655,note_off,12,0,0,,10,,,69,127
65689,note_on,34,0,0,,10,,,69,127
65701,note_off,12,0,0,,7,,,67,127
65735,note_on,34,0,0,,7,,,67,127
65747,note_off,12,0,0,,10,,,69,127
65780,note_off,33,0,0,,4,,,64,127
65781,note_on,1,0,0,,1,,,61,127
65781,note_on,0,0,0,,10,,,69,127
65793,note_off,12,0,0,,7,,,67,127
65827,note_on,34,0,0,,7,,,67,127
65839,note_off,12,0,0,,10,,,69,127
65873,note_on,34,0,0,,10,,,69,127
65885,note_off,12,0,0,,7,,,67,127
65919,note_on,34,0,0,,7,,,67,127
65931,note_off,12,0,0,,10,,,69,127
65964,note_off,33,0,0,,1,,,61,127
65965,note_on,1,0,0,,10,,,57,127
65965,note_on,0,0,0,,10,,,69,127
65977,note_off,12,0,0,,7,,,67,127
66011,note_on,34,0,0,,7,,,67,127
66023,note_off,12,0,0,,10,,,69,127
66057,note_on,34,0,0,,10,,,69,127
66069,note_off,12,0,0,,7,,,67,127
66103,note_on,34,0,0,,7,,,67,127
66115,note_off,12,0,0,,10,,,69,127
66148,note_off,33,0,0,,10,,,57,127
66149,note_on,1,0,0,,2,,,50,127
66241,note_off,92,0,0,,7,,,67,127
66333,note_on,92,0,0,,10,,,69,127
66333,note_on,0,0,0,,6,,,66,127
66333,note_on,0,0,0,,2,,,62,127
66333,note_on,0,0,0,,0,,,72,127
66516,note_off,183,0,0,,0,,,72,127
66517,note_on,1,0,0,,11,,,70,127
66700,note_off,183,0,0,,11,,,70,127
66700,note_off,0,0,0,,2,,,62,127
66700,note_off,0,0,0,,6,,,66,127
66700,note_off,0,0,0,,10,,,69,127
66701,note_on,1,0,0,,10,,,69,127
66884,note_off,183,0,0,,10,,,69,127
66884,note_off,0,0,0,,2,,,50,127
66885,note_on,1,0,0,,0,,,84,127
66885,note_on,0,0,0,,10,,,69,127
67068,note_off,183,0,0,,10,,,69,127
67068,note_off,0,0,0,,0,,,84,127
67069,note_on,1,0,0,,11,,,82,127
67069,note_on,0,0,0,,7,,,67,127
67252,note_off,183,0,0,,7,,,67,127
67252,note_off,0,0,0,,11,,,82,127
67253,note_on,1,0,0,,10,,,81,127
67253,note_on,0,0,0,,6,,,66,127
67436,note_off,183,0,0,,6,,,66,127
67436,note_off,0,0,0,,10,,,81,127
67437,note_on,1,0,0,,10,,,81,127
67437,note_on,0,0,0,,6,,,66,127
67620,note_off,183,0,0,,6,,,66,127
67620,note_off,0,0,0,,10,,,81,127
67621,note_on,1,0,0,,7,,,79,127
67621,note_on,0,0,0,,7,,,67,127
67804,note_off,183,0,0,,7,,,67,127
67804,note_off,0,0,0,,7,,,79,127
67805,note_on,1,0,0,,6,,,78,127
67805,note_on,0,0,0,,10,,,69,127
67988,note_off,183,0,0,,10,,,69,127
67988,note_off,0,0,0,,6,,,78,127
67989,note_on,1,0,0,,6,,,78,127
67989,note_on,0,0,0,,10,,,69,127
68172,note_off,183,0,0,,10,,,69,127
68172,note_off,0,0,0,,6,,,78,127
68173,note_on,1,0,0,,7,,,79,127
68173,note_on,0,0,0,,11,,,70,127
68356,note_off,183,0,0,,11,,,70,127
68356,note_off,0,0,0,,7,,,79,127
68357,note_on,1,0,0,,10,,,81,127
68357,note_on,0,0,0,,0,,,72,127
68357,note_on,0,0,0,,10,,,69,127
68357,note_on,0,0,0,,6,,,66,127
68357,note_on,0,0,0,,2,,,62,127
68540,note_off,183,0,0,,0,,,72,127
68540,note_off,0,0,0,,10,,,81,127
68541,note_on,1,0,0,,10,,,81,127
68541,note_on,0,0,0,,0,,,72,127
68724,note_off,183,0,0,,0,,,72,127
68724,note_off,0,0,0,,10,,,81,127
68724,note_off,0,0,0,,2,,,62,127
68724,note_off,0,0,0,,6,,,66,127
68724,note_off,0,0,0,,10,,,69,127
68725,note_on,1,0,0,,11,,,82,127
68725,note_on,0,0,0,,11,,,70,127
68908,note_off,183,0,0,,11,,,70,127
68908,note_off,0,0,0,,11,,,82,127
68909,note_on,1,0,0,,0,,,84,127
68909,note_on,0,0,0,,10,,,69,127
69092,note_off,183,0,0,,10,,,69,127
69092,note_off,0,0,0,,0,,,84,127
69093,note_on,1,0,0,,0,,,84,127
69093,note_on,0,0,0,,10,,,69,127
69276,note_off,183,0,0,,10,,,69,127
69276,note_off,0,0,0,,0,,,84,127
69277,note_on,1,0,0,,11,,,82,127
69277,note_on,0,0,0,,7,,,67,127
69460,note_off,183,0,0,,7,,,67,127
69460,note_off,0,0,0,,11,,,82,127
69461,note_on,1,0,0,,10,,,81,127
69461,note_on,0,0,0,,6,,,66,127
69644,note_off,183,0,0,,6,,,66,127
69644,note_off,0,0,0,,10,,,81,127
69645,note_on,1,0,0,,10,,,81,127
69645,note_on,0,0,0,,6,,,66,127
69828,note_off,183,0,0,,6,,,66,127
69828,note_off,0,0,0,,10,,,81,127
69829,note_on,1,0,0,,7,,,79,127
69829,note_on,0,0,0,,7,,,67,127
70012,note_off,183,0,0,,7,,,67,127
70012,note_off,0,0,0,,7,,,79,127
70013,note_on,1,0,0,,6,,,78,127
70013,note_on,0,0,0,,10,,,69,127
70196,note_off,183,0,0,,10,,,69,127
70196,note_off,0,0,0,,6,,,78,127
70197,note_on,1,0,0,,6,,,78,127
70197,note_on,0,0,0,,10,,,69,127
70380,note_off,183,0,0,,10,,,69,127
70380,note_off,0,0,0,,6,,,78,127
70381,note_on,1,0,0,,7,,,79,127
70381,note_on,0,0,0,,11,,,70,127
70564,note_off,183,0,0,,11,,,70,127
70564,note_off,0,0,0,,7,,,79,127
70565,note_on,1,0,0,,6,,,78,127
70565,note_on,0,0,0,,0,,,72,127
70748,note_off,183,0,0,,0,,,72,127
70748,note_off,0,0,0,,6,,,78,127
70749,note_on,1,0,0,,6,,,78,127
70749,note_on,0,0,0,,2,,,74,127
70932,note_off,183,0,0,,2,,,74,127
70932,note_off,0,0,0,,6,,,78,127
70933,note_on,1,0,0,,6,,,78,127
70933,note_on,0,0,0,,3,,,75,127
70933,note_on,0,0,0,,0,,,72,127
71116,note_off,183,0,0,,0,,,72,127
71116,note_off,0,0,0,,3,,,75,127
71116,note_off,0,0,0,,6,,,78,127
71117,note_on,1,0,0,,6,,,78,127
71117,note_on,0,0,0,,3,,,75,127
71117,note_on,0,0,0,,0,,,72,127
71300,note_off,183,0,0,,0,,,72,127
71300,note_off,0,0,0,,3,,,75,127
71300,note_off,0,0,0,,6,,,78,127
71301,note_on,1,0,0,,6,,,78,127
71301,note_on,0,0,0,,2,,,74,127
71301,note_on,0,0,0,,12,,,71,127
71484,note_off,183,0,0,,12,,,71,127
71484,note_off,0,0,0,,2,,,74,127
71484,note_off,0,0,0,,6,,,78,127
71485,note_on,1,0,0,,6,,,78,127
71485,note_on,0,0,0,,3,,,75,127
71485,note_on,0,0,0,,0,,,72,127
71668,note_off,183,0,0,,0,,,72,127
71668,note_off,0,0,0,,3,,,75,127
71668,note_off,0,0,0,,6,,,78,127
71669,note_on,1,0,0,,6,,,78,127
71669,note_on,0,0,0,,0,,,72,127
71669,note_on,0,0,0,,3,,,75,127
71852,note_off,183,0,0,,3,,,75,127
71852,note_off,0,0,0,,0,,,72,127
71852,note_off,0,0,0,,6,,,78,127
71853,note_on,1,0,0,,6,,,78,127
71853,note_on,0,0,0,,12,,,71,127
71853,note_on,0,0,0,,2,,,74,127
72036,note_off,183,0,0,,2,,,74,127
72036,note_off,0,0,0,,12,,,71,127
72036,note_off,0,0,0,,6,,,78,127
72037,note_on,1,0,0,,6,,,78,127
72037,note_on,0,0,0,,0,,,72,127
72037,note_on,0,0,0,,3,,,75,127
72220,note_off,183,0,0,,3,,,75,127
72220,note_off,0,0,0,,0,,,72,127
72220,note_off,0,0,0,,6,,,78,127
72221,note_on,1,0,0,,6,,,78,127
72221,note_on,0,0,0,,3,,,75,127
72221,note_on,0,0,0,,0,,,72,127
72404,note_off,183,0,0,,0,,,72,127
72404,note_off,0,0,0,,3,,,75,127
72404,note_off,0,0,0,,6,,,78,127
72405,note_on,1,0,0,,6,,,78,127
72405,note_on,0,0,0,,2,,,74,127
72405,note_on,0,0,0,,12,,,71,127
72588,note_off,183,0,0,,12,,,71,127
72588,note_off,0,0,0,,2,,,74,127
72588,note_off,0,0,0,,6,,,78,127
72589,note_on,1,0,0,,6,,,78,127
72589,note_on,0,0,0,,0,,,72,127
72589,note_on,0,0,0,,3,,,75,127
72772,note_off,183,0,0,,3,,,75,127
72772,note_off,0,0,0,,0,,,72,127
72772,note_off,0,0,0,,6,,,78,127
72773,note_on,1,0,0,,5,,,77,127
72773,note_on,0,0,0,,2,,,74,127
72773,note_on,0,0,0,,12,,,71,127
72956,note_off,183,0,0,,12,,,71,127
72956,note_off,0,0,0,,2,,,74,127
72956,note_off,0,0,0,,5,,,77,127
72957,note_on,1,0,0,,5,,,77,127
72957,note_on,0,0,0,,10,,,69,127
72957,note_on,0,0,0,,0,,,72,127
73140,note_off,183,0,0,,0,,,72,127
73140,note_off,0,0,0,,10,,,69,127
73140,note_off,0,0,0,,5,,,77,127
73141,note_on,1,0,0,,5,,,77,127
73141,note_on,0,0,0,,2,,,74,127
73141,note_on,0,0,0,,12,,,71,127
73324,note_off,183,0,0,,12,,,71,127
73324,note_off,0,0,0,,2,,,74,127
73324,note_off,0,0,0,,5,,,77,127
73325,note_on,1,0,0,,5,,,77,127
73325,note_on,0,0,0,,12,,,71,127
73325,note_on,0,0,0,,2,,,74,127
73508,note_off,183,0,0,,2,,,74,127
73508,note_off,0,0,0,,12,,,71,127
73508,note_off,0,0,0,,5,,,77,127
73509,note_on,1,0,0,,5,,,77,127
73509,note_on,0,0,0,,0,,,72,127
73509,note_on,0,0,0,,10,,,69,127
73692,note_off,183,0,0,,10,,,69,127
73692,note_off,0,0,0,,0,,,72,127
73692,note_off,0,0,0,,5,,,77,127
73693,note_on,1,0,0,,5,,,77,127
73693,note_on,0,0,0,,12,,,71,127
73693,note_on,0,0,0,,2,,,74,127
73876,note_off,183,0,0,,2,,,74,127
73876,note_off,0,0,0,,12,,,71,127
73876,note_off,0,0,0,,5,,,77,127
73877,note_on,1,0,0,,5,,,77,127
73877,note_on,0,0,0,,2,,,74,127
73877,note_on,0,0,0,,12,,,71,127
73877,note_on,0,0,0,,5,,,65,127
74060,note_off,183,0,0,,12,,,71,127
74060,note_off,0,0,0,,2,,,74,127
74060,note_off,0,0,0,,5,,,77,127
74061,note_on,1,0,0,,5,,,77,127
74061,note_on,0,0,0,,0,,,72,127
74061,note_on,0,0,0,,10,,,69,127
74244,note_off,183,0,0,,10,,,69,127
74244,note_off,0,0,0,,0,,,72,127
74244,note_off,0,0,0,,5,,,77,127
74245,note_on,1,0,0,,5,,,77,127
74245,note_on,0,0,0,,2,,,74,127
74245,note_on,0,0,0,,12,,,71,127
74428,note_off,183,0,0,,12,,,71,127
74428,note_off,0,0,0,,2,,,74,127
74428,note_off,0,0,0,,5,,,77,127
74428,note_off,0,0,0,,5,,,65,127
74429,note_on,1,0,0,,5,,,77,127
74429,note_on,0,0,0,,2,,,74,127
74429,note_on,0,0,0,,10,,,69,127
74429,note_on,0,0,0,,5,,,65,127
74612,note_off,183,0,0,,10,,,69,127
74612,note_off,0,0,0,,2,,,74,127
74612,note_off,0,0,0,,5,,,77,127
74613,note_on,1,0,0,,5,,,77,127
74613,note_on,0,0,0,,8,,,68,127
74796,note_off,183,0,0,,8,,,68,127
74796,note_off,0,0,0,,5,,,77,127
74797,note_on,1,0,0,,5,,,77,127
74797,note_on,0,0,0,,10,,,69,127
74980,note_off,183,0,0,,10,,,69,127
74980,note_off,0,0,0,,5,,,77,127
74980,note_off,0,0,0,,5,,,65,127
74981,note_on,1,0,0,,4,,,76,127
74981,note_on,0,0,0,,4,,,64,127
74981,note_on,0,0,0,,2,,,74,127
74981,note_on,0,0,0,,8,,,68,127
75164,note_off,183,0,0,,8,,,68,127
75164,note_off,0,0,0,,4,,,76,127
75165,note_on,1,0,0,,4,,,76,127
75165,note_on,0,0,0,,6,,,66,127
75348,note_off,183,0,0,,6,,,66,127
75348,note_off,0,0,0,,4,,,76,127
75349,note_on,1,0,0,,4,,,76,127
75349,note_on,0,0,0,,8,,,68,127
75532,note_off,183,0,0,,8,,,68,127
75532,note_off,0,0,0,,4,,,76,127
75532,note_off,0,0,0,,2,,,74,127
75532,note_off,0,0,0,,4,,,64,127
75533,note_on,1,0,0,,5,,,77,127
75533,note_on,0,0,0,,2,,,74,127
75533,note_on,0,0,0,,5,,,65,127
75533,note_on,0,0,0,,10,,,69,127
75716,note_off,183,0,0,,10,,,69,127
75716,note_off,0,0,0,,5,,,77,127
75717,note_on,1,0,0,,5,,,77,127
75717,note_on,0,0,0,,8,,,68,127
75900,note_off,183,0,0,,8,,,68,127
75900,note_off,0,0,0,,5,,,77,127
75901,note_on,1,0,0,,5,,,77,127
75901,note_on,0,0,0,,10,,,69,127
76084,note_off,183,0,0,,10,,,69,127
76084,note_off,0,0,0,,5,,,77,127
76084,note_off,0,0,0,,5,,,65,127
76084,note_off,0,0,0,,2,,,74,127
76085,note_on,1,0,0,,4,,,76,127
76085,note_on,0,0,0,,8,,,68,127
76085,note_on,0,0,0,,4,,,64,127
76085,note_on,0,0,0,,2,,,74,127
76268,note_off,183,0,0,,8,,,68,127
76268,note_off,0,0,0,,4,,,76,127
76269,note_on,1,0,0,,4,,,76,127
76269,note_on,0,0,0,,6,,,66,127
76452,note_off,183,0,0,,6,,,66,127
76452,note_off,0,0,0,,4,,,76,127
76453,note_on,1,0,0,,4,,,76,127
76453,note_on,0,0,0,,8,,,68,127
76636,note_off,183,0,0,,8,,,68,127
76636,note_off,0,0,0,,4,,,76,127
76636,note_off,0,0,0,,2,,,74,127
76636,note_off,0,0,0,,4,,,64,127
76637,note_on,1,0,0,,5,,,77,127
76637,note_on,0,0,0,,2,,,74,127
76637,note_on,0,0,0,,10,,,69,127
76637,note_on,0,0,0,,5,,,65,127
76820,note_off,183,0,0,,10,,,69,127
76820,note_off,0,0,0,,5,,,77,127
76821,note_on,1,0,0,,5,,,77,127
76821,note_on,0,0,0,,8,,,68,127
77004,note_off,183,0,0,,8,,,68,127
77004,note_off,0,0,0,,5,,,77,127
77005,note_on,1,0,0,,5,,,77,127
77005,note_on,0,0,0,,10,,,69,127
77188,note_off,183,0,0,,10,,,69,127
77188,note_off,0,0,0,,5,,,77,127
77188,note_off,0,0,0,,5,,,65,127
77188,note_off,0,0,0,,2,,,74,127
77189,note_on,1,0,0,,4,,,76,127
77189,note_on,0,0,0,,2,,,74,127
77189,note_on,0,0,0,,8,,,68,127
77189,note_on,0,0,0,,4,,,64,127
77372,note_off,183,0,0,,8,,,68,127
77372,note_off,0,0,0,,2,,,74,127
77372,note_off,0,0,0,,4,,,76,127
77373,note_on,1,0,0,,6,,,78,127
77373,note_on,0,0,0,,10,,,69,127
77556,note_off,183,0,0,,10,,,69,127
77556,note_off,0,0,0,,6,,,78,127
77557,note_on,1,0,0,,8,,,80,127
77557,note_on,0,0,0,,12,,,71,127
77740,note_off,183,0,0,,12,,,71,127
77740,note_off,0,0,0,,8,,,80,127
77740,note_off,0,0,0,,4,,,64,127
77741,note_on,1,0,0,,8,,,80,127
77741,note_on,0,0,0,,12,,,71,127
77924,note_off,183,0,0,,12,,,71,127
77924,note_off,0,0,0,,8,,,80,127
77925,note_on,1,0,0,,10,,,81,127
77925,note_on,0,0,0,,0,,,72,127
78108,note_off,183,0,0,,0,,,72,127
78108,note_off,0,0,0,,10,,,81,127
78109,note_on,1,0,0,,12,,,83,127
78109,note_on,0,0,0,,2,,,74,127
78292,note_off,183,0,0,,2,,,74,127
78292,note_off,0,0,0,,12,,,83,127
78293,note_on,1,0,0,,12,,,83,127
78293,note_on,0,0,0,,8,,,68,127
78293,note_on,0,0,0,,4,,,64,127
78293,note_on,0,0,0,,2,,,74,127
78476,note_off,183,0,0,,2,,,74,127
78476,note_off,0,0,0,,12,,,83,127
78477,note_on,1,0,0,,10,,,81,127
78477,note_on,0,0,0,,0,,,72,127
78660,note_off,183,0,0,,0,,,72,127
78660,note_off,0,0,0,,10,,,81,127
78661,note_on,1,0,0,,8,,,80,127
78661,note_on,0,0,0,,12,,,71,127
78844,note_off,183,0,0,,12,,,71,127
78844,note_off,0,0,0,,8,,,80,127
78844,note_off,0,0,0,,4,,,64,127
78844,note_off,0,0,0,,8,,,68,127
78845,note_on,1,0,0,,8,,,80,127
78845,note_on,0,0,0,,12,,,71,127
78845,note_on,0,0,0,,4,,,64,127
79028,note_off,183,0,0,,12,,,71,127
79028,note_off,0,0,0,,8,,,80,127
79029,note_on,1,0,0,,6,,,78,127
79029,note_on,0,0,0,,0,,,72,127
79212,note_off,183,0,0,,0,,,72,127
79212,note_off,0,0,0,,6,,,78,127
79213,note_on,1,0,0,,4,,,76,127
79213,note_on,0,0,0,,2,,,74,127
79396,note_off,183,0,0,,2,,,74,127
79396,note_off,0,0,0,,4,,,76,127
79396,note_off,0,0,0,,4,,,64,127
79397,note_on,1,0,0,,10,,,57,127
79397,note_on,0,0,0,,10,,,69,127
79397,note_on,0,0,0,,4,,,64,127
79397,note_on,0,0,0,,0,,,72,127
79580,note_off,183,0,0,,0,,,72,127
79580,note_off,0,0,0,,10,,,69,127
79581,note_on,1,0,0,,12,,,71,127
79764,note_off,183,0,0,,12,,,71,127
79764,note_off,0,0,0,,10,,,57,127
79765,note_on,1,0,0,,0,,,84,127
79765,note_on,0,0,0,,10,,,69,127
79948,note_off,183,0,0,,10,,,69,127
79948,note_off,0,0,0,,0,,,84,127
79949,note_on,1,0,0,,4,,,52,127
79949,note_on,0,0,0,,12,,,71,127
80132,note_off,183,0,0,,12,,,71,127
80133,note_on,1,0,0,,0,,,72,127
80316,note_off,183,0,0,,0,,,72,127
80316,note_off,0,0,0,,4,,,52,127
80317,note_on,1,0,0,,12,,,83,127
80317,note_on,0,0,0,,2,,,74,127
80500,note_off,183,0,0,,2,,,74,127
80500,note_off,0,0,0,,12,,,83,127
80501,note_on,1,0,0,,10,,,57,127
80501,note_on,0,0,0,,0,,,72,127
80684,note_off,183,0,0,,0,,,72,127
80685,note_on,1,0,0,,12,,,71,127
80868,note_off,183,0,0,,12,,,71,127
80868,note_off,0,0,0,,10,,,57,127
80869,note_on,1,0,0,,0,,,84,127
80869,note_on,0,0,0,,10,,,69,127
81052,note_off,183,0,0,,10,,,69,127
81052,note_off,0,0,0,,0,,,84,127
81053,note_on,1,0,0,,4,,,52,127
81053,note_on,0,0,0,,12,,,71,127
81236,note_off,183,0,0,,12,,,71,127
81237,note_on,1,0,0,,0,,,72,127
81420,note_off,183,0,0,,0,,,72,127
81420,note_off,0,0,0,,4,,,52,127
81421,note_on,1,0,0,,12,,,83,127
81421,note_on,0,0,0,,2,,,74,127
81604,note_off,183,0,0,,2,,,74,127
81604,note_off,0,0,0,,12,,,83,127
81604,note_off,0,0,0,,4,,,64,127
81605,note_on,1,0,0,,10,,,57,127
81605,note_on,0,0,0,,0,,,72,127
81788,note_off,183,0,0,,0,,,72,127
81789,note_on,1,0,0,,12,,,71,127
81972,note_off,183,0,0,,12,,,71,127
81972,note_off,0,0,0,,10,,,57,127
81973,note_on,1,0,0,,0,,,84,127
81973,note_on,0,0,0,,0,,,72,127
82156,note_off,183,0,0,,0,,,84,127
82157,note_on,1,0,0,,2,,,50,127
82157,note_on,0,0,0,,2,,,62,127
82340,note_off,183,0,0,,0,,,72,127
82341,note_on,1,0,0,,12,,,71,127
82524,note_off,183,0,0,,12,,,71,127
82524,note_off,0,0,0,,2,,,50,127
82525,note_on,1,0,0,,0,,,84,127
82525,note_on,0,0,0,,0,,,72,127
82708,note_off,183,0,0,,0,,,72,127
82708,note_off,0,0,0,,0,,,84,127
82709,note_on,1,0,0,,7,,,55,127
82709,note_on,0,0,0,,11,,,70,127
82892,note_off,183,0,0,,11,,,70,127
82893,note_on,1,0,0,,10,,,69,127
83076,note_off,183,0,0,,10,,,69,127
83076,note_off,0,0,0,,7,,,55,127
83077,note_on,1,0,0,,11,,,82,127
83077,note_on,0,0,0,,7,,,67,127
83260,note_off,183,0,0,,7,,,67,127
83260,note_off,0,0,0,,11,,,82,127
83261,note_on,1,0,0,,2,,,50,127
83261,note_on,0,0,0,,10,,,69,127
83444,note_off,183,0,0,,10,,,69,127
83445,note_on,1,0,0,,11,,,70,127
83628,note_off,183,0,0,,11,,,70,127
83628,note_off,0,0,0,,2,,,50,127
83629,note_on,1,0,0,,10,,,81,127
83629,note_on,0,0,0,,0,,,72,127
83812,note_off,183,0,0,,0,,,72,127
83812,note_off,0,0,0,,10,,,81,127
83813,note_on,1,0,0,,7,,,55,127
83813,note_on,0,0,0,,11,,,70,127
83996,note_off,183,0,0,,11,,,70,127
83997,note_on,1,0,0,,10,,,69,127
84180,note_off,183,0,0,,10,,,69,127
84180,note_off,0,0,0,,7,,,55,127
84181,note_on,1,0,0,,11,,,82,127
84181,note_on,0,0,0,,7,,,67,127
84364,note_off,183,0,0,,7,,,67,127
84364,note_off,0,0,0,,11,,,82,127
84364,note_off,0,0,0,,2,,,62,127
84365,note_on,1,0,0,,2,,,50,127
84365,note_on,0,0,0,,10,,,69,127
84548,note_off,183,0,0,,10,,,69,127
84549,note_on,1,0,0,,11,,,70,127
84732,note_off,183,0,0,,11,,,70,127
84732,note_off,0,0,0,,2,,,50,127
84733,note_on,1,0,0,,10,,,81,127
84733,note_on,0,0,0,,0,,,72,127
84916,note_off,183,0,0,,0,,,72,127
84916,note_off,0,0,0,,10,,,81,127
84917,note_on,1,0,0,,7,,,55,127
84917,note_on,0,0,0,,11,,,70,127
85100,note_off,183,0,0,,11,,,70,127
85101,note_on,1,0,0,,10,,,69,127
85284,note_off,183,0,0,,10,,,69,127
85284,note_off,0,0,0,,7,,,55,127
85285,note_on,1,0,0,,11,,,82,127
85285,note_on,0,0,0,,11,,,70,127
85468,note_off,183,0,0,,11,,,82,127
85469,note_on,1,0,0,,0,,,48,127
85469,note_on,0,0,0,,0,,,60,127
85652,note_off,183,0,0,,11,,,70,127
85653,note_on,1,0,0,,10,,,69,127
85836,note_off,183,0,0,,10,,,69,127
85836,note_off,0,0,0,,0,,,48,127
85837,note_on,1,0,0,,11,,,82,127
85837,note_on,0,0,0,,11,,,70,127
86020,note_off,183,0,0,,11,,,70,127
86020,note_off,0,0,0,,11,,,82,127
86021,note_on,1,0,0,,5,,,53,127
86021,note_on,0,0,0,,10,,,69,127
86204,note_off,183,0,0,,10,,,69,127
86205,note_on,1,0,0,,7,,,67,127
86388,note_off,183,0,0,,7,,,67,127
86388,note_off,0,0,0,,5,,,53,127
86389,note_on,1,0,0,,10,,,81,127
86389,note_on,0,0,0,,5,,,65,127
86572,note_off,183,0,0,,5,,,65,127
86572,note_off,0,0,0,,10,,,81,127
86573,note_on,1,0,0,,0,,,48,127
86573,note_on,0,0,0,,7,,,67,127
86756,note_off,183,0,0,,7,,,67,127
86757,note_on,1,0,0,,10,,,69,127
86940,note_off,183,0,0,,10,,,69,127
86940,note_off,0,0,0,,0,,,48,127
86941,note_on,1,0,0,,7,,,79,127
86941,note_on,0,0,0,,11,,,70,127
87124,note_off,183,0,0,,11,,,70,127
87124,note_off,0,0,0,,7,,,79,127
87125,note_on,1,0,0,,5,,,53,127
87125,note_on,0,0,0,,10,,,69,127
87308,note_off,183,0,0,,10,,,69,127
87309,note_on,1,0,0,,7,,,67,127
87492,note_off,183,0,0,,7,,,67,127
87492,note_off,0,0,0,,5,,,53,127
87493,note_on,1,0,0,,10,,,81,127
87493,note_on,0,0,0,,5,,,65,127
87676,note_off,183,0,0,,5,,,65,127
87676,note_off,0,0,0,,10,,,81,127
87676,note_off,0,0,0,,0,,,60,127
87677,note_on,1,0,0,,0,,,48,127
87677,note_on,0,0,0,,7,,,67,127
87860,note_off,183,0,0,,7,,,67,127
87861,note_on,1,0,0,,10,,,69,127
88044,note_off,183,0,0,,10,,,69,127
88044,note_off,0,0,0,,0,,,48,127
88045,note_on,1,0,0,,7,,,79,127
88045,note_on,0,0,0,,11,,,70,127
88228,note_off,183,0,0,,11,,,70,127
88228,note_off,0,0,0,,7,,,79,127
88229,note_on,1,0,0,,5,,,53,127
88229,note_on,0,0,0,,10,,,69,127
88412,note_off,183,0,0,,10,,,69,127
88413,note_on,1,0,0,,7,,,67,127
88596,note_off,183,0,0,,7,,,67,127
88596,note_off,0,0,0,,5,,,53,127
88597,note_on,1,0,0,,10,,,81,127
88597,note_on,0,0,0,,10,,,69,127
88780,note_off,183,0,0,,10,,,69,127
88780,note_off,0,0,0,,10,,,81,127
88781,note_on,1,0,0,,0,,,48,127
88781,note_on,0,0,0,,5,,,65,127
88964,note_off,183,0,0,,5,,,65,127
88965,note_on,1,0,0,,4,,,64,127
89148,note_off,183,0,0,,4,,,64,127
89148,note_off,0,0,0,,0,,,48,127
89149,note_on,1,0,0,,10,,,81,127
89149,note_on,0,0,0,,5,,,65,127
89332,note_off,183,0,0,,5,,,65,127
89332,note_off,0,0,0,,10,,,81,127
89333,note_on,1,0,0,,11,,,46,127
89333,note_on,0,0,0,,2,,,62,127
89516,note_off,183,0,0,,2,,,62,127
89517,note_on,1,0,0,,1,,,61,127
89700,note_off,183,0,0,,1,,,61,127
89700,note_off,0,0,0,,11,,,46,127
89701,note_on,1,0,0,,11,,,82,127
89701,note_on,0,0,0,,2,,,62,127
89884,note_off,183,0,0,,2,,,62,127
89884,note_off,0,0,0,,11,,,82,127
89885,note_on,1,0,0,,7,,,43,127
89885,note_on,0,0,0,,4,,,64,127
89885,note_on,0,0,0,,7,,,67,127
90068,note_off,183,0,0,,7,,,67,127
90068,note_off,0,0,0,,4,,,64,127
90069,note_on,1,0,0,,7,,,67,127
90252,note_off,183,0,0,,7,,,67,127
90252,note_off,0,0,0,,7,,,43,127
90253,note_on,1,0,0,,7,,,79,127
90253,note_on,0,0,0,,5,,,65,127
90253,note_on,0,0,0,,2,,,62,127
90436,note_off,183,0,0,,7,,,79,127
90437,note_on,1,0,0,,10,,,45,127
90620,note_off,183,0,0,,2,,,62,127
90620,note_off,0,0,0,,5,,,65,127
90621,note_on,1,0,0,,1,,,61,127
90621,note_on,0,0,0,,4,,,64,127
90804,note_off,183,0,0,,4,,,64,127
90804,note_off,0,0,0,,1,,,61,127
90805,note_on,1,0,0,,5,,,65,127
90805,note_on,0,0,0,,2,,,62,127
90988,note_off,183,0,0,,2,,,62,127
90988,note_off,0,0,0,,5,,,65,127
90988,note_off,0,0,0,,10,,,45,127
90989,note_on,1,0,0,,10,,,45,127
90989,note_on,0,0,0,,7,,,67,127
90989,note_on,0,0,0,,4,,,64,127
91172,note_off,183,0,0,,4,,,64,127
91172,note_off,0,0,0,,7,,,67,127
91173,note_on,1,0,0,,4,,,64,127
91173,note_on,0,0,0,,7,,,67,127
91356,note_off,183,0,0,,7,,,67,127
91356,note_off,0,0,0,,4,,,64,127
91357,note_on,1,0,0,,5,,,65,127
91357,note_on,0,0,0,,10,,,69,127
91540,note_off,183,0,0,,10,,,45,127
91541,note_on,1,0,0,,10,,,45,127
91724,note_off,183,0,0,,10,,,69,127
91724,note_off,0,0,0,,5,,,65,127
91725,note_on,1,0,0,,11,,,70,127
91725,note_on,0,0,0,,7,,,67,127
91908,note_off,183,0,0,,7,,,67,127
91908,note_off,0,0,0,,11,,,70,127
91909,note_on,1,0,0,,10,,,69,127
91909,note_on,0,0,0,,5,,,65,127
92092,note_off,183,0,0,,5,,,65,127
92092,note_off,0,0,0,,10,,,69,127
92092,note_off,0,0,0,,10,,,45,127
92093,note_on,1,0,0,,10,,,45,127
92093,note_on,0,0,0,,4,,,64,127
92093,note_on,0,0,0,,7,,,67,127
92276,note_off,183,0,0,,7,,,67,127
92276,note_off,0,0,0,,4,,,64,127
92277,note_on,1,0,0,,5,,,65,127
92277,note_on,0,0,0,,2,,,62,127
92460,note_off,183,0,0,,2,,,62,127
92460,note_off,0,0,0,,5,,,65,127
92461,note_on,1,0,0,,4,,,64,127
92461,note_on,0,0,0,,1,,,61,127
92644,note_off,183,0,0,,1,,,61,127
92644,note_off,0,0,0,,4,,,64,127
92644,note_off,0,0,0,,10,,,45,127
92645,note_on,1,0,0,,5,,,65,127
92645,note_on,0,0,0,,2,,,62,127
92783,note_off,138,0,0,,5,,,65,127
92828,note_off,45,0,0,,2,,,62,127
92829,note_on,1,0,0,,10,,,81,127
92829,note_on,0,0,0,,2,,,62,127
93012,note_off,183,0,0,,2,,,62,127
93012,note_off,0,0,0,,10,,,81,127
93013,note_on,1,0,0,,7,,,79,127
93013,note_on,0,0,0,,4,,,64,127
93196,note_off,183,0,0,,4,,,64,127
93196,note_off,0,0,0,,7,,,79,127
93197,note_on,1,0,0,,5,,,77,127
93197,note_on,0,0,0,,5,,,65,127
93380,note_off,183,0,0,,5,,,65,127
93380,note_off,0,0,0,,5,,,77,127
93381,note_on,1,0,0,,4,,,76,127
93381,note_on,0,0,0,,7,,,67,127
93564,note_off,183,0,0,,7,,,67,127
93564,note_off,0,0,0,,4,,,76,127
93565,note_on,1,0,0,,2,,,74,127
93565,note_on,0,0,0,,10,,,69,127
93748,note_off,183,0,0,,10,,,69,127
93748,note_off,0,0,0,,2,,,74,127
93749,note_on,1,0,0,,7,,,43,127
93933,note_on,184,0,0,,2,,,74,127
93933,note_on,0,0,0,,11,,,82,127
94116,note_off,183,0,0,,11,,,82,127
94116,note_off,0,0,0,,2,,,74,127
94117,note_on,1,0,0,,10,,,81,127
94117,note_on,0,0,0,,0,,,72,127
94300,note_off,183,0,0,,0,,,72,127
94300,note_off,0,0,0,,10,,,81,127
94300,note_off,0,0,0,,7,,,43,127
94301,note_on,1,0,0,,11,,,46,127
94301,note_on,0,0,0,,11,,,70,127
94301,note_on,0,0,0,,7,,,79,127
94484,note_off,183,0,0,,7,,,79,127
94484,note_off,0,0,0,,11,,,70,127
94485,note_on,1,0,0,,7,,,79,127
94485,note_on,0,0,0,,11,,,70,127
94668,note_off,183,0,0,,11,,,70,127
94668,note_off,0,0,0,,7,,,79,127
94669,note_on,1,0,0,,5,,,77,127
94669,note_on,0,0,0,,10,,,69,127
94852,note_off,183,0,0,,10,,,69,127
94852,note_off,0,0,0,,5,,,77,127
94852,note_off,0,0,0,,11,,,46,127
94853,note_on,1,0,0,,0,,,48,127
95037,note_on,184,0,0,,7,,,79,127
95220,note_off,183,0,0,,7,,,79,127
95220,note_off,0,0,0,,0,,,48,127
95221,note_on,1,0,0,,5,,,77,127
95221,note_on,0,0,0,,2,,,50,127
95404,note_off,183,0,0,,2,,,50,127
95404,note_off,0,0,0,,5,,,77,127
95405,note_on,1,0,0,,4,,,76,127
95405,note_on,0,0,0,,4,,,52,127
95588,note_off,183,0,0,,4,,,52,127
95588,note_off,0,0,0,,4,,,76,127
95589,note_on,1,0,0,,2,,,74,127
95589,note_on,0,0,0,,5,,,53,127
95772,note_off,183,0,0,,5,,,53,127
95772,note_off,0,0,0,,2,,,74,127
95773,note_on,1,0,0,,0,,,72,127
95773,note_on,0,0,0,,7,,,55,127
95956,note_off,183,0,0,,7,,,55,127
95956,note_off,0,0,0,,0,,,72,127
95957,note_on,1,0,0,,5,,,41,127
96141,note_on,184,0,0,,10,,,81,127
96141,note_on,0,0,0,,0,,,72,127
96324,note_off,183,0,0,,0,,,72,127
96324,note_off,0,0,0,,10,,,81,127
96325,note_on,1,0,0,,7,,,79,127
96325,note_on,0,0,0,,11,,,70,127
96508,note_off,183,0,0,,11,,,70,127
96508,note_off,0,0,0,,7,,,79,127
96508,note_off,0,0,0,,5,,,41,127
96509,note_on,1,0,0,,10,,,45,127
96509,note_on,0,0,0,,5,,,77,127
96509,note_on,0,0,0,,10,,,69,127
96692,note_off,183,0,0,,10,,,69,127
96692,note_off,0,0,0,,5,,,77,127
96693,note_on,1,0,0,,5,,,77,127
96693,note_on,0,0,0,,10,,,69,127
96876,note_off,183,0,0,,10,,,69,127
96876,note_off,0,0,0,,5,,,77,127
96877,note_on,1,0,0,,7,,,67,127
96877,note_on,0,0,0,,4,,,76,127
97060,note_off,183,0,0,,4,,,76,127
97060,note_off,0,0,0,,7,,,67,127
97060,note_off,0,0,0,,10,,,45,127
97061,note_on,1,0,0,,11,,,46,127
97245,note_on,184,0,0,,5,,,77,127
97428,note_off,183,0,0,,5,,,77,127
97428,note_off,0,0,0,,11,,,46,127
97429,note_on,1,0,0,,4,,,76,127
97429,note_on,0,0,0,,0,,,48,127
97612,note_off,183,0,0,,0,,,48,127
97612,note_off,0,0,0,,4,,,76,127
97613,note_on,1,0,0,,2,,,74,127
97613,note_on,0,0,0,,2,,,50,127
97796,note_off,183,0,0,,2,,,50,127
97796,note_off,0,0,0,,2,,,74,127
97797,note_on,1,0,0,,0,,,72,127
97797,note_on,0,0,0,,4,,,52,127
97980,note_off,183,0,0,,4,,,52,127
97980,note_off,0,0,0,,0,,,72,127
97981,note_on,1,0,0,,11,,,70,127
97981,note_on,0,0,0,,5,,,53,127
98164,note_off,183,0,0,,5,,,53,127
98164,note_off,0,0,0,,11,,,70,127
98165,note_on,1,0,0,,4,,,40,127
98349,note_on,184,0,0,,11,,,70,127
98349,note_on,0,0,0,,7,,,79,127
98532,note_off,183,0,0,,7,,,79,127
98532,note_off,0,0,0,,11,,,70,127
98533,note_on,1,0,0,,10,,,69,127
98533,note_on,0,0,0,,5,,,77,127
98716,note_off,183,0,0,,5,,,77,127
98716,note_off,0,0,0,,10,,,69,127
98716,note_off,0,0,0,,4,,,40,127
98717,note_on,1,0,0,,7,,,43,127
98717,note_on,0,0,0,,7,,,67,127
98717,note_on,0,0,0,,4,,,76,127
98900,note_off,183,0,0,,4,,,76,127
98900,note_off,0,0,0,,7,,,67,127
98901,note_on,1,0,0,,4,,,76,127
98901,note_on,0,0,0,,7,,,67,127
99084,note_off,183,0,0,,7,,,67,127
99084,note_off,0,0,0,,4,,,76,127
99085,note_on,1,0,0,,2,,,74,127
99085,note_on,0,0,0,,5,,,65,127
99268,note_off,183,0,0,,5,,,65,127
99268,note_off,0,0,0,,2,,,74,127
99268,note_off,0,0,0,,7,,,43,127
99269,note_on,1,0,0,,10,,,45,127
99453,note_on,184,0,0,,4,,,76,127
99636,note_off,183,0,0,,4,,,76,127
99636,note_off,0,0,0,,10,,,45,127
99637,note_on,1,0,0,,2,,,74,127
99637,note_on,0,0,0,,12,,,47,127
99820,note_off,183,0,0,,12,,,47,127
99820,note_off,0,0,0,,2,,,74,127
99821,note_on,1,0,0,,1,,,73,127
99821,note_on,0,0,0,,1,,,49,127
100004,note_off,183,0,0,,1,,,49,127
100004,note_off,0,0,0,,1,,,73,127
100005,note_on,1,0,0,,12,,,71,127
100005,note_on,0,0,0,,2,,,50,127
100188,note_off,183,0,0,,2,,,50,127
100188,note_off,0,0,0,,12,,,71,127
100189,note_on,1,0,0,,10,,,69,127
100189,note_on,0,0,0,,4,,,52,127
100372,note_off,183,0,0,,4,,,52,127
100372,note_off,0,0,0,,10,,,69,127
100373,note_on,1,0,0,,2,,,38,127
100557,note_on,184,0,0,,5,,,77,127
100557,note_on,0,0,0,,10,,,69,127
100740,note_off,183,0,0,,10,,,69,127
100740,note_off,0,0,0,,5,,,77,127
100741,note_on,1,0,0,,7,,,67,127
100741,note_on,0,0,0,,4,,,76,127
100924,note_off,183,0,0,,4,,,76,127
100924,note_off,0,0,0,,7,,,67,127
100924,note_off,0,0,0,,2,,,38,127
100925,note_on,1,0,0,,5,,,41,127
100925,note_on,0,0,0,,2,,,74,127
100925,note_on,0,0,0,,5,,,65,127
101108,note_off,183,0,0,,5,,,65,127
101108,note_off,0,0,0,,2,,,74,127
101109,note_on,1,0,0,,5,,,65,127
101109,note_on,0,0,0,,2,,,74,127
101292,note_off,183,0,0,,2,,,74,127
101292,note_off,0,0,0,,5,,,65,127
101293,note_on,1,0,0,,0,,,72,127
101293,note_on,0,0,0,,4,,,64,127
101476,note_off,183,0,0,,4,,,64,127
101476,note_off,0,0,0,,0,,,72,127
101476,note_off,0,0,0,,5,,,41,127
101477,note_on,1,0,0,,7,,,43,127
101477,note_on,0,0,0,,4,,,64,127
101477,note_on,0,0,0,,0,,,72,127
101660,note_off,183,0,0,,0,,,72,127
101660,note_off,0,0,0,,4,,,64,127
101661,note_on,1,0,0,,2,,,62,127
101661,note_on,0,0,0,,11,,,70,127
101844,note_off,183,0,0,,11,,,70,127
101844,note_off,0,0,0,,2,,,62,127
101845,note_on,1,0,0,,10,,,69,127
101845,note_on,0,0,0,,1,,,61,127
102028,note_off,183,0,0,,1,,,61,127
102028,note_off,0,0,0,,10,,,69,127
102028,note_off,0,0,0,,7,,,43,127
102029,note_on,1,0,0,,7,,,55,127
102029,note_on,0,0,0,,11,,,70,127
102029,note_on,0,0,0,,2,,,62,127
102212,note_off,183,0,0,,2,,,62,127
102212,note_off,0,0,0,,11,,,70,127
102213,note_on,1,0,0,,10,,,69,127
102213,note_on,0,0,0,,1,,,61,127
102396,note_off,183,0,0,,1,,,61,127
102396,note_off,0,0,0,,10,,,69,127
102397,note_on,1,0,0,,11,,,70,127
102397,note_on,0,0,0,,2,,,62,127
102580,note_off,183,0,0,,2,,,62,127
102580,note_off,0,0,0,,11,,,70,127
102580,note_off,0,0,0,,7,,,55,127
102581,note_on,1,0,0,,10,,,57,127
102581,note_on,0,0,0,,10,,,69,127
102581,note_on,0,0,0,,1,,,61,127
102764,note_off,183,0,0,,1,,,61,127
102764,note_off,0,0,0,,10,,,69,127
102765,note_on,1,0,0,,2,,,62,127
102765,note_on,0,0,0,,11,,,70,127
102948,note_off,183,0,0,,11,,,70,127
102948,note_off,0,0,0,,2,,,62,127
102949,note_on,1,0,0,,1,,,61,127
102949,note_on,0,0,0,,10,,,69,127
103132,note_off,183,0,0,,10,,,69,127
103132,note_off,0,0,0,,1,,,61,127
103132,note_off,0,0,0,,10,,,57,127
103133,note_on,1,0,0,,7,,,55,127
103133,note_on,0,0,0,,11,,,70,127
103133,note_on,0,0,0,,2,,,62,127
103316,note_off,183,0,0,,2,,,62,127
103316,note_off,0,0,0,,11,,,70,127
103317,note_on,1,0,0,,1,,,61,127
103317,note_on,0,0,0,,10,,,69,127
103500,note_off,183,0,0,,10,,,69,127
103500,note_off,0,0,0,,1,,,61,127
103501,note_on,1,0,0,,11,,,70,127
103501,note_on,0,0,0,,2,,,62,127
103684,note_off,183,0,0,,2,,,62,127
103684,note_off,0,0,0,,11,,,70,127
103684,note_off,0,0,0,,7,,,55,127
103685,note_on,1,0,0,,10,,,57,127
103685,note_on,0,0,0,,1,,,61,127
103685,note_on,0,0,0,,10,,,69,127
103868,note_off,183,0,0,,10,,,69,127
103868,note_off,0,0,0,,1,,,61,127
103869,note_on,1,0,0,,12,,,71,127
103869,note_on,0,0,0,,2,,,62,127
104052,note_off,183,0,0,,2,,,62,127
104052,note_off,0,0,0,,12,,,71,127
104053,note_on,1,0,0,,4,,,64,127
104053,note_on,0,0,0,,1,,,73,127
104236,note_off,183,0,0,,1,,,73,127
104236,note_off,0,0,0,,4,,,64,127
104236,note_off,0,0,0,,10,,,57,127
104237,note_on,1,0,0,,7,,,55,127
104237,note_on,0,0,0,,4,,,64,127
104237,note_on,0,0,0,,1,,,73,127
104237,note_on,0,0,0,,2,,,74,127
104420,note_off,183,0,0,,2,,,74,127
104420,note_off,0,0,0,,1,,,73,127
104420,note_off,0,0,0,,4,,,64,127
104421,note_on,1,0,0,,12,,,71,127
104421,note_on,0,0,0,,2,,,62,127
104604,note_off,183,0,0,,2,,,62,127
104604,note_off,0,0,0,,12,,,71,127
104605,note_on,1,0,0,,1,,,73,127
104605,note_on,0,0,0,,4,,,64,127
104788,note_off,183,0,0,,4,,,64,127
104788,note_off,0,0,0,,1,,,73,127
104788,note_off,0,0,0,,7,,,55,127
104789,note_on,1,0,0,,5,,,53,127
104789,note_on,0,0,0,,2,,,62,127
104789,note_on,0,0,0,,2,,,74,127
104789,note_on,0,0,0,,5,,,65,127
104972,note_off,183,0,0,,5,,,65,127
104972,note_off,0,0,0,,2,,,74,127
104973,note_on,1,0,0,,4,,,64,127
104973,note_on,0,0,0,,1,,,73,127
105156,note_off,183,0,0,,1,,,73,127
105156,note_off,0,0,0,,4,,,64,127
105157,note_on,1,0,0,,5,,,65,127
105157,note_on,0,0,0,,2,,,74,127
105340,note_off,183,0,0,,2,,,74,127
105340,note_off,0,0,0,,5,,,65,127
105340,note_off,0,0,0,,2,,,62,127
105340,note_off,0,0,0,,5,,,53,127
105341,note_on,1,0,0,,1,,,61,127
105341,note_on,0,0,0,,4,,,52,127
105341,note_on,0,0,0,,7,,,67,127
105341,note_on,0,0,0,,4,,,76,127
105524,note_off,183,0,0,,4,,,76,127
105524,note_off,0,0,0,,7,,,67,127
105525,note_on,1,0,0,,5,,,65,127
105525,note_on,0,0,0,,2,,,74,127
105708,note_off,183,0,0,,2,,,74,127
105708,note_off,0,0,0,,5,,,65,127
105709,note_on,1,0,0,,4,,,76,127
105709,note_on,0,0,0,,7,,,67,127
105892,note_off,183,0,0,,7,,,67,127
105892,note_off,0,0,0,,4,,,76,127
105892,note_off,0,0,0,,4,,,52,127
105892,note_off,0,0,0,,1,,,61,127
105893,note_on,1,0,0,,2,,,50,127
105893,note_on,0,0,0,,5,,,77,127
105893,note_on,0,0,0,,10,,,69,127
106076,note_off,183,0,0,,10,,,69,127
106076,note_off,0,0,0,,5,,,77,127
106077,note_on,1,0,0,,4,,,76,127
106077,note_on,0,0,0,,7,,,67,127
106260,note_off,183,0,0,,7,,,67,127
106260,note_off,0,0,0,,4,,,76,127
106260,note_off,0,0,0,,2,,,50,127
106261,note_on,1,0,0,,2,,,62,127
106261,note_on,0,0,0,,10,,,69,127
106261,note_on,0,0,0,,5,,,77,127
106444,note_off,183,0,0,,5,,,77,127
106444,note_off,0,0,0,,10,,,69,127
106444,note_off,0,0,0,,2,,,62,127
106445,note_on,1,0,0,,7,,,55,127
106445,note_on,0,0,0,,11,,,70,127
106445,note_on,0,0,0,,7,,,79,127
106628,note_off,183,0,0,,7,,,79,127
106629,note_on,1,0,0,,10,,,81,127
106812,note_off,183,0,0,,10,,,81,127
106812,note_off,0,0,0,,11,,,70,127
106812,note_off,0,0,0,,7,,,55,127
106813,note_on,1,0,0,,4,,,64,127
106813,note_on,0,0,0,,1,,,73,127
106813,note_on,0,0,0,,11,,,82,127
106996,note_off,183,0,0,,1,,,73,127
106996,note_off,0,0,0,,4,,,64,127
106997,note_on,1,0,0,,5,,,53,127
106997,note_on,0,0,0,,2,,,74,127
107180,note_off,183,0,0,,11,,,82,127
107181,note_on,1,0,0,,10,,,81,127
107364,note_off,183,0,0,,10,,,81,127
107364,note_off,0,0,0,,2,,,74,127
107364,note_off,0,0,0,,5,,,53,127
107365,note_on,1,0,0,,7,,,55,127
107365,note_on,0,0,0,,7,,,79,127
107365,note_on,0,0,0,,4,,,76,127
107548,note_off,183,0,0,,4,,,76,127
107548,note_off,0,0,0,,7,,,55,127
107549,note_on,1,0,0,,10,,,57,127
107549,note_on,0,0,0,,10,,,69,127
107732,note_off,183,0,0,,10,,,69,127
107732,note_off,0,0,0,,7,,,79,127
107733,note_on,1,0,0,,5,,,77,127
107733,note_on,0,0,0,,2,,,74,127
107916,note_off,183,0,0,,2,,,74,127
107916,note_off,0,0,0,,5,,,77,127
107916,note_off,0,0,0,,10,,,57,127
107917,note_on,1,0,0,,10,,,45,127
107917,note_on,0,0,0,,4,,,76,127
107917,note_on,0,0,0,,1,,,73,127
108100,note_off,183,0,0,,1,,,73,127
108100,note_off,0,0,0,,4,,,76,127
108100,note_off,0,0,0,,10,,,45,127
108101,note_on,1,0,0,,2,,,50,127
108101,note_on,0,0,0,,2,,,74,127
108101,note_on,0,0,0,,10,,,69,127
108284,note_off,183,0,0,,2,,,74,127
108285,note_on,1,0,0,,4,,,76,127
108468,note_off,183,0,0,,4,,,76,127
108468,note_off,0,0,0,,2,,,50,127
108469,note_on,1,0,0,,2,,,86,127
108469,note_on,0,0,0,,5,,,77,127
108652,note_off,183,0,0,,5,,,77,127
108652,note_off,0,0,0,,2,,,86,127
108652,note_off,0,0,0,,10,,,69,127
108653,note_on,1,0,0,,7,,,55,127
108653,note_on,0,0,0,,4,,,76,127
108653,note_on,0,0,0,,11,,,70,127
108836,note_off,183,0,0,,4,,,76,127
108837,note_on,1,0,0,,2,,,74,127
109020,note_off,183,0,0,,2,,,74,127
109020,note_off,0,0,0,,7,,,55,127
109021,note_on,1,0,0,,1,,,85,127
109021,note_on,0,0,0,,1,,,73,127
109204,note_off,183,0,0,,1,,,73,127
109204,note_off,0,0,0,,1,,,85,127
109204,note_off,0,0,0,,11,,,70,127
109205,note_on,1,0,0,,5,,,53,127
109205,note_on,0,0,0,,10,,,69,127
109205,note_on,0,0,0,,2,,,74,127
109388,note_off,183,0,0,,2,,,74,127
109389,note_on,1,0,0,,1,,,73,127
109572,note_off,183,0,0,,1,,,73,127
109572,note_off,0,0,0,,5,,,53,127
109573,note_on,1,0,0,,2,,,86,127
109573,note_on,0,0,0,,2,,,74,127
109756,note_off,183,0,0,,2,,,74,127
109756,note_off,0,0,0,,2,,,86,127
109756,note_off,0,0,0,,10,,,69,127
109757,note_on,1,0,0,,4,,,52,127
109757,note_on,0,0,0,,10,,,69,127
109757,note_on,0,0,0,,4,,,76,127
109757,note_on,0,0,0,,1,,,73,127
109940,note_off,183,0,0,,1,,,73,127
109940,note_off,0,0,0,,4,,,76,127
109941,note_on,1,0,0,,5,,,77,127
109941,note_on,0,0,0,,2,,,74,127
110124,note_off,183,0,0,,2,,,74,127
110124,note_off,0,0,0,,5,,,77,127
110124,note_off,0,0,0,,4,,,52,127
110125,note_on,1,0,0,,1,,,85,127
110125,note_on,0,0,0,,7,,,79,127
110125,note_on,0,0,0,,4,,,76,127
110308,note_off,183,0,0,,4,,,76,127
110308,note_off,0,0,0,,7,,,79,127
110308,note_off,0,0,0,,1,,,85,127
110308,note_off,0,0,0,,10,,,69,127
110309,note_on,1,0,0,,2,,,50,127
110309,note_on,0,0,0,,5,,,77,127
110309,note_on,0,0,0,,2,,,74,127
110492,note_off,183,0,0,,2,,,74,127
110492,note_off,0,0,0,,5,,,77,127
110493,note_on,1,0,0,,4,,,76,127
110493,note_on,0,0,0,,1,,,73,127
110676,note_off,183,0,0,,1,,,73,127
110676,note_off,0,0,0,,4,,,76,127
110676,note_off,0,0,0,,2,,,50,127
110677,note_on,1,0,0,,2,,,86,127
110677,note_on,0,0,0,,2,,,74,127
110677,note_on,0,0,0,,5,,,77,127
110860,note_off,183,0,0,,5,,,77,127
110860,note_off,0,0,0,,2,,,74,127
110860,note_off,0,0,0,,2,,,86,127
110861,note_on,1,0,0,,7,,,55,127
110861,note_on,0,0,0,,4,,,76,127
110861,note_on,0,0,0,,11,,,70,127
111044,note_off,183,0,0,,4,,,76,127
111045,note_on,1,0,0,,2,,,74,127
111228,note_off,183,0,0,,2,,,74,127
111228,note_off,0,0,0,,7,,,55,127
111229,note_on,1,0,0,,1,,,85,127
111229,note_on,0,0,0,,1,,,73,127
111412,note_off,183,0,0,,1,,,73,127
111412,note_off,0,0,0,,1,,,85,127
111412,note_off,0,0,0,,11,,,70,127
111413,note_on,1,0,0,,5,,,53,127
111413,note_on,0,0,0,,10,,,69,127
111413,note_on,0,0,0,,2,,,74,127
111596,note_off,183,0,0,,2,,,74,127
111597,note_on,1,0,0,,4,,,76,127
111780,note_off,183,0,0,,4,,,76,127
111780,note_off,0,0,0,,5,,,53,127
111781,note_on,1,0,0,,2,,,86,127
111781,note_on,0,0,0,,5,,,77,127
111964,note_off,183,0,0,,5,,,77,127
111964,note_off,0,0,0,,2,,,86,127
111964,note_off,0,0,0,,10,,,69,127
111965,note_on,1,0,0,,4,,,52,127
111965,note_on,0,0,0,,4,,,76,127
111965,note_on,0,0,0,,1,,,73,127
112148,note_off,183,0,0,,1,,,73,127
112148,note_off,0,0,0,,4,,,76,127
112149,note_on,1,0,0,,5,,,77,127
112149,note_on,0,0,0,,2,,,74,127
112332,note_off,183,0,0,,2,,,74,127
112332,note_off,0,0,0,,5,,,77,127
112332,note_off,0,0,0,,4,,,52,127
112333,note_on,1,0,0,,1,,,85,127
112333,note_on,0,0,0,,4,,,76,127
112333,note_on,0,0,0,,7,,,79,127
112516,note_off,183,0,0,,7,,,79,127
112516,note_off,0,0,0,,4,,,76,127
112516,note_off,0,0,0,,1,,,85,127
112517,note_on,1,0,0,,2,,,50,127
112517,note_on,0,0,0,,5,,,77,127
112517,note_on,0,0,0,,2,,,74,127
112700,note_off,183,0,0,,5,,,77,127
112701,note_on,1,0,0,,4,,,76,127
112884,note_off,183,0,0,,4,,,76,127
112884,note_off,0,0,0,,2,,,74,127
112884,note_off,0,0,0,,2,,,50,127
112885,note_on,1,0,0,,2,,,62,127
112885,note_on,0,0,0,,10,,,69,127
112885,note_on,0,0,0,,5,,,77,127
113068,note_off,183,0,0,,5,,,77,127
113068,note_off,0,0,0,,10,,,69,127
113068,note_off,0,0,0,,2,,,62,127
113069,note_on,1,0,0,,11,,,58,127
113069,note_on,0,0,0,,11,,,70,127
113069,note_on,0,0,0,,7,,,79,127
113252,note_off,183,0,0,,7,,,79,127
113252,note_off,0,0,0,,11,,,58,127
113253,note_on,1,0,0,,10,,,57,127
113253,note_on,0,0,0,,10,,,81,127
113436,note_off,183,0,0,,10,,,81,127
113436,note_off,0,0,0,,10,,,57,127
113436,note_off,0,0,0,,11,,,70,127
113437,note_on,1,0,0,,7,,,55,127
113437,note_on,0,0,0,,1,,,73,127
113437,note_on,0,0,0,,11,,,82,127
113620,note_off,183,0,0,,1,,,73,127
113620,note_off,0,0,0,,7,,,55,127
113621,note_on,1,0,0,,5,,,53,127
113621,note_on,0,0,0,,2,,,74,127
113804,note_off,183,0,0,,11,,,82,127
113805,note_on,1,0,0,,10,,,81,127
113988,note_off,183,0,0,,10,,,81,127
113988,note_off,0,0,0,,2,,,74,127
113988,note_off,0,0,0,,5,,,53,127
113989,note_on,1,0,0,,7,,,55,127
113989,note_on,0,0,0,,7,,,79,127
113989,note_on,0,0,0,,4,,,76,127
114172,note_off,183,0,0,,4,,,76,127
114172,note_off,0,0,0,,7,,,55,127
114173,note_on,1,0,0,,10,,,57,127
114173,note_on,0,0,0,,10,,,69,127
114356,note_off,183,0,0,,10,,,69,127
114356,note_off,0,0,0,,7,,,79,127
114357,note_on,1,0,0,,5,,,77,127
114357,note_on,0,0,0,,2,,,74,127
114540,note_off,183,0,0,,2,,,74,127
114540,note_off,0,0,0,,5,,,77,127
114541,note_on,1,0,0,,10,,,45,127
114541,note_on,0,0,0,,1,,,73,127
114541,note_on,0,0,0,,4,,,76,127
114723,note_off,182,0,0,,10,,,45,127
114724,note_off,1,0,0,,4,,,76,127
114724,note_off,0,0,0,,1,,,73,127
114724,note_off,0,0,0,,10,,,57,127
114724,note_on,0,0,0,,2,,,50,127
114725,note_on,1,0,0,,5,,,77,127
114725,note_on,0,0,0,,2,,,74,127
114908,note_off,183,0,0,,5,,,77,127
114909,note_on,1,0,0,,4,,,76,127
115089,note_off,180,0,0,,2,,,50,127
115093,note_off,4,0,0,,4,,,76,127
115093,note_off,0,0,0,,2,,,74,127
115094,note_on,1,0,0,,2,,,62,127
115094,note_on,0,0,0,,5,,,77,127
115094,note_on,0,0,0,,10,,,69,127
115277,note_off,183,0,0,,10,,,69,127
115277,note_off,0,0,0,,5,,,77,127
115277,note_off,0,0,0,,2,,,62,127
115278,note_on,1,0,0,,11,,,58,127
115278,note_on,0,0,0,,11,,,70,127
115278,note_on,0,0,0,,7,,,79,127
115461,note_off,183,0,0,,7,,,79,127
115461,note_off,0,0,0,,11,,,58,127
115462,note_on,1,0,0,,10,,,57,127
115462,note_on,0,0,0,,10,,,81,127
115645,note_off,183,0,0,,10,,,81,127
115645,note_off,0,0,0,,10,,,57,127
115645,note_off,0,0,0,,11,,,70,127
115646,note_on,1,0,0,,7,,,55,127
115646,note_on,0,0,0,,11,,,82,127
115646,note_on,0,0,0,,1,,,73,127
115829,note_off,183,0,0,,1,,,73,127
115829,note_off,0,0,0,,7,,,55,127
115830,note_on,1,0,0,,5,,,53,127
115830,note_on,0,0,0,,2,,,74,127
116013,note_off,183,0,0,,11,,,82,127
116014,note_on,1,0,0,,10,,,81,127
116197,note_off,183,0,0,,10,,,81,127
116197,note_off,0,0,0,,2,,,74,127
116197,note_off,0,0,0,,5,,,53,127
116198,note_on,1,0,0,,7,,,55,127
116198,note_on,0,0,0,,4,,,76,127
116198,note_on,0,0,0,,7,,,79,127
116381,note_off,183,0,0,,4,,,76,127
116381,note_off,0,0,0,,7,,,55,127
116382,note_on,1,0,0,,10,,,57,127
116382,note_on,0,0,0,,10,,,69,127
116565,note_off,183,0,0,,10,,,69,127
116565,note_off,0,0,0,,7,,,79,127
116566,note_on,1,0,0,,2,,,74,127
116566,note_on,0,0,0,,5,,,77,127
116749,note_off,183,0,0,,5,,,77,127
116749,note_off,0,0,0,,2,,,74,127
116750,note_on,1,0,0,,10,,,45,127
116750,note_on,0,0,0,,1,,,73,127
116750,note_on,0,0,0,,4,,,76,127
116906,note_off,156,0,0,,4,,,76,127
116918,note_off,12,0,0,,1,,,73,127
116933,note_off,15,0,0,,10,,,45,127
116933,note_off,0,0,0,,10,,,57,127
116934,note_on,1,0,0,,2,,,50,127
116934,note_on,0,0,0,,2,,,74,127
116934,note_on,0,0,0,,5,,,77,127
117117,note_off,183,0,0,,5,,,77,127
117117,note_off,0,0,0,,2,,,74,127
117118,note_on,1,0,0,,7,,,79,127
117118,note_on,0,0,0,,4,,,76,127
117301,note_off,183,0,0,,4,,,76,127
117301,note_off,0,0,0,,7,,,79,127
117301,note_off,0,0,0,,2,,,50,127
117302,note_on,1,0,0,,2,,,62,127
117302,note_on,0,0,0,,5,,,77,127
117302,note_on,0,0,0,,10,,,81,127
117485,note_off,183,0,0,,10,,,81,127
117485,note_off,0,0,0,,5,,,77,127
117485,note_off,0,0,0,,2,,,62,127
117486,note_on,1,0,0,,7,,,55,127
117486,note_on,0,0,0,,7,,,79,127
117486,note_on,0,0,0,,11,,,82,127
117669,note_off,183,0,0,,11,,,82,127
117669,note_off,0,0,0,,7,,,79,127
117670,note_on,1,0,0,,1,,,85,127
117670,note_on,0,0,0,,11,,,82,127
117853,note_off,183,0,0,,7,,,55,127
117854,note_on,1,0,0,,4,,,64,127
118037,note_off,183,0,0,,4,,,64,127
118037,note_off,0,0,0,,11,,,82,127
118037,note_off,0,0,0,,1,,,85,127
118038,note_on,1,0,0,,5,,,53,127
118038,note_on,0,0,0,,2,,,86,127
118221,note_off,183,0,0,,2,,,86,127
118221,note_off,0,0,0,,5,,,53,127
118222,note_on,1,0,0,,2,,,62,127
118222,note_on,0,0,0,,10,,,81,127
118405,note_off,183,0,0,,10,,,81,127
118405,note_off,0,0,0,,2,,,62,127
118406,note_on,1,0,0,,7,,,55,127
118406,note_on,0,0,0,,7,,,79,127
118406,note_on,0,0,0,,4,,,76,127
118589,note_off,183,0,0,,7,,,55,127
118590,note_on,1,0,0,,10,,,57,127
118773,note_off,183,0,0,,4,,,76,127
118773,note_off,0,0,0,,7,,,79,127
118774,note_on,1,0,0,,2,,,74,127
118774,note_on,0,0,0,,5,,,77,127
118957,note_off,183,0,0,,5,,,77,127
118957,note_off,0,0,0,,2,,,74,127
118958,note_on,1,0,0,,10,,,45,127
118958,note_on,0,0,0,,4,,,76,127
118958,note_on,0,0,0,,1,,,73,127
119131,note_off,173,0,0,,1,,,73,127
119131,note_off,0,0,0,,4,,,76,127
119142,note_off,11,0,0,,10,,,45,127
119142,note_off,0,0,0,,10,,,57,127
119143,note_on,1,0,0,,2,,,50,127
119143,note_on,0,0,0,,2,,,74,127
119143,note_on,0,0,0,,5,,,77,127
119326,note_off,183,0,0,,5,,,77,127
119326,note_off,0,0,0,,2,,,74,127
119327,note_on,1,0,0,,7,,,79,127
119327,note_on,0,0,0,,4,,,76,127
119510,note_off,183,0,0,,4,,,76,127
119510,note_off,0,0,0,,7,,,79,127
119510,note_off,0,0,0,,2,,,50,127
119511,note_on,1,0,0,,2,,,62,127
119511,note_on,0,0,0,,5,,,77,127
119511,note_on,0,0,0,,10,,,81,127
119694,note_off,183,0,0,,10,,,81,127
119694,note_off,0,0,0,,5,,,77,127
119694,note_off,0,0,0,,2,,,62,127
119695,note_on,1,0,0,,7,,,55,127
119695,note_on,0,0,0,,11,,,82,127
119695,note_on,0,0,0,,7,,,79,127
119878,note_off,183,0,0,,7,,,79,127
119878,note_off,0,0,0,,11,,,82,127
119879,note_on,1,0,0,,1,,,85,127
119879,note_on,0,0,0,,11,,,82,127
120062,note_off,183,0,0,,7,,,55,127
120063,note_on,1,0,0,,4,,,64,127
120234,note_off,171,0,0,,11,,,82,127
120234,note_off,0,0,0,,1,,,85,127
120246,note_off,12,0,0,,4,,,64,127
120247,note_on,1,0,0,,5,,,53,127
120247,note_on,0,0,0,,2,,,86,127
120427,note_off,180,0,0,,2,,,86,127
120430,note_off,3,0,0,,5,,,53,127
120431,note_on,1,0,0,,2,,,62,127
120431,note_on,0,0,0,,10,,,81,127
120614,note_off,183,0,0,,10,,,81,127
120614,note_off,0,0,0,,2,,,62,127
120615,note_on,1,0,0,,7,,,55,127
120615,note_on,0,0,0,,7,,,79,127
120615,note_on,0,0,0,,4,,,76,127
120798,note_off,183,0,0,,4,,,76,127
120798,note_off,0,0,0,,7,,,55,127
120799,note_on,1,0,0,,10,,,57,127
120799,note_on,0,0,0,,10,,,69,127
120982,note_off,183,0,0,,10,,,69,127
120982,note_off,0,0,0,,7,,,79,127
120983,note_on,1,0,0,,5,,,77,127
120983,note_on,0,0,0,,2,,,74,127
121166,note_off,183,0,0,,2,,,74,127
121166,note_off,0,0,0,,5,,,77,127
121167,note_on,1,0,0,,10,,,45,127
121167,note_on,0,0,0,,1,,,73,127
121167,note_on,0,0,0,,4,,,76,127
121350,note_off,183,0,0,,4,,,76,127
121350,note_off,0,0,0,,1,,,73,127
121350,note_off,0,0,0,,10,,,45,127
121350,note_off,0,0,0,,10,,,57,127
121351,note_on,1,0,0,,2,,,50,127
121351,note_on,0,0,0,,2,,,74,127
121524,note_off,173,0,0,,2,,,74,127
121536,note_on,12,0,0,,10,,,69,127
121536,note_on,0,0,0,,5,,,65,127
121719,note_off,183,0,0,,5,,,65,127
121719,note_off,0,0,0,,10,,,69,127
121719,note_off,0,0,0,,2,,,50,127
121720,note_on,1,0,0,,7,,,55,127
121720,note_on,0,0,0,,7,,,67,127
121720,note_on,0,0,0,,4,,,64,127
121903,note_off,183,0,0,,7,,,55,127
121904,note_on,1,0,0,,10,,,57,127
122087,note_off,183,0,0,,4,,,64,127
122087,note_off,0,0,0,,7,,,67,127
122088,note_on,1,0,0,,5,,,65,127
122088,note_on,0,0,0,,2,,,62,127
122271,note_off,183,0,0,,2,,,62,127
122271,note_off,0,0,0,,5,,,65,127
122271,note_off,0,0,0,,10,,,57,127
122272,note_on,1,0,0,,10,,,45,127
122272,note_on,0,0,0,,4,,,64,127
122272,note_on,0,0,0,,1,,,61,127
122455,note_off,183,0,0,,1,,,61,127
122455,note_off,0,0,0,,4,,,64,127
122455,note_off,0,0,0,,10,,,45,127
122456,note_on,1,0,0,,2,,,38,127
122456,note_on,0,0,0,,2,,,62,127
122629,note_off,173,0,0,,2,,,62,127
122641,note_on,12,0,0,,5,,,53,127
122641,note_on,0,0,0,,10,,,57,127
122824,note_off,183,0,0,,10,,,57,127
122824,note_off,0,0,0,,5,,,53,127
122824,note_off,0,0,0,,2,,,38,127
122825,note_on,1,0,0,,7,,,43,127
122825,note_on,0,0,0,,7,,,55,127
122825,note_on,0,0,0,,4,,,52,127
122999,note_off,174,0,0,,7,,,43,127
123010,note_on,11,0,0,,10,,,45,127
123193,note_off,183,0,0,,4,,,52,127
123193,note_off,0,0,0,,7,,,55,127
123194,note_on,1,0,0,,5,,,53,127
123194,note_on,0,0,0,,2,,,50,127
123370,note_off,176,0,0,,10,,,45,127
123378,note_off,8,0,0,,2,,,50,127
123378,note_off,0,0,0,,5,,,53,127
123379,note_on,1,0,0,,10,,,45,127
123379,note_on,0,0,0,,1,,,49,127
123379,note_on,0,0,0,,4,,,52,127
123562,note_off,183,0,0,,10,,,45,127
123568,note_off,6,0,0,,4,,,52,127
123568,note_off,0,0,0,,1,,,49,127
123596,note_on,28,0,0,,2,,,38,127
123596,note_on,0,0,0,,2,,,50,127
125708,note_off,2112,0,0,,2,,,50,127
125708,note_off,0,0,0,,2,,,38,127
130560,end_of_track,4852,1,0,,,,,,
