tick,type,time,meta,track,program,channel,pitch,tempo,note,velocity
0,copyright,0,1,0,,,,,,
0,program_change,0,0,0,6,0,,,,
0,pitchwheel,0,0,0,,0,0,,,
0,program_change,0,0,0,6,1,,,,
0,pitchwheel,0,0,0,,1,-590,,,
0,program_change,0,0,0,6,2,,,,
0,pitchwheel,0,0,0,,2,-272,,,
0,program_change,0,0,0,6,3,,,,
0,pitchwheel,0,0,0,,3,-353,,,
0,program_change,0,0,0,6,4,,,,
0,pitchwheel,0,0,0,,4,-560,,,
0,program_change,0,0,0,6,5,,,,
0,pitchwheel,0,0,0,,5,-80,,,
0,program_change,0,0,0,6,6,,,,
0,pitchwheel,0,0,0,,6,-625,,,
0,program_change,0,0,0,6,7,,,,
0,pitchwheel,0,0,0,,7,-130,,,
0,program_change,0,0,0,6,8,,,,
0,pitchwheel,0,0,0,,8,-512,,,
0,program_change,0,0,0,6,10,,,,
0,pitchwheel,0,0,0,,10,-464,,,
0,program_change,0,0,0,6,11,,,,
0,pitchwheel,0,0,0,,11,-208,,,
0,program_change,0,0,0,6,12,,,,
0,pitchwheel,0,0,0,,12,-553,,,
0,set_tempo,0,1,0,,,,500000,,
82,note_on,82,0,0,,7,,,43,127
82,note_on,0,0,0,,7,,,55,127
82,note_on,0,0,0,,2,,,50,127
82,note_on,0,0,0,,11,,,46,127
82,note_on,0,0,0,,11,,,70,127
82,note_on,0,0,0,,7,,,67,127
82,note_on,0,0,0,,7,,,79,127
82,note_on,0,0,0,,2,,,74,127
244,note_off,162,0,0,,2,,,74,127
244,note_off,0,0,0,,7,,,79,127
247,note_on,3,0,0,,2,,,74,127
408,note_off,161,0,0,,11,,,70,127
409,note_off,1,0,0,,2,,,74,127
412,note_on,3,0,0,,11,,,70,127
571,note_off,159,0,0,,7,,,67,127
574,note_off,3,0,0,,11,,,70,127
577,note_on,3,0,0,,7,,,67,127
739,note_off,162,0,0,,7,,,67,127
742,note_on,3,0,0,,2,,,62,127
904,note_off,162,0,0,,2,,,62,127
907,note_on,3,0,0,,11,,,58,127
1069,note_off,162,0,0,,11,,,58,127
1069,note_off,0,0,0,,11,,,46,127
1069,note_off,0,0,0,,2,,,50,127
1069,note_off,0,0,0,,7,,,55,127
1069,note_off,0,0,0,,7,,,43,127
1072,note_on,3,0,0,,7,,,55,127
1483,note_off,411,0,0,,7,,,55,127
1565,note_on,82,0,0,,7,,,79,127
1727,note_off,162,0,0,,7,,,79,127
1730,note_on,3,0,0,,10,,,81,127
1892,note_off,162,0,0,,10,,,81,127
1895,note_on,3,0,0,,11,,,82,127
2057,note_off,162,0,0,,11,,,82,127
2060,note_on,3,0,0,,0,,,72,127
2222,note_off,162,0,0,,0,,,72,127
2225,note_on,3,0,0,,11,,,70,127
2387,note_off,162,0,0,,11,,,70,127
2390,note_on,3,0,0,,10,,,69,127
2552,note_off,162,0,0,,10,,,69,127
2555,note_on,3,0,0,,6,,,78,127
2717,note_off,162,0,0,,6,,,78,127
2720,note_on,3,0,0,,7,,,79,127
2882,note_off,162,0,0,,7,,,79,127
2885,note_on,3,0,0,,10,,,81,127
3047,note_off,162,0,0,,10,,,81,127
3050,note_on,3,0,0,,7,,,55,127
3050,note_on,0,0,0,,11,,,70,127
3215,note_on,165,0,0,,7,,,67,127
3377,note_off,162,0,0,,7,,,67,127
3379,note_off,2,0,0,,7,,,55,127
3380,note_on,1,0,0,,5,,,65,127
3542,note_off,162,0,0,,5,,,65,127
3545,note_on,3,0,0,,3,,,63,127
3707,note_off,162,0,0,,3,,,63,127
3710,note_on,3,0,0,,2,,,62,127
3872,note_off,162,0,0,,2,,,62,127
3872,note_off,0,0,0,,11,,,70,127
3875,note_on,3,0,0,,0,,,60,127
3875,note_on,0,0,0,,7,,,79,127
4037,note_off,162,0,0,,7,,,79,127
4037,note_off,0,0,0,,0,,,60,127
4040,note_on,3,0,0,,2,,,62,127
4040,note_on,0,0,0,,6,,,78,127
4040,note_on,0,0,0,,7,,,79,127
4120,note_off,80,0,0,,7,,,79,127
4120,note_off,0,0,0,,6,,,78,127
4123,note_on,3,0,0,,4,,,76,127
4203,note_off,80,0,0,,4,,,76,127
4206,note_on,3,0,0,,2,,,74,127
4368,note_off,162,0,0,,2,,,74,127
4368,note_off,0,0,0,,2,,,62,127
4371,note_on,3,0,0,,6,,,66,127
4371,note_on,0,0,0,,0,,,72,127
4533,note_off,162,0,0,,0,,,72,127
4533,note_off,0,0,0,,6,,,66,127
4536,note_on,3,0,0,,7,,,67,127
4536,note_on,0,0,0,,2,,,74,127
4536,note_on,0,0,0,,0,,,72,127
4616,note_off,80,0,0,,0,,,72,127
4616,note_off,0,0,0,,2,,,74,127
4619,note_on,3,0,0,,11,,,70,127
4699,note_off,80,0,0,,11,,,70,127
4702,note_on,3,0,0,,10,,,69,127
4864,note_off,162,0,0,,10,,,69,127
4864,note_off,0,0,0,,7,,,67,127
4867,note_on,3,0,0,,0,,,60,127
4867,note_on,0,0,0,,7,,,67,127
5029,note_off,162,0,0,,7,,,67,127
5029,note_off,0,0,0,,0,,,60,127
5032,note_on,3,0,0,,2,,,62,127
5032,note_on,0,0,0,,7,,,67,127
5032,note_on,0,0,0,,6,,,66,127
5112,note_off,80,0,0,,6,,,66,127
5112,note_off,0,0,0,,7,,,67,127
5115,note_on,3,0,0,,4,,,64,127
5195,note_off,80,0,0,,4,,,64,127
5195,note_off,0,0,0,,2,,,62,127
5198,note_on,3,0,0,,2,,,62,127
5360,note_off,162,0,0,,2,,,62,127
5363,note_on,3,0,0,,6,,,54,127
5363,note_on,0,0,0,,0,,,60,127
5525,note_off,162,0,0,,0,,,60,127
5525,note_off,0,0,0,,6,,,54,127
5528,note_on,3,0,0,,7,,,55,127
5528,note_on,0,0,0,,0,,,60,127
5528,note_on,0,0,0,,2,,,62,127
5608,note_off,80,0,0,,2,,,62,127
5608,note_off,0,0,0,,0,,,60,127
5611,note_on,3,0,0,,11,,,58,127
5691,note_off,80,0,0,,11,,,58,127
5691,note_off,0,0,0,,7,,,55,127
5694,note_on,3,0,0,,10,,,57,127
5856,note_off,162,0,0,,10,,,57,127
5859,note_on,3,0,0,,0,,,48,127
5859,note_on,0,0,0,,7,,,55,127
6021,note_off,162,0,0,,7,,,55,127
6021,note_off,0,0,0,,0,,,48,127
6024,note_on,3,0,0,,2,,,38,127
6024,note_on,0,0,0,,7,,,55,127
6024,note_on,0,0,0,,6,,,54,127
6104,note_off,80,0,0,,6,,,54,127
6104,note_off,0,0,0,,7,,,55,127
6107,note_on,3,0,0,,4,,,52,127
6187,note_off,80,0,0,,4,,,52,127
6190,note_on,3,0,0,,2,,,50,127
6681,note_off,491,0,0,,2,,,50,127
6848,note_on,167,0,0,,10,,,57,127
7010,note_off,162,0,0,,10,,,57,127
7013,note_on,3,0,0,,0,,,60,127
7175,note_off,162,0,0,,0,,,60,127
7178,note_on,3,0,0,,3,,,63,127
7340,note_off,162,0,0,,3,,,63,127
7343,note_on,3,0,0,,6,,,66,127
7505,note_off,162,0,0,,6,,,66,127
7508,note_on,3,0,0,,10,,,69,127
7670,note_off,162,0,0,,10,,,69,127
7673,note_on,3,0,0,,0,,,72,127
7835,note_off,162,0,0,,0,,,72,127
7838,note_on,3,0,0,,3,,,75,127
8000,note_off,162,0,0,,3,,,75,127
8003,note_off,3,0,0,,2,,,38,127
8003,note_on,0,0,0,,6,,,78,127
8165,note_off,162,0,0,,6,,,78,127
8168,note_on,3,0,0,,10,,,81,127
8248,note_off,80,0,0,,10,,,81,127
8251,note_on,3,0,0,,11,,,82,127
8331,note_off,80,0,0,,11,,,82,127
8334,note_on,3,0,0,,0,,,84,127
8334,note_on,0,0,0,,10,,,69,127
8496,note_off,162,0,0,,10,,,69,127
8499,note_on,3,0,0,,6,,,66,127
8661,note_off,162,0,0,,6,,,66,127
8661,note_off,0,0,0,,0,,,84,127
8664,note_on,3,0,0,,11,,,82,127
8664,note_on,0,0,0,,0,,,84,127
8664,note_on,0,0,0,,7,,,67,127
8826,note_off,162,0,0,,0,,,84,127
8826,note_off,0,0,0,,11,,,82,127
8829,note_on,3,0,0,,10,,,81,127
8991,note_off,162,0,0,,10,,,81,127
8991,note_off,0,0,0,,7,,,67,127
8994,note_on,3,0,0,,11,,,82,127
8994,note_on,0,0,0,,5,,,65,127
9156,note_off,162,0,0,,5,,,65,127
9156,note_off,0,0,0,,11,,,82,127
9159,note_on,3,0,0,,7,,,79,127
9159,note_on,0,0,0,,10,,,81,127
9159,note_on,0,0,0,,3,,,63,127
9321,note_off,162,0,0,,10,,,81,127
9321,note_off,0,0,0,,7,,,79,127
9324,note_on,3,0,0,,6,,,78,127
9486,note_off,162,0,0,,6,,,78,127
9486,note_off,0,0,0,,3,,,63,127
9489,note_on,3,0,0,,7,,,79,127
9489,note_on,0,0,0,,2,,,62,127
9651,note_off,162,0,0,,2,,,62,127
9651,note_off,0,0,0,,7,,,79,127
9654,note_on,3,0,0,,5,,,77,127
9654,note_on,0,0,0,,3,,,75,127
9654,note_on,0,0,0,,0,,,60,127
9816,note_off,162,0,0,,3,,,75,127
9816,note_off,0,0,0,,5,,,77,127
9819,note_on,3,0,0,,2,,,74,127
9981,note_off,162,0,0,,2,,,74,127
9981,note_off,0,0,0,,0,,,60,127
9984,note_on,3,0,0,,3,,,75,127
9984,note_on,0,0,0,,11,,,58,127
10146,note_off,162,0,0,,11,,,58,127
10146,note_off,0,0,0,,3,,,75,127
10149,note_on,3,0,0,,2,,,74,127
10149,note_on,0,0,0,,0,,,72,127
10149,note_on,0,0,0,,10,,,57,127
10311,note_off,162,0,0,,0,,,72,127
10311,note_off,0,0,0,,2,,,74,127
10314,note_on,3,0,0,,11,,,70,127
10476,note_off,162,0,0,,11,,,70,127
10476,note_off,0,0,0,,10,,,57,127
10479,note_on,3,0,0,,0,,,72,127
10479,note_on,0,0,0,,7,,,55,127
10641,note_off,162,0,0,,7,,,55,127
10641,note_off,0,0,0,,0,,,72,127
10644,note_on,3,0,0,,10,,,69,127
10644,note_on,0,0,0,,11,,,70,127
10644,note_on,0,0,0,,5,,,53,127
10806,note_off,162,0,0,,11,,,70,127
10806,note_off,0,0,0,,10,,,69,127
10809,note_on,3,0,0,,7,,,67,127
10971,note_off,162,0,0,,7,,,67,127
10971,note_off,0,0,0,,5,,,53,127
10974,note_on,3,0,0,,10,,,69,127
10974,note_on,0,0,0,,3,,,63,127
11136,note_off,162,0,0,,3,,,63,127
11136,note_off,0,0,0,,10,,,69,127
11139,note_on,3,0,0,,5,,,65,127
11139,note_on,0,0,0,,2,,,62,127
11301,note_off,162,0,0,,2,,,62,127
11304,note_on,3,0,0,,0,,,60,127
11466,note_off,162,0,0,,0,,,60,127
11466,note_off,0,0,0,,5,,,65,127
11469,note_on,3,0,0,,5,,,77,127
11469,note_on,0,0,0,,11,,,58,127
11631,note_off,162,0,0,,11,,,58,127
11631,note_off,0,0,0,,5,,,77,127
11634,note_on,3,0,0,,5,,,77,127
11634,note_on,0,0,0,,3,,,75,127
11634,note_on,0,0,0,,0,,,60,127
11796,note_off,162,0,0,,0,,,60,127
11796,note_off,0,0,0,,3,,,75,127
11796,note_off,0,0,0,,5,,,77,127
11799,note_on,3,0,0,,2,,,74,127
11799,note_on,0,0,0,,10,,,57,127
11961,note_off,162,0,0,,10,,,57,127
11961,note_off,0,0,0,,2,,,74,127
11964,note_on,3,0,0,,3,,,75,127
11964,note_on,0,0,0,,5,,,53,127
12126,note_off,162,0,0,,5,,,53,127
12126,note_off,0,0,0,,3,,,75,127
12129,note_on,3,0,0,,2,,,74,127
12129,note_on,0,0,0,,11,,,58,127
12291,note_off,162,0,0,,2,,,74,127
12294,note_on,3,0,0,,11,,,82,127
12456,note_off,162,0,0,,11,,,82,127
12456,note_off,0,0,0,,11,,,58,127
12459,note_on,3,0,0,,2,,,74,127
12459,note_on,0,0,0,,11,,,70,127
12621,note_off,162,0,0,,11,,,70,127
12621,note_off,0,0,0,,2,,,74,127
12624,note_on,3,0,0,,3,,,75,127
12624,note_on,0,0,0,,5,,,77,127
12624,note_on,0,0,0,,0,,,72,127
12786,note_off,162,0,0,,0,,,72,127
12786,note_off,0,0,0,,5,,,77,127
12786,note_off,0,0,0,,3,,,75,127
12789,note_on,3,0,0,,2,,,74,127
12789,note_on,0,0,0,,10,,,69,127
12951,note_off,162,0,0,,10,,,69,127
12951,note_off,0,0,0,,2,,,74,127
12954,note_on,3,0,0,,3,,,75,127
12954,note_on,0,0,0,,5,,,65,127
13116,note_off,162,0,0,,5,,,65,127
13116,note_off,0,0,0,,3,,,75,127
13119,note_on,3,0,0,,2,,,74,127
13119,note_on,0,0,0,,11,,,70,127
13281,note_off,162,0,0,,2,,,74,127
13284,note_on,3,0,0,,2,,,86,127
13446,note_off,162,0,0,,2,,,86,127
13446,note_off,0,0,0,,11,,,70,127
13449,note_on,3,0,0,,2,,,74,127
13449,note_on,0,0,0,,11,,,58,127
13611,note_off,162,0,0,,11,,,58,127
13611,note_off,0,0,0,,2,,,74,127
13614,note_on,3,0,0,,3,,,75,127
13614,note_on,0,0,0,,5,,,77,127
13614,note_on,0,0,0,,0,,,60,127
13776,note_off,162,0,0,,0,,,60,127
13776,note_off,0,0,0,,5,,,77,127
13776,note_off,0,0,0,,3,,,75,127
13779,note_on,3,0,0,,2,,,74,127
13779,note_on,0,0,0,,10,,,57,127
13941,note_off,162,0,0,,10,,,57,127
13941,note_off,0,0,0,,2,,,74,127
13944,note_on,3,0,0,,3,,,75,127
13944,note_on,0,0,0,,5,,,53,127
14106,note_off,162,0,0,,5,,,53,127
14106,note_off,0,0,0,,3,,,75,127
14109,note_on,3,0,0,,2,,,74,127
14109,note_on,0,0,0,,11,,,58,127
14271,note_off,162,0,0,,2,,,74,127
14274,note_on,3,0,0,,11,,,82,127
14436,note_off,162,0,0,,11,,,82,127
14436,note_off,0,0,0,,11,,,58,127
14439,note_on,3,0,0,,2,,,74,127
14439,note_on,0,0,0,,11,,,70,127
14601,note_off,162,0,0,,11,,,70,127
14601,note_off,0,0,0,,2,,,74,127
14604,note_on,3,0,0,,5,,,77,127
14604,note_on,0,0,0,,3,,,75,127
14604,note_on,0,0,0,,0,,,72,127
14766,note_off,162,0,0,,0,,,72,127
14766,note_off,0,0,0,,3,,,75,127
14766,note_off,0,0,0,,5,,,77,127
14769,note_on,3,0,0,,2,,,74,127
14769,note_on,0,0,0,,10,,,69,127
14931,note_off,162,0,0,,10,,,69,127
14931,note_off,0,0,0,,2,,,74,127
14934,note_on,3,0,0,,3,,,75,127
14934,note_on,0,0,0,,5,,,65,127
15096,note_off,162,0,0,,5,,,65,127
15096,note_off,0,0,0,,3,,,75,127
15099,note_on,3,0,0,,2,,,74,127
15099,note_on,0,0,0,,11,,,70,127
15261,note_off,162,0,0,,2,,,74,127
15264,note_on,3,0,0,,2,,,86,127
15426,note_off,162,0,0,,2,,,86,127
15426,note_off,0,0,0,,11,,,70,127
15429,note_on,3,0,0,,2,,,74,127
15429,note_on,0,0,0,,11,,,58,127
15591,note_off,162,0,0,,11,,,58,127
15591,note_off,0,0,0,,2,,,74,127
15594,note_on,3,0,0,,5,,,77,127
15594,note_on,0,0,0,,3,,,75,127
15594,note_on,0,0,0,,0,,,60,127
15756,note_off,162,0,0,,0,,,60,127
15756,note_off,0,0,0,,3,,,75,127
15756,note_off,0,0,0,,5,,,77,127
15759,note_on,3,0,0,,2,,,74,127
15759,note_on,0,0,0,,10,,,57,127
15921,note_off,162,0,0,,10,,,57,127
15921,note_off,0,0,0,,2,,,74,127
15924,note_on,3,0,0,,3,,,75,127
15924,note_on,0,0,0,,5,,,53,127
16086,note_off,162,0,0,,5,,,53,127
16086,note_off,0,0,0,,3,,,75,127
16089,note_on,3,0,0,,2,,,74,127
16089,note_on,0,0,0,,3,,,75,127
16089,note_on,0,0,0,,11,,,34,127
16251,note_off,162,0,0,,3,,,75,127
16251,note_off,0,0,0,,2,,,74,127
16254,note_on,3,0,0,,0,,,72,127
16416,note_off,162,0,0,,0,,,72,127
16419,note_on,3,0,0,,11,,,70,127
16746,note_off,327,0,0,,11,,,70,127
16913,note_off,167,0,0,,11,,,34,127
16913,note_on,0,0,0,,11,,,82,127
17075,note_off,162,0,0,,11,,,82,127
17078,note_on,3,0,0,,8,,,80,127
17240,note_off,162,0,0,,8,,,80,127
17243,note_on,3,0,0,,8,,,80,127
17243,note_on,0,0,0,,11,,,82,127
17405,note_off,162,0,0,,11,,,82,127
17405,note_off,0,0,0,,8,,,80,127
17408,note_on,3,0,0,,7,,,79,127
17570,note_off,162,0,0,,7,,,79,127
17573,note_on,3,0,0,,0,,,72,127
17573,note_on,0,0,0,,3,,,75,127
17573,note_on,0,0,0,,8,,,80,127
17735,note_off,162,0,0,,8,,,80,127
17735,note_off,0,0,0,,3,,,75,127
17735,note_off,0,0,0,,0,,,72,127
17738,note_on,3,0,0,,12,,,71,127
17738,note_on,0,0,0,,2,,,74,127
17738,note_on,0,0,0,,11,,,82,127
17738,note_on,0,0,0,,8,,,80,127
17900,note_off,162,0,0,,8,,,80,127
17900,note_off,0,0,0,,11,,,82,127
17903,note_on,3,0,0,,7,,,79,127
18065,note_off,162,0,0,,7,,,79,127
18065,note_off,0,0,0,,2,,,74,127
18065,note_off,0,0,0,,12,,,71,127
18068,note_on,3,0,0,,0,,,72,127
18068,note_on,0,0,0,,3,,,75,127
18068,note_on,0,0,0,,8,,,80,127
18230,note_off,162,0,0,,8,,,80,127
18230,note_off,0,0,0,,3,,,75,127
18230,note_off,0,0,0,,0,,,72,127
18233,note_on,3,0,0,,2,,,74,127
18233,note_on,0,0,0,,12,,,71,127
18233,note_on,0,0,0,,11,,,82,127
18233,note_on,0,0,0,,8,,,80,127
18395,note_off,162,0,0,,8,,,80,127
18395,note_off,0,0,0,,11,,,82,127
18398,note_on,3,0,0,,7,,,79,127
18560,note_off,162,0,0,,7,,,79,127
18560,note_off,0,0,0,,12,,,71,127
18560,note_off,0,0,0,,2,,,74,127
18563,note_on,3,0,0,,3,,,75,127
18563,note_on,0,0,0,,0,,,72,127
18563,note_on,0,0,0,,8,,,80,127
18725,note_off,162,0,0,,8,,,80,127
18725,note_off,0,0,0,,0,,,72,127
18725,note_off,0,0,0,,3,,,75,127
18728,note_on,3,0,0,,12,,,71,127
18728,note_on,0,0,0,,2,,,74,127
18728,note_on,0,0,0,,11,,,82,127
18728,note_on,0,0,0,,8,,,80,127
18890,note_off,162,0,0,,8,,,80,127
18890,note_off,0,0,0,,11,,,82,127
18893,note_on,3,0,0,,7,,,79,127
19055,note_off,162,0,0,,7,,,79,127
19055,note_off,0,0,0,,2,,,74,127
19055,note_off,0,0,0,,12,,,71,127
19058,note_on,3,0,0,,7,,,67,127
19058,note_on,0,0,0,,5,,,77,127
19220,note_off,162,0,0,,5,,,77,127
19220,note_off,0,0,0,,7,,,67,127
19223,note_on,3,0,0,,0,,,48,127
19223,note_on,0,0,0,,3,,,75,127
19223,note_on,0,0,0,,5,,,77,127
19385,note_off,162,0,0,,5,,,77,127
19385,note_off,0,0,0,,3,,,75,127
19388,note_on,3,0,0,,2,,,74,127
19550,note_off,162,0,0,,2,,,74,127
19553,note_on,3,0,0,,0,,,72,127
19880,note_off,327,0,0,,0,,,72,127
19883,note_on,3,0,0,,0,,,84,127
20045,note_off,162,0,0,,0,,,84,127
20048,note_off,3,0,0,,0,,,48,127
20048,note_on,0,0,0,,11,,,82,127
20210,note_off,162,0,0,,11,,,82,127
20213,note_on,3,0,0,,0,,,84,127
20213,note_on,0,0,0,,11,,,82,127
20375,note_off,162,0,0,,11,,,82,127
20375,note_off,0,0,0,,0,,,84,127
20378,note_on,3,0,0,,10,,,81,127
20540,note_off,162,0,0,,10,,,81,127
20543,note_on,3,0,0,,5,,,77,127
20543,note_on,0,0,0,,2,,,74,127
20543,note_on,0,0,0,,11,,,82,127
20705,note_off,162,0,0,,11,,,82,127
20705,note_off,0,0,0,,2,,,74,127
20705,note_off,0,0,0,,5,,,77,127
20708,note_on,3,0,0,,1,,,73,127
20708,note_on,0,0,0,,4,,,76,127
20708,note_on,0,0,0,,11,,,82,127
20708,note_on,0,0,0,,0,,,84,127
20870,note_off,162,0,0,,0,,,84,127
20870,note_off,0,0,0,,11,,,82,127
20873,note_on,3,0,0,,10,,,81,127
21035,note_off,162,0,0,,10,,,81,127
21035,note_off,0,0,0,,4,,,76,127
21035,note_off,0,0,0,,1,,,73,127
21038,note_on,3,0,0,,5,,,77,127
21038,note_on,0,0,0,,2,,,74,127
21038,note_on,0,0,0,,11,,,82,127
21200,note_off,162,0,0,,11,,,82,127
21200,note_off,0,0,0,,2,,,74,127
21200,note_off,0,0,0,,5,,,77,127
21203,note_on,3,0,0,,1,,,73,127
21203,note_on,0,0,0,,4,,,76,127
21203,note_on,0,0,0,,11,,,82,127
21203,note_on,0,0,0,,0,,,84,127
21365,note_off,162,0,0,,0,,,84,127
21365,note_off,0,0,0,,11,,,82,127
21368,note_on,3,0,0,,10,,,81,127
21530,note_off,162,0,0,,10,,,81,127
21530,note_off,0,0,0,,4,,,76,127
21530,note_off,0,0,0,,1,,,73,127
21533,note_on,3,0,0,,5,,,77,127
21533,note_on,0,0,0,,2,,,74,127
21533,note_on,0,0,0,,11,,,82,127
21695,note_off,162,0,0,,11,,,82,127
21695,note_off,0,0,0,,2,,,74,127
21695,note_off,0,0,0,,5,,,77,127
21698,note_on,3,0,0,,4,,,76,127
21698,note_on,0,0,0,,1,,,73,127
21698,note_on,0,0,0,,11,,,82,127
21698,note_on,0,0,0,,0,,,84,127
21860,note_off,162,0,0,,0,,,84,127
21860,note_off,0,0,0,,11,,,82,127
21863,note_on,3,0,0,,10,,,81,127
22025,note_off,162,0,0,,10,,,81,127
22025,note_off,0,0,0,,1,,,73,127
22025,note_off,0,0,0,,4,,,76,127
22028,note_on,3,0,0,,10,,,69,127
22028,note_on,0,0,0,,7,,,79,127
22190,note_off,162,0,0,,7,,,79,127
22190,note_off,0,0,0,,10,,,69,127
22193,note_on,3,0,0,,2,,,62,127
22193,note_on,0,0,0,,5,,,77,127
22355,note_off,162,0,0,,5,,,77,127
22355,note_off,0,0,0,,2,,,62,127
22358,note_on,3,0,0,,4,,,64,127
22358,note_on,0,0,0,,7,,,79,127
22520,note_off,162,0,0,,7,,,79,127
22520,note_off,0,0,0,,4,,,64,127
22523,note_on,3,0,0,,5,,,65,127
22523,note_on,0,0,0,,10,,,81,127
22685,note_off,162,0,0,,10,,,81,127
22685,note_off,0,0,0,,5,,,65,127
22688,note_on,3,0,0,,7,,,67,127
22688,note_on,0,0,0,,11,,,82,127
22850,note_off,162,0,0,,11,,,82,127
22850,note_off,0,0,0,,7,,,67,127
22853,note_on,3,0,0,,10,,,69,127
22853,note_on,0,0,0,,7,,,79,127
23015,note_off,162,0,0,,7,,,79,127
23015,note_off,0,0,0,,10,,,69,127
23018,note_on,3,0,0,,11,,,70,127
23018,note_on,0,0,0,,4,,,76,127
23180,note_off,162,0,0,,4,,,76,127
23180,note_off,0,0,0,,11,,,70,127
23183,note_on,3,0,0,,10,,,57,127
23183,note_on,0,0,0,,1,,,73,127
23345,note_off,162,0,0,,10,,,57,127
23348,note_on,3,0,0,,10,,,69,127
23510,note_off,162,0,0,,10,,,69,127
23512,note_off,2,0,0,,1,,,73,127
23513,note_on,1,0,0,,7,,,67,127
23675,note_off,162,0,0,,7,,,67,127
23678,note_on,3,0,0,,5,,,65,127
23758,note_off,80,0,0,,5,,,65,127
23761,note_on,3,0,0,,4,,,64,127
23841,note_off,80,0,0,,4,,,64,127
23844,note_on,3,0,0,,2,,,62,127
24006,note_off,162,0,0,,2,,,62,127
24009,note_on,3,0,0,,2,,,62,127
24009,note_on,0,0,0,,5,,,53,127
24009,note_on,0,0,0,,10,,,81,127
24171,note_off,162,0,0,,10,,,81,127
24171,note_off,0,0,0,,5,,,53,127
24171,note_off,0,0,0,,2,,,62,127
24174,note_on,3,0,0,,7,,,55,127
24174,note_on,0,0,0,,4,,,64,127
24174,note_on,0,0,0,,10,,,81,127
24174,note_on,0,0,0,,7,,,79,127
24254,note_off,80,0,0,,7,,,79,127
24254,note_off,0,0,0,,10,,,81,127
24257,note_on,3,0,0,,5,,,77,127
24337,note_off,80,0,0,,5,,,77,127
24340,note_on,3,0,0,,4,,,76,127
24502,note_off,162,0,0,,4,,,64,127
24502,note_off,0,0,0,,7,,,55,127
24505,note_on,3,0,0,,5,,,65,127
24505,note_on,0,0,0,,10,,,57,127
24667,note_off,162,0,0,,10,,,57,127
24667,note_off,0,0,0,,5,,,65,127
24670,note_on,3,0,0,,11,,,58,127
24835,note_on,165,0,0,,7,,,67,127
24997,note_off,162,0,0,,7,,,67,127
24997,note_off,0,0,0,,4,,,76,127
24999,note_off,2,0,0,,11,,,58,127
25000,note_on,1,0,0,,10,,,57,127
25000,note_on,0,0,0,,5,,,65,127
25000,note_on,0,0,0,,10,,,81,127
25162,note_off,162,0,0,,10,,,81,127
25162,note_off,0,0,0,,5,,,65,127
25162,note_off,0,0,0,,10,,,57,127
25165,note_on,3,0,0,,7,,,55,127
25165,note_on,0,0,0,,10,,,81,127
25165,note_on,0,0,0,,7,,,79,127
25245,note_off,80,0,0,,7,,,79,127
25245,note_off,0,0,0,,10,,,81,127
25248,note_on,3,0,0,,5,,,77,127
25328,note_off,80,0,0,,5,,,77,127
25331,note_on,3,0,0,,4,,,64,127
25331,note_on,0,0,0,,4,,,76,127
25493,note_off,162,0,0,,4,,,64,127
25495,note_off,2,0,0,,7,,,55,127
25496,note_on,1,0,0,,10,,,57,127
25496,note_on,0,0,0,,5,,,65,127
25658,note_off,162,0,0,,5,,,65,127
25658,note_off,0,0,0,,10,,,57,127
25661,note_on,3,0,0,,11,,,58,127
25826,note_on,165,0,0,,7,,,67,127
25988,note_off,162,0,0,,7,,,67,127
25988,note_off,0,0,0,,4,,,76,127
25990,note_off,2,0,0,,11,,,58,127
25991,note_on,1,0,0,,10,,,57,127
25991,note_on,0,0,0,,5,,,65,127
25991,note_on,0,0,0,,10,,,81,127
26153,note_off,162,0,0,,10,,,81,127
26153,note_off,0,0,0,,5,,,65,127
26153,note_off,0,0,0,,10,,,57,127
26156,note_on,3,0,0,,7,,,55,127
26156,note_on,0,0,0,,10,,,81,127
26156,note_on,0,0,0,,7,,,79,127
26236,note_off,80,0,0,,7,,,79,127
26236,note_off,0,0,0,,10,,,81,127
26239,note_on,3,0,0,,5,,,77,127
26319,note_off,80,0,0,,5,,,77,127
26322,note_on,3,0,0,,4,,,64,127
26322,note_on,0,0,0,,4,,,76,127
26484,note_off,162,0,0,,4,,,76,127
26484,note_off,0,0,0,,4,,,64,127
26486,note_off,2,0,0,,7,,,55,127
26487,note_on,1,0,0,,10,,,57,127
26487,note_on,0,0,0,,5,,,65,127
26487,note_on,0,0,0,,5,,,77,127
26649,note_off,162,0,0,,5,,,77,127
26649,note_off,0,0,0,,5,,,65,127
26649,note_off,0,0,0,,10,,,57,127
26652,note_on,3,0,0,,11,,,58,127
26652,note_on,0,0,0,,7,,,67,127
26652,note_on,0,0,0,,5,,,77,127
26652,note_on,0,0,0,,4,,,76,127
26732,note_off,80,0,0,,4,,,76,127
26732,note_off,0,0,0,,5,,,77,127
26735,note_on,3,0,0,,2,,,74,127
26815,note_off,80,0,0,,2,,,74,127
26818,note_on,3,0,0,,1,,,73,127
26980,note_off,162,0,0,,1,,,73,127
26980,note_off,0,0,0,,7,,,67,127
26983,note_on,3,0,0,,7,,,67,127
26983,note_on,0,0,0,,2,,,74,127
27145,note_off,162,0,0,,2,,,74,127
27145,note_off,0,0,0,,7,,,67,127
27147,note_off,2,0,0,,11,,,58,127
27148,note_on,1,0,0,,7,,,67,127
27148,note_on,0,0,0,,10,,,57,127
27148,note_on,0,0,0,,2,,,74,127
27148,note_on,0,0,0,,1,,,73,127
27228,note_off,80,0,0,,1,,,73,127
27228,note_off,0,0,0,,2,,,74,127
27231,note_on,3,0,0,,12,,,71,127
27311,note_off,80,0,0,,12,,,71,127
27311,note_off,0,0,0,,7,,,67,127
27314,note_on,3,0,0,,5,,,65,127
27314,note_on,0,0,0,,10,,,69,127
27476,note_off,162,0,0,,10,,,69,127
27476,note_off,0,0,0,,5,,,65,127
27478,note_off,2,0,0,,10,,,57,127
27479,note_on,1,0,0,,4,,,64,127
27479,note_on,0,0,0,,7,,,55,127
27479,note_on,0,0,0,,11,,,70,127
27641,note_off,162,0,0,,11,,,70,127
27641,note_off,0,0,0,,7,,,55,127
27641,note_off,0,0,0,,4,,,64,127
27644,note_on,3,0,0,,5,,,53,127
27644,note_on,0,0,0,,2,,,62,127
27644,note_on,0,0,0,,11,,,70,127
27644,note_on,0,0,0,,10,,,69,127
27724,note_off,80,0,0,,10,,,69,127
27724,note_off,0,0,0,,11,,,70,127
27727,note_on,3,0,0,,7,,,67,127
27807,note_off,80,0,0,,7,,,67,127
27810,note_on,3,0,0,,5,,,65,127
27972,note_off,162,0,0,,5,,,65,127
27972,note_off,0,0,0,,2,,,62,127
27972,note_off,0,0,0,,5,,,53,127
27975,note_on,3,0,0,,4,,,52,127
27975,note_on,0,0,0,,1,,,61,127
27975,note_on,0,0,0,,7,,,67,127
28137,note_off,162,0,0,,7,,,67,127
28137,note_off,0,0,0,,1,,,61,127
28137,note_off,0,0,0,,4,,,52,127
28140,note_on,3,0,0,,2,,,50,127
28140,note_on,0,0,0,,2,,,62,127
28140,note_on,0,0,0,,5,,,65,127
28140,note_on,0,0,0,,7,,,67,127
28302,note_off,162,0,0,,7,,,67,127
28302,note_off,0,0,0,,5,,,65,127
28305,note_on,3,0,0,,4,,,64,127
28467,note_off,162,0,0,,4,,,64,127
28467,note_off,0,0,0,,2,,,62,127
28467,note_off,0,0,0,,2,,,50,127
28470,note_on,3,0,0,,11,,,58,127
28470,note_on,0,0,0,,5,,,65,127
28632,note_off,162,0,0,,5,,,65,127
28632,note_off,0,0,0,,11,,,58,127
28635,note_on,3,0,0,,7,,,55,127
28635,note_on,0,0,0,,4,,,64,127
28635,note_on,0,0,0,,7,,,67,127
28797,note_off,162,0,0,,7,,,67,127
28797,note_off,0,0,0,,4,,,64,127
28800,note_on,3,0,0,,2,,,62,127
28800,note_on,0,0,0,,5,,,65,127
28962,note_off,162,0,0,,5,,,65,127
28962,note_off,0,0,0,,2,,,62,127
28964,note_off,2,0,0,,7,,,55,127
28965,note_on,1,0,0,,1,,,61,127
28965,note_on,0,0,0,,10,,,57,127
28965,note_on,0,0,0,,4,,,64,127
29127,note_off,162,0,0,,4,,,64,127
29127,note_off,0,0,0,,10,,,57,127
29127,note_off,0,0,0,,1,,,61,127
29130,note_on,3,0,0,,2,,,50,127
29130,note_on,0,0,0,,2,,,62,127
29292,note_off,162,0,0,,2,,,62,127
29292,note_off,0,0,0,,2,,,50,127
29295,note_on,3,0,0,,2,,,62,127
29460,note_on,165,0,0,,4,,,64,127
29622,note_off,162,0,0,,4,,,64,127
29625,note_on,3,0,0,,5,,,65,127
29787,note_off,162,0,0,,5,,,65,127
29790,note_on,3,0,0,,4,,,64,127
29952,note_off,162,0,0,,4,,,64,127
29952,note_off,0,0,0,,2,,,62,127
29955,note_on,3,0,0,,2,,,62,127
29955,note_on,0,0,0,,10,,,81,127
30117,note_off,162,0,0,,10,,,81,127
30117,note_off,0,0,0,,2,,,62,127
30120,note_on,3,0,0,,7,,,55,127
30120,note_on,0,0,0,,7,,,79,127
30120,note_on,0,0,0,,10,,,81,127
30200,note_off,80,0,0,,10,,,81,127
30200,note_off,0,0,0,,7,,,79,127
30203,note_on,3,0,0,,5,,,77,127
30283,note_off,80,0,0,,5,,,77,127
30286,note_on,3,0,0,,4,,,64,127
30286,note_on,0,0,0,,4,,,76,127
30447,note_off,161,0,0,,7,,,55,127
30448,note_off,1,0,0,,4,,,76,127
30448,note_off,0,0,0,,4,,,64,127
30451,note_on,3,0,0,,5,,,65,127
30451,note_on,0,0,0,,5,,,77,127
30613,note_off,162,0,0,,5,,,77,127
30613,note_off,0,0,0,,5,,,65,127
30616,note_on,3,0,0,,11,,,58,127
30616,note_on,0,0,0,,7,,,67,127
30616,note_on,0,0,0,,5,,,77,127
30616,note_on,0,0,0,,4,,,76,127
30696,note_off,80,0,0,,4,,,76,127
30696,note_off,0,0,0,,5,,,77,127
30699,note_on,3,0,0,,2,,,74,127
30779,note_off,80,0,0,,2,,,74,127
30782,note_on,3,0,0,,1,,,73,127
30944,note_off,162,0,0,,1,,,73,127
30944,note_off,0,0,0,,7,,,67,127
30947,note_on,3,0,0,,7,,,67,127
30947,note_on,0,0,0,,2,,,74,127
31109,note_off,162,0,0,,2,,,74,127
31109,note_off,0,0,0,,7,,,67,127
31111,note_off,2,0,0,,11,,,58,127
31112,note_on,1,0,0,,10,,,57,127
31112,note_on,0,0,0,,7,,,67,127
31112,note_on,0,0,0,,2,,,74,127
31112,note_on,0,0,0,,1,,,73,127
31192,note_off,80,0,0,,1,,,73,127
31192,note_off,0,0,0,,2,,,74,127
31195,note_on,3,0,0,,12,,,71,127
31275,note_off,80,0,0,,12,,,71,127
31275,note_off,0,0,0,,7,,,67,127
31278,note_on,3,0,0,,5,,,65,127
31278,note_on,0,0,0,,10,,,69,127
31440,note_off,162,0,0,,10,,,69,127
31440,note_off,0,0,0,,5,,,65,127
31442,note_off,2,0,0,,10,,,57,127
31443,note_on,1,0,0,,7,,,55,127
31443,note_on,0,0,0,,4,,,64,127
31443,note_on,0,0,0,,11,,,70,127
31605,note_off,162,0,0,,11,,,70,127
31605,note_off,0,0,0,,4,,,64,127
31605,note_off,0,0,0,,7,,,55,127
31608,note_on,3,0,0,,2,,,62,127
31608,note_on,0,0,0,,5,,,53,127
31608,note_on,0,0,0,,11,,,70,127
31608,note_on,0,0,0,,10,,,69,127
31688,note_off,80,0,0,,10,,,69,127
31688,note_off,0,0,0,,11,,,70,127
31691,note_on,3,0,0,,7,,,67,127
31771,note_off,80,0,0,,7,,,67,127
31774,note_on,3,0,0,,5,,,65,127
31936,note_off,162,0,0,,5,,,65,127
31936,note_off,0,0,0,,5,,,53,127
31936,note_off,0,0,0,,2,,,62,127
31939,note_on,3,0,0,,4,,,52,127
31939,note_on,0,0,0,,1,,,61,127
31939,note_on,0,0,0,,7,,,67,127
32101,note_off,162,0,0,,7,,,67,127
32101,note_off,0,0,0,,1,,,61,127
32101,note_off,0,0,0,,4,,,52,127
32104,note_on,3,0,0,,2,,,50,127
32104,note_on,0,0,0,,2,,,62,127
32104,note_on,0,0,0,,7,,,67,127
32104,note_on,0,0,0,,5,,,65,127
32266,note_off,162,0,0,,5,,,65,127
32266,note_off,0,0,0,,7,,,67,127
32269,note_on,3,0,0,,4,,,64,127
32431,note_off,162,0,0,,4,,,64,127
32431,note_off,0,0,0,,2,,,62,127
32431,note_off,0,0,0,,2,,,50,127
32434,note_on,3,0,0,,11,,,58,127
32434,note_on,0,0,0,,5,,,65,127
32596,note_off,162,0,0,,5,,,65,127
32596,note_off,0,0,0,,11,,,58,127
32599,note_on,3,0,0,,7,,,55,127
32599,note_on,0,0,0,,4,,,64,127
32599,note_on,0,0,0,,7,,,67,127
32761,note_off,162,0,0,,7,,,67,127
32761,note_off,0,0,0,,4,,,64,127
32764,note_on,3,0,0,,2,,,62,127
32764,note_on,0,0,0,,5,,,65,127
32926,note_off,162,0,0,,5,,,65,127
32926,note_off,0,0,0,,2,,,62,127
32928,note_off,2,0,0,,7,,,55,127
32929,note_on,1,0,0,,10,,,57,127
32929,note_on,0,0,0,,1,,,61,127
32929,note_on,0,0,0,,4,,,64,127
33091,note_off,162,0,0,,4,,,64,127
33091,note_off,0,0,0,,1,,,61,127
33091,note_off,0,0,0,,10,,,57,127
33094,note_on,3,0,0,,2,,,50,127
33094,note_on,0,0,0,,2,,,62,127
33256,note_off,162,0,0,,2,,,62,127
33259,note_on,3,0,0,,2,,,62,127
33421,note_off,162,0,0,,2,,,62,127
33423,note_off,2,0,0,,2,,,50,127
33424,note_on,1,0,0,,0,,,60,127
33424,note_on,0,0,0,,2,,,74,127
33586,note_off,162,0,0,,2,,,74,127
33586,note_off,0,0,0,,0,,,60,127
33589,note_on,3,0,0,,11,,,58,127
33589,note_on,0,0,0,,2,,,62,127
33751,note_off,162,0,0,,11,,,58,127
33754,note_on,3,0,0,,10,,,57,127
33916,note_off,162,0,0,,10,,,57,127
33916,note_off,0,0,0,,2,,,62,127
33919,note_on,3,0,0,,7,,,55,127
33919,note_on,0,0,0,,4,,,76,127
34081,note_off,162,0,0,,4,,,76,127
34081,note_off,0,0,0,,7,,,55,127
34084,note_on,3,0,0,,5,,,53,127
34084,note_on,0,0,0,,2,,,62,127
34246,note_off,162,0,0,,5,,,53,127
34249,note_on,3,0,0,,4,,,52,127
34411,note_off,162,0,0,,4,,,52,127
34411,note_off,0,0,0,,2,,,62,127
34414,note_on,3,0,0,,2,,,50,127
34414,note_on,0,0,0,,5,,,77,127
34576,note_off,162,0,0,,5,,,77,127
34576,note_off,0,0,0,,2,,,50,127
34579,note_on,3,0,0,,11,,,58,127
34579,note_on,0,0,0,,2,,,62,127
34741,note_off,162,0,0,,11,,,58,127
34744,note_on,3,0,0,,10,,,57,127
34906,note_off,162,0,0,,10,,,57,127
34906,note_off,0,0,0,,2,,,62,127
34909,note_on,3,0,0,,7,,,55,127
34909,note_on,0,0,0,,7,,,79,127
35071,note_off,162,0,0,,7,,,79,127
35071,note_off,0,0,0,,7,,,55,127
35074,note_on,3,0,0,,5,,,53,127
35074,note_on,0,0,0,,2,,,62,127
35236,note_off,162,0,0,,5,,,53,127
35239,note_on,3,0,0,,4,,,52,127
35401,note_off,162,0,0,,4,,,52,127
35401,note_off,0,0,0,,2,,,62,127
35404,note_on,3,0,0,,2,,,50,127
35404,note_on,0,0,0,,10,,,81,127
35566,note_off,162,0,0,,10,,,81,127
35566,note_off,0,0,0,,2,,,50,127
35569,note_on,3,0,0,,11,,,58,127
35569,note_on,0,0,0,,2,,,62,127
35731,note_off,162,0,0,,11,,,58,127
35734,note_on,3,0,0,,10,,,57,127
35896,note_off,162,0,0,,10,,,57,127
35896,note_off,0,0,0,,2,,,62,127
35899,note_on,3,0,0,,7,,,55,127
35899,note_on,0,0,0,,11,,,82,127
36061,note_off,162,0,0,,11,,,82,127
36061,note_off,0,0,0,,7,,,55,127
36064,note_on,3,0,0,,5,,,53,127
36064,note_on,0,0,0,,2,,,62,127
36226,note_off,162,0,0,,5,,,53,127
36229,note_on,3,0,0,,4,,,52,127
36391,note_off,162,0,0,,4,,,52,127
36391,note_off,0,0,0,,2,,,62,127
36394,note_on,3,0,0,,2,,,50,127
36394,note_on,0,0,0,,1,,,85,127
36556,note_off,162,0,0,,1,,,85,127
36556,note_off,0,0,0,,2,,,50,127
36559,note_on,3,0,0,,11,,,58,127
36559,note_on,0,0,0,,2,,,62,127
36721,note_off,162,0,0,,11,,,58,127
36724,note_on,3,0,0,,10,,,57,127
36886,note_off,162,0,0,,10,,,57,127
36886,note_off,0,0,0,,2,,,62,127
36889,note_on,3,0,0,,7,,,55,127
36889,note_on,0,0,0,,2,,,86,127
37051,note_off,162,0,0,,2,,,86,127
37051,note_off,0,0,0,,7,,,55,127
37054,note_on,3,0,0,,5,,,53,127
37054,note_on,0,0,0,,2,,,62,127
37216,note_off,162,0,0,,5,,,53,127
37219,note_on,3,0,0,,4,,,52,127
37381,note_off,162,0,0,,4,,,52,127
37381,note_off,0,0,0,,2,,,62,127
37384,note_on,3,0,0,,2,,,50,127
37384,note_on,0,0,0,,2,,,86,127
37546,note_off,162,0,0,,2,,,86,127
37546,note_off,0,0,0,,2,,,50,127
37549,note_on,3,0,0,,2,,,62,127
37549,note_on,0,0,0,,7,,,55,127
37549,note_on,0,0,0,,11,,,82,127
37549,note_on,0,0,0,,0,,,84,127
37711,note_off,162,0,0,,0,,,84,127
37711,note_off,0,0,0,,11,,,82,127
37714,note_on,3,0,0,,10,,,81,127
37876,note_off,162,0,0,,10,,,81,127
37876,note_off,0,0,0,,7,,,55,127
37876,note_off,0,0,0,,2,,,62,127
37879,note_on,3,0,0,,1,,,61,127
37879,note_on,0,0,0,,10,,,57,127
37879,note_on,0,0,0,,7,,,79,127
38041,note_off,162,0,0,,7,,,79,127
38041,note_off,0,0,0,,10,,,57,127
38041,note_off,0,0,0,,1,,,61,127
38044,note_on,3,0,0,,11,,,58,127
38044,note_on,0,0,0,,2,,,62,127
38044,note_on,0,0,0,,5,,,77,127
38044,note_on,0,0,0,,7,,,79,127
38206,note_off,162,0,0,,7,,,79,127
38206,note_off,0,0,0,,5,,,77,127
38209,note_on,3,0,0,,4,,,76,127
38371,note_off,162,0,0,,4,,,76,127
38371,note_off,0,0,0,,2,,,62,127
38371,note_off,0,0,0,,11,,,58,127
38374,note_on,3,0,0,,11,,,58,127
38374,note_on,0,0,0,,2,,,74,127
38374,note_on,0,0,0,,5,,,77,127
38536,note_off,162,0,0,,5,,,77,127
38536,note_off,0,0,0,,2,,,74,127
38536,note_off,0,0,0,,11,,,58,127
38539,note_on,3,0,0,,7,,,55,127
38539,note_on,0,0,0,,7,,,79,127
38539,note_on,0,0,0,,4,,,76,127
38701,note_off,162,0,0,,4,,,76,127
38701,note_off,0,0,0,,7,,,79,127
38704,note_on,3,0,0,,5,,,77,127
38704,note_on,0,0,0,,2,,,74,127
38866,note_off,162,0,0,,2,,,74,127
38866,note_off,0,0,0,,5,,,77,127
38866,note_off,0,0,0,,7,,,55,127
38869,note_on,3,0,0,,10,,,57,127
38869,note_on,0,0,0,,4,,,76,127
38869,note_on,0,0,0,,1,,,73,127
39031,note_off,162,0,0,,1,,,73,127
39031,note_off,0,0,0,,4,,,76,127
39031,note_off,0,0,0,,10,,,57,127
39034,note_on,3,0,0,,2,,,50,127
39034,note_on,0,0,0,,2,,,62,127
39196,note_off,162,0,0,,2,,,62,127
39199,note_on,3,0,0,,2,,,62,127
39361,note_off,162,0,0,,2,,,62,127
39364,note_on,3,0,0,,0,,,60,127
39364,note_on,0,0,0,,2,,,74,127
39526,note_off,162,0,0,,2,,,74,127
39526,note_off,0,0,0,,0,,,60,127
39528,note_off,2,0,0,,2,,,50,127
39529,note_on,1,0,0,,11,,,58,127
39529,note_on,0,0,0,,2,,,62,127
39691,note_off,162,0,0,,2,,,62,127
39691,note_off,0,0,0,,11,,,58,127
39694,note_on,3,0,0,,10,,,57,127
39694,note_on,0,0,0,,2,,,62,127
39856,note_off,162,0,0,,2,,,62,127
39856,note_off,0,0,0,,10,,,57,127
39859,note_on,3,0,0,,7,,,55,127
39859,note_on,0,0,0,,1,,,73,127
39859,note_on,0,0,0,,4,,,76,127
40021,note_off,162,0,0,,4,,,76,127
40021,note_off,0,0,0,,1,,,73,127
40021,note_off,0,0,0,,7,,,55,127
40024,note_on,3,0,0,,5,,,53,127
40024,note_on,0,0,0,,2,,,62,127
40186,note_off,162,0,0,,2,,,62,127
40186,note_off,0,0,0,,5,,,53,127
40189,note_on,3,0,0,,4,,,52,127
40189,note_on,0,0,0,,2,,,62,127
40351,note_off,162,0,0,,2,,,62,127
40351,note_off,0,0,0,,4,,,52,127
40354,note_on,3,0,0,,2,,,50,127
40354,note_on,0,0,0,,5,,,77,127
40354,note_on,0,0,0,,2,,,74,127
40516,note_off,162,0,0,,2,,,74,127
40516,note_off,0,0,0,,5,,,77,127
40519,note_on,3,0,0,,11,,,58,127
40519,note_on,0,0,0,,2,,,62,127
40681,note_off,162,0,0,,2,,,62,127
40681,note_off,0,0,0,,11,,,58,127
40683,note_off,2,0,0,,2,,,50,127
40684,note_on,1,0,0,,10,,,57,127
40684,note_on,0,0,0,,2,,,62,127
40846,note_off,162,0,0,,2,,,62,127
40846,note_off,0,0,0,,10,,,57,127
40849,note_on,3,0,0,,7,,,55,127
40849,note_on,0,0,0,,4,,,76,127
40849,note_on,0,0,0,,7,,,79,127
41011,note_off,162,0,0,,7,,,79,127
41011,note_off,0,0,0,,4,,,76,127
41011,note_off,0,0,0,,7,,,55,127
41014,note_on,3,0,0,,5,,,53,127
41014,note_on,0,0,0,,2,,,62,127
41176,note_off,162,0,0,,2,,,62,127
41176,note_off,0,0,0,,5,,,53,127
41179,note_on,3,0,0,,4,,,52,127
41179,note_on,0,0,0,,2,,,62,127
41341,note_off,162,0,0,,2,,,62,127
41341,note_off,0,0,0,,4,,,52,127
41344,note_on,3,0,0,,2,,,50,127
41344,note_on,0,0,0,,10,,,81,127
41344,note_on,0,0,0,,5,,,77,127
41506,note_off,162,0,0,,5,,,77,127
41506,note_off,0,0,0,,10,,,81,127
41509,note_on,3,0,0,,11,,,58,127
41509,note_on,0,0,0,,2,,,62,127
41671,note_off,162,0,0,,2,,,62,127
41671,note_off,0,0,0,,11,,,58,127
41673,note_off,2,0,0,,2,,,50,127
41674,note_on,1,0,0,,10,,,57,127
41674,note_on,0,0,0,,2,,,62,127
41836,note_off,162,0,0,,2,,,62,127
41836,note_off,0,0,0,,10,,,57,127
41839,note_on,3,0,0,,7,,,55,127
41839,note_on,0,0,0,,11,,,82,127
41839,note_on,0,0,0,,7,,,79,127
42001,note_off,162,0,0,,7,,,79,127
42001,note_off,0,0,0,,11,,,82,127
42001,note_off,0,0,0,,7,,,55,127
42004,note_on,3,0,0,,5,,,53,127
42004,note_on,0,0,0,,2,,,62,127
42166,note_off,162,0,0,,2,,,62,127
42166,note_off,0,0,0,,5,,,53,127
42169,note_on,3,0,0,,4,,,52,127
42169,note_on,0,0,0,,2,,,62,127
42331,note_off,162,0,0,,2,,,62,127
42331,note_off,0,0,0,,4,,,52,127
42334,note_on,3,0,0,,2,,,50,127
42334,note_on,0,0,0,,1,,,85,127
42496,note_off,162,0,0,,1,,,85,127
42499,note_on,3,0,0,,11,,,58,127
42499,note_on,0,0,0,,2,,,62,127
42661,note_off,162,0,0,,2,,,62,127
42661,note_off,0,0,0,,11,,,58,127
42663,note_off,2,0,0,,2,,,50,127
42664,note_on,1,0,0,,10,,,57,127
42664,note_on,0,0,0,,2,,,62,127
42826,note_off,162,0,0,,2,,,62,127
42826,note_off,0,0,0,,10,,,57,127
42829,note_on,3,0,0,,7,,,55,127
42829,note_on,0,0,0,,2,,,86,127
42991,note_off,162,0,0,,2,,,86,127
42991,note_off,0,0,0,,7,,,55,127
42994,note_on,3,0,0,,5,,,53,127
42994,note_on,0,0,0,,2,,,62,127
43156,note_off,162,0,0,,5,,,53,127
43159,note_on,3,0,0,,4,,,52,127
43321,note_off,162,0,0,,4,,,52,127
43321,note_off,0,0,0,,2,,,62,127
43324,note_on,3,0,0,,2,,,50,127
43324,note_on,0,0,0,,2,,,86,127
43486,note_off,162,0,0,,2,,,86,127
43486,note_off,0,0,0,,2,,,50,127
43489,note_on,3,0,0,,7,,,55,127
43489,note_on,0,0,0,,2,,,62,127
43489,note_on,0,0,0,,0,,,84,127
43489,note_on,0,0,0,,11,,,82,127
43651,note_off,162,0,0,,11,,,82,127
43651,note_off,0,0,0,,0,,,84,127
43654,note_on,3,0,0,,10,,,81,127
43816,note_off,162,0,0,,10,,,81,127
43816,note_off,0,0,0,,2,,,62,127
43816,note_off,0,0,0,,7,,,55,127
43819,note_on,3,0,0,,1,,,61,127
43819,note_on,0,0,0,,10,,,57,127
43819,note_on,0,0,0,,7,,,79,127
43981,note_off,162,0,0,,7,,,79,127
43981,note_off,0,0,0,,10,,,57,127
43981,note_off,0,0,0,,1,,,61,127
43984,note_on,3,0,0,,11,,,58,127
43984,note_on,0,0,0,,2,,,62,127
43984,note_on,0,0,0,,7,,,79,127
43984,note_on,0,0,0,,5,,,77,127
44146,note_off,162,0,0,,5,,,77,127
44146,note_off,0,0,0,,7,,,79,127
44149,note_on,3,0,0,,4,,,76,127
44311,note_off,162,0,0,,4,,,76,127
44311,note_off,0,0,0,,2,,,62,127
44311,note_off,0,0,0,,11,,,58,127
44314,note_on,3,0,0,,11,,,58,127
44314,note_on,0,0,0,,2,,,74,127
44314,note_on,0,0,0,,5,,,77,127
44476,note_off,162,0,0,,5,,,77,127
44476,note_off,0,0,0,,2,,,74,127
44476,note_off,0,0,0,,11,,,58,127
44479,note_on,3,0,0,,7,,,55,127
44479,note_on,0,0,0,,4,,,76,127
44479,note_on,0,0,0,,7,,,79,127
44641,note_off,162,0,0,,7,,,79,127
44641,note_off,0,0,0,,4,,,76,127
44644,note_on,3,0,0,,2,,,74,127
44644,note_on,0,0,0,,5,,,77,127
44806,note_off,162,0,0,,5,,,77,127
44806,note_off,0,0,0,,2,,,74,127
44806,note_off,0,0,0,,7,,,55,127
44809,note_on,3,0,0,,10,,,57,127
44809,note_on,0,0,0,,4,,,76,127
44809,note_on,0,0,0,,1,,,73,127
44971,note_off,162,0,0,,1,,,73,127
44971,note_off,0,0,0,,4,,,76,127
44971,note_off,0,0,0,,10,,,57,127
44974,note_on,3,0,0,,2,,,50,127
44974,note_on,0,0,0,,2,,,74,127
45136,note_off,162,0,0,,2,,,74,127
45139,note_on,3,0,0,,4,,,76,127
45139,note_on,0,0,0,,1,,,73,127
45301,note_off,162,0,0,,1,,,73,127
45301,note_off,0,0,0,,4,,,76,127
45301,note_off,0,0,0,,2,,,50,127
45304,note_on,3,0,0,,5,,,65,127
45304,note_on,0,0,0,,5,,,77,127
45304,note_on,0,0,0,,2,,,74,127
45466,note_off,162,0,0,,5,,,65,127
45469,note_on,3,0,0,,11,,,58,127
45631,note_off,162,0,0,,2,,,74,127
45631,note_off,0,0,0,,5,,,77,127
45634,note_on,3,0,0,,4,,,76,127
45634,note_on,0,0,0,,1,,,73,127
45796,note_off,162,0,0,,1,,,73,127
45796,note_off,0,0,0,,4,,,76,127
45796,note_off,0,0,0,,11,,,58,127
45799,note_on,3,0,0,,2,,,62,127
45799,note_on,0,0,0,,2,,,74,127
45799,note_on,0,0,0,,5,,,77,127
45961,note_off,162,0,0,,5,,,77,127
45961,note_off,0,0,0,,2,,,74,127
45961,note_off,0,0,0,,2,,,62,127
45964,note_on,3,0,0,,7,,,55,127
45964,note_on,0,0,0,,7,,,79,127
46126,note_off,162,0,0,,7,,,79,127
46129,note_on,3,0,0,,10,,,81,127
46129,note_on,0,0,0,,1,,,73,127
46291,note_off,162,0,0,,1,,,73,127
46291,note_off,0,0,0,,10,,,81,127
46291,note_off,0,0,0,,7,,,55,127
46294,note_on,3,0,0,,11,,,58,127
46294,note_on,0,0,0,,11,,,82,127
46294,note_on,0,0,0,,2,,,74,127
46456,note_off,162,0,0,,11,,,58,127
46459,note_on,3,0,0,,10,,,33,127
46621,note_off,162,0,0,,2,,,74,127
46621,note_off,0,0,0,,11,,,82,127
46624,note_on,3,0,0,,10,,,81,127
46786,note_off,162,0,0,,10,,,81,127
46789,note_on,3,0,0,,1,,,73,127
46951,note_off,162,0,0,,1,,,73,127
46951,note_off,0,0,0,,10,,,33,127
46954,note_on,3,0,0,,2,,,38,127
46954,note_on,0,0,0,,2,,,74,127
47116,note_off,162,0,0,,2,,,74,127
47119,note_on,3,0,0,,1,,,73,127
47119,note_on,0,0,0,,4,,,76,127
47281,note_off,162,0,0,,4,,,76,127
47281,note_off,0,0,0,,1,,,73,127
47281,note_off,0,0,0,,2,,,38,127
47284,note_on,3,0,0,,2,,,62,127
47284,note_on,0,0,0,,2,,,74,127
47284,note_on,0,0,0,,5,,,77,127
47446,note_off,162,0,0,,2,,,62,127
47449,note_on,3,0,0,,11,,,58,127
47611,note_off,162,0,0,,5,,,77,127
47611,note_off,0,0,0,,2,,,74,127
47614,note_on,3,0,0,,4,,,76,127
47614,note_on,0,0,0,,1,,,73,127
47776,note_off,162,0,0,,1,,,73,127
47776,note_off,0,0,0,,4,,,76,127
47776,note_off,0,0,0,,11,,,58,127
47779,note_on,3,0,0,,2,,,62,127
47779,note_on,0,0,0,,5,,,77,127
47779,note_on,0,0,0,,2,,,74,127
47941,note_off,162,0,0,,2,,,74,127
47941,note_off,0,0,0,,5,,,77,127
47941,note_off,0,0,0,,2,,,62,127
47944,note_on,3,0,0,,7,,,55,127
47944,note_on,0,0,0,,7,,,79,127
48106,note_off,162,0,0,,7,,,79,127
48109,note_on,3,0,0,,10,,,81,127
48109,note_on,0,0,0,,1,,,73,127
48271,note_off,162,0,0,,1,,,73,127
48271,note_off,0,0,0,,10,,,81,127
48271,note_off,0,0,0,,7,,,55,127
48274,note_on,3,0,0,,11,,,58,127
48274,note_on,0,0,0,,11,,,82,127
48274,note_on,0,0,0,,2,,,74,127
48436,note_off,162,0,0,,11,,,58,127
48439,note_on,3,0,0,,10,,,33,127
48601,note_off,162,0,0,,2,,,74,127
48601,note_off,0,0,0,,11,,,82,127
48604,note_on,3,0,0,,10,,,81,127
48766,note_off,162,0,0,,10,,,81,127
48769,note_on,3,0,0,,1,,,73,127
48931,note_off,162,0,0,,1,,,73,127
48931,note_off,0,0,0,,10,,,33,127
48934,note_on,3,0,0,,2,,,38,127
48934,note_on,0,0,0,,2,,,74,127
49096,note_off,162,0,0,,2,,,74,127
49099,note_on,3,0,0,,4,,,76,127
49099,note_on,0,0,0,,1,,,73,127
49261,note_off,162,0,0,,1,,,73,127
49261,note_off,0,0,0,,4,,,76,127
49261,note_off,0,0,0,,2,,,38,127
49264,note_on,3,0,0,,5,,,65,127
49264,note_on,0,0,0,,5,,,77,127
49264,note_on,0,0,0,,2,,,74,127
49426,note_off,162,0,0,,5,,,65,127
49429,note_on,3,0,0,,11,,,58,127
49591,note_off,162,0,0,,2,,,74,127
49591,note_off,0,0,0,,5,,,77,127
49594,note_on,3,0,0,,1,,,73,127
49594,note_on,0,0,0,,4,,,76,127
49756,note_off,162,0,0,,4,,,76,127
49756,note_off,0,0,0,,1,,,73,127
49756,note_off,0,0,0,,11,,,58,127
49759,note_on,3,0,0,,2,,,62,127
49759,note_on,0,0,0,,5,,,77,127
49759,note_on,0,0,0,,2,,,74,127
49921,note_off,162,0,0,,2,,,74,127
49921,note_off,0,0,0,,5,,,77,127
49921,note_off,0,0,0,,2,,,62,127
49924,note_on,3,0,0,,7,,,55,127
49924,note_on,0,0,0,,7,,,79,127
50086,note_off,162,0,0,,7,,,79,127
50089,note_on,3,0,0,,10,,,81,127
50089,note_on,0,0,0,,1,,,73,127
50251,note_off,162,0,0,,1,,,73,127
50251,note_off,0,0,0,,10,,,81,127
50251,note_off,0,0,0,,7,,,55,127
50254,note_on,3,0,0,,11,,,58,127
50254,note_on,0,0,0,,11,,,82,127
50254,note_on,0,0,0,,2,,,74,127
50416,note_off,162,0,0,,11,,,58,127
50419,note_on,3,0,0,,10,,,33,127
50581,note_off,162,0,0,,2,,,74,127
50581,note_off,0,0,0,,11,,,82,127
50584,note_on,3,0,0,,10,,,81,127
50746,note_off,162,0,0,,10,,,81,127
50749,note_on,3,0,0,,1,,,73,127
50911,note_off,162,0,0,,1,,,73,127
50911,note_off,0,0,0,,10,,,33,127
50914,note_on,3,0,0,,2,,,38,127
50914,note_on,0,0,0,,2,,,74,127
51076,note_off,162,0,0,,2,,,74,127
51079,note_on,3,0,0,,4,,,76,127
51241,note_off,162,0,0,,4,,,76,127
51241,note_off,0,0,0,,2,,,38,127
51244,note_on,3,0,0,,2,,,50,127
51244,note_on,0,0,0,,5,,,77,127
51244,note_on,0,0,0,,10,,,69,127
51406,note_off,162,0,0,,10,,,69,127
51406,note_off,0,0,0,,5,,,77,127
51406,note_off,0,0,0,,2,,,50,127
51409,note_on,3,0,0,,7,,,55,127
51409,note_on,0,0,0,,4,,,76,127
51409,note_on,0,0,0,,7,,,67,127
51571,note_off,162,0,0,,7,,,67,127
51571,note_off,0,0,0,,4,,,76,127
51574,note_on,3,0,0,,5,,,65,127
51574,note_on,0,0,0,,2,,,74,127
51736,note_off,162,0,0,,2,,,74,127
51736,note_off,0,0,0,,5,,,65,127
51736,note_off,0,0,0,,7,,,55,127
51739,note_on,3,0,0,,10,,,57,127
51739,note_on,0,0,0,,4,,,64,127
51739,note_on,0,0,0,,1,,,73,127
51901,note_off,162,0,0,,1,,,73,127
51901,note_off,0,0,0,,4,,,64,127
51901,note_off,0,0,0,,10,,,57,127
51904,note_on,3,0,0,,11,,,58,127
51904,note_on,0,0,0,,5,,,65,127
51904,note_on,0,0,0,,2,,,74,127
52066,note_off,162,0,0,,2,,,74,127
52066,note_off,0,0,0,,5,,,65,127
52069,note_on,3,0,0,,4,,,64,127
52069,note_on,0,0,0,,1,,,73,127
52231,note_off,162,0,0,,1,,,73,127
52231,note_off,0,0,0,,4,,,64,127
52231,note_off,0,0,0,,11,,,58,127
52234,note_on,3,0,0,,5,,,53,127
52234,note_on,0,0,0,,2,,,74,127
52234,note_on,0,0,0,,5,,,65,127
52396,note_off,162,0,0,,5,,,65,127
52396,note_off,0,0,0,,2,,,74,127
52396,note_off,0,0,0,,5,,,53,127
52399,note_on,3,0,0,,7,,,55,127
52399,note_on,0,0,0,,7,,,67,127
52399,note_on,0,0,0,,4,,,76,127
52561,note_off,162,0,0,,4,,,76,127
52561,note_off,0,0,0,,7,,,67,127
52564,note_on,3,0,0,,2,,,74,127
52564,note_on,0,0,0,,5,,,65,127
52726,note_off,162,0,0,,5,,,65,127
52726,note_off,0,0,0,,2,,,74,127
52726,note_off,0,0,0,,7,,,55,127
52729,note_on,3,0,0,,10,,,57,127
52729,note_on,0,0,0,,1,,,73,127
52729,note_on,0,0,0,,4,,,64,127
52891,note_off,162,0,0,,4,,,64,127
52891,note_off,0,0,0,,1,,,73,127
52891,note_off,0,0,0,,10,,,57,127
52894,note_on,3,0,0,,11,,,58,127
52894,note_on,0,0,0,,5,,,65,127
52894,note_on,0,0,0,,2,,,74,127
53056,note_off,162,0,0,,2,,,74,127
53056,note_off,0,0,0,,5,,,65,127
53059,note_on,3,0,0,,1,,,73,127
53059,note_on,0,0,0,,4,,,64,127
53221,note_off,162,0,0,,4,,,64,127
53221,note_off,0,0,0,,1,,,73,127
53221,note_off,0,0,0,,11,,,58,127
53224,note_on,3,0,0,,5,,,53,127
53224,note_on,0,0,0,,5,,,65,127
53224,note_on,0,0,0,,2,,,74,127
53386,note_off,162,0,0,,2,,,74,127
53386,note_off,0,0,0,,5,,,65,127
53386,note_off,0,0,0,,5,,,53,127
53389,note_on,3,0,0,,7,,,55,127
53389,note_on,0,0,0,,4,,,76,127
53389,note_on,0,0,0,,7,,,67,127
53551,note_off,162,0,0,,7,,,67,127
53551,note_off,0,0,0,,4,,,76,127
53554,note_on,3,0,0,,2,,,74,127
53554,note_on,0,0,0,,5,,,65,127
53716,note_off,162,0,0,,5,,,65,127
53716,note_off,0,0,0,,2,,,74,127
53716,note_off,0,0,0,,7,,,55,127
53719,note_on,3,0,0,,10,,,57,127
53719,note_on,0,0,0,,1,,,73,127
53719,note_on,0,0,0,,4,,,64,127
53881,note_off,162,0,0,,4,,,64,127
53881,note_off,0,0,0,,1,,,73,127
53881,note_off,0,0,0,,10,,,57,127
53884,note_on,3,0,0,,2,,,50,127
53884,note_on,0,0,0,,2,,,74,127
53884,note_on,0,0,0,,2,,,62,127
54046,note_off,162,0,0,,2,,,62,127
54046,note_off,0,0,0,,2,,,74,127
54049,note_on,3,0,0,,5,,,65,127
54211,note_off,162,0,0,,5,,,65,127
54214,note_on,3,0,0,,10,,,69,127
54376,note_off,162,0,0,,10,,,69,127
54379,note_on,3,0,0,,2,,,74,127
54541,note_off,162,0,0,,2,,,74,127
54544,note_on,3,0,0,,5,,,77,127
54706,note_off,162,0,0,,5,,,77,127
54709,note_on,3,0,0,,10,,,81,127
54871,note_off,162,0,0,,10,,,81,127
54871,note_off,0,0,0,,2,,,50,127
54874,note_on,3,0,0,,10,,,57,127
54874,note_on,0,0,0,,5,,,53,127
54874,note_on,0,0,0,,2,,,50,127
54874,note_on,0,0,0,,2,,,62,127
54874,note_on,0,0,0,,2,,,86,127
55036,note_off,162,0,0,,2,,,86,127
55039,note_on,3,0,0,,10,,,81,127
55201,note_off,162,0,0,,10,,,81,127
55204,note_on,3,0,0,,5,,,77,127
55366,note_off,162,0,0,,5,,,77,127
55369,note_on,3,0,0,,2,,,74,127
55531,note_off,162,0,0,,2,,,74,127
55534,note_on,3,0,0,,10,,,81,127
55696,note_off,162,0,0,,10,,,81,127
55699,note_on,3,0,0,,0,,,84,127
55861,note_off,162,0,0,,0,,,84,127
55861,note_off,0,0,0,,2,,,62,127
55861,note_off,0,0,0,,2,,,50,127
55861,note_off,0,0,0,,5,,,53,127
55861,note_off,0,0,0,,10,,,57,127
55864,note_on,3,0,0,,2,,,50,127
55864,note_on,0,0,0,,11,,,46,127
55864,note_on,0,0,0,,7,,,43,127
55864,note_on,0,0,0,,7,,,55,127
55864,note_on,0,0,0,,11,,,82,127
56026,note_off,162,0,0,,11,,,82,127
56029,note_on,3,0,0,,7,,,79,127
56191,note_off,162,0,0,,7,,,79,127
56194,note_on,3,0,0,,4,,,76,127
56356,note_off,162,0,0,,4,,,76,127
56356,note_off,0,0,0,,7,,,55,127
56356,note_off,0,0,0,,7,,,43,127
56356,note_off,0,0,0,,11,,,46,127
56356,note_off,0,0,0,,2,,,50,127
56359,note_on,3,0,0,,10,,,45,127
56359,note_on,0,0,0,,10,,,57,127
56359,note_on,0,0,0,,4,,,52,127
56359,note_on,0,0,0,,2,,,74,127
56521,note_off,162,0,0,,2,,,74,127
56524,note_on,3,0,0,,4,,,76,127
56686,note_off,162,0,0,,4,,,76,127
56689,note_on,3,0,0,,1,,,73,127
56851,note_off,162,0,0,,1,,,73,127
56851,note_off,0,0,0,,4,,,52,127
56851,note_off,0,0,0,,10,,,57,127
56851,note_off,0,0,0,,10,,,45,127
56854,note_on,3,0,0,,2,,,38,127
56854,note_on,0,0,0,,2,,,50,127
56854,note_on,0,0,0,,2,,,74,127
57016,note_off,162,0,0,,2,,,74,127
57019,note_on,3,0,0,,10,,,69,127
57181,note_off,162,0,0,,10,,,69,127
57184,note_on,3,0,0,,5,,,65,127
57346,note_off,162,0,0,,5,,,65,127
57349,note_on,3,0,0,,2,,,62,127
57511,note_off,162,0,0,,2,,,62,127
57514,note_on,3,0,0,,10,,,69,127
57676,note_off,162,0,0,,10,,,69,127
57679,note_on,3,0,0,,0,,,72,127
57841,note_off,162,0,0,,0,,,72,127
57841,note_off,0,0,0,,2,,,50,127
57841,note_off,0,0,0,,2,,,38,127
57844,note_on,3,0,0,,7,,,43,127
57844,note_on,0,0,0,,11,,,46,127
57844,note_on,0,0,0,,2,,,50,127
57844,note_on,0,0,0,,7,,,55,127
57844,note_on,0,0,0,,11,,,70,127
58006,note_off,162,0,0,,11,,,70,127
58009,note_on,3,0,0,,7,,,67,127
58171,note_off,162,0,0,,7,,,67,127
58174,note_on,3,0,0,,4,,,64,127
58336,note_off,162,0,0,,4,,,64,127
58336,note_off,0,0,0,,7,,,55,127
58336,note_off,0,0,0,,2,,,50,127
58336,note_off,0,0,0,,11,,,46,127
58336,note_off,0,0,0,,7,,,43,127
58339,note_on,3,0,0,,10,,,45,127
58339,note_on,0,0,0,,10,,,57,127
58339,note_on,0,0,0,,4,,,52,127
58339,note_on,0,0,0,,2,,,62,127
58501,note_off,162,0,0,,2,,,62,127
58504,note_on,3,0,0,,4,,,64,127
58666,note_off,162,0,0,,4,,,64,127
58669,note_on,3,0,0,,1,,,61,127
58831,note_off,162,0,0,,1,,,61,127
58831,note_off,0,0,0,,4,,,52,127
58831,note_off,0,0,0,,10,,,57,127
58831,note_off,0,0,0,,10,,,45,127
58834,note_on,3,0,0,,2,,,38,127
58834,note_on,0,0,0,,2,,,50,127
58834,note_on,0,0,0,,2,,,62,127
59657,note_off,823,0,0,,2,,,62,127
59657,note_off,0,0,0,,2,,,50,127
59657,note_off,0,0,0,,2,,,38,127
59986,note_on,329,0,0,,5,,,41,127
59986,note_on,0,0,0,,0,,,48,127
59986,note_on,0,0,0,,5,,,53,127
59986,note_on,0,0,0,,10,,,69,127
59986,note_on,0,0,0,,5,,,65,127
59986,note_on,0,0,0,,5,,,77,127
59986,note_on,0,0,0,,0,,,72,127
60148,note_off,162,0,0,,0,,,72,127
60148,note_off,0,0,0,,5,,,77,127
60151,note_on,3,0,0,,0,,,72,127
60312,note_off,161,0,0,,10,,,69,127
60313,note_off,1,0,0,,0,,,72,127
60316,note_on,3,0,0,,10,,,69,127
60475,note_off,159,0,0,,5,,,65,127
60478,note_off,3,0,0,,10,,,69,127
60481,note_on,3,0,0,,5,,,65,127
60643,note_off,162,0,0,,5,,,65,127
60646,note_on,3,0,0,,0,,,60,127
60808,note_off,162,0,0,,0,,,60,127
60811,note_on,3,0,0,,10,,,57,127
60973,note_off,162,0,0,,10,,,57,127
60973,note_off,0,0,0,,5,,,53,127
60973,note_off,0,0,0,,0,,,48,127
60973,note_off,0,0,0,,5,,,41,127
60976,note_on,3,0,0,,5,,,53,127
61634,note_on,658,0,0,,0,,,84,127
61796,note_off,162,0,0,,0,,,84,127
61796,note_off,0,0,0,,5,,,53,127
61799,note_on,3,0,0,,3,,,75,127
61799,note_on,0,0,0,,5,,,65,127
61799,note_on,0,0,0,,10,,,81,127
61961,note_off,162,0,0,,10,,,81,127
61961,note_off,0,0,0,,5,,,65,127
61961,note_off,0,0,0,,3,,,75,127
61964,note_on,3,0,0,,5,,,65,127
61964,note_on,0,0,0,,2,,,74,127
61964,note_on,0,0,0,,11,,,82,127
62126,note_off,162,0,0,,11,,,82,127
62129,note_on,3,0,0,,0,,,84,127
62291,note_off,162,0,0,,0,,,84,127
62291,note_off,0,0,0,,2,,,74,127
62291,note_off,0,0,0,,5,,,65,127
62294,note_on,3,0,0,,3,,,75,127
62294,note_on,0,0,0,,5,,,65,127
62294,note_on,0,0,0,,10,,,81,127
62456,note_off,162,0,0,,10,,,81,127
62456,note_off,0,0,0,,5,,,65,127
62456,note_off,0,0,0,,3,,,75,127
62459,note_on,3,0,0,,2,,,74,127
62459,note_on,0,0,0,,5,,,65,127
62459,note_on,0,0,0,,11,,,82,127
62621,note_off,162,0,0,,11,,,82,127
62624,note_on,3,0,0,,0,,,84,127
62786,note_off,162,0,0,,0,,,84,127
62786,note_off,0,0,0,,5,,,65,127
62786,note_off,0,0,0,,2,,,74,127
62789,note_on,3,0,0,,3,,,75,127
62789,note_on,0,0,0,,5,,,65,127
62789,note_on,0,0,0,,10,,,81,127
62951,note_off,162,0,0,,10,,,81,127
62951,note_off,0,0,0,,5,,,65,127
62951,note_off,0,0,0,,3,,,75,127
62954,note_on,3,0,0,,2,,,74,127
62954,note_on,0,0,0,,5,,,65,127
62954,note_on,0,0,0,,11,,,82,127
63116,note_off,162,0,0,,11,,,82,127
63119,note_on,3,0,0,,0,,,84,127
63281,note_off,162,0,0,,0,,,84,127
63281,note_off,0,0,0,,5,,,65,127
63281,note_off,0,0,0,,2,,,74,127
63284,note_on,3,0,0,,3,,,75,127
63284,note_on,0,0,0,,5,,,65,127
63284,note_on,0,0,0,,10,,,81,127
63446,note_off,162,0,0,,10,,,81,127
63446,note_off,0,0,0,,5,,,65,127
63446,note_off,0,0,0,,3,,,75,127
63449,note_on,3,0,0,,5,,,65,127
63449,note_on,0,0,0,,2,,,74,127
63449,note_on,0,0,0,,11,,,82,127
63611,note_off,162,0,0,,11,,,82,127
63614,note_on,3,0,0,,0,,,84,127
63776,note_off,162,0,0,,0,,,84,127
63776,note_off,0,0,0,,2,,,74,127
63776,note_off,0,0,0,,5,,,65,127
63779,note_on,3,0,0,,0,,,72,127
63779,note_on,0,0,0,,5,,,65,127
63779,note_on,0,0,0,,10,,,81,127
63941,note_off,162,0,0,,10,,,81,127
63941,note_off,0,0,0,,5,,,65,127
63941,note_off,0,0,0,,0,,,72,127
63944,note_on,3,0,0,,11,,,58,127
63944,note_on,0,0,0,,11,,,82,127
63983,note_off,39,0,0,,11,,,82,127
63986,note_on,3,0,0,,10,,,81,127
64025,note_off,39,0,0,,10,,,81,127
64028,note_on,3,0,0,,7,,,79,127
64067,note_off,39,0,0,,7,,,79,127
64070,note_on,3,0,0,,5,,,77,127
64109,note_off,39,0,0,,5,,,77,127
64112,note_on,3,0,0,,3,,,75,127
64151,note_off,39,0,0,,3,,,75,127
64154,note_on,3,0,0,,2,,,74,127
64193,note_off,39,0,0,,2,,,74,127
64196,note_on,3,0,0,,0,,,72,127
64235,note_off,39,0,0,,0,,,72,127
64238,note_on,3,0,0,,11,,,70,127
64277,note_off,39,0,0,,11,,,70,127
64280,note_on,3,0,0,,10,,,69,127
64319,note_off,39,0,0,,10,,,69,127
64322,note_on,3,0,0,,7,,,67,127
64361,note_off,39,0,0,,7,,,67,127
64364,note_on,3,0,0,,5,,,65,127
64403,note_off,39,0,0,,5,,,65,127
64406,note_on,3,0,0,,3,,,63,127
64445,note_off,39,0,0,,3,,,63,127
64448,note_off,3,0,0,,11,,,58,127
64448,note_on,0,0,0,,2,,,62,127
64487,note_off,39,0,0,,2,,,62,127
64490,note_on,3,0,0,,0,,,60,127
64529,note_off,39,0,0,,0,,,60,127
64532,note_on,3,0,0,,11,,,58,127
65189,note_off,657,0,0,,11,,,58,127
65437,note_on,248,0,0,,2,,,50,127
65437,note_on,0,0,0,,7,,,55,127
65437,note_on,0,0,0,,7,,,43,127
65437,note_on,0,0,0,,7,,,67,127
65437,note_on,0,0,0,,2,,,74,127
65437,note_on,0,0,0,,7,,,79,127
65437,note_on,0,0,0,,12,,,71,127
65599,note_off,162,0,0,,7,,,79,127
65599,note_off,0,0,0,,2,,,74,127
65602,note_on,3,0,0,,2,,,74,127
65763,note_off,161,0,0,,12,,,71,127
65764,note_off,1,0,0,,2,,,74,127
65767,note_on,3,0,0,,12,,,71,127
65926,note_off,159,0,0,,7,,,67,127
65929,note_off,3,0,0,,12,,,71,127
65932,note_on,3,0,0,,7,,,67,127
66094,note_off,162,0,0,,7,,,67,127
66097,note_on,3,0,0,,2,,,62,127
66259,note_off,162,0,0,,2,,,62,127
66262,note_on,3,0,0,,12,,,59,127
66424,note_off,162,0,0,,12,,,59,127
66424,note_off,0,0,0,,7,,,43,127
66424,note_off,0,0,0,,7,,,55,127
66424,note_off,0,0,0,,2,,,50,127
66427,note_on,3,0,0,,7,,,55,127
67085,note_on,658,0,0,,2,,,86,127
67247,note_off,162,0,0,,2,,,86,127
67247,note_off,0,0,0,,7,,,55,127
67250,note_on,3,0,0,,2,,,74,127
67250,note_on,0,0,0,,5,,,77,127
67250,note_on,0,0,0,,7,,,67,127
67250,note_on,0,0,0,,12,,,83,127
67412,note_off,162,0,0,,12,,,83,127
67412,note_off,0,0,0,,7,,,67,127
67412,note_off,0,0,0,,5,,,77,127
67412,note_off,0,0,0,,2,,,74,127
67415,note_on,3,0,0,,7,,,67,127
67415,note_on,0,0,0,,0,,,72,127
67415,note_on,0,0,0,,3,,,75,127
67415,note_on,0,0,0,,0,,,84,127
67577,note_off,162,0,0,,0,,,84,127
67580,note_on,3,0,0,,2,,,86,127
67742,note_off,162,0,0,,2,,,86,127
67742,note_off,0,0,0,,3,,,75,127
67742,note_off,0,0,0,,0,,,72,127
67742,note_off,0,0,0,,7,,,67,127
67745,note_on,3,0,0,,7,,,67,127
67745,note_on,0,0,0,,2,,,74,127
67745,note_on,0,0,0,,5,,,77,127
67745,note_on,0,0,0,,12,,,83,127
67907,note_off,162,0,0,,12,,,83,127
67907,note_off,0,0,0,,5,,,77,127
67907,note_off,0,0,0,,2,,,74,127
67907,note_off,0,0,0,,7,,,67,127
67910,note_on,3,0,0,,7,,,67,127
67910,note_on,0,0,0,,0,,,72,127
67910,note_on,0,0,0,,3,,,75,127
67910,note_on,0,0,0,,0,,,84,127
68072,note_off,162,0,0,,0,,,84,127
68075,note_on,3,0,0,,2,,,86,127
68237,note_off,162,0,0,,2,,,86,127
68237,note_off,0,0,0,,3,,,75,127
68237,note_off,0,0,0,,0,,,72,127
68237,note_off,0,0,0,,7,,,67,127
68240,note_on,3,0,0,,2,,,74,127
68240,note_on,0,0,0,,5,,,77,127
68240,note_on,0,0,0,,7,,,67,127
68240,note_on,0,0,0,,12,,,83,127
68402,note_off,162,0,0,,12,,,83,127
68402,note_off,0,0,0,,7,,,67,127
68402,note_off,0,0,0,,5,,,77,127
68402,note_off,0,0,0,,2,,,74,127
68405,note_on,3,0,0,,0,,,72,127
68405,note_on,0,0,0,,3,,,75,127
68405,note_on,0,0,0,,7,,,67,127
68405,note_on,0,0,0,,0,,,84,127
68567,note_off,162,0,0,,0,,,84,127
68570,note_on,3,0,0,,2,,,86,127
68732,note_off,162,0,0,,2,,,86,127
68732,note_off,0,0,0,,7,,,67,127
68732,note_off,0,0,0,,3,,,75,127
68732,note_off,0,0,0,,0,,,72,127
68735,note_on,3,0,0,,5,,,77,127
68735,note_on,0,0,0,,7,,,67,127
68735,note_on,0,0,0,,2,,,74,127
68735,note_on,0,0,0,,12,,,83,127
68897,note_off,162,0,0,,12,,,83,127
68897,note_off,0,0,0,,2,,,74,127
68897,note_off,0,0,0,,7,,,67,127
68897,note_off,0,0,0,,5,,,77,127
68900,note_on,3,0,0,,3,,,75,127
68900,note_on,0,0,0,,7,,,67,127
68900,note_on,0,0,0,,0,,,72,127
68900,note_on,0,0,0,,0,,,84,127
69062,note_off,162,0,0,,0,,,84,127
69065,note_on,3,0,0,,2,,,86,127
69227,note_off,162,0,0,,2,,,86,127
69227,note_off,0,0,0,,0,,,72,127
69227,note_off,0,0,0,,7,,,67,127
69227,note_off,0,0,0,,3,,,75,127
69230,note_on,3,0,0,,2,,,74,127
69230,note_on,0,0,0,,7,,,67,127
69230,note_on,0,0,0,,12,,,83,127
69392,note_off,162,0,0,,12,,,83,127
69392,note_off,0,0,0,,7,,,67,127
69392,note_off,0,0,0,,2,,,74,127
69395,note_on,3,0,0,,0,,,60,127
69395,note_on,0,0,0,,0,,,84,127
69434,note_off,39,0,0,,0,,,84,127
69437,note_on,3,0,0,,11,,,82,127
69476,note_off,39,0,0,,11,,,82,127
69479,note_on,3,0,0,,8,,,80,127
69518,note_off,39,0,0,,8,,,80,127
69521,note_on,3,0,0,,7,,,79,127
69560,note_off,39,0,0,,7,,,79,127
69563,note_on,3,0,0,,5,,,77,127
69602,note_off,39,0,0,,5,,,77,127
69605,note_on,3,0,0,,3,,,75,127
69644,note_off,39,0,0,,3,,,75,127
69647,note_on,3,0,0,,2,,,74,127
69686,note_off,39,0,0,,2,,,74,127
69689,note_on,3,0,0,,0,,,72,127
69728,note_off,39,0,0,,0,,,72,127
69731,note_on,3,0,0,,11,,,70,127
69770,note_off,39,0,0,,11,,,70,127
69773,note_on,3,0,0,,8,,,68,127
69812,note_off,39,0,0,,8,,,68,127
69815,note_on,3,0,0,,7,,,67,127
69854,note_off,39,0,0,,7,,,67,127
69857,note_on,3,0,0,,5,,,65,127
69896,note_off,39,0,0,,5,,,65,127
69899,note_off,3,0,0,,0,,,60,127
69899,note_on,0,0,0,,3,,,63,127
69938,note_off,39,0,0,,3,,,63,127
69941,note_on,3,0,0,,2,,,62,127
69980,note_off,39,0,0,,2,,,62,127
69983,note_on,3,0,0,,0,,,60,127
70556,note_off,573,0,0,,0,,,60,127
70559,note_on,3,0,0,,0,,,84,127
70721,note_off,162,0,0,,0,,,84,127
70724,note_on,3,0,0,,11,,,82,127
70886,note_off,162,0,0,,11,,,82,127
70889,note_on,3,0,0,,11,,,82,127
70889,note_on,0,0,0,,0,,,84,127
71051,note_off,162,0,0,,0,,,84,127
71051,note_off,0,0,0,,11,,,82,127
71054,note_on,3,0,0,,10,,,81,127
71216,note_off,162,0,0,,10,,,81,127
71219,note_on,3,0,0,,7,,,79,127
71381,note_off,162,0,0,,7,,,79,127
71384,note_on,3,0,0,,0,,,72,127
71384,note_on,0,0,0,,3,,,75,127
71384,note_on,0,0,0,,7,,,79,127
71384,note_on,0,0,0,,10,,,81,127
71546,note_off,162,0,0,,10,,,81,127
71546,note_off,0,0,0,,7,,,79,127
71549,note_on,3,0,0,,6,,,78,127
71711,note_off,162,0,0,,6,,,78,127
71714,note_on,3,0,0,,7,,,79,127
71876,note_off,162,0,0,,7,,,79,127
71876,note_off,0,0,0,,3,,,75,127
71876,note_off,0,0,0,,0,,,72,127
71879,note_on,3,0,0,,6,,,66,127
71879,note_on,0,0,0,,0,,,72,127
71879,note_on,0,0,0,,10,,,81,127
72041,note_off,162,0,0,,10,,,81,127
72044,note_on,3,0,0,,3,,,75,127
72206,note_off,162,0,0,,3,,,75,127
72209,note_on,3,0,0,,2,,,74,127
72371,note_off,162,0,0,,0,,,72,127
72371,note_off,0,0,0,,6,,,66,127
72374,note_on,3,0,0,,7,,,67,127
72374,note_on,0,0,0,,11,,,70,127
72536,note_off,162,0,0,,2,,,74,127
72539,note_on,3,0,0,,0,,,72,127
72700,note_off,161,0,0,,11,,,70,127
72701,note_off,1,0,0,,0,,,72,127
72704,note_on,3,0,0,,11,,,70,127
72866,note_off,162,0,0,,11,,,70,127
72866,note_off,0,0,0,,7,,,67,127
72869,note_on,3,0,0,,3,,,63,127
72869,note_on,0,0,0,,7,,,67,127
72869,note_on,0,0,0,,11,,,70,127
72869,note_on,0,0,0,,0,,,72,127
73031,note_off,162,0,0,,0,,,72,127
73031,note_off,0,0,0,,11,,,70,127
73034,note_on,3,0,0,,10,,,69,127
73195,note_off,161,0,0,,7,,,67,127
73196,note_off,1,0,0,,10,,,69,127
73199,note_on,3,0,0,,7,,,67,127
73361,note_off,162,0,0,,3,,,63,127
73364,note_on,3,0,0,,3,,,63,127
73364,note_on,0,0,0,,0,,,60,127
73526,note_off,162,0,0,,7,,,67,127
73529,note_on,3,0,0,,6,,,66,127
73691,note_off,162,0,0,,6,,,66,127
73694,note_on,3,0,0,,7,,,67,127
73856,note_off,162,0,0,,7,,,67,127
73856,note_off,0,0,0,,0,,,60,127
73856,note_off,0,0,0,,3,,,63,127
73859,note_on,3,0,0,,6,,,54,127
73859,note_on,0,0,0,,0,,,60,127
73859,note_on,0,0,0,,10,,,69,127
74021,note_off,162,0,0,,10,,,69,127
74024,note_on,3,0,0,,3,,,63,127
74186,note_off,162,0,0,,3,,,63,127
74189,note_on,3,0,0,,2,,,62,127
74351,note_off,162,0,0,,0,,,60,127
74351,note_off,0,0,0,,6,,,54,127
74354,note_on,3,0,0,,7,,,55,127
74354,note_on,0,0,0,,11,,,58,127
74516,note_off,162,0,0,,2,,,62,127
74519,note_on,3,0,0,,0,,,60,127
74680,note_off,161,0,0,,11,,,58,127
74681,note_off,1,0,0,,0,,,60,127
74684,note_on,3,0,0,,11,,,58,127
74846,note_off,162,0,0,,11,,,58,127
74846,note_off,0,0,0,,7,,,55,127
74849,note_on,3,0,0,,3,,,51,127
74849,note_on,0,0,0,,7,,,55,127
74849,note_on,0,0,0,,11,,,58,127
74849,note_on,0,0,0,,0,,,60,127
75011,note_off,162,0,0,,0,,,60,127
75011,note_off,0,0,0,,11,,,58,127
75014,note_on,3,0,0,,10,,,57,127
75175,note_off,161,0,0,,7,,,55,127
75176,note_off,1,0,0,,10,,,57,127
75179,note_on,3,0,0,,7,,,55,127
75341,note_off,162,0,0,,3,,,51,127
75344,note_on,3,0,0,,3,,,51,127
75506,note_off,162,0,0,,7,,,55,127
75509,note_on,3,0,0,,6,,,54,127
75671,note_off,162,0,0,,6,,,54,127
75674,note_on,3,0,0,,7,,,55,127
75836,note_off,162,0,0,,7,,,55,127
75836,note_off,0,0,0,,3,,,51,127
75839,note_on,3,0,0,,2,,,38,127
75839,note_on,0,0,0,,2,,,50,127
76495,note_off,656,0,0,,2,,,50,127
76498,note_on,3,0,0,,2,,,50,127
76660,note_off,162,0,0,,2,,,50,127
76663,note_on,3,0,0,,6,,,54,127
76825,note_off,162,0,0,,6,,,54,127
76828,note_on,3,0,0,,10,,,57,127
76990,note_off,162,0,0,,10,,,57,127
76993,note_on,3,0,0,,0,,,60,127
77155,note_off,162,0,0,,0,,,60,127
77158,note_on,3,0,0,,3,,,63,127
77320,note_off,162,0,0,,3,,,63,127
77323,note_on,3,0,0,,6,,,66,127
77485,note_off,162,0,0,,6,,,66,127
77488,note_on,3,0,0,,10,,,69,127
77650,note_off,162,0,0,,10,,,69,127
77653,note_on,3,0,0,,0,,,72,127
77815,note_off,162,0,0,,0,,,72,127
77818,note_off,3,0,0,,2,,,38,127
77818,note_on,0,0,0,,0,,,72,127
77898,note_off,80,0,0,,0,,,72,127
77901,note_on,3,0,0,,2,,,74,127
77981,note_off,80,0,0,,2,,,74,127
77984,note_on,3,0,0,,0,,,60,127
77984,note_on,0,0,0,,3,,,75,127
78146,note_off,162,0,0,,0,,,60,127
78149,note_on,3,0,0,,3,,,63,127
78311,note_off,162,0,0,,3,,,63,127
78314,note_on,3,0,0,,6,,,66,127
78476,note_off,162,0,0,,3,,,75,127
78479,note_on,3,0,0,,2,,,74,127
78641,note_off,162,0,0,,2,,,74,127
78644,note_on,3,0,0,,10,,,69,127
78806,note_off,162,0,0,,10,,,69,127
78806,note_off,0,0,0,,6,,,66,127
78809,note_on,3,0,0,,7,,,67,127
78809,note_on,0,0,0,,0,,,72,127
78809,note_on,0,0,0,,11,,,70,127
78971,note_off,162,0,0,,11,,,70,127
78971,note_off,0,0,0,,0,,,72,127
78974,note_on,3,0,0,,10,,,69,127
79136,note_off,162,0,0,,10,,,69,127
79139,note_on,3,0,0,,11,,,70,127
79301,note_off,162,0,0,,11,,,70,127
79301,note_off,0,0,0,,7,,,67,127
79304,note_on,3,0,0,,0,,,60,127
79304,note_on,0,0,0,,3,,,75,127
79466,note_off,162,0,0,,3,,,75,127
79469,note_on,3,0,0,,0,,,72,127
79631,note_off,162,0,0,,0,,,72,127
79634,note_on,3,0,0,,10,,,69,127
79796,note_off,162,0,0,,10,,,69,127
79796,note_off,0,0,0,,0,,,60,127
79799,note_on,3,0,0,,2,,,62,127
79799,note_on,0,0,0,,6,,,66,127
79961,note_off,162,0,0,,2,,,62,127
79964,note_on,3,0,0,,10,,,57,127
80126,note_off,162,0,0,,10,,,57,127
80129,note_on,3,0,0,,2,,,50,127
80291,note_off,162,0,0,,2,,,50,127
80294,note_on,3,0,0,,2,,,38,127
80456,note_off,162,0,0,,6,,,66,127
80459,note_on,3,0,0,,2,,,50,127
80621,note_off,162,0,0,,2,,,50,127
80624,note_on,3,0,0,,6,,,54,127
80786,note_off,162,0,0,,6,,,54,127
80789,note_on,3,0,0,,10,,,57,127
80951,note_off,162,0,0,,10,,,57,127
80954,note_on,3,0,0,,0,,,60,127
81116,note_off,162,0,0,,0,,,60,127
81119,note_on,3,0,0,,3,,,63,127
81281,note_off,162,0,0,,3,,,63,127
81284,note_on,3,0,0,,6,,,66,127
81446,note_off,162,0,0,,6,,,66,127
81449,note_on,3,0,0,,10,,,69,127
81611,note_off,162,0,0,,10,,,69,127
81614,note_on,3,0,0,,0,,,72,127
81776,note_off,162,0,0,,0,,,72,127
81779,note_off,3,0,0,,2,,,38,127
81779,note_on,0,0,0,,10,,,81,127
81859,note_off,80,0,0,,10,,,81,127
81862,note_on,3,0,0,,11,,,82,127
81942,note_off,80,0,0,,11,,,82,127
81945,note_on,3,0,0,,6,,,66,127
81945,note_on,0,0,0,,0,,,84,127
82107,note_off,162,0,0,,6,,,66,127
82110,note_on,3,0,0,,2,,,62,127
82272,note_off,162,0,0,,2,,,62,127
82272,note_off,0,0,0,,0,,,84,127
82275,note_on,3,0,0,,7,,,67,127
82275,note_on,0,0,0,,11,,,82,127
82275,note_on,0,0,0,,0,,,84,127
82437,note_off,162,0,0,,0,,,84,127
82437,note_off,0,0,0,,11,,,82,127
82440,note_on,3,0,0,,10,,,81,127
82602,note_off,162,0,0,,10,,,81,127
82602,note_off,0,0,0,,7,,,67,127
82605,note_on,3,0,0,,5,,,65,127
82605,note_on,0,0,0,,11,,,82,127
82767,note_off,162,0,0,,11,,,82,127
82767,note_off,0,0,0,,5,,,65,127
82770,note_on,3,0,0,,3,,,63,127
82770,note_on,0,0,0,,10,,,81,127
82770,note_on,0,0,0,,7,,,79,127
82932,note_off,162,0,0,,7,,,79,127
82932,note_off,0,0,0,,10,,,81,127
82935,note_on,3,0,0,,6,,,78,127
83097,note_off,162,0,0,,6,,,78,127
83097,note_off,0,0,0,,3,,,63,127
83100,note_on,3,0,0,,2,,,62,127
83100,note_on,0,0,0,,7,,,79,127
83262,note_off,162,0,0,,7,,,79,127
83262,note_off,0,0,0,,2,,,62,127
83265,note_on,3,0,0,,0,,,60,127
83265,note_on,0,0,0,,3,,,75,127
83265,note_on,0,0,0,,5,,,77,127
83427,note_off,162,0,0,,5,,,77,127
83427,note_off,0,0,0,,3,,,75,127
83430,note_on,3,0,0,,2,,,74,127
83592,note_off,162,0,0,,2,,,74,127
83595,note_on,3,0,0,,3,,,75,127
83757,note_off,162,0,0,,3,,,75,127
83757,note_off,0,0,0,,0,,,60,127
83760,note_on,3,0,0,,2,,,50,127
83760,note_on,0,0,0,,2,,,74,127
83922,note_off,162,0,0,,2,,,50,127
83925,note_on,3,0,0,,2,,,62,127
84087,note_off,162,0,0,,2,,,62,127
84090,note_on,3,0,0,,0,,,60,127
84252,note_off,162,0,0,,0,,,60,127
84255,note_on,3,0,0,,11,,,58,127
84417,note_off,162,0,0,,11,,,58,127
84419,note_off,2,0,0,,2,,,74,127
84420,note_on,1,0,0,,2,,,62,127
84582,note_off,162,0,0,,2,,,62,127
84585,note_on,3,0,0,,7,,,67,127
84585,note_on,0,0,0,,2,,,86,127
84747,note_off,162,0,0,,2,,,86,127
84747,note_off,0,0,0,,7,,,67,127
84750,note_on,3,0,0,,0,,,60,127
84750,note_on,0,0,0,,10,,,69,127
84750,note_on,0,0,0,,2,,,86,127
84750,note_on,0,0,0,,0,,,84,127
84830,note_off,80,0,0,,0,,,84,127
84830,note_off,0,0,0,,2,,,86,127
84833,note_on,3,0,0,,11,,,82,127
84913,note_off,80,0,0,,11,,,82,127
84916,note_on,3,0,0,,10,,,81,127
85078,note_off,162,0,0,,10,,,69,127
85078,note_off,0,0,0,,0,,,60,127
85081,note_on,3,0,0,,2,,,62,127
85081,note_on,0,0,0,,11,,,70,127
85243,note_off,162,0,0,,11,,,70,127
85243,note_off,0,0,0,,2,,,62,127
85246,note_on,3,0,0,,3,,,63,127
85411,note_on,165,0,0,,0,,,72,127
85573,note_off,162,0,0,,0,,,72,127
85573,note_off,0,0,0,,10,,,81,127
85575,note_off,2,0,0,,3,,,63,127
85576,note_on,1,0,0,,2,,,62,127
85576,note_on,0,0,0,,11,,,70,127
85576,note_on,0,0,0,,2,,,86,127
85738,note_off,162,0,0,,2,,,86,127
85738,note_off,0,0,0,,11,,,70,127
85738,note_off,0,0,0,,2,,,62,127
85741,note_on,3,0,0,,0,,,60,127
85741,note_on,0,0,0,,0,,,84,127
85741,note_on,0,0,0,,2,,,86,127
85821,note_off,80,0,0,,2,,,86,127
85821,note_off,0,0,0,,0,,,84,127
85824,note_on,3,0,0,,11,,,82,127
85904,note_off,80,0,0,,11,,,82,127
85907,note_on,3,0,0,,10,,,69,127
85907,note_on,0,0,0,,10,,,81,127
86069,note_off,162,0,0,,10,,,69,127
86071,note_off,2,0,0,,0,,,60,127
86072,note_on,1,0,0,,2,,,62,127
86072,note_on,0,0,0,,11,,,70,127
86234,note_off,162,0,0,,11,,,70,127
86234,note_off,0,0,0,,2,,,62,127
86237,note_on,3,0,0,,3,,,63,127
86402,note_on,165,0,0,,0,,,72,127
86564,note_off,162,0,0,,0,,,72,127
86564,note_off,0,0,0,,10,,,81,127
86566,note_off,2,0,0,,3,,,63,127
86567,note_on,1,0,0,,2,,,62,127
86567,note_on,0,0,0,,11,,,70,127
86567,note_on,0,0,0,,2,,,86,127
86729,note_off,162,0,0,,2,,,86,127
86729,note_off,0,0,0,,11,,,70,127
86729,note_off,0,0,0,,2,,,62,127
86732,note_on,3,0,0,,0,,,60,127
86732,note_on,0,0,0,,0,,,84,127
86732,note_on,0,0,0,,2,,,86,127
86812,note_off,80,0,0,,2,,,86,127
86812,note_off,0,0,0,,0,,,84,127
86815,note_on,3,0,0,,11,,,82,127
86895,note_off,80,0,0,,11,,,82,127
86898,note_on,3,0,0,,10,,,69,127
86898,note_on,0,0,0,,10,,,81,127
87060,note_off,162,0,0,,10,,,81,127
87060,note_off,0,0,0,,10,,,69,127
87062,note_off,2,0,0,,0,,,60,127
87063,note_on,1,0,0,,2,,,62,127
87063,note_on,0,0,0,,11,,,70,127
87063,note_on,0,0,0,,11,,,82,127
87225,note_off,162,0,0,,11,,,82,127
87225,note_off,0,0,0,,11,,,70,127
87225,note_off,0,0,0,,2,,,62,127
87228,note_on,3,0,0,,3,,,63,127
87228,note_on,0,0,0,,10,,,81,127
87228,note_on,0,0,0,,11,,,82,127
87308,note_off,80,0,0,,11,,,82,127
87308,note_off,0,0,0,,10,,,81,127
87311,note_on,3,0,0,,7,,,79,127
87391,note_off,80,0,0,,7,,,79,127
87394,note_on,3,0,0,,0,,,72,127
87394,note_on,0,0,0,,6,,,78,127
87556,note_off,162,0,0,,6,,,78,127
87556,note_off,0,0,0,,0,,,72,127
87558,note_off,2,0,0,,3,,,63,127
87559,note_on,1,0,0,,2,,,62,127
87559,note_on,0,0,0,,11,,,70,127
87559,note_on,0,0,0,,7,,,79,127
87721,note_off,162,0,0,,7,,,79,127
87721,note_off,0,0,0,,11,,,70,127
87721,note_off,0,0,0,,2,,,62,127
87724,note_on,3,0,0,,10,,,69,127
87724,note_on,0,0,0,,2,,,62,127
87724,note_on,0,0,0,,7,,,79,127
87724,note_on,0,0,0,,6,,,78,127
87804,note_off,80,0,0,,6,,,78,127
87804,note_off,0,0,0,,7,,,79,127
87807,note_on,3,0,0,,4,,,76,127
87887,note_off,80,0,0,,4,,,76,127
87890,note_on,3,0,0,,2,,,74,127
88052,note_off,162,0,0,,2,,,74,127
88052,note_off,0,0,0,,2,,,62,127
88052,note_off,0,0,0,,10,,,69,127
88055,note_on,3,0,0,,10,,,69,127
88055,note_on,0,0,0,,0,,,60,127
88055,note_on,0,0,0,,3,,,75,127
88217,note_off,162,0,0,,3,,,75,127
88217,note_off,0,0,0,,0,,,60,127
88217,note_off,0,0,0,,10,,,69,127
88220,note_on,3,0,0,,7,,,67,127
88220,note_on,0,0,0,,11,,,58,127
88220,note_on,0,0,0,,2,,,74,127
88220,note_on,0,0,0,,3,,,75,127
88300,note_off,80,0,0,,3,,,75,127
88300,note_off,0,0,0,,2,,,74,127
88303,note_on,3,0,0,,0,,,72,127
88383,note_off,80,0,0,,0,,,72,127
88386,note_on,3,0,0,,11,,,70,127
88548,note_off,162,0,0,,11,,,70,127
88548,note_off,0,0,0,,11,,,58,127
88548,note_off,0,0,0,,7,,,67,127
88551,note_on,3,0,0,,6,,,66,127
88551,note_on,0,0,0,,10,,,57,127
88551,note_on,0,0,0,,0,,,72,127
88713,note_off,162,0,0,,0,,,72,127
88713,note_off,0,0,0,,10,,,57,127
88713,note_off,0,0,0,,6,,,66,127
88716,note_on,3,0,0,,7,,,67,127
88716,note_on,0,0,0,,7,,,55,127
88716,note_on,0,0,0,,11,,,70,127
88716,note_on,0,0,0,,0,,,72,127
88878,note_off,162,0,0,,0,,,72,127
88878,note_off,0,0,0,,11,,,70,127
88881,note_on,3,0,0,,10,,,69,127
89043,note_off,162,0,0,,10,,,69,127
89043,note_off,0,0,0,,7,,,55,127
89043,note_off,0,0,0,,7,,,67,127
89046,note_on,3,0,0,,3,,,51,127
89046,note_on,0,0,0,,7,,,67,127
89046,note_on,0,0,0,,11,,,70,127
89208,note_off,162,0,0,,11,,,70,127
89208,note_off,0,0,0,,7,,,67,127
89208,note_off,0,0,0,,3,,,51,127
89211,note_on,3,0,0,,0,,,48,127
89211,note_on,0,0,0,,10,,,69,127
89211,note_on,0,0,0,,0,,,72,127
89373,note_off,162,0,0,,0,,,72,127
89373,note_off,0,0,0,,10,,,69,127
89376,note_on,3,0,0,,7,,,67,127
89376,note_on,0,0,0,,11,,,70,127
89538,note_off,162,0,0,,11,,,70,127
89538,note_off,0,0,0,,7,,,67,127
89538,note_off,0,0,0,,0,,,48,127
89541,note_on,3,0,0,,2,,,50,127
89541,note_on,0,0,0,,10,,,69,127
89541,note_on,0,0,0,,6,,,66,127
89703,note_off,162,0,0,,6,,,66,127
89703,note_off,0,0,0,,10,,,69,127
89703,note_off,0,0,0,,2,,,50,127
89706,note_on,3,0,0,,7,,,43,127
89706,note_on,0,0,0,,7,,,67,127
89868,note_off,162,0,0,,7,,,43,127
89871,note_on,3,0,0,,7,,,55,127
90033,note_off,162,0,0,,7,,,55,127
90036,note_on,3,0,0,,10,,,57,127
90198,note_off,162,0,0,,10,,,57,127
90200,note_off,2,0,0,,7,,,67,127
90201,note_on,1,0,0,,11,,,58,127
90363,note_off,162,0,0,,11,,,58,127
90366,note_on,3,0,0,,10,,,57,127
90528,note_off,162,0,0,,10,,,57,127
90531,note_on,3,0,0,,7,,,55,127
90531,note_on,0,0,0,,2,,,86,127
90693,note_off,162,0,0,,2,,,86,127
90693,note_off,0,0,0,,7,,,55,127
90696,note_on,3,0,0,,0,,,60,127
90696,note_on,0,0,0,,2,,,86,127
90696,note_on,0,0,0,,0,,,84,127
90776,note_off,80,0,0,,0,,,84,127
90776,note_off,0,0,0,,2,,,86,127
90779,note_on,3,0,0,,11,,,82,127
90859,note_off,80,0,0,,11,,,82,127
90862,note_on,3,0,0,,10,,,69,127
90862,note_on,0,0,0,,10,,,81,127
91024,note_off,162,0,0,,10,,,81,127
91024,note_off,0,0,0,,10,,,69,127
91026,note_off,2,0,0,,0,,,60,127
91027,note_on,1,0,0,,11,,,70,127
91027,note_on,0,0,0,,2,,,62,127
91027,note_on,0,0,0,,11,,,82,127
91189,note_off,162,0,0,,11,,,82,127
91189,note_off,0,0,0,,2,,,62,127
91189,note_off,0,0,0,,11,,,70,127
91192,note_on,3,0,0,,3,,,63,127
91192,note_on,0,0,0,,10,,,81,127
91192,note_on,0,0,0,,11,,,82,127
91272,note_off,80,0,0,,11,,,82,127
91272,note_off,0,0,0,,10,,,81,127
91275,note_on,3,0,0,,7,,,79,127
91355,note_off,80,0,0,,7,,,79,127
91358,note_on,3,0,0,,0,,,72,127
91358,note_on,0,0,0,,6,,,78,127
91520,note_off,162,0,0,,6,,,78,127
91520,note_off,0,0,0,,0,,,72,127
91522,note_off,2,0,0,,3,,,63,127
91523,note_on,1,0,0,,11,,,70,127
91523,note_on,0,0,0,,7,,,79,127
91685,note_off,162,0,0,,7,,,79,127
91685,note_off,0,0,0,,11,,,70,127
91688,note_on,3,0,0,,10,,,69,127
91688,note_on,0,0,0,,2,,,62,127
91688,note_on,0,0,0,,7,,,79,127
91688,note_on,0,0,0,,6,,,78,127
91768,note_off,80,0,0,,6,,,78,127
91768,note_off,0,0,0,,7,,,79,127
91771,note_on,3,0,0,,4,,,76,127
91851,note_off,80,0,0,,4,,,76,127
91854,note_on,3,0,0,,2,,,74,127
92016,note_off,162,0,0,,2,,,74,127
92016,note_off,0,0,0,,2,,,62,127
92016,note_off,0,0,0,,10,,,69,127
92019,note_on,3,0,0,,10,,,69,127
92019,note_on,0,0,0,,0,,,60,127
92019,note_on,0,0,0,,3,,,75,127
92181,note_off,162,0,0,,3,,,75,127
92181,note_off,0,0,0,,0,,,60,127
92181,note_off,0,0,0,,10,,,69,127
92184,note_on,3,0,0,,11,,,58,127
92184,note_on,0,0,0,,7,,,67,127
92184,note_on,0,0,0,,2,,,74,127
92184,note_on,0,0,0,,3,,,75,127
92264,note_off,80,0,0,,3,,,75,127
92264,note_off,0,0,0,,2,,,74,127
92267,note_on,3,0,0,,0,,,72,127
92347,note_off,80,0,0,,0,,,72,127
92350,note_on,3,0,0,,11,,,70,127
92512,note_off,162,0,0,,11,,,70,127
92512,note_off,0,0,0,,7,,,67,127
92512,note_off,0,0,0,,11,,,58,127
92515,note_on,3,0,0,,6,,,66,127
92515,note_on,0,0,0,,10,,,57,127
92515,note_on,0,0,0,,0,,,72,127
92677,note_off,162,0,0,,0,,,72,127
92677,note_off,0,0,0,,10,,,57,127
92677,note_off,0,0,0,,6,,,66,127
92680,note_on,3,0,0,,7,,,67,127
92680,note_on,0,0,0,,7,,,55,127
92680,note_on,0,0,0,,0,,,72,127
92680,note_on,0,0,0,,11,,,70,127
92842,note_off,162,0,0,,11,,,70,127
92842,note_off,0,0,0,,0,,,72,127
92845,note_on,3,0,0,,10,,,69,127
93007,note_off,162,0,0,,10,,,69,127
93007,note_off,0,0,0,,7,,,55,127
93007,note_off,0,0,0,,7,,,67,127
93010,note_on,3,0,0,,3,,,51,127
93010,note_on,0,0,0,,7,,,67,127
93010,note_on,0,0,0,,11,,,70,127
93172,note_off,162,0,0,,11,,,70,127
93172,note_off,0,0,0,,7,,,67,127
93172,note_off,0,0,0,,3,,,51,127
93175,note_on,3,0,0,,0,,,48,127
93175,note_on,0,0,0,,10,,,69,127
93175,note_on,0,0,0,,0,,,72,127
93337,note_off,162,0,0,,0,,,72,127
93337,note_off,0,0,0,,10,,,69,127
93340,note_on,3,0,0,,7,,,67,127
93340,note_on,0,0,0,,11,,,70,127
93502,note_off,162,0,0,,11,,,70,127
93502,note_off,0,0,0,,7,,,67,127
93502,note_off,0,0,0,,0,,,48,127
93505,note_on,3,0,0,,2,,,50,127
93505,note_on,0,0,0,,6,,,66,127
93505,note_on,0,0,0,,10,,,69,127
93667,note_off,162,0,0,,10,,,69,127
93667,note_off,0,0,0,,6,,,66,127
93667,note_off,0,0,0,,2,,,50,127
93670,note_on,3,0,0,,7,,,43,127
93670,note_on,0,0,0,,7,,,67,127
93824,note_off,154,0,0,,7,,,67,127
93832,note_off,8,0,0,,7,,,43,127
93835,note_on,3,0,0,,7,,,67,127
93998,note_off,163,0,0,,7,,,67,127
94000,note_on,2,0,0,,5,,,65,127
94000,note_on,0,0,0,,7,,,79,127
94162,note_off,162,0,0,,7,,,79,127
94162,note_off,0,0,0,,5,,,65,127
94165,note_on,3,0,0,,3,,,63,127
94165,note_on,0,0,0,,7,,,67,127
94327,note_off,162,0,0,,3,,,63,127
94330,note_on,3,0,0,,2,,,62,127
94492,note_off,162,0,0,,2,,,62,127
94492,note_off,0,0,0,,7,,,67,127
94495,note_on,3,0,0,,0,,,60,127
94495,note_on,0,0,0,,6,,,78,127
94495,note_on,0,0,0,,10,,,81,127
94657,note_off,162,0,0,,10,,,81,127
94657,note_off,0,0,0,,6,,,78,127
94657,note_off,0,0,0,,0,,,60,127
94660,note_on,3,0,0,,11,,,58,127
94660,note_on,0,0,0,,7,,,67,127
94822,note_off,162,0,0,,11,,,58,127
94825,note_on,3,0,0,,10,,,57,127
94987,note_off,162,0,0,,10,,,57,127
94987,note_off,0,0,0,,7,,,67,127
94990,note_on,3,0,0,,7,,,55,127
94990,note_on,0,0,0,,7,,,79,127
94990,note_on,0,0,0,,11,,,82,127
95152,note_off,162,0,0,,11,,,82,127
95152,note_off,0,0,0,,7,,,79,127
95152,note_off,0,0,0,,7,,,55,127
95155,note_on,3,0,0,,3,,,63,127
95155,note_on,0,0,0,,7,,,67,127
95317,note_off,162,0,0,,3,,,63,127
95320,note_on,3,0,0,,2,,,62,127
95482,note_off,162,0,0,,2,,,62,127
95482,note_off,0,0,0,,7,,,67,127
95485,note_on,3,0,0,,0,,,60,127
95485,note_on,0,0,0,,10,,,81,127
95485,note_on,0,0,0,,0,,,84,127
95647,note_off,162,0,0,,0,,,84,127
95647,note_off,0,0,0,,10,,,81,127
95647,note_off,0,0,0,,0,,,60,127
95650,note_on,3,0,0,,11,,,58,127
95650,note_on,0,0,0,,7,,,67,127
95812,note_off,162,0,0,,11,,,58,127
95815,note_on,3,0,0,,10,,,57,127
95977,note_off,162,0,0,,10,,,57,127
95977,note_off,0,0,0,,7,,,67,127
95980,note_on,3,0,0,,7,,,55,127
95980,note_on,0,0,0,,2,,,86,127
95980,note_on,0,0,0,,11,,,82,127
96142,note_off,162,0,0,,11,,,82,127
96142,note_off,0,0,0,,2,,,86,127
96142,note_off,0,0,0,,7,,,55,127
96145,note_on,3,0,0,,3,,,63,127
96145,note_on,0,0,0,,7,,,67,127
96307,note_off,162,0,0,,3,,,63,127
96310,note_on,3,0,0,,2,,,62,127
96472,note_off,162,0,0,,2,,,62,127
96472,note_off,0,0,0,,7,,,67,127
96475,note_on,3,0,0,,0,,,60,127
96475,note_on,0,0,0,,2,,,86,127
96475,note_on,0,0,0,,11,,,82,127
96637,note_off,162,0,0,,0,,,60,127
96640,note_on,3,0,0,,11,,,58,127
96802,note_off,162,0,0,,11,,,82,127
96802,note_off,0,0,0,,2,,,86,127
96805,note_on,3,0,0,,0,,,84,127
96805,note_on,0,0,0,,10,,,81,127
96967,note_off,162,0,0,,10,,,81,127
96967,note_off,0,0,0,,0,,,84,127
96967,note_off,0,0,0,,11,,,58,127
96970,note_on,3,0,0,,3,,,63,127
96970,note_on,0,0,0,,7,,,79,127
96970,note_on,0,0,0,,11,,,82,127
97132,note_off,162,0,0,,11,,,82,127
97132,note_off,0,0,0,,7,,,79,127
97132,note_off,0,0,0,,3,,,63,127
97135,note_on,3,0,0,,0,,,60,127
97135,note_on,0,0,0,,10,,,81,127
97135,note_on,0,0,0,,0,,,84,127
97297,note_off,162,0,0,,0,,,84,127
97297,note_off,0,0,0,,10,,,81,127
97300,note_on,3,0,0,,7,,,79,127
97300,note_on,0,0,0,,11,,,82,127
97462,note_off,162,0,0,,11,,,82,127
97462,note_off,0,0,0,,7,,,79,127
97462,note_off,0,0,0,,0,,,60,127
97465,note_on,3,0,0,,2,,,62,127
97465,note_on,0,0,0,,6,,,78,127
97465,note_on,0,0,0,,10,,,81,127
97627,note_off,162,0,0,,10,,,81,127
97627,note_off,0,0,0,,6,,,78,127
97627,note_off,0,0,0,,2,,,62,127
97630,note_on,3,0,0,,7,,,55,127
97630,note_on,0,0,0,,7,,,79,127
97795,note_on,165,0,0,,7,,,67,127
97957,note_off,162,0,0,,7,,,67,127
97957,note_off,0,0,0,,7,,,79,127
97960,note_on,3,0,0,,5,,,65,127
97960,note_on,0,0,0,,7,,,79,127
98122,note_off,162,0,0,,7,,,79,127
98122,note_off,0,0,0,,5,,,65,127
98124,note_off,2,0,0,,7,,,55,127
98125,note_on,1,0,0,,3,,,63,127
98125,note_on,0,0,0,,7,,,67,127
98287,note_off,162,0,0,,7,,,67,127
98287,note_off,0,0,0,,3,,,63,127
98290,note_on,3,0,0,,2,,,62,127
98290,note_on,0,0,0,,7,,,67,127
98452,note_off,162,0,0,,7,,,67,127
98452,note_off,0,0,0,,2,,,62,127
98455,note_on,3,0,0,,0,,,60,127
98455,note_on,0,0,0,,6,,,78,127
98455,note_on,0,0,0,,10,,,81,127
98617,note_off,162,0,0,,10,,,81,127
98617,note_off,0,0,0,,6,,,78,127
98617,note_off,0,0,0,,0,,,60,127
98620,note_on,3,0,0,,11,,,58,127
98620,note_on,0,0,0,,7,,,67,127
98782,note_off,162,0,0,,7,,,67,127
98782,note_off,0,0,0,,11,,,58,127
98785,note_on,3,0,0,,10,,,57,127
98785,note_on,0,0,0,,7,,,67,127
98947,note_off,162,0,0,,7,,,67,127
98947,note_off,0,0,0,,10,,,57,127
98950,note_on,3,0,0,,7,,,55,127
98950,note_on,0,0,0,,7,,,79,127
98950,note_on,0,0,0,,11,,,82,127
99112,note_off,162,0,0,,11,,,82,127
99112,note_off,0,0,0,,7,,,79,127
99115,note_on,3,0,0,,3,,,63,127
99115,note_on,0,0,0,,7,,,67,127
99277,note_off,162,0,0,,7,,,67,127
99277,note_off,0,0,0,,3,,,63,127
99279,note_off,2,0,0,,7,,,55,127
99280,note_on,1,0,0,,2,,,62,127
99280,note_on,0,0,0,,7,,,67,127
99442,note_off,162,0,0,,7,,,67,127
99442,note_off,0,0,0,,2,,,62,127
99445,note_on,3,0,0,,0,,,60,127
99445,note_on,0,0,0,,10,,,81,127
99445,note_on,0,0,0,,0,,,84,127
99607,note_off,162,0,0,,0,,,84,127
99607,note_off,0,0,0,,10,,,81,127
99607,note_off,0,0,0,,0,,,60,127
99610,note_on,3,0,0,,11,,,58,127
99610,note_on,0,0,0,,7,,,67,127
99772,note_off,162,0,0,,7,,,67,127
99772,note_off,0,0,0,,11,,,58,127
99775,note_on,3,0,0,,10,,,57,127
99775,note_on,0,0,0,,7,,,67,127
99937,note_off,162,0,0,,7,,,67,127
99937,note_off,0,0,0,,10,,,57,127
99940,note_on,3,0,0,,7,,,55,127
99940,note_on,0,0,0,,11,,,82,127
99940,note_on,0,0,0,,2,,,86,127
100102,note_off,162,0,0,,2,,,86,127
100102,note_off,0,0,0,,11,,,82,127
100105,note_on,3,0,0,,3,,,63,127
100105,note_on,0,0,0,,7,,,67,127
100267,note_off,162,0,0,,3,,,63,127
100269,note_off,2,0,0,,7,,,55,127
100270,note_on,1,0,0,,2,,,62,127
100432,note_off,162,0,0,,2,,,62,127
100432,note_off,0,0,0,,7,,,67,127
100435,note_on,3,0,0,,0,,,60,127
100435,note_on,0,0,0,,11,,,82,127
100435,note_on,0,0,0,,2,,,86,127
100597,note_off,162,0,0,,0,,,60,127
100600,note_on,3,0,0,,11,,,58,127
100762,note_off,162,0,0,,2,,,86,127
100762,note_off,0,0,0,,11,,,82,127
100765,note_on,3,0,0,,10,,,81,127
100765,note_on,0,0,0,,0,,,84,127
100927,note_off,162,0,0,,0,,,84,127
100927,note_off,0,0,0,,10,,,81,127
100927,note_off,0,0,0,,11,,,58,127
100930,note_on,3,0,0,,7,,,67,127
100930,note_on,0,0,0,,7,,,79,127
100930,note_on,0,0,0,,11,,,82,127
101092,note_off,162,0,0,,11,,,82,127
101092,note_off,0,0,0,,7,,,79,127
101092,note_off,0,0,0,,7,,,67,127
101095,note_on,3,0,0,,0,,,60,127
101095,note_on,0,0,0,,10,,,81,127
101095,note_on,0,0,0,,0,,,84,127
101257,note_off,162,0,0,,0,,,84,127
101257,note_off,0,0,0,,10,,,81,127
101260,note_on,3,0,0,,7,,,79,127
101260,note_on,0,0,0,,11,,,82,127
101422,note_off,162,0,0,,11,,,82,127
101422,note_off,0,0,0,,7,,,79,127
101422,note_off,0,0,0,,0,,,60,127
101425,note_on,3,0,0,,2,,,62,127
101425,note_on,0,0,0,,10,,,81,127
101425,note_on,0,0,0,,6,,,78,127
101587,note_off,162,0,0,,6,,,78,127
101587,note_off,0,0,0,,10,,,81,127
101587,note_off,0,0,0,,2,,,62,127
101590,note_on,3,0,0,,7,,,55,127
101590,note_on,0,0,0,,7,,,79,127
101752,note_off,162,0,0,,7,,,79,127
101755,note_on,3,0,0,,10,,,81,127
101917,note_off,162,0,0,,10,,,81,127
101917,note_off,0,0,0,,7,,,55,127
101920,note_on,3,0,0,,11,,,70,127
101920,note_on,0,0,0,,7,,,79,127
101920,note_on,0,0,0,,11,,,82,127
102082,note_off,162,0,0,,11,,,70,127
102085,note_on,3,0,0,,3,,,63,127
102247,note_off,162,0,0,,11,,,82,127
102247,note_off,0,0,0,,7,,,79,127
102250,note_on,3,0,0,,6,,,78,127
102250,note_on,0,0,0,,10,,,81,127
102412,note_off,162,0,0,,10,,,81,127
102412,note_off,0,0,0,,6,,,78,127
102412,note_off,0,0,0,,3,,,63,127
102415,note_on,3,0,0,,7,,,67,127
102415,note_on,0,0,0,,7,,,79,127
102415,note_on,0,0,0,,11,,,82,127
102577,note_off,162,0,0,,7,,,79,127
102577,note_off,0,0,0,,7,,,67,127
102580,note_on,3,0,0,,0,,,60,127
102580,note_on,0,0,0,,3,,,75,127
102744,note_off,164,0,0,,11,,,82,127
102745,note_on,1,0,0,,0,,,84,127
102907,note_off,162,0,0,,0,,,84,127
102907,note_off,0,0,0,,0,,,60,127
102910,note_on,3,0,0,,3,,,63,127
102910,note_on,0,0,0,,10,,,81,127
103072,note_off,162,0,0,,3,,,63,127
103074,note_off,2,0,0,,3,,,75,127
103075,note_on,1,0,0,,2,,,50,127
103075,note_on,0,0,0,,2,,,74,127
103239,note_off,164,0,0,,10,,,81,127
103240,note_on,1,0,0,,7,,,79,127
103402,note_off,162,0,0,,7,,,79,127
103405,note_on,3,0,0,,6,,,78,127
103567,note_off,162,0,0,,6,,,78,127
103567,note_off,0,0,0,,2,,,50,127
103569,note_off,2,0,0,,2,,,74,127
103570,note_on,1,0,0,,7,,,43,127
103570,note_on,0,0,0,,7,,,79,127
103732,note_off,162,0,0,,7,,,79,127
103735,note_on,3,0,0,,10,,,81,127
103897,note_off,162,0,0,,10,,,81,127
103897,note_off,0,0,0,,7,,,43,127
103900,note_on,3,0,0,,11,,,70,127
103900,note_on,0,0,0,,7,,,79,127
103900,note_on,0,0,0,,11,,,82,127
104062,note_off,162,0,0,,11,,,70,127
104065,note_on,3,0,0,,3,,,63,127
104227,note_off,162,0,0,,11,,,82,127
104227,note_off,0,0,0,,7,,,79,127
104230,note_on,3,0,0,,6,,,78,127
104230,note_on,0,0,0,,10,,,81,127
104392,note_off,162,0,0,,10,,,81,127
104392,note_off,0,0,0,,6,,,78,127
104392,note_off,0,0,0,,3,,,63,127
104395,note_on,3,0,0,,7,,,67,127
104395,note_on,0,0,0,,7,,,79,127
104395,note_on,0,0,0,,11,,,82,127
104557,note_off,162,0,0,,7,,,79,127
104557,note_off,0,0,0,,7,,,67,127
104560,note_on,3,0,0,,0,,,60,127
104560,note_on,0,0,0,,3,,,75,127
104724,note_off,164,0,0,,11,,,82,127
104725,note_on,1,0,0,,0,,,84,127
104887,note_off,162,0,0,,0,,,84,127
104887,note_off,0,0,0,,0,,,60,127
104890,note_on,3,0,0,,3,,,63,127
104890,note_on,0,0,0,,10,,,81,127
105052,note_off,162,0,0,,3,,,63,127
105054,note_off,2,0,0,,3,,,75,127
105055,note_on,1,0,0,,2,,,38,127
105055,note_on,0,0,0,,2,,,74,127
105219,note_off,164,0,0,,10,,,81,127
105220,note_on,1,0,0,,7,,,79,127
105382,note_off,162,0,0,,7,,,79,127
105385,note_on,3,0,0,,6,,,78,127
105547,note_off,162,0,0,,6,,,78,127
105547,note_off,0,0,0,,2,,,38,127
105549,note_off,2,0,0,,2,,,74,127
105550,note_on,1,0,0,,7,,,43,127
105550,note_on,0,0,0,,7,,,79,127
105712,note_off,162,0,0,,7,,,79,127
105715,note_on,3,0,0,,10,,,81,127
105877,note_off,162,0,0,,10,,,81,127
105877,note_off,0,0,0,,7,,,43,127
105880,note_on,3,0,0,,11,,,70,127
105880,note_on,0,0,0,,7,,,79,127
105880,note_on,0,0,0,,11,,,82,127
106042,note_off,162,0,0,,11,,,70,127
106045,note_on,3,0,0,,3,,,63,127
106207,note_off,162,0,0,,11,,,82,127
106207,note_off,0,0,0,,7,,,79,127
106210,note_on,3,0,0,,6,,,78,127
106210,note_on,0,0,0,,10,,,81,127
106372,note_off,162,0,0,,10,,,81,127
106372,note_off,0,0,0,,6,,,78,127
106372,note_off,0,0,0,,3,,,63,127
106375,note_on,3,0,0,,7,,,67,127
106375,note_on,0,0,0,,7,,,79,127
106375,note_on,0,0,0,,11,,,82,127
106537,note_off,162,0,0,,11,,,82,127
106537,note_off,0,0,0,,7,,,79,127
106537,note_off,0,0,0,,7,,,67,127
106540,note_on,3,0,0,,0,,,60,127
106540,note_on,0,0,0,,3,,,75,127
106705,note_on,165,0,0,,0,,,84,127
106867,note_off,162,0,0,,0,,,84,127
106867,note_off,0,0,0,,0,,,60,127
106870,note_on,3,0,0,,3,,,63,127
106870,note_on,0,0,0,,10,,,81,127
107032,note_off,162,0,0,,10,,,81,127
107032,note_off,0,0,0,,3,,,63,127
107034,note_off,2,0,0,,3,,,75,127
107035,note_on,1,0,0,,2,,,38,127
107035,note_on,0,0,0,,2,,,74,127
107200,note_on,165,0,0,,7,,,79,127
107362,note_off,162,0,0,,7,,,79,127
107365,note_on,3,0,0,,6,,,78,127
107527,note_off,162,0,0,,6,,,78,127
107527,note_off,0,0,0,,2,,,38,127
107529,note_off,2,0,0,,2,,,74,127
107530,note_on,1,0,0,,7,,,43,127
107530,note_on,0,0,0,,7,,,79,127
107692,note_off,162,0,0,,7,,,79,127
107695,note_on,3,0,0,,6,,,78,127
107857,note_off,162,0,0,,6,,,78,127
107857,note_off,0,0,0,,7,,,43,127
107860,note_on,3,0,0,,7,,,67,127
107860,note_on,0,0,0,,11,,,70,127
107860,note_on,0,0,0,,7,,,79,127
108022,note_off,162,0,0,,7,,,79,127
108022,note_off,0,0,0,,11,,,70,127
108022,note_off,0,0,0,,7,,,67,127
108025,note_on,3,0,0,,0,,,60,127
108025,note_on,0,0,0,,0,,,72,127
108025,note_on,0,0,0,,10,,,81,127
108187,note_off,162,0,0,,10,,,81,127
108187,note_off,0,0,0,,0,,,72,127
108190,note_on,3,0,0,,7,,,79,127
108190,note_on,0,0,0,,11,,,70,127
108352,note_off,162,0,0,,11,,,70,127
108352,note_off,0,0,0,,7,,,79,127
108352,note_off,0,0,0,,0,,,60,127
108355,note_on,3,0,0,,2,,,62,127
108355,note_on,0,0,0,,10,,,69,127
108355,note_on,0,0,0,,6,,,78,127
108517,note_off,162,0,0,,6,,,78,127
108517,note_off,0,0,0,,10,,,69,127
108517,note_off,0,0,0,,2,,,62,127
108520,note_on,3,0,0,,3,,,63,127
108520,note_on,0,0,0,,11,,,70,127
108520,note_on,0,0,0,,7,,,79,127
108682,note_off,162,0,0,,7,,,79,127
108682,note_off,0,0,0,,11,,,70,127
108685,note_on,3,0,0,,10,,,69,127
108685,note_on,0,0,0,,6,,,78,127
108847,note_off,162,0,0,,6,,,78,127
108847,note_off,0,0,0,,10,,,69,127
108847,note_off,0,0,0,,3,,,63,127
108850,note_on,3,0,0,,11,,,58,127
108850,note_on,0,0,0,,11,,,70,127
108850,note_on,0,0,0,,7,,,79,127
109012,note_off,162,0,0,,7,,,79,127
109012,note_off,0,0,0,,11,,,70,127
109012,note_off,0,0,0,,11,,,58,127
109015,note_on,3,0,0,,0,,,60,127
109015,note_on,0,0,0,,0,,,72,127
109015,note_on,0,0,0,,10,,,81,127
109177,note_off,162,0,0,,10,,,81,127
109177,note_off,0,0,0,,0,,,72,127
109180,note_on,3,0,0,,11,,,70,127
109180,note_on,0,0,0,,7,,,79,127
109342,note_off,162,0,0,,7,,,79,127
109342,note_off,0,0,0,,11,,,70,127
109342,note_off,0,0,0,,0,,,60,127
109345,note_on,3,0,0,,2,,,62,127
109345,note_on,0,0,0,,10,,,69,127
109345,note_on,0,0,0,,6,,,78,127
109507,note_off,162,0,0,,6,,,78,127
109507,note_off,0,0,0,,10,,,69,127
109507,note_off,0,0,0,,2,,,62,127
109510,note_on,3,0,0,,3,,,63,127
109510,note_on,0,0,0,,7,,,79,127
109510,note_on,0,0,0,,11,,,70,127
109672,note_off,162,0,0,,11,,,70,127
109672,note_off,0,0,0,,7,,,79,127
109675,note_on,3,0,0,,10,,,69,127
109675,note_on,0,0,0,,6,,,78,127
109837,note_off,162,0,0,,6,,,78,127
109837,note_off,0,0,0,,10,,,69,127
109837,note_off,0,0,0,,3,,,63,127
109840,note_on,3,0,0,,11,,,58,127
109840,note_on,0,0,0,,11,,,70,127
109840,note_on,0,0,0,,7,,,79,127
110002,note_off,162,0,0,,7,,,79,127
110002,note_off,0,0,0,,11,,,70,127
110002,note_off,0,0,0,,11,,,58,127
110005,note_on,3,0,0,,0,,,60,127
110005,note_on,0,0,0,,0,,,72,127
110005,note_on,0,0,0,,10,,,81,127
110167,note_off,162,0,0,,10,,,81,127
110167,note_off,0,0,0,,0,,,72,127
110170,note_on,3,0,0,,11,,,70,127
110170,note_on,0,0,0,,7,,,79,127
110332,note_off,162,0,0,,7,,,79,127
110332,note_off,0,0,0,,11,,,70,127
110332,note_off,0,0,0,,0,,,60,127
110335,note_on,3,0,0,,2,,,62,127
110335,note_on,0,0,0,,10,,,69,127
110335,note_on,0,0,0,,6,,,78,127
110497,note_off,162,0,0,,6,,,78,127
110497,note_off,0,0,0,,10,,,69,127
110497,note_off,0,0,0,,2,,,62,127
110500,note_on,3,0,0,,7,,,55,127
110500,note_on,0,0,0,,7,,,79,127
110662,note_off,162,0,0,,7,,,79,127
110665,note_on,3,0,0,,2,,,74,127
110827,note_off,162,0,0,,2,,,74,127
110830,note_on,3,0,0,,11,,,70,127
110992,note_off,162,0,0,,11,,,70,127
110995,note_on,3,0,0,,7,,,67,127
111157,note_off,162,0,0,,7,,,67,127
111160,note_on,3,0,0,,2,,,74,127
111322,note_off,162,0,0,,2,,,74,127
111325,note_on,3,0,0,,5,,,77,127
111487,note_off,162,0,0,,5,,,77,127
111487,note_off,0,0,0,,7,,,55,127
111490,note_on,3,0,0,,7,,,55,127
111490,note_on,0,0,0,,0,,,60,127
111490,note_on,0,0,0,,0,,,48,127
111490,note_on,0,0,0,,3,,,75,127
111652,note_off,162,0,0,,3,,,75,127
111655,note_on,3,0,0,,0,,,72,127
111817,note_off,162,0,0,,0,,,72,127
111820,note_on,3,0,0,,10,,,69,127
111982,note_off,162,0,0,,10,,,69,127
111982,note_off,0,0,0,,0,,,48,127
111982,note_off,0,0,0,,0,,,60,127
111982,note_off,0,0,0,,7,,,55,127
111985,note_on,3,0,0,,10,,,57,127
111985,note_on,0,0,0,,2,,,62,127
111985,note_on,0,0,0,,2,,,50,127
111985,note_on,0,0,0,,7,,,67,127
112147,note_off,162,0,0,,7,,,67,127
112150,note_on,3,0,0,,10,,,69,127
112312,note_off,162,0,0,,10,,,69,127
112315,note_on,3,0,0,,6,,,66,127
112477,note_off,162,0,0,,6,,,66,127
112477,note_off,0,0,0,,2,,,50,127
112477,note_off,0,0,0,,2,,,62,127
112477,note_off,0,0,0,,10,,,57,127
112482,note_on,5,0,0,,7,,,67,127
112482,note_on,0,0,0,,7,,,43,127
112482,note_on,0,0,0,,7,,,55,127
112482,note_on,0,0,0,,2,,,50,127
112648,note_off,166,0,0,,7,,,67,127
112653,note_on,5,0,0,,2,,,62,127
112819,note_off,166,0,0,,2,,,62,127
112824,note_on,5,0,0,,11,,,58,127
112984,note_off,160,0,0,,7,,,55,127
112990,note_off,6,0,0,,11,,,58,127
112994,note_on,4,0,0,,7,,,55,127
113160,note_off,166,0,0,,7,,,55,127
113165,note_on,5,0,0,,2,,,62,127
113331,note_off,166,0,0,,2,,,62,127
113336,note_on,5,0,0,,5,,,65,127
113494,note_off,158,0,0,,2,,,50,127
113494,note_off,0,0,0,,7,,,43,127
113503,note_off,9,0,0,,5,,,65,127
113507,note_on,4,0,0,,3,,,63,127
113507,note_on,0,0,0,,0,,,36,127
113507,note_on,0,0,0,,7,,,43,127
113507,note_on,0,0,0,,0,,,48,127
113673,note_off,166,0,0,,3,,,63,127
113678,note_on,5,0,0,,0,,,60,127
113844,note_off,166,0,0,,0,,,60,127
113849,note_on,5,0,0,,10,,,57,127
114012,note_off,163,0,0,,0,,,48,127
114012,note_off,0,0,0,,7,,,43,127
114012,note_off,0,0,0,,0,,,36,127
114015,note_off,3,0,0,,10,,,57,127
114019,note_on,4,0,0,,7,,,55,127
114019,note_on,0,0,0,,2,,,38,127
114019,note_on,0,0,0,,10,,,45,127
114019,note_on,0,0,0,,2,,,50,127
114185,note_off,166,0,0,,7,,,55,127
114190,note_on,5,0,0,,10,,,57,127
114356,note_off,166,0,0,,10,,,57,127
114364,note_on,8,0,0,,6,,,54,127
114524,note_off,160,0,0,,2,,,50,127
114524,note_off,0,0,0,,10,,,45,127
114524,note_off,0,0,0,,2,,,38,127
114530,note_off,6,0,0,,6,,,54,127
114560,note_on,30,0,0,,7,,,55,127
114560,note_on,0,0,0,,7,,,43,127
114560,note_on,0,0,0,,7,,,31,127
116617,note_off,2057,0,0,,7,,,31,127
116617,note_off,0,0,0,,7,,,43,127
116617,note_off,0,0,0,,7,,,55,127
121344,end_of_track,4727,1,0,,,,,,
