tick,type,time,meta,track,program,channel,pitch,tempo,note,velocity
0,copyright,0,1,0,,,,,,
0,program_change,0,0,0,6,0,,,,
0,pitchwheel,0,0,0,,0,0,,,
0,program_change,0,0,0,6,1,,,,
0,pitchwheel,0,0,0,,1,-590,,,
0,program_change,0,0,0,6,2,,,,
0,pitchwheel,0,0,0,,2,-272,,,
0,program_change,0,0,0,6,3,,,,
0,pitchwheel,0,0,0,,3,-353,,,
0,program_change,0,0,0,6,4,,,,
0,pitchwheel,0,0,0,,4,-560,,,
0,program_change,0,0,0,6,5,,,,
0,pitchwheel,0,0,0,,5,-80,,,
0,program_change,0,0,0,6,6,,,,
0,pitchwheel,0,0,0,,6,-625,,,
0,program_change,0,0,0,6,7,,,,
0,pitchwheel,0,0,0,,7,-130,,,
0,program_change,0,0,0,6,8,,,,
0,pitchwheel,0,0,0,,8,-512,,,
0,program_change,0,0,0,6,10,,,,
0,pitchwheel,0,0,0,,10,-464,,,
0,program_change,0,0,0,6,11,,,,
0,pitchwheel,0,0,0,,11,-208,,,
0,program_change,0,0,0,6,12,,,,
0,pitchwheel,0,0,0,,12,-553,,,
0,set_tempo,0,1,0,,,,500000,,
115,note_on,115,0,0,,6,,,66,127
115,note_on,0,0,0,,2,,,62,127
115,note_on,0,0,0,,6,,,78,127
189,note_off,74,0,0,,6,,,78,127
191,note_on,2,0,0,,7,,,79,127
265,note_off,74,0,0,,7,,,79,127
267,note_on,2,0,0,,10,,,81,127
341,note_off,74,0,0,,10,,,81,127
341,note_off,0,0,0,,2,,,62,127
341,note_off,0,0,0,,6,,,66,127
343,note_on,2,0,0,,4,,,64,127
343,note_on,0,0,0,,7,,,67,127
343,note_on,0,0,0,,7,,,79,127
571,note_off,228,0,0,,7,,,79,127
571,note_off,0,0,0,,7,,,67,127
571,note_off,0,0,0,,4,,,64,127
573,note_on,2,0,0,,6,,,66,127
573,note_on,0,0,0,,10,,,69,127
573,note_on,0,0,0,,6,,,78,127
801,note_off,228,0,0,,6,,,78,127
801,note_off,0,0,0,,10,,,69,127
801,note_off,0,0,0,,6,,,66,127
803,note_on,2,0,0,,7,,,67,127
803,note_on,0,0,0,,12,,,71,127
803,note_on,0,0,0,,4,,,76,127
1031,note_off,228,0,0,,4,,,76,127
1033,note_on,2,0,0,,2,,,74,127
1261,note_off,228,0,0,,2,,,74,127
1262,note_off,1,0,0,,12,,,71,127
1262,note_off,0,0,0,,7,,,67,127
1263,note_on,1,0,0,,1,,,73,127
1491,note_off,228,0,0,,1,,,73,127
1493,note_on,2,0,0,,6,,,66,127
1493,note_on,0,0,0,,2,,,62,127
1493,note_on,0,0,0,,6,,,78,127
1567,note_off,74,0,0,,6,,,78,127
1569,note_on,2,0,0,,7,,,79,127
1643,note_off,74,0,0,,7,,,79,127
1645,note_on,2,0,0,,10,,,81,127
1719,note_off,74,0,0,,10,,,81,127
1719,note_off,0,0,0,,2,,,62,127
1719,note_off,0,0,0,,6,,,66,127
1721,note_on,2,0,0,,4,,,64,127
1721,note_on,0,0,0,,7,,,67,127
1721,note_on,0,0,0,,7,,,79,127
1949,note_off,228,0,0,,7,,,79,127
1949,note_off,0,0,0,,7,,,67,127
1949,note_off,0,0,0,,4,,,64,127
1951,note_on,2,0,0,,6,,,66,127
1951,note_on,0,0,0,,10,,,69,127
1951,note_on,0,0,0,,6,,,78,127
2179,note_off,228,0,0,,6,,,78,127
2179,note_off,0,0,0,,10,,,69,127
2179,note_off,0,0,0,,6,,,66,127
2181,note_on,2,0,0,,7,,,67,127
2181,note_on,0,0,0,,12,,,71,127
2409,note_off,228,0,0,,12,,,71,127
2411,note_on,2,0,0,,1,,,73,127
2637,note_off,226,0,0,,7,,,67,127
2639,note_off,2,0,0,,1,,,73,127
2641,note_on,2,0,0,,2,,,74,127
2869,note_off,228,0,0,,2,,,74,127
2871,note_on,2,0,0,,6,,,66,127
2871,note_on,0,0,0,,2,,,62,127
2871,note_on,0,0,0,,6,,,78,127
2945,note_off,74,0,0,,6,,,78,127
2947,note_on,2,0,0,,7,,,79,127
3021,note_off,74,0,0,,7,,,79,127
3023,note_on,2,0,0,,10,,,81,127
3097,note_off,74,0,0,,10,,,81,127
3097,note_off,0,0,0,,2,,,62,127
3097,note_off,0,0,0,,6,,,66,127
3099,note_on,2,0,0,,4,,,64,127
3099,note_on,0,0,0,,7,,,67,127
3099,note_on,0,0,0,,7,,,79,127
3327,note_off,228,0,0,,7,,,79,127
3327,note_off,0,0,0,,7,,,67,127
3327,note_off,0,0,0,,4,,,64,127
3329,note_on,2,0,0,,6,,,66,127
3329,note_on,0,0,0,,10,,,69,127
3329,note_on,0,0,0,,6,,,78,127
3557,note_off,228,0,0,,6,,,78,127
3557,note_off,0,0,0,,10,,,69,127
3557,note_off,0,0,0,,6,,,66,127
3559,note_on,2,0,0,,12,,,71,127
3559,note_on,0,0,0,,7,,,67,127
3559,note_on,0,0,0,,11,,,82,127
3787,note_off,228,0,0,,11,,,82,127
3789,note_on,2,0,0,,12,,,83,127
4017,note_off,228,0,0,,12,,,83,127
4017,note_off,0,0,0,,7,,,67,127
4017,note_off,0,0,0,,12,,,71,127
4019,note_on,2,0,0,,6,,,66,127
4019,note_on,0,0,0,,10,,,69,127
4019,note_on,0,0,0,,10,,,81,127
4247,note_off,228,0,0,,10,,,69,127
4247,note_off,0,0,0,,6,,,66,127
4249,note_on,2,0,0,,4,,,64,127
4249,note_on,0,0,0,,7,,,67,127
4249,note_on,0,0,0,,1,,,73,127
4477,note_off,228,0,0,,10,,,81,127
4479,note_on,2,0,0,,7,,,79,127
4707,note_off,228,0,0,,7,,,79,127
4707,note_off,0,0,0,,1,,,73,127
4707,note_off,0,0,0,,7,,,67,127
4707,note_off,0,0,0,,4,,,64,127
4709,note_on,2,0,0,,10,,,69,127
4709,note_on,0,0,0,,6,,,66,127
4709,note_on,0,0,0,,2,,,74,127
4709,note_on,0,0,0,,6,,,78,127
4937,note_off,228,0,0,,6,,,78,127
4937,note_off,0,0,0,,2,,,74,127
4937,note_off,0,0,0,,6,,,66,127
4937,note_off,0,0,0,,10,,,69,127
4939,note_on,2,0,0,,10,,,69,127
4939,note_on,0,0,0,,10,,,57,127
4939,note_on,0,0,0,,4,,,76,127
5013,note_off,74,0,0,,4,,,76,127
5015,note_on,2,0,0,,6,,,78,127
5089,note_off,74,0,0,,6,,,78,127
5091,note_on,2,0,0,,4,,,76,127
5165,note_off,74,0,0,,4,,,76,127
5167,note_on,2,0,0,,2,,,74,127
5395,note_off,228,0,0,,2,,,74,127
5397,note_on,2,0,0,,4,,,76,127
5625,note_off,228,0,0,,4,,,76,127
5625,note_off,0,0,0,,10,,,57,127
5625,note_off,0,0,0,,10,,,69,127
5627,note_on,2,0,0,,6,,,66,127
5627,note_on,0,0,0,,2,,,62,127
5627,note_on,0,0,0,,6,,,78,127
5701,note_off,74,0,0,,6,,,78,127
5703,note_on,2,0,0,,7,,,79,127
5777,note_off,74,0,0,,7,,,79,127
5779,note_on,2,0,0,,10,,,81,127
5853,note_off,74,0,0,,10,,,81,127
5853,note_off,0,0,0,,2,,,62,127
5853,note_off,0,0,0,,6,,,66,127
5855,note_on,2,0,0,,7,,,67,127
5855,note_on,0,0,0,,4,,,64,127
5855,note_on,0,0,0,,7,,,79,127
6083,note_off,228,0,0,,7,,,79,127
6083,note_off,0,0,0,,4,,,64,127
6083,note_off,0,0,0,,7,,,67,127
6085,note_on,2,0,0,,10,,,69,127
6085,note_on,0,0,0,,6,,,66,127
6085,note_on,0,0,0,,6,,,78,127
6313,note_off,228,0,0,,6,,,78,127
6313,note_off,0,0,0,,6,,,66,127
6313,note_off,0,0,0,,10,,,69,127
6315,note_on,2,0,0,,12,,,71,127
6315,note_on,0,0,0,,7,,,67,127
6315,note_on,0,0,0,,11,,,82,127
6543,note_off,228,0,0,,11,,,82,127
6545,note_on,2,0,0,,12,,,83,127
6773,note_off,228,0,0,,12,,,83,127
6773,note_off,0,0,0,,7,,,67,127
6773,note_off,0,0,0,,12,,,71,127
6775,note_on,2,0,0,,6,,,66,127
6775,note_on,0,0,0,,10,,,69,127
6775,note_on,0,0,0,,10,,,81,127
7003,note_off,228,0,0,,10,,,69,127
7003,note_off,0,0,0,,6,,,66,127
7005,note_on,2,0,0,,4,,,64,127
7005,note_on,0,0,0,,1,,,73,127
7005,note_on,0,0,0,,7,,,67,127
7233,note_off,228,0,0,,10,,,81,127
7235,note_on,2,0,0,,7,,,79,127
7463,note_off,228,0,0,,7,,,79,127
7463,note_off,0,0,0,,7,,,67,127
7463,note_off,0,0,0,,1,,,73,127
7463,note_off,0,0,0,,4,,,64,127
7465,note_on,2,0,0,,10,,,69,127
7465,note_on,0,0,0,,6,,,66,127
7465,note_on,0,0,0,,2,,,74,127
7465,note_on,0,0,0,,6,,,78,127
7693,note_off,228,0,0,,6,,,78,127
7693,note_off,0,0,0,,2,,,74,127
7693,note_off,0,0,0,,6,,,66,127
7693,note_off,0,0,0,,10,,,69,127
7695,note_on,2,0,0,,4,,,64,127
7695,note_on,0,0,0,,10,,,57,127
7695,note_on,0,0,0,,10,,,69,127
7695,note_on,0,0,0,,4,,,76,127
7695,note_on,0,0,0,,1,,,73,127
7846,note_off,151,0,0,,1,,,73,127
7846,note_off,0,0,0,,4,,,76,127
7848,note_on,2,0,0,,6,,,78,127
7848,note_on,0,0,0,,2,,,74,127
7922,note_off,74,0,0,,2,,,74,127
7922,note_off,0,0,0,,6,,,78,127
7922,note_off,0,0,0,,10,,,69,127
7922,note_off,0,0,0,,10,,,57,127
7922,note_off,0,0,0,,4,,,64,127
7924,note_on,2,0,0,,10,,,57,127
7924,note_on,0,0,0,,10,,,69,127
7924,note_on,0,0,0,,4,,,64,127
7924,note_on,0,0,0,,1,,,73,127
7924,note_on,0,0,0,,4,,,76,127
8075,note_off,151,0,0,,4,,,76,127
8075,note_off,0,0,0,,1,,,73,127
8077,note_on,2,0,0,,2,,,74,127
8077,note_on,0,0,0,,6,,,78,127
8151,note_off,74,0,0,,6,,,78,127
8151,note_off,0,0,0,,2,,,74,127
8151,note_off,0,0,0,,4,,,64,127
8151,note_off,0,0,0,,10,,,69,127
8151,note_off,0,0,0,,10,,,57,127
8153,note_on,2,0,0,,10,,,57,127
8153,note_on,0,0,0,,4,,,64,127
8153,note_on,0,0,0,,10,,,69,127
8153,note_on,0,0,0,,1,,,73,127
8153,note_on,0,0,0,,4,,,76,127
8304,note_off,151,0,0,,4,,,76,127
8304,note_off,0,0,0,,1,,,73,127
8306,note_on,2,0,0,,10,,,81,127
8306,note_on,0,0,0,,2,,,74,127
8380,note_off,74,0,0,,2,,,74,127
8380,note_off,0,0,0,,10,,,81,127
8380,note_off,0,0,0,,10,,,69,127
8380,note_off,0,0,0,,4,,,64,127
8380,note_off,0,0,0,,10,,,57,127
8382,note_on,2,0,0,,10,,,69,127
8382,note_on,0,0,0,,4,,,64,127
8382,note_on,0,0,0,,10,,,57,127
8382,note_on,0,0,0,,1,,,73,127
8382,note_on,0,0,0,,4,,,76,127
8533,note_off,151,0,0,,4,,,76,127
8533,note_off,0,0,0,,1,,,73,127
8535,note_on,2,0,0,,2,,,74,127
8535,note_on,0,0,0,,6,,,78,127
8609,note_off,74,0,0,,6,,,78,127
8609,note_off,0,0,0,,2,,,74,127
8609,note_off,0,0,0,,10,,,57,127
8609,note_off,0,0,0,,4,,,64,127
8609,note_off,0,0,0,,10,,,69,127
8611,note_on,2,0,0,,4,,,64,127
8611,note_on,0,0,0,,10,,,57,127
8611,note_on,0,0,0,,10,,,69,127
8611,note_on,0,0,0,,1,,,73,127
8611,note_on,0,0,0,,4,,,76,127
8762,note_off,151,0,0,,4,,,76,127
8762,note_off,0,0,0,,1,,,73,127
8764,note_on,2,0,0,,2,,,74,127
8764,note_on,0,0,0,,10,,,81,127
8838,note_off,74,0,0,,10,,,81,127
8838,note_off,0,0,0,,2,,,74,127
8838,note_off,0,0,0,,10,,,69,127
8838,note_off,0,0,0,,10,,,57,127
8838,note_off,0,0,0,,4,,,64,127
8840,note_on,2,0,0,,10,,,57,127
8840,note_on,0,0,0,,4,,,64,127
8840,note_on,0,0,0,,10,,,69,127
8840,note_on,0,0,0,,1,,,73,127
8840,note_on,0,0,0,,4,,,76,127
8991,note_off,151,0,0,,4,,,76,127
8991,note_off,0,0,0,,1,,,73,127
9016,note_on,25,0,0,,2,,,74,127
9016,note_on,0,0,0,,6,,,78,127
9068,note_off,52,0,0,,10,,,69,127
9068,note_off,0,0,0,,4,,,64,127
9068,note_off,0,0,0,,10,,,57,127
9135,note_off,67,0,0,,6,,,78,127
9135,note_off,0,0,0,,2,,,74,127
9139,note_on,4,0,0,,4,,,76,127
9139,note_on,0,0,0,,1,,,73,127
9139,note_on,0,0,0,,10,,,69,127
9139,note_on,0,0,0,,4,,,64,127
9139,note_on,0,0,0,,10,,,57,127
9200,note_on,61,0,0,,6,,,78,127
9200,note_on,0,0,0,,2,,,74,127
9216,note_off,16,0,0,,1,,,73,127
9216,note_off,0,0,0,,4,,,76,127
9263,note_on,47,0,0,,4,,,76,127
9263,note_on,0,0,0,,1,,,73,127
9277,note_off,14,0,0,,2,,,74,127
9277,note_off,0,0,0,,6,,,78,127
9324,note_on,47,0,0,,2,,,74,127
9324,note_on,0,0,0,,6,,,78,127
9337,note_off,13,0,0,,1,,,73,127
9337,note_off,0,0,0,,4,,,76,127
9379,note_on,42,0,0,,1,,,73,127
9379,note_on,0,0,0,,4,,,76,127
9396,note_off,17,0,0,,6,,,78,127
9396,note_off,0,0,0,,2,,,74,127
9436,note_on,40,0,0,,2,,,74,127
9436,note_on,0,0,0,,6,,,78,127
9449,note_off,13,0,0,,4,,,76,127
9449,note_off,0,0,0,,1,,,73,127
9491,note_on,42,0,0,,1,,,73,127
9491,note_on,0,0,0,,4,,,76,127
9503,note_off,12,0,0,,6,,,78,127
9503,note_off,0,0,0,,2,,,74,127
9546,note_on,43,0,0,,2,,,74,127
9546,note_on,0,0,0,,6,,,78,127
9556,note_off,10,0,0,,4,,,76,127
9556,note_off,0,0,0,,1,,,73,127
9603,note_on,47,0,0,,1,,,73,127
9603,note_on,0,0,0,,4,,,76,127
9609,note_off,6,0,0,,6,,,78,127
9609,note_off,0,0,0,,2,,,74,127
9658,note_on,49,0,0,,6,,,78,127
9658,note_on,0,0,0,,2,,,74,127
9663,note_off,5,0,0,,4,,,76,127
9663,note_off,0,0,0,,1,,,73,127
9705,note_on,42,0,0,,4,,,76,127
9705,note_on,0,0,0,,1,,,73,127
9716,note_off,11,0,0,,2,,,74,127
9716,note_off,0,0,0,,6,,,78,127
9751,note_on,35,0,0,,6,,,78,127
9751,note_on,0,0,0,,2,,,74,127
9762,note_off,11,0,0,,1,,,73,127
9762,note_off,0,0,0,,4,,,76,127
9799,note_on,37,0,0,,4,,,76,127
9799,note_on,0,0,0,,1,,,73,127
9806,note_off,7,0,0,,2,,,74,127
9806,note_off,0,0,0,,6,,,78,127
9843,note_on,37,0,0,,6,,,78,127
9843,note_on,0,0,0,,2,,,74,127
9853,note_off,10,0,0,,1,,,73,127
9853,note_off,0,0,0,,4,,,76,127
9891,note_on,38,0,0,,4,,,76,127
9891,note_on,0,0,0,,1,,,73,127
9896,note_off,5,0,0,,2,,,74,127
9896,note_off,0,0,0,,6,,,78,127
9939,note_on,43,0,0,,2,,,74,127
9939,note_on,0,0,0,,6,,,78,127
9943,note_off,4,0,0,,1,,,73,127
9943,note_off,0,0,0,,4,,,76,127
9979,note_on,36,0,0,,1,,,73,127
9979,note_on,0,0,0,,4,,,76,127
9990,note_off,11,0,0,,6,,,78,127
9990,note_off,0,0,0,,2,,,74,127
10022,note_on,32,0,0,,2,,,74,127
10022,note_on,0,0,0,,6,,,78,127
10028,note_off,6,0,0,,4,,,76,127
10028,note_off,0,0,0,,1,,,73,127
10064,note_on,36,0,0,,1,,,73,127
10064,note_on,0,0,0,,4,,,76,127
10070,note_off,6,0,0,,6,,,78,127
10070,note_off,0,0,0,,2,,,74,127
10106,note_on,36,0,0,,2,,,74,127
10106,note_on,0,0,0,,6,,,78,127
10111,note_off,5,0,0,,4,,,76,127
10111,note_off,0,0,0,,1,,,73,127
10148,note_on,37,0,0,,1,,,73,127
10148,note_on,0,0,0,,4,,,76,127
10153,note_off,5,0,0,,6,,,78,127
10153,note_off,0,0,0,,2,,,74,127
10190,note_on,37,0,0,,6,,,78,127
10190,note_on,0,0,0,,2,,,74,127
10195,note_off,5,0,0,,4,,,76,127
10195,note_off,0,0,0,,1,,,73,127
10229,note_on,34,0,0,,4,,,76,127
10229,note_on,0,0,0,,1,,,73,127
10236,note_off,7,0,0,,2,,,74,127
10236,note_off,0,0,0,,6,,,78,127
10270,note_on,34,0,0,,6,,,78,127
10270,note_on,0,0,0,,2,,,74,127
10275,note_off,5,0,0,,1,,,73,127
10275,note_off,0,0,0,,4,,,76,127
10311,note_on,36,0,0,,4,,,76,127
10311,note_on,0,0,0,,1,,,73,127
10316,note_off,5,0,0,,2,,,74,127
10316,note_off,0,0,0,,6,,,78,127
10350,note_on,34,0,0,,6,,,78,127
10350,note_on,0,0,0,,2,,,74,127
10357,note_off,7,0,0,,1,,,73,127
10357,note_off,0,0,0,,4,,,76,127
10389,note_on,32,0,0,,4,,,76,127
10389,note_on,0,0,0,,1,,,73,127
10395,note_off,6,0,0,,2,,,74,127
10395,note_off,0,0,0,,6,,,78,127
10431,note_on,36,0,0,,6,,,78,127
10431,note_on,0,0,0,,2,,,74,127
10435,note_off,4,0,0,,1,,,73,127
10435,note_off,0,0,0,,4,,,76,127
10472,note_on,37,0,0,,4,,,76,127
10472,note_on,0,0,0,,1,,,73,127
10477,note_off,5,0,0,,2,,,74,127
10477,note_off,0,0,0,,6,,,78,127
10511,note_on,34,0,0,,6,,,78,127
10511,note_on,0,0,0,,2,,,74,127
10518,note_off,7,0,0,,1,,,73,127
10518,note_off,0,0,0,,4,,,76,127
10552,note_on,34,0,0,,4,,,76,127
10552,note_on,0,0,0,,1,,,73,127
10557,note_off,5,0,0,,2,,,74,127
10557,note_off,0,0,0,,6,,,78,127
10592,note_on,35,0,0,,6,,,78,127
10592,note_on,0,0,0,,2,,,74,127
10598,note_off,6,0,0,,1,,,73,127
10598,note_off,0,0,0,,4,,,76,127
10633,note_on,35,0,0,,1,,,73,127
10633,note_on,0,0,0,,4,,,76,127
10638,note_off,5,0,0,,2,,,74,127
10638,note_off,0,0,0,,6,,,78,127
10672,note_on,34,0,0,,2,,,74,127
10672,note_on,0,0,0,,6,,,78,127
10679,note_off,7,0,0,,4,,,76,127
10679,note_off,0,0,0,,1,,,73,127
10710,note_on,31,0,0,,1,,,73,127
10710,note_on,0,0,0,,4,,,76,127
10717,note_off,7,0,0,,6,,,78,127
10717,note_off,0,0,0,,2,,,74,127
10752,note_on,35,0,0,,2,,,74,127
10752,note_on,0,0,0,,6,,,78,127
10756,note_off,4,0,0,,4,,,76,127
10756,note_off,0,0,0,,1,,,73,127
10791,note_on,35,0,0,,4,,,76,127
10791,note_on,0,0,0,,1,,,73,127
10798,note_off,7,0,0,,6,,,78,127
10798,note_off,0,0,0,,2,,,74,127
10829,note_on,31,0,0,,6,,,78,127
10829,note_on,0,0,0,,2,,,74,127
10836,note_off,7,0,0,,1,,,73,127
10836,note_off,0,0,0,,4,,,76,127
10867,note_on,31,0,0,,4,,,76,127
10867,note_on,0,0,0,,1,,,73,127
10874,note_off,7,0,0,,2,,,74,127
10874,note_off,0,0,0,,6,,,78,127
10909,note_on,35,0,0,,6,,,78,127
10909,note_on,0,0,0,,2,,,74,127
10913,note_off,4,0,0,,1,,,73,127
10913,note_off,0,0,0,,4,,,76,127
10948,note_on,35,0,0,,4,,,76,127
10948,note_on,0,0,0,,1,,,73,127
10955,note_off,7,0,0,,2,,,74,127
10955,note_off,0,0,0,,6,,,78,127
10987,note_on,32,0,0,,6,,,78,127
10987,note_on,0,0,0,,2,,,74,127
10993,note_off,6,0,0,,1,,,73,127
10993,note_off,0,0,0,,4,,,76,127
11028,note_on,35,0,0,,4,,,76,127
11028,note_on,0,0,0,,1,,,73,127
11033,note_off,5,0,0,,2,,,74,127
11033,note_off,0,0,0,,6,,,78,127
11067,note_on,34,0,0,,6,,,78,127
11067,note_on,0,0,0,,2,,,74,127
11074,note_off,7,0,0,,1,,,73,127
11074,note_off,0,0,0,,4,,,76,127
11105,note_on,31,0,0,,4,,,76,127
11105,note_on,0,0,0,,1,,,73,127
11112,note_off,7,0,0,,2,,,74,127
11112,note_off,0,0,0,,6,,,78,127
11147,note_on,35,0,0,,6,,,78,127
11147,note_on,0,0,0,,2,,,74,127
11151,note_off,4,0,0,,1,,,73,127
11151,note_off,0,0,0,,4,,,76,127
11186,note_on,35,0,0,,4,,,76,127
11186,note_on,0,0,0,,1,,,73,127
11193,note_off,7,0,0,,2,,,74,127
11193,note_off,0,0,0,,6,,,78,127
11224,note_on,31,0,0,,6,,,78,127
11224,note_on,0,0,0,,2,,,74,127
11231,note_off,7,0,0,,1,,,73,127
11231,note_off,0,0,0,,4,,,76,127
11262,note_on,31,0,0,,4,,,76,127
11262,note_on,0,0,0,,1,,,73,127
11269,note_off,7,0,0,,2,,,74,127
11269,note_off,0,0,0,,6,,,78,127
11304,note_on,35,0,0,,6,,,78,127
11304,note_on,0,0,0,,2,,,74,127
11308,note_off,4,0,0,,1,,,73,127
11308,note_off,0,0,0,,4,,,76,127
11343,note_on,35,0,0,,4,,,76,127
11343,note_on,0,0,0,,1,,,73,127
11350,note_off,7,0,0,,2,,,74,127
11350,note_off,0,0,0,,6,,,78,127
12185,note_off,835,0,0,,10,,,57,127
12185,note_off,0,0,0,,4,,,64,127
12185,note_off,0,0,0,,10,,,69,127
12303,note_off,118,0,0,,1,,,73,127
12303,note_off,0,0,0,,4,,,76,127
12531,note_on,228,0,0,,10,,,69,127
12531,note_on,0,0,0,,0,,,72,127
12531,note_on,0,0,0,,4,,,76,127
12605,note_off,74,0,0,,4,,,76,127
12607,note_on,2,0,0,,5,,,77,127
12681,note_off,74,0,0,,5,,,77,127
12683,note_on,2,0,0,,7,,,79,127
12757,note_off,74,0,0,,7,,,79,127
12757,note_off,0,0,0,,0,,,72,127
12757,note_off,0,0,0,,10,,,69,127
12759,note_on,2,0,0,,0,,,72,127
12759,note_on,0,0,0,,10,,,69,127
12759,note_on,0,0,0,,5,,,77,127
12987,note_off,228,0,0,,5,,,77,127
12987,note_off,0,0,0,,10,,,69,127
12987,note_off,0,0,0,,0,,,72,127
12989,note_on,2,0,0,,10,,,69,127
12989,note_on,0,0,0,,0,,,72,127
12989,note_on,0,0,0,,4,,,76,127
13217,note_off,228,0,0,,4,,,76,127
13217,note_off,0,0,0,,0,,,72,127
13217,note_off,0,0,0,,10,,,69,127
13219,note_on,2,0,0,,10,,,69,127
13219,note_on,0,0,0,,2,,,74,127
13219,note_on,0,0,0,,5,,,65,127
13219,note_on,0,0,0,,2,,,86,127
13447,note_off,228,0,0,,2,,,86,127
13447,note_off,0,0,0,,5,,,65,127
13447,note_off,0,0,0,,2,,,74,127
13447,note_off,0,0,0,,10,,,69,127
13449,note_on,2,0,0,,10,,,69,127
13449,note_on,0,0,0,,2,,,74,127
13449,note_on,0,0,0,,5,,,65,127
13449,note_on,0,0,0,,8,,,80,127
13677,note_off,228,0,0,,8,,,80,127
13677,note_off,0,0,0,,5,,,65,127
13677,note_off,0,0,0,,2,,,74,127
13677,note_off,0,0,0,,10,,,69,127
13679,note_on,2,0,0,,2,,,74,127
13679,note_on,0,0,0,,10,,,69,127
13679,note_on,0,0,0,,5,,,65,127
13679,note_on,0,0,0,,10,,,81,127
13907,note_off,228,0,0,,10,,,81,127
13907,note_off,0,0,0,,5,,,65,127
13907,note_off,0,0,0,,10,,,69,127
13907,note_off,0,0,0,,2,,,74,127
13909,note_on,2,0,0,,5,,,65,127
13909,note_on,0,0,0,,10,,,69,127
13909,note_on,0,0,0,,2,,,74,127
13909,note_on,0,0,0,,4,,,76,127
13983,note_off,74,0,0,,4,,,76,127
13985,note_on,2,0,0,,5,,,77,127
14059,note_off,74,0,0,,5,,,77,127
14061,note_on,2,0,0,,7,,,79,127
14135,note_off,74,0,0,,7,,,79,127
14135,note_off,0,0,0,,2,,,74,127
14135,note_off,0,0,0,,10,,,69,127
14135,note_off,0,0,0,,5,,,65,127
14137,note_on,2,0,0,,2,,,74,127
14137,note_on,0,0,0,,5,,,65,127
14137,note_on,0,0,0,,10,,,69,127
14137,note_on,0,0,0,,5,,,77,127
14365,note_off,228,0,0,,5,,,77,127
14365,note_off,0,0,0,,10,,,69,127
14365,note_off,0,0,0,,5,,,65,127
14365,note_off,0,0,0,,2,,,74,127
14367,note_on,2,0,0,,5,,,65,127
14367,note_on,0,0,0,,10,,,69,127
14367,note_on,0,0,0,,2,,,74,127
14367,note_on,0,0,0,,4,,,76,127
14595,note_off,228,0,0,,4,,,76,127
14595,note_off,0,0,0,,2,,,74,127
14595,note_off,0,0,0,,10,,,69,127
14595,note_off,0,0,0,,5,,,65,127
14597,note_on,2,0,0,,0,,,72,127
14597,note_on,0,0,0,,4,,,64,127
14597,note_on,0,0,0,,10,,,69,127
14597,note_on,0,0,0,,0,,,84,127
14825,note_off,228,0,0,,0,,,84,127
14825,note_off,0,0,0,,10,,,69,127
14825,note_off,0,0,0,,4,,,64,127
14825,note_off,0,0,0,,0,,,72,127
14827,note_on,2,0,0,,0,,,72,127
14827,note_on,0,0,0,,4,,,64,127
14827,note_on,0,0,0,,10,,,69,127
14827,note_on,0,0,0,,8,,,80,127
15055,note_off,228,0,0,,8,,,80,127
15055,note_off,0,0,0,,10,,,69,127
15055,note_off,0,0,0,,4,,,64,127
15055,note_off,0,0,0,,0,,,72,127
15057,note_on,2,0,0,,0,,,72,127
15057,note_on,0,0,0,,4,,,64,127
15057,note_on,0,0,0,,10,,,69,127
15057,note_on,0,0,0,,10,,,81,127
15285,note_off,228,0,0,,10,,,81,127
15285,note_off,0,0,0,,10,,,69,127
15285,note_off,0,0,0,,4,,,64,127
15285,note_off,0,0,0,,0,,,72,127
15287,note_on,2,0,0,,0,,,72,127
15287,note_on,0,0,0,,4,,,64,127
15287,note_on,0,0,0,,10,,,69,127
15287,note_on,0,0,0,,4,,,76,127
15361,note_off,74,0,0,,4,,,76,127
15363,note_on,2,0,0,,5,,,77,127
15437,note_off,74,0,0,,5,,,77,127
15439,note_on,2,0,0,,7,,,79,127
15513,note_off,74,0,0,,7,,,79,127
15513,note_off,0,0,0,,10,,,69,127
15513,note_off,0,0,0,,4,,,64,127
15513,note_off,0,0,0,,0,,,72,127
15515,note_on,2,0,0,,0,,,72,127
15515,note_on,0,0,0,,4,,,64,127
15515,note_on,0,0,0,,10,,,69,127
15515,note_on,0,0,0,,5,,,77,127
15743,note_off,228,0,0,,5,,,77,127
15743,note_off,0,0,0,,10,,,69,127
15743,note_off,0,0,0,,4,,,64,127
15743,note_off,0,0,0,,0,,,72,127
15745,note_on,2,0,0,,0,,,72,127
15745,note_on,0,0,0,,10,,,69,127
15745,note_on,0,0,0,,4,,,64,127
15745,note_on,0,0,0,,4,,,76,127
15973,note_off,228,0,0,,4,,,76,127
15973,note_off,0,0,0,,4,,,64,127
15973,note_off,0,0,0,,10,,,69,127
15973,note_off,0,0,0,,0,,,72,127
15975,note_on,2,0,0,,10,,,69,127
15975,note_on,0,0,0,,12,,,71,127
15975,note_on,0,0,0,,2,,,62,127
15975,note_on,0,0,0,,2,,,86,127
16203,note_off,228,0,0,,2,,,86,127
16203,note_off,0,0,0,,2,,,62,127
16203,note_off,0,0,0,,12,,,71,127
16203,note_off,0,0,0,,10,,,69,127
16205,note_on,2,0,0,,12,,,71,127
16205,note_on,0,0,0,,2,,,62,127
16205,note_on,0,0,0,,10,,,69,127
16205,note_on,0,0,0,,8,,,80,127
16433,note_off,228,0,0,,8,,,80,127
16433,note_off,0,0,0,,10,,,69,127
16433,note_off,0,0,0,,2,,,62,127
16433,note_off,0,0,0,,12,,,71,127
16435,note_on,2,0,0,,12,,,71,127
16435,note_on,0,0,0,,2,,,62,127
16435,note_on,0,0,0,,10,,,69,127
16435,note_on,0,0,0,,10,,,81,127
16663,note_off,228,0,0,,10,,,81,127
16663,note_off,0,0,0,,10,,,69,127
16663,note_off,0,0,0,,2,,,62,127
16663,note_off,0,0,0,,12,,,71,127
16665,note_on,2,0,0,,12,,,71,127
16665,note_on,0,0,0,,2,,,62,127
16665,note_on,0,0,0,,10,,,69,127
16665,note_on,0,0,0,,4,,,76,127
16739,note_off,74,0,0,,4,,,76,127
16741,note_on,2,0,0,,5,,,77,127
16815,note_off,74,0,0,,5,,,77,127
16817,note_on,2,0,0,,7,,,79,127
16891,note_off,74,0,0,,7,,,79,127
16891,note_off,0,0,0,,10,,,69,127
16891,note_off,0,0,0,,2,,,62,127
16891,note_off,0,0,0,,12,,,71,127
16893,note_on,2,0,0,,12,,,71,127
16893,note_on,0,0,0,,2,,,62,127
16893,note_on,0,0,0,,10,,,69,127
16893,note_on,0,0,0,,5,,,77,127
17121,note_off,228,0,0,,5,,,77,127
17121,note_off,0,0,0,,10,,,69,127
17121,note_off,0,0,0,,2,,,62,127
17121,note_off,0,0,0,,12,,,71,127
17123,note_on,2,0,0,,2,,,62,127
17123,note_on,0,0,0,,10,,,69,127
17123,note_on,0,0,0,,12,,,71,127
17123,note_on,0,0,0,,4,,,76,127
17351,note_off,228,0,0,,4,,,76,127
17351,note_off,0,0,0,,12,,,71,127
17351,note_off,0,0,0,,10,,,69,127
17351,note_off,0,0,0,,2,,,62,127
17353,note_on,2,0,0,,10,,,69,127
17353,note_on,0,0,0,,0,,,60,127
17353,note_on,0,0,0,,4,,,64,127
17353,note_on,0,0,0,,0,,,84,127
17581,note_off,228,0,0,,0,,,84,127
17581,note_off,0,0,0,,4,,,64,127
17581,note_off,0,0,0,,0,,,60,127
17581,note_off,0,0,0,,10,,,69,127
17583,note_on,2,0,0,,4,,,64,127
17583,note_on,0,0,0,,10,,,69,127
17583,note_on,0,0,0,,0,,,60,127
17583,note_on,0,0,0,,8,,,80,127
17811,note_off,228,0,0,,8,,,80,127
17811,note_off,0,0,0,,0,,,60,127
17811,note_off,0,0,0,,10,,,69,127
17811,note_off,0,0,0,,4,,,64,127
17813,note_on,2,0,0,,10,,,69,127
17813,note_on,0,0,0,,0,,,60,127
17813,note_on,0,0,0,,4,,,64,127
17813,note_on,0,0,0,,10,,,81,127
18041,note_off,228,0,0,,10,,,81,127
18041,note_off,0,0,0,,4,,,64,127
18041,note_off,0,0,0,,0,,,60,127
18041,note_off,0,0,0,,10,,,69,127
18043,note_on,2,0,0,,10,,,57,127
18043,note_on,0,0,0,,5,,,77,127
18117,note_off,74,0,0,,5,,,77,127
18119,note_on,2,0,0,,7,,,79,127
18193,note_off,74,0,0,,7,,,79,127
18195,note_on,2,0,0,,10,,,81,127
18269,note_off,74,0,0,,10,,,81,127
18271,note_on,2,0,0,,7,,,79,127
18499,note_off,228,0,0,,7,,,79,127
18499,note_off,0,0,0,,10,,,57,127
18501,note_on,2,0,0,,10,,,69,127
18501,note_on,0,0,0,,5,,,77,127
18729,note_off,228,0,0,,5,,,77,127
18731,note_on,2,0,0,,3,,,75,127
18959,note_off,228,0,0,,3,,,75,127
18959,note_off,0,0,0,,10,,,69,127
18961,note_on,2,0,0,,8,,,68,127
18961,note_on,0,0,0,,4,,,76,127
18961,note_on,0,0,0,,2,,,74,127
19189,note_off,228,0,0,,2,,,74,127
19189,note_off,0,0,0,,4,,,76,127
19189,note_off,0,0,0,,8,,,68,127
19191,note_on,2,0,0,,10,,,69,127
19191,note_on,0,0,0,,4,,,76,127
19191,note_on,0,0,0,,0,,,72,127
19419,note_off,228,0,0,,0,,,72,127
19419,note_off,0,0,0,,4,,,76,127
19419,note_off,0,0,0,,10,,,69,127
19421,note_on,2,0,0,,2,,,62,127
19421,note_on,0,0,0,,5,,,65,127
19421,note_on,0,0,0,,11,,,70,127
19421,note_on,0,0,0,,2,,,74,127
19649,note_off,228,0,0,,2,,,74,127
19649,note_off,0,0,0,,11,,,70,127
19651,note_on,2,0,0,,10,,,69,127
19879,note_off,228,0,0,,10,,,69,127
19879,note_off,0,0,0,,5,,,65,127
19879,note_off,0,0,0,,2,,,62,127
19881,note_on,2,0,0,,2,,,62,127
19881,note_on,0,0,0,,8,,,68,127
20109,note_off,228,0,0,,8,,,68,127
20109,note_off,0,0,0,,2,,,62,127
20111,note_on,2,0,0,,0,,,60,127
20111,note_on,0,0,0,,4,,,64,127
20111,note_on,0,0,0,,12,,,71,127
20169,note_on,58,0,0,,10,,,69,127
20171,note_off,2,0,0,,12,,,71,127
20226,note_on,55,0,0,,12,,,71,127
20228,note_off,2,0,0,,10,,,69,127
20283,note_on,55,0,0,,10,,,69,127
20285,note_off,2,0,0,,12,,,71,127
20338,note_off,53,0,0,,4,,,64,127
20338,note_off,0,0,0,,0,,,60,127
20340,note_on,2,0,0,,12,,,59,127
20340,note_on,0,0,0,,2,,,62,127
20340,note_on,0,0,0,,8,,,68,127
20342,note_off,2,0,0,,10,,,69,127
20568,note_off,226,0,0,,8,,,68,127
20568,note_off,0,0,0,,2,,,62,127
20568,note_off,0,0,0,,12,,,59,127
20570,note_on,2,0,0,,10,,,57,127
20570,note_on,0,0,0,,0,,,60,127
20570,note_on,0,0,0,,10,,,69,127
20798,note_off,228,0,0,,10,,,69,127
20798,note_off,0,0,0,,0,,,60,127
20798,note_off,0,0,0,,10,,,57,127
20800,note_on,2,0,0,,10,,,57,127
20800,note_on,0,0,0,,5,,,77,127
20874,note_off,74,0,0,,5,,,77,127
20876,note_on,2,0,0,,7,,,79,127
20950,note_off,74,0,0,,7,,,79,127
20952,note_on,2,0,0,,10,,,81,127
21026,note_off,74,0,0,,10,,,81,127
21028,note_on,2,0,0,,5,,,77,127
21256,note_off,228,0,0,,5,,,77,127
21256,note_off,0,0,0,,10,,,57,127
21258,note_on,2,0,0,,10,,,69,127
21258,note_on,0,0,0,,4,,,76,127
21486,note_off,228,0,0,,4,,,76,127
21488,note_on,2,0,0,,3,,,75,127
21716,note_off,228,0,0,,3,,,75,127
21716,note_off,0,0,0,,10,,,69,127
21718,note_on,2,0,0,,8,,,68,127
21718,note_on,0,0,0,,4,,,76,127
21718,note_on,0,0,0,,2,,,74,127
21946,note_off,228,0,0,,2,,,74,127
21946,note_off,0,0,0,,4,,,76,127
21946,note_off,0,0,0,,8,,,68,127
21948,note_on,2,0,0,,10,,,69,127
21948,note_on,0,0,0,,0,,,72,127
21948,note_on,0,0,0,,4,,,76,127
22176,note_off,228,0,0,,4,,,76,127
22176,note_off,0,0,0,,0,,,72,127
22176,note_off,0,0,0,,10,,,69,127
22178,note_on,2,0,0,,2,,,62,127
22178,note_on,0,0,0,,5,,,65,127
22178,note_on,0,0,0,,11,,,70,127
22178,note_on,0,0,0,,2,,,74,127
22406,note_off,228,0,0,,2,,,74,127
22406,note_off,0,0,0,,11,,,70,127
22408,note_on,2,0,0,,10,,,69,127
22636,note_off,228,0,0,,10,,,69,127
22636,note_off,0,0,0,,5,,,65,127
22636,note_off,0,0,0,,2,,,62,127
22638,note_on,2,0,0,,5,,,65,127
22638,note_on,0,0,0,,2,,,62,127
22638,note_on,0,0,0,,8,,,68,127
22866,note_off,228,0,0,,8,,,68,127
22866,note_off,0,0,0,,2,,,62,127
22866,note_off,0,0,0,,5,,,65,127
22868,note_on,2,0,0,,0,,,60,127
22868,note_on,0,0,0,,4,,,64,127
22868,note_on,0,0,0,,8,,,68,127
23096,note_off,228,0,0,,8,,,68,127
23098,note_on,2,0,0,,10,,,69,127
23326,note_off,228,0,0,,10,,,69,127
23326,note_off,0,0,0,,4,,,64,127
23326,note_off,0,0,0,,0,,,60,127
23328,note_on,2,0,0,,12,,,59,127
23328,note_on,0,0,0,,2,,,62,127
23328,note_on,0,0,0,,7,,,67,127
23556,note_off,228,0,0,,7,,,67,127
23556,note_off,0,0,0,,2,,,62,127
23556,note_off,0,0,0,,12,,,59,127
23558,note_on,2,0,0,,10,,,57,127
23558,note_on,0,0,0,,0,,,60,127
23558,note_on,0,0,0,,5,,,65,127
23632,note_off,74,0,0,,5,,,65,127
23634,note_on,2,0,0,,7,,,67,127
23708,note_off,74,0,0,,7,,,67,127
23710,note_on,2,0,0,,5,,,65,127
23784,note_off,74,0,0,,5,,,65,127
23786,note_on,2,0,0,,4,,,64,127
24014,note_off,228,0,0,,4,,,64,127
24014,note_off,0,0,0,,0,,,60,127
24014,note_off,0,0,0,,10,,,57,127
24016,note_on,2,0,0,,10,,,57,127
24016,note_on,0,0,0,,0,,,60,127
24016,note_on,0,0,0,,3,,,63,127
24244,note_off,228,0,0,,3,,,63,127
24244,note_off,0,0,0,,0,,,60,127
24244,note_off,0,0,0,,10,,,57,127
24246,note_on,2,0,0,,8,,,56,127
24246,note_on,0,0,0,,12,,,59,127
24246,note_on,0,0,0,,3,,,63,127
24474,note_off,228,0,0,,3,,,63,127
24476,note_on,2,0,0,,4,,,64,127
24704,note_off,228,0,0,,4,,,64,127
24704,note_off,0,0,0,,12,,,59,127
24704,note_off,0,0,0,,8,,,56,127
24706,note_on,2,0,0,,10,,,57,127
24706,note_on,0,0,0,,0,,,60,127
24706,note_on,0,0,0,,0,,,72,127
24780,note_off,74,0,0,,0,,,72,127
24782,note_on,2,0,0,,2,,,74,127
24856,note_off,74,0,0,,2,,,74,127
24858,note_on,2,0,0,,4,,,76,127
24932,note_off,74,0,0,,4,,,76,127
24932,note_off,0,0,0,,0,,,60,127
24932,note_off,0,0,0,,10,,,57,127
24934,note_on,2,0,0,,2,,,62,127
24934,note_on,0,0,0,,12,,,59,127
24934,note_on,0,0,0,,4,,,76,127
25162,note_off,228,0,0,,4,,,76,127
25164,note_on,2,0,0,,2,,,74,127
25238,note_off,74,0,0,,2,,,74,127
25240,note_on,2,0,0,,4,,,76,127
25314,note_off,74,0,0,,4,,,76,127
25316,note_on,2,0,0,,2,,,74,127
25390,note_off,74,0,0,,2,,,74,127
25390,note_off,0,0,0,,12,,,59,127
25390,note_off,0,0,0,,2,,,62,127
25392,note_on,2,0,0,,0,,,60,127
25392,note_on,0,0,0,,4,,,64,127
25392,note_on,0,0,0,,0,,,72,127
25620,note_off,228,0,0,,0,,,72,127
25620,note_off,0,0,0,,4,,,64,127
25620,note_off,0,0,0,,0,,,60,127
25622,note_on,2,0,0,,2,,,62,127
25622,note_on,0,0,0,,5,,,65,127
25622,note_on,0,0,0,,0,,,72,127
25850,note_off,228,0,0,,0,,,72,127
25852,note_on,2,0,0,,12,,,71,127
25926,note_off,74,0,0,,12,,,71,127
25928,note_on,2,0,0,,0,,,72,127
26002,note_off,74,0,0,,0,,,72,127
26004,note_on,2,0,0,,12,,,71,127
26078,note_off,74,0,0,,12,,,71,127
26078,note_off,0,0,0,,5,,,65,127
26078,note_off,0,0,0,,2,,,62,127
26080,note_on,2,0,0,,4,,,64,127
26080,note_on,0,0,0,,0,,,60,127
26080,note_on,0,0,0,,10,,,69,127
26308,note_off,228,0,0,,10,,,69,127
26308,note_off,0,0,0,,0,,,60,127
26308,note_off,0,0,0,,4,,,64,127
26310,note_on,2,0,0,,12,,,59,127
26310,note_on,0,0,0,,2,,,62,127
26310,note_on,0,0,0,,10,,,69,127
26538,note_off,228,0,0,,10,,,69,127
26540,note_on,2,0,0,,8,,,68,127
26691,note_off,151,0,0,,8,,,68,127
26693,note_on,2,0,0,,12,,,71,127
26767,note_off,74,0,0,,12,,,71,127
26767,note_off,0,0,0,,2,,,62,127
26767,note_off,0,0,0,,12,,,59,127
26769,note_on,2,0,0,,0,,,60,127
26769,note_on,0,0,0,,4,,,64,127
26769,note_on,0,0,0,,10,,,69,127
26843,note_off,74,0,0,,10,,,69,127
26845,note_on,2,0,0,,8,,,68,127
26919,note_off,74,0,0,,8,,,68,127
26921,note_on,2,0,0,,10,,,69,127
26995,note_off,74,0,0,,10,,,69,127
26995,note_off,0,0,0,,4,,,64,127
26995,note_off,0,0,0,,0,,,60,127
26997,note_on,2,0,0,,12,,,59,127
26997,note_on,0,0,0,,4,,,64,127
26997,note_on,0,0,0,,8,,,56,127
26997,note_on,0,0,0,,10,,,69,127
27225,note_off,228,0,0,,10,,,69,127
27227,note_on,2,0,0,,12,,,71,127
27455,note_off,228,0,0,,12,,,71,127
27455,note_off,0,0,0,,8,,,56,127
27455,note_off,0,0,0,,4,,,64,127
27455,note_off,0,0,0,,12,,,59,127
27457,note_on,2,0,0,,4,,,64,127
27457,note_on,0,0,0,,10,,,57,127
27457,note_on,0,0,0,,0,,,60,127
27457,note_on,0,0,0,,0,,,72,127
27531,note_off,74,0,0,,0,,,72,127
27533,note_on,2,0,0,,2,,,74,127
27607,note_off,74,0,0,,2,,,74,127
27609,note_on,2,0,0,,4,,,76,127
27683,note_off,74,0,0,,4,,,76,127
27683,note_off,0,0,0,,0,,,60,127
27683,note_off,0,0,0,,10,,,57,127
27683,note_off,0,0,0,,4,,,64,127
27685,note_on,2,0,0,,4,,,64,127
27685,note_on,0,0,0,,12,,,59,127
27685,note_on,0,0,0,,2,,,62,127
27685,note_on,0,0,0,,4,,,76,127
27913,note_off,228,0,0,,4,,,76,127
27915,note_on,2,0,0,,2,,,74,127
27989,note_off,74,0,0,,2,,,74,127
27991,note_on,2,0,0,,4,,,76,127
28065,note_off,74,0,0,,4,,,76,127
28067,note_on,2,0,0,,2,,,74,127
28141,note_off,74,0,0,,2,,,74,127
28141,note_off,0,0,0,,2,,,62,127
28141,note_off,0,0,0,,12,,,59,127
28141,note_off,0,0,0,,4,,,64,127
28143,note_on,2,0,0,,4,,,64,127
28143,note_on,0,0,0,,0,,,60,127
28143,note_on,0,0,0,,0,,,72,127
28371,note_off,228,0,0,,0,,,72,127
28371,note_off,0,0,0,,0,,,60,127
28371,note_off,0,0,0,,4,,,64,127
28373,note_on,2,0,0,,2,,,62,127
28373,note_on,0,0,0,,0,,,72,127
28601,note_off,228,0,0,,0,,,72,127
28601,note_off,0,0,0,,2,,,62,127
28603,note_on,2,0,0,,5,,,65,127
28603,note_on,0,0,0,,12,,,71,127
28677,note_off,74,0,0,,12,,,71,127
28679,note_on,2,0,0,,0,,,72,127
28753,note_off,74,0,0,,0,,,72,127
28755,note_on,2,0,0,,12,,,71,127
28829,note_off,74,0,0,,12,,,71,127
28829,note_off,0,0,0,,5,,,65,127
28831,note_on,2,0,0,,0,,,60,127
28831,note_on,0,0,0,,4,,,64,127
28831,note_on,0,0,0,,10,,,69,127
29059,note_off,228,0,0,,10,,,69,127
29059,note_off,0,0,0,,4,,,64,127
29059,note_off,0,0,0,,0,,,60,127
29061,note_on,2,0,0,,8,,,56,127
29061,note_on,0,0,0,,2,,,62,127
29061,note_on,0,0,0,,4,,,64,127
29061,note_on,0,0,0,,2,,,74,127
29289,note_off,228,0,0,,2,,,74,127
29289,note_off,0,0,0,,4,,,64,127
29289,note_off,0,0,0,,2,,,62,127
29289,note_off,0,0,0,,8,,,56,127
29291,note_on,2,0,0,,10,,,57,127
29291,note_on,0,0,0,,2,,,74,127
29365,note_off,74,0,0,,2,,,74,127
29367,note_on,2,0,0,,0,,,72,127
29441,note_off,74,0,0,,0,,,72,127
29443,note_on,2,0,0,,2,,,74,127
29517,note_off,74,0,0,,2,,,74,127
29519,note_on,2,0,0,,10,,,45,127
29519,note_on,0,0,0,,0,,,72,127
29593,note_off,74,0,0,,0,,,72,127
29595,note_on,2,0,0,,12,,,71,127
29669,note_off,74,0,0,,12,,,71,127
29671,note_on,2,0,0,,0,,,72,127
29743,note_off,72,0,0,,10,,,57,127
29745,note_off,2,0,0,,0,,,72,127
29745,note_off,0,0,0,,10,,,45,127
29747,note_on,2,0,0,,2,,,50,127
29747,note_on,0,0,0,,0,,,72,127
29975,note_off,228,0,0,,0,,,72,127
29975,note_off,0,0,0,,2,,,50,127
29977,note_on,2,0,0,,2,,,62,127
29977,note_on,0,0,0,,5,,,65,127
29977,note_on,0,0,0,,12,,,71,127
30051,note_off,74,0,0,,12,,,71,127
30053,note_on,2,0,0,,0,,,72,127
30127,note_off,74,0,0,,0,,,72,127
30129,note_on,2,0,0,,12,,,71,127
30203,note_off,74,0,0,,12,,,71,127
30203,note_off,0,0,0,,5,,,65,127
30203,note_off,0,0,0,,2,,,62,127
30205,note_on,2,0,0,,0,,,60,127
30205,note_on,0,0,0,,4,,,64,127
30205,note_on,0,0,0,,10,,,69,127
30433,note_off,228,0,0,,10,,,69,127
30433,note_off,0,0,0,,4,,,64,127
30433,note_off,0,0,0,,0,,,60,127
30435,note_on,2,0,0,,8,,,56,127
30435,note_on,0,0,0,,2,,,62,127
30435,note_on,0,0,0,,4,,,64,127
30435,note_on,0,0,0,,12,,,71,127
30509,note_off,74,0,0,,12,,,71,127
30511,note_on,2,0,0,,0,,,72,127
30585,note_off,74,0,0,,0,,,72,127
30587,note_on,2,0,0,,2,,,74,127
30661,note_off,74,0,0,,2,,,74,127
30661,note_off,0,0,0,,4,,,64,127
30661,note_off,0,0,0,,2,,,62,127
30661,note_off,0,0,0,,8,,,56,127
30663,note_on,2,0,0,,10,,,57,127
30663,note_on,0,0,0,,2,,,74,127
30737,note_off,74,0,0,,2,,,74,127
30739,note_on,2,0,0,,0,,,72,127
30813,note_off,74,0,0,,0,,,72,127
30815,note_on,2,0,0,,2,,,74,127
30889,note_off,74,0,0,,2,,,74,127
30891,note_on,2,0,0,,10,,,45,127
30891,note_on,0,0,0,,0,,,72,127
30965,note_off,74,0,0,,0,,,72,127
30967,note_on,2,0,0,,12,,,71,127
31041,note_off,74,0,0,,12,,,71,127
31043,note_on,2,0,0,,0,,,72,127
31115,note_off,72,0,0,,10,,,57,127
31117,note_off,2,0,0,,0,,,72,127
31117,note_off,0,0,0,,10,,,45,127
31119,note_on,2,0,0,,4,,,40,127
31119,note_on,0,0,0,,12,,,71,127
31335,note_off,216,0,0,,12,,,71,127
31335,note_off,0,0,0,,4,,,40,127
31349,note_on,14,0,0,,4,,,76,127
31577,note_off,228,0,0,,4,,,76,127
31579,note_on,2,0,0,,1,,,73,127
31579,note_on,0,0,0,,1,,,85,127
31807,note_off,228,0,0,,1,,,85,127
31807,note_off,0,0,0,,1,,,73,127
31809,note_on,2,0,0,,2,,,38,127
31809,note_on,0,0,0,,6,,,78,127
32037,note_off,228,0,0,,6,,,78,127
32037,note_off,0,0,0,,2,,,38,127
32039,note_on,2,0,0,,2,,,74,127
32039,note_on,0,0,0,,8,,,80,127
32267,note_off,228,0,0,,8,,,80,127
32267,note_off,0,0,0,,2,,,74,127
32269,note_on,2,0,0,,12,,,71,127
32269,note_on,0,0,0,,12,,,83,127
32497,note_off,228,0,0,,12,,,83,127
32497,note_off,0,0,0,,12,,,71,127
32499,note_on,2,0,0,,1,,,37,127
32499,note_on,0,0,0,,4,,,76,127
32727,note_off,228,0,0,,4,,,76,127
32727,note_off,0,0,0,,1,,,37,127
32729,note_on,2,0,0,,1,,,73,127
32729,note_on,0,0,0,,10,,,81,127
32957,note_off,228,0,0,,10,,,81,127
32957,note_off,0,0,0,,1,,,73,127
32959,note_on,2,0,0,,10,,,69,127
32959,note_on,0,0,0,,1,,,85,127
33187,note_off,228,0,0,,1,,,85,127
33187,note_off,0,0,0,,10,,,69,127
33189,note_on,2,0,0,,12,,,35,127
33189,note_on,0,0,0,,2,,,74,127
33417,note_off,228,0,0,,2,,,74,127
33417,note_off,0,0,0,,12,,,35,127
33419,note_on,2,0,0,,12,,,71,127
33419,note_on,0,0,0,,12,,,83,127
33647,note_off,228,0,0,,12,,,83,127
33647,note_off,0,0,0,,12,,,71,127
33649,note_on,2,0,0,,8,,,68,127
33649,note_on,0,0,0,,2,,,86,127
33877,note_off,228,0,0,,2,,,86,127
33877,note_off,0,0,0,,8,,,68,127
33879,note_on,2,0,0,,10,,,33,127
33879,note_on,0,0,0,,1,,,85,127
34107,note_off,228,0,0,,1,,,85,127
34107,note_off,0,0,0,,10,,,33,127
34109,note_on,2,0,0,,4,,,76,127
34109,note_on,0,0,0,,8,,,80,127
34337,note_off,228,0,0,,8,,,80,127
34337,note_off,0,0,0,,4,,,76,127
34339,note_on,2,0,0,,1,,,73,127
34339,note_on,0,0,0,,10,,,81,127
34567,note_off,228,0,0,,10,,,81,127
34567,note_off,0,0,0,,1,,,73,127
34569,note_on,2,0,0,,2,,,38,127
34569,note_on,0,0,0,,6,,,78,127
34797,note_off,228,0,0,,6,,,78,127
34797,note_off,0,0,0,,2,,,38,127
34799,note_on,2,0,0,,2,,,74,127
34799,note_on,0,0,0,,8,,,80,127
35027,note_off,228,0,0,,8,,,80,127
35027,note_off,0,0,0,,2,,,74,127
35029,note_on,2,0,0,,12,,,71,127
35029,note_on,0,0,0,,12,,,83,127
35257,note_off,228,0,0,,12,,,83,127
35257,note_off,0,0,0,,12,,,71,127
35259,note_on,2,0,0,,1,,,37,127
35259,note_on,0,0,0,,4,,,76,127
35487,note_off,228,0,0,,4,,,76,127
35487,note_off,0,0,0,,1,,,37,127
35489,note_on,2,0,0,,1,,,73,127
35489,note_on,0,0,0,,10,,,81,127
35717,note_off,228,0,0,,10,,,81,127
35717,note_off,0,0,0,,1,,,73,127
35719,note_on,2,0,0,,10,,,69,127
35719,note_on,0,0,0,,1,,,85,127
35947,note_off,228,0,0,,1,,,85,127
35947,note_off,0,0,0,,10,,,69,127
35949,note_on,2,0,0,,12,,,35,127
35949,note_on,0,0,0,,2,,,74,127
36177,note_off,228,0,0,,2,,,74,127
36177,note_off,0,0,0,,12,,,35,127
36179,note_on,2,0,0,,12,,,71,127
36179,note_on,0,0,0,,12,,,83,127
36407,note_off,228,0,0,,12,,,83,127
36407,note_off,0,0,0,,12,,,71,127
36409,note_on,2,0,0,,8,,,68,127
36409,note_on,0,0,0,,2,,,86,127
36637,note_off,228,0,0,,2,,,86,127
36637,note_off,0,0,0,,8,,,68,127
36639,note_on,2,0,0,,10,,,33,127
36639,note_on,0,0,0,,1,,,85,127
36867,note_off,228,0,0,,1,,,85,127
36867,note_off,0,0,0,,10,,,33,127
36869,note_on,2,0,0,,12,,,35,127
36869,note_on,0,0,0,,8,,,80,127
37097,note_off,228,0,0,,8,,,80,127
37097,note_off,0,0,0,,12,,,35,127
37099,note_on,2,0,0,,1,,,37,127
37099,note_on,0,0,0,,10,,,81,127
37327,note_off,228,0,0,,10,,,81,127
37327,note_off,0,0,0,,1,,,37,127
37329,note_on,2,0,0,,2,,,50,127
37329,note_on,0,0,0,,6,,,78,127
37403,note_off,74,0,0,,6,,,78,127
37405,note_on,2,0,0,,4,,,76,127
37479,note_off,74,0,0,,4,,,76,127
37481,note_on,2,0,0,,2,,,74,127
37555,note_off,74,0,0,,2,,,74,127
37555,note_off,0,0,0,,2,,,50,127
37557,note_on,2,0,0,,4,,,52,127
37557,note_on,0,0,0,,1,,,73,127
37785,note_off,228,0,0,,1,,,73,127
37787,note_on,2,0,0,,4,,,40,127
37787,note_on,0,0,0,,12,,,71,127
38013,note_off,226,0,0,,4,,,52,127
38015,note_off,2,0,0,,12,,,71,127
38015,note_off,0,0,0,,4,,,40,127
38017,note_on,2,0,0,,10,,,45,127
38017,note_on,0,0,0,,10,,,69,127
38245,note_off,228,0,0,,10,,,69,127
38247,note_on,2,0,0,,1,,,85,127
38475,note_off,228,0,0,,1,,,85,127
38475,note_off,0,0,0,,10,,,45,127
38477,note_on,2,0,0,,10,,,57,127
38477,note_on,0,0,0,,10,,,81,127
38705,note_off,228,0,0,,10,,,81,127
38705,note_off,0,0,0,,10,,,57,127
38707,note_on,2,0,0,,12,,,59,127
38707,note_on,0,0,0,,2,,,62,127
38935,note_off,228,0,0,,2,,,62,127
38935,note_off,0,0,0,,12,,,59,127
38937,note_on,2,0,0,,8,,,56,127
38937,note_on,0,0,0,,12,,,83,127
39165,note_off,228,0,0,,12,,,83,127
39165,note_off,0,0,0,,8,,,56,127
39167,note_on,2,0,0,,4,,,52,127
39167,note_on,0,0,0,,8,,,80,127
39395,note_off,228,0,0,,8,,,80,127
39395,note_off,0,0,0,,4,,,52,127
39397,note_on,2,0,0,,10,,,45,127
39397,note_on,0,0,0,,1,,,61,127
39625,note_off,228,0,0,,1,,,61,127
39627,note_on,2,0,0,,1,,,85,127
39855,note_off,228,0,0,,1,,,85,127
39855,note_off,0,0,0,,10,,,45,127
39857,note_on,2,0,0,,10,,,57,127
39857,note_on,0,0,0,,10,,,81,127
40085,note_off,228,0,0,,10,,,81,127
40085,note_off,0,0,0,,10,,,57,127
40087,note_on,2,0,0,,12,,,59,127
40087,note_on,0,0,0,,2,,,62,127
40315,note_off,228,0,0,,2,,,62,127
40315,note_off,0,0,0,,12,,,59,127
40317,note_on,2,0,0,,8,,,56,127
40317,note_on,0,0,0,,12,,,83,127
40545,note_off,228,0,0,,12,,,83,127
40545,note_off,0,0,0,,8,,,56,127
40547,note_on,2,0,0,,4,,,52,127
40547,note_on,0,0,0,,8,,,80,127
40775,note_off,228,0,0,,8,,,80,127
40775,note_off,0,0,0,,4,,,52,127
40777,note_on,2,0,0,,10,,,45,127
40777,note_on,0,0,0,,1,,,61,127
41005,note_off,228,0,0,,1,,,61,127
41005,note_off,0,0,0,,10,,,45,127
41007,note_on,2,0,0,,1,,,49,127
41007,note_on,0,0,0,,4,,,64,127
41235,note_off,228,0,0,,4,,,64,127
41235,note_off,0,0,0,,1,,,49,127
41237,note_on,2,0,0,,10,,,45,127
41237,note_on,0,0,0,,1,,,85,127
41465,note_off,228,0,0,,1,,,85,127
41465,note_off,0,0,0,,10,,,45,127
41467,note_on,2,0,0,,12,,,47,127
41467,note_on,0,0,0,,8,,,56,127
41695,note_off,228,0,0,,8,,,56,127
41695,note_off,0,0,0,,12,,,47,127
41697,note_on,2,0,0,,8,,,44,127
41697,note_on,0,0,0,,12,,,59,127
41925,note_off,228,0,0,,12,,,59,127
41925,note_off,0,0,0,,8,,,44,127
41927,note_on,2,0,0,,4,,,40,127
41927,note_on,0,0,0,,2,,,86,127
42155,note_off,228,0,0,,2,,,86,127
42155,note_off,0,0,0,,4,,,40,127
42157,note_on,2,0,0,,10,,,45,127
42157,note_on,0,0,0,,10,,,57,127
42385,note_off,228,0,0,,10,,,57,127
42385,note_off,0,0,0,,10,,,45,127
42387,note_on,2,0,0,,1,,,49,127
42387,note_on,0,0,0,,1,,,61,127
42615,note_off,228,0,0,,1,,,61,127
42615,note_off,0,0,0,,1,,,49,127
42617,note_on,2,0,0,,10,,,45,127
42617,note_on,0,0,0,,1,,,85,127
42845,note_off,228,0,0,,1,,,85,127
42845,note_off,0,0,0,,10,,,45,127
42847,note_on,2,0,0,,12,,,47,127
42847,note_on,0,0,0,,8,,,56,127
43075,note_off,228,0,0,,8,,,56,127
43075,note_off,0,0,0,,12,,,47,127
43077,note_on,2,0,0,,8,,,44,127
43077,note_on,0,0,0,,12,,,59,127
43305,note_off,228,0,0,,12,,,59,127
43305,note_off,0,0,0,,8,,,44,127
43307,note_on,2,0,0,,4,,,40,127
43307,note_on,0,0,0,,2,,,86,127
43535,note_off,228,0,0,,2,,,86,127
43535,note_off,0,0,0,,4,,,40,127
43537,note_on,2,0,0,,10,,,45,127
43537,note_on,0,0,0,,1,,,85,127
43611,note_off,74,0,0,,1,,,85,127
43613,note_on,2,0,0,,12,,,83,127
43687,note_off,74,0,0,,12,,,83,127
43689,note_on,2,0,0,,10,,,81,127
43763,note_off,74,0,0,,10,,,81,127
43763,note_off,0,0,0,,10,,,45,127
43765,note_on,2,0,0,,12,,,47,127
43765,note_on,0,0,0,,8,,,80,127
43993,note_off,228,0,0,,8,,,80,127
43993,note_off,0,0,0,,12,,,47,127
43995,note_on,2,0,0,,1,,,49,127
43995,note_on,0,0,0,,10,,,81,127
44223,note_off,228,0,0,,10,,,81,127
44223,note_off,0,0,0,,1,,,49,127
44225,note_on,2,0,0,,2,,,50,127
44225,note_on,0,0,0,,6,,,78,127
44299,note_off,74,0,0,,6,,,78,127
44301,note_on,2,0,0,,4,,,76,127
44375,note_off,74,0,0,,4,,,76,127
44377,note_on,2,0,0,,2,,,74,127
44451,note_off,74,0,0,,2,,,74,127
44451,note_off,0,0,0,,2,,,50,127
44453,note_on,2,0,0,,4,,,52,127
44453,note_on,0,0,0,,1,,,73,127
44681,note_off,228,0,0,,1,,,73,127
44683,note_on,2,0,0,,4,,,40,127
44683,note_on,0,0,0,,12,,,71,127
44909,note_off,226,0,0,,4,,,52,127
44911,note_off,2,0,0,,12,,,71,127
44911,note_off,0,0,0,,4,,,40,127
44913,note_on,2,0,0,,10,,,45,127
44913,note_on,0,0,0,,10,,,69,127
45141,note_off,228,0,0,,10,,,69,127
45141,note_off,0,0,0,,10,,,45,127
45143,note_on,2,0,0,,10,,,69,127
45371,note_off,228,0,0,,10,,,69,127
45373,note_on,2,0,0,,1,,,73,127
45373,note_on,0,0,0,,10,,,81,127
45601,note_off,228,0,0,,10,,,81,127
45601,note_off,0,0,0,,1,,,73,127
45603,note_on,2,0,0,,2,,,50,127
45603,note_on,0,0,0,,6,,,78,127
45831,note_off,228,0,0,,6,,,78,127
45831,note_off,0,0,0,,2,,,50,127
45833,note_on,2,0,0,,12,,,71,127
45833,note_on,0,0,0,,8,,,80,127
46061,note_off,228,0,0,,8,,,80,127
46061,note_off,0,0,0,,12,,,71,127
46063,note_on,2,0,0,,2,,,74,127
46063,note_on,0,0,0,,12,,,83,127
46291,note_off,228,0,0,,12,,,83,127
46291,note_off,0,0,0,,2,,,74,127
46293,note_on,2,0,0,,1,,,49,127
46293,note_on,0,0,0,,4,,,76,127
46521,note_off,228,0,0,,4,,,76,127
46521,note_off,0,0,0,,1,,,49,127
46523,note_on,2,0,0,,1,,,73,127
46523,note_on,0,0,0,,10,,,81,127
46751,note_off,228,0,0,,10,,,81,127
46751,note_off,0,0,0,,1,,,73,127
46753,note_on,2,0,0,,4,,,76,127
46753,note_on,0,0,0,,1,,,85,127
46981,note_off,228,0,0,,1,,,85,127
46981,note_off,0,0,0,,4,,,76,127
46983,note_on,2,0,0,,2,,,50,127
46983,note_on,0,0,0,,6,,,78,127
47211,note_off,228,0,0,,6,,,78,127
47211,note_off,0,0,0,,2,,,50,127
47213,note_on,2,0,0,,2,,,74,127
47213,note_on,0,0,0,,12,,,83,127
47441,note_off,228,0,0,,12,,,83,127
47441,note_off,0,0,0,,2,,,74,127
47443,note_on,2,0,0,,6,,,78,127
47443,note_on,0,0,0,,2,,,86,127
47671,note_off,228,0,0,,2,,,86,127
47671,note_off,0,0,0,,6,,,78,127
47673,note_on,2,0,0,,4,,,40,127
47673,note_on,0,0,0,,8,,,80,127
47901,note_off,228,0,0,,8,,,80,127
47903,note_on,2,0,0,,4,,,76,127
48131,note_off,228,0,0,,4,,,76,127
48131,note_off,0,0,0,,4,,,40,127
48133,note_on,2,0,0,,4,,,52,127
48133,note_on,0,0,0,,2,,,86,127
48361,note_off,228,0,0,,2,,,86,127
48361,note_off,0,0,0,,4,,,52,127
48363,note_on,2,0,0,,10,,,57,127
48363,note_on,0,0,0,,1,,,85,127
48437,note_off,74,0,0,,1,,,85,127
48439,note_on,2,0,0,,12,,,83,127
48513,note_off,74,0,0,,12,,,83,127
48515,note_on,2,0,0,,10,,,81,127
48589,note_off,74,0,0,,10,,,81,127
48589,note_off,0,0,0,,10,,,57,127
48591,note_on,2,0,0,,4,,,64,127
48591,note_on,0,0,0,,1,,,85,127
48591,note_on,0,0,0,,10,,,81,127
48819,note_off,228,0,0,,10,,,81,127
48819,note_off,0,0,0,,1,,,85,127
48819,note_off,0,0,0,,4,,,64,127
48821,note_on,2,0,0,,4,,,52,127
48821,note_on,0,0,0,,12,,,83,127
48821,note_on,0,0,0,,8,,,80,127
49049,note_off,228,0,0,,8,,,80,127
49049,note_off,0,0,0,,12,,,83,127
49049,note_off,0,0,0,,4,,,52,127
49051,note_on,2,0,0,,10,,,45,127
49051,note_on,0,0,0,,10,,,81,127
49279,note_off,228,0,0,,10,,,81,127
49279,note_off,0,0,0,,10,,,45,127
49281,note_on,2,0,0,,10,,,69,127
49281,note_on,0,0,0,,4,,,76,127
49509,note_off,228,0,0,,4,,,76,127
49509,note_off,0,0,0,,10,,,69,127
49511,note_on,2,0,0,,1,,,73,127
49511,note_on,0,0,0,,10,,,81,127
49739,note_off,228,0,0,,10,,,81,127
49739,note_off,0,0,0,,1,,,73,127
49741,note_on,2,0,0,,2,,,50,127
49741,note_on,0,0,0,,6,,,78,127
49969,note_off,228,0,0,,6,,,78,127
49969,note_off,0,0,0,,2,,,50,127
49971,note_on,2,0,0,,12,,,71,127
49971,note_on,0,0,0,,8,,,80,127
50199,note_off,228,0,0,,8,,,80,127
50199,note_off,0,0,0,,12,,,71,127
50201,note_on,2,0,0,,2,,,74,127
50201,note_on,0,0,0,,12,,,83,127
50429,note_off,228,0,0,,12,,,83,127
50429,note_off,0,0,0,,2,,,74,127
50431,note_on,2,0,0,,1,,,49,127
50431,note_on,0,0,0,,4,,,76,127
50659,note_off,228,0,0,,4,,,76,127
50659,note_off,0,0,0,,1,,,49,127
50661,note_on,2,0,0,,1,,,73,127
50661,note_on,0,0,0,,10,,,81,127
50889,note_off,228,0,0,,10,,,81,127
50889,note_off,0,0,0,,1,,,73,127
50891,note_on,2,0,0,,4,,,76,127
50891,note_on,0,0,0,,1,,,85,127
51119,note_off,228,0,0,,1,,,85,127
51119,note_off,0,0,0,,4,,,76,127
51121,note_on,2,0,0,,12,,,47,127
51121,note_on,0,0,0,,6,,,78,127
51349,note_off,228,0,0,,6,,,78,127
51349,note_off,0,0,0,,12,,,47,127
51351,note_on,2,0,0,,2,,,74,127
51351,note_on,0,0,0,,12,,,83,127
51579,note_off,228,0,0,,12,,,83,127
51579,note_off,0,0,0,,2,,,74,127
51581,note_on,2,0,0,,6,,,78,127
51581,note_on,0,0,0,,2,,,86,127
51809,note_off,228,0,0,,2,,,86,127
51809,note_off,0,0,0,,6,,,78,127
51811,note_on,2,0,0,,4,,,40,127
51811,note_on,0,0,0,,8,,,80,127
52039,note_off,228,0,0,,8,,,80,127
52041,note_on,2,0,0,,4,,,76,127
52269,note_off,228,0,0,,4,,,76,127
52269,note_off,0,0,0,,4,,,40,127
52271,note_on,2,0,0,,4,,,52,127
52271,note_on,0,0,0,,2,,,86,127
52499,note_off,228,0,0,,2,,,86,127
52499,note_off,0,0,0,,4,,,52,127
52501,note_on,2,0,0,,10,,,57,127
52501,note_on,0,0,0,,1,,,85,127
52575,note_off,74,0,0,,1,,,85,127
52577,note_on,2,0,0,,12,,,83,127
52651,note_off,74,0,0,,12,,,83,127
52653,note_on,2,0,0,,10,,,81,127
52727,note_off,74,0,0,,10,,,81,127
52727,note_off,0,0,0,,10,,,57,127
52729,note_on,2,0,0,,4,,,52,127
52729,note_on,0,0,0,,1,,,85,127
52729,note_on,0,0,0,,10,,,81,127
52957,note_off,228,0,0,,10,,,81,127
52957,note_off,0,0,0,,1,,,85,127
52959,note_on,2,0,0,,4,,,40,127
52959,note_on,0,0,0,,12,,,83,127
52959,note_on,0,0,0,,8,,,80,127
53185,note_off,226,0,0,,4,,,52,127
53187,note_off,2,0,0,,8,,,80,127
53187,note_off,0,0,0,,12,,,83,127
53187,note_off,0,0,0,,4,,,40,127
53189,note_on,2,0,0,,10,,,45,127
53189,note_on,0,0,0,,10,,,81,127
53393,note_off,204,0,0,,10,,,81,127
53419,note_on,26,0,0,,12,,,83,127
53419,note_on,0,0,0,,7,,,79,127
53647,note_off,228,0,0,,7,,,79,127
53647,note_off,0,0,0,,12,,,83,127
53647,note_off,0,0,0,,10,,,45,127
53649,note_on,2,0,0,,10,,,69,127
53649,note_on,0,0,0,,0,,,84,127
53649,note_on,0,0,0,,5,,,77,127
53877,note_off,228,0,0,,0,,,84,127
53877,note_off,0,0,0,,10,,,69,127
53879,note_on,2,0,0,,8,,,68,127
53879,note_on,0,0,0,,12,,,83,127
54105,note_off,226,0,0,,5,,,77,127
54110,note_on,5,0,0,,4,,,76,127
54338,note_off,228,0,0,,4,,,76,127
54338,note_off,0,0,0,,8,,,68,127
54340,note_on,2,0,0,,8,,,68,127
54340,note_on,0,0,0,,2,,,74,127
54563,note_off,223,0,0,,12,,,83,127
54568,note_off,5,0,0,,2,,,74,127
54568,note_off,0,0,0,,8,,,68,127
54570,note_on,2,0,0,,10,,,69,127
54570,note_on,0,0,0,,0,,,72,127
54644,note_off,74,0,0,,0,,,72,127
54646,note_on,2,0,0,,12,,,71,127
54720,note_off,74,0,0,,12,,,71,127
54722,note_on,2,0,0,,0,,,72,127
54796,note_off,74,0,0,,0,,,72,127
54796,note_off,0,0,0,,10,,,69,127
54798,note_on,2,0,0,,2,,,62,127
54798,note_on,0,0,0,,2,,,74,127
55026,note_off,228,0,0,,2,,,74,127
55026,note_off,0,0,0,,2,,,62,127
55028,note_on,2,0,0,,4,,,64,127
55028,note_on,0,0,0,,12,,,71,127
55256,note_off,228,0,0,,12,,,71,127
55256,note_off,0,0,0,,4,,,64,127
55258,note_on,2,0,0,,10,,,57,127
55258,note_on,0,0,0,,10,,,69,127
55468,note_off,210,0,0,,10,,,69,127
55488,note_on,20,0,0,,12,,,71,127
55716,note_off,228,0,0,,12,,,71,127
55716,note_off,0,0,0,,10,,,57,127
55718,note_on,2,0,0,,10,,,57,127
55718,note_on,0,0,0,,5,,,65,127
55718,note_on,0,0,0,,0,,,72,127
55946,note_off,228,0,0,,0,,,72,127
55946,note_off,0,0,0,,10,,,57,127
55948,note_on,2,0,0,,8,,,56,127
55948,note_on,0,0,0,,12,,,71,127
56174,note_off,226,0,0,,5,,,65,127
56179,note_on,5,0,0,,4,,,64,127
56407,note_off,228,0,0,,4,,,64,127
56407,note_off,0,0,0,,8,,,56,127
56409,note_on,2,0,0,,8,,,56,127
56409,note_on,0,0,0,,2,,,62,127
56632,note_off,223,0,0,,12,,,71,127
56637,note_off,5,0,0,,2,,,62,127
56637,note_off,0,0,0,,8,,,56,127
56639,note_on,2,0,0,,10,,,57,127
56639,note_on,0,0,0,,0,,,60,127
56713,note_off,74,0,0,,0,,,60,127
56715,note_on,2,0,0,,12,,,59,127
56789,note_off,74,0,0,,12,,,59,127
56791,note_on,2,0,0,,0,,,60,127
56865,note_off,74,0,0,,0,,,60,127
56865,note_off,0,0,0,,10,,,57,127
56867,note_on,2,0,0,,2,,,50,127
56867,note_on,0,0,0,,2,,,62,127
57083,note_off,216,0,0,,2,,,62,127
57095,note_off,12,0,0,,2,,,50,127
57097,note_on,2,0,0,,4,,,52,127
57097,note_on,0,0,0,,12,,,59,127
57325,note_off,228,0,0,,12,,,59,127
57325,note_off,0,0,0,,4,,,52,127
57327,note_on,2,0,0,,10,,,45,127
57327,note_on,0,0,0,,1,,,61,127
57401,note_off,74,0,0,,1,,,61,127
57403,note_on,2,0,0,,10,,,57,127
57477,note_off,74,0,0,,10,,,57,127
57479,note_on,2,0,0,,1,,,61,127
57553,note_off,74,0,0,,1,,,61,127
57555,note_on,2,0,0,,4,,,64,127
57783,note_off,228,0,0,,4,,,64,127
57783,note_off,0,0,0,,10,,,45,127
57785,note_on,2,0,0,,1,,,49,127
57785,note_on,0,0,0,,10,,,69,127
58013,note_off,228,0,0,,10,,,69,127
58013,note_off,0,0,0,,1,,,49,127
58015,note_on,2,0,0,,2,,,50,127
58015,note_on,0,0,0,,2,,,74,127
58089,note_off,74,0,0,,2,,,74,127
58091,note_on,2,0,0,,1,,,73,127
58165,note_off,74,0,0,,1,,,73,127
58167,note_on,2,0,0,,12,,,71,127
58241,note_off,74,0,0,,12,,,71,127
58241,note_off,0,0,0,,2,,,50,127
58243,note_on,2,0,0,,4,,,52,127
58243,note_on,0,0,0,,1,,,73,127
58243,note_on,0,0,0,,10,,,69,127
58471,note_off,228,0,0,,10,,,69,127
58471,note_off,0,0,0,,1,,,73,127
58473,note_on,2,0,0,,4,,,40,127
58473,note_on,0,0,0,,12,,,71,127
58473,note_on,0,0,0,,8,,,68,127
58699,note_off,226,0,0,,4,,,52,127
58701,note_off,2,0,0,,8,,,68,127
58701,note_off,0,0,0,,12,,,71,127
58701,note_off,0,0,0,,4,,,40,127
58703,note_on,2,0,0,,10,,,45,127
58703,note_on,0,0,0,,1,,,73,127
58777,note_off,74,0,0,,1,,,73,127
58779,note_on,2,0,0,,10,,,69,127
58853,note_off,74,0,0,,10,,,69,127
58855,note_on,2,0,0,,1,,,73,127
58929,note_off,74,0,0,,1,,,73,127
58929,note_off,0,0,0,,10,,,45,127
58931,note_on,2,0,0,,10,,,57,127
58931,note_on,0,0,0,,10,,,81,127
59159,note_off,228,0,0,,10,,,81,127
59159,note_off,0,0,0,,10,,,57,127
59161,note_on,2,0,0,,1,,,61,127
59161,note_on,0,0,0,,10,,,69,127
59389,note_off,228,0,0,,10,,,69,127
59389,note_off,0,0,0,,1,,,61,127
59391,note_on,2,0,0,,2,,,62,127
59391,note_on,0,0,0,,2,,,74,127
59465,note_off,74,0,0,,2,,,74,127
59467,note_on,2,0,0,,1,,,73,127
59541,note_off,74,0,0,,1,,,73,127
59543,note_on,2,0,0,,12,,,71,127
59617,note_off,74,0,0,,12,,,71,127
59617,note_off,0,0,0,,2,,,62,127
59619,note_on,2,0,0,,4,,,64,127
59619,note_on,0,0,0,,1,,,73,127
59619,note_on,0,0,0,,10,,,69,127
59847,note_off,228,0,0,,10,,,69,127
59847,note_off,0,0,0,,1,,,73,127
59849,note_on,2,0,0,,4,,,52,127
59849,note_on,0,0,0,,12,,,71,127
59849,note_on,0,0,0,,8,,,68,127
59964,note_off,115,0,0,,4,,,64,127
60077,note_off,113,0,0,,8,,,68,127
60077,note_off,0,0,0,,12,,,71,127
60077,note_off,0,0,0,,4,,,52,127
60079,note_on,2,0,0,,10,,,45,127
60079,note_on,0,0,0,,10,,,69,127
60768,note_off,689,0,0,,10,,,69,127
60770,note_off,2,0,0,,10,,,45,127
60770,note_on,0,0,0,,4,,,76,127
60844,note_off,74,0,0,,4,,,76,127
60846,note_on,2,0,0,,5,,,77,127
60920,note_off,74,0,0,,5,,,77,127
60922,note_on,2,0,0,,7,,,79,127
60996,note_off,74,0,0,,7,,,79,127
60998,note_on,2,0,0,,5,,,77,127
61226,note_off,228,0,0,,5,,,77,127
61228,note_on,2,0,0,,4,,,76,127
61456,note_off,228,0,0,,4,,,76,127
61458,note_on,2,0,0,,10,,,57,127
61458,note_on,0,0,0,,7,,,67,127
61458,note_on,0,0,0,,4,,,64,127
61458,note_on,0,0,0,,11,,,82,127
61686,note_off,228,0,0,,11,,,82,127
61686,note_off,0,0,0,,4,,,64,127
61686,note_off,0,0,0,,7,,,67,127
61686,note_off,0,0,0,,10,,,57,127
61688,note_on,2,0,0,,10,,,57,127
61688,note_on,0,0,0,,7,,,67,127
61688,note_on,0,0,0,,4,,,64,127
61688,note_on,0,0,0,,7,,,79,127
61916,note_off,228,0,0,,7,,,79,127
61916,note_off,0,0,0,,4,,,64,127
61916,note_off,0,0,0,,7,,,67,127
61916,note_off,0,0,0,,10,,,57,127
61918,note_on,2,0,0,,4,,,64,127
61918,note_on,0,0,0,,10,,,57,127
61918,note_on,0,0,0,,7,,,67,127
61918,note_on,0,0,0,,4,,,76,127
62146,note_off,228,0,0,,4,,,76,127
62146,note_off,0,0,0,,7,,,67,127
62146,note_off,0,0,0,,10,,,57,127
62146,note_off,0,0,0,,4,,,64,127
62148,note_on,2,0,0,,10,,,57,127
62148,note_on,0,0,0,,7,,,67,127
62148,note_on,0,0,0,,4,,,64,127
62148,note_on,0,0,0,,1,,,73,127
62376,note_off,228,0,0,,1,,,73,127
62376,note_off,0,0,0,,4,,,64,127
62376,note_off,0,0,0,,7,,,67,127
62376,note_off,0,0,0,,10,,,57,127
62378,note_on,2,0,0,,10,,,57,127
62378,note_on,0,0,0,,4,,,64,127
62378,note_on,0,0,0,,11,,,70,127
62606,note_off,228,0,0,,11,,,70,127
62606,note_off,0,0,0,,4,,,64,127
62606,note_off,0,0,0,,10,,,57,127
62608,note_on,2,0,0,,4,,,64,127
62608,note_on,0,0,0,,10,,,57,127
62608,note_on,0,0,0,,8,,,68,127
62836,note_off,228,0,0,,8,,,68,127
62836,note_off,0,0,0,,10,,,57,127
62836,note_off,0,0,0,,4,,,64,127
62838,note_on,2,0,0,,10,,,57,127
62838,note_on,0,0,0,,2,,,62,127
62838,note_on,0,0,0,,5,,,65,127
62838,note_on,0,0,0,,8,,,68,127
63066,note_off,228,0,0,,8,,,68,127
63066,note_off,0,0,0,,5,,,65,127
63066,note_off,0,0,0,,2,,,62,127
63066,note_off,0,0,0,,10,,,57,127
63068,note_on,2,0,0,,10,,,57,127
63068,note_on,0,0,0,,2,,,62,127
63068,note_on,0,0,0,,5,,,65,127
63068,note_on,0,0,0,,10,,,69,127
63296,note_off,228,0,0,,5,,,65,127
63296,note_off,0,0,0,,2,,,62,127
63296,note_off,0,0,0,,10,,,57,127
63298,note_on,2,0,0,,10,,,57,127
63298,note_on,0,0,0,,2,,,62,127
63298,note_on,0,0,0,,5,,,65,127
63526,note_off,228,0,0,,5,,,65,127
63526,note_off,0,0,0,,2,,,62,127
63526,note_off,0,0,0,,10,,,57,127
63526,note_off,0,0,0,,10,,,69,127
63528,note_on,2,0,0,,10,,,57,127
63528,note_on,0,0,0,,2,,,62,127
63528,note_on,0,0,0,,5,,,65,127
63528,note_on,0,0,0,,2,,,74,127
63602,note_off,74,0,0,,2,,,74,127
63604,note_on,2,0,0,,4,,,76,127
63678,note_off,74,0,0,,4,,,76,127
63680,note_on,2,0,0,,5,,,77,127
63754,note_off,74,0,0,,5,,,77,127
63754,note_off,0,0,0,,5,,,65,127
63754,note_off,0,0,0,,2,,,62,127
63754,note_off,0,0,0,,10,,,57,127
63756,note_on,2,0,0,,10,,,57,127
63756,note_on,0,0,0,,5,,,65,127
63756,note_on,0,0,0,,2,,,62,127
63756,note_on,0,0,0,,4,,,76,127
63984,note_off,228,0,0,,4,,,76,127
63984,note_off,0,0,0,,2,,,62,127
63984,note_off,0,0,0,,5,,,65,127
63984,note_off,0,0,0,,10,,,57,127
63986,note_on,2,0,0,,2,,,62,127
63986,note_on,0,0,0,,10,,,57,127
63986,note_on,0,0,0,,5,,,65,127
63986,note_on,0,0,0,,2,,,74,127
64214,note_off,228,0,0,,2,,,74,127
64214,note_off,0,0,0,,5,,,65,127
64214,note_off,0,0,0,,10,,,57,127
64214,note_off,0,0,0,,2,,,62,127
64216,note_on,2,0,0,,7,,,55,127
64216,note_on,0,0,0,,10,,,57,127
64216,note_on,0,0,0,,4,,,64,127
64216,note_on,0,0,0,,1,,,61,127
64216,note_on,0,0,0,,7,,,79,127
64444,note_off,228,0,0,,7,,,79,127
64444,note_off,0,0,0,,1,,,61,127
64444,note_off,0,0,0,,4,,,64,127
64444,note_off,0,0,0,,10,,,57,127
64444,note_off,0,0,0,,7,,,55,127
64446,note_on,2,0,0,,7,,,55,127
64446,note_on,0,0,0,,10,,,57,127
64446,note_on,0,0,0,,1,,,61,127
64446,note_on,0,0,0,,4,,,64,127
64446,note_on,0,0,0,,4,,,76,127
64674,note_off,228,0,0,,4,,,76,127
64674,note_off,0,0,0,,4,,,64,127
64674,note_off,0,0,0,,1,,,61,127
64674,note_off,0,0,0,,10,,,57,127
64674,note_off,0,0,0,,7,,,55,127
64676,note_on,2,0,0,,7,,,55,127
64676,note_on,0,0,0,,10,,,57,127
64676,note_on,0,0,0,,1,,,61,127
64676,note_on,0,0,0,,4,,,64,127
64676,note_on,0,0,0,,1,,,73,127
64904,note_off,228,0,0,,1,,,73,127
64904,note_off,0,0,0,,4,,,64,127
64904,note_off,0,0,0,,1,,,61,127
64904,note_off,0,0,0,,10,,,57,127
64904,note_off,0,0,0,,7,,,55,127
64906,note_on,2,0,0,,7,,,55,127
64906,note_on,0,0,0,,10,,,57,127
64906,note_on,0,0,0,,1,,,61,127
64906,note_on,0,0,0,,4,,,64,127
64906,note_on,0,0,0,,11,,,70,127
65134,note_off,228,0,0,,11,,,70,127
65134,note_off,0,0,0,,4,,,64,127
65134,note_off,0,0,0,,1,,,61,127
65134,note_off,0,0,0,,10,,,57,127
65134,note_off,0,0,0,,7,,,55,127
65136,note_on,2,0,0,,1,,,61,127
65136,note_on,0,0,0,,7,,,55,127
65136,note_on,0,0,0,,10,,,57,127
65136,note_on,0,0,0,,7,,,67,127
65364,note_off,228,0,0,,7,,,67,127
65364,note_off,0,0,0,,10,,,57,127
65364,note_off,0,0,0,,7,,,55,127
65364,note_off,0,0,0,,1,,,61,127
65366,note_on,2,0,0,,1,,,61,127
65366,note_on,0,0,0,,7,,,55,127
65366,note_on,0,0,0,,10,,,57,127
65366,note_on,0,0,0,,4,,,64,127
65594,note_off,228,0,0,,4,,,64,127
65594,note_off,0,0,0,,10,,,57,127
65594,note_off,0,0,0,,7,,,55,127
65594,note_off,0,0,0,,1,,,61,127
65596,note_on,2,0,0,,5,,,53,127
65596,note_on,0,0,0,,10,,,57,127
65596,note_on,0,0,0,,2,,,62,127
65596,note_on,0,0,0,,4,,,64,127
65824,note_off,228,0,0,,4,,,64,127
65824,note_off,0,0,0,,2,,,62,127
65824,note_off,0,0,0,,10,,,57,127
65824,note_off,0,0,0,,5,,,53,127
65826,note_on,2,0,0,,5,,,53,127
65826,note_on,0,0,0,,10,,,57,127
65826,note_on,0,0,0,,2,,,62,127
65826,note_on,0,0,0,,5,,,65,127
66054,note_off,228,0,0,,5,,,65,127
66054,note_off,0,0,0,,2,,,62,127
66054,note_off,0,0,0,,10,,,57,127
66054,note_off,0,0,0,,5,,,53,127
66056,note_on,2,0,0,,5,,,53,127
66056,note_on,0,0,0,,10,,,57,127
66056,note_on,0,0,0,,2,,,62,127
66056,note_on,0,0,0,,10,,,69,127
66284,note_off,228,0,0,,10,,,69,127
66284,note_off,0,0,0,,2,,,62,127
66284,note_off,0,0,0,,10,,,57,127
66284,note_off,0,0,0,,5,,,53,127
66286,note_on,2,0,0,,11,,,58,127
66286,note_on,0,0,0,,7,,,55,127
66286,note_on,0,0,0,,2,,,62,127
66286,note_on,0,0,0,,7,,,67,127
66344,note_on,58,0,0,,5,,,65,127
66346,note_off,2,0,0,,7,,,67,127
66401,note_on,55,0,0,,7,,,67,127
66403,note_off,2,0,0,,5,,,65,127
66458,note_on,55,0,0,,5,,,65,127
66460,note_off,2,0,0,,7,,,67,127
66513,note_off,53,0,0,,2,,,62,127
66513,note_off,0,0,0,,7,,,55,127
66513,note_off,0,0,0,,11,,,58,127
66515,note_on,2,0,0,,11,,,58,127
66515,note_on,0,0,0,,7,,,55,127
66515,note_on,0,0,0,,2,,,62,127
66515,note_on,0,0,0,,4,,,64,127
66517,note_off,2,0,0,,5,,,65,127
66743,note_off,226,0,0,,4,,,64,127
66743,note_off,0,0,0,,2,,,62,127
66743,note_off,0,0,0,,7,,,55,127
66743,note_off,0,0,0,,11,,,58,127
66745,note_on,2,0,0,,7,,,55,127
66745,note_on,0,0,0,,10,,,57,127
66745,note_on,0,0,0,,1,,,61,127
66745,note_on,0,0,0,,7,,,67,127
66973,note_off,228,0,0,,7,,,67,127
66973,note_off,0,0,0,,1,,,61,127
66973,note_off,0,0,0,,10,,,57,127
66973,note_off,0,0,0,,7,,,55,127
66975,note_on,2,0,0,,10,,,57,127
66975,note_on,0,0,0,,5,,,53,127
66975,note_on,0,0,0,,5,,,65,127
67033,note_on,58,0,0,,4,,,64,127
67035,note_off,2,0,0,,5,,,65,127
67090,note_on,55,0,0,,5,,,65,127
67092,note_off,2,0,0,,4,,,64,127
67147,note_on,55,0,0,,4,,,64,127
67149,note_off,2,0,0,,5,,,65,127
67202,note_off,53,0,0,,5,,,53,127
67202,note_off,0,0,0,,10,,,57,127
67204,note_on,2,0,0,,5,,,53,127
67204,note_on,0,0,0,,10,,,57,127
67204,note_on,0,0,0,,2,,,62,127
67206,note_off,2,0,0,,4,,,64,127
67432,note_off,226,0,0,,2,,,62,127
67432,note_off,0,0,0,,10,,,57,127
67432,note_off,0,0,0,,5,,,53,127
67434,note_on,2,0,0,,5,,,53,127
67434,note_on,0,0,0,,2,,,62,127
67434,note_on,0,0,0,,10,,,57,127
67434,note_on,0,0,0,,10,,,69,127
67662,note_off,228,0,0,,10,,,69,127
67662,note_off,0,0,0,,10,,,57,127
67662,note_off,0,0,0,,2,,,62,127
67662,note_off,0,0,0,,5,,,53,127
67664,note_on,2,0,0,,11,,,58,127
67664,note_on,0,0,0,,7,,,55,127
67664,note_on,0,0,0,,2,,,62,127
67664,note_on,0,0,0,,7,,,67,127
67722,note_on,58,0,0,,5,,,65,127
67724,note_off,2,0,0,,7,,,67,127
67779,note_on,55,0,0,,7,,,67,127
67781,note_off,2,0,0,,5,,,65,127
67836,note_on,55,0,0,,5,,,65,127
67838,note_off,2,0,0,,7,,,67,127
67891,note_off,53,0,0,,2,,,62,127
67891,note_off,0,0,0,,7,,,55,127
67891,note_off,0,0,0,,11,,,58,127
67893,note_on,2,0,0,,11,,,58,127
67893,note_on,0,0,0,,7,,,55,127
67893,note_on,0,0,0,,2,,,62,127
67893,note_on,0,0,0,,4,,,64,127
67895,note_off,2,0,0,,5,,,65,127
68121,note_off,226,0,0,,4,,,64,127
68121,note_off,0,0,0,,2,,,62,127
68121,note_off,0,0,0,,7,,,55,127
68121,note_off,0,0,0,,11,,,58,127
68123,note_on,2,0,0,,1,,,61,127
68123,note_on,0,0,0,,7,,,55,127
68123,note_on,0,0,0,,10,,,57,127
68123,note_on,0,0,0,,7,,,67,127
68351,note_off,228,0,0,,7,,,67,127
68351,note_off,0,0,0,,10,,,57,127
68351,note_off,0,0,0,,7,,,55,127
68351,note_off,0,0,0,,1,,,61,127
68353,note_on,2,0,0,,5,,,53,127
68353,note_on,0,0,0,,10,,,57,127
68353,note_on,0,0,0,,5,,,65,127
68411,note_on,58,0,0,,4,,,64,127
68413,note_off,2,0,0,,5,,,65,127
68468,note_on,55,0,0,,5,,,65,127
68470,note_off,2,0,0,,4,,,64,127
68525,note_on,55,0,0,,4,,,64,127
68527,note_off,2,0,0,,5,,,65,127
68580,note_off,53,0,0,,10,,,57,127
68580,note_off,0,0,0,,5,,,53,127
68582,note_on,2,0,0,,5,,,53,127
68582,note_on,0,0,0,,10,,,57,127
68582,note_on,0,0,0,,2,,,62,127
68584,note_off,2,0,0,,4,,,64,127
68810,note_off,226,0,0,,2,,,62,127
68810,note_off,0,0,0,,10,,,57,127
68810,note_off,0,0,0,,5,,,53,127
68812,note_on,2,0,0,,5,,,53,127
68812,note_on,0,0,0,,10,,,57,127
68812,note_on,0,0,0,,2,,,62,127
68812,note_on,0,0,0,,2,,,74,127
69040,note_off,228,0,0,,2,,,74,127
69040,note_off,0,0,0,,2,,,62,127
69040,note_off,0,0,0,,10,,,57,127
69040,note_off,0,0,0,,5,,,53,127
69042,note_on,2,0,0,,0,,,60,127
69042,note_on,0,0,0,,12,,,71,127
69100,note_on,58,0,0,,10,,,69,127
69102,note_off,2,0,0,,12,,,71,127
69157,note_on,55,0,0,,12,,,71,127
69159,note_off,2,0,0,,10,,,69,127
69214,note_on,55,0,0,,10,,,69,127
69216,note_off,2,0,0,,12,,,71,127
69269,note_off,53,0,0,,0,,,60,127
69271,note_on,2,0,0,,12,,,59,127
69271,note_on,0,0,0,,8,,,68,127
69273,note_off,2,0,0,,10,,,69,127
69499,note_off,226,0,0,,8,,,68,127
69499,note_off,0,0,0,,12,,,59,127
69501,note_on,2,0,0,,2,,,62,127
69501,note_on,0,0,0,,2,,,74,127
69729,note_off,228,0,0,,2,,,74,127
69731,note_on,2,0,0,,4,,,76,127
69789,note_on,58,0,0,,2,,,74,127
69791,note_off,2,0,0,,4,,,76,127
69846,note_on,55,0,0,,4,,,76,127
69848,note_off,2,0,0,,2,,,74,127
69903,note_on,55,0,0,,2,,,74,127
69905,note_off,2,0,0,,4,,,76,127
69958,note_off,53,0,0,,2,,,62,127
69960,note_on,2,0,0,,4,,,64,127
69960,note_on,0,0,0,,1,,,73,127
69962,note_off,2,0,0,,2,,,74,127
70188,note_off,226,0,0,,1,,,73,127
70188,note_off,0,0,0,,4,,,64,127
70190,note_on,2,0,0,,7,,,67,127
70190,note_on,0,0,0,,4,,,76,127
70418,note_off,228,0,0,,4,,,76,127
70418,note_off,0,0,0,,7,,,67,127
70420,note_on,2,0,0,,5,,,65,127
70420,note_on,0,0,0,,2,,,74,127
70494,note_off,74,0,0,,2,,,74,127
70496,note_on,2,0,0,,4,,,76,127
70570,note_off,74,0,0,,4,,,76,127
70572,note_on,2,0,0,,2,,,74,127
70646,note_off,74,0,0,,2,,,74,127
70646,note_off,0,0,0,,5,,,65,127
70648,note_on,2,0,0,,4,,,64,127
70648,note_on,0,0,0,,1,,,73,127
70876,note_off,228,0,0,,1,,,73,127
70876,note_off,0,0,0,,4,,,64,127
70878,note_on,2,0,0,,2,,,62,127
70878,note_on,0,0,0,,2,,,74,127
70952,note_off,74,0,0,,2,,,74,127
70954,note_on,2,0,0,,1,,,73,127
71028,note_off,74,0,0,,1,,,73,127
71030,note_on,2,0,0,,2,,,74,127
71104,note_off,74,0,0,,2,,,74,127
71104,note_off,0,0,0,,2,,,62,127
71106,note_on,2,0,0,,10,,,57,127
71106,note_on,0,0,0,,4,,,76,127
71334,note_off,228,0,0,,4,,,76,127
71334,note_off,0,0,0,,10,,,57,127
71336,note_on,2,0,0,,10,,,69,127
71336,note_on,0,0,0,,10,,,81,127
71564,note_off,228,0,0,,10,,,81,127
71566,note_on,2,0,0,,11,,,82,127
71794,note_off,228,0,0,,11,,,82,127
71794,note_off,0,0,0,,10,,,69,127
71796,note_on,2,0,0,,11,,,58,127
71796,note_on,0,0,0,,2,,,74,127
72024,note_off,228,0,0,,2,,,74,127
72024,note_off,0,0,0,,11,,,58,127
72026,note_on,2,0,0,,7,,,67,127
72026,note_on,0,0,0,,1,,,73,127
72254,note_off,228,0,0,,1,,,73,127
72256,note_on,2,0,0,,2,,,74,127
72330,note_off,74,0,0,,2,,,74,127
72332,note_on,2,0,0,,1,,,73,127
72406,note_off,74,0,0,,1,,,73,127
72408,note_on,2,0,0,,2,,,74,127
72482,note_off,74,0,0,,2,,,74,127
72482,note_off,0,0,0,,7,,,67,127
72484,note_on,2,0,0,,10,,,57,127
72484,note_on,0,0,0,,4,,,76,127
72712,note_off,228,0,0,,4,,,76,127
72712,note_off,0,0,0,,10,,,57,127
72714,note_on,2,0,0,,10,,,69,127
72714,note_on,0,0,0,,5,,,65,127
72714,note_on,0,0,0,,10,,,81,127
72942,note_off,228,0,0,,10,,,81,127
72942,note_off,0,0,0,,5,,,65,127
72942,note_off,0,0,0,,10,,,69,127
72944,note_on,2,0,0,,4,,,64,127
72944,note_on,0,0,0,,11,,,82,127
73172,note_off,228,0,0,,11,,,82,127
73172,note_off,0,0,0,,4,,,64,127
73174,note_on,2,0,0,,11,,,58,127
73174,note_on,0,0,0,,2,,,62,127
73174,note_on,0,0,0,,2,,,74,127
73402,note_off,228,0,0,,2,,,74,127
73402,note_off,0,0,0,,2,,,62,127
73402,note_off,0,0,0,,11,,,58,127
73404,note_on,2,0,0,,7,,,67,127
73404,note_on,0,0,0,,1,,,73,127
73632,note_off,228,0,0,,1,,,73,127
73634,note_on,2,0,0,,2,,,74,127
73708,note_off,74,0,0,,2,,,74,127
73710,note_on,2,0,0,,1,,,73,127
73784,note_off,74,0,0,,1,,,73,127
73786,note_on,2,0,0,,2,,,74,127
73860,note_off,74,0,0,,2,,,74,127
73860,note_off,0,0,0,,7,,,67,127
73862,note_on,2,0,0,,10,,,45,127
73862,note_on,0,0,0,,4,,,64,127
74090,note_off,228,0,0,,4,,,64,127
74090,note_off,0,0,0,,10,,,45,127
74092,note_on,2,0,0,,4,,,52,127
74092,note_on,0,0,0,,10,,,81,127
74320,note_off,228,0,0,,10,,,81,127
74320,note_off,0,0,0,,4,,,52,127
74322,note_on,2,0,0,,10,,,57,127
74322,note_on,0,0,0,,1,,,85,127
74550,note_off,228,0,0,,1,,,85,127
74550,note_off,0,0,0,,10,,,57,127
74552,note_on,2,0,0,,2,,,50,127
74552,note_on,0,0,0,,2,,,62,127
74780,note_off,228,0,0,,2,,,62,127
74780,note_off,0,0,0,,2,,,50,127
74782,note_on,2,0,0,,5,,,53,127
74782,note_on,0,0,0,,10,,,81,127
75010,note_off,228,0,0,,10,,,81,127
75010,note_off,0,0,0,,5,,,53,127
75012,note_on,2,0,0,,10,,,57,127
75012,note_on,0,0,0,,2,,,86,127
75240,note_off,228,0,0,,2,,,86,127
75240,note_off,0,0,0,,10,,,57,127
75242,note_on,2,0,0,,10,,,45,127
75242,note_on,0,0,0,,4,,,64,127
75470,note_off,228,0,0,,4,,,64,127
75470,note_off,0,0,0,,10,,,45,127
75472,note_on,2,0,0,,4,,,52,127
75472,note_on,0,0,0,,10,,,81,127
75700,note_off,228,0,0,,10,,,81,127
75700,note_off,0,0,0,,4,,,52,127
75702,note_on,2,0,0,,10,,,57,127
75702,note_on,0,0,0,,1,,,85,127
75930,note_off,228,0,0,,1,,,85,127
75930,note_off,0,0,0,,10,,,57,127
75932,note_on,2,0,0,,2,,,50,127
75932,note_on,0,0,0,,2,,,62,127
76160,note_off,228,0,0,,2,,,62,127
76160,note_off,0,0,0,,2,,,50,127
76162,note_on,2,0,0,,5,,,53,127
76162,note_on,0,0,0,,10,,,81,127
76390,note_off,228,0,0,,10,,,81,127
76390,note_off,0,0,0,,5,,,53,127
76392,note_on,2,0,0,,10,,,57,127
76392,note_on,0,0,0,,2,,,86,127
76620,note_off,228,0,0,,2,,,86,127
76620,note_off,0,0,0,,10,,,57,127
76622,note_on,2,0,0,,10,,,45,127
76622,note_on,0,0,0,,4,,,64,127
76850,note_off,228,0,0,,4,,,64,127
76850,note_off,0,0,0,,10,,,45,127
76852,note_on,2,0,0,,4,,,52,127
76852,note_on,0,0,0,,10,,,81,127
77080,note_off,228,0,0,,10,,,81,127
77080,note_off,0,0,0,,4,,,52,127
77082,note_on,2,0,0,,10,,,57,127
77082,note_on,0,0,0,,1,,,85,127
77310,note_off,228,0,0,,1,,,85,127
77310,note_off,0,0,0,,10,,,57,127
77312,note_on,2,0,0,,2,,,50,127
77312,note_on,0,0,0,,2,,,62,127
77540,note_off,228,0,0,,2,,,62,127
77540,note_off,0,0,0,,2,,,50,127
77542,note_on,2,0,0,,5,,,53,127
77542,note_on,0,0,0,,10,,,81,127
77770,note_off,228,0,0,,10,,,81,127
77770,note_off,0,0,0,,5,,,53,127
77772,note_on,2,0,0,,10,,,57,127
77772,note_on,0,0,0,,2,,,86,127
78000,note_off,228,0,0,,2,,,86,127
78000,note_off,0,0,0,,10,,,57,127
78002,note_on,2,0,0,,10,,,45,127
78002,note_on,0,0,0,,1,,,85,127
78230,note_off,228,0,0,,1,,,85,127
78230,note_off,0,0,0,,10,,,45,127
78232,note_on,2,0,0,,4,,,52,127
78232,note_on,0,0,0,,10,,,81,127
78460,note_off,228,0,0,,10,,,81,127
78460,note_off,0,0,0,,4,,,52,127
78462,note_on,2,0,0,,10,,,57,127
78462,note_on,0,0,0,,4,,,76,127
78690,note_off,228,0,0,,4,,,76,127
78690,note_off,0,0,0,,10,,,57,127
78692,note_on,2,0,0,,2,,,62,127
78692,note_on,0,0,0,,7,,,79,127
78750,note_on,58,0,0,,5,,,77,127
78752,note_off,2,0,0,,7,,,79,127
78807,note_on,55,0,0,,7,,,79,127
78809,note_off,2,0,0,,5,,,77,127
78864,note_on,55,0,0,,5,,,77,127
78866,note_off,2,0,0,,7,,,79,127
78919,note_off,53,0,0,,2,,,62,127
78921,note_on,2,0,0,,1,,,61,127
78921,note_on,0,0,0,,4,,,76,127
78923,note_off,2,0,0,,5,,,77,127
79149,note_off,226,0,0,,4,,,76,127
79149,note_off,0,0,0,,1,,,61,127
79151,note_on,2,0,0,,2,,,62,127
79151,note_on,0,0,0,,5,,,77,127
79379,note_off,228,0,0,,5,,,77,127
79379,note_off,0,0,0,,2,,,62,127
79381,note_on,2,0,0,,10,,,45,127
79381,note_on,0,0,0,,4,,,76,127
79609,note_off,228,0,0,,10,,,45,127
79611,note_on,2,0,0,,10,,,81,127
79726,note_off,115,0,0,,4,,,76,127
79839,note_off,113,0,0,,10,,,81,127
79841,note_on,2,0,0,,6,,,66,127
79841,note_on,0,0,0,,10,,,81,127
80069,note_off,228,0,0,,10,,,81,127
80069,note_off,0,0,0,,6,,,66,127
80071,note_on,2,0,0,,7,,,43,127
80071,note_on,0,0,0,,11,,,82,127
80299,note_off,228,0,0,,11,,,82,127
80299,note_off,0,0,0,,7,,,43,127
80301,note_on,2,0,0,,7,,,67,127
80301,note_on,0,0,0,,12,,,83,127
80529,note_off,228,0,0,,12,,,83,127
80529,note_off,0,0,0,,7,,,67,127
80531,note_on,2,0,0,,4,,,64,127
80531,note_on,0,0,0,,7,,,79,127
80759,note_off,228,0,0,,7,,,79,127
80759,note_off,0,0,0,,4,,,64,127
80761,note_on,2,0,0,,6,,,42,127
80761,note_on,0,0,0,,8,,,80,127
80989,note_off,228,0,0,,8,,,80,127
80989,note_off,0,0,0,,6,,,42,127
80991,note_on,2,0,0,,10,,,69,127
80991,note_on,0,0,0,,10,,,81,127
81219,note_off,228,0,0,,10,,,81,127
81219,note_off,0,0,0,,10,,,69,127
81221,note_on,2,0,0,,6,,,66,127
81221,note_on,0,0,0,,6,,,78,127
81449,note_off,228,0,0,,6,,,78,127
81449,note_off,0,0,0,,6,,,66,127
81451,note_on,2,0,0,,4,,,40,127
81451,note_on,0,0,0,,6,,,78,127
81525,note_off,74,0,0,,6,,,78,127
81527,note_on,2,0,0,,4,,,76,127
81601,note_off,74,0,0,,4,,,76,127
81603,note_on,2,0,0,,6,,,78,127
81677,note_off,74,0,0,,6,,,78,127
81677,note_off,0,0,0,,4,,,40,127
81679,note_on,2,0,0,,4,,,64,127
81679,note_on,0,0,0,,7,,,79,127
81907,note_off,228,0,0,,7,,,79,127
81907,note_off,0,0,0,,4,,,64,127
81909,note_on,2,0,0,,1,,,61,127
81909,note_on,0,0,0,,4,,,76,127
82137,note_off,228,0,0,,4,,,76,127
82137,note_off,0,0,0,,1,,,61,127
82139,note_on,2,0,0,,2,,,38,127
82139,note_on,0,0,0,,4,,,76,127
82367,note_off,228,0,0,,4,,,76,127
82367,note_off,0,0,0,,2,,,38,127
82369,note_on,2,0,0,,10,,,69,127
82369,note_on,0,0,0,,6,,,78,127
82597,note_off,228,0,0,,6,,,78,127
82597,note_off,0,0,0,,10,,,69,127
82599,note_on,2,0,0,,6,,,66,127
82599,note_on,0,0,0,,10,,,81,127
82827,note_off,228,0,0,,10,,,81,127
82827,note_off,0,0,0,,6,,,66,127
82829,note_on,2,0,0,,7,,,43,127
82829,note_on,0,0,0,,11,,,82,127
83057,note_off,228,0,0,,11,,,82,127
83057,note_off,0,0,0,,7,,,43,127
83059,note_on,2,0,0,,12,,,71,127
83059,note_on,0,0,0,,12,,,83,127
83287,note_off,228,0,0,,12,,,83,127
83287,note_off,0,0,0,,12,,,71,127
83289,note_on,2,0,0,,4,,,64,127
83289,note_on,0,0,0,,7,,,79,127
83517,note_off,228,0,0,,7,,,79,127
83517,note_off,0,0,0,,4,,,64,127
83519,note_on,2,0,0,,6,,,42,127
83519,note_on,0,0,0,,8,,,80,127
83747,note_off,228,0,0,,8,,,80,127
83747,note_off,0,0,0,,6,,,42,127
83749,note_on,2,0,0,,6,,,66,127
83749,note_on,0,0,0,,10,,,81,127
83977,note_off,228,0,0,,10,,,81,127
83977,note_off,0,0,0,,6,,,66,127
83979,note_on,2,0,0,,2,,,62,127
83979,note_on,0,0,0,,6,,,78,127
84207,note_off,228,0,0,,6,,,78,127
84207,note_off,0,0,0,,2,,,62,127
84209,note_on,2,0,0,,4,,,40,127
84209,note_on,0,0,0,,6,,,78,127
84283,note_off,74,0,0,,6,,,78,127
84285,note_on,2,0,0,,4,,,76,127
84359,note_off,74,0,0,,4,,,76,127
84361,note_on,2,0,0,,6,,,78,127
84435,note_off,74,0,0,,6,,,78,127
84435,note_off,0,0,0,,4,,,40,127
84437,note_on,2,0,0,,7,,,67,127
84437,note_on,0,0,0,,7,,,79,127
84665,note_off,228,0,0,,7,,,79,127
84665,note_off,0,0,0,,7,,,67,127
84667,note_on,2,0,0,,1,,,61,127
84667,note_on,0,0,0,,4,,,76,127
84895,note_off,228,0,0,,4,,,76,127
84895,note_off,0,0,0,,1,,,61,127
84897,note_on,2,0,0,,2,,,38,127
84897,note_on,0,0,0,,6,,,78,127
85125,note_off,228,0,0,,6,,,78,127
85125,note_off,0,0,0,,2,,,38,127
85127,note_on,2,0,0,,2,,,62,127
85127,note_on,0,0,0,,2,,,74,127
85355,note_off,228,0,0,,2,,,74,127
85355,note_off,0,0,0,,2,,,62,127
85357,note_on,2,0,0,,10,,,69,127
85357,note_on,0,0,0,,10,,,81,127
85585,note_off,228,0,0,,10,,,81,127
85585,note_off,0,0,0,,10,,,69,127
85587,note_on,2,0,0,,10,,,33,127
85587,note_on,0,0,0,,1,,,73,127
85587,note_on,0,0,0,,4,,,76,127
85815,note_off,228,0,0,,4,,,76,127
85815,note_off,0,0,0,,1,,,73,127
85817,note_on,2,0,0,,6,,,78,127
85817,note_on,0,0,0,,2,,,74,127
86045,note_off,228,0,0,,2,,,74,127
86045,note_off,0,0,0,,6,,,78,127
86047,note_on,2,0,0,,4,,,76,127
86047,note_on,0,0,0,,7,,,79,127
86275,note_off,228,0,0,,7,,,79,127
86275,note_off,0,0,0,,4,,,76,127
86275,note_off,0,0,0,,10,,,33,127
86277,note_on,2,0,0,,2,,,38,127
86277,note_on,0,0,0,,6,,,78,127
86277,note_on,0,0,0,,2,,,74,127
86505,note_off,228,0,0,,2,,,74,127
86505,note_off,0,0,0,,6,,,78,127
86505,note_off,0,0,0,,2,,,38,127
86507,note_on,2,0,0,,6,,,66,127
86507,note_on,0,0,0,,7,,,79,127
86735,note_off,228,0,0,,7,,,79,127
86735,note_off,0,0,0,,6,,,66,127
86737,note_on,2,0,0,,10,,,69,127
86737,note_on,0,0,0,,10,,,81,127
86965,note_off,228,0,0,,10,,,81,127
86965,note_off,0,0,0,,10,,,69,127
86967,note_on,2,0,0,,10,,,33,127
86967,note_on,0,0,0,,4,,,76,127
86967,note_on,0,0,0,,1,,,73,127
87195,note_off,228,0,0,,1,,,73,127
87195,note_off,0,0,0,,4,,,76,127
87197,note_on,2,0,0,,2,,,74,127
87197,note_on,0,0,0,,6,,,78,127
87425,note_off,228,0,0,,6,,,78,127
87425,note_off,0,0,0,,2,,,74,127
87427,note_on,2,0,0,,4,,,76,127
87427,note_on,0,0,0,,7,,,79,127
87655,note_off,228,0,0,,7,,,79,127
87655,note_off,0,0,0,,4,,,76,127
87655,note_off,0,0,0,,10,,,33,127
87657,note_on,2,0,0,,2,,,50,127
87657,note_on,0,0,0,,6,,,78,127
87731,note_off,74,0,0,,6,,,78,127
87733,note_on,2,0,0,,4,,,76,127
87807,note_off,74,0,0,,4,,,76,127
87809,note_on,2,0,0,,6,,,78,127
87883,note_off,74,0,0,,6,,,78,127
87883,note_off,0,0,0,,2,,,50,127
87885,note_on,2,0,0,,4,,,52,127
87885,note_on,0,0,0,,7,,,79,127
87959,note_off,74,0,0,,7,,,79,127
87961,note_on,2,0,0,,6,,,78,127
88035,note_off,74,0,0,,6,,,78,127
88037,note_on,2,0,0,,7,,,79,127
88111,note_off,74,0,0,,7,,,79,127
88111,note_off,0,0,0,,4,,,52,127
88113,note_on,2,0,0,,6,,,54,127
88113,note_on,0,0,0,,10,,,81,127
88341,note_off,228,0,0,,10,,,81,127
88341,note_off,0,0,0,,6,,,54,127
88343,note_on,2,0,0,,7,,,55,127
88343,note_on,0,0,0,,7,,,79,127
88343,note_on,0,0,0,,4,,,76,127
88571,note_off,228,0,0,,4,,,76,127
88571,note_off,0,0,0,,7,,,79,127
88571,note_off,0,0,0,,7,,,55,127
88573,note_on,2,0,0,,10,,,57,127
88573,note_on,0,0,0,,6,,,78,127
88573,note_on,0,0,0,,2,,,74,127
88801,note_off,228,0,0,,2,,,74,127
88801,note_off,0,0,0,,6,,,78,127
88801,note_off,0,0,0,,10,,,57,127
88803,note_on,2,0,0,,10,,,45,127
88803,note_on,0,0,0,,4,,,76,127
88803,note_on,0,0,0,,1,,,73,127
89031,note_off,228,0,0,,1,,,73,127
89031,note_off,0,0,0,,4,,,76,127
89031,note_off,0,0,0,,10,,,45,127
89033,note_on,2,0,0,,2,,,38,127
89033,note_on,0,0,0,,2,,,74,127
89261,note_off,228,0,0,,2,,,38,127
89263,note_on,2,0,0,,6,,,66,127
89491,note_off,228,0,0,,6,,,66,127
89491,note_off,0,0,0,,2,,,74,127
89493,note_on,2,0,0,,10,,,69,127
89493,note_on,0,0,0,,10,,,81,127
89721,note_off,228,0,0,,10,,,69,127
89723,note_on,2,0,0,,10,,,33,127
89951,note_off,228,0,0,,10,,,81,127
89953,note_on,2,0,0,,7,,,79,127
90181,note_off,228,0,0,,7,,,79,127
90183,note_on,2,0,0,,4,,,76,127
90411,note_off,228,0,0,,4,,,76,127
90411,note_off,0,0,0,,10,,,33,127
90413,note_on,2,0,0,,2,,,38,127
90413,note_on,0,0,0,,6,,,78,127
90641,note_off,228,0,0,,6,,,78,127
90641,note_off,0,0,0,,2,,,38,127
90643,note_on,2,0,0,,6,,,66,127
90643,note_on,0,0,0,,7,,,79,127
90871,note_off,228,0,0,,7,,,79,127
90871,note_off,0,0,0,,6,,,66,127
90873,note_on,2,0,0,,10,,,69,127
90873,note_on,0,0,0,,10,,,81,127
91101,note_off,228,0,0,,10,,,69,127
91103,note_on,2,0,0,,10,,,33,127
91331,note_off,228,0,0,,10,,,81,127
91333,note_on,2,0,0,,7,,,79,127
91561,note_off,228,0,0,,7,,,79,127
91563,note_on,2,0,0,,4,,,76,127
91791,note_off,228,0,0,,4,,,76,127
91791,note_off,0,0,0,,10,,,33,127
91793,note_on,2,0,0,,2,,,50,127
91793,note_on,0,0,0,,6,,,78,127
91867,note_off,74,0,0,,6,,,78,127
91869,note_on,2,0,0,,4,,,76,127
91943,note_off,74,0,0,,4,,,76,127
91945,note_on,2,0,0,,6,,,78,127
92019,note_off,74,0,0,,6,,,78,127
92019,note_off,0,0,0,,2,,,50,127
92021,note_on,2,0,0,,4,,,52,127
92021,note_on,0,0,0,,7,,,79,127
92095,note_off,74,0,0,,7,,,79,127
92097,note_on,2,0,0,,6,,,78,127
92171,note_off,74,0,0,,6,,,78,127
92173,note_on,2,0,0,,7,,,79,127
92247,note_off,74,0,0,,7,,,79,127
92247,note_off,0,0,0,,4,,,52,127
92249,note_on,2,0,0,,6,,,54,127
92249,note_on,0,0,0,,10,,,81,127
92477,note_off,228,0,0,,10,,,81,127
92477,note_off,0,0,0,,6,,,54,127
92479,note_on,2,0,0,,7,,,55,127
92479,note_on,0,0,0,,7,,,79,127
92479,note_on,0,0,0,,4,,,76,127
92707,note_off,228,0,0,,4,,,76,127
92707,note_off,0,0,0,,7,,,79,127
92707,note_off,0,0,0,,7,,,55,127
92709,note_on,2,0,0,,10,,,57,127
92709,note_on,0,0,0,,2,,,74,127
92709,note_on,0,0,0,,6,,,78,127
92937,note_off,228,0,0,,6,,,78,127
92937,note_off,0,0,0,,2,,,74,127
92939,note_on,2,0,0,,10,,,45,127
92939,note_on,0,0,0,,4,,,76,127
92939,note_on,0,0,0,,1,,,73,127
93165,note_off,226,0,0,,10,,,57,127
93167,note_off,2,0,0,,1,,,73,127
93167,note_off,0,0,0,,4,,,76,127
93167,note_off,0,0,0,,10,,,45,127
93169,note_on,2,0,0,,2,,,50,127
93169,note_on,0,0,0,,2,,,74,127
93397,note_off,228,0,0,,2,,,74,127
93399,note_on,2,0,0,,0,,,72,127
93399,note_on,0,0,0,,4,,,76,127
93627,note_off,228,0,0,,4,,,76,127
93627,note_off,0,0,0,,0,,,72,127
93627,note_off,0,0,0,,2,,,50,127
93629,note_on,2,0,0,,2,,,62,127
93629,note_on,0,0,0,,5,,,77,127
93629,note_on,0,0,0,,11,,,70,127
93857,note_off,228,0,0,,5,,,77,127
93857,note_off,0,0,0,,2,,,62,127
93859,note_on,2,0,0,,1,,,61,127
93859,note_on,0,0,0,,4,,,76,127
94085,note_off,226,0,0,,11,,,70,127
94090,note_on,5,0,0,,10,,,69,127
94318,note_off,228,0,0,,10,,,69,127
94320,note_on,2,0,0,,7,,,67,127
94543,note_off,223,0,0,,4,,,76,127
94548,note_off,5,0,0,,7,,,67,127
94548,note_off,0,0,0,,1,,,61,127
94550,note_on,2,0,0,,2,,,62,127
94550,note_on,0,0,0,,5,,,65,127
94624,note_off,74,0,0,,5,,,65,127
94626,note_on,2,0,0,,4,,,64,127
94700,note_off,74,0,0,,4,,,64,127
94702,note_on,2,0,0,,5,,,65,127
94776,note_off,74,0,0,,5,,,65,127
94776,note_off,0,0,0,,2,,,62,127
94778,note_on,2,0,0,,7,,,55,127
94778,note_on,0,0,0,,7,,,67,127
95006,note_off,228,0,0,,7,,,67,127
95006,note_off,0,0,0,,7,,,55,127
95008,note_on,2,0,0,,10,,,57,127
95008,note_on,0,0,0,,4,,,64,127
95236,note_off,228,0,0,,4,,,64,127
95236,note_off,0,0,0,,10,,,57,127
95238,note_on,2,0,0,,2,,,50,127
95238,note_on,0,0,0,,2,,,62,127
95466,note_off,228,0,0,,2,,,62,127
95468,note_on,2,0,0,,0,,,60,127
95468,note_on,0,0,0,,4,,,64,127
95696,note_off,228,0,0,,4,,,64,127
95696,note_off,0,0,0,,0,,,60,127
95696,note_off,0,0,0,,2,,,50,127
95698,note_on,2,0,0,,2,,,50,127
95698,note_on,0,0,0,,11,,,58,127
95698,note_on,0,0,0,,5,,,65,127
95926,note_off,228,0,0,,5,,,65,127
95926,note_off,0,0,0,,2,,,50,127
95928,note_on,2,0,0,,1,,,49,127
95928,note_on,0,0,0,,4,,,64,127
96154,note_off,226,0,0,,11,,,58,127
96159,note_on,5,0,0,,10,,,57,127
96387,note_off,228,0,0,,10,,,57,127
96387,note_off,0,0,0,,1,,,49,127
96389,note_on,2,0,0,,1,,,49,127
96389,note_on,0,0,0,,7,,,55,127
96612,note_off,223,0,0,,4,,,64,127
96617,note_off,5,0,0,,7,,,55,127
96617,note_off,0,0,0,,1,,,49,127
96619,note_on,2,0,0,,2,,,50,127
96619,note_on,0,0,0,,5,,,53,127
96693,note_off,74,0,0,,5,,,53,127
96695,note_on,2,0,0,,4,,,52,127
96769,note_off,74,0,0,,4,,,52,127
96771,note_on,2,0,0,,5,,,53,127
96845,note_off,74,0,0,,5,,,53,127
96845,note_off,0,0,0,,2,,,50,127
96847,note_on,2,0,0,,7,,,43,127
96847,note_on,0,0,0,,7,,,55,127
97075,note_off,228,0,0,,7,,,55,127
97075,note_off,0,0,0,,7,,,43,127
97077,note_on,2,0,0,,10,,,45,127
97077,note_on,0,0,0,,4,,,52,127
97305,note_off,228,0,0,,4,,,52,127
97305,note_off,0,0,0,,10,,,45,127
97307,note_on,2,0,0,,2,,,50,127
97307,note_on,0,0,0,,5,,,53,127
97381,note_off,74,0,0,,5,,,53,127
97383,note_on,2,0,0,,4,,,52,127
97457,note_off,74,0,0,,4,,,52,127
97459,note_on,2,0,0,,5,,,53,127
97533,note_off,74,0,0,,5,,,53,127
97533,note_off,0,0,0,,2,,,50,127
97535,note_on,2,0,0,,7,,,43,127
97535,note_on,0,0,0,,7,,,55,127
97763,note_off,228,0,0,,7,,,55,127
97763,note_off,0,0,0,,7,,,43,127
97765,note_on,2,0,0,,10,,,45,127
97765,note_on,0,0,0,,4,,,52,127
97981,note_off,216,0,0,,4,,,52,127
97981,note_off,0,0,0,,10,,,45,127
97995,note_on,14,0,0,,2,,,38,127
97995,note_on,0,0,0,,2,,,50,127
98223,note_off,228,0,0,,2,,,50,127
98223,note_off,0,0,0,,2,,,38,127
98225,note_on,2,0,0,,6,,,42,127
98225,note_on,0,0,0,,6,,,54,127
98453,note_off,228,0,0,,6,,,54,127
98453,note_off,0,0,0,,6,,,42,127
98455,note_on,2,0,0,,10,,,45,127
98455,note_on,0,0,0,,10,,,57,127
98683,note_off,228,0,0,,10,,,57,127
98683,note_off,0,0,0,,10,,,45,127
98685,note_on,2,0,0,,2,,,50,127
98685,note_on,0,0,0,,2,,,62,127
98913,note_off,228,0,0,,2,,,62,127
98913,note_off,0,0,0,,2,,,50,127
98915,note_on,2,0,0,,6,,,54,127
98915,note_on,0,0,0,,6,,,66,127
99143,note_off,228,0,0,,6,,,66,127
99143,note_off,0,0,0,,6,,,54,127
99145,note_on,2,0,0,,10,,,57,127
99145,note_on,0,0,0,,10,,,69,127
99373,note_off,228,0,0,,10,,,69,127
99373,note_off,0,0,0,,10,,,57,127
99375,note_on,2,0,0,,2,,,62,127
99375,note_on,0,0,0,,2,,,74,127
99603,note_off,228,0,0,,2,,,74,127
99603,note_off,0,0,0,,2,,,62,127
99605,note_on,2,0,0,,6,,,66,127
99605,note_on,0,0,0,,6,,,78,127
99833,note_off,228,0,0,,6,,,78,127
99833,note_off,0,0,0,,6,,,66,127
99835,note_on,2,0,0,,10,,,69,127
99835,note_on,0,0,0,,10,,,81,127
100063,note_off,228,0,0,,10,,,69,127
100065,note_on,2,0,0,,2,,,50,127
100065,note_on,0,0,0,,2,,,38,127
100293,note_off,228,0,0,,10,,,81,127
100295,note_on,2,0,0,,2,,,86,127
100523,note_off,228,0,0,,2,,,86,127
100523,note_off,0,0,0,,2,,,38,127
100523,note_off,0,0,0,,2,,,50,127
100525,note_on,2,0,0,,6,,,42,127
100525,note_on,0,0,0,,6,,,54,127
100525,note_on,0,0,0,,2,,,74,127
100753,note_off,228,0,0,,2,,,74,127
100753,note_off,0,0,0,,6,,,54,127
100753,note_off,0,0,0,,6,,,42,127
100755,note_on,2,0,0,,7,,,43,127
100755,note_on,0,0,0,,7,,,55,127
100755,note_on,0,0,0,,7,,,79,127
100829,note_off,74,0,0,,7,,,79,127
100831,note_on,2,0,0,,6,,,78,127
100905,note_off,74,0,0,,6,,,78,127
100907,note_on,2,0,0,,4,,,76,127
100981,note_off,74,0,0,,4,,,76,127
100981,note_off,0,0,0,,7,,,55,127
100981,note_off,0,0,0,,7,,,43,127
100983,note_on,2,0,0,,10,,,45,127
100983,note_on,0,0,0,,10,,,57,127
100983,note_on,0,0,0,,6,,,78,127
100983,note_on,0,0,0,,2,,,74,127
101211,note_off,228,0,0,,2,,,74,127
101211,note_off,0,0,0,,6,,,78,127
101211,note_off,0,0,0,,10,,,57,127
101211,note_off,0,0,0,,10,,,45,127
101213,note_on,2,0,0,,10,,,45,127
101213,note_on,0,0,0,,10,,,57,127
101213,note_on,0,0,0,,1,,,73,127
101213,note_on,0,0,0,,4,,,76,127
101441,note_off,228,0,0,,4,,,76,127
101441,note_off,0,0,0,,1,,,73,127
101441,note_off,0,0,0,,10,,,57,127
101441,note_off,0,0,0,,10,,,45,127
101443,note_on,2,0,0,,2,,,38,127
101443,note_on,0,0,0,,2,,,50,127
101443,note_on,0,0,0,,2,,,74,127
101671,note_off,228,0,0,,2,,,74,127
101671,note_off,0,0,0,,2,,,50,127
101671,note_off,0,0,0,,2,,,38,127
101673,note_on,2,0,0,,6,,,42,127
101673,note_on,0,0,0,,6,,,54,127
101901,note_off,228,0,0,,6,,,54,127
101901,note_off,0,0,0,,6,,,42,127
101903,note_on,2,0,0,,10,,,45,127
101903,note_on,0,0,0,,10,,,57,127
102131,note_off,228,0,0,,10,,,57,127
102131,note_off,0,0,0,,10,,,45,127
102133,note_on,2,0,0,,2,,,50,127
102133,note_on,0,0,0,,2,,,62,127
102361,note_off,228,0,0,,2,,,62,127
102361,note_off,0,0,0,,2,,,50,127
102363,note_on,2,0,0,,6,,,54,127
102363,note_on,0,0,0,,6,,,66,127
102591,note_off,228,0,0,,6,,,66,127
102591,note_off,0,0,0,,6,,,54,127
102593,note_on,2,0,0,,10,,,57,127
102593,note_on,0,0,0,,10,,,69,127
102821,note_off,228,0,0,,10,,,69,127
102821,note_off,0,0,0,,10,,,57,127
102823,note_on,2,0,0,,2,,,62,127
102823,note_on,0,0,0,,2,,,74,127
103051,note_off,228,0,0,,2,,,74,127
103051,note_off,0,0,0,,2,,,62,127
103053,note_on,2,0,0,,6,,,66,127
103053,note_on,0,0,0,,6,,,78,127
103281,note_off,228,0,0,,6,,,78,127
103281,note_off,0,0,0,,6,,,66,127
103283,note_on,2,0,0,,10,,,69,127
103283,note_on,0,0,0,,10,,,81,127
103511,note_off,228,0,0,,10,,,69,127
103513,note_on,2,0,0,,2,,,38,127
103513,note_on,0,0,0,,2,,,50,127
103741,note_off,228,0,0,,10,,,81,127
103743,note_on,2,0,0,,2,,,86,127
103971,note_off,228,0,0,,2,,,86,127
103971,note_off,0,0,0,,2,,,50,127
103971,note_off,0,0,0,,2,,,38,127
103973,note_on,2,0,0,,6,,,42,127
103973,note_on,0,0,0,,6,,,54,127
103973,note_on,0,0,0,,2,,,74,127
104201,note_off,228,0,0,,2,,,74,127
104201,note_off,0,0,0,,6,,,54,127
104201,note_off,0,0,0,,6,,,42,127
104203,note_on,2,0,0,,7,,,43,127
104203,note_on,0,0,0,,7,,,55,127
104203,note_on,0,0,0,,7,,,79,127
104277,note_off,74,0,0,,7,,,79,127
104279,note_on,2,0,0,,6,,,78,127
104353,note_off,74,0,0,,6,,,78,127
104355,note_on,2,0,0,,4,,,76,127
104429,note_off,74,0,0,,4,,,76,127
104429,note_off,0,0,0,,7,,,55,127
104429,note_off,0,0,0,,7,,,43,127
104431,note_on,2,0,0,,10,,,45,127
104431,note_on,0,0,0,,10,,,57,127
104431,note_on,0,0,0,,6,,,78,127
104431,note_on,0,0,0,,2,,,74,127
104659,note_off,228,0,0,,2,,,74,127
104659,note_off,0,0,0,,6,,,78,127
104659,note_off,0,0,0,,10,,,57,127
104659,note_off,0,0,0,,10,,,45,127
104661,note_on,2,0,0,,10,,,45,127
104661,note_on,0,0,0,,10,,,57,127
104661,note_on,0,0,0,,1,,,73,127
104661,note_on,0,0,0,,4,,,76,127
104889,note_off,228,0,0,,4,,,76,127
104889,note_off,0,0,0,,1,,,73,127
104889,note_off,0,0,0,,10,,,57,127
104889,note_off,0,0,0,,10,,,45,127
104891,note_on,2,0,0,,2,,,38,127
104891,note_on,0,0,0,,2,,,50,127
104891,note_on,0,0,0,,2,,,74,127
105119,note_off,228,0,0,,2,,,74,127
105121,note_on,2,0,0,,2,,,86,127
105349,note_off,228,0,0,,2,,,86,127
105349,note_off,0,0,0,,2,,,50,127
105349,note_off,0,0,0,,2,,,38,127
105351,note_on,2,0,0,,6,,,54,127
105351,note_on,0,0,0,,2,,,62,127
105579,note_off,228,0,0,,2,,,62,127
105579,note_off,0,0,0,,6,,,54,127
105581,note_on,2,0,0,,7,,,55,127
105581,note_on,0,0,0,,7,,,67,127
105655,note_off,74,0,0,,7,,,67,127
105657,note_on,2,0,0,,6,,,66,127
105731,note_off,74,0,0,,6,,,66,127
105733,note_on,2,0,0,,4,,,64,127
105807,note_off,74,0,0,,4,,,64,127
105807,note_off,0,0,0,,7,,,55,127
105809,note_on,2,0,0,,10,,,57,127
105809,note_on,0,0,0,,6,,,66,127
105809,note_on,0,0,0,,2,,,62,127
106037,note_off,228,0,0,,2,,,62,127
106037,note_off,0,0,0,,6,,,66,127
106056,note_on,19,0,0,,10,,,45,127
106056,note_on,0,0,0,,1,,,61,127
106056,note_on,0,0,0,,4,,,64,127
106154,note_off,98,0,0,,10,,,57,127
106302,note_off,148,0,0,,4,,,64,127
106302,note_off,0,0,0,,1,,,61,127
106302,note_off,0,0,0,,10,,,45,127
106346,note_on,44,0,0,,2,,,38,127
106346,note_on,0,0,0,,2,,,62,127
108266,note_off,1920,0,0,,2,,,62,127
108266,note_off,0,0,0,,2,,,38,127
112128,end_of_track,3862,1,0,,,,,,
